<svg version="1.2" baseProfile="tiny" xmlns="http://www.w3.org/2000/svg" viewBox="0 0 75 75" overflow="visible" xml:space="preserve"><path fill="#41BBEC" d="M-74.993.03h75v75h-75v-75z"/><path fill="#41BBEC" d="M.007.03h75v75h-75v-75z"/><g transform="translate(-37.5 -1050)"><ellipse fill="#FFF" cx="74.5" cy="1087.1" rx="14" ry="13.5"/><g fill="#010101"><path d="m58.5 1108.2 8.8-11.9H69v11.9h1.7v2.8H69v4.2h-3.8v-4.2h-6.7v-2.8zm1.3 0h5.4v-7.3l-5.4 7.3zM79.5 1110.2h-8v-2.8h8v2.8zM83.3 1105.9v-.5c1-.3 1.8-.6 2.2-.8.4-.3.7-.7 1-1.2.3-.5.4-1.1.4-1.6 0-.8-.3-1.4-.8-1.9-.6-.5-1.2-.8-2.1-.8-1.3 0-2.4.7-3.3 2l-.5-.2c.7-1.5 1.5-2.7 2.5-3.4s2.2-1.1 3.4-1.1c1.3 0 2.3.4 3.2 1.2s1.3 1.7 1.3 2.7c0 .7-.2 1.3-.6 2-.4.6-1 1.2-1.8 1.7 1.1.5 1.9 1.2 2.4 1.9s.8 1.7.8 2.9c0 1.9-.7 3.6-2.1 4.9-1.4 1.4-3.3 2-5.6 2-1.6 0-2.7-.3-3.4-.8-.5-.4-.8-.8-.8-1.4 0-.4.2-.8.5-1.1s.6-.4 1-.4c.3 0 .6.1.8.2.1.1.7.5 1.6 1.2s1.7 1.1 2.5 1.1c.7 0 1.3-.3 1.7-.8.5-.5.7-1.2.7-2 0-1.2-.4-2.4-1.3-3.5s-2-1.9-3.7-2.3z"/></g><path fill="#010101" d="M79 1074.2v.2c-.3 0-.5.2-.8.5-.2.2-.4.7-.7 1.4l-2.7 6.1h-.2l-2.7-6.3c-.3-.8-.5-1.2-.7-1.3s-.3-.2-.6-.3v-.2h3.8v.2h-.1c-.3 0-.6 0-.7.1-.1.1-.1.1-.1.3v.2s.1.4.3.8l1.7 4 1.6-3.5c.2-.4.3-.7.3-.9s.1-.3.1-.4c0-.1 0-.2-.1-.3s-.2-.2-.3-.2c-.2-.1-.4-.1-.7-.1v-.2H79z"/></g></svg>