<svg version="1.2" baseProfile="tiny" xmlns="http://www.w3.org/2000/svg" viewBox="0 0 75 75" overflow="visible" xml:space="preserve"><path fill="#41BBEC" d="M-74.993-74.97h75v75h-75v-75z"/><path fill="#41BBEC" d="M.007-74.97h75v75h-75v-75z"/><path fill="#FFF" d="M0-9.4 65.6-75H75v9.4L9.4 0H0v-9.4z"/><path fill="#41BBEC" d="M-74.993.03h75v75h-75v-75z"/><path fill="#41BBEC" d="M.007.03h75v75h-75v-75z"/><path fill="#FFF" d="M0 65.6 65.6 0H75v9.4L9.4 75H0v-9.4z"/><g fill="#010101"><path d="m21 58.2 8.8-11.9h1.7v11.9h1.7V61h-1.7v4.2h-3.8V61H21v-2.8zm1.3 0h5.4v-7.3l-5.4 7.3zM42 60.2h-8v-2.8h8v2.8zM45.9 46.7h8.7l-1.4 3.5h-7.3l-.7 1.8c3.1.1 5.6.9 7.3 2.4 1.4 1.2 2.1 2.7 2.1 4.5 0 1.1-.3 2.3-1 3.3-.6 1.1-1.6 1.9-2.7 2.5s-2.5.9-3.9.9c-1.5 0-2.7-.3-3.5-.8-.6-.4-.8-.9-.8-1.4 0-.4.1-.7.4-1 .3-.3.6-.5 1-.5s.7.1 1.1.2c.4.1 1 .5 1.9 1.1.6.4 1 .6 1.4.8.3.1.6.2 1 .2.7 0 1.4-.3 1.9-.8s.8-1.2.8-2c0-1.6-.8-2.9-2.4-3.9-1.6-1-3.6-1.5-6.1-1.5h-1.1l3.3-9.3z"/></g><g fill="#010101"><path d="m34.5 12.8 1.8 2.7c.3.4.5.7.6.8.1.1.3.2.5.2v.2h-3.2v-.2c.3 0 .4-.1.5-.1.1-.1.1-.1.1-.2V16c0-.1-.2-.3-.3-.5l-1-1.4-1 1.2c-.3.4-.5.6-.5.8 0 .1 0 .2.1.3s.2.1.3.2h.4v.2h-2.5v-.2c.3 0 .5-.1.7-.2.2-.1.5-.5.9-.9l1.3-1.6-1.7-2.5c-.3-.4-.4-.6-.5-.7-.1-.1-.2-.2-.3-.2-.1 0-.2-.1-.4-.1v-.2h3.3v.2h-.2c-.2 0-.3 0-.4.1-.1.1-.1.1-.1.2v.2l.3.5.8 1.2.7-.9c.4-.4.5-.7.5-.9 0-.1 0-.2-.1-.2 0-.1-.1-.1-.2-.2-.1 0-.2-.1-.4-.1v-.2h2.4v.2c-.2 0-.3 0-.5.1-.1 0-.2.1-.4.2-.1.1-.3.3-.6.7l-.9 1.5zM41.8 12.8l1.8 2.7c.3.4.5.7.6.8.1.1.3.2.5.2v.2h-3.2v-.2c.3 0 .4-.1.5-.1.1-.1.1-.1.1-.2V16c0-.1-.2-.3-.3-.5l-1-1.4-1 1.2c-.3.4-.5.6-.5.8 0 .1 0 .2.1.3s.2.1.3.2h.4v.2h-2.5v-.2c.3 0 .5-.1.7-.2.2-.1.5-.5.9-.9l1.3-1.6-1.7-2.5c-.3-.4-.4-.6-.5-.7-.1-.1-.2-.2-.3-.2-.1 0-.2-.1-.4-.1v-.2h3.3v.2h-.2c-.2 0-.3 0-.4.1-.1.1-.1.1-.1.2v.2l.3.5.8 1.2.7-.9c.4-.4.5-.7.5-.9 0-.1 0-.2-.1-.2 0-.1-.1-.1-.2-.2-.1 0-.2-.1-.4-.1v-.2h2.4v.2c-.2 0-.3 0-.5.1-.1 0-.2.1-.4.2-.1.1-.3.3-.6.7l-.9 1.5z"/></g><g fill="#010101"><path d="M26.9 24v2.8h-.2c-.3-.8-.7-1.3-1.2-1.7s-1.1-.6-1.7-.6c-.6 0-1.1.2-1.5.5s-.7.8-.8 1.4-.2 1.2-.2 1.8c0 .8.1 1.4.3 2s.5 1 .9 1.3.9.4 1.4.4c.2 0 .4 0 .6-.1s.4-.1.6-.2v-1.7c0-.3 0-.5-.1-.6s-.1-.2-.3-.2-.3-.1-.5-.1H24v-.2h3.9v.2c-.3 0-.5.1-.6.1s-.2.2-.3.3c0 .1-.1.3-.1.5v1.7c-.5.2-1 .4-1.6.5s-1.1.2-1.7.2c-.8 0-1.4-.1-1.9-.3s-.9-.5-1.3-.8-.7-.7-.9-1.1c-.3-.5-.4-1.1-.4-1.8 0-1.2.4-2.2 1.3-3s1.9-1.2 3.2-1.2c.4 0 .8 0 1.1.1.2 0 .5.1.8.3s.6.2.7.2c.1 0 .2 0 .3-.1s.2-.2.3-.5h.1zM33.7 24.2v7.1c0 .1.1.2.2.3s.2.1.5.1v.2l-2.3.5v-.9c-.3.3-.5.6-.7.7s-.5.2-.7.2c-.7 0-1.3-.3-1.7-.9-.3-.5-.5-1.1-.5-1.9 0-.6.1-1.1.3-1.6s.5-.8.8-1.1.7-.4 1.1-.4c.3 0 .5.1.7.2s.4.3.7.5v-1.7c0-.4 0-.7-.1-.8 0-.1-.1-.2-.2-.3s-.3-.1-.5-.1v-.2h2.4zM32 27.9c-.3-.6-.6-.8-1.1-.8-.1 0-.3 0-.4.1-.1.1-.3.3-.4.6s-.1.8-.1 1.4c0 .7.1 1.2.2 1.5s.2.6.4.7c.1.1.2.1.4.1.3 0 .7-.3 1-.8v-2.8zM37.9 28.3v2.5c0 .4 0 .7.1.8s.1.2.3.3.3.1.5.1h.3v.2h-4.2V32h.3c.2 0 .4 0 .6-.1.1-.1.2-.1.2-.3 0-.1.1-.3.1-.7v-5.2c0-.4 0-.7-.1-.8s-.1-.2-.3-.3-.3-.1-.5-.1h-.3v-.2h4.2v.2h-.3c-.2 0-.4 0-.6.1-.1.1-.2.1-.2.3 0 .1-.1.3-.1.7v2.2h2.8v-2.2c0-.4 0-.7-.1-.8s-.1-.2-.3-.3-.3-.1-.5-.1h-.3v-.2h4.1v.2h-.3c-.2 0-.4 0-.6.1-.1.1-.2.1-.2.3 0 .1-.1.3-.1.7v5.2c0 .4 0 .7.1.8s.1.2.3.3.3.1.5.1h.3v.2h-4.1v-.2h.3c.2 0 .4 0 .6-.1.1-.1.2-.1.2-.3 0-.1.1-.3.1-.7v-2.5h-2.8zM46.8 32.3 45 28.1c-.2-.5-.4-.8-.5-1-.1-.1-.2-.2-.4-.2v-.2H47v.2c-.2 0-.3 0-.4.1-.1.1-.1.2-.1.3 0 .1.1.4.3.8l.9 2.1.7-1.8c.2-.5.3-.9.3-1.1 0-.1 0-.2-.1-.3s-.2-.1-.5-.1v-.2h1.8v.2c-.2 0-.3.1-.4.2s-.3.4-.5.9l-1.8 4.3h-.4zM52.9 32.4l-1.8-4.1c-.3-.6-.5-1-.6-1.1s-.3-.2-.5-.3v-.2h2.9v.2c-.2 0-.3 0-.4.1s-.1.1-.1.2.1.4.3.9l.9 2.1.6-1.7c.2-.6.3-1 .3-1.2 0-.1 0-.3-.1-.3s-.3-.1-.5-.1v-.2h1.8v.2c-.2 0-.3.1-.4.2s-.3.5-.6 1.2l-1.6 4.1c-.4 1-.7 1.6-.9 1.9-.3.3-.6.5-1 .5-.3 0-.6-.1-.8-.3s-.3-.4-.3-.7c0-.2.1-.4.2-.6s.3-.2.5-.2.4.1.5.2.2.3.2.6c0 .1 0 .2.1.3l.1.1c.1 0 .2-.1.3-.2.2-.2.3-.5.6-1.1l.3-.5z"/></g></svg>