<svg version="1.2" baseProfile="tiny" xmlns="http://www.w3.org/2000/svg" viewBox="0 0 75 75" overflow="visible" xml:space="preserve"><path fill="#278C43" d="M-74.993.03h75v75h-75v-75z"/><path fill="#278C43" d="M.007.03h75v75h-75v-75z"/><path fill="#FFF" d="M0 0v9.4l28.1 28.1L0 65.6V75h9.4l28.1-28.1L65.6 75H75v-9.4L46.9 37.5 75 9.4V0h-9.4L37.5 28.1 9.4 0H0z"/><g fill="#010101"><path d="M24.4 55.9v-.5c1-.3 1.8-.6 2.2-.8.4-.3.7-.7 1-1.2.3-.5.4-1.1.4-1.6 0-.8-.3-1.4-.8-1.9-.6-.5-1.2-.8-2.1-.8-1.3 0-2.4.7-3.3 2l-.5-.2c.7-1.5 1.5-2.7 2.5-3.4s2.2-1.1 3.4-1.1c1.3 0 2.3.4 3.2 1.2s1.3 1.7 1.3 2.7c0 .7-.2 1.3-.6 2-.4.6-1 1.2-1.8 1.7 1.1.5 1.9 1.2 2.4 1.9s.8 1.7.8 2.9c0 1.9-.7 3.6-2.1 4.9-1.4 1.4-3.3 2-5.6 2-1.6 0-2.7-.3-3.4-.8-.5-.4-.8-.8-.8-1.4 0-.4.2-.8.5-1.1s.6-.4 1-.4c.3 0 .6.1.8.2.1.1.7.5 1.6 1.2s1.7 1.1 2.5 1.1c.7 0 1.3-.3 1.7-.8.5-.5.7-1.2.7-2 0-1.2-.4-2.4-1.3-3.5s-2-1.9-3.7-2.3zM42 60.2h-8v-2.8h8v2.8zM45.8 55.9v-.5c1-.3 1.8-.6 2.2-.8.4-.3.7-.7 1-1.2.3-.5.4-1.1.4-1.6 0-.8-.3-1.4-.8-1.9-.6-.5-1.2-.8-2.1-.8-1.3 0-2.4.7-3.3 2l-.5-.2c.7-1.5 1.5-2.7 2.5-3.4s2.2-1.1 3.4-1.1c1.3 0 2.3.4 3.2 1.2s1.3 1.7 1.3 2.7c0 .7-.2 1.3-.6 2-.4.6-1 1.2-1.8 1.7 1.1.5 1.9 1.2 2.4 1.9s.8 1.7.8 2.9c0 1.9-.7 3.6-2.1 4.9-1.4 1.4-3.3 2-5.6 2-1.6 0-2.7-.3-3.4-.8-.5-.4-.8-.8-.8-1.4 0-.4.2-.8.5-1.1s.6-.4 1-.4c.3 0 .6.1.8.2.1.1.7.5 1.6 1.2s1.7 1.1 2.5 1.1c.7 0 1.3-.3 1.7-.8.5-.5.7-1.2.7-2 0-1.2-.4-2.4-1.3-3.5s-2-1.9-3.7-2.3z"/></g><g fill="#010101"><path d="m34.5 12.8 1.8 2.7c.3.4.5.7.6.8.1.1.3.2.5.2v.2h-3.2v-.2c.3 0 .4-.1.5-.1.1-.1.1-.1.1-.2V16c0-.1-.2-.3-.3-.5l-1-1.4-1 1.2c-.3.4-.5.6-.5.8 0 .1 0 .2.1.3s.2.1.3.2h.4v.2h-2.5v-.2c.3 0 .5-.1.7-.2.2-.1.5-.5.9-.9l1.3-1.6-1.7-2.5c-.3-.4-.4-.6-.5-.7-.1-.1-.2-.2-.3-.2-.1 0-.2-.1-.4-.1v-.2h3.3v.2h-.2c-.2 0-.3 0-.4.1-.1.1-.1.1-.1.2v.2l.3.5.8 1.2.7-.9c.4-.4.5-.7.5-.9 0-.1 0-.2-.1-.2 0-.1-.1-.1-.2-.2-.1 0-.2-.1-.4-.1v-.2h2.4v.2c-.2 0-.3 0-.5.1-.1 0-.2.1-.4.2-.1.1-.3.3-.6.7l-.9 1.5zM41.8 12.8l1.8 2.7c.3.4.5.7.6.8.1.1.3.2.5.2v.2h-3.2v-.2c.3 0 .4-.1.5-.1.1-.1.1-.1.1-.2V16c0-.1-.2-.3-.3-.5l-1-1.4-1 1.2c-.3.4-.5.6-.5.8 0 .1 0 .2.1.3s.2.1.3.2h.4v.2h-2.5v-.2c.3 0 .5-.1.7-.2.2-.1.5-.5.9-.9l1.3-1.6-1.7-2.5c-.3-.4-.4-.6-.5-.7-.1-.1-.2-.2-.3-.2-.1 0-.2-.1-.4-.1v-.2h3.3v.2h-.2c-.2 0-.3 0-.4.1-.1.1-.1.1-.1.2v.2l.3.5.8 1.2.7-.9c.4-.4.5-.7.5-.9 0-.1 0-.2-.1-.2 0-.1-.1-.1-.2-.2-.1 0-.2-.1-.4-.1v-.2h2.4v.2c-.2 0-.3 0-.5.1-.1 0-.2.1-.4.2-.1.1-.3.3-.6.7l-.9 1.5z"/></g><g fill="#010101"><path d="m28.7 29.5 2.2-5.2h3.2v.2h-.3c-.2 0-.4 0-.6.1-.1.1-.2.1-.2.3 0 .1-.1.3-.1.7v5.2c0 .4 0 .7.1.8s.1.2.3.3.3.1.5.1h.3v.2H30V32h.3c.2 0 .4 0 .6-.1.1-.1.2-.1.2-.3 0-.1.1-.3.1-.7V25l-3 7.2h-.1L25 25v6.3c.1.2.2.4.3.5s.4.2.8.2v.2h-2.7V32h.1c.2 0 .3 0 .5-.1s.3-.1.3-.2.1-.2.2-.4v-5.6c0-.4 0-.7-.1-.8s-.1-.2-.3-.3-.3-.1-.5-.1h-.3v-.2h3.2l2.2 5.2zM40 29.5l2.2-5.2h3.2v.2h-.3c-.2 0-.4 0-.6.1-.1.1-.2.1-.2.3 0 .1-.1.3-.1.7v5.2c0 .4 0 .7.1.8s.1.2.3.3.3.1.5.1h.3v.2h-4.1V32h.3c.2 0 .4 0 .6-.1.1-.1.2-.1.2-.3 0-.1.1-.3.1-.7V25l-3 7.2h-.1L36.3 25v6.3c.1.2.2.4.3.5s.4.2.8.2v.2h-2.7V32h.1c.2 0 .3 0 .5-.1s.3-.1.3-.2.1-.2.2-.4v-5.6c0-.4 0-.7-.1-.8s-.1-.2-.3-.3-.3-.1-.5-.1h-.3v-.2h3.2l2.2 5.2zM51.2 24.1v.2c-.7.2-1.3.4-1.7.7s-.8.6-1 1-.4.9-.6 1.5c.2-.1.3-.2.4-.2.3-.1.5-.1.8-.1.6 0 1.1.2 1.5.6s.6 1 .6 1.8c0 .5-.1 1-.3 1.4s-.5.8-.9 1-.8.4-1.3.4-.9-.1-1.4-.4-.7-.7-1-1.2-.3-1.1-.3-1.7c0-.9.2-1.7.6-2.5s1-1.4 1.8-1.8 1.8-.7 2.8-.7zm-3.3 3.8v1.2c0 .5.1 1.1.2 1.6s.2.9.4 1.1c.1.1.3.2.5.2s.3-.1.5-.3.2-.6.2-1.3c0-1.1-.1-1.8-.4-2.2-.2-.3-.4-.4-.7-.4-.3-.1-.5 0-.7.1z"/></g></svg>