<svg version="1.2" baseProfile="tiny" xmlns="http://www.w3.org/2000/svg" viewBox="0 0 75 75" overflow="visible" xml:space="preserve"><path fill="#41BBEC" d="M-74.993.03h75v75h-75v-75z"/><path fill="#41BBEC" d="M.007.03h75v75h-75v-75z"/><path fill="#278C43" d="M22.888 18.3h29.4v19.6h-29.4V18.3zm25.5 1.6h-23.9v15.9l23.9-15.9zm-21.6 16.4h23.9v-16l-23.9 16z"/><g fill="#278C43"><path d="M17.688 49.7v-3c1.4-.1 2.4-.2 2.9-.3.9-.2 1.6-.6 2.2-1.2.4-.4.7-.9.9-1.6.1-.4.2-.7.2-.9h3.7v22.7h-4.6V49.8h-5.3zM33.088 54.3h8.7v4.2h-8.7v-4.2zM47.288 59.3c.2 1 .5 1.7 1 2.2.5.5 1.2.8 2.2.8 1.1 0 1.9-.4 2.5-1.2.6-.8.9-1.8.9-2.9 0-1.2-.3-2.1-.8-2.9-.5-.8-1.4-1.2-2.5-1.2-.5 0-1 .1-1.4.2-.7.2-1.2.7-1.6 1.4l-4-.2 1.6-12.5h12.5v3.8h-9.3l-.8 5c.7-.4 1.2-.7 1.6-.9.6-.2 1.4-.4 2.4-.4 1.9 0 3.5.6 4.9 1.9 1.4 1.3 2.1 3.1 2.1 5.5 0 2.1-.7 4-2 5.6-1.3 1.6-3.4 2.5-6 2.5-2.2 0-3.9-.6-5.3-1.7-1.4-1.2-2.2-2.8-2.3-4.9h4.3z"/></g><g fill="#278C43"><path d="M32.088 16.6h-1.2l2.5-3.7-2.4-3.5h1.2l1.8 2.7 1.8-2.7h1.2l-2.4 3.5 2.5 3.7h-1.2l-1.9-2.9-1.9 2.9zM38.788 16.6h-1.2l2.5-3.7-2.4-3.5h1.2l1.8 2.7 1.8-2.7h1.2l-2.4 3.5 2.5 3.7h-1.2l-1.9-2.9-1.9 2.9z"/></g><g fill="#278C43"><path d="M63.788 34.6c-.5-.3-1-.8-1.5-1.5l-.7-1.1c-.3-.5-.5-.9-.8-1.1-.3-.3-.7-.5-1.1-.5-.5 0-.9.1-1.2.4-.3.3-.4.7-.4 1.2 0 .7.3 1.2.8 1.5.3.1.7.2 1.2.2v1.1c-.7 0-1.3-.1-1.8-.4-.8-.5-1.2-1.3-1.2-2.4 0-1 .3-1.7.8-2.1s1.1-.7 1.7-.7c.7 0 1.2.2 1.7.7.3.3.6.8 1 1.5l.4.8c.2.4.4.7.6.9.3.4.7.6 1.1.7v-4.6h1V35c-.4 0-1-.2-1.6-.4zM57.088 28.3v-1.2h7.6v-4.3h1v5.5h-8.6zM57.688 22.1V21h1.8v-1h.9v1h4.1c.2 0 .4-.1.4-.2s.1-.2.1-.4V20h.8c0 .1.1.2.1.4v.4c0 .5-.1.8-.4 1s-.6.3-1 .3h-4.2v.8h-.9v-.8h-1.7z"/></g></svg>