<svg version="1.2" baseProfile="tiny" xmlns="http://www.w3.org/2000/svg" viewBox="0 0 75 75" overflow="visible" xml:space="preserve"><path fill="#41BBEC" d="M-74.993.03h75v75h-75v-75z"/><path fill="#41BBEC" d="M.007.03h75v75h-75v-75z"/><path fill="#278C43" d="M22.888 18.3h29.4v19.6h-29.4V18.3zm25.5 1.6h-23.9v15.9l23.9-15.9zm-21.6 16.4h23.9v-16l-23.9 16z"/><g fill="#278C43"><path d="M32.288 60.5h-2.6v4.9h-4.4v-4.9h-9v-3.9l8.3-13.8h5V57h2.6v3.5zm-7-3.5v-9.8l-5.7 9.8h5.7zM33.088 54.3h8.7v4.2h-8.7v-4.2zM47.288 59.3c.2 1 .5 1.7 1 2.2.5.5 1.2.8 2.2.8 1.1 0 1.9-.4 2.5-1.2.6-.8.9-1.8.9-2.9 0-1.2-.3-2.1-.8-2.9-.5-.8-1.4-1.2-2.5-1.2-.5 0-1 .1-1.4.2-.7.2-1.2.7-1.6 1.4l-4-.2 1.6-12.5h12.5v3.8h-9.3l-.8 5c.7-.4 1.2-.7 1.6-.9.6-.2 1.4-.4 2.4-.4 1.9 0 3.5.6 4.9 1.9 1.4 1.3 2.1 3.1 2.1 5.5 0 2.1-.7 4-2 5.6-1.3 1.6-3.4 2.5-6 2.5-2.2 0-3.9-.6-5.3-1.7-1.4-1.2-2.2-2.8-2.3-4.9h4.3z"/></g><g fill="#278C43"><path d="M32.088 16.6h-1.2l2.5-3.7-2.4-3.5h1.2l1.8 2.7 1.8-2.7h1.2l-2.4 3.5 2.5 3.7h-1.2l-1.9-2.9-1.9 2.9zM38.788 16.6h-1.2l2.5-3.7-2.4-3.5h1.2l1.8 2.7 1.8-2.7h1.2l-2.4 3.5 2.5 3.7h-1.2l-1.9-2.9-1.9 2.9z"/></g><g fill="#278C43"><path d="M57.388 38.3c.4-.8 1.2-1.4 2.4-1.5V38c-.6.1-1.1.4-1.4.9-.3.4-.4 1-.4 1.6 0 .8.3 1.4.9 2 .6.5 1.5.8 2.7.8 1 0 1.9-.2 2.5-.7s1-1.2 1-2.2c0-.8-.2-1.4-.7-1.9-.5-.5-1.2-.8-2.2-.8v2.7h-1v-3.8h4.6v.8l-1.1.3c.4.4.7.7.9 1 .3.5.4 1.1.4 1.9 0 1-.3 1.9-1 2.6-.8.8-2 1.2-3.4 1.2s-2.6-.4-3.4-1.2c-.8-.7-1.2-1.7-1.2-2.8-.1-.9.1-1.6.4-2.1zM59.588 31.8c.1-.2.3-.4.6-.6h-3.2v-1h8.6v.9h-.9c.4.2.7.5.8.9.2.3.3.7.3 1.1 0 .7-.3 1.3-.9 1.8s-1.4.8-2.3.8c-.9 0-1.7-.2-2.4-.7-.7-.5-1-1.1-1-2 .1-.4.2-.8.4-1.2zm4.7 2.4c.5-.3.7-.7.7-1.4 0-.5-.2-.9-.6-1.2-.4-.3-1-.5-1.8-.5s-1.4.2-1.8.5c-.4.3-.6.7-.6 1.2s.2 1 .6 1.3c.4.3 1 .5 1.8.5.7 0 1.3-.1 1.7-.4zM57.088 28.9v-1.2h3.6v-4.4h-3.6v-1.2h8.6v1.2h-4v4.4h4v1.2h-8.6zM59.388 20.4l5.1-1.7-5.1-1.7v-1.2l6.3 2.4v1.1l-6.3 2.3v-1.2z"/><path d="M59.388 11.5v-1.2c.4.1 1.3.5 2.8 1 1.1.4 2 .7 2.6 1 1.6.6 2.6 1 2.9 1.3.4.2.5.7.5 1.3v.3c0 .1 0 .2-.1.3h-1c.1-.2.1-.3.1-.4v-.2c0-.2 0-.3-.1-.4-.1-.1-.1-.2-.2-.2 0 0-.2-.1-.5-.2s-.5-.2-.6-.3l-6.5 2.3v-1.2l5.1-1.7-5-1.7z"/></g></svg>