<svg version="1.2" baseProfile="tiny" xmlns="http://www.w3.org/2000/svg" viewBox="0 0 75 75" overflow="visible" xml:space="preserve"><path fill="#41BBEC" d="M-74.993.03h75v75h-75v-75z"/><path fill="#41BBEC" d="M.007.03h75v75h-75v-75z"/><g fill="#278C43"><path d="M23.6 23.2v3.7h-.3c-.3-1-.9-1.8-1.6-2.3-.7-.5-1.5-.8-2.3-.8-.8 0-1.5.2-2 .7-.5.4-.9 1.1-1.1 1.9S16 28 16 28.9c0 1 .1 1.9.4 2.7.2.8.6 1.3 1.2 1.7.5.4 1.2.5 1.9.5.3 0 .5 0 .8-.1.3-.1.5-.1.8-.2v-2.2c0-.4 0-.7-.1-.8-.1-.1-.2-.2-.4-.3s-.4-.1-.7-.1h-.3v-.3h5.1v.3c-.4 0-.7.1-.8.2-.2.1-.3.2-.4.4 0 .1-.1.3-.1.7v2.2c-.7.3-1.4.5-2.1.7-.7.2-1.5.2-2.3.2-1 0-1.8-.1-2.5-.4s-1.2-.6-1.8-1.1-.9-.9-1.2-1.5c-.4-.7-.5-1.5-.5-2.4 0-1.6.6-2.9 1.7-4s2.5-1.6 4.2-1.6c.5 0 1 0 1.4.1.2 0 .6.2 1.1.4.5.2.8.3.9.3.1 0 .3-.1.4-.2s.2-.3.3-.6h.6zM31.7 31H28l-.4 1c-.1.3-.2.6-.2.9 0 .3.1.5.4.7.1.1.5.1 1 .2v.3h-3.5v-.3c.4-.1.7-.2.9-.5.2-.3.5-.8.9-1.6l3.8-8.5h.1l3.8 8.7c.4.8.7 1.3.9 1.6.2.2.4.3.8.3v.3h-5.1v-.3h.2c.4 0 .7-.1.9-.2.1-.1.2-.2.2-.4v-.3s-.1-.2-.2-.6l-.8-1.3zm-.3-.6-1.6-3.6-1.6 3.6h3.2zM44.2 30.4l2.9-7h4.3v.3h-.3c-.3 0-.6.1-.8.2-.1.1-.2.2-.3.4-.1.1-.1.5-.1 1v7c0 .5 0 .9.1 1 .1.1.2.3.4.4.2.1.4.2.7.2h.3v.3h-5.5v-.3h.3c.3 0 .6-.1.8-.2.1-.1.2-.2.3-.4.1-.1.1-.5.1-1v-7.9l-4.1 9.7h-.2L39 24.5V33c.1.3.2.5.4.6s.6.2 1.1.2v.3h-3.6v-.3h.1c.2 0 .5 0 .7-.1s.4-.2.5-.3c.1-.1.2-.3.2-.6v-7.5c0-.5 0-.9-.1-1l-.4-.4c-.2-.1-.4-.2-.7-.2h-.3v-.3h4.3l3 7zM56.1 24v4.3h.2c.7 0 1.2-.2 1.5-.6.3-.4.5-1 .6-1.9h.3v5.5h-.3c-.1-.6-.2-1.1-.4-1.5-.2-.4-.4-.6-.7-.8s-.7-.2-1.2-.2v3c0 .6 0 .9.1 1.1 0 .1.1.2.3.3.1.1.4.1.7.1h.6c1 0 1.8-.2 2.4-.7.6-.5 1-1.2 1.3-2.1h.3l-.5 3.4h-9.2v-.3h.4c.3 0 .6-.1.7-.2.1-.1.2-.2.3-.4.1-.1.1-.5.1-1v-7.9c-.1-.2-.1-.3-.3-.4-.2-.1-.5-.2-.8-.2h-.4v-.3H61v3.1h-.3c-.2-.8-.4-1.3-.6-1.6s-.7-.6-1.2-.7c-.3-.1-.8-.1-1.6-.1h-1.2zM24.9 41.5v2.9h-.3c-.2-.7-.4-1.1-.6-1.4s-.5-.5-.8-.7c-.2-.1-.5-.1-1-.1h-.8v8.2c0 .5 0 .9.1 1 .1.1.2.3.4.4.2.1.4.2.7.2h.4v.3h-5.5V52h.4c.3 0 .6-.1.7-.2.1-.1.2-.2.3-.4.1-.1.1-.5.1-1v-8.2h-.8c-.7 0-1.2.2-1.6.5-.5.4-.7 1-.9 1.8h-.3v-2.9h9.5zM25.9 41.5h5.5v.3h-.3c-.4 0-.7 0-.8.1-.2.1-.3.2-.3.4-.1.2-.1.5-.1 1.1v5.2c0 .9.1 1.6.2 1.9.1.3.4.6.7.8s.7.3 1.2.3c.6 0 1.1-.1 1.5-.4.4-.3.7-.6.9-1.1.2-.5.3-1.2.3-2.4v-4.3c0-.5 0-.8-.1-1-.1-.2-.2-.3-.4-.4-.2-.1-.6-.2-1-.2v-.3h3.7v.3h-.2c-.3 0-.5.1-.7.2-.2.1-.3.3-.4.5-.1.2-.1.5-.1.9v4c0 1.2-.1 2.1-.2 2.7-.2.6-.6 1.1-1.2 1.5-.6.5-1.5.7-2.6.7-.9 0-1.6-.1-2.1-.4-.7-.3-1.2-.8-1.4-1.3-.3-.5-.4-1.2-.4-2.1v-5.2c0-.6 0-1-.1-1.1-.1-.1-.2-.3-.4-.4-.2-.1-.5-.1-.9-.1v-.2zM41.3 47.3v3c0 .6 0 .9.1 1.1s.2.3.4.4c.2.1.5.1 1 .1v.3h-5.4v-.3c.5 0 .8 0 1-.1.2-.1.3-.2.4-.4.1-.1.1-.5.1-1.1v-6.9c0-.6 0-.9-.1-1.1s-.2-.3-.4-.4c-.2-.1-.5-.1-1-.1v-.3h4.9c1.3 0 2.2.1 2.8.3.6.2 1.1.5 1.5 1s.6 1 .6 1.7c0 .8-.3 1.4-.8 1.9-.4.3-.9.6-1.5.7l2.5 3.6c.3.5.6.8.7.9.2.2.5.2.7.3v.3h-3.3l-3.4-4.8h-.8zm0-5.2v4.6h.4c.7 0 1.3-.1 1.6-.2s.6-.4.8-.7c.2-.3.3-.8.3-1.4 0-.8-.2-1.4-.6-1.8-.4-.4-1-.6-1.8-.6h-.7z"/><path d="m52.6 41.5 5.2 6.6v-4.6c0-.6-.1-1.1-.3-1.3-.2-.3-.7-.4-1.3-.4v-.3h3.5v.3c-.4.1-.7.1-.9.2-.2.1-.3.2-.4.4-.1.2-.1.6-.1 1.1v8.8H58l-7.2-8.8v6.7c0 .6.1 1 .4 1.2.3.2.6.3 1 .3h.2v.3h-3.8v-.3c.6 0 1-.1 1.2-.4.2-.2.3-.6.3-1.2v-7.5l-.2-.3c-.2-.3-.4-.5-.6-.6-.2-.1-.4-.1-.7-.1v-.3h4z"/></g></svg>