<svg version="1.2" baseProfile="tiny" xmlns="http://www.w3.org/2000/svg" viewBox="0 0 75 75" overflow="visible" xml:space="preserve"><path fill="#278C43" d="M-74.993.03h75v75h-75v-75z"/><path fill="#278C43" d="M.007.03h75v75h-75v-75z"/><path fill="#FFF" d="M22.888 18.3h29.4v19.6h-29.4V18.3zm25.5 1.6h-23.9v15.9l23.9-15.9zm-21.6 16.4h23.9V20.4l-23.9 15.9z"/><g fill="#FFF"><path d="M17.688 49.7v-3c1.4-.1 2.4-.2 2.9-.3.9-.2 1.6-.6 2.2-1.2.4-.4.7-.9.9-1.6.1-.4.2-.7.2-.9h3.7v22.7h-4.6V49.8h-5.3zM33.088 54.3h8.7v4.2h-8.7v-4.2zM53.688 48.4c0-.4-.1-.8-.4-1.2-.5-.7-1.2-1.1-2.2-1.1-1.4 0-2.5.8-3.1 2.4-.3.9-.6 2.2-.7 4 .6-.7 1.2-1.1 1.9-1.4.7-.3 1.6-.5 2.5-.5 2 0 3.7.7 4.9 2 1.3 1.4 1.9 3.1 1.9 5.2s-.6 4-1.9 5.6c-1.3 1.6-3.2 2.4-5.9 2.4-2.9 0-5-1.2-6.3-3.6-1.1-1.9-1.6-4.3-1.6-7.2 0-1.7.1-3.1.2-4.2.3-1.9.8-3.5 1.5-4.8.6-1.1 1.5-2 2.5-2.6 1-.7 2.3-1 3.8-1 2.1 0 3.8.5 5 1.6s2 2.5 2.1 4.3h-4.2zm-5.3 12.8c.7.8 1.5 1.2 2.5 1.2s1.8-.4 2.3-1.1c.6-.7.9-1.7.9-2.9 0-1.3-.3-2.3-1-3-.6-.7-1.4-1.1-2.4-1.1-.8 0-1.4.2-2 .7-.9.7-1.3 1.8-1.3 3.3.1 1.1.4 2.1 1 2.9z"/></g><g fill="#FFF"><path d="M28.788 16.6h-1.2l2.5-3.7-2.4-3.5h1.2l1.8 2.7 1.8-2.7h1.2l-2.4 3.5 2.5 3.7h-1.2l-1.9-2.9-1.9 2.9zM35.388 16.6h-1.2l2.5-3.7-2.4-3.5h1.2l1.8 2.7 1.8-2.7h1.2l-2.4 3.5 2.5 3.7h-1.2l-1.9-2.9-1.9 2.9zM42.088 16.6h-1.2l2.5-3.7-2.4-3.5h1.2l1.8 2.7 1.8-2.7h1.2l-2.4 3.5 2.5 3.7h-1.2l-1.9-2.9-1.9 2.9z"/></g><g fill="#FFF"><path d="M59.788 33.8h-.8c-.1-.8-.2-1.3-.4-1.6s-.6-.5-1.2-.7v-.8h8.4v1.1h-5.9v2zM57.688 21.8c.6-.6 1.2-.9 2-1v1.1c-.6.1-1 .4-1.3.8s-.5.9-.5 1.6c0 .8.3 1.5.9 2 .6.5 1.5.8 2.7.8 1 0 1.8-.2 2.5-.7.6-.5.9-1.2.9-2.1 0-.8-.3-1.5-1-1.9-.3-.2-.8-.4-1.4-.5v-1.1c.9.1 1.7.4 2.3 1 .7.7 1.1 1.6 1.1 2.7 0 1-.3 1.8-.9 2.5-.8.9-2 1.3-3.7 1.3-1.3 0-2.3-.3-3.1-1-.9-.7-1.3-1.7-1.3-3 0-1.1.3-1.9.8-2.5z"/></g></svg>