<svg version="1.2" baseProfile="tiny" xmlns="http://www.w3.org/2000/svg" viewBox="0 0 75 75" overflow="visible" xml:space="preserve"><path fill="#278C43" d="M-74.993.03h75v75h-75v-75z"/><path fill="#278C43" d="M.007.03h75v75h-75v-75z"/><path fill="#FFF" d="M22.888 18.3h29.4v19.6h-29.4V18.3zm25.5 1.6h-23.9v15.9l23.9-15.9zm-21.6 16.4h23.9V20.4l-23.9 15.9z"/><g fill="#FFF"><path d="M20.688 58.4c0 .9.1 1.7.4 2.2.5 1.1 1.5 1.6 2.9 1.6.9 0 1.6-.3 2.3-.9.6-.6 1-1.5 1-2.6 0-1.5-.6-2.5-1.8-3-.7-.3-1.8-.4-3.2-.4v-3.2c1.4 0 2.5-.2 3-.4 1-.4 1.5-1.3 1.5-2.7 0-.9-.3-1.6-.8-2.1s-1.2-.8-2.1-.8c-1 0-1.8.3-2.3 1-.5.7-.7 1.6-.7 2.7h-4.2c0-1.1.2-2.2.6-3.2.4-.9.9-1.7 1.7-2.5.6-.5 1.3-.9 2.1-1.2.8-.3 1.8-.4 3-.4 2.2 0 3.9.6 5.2 1.7 1.3 1.1 2 2.6 2 4.5 0 1.3-.4 2.5-1.2 3.4-.5.6-1 1-1.6 1.2.4 0 1 .3 1.8 1 1.1 1.1 1.7 2.5 1.7 4.3 0 1.9-.7 3.6-2 5.1s-3.3 2.2-5.9 2.2c-3.2 0-5.4-1-6.7-3.1-.7-1.1-1-2.6-1.1-4.4h4.4zM33.088 54.3h8.7v4.2h-8.7v-4.2zM47.288 59.3c.2 1 .5 1.7 1 2.2.5.5 1.2.8 2.2.8 1.1 0 1.9-.4 2.5-1.2.6-.8.9-1.8.9-2.9 0-1.2-.3-2.1-.8-2.9-.5-.8-1.4-1.2-2.5-1.2-.5 0-1 .1-1.4.2-.7.2-1.2.7-1.6 1.4l-4-.2 1.6-12.5h12.5v3.8h-9.3l-.8 5c.7-.4 1.2-.7 1.6-.9.6-.2 1.4-.4 2.4-.4 1.9 0 3.5.6 4.9 1.9 1.4 1.3 2.1 3.1 2.1 5.5 0 2.1-.7 4-2 5.6-1.3 1.6-3.4 2.5-6 2.5-2.2 0-3.9-.6-5.3-1.7-1.4-1.2-2.2-2.8-2.3-4.9h4.3z"/></g><path fill="#FFF" d="M35.388 16.6h-1.2l2.5-3.7-2.4-3.5h1.2l1.8 2.7 1.8-2.7h1.2l-2.4 3.5 2.5 3.7h-1.2l-1.9-2.9-1.9 2.9z"/><g fill="#FFF"><path d="M63.788 37.6c-.5-.3-1-.8-1.5-1.5l-.7-1.1c-.3-.5-.5-.9-.8-1.1-.3-.3-.7-.5-1.1-.5-.5 0-.9.1-1.2.4-.3.3-.4.7-.4 1.2 0 .7.3 1.2.8 1.5.3.1.7.2 1.2.2v1.1c-.7 0-1.3-.1-1.8-.4-.8-.5-1.2-1.3-1.2-2.4 0-1 .3-1.7.8-2.1s1.1-.7 1.7-.7c.7 0 1.2.2 1.7.7.3.3.6.8 1 1.5l.4.8c.2.4.4.7.6.9.3.4.7.6 1.1.7v-4.6h1V38c-.4 0-1-.2-1.6-.4zM57.388 25.6c.4-.8 1.2-1.4 2.4-1.5v1.2c-.6.1-1.1.4-1.4.9-.3.4-.4 1-.4 1.6 0 .8.3 1.4.9 2 .6.5 1.5.8 2.7.8 1 0 1.9-.2 2.5-.7.6-.4 1-1.2 1-2.2 0-.8-.2-1.4-.7-1.9-.5-.5-1.2-.8-2.2-.8v2.7h-1v-3.8h4.6v.8l-1.1.3c.4.4.7.7.9 1 .3.5.4 1.1.4 1.9 0 1-.3 1.9-1 2.6-.8.8-2 1.2-3.4 1.2s-2.6-.4-3.4-1.2c-.8-.7-1.2-1.7-1.2-2.8-.1-.8.1-1.5.4-2.1zM59.588 19.2c.1-.2.3-.4.6-.6h-3.2v-1h8.6v.9h-.9c.4.2.7.5.8.9.2.3.3.7.3 1.2 0 .7-.3 1.3-.9 1.8s-1.4.8-2.3.8c-.9 0-1.7-.2-2.4-.7-.7-.5-1-1.1-1-2 .1-.6.2-1 .4-1.3zm4.7 2.3c.5-.3.7-.7.7-1.4 0-.5-.2-.9-.6-1.2s-1-.5-1.8-.5-1.4.2-1.8.5-.6.7-.6 1.2.2 1 .6 1.3c.4.3 1 .5 1.8.5.7 0 1.3-.1 1.7-.4z"/></g></svg>