<svg version="1.2" baseProfile="tiny" xmlns="http://www.w3.org/2000/svg" viewBox="0 0 75 75" overflow="visible" xml:space="preserve"><path fill="#278C43" d="M-74.993.03h75v75h-75v-75z"/><path fill="#278C43" d="M.007.03h75v75h-75v-75z"/><path fill="#FFF" d="M22.888 18.3h29.4v19.6h-29.4V18.3zm13.2 9.8-11.6-7.8v15.5l11.6-7.7zm-9.3-8.2 10.8 7.2 10.8-7.2h-21.6zm10.8 9.2-10.8 7.2h21.6l-10.8-7.2zm1.4-1 11.6 7.8V20.4l-11.6 7.7z"/><g fill="#FFF"><path d="M17.588 60.9c.6-1.5 2.1-3.1 4.5-4.8 2.1-1.5 3.4-2.5 4-3.2.9-1 1.4-2.1 1.4-3.2 0-1-.3-1.8-.8-2.4-.5-.6-1.3-1-2.3-1-1.4 0-2.3.5-2.8 1.5-.3.6-.4 1.5-.5 2.8h-4.3c.1-1.9.4-3.5 1-4.7 1.2-2.3 3.3-3.4 6.3-3.4 2.4 0 4.3.7 5.7 2s2.1 3.1 2.1 5.3c0 1.7-.5 3.2-1.5 4.5-.7.9-1.7 1.8-3.2 2.9l-1.8 1.3c-1.1.8-1.9 1.4-2.3 1.7-.4.4-.8.8-1 1.2h9.9v3.9h-15.5c.1-1.6.4-3.1 1.1-4.4zM33.088 54.3h8.7v4.2h-8.7v-4.2zM58.688 60.5h-2.6v4.9h-4.4v-4.9h-9v-3.9l8.3-13.8h5V57h2.6v3.5zm-6.9-3.5v-9.8l-5.7 9.8h5.7z"/></g><g fill="#FFF"><path d="M32.088 16.6h-1.2l2.5-3.7-2.4-3.5h1.2l1.8 2.7 1.8-2.7h1.2l-2.4 3.5 2.5 3.7h-1.2l-1.9-2.9-1.9 2.9zM38.788 16.6h-1.2l2.5-3.7-2.4-3.5h1.2l1.8 2.7 1.8-2.7h1.2l-2.4 3.5 2.5 3.7h-1.2l-1.9-2.9-1.9 2.9z"/></g><g fill="#FFF"><path d="M65.088 37.5c-.5.4-1.2.7-2 .7v-1.1c.5 0 .9-.1 1.2-.3.4-.3.7-.8.7-1.5 0-.6-.1-1-.4-1.3s-.7-.5-1.1-.5c-.6 0-1 .2-1.2.5s-.3.8-.3 1.5v.4h-.9v-.5c0-.4-.1-.7-.2-1-.2-.4-.6-.7-1.2-.7-.4 0-.7.1-1 .4s-.3.6-.3 1c0 .7.2 1.2.7 1.5.3.1.6.2 1.1.3v1c-.6 0-1.2-.1-1.6-.4-.8-.4-1.2-1.2-1.2-2.3 0-.9.2-1.5.6-2s.9-.7 1.7-.7c.5 0 .9.1 1.3.4.2.2.4.4.5.7.1-.4.4-.8.7-1s.8-.4 1.3-.4c.8 0 1.5.3 2 .8s.8 1.3.8 2.2c-.3 1.1-.6 1.8-1.2 2.3zM57.388 25.6c.4-.8 1.2-1.4 2.4-1.5v1.2c-.6.1-1.1.4-1.4.9-.3.4-.4 1-.4 1.6 0 .8.3 1.4.9 2 .6.5 1.5.8 2.7.8 1 0 1.9-.2 2.5-.7s1-1.2 1-2.2c0-.8-.2-1.4-.7-1.9-.5-.5-1.2-.8-2.2-.8v2.7h-1v-3.8h4.6v.8l-1.1.3c.4.4.7.7.9 1 .3.5.4 1.1.4 1.9 0 1-.3 1.9-1 2.6-.8.8-2 1.2-3.4 1.2s-2.6-.4-3.4-1.2c-.8-.7-1.2-1.7-1.2-2.8-.1-.8.1-1.5.4-2.1zM59.588 19.2c.1-.2.3-.4.6-.6h-3.2v-1h8.6v.9h-.9c.4.2.7.5.8.9s.3.7.3 1.1c0 .7-.3 1.3-.9 1.8s-1.4.8-2.3.8c-.9 0-1.7-.2-2.4-.7s-1-1.1-1-2c.1-.5.2-.9.4-1.2zm4.7 2.3c.5-.3.7-.7.7-1.4 0-.5-.2-.9-.6-1.2s-1-.5-1.8-.5-1.4.2-1.8.5-.6.7-.6 1.2.2 1 .6 1.3 1 .5 1.8.5c.7 0 1.3-.1 1.7-.4z"/></g></svg>