<svg version="1.2" baseProfile="tiny" xmlns="http://www.w3.org/2000/svg" viewBox="0 0 75 75" overflow="visible" xml:space="preserve"><path fill="#FDD700" d="M0 0h75v75H0z"/><g fill="#010101"><path d="M24.1 18.4c0-.3 0-.7-.3-1.2-.5-.8-1.4-.9-1.9-.9-2.8 0-3.4 2.6-3.4 4.4 0 .8.1 2.2 1 3.1.6.6 1.3 1 2.7 1 1.2 0 1.6-.1 1.9-.2v-2.4h-2.2v-1.9h4.7v5.8c-.7.2-1.9.6-4.2.6-2.6 0-4-.6-4.9-1.5-1.3-1.3-1.5-3.1-1.5-4.3 0-4.1 2.6-6.3 6.1-6.3 1.5 0 3 .4 3.9 1.5.8.9.8 1.8.8 2.4h-2.7zM33.5 26.5c-.1-.5-.1-.9-.1-1.1-.9 1.3-2 1.3-2.4 1.3-1.2 0-1.7-.3-2-.6-.5-.5-.7-1.1-.7-1.8 0-.6.2-1.8 1.7-2.5 1-.4 2.4-.4 3.2-.4 0-.5 0-.8-.1-1.1-.2-.6-.8-.7-1.1-.7-.3 0-.7.1-.9.4-.2.3-.2.5-.2.7h-2.3c0-.4.1-1.3.9-1.9.7-.5 1.7-.7 2.4-.7s2.1.1 2.9 1c.5.7.6 1.6.6 2v3.2c0 .7 0 1.4.2 2h-2.1zM30.6 24c0 .5.4 1.2 1.2 1.2.4 0 .8-.2 1-.5.4-.5.4-1.1.4-2-1.5-.2-2.6.3-2.6 1.3zM37.6 19.9c0-.5 0-1-.1-1.5h2.3l.1 1c.3-.4.9-1.2 2.5-1.2 1.9 0 2.4 1.1 2.5 1.5.7-1.3 1.8-1.5 2.6-1.5 1.6 0 2.3 1 2.5 1.3.4.7.4 1.7.4 2.4v4.6H48v-4.8c0-.9-.1-1.8-1.4-1.8-1.4 0-1.5 1.3-1.5 2.5v4h-2.4v-4.8c0-.6 0-1.8-1.3-1.8-1.5 0-1.5 1.3-1.5 1.8v4.8h-2.4v-6.5zM54.6 23c0 .5 0 2.2 1.6 2.2.6 0 1.2-.2 1.4-1.1h2.2c0 .4-.1 1.1-.8 1.8-.6.6-1.6.9-2.8.9-.7 0-2-.1-2.8-1-.7-.8-1-1.9-1-3.2 0-1.3.3-2.9 1.7-3.8.6-.4 1.4-.7 2.3-.7 1.2 0 2.5.4 3.3 2 .5 1.1.5 2.3.5 3h-5.6zm3-1.5c0-.4 0-1.8-1.4-1.8-1 0-1.5.9-1.5 1.8h2.9zM25.3 34.4h-3.4v-1.9h9.4v1.9h-3.4v9.7h-2.5v-9.7z"/><path d="M32.3 36v4.8c0 .7 0 1.8 1.3 1.8 1.5 0 1.5-1.1 1.5-2.5V36h2.4v7.5c0 .2 0 .4.1.6h-2.3l-.1-1.1c-.2.4-.8 1.3-2.4 1.3-1.1 0-2-.5-2.4-1.1-.5-.7-.5-1.8-.5-2.2v-5h2.4zM39.8 38c0-.4-.1-1.6-.1-2h2.2v1.6c.3-.7.8-1.7 2.8-1.6v2.1c-2.4-.2-2.5 1-2.5 2v4h-2.4V38zM45.4 37.4v-1.5h2.3l.1 1.2c.2-.4.9-1.4 2.6-1.4 1.6 0 2.3 1 2.5 1.5.2.5.2.9.2 2.4V44h-2.4v-5c0-.3 0-.6-.1-.9-.2-.4-.5-.7-1.2-.7-.5 0-1 .2-1.2.6-.1.2-.3.6-.3 1.2v4.7h-2.4v-6.5z"/></g></svg>