<svg version="1.2" baseProfile="tiny" xmlns="http://www.w3.org/2000/svg" viewBox="0 0 75 75" overflow="visible" xml:space="preserve"><path fill="#FDD700" d="M0 0h75v75H0z"/><g fill="#010101"><path d="M33 14.6c1.2 0 2.9.3 4.1 1.6 1.2 1.4 1.5 3.2 1.5 4.4 0 1.7-.5 3.5-1.5 4.5-1.3 1.4-3.2 1.6-4.1 1.6-1.5 0-3-.5-4.1-1.6-1.3-1.3-1.4-3.3-1.4-4.3-.1-3 1.3-6.2 5.5-6.2zM30.9 24c.4.5.9.9 2.1.9 1 0 1.7-.4 2.2-1.1.4-.6.8-1.5.8-3.3 0-.6 0-1.4-.3-2.1-.5-1.4-1.5-2-2.6-2-.9 0-1.7.4-2.1 1-.7.8-.8 2-.8 3.4-.2 1.1 0 2.3.7 3.2zM42.5 18.4l.1 1.2c.7-1.3 2.1-1.3 2.5-1.3 2.1 0 3.4 1.6 3.4 4 0 2.3-1.2 4.3-3.5 4.3-1.5 0-2-.8-2.3-1v4h-2.4V18.4h2.2zm3.5 3.9c0-1-.2-2.6-1.6-2.6-.8 0-1.9.6-1.9 2.8 0 .5 0 2.5 1.8 2.5 1 0 1.7-1.1 1.7-2.7zM18.9 40.4c0 .5 0 2.2 2.1 2.2 1.3 0 2.2-.6 2.2-1.6s-.7-1.2-2.2-1.6c-2.8-.7-4.3-1.5-4.3-3.5 0-1.9 1.4-3.6 4.6-3.6 1.2 0 2.6.3 3.5 1.4.7.8.7 1.8.7 2.1h-2.4c0-.4-.2-1.8-1.9-1.8-1.2 0-1.9.6-1.9 1.6 0 1.1.8 1.3 2.5 1.7 2 .5 4 1 4 3.3 0 2.1-1.7 3.8-4.9 3.8-4.4 0-4.5-2.8-4.5-4h2.5zM32.3 43.9c-.8.2-1.5.3-1.8.3-2.4 0-2.4-1.5-2.4-2.2v-4.4h-1.6V36h1.6v-1.6l2.4-.9v2.4h1.9v1.6h-1.9v3.6c0 .7 0 1.2 1.1 1.2h.8v1.6zM38.6 44.1c-.1-.5-.1-.9-.1-1.1-.9 1.3-2 1.3-2.4 1.3-1.2 0-1.7-.3-2-.6-.5-.5-.7-1.1-.7-1.8 0-.6.2-1.8 1.7-2.5 1-.4 2.4-.4 3.2-.4 0-.5 0-.8-.1-1.1-.2-.6-.8-.7-1.1-.7-.3 0-.7.1-.9.4-.2.3-.2.5-.2.7h-2.3c0-.4.1-1.3.9-1.9.7-.5 1.7-.7 2.4-.7s2.1.1 2.9 1c.5.7.6 1.6.6 2v3.2c0 .7 0 1.4.2 2h-2.1zm-2.9-2.5c0 .5.4 1.2 1.2 1.2.4 0 .8-.2 1-.5.4-.5.4-1.1.4-2-1.5-.2-2.6.3-2.6 1.3zM50.3 36c-.1.6-.1 1.2-.1 2v6c0 3-2.5 3.3-4 3.3-1.2 0-3.4-.1-3.6-2.6h2.3c0 .2.1 1.1 1.4 1.1.7 0 1.3-.3 1.5-1.1.1-.4.1-.7.1-1.9-.8 1-1.6 1.1-2.2 1.1-2.3 0-3.4-2-3.4-4s1.1-4 3.5-4c1.5 0 2 .8 2.3 1.2l.1-1.1h2.1zm-4.1 6.3c1.7 0 1.7-2 1.7-2.3 0-.9-.2-2.5-1.6-2.5-.9 0-1.6.7-1.6 2.4-.1.4-.1 2.4 1.5 2.4zM54 40.6c0 .5 0 2.2 1.6 2.2.6 0 1.2-.2 1.4-1.1h2.2c0 .4-.1 1.1-.8 1.8-.6.6-1.6.9-2.8.9-.7 0-2-.1-2.8-1-.7-.8-1-1.9-1-3.2 0-1.3.3-2.9 1.7-3.8.6-.4 1.4-.7 2.3-.7 1.2 0 2.5.4 3.3 2 .5 1.1.5 2.3.5 3H54zm3-1.5c0-.4 0-1.8-1.4-1.8-1 0-1.5.9-1.5 1.8H57z"/></g></svg>