<svg version="1.2" baseProfile="tiny" xmlns="http://www.w3.org/2000/svg" viewBox="0 0 75 75" overflow="visible" xml:space="preserve"><path fill="#FDD700" d="M0 0h75v75H0z"/><path fill="#010101" d="M33.5 20.9V9.3h3.8c1.6 0 2.1.5 2.6 1.2.4.6.5 1.3.5 1.5 0 1.4-.5 2.4-2 2.7v.1c1.6.2 2.4 1.2 2.4 2.8 0 3-2.2 3.2-3.5 3.2h-3.8zm1.5-6.7h2.1c1.2 0 1.7-.7 1.7-1.8 0-1-.5-1.7-1.8-1.7h-2.1v3.5zm0 5.4h2.1c1.6 0 2.1-1.1 2.1-2 0-1.8-1.1-2.2-2.6-2.2H35v4.2zM24.02 27.5h11.938c.09.122.22.097.342.097.89.041 1.786.196 2.65.074.702-.106 1.411.13 2.088-.171h.13c1.15.203 2.332.203 3.482.106 1.199-.098 2.145.521 2.136 1.712a65.685 65.685 0 0 1-.097 3.351c-.098 1.827-.058 3.661 0 5.488.008.367-.074.913.464 1.117.612-.334 1.232-.595 1.753-1.084.351-.327.881-.653 1.452-.628.302.008.62.204.905.17 1.182-.138 2.356.156 3.563-.097.726-.155 1.533.106 2.308.188.587.065.889.489.79.986-.105.538-.073 1.077-.064 1.59.04 3.074-.098 6.148-.172 9.222-.032 1.248-.106 2.496-.122 3.776-.457.008-.652.579-1.158.416-.668-.212-1.362-.041-2.038-.074-1.452-.065-2.911.09-4.265-.008-.644-.595-.685-1.353-.88-1.949-.84-.546-1.411-1.304-2.26-1.582-.325.147-.195.408-.236.588-.122.513-.18 1.019.522 1.272.35.122.35.546.408.913.147.954-.082 1.892-.04 2.846.032.717.097 1.565-.4 2.258-.58.098-1.15.188-1.754.294-.057.171-.179.326-.195.554-.074 1.117-.033 2.243-.082 3.368-.049 1.158.098 2.3-.693 3.278l-.024.032c-.914-.073-1.737.375-2.593.245-.84-.122-1.737-.098-2.487-.734-.375-2.16.024-4.42-.49-6.833-4.052-.236-8.137-.155-12.255 0-.09.457-.188.938-.188 1.451.009 1.46-.016 2.92-.024 4.38 0 .537-.285.864-.734 1.133-1.052.627-2.193.611-3.319.432-.644-.106-1.32-.318-1.745-.726-.26-1.745.188-3.351.009-4.982-.098-.889-.033-1.704-.914-2.218l-.09-.514c-.75-.505-1.337-1.06-1.214-2.022.13-.995.024-1.99-.009-2.96.31-.4.571-.79.955-1.027-.155-.962.04-1.892.008-2.813-.033-.979.114-1.99.024-2.977-.032-.407.033-.75.27-.97.57-.522.53-1.174.53-1.843-.009-.913 0-1.818 0-2.731.3-4.02-.278-8.08.268-12.011.481-.277.856-.277 1.232-.294.766-.032 1.549.139 2.315-.09zm16.626 15.435c.653-.758.677-1.5.098-2.356-1.696-.783-3.22-1.876-5.014-2.398-.539.905-.514 2.756.008 3.466 1.671.334 3.188 1.223 4.908 1.288zm14.45-2.593a27.124 27.124 0 0 0-4.746 0c-.58.767-.775 1.664-1.395 2.25-.057.417.237.547.481.767h5.341c.449-1.01.327-1.998.318-3.017zm-24.21-2.193c-1.835.677-3.408 1.859-5.161 2.617v1.949c.154 0 .26.016.366 0 1.542-.342 3.099-.66 4.624-1.052.375-.098.595-.522.456-.93-.13-.39-.032-.684.212-1.002-.203-.196-.277-.416-.277-.685-.008-.261.09-.547-.22-.897zm9.353 10.42c1.223.93 1.785.963 2.421.196.645-.782.49-1.867-.366-2.585-1.183-.048-1.183-.048-2.218.824a3.126 3.126 0 0 0 .163 1.566zm-14.058.718c.71-.456 1.199-1.476.97-2.014-.334-.775-1.108-1.313-1.728-1.182-.75.155-1.24.774-1.248 1.598-.016.897.465 1.28 2.006 1.598zm4.623 1.908c-.342.791-.081 1.623-.154 2.43-.066.75.236 1.166 1.035 1.085.04 0 .082.016.13.032.14-.106.286-.22.416-.318v-3.066c-.391-.522-.872-.35-1.427-.163zm2.006 3.172c.612.35.612.35 1.223.204.547-.848.498-2.846-.073-3.514-.473-.188-.783.163-1.15.301v3.01zm2.292.286c.57.016 1.109-.033 1.15-.563.065-.938.154-1.9.016-2.821-.278-.139-.514-.253-.856-.424-.759 1.239-.416 2.52-.31 3.808z"/></svg>