<svg version="1.2" baseProfile="tiny" xmlns="http://www.w3.org/2000/svg" viewBox="0 0 75 75" overflow="visible" xml:space="preserve"><path fill="#FDD700" d="M0 0h75v75H0z"/><path fill="#020202" d="M63.962 48.122c-1.212-.7-2.712-.588-4.157-.42-1.435.168-2.964 1.184-2.964 1.184l-15.703-9.674 9.73-6.458 1.528.512 2.861-1.584s.382-.382 1.081-.186c.7.186 1.715 2.096 2.349 2.926.633.83 1.78 3.308 2.544 5.405s1.016 2.982 1.584 2.796.569-.186.187-2.982c-.382-2.796-1.529-9.217-5.657-14.045-4.129-4.827-10.037-7.12-11.38-7.623-1.332-.513-2.665-1.212-2.982-.569-.317.634.886 1.333 2.414 1.967 1.528.634 3.048 1.966 4.576 3.113s2.61 3.177 2.61 3.177l.13 1.016-3.3 2.451-.064 1.65-10.97 6.729-11.015-6.794 2.031-3.514s.42-.68.336-1.267c-.084-.597-5.005-3.476-6.272-4.24-1.268-.765-3.56-1.268-6.524-1.697-2.963-.42-5.76.084-6.356.764-.596.68-.251 3.477.252 4.996.513 1.528 2.376 5.256 2.964 5.927.596.68 7.12 5.76 7.54 5.76s.847-.513.847-.513l3.392-3.728 9.767 6.17-26.28 16.122.633 2.032 1.463 1.584 27.036-17.95 16.533 10.439s.252 1.267.168 2.544c-.084 1.267.68 3.215.764 3.644.084.42 1.1 1.696 2.115 1.267 1.016-.428 3.812-4.492 3.812-4.492s3.131-4.063 3.308-4.743c.168-.68.168-1.053-.931-1.696zm-3.747 5.088c-1.016 1.398-2.032 2.544-2.414 2.349-.382-.187 0-2.862.569-3.626.55-.736 2.796-2.031 3.308-1.78.513.252-.447 1.66-1.463 3.057z"/></svg>