<svg version="1.2" baseProfile="tiny" xmlns="http://www.w3.org/2000/svg" viewBox="0 0 75 75" overflow="visible" xml:space="preserve"><path fill="#FDD700" d="M0 0h75v75H0z"/><path fill="#020202" d="M63.965 48.122c-1.212-.7-2.712-.588-4.156-.42-1.436.168-2.964 1.184-2.964 1.184l-15.703-9.674 9.73-6.458 1.528.512 2.86-1.584s.383-.382 1.082-.186c.699.186 1.714 2.096 2.348 2.926s1.78 3.308 2.544 5.405 1.016 2.982 1.585 2.796c.568-.186.568-.186.186-2.982-.382-2.796-1.528-9.217-5.657-14.045-4.128-4.827-10.037-7.12-11.379-7.623-1.333-.513-2.665-1.212-2.982-.569-.317.634.885 1.333 2.414 1.967 1.528.634 3.047 1.966 4.575 3.113 1.529 1.146 2.61 3.177 2.61 3.177l.13 1.016-3.299 2.451-.065 1.65-10.97 6.729-11.015-6.794 2.032-3.514s.42-.68.335-1.267c-.083-.597-5.004-3.476-6.272-4.24-1.267-.765-3.56-1.268-6.523-1.697-2.964-.42-5.76.084-6.356.764-.597.68-.252 3.477.251 4.996.513 1.528 2.377 5.256 2.964 5.927.597.68 7.12 5.76 7.54 5.76s.848-.513.848-.513l3.392-3.728 9.767 6.17L9.064 55.493l.633 2.032 1.464 1.584 27.036-17.95 16.532 10.439s.252 1.267.168 2.544c-.084 1.267.68 3.215.764 3.644.084.42 1.1 1.696 2.116 1.267 1.016-.428 3.812-4.492 3.812-4.492s3.13-4.063 3.308-4.743c.168-.68.168-1.053-.932-1.696zm-3.746 5.088c-1.016 1.398-2.032 2.544-2.414 2.349-.382-.187 0-2.862.568-3.626.55-.736 2.796-2.031 3.309-1.78.512.252-.448 1.66-1.463 3.057z"/></svg>