<svg version="1.2" baseProfile="tiny" xmlns="http://www.w3.org/2000/svg" viewBox="0 0 75 75" overflow="visible" xml:space="preserve"><path fill="#FDD700" d="M0 0h75v75H0z"/><g fill="#010101"><path d="M17 14.9h2.5v11.6H17V14.9zM21.6 19.8v-1.5h2.3l.1 1.2c.2-.4.9-1.4 2.6-1.4 1.6 0 2.3 1 2.5 1.5.2.5.2.9.2 2.4v4.4h-2.4v-5c0-.3 0-.6-.1-.9-.2-.4-.5-.7-1.2-.7-.5 0-1 .2-1.2.6-.1.2-.3.6-.3 1.2v4.7h-2.4v-6.5zM31.3 14.9h2.5V17h-2.5v-2.1zm0 3.5h2.4v8.1h-2.4v-8.1zM40.5 26.3c-.8.2-1.5.3-1.8.3-2.4 0-2.4-1.5-2.4-2.2V20h-1.6v-1.6h1.6v-1.6l2.4-.9v2.4h1.9v1.6h-1.9v3.6c0 .7 0 1.2 1.1 1.2h.8v1.6zM41.9 14.9h2.5V17h-2.5v-2.1zm.1 3.5h2.4v8.1H42v-8.1zM51.3 26.5c-.1-.5-.1-.9-.1-1.1-.9 1.3-2 1.3-2.4 1.3-1.2 0-1.7-.3-2-.6-.5-.5-.7-1.1-.7-1.8 0-.6.2-1.8 1.7-2.5 1-.4 2.4-.4 3.2-.4 0-.5 0-.8-.1-1.1-.2-.6-.8-.7-1.1-.7-.3 0-.7.1-.9.4-.2.3-.2.5-.2.7h-2.3c0-.4.1-1.3.9-1.9.7-.5 1.7-.7 2.4-.7s2.1.1 2.9 1c.5.7.6 1.6.6 2v3.2c0 .7 0 1.4.2 2h-2.1zM48.4 24c0 .5.4 1.2 1.2 1.2.4 0 .8-.2 1-.5.4-.5.4-1.1.4-2-1.5-.2-2.6.3-2.6 1.3zM55 21.3h4v1.8h-4v-1.8zM29.6 43.9c-.8.2-1.5.3-1.8.3-2.4 0-2.4-1.5-2.4-2.2v-4.4h-1.6V36h1.6v-1.6l2.4-.9v2.4h1.9v1.6h-1.9v3.6c0 .7 0 1.2 1.1 1.2h.8v1.6zM31 32.5h2.5v2.1H31v-2.1zm.1 3.5h2.4v8.1h-2.4V36zM37.1 36l1.8 5.5 1.9-5.5h2.3l-2.9 8.1h-2.6l-3-8.1h2.5zM46 40.6c0 .5 0 2.2 1.6 2.2.6 0 1.2-.2 1.4-1.1h2.2c0 .4-.1 1.1-.8 1.8-.6.6-1.6.9-2.8.9-.7 0-2-.1-2.8-1-.7-.8-1-1.9-1-3.2 0-1.3.3-2.9 1.7-3.8.6-.4 1.4-.7 2.3-.7 1.2 0 2.5.4 3.3 2 .5 1.1.5 2.3.5 3H46zm3-1.5c0-.4 0-1.8-1.4-1.8-1 0-1.5.9-1.5 1.8H49z"/></g></svg>