<svg version="1.2" viewBox="0 0 75 75" overflow="visible" xml:space="preserve" xmlns="http://www.w3.org/2000/svg">
    <path fill="#FDD700" d="M0 0h75v75H0z" />
    <path fill="#010101"
        d="M39.9 63.4c0 2.9 0 5.7-3 5.7s-3-2.8-3-5.7c0-3 0-5.8 3-5.8 3.1 0 3 2.8 3 5.8zm-4.5.3c0 1.9-.1 4.2 1.5 4.2s1.5-2.4 1.5-4.2c0-3 0-4.8-1.5-4.8-1.4 0-1.5 1.8-1.5 4.8z" />
    <g transform="translate(633.175 336.255) scale(.10526)" fill="none" stroke="#231F20" stroke-width="5.263"
        stroke-miterlimit="10">
        <ellipse cx="-5657.8" cy="-2906.4" rx="160" ry="133.3"
            style="stroke-width:47.50142504;stroke-miterlimit:10;stroke-dasharray:none" />
        <path
            d="M-5897.8-2906.4h80m320 0h80m-240-200v66.7m0 266.6v66.7m-169.7-341.4 56.6 47.1m226.2 188.6 56.6 47.1m-349.1-8.1 56.6-47.1m226.2-188.6 56.6-47.1"
            style="stroke:#231f20;stroke-opacity:1;stroke-width:47.50142504;stroke-miterlimit:10;stroke-dasharray:none" />
    </g>
</svg>