<svg version="1.2" baseProfile="tiny" xmlns="http://www.w3.org/2000/svg" viewBox="0 0 75 75" overflow="visible" xml:space="preserve"><path fill="#FDE498" d="M0 0h75v75H0z"/><g fill="#010101"><path d="M9.8 20.9V9.3h5.7v1.3h-4.3v3.7h4v1.3h-4v5.3H9.8zM18.8 20.9h-1.5V9.3h1.5v11.6zM27.2 12.4c0-1.4-.6-2.1-2-2.1-.5 0-2.1.1-2.1 2.5v3.9c0 2.5.7 3.2 2.1 3.2 1.1 0 1.8-.3 2.1-.5v-3.5h-2.1v-1.3h3.6v5.6c-.9.5-2 .9-3.5.9-2.4 0-3.6-1.3-3.6-4.5v-3.8c0-2.3 1.2-3.8 3.6-3.8 2.5 0 3.7.9 3.6 3.3h-1.7zM31.7 20.9V9.3h1.5v5h4v-5h1.5v11.6h-1.5v-5.3h-4v5.3h-1.5zM47.9 9.4v1.3h-3V21h-1.5V10.7h-3V9.4h7.5zM49.5 20.9V9.3h6v1.3H51v3.7h4.2v1.3H51v4h4.6v1.3h-6.1zM59.1 15.6v5.3h-1.5V9.3h4c2 0 2.8 1.4 2.8 2.9 0 1.4-.8 2.4-2.1 2.6 1.3.2 1.8.7 1.9 3 0 .5.2 2.3.4 3h-1.5c-.4-.8-.3-2.3-.4-3.8-.1-1.4-1.2-1.5-1.7-1.5h-1.9zm0-1.3h2.2c1.1 0 1.6-.9 1.6-1.9 0-.8-.4-1.8-1.6-1.8h-2.2v3.7z"/></g><g fill="#010101"><path d="M19.9 37.3v-8.7h2.8c1.2 0 1.6.4 1.9.9.3.5.3 1 .3 1.2 0 1.1-.4 1.8-1.5 2.1v.1c1.2.1 1.8.9 1.8 2.1 0 2.2-1.6 2.4-2.6 2.4h-2.7zm1.1-5h1.6c.9 0 1.3-.5 1.3-1.4 0-.7-.4-1.3-1.3-1.3H21v2.7zm0 4.1h1.6c1.2 0 1.6-.8 1.6-1.5 0-1.4-.9-1.6-2-1.6H21v3.1zM26.9 28.7H28v1.1h-1.1v-1.1zm1.1 8.6h-1v-6.1h1v6.1zM30.7 32c.4-.6.8-.8 1.4-.8 1 0 2 .4 2 3 0 1.5 0 3.2-2 3.2-.6 0-1-.3-1.3-.7v2.9h-1v-8.3h1v.7zm2.4 2.2c0-.9 0-2.2-1.2-2.2s-1.1 1.7-1.1 2.6c0 .8 0 2.1 1.1 2.1 1 0 1.2-.9 1.2-2.5zM36.6 37.3h-1v-8.7h1v8.7zM41.4 36.5c-.3.7-.8 1-1.5 1-1.3 0-1.7-.8-1.7-2 0-1.8 1.8-1.9 3.2-1.9 0-.8 0-1.7-1-1.7-.7 0-1 .4-.9 1.1h-1.1c0-1.4.8-1.8 2.1-1.8 1.6 0 2 .8 2 1.8v2.9c0 .5 0 1 .1 1.4h-1.1v-.8zm-2.2-1c0 .6.3 1.1.9 1.1.6 0 1.3-.4 1.2-2.3-.8 0-2.1 0-2.1 1.2zM47.6 37.3v-4.2c0-.6-.2-1.2-1.1-1.2-1.1 0-1.2 1-1.2 1.8v3.6h-1v-4.8c0-.4 0-.8-.1-1.3h1v.8c.4-.7.8-.9 1.6-.9 1.3 0 1.6.8 1.6 2v4.2h-.8zM51.3 34.6c0 1.7.5 2 1.2 2s1-.5 1.1-1.2h1.1c0 1.3-.8 2-2.1 2s-2.3-.4-2.3-3.1c0-1.8.2-3.2 2.3-3.2 1.7 0 2.2.9 2.2 3v.5h-3.5zm2.3-.7c0-1.8-.5-2-1.2-2-.6 0-1.1.3-1.2 2h2.4z"/></g><path fill="#010101" d="M37.664 65.916c-.091-.076-.112-.172-.112-.283.006-.858-.116-1.712-.106-2.575 0-.05-.005-.101-.01-.147-.01-.06-.01-.141-.09-.156-.086-.016-.117.06-.132.116-.141.576-.697.828-1.01 1.267-.06.086-.162.071-.247.066-.162-.01-.329 0-.49-.015a6.031 6.031 0 0 0-1.046-.015c-.419.035-.782-.137-1.166-.233-1.02-.252-1.631-1.575-1.111-2.393.232-.369.565-.601 1.02-.566.369.03.672-.106.964-.298.824-.535 1.642-1.08 2.475-1.6.207-.132.242-.279.212-.49-.1-.738-.207-1.475-.298-2.213a85.14 85.14 0 0 1-.384-3.56 46.26 46.26 0 0 1-.151-2.894c-.005-.197-.091-.222-.258-.227-1.686-.02-3.373.025-5.06.045-.672.005-1.343-.01-2.01-.11-.338-.051-.651-.223-1-.243-.404-.02-.808-.01-1.217-.005-.293 0-.586-.015-.879-.025-.676-.02-1.358.02-2.035-.061-.535-.066-1.08-.111-1.586-.288-.59-.207-.984-.692-1.303-1.217-.6-1.005-.419-3.096 1.394-3.737.712-.253 1.445-.344 2.192-.349 2.172-.01 4.338-.015 6.51-.045.793-.015 1.585-.02 2.383-.03.182 0 .263-.046.278-.243.02-.343.08-.682.167-1.015.05-.187.136-.363.348-.348.202.01.298.176.334.373.055.298.126.591.146.894.025.339.157.44.48.318.313-.116.61-.272.904-.434.156-.086.192-.283.171-.43-.035-.287.081-.555.061-.842-.01-.162.056-.334.066-.506a.427.427 0 0 1 .161-.338c.142-.116.122-.308.122-.475.005-.414.12-.798.383-1.126.036-.045.081-.086.096-.136.147-.404.354-.768.596-1.126.142-.207.02-.465.076-.697h.05c.152.171.253.353.233.596-.005.065.076.141.116.207.404.646.783 1.308 1 2.04.096.323.035.697.298.975.035.035.025.11.035.166.06.45.162.9.157 1.354-.005.338.176.495.48.57.11.026.217.081.313.137.176.11.363.121.565.11.157-.01.238-.06.243-.231.01-.288.065-.566.131-.849.05-.227.141-.43.384-.49.161-.04.333.202.384.505.04.258.07.52.08.778.01.217.111.263.313.263 1.293-.02 2.581-.03 3.874-.036a510.79 510.79 0 0 1 3.934-.015c.955 0 1.914-.015 2.858.187.829.177 1.45.611 1.864 1.353.197.354.252.738.298 1.132v.247c-.04.283-.076.566-.177.833-.273.733-.732 1.349-1.46 1.606-.727.258-1.514.364-2.287.404-.818.046-1.636.005-2.454.016-.637.005-1.278-.066-1.884.207-.056.025-.126.025-.192.035-.859.131-1.727.096-2.59.101-.915.005-1.829.03-2.743-.015a13.326 13.326 0 0 0-1.616.035c-.333.025-.394.076-.4.414a45.774 45.774 0 0 1-.216 3.43 93.27 93.27 0 0 1-.591 5.04c-.03.196.035.282.177.373.858.54 1.717 1.08 2.565 1.636.293.192.586.278.94.283.717.005 1.227.662 1.126 1.374-.076.51-.278.944-.687 1.257-.404.313-.904.455-1.384.51-.636.071-1.293.01-1.94.016-.115 0-.211-.03-.277-.122-.298-.409-.783-.681-.914-1.222-.015-.06-.056-.126-.141-.106-.081.02-.091.091-.091.157-.015.702-.026 1.404-.111 2.1-.046.35-.036.703-.05 1.051h-.051z"/></svg>