<svg version="1.2" baseProfile="tiny" xmlns="http://www.w3.org/2000/svg" viewBox="0 0 75 75" overflow="visible" xml:space="preserve"><path fill="#FDE498" d="M0 0h75v75H0z"/><g fill="#010101"><path d="M9.8 20.9V9.3h5.7v1.3h-4.3v3.7h4v1.3h-4v5.3H9.8zM18.8 20.9h-1.5V9.3h1.5v11.6zM27.2 12.4c0-1.4-.6-2.1-2-2.1-.5 0-2.1.1-2.1 2.5v3.9c0 2.5.7 3.2 2.1 3.2 1.1 0 1.8-.3 2.1-.5v-3.5h-2.1v-1.3h3.6v5.6c-.9.5-2 .9-3.5.9-2.4 0-3.6-1.3-3.6-4.5v-3.8c0-2.3 1.2-3.8 3.6-3.8 2.5 0 3.7.9 3.6 3.3h-1.7zM31.7 20.9V9.3h1.5v5h4v-5h1.5v11.6h-1.5v-5.3h-4v5.3h-1.5zM47.9 9.4v1.3h-3V21h-1.5V10.7h-3V9.4h7.5zM49.5 20.9V9.3h6v1.3H51v3.7h4.2v1.3H51v4h4.6v1.3h-6.1zM59.1 15.6v5.3h-1.5V9.3h4c2 0 2.8 1.4 2.8 2.9 0 1.4-.8 2.4-2.1 2.6 1.3.2 1.8.7 1.9 3 0 .5.2 2.3.4 3h-1.5c-.4-.8-.3-2.3-.4-3.8-.1-1.4-1.2-1.5-1.7-1.5h-1.9zm0-1.3h2.2c1.1 0 1.6-.9 1.6-1.9 0-.8-.4-1.8-1.6-1.8h-2.2v3.7z"/></g><g fill="#010101"><path d="M12.3 37.6h-1v-8.7h1.8l2.2 7.3 2.2-7.3h1.8v8.7h-1.1v-7.7l-2.4 7.7h-1l-2.4-7.7v7.7zM21 34.7c0-1.8.2-3.2 2.3-3.2 2.1 0 2.3 1.5 2.3 3.2 0 2.7-1 3.1-2.3 3.1-1.3 0-2.3-.4-2.3-3.1zm3.5-.4c0-1.7-.5-2-1.3-2s-1.3.4-1.3 2c0 2 .3 2.7 1.3 2.7 1.1-.1 1.3-.8 1.3-2.7zM30.4 37.6v-4.2c0-.6-.2-1.2-1.1-1.2-1.1 0-1.2 1-1.2 1.8v3.6h-1v-4.8c0-.4 0-.8-.1-1.3h1v.8c.4-.7.8-.9 1.6-.9 1.3 0 1.6.8 1.6 2v4.2h-.8zM33 34.7c0-1.8.2-3.2 2.3-3.2 2.1 0 2.3 1.5 2.3 3.2 0 2.7-1 3.1-2.3 3.1-1.3 0-2.3-.4-2.3-3.1zm3.5-.4c0-1.7-.5-2-1.3-2s-1.3.4-1.3 2c0 2 .3 2.7 1.3 2.7 1.1-.1 1.3-.8 1.3-2.7zM40.2 32.3c.4-.6.8-.8 1.4-.8 1 0 2 .4 2 3 0 1.5 0 3.2-2 3.2-.6 0-1-.3-1.3-.7v2.9h-1v-8.3h1v.7zm2.3 2.2c0-.9 0-2.2-1.2-2.2s-1.1 1.7-1.1 2.6c0 .8 0 2.1 1.1 2.1 1.1-.1 1.2-.9 1.2-2.5zM46.1 37.6h-1v-8.7h1v8.7zM50.9 36.8c-.3.7-.8 1-1.5 1-1.3 0-1.7-.8-1.7-2 0-1.8 1.8-1.9 3.2-1.9 0-.8 0-1.7-1-1.7-.7 0-1 .4-.9 1.1h-1.1c0-1.4.8-1.8 2.1-1.8 1.6 0 2 .8 2 1.8v2.9c0 .5 0 1 .1 1.4H51v-.8zm-2.2-1c0 .6.3 1.1.9 1.1.6 0 1.3-.4 1.2-2.3-.8 0-2.1-.1-2.1 1.2zM57.1 37.6v-4.2c0-.6-.2-1.2-1.1-1.2-1.1 0-1.2 1-1.2 1.8v3.6h-1v-4.8c0-.4 0-.8-.1-1.3h1v.8c.4-.7.8-.9 1.6-.9 1.3 0 1.6.8 1.6 2v4.2h-.8zM60.8 34.9c0 1.7.5 2 1.2 2s1-.5 1.1-1.2h1.1c0 1.3-.8 2-2.1 2s-2.3-.4-2.3-3.1c0-1.8.2-3.2 2.3-3.2 1.7 0 2.2.9 2.2 2.9v.5h-3.5zm2.3-.7c0-1.8-.5-2-1.2-2-.6 0-1.1.3-1.2 2h2.4z"/></g><path fill="#010101" d="M20.383 47.593a1.963 1.963 0 0 1 .612-1.611c.126-.12.333-.16.386-.362 0-.01.03-.02.034-.014.14.082.25-.03.376-.049.294-.048.593-.067.892-.086.078-.005.135-.01.135-.111.03-.111-.086-2.412.097-1.978-.01.656.02 1.312.034 1.973.005.082.019.096.091.091 1.163-.096 2.33-.12 3.497-.197 2.002-.126 4.008-.246 6.01-.362 1.046-.174 2.455.217 3.169-.767.096-.169-.179-.014-.15-.26-.053-.652-.285-1.274-.246-1.934-.048-.353.227-.584.265-.907.106-.463.651-.304 1.004-.328.356.014-.078-.825.294-.796.144.02.207-.039.193-.183h.28c.135.091-.054.217.265.183.265-.063-.005.82.217.786.762-.038 1.032-.125 1.181.71.406.834-.057 1.716-.11 2.575 0 .038 0 .082-.058.072-.217-.034.033.203.086.25.714.565 1.645.493 2.494.536.535.058 1.07.063 1.606.102 2.228.13 4.457.212 6.685.342.52.039 1.042.058 1.568.087.164.01.202-.034.183-.198-.092-.169.154-.13.024-.27-.053-.058-.034-.169-.02-.188.068-.068.049-.135.054-.208-.044.025.01.102-.058.121-.073-.424.005-.897-.02-1.336-.014-.116.15-.092.13.02-.028.646.04 1.297.01 1.943.01.207.396.106.545.145 1.621-.077 2.61 1.847 1.558 3.106-.496.636-1.33.714-2.074.82-2.744.376-5.479.8-8.223 1.181-.724.107-1.447.213-2.175.31-.637.153-1.404.023-1.915.496-.487.371-.3 1.037-.381 1.572-.111 1.216-.179 2.44-.333 3.651-.096.97-.222 1.934-.342 2.904-.015.116.019.16.125.183.468.106.945.174 1.403.319 3.087.911 2.885 2.575-.202 3.106-.492.062-.984.144-1.476.091-.198-.038-.16-.361-.28-.535-.202.945-.212 1.895-.506 2.802h-.087c-.29-.897-.309-1.876-.511-2.797-.155.164-.13.511-.372.545-.42 0-.834-.015-1.249-.058-.781-.16-1.924-.3-2.407-.994-.231-.439-.13-.926.295-1.273.738-.584 1.64-.916 2.556-1.095.16-.067.762-.058.752-.246-.323-2.46-.583-4.93-.728-7.403-.039-1.332-1.78-1.08-2.7-1.288-1.78-.236-3.556-.507-5.34-.733-1.524-.217-3.048-.44-4.568-.661-1.191-.106-2.402-.396-2.575-1.794z"/></svg>