<svg version="1.2" baseProfile="tiny" xmlns="http://www.w3.org/2000/svg" viewBox="0 0 75 75" overflow="visible" xml:space="preserve"><path fill="#FDE498" d="M0 0h75v75H0z"/><g fill="#010101"><path d="M15.7 18.3V9.6h2.8c1.2 0 1.6.4 1.9.9.3.5.3 1 .3 1.2 0 1.1-.4 1.8-1.5 2.1v.1c1.2.1 1.8.9 1.8 2.1 0 2.2-1.6 2.4-2.6 2.4h-2.7zm1.1-5h1.6c.9 0 1.3-.5 1.3-1.4 0-.7-.4-1.3-1.3-1.3h-1.6v2.7zm0 4h1.6c1.2 0 1.6-.8 1.6-1.5 0-1.4-.9-1.6-2-1.6h-1.2v3.1zM22.9 15.1v-2.8c0-1.7.9-2.8 2.7-2.8s2.7 1.1 2.7 2.8v2.8c0 2.4-.9 3.3-2.7 3.3s-2.7-.9-2.7-3.3zm4.3.1v-2.9c0-1.8-1.2-1.9-1.6-1.9-.3 0-1.6.1-1.6 1.9v2.9c0 1.9.6 2.4 1.6 2.4 1.1-.1 1.6-.5 1.6-2.4zM31.3 18.3h-1V9.6h1.8l2.2 7.3 2.2-7.3h1.8v8.7h-1.1v-7.7l-2.4 7.7h-1l-2.4-7.7v7.7zM40.4 18.3V9.6h2.8c1.2 0 1.6.4 1.9.9.3.5.3 1 .3 1.2 0 1.1-.4 1.8-1.5 2.1v.1c1.2.1 1.8.9 1.8 2.1 0 2.2-1.6 2.4-2.6 2.4h-2.7zm1.1-5h1.6c.9 0 1.3-.5 1.3-1.4 0-.7-.4-1.3-1.3-1.3h-1.6v2.7zm0 4h1.6c1.2 0 1.6-.8 1.6-1.5 0-1.4-.9-1.6-2-1.6h-1.2v3.1zM47.6 18.3V9.6h4.5v1h-3.4v2.8h3.1v1h-3.1v3h3.4v1h-4.5zM54.7 14.3v4h-1.1V9.6h3c1.5 0 2.1 1.1 2.1 2.2 0 1-.6 1.8-1.6 2 1 .2 1.4.5 1.4 2.2 0 .4.1 1.7.3 2.3h-1.2c-.3-.6-.2-1.7-.3-2.9-.1-1.1-.9-1.1-1.3-1.1h-1.3zm0-1h1.7c.8 0 1.2-.7 1.2-1.4 0-.6-.3-1.3-1.2-1.3h-1.7v2.7z"/></g><path fill="#010101" d="M29.43 32.866c-.309-.18-.25-.488-.26-.746-.019-.438 0-.865-.009-1.303 0-.209.04-.348.368-.288-.17-.12-.358-.12-.318-.308.05-.24.159-.448.388-.567.169-.09.357-.13.546-.12.2 0 .388-.02.587-.06-.338-.059-.378-.129-.288-.447.07-.268.189-.507.388-.696.159-.149.298-.139.447.01.219.219.338.477.378.776.03.199-.04.318-.269.288-.05-.01-.149-.06-.149.05 0 .09.1.07.16.07h.467c.646 0 .855.278.895.924.02.428.02.845.03 1.263.01.16 0 .328 0 .487 0 .448.01.458.477.418.706-.07 1.412-.14 2.118-.189.209-.02.209-.15.219-.288.01-.22.03-.448 0-.667-.05-.417.149-.775.218-1.163.07-.368.09-.756.06-1.144-.03-.537-.15-1.073-.07-1.61.06-.378.04-.746.04-1.114 0-.239.199-.19.328-.259-.248-.169-.258-.268-.06-.497.17-.189.379-.308.647-.298.16.01.328 0 .487 0 .1 0 .19-.03.249-.11-.06-.07-.12-.04-.17-.04-.138 0-.178-.059-.168-.198.02-.299.129-.557.288-.796.18-.278.438-.288.637-.02.149.21.248.438.278.696.01.1.09.24-.04.279-.159.05-.189-.11-.209-.239-.109.04-.01.15-.08.21-.158.128-.02.148.07.188.19.07.388.04.587.03.328-.02.567.11.736.388.06.1.15.189.02.298-.04.03-.04.05 0 .1.199.198.229.427.1.666-.08.149-.13.278.03.417.069.06.079.2 0 .239-.15.08-.09.179-.05.258.119.23.099.478.099.726 0 .02.01.06 0 .07-.239.308-.12.666-.12.994 0 .358.02.716.02 1.074.01.468 0 .935 0 1.402 0 .269.08.338.348.358.816.06 1.631.12 2.437.21.218.019.228-.05.228-.22v-1.55c0-.18-.02-.359.239-.389-.229-.228-.169-.566.11-.755.288-.2.616-.2.944-.18.09 0 .189.03.298 0-.407-.218-.427-.288-.248-.705.08-.19.179-.368.338-.508.189-.179.338-.179.497.02.199.239.278.527.318.836.01.109-.01.208-.149.208s-.12-.109-.13-.188c-.01-.07.02-.15-.039-.22-.13.14-.06.319-.08.468-.01.11.11.07.17.07.278.01.556-.02.825.07.378.139.557.407.497.815-.02.159.09.288.09.447 0 .537-.03 1.064-.06 1.591-.01.18-.05.338-.249.438.15.03.309.07.458.08.795.01 1.58.129 2.366.158.945.04 1.89.16 2.834.23.557.039 1.124.059 1.69.108.776.06 1.542.14 2.318.19.497.03.994.069 1.491.109.736.06 1.482.13 2.218.189.467.04.944.06 1.412.11.895.099 1.79.089 2.675.248.328.06.596.248.865.437.567.408.746 1.005.775 1.631.05 1.124-.507 2.188-1.77 2.536-.785.218-1.59.298-2.386.437-.975.17-1.95.318-2.924.468-.795.129-1.59.248-2.396.367-.965.15-1.93.309-2.904.458-.825.13-1.64.248-2.466.378-.835.139-1.67.298-2.506.417-.537.08-1.074.22-1.62.249-.518.04-.836.328-1.134.686-.239.288-.398.617-.587.935-.03.05-.04.14-.119.14-.09.009-.11-.08-.15-.15a3.1 3.1 0 0 0-.476-.716 1.02 1.02 0 0 0-.955-.338c-.458.06-.915.149-1.382.209-.597.08-.935.477-1.184.964-.517 1.014-.845 2.088-.815 3.242.03.865-.09 1.73-.13 2.595-.03.796-.129 1.581-.168 2.367-.04.676-.16 1.352-.2 2.028-.049.736-.188 1.452-.238 2.188-.03.438-.14.875-.169 1.313-.02.328.03.397.338.507 1.005.328 2.009.626 2.973 1.074 1.313.606 2.476 1.412 3.222 2.694.269.458.448.945.249 1.492-.11.288-.289.487-.587.587-.258.09-.527.129-.795.129-1.154 0-2.307.02-3.47-.01-.587-.02-1.164.01-1.75-.03-.359-.02-.568-.219-.578-.586v-.398c0-.07-.03-.14-.109-.13-.07 0-.1.06-.1.12-.03.348-.079.696-.03 1.044.05.328.05.656-.238.905-.09.07-.08.209-.06.308a.957.957 0 0 1-.169.746c-.1-.17-.129-.368-.129-.567 0-.229-.02-.447-.179-.646-.1-.13-.12-.299-.12-.468 0-.407.03-.815-.049-1.223-.01-.07.02-.179-.09-.169-.099.01-.07.11-.07.18-.009.128 0 .258 0 .397a.536.536 0 0 1-.516.487c-1.283.02-2.566-.11-3.848-.11-.577 0-1.154-.059-1.74-.089-.746-.03-1.184-.616-1.015-1.352.13-.577.438-1.054.826-1.482 1.103-1.243 2.565-1.86 4.076-2.406.498-.179 1.015-.318 1.522-.467.248-.07.348-.21.338-.488-.03-.616-.14-1.213-.179-1.83-.03-.516-.06-1.024-.12-1.54-.089-.796-.03-1.602-.149-2.397-.04-.298-.03-.607-.05-.905-.03-.547-.049-1.094-.069-1.64-.04-1.025-.03-2.05-.04-3.073 0-.07-.01-.15-.03-.22-.069-.367-.069-.377-.437-.367-.199 0-.288-.06-.268-.268a1.7 1.7 0 0 0 0-.319c-.01-.159.04-.248.218-.238.13.01.16-.07.12-.17-.19-.516-.408-1.024-.746-1.451-.16-.2-.408-.269-.656-.289-.547-.05-1.064-.228-1.611-.278a.864.864 0 0 0-.667.219c-.278.248-.477.557-.656.885-.03.05-.04.12-.11.12-.069 0-.089-.07-.109-.12a5.142 5.142 0 0 0-.517-.945c-.288-.437-.696-.636-1.213-.686-.537-.06-1.064-.169-1.59-.259l-3.889-.626c-1.173-.189-2.347-.378-3.53-.567-1.163-.189-2.337-.368-3.5-.557a334.131 334.131 0 0 1-3.093-.517c-.557-.1-1.123-.139-1.64-.368-.786-.358-1.263-.954-1.412-1.81-.11-.636 0-1.252.318-1.77.298-.487.765-.865 1.402-.924.766-.06 1.531-.13 2.297-.19.517-.039 1.044-.069 1.561-.109l2.068-.178c.468-.04.945-.07 1.412-.11l2.168-.179c.517-.04 1.024-.08 1.541-.11.846-.059 1.69-.129 2.536-.188.537-.04 1.074-.07 1.611-.11l2.098-.149c.06-.01.08-.03.12-.05z"/></svg>