<svg version="1.2" baseProfile="tiny" xmlns="http://www.w3.org/2000/svg" viewBox="0 0 75 75" overflow="visible" xml:space="preserve"><path fill="#FDE498" d="M0 0h75v75H0z"/><g fill="#010101"><path d="M15.7 18.3V9.6h2.8c1.2 0 1.6.4 1.9.9.3.5.3 1 .3 1.2 0 1.1-.4 1.8-1.5 2.1v.1c1.2.1 1.8.9 1.8 2.1 0 2.2-1.6 2.4-2.6 2.4h-2.7zm1.1-5h1.6c.9 0 1.3-.5 1.3-1.4 0-.7-.4-1.3-1.3-1.3h-1.6v2.7zm0 4h1.6c1.2 0 1.6-.8 1.6-1.5 0-1.4-.9-1.6-2-1.6h-1.2v3.1zM22.9 15.1v-2.8c0-1.7.9-2.8 2.7-2.8s2.7 1.1 2.7 2.8v2.8c0 2.4-.9 3.3-2.7 3.3s-2.7-.9-2.7-3.3zm4.3.1v-2.9c0-1.8-1.2-1.9-1.6-1.9s-1.6.1-1.6 1.9v2.9c0 1.9.6 2.4 1.6 2.4s1.6-.5 1.6-2.4zM31.3 18.3h-1V9.6h1.8l2.2 7.3 2.2-7.3h1.8v8.7h-1.1v-7.7l-2.4 7.7h-1l-2.4-7.7v7.7zM40.4 18.3V9.6h2.8c1.2 0 1.6.4 1.9.9.3.5.3 1 .3 1.2 0 1.1-.4 1.8-1.5 2.1v.1c1.2.1 1.8.9 1.8 2.1 0 2.2-1.6 2.4-2.6 2.4h-2.7zm1.1-5h1.6c.9 0 1.3-.5 1.3-1.4 0-.7-.4-1.3-1.3-1.3h-1.6v2.7zm0 4h1.6c1.2 0 1.6-.8 1.6-1.5 0-1.4-.9-1.6-2-1.6h-1.2v3.1zM47.6 18.3V9.6h4.5v1h-3.4v2.8h3.1v1h-3.1v3h3.4v1h-4.5zM54.7 14.3v4h-1.1V9.6h3c1.5 0 2.1 1.1 2.1 2.2 0 1-.6 1.8-1.6 2 1 .2 1.4.5 1.4 2.2 0 .4.1 1.7.3 2.3h-1.2c-.3-.6-.2-1.7-.3-2.9-.1-1.1-.9-1.1-1.3-1.1h-1.3zm0-1h1.7c.8 0 1.2-.7 1.2-1.4 0-.6-.3-1.3-1.2-1.3h-1.7v2.7z"/></g><path fill="#010101" d="M29.43 32.866c-.307-.18-.248-.488-.258-.746-.02-.438 0-.865-.01-1.303 0-.209.04-.348.368-.288-.169-.12-.358-.12-.318-.308.05-.24.16-.448.388-.567.169-.09.358-.13.547-.12.199 0 .388-.02.587-.06-.339-.059-.378-.129-.289-.447.07-.268.19-.507.388-.696.16-.149.298-.139.447.01.22.219.339.477.378.776.03.199-.04.318-.268.288-.05-.01-.15-.06-.15.05 0 .09.1.07.16.07h.467c.646 0 .855.278.895.924.02.428.02.845.03 1.263.01.16 0 .328 0 .487 0 .448.01.458.477.418.706-.07 1.412-.14 2.118-.189.21-.02.21-.15.219-.288.01-.22.03-.448 0-.667-.05-.417.15-.775.219-1.163.07-.368.09-.756.06-1.144-.03-.537-.15-1.073-.07-1.61.06-.378.04-.746.04-1.114 0-.239.198-.19.328-.259-.249-.169-.259-.268-.06-.497.17-.189.378-.308.646-.298.16.01.329 0 .488 0 .1 0 .189-.03.248-.11-.06-.07-.119-.04-.169-.04-.139 0-.179-.059-.169-.198.02-.299.13-.557.289-.796.179-.278.437-.288.636-.02.15.21.249.438.278.696.01.1.09.24-.04.279-.158.05-.188-.11-.208-.239-.11.04-.01.15-.08.21-.159.128-.02.148.07.188.189.07.388.04.587.03.328-.02.566.11.735.388.06.1.15.189.02.298-.04.03-.04.05 0 .1.2.198.229.427.1.666-.08.149-.13.278.03.417.07.06.08.2 0 .239-.15.08-.09.179-.05.258.12.23.1.478.1.726 0 .02.01.06 0 .07-.24.308-.12.666-.12.994 0 .358.02.716.02 1.074.01.468 0 .935 0 1.402 0 .269.08.338.348.358.815.06 1.63.12 2.436.21.219.019.229-.05.229-.22v-1.55c0-.18-.02-.359.238-.389-.228-.228-.169-.566.11-.755.288-.2.616-.2.944-.18.09 0 .19.03.299 0-.408-.218-.428-.288-.249-.705.08-.19.18-.368.338-.508.19-.179.338-.179.497.02.2.239.279.527.319.836.01.109-.01.208-.15.208s-.119-.109-.129-.188c-.01-.07.02-.15-.04-.22-.129.14-.06.319-.08.468-.009.11.11.07.17.07.278.01.557-.02.825.07.378.139.557.407.498.815-.02.159.089.288.089.447 0 .537-.03 1.064-.06 1.591-.01.18-.05.338-.248.438.149.03.308.07.457.08.796.01 1.581.129 2.367.158.944.04 1.89.16 2.834.23.557.039 1.123.059 1.69.108.776.06 1.542.14 2.317.19.497.03.995.069 1.492.109.736.06 1.481.13 2.217.189.468.04.945.06 1.412.11.895.099 1.79.089 2.675.248.328.06.597.248.865.437.567.408.746 1.005.776 1.631.05 1.124-.507 2.188-1.77 2.536-.786.218-1.591.298-2.387.437-.974.17-1.949.318-2.923.468-.796.129-1.591.248-2.397.367-.964.15-1.929.309-2.903.458-.826.13-1.641.248-2.466.378-.836.139-1.67.298-2.506.417-.537.08-1.074.22-1.621.249-.517.04-.835.328-1.134.686-.238.288-.397.617-.586.935-.03.05-.04.14-.12.14-.09.009-.109-.08-.149-.15a3.1 3.1 0 0 0-.477-.716 1.02 1.02 0 0 0-.955-.338c-.457.06-.914.149-1.382.209-.596.08-.935.477-1.183.964-.517 1.014-.845 2.088-.816 3.242.03.865-.089 1.73-.129 2.595-.03.796-.13 1.581-.169 2.367-.04.676-.159 1.352-.199 2.028-.05.736-.189 1.452-.238 2.188-.03.438-.14.875-.17 1.313-.02.328.03.397.339.507 1.004.328 2.008.626 2.973 1.074 1.312.606 2.476 1.412 3.222 2.694.268.458.447.945.248 1.492-.11.288-.288.487-.586.587-.259.09-.527.129-.796.129-1.153 0-2.307.02-3.47-.01-.587-.02-1.164.01-1.75-.03-.358-.02-.567-.219-.577-.586v-.398c0-.07-.03-.14-.11-.13-.07 0-.099.06-.099.12-.03.348-.08.696-.03 1.044.05.328.05.656-.238.905-.09.07-.08.209-.06.308a.957.957 0 0 1-.17.746c-.099-.17-.128-.368-.128-.567 0-.229-.02-.447-.18-.646-.099-.13-.119-.299-.119-.468 0-.407.03-.815-.05-1.223-.01-.07.02-.179-.089-.169-.1.01-.07.11-.07.18-.01.128 0 .258 0 .397a.536.536 0 0 1-.517.487c-1.282.02-2.565-.11-3.848-.11-.577 0-1.153-.059-1.74-.089-.746-.03-1.183-.616-1.014-1.352.129-.577.437-1.054.825-1.482 1.104-1.243 2.565-1.86 4.077-2.406.497-.179 1.014-.318 1.521-.467.249-.07.348-.21.338-.488-.03-.616-.139-1.213-.179-1.83-.03-.516-.06-1.024-.119-1.54-.09-.796-.03-1.602-.149-2.397-.04-.298-.03-.607-.05-.905-.03-.547-.05-1.094-.07-1.64-.04-1.025-.03-2.05-.04-3.073 0-.07-.01-.15-.029-.22-.07-.367-.07-.377-.438-.367-.198 0-.288-.06-.268-.268a1.7 1.7 0 0 0 0-.319c-.01-.159.04-.248.219-.238.129.01.159-.07.12-.17-.19-.516-.409-1.024-.747-1.451-.159-.2-.407-.269-.656-.289-.547-.05-1.064-.228-1.61-.278a.864.864 0 0 0-.667.219c-.279.248-.477.557-.656.885-.03.05-.04.12-.11.12s-.09-.07-.11-.12a5.142 5.142 0 0 0-.516-.945c-.289-.437-.696-.636-1.213-.686-.537-.06-1.064-.169-1.591-.259l-3.888-.626c-1.174-.189-2.347-.378-3.53-.567-1.164-.189-2.337-.368-3.5-.557a334.131 334.131 0 0 1-3.093-.517c-.557-.1-1.124-.139-1.64-.368-.787-.358-1.264-.954-1.413-1.81-.11-.636 0-1.252.318-1.77.299-.487.766-.865 1.402-.924.766-.06 1.532-.13 2.297-.19.517-.039 1.044-.069 1.562-.109l2.068-.178c.467-.04.944-.07 1.412-.11l2.168-.179c.517-.04 1.024-.08 1.54-.11.846-.059 1.691-.129 2.537-.188.537-.04 1.073-.07 1.61-.11l2.099-.149c.06-.01.08-.03.119-.05z"/></svg>