<svg version="1.2" baseProfile="tiny" xmlns="http://www.w3.org/2000/svg" viewBox="0 0 75 75" overflow="visible" xml:space="preserve"><path fill="#FDE498" d="M0 0h75v75H0z"/><g fill="#010101"><path d="M20.6 18.3V9.6h4.3v1h-3.2v2.8h3v1h-3v4h-1.1zM26 18.3V9.6h1.1v7.7h3.2v1H26zM34.4 9.6h1.1L33.1 15v3.3H32V15l-2.3-5.4h1.2l1.7 4.2 1.8-4.2zM37.8 18.3h-1.1V9.6h1.1v8.7zM45.9 9.6v8.7h-1.5L41 10.8v7.5h-1V9.6h1.6L45 17V9.6h.9zM52.1 11.9c0-1-.4-1.6-1.5-1.6-.3 0-1.6.1-1.6 1.9v2.9c0 1.9.6 2.4 1.6 2.4.8 0 1.3-.2 1.5-.4v-2.6h-1.6v-1h2.7v4.2c-.7.4-1.5.6-2.7.6-1.8 0-2.7-.9-2.7-3.3v-2.8c0-1.7.9-2.8 2.7-2.8 1.9 0 2.8.7 2.7 2.5h-1.1z"/></g><g fill="#010101"><path d="M24.5 29.5v-8.7h2.8c1.2 0 1.6.4 1.9.9.3.5.3 1 .3 1.2 0 1.1-.4 1.8-1.5 2.1v.1c1.2.1 1.8.9 1.8 2.1 0 2.2-1.6 2.4-2.6 2.4h-2.7zm1.1-5h1.6c.9 0 1.3-.5 1.3-1.4 0-.7-.4-1.3-1.3-1.3h-1.6v2.7zm0 4h1.6c1.2 0 1.6-.8 1.6-1.5 0-1.4-.9-1.6-2-1.6h-1.2v3.1zM31.7 26.3v-2.8c0-1.7.9-2.8 2.7-2.8s2.7 1.1 2.7 2.8v2.8c0 2.4-.9 3.3-2.7 3.3s-2.7-.9-2.7-3.3zm4.3.1v-2.9c0-1.8-1.2-1.9-1.6-1.9-.3 0-1.6.1-1.6 1.9v2.9c0 1.9.6 2.4 1.6 2.4 1.1-.1 1.6-.5 1.6-2.4zM41 20.8h1.4l2.8 8.7H44l-.6-2.1h-3.3l-.6 2.1h-1.1l2.6-8.7zm.7 1-1.4 4.6h2.8l-1.4-4.6zM50.4 20.8v1h-2.3v7.7H47v-7.7h-2.3v-1h5.7z"/></g><path fill="#010101" d="M63.02 44.727c-.251.898-.887 1.458-1.672 1.879-1.589.87-3.327 1.262-5.094 1.514-1.355.196-2.72.206-4.075.29-1.617.103-3.233.187-4.86.28-.617.038-1.243.075-1.86.103-.187.01-.252.065-.28.262-.15 1.261-.318 2.533-.486 3.794-.122.888-.243 1.776-.374 2.664a3.354 3.354 0 0 1-.075.327c-.028.084-.074.168-.187.159-.102-.01-.158-.075-.186-.168-.02-.047-.029-.094-.038-.14-.196-1.253-.402-2.505-.56-3.758-.113-.897-.234-1.794-.346-2.691-.028-.197-.103-.28-.318-.262-.673.056-1.355.093-2.028.15-.42.037-.673.355-.86.672a4.674 4.674 0 0 0-.682 2.3c-.029 1.663-.047 3.327-.122 4.99a85.921 85.921 0 0 1-.308 4.393c-.047.505-.085 1.01-.113 1.524-.018.299.01.327.318.345 1.206.066 2.393.234 3.533.645 1.094.384 2.056.972 2.804 1.87.449.542.411 1.243-.094 1.72-.14.14-.317.186-.495.242a4.389 4.389 0 0 1-1.43.215c-1.402-.01-2.804.01-4.215.047-.234.01-.402-.056-.533-.262-.084-.13-.187-.252-.327-.439-.15 1.224-.28 2.374-.43 3.58-.168-1.234-.327-2.412-.42-3.636-.234.159-.356.364-.505.542-.14.159-.29.206-.486.206-.71.009-1.411-.113-2.122-.103-.775.01-1.551 0-2.327 0a5.162 5.162 0 0 1-1.551-.234c-1.02-.318-1.056-1.392-.59-1.963.907-1.121 2.113-1.738 3.478-2.121a8.13 8.13 0 0 1 2.467-.309c.327.01.664-.037.99-.037.169 0 .225-.075.216-.234-.047-.495-.084-1-.122-1.495-.093-1.13-.187-2.271-.27-3.402-.094-1.355-.188-2.701-.272-4.056-.037-.692-.047-1.384-.075-2.084-.028-.599-.102-1.187-.317-1.758-.3-.803-.87-1.233-1.73-1.29l-2.177-.111c-.196-.01-.262.056-.29.252-.205 1.589-.43 3.178-.654 4.776-.075.57-.178 1.13-.262 1.7-.018.122-.056.272-.196.272-.15 0-.196-.15-.215-.28-.159-1.085-.318-2.169-.467-3.262-.15-1.131-.3-2.253-.44-3.384-.018-.159-.102-.205-.243-.205-.803-.047-1.607-.103-2.41-.15-1.076-.065-2.141-.13-3.216-.187-.785-.047-1.58-.075-2.374-.121-1.58-.084-3.159-.178-4.701-.57-1.038-.262-2.075-.552-3.038-1.047-.598-.309-1.121-.692-1.532-1.234-.178-.243-.262-.514-.365-.785v-.486c.075-.495.355-.85.748-1.15a4.42 4.42 0 0 1 .822-.504c.327-.14.608-.346.982-.43.897-.187 1.785-.43 2.7-.552.982-.121 1.973-.215 2.963-.317l5.169-.561c.934-.103 1.878-.196 2.813-.29.084-.01.14-.047.196-.121.178-.253.393-.28.617-.075.084.084.178.075.271.047.112-.028.112-.122.112-.215v-.243c.028-.814.056-1.627.094-2.44.01-.233-.075-.29-.29-.28-.383.01-.757 0-1.14 0-.075 0-.14.01-.215.028-.047.01-.084.103-.13.028a.212.212 0 0 1 0-.234c.046-.075.083.019.13.028a.603.603 0 0 0 .187.028c.42 0 .841-.009 1.262-.009.168 0 .233-.075.243-.234.074-1.084.233-2.168.43-3.233.14-.739.308-1.458.887-2h.486c.28.233.505.523.627.878.224.654.299 1.337.401 2.01.122.785.187 1.57.234 2.355.01.168.084.224.243.215.402-.01.804 0 1.215 0 .159 0 .327.028.42-.206a.94.94 0 0 1 0 .533c-.093-.234-.252-.206-.401-.206-.402 0-.804.01-1.215 0-.196-.01-.262.066-.243.252.047.477.056.954.037 1.43 0 .178.056.262.234.3.57.13 1.15.261 1.72.42.551.15 1.102.234 1.673.168.224-.028.29-.093.29-.308-.01-.626.065-1.243.074-1.86.01-.542.28-1.084.047-1.626v-.028c.01-.374.018-.739.018-1.112.01-.318.14-.458.458-.468.131-.01.262 0 .384-.01.046 0 .112.01.112-.055 0-.066-.038-.103-.103-.103h-.168c-.72 0-1.43-.019-2.15-.112-.196-.028-.43-.094-.607.056-.131.103-.16.037-.15-.075.01-.093-.065-.327.178-.14.037.028.112.028.168.028.505.037 1.01.093 1.523.103.384.01.776.065 1.16.01.093-.01.196-.01.242-.132.094-.252.337-.458.28-.775-.009-.028.029-.057.075-.057.01.02.038.038.028.057-.074.345.253.542.328.831.018.085.102.047.168.047h2.327c.15 0 .308.019.43-.13.075.298.075.298-.168.242-.066-.01-.131-.01-.197-.01h-2.205c-.066 0-.131 0-.197.01-.046 0-.074.028-.084.075 0 .047.028.075.075.084.056.01.112.01.168.019.42.028.552.168.561.589 0 .27.01.532.01.803 0 .113.121.215.037.328-.103.13-.066.261-.038.41s.047.3.057.459c.093.86.15 1.72.15 2.589 0 .112.018.196.14.215.298.046.607.15.906.074.7-.177 1.402-.392 2.093-.588.122-.038.169-.103.169-.225.009-.476.028-.953.046-1.43.01-.168-.056-.233-.224-.233-.346 0-.692 0-1.037-.01-.14 0-.29-.028-.365.187-.056-.196-.084-.318 0-.495.066.196.206.196.337.196.364 0 .729-.01 1.093 0 .178 0 .234-.075.243-.243.056-1.196.206-2.374.44-3.551.112-.543.261-1.066.663-1.486.308-.318.654-.328.972-.029.262.253.42.57.514.916.215.757.336 1.524.44 2.3.074.616.13 1.233.186 1.85.01.122.019.234.178.224.533-.009 1.065.038 1.598-.018.056-.01.112-.038.13.046.02.066.038.131-.009.187-.056.056-.074-.028-.121-.037a.71.71 0 0 0-.234-.056c-.448-.01-.906 0-1.355-.01-.121 0-.177.038-.168.169.056.916.084 1.841.084 2.757 0 .075-.01.15.075.187.084.037.15 0 .215-.056.205-.178.439-.15.589.075.056.084.112.13.205.14.29.028.58.065.87.093l4.906.505c1.42.15 2.841.318 4.262.467 1.159.122 2.3.3 3.42.626.169.047.328.14.515.057.065-.029.13.018.159.084.056.112.168.15.261.205.215.112.44.215.645.337.552.336 1.056.72 1.169 1.43.037.205.037.364.037.532z"/></svg>