<svg version="1.2" baseProfile="tiny" xmlns="http://www.w3.org/2000/svg" viewBox="0 0 75 75" overflow="visible" xml:space="preserve"><path fill="#FDE498" d="M0 0h75v75H0z"/><g fill="#010101"><path d="M20.6 18.3V9.6h4.3v1h-3.2v2.8h3v1h-3v4h-1.1zM26 18.3V9.6h1.1v7.7h3.2v1H26zM34.4 9.6h1.1L33.1 15v3.3H32V15l-2.3-5.4h1.2l1.7 4.2 1.8-4.2zM37.8 18.3h-1.1V9.6h1.1v8.7zM45.9 9.6v8.7h-1.5L41 10.8v7.5h-1V9.6h1.5l3.4 7.4V9.6h1zM52.1 11.9c0-1-.4-1.6-1.5-1.6-.3 0-1.6.1-1.6 1.9v2.9c0 1.9.6 2.4 1.6 2.4.8 0 1.3-.2 1.5-.4v-2.6h-1.6v-1h2.7v4.2c-.7.4-1.5.6-2.7.6-1.8 0-2.7-.9-2.7-3.3v-2.8c0-1.7.9-2.8 2.7-2.8 1.9 0 2.8.7 2.7 2.5h-1.1z"/></g><g fill="#010101"><path d="M24.5 29.5v-8.7h2.8c1.2 0 1.6.4 1.9.9.3.5.3 1 .3 1.2 0 1.1-.4 1.8-1.5 2.1v.1c1.2.1 1.8.9 1.8 2.1 0 2.2-1.6 2.4-2.6 2.4h-2.7zm1.1-5h1.6c.9 0 1.3-.5 1.3-1.4 0-.7-.4-1.3-1.3-1.3h-1.6v2.7zm0 4h1.6c1.2 0 1.6-.8 1.6-1.5 0-1.4-.9-1.6-2-1.6h-1.2v3.1zM31.7 26.3v-2.8c0-1.7.9-2.8 2.7-2.8s2.7 1.1 2.7 2.8v2.8c0 2.4-.9 3.3-2.7 3.3s-2.7-.9-2.7-3.3zm4.3.1v-2.9c0-1.8-1.2-1.9-1.6-1.9-.3 0-1.6.1-1.6 1.9v2.9c0 1.9.6 2.4 1.6 2.4 1.1-.1 1.6-.5 1.6-2.4zM41 20.8h1.4l2.8 8.7H44l-.6-2.1h-3.3l-.6 2.1h-1.1l2.6-8.7zm.7 1-1.4 4.6h2.8l-1.4-4.6zM50.4 20.8v1h-2.3v7.7H47v-7.7h-2.3v-1h5.7z"/></g><path fill="#010101" d="M63.017 44.727c-.252.898-.887 1.458-1.673 1.879-1.588.87-3.327 1.262-5.093 1.514-1.355.196-2.72.206-4.075.29-1.617.103-3.234.187-4.86.28-.617.038-1.243.075-1.86.103-.187.01-.252.065-.28.262-.15 1.261-.318 2.533-.486 3.794-.122.888-.243 1.776-.374 2.664a3.354 3.354 0 0 1-.075.327c-.028.084-.075.168-.187.159-.103-.01-.159-.075-.187-.168-.019-.047-.028-.094-.037-.14-.197-1.253-.402-2.505-.561-3.758-.112-.897-.234-1.794-.346-2.691-.028-.197-.103-.28-.318-.262-.673.056-1.355.093-2.028.15-.42.037-.673.355-.86.672a4.674 4.674 0 0 0-.682 2.3c-.028 1.663-.047 3.327-.121 4.99a85.921 85.921 0 0 1-.309 4.393c-.047.505-.084 1.01-.112 1.524-.019.299.01.327.318.345 1.205.066 2.392.234 3.533.645 1.093.384 2.056.972 2.803 1.87.45.542.412 1.243-.093 1.72-.14.14-.318.186-.495.242a4.389 4.389 0 0 1-1.43.215c-1.402-.01-2.804.01-4.215.047-.234.01-.402-.056-.533-.262-.084-.13-.187-.252-.327-.439-.15 1.224-.28 2.374-.43 3.58-.168-1.234-.327-2.412-.42-3.636-.234.159-.356.364-.506.542-.14.159-.29.206-.486.206-.71.009-1.41-.113-2.121-.103-.776.01-1.552 0-2.327 0a5.162 5.162 0 0 1-1.552-.234c-1.019-.318-1.056-1.392-.589-1.963.907-1.121 2.113-1.738 3.477-2.121a8.13 8.13 0 0 1 2.468-.309c.327.01.663-.037.99-.037.169 0 .225-.075.215-.234-.046-.495-.084-1-.121-1.495-.094-1.13-.187-2.271-.271-3.402-.094-1.355-.187-2.701-.271-4.056-.038-.692-.047-1.384-.075-2.084-.028-.599-.103-1.187-.318-1.758-.299-.803-.87-1.233-1.729-1.29l-2.178-.111c-.196-.01-.261.056-.29.252-.205 1.589-.43 3.178-.654 4.776-.074.57-.177 1.13-.261 1.7-.019.122-.056.272-.197.272-.15 0-.196-.15-.214-.28-.16-1.085-.318-2.169-.468-3.262-.15-1.131-.299-2.253-.44-3.384-.018-.159-.102-.205-.242-.205-.804-.047-1.608-.103-2.411-.15-1.075-.065-2.14-.13-3.215-.187-.786-.047-1.58-.075-2.374-.121-1.58-.084-3.16-.178-4.702-.57-1.037-.262-2.074-.552-3.037-1.047-.598-.309-1.122-.692-1.533-1.234-.177-.243-.262-.514-.364-.785v-.486c.074-.495.355-.85.747-1.15a4.42 4.42 0 0 1 .823-.504c.327-.14.607-.346.981-.43.897-.187 1.785-.43 2.701-.552.982-.121 1.972-.215 2.963-.317l5.168-.561c.935-.103 1.879-.196 2.814-.29.084-.01.14-.047.196-.121.177-.253.392-.28.617-.075.084.084.177.075.27.047.113-.028.113-.122.113-.215v-.243c.028-.814.056-1.627.093-2.44.01-.233-.074-.29-.29-.28-.383.01-.756 0-1.14 0-.074 0-.14.01-.215.028-.046.01-.084.103-.13.028a.212.212 0 0 1 0-.234c.046-.075.084.019.13.028a.603.603 0 0 0 .187.028c.421 0 .842-.009 1.262-.009.168 0 .234-.075.243-.234.075-1.084.234-2.168.43-3.233.14-.739.308-1.458.888-2h.486c.28.233.505.523.626.878.224.654.3 1.337.402 2.01.122.785.187 1.57.234 2.355.009.168.084.224.243.215.402-.01.803 0 1.215 0 .159 0 .327.028.42-.206a.94.94 0 0 1 0 .533c-.093-.234-.252-.206-.402-.206-.401 0-.803.01-1.215 0-.196-.01-.261.066-.243.252.047.477.056.954.038 1.43 0 .178.056.262.233.3.57.13 1.15.261 1.72.42.552.15 1.103.234 1.673.168.224-.028.29-.093.29-.308-.01-.626.065-1.243.075-1.86.009-.542.28-1.084.046-1.626v-.028c.01-.374.019-.739.019-1.112.01-.318.14-.458.458-.468.13-.01.262 0 .383-.01.047 0 .112.01.112-.055 0-.066-.037-.103-.102-.103H36.8c-.72 0-1.43-.019-2.15-.112-.196-.028-.43-.094-.607.056-.13.103-.159.037-.15-.075.01-.093-.065-.327.178-.14.038.028.112.028.168.028.505.037 1.01.093 1.524.103.383.01.776.065 1.159.01.093-.01.196-.01.243-.132.093-.252.336-.458.28-.775-.01-.028.028-.057.075-.057.01.02.037.038.028.057-.075.345.252.542.327.831.019.085.103.047.168.047h2.328c.15 0 .308.019.43-.13.074.298.074.298-.169.242-.065-.01-.13-.01-.196-.01h-2.206c-.065 0-.13 0-.196.01-.047 0-.075.028-.084.075 0 .047.028.075.075.084.056.01.112.01.168.019.42.028.551.168.56.589 0 .27.01.532.01.803 0 .113.122.215.037.328-.102.13-.065.261-.037.41s.047.3.056.459c.094.86.15 1.72.15 2.589 0 .112.018.196.14.215.299.046.607.15.906.074.701-.177 1.402-.392 2.094-.588.121-.038.168-.103.168-.225.01-.476.028-.953.047-1.43.01-.168-.056-.233-.224-.233-.346 0-.692 0-1.038-.01-.14 0-.29-.028-.364.187-.056-.196-.084-.318 0-.495.065.196.205.196.336.196.365 0 .73-.01 1.094 0 .177 0 .233-.075.243-.243.056-1.196.205-2.374.439-3.551.112-.543.262-1.066.664-1.486.308-.318.654-.328.972-.029.261.253.42.57.514.916.215.757.336 1.524.439 2.3.075.616.13 1.233.187 1.85.01.122.018.234.177.224.533-.009 1.066.038 1.599-.018.056-.01.112-.038.13.046.02.066.038.131-.009.187-.056.056-.075-.028-.121-.037a.71.71 0 0 0-.234-.056c-.449-.01-.907 0-1.355-.01-.122 0-.178.038-.169.169.057.916.085 1.841.085 2.757 0 .075-.01.15.074.187.084.037.15 0 .215-.056.206-.178.44-.15.59.075.055.084.111.13.205.14.29.028.58.065.869.093l4.907.505c1.42.15 2.84.318 4.262.467 1.159.122 2.299.3 3.42.626.169.047.327.14.514.057.066-.029.131.018.16.084.055.112.167.15.26.205.216.112.44.215.646.337.551.336 1.056.72 1.168 1.43.037.205.037.364.037.532z"/></svg>