<svg version="1.2" baseProfile="tiny" xmlns="http://www.w3.org/2000/svg" viewBox="0 0 75 75" overflow="visible" xml:space="preserve"><path fill="#FDE498" d="M0 0h75v75H0z"/><g fill="#010101"><path d="M15.7 18.3V9.6h2.8c1.2 0 1.6.4 1.9.9.3.5.3 1 .3 1.2 0 1.1-.4 1.8-1.5 2.1v.1c1.2.1 1.8.9 1.8 2.1 0 2.2-1.6 2.4-2.6 2.4h-2.7zm1.1-5h1.6c.9 0 1.3-.5 1.3-1.4 0-.7-.4-1.3-1.3-1.3h-1.6v2.7zm0 4h1.6c1.2 0 1.6-.8 1.6-1.5 0-1.4-.9-1.6-2-1.6h-1.2v3.1zM22.9 15.1v-2.8c0-1.7.9-2.8 2.7-2.8s2.7 1.1 2.7 2.8v2.8c0 2.4-.9 3.3-2.7 3.3s-2.7-.9-2.7-3.3zm4.3.1v-2.9c0-1.8-1.2-1.9-1.6-1.9-.3 0-1.6.1-1.6 1.9v2.9c0 1.9.6 2.4 1.6 2.4 1.1-.1 1.6-.5 1.6-2.4zM31.3 18.3h-1V9.6h1.8l2.2 7.3 2.2-7.3h1.8v8.7h-1.1v-7.7l-2.4 7.7h-1l-2.4-7.7v7.7zM40.4 18.3V9.6h2.8c1.2 0 1.6.4 1.9.9.3.5.3 1 .3 1.2 0 1.1-.4 1.8-1.5 2.1v.1c1.2.1 1.8.9 1.8 2.1 0 2.2-1.6 2.4-2.6 2.4h-2.7zm1.1-5h1.6c.9 0 1.3-.5 1.3-1.4 0-.7-.4-1.3-1.3-1.3h-1.6v2.7zm0 4h1.6c1.2 0 1.6-.8 1.6-1.5 0-1.4-.9-1.6-2-1.6h-1.2v3.1zM47.6 18.3V9.6h4.5v1h-3.4v2.8h3.1v1h-3.1v3h3.4v1h-4.5zM54.7 14.3v4h-1.1V9.6h3c1.5 0 2.1 1.1 2.1 2.2 0 1-.6 1.8-1.6 2 1 .2 1.4.5 1.4 2.2 0 .4.1 1.7.3 2.3h-1.2c-.3-.6-.2-1.7-.3-2.9-.1-1.1-.9-1.1-1.3-1.1h-1.3zm0-1h1.7c.8 0 1.2-.7 1.2-1.4 0-.6-.3-1.3-1.2-1.3h-1.7v2.7z"/></g><path fill="#010101" d="M29.433 32.86c-.308-.18-.248-.488-.258-.746-.02-.438 0-.865-.01-1.303 0-.209.04-.348.368-.288-.17-.12-.358-.12-.319-.309.05-.238.16-.447.388-.566.17-.09.358-.13.547-.12.2 0 .388-.02.587-.06-.338-.06-.378-.129-.288-.447.07-.268.188-.507.387-.696.16-.15.299-.14.448.01.219.219.338.477.378.776.03.198-.04.318-.269.288-.05-.01-.149-.06-.149.05 0 .09.1.07.16.07h.466c.647 0 .856.278.895.924.02.428.02.845.03 1.263.01.159 0 .328 0 .487 0 .448.01.458.478.418.706-.07 1.412-.14 2.118-.19.208-.019.208-.148.218-.287.01-.22.03-.448 0-.667-.05-.417.15-.775.22-1.163.069-.368.089-.756.059-1.144-.03-.537-.15-1.074-.07-1.61.06-.378.04-.746.04-1.114 0-.239.199-.19.328-.259-.248-.169-.258-.268-.06-.497.17-.189.378-.308.647-.298.159.01.328 0 .487 0 .1 0 .189-.03.249-.11-.06-.07-.12-.04-.17-.04-.139 0-.178-.06-.168-.198.02-.299.129-.557.288-.796.179-.278.437-.288.636-.02.15.21.249.438.279.696.01.1.09.239-.04.279-.16.05-.189-.11-.209-.239-.11.04-.01.15-.08.209-.159.13-.02.15.07.189.19.07.388.04.587.03.328-.02.567.11.736.387.06.1.149.19.02.299-.04.03-.04.05 0 .1.198.198.228.427.1.665-.08.15-.13.279.029.418.07.06.08.199 0 .239-.15.08-.09.179-.05.258.12.229.1.478.1.726 0 .02.01.06 0 .07-.239.308-.12.666-.12.994 0 .358.02.716.02 1.074.01.467 0 .935 0 1.402 0 .269.08.338.348.358.816.06 1.631.12 2.436.209.22.02.23-.05.23-.219v-1.551c0-.179-.02-.358.238-.388-.229-.229-.17-.567.11-.756.288-.198.616-.198.944-.179.09 0 .189.03.298 0-.408-.218-.427-.288-.248-.706.08-.188.179-.367.338-.507.189-.179.338-.179.497.02.199.239.278.527.318.835.01.11-.01.21-.15.21-.138 0-.118-.11-.128-.19-.01-.07.02-.149-.04-.218-.13.139-.06.318-.08.467-.01.11.11.07.17.07.278.01.556-.02.825.07.378.138.557.407.497.815-.02.159.09.288.09.447 0 .537-.03 1.064-.06 1.591-.01.179-.05.338-.249.438.15.03.308.07.458.08.795.01 1.58.128 2.366.158.945.04 1.89.16 2.834.229.557.04 1.124.06 1.69.11.776.059 1.542.139 2.317.188.498.03.995.07 1.492.11.736.06 1.482.129 2.218.189.467.04.944.06 1.412.109.894.1 1.79.09 2.674.249.329.06.597.248.866.437.566.408.745 1.004.775 1.63.05 1.125-.507 2.188-1.77 2.537-.785.218-1.59.298-2.386.437-.975.17-1.95.318-2.924.467-.795.13-1.59.249-2.396.368-.965.15-1.93.309-2.904.458-.825.129-1.64.248-2.466.378-.835.139-1.67.298-2.506.417-.537.08-1.074.219-1.62.249-.518.04-.836.328-1.134.686-.239.288-.398.616-.587.935-.03.05-.04.139-.12.139-.089.01-.109-.08-.148-.15a3.1 3.1 0 0 0-.478-.715 1.02 1.02 0 0 0-.954-.338c-.458.06-.915.149-1.382.209-.597.08-.935.477-1.184.964-.517 1.014-.845 2.088-.815 3.242.03.865-.09 1.73-.13 2.595-.03.796-.129 1.581-.169 2.367-.04.676-.159 1.352-.198 2.028-.05.736-.19 1.452-.239 2.188-.03.437-.14.875-.17 1.312-.019.329.03.398.339.508 1.004.328 2.009.626 2.973 1.074 1.313.606 2.476 1.412 3.222 2.694.268.458.447.945.249 1.492-.11.288-.289.487-.587.587-.259.09-.527.129-.796.129-1.153 0-2.307.02-3.47-.01-.587-.02-1.163.01-1.75-.03-.358-.02-.567-.219-.577-.587v-.397c0-.07-.03-.14-.11-.13-.069 0-.099.06-.099.12-.03.348-.08.696-.03 1.044.05.328.05.656-.238.905-.09.07-.08.208-.06.308a.957.957 0 0 1-.169.746c-.1-.17-.13-.368-.13-.567 0-.229-.019-.448-.178-.646-.1-.13-.12-.299-.12-.468 0-.407.03-.815-.05-1.223-.01-.07.02-.179-.089-.169-.1.01-.07.11-.07.18-.01.128 0 .258 0 .397a.536.536 0 0 1-.516.487c-1.283.02-2.566-.11-3.849-.11-.576 0-1.153-.059-1.74-.089-.746-.03-1.183-.616-1.014-1.352.13-.577.438-1.054.825-1.482 1.104-1.243 2.566-1.86 4.077-2.406.497-.18 1.015-.318 1.522-.468.248-.07.348-.208.338-.487-.03-.616-.14-1.213-.18-1.83-.029-.517-.059-1.024-.119-1.54-.089-.796-.03-1.602-.149-2.397-.04-.299-.03-.607-.05-.905-.03-.547-.05-1.094-.069-1.64-.04-1.025-.03-2.05-.04-3.073 0-.07-.01-.15-.03-.22-.07-.367-.07-.377-.437-.367-.199 0-.289-.06-.269-.269a1.7 1.7 0 0 0 0-.318c-.01-.159.04-.248.22-.238.128.01.158-.07.118-.17-.188-.517-.407-1.024-.745-1.451-.16-.2-.408-.269-.657-.289-.547-.05-1.064-.228-1.61-.278a.864.864 0 0 0-.667.219c-.278.248-.477.556-.656.885-.03.05-.04.119-.11.119s-.089-.07-.109-.12a5.142 5.142 0 0 0-.517-.944c-.288-.438-.696-.636-1.213-.686-.537-.06-1.064-.17-1.591-.259l-3.888-.626c-1.173-.19-2.347-.378-3.53-.567-1.164-.189-2.337-.368-3.5-.557a334.131 334.131 0 0 1-3.093-.517c-.557-.1-1.124-.14-1.64-.368-.786-.358-1.263-.954-1.413-1.81-.109-.636 0-1.252.319-1.77.298-.487.765-.865 1.402-.924.765-.06 1.531-.13 2.297-.19.517-.039 1.044-.069 1.56-.109l2.07-.179c.467-.04.944-.07 1.411-.109l2.168-.179c.517-.04 1.024-.08 1.541-.11.845-.06 1.69-.129 2.536-.188.537-.04 1.074-.07 1.61-.11l2.099-.149c.06-.01.08-.03.12-.05z"/></svg>