<svg version="1.2" baseProfile="tiny" xmlns="http://www.w3.org/2000/svg" viewBox="0 0 75 75" overflow="visible" xml:space="preserve"><path fill="#FDE498" d="M0 0h75v75H0z"/><g fill="#010101"><path d="M15.7 18.3V9.6h2.8c1.2 0 1.6.4 1.9.9.3.5.3 1 .3 1.2 0 1.1-.4 1.8-1.5 2.1v.1c1.2.1 1.8.9 1.8 2.1 0 2.2-1.6 2.4-2.6 2.4h-2.7zm1.1-5h1.6c.9 0 1.3-.5 1.3-1.4 0-.7-.4-1.3-1.3-1.3h-1.6v2.7zm0 4h1.6c1.2 0 1.6-.8 1.6-1.5 0-1.4-.9-1.6-2-1.6h-1.2v3.1zM22.9 15.1v-2.8c0-1.7.9-2.8 2.7-2.8s2.7 1.1 2.7 2.8v2.8c0 2.4-.9 3.3-2.7 3.3s-2.7-.9-2.7-3.3zm4.3.1v-2.9c0-1.8-1.2-1.9-1.6-1.9-.3 0-1.6.1-1.6 1.9v2.9c0 1.9.6 2.4 1.6 2.4 1.1-.1 1.6-.5 1.6-2.4zM31.3 18.3h-1V9.6h1.8l2.2 7.3 2.2-7.3h1.8v8.7h-1.1v-7.7l-2.4 7.7h-1l-2.4-7.7v7.7zM40.4 18.3V9.6h2.8c1.2 0 1.6.4 1.9.9.3.5.3 1 .3 1.2 0 1.1-.4 1.8-1.5 2.1v.1c1.2.1 1.8.9 1.8 2.1 0 2.2-1.6 2.4-2.6 2.4h-2.7zm1.1-5h1.6c.9 0 1.3-.5 1.3-1.4 0-.7-.4-1.3-1.3-1.3h-1.6v2.7zm0 4h1.6c1.2 0 1.6-.8 1.6-1.5 0-1.4-.9-1.6-2-1.6h-1.2v3.1zM47.6 18.3V9.6h4.5v1h-3.4v2.8h3.1v1h-3.1v3h3.4v1h-4.5zM54.7 14.3v4h-1.1V9.6h3c1.5 0 2.1 1.1 2.1 2.2 0 1-.6 1.8-1.6 2 1 .2 1.4.5 1.4 2.2 0 .4.1 1.7.3 2.3h-1.2c-.3-.6-.2-1.7-.3-2.9-.1-1.1-.9-1.1-1.3-1.1h-1.3zm0-1h1.7c.8 0 1.2-.7 1.2-1.4 0-.6-.3-1.3-1.2-1.3h-1.7v2.7z"/></g><path fill="#010101" d="M29.432 32.86c-.308-.18-.249-.488-.259-.746-.02-.438 0-.865-.01-1.303 0-.209.04-.348.368-.288-.169-.12-.358-.12-.318-.309.05-.238.16-.447.388-.566.169-.09.358-.13.547-.12.199 0 .388-.02.586-.06-.338-.06-.377-.129-.288-.447.07-.268.189-.507.388-.696.159-.15.298-.14.447.01.22.219.338.477.378.776.03.198-.04.318-.268.288-.05-.01-.15-.06-.15.05 0 .09.1.07.16.07h.467c.646 0 .855.278.895.924.02.428.02.845.03 1.263.01.159 0 .328 0 .487 0 .448.01.458.477.418.706-.07 1.412-.14 2.118-.19.209-.019.209-.148.219-.287.01-.22.03-.448 0-.667-.05-.417.15-.775.219-1.163.07-.368.09-.756.06-1.144-.03-.537-.15-1.074-.07-1.61.06-.378.04-.746.04-1.114 0-.239.198-.19.328-.259-.249-.169-.259-.268-.06-.497.169-.189.378-.308.646-.298.16.01.328 0 .488 0 .099 0 .189-.03.248-.11-.06-.07-.12-.04-.169-.04-.14 0-.179-.06-.169-.198.02-.299.13-.557.288-.796.18-.278.438-.288.637-.02.149.21.248.438.278.696.01.1.09.239-.04.279-.159.05-.188-.11-.208-.239-.11.04-.01.15-.08.209-.159.13-.02.15.07.189.189.07.388.04.586.03.329-.02.567.11.736.387.06.1.15.19.02.299-.04.03-.04.05 0 .1.199.198.229.427.1.665-.08.15-.13.279.03.418.069.06.079.199 0 .239-.15.08-.09.179-.05.258.119.229.1.478.1.726 0 .02.01.06 0 .07-.24.308-.12.666-.12.994 0 .358.02.716.02 1.074.01.467 0 .935 0 1.402 0 .269.08.338.348.358.815.06 1.63.12 2.436.209.219.02.229-.05.229-.219v-1.551c0-.179-.02-.358.238-.388-.228-.229-.169-.567.11-.756.288-.198.616-.198.944-.179.09 0 .19.03.299 0-.408-.218-.428-.288-.249-.706.08-.188.18-.367.338-.507.19-.179.338-.179.497.02.2.239.279.527.319.835.01.11-.01.21-.15.21s-.119-.11-.129-.19c-.01-.07.02-.149-.04-.218-.129.139-.06.318-.08.467-.01.11.11.07.17.07.278.01.557-.02.825.07.378.138.557.407.497.815-.02.159.09.288.09.447 0 .537-.03 1.064-.06 1.591-.01.179-.05.338-.248.438.149.03.308.07.457.08.796.01 1.581.128 2.367.158.944.04 1.889.16 2.834.229.557.04 1.123.06 1.69.11.776.059 1.541.139 2.317.188.497.03.994.07 1.492.11.735.06 1.481.129 2.217.189.467.04.945.06 1.412.109.895.1 1.79.09 2.675.249.328.06.597.248.865.437.567.408.746 1.004.776 1.63.05 1.125-.507 2.188-1.77 2.537-.786.218-1.591.298-2.387.437-.974.17-1.949.318-2.923.467-.796.13-1.591.249-2.397.368-.964.15-1.929.309-2.903.458-.826.129-1.641.248-2.466.378-.836.139-1.671.298-2.506.417-.537.08-1.074.219-1.621.249-.517.04-.835.328-1.134.686-.238.288-.397.616-.586.935-.03.05-.04.139-.12.139-.09.01-.11-.08-.149-.15a3.1 3.1 0 0 0-.477-.715 1.02 1.02 0 0 0-.955-.338c-.457.06-.915.149-1.382.209-.597.08-.935.477-1.183.964-.517 1.014-.845 2.088-.816 3.242.03.865-.09 1.73-.129 2.595-.03.796-.13 1.581-.169 2.367-.04.676-.16 1.352-.199 2.028-.05.736-.189 1.452-.238 2.188-.03.437-.14.875-.17 1.312-.02.329.03.398.339.508 1.004.328 2.008.626 2.973 1.074 1.312.606 2.476 1.412 3.222 2.694.268.458.447.945.248 1.492-.11.288-.288.487-.587.587-.258.09-.527.129-.795.129-1.154 0-2.307.02-3.47-.01-.587-.02-1.164.01-1.75-.03-.359-.02-.567-.219-.577-.587v-.397c0-.07-.03-.14-.11-.13-.07 0-.1.06-.1.12-.029.348-.079.696-.029 1.044.05.328.05.656-.239.905-.09.07-.08.208-.06.308a.957.957 0 0 1-.168.746c-.1-.17-.13-.368-.13-.567 0-.229-.02-.448-.179-.646-.099-.13-.119-.299-.119-.468 0-.407.03-.815-.05-1.223-.01-.07.02-.179-.09-.169-.099.01-.069.11-.069.18-.01.128 0 .258 0 .397a.536.536 0 0 1-.517.487c-1.283.02-2.565-.11-3.848-.11-.577 0-1.154-.059-1.74-.089-.746-.03-1.184-.616-1.014-1.352.129-.577.437-1.054.825-1.482 1.104-1.243 2.565-1.86 4.077-2.406.497-.18 1.014-.318 1.521-.468.249-.07.348-.208.338-.487-.03-.616-.139-1.213-.179-1.83-.03-.517-.06-1.024-.119-1.54-.09-.796-.03-1.602-.15-2.397-.039-.299-.029-.607-.049-.905-.03-.547-.05-1.094-.07-1.64-.04-1.025-.03-2.05-.04-3.073 0-.07-.01-.15-.03-.22-.069-.367-.069-.377-.437-.367-.198 0-.288-.06-.268-.269a1.7 1.7 0 0 0 0-.318c-.01-.159.04-.248.219-.238.129.01.159-.07.119-.17-.189-.517-.408-1.024-.746-1.451-.159-.2-.407-.269-.656-.289-.547-.05-1.064-.228-1.611-.278a.864.864 0 0 0-.666.219c-.279.248-.478.556-.657.885-.03.05-.04.119-.109.119s-.09-.07-.11-.12a5.142 5.142 0 0 0-.516-.944c-.289-.438-.696-.636-1.213-.686-.537-.06-1.064-.17-1.592-.259l-3.888-.626c-1.173-.19-2.346-.378-3.53-.567-1.163-.189-2.336-.368-3.5-.557a334.131 334.131 0 0 1-3.092-.517c-.557-.1-1.124-.14-1.641-.368-.786-.358-1.263-.954-1.412-1.81-.11-.636 0-1.252.318-1.77.298-.487.766-.865 1.402-.924.766-.06 1.532-.13 2.297-.19.517-.039 1.044-.069 1.561-.109l2.069-.179c.467-.04.944-.07 1.412-.109l2.167-.179c.518-.04 1.025-.08 1.542-.11.845-.06 1.69-.129 2.535-.188.537-.04 1.074-.07 1.611-.11l2.098-.149c.06-.01.08-.03.12-.05z"/></svg>