<svg version="1.2" baseProfile="tiny" xmlns="http://www.w3.org/2000/svg" viewBox="0 0 75 75" overflow="visible" xml:space="preserve"><path fill="#FDE498" d="M0 0h75v75H0z"/><path fill="#010101" d="M33.5 68.9V57.3h3.8c1.6 0 2.1.5 2.6 1.2.4.6.5 1.3.5 1.5 0 1.4-.5 2.4-2 2.7v.1c1.6.2 2.4 1.2 2.4 2.8 0 3-2.2 3.2-3.5 3.2h-3.8zm1.5-6.7h2.1c1.2 0 1.7-.7 1.7-1.8 0-1-.5-1.7-1.8-1.7h-2.1v3.5zm0 5.4h2.1c1.6 0 2.1-1.1 2.1-2 0-1.8-1.1-2.2-2.6-2.2H35v4.2zM17.926 26.476c-.065-.232.019-.362.26-.362s.492-.01.734 0c.213 0 .287.084.269.288-.01.065.018.074.074.074h.566c.084 0 .112-.056.112-.13.009-.13-.038-.288.065-.38.092-.084.24-.019.37-.028.122-.01.205-.074.298-.12.195-.094.288-.205.334-.41.01-.055.102-.083.167-.092.102-.019.195-.028.297-.028.455 0 .91-.01 1.365.01.13 0 .167-.056.157-.168v-.436c0-.14.056-.214.205-.214.445.01.399-.037.408.4 0 .399 0 .399.4.399h2.273c.27 0 .344.055.418.325.019.055.047.102.112.102.222 0 .445-.01.659 0 .12 0 .148-.056.148-.167-.01-.288-.01-.576-.01-.864 0-.13.057-.185.186-.195.437-.018.437-.018.446.427v.632c0 .167.093.222.232.148.176-.093.38-.056.538-.185.019-.019.084-.019.112 0 .14.083.306.092.455.139.157.055.297.065.454.055.121-.009.242 0 .363.01.11 0 .194.046.24.148.02.028.038.056.075.028.019-.018.01-.046-.01-.056-.213-.176-.166-.417-.13-.63.038-.27.047-.53.038-.79-.01-.223.019-.427.186-.594.027-.028.074-.065.046-.111-.019-.037-.074-.019-.111-.028-.25-.019-.288-.056-.232-.306.167-.91.334-1.829.492-2.739.148-.835.297-1.661.436-2.497.046-.25.065-.269.325-.269.352 0 .705.019 1.058.019h.27c.092 0 .175.018.185-.13 0-.084.083-.074.139-.074.111-.01.213.027.343-.01-.111-.12-.232-.102-.352-.093-.037 0-.075.028-.112.028-.093 0-.167-.055-.157-.148.009-.084.064-.149.157-.13.149.037.297.028.446.046.102.01.186.056.27.12.157.14.315.233.547.205.204-.028.417-.018.63.019.15.027.233-.037.242-.186.01-.093.037-.186.037-.278.01-.372.186-.687.353-1.003.019-.028.037-.065.065-.074.093-.037.12-.093.111-.195-.018-.13.047-.195.186-.186.12.01.288-.037.26.167-.019.14.084.205.14.297.185.316.343.64.361 1.021v.019c.065.455.102.464.566.455.446-.019.892.018 1.346.028.149 0 .297.009.446.009.028 0 .084 0 .093-.019.111-.204.306-.139.473-.167.232-.046.427-.12.548-.343.093-.167.269-.177.371-.01.13.223.371.372.409.65.009.093.111.093.195.093.324 0 .64.01.965 0 .14 0 .223.047.241.186.047.269.102.529.158.798a.4.4 0 0 0 .176.27c.232.166.446.361.613.603.065.092.14.111.241.102.409-.028.826 0 1.244 0 .14 0 .288-.01.427-.019.12-.01.195.047.195.167 0 .093.056.12.14.13l.612.056c.046 0 .102.01.13.037.176.186.4.13.603.13.13 0 .25-.01.38 0 .122 0 .159.065.15.186-.01.102.009.213-.158.213-.223-.01-.455 0-.678 0-.12 0-.176.046-.167.167a.97.97 0 0 1 0 .232c-.01.204-.093.288-.297.297-.167 0-.344 0-.51.01-.121 0-.233.009-.251.167-.019.102-.102.092-.186.092h-1.54c-.047 0-.103-.018-.13.038-.15.269-.344.51-.214.854.065.176.074.37.111.547.028.14.084.195.241.204.325.019.613-.037.873-.25.028-.028.065-.047.093-.065.13-.074.195-.037.185.102-.009.167.056.213.205.204.371-.01.742 0 1.114-.01.12 0 .194.038.24.15.094.222.168.445.27.658.065.13-.01.214-.232.242.14.195.325.26.557.26.492-.019.984-.01 1.476-.01h1.392c.242 0 .27.028.27.27 0 .167.009.343 0 .51-.01.13.046.176.176.176.585-.009 1.17-.046 1.745.01 1.569.158 3.147.046 4.725.093.148 0 .222.055.213.213-.01.14-.01.288 0 .436.01.149-.056.205-.195.195-.093-.009-.176 0-.27 0-1.308.01-2.617-.046-3.916.065-1.328.112-2.655.019-3.973.093-.418.028-.826.01-1.244.01-.083 0-.158.009-.204.101-.084.195-.074.214.14.214.138 0 .213.065.25.186.083.24.185.482.269.733.056.167.158.241.334.278.344.075.687.177 1.021.27.4.11.808.148 1.225.092.381-.055.762-.046 1.142-.065.79-.037 1.578-.092 2.367-.139.455-.028.92-.046 1.374-.074.91-.056 1.82-.12 2.729-.167.891-.047 1.782 0 2.655.232.334.083.677.167.974.362.177.111.205.195.102.38-.018.038-.046.075-.065.112-.027.046-.092.102-.065.158.038.065.13.065.186.037.204-.084.334.065.483.139.074.037.111.111.074.195-.065.14 0 .213.111.288.233.148.474.315.697.473.065.047.12.065.195.028.102-.046.167-.01.213.083.037.084.074.158.111.242.038.074.038.158-.037.213-.102.084-.093.167-.046.279.093.213.186.436.278.659.037.093.102.13.205.13.102 0 .232-.037.278.111.084.297.056.427-.111.52-.065.037-.121.074-.112.158.01.195.019.39.019.585 0 .13.065.213.195.25.13.037.167.12.13.242-.019.065-.028.139-.047.213-.018.12-.083.186-.204.167-.111-.01-.148.047-.176.13-.065.232-.12.473-.186.706-.018.074 0 .13.056.176.12.083.13.186.055.306-.037.065-.074.12-.102.186-.046.102-.12.12-.213.083-.102-.055-.167-.009-.223.075-.14.213-.288.436-.427.65-.037.064-.046.12 0 .185.056.084.019.149-.046.204-.065.056-.13.102-.195.158-.074.074-.158.084-.232.01-.102-.093-.195-.066-.297 0-.149.101-.288.231-.455.306-.056.028-.065.074-.037.12.074.121.018.195-.084.26-.056.028-.093.074-.14.112-.083.065-.166.083-.25-.01-.074-.092-.167-.074-.25-.028-.177.103-.353.214-.52.316-.037.019-.074.037-.074.084.009.232-.223.25-.344.362-.056.046-.111-.01-.158-.047-.092-.083-.185-.074-.287 0-.112.074-.223.14-.344.204-.093.056-.176.103-.176.251-.01.186-.39.353-.539.241-.083-.065-.148-.065-.232-.009-.148.102-.315.186-.473.279-.102.055-.195.092-.204.26-.01.148-.214.176-.344.25-.093.047-.157-.018-.213-.083-.047-.065-.102-.084-.186-.047-.195.093-.39.177-.594.27-.056.027-.111.046-.102.13.019.231-.195.213-.316.306-.102.074-.195.018-.26-.065-.046-.056-.083-.075-.157-.047-.232.112-.464.214-.696.316-.065.028-.121.065-.093.148.018.065-.01.112-.065.14a4.955 4.955 0 0 1-.334.13c-.056.018-.103 0-.13-.047-.093-.158-.195-.158-.353-.083-.14.065-.297.083-.446.13-.111.037-.25.046-.232.24.01.103-.102.103-.185.112-.427.037-.864-.009-1.29 0-1.207.01-2.414-.009-3.62.01-5.95.055-11.9.018-17.85.037-2.46.009-4.93 0-7.39 0h-.844c-.037 0-.102.009-.111-.047-.01-.046.027-.074.074-.074.074-.01.065-.065.055-.111-.009-.056-.027-.112-.092-.121-.26-.019-.52-.028-.78-.037-.065 0-.093.046-.102.102-.019.111-.084.14-.195.12-.065-.009-.13-.009-.195-.009-.12 0-.186-.046-.204-.167-.01-.111-.074-.148-.186-.158-.176-.018-.353-.065-.52-.083-.102-.019-.204-.037-.232.111-.018.065-.074.084-.13.065-.074-.009-.148-.028-.232-.037-.13-.01-.213-.056-.204-.204 0-.074-.037-.12-.111-.14-.214-.055-.427-.11-.64-.157-.038-.01-.084-.019-.112.01-.158.157-.334.046-.501.036-.084 0-.121-.083-.121-.158 0-.13-.074-.176-.186-.194-.148-.038-.306-.056-.445-.112-.075-.028-.177-.056-.26.056-.102.13-.52 0-.548-.167-.018-.13-.083-.177-.204-.204-.158-.028-.316-.075-.464-.112-.084-.018-.158-.037-.25.056-.103.102-.27.037-.41.01-.11-.02-.13-.112-.13-.205s-.055-.14-.138-.158a17.85 17.85 0 0 1-.678-.158c-.074-.018-.13-.009-.167.065-.028.065-.093.084-.158.065-.111-.028-.223-.065-.334-.102-.065-.028-.074-.083-.074-.148.018-.14-.047-.205-.186-.25-.223-.066-.436-.159-.65-.242-.093-.037-.185-.075-.278.018-.037.047-.093.037-.14.01-.092-.065-.194-.121-.287-.195-.065-.056-.074-.13-.037-.214.055-.102.009-.176-.065-.241-.177-.149-.344-.297-.52-.446-.065-.055-.13-.12-.232-.093-.065.019-.102-.027-.13-.083l-.14-.279c-.046-.092-.037-.176.066-.222.092-.047.102-.121.074-.214-.112-.288-.223-.566-.334-.845-.01-.018-.019-.046-.037-.055-.214-.056-.177-.242-.195-.39-.019-.13.018-.241.167-.279.083-.018.111-.065.12-.157.01-.325.047-.65.028-.975-.01-.186.102-.325.195-.464.037-.065.112-.037.167-.028.112.019.177-.019.232-.111.13-.223.27-.446.4-.669.046-.074.083-.157.018-.25-.056-.084-.028-.149.046-.205.065-.046.13-.102.195-.157.084-.065.158-.084.251 0 .046.046.093.102.167.055.046-.027.028-.074.019-.12-.028-.075-.065-.149-.167-.121-.158.037-.298-.019-.418-.111-.186-.149-.186-.316.01-.455.027-.019.064-.047.092-.065.204-.149.204-.149.083-.371-.055-.112-.009-.177.075-.233.371-.25.742-.52 1.123-.77.074-.056.111-.102.046-.167-.065-.065-.083-.241-.241-.13a36.8 36.8 0 0 1-.77.51c-.13.084-.26.177-.381.26-.074.056-.13.028-.176-.046-.13-.195-.26-.4-.39-.594-.056-.074-.019-.14.046-.186.232-.157.464-.315.696-.482.093-.065.186-.121.27-.186.018-.019.046-.046.046-.065-.047-.195.13-.232.232-.316.111-.092.25-.157.371-.24.093-.066.167-.122.288-.057.056.028.102-.027.149-.055.287-.195.584-.38.863-.585.093-.065.139-.065.204.018.167.195.288.418.427.632.065.092-.028.139-.093.185-.288.205-.585.4-.882.594-.046.038-.102.065-.148.102-.204.14-.195.13-.056.316.065.084.112.074.195.019.353-.242.706-.474 1.058-.706.12-.083.195-.065.27.056.102.158.213.306.324.464.028.037.056.074.102.065.056-.01.075-.065.075-.12v-.186c0-.288 0-.288-.288-.297-.102 0-.14-.047-.14-.14v-1.346c0-.139.094-.157.205-.157.232-.01.232-.01.232-.232v-.353c.01-.288.13-.409.427-.409h1.894c.037-.009.092-.009.157-.009z"/></svg>