<svg version="1.2" baseProfile="tiny" xmlns="http://www.w3.org/2000/svg" viewBox="0 0 75 75" overflow="visible" xml:space="preserve"><path fill="#FDE498" d="M0 0h75v75H0z"/><path fill="#010101" d="M36 57.4h1.9L41.7 69h-1.6l-.8-2.8h-4.5l-.9 2.8h-1.5L36 57.4zm.9 1.3-1.8 6.2h3.7l-1.9-6.2zM17.928 26.476c-.065-.232.018-.362.26-.362.24 0 .491-.01.733 0 .213 0 .288.084.269.288-.01.065.019.074.074.074h.566c.084 0 .112-.056.112-.13.01-.13-.037-.288.065-.38.093-.084.241-.019.371-.028.12-.01.204-.074.297-.12.195-.094.288-.205.334-.41.01-.055.102-.083.167-.092.102-.019.195-.028.297-.028.455 0 .91-.01 1.365.01.13 0 .167-.056.158-.168v-.436c0-.14.055-.214.204-.214.445.01.4-.037.408.4 0 .399 0 .399.4.399h2.274c.269 0 .343.055.417.325.019.055.047.102.112.102.223 0 .445-.01.659 0 .12 0 .148-.056.148-.167-.009-.288-.009-.576-.009-.864 0-.13.056-.185.186-.195.436-.018.436-.018.445.427v.632c0 .167.093.222.232.148.177-.093.38-.056.539-.185.018-.019.083-.019.111 0 .14.083.306.092.455.139.158.055.297.065.455.055.12-.009.241 0 .362.01.111 0 .195.046.241.148.019.028.037.056.074.028.019-.018.01-.046-.009-.056-.213-.176-.167-.417-.13-.63.037-.27.047-.53.037-.79-.01-.223.019-.427.186-.594.028-.028.074-.065.046-.111-.018-.037-.074-.019-.111-.028-.25-.019-.288-.056-.232-.306.167-.91.334-1.829.492-2.739.148-.835.297-1.661.436-2.497.046-.25.065-.269.325-.269.353 0 .705.019 1.058.019h.27c.092 0 .176.018.185-.13 0-.084.084-.074.14-.074.11-.01.213.027.343-.01-.112-.12-.232-.102-.353-.093-.037 0-.074.028-.111.028-.093 0-.168-.055-.158-.148.009-.084.065-.149.158-.13.148.037.297.028.445.046.102.01.186.056.27.12.157.14.315.233.547.205.204-.028.418-.018.631.019.149.027.232-.037.241-.186.01-.093.038-.186.038-.278.009-.372.185-.687.352-1.003.019-.028.037-.065.065-.074.093-.037.121-.093.112-.195-.019-.13.046-.195.185-.186.121.01.288-.037.26.167-.018.14.084.205.14.297.185.316.343.64.361 1.021v.019c.065.455.103.464.567.455.445-.019.89.018 1.346.028.148 0 .297.009.445.009.028 0 .084 0 .093-.019.111-.204.306-.139.473-.167.232-.046.427-.12.548-.343.093-.167.27-.177.371-.01.13.223.372.372.409.65.01.093.111.093.195.093.325 0 .64.01.965 0 .14 0 .223.047.241.186.047.269.103.529.158.798a.4.4 0 0 0 .177.27c.232.166.445.361.612.603.065.092.14.111.242.102.408-.028.826 0 1.243 0 .14 0 .288-.01.427-.019.121-.01.195.047.195.167 0 .093.056.12.14.13l.612.056c.047 0 .102.01.13.037.176.186.4.13.603.13.13 0 .251-.01.381 0 .12 0 .158.065.149.186-.01.102.009.213-.158.213-.223-.01-.455 0-.678 0-.12 0-.176.046-.167.167a.97.97 0 0 1 0 .232c-.01.204-.093.288-.297.297-.167 0-.343 0-.51.01-.121 0-.233.009-.251.167-.019.102-.102.092-.186.092h-1.54c-.047 0-.103-.018-.13.038-.15.269-.344.51-.214.854.065.176.074.37.111.547.028.14.084.195.242.204.325.019.612-.037.872-.25.028-.028.065-.047.093-.065.13-.074.195-.037.186.102-.01.167.055.213.204.204.371-.01.742 0 1.114-.01.12 0 .195.038.241.15.093.222.167.445.27.658.064.13-.01.214-.233.242.14.195.325.26.557.26.492-.019.984-.01 1.476-.01h1.392c.242 0 .27.028.27.27 0 .167.009.343 0 .51-.01.13.046.176.176.176.585-.009 1.17-.046 1.745.01 1.569.158 3.147.046 4.725.093.148 0 .223.055.213.213-.009.14-.009.288 0 .436.01.149-.055.205-.195.195-.093-.009-.176 0-.269 0-1.309.01-2.617-.046-3.917.065-1.327.112-2.655.019-3.973.093-.418.028-.826.01-1.244.01-.083 0-.157.009-.204.101-.083.195-.074.214.14.214.139 0 .213.065.25.186.084.24.186.482.27.733.055.167.157.241.333.278.344.075.687.177 1.021.27.4.11.808.148 1.226.092.38-.055.76-.046 1.141-.065.79-.037 1.578-.092 2.367-.139.455-.028.92-.046 1.374-.074.91-.056 1.82-.12 2.73-.167.89-.047 1.781 0 2.654.232.334.083.678.167.975.362.176.111.204.195.102.38-.019.038-.047.075-.065.112-.028.046-.093.102-.065.158.037.065.13.065.185.037.205-.084.335.065.483.139.074.037.111.111.074.195-.065.14 0 .213.112.288.232.148.473.315.696.473.065.047.12.065.195.028.102-.046.167-.01.213.083.037.084.075.158.112.242.037.074.037.158-.037.213-.103.084-.093.167-.047.279.093.213.186.436.279.659.037.093.102.13.204.13s.232-.037.278.111c.084.297.056.427-.111.52-.065.037-.12.074-.112.158.01.195.02.39.02.585 0 .13.064.213.194.25.13.037.167.12.13.242-.019.065-.028.139-.046.213-.019.12-.084.186-.205.167-.111-.01-.148.047-.176.13-.065.232-.12.473-.186.706-.018.074 0 .13.056.176.12.083.13.186.056.306-.037.065-.075.12-.102.186-.047.102-.121.12-.214.083-.102-.055-.167-.009-.223.075l-.427.65c-.037.064-.046.12 0 .185.056.084.019.149-.046.204-.065.056-.13.102-.195.158-.074.074-.158.084-.232.01-.102-.093-.195-.066-.297 0-.149.101-.288.231-.455.306-.056.028-.065.074-.037.12.074.121.018.195-.084.26-.055.028-.092.074-.139.112-.083.065-.167.083-.25-.01-.075-.092-.168-.074-.251-.028-.176.103-.353.214-.52.316-.037.019-.074.037-.074.084.01.232-.223.25-.344.362-.055.046-.111-.01-.157-.047-.093-.083-.186-.074-.288 0-.112.074-.223.14-.344.204-.092.056-.176.103-.176.251-.01.186-.39.353-.538.241-.084-.065-.149-.065-.232-.009-.149.102-.316.186-.474.279-.102.055-.195.092-.204.26-.01.148-.214.176-.343.25-.093.047-.158-.018-.214-.083-.046-.065-.102-.084-.186-.047-.195.093-.39.177-.594.27-.055.027-.111.046-.102.13.019.231-.195.213-.315.306-.102.074-.195.018-.26-.065-.047-.056-.084-.075-.158-.047-.232.112-.464.214-.696.316-.065.028-.12.065-.093.148.018.065-.01.112-.065.14a4.955 4.955 0 0 1-.334.13c-.056.018-.102 0-.13-.047-.093-.158-.195-.158-.353-.083-.14.065-.297.083-.445.13-.112.037-.251.046-.233.24.01.103-.102.103-.185.112-.427.037-.863-.009-1.29 0-1.207.01-2.414-.009-3.62.01-5.95.055-11.9.018-17.85.037-2.46.009-4.93 0-7.39 0h-.844c-.037 0-.102.009-.111-.047-.01-.046.028-.074.074-.074.074-.01.065-.065.056-.111-.01-.056-.028-.112-.093-.121-.26-.019-.52-.028-.78-.037-.065 0-.093.046-.102.102-.018.111-.083.14-.195.12-.065-.009-.13-.009-.195-.009-.12 0-.185-.046-.204-.167-.01-.111-.074-.148-.186-.158-.176-.018-.352-.065-.52-.083-.102-.019-.204-.037-.232.111-.018.065-.074.084-.13.065-.074-.009-.148-.028-.232-.037-.13-.01-.213-.056-.204-.204 0-.074-.037-.12-.111-.14-.214-.055-.427-.11-.64-.157-.038-.01-.084-.019-.112.01-.158.157-.334.046-.501.036-.084 0-.12-.083-.12-.158 0-.13-.075-.176-.187-.194-.148-.038-.306-.056-.445-.112-.074-.028-.176-.056-.26.056-.102.13-.52 0-.548-.167-.018-.13-.083-.177-.204-.204-.158-.028-.315-.075-.464-.112-.084-.018-.158-.037-.25.056-.103.102-.27.037-.409.01-.111-.02-.13-.112-.13-.205s-.056-.14-.14-.158a17.85 17.85 0 0 1-.677-.158c-.074-.018-.13-.009-.167.065-.028.065-.093.084-.158.065-.111-.028-.222-.065-.334-.102-.065-.028-.074-.083-.074-.148.018-.14-.047-.205-.186-.25-.223-.066-.436-.159-.65-.242-.092-.037-.185-.075-.278.018-.037.047-.093.037-.14.01-.092-.065-.194-.121-.287-.195-.065-.056-.074-.13-.037-.214.056-.102.01-.176-.065-.241-.176-.149-.344-.297-.52-.446-.065-.055-.13-.12-.232-.093-.065.019-.102-.027-.13-.083l-.14-.279c-.046-.092-.036-.176.066-.222.093-.047.102-.121.074-.214-.111-.288-.223-.566-.334-.845-.01-.018-.019-.046-.037-.055-.214-.056-.177-.242-.195-.39-.019-.13.018-.241.167-.279.083-.018.111-.065.12-.157.01-.325.047-.65.028-.975-.009-.186.103-.325.195-.464.037-.065.112-.037.167-.028.112.019.177-.019.233-.111.13-.223.269-.446.399-.669.046-.074.083-.157.018-.25-.055-.084-.028-.149.047-.205.065-.046.13-.102.195-.157.083-.065.157-.084.25 0 .047.046.093.102.167.055.047-.027.028-.074.019-.12-.028-.075-.065-.149-.167-.121-.158.037-.297-.019-.418-.111-.186-.149-.186-.316.01-.455.027-.019.064-.047.092-.065.204-.149.204-.149.084-.371-.056-.112-.01-.177.074-.233.371-.25.743-.52 1.123-.77.074-.056.111-.102.047-.167-.065-.065-.084-.241-.242-.13a36.8 36.8 0 0 1-.77.51c-.13.084-.26.177-.38.26-.075.056-.13.028-.177-.046-.13-.195-.26-.4-.39-.594-.056-.074-.019-.14.046-.186.232-.157.464-.315.697-.482.092-.065.185-.121.269-.186.018-.019.046-.046.046-.065-.046-.195.13-.232.232-.316.112-.092.25-.157.371-.24.093-.066.168-.122.288-.057.056.028.102-.027.149-.055.288-.195.585-.38.863-.585.093-.065.14-.065.204.018.167.195.288.418.427.632.065.092-.028.139-.093.185-.287.205-.584.4-.881.594-.047.038-.103.065-.149.102-.204.14-.195.13-.056.316.065.084.112.074.195.019.353-.242.706-.474 1.058-.706.121-.083.195-.065.27.056.102.158.213.306.325.464.027.037.055.074.102.065.055-.01.074-.065.074-.12v-.186c0-.288 0-.288-.288-.297-.102 0-.14-.047-.14-.14v-1.346c0-.139.094-.157.205-.157.232-.01.232-.01.232-.232v-.353c.01-.288.13-.409.427-.409h1.894c.037-.009.093-.009.158-.009z"/></svg>