<svg version="1.2" baseProfile="tiny" xmlns="http://www.w3.org/2000/svg" viewBox="0 0 75 75" overflow="visible" xml:space="preserve"><path fill="#FDE498" d="M0 0h75v75H0z"/><path fill="#010101" d="M38.9 60.5c0-.7 0-1.3-.3-1.7s-1-.5-1.3-.5c-1.2 0-1.7.7-1.7.9 0 .1-.3.4-.3 2.4v3.1c0 2.8.9 3.2 2.1 3.2.4 0 1.8-.2 1.8-2.4h1.5c.1 3.6-2.5 3.6-3.3 3.6-1.4 0-3.6-.1-3.6-4.6v-3.3c0-3.3 1.4-4.2 3.7-4.2 2.3 0 3.2 1.2 3 3.4h-1.6zM17.925 26.476c-.065-.232.019-.362.26-.362s.492-.01.733 0c.214 0 .288.084.27.288-.01.065.018.074.074.074h.566c.084 0 .111-.056.111-.13.01-.13-.037-.288.065-.38.093-.084.242-.019.372-.028.12-.01.204-.074.297-.12.195-.094.287-.205.334-.41.01-.055.102-.083.167-.092.102-.019.195-.028.297-.028.455 0 .91-.01 1.364.01.13 0 .168-.056.158-.168v-.436c0-.14.056-.214.204-.214.446.01.4-.037.409.4 0 .399 0 .399.399.399h2.274c.27 0 .344.055.418.325.018.055.046.102.111.102.223 0 .446-.01.66 0 .12 0 .148-.056.148-.167-.01-.288-.01-.576-.01-.864 0-.13.056-.185.186-.195.437-.018.437-.018.446.427v.632c0 .167.093.222.232.148.176-.093.38-.056.538-.185.019-.019.084-.019.112 0 .139.083.306.092.454.139.158.055.297.065.455.055.121-.009.242 0 .362.01.112 0 .195.046.242.148.018.028.037.056.074.028.018-.018.01-.046-.01-.056-.213-.176-.166-.417-.13-.63.038-.27.047-.53.038-.79-.01-.223.018-.427.185-.594.028-.028.075-.065.047-.111-.019-.037-.074-.019-.112-.028-.25-.019-.287-.056-.232-.306.167-.91.335-1.829.492-2.739.149-.835.297-1.661.437-2.497.046-.25.065-.269.325-.269.352 0 .705.019 1.058.019h.269c.093 0 .176.018.186-.13 0-.084.083-.074.139-.074.111-.01.213.027.343-.01-.111-.12-.232-.102-.353-.093-.037 0-.074.028-.11.028-.094 0-.168-.055-.159-.148.01-.084.065-.149.158-.13.149.037.297.028.446.046.102.01.185.056.269.12.158.14.315.233.547.205.205-.028.418-.018.632.019.148.027.232-.037.241-.186.01-.093.037-.186.037-.278.01-.372.186-.687.353-1.003.018-.028.037-.065.065-.074.093-.037.12-.093.111-.195-.018-.13.047-.195.186-.186.12.01.288-.037.26.167-.019.14.083.205.139.297.186.316.343.64.362 1.021v.019c.065.455.102.464.566.455.446-.019.891.018 1.346.028.149 0 .297.009.446.009.028 0 .083 0 .093-.019.111-.204.306-.139.473-.167.232-.046.427-.12.548-.343.092-.167.269-.177.37-.01.13.223.372.372.41.65.009.093.11.093.194.093.325 0 .64.01.966 0 .139 0 .222.047.241.186.046.269.102.529.158.798a.4.4 0 0 0 .176.27c.232.166.446.361.613.603.065.092.139.111.241.102.409-.028.826 0 1.244 0 .14 0 .288-.01.427-.019.12-.01.195.047.195.167 0 .093.056.12.14.13l.612.056c.046 0 .102.01.13.037.176.186.399.13.603.13.13 0 .25-.01.38 0 .121 0 .158.065.15.186-.01.102.008.213-.159.213-.222-.01-.454 0-.677 0-.12 0-.177.046-.167.167a.97.97 0 0 1 0 .232c-.01.204-.093.288-.297.297-.167 0-.344 0-.51.01-.122 0-.233.009-.252.167-.018.102-.102.092-.185.092H43.86c-.046 0-.102-.018-.13.038-.149.269-.343.51-.213.854.064.176.074.37.11.547.029.14.084.195.242.204.325.019.613-.037.873-.25.028-.028.065-.047.093-.065.13-.074.195-.037.185.102-.009.167.056.213.204.204.372-.01.743 0 1.114-.01.121 0 .195.038.242.15.092.222.167.445.269.658.065.13-.01.214-.232.242.139.195.325.26.557.26.492-.019.984-.01 1.476-.01h1.392c.241 0 .27.028.27.27 0 .167.008.343 0 .51-.01.13.046.176.176.176.584-.009 1.17-.046 1.745.01 1.568.158 3.146.046 4.724.093.149 0 .223.055.214.213-.01.14-.01.288 0 .436.01.149-.056.205-.195.195-.093-.009-.176 0-.27 0-1.308.01-2.617-.046-3.916.065-1.328.112-2.655.019-3.973.093-.418.028-.826.01-1.244.01-.084 0-.158.009-.204.101-.084.195-.075.214.139.214.14 0 .213.065.25.186.084.24.186.482.27.733.055.167.158.241.334.278.343.075.687.177 1.02.27.4.11.808.148 1.226.092.38-.055.761-.046 1.142-.065.789-.037 1.578-.092 2.367-.139.455-.028.919-.046 1.374-.074.91-.056 1.819-.12 2.729-.167.89-.047 1.782 0 2.654.232.335.083.678.167.975.362.176.111.204.195.102.38-.018.038-.046.075-.065.112-.028.046-.093.102-.065.158.037.065.13.065.186.037.204-.084.334.065.483.139.074.037.111.111.074.195-.065.14 0 .213.111.288.232.148.474.315.696.473.065.047.121.065.195.028.102-.046.167-.01.214.083.037.084.074.158.111.242.037.074.037.158-.037.213-.102.084-.093.167-.046.279.092.213.185.436.278.659.037.093.102.13.204.13s.232-.037.279.111c.083.297.056.427-.112.52-.065.037-.12.074-.11.158.008.195.018.39.018.585 0 .13.065.213.195.25.13.037.167.12.13.242-.02.065-.028.139-.047.213-.018.12-.083.186-.204.167-.112-.01-.149.047-.176.13-.065.232-.121.473-.186.706-.019.074 0 .13.056.176.12.083.13.186.055.306-.037.065-.074.12-.102.186-.046.102-.12.12-.213.083-.102-.055-.167-.009-.223.075-.14.213-.288.436-.427.65-.037.064-.047.12 0 .185.056.084.018.149-.047.204-.064.056-.13.102-.194.158-.075.074-.158.084-.233.01-.102-.093-.194-.066-.297 0-.148.101-.287.231-.454.306-.056.028-.065.074-.038.12.075.121.02.195-.083.26-.056.028-.093.074-.14.112-.083.065-.166.083-.25-.01-.074-.092-.167-.074-.25-.028-.177.103-.353.214-.52.316-.037.019-.075.037-.075.084.01.232-.222.25-.343.362-.056.046-.111-.01-.158-.047-.093-.083-.185-.074-.288 0-.111.074-.222.14-.343.204-.093.056-.176.103-.176.251-.01.186-.39.353-.539.241-.083-.065-.148-.065-.232-.009-.148.102-.315.186-.473.279-.102.055-.195.092-.204.26-.01.148-.214.176-.344.25-.093.047-.158-.018-.213-.083-.047-.065-.102-.084-.186-.047-.195.093-.39.177-.594.27-.056.027-.111.046-.102.13.018.231-.195.213-.316.306-.102.074-.195.018-.26-.065-.046-.056-.083-.075-.158-.047-.232.112-.464.214-.696.316-.065.028-.12.065-.093.148.02.065-.009.112-.064.14a4.955 4.955 0 0 1-.335.13c-.055.018-.102 0-.13-.047-.092-.158-.195-.158-.352-.083-.14.065-.297.083-.446.13-.111.037-.25.046-.232.24.01.103-.102.103-.186.112-.427.037-.863-.009-1.29 0-1.207.01-2.413-.009-3.62.01-5.95.055-11.9.018-17.85.037-2.46.009-4.929 0-7.389 0h-.844c-.037 0-.102.009-.112-.047-.009-.046.028-.074.075-.074.074-.01.065-.065.055-.111-.009-.056-.028-.112-.093-.121-.26-.019-.52-.028-.78-.037-.064 0-.092.046-.101.102-.019.111-.084.14-.195.12-.065-.009-.13-.009-.195-.009-.12 0-.186-.046-.204-.167-.01-.111-.075-.148-.186-.158-.176-.018-.353-.065-.52-.083-.102-.019-.204-.037-.232.111-.019.065-.074.084-.13.065-.074-.009-.148-.028-.232-.037-.13-.01-.213-.056-.204-.204 0-.074-.037-.12-.112-.14-.213-.055-.427-.11-.64-.157-.037-.01-.084-.019-.111.01-.158.157-.335.046-.502.036-.083 0-.12-.083-.12-.158 0-.13-.075-.176-.186-.194-.149-.038-.306-.056-.446-.112-.074-.028-.176-.056-.26.056-.102.13-.52 0-.547-.167-.019-.13-.084-.177-.204-.204-.158-.028-.316-.075-.464-.112-.084-.018-.158-.037-.251.056-.102.102-.27.037-.408.01-.112-.02-.13-.112-.13-.205s-.056-.14-.14-.158a17.85 17.85 0 0 1-.677-.158c-.075-.018-.13-.009-.167.065-.028.065-.093.084-.158.065-.112-.028-.223-.065-.334-.102-.065-.028-.075-.083-.075-.148.019-.14-.046-.205-.185-.25-.223-.066-.436-.159-.65-.242-.093-.037-.186-.075-.278.018-.038.047-.093.037-.14.01-.093-.065-.195-.121-.287-.195-.065-.056-.075-.13-.038-.214.056-.102.01-.176-.065-.241-.176-.149-.343-.297-.52-.446-.064-.055-.13-.12-.231-.093-.065.019-.103-.027-.13-.083l-.14-.279c-.046-.092-.037-.176.065-.222.093-.047.102-.121.075-.214-.112-.288-.223-.566-.335-.845-.009-.018-.018-.046-.037-.055-.213-.056-.176-.242-.195-.39-.018-.13.019-.241.167-.279.084-.018.112-.065.121-.157.01-.325.047-.65.028-.975-.01-.186.102-.325.195-.464.037-.065.111-.037.167-.028.111.019.176-.019.232-.111.13-.223.27-.446.4-.669.046-.074.083-.157.018-.25-.056-.084-.028-.149.046-.205.065-.046.13-.102.195-.157.084-.065.158-.084.25 0 .047.046.094.102.168.055.046-.027.028-.074.018-.12-.027-.075-.065-.149-.167-.121-.157.037-.297-.019-.417-.111-.186-.149-.186-.316.009-.455.028-.019.065-.047.093-.065.204-.149.204-.149.083-.371-.055-.112-.009-.177.075-.233.37-.25.742-.52 1.123-.77.074-.056.111-.102.046-.167-.065-.065-.083-.241-.241-.13a36.8 36.8 0 0 1-.77.51c-.13.084-.26.177-.381.26-.075.056-.13.028-.177-.046-.13-.195-.26-.4-.39-.594-.055-.074-.018-.14.047-.186.232-.157.464-.315.696-.482.093-.065.186-.121.27-.186.018-.019.046-.046.046-.065-.047-.195.13-.232.232-.316.111-.092.25-.157.371-.24.093-.066.167-.122.288-.057.055.028.102-.027.148-.055.288-.195.585-.38.864-.585.092-.065.139-.065.204.018.167.195.288.418.427.632.065.092-.028.139-.093.185-.288.205-.585.4-.882.594-.046.038-.102.065-.148.102-.205.14-.195.13-.056.316.065.084.111.074.195.019.353-.242.705-.474 1.058-.706.12-.083.195-.065.27.056.101.158.213.306.324.464.028.037.056.074.102.065.056-.01.074-.065.074-.12v-.186c0-.288 0-.288-.287-.297-.102 0-.14-.047-.14-.14v-1.346c0-.139.093-.157.205-.157.232-.01.232-.01.232-.232v-.353c.009-.288.13-.409.427-.409h1.893c.037-.009.093-.009.158-.009z"/></svg>