<svg version="1.2" baseProfile="tiny" xmlns="http://www.w3.org/2000/svg" viewBox="0 0 75 75" overflow="visible" xml:space="preserve"><path fill="#FDE498" d="M0 0h75v75H0z"/><path fill="#010101" d="M33.4 57.4H37c1.5 0 2.5.5 3.1 1.8.5 1 .5 3.3.5 3.6 0 2.5-.2 3.9-.7 4.7-.6 1-1.8 1.5-3.8 1.5h-2.7V57.4zm1.5 10.2h1.4c2 0 2.8-.8 2.8-3.5v-2.3c0-2.3-.7-3.2-2.3-3.2h-1.9v9zM17.924 26.476c-.065-.232.018-.362.26-.362.241 0 .492-.01.733 0 .214 0 .288.084.27.288-.01.065.018.074.074.074h.566c.083 0 .111-.056.111-.13.01-.13-.037-.288.065-.38.093-.084.241-.019.371-.028.121-.01.205-.074.297-.12.195-.094.288-.205.335-.41.009-.055.102-.083.167-.092.102-.019.195-.028.297-.028.455 0 .91-.01 1.364.01.13 0 .167-.056.158-.168v-.436c0-.14.056-.214.204-.214.446.01.4-.037.409.4 0 .399 0 .399.399.399h2.274c.27 0 .343.055.418.325.018.055.046.102.111.102.223 0 .446-.01.66 0 .12 0 .148-.056.148-.167-.01-.288-.01-.576-.01-.864 0-.13.056-.185.186-.195.436-.018.436-.018.446.427v.632c0 .167.092.222.232.148.176-.093.38-.056.538-.185.019-.019.084-.019.111 0 .14.083.307.092.455.139.158.055.297.065.455.055.12-.009.241 0 .362.01.111 0 .195.046.241.148.019.028.038.056.075.028.018-.018.009-.046-.01-.056-.213-.176-.167-.417-.13-.63.038-.27.047-.53.038-.79-.01-.223.018-.427.185-.594.028-.028.074-.065.047-.111-.019-.037-.075-.019-.112-.028-.25-.019-.288-.056-.232-.306.167-.91.334-1.829.492-2.739.149-.835.297-1.661.436-2.497.047-.25.065-.269.325-.269.353 0 .706.019 1.058.019h.27c.092 0 .176.018.185-.13 0-.084.084-.074.14-.074.11-.01.213.027.343-.01-.111-.12-.232-.102-.353-.093-.037 0-.074.028-.111.028-.093 0-.167-.055-.158-.148.01-.084.065-.149.158-.13.148.037.297.028.445.046.103.01.186.056.27.12.157.14.315.233.547.205.204-.028.418-.018.631.019.149.027.233-.037.242-.186.01-.093.037-.186.037-.278.01-.372.186-.687.353-1.003.018-.028.037-.065.065-.074.092-.037.12-.093.111-.195-.019-.13.046-.195.186-.186.12.01.287-.037.26.167-.019.14.083.205.139.297.185.316.343.64.362 1.021v.019c.065.455.102.464.566.455.446-.019.891.018 1.346.028.149 0 .297.009.446.009.027 0 .083 0 .092-.019.112-.204.307-.139.474-.167.232-.046.427-.12.547-.343.093-.167.27-.177.372-.01.13.223.371.372.408.65.01.093.112.093.195.093.325 0 .64.01.965 0 .14 0 .223.047.242.186.046.269.102.529.158.798a.4.4 0 0 0 .176.27c.232.166.445.361.613.603.065.092.139.111.24.102.41-.028.827 0 1.245 0 .139 0 .287-.01.427-.019.12-.01.195.047.195.167 0 .093.055.12.139.13l.613.056c.046 0 .102.01.13.037.176.186.399.13.603.13.13 0 .25-.01.38 0 .121 0 .158.065.149.186-.01.102.01.213-.158.213-.223-.01-.455 0-.677 0-.121 0-.177.046-.168.167a.97.97 0 0 1 0 .232c-.009.204-.092.288-.297.297-.167 0-.343 0-.51.01-.12 0-.232.009-.25.167-.02.102-.103.092-.186.092h-1.541c-.047 0-.102-.018-.13.038-.149.269-.344.51-.214.854.065.176.075.37.112.547.028.14.083.195.241.204.325.019.613-.037.873-.25.027-.028.065-.047.092-.065.13-.074.195-.037.186.102-.01.167.056.213.204.204.372-.01.743 0 1.114-.01.12 0 .195.038.241.15.093.222.168.445.27.658.065.13-.01.214-.232.242.139.195.324.26.557.26.491-.019.983-.01 1.475-.01h1.393c.241 0 .269.028.269.27 0 .167.01.343 0 .51-.01.13.046.176.176.176.585-.009 1.17-.046 1.745.01 1.57.158 3.147.046 4.725.093.149 0 .223.055.214.213-.01.14-.01.288 0 .436.009.149-.056.205-.195.195-.093-.009-.177 0-.27 0-1.308.01-2.617-.046-3.917.065-1.327.112-2.654.019-3.973.093-.417.028-.826.01-1.243.01-.084 0-.158.009-.205.101-.083.195-.074.214.14.214.139 0 .213.065.25.186.084.24.186.482.27.733.055.167.157.241.334.278.343.075.687.177 1.02.27.4.11.808.148 1.226.092.38-.055.761-.046 1.142-.065.789-.037 1.578-.092 2.367-.139.455-.028.919-.046 1.373-.074.91-.056 1.82-.12 2.73-.167.89-.047 1.782 0 2.654.232.334.083.678.167.975.362.176.111.204.195.102.38-.019.038-.046.075-.065.112-.028.046-.093.102-.065.158.037.065.13.065.186.037.204-.084.334.065.482.139.075.037.112.111.075.195-.065.14 0 .213.111.288.232.148.473.315.696.473.065.047.12.065.195.028.102-.046.167-.01.214.083.037.084.074.158.111.242.037.074.037.158-.037.213-.102.084-.093.167-.047.279.093.213.186.436.279.659.037.093.102.13.204.13s.232-.037.279.111c.083.297.055.427-.112.52-.065.037-.12.074-.111.158.01.195.018.39.018.585 0 .13.065.213.195.25.13.037.167.12.13.242-.018.065-.028.139-.046.213-.019.12-.084.186-.204.167-.112-.01-.149.047-.177.13-.065.232-.12.473-.185.706-.019.074 0 .13.055.176.121.083.13.186.056.306-.037.065-.074.12-.102.186-.046.102-.12.12-.214.083-.102-.055-.167-.009-.222.075-.14.213-.288.436-.427.65-.037.064-.047.12 0 .185.055.084.018.149-.047.204-.065.056-.13.102-.195.158-.074.074-.157.084-.232.01-.102-.093-.195-.066-.297 0-.148.101-.288.231-.455.306-.055.028-.065.074-.037.12.075.121.019.195-.083.26-.056.028-.093.074-.14.112-.083.065-.167.083-.25-.01-.074-.092-.167-.074-.25-.028-.177.103-.353.214-.52.316-.038.019-.075.037-.075.084.01.232-.223.25-.343.362-.056.046-.112-.01-.158-.047-.093-.083-.186-.074-.288 0-.111.074-.223.14-.343.204-.093.056-.177.103-.177.251-.009.186-.39.353-.538.241-.084-.065-.149-.065-.232-.009-.149.102-.316.186-.473.279-.103.055-.195.092-.205.26-.009.148-.213.176-.343.25-.093.047-.158-.018-.214-.083-.046-.065-.102-.084-.185-.047-.195.093-.39.177-.594.27-.056.027-.112.046-.102.13.018.231-.195.213-.316.306-.102.074-.195.018-.26-.065-.046-.056-.083-.075-.158-.047-.232.112-.464.214-.696.316-.065.028-.12.065-.093.148.019.065-.009.112-.065.14a4.955 4.955 0 0 1-.334.13c-.056.018-.102 0-.13-.047-.093-.158-.195-.158-.353-.083-.139.065-.297.083-.445.13-.111.037-.25.046-.232.24.01.103-.102.103-.186.112-.427.037-.863-.009-1.29 0-1.207.01-2.413-.009-3.62.01-5.95.055-11.9.018-17.85.037-2.46.009-4.929 0-7.389 0h-.845c-.037 0-.102.009-.11-.047-.01-.046.027-.074.073-.074.075-.01.065-.065.056-.111-.01-.056-.028-.112-.093-.121-.26-.019-.52-.028-.78-.037-.064 0-.092.046-.102.102-.018.111-.083.14-.195.12-.064-.009-.13-.009-.194-.009-.121 0-.186-.046-.205-.167-.009-.111-.074-.148-.185-.158-.177-.018-.353-.065-.52-.083-.102-.019-.204-.037-.232.111-.019.065-.074.084-.13.065-.074-.009-.149-.028-.232-.037-.13-.01-.214-.056-.204-.204 0-.074-.038-.12-.112-.14-.213-.055-.427-.11-.64-.157-.037-.01-.084-.019-.112.01-.157.157-.334.046-.5.036-.084 0-.122-.083-.122-.158 0-.13-.074-.176-.185-.194-.149-.038-.307-.056-.446-.112-.074-.028-.176-.056-.26.056-.102.13-.52 0-.547-.167-.019-.13-.084-.177-.205-.204-.157-.028-.315-.075-.464-.112-.083-.018-.157-.037-.25.056-.102.102-.27.037-.409.01-.111-.02-.13-.112-.13-.205s-.055-.14-.139-.158a17.85 17.85 0 0 1-.677-.158c-.075-.018-.13-.009-.168.065-.027.065-.092.084-.157.065-.112-.028-.223-.065-.335-.102-.065-.028-.074-.083-.074-.148.019-.14-.046-.205-.185-.25-.223-.066-.437-.159-.65-.242-.093-.037-.186-.075-.279.018-.037.047-.093.037-.139.01-.093-.065-.195-.121-.288-.195-.065-.056-.074-.13-.037-.214.056-.102.01-.176-.065-.241-.176-.149-.343-.297-.52-.446-.065-.055-.13-.12-.232-.093-.065.019-.102-.027-.13-.083l-.139-.279c-.046-.092-.037-.176.065-.222.093-.047.102-.121.074-.214-.111-.288-.222-.566-.334-.845-.009-.018-.018-.046-.037-.055-.213-.056-.176-.242-.195-.39-.018-.13.019-.241.167-.279.084-.018.112-.065.12-.157.01-.325.047-.65.029-.975-.01-.186.102-.325.195-.464.037-.065.111-.037.167-.028.111.019.176-.019.232-.111.13-.223.269-.446.399-.669.046-.074.084-.157.019-.25-.056-.084-.028-.149.046-.205.065-.046.13-.102.195-.157.083-.065.158-.084.25 0 .047.046.093.102.168.055.046-.027.027-.074.018-.12-.028-.075-.065-.149-.167-.121-.158.037-.297-.019-.418-.111-.185-.149-.185-.316.01-.455l.092-.065c.205-.149.205-.149.084-.371-.056-.112-.01-.177.074-.233.372-.25.743-.52 1.123-.77.075-.056.112-.102.047-.167-.065-.065-.084-.241-.241-.13a36.8 36.8 0 0 1-.77.51c-.13.084-.26.177-.381.26-.075.056-.13.028-.177-.046-.13-.195-.26-.4-.39-.594-.055-.074-.018-.14.047-.186.232-.157.464-.315.696-.482.093-.065.186-.121.27-.186.018-.019.045-.046.045-.065-.046-.195.13-.232.233-.316.11-.092.25-.157.37-.24.094-.066.168-.122.289-.057.055.028.102-.027.148-.055.288-.195.585-.38.863-.585.093-.065.14-.065.205.018.167.195.287.418.427.632.065.092-.028.139-.093.185-.288.205-.585.4-.882.594-.047.038-.102.065-.149.102-.204.14-.195.13-.055.316.065.084.111.074.195.019.352-.242.705-.474 1.058-.706.12-.083.195-.065.269.056.102.158.213.306.325.464.028.037.056.074.102.065.056-.01.074-.065.074-.12v-.186c0-.288 0-.288-.288-.297-.102 0-.139-.047-.139-.14v-1.346c0-.139.093-.157.204-.157.233-.01.233-.01.233-.232v-.353c.009-.288.13-.409.427-.409h1.893c.037-.009.093-.009.158-.009z"/></svg>