<svg version="1.2" baseProfile="tiny" xmlns="http://www.w3.org/2000/svg" viewBox="0 0 75 75" overflow="visible" xml:space="preserve"><path fill="#FDE498" d="M0 0h75v75H0z"/><g fill="#010101"><path d="M11.2 63v.3c0 1.2.7 1.5 1.5 1.5.9 0 1.5-.4 1.5-1.4 0-1.9-3.9-1.7-3.9-4.3 0-1.5 1.1-2.4 2.5-2.4 1.6 0 2.5.8 2.4 2.5H14c0-.9-.3-1.6-1.3-1.6-.7 0-1.3.3-1.3 1.3 0 1.9 3.9 1.6 3.9 4.4 0 1.8-1.3 2.4-2.7 2.4-2.6 0-2.6-1.9-2.5-2.8h1.1zM20 64.7c-.3.7-.8 1-1.5 1-1.3 0-1.7-.8-1.7-2 0-1.8 1.8-1.9 3.2-1.9 0-.8 0-1.7-1-1.7-.7 0-1 .4-.9 1.1H17c0-1.4.8-1.8 2.1-1.8 1.6 0 2 .8 2 1.8v2.9c0 .5 0 1 .1 1.4h-1.1v-.8zm-2.2-.9c0 .6.3 1.1.9 1.1.6 0 1.3-.4 1.2-2.3-.8 0-2.1-.1-2.1 1.2zM26.2 65.6v-4.2c0-.6-.2-1.2-1.1-1.2-1.1 0-1.2 1-1.2 1.8v3.6h-1v-4.8c0-.4 0-.8-.1-1.3h1v.8c.4-.7.8-.9 1.6-.9 1.3 0 1.6.8 1.6 2v4.2h-.8zM35.8 59.2c0-1-.4-1.6-1.5-1.6-.3 0-1.6.1-1.6 1.9v2.9c0 1.9.6 2.4 1.6 2.4.8 0 1.3-.2 1.5-.4v-2.6h-1.6v-1h2.7V65c-.7.4-1.5.6-2.7.6-1.8 0-2.7-.9-2.7-3.3v-2.8c0-1.7.9-2.8 2.7-2.8 1.9 0 2.8.7 2.7 2.5h-1.1zM38.8 56.9h1.1V58h-1.1v-1.1zm1.1 8.7h-1v-6.1h1v6.1zM41.4 62.6c0-1.8.2-3.2 2.3-3.2s2.3 1.5 2.3 3.2c0 2.7-1 3.1-2.3 3.1s-2.3-.4-2.3-3.1zm3.6-.4c0-1.7-.5-2-1.3-2s-1.3.4-1.3 2c0 2 .3 2.7 1.3 2.7s1.3-.7 1.3-2.7zM48.6 60.4c.4-.9.9-1 1.9-1v1h-.6c-1.1 0-1.4.8-1.4 1.6v3.6h-1v-6.1h1v.9zM54.8 59.5h1v6.7c0 1.4-.9 1.7-2.2 1.7-1 0-1.9-.5-1.8-1.6h1.1c0 .6.4.9.9.9.7 0 1.1-.4 1.1-1v-1.3c-.3.5-.8.8-1.3.8-1.6 0-2-1.4-2-3.2 0-2.8 1.4-3 1.9-3 .6 0 1.1.3 1.4.9v-.9zm-1.2.7c-1.1 0-1.2 1.3-1.2 2.1 0 1.9.4 2.4 1.2 2.4 1.2 0 1.2-1.4 1.2-2.2 0-.9 0-2.3-1.2-2.3zM57.5 56.9h1.1V58h-1.1v-1.1zm1 8.7h-1v-6.1h1v6.1zM60.1 62.6c0-1.8.2-3.2 2.3-3.2s2.3 1.5 2.3 3.2c0 2.7-1 3.1-2.3 3.1s-2.3-.4-2.3-3.1zm3.5-.4c0-1.7-.5-2-1.3-2s-1.3.4-1.3 2c0 2 .3 2.7 1.3 2.7s1.3-.7 1.3-2.7z"/></g><g fill="#010101"><path d="M15.6 21.4c0-3.1 0-6 4-6 2.5 0 3.5 1.4 3.4 3.8h-2.4c0-1.5-.3-2.1-1-2.1-1.4 0-1.5 1.3-1.5 4.2s.2 4.2 1.5 4.2c1.1 0 1.1-1.4 1.1-2.4h2.4c0 3.1-1.2 4.1-3.5 4.1-4 .1-4-2.8-4-5.8zM24.6 27.1V15.5H27v9.6h3.6V27h-6z"/></g><g fill="#010101"><path d="M43.9 26.1v-1.3c3.2-4.5 4.2-5.4 4.2-7.3 0-.9-.4-1.5-1.4-1.5-1.1 0-1.3.9-1.3 1.8h-1.5c-.1-1.8.8-3 2.7-3 2 0 3 .9 3 2.9 0 2.5-1.2 3.3-4.1 7.1h4.4v1.3h-6zM51 27.7h-1.1l3.8-13.1h1.1L51 27.7zM55.3 20.6c0-3 0-5.8 3-5.8 1.7 0 2.8 1 2.8 2.7h-1.5c0-.8-.4-1.6-1.3-1.6-1.2 0-1.5 1.1-1.5 4 .4-.6 1-1 1.8-1 1.4 0 2.6.8 2.6 3.7 0 2-.8 3.7-3 3.7-2.9.1-2.9-2.8-2.9-5.7zm3.1 4.5c1.2 0 1.4-1.3 1.4-2.8 0-1-.2-2.2-1.5-2.2s-1.5 1.4-1.5 2.4c0 1.1.2 2.6 1.6 2.6z"/></g><path fill="#010101" d="M28.011 37.48c.04.08.107.146.08.24-.133.48-.013.973.027 1.44-.12.027-.08-.093-.16-.107.013.307-.054.614.106.908.12-.12-.053-.267.107-.427.107.773.214 1.507.32 2.228-.146.186-.36.066-.52.253-.16.307.12.574.24.867-.147.04-.147-.107-.227-.107-.106.054-.013 3.829.134 4.11.133-.361.027-.681.093-.961-.053-.2-.24-.32-.12-.574a.957.957 0 0 0 .254-.333c.12-.054.226-.04.346-.014.12.094.107.32.334.347-.173.494-.213.974-.093 1.454.266.107.547.013.773.067.134.053.147.173.187.24.214.12.84.08 1-.053.08.053.147.106.214.16.173-.067.187-.84.027-1.241.24-.48.013-1.08.467-1.494.453-.053.8.147 1.04.494v.827c.174.053.374.04.427.213.16.053.307 0 .44.093-.133.187-.267.36-.4.547-.013.134-.027.24.013.36.107.094.267 0 .36.08.147.094.094.254.147.36.227.067.44.027.68.04.227-.48.227-1.013.414-1.493.014.453-.12.88-.2 1.32.027.094.107.054.147.107-.147.347-.08.72-.067 1.094.294.013.294-.2.36-.374.787-.053 1.588.027 2.388-.08-.267-.28-.64.054-.907-.173-.027-.24.187-.227.307-.36.12.16.307.16.48.147.467-.027.947.066 1.414-.147.24-.107.547-.12.747.147h2.668c.134-.107.147-.267.147-.4l.04-3.349c0-.04-.013-.067-.013-.08-.067-.12-.16-.027-.24-.067-.04-.133.146-.133.16-.253-.2 0-.347.213-.6.173.173-.2.4-.24.6-.387-.214-.266-.627.04-.827-.266.093-.147.226.013.346-.107.08-.08-.013-.214.014-.334.253-.106.28-.106.894-.08.12.147.026.374.186.507-.28.307-.173.587.014.88-.107.08-.16.174-.16.334.013 1.294.013 2.588.013 3.922.494-.093.987.014 1.547-.08-.106-.547.187-1.067.014-1.587.187-.68-.107-1.441.427-2.041.253-.027.493 0 .733.173.227.16.334.347.32.627-.013.36-.013.72-.013 1.094.147-.04.134-.2.24-.227a.573.573 0 0 1 .334.013c.107.12.107.334.307.4-.107.48-.107.934-.08 1.401.4.08.76.294 1.2.16.094-.266.454-.36.52-.68.427-.027.828-.08 1.028.36.253.08.507.014.72.054.08.106.013.173-.027.24.147.08.307-.014.427.08.08.12.054.267.054.387-.04.146-.2.16-.254.266-.013.174-.053.36.053.56.387.027.76-.253 1.188-.04-.054-.24.106-.306.213-.373.054-.333-.053-.68.107-.974.107-.08.2-.066.307-.053.106.053.106.173.173.24.094-.053.107-.2.24-.187.147-.013.174.147.334.187.467-.053.947.054 1.454-.12.347-.12.694.12.974.307.907.16 1.8.067 2.654.12.107.12.094.2 0 .333-.867.094-1.787-.053-2.681.08-.093.24.013.374.16.494.174-.013.093-.24.24-.253 1.094.4 1.761.253 2.281-.027h.6c.227-.307.481-.334.841-.187.28.107.614.227.907.147.174-.013.187-.187.32-.213.134-.014.267-.014.414-.04.24.173.587.16.814.373.213-.053.427-.093.52-.293.173-.094.334-.054.494-.08.24.213.653.12.813.493.4-.067.787.08 1.188.147.306.653.226 1.827-.2 2.241h-1.294c-3.069 0-6.137-.013-9.192-.013h-5.27c-3.855 0-7.723 0-11.579.013-.133 0-.266-.027-.386.053h-.147c-.08-.013-.16-.04-.24-.04-1.641-.013-3.255-.013-4.896-.013-.093 0-.2-.013-.267.053h-.293c-.08-.013-.16-.04-.24-.04-1.601-.013-3.215-.013-4.816-.013-.094 0-.2-.013-.267.053H11.723c-.2-.08-.4-.04-.614-.053-.734-.013-1.467 0-2.201 0-.093-.12-.173-.24-.253-.334.04-.24.24-.266.36-.386.387-.84.427-1.735.56-2.642 1.574-.106 3.122.147 4.67.027.146-.053.092-.214.2-.334.146-.026.24-.146.333-.24.24-.04.48.014.72-.053.227-.44.627-.334 1-.32.174.24.427.4.588.587.253.04.52.146.72.08.333-.107.627-.014.934.066.106.027.013.174.16.2.32-.106.627.254 1 .08.054-.12.214-.226.107-.426-.894-.174-1.8-.014-2.681-.12-.08-.147-.08-.24.013-.334.12-.053.24-.027.36-.027.654-.013 1.294-.013 1.948-.013.2 0 .413-.027.52-.24.174-.013.334-.053.494-.147.266-.186.573-.307.88-.413.214-.08.427-.08.6.093.08.08.2.107.254.16.173.174.48-.08.587.24.133-.266.307-.24.493-.173.16.52.134 1.107-.066 1.347.253 0 .507.027.8-.026 0-.214.107-.4.267-.52v-.894c-.08-.08-.173-.147-.24-.2-.04-.307.053-.52.373-1.094.427.186.92-.107 1.348.2.04-.04.093-.08.146-.134.08.24.24.427.214.654.253.16.36-.08.52-.147.334-.04.4.334.64.427-.013-1.24.08-2.481.014-3.722-.054-.053-.134.013-.147-.08.174-.507.174-.507.107-.814-.12-.213-.387-.2-.56-.346.12-.56.253-1.094.386-1.668.08.08.04.173.134.187.187-.387.293-.774.2-1.268-.067.2-.107.36-.147.507-.08-.226.12-.48-.173-.68.333-.414.253-.907.28-1.36.2.08.32.08.44.08zM42.205 48.11c-.24-.186-2.108-.2-2.455-.013.854.094 1.655.027 2.455.013z"/></svg>