<svg version="1.2" baseProfile="tiny" xmlns="http://www.w3.org/2000/svg" viewBox="0 0 75 75" overflow="visible" xml:space="preserve"><path fill="#FDD700" d="M0 0h75v75H0z"/><path fill="#010101" d="M33.4 41.4H37c1.5 0 2.5.5 3.1 1.8.5 1 .5 3.3.5 3.6 0 2.5-.2 3.9-.7 4.7-.6 1-1.8 1.5-3.8 1.5h-2.7V41.4zm1.5 10.2h1.4c2 0 2.8-.8 2.8-3.5v-2.3c0-2.3-.7-3.2-2.3-3.2h-1.9v9zM58.3 11.6c1.4-.6 2.8-1.4 4.1-2.3h2.8v15.4h-3.3V12.8c-.6.5-1.9 1.3-3.6 2v-3.2z"/><g fill="none" stroke="#010101"><path stroke-width="4.511" d="M70.4 35.2h-61"/><path stroke-width="5.354" d="M40.5 13.3 16 45"/></g></svg>