<svg version="1.2" baseProfile="tiny" xmlns="http://www.w3.org/2000/svg" viewBox="0 0 75 75" overflow="visible" xml:space="preserve"><path fill="#FDD700" d="M0 0h75v75H0z"/><path fill="#010101" d="M38.9 44.5c0-.7 0-1.3-.3-1.7s-1-.5-1.3-.5c-1.2 0-1.7.7-1.7.9 0 .1-.3.4-.3 2.4v3.1c0 2.8.9 3.2 2.1 3.2.4 0 1.8-.2 1.8-2.4h1.5c.1 3.6-2.5 3.6-3.3 3.6-1.4 0-3.6-.1-3.6-4.6v-3.3c0-3.3 1.4-4.2 3.7-4.2 2.3 0 3.2 1.2 3 3.4h-1.6zM58.3 11.6c1.4-.6 2.8-1.4 4.1-2.3h2.8v15.4h-3.3V12.8c-.6.5-1.9 1.3-3.6 2v-3.2z"/><g fill="none" stroke="#010101"><path stroke-width="4.511" d="M70.4 35.2h-61"/><path stroke-width="5.354" d="M40.5 13.3 16 45"/></g></svg>