<svg version="1.2" baseProfile="tiny" xmlns="http://www.w3.org/2000/svg" viewBox="0 0 75 75" overflow="visible" xml:space="preserve"><path fill="#FDD700" d="M0 0h75v75H0z"/><path fill="#010101" d="M33.3 48.7v-3.8c0-2.3 1.2-3.8 3.6-3.8 2.4 0 3.6 1.5 3.6 3.8v3.8c0 3.2-1.2 4.5-3.6 4.5-2.4-.1-3.6-1.3-3.6-4.5zm5.8 0v-3.9c0-2.4-1.7-2.5-2.1-2.5s-2.1.1-2.1 2.5v3.9c0 2.5.7 3.2 2.1 3.2s2.1-.6 2.1-3.2zM58.3 11.6c1.4-.6 2.8-1.4 4.1-2.3h2.8v15.4h-3.3V12.8c-.6.5-1.9 1.3-3.6 2v-3.2z"/><g fill="none" stroke="#010101"><path stroke-width="4.511" d="M70.4 35.2h-61"/><path stroke-width="5.354" d="M40.5 13.3 16 45"/></g></svg>