<svg version="1.2" baseProfile="tiny" xmlns="http://www.w3.org/2000/svg" viewBox="0 0 75 75" overflow="visible" xml:space="preserve"><path fill="#FDD700" d="M0 0h75v75H0z"/><path fill="#010101" d="M35 49.3c0 1-.1 2.6 1.4 2.6 1.6 0 1.7-1.3 1.7-2.8v-7.8h1.5V50c0 .6 0 3.1-3.2 3.1-.6 0-1.9-.2-2.4-1.1-.5-.8-.5-1.8-.5-2.7H35zM58.3 11.6c1.4-.6 2.8-1.4 4.1-2.3h2.8v15.4h-3.3V12.8c-.6.5-1.9 1.3-3.6 2v-3.2z"/><g fill="none" stroke="#010101"><path stroke-width="4.511" d="M70.4 35.2h-61"/><path stroke-width="5.354" d="M40.5 13.3 16 45"/></g></svg>