<svg version="1.2" baseProfile="tiny" xmlns="http://www.w3.org/2000/svg" viewBox="0 0 75 75" overflow="visible" xml:space="preserve"><path fill="#FDD700" d="M0 0h75v75H0z"/><path fill="#010101" d="M40.7 41.4v1.3h-3V53h-1.5V42.7h-3v-1.3h7.5zM16.7 13.8c3.1.8-.8-1.9.5-3.3.7-1.3 2.8-1.3 3.5 0 .7 1.1-.5 2-.8 3 .6 1.1 3.8-.5 5.2 1.4-1.3 1.5-5.2-2.3-5 1.1 3.9.5.2.8-.5 1.7-.2 1.2-.5 2.5.1 3.6.7 1.4 3-.1 2.6-1.3.4-.9 1.4-.8 2.1-1.3.4.9 0 2.1-.7 2.9-10.2 5.5-13.1-6.2-8.5-1.3 1.6 3.8 4.2.3 3.2-2.5 0-1.3-3-.2-2-1.7.8.3 1.9-.5 1-1.2-1.6-1.5-3.3 1.5-5 .3 0-.5.6-1 1-.8m5.4-4.2c-2.4.4-.9 3.4 1.1 2.2.9-.8.2-2.5-1.1-2.2zM49 15.4c1.4-.6 2.8-1.4 4.1-2.3h2.8v15.4h-3.3V16.6c-.6.5-1.9 1.3-3.6 2v-3.2z"/><g fill="none" stroke="#010101"><path stroke-width="5" d="M65.332 35.565h-56.2"/><path stroke-width="5.354" d="m40.232 13.665-24.5 31.7"/></g></svg>