<svg version="1.2" baseProfile="tiny" xmlns="http://www.w3.org/2000/svg" viewBox="0 0 75 75" overflow="visible" xml:space="preserve"><path fill="#010101" d="M0 0h75v75H0z"/><path fill="#8C471F" d="M-.012 18.7h75v18.8h-75z"/><path fill="#FDD700" d="M59.688 19.7v17h-26.5v-17h26.5zm-25.1 2.3v12.5l10.4-6.3-10.4-6.2zm22.3-.9h-20.9l10.4 6.3 10.5-6.3zm-20.9 14.2h20.9l-10.4-6.3-10.5 6.3zm11.8-7.1 10.4 6.3V22l-10.4 6.2z"/><g fill="#FDD700"><path d="M17.688 46.2c0 3.6 0 7.2-3.7 7.2-2.1 0-3.5-1.4-3.4-3.6h1.8c0 1 .4 2.1 1.6 2.1 1.8 0 1.9-2 1.9-5.5-.4 1-1.3 1.3-2.4 1.3-1.1 0-3.2-.6-3.2-4.4 0-3.1 1.9-4.3 3.7-4.3 3.8 0 3.7 3.5 3.7 7.2zm-5.6-3c0 1.4.3 2.9 1.9 2.9 1.6 0 1.9-1.5 1.9-2.9 0-1.3-.3-2.9-1.9-2.9-1.6.1-1.9 1.7-1.9 2.9zM25.388 42.7c0-.8 0-1.6-.4-2.1s-1.2-.6-1.6-.6c-1.5 0-2.1.9-2.2 1.1-.1.2-.4.5-.4 3V48c0 3.5 1.2 4 2.6 4 .6 0 2.3-.2 2.3-3h1.9c.1 4.6-3.1 4.6-4.1 4.6-1.8 0-4.6-.1-4.6-5.7v-4.1c0-4.1 1.8-5.2 4.6-5.2 2.9 0 4 1.5 3.8 4.3h-1.9zM35.488 42.7c0-.8 0-1.6-.4-2.1s-1.2-.6-1.6-.6c-1.5 0-2.1.9-2.2 1.1-.1.2-.4.5-.4 3V48c0 3.5 1.2 4 2.6 4 .6 0 2.3-.2 2.3-3h1.9c.1 4.6-3.1 4.6-4.1 4.6-1.8 0-4.6-.1-4.6-5.7v-4.1c0-4.1 1.8-5.2 4.6-5.2 2.9 0 4 1.5 3.8 4.3h-1.9zM49.288 38.7v14.4h-2.5l-5.7-12.5v12.5h-1.6V38.7h2.6l5.6 12.4V38.7h1.6zM61.588 38.7v14.4h-2.5l-5.7-12.5v12.5h-1.6V38.7h2.6l5.6 12.4V38.7h1.6z"/></g><g fill="#FDD700"><path d="M43.288 9.5h1v7.2h-1V9.5zM46.088 9.5h1v7.2h-1V9.5zM48.788 9.5h1v7.2h-1V9.5z"/></g><g fill="#FDD700"><path d="M12.088 35.4c-.9-2.1-1.9-4.8-1.9-7.1 0-1.3.3-2.5.7-3.7.4-1.4.9-2.5 1.1-3.2h1.1c-.3.8-.6 1.9-.9 3.4-.3 1.5-.4 2.5-.4 3.5 0 2.3.6 4.1 1.5 7.2h-1.2zM15.188 32l2.9-2.8c.6-.6 1.2-1.2 1.7-1.9.6-.9.8-1.4.8-2 0-.5-.2-1.8-1.8-1.8-1.8 0-1.8 1.5-1.8 1.9h-1.7c0-.5.1-1.6 1-2.4.8-.7 1.7-.8 2.4-.8 1.7 0 3.4.9 3.4 3.2 0 .7 0 1.2-1.2 2.8-.3.4-1.7 1.9-2 2.2l-1.9 1.8h5.3v1.3h-7V32zM25.488 21.4c.9 2.1 1.9 4.8 1.9 7.1 0 1.3-.3 2.5-.7 3.7-.4 1.4-.9 2.5-1.1 3.2h-1.1c.3-.8.6-1.9.9-3.4.3-1.5.4-2.5.4-3.5 0-2.3-.6-4.1-1.5-7.1h1.2z"/></g><path fill="#FDD700" d="M36.288 61.8h2.6v.9h-2.6v-.9z"/></svg>