<svg version="1.2" baseProfile="tiny" xmlns="http://www.w3.org/2000/svg" viewBox="0 0 75 75" overflow="visible" xml:space="preserve"><path fill="#D9B977" d="M0 0h75v75H0z"/><g fill="#010101"><path d="M17.025 18.2V9.5h4.3v1h-3.2v2.8h3v1h-3v4h-1.1zM23.725 18.2h-1.1V9.5h1.1v8.7zM29.925 11.8c0-1-.4-1.6-1.5-1.6-.3 0-1.6.1-1.6 1.9V15c0 1.9.6 2.4 1.6 2.4.8 0 1.3-.2 1.5-.4v-2.6h-1.6v-1h2.7v4.2c-.7.4-1.5.6-2.7.6-1.8 0-2.7-.9-2.7-3.3v-2.8c0-1.7.9-2.8 2.7-2.8 1.9 0 2.8.7 2.7 2.5h-1.1zM33.225 18.2V9.5h1.1v3.7h3V9.5h1.1v8.7h-1.1v-4h-3v4h-1.1zM45.325 9.5v1h-2.3v7.7h-1.1v-7.7h-2.3v-1h5.7zM46.425 18.2V9.5h4.5v1h-3.4v2.8h3.1v1h-3.1v3h3.4v1h-4.5zM53.525 14.2v4h-1.1V9.5h3c1.5 0 2.1 1.1 2.1 2.2 0 1-.6 1.8-1.6 2 1 .2 1.4.5 1.4 2.2 0 .4.1 1.7.3 2.3h-1.2c-.3-.6-.2-1.7-.3-2.9-.1-1.1-.9-1.1-1.3-1.1h-1.3zm0-1h1.7c.8 0 1.2-.7 1.2-1.4 0-.6-.3-1.3-1.2-1.3h-1.7v2.7z"/></g><path fill="#010101" d="M36.376 21.55c.18-.204.483-.245.638-.474.123 0 .246 0 .369.008.09.147.286.14.417.237.663.483.94 1.285 1.186 2.03.188.72.32 1.456.352 2.2.106.115.221.238.221.402.025.335.262.621.23.965-.009 1.383 0 2.774-.009 4.157.016.172-.205.188-.32.253 0 .189 0 .377.009.565.27.155.597.13.9.147 1.04.107 2.078.14 3.11.221 1.628.131 3.248.221 4.876.36 1.506.074 3.011.23 4.517.303 1.514.123 3.035.213 4.557.327.344.05.688 0 1.031.05.835.024 1.67.27 2.349.76.532.442.957 1.064.957 1.776-.025.924-.548 1.857-1.391 2.275-.393.351-.876.597-1.366.793-.598.205-1.236.262-1.85.41-.147.032-.229.196-.384.204-.418.074-.835.27-1.252.106-2.406.483-4.811.925-7.209 1.424-1.44.27-2.864.597-4.304.86-.875.155-1.743.36-2.61.531-.024.016-.082.057-.114.074-.41 0-.802.139-1.211.212-.303.05-.639.172-.77.475-.032.417.025.843-.049 1.26 0 1.473-.18 2.938-.22 4.41-.123 1.31-.213 2.619-.352 3.928a2.59 2.59 0 0 0 .212-.05 2.99 2.99 0 0 0-.229.115c-.033.59-.123 1.179-.18 1.776-.106 1.293-.31 2.577-.425 3.87-.017.066-.041.188-.058.254.27.09.557.147.843.18 1.424.262 2.84.499 4.263.745.565.073 1.187.294 1.432.85.221.45.27.974.156 1.457-.14.45-.459.867-.892 1.064-.475.196-.999.106-1.498.212a.93.93 0 0 0-.188.123c-.31 0-.622.123-.933.041-.376-.09-.769.016-1.145.04-.377.025-.745.075-1.113.107a.62.62 0 0 1-.548-.229c-.278-.343-.524-.72-.81-1.063-.115.425 0 .875-.09 1.309.008.646-.074 1.292-.05 1.947-.04.016-.122.041-.163.05-.065-.23-.05-.459-.082-.688-.04-.704-.18-1.4-.196-2.111-.008-.131-.041-.262-.066-.393-.229.278-.425.581-.63.876-.155.22-.458.286-.712.261-.4-.032-.801-.081-1.202-.139-.377.017-.761-.13-1.13-.008-.376 0-.785-.008-1.12-.196-.5-.082-1.04-.017-1.506-.262a1.972 1.972 0 0 1-.81-1.817c.106-.36.188-.769.507-1.006.393-.368.966-.393 1.465-.491 1.563-.303 3.15-.54 4.705-.867-.033-.63-.172-1.252-.205-1.89-.065-.426-.098-.86-.139-1.293a14.605 14.605 0 0 1-.13-1.187c-.025-.024-.066-.073-.09-.098.024-.098.073-.188.048-.294-.229-1.915-.335-3.838-.499-5.76.016-1.146-.172-2.284-.188-3.421-.033-.516-.082-1.031-.074-1.547-.123-.155-.204-.368-.393-.45-.237-.114-.507-.122-.76-.18-2.316-.531-4.656-.932-6.972-1.423a205.733 205.733 0 0 0-4.885-.958 62.838 62.838 0 0 0-3.232-.662 1.146 1.146 0 0 0-.13.081c-.377-.024-.737-.114-1.105-.196-.164-.025-.254-.213-.418-.23-.76-.163-1.554-.245-2.274-.564-.843-.376-1.67-.94-2.087-1.792-.262-.474-.31-1.039-.237-1.57a2.36 2.36 0 0 1 1.293-1.473c.515-.23 1.072-.385 1.62-.508.033-.687-.05-1.39.049-2.078.082.016.204.033.172.147v1.866c5.801-.385 11.61-.802 17.412-1.187.213.009.417-.04.63-.073-.172-.483-.303-.982-.254-1.506.352-.065.77.066 1.08-.082.025-1.243-.008-2.487.017-3.73.139-.402.147-.835.417-1.18.106-.99.213-1.996.59-2.928.228-.328.285-.778.63-1.04z"/></svg>