<svg version="1.2" baseProfile="tiny" xmlns="http://www.w3.org/2000/svg" viewBox="0 0 75 75" overflow="visible" xml:space="preserve"><path fill="#D9B977" d="M0 0h75v75H0z"/><g fill="#010101"><path d="M17.025 18.2V9.5h4.3v1h-3.2v2.8h3v1h-3v4h-1.1zM23.725 18.2h-1.1V9.5h1.1v8.7zM29.925 11.8c0-1-.4-1.6-1.5-1.6-.3 0-1.6.1-1.6 1.9V15c0 1.9.6 2.4 1.6 2.4.8 0 1.3-.2 1.5-.4v-2.6h-1.6v-1h2.7v4.2c-.7.4-1.5.6-2.7.6-1.8 0-2.7-.9-2.7-3.3v-2.8c0-1.7.9-2.8 2.7-2.8 1.9 0 2.8.7 2.7 2.5h-1.1zM33.225 18.2V9.5h1.1v3.7h3V9.5h1.1v8.7h-1.1v-4h-3v4h-1.1zM45.325 9.5v1h-2.3v7.7h-1.1v-7.7h-2.3v-1h5.7zM46.425 18.2V9.5h4.5v1h-3.4v2.8h3.1v1h-3.1v3h3.4v1h-4.5zM53.525 14.2v4h-1.1V9.5h3c1.5 0 2.1 1.1 2.1 2.2 0 1-.6 1.8-1.6 2 1 .2 1.4.5 1.4 2.2 0 .4.1 1.7.3 2.3h-1.2c-.3-.6-.2-1.7-.3-2.9-.1-1.1-.9-1.1-1.3-1.1h-1.3zm0-1h1.7c.8 0 1.2-.7 1.2-1.4 0-.6-.3-1.3-1.2-1.3h-1.7v2.7z"/></g><path fill="#010101" d="M36.376 21.55c.18-.204.483-.245.638-.474.123 0 .245 0 .368.008.09.147.287.14.417.237.663.483.941 1.285 1.187 2.03.188.72.319 1.456.352 2.2.106.115.22.238.22.402.025.335.263.621.23.965-.008 1.383 0 2.774-.008 4.157.016.172-.205.188-.32.253 0 .189 0 .377.009.565.27.155.597.13.9.147 1.039.107 2.078.14 3.109.221 1.628.131 3.248.221 4.877.36 1.505.074 3.01.23 4.516.303 1.514.123 3.036.213 4.558.327.344.05.687 0 1.031.05.835.024 1.67.27 2.348.76.532.442.958 1.064.958 1.776-.025.924-.549 1.857-1.391 2.275-.393.351-.876.597-1.367.793-.597.205-1.235.262-1.849.41-.147.032-.23.196-.385.204-.417.074-.834.27-1.252.106-2.405.483-4.81.925-7.208 1.424-1.44.27-2.864.597-4.304.86-.876.155-1.743.36-2.61.531-.025.016-.082.057-.115.074-.409 0-.802.139-1.21.212-.304.05-.639.172-.77.475-.033.417.025.843-.05 1.26 0 1.473-.18 2.938-.22 4.41-.123 1.31-.213 2.619-.352 3.928a2.59 2.59 0 0 0 .213-.05 2.99 2.99 0 0 0-.23.115c-.032.59-.122 1.179-.18 1.776-.106 1.293-.31 2.577-.425 3.87-.016.066-.04.188-.057.254.27.09.556.147.843.18 1.424.262 2.84.499 4.263.745.564.073 1.186.294 1.432.85.22.45.27.974.155 1.457-.139.45-.458.867-.892 1.064-.474.196-.998.106-1.497.212a.93.93 0 0 0-.188.123c-.311 0-.622.123-.933.041-.376-.09-.77.016-1.146.04s-.744.075-1.112.107a.62.62 0 0 1-.549-.229c-.278-.343-.523-.72-.81-1.063-.114.425 0 .875-.09 1.309.009.646-.073 1.292-.049 1.947-.04.016-.122.041-.163.05-.066-.23-.05-.459-.082-.688-.041-.704-.18-1.4-.197-2.111-.008-.131-.04-.262-.065-.393-.23.278-.426.581-.63.876-.156.22-.458.286-.712.261-.4-.032-.802-.081-1.203-.139-.376.017-.76-.13-1.129-.008-.376 0-.785-.008-1.12-.196-.5-.082-1.04-.017-1.506-.262a1.972 1.972 0 0 1-.81-1.817c.106-.36.188-.769.507-1.006.393-.368.965-.393 1.464-.491 1.563-.303 3.15-.54 4.705-.867-.032-.63-.172-1.252-.204-1.89-.066-.426-.098-.86-.14-1.293a14.605 14.605 0 0 1-.13-1.187c-.025-.024-.066-.073-.09-.098.024-.098.073-.188.049-.294-.23-1.915-.336-3.838-.5-5.76.017-1.146-.171-2.284-.188-3.421-.032-.516-.081-1.031-.073-1.547-.123-.155-.205-.368-.393-.45-.237-.114-.507-.122-.76-.18-2.316-.531-4.657-.932-6.972-1.423a205.733 205.733 0 0 0-4.885-.958 62.838 62.838 0 0 0-3.232-.662 1.146 1.146 0 0 0-.131.081c-.376-.024-.737-.114-1.105-.196-.163-.025-.253-.213-.417-.23-.761-.163-1.555-.245-2.275-.564-.842-.376-1.669-.94-2.086-1.792-.262-.474-.311-1.039-.238-1.57a2.36 2.36 0 0 1 1.293-1.473c.516-.23 1.072-.385 1.62-.508.033-.687-.049-1.39.05-2.078.081.016.204.033.171.147v1.866c5.802-.385 11.611-.802 17.412-1.187.213.009.418-.04.63-.073-.171-.483-.302-.982-.253-1.506.352-.065.769.066 1.08-.082.024-1.243-.008-2.487.016-3.73.14-.402.148-.835.418-1.18.106-.99.212-1.996.589-2.928.229-.328.286-.778.63-1.04z"/></svg>