<svg version="1.2" baseProfile="tiny" xmlns="http://www.w3.org/2000/svg" viewBox="0 0 75 75" overflow="visible" xml:space="preserve"><path fill="#D9B977" d="M0 0h75v75H0z"/><path fill="#010101" d="M37.65 62.479c-.376 1.033-.094 2.16-.376 3.192-.187-1.033 0-2.16-.281-3.286-.282.282-.188.563-.188.845s-.188.47-.47.47h-7.51c-.282 0-.47-.094-.47-.47v-3.005c0-.281.094-.281.375-.281h7.605c.282 0 .376-.094.376-.376-.376-2.629-.47-5.352-.657-8.074 0-.188 0-.376-.188-.564-.094-.094-.282-.281.094-.281.094 0 .094-.094 0-.188 0-.094-.094-.094-.094-.094-.939.282-1.784-.376-2.629-.563-.188 0-.188-.188-.188-.376v-.751c-.094.094-.094.094-.094.188-.093 1.033-.093.939-1.032.75-2.723-.75-5.446-1.408-8.169-2.159-1.408-.375-2.723-1.126-4.131-1.596-1.596-.657-3.098-1.314-4.695-1.971-.281-.094-.657-.188-.469-.658.094-.094-.094-.187-.188-.281a2.32 2.32 0 0 1-.375-.845c-.188-.94.187-1.503 1.126-1.597.751-.093 1.596-.093 2.348-.093.845 0 .845 0 .845-.845v-2.16h.187v2.347c0 .564 0 .564.658.564 1.032-.094 1.971-.094 3.004-.188 2.817-.188 5.634-.282 8.45-.47h.94c.375 0 .75.094.656-.469.282 0 .188.47.47.282.188-.094.094-.282.094-.47s0-.375.094-.563c.094-.282.281-.376.563-.376.282 0 .47.188.47.47v.094c.187.939.187.939 1.126.939h.376c.657 0 .563 0 .563-.658.094-1.314 0-2.629 0-3.943 0-.657.188-1.22.282-1.784.094-.282 0-.376-.282-.376-.845 0-1.69 0-2.441-.093-.188 0-.376 0-.563-.188.093-.188.281-.188.469-.188.845 0 1.69-.094 2.535 0 .376.094.563-.094.657-.47.094-.281.188-.563.282-.75.375-.658.751-.658 1.127 0 .093.281.281.469.281.75.094.47.282.564.658.47.845-.094 1.69 0 2.535 0 .187 0 .281 0 .469.188h-.563c-.845.094-1.69.094-2.535.094-.188 0-.376 0-.282.281.563 1.596.282 3.286.282 4.883 0 .47.187.845 0 1.314-.094.188.094.188.281.188.47 0 1.033.094 1.503.094.187 0 .281-.094.375-.282 0-.282 0-.47.094-.751.094-.282.282-.376.47-.376.281 0 .469.188.469.376s0 .376.094.563c0 .188-.094.376.188.47.281.094.093-.282.375-.282.094.376.376.47.751.47 2.723.187 5.352.281 8.075.469 1.22.094 2.441.094 3.662.094 1.126 0 1.126 0 1.126-1.127v-1.878c.282.282.188.376.188.564v1.971c0 .658 0 .658.657.658.751 0 1.503.094 2.254.094h.094c.563 0 1.032.093 1.314.657.282.563.094 1.033-.188 1.596-.094.188-.375.376-.188.751.094.188-.187.282-.469.376-2.253.939-4.6 1.877-6.854 2.91-2.253.94-4.6 1.409-6.948 2.066-1.127.375-2.347.657-3.568.939-.75.188-.75.188-.75-.564v-.375c-.189 0-.095.094-.095.188 0 1.032 0 .845-.845 1.126a4.577 4.577 0 0 0-1.033.376c-.281.094-.563.188-.845.094-.093 0-.187-.094-.281 0-.094.188 0 .188.188.188.093 0 .093.187 0 .281-.282.282-.282.564-.282.94-.094 2.065-.188 4.224-.376 6.29-.094.47-.094.939-.188 1.408-.093.376.094.47.47.47h7.511c.282 0 .376.093.376.281v3.005c0 .281-.094.47-.47.47h-7.51c-.377 0-.47-.189-.47-.47-.188-.47-.094-.751-.282-.94z"/><g fill="#010101"><path d="M26.125 9.3h2.7c1.1 0 1.9.4 2.3 1.3.3.7.4 2.5.4 2.7 0 1.8-.2 2.9-.5 3.5-.5.7-1.3 1.1-2.9 1.1h-2V9.3zm1.1 7.7h1c1.5 0 2.1-.6 2.1-2.6v-1.8c0-1.8-.5-2.4-1.7-2.4h-1.5V17zM34.725 17.9h-1.1V9.2h1.1v8.7zM39.825 17.9h-1.3l-2.5-8.7h1.2l2 7.6 2-7.6h1.1l-2.5 8.7zM43.525 17.9V9.2h4.5v1h-3.4V13h3.1v1h-3.1v3h3.4v1h-4.5z"/></g><g fill="#010101"><path d="M18.925 29.1v-8.7h2.8c1.2 0 1.6.4 1.9.9.3.5.3 1 .3 1.2 0 1.1-.4 1.8-1.5 2.1v.1c1.2.1 1.8.9 1.8 2.1 0 2.2-1.6 2.4-2.6 2.4h-2.7zm1.1-5h1.6c.9 0 1.3-.5 1.3-1.4 0-.7-.4-1.3-1.3-1.3h-1.6v2.7zm0 4.1h1.6c1.2 0 1.6-.8 1.6-1.5 0-1.4-.9-1.6-2-1.6h-1.2v3.1zM25.925 26.2c0-1.8.2-3.2 2.3-3.2s2.3 1.5 2.3 3.2c0 2.7-1 3.1-2.3 3.1s-2.3-.4-2.3-3.1zm3.5-.4c0-1.7-.5-2-1.3-2s-1.3.4-1.3 2c0 2 .3 2.7 1.3 2.7s1.3-.8 1.3-2.7zM35.025 29.1v-4.2c0-.6-.2-1.2-1-1.2-.3 0-.7.2-.9.4-.2.3-.2.7-.2.9v4.1h-1v-4.8c0-.4 0-.8-.1-1.3h1v.8c.3-.6.8-.9 1.5-.9.6 0 1.2.2 1.4.8.3-.6.9-.8 1.4-.8.6 0 1.7.1 1.7 1.6v4.6h-1v-4.2c0-.6-.2-1.2-1-1.2-.4 0-.5 0-.7.2-.3.2-.3.8-.3 1.1v4.1h-.8zM41.725 29.1h-1v-8.7h1v3.2c.3-.5.8-.7 1.3-.7 2 0 2 1.7 2 3.2 0 2.7-1 3-2 3-.6 0-1.1-.3-1.4-.8v.8zm1.2-.6c1.2 0 1.2-1.3 1.2-2.2 0-1.6-.1-2.5-1.2-2.5-1.1 0-1.1 1.3-1.1 2.1-.1.9-.2 2.6 1.1 2.6zM47.625 26.4c0 1.7.5 2 1.2 2s1-.5 1.1-1.2h1.1c0 1.3-.8 2-2.1 2s-2.3-.4-2.3-3.1c0-1.8.2-3.2 2.3-3.2 1.7 0 2.2.9 2.2 3v.5h-3.5zm2.4-.7c0-1.8-.5-2-1.2-2-.6 0-1.1.3-1.2 2h2.4zM53.725 24c.4-.9.9-1 1.9-1v1h-.6c-1.1 0-1.4.8-1.4 1.6v3.6h-1v-6.1h1v.9z"/></g></svg>