<svg version="1.2" baseProfile="tiny" xmlns="http://www.w3.org/2000/svg" viewBox="0 0 75 75" overflow="visible" xml:space="preserve"><path fill="#D9B977" d="M0 0h75v75H0z"/><g fill="#010101"><path d="M15.9 18.1V9.4h2.8c1.2 0 1.6.4 1.9.9.3.5.3 1 .3 1.2 0 1.1-.4 1.8-1.5 2.1v.1c1.2.1 1.8.9 1.8 2.1 0 2.2-1.6 2.4-2.6 2.4h-2.7zm1.1-5h1.6c.9 0 1.3-.5 1.3-1.4 0-.7-.4-1.3-1.3-1.3H17v2.7zm0 4h1.6c1.2 0 1.6-.8 1.6-1.5 0-1.4-.9-1.6-2-1.6H17v3.1zM23.1 14.9v-2.8c0-1.7.9-2.8 2.7-2.8 1.8 0 2.7 1.1 2.7 2.8v2.8c0 2.4-.9 3.3-2.7 3.3-1.8 0-2.7-.9-2.7-3.3zm4.3.1v-3c0-1.8-1.2-1.9-1.6-1.9s-1.6.1-1.6 1.9v2.9c0 1.9.6 2.4 1.6 2.4s1.6-.5 1.6-2.3zM31.5 18.1h-1V9.4h1.8l2.2 7.3 2.2-7.3h1.8v8.7h-1.1v-7.7L35 18.1h-1l-2.4-7.7v7.7zM40.6 18.1V9.4h2.8c1.2 0 1.6.4 1.9.9.3.5.3 1 .3 1.2 0 1.1-.4 1.8-1.5 2.1v.1c1.2.1 1.8.9 1.8 2.1 0 2.2-1.6 2.4-2.6 2.4h-2.7zm1.1-5h1.6c.9 0 1.3-.5 1.3-1.4 0-.7-.4-1.3-1.3-1.3h-1.6v2.7zm0 4h1.6c1.2 0 1.6-.8 1.6-1.5 0-1.4-.9-1.6-2-1.6h-1.2v3.1zM47.8 18.1V9.4h4.5v1h-3.4v2.8H52v1h-3.1v3h3.4v1h-4.5zM54.9 14.1v4h-1.1V9.4h3c1.5 0 2.1 1.1 2.1 2.2 0 1-.6 1.8-1.6 2 1 .2 1.4.5 1.4 2.2 0 .4.1 1.7.3 2.3h-1.2c-.3-.6-.2-1.7-.3-2.9-.1-1.1-.9-1.1-1.3-1.1h-1.3zm0-1h1.7c.8 0 1.2-.7 1.2-1.4 0-.6-.3-1.3-1.2-1.3h-1.7v2.7z"/></g><path fill="#010101" d="M35.86 27.202c.21-.524.734-.734 1.153-1.049.315.105.525.42.84.63.314.42.524.839.629 1.363.42 1.783.524 3.566.524 5.35l.315.314h3.146c.105 0 .105-.105 0-.21.105-.42.105-.839.105-1.363 0-.63.105-1.259.105-1.993-.105-.105-.105-.315-.105-.42.105-.42 0-.944.21-1.363h.63c0-.42.209-.944.419-1.259.21-.21.524-.315.734-.105.42.42.524.944.63 1.364.209 0 .524-.105.629.105.21.314 0 .734.104 1.048 0 .21.105.525 0 .735.105.944.105 1.888.21 2.832.105.21 0 .42 0 .524 0 .105.105.21.105.315 1.364.21 2.727.42 3.986.629.839.105 1.573.21 2.412.42 3.357.734 6.713 1.468 10.174 2.097.42.105.84.21 1.154.525.315.21.315.734.42 1.049 0 .524-.315 1.048-.63 1.363-.315.42-.734.84-1.258.84l-9.126 1.573c-.42.104-.839.21-1.363.21 0 .104-.105.104-.105.21h-.315c.105 0 .21 0 .21-.106v-.105c-2.622.21-5.35.315-7.971.525-1.469.105-2.937.21-4.51.314v-.104c-.21.21-.42.524-.42.839v5.663c-.105.735 0 1.469-.105 2.203-.105 1.573-.21 3.147-.21 4.72 2.832.524 5.664 1.154 8.496 1.783.21 0 .315.21.42.21.105.42.21.839.105 1.258-.105.315-.105.63-.315.84-.315.104-.734.104-1.049.104-2.307.21-4.72.525-7.027.735-.42.105-.734 0-1.154.105-.21 1.153-.315 2.307-.524 3.46l-.105.106c0-.315-.105-.63-.21-.944-.21-.84-.315-1.783-.525-2.622h-.944c-2.727-.21-5.454-.42-8.076-.63-.314 0-.42-.314-.524-.524-.21-.42-.105-1.05.105-1.469.105-.314.42-.42.734-.42 2.727-.629 5.35-1.258 8.076-1.992-.42-4.09-.734-8.181-.734-12.272-.315 0-.63-.105-.84 0-.104 0 0-.105 0-.105h.84c0-.314-.105-.524-.315-.734-.734-.105-1.363 0-2.097-.105-.735 0-1.364 0-2.098-.105-2.413-.104-4.93-.314-7.342-.42-.84-.104-1.783-.104-2.622-.209-3.147-.524-6.398-1.049-9.545-1.678-.315-.105-.734-.105-1.049-.42-.42-.42-.839-.839-.944-1.363-.21-.42-.105-.84.105-1.259.21-.42.84-.63 1.259-.734 3.566-.734 7.027-1.468 10.593-2.203.42-.105.944-.105 1.364-.21l4.405-.629c.105 0 .21 0 .315-.105.104-.21.21-.42.104-.629.105-.42.105-.839.105-1.154 0-.629.105-1.258.105-1.888 0-.105-.105-.21-.105-.42 0-.314.105-.524.105-.838 0-.21 0-.525.21-.734h.63c.104-.42.21-.944.524-1.364.21-.21.524-.21.734 0 .315.42.42.84.524 1.364h.63c.105.21.21.524.105.839 0 .314.104.524 0 .839.104 0 .104.105.104.105 0 .839.105 1.783.105 2.622 0 .21 0 .42.105.524 0 0-.105.105-.105.21h1.154c.63-.105 1.259 0 1.783 0 .315 0 .734.105.944-.21.21-.314.105-.63.105-.944 0-1.154 0-2.307.105-3.356.21-.734.21-1.469.524-2.098z"/></svg>