<svg version="1.2" baseProfile="tiny" xmlns="http://www.w3.org/2000/svg" viewBox="0 0 75 75" overflow="visible" xml:space="preserve"><path fill="#D9B977" d="M0 0h75v75H0z"/><g fill="#010101"><path d="M20.6 18.3V9.6h4.3v1h-3.2v2.8h3v1h-3v4h-1.1zM26 18.3V9.6h1.1v7.7h3.2v1H26zM34.4 9.6h1.1L33.1 15v3.3H32V15l-2.3-5.4h1.2l1.7 4.2 1.8-4.2zM37.8 18.3h-1.1V9.6h1.1v8.7zM45.9 9.6v8.7h-1.5L41 10.8v7.5h-1V9.6h1.6L45 17V9.6h.9zM52.1 11.9c0-1-.4-1.6-1.5-1.6-.3 0-1.6.1-1.6 1.9v2.9c0 1.9.6 2.4 1.6 2.4.8 0 1.3-.2 1.5-.4v-2.6h-1.6v-1h2.7v4.2c-.7.4-1.5.6-2.7.6-1.8 0-2.7-.9-2.7-3.3v-2.8c0-1.7.9-2.8 2.7-2.8 1.9 0 2.8.7 2.7 2.5h-1.1z"/></g><g fill="#010101"><path d="M24.5 29.5v-8.7h2.8c1.2 0 1.6.4 1.9.9.3.5.3 1 .3 1.2 0 1.1-.4 1.8-1.5 2.1v.1c1.2.1 1.8.9 1.8 2.1 0 2.2-1.6 2.4-2.6 2.4h-2.7zm1.1-5h1.6c.9 0 1.3-.5 1.3-1.4 0-.7-.4-1.3-1.3-1.3h-1.6v2.7zm0 4h1.6c1.2 0 1.6-.8 1.6-1.5 0-1.4-.9-1.6-2-1.6h-1.2v3.1zM31.7 26.3v-2.8c0-1.7.9-2.8 2.7-2.8s2.7 1.1 2.7 2.8v2.8c0 2.4-.9 3.3-2.7 3.3s-2.7-.9-2.7-3.3zm4.3.1v-2.9c0-1.8-1.2-1.9-1.6-1.9-.3 0-1.6.1-1.6 1.9v2.9c0 1.9.6 2.4 1.6 2.4 1.1-.1 1.6-.5 1.6-2.4zM41 20.8h1.4l2.8 8.7H44l-.6-2.1h-3.3l-.6 2.1h-1.1l2.6-8.7zm.7 1-1.4 4.6h2.8l-1.4-4.6zM50.4 20.8v1h-2.3v7.7H47v-7.7h-2.3v-1h5.7z"/></g><path fill="#010101" d="M37.608 64.31c-.03.384-.06.752-.081 1.113-.008.059-.008.125-.03.184-.014.067-.051.118-.132.11-.067-.007-.096-.058-.11-.11a.649.649 0 0 1-.016-.125c-.029-.295-.066-.582-.073-.877 0-.08 0-.17-.044-.265-.03.074-.052.133-.081.184-.074.177-.089.192-.28.177-.472-.044-.943-.103-1.415-.147-.214-.022-.435-.03-.648-.052-.553-.051-1.098-.118-1.65-.155-.398-.029-.789-.103-1.187-.103-.331 0-.648-.08-.98-.095-.235-.015-.383-.2-.39-.443a7.861 7.861 0 0 1 0-.589c.007-.236.125-.346.36-.376.332-.037.355-.059.347-.405 0-.125-.007-.25.06-.368.11-.2.301-.265.5-.302.199-.037.398-.06.604-.089.626-.096 1.26-.191 1.886-.28.236-.037.472-.066.708-.103.287-.044.574-.08.825-.265.258-.177.53-.332.803-.501.103-.066.14-.147.125-.265-.037-.354-.066-.708-.103-1.069l-.155-1.628c-.051-.508-.11-1.017-.162-1.525a72.837 72.837 0 0 1-.125-1.319l-.155-1.628c-.037-.442-.074-.877-.103-1.319-.037-.486-.081-.972-.11-1.466-.037-.574-.067-1.142-.096-1.716a2.513 2.513 0 0 0-.14-.7c-.052-.14-.14-.214-.295-.229-.155-.022-.31-.007-.464-.007-.34 0-.685 0-1.024-.007-.11 0-.155.044-.207.14-.088.176-.11.375-.176.56-.03.08-.052.162-.103.228-.104.14-.2.155-.303.015a1.249 1.249 0 0 1-.243-.553v-.066c-.037-.265-.103-.324-.375-.332-.406 0-.81.008-1.216-.007-1.437-.066-2.873.007-4.303-.044-.95-.037-1.9-.015-2.85-.037-.568-.015-1.135-.008-1.703-.008-.626 0-1.26-.007-1.886 0-.457.008-.906 0-1.363.008-.611 0-1.23 0-1.842.007-.22 0-.427-.066-.64-.096-.067-.007-.119-.051-.163-.095a1.415 1.415 0 0 1-.36-.538c-.192-.53-.362-1.068-.37-1.65-.007-.303.067-.575.14-.855a.82.82 0 0 1 .671-.619c.752-.155 1.503-.324 2.255-.464.552-.103 1.105-.229 1.665-.346 1.15-.236 2.298-.465 3.448-.7.714-.148 1.422-.302 2.136-.442.803-.162 1.606-.317 2.402-.48l2.196-.441c.53-.103 1.053-.214 1.584-.317.051-.008.095-.03.14-.037.095-.015.147-.074.154-.17l.067-.604c.051-.508.103-1.016.235-1.51.045-.162.06-.331.11-.486.023-.074.052-.148.09-.214.095-.162.272-.162.368-.007.022.044.044.088.059.132.176.457.258.929.294 1.408.03.339.06.685.096 1.024 0 .037.015.066.015.103.007.118.074.155.184.155h1.319c.191 0 .206-.015.206-.207.007-.31.007-.619.022-.92.037-.782.06-1.563.118-2.344a32.83 32.83 0 0 1 .42-3.285c.17-.943.398-1.872.73-2.778.029-.081.066-.155.088-.236.096-.265.28-.36.53-.375.266-.008.428.125.53.397.207.538.354 1.09.487 1.65.228.988.398 1.99.508 3 .081.765.133 1.532.177 2.298.044.847.074 1.694.074 2.542 0 .287.044.324.339.287.243-.037.486-.015.73 0 .161.007.316-.037.478-.022.074.007.103-.052.118-.125.022-.185.051-.376.074-.56.044-.413.125-.818.213-1.216a7.55 7.55 0 0 1 .2-.663.53.53 0 0 1 .11-.199c.11-.118.228-.103.302.044a.264.264 0 0 1 .03.081c.11.413.25.81.309 1.238.066.457.14.914.176 1.37.015.17.015.17.17.207.567.14 1.142.258 1.717.383.7.155 1.407.317 2.107.471.611.133 1.23.25 1.842.398.486.118.98.221 1.473.34.494.11.995.22 1.496.33.869.2 1.746.376 2.615.59.943.228 1.894.427 2.844.626.508.103 1.01.236 1.51.354a.925.925 0 0 1 .634.5c.132.251.206.517.31.782.036.096-.008.191-.015.295-.015.478-.111.943-.288 1.392a1.961 1.961 0 0 1-.22.427c-.222.31-.546.428-.914.442-.39.015-.781 0-1.172-.007-.28-.007-.56.015-.84.007-.228-.007-.464-.044-.685-.022-.243.03-.486.008-.73 0-.338-.007-.67-.007-1.009-.014-.847-.008-1.694.007-2.541-.015-.25-.008-.501-.015-.752-.015-.928-.015-1.856-.007-2.792-.015-.413 0-.825-.007-1.238-.022-.31-.007-.626.008-.936 0-.832-.022-1.665-.014-2.497-.014-.273 0-.376.073-.472.338-.059.155-.11.317-.17.472-.036.096-.088.184-.205.184-.11 0-.177-.08-.221-.17a2.014 2.014 0 0 1-.185-.574c-.036-.243-.059-.25-.302-.25-.456 0-.913.007-1.363 0a.375.375 0 0 0-.294.125.886.886 0 0 0-.258.515c-.03.207-.06.413-.067.627-.036.633-.08 1.267-.11 1.908a90.183 90.183 0 0 1-.14 1.99c-.044.589-.088 1.185-.155 1.775-.059.523-.096 1.046-.14 1.569-.066.81-.14 1.613-.206 2.424-.044.493-.081.987-.133 1.48-.022.2.022.34.214.45.302.177.59.376.877.575.11.08.236.125.368.14.398.037.788.118 1.179.177.457.066.914.14 1.37.206.347.051.693.103 1.032.17.243.044.39.213.412.464.008.08.008.169.008.25 0 .25 0 .25.235.258.067 0 .126 0 .192.007.25.037.368.177.361.428-.007.191-.015.375-.03.567-.022.272-.162.39-.434.412-.479.045-.958.096-1.437.148-.427.044-.862.096-1.29.14-.596.066-1.193.147-1.79.199-.405.037-.802.08-1.208.125-.162.022-.206-.007-.265-.162-.03-.081-.059-.155-.088-.236-.008-.007-.015-.007-.037-.03z"/></svg>