<svg version="1.2" baseProfile="tiny" xmlns="http://www.w3.org/2000/svg" viewBox="0 0 75 75" overflow="visible" xml:space="preserve"><path fill="#FFF" d="M0 0h75v75H0z"/><g fill="#ED2224"><path d="M17.025 18.2V9.5h4.3v1h-3.2v2.8h3v1h-3v4h-1.1zM23.725 18.2h-1.1V9.5h1.1v8.7zM29.925 11.8c0-1-.4-1.6-1.5-1.6-.3 0-1.6.1-1.6 1.9V15c0 1.9.6 2.4 1.6 2.4.8 0 1.3-.2 1.5-.4v-2.6h-1.5v-1h2.7v4.2c-.7.4-1.5.6-2.7.6-1.8 0-2.7-.9-2.7-3.3v-2.8c0-1.7.9-2.8 2.7-2.8 1.9 0 2.8.7 2.7 2.5h-1.2zM33.225 18.2V9.5h1.1v3.7h3V9.5h1.1v8.7h-1.1v-4h-3v4h-1.1zM45.325 9.5v1h-2.3v7.7h-1.1v-7.7h-2.3v-1h5.7zM46.425 18.2V9.5h4.5v1h-3.4v2.8h3.1v1h-3.1v3h3.4v1h-4.5zM53.525 14.2v4h-1.1V9.5h3c1.5 0 2.1 1.1 2.1 2.2 0 1-.6 1.8-1.6 2 1 .2 1.4.5 1.4 2.2 0 .4.1 1.7.3 2.3h-1.2c-.3-.6-.2-1.7-.3-2.9-.1-1.1-.9-1.1-1.3-1.1h-1.3zm0-1h1.7c.8 0 1.2-.7 1.2-1.4 0-.6-.3-1.3-1.2-1.3h-1.7v2.7z"/></g><path fill="#ED2224" d="m37.06 65.683-.552-2.236s-1.3.823-1.581 1.216c-3.406 0-5.174-.823-5.567-1.057-.393-.234-1.918-1.759-.038-3.368s6.821-2.32 6.821-2.32-1.17-10.732-1.254-13.043c-.074-2.311-1.843-3.331-1.843-3.331s-2.348.122-10.151-1.291C15.1 38.84 11.77 36.417 10.516 35.472c-1.253-.945-2.47-3.369.356-4.351 7.167-2.667 23.297-2.47 23.297-2.47l.225-.197V25.46c0-1.319.552-1.263.823-1.31 0-1.197.318-1.197.524-1.721 0-1.048 1.46-2.246 1.46-2.246h.037s1.46 1.198 1.46 2.246c.205.524.523.524.523 1.722.272.037.824-.01.824 1.31v2.993l.224.197s16.13-.197 23.307 2.47c2.826.982 1.61 3.406.355 4.35-1.253.946-4.584 3.369-12.378 4.782-7.812 1.413-10.16 1.29-10.16 1.29s-1.76 1.02-1.844 3.332c-.075 2.31-1.254 13.033-1.254 13.033s4.94.72 6.82 2.32c1.882 1.61.356 3.135-.036 3.369-.393.234-2.152 1.057-5.567 1.057-.272-.393-1.591-1.216-1.591-1.216l-.487 2.236"/></svg>