<svg version="1.2" baseProfile="tiny" xmlns="http://www.w3.org/2000/svg" viewBox="0 0 75 75" overflow="visible" xml:space="preserve"><path fill="#FFF" d="M0 0h75v75H0z"/><g fill="#ED2224"><path d="M17.025 18.2V9.5h4.3v1h-3.2v2.8h3v1h-3v4h-1.1zM23.725 18.2h-1.1V9.5h1.1v8.7zM29.925 11.8c0-1-.4-1.6-1.5-1.6-.3 0-1.6.1-1.6 1.9V15c0 1.9.6 2.4 1.6 2.4.8 0 1.3-.2 1.5-.4v-2.6h-1.6v-1h2.7v4.2c-.7.4-1.5.6-2.7.6-1.8 0-2.7-.9-2.7-3.3v-2.8c0-1.7.9-2.8 2.7-2.8 1.9 0 2.8.7 2.7 2.5h-1.1zM33.225 18.2V9.5h1.1v3.7h3V9.5h1.1v8.7h-1.1v-4h-3v4h-1.1zM45.325 9.5v1h-2.3v7.7h-1.1v-7.7h-2.3v-1h5.7zM46.425 18.2V9.5h4.5v1h-3.4v2.8h3.1v1h-3.1v3h3.4v1h-4.5zM53.525 14.2v4h-1.1V9.5h3c1.5 0 2.1 1.1 2.1 2.2 0 1-.6 1.8-1.6 2 1 .2 1.4.5 1.4 2.2 0 .4.1 1.7.3 2.3h-1.2c-.3-.6-.2-1.7-.3-2.9-.1-1.1-.9-1.1-1.3-1.1h-1.3zm0-1h1.7c.8 0 1.2-.7 1.2-1.4 0-.6-.3-1.3-1.2-1.3h-1.7v2.7z"/></g><path fill="#ED2224" d="m37.062 65.683-.552-2.236s-1.3.823-1.581 1.216c-3.406 0-5.174-.824-5.567-1.057-.393-.234-1.918-1.76-.038-3.369 1.88-1.609 6.82-2.32 6.82-2.32s-1.169-10.732-1.253-13.043c-.075-2.31-1.843-3.33-1.843-3.33s-2.348.121-10.152-1.292c-7.793-1.413-11.124-3.836-12.378-4.78-1.254-.946-2.47-3.37.355-4.352 7.167-2.666 23.298-2.47 23.298-2.47l.224-.196V25.46c0-1.32.552-1.263.824-1.31 0-1.198.318-1.198.524-1.722 0-1.047 1.46-2.245 1.46-2.245h.037s1.46 1.198 1.46 2.245c.205.524.523.524.523 1.722.271.037.823-.01.823 1.31v2.994l.225.196s16.13-.196 23.307 2.47c2.825.983 1.609 3.406.355 4.351-1.254.945-4.584 3.368-12.378 4.781-7.813 1.413-10.161 1.291-10.161 1.291s-1.76 1.02-1.843 3.331c-.075 2.311-1.254 13.034-1.254 13.034s4.94.72 6.82 2.32c1.881 1.61.356 3.134-.037 3.368s-2.152 1.057-5.567 1.057c-.271-.392-1.59-1.216-1.59-1.216l-.487 2.236"/></svg>