<svg version="1.2" baseProfile="tiny" xmlns="http://www.w3.org/2000/svg" viewBox="0 0 75 75" overflow="visible" xml:space="preserve"><path fill="#FFF" d="M0 0h75v75H0z"/><g fill="#ED2224"><path d="M15.7 18.3V9.6h2.8c1.2 0 1.6.4 1.9.9.3.5.3 1 .3 1.2 0 1.1-.4 1.8-1.5 2.1v.1c1.2.1 1.8.9 1.8 2.1 0 2.2-1.6 2.4-2.6 2.4h-2.7zm1.1-5h1.6c.9 0 1.3-.5 1.3-1.4 0-.7-.4-1.3-1.3-1.3h-1.6v2.7zm0 4h1.6c1.2 0 1.6-.8 1.6-1.5 0-1.4-.9-1.6-2-1.6h-1.2v3.1zM22.9 15.1v-2.8c0-1.7.9-2.8 2.7-2.8s2.7 1.1 2.7 2.8v2.8c0 2.4-.9 3.3-2.7 3.3s-2.7-.9-2.7-3.3zm4.3.1v-2.9c0-1.8-1.2-1.9-1.6-1.9-.3 0-1.6.1-1.6 1.9v2.9c0 1.9.6 2.4 1.6 2.4 1.1-.1 1.6-.5 1.6-2.4zM31.3 18.3h-1V9.6h1.8l2.2 7.3 2.2-7.3h1.8v8.7h-1.1v-7.7l-2.4 7.7h-1l-2.4-7.7v7.7zM40.4 18.3V9.6h2.8c1.2 0 1.6.4 1.9.9.3.5.3 1 .3 1.2 0 1.1-.4 1.8-1.5 2.1v.1c1.2.1 1.8.9 1.8 2.1 0 2.2-1.6 2.4-2.6 2.4h-2.7zm1.1-5h1.6c.9 0 1.3-.5 1.3-1.4 0-.7-.4-1.3-1.3-1.3h-1.6v2.7zm0 4h1.6c1.2 0 1.6-.8 1.6-1.5 0-1.4-.9-1.6-2-1.6h-1.2v3.1zM47.6 18.3V9.6h4.5v1h-3.4v2.8h3.1v1h-3.1v3h3.4v1h-4.5zM54.7 14.3v4h-1.1V9.6h3c1.5 0 2.1 1.1 2.1 2.2 0 1-.6 1.8-1.6 2 1 .2 1.4.5 1.4 2.2 0 .4.1 1.7.3 2.3h-1.2c-.3-.6-.2-1.7-.3-2.9-.1-1.1-.9-1.1-1.3-1.1h-1.3zm0-1h1.7c.8 0 1.2-.7 1.2-1.4 0-.6-.3-1.3-1.2-1.3h-1.7v2.7z"/></g><path fill="#ED2224" d="M9.03 35.682c.123-.038.17-.123.198-.246.227-.86.653-1.191 1.513-1.182 1.2.01 2.41.038 3.61.048 2.08.01 4.16 0 6.239.01 1.635.009 3.28.056 4.915.084.407.01.822.02 1.229.02.17 0 .5-.36.482-.54-.076-.737.198-1.521.756-2.089-.53.029-1.011-.028-1.484-.047-.397-.019-.784-.104-1.181-.132-.104-.01-.218-.038-.208-.16 0-.152.132-.114.227-.133 1.105-.199 2.22-.19 3.336-.151.34.009.435-.142.463-.426.01-.151.02-.302.085-.435.104-.208.256-.33.501-.293.237.038.331.199.36.416.103.728.103.738.84.728 1.069-.01 2.127.085 3.186.227.085.01.19 0 .18.132-.01.123-.114.142-.218.161-.614.085-1.238.132-1.852.142-.237.01-.463 0-.813 0 .661.463.633 1.153.888 1.72.048.113-.028.19-.056.284-.085.283.208.718.51.718.832.01 1.673.01 2.505.01.189 0 .227-.076.227-.256-.01-1.985-.048-3.96-.02-5.945.03-1.74.086-3.488.502-5.199.113-.463.255-.907.444-1.342.123-.293.302-.567.662-.577.312-.01.16-.368.397-.463 0 .34.189.463.482.52.245.047.321.303.406.501.426.926.633 1.91.785 2.911.444 3.11.302 6.239.283 9.358 0 .34.104.406.397.406.756.01 1.513.038 2.269.067.397.009.576-.17.595-.653.02-.378.066-.737.208-1.096.114-.284.255-.539.492-.756-.71-.095-1.409-.057-2.09-.19-.141-.028-.292-.056-.434-.094-.095-.019-.227-.019-.227-.151s.132-.123.227-.142a9.464 9.464 0 0 1 1.635-.132c.596.01 1.191-.01 1.796 0 .255 0 .36-.095.36-.35 0-.17.037-.35.084-.51.076-.274.303-.322.53-.274.217.037.34.189.33.425 0 .123 0 .246.02.369.037.255.132.368.444.35 1.106-.057 2.211-.086 3.308.094.132.019.369-.038.378.151.01.208-.217.19-.369.217-.633.114-1.285.133-1.928.152-.406.01-.435.047-.208.378.284.425.303.917.35 1.399.01.094-.01.208.019.302.085.312.17.539.624.539 3.497-.01 6.985.019 10.482.047 1.796.02 3.601.047 5.397.076.085 0 .17.019.256.028 1.115.132 1.417.813 1.124 1.815-.397 1.352-1.276 2.25-2.684 2.58-2.155.501-4.3 1.04-6.437 1.617-2.76.746-5.558 1.39-8.337 2.05-.302.076-.605.124-.907.2-.36.084-.53.311-.567.69a13.319 13.319 0 0 1-1.191 4.29c-.18.379-.378.388-.615.038-.217-.32-.33-.699-.453-1.058-.256-.766-.473-1.55-.596-2.354-.104-.652-.236-.728-.879-.567-.822.199-1.645.388-2.467.596-.671.17-.983.548-.983 1.247 0 .993.038 1.995.028 2.987-.037 2.703 0 5.407-.104 8.11-.01.35.029.52.454.624 1.399.33 2.798.662 4.216.955.737.15 1.484.321 2.193.557 1.276.426 1.153 1.853.472 2.524-.737.728-1.673 1.05-2.656 1.276-1.455.34-2.94.52-4.423.652a3.848 3.848 0 0 0-.662.095c-.435.104-.775.312-.917.775-.151.5-.52.907-.643 1.418h-.15c-.058-.482-.388-.86-.502-1.324-.132-.538-.5-.765-1.011-.84-1.588-.218-3.195-.303-4.745-.7-1.05-.274-2.127-.482-2.921-1.361-.406-.445-.633-.898-.482-1.475.16-.605.567-.983 1.181-1.115l1.636-.369c1.654-.369 3.299-.747 4.953-1.106.18-.038.302-.085.293-.302-.02-1.153-.048-2.307-.048-3.47 0-1.606-.056-3.213-.075-4.82-.02-.973.01-1.947-.047-2.911-.029-.492-.19-.955-.766-1.153-.284-.095-.577-.123-.86-.218-.71-.227-1.437-.387-2.155-.595-.293-.085-.369.047-.416.293-.218 1.162-.51 2.306-1.04 3.374-.076.151-.113.36-.33.36-.228.009-.303-.19-.379-.36-.038-.075-.057-.16-.085-.246-.473-1.36-.955-2.722-1.229-4.149-.028-.123-.056-.265-.227-.312-.775-.217-1.55-.454-2.325-.662-1.663-.444-3.336-.87-5.01-1.313-1.389-.37-2.778-.747-4.177-1.125-1.456-.397-2.921-.794-4.377-1.2-1.418-.407-2.382-1.296-2.779-2.751-.037-.123-.085-.208-.208-.227-.009-.019-.009-.038-.009-.066z"/></svg>