<svg version="1.2" baseProfile="tiny" xmlns="http://www.w3.org/2000/svg" viewBox="0 0 75 75" overflow="visible" xml:space="preserve"><path fill="#FFF" d="M0 0h75v75H0z"/><g fill="#ED2224"><path d="M14.2 9.4v1h-2.3v7.7h-1.1v-7.7H8.5v-1h5.7zM16.4 14.1v4h-1.1V9.4h3c1.5 0 2.1 1.1 2.1 2.2 0 1-.6 1.8-1.6 2 1 .2 1.4.5 1.4 2.2 0 .4.1 1.7.3 2.3h-1.2c-.3-.6-.2-1.7-.3-2.9-.1-1.1-.9-1.1-1.3-1.1h-1.3zm0-1h1.7c.8 0 1.2-.7 1.2-1.4 0-.6-.3-1.3-1.2-1.3h-1.7v2.7zM24 9.4h1.4l2.8 8.7H27l-.6-2.1h-3.3l-.6 2.1h-1.1L24 9.4zm.7 1.1-1.4 4.6h2.8l-1.4-4.6zM35.4 9.4v8.7h-1.5l-3.4-7.5v7.5h-1V9.4h1.6l3.4 7.4V9.4h.9zM38.2 15.5v.3c0 1.2.7 1.5 1.5 1.5.9 0 1.5-.4 1.5-1.4 0-1.9-3.9-1.7-3.9-4.3 0-1.5 1.1-2.4 2.5-2.4 1.6 0 2.5.8 2.4 2.5h-1.1c0-.9-.3-1.6-1.3-1.6-.7 0-1.3.3-1.3 1.3 0 1.9 3.9 1.6 3.9 4.4 0 1.8-1.3 2.4-2.7 2.4-2.6 0-2.6-1.9-2.5-2.8h1zM44.2 18.1V9.4h2.6c1.2 0 2.4.4 2.4 2.5 0 2-1.5 2.4-2.4 2.4h-1.5v3.8h-1.1zm1.1-4.8h1.2c.5 0 1.5-.1 1.5-1.5 0-1.3-1-1.5-1.2-1.5h-1.5v3zM50.7 14.9v-2.8c0-1.7.9-2.8 2.7-2.8s2.7 1.1 2.7 2.8v2.8c0 2.4-.9 3.3-2.7 3.3s-2.7-.9-2.7-3.3zm4.3.1v-2.9c0-1.8-1.2-1.9-1.6-1.9s-1.6.1-1.6 1.9V15c0 1.9.6 2.4 1.6 2.4S55 16.9 55 15zM59.1 14.1v4H58V9.4h3c1.5 0 2.1 1.1 2.1 2.2 0 1-.6 1.8-1.6 2 1 .2 1.4.5 1.4 2.2 0 .4.1 1.7.3 2.3H62c-.3-.6-.2-1.7-.3-2.9-.1-1.1-.9-1.1-1.3-1.1h-1.3zm0-1h1.7c.8 0 1.2-.7 1.2-1.4 0-.6-.3-1.3-1.2-1.3h-1.7v2.7zM69.6 9.4v1h-2.3v7.7h-1.1v-7.7h-2.3v-1h5.7z"/></g><path fill="#ED2224" d="M36.806 26.797c.332-.256.796-.048 1.014.255.976 1.213 1.109 2.834 1.298 4.321.17 1.63.275 3.27.398 4.908h1.829c-.038-.938.057-1.866.066-2.795.02-.303.067-.616.256-.862.294-.076.597-.019.89-.076.086-.379.02-.777.067-1.165.142-.152.417-.123.455.104.038.35-.01.701.01 1.052.246.019.502-.02.739.057.265.151.284.502.312.777.057.975.01 1.951.067 2.927.284.057.559.133.833.209 6.31 1.81 12.621 3.61 18.932 5.42.673.17 1.175.644 1.649 1.118-.152 1.156-1.355 1.81-2.426 1.866-7.457.038-14.914-.056-22.371-.019-.588.029-.957.578-1.166 1.062-.104 1.705-.094 3.42-.274 5.116-.038.36-.095.73-.057 1.1.076.672-.048 1.354-.161 2.018-.398 1.487-.512 3.032-.768 4.548.228.18.427.388.692.512 1.563.739 3.127 1.468 4.69 2.207.777.38 1.526 1.137 1.402 2.075-.075.891-.938 1.526-1.79 1.573a99.627 99.627 0 0 1-4.122.029c-.464.01-.768-.436-1.222-.474-.351 0-.56.294-.768.53h-.199c-.227-.236-.464-.549-.824-.53-.436.076-.758.502-1.223.474-1.26-.01-2.53.019-3.79-.029-.587-.019-1.213-.199-1.648-.606-.446-.427-.54-1.109-.37-1.677.218-.645.777-1.118 1.374-1.403 1.507-.71 3.004-1.44 4.51-2.16.303-.142.569-.341.853-.521-.398-2.852-.767-5.714-1.023-8.575-.067-1.27-.124-2.53-.18-3.8-.01-.606-.436-1.156-.986-1.393-.35-.085-.73-.028-1.09-.047-3.714-.02-7.419.057-11.133.028-.597-.028-1.194.133-1.79.076a17.85 17.85 0 0 0-1.432-.076h-6.575c-.749.02-1.526-.142-2.17-.53-.398-.294-.645-.758-.834-1.204v-.123c.256-.284.493-.597.843-.777a9.82 9.82 0 0 1 1.687-.644c5.723-1.64 11.446-3.288 17.17-4.937.568-.16 1.127-.34 1.705-.464.01-.72.057-1.43.038-2.15.019-.456-.01-.93.17-1.365.161-.398.673-.218 1.004-.266.01-.37-.094-.758.029-1.118a.276.276 0 0 1 .445.123c.048.332.02.664.02 1.005.246.01.501-.02.757.028.284.18.303.54.341.844.067.975.086 1.942.076 2.918h1.857c.067-1.469.17-2.937.304-4.406.113-1.27.34-2.54.748-3.752.209-.455.445-.976.862-1.336z"/></svg>