<svg version="1.2" baseProfile="tiny" xmlns="http://www.w3.org/2000/svg" viewBox="0 0 75 75" overflow="visible" xml:space="preserve"><path fill="#FFF" d="M0 0h75v75H0z"/><g fill="#ED2224"><path d="M15.7 18.3V9.6h2.8c1.2 0 1.6.4 1.9.9.3.5.3 1 .3 1.2 0 1.1-.4 1.8-1.5 2.1v.1c1.2.1 1.8.9 1.8 2.1 0 2.2-1.6 2.4-2.6 2.4h-2.7zm1.1-5h1.6c.9 0 1.3-.5 1.3-1.4 0-.7-.4-1.3-1.3-1.3h-1.6v2.7zm0 4h1.6c1.2 0 1.6-.8 1.6-1.5 0-1.4-.9-1.6-2-1.6h-1.2v3.1zM22.9 15.1v-2.8c0-1.7.9-2.8 2.7-2.8s2.7 1.1 2.7 2.8v2.8c0 2.4-.9 3.3-2.7 3.3s-2.7-.9-2.7-3.3zm4.3.1v-2.9c0-1.8-1.2-1.9-1.6-1.9-.3 0-1.6.1-1.6 1.9v2.9c0 1.9.6 2.4 1.6 2.4 1.1-.1 1.6-.5 1.6-2.4zM31.3 18.3h-1V9.6h1.8l2.2 7.3 2.2-7.3h1.8v8.7h-1.1v-7.7l-2.4 7.7h-1l-2.4-7.7v7.7zM40.4 18.3V9.6h2.8c1.2 0 1.6.4 1.9.9.3.5.3 1 .3 1.2 0 1.1-.4 1.8-1.5 2.1v.1c1.2.1 1.8.9 1.8 2.1 0 2.2-1.6 2.4-2.6 2.4h-2.7zm1.1-5h1.6c.9 0 1.3-.5 1.3-1.4 0-.7-.4-1.3-1.3-1.3h-1.6v2.7zm0 4h1.6c1.2 0 1.6-.8 1.6-1.5 0-1.4-.9-1.6-2-1.6h-1.2v3.1zM47.6 18.3V9.6h4.5v1h-3.4v2.8h3.1v1h-3.1v3h3.4v1h-4.5zM54.7 14.3v4h-1.1V9.6h3c1.5 0 2.1 1.1 2.1 2.2 0 1-.6 1.8-1.6 2 1 .2 1.4.5 1.4 2.2 0 .4.1 1.7.3 2.3h-1.2c-.3-.6-.2-1.7-.3-2.9-.1-1.1-.9-1.1-1.3-1.1h-1.3zm0-1h1.7c.8 0 1.2-.7 1.2-1.4 0-.6-.3-1.3-1.2-1.3h-1.7v2.7z"/></g><path fill="#ED2224" d="M9.036 35.682c.123-.038.17-.123.198-.246.227-.86.653-1.19 1.513-1.181 1.2.01 2.41.037 3.61.047 2.08.01 4.16 0 6.239.01 1.635.009 3.28.056 4.915.084.407.01.822.02 1.229.02.17 0 .5-.36.482-.54-.076-.737.198-1.521.756-2.088-.53.028-1.011-.029-1.484-.048-.397-.019-.784-.104-1.181-.132-.104-.01-.218-.038-.208-.16 0-.152.132-.114.227-.133 1.105-.198 2.22-.189 3.336-.151.34.01.435-.142.463-.426.01-.15.02-.302.085-.434.104-.208.256-.331.501-.293.237.037.331.198.36.416.104.727.104.737.84.727 1.069-.01 2.128.085 3.186.227.085.01.19 0 .18.133-.01.122-.114.141-.218.16-.614.085-1.238.133-1.852.142-.237.01-.463 0-.813 0 .662.463.633 1.153.888 1.72.048.114-.028.19-.056.284-.085.283.208.718.51.718.832.01 1.673.01 2.505.01.189 0 .227-.076.227-.256-.01-1.985-.048-3.96-.02-5.945.03-1.74.086-3.488.502-5.199.113-.463.255-.907.444-1.342.123-.293.303-.567.662-.576.312-.01.16-.37.397-.464 0 .34.189.464.482.52.246.048.321.303.406.501.426.927.633 1.91.785 2.911.444 3.11.302 6.239.283 9.358 0 .34.104.407.397.407.756.009 1.513.037 2.269.066.397.01.576-.17.595-.652.02-.379.066-.738.208-1.097.114-.283.255-.539.492-.756-.71-.095-1.409-.057-2.09-.19-.141-.027-.292-.056-.434-.094-.094-.019-.227-.019-.227-.15s.133-.124.227-.143a9.464 9.464 0 0 1 1.635-.132c.596.01 1.191-.01 1.796 0 .255 0 .36-.095.36-.35 0-.17.037-.35.084-.51.076-.274.303-.322.53-.274.217.038.34.189.33.425 0 .123 0 .246.02.369.037.255.132.368.444.35 1.106-.057 2.212-.086 3.308.094.132.019.369-.038.378.151.01.208-.217.19-.369.218-.633.113-1.285.132-1.928.15-.406.01-.435.048-.208.379.284.425.303.917.35 1.399.01.094-.01.208.019.302.085.312.17.54.624.54 3.497-.01 6.985.018 10.482.046 1.796.02 3.601.048 5.397.076.085 0 .17.019.256.028 1.115.133 1.417.813 1.124 1.815-.397 1.352-1.276 2.25-2.684 2.58-2.155.502-4.3 1.04-6.437 1.617-2.76.747-5.558 1.39-8.337 2.051-.302.076-.605.123-.907.199-.36.085-.53.311-.567.69a13.319 13.319 0 0 1-1.191 4.29c-.18.379-.378.388-.615.039-.217-.322-.33-.7-.453-1.059-.256-.766-.473-1.55-.596-2.354-.104-.652-.236-.727-.879-.567-.822.199-1.645.388-2.467.596-.671.17-.983.548-.983 1.247 0 .993.038 1.995.028 2.987-.037 2.704 0 5.407-.104 8.11-.009.35.029.52.454.624 1.399.331 2.798.662 4.216.955.737.151 1.484.321 2.193.558 1.276.425 1.153 1.852.472 2.523-.737.728-1.673 1.05-2.656 1.276-1.455.34-2.94.52-4.423.652a3.848 3.848 0 0 0-.662.095c-.435.104-.775.312-.917.775-.151.501-.52.907-.643 1.418h-.15c-.058-.482-.388-.86-.502-1.323-.132-.54-.5-.766-1.011-.842-1.588-.217-3.195-.302-4.745-.7-1.05-.273-2.127-.481-2.92-1.36-.407-.444-.634-.898-.483-1.475.16-.605.567-.983 1.182-1.115l1.635-.369c1.654-.368 3.299-.746 4.953-1.106.18-.037.302-.085.293-.302-.02-1.153-.048-2.306-.048-3.47 0-1.606-.056-3.213-.075-4.82-.02-.973.01-1.947-.047-2.911-.029-.491-.19-.955-.766-1.153-.284-.095-.577-.123-.86-.218-.71-.226-1.437-.387-2.155-.595-.293-.085-.369.047-.416.293-.218 1.163-.51 2.306-1.04 3.374-.076.152-.113.36-.33.36-.228.01-.303-.19-.379-.36-.038-.075-.057-.16-.085-.245-.473-1.361-.955-2.723-1.229-4.15-.028-.123-.056-.264-.227-.312-.775-.217-1.55-.453-2.325-.661-1.663-.445-3.336-.87-5.01-1.314-1.389-.369-2.778-.747-4.177-1.125-1.456-.397-2.921-.794-4.377-1.2-1.417-.407-2.382-1.295-2.779-2.751-.037-.123-.085-.208-.208-.227-.009-.019-.009-.038-.009-.066z"/></svg>