<svg version="1.2" baseProfile="tiny" xmlns="http://www.w3.org/2000/svg" viewBox="0 0 75 75" overflow="visible" xml:space="preserve"><path fill="#FFF" d="M0 0h75v75H0z"/><path fill="#ED2224" d="M37.74 27.752h.102c.032.11.032.23.024.34-.024.294-.056.587.254.77.063.039.103.126.142.197.293.492.436 1.046.602 1.585.199.65.262 1.316.373 1.982.19 1.172.301 2.361.357 3.55.023.562.015 1.133.023 1.696 0 .158 0 .333.246.356.658.072 1.323.159 1.981.246.34.04.357.016.34-.333-.015-.53-.047-1.07.151-1.577.056-.143-.055-.119-.11-.119-.278-.016-.547-.024-.825-.04-.095-.007-.245.024-.245-.094 0-.127.15-.111.245-.111.373-.024.745-.103 1.118-.072.277.024.547.056.554-.348 0-.024.024-.048.032-.064.143-.238.31-.238.46-.008.04.056.087.12.087.175.024.285.206.317.436.293a5.217 5.217 0 0 1 1.268.047c.047.008.11 0 .11.064 0 .071-.063.063-.11.063-.206.016-.412.04-.618.048-.349.008-.706 0-1.054 0 .507.174.657.285.61.642-.056.435.016.88-.119 1.315-.08.262-.024.412.277.42.325.016.642.071.967.111.674.087 1.355.19 2.029.27.388.047.428-.008.42-.373s-.016-.73.008-1.102c.032-.61.135-.705.721-.72.008 0 .016-.009.048-.032-.571.055-1.118-.024-1.665-.048-.087 0-.237.008-.237-.119s.15-.119.237-.127c.468-.031.935-.047 1.395.008.182.024.277-.008.333-.198.048-.166.119-.388.317-.356.174.023.246.237.27.412.015.166.094.19.245.19.476 0 .951.04 1.419.119.055.008.134-.016.134.071 0 .063-.071.056-.119.063-.507.056-1.014.08-1.521.016-.056-.008-.103-.023-.159.032.595.08.682.206.666.777-.016.483-.103.959-.071 1.442.016.19.087.27.27.285.427.048.855.103 1.283.167.182.031.246-.024.285-.206.08-.333.159-.666.365-.951.261-.349.578-.325.776.063.167.333.246.69.27 1.054.016.182.08.262.261.285.92.088 1.823.278 2.75.294.262 0 .31-.08.373-.27.087-.253.142-.523.27-.769.055-.103.11-.23.094-.332-.04-.214.135-.302.222-.436-.008.198-.008.388-.127.578-.182.301-.222.674-.372 1.007-.119.27-.071.325.23.364.982.111 1.957.293 2.884.658.65.254 1.197.626 1.45 1.315v.048c-.063.349-.15.69-.404.951-.38.388-.8.729-1.3.959-1.18.555-2.456.769-3.732.959-.08.016-.158.024-.238.063-.364.182-.768.19-1.157.143-.198-.024-.388-.056-.586-.04l-2.41.238c-.95.087-1.901.174-2.86.27-.88.087-1.751.19-2.63.277-1.079.11-2.149.214-3.226.325-.896.095-1.783.206-2.679.27-.372.023-.491.197-.515.498-.032.373-.032.745-.055 1.126-.056.848-.048 1.696-.143 2.543-.024.254-.04.516-.056.77-.007.086.016.173.127.181.095.008.127-.055.15-.134.017-.064-.007-.15.096-.198.047.309.032.61-.032.935-.095-.072-.071-.15-.079-.222-.008-.087-.024-.175-.135-.175-.095 0-.119.072-.134.151a2.502 2.502 0 0 0-.04.594c.008.143.087.199.214.151.071-.024.127-.095.182.016.024.055.04.11.008.166-.047.08-.103.048-.174.024-.183-.055-.27.032-.286.206-.007.095-.015.182-.007.277.015.127-.088.325.118.357.206.032.103-.198.19-.301.112.277.088.547-.015.816a.224.224 0 0 1-.032-.119c0-.11-.04-.198-.174-.198-.127.008-.135.103-.135.198 0 .183-.008.365-.008.547 0 .08.032.15.127.15s.127-.063.142-.142c.008-.063-.023-.143.056-.206.071.301.095.578-.032.888-.008-.08-.016-.12-.016-.159-.015-.11-.055-.198-.19-.182-.119.016-.127.11-.135.206-.063.872-.126 1.743-.198 2.615-.015.174.032.27.23.309 1.672.34 3.336.69 5.009 1.03.158.032.3.103.435.19.428.286.54.722.254 1.142-.293.428-.658.776-1.205.871-.499.087-.998.167-1.505.222-1.11.135-2.211.285-3.32.412-.452.056-.563.135-.666.587-.072.309-.095.626-.088.943a.68.68 0 0 1-.166.507.53.53 0 0 0-.143.412c.016.166-.007.333-.055.491h-.103a.738.738 0 0 1-.016-.348c.048-.238-.04-.31-.277-.294-.135.008-.198.04-.198.183 0 .079-.016.166-.032.245-.008.04-.016.088-.071.095-.064.008-.08-.055-.096-.095a.48.48 0 0 1 0-.15c.04-.214.024-.404-.134-.579-.12-.119-.135-.293-.15-.467a7.131 7.131 0 0 0-.136-1.086c-.055-.238-.166-.364-.404-.396-.871-.127-1.743-.246-2.615-.388-.737-.12-1.474-.286-2.21-.389-.484-.071-.865-.245-1.166-.634-.214-.27-.364-.547-.238-.895.135-.349.444-.5.777-.563 1.648-.325 3.297-.642 4.953-.95.182-.033.27-.112.27-.318-.016-.903-.096-1.79-.151-2.694-.008-.167-.063-.262-.254-.175-.095.048-.142-.008-.15-.095-.008-.087.031-.166.127-.134.253.087.261-.072.261-.246 0-.119.008-.238-.016-.349-.024-.11.032-.293-.142-.3-.175-.009-.135.173-.175.284 0 .008-.024.016-.047.024-.016-.246-.135-.491.055-.745.048.095.016.254.167.222.15-.032.103-.166.103-.27a.872.872 0 0 0-.032-.245c-.024-.111.047-.301-.119-.317-.198-.024-.135.19-.182.301 0 .008-.024.008-.04.016-.024-.246-.119-.483.016-.73.063.08.048.247.206.199.143-.048.095-.174.095-.277a9.61 9.61 0 0 0-.04-.476c-.007-.095-.055-.182-.158-.119-.23.143-.19-.031-.182-.15.008-.095.047-.19.071-.293.063.087.016.245.159.23.158-.017.087-.167.103-.27.008-.048 0-.103 0-.15a34.746 34.746 0 0 1-.096-2.568c0-.555-.023-1.118-.04-1.672-.007-.238-.126-.38-.356-.405-.57-.063-1.14-.103-1.711-.158-.761-.071-1.522-.15-2.283-.23-.792-.087-1.585-.182-2.377-.261-1.094-.111-2.187-.214-3.281-.325-1.347-.143-2.702-.27-4.042-.444-.451-.056-.887.032-1.339-.016-.42-.04-.808-.166-1.22-.238-1.07-.182-2.124-.412-3.115-.887-.84-.396-1.53-.943-1.814-1.878v-.35c.182-.269.3-.586.594-.752.69-.404 1.442-.642 2.227-.769.515-.087 1.038-.158 1.553-.237.119-.016.254-.064.214-.214-.056-.198-.048-.436-.254-.57-.047-.033-.04-.048-.031-.096.063-.222-.032-.42-.15-.586-.112-.151-.104-.278-.088-.476.047.056.071.08.087.103.135.198.127.444.222.658.055.127.095.261.317.214-.23.103-.159.245-.103.388.024.064.047.127.063.19.072.222.246.349.476.317.848-.103 1.704-.214 2.552-.309.269-.024.372-.134.396-.396.04-.34.11-.674.253-.99.08-.167.183-.325.397-.341.222-.016.348.134.443.309.151.261.246.547.302.84.047.253.182.325.42.285.309-.055.626-.119.935-.127.46-.016.499-.182.412-.57-.095-.397-.064-.793-.103-1.189-.04-.46.15-.697.594-.793.032-.007.087.008.095-.087-.61.087-1.212.167-1.846.048.087-.119.174-.119.261-.135.46-.087.927-.095 1.387-.143.103-.007.159-.031.19-.142.04-.182.095-.428.31-.436.213-.008.293.238.34.412.056.198.159.23.325.206.42-.063.848-.04 1.276-.04.095 0 .198-.015.27.096a.798.798 0 0 1-.35.079c-.26.024-.53.063-.792.095-.11.016-.166.024-.103.166.23.547.206 1.118.135 1.688-.032.238.04.412.222.397.982-.111 1.965-.238 2.948-.35.222-.023.3-.126.285-.34-.024-.404-.024-.816-.048-1.22-.023-.452.199-.73.642-.8.064-.009.143.007.23-.072-.198 0-.356-.016-.515 0-.42.048-.832-.024-1.244-.016-.056 0-.135 0-.143-.071-.008-.072.064-.095.12-.095.403-.032.815-.087 1.22-.087.42.007.412.031.602-.325.063-.127.127-.294.293-.27.182.024.246.206.301.365.008.024.008.047.008.071-.008.19.087.238.262.238.42-.008.832 0 1.252 0 .11 0 .222-.008.325.11-.365.104-.714.048-1.039.12-.07.015-.158-.016-.11.118.182.555.174 1.126.11 1.696-.023.19.048.254.246.222.642-.095 1.284-.198 1.934-.253.285-.024.34-.135.34-.389.008-.562.024-1.133.08-1.696.119-1.149.214-2.306.404-3.447.15-.88.261-1.76.53-2.615.12-.38.239-.76.524-1.07.238-.253.372-.547.293-.903-.032-.135-.008-.262.024-.396h.103c.11.19.024.388.032.578 0 .103-.088.277.142.262.175-.008.38.04.373-.262.047-.11-.032-.309.063-.5z"/><g fill="#ED2224"><path d="M20.6 18.3V9.6h4.3v1h-3.2v2.8h3v1h-3v4h-1.1zM26 18.3V9.6h1.1v7.7h3.2v1H26zM34.4 9.6h1.1L33.1 15v3.3H32V15l-2.3-5.4h1.2l1.7 4.2 1.8-4.2zM37.8 18.3h-1.1V9.6h1.1v8.7zM45.9 9.6v8.7h-1.5L41 10.8v7.5h-1V9.6h1.5l3.4 7.4V9.6h1zM52.1 11.9c0-1-.4-1.6-1.5-1.6-.3 0-1.6.1-1.6 1.9v2.9c0 1.9.6 2.4 1.6 2.4.8 0 1.3-.2 1.5-.4v-2.6h-1.6v-1h2.7v4.2c-.7.4-1.5.6-2.7.6-1.8 0-2.7-.9-2.7-3.3v-2.8c0-1.7.9-2.8 2.7-2.8 1.9 0 2.8.7 2.7 2.5h-1.1z"/></g><g fill="#ED2224"><path d="M24.5 29.5v-8.7h2.8c1.2 0 1.6.4 1.9.9.3.5.3 1 .3 1.2 0 1.1-.4 1.8-1.5 2.1v.1c1.2.1 1.8.9 1.8 2.1 0 2.2-1.6 2.4-2.6 2.4h-2.7zm1.1-5h1.6c.9 0 1.3-.5 1.3-1.4 0-.7-.4-1.3-1.3-1.3h-1.6v2.7zm0 4h1.6c1.2 0 1.6-.8 1.6-1.5 0-1.4-.9-1.6-2-1.6h-1.2v3.1zM31.7 26.3v-2.8c0-1.7.9-2.8 2.7-2.8s2.7 1.1 2.7 2.8v2.8c0 2.4-.9 3.3-2.7 3.3s-2.7-.9-2.7-3.3zm4.3.1v-2.9c0-1.8-1.2-1.9-1.6-1.9-.3 0-1.6.1-1.6 1.9v2.9c0 1.9.6 2.4 1.6 2.4 1.1-.1 1.6-.5 1.6-2.4zM41 20.8h1.4l2.8 8.7H44l-.6-2.1h-3.3l-.6 2.1h-1.1l2.6-8.7zm.7 1-1.4 4.6h2.8l-1.4-4.6zM50.4 20.8v1h-2.3v7.7H47v-7.7h-2.3v-1h5.7z"/></g></svg>