<svg version="1.2" baseProfile="tiny" xmlns="http://www.w3.org/2000/svg" viewBox="0 0 75 75" overflow="visible" xml:space="preserve"><path fill="#FFF" d="M0 0h75v75H0z"/><g fill="#ED2224"><path d="M15.7 18.3V9.6h2.8c1.2 0 1.6.4 1.9.9.3.5.3 1 .3 1.2 0 1.1-.4 1.8-1.5 2.1v.1c1.2.1 1.8.9 1.8 2.1 0 2.2-1.6 2.4-2.6 2.4h-2.7zm1.1-5h1.6c.9 0 1.3-.5 1.3-1.4 0-.7-.4-1.3-1.3-1.3h-1.6v2.7zm0 4h1.6c1.2 0 1.6-.8 1.6-1.5 0-1.4-.9-1.6-2-1.6h-1.2v3.1zM22.9 15.1v-2.8c0-1.7.9-2.8 2.7-2.8s2.7 1.1 2.7 2.8v2.8c0 2.4-.9 3.3-2.7 3.3s-2.7-.9-2.7-3.3zm4.3.1v-2.9c0-1.8-1.2-1.9-1.6-1.9-.3 0-1.6.1-1.6 1.9v2.9c0 1.9.6 2.4 1.6 2.4 1.1-.1 1.6-.5 1.6-2.4zM31.3 18.3h-1V9.6h1.8l2.2 7.3 2.2-7.3h1.8v8.7h-1.1v-7.7l-2.4 7.7h-1l-2.4-7.7v7.7zM40.4 18.3V9.6h2.8c1.2 0 1.6.4 1.9.9.3.5.3 1 .3 1.2 0 1.1-.4 1.8-1.5 2.1v.1c1.2.1 1.8.9 1.8 2.1 0 2.2-1.6 2.4-2.6 2.4h-2.7zm1.1-5h1.6c.9 0 1.3-.5 1.3-1.4 0-.7-.4-1.3-1.3-1.3h-1.6v2.7zm0 4h1.6c1.2 0 1.6-.8 1.6-1.5 0-1.4-.9-1.6-2-1.6h-1.2v3.1zM47.6 18.3V9.6h4.5v1h-3.4v2.8h3.1v1h-3.1v3h3.4v1h-4.5zM54.7 14.3v4h-1.1V9.6h3c1.5 0 2.1 1.1 2.1 2.2 0 1-.6 1.8-1.6 2 1 .2 1.4.5 1.4 2.2 0 .4.1 1.7.3 2.3h-1.2c-.3-.6-.2-1.7-.3-2.9-.1-1.1-.9-1.1-1.3-1.1h-1.3zm0-1h1.7c.8 0 1.2-.7 1.2-1.4 0-.6-.3-1.3-1.2-1.3h-1.7v2.7z"/></g><path fill="#ED2224" d="M9.036 35.682c.123-.038.17-.123.199-.246.227-.86.652-1.19 1.512-1.181 1.2.01 2.41.037 3.611.047 2.08.01 4.159 0 6.238.01 1.636.009 3.28.056 4.916.084.406.01.822.02 1.228.02.17 0 .501-.36.482-.54-.075-.737.199-1.521.757-2.088-.53.028-1.012-.029-1.484-.048-.397-.019-.785-.104-1.182-.132-.104-.01-.217-.038-.208-.16 0-.152.132-.114.227-.133 1.106-.198 2.221-.189 3.337-.151.34.01.434-.142.463-.426.01-.15.019-.302.085-.434.104-.208.255-.331.5-.293.237.037.332.198.36.416.104.727.104.737.841.727 1.068-.01 2.127.085 3.186.227.085.01.189 0 .18.133-.01.122-.114.141-.218.16-.615.085-1.238.133-1.853.142-.236.01-.463 0-.813 0 .662.463.634 1.153.889 1.72.047.114-.029.19-.057.284-.085.283.208.718.51.718.832.01 1.673.01 2.505.01.19 0 .227-.076.227-.256-.01-1.985-.047-3.96-.019-5.945.029-1.74.085-3.488.501-5.199.114-.463.255-.907.444-1.342.123-.293.303-.567.662-.576.312-.01.16-.37.397-.464 0 .34.19.464.482.52.246.048.322.303.407.501.425.927.633 1.91.784 2.911.444 3.11.303 6.239.284 9.358 0 .34.104.407.397.407.756.009 1.512.037 2.268.066.397.01.577-.17.596-.652.019-.379.066-.738.208-1.097.113-.283.255-.539.491-.756-.709-.095-1.408-.057-2.089-.19-.142-.027-.293-.056-.435-.094-.094-.019-.226-.019-.226-.15s.132-.124.226-.143a9.464 9.464 0 0 1 1.636-.132c.595.01 1.19-.01 1.796 0 .255 0 .359-.095.359-.35 0-.17.038-.35.085-.51.075-.274.302-.322.53-.274.217.038.34.189.33.425 0 .123 0 .246.019.369.038.255.132.368.444.35 1.106-.057 2.212-.086 3.308.094.133.019.369-.038.378.151.01.208-.217.19-.368.218-.633.113-1.286.132-1.928.15-.407.01-.435.048-.208.379.283.425.302.917.35 1.399.009.094-.01.208.018.302.085.312.17.54.624.54 3.497-.01 6.985.018 10.483.046 1.796.02 3.6.048 5.397.076.085 0 .17.019.255.028 1.115.133 1.418.813 1.125 1.815-.397 1.352-1.276 2.25-2.685 2.58-2.155.502-4.3 1.04-6.437 1.617-2.76.747-5.557 1.39-8.336 2.051-.303.076-.605.123-.908.199-.359.085-.53.311-.567.69a13.319 13.319 0 0 1-1.19 4.29c-.18.379-.379.388-.615.039-.218-.322-.331-.7-.454-1.059-.255-.766-.473-1.55-.595-2.354-.104-.652-.237-.727-.88-.567-.822.199-1.644.388-2.467.596-.67.17-.983.548-.983 1.247 0 .993.038 1.995.029 2.987-.038 2.704 0 5.407-.104 8.11-.01.35.028.52.454.624 1.398.331 2.797.662 4.215.955.737.151 1.484.321 2.193.558 1.276.425 1.153 1.852.473 2.523-.738.728-1.673 1.05-2.656 1.276-1.456.34-2.94.52-4.424.652a3.848 3.848 0 0 0-.662.095c-.434.104-.775.312-.916.775-.152.501-.52.907-.643 1.418h-.151c-.057-.482-.388-.86-.501-1.323-.133-.54-.501-.766-1.012-.842-1.588-.217-3.195-.302-4.745-.7-1.049-.273-2.127-.481-2.92-1.36-.407-.444-.634-.898-.483-1.475.161-.605.568-.983 1.182-1.115l1.635-.369c1.654-.368 3.299-.746 4.953-1.106.18-.037.303-.085.293-.302-.019-1.153-.047-2.306-.047-3.47 0-1.606-.057-3.213-.076-4.82-.019-.973.01-1.947-.047-2.911-.028-.491-.19-.955-.766-1.153-.283-.095-.576-.123-.86-.218-.709-.226-1.437-.387-2.155-.595-.293-.085-.369.047-.416.293-.217 1.163-.51 2.306-1.04 3.374-.075.152-.113.36-.33.36-.227.01-.303-.19-.378-.36-.038-.075-.057-.16-.086-.245-.472-1.361-.954-2.723-1.228-4.15-.029-.123-.057-.264-.227-.312-.775-.217-1.55-.453-2.325-.661-1.664-.445-3.337-.87-5.01-1.314-1.39-.369-2.779-.747-4.178-1.125-1.456-.397-2.92-.794-4.376-1.2-1.418-.407-2.382-1.295-2.78-2.751-.037-.123-.084-.208-.207-.227-.01-.019-.01-.038-.01-.066z"/></svg>