<svg version="1.2" baseProfile="tiny" xmlns="http://www.w3.org/2000/svg" viewBox="0 0 75 75" overflow="visible" xml:space="preserve"><path fill="#FFF" d="M0 0h75v75H0z"/><path fill="#ED2224" d="M37.739 27.752h.103c.031.11.031.23.023.34-.023.294-.055.587.254.77.063.039.103.126.143.197.293.492.436 1.046.602 1.585.198.65.261 1.316.372 1.982.19 1.172.302 2.361.357 3.55.024.562.016 1.133.024 1.696 0 .158 0 .333.245.356.658.072 1.324.159 1.982.246.34.04.356.016.34-.333-.015-.53-.047-1.07.151-1.577.055-.143-.055-.119-.111-.119-.277-.016-.547-.024-.824-.04-.095-.007-.246.024-.246-.094 0-.127.15-.111.246-.111.372-.024.745-.103 1.117-.072.278.024.547.056.555-.348 0-.024.024-.048.032-.064.142-.238.309-.238.46-.008.039.056.086.12.086.175.024.285.207.317.436.293a5.217 5.217 0 0 1 1.268.047c.048.008.111 0 .111.064 0 .071-.063.063-.11.063-.207.016-.413.04-.619.048-.349.008-.705 0-1.054 0 .507.174.658.285.61.642-.055.435.016.88-.118 1.315-.08.262-.024.412.277.42.325.016.642.071.967.111.673.087 1.355.19 2.028.27.389.047.428-.008.42-.373s-.015-.73.008-1.102c.032-.61.135-.705.721-.72.008 0 .016-.009.048-.032-.57.055-1.117-.024-1.664-.048-.087 0-.238.008-.238-.119s.15-.119.238-.127c.467-.031.935-.047 1.395.008.182.024.277-.008.332-.198.048-.166.12-.388.317-.356.175.023.246.237.27.412.016.166.095.19.246.19.475 0 .95.04 1.418.119.056.008.135-.016.135.071 0 .063-.072.056-.12.063-.506.056-1.013.08-1.52.016-.056-.008-.104-.023-.16.032.595.08.682.206.667.777-.016.483-.103.959-.072 1.442.016.19.087.27.27.285.428.048.856.103 1.283.167.183.031.246-.024.286-.206.079-.333.158-.666.364-.951.262-.349.579-.325.777.063.166.333.246.69.27 1.054.015.182.079.262.26.285.92.088 1.824.278 2.75.294.262 0 .31-.08.373-.27.087-.253.143-.523.27-.769.055-.103.11-.23.095-.332-.04-.214.134-.302.222-.436-.008.198-.008.388-.127.578-.182.301-.222.674-.373 1.007-.118.27-.07.325.23.364.983.111 1.958.293 2.885.658.65.254 1.196.626 1.45 1.315v.048c-.063.349-.15.69-.404.951-.38.388-.8.729-1.3.959-1.18.555-2.456.769-3.732.959-.08.016-.159.024-.238.063-.365.182-.769.19-1.157.143-.198-.024-.388-.056-.587-.04l-2.409.238c-.95.087-1.902.174-2.86.27-.88.087-1.752.19-2.631.277-1.078.11-2.148.214-3.226.325-.895.095-1.783.206-2.678.27-.373.023-.492.197-.515.498-.032.373-.032.745-.056 1.126-.055.848-.047 1.696-.143 2.543-.023.254-.04.516-.055.77-.008.086.016.173.127.181.095.008.127-.055.15-.134.016-.064-.008-.15.095-.198.048.309.032.61-.031.935-.095-.072-.072-.15-.08-.222-.007-.087-.023-.175-.134-.175-.095 0-.12.072-.135.151a2.502 2.502 0 0 0-.04.594c.008.143.088.199.214.151.072-.024.127-.095.183.016.023.055.04.11.008.166-.048.08-.103.048-.175.024-.182-.055-.27.032-.285.206-.008.095-.016.182-.008.277.016.127-.087.325.119.357.206.032.103-.198.19-.301.111.277.087.547-.016.816a.224.224 0 0 1-.031-.119c0-.11-.04-.198-.175-.198-.127.008-.135.103-.135.198 0 .183-.007.365-.007.547 0 .08.031.15.126.15s.127-.063.143-.142c.008-.063-.024-.143.055-.206.072.301.096.578-.031.888-.008-.08-.016-.12-.016-.159-.016-.11-.056-.198-.19-.182-.12.016-.127.11-.135.206-.063.872-.127 1.743-.198 2.615-.016.174.032.27.23.309 1.672.34 3.336.69 5.008 1.03.159.032.301.103.436.19.428.286.539.722.254 1.142-.294.428-.658.776-1.205.871-.5.087-.999.167-1.506.222-1.11.135-2.21.285-3.32.412-.452.056-.563.135-.666.587-.071.309-.095.626-.087.943a.68.68 0 0 1-.166.507.53.53 0 0 0-.143.412c.016.166-.008.333-.056.491h-.103a.738.738 0 0 1-.015-.348c.047-.238-.04-.31-.278-.294-.135.008-.198.04-.198.183 0 .079-.016.166-.032.245-.008.04-.015.088-.07.095-.064.008-.08-.055-.096-.095a.48.48 0 0 1 0-.15c.04-.214.024-.404-.135-.579-.119-.119-.134-.293-.15-.467a7.131 7.131 0 0 0-.135-1.086c-.056-.238-.166-.364-.404-.396-.872-.127-1.744-.246-2.615-.388-.737-.12-1.474-.286-2.211-.389-.484-.071-.864-.245-1.165-.634-.214-.27-.365-.547-.238-.895.135-.349.444-.5.777-.563 1.648-.325 3.296-.642 4.953-.95.182-.033.269-.112.269-.318-.016-.903-.095-1.79-.15-2.694-.009-.167-.064-.262-.254-.175-.095.048-.143-.008-.15-.095-.009-.087.031-.166.126-.134.254.087.262-.072.262-.246 0-.119.007-.238-.016-.349-.024-.11.031-.293-.143-.3-.174-.009-.135.173-.174.284 0 .008-.024.016-.048.024-.016-.246-.135-.491.056-.745.047.095.016.254.166.222.15-.032.103-.166.103-.27a.872.872 0 0 0-.032-.245c-.023-.111.048-.301-.118-.317-.199-.024-.135.19-.183.301 0 .008-.024.008-.04.016-.023-.246-.118-.483.016-.73.064.08.048.247.207.199.142-.048.095-.174.095-.277a9.61 9.61 0 0 0-.04-.476c-.008-.095-.055-.182-.158-.119-.23.143-.19-.031-.183-.15.008-.095.048-.19.072-.293.063.087.015.245.158.23.159-.017.087-.167.103-.27.008-.048 0-.103 0-.15a34.746 34.746 0 0 1-.095-2.568c0-.555-.024-1.118-.04-1.672-.008-.238-.126-.38-.356-.405-.57-.063-1.141-.103-1.712-.158-.76-.071-1.522-.15-2.282-.23-.793-.087-1.585-.182-2.378-.261-1.093-.111-2.187-.214-3.28-.325-1.348-.143-2.703-.27-4.042-.444-.452-.056-.888.032-1.34-.016-.42-.04-.808-.166-1.22-.238-1.07-.182-2.124-.412-3.114-.887-.84-.396-1.53-.943-1.815-1.878v-.35c.182-.269.301-.586.594-.752.69-.404 1.443-.642 2.227-.769.515-.087 1.038-.158 1.553-.237.12-.016.254-.064.214-.214-.055-.198-.047-.436-.253-.57-.048-.033-.04-.048-.032-.096.064-.222-.032-.42-.15-.586-.111-.151-.103-.278-.088-.476.048.056.072.08.088.103.134.198.126.444.221.658.056.127.096.261.317.214-.23.103-.158.245-.103.388.024.064.048.127.064.19.071.222.245.349.475.317.848-.103 1.704-.214 2.552-.309.27-.024.372-.134.396-.396.04-.34.111-.674.254-.99.08-.167.182-.325.396-.341.222-.016.349.134.444.309.15.261.246.547.301.84.048.253.182.325.42.285.31-.055.626-.119.935-.127.46-.016.5-.182.412-.57-.095-.397-.063-.793-.103-1.189-.04-.46.15-.697.595-.793.031-.007.087.008.095-.087-.61.087-1.213.167-1.847.048.087-.119.175-.119.262-.135.46-.087.927-.095 1.387-.143.103-.007.158-.031.19-.142.04-.182.095-.428.309-.436.214-.008.293.238.34.412.056.198.16.23.325.206.42-.063.848-.04 1.276-.04.095 0 .198-.015.27.096a.798.798 0 0 1-.349.079c-.261.024-.53.063-.792.095-.111.016-.167.024-.103.166.23.547.206 1.118.134 1.688-.031.238.04.412.222.397.983-.111 1.966-.238 2.948-.35.222-.023.301-.126.286-.34-.024-.404-.024-.816-.048-1.22-.024-.452.198-.73.642-.8.063-.009.143.007.23-.072-.198 0-.357-.016-.515 0-.42.048-.833-.024-1.245-.016-.055 0-.134 0-.142-.071s.063-.095.119-.095c.404-.032.816-.087 1.22-.087.42.007.412.031.602-.325.064-.127.127-.294.294-.27.182.024.245.206.3.365.009.024.009.047.009.071-.008.19.087.238.261.238.42-.008.832 0 1.252 0 .111 0 .222-.008.325.11-.364.104-.713.048-1.038.12-.071.015-.159-.016-.111.118.182.555.174 1.126.111 1.696-.024.19.048.254.246.222.642-.095 1.283-.198 1.933-.253.286-.024.341-.135.341-.389.008-.562.024-1.133.08-1.696.118-1.149.213-2.306.403-3.447.151-.88.262-1.76.531-2.615.12-.38.238-.76.523-1.07.238-.253.373-.547.294-.903-.032-.135-.008-.262.023-.396h.103c.111.19.024.388.032.578 0 .103-.087.277.143.262.174-.008.38.04.372-.262.048-.11-.031-.309.064-.5z"/><g fill="#ED2224"><path d="M20.6 18.3V9.6h4.3v1h-3.2v2.8h3v1h-3v4h-1.1zM26 18.3V9.6h1.1v7.7h3.2v1H26zM34.4 9.6h1.1L33.1 15v3.3H32V15l-2.3-5.4h1.2l1.7 4.2 1.8-4.2zM37.8 18.3h-1.1V9.6h1.1v8.7zM45.9 9.6v8.7h-1.5L41 10.8v7.5h-1V9.6h1.6L45 17V9.6h.9zM52.1 11.9c0-1-.4-1.6-1.5-1.6-.3 0-1.6.1-1.6 1.9v2.9c0 1.9.6 2.4 1.6 2.4.8 0 1.3-.2 1.5-.4v-2.6h-1.6v-1h2.7v4.2c-.7.4-1.5.6-2.7.6-1.8 0-2.7-.9-2.7-3.3v-2.8c0-1.7.9-2.8 2.7-2.8 1.9 0 2.8.7 2.7 2.5h-1.1z"/></g><g fill="#ED2224"><path d="M24.5 29.5v-8.7h2.8c1.2 0 1.6.4 1.9.9.3.5.3 1 .3 1.2 0 1.1-.4 1.8-1.5 2.1v.1c1.2.1 1.8.9 1.8 2.1 0 2.2-1.6 2.4-2.6 2.4h-2.7zm1.1-5h1.6c.9 0 1.3-.5 1.3-1.4 0-.7-.4-1.3-1.3-1.3h-1.6v2.7zm0 4h1.6c1.2 0 1.6-.8 1.6-1.5 0-1.4-.9-1.6-2-1.6h-1.2v3.1zM31.7 26.3v-2.8c0-1.7.9-2.8 2.7-2.8s2.7 1.1 2.7 2.8v2.8c0 2.4-.9 3.3-2.7 3.3s-2.7-.9-2.7-3.3zm4.3.1v-2.9c0-1.8-1.2-1.9-1.6-1.9-.3 0-1.6.1-1.6 1.9v2.9c0 1.9.6 2.4 1.6 2.4 1.1-.1 1.6-.5 1.6-2.4zM41 20.8h1.4l2.8 8.7H44l-.6-2.1h-3.3l-.6 2.1h-1.1l2.6-8.7zm.7 1-1.4 4.6h2.8l-1.4-4.6zM50.4 20.8v1h-2.3v7.7H47v-7.7h-2.3v-1h5.7z"/></g></svg>