<svg version="1.2" baseProfile="tiny" xmlns="http://www.w3.org/2000/svg" viewBox="0 0 75 75" overflow="visible" xml:space="preserve"><path fill="#FFF" d="M0 0h75v75H0z"/><g fill="#ED2224"><path d="M14.9 20.9V9.3h1.5v10.3h4.2v1.3h-5.7zM23.5 15.6v5.3H22V9.3h4c2 0 2.8 1.4 2.8 2.9 0 1.4-.8 2.4-2.1 2.6 1.3.2 1.8.7 1.9 3 0 .5.2 2.3.4 3h-1.5c-.4-.8-.3-2.3-.4-3.8-.1-1.4-1.2-1.5-1.7-1.5h-1.9zm0-1.3h2.2c1.1 0 1.6-.9 1.6-1.9 0-.8-.4-1.8-1.6-1.8h-2.2v3.7zM31.1 9.4h3.6c1.5 0 2.5.5 3.1 1.8.5 1 .5 3.3.5 3.6 0 2.5-.2 3.9-.7 4.7-.6 1-1.8 1.5-3.8 1.5h-2.7V9.4zm1.5 10.2H34c2 0 2.8-.8 2.8-3.5v-2.3c0-2.3-.7-3.2-2.3-3.2h-1.9v9zM46.5 12.4c0-1.4-.6-2.1-2-2.1-.5 0-2.1.1-2.1 2.5v3.9c0 2.5.7 3.2 2.1 3.2 1.1 0 1.8-.3 2.1-.5v-3.5h-2.1v-1.3h3.6v5.6c-.9.5-2 .9-3.5.9-2.4 0-3.6-1.3-3.6-4.5v-3.8c0-2.3 1.2-3.8 3.6-3.8 2.5 0 3.7.9 3.6 3.3h-1.7zM53.9 20.9v-1.3c3.2-4.5 4.2-5.4 4.2-7.3 0-.9-.4-1.5-1.4-1.5-1.1 0-1.3.9-1.3 1.8h-1.5c-.1-1.8.8-3 2.7-3 2 0 3 .9 3 2.9 0 2.5-1.2 3.3-4.1 7.1h4.4v1.3h-6z"/></g><g fill="#ED2224"><path d="M24.993 49.672c-.388-.607-1.592.259-1.692-1.005-.11-1.393.05-2.299 1.812-2.26 1.512.04 3.025-.268 4.538-.348.717-.03 1.015-.308 1.174-.985a450.886 450.886 0 0 1 1.901-8.062c.09-.378.02-1.065.697-.865.577.169.309.746.22 1.154-.528 2.319-1.036 4.638-1.653 6.927-.239.876-.13 1.652.04 2.488.09.398.239.299.428.13 1.124-.966 2.319-1.861 3.344-2.916.557-.588-.398-.926-.607-1.404-.15-.358-.677-.687-.21-1.065.528-.438.777.15 1.026.468a257.382 257.382 0 0 1 2.826 3.683c.2.258.329.547.06.816-.209.209-.547.189-.657-.05-1.055-2.26-2.329-.886-3.513-.21-1.871 1.056-3.294 2.41-2.687 4.858.04.169.12.328.179.488.11-.12.239-.22.328-.349.269-.418.627-.826.747-1.284.587-2.14 2.398-1.94 4-2.13.419-.05.678.289.628.697-.04.418-.398.737-.757.538-2.04-1.085-2.836.268-3.543 1.761-.298.627-1.194 1.204-.806 1.841.418.697 1.413.389 2.17.418.388.01.776.01 1.164 0 .269-.01.637.08.707-.258.05-.26-.01-.637-.17-.846-.388-.508-.577-1.016-.228-1.603.368-.627.985-.647 1.612-.577 1.622.18 3.245.338 4.847.587.677.1.946-.13 1.115-.746.487-1.841 1.015-3.673 1.513-5.514.228-.836.706-1.364 1.612-1.125.896.23 1.095 1.025.776 1.722-.876 1.94-.169 2.27 1.692 2.1 1.95-.179 3.922-.06 5.882-.03.777.01 1.145-.199 1.234-1.045.07-.667.359-1.323.617-1.95.309-.737.906-1.085 1.672-.757.747.309.866.985.628 1.682-.419 1.185-.349 2.03 1.194 2.1.488.02.398.458.398.767.01 1.662-.07 3.324.04 4.976.06.896-.627 2.03.886 2.617.716.28-.15 2.797-1.016 2.996-.507.12-.438-.318-.477-.577-.846-5.026-4.2-8.25-8.898-8.54-4.011-.248-7.853 2.847-9.117 7.385-.159.578-.458.836-1.045.836-3.125 0-6.25.01-9.365-.03-.408-.01-.806-.288-1.215-.447-2.02-2.35-4.03-4.698-6.05-7.057zm33.55.568c.19.398.558.587.926.368.777-.478.578-1.294.558-2.03l.01.01c-.378-.568-.946-.628-1.414-.28-.736.558-.11 1.285-.08 1.932zM25.562 56.3c.577 1.902.577 3.852-.458 5.465-.976 1.533-2.27 3.085-4.17 3.483-1.782.378-3.773.637-5.355-.477-1.493-1.055-3.205-2.2-3.543-4.18-.309-1.792-.657-3.803.477-5.365 1.055-1.453 2.16-3.195 4.12-3.533 1.812-.309 3.823-.707 5.455.438 1.513 1.065 3.006 2.269 3.474 4.17zm-2.887 2.14a3.83 3.83 0 0 0-3.842-3.831c-2.13 0-3.881 1.771-3.861 3.921.02 2.13 1.732 3.782 3.901 3.772 2.13-.01 3.812-1.712 3.802-3.861z"/><path d="M51.597 65.557c-3.215.179-6.609-3.195-6.828-4.967-.219-1.821-.686-3.812.488-5.414 1.085-1.483 2.27-3.115 4.23-3.513 1.791-.358 3.772-.577 5.364.507 1.523 1.035 3.235 2.22 3.514 4.2.288 2.09.587 4.17-1.195 6.141-.895.996-3.075 3.046-5.573 3.046zm3.792-7.126c-.02-2.15-1.712-3.832-3.842-3.822s-3.931 1.841-3.872 3.931c.05 2.09 1.822 3.782 3.952 3.762 2.14-.01 3.772-1.692 3.762-3.871zm-30.396-8.759c2.01 2.35 4.031 4.708 6.041 7.057.22.607.737.587 1.235.587 3.095 0 6.19 0 9.276.01.328 0 .806-.13.796.438-.01.527-.438.488-.796.488-4.091 0-8.182.06-12.262-.03-1.473-.03-2.668-.349-3.185-2.31-1.433-5.424-8.191-7.165-12.391-3.373-.289.258-.518.826-.976.597-.408-.21-.129-.757-.219-1.155-.169-.796.419-1.712-.557-2.408-.408-.289 1.294-2.986 1.871-2.986 2.737 0 5.474.04 8.201-.02 1.294-.03.996.826 1.055 1.563.06.796-.07 1.303-1.075 1.293-2.926-.04-5.852-.01-8.778 0-.02 0-.05.03-.14.09 3.544 0 7.017-.01 10.5.01.479 0 .946.1 1.404.15zm36.487-1.214c0-1.403-.02-2.817.01-4.22.03-1.204.438-2.27 1.811-2.359 1.394-.09 1.911.956 2.04 2.14a41.642 41.642 0 0 1-.01 8.908c-.129 1.184-.656 2.25-2.04 2.13-1.323-.11-1.791-1.155-1.801-2.379-.03-1.403-.01-2.817-.01-4.22z"/><path d="M51.657 49.195c4.359.01 8.3 3.662 8.798 8.16.04.369.13.777-.378.847-.458.07-.707-.23-.787-.667-.189-1.145-.468-2.27-1.095-3.275-1.761-2.836-5.026-4.26-8.2-3.553-3.245.717-5.584 3.275-6.022 6.589-.07.537-.199 1.025-.886.906-.736-.13-.477-.667-.398-1.105.846-4.698 4.499-7.912 8.968-7.902zM35.195 59.416h-7.873c-.348 0-.776.06-.786-.478-.01-.517.378-.557.746-.557 5.305-.01 10.61-.01 15.915 0 .368 0 .756.04.746.557-.01.548-.438.478-.786.478-2.657.01-5.305 0-7.962 0zM9.228 54.639v-2.32c0-.387.12-.626.567-.636.448-.01.677.179.677.627 0 .497.04.995 0 1.493-.06.806.07 1.353 1.075 1.264.518-.05.597.229.478.746-.259 1.095-1.523.985-2.03 1.802-.17.268-.777.01-.767-.588 0-.786-.01-1.582 0-2.388zm3.314-2.837c-.288.528.389 1.543-.477 1.573-.727.03-.836-.946-.836-1.652-.01-.687.149-1.623.836-1.563.905.09.169 1.105.477 1.642z"/><path d="M60.614 59.456c-.418-.24-1.294.358-1.244-.587.05-.836.856-.478 1.324-.478.467-.01 1.303-.319 1.254.557-.05.866-.886.279-1.334.508zm-.577-10.879c-.17.707-.647.817-1.254.598-.26-.1-.448-.349-.26-.578.479-.587 1.006-.338 1.524-.01-.01 0-.01-.01-.01-.01zm-1.493 1.663c-.02-.359-.1-.757.418-.836.288-.04.657-.11.796.238.07.18.02.518-.12.657-.358.369-.746.2-1.104-.07.01 0 .01.01.01.01zm-36.447 8.21a3.296 3.296 0 0 1-3.265 3.285c-1.791 0-3.274-1.473-3.284-3.265-.01-1.781 1.463-3.254 3.275-3.284 1.771-.02 3.284 1.473 3.274 3.265zm32.744.02c-.01 1.752-1.483 3.265-3.194 3.265-1.852 0-3.374-1.493-3.364-3.284.01-1.772 1.532-3.275 3.294-3.265 1.791.01 3.274 1.503 3.264 3.284z"/></g><path fill="#FFF" d="M0 75h75v75H0z"/></svg>