<svg version="1.2" baseProfile="tiny" xmlns="http://www.w3.org/2000/svg" viewBox="0 0 75 75" overflow="visible" xml:space="preserve"><path fill="#FFF" d="M0 0h75v75H0z"/><g fill="#ED2224"><path d="M20.6 17.5v.3c0 1.6 1 2.1 1.9 2.1 1.2 0 2.1-.5 2.1-1.9 0-2.6-5.2-2.3-5.2-5.7 0-2 1.5-3.1 3.4-3.1 2.1 0 3.3 1 3.2 3.4h-1.5c0-1.3-.4-2.1-1.8-2.1-.9 0-1.8.4-1.8 1.7 0 2.5 5.2 2.2 5.2 5.8 0 2.4-1.7 3.2-3.6 3.2-3.4 0-3.4-2.6-3.4-3.7h1.5zM34 12.4c0-1.4-.6-2.1-2-2.1-.5 0-2.1.1-2.1 2.5v3.9c0 2.5.7 3.2 2.1 3.2 1.1 0 1.8-.3 2.1-.5v-3.5H32v-1.3h3.6v5.6c-.9.5-2 .9-3.5.9-2.4 0-3.6-1.3-3.6-4.5v-3.8c0-2.3 1.2-3.8 3.6-3.8 2.5 0 3.7.9 3.6 3.3H34zM39.4 17.5v.3c0 1.6 1 2.1 1.9 2.1 1.2 0 2.1-.5 2.1-1.9 0-2.6-5.2-2.3-5.2-5.7 0-2 1.5-3.1 3.4-3.1 2.1 0 3.3 1 3.2 3.4h-1.5c0-1.3-.4-2.1-1.8-2.1-.9 0-1.8.4-1.8 1.7 0 2.5 5.2 2.2 5.2 5.8 0 2.4-1.7 3.2-3.6 3.2-3.4 0-3.4-2.6-3.4-3.7h1.5zM47.2 9.4h1.5v7.4c0 2.5.8 3.2 2.2 3.2s2.2-.6 2.2-3.2V9.4h1.5v7.3c0 3.2-1.2 4.5-3.6 4.5-2.4 0-3.6-1.3-3.6-4.5V9.4zM17.5 31c1.6.2 2 1.4 2 2.9 0 2-1 3.2-3 3.2-1.9 0-3-1.2-3-3.2 0-1.4.4-2.7 2-2.9-1.3-.3-1.9-1.3-1.9-2.6 0-1.7 1.1-2.8 2.8-2.8 1.7 0 2.8 1 2.8 2.8.2 1.3-.4 2.4-1.7 2.6zm.6 2.9c0-1-.1-2.3-1.5-2.3s-1.5 1.3-1.5 2.3c0 1 .4 2 1.5 2s1.5-1 1.5-2zm-.2-5.5c0-.8-.4-1.7-1.4-1.7-.9 0-1.4.8-1.4 1.7 0 .8.3 2 1.4 2 1.2 0 1.4-1.2 1.4-2zM20.9 36.9v-1.3c3.2-4.5 4.2-5.4 4.2-7.3 0-.9-.4-1.5-1.4-1.5-1.1 0-1.3.9-1.3 1.8h-1.5c-.1-1.8.8-3 2.7-3 2 0 3 .9 3 2.9 0 2.5-1.2 3.3-4.1 7.1h4.4v1.3h-6zM28 31.4c0-3 0-5.8 3-5.8 1.7 0 2.8 1 2.8 2.7h-1.5c0-.8-.4-1.6-1.3-1.6-1.2 0-1.5 1.1-1.5 4 .4-.6 1-1 1.8-1 1.4 0 2.6.8 2.6 3.7 0 2-.8 3.7-3 3.7-2.9 0-2.9-2.8-2.9-5.7zm3.1 4.5c1.2 0 1.4-1.3 1.4-2.8 0-1-.2-2.2-1.5-2.2s-1.5 1.4-1.5 2.4c0 1.1.1 2.6 1.6 2.6zM35.8 36.9V25.3h5.7v1.3h-4.3v3.7h4v1.3h-4v5.3h-1.4zM45.1 25.4H47L50.8 37h-1.6l-.8-2.8h-4.5L43 37h-1.5l3.6-11.6zm.9 1.3-1.8 6.2h3.7L46 26.7zM55 25.4h1.9L60.7 37h-1.6l-.8-2.8h-4.5l-.9 2.8h-1.5L55 25.4zm.9 1.3-1.8 6.2h3.7l-1.9-6.2zM30.5 52.9v-1.3c3.2-4.5 4.2-5.4 4.2-7.3 0-.9-.4-1.5-1.4-1.5-1.1 0-1.3.9-1.3 1.8h-1.5c-.1-1.8.8-3 2.7-3 2 0 3 .9 3 2.9 0 2.5-1.2 3.3-4.1 7.1h4.4v1.3h-6zM43.1 41.8v1.3h-3.7v3.2c.2-.5 1-.8 1.8-.8 1.6 0 2.3 1.2 2.3 3.7 0 1.8-.2 3.9-3 3.9-2.3 0-2.7-1.3-2.7-2.8h1.5c0 .9.3 1.7 1.3 1.7 1.4 0 1.5-1.4 1.5-2.4 0-1.6 0-2.9-1.4-2.9-.8 0-1.2.6-1.4 1.3H38v-6.2h5.1z"/></g></svg>