<svg version="1.2" baseProfile="tiny" xmlns="http://www.w3.org/2000/svg" viewBox="0 0 75 75" overflow="visible" xml:space="preserve"><path fill="#FFF" d="M0 0h75v75H0z"/><g fill="#ED2224"><path d="M28.7 20.9h-1.5V9.3h1.5v11.6zM39.6 9.4V21h-2L33 11v10h-1.3V9.4h2.1l4.5 9.9V9.4h1.3zM42.2 20.9V9.3h5.7v1.3h-4.3v3.7h4v1.3h-4v5.3h-1.4z"/></g><g fill="#ED2224"><path d="M23.1 31.6v5.3h-1.5V25.3h4c2 0 2.8 1.4 2.8 2.9 0 1.4-.8 2.4-2.1 2.6 1.3.2 1.8.7 1.9 3 0 .5.2 2.3.4 3h-1.5c-.4-.8-.3-2.3-.4-3.8-.1-1.4-1.2-1.5-1.7-1.5h-1.9zm0-1.3h2.2c1.1 0 1.6-.9 1.6-1.9 0-.8-.4-1.8-1.6-1.8h-2.2v3.7zM30.6 36.9V25.3h6v1.3h-4.5v3.7h4.2v1.3h-4.2v4h4.6v1.3h-6.1zM38.9 36.9V25.3h3.4c1.6 0 3.2.6 3.2 3.3 0 2.6-2 3.2-3.2 3.2h-1.9v5.1h-1.5zm1.5-6.4H42c.6 0 2-.2 2-2s-1.3-1.9-1.6-1.9h-2v3.9zM47.7 36.9V25.3h1.5v10.3h4.2v1.3h-5.7z"/></g><path fill="#ED2224" d="M33.5 52.9V41.3h3.8c1.6 0 2.1.5 2.6 1.2.4.6.5 1.3.5 1.5 0 1.4-.5 2.4-2 2.7v.1c1.6.2 2.4 1.2 2.4 2.8 0 3-2.2 3.2-3.5 3.2h-3.8zm1.5-6.7h2.1c1.2 0 1.7-.7 1.7-1.8 0-1-.5-1.7-1.8-1.7h-2.1v3.5zm0 5.4h2.1c1.6 0 2.1-1.1 2.1-2 0-1.8-1.1-2.2-2.6-2.2H35v4.2z"/><path fill="#FFF" d="M0 75h75v75H0z"/></svg>