<svg version="1.2" baseProfile="tiny" xmlns="http://www.w3.org/2000/svg" viewBox="0 0 75 75" overflow="visible" xml:space="preserve"><path fill="#FFF" d="M0 0h75v75H0z"/><path fill="#ED2224" d="M33.1 50.1h3.8c.6 0 2.6 0 4 1 1.5 1.1 2 2.9 2 4.5 0 3.6-1.9 5.4-4.1 5.8-.4.1-.9.1-2.1.1h-3.6V50.1zm2.5 9.7h1c1.1 0 2-.1 2.7-.8 1-1 1-2.7 1-3.3 0-1.6-.6-3.1-2.1-3.6-.5-.1-1.2-.2-2.6-.2v7.9zM57.177 32.216c.064.055.128.037.183.037.431-.055.862-.065 1.275.055.247.073.458 0 .678-.074.238-.073.238-.073.238.174v.12c-.009.082.028.137.101.174.66.376 1.073.944 1.33 1.65.183.504.266 1.018.238 1.55-.018.256-.018.256-.257.192a5.188 5.188 0 0 0-.54-.137c.11.036.11.128.1.22-.009.165 0 .339 0 .504 0 .064-.018.11-.082.147-.092.036-.12.146-.055.229.046.055.036.091.018.146-.082.184-.174.358-.257.541-.027.055-.073.074-.128.074-.128-.01-.22.082-.202.21.01.056-.018.092-.055.129-.137.12-.284.238-.422.358-.055.055-.11.064-.183.018-.11-.064-.21 0-.23.128 0 .037-.027.064-.054.083-.183.1-.376.201-.56.302-.036.019-.073.019-.119-.009-.091-.064-.174-.027-.183.083 0 .046-.027.073-.064.091-.193.101-.385.202-.569.303-.045.027-.082.01-.11-.028s-.064-.055-.11-.027c-.045.018-.073.055-.064.11.01.064-.027.092-.082.11-.184.092-.367.183-.541.284-.055.028-.092.019-.129-.018-.073-.064-.165-.037-.165.064-.009.073-.036.11-.1.138a8.22 8.22 0 0 0-.486.265c-.065.037-.11.046-.165-.018-.028-.037-.055-.055-.101-.027-.037.018-.083.036-.064.091.018.064-.01.101-.065.129-.183.091-.366.192-.55.293-.046.028-.082.018-.11-.018-.027-.037-.064-.046-.11-.028-.046.019-.082.046-.073.101.009.055-.028.083-.073.1-.184.093-.358.193-.541.285-.046.028-.092.028-.138-.018-.037-.046-.073-.046-.12-.019-.036.028-.063.046-.054.101.018.055-.028.083-.064.101-.165.092-.33.174-.495.266-.055.028-.11.055-.184 0-.064-.046-.137 0-.146.064-.01.092-.065.11-.138.138-.156.055-.312.1-.495.165.082.009.128.018.192.018-.064.073-.137.064-.201.064h-2.888c-1.137 0-2.265.01-3.402-.009-2.173-.027-4.346 0-6.51-.027-2.237-.028-4.483 0-6.72-.019-2.411-.027-4.813-.009-7.225-.018-.596 0-1.182-.01-1.778-.018a.423.423 0 0 1-.23-.055c.037-.046.092-.01.138-.037-.202-.055-.394-.11-.587-.156-.064-.018-.11-.037-.128-.12-.018-.082-.12-.118-.183-.063-.046.046-.092.046-.147.027a14.036 14.036 0 0 1-.569-.202c-.055-.018-.091-.045-.082-.11.01-.045-.01-.064-.046-.073-.046-.018-.073-.009-.1.028-.047.073-.102.055-.166.036-.174-.064-.348-.119-.522-.183-.065-.018-.101-.055-.092-.12.009-.045-.018-.073-.064-.082-.037-.009-.064 0-.092.037-.037.055-.082.046-.128.027a12.17 12.17 0 0 0-.532-.183c-.064-.018-.12-.046-.138-.12-.018-.063-.082-.09-.137-.036-.055.046-.101.037-.156.019-.174-.065-.348-.12-.523-.184-.055-.018-.1-.037-.11-.119 0-.083-.082-.11-.146-.055a.128.128 0 0 1-.138.018l-.568-.192c-.046-.019-.074-.046-.083-.101-.018-.11-.1-.147-.192-.083a.097.097 0 0 1-.11.01c-.193-.083-.385-.175-.578-.257-.055-.028-.064-.064-.073-.12-.01-.1-.065-.137-.165-.1-.046.018-.083.009-.12-.019-.165-.119-.339-.238-.504-.357-.037-.028-.046-.064-.046-.11a.212.212 0 0 0-.21-.248c-.046 0-.074-.018-.092-.055-.11-.165-.22-.339-.33-.504-.028-.046-.046-.082-.01-.137.074-.101.056-.202-.054-.266-.037-.019-.046-.046-.055-.083-.019-.202-.046-.394-.065-.596-.009-.055 0-.11.055-.147.065-.045.065-.183.01-.229-.046-.046-.046-.082-.028-.137.055-.184.1-.367.156-.56.018-.055.037-.1.11-.11.092-.009.147-.183.082-.256-.036-.046-.082-.01-.119 0-.477.137-.953.284-1.43.421-.147.046-.165.028-.156-.119.018-.944.459-1.687 1.164-2.283.468-.394 1.018-.641 1.614-.779l.66-.165a.265.265 0 0 0 .184-.128c.155-.239.33-.477.486-.716.018-.027.064-.064.036-.1a.238.238 0 0 0-.146-.083c-.046-.009-.046.055-.065.083-.055.146-.128.284-.174.43-.1.386-.587.514-.898.395-.193-.074-.404-.083-.605-.12-.092-.018-.184-.027-.276-.045a.126.126 0 0 1-.091-.074c-.092-.201-.092-.21.128-.275.239-.064.486-.137.724-.201a.183.183 0 0 0 .138-.12l.193-.495c.027-.064.009-.091-.046-.119-.129-.064-.248-.137-.376-.21-.064-.037-.083-.074-.046-.147.183-.285.348-.578.532-.853a1.24 1.24 0 0 1 .476-.394c.11-.055.266-.037.395-.046.641-.046 1.292-.018 1.943-.028.23 0 .459.01.688-.055.037-.009.073-.018.1-.009.083.019.13 0 .12-.091 0-.056.037-.101.1-.092.102.018.175-.028.23-.101.156-.193.349-.238.587-.22.312.018.633.01.944.01.101 0 .174.027.239.1.036.046.082.082.119.12.055.063.11.11.21.1.047-.01.092.01.092.064-.009.11.065.11.147.11h3.264c.11 0 .22.019.32.092.047.037.102.027.157.027.87 0 1.733 0 2.604.01.22 0 .449.009.669.018.082 0 .137-.01.137-.11 0-.055.037-.073.083-.073h.174c.055 0 .101.027.101.082 0 .073.046.1.11.092h.174c.074 0 .12-.01.129-.092 0-.046.036-.055.073-.064h.21c.038 0 .074.018.074.055 0 .1.074.1.147.1h1.559c1.09 0 2.182 0 3.273.01.11 0 .146-.028.146-.138a10.53 10.53 0 0 1 0-.76c0-.101-.027-.138-.128-.138-.605 0-1.22-.01-1.825-.018-.11 0-.21.064-.33.045-.073-.009-.11-.027-.1-.1v-.01c.064-.33-.11-.577-.285-.825-.348-.504-.678-1.027-1.027-1.54-.357-.541-.715-1.073-1.072-1.614-.037-.046-.074-.082-.129-.073h-.091c-.211 0-.248-.064-.202-.275.018-.083.073-.064.128-.064H33c.083.009.12-.028.12-.12 0-.082-.019-.165.11-.165.046 0 .046-.055.046-.091v-.505c0-.036-.01-.073-.046-.1-.064-.074-.046-.165.046-.211s.183-.092.284-.138c.046-.018.092-.046.082-.11-.009-.128.11-.128.175-.128.064 0 .192-.01.183.128 0 .064.037.092.092.12.082.045.174.082.256.137.092.055.092.137 0 .202a.102.102 0 0 0-.045.091v.523c0 .046.009.092.064.082.1-.009.128.055.119.138-.01.092.009.147.128.137.11 0 .12-.055.12-.137 0-.248 0-.248.247-.312l.1-.027c.102-.019.157-.055.166-.174a.4.4 0 0 1 .312-.358c.183-.055.357.018.467.192.046.065.083.074.156.056.11-.037.266-.028.33-.11.055-.065.01-.211.01-.33v-.725c0-.092.036-.147.128-.128.238.055.366-.147.531-.248.046-.027.028-.091.019-.137-.01-.175.009-.193.174-.193h.458c.083 0 .129-.027.12-.11-.01-.1.027-.165.137-.147.073.01.12-.018.11-.1-.01-.083.037-.101.11-.101h.963c.073 0 .128.018.119.11-.01.064.027.1.092.1.1-.009.146.046.128.138-.01.12.037.147.147.138.082-.01.174-.01.256 0 .092.009.138-.037.138-.12 0-.082 0-.165.128-.155.046 0 .055-.046.046-.083-.009-.092.037-.128.12-.128.32 0 .65 0 .971.009.074 0 .129.018.12.1-.01.083.036.102.11.102.155 0 .164 0 .164.155 0 .083.028.12.12.11h.44c.082 0 .128.037.11.12-.046.238.055.44.192.614.147.183.165.403.174.623.01.147 0 .294-.009.44 0 .065.01.092.083.11.32.046.642.101.953.166.101.018.11-.019.11-.101v-1.522c0-.11.074-.165.156-.12.046.028.055.074.064.12.074.284.129.577.211.862.074.247.11.495.092.751-.01.101.037.138.128.147.358.055.715.12 1.064.183.1.019.183.074.266.129.064.036.11.046.183.009.303-.174.624-.01.66.34.01.09.046.128.12.173.229.11.449.239.678.358a.21.21 0 0 1 .11.165c.018.092.064.147.165.165.367.073.65.275.908.55.055.064.11.101.201.092a.252.252 0 0 1 .211.073c.064.064.129.064.211.064h1.064c.155 0 .165 0 .174.165.009.074.046.092.1.092h.395c.082 0 .137.037.128.12-.009.09.037.11.12.11.834.036 1.668.091 2.502.1.395.01.789-.009 1.174.018.477.028.944.01 1.421.019.789.018 1.586.046 2.375.036.266 0 .531-.027.797-.045.11-.01.147.036.147.146-.01.165 0 .321 0 .486 0 .064-.018.101-.092.092-.742-.073-1.494-.037-2.237-.037-1.164 0-2.328.028-3.502.028-.578 0-1.146.018-1.724.046-.779.045-1.558.073-2.338.064-.082 0-.165-.019-.21.082-.01.028-.065.037-.101.055-.12.055-.248.083-.33.202-.046.064-.138.083-.22.083-.046 0-.083 0-.12.036-.091.11-.183.22-.266.33a.107.107 0 0 0-.018.092l.11.413c.01.045.037.064.083.064h.834c.073 0 .092-.046.092-.101-.01-.101.036-.128.137-.128.376 0 .752.009 1.119 0 .11 0 .146.036.146.146-.009.321 0 .642-.009.963 0 .092.028.12.12.12.614-.01 1.228-.02 1.833 0 .294.008.303-.074.294.265 0 .082.036.11.11.11h.091c.083-.01.12.037.12.12 0 .283 0 .558-.01.843 0 .055 0 .11-.055.146-.036.028-.027.074-.027.11v.44c0 .092-.028.147-.129.147-.064 0-.1.01-.1.092s.045.082.11.082c.247.019.504.019.751.019.45 0 .899.027 1.348.027.11 0 .147-.036.147-.146 0-.193.009-.376.009-.569 0-.092-.046-.12-.128-.12-.321 0-.275.02-.275-.283 0-.312-.028-.285.275-.285h.412c.092 0 .138.028.129.129-.01.11 0 .22 0 .32 0 .083-.028.11-.11.11-.239.01-.239.01-.239.248v.477c0 .073.028.11.101.1h.138c.165 0 .21-.036.265-.2.037-.102.101-.184.165-.267.129-.174.33-.284.459-.467.009-.019.027-.028.046-.037.082-.046.165-.128.256-.073.092.046.046.165.046.247.01.202 0 .404 0 .605.01.092.01.184-.137.193zm-21.06 7.17c-.651 0-1.311 0-1.962-.01-.092 0-.12.019-.147.11-.092.285-.22.56-.385.807a2.948 2.948 0 0 1-.642.706c-.027.019-.064.055 0 .074.074.018.074.073.083.137l.027.413c.01.082.037.137.138.128.11-.01.22-.01.32 0s.138-.046.147-.137l.055-.413c.019-.128.046-.147.184-.147.11 0 .128.064.137.156 0 .128.019.257.028.394.009.101.046.156.156.147.1-.01.201-.01.302 0 .11.01.138-.046.147-.137.018-.147.046-.294.064-.45.01-.1.083-.11.156-.11s.137.01.147.11c.009.165.027.321.045.486 0 .074.028.101.101.101h.349c.073 0 .11-.027.119-.1.018-.166.046-.33.082-.487.028-.137.138-.073.22-.091.074-.01.083.055.083.11.01.155.037.311.046.467.009.064.027.101.1.101.13 0 .257-.01.377.01.082.008.119-.037.137-.12.018-.156.055-.312.064-.468.01-.128.11-.082.175-.091.064-.01.119.009.119.1.009.166.027.321.046.487 0 .064.027.1.1.091h.367c.083 0 .11-.046.12-.119.018-.156.045-.312.064-.468.009-.1.073-.1.146-.1.074 0 .138 0 .147.1.01.156.027.312.046.468.009.083.036.128.128.12.12-.01.238 0 .358 0 .064 0 .1-.028.1-.092.019-.156.046-.321.065-.477.009-.129.091-.12.183-.12s.128.046.138.129l.027.45c0 .073.037.11.11.11h.367c.064 0 .092-.028.1-.083.065-.285.074-.294-.173-.459a3.173 3.173 0 0 1-1.238-1.687c-.037-.1-.083-.128-.184-.128-.687-.018-1.338-.018-1.99-.018zm12.9 1.705c-.064-.1-.174-.156-.248-.238a3.529 3.529 0 0 1-.76-1.257c-.028-.091-.074-.128-.175-.128-1.054 0-2.1-.01-3.154-.018-.229 0-.192-.037-.275.192a3.115 3.115 0 0 1-1.137 1.513c-.128.092-.174.193-.156.34.01.064.019.119.019.183 0 .046.018.073.073.073.128-.01.257.018.394.01.064-.01.101-.037.11-.102.019-.156.055-.32.083-.476.018-.12.1-.101.174-.101s.12.018.128.11c.01.146.037.293.046.449.01.1.046.138.147.138.12-.01.238 0 .357 0 .065 0 .11-.019.12-.092.018-.147.046-.294.064-.45.009-.11.055-.137.156-.137.11 0 .156.037.165.138l.027.421c0 .083.028.11.11.11h.358c.073 0 .11-.027.119-.1.018-.147.055-.285.064-.431.01-.129.074-.156.174-.156.12 0 .138.082.138.165l.027.403c0 .074.028.12.12.12h.357c.064 0 .101-.019.11-.092.019-.156.055-.303.064-.459.01-.156.11-.119.193-.119.1-.01.12.055.12.138l.027.412c.009.083.036.129.128.12.12-.01.23 0 .348 0 .074 0 .101-.028.11-.101.028-.166.065-.321.083-.486.018-.12.1-.074.165-.083.064-.01.12 0 .128.092.01.137.037.284.046.422.01.146.019.155.165.155.11 0 .211-.009.321.019.073.018.11-.028.12-.092l.054-.367c0-.192 0-.192.193-.238zm-20.17-.046c-.01-.046-.047-.064-.065-.092a3.422 3.422 0 0 1-.89-1.237c-.045-.12-.036-.275-.146-.34-.11-.064-.257-.009-.385-.018-.138-.018-.193.037-.238.165a3.114 3.114 0 0 1-1.018 1.467c-.092.073-.12.147-.1.248l.027.357c.009.074.036.12.128.11.1-.009.202 0 .302 0 .166 0 .156 0 .184-.165.018-.137.046-.284.064-.422.018-.119.1-.082.174-.082.064-.01.12 0 .129.092.009.155.036.311.045.467 0 .083.028.11.11.11.11 0 .22-.009.34 0 .091.01.128-.036.137-.119.019-.147.055-.293.074-.44.009-.1.064-.12.146-.12.083 0 .156 0 .165.11.01.138.028.285.037.423.01.091.027.146.137.137.12-.01.239-.01.358.018.073.019.12-.009.12-.091.018-.138.045-.275.054-.413-.009-.073-.009-.156.11-.165zm-9.527-1.742c-.055-.01-.128-.037-.128.064 0 .074-.064.156.082.184.165.036.165.055.129.22-.028.137-.064.266-.092.403-.018.064-.009.11.064.128.11.037.22.074.33.12.083.036.129.009.165-.065.065-.146.147-.284.211-.421.055-.11.129-.064.202-.046.082.027.11.073.082.156-.045.156-.073.302-.119.458-.018.073.01.101.064.12.12.036.23.082.349.119.064.027.1.009.128-.046.064-.138.147-.266.211-.413.046-.11.11-.092.193-.064.091.027.128.073.1.174l-.11.422c-.018.073-.009.128.083.156.1.027.202.064.293.1.074.028.147.028.184-.054.036-.083.1-.156 0-.257-.367-.376-.642-.807-.78-1.32-.027-.101-.073-.12-.174-.12-.486-.009-.98 0-1.467-.018zm35.922.752a.632.632 0 0 1-.027-.073c-.046-.138-.101-.285-.138-.422-.018-.074-.064-.101-.137-.101h-.624c-.082 0-.11.037-.137.1-.11.294-.22.588-.413.844-.11.156-.1.156.01.321.045.064.09.074.155.037.101-.064.211-.12.321-.156.083-.028.092-.073.064-.156-.055-.147-.092-.293-.147-.44-.045-.128.055-.137.12-.183.073-.055.119-.01.156.046.082.128.174.256.256.394.037.055.064.073.129.036.119-.064.238-.119.357-.183.028-.01.064-.018.055-.064z"/></svg>