<svg version="1.2" baseProfile="tiny" xmlns="http://www.w3.org/2000/svg" viewBox="0 0 75 75" overflow="visible" xml:space="preserve"><path fill="#FFF" d="M0 0h75v75H0z"/><g fill="#ED2224"><path d="M28.6 12.4c0-1.4-.6-2.1-2-2.1-.5 0-2.1.1-2.1 2.5v3.9c0 2.5.7 3.2 2.1 3.2 1.1 0 1.8-.3 2.1-.5v-3.5h-2.1v-1.3h3.6v5.6c-.9.5-2 .9-3.5.9-2.4 0-3.6-1.3-3.6-4.5v-3.8c0-2.3 1.2-3.8 3.6-3.8 2.5 0 3.7.9 3.6 3.3h-1.7zM32.9 9.4h1.5v7.4c0 2.5.8 3.2 2.2 3.2s2.2-.6 2.2-3.2V9.4h1.5v7.3c0 3.2-1.2 4.5-3.6 4.5-2.4 0-3.6-1.3-3.6-4.5V9.4zM50.8 9.4V21h-2l-4.6-10v10h-1.3V9.4H45l4.5 9.9V9.4h1.3z"/></g><g fill="#ED2224"><path d="M23.1 31.6v5.3h-1.5V25.3h4c2 0 2.8 1.4 2.8 2.9 0 1.4-.8 2.4-2.1 2.6 1.3.2 1.8.7 1.9 3 0 .5.2 2.3.4 3h-1.5c-.4-.8-.3-2.3-.4-3.8-.1-1.4-1.2-1.5-1.7-1.5h-1.9zm0-1.3h2.2c1.1 0 1.6-.9 1.6-1.9 0-.8-.4-1.8-1.6-1.8h-2.2v3.7zM30.6 36.9V25.3h6v1.3h-4.5v3.7h4.2v1.3h-4.2v4h4.6v1.3h-6.1zM38.9 36.9V25.3h3.4c1.6 0 3.2.6 3.2 3.3 0 2.6-2 3.2-3.2 3.2h-1.9v5.1h-1.5zm1.5-6.4H42c.6 0 2-.2 2-2s-1.3-1.9-1.6-1.9h-2v3.9zM47.7 36.9V25.3h1.5v10.3h4.2v1.3h-5.7z"/></g><path fill="#ED2224" d="M33.4 41.4H37c1.5 0 2.5.5 3.1 1.8.5 1 .5 3.3.5 3.6 0 2.5-.2 3.9-.7 4.7-.6 1-1.8 1.5-3.8 1.5h-2.7V41.4zm1.5 10.2h1.4c2 0 2.8-.8 2.8-3.5v-2.3c0-2.3-.7-3.2-2.3-3.2h-1.9v9z"/></svg>