<svg version="1.2" baseProfile="tiny" xmlns="http://www.w3.org/2000/svg" viewBox="0 0 75 75" overflow="visible" xml:space="preserve"><path fill="#FFF" d="M0 0h75v75H0z"/><path fill="#ED2224" d="M34.9 52.2c1-.4 2-1 3-1.7H40v11.2h-2.4V53c-.5.4-1.4.9-2.6 1.4v-2.2z"/><path fill="none" d="M49.15 26.74h2.902v-3.108h-5.285v3.108h2.383z"/><path fill="#ED2224" d="M25.007 37.517c-.31-4.145-6.527-3.73-6.424.31.207 4.352 6.839 4.042 6.424-.31zm8.912.207c-.208-4.145-6.528-3.938-6.425.207 0 4.352 6.632 4.145 6.425-.207zm26.526-.31c-.208-4.353-6.84-4.146-6.736.206 0 4.56 6.943 4.352 6.736-.207z"/><path fill="#ED2224" d="M61.274 30.263c-.415-1.657-2.28-2.28-3.834-2.175l-.208-.208h-3.004v-1.14h-.519v-4.766h-1.14v-.829h-6.32v.415h-.933v10.465h-2.59V18.762h-6.735v-.725H33.4v.725h-3.938v-.725h-2.59v.725h-4.249v-.725h-2.59v.725h-5.596c.519 2.176-1.347 15.75 1.866 15.646 2.383-.829 3.833-4.455 6.942-2.28 4.145 3.524 5.388-1.76 9.222-.828 1.243.518 1.969 2.072 3.005 2.694v.207l9.636.414v2.487c1.14-.103 4.456.311 5.492-.31 3.005-2.798 4.663-8.083 9.947-5.285.622 0 .83-.725.726-1.244zm-14.507-6.631h5.285v3.108h-5.285v-3.108z"/></svg>