<svg version="1.2" baseProfile="tiny" xmlns="http://www.w3.org/2000/svg" viewBox="0 0 75 75" overflow="visible" xml:space="preserve"><path fill="#FFF" d="M0 0h75v75H0z"/><path fill="#ED2224" d="M34 50.5h7.6v2l-3.8 9.2h-2.7l4.1-9.3h-5.1v-1.9z"/><path fill="none" d="M49.123 26.816h2.901v-3.109H46.74v3.109h2.383z"/><path fill="#ED2224" d="M24.98 37.592c-.311-4.145-6.528-3.73-6.424.31.207 4.353 6.838 4.042 6.424-.31zm8.911.207c-.207-4.145-6.528-3.937-6.424.207 0 4.352 6.631 4.145 6.424-.207zm26.526-.31c-.207-4.353-6.839-4.146-6.735.206 0 4.56 6.942 4.352 6.735-.207z"/><path fill="#ED2224" d="M61.246 30.339c-.415-1.658-2.28-2.28-3.834-2.176l-.207-.208H54.2v-1.14h-.518V22.05h-1.14v-.829h-6.32v.415h-.933V32.1h-2.59V18.837h-6.736v-.725h-2.59v.725h-3.938v-.725h-2.59v.725h-4.248v-.725h-2.59v.725H14.41c.518 2.176-1.347 15.75 1.865 15.646 2.383-.829 3.834-4.455 6.942-2.28 4.145 3.524 5.388-1.76 9.222-.828 1.244.518 1.97 2.072 3.005 2.694v.207l9.637.414v2.487c1.14-.103 4.455.311 5.491-.31 3.005-2.798 4.663-8.083 9.948-5.285.621 0 .829-.725.725-1.243zM46.74 23.707h5.284v3.109H46.74v-3.109z"/></svg>