<svg version="1.2" baseProfile="tiny" xmlns="http://www.w3.org/2000/svg" viewBox="0 0 75 75" overflow="visible" xml:space="preserve"><path fill="#FFF" d="M0 0h75v75H0z"/><path fill="#ED2224" d="M33.7 59.2V57l4.5-6.6h2.4v6.9h1.5v1.8h-1.5v2.4h-2.4v-2.4h-4.5zm1.8-1.8h2.8v-4.1l-2.8 4.1z"/><path fill="none" d="M49.197 26.74h2.901v-3.108h-5.284v3.108h2.383z"/><path fill="#ED2224" d="M25.054 37.517c-.31-4.145-6.528-3.73-6.424.31.207 4.352 6.838 4.042 6.424-.31zm8.911.207c-.207-4.145-6.528-3.938-6.424.207 0 4.352 6.631 4.145 6.424-.207zm26.526-.31c-.207-4.353-6.839-4.146-6.735.206 0 4.56 6.942 4.352 6.735-.207z"/><path fill="#ED2224" d="M61.32 30.263c-.414-1.657-2.28-2.28-3.834-2.175l-.207-.208h-3.005v-1.14h-.518v-4.766h-1.14v-.829h-6.32v.415h-.933v10.465h-2.59V18.762h-6.736v-.725h-2.59v.725H29.51v-.725h-2.59v.725h-4.25v-.725h-2.59v.725h-5.595c.518 2.176-1.347 15.75 1.865 15.646 2.383-.829 3.834-4.455 6.942-2.28 4.145 3.524 5.389-1.76 9.222-.828 1.244.518 1.97 2.072 3.005 2.694v.207l9.637.414v2.487c1.14-.103 4.455.311 5.491-.31 3.005-2.798 4.663-8.083 9.948-5.285.621 0 .829-.725.725-1.244zm-14.506-6.631h5.284v3.108h-5.284v-3.108z"/></svg>