<svg version="1.2" baseProfile="tiny" xmlns="http://www.w3.org/2000/svg" viewBox="0 0 75 75" overflow="visible" xml:space="preserve"><path fill="#FFF" d="M0 0h75v75H0z"/><g fill="#ED2224"><path d="M30.5 52.2c1-.4 2-1 3-1.7h2.1v11.2h-2.4V53c-.5.4-1.4.9-2.6 1.4v-2.2zM40.7 58.9c0 .3.2 1.2 1.3 1.2.9 0 1.6-.6 1.6-2.1 0-1.1-.4-2-1.5-2s-1.3.9-1.4 1.1l-2.3-.1.3-6.6h6.8v1.8h-4.7l-.1 2.8c.4-.3.9-.8 2.1-.8 1.8 0 3.3 1.3 3.3 3.6 0 1.9-1.1 4-4 4-1.2 0-2.4-.3-3.1-1.2-.6-.7-.6-1.4-.6-1.8h2.3z"/></g><path fill="none" d="M49.16 26.797h2.902v-3.109h-5.284v3.109h2.383z"/><path fill="#ED2224" d="M25.018 37.573c-.31-4.145-6.528-3.73-6.424.31.207 4.353 6.838 4.042 6.424-.31zm8.911.207c-.207-4.145-6.528-3.937-6.424.207 0 4.352 6.631 4.145 6.424-.207zm26.526-.31c-.207-4.353-6.839-4.146-6.735.206 0 4.56 6.942 4.352 6.735-.207z"/><path fill="#ED2224" d="M61.284 30.32c-.414-1.658-2.28-2.28-3.834-2.176l-.207-.208h-3.005v-1.14h-.518V22.03h-1.14v-.829h-6.32v.415h-.933V32.08h-2.59V18.818H36v-.725h-2.59v.725h-3.938v-.725h-2.59v.725h-4.248v-.725h-2.59v.725h-5.596c.518 2.176-1.347 15.75 1.865 15.646 2.383-.829 3.834-4.455 6.942-2.28 4.145 3.524 5.389-1.76 9.222-.828 1.244.518 1.97 2.072 3.005 2.694v.207l9.637.414v2.487c1.14-.103 4.455.311 5.491-.31 3.005-2.798 4.663-8.083 9.948-5.285.621 0 .829-.725.725-1.243zm-14.506-6.632h5.284v3.109h-5.284v-3.109z"/></svg>