<svg version="1.2" baseProfile="tiny" xmlns="http://www.w3.org/2000/svg" viewBox="0 0 75 75" overflow="visible" xml:space="preserve"><path fill="#FFF" d="M0 0h75v75H0z"/><g fill="#ED2224"><path d="M30.6 52.2c1-.4 2-1 3-1.7h2.1v11.2h-2.4V53c-.5.4-1.4.9-2.6 1.4v-2.2zM40.6 58.9c.1.7.5 1.1 1.2 1.1 1.7 0 1.8-1.7 1.7-3.3-.8.7-1.5.8-2 .8-2.7 0-3.4-2.2-3.4-3.5 0-2.1 1.5-3.7 4-3.7 3.8 0 3.9 3.6 3.9 5.4 0 4.7-1.6 6.1-4.3 6.1-.6 0-3.5 0-3.5-2.9h2.4zm2.9-5c0-1-.5-1.7-1.5-1.7-1.1 0-1.6.9-1.6 1.8 0 .4.1 1.8 1.5 1.8 1.3-.1 1.6-1.2 1.6-1.9z"/></g><path fill="none" d="M49.188 26.797h2.902v-3.109h-5.285v3.109h2.383z"/><path fill="#ED2224" d="M25.045 37.573c-.31-4.145-6.527-3.73-6.424.31.207 4.353 6.839 4.042 6.424-.31zm8.912.207c-.208-4.145-6.528-3.937-6.425.207 0 4.352 6.632 4.145 6.425-.207zm26.526-.31c-.208-4.353-6.84-4.146-6.736.206 0 4.56 6.943 4.352 6.736-.207z"/><path fill="#ED2224" d="M61.312 30.32c-.415-1.658-2.28-2.28-3.834-2.176l-.208-.208h-3.004v-1.14h-.519V22.03h-1.14v-.829h-6.32v.415h-.933V32.08h-2.59V18.818h-6.735v-.725h-2.59v.725H29.5v-.725h-2.59v.725h-4.249v-.725h-2.59v.725h-5.596c.519 2.176-1.347 15.75 1.866 15.646 2.383-.829 3.833-4.455 6.942-2.28 4.145 3.524 5.388-1.76 9.222-.828 1.243.518 1.969 2.072 3.005 2.694v.207l9.636.414v2.487c1.14-.103 4.456.311 5.492-.31 3.005-2.798 4.663-8.083 9.947-5.285.622 0 .83-.725.726-1.243zm-14.507-6.632h5.285v3.109h-5.285v-3.109z"/></svg>