<svg version="1.2" baseProfile="tiny" xmlns="http://www.w3.org/2000/svg" viewBox="0 0 75 75" overflow="visible" xml:space="preserve"><path fill="#FFF" d="M0 0h75v75H0z"/><g fill="#ED2224"><path d="M30.5 52.2c1-.4 2-1 3-1.7h2.1v11.2h-2.4V53c-.5.4-1.4.9-2.6 1.4v-2.2zM38.1 59.2V57l4.5-6.6H45v6.9h1.5v1.8H45v2.4h-2.4v-2.4h-4.5zm1.8-1.8h2.8v-4.1l-2.8 4.1z"/></g><path fill="none" d="M49.197 26.816h2.901v-3.109h-5.284v3.109h2.383z"/><path fill="#ED2224" d="M25.054 37.592c-.31-4.145-6.528-3.73-6.424.31.207 4.353 6.838 4.042 6.424-.31zm8.911.207c-.207-4.145-6.528-3.937-6.424.207 0 4.352 6.631 4.145 6.424-.207zm26.526-.31c-.207-4.353-6.839-4.146-6.735.206 0 4.56 6.942 4.352 6.735-.207z"/><path fill="#ED2224" d="M61.32 30.339c-.414-1.658-2.28-2.28-3.834-2.176l-.207-.208h-3.005v-1.14h-.518V22.05h-1.14v-.829h-6.32v.415h-.933V32.1h-2.59V18.837h-6.736v-.725h-2.59v.725H29.51v-.725h-2.59v.725h-4.25v-.725h-2.59v.725h-5.595c.518 2.176-1.347 15.75 1.865 15.646 2.383-.829 3.834-4.455 6.942-2.28 4.145 3.524 5.389-1.76 9.222-.828 1.244.518 1.97 2.072 3.005 2.694v.207l9.637.414v2.487c1.14-.103 4.455.311 5.491-.31 3.005-2.798 4.663-8.083 9.948-5.285.621 0 .829-.725.725-1.243zm-14.506-6.632h5.284v3.109h-5.284v-3.109z"/></svg>