<svg version="1.2" baseProfile="tiny" xmlns="http://www.w3.org/2000/svg" viewBox="0 0 75 75" overflow="visible" xml:space="preserve"><path fill="#FFF" d="M0 0h75v75H0z"/><g fill="#ED2224"><path d="m29.4 59.4 2.9-2.6c.5-.5 1.1-1 1.7-1.7.6-.8.8-1.1.8-1.6 0-.8-.5-1.4-1.3-1.4-1.3 0-1.4 1.3-1.4 1.6h-2.4c0-.4 0-1.3.7-2.1.6-.8 1.8-1.2 3.2-1.2 2.4 0 3.8 1.3 3.8 3 0 1.2-.4 2.6-5.3 6.5 1.6 0 1.8 0 3.1-.1h2.3v1.9h-7.8v-2.3zM38.5 50.5h7.6v2l-3.8 9.2h-2.7l4.1-9.3h-5.1v-1.9z"/></g><path fill="none" d="M49.123 26.768h2.901v-3.109H46.74v3.109h2.383z"/><path fill="#ED2224" d="M24.98 37.544c-.311-4.144-6.528-3.73-6.424.311.207 4.352 6.838 4.041 6.424-.31zm8.911.207c-.207-4.144-6.528-3.937-6.424.208 0 4.352 6.631 4.144 6.424-.208zm26.526-.31c-.207-4.352-6.839-4.145-6.735.207 0 4.559 6.942 4.352 6.735-.207z"/><path fill="#ED2224" d="M61.246 30.291c-.415-1.658-2.28-2.28-3.834-2.176l-.207-.207H54.2v-1.14h-.518v-4.766h-1.14v-.83h-6.32v.415h-.933v10.466h-2.59V18.789h-6.736v-.725h-2.59v.725h-3.938v-.725h-2.59v.725h-4.248v-.725h-2.59v.725H14.41c.518 2.176-1.347 15.75 1.865 15.647 2.383-.83 3.834-4.456 6.942-2.28 4.145 3.523 5.388-1.761 9.222-.829 1.244.518 1.97 2.073 3.005 2.694v.207l9.637.415v2.487c1.14-.104 4.455.31 5.491-.311 3.005-2.798 4.663-8.082 9.948-5.285.621 0 .829-.725.725-1.243zM46.74 23.659h5.284v3.109H46.74v-3.109z"/></svg>