<svg version="1.2" baseProfile="tiny" xmlns="http://www.w3.org/2000/svg" viewBox="0 0 75 75" overflow="visible" xml:space="preserve"><path fill="#FFF" d="M0 0h75v75H0z"/><path fill="#ED2224" d="M34 15.4c0-3 0-5.8 3-5.8 1.7 0 2.8 1 2.8 2.7h-1.5c0-.8-.4-1.6-1.3-1.6-1.2 0-1.5 1.1-1.5 4 .4-.6 1-1 1.8-1 1.4 0 2.6.8 2.6 3.7 0 2-.8 3.7-3 3.7-2.9 0-2.9-2.8-2.9-5.7zm3.1 4.5c1.2 0 1.4-1.3 1.4-2.8 0-1-.2-2.2-1.5-2.2s-1.5 1.4-1.5 2.4c0 1.1.1 2.6 1.6 2.6z"/><path fill="none" d="M37.926 40.499h3.906l-.102-5.86H35.56l-1.439 5.963 3.804-.103z"/><path fill="#ED2224" d="M14.589 50.78h2.364v2.364H14.59V50.78zM47.28 19.834v26.73h-2.364l-.103-15.524-3.084.102-7.197.617-.925 2.879-.925 2.776L20.86 32.48l-1.028 1.953 11.617 6.888-.822 2.57h-11c0-1.13-1.543-1.747-2.468-1.028-.823.617-.411 2.776-.514 3.599 5.243-.103 11.925-.926 14.187 5.243.514 1.13.514 2.878 1.542 3.598l6.58-.103-.103-5.14h21.795V19.835H47.281zM41.73 34.639v5.86h-7.71l1.438-5.86h6.272z"/><path fill="#ED2224" d="M23.841 49.237a5.748 5.748 0 0 0-5.757 5.758 5.748 5.748 0 0 0 5.757 5.757 5.748 5.748 0 0 0 5.757-5.757c0-3.085-2.57-5.758-5.757-5.758zm0 3.085c1.542 0 2.673 1.13 2.673 2.673s-1.13 2.673-2.673 2.673-2.673-1.131-2.673-2.673 1.131-2.673 2.673-2.673z"/></svg>