<svg version="1.2" baseProfile="tiny" xmlns="http://www.w3.org/2000/svg" viewBox="0 0 75 75" overflow="visible" xml:space="preserve"><path fill="#FFF" d="M0 0h75v75H0z"/><path fill="#ED2224" d="M33.9 9.8h5.7v1.3l-3 9.8h-1.7l3.1-9.8h-4.2V9.8z"/><path fill="none" d="M37.877 40.499h3.906l-.102-5.86h-6.169l-1.44 5.963 3.805-.103z"/><path fill="#ED2224" d="M14.54 50.78h2.364v2.364H14.54V50.78zm32.692-30.945v26.73h-2.364l-.103-15.524-3.084.102-7.197.617-.925 2.879-.925 2.776L20.81 32.48l-1.028 1.953L31.4 41.321l-.822 2.57h-11c0-1.13-1.543-1.747-2.468-1.028-.823.617-.411 2.776-.514 3.599 5.243-.103 11.925-.926 14.187 5.243.514 1.13.514 2.878 1.542 3.598l6.58-.103-.103-5.14h21.795V19.835H47.232zm-5.551 14.804v5.86h-7.71l1.438-5.86h6.272z"/><path fill="#ED2224" d="M23.792 49.237a5.748 5.748 0 0 0-5.757 5.758 5.748 5.748 0 0 0 5.757 5.757 5.748 5.748 0 0 0 5.757-5.757c0-3.085-2.57-5.758-5.757-5.758zm0 3.085c1.542 0 2.673 1.13 2.673 2.673s-1.13 2.673-2.673 2.673c-1.542 0-2.673-1.131-2.673-2.673s1.234-2.673 2.673-2.673z"/></svg>