<svg version="1.2" baseProfile="tiny" xmlns="http://www.w3.org/2000/svg" viewBox="0 0 75 75" overflow="visible" xml:space="preserve"><path fill="#FFF" d="M0 0h75v75H0z"/><path fill="#ED2224" d="M36.4 58.9c.1.7.5 1.1 1.2 1.1 1.7 0 1.8-1.7 1.7-3.3-.8.7-1.5.8-2 .8-2.7 0-3.4-2.2-3.4-3.5 0-2.1 1.5-3.7 4-3.7 3.8 0 3.9 3.6 3.9 5.4 0 4.7-1.6 6.1-4.3 6.1-.6 0-3.5 0-3.5-2.9h2.4zm2.8-5c0-1-.5-1.7-1.5-1.7-1.1 0-1.6.9-1.6 1.8 0 .4.1 1.8 1.5 1.8 1.3-.1 1.6-1.2 1.6-1.9z"/><g fill="#ED2224"><path d="M37.84 11.16c4.503 0 8.733 1.75 11.915 4.932 3.183 3.182 4.933 7.413 4.933 11.915s-1.75 8.732-4.933 11.914a16.736 16.736 0 0 1-11.914 4.933c-4.502 0-8.732-1.75-11.915-4.933-3.182-3.182-4.932-7.412-4.932-11.914s1.75-8.733 4.932-11.915a16.736 16.736 0 0 1 11.915-4.932m0-1.872c-10.342 0-18.719 8.376-18.719 18.719s8.377 18.719 18.719 18.719 18.719-8.377 18.719-18.72S48.183 9.289 37.84 9.289z"/><path d="M33.096 9.877c-8.078 2.078-14.04 9.407-14.04 18.13s5.962 16.051 14.04 18.129V9.877z"/></g></svg>