<svg version="1.2" baseProfile="tiny" xmlns="http://www.w3.org/2000/svg" viewBox="0 0 75 75" overflow="visible" xml:space="preserve"><path fill="#FFF" d="M0 0h75v75H0z"/><path fill="#ED2224" d="M34.1 20.9v-1.3c3.2-4.5 4.2-5.4 4.2-7.3 0-.9-.4-1.5-1.4-1.5-1.1 0-1.3.9-1.3 1.8h-1.5c-.1-1.8.8-3 2.7-3 2 0 3 .9 3 2.9 0 2.5-1.2 3.3-4.1 7.1h4.4v1.3h-6z"/><path fill="none" d="M37.916 40.499h3.907l-.103-5.86h-6.168l-1.44 5.963 3.804-.103z"/><path fill="#ED2224" d="M14.58 50.78h2.364v2.364h-2.365V50.78zm32.692-30.945v26.73h-2.365l-.103-15.524-3.084.102-7.196.617-.926 2.879-.925 2.776L20.85 32.48l-1.028 1.953 11.618 6.888-.823 2.57h-11c0-1.13-1.542-1.747-2.468-1.028-.822.617-.41 2.776-.514 3.599 5.243-.103 11.926-.926 14.188 5.243.514 1.13.514 2.878 1.542 3.598l6.58-.103-.103-5.14h21.795V19.835H47.272zM41.72 34.639v5.86h-7.71l1.439-5.86h6.271z"/><path fill="#ED2224" d="M23.832 49.237a5.748 5.748 0 0 0-5.757 5.758 5.748 5.748 0 0 0 5.757 5.757 5.748 5.748 0 0 0 5.757-5.757c0-3.085-2.57-5.758-5.757-5.758zm0 3.085c1.542 0 2.673 1.13 2.673 2.673s-1.131 2.673-2.673 2.673-2.673-1.131-2.673-2.673 1.13-2.673 2.673-2.673z"/></svg>