<svg version="1.2" baseProfile="tiny" xmlns="http://www.w3.org/2000/svg" viewBox="0 0 75 75" overflow="visible" xml:space="preserve"><path fill="#FFF" d="M0 0h75v75H0z"/><g fill="#ED2224"><path d="M34.4 20.9h-1.5v-9.5l-1.7 1.1v-1.4c.4-.2 1.4-1 1.9-1.3h1.3v11.1zM39.7 14.4c1.3.1 2.3-.4 2.3-1.8 0-1-.4-1.7-1.5-1.7-1.2 0-1.4.9-1.4 1.8h-1.5c-.1-1.9.8-3 2.9-3 1.9 0 3 .9 3 2.9 0 2.1-1.6 2.4-2.2 2.6 1.7.2 2.3 1.2 2.3 2.8 0 2.2-1.2 3.2-3.3 3.2-3.1 0-2.9-2.7-2.9-3.3h1.5c0 1.1.2 2.1 1.5 2.1s1.7-.8 1.7-2c0-1.8-.7-2.2-2.4-2.2v-1.4z"/></g><path fill="none" d="M37.867 40.528h3.907l-.103-5.86h-6.168l-1.44 5.963 3.804-.103z"/><path fill="#ED2224" d="M14.53 50.809h2.365v2.364H14.53V50.81zm32.693-30.945v26.73h-2.365l-.103-15.524-3.084.103-7.196.616-.926 2.88-.925 2.775-11.823-4.935-1.028 1.953 11.617 6.889-.822 2.57h-11c0-1.131-1.542-1.748-2.468-1.028-.822.616-.41 2.775-.514 3.598 5.243-.103 11.926-.925 14.188 5.243.514 1.13.514 2.879 1.542 3.598l6.58-.103-.103-5.14h21.795V19.864H47.223zM41.67 34.668v5.86h-7.71l1.439-5.86h6.271z"/><path fill="#ED2224" d="M23.783 49.267a5.748 5.748 0 0 0-5.757 5.757 5.748 5.748 0 0 0 5.757 5.757 5.748 5.748 0 0 0 5.757-5.757 5.748 5.748 0 0 0-5.757-5.757zm0 3.084c1.542 0 2.673 1.13 2.673 2.673 0 1.542-1.131 2.673-2.673 2.673s-2.673-1.131-2.673-2.673c0-1.44 1.233-2.673 2.673-2.673z"/></svg>