<svg version="1.2" baseProfile="tiny" xmlns="http://www.w3.org/2000/svg" viewBox="0 0 75 75" overflow="visible" xml:space="preserve"><path fill="#FFF" d="M0 0h75v75H0z"/><g fill="#ED2224"><path d="M34.4 20.9h-1.5v-9.5l-1.7 1.1v-1.4c.4-.2 1.4-1 1.9-1.3h1.3v11.1zM43.1 9.8v1.3h-3.7v3.2c.2-.5 1-.8 1.8-.8 1.6 0 2.3 1.2 2.3 3.7 0 1.8-.2 3.9-3 3.9-2.3 0-2.7-1.3-2.7-2.8h1.5c0 .9.3 1.7 1.3 1.7 1.4 0 1.5-1.4 1.5-2.4 0-1.6 0-2.9-1.4-2.9-.8 0-1.2.6-1.4 1.3H38V9.8h5.1z"/></g><path fill="none" d="M37.872 40.528h3.907l-.103-5.86h-6.168l-1.44 5.963 3.804-.103z"/><path fill="#ED2224" d="M14.535 50.809h2.364v2.364h-2.364V50.81zm32.692-30.945v26.73h-2.364L44.76 31.07l-3.084.103-7.197.616-.925 2.88-.925 2.775-11.823-4.935-1.028 1.953 11.617 6.889-.822 2.57h-11c0-1.131-1.543-1.748-2.468-1.028-.822.616-.411 2.775-.514 3.598 5.243-.103 11.926-.925 14.187 5.243.514 1.13.514 2.879 1.542 3.598l6.58-.103-.103-5.14h21.795V19.864H47.227zm-5.551 14.804v5.86h-7.71l1.439-5.86h6.27z"/><path fill="#ED2224" d="M23.788 49.267a5.748 5.748 0 0 0-5.758 5.757c0 3.187 2.57 5.757 5.758 5.757s5.757-2.57 5.757-5.757a5.748 5.748 0 0 0-5.757-5.757zm0 3.084c1.542 0 2.672 1.13 2.672 2.673 0 1.542-1.13 2.673-2.672 2.673s-2.673-1.131-2.673-2.673c0-1.44 1.233-2.673 2.673-2.673z"/></svg>