<svg version="1.2" baseProfile="tiny" xmlns="http://www.w3.org/2000/svg" viewBox="0 0 75 75" overflow="visible" xml:space="preserve"><path fill="#FFF" d="M0 0h75v75H0z"/><path fill="#ED2224" d="M39.9 15.4c0 2.9 0 5.7-3 5.7-1.7 0-2.8-1.1-2.7-2.9h1.5c0 .8.3 1.7 1.3 1.7 1.4 0 1.5-1.6 1.5-4.4-.4.8-1.1 1-1.9 1-.9 0-2.5-.5-2.5-3.5 0-2.5 1.5-3.4 3-3.4 2.9 0 2.8 2.8 2.8 5.8zM35.5 13c0 1.1.2 2.3 1.5 2.3s1.5-1.2 1.5-2.3c0-1-.2-2.3-1.5-2.3S35.5 12 35.5 13z"/><path fill="none" d="M37.858 40.528h3.907l-.103-5.86h-6.169l-1.439 5.963 3.804-.103z"/><path fill="#ED2224" d="M14.52 50.809h2.365v2.364h-2.364V50.81zm32.693-30.945v26.73H44.85l-.103-15.524-3.084.103-7.197.616-.925 2.88-.925 2.775-11.823-4.935-1.028 1.953 11.617 6.889-.822 2.57h-11c0-1.131-1.543-1.748-2.468-1.028-.823.616-.411 2.775-.514 3.598 5.243-.103 11.925-.925 14.187 5.243.514 1.13.514 2.879 1.542 3.598l6.58-.103-.103-5.14h21.795V19.864H47.213zm-5.551 14.804v5.86h-7.71l1.438-5.86h6.272z"/><path fill="#ED2224" d="M23.773 49.267a5.748 5.748 0 0 0-5.757 5.757c0 3.187 2.57 5.757 5.757 5.757s5.758-2.57 5.758-5.757a5.748 5.748 0 0 0-5.758-5.757zm0 3.084c1.542 0 2.673 1.13 2.673 2.673 0 1.542-1.13 2.673-2.673 2.673-1.542 0-2.673-1.131-2.673-2.673 0-1.44 1.234-2.673 2.673-2.673z"/></svg>