<svg version="1.2" baseProfile="tiny" xmlns="http://www.w3.org/2000/svg" viewBox="0 0 75 75" overflow="visible" xml:space="preserve"><path fill="#FFF" d="M0 0h75v75H0z"/><path fill="#ED2224" d="M34.1 53.4c0-1.4 1.1-3.1 3.9-3.1 2.2 0 3.8 1.3 3.8 3 0 1.3-1.1 2.3-2.2 2.4.4.1 1.2.3 1.8 1.2.4.5.5 1.1.5 1.7 0 2-1.9 3.2-4.1 3.2-2.3 0-3.8-1.5-3.8-3.2 0-.9.3-1.5.8-2s1.1-.7 1.5-.8c-.7-.2-2.2-.7-2.2-2.4zm5.4 5c0-1-.8-1.6-1.6-1.6-.9 0-1.6.7-1.6 1.6 0 1.1.8 1.7 1.6 1.7.7 0 1.6-.4 1.6-1.7zm-.1-5c0-.9-.7-1.4-1.5-1.4s-1.5.5-1.5 1.4c0 .8.6 1.4 1.4 1.4.9.1 1.6-.5 1.6-1.4z"/><g fill="#ED2224"><path d="M37.842 11.152c4.502 0 8.733 1.75 11.915 4.933 3.182 3.182 4.932 7.413 4.932 11.914s-1.75 8.733-4.932 11.915a16.736 16.736 0 0 1-11.915 4.932c-4.501 0-8.732-1.75-11.914-4.932-3.182-3.182-4.933-7.413-4.933-11.915s1.75-8.732 4.933-11.914a16.736 16.736 0 0 1 11.914-4.933m0-1.871c-10.342 0-18.718 8.376-18.718 18.718S27.5 46.72 37.842 46.72c10.343 0 18.72-8.377 18.72-18.72S48.184 9.281 37.841 9.281z"/><path d="M33.097 9.87C25.02 11.948 19.058 19.276 19.058 28s5.962 16.05 14.04 18.129V9.87z"/></g></svg>