<svg version="1.2" baseProfile="tiny" xmlns="http://www.w3.org/2000/svg" viewBox="0 0 75 75" overflow="visible" xml:space="preserve"><path fill="#FFF" d="M0 0h75v75H0z"/><path fill="#ED2224" d="M34.2 50.1h7.7V52h-5.3v2.8h4.9v1.9h-4.9v3.1H42v1.9h-7.9V50.1zM57.174 32.214c.064.055.129.037.184.037.43-.055.862-.064 1.274.055.248.073.459 0 .679-.073.238-.074.238-.074.238.174v.12c-.01.082.027.137.1.173.66.376 1.073.945 1.33 1.65.184.505.266 1.018.239 1.55-.019.257-.019.257-.257.193a5.188 5.188 0 0 0-.541-.138c.11.037.11.128.1.22-.008.165 0 .34 0 .504 0 .065-.018.11-.082.147-.091.037-.119.147-.055.23.046.054.037.091.019.146-.083.183-.175.358-.257.541-.028.055-.073.073-.128.073-.129-.009-.22.083-.202.211.009.055-.019.092-.055.129-.138.119-.284.238-.422.357-.055.055-.11.064-.183.018-.11-.064-.211 0-.23.129 0 .036-.027.064-.055.082-.183.101-.375.202-.559.303-.036.018-.073.018-.119-.01-.092-.063-.174-.027-.183.083 0 .046-.028.074-.065.092-.192.1-.385.202-.568.302-.046.028-.082.01-.11-.027-.028-.037-.064-.055-.11-.028-.046.019-.073.055-.064.11.009.065-.028.092-.083.11-.183.092-.366.184-.54.285-.056.027-.092.018-.129-.019-.073-.064-.165-.036-.165.065-.01.073-.037.11-.1.137a8.22 8.22 0 0 0-.487.266c-.064.037-.11.046-.165-.018-.027-.037-.055-.055-.1-.028-.037.018-.083.037-.065.092.018.064-.01.1-.064.128-.183.092-.367.193-.55.294-.046.027-.083.018-.11-.019s-.064-.046-.11-.027c-.046.018-.083.046-.074.1s-.027.083-.073.101c-.183.092-.357.193-.54.285-.047.027-.093.027-.138-.019-.037-.046-.074-.046-.12-.018-.036.027-.064.046-.055.1.019.056-.027.083-.064.102-.165.091-.33.174-.495.266-.055.027-.11.055-.183 0-.064-.046-.138 0-.147.064-.01.091-.064.11-.137.137-.156.055-.312.101-.496.165.083.01.129.019.193.019-.064.073-.138.064-.202.064h-2.888c-1.137 0-2.264.009-3.401-.01-2.173-.027-4.346 0-6.51-.027-2.237-.027-4.483 0-6.72-.018-2.412-.028-4.814-.01-7.225-.019-.596 0-1.183-.009-1.779-.018a.423.423 0 0 1-.229-.055c.037-.046.092-.009.138-.037-.202-.055-.395-.11-.587-.155-.064-.019-.11-.037-.129-.12-.018-.082-.119-.119-.183-.064-.046.046-.092.046-.147.028a14.036 14.036 0 0 1-.568-.202c-.055-.018-.092-.046-.083-.11.01-.046-.009-.064-.045-.073-.046-.019-.074-.01-.101.027-.046.074-.101.055-.165.037-.174-.064-.349-.12-.523-.184-.064-.018-.1-.055-.092-.119.01-.046-.018-.073-.064-.082-.036-.01-.064 0-.091.036-.037.055-.083.046-.129.028a12.17 12.17 0 0 0-.532-.183c-.064-.019-.119-.046-.137-.12-.018-.064-.083-.091-.138-.036-.055.046-.1.036-.155.018-.175-.064-.349-.12-.523-.183-.055-.019-.1-.037-.11-.12 0-.082-.083-.11-.147-.055a.128.128 0 0 1-.137.019c-.193-.064-.376-.129-.569-.193-.046-.018-.073-.046-.082-.1-.019-.11-.101-.147-.193-.083a.097.097 0 0 1-.11.01c-.192-.083-.385-.175-.577-.258-.055-.027-.065-.064-.074-.119-.009-.1-.064-.137-.165-.1-.046.018-.082.008-.119-.019-.165-.12-.34-.238-.504-.358-.037-.027-.046-.064-.046-.11a.212.212 0 0 0-.211-.247c-.046 0-.073-.018-.092-.055-.11-.165-.22-.34-.33-.504-.027-.046-.046-.083-.009-.138.073-.1.055-.202-.055-.266-.037-.018-.046-.046-.055-.082-.018-.202-.046-.395-.064-.596-.01-.055 0-.11.055-.147.064-.046.064-.183.01-.23-.047-.045-.047-.082-.028-.137.055-.183.1-.366.155-.559.019-.055.037-.1.11-.11.092-.01.147-.183.083-.257-.037-.046-.083-.009-.12 0-.476.138-.953.284-1.43.422-.146.046-.164.028-.155-.12.018-.944.458-1.686 1.164-2.282.468-.394 1.018-.642 1.614-.78l.66-.164a.265.265 0 0 0 .183-.129c.156-.238.33-.477.486-.715.018-.027.064-.064.037-.1a.238.238 0 0 0-.147-.083c-.046-.01-.046.055-.064.082-.055.147-.128.284-.174.431-.101.385-.587.514-.899.394-.192-.073-.403-.082-.605-.119-.092-.018-.183-.027-.275-.046a.126.126 0 0 1-.092-.073c-.091-.202-.091-.21.129-.275.238-.064.486-.138.724-.202a.183.183 0 0 0 .138-.119l.192-.495c.028-.064.01-.092-.046-.12-.128-.063-.247-.137-.376-.21-.064-.037-.082-.073-.045-.147.183-.284.348-.577.531-.853a1.24 1.24 0 0 1 .477-.394c.11-.055.266-.036.394-.046.642-.045 1.293-.018 1.944-.027.23 0 .458.01.688-.055.036-.01.073-.018.1-.01.083.02.129 0 .12-.091 0-.055.036-.1.1-.092.101.019.175-.027.23-.1.156-.193.348-.239.586-.22.312.018.633.009.945.009.1 0 .174.027.238.1.037.046.083.083.12.12.054.064.11.11.21.1.046-.009.092.01.092.065-.01.11.064.11.147.11h3.264c.11 0 .22.018.32.091.046.037.101.028.156.028.871 0 1.733 0 2.604.01.22 0 .45.008.67.017.082 0 .137-.009.137-.11 0-.055.037-.073.083-.073h.174c.055 0 .1.028.1.083 0 .073.046.1.11.091h.175c.073 0 .119-.009.128-.091 0-.046.037-.055.074-.065h.21c.037 0 .074.019.074.055 0 .101.073.101.146.101h1.56c1.09 0 2.181 0 3.272.01.11 0 .147-.028.147-.138a10.53 10.53 0 0 1 0-.761c0-.1-.028-.138-.128-.138-.606 0-1.22-.009-1.825-.018-.11 0-.21.064-.33.046-.073-.01-.11-.028-.1-.101v-.01c.063-.33-.11-.577-.285-.824-.349-.505-.679-1.027-1.027-1.54-.358-.542-.715-1.073-1.073-1.614-.036-.046-.073-.083-.128-.074h-.092c-.21 0-.247-.064-.201-.275.018-.082.073-.064.128-.064h1.21c.083.01.12-.027.12-.119 0-.083-.019-.165.11-.165.045 0 .045-.055.045-.092v-.504c0-.037-.009-.073-.046-.1-.064-.074-.045-.166.046-.212s.184-.091.284-.137c.046-.019.092-.046.083-.11-.01-.129.11-.129.174-.129.064 0 .193-.009.184.129 0 .064.036.091.091.119.083.046.174.082.257.137.092.055.092.138 0 .202a.102.102 0 0 0-.046.092v.522c0 .046.01.092.064.083.101-.01.129.055.12.138-.01.091.009.146.128.137.11 0 .119-.055.119-.137 0-.248 0-.248.248-.312.036-.01.064-.019.1-.028.101-.018.156-.055.165-.174a.4.4 0 0 1 .312-.357c.184-.056.358.018.468.192.046.064.082.073.156.055.11-.037.265-.027.33-.11.055-.064.009-.21.009-.33v-.724c0-.092.037-.147.128-.129.239.055.367-.146.532-.247.046-.028.027-.092.018-.138-.009-.174.01-.192.175-.192h.458c.082 0 .128-.028.12-.11-.01-.101.027-.165.137-.147.073.01.119-.018.11-.1-.01-.083.036-.102.11-.102h.962c.074 0 .129.019.12.11-.01.064.027.101.091.101.101-.009.147.046.129.138-.01.119.036.146.146.137.083-.009.175-.009.257 0 .092.01.138-.036.138-.119s0-.165.128-.156c.046 0 .055-.046.046-.082-.01-.092.036-.129.119-.129.32 0 .65 0 .972.01.073 0 .128.018.119.1-.01.083.037.101.11.101.156 0 .165 0 .165.156 0 .083.028.12.12.11h.44c.082 0 .128.037.11.12-.047.238.054.44.192.614.147.183.165.403.174.623.01.147 0 .293-.01.44 0 .064.01.092.083.11.321.046.642.1.954.165.1.018.11-.018.11-.1v-1.523c0-.11.073-.165.156-.119.046.028.055.073.064.12.073.284.128.577.21.861.074.248.11.495.093.752-.01.1.036.137.128.147.357.055.715.119 1.063.183.101.018.184.073.266.128.065.037.11.046.184.01.302-.175.623-.01.66.339.009.091.046.128.119.174.23.11.45.238.678.358a.21.21 0 0 1 .11.165c.019.091.065.146.166.165.366.073.65.275.907.55.055.064.11.1.202.091a.252.252 0 0 1 .21.074c.065.064.13.064.212.064h1.063c.156 0 .165 0 .174.165.01.073.046.092.101.092h.394c.083 0 .138.036.129.119-.01.091.037.11.119.11.834.036 1.669.092 2.503.1.394.01.789-.008 1.174.019.476.028.944.01 1.42.018.79.019 1.587.046 2.375.037.266 0 .532-.027.798-.046.11-.009.147.037.147.147-.01.165 0 .32 0 .486 0 .064-.019.1-.092.091-.743-.073-1.494-.036-2.237-.036-1.165 0-2.329.027-3.502.027-.578 0-1.147.019-1.724.046-.78.046-1.559.074-2.338.064-.083 0-.165-.018-.211.083-.01.027-.064.037-.1.055-.12.055-.248.082-.33.202-.047.064-.138.082-.22.082-.047 0-.083 0-.12.037-.092.11-.183.22-.266.33a.107.107 0 0 0-.018.092l.11.412c.009.046.036.064.082.064h.835c.073 0 .091-.046.091-.1-.009-.101.037-.129.138-.129.376 0 .752.01 1.118 0 .11 0 .147.037.147.147-.01.32 0 .642-.01.962 0 .092.028.12.12.12.614-.01 1.229-.019 1.834 0 .293.009.302-.074.293.266 0 .082.037.11.11.11h.092c.082-.01.119.036.119.119 0 .284 0 .559-.01.843 0 .055 0 .11-.054.147-.037.027-.028.073-.028.11v.44c0 .092-.027.147-.128.147-.064 0-.1.009-.1.091s.045.083.11.083c.247.018.503.018.75.018.45 0 .9.028 1.349.028.11 0 .146-.037.146-.147 0-.192.01-.376.01-.568 0-.092-.046-.12-.129-.12-.32 0-.275.019-.275-.284 0-.312-.027-.284.275-.284h.413c.091 0 .137.027.128.128-.009.11 0 .22 0 .321 0 .083-.027.11-.11.11-.238.01-.238.01-.238.248v.477c0 .073.027.11.1.1h.138c.165 0 .211-.036.266-.201.037-.101.1-.184.165-.266.128-.174.33-.284.458-.468.01-.018.028-.027.046-.036.083-.046.165-.129.257-.074.092.046.046.165.046.248.009.201 0 .403 0 .605.009.092.009.183-.138.192zm-21.06 7.17c-.65 0-1.31 0-1.962-.009-.091 0-.119.018-.146.11-.092.284-.22.56-.385.807a2.948 2.948 0 0 1-.642.706c-.028.018-.064.055 0 .073.073.018.073.073.082.138l.028.412c.009.083.037.138.137.129.11-.01.22-.01.321 0 .101.009.138-.046.147-.138l.055-.413c.018-.128.046-.146.183-.146.11 0 .129.064.138.156 0 .128.018.256.027.394.01.1.046.156.156.147.101-.01.202-.01.303 0 .11.009.137-.046.146-.138.019-.147.046-.293.065-.45.009-.1.082-.11.156-.11s.137.01.146.11c.01.166.028.322.046.487 0 .073.028.1.1.1h.35c.073 0 .11-.027.119-.1.018-.165.045-.33.082-.486.028-.138.138-.074.22-.092.073-.01.083.055.083.11.009.156.036.312.045.468.01.064.028.1.101.1.129 0 .257-.009.376.01.083.009.12-.037.138-.12.018-.155.055-.311.064-.467.01-.128.11-.083.174-.092s.12.01.12.101c.008.165.027.321.045.486 0 .064.028.1.101.092h.367c.082 0 .11-.046.119-.12.018-.155.046-.311.064-.467.01-.1.073-.1.147-.1s.137 0 .146.1c.01.156.028.312.046.468.01.082.037.128.129.119.119-.01.238 0 .357 0 .064 0 .101-.028.101-.092.018-.156.046-.32.064-.477.01-.128.092-.119.184-.119s.128.046.137.128l.028.45c0 .073.036.11.11.11h.366c.065 0 .092-.028.101-.083.064-.284.074-.293-.174-.458a3.173 3.173 0 0 1-1.238-1.687c-.036-.101-.082-.129-.183-.129-.688-.018-1.339-.018-1.99-.018zm12.9 1.705c-.064-.1-.174-.155-.247-.238a3.529 3.529 0 0 1-.761-1.256c-.028-.092-.073-.128-.174-.128-1.055 0-2.1-.01-3.154-.019-.23 0-.193-.036-.275.193a3.115 3.115 0 0 1-1.137 1.513c-.129.091-.174.192-.156.339.01.064.018.12.018.183 0 .046.019.074.074.074.128-.01.256.018.394.009.064-.01.1-.037.11-.101.018-.156.055-.321.082-.477.019-.12.101-.1.175-.1.073 0 .119.018.128.11.01.146.037.293.046.449.009.1.046.137.147.137.119-.01.238 0 .357 0 .064 0 .11-.018.12-.092.018-.146.045-.293.063-.449.01-.11.055-.137.156-.137.11 0 .156.036.165.137l.028.422c0 .082.027.11.11.11h.357c.074 0 .11-.028.12-.1.018-.148.055-.285.064-.432.009-.128.073-.156.174-.156.12 0 .138.083.138.165l.027.404c0 .073.028.119.12.119h.357c.064 0 .1-.018.11-.092.018-.156.055-.302.064-.458s.11-.12.193-.12c.1-.009.119.056.119.138l.027.413c.01.082.037.128.129.119.119-.01.229 0 .348 0 .073 0 .1-.028.11-.1.028-.166.064-.322.083-.487.018-.12.1-.073.165-.082.064-.01.119 0 .128.091.01.138.037.285.046.422.009.147.018.156.165.156.11 0 .21-.01.32.018.074.019.11-.027.12-.091.018-.12.037-.239.055-.367 0-.193 0-.193.192-.239zm-20.17-.045c-.01-.046-.046-.065-.064-.092a3.422 3.422 0 0 1-.89-1.238c-.045-.119-.036-.275-.146-.339s-.257-.01-.385-.018c-.138-.019-.193.036-.239.165a3.114 3.114 0 0 1-1.017 1.467c-.092.073-.12.146-.101.247l.027.358c.01.073.037.119.129.11.1-.01.201 0 .302 0 .165 0 .156 0 .183-.165.019-.138.046-.285.065-.422.018-.12.1-.083.174-.083.064-.009.119 0 .128.092.01.156.037.312.046.468 0 .082.028.11.11.11.11 0 .22-.01.34 0 .091.009.128-.037.137-.12.018-.146.055-.293.073-.44.01-.1.064-.119.147-.119.082 0 .156 0 .165.11.009.138.027.285.037.422.009.092.027.147.137.138.12-.01.238-.01.358.018.073.018.119-.01.119-.092.018-.137.046-.275.055-.412-.01-.074-.01-.156.11-.165zm-9.526-1.742c-.055-.01-.128-.037-.128.064 0 .073-.065.156.082.183.165.037.165.055.128.22-.027.138-.064.266-.091.404-.019.064-.01.11.064.128.11.037.22.073.33.12.082.036.128.008.165-.065.064-.147.147-.284.21-.422.056-.11.13-.064.203-.046.082.028.11.074.082.156-.046.156-.073.303-.12.459-.017.073.01.1.065.119.12.037.23.082.348.12.065.027.101.008.129-.047.064-.137.147-.266.21-.412.047-.11.11-.092.193-.065.092.028.129.074.101.175-.037.137-.073.284-.11.421-.018.074-.01.129.083.156.1.028.201.064.293.101.073.028.147.028.183-.055.037-.082.101-.156 0-.257-.366-.376-.641-.806-.779-1.32-.027-.1-.073-.12-.174-.12-.486-.008-.981 0-1.467-.017zm35.922.751a.632.632 0 0 1-.028-.073c-.046-.137-.1-.284-.137-.422-.019-.073-.064-.1-.138-.1h-.623c-.083 0-.11.036-.138.1-.11.294-.22.587-.412.844-.11.156-.101.156.009.32.046.065.092.074.156.037.1-.064.21-.119.32-.155.083-.028.092-.074.065-.156-.055-.147-.092-.294-.147-.44-.046-.129.055-.138.12-.184.073-.055.118-.009.155.046.083.128.174.257.257.394.037.055.064.074.128.037.12-.064.239-.12.358-.183.027-.01.064-.019.055-.065z"/></svg>