<svg version="1.2" baseProfile="tiny" xmlns="http://www.w3.org/2000/svg" viewBox="0 0 75 75" overflow="visible" xml:space="preserve"><path fill="#FFF" d="M0 0h75v75H0z"/><g fill="#ED2224"><path d="M30.5 20.9v-1.3c3.2-4.5 4.2-5.4 4.2-7.3 0-.9-.4-1.5-1.4-1.5-1.1 0-1.3.9-1.3 1.8h-1.5c-.1-1.8.8-3 2.7-3 2 0 3 .9 3 2.9 0 2.5-1.2 3.3-4.1 7.1h4.4v1.3h-6zM41.6 20.9h-1.5v-9.5l-1.7 1.1v-1.4c.4-.2 1.4-1 1.9-1.3h1.3v11.1z"/></g><path fill="none" d="M37.863 40.582h3.906l-.103-5.86h-6.168l-1.44 5.963 3.805-.103z"/><path fill="#ED2224" d="M14.525 50.863h2.365v2.364h-2.365v-2.364zm32.693-30.945v26.73h-2.365l-.102-15.524-3.085.102-7.196.617-.925 2.879-.926 2.776-11.822-4.935-1.028 1.953 11.617 6.888-.823 2.57h-11c0-1.13-1.542-1.747-2.467-1.028-.823.617-.412 2.776-.514 3.599 5.243-.103 11.925-.926 14.187 5.243.514 1.13.514 2.878 1.542 3.598l6.58-.103-.103-5.14h21.795V19.918H47.218zm-5.552 14.804v5.86h-7.71l1.44-5.86h6.27z"/><path fill="#ED2224" d="M23.778 49.32c-3.187 0-5.757 2.57-5.757 5.758s2.57 5.757 5.757 5.757 5.757-2.57 5.757-5.757-2.57-5.758-5.757-5.758zm0 3.085c1.542 0 2.673 1.13 2.673 2.673 0 1.542-1.13 2.673-2.673 2.673-1.542 0-2.673-1.131-2.673-2.673 0-1.543 1.234-2.673 2.673-2.673z"/></svg>