<svg version="1.2" baseProfile="tiny" xmlns="http://www.w3.org/2000/svg" viewBox="0 0 75 75" overflow="visible" xml:space="preserve"><path fill="#FFF" d="M0 0h75v75H0z"/><path fill="#ED2224" d="m39.3 50.1 4 11.6h-2.5l-.8-2.5h-4.6l-.9 2.5h-2.4l4.2-11.6h3zm.1 7.2-1.6-4.9-1.7 4.9h3.3z"/><g fill="#ED2224"><path d="M26.817 45.63c-.066.09-.172.172-.27.18-.198.025-.394.008-.591.017-.09-.074-.189-.033-.287-.033-.23.008-.468.057-.68-.099a.125.125 0 0 0-.165 0c-.074.05-.123.066-.18-.016-.033-.041-.099-.041-.14-.057s-.082-.017-.115-.05c-.049-.049-.04-.09.033-.114.066-.025.074-.05.017-.09-.041-.033-.074-.115-.156-.05-.025.025-.05-.008-.066-.024a.229.229 0 0 1-.049-.148c0-.05 0-.107-.008-.156-.033-.131.016-.197-.189-.213-.065-.008-.09-.05-.115-.098-.303-.583-.377-1.19-.139-1.82.066-.173.148-.337.238-.493-.041-.057-.09-.04-.131-.04h-.845c-.123 0-.205.032-.279.13-.262.345-.598.599-.976.804-.18.098-.377.188-.582.23-.074.016-.14.032-.172.114-.025.058-.074.05-.107 0-.016-.016-.032-.04-.057-.057-.09-.066-.123-.057-.197.025-.024.024-.033.049-.057.073-.041.041-.09.05-.14.017-.115-.074-.23-.082-.336.016a.105.105 0 0 1-.082.033c-.123.016-.238.025-.36.04-.034 0-.05-.007-.075-.032-.082-.082-.196-.115-.295-.164-.024-.008-.049-.008-.065.017-.017.024-.009.049.016.073l.148.123c.024.025.049.05.024.082-.024.033-.057.041-.098.025a.364.364 0 0 1-.09-.066c-.082-.098-.189-.073-.287-.032-.041.016-.074.04-.107.065-.131.066-.336-.05-.312-.188.033-.214-.155-.28-.246-.402-.106-.009-.205-.033-.311 0-.131.032-.222-.017-.27-.14-.017-.049-.009-.09.016-.14a.226.226 0 0 0-.017-.237c-.024-.033-.04-.074-.057-.115-.058-.172-.189-.221-.345-.238-.139-.016-.18-.057-.213-.188-.016-.058-.016-.107.025-.148.098-.09.098-.205.074-.32-.009-.04-.017-.082-.017-.123a.123.123 0 0 0-.082-.123c-.098-.049-.18-.123-.279-.172-.139-.065-.147-.27-.016-.352.107-.066.14-.148.156-.255.008-.024.008-.049.016-.073.082-.197.017-.345-.131-.468-.074-.057-.098-.123-.074-.221.025-.074.066-.14.148-.14.098-.008.147-.065.188-.147.009-.025.017-.05.033-.066.14-.164.09-.32-.008-.475-.074-.123-.066-.173.016-.28.041-.057.099-.073.164-.065.197.025.263-.147.378-.246-.009-.098-.009-.197-.017-.295a.117.117 0 0 0-.016-.05c-.033-.09-.05-.171.033-.245.082-.074.164-.107.27-.041.008 0 .017 0 .041-.008-.106-.19-.23-.361-.344-.542-.041-.065-.09-.074-.156-.04-.123.065-.246.122-.369.18s-.156.04-.189-.09c-.008-.017-.008-.033-.008-.05-.049-.213-.049-.213.14-.311.008-.009.016-.009.024-.017.148-.09.156-.09.066-.238a1.437 1.437 0 0 1-.148-1.148c-.074.025-.106.074-.14.115-.253.279-.5.566-.754.845-.369.41-.73.82-1.115 1.214a.532.532 0 0 0-.131.262l-.295 1.156-.025.09c-.04.14-.057.148-.197.107-.04-.008-.082-.025-.123-.041-.14-.041-.156-.066-.123-.213a6.04 6.04 0 0 1 .09-.37c.074-.278.156-.565.214-.852a.93.93 0 0 1 .23-.41c.27-.304.54-.599.811-.902.664-.746 1.337-1.5 2.001-2.255.246-.279.492-.558.738-.828a.93.93 0 0 1 .32-.246c.156-.066.303-.148.443-.23.114-.066.237-.074.36-.098l.328-.05c.074-.008.123-.04.148-.123.033-.106.09-.213.131-.32.033-.065.033-.106-.04-.155-.107-.058-.116-.074-.066-.189.114-.295.237-.582.352-.87.025-.065.066-.09.148-.065.123.041.131.033.18-.082.132-.311.263-.615.386-.926.156-.386.311-.78.475-1.165.041-.098.041-.172-.016-.262-.033-.05-.057-.115-.09-.164-.017-.041-.05-.074-.033-.115.025-.09 0-.164-.05-.246-.04-.066-.007-.131.075-.148a.163.163 0 0 0 .123-.106c.04-.14.13-.189.278-.172h.09c.099-.009.173-.041.206-.156.024-.107.082-.205.13-.304.034-.073.042-.14-.057-.18-.073-.033-.082-.09-.049-.156.131-.287.238-.59.361-.886.033-.073.082-.098.164-.073.107.032.115.024.156-.082l.172-.419c.016-.04.041-.09.057-.13.025-.05.058-.107.123-.1.074.01.09.066.09.124 0 .05.025.074.066.057.205-.057.41-.049.623-.065.304-.033.615-.082.919-.115.418-.041.844-.099 1.263-.148.574-.065 1.14-.123 1.714-.205.475-.065.959-.115 1.435-.172.377-.05.754-.098 1.14-.14l1.213-.147c.476-.057.951-.123 1.435-.172.5-.058 1-.156 1.509-.164.976-.017 1.96-.008 2.936-.008.23 0 .459-.009.689-.017.065 0 .123-.008.188.008.156.033.304-.016.451-.016 1.017 0 2.034-.008 3.05-.008.132 0 .247-.017.32-.14.05-.09.14-.082.222-.082.697 0 1.394.017 2.09 0 .952-.024 1.895-.016 2.846-.024.214 0 .41-.066.615-.107.296-.057.583-.123.878-.188.131-.033.213 0 .295.114.328.451.664.894 1 1.329.386.492.755.992 1.116 1.5.943 1.32 1.943 2.6 2.91 3.904.083.106.107.205.042.328-.082.156-.131.32-.205.475a1.071 1.071 0 0 0-.099.5c.009.165 0 .337 0 .5 0 .1.025.198-.049.288-.024.025-.008.082-.008.123v.41c0 .164-.008.172-.172.189-.008 0-.025 0-.033.008-.164.016-.205-.017-.213-.189-.008-.147 0-.295-.008-.443 0-.123-.009-.147-.14-.155-.32-.025-.64-.041-.951-.066-.41-.025-.812-.057-1.222-.082l-.55-.025c-.057 0-.073.025-.065.074.008.05.017.09.033.14l.566 2.09c.024.107.04.214.082.32.033.082.262.148.328.099.008-.008.024-.025.024-.041 0-.115.05-.238-.065-.336a.437.437 0 0 1-.131-.189c-.025-.066-.05-.123-.132-.148-.073-.024-.073-.098-.073-.155 0-.074.024-.123.098-.14a.173.173 0 0 0 .115-.098c.172-.37.492-.435.812-.394.114.017.237.041.352.09.148.058.304.041.451.041.156-.008.312.009.468.009.188 0 .377.008.565.008.09 0 .164.016.222.09l.098.098c.14.14.131.14.05.32-.05.107-.115.131-.222.131h-.877c-.37 0-.37 0-.624.263-.016.016-.024.033-.04.049a.373.373 0 0 1-.353.156c-.082-.008-.164 0-.254 0-.05 0-.082.024-.082.082 0 .049.016.082.065.09.131.025.254.05.386.074.114.016.23.033.246.188.008.066.073.066.123.074.196.041.393.074.582.107.393.065.795.14 1.189.205.476.082.96.172 1.435.254.164.025.336.025.5.008.27-.033.533 0 .796.033.369.041.721.172 1.066.303.377.148.738.337 1.066.566.123.082.23.18.344.27.074.058.074.091.008.173-.09.098-.18.189-.262.287-.123.14-.123.197.016.328.017.017.041.033.058.058.098.139.23.147.377.114.024-.008.05-.008.074-.016.082-.025.164-.033.23.05.057.081.106.155.049.253-.041.066-.033.132 0 .197a.502.502 0 0 1 .04.099c.042.155.115.262.304.278.131.009.205.222.115.328-.164.18-.066.378-.082.574 0 .05.04.082.09.099.04.016.082.033.115.049.164.082.188.279.033.377-.197.123-.164.32-.19.5-.007.066.058.107.108.148.155.156.123.336-.09.402a.283.283 0 0 0-.181.14c-.05.081-.098.163-.156.237-.05.074-.05.131 0 .197.107.131.058.18-.024.287-.041.057-.09.082-.164.065-.083-.024-.14.017-.197.066-.05.041-.09.09-.14.131a.327.327 0 0 0-.14.312.204.204 0 0 1-.303.205c-.164-.09-.295-.017-.434.033-.074.024-.074.09-.058.164.025.123-.016.205-.123.262-.065.033-.123.05-.188 0-.05-.033-.09-.066-.156-.05-.098.025-.197.034-.279.091-.065.041-.04.115-.04.172 0 .082 0 .156-.083.205s-.156.082-.246.017c-.049-.033-.098-.058-.164-.041-.033.008-.065-.008-.09-.025-.016-.008-.033-.033-.041-.05-.008-.032.025-.04.05-.048.09-.033.18-.041.27.024.04.033.09.058.131 0-.008-.04-.041-.032-.066-.04a.296.296 0 0 1-.23-.124c-.04-.057-.081-.057-.13-.016-.05.033-.107.057-.164.082a.087.087 0 0 1-.099-.016c-.024-.033-.008-.058.017-.082.049-.05.04-.107.016-.165-.016-.049-.016-.106-.082-.123-.057-.008-.098.033-.131.074-.033.033-.05.074-.082.123-.14-.057-.246-.147-.37-.23-.024-.016-.024-.057-.04-.081-.041-.099-.082-.123-.197-.107a.635.635 0 0 0-.213.098c-.066.041-.123.082-.189.107-.123.057-.238-.025-.23-.156.009-.09.017-.18.033-.262a.398.398 0 0 0 0-.14c-.032-.114-.082-.155-.205-.139-.073.016-.14.041-.213.057a.871.871 0 0 1-.156.033c-.082.008-.13-.033-.172-.09-.05-.057-.016-.107.017-.156.016-.024.032-.04.04-.065.033-.074.025-.099-.057-.099h-.82c-.09 0-.107.033-.057.107.057.098.114.197.164.303.254.574.254 1.157.024 1.739-.049.115-.057.262-.188.336-.033.016-.025.057-.025.082-.008.066-.033.123-.098.148-.058.024-.09.073-.132.114-.049.041-.073.09-.04.156.008.017.016.041.008.058 0 .032-.017.065-.058.065-.033.008-.049-.016-.057-.04-.041-.075-.09-.157-.123-.239-.033-.073-.082-.082-.156-.065s-.082.065-.09.131c0 .09-.008.18 0 .27 0 .124.082.165.188.099.041-.025.082-.066.132-.082.024-.008.04-.008.057.008a.04.04 0 0 1 0 .058 1.8 1.8 0 0 1-.14.205c-.016.024-.057.04-.081.016-.074-.05-.148-.016-.23 0l-.246.05c-.057.007-.115.016-.164-.017-.05-.041-.098-.033-.14.008a.128.128 0 0 1-.13.025.686.686 0 0 0-.443.024c-.041.017-.074 0-.115-.033-.115-.098-.14-.098-.238.017-.041.049-.082.074-.131.016-.033-.04-.082-.033-.131-.057-.074-.033-.173-.033-.148-.172.016-.066-.09-.107-.148-.115-.164 0-.213-.099-.246-.23-.032-.115-.04-.131-.164-.123-.098.008-.155-.016-.18-.123-.008-.049-.057-.098-.09-.147a1.421 1.421 0 0 1-.205-.337.209.209 0 0 0-.164-.13c-.123-.025-.246-.05-.37-.083-.122-.033-.163-.082-.171-.213v-.221c0-.066-.025-.107-.099-.107h-.05c-.163 0-.18.008-.18.172v.123c-.008.172-.057.23-.23.263-.097.024-.204.04-.31.065a.215.215 0 0 0-.173.14 1.556 1.556 0 0 1-.246.401c-.05.066-.057.123-.033.205.041.132.074.263.107.394.016.074-.008.115-.082.115s-.14.016-.213-.008c.008-.017.008-.033.008-.033.156-.074.156-.074.106-.238-.016-.057-.04-.107-.057-.164-.016-.05-.05-.074-.107-.082-.065-.008-.098.025-.114.082-.033.107-.058.213-.082.32-.033.115-.017.156-.18.164-.394.024-.78.074-1.173.074-.156 0-.304.008-.46.032-.114.017-.196-.024-.237-.13-.025-.066-.074-.083-.123-.107-.148-.074-.287-.148-.328-.328-.017-.058-.058-.082-.115-.082-.123.008-.197-.066-.27-.148a2.148 2.148 0 0 1-.517-1.37 2.02 2.02 0 0 1 .237-1.016c.05-.099.099-.197.156-.28-.024-.057-.074-.04-.106-.04h-.993c-.073.008-.09.033-.057.106.074.123.14.246.197.378.287.738.213 1.435-.222 2.09-.04.066-.098.116-.082.214.009.057-.049.082-.114.074-.205-.017-.18.049-.214.18-.016.05-.024.107-.049.148-.04.065-.065.074-.14.016a.08.08 0 0 0-.073-.008c-.05.033-.099.057-.148.09-.115.074-.14.066-.18-.065-.025-.082-.05-.164-.066-.246-.016-.074-.049-.123-.14-.123-.081 0-.106.057-.122.114-.025.123-.066.246-.074.37-.008.073-.033.098-.09.098-.148.008-.287.057-.435.016-.033-.008-.065-.008-.09.008-.098.05-.18.009-.295-.057.123-.025.221-.041.311-.09.099-.05.099-.041.074-.148l-.049-.18c-.016-.066-.05-.107-.131-.115-.074 0-.115.033-.131.107-.025.114-.058.221-.082.336-.017.074-.058.098-.123.074l-.296-.099c-.057-.016-.082-.057-.098-.115-.016-.057-.033-.123-.05-.18-.048-.131-.13-.156-.237-.074-.05.041-.082.033-.115-.008-.188-.197-.377-.394-.484-.648-.032-.082-.098-.115-.18-.131a3.747 3.747 0 0 1-.295-.057c-.164-.033-.213-.09-.213-.255v-.205c0-.057-.033-.082-.09-.09h-.124c-.073 0-.106.033-.106.107 0 .065 0 .123-.008.188-.009.156-.041.205-.19.246-.114.033-.229.058-.352.082-.073.017-.123.05-.147.123a1.885 1.885 0 0 1-.205.353c-.041.057-.066.098-.017.164.05.066.009.115-.073.107-.025 0-.041-.009-.066-.009-.107-.008-.123.009-.164.107a1.345 1.345 0 0 1-.025.09c-.024.05-.057.082-.114.082-.14 0-.222.058-.288.189a.208.208 0 0 1-.172.123.236.236 0 0 0-.172.115c-.025.04-.066.073-.098.032-.099-.13-.238-.09-.361-.073-.09.016-.164.04-.246-.041-.041-.041-.099-.033-.148-.009-.147.066-.295.017-.426-.04a2.289 2.289 0 0 1-.27-.156.235.235 0 0 1-.14-.197c-.008-.041-.017-.082-.033-.123-.033-.107-.14-.131-.23-.058s-.09.082-.18 0a2.153 2.153 0 0 1-.648-1.156 2.21 2.21 0 0 1 .295-1.624c.017-.024.041-.049.033-.098-.402-.016-.812 0-1.246 0 .287.435.434.877.426 1.37s-.18.926-.484 1.328c.099.033.214 0 .238.123.025.115.107.23.008.36-.09-.057-.082-.155-.106-.237-.025-.074-.074-.09-.148-.082-.05.008-.082.033-.09.074a6.04 6.04 0 0 0-.09.369c-.017.057.024.074.074.082a.236.236 0 0 0 .164-.041c.04-.025.09-.041.13-.017.025.009.017.033.009.058-.025.057-.074.065-.123.074h-.016c-.197 0-.402.032-.6.024-.253-.008-.5.025-.745.033-.107 0-.205.016-.304-.033-.04-.024-.082-.016-.123 0-.172.09-.36.05-.54.033a.279.279 0 0 1-.263-.246c-.017-.107-.058-.205-.09-.303-.017-.066-.058-.099-.124-.099-.065 0-.098.033-.114.09 0 .009-.009.017-.009.033-.049.107-.065.115-.155.041a1.94 1.94 0 0 1-.468-.5c-.049-.082-.09-.164-.14-.246-.04-.074-.09-.123-.18-.131a4.424 4.424 0 0 1-.32-.066c-.13-.024-.188-.082-.204-.221-.009-.082 0-.156 0-.238 0-.057-.017-.09-.09-.098-.222 0-.222 0-.222.213 0 .024.008.04.008.065 0 .148-.057.238-.205.27-.098.026-.205.05-.303.067-.099.016-.164.057-.197.155-.066.156-.164.287-.262.427.04.065.114.008.164.074-.058.082-.148.139-.23.196-.025.017-.05 0-.05-.032 0-.025.017-.05 0-.09l-.368.295c-.033.024-.033.065-.041.098-.025.041-.066.066-.123.074-.033-.123-.066-.254-.107-.377-.016-.066-.065-.09-.131-.09s-.107.032-.123.098l-.074.32c-.016.073.017.106.099.106a.165.165 0 0 0 .09-.024.43.43 0 0 1 .246-.033zm25.61-10.111h-.034l-.04-.066c-.017-.024-.042-.049-.074-.049-.05.008-.025.041-.033.066-.017.073-.041.073-.107.016-.065-.115-.172-.14-.279-.057-.008.008-.016.016-.024.032-.025-.024-.05-.04-.074-.065a.192.192 0 0 0-.057.057c-.017 0-.033 0-.041.008-.033-.082-.09-.098-.173-.082-.164.033-.32.017-.418-.139-.008 0-.024 0-.033.008-.04.008-.082.008-.123.017-.073.024-.123.065-.114.147.008.107 0 .222.09.304 0 .032.016.049.049.065l.041-.065.074.024c.016.008.033.025.049.033l.041.066c.025-.017.057 0 .074-.009.09-.065.188-.065.295-.04.025.008.057-.009.09-.017.058.016.099-.016.148-.041.033-.016.024-.05.016-.082.074-.025.172-.016.189-.131.04 0 .074.016.106.033a.136.136 0 0 1-.04.106c-.025.008-.05.025-.033.05.016.024.04.016.065 0a.121.121 0 0 1 .131.065c.041.09.115.082.189.082s.172.008.205-.041c.041-.066.066-.066.123-.033.016.008.05 0 .074-.008.197.115.393.033.598.008h.058c.008.017.008.041.016.041.074.017.148.05.222.033.057-.008.073-.074.073-.123 0-.057-.04-.082-.098-.082-.074.008-.156 0-.23.033h-.065c.008-.09-.05-.123-.123-.099-.05.017-.082.017-.131-.016-.05-.033-.099-.016-.148.016a.196.196 0 0 1-.115.041c-.065-.13-.172-.164-.311-.147-.017 0-.041-.008-.058-.008a.084.084 0 0 0-.04.049zm-32.179.156c0-.017-.008-.033-.008-.05 0-.016.008-.032.008-.049.017-.057 0-.123 0-.18.041-.082 0-.164.017-.246.008-.033-.025-.041-.058-.05-.147-.04-.221.058-.311.132-.05.04-.066.098-.058.164.025.156.09.311.131.459.017.066.066.09.132.098.155.09.172.09.279-.032h.032l.025-.074c-.008-.041 0-.074-.016-.107h-.066a.104.104 0 0 0-.074-.057c-.016-.008-.025-.008-.033-.008zm14.867.811h.55c.951 0 1.894 0 2.845-.008 1.075-.008 2.157.008 3.231-.024 1.009-.025 2.018-.009 3.034-.017h2.797c.278 0 .55-.016.828-.016.23 0 .46 0 .689-.008.13 0 .14-.009.14-.132 0-.246 0-.246-.247-.246-1.09 0-2.19.009-3.28.009-.541 0-1.09.016-1.632.024-1.148.008-2.304.008-3.452.008h-1.82c-.435 0-.87.017-1.304.017-.952.016-1.895.008-2.846.008h-.992c-.074 0-.14 0-.148.098-.008.074-.057.099-.123.099-.115.008-.23.008-.344.008-.066 0-.123-.025-.131-.107s-.066-.098-.132-.09c-.123.008-.237.017-.36.008-.287-.016-.574-.008-.862 0-.246.009-.492.009-.738.009-1.779.008-3.558 0-5.338.032-1.328.025-2.657.009-3.985.009h-.107c-.05 0-.082.016-.098.065-.025.099-.099.107-.18.115-.107.008-.222-.025-.329-.016-.049.008-.09-.025-.098-.082-.008-.074-.057-.09-.123-.082-.033.008-.074.008-.107.008-.197-.017-.197-.008-.197.188v.066c.009.098.025.115.124.123h.106c.714 0 1.435.008 2.149 0 .254 0 .5-.025.754-.025.73 0 1.451 0 2.181-.008 1.288-.008 2.575.008 3.863-.016.984-.017 1.968-.008 2.952-.008.434 0 .869-.017 1.304-.009.475.033.95.009 1.426 0zm20.329 3.764c-.025 1.132.894 2.001 2 1.993a1.992 1.992 0 0 0 1.96-1.984c0-1.058-.803-1.985-1.984-1.985a1.946 1.946 0 0 0-1.976 1.976zm-23.199 3.436c0-.287-.09-.566-.213-.836-.254-.566-.467-1.148-.713-1.722-.238-.55-.468-1.107-.706-1.657-.065-.147-.065-.139-.213-.13h-.123c-.106 0-.115.007-.123.114a.524.524 0 0 0 .074.328.604.604 0 0 1 .016.631.727.727 0 0 0-.082.394c.009.467.009.943 0 1.41 0 .197-.09.337-.278.419-.164.065-.328.147-.492.205-.107.04-.148.098-.148.213a.88.88 0 0 1-.197.566.23.23 0 0 0-.057.156v.205c0 .09.033.13.123.147.131.025.27.05.402.082.426.099.852.164 1.287.172h.09c.05-.008.099-.032.099-.09 0-.172.04-.352-.009-.525a.452.452 0 0 1 0-.311.444.444 0 0 1 .533-.27.441.441 0 0 1 .28.532c-.058.197-.058.394-.058.59 0 .099.033.115.115.066.246-.156.418-.352.393-.689zm8.824.624h.123c.164 0 .197-.033.197-.19 0-.163.008-.335-.041-.5a.416.416 0 0 1 .262-.491c.295-.107.648.13.566.5-.05.205-.017.41-.058.607-.016.09.033.123.107.074.238-.156.418-.345.41-.656a2.3 2.3 0 0 0-.189-.804c-.262-.607-.516-1.222-.779-1.837-.221-.533-.434-1.066-.664-1.59-.024-.05-.04-.116-.074-.157-.049-.049-.106.017-.164.009h-.106c-.082 0-.115.04-.115.114 0 .115.008.214.066.312a.612.612 0 0 1 0 .656.546.546 0 0 0-.074.295v1.443c0 .255-.099.386-.328.476-.14.057-.27.115-.41.164-.123.041-.172.107-.172.238 0 .188-.041.377-.18.525a.333.333 0 0 0-.091.27c.008.238 0 .238.238.287.492.123.976.255 1.476.255zm11.431-.263v.172c0 .058.025.082.082.05.238-.132.451-.353.435-.656a1.905 1.905 0 0 0-.148-.673c-.131-.312-.262-.623-.394-.943l-.984-2.378a5.398 5.398 0 0 0-.139-.32c-.025-.049-.041-.106-.107-.09-.082.016-.155.008-.237.016-.058.009-.082.033-.082.09 0 .107 0 .214.057.32.131.238.14.492-.016.73-.05.082-.05.164-.05.254 0 .492.009.984 0 1.476a.41.41 0 0 1-.254.402c-.164.074-.328.14-.492.205-.164.066-.172.066-.164.238 0 .172-.04.344-.147.467-.115.132-.115.28-.107.427 0 .123.016.14.14.172.139.033.286.058.434.082.32.074.648.123.976.14.106.008.205.016.311.016.09 0 .123-.033.123-.123.017-.197.041-.394-.032-.59-.009-.017-.009-.041-.009-.066-.008-.18.082-.312.238-.394s.32-.074.46.041c.139.115.22.28.155.46-.049.188-.033.352-.049.475zM27.752 42.85c-.189-.074-.353-.148-.517-.213a.44.44 0 0 1-.27-.328 1.113 1.113 0 0 1-.025-.238c0-.46-.008-.919-.008-1.378a.522.522 0 0 0-.058-.221c-.123-.23-.14-.476 0-.705.066-.107.066-.205.058-.32 0-.066-.033-.099-.099-.099s-.14.009-.205-.008c-.082-.024-.115.017-.14.082-.04.099-.081.205-.122.304-.254.565-.484 1.148-.714 1.722-.172.418-.344.844-.516 1.262-.115.28-.238.55-.263.853-.033.451.05.59.394.829.065.049.098.032.098-.05 0-.213.017-.426-.049-.64-.057-.18.025-.344.172-.45a.42.42 0 0 1 .476-.009c.156.099.246.271.189.443-.058.18-.017.353-.025.525 0 .131.04.172.172.164.107 0 .205-.024.312-.024.303-.025.607-.058.894-.14.164-.04.164-.04.139-.221a19.322 19.322 0 0 1-.107-.993c-.008-.073.017-.106.082-.13.041.007.074 0 .132-.017zm20.705-.123c-.156-.066-.279-.115-.402-.164-.213-.09-.336-.246-.336-.476v-.156c0-.442-.008-.885-.008-1.336a.37.37 0 0 0-.057-.205.684.684 0 0 1 0-.746c.057-.09.057-.189.057-.287 0-.066-.033-.09-.098-.099-.074 0-.148 0-.222-.016-.065-.017-.09 0-.115.057-.114.279-.246.558-.36.837-.148.352-.287.705-.427 1.057-.238.583-.467 1.165-.713 1.739-.099.238-.123.484-.131.738-.009.303.155.484.401.623.074.041.099.025.099-.057-.017-.205.016-.418-.05-.623-.057-.173.009-.337.156-.443a.408.408 0 0 1 .46-.041c.188.09.278.303.213.525-.033.106-.025.213-.025.328 0 .049.008.09.008.139.009.156.025.172.18.164.386-.008.772-.066 1.149-.14.188-.04.205-.057.172-.254-.04-.311-.074-.623-.131-.926-.025-.115 0-.148.123-.197 0-.008.008-.017.057-.041zm-10.316.065c-.172-.073-.32-.139-.475-.196-.164-.058-.246-.18-.295-.337-.025-.082-.025-.164-.025-.246v-1.336a.529.529 0 0 0-.066-.27.622.622 0 0 1-.074-.452c.017-.106.066-.197.107-.295a.366.366 0 0 0 .008-.32c-.04-.082-.14-.033-.213-.049h-.016c-.14-.008-.14-.008-.189.115-.197.475-.394.96-.59 1.435-.304.746-.615 1.492-.919 2.238-.106.263-.14.534-.082.812.041.205.279.427.484.468-.008-.222.033-.443-.041-.664a.385.385 0 0 1 .074-.402.43.43 0 0 1 .525-.115c.18.082.287.287.23.484-.042.164-.042.32-.042.484s.033.196.197.188a7.11 7.11 0 0 0 1.255-.172c.074-.016.09-.05.065-.123-.024-.082-.024-.164-.032-.246-.025-.172-.041-.353-.074-.525-.025-.107-.025-.213-.033-.328-.008-.082.033-.115.107-.123.032-.008.057-.008.114-.025zm-18.04.263c.073.098.032.188.032.27-.008.074 0 .148.09.156.124.017.255.033.362-.065.049-.05.106-.066.172-.033.09.05.18.033.27.008a2.928 2.928 0 0 0 1.034-.492c.508-.377.844-.87 1.05-1.468.139-.418.171-.844.114-1.27-.107-.804-.476-1.469-1.123-1.96a5.392 5.392 0 0 0-.271-.19c-.033-.024-.098-.057-.123.009-.05.148-.164.14-.279.148-.147 0-.156-.009-.197-.148-.024-.082-.049-.164-.082-.238-.024-.066-.14-.115-.213-.107-.065.017-.057.082-.074.124a.871.871 0 0 0-.032.155c-.017.107-.017.107.09.14.254.074.508.164.73.311.467.304.803.714 1.008 1.23.14.353.18.722.156 1.107-.05.615-.303 1.124-.722 1.567a2.368 2.368 0 0 1-1.213.68c-.246.066-.5.074-.78.066zm34.712-2.821c-.017.443.114.902.32 1.28a2.562 2.562 0 0 0 1.516 1.237c.173.058.337.09.5-.04.107-.083.181-.074.255.032.098.148.23.115.36.09.058-.008.074-.04.066-.098-.024-.098-.057-.189-.065-.287-.009-.074-.041-.082-.107-.074a1.784 1.784 0 0 1-.467 0c-.804-.115-1.386-.525-1.714-1.279-.361-.82-.156-1.78.508-2.403.189-.18.41-.303.648-.41.057-.024.115-.04.098-.114l-.073-.304c-.009-.04-.033-.065-.082-.057a.281.281 0 0 0-.255.197 1.845 1.845 0 0 1-.065.196c-.017.05-.05.082-.099.09-.09.009-.188.033-.262-.016-.082-.05-.123-.033-.189.025-.582.508-.877 1.156-.893 1.935zm-3.174-3.772c.943-.025 1.747.016 2.542-.025.37-.016.73-.008 1.099-.008h.722c.106 0 .221.016.328.025.073.008.106-.025.106-.099v-.254c0-.107-.008-.107-.123-.107-.492 0-.984.009-1.476.009-1.451.008-2.895-.009-4.346.024-.279.008-.566 0-.845 0-.311 0-.32.008-.27.32.016.082.049.123.13.123h.14c.714-.008 1.427-.008 1.993-.008zm-1.804 6.74a.495.495 0 0 0 .05-.22V41.16c0-.107-.017-.132-.116-.156-.27-.05-.533-.09-.803 0-.156.049-.164.04-.164.213v1.738c0 .025-.008.066.033.074.13-.303.328-.434.582-.385.246.05.393.23.418.557zm-11.382-.13c.148-.296.312-.394.558-.378.295.025.393.238.459.508.04-.09.04-.172.04-.246 0-.22-.007-.442-.007-.656v-1.082c0-.123-.017-.14-.123-.164-.271-.057-.533-.082-.804 0-.148.041-.148.041-.148.189v1.016c0 .148.017.304.009.451-.009.115-.025.238.016.361zm-9.381.212c.04-.073.04-.147.04-.22v-.788c0-.336-.007-.673-.007-1 0-.074-.009-.132-.099-.156a1.684 1.684 0 0 0-.902 0c-.049.016-.09.04-.082.098.025.131-.008.262 0 .394.025.27.008.533.017.803v.787c.123-.32.32-.475.557-.442.287.024.435.196.476.524zm-8.996-3.616c-.008.066.033.09.05.131.04.099.007.222-.083.271-.082.05-.205.016-.27-.066-.017-.016-.025-.049-.041-.065-.041-.066-.066-.074-.115-.017-.074.074-.115.173-.164.263-.025.04-.05.098-.033.147.025.058.082.009.131.025.008 0 .017.008.033.008.107.025.172.099.172.197 0 .09-.065.18-.164.205-.033.008-.065.008-.09.016-.057.009-.066.05-.05.09.034.066.066.132.107.197.017.033.041.066.082.066.05 0 .041-.05.05-.082.032-.09.098-.131.188-.14.082 0 .156.033.189.115.04.082.016.173-.05.246-.032.033-.081.041-.098.09.238.099.46.107.697.025-.147-.18-.155-.32-.032-.41a.19.19 0 0 1 .147-.033c.123.017.156.115.197.222.164-.115.197-.27.254-.435-.246.008-.344-.057-.344-.221 0-.14.098-.197.32-.205a.711.711 0 0 0-.099-.27c-.057-.083-.082-.083-.147 0-.099.098-.18.114-.271.048s-.115-.164-.057-.278c.016-.033.057-.05.04-.107a.842.842 0 0 0-.549-.033zm-.82.714c.016-.066-.025-.099-.082-.115-.123-.033-.238-.074-.36-.115-.239-.074-.476-.156-.714-.23-.09-.024-.14 0-.123.074.033.115-.017.213-.05.32a.624.624 0 0 0-.024.172c-.016.328.066.632.172.935.008.033.033.066.05.098a.625.625 0 0 1 .139.263c.098.238.295.402.475.566.025.024.058.024.082-.009.23-.311.451-.623.681-.934.05-.066.041-.123-.016-.18-.05-.042-.074-.1-.107-.157-.098-.221-.164-.442-.123-.688zm.91 1.213c-.082-.024-.156-.04-.23-.065-.122-.033-.122-.041-.204.073-.205.287-.41.583-.615.87-.058.082-.058.106.04.155.19.115.386.18.6.23.483.115.95.082 1.418-.098.14-.05.27-.115.394-.197.049-.033.057-.066.032-.115-.008-.016-.024-.033-.032-.05a12.752 12.752 0 0 1-.624-.86c-.049-.066-.106-.082-.18-.05-.107.05-.221.083-.344.107.344.156.524.427.467.697-.057.295-.303.492-.615.5-.23.009-.484-.205-.55-.442-.098-.345.017-.55.443-.755zm1.075-.541c-.18.18-.173.189-.033.369.082.107.156.213.238.32l.344.467c.074.099.123.099.205.008.156-.172.303-.36.41-.565.14-.271.23-.558.262-.861a2.086 2.086 0 0 0-.049-.78c-.033-.13-.033-.122-.156-.09-.32.107-.647.214-.967.328-.14.05-.148.05-.148.197 0 .058-.008.115.017.172.336-.246.598-.278.852-.098.173.123.28.435.222.631a.582.582 0 0 1-.533.435c-.345.016-.492-.107-.664-.533zm-1.468-1.419c.106-.065.196-.09.278-.114.123-.033.132-.05.132-.173 0-.344 0-.688-.009-1.033 0-.131-.016-.14-.147-.131-.033 0-.074 0-.107.025a.786.786 0 0 1-.303.073c-.09.009-.172.041-.254.074-.419.164-.73.46-1.009.796-.107.123-.107.295-.213.418-.033.033.008.074.04.082.058.024.107.033.165.057.287.107.598.156.885.263.148.057.197.024.246-.148-.401 0-.656-.14-.73-.426a.58.58 0 0 1 .263-.681.618.618 0 0 1 .705.057c.23.197.254.492.058.861zm34.72-.795c.024.082.082.107.123.14.13.114.205.245.156.426-.05.188-.14.311-.345.328-.065.008-.14.008-.205.057.057.05.123.058.18.082a.429.429 0 0 1 .14.099c.131.188.066.508-.131.615-.05.024-.099.049-.14.073-.049.033-.04.074.017.09.04.017.09.025.14.033a.377.377 0 0 1 .18.09.436.436 0 0 1 .032.607c-.049.066-.123.107-.155.197.09.041.164 0 .237-.008.156-.025.28.016.361.156a.346.346 0 0 1 0 .393c-.04.066-.09.123-.098.205.04.033.074.009.106 0 .082-.016.164-.049.246-.065.205-.041.361.082.378.287.008.065-.009.131-.017.205-.008.065-.05.147.017.188.049.033.114-.032.164-.065a.81.81 0 0 1 .27-.123c.164-.041.263.016.328.164.025.05.05.106.09.147.09.099.099.099.197.009a.45.45 0 0 1 .074-.058c.041-.033.14-.033.131-.098-.008-.082-.106-.066-.164-.082A2.74 2.74 0 0 1 55.15 41.8a2.635 2.635 0 0 1-.476-1.615c.025-.82.353-1.493.968-2.034.04-.033.09-.065.123-.131a.249.249 0 0 1-.09.025c-.14.032-.296.016-.386.164-.172.008-.131.13-.131.237v.05c-.025.237-.164.352-.402.328-.074 0-.164-.009-.262.016zm-33.416.951c.016.074.065.099.09.14.033.057.082.065.147.04.345-.114.69-.213 1.034-.327.13-.041.147-.074.082-.189a2.407 2.407 0 0 0-.476-.64 2.308 2.308 0 0 0-.623-.418 2.133 2.133 0 0 0-.673-.205c-.172-.024-.18-.016-.18.156v1.033c0 .05-.008.115.057.131.09.017.164.082.263.09-.189-.336-.172-.59.04-.803a.564.564 0 0 1 .706-.107c.221.123.353.41.295.656a.544.544 0 0 1-.156.296c-.172.155-.377.196-.606.147zm29.11-7.733c.132.05.238.017.337.025.467.04.935.074 1.41.098.295.017.582.041.878.058.188.008.377 0 .565.033.066.008.115-.025.115-.099v-.484c0-.057-.033-.074-.082-.065-.04 0-.082.008-.123.016-.221.041-.443.066-.664.09-.27.041-.55.066-.82.099-.394.049-.787.098-1.18.155-.14.017-.271.041-.435.074zm-30.8 2.936c.025-.14-.016-.246-.016-.353 0-.32 0-.647-.115-.959-.05-.131-.057-.14-.189-.09a18.3 18.3 0 0 0-.377.147.504.504 0 0 0-.156.099c-.221.246-.442.484-.664.73-.016.024-.049.04-.04.082.565-.18 1.082-.082 1.557.344zm37.443 1c-.27-.008-.279 0-.279.205v.09c.008.148.016.156.164.173.435.024.861.098 1.28.213.327.09.647.205.95.36.074.042.148.083.222.116.05.024.115.082.164.016.065-.082-.025-.115-.066-.164-.016-.025-.049-.04-.074-.057-.475-.37-1.016-.59-1.582-.78a3.133 3.133 0 0 0-.78-.172zm-36.975.214c-.41.024-.82.073-1.222.139-.14.025-.295.057-.418.131-.353.213-.714.41-1.083.607-.049.025-.09.057-.131.082-.05.033-.05.082-.025.123.033.066.074.016.107 0 .262-.123.525-.238.779-.36.582-.271 1.19-.419 1.837-.394.106.008.205 0 .311 0 .066 0 .09-.025.099-.09.016-.214-.008-.238-.222-.238h-.032zm12.464 1.73c-.18 0-.205.025-.238.189a.59.59 0 0 0 .255.598.603.603 0 0 0 .705-.008.636.636 0 0 0 .238-.607c-.025-.172-.238-.197-.271-.36-.008-.05-.074-.066-.123-.083-.189-.074-.246-.049-.303.148-.025.082-.074.123-.156.123h-.107zm12.907-.057c.107.098.148.188.14.303a.315.315 0 0 1-.246.303c-.123.033-.263-.032-.336-.14a.298.298 0 0 1 .024-.376c.033-.041.074-.074.115-.107s.033-.172-.008-.23c-.05-.057-.09-.024-.14 0a.594.594 0 0 0-.295.73c.115.304.435.476.73.386.402-.115.525-.517.385-.853a.338.338 0 0 0-.18-.189c-.033.09-.057.173-.189.173zm-24.502 4.321c.025-.246-.164-.46-.443-.46-.246 0-.467.165-.467.444 0 .254.196.459.459.45.27 0 .46-.13.45-.434zm31.62-7.79c.082-.033.123-.082.164-.123.082-.107.189-.131.32-.131.328.008.656 0 .984 0 .041 0 .082 0 .123-.009.074-.008.14-.106.098-.164-.073-.09-.139-.196-.278-.196-.427 0-.845 0-1.271-.009h-.033c-.066 0-.107.033-.107.107a3.736 3.736 0 0 0 0 .525zm-18.828 3.345c-.049.099-.065.173-.032.271.098.304-.074.804-.451.968a.87.87 0 0 1-.919-.14.836.836 0 0 1-.205-.95c.033-.083.082-.157.131-.23.025-.042.033-.099-.008-.132-.05-.033-.074.017-.098.05a.92.92 0 0 0-.213.844c.114.566.697.861 1.18.746.599-.14.968-.869.615-1.427zm11.53 1.395a.99.99 0 0 0 .984-.976c0-.082.008-.189-.05-.238-.106-.09-.13-.205-.163-.328a.409.409 0 0 0-.205-.246c-.025-.017-.058-.033-.082 0-.033.033-.033.065-.008.098.032.041.082.082.123.123.196.214.295.46.23.747-.091.401-.419.68-.796.688a.85.85 0 0 1-.837-.647.873.873 0 0 1 0-.386c.009-.04.009-.074-.04-.09-.042-.008-.074.008-.09.04l-.025.075c-.099.631.36 1.123.959 1.14zm6.749-5.044a2.386 2.386 0 0 0 0-.344c-.008-.074-.041-.098-.107-.107a.467.467 0 0 0-.426.246.627.627 0 0 0-.05.37c.025.188.124.336.345.327.05 0 .09 0 .14.009.073.008.106-.017.106-.099-.016-.106-.008-.23-.008-.402zm-16.286 7.946c-.025-.016-.041 0-.066.009-.615.32-.967.82-.959 1.533.008.705.353 1.206.992 1.509a.294.294 0 0 0 .09.033c.025.008.05.008.066-.025s-.008-.049-.033-.065c-.09-.05-.172-.09-.262-.14-.582-.336-.861-1.008-.722-1.673.099-.459.361-.795.755-1.033.082-.033.147-.066.139-.148zm9.324 1.46c-.008.082.016.164.033.246.073.533.36.927.811 1.206a.502.502 0 0 0 .099.04c.016.009.033 0 .04-.016a.04.04 0 0 0 0-.057c-.04-.033-.081-.058-.13-.09-.78-.484-.968-1.567-.419-2.272.14-.18.304-.328.5-.443.042-.024.099-.057.074-.106-.032-.058-.082 0-.114.016-.59.328-.861.836-.894 1.476zm-2.436-1.509c.008.099.066.123.123.156.533.303.812.763.82 1.37.009.565-.254 1.016-.73 1.328-.032.025-.106.033-.065.098.033.058.082.017.123-.008.024-.016.04-.024.065-.04.468-.337.714-.796.706-1.378a1.59 1.59 0 0 0-.59-1.263 1.17 1.17 0 0 0-.452-.263zm10.382-.04c0 .09.04.114.09.139.098.04.18.106.262.172.419.344.615.803.574 1.328-.04.574-.344 1-.852 1.28-.033.016-.066.032-.09.065-.009.008-.009.033-.009.041.008.025.025.025.05.017.016-.009.04-.017.057-.025a1.659 1.659 0 0 0 .525-2.591 1.43 1.43 0 0 0-.607-.427zm-20.771.09c0 .106.065.139.114.163.238.132.427.304.566.525a1.55 1.55 0 0 1-.434 2.14c-.041.025-.09.05-.107.099.14.025.23-.05.32-.123.467-.41.648-.918.557-1.534a1.558 1.558 0 0 0-.344-.779c-.172-.22-.394-.369-.672-.492zm-6.922.049c-.09.008-.139.057-.205.09-.902.541-1.05 1.755-.401 2.517.057.066.123.123.188.189.033.033.066.033.099-.008.024-.033-.009-.058-.033-.074a.948.948 0 0 1-.213-.23 1.609 1.609 0 0 1-.197-1.632c.14-.311.369-.557.664-.73.057-.016.09-.04.098-.122zm3.076 1.738c.016-.09-.017-.18-.09-.27a.702.702 0 0 1-.156-.452c0-.114-.058-.147-.156-.098-.058.033-.05.082-.05.14.009.286.09.565.09.852 0 .025.009.05.017.074.017.041.05.066.099.066.18.008.246-.058.246-.23v-.082zm10.152-.91c-.058.008-.09.016-.132.024-.098.033-.114.058-.106.156.033.304.082.607.115.91.008.058.024.09.09.074.057-.016.115-.024.164-.04.033-.009.065-.025.065-.058.017-.14.058-.295-.032-.426-.115-.19-.197-.394-.164-.64zm10.594.804a.387.387 0 0 0-.098-.312.522.522 0 0 1-.115-.287c-.008-.066-.024-.123-.033-.189 0-.024-.008-.049-.024-.057-.05-.017-.099.008-.148.024-.04.009-.057.058-.05.107.042.279.091.566.132.845.033.213.033.172.238.14.066-.01.107-.058.107-.132-.017-.033-.009-.074-.009-.14zm-29.16-9.3v-.123c0-.147 0-.295-.008-.434 0-.05-.025-.09-.082-.099s-.107.017-.115.074c-.016.058-.033.115-.033.164-.033.279-.008.558 0 .845 0 .057.017.115.025.172.008.05.04.066.09.074.082.008.123-.017.123-.115v-.558zm32.153-.287v.345c0 .04 0 .082.041.106.107.066.28-.024.28-.155v-.55c0-.172-.025-.197-.19-.221-.106-.017-.13 0-.139.106.008.132.008.246.008.37zm-32.038.87c.303-.378.295-.943 0-1.157v1.157zm5.19 10.316c0-.066 0-.123-.008-.189-.008-.057-.04-.09-.106-.107-.058-.008-.107.009-.131.058-.041.082-.099.164-.132.246-.016.04-.073.098-.032.14s.106.065.172.048c.024-.008.05-.008.074-.016.155-.008.155-.008.155-.164.009.008.009 0 .009-.016zm-5.805-2.403c0-.058-.025-.099-.074-.131s-.09-.017-.131.016c-.09.082-.18.156-.27.238-.05.04-.05.09.007.131.033.025.05.05.09.057a.38.38 0 0 1 .19.05c.032.024.057.008.073-.025.041-.115.074-.221.115-.336zm13.096-5.133c.082 0 .106-.017.13-.09l.075-.288c.008-.04.033-.09-.008-.115-.05-.032-.107-.049-.164-.024-.058.024-.115.057-.173.065-.049.009-.065.05-.049.09.025.1.05.19.082.288.008.057.05.082.107.074zm-6.74 7.896c.065-.008.138-.073.237-.082.04 0 .024-.049.016-.082-.024-.09-.057-.18-.074-.27-.016-.066-.049-.099-.123-.09-.065 0-.106.024-.123.09-.024.098-.049.188-.073.287-.025.123 0 .147.14.147zm5.583-.032c.074-.025.156-.058.246-.09.025-.009.025-.033.017-.058-.025-.098-.05-.205-.082-.303-.017-.066-.074-.082-.131-.082-.066 0-.099.032-.107.09-.025.098-.05.188-.074.287-.024.123 0 .156.131.156zm-13.243-6.159c.066 0 .098-.024.131-.074.033-.049.017-.09-.016-.123-.082-.09-.172-.18-.254-.27-.033-.041-.066-.033-.107 0-.107.09-.066.221-.09.336 0 .016.024.033.04.041.1.033.198.057.296.09zm-.664 1.419c-.008.131.082.205.106.303.009.033.05.033.082.025.082-.025.173-.05.255-.082.057-.017.098-.05.106-.115 0-.082-.057-.107-.115-.123l-.32-.074c-.098-.024-.114-.008-.114.066zm2.5 2.69c.165.008.165.008.198-.148.016-.074.016-.148.032-.213.009-.058-.032-.082-.073-.107-.05-.025-.09-.025-.123.016-.082.099-.164.205-.246.304-.025.033-.025.066.016.09.05.058.131.066.197.058zm-1.426-.771c.09-.107.164-.214.23-.328.024-.05.016-.09-.017-.132-.033-.04-.074-.057-.123-.032-.123.049-.238.106-.36.155-.042.017-.05.05-.025.09s.049.09.09.107c.082.033.14.082.205.14zm-.574-.706c.115-.082.213-.155.312-.221.049-.033.057-.082.032-.14-.024-.057-.057-.081-.123-.073-.106.016-.213.024-.328.04-.114.017-.123.042-.09.14a.12.12 0 0 0 .05.074c.065.041.098.098.147.18zm24.683-4.92c-.041.008-.099.066-.18.066-.058 0-.074.033-.058.082l.074.27c.016.058.05.099.123.099s.115-.033.131-.107c.025-.098.05-.188.066-.287.016-.106 0-.13-.156-.123zm-22.625.468c0-.09-.024-.115-.13-.09-.026.008-.05.016-.075.032-.04.033-.082.066-.13.074-.067.016-.075.066-.05.123.04.082.082.156.115.238.024.05.049.09.123.074.065-.017.114-.041.123-.123 0-.099.008-.205.024-.328zm12.243 7.97c.074-.008.156-.065.246-.073.033 0 .033-.041.025-.074l-.074-.27c-.016-.066-.057-.1-.123-.1-.065 0-.106.025-.123.091-.024.098-.057.197-.074.303-.024.099.009.123.123.123zm25.831-3.149c.033.115.074.246.107.378.016.049.04.049.082.032.123-.04.156-.172.262-.237-.016-.09-.098-.115-.147-.173-.033-.04-.074-.073-.107-.114-.041-.041-.082-.025-.131-.009-.041.025-.074.058-.066.123zm-22.108 3.133c.074 0 .131-.057.205-.066.066-.008.09-.04.074-.106-.025-.082-.04-.172-.066-.254-.016-.066-.049-.099-.123-.099-.065 0-.106.033-.123.099-.024.098-.057.205-.073.303-.017.082.008.115.106.123zm-9.684-8.102c.008-.09-.082-.14-.18-.098-.05.024-.1.057-.157.065-.057.008-.065.041-.057.09.025.099.057.19.082.288.016.057.05.09.115.09s.107-.041.123-.099c.033-.13.05-.238.074-.336zm18.344-.197c.008-.09-.058-.147-.14-.13-.082.024-.147.073-.23.081-.032.008-.032.05-.024.082.033.098.058.205.09.303.017.05.058.066.115.066.05 0 .09-.008.107-.066a2.89 2.89 0 0 1 .082-.336zm-7.725 8.299c.074-.025.164-.05.246-.082.025-.008.025-.041.016-.066-.024-.098-.049-.196-.082-.303-.016-.057-.065-.074-.123-.074s-.098.025-.106.082c-.025.099-.05.197-.074.304-.025.098.008.139.123.139zm12.12-7.798c.066 0 .099-.025.115-.083.025-.098.05-.188.074-.287.024-.098-.041-.155-.14-.139-.262.041-.262.05-.205.312.009.032.017.073.025.106.008.066.057.09.131.09zm-21.944-.443c-.074.024-.164.057-.254.09-.016.008-.025.033-.016.057.024.107.049.213.09.312.024.057.074.066.13.066.058 0 .083-.033.1-.082l.073-.32c.025-.09 0-.115-.123-.123zm2.887.049c.008-.09-.066-.14-.173-.099-.065.025-.123.058-.188.066-.041 0-.05.033-.041.066l.098.311c.017.066.066.074.123.066.058-.008.099-.016.115-.082a4.64 4.64 0 0 1 .066-.328zm-6.454.016c-.066.025-.164.05-.23.107-.057.05.009.123.025.188.016.058.033.115.05.165.016.057.073.065.122.065.058 0 .09-.033.099-.082l.073-.32c.009-.106-.008-.123-.139-.123zm15.466-.221c-.066.008-.148.065-.238.09-.025.008-.025.041-.025.066.025.098.058.196.082.303.017.066.066.066.123.074.058 0 .082-.025.099-.074.033-.107.065-.221.082-.328.024-.107 0-.131-.123-.131zm-.878 0c-.09-.008-.14.057-.221.065-.066.009-.09.05-.066.107.025.082.041.172.066.254.016.066.05.099.123.09s.115-.032.131-.106c.017-.099.041-.189.066-.287.016-.099-.008-.123-.099-.123zm-1.205.172c.024.082.05.172.074.262.016.066.057.099.123.099.073 0 .106-.041.123-.099.024-.09.04-.18.065-.278.008-.041.041-.09 0-.115a.148.148 0 0 0-.164-.017.496.496 0 0 1-.172.066c-.04-.008-.057.033-.05.082zm8.438.32c.066.008.107-.025.123-.09.025-.099.057-.189.074-.287.024-.123-.033-.173-.156-.14-.05.017-.098.041-.148.058-.065.016-.082.065-.065.123.016.09.04.172.057.262.008.057.05.082.115.074zm14.072 3.74c-.09 0-.148.114-.099.18.066.082.14.155.213.23.099.098.164.09.214-.034.024-.065.016-.139.049-.213.008-.016 0-.04-.025-.049a1.963 1.963 0 0 0-.352-.115zm-38.607-3.978c-.074.025-.156.057-.246.09-.008 0-.017.025-.017.041.033.123.05.246.115.353.025.05.074.05.123.04.05 0 .074-.032.082-.081.025-.107.058-.213.074-.32.025-.09-.008-.123-.131-.123zm9.955-.18a.607.607 0 0 0-.254.123c-.066.057.016.147.032.221.009.033.025.066.033.107.025.065.074.082.131.082.058 0 .099-.033.107-.09.025-.107.05-.214.066-.32.024-.107.008-.123-.115-.123zm16.22.098c.016.082.041.172.057.27.017.083.066.116.14.124s.098-.05.115-.107c.024-.098.049-.189.082-.287.032-.107-.033-.172-.14-.14-.065.025-.131.058-.205.066-.04 0-.049.025-.049.074zm-.558 8.102c-.032-.123-.065-.238-.098-.353-.016-.065-.057-.09-.131-.09s-.099.041-.115.099c-.025.082-.041.172-.066.254-.024.123.009.164.132.156a.152.152 0 0 0 .057-.017.588.588 0 0 1 .221-.049zm3.322-8.012.073.27c.017.075.066.1.14.1.074 0 .09-.058.106-.116.025-.098.041-.196.074-.287.025-.065-.008-.098-.065-.114-.041-.009-.304.057-.32.082 0 .016 0 .04-.008.065zM28.85 43.506c.148-.172.14-.402-.016-.55s-.394-.147-.55 0c-.155.156-.18.337-.04.492-.041-.172-.009-.32.139-.426a.335.335 0 0 1 .369.008c.156.123.164.28.098.476zm10.35 0c.188-.123.196-.418.065-.574a.424.424 0 0 0-.541-.066c-.19.131-.222.345-.066.582-.066-.23-.025-.393.164-.5a.328.328 0 0 1 .36.058c.157.155.132.32.017.5zM17.59 40.29c.05 0 .107 0 .156-.008.058 0 .074-.04.09-.09.017-.05.009-.09-.04-.123a2.553 2.553 0 0 0-.329-.18c-.049-.025-.082-.009-.106.049-.041.065-.017.131 0 .197.024.155.024.155.18.164.017-.009.033-.009.05-.009zm41.092 2.182c-.033-.115-.066-.238-.107-.361-.008-.041-.049-.041-.073-.025-.082.05-.173.099-.263.14-.033.016-.04.049-.016.073.09.099.172.19.262.28.05.048.099.007.14-.017.032-.017.065-.033.057-.09zm-22.6-5.216c-.066.025-.18.033-.246.099-.066.057.016.155.025.237a.4.4 0 0 0 .032.09c.025.066.058.107.14.1.074-.01.098-.042.115-.108.024-.098.049-.205.065-.303.017-.098-.008-.123-.13-.115zm22.485.673c-.033 0-.057.008-.057.033-.041.114-.074.23-.107.344-.016.057.033.082.074.107s.082.024.115-.009c.09-.082.18-.172.27-.254.041-.04.033-.065-.008-.106-.082-.09-.213-.033-.287-.115zm1.214 2.845c0-.008 0-.008 0 0-.05-.008-.107-.008-.156-.008-.057 0-.09.033-.115.09-.016.058.008.09.05.115.098.066.204.123.303.189.057.032.082 0 .107-.05.032-.065.008-.13.016-.196.008-.14.008-.14-.131-.148-.017.008-.041.008-.074.008zm-31.94-3.395c-.074.008-.156.058-.238.09-.033.009-.025.041-.025.066.025.098.058.189.082.287.017.058.066.074.123.074.066 0 .099-.033.115-.09l.074-.32c.008-.082-.016-.107-.131-.107zm19.18 7.684c-.074 0-.123.033-.14.115-.016.09-.04.18-.057.27-.016.099.05.156.148.132.074-.025.14-.066.213-.082.041-.009.033-.05.025-.082a3.768 3.768 0 0 0-.082-.287c-.008-.05-.05-.074-.107-.066zm-3.624-7.848c-.066.025-.172.041-.238.099-.05.04.008.123.025.188.008.05.024.099.04.148.017.057.05.082.115.09.066 0 .099-.025.115-.082.025-.098.058-.197.082-.303.025-.115 0-.14-.14-.14zm7.364.164c-.074.025-.164.05-.246.082-.025.008-.025.033-.017.058.025.098.041.205.074.303.025.058.066.074.123.074.066 0 .098-.033.107-.09.024-.099.057-.197.082-.304.016-.09-.009-.115-.123-.123zm2.361.353c.017.057.041.148.066.238.016.057.065.082.123.074.057 0 .09-.033.106-.082.033-.099.066-.197.09-.304.025-.115-.04-.172-.155-.131-.058.016-.099.057-.156.065-.066.017-.074.058-.074.14zm-13.473.008c.082 0 .115-.016.131-.09l.074-.27c.025-.124-.04-.181-.164-.148-.246.082-.246.082-.172.336.008.033.016.057.025.09.016.066.057.09.106.082zm-21.394.533c-.009 0-.009 0-.017.008-.123.058-.172.173-.205.28-.033.081.09.098.14.139.032.032.073.057.114.082s.09.032.132 0c.04-.041.082-.082.057-.148-.05-.107-.098-.213-.156-.32-.016-.024-.033-.04-.065-.04zm16.63-.927c.008.132.057.238.09.353.016.057.066.074.123.074.05 0 .09-.025.107-.074l.073-.27c.017-.05.025-.107-.024-.148-.05-.033-.107-.033-.164 0-.058.04-.123.05-.205.065zm24.658 2.116c.123-.008.221-.016.32-.024.065-.009.098-.033.074-.099-.025-.098-.107-.164-.148-.254-.016-.033-.057-.016-.082 0-.074.04-.14.09-.213.131-.066.041-.107.082-.082.164.024.082.09.082.131.082zm-13.4-2.222c-.048.05-.163.04-.229.106-.049.05 0 .132.017.197.008.05.024.09.032.14.017.073.074.082.132.082.057.008.09-.025.098-.074.033-.099.057-.205.082-.304.041-.123.016-.155-.131-.147zm3.494 6.142c.14-.189.115-.427-.057-.558a.424.424 0 0 0-.558.041c-.14.164-.147.353-.024.476-.041-.222 0-.345.155-.435a.32.32 0 0 1 .378.025c.13.115.164.262.106.45zm-28.102-5.88c-.066.025-.148.05-.23.082-.024.008-.033.041-.033.066.017.106.041.213.09.312.033.057.083.049.14.049.05 0 .074-.033.082-.082l.074-.32c.008-.074-.025-.107-.123-.107zm19.746-.205c.041.131.066.238.098.353.017.065.058.09.132.09.065 0 .09-.033.106-.09.017-.082.05-.164.066-.238.016-.05.04-.107-.017-.148-.049-.032-.106-.049-.164-.016a.74.74 0 0 1-.221.05zm-18.902.697c.066 0 .107-.032.123-.098.025-.098.041-.205.066-.304.016-.065-.016-.09-.074-.106-.123-.025-.197.074-.303.09-.017 0-.017.033-.008.057.024.099.057.19.082.288.008.057.057.073.114.073zm9.25-.582c.008-.09-.008-.107-.09-.107-.107-.008-.205.05-.287.107-.04.033.016.123.033.189.016.049.033.098.04.147.017.058.05.09.116.082.057 0 .098-.024.114-.082.033-.115.066-.221.074-.336zm-7.232.098c.016-.057-.025-.073-.09-.073-.099 0-.173.065-.271.082-.033.008-.041.049-.033.082.025.098.057.188.09.287.017.057.066.074.123.074.058 0 .082-.041.099-.09.04-.116.065-.23.082-.362zm23.518.296c.057 0 .09-.017.107-.074.032-.107.073-.213.106-.328.017-.058-.008-.082-.065-.107-.082-.033-.14.017-.205.041-.041.017-.107-.016-.132.033-.024.05.009.098.017.148.008.065.033.13.05.196.024.074.065.09.122.09zm11.702.82c-.008-.017-.017-.041-.033-.058-.057-.082-.164-.106-.238-.18-.024-.025-.057.008-.074.033l-.172.221c-.04.05-.033.09 0 .14s.082.065.14.049c.114-.041.221-.09.336-.14a.068.068 0 0 0 .04-.065zm-2.362 4.198a.132.132 0 0 0-.131.156c.025.115.066.221.098.328.017.05.041.057.099.041.115-.04.147-.164.238-.221.008-.009.008-.033 0-.041a1.368 1.368 0 0 0-.271-.263h-.033zm1.468-.746c.025.09.057.221.098.344.017.041.05.05.09.033a.465.465 0 0 0 .23-.221c.041-.074-.074-.115-.123-.18-.024-.033-.065-.066-.098-.099-.033-.041-.074-.05-.123-.025-.05.033-.082.058-.074.148zm-24.732-4.658a3.1 3.1 0 0 0 .082.295c.016.05.066.066.115.066.057 0 .098-.025.115-.082.024-.115.057-.221.082-.336.008-.041 0-.066-.041-.082-.058-.017-.296.04-.328.09-.017.008-.017.033-.025.05zm-14.933.804c-.008-.057-.024-.123-.033-.18-.016-.074.009-.18-.073-.205-.074-.025-.148.057-.214.114a.45.45 0 0 1-.073.058c-.025.024-.033.057-.017.082.058.082.123.172.197.238.041.04.09.04.148.008.049-.017.065-.058.065-.115zm37.984-.582a1.028 1.028 0 0 1-.254.082c-.025.008-.025.04-.017.065.025.09.05.18.066.27.016.058.05.091.115.091.057 0 .098-.016.115-.082.024-.098.057-.188.09-.287.04-.098.008-.14-.115-.14zm-5.371-.041c.008-.099-.05-.14-.148-.123-.254.049-.27.073-.197.328.009.033.025.065.033.106.017.058.05.074.107.074.057 0 .106-.016.123-.074.024-.106.057-.213.082-.311zm-22.789-.123c.008-.09-.082-.148-.18-.107-.05.025-.099.057-.156.066-.057.008-.066.04-.057.09.016.098.065.188.09.287.016.04.04.074.09.074.057 0 .107-.008.123-.074.033-.115.066-.23.09-.336zm27.25.14c-.074.024-.156.056-.246.09-.017.007-.025.032-.025.057.025.098.041.205.074.303.016.066.082.066.14.074.057.008.073-.041.09-.09.032-.107.057-.213.082-.312.024-.098 0-.123-.115-.123zm1.509.262v.106c0 .066 0 .131.073.148.074.024.132-.017.173-.082l.123-.197c.073-.123.04-.18-.099-.18-.024 0-.049.008-.074.008-.188.016-.188.016-.196.197zm-5.265.139c.082 0 .115-.016.131-.09.033-.107.058-.222.082-.337.017-.057-.008-.073-.057-.09-.066-.016-.123.017-.18.041-.05.025-.115-.008-.14.041-.025.058.008.115.016.164.009.058.033.107.041.164.017.082.05.115.107.107zm7.708 2.214c-.024-.082-.024-.197-.082-.262-.057-.066-.156.016-.23.032a.615.615 0 0 0-.13.041c-.05.017-.074.058-.074.107 0 .057.024.09.082.098.106.025.221.058.336.082.066.017.098-.008.098-.098zm-4.879-2.649c-.065.025-.147.05-.23.082-.024.008-.032.041-.024.066.025.098.057.197.09.295.017.05.074.058.115.058.05 0 .074-.025.09-.074.033-.099.058-.197.09-.304.033-.098.009-.115-.13-.123zm-2.755 7.963a.676.676 0 0 0 .254-.107c.05-.04-.008-.123-.025-.188a.615.615 0 0 0-.04-.132c-.017-.057-.066-.082-.124-.082-.065 0-.098.033-.114.09-.025.099-.05.19-.074.288-.017.098.008.123.123.13zm-27.184-8.012c.008-.066-.025-.107-.107-.107-.098 0-.172.066-.254.09-.025.009-.025.042-.016.074l.073.271c.017.058.066.074.123.074.058 0 .099-.025.115-.082.025-.107.041-.213.066-.32zm26.528 7.856a2.454 2.454 0 0 1-.066-.262c-.016-.066-.065-.09-.131-.09-.057 0-.098.024-.107.09a4.009 4.009 0 0 1-.065.303c-.025.082.016.107.082.115.106.016.18-.074.279-.09.008 0 .008-.033.008-.066zm-11.144-8.16a.923.923 0 0 1-.18.066c-.066.017-.091.05-.075.115.025.082.041.164.066.238.016.065.057.098.123.09.074 0 .098-.04.115-.107.024-.09.049-.18.065-.27.033-.09-.008-.131-.114-.131zm-7.299.042c-.082 0-.139.057-.221.065-.057.008-.066.041-.057.09.024.082.049.173.065.255.017.073.058.09.123.09.066 0 .107-.025.123-.09.025-.099.05-.189.066-.287.024-.099 0-.123-.099-.123zm20.944.287c-.058.024-.148.057-.238.09-.016.008-.025.033-.016.057.024.099.04.189.073.287.017.058.058.082.115.082s.082-.04.099-.082c.04-.106.065-.221.09-.328.016-.074-.025-.098-.123-.106zm-34.17.459h.122c.074 0 .09-.041.066-.107-.025-.065-.041-.13-.058-.197-.032-.106-.057-.123-.155-.123-.099.009-.14.041-.156.14-.008.04-.008.082-.008.123.008.189.008.189.188.164zm-.419 3.411c-.008-.008-.008-.024-.016-.033s-.033-.008-.041 0c-.033.025-.058.058-.082.09-.197.28-.402.566-.599.845-.016.025-.033.041-.041.066-.008.016 0 .04.016.057.025.017.041 0 .058-.008.016-.016.024-.033.04-.05.214-.294.42-.581.632-.877a.15.15 0 0 0 .033-.09zm-2.132-1h-.09c-.074 0-.123.016-.131.098-.017.09.016.172.082.197.09.033.188.05.287.057.04.009.073-.016.065-.065-.008-.074-.008-.148-.016-.213-.008-.05-.041-.074-.082-.074h-.115zm14.014 3.165c0-.106-.106-.213-.213-.205-.107.008-.205.099-.205.205 0 .115.09.205.205.213.131-.008.213-.09.213-.213zM17.813 37.38c-.008.008-.017.017-.017.025.082.123.156.238.238.36.017.025.041.05.074.05.123-.008.246-.156.23-.27-.009-.042-.025-.066-.066-.075a1.69 1.69 0 0 1-.46-.09zm23.97 5.962c-.124-.008-.214.074-.222.189s.074.196.188.213c.123.008.222-.066.23-.18.008-.124-.074-.214-.197-.222zm-5.626.033c-.123 0-.213.082-.213.197 0 .106.106.205.221.205a.19.19 0 0 0 .197-.197c0-.123-.082-.205-.205-.205zm13.17-.37c-.115 0-.214.1-.214.206s.099.196.205.205c.107.008.214-.099.214-.214a.213.213 0 0 0-.205-.196zm-23.585.829c.115 0 .197-.082.19-.205 0-.123-.083-.205-.19-.205-.123 0-.213.082-.213.205a.21.21 0 0 0 .213.205zm-4.747-2.485c-.025.008-.041.025-.041.041 0 .041.032.066.049.099.213.287.426.582.64.869.016.024.032.04.049.057.016.008.032.017.04 0 .009-.008.025-.024.025-.04 0-.034-.024-.058-.04-.083-.042-.057-.091-.115-.132-.172-.172-.238-.344-.476-.517-.705-.008-.033-.032-.066-.073-.066zm25.502 1.968c-.106 0-.205.09-.205.197 0 .099.115.213.214.213.106 0 .196-.098.196-.205a.203.203 0 0 0-.205-.205zm-7.339-.057a.194.194 0 0 0-.213-.197c-.107 0-.197.098-.197.205 0 .098.107.197.222.197a.2.2 0 0 0 .188-.205zm-10.398.05a.213.213 0 0 0-.197-.206.203.203 0 0 0-.205.205.19.19 0 0 0 .197.197c.115.016.205-.074.205-.197zm31.046-3.732-.246.025c-.073.008-.098.049-.09.114a.683.683 0 0 0 .033.123c.016.058.057.074.107.058l.27-.074c.074-.016.107-.057.082-.14-.016-.09-.04-.106-.156-.106zm-41.682.156c-.04 0-.065.008-.065.04 0 .025.024.034.04.042.009.008.017.008.034.008.36.115.713.221 1.074.336.016.008.04.008.057.017.025 0 .041-.009.05-.025.008-.025 0-.041-.025-.05-.041-.016-.074-.032-.115-.048-.328-.099-.656-.205-.984-.304-.025-.008-.05-.008-.066-.016zm34.212 3.764c0-.107-.098-.205-.213-.205-.099 0-.189.09-.197.188-.008.115.082.205.205.205s.205-.073.205-.188zm-31.03-3.346c.033.033.058.016.082.008.36-.115.722-.221 1.074-.336a.257.257 0 0 0 .082-.041c.009-.008.017-.033.009-.041-.009-.008-.025-.025-.033-.025a.152.152 0 0 0-.058.017c-.213.065-.426.131-.647.197-.132.04-.263.082-.386.13-.05.017-.115.025-.123.091zm38.353 1.304c.065 0 .098-.033.123-.082.024-.058 0-.09-.05-.115-.09-.057-.18-.107-.27-.164-.04-.025-.082-.025-.107.025-.024.065-.098.123-.073.213 0 .008.016.016.024.016.123.033.238.066.353.107zm-39.952 1.607c.016-.05 0-.066-.025-.074-.082-.024-.172-.074-.254-.057-.082.008-.074.123-.106.197l-.025.073c-.008.041-.025.09.025.107.049.025.106.074.155.033.09-.082.164-.18.23-.279zm25.355-4.699c.099 0 .189-.09.189-.188 0-.09-.098-.189-.189-.189-.114 0-.196.082-.188.205-.008.099.082.172.188.172zm-24.773.419v.5c0 .04.008.082.008.123 0 .024.017.04.041.033.009 0 .025-.017.025-.033.008-.033.008-.074.008-.107v-1.008c0-.033 0-.066-.008-.09 0-.017-.008-.042-.033-.05-.033-.008-.04.025-.049.05-.008.032-.008.065-.008.09.016.172.016.328.016.492zm-2.64 2.82c.04-.008.082-.016.131-.016.23-.016.221-.008.123-.238-.025-.057-.066-.074-.123-.057-.057.016-.115.04-.18.057-.066.017-.115.05-.099.131.017.09.05.123.148.123zm12.44 3.018v.033c.205.279.492.443.82.541.008 0 .016.008.032.008.033 0 .05-.008.058-.04.008-.025-.008-.042-.025-.05-.016-.008-.04-.016-.057-.024-.27-.082-.5-.23-.689-.443-.05-.033-.09-.058-.14-.025zM59.15 38.34c-.008-.066-.049-.099-.098-.123-.04-.025-.066 0-.098.024-.05.05-.107.099-.156.148-.14.131-.14.131.008.246.057.05.09.05.14-.016.049-.074.106-.14.163-.214.009-.008.025-.04.041-.065zm-39.336-4.79c-.009-.057-.017-.122-.025-.18 0-.016-.016-.04-.033-.049-.057-.04-.295.008-.303.082-.017.074-.058.14-.066.222 0 .04.017.065.058.04a.432.432 0 0 1 .303-.032c.041 0 .074-.025.066-.082zm-2.206 5.995c-.058-.016-.09.008-.107.066-.016.057-.057.123.017.164.082.049.172.09.262.14.033.016.057 0 .074-.034.09-.18.074-.237-.131-.303a.47.47 0 0 0-.115-.033zm.762 2.649c0-.008-.008-.017-.008-.025-.065-.156-.147-.18-.287-.09-.033.025-.065.05-.106.066-.05.032-.09.073-.058.14.033.073.09.097.164.073.09-.025.172-.074.254-.123.025 0 .041-.017.041-.041zm40.001-4.28c.009-.058 0-.083-.04-.1-.05-.015-.099-.04-.14.01-.074.09-.123.204-.18.303-.017.032 0 .057.032.073.05.017.099.041.148.05.041.008.074-.009.09-.041a5.83 5.83 0 0 0 .09-.296zM27.383 40.11a.175.175 0 0 0-.173-.18c-.106-.009-.188.073-.188.18s.065.18.172.18c.107 0 .18-.073.189-.18zm2.337-.016c0 .098.082.18.172.18.106 0 .188-.074.188-.18 0-.115-.073-.18-.188-.18a.186.186 0 0 0-.172.18zm-11.563-.919c.066-.024.082-.09.123-.147.033-.041.025-.074-.016-.107-.074-.05-.148-.098-.213-.148-.033-.024-.066-.04-.099-.008-.04.041-.09.09-.065.148.057.098.139.18.23.246.007.008.024.008.04.016zm22.321.87c0-.099-.073-.173-.18-.181-.107 0-.189.074-.189.18s.066.173.18.173c.116.008.19-.058.19-.173zM37.6 39.89c-.098 0-.188.073-.188.164 0 .09.082.188.172.188.098.008.188-.082.197-.18 0-.099-.066-.172-.18-.172zm19.902-2.001v-.107c0-.057-.008-.107-.082-.115-.065-.008-.098.033-.115.082l-.049.197c-.057.205-.04.213.156.172.057-.008.082-.04.082-.09.008-.05.008-.098.008-.14zm-9.356 2.107c0-.09-.082-.156-.18-.156-.1 0-.206.099-.198.18.009.083.107.173.197.165.099 0 .18-.082.18-.189zm2.525-.172c-.098 0-.18.082-.18.172s.09.18.18.18c.099 0 .18-.081.18-.18s-.073-.172-.18-.172zm-1.96.418c-.008.033-.016.066.025.082.05.017.058-.033.074-.065.008-.017.008-.033.008-.05.025-.147.058-.295.082-.45.025-.115.041-.23.066-.337.008-.033.008-.065-.033-.082-.05-.016-.057.025-.074.066-.008.016-.008.033-.008.049-.05.262-.098.525-.14.787zm.788 0c.008.025 0 .066.04.074s.05-.033.058-.066c.008-.016.008-.04.017-.057.032-.197.073-.402.106-.599l.025-.196c0-.025-.008-.041-.025-.05-.024-.008-.04.009-.05.025-.007.016-.015.025-.015.041-.058.279-.107.55-.156.828zm-20.132-.713c0-.041.016-.082-.033-.09-.04-.009-.049.024-.057.057-.008.025-.017.05-.017.074-.04.238-.09.467-.13.705-.009.033 0 .074 0 .107 0 .016.007.032.024.032a.063.063 0 0 0 .04-.016c.025-.033.034-.074.042-.115.024-.156.057-.303.082-.459.016-.098.033-.205.049-.295zm-1.41.754v.099c0 .024.016.04.04.04.025 0 .033-.016.042-.04.008-.025.016-.05.016-.074.033-.197.074-.394.107-.582l.024-.156c.008-.041.033-.107-.024-.123-.058-.017-.066.057-.074.098l-.025.172c-.04.189-.074.386-.106.566zm-9.406-2.87c-.033 0-.066.016-.074.05-.008.04.025.048.057.048.099.009.18.05.23.14.025.04.057.065.107.04.114-.048.23-.098.344-.155.025-.008.05-.033.033-.057-.017-.033-.041-.025-.066-.025l-.328.05c-.082.007-.156.007-.221-.05a.1.1 0 0 0-.082-.04zm30.792 2.042c0-.041.016-.098-.033-.107-.057-.008-.04.058-.057.09-.008.009-.008.017-.008.033-.033.23-.074.46-.123.69a.31.31 0 0 0 0 .122c0 .008.016.025.032.033.009 0 .025-.008.033-.025a.063.063 0 0 0 .017-.04c.049-.263.09-.534.139-.796zm-20.575.968c.058-.025.05-.066.058-.107.049-.254.09-.5.14-.754.007-.041.032-.107-.025-.123-.058-.009-.058.057-.066.098-.057.246-.09.5-.131.754-.008.041-.017.082.024.132zm-9.635-2.485c.016.074.033.172.057.27.009.025.017.042.041.042a.313.313 0 0 0 .197-.09c.041-.042 0-.09-.016-.132l-.074-.172c-.025-.05-.057-.074-.115-.05-.049.017-.09.05-.09.132zm19.213 2.304c-.008.066-.016.115.033.115.041 0 .05-.033.058-.066s.024-.073.024-.106c.017-.18.05-.361.09-.541.017-.074.025-.148.033-.214 0-.024 0-.04-.024-.049-.025-.008-.041.008-.05.033-.008.016-.016.041-.024.057l-.14.771zm-19.402 2.452c-.032-.057-.082-.082-.139-.115-.041-.024-.082-.024-.107.017-.049.073-.098.147-.155.213-.025.033-.025.065.008.098s.074.074.123.05c.098-.066.18-.14.254-.23.008-.008.008-.017.016-.033zm20.813-3.206c-.008-.05.016-.099-.033-.099-.033-.008-.041.033-.057.066-.009.025-.017.05-.017.074l-.123.672c-.008.033-.008.074-.008.107 0 .024.008.04.033.049.033.008.04-.016.057-.041 0-.008.008-.016.008-.033.041-.27.09-.541.14-.795zm-11.177.082h-.008v-.033c0-.033.008-.082-.041-.082-.041 0-.041.041-.05.074l-.123.697-.024.156c0 .024.008.04.033.049.032.008.049-.017.057-.041.016-.058.016-.115.033-.172.04-.222.082-.435.123-.648zm10.365-.197c-.066.041-.066.098-.074.156-.033.23-.065.45-.123.68-.008.041-.008.082-.008.123 0 .009.016.025.033.033.008 0 .033-.008.033-.024.016-.025.024-.058.032-.09.041-.238.09-.476.132-.714 0-.05.016-.098-.025-.164zm-21.6.156c0-.033-.008-.058-.032-.066-.025-.008-.041 0-.058.017-.049.082-.098.155-.147.237s-.099.164-.205.173a.1.1 0 0 0-.09.057c-.017.033-.025.057.008.082.024.016.049 0 .065-.016a.289.289 0 0 1 .263-.107c.024 0 .057.008.065-.025a1.03 1.03 0 0 0 .131-.352zm.18-.55c.042.009.066-.016.083-.04.057-.09.115-.173.164-.263.016-.025.016-.05-.008-.074a.062.062 0 0 0-.074 0c-.066.058-.123.107-.18.164-.066.066-.14.123-.247.107-.049-.008-.09 0-.123.049a.07.07 0 0 0 0 .057c.009.017.025.025.041.017.123-.058.23-.082.345-.017zm32.564.361c-.057.05-.057.115-.074.172-.04.222-.082.451-.114.681-.009.041-.033.107.024.123.058.008.058-.066.066-.107.049-.237.09-.483.131-.721.008-.05.025-.099-.033-.148zm-9.652 5.207c.173.246.394.41.648.517.033.016.074.041.099 0 .024-.05-.025-.074-.058-.09-.008 0-.008-.008-.016-.008a1.306 1.306 0 0 1-.5-.37c-.041-.049-.09-.073-.173-.049zm-1.115-5.166c-.057.033-.057.082-.065.131-.033.173-.066.353-.09.525-.017.09-.033.172-.042.263-.008.024 0 .057.033.057.033.008.05-.016.058-.05 0-.007.008-.016.008-.032l.123-.738c.008-.041.024-.098-.025-.156zM17.78 42.99v.041c0 .033.016.066.05.066.048 0 .032-.041.032-.074a.266.266 0 0 1 .082-.254c.025-.025.041-.058.016-.082-.082-.107-.172-.213-.254-.32a.05.05 0 0 0-.057-.008c-.017.016-.025.033-.017.057.025.066.058.123.09.18.058.14.156.255.058.394zm-.615-2.148-.025-.295c0-.025 0-.058-.032-.066-.033-.008-.041.025-.05.05-.024.09-.049.18-.057.27-.016.09-.041.156-.131.205-.033.016-.066.04-.082.074s-.017.065.016.082c.041.024.05-.017.066-.041.049-.09.115-.156.213-.164.074-.009.09-.05.082-.115zm27.463-3.764h.172c.025 0 .057-.008.057-.041s-.024-.05-.049-.05l-.213-.049c-.123-.024-.238-.057-.295-.18-.008-.025-.033-.04-.058-.05-.024-.016-.057-.016-.073.01-.017.032.008.048.024.056.074.05.156.107.164.197.008.09.058.115.14.107h.13zm-26.241 6.002a.18.18 0 0 0-.041.025c-.017.025-.008.05.008.074.05.057.098.123.156.18.065.066.115.132.09.23a.114.114 0 0 0 .016.09c.017.025.041.058.074.041.041-.016.025-.05.017-.074-.033-.073-.066-.14-.033-.221.04-.14.04-.14-.074-.222a2.051 2.051 0 0 1-.14-.098.381.381 0 0 1-.073-.025zm41.403-2.451h.14c.04 0 .065-.033.073-.066.009-.05-.024-.066-.057-.074l-.32-.074c-.074-.016-.09.025-.098.09-.009.066 0 .115.082.124.057-.009.123 0 .18 0zm-42.346 1.205c-.033-.098-.074-.205-.115-.312-.008-.024-.025-.049-.057-.04s-.033.04-.033.065a.707.707 0 0 0 .016.23c.017.106.017.205-.065.287-.025.024-.041.049-.041.082 0 .024.008.057.04.057.025 0 .042-.016.042-.04a.356.356 0 0 1 .172-.247c.033-.008.04-.033.04-.082zm20.46.426c.057.164.172.23.311.271.025.008.058.016.074-.008.04-.058.025-.123.008-.18-.008-.05-.033-.09-.09-.09-.098 0-.197-.009-.303.007zm-10.382.066c.041.18.18.213.312.262.032.017.057 0 .073-.032.058-.164-.008-.246-.172-.246-.074 0-.14-.017-.213.016zm-9.685-4.24a.255.255 0 0 1 .214.083c.024.024.049.04.082.016.065-.057.139-.115.205-.172.024-.017.024-.041.008-.074-.017-.033-.041-.05-.074-.033-.041.017-.09.033-.131.058-.099.057-.197.098-.304.032-.008-.008-.032-.008-.049-.008-.049.008-.082.025-.082.074 0 .057.05.033.082.033.008-.008.008-.008.05-.008zm30.448 4.15c.033.14.131.197.246.23.057.016.115.04.14-.042.024-.09 0-.213-.066-.213-.107-.008-.222-.04-.32.025zM38.182 37.11c.066 0 .132 0 .205-.009.009 0 .025-.016.033-.032 0-.009-.008-.033-.024-.033a.406.406 0 0 0-.107-.033c-.172-.04-.353-.05-.443-.246 0-.008-.016-.016-.024-.025-.025-.016-.05-.016-.066.009-.016.024.008.04.025.049.082.05.147.115.155.205.017.098.066.115.148.115h.098zm21.37 1.738c-.09.041-.205.09-.32.14-.049.024-.082.049-.04.106.032.05.057.115.13.066.1-.058.197-.131.304-.197.025-.016.033-.041.025-.066-.017-.032-.033-.057-.099-.049zm-40.132-1.68c.164.015.246.114.295.245.008.033.05.033.082.025l.28-.05c.024-.008.056-.008.056-.04 0-.042-.032-.042-.065-.05-.074-.024-.148-.024-.213-.024-.107 0-.205-.025-.263-.132-.04-.049-.098-.049-.172.025zm29.349-.329c.123.082.221.164.221.312 0 .032.033.049.066.049h.246c.025 0 .05-.017.057-.041.009-.033-.008-.05-.032-.058-.041-.016-.074-.032-.115-.04-.123-.025-.238-.066-.295-.197-.033-.05-.074-.066-.148-.025zm1.246 5.494c0 .148.017.164.148.099.041-.017.082-.033.107-.066.04-.04.098-.098.073-.156-.024-.049-.09-.024-.139-.033h-.033c-.147.017-.156.025-.156.156zm-23.543 2.682c.099.016.164.016.222-.017.147-.082.246-.205.352-.32.017-.016.025-.04.009-.057a.05.05 0 0 0-.058-.008c-.016.008-.04.016-.057.025a2.468 2.468 0 0 1-.468.377zm19.935-7.897c.05-.008.099-.008.14-.008.024 0 .04-.017.04-.041.009-.025-.008-.041-.024-.05a.544.544 0 0 0-.164-.049c-.107-.024-.213-.057-.254-.18-.008-.033-.033-.058-.066-.058-.024 0-.04 0-.057.017-.017.024 0 .04.016.05.099.048.164.122.172.245 0 .05.033.074.082.074.041-.008.082 0 .115 0zm.492-.336c.123.073.23.13.23.262 0 .09.049.098.123.098h.074c.057-.008.155.041.172-.049.008-.074-.09-.065-.14-.082-.123-.033-.237-.065-.295-.197-.024-.057-.074-.082-.164-.032zm-20.164.155c.13.058.205.148.221.271.008.041.033.066.074.066h.246c.025 0 .05-.017.057-.05 0-.032-.016-.049-.04-.057-.066-.016-.132-.04-.197-.05-.09-.016-.164-.048-.214-.139-.016-.065-.057-.09-.147-.04zm21.074 7.61c0-.032-.024-.032-.049-.032-.033 0-.057.016-.082.04a1.547 1.547 0 0 1-.426.337c-.008.008-.017.008-.025.016-.016.017-.024.041-.008.058a.18.18 0 0 0 .041.024c.016 0 .033 0 .041-.008.189-.098.344-.23.484-.394.016-.016.024-.032.024-.04zm-29.02-6.06c-.009-.016-.017-.032-.033-.049-.05-.065-.107-.131-.156-.197-.025-.032-.057-.057-.107-.024-.04.033-.04.074-.016.115.041.082.082.155.115.237.016.033.033.074.082.05.049-.033.098-.058.115-.132zm29.07-1.68c.106.09.205.163.221.303 0 .04.041.057.082.057.033 0 .074.008.107 0 .057-.008.155.041.172-.05.008-.073-.09-.065-.148-.081-.123-.041-.254-.066-.311-.213-.017-.033-.058-.058-.123-.017zm-19.312.065c.123.065.197.123.23.221.016.05-.009.115.057.131.05.017.107.009.156 0 .04-.008.082-.008.123-.008.024 0 .04-.016.04-.033.009-.024-.007-.04-.024-.057a.428.428 0 0 0-.172-.057c-.107-.009-.189-.041-.238-.148-.016-.066-.065-.082-.172-.05zm11.915-.123c.098.065.189.106.221.205.058.164.066.164.23.14.033 0 .066 0 .09-.009.033 0 .074 0 .074-.04 0-.034-.033-.05-.066-.067-.049-.016-.098-.032-.147-.04-.107-.025-.205-.05-.254-.165-.017-.057-.066-.065-.148-.024zm-3.666.016c.156.058.238.148.246.287.009.041.05.058.082.058h.238c.025 0 .05-.009.05-.05 0-.024-.009-.04-.033-.049a.806.806 0 0 0-.132-.04c-.114-.034-.237-.05-.295-.181-.008-.05-.057-.066-.156-.025zm-11.004.189c.114.057.213.115.238.23.016.081.057.106.123.098.032 0 .065.008.09 0 .057-.017.164.033.164-.058.008-.073-.099-.065-.148-.073-.131-.025-.254-.058-.32-.189-.024-.057-.065-.066-.147-.008zm17.45-.213c.123.065.205.14.213.262 0 .041.033.066.074.066h.246c.025 0 .05-.017.057-.041.009-.033-.016-.05-.04-.058-.042-.016-.09-.024-.132-.04-.115-.034-.238-.05-.287-.181-.024-.041-.074-.041-.131-.008zm-21.928.295c.156.05.222.14.255.254.008.041.032.066.073.066h.255c.024 0 .049-.017.049-.05s-.025-.049-.05-.057a.871.871 0 0 0-.155-.033c-.107-.024-.213-.049-.27-.164-.01-.049-.058-.065-.157-.016zm24.191.05c.041 0 .082 0 .123-.01.025 0 .041-.007.05-.032.008-.033-.009-.05-.042-.057-.057-.017-.106-.041-.164-.05-.106-.016-.188-.057-.23-.164a.13.13 0 0 0-.057-.073.062.062 0 0 0-.073 0c-.025.024-.009.049.016.057.098.057.156.131.164.246 0 .041.033.066.074.066.057.016.098.016.14.016zm-9.594-.313c.131.066.213.148.23.28 0 .024.024.048.049.048.09.017.188.009.278 0 .025 0 .033-.016.041-.04 0-.025-.008-.042-.024-.05-.058-.016-.107-.033-.164-.049-.107-.025-.213-.057-.263-.172-.032-.041-.073-.058-.147-.017zm-8.25.123c.041.066.115.074.148.123.041.05.057.115.082.173.016.04.05.049.09.049.082 0 .156 0 .238-.008.025 0 .041-.009.05-.033a.056.056 0 0 0-.034-.066c-.057-.016-.106-.033-.164-.04-.106-.025-.205-.05-.254-.157-.033-.04-.074-.082-.156-.04zm12.317 5.372c-.057-.033-.123-.025-.18-.025-.148 0-.18.05-.156.197.008.057.041.082.098.065.123-.032.222-.09.238-.237zM31.31 36.83c.115.05.19.106.222.205.05.147.05.147.197.123.033-.008.074-.008.106-.008s.074 0 .074-.041c.008-.05-.04-.05-.074-.066-.016-.008-.04-.008-.057-.016-.123-.033-.254-.058-.32-.197-.025-.058-.074-.041-.148 0zm-1.877 5.47c-.033 0-.074 0-.107.008-.05.008-.074.032-.082.082 0 .057-.025.123.016.164.05.04.107-.009.156-.025a.179.179 0 0 0 .066-.04c.04-.042.106-.091.082-.157-.008-.049-.082-.024-.131-.033zm29.635.442c.041 0 .074.017.107.041.033.025.066.05.115.041.024 0 .057-.008.057-.04 0-.025-.024-.034-.049-.025-.082.016-.156-.025-.213-.074-.123-.099-.123-.099-.246-.025-.041.025-.082.05-.115.074-.025.016-.04.033-.025.066.009.016.033.032.05.024l.106-.024c.066-.017.14-.033.213-.058zm-26.265 2.534c-.008-.008-.016-.008-.025-.016-.073.057-.155.115-.23.18-.048.041-.04.099-.016.156.017.041.058.057.099.057.065 0 .098-.032.106-.09.025-.09.05-.188.066-.287zM20.83 37.356c.049-.025.172.016.18-.074.008-.074-.115-.074-.18-.09-.09-.017-.164-.05-.214-.14-.016-.033-.04-.074-.09-.082-.024 0-.04 0-.057.017-.017.024 0 .04.024.049a.3.3 0 0 1 .189.23c.016.081.066.098.148.09zm39.222 4.625c-.132.082-.238.098-.361.04-.033-.016-.066-.016-.082.017-.05.074-.099.148-.14.221-.016.025-.008.05.017.066.016.016.04.008.057 0 .05-.04.107-.082.156-.131.074-.074.147-.131.254-.123.033.008.09.008.099-.09zm-10.35-5.117c.107.082.206.164.206.295 0 .024.016.04.04.04.09.01.173.034.263.025.025 0 .05-.016.058-.04.008-.033-.009-.05-.041-.058-.058-.016-.107-.05-.164-.057-.107-.017-.19-.058-.23-.164-.008-.041-.041-.074-.131-.041zm-12.218 7.7c-.057-.017-.098-.017-.123.016a2.19 2.19 0 0 1-.393.336c-.017.017-.033.033-.017.05.008.016.033.032.058.024.024 0 .049-.008.073-.024.148-.107.288-.23.402-.402zM53.23 37.06c.106.05.172.107.197.197.04.131.04.131.172.131.065 0 .188.041.197-.032.016-.09-.107-.082-.18-.107-.107-.025-.198-.057-.247-.164-.016-.04-.057-.074-.14-.025zm-19.164-.278c.131.065.213.155.238.278.008.025.024.041.057.05a.621.621 0 0 0 .246 0c.025 0 .041-.017.041-.041s-.016-.041-.033-.05c-.057-.016-.106-.04-.164-.049-.098-.016-.18-.049-.221-.147-.025-.066-.074-.09-.164-.041zm16.753 7.708c.14.205.312.336.5.451.025.016.066.025.082-.008.025-.041-.008-.058-.033-.066-.139-.074-.254-.18-.369-.287a.217.217 0 0 0-.18-.09zm-11.054-7.585c.008.23.025.205.205.205h.107c.032 0 .065-.009.073-.041.009-.05-.024-.074-.057-.082a3.833 3.833 0 0 0-.328-.082zm20.509 2.337c-.156.049-.189.082-.164.172.025.09.057.18.082.262.008.025.025.05.057.041.025-.008.025-.032.025-.049v-.426zm-35.319-2.296c.09.057.18.098.222.196.04.115.155.164.27.115.025-.008.033-.024.041-.04.008-.034-.008-.05-.033-.066a.152.152 0 0 0-.057-.017c-.115-.033-.23-.065-.295-.188-.033-.041-.09-.05-.148 0zm8.643.188a.468.468 0 0 0 .107.008c.025 0 .05-.008.066-.032.008-.033-.009-.066-.041-.074a4.365 4.365 0 0 0-.312-.082c-.025-.008-.05.016-.05.05-.007.056.034.13.091.138.05 0 .098-.008.14-.008zm5.249-.23c.008.05.016.09.024.132.008.033.025.057.058.065.09.009.188.009.278 0 .025 0 .041-.016.041-.04.009-.033-.008-.05-.032-.066-.025-.017-.058-.025-.09-.033-.09-.016-.181-.033-.28-.057zm20.156.837c-.074.18-.074.18.082.287.05.033.098.066.147.09.025.017.058.033.082 0 .017-.024 0-.049-.016-.065-.098-.115-.197-.213-.295-.312zM29.71 37.02c.009.18.009.18.156.19h.123c.041 0 .107.007.107-.058 0-.058-.058-.066-.099-.074-.09-.025-.188-.041-.287-.058zm2.756-.065c.008.188.008.188.164.188h.14c.032 0 .081 0 .081-.049 0-.04-.033-.049-.057-.065-.107-.033-.205-.066-.328-.074zm27.389 1.386-.099.123c-.024.024-.033.057-.008.082.05.074.107.14.164.205.025.024.058.033.082.008.025-.025.008-.05 0-.074a1.266 1.266 0 0 1-.14-.344zm-1.772-.96c-.024.025-.016.058-.024.074-.025.082.016.123.09.14.074.016.148.04.23.057.024.008.057.008.065-.025.008-.024-.008-.04-.024-.049-.123-.066-.23-.131-.337-.197zm2.338 2.879c-.074.008-.14-.009-.173.04-.049.058-.024.14-.016.214 0 .057.016.123.09.156.041-.14.082-.255.099-.41zm-.14.975c-.172-.049-.172-.049-.221.082-.025.066-.05.123-.066.189-.008.033-.008.066.025.082.033.008.049-.008.065-.033l.197-.32zm-29.669-4.24c.017.083-.008.165.099.181.082.008.164 0 .246 0 .024 0 .05-.016.057-.049.008-.033-.016-.05-.04-.057-.124-.025-.23-.066-.362-.074zm27.717 6.2c-.155-.164-.155-.164-.336-.065-.024.016-.057.032-.082.049-.024.016-.04.04-.033.065.009.041.05.033.082.025.123-.008.23-.074.37-.074zm-35.876-6.06c.025.074 0 .172.099.189a.64.64 0 0 0 .278 0c.025 0 .041-.017.041-.041a.055.055 0 0 0-.032-.05 1.345 1.345 0 0 0-.09-.024c-.099-.025-.197-.025-.296-.074zm34.655.361c.114 0 .221.033.328.016.024 0 .04-.008.049-.032.008-.033-.008-.05-.033-.058a.901.901 0 0 0-.36-.09c.007.066.007.115.016.164zm-.738-.008h.123c.024 0 .049-.008.057-.041a.055.055 0 0 0-.033-.05c-.09-.04-.188-.057-.287-.081-.024-.009-.04 0-.049.016-.025.05.016.14.066.148.04.008.082.008.123.008zm-32.982-.345c.008.074-.008.156.074.18.09.025.188.017.279-.016.024-.008.04-.024.032-.049a.035.035 0 0 0-.032-.033c-.107-.032-.222-.073-.353-.082zm4.297 2.985c.033-.18.066-.352.098-.533.009-.049.041-.13-.032-.147-.058-.008-.05.082-.066.123-.057.188-.033.369 0 .557zm20.771-.155c.041-.148.058-.287.074-.435.008-.05.016-.098.016-.156 0-.024-.016-.04-.032-.04-.009 0-.033.007-.033.024-.017.033-.025.065-.033.098-.033.172-.074.345.008.509zm-13.284-3.035c.033.074.016.164.115.18.082.01.164 0 .246 0 .024 0 .049-.016.057-.04 0-.033-.025-.05-.05-.058-.106-.032-.22-.073-.368-.082zm20.287.517h.107c.025 0 .057 0 .066-.033.008-.04-.017-.057-.05-.065-.082-.025-.172-.05-.254-.074-.04-.008-.065 0-.074.05 0 .081.017.106.107.114a.4.4 0 0 0 .098.008zm-12.932-.566c.025.189.025.197.18.197.05 0 .091-.008.14-.008.025 0 .058-.008.066-.033.008-.04-.025-.057-.058-.066-.106-.032-.205-.057-.328-.09zm-4.436 3.141c.008-.05.025-.098.033-.148.025-.139.05-.278.066-.418.008-.033.008-.074-.033-.074s-.041.041-.05.066c-.04.189-.098.385-.016.574zm-13.801-2.911c.016.074-.008.156.082.172.074.016.156 0 .23 0 .024 0 .049-.016.057-.05.008-.032-.016-.048-.04-.057-.108-.024-.206-.057-.329-.065zm22.24 8.069c.04 0 .106-.008.163-.016.025 0 .05-.025.05-.05 0-.032-.025-.04-.058-.04h-.344c-.025 0-.041.008-.05.032-.008.025.017.05.041.058.058.024.115.016.197.016zm-4.92-8.299c.024.197.024.197.188.197h.09c.033 0 .082 0 .082-.05 0-.04-.033-.048-.066-.057-.09-.032-.188-.057-.295-.09zm12.742.353c.009.18.009.18.148.18h.14c.032 0 .065 0 .073-.033.008-.04-.024-.049-.057-.065l-.304-.082zM18.92 43.383a.133.133 0 0 0-.131.115c-.009.065.057.123.13.123.066 0 .124-.058.124-.115-.008-.066-.066-.123-.123-.123zm-.935-5.051c0-.066-.05-.107-.123-.107s-.115.05-.115.123c0 .074.041.115.115.115.074-.008.123-.058.123-.131zm.558-.673c-.066 0-.123.05-.123.107 0 .057.049.123.114.123.074.008.14-.05.132-.115 0-.058-.058-.115-.123-.115zm11.029-.5c0-.066-.05-.115-.115-.123-.074-.008-.14.05-.131.123 0 .057.057.115.123.115.066-.009.115-.05.123-.115zm2.624-.197c-.082 0-.123.041-.115.115 0 .074.058.123.132.123.065 0 .114-.058.114-.123a.127.127 0 0 0-.13-.115zm11.915-.057c-.065 0-.123.049-.123.114 0 .066.05.115.115.123.074 0 .14-.057.131-.123 0-.065-.057-.114-.123-.114zm6.569.278c0-.065-.05-.114-.123-.114-.066 0-.123.049-.123.114 0 .066.057.115.123.123.065-.008.123-.057.123-.123zm1.828.009c.017.073-.008.164.099.172.073.008.147 0 .213 0 .016 0 .04-.008.049-.033.008-.033-.016-.05-.041-.057-.098-.033-.197-.082-.32-.082zm-25.814.14c.074 0 .115-.05.115-.124 0-.066-.058-.115-.123-.115-.066 0-.115.058-.115.123 0 .074.049.115.123.115zm4.723-.23c0-.066-.057-.107-.131-.107-.074 0-.123.05-.115.123.008.065.066.123.123.115.066-.009.123-.066.123-.132zm15.58-.042c0-.065-.057-.114-.122-.114-.066 0-.123.049-.123.114 0 .074.057.132.13.123.058 0 .116-.057.116-.123zm4.601.09c.016.083-.008.173.098.181.074.008.148 0 .214 0 .024 0 .049-.008.049-.05 0-.024-.017-.04-.041-.04-.099-.033-.205-.058-.32-.09zm-31.054.156c0-.065-.058-.114-.123-.114-.066 0-.124.057-.124.123s.058.114.124.114c.073-.008.123-.065.123-.123zm25.527-.262c0-.066-.05-.115-.123-.115-.066 0-.115.058-.115.123 0 .066.058.123.123.123a.133.133 0 0 0 .115-.13zm-28.849 4.174c0-.057-.04-.107-.106-.115a.12.12 0 0 0-.131.107c-.009.074.032.131.098.131.074.008.14-.05.14-.123zm22.28-4.05a.13.13 0 0 0 .124-.116c.008-.074-.041-.13-.099-.13-.074 0-.14.048-.14.114.009.065.058.123.116.131zm-4.436-.116a.108.108 0 0 0-.123-.106c-.065 0-.115.057-.115.123 0 .065.058.114.132.106.065-.008.114-.057.106-.123zm-17.565 2.14c0-.057-.065-.114-.123-.114-.065 0-.131.065-.123.131a.12.12 0 0 0 .131.098c.066 0 .123-.049.115-.114zm.615 3.887c.074 0 .115-.049.115-.114 0-.066-.057-.115-.123-.115s-.115.057-.115.123c.008.074.05.115.123.106zm34.261-5.78c0-.066-.05-.107-.123-.107-.066 0-.123.049-.123.114 0 .058.05.107.107.115.073 0 .139-.049.139-.123zm-2.739-.034c.066 0 .123-.049.123-.114 0-.058-.057-.115-.123-.115s-.123.05-.123.115c.008.057.058.114.123.114zm-11.833-.213c0-.065-.033-.106-.106-.115s-.123.033-.132.107c0 .066.05.123.115.123.066 0 .123-.05.123-.115zm5.503-.033c0-.073-.05-.114-.115-.114-.066.008-.123.057-.115.114 0 .066.057.115.123.115s.107-.04.107-.115zm17.105 2.994c0-.066-.049-.123-.114-.115-.066 0-.123.057-.123.115 0 .065.049.114.123.114a.123.123 0 0 0 .114-.114zm-43.297.04c-.066 0-.115.05-.123.115 0 .074.04.123.106.123s.123-.049.123-.114c.009-.074-.04-.123-.106-.123zm24.24-2.91c.065 0 .123-.058.123-.115 0-.058-.058-.115-.123-.115s-.115.05-.123.123c0 .057.057.106.123.106zM26.34 45.088c-.123.032-.246.057-.369.09-.033.008-.05.024-.04.057a.062.062 0 0 0 .056.041c.107-.016.222-.024.32-.082.033-.024.058-.049.033-.106zm-4.912-7.774a.126.126 0 0 0-.123-.123c-.065 0-.131.057-.131.114 0 .066.057.115.123.123.066 0 .123-.049.131-.114zm27.29-.082c.075 0 .124-.05.116-.115-.009-.066-.066-.115-.123-.107a.12.12 0 0 0-.107.131c.008.058.05.099.115.09zm-18.343.008c.073 0 .123-.05.114-.123-.008-.066-.049-.099-.114-.107-.066-.008-.123.05-.123.115 0 .074.04.115.123.115zm17.425-.263c-.065 0-.115.05-.115.123 0 .066.033.107.107.115s.123-.04.123-.106c0-.074-.05-.132-.115-.132zm11.046.747c0-.058-.057-.115-.123-.115s-.123.057-.115.123c0 .057.058.107.115.107.066 0 .123-.058.123-.115zm-22.059-.788c-.065 0-.123.05-.123.115 0 .066.05.123.115.123.066 0 .123-.057.123-.13-.008-.067-.05-.108-.115-.108zm20.878 6.347c-.065 0-.123.05-.123.107 0 .05.058.107.107.115.057.008.131-.05.131-.107.008-.057-.05-.106-.115-.115zm2.592-2.443c-.074 0-.123.049-.123.115s.057.114.123.114c.065 0 .114-.057.114-.123-.008-.065-.057-.114-.114-.106zm-27.143-3.887c-.058 0-.115.074-.115.131.008.057.074.115.131.115.057-.008.115-.074.115-.131-.008-.066-.066-.123-.131-.115zM17.616 42.16c0-.066-.066-.107-.131-.098s-.115.057-.115.123c0 .057.057.106.115.106.065-.008.14-.074.131-.13zm8.282-4.928c0-.066-.065-.115-.13-.107-.067 0-.108.057-.108.131.009.066.05.107.115.099.066-.009.123-.066.123-.123zm2.756-.058c0-.065-.05-.115-.123-.115-.074 0-.123.05-.123.115 0 .066.057.123.114.115.074 0 .132-.057.132-.115zm-6.43.246c.058 0 .124-.065.115-.123 0-.057-.057-.106-.13-.106-.066 0-.124.057-.116.114.009.058.082.115.132.115zm5.388-.106c.066 0 .115-.05.115-.123s-.05-.123-.115-.123c-.057 0-.115.065-.115.123-.008.065.05.123.115.123zm31.981 1.05c.066 0 .115-.042.115-.1 0-.073-.057-.13-.123-.13-.057 0-.107.049-.107.115-.008.057.041.114.115.114zm-25.437-1.296c0-.058-.057-.123-.123-.123a.113.113 0 0 0-.107.123c0 .065.05.106.123.106.066 0 .107-.049.107-.106zm19.14.254c0-.066-.058-.107-.132-.107-.065.008-.106.05-.106.107 0 .065.057.115.114.115.066.008.123-.058.123-.115zm6.88 1.722c0-.074-.05-.123-.115-.123-.066 0-.123.057-.115.123 0 .066.057.115.123.107.074 0 .107-.041.107-.107zm-36.131-1.681c.066 0 .123-.05.123-.115 0-.057-.057-.115-.123-.115s-.115.058-.107.123c0 .066.041.107.107.107zm11.94-.304c0-.065-.05-.123-.115-.123-.066 0-.107.041-.115.107a.12.12 0 0 0 .107.131c.065 0 .123-.04.123-.115zm23.97 4.74c0-.057-.042-.106-.108-.115-.073 0-.123.041-.123.115 0 .066.058.115.123.115.058-.008.107-.057.107-.115zm-36.697-4.518c0-.066-.05-.123-.115-.123s-.115.04-.115.098a.12.12 0 0 0 .107.131c.057.009.115-.04.123-.106zm34.654.156c0-.066-.049-.115-.123-.115-.065 0-.115.057-.115.123 0 .065.041.106.107.106.074-.008.131-.057.131-.114zm-15.523-.41c0-.066-.05-.123-.115-.123s-.115.057-.115.123c0 .057.05.106.107.106a.108.108 0 0 0 .123-.106zm-1.943.114c.065 0 .106-.049.114-.106 0-.066-.057-.123-.114-.123a.126.126 0 0 0-.123.123c0 .057.057.115.123.106zm18.016 5.7c-.082 0-.123.04-.123.106s.04.107.106.115c.066 0 .123-.05.123-.115.008-.065-.033-.106-.106-.106zM21.446 28.63c.057-.058.073-.123.098-.189.016-.033.04-.082 0-.115-.041-.033-.14 0-.164.05a.164.164 0 0 0-.016.122c.024.041.04.09.082.132zm37.803 13.981c.065 0 .115-.04.115-.107s-.05-.13-.115-.123c-.058 0-.123.066-.115.123 0 .058.05.107.115.107zm-7.782-5.33c0-.066-.066-.123-.123-.115a.12.12 0 0 0-.107.131.115.115 0 0 0 .115.099c.066-.009.115-.066.115-.115zm7.52 4.436c-.017.008-.025.008-.033.017-.017.024-.009.049.008.073.082.082.164.164.246.238.016.017.05.033.065 0 .017-.016.009-.04-.008-.057a2.2 2.2 0 0 0-.23-.246l-.049-.025zm-2.944-4.313c0-.066-.058-.115-.132-.107-.065.008-.106.041-.114.107-.009.065.049.115.123.115s.13-.05.123-.115zm-31.112-.058c.057 0 .114-.057.114-.123a.103.103 0 0 0-.106-.106c-.074 0-.123.04-.123.106s.05.123.115.123zm29.053.017c0 .057.05.106.107.115.065 0 .115-.05.123-.115 0-.066-.041-.107-.107-.107-.074-.008-.123.041-.123.107zm-26.478 2.009c0-.05 0-.098-.009-.14 0-.024-.016-.049-.049-.049-.024 0-.04.017-.04.041-.01.099-.017.197.007.296a.055.055 0 0 0 .05.032c.024 0 .04-.016.04-.04a.397.397 0 0 1 0-.14zm29.439-1.927c0-.066-.058-.123-.115-.115-.058 0-.107.057-.107.115 0 .065.05.115.115.115.066-.009.107-.05.107-.115zm-1.82-.058c0-.057-.042-.114-.1-.114-.057-.009-.122.049-.13.106-.009.066.049.115.123.107.065 0 .098-.033.106-.099zm-17.23 1.928c.009 0 .009 0 0 0v-.156c0-.025-.016-.033-.04-.041-.025-.008-.05.008-.05.024a.634.634 0 0 0 .008.304c.009.016.025.033.05.033s.032-.025.032-.041v-.123zm-8.233.032v-.123c0-.024-.008-.049-.04-.057-.034 0-.05.016-.058.041v.279c0 .024.016.04.04.04.025 0 .042-.007.05-.032.025-.041.008-.098.008-.148zm6.897 5.757c-.115-.008-.23.041-.353.041-.025 0-.04.016-.04.041 0 .033.024.05.048.05.099-.009.197-.017.295-.042.033 0 .058-.04.05-.09zm5.28.115c.066-.008.14-.025.222-.041.025-.008.05-.025.041-.058-.008-.024-.033-.024-.05-.024-.09 0-.188.008-.278.008-.025 0-.057.008-.057.041-.009.041.024.057.057.066.008 0 .033 0 .066.008zm2.543-7.307c-.164.28-.033.714.254.837-.262-.238-.36-.509-.254-.837zm6.429-.86c.033.18.098.229.23.188.024-.008.049-.025.049-.05 0-.032-.017-.049-.041-.057a1.61 1.61 0 0 0-.238-.082zm-19.205 8.191c.082-.024.18-.024.262-.065.025-.017.05-.041.041-.074s-.04-.025-.065-.016c-.082.024-.173.04-.255.065-.033.008-.065.017-.065.058.008.04.049.032.082.032zm18.721-6.019c0 .058 0 .099.008.148 0 .025.017.05.05.05s.04-.025.049-.05a.79.79 0 0 0-.033-.279c0-.008-.025-.024-.033-.024s-.033.016-.033.024c-.008.05-.008.09-.008.131zm-30.341 1.903c-.008-.05-.074-.107-.123-.099-.058.009-.09.041-.099.107 0 .057.058.098.123.09.066-.008.099-.04.099-.098zm24.65-3.69c.05-.025.115-.05.172-.082.025-.017.025-.041.017-.074-.009-.025-.017-.05-.05-.05-.082-.008-.188.074-.188.156-.008.033.008.05.049.05zm3.403 2.083c-.074.008-.074.073-.082.13s.041.091.115.1c.033 0 .065-.009.065-.05.009-.074-.049-.18-.098-.18zm-27.988.369c-.008-.058-.049-.09-.106-.09s-.099.024-.107.09c-.008.049.058.106.115.106.041 0 .098-.057.098-.106zm32.03 5.264c.034 0 .075 0 .116-.008.024 0 .04-.016.04-.041a.035.035 0 0 0-.032-.033c-.099-.008-.197-.024-.295-.033a.063.063 0 0 0-.041.017c-.009.024 0 .04.016.057.066.05.131.033.197.041zm-11.783-5.461c-.016-.05.008-.123-.074-.14-.049-.008-.098.058-.098.148 0 .05.024.082.074.074.049 0 .098-.008.098-.082zm-19.492 1.46c-.016-.058-.05-.09-.107-.09-.057 0-.098.04-.098.098s.057.106.115.098a.123.123 0 0 0 .09-.107zm-1.353-3.822c-.05 0-.082.025-.074.074.008.057.008.131.074.156.05.016.106-.05.106-.107.017-.074-.032-.123-.106-.123zm31.235 2.37c-.008-.033-.017-.057-.025-.082-.008-.041-.008-.098-.074-.098-.073 0-.073.065-.082.106-.016.058 0 .09.066.09.033 0 .066.009.115-.016zm-23.322.074c-.024-.05 0-.123-.082-.148-.05-.016-.09.05-.098.131-.008.066.04.074.09.082.05.009.09 0 .09-.065zm12.678-.476c0-.033-.008-.082-.008-.131 0-.025-.017-.041-.041-.033-.009 0-.025.017-.033.033-.008.098-.008.197.008.295 0 .017.016.025.033.025s.033-.008.033-.025c.032-.049.008-.098.008-.164zm-2.37.484c.066 0 .098-.016.098-.074 0-.065-.049-.14-.106-.131-.082.008-.058.082-.074.131-.008.066.04.066.082.074zm-7.88.041c.04-.016.106.008.106-.074s-.041-.147-.09-.14c-.082.017-.074.091-.09.148 0 .05.024.074.073.066zm22.009-4.74c-.189-.008-.279-.082-.262-.246 0-.008 0-.008-.009-.016-.008-.025-.024-.041-.049-.033-.008.008-.024.016-.024.033-.041.14.008.213.147.246.05.024.099.04.197.016zm-32.162 5.478c-.008-.057-.049-.082-.106-.074-.058 0-.099.033-.09.099s.049.082.106.09c.058 0 .099-.05.09-.115zm1.116-.558c.065 0 .115-.04.106-.098-.008-.057-.049-.082-.098-.082-.057 0-.107.05-.107.09.009.066.05.09.099.09zm24.256-3.017c.008.114.017.147.066.14.049 0 .09-.067.09-.124a.103.103 0 0 0-.107-.107c-.082 0-.049.058-.049.09zm-23.97 3.46c-.048.008-.098.017-.09.082.009.058.05.09.107.099.058 0 .082-.033.09-.09.009-.05-.04-.09-.106-.09zm27.12-1.205v.106c0 .025 0 .058.032.058s.04-.025.04-.05c0-.057.01-.114 0-.172 0-.032.01-.09-.04-.09-.058 0-.033.058-.041.099a.104.104 0 0 1 .008.049zm-9.595-2.206c.008.04-.017.115.065.115.058 0 .09-.05.09-.107 0-.066-.049-.115-.106-.107-.066.009-.041.066-.05.099zm-6.552 1.468c-.107-.246-.033-.468.074-.69a.608.608 0 0 0-.074.69zm-6.602 6.691a.083.083 0 0 0-.008-.024.37.37 0 0 0-.205-.058c-.033 0-.033.041-.016.066.024.04.147.082.197.065.016-.016.032-.024.032-.049zm7.455-7.782c.032 0 .049-.016.049-.04 0-.067-.041-.091-.099-.091-.04 0-.09 0-.098.057-.016.033.057.074.148.074zM29.67 40.3c-.008.155.025.172.23.114-.09-.032-.156-.073-.23-.114zm10.398-.066c.009.156.074.18.238.098-.098 0-.156-.057-.238-.098zm7.905.09c.222.041.23.033.214-.123-.066.05-.14.082-.214.123zm-2.246-1.91c.065-.156.09-.32 0-.476.032.156.016.32 0 .476zm-13.22.516a.607.607 0 0 0 .542-.082c-.172.066-.344.123-.541.082zm15.097 6.495c-.057-.008-.09.024-.123.04-.032.017-.082.017-.073.066.016.05.073.033.106.025.074 0 .09-.057.09-.131zm-20.18-5.117c-.074.04-.14.082-.222.123.222.024.222.024.222-.123z"/><path d="M20.092 35.953c.025-.04.017-.082 0-.123h.099c.05.033.098.009.147.025l.017.016.025.05c-.115.13-.124.13-.288.032zm31.514-.188c-.049-.115.017-.213.066-.312.016 0 .033 0 .04-.008l-.007.008v.074c-.025.057-.017.098.057.115.008.033.016.065-.016.082-.041.024-.09.057-.14.04zm-31.333-.09a.104.104 0 0 1 .074.057c-.009.008-.009.016 0 .025 0 .008.008.008.008.016 0 .016-.008.041-.008.057-.033-.024-.066-.04-.099-.065v-.066c.008 0 .017-.016.025-.024zm31.563-.222c.024.041-.008.05-.033.058-.016-.041-.041-.082-.033-.123a.25.25 0 0 0 .066.065zm-31.71.213c.032-.04.065-.09.13-.098 0 .016-.008.033-.008.05a.11.11 0 0 0-.057.048c-.017 0-.041 0-.058.009l-.008-.009z"/><path d="M20.347 35.83c.033.009.057.009.09.017l-.025.074a.11.11 0 0 0-.057-.05l-.017-.016c.009-.008.009-.016.009-.025zm30.636-.155c.041 0 .057.024.074.057l-.074-.025-.008-.008c0-.008.008-.016.008-.024zm.123.09.041.065c-.016-.024-.033-.04-.041-.065zm-30.694-.025c-.024.008-.04.025-.065.033 0-.008-.009-.008-.009-.016v-.025c.033.008.058.008.074.008zm32.99.025v-.066c.008.025.016.041.025.066h-.025zm-.943-.312v.066h-.033c.008-.025.025-.041.033-.066zm-1.517.312v-.066h.025l.008.008c-.008.017-.017.041-.033.058zm2.46-.058h-.066v-.032h.066v.032zm-.976-.164c-.016-.008-.033-.008-.033-.032h.033v.032zm-1.353-.311c-.008 0-.024 0-.033.008.009 0 .025-.008.033-.008zm-23.321.967h.36c.09 0 .123.041.115.107-.008.074-.04.115-.115.115-.246 0-.492.008-.738 0-.073 0-.114-.05-.106-.123 0-.066.04-.107.106-.107.123.008.246.008.378.008zm-.328.107c.213.041.426.016.64 0h-.64zm29.332 4.264a.614.614 0 0 0-.066-.221c-.09.082-.18.164-.303.131a.289.289 0 0 1-.164-.115c-.098-.164-.033-.303.221-.443-.09-.114-.155-.23-.049-.36.066-.082.148-.132.263-.107.147.033.205.148.213.303a.419.419 0 0 0 .164-.114c-.017-.05-.074-.05-.099-.074-.098-.082-.139-.238-.09-.336a.255.255 0 0 1 .32-.123c.115.04.18.164.156.303 0 .008-.008.016-.008.033-.009.033-.033.074.024.09.041.008.099.016.14-.016.032-.025 0-.058-.009-.09-.024-.09-.024-.173.041-.247.09-.098.23-.123.337-.049a.249.249 0 0 1 .09.328c-.017.025-.033.058-.05.082-.106.115-.106.115.042.18.04-.04.032-.098.057-.139.066-.123.18-.18.295-.14.131.042.197.14.18.271-.016.132-.098.214-.237.23h-.017c-.13.008-.13.008-.073.148.213-.115.344-.107.434.008a.271.271 0 0 1-.016.336c-.099.115-.238.107-.41-.008-.033 0-.041.033-.05.057l-.024.074c.05.033.098 0 .14.008.155.025.254.172.22.336a.246.246 0 0 1-.31.18.247.247 0 0 1-.173-.163c-.016-.041-.025-.074-.041-.115-.066.008-.09.057-.131.082.008.057.057.074.082.107.082.106.098.213.024.32-.073.106-.18.147-.287.106-.123-.041-.188-.14-.18-.279.008-.147.008-.147-.131-.156.024.271-.025.378-.189.419-.115.024-.254-.05-.303-.173-.05-.139.016-.246.213-.36a3.266 3.266 0 0 1-.164-.18c-.033-.05-.057-.091-.082-.124zm.664.254c.377 0 .574-.287.582-.574.009-.303-.27-.59-.565-.574-.345.025-.599.205-.599.59a.57.57 0 0 0 .582.558zm-.697-1.107c0-.065-.049-.123-.115-.123s-.123.058-.123.115c0 .066.041.107.107.107.074.008.131-.033.131-.099zm.435 1.41c0-.057-.066-.106-.131-.106-.066 0-.099.05-.099.115 0 .074.05.115.115.115.057 0 .115-.066.115-.123zm-.082-1.893c-.074 0-.123.049-.115.114.008.066.041.107.107.115.065.008.123-.04.123-.115.008-.065-.041-.114-.115-.114zm-.517.992c-.008-.066-.065-.115-.123-.107-.065.008-.115.058-.106.123.008.066.049.099.114.099s.123-.058.115-.115zm1.632.492c-.066 0-.123.057-.123.115s.057.114.123.114.107-.04.115-.106c0-.066-.05-.123-.115-.123zm-.402.443c0-.066-.065-.115-.131-.107-.066.008-.107.05-.107.115s.058.115.123.115c.058 0 .115-.058.115-.123zm.574-.788c.058 0 .107-.049.115-.106.008-.066-.05-.123-.115-.123-.057 0-.106.04-.115.106 0 .066.05.123.115.123zm-.541-1.033c0-.065-.041-.106-.107-.106s-.123.057-.123.114c.009.066.05.107.115.115.066 0 .115-.057.115-.123zm.5.345c0-.066-.04-.107-.106-.107s-.123.05-.123.115c0 .057.057.106.114.106.066 0 .115-.049.115-.114zm-1.55.246c-.082.016-.147.024-.205.04.058.042.074.107.14.14.024-.066.04-.123.065-.18z"/><path d="M56.756 40.57c.025.033.05.074.074.107 0 .049.008.098 0 .14-.017.139-.156.245-.287.22a.274.274 0 0 1-.222-.311.275.275 0 0 1 .32-.205c.041.016.074.033.115.05zm-.18.09c-.074 0-.115.058-.115.123.008.066.065.107.14.099.065-.008.098-.058.098-.115-.017-.066-.066-.107-.123-.107zm-37.287.427a.586.586 0 0 1-.582.59c-.345.008-.624-.328-.599-.615.033-.377.27-.574.615-.582.328 0 .574.279.566.607zm13.4-2.526c-.173 0-.337-.156-.337-.328 0-.18.156-.336.328-.328.18 0 .32.14.32.312.008.188-.14.344-.312.344zm0-.516c-.1 0-.198.098-.198.188s.09.189.173.197a.2.2 0 0 0 .205-.189.177.177 0 0 0-.18-.196zm18.59-2.518v.025h-.009l.008-.025zm1.18.025c-.008.008-.008.016-.016.024-.009-.008-.009-.016-.017-.024h.033zm-32.367.114h.025l.008.009.058.024v.066h-.066c-.008-.008-.025-.017-.033-.025.008-.024.008-.049.008-.074zm.099-.246v.033h-.066c.025-.008.041-.024.066-.033zm-.058.41h-.04v-.065h.032c0 .024.008.04.008.065zm-.04-.311c.008-.025.024-.041.032-.066v.066h-.033zm.032.033c-.008.024-.008.049-.033.065v-.065h.033zm31.58-.099c.024.017.024.041.024.058a.018.018 0 0 0-.016.016c-.008-.025-.008-.05-.008-.074zm-31.514 0c.016.025.016.041 0 .066v-.066zm-.066.099v-.033h.066c-.017.024-.041.024-.066.033zm.066.155v-.032h.065v.032h-.065zm0 .058h.065c-.016.024-.032.049-.065.065v-.065zm36.91 4.477c0-.172.147-.32.32-.32s.327.156.327.328c0 .18-.156.337-.328.337a.337.337 0 0 1-.32-.345zm.327-.164c-.106-.008-.188.058-.196.164-.009.107.065.189.18.197.098 0 .18-.066.189-.156.016-.115-.058-.197-.173-.205zM23.1 9.2v1h-2.3v7.7h-1.1v-7.7h-2.3v-1h5.7zM30.3 9.2v8.7h-1.5l-3.4-7.5v7.5h-1V9.2H26l3.4 7.4V9.2h.9zM32.3 17.9V9.2h1.1V13l3-3.8h1.2l-3.1 3.9 3.3 4.7h-1.4l-3-4.5v4.5h-1.1zM39 9.2h2.7c1.1 0 1.9.4 2.3 1.3.3.7.4 2.5.4 2.7 0 1.8-.2 2.9-.5 3.5-.5.7-1.3 1.1-2.9 1.1h-2V9.2zm1.1 7.7h1c1.5 0 2.1-.6 2.1-2.6v-1.8c0-1.8-.5-2.4-1.7-2.4H40v6.8zM46.3 17.9V9.2h4.5v1h-3.4V13h3.1v1h-3.1v3h3.4v1h-4.5zM52.3 17.9V9.2h1.1v7.7h3.2v1h-4.3z"/></g></svg>