<svg version="1.2" baseProfile="tiny" xmlns="http://www.w3.org/2000/svg" viewBox="0 0 75 75" overflow="visible" xml:space="preserve"><path fill="#FFF" d="M0 0h75v75H0z"/><g fill="#ED2224"><path d="M27.4 9.4v1.3h-3V21h-1.5V10.7h-3V9.4h7.5zM28.9 17.3c0 2.3.6 2.7 1.6 2.7.9 0 1.4-.7 1.4-1.5h1.4c0 1.8-1.1 2.6-2.8 2.6-1.7 0-3.1-.5-3.1-4.1 0-2.4.3-4.3 3.1-4.3 2.3 0 2.9 1.3 2.9 3.9v.7h-4.5zm3.2-1c0-2.4-.7-2.6-1.6-2.6-.8 0-1.5.4-1.5 2.6h3.1zM39.7 20.9v-5.6c0-.8-.2-1.6-1.3-1.6-.4 0-.9.2-1.1.5-.2.4-.3.9-.3 1.2v5.4h-1.3v-6.3c0-.6 0-1.1-.1-1.7H37v1c.4-.9 1.1-1.2 2-1.2.7 0 1.6.3 1.9 1 .4-.9 1.2-1 1.9-1 .8 0 2.2.2 2.2 2.1v6.1h-1.3v-5.6c0-.8-.2-1.6-1.3-1.6-.5 0-.6 0-1 .3S41 15 41 15.3v5.4h-1.3zM48.8 13.8c.5-.8 1-1.1 1.9-1.1 1.3 0 2.6.5 2.6 4.1 0 2-.1 4.3-2.7 4.3-.8 0-1.3-.3-1.8-1V24h-1.3V12.9h1.3v.9zm3.1 2.9c0-1.2 0-3-1.6-3s-1.5 2.2-1.5 3.5c0 1.1.1 2.8 1.5 2.8s1.6-1.1 1.6-3.3zM18.6 31.6v5.3h-1.5V25.3h4c2 0 2.8 1.4 2.8 2.9 0 1.4-.8 2.4-2.1 2.6 1.3.2 1.8.7 1.9 3 0 .5.2 2.3.4 3h-1.5c-.4-.8-.3-2.3-.4-3.8-.1-1.4-1.2-1.5-1.7-1.5h-1.9zm0-1.3h2.2c1.1 0 1.6-.9 1.6-1.9 0-.8-.4-1.8-1.6-1.8h-2.2v3.7zM27.2 33.3c0 2.3.6 2.7 1.6 2.7.9 0 1.4-.7 1.4-1.5h1.4c0 1.8-1.1 2.6-2.8 2.6-1.7 0-3.1-.5-3.1-4.1 0-2.4.3-4.3 3.1-4.3 2.3 0 2.9 1.3 2.9 3.9v.7h-4.5zm3.2-1c0-2.4-.7-2.6-1.6-2.6-.8 0-1.5.4-1.5 2.6h3.1zM35.5 29.8c.5-.8 1-1.1 1.9-1.1 1.3 0 2.6.5 2.6 4.1 0 2-.1 4.3-2.7 4.3-.8 0-1.3-.3-1.8-1V40h-1.3V28.9h1.3v.9zm3.1 2.9c0-1.2 0-3-1.6-3s-1.5 2.2-1.5 3.5c0 1.1.1 2.8 1.5 2.8s1.6-1.1 1.6-3.3zM46.3 35.7c-.4.9-1.1 1.3-2.1 1.3-1.7 0-2.2-1.1-2.2-2.7 0-2.4 2.4-2.6 4.2-2.5 0-1.1 0-2.2-1.4-2.2-.9 0-1.3.6-1.3 1.4h-1.4c.1-1.8 1-2.4 2.7-2.4 2.1 0 2.6 1.1 2.6 2.4v3.9c0 .6.1 1.3.2 1.9h-1.4v-1.1zm-2.9-1.2c0 .8.4 1.5 1.3 1.5.8 0 1.8-.5 1.7-3.1-1.4 0-3-.1-3 1.6zM50.1 25.4h1.5v1.4h-1.5v-1.4zm1.4 11.5h-1.3v-8.1h1.3v8.1zM55.3 30c.6-1.2 1.2-1.4 2.5-1.4V30H57c-1.5 0-1.8 1.1-1.8 2.2V37h-1.3v-8.1h1.3V30zM15.1 52.9V41.3h5.7v1.3h-4.3v3.7h4v1.3h-4v5.3h-1.4zM26.5 51.7c-.4.9-1.1 1.3-2.1 1.3-1.7 0-2.2-1.1-2.2-2.7 0-2.4 2.4-2.6 4.2-2.5 0-1.1 0-2.2-1.4-2.2-.9 0-1.3.6-1.3 1.4h-1.4c.1-1.8 1-2.4 2.7-2.4 2.1 0 2.6 1.1 2.6 2.4v3.9c0 .6.1 1.3.2 1.9h-1.4v-1.1zm-3-1.2c0 .8.4 1.5 1.3 1.5.8 0 1.8-.5 1.7-3.1-1.3 0-3-.1-3 1.6zM34.6 47.4c0-1.3-.6-1.7-1.1-1.7-1 0-1.7.5-1.7 2.7 0 2.6.3 3.6 1.7 3.6.3 0 1.2-.3 1.2-1.8h1.4c0 2.3-1.6 2.8-2.5 2.8-1.7 0-3.1-.5-3.1-4.1 0-2.4.3-4.3 3.1-4.3 1.6 0 2.6.9 2.5 2.8h-1.5zM38.4 41.4h1.5v1.4h-1.5v-1.4zm1.4 11.5h-1.3v-8.1h1.3v8.1zM43.4 52.9h-1.3V41.3h1.3v11.6zM45.7 41.4h1.5v1.4h-1.5v-1.4zm1.4 11.5h-1.3v-8.1h1.3v8.1zM49.6 44.8v-1.6l1.3-.6v2.1h1.8v1h-1.8v4.9c0 .5 0 1.2 1.2 1.2.1 0 .3 0 .6-.1v1c-.4 0-.9.1-1.3.1-1.2 0-1.8-.5-1.8-1.4v-5.7h-1.3v-1h1.3zM56.4 51.4l2-6.6h1.4l-3.7 11.1h-1.4l.9-3.1-2.7-8.1h1.5l2 6.7z"/></g></svg>