<svg version="1.2" baseProfile="tiny" xmlns="http://www.w3.org/2000/svg" viewBox="0 0 75 75" overflow="visible" xml:space="preserve"><path fill="#FFF" d="M0 0h75v75H0z"/><g fill="#ED2224"><path d="M22.388 65.5v-8.7h4.5v1h-3.4v2.8h3.1v1h-3.1v3h3.4v1h-4.5zM30.988 59.5h1v4.8c0 .4 0 .8.1 1.3h-1v-.7c-.3.6-.9.9-1.5.9-1.1 0-1.6-.5-1.6-1.6v-4.6h1v4.2c0 .7.3 1.2 1 1.2.5 0 1.2-.4 1.2-1.4v-4.1zM34.288 60.4c.4-.9.9-1 1.9-1v1h-.6c-1.1 0-1.4.8-1.4 1.6v3.6h-1v-6.1h1v.9zM39.888 64.7c-.3.7-.8 1-1.5 1-1.3 0-1.7-.8-1.7-2 0-1.8 1.8-1.9 3.2-1.9 0-.8 0-1.7-1-1.7-.7 0-1 .4-.9 1.1h-1.1c0-1.4.8-1.8 2.1-1.8 1.6 0 2 .8 2 1.8v2.9c0 .5 0 1 .1 1.4h-1.1v-.8zm-2.2-1c0 .6.3 1.1.9 1.1.6 0 1.3-.4 1.2-2.3-.8 0-2.1-.1-2.1 1.2zM43.288 65.5h-1v-8.7h1v8.7zM46.288 64.4l1.5-4.9h1.1l-2.7 8.3h-1l.7-2.3-2.1-6.1h1.1l1.4 5zM51.088 65.6c-1.3 0-2.1-.6-2.1-2h1.1c0 .3 0 1.2 1 1.2.6 0 1-.3 1-.9 0-1.1-3-1.1-3-2.9 0-.6.4-1.7 2.1-1.7 1.1 0 2 .5 1.9 1.7h-1.1c0-.6-.3-1-.9-1-.5 0-.9.3-.9.8 0 1.1 3 1 3 2.9 0 1.4-.9 1.9-2.1 1.9z"/></g><g fill="#ED2224"><g stroke="#CC2028" stroke-width=".139" stroke-linecap="round" stroke-linejoin="round" stroke-miterlimit="2.714"><path d="m65.42 48.541-.497 2.986h-3.11l-52.37-.124.248-1.493h9.828v-.249h0v-.124h-1.866v-.25h1.99l.125-.248h.373v-.124h1.12v-.25h.372v-.124h-.248v-.124h.373v.124h.124v.125h-.124v.124h.249v.249h.373v.746h-.622v.125h.87L21.26 36.848h.25l1.616 13.062h.125v-.747h0v-.622h-.125v-.746h.622v.498h.498v-.498h.124v-.249h-.124v-.373h.497v.498h0v.248h.622v-.373h-.124V46.8h.622v.622h.622v-.373h-.249v-.747h.87v.747h-.248v.373h.124v.497h0v.498h0v.87H28.6v-.87h-1.12v-.622h4.354v.622H30.59v.87h1.99v-.497h.498l-.622-4.23h1.12l.995 4.23h3.607v-.124l-1.741.124-.498-4.354h1.866l.497 3.483 2.488.996h.498v-.498h.373v-.498h.249v-.373h.124v.373h.25v.498h.248v-.995h-.124v-.373h.248v.373h-.124v.995h1.493V46.8h-.498v-.498h.498v-.373H43.9v-.746h-.248v-1.12h.248v.622h.25v-.87h.372v.248h.747v.622h.248v.373h-.124v.498h.498v-.498h.746v.871h-.124v2.488h.373v-.249h.497v.25h1.369v-.499h-.622v-.746h.746v-.249h-.124v-.248h.124v-.25h.125v.25h0v.248l.124-.248h.124l-.248.373v.124h1.741l.124.249h1.99v.249h-1.865v.124h0v.622h.124v-.373h.249v.373h.249v-.249h.249v.25h.497v.87h.373v-.373h-.124v-.747h2.24v.125h.372l.125.248h1.99v.25h-1.866v.124h0v.746-.498h.125v-.248h.87v-.125h.747v-.124h.622v.124h.124v.249l5.847-.249h0l1.617-.249zm-12.439.622h.249v-.373h-.249v.373z" stroke-width=".17291044"/><path d="m43.776 48.293-1.368-11.445h-.125l1.244 11.57.249-.125z" stroke-width=".17291044"/></g><path d="M9.3 19.5c0-3.1 0-6 4-6 2.5 0 3.5 1.4 3.4 3.8h-2.4c0-1.5-.3-2.1-1-2.1-1.4 0-1.5 1.3-1.5 4.2s.2 4.2 1.5 4.2c1.1 0 1.1-1.4 1.1-2.4h2.4c0 3.1-1.2 4.1-3.5 4.1-4 .1-4-2.8-4-5.8zM18.3 25.2V13.6h2.4v9.6h3.6v1.9h-6zM50.2 18.8c1.3.1 2.3-.4 2.3-1.8 0-1-.4-1.7-1.5-1.7-1.2 0-1.4.9-1.4 1.8h-1.5c-.1-1.9.8-3 2.9-3 1.9 0 3 .9 3 2.9 0 2.1-1.6 2.4-2.2 2.6 1.7.2 2.3 1.2 2.3 2.8 0 2.2-1.2 3.2-3.3 3.2-3.1 0-2.9-2.7-2.9-3.3h1.5c0 1.1.2 2.1 1.5 2.1s1.7-.8 1.7-2c0-1.8-.7-2.2-2.4-2.2v-1.4zM55.3 26.8h-1.1L58 13.7h1.1l-3.8 13.1zM59.7 19.7c0-3 0-5.8 3-5.8 1.7 0 2.8 1 2.8 2.7H64c0-.8-.4-1.6-1.3-1.6-1.2 0-1.5 1.1-1.5 4 .4-.6 1-1 1.8-1 1.4 0 2.6.8 2.6 3.7 0 2-.8 3.7-3 3.7-2.9.1-2.9-2.8-2.9-5.7zm3 4.6c1.2 0 1.4-1.3 1.4-2.8 0-1-.2-2.2-1.5-2.2s-1.5 1.4-1.5 2.4c.1 1.1.2 2.6 1.6 2.6z"/></g></svg>