<svg version="1.2" baseProfile="tiny" xmlns="http://www.w3.org/2000/svg" viewBox="0 0 75 75" overflow="visible" xml:space="preserve"><path fill="#FFF" d="M0 0h75v75H0z"/><g fill="#ED2224"><path d="M20.288 56.9h1.4l2.8 8.7h-1.2l-.6-2.1h-3.3l-.6 2.1h-1.1l2.6-8.7zm.6 1-1.4 4.6h2.8l-1.4-4.6zM26.088 60.4c.4-.9.9-1 1.9-1v1h-.6c-1.1 0-1.4.8-1.4 1.6v3.6h-1v-6.1h1v.9zM29.488 62.8c0 1.7.5 2 1.2 2s1-.5 1.1-1.2h1.1c0 1.3-.8 2-2.1 2s-2.3-.4-2.3-3.1c0-1.8.2-3.2 2.3-3.2 1.7 0 2.2.9 2.2 3v.5h-3.5zm2.4-.7c0-1.8-.5-2-1.2-2-.6 0-1.1.3-1.2 2h2.4zM34.188 59.5v-1.2l1-.4v1.6h1.3v.7h-1.3v3.7c0 .4 0 .9.9.9h.4v.8c-.3 0-.6.1-1 .1-.9 0-1.4-.4-1.4-1.1v-4.3h-1v-.7h1.1zM40.188 65.5v-4.1c0-.7-.2-1.3-1.1-1.3-1 0-1.2.8-1.2 1.8v3.6h-1v-8.7h1v3.4c.4-.7.9-.9 1.6-.9 1 0 1.6.5 1.6 1.9v4.3h-.9zM45.588 59.5h1v4.8c0 .4 0 .8.1 1.3h-1v-.7c-.3.6-.9.9-1.5.9-1.1 0-1.6-.5-1.6-1.6v-4.6h1v4.2c0 .7.3 1.2 1 1.2.5 0 1.2-.4 1.2-1.4v-4.1zM49.688 65.6c-1.3 0-2.1-.6-2.1-2h1.1c0 .3 0 1.2 1 1.2.6 0 1-.3 1-.9 0-1.1-3-1.1-3-2.9 0-.6.4-1.7 2.1-1.7 1.1 0 2 .5 1.9 1.7h-1.1c0-.6-.3-1-.9-1-.5 0-.9.3-.9.8 0 1.1 3 1 3 2.9 0 1.4-.9 1.9-2.1 1.9zM55.888 64.7c-.3.7-.8 1-1.5 1-1.3 0-1.7-.8-1.7-2 0-1.8 1.8-1.9 3.2-1.9 0-.8 0-1.7-1-1.7-.7 0-1 .4-.9 1.1h-1.1c0-1.4.8-1.8 2.1-1.8 1.6 0 2 .8 2 1.8v2.9c0 .5 0 1 .1 1.4h-1.1v-.8zm-2.3-1c0 .6.3 1.1.9 1.1.6 0 1.3-.4 1.2-2.3-.8 0-2.1-.1-2.1 1.2z"/></g><g fill="#ED2224"><path d="M9.4 20.1c0-3.1 0-6 4-6 2.5 0 3.5 1.4 3.4 3.8h-2.4c0-1.5-.3-2.1-1-2.1-1.4 0-1.5 1.3-1.5 4.2s.2 4.2 1.5 4.2c1.1 0 1.1-1.4 1.1-2.4h2.4c0 3.1-1.2 4.1-3.5 4.1-4 .1-4-2.8-4-5.8zM17.5 25.9l3.2-11.6h3.2L27 25.9h-2.5l-.6-2.6h-3.3l-.7 2.6h-2.4zm4.7-9.4-1.1 5h2.3l-1.2-5zM47.9 22.8v-1.3l3.1-7.1h2v7.1h1.3v1.3H53v2.7h-1.4v-2.7h-3.7zm3.7-1.3v-5.8l-2.4 5.8h2.4zM55.3 27.1h-1.1L58 14h1.1l-3.8 13.1zM63.5 19.6c1.6.2 2 1.4 2 2.9 0 2-1 3.2-3 3.2s-3-1.2-3-3.2c0-1.4.4-2.7 2-2.9-1.3-.3-1.9-1.3-1.9-2.6 0-1.7 1.1-2.8 2.8-2.8s2.8 1 2.8 2.8c.2 1.3-.4 2.4-1.7 2.6zm.6 2.9c0-1-.1-2.3-1.5-2.3s-1.5 1.3-1.5 2.3c0 1 .4 2 1.5 2s1.5-1 1.5-2zM64 17c0-.8-.4-1.7-1.4-1.7s-1.4.8-1.4 1.7c0 .8.3 2 1.4 2s1.4-1.2 1.4-2z"/><g stroke="#CC2028" stroke-width=".139" stroke-linecap="round" stroke-linejoin="round" stroke-miterlimit="2.714"><path d="m65.38 48.584-.497 2.985h-3.11l-52.37-.124.249-1.493h9.827v-.249h0v-.124h-1.866v-.249h1.99l.125-.249h.373v-.124h1.12v-.249h.373v-.124h-.25v-.125h.374v.125h.124v.124h-.124v.124h.249v.25h.373v.746h-.622v.124h.87L21.22 36.89h.25l1.616 13.062h.125v-.746h0v-.622h-.125v-.747h.622v.498h.498v-.498h.124v-.249h-.124v-.373h.498v.498h0v.249h.621v-.374h-.124v-.746h.622v.622h.622v-.373h-.249v-.746h.871v.746h-.249v.373h.125v.498h0v.497h0v.871h1.617v-.87h-1.12v-.623h4.354v.622H30.55v.871h1.99v-.498h.498l-.622-4.229h1.12l.995 4.23h3.607v-.125l-1.741.124-.498-4.353h1.866l.498 3.483 2.488.995h.497v-.498h.373v-.497h.25v-.374h.124v.374h.248v.497h.25v-.995h-.125v-.373h.249v.373h-.125v.995h1.493v-1.617h-.498v-.497h.498v-.374h-.125v-.746h-.248v-1.12h.248v.622h.25v-.87h.372v.248h.747v.622h.249v.374h-.125v.497h.498v-.497h.746v.87h-.124v2.488h.373v-.249h.498v.25h1.368v-.498h-.622v-.747h.746v-.248h-.124v-.25h.124v-.248h.125v.249h0v.249l.124-.25h.124l-.248.374v.124h1.741l.125.25h1.99v.248h-1.866v.124h0v.622h.124v-.373h.25v.373h.248v-.249h.249v.25h.497v.87h.374v-.373h-.125v-.747h2.24v.125h.372l.125.249h1.99v.248H55.43v.125h0v.746-.497h.125v-.25h.87v-.124h.747v-.124h.622v.124h.124v.25l5.847-.25h0l1.617-.248zm-12.439.622h.25v-.374h-.25v.374z" stroke-width=".17291044"/><path d="M43.736 48.335 42.368 36.89h-.125l1.244 11.57.25-.125z" stroke-width=".17291044"/></g></g></svg>