<svg version="1.2" baseProfile="tiny" xmlns="http://www.w3.org/2000/svg" viewBox="0 0 75 75" overflow="visible" xml:space="preserve"><path fill="#FFF" d="M0 0h75v75H0z"/><g fill="#ED2224"><path d="M32.888 56.9h1.1l-2.4 5.4v3.3h-1.1v-3.3l-2.3-5.4h1.2l1.7 4.2 1.8-4.2zM33.488 62.6c0-1.8.2-3.2 2.3-3.2s2.3 1.5 2.3 3.2c0 2.7-1 3.1-2.3 3.1s-2.3-.4-2.3-3.1zm3.5-.4c0-1.7-.5-2-1.3-2s-1.3.4-1.3 2c0 2 .3 2.7 1.3 2.7s1.3-.8 1.3-2.7zM40.088 60.4c.4-.9.9-1 1.9-1v1h-.6c-1.1 0-1.4.8-1.4 1.6v3.6h-1v-6.1h1v.9zM43.588 65.5h-1v-8.7h1V62l1.8-2.6h1.2l-2 2.6 2.4 3.5h-1.2l-2.2-3.4v3.4z"/></g><g fill="#ED2224"><path d="M9.4 20.1c0-3.1 0-6 4-6 2.5 0 3.5 1.4 3.4 3.8h-2.4c0-1.5-.3-2.1-1-2.1-1.4 0-1.5 1.3-1.5 4.2s.2 4.2 1.5 4.2c1.1 0 1.1-1.4 1.1-2.4h2.4c0 3.1-1.2 4.1-3.5 4.1-4 .1-4-2.8-4-5.8zM17.5 25.9l3.2-11.6h3.2L27 25.9h-2.5l-.6-2.6h-3.3l-.7 2.6h-2.4zm4.7-9.4-1.1 5h2.3l-1.2-5zM47.9 22.8v-1.3l3.1-7.1h2v7.1h1.3v1.3H53v2.7h-1.4v-2.7h-3.7zm3.7-1.3v-5.8l-2.4 5.8h2.4zM55.3 27.1h-1.1L58 14h1.1l-3.8 13.1zM63.5 19.6c1.6.2 2 1.4 2 2.9 0 2-1 3.2-3 3.2s-3-1.2-3-3.2c0-1.4.4-2.7 2-2.9-1.3-.3-1.9-1.3-1.9-2.6 0-1.7 1.1-2.8 2.8-2.8s2.8 1 2.8 2.8c.2 1.3-.4 2.4-1.7 2.6zm.6 2.9c0-1-.1-2.3-1.5-2.3s-1.5 1.3-1.5 2.3c0 1 .4 2 1.5 2s1.5-1 1.5-2zM64 17c0-.8-.4-1.7-1.4-1.7s-1.4.8-1.4 1.7c0 .8.3 2 1.4 2s1.4-1.2 1.4-2z"/><g stroke="#CC2028" stroke-width=".139" stroke-linecap="round" stroke-linejoin="round" stroke-miterlimit="2.714"><path d="m65.402 48.584-.497 2.985h-3.11l-52.37-.124.248-1.493H19.5v-.249h0v-.124h-1.866v-.249h1.99l.125-.249h.373v-.124h1.12v-.249h.373v-.124h-.249v-.125h.373v.125h.125v.124h-.125v.124h.25v.25h.372v.746h-.622v.124h.871L21.242 36.89h.249l1.617 13.062h.124v-.746h0v-.622h-.124v-.747h.622v.498h.497v-.498h.125v-.249h-.125v-.373h.498v.498h0v.249h.622v-.374h-.125v-.746h.622v.622h.622v-.373h-.248v-.746h.87v.746h-.248v.373h.124v.498h0v.497h0v.871h1.617v-.87h-1.12v-.623h4.354v.622h-1.244v.871h1.99v-.498h.498l-.622-4.229h1.12l.995 4.23h3.608v-.125l-1.742.124-.498-4.353h1.866l.498 3.483 2.488.995h.497v-.498h.374v-.497h.248v-.374h.125v.374h.249v.497h.248v-.995h-.124v-.373h.249v.373h-.125v.995h1.493v-1.617h-.497v-.497h.497v-.374h-.124v-.746h-.249v-1.12h.249v.622h.249v-.87h.373v.248h.746v.622h.249v.374h-.124v.497h.497v-.497h.747v.87h-.125v2.488h.373v-.249h.498v.25h1.368v-.498h-.622v-.747h.747v-.248h-.125v-.25h.125v-.248h.124v.249h0v.249l.124-.25h.125l-.249.374v.124h1.742l.124.25h1.99v.248h-1.866v.124h0v.622h.125v-.373h.249v.373h.248v-.249h.25v.25h.497v.87h.373v-.373h-.124v-.747h2.239v.125h.373l.124.249h1.99v.248h-1.865v.125h0v.746-.497h.124v-.25h.87v-.124h.747v-.124h.622v.124h.125v.25l5.846-.25h0l1.617-.248zm-12.44.622h.25v-.374h-.25v.374z" stroke-width=".17291044"/><path d="M43.757 48.335 42.39 36.89h-.124l1.244 11.57.248-.125z" stroke-width=".17291044"/></g></g></svg>