<svg version="1.2" baseProfile="tiny" xmlns="http://www.w3.org/2000/svg" viewBox="0 0 75 75" overflow="visible" xml:space="preserve"><path fill="#FFF" d="M0 0h75v75H0z"/><g fill="#ED2224"><path d="M12.588 59.5c0-1.7.9-2.8 2.7-2.8s2.7 1.1 2.7 2.8v2.8c0 .6-.3 2.2-.8 2.4.2 0 .6-.2.8-.2h.9v1h-3.6c-1.2 0-2.7-.1-2.7-3.2v-2.8zm4.3 2.9v-2.9c0-1.8-1.2-1.9-1.6-1.9s-1.6.1-1.6 1.9v2.9c0 1.4.3 2.2 1.6 2.2s1.6-.7 1.6-2.2zM22.688 65.5v-4.2c0-.6-.2-1.2-1.1-1.2-1.1 0-1.2 1-1.2 1.8v3.6h-1v-4.8c0-.4 0-.8-.1-1.3h1v.8c.4-.7.8-.9 1.6-.9 1.3 0 1.6.8 1.6 2v4.2h-.8zM25.088 65.5v-8.7h4.5v1h-3.4v2.8h3.1v1h-3.1v3h3.4v1h-4.5zM31.388 65.5h-1v-8.7h1v8.7zM32.588 56.9h1.1V58h-1.1v-1.1zm1 8.6h-1v-6.1h1v6.1zM38.088 60.4l-2.7 4.4h2.8v.8h-3.8v-.9l2.6-4.3h-2.5v-.8h3.6v.8zM42.088 64.7c-.3.7-.8 1-1.5 1-1.3 0-1.7-.8-1.7-2 0-1.8 1.8-1.9 3.2-1.9 0-.8 0-1.7-1-1.7-.7 0-1 .4-.9 1.1h-1.1c0-1.4.8-1.8 2.1-1.8 1.6 0 2 .8 2 1.8v2.9c0 .5 0 1 .1 1.4h-1.1v-.8zm-2.2-1c0 .6.3 1.1.9 1.1.6 0 1.3-.4 1.2-2.3-.9 0-2.1-.1-2.1 1.2zM45.588 65.5h-1v-8.7h1V60c.3-.5.8-.7 1.3-.7 2 0 2 1.7 2 3.2 0 2.7-1 3-2 3-.6 0-1.1-.3-1.4-.8v.8zm1.1-.7c1.2 0 1.2-1.3 1.2-2.2 0-1.6-.1-2.5-1.2-2.5-1.1 0-1.1 1.3-1.1 2.1 0 1-.1 2.6 1.1 2.6zM50.988 62.8c0 1.7.5 2 1.2 2s1-.5 1.1-1.2h1.1c0 1.3-.8 2-2.1 2s-2.3-.4-2.3-3.1c0-1.8.2-3.2 2.3-3.2 1.7 0 2.2.9 2.2 3v.5h-3.5zm2.3-.7c0-1.8-.5-2-1.2-2-.6 0-1.1.3-1.2 2h2.4zM55.588 59.5v-1.2l1-.4v1.6h1.3v.7h-1.3v3.7c0 .4 0 .9.9.9h.4v.8c-.3 0-.6.1-1 .1-.9 0-1.4-.4-1.4-1.1v-4.3h-1v-.7h1.1zM61.588 65.5v-4.1c0-.7-.2-1.3-1.1-1.3-1 0-1.2.8-1.2 1.8v3.6h-1v-8.7h1v3.4c.4-.7.9-.9 1.6-.9 1 0 1.6.5 1.6 1.9v4.3h-.9z"/></g><g fill="#ED2224"><path d="M9.5 25.2V13.6h4.3c1.8 0 3.4.5 3.4 3 0 1.3-.7 2.3-2 2.5 1.7.2 2.2 1.3 2.2 2.9 0 2.9-2.5 3.1-3.6 3.1H9.5zm2.4-6.8h1.6c.5 0 1.3-.4 1.3-1.5 0-.8-.6-1.5-1.4-1.5h-1.5v3zm0 5.1h1.3c.5 0 1.7 0 1.7-1.6 0-1-.4-1.6-1.6-1.6h-1.4v3.2zM19.2 25.2V13.6h4.3c1.8 0 3.4.5 3.4 3 0 1.3-.7 2.3-2 2.5 1.7.2 2.2 1.3 2.2 2.9 0 2.9-2.5 3.1-3.6 3.1h-4.3zm2.5-6.8h1.6c.5 0 1.3-.4 1.3-1.5 0-.8-.6-1.5-1.4-1.5h-1.5v3zm0 5.1H23c.5 0 1.7 0 1.7-1.6 0-1-.4-1.6-1.6-1.6h-1.4v3.2zM40.5 19.9c0-3 0-5.8 3-5.8 1.7 0 2.8 1 2.8 2.7h-1.5c0-.8-.4-1.6-1.3-1.6-1.2 0-1.5 1.1-1.5 4 .4-.6 1-1 1.8-1 1.4 0 2.6.8 2.6 3.7 0 2-.8 3.7-3 3.7-2.9 0-2.9-2.8-2.9-5.7zm3.1 4.5c1.2 0 1.4-1.3 1.4-2.8 0-1-.2-2.2-1.5-2.2S42 20.8 42 21.8c0 1.1.2 2.6 1.6 2.6zM47.8 26.9h-1.1l3.8-13.1h1.1l-3.8 13.1zM56.1 25.4h-1.5v-9.5L52.9 17v-1.4c.4-.2 1.4-1 1.9-1.3h1.3v11.1zM59.3 25.4v-1.3c3.2-4.5 4.2-5.4 4.2-7.3 0-.9-.4-1.5-1.4-1.5-1.1 0-1.3.9-1.3 1.8h-1.5c-.1-1.8.8-3 2.7-3 2 0 3 .9 3 2.9 0 2.5-1.2 3.3-4.1 7.1h4.4v1.3h-6z"/><path stroke="#CC2028" stroke-width=".127" stroke-linecap="round" stroke-linejoin="round" stroke-miterlimit="2.179" d="m9.4 51.3.5-1.2h.1v-.9h.1v-1.7h.1v1.7h5.5v-.1h.2v.1h.6v-.1h.1v.1h.5V49h.2v.2h.2v-.1h1v.1h2.2v-.4l-2.3-.1v-.1l2.6-.1h0l.7-.1V48h.1l.1-.4h.4v.4h1.1v-.1h.6v.6h0v.5h-.2v.2h.9v-.9h0v-.5l-2.3-.1v-.1l2.6-.1v-.1l.7-.1v-.4h.1l.1-.4h.5v.4h1.1v-.1h.6v.5h0v.5h-.2v.1h.5v-.6h0v-.4h-.6v-.5h.6v-.2h0l-.2-.9h0V45h-.1v-.7h.9v.1h.7v-.7l.7-.4v1.1h.6v-1.7h.7v1.7h.5v.7h0v-1.8h-.1V43H32l-.5-.5h.5v-3.1h.1v3.1h.7l-.2.5h0l.5 2.2h0v1h.4v.4h-.7v.7h.1v-.1h1.4v.1h.9v-3.1H37l.2 2.7h1.1v.4h.2v.1l1.5-.7v-.1l2.8.4v.1l-2.7.1h0l-1.5.9v1.2h2.1l.1-.1h0-.9 0-.4V49H41v-.1h-.6v-.1h.6v-.2h-1.5v-.1h3.3v.1h-1.7v.2h.6v.1h-.6v.1h1.5v.1h-.2 0-1.2 0l.2.1h2v-1.7H43v-.6h1.1v.6h.2v-5.4h.1v5.4h.4v-1.1h-.1v-.7h1v.7h-.2v1.1h.4v-.2h0v-.6h.6v.5h.4v.4h.1v1.8h.9V49h-.5v-.5h0V48h.6v.1h.4v-.4h.4v.4h.6v.2l1.2.1v.1l2.6.1v-.2l-2.3.1V50h.9v-.4h-.2v-.5h0v-.5h.6v.1h1.1v-.4h.4l.1.4h.1v.4l.7.1v.1l2.7-.1v.1l-2.3.1v.5h.9v-.2h.5v.2h1.7v-.4h.4v.2h1v-.2h.4v.2h2.6l.1-.1h.1v.2h.1v-.2h.1l.1.1.1-.1h0l.6-.7.4-1.6h.1l-.4 2.3h0v.1h-.1.2l.2 1.4H9.4zm23.4-7.4v1.4h.4l-.4-1.4zm30.9 5.5-.5.6h.4l.1-.6z"/></g></svg>