<svg version="1.2" baseProfile="tiny" xmlns="http://www.w3.org/2000/svg" viewBox="0 0 75 75" overflow="visible" xml:space="preserve"><path fill="#FFF" d="M0 0h75v75H0z"/><path fill="#ED2224" d="M40.1 53.9c0-.4-.2-2-1.9-2-1.8 0-2.6 1.9-2.6 4.3 0 .7 0 4 2.4 4 1 0 2-.7 2.1-2.2h2.6c0 .7-.1 1.8-1 2.7-1 1.1-2.3 1.3-3.4 1.3-4 0-5.3-2.9-5.3-5.8 0-3.7 2-6.1 5.3-6.1 2.5 0 4.3 1.5 4.3 3.8h-2.5z"/><g fill="#ED2224"><path d="M26.816 45.63c-.066.09-.173.172-.271.18-.197.025-.394.009-.59.017-.09-.074-.19-.033-.287-.033-.23.008-.468.057-.681-.098a.125.125 0 0 0-.164 0c-.074.049-.123.065-.18-.017-.033-.04-.099-.04-.14-.057s-.082-.017-.115-.05c-.049-.049-.04-.09.033-.114.066-.025.074-.05.016-.09-.04-.033-.073-.115-.155-.05-.025.025-.05-.008-.066-.024a.229.229 0 0 1-.05-.148c0-.049 0-.106-.007-.156-.033-.13.016-.196-.189-.213-.066-.008-.09-.049-.115-.098-.303-.582-.377-1.19-.14-1.82.066-.173.148-.337.239-.493-.041-.057-.09-.04-.132-.04h-.844c-.123 0-.205.032-.279.13-.262.345-.599.6-.976.804-.18.099-.377.189-.582.23-.074.016-.14.033-.172.115-.025.057-.074.049-.107 0-.016-.017-.033-.041-.057-.058-.09-.065-.123-.057-.197.025-.025.024-.033.049-.057.074-.041.04-.09.049-.14.016-.115-.074-.23-.082-.336.016a.105.105 0 0 1-.082.033c-.123.017-.238.025-.36.041-.034 0-.05-.008-.075-.033-.082-.082-.197-.114-.295-.164-.025-.008-.05-.008-.066.017-.016.024-.008.049.017.074l.147.123c.025.024.05.049.025.082-.025.032-.057.04-.098.024a.364.364 0 0 1-.09-.065c-.083-.099-.19-.074-.288-.033-.04.016-.073.04-.106.065-.131.066-.336-.049-.312-.188.033-.213-.156-.28-.246-.402-.106-.008-.205-.033-.311 0-.132.033-.222-.016-.271-.14-.016-.049-.008-.09.016-.139a.226.226 0 0 0-.016-.238c-.025-.033-.041-.074-.057-.115-.058-.172-.189-.22-.345-.237-.14-.017-.18-.058-.213-.189-.016-.057-.016-.107.025-.148.098-.09.098-.205.073-.32-.008-.04-.016-.081-.016-.122a.123.123 0 0 0-.082-.123c-.098-.05-.18-.123-.279-.173-.14-.065-.147-.27-.016-.352.106-.066.14-.148.156-.254.008-.025.008-.05.016-.074.082-.197.016-.345-.131-.468-.074-.057-.099-.123-.074-.221.025-.074.066-.14.148-.14.098-.008.147-.065.188-.147.008-.025.017-.05.033-.066.14-.164.09-.32-.008-.475-.074-.123-.066-.172.016-.279.041-.057.099-.074.164-.066.197.025.263-.147.377-.246-.008-.098-.008-.196-.016-.295a.117.117 0 0 0-.016-.05c-.033-.09-.05-.171.032-.245.082-.074.164-.107.271-.041.008 0 .016 0 .041-.008-.107-.189-.23-.361-.344-.541-.041-.066-.09-.074-.156-.041-.123.065-.246.123-.37.18s-.155.04-.188-.09c-.008-.017-.008-.033-.008-.05-.05-.213-.05-.213.14-.311.008-.008.016-.008.024-.017.148-.09.156-.09.066-.237a1.437 1.437 0 0 1-.148-1.148c-.074.024-.107.073-.14.114-.254.28-.5.566-.754.845-.369.41-.73.82-1.115 1.214a.532.532 0 0 0-.131.262l-.295 1.156-.025.09c-.041.14-.057.148-.197.107-.04-.008-.082-.024-.123-.04-.14-.042-.156-.066-.123-.214a6.04 6.04 0 0 1 .09-.369c.074-.279.156-.566.214-.853a.93.93 0 0 1 .23-.41c.27-.303.54-.599.81-.902.665-.746 1.338-1.5 2.002-2.255.246-.279.492-.558.738-.828a.93.93 0 0 1 .32-.246c.155-.066.303-.148.442-.23.115-.065.238-.074.361-.098l.328-.05c.074-.008.123-.04.148-.122.033-.107.09-.214.131-.32.033-.066.033-.107-.04-.156-.108-.057-.116-.074-.067-.189.115-.295.238-.582.353-.869.025-.066.066-.09.148-.066.123.041.13.033.18-.082.131-.311.263-.615.386-.926.155-.386.311-.78.475-1.165.041-.098.041-.172-.016-.262-.033-.05-.058-.115-.09-.164-.017-.041-.05-.074-.033-.115.024-.09 0-.164-.05-.246-.04-.065-.008-.131.074-.147a.163.163 0 0 0 .123-.107c.041-.14.132-.189.28-.172h.09c.098-.008.172-.041.204-.156.025-.107.082-.205.132-.303.032-.074.04-.14-.058-.18-.074-.034-.082-.091-.049-.157.131-.287.238-.59.36-.885.034-.074.083-.099.165-.074.106.033.115.025.156-.082l.172-.418c.016-.041.04-.09.057-.132.025-.049.058-.106.123-.098.074.008.09.066.09.123 0 .05.025.074.066.057.205-.057.41-.049.623-.065.304-.033.615-.082.919-.115.418-.04.844-.098 1.263-.148.574-.065 1.14-.123 1.713-.205.476-.065.96-.114 1.435-.172.378-.049.755-.098 1.14-.14l1.214-.147c.476-.057.951-.123 1.435-.172.5-.057 1-.156 1.509-.164.976-.016 1.96-.008 2.936-.008.23 0 .459-.008.688-.017.066 0 .123-.008.189.009.156.032.303-.017.451-.017 1.017 0 2.034-.008 3.05-.008.132 0 .246-.016.32-.14.05-.09.14-.081.222-.081.697 0 1.394.016 2.09 0 .952-.025 1.895-.017 2.846-.025.213 0 .41-.066.615-.107.295-.057.583-.123.878-.188.13-.033.213 0 .295.115.328.45.664.893 1 1.328.386.492.755.992 1.116 1.5.943 1.321 1.943 2.6 2.91 3.904.083.107.107.205.042.328-.082.156-.131.32-.205.476a1.071 1.071 0 0 0-.099.5c.008.164 0 .336 0 .5 0 .099.025.197-.049.287-.025.025-.008.082-.008.123v.41c0 .164-.008.172-.172.189-.009 0-.025 0-.033.008-.164.016-.205-.016-.213-.189-.009-.147 0-.295-.009-.442 0-.123-.008-.148-.139-.156-.32-.025-.64-.041-.951-.066-.41-.024-.812-.057-1.222-.082l-.55-.024c-.057 0-.073.024-.065.073.008.05.016.09.033.14l.566 2.09c.024.107.04.214.082.32.032.083.262.148.328.099.008-.008.024-.025.024-.041 0-.115.05-.238-.065-.336a.437.437 0 0 1-.132-.189c-.024-.065-.049-.123-.13-.147-.075-.025-.075-.099-.075-.156 0-.074.025-.123.099-.14a.173.173 0 0 0 .115-.098c.172-.369.492-.435.811-.394.115.017.238.041.353.09.148.058.303.042.451.042.156-.009.312.008.467.008.19 0 .378.008.566.008.09 0 .164.016.222.09l.098.099c.14.139.131.139.05.32-.05.106-.115.13-.222.13h-.878c-.369 0-.369 0-.623.263-.016.016-.024.033-.04.05a.373.373 0 0 1-.353.155c-.082-.008-.164 0-.255 0-.049 0-.082.025-.082.082 0 .05.017.082.066.09.131.025.254.05.385.074.115.016.23.033.246.189.009.065.074.065.123.073.197.041.394.074.583.107.393.066.795.14 1.189.205.475.082.96.172 1.435.254.164.025.336.025.5.008.27-.032.533 0 .795.033.37.041.722.172 1.066.304.378.147.738.336 1.066.565.123.082.23.18.345.271.074.057.074.09.008.172-.09.099-.18.189-.262.287-.123.14-.123.197.016.328.016.017.041.033.057.058.099.14.23.147.378.115.024-.009.049-.009.074-.017.082-.024.164-.033.23.05.057.081.106.155.048.254-.04.065-.032.13 0 .196a.502.502 0 0 1 .041.099c.041.156.115.262.304.279.13.008.205.221.115.328-.164.18-.066.377-.082.574 0 .049.04.082.09.098.04.016.082.033.115.05.164.081.188.278.032.376-.196.123-.164.32-.188.5-.008.066.057.107.106.148.156.156.123.336-.09.402a.283.283 0 0 0-.18.14c-.05.081-.099.163-.156.237-.05.074-.05.131 0 .197.107.131.057.18-.025.287-.04.057-.09.082-.164.066-.082-.025-.14.016-.196.065-.05.041-.09.09-.14.131a.327.327 0 0 0-.14.312.204.204 0 0 1-.303.205c-.164-.09-.295-.016-.434.033-.074.025-.074.09-.058.164.025.123-.016.205-.123.262-.065.033-.123.05-.188 0-.05-.032-.09-.065-.156-.049-.099.025-.197.033-.279.09-.066.041-.041.115-.041.173 0 .082 0 .155-.082.205-.082.049-.156.082-.246.016-.05-.033-.098-.057-.164-.041-.033.008-.066-.008-.09-.025-.017-.008-.033-.032-.041-.049-.008-.033.024-.04.049-.05.09-.032.18-.04.27.026.042.032.09.057.132 0-.008-.041-.041-.033-.066-.041a.296.296 0 0 1-.23-.123c-.04-.058-.081-.058-.13-.017-.05.033-.107.058-.165.082a.087.087 0 0 1-.098-.016c-.025-.033-.008-.058.016-.082.05-.05.041-.107.017-.164-.017-.05-.017-.107-.082-.123-.058-.008-.099.033-.131.074-.033.032-.05.073-.082.123-.14-.058-.246-.148-.37-.23-.024-.016-.024-.057-.04-.082-.041-.098-.082-.123-.197-.107a.635.635 0 0 0-.213.099c-.066.04-.123.082-.189.106-.123.058-.238-.024-.23-.155.009-.09.017-.18.033-.263a.398.398 0 0 0 0-.14c-.033-.114-.082-.155-.205-.139-.074.017-.14.041-.213.058a.871.871 0 0 1-.156.032c-.082.009-.131-.032-.172-.09-.05-.057-.016-.106.016-.156.017-.024.033-.04.041-.065.033-.074.025-.099-.057-.099h-.82c-.09 0-.107.033-.057.107.057.098.114.197.164.303.254.575.254 1.157.024 1.739-.05.115-.057.262-.188.336-.033.017-.025.058-.025.082-.008.066-.033.123-.098.148-.058.024-.09.074-.132.115-.049.04-.074.09-.04.155.007.017.016.041.007.058 0 .033-.016.065-.057.065-.033.009-.05-.016-.057-.04-.041-.074-.09-.156-.123-.238-.033-.074-.082-.082-.156-.066s-.082.066-.09.131c0 .09-.009.18 0 .27 0 .124.082.165.188.1.041-.025.082-.066.131-.083.025-.008.041-.008.058.008a.04.04 0 0 1 0 .058 1.8 1.8 0 0 1-.14.205c-.016.024-.057.04-.082.016-.073-.049-.147-.016-.23 0l-.245.05c-.058.008-.115.016-.164-.017-.05-.041-.099-.033-.14.008a.128.128 0 0 1-.13.025.686.686 0 0 0-.444.024c-.04.017-.073 0-.114-.032-.115-.099-.14-.099-.238.016-.041.05-.082.074-.131.016-.033-.04-.082-.032-.132-.057-.073-.033-.172-.033-.147-.172.016-.066-.09-.107-.148-.115-.164 0-.213-.098-.246-.23-.033-.114-.04-.13-.164-.123-.098.009-.156-.016-.18-.123-.008-.049-.058-.098-.09-.147a1.421 1.421 0 0 1-.205-.336.209.209 0 0 0-.164-.132c-.123-.024-.246-.049-.37-.082s-.163-.082-.172-.213v-.221c0-.066-.024-.107-.098-.107h-.05c-.163 0-.18.008-.18.172v.123c-.008.173-.057.23-.23.263-.098.024-.204.04-.31.065a.215.215 0 0 0-.173.14 1.556 1.556 0 0 1-.246.402c-.05.065-.057.123-.033.205.041.13.074.262.107.393.016.074-.008.115-.082.115-.074 0-.14.016-.214-.008.009-.017.009-.033.009-.033.156-.074.156-.074.106-.238-.016-.057-.04-.106-.057-.164-.017-.049-.05-.074-.107-.082-.065-.008-.098.025-.115.082-.032.107-.057.213-.082.32-.032.115-.016.156-.18.164-.394.025-.779.074-1.173.074-.155 0-.303.008-.459.033-.115.016-.197-.025-.238-.132-.024-.065-.073-.082-.123-.106-.147-.074-.287-.148-.328-.328-.016-.058-.057-.082-.114-.082-.123.008-.197-.066-.271-.148a2.148 2.148 0 0 1-.517-1.37 2.02 2.02 0 0 1 .238-1.016c.05-.099.099-.197.156-.279-.025-.057-.074-.04-.107-.04h-.992c-.074.007-.09.032-.057.106.074.123.14.246.197.377.287.738.213 1.435-.222 2.091-.04.066-.098.115-.082.213.008.058-.05.082-.115.074-.205-.016-.18.05-.213.18-.016.05-.024.107-.05.148-.04.066-.065.074-.138.016a.08.08 0 0 0-.074-.008c-.05.033-.099.058-.148.09-.115.074-.14.066-.18-.065-.025-.082-.05-.164-.066-.246-.016-.074-.05-.123-.14-.123-.081 0-.106.057-.122.115-.025.123-.066.246-.074.369-.008.073-.033.098-.09.098-.148.008-.287.057-.435.016-.033-.008-.066-.008-.09.009-.099.049-.18.008-.295-.058.123-.024.221-.04.311-.09.099-.05.099-.041.074-.148-.016-.057-.033-.123-.05-.18-.016-.066-.048-.107-.13-.115-.074 0-.115.033-.132.107-.024.115-.057.221-.082.336-.016.074-.057.098-.123.074l-.295-.099c-.057-.016-.082-.057-.098-.114-.017-.058-.033-.123-.05-.18-.049-.132-.13-.157-.237-.075-.05.041-.082.033-.115-.008-.189-.197-.377-.393-.484-.648-.033-.082-.098-.114-.18-.13a3.747 3.747 0 0 1-.295-.058c-.164-.033-.214-.09-.214-.254v-.205c0-.058-.032-.082-.09-.09h-.123c-.074 0-.106.032-.106.106 0 .066 0 .123-.009.189-.008.155-.04.205-.188.246-.115.032-.23.057-.353.082-.074.016-.123.049-.147.123a1.885 1.885 0 0 1-.205.352c-.041.058-.066.099-.017.164.05.066.008.115-.074.107-.024 0-.04-.008-.065-.008-.107-.009-.123.008-.164.106a1.345 1.345 0 0 1-.025.09c-.024.05-.057.082-.115.082-.14 0-.221.058-.287.189a.208.208 0 0 1-.172.123.236.236 0 0 0-.172.115c-.025.04-.066.074-.099.033-.098-.132-.237-.09-.36-.074-.09.016-.164.04-.246-.041-.041-.041-.099-.033-.148-.008-.148.065-.295.016-.426-.041a2.289 2.289 0 0 1-.271-.156.235.235 0 0 1-.14-.197c-.008-.041-.016-.082-.032-.123-.033-.107-.14-.131-.23-.057-.09.073-.09.082-.18 0a2.153 2.153 0 0 1-.648-1.157 2.21 2.21 0 0 1 .295-1.623c.017-.025.041-.05.033-.099-.402-.016-.812 0-1.246 0 .287.435.434.878.426 1.37-.008.492-.18.926-.484 1.328.099.033.213 0 .238.123.025.115.107.23.008.361-.09-.057-.082-.156-.106-.238-.025-.074-.074-.09-.148-.082-.05.008-.082.033-.09.074a6.04 6.04 0 0 0-.09.369c-.017.057.024.074.073.082a.236.236 0 0 0 .164-.041c.041-.025.09-.041.132-.016.024.008.016.032.008.057-.025.057-.074.066-.123.074h-.017c-.196 0-.401.033-.598.024-.254-.008-.5.025-.746.033-.107 0-.205.017-.304-.033-.04-.024-.082-.016-.123 0-.172.09-.36.05-.541.033a.279.279 0 0 1-.263-.246c-.016-.106-.057-.205-.09-.303-.016-.066-.057-.099-.123-.099s-.098.033-.115.09c0 .009-.008.017-.008.033-.049.107-.065.115-.156.041a1.94 1.94 0 0 1-.467-.5c-.05-.082-.09-.164-.14-.246-.04-.074-.09-.123-.18-.131a4.424 4.424 0 0 1-.32-.066c-.13-.024-.188-.082-.205-.221-.008-.082 0-.156 0-.238 0-.057-.016-.09-.09-.098-.221 0-.221 0-.221.213 0 .025.008.04.008.066 0 .147-.057.237-.205.27-.098.025-.205.05-.303.066s-.164.057-.197.156c-.066.155-.164.287-.263.426.041.066.115.008.164.074-.057.082-.147.14-.23.197-.024.016-.048 0-.048-.033 0-.025.016-.05 0-.09l-.37.295c-.032.024-.032.065-.04.098-.025.041-.066.066-.123.074-.033-.123-.066-.254-.107-.377-.016-.066-.066-.09-.131-.09s-.107.032-.123.098l-.074.32c-.016.074.016.106.098.106a.165.165 0 0 0 .09-.024.43.43 0 0 1 .247-.033zm25.61-10.111h-.034l-.04-.066c-.017-.025-.042-.049-.075-.049-.049.008-.024.041-.032.066-.017.074-.041.074-.107.016-.066-.115-.172-.14-.279-.057-.008.008-.016.016-.024.033-.025-.025-.05-.041-.074-.066a.192.192 0 0 0-.058.057c-.016 0-.032 0-.04.009-.033-.082-.09-.099-.173-.082-.164.032-.32.016-.418-.14-.008 0-.025 0-.033.008-.04.009-.082.009-.123.017-.074.024-.123.065-.115.147.009.107 0 .222.09.304 0 .033.017.049.05.065.016-.024.024-.04.04-.065l.075.024c.016.009.032.025.049.033l.04.066c.025-.017.058 0 .075-.008.09-.066.188-.066.295-.041.024.008.057-.009.09-.017.057.017.098-.016.148-.04.032-.017.024-.05.016-.083.074-.024.172-.016.189-.131.04 0 .073.016.106.033a.136.136 0 0 1-.04.106c-.025.009-.05.025-.034.05.017.024.041.016.066 0a.121.121 0 0 1 .131.065c.041.09.115.082.189.082s.172.008.205-.04c.04-.066.065-.066.123-.034.016.009.05 0 .074-.008.196.115.393.033.598.008h.058c.008.017.008.041.016.041.074.017.148.05.221.033.058-.008.074-.074.074-.123 0-.057-.04-.082-.098-.082-.074.008-.156 0-.23.033h-.065c.008-.09-.05-.123-.123-.098-.05.016-.082.016-.132-.017-.049-.033-.098-.016-.147.017a.196.196 0 0 1-.115.04c-.066-.13-.172-.163-.312-.147-.016 0-.04-.008-.057-.008a.084.084 0 0 0-.04.049zm-32.179.156c0-.017-.008-.033-.008-.05 0-.016.008-.032.008-.049.017-.057 0-.123 0-.18.041-.082 0-.164.017-.246.008-.033-.025-.041-.058-.05-.147-.04-.221.058-.311.132-.05.041-.066.098-.058.164.025.156.09.312.131.46.017.065.066.09.132.098.155.09.172.09.278-.033h.033l.025-.074c-.008-.04 0-.074-.017-.107h-.065a.104.104 0 0 0-.074-.057c-.016-.008-.025-.008-.033-.008zm14.867.812h.55c.95 0 1.894 0 2.845-.009 1.074-.008 2.157.009 3.231-.024 1.009-.025 2.017-.008 3.034-.017h2.796c.28 0 .55-.016.829-.016.23 0 .459 0 .689-.008.13 0 .139-.008.139-.131 0-.246 0-.246-.246-.246-1.09 0-2.19.008-3.28.008-.541 0-1.09.016-1.632.024-1.148.009-2.304.009-3.452.009h-1.82c-.435 0-.87.016-1.305.016-.95.016-1.894.008-2.845.008h-.992c-.074 0-.14 0-.148.099-.008.073-.057.098-.123.098-.115.008-.23.008-.344.008-.066 0-.123-.024-.132-.106-.008-.082-.065-.099-.13-.09-.124.008-.239.016-.362.008-.287-.017-.574-.009-.86 0-.247.008-.493.008-.739.008-1.78.008-3.559 0-5.338.033-1.329.024-2.657.008-3.985.008h-.107c-.05 0-.082.016-.098.065-.025.099-.099.107-.18.115-.107.008-.222-.024-.329-.016-.05.008-.09-.025-.098-.082-.008-.074-.058-.09-.123-.082-.033.008-.074.008-.107.008-.197-.016-.197-.008-.197.189v.065c.009.099.025.115.123.123h.107c.713 0 1.435.008 2.148 0 .255 0 .5-.024.755-.024.73 0 1.451 0 2.181-.009 1.288-.008 2.575.009 3.862-.016.984-.016 1.969-.008 2.953-.008.434 0 .869-.017 1.303-.008.476.032.952.008 1.427 0zm20.329 3.764c-.025 1.131.894 2 2 1.992a1.992 1.992 0 0 0 1.96-1.984c0-1.058-.803-1.985-1.984-1.985a1.946 1.946 0 0 0-1.976 1.977zm-23.199 3.436c0-.287-.09-.566-.213-.837-.254-.566-.467-1.148-.713-1.722-.238-.55-.468-1.107-.706-1.656-.065-.148-.065-.14-.213-.132h-.123c-.107 0-.115.009-.123.115a.524.524 0 0 0 .074.328.604.604 0 0 1 .016.632.727.727 0 0 0-.082.393c.008.468.008.943 0 1.41 0 .197-.09.337-.279.419-.164.065-.328.147-.492.205-.106.04-.147.098-.147.213a.88.88 0 0 1-.197.566.23.23 0 0 0-.057.156v.205c0 .09.032.13.123.147.13.025.27.05.401.082.427.099.853.164 1.288.173h.09c.05-.009.098-.033.098-.09 0-.173.041-.353-.008-.525a.452.452 0 0 1 0-.312.444.444 0 0 1 .533-.27.441.441 0 0 1 .28.532c-.058.197-.058.394-.058.59 0 .1.033.116.115.066.246-.155.418-.352.393-.688zm8.824.623h.123c.164 0 .196-.033.196-.189 0-.164.009-.336-.04-.5a.416.416 0 0 1 .262-.492c.295-.107.648.131.566.5-.05.205-.017.41-.058.607-.016.09.033.123.107.074.238-.156.418-.345.41-.656a2.3 2.3 0 0 0-.189-.804c-.262-.607-.516-1.222-.779-1.837-.221-.533-.434-1.066-.664-1.59-.025-.05-.041-.115-.074-.156-.049-.05-.106.016-.164.008h-.106c-.082 0-.115.04-.115.115 0 .114.008.213.065.311a.612.612 0 0 1 0 .656.546.546 0 0 0-.073.295v1.444c0 .254-.099.385-.328.475-.14.058-.271.115-.41.164-.123.041-.173.107-.173.238 0 .189-.04.377-.18.525a.333.333 0 0 0-.09.27c.008.238 0 .238.238.288.492.123.975.254 1.476.254zm11.43-.263v.173c0 .057.025.082.083.049.238-.131.45-.353.434-.656a1.905 1.905 0 0 0-.147-.673c-.131-.311-.263-.623-.394-.943-.328-.795-.656-1.582-.984-2.378a5.398 5.398 0 0 0-.14-.32c-.024-.049-.04-.106-.106-.09-.082.017-.156.008-.238.017-.057.008-.082.032-.082.09 0 .106 0 .213.058.32.131.237.14.492-.017.73-.049.081-.049.163-.049.254 0 .492.008.984 0 1.476a.41.41 0 0 1-.254.401c-.164.074-.328.14-.492.205-.164.066-.172.066-.164.238 0 .173-.041.345-.148.468-.114.13-.114.279-.106.426 0 .123.016.14.14.172.139.033.286.058.434.082.32.074.648.123.976.14.106.008.205.016.311.016.09 0 .123-.033.123-.123.017-.197.041-.393-.033-.59-.008-.017-.008-.041-.008-.066-.008-.18.082-.311.238-.393a.396.396 0 0 1 .46.04c.139.115.22.28.155.46-.05.188-.033.352-.05.475zM27.75 42.85c-.188-.074-.352-.148-.516-.213a.44.44 0 0 1-.27-.328 1.113 1.113 0 0 1-.025-.238c0-.46-.009-.918-.009-1.378a.522.522 0 0 0-.057-.221c-.123-.23-.14-.476 0-.705.066-.107.066-.205.057-.32 0-.066-.032-.098-.098-.098s-.14.008-.205-.009c-.082-.024-.115.017-.14.082-.04.099-.081.205-.122.304-.255.566-.484 1.148-.714 1.722-.172.418-.344.844-.517 1.263-.114.279-.237.55-.262.853-.033.45.05.59.394.828.065.049.098.033.098-.05 0-.213.016-.426-.05-.64-.057-.18.025-.343.173-.45a.42.42 0 0 1 .476-.008c.156.098.246.27.188.443-.057.18-.016.352-.024.524 0 .132.04.173.172.164.107 0 .205-.024.312-.024.303-.025.606-.058.893-.14.164-.04.164-.04.14-.221a19.322 19.322 0 0 1-.107-.992c-.008-.074.017-.107.082-.131.041.008.074 0 .131-.017zm20.706-.123c-.156-.066-.279-.115-.402-.164-.213-.09-.336-.246-.336-.476v-.155c0-.443-.008-.886-.008-1.337a.37.37 0 0 0-.058-.205.684.684 0 0 1 0-.746c.058-.09.058-.189.058-.287 0-.066-.033-.09-.099-.099-.073 0-.147 0-.22-.016-.067-.016-.091 0-.116.057-.115.28-.246.558-.36.837-.148.352-.288.705-.427 1.058-.238.582-.467 1.164-.713 1.738-.099.238-.123.484-.132.738-.008.304.156.484.402.623.074.041.099.025.099-.057-.017-.205.016-.418-.05-.623-.057-.172.009-.336.156-.443a.408.408 0 0 1 .46-.041c.188.09.278.303.213.525-.033.106-.025.213-.025.328 0 .049.008.09.008.14.008.155.025.171.18.163.386-.008.771-.065 1.149-.14.188-.04.205-.057.172-.253-.041-.312-.074-.624-.131-.927-.025-.115 0-.148.123-.197 0-.008.008-.016.057-.04zm-10.316.066c-.172-.074-.32-.14-.475-.197-.164-.058-.246-.18-.296-.336-.024-.082-.024-.164-.024-.246v-1.337a.529.529 0 0 0-.066-.27.622.622 0 0 1-.074-.452c.017-.106.066-.196.107-.295a.366.366 0 0 0 .008-.32c-.04-.082-.14-.032-.213-.049h-.016c-.14-.008-.14-.008-.19.115-.196.476-.393.96-.59 1.435-.303.746-.615 1.492-.918 2.239-.107.262-.14.533-.082.812.041.205.279.426.484.467-.008-.221.033-.443-.041-.664a.385.385 0 0 1 .074-.402.43.43 0 0 1 .524-.115c.18.082.287.287.23.484-.04.164-.04.32-.04.484s.032.197.196.188a7.11 7.11 0 0 0 1.255-.172c.073-.016.09-.05.065-.123-.024-.082-.024-.164-.033-.246-.024-.172-.04-.352-.073-.525-.025-.106-.025-.213-.033-.328-.008-.082.033-.115.106-.123.033-.008.058-.008.115-.024zm-18.04.262c.073.099.032.189.032.27-.008.075 0 .148.09.157.124.016.255.032.361-.066.05-.05.107-.066.173-.033.09.05.18.033.27.008a2.928 2.928 0 0 0 1.033-.492c.509-.377.845-.869 1.05-1.468.14-.418.172-.844.115-1.27-.107-.804-.476-1.468-1.124-1.96a5.392 5.392 0 0 0-.27-.19c-.033-.024-.099-.056-.123.01-.05.147-.164.139-.279.147-.148 0-.156-.008-.197-.148-.024-.082-.05-.164-.082-.238-.024-.065-.14-.114-.213-.106-.066.016-.057.082-.074.123a.871.871 0 0 0-.033.156c-.016.106-.016.106.09.139.255.074.509.164.73.312.468.303.804.713 1.009 1.23.14.352.18.721.156 1.107-.05.615-.304 1.123-.722 1.566a2.368 2.368 0 0 1-1.213.68c-.246.066-.5.074-.78.066zm34.711-2.82c-.016.442.115.901.32 1.278a2.562 2.562 0 0 0 1.517 1.239c.172.057.336.09.5-.041.107-.082.18-.074.255.032.098.148.23.115.36.09.058-.008.074-.04.066-.098-.025-.098-.057-.188-.066-.287-.008-.074-.04-.082-.106-.074a1.784 1.784 0 0 1-.468 0c-.803-.114-1.385-.524-1.713-1.279-.361-.82-.156-1.78.508-2.402.189-.18.41-.304.648-.41.057-.025.115-.041.098-.115l-.074-.304c-.008-.04-.032-.065-.082-.057a.281.281 0 0 0-.254.197 1.845 1.845 0 0 1-.065.197c-.017.049-.05.082-.099.09-.09.008-.188.033-.262-.017-.082-.049-.123-.032-.189.025-.582.508-.877 1.156-.894 1.935zm-3.173-3.773c.943-.025 1.746.016 2.542-.025.369-.016.73-.008 1.099-.008H56c.107 0 .222.017.328.025.074.008.107-.025.107-.099v-.254c0-.106-.008-.106-.123-.106-.492 0-.984.008-1.476.008-1.452.008-2.895-.008-4.346.024-.279.009-.566 0-.845 0-.311 0-.32.009-.27.32.016.082.049.123.13.123h.14c.714-.008 1.427-.008 1.993-.008zm-1.804 6.74a.495.495 0 0 0 .049-.22V41.16c0-.107-.016-.131-.115-.156-.27-.05-.533-.09-.803 0-.156.05-.164.041-.164.213v1.739c0 .024-.009.065.032.074.132-.304.328-.435.583-.386.246.05.393.23.418.558zm-11.382-.13c.147-.296.311-.394.557-.378.296.025.394.238.46.509.04-.09.04-.172.04-.246 0-.222-.008-.443-.008-.656v-1.083c0-.123-.016-.14-.123-.164-.27-.057-.533-.082-.803 0-.148.041-.148.041-.148.189v1.017c0 .147.017.303.008.45-.008.115-.024.239.017.362zm-9.381.213c.04-.074.04-.148.04-.222v-.787c0-.336-.008-.672-.008-1 0-.074-.008-.132-.098-.156a1.684 1.684 0 0 0-.902 0c-.05.016-.09.04-.082.098.025.131-.008.263 0 .394.025.27.008.533.016.803v.788c.123-.32.32-.476.558-.443.287.024.435.197.476.525zm-8.996-3.617c-.008.066.033.09.05.132.04.098.007.221-.083.27-.082.05-.205.017-.27-.065-.017-.017-.025-.05-.042-.066-.04-.066-.065-.074-.114-.016-.074.073-.115.172-.164.262-.025.041-.05.098-.033.148.024.057.082.008.131.024.008 0 .016.008.033.008.106.025.172.099.172.197 0 .09-.066.18-.164.205-.033.008-.066.008-.09.017-.058.008-.066.049-.05.09.033.065.066.131.107.197.017.032.041.065.082.065.05 0 .041-.049.05-.082.032-.09.098-.131.188-.14.082 0 .156.034.189.116.04.082.016.172-.05.246-.032.032-.081.04-.098.09.238.098.46.106.697.024-.147-.18-.156-.32-.033-.41a.19.19 0 0 1 .148-.032c.123.016.156.114.197.221.164-.115.197-.27.254-.435-.246.009-.344-.057-.344-.221 0-.14.098-.197.32-.205a.711.711 0 0 0-.1-.27c-.056-.083-.081-.083-.147 0-.098.098-.18.114-.27.049s-.115-.164-.058-.28c.017-.032.058-.048.041-.106a.842.842 0 0 0-.55-.033zm-.82.714c.016-.066-.025-.099-.082-.115-.123-.033-.238-.074-.36-.115-.239-.074-.477-.156-.714-.23-.09-.024-.14 0-.123.074.032.115-.017.214-.05.32a.624.624 0 0 0-.024.172c-.017.328.065.632.172.935.008.033.033.066.05.099a.625.625 0 0 1 .139.262c.098.238.295.402.475.566.025.024.058.024.082-.008.23-.312.451-.624.68-.935.05-.066.042-.123-.016-.18-.049-.042-.073-.099-.106-.156-.099-.222-.164-.443-.123-.69zm.91 1.213c-.082-.024-.156-.04-.23-.065-.123-.033-.123-.041-.205.074-.205.287-.41.582-.615.869-.057.082-.057.106.041.156.19.114.386.18.6.23.483.114.95.081 1.418-.1.14-.048.27-.114.393-.196.05-.033.058-.066.033-.115-.008-.016-.024-.033-.033-.049a12.752 12.752 0 0 1-.623-.86c-.05-.067-.106-.083-.18-.05-.107.05-.222.082-.345.106.345.156.525.427.468.697-.058.296-.304.492-.615.5-.23.009-.484-.204-.55-.442-.098-.345.017-.55.443-.755zm1.074-.54c-.18.18-.172.188-.032.368.082.107.155.213.237.32l.345.467c.074.099.123.099.205.009.156-.173.303-.361.41-.566.14-.27.23-.558.262-.861a2.086 2.086 0 0 0-.049-.78c-.033-.13-.033-.122-.156-.09-.32.107-.648.214-.967.329-.14.049-.148.049-.148.196 0 .058-.008.115.016.173.337-.246.599-.28.853-.099.172.123.279.435.222.632a.582.582 0 0 1-.533.434c-.345.017-.492-.106-.665-.533zm-1.468-1.42c.107-.065.197-.09.28-.114.122-.033.13-.05.13-.172 0-.345 0-.69-.008-1.034 0-.13-.016-.14-.147-.13-.033 0-.074 0-.107.024a.786.786 0 0 1-.303.074c-.09.008-.173.04-.255.073-.418.164-.73.46-1.008.796-.107.123-.107.295-.213.418-.033.033.008.074.04.082.058.025.107.033.165.057.287.107.598.156.885.263.148.057.197.024.246-.148-.402 0-.656-.14-.73-.426a.58.58 0 0 1 .263-.68.618.618 0 0 1 .705.057c.23.196.254.492.057.86zm34.72-.795c.025.082.083.107.124.14.13.114.205.246.155.426-.049.189-.14.312-.344.328-.066.008-.14.008-.205.057.057.05.123.058.18.082a.429.429 0 0 1 .14.099c.13.188.065.508-.131.615-.05.024-.099.049-.14.074-.05.032-.04.073.017.09.04.016.09.024.139.033a.377.377 0 0 1 .18.09.436.436 0 0 1 .033.607c-.05.065-.123.106-.156.196.09.041.164 0 .238-.008.156-.024.279.017.36.156a.346.346 0 0 1 0 .394c-.04.065-.09.123-.097.205.04.032.073.008.106 0 .082-.017.164-.05.246-.066.205-.04.361.082.377.287.009.066-.008.131-.016.205-.008.066-.05.148.016.189.05.033.115-.033.164-.066a.81.81 0 0 1 .271-.123c.164-.04.262.017.328.164.025.05.05.107.09.148.09.098.099.098.197.008a.45.45 0 0 1 .074-.057c.04-.033.14-.033.131-.099-.008-.082-.107-.065-.164-.082a2.74 2.74 0 0 1-1.656-1.132 2.635 2.635 0 0 1-.476-1.615c.025-.82.353-1.492.968-2.034.04-.032.09-.065.123-.13a.249.249 0 0 1-.09.024c-.14.033-.296.016-.386.164-.172.008-.131.13-.131.238v.049c-.025.238-.164.352-.402.328-.074 0-.164-.008-.262.016zm-33.416.951c.017.074.066.099.09.14.033.057.083.065.148.04.345-.114.689-.212 1.033-.327.132-.041.148-.074.082-.189a2.407 2.407 0 0 0-.475-.64 2.308 2.308 0 0 0-.623-.418 2.133 2.133 0 0 0-.673-.205c-.172-.024-.18-.016-.18.156v1.033c0 .05-.008.115.057.132.09.016.164.082.263.09-.19-.336-.173-.59.04-.804a.564.564 0 0 1 .706-.106c.221.123.352.41.295.656a.544.544 0 0 1-.156.295c-.172.156-.377.197-.607.147zm29.111-7.732c.132.049.238.016.337.024.467.041.934.074 1.41.099.295.016.582.04.877.057.19.008.378 0 .566.033.066.008.115-.025.115-.099v-.483c0-.058-.033-.074-.082-.066-.04 0-.082.008-.123.016-.221.041-.443.066-.664.09-.27.042-.55.066-.82.099-.394.05-.787.098-1.181.156-.14.016-.27.04-.435.074zm-30.8 2.935c.025-.14-.016-.246-.016-.352 0-.32 0-.648-.115-.96-.05-.131-.058-.14-.189-.09a18.3 18.3 0 0 0-.377.148.504.504 0 0 0-.156.098c-.221.246-.443.484-.664.73-.016.024-.05.04-.041.082.566-.18 1.082-.082 1.558.344zm37.443 1c-.271-.008-.28 0-.28.206v.09c.009.147.017.156.165.172.434.025.86.098 1.279.213.328.09.648.205.951.361.074.041.148.082.222.115.049.024.114.082.164.016.065-.082-.025-.115-.066-.164-.016-.024-.05-.04-.074-.057-.475-.37-1.017-.59-1.582-.78a3.133 3.133 0 0 0-.78-.171zm-36.975.214c-.41.024-.82.074-1.222.14-.14.024-.296.057-.419.13-.352.214-.713.41-1.082.607-.05.025-.09.058-.131.082-.05.033-.05.082-.025.123.033.066.074.017.107 0 .262-.123.525-.238.779-.36.582-.271 1.189-.419 1.837-.394.106.008.205 0 .311 0 .066 0 .09-.025.099-.09.016-.214-.008-.238-.222-.238h-.032zm12.464 1.73c-.18 0-.205.025-.238.189a.59.59 0 0 0 .254.598.603.603 0 0 0 .706-.008.636.636 0 0 0 .237-.607c-.024-.172-.237-.196-.27-.36-.008-.05-.074-.066-.123-.082-.189-.074-.246-.05-.304.147-.024.082-.073.123-.155.123h-.107zm12.907-.057c.107.098.148.188.14.303a.315.315 0 0 1-.246.304c-.123.032-.263-.033-.337-.14a.298.298 0 0 1 .025-.377c.033-.041.074-.074.115-.107.04-.032.033-.172-.008-.23-.05-.057-.09-.024-.14 0a.594.594 0 0 0-.295.73c.115.304.435.476.73.386.402-.115.525-.517.385-.853a.338.338 0 0 0-.18-.188c-.033.09-.058.172-.189.172zm-24.502 4.321c.024-.246-.164-.459-.443-.459-.246 0-.468.164-.468.443 0 .254.197.46.46.45.27 0 .459-.13.45-.434zm31.62-7.79c.082-.033.123-.082.164-.123.082-.107.189-.131.32-.131.328.008.656 0 .984 0 .04 0 .082 0 .123-.008.074-.009.14-.107.098-.164-.073-.09-.14-.197-.279-.197-.426 0-.844 0-1.27-.008h-.033c-.066 0-.107.032-.107.106a3.736 3.736 0 0 0 0 .525zm-18.828 3.346c-.049.098-.065.172-.033.27.099.304-.073.804-.45.968a.87.87 0 0 1-.92-.14.836.836 0 0 1-.204-.95c.033-.083.082-.156.131-.23.025-.041.033-.099-.008-.131-.05-.033-.074.016-.098.049a.92.92 0 0 0-.214.844c.115.566.697.861 1.181.747.599-.14.968-.87.615-1.427zm11.53 1.394a.99.99 0 0 0 .984-.976c0-.082.008-.189-.05-.238-.106-.09-.13-.205-.163-.328a.409.409 0 0 0-.205-.246c-.025-.016-.058-.033-.082 0-.033.033-.033.066-.009.099.033.04.082.082.123.123.197.213.296.459.23.746-.09.402-.418.68-.795.689a.85.85 0 0 1-.837-.648.873.873 0 0 1 0-.386c.008-.04.008-.073-.04-.09-.042-.008-.075.008-.091.041l-.025.074c-.098.631.361 1.123.96 1.14zm6.749-5.043a2.386 2.386 0 0 0 0-.345c-.009-.074-.041-.098-.107-.106a.467.467 0 0 0-.426.246.627.627 0 0 0-.05.369c.025.188.123.336.345.328.049 0 .09 0 .14.008.073.008.106-.017.106-.099-.017-.106-.008-.23-.008-.401zm-16.286 7.946c-.025-.017-.041 0-.066.008-.615.32-.967.82-.96 1.533.009.706.353 1.206.993 1.51a.294.294 0 0 0 .09.032c.025.008.05.008.066-.025s-.008-.049-.033-.065c-.09-.05-.172-.09-.262-.14-.583-.336-.861-1.008-.722-1.672.098-.46.36-.796.754-1.034.082-.033.148-.065.14-.147zm9.324 1.46c-.009.081.016.163.032.245.074.533.361.927.812 1.206a.502.502 0 0 0 .099.04c.016.009.032 0 .04-.016a.04.04 0 0 0 0-.057c-.04-.033-.081-.057-.13-.09-.78-.484-.968-1.566-.419-2.272.14-.18.304-.328.5-.443.041-.024.099-.057.074-.106-.033-.058-.082 0-.115.016-.59.328-.86.837-.893 1.476zm-2.436-1.51c.008.099.066.123.123.156.533.304.812.763.82 1.37.008.566-.254 1.017-.73 1.328-.032.025-.106.033-.065.099.033.057.082.016.123-.009.024-.016.04-.024.065-.04.468-.337.714-.796.706-1.378a1.59 1.59 0 0 0-.59-1.263 1.17 1.17 0 0 0-.452-.263zm10.382-.04c0 .09.04.114.09.139.098.04.18.106.262.172.418.344.615.804.574 1.329-.04.574-.344 1-.853 1.279-.032.016-.065.033-.09.065-.008.009-.008.033-.008.041.008.025.025.025.05.017l.057-.025a1.659 1.659 0 0 0 .525-2.591 1.43 1.43 0 0 0-.607-.427zm-20.772.09c0 .106.066.14.115.164.238.13.427.303.566.524a1.55 1.55 0 0 1-.435 2.14c-.04.025-.09.05-.106.1.14.024.23-.05.32-.124.467-.41.647-.918.557-1.533a1.558 1.558 0 0 0-.344-.78c-.172-.22-.394-.368-.673-.491zm-6.92.049c-.09.008-.14.057-.206.09-.902.541-1.05 1.755-.402 2.518.058.065.123.123.19.188.032.033.065.033.097-.008.025-.033-.008-.057-.032-.074a.948.948 0 0 1-.214-.23 1.609 1.609 0 0 1-.196-1.631c.14-.312.369-.558.664-.73.057-.017.09-.041.098-.123zm3.074 1.738c.017-.09-.016-.18-.09-.27a.702.702 0 0 1-.156-.451c0-.115-.057-.148-.155-.099-.058.033-.05.082-.05.14.009.287.09.566.09.853 0 .024.009.049.017.073.016.041.05.066.098.066.18.008.246-.057.246-.23v-.082zm10.152-.91c-.057.008-.09.017-.13.025-.1.033-.116.057-.107.156.032.303.082.606.114.91.009.057.025.09.09.074.058-.017.115-.025.165-.041.032-.009.065-.025.065-.058.017-.14.058-.295-.033-.426-.114-.189-.196-.394-.164-.64zm10.595.804a.387.387 0 0 0-.098-.312.522.522 0 0 1-.115-.287c-.008-.065-.025-.123-.033-.188 0-.025-.008-.05-.024-.058-.05-.016-.099.008-.148.025-.041.008-.057.057-.05.106.042.28.09.566.132.845.033.213.033.172.238.14.065-.009.106-.058.106-.132-.016-.033-.008-.074-.008-.14zm-29.16-9.3v-.122c0-.148 0-.296-.008-.435 0-.05-.025-.09-.082-.098-.058-.009-.107.016-.115.073-.017.058-.033.115-.033.164-.033.28-.008.558 0 .845 0 .057.016.115.025.172.008.05.04.066.09.074.082.008.123-.016.123-.115v-.557zM51.9 34.15v.344c0 .041 0 .082.041.107.107.065.279-.025.279-.156v-.55c0-.172-.025-.196-.189-.221-.106-.016-.13 0-.139.107.008.13.008.246.008.369zm-32.038.869c.303-.377.295-.943 0-1.156v1.156zm5.19 10.316c0-.066 0-.123-.008-.189-.008-.057-.04-.09-.106-.106-.058-.009-.107.008-.132.057-.04.082-.098.164-.13.246-.017.041-.075.098-.034.14s.107.065.173.049c.024-.009.049-.009.073-.017.156-.008.156-.008.156-.164.008.008.008 0 .008-.016zm-5.805-2.403a.148.148 0 0 0-.074-.131c-.05-.033-.09-.017-.131.016-.09.082-.18.156-.27.238-.05.041-.05.09.007.131.033.025.05.05.09.058a.38.38 0 0 1 .19.049c.032.025.056.008.073-.025.04-.114.074-.221.115-.336zM32.343 37.8c.082 0 .106-.017.13-.09l.075-.287c.008-.041.032-.09-.009-.115-.049-.033-.106-.05-.164-.025s-.114.058-.172.066c-.05.008-.065.049-.05.09.026.098.05.189.083.287.008.057.05.082.107.074zm-6.741 7.897c.066-.009.14-.074.238-.082.04 0 .024-.05.016-.082-.024-.09-.057-.18-.074-.271-.016-.066-.049-.098-.123-.09-.065 0-.106.024-.123.09-.024.098-.049.189-.074.287-.024.123 0 .148.14.148zm5.584-.033c.074-.025.156-.058.246-.09.025-.009.025-.033.017-.058-.025-.098-.05-.205-.082-.303-.017-.066-.074-.082-.131-.082-.066 0-.099.033-.107.09-.025.098-.05.189-.074.287-.025.123 0 .156.131.156zm-13.243-6.159c.065 0 .098-.024.131-.073.033-.05.016-.09-.016-.123-.082-.09-.173-.18-.255-.271-.032-.041-.065-.033-.106 0-.107.09-.066.221-.09.336 0 .017.024.033.04.041.099.033.197.058.296.09zm-.664 1.419c-.009.131.082.205.106.303.008.033.05.033.082.025.082-.025.172-.05.254-.082.058-.016.099-.05.107-.115 0-.082-.057-.106-.115-.123l-.32-.074c-.098-.024-.114-.008-.114.066zm2.5 2.69c.165.008.165.008.198-.148.016-.074.016-.147.032-.213.009-.057-.032-.082-.073-.107-.05-.024-.09-.024-.124.017-.082.098-.164.205-.246.303-.024.033-.024.066.017.09.05.058.131.066.197.058zm-1.426-.771c.09-.107.164-.213.23-.328.024-.05.016-.09-.017-.131-.033-.041-.074-.058-.123-.033-.123.05-.238.106-.36.156-.042.016-.05.049-.025.09s.049.09.09.106c.082.033.14.082.205.14zm-.574-.705c.115-.082.213-.156.311-.222.05-.033.058-.082.033-.14s-.057-.081-.123-.073c-.106.016-.213.025-.328.041-.115.016-.123.041-.09.14a.12.12 0 0 0 .05.073c.065.041.098.099.147.18zm24.683-4.92c-.041.008-.099.065-.18.065-.058 0-.075.033-.058.082l.074.27c.016.058.049.1.123.1s.115-.034.13-.107c.026-.099.05-.19.067-.287.016-.107 0-.132-.156-.123zm-22.625.467c0-.09-.025-.115-.131-.09-.025.008-.05.016-.074.033-.04.032-.082.065-.131.073-.066.017-.074.066-.05.123.042.082.083.156.115.238.025.05.05.09.123.074.066-.016.115-.041.123-.123 0-.098.009-.205.025-.328zm12.243 7.97c.074-.008.156-.065.246-.073.033 0 .033-.041.025-.074l-.074-.27c-.016-.066-.057-.099-.123-.099s-.107.025-.123.09c-.025.099-.057.197-.074.304-.024.098.008.123.123.123zm25.831-3.148c.033.114.074.246.107.377.016.05.04.05.082.033.123-.041.155-.173.262-.238-.016-.09-.098-.115-.148-.172-.032-.041-.073-.074-.106-.115-.041-.041-.082-.025-.131-.008-.041.024-.074.057-.066.123zm-22.108 3.132c.074 0 .131-.057.205-.065.066-.009.09-.041.074-.107-.025-.082-.041-.172-.066-.254-.016-.066-.049-.099-.123-.099-.065 0-.106.033-.123.099-.024.098-.057.205-.074.303-.016.082.009.115.107.123zm-9.684-8.102c.008-.09-.082-.14-.18-.098-.05.025-.1.057-.157.066-.057.008-.065.04-.057.09.025.098.057.188.082.287.016.057.05.09.115.09s.106-.041.123-.098c.033-.132.049-.238.074-.337zm18.344-.196c.008-.09-.058-.148-.14-.132-.082.025-.147.074-.23.082-.032.009-.032.05-.024.082.033.099.057.205.09.304.017.049.058.065.115.065.05 0 .09-.008.107-.065a2.89 2.89 0 0 1 .082-.336zm-7.725 8.298c.074-.024.164-.049.246-.082.025-.008.025-.04.016-.065-.024-.099-.049-.197-.082-.304-.016-.057-.065-.074-.123-.074-.057 0-.098.025-.106.082-.025.099-.05.197-.074.304-.025.098.008.14.123.14zm12.12-7.798c.066 0 .098-.025.115-.082.024-.099.049-.189.074-.287.024-.099-.041-.156-.14-.14-.262.041-.262.05-.205.312l.025.107c.008.065.057.09.13.09zm-21.944-.443c-.074.025-.164.057-.254.09-.017.008-.025.033-.017.058.025.106.05.213.09.311.025.058.074.066.132.066.057 0 .082-.033.098-.082l.074-.32c.025-.09 0-.115-.123-.123zm2.886.05c.009-.091-.065-.14-.172-.1-.065.025-.123.058-.188.066-.041 0-.05.033-.041.066.032.107.065.205.098.312.016.065.066.073.123.065.057-.008.098-.016.115-.082a4.64 4.64 0 0 1 .065-.328zm-6.453.016c-.066.024-.164.049-.23.106-.057.05.008.123.025.189.016.057.033.115.049.164.016.057.074.065.123.065.057 0 .09-.032.098-.082l.074-.32c.008-.106-.008-.122-.14-.122zm15.466-.222c-.066.008-.148.066-.238.09-.025.009-.025.041-.025.066.025.098.058.197.082.303.017.066.066.066.123.074.058 0 .082-.024.099-.074.032-.106.065-.221.082-.328.024-.106 0-.13-.123-.13zm-.878 0c-.09-.008-.14.058-.221.066-.066.008-.09.049-.066.106.025.082.041.173.066.255.016.065.049.098.123.09.074-.008.115-.033.13-.107.017-.098.042-.188.067-.287.016-.098-.009-.123-.099-.123zm-1.205.172.074.263c.016.065.057.098.123.098.073 0 .106-.04.123-.098.024-.09.04-.18.065-.28.008-.04.041-.09 0-.114a.148.148 0 0 0-.164-.016.496.496 0 0 1-.172.065c-.041-.008-.058.033-.05.082zm8.438.32c.065.008.106-.024.123-.09.024-.098.057-.189.074-.287.024-.123-.033-.172-.156-.14-.05.017-.099.042-.148.058-.065.016-.082.066-.065.123.016.09.04.172.057.262.008.058.05.082.115.074zm14.071 3.74c-.09 0-.147.114-.098.18.066.082.14.156.213.23.099.098.164.09.214-.033.024-.066.016-.14.049-.214.008-.016 0-.04-.025-.049a1.963 1.963 0 0 0-.353-.115zm-38.606-3.978c-.074.025-.156.058-.246.09-.009 0-.017.025-.017.042.033.123.05.246.115.352.025.05.074.05.123.041.05 0 .074-.033.082-.082.025-.106.057-.213.074-.32.024-.09-.008-.123-.131-.123zm9.955-.18a.607.607 0 0 0-.255.123c-.065.057.017.148.033.221.008.033.025.066.033.107.025.066.074.082.131.082s.099-.033.107-.09c.024-.107.05-.213.065-.32.025-.107.009-.123-.114-.123zm16.22.098c.016.082.04.173.057.27.017.083.066.116.14.124.073.008.098-.05.114-.107.025-.098.05-.188.082-.287.033-.106-.032-.172-.139-.14-.066.026-.131.058-.205.067-.04 0-.05.024-.05.073zm-.558 8.102c-.033-.123-.065-.238-.098-.352-.017-.066-.058-.09-.131-.09-.074 0-.099.04-.115.098-.025.082-.041.172-.066.254-.024.123.008.164.131.156a.152.152 0 0 0 .058-.017.588.588 0 0 1 .221-.049zm3.321-8.011.074.27c.017.074.066.099.14.099s.09-.058.106-.115c.025-.099.041-.197.074-.287.025-.066-.008-.099-.066-.115-.04-.008-.303.057-.32.082 0 .016 0 .04-.008.066zM28.85 43.506c.148-.172.14-.402-.016-.55a.396.396 0 0 0-.55 0c-.155.157-.18.337-.04.493-.042-.172-.009-.32.139-.427a.335.335 0 0 1 .369.009c.156.123.164.278.098.475zm10.349 0c.189-.123.197-.418.066-.574a.424.424 0 0 0-.542-.065c-.188.13-.221.344-.065.582-.066-.23-.025-.394.164-.5a.328.328 0 0 1 .36.057c.156.156.132.32.017.5zM17.59 40.292c.05 0 .107 0 .156-.009.057 0 .074-.04.09-.09.017-.049.008-.09-.04-.123a2.553 2.553 0 0 0-.329-.18c-.049-.025-.082-.008-.106.049-.041.066-.017.131 0 .197.024.156.024.156.18.164.016-.008.033-.008.05-.008zm41.092 2.18c-.033-.114-.066-.237-.107-.36-.008-.04-.049-.04-.074-.025-.082.05-.172.099-.262.14-.033.016-.04.05-.016.074.09.098.172.188.262.278.05.05.098.009.14-.016.032-.016.065-.033.057-.09zm-22.6-5.214c-.066.024-.18.032-.246.098-.066.057.016.156.024.238a.4.4 0 0 0 .033.09c.025.066.058.107.14.098.073-.008.098-.04.114-.106.025-.099.05-.205.066-.304.016-.098-.008-.123-.131-.114zm22.485.672c-.033 0-.057.008-.057.033-.041.115-.074.23-.107.344-.016.058.033.082.074.107.04.024.082.024.115-.008.09-.082.18-.173.27-.255.041-.04.033-.065-.008-.106-.082-.09-.213-.033-.287-.115zm1.214 2.845c0-.008 0-.008 0 0-.05-.008-.107-.008-.156-.008-.057 0-.09.033-.115.09-.016.058.008.09.05.115.098.066.204.123.303.189.057.033.082 0 .106-.05.033-.065.009-.13.017-.196.008-.14.008-.14-.131-.148-.017.008-.041.008-.074.008zm-31.94-3.394c-.074.008-.156.057-.238.09-.033.008-.025.04-.025.065.025.099.058.189.082.287.017.058.066.074.123.074.066 0 .099-.033.115-.09l.074-.32c.008-.082-.017-.106-.131-.106zm19.18 7.683c-.074 0-.123.033-.14.115-.016.09-.04.18-.057.27-.016.099.05.156.148.132.074-.025.14-.066.213-.082.041-.008.033-.05.025-.082a3.768 3.768 0 0 0-.082-.287c-.009-.05-.05-.074-.107-.066zm-3.624-7.847c-.066.024-.173.04-.238.098-.05.04.008.123.024.189.009.049.025.098.041.147.017.058.05.082.115.09.066 0 .099-.024.115-.082.025-.098.057-.196.082-.303.025-.115 0-.14-.14-.14zm7.363.164c-.073.024-.164.049-.246.082-.024.008-.024.032-.016.057.025.098.041.205.074.303.024.058.065.074.123.074.065 0 .098-.033.106-.09.025-.098.058-.197.082-.303.017-.09-.008-.115-.123-.123zm2.362.352.066.238c.016.057.065.082.123.074.057 0 .09-.033.106-.082.033-.099.066-.197.09-.304.025-.114-.04-.172-.155-.13-.058.016-.099.057-.156.065-.066.016-.074.057-.074.14zm-13.473.008c.082 0 .115-.016.131-.09l.074-.27c.025-.123-.041-.18-.164-.148-.246.082-.246.082-.172.336l.024.09c.017.066.058.09.107.082zm-21.395.533c-.008 0-.008 0-.016.009-.123.057-.172.172-.205.278-.033.082.09.099.14.14.032.033.073.057.114.082.041.024.09.033.131 0 .041-.041.082-.082.058-.148-.05-.106-.099-.213-.156-.32-.016-.024-.033-.04-.066-.04zm16.63-.926c.009.13.058.238.09.352.017.058.066.074.124.074.049 0 .09-.024.106-.074l.074-.27c.017-.05.025-.107-.024-.148-.05-.033-.107-.033-.164 0-.058.041-.123.05-.205.066zm24.659 2.115c.123-.008.221-.016.32-.024.065-.008.098-.033.074-.099-.025-.098-.107-.164-.148-.254-.016-.033-.057-.016-.082 0-.074.041-.14.09-.213.131-.066.041-.107.082-.082.164.024.082.09.082.13.082zm-13.4-2.222c-.049.05-.163.041-.229.107-.05.049 0 .13.016.197.009.049.025.09.033.139.017.074.074.082.131.082.058.008.09-.025.099-.074.033-.098.057-.205.082-.303.04-.123.016-.156-.131-.148zm3.494 6.142c.14-.188.115-.426-.057-.558a.424.424 0 0 0-.558.042c-.14.164-.148.352-.025.475-.04-.221 0-.344.156-.434a.32.32 0 0 1 .377.024c.132.115.164.263.107.451zm-28.102-5.88c-.066.025-.148.05-.23.083-.025.008-.033.04-.033.065.017.107.041.213.09.312.033.057.082.049.14.049.049 0 .074-.033.082-.082l.074-.32c.008-.074-.025-.106-.123-.106zM41.28 37.3c.04.13.065.237.098.352.017.066.058.09.131.09.066 0 .09-.032.107-.09.016-.082.05-.164.066-.238.016-.049.04-.106-.017-.147-.049-.033-.106-.05-.164-.017a.74.74 0 0 1-.221.05zm-18.902.697c.066 0 .107-.033.123-.099.025-.098.041-.205.066-.303.016-.066-.017-.09-.074-.107-.123-.024-.197.074-.303.09-.017 0-.017.033-.009.058.025.098.058.188.082.287.009.057.058.074.115.074zm9.25-.583c.008-.09-.008-.106-.09-.106-.107-.008-.205.049-.287.106-.041.033.016.123.033.189.016.05.033.098.04.148.017.057.05.09.116.082.057 0 .098-.025.114-.082.033-.115.066-.222.074-.337zm-7.233.099c.017-.058-.024-.074-.09-.074-.098 0-.172.066-.27.082-.033.008-.041.05-.033.082.024.098.057.189.09.287.016.057.066.074.123.074s.082-.041.098-.09c.041-.115.066-.23.082-.361zm23.519.295c.057 0 .09-.016.106-.074.033-.106.074-.213.107-.328.017-.057-.008-.082-.066-.106-.082-.033-.139.016-.205.04-.04.017-.106-.016-.13.033-.025.05.007.099.016.148.008.066.032.131.049.197.024.074.065.09.123.09zm11.702.82c-.008-.016-.017-.041-.033-.057-.057-.082-.164-.107-.238-.18-.025-.025-.057.007-.074.032l-.172.221c-.04.05-.033.09 0 .14.033.049.082.065.14.049.114-.041.22-.09.336-.14a.068.068 0 0 0 .04-.065zm-2.362 4.198a.132.132 0 0 0-.131.156c.024.115.065.222.098.328.017.05.041.058.099.041.114-.04.147-.164.237-.221.009-.008.009-.033 0-.041a1.368 1.368 0 0 0-.27-.263h-.033zm1.468-.746c.024.09.057.222.098.345.017.04.05.049.09.032a.465.465 0 0 0 .23-.22c.041-.075-.074-.116-.123-.181-.025-.033-.066-.066-.098-.099-.033-.04-.074-.049-.123-.024-.05.032-.082.057-.074.147zM33.99 37.422a3.1 3.1 0 0 0 .082.295c.016.049.065.065.115.065.057 0 .098-.024.114-.082.025-.114.058-.221.082-.336.009-.04 0-.065-.04-.082-.058-.016-.296.041-.329.09-.016.009-.016.033-.024.05zm-14.933.803c-.008-.057-.025-.123-.033-.18-.016-.074.008-.18-.074-.205-.073-.025-.147.057-.213.115a.45.45 0 0 1-.074.057c-.024.025-.032.057-.016.082.057.082.123.172.197.238.04.04.09.04.147.008.05-.016.066-.057.066-.115zm37.984-.582a1.028 1.028 0 0 1-.254.082c-.025.008-.025.04-.017.066.025.09.05.18.066.27.016.058.049.09.115.09.057 0 .098-.016.114-.082.025-.098.058-.188.09-.287.042-.098.009-.14-.114-.14zm-5.371-.041c.008-.098-.05-.14-.148-.123-.254.05-.27.074-.197.328.008.033.025.066.033.107.016.057.05.073.107.073s.106-.016.123-.073c.024-.107.057-.214.082-.312zm-22.789-.123c.008-.09-.082-.148-.18-.107-.05.025-.099.058-.156.066-.058.008-.066.04-.058.09.017.099.066.189.09.287.017.041.042.074.09.074.058 0 .107-.008.124-.074.033-.115.065-.23.09-.336zm27.25.14c-.074.024-.156.057-.246.09-.017.008-.025.032-.025.057.025.098.041.205.074.303.016.066.082.066.14.074.057.008.073-.04.09-.09.032-.107.057-.213.081-.312.025-.098 0-.123-.114-.123zm1.508.262v.106c0 .066 0 .132.074.148.074.025.131-.016.172-.082l.123-.197c.074-.123.041-.18-.098-.18-.025 0-.05.008-.074.008-.188.016-.188.016-.197.197zm-5.264.14c.082 0 .115-.017.131-.091.033-.107.057-.221.082-.336.016-.058-.008-.074-.057-.09-.066-.017-.123.016-.18.04-.05.025-.116-.008-.14.042-.025.057.008.114.016.164.008.057.033.106.041.164.017.082.05.114.107.106zm7.708 2.213c-.024-.082-.024-.197-.082-.262-.057-.066-.156.016-.23.033a.615.615 0 0 0-.13.04c-.05.017-.074.058-.074.107 0 .058.024.09.082.099.106.024.22.057.336.082.065.016.098-.009.098-.099zm-4.879-2.648c-.066.024-.148.049-.23.082-.024.008-.032.04-.024.065.024.099.057.197.09.295.016.05.074.058.115.058.049 0 .074-.025.09-.074.033-.098.057-.197.09-.303.033-.099.008-.115-.131-.123zm-2.755 7.962a.676.676 0 0 0 .254-.107c.05-.04-.008-.123-.025-.188a.615.615 0 0 0-.04-.131c-.017-.058-.066-.082-.124-.082-.065 0-.098.032-.115.09-.024.098-.049.188-.073.287-.017.098.008.123.123.131zm-27.184-8.012c.008-.065-.025-.106-.107-.106-.098 0-.172.065-.254.09-.025.008-.025.04-.017.074l.074.27c.017.058.066.074.123.074.058 0 .099-.024.115-.082.025-.106.041-.213.066-.32zm26.528 7.856a2.454 2.454 0 0 1-.066-.262c-.016-.066-.066-.09-.131-.09-.058 0-.099.024-.107.09a4.009 4.009 0 0 1-.065.303c-.025.082.016.107.082.115.106.016.18-.074.278-.09.009 0 .009-.033.009-.066zm-11.145-8.16c-.049.026-.114.05-.18.067s-.09.049-.074.114c.025.082.041.164.066.238.016.066.057.099.123.09.074 0 .098-.04.115-.106.024-.09.049-.18.065-.27.033-.091-.008-.132-.115-.132zm-7.298.042c-.082 0-.14.057-.221.066-.058.008-.066.04-.058.09.025.082.05.172.066.254.016.074.057.09.123.09s.107-.024.123-.09c.025-.098.05-.189.066-.287.024-.098 0-.123-.099-.123zm20.944.287c-.058.025-.148.057-.238.09-.016.008-.025.033-.016.058.024.098.04.188.073.287.017.057.058.082.115.082s.082-.041.099-.082c.04-.107.065-.222.09-.328.016-.074-.025-.099-.123-.107zm-34.17.46h.122c.074 0 .09-.042.066-.107s-.041-.132-.058-.197c-.032-.107-.057-.123-.155-.123-.099.008-.14.04-.156.14-.008.04-.008.081-.008.122.008.189.008.189.188.164zm-.42 3.41c-.007-.008-.007-.024-.016-.032-.008-.009-.032-.009-.04 0-.033.024-.058.057-.083.09-.196.279-.401.566-.598.844-.017.025-.033.041-.041.066-.008.016 0 .041.016.057.025.017.041 0 .058-.008.016-.016.024-.033.04-.049.214-.295.419-.582.632-.877a.15.15 0 0 0 .033-.09zm-2.131-1h-.09c-.074 0-.123.016-.132.098-.016.09.017.173.082.197.09.033.189.05.287.058.041.008.074-.017.066-.066-.008-.074-.008-.148-.016-.213-.009-.05-.041-.074-.082-.074h-.115zm14.014 3.165c0-.106-.106-.213-.213-.205-.107.009-.205.099-.205.205 0 .115.09.205.205.214.131-.009.213-.09.213-.214zm-13.776-6.215c-.009.008-.017.016-.017.024.082.123.156.238.238.36.016.026.041.05.074.05.123-.008.246-.156.23-.27-.009-.041-.025-.066-.066-.074a1.69 1.69 0 0 1-.46-.09zm23.97 5.961c-.124-.008-.214.074-.222.189s.073.197.188.213c.123.008.222-.066.23-.18.008-.123-.074-.214-.197-.222zm-5.626.033c-.123 0-.214.082-.214.197 0 .106.107.205.222.205a.19.19 0 0 0 .197-.197c0-.123-.082-.205-.205-.205zm13.17-.37c-.115 0-.214.1-.214.206 0 .107.099.197.205.205.107.008.213-.098.213-.213a.213.213 0 0 0-.205-.197zm-23.585.83c.115 0 .197-.083.189-.206 0-.123-.082-.205-.189-.205-.123 0-.213.082-.213.205a.21.21 0 0 0 .213.205zm-4.748-2.486c-.024.009-.04.025-.04.041 0 .041.032.066.049.099.213.287.426.582.64.87.016.024.032.04.048.056.017.009.033.017.041 0 .009-.008.025-.024.025-.04 0-.033-.025-.058-.041-.083-.041-.057-.09-.114-.131-.172-.172-.238-.345-.475-.517-.705-.008-.033-.033-.066-.074-.066zm25.503 1.969c-.106 0-.205.09-.205.196 0 .099.115.214.213.214.107 0 .197-.099.197-.205a.203.203 0 0 0-.205-.205zm-7.339-.058a.194.194 0 0 0-.213-.197c-.107 0-.197.099-.197.205 0 .099.107.197.221.197a.2.2 0 0 0 .189-.205zm-10.398.05a.213.213 0 0 0-.197-.206c-.115 0-.205.09-.205.205s.082.197.197.197c.115.017.205-.074.205-.197zm31.046-3.732-.246.025c-.073.008-.098.049-.09.115a.683.683 0 0 0 .033.123c.016.057.057.073.107.057l.27-.074c.074-.016.107-.057.082-.14-.016-.09-.04-.106-.156-.106zm-41.682.156c-.04 0-.065.008-.065.041 0 .025.024.033.04.041.009.008.017.008.033.008.361.115.714.222 1.075.336.016.009.04.009.057.017.025 0 .041-.008.05-.025.007-.024 0-.04-.025-.049-.041-.016-.074-.033-.115-.05-.328-.098-.656-.204-.984-.303-.025-.008-.05-.008-.066-.016zm34.212 3.764c0-.107-.099-.205-.213-.205-.099 0-.189.09-.197.189-.008.114.082.205.205.205s.205-.074.205-.19zm-31.03-3.346c.033.033.057.017.082.008.36-.114.722-.221 1.074-.336a.257.257 0 0 0 .082-.04c.008-.009.017-.034.008-.042-.008-.008-.024-.024-.032-.024a.152.152 0 0 0-.058.016c-.213.066-.426.131-.648.197-.13.04-.262.082-.385.131-.05.016-.115.025-.123.09zm38.353 1.304c.065 0 .098-.033.123-.082.024-.057 0-.09-.05-.115-.09-.057-.18-.106-.27-.164-.041-.024-.082-.024-.107.025-.024.065-.098.123-.074.213 0 .008.017.016.025.016.123.033.238.066.353.107zm-39.952 1.607c.016-.049 0-.065-.025-.073-.082-.025-.172-.074-.254-.058-.082.008-.074.123-.107.197l-.024.074c-.008.04-.025.09.024.106.05.025.107.074.156.033.09-.082.164-.18.23-.279zm25.355-4.698c.099 0 .189-.09.189-.19 0-.09-.099-.188-.189-.188-.115 0-.197.082-.188.205-.009.099.082.173.188.173zm-24.773.418v.5c0 .041.008.082.008.123 0 .025.017.041.041.033.009 0 .025-.017.025-.033.008-.033.008-.074.008-.107v-1.008c0-.033 0-.066-.008-.09 0-.017-.008-.041-.033-.05-.033-.008-.04.025-.05.05-.007.032-.007.065-.007.09.016.172.016.328.016.492zm-2.64 2.82c.04-.008.082-.016.13-.016.23-.016.222-.008.124-.238-.025-.057-.066-.073-.123-.057-.058.016-.115.041-.18.057-.066.017-.115.05-.099.132.016.09.05.123.148.123zm12.44 3.018v.033c.204.279.491.443.82.541.008 0 .016.009.032.009.033 0 .05-.009.058-.041.008-.025-.009-.041-.025-.05s-.04-.016-.057-.024c-.27-.082-.5-.23-.69-.443-.048-.033-.09-.057-.139-.025zm29.061-6.281c-.008-.066-.049-.098-.098-.123-.041-.025-.066 0-.099.025-.049.049-.106.098-.155.147-.14.131-.14.131.008.246.057.05.09.05.14-.016.048-.074.106-.14.163-.213.008-.009.025-.041.041-.066zM19.812 33.55l-.024-.18c0-.017-.017-.041-.033-.05-.057-.04-.295.009-.303.082-.017.074-.058.14-.066.222 0 .04.016.065.057.04a.432.432 0 0 1 .304-.032c.04 0 .074-.025.065-.082zm-2.205 5.994c-.058-.016-.09.009-.107.066s-.057.123.016.164c.082.05.173.09.263.14.033.016.057 0 .074-.033.09-.18.073-.238-.132-.304a.47.47 0 0 0-.114-.033zm.762 2.65c0-.01-.008-.017-.008-.026-.066-.155-.148-.18-.287-.09-.033.025-.066.05-.107.066-.049.033-.09.074-.057.14.033.073.09.098.164.073.09-.025.172-.074.254-.123.025 0 .041-.016.041-.04zm40.001-4.281c.008-.058 0-.082-.04-.099-.05-.016-.1-.04-.14.008-.074.09-.123.205-.18.304-.017.033 0 .057.032.074.05.016.099.04.148.049.04.008.074-.008.09-.041a5.83 5.83 0 0 0 .09-.295zM27.381 40.11a.175.175 0 0 0-.172-.18c-.106-.008-.188.074-.188.18s.065.18.172.18c.106 0 .18-.073.188-.18zm2.337-.016c0 .098.082.18.173.18.106 0 .188-.074.188-.18 0-.115-.074-.18-.188-.18a.186.186 0 0 0-.173.18zm-11.562-.919c.066-.024.082-.09.123-.147.033-.041.025-.074-.016-.107-.074-.049-.148-.098-.214-.147-.032-.025-.065-.041-.098-.009-.041.041-.09.09-.066.148.058.098.14.18.23.246.008.008.025.008.041.016zm22.321.87c0-.099-.074-.173-.18-.18-.107 0-.189.073-.189.18s.066.172.18.172c.115.008.19-.058.19-.172zM37.6 39.89c-.098 0-.189.074-.189.164 0 .09.082.188.173.188.098.009.188-.082.196-.18 0-.098-.065-.172-.18-.172zM57.5 37.889v-.107c0-.057-.008-.106-.082-.114-.066-.009-.098.032-.115.082l-.049.196c-.057.205-.041.214.156.173.057-.009.082-.041.082-.09.008-.05.008-.1.008-.14zm-9.356 2.107c0-.09-.083-.155-.18-.155s-.206.098-.198.18c.008.082.107.172.197.164.098 0 .18-.082.18-.189zm2.525-.172c-.098 0-.18.082-.18.172 0 .09.09.18.18.18.099 0 .18-.081.18-.18 0-.098-.073-.172-.18-.172zm-1.96.418c-.008.033-.016.066.025.082.05.017.057-.032.074-.065.008-.017.008-.033.008-.05.025-.147.057-.295.082-.45.025-.115.04-.23.066-.337.008-.032.008-.065-.033-.082-.05-.016-.058.025-.074.066-.008.016-.008.033-.008.05-.05.262-.099.524-.14.786zm.788 0c.008.025 0 .066.04.074s.05-.033.058-.065c.008-.017.008-.041.016-.058.033-.197.074-.402.107-.598l.025-.197c0-.025-.009-.041-.025-.05-.025-.008-.041.009-.05.025-.007.017-.016.025-.016.041-.057.279-.106.55-.155.828zm-20.132-.713c0-.041.016-.082-.033-.09-.041-.008-.05.024-.057.057-.009.025-.017.05-.017.074-.04.238-.09.467-.131.705-.008.033 0 .074 0 .107 0 .016.008.033.025.033s.032-.009.04-.017c.025-.033.033-.074.042-.115.024-.155.057-.303.082-.459.016-.098.032-.205.049-.295zm-1.41.754v.099c0 .024.016.04.04.04.025 0 .033-.016.041-.04.009-.025.017-.05.017-.074.033-.197.074-.394.106-.582l.025-.156c.008-.041.033-.107-.025-.123-.057-.016-.065.057-.073.098l-.025.173c-.041.188-.074.385-.107.565zm-9.406-2.87c-.033 0-.066.017-.074.05-.008.04.024.049.057.049.099.008.18.049.23.14.024.04.057.065.106.04.115-.05.23-.098.345-.156.024-.008.05-.032.033-.057-.017-.033-.041-.025-.066-.025l-.328.05c-.082.008-.156.008-.221-.05a.1.1 0 0 0-.082-.04zm30.792 2.042c0-.04.016-.098-.033-.106-.057-.009-.041.057-.057.09-.009.008-.009.016-.009.033-.032.23-.073.459-.123.688a.31.31 0 0 0 0 .123c0 .009.017.025.033.033.008 0 .025-.008.033-.024a.063.063 0 0 0 .016-.041c.05-.263.09-.533.14-.796zm-20.575.968c.058-.025.05-.066.058-.107.049-.254.09-.5.139-.754.008-.041.033-.107-.025-.123-.057-.008-.057.057-.065.098-.058.246-.09.5-.131.755-.009.04-.017.082.024.13zm-9.635-2.485c.016.074.033.172.057.27.008.025.017.042.041.042a.313.313 0 0 0 .197-.09c.041-.041 0-.09-.016-.132l-.074-.172c-.025-.05-.058-.074-.115-.05-.05.017-.09.05-.09.132zm19.213 2.304c-.008.066-.016.115.033.115.041 0 .05-.033.057-.065.009-.033.025-.074.025-.107.016-.18.05-.36.09-.541.017-.074.025-.148.033-.213 0-.025 0-.041-.025-.05-.024-.008-.04.009-.049.033l-.024.058-.14.77zm-19.402 2.452c-.033-.057-.082-.082-.14-.115-.04-.024-.081-.024-.106.017-.049.074-.098.147-.156.213-.024.033-.024.066.009.099.032.032.073.073.123.049.098-.066.18-.14.254-.23.008-.008.008-.016.016-.033zm20.813-3.206c-.009-.05.016-.098-.033-.098-.033-.009-.041.032-.058.065-.008.025-.016.05-.016.074l-.123.672c-.008.033-.008.074-.008.107 0 .025.008.041.033.05.032.007.04-.017.057-.042 0-.008.008-.016.008-.033.041-.27.09-.54.14-.795zm-11.177.082-.009-.033c0-.033.009-.082-.04-.082-.042 0-.042.041-.05.074l-.123.697-.024.156c0 .024.008.04.032.049.033.008.05-.016.058-.041.016-.057.016-.115.033-.172.04-.222.082-.435.123-.648zm10.365-.197c-.066.041-.066.099-.074.156-.033.23-.066.451-.123.68-.008.042-.008.083-.008.124 0 .008.016.024.033.032.008 0 .032-.008.032-.024.017-.025.025-.058.033-.09.041-.238.09-.476.131-.714 0-.049.017-.098-.024-.164zm-21.6.156c0-.033-.008-.057-.033-.066-.024-.008-.04 0-.057.017l-.148.238c-.049.082-.098.164-.205.172a.1.1 0 0 0-.09.057c-.016.033-.024.058.008.082.025.017.05 0 .066-.016a.289.289 0 0 1 .262-.107c.025 0 .058.008.066-.024a1.03 1.03 0 0 0 .131-.353zm.18-.55c.042.009.066-.016.083-.04.057-.09.114-.173.164-.263.016-.024.016-.049-.009-.074a.062.062 0 0 0-.073 0c-.066.058-.123.107-.18.164-.066.066-.14.123-.247.107-.049-.008-.09 0-.123.05a.07.07 0 0 0 0 .057c.008.016.025.024.041.016.123-.057.23-.082.345-.016zm32.564.361c-.057.05-.057.115-.074.173-.04.221-.082.45-.115.68-.008.041-.032.107.025.123.057.008.057-.065.066-.106.049-.238.09-.484.13-.722.009-.05.025-.098-.032-.148zm-9.652 5.208c.172.246.394.41.648.516.033.017.074.041.098 0 .025-.049-.024-.074-.057-.09-.008 0-.008-.008-.016-.008a1.306 1.306 0 0 1-.5-.37c-.042-.048-.09-.073-.173-.048zm-1.115-5.167c-.057.033-.057.082-.066.132-.032.172-.065.352-.09.524-.016.09-.033.173-.04.263-.009.024 0 .057.032.057.033.008.05-.016.057-.049 0-.008.009-.016.009-.033l.123-.738c.008-.04.024-.098-.025-.156zM17.779 42.99v.04c0 .033.016.066.049.066.05 0 .033-.04.033-.074a.266.266 0 0 1 .082-.254c.024-.025.04-.057.016-.082-.082-.107-.172-.213-.254-.32a.05.05 0 0 0-.057-.008c-.017.016-.025.033-.017.057.025.066.058.123.09.18.058.14.156.255.058.395zm-.615-2.149-.025-.295c0-.025 0-.058-.033-.066-.032-.008-.04.025-.049.05-.024.09-.049.18-.057.27-.017.09-.041.156-.131.205a.18.18 0 0 0-.082.074c-.017.033-.017.065.016.082.041.024.05-.017.066-.041.049-.09.114-.156.213-.164.074-.008.09-.05.082-.115zm27.463-3.764h.172c.024 0 .057-.008.057-.04 0-.034-.024-.05-.049-.05l-.213-.05c-.123-.024-.238-.057-.295-.18-.009-.024-.033-.04-.058-.049-.024-.016-.057-.016-.074.008-.016.033.009.05.025.058.074.049.156.106.164.196.008.09.057.115.14.107h.13zM18.386 43.08a.18.18 0 0 0-.041.024c-.017.025-.009.05.008.074.049.058.098.123.156.18.065.066.114.132.09.23-.008.033 0 .066.016.09s.041.058.074.041c.041-.016.025-.049.016-.073-.032-.074-.065-.14-.032-.222.04-.14.04-.14-.074-.221a2.051 2.051 0 0 1-.14-.099.381.381 0 0 1-.073-.024zm41.403-2.452h.14c.04 0 .065-.033.073-.066.008-.049-.024-.065-.057-.074l-.32-.073c-.074-.017-.09.024-.098.09s0 .115.082.123c.057-.008.123 0 .18 0zm-42.346 1.205c-.033-.098-.074-.205-.115-.311-.008-.025-.025-.05-.058-.041-.032.008-.032.04-.032.065a.707.707 0 0 0 .016.23c.016.106.016.205-.066.287-.024.024-.04.05-.04.082 0 .024.008.057.04.057.025 0 .041-.016.041-.04a.356.356 0 0 1 .173-.247c.032-.008.04-.033.04-.082zm20.46.427c.057.164.172.23.31.27.026.008.058.017.075-.008.04-.057.024-.123.008-.18-.008-.05-.033-.09-.09-.09-.099 0-.197-.009-.304.008zm-10.382.065c.04.18.18.213.311.263.033.016.058 0 .074-.033.058-.164-.008-.246-.172-.246-.074 0-.14-.017-.213.016zm-9.685-4.24a.255.255 0 0 1 .213.083c.025.024.05.04.082.016.066-.057.14-.115.205-.172.025-.016.025-.041.009-.074-.017-.033-.041-.05-.074-.033-.041.017-.09.033-.131.058-.099.057-.197.098-.304.033-.008-.009-.033-.009-.049-.009-.05.009-.082.025-.082.074 0 .058.05.033.082.033.008-.008.008-.008.05-.008zm30.448 4.15c.033.14.131.197.246.23.057.016.115.04.14-.041.024-.09 0-.214-.066-.214-.107-.008-.222-.04-.32.025zM38.18 37.11c.066 0 .131 0 .205-.008.008 0 .025-.017.033-.033 0-.008-.008-.033-.025-.033a.406.406 0 0 0-.106-.033c-.172-.04-.353-.049-.443-.246 0-.008-.016-.016-.025-.024-.024-.017-.049-.017-.065.008-.017.024.008.04.024.05.082.048.148.114.156.204.017.098.066.115.148.115h.098zm21.37 1.738c-.09.041-.205.09-.32.14-.049.024-.082.049-.04.106.032.05.057.115.13.066.099-.057.197-.131.304-.197.025-.016.033-.04.025-.065-.017-.033-.033-.058-.099-.05zm-40.132-1.68c.164.016.246.114.295.245.008.033.05.033.082.025l.279-.05c.025-.007.057-.007.057-.04 0-.041-.032-.041-.065-.05-.074-.024-.148-.024-.213-.024-.107 0-.206-.025-.263-.131-.04-.05-.098-.05-.172.024zm29.349-.329c.123.082.221.164.221.312 0 .033.033.05.066.05h.246c.024 0 .049-.017.057-.042.008-.033-.008-.05-.033-.057-.04-.017-.073-.033-.114-.041-.123-.025-.238-.066-.296-.197-.032-.05-.073-.066-.147-.025zm1.246 5.494c0 .148.017.164.148.099.04-.017.082-.033.106-.066.041-.04.099-.098.074-.156-.024-.049-.09-.024-.14-.032h-.032c-.148.016-.156.024-.156.155zm-23.543 2.682c.099.016.164.016.222-.016.147-.082.246-.205.352-.32.017-.017.025-.041.008-.058a.05.05 0 0 0-.057-.008l-.057.025a2.468 2.468 0 0 1-.468.377zm19.935-7.897c.05-.008.098-.008.14-.008.024 0 .04-.017.04-.041.009-.025-.008-.041-.024-.05a.544.544 0 0 0-.164-.049c-.107-.024-.213-.057-.254-.18-.009-.033-.033-.057-.066-.057-.025 0-.041 0-.057.016-.017.025 0 .041.016.05.098.048.164.122.172.245 0 .05.033.074.082.074.041-.008.082 0 .115 0zm.492-.336c.123.074.23.131.23.262 0 .09.049.099.123.099h.073c.058-.009.156.04.173-.05.008-.073-.09-.065-.14-.082-.123-.032-.238-.065-.295-.196-.025-.058-.074-.082-.164-.033zm-20.164.156c.13.057.205.147.221.27.008.041.033.066.074.066h.246c.024 0 .049-.016.057-.05 0-.032-.016-.049-.04-.057-.066-.016-.132-.04-.198-.049-.09-.016-.164-.05-.213-.14-.016-.065-.057-.09-.147-.04zm21.074 7.61c0-.033-.024-.033-.049-.033-.033 0-.057.016-.082.04a1.547 1.547 0 0 1-.426.337c-.009.008-.017.008-.025.016-.016.017-.025.041-.008.058a.18.18 0 0 0 .04.024c.017 0 .034 0 .042-.008.188-.098.344-.23.484-.393.016-.017.024-.033.024-.041zm-29.02-6.06c-.009-.017-.017-.033-.033-.05-.05-.065-.107-.13-.156-.196-.025-.033-.058-.058-.107-.025-.04.033-.04.074-.016.115.04.082.082.156.115.238.016.032.032.073.082.049.049-.033.098-.058.114-.131zm29.07-1.682c.106.09.204.164.22.304 0 .04.042.057.083.057.033 0 .074.008.107 0 .057-.008.155.041.172-.049.008-.074-.09-.066-.148-.082-.123-.04-.254-.066-.312-.213-.016-.033-.057-.058-.123-.017zm-19.312.066c.123.066.197.123.23.221.016.05-.009.115.057.132.049.016.106.008.156 0 .04-.008.082-.008.123-.008.024 0 .04-.017.04-.033.009-.025-.008-.041-.024-.058a.428.428 0 0 0-.172-.057c-.107-.008-.189-.041-.238-.148-.016-.065-.066-.082-.172-.049zm11.915-.123c.098.066.188.107.221.205.058.164.066.164.23.14.033 0 .065 0 .09-.009.033 0 .074 0 .074-.04 0-.034-.033-.05-.066-.066-.049-.017-.098-.033-.147-.041-.107-.025-.205-.05-.255-.164-.016-.058-.065-.066-.147-.025zm-3.666.016c.156.058.238.148.246.287.009.041.05.058.082.058h.238c.025 0 .05-.008.05-.05 0-.024-.009-.04-.033-.049a.806.806 0 0 0-.132-.04c-.114-.033-.237-.05-.295-.18-.008-.05-.057-.067-.156-.026zm-11.004.19c.114.056.213.114.237.229.017.082.058.106.123.098.033 0 .066.008.09 0 .058-.016.165.033.165-.057.008-.074-.099-.066-.148-.074-.131-.025-.254-.058-.32-.189-.024-.057-.065-.065-.147-.008zm17.45-.214c.123.065.205.14.213.262 0 .041.033.066.074.066h.246c.024 0 .049-.017.057-.041.008-.033-.016-.05-.04-.058-.042-.016-.091-.024-.132-.04-.115-.033-.238-.05-.287-.18-.025-.042-.074-.042-.131-.01zm-21.928.295c.156.05.222.14.254.254.009.041.033.066.074.066h.254c.025 0 .05-.016.05-.05 0-.032-.025-.048-.05-.057a.871.871 0 0 0-.155-.032c-.107-.025-.214-.05-.271-.165-.008-.049-.057-.065-.156-.016zm24.191.05c.041 0 .082 0 .123-.009.025 0 .041-.008.05-.033.007-.033-.009-.049-.042-.057-.057-.017-.106-.041-.164-.05-.106-.016-.188-.057-.23-.163-.008-.033-.032-.058-.057-.074s-.049-.017-.074 0c-.024.024-.008.05.017.057.098.058.156.131.164.246 0 .041.033.066.074.066a.455.455 0 0 0 .139.016zm-9.594-.312c.13.065.213.147.23.278 0 .025.024.05.048.05.09.016.19.008.28 0 .024 0 .032-.017.04-.041 0-.025-.008-.041-.024-.05-.058-.016-.107-.032-.164-.049-.107-.024-.214-.057-.263-.172-.033-.04-.074-.057-.147-.016zm-8.25.123c.041.065.115.073.148.123.04.049.057.114.082.172.016.04.049.05.09.05.082 0 .156 0 .238-.01.024 0 .04-.007.049-.032a.056.056 0 0 0-.033-.066c-.057-.016-.106-.032-.164-.04-.106-.025-.205-.05-.254-.156-.033-.041-.074-.082-.156-.041zm12.317 5.37c-.057-.032-.123-.024-.18-.024-.148 0-.18.05-.156.197.008.057.04.082.098.066.123-.033.222-.09.238-.238zm-8.668-5.436c.115.05.189.107.222.205.049.148.049.148.197.123.032-.008.073-.008.106-.008s.074 0 .074-.041c.008-.05-.041-.05-.074-.066-.016-.008-.04-.008-.057-.016-.123-.033-.254-.058-.32-.197-.025-.057-.074-.04-.148 0zm-1.878 5.47c-.032 0-.073 0-.106.008-.05.008-.074.033-.082.082 0 .057-.025.123.016.164.05.04.107-.008.156-.025a.179.179 0 0 0 .066-.04c.04-.042.106-.09.082-.157-.009-.049-.082-.024-.132-.032zm29.636.442c.041 0 .074.017.107.041.033.025.065.05.115.041.024 0 .057-.008.057-.04 0-.025-.025-.033-.05-.025-.081.016-.155-.025-.212-.074-.123-.098-.123-.098-.246-.025-.041.025-.082.05-.115.074-.025.017-.041.033-.025.066.008.016.033.033.05.024l.106-.024c.066-.017.14-.033.213-.058zm-26.265 2.534c-.008-.008-.017-.008-.025-.016-.074.057-.156.115-.23.18-.049.041-.04.099-.016.156.017.041.058.058.099.058.065 0 .098-.033.106-.09.025-.09.05-.19.066-.288zm-11.973-7.921c.05-.025.173.016.18-.074.009-.074-.114-.074-.18-.09-.09-.017-.164-.05-.213-.14-.016-.032-.04-.073-.09-.082-.025 0-.041 0-.057.017-.017.024 0 .04.024.05a.3.3 0 0 1 .189.229c.016.082.065.098.147.09zm39.222 4.625c-.13.082-.237.098-.36.04-.033-.016-.066-.016-.082.017-.05.074-.099.148-.14.222-.016.024-.008.049.017.065.016.017.04.008.057 0 .05-.04.107-.082.156-.13.074-.075.147-.132.254-.124.033.008.09.008.098-.09zm-10.348-5.117c.106.082.205.164.205.295 0 .025.016.041.04.041.09.008.173.033.263.025.025 0 .05-.017.057-.041.009-.033-.008-.05-.04-.058-.058-.016-.107-.049-.165-.057-.106-.017-.188-.058-.23-.164-.007-.041-.04-.074-.13-.041zm-12.219 7.7c-.057-.016-.098-.016-.123.016a2.19 2.19 0 0 1-.393.337c-.017.016-.033.032-.017.049.008.016.033.033.058.024.024 0 .049-.008.073-.024.148-.107.287-.23.402-.402zm15.745-7.503c.106.049.172.106.196.197.041.13.041.13.173.13.065 0 .188.042.197-.032.016-.09-.107-.082-.18-.107-.108-.024-.198-.057-.247-.164-.016-.04-.057-.074-.14-.024zm-19.164-.28c.13.066.213.157.237.28.009.024.025.04.058.049a.621.621 0 0 0 .246 0c.024 0 .04-.017.04-.041s-.016-.041-.032-.05c-.057-.016-.107-.04-.164-.049-.098-.016-.18-.049-.221-.147-.025-.066-.074-.09-.164-.041zm16.753 7.71c.14.204.311.335.5.45.025.017.066.025.082-.008.025-.041-.008-.057-.033-.066-.14-.073-.254-.18-.369-.287a.217.217 0 0 0-.18-.09zm-11.054-7.586c.008.23.024.205.205.205h.106c.033 0 .066-.008.074-.041.008-.05-.024-.074-.057-.082a3.833 3.833 0 0 0-.328-.082zm20.509 2.337c-.156.05-.189.082-.164.172.024.09.057.18.082.263.008.024.024.049.057.04.025-.008.025-.032.025-.049v-.426zm-35.319-2.296c.09.057.18.098.221.197.041.115.156.164.271.115.025-.009.033-.025.041-.041.008-.033-.008-.05-.033-.066a.152.152 0 0 0-.057-.017c-.115-.032-.23-.065-.295-.188-.033-.041-.09-.05-.148 0zm8.643.188a.468.468 0 0 0 .107.009c.024 0 .049-.009.065-.033.009-.033-.008-.066-.04-.074a4.365 4.365 0 0 0-.312-.082c-.025-.008-.05.016-.05.05-.008.057.033.13.09.139.05 0 .1-.009.14-.009zm5.248-.23.025.132c.008.033.025.057.057.066.09.008.189.008.28 0 .024 0 .04-.017.04-.041.008-.033-.008-.05-.033-.066-.024-.016-.057-.025-.09-.033-.09-.016-.18-.033-.279-.057zm20.157.837c-.074.18-.074.18.082.287.049.033.098.066.147.09.025.017.058.033.082 0 .017-.024 0-.049-.016-.065-.099-.115-.197-.213-.295-.312zM29.71 37.02c.008.18.008.18.156.188h.123c.041 0 .107.009.107-.057 0-.058-.058-.066-.099-.074a2.96 2.96 0 0 0-.287-.057zm2.756-.066c.008.189.008.189.164.189h.139c.033 0 .082 0 .082-.05 0-.04-.033-.049-.057-.065-.107-.033-.205-.066-.328-.074zm27.389 1.386-.099.123c-.024.025-.033.057-.008.082.05.074.107.14.164.205.025.025.057.033.082.008s.008-.049 0-.074a1.266 1.266 0 0 1-.14-.344zm-1.772-.96c-.024.025-.016.058-.024.074-.025.082.016.123.09.14.074.016.147.04.23.057.024.008.057.008.065-.024.008-.025-.008-.041-.025-.05-.123-.065-.23-.13-.336-.196zm2.337 2.879c-.073.008-.14-.008-.172.04-.05.058-.024.14-.016.214 0 .057.016.123.09.156.04-.14.082-.254.098-.41zm-.14.976c-.171-.05-.171-.05-.22.082-.025.065-.05.123-.066.188-.008.033-.008.066.025.082.032.008.049-.008.065-.033l.197-.32zm-29.668-4.24c.017.082-.008.164.099.18.082.009.164 0 .246 0 .024 0 .049-.016.057-.049s-.016-.049-.04-.057c-.124-.025-.23-.066-.362-.074zm27.717 6.2c-.156-.164-.156-.164-.336-.066-.025.016-.057.033-.082.05-.025.016-.041.04-.033.065.008.04.05.033.082.024.123-.008.23-.073.37-.073zm-35.876-6.06c.025.073 0 .172.098.188a.64.64 0 0 0 .28 0c.024 0 .04-.016.04-.04s-.016-.042-.033-.05a1.345 1.345 0 0 0-.09-.025c-.098-.024-.197-.024-.295-.074zm34.654.36c.115 0 .222.033.328.017.025 0 .041-.008.05-.033.008-.033-.009-.05-.033-.057a.901.901 0 0 0-.361-.09c.008.065.008.114.016.163zm-.738-.008h.123c.025 0 .05-.008.058-.04a.055.055 0 0 0-.033-.05c-.09-.041-.189-.057-.287-.082-.025-.008-.041 0-.05.016-.024.05.017.14.066.148.041.008.082.008.123.008zm-32.981-.344c.008.074-.008.156.074.18.09.025.188.017.278-.016.025-.008.041-.025.033-.05a.035.035 0 0 0-.033-.032c-.106-.033-.221-.074-.352-.082zm4.297 2.985.098-.533c.008-.05.041-.132-.033-.148-.057-.008-.049.082-.065.123-.058.189-.033.369 0 .558zm20.771-.156c.041-.148.058-.287.074-.435.008-.049.016-.098.016-.156 0-.024-.016-.04-.032-.04-.009 0-.033.008-.033.024-.017.033-.025.066-.033.098-.033.173-.074.345.008.509zm-13.284-3.034c.032.073.016.164.114.18.082.008.164 0 .246 0 .025 0 .05-.016.058-.04 0-.034-.025-.05-.05-.058-.106-.033-.22-.074-.368-.082zm20.287.516h.107c.024 0 .057 0 .065-.032.009-.041-.016-.058-.049-.066-.082-.025-.172-.05-.254-.074-.041-.008-.066 0-.074.05 0 .081.017.106.107.114a.4.4 0 0 0 .098.008zm-12.932-.566c.025.19.025.197.18.197.05 0 .09-.008.14-.008.025 0 .058-.008.066-.033.008-.04-.025-.057-.058-.065-.106-.033-.205-.058-.328-.09zm-4.436 3.141c.008-.049.025-.098.033-.147.024-.14.049-.28.065-.419.009-.032.009-.073-.032-.073s-.041.04-.05.065c-.04.189-.098.386-.016.574zM24.29 37.12c.016.073-.008.155.082.171.074.017.156 0 .23 0 .024 0 .049-.016.057-.049s-.017-.05-.041-.057c-.107-.025-.205-.058-.328-.066zm22.239 8.068c.041 0 .107-.008.164-.016.025 0 .05-.025.05-.05 0-.032-.025-.04-.058-.04h-.345c-.024 0-.04.008-.049.032-.008.025.017.05.041.058.058.024.115.016.197.016zm-4.92-8.299c.024.197.024.197.188.197h.09c.033 0 .083 0 .083-.049 0-.04-.033-.05-.066-.057-.09-.033-.189-.058-.295-.09zm12.743.353c.008.18.008.18.148.18h.14c.032 0 .065 0 .073-.032.008-.041-.025-.05-.057-.066-.09-.024-.19-.05-.304-.082zM18.92 43.383a.133.133 0 0 0-.132.115c-.008.066.058.123.132.123.065 0 .123-.057.123-.115-.009-.065-.066-.123-.123-.123zm-.935-5.051c0-.066-.05-.107-.123-.107-.074 0-.115.05-.115.123 0 .074.041.115.115.115.074-.008.123-.057.123-.131zm.557-.673c-.065 0-.123.05-.123.107s.05.123.115.123c.074.008.14-.05.131-.115 0-.057-.057-.115-.123-.115zm11.03-.5c0-.066-.05-.115-.115-.123-.074-.008-.14.05-.131.123 0 .058.057.115.123.115.065-.008.115-.05.123-.115zm2.624-.197c-.082 0-.123.041-.115.115 0 .074.058.123.131.123.066 0 .115-.057.115-.123a.127.127 0 0 0-.131-.115zm11.915-.057c-.066 0-.123.05-.123.115s.05.114.115.123c.074 0 .14-.058.131-.123 0-.066-.057-.115-.123-.115zm6.568.279c0-.066-.049-.115-.123-.115-.065 0-.123.05-.123.115s.058.115.123.123c.066-.008.123-.058.123-.123zm1.83.008c.015.074-.01.164.097.172.074.008.148 0 .214 0 .016 0 .04-.008.049-.033.008-.032-.017-.049-.041-.057-.099-.033-.197-.082-.32-.082zm-25.815.14c.073 0 .114-.05.114-.124 0-.065-.057-.115-.123-.115-.065 0-.114.058-.114.124 0 .073.049.114.123.114zm4.723-.23c0-.066-.057-.107-.131-.107s-.123.05-.115.123c.008.066.066.123.123.115.066-.008.123-.066.123-.131zm15.58-.041c0-.066-.057-.115-.123-.115s-.123.05-.123.115c0 .073.058.13.132.123.057 0 .114-.058.114-.123zm4.6.09c.017.082-.007.172.1.18.073.009.147 0 .212 0 .025 0 .05-.008.05-.049 0-.024-.017-.04-.041-.04-.099-.034-.205-.058-.32-.091zm-31.054.156c0-.066-.057-.115-.123-.115s-.123.057-.123.123.058.115.123.115c.074-.008.123-.066.123-.123zm25.528-.263c0-.065-.05-.115-.123-.115-.066 0-.115.058-.115.123s.057.123.123.123a.133.133 0 0 0 .115-.13zM17.22 41.218c0-.057-.04-.106-.106-.115a.12.12 0 0 0-.132.107c-.008.074.033.131.099.131.074.008.14-.049.14-.123zm22.28-4.05a.13.13 0 0 0 .123-.116c.009-.073-.04-.13-.098-.13-.074 0-.14.048-.14.114.009.066.058.123.115.131zm-4.436-.116a.108.108 0 0 0-.123-.106c-.066 0-.115.057-.115.123s.058.115.131.106c.066-.008.115-.057.107-.123zM17.5 39.192c0-.057-.066-.114-.123-.114-.066 0-.131.066-.123.131a.12.12 0 0 0 .131.099c.066 0 .123-.05.115-.115zm.615 3.888c.074 0 .115-.05.115-.115s-.058-.115-.123-.115c-.066 0-.115.058-.115.123.008.074.05.115.123.107zm34.26-5.781c0-.066-.048-.107-.122-.107-.066 0-.123.05-.123.115 0 .057.049.106.106.115.074 0 .14-.05.14-.123zm-2.738-.033c.066 0 .123-.05.123-.115 0-.058-.057-.115-.123-.115s-.123.05-.123.115c.008.057.057.115.123.115zm-11.833-.214c0-.065-.033-.106-.107-.114-.073-.009-.123.032-.13.106 0 .066.048.123.114.123s.123-.049.123-.115zm5.502-.032c0-.074-.049-.115-.114-.115-.066.008-.123.057-.115.115 0 .065.057.114.123.114s.106-.04.106-.114zm17.106 2.993c0-.066-.05-.123-.115-.115-.065 0-.123.057-.123.115 0 .065.05.115.123.115a.123.123 0 0 0 .115-.115zm-43.297.04c-.066 0-.115.05-.123.116 0 .073.04.123.106.123s.123-.05.123-.115c.008-.074-.04-.123-.106-.123zm24.24-2.91c.065 0 .123-.058.123-.115s-.058-.115-.123-.115-.115.05-.123.123c0 .057.057.107.123.107zM26.34 45.089c-.123.033-.246.057-.37.09-.032.008-.048.025-.04.057a.062.062 0 0 0 .057.041c.107-.016.222-.024.32-.082.033-.024.058-.049.033-.106zm-4.912-7.774c0-.066-.057-.123-.123-.123s-.131.057-.131.115c0 .065.057.115.123.123.065 0 .123-.05.131-.115zm27.29-.082c.074 0 .124-.05.115-.115-.008-.066-.065-.115-.123-.107a.12.12 0 0 0-.106.132c.008.057.049.098.115.09zm-18.344.008c.074 0 .123-.05.115-.123-.008-.066-.049-.098-.115-.107-.065-.008-.123.05-.123.115 0 .074.041.115.123.115zM47.8 36.98c-.066 0-.115.049-.115.123 0 .065.033.106.107.115.074.008.123-.042.123-.107 0-.074-.05-.131-.115-.131zm11.046.746c0-.057-.058-.115-.123-.115s-.123.058-.115.123c0 .058.057.107.115.107.065 0 .123-.058.123-.115zm-22.059-.787c-.066 0-.123.049-.123.114s.05.123.115.123.123-.057.123-.13c-.008-.066-.05-.107-.115-.107zm20.878 6.347c-.066 0-.123.049-.123.106 0 .05.057.107.107.115.057.008.13-.05.13-.106.009-.058-.048-.107-.114-.115zm2.591-2.444c-.073 0-.123.05-.123.115s.058.115.123.115c.066 0 .115-.058.115-.123-.008-.066-.057-.115-.115-.107zm-27.143-3.887c-.057 0-.114.074-.114.131.008.058.073.115.13.115.058-.008.116-.074.116-.131-.009-.066-.066-.123-.132-.115zm-15.498 5.207c0-.065-.066-.106-.131-.098-.066.008-.115.057-.115.123 0 .057.057.106.115.106.065-.008.139-.073.13-.13zm8.282-4.928c0-.066-.065-.115-.131-.107-.066 0-.107.058-.107.132.009.065.05.106.115.098.066-.008.123-.066.123-.123zm2.755-.058c0-.065-.049-.114-.123-.114-.073 0-.123.049-.123.114s.058.124.115.115c.074 0 .131-.057.131-.115zm-6.429.247c.058 0 .123-.066.115-.123 0-.058-.057-.107-.131-.107-.066 0-.123.057-.115.115.008.057.082.115.131.115zm5.388-.107c.066 0 .115-.05.115-.123 0-.074-.05-.123-.115-.123-.057 0-.115.065-.115.123-.008.066.05.123.115.123zm31.981 1.05c.066 0 .115-.041.115-.099 0-.074-.057-.131-.123-.131-.057 0-.107.05-.107.115-.008.057.041.115.115.115zm-25.437-1.296c0-.058-.058-.123-.123-.123a.113.113 0 0 0-.107.123c0 .065.05.106.123.106.066 0 .107-.049.107-.106zm19.14.254c0-.065-.058-.106-.132-.106-.066.008-.107.049-.107.106 0 .066.058.115.115.115.066.008.123-.057.123-.115zm6.88 1.722c0-.074-.05-.123-.115-.123s-.123.058-.115.123c0 .066.057.115.123.107.074 0 .106-.041.106-.107zm-36.131-1.68c.065 0 .123-.05.123-.116 0-.057-.058-.115-.123-.115s-.115.058-.107.124c0 .065.041.106.107.106zm11.94-.304c0-.066-.05-.123-.115-.123-.066 0-.107.04-.115.106a.12.12 0 0 0 .106.131c.066 0 .123-.04.123-.114zm23.969 4.74c0-.058-.041-.107-.107-.115-.073 0-.123.04-.123.114 0 .066.058.115.123.115.058-.008.107-.057.107-.115zm-36.696-4.519c0-.065-.05-.123-.115-.123s-.115.041-.115.099a.12.12 0 0 0 .107.13c.057.009.114-.04.123-.106zm34.654.156c0-.066-.05-.115-.123-.115-.066 0-.115.058-.115.123s.041.107.107.107c.074-.008.131-.058.131-.115zm-15.523-.41c0-.066-.05-.123-.115-.123s-.115.057-.115.123c0 .057.05.106.107.106a.108.108 0 0 0 .123-.106zm-1.944.115c.066 0 .107-.05.115-.107 0-.066-.057-.123-.115-.123a.126.126 0 0 0-.123.123c0 .057.058.115.123.107zm18.016 5.699c-.082 0-.123.04-.123.107 0 .065.041.106.107.114.066 0 .123-.049.123-.114.008-.066-.033-.107-.107-.107zM21.444 28.63c.058-.058.074-.123.099-.189.016-.033.04-.082 0-.115-.041-.032-.14 0-.164.05a.164.164 0 0 0-.017.123c.025.04.041.09.082.13zm37.804 13.981c.065 0 .114-.04.114-.106s-.049-.132-.114-.123c-.058 0-.123.065-.115.123 0 .057.05.106.115.106zm-7.782-5.33c0-.065-.066-.123-.123-.115a.12.12 0 0 0-.107.132.115.115 0 0 0 .115.098c.065-.008.115-.066.115-.115zm7.52 4.436c-.017.009-.025.009-.034.017-.016.024-.008.05.009.074.082.082.164.164.246.237.016.017.049.033.065 0 .017-.016.008-.04-.008-.057a2.2 2.2 0 0 0-.23-.246l-.049-.025zm-2.945-4.313c0-.065-.057-.115-.13-.106-.066.008-.107.04-.116.106-.008.066.05.115.123.115s.132-.05.123-.115zm-31.112-.057c.058 0 .115-.058.115-.123a.103.103 0 0 0-.106-.107c-.074 0-.123.041-.123.107 0 .065.049.123.114.123zm29.054.016c0 .058.05.107.107.115.065 0 .115-.05.123-.115 0-.065-.041-.106-.107-.106-.074-.009-.123.04-.123.106zm-26.479 2.01c0-.05 0-.1-.008-.14 0-.025-.016-.05-.049-.05-.025 0-.041.017-.041.042-.008.098-.016.196.008.295a.055.055 0 0 0 .05.033c.024 0 .04-.017.04-.041a.397.397 0 0 1 0-.14zm29.44-1.928c0-.065-.058-.123-.115-.115-.058 0-.107.058-.107.115 0 .066.05.115.115.115.065-.008.106-.05.106-.115zm-1.821-.057c0-.058-.041-.115-.098-.115-.058-.008-.123.05-.132.107-.008.065.05.114.123.106.066 0 .099-.033.107-.098zm-17.229 1.927c.008 0 .008 0 0 0v-.156c0-.025-.016-.033-.04-.041-.025-.008-.05.008-.05.025a.634.634 0 0 0 .008.303.055.055 0 0 0 .05.033c.024 0 .032-.025.032-.041v-.123zm-8.233.033v-.123c0-.025-.008-.05-.041-.058-.033 0-.05.017-.057.041v.279c0 .025.016.041.04.041s.042-.008.05-.033c.024-.04.008-.098.008-.147zm6.896 5.756c-.114-.008-.23.041-.352.041-.025 0-.041.017-.041.041 0 .033.024.05.05.05.097-.009.196-.017.294-.042.033 0 .058-.04.05-.09zm5.281.115c.066-.008.14-.025.222-.041.024-.008.05-.025.04-.057-.007-.025-.032-.025-.048-.025-.09 0-.189.008-.28.008-.024 0-.057.008-.057.041-.008.041.025.058.058.066.008 0 .033 0 .065.008zm2.543-7.306c-.164.278-.033.713.254.836-.263-.238-.361-.508-.254-.836zm6.429-.862c.032.18.098.23.23.19.024-.01.048-.025.048-.05 0-.033-.016-.05-.04-.058a1.61 1.61 0 0 0-.238-.082zm-19.205 8.193c.082-.025.18-.025.262-.066.025-.016.05-.041.04-.074-.007-.033-.04-.024-.065-.016-.082.024-.172.04-.254.065-.033.009-.065.017-.065.058.008.04.049.033.082.033zm18.72-6.02c0 .058 0 .099.009.148 0 .025.016.05.05.05.032 0 .04-.025.048-.05a.79.79 0 0 0-.032-.279c0-.008-.025-.024-.033-.024s-.033.016-.033.024c-.008.05-.008.09-.008.132zm-30.34 1.903c-.008-.05-.074-.107-.123-.098-.058.008-.09.04-.099.106 0 .058.058.099.123.09.066-.008.099-.04.099-.098zm24.65-3.69c.049-.025.115-.05.172-.082.025-.016.025-.041.016-.074-.008-.024-.016-.05-.049-.05-.082-.007-.188.075-.188.157-.009.033.008.049.049.049zm3.403 2.083c-.074.008-.074.074-.082.131s.04.09.115.098c.032 0 .065-.008.065-.049.009-.074-.049-.18-.098-.18zm-27.988.369c-.008-.058-.049-.09-.106-.09s-.099.024-.107.09c-.008.049.058.106.115.106.04 0 .098-.057.098-.106zm32.03 5.264c.033 0 .074 0 .115-.008.025 0 .041-.016.041-.04a.035.035 0 0 0-.032-.034c-.099-.008-.197-.024-.296-.032a.063.063 0 0 0-.04.016c-.009.025 0 .041.016.057.065.05.131.033.197.041zm-11.783-5.461c-.017-.05.008-.123-.074-.14-.05-.008-.098.058-.098.148 0 .05.024.082.073.074.05 0 .099-.008.099-.082zm-19.492 1.46c-.017-.058-.05-.09-.107-.09a.095.095 0 0 0-.098.098c0 .057.057.106.115.098a.123.123 0 0 0 .09-.106zm-1.353-3.822c-.05 0-.082.025-.074.074.008.058.008.131.074.156.049.016.106-.05.106-.107.017-.073-.033-.123-.106-.123zm31.235 2.37c-.009-.033-.017-.057-.025-.082-.008-.04-.008-.098-.074-.098-.074 0-.074.065-.082.106-.016.058 0 .09.066.09.033 0 .065.009.115-.016zm-23.322.074c-.025-.05 0-.123-.082-.148-.05-.016-.09.05-.098.132-.009.065.04.073.09.082.049.008.09 0 .09-.066zm12.678-.476c0-.032-.009-.082-.009-.13 0-.025-.016-.042-.04-.034-.009 0-.025.017-.033.033-.009.099-.009.197.008.295 0 .017.016.025.033.025s.032-.008.032-.025c.033-.049.009-.098.009-.164zm-2.37.484c.065 0 .098-.016.098-.074 0-.065-.05-.139-.106-.13-.082.007-.058.081-.074.13-.008.066.04.066.082.074zm-7.88.041c.04-.016.106.008.106-.074s-.041-.147-.09-.139c-.082.016-.074.09-.09.148 0 .049.024.073.073.065zm22.009-4.74c-.189-.008-.279-.082-.263-.246 0-.008 0-.008-.008-.016-.008-.025-.024-.041-.049-.033-.008.008-.025.017-.025.033-.04.14.009.213.148.246.05.025.098.041.197.016zM19.64 40.562c-.008-.057-.049-.082-.106-.074-.058 0-.099.033-.09.099.008.065.049.082.106.09.057 0 .098-.05.09-.115zm1.116-.557c.065 0 .114-.041.106-.099-.008-.057-.05-.082-.098-.082-.058 0-.107.05-.107.09.008.066.05.09.099.09zm24.256-3.018c.008.115.016.147.066.14.049 0 .09-.066.09-.124a.103.103 0 0 0-.107-.106c-.082 0-.049.057-.049.09zm-23.97 3.46c-.049.009-.098.017-.09.082.009.058.05.09.107.099.057 0 .082-.033.09-.09.008-.05-.04-.09-.106-.09zm27.119-1.205v.107c0 .024 0 .057.033.057s.04-.025.04-.05c0-.057.009-.114 0-.171 0-.033.009-.09-.04-.09-.058 0-.033.057-.041.098a.104.104 0 0 1 .008.049zm-9.594-2.206c.008.041-.017.115.065.115.058 0 .09-.05.09-.107 0-.065-.049-.115-.106-.106-.066.008-.041.065-.05.098zm-6.552 1.468c-.107-.246-.033-.467.073-.689a.608.608 0 0 0-.073.689zm-6.602 6.691a.083.083 0 0 0-.008-.024.37.37 0 0 0-.205-.058c-.033 0-.033.041-.016.066.024.041.147.082.196.066.017-.017.033-.025.033-.05zm7.454-7.782c.033 0 .05-.016.05-.04 0-.066-.041-.09-.099-.09-.04 0-.09 0-.098.057-.017.032.057.073.147.073zM29.67 40.3c-.008.156.025.172.23.115-.09-.033-.156-.074-.23-.115zm10.398-.066c.008.156.074.18.238.099-.098 0-.156-.058-.238-.099zm7.905.09c.222.041.23.033.214-.123-.066.05-.14.082-.214.123zm-2.247-1.91c.066-.156.09-.32 0-.476.033.156.017.32 0 .476zm-13.218.516a.607.607 0 0 0 .54-.082c-.171.066-.344.123-.54.082zm15.096 6.495c-.057-.008-.09.025-.123.041s-.082.016-.074.066c.017.049.074.032.107.024.074 0 .09-.057.09-.131zm-20.18-5.117c-.074.041-.14.082-.222.123.221.025.221.025.221-.123z"/><path d="M20.091 35.954c.025-.041.017-.082 0-.123h.099c.049.032.098.008.147.024l.017.017.024.049c-.114.131-.123.131-.287.033zm31.514-.189c-.05-.115.016-.213.066-.312.016 0 .032 0 .04-.008l-.008.008v.074c-.024.058-.016.099.058.115.008.033.016.066-.017.082-.04.025-.09.057-.139.041zm-31.333-.09a.104.104 0 0 1 .074.057c-.009.008-.009.017 0 .025 0 .008.008.008.008.016 0 .017-.008.041-.008.058-.033-.025-.066-.041-.099-.066v-.066c.008 0 .017-.016.025-.024zm31.563-.222c.024.041-.009.05-.033.058-.017-.041-.041-.082-.033-.123a.25.25 0 0 0 .066.065zm-31.71.214c.032-.041.065-.09.13-.099 0 .017-.008.033-.008.05a.11.11 0 0 0-.057.049c-.017 0-.041 0-.058.008l-.008-.008z"/><path d="M20.346 35.83c.032.009.057.009.09.017l-.025.074a.11.11 0 0 0-.057-.05l-.017-.016c.009-.008.009-.016.009-.024zm30.636-.155c.04 0 .057.024.074.057l-.074-.024-.008-.009c0-.008.008-.016.008-.024zm.123.09.04.066c-.016-.025-.032-.041-.04-.066zM20.41 35.74c-.024.009-.04.025-.065.033 0-.008-.009-.008-.009-.016v-.025c.033.008.058.008.074.008zm32.99.025v-.066c.008.025.016.041.024.066h-.024zm-.943-.312v.066h-.033c.008-.025.025-.041.033-.066zm-1.517.312v-.066h.024l.009.009c-.009.016-.017.04-.033.057zm2.46-.057h-.066v-.033h.066v.033zm-.976-.164c-.016-.009-.033-.009-.033-.033h.033v.033zm-1.353-.312c-.008 0-.025 0-.033.008.008 0 .025-.008.033-.008zM27.75 36.2h.361c.09 0 .123.04.115.106-.008.074-.041.115-.115.115-.246 0-.492.008-.738 0-.074 0-.115-.05-.106-.123 0-.066.04-.107.106-.107.123.009.246.009.377.009zm-.328.106c.214.041.427.017.64 0h-.64zm29.333 4.264a.614.614 0 0 0-.066-.221c-.09.082-.18.164-.303.131a.289.289 0 0 1-.164-.115c-.099-.164-.033-.303.221-.442-.09-.115-.156-.23-.049-.361.066-.082.148-.131.262-.107.148.033.205.148.214.304a.419.419 0 0 0 .164-.115c-.017-.05-.074-.05-.099-.074-.098-.082-.14-.238-.09-.336a.255.255 0 0 1 .32-.123c.115.04.18.164.156.303 0 .008-.009.017-.009.033-.008.033-.032.074.025.09.041.008.098.017.14-.016.032-.025 0-.058-.009-.09-.024-.09-.024-.173.041-.246.09-.099.23-.123.336-.05a.249.249 0 0 1 .09.328c-.016.025-.032.058-.049.082-.106.115-.106.115.041.18.041-.04.033-.098.058-.139.065-.123.18-.18.295-.139.131.041.197.14.18.27-.016.132-.098.214-.237.23h-.017c-.13.008-.13.008-.074.148.214-.115.345-.107.435.008a.271.271 0 0 1-.016.336c-.099.115-.238.107-.41-.008-.033 0-.041.033-.05.057l-.024.074c.05.033.098 0 .14.008.155.025.253.173.22.337a.246.246 0 0 1-.31.18.247.247 0 0 1-.173-.164c-.017-.041-.025-.074-.041-.115-.066.008-.09.058-.131.082.008.058.057.074.082.107.082.106.098.213.024.32-.074.106-.18.147-.287.106-.123-.04-.188-.14-.18-.279.008-.147.008-.147-.131-.155.024.27-.025.377-.189.418-.115.024-.254-.05-.303-.172-.05-.14.016-.246.213-.361a3.266 3.266 0 0 1-.164-.18c-.033-.05-.058-.09-.082-.124zm.664.255c.377 0 .574-.287.582-.574.008-.304-.27-.59-.566-.574-.344.024-.598.205-.598.59a.57.57 0 0 0 .582.558zm-.697-1.107c0-.066-.05-.123-.115-.123s-.123.057-.123.114c0 .066.041.107.107.107.074.008.131-.033.131-.098zm.435 1.41c0-.057-.066-.107-.132-.107s-.098.05-.098.115c0 .074.05.115.115.115.057 0 .115-.066.115-.123zm-.082-1.894c-.074 0-.123.049-.115.115.008.065.04.106.106.114.066.009.123-.04.123-.114.009-.066-.04-.115-.114-.115zm-.517.992c-.008-.066-.066-.115-.123-.107-.066.009-.115.058-.107.123.009.066.05.099.115.099.066 0 .123-.058.115-.115zm1.632.492c-.066 0-.123.057-.123.115s.057.115.123.115.106-.041.115-.107c0-.066-.05-.123-.115-.123zm-.402.443c0-.066-.066-.115-.131-.107s-.107.05-.107.115c0 .066.058.115.123.115.058 0 .115-.058.115-.123zm.574-.787c.057 0 .107-.05.115-.107.008-.066-.05-.123-.115-.123-.057 0-.107.041-.115.107 0 .065.05.123.115.123zm-.541-1.034c0-.065-.041-.106-.107-.106s-.123.057-.123.115c.008.065.05.106.115.114.066 0 .115-.057.115-.123zm.5.345c0-.066-.04-.107-.107-.107s-.123.05-.123.115c0 .057.058.107.115.107.066 0 .115-.05.115-.115zm-1.55.246c-.082.016-.147.024-.205.04.058.042.074.107.14.14.024-.065.04-.123.065-.18z"/><path d="M56.755 40.57c.024.033.049.074.074.107 0 .05.008.098 0 .14-.017.139-.156.245-.287.22a.274.274 0 0 1-.222-.31.275.275 0 0 1 .32-.206l.115.05zm-.18.09c-.074 0-.115.058-.115.124.008.065.065.106.139.098.066-.008.098-.057.098-.115-.016-.065-.065-.106-.123-.106zm-37.287.427a.586.586 0 0 1-.583.59c-.344.009-.623-.328-.598-.615.033-.377.27-.574.615-.582.328 0 .574.279.566.607zm13.399-2.526c-.172 0-.336-.155-.336-.328 0-.18.156-.336.328-.328.18 0 .32.14.32.312.008.189-.14.344-.312.344zm0-.516c-.098 0-.197.098-.197.188s.09.189.172.197a.2.2 0 0 0 .205-.188.177.177 0 0 0-.18-.197zm18.59-2.518v.025h-.008v-.025h.008zm1.18.025c-.007.008-.007.016-.016.024-.008-.008-.008-.016-.016-.024h.033zm-32.366.115h.025l.008.008.058.024v.066h-.066c-.008-.008-.025-.016-.033-.025.008-.024.008-.049.008-.073zm.099-.246v.032h-.066c.025-.008.041-.024.066-.032zm-.058.41h-.04v-.066h.032c0 .025.008.041.008.066zm-.04-.312c.008-.025.024-.041.032-.066v.066h-.033zm.032.033c-.008.024-.008.049-.033.065v-.065h.033zm31.58-.099c.024.017.024.041.024.058a.018.018 0 0 0-.016.016c-.009-.024-.009-.049-.009-.074zm-31.514 0c.016.025.016.041 0 .066v-.066zm-.066.099v-.033h.066c-.017.025-.041.025-.066.033zm.066.156v-.033h.065v.033h-.065zm0 .057h.065c-.016.025-.032.05-.065.066v-.066zm36.91 4.477c0-.172.147-.32.319-.32a.34.34 0 0 1 .328.329c0 .18-.156.336-.328.336a.337.337 0 0 1-.32-.345zm.327-.164c-.106-.008-.188.058-.197.164-.008.107.066.189.18.197.1 0 .181-.065.19-.156.016-.114-.058-.196-.173-.205zM23.1 9.2v1h-2.3v7.7h-1.1v-7.7h-2.3v-1h5.7zM30.3 9.2v8.7h-1.5l-3.4-7.5v7.5h-1V9.2H26l3.4 7.4V9.2h.9zM32.3 17.9V9.2h1.1V13l3-3.8h1.2l-3.1 3.9 3.3 4.7h-1.4l-3-4.5v4.5h-1.1zM39 9.2h2.7c1.1 0 1.9.4 2.3 1.3.3.7.4 2.5.4 2.7 0 1.8-.2 2.9-.5 3.5-.5.7-1.3 1.1-2.9 1.1h-2V9.2zm1.1 7.7h1c1.5 0 2.1-.6 2.1-2.6v-1.8c0-1.8-.5-2.4-1.7-2.4H40v6.8zM46.3 17.9V9.2h4.5v1h-3.4V13h3.1v1h-3.1v3h3.4v1h-4.5zM52.3 17.9V9.2h1.1v7.7h3.2v1h-4.3z"/></g></svg>