<svg version="1.2" baseProfile="tiny" xmlns="http://www.w3.org/2000/svg" viewBox="0 0 75 75" overflow="visible" xml:space="preserve"><path fill="#FFF" d="M0 0h75v75H0z"/><g fill="#ED2224"><path d="M19.788 65.5h-1v-8.7h1.8l2.2 7.3 2.2-7.3h1.8v8.7h-1.1v-7.7l-2.4 7.7h-1l-2.4-7.7v7.7zM27.988 62.6c0-1.8.2-3.2 2.3-3.2s2.3 1.5 2.3 3.2c0 2.7-1 3.1-2.3 3.1s-2.3-.4-2.3-3.1zm3.6-.4c0-1.7-.5-2-1.3-2s-1.3.4-1.3 2c0 2 .3 2.7 1.3 2.7s1.3-.8 1.3-2.7zM36.988 65.5v-4.1c0-.7-.2-1.3-1.1-1.3-1 0-1.2.8-1.2 1.8v3.6h-1v-8.7h1v3.4c.4-.7.9-.9 1.6-.9 1 0 1.6.5 1.6 1.9v4.3h-.9zM42.288 64.7c-.3.7-.8 1-1.5 1-1.3 0-1.7-.8-1.7-2 0-1.8 1.8-1.9 3.2-1.9 0-.8 0-1.7-1-1.7-.7 0-1 .4-.9 1.1h-1.1c0-1.4.8-1.8 2.1-1.8 1.6 0 2 .8 2 1.8v2.9c0 .5 0 1 .1 1.4h-1.1v-.8zm-2.2-1c0 .6.3 1.1.9 1.1.6 0 1.3-.4 1.2-2.3-.8 0-2.1-.1-2.1 1.2zM43.988 59.5h1.1l1.1 5.2 1.3-5.2h1.4l1.2 5.2 1.2-5.2h1l-1.6 6.1h-1.3l-1.3-5.2-1.4 5.2h-1.3l-1.4-6.1zM53.888 65.5h-1v-8.7h1V62l1.8-2.6h1.2l-2 2.6 2.4 3.5h-1.2l-2.2-3.4v3.4z"/></g><g fill="#ED2224"><path d="M9.5 13.7h4c3.2 0 3.8 2.1 3.8 5.7 0 1.8.3 5.8-3.9 5.8H9.5V13.7zm2.4 9.8h1.2c1.5 0 1.8-1.1 1.8-4 0-2.1 0-4-1.7-4H12v8zM19.3 13.7h4c3.2 0 3.8 2.1 3.8 5.7 0 1.8.3 5.8-3.9 5.8h-3.9V13.7zm2.4 9.8h1.2c1.5 0 1.8-1.1 1.8-4 0-2.1 0-4-1.7-4h-1.2v8zM44.6 25.4h-1.5v-9.5L41.4 17v-1.4c.4-.2 1.4-1 1.9-1.3h1.3v11.1zM47.8 26.9h-1.1l3.8-13.1h1.1l-3.8 13.1zM52.2 25.4v-1.3c3.2-4.5 4.2-5.4 4.2-7.3 0-.9-.4-1.5-1.4-1.5-1.1 0-1.3.9-1.3 1.8h-1.5c-.1-1.8.8-3 2.7-3 2 0 3 .9 3 2.9 0 2.5-1.2 3.3-4.1 7.1h4.4v1.3h-6z"/><path stroke="#CC2028" stroke-width=".091" stroke-linecap="round" stroke-linejoin="round" stroke-miterlimit="2.18" d="m65.6 47.9-5.1.2V48h-.4v-.1h.1v-.2h-.4v.2h.1v.1h-.4v.1h-.7V48h-.5v-.4h-.5v.4h-1.1v-.5l1.6-.1v-.1h-1.6 0l-.4-.4h-.9v.2h-.6l.5.6h.2v.2h-1.4v-.5h0V47l.9-.6v-.2l-1.4.5h-1.7v-.4l1.6-.1v-.1h-1.6 0l-.4-.4h-.9v.2H50l.5.6h.2v.2h-1.4v.2h-.7v-.4h-.1v-1.4h-3.1l-.4-1.2h-.6v1.2H44v-.6h.2v-.6H43v.6h.4v.6h-.1v1.4h-.4l-1.2-10.6h-.2v-1h-.2v2.7h.2V36l.5 4.2-.5 4.5v-.4l-2.2.2.5 4.3h-1.1v-1h-.6v-.6h-1.6v1.6h-1.2l-.4-3.9-1.4.2.1 3.6H29v-1.1h-.6l.5-.6-.5-.6-.6.1v.6h-.2V47h-.4v.9h.6v.4h-2.4v-1.4h1v-.5h-1.7v.5h.2v1.4h-.1v-.6h-.2v-4h.5v-.1h-.5v-1h-.1v1h-.4v.1h.4v4h-1.6v.6h-.2v-.6H22v.6h0v-.4h-.9v-.4h.1l.4-.4h-.5v-.2h-.6l-.2.2h0-1.1v.1h1.1v.6h-1l-3-.5v.5l.7.1v.5h0v.7h-1.2v-.4h.2l.5-.6h-.6V48H15l-.4.4h0H13v.1l1.6.1v.6H9.8v2h54.1v-.1h0l1.7-3.2zm-24-1.9.5-4.7.6 5.7.1-.1v1.4h-.7v1.1h-.4l-.1-3.4z"/></g></svg>