<svg version="1.2" baseProfile="tiny" xmlns="http://www.w3.org/2000/svg" viewBox="0 0 75 75" overflow="visible" xml:space="preserve"><path fill="#FFF" d="M0 0h75v75H0z"/><g fill="#ED2224"><path d="M31.188 56.9v8.7h-1.5l-3.4-7.5v7.5h-1v-8.7h1.6l3.4 7.4v-7.4h.9zM35.688 64.7c-.3.7-.8 1-1.5 1-1.3 0-1.7-.8-1.7-2 0-1.8 1.8-1.9 3.2-1.9 0-.8 0-1.7-1-1.7-.7 0-1 .4-.9 1.1h-1.1c0-1.4.8-1.8 2.1-1.8 1.6 0 2 .8 2 1.8v2.9c0 .5 0 1 .1 1.4h-1.1v-.8zm-2.2-1c0 .6.3 1.1.9 1.1.6 0 1.3-.4 1.2-2.3-.8 0-2.1-.1-2.1 1.2zM37.988 56.9h1.1V58h-1.1v-1.1zm1.1 8.6h-1v-6.1h1v6.1zM43.388 64.7c-.3.7-.8 1-1.5 1-1.3 0-1.7-.8-1.7-2 0-1.8 1.8-1.9 3.2-1.9 0-.8 0-1.7-1-1.7-.7 0-1 .4-.9 1.1h-1.1c0-1.4.8-1.8 2.1-1.8 1.6 0 2 .8 2 1.8v2.9c0 .5 0 1 .1 1.4h-1.1v-.8zm-2.2-1c0 .6.3 1.1.9 1.1.6 0 1.3-.4 1.2-2.3-.8 0-2.1-.1-2.1 1.2zM48.988 56.9h1v8.7h-1v-.7c-.3.6-.8.8-1.4.8-1 0-2-.4-2-3 0-1.5 0-3.2 2-3.2.6 0 1 .3 1.3.7v-3.3zm-1.1 3.3c-1.1 0-1.2.8-1.2 2.5 0 .9 0 2.2 1.2 2.2 1.1 0 1.1-1.4 1.1-2.6 0-.8 0-2.1-1.1-2.1z"/></g><g fill="#ED2224"><g stroke="#CC2028" stroke-width=".139" stroke-linecap="round" stroke-linejoin="round" stroke-miterlimit="2.714"><path d="m65.571 48.53-.497 2.986h-3.11l-52.37-.124.248-1.493h9.827v-.249h0v-.124h-1.866v-.249h1.99l.125-.249h.373v-.124h1.12v-.249h.373v-.124h-.249v-.125h.374v.125h.124v.124h-.124v.125h.248v.248h.374v.747h-.622v.124h.87l-1.368-13.061h.249l1.617 13.061h.124v-.746h0v-.622h-.124v-.747h.622v.498h.497v-.498h.125v-.248h-.125v-.374h.498v.498h0v.249h.622v-.373h-.124v-.747h.622v.622h.622v-.373h-.25v-.746h.872v.746h-.25v.373h.125v.498h0v.497h0v.871h1.617v-.87h-1.12v-.623h4.355v.622H30.74v.871h1.99v-.497h.498l-.622-4.23h1.12l.994 4.23h3.608v-.125l-1.742.125-.497-4.354h1.866l.497 3.483 2.488.995h.498v-.498h.373v-.497h.249v-.373h.124v.373h.249v.497h.249v-.995h-.125v-.373h.249v.373h-.124v.995h1.492V46.79h-.497v-.497h.497v-.374h-.124v-.746h-.249v-1.12h.249v.623h.249v-.871h.373v.249h.746v.622h.25v.373h-.125v.497h.497v-.497h.747v.87h-.125v2.488h.373v-.248h.498v.248h1.368v-.497h-.622v-.747h.747v-.248h-.125v-.25h.125v-.248h.124v.249h0v.249l.125-.25h.124l-.249.374v.124h1.742l.124.25h1.99v.248h-1.865v.124h0v.622h.124v-.373h.249v.373h.249v-.248h.248v.248h.498v.871h.373v-.373h-.124v-.746h2.239v.124h.373l.124.249h1.99v.249H55.62v.124h0v.746-.497h.124v-.249h.871v-.124h.746v-.125h.622v.125h.125v.248l5.846-.248h0l1.617-.25zm-12.44.623h.25v-.373h-.25v.373z" stroke-width=".17291044"/><path d="m43.927 48.282-1.369-11.444h-.124l1.244 11.568.249-.124z" stroke-width=".17291044"/></g><path d="M9.3 19.5c0-3.1 0-6 4-6 2.5 0 3.5 1.4 3.4 3.8h-2.4c0-1.5-.3-2.1-1-2.1-1.4 0-1.5 1.3-1.5 4.2s.2 4.2 1.5 4.2c1.1 0 1.1-1.4 1.1-2.4h2.4c0 3.1-1.2 4.1-3.5 4.1-4 .1-4-2.8-4-5.8zM18.3 25.2V13.6h2.4v9.6h3.6v1.9h-6zM48.2 25.2V24c3.2-4.5 4.2-5.4 4.2-7.3 0-.9-.4-1.5-1.4-1.5-1.1 0-1.3.9-1.3 1.8h-1.5c-.1-1.8.8-3 2.7-3 2 0 3 .9 3 2.9 0 2.5-1.2 3.3-4.1 7.1h4.4v1.3h-6zM55.3 26.8h-1.1L58 13.7h1.1l-3.8 13.1zM59.7 19.7c0-3 0-5.8 3-5.8 1.7 0 2.8 1 2.8 2.7H64c0-.8-.4-1.6-1.3-1.6-1.2 0-1.5 1.1-1.5 4 .4-.6 1-1 1.8-1 1.4 0 2.6.8 2.6 3.7 0 2-.8 3.7-3 3.7-2.9.1-2.9-2.8-2.9-5.7zm3 4.6c1.2 0 1.4-1.3 1.4-2.8 0-1-.2-2.2-1.5-2.2s-1.5 1.4-1.5 2.4c.1 1.1.2 2.6 1.6 2.6zM12.3 28.1h1.4l2.8 8.7h-1.2l-.6-2.1h-3.3l-.6 2.1H9.7l2.6-8.7zm.7 1-1.4 4.6h2.8L13 29.1zM19.6 28.1H21l2.8 8.7h-1.2l-.6-2.1h-3.3l-.6 2.1H17l2.6-8.7zm.7 1-1.4 4.6h2.8l-1.4-4.6z"/></g></svg>