<svg version="1.2" baseProfile="tiny" xmlns="http://www.w3.org/2000/svg" viewBox="0 0 75 75" overflow="visible" xml:space="preserve"><path fill="#FFF" d="M0 0h75v75H0z"/><g fill="#ED2224"><path d="M21.888 56.9h1.4l2.8 8.7h-1.2l-.6-2.1h-3.3l-.6 2.1h-1.1l2.6-8.7zm.7 1-1.4 4.6h2.8l-1.4-4.6zM26.588 56.9h1.1V58h-1.1v-1.1zm1.1 8.6h-1v-6.1h1v6.1zM29.888 60.4c.4-.9.9-1 1.9-1v1h-.6c-1.1 0-1.4.8-1.4 1.6v3.6h-1v-6.1h1v.9zM33.288 62.8c0 1.7.5 2 1.2 2s1-.5 1.1-1.2h1.1c0 1.3-.8 2-2.1 2s-2.3-.4-2.3-3.1c0-1.8.2-3.2 2.3-3.2 1.7 0 2.2.9 2.2 3v.5h-3.5zm2.4-.7c0-1.8-.5-2-1.2-2-.6 0-1.1.3-1.2 2h2.4zM41.088 56.9h1v8.7h-1v-.7c-.3.6-.8.8-1.4.8-1 0-2-.4-2-3 0-1.5 0-3.2 2-3.2.6 0 1 .3 1.3.7v-3.3zm-1.1 3.3c-1.1 0-1.2.8-1.2 2.5 0 .9 0 2.2 1.2 2.2 1.1 0 1.1-1.4 1.1-2.6 0-.8-.1-2.1-1.1-2.1zM46.488 64.7c-.3.7-.8 1-1.5 1-1.3 0-1.7-.8-1.7-2 0-1.8 1.8-1.9 3.2-1.9 0-.8 0-1.7-1-1.7-.7 0-1 .4-.9 1.1h-1.1c0-1.4.8-1.8 2.1-1.8 1.6 0 2 .8 2 1.8v2.9c0 .5 0 1 .1 1.4h-1.1v-.8zm-2.2-1c0 .6.3 1.1.9 1.1.6 0 1.3-.4 1.2-2.3-.8 0-2.1-.1-2.1 1.2zM49.888 65.5h-1v-8.7h1v8.7zM51.988 62.8c0 1.7.5 2 1.2 2s1-.5 1.1-1.2h1.1c0 1.3-.8 2-2.1 2s-2.3-.4-2.3-3.1c0-1.8.2-3.2 2.3-3.2 1.7 0 2.2.9 2.2 3v.5h-3.5zm2.4-.7c0-1.8-.5-2-1.2-2-.6 0-1.1.3-1.2 2h2.4z"/></g><g fill="#ED2224"><path d="M9.5 13.7h4c3.2 0 3.8 2.1 3.8 5.7 0 1.8.3 5.8-3.9 5.8H9.5V13.7zm2.4 9.8h1.2c1.5 0 1.8-1.1 1.8-4 0-2.1 0-4-1.7-4H12v8zM19.3 13.7h4c3.2 0 3.8 2.1 3.8 5.7 0 1.8.3 5.8-3.9 5.8h-3.9V13.7zm2.4 9.8h1.2c1.5 0 1.8-1.1 1.8-4 0-2.1 0-4-1.7-4h-1.2v8zM44.6 25.4h-1.5v-9.5L41.4 17v-1.4c.4-.2 1.4-1 1.9-1.3h1.3v11.1zM47.8 26.9h-1.1l3.8-13.1h1.1l-3.8 13.1zM56.1 25.4h-1.5v-9.5L52.9 17v-1.4c.4-.2 1.4-1 1.9-1.3h1.3v11.1z"/><path stroke="#CC2028" stroke-width=".091" stroke-linecap="round" stroke-linejoin="round" stroke-miterlimit="2.18" d="m65.4 47.5-5.1.2v-.1h-.4v-.1h.1v-.2h-.4v.2h.1v.1h-.4v.1h-.7v-.1h-.5v-.4h-.5v.4h-1.1v-.5l1.6-.1v-.1h-1.6 0l-.4-.4h-.9v.2h-.6l.5.6h.2v.2h-1.4V47h0v-.4l.9-.6v-.2l-1.4.5h-1.7V46l1.6-.1v-.1h-1.6 0l-.4-.4h-.9v.2h-.6l.5.6h.2v.2h-1.4v.2h-.7v-.4h-.1V45h-3.1l-.4-1.2h-.6V45h-.4v-.6h.2v-.6h-1.2v.6h.4v.6h-.1v1.4h-.4l-1.2-10.6h-.2v-1h-.2v2.7h.2V36l.5 4.2-.5 4.5v-.4l-2.2.2.5 4.3h-1.1v-1h-.6v-.6h-1.6v1.6h-1.2l-.4-3.9-1.4.2.1 3.6h-4.6v-1.1h-.6l.5-.6-.5-.6-.6.1v.6h-.2v-.6H27v.9h.6v.4h-2.4v-1.4h1V46h-1.7v.5h.2v1.4h-.1v-.6h-.2v-4h.5v-.1h-.5v-1h-.1v1h-.4v.1h.4v4h-1.6v.6h-.2v-.6h-.7v.6h0v-.4h-.9v-.4h.1l.4-.4h-.5v-.2h-.6l-.2.2h0H19v.1h1.1v.6h-1l-3-.5v.5l.7.1v.5h0v.7h-1.2v-.4h.2l.5-.6h-.6v-.2h-.9l-.4.4h0-1.6v.1l1.6.1v.6H9.6v2h54.1v-.1h0l1.7-3.1zm-24-1.9.5-4.7.6 5.7.1-.1v1.4h-.7V49h-.4l-.1-3.4z"/></g></svg>