<?xml version="1.0" encoding="utf-8"?>
<!-- Generator: Adobe Illustrator 26.0.2, SVG Export Plug-In . SVG Version: 6.00 Build 0)  -->
<svg version="1.2" baseProfile="tiny" id="Layer_1" xmlns="http://www.w3.org/2000/svg" xmlns:xlink="http://www.w3.org/1999/xlink"
	 x="0px" y="0px" viewBox="0 0 800 800" overflow="visible" xml:space="preserve">
<g>
	<path d="M279.6,322.2c-2.4,2.8-6.6,2.4-7.8-0.9c-0.2-0.5-0.1-2.1,0.7-2.7c0.6-0.5,0.8-1.1,1.1-1.7c0.7-1.4,1.3-2.2-1.3-2.2
		c-1.7,0-3.5,0.6-5.4,0.1c-0.5-0.2-2.7-0.4-1.6,2c-2.5-2.1-4.3,0-6,0.9c-3.8,1.9-7,4.8-9,8.7c-2.5,4.8-3.6,9.9-2.9,15.4
		c0.5,4.4,2.3,8.1,4.3,11.8c0.9,1.7,2.1,3.2,3.9,4.2c0.5,0.3,0.8,0.8,1.3,0.3c0.5-0.5,0.1-1-0.3-1.4c-0.3-0.3-0.7-0.6-1.1-0.8
		c-0.8-0.4-1-1.7-0.7-1.8c1.9-0.9,0.7-1.6-0.1-2.3c-0.8-0.7-1.5-1.3-1.6-2.5c0-0.5-0.2-1.7-1.5-1.2c-0.9,0.4-0.2-0.4-0.2-0.6
		c-0.6-2.2,0.2-4.5-0.2-6.8c0.7,0.3,0.6,1.1,0.8,1.6c0.5,0.9,0.8,2.2,1.3,0c1.4,0.4,1.1-1.5,2-1.5c1.1,0,0.7-0.7,0.5-1.1
		c-1.3-2.2-0.1-4.2,0.2-6.4c0.1-0.6,0.1-1.2-0.1-2.1c-1.2,2.3-2.1,4.9-5.4,3.8c0.3-0.8,0.6-1.8,0.2-2.8c-0.2-0.7-0.2-0.9,0.4-1.3
		c0.9-0.5,0.6,0.1,0.9,0.5c0.6,0.8,1.7-0.2,1.7-0.4c0.8-2,3.3-2.6,3.6-4.9c0.9,0,0.4,3.3,2.3,0.7c0,0.5,0.1,0.9,0,1.1
		c-0.2,0.5-1.1,1-0.5,1.6c0.6,0.7,1.3,0.1,1.9-0.4c0.7-0.6,1.3-0.7,1.5,0.3c0.3,1.6,0.6,3.1,3.1,2.4c-2.6,1.3-4.9,2.3-7.5,2.5
		c-1.1,0.1-1.4,0.3-0.6,1.4c1.3,1.8,3,3.2,4.8,4.3c1.7,1.1,3.6,0.1,5.4-1.4c-0.4,3.2,2.4,1.8,3.5,2.8c0.2,0.2,0.5-0.6,0.4-0.9
		c-0.6-1.3,0.4-1.3,1.1-1.7c-0.1,2.2-0.3,4.4-0.4,7.2c2-2.3,1.1-4.7,2.4-6.4c-0.2,1.9,0.9,3.7-0.1,6.1c1.7-1.2,1.1-2.8,2-3.8
		c2,1.9,2,1.9,3.6-2.9c0.9,0.6,0.4,2.5,1.9,2.4c0.8,0,0.4-1,0.3-1.6c0.6,0.2,0.6,1.3,1.4,1c1.2-0.4,0-1.4,0.5-2.1
		c1,0.4,0.7,1.5,1.3,2.1c0.7-0.6,0.1-1.5,0.4-2.2c1.5,1.9,2.2,4.3,3.2,6.6c0.2,0.5,0,1.9,1.2,1.7c1-0.2,0.3-1.3,0.4-2.3
		c1.1,0.9,0.9,1.6,0.7,2.5c-0.7,3-3,5.1-4.7,7.6c-0.3,0.4-0.6,0.7-1,1c-0.7,0.6-0.2,1.3,0.2,1.6c0.8,0.7,0.7-0.4,1-0.6
		c4.1-2.4,5.4-6.7,7.2-10.7c0.2-0.6,0.6-1.3,0.1-1.8c-0.5-0.6-1.1-0.1-1.7,0.1c-1.8,0.5-4-1.8-3.5-4c0.2-0.9-0.3-1.9,0.4-2.8
		c0.4,2.9,2.9,1.9,4.6,2.4c1.3,0.4,2.7-0.1,4.4,0.5c-2.2,1-3.9-0.3-5.6-0.1c-0.9,0.1-2.6-0.6-2.5,1.1c0,1.5,1.3,1.8,2.7,1.7
		c4.4-0.2,8.7-1.1,13.4-1c-1.6,1.2-3.2,0.8-4.6,1.2c-0.8,0.2-1.6,0.1-2.3,0.3c-1.2,0.3-3.1-0.5-3.5,1.1c-0.5,2.2-2.6,4.3-1.1,6.9
		c-1.1-0.6-1.7,0-2.1,0.9c-0.3,0.7,0.1,1.2,0.7,1.2c0.8-0.1,2.3,1.2,2.4-0.9c0.8,0.6,1.1,1.3-0.3,1.4c-3.7,0.5-3.7,0.4-1.8,3.8
		c0.1,0.1,0.1,0.3,0.2,0.6c-2.4-0.9-3.7,0.6-4.8,2.3c-0.2,0.3-0.4,0.7-0.6,0.7c-2.8,0-2.2,2-2,4.1c-1.8-2.1-3.9-1-5.6-1.4
		c-2.7-0.5-4.8,0.4-7.2,0.6c-1.6,0.1-1.6,0.7-1.2,2.4c-0.7-1-1-1.5-1.4-1.9c-1-0.9-2.2-1.1-3.2-0.4c-1.1,0.8,0.1,1.4,0.4,2.1
		c0.3,0.6,0.5,1.3,0.7,2c0.9,2.7,3.1,4.1,5.9,4c1.4,0,2.8,0,4.2,0.2c1.3,0.2,2.7,0.9,3.7-0.1c1.1-1,1.9,2.3,2.9,0
		c0.1,0.1,0.3,0.1,0.4,0.2c0.6,0.9,1.6,1,2.2,0.4c0.7-0.7-0.4-1.3-0.5-2.1c1.3,0.2,1.5,1.5,1.1,2c-0.8,1.1-2.4,2.2-3.6,1.6
		c-2.6-1.4-5.3-0.4-8-1.1c-1.2-0.3-2.9,0.5-4.2,1c-0.8,0.3,0.2,4.5,1.1,5c0.6,0.3,1.5,0,1.8,0.9c-3.3,0.2-4-0.4-4.2-3.5
		c-0.1-2.2-0.2-4.3-2.9-5.5c-2.1-0.9-2.3-3.6-2.3-5.8c0-1.4-0.4-2-1.7-2.2c-0.6-0.1-1.3-0.2-1.8-0.6c-2.1-1.3-3.8-0.7-5.3,1.1
		c1.6-1.2,2-4,4.9-3.3c0.1,0,0.5-0.3,0.5-0.4c-0.5-2.1,1.7-3,2.3-4.7c0.7-2.3-0.1-4.3-2.4-5.1c-2.1-0.7-4,0.5-4.5,2.7
		c-0.3,1.5-0.5,3-1,4.4c-0.5,1.6-0.3,3.5-1.6,4.8c0.7-1.5,0.5-2.8-0.9-3.9c-2-1.8-3.9-3.7-4.9-6.2c-0.4-0.9-1-1-1.9-1
		c-1,0.1-2,0-3,0c-0.3-0.9,0.4-1.1,0.7-1.5c1.2-1.6,2.1-3.2,1.2-5.4c-0.8-1.8-0.5-3.9-0.6-5.8c-0.1-1.7,0.1-3.4-2.3-4
		c1-0.6,2,0.8,2.5-0.6c0.3-1,0-1.5-2.4-3.1c0.7,0,1.3-0.1,1.7,0c1.2,0.4,1.6-0.1,1.6-1.2c0.1-1.2-0.8-1-1.4-0.9
		c-2.3,0.4-4.7,0.5-6.8,1.5c-0.2,0.9,1,0.8,1.1,1.7c-1.1-0.6-2.1-1.1-3.4-1.8c3-1.5,6.1-1.6,9.1-2.2c1.6-0.4,2.7-0.9,3.3-2.5
		c1.1-2.8,3.2-5.2,5.6-6.9c2-1.4,2.9-2.6,2.4-4.9c-0.1-0.4-0.2-0.9,0.1-1.3c1.4,0.5-0.9,3.8,2.1,3c2.4-0.6,0.4-2.1,0.4-3.4
		c1.4,2.6,3.3,2,5.4,1.3c2.4-0.8,5-0.7,7.5-0.5c1.6,0.1,2.6-0.3,3.3-1.9c0.8-1.9,1.9-3.6,3.1-5.7c0.6,1.9,0.9,3.6,0.9,5.2
		c-0.1,2.6,0.5,4.8,3.4,5.6c0.3,0.1,0.6,0.2,0.8,0.4c1.9,1.8,3.8,2.6,6.1,0.7c0.1-0.1,0.5-0.1,0.7-0.1c0.1,0,0.2,0.1,0.5,0.3
		c-0.6,0.5-1.2,1-1.8,1.5c-0.4,0.3-1.6-0.2-1.3,0.8c0.2,0.6,1,1.2,1.7,1.6c0.9,0.5,0.8-0.7,1.2-1.1c0.5-0.6,0.8-1.4,1.3-2.3
		c0.1,0.3,0.2,0.5,0.1,0.6c-3.1,4.6,1.2,7.6,2.4,11.2c0.5,1.4,1.5,0.1,2-0.4c2.8-2.8,6.3-4.7,9.7-6.5c1.7-0.9,3.5-1.3,5.4-1.4
		c1.4,0,2.4-0.5,3.2-1.6l-0.1-0.1c-0.3,1.4,0.7,1.8,1.7,1.9c1.7,0.1,2.9,1.1,4.1,2c1.7,1.3,3.2,2.8,4.8,4.2c0.4,0.4,1.2,1,1.3,0.4
		c0.3-1.8,2-3.3,2-4.8c0.1-3.8,1.1-7.4,1.3-11.1c0.1-1.2,0.4-2.2,1.7-1.9c1.9,0.4,1.9-0.7,2-2c0.1-2.3,0.2-4.6,0.3-6.8
		c0-0.6,0.5-1.3-0.2-1.7c-0.7-0.3-1.5-0.2-2,0.4c-2,2.4-5,3.5-7,5.9c-1.5,1.7-2.8,3.7-4.8,5l0,0c-0.3-0.7,1-1.3,0.2-1.9
		c-0.6-0.5-1.3,0.3-2.1,0.2c2.6-1.3,5-2.7,6.8-5.3c1-1.5,1.5-2.4-0.3-3.4c-0.3-0.1-0.4-0.4-0.8-0.9c1.6,0.3,2.8,0.7,4.1,0.7
		c1.2,0,2.8,0.3,2.8-1.7c0-0.8,0.6-0.4,1-0.5c1.5-0.4,2.4-1,1.6-2.8c-2.8-6.8-2.4-13.9-1.3-20.9c0.5-3.2,1.4-6.4,2-9.6
		c0.4-1.8-0.1-2.9-1.9-4.2c-5.4-3.8-9.3-8.3-8.6-15.8c0.7-7.2,3.2-13.7,5.7-20.3c0.5-1.4,0.7-2.6,0.2-4.1
		c-3.2-9.8-0.2-18.2,5.6-26.1c0.1-0.1,0.3-0.1,0.4-0.2c0.4,0.3,0.3,0.8,0.1,1c-4.1,4.4-5.2,10-5.9,15.6c-0.3,2.6,0.4,5.4,0.8,8.1
		c0.1,0.8,0.9,1.6,1.8,0.4c0.4-0.6,0.8-1.1,1.9-1.6c-1.3,2.5-2.2,4.9-3.5,6.9c-1.8,2.9-2.4,6.3-3.7,9.3c-0.8,1.9-1.6,3.6-1.8,5.7
		c-0.3,3-1.2,6-0.5,9c0.6,2.6,1.8,5.1,4.1,6.8c2.6,1.9,4.5,4.9,7.8,6c0.9,0.3,0.6,1,0.1,1.5c-2.7,2.5-2.2,6.1-2.8,9.3
		c-0.1,0.6-0.3,1.3-0.3,1.8c-0.4,3-1.3,5.8-1,9c0.2,2.6,0.4,5.1,1,7.6c0.8,3.2,2.1,6.3,1.7,9.7c-0.3,2.2-0.4,4.5-0.6,6.8
		c-0.1,0.8-0.6,1.7,0.3,2.3c0.4,0.2,0.8,0,1-0.4c0.5-0.9,1.6-2.1,0.8-2.9c-0.9-0.8-0.3-0.8,0-1.2c1.5-1.9,3.4-3.7,4.2-5.8
		c1.2-3.4,4-5.9,4.5-9.5c0.2-1.1,1.3-2,2-3.1c2.2-3.7,3.9-7.8,6.5-11.3c0.3-0.4,0.3-0.7,0-1.3c-1-1.8-1.7-4.2-1.5-5.8
		c0.2-2.1,1.7-4.7,4.5-5.5c-1.8,1.8-3.5,3.7-3,6.5c0.2,1.1,0.5,2.8,1.7,2.7c1.1-0.1,1.3-1.7,1.2-3c-0.1-1.4-0.4-2.8,0.9-3.9
		c0,0.8,0.6,1.6-0.3,2.3c-0.5,0.4-0.4,1.3,0.5,1.5c1.3,0.3,2.3,1,2.8,2.2c0.2,0.4,0.5,0.7,0.9,0.4c0.9-0.7,1.9-1.5,1.9-2.8
		c0-1,0.1-1.7-1-2.5c-1.6-1.1-3.1-1.6-4.9-1c0.6-0.8,1.3-1.5,1.8-2.3c0.3-0.5,0.9-1.1,0.4-1.6c-0.7-0.7-1,0.3-1.4,0.6
		c-0.5,0.3-1,0.7-1.5,1c0.7-1.3,1.1-2.4,3-2.6c1.9-0.2,2-2.6,2.8-4.1c0.3-0.5,0.5-1.2,0.9-1.7c2.6-3.5,3.4-8,6.8-11.3
		c0.2,1.1,0.2,2.1-0.1,3.2c-0.3,1.1-0.3,2.2-0.5,3.5c2.1-0.5,1.9-3,4.3-4.1c-1.5,3.2-2.8,5.7-4,8.3c0.1,0.1,0.3,0.2,0.4,0.3
		c3.5-5.7,7.1-11.5,10.6-17.2c0.2,0.1,0.4,0.2,0.5,0.4c-2.2,4.7-5.6,8.6-7.8,13.2c-1.9,3.9-4.6,7.1-6.7,10.8c-0.6,1-0.3,1.7,0.1,2.4
		c1.2,2,1.3,4.1,0.9,6.4c-0.4,2.4-1.3,4.2-3.2,5.8c-1,0.8-2.1,0.8-2.9,0.8c-2.7,0.1-4.1,1.4-5.1,3.6c-0.9,2-1.8,4.2-3.1,6
		c-2.6,3.3-3.9,7.3-6,10.9c-2,3.4-4.3,6.9-5.3,10.9c-0.3,1.1-0.2,1.5,1.1,1.4c2.2-0.2,4.4-0.4,6.6-0.4c1.7,0,3.3,0.4,4.1-1.8
		c0.1-0.3,1.5,0.4,1.2,1.5c-0.3,1,0.1,0.9,1,1.1c3,0.5,5.9,1.4,8.9,2c2.5,0.5,5.1,0.8,7.6,1.3c2.9,0.6,5.8,0.2,8.6,1
		c2.3,0.6,4.8,1.1,7.4,1c1.8-0.1,3.6,0.8,5.5,0.1c1.1-0.4,2.4-0.8,0.3-2.2c1.2-0.1,1.9-0.2,2.8-0.3c-0.5,1-1,1.8-1.4,2.7
		c2,0.2,3.8,1.5,5.8,0.9c3.7-1.1,7.6,0.5,11.3-1c0.5-0.2,2.1-1,3.4,0c0.6,0.4,1.9-0.5,2.9-0.7c2.9-0.6,5.9-0.8,8.9-1.4
		c1.6-0.3,3.1-1.1,4.5-1.7c1.9-0.7,1-3.1,1.1-4.7c0.1-3.4,0.8-6.5,2.1-9.6c1.2-3,3-5.8,3.5-9.1c0.1-0.9,0.1-1.3-0.5-1.8
		c-1.9-1.6-3.6-3.6-5.5-5c-1.2-0.9-0.5-1.7-0.8-2.5c-1.3-3.7-3.2-7.2-4.3-10.9c-0.4-1.1-1.3-2.4-0.7-4.2c2,2.6,3,5.6,3.9,8.5
		c1.4,4.4,3.9,8,7.3,10.9c1,0.8,1.4,2.2,2.8,2.6c0.7,0.2,0,1-0.1,1.4c-3,7.4-5.4,14.9-6.8,22.7c-0.5,2.6,0.6,5.1,0,7.7
		c-1,3.9-2,7.8-3.2,11.7c-1.1,3.6-3.3,6.6-4.3,10.4c-0.9-2-1-2,0.2-3.3c0.4-0.5,0.8-0.8,0.5-1.4c-0.3-0.8-0.9-0.7-1.6-0.5
		c-1.2,0.3-2.1,0.8-2.8,1.9c-1.4,2.5-2.8,4.9-4.3,7.3c-0.7,1.2-0.6,2.3,0.2,3.3c1.5,1.7,1.8,3.2-0.5,4.5c-0.3,0.2-0.6,0.5-0.9,0.7
		c-0.7-0.6,0-1,0.1-1.5c0.3-1-0.2-1.2-0.9-0.9c-3.2,1.5-6.8,1.2-10.1,2.3c-2.5,0.8-4.7,1.5-5.8,4.4c-0.8,2.2-3.1,3.3-5.4,4.2
		c-2.7,1.1-1.5,3.5-1.6,5.4c-0.1,1.7,1.5,1.5,2.5,1.8c0.7,0.2,1.3,0.2,1.4-1c0.1-0.9,1.6-0.6,2.1-1.7c0.2,1.6-0.8,2.4-0.8,3.5
		c0,0.8-0.7,0.2-1.1,0.2c-8.2-0.8-15.7-3.8-23.1-7c-1.9-0.8-3.8-1.9-5.7-2.9c-3.2-1.7-6.7-1.3-9.9-0.5c-12.2,3.2-24.6,5.6-36.6,9.9
		c-8.7,3.1-17.7,5.5-26.4,8.5c-5.2,1.8-10.5,3.4-15.5,6.1c-5.1,2.7-10.7,4.4-16,6.8c-2.7,1.2-5.6,2.2-8.3,3.3
		c-0.7,0.3-1.5,0.5-2.1,1.3c1.5,0.7,2.8-0.6,4.8-0.1c-4.9,0.9-8.9,2.7-13.5,2.8c0.3-1.9,1.7-2.3,3-2.7c4.1-1.5,8.3-2.9,12.5-4.3
		c1.3-0.4,2.1-0.9,2.3-2.5c0.6-5.2,7.9-8.3,11.8-4.8c0.8,0.7,3.6,0.3,4-0.7c0.5-1.1-0.7-1-1.2-1.2c-0.4-0.2-0.9-0.4-0.6-1
		c0.4-0.6,0.7-0.2,1.1,0.1c2.5,1.5,4.2,1.4,6.4-0.6c0.8-0.7,1.5-1,2.6-1c1.3-0.1,2.7-0.6,1.6-2.8c1.8,2.8,3.4,1.8,4.9,0.2
		c1.6-1.7,4-1.8,5.8-3.2c0.4,0.7-0.8,1.2,0,2c4.5-1.3,9.2-2.9,13.9-4.1c5.9-1.5,11.5-4.1,17.4-5.7c1-0.3,2.2-0.3,3.2-0.7
		c1.2-0.5,1.6-1.3,0.3-2.2c-2.3-1.5-2.4-4.3-4.1-6.2c-0.3-0.3,0.1-0.3,0.3-0.4c2.1-1.6,4.6-1.2,6.6,0.9c1.4,1.4,3,2.8,5.2,3.2
		c1,0.2,2.2,0,2,1.6c0,0.3,0.4,0.6,0.7,0.4c1.5-1,3.5-0.2,5-1.3c0.3-0.2,0.8-0.2,0.8-0.7c0.1-0.5-0.4-0.6-0.7-0.8
		c-2-1.3-4.7-1.1-6.6-2.3c-3.5-2.2-8-2.4-11-5.4c-0.6-0.6-0.7-1.6-1.4-2.3c4.3,0.8,8.7,1.6,13,2.4c0.3-0.7-0.1-1-0.4-1
		c-3.8-0.9-6.6-3.7-9.8-5.6c-0.7-0.4-0.5-0.9-0.4-1.4c0.2-0.8,0.8-0.2,1.2-0.2c3.2,0.1,6.3,1.3,9.5,1.7c2.7,0.4,5.3,0.3,8,0.1
		c1.7-0.2,3.6,0.6,5.4,1c0.1,0,0.3,0.3,0.3,0.3c0.8-0.6,2.3,0,2.5-0.9c0.3-1.5-1.3-0.7-1.9-0.9c-4-1-8.3-1.3-11.9-3
		c-3.2-1.6-6.5-2.5-9.9-3.6c-0.3-0.1-1.1-1.1-1.6-1.7c-1.7-2.2-4-3.8-5.6-6c-0.5-0.6-0.5-1.3-0.1-2c2.1,0.4,3.8,1.8,5.3,3.1
		c1.9,1.7,4,2.2,6.4,2.3c0.4,0,0.8,0.1,1.1,0.3c6.7,4.2,14.1,5.6,21.8,5.8c8,0.2,16-0.1,24-0.8c2.7-0.2,5.3-1.4,8-1.6
		c5.9-0.6,11.6-1.7,17.3-3c3.7-0.9,7.5-1.5,10.7-3.9c1.2-0.9,2.9-1.5,4.4-1.3c1.3,0.2,1.5-0.4,1.8-1.2c1.5-3.5,1.7-7.1,1.8-10.8
		c0-1.2-0.4-1.4-1.6-1.3c-3.9,0.5-7.7,1.3-11.7,1.4c-6.2,0.2-12.3,1-18.5,0.8c-8.2-0.3-16.2-1.9-24.3-2.8c-7.4-0.9-14.6-2.7-21.9-4
		c-4.9-0.9-9.8-0.8-14.8-0.4c-2.6,0.2-5.2,0.8-7.9,0.6c-1.5-0.1-2,0.4-2.1,1.8c-0.3,3.1-0.6,6.1-1,9.1c-0.2,1.2,0.7,1.8,1.6,2.7
		c-3.3-1.1-2.9,1-3.1,2.7c-0.4,3.1,0.4,5.6,3,7.4c0.6,0.5,1,1.3,1.5,1.9c-1,0.7-2.1-1.2-2.8,0.2c-0.8,1.8-1.3,3.8-0.8,5.7
		c0.8,2.9,1.1,5.4-1.7,7.8c-1.9,1.7-1.3,4.7-1.6,7.2c-0.2,1.7-0.2,3.5,0.3,5.5c-1-1.7-1.9-1.2-3.2-0.6c-3.9,1.9-7.8,3.4-11.8,5.1
		c-0.7,0.3-1.5,0.3-2.8-0.1c3.7-1.6,6.9-3,10.1-4.4c1.9-0.8,3.9-1.7,5.8-2.5c2-0.8,1.2-3.3,0.7-4.2c-2.2-4.1-2-8.6-3.8-13.3
		c2,1.6,1.2,3.9,2.8,5.3c1-2.1,0-4.1,0-6.3c1.3,1.8,0.7,4.3,3.1,5.5c-0.3-2,0-4-0.7-5.8c-0.7-2,1.1-3.1,1.8-4.6
		c0.7-1.6,0.8-2.5,0-4.1c-0.9-1.8-1.9-3.6-3.2-5.1c-3.4-3.9-7.5-6.6-12.9-6.6c-2.3,0-4.4,0.9-6.1,2.2c-3,2.4-6.5,4-9.3,6.8
		c-1.6,1.6-1.4,3.3,0.8,4.2c2.2,1,4.4,1.9,6.6,3.1c-5-0.3-9.1-3.5-14-4.5c1.3-0.8,2.5,0,3.9,0.3c-0.1-6.5-3.5-11-8.1-14.8
		c-1.4-1.2-2.8-2.5-4.6-3.2c-0.5-0.2-1.4-0.5-1.2,0.2c0.4,1.4-0.7,2.6-0.1,3.8C281.2,322.2,280.2,322,279.6,322.2
		c0-4.4,0.2-8.9-0.8-13.6c-0.4,0.4-0.8,0.5-0.9,0.8c-1.6,3.5-3.3,6.9-4.8,10.4c-0.8,1.8,0.7,3.3,2.9,3.5
		C277.5,323.4,278.3,322.2,279.6,322.2z M376.1,350.4c0.9,0.4,0.9-0.6,1.5-0.7c2.4-0.4,5,1.1,7.3-0.6c0.3-0.2,1.2,0,1.3,0.2
		c0.4,1.2,0.8,0.5,1.5,0.4c1.8-0.3,3.5-1.6,5.4-0.7c2.6,1.2,4.7-0.2,6.7-1.6c1-0.6,1.8-1.4,2.8-2.1c0.3-0.2,0.7-0.5,0.5-0.9
		c-0.3-0.5-0.8-0.4-1.2-0.2c-2.6,1.4-5.6,1.1-8.3,1.3c-2,0.2-4.2,0.4-6.3,0.3c-2.7-0.1-5.5-0.9-8.2,0.3c-1.9,0.9-3.8-0.2-5.7-0.3
		c-0.9,0-1.5,0.2-1.9,1c-0.2,0.5-0.3,0.9,0.1,1.3c0.5,0.7,3.8,0.6,4.6-0.1C376.1,349,376.1,349.7,376.1,350.4z M285.1,363.1
		c0-0.2,0.2-0.4,0.1-0.6c-0.6-4.2-1.5-8.3-1.5-12.6c0-1.2-1.1-1.5-2.2-1.7c-1.4-0.3-2,1.2-2.9,1.3c-2.7,0.5-2,1.8-1.2,3.4
		C279.3,356.8,282.9,359.4,285.1,363.1z M268.5,360.3c-0.6,1-1.3,1-2,1c-0.6,0-1.2,0.1-1.1,0.8c0.1,0.9,0.8,0.8,1.4,0.7
		c0.3,0,0.6-0.2,0.9-0.1c4.6,1.8,8.8-0.3,13-1.5c0.6-0.2,1.3-0.7,0.5-1.3c-0.6-0.5-0.7-2.1-1.8-1.2c-2.2,1.8-4.7,2-7.3,1.6
		c-1.8-0.3-4.4-0.6-5-1.7c-1.5-3.1-1.8-0.8-2.7,0.4C265.9,359.2,266.8,360.7,268.5,360.3z M272.8,383.3c-2.8-0.2-6.4,2.6-7,5.1
		c-0.3,1.6,0.5,1.6,1.6,1.2c2.4-0.9,4.8-1.8,7.2-2.8c0.8-0.3,2.2-0.2,2-1.5c-0.2-1.2-1.4-1.5-2.5-1.8
		C273.7,383.3,273.2,383.3,272.8,383.3z M367.7,269.3c0-0.5,0-0.9,0-1.4c-0.1-1,0-2.5-1.1-2.6c-1.3-0.1-1,1.4-1,2.4
		c0,2.2-0.7,4-2.6,5.2c-0.9,0.6-1.5,1.5-2.1,2.5c-0.8,1.4-0.2,1.6,1.1,1.5C365.2,276.6,367.7,273.3,367.7,269.3z"/>
	<path d="M342.6,136.1c-1.6-0.6-2.8-1.4-2.2-3.4c1.9-5.9,3.2-12.1,5.7-17.9c0.8-1.9,2.1-2.8,3.3-3.8c2.9-2.6,5.9-5.2,9.6-6.6
		c4.8-1.9,9.6-4.1,14.7-4.7c3.6-0.4,7.3,0.4,10.4,2.2c5.7,3.3,10.7,7.7,15.4,12.4c3.4,3.4,4.8,7.9,7.1,11.9c3.1,5.7,2.7,11.8,3,17.9
		c0.3,6,0.3,12-0.8,18c-0.3,1.6-0.7,2.9-2.6,3c-0.7,0-1.2,0.4-1,1.2c0.7,2.4-0.1,5,1.3,7.3c-2-2.1-2.5-4.7-3-7.4
		c-0.3-1.8-0.3-1.9-2-1.6c-0.5,0.1-0.4-0.3-0.5-0.5c-0.2-0.3-0.3-0.9-0.5-1c-1-0.3-1.6-1.9-2.5-1.5c-1.1,0.4,0.1,1.7-0.1,2.5
		c-0.1,0.3,0,0.6,0,1.2c-1.2-1-1-2.3-1.4-3.3c-0.2-0.5-0.1-1.1-0.2-1.6c-0.2-1.1-0.5-2.2-1.8-2.1c-1.7,0.1-0.2,1.6-0.9,2.3
		c-0.7-0.3-0.8-1-1-1.6c-0.2-0.5,0-1.5-0.8-1.5c-1,0-0.3,1.2-1,1.7c-0.6-1.1-1.2-2,0.7-2.4c0.3-0.1,0.6-0.3,0.5-0.7
		c-0.1-0.5-0.5-0.6-0.9-0.5c-1.6,0.4-3.4,0.6-3.4,3c-0.9-0.6-0.7-2.6-1.9-2c-1.4,0.7-0.1,2.4-0.4,3.7c-1.1-0.7-2.2-1.4-3.2-2.1
		c-0.6-0.4-1-1.7-1.8-0.9c-1.2,1.2,1.1,0.9,0.9,2.3c-2.8-1.6-5.8-2.4-8.3-5.3c3,1.3,5.5,1.8,8.1,1.9c0.7,0,1.9,0,1-1
		c-2.6-2.7-1.9-6.2-2.5-9.4c-0.1-0.6,0-1.3,0-1.9c-0.1-1.8-0.8-3.1-2.9-2.7c-0.4,0.1-0.8,0-1-0.5c0.3-0.6,1.1-0.4,1.6-0.8
		c0.4-0.3,1.1-0.4,0.8-0.9c-0.3-0.8-0.9,0.2-1.3,0c-0.3-0.5,0.2-0.7,0.4-0.9c1.6-2.5,0.7-4.3-2.2-4.6c-5.2-0.6-10.4-0.7-15.7-0.1
		c-3.3,0.4-6.6,0.4-9.8,0.6c-1.6,0.1-3.4,0.1-4.5,1.5C344.1,136.7,343.2,135.3,342.6,136.1L342.6,136.1z M359.9,113.9L359.9,113.9
		c-0.6,0.7-1,1.2,0.2,2.1c1.5,1.2,3.6,0.9,4.9,2.4c0.3,0.4,0.3,1.6,1.1,0.9c0.7-0.6,2.4-0.1,2.1-1.8c-0.1-0.6-0.1-1.2,0.4-1.8
		c0.8-0.8,0.2-1.4-0.5-1.6c-1.3-0.3-0.9-1.1-0.9-2c0-0.7,0.5-1.1,1-1.1c1-0.1,1.2,0.9,1.8,1.5c0.2,0.2,0.3,0.6,0.3,0.9
		c0.1,2.3,1.5,3.1,3.6,3.6c-0.1-1.2-0.5-2.1-1.2-2.8c-1-1.1-1.3-2.5-0.5-3.9c0.3-0.6-0.1-0.9-0.4-1.2c-0.5-0.4-1.2-0.7-1.4-1.9
		c1.8,1.8,4.4,0.9,6,2.7c-1.1-0.6-1.8,0.6-2.9,0.5c-0.6,0-0.8,0.7-0.4,1c0.9,0.8,1.8,1.5,2.8,2c0.3,0.2,1.1,0.4,1.5-0.3
		c0.3-0.5-0.2-0.9-0.5-1.1c-0.7-0.6-0.4-1.4-0.6-2.2c1.1,0.4,2.4,1.1,2.4-1.1c0.7,0.5,0.3,1.2,0.6,1.6c0.3,0.4,0.6,0.4,1,0.2
		c0.4-0.2,0.9-0.5,0.6-0.8c-0.9-0.7-0.3-2.6-2.2-2.5c-2,0-4-0.6-5.3-2.4c-0.7-1-1.9-0.4-2.8-0.2c-0.7,0.2-1.5,1-2.1,0.9
		c-1.2-0.3-1.8,0.4-3,0.8c0.5,0.3,0.6,0.5,0.8,0.5c1.1,0,2.1,0.2,2.3,1.5c0.1,0.6-0.1,1.2-0.7,1.4c-1.2,0.5-1.8-0.5-2.5-1.2
		c-0.9-0.9-1.9-1.4-3.4-1.2c-1.2,0.2-1.7,0.4-1.6,1.5c-0.8-0.1-0.7-1.2-1.3-0.9c-1.7,0.2-0.3,3.1-2.8,2.7c-0.6-0.1-1,0.4-1,1.1
		c0,0.7-0.3,1.5,0.4,2c0.6,0.4,1-0.3,1.3-0.6C358.4,111.7,359.3,112.2,359.9,113.9z M393.5,138.4c-2-0.2-3.2,1.5-2.7,2.8
		c0.2,0.6,0.2,1.4,0.3,2c0.1,3.3,0.1,6.6,0.1,9.9c0,1.7,1.2,2.1,2.3,2.2c1,0.1,2.8-0.5,2.6-1.3c-0.6-2.3,1.2-3.5,1.7-5.3
		c0.8-2.8,2-5.5,0.1-8.3C396.7,138.7,395.4,137.3,393.5,138.4z"/>
	<path d="M268.3,392.7c6.1-2.4,12.3-4.8,18.5-6.9c6.8-2.3,13.5-5.1,20.4-7.2c6.6-2.1,13.4-3.9,20.2-5.5c5.7-1.3,11.6-1.9,17.4-3.1
		c7-1.5,14-2.3,21.2-1.8c1.4,0.1,3.3-0.4,3.6,1.9c0,0.2,0.6,0.4,1,0.4c2.9,0.3,5.2,2,7.8,3c5.4,2.1,11,3.7,16.7,4.5
		c2.8,0.4,3,0.6,2.7,3.4c-0.2,1.6,0,3.1,0.6,4.6c1,2.3,1.1,4.7,0.4,7.2c-1.2,4.8-1.2,5,3.2,7.3c0.9,0.4,0.6,1.4,1.3,1.8
		c1.4,0.9,4.2,0.6,5.7-0.8c0.8-0.8,1.3-4.7,0.5-5.4c-1.2-1-1.2,1-2.1,1.1c-0.8-1.8,2.2-3.7-0.2-5.5c2,0.6,2.9,2.1,3.2,3.9
		c0.2,1.2,0.3,2.3,0.4,3.5c0,1.4,0.7,2.1,2.1,2.4c3.1,0.7,3.6,0.3,3.9-2.9c0.1-1.5,0.9-2.9-0.4-4.8c2,0.8,2.5,1.9,2.7,3.3
		c0.4,3.2,1.5,4.4,3.9,4c2.6-0.4,4.3-2.9,3.9-5.9c1.8,4,4.7,4.2,7.8,2.3c1.4-0.9,1.3-2.6,1.3-4c0-1.1-0.9-0.4-1.8-0.4
		c5.7-8.8,7-19.1,11.5-28.2c0.6-1.3,0.1-1.4-1-1.8c-7-2.4-14-4.6-19.9-9.4c-0.2-0.2-0.4-0.4-0.5-0.8c2.8,1.7,5.5,3.5,8.4,4.8
		c1.6,0.7,3.2,1,4.9,1.4c0.4,0.1,1.1,0.8,1.4-0.1c0.2-0.7-0.3-1-0.9-1.1c-0.4,0-0.8,0-1-0.4c0-0.4,0.2-0.3,0.4-0.4
		c1.5-0.4,1.7-0.9,0.7-2.1c-0.2-0.3-0.3-0.7-0.5-0.9c0.4-0.8,1.1,1.1,1.4-0.2c0.1-0.2,0.1-0.5,0.4-0.4c0.1,0,0.1,0.4,0.1,0.5
		c0,1.3,1.2,1.5,2,2c0.4,0.3,1.2,0.4,1.4-0.3c0.2-0.6-0.5-0.6-0.9-0.8c-1.4-0.7-1.4-0.9,0-1.8c0.5-0.3,0.3-0.7,0-0.9
		c-0.2-0.2-0.6-0.3-0.8-0.4c-0.2-0.1-0.4-0.3-0.7-0.5c0.9-0.5,1.6,0,2.3,0.3c1.8,0.7,3.6,1.4,5.6,1.7c0.8,0.1,2.3-0.3,2.3,0.9
		c-0.1,1.2-0.7,2.7-2,3.1c-1.1,0.3-1.8,0.4-1.6,1.7c0.2,1-0.6,0.7-1.1,0.7c-1.7-0.1-3.5-0.1-5-1c-0.4-0.2-1-0.3-1.2,0.3
		c-0.2,0.6,0.4,0.6,0.9,0.8c2.5,1.2,5.1,1.9,7.9,2.1c0.8,0,1.3,0,1.7-0.7c1.5-2.6,3.2-5.1,4.6-7.7c0.9-1.6,1.3-3.4-0.5-4.9
		c-0.8-0.6-0.5-1.2,0.3-1.7c2,2.7,1.7,5.4,0.1,8.1c-1.4,2.4-2.8,4.9-4.2,7.3c-0.3,0.6-1.1,1.3-1.6,1.3c-2.8-0.1-3.3,2.2-3.9,3.9
		c-1.4,3.9-2.5,7.9-3.9,11.8c-0.7,1.9-0.3,2.5,1.7,2.7c7.8,0.8,15.5,2.4,23.5,1.6c5.2-0.5,9.1,2.6,13,5.4
		c9.2,6.6,17.3,14.5,26.1,21.6c5,4.1,9.3,8.9,14.1,13.1c4.5,3.9,8.9,7.9,13.3,12c1.2,1.1,2.3,2.2,3.2,3.4c2,2.5,4.9,3.7,7.8,4.9
		c-2.5-0.7-1.4,1-1.3,2c-3.2-3-6.3-6.1-9.6-9.1c-5.5-5-11.1-10-16.6-15c-6.2-5.6-12.3-11.4-18.7-16.9c-6.2-5.3-12.5-10.5-19-15.5
		c-4.3-3.4-9.1-5.6-15-4.9c-6.4,0.8-12.8,0-19.2-0.9c-1.6-0.2-3.4-1.9-4.7-0.5c-1.2,1.2-1.6,3.2-2.4,4.8c0,0.1-0.1,0.1-0.1,0.2
		c-0.7,1.6-0.1,2.5,1.5,2.7c2.8,0.4,5.6,0.8,8.4,1c7.1,0.6,14.1,1.2,20.9,3.2c4.1,1.2,8.4,2.3,11.5,5.5c-5.4-2.7-10.9-5-16.9-5.8
		c-6.5-1-13.1-1.7-19.6-2.6c-1.2-0.2-1.9,0.2-2.7,1c-2.2,2.2-4.2,4.7-7.5,5.4c-1.2,0.3-0.7,1.5-0.6,2.2c0.3,2.2,1.1,4.4,1,6.5
		c-0.2,4.4,0.9,8.6,0.8,12.9c-0.6-4.4-1.5-8.7-2.2-13c-0.3-2-0.7-4-1-6c-0.2-1.3-0.8-2-2.1-2.5c-1.4-0.6-1.6,0.5-2.2,1.1
		c-1.5,1.5-4.9,2.3-6.7,1.4c-0.9-0.5-1.3-0.3-2,0.3c-1.4,1-3,1.5-4.7,0.8c-2-0.8-3.7-0.4-5.3,0.7c-1.3,0.8-2.6,0.7-4,0
		c-1.9-0.9-3.5-2.2-5.2-3.3c-1.8-1.1-1.8-3-1.3-4.9c0.6-2.2,0.8-4.4,0.5-6.7c-0.5-3.9-1.7-4.6-5.6-4.2c-4.4,0.4-8.2,2.5-12.2,4
		c-1.3,0.5-1.4,0.7-1.6,2.3c0,0.2-0.3,0.5-0.6,0.7c-6.8,3.5-10,9.6-12.4,16.4c-0.4,1.1-0.6,2.8-2.5,0.7c-1.5-1.6-3.9-2.4-5.9-3.7
		c-2.8-1.9-5.1-4.2-7.1-6.8c-2.7-3.7-5.1-7.6-8-11c-1.8-2.1-2.9-4.7-4.6-6.8c-1-1.1-0.5-2.5-1-3.7c1,0.2,1.9,0.3,3,0.5
		c-1.6-2.7-4.6-4.1-7.1-3.4c-2,0.5-4,1-6,0.9c-1.4,0-1.8,0.5-1.9,1.9c-0.2,4.8-1.4,9.4-2.5,14.3c-0.7-1.2-0.3-2.2-0.1-3.2
		c1.1-3.7,0.8-7.5,1.5-11.2c0.2-1.2-0.4-1.4-1.4-1.1c-5.5,1.6-11,3.2-16.5,4.9c-2.2,0.7-1.6,2.5-1.1,3.7c0.9,2.2,0.8,4-0.2,6.1
		c-0.5,1-1,1.5-1.9,1c-1.9-1-4.3-0.9-5.9-2.6c-0.4-0.4-0.9-0.5-1.3-0.2c-3,1.9-6.1,0.8-9.1,0c-0.9-0.2-1.7-0.4-2.4,0.4
		c0.2,0.9,1.1,0.7,1.5,1.3c-0.6-0.1-1.2-0.3-1.8-0.4c-2.7-0.6-2.7-0.6-2.9,2.2c0,0.7-0.2,1.4-0.4,2.1c-1.1,2.5-3.7,3.7-5.8,4.2
		c-2.1,0.5-5,0-6.3-2.6c-0.9-1.7-1.9-2.1-3.6-1c-0.3,0.2-0.9,0.2-1.3,0.2C264.7,393.5,266.5,393,268.3,392.7
		c-0.7,0.7-0.5,1.5,0.1,2.3c1.4,1.9,3.4,2.5,5.5,2c2.3-0.7,4.8-1.7,5.6-4.2c0.3-1,0.8-2.5-0.3-3.3c-0.9-0.6-1.9,0.5-2.8,0.8
		c-0.7,0.2-0.5,0.9-0.7,1.4c-0.5,1.1-1.5,2.1-2.5,1.6C271.4,392.2,269.9,392.6,268.3,392.7z M302.1,382.1c-4.3,1.6-8.6,2.8-12.9,4.1
		c-0.3,0.1-0.6,0.2-0.6,0.6c0,0.6,0.4,0.5,0.8,0.6C294.9,388.8,298.3,384.9,302.1,382.1z M300.1,389.3c3.1-0.1,4.8-2.6,3.5-4.8
		c-0.4-0.7-1-1.2-1.5-0.1c-0.7,1.6-2.3,2.1-3.6,2.8c-0.4,0.2-1,0.1-1,0.8c0.1,0.6,0.6,0.6,1,0.8
		C299.3,389.1,299.9,389.2,300.1,389.3z M397,381.6c-0.1-0.7,0.3-1.7-1-1.7c-1,0-1.4,0.7-1.4,1.5c-0.1,1.2,0.8,1.7,1.7,1.8
		C397.2,383.3,396.8,382.2,397,381.6z M439.1,394c0-0.8-0.4-1.1-1.1-1.1c-0.9,0-1.4,0.6-1.4,1.5c0,0.5-0.2,1.3,0.7,1.1
		C438,395.3,438.9,395,439.1,394z"/>
	<path d="M372.2,446.3c1.2,0.3,1.1,1.5,1.3,2.3c0.7,4.1,2.4,7.8,3.5,11.7c1.3,4.2,2.6,8.4,3.6,12.6c0.7,3-0.6,6.2-1.1,9.3
		c-0.5,3.6,0.1,6.8,2.4,9.8c0.8,1,1.4,1.4,2.6,0.5c-0.1,5.3-0.1,10.2,0.2,15.2c0.2,2.5,1,5,1.8,7.3c1.1,3.1,1.5,6.1,1.2,9.3
		c-0.9,7.8,1.8,14.8,4.5,21.9c1.5,3.8,3.1,7.4,5.1,11.2c-0.6-0.1-0.8,0-0.9-0.1c-0.6-0.8-0.7-2.2-2-2c-1.4,0.2-1.3,1.7-1.4,2.7
		c-0.4,3.3-0.7,6.7-0.6,10.1c0.1,2,1,3.5,2,5.1l0.1-0.1c-2.7-1.5-3.9-4.1-4-6.9c-0.1-1.9,0.1-3.7,0.6-5.7c0.4-1.5,0.9-3.1,0.8-4.8
		c0-0.4,0-0.9-0.5-0.9c-0.2,0-0.6,0.4-0.6,0.5c0.1,1.4-1.1,2.1-1.8,3c-2.1,2.6-3.4,5.5-3.8,8.7c-0.2,2,0.3,4.2,0.8,6.3
		c0.6,2,0.1,4,0.6,6c0,0.2-0.1,0.5-0.3,0.6c-1.8,0.9-1.8,2.9-2.6,4.4c-1.1,1.9-1.1,3.6-0.3,5.3c2.8,6,6.5,11.3,12.1,15.1
		c0.7,0.5,1.6,0.9,2.5,1.1c1.9,0.4,3.7,0.6,5.6,1.6c4.3,2.4,9.3,3.3,14.3,2.1c1.5-0.4,3-0.3,4.6-0.6c1.9-0.3,3.4-1.4,5.1-2
		c2.7-0.9,5.3-2.7,7.6-4.5c3.9-3.1,8.4-5.6,12.1-9c2.5-2.2,5.2-4.1,7.2-6.9c2.7-3.6,3.8-7.3,2.7-11.8c-0.7-2.7-0.9-5.4-2.4-7.8
		c-0.2-0.3-0.1-1-0.6-1.1c-0.7-0.1-1.1,0.6-1.4,1.1c-0.7,0.9-0.3,2.2-1.1,3.1c-0.3,0.3-0.3,1.1-0.9,0.6c-0.2-0.2-0.4-0.6-0.2-1
		c0.8-1.8,0.9-3.8,1.1-5.7c0.1-1.1,1-2.6,1.1-4c0.3-4,0.8-7.7-1.8-11.6c-1.7-2.6-3.4-4.6-6.1-6c-0.7-0.4-1.2-1.1-1.8-1.8
		c-0.9-1-2-1.7-3.6-1.9c0.3,2.3,2.4,3,3.1,4.8c0.7,1.8,1.5,3.6,1.9,5.5c0.9,4.2,1.4,8.2,0.6,12.5c-0.5,2.7-2.8,4-4.2,5.8
		c-1.7,2.2-4,4-6.9,4.8l0,0c0.1-0.8,0.7-1.1,1.3-1.5c8.2-4.9,10.6-10.5,8.7-20.1c-0.8-4-2.1-7.5-4.8-10.6c-0.5-0.6-0.7-1.5-1.6-0.2
		c-0.8,1.2-1.2-0.3-1.4-0.8c-1.4-2.8-2.2-5.9-2.9-8.9c-0.6-2.5-1.1-5.1-1.4-7.6c-0.1-1.7-0.8-1.2-1.9-0.6c2.4-9,1.2-17.7-0.1-26.4
		c-1.4-9.2-0.9-18.3,0.8-27.4c1.6-8.9,1.9-18,2.6-27c1,0.3,0.7,1.1,0.7,1.7c-1.4,10.3-1.2,20.7-3,30.9c-1.1,6.1-1.7,12.3-0.4,18.7
		c1.2,5.8,0.9,11.9,1.7,17.8c0.7,5.6-0.4,11.3,1.3,16.8c0.9,2.8,1.9,5.6,2.9,8.4c0.4,1.1,1.3,1.4,2.3,1.8
		c6.2,2.2,11.1,5.9,14.4,11.8c1.9,3.5,1.1,7.3,1.1,10.8c0,2.5,0.6,4.5,1.7,6.6c2.5,4.9,3.7,10.2,2.2,15.4c-1.3,4.5-3.7,8.5-7.9,11.4
		c-2.6,1.7-4.6,4.2-7,6.3c-0.8,0.8-1.1,1.6-1.1,2.7c0.1,3.7,0.1,7.4-1.5,10.9c-2.1,4.7-1,9.8-1.8,14.7c-0.4,2.1,0.6,4.2,0.7,6.1
		c0.3,5.5,2.9,10.3,4.4,15.4c0.6,2-0.6,3.7-1.6,5.3c-1.8,2.9-2.7,5.7-1.7,9.3c1.3,4.4,1.4,9,0.3,13.7c-0.1-0.8-0.2-1.4-0.3-2.3
		c-1.6,1.2-2.4,3.4-4.4,3.4c-2,0-3.1,2.5-5.3,1.7l0,0c2-0.7,3.6-2.1,5.8-2.7c3-0.7,4.6-5.7,3.3-8.7c-0.1-0.3-0.4-0.5-0.1-0.8
		c0.5-0.5,0.3-1-0.2-1.4c-0.8-0.6-0.7,0.8-1.7,0.6c0.8-0.9,0.1-2.1,1.3-3.1c1.1-0.9-0.8-1.6-0.7-2.9c0.3-1.9,0.2-3.7,1.5-5.2
		c2.7-3.1,2.9-6.4,1.2-10.1c-0.9-2.1-1.6-4.1-3.1-5.9c-0.6-0.6,0.5-1.9-0.3-2.8c1.4-1,0.2-1.9-0.1-2.8c-0.7-2.2-0.9-4.3-0.2-6.5
		c0.4-1.2,0.6-2.7,0.3-4c-0.3-1.5,0-2.8,0.1-4.2c0.6-5.8,3.6-11.1,2.8-17.3c-0.7,0.3-1.5,0.8-2.3,1.3c-4.4,2.9-9.3,4.7-13.3,8.2
		c-0.5,0.4-1-0.4-1.7-0.2c-2.5,0.9-5.4,0.6-7.7,2.2c-0.5,0.3-1.5-0.6-2.3-0.9c-1.8-0.5-3.7-0.6-5.6-1.1c-6.9-2.1-12.6-6.4-18.4-10.3
		c-2.5-1.7-3.5-5.1-5-7.9c-0.4-0.7-0.7-1.9-1.5-1.9c-1.2,0.1-0.9,1.4-1.1,2.3c-0.8,3.7-2.3,7.3-2.9,11.1c-0.3,1.6,0.1,3,0.4,4.3
		c0.5,2.3,0.8,4.4,0,6.7c-0.6,1.8-0.3,3.6,0.7,5.2c1.3,2.3,2.1,4.6,0.6,7.1c-0.2,0.4,0,1.1-0.1,1.6c-0.6,4.7-1.3,9.4-2,14.4
		c-1.2-2.1-1.4-4.1-0.6-6.8c0.3-1.2,0.7-2.3,0.9-3.5c0.1-0.6,1.4-1.1,0.3-1.7c-0.9-0.5-0.8,1-1.8,1c-0.8-1.9,0.5-3.5,1.4-4.7
		c1.4-1.9,1.9-4.9,0.2-6.5c-0.7-0.6-0.8-1.5-1.6-2c-0.5-0.3-1-0.9-1.7-0.6c-0.7,0.3,0.3,1-0.4,1.4c-0.8-1.5-1.6-2.9-2.6-4.7
		c1.4,0.6,2.5,1.2,3.7,1.5c0.7,0.2,2.3,0.8,1.4-1.2c-0.1-0.2,0.2-0.5,0.3-0.8c1.1-3.7-0.3-7.2-0.7-10.7c-0.1-0.7-0.2-1.4-0.2-2.2
		c0.1-1.5,0.7-2.9-0.3-4.5c-0.8-1.3,0-3.3,0.5-5c0.5,0.9,0.7,1.9,1.6,2.3c-0.6,0.9-1.4-0.4-1.7,0.4c-0.3,0.8,0.3,0.9,0.8,1.3
		c0.5,0.4-0.5,2,0.7,1.9c1.3-0.1,0.7-1.7,1-2.6c1.3-4.8,1.1-9.7,1.8-14.6c0.3-2.1-0.4-4.4-0.3-6.7c0.1-1.9-2-3.1-4-2.2
		c-3.3,1.5-6.8,2.8-10.2,3.9c-2.9,0.9-6.1,1.8-9.5,1.9c-2.6,0-5.5-0.3-8.1,1.2c-0.7,0.4-2.1-0.1-3.1-0.4c-2.4-0.7-5-1-7.2-2.4
		c-0.7-0.5-0.8,0.1-0.9,0.5c-0.6,2.1-1.3,4.1-0.9,6.4c0.4,2,0,4.2-0.1,6.2c0,0.8-0.6,1.7-0.1,2.5c0.5,0.7,1-0.1,1.4-0.2
		c1.1-0.4,1.6-1.2,1.5-2.4c-0.1-1-0.2-2.1,0.7-2.9c0.2,1,0.2,1.9,0.7,2.9c0.3,0.7,0.3,1.6-0.6,2.4c-3.1,2.6-4.9,6-5.6,10.1
		c-0.2,1.1-1.3,2-2,3c-0.3,0.5-0.6,1,0,1.4c0.5,0.3,0.8-0.3,1.2-0.4c1.4-0.6,3-0.5,4.5-1.1c1.1-0.4,2.3-0.4,3.2-1.4
		c-0.4,1.7-1.8,2.3-3.2,3.2c-2.7,1.7-6.3,0.2-8.7,2.8c-0.4,0.4-1.7,0.1-2.7,0.6c-2.6,1.4-1.6,4-2.5,5.9c-0.2,0.5,0.7,1.5-0.7,1.5
		c-0.3,0-0.3,0.5,0,0.8c0.7,0.6,1.4,0.4,2.2,0.1c2.1-0.7,4.2-1.6,6.5-1.8c0.4,0,1-0.2,1.4,0.6c-2.4-0.7-3.8,1.3-5.8,1.9
		c-1.1,0.3-2.5-0.4-3.4,0.7c-1.1,1.2-2,2.5-3.7,3c-0.6,0.2-1.1,0.7-1.2,1.4c0,0.7-0.5,1-1,1.2c-3.1,1.2-5.4,3.7-8.4,5.1
		c-0.7,0.3-1.6,0.8-1.4,1.8c0.2,0.8,0.6,1.5,1.6,1.8c1.2,0.3,2.4,0.2,3.6,0.2c1,0,2,0.2,2.8,1.2c-3.1-0.4-6.4,0-9.1-1.7
		c-1.8-1.2-3.6-1.6-5.5-0.9c-2,0.7-3.5,2-4.4,4c-0.3,0.6-0.7,0.9-1.3,0.3c-1.1-1.1-1.2,0.5-1.8,0.7c-0.4,0.1-0.6,0.6-0.4,1
		c0.4,0.7,1.2,0.4,1.7,0.4c1.2,0,2.6,0,3.7-0.5c1-0.5,1.9-0.5,3-0.2c-2.4,0.8-4.6,2.3-7.4,2c-3.9-0.4-7.7-0.2-11.2,2.1
		c-0.2,0.1-1.4,0.2-2.5,0.4c2-2,4.2-2.4,6.3-2.8c2.8-0.6,5.2-1.5,7.2-3.9c2.7-3.1,6.1-5.3,10.5-4.6c1.7,0.3,2.8-1,4-1.8
		c3.9-2.7,7.9-5.3,11.1-8.9c0.6-0.7,1-1.3,1-2.2c0-1.7,0.5-3.3,0.7-4.9c0.4-2,1.5-3,3.2-4.1c5.3-3.5,8.9-8.2,9.2-14.8
		c0.2-4.6,0.3-9.3,0.4-14c0-1.6,0.9-3,1.3-4.5c0.4-1.5,0.6-2.6-1.5-3.2c-1.6-0.5-2.9-1.8-4.2-2.9c-4.2-3.6-8.1-7.4-10.4-12.7
		c-1-2.3-1.3-4.3,0.5-6.5c2.7-3.4,4.4-7.1,3.2-11.8c-0.7-2.7-0.2-5.7,0.4-8.4c0.4-2,1.3-3.8,3.2-4.7c2-0.9,2.6-2.2,2.5-4.2
		c0-0.5-1-2.2,1.1-1.8c0.1,0,0.8-2.5,0.1-3.2c-0.8-0.8-0.7-1.3-0.5-2.1c0.7-2.3,0.6-4.5-0.3-6.7c-1.3-3-1.6-6.2-0.9-9.4
		c0.4-1.7,0.1-3.3-0.5-4.8c-1.3-3.7-2-7.5-0.9-11.3c0.4-1.6,0-2.8-0.9-3.9c-3.6-4.8-3.9-9.9-1.7-15.3c0.7-1.7,0.8-3.3,0.4-5
		c-2.8-12.7-5.7-25.3-6.5-38.3c-0.2-4-0.7-8.1,0.7-12c0,1.4,0,2.7,0,4.1c-0.2,6.5,0.7,13,1.5,19.5c0.9,7,2.4,13.9,3.8,20.9
		c0.3,1.3,0.6,2.6,1.1,3.9c1.1,3.1,0.6,5.9-0.5,8.9c-1.6,4.3-1.4,8.5,1.4,12.3c0.6,0.9,1.2,1.7,2.6,0.5c-0.6,3.8-1.9,7-1.3,10.6
		c0.3,1.5,0.5,3,1,4.4c0.8,2.1,1.1,4.2,0.8,6.5c-0.3,2.4,0,4.6,1,6.9c1.3,3,2.1,6.2,3.2,9.3c-0.9-0.1-0.5-1.6-1.5-1.3
		c-0.9,0.2-0.6,1.2-0.7,1.8c-0.5,5-1.3,10-1.1,15c0.2,5.4,1.6,9.9,6.9,12.5c0.5-0.8,0.6-1.9,1.7-2.6c-0.4,1.6-0.1,3,0.5,4.4
		c-1.5,0-2.8-0.7-4.2-0.6c-1.8,0.2-1.3-1.9-2.2-2.8c-2.4-2.4-3.2-5.6-3.6-9c-0.1-1.5-0.4-3-0.4-4.5c0-0.7,0.3-1.8-0.7-2
		c-0.9-0.2-1.9,0.2-2.5,1c-1.6,2.2-2,4.6-2.1,7.3c-0.1,3.3,1.2,6.6,0.4,9.9c-0.2,0.8,0,1.6,0.3,2.3c0.1,0.3,0.8,0.7,0,0.8
		c-3,0.7-0.6,2.1-0.5,3.3c-0.2,0-0.5,0-0.7,0c-1.4,0,0-1.7-1.2-1.8c-0.2,0-0.4,0.2-0.6,0.3c-2.7,3.1-3.3,4.8-1.8,6.6
		c1.9,2.2,3.3,4.7,4.9,7c1,1.6,2.5,2.6,3.7,3.6c2.9,2.3,5.7,5,9.7,5.7c2.2,0.4,4.1,2,6.5,2.4c4.2,0.7,8.2,0.7,12.3-0.7
		c2.7-0.9,5.7-1.1,8.5-1.8c2.5-0.6,5-1.5,7.4-2.3c2.4-0.9,4.8-2,7.3-2.8c1.1-0.4,1.4-0.8,1.5-1.9c0.2-4.4,2.5-7.9,5.1-11.4
		c1.1-1.4,1.8-3.1,3.5-4c0.7-0.4,0.1-1.4-0.1-1.9c-0.7-2.4-1.8-4.6-2.5-7c-0.8-2.9-2.1-5.8-2.3-8.9c0-0.5-0.2-0.9-0.3-1.4
		c-0.1-0.5-0.4-0.9-1-0.8c-0.5,0.1-0.3,0.5-0.4,0.9c-0.5,3.1-1.6,5.4-5.2,6.4c-3.5,0.9-7,2.2-10.3,4c-1.2,0.7-2.9,0.6-4.4,1.2
		c-3.2,1.4-6.9,1.1-10,2.7c-0.8,0.4-1.4-0.2-2.1,0c1-1,1-2.2,0.7-3.3c-0.3-1.2-1.1,0.4-1.8-0.2c0.9-1.2,2.5-1.8,2.2-4
		c-0.2-1.3,2.5-1.6,4.3-2.7c-0.9,1.5-1.9,1.8-2.8,2.3c-0.5,0.3-1.1,0.8-0.9,1.5c0.2,0.7,1,0.1,1.5,0.6c-1.6,0.7-2,2-1.5,3.6
		c0.2,0.9,1.6-1.5,1.5,0.6c0,0.5,0.8,0.2,1.2,0.1c3.8-1.7,8.1-1.9,11.9-3.7c3.5-1.7,7.4-2.6,10.8-4.7c1.7-1.1,2.5-2.5,3.3-4.1
		c0.4-0.9,0.3-2.5,2.2-2c0.3,0.1,0.5-0.3,0.4-0.7c-0.4-3.4,0.7-6.7,0.1-10.1c-0.3-1.8-0.8-3.4-1.7-5.1c-1.5-2.9-0.8-6.2-1.3-9.3
		c-0.3-2.2,0-4.6,0-6.8c0-0.7,0.1-1.6-0.8-1.8c-0.8-0.2-0.8,0.8-1.2,1.2c-2,2.3-1.6,4.8-0.6,7.3c0.7,1.8,0.6,2.9-1.8,2.6
		c-2.7-0.3-4.5,1.5-6.5,3c1.2-1,0.4-2.4,0.9-3.6c1-2.7,2.5-4.8,4.9-6.3c1.1-0.6,1.1-1.9,1.3-2.9c0.3-1.6-0.2-3.4,1-4.9
		c0.3-0.4,0-1.1-0.3-1.5c-3.4-4.5-2.7-9.5-1.4-14.3c0.8-3,0.3-5.6-0.5-8.3C376.7,462,374.2,454.2,372.2,446.3L372.2,446.3z
		 M383,578.1c-0.1,0-0.2,0-0.3,0c0,0.2,0,0.5,0,0.7c0.2,0.6-0.3,1.7,0.6,1.8c1,0.2,0.8-0.9,1.2-1.5c1.6-2.7,0.8-5.5,0.2-8.2
		c-0.1-0.6-0.4-1.1-1.1-1c-0.6,0.1-0.5,0.7-0.5,1.2C383,573.4,383,575.8,383,578.1z"/>
	<path d="M428.6,166.1c-0.3,1.9-1.3,3.7-1,5.7c0.1,0.9-0.9,2.1,1,2.4c0.5,0.1,0.2,0.9,0.1,1.4c-0.3,1-0.7,2.1,0.2,3.3
		c1.3-1,1.5-2.6,2.1-4c1.9-4.6,3.7-9.3,5.6-14c0.1-0.2,0.2-0.6,0.1-0.7c-2.4-1.7-1-4.8-2.9-6.9c-1.3,2-2.5,4.1-3.8,6.1
		c-0.2-0.1-0.4-0.1-0.6-0.2c2.5-5,1.2-10.9,4.4-16.2c1.2,2.7,4.1,3.9,4.1,7.1c0.6-2.1-0.6-4.2,0.2-6.2c0.8,0,0.8,0.6,0.9,0.9
		c0.6,1.7,0.3,3.7,1.4,5.4c0.4,0.6,0.3,1.8-0.4,2.6c-0.5,0.5-0.7,1.3-0.1,1.7c0.7,0.4,1.1-0.4,1.4-0.9c0-0.1,0.1-0.1,0.1-0.2
		c1-1,1.6-2.3,3.5-2.4c1.5,0,2.1-1.9,3.4-2.6c0.4,0.2,0.3,0.5,0.1,0.6c-1.7,1.8-2,3.7-0.6,5.8c0.2,0.2,0.5,0.5,0.7,0.5
		c0.6,0.1,0.8-0.4,1-0.9c1-3.5,3.7-5.8,6.6-7.9c-1.4,2-2.8,3.9-4.2,5.9c1.1-0.9,2.4-0.4,3.5-0.9c0,2.1-2.2,3.3-2.2,5.6
		c0,0.9-1.8,1.8-2.7,2.8c-0.4,0.4-1.1,0.9-0.7,1.6c0.4,0.8,1.1-0.6,1.7,0.2c-0.7,1-1.5,2-2.5,3.3c0-2.4,0.3-4.4-0.2-6.3
		c-0.2-0.6-0.3-1.2-0.5-1.8c-0.2-0.5-0.5-1.4-1.3-1c-0.7,0.3-0.1,1,0,1.5c0.1,0.6,0.7,1.1,0.2,2.1c-0.6-1.3-3-1.7-0.9-3.7
		c0.6-0.6-0.2-1.6-0.9-1.9c-1.3-0.6-2.2,1.1-2.2,1.5c0.1,3-2.4,2.9-4,3.6c-0.7,0.3-1.2,0.5-1.4,1.2c-2.5,6.4-5.1,12.7-7.6,19.1
		c-0.2,0.5-0.7,1,0.2,1.3c0.4,0.2,1.2,0.3,1.3-0.2c0.3-3.9,4.3-4.5,6.3-6.9c2.2-2.6,2.5-6,3.8-8.9c0.4-0.9,0.7-1.9,1.4-2.8
		c-0.9,5.9-2.9,11.6-2.2,17.7c0.8-2.2,1.2-4.4,3-6.2c-0.2,1.2,0.9,2.6-1.2,3.1c-0.1,0-0.3,0.8-0.2,0.8c2.7,2,0.4,4.5,0.5,6.7
		c0,0.9-0.1,0.9,1.1,0.9c0.1,0,0.2,0.1,0.2,0.1c0.3,2.2,2.4,2.2,3.9,3c4.8,2.6,7.3,7,9.2,11.8c1,2.6,2.1,5.1,2.7,7.8
		c0.5,2.8,3.2,3.8,5,5.5c4.5,4.4,7.9,9.6,11.3,14.7c0.5,0.7,1,1.4,1.4,2.2c1.7,2.9,1.5,4.4-0.7,5.8c-1.2,0.8-1.8,2.2-3.2,2.7
		c-1,0.4-1.9,1.3-2.7-0.3c-0.1-0.2-0.6-0.3-0.8-0.2c-0.6,0.2-0.4,0.8-0.3,1.2c0.4,1.5,0.7,3.1,1.3,4.5c1.6,3.6,1.7,7.7,3.7,11.1
		c0.5,0.8-0.7,1.3-0.4,2.1c0.5,1.8,0,3.8,1.3,5.4c0.2,0.2,0.3,0.4,0.1,0.8c-1.4,3.6-0.9,7.4,0,10.8c0.7,2.6,1.9,5.1,2.8,7.7
		c1.6,4.7,1.8,9.6,2.3,14.4c0.5,4.8-1.9,8.6-4.8,12.2c-0.5,0.6-0.9,1.3-1.6,2.2c0.4-2,1.2-3.4,2.2-4.5c3.7-4.2,3.4-9.2,2.7-14.1
		c-0.8-6.1-2.1-12.1-4.8-17.6c-1.2-2.6-1.2-5.3-1.2-8.1c0-3.9,0.5-7.7-0.4-11.5c-0.8-3.5-1.7-6.9-2.4-10.4c-0.3-1.6-0.8-1.6-2.2-0.8
		c-2.5,1.4-4.9,3-7.7,3.9c-1.2,0.4-1.7,0.3-2.1-0.8c-0.2-0.5-0.3-1.2-1-1.1c-0.8,0.2-0.9,1-0.6,1.6c1.5,2.7-0.4,3.8-2.2,4.7
		c-3.3,1.7-6.4,4.1-10.3,4.6c-1.7,0.2-2.7-0.2-3-2c-0.4-3-0.8-6-1.3-9.5c-1,2.1-1,3.9-0.6,5.4c0.5,2-0.4,4.1,1,5.9
		c0.4,0.5-0.1,0.9-0.4,1.2c-0.7,0.7-1.4,1.3-2.4,1.4c-6.9,0.9-6,1.4-6.9-4.7c-0.3-1.8,0.1-3.8-1.2-6.1c-0.2,3.3-0.4,6.1-0.5,9
		c-0.1,2.8-2,4.7-4.4,3.6c-1.7-0.8-4.2,0.4-5.3-2.1c-0.2-0.3-0.6-0.2-0.8,0c-1.9,1.7-4.8,2.1-6.4,4.1c-0.8,1-1.2,0.1-1.7,0.3
		c-2.7,0.8-5.3,1.9-8.1,2.6c-2.1,0.5-4.1,1.4-6.3,1.4c-1.5,0-3-0.2-4.5-0.3c-0.1-0.6,0.3-0.7,0.6-0.7c4-0.1,7.5-1.5,11.2-2.8
		c2.1-0.7,4.3-1.5,6.5-2c2.2-0.6,3.8-2.4,6-3.1c0.9-0.3,1.2-1.3,2.5-1.1c0.5,0.1,2-0.9,2-2c0.1-2.6,1.4-5.1,1-7.8
		c-0.1-1.2,0.2-2.5,1.3-3.5c-0.3,4.7-0.7,9.1-1,13.6c-0.1,1,0.7,1.2,1.3,1.3c1,0.1,2,0.1,3-0.1c1.2-0.2,2-0.9,2-2.4
		c0-4.2,0.3-8.3,0-12.5c-0.1-1.9,0-4.1,0.4-6.3c0.8,0.5,1.1,1.2,1.3,2.2c1.3,5.8,1.6,11.7,2.6,17.6c0.1,0.4,0.1,0.8,0.4,1
		c1.6,1.1,3.1-0.3,4.7-0.3c1.2,0,1-1.2,1-2c0.1-5.1,0.3-10.2,0.3-15.3c0-1-1.3-1.9,0.3-3c0.7-0.2-0.7,2.7,1.2,1.1
		c0.2,0.7,0.1,1.6,0.1,2.2c-0.2,2,0.6,3.8,0.8,5.7c0.3,2.7,0.5,5.5,1.5,8.1c0.3,0.7,0.4,0.8,1.1,0.7c4-0.8,7.5-2.7,10.9-4.9
		c0.8-0.5,1.1-1.3,0.9-2c-1.2-5.6-1.9-11.2-2.7-17.1c1.7,1.6,2,3.8,2.7,5.5c1.1,2.5,2.2,5.1,3.1,7.7c0.7,1.8,2.1,2.2,3.8,1
		c1.7-1.3,3.6-2.2,5.5-3c1.4-0.5,1.5-1.4,0.9-2.5c-1.8-3.5-2.3-7.7-5.3-10.5c-0.7-0.6,0.2-1,0.3-1.4c0.2-0.6,0.6-0.1,0.8,0.2
		c1,1,1.9,1.9,2.5,3.3c0.5,1,1.4,1.9,2.2,2.8c1.1,1.2,2,3.4,3.4,3.1c1.7-0.4,3.1-2.3,4.3-3.8c0.5-0.5,0.4-1-0.1-1.4
		c-2.3-2.1-3.8-4.9-5.5-7.3c-1.4-2-3.1-4.1-4.2-6.5c-1.3-2.7-4.1-4-5.8-6.3c-0.5-0.7-1.2,0.1-1,0.6c0.5,1.4-0.9,2.8,0.3,4.1
		c-0.7-0.6-1.1-1.2-1.3-2.2c-0.9-3.6-2-7.2-3-10.7c-0.8-2.9-2-5.7-3.2-8.4c-1.2-2.8-3.9-4.8-6.7-6.1c-2.7-1.3-5.3-3-8.4-3.1
		c-0.6,0-1.4-0.7-1.9-1.2c-0.9-1-1.8-0.8-2.9-0.8c-1.6,0-3-1.2-4.7-0.8c-2.2,0.5-4.6,0.2-5.8,2.8c-2-0.7-2.9,1.4-4.5,1.7
		c-0.2,0-0.4-0.1-0.5,0c-2.4,3.6-7.5,4.3-8.9,9c-0.4,1.3-2,2.3-2.9,3.5c-0.6,0.7-1,1.6-1.8,2.3c2.5-4.4,4.9-8.6,8.8-12.1
		c3.9-3.5,8.2-6.1,13.3-7.9c-6-1.8-23.8,12.8-24.6,20.3c-0.8-6.1-3.3-11.1-5.1-16.3c1.1,1.7,2.4,3.4,3.4,5.2
		c0.4,0.8,0.7,1.8,1.7,1.6c0.5-0.1,1.6,0,1.6-0.7c0-0.8-0.4-2.2-0.9-2.3c-2-0.6-2.6-2.7-3.2-4c-2.2-4.8-5-9.5-6-14.8
		c0-0.1,0.1-0.3,0.2-0.6c1.1,2.5,2.7,4.5,3.1,7.3c0.4,3.1,3.3,5.2,4.3,8.2c0.2,0.5,1,1.2,1.7,0.7c0.5-0.4,0.2-1.2-0.1-1.7
		c-1.1-2.4-2.6-4.6-2.6-8.1c1.5,3.4,1.8,6.8,5,8.6c-0.6-1.7-1.2-3.4-1.8-5.1c1.2,1.8,2,3.7,3.7,4.9c0.5,0.4,0.8,0.8,0.1,1.3
		c-0.3,0.2-0.4,1.1-1.1,0.1c-0.6-0.8-1.4,0.2-0.9,0.6c1.1,1-1.5,2.3,0.2,2.7c1.1,0.3,1.6-1.4,2.5-2.2c1.4-1.2,1.6-2,0.5-3.8
		c-1.2-2-2.8-3.9-3.6-6.3c-0.2-0.5-0.6-1.2-0.1-1.5c0.7-0.4,1.1,0.3,1.5,0.8c1.2,1.8,2.5,3.6,4.6,4.7c1.1,0.5,1,1.2,0.7,2.3
		c1.4-1,2.9-1.9,4.3-2.9c0.5-0.3,0.8-0.9,1.3-1c3.6-1.1,2.7-4,2.5-6.4c-0.1-1.4,0.3-2.4,0.7-3.7c0.6,0.7,1.2,1.3,1.8,1.9
		c1,1,1.7,2,0,3c-0.8,0.5-1,1.4-1.2,2.3c-0.1,0.5-0.8,1.3,0.1,1.7c0.7,0.3,1.7,0.4,2.5,0.2c0.8-0.2,0.3-1.1,0.4-1.6
		c0.1-0.6-0.1-1.2,0-1.9c0.1-0.9,0.8-1.2,1.3-0.6c0.9,0.9,2.7,1.5,1.6,3.4c-0.2,0.4-0.5,1,0.1,1.2c0.8,0.2,0.9-0.6,0.9-1.1
		c0-1.5,0.2-3.2-0.4-4.4C425.2,171.3,426.9,168.8,428.6,166.1L428.6,166.1z M435.9,177.9c-0.1-0.1-0.2-0.5-0.5-0.9
		c-0.1-0.1-0.6,0-0.6,0c-0.4,1.5-1.8,2.6-1.9,4.2c0,0.5,0.4,0.9,0.8,1.1c0.6,0.3,0.9-0.2,1-0.6C435.1,180.6,435.9,179.6,435.9,177.9
		z M442.5,179.6c-0.6,1.9-0.9,3.3-1.8,4.5c-0.5,0.6,0,1,0.6,1.2c0.5,0.2,1,0,1-0.6C442.3,183.2,443.2,181.7,442.5,179.6z M437,159
		c0.6-1.9-0.2-3.5-1.1-5.1C435.5,155.8,436.2,157.4,437,159z M438.3,177.9c-0.9,1.5-2.1,3-2.7,5.4
		C437.7,181.6,437.7,179.6,438.3,177.9z"/>
	<path d="M359.6,696.8c-2.1-0.9-3.4-4.4-3.6-6.4c-0.5-4.5,2.9-6.4,5.1-9.4c3.1-4.1,7-6.1,11.5-7.6c1.9-0.6,3.2-2,4.1-3.7
		c0.9-1.8,2.3-2.8,4.3-3.4c5.1-1.4,8.4-5.7,9-11.2c0.1-1.3,1-2.5,0.9-4c0.4,0.9,1.7,1.3,0.8,2.7c-0.5,0.7,0.2,1.3,0.9,1
		c1.2-0.5,2.4,0.1,3.6-0.6c-1.2,1.1-2,2.6-3.9,2.4c-0.7-0.1-1,0.6-1.3,1.2c-2,3.8-4.1,7.4-8.3,9.2c-3.5,1.5-3.5,1.4-4.3,2.5
		c1.8,0.7,4.1-0.5,5.9,1.5c-3.2-0.4-6-0.4-7.8,2.4c-1,1.5-2.7,0.7-4,1.2c-3.8,1.3-7.8,2.1-9.4,6.6c-0.3,0.7-1.4,1.2-2.3,1.7
		c-2.9,1.8-3.5,6.3-0.9,8.5c0.7,0.6,2.1,0.8,3.1,0.8c4.4,0,8.6,0.6,12.7,2.3c1.8,0.7,4,0.4,6,0.4c2.7,0.1,5.1,1,7.6,1.4
		c1,0.1,1.9-0.7,2.9,0.1c0.3,0.3,0.6,0.4,0.4,0.9c-0.4,0.8-0.5-0.1-0.7-0.1c-4.2,0.8-8-1.3-12.2-1.2c-3,0.1-6.2-0.8-9.2-1.6
		c-1.2-0.3-2.8-1-4.4-0.9c-1.7,0.2-3.5-0.5-5.1-0.2c-1,0.2-1.4-1.8-2.5-0.4c-0.8,1.1,1.2,1.2,0.6,2.3
		C359,695.7,359.5,696.3,359.6,696.8z"/>
	<path d="M342.5,136.2c0.4,1.5-0.2,3.1,0.6,4.6c0.2,0.4,0.3,0.9,0.6,0.7c2.2-1.4,4.8,0.4,6.9-0.9c0.1-0.1,0.2-0.2,0.5-0.5
		c-2.3-0.8-4.5-1.5-6.8-2.3c0-0.2,0.1-0.4,0.1-0.6c2.4,0.5,4.8-0.5,7.4,1.4c1.6,1.1,4.3,1.1,6.7,0.4c-0.5-0.8-0.9-1.6-1.4-2.3
		c2.1,2.7,4.1-0.1,6-0.1c0.7,0,1.1-0.3,2,0.2c1.1,0.7,2.7,0.7,4.1,0.9c0.8,0.1,1.6,0.1,2.3,0.5c1.3,0.7,2.5,1.1,3.9,0.1
		c-0.8,1.7-2.3,1.1-3.6,1.1c-0.7,0-1.5-0.9-2.1,0c-0.3,0.4-0.1,1.4,0.2,1.8c0.5,0.6,1.3,0.3,1.9,0c0.2-0.1,0.4,0,0.7,0.1
		c-3.4,3.2-6.7,1.7-10.1-0.4c-0.1-0.6,1.3-0.7,1.3-1.9c-1.9,0.5-3.6,0.9-5.2,2.8c0.8-2.3-0.1-2.1-1.4-1.8c-3.8,0.8-4.2,1.2-4.5,4.9
		c0,0.2,0,0.3,0,0.5c0.6,1.4-3,0.6-1.2,1.6c1.5,0.9,0.7,1.8,1,2.6c0.6,1.9-0.1,3.7-1.6,5l0.1,0c0-1.4,1-2.4,1-3.8
		c0-3.2-1.4-4.4-4.4-3.7c-1.5,0.4-3.2,0.3-4,2c0.5-3.1,0-5.8-1.6-8.5C341,139.2,342.5,137.7,342.5,136.2
		C342.6,136.1,342.5,136.2,342.5,136.2z M347.2,142.6c0.4,0.6-0.5,1.9,0.9,1.9c0.7,0,0.7-0.6,0.4-1c-0.5-0.5,0.9-1.4-0.4-1.7
		c-0.7-0.1-1.3-0.4-1.9,0.4c-0.5,0.7-1.2,1.3-1,2.3c0.1,0.5,0.5,0.8,1.1,0.8c0.6,0,0.5-0.5,0.5-0.9
		C346.7,143.7,346.5,143.1,347.2,142.6z"/>
	<path d="M342.3,653.5c0.3,1.2-0.3,1.8-1,2.3c-0.3,0.2-0.8,0.5-0.8,0.7c0,0.6,0.6,0.2,0.8,0.3c0.4,0.3,0.1,0.5-0.2,0.6
		c-1.6,0.7-3.2,1.4-4.9,1.9c-4.3,1.2-8.7,0.2-13.1,1.7c-3.9,1.3-8.1,2.1-12.6,1.6c-3.7-0.4-7.7-0.4-11.6,0c-2.1,0.2-4.6-0.6-6.9-1.2
		c-3.5-1.1-6.7-2.6-10.1-3.9c-1.3-0.5-1.4-1.8-2.6-2.1c2.4,0.5,4.7,0.8,6.8,2c3.7,2.1,8.1,2.4,12.1,3.5c1,0.3,2,0.3,3,0.6
		c1.5,0.4,2.4,0,2.6-1.6c0.8,0.5-0.1,1.8,0.9,1.8c1.3-0.1,0.4-1.7,1.2-2.2c0.4,0.5,0,2.9,1.5,0.6c0.1-0.1,0.2-0.3,0.3-0.3
		c1.5,0.1,1.6,0,2-1.1c0.3,0.5-0.4,1.3,0.4,1.7c0.1,0,0.2,0,0.2,0c0.7-0.3,0.5-1.4,1-1.4c0.5-0.1,0.3,1.1,1.3,1.2
		c0.8,0.1,0.3,1.1,0.8,1.6c1-1.7,3,0.5,4-1c0.7-1,2.3-1.3,2.8-1.2c2.8,0.8,3.9-1.4,5.6-2.6c0.5-0.3,1.6-2.4,2.5-0.5
		c1.4,3,4.4,2.3,6.1,1.8c1.7-0.4,3.6-1.6,5.1-2.8C340.5,654.5,342.5,655.7,342.3,653.5z"/>
	<path d="M429.9,133c-0.4,2.2-2.1,3.6-2.7,5.5c1.5-0.7,1.9-2.3,3.2-3.6c-0.7,2.9-3.1,4.4-3.9,6.8c0.3,0.5,0.5,0.2,0.8,0
		c0.1-0.1,0.3-0.2,0.8-0.5c-0.7,1.4-1.3,2.4-2,3.8c1.6-0.2,2-1.4,2.4-2.2c0.6-1.1,1.5-0.1,2-0.7c0.7,0.6,0.3,1.3-0.1,1.8
		c-1.1,1.3-2,2.8-3.2,3.9c-1.2,1.1-1.5,2.1-1.6,3.6c-0.2,2.9-0.3,5.8-0.4,8.6c0,2.2-0.7,4.3-0.8,6.5c0,2.4-0.1,4.8-0.5,7.2
		c-0.5-4.7,0.2-9.4,0.6-14.1c0.2-2.9,0.4-5.8,0.7-8.7c0.1-1-0.4-1.8-1-2.6c-1.5-2.2-2.9-4.5-4.4-6.8c1-0.6,1,0.9,2.1,0.2
		c-2.7-2.6-1.9-5.7-1.2-9.2c0.5,0.9,0.9,1.6,1.4,2.5c0.1-0.8,0.2-1.4,0.3-2.1C425.6,137.7,425.6,137.7,429.9,133z"/>
	<path d="M379.2,647.3c1.8,1.5,2,2.6,0.8,3.9c-2.3,2.7-5.6,2.8-8.6,3.1c-4.1,0.4-8.3,0.3-12.5,0.1c-3.1-0.1-5.7,1.1-8.5,2.1
		c-6.4,2.3-12.1,6.5-19,7.6c-5.7,0.9-11.5,1.5-17.2,2.3c-1.7,0.2-3.5-0.2-5.1-0.5c-4.5-0.7-9.1,0-13.5-0.9c-0.5-0.1-1.6,0.1-1.4-0.7
		c0.2-0.9,1-0.2,1.5-0.1c6.7,1.1,13.5,1.2,20.2,1.4c3.3,0.1,6.6-0.9,9.9-1.5c2-0.3,4.2,0.1,6.1-0.9c2.3-1.2,4.8-2.1,7.1-2.9
		c2.7-1,5.1-2.6,8-3.3c1.9-0.5,3.5-1.5,5.2-2.5c1-0.6,2.8-1.3,3.7-1.1c2.8,0.7,5.5-0.1,8.1-0.3c4.2-0.4,8.6,0.4,12.7-1.7
		C378.4,650.3,379.9,650.3,379.2,647.3z"/>
	<path d="M378,646.2c-3.9,2.2-8.4,1.8-12.5,2.8c-2.3,0.6-4.8,0.6-7.1,1.1c-3.2,0.7-6,2.8-9.2,2.9c-1.9,0-3.4,2.2-5.6,0.7
		c1.2,0,1.6-1,2.4-1.4c0.9-0.4,0.9-0.5,0.1-1.2c-0.4-0.3-0.2-0.6,0-0.8c1-0.7,2-1.5,3-2.1c1.1-0.6,2.2-1.4,3.5-1.7
		c2.1-0.5,1.7-2.5,2.3-3.9c0.9,0,0.2,1.9,1.5,1.4c0.2-0.1,0.2-0.8,0.3-1.2c0.9,0.2,0.2,2.1,1,1.6c1-0.6,1.4-2.1,2.1-3.3
		c1,1.7,0.1,3.7-0.7,4.2c-2.6,1.8,0.1,2.2,0.6,2.2c4.4,0.4,8.7,0.2,13-0.7C374.4,646.5,376.1,644.7,378,646.2z"/>
	<path d="M538.5,449.1c2.3,0.5,3.8,2,5.5,3.6c3,2.9,6.7,5.2,10.2,7.5c1.8,1.2,3.5,2.8,6.2,3.4c-2.8-2.9-5.3-5.3-7.7-7.9
		c-3.1-3.4-7-5.8-10.1-9.1c1.6,0.2,2.5,1.5,3.6,2.4c0.7,0.5,1.4,1,1.5-0.4c2.9,3.8,6.4,7.1,9.8,10.4c1.2,1.1,2.3,2.3,3.6,3.3
		c0.9,0.7-0.8,2.9,1.9,2.5c-3.1,0.3-5.4-0.9-7.6-2.4c-1.9-1.3-3.7-2.6-5.5-4c-1-0.7-1.7-0.9-2.8,0c-1.3,1-2.6,2-4.4,1.7l0,0
		c0-0.8-0.3-1.2-1.2-1.2c-5.6,0.1-7.7-5.5-7.3-9.5c0.1-0.8,0.3-1.6,0.5-2.5c1.1,0.5,0.4,1.2,0.2,1.8c-0.7,3.1,1.1,8.3,4.3,9
		c2.4,0.6,4.8,0.7,7-0.6c0.4-0.2,1.1-0.6,0.6-0.9c-1.5-1-2.3-3-4.6-2.6c-2.3,0.4-3.8-0.6-4.4-2.7c0.8-0.7,0.6,1.6,1.4,0.5
		C539.9,450.4,539.5,449.6,538.5,449.1z"/>
	<path d="M490,408.8c4.7,2.4,9.2,5.3,13.2,8.8c5.6,4.8,11.2,9.6,16.7,14.4c3.2,2.8,6.2,5.8,9.1,8.8c1.3,1.3,3.3,2,4.1,3.8
		c-2.9-1.1-5.6-2.5-8.2-4.1c0.6-0.2,2.4,0.3,1.3-1c-1-1.3-2.2-2.6-3.6-3.6c-1.3-0.9-2.2,0.6-3.4,0.8c-0.6,0.2,0.3,0.8,0.6,1.2
		c-1.7-0.4-3.3-0.6-4.3-2.4c-0.6-1.1-2.2-0.9-3.4-1.1c-3.2-0.4-6.4-0.7-9.5-1.7c3.8,0.1,7.6,1.4,11.4,1.3c0.4-1-0.7-1.6,0-2.6
		c0.7,1.4,1.6,2.5,2.7,3.5c0.9,0.8,1.8,0.9,2.8,0.7c0.6-0.1,1.3-0.2,1.6-0.9c0.3-0.8-0.4-1.6-0.9-1.7c-3.2-0.8-4.2-4-6.5-5.8
		c-6.7-5.1-12.5-11.4-19.9-15.7C492.3,410.9,490.9,410.2,490,408.8z"/>
	<path d="M431.1,680.2c0.3,0.5,0.5,1.3-0.1,1.4c-0.9,0.2-1,1.5-2,1.3c0,1-1.8,1.2-1.2,2.2c0.5,0.8,1.4,0,2.2-0.1c0.3,0,0.6,0,1,0.3
		c-6.5,0.6-8.7,6.6-12.8,10.2c-1.8,1.6-3.7,2.5-5.8,2.8c-4.2,0.8-8.5,1.6-12.8,1.5c4.7-1.7,10.2-0.5,14.7-4
		c-1.2-0.9-2.4,0.8-3.2-0.6l0,0c1.5-0.4,3.1-0.9,4.7-1.3c-0.4-1.3-1.3,0.2-1.8-0.8c3-2.1,6.8-2.9,9.3-5.9c1.3-1.6,3.1-2.9,4.4-4.6
		C428.5,681.4,429.8,680.7,431.1,680.2C431.1,680.2,431.1,680.2,431.1,680.2z M414.4,695.3c1.9,0.7,3.8-0.5,4.9-3.3
		C417.6,693.2,416,694.3,414.4,695.3z"/>
	<path d="M348.1,322.4c0.8,1,1.2,1.5,1.5,2c0.4,0.6,0.8,0.9,1.6,0.8c1-0.1,1.2-1,1.2-1.5c-0.4-2.1,1.3-1,1.9-1.4c0,0.8-1,1.5-0.2,2
		c1.9,1.2,4.1,0.2,6.1,0.7c0.9,0.2,0.6-1.5,1-2.3c1.9,1.1,2.1,2.7,0.3,3.9c-1,0.7-2.3,1.3-3.5,1.2c-2.3-0.3-4.7-0.1-7-0.6
		C349,326.8,348,325.2,348.1,322.4z"/>
	<path d="M405.3,300.7c-4.1,2.3-7.2,0.3-9.6-2.4c-1.2-1.3-2.8,1-2.5-0.3c0.3-1.4,0.1-1.7-0.8-2.4c-0.7-0.5-1.2-1.3-2.2-2.5
		c3.1,1.2,5.7,1.8,7.5,4c0.3,0.4,0.8,0.7,1.2,0.4c0.5-0.3,0.8-0.9,1.5-0.3c1.2,1-0.8,0.6-0.5,1.1c0.7,1.2,2,0.9,2.6,0.3
		c0.9-0.9,2.3-0.4,3.1-1.3c0.1-0.1,0.7,0.2,1.8,0.5c-1.9,0.3-3.1,0.7-3.6,1.8C403.5,300.4,404.7,300.3,405.3,300.7z"/>
	<path d="M404.4,418.3c-6.3-0.8-12.6-1.6-18.9-2.5c-8.2-1.2-16.4-2.5-24.6-3.7c-5.7-0.9-11.4-1.7-17.1-2.9c4.3,0.6,8.7,1.1,13,1.7
		c9.4,1.3,18.8,2.7,28.2,4.1C391.5,416.1,398,416.6,404.4,418.3L404.4,418.3z"/>
	<path d="M398.4,633.8c2.4-6.9,2.7-14.1,1.8-21.3c0.9,1.6,1.8,3.2,1.4,5.2c-0.1,0.6-0.2,1.3,0.6,1.6c0.4,0.1,0.5-0.1,0.6-1.6
		c1.7,1.3,0.8,3.2,0.1,4.1c-1.2,2-1.4,4.1-1.7,6.2c0,0.3,0,0.6-0.1,0.9c-0.2,0.5-0.9,1.1-0.2,1.6c0.6,0.5,1-0.1,1.3-0.5
		c0.3-0.3,0.7-0.3,1,0.1c0.1,0.1,0.1,0.4,0.1,0.6C403.2,631.4,399.1,633.8,398.4,633.8L398.4,633.8z"/>
	<path d="M542.7,460.1c-4.3,1.2-8.4-0.3-12.5-1.2c-12.1-2.9-24.1-6.1-36.1-9.6c-0.3-0.1-0.6-0.3-0.8-0.7c5.5,1.5,10.9,3,16.4,4.4
		c8.5,2.2,17,4.3,25.5,6.3C537.7,459.9,540.3,459.9,542.7,460.1C542.8,460.2,542.7,460.1,542.7,460.1z"/>
	<path d="M301.2,370.2c3.8-0.3,5.2-1.2,5.3-3.1c0.1-2.5-1.7-1.9-3.2-2c2.8-0.3,2.7-1.9,2.4-4.1c-0.3-2.1-0.8-4.2,0-6.5
		c0.6-1.6-0.3-3.2-1.4-4.6c-0.7-0.8-1.4-1.6-1.9-3c3,2.1,4.6,4.6,4.2,7.9c-0.5,3.6-0.3,7.1,0.5,10.5c0.8,3-1.6,4.8-2,7.2
		c-0.1,0.6-2.2,0.2-2.5-0.5c-0.1-0.2-0.1-0.4-0.3-0.6C302,371,301.7,370.7,301.2,370.2z"/>
	<path d="M366.9,170.3c-3.8,1.2-7.5,2.3-11.4,3.5c1.3-2.2-1.1-2.7-1.8-4.1C358,169.8,362.4,169.4,366.9,170.3z"/>
	<path d="M402.8,684.6c1.1-0.4,2,0.2,2,1.2c0,0.7-0.8,0.9-1.9,1.1c-1.9,0.3-2.8-0.7-3.7-1.7c-1.4-1.5-2.9,0.4-4.1-0.6
		c-0.4,0.9,0.8,1.1,0.4,1.9c-1.3-0.7-3-0.7-4-2c-0.2-1.2,2.6,1.4,1.4-1.1c2,1.2,2.8-1.7,4.8-1.2c1.6,0.4,2.5,1.5,3.8,2.3
		c0.8,0.5,1.3,1.4,2.4,1.2C403.8,685,403.4,684.8,402.8,684.6L402.8,684.6z"/>
	<path d="M407.1,498.9c1.9,1.1,3.9,2.1,5.6,3.4c1.2,0.9,1.7,0.5,2.3-0.4c0.8,0.5-0.8,1.6,0.5,2c0.9,0.3,1.2-0.6,1.6-1.1
		c0.9-0.9,1.7-1.9,2.6-2.9c0.2,0.2,0.4,0.3,0.6,0.5c-0.9,1.1-1.8,2.2-2.9,3.5c1.7,0,2.2-1.3,3.2-1.9c0.7,0.4-0.3,0.8,0.2,1.4
		c0.5,0.2,0.6-0.8,1.5-0.8c-0.6,0.9-1.2,2-2.1,2c-3.2,0-6.6,1.1-9.2-1.9c-1.2-1.4-2.8-2.4-4.2-3.6C406.9,499.1,407,499,407.1,498.9z
		"/>
	<path d="M398.4,633.8c0.6,0.8,0.6,1.4,0,2.3c-1.3,2-0.8,4.4-1.3,6.6c-0.2,0.8,0.7,1.1,1.6,0.8c0.9-0.4,1.9-0.7,3.3-1.2
		c-3.1,3.5-8.1,3.8-10.3,7.7c0.2-1.6,0.2-1.7,1.9-2.8c1.7-1.1,2.7-2.2,2.2-4.6c-0.6-2.4,1.2-4.4,1.9-6.6
		C397.8,635.2,398.5,634.7,398.4,633.8C398.4,633.8,398.4,633.8,398.4,633.8z"/>
	<path d="M351,215.2c0.1,6.5,0,12.2,1.1,17.9c-1.7-1.2-0.9,0.7-1.4,1.5c-0.2-2.6-0.3-4.8-0.4-7.3c-1.8,1.6-0.1,4-2,5.2
		c0-2.3,0-4.4,1.6-6.4c0.5-0.6-0.3-2.1-0.2-3.1C349.9,220.6,350,218.2,351,215.2z"/>
	<path d="M386.5,550.5c-0.9,3.2-3.7,4.8-5.5,7.1c-2,2.5-5.1,1.4-7.4,2.8c1.6-1.6,3.3-3,4.6-5.2c0.4,1.7-1.1,2.3-1.1,3.7
		C380.3,556.3,382.7,552.6,386.5,550.5z"/>
	<path d="M364.8,330.8c-0.2-2.3,0.7-4.4,0.9-6.6c0.2-2.3-0.4-3.4-2.8-4.1c-5.3-1.7-10.6-1.1-15.6-1.6c0.8-0.5,1.7-0.5,5.3-0.6
		c3.9-0.1,7.8,0.7,11.6,1.6c1.4,0.3,2.1,0.9,1.9,2.6c-0.2,2.6,0.2,5.3-0.5,8C365.5,330.4,365.5,330.8,364.8,330.8z"/>
	<path d="M347.4,211.6c0.5,4.8-0.2,9.5-0.3,14.2c0,0.4,0,0.8-0.6,0.8c-0.8,0.1-1.4-0.6-1.3-1.1c0.3-1.6-1.3-3.7,1.2-4.7
		c0.2-0.1,1-1.4-0.6-1.2c0,0-0.2-0.4-0.2-0.6C346,216.4,346.5,213.9,347.4,211.6z"/>
	<path d="M398,215.1c-1.4-1.1-1.1-2.6-1.5-3.9c-0.8-2.4-1.4-4.8-2.1-7.2c-0.2-0.6-0.7-1.3,0-1.7c0.8-0.4,0.9,0.6,1.3,1
		c2.5,2.9,2.4,6.7,3.9,10.5c-1.2-0.9-0.9-2.1-1.9-2.7c-0.6,0.6-0.2,1.3-0.1,1.9C397.6,213.6,398.4,214.1,398,215.1z"/>
	<path d="M416.9,676.9c-0.2,1.3,2,0.3,1.4,2.2c-4.1-1.5-9-0.5-12.9-4.2c1.9-0.1,3.3,0.5,4.7,1.2c0.4,0.2,1.1,0.7,1.4,0
		c0.1-0.2-0.4-0.7-0.6-1.1C413.3,674.4,414.7,677,416.9,676.9L416.9,676.9z"/>
	<path d="M290.2,369.1c0.3,0.6,0.6,1.2,1.1,2.1c0-2.2,1.7-1.7,2.6-2.2c1.8-1.1,2.6-2.2,1.9-4.3c-0.6-1.8-1.2-3.5-1.6-5.3
		c2.4,2.8,2.1,6.9,5,9.8c-3.1,0-5.8,0.7-8,2.8c-0.4,0.4-1,0.2-0.9-0.7C290.2,370.6,290.2,369.9,290.2,369.1z"/>
	<path d="M314.7,405.1c-11-1.7-22.1-3.5-33.1-5.2C292.7,400.8,303.7,403.1,314.7,405.1z"/>
	<path d="M355.5,294.4c2,3.9,6,5.5,9.1,8.1c-1.5-0.1-2.4-1.3-4.3-0.9c-2,0.5-4.4-2.6-4.7-5.1C355.6,295.9,354.6,295.5,355.5,294.4z"
		/>
	<path d="M429.8,591c1.1-1,2-1.6,2.8-2.4c0.4-0.5,2.3-0.7,0.5-1.9c-0.4-0.2-0.1-0.7,0.3-0.9c1.2-0.6,1.8-2,3.2-2.5
		c0.8-0.3,2.7,0.2,2.8,1c0.1,0.9-0.8,1.2-1.1,1.3c-3.1,1-5,3.5-7.5,5.3C430.6,591,430.4,591,429.8,591z"/>
	<path d="M310,353.3c1,0.7,0.7,2.3,1.8,2.9c0.9-0.3,0.2-1.2,0.6-1.8c1.5,2.5-0.3,5,0.1,7.4c-1.2,0.2-0.5-3.5-2.7-1.2
		c-0.1-0.8-0.1-1.7-0.8-2.4c-0.4-0.4-0.9-0.8-0.5-1.4c0.6-1.1,0.7,0.3,1.1,0.3c0.8,0,0.6-0.6,0.5-1C310,355.2,309.7,354.3,310,353.3
		z"/>
	<path d="M420.6,237.2c-0.5,1.2-1.5,1.9-2,3.4c1.6-0.5,2.2-1.8,3.4-2.4c-1.7,2.7-3.6,5.3-6.1,7.1c-0.8-0.1,1.3-3.2-2.1,0
		C416.1,241.6,418.1,239.2,420.6,237.2z"/>
	<path d="M346.4,166.7c-1.1,0.5-1,1.9-2,2.8c0.2-1.5,0.5-2.8,1.2-4.1c1-2,1-3.9-0.9-5.5c-0.7-0.6-1.3-1.4-1.2-2.7
		c1.6,2,3.5,3,6.3,2.7C348.1,162,347.1,164.3,346.4,166.7L346.4,166.7z"/>
	<path d="M382.8,222.1c0.8,2,0.8,4.2,1.2,6.3c0.2,1,0.1,2,0.5,3c0.5,1.2-0.4,1.5-1.3,1.7c-1.4,0.3-1.1-0.7-1.1-1.4
		c0-3.2,0-6.3,0-9.5C382.3,222.1,382.5,222.1,382.8,222.1z"/>
	<path d="M369.3,561.7c0.7-3.3,5.1-4.1,3.4-8.2c2.2,2.3,2.7-0.3,3.9-1c0.9-0.5,1.6-1.3,2.6-1.7C376.5,554.7,373,557.9,369.3,561.7z"
		/>
	<path d="M347.6,329.3c5,0.6,9.9,1.5,14.9,1c0.4,0,1-0.4,1.2,0.2c0.2,0.5-0.2,0.7-0.6,0.7C357.7,332,352.6,331.3,347.6,329.3z"/>
	<path d="M427.7,350.4c0.6,1,1,1.6,1.3,2.2c0.2,0.4,0.2,0.8-0.2,1c-0.3,0.1-0.8,0.1-1.1-0.1c-0.9-0.3,0.1-0.5,0.1-0.7
		c-0.1-1.1-1.5-1.3-1.7-2.5c1.6,0,2.3-1.3,2.9-2.6c0.2-0.4,0.1-1,0.8-0.9c0.6,0.1,1,0.3,1.1,1c0,1.1,1.4,2.4-0.5,3.2
		C430,351.3,430,351.3,427.7,350.4z"/>
	<path d="M378.9,691.4c1.8-1.2,3.5-0.4,5.1-0.6c1.7-0.2,3.3-1,5.1-0.4c0.3,0.1,1-0.6,1.2,0.3c0.1,0.9-0.8,0.7-1.2,0.8
		C385.9,692.6,382.5,692.4,378.9,691.4z"/>
	<path d="M412,207.6c1.4,1.6,0.5,3.3,1.1,4.6c0.2,0.4-0.4,1.1,0.2,1.4c0.8,0.4,0.7-0.9,1.5-1c-0.7,2.9,0.5,5.7,0.1,9.3
		C412.4,217.2,412.3,212.7,412,207.6z"/>
	<path d="M375.9,235.9c-1.1-4.1,0.8-8.1,0.6-12.1C378,226.9,377.6,233.6,375.9,235.9z"/>
	<path d="M416.5,671.7c2.4-3.2-1.6-2.9-2.5-4.4c1.4-0.7,2,1.2,3.5,1c-1.2-2.2-3.9-2.3-5.2-4.1c1.4,0.9,3.2,0,4.5,2
		c1,1.4,1.8,3.2,3.6,4.2C418.6,669.4,418.1,672,416.5,671.7C416.5,671.7,416.5,671.7,416.5,671.7z"/>
	<path d="M434,571.9c-2.3,1.6-5,2.5-7.4,3.9c-1.8,1.1-4.1,1.9-7,1.9c2.4-0.9,4.3-1.7,6.2-2.4c1.5-0.6,1.3-0.8,2.6-2.6
		c0.8-1.1,2.4-1.5,3.9-1.4C432.9,571.4,433.4,571.7,434,571.9C434.1,571.9,434,571.9,434,571.9z"/>
	<path d="M416.9,676.9c-0.3-2.1-2.9-2.2-3.7-4.2c1.1,0.6,2,1,3.3,1.7c-0.3-1.1-1.8-2.1-0.1-2.7c0,0,0,0,0,0c0.9,1.7,2.8,2,4,3.2
		c0.5,0.5,1.3,0.6,1.4,1.7c-1.1-0.6-2.1-1.1-3.2-1.7C419.6,677.3,417.1,675.8,416.9,676.9C416.9,676.9,416.9,676.9,416.9,676.9z"/>
	<path d="M389.6,509.7c1.5,6.4,3.2,12.7,3.4,19.3C392.3,522.6,389.7,516.4,389.6,509.7z"/>
	<path d="M354.5,226.5c1.4,4.4,0.6,8.9,0.1,13.4C353.4,235.4,354.8,230.9,354.5,226.5z"/>
	<path d="M394.5,573c1.5,1.1,3,2.1,4.5,3.3c0.9,0.7,2,1.4,3,1c1.1-0.5,0.4-1.8,0.5-2.7c0-0.8-0.1-1.7,0-2.5c0.9,1.2,0.6,2.7,0.9,4
		c0.2,0.7-0.1,1.6,0.8,2.1c0.3,0.2,0.8,0.3,0.4,0.8c-0.3,0.3-0.7,0.8-1.2,0.5c-3-1.6-6.2-3.1-8.7-5.6
		C394.6,573.7,394.6,573.3,394.5,573C394.6,573,394.5,573,394.5,573z"/>
	<path d="M466.9,330.7c-1.9,4.8-5.3,8.4-9.4,11.5C460.4,338.2,464.2,334.9,466.9,330.7z"/>
	<path d="M410.3,484.3c-1.3-0.6-1.4,0.7-1.8,1.3c-0.6,0.8-1.1,1.7-1.8,2.5c0.1-1.3,0.9-2.2,1.5-3.2c0.6-1,0.8-1.7-0.7-2
		c-1-0.2-1.5-1.1-2.4-2.1c1.7,0.5,3,1.2,4.3,1.1c1.6-0.1,1.6-2.2,3.2-3.4C411.6,480.7,410.4,482.3,410.3,484.3L410.3,484.3z"/>
	<path d="M277.7,658.5c1.6-0.4,2.5,0.2,3.3,1c1,0.9,2.3,1.3,3.5,1.7c2,0.7,4.1,1.2,6.1,1.9c0.4,0.1,1.3-0.8,1.2,0.4
		c-0.1,0.8-0.9,0.4-1.4,0.3C286,662.9,281.9,661.3,277.7,658.5z"/>
	<path d="M346.9,179.5c-0.5,4.7-0.9,9.5-3,13.9C344.1,188.6,345.8,184.1,346.9,179.5z"/>
	<path d="M406.9,425.7c-6.8-1.8-13.5-3.6-20.3-5.4c0-0.2,0.1-0.3,0.1-0.5c3.8,0.9,7.5,1.8,11.2,2.8c2.6,0.7,5.1,1.5,7.7,2.2
		C406.2,425.1,406.6,425.2,406.9,425.7L406.9,425.7z"/>
	<path d="M426.9,650.6c-2.6,1.9-6.1,0.8-9.7-2.9C420.9,647.6,423.2,651.4,426.9,650.6z"/>
	<path d="M336.5,317.6c1.1,0.4,2.7,0.3,2.9,1.4c0.3,1.6,0.2,3.3-0.1,4.9c-0.3,1.3-1.7,0.7-2.7,0.6c-1,0-1.3-0.6-1.3-1.6
		C335.5,321.1,336.1,319.4,336.5,317.6z M338.6,321.5c0.5-1.6,0.5-2.8-1.1-3c-1.2-0.1-1.4,1.2-1.2,1.8c0.3,1.1-1.3,3.1,1.1,3.3
		C339.6,323.9,338.3,322,338.6,321.5z"/>
	<path d="M358,255c-1-3-2.7-5.9-1.3-9.5C358.3,248.8,358.4,251.9,358,255z"/>
	<path d="M429.5,664.3c-3.1,2.3-4.7,2.2-6.9-0.4c-0.6-0.7-1.2-1.4-2.1-1.9c-0.3-0.2-0.9-0.1-0.5-0.7c0.3-0.5,0.5-0.4,1,0.1
		c0.9,0.8,2,1.3,2.7,2.2c1,1.4,2.6,1.3,3.5,0.7C428.3,663.7,428.7,664.3,429.5,664.3z"/>
	<path d="M319.8,349.8c0.8-0.1,0.6,1,1.4,1c0.5-1.2-0.4-2.3-0.2-3.5c1,2.3,1.8,4.6,1.2,7.3c-0.3,1.2-0.9-0.1-1.4,0.4
		c-0.7,0.6-0.5-0.4-0.5-0.6C320.1,352.8,320.4,351.3,319.8,349.8z"/>
	<path d="M369.9,435.2c-2.5-4.9-2.1-10.4-4.1-15.4C368.8,424.5,368.2,430.1,369.9,435.2z"/>
	<path d="M366.3,244.5c0-3.9-0.3-7.8,0.6-11.7c0.7,1.7,0.9,3.4,1.1,5.1c0.1,0.7,0.3,1.6-1,1.4c-0.1,1.2-0.5,2.6-0.1,3.7
		C367.1,243.8,366.5,244,366.3,244.5z"/>
	<path d="M371.7,143.2c0.1,1.5-0.2,2.6-1.3,2.8c-2.5,0.4-4.8-0.5-6.6-2.3C366.3,144.6,368.9,145,371.7,143.2z"/>
	<path d="M402.8,684.6c-0.1-1.3-2.8-2-1.1-3.9c0,0-1-1.1-1.6-1.6c-0.6-0.6-1.5-0.8-1.7-1.9c1.5,1.3,4.1,1.3,4.2,4.2
		c0,0.6,1.1,1.2,1.7,1.7c0.6,0.5,1.2,1,2.3,1.8c-1.5,0-2-0.8-2.6-1.2C402.9,683.1,402.9,683.9,402.8,684.6
		C402.8,684.6,402.8,684.6,402.8,684.6z"/>
	<path d="M316.9,349.8c1.9,1.1,2.6,3.7,1.7,5.9c-0.2,0.5,0.5,2-1,1.4c-1.2-0.5-1.2-2-0.9-2.8C317.3,352.5,317.5,352.6,316.9,349.8z"
		/>
	<path d="M433.5,346.2c3.5-0.4,2.4-4.2,4.4-5.6c0,1.5-0.3,2.9-1,4.1c-1.1,1.8-0.5,2.5,1.2,3c0.4,0.1,0.8,0.5,1.1,0.9
		C437,348.6,435.6,346.6,433.5,346.2z"/>
	<path d="M360,626.8c1.2-3.8,2-7.5-1.1-11c1.9-0.1,1.4,1.4,1.8,2.2c0.5,1.1,0.8,2.2,1.5,3.2c0.7,1.1,0.1,1.9-0.4,2.8
		C361.2,624.8,360.6,625.8,360,626.8z"/>
	<path d="M359.8,502.3c-0.6-1.4-0.7-2.6-0.4-4.1c0.8-3.8-0.8-6.5-4.4-8.8c3.8,1,5,2.5,5,5.7c0,2.3,0,4.6-0.1,6.8
		C359.9,502,359.8,502.1,359.8,502.3z"/>
	<path d="M451.6,346.2c0.8,1.1-0.6,1.6-0.7,2.4c-0.1,0.9-1.3,1.8-0.3,2.5c1.1,0.9,2,0.1,2.7-1c0.1,2.5,0.1,2.5-6.7,1.2
		C450.2,351.4,449.9,347.8,451.6,346.2z"/>
	<path d="M278.6,648.2c-1.3,4-1.3,4-0.1,6.5c-1.3,0-2.7-0.2-3-1.5C274.9,650.9,276.9,649.9,278.6,648.2z"/>
	<path d="M406.9,425.7c3-0.9,5.5,1,8.2,1.5c2.5,0.5,5,1.4,7.4,2.3C417.1,428.7,412.2,426.5,406.9,425.7
		C406.9,425.7,406.9,425.7,406.9,425.7z"/>
	<path d="M377,325.6c0.8,1.9-0.4,4,1.3,4.5c1.6,0.5,3.8,1,5.1-1.2c0.3,0.9,0.5,1.9-0.5,2.1c-1.8,0.4-3.9,0.7-5.5-0.5
		C376,329.5,376.8,327.7,377,325.6z"/>
	<path d="M323.6,401.2c5,0.7,9.6,2.5,14.4,4.1C333.2,404,328.3,403.3,323.6,401.2L323.6,401.2z"/>
	<path d="M467.1,320.8c-0.2-1.9-1.4-0.9-2.3-1.1c2.2-1.1,2.8-3.9,5.7-5.3C469.2,316.8,468.2,318.6,467.1,320.8z"/>
	<path d="M342.7,194.4c2.1,0.7,2.4,2.2,1.6,3.9c-1.2,2.5-1.7,5.2-2.8,7.8c0.5-2.4,0.7-5,1.7-7.3C344,197,344,195.8,342.7,194.4z"/>
	<path d="M411.1,695.2c-3.5,0.5-6.8,1.8-10.4,1.4c0.8-1.6,2.6-1.1,3.7-1.1c2.1-0.1,4.1-0.1,6-1C411,694.1,411.1,694.7,411.1,695.2
		L411.1,695.2z"/>
	<path d="M369,699.1c2.1-0.8,4.2-0.6,6.2-0.1c0.8,0.2,2.2-1.3,2.1,0.4c-0.1,1.1-1.7,0.5-2.6,0.5C372.8,699.7,370.9,699.3,369,699.1z
		"/>
	<path d="M416.2,287c2.9-0.8,5.6-1.6,8.8-2.6c-0.7,0.9-1,1.9-1.6,1.7C420.9,285.7,418.9,288.6,416.2,287z"/>
	<path d="M339.6,289.6c-0.4,2.8-0.5,5.5,0.2,8.1C337.8,296.5,337.6,291.7,339.6,289.6L339.6,289.6z"/>
	<path d="M394.2,216.3c1.4,1.6,1.5,3.7,1.9,5.6c0.1,0.3,0,1.2-0.7,1.3c-0.7,0.1-0.9-0.5-0.9-1.1
		C394.6,220.1,394.3,218.2,394.2,216.3z"/>
	<path d="M479.6,401.2c3.8,2.2,7.2,4.8,10.5,7.6C486.2,406.9,482.9,404,479.6,401.2z"/>
	<path d="M389.6,214c1.7,2.3,1.9,4.2,2.1,6.1c0.1,0.6-0.2,0.9-0.8,0.9c-0.7,0-0.4-0.5-0.4-0.8C390.2,218.4,389.9,216.5,389.6,214z"
		/>
	<path d="M330.2,650.3c1.6-2.5,0.5-4.2-0.8-6c2.2,1,2.3,4.2,5.2,4c-0.8,0-1.6-0.1-2.4,0c-0.8,0.1-0.8,0.2-0.2,1
		C332.2,649.6,332.1,649.6,330.2,650.3z"/>
	<path d="M371,225.1c0.2,3.3,0.4,5.8,0.5,8.4c0,0.2-0.4,0.5-0.6,0.6c-0.4,0.1-0.4-0.3-0.4-0.6C370.7,230.9,369.8,228.3,371,225.1z"
		/>
	<path d="M260.8,336c1.4,0.5,2.3,0.3,3.2,0c0.5-0.2,1.3-0.7,1.7,0c0.2,0.4-0.1,1.2-0.3,1.8c-0.2,0.8-0.3,0.6-1,0.2
		C263.4,337.4,262,337.5,260.8,336z"/>
	<path d="M427.5,678.1c1.5-1.6,2-3.8,3.5-5.4c0.4-0.5,0.6-0.6,1-0.2c0.3,0.3,0.5,0.5,0.1,0.9C430.5,674.9,429.4,676.9,427.5,678.1z"
		/>
	<path d="M414.3,532.7c1.4-1.9,0.3-4.9,2.8-6.4C416.5,528.7,416.3,531.1,414.3,532.7z"/>
	<path d="M387.1,226.5c-0.2-2.5-0.4-4.9-0.5-7.3c0.2,0,0.4,0,0.6,0C387.5,221.6,389.2,224,387.1,226.5z"/>
	<path d="M367.7,158.8c-1.9-1.6-3.3-2.9-3.5-5.1C366.3,154.5,367,156.2,367.7,158.8z"/>
	<path d="M432.4,335.5c1.1-3.2,2.2-6.4,3.3-9.5C435.3,329.3,434.5,332.6,432.4,335.5z"/>
	<path d="M403.9,380.9c-0.3,1.7-1.4,2.7-0.5,3.9c0.9,1.3,1.8-0.3,3.1,0.3c-1.1,0.8-1.8,1.8-3.1,1.1
		C401.9,385.5,402,383.7,403.9,380.9z"/>
	<path d="M403.7,302.8c2.5,0.1,4.6-2.2,7.2-1.7C408.5,301.8,406.4,303.8,403.7,302.8z"/>
	<path d="M315.5,320.4c1.2-3.1,2.9-6,5.2-8.5c0,0,0,0,0,0C319.3,314.9,317.9,317.9,315.5,320.4L315.5,320.4z"/>
	<path d="M339.7,289.6c0.2-1.9,1.2-3.4,2.4-4.7c0.4-0.4,0.7-0.7,1.1-0.2c0.4,0.4,0,0.5-0.3,0.9C341.8,286.8,341.5,288.9,339.7,289.6
		C339.6,289.6,339.7,289.6,339.7,289.6z"/>
	<path d="M361,643c1.2-2.9,3.9-3.2,5.5-4.8C365.5,640.6,363.1,641.3,361,643z"/>
	<path d="M426.9,640.9c1.9-1.3,4.2-0.7,6.6-1.6C431.5,642.2,428.9,640.4,426.9,640.9z"/>
	<path d="M459.8,440c3.3,0.1,6.3,1.2,9.2,2.7C465.9,441.8,462.8,440.9,459.8,440z"/>
	<path d="M446.3,436.3c3.4,0.6,6.9,1.1,10.1,2.8C453,438.2,449.7,437.3,446.3,436.3z"/>
	<path d="M323.7,401.2c-3.2-0.4-6.2-1.3-9.2-2.6C317.6,399.3,320.7,399.9,323.7,401.2C323.6,401.2,323.7,401.2,323.7,401.2z"/>
	<path d="M313.9,352.4c1.2,2.1,1.7,4.3,1.4,6.6C314,357,314.5,354.6,313.9,352.4z"/>
	<path d="M468.9,427.5c3,0.5,6,1,9,1.4C474.7,429.2,471.7,428.6,468.9,427.5z"/>
	<path d="M336.1,497.5c-0.4-2.8-0.1-5.5,1.2-8.1C337,492.1,336.5,494.8,336.1,497.5z"/>
	<path d="M446.7,169.7c-1.6-2.6,0.9-5.2,0-6.7C446.7,164.5,446.7,167.1,446.7,169.7z"/>
	<path d="M350.9,175.7c-0.8-2-1.7-4,0-6.1C350.9,171.6,350.9,173.6,350.9,175.7z"/>
	<path d="M457.8,296c-2.5-1.9-0.6-3,0.8-4.5C458.6,293.2,458.2,294.6,457.8,296z"/>
	<path d="M387.3,687.2c-1.8-1-3.9-1.4-5.8-3.2C384.2,684.4,386.2,685,387.3,687.2L387.3,687.2z"/>
	<path d="M346.4,166.7c0.7,2.7,0.1,5.4,0.4,8.7C345.4,172.1,345.9,169.4,346.4,166.7C346.4,166.7,346.4,166.7,346.4,166.7z"/>
	<path d="M425.5,545c1.1,1.1,2.1,2,2.8-0.5c0.3,1.4,0.1,2.5-0.4,3.6C426.5,547.4,425.7,546.5,425.5,545z"/>
	<path d="M404.5,328.5c-1.2,1.3-2,2.2-3.2,1.6c-1.1-0.5-2.1-1.3-1.9-3C401.3,329.5,401.3,329.5,404.5,328.5z"/>
	<path d="M432.9,684.3c2-0.6,4.1-1.1,5.7-3.1C438,683.3,435.5,684.6,432.9,684.3z"/>
	<path d="M414.4,325c0.6,2.9,1.8,3.3,4.3,1.5c-0.2,2.1-1.8,2.2-3.3,1.8C413.7,327.8,413.5,326.5,414.4,325z"/>
	<path d="M387.3,687.2c1.5-0.8,2,0.8,3.2,1.1c-1.1,1.6-2.3,1.5-3.8,0.7c0.7-0.6,1.3,0.7,2-0.2C388.2,688.3,387.8,687.7,387.3,687.2
		C387.3,687.2,387.3,687.2,387.3,687.2z"/>
	<path d="M433.8,568.3c-1.9,1.6-3.6,2.2-5.6,2.4C429.8,569.7,431.2,568.4,433.8,568.3z"/>
	<path d="M330.4,553.8c-2.3-1.6-1-4-2.4-5.6c-0.3-0.3-0.1-0.8,0.3-1c0.1,0,0.5,0.3,0.6,0.5C329.4,549.7,329.9,551.6,330.4,553.8z"/>
	<path d="M404.4,418.4c3.3-0.1,6.3,1,9.6,1.2C410.7,419.5,407.5,419.5,404.4,418.4C404.4,418.3,404.4,418.4,404.4,418.4z"/>
	<path d="M357.7,483.3c2.2,0.2,3.6,1.7,5.7,3.2C360.8,486.1,359.4,484.5,357.7,483.3z"/>
	<path d="M452.8,425.1c-2.9,0.2-5.7-0.3-8.4-1.2C447.1,424.3,450,424.7,452.8,425.1z"/>
	<path d="M350.9,154.6c0.2,2-0.5,4.3,2.1,5.5C349.9,159.1,349.4,157.4,350.9,154.6C351,154.7,350.9,154.6,350.9,154.6z"/>
	<path d="M410.4,246.8c1.3-1.8,2.3-3.9,4.2-5.2C413.8,243.8,411.8,245.1,410.4,246.8z"/>
	<path d="M372.3,446.3c-1.3-2.4-1.2-5-1.8-7.6C371.7,441.1,371.9,443.7,372.3,446.3C372.2,446.3,372.3,446.3,372.3,446.3z"/>
	<path d="M345.7,328.3c-0.9-2.7-1.1-4.7,0-7.3C345.7,323.6,345.7,325.6,345.7,328.3z"/>
	<path d="M414.4,276c-2.3,0.7-4.6,1.2-7,1C409.8,276.9,412,275.7,414.4,276z"/>
	<path d="M446.7,174.8c-0.2-2.7-0.2-2.7,1.6-3.9C446.8,171.7,449.1,174.1,446.7,174.8z"/>
	<path d="M410.3,484.4c2,0.7,2-1.8,3.8-2.3c-1.3,1.6-1,3.6-3,4.1C411,485.6,411.6,484.6,410.3,484.4
		C410.3,484.3,410.3,484.4,410.3,484.4z"/>
	<path d="M415.6,392.7c-2.9-0.5-3.7-2-3.4-5.4C412.3,389.5,413.4,391.1,415.6,392.7z"/>
	<path d="M288.5,650.5c1.9-0.4,2.8-2.2,5.2-1.4C291.9,649.7,290.8,651.2,288.5,650.5z"/>
	<path d="M414.7,202c-0.4-1.4-1-2.6,0-3.9c0.2-0.2-0.7-1.1,0.4-0.9c0.7,0.1,0.9,0.8,0.5,1.3C414.8,199.5,415.1,200.8,414.7,202z"/>
	<path d="M407.3,554.9c0-2.8,1.2-4.4,2.6-6C409.1,550.7,408.4,552.5,407.3,554.9z"/>
	<path d="M364,466.5c1.6,0.3,3.2,0.5,3.7,2.5C366.5,468.2,365.3,467.3,364,466.5z"/>
	<path d="M428.6,166.1c0.2-1.7,0.3-3.4,1.6-4.8C431.5,163.6,429.3,164.6,428.6,166.1C428.6,166.1,428.6,166.1,428.6,166.1z"/>
	<path d="M424.5,643.3c1.7-1.3,3.3-0.7,4.9,0C427.7,643.3,426.1,643.3,424.5,643.3z"/>
	<path d="M366.5,134c-2.2,0.4-3.8,1.9-6.5,1.6C362.4,134.9,364.1,133.7,366.5,134z"/>
	<path d="M260.8,357.9c0.2-2.2,1.2-3.4,2.5-4.4c0,0,0.5,0.3,0.5,0.3C263.3,355.4,262,356.4,260.8,357.9z"/>
	<path d="M280.1,350.8c1,1.8,1.8,3.7,1.8,6c-0.8-1.9-1.6-3.8-2.4-5.7C279.7,351,279.9,350.9,280.1,350.8z"/>
	<path d="M359.9,113.9c0.2-0.2,0.4-0.5,0.6-0.7c0.6-0.6-1.3-1.4,0-1.6c1.1-0.1,2,1.1,2.6,2.1c0.3,0.6,0.6,1.4-0.1,1.9
		c-0.6,0.4-1.2,0.2-1.7-0.3C360.8,114.9,360.3,114.3,359.9,113.9C359.8,113.8,359.9,113.9,359.9,113.9z"/>
	<path d="M361.1,109.9c1.5,0.8,4.2,0.3,4,3.7C363.6,112.2,362.8,110.5,361.1,109.9z"/>
</g>
</svg>
