<?xml version="1.0" encoding="utf-8"?>
<!-- Generator: Adobe Illustrator 26.0.2, SVG Export Plug-In . SVG Version: 6.00 Build 0)  -->
<svg version="1.2" baseProfile="tiny" id="Layer_1" xmlns="http://www.w3.org/2000/svg" xmlns:xlink="http://www.w3.org/1999/xlink"
	 x="0px" y="0px" viewBox="0 0 800 800" overflow="visible" xml:space="preserve">
<g>
	<path d="M478.8,593.2c2.3-1.9,1.9-4.8,2.3-7.3c0.4-2.3,1.2-4.5,1.4-6.8c0.6-6.5,1.6-13.1,2-19.6c0.1-1.5-0.3-2.9-0.9-4.2
		c-2.2-4.8-5-9.3-8.1-13.6c-1.6-2.2-3.6-3.2-6.3-3c-2.4,0.2-4.8,0.2-7.2,0.3c-2,0.1-3.5,0.9-4.7,2.6c-6.2,8.9-13.2,17.2-19.1,26.3
		c-0.8,1.2-1.9,1.9-2.8,2.8c-2.6,2.5-2.4,5.9-2.2,8.9c0.5,8.6,2.8,16.9,5.5,25.1c0.6,2,1,4.1,1.5,6.1c0.3,1.5,0.8,2,2.2,0.8
		c1.5-1.3,3.1-2.3,5-3.8c-0.3,1.2-0.8,1.7-1.3,2.2c-2.3,1.7-4,4-5.5,6.4c-1,1.5-2.7,2.5-3.3,4.5c-0.4,1.3-0.4,2.4-0.1,3.5
		c0.6,1.9,1.3,3.8,1.9,5.8c0.2,0.5,0.5,1.1,1,0.6c1.6-1.6,4.1-2.2,4.9-5c-1.6,0.5-2.3,2.1-3.9,2.1c0.8-1.5,2.7-2,3.2-3.8
		c-1.2-0.5-1.8,0.7-2.9,1c0.8-2.1,2.8-3,4-4.5c-0.6-0.6-0.9-0.2-1.2,0.1c-0.7,0.7-1.5,1.4-2.6,0.7c0.5-0.8,0.1-1.8,0.7-2.6
		c1-1.2,2.6-1.8,3.3-3.5c-0.9-0.5-1.3,0.8-2.7,0.4c4.7-2.3,6.2-7.2,10.2-10.4c-0.6,2-2.4,2.7-2.8,4.4c3.5-2.6,6.9-5.4,10.1-8.4
		c-1.5,2.6-3.3,5.1-5.6,7c0.6,0.7,0.9-0.4,1.4,0c-1.1,1.3-2.3,2.5-3.4,3.8c2.8-1.1,4.7-3.5,7.1-5.3c-0.5,1.6-1.8,2.7-2.8,3.9
		c-0.3,0.4-0.9,0.7-0.5,1.3c0.5,0.6,0.9-0.2,1.2-0.4c1.1-0.9,2.1-1.9,3.3-2.8c-1.1,2.1-3.1,3.5-4.4,5.6c3.3-0.4,4.9-3.9,8.6-4.5
		c-6.2,4.7-10.5,11.1-17,15c5.5-2.5,10.5-5.7,15.2-9.4c0.1,0.1,0.2,0.3,0.3,0.4c-1.8,1.6-3.7,3.2-5.5,4.9c-2.8,2.4-5.2,5.2-7.4,8.2
		c-0.7,0.9-1,1.7,0.7,1.3c-2,0.8-3,2.4-3.8,4.6c1.8-0.8,2.2-2.8,3.9-3.2l0,0c-0.4,1.7-2,2.4-2.9,3.7c-0.4,0.6-1.3,1-0.9,2.1
		c0.8-0.3,1.2-1,1.7-1.5c1.8-2.1,3.8-3.8,6.8-3.6c0.4,0,0.9-0.5,1.3-0.7c2-1.4,4.2-2.5,6.6-3.3c-3.3,1.7-6.1,4.2-9.3,6.2
		c-3.2,2-4.2,6.2-7.9,8.1c0.1-1.3,0.1-2.2,0.2-3.4c-1.2,0.9-1.2,2.3-2.2,3.4c0.1-4.1,1.4-7.6,3.4-10.9c-1.2,0.7-2.9-0.3-4,1.1
		c0.7-0.9,1.4-1.9,2.5-3.3c-2.4,1-3,3.1-4.9,3.7c1.7-2.1,3.4-4.2,5.1-6.3c-1.5,0.3-2.3,1.3-3.2,2.2c-0.3,0.2-0.5,0.6-0.8,0.7
		c-4.3,1.3-3.4,4.3-2.2,7.3c0.2,0.5,0.3,0.9,0,1.4c-0.7-0.1-0.6-1.2-1.4-1.3c-0.7,1.3-1.2,2.7-1,4.3c0.9,0.2,0.8-1,1.9-1
		c-1.4,2.4-3.7,4.3-3.1,7.8c1.6-2.7,2.4-5.5,5.2-7.1c-1,2.4-2.2,4.2-3.6,6.3c1.6-0.4,2.1-1.9,3.5-2.4c-0.3,3.4-3.5,5-4.7,8
		c3.2-0.8,3.9-4.1,6.3-5.6c0,1.4-1,2-1.8,2.8c-1.2,1.3-2.2,2.7-3.1,4.2c-0.3,0.5-0.7,1.1-0.1,1.5c0.7,0.4,1-0.4,1.3-0.8
		c0.2-0.2,0.3-0.5,0.5-0.7c1.1-2.1,2.1-4.2,4.6-5.2c-1.8,2.8-1.6,6.3-3.7,8.9c-0.5,0.6-0.6,1.1,0.6,1.5c1,0.3,1.4,0.4,1.7-0.5
		c0.4-1.4,0.7-2.9,0.8-4.5c-0.1,2.6,1.7,4.1,3.3,5.6c0.7,0.7,1.6,1.3,1.7,2.4c0,0.5,0,1.2,0.8,1c0.6-0.1,0.7-0.8,0.5-1.3
		c-1.1-2.9,0.4-5,1.9-7.2c1.9-2.8,4.5-4.9,6.9-7.2c2.2-2,5.1-2.8,8.2-1.8c1,0.3,2.1-0.2,3.3,0.4c-2.8,1-5.8,1.2-8.3,2.7
		c3.5-0.4,6.9-1.4,10.7-0.9c-1.9,1.6-4.1,1.4-6.1,1.9c-3.8,0.9-7.7,1.8-10.9,4.4c-0.4,0.3-1.2,0.6-0.7,1.3c0.4,0.5,0.9,0,1.3-0.4
		c2.9-2.4,6.5-3.3,10-3.6c1.7-0.1,3.4-0.3,5.3-0.8c-1,1.3-2.3,1.5-3.3,2.4c0.9,0.8,1.6-0.5,2.3,0.1c-1.7,1.7-4,2.5-6.1,3.6
		c-0.5,0.3-1.3,0.6-1,1.2c0.4,0.8,1,0,1.5-0.2c1.5-0.7,3-1.5,4.5-2.3c0.5,0.6-1.7,2.5,1.2,1.3c-2.8,3-6.8,3.4-9.3,6.2
		c5-1,9.9-2.1,15.5-3.2c-2.7,2-5.9,2.1-7.5,4.8c2.2-1.2,4.5-2,6.9-2.7c-1.7,1.8-4.7,2.1-6.2,4.9c3-1.8,5.8-3.1,9.3-3.4
		c-1.7,2.3-4.8,1.8-6.4,3.9c1.7,0.5,2.8-0.8,4.2-0.8c-0.3,0.5-0.5,1-0.8,1.4c-1,1.1-0.6,1.5,0.7,1.4c0.4,0,1-0.5,0.9,0.5
		c-0.1,1.7,1,1.2,2.2,0.6c-0.8,2.2-3.1,3.2-3.4,5.5c2.2-1,3.3-3.4,5.7-3.7c-0.5,1.3-1.8,2-2,3.5c1.8-1.2,3.2-2.8,5.4-4.1
		c-1.8,4.1-6.9,5.5-6.6,10.5c1.6-2.1,3.3-4.1,5.9-6c-1.2,2.4-2,4.5-2.2,7.1c2.4-2.1,2-5.6,4.8-7c-1.3,1.6-1.6,3.7-2.3,5.5
		c-0.4,1-0.1,1.3,0.9,1.4c2.2,0.3,3.9-0.1,4-2.8c0.1,0.1,0.2,0.1,0.2,0.2c0.4,0.8-1.5,2.2,0.7,2.5c2.1,0.2,4.3-1.3,4.3-2.9
		c0-0.4-0.2-0.7-0.6-0.7c-0.6-0.1-1.2,0-1.4,0.7c-0.2,0.6,0.1,1.5-1,1.9c0.1-1.1,0.1-2.1,0.4-2.9c0.5-1,2,0.4,2.6-0.8
		c-0.3-0.9-1.5-0.2-2-1.1c1-0.8,3,0.1,3.3-1.6c0.2-1.4-0.5-2.6-2-3.7c3.4-0.1,6.5-0.4,9.5,0.6c0.4,0.1,1.2,0.1,1,0.9
		c-0.2,0.6-0.7,0.3-1.1,0.2c-0.5-0.2-0.9,0-1,0.5c-0.1,0.6,0.2,1.1,0.8,1.1c0.8,0,1.9,0.4,2.5-0.2c0.6-0.6,0.1-1.5-0.4-2.6
		c2.7,3.4,1.7,7.6-1.9,8.8c-7.4,2.4-15,2.9-22.8,2.3c-5.7-0.5-10.9-2.3-16.1-4.5c-1.7-0.7-3.3-1.5-4.5-2.9c1.5,0.1,2.4,1.3,3.6,1.9
		c0.7,0.4,1.4,0.6,1.9-0.2c0.3-0.4,0.8-1,0.4-1.4c-0.7-0.7-1.6-0.6-2.9-0.3c2.7-1.7,0-2.8,0.2-4.4c-0.9,0.7-1.1,1.5-1.5,2.2
		c-0.2,0.4-0.3,0.9-0.9,0.6c-0.5-0.2-0.6-0.6-0.4-1.1c0.3-0.6,0.5-1.2,0.9-1.8c0.5-0.8,0.1-1.4-0.5-1.6c-0.7-0.2-0.7,0.6-0.8,1
		c-0.3,1.2-0.7,2.3-1.5,3.3c0.3-1.4,0.7-2.9,1-4.4c-1.6,0.5-1.4,2.4-2.8,3c0-1.4,0.8-2.3,1.1-3.5c-1.4-0.1-1.5,1.2-2.6,1.6
		c1-2.3,2.8-4,3-6.4c-1.1,1.4-2.9,2.2-3.5,4c-0.2,0.8-0.8,1.2-1.5,1.4c0.7-2.5,1-5.2,2.4-7.5c-1.1,0.6-1.6,1.3-2.6,1.8
		c-1.7,0.8-1.9,3-0.7,4.6c0.3,0.4,0.9,0.5,0.9,1.1c0.5,0.4,0.7,0.8,0.6,1.9c-1.4-1.8-3.6-3.2-3.6-4.7c-0.1-2.9-1.7-2.4-3.5-2.7
		c-3.6-0.6-6.5-2.9-9.5-4.9c-0.5-0.3-0.9-1-1.5-0.6c-0.7,0.4-0.3,1.2,0,1.8c1.3,2.7,3.2,4.7,6.1,5.8c2.6,0.9,5.5,1.3,7.5,3.6
		c0.5,0.6,1,1.2,1.4,1.9c2.9,4.9,7.7,7.3,12.5,9.5c7.8,3.7,16.1,5.8,24.7,5.6c6.2-0.1,12.3-1.4,17.7-4.7c0.3,0.3,0.4,0.6,0.1,0.8
		c-4.5,2.8-9.3,4.5-14.7,5.3c-9.9,1.4-18.7-2.3-27.8-5c-0.3-0.1-0.7-0.3-1-0.4c-0.7-0.4-2.3,0.2-1.7-1.8c0.1-0.3-1.8-1.6-2.8-1.7
		c-2.9-0.2-4.9-2-6-4c-2.7-4.8-6.8-6.9-11.6-8.7c-3.1-1.2-5.7-4.2-5.2-7.1c0.9-4.7-1.9-8.8-0.8-13.2c0.5-2.1,0.2-4.5,1.2-6.3
		c2.4-4.6,1.2-8.8-0.4-13c-1.4-3.7-1.8-7.1,1.1-10.3c1-1.1,1-2.8,0.7-4.1c-1.1-4.8-2.6-9.5-3.7-14.2c-1.6-6.3-2.8-12.7-3.5-19.1
		c-0.3-2.8,0.3-5.6,2-8.1c0.5-0.8,0.6-1.4,0.2-2.3c-0.9-2.1-0.9-4.5-1.2-6.8c-0.8-6.4,0-12.9,0.5-19.3c0.5-5.3,1.4-10.6,3.6-15.6
		c0.8-1.8,0-3.7-0.5-5.5c-1.7-5.9-2.2-11.9-2.5-18c-0.4-8.1-1-16.2-0.6-24.2c0.4-7.7-2-14.8-3.4-22.1c-1.1-5.4-3.1-10.5-3.4-16.5
		c-1.3,1.8-0.7,3.3-0.9,4.8c-1.1,6.5-2.4,13-3.1,19.5c-0.6,5.8-1,11.5-2.1,17.2c-1.1,6.1-1.7,12.2-1.2,18.4c0,0.6,0.6,1.6-0.8,1.9
		c-0.6,0.1-0.5,0.8-0.2,1c1.4,0.8,0.9,2.1,0.7,3.1c-0.4,2-0.1,4.2-1.3,6.1c-0.3,0.4-0.1,1.1,0,1.7c0,0.2,0.3,0.5,0.2,0.6
		c-1.2,0.7-2.5,1-0.2,2.4c0.8,0.4,0.2,2.7-0.1,4.1c-0.3,1.5-0.6,3-0.9,4.5c-0.3,1.4-0.6,2.8-0.8,4.3c-0.2,1.4-0.6,2.9-0.6,4.3
		c0.1,2.3-0.6,4.3-1.6,6.2c-2.2,4.3-0.6,8.8-0.3,13.2c0.2,3.5,1.3,6.9,0.3,10.5c-0.3,0.9-0.2,2,0.3,3c2.8,5.5,1.3,11.2,0.8,16.8
		c-0.1,1-0.7,2-1.2,3c-2.3,4.7-3,9.7-3.9,14.7c-1.4,7.5-2.7,15.1-3.4,22.7c-0.5,5.2-0.5,10.5,0.9,15.7c1,3.7,0.4,7.3-1.3,10.7
		c-0.5,1.1-0.5,1.8,0.3,2.7c1.7,1.7,2.3,3.9,2.6,6.3c0.3,2.3,1.1,4.6,1.9,6.9c0.9,2.4,1.3,4.8,0.6,7.4c-0.5,1.7-0.4,3.4,0.8,4.9
		c0.4,0.4,0.8,1.1,0.5,1.6c-0.7,1.4,0,2.5,0.3,3.8c0.9,3.4-0.1,5.8-3.1,7.4c1.1-1.7,2.2-3.3,2.4-5.4c0.1-0.5,0.1-1-0.4-1.4
		c-0.6-0.4-0.9,0.2-1.4,0.4c-1.3,0.5-1.6,2.1-2.7,2.8c-3.4,2.3-7.1,4-11.1,5.1c-5.2,1.5-10.4,1-15.7,0.8c-1.8-0.1-3.6,0.1-5.4-0.2
		c-4.7-0.8-9.3-1.9-13.5-4.2c-0.3-0.2-0.6-0.5-1-0.1c-0.3,0.3-0.1,0.7,0.1,1c1,2.4,3.3,3.2,5.4,4c6.3,2.5,13,3.2,19.7,3.6
		c7.9,0.5,15.3-2.1,22.1-6.3c0.4-0.3,0.8-0.9,1.5-0.2c-4.9,3.9-10.7,6-16.7,7.1c-8.2,1.5-16.2-0.3-24.2-2.4c-3.2-0.8-6.1-2-8.3-4.6
		c-1.2-1.4-1.1-2.2,0.3-3.5c0.5-0.5,0-0.8-0.2-1.1c-2.5-4-2.2-8.1-0.3-12.2c1.1-2.4,1.5-5.1,2.7-7.5c1.9-3.9,2.2-8.3,3.5-12.3
		c0.1-0.2,0.2-0.3,0.4-0.5c2.7-1.8,2.5-4.5,1.6-6.9c-0.8-2.4-1-4.8-0.4-7c1.6-5.9,2.4-12.1,5.2-17.6c0.6-1.1,1-2.2,1.7-3.2
		c0.5-0.8,0.4-1.5,0.3-2.3c-1.1-0.1-1.2,1-2.1,1.7c0.1-1.7,1-3,0.8-4.6c-1,0.4-1.1,2-2.5,1.9c1.3-2,2.6-3.9,2.6-6.3
		c-1.2-0.2-1.5,1-2.5,1.2c0-1.9,1.9-2.9,1.9-4.8c-1.1-0.4-1.8,0.6-2.7,0.9c0.8-2.8,3.1-4.6,4.5-7.6c-2.3,1.3-2.6,3.6-4.5,4.2
		c0.8-2.8,3.2-4.9,3.5-8.4c-1.9,1.2-2.6,3.1-4.5,3.4c1.2-3,3.6-5.1,4.9-7.9c0.1-0.2,0.9-0.1,0.5-0.8c-0.3-0.4-0.7-0.4-1.1,0
		c-1.5,1.2-3,2.5-4.7,3.9c0.5-3,2.9-4.4,4.4-7c-2.4,0.8-3.5,2.8-5.7,3.8c2.2-3.6,5-6.2,7.1-9.3c-2.4,1.1-3.8,3.5-5.9,5
		c-0.3-0.4,0.5-1-0.2-1.5c-1,0.8-1.7,2-2.9,2.7c-0.4-0.7-0.6-1.1-0.1-1.9c1.9-3.3,3.9-6.5,6.4-9.5c1.7-2,3-4.4,4.5-6.6
		c3.2-4.6,7.1-8,13-8.5c0.3,0.7-0.7,1.1-0.6,1.8c0.6,0.9,1.9-1.1,2.1,0.3c0.1,0.9-0.2,2.4-2,2.1c-1.4-0.2-0.6,1.2-1.1,1.7
		c-1.2,1-2.4,2.1-3.5,3.2c-1.1,1-2.1,2.1-2.9,3.3c2.8-0.9,4.7-3.6,7.9-3.8c-1.4,2.3-3.6,3.6-5.2,5.5c0.1,0.1,0.2,0.3,0.3,0.4
		c1.4-0.7,2.7-1.3,4.1-2c-1.7,1.5-2.3,3.6-4.2,5.7c2-0.3,3.1-1.5,4.8-1.6c-2,1.8-3.9,3.5-5.7,5.1c-0.4,0.3-1,0.6-0.6,1.2
		c0.5,0.7,0.9,0,1.2-0.2c2.1-1.3,4.2-2.5,6.3-3.8c2-1.2,2.3-2.2,0.7-3.6c-1.2-1-1.1-1.5,0.2-2.3c1.5-1,2.2-2.8,3.8-3.7
		c0.5-0.3,0.7-0.9,0.3-1.5c-0.4-0.7-0.9-0.4-1.5-0.1c-0.4,0.2-0.7,0.6-1.3,0.3c1.2-2.2,3.1-3.6,5.1-4.9c0.5-0.3,1.6-0.5,1-1.3
		c-0.5-0.7-1.3-1-2.3-0.3c-1.2,1-2.5,1.8-3.9,2.5c0.9-1.6,2.8-2.2,3.8-3.7c0.6-0.8,3.7,1.4,4.2,3c-1.2,0-1.9,0.9-2.8,1.5
		c-0.3,0.2-0.4,0.6-0.2,1c0.1,0.1,0.3,0.3,0.5,0.3c1,0.1,2.5-1.6,2.4-2.8c0.9,0.9,2.9,1.2,1.9,3.2c-0.5,0-1,0-1.4,0.4
		c-0.4,0.4-1.1,0.6-0.8,1.3c0.1,0.4,0.6,0.9,0.8,0.9c0.6-0.1,1.3-0.3,1.7-0.7c0.6-0.7-0.4-1.2-0.4-1.9c0.8,1.2,2.9,1.8,2.1,3.9
		c-0.2,0.1-0.4,0.2-0.6,0.3c-0.7,0.3-1.3,0.7-0.9,1.6c0.3,0.6,0.8,0.8,1.4,0.6c1.1-0.4,0.5-1.1,0.3-1.7c-0.1-0.3-0.3-0.5-0.4-0.8
		c0.9,0.5,1.2,1.5,2.5,1.8c1.2,0.3-0.5,1.6,0.2,2.4c-0.5-0.1-1-0.1-1.4,0.2c-0.8,0.5-0.7,1.2-0.3,1.9c0.3,0.6,0.6,1,1.3,0.6
		c0.9-0.5,0.7-1.1,0.3-1.8c1,1.3,3.1,2.5,0.5,4.2c-0.3,0.2-0.2,0.7,0,1c0.4,0.4,0.8,0.3,1.2,0c0.7-0.6,1.6-0.8,2.8-1.2
		c-0.4,1.6-1.2,2.5-2.2,3.4c-0.5,0.4-0.9,0.9-0.4,1.5c0.5,0.6,1,0.3,1.5-0.1c1-0.8,2.2-1.3,2.4-2.8c0.4-2.7,1.1-5.4,1.5-8.1
		c0.2-1.9,0.1-3.7-0.8-5.6c-1.7-3.4-3.3-7-4.2-10.7c-1-4-3.7-6.8-5-10.4l0,0c0.9-0.1,0.8,0.9,1.5,1.1c1.2-1.5,1.6-3.4,1.4-5.8
		c1,1,0.2,1.9,0.9,2.4c0.2-0.1,0.5-0.2,0.5-0.3c0.6-3.3,2.5-6.2,2.6-9.6c0-0.9,0.2-1.8,0.5-2.6c1.1-3,0.5-5.8-0.3-8.8
		c-0.3-1.2-0.2-2.6,0.5-4.1c0.9,2.2,1.8,4.2,1.3,6.5c-0.1,0.5,0.2,0.6,0.5,0.8c0.4,0.2,0.9,0.2,1.1-0.3c0.2-0.5,0.1-1.1,0.2-1.7
		c0.2-1.4-0.4-2.7,0.5-4.1c0.6-1.1,0.1-2.1-1.4-2.5c-1.3-0.4-1.2-0.8-0.6-2c0.7-1.7,0.4-3.6,1.3-5.3c-0.9-0.4-1.3,0.2-1.5,0.5
		c-2.3,3-4.6,1.2-6.9,0.2c-1-0.5-1.9-1.3-3.2-1.4c1.1-0.6,1.9-0.1,2.8,0.2c2.9,0.9,5.6,0.3,8.3-1.1c0.7-0.4,0.9-0.9,1-1.6
		c0.9-4.9,1.2-9.8,0.9-14.8c-0.2-3,0.4-6.2,0.7-9.3c0.2-2,0.1-4.1-0.3-6.2c-0.2-1,0.6-2.5,1.6-3.5c0.6-0.5,0.8-1.1,0.7-1.9
		c-0.3-2.5,0.2-5,1.1-7.3c0.5-1.2,0.7-2.7,0.6-3.8c-0.4-3.9,2.4-7.2,1.5-11.1c0.8,0.1-0.3-1.9,1.3-1.1c0.4,0.2,0.5-0.7,0.2-0.9
		c-1.3-0.9-0.3-1.7-0.1-2.6c0.3-2.1,0.8-4.2,0.7-6.2c-0.1-2.6,0.8-5.2,0.5-7.8c-0.2-1.7,1.2-3.1,0.3-4.8c-0.1-0.2,0.5-0.9,0.8-1.3
		c1.2,3.5-0.9,7,0.2,10.5c0.2,0.5,0.2,1.3,0.6,1.6c2.2,1.8,1.9,4.5,2.7,6.8c1,3.2,1.5,6.5,2.6,9.7c0.6,1.8,0.4,3.6,0.9,5.4
		c0.4,1.3,1.4,2.5,1.1,4c-0.1,0.5,0.6,0.8,1,0.2c0.5-0.6,0.7-1.4,1.8-2.1c-0.1,2.2,0.6,4.1-0.4,6.2c-0.6,1.2-0.4,2.7-0.3,4.1
		c0,1-0.4,2.2-0.3,3.4c0.2,4-0.2,8,0,12.1c0.1,3.5-0.1,7,0,10.5c0.1,2.4,0.6,4.5,1.7,6.4c0.5,0.9,0.7,1.8,0.8,2.8
		c-2-0.8-2-3.2-3.8-4.6c0.1,2.8,1.3,4.8,2,6.8c1,2.7,1.4,5.4,1.7,8.2c0.1,1.2,1.1,2,1.1,2.8c0,2.6,2.8,3.2,3.4,5.6
		c0.3,1.4,0.6,3.6,2.4,4.6c0.7,0.4,0.5,1.4,0.2,2.2c-1.5-0.6-2.4-1.9-3.7-2.7c-0.9-0.6-1.3-1.6-2,0.3c-0.3,1-0.8,2.3-2.2,2.8
		c-0.6,0.2-0.8,1.1-0.8,1.7c0,4.9-1.7,9.5-1.8,14.3c-0.1,4.5-0.3,9,0.7,13.5c0.2,0.8,0.9,1.4,0.7,2.5c-0.2,0.8,0.8,0.6,1.4,0.1
		c1.5-1.3,2.6-3.1,3.4-4.9c1.4-3.4,4.2-5.6,6.2-8.6c0.6-0.8,1.3-1.6,2-2.3c1.7-1.7,1.9-3.6,1-5.8c-0.2-0.5-0.3-0.9-0.5-1.4
		c0.2-0.1,0.4-0.2,0.4-0.1c2.3,2.3,2.3,2.3,4.4-0.3c0.7-0.9,1.3-1.9,2-2.7c1.1-1.3,2.2-2.4,4.2-2.4c3.8,0.1,7.6-1,11.5-0.2
		c2.6,0.5,4.1,2.2,5,4.5c0.4,1,1.2,1.8,1.8,2.7c0.2,0.3,0.5,0.6,0.9,0.4c0.4-0.2,0.5-0.5,0.4-0.9c-0.3-1.3,0.2-2.8-0.2-3.9
		c-0.6-1.6,0.2-3.1-0.2-4.6c-0.2-0.9-0.4-1.8-0.6-2.9c1.6,0.8,1.6,2.2,2,3.5c1.3,4.2,1.5,8.5,1.5,12.9c0,0.7,0,1.5,0.3,2.1
		c3.2,6.6,1.4,13.4,0.8,20.1c-0.4,4.2-0.3,8.5-1,12.8c-0.8,4.9-1.9,9.6-2.9,14.4c-1.3,5.7-2.4,11.4-2.5,17.3c0,1.8,0.3,3.5,0.9,5.1
		c0.9,2.6,1.2,5.2,0.7,7.9c0.6-4.7-2.4-8.6-2.7-13.1c-0.1-1.1,0.8-2.8-0.3-3.1c-1.1-0.3-1.2,1.7-2.2,2.3c-0.8,0.5-1.6,1-2.3,1.6
		c-0.4,0.3-0.7,0.9-0.3,1.3c0.4,0.4,0.8-0.1,1.1-0.3c0.6-0.5,1.2-1,2-1.6c-0.1,2.3-3,2.7-2.9,4.9c1.1,0,1.1-1.1,2.1-1.2
		c-0.1,1.1-0.9,1.8-1.6,2.4c-0.5,0.4-0.8,1-0.3,1.5c0.5,0.4,0.8-0.3,1.2-0.5c0.4-0.3,0.7-0.9,1.5-1c-1.1,1.2-1.7,2.5-3.1,3.5
		c-0.8-3-1.5-5.9-1.4-8.8c0.1-3.1-1.7-5.9-1.4-9.2c0.3-4.5,0.5-9,0.4-13.5c0-3.7-0.2-7.4,0-11c0.1-2.1-0.2-4.2,0.4-6.3
		c0.3-0.9-0.2-2.2-0.4-3.1c-0.6-2,0.7-2.7,1.8-3.6c0.7-0.6,1.4-1.2,2.3-1.7c-0.8,1.3-1.7,2.5-3.1,3.3c-0.6,0.3-1.1,0.8-0.6,1.3
		c0.4,0.5,0.9-0.2,1.3-0.4c1.7-0.9,3-2.6,5-3.2c-1.4,1.8-3.3,3.2-3.8,5.7c2-0.1,3-2.1,5.3-2.9c-1.2,1.3-2.1,2.3-2.9,3.3
		c-0.3,0.4-0.9,0.7-0.6,1.2c0.4,0.6,1.1,0.2,1.6,0c0.6-0.3,1.2-0.7,1.8-0.9c-1.6,1.9-3.1,3.8-5.2,5.1c-0.6,0.4-1.3,0.8-0.9,1.4
		c0.5,0.7,0.9-0.2,1.4-0.5c2.1-1.2,4.2-2.4,6.6-3.7c-2.1,3.3-5.9,4.4-8,7.3c0.1,0.2,0.3,0.3,0.4,0.5c2.2-1.3,4.4-2.5,7.1-4.1
		c-1.2,1.9-2.7,2.8-3.9,4.1c-0.3,0.3-0.9,0.8-0.5,1.3c0.4,0.5,1,0.2,1.4-0.2c1.1-1.2,2.9-1,4.2-2.2c-0.1,1.6-1.2,2.2-1.9,3
		c-0.2,0.2-0.6,0.6-0.4,0.9c0.3,0.4,0.7-0.1,1.5-0.1c-1.6,1.8-3.3,3.2-4,5.4C476.6,594.8,477.5,593.1,478.8,593.2
		c-0.5,4.7-4.5,6.8-8.1,9.7c2.9,0.1,4.4-1.8,6.5-2.7c-0.2,0.8-0.7,1.2-1.1,1.6c-1.2,0.9-2.3,2-3.8,2.5c-0.7,0.3-1.5,0.7-1,1.5
		c0.5,0.8,1.2-0.1,1.7-0.4c1-0.5,1.9-1.1,3-1.7c0,0.9-0.5,1.3-1,1.7c-0.9,0.7-1.8,1.4-2.8,2.1c-0.6,0.4-1.2,0.8-0.9,1.5
		c0.5,1,1.1,0.1,1.6-0.1c1.2-0.5,2.3-1.2,3.4-1.8c-0.9,1.9-2.4,3.2-4.3,4c-0.6,0.2-1.1,0.6-0.7,1.2c0.4,0.6,0.8,0,1.3-0.3
		c1-0.6,2-1.2,3.4-1.9c-0.9,2.1-2.3,3.1-3.8,3.7c-0.9,0.3-0.8,1-0.6,1.6c0.4,0.7,0.8,0,1.2-0.2c1.2-0.9,2.5-1.8,3.7-2.7
		c1.8-1.4,0.4-3.4,1-5.1c0.1-0.4-0.7,0.1-1.1-0.1c0.4-0.7,1.4-0.8,1.5-1.7c0.7-3.6,1.3-7.2,2-10.8
		C479.9,593.7,479.7,593.2,478.8,593.2z M392.2,583.2c-0.9-0.9-1.5-1.2-2.5,0.1c-1,1.3-2.1,2.4-2,4.1c0,0.8-1.9,1.1-0.9,2
		c0.6,0.6,1.6-0.6,2.5-0.8c0.5-0.1,1-0.5,1.5-0.8C393.4,586,393.4,586,392.2,583.2c0.2,0.1,0.4,0.2,0.7,0.3c0.6,0.3,0.9,1.6,1.8,0.7
		c0.6-0.6,0.3-1.5-0.2-2.1c-0.3-0.4-0.6-1.1-1.3-0.8C392.3,581.6,392,582.4,392.2,583.2z M402.2,619.3c-0.2,0.5-0.6,1.1-0.2,1.6
		c0.5,0.6,0.3,1.9,1.5,1.8c0.6,0,0.8-0.8,0.8-1.4c0-1-0.2-1.9-1.5-2C402.6,619.4,402.4,619.4,402.2,619.3c0.7-0.6,0.5-1.3,0-2.1
		c-1.4-2.3-2.8-4.6-4.1-6.9c-1.3-2.3-3.1-4.3-4-6.8c2,2.2,3.9,4.5,5.7,6.8c0.4,0.5,0.7,1.1,1.3,0.6c0.7-0.5,0.1-1-0.2-1.5
		c-1-1.7-2-3.4-3-5c-1.1-1.8-2.1-3.5-2.5-5.6c1.2,1.4,2.2,3,3.3,4.5c0.4,0.6,0.7,1.7,1.5,1.2c0.7-0.4-0.1-1.2-0.3-1.7
		c-2.2-4.1-4.6-8.2-6.8-12.4c-0.8-1.5-1.9-1.8-3.2-0.9c-1.9,1.3-3.3,3.2-5.4,4.3c-0.4,0.2-0.5,0.7-0.3,1.2c0.1,0.3,0.4,0.3,0.7,0.3
		c1.5,0,4.7-2,5.5-3.3c-0.8,2.2,1,4.8-1.8,6.7c-1.5,1-2.7,2.4-4,3.7c-0.3,0.2-0.6,0.5-0.4,0.9c0.2,0.5,0.7,0.4,1.1,0.3
		c1.1-0.2,2-1.2,3.3-1.2c-1.3,1.6-0.7,4.4-3.4,4.9c-0.3,0.1-0.3,1-0.1,1.4c0.3,0.5,0.7,0.2,1.1,0c0.9-0.4,1.7-0.7,2.6-1
		c-0.8,1-1.3,2.1-2.3,2.7c-0.4,0.2-1,0.5-0.8,1.1c0.2,0.6,0.7,0.8,1.3,1c1.4,0.4,2.5-0.9,3.9-0.7c-0.6,1.3-1.6,1.9-3,2.2
		c-1.8,0.4-1.3,2-1,3.1c0.3,1.3,1.3,0.6,2,0.3c0.2-0.1,0.5-0.4,0.8-0.1c-0.4,1.3-1.4,1.9-2.5,2.5c-0.5,0.3-0.6,0.8-0.4,1.3
		c0.2,0.5,0.6,0.8,1.2,0.7c0.4-0.1,1.3-0.1,1-0.8c-0.6-1.4,0.8-0.8,1.1-1.3c0,1,0.6,2.2-0.9,2.7c-0.4,0.1-0.7,0.6-0.5,1.1
		c0.2,0.6,0.7,0.6,1.2,0.6c0.9,0,1.8,0,3,0c-1.9,1.8-4,2.2-6.1,2.5c-3.9,0.6-6.7,2.6-8.5,6c-0.5,0.8-1,1.7-1.6,2.3
		c-1,0.9-1.5,2.4-3.5,2.7c1.1-3.8,3.3-6.9,4.1-10.5c-1.1,0.7-1.8,1.8-2.9,2.4c-2.7,1.4-3.4,4-3.6,6.5c-0.3,3-1.6,5.9-1,9
		c0.4,2-0.8,4.8,1.3,5.7c1.7,0.7,2.7-1.7,3.8-3c0.1-0.1,0-0.3,0-0.4c-4-0.5-0.7-3.1-1.3-4.7c-0.8,0.2-1,1.4-2.1,1.1
		c0-1.8,1-3.5,2.2-4.4c1.6-1.1,3.5-1.9,5-3.2c1.5-1.3,3.4-1.6,5.5-1.1c-1.2,1.5-3.3,1.6-4,3.3c0.5,0.7,1-0.5,1.4,0.2
		c-0.7,1.4-2.2,1.8-3.1,3c0.9,0.8,1.7-0.2,2.7,0c-1.7,1.5-4.2,2-4.2,4.7c0,0.3-1,0.6-0.3,1.2c0.4,0.4,1,0.2,1.4-0.2
		c0.7-0.8,1.5-1.2,2.5-1.5c2.7-0.8,5.4,0,7.9,0.6c1.8,0.4,3.8,0.9,5.5,2.2c-1.8,1.5-3.7,1.8-5.8,1.9c-4.1,0.1-8.1,0.5-11.8,2.4
		c-1.1,0.6-2.3,1-3.1,2.5c3.2-0.2,6.1-1.2,9.4-0.7c-1.4,1-2.9,1.1-4,2.2c1.9,0.1,3.7-0.3,4.6,1.8c-2,0.8-4.4,0.4-6.4,2.3
		c1.6,0.1,2.9-0.7,4.2,0.3c-0.6,0.3-1.1,0.4-1.5,0.7c-0.5,0.4-1.6,0.5-1.3,1.4c0.3,0.7,1.2,0.3,1.8,0.3c3.5,0,7.1-0.2,10.5,1.9
		c-5,2.2-10.5,3-15,6.3c1,0.7,1.8,0.1,2.6,0.2c-1,1.2-2.9,1-3.9,3.1c2.7-1.2,5-2,7.8-2.3c-2.4,1.4-4.8,2-6.5,3.9
		c2.9-0.3,5.4-1.9,9-1.4c-1.4,0.5-2.1,0.8-3.1,1.2c0.7,0.5,1.5-0.4,1.9,0.4c-1.8,1.3-4.1,1.5-6,2.6c-3.7,2.2-7.3,4.5-8.8,8.8
		c-0.4,1.2,1.2,4.5,2.3,4.4c2.8-0.3,5.3,1.2,8.1,1.2c3.2,0,6.5-0.2,9.7,0.1c5.9,0.5,10.9-1.5,15.9-4.2c1.4-0.7,2.4-1.7,2-3.6
		c1,0.5,1.7,1.3,2.5,0.3c0.8-1,2.1-1.7,1.4-3.3c-0.2-0.4-0.6-0.9,0.1-1c1.5-0.3,1-2,0.7-2.1c-1.9-1.2-1.3-3.6-2.8-4.9
		c-0.8-0.8-1.6-1.6-1.7-3.1c0-1-0.9-2-2.4-2.2c-2.2-0.2-4.3-0.9-6.9-1.5c2.1-0.7,3.8,0.1,5.5-0.3c-0.6-0.9-0.5-1.7-1.8-2.1
		c-1.3-0.4-2.6-1.2-4.1-1.1c-0.7,0-0.5-0.5-0.6-0.9c-0.1-0.8,0.5-0.4,0.8-0.4c1,0,2,0.9,3.5,0.2c-2.3-1-4.2-1.8-6.1-2.6
		c3.4-0.3,6.2,1.6,9.1,3c-2.4-3.1-6.5-3.2-9.3-5.7c1.9-0.3,3.5,0.9,5.6,0.7c-2-1.5-4.3-1.6-6.2-2.6c2.8-1.3,5.3-0.6,7.8,0.8
		c0.6,0.3,1.1,0.2,1.7,0.3c0.4,0.1,0.8,0.5,1.2,0.1c0.4-0.4,0-0.8-0.2-1.2c-1-2.2-1-4.5-0.3-6.8c0.6-2.1-0.7-3.8-2.9-3.7
		c-0.3,0-0.7-0.2-0.9,0.2c-0.2,0.4,0.2,0.6,0.4,0.9c0.5,0.9,1.7,1.3,1.9,2.8c-4.6-3.7-9-7.5-14.6-9.1c3.7,0.7,7.5,0.9,11.3,2
		c-2.8-1.1-3.4-4.3-6.2-5.6c2.2-0.2,3.7,1,5.5,1c-0.2-1.1-1.5-1.1-1.6-2c0.8-0.6,1.7,0.3,2.7-0.5c-1.4-0.7-2.6-1.3-4.1-2
		c2.9-0.3,4.9,1.6,7.3,2.1c-4-3.9-9-5.2-14.5-5.3c1.2-0.4,2.3-0.7,3.4-0.7c1.2-0.1,2.2-1,3.3-1.1c1.6-0.1,3.3,0.3,4.8,1.1
		c1.2,0.7,1.2,1.9,1.7,3.1c0.6,1.5,2.5,2.6,4,4c0-2.3-0.6-4.4-1.1-6.4c-0.8-3.2-4-4.8-5.5-7.6c-1.6-2.9-4.1-5.2-5.4-8.4
		c3.1,3.3,6.2,6.7,8.5,10.6c0.3,0.4,0.3,1.4,1.1,1c0.7-0.3,0.3-1,0.2-1.6c-0.1-0.3-0.3-0.7-0.5-1c-1.7-2.6-3.4-5.2-5-7.9
		c-1.6-2.5-3-5.1-4.6-7.6c2.7,2.9,4.9,6.1,6.9,9.4C400.5,618.2,400.7,619.7,402.2,619.3z M368.3,660.2c0.5-1.2,1.2-2,2-2.8
		c0.3-0.3,0.7-0.9,0.2-1.3c-0.6-0.4-1.1-0.2-1.4,0.4c-1.3,2.1-2.9,4.1-2.9,6.8c0,1.3-0.4,2.5-0.9,3.7c-1.6,3.8-3.1,7.6-4.5,11.5
		c-1,2.8-1.1,5.7,1.1,8.2c0.8,0.9,1.7,0.6,2.6,0.4c0.5-0.1,1.3-0.2,1.1-0.8c-0.7-2.1,1.5-3,1.7-4.6c-0.4-0.6-1,0.6-1.6-0.3
		c2.1-1.4,0.6-1.8-0.8-2c0.8-1.5,2.7-2.2,2.4-4.1c-0.2-1.1-1.4,0-2.1-0.5c2.3-2,3.6-5,6.9-5.8c0.9-0.2,1.7-0.8,2.6-1.2
		c1.2-0.5,1.8-1.3,2.2-2.9c-2.9,1.7-5.9,1.3-8.7,2.5c0.6-1.5,2-2.2,2.7-3.4c-0.6-0.6-1.1,0.2-1.6-0.1c0-1,1.5-1,1.2-2.2
		c-0.4,0.1-0.8,0.2-1.2,0.4c0.2-1.4,1.8-1.8,2.1-3.2C370,658.9,369.6,660.2,368.3,660.2z M410.3,557.5c0.2-0.1,0.4-0.1,0.6-0.2
		c0-2.1,0-4.1,0-6.2c0-0.4,0.1-1.3-0.8-1.2c-0.9,0.1-2.4,2.8-2,3.7C408.8,555,409.6,556.2,410.3,557.5z M458.7,657.1
		c-1.7,2.1-4.3,3.4-5.2,6.1c-0.2,0.5-0.4,0.9-0.5,1.4c-0.1,0.4-0.1,0.8,0.3,0.9c0.5,0.2,0.6-0.3,0.7-0.6c0.3-1.2,1.2-1.9,1.8-2.9
		C456.8,660.4,458.3,659.1,458.7,657.1z M472.2,674.9c0-0.4-0.1-0.7-0.5-0.7c-0.2,0-0.6,0.2-0.7,0.4c-0.7,1.3-1.5,2.7-2.1,4
		c-0.3,0.7,0.3,0.8,0.8,1.1c0.6,0.3,0.9,0,1.2-0.5C471.6,677.8,471.2,676.1,472.2,674.9z M472.1,679.8c1.1-2.6,2.3-5,4.1-7.1
		C472.6,673.7,472.3,676.7,472.1,679.8z M399.9,597.9c-0.5-2.4-2-4.3-3.3-6.3c-0.1-0.2-0.6-0.3-0.8-0.1c-0.4,0.3-0.4,0.8-0.2,1.2
		C397.1,594.4,397.9,596.6,399.9,597.9z M401,640.4c1.4,1,2.4,1.9,3.5,2.7c0.3,0.2,0.6,0.4,1,0.1c0.4-0.3,0.5-0.9,0.1-1.2
		C404.4,641,403.3,639.6,401,640.4z M500.1,680.3c0-0.5-0.4-0.5-0.9-0.4c-1.6,0.1-1.7,1.4-2,2.4c-0.2,0.5,0.5,0.5,0.9,0.5
		C499.8,682.8,499.7,681.5,500.1,680.3z M476.7,675.9c-1.3,1.7-2.3,3-3.4,4.4c-0.2,0.2-0.3,0.5-0.1,0.7c0.1,0.1,0.4,0.1,0.6,0.1
		C474.5,680.9,476.8,677.1,476.7,675.9z M395.7,589.8c-0.5-0.7-0.5-2-1.7-2.1c-0.6,0-1.2,0.5-1,1.1c0.3,0.9,0.9,1.9,1.9,2.1
		C395.4,591.1,395.7,590.5,395.7,589.8z M453.7,657.8c0.9-2.1,2.7-3.4,4.4-5.4C454.8,653.7,453.7,655.2,453.7,657.8z M403.2,614.2
		c-0.8,0.2-0.7,0.9-0.6,1.4c0.1,0.8,0.3,1.8,1.4,1.7c0.5,0,1-0.5,0.8-1.1C404.5,615.4,404.2,614.5,403.2,614.2z M478.1,682.4
		c1.6-0.3,1.6-1.5,2-2.5c0.1-0.4,0.6-0.8-0.1-1c-0.4-0.2-0.9,0-1.1,0.4C478.5,680.2,478,681.2,478.1,682.4z M402.5,637.5
		c0.3,1.9,1.8,2.4,3,3.2c0.1,0,0.4-0.2,0.5-0.3c0.1-0.1,0-0.5-0.1-0.6C404.7,639.1,404.1,637.7,402.5,637.5z M452.5,662.6
		c0.9-1.1,1.8-2,1.6-3.5c0-0.2-0.4-0.5-0.6-0.2C452.7,659.9,451.8,660.9,452.5,662.6z M397.8,587.6c-0.6-0.4-0.6-1.6-1.6-1.9
		c-0.4-0.1-0.6,0.4-0.6,0.8c0.1,1,0.6,1.8,1.6,2C397.5,588.6,397.7,588.2,397.8,587.6z M400,599c0.8,1.6,1.4,2.7,1.9,3.8
		c0.2,0.3,0.4,0.6,0.8,0.4c0.3-0.2,0.4-0.5,0.2-0.7C402.1,601.4,402.2,599.8,400,599z M400.5,593c-0.5,0-0.6,0.4-0.5,0.6
		c0.5,0.8,0.4,2,1.5,2.4c0.3,0.1,0.8-0.2,0.6-0.7C401.8,594.4,401.4,593.5,400.5,593z M403.6,609.5c-0.9-1.6-1.5-2.7-2.1-3.8
		c-0.2-0.3-0.5-0.5-0.9-0.3c-0.1,0.1-0.2,0.5-0.2,0.5C401.5,607,401.5,608.8,403.6,609.5z M406.8,598.4c-0.6-0.6-0.3-1.8-1.3-2.2
		c-0.4-0.2-0.6,0.2-0.5,0.6c0.2,0.9,0.1,2,1.1,2.4C406.5,599.3,406.8,598.9,406.8,598.4z M389.7,594.6c-0.8,1.2-2.3,1.3-2.3,2.8
		c0,0.3,0.3,0.6,0.6,0.4C388.7,597.1,389.8,596.6,389.7,594.6z M405.1,645.8c-1.1-1.8-2.1-2.8-2.7-2.6c-0.2,0-0.4,0.3-0.4,0.4
		c0.6,1.1,1.5,1.9,2.6,2.3C404.8,646,404.8,645.9,405.1,645.8z"/>
	<path d="M466.6,236.4c-1,2.4-2,4.8-3.1,7.1c-0.4,0.8-0.5,1.3,0.2,1.6c4.1,1.9,7,5.4,11,7.4c6.9,3.6,12.7,8.9,19.3,13
		c0.5,0.3,1.1,0.7,1.6,1c0.3,0.2,0.5,0.3,0.7,0c0.1-0.1,0.1-0.4,0.1-0.6c-0.6-1.3-0.3-2.8-0.6-4.1c-0.8-3.6-0.6-7.4-1.3-11.2
		c0.9,1.6,1.7,3.2,2.6,4.9c0.4,0.7,0.6,1.8,1.5,2c0.8,0.1,1-0.9,1.4-1.5c0.9-1.4,2.2-1.2,3.3-1c1.1,0.2,2.4-0.3,3.5,0.7
		c0.5,0.5,1.1-0.2,0.9-0.7c-1.1-2.3,0.1-4.8-0.8-7.1c1.6,3,2.8,6.2,3.2,9.6c0.2,1.7,1.8,2.8,1.5,4.6c-0.1,0.7,0.6,0.6,1,0
		c1.5-2.1,3.3-4,4.6-6.3c0.9-1.7,2.7-2,3.8-3.4c2-2.8,4.1-5.5,6.2-8.2c2.2-2.8,4.9-5.3,6.9-8.3c0.4-0.6,0.9-0.9,1.6-0.4
		c0.7,0.4,1.7,0.6,1.9,1.6c0.1,0.4-0.1,0.7-0.4,0.9c-0.3,0.2-0.6,0.3-0.8-0.2c-0.6-1.1-1.4-0.3-1.7,0.1c-0.5,0.5,0.1,1,0.6,1.3
		c0.5,0.3,1,0.6,1.4,1c0.3,0.3,0.3,0.6,0.1,1c-0.2,0.2-0.4,0.5-0.7,0.3c-1.6-0.8-1.1,0.4-0.8,1c1.4,2.6,2,5.6,2,8.1
		c0,4,1.3,7.6,1.5,11.5c0.2,4.3,1.5,8.4,2.1,12.6c0.9,5.2,1.5,10.5,1.6,15.8c0.1,5,1.3,9.9,1.8,14.8c0.3,2.8,0.9,5.6,1.2,8.4
		c0.3,2,0,3.8-0.7,5.8c-0.4-3.1-0.4-6.4-1.3-9.4c-0.7-2.6-0.9-5.3-1.6-7.9c-0.4-1.6-0.7-3.5-0.7-5.4c0-1.4-0.7-3.1-1-4.7
		c-0.6-3.3-1.5-6.4-2.1-9.7c-0.4-2.1-1.6-3.6-2.7-5.3c-0.7-1-2-1.3-2.3-2.8c-0.1-0.4-0.8-1.5-1.6-1.1c-0.7,0.4-1.4,1.2-1.4,2.1
		c0,2.5-0.3,5-1.1,7.3c-0.2,0.6,0.3,1.1,0.3,1.8c-1.6-0.7-2.7-1.4-3-3.2c-0.3-1.8-2-2.7-3.3-3.6c-2.4-1.7-4-0.7-5.9,2.1
		c-1.8,2.7-2.6,5.6-3.3,8.6c-0.3,1.5-0.2,3.1-0.3,4.6c0,0.5,1.6,0.1,2.1-0.1c1.4-0.7,2.7-1.1,4.2-0.3c1.7,1,2.6,0,3.3-1.8
		c0.3,2.4,0.5,4.2,0.2,6.3c-0.4,2.2-0.7,4.1-1.9,5.9c-0.3,0.4-0.5,1-0.2,1.4c0.4,0.4,1.1,0.3,1.4,0.1c0.9-0.5,1.8-0.3,2.7-0.6
		c0.4,0.6,0.1,1-0.3,1.3c-0.3,0.3-0.5,0.8-0.1,0.8c0.7,0.1,1.3-0.2,0.7,0.9c-0.5,0.9-0.9,0.2-1.4,0c-1.5-0.5-2.9-1.6-4.5,0.2
		c-0.7,0.8-1.2-0.7-1.9-0.7c1-0.7-0.3-1.5,0.3-2.6c0.8-1.5,0.4-3.7,0.5-5.7c0-0.5-0.4-0.9-0.9-0.8c-1.5,0.4-3,0.8-4.6,0.6
		c-0.8-0.1-1,1.2-1,1.7c0.1,2.3-0.5,4.4-0.9,6.6c-0.4,2-0.1,4.1-0.2,6.2c-0.2,4.9,0.6,9.7,0.9,14.5c0.2,3.3,1.2,6.5,1.4,9.8
		c0.2,3,0.4,6.1,0.9,9.1c0.4,2.8,1.2,5.6,1.8,8.5c1.3-0.7,1.5-2.1,2.5-2.4c-0.6,3.5-1.6,6.9-1.6,10.6c-2.1-3-3.4-6.3-4.9-9.7
		c1.4-0.2,1.4,1.3,2.5,1.6c0.4-1.7-0.1-3.4-0.5-4.8c-1.9-7-2.5-14.3-4.7-21.2c-0.8-2.7-0.8-5.6-1.3-8.4c-0.1-0.8,0.1-1.8-1.1-2.4
		c-0.5-0.3,0.2-1.4-0.2-2.4c-0.6-1.5-0.5-3.4-1.4-4.8c-1.5-2.4-1.1-5.7-3.6-7.6c-0.3-0.2,0.1-0.9-0.2-1.4c-0.7-1.1-1.4-0.4-2.1-0.8
		c-1.4-0.7-2,0.8-3.1,0.3c-1.5-0.7-2.4,0.1-2.1,1.8c0.2,0.9,0.4,1.9,0.8,2.5c0.9,1.7,0.8,3.6,1.7,5.3c-2-0.4-3.5,0.3-4.9,1.5
		c-0.4,0.3-0.5,1.3-1.2,0.6c-0.4-0.4-0.9-0.9,0-1.3c0.6-0.3,0.3-0.8-0.1-1c-0.5-0.4-0.8,0-1.1,0.3c-1,1-1.9,2.2-3.7,1.9
		c0.9-2.1,2.5-3.3,4.4-4.2c0.8-0.4,1.4,0.2,2,0.5c0.5,0.3,1.1,0.7,1.4-0.1c0.3-0.7-0.5-0.7-0.6-0.9c-1.3-2.2-2.6-4.4-3.6-6.7
		c-0.4-1-0.7-1.9-1.9-2.5c1.4,0.1,2.2-0.2,3-1.6c0.9-1.5,2.6-1.9,4.5-1.3c0.7,0.3,1.4,0.7,2-0.1c0.6-0.8,0-1.3-0.4-1.9
		c-1.5-1.9-1.4-4.5-2.4-6.5c-0.7-1.4-0.5-3-1.6-4.3c-0.4-0.4-0.6-0.5-1.1-0.6c-4.5-1.6-6.4-0.5-8.6,3.4c-0.6,1.1-1.2,2.1-1.5,3.3
		c-0.1,0.5-0.4,1.2-1.3,0.7c-0.5-0.3-0.7-0.5-0.2-1.1c0.9-1.1-0.7-1.8-1-2.4c-1.1-1.8-1.4-4.5-4.4-4.7c-1,0-1.2,0.3-1.2,1
		c0.2,3.6,0.7,7.2,0.8,10.7c0.1,2.9,0.7,5.8,0.5,8.8c-0.1,0.8-0.7,2.5,0.7,3.3l0.1,3.3c-0.1,2.2,0.3,4.3,0.7,6.4
		c0.8,4.2,2,8.4,1.5,12.8c-0.3,2.4-0.3,4.9,0.2,7.3c0.2,0.8-0.3,1.1-0.6,1.8c-0.1-2.7-0.8-5.2-0.9-7.8c-0.3-3.8-1-7.6-1.6-11.4
		c-0.6-3.4-1.5-6.7-1.8-10.1c-0.1-1.8-0.4-3.6-0.5-5.4c-0.1-1.6-0.5-3.2-1-4.8c-0.9-3.4-1.2-6.9-2-10.3c-1-4-1.6-8-2.4-12.1
		c-0.8-4-1.8-8-2.3-12.1c-0.3-2.8-0.7-5.7-0.9-8.5c-0.1-0.6,0.2-1,0.6-1.3c0.6-0.4,0.9-0.9,1.2-1.5c0.3-0.6,0.9-1.3,0.3-1.8
		c-0.5-0.4-1.3-0.6-2-0.2c-0.4,0.3-0.9,0.7-1.3,0.1c-0.4-0.6,0.4-0.8,0.6-1.2c0.3-0.6,1.8-1,0.7-1.8c-0.8-0.6-2.1-0.8-2.9,0.7
		c-0.5,1-0.5,2.4-1.9,2.7l0.1,0C461.5,245.8,463.7,240.9,466.6,236.4C466.6,236.4,466.6,236.4,466.6,236.4z M500,261.9
		c-0.3,0.6-2.2-0.7-1.5,1.2c0.5,1.2,1.6,2.1,2.6,2.8c0.6,0.4,1.4,0.2,2.1-0.1c0.4-0.1,0.4-0.5,0.4-0.9
		C503.4,263.5,501.5,261.8,500,261.9z M507.1,264.8c1.5-0.1,2.7-1.6,2.6-3.3c0-0.8-0.5-1-1.2-0.9c-1.7,0.2-2.6,1.3-2.8,3
		C505.6,264.6,506.1,264.9,507.1,264.8z"/>
	<path d="M477.8,525.9c-0.4-5.2-1.5-10.2-3.2-15.3c0.1-0.2,0.6,0.2,0.6,0.2c0.3-1.3,1.9-1.1,2.4-2.3c1.7-4.1,1.4-8.2-0.8-11.8
		c-1.7-2.9-1.4-5.3-0.3-8.2c2.1-5.6,2.8-11.5,3.6-17.4c1.2-10,2.4-20.1,2.3-30.2c-0.1-6.4-0.8-12.7-1.4-19c-0.1-0.9,1.4-2.3-0.6-2.8
		c0,0-0.1-0.3,0-0.4c2.5-1.5,0.3-3.7,0.5-5.5c0.2-2.2,0-4.6-0.1-6.8c-0.1-2.7-0.7-5.3-0.7-8c0-1.2,0.1-2.5,0-3.6
		c-0.1-1,1-2.5-0.6-3.4c-0.7-0.4,0.2-0.4,0.2-0.7c0.2-0.9,0.8-2-1.1-1.7c-2.1,0.3-4.3-0.2-6.5,0.7c-1.1,0.4-1.3,1.6-2.6,2
		c-1.7,0.5-0.1,2.2,0,3.3c0.3,2.6,0.5,5.3,1.7,7.7c0.4,0.7-0.3,0.6-0.4,1c-0.2,0.6-0.5,0.2-0.8,0.1c-0.9-0.3,0.1-0.6,0-0.9
		c-0.1-0.5-0.2-1-0.3-1.5c-0.6-2.4-1.2-4.9-1.2-7.4c0-0.8,0-2-1.3-1.7c-1.1,0.2-2.9-0.1-2.5,2.1c0.1,0.6,0,1.3-0.2,1.9
		c-0.4,1.2-1.6,1.2-2.6,1.2c-0.9,0-0.7-0.9-0.8-1.5c-0.1-0.6-0.4-1.1,0-1.7c0.4-0.6-0.8-1.8,0.5-1.9c0.8-0.1,0.2,1.1,0.4,1.7
		c0.2,0.7,0.6,0.8,1.1,0.7c0.7-0.3,1-1.1,0.7-1.6c-0.8-1.3,0-1.3,0.9-1.6c1.5-0.6,2.9-1.2,4.6-1.2c1.1,0,1.8-0.6,1.5-1.8
		c-0.4-2.2-0.9-4.4-1.3-6.6c-0.1-0.8-0.6-0.9-1.3-0.8c-1,0.1-1.2,0.7-1.1,1.5c0.1,1.5,0.2,2.7-2,2.7c-1.2,0-1.6-0.3-1.5-1.5
		c0.2-2.2-0.9-2.5-2.7-2.2c-1.4,0.3-2.9,0.3-4.3,0.3c3.2-0.9,6.7-0.5,9.9-1.6c1-0.3,2.2-1.2,3.1-0.7c0.6,0.4,0.6,1.8,0.9,2.7
		c0.3,1,0.7,2,0.7,3c-0.1,2,0.8,2.4,2.5,2c3.8-0.8,7.6-1.7,11.2-3.4c1.4-0.7,1.7-1.5,1.4-2.9c-0.8-4.6-2.5-8.8-4.7-13.4
		c5.3,2.9,11,3.8,16.4,6c-1.3,2.2-0.4,4.6-0.5,7c-0.6,16.9-0.3,33.8-0.4,50.7c-0.1,10.9,0.1,21.9,0.1,32.8c0,16.7,0,33.5-0.1,50.2
		c0,2.5,0,4.9,0.1,7.4c0,0.4,0,1,0.2,1.3c2.1,2.3,1,4.6,0,6.8c-0.8,1.8-1.5,3.7-2.3,5.6c-1.4,3.3-5.5,3.8-7.8,1
		c-0.4-0.5-0.9-1-1.1-1.6c-0.9-3-1.7-6.1-3-9.3c1.2,0.3,1.2,1.1,1.4,1.7c1,2.6,1.9,5.2,2.8,7.8c0.7,2,2.5,2.1,4.1,2.3
		c1.4,0.2,2.5-0.7,3.1-2c1.2-2.9,2.4-5.9,3.5-8.8c0.5-1.2-0.1-2.1-1.1-2.5c-1.3-0.6-1.8-1.9-2.9-2.5c-0.2-0.1-0.5-0.5-0.5-0.7
		c0.6-2.2-1.8-3.3-1.8-5.3c0-0.6-0.2-1.2-1-1.2c-0.8,0.1-1.2,0.6-1.2,1.5c0,1,0.4,2.1-1.1,2.4c-0.1,0-0.3,0.4-0.3,0.5
		c1.1,3.1-2.5,3.7-2.9,5.9c1-4.9-0.3-9.7-0.1-14.5c0.3-8-0.9-15.9-0.9-23.9c0-5-0.5-10.1-1-15.1c-1.1,1.7-1.1,3.7-1.5,5.5
		c-1,4.3-1.5,8.8-2.9,13c-0.7,2.1-1.7,4.7,0.5,6.9c0.3,0.3,0.4,1.1,0.4,1.7c0.3,5.1,1.3,10.2-1.8,15c-0.8,1.2-0.7,2.6-0.4,4
		C477.6,519.9,478.9,522.8,477.8,525.9z M485,465.7c-1.7,10.7,0.2,21.2,0.5,31.9C486.4,487,485.3,476.4,485,465.7z"/>
	<path d="M452.4,215.3c1.8,0.4,3.2,1.9,5.4,2c-2.5,1.4-5,1.9-7.5,2.6c1.2-1,0.6-2.4,0.5-3.6c0-0.8-0.1-2-0.9-2.2
		c-0.9-0.2-1,1-1.3,1.7c-0.2,0.4-0.6,0.7-0.7,1.1c-0.5,1.1-1.5,2.7-1.1,3.2c0.7,1,2-0.4,3-0.4c0.2,0,0.4,0,0.6,0.1
		c-3.5,1.6-7,3.2-10.6,4.7c-1.6,0.7-2,1.7-1.9,3.5c0.6,10.1,2.1,20,3.5,30c0.5,4,0.4,8.1,2.1,11.9c0.3,0.7,0,1.5-0.5,2.3
		c-1.9-5.3-2.1-10.7-2.9-16c-1-6.9-1.8-13.7-2.7-20.6c-0.2-1.9-2.3-1.1-2.4-1c-0.6,1.5-1.6,0.5-2.2,0.3c-2.6-1.1-5.2-1.4-8.1-1.1
		c-2.2,0.2-4.4-0.2-6.7-0.4c-0.9-0.1-1.5,0-1.7,1.1c-0.2,1.4-1.3,2.3-2.3,3.1c-1.1,1-2.6,1.3-4,0.3c-1.4-1.1-2.2-2.7-1.4-4.4
		c0.7-1.7,0.5-3-0.5-4.8c-0.9,2-3,2.7-3.9,4.6c-0.4,0.7,0,0.8,0.3,1.1c2,2.4,1.9,4.1-0.2,5.7c-2.8,2.1-4.8,1.9-6.7-0.6
		c-1.5-1.9-1.9-1.9-3.6-0.2c-2.5,2.5-4.5,5.2-7.5,7.2c-2.5,1.6-3.9,4.6-5.7,7.1c-2.1,2.8-2.9,6.3-4.3,9.5c-1,2.4,0.4,4.6,1,6.9
		c0.1,0.4,0.3,0.8,0.5,1.2c-1.9-0.4-1.9-0.4-2.5-2.7c-0.1-0.5,0-1.5-0.9-0.9c-0.6,0.4-2.2-0.8-1.8,1.2c0.2,0.9,0,1.9,0,3.2
		c-0.9-1.1,0-2.8-1.6-2.7c-1.4,0.1,0.4,1.5-0.8,1.9c-0.4-1.1-1.9-0.9-2.6-1.9c0.8-0.6,1.4,0.4,2.2,0c0-0.9-1.3-0.8-1.4-1.8
		c1-0.2,1.9,0.8,3.1,0.2c-1.5-1.3-2.9-2.3-4.9-2.4c-4.6-0.4-9.1-1.6-13.7,0.1c-0.9,0.3-1.4,1.1-2.2,1.3c-0.6,0.2-1.5,0.4-1.7-0.7
		c-0.2-1,0.5-0.8,1-0.8c0.4,0,0.9,0,1.1-0.5c-1.3,0,0.1-1.5-0.9-1.8c-0.3-0.1-0.7-0.2-0.6-0.7c0.5-1.6-1.6-3.6-3.3-3.3
		c-0.7,0.1-0.7,0.6-0.8,1.1c-0.2,1.1-0.3,2.3-0.5,3.6c-0.6-1-0.7-2-0.4-2.9c0.6-1.7-0.1-2.4-1.7-2.7c-1.5-0.4-2.8-1.1-4.2-1.8
		c-1.4-0.7-1.3-1.5-0.6-2.6c2.7-3.8,4.9-8,7.9-11.6c0.7-0.8,2-1.5,0.1-2.8c5.8,4.7,12.3,7.5,19.1,10.8c-2.2,0.1-3.5-1.1-5.1-1.4
		c-1.3-0.2-1.4-0.3-1.5,1c-0.1,0.5-0.2,0.4-0.4,0.3c-0.5-0.3-1-0.4-1.2,0.3c-0.1,0.7,0.6,0.7,1,0.9c1,0.6,2.4,0.6,3.4,2.1
		c-1.5-0.6-2.5-1.3-3.8-1.3c-0.5,0-1,0.5-0.8,0.6c2,0.5,0.2,2.8,1.7,3.7c-2.5-0.6-5-1.1-8.2-1.8c1.9-0.5,3.3-0.9,4.8-0.7
		c-0.9-0.6-1.7-1.3-2.7-2c1.1-0.1,1.8,0.4,2.7,0.7c0.4,0.1,0.9,0.2,1.1-0.2c0.2-0.5-0.2-0.7-0.6-1c-0.5-0.3-1.6,0.1-1.3-1.2
		c0.3-1.2,0.9-0.2,1.4-0.2c1-0.1,0.6-1,1-1.5c0.4-0.6,0-1.2-0.6-1.3c-3-0.6-5.3-2.6-7.5-4.6c-0.8-0.7-1.4-0.7-2,0.2
		c-2.6,3.8-5.3,7.6-7.9,11.4c-1,1.4,0.3,2.1,1.3,2.3c5.5,1.5,10.9,3.6,16.6,4c5.9,0.4,11.9,0.2,17.7,1.6c0.8,0.2,1.5,0,1.9-0.8
		c0.8-1.5,0.8-3.3,1.8-4.7c0.4-0.5-0.4-0.5-0.8-0.7c-1.8-0.7-3.7-1.2-5.5-2.8c2.1,0.3,3.9,0.5,5.7,0.8c1.4,0.2,2.5,0.1,3.3-1.3
		c2.2-4,5.8-7,8.3-10.9c0.1-0.2,0.2-0.4,0.4-0.4c2.5-0.9,3.9-3.3,6-4.7c2.6-1.8,2.8-3.3,1.1-5.9c-0.9-1.5-1.9-2.9-2.6-4.5
		c-1.3-3.2-4.5-4-7.3-4.4c-7.9-1.1-15.6-0.3-23.1,2.9c-6.2,2.7-11.1,7-16.2,11.1c-0.6,0.5-1,1.2-2.1,1.1c3.1-2.8,5.9-5.9,9.3-8.1
		c5.4-3.5,10.7-7.1,17.4-7.5c1.6-0.1,3-1,4-2.3c1.4-1.8,3.2-3,5.4-3.4c3.2-0.5,5.7-2.8,8.7-3.6c1.9-0.5,3.7-1.2,5.5-2.1
		c2.4-1.2,5.3-0.5,7.8,1.7c-0.9,0.3-2.6-0.7-2.1,1.3c-1.2-0.6-2.4,0.6-3.6,0c-0.9-0.4-2.2-1.7-2.8-0.4c-0.5,1.1,1.4,1.8,2.1,1.8
		c3.7,0.4,4.5,3.6,6.2,6c0.2,0.3,0.3,0.8,1.1,0.7c-0.2-1.5-1-2.9-2.2-4.6c3.4,1.7,3.8,5.2,6.2,7.4c0.1-1.8-0.7-3.1-1-4.9
		c1.1,1.2,1.8,2,2.6,2.8c-0.8-2.3-0.8-4.9-2.3-6.8c-1.2-1.5-0.9-2.1,0.6-3c3.8-2.1,4.1-3.3,2.8-7.4c-0.6-1.9-1.5-2.5-3.3-1.5
		c-1.7,0.9-2.8,1.2-4-1.2c-5.1-10.5-6.9-21.4-7.3-33c-0.2-7.6,2.8-13.7,6.1-20c1.8-3.3,4.2-6,6.8-8.6c1.2-1.1,0-2.6,0.4-3.9
		c0.1-0.3-0.3-0.7,0.2-1.2c1.6,1.3,3.2,2.5,5.2,0.5c1.4-1.4-1.2-2-0.4-3.2c0,0,0.1,0,0.2,0c3.2,2.3,3.3,2.3,4.9-1.4
		c0.6-1.3,1.3-2.5,2.3-3.4c1-0.9,1.7-1.8,2-3.1c1.3,1.4,0.6,2.3-0.6,2.9c-1.6,0.9-2.4,2.2-2.7,3.9c-0.1,0.7-1.1,1.6,0.2,2
		c1,0.3,2.1,0.1,2.7-1.2c0.4-1,0.6-2.2,1.6-3.3c0.4,1.4,1.9,1.8,1.9,3.3c0,0.5,0.4,0.5,0.8,0.6c0.4,0,0.9,0,1.3,0.1
		c4.7,0.3,4.7,0.3,3.5-4.3c0.1,0.1,0.2,0.1,0.2,0.1c1.2,3.6,3.8,5,7.5,5.8c5.7,1.3,10.2,5,13.8,9.6c7.3,9.3,9.4,20,8.8,31.6
		c-0.2,4.6-0.4,9.2-0.9,13.8c-0.5,4.3-1.8,8.3-3.5,12.2c-0.4,0.8-0.9,1.2-1.9,0.9c-1.2-0.4-2.8-1.5-3.7-0.7
		c-1.1,0.9-1.9,2.6-2.2,4.1c-0.3,1.8-0.8,3.6,0,5.5C452.2,212,452.2,213.8,452.4,215.3c-0.1,0.3-0.2,0.7-0.5,0.9
		c-0.8,0.7-0.4,1.3,0,1.9c0.3,0.4,0.8,0.5,1.2,0.3c0.9-0.5,0.1-1.1,0.1-1.7C453.3,216.1,452.9,215.7,452.4,215.3z M423.9,175.9
		c1.1,0.9,2.2,1.1,3.6,0.7c0.6-0.2,1.6,0.4,1.2-1c-0.3-1-0.6-1.5-1.7-1.1C425.8,175,424.7,175.2,423.9,175.9
		c-0.4-1.5-1.6,0.2-1.9-0.3c-1-1.7-2-1.5-3.6-0.7c-0.9,0.4-2.5,0.6-1.8,1.6c0.8,1.1-0.5,1.7,0,2.4c0.9,1.3,1.1,2.5-0.7,3.2
		c-1,0.4-0.8,1.3-0.8,2.1c0.2,4.6-0.1,9.3,2,13.6c1.4,2.8,2.2,5.9,5.7,7.3c1.9,0.7,3.6,2.1,5.1,3.6c1.6,1.5,3.7,2.1,5.6,2.8
		c2.9,1.1,6.1,1.1,9.3,0.3c2.2-0.5,3.6-1.6,4.7-3.4c1-1.8-0.5-2.6-1.3-3.8c-0.1-0.2-0.1-0.3-0.3-0.6c2,0.1,1.1-2.8,3.1-2.8
		c0.3,0.2-0.2,0.9,0.6,1.2c3.1-3.7,2.9-8.4,4.2-13c-1.6,0.4-2.2,1-2.1,2.2c0.2,1.5-0.4,2.8-1.4,4.4c0-1.7,0-2.9-0.5-4.1
		c-0.3-0.6,0.4-1.7,0.6-1.7c2.3,0,0.9-1.5,0.9-2.2c0-0.6-0.6-1.2-0.5-2.2c1,1.1,2.1,0.7,3.2,0.7c0.5,0,0.7-0.2,1.3-2.4
		c0.1-0.2,0.2-0.4,0.3-0.6c0.1-1.1,0.1-2.3,0.1-3.4c-1.7,0.2-1.9-1.9-3.3-2.2c-0.3-0.1-0.6-0.3-0.8-0.2c-2.1,0.6-3.4-0.5-4.4-2.1
		c-0.4-0.6-0.8-0.4-1.1-0.3c-0.6,0.4,0.1,0.7,0.3,1c0.2,0.3,0.6,0.4,0.5,0.8c-0.5,0.5-0.9-0.9-1.4,0c0.4,0.9,1.4,1.5,1.5,2.5
		c-2.3-0.8-2.3-3.7-4.4-4.9c-0.3,0.9-0.6,1.6-1.1,2.8c-0.1-1.3-1.8-2.4-0.4-3c1.5-0.6,0.4-1.7,0.4-1.7c-1.4-0.4-0.6-1.1-0.3-1.8
		c0.2-0.6,0.4-1.1,0.7-1.7c1,1,1,1,2.5,0.3c0.2-0.1,0.5-0.1,0.6-0.1c0.8,1.3,1.2,0.2,1.7-0.2c1-0.8,1.9-1.6,3.2-0.4
		c0.4,0.4,1-0.1,1.5-0.5c0.4-0.4,1.1-1.6,1.6,0c0,0,1-0.1,1.3-0.4c0.5-0.3,0.2-1-0.1-1.1c-1.5-0.5-1.2-2.5-3.4-2.8
		c-1.7-0.2-3.8-0.7-5.6-1.1c-2.4-0.4-4.9,0.1-7.4,0.1c-4.8-0.1-9.5,0.7-14.1,1.8c-1,0.3-2.6-0.2-3.2,0.9c-0.6,1-2.5,1.7-1.2,3.6
		c0.3,0.4-1.5,2-1.1,3.5c0,0.2-0.4,0.6,0,0.9c0.4,0.3,0.9,0.4,1.2,0c1-1,1.9-0.7,2.9,0.1c0.5,0.4,1.1,0.4,1.6,0c1.4-1,2.9-1.8,4.6-2
		c0.6-0.1,1-0.4,1-1c-0.1-0.6-0.7-0.4-1.1-0.4c-0.6,0-1.2,0.1-1.7,0.3c-1.4,0.6-2.6,1.4-4.2,1.3c0-1.4,1.3-1.5,1.9-2.2
		c0.6-0.7,1-2,2.3-1c1.1,0.8,1.2-0.7,1.7-0.7c1.4,0,2.9-0.2,3.8,1.4c0.2,0.3,0.8,0.1,0.7-0.6c-0.1-0.4-0.9-0.6-0.4-1.4
		c0.7,0.6,1.6,0.9,2.1,1.6c0.2,0.2,1.2,0.9,1,0c-0.3-1.2,1-0.8,0.9-1.6c0-0.9,0.5-0.4,0.8-0.3c0.4,0.2,1.1,0.6,0.9,0.7
		c-1.9,1.4,0.5,1.9,0.6,2.8c0,0.2,0.7,0.2,0.3,0.7c-0.3,0.3-0.6,0.5-0.9,0.8c-1.1-1.6-1.4,0.4-2.1,0.4c-2,0-0.5,1.5-0.4,1.5
		c1.7,0,0.9,0.9,0.4,1.3c-1.3,1-2.1,3.9-4.6,1.5c-2,0.9-4.1-0.2-6.1,0.3c-0.9,0.2-1.6-0.2-2.2-0.7
		C422.8,176.3,423.5,176.2,423.9,175.9z M457.6,160.3c0.1,0,0.2,0,0.3,0c0,1.3-0.2,2.6,0,3.9c0.7,3.2,0.8,6.4,1,9.7
		c0.5,7.6-0.5,15.2-1.3,22.7c-0.1,1.3-0.9,3.4,0.2,3.6c1,0.2,1.4-2,1.7-3.3c1.3-5.6,2.2-11.2,2.3-16.9c0.2-9.6,0.2-19.1-3.6-28.1
		c-3-7.1-7.8-12.5-14.8-15.7c-6.5-3.1-13.4-3.2-20.5-2.1c-6.6,1-11.5,4.4-15.6,9.4c-2.3,2.8-3.9,6.1-5.7,9.2
		c-2.2,3.7-3.6,7.7-3.5,12.1c0.1,5.9,0.7,11.8,1.3,17.7c0.6,6.3,2.7,12.3,5.7,17.9c0.8,1.5,1.7,1,2.7,0.8c1.4-0.3,0.5-1.1,0.4-1.8
		c0-0.7-0.4-1.2-0.4-2c0.8,0.4,1.3,1,1.8,1.6c1,1.5,3.1,1.7,4.5,0.3c1.2-1.2,0.5-2.5-0.2-3.6c-0.2-0.3-1.1-0.1-0.4-1
		c1.2-1.5,0.7-3.3,0.6-4.9c-0.1-2.7-0.5-5.5-0.3-8.1c0.2-2.7-0.1-5.5,0.5-8.3c0.4-2.1-0.2-4.4,0-6.7c0.1-1.7,1.5-3.2,0.8-5
		c1.8,2,3.7,0.3,5.4,0c3.7-0.7,7.6-1.2,11.2-1.1c3.1,0,6.2,0,9.4,0.2c3.2,0.2,6.4-0.3,9.7,0c3.7,0.3,3.7,0.2,2.5-3.3
		c-0.2-0.5,0-1,0-1.5c0.1-1.2,0.3-2.4,0.5-3.3c0.7,2.7,1.5,5.6,2.2,8.6c0.1,0.4-0.3,1.1,0.3,1.2c0.7,0.2,0.6-0.6,0.9-1
		C457.3,161.1,457.4,160.7,457.6,160.3z M416.7,219.2c2.6,1.1,2,3.3,2.7,4.9c0.2,0.6,0.5,1.4-0.1,1.8c-0.6,0.4-0.9-0.5-1.3-0.8
		c-1-0.6-2.1-0.8-2.9,0.2c-0.4,0.6,2.3,4.7,3,5.1c3.4,1.7,7.3,1.1,10.7,2.4c0.4,0.1,1,0.4,1.2-0.1c0.6-2.2,1.4-0.3,1.5,0
		c1.2,2.3,3.4,1.4,5.1,1.2c1-0.2,0.4-2,0.5-3.1c0-0.4,0-0.7,0-1.1c-0.1-4.6-0.1-4.6,4.1-6.3c3.7-1.4,4-2,4.1-5.9
		c0-0.8-0.1-1.3-1.1-1.1c-1.2,0.3-2.3,0.4-2.9-1.1c-0.1-0.4-0.6-0.3-1-0.1c-2.3,1.1-4.8,1.2-7.1,0.3c-3.8-1.4-6.4-4.7-10-6.4
		c-2-1-2.7-4.6-6-2.9c-0.1,0-0.3-0.2-0.4-0.4c-0.3-0.6-0.8-1.3-1.4-0.8c-0.5,0.4-1.4,1-1.1,1.7c0.9,2.3-0.1,4.9,1.5,7
		c0.2,0.3,0.2,0.7-0.2,0.9c-0.4,0-0.4-0.4-0.5-0.6c-1.6-4-1.6-4-5.2-1.6c-0.1,0-0.1,0.1-0.2,0.1c-1.4,0.6-1.2,1.5-0.3,2.3
		c1,0.8,1.4,1.9,1.9,3c0.9,1.8,1.3,3.7,2.4,5.5c0.8,1.2,1.9,0.9,2.9,0.9c0.8,0,0.8-1,0.7-1.3C417,221.7,417.8,220.5,416.7,219.2z
		 M398.7,220.5c0.9,0.2,1.2,0.8,1.6,1.2c0.2,0.2,0.5,0.3,0.7,0.1c0.1-0.1,0.1-0.4,0.1-0.6c-0.3-2.4-4.3-6.9-6.7-7.5
		c0,0.8,1.1,1.1,0.9,2c-1.3-0.4-1.4-0.4-3.4,0.9c-0.1,0-0.1,0-0.2,0c-2.3-0.7-2,1.5-2.8,2.4c-0.4,0.5-0.3,1,0.3,1.2
		c0.5,0.1,1.2,0.3,1.1-0.5c-0.1-1.1,0.4-0.8,1-0.6c1.1,0.5,2.2,1,3,2.1c0.4,0.5,0.7,1.2,1.6,1.2c0.3-1.1-0.9-1.5-0.8-2.6
		c2.6,0.5,3,3.2,4.8,4.8C400,222.9,399,221.9,398.7,220.5z M402.2,240.2c1.6,0,3.2-1.4,3.2-2.9c0-1.1-2.9-3.5-4.3-3.5
		c-1.7,0-3.2,1.9-3.3,4.2C397.7,239.2,399.6,240.1,402.2,240.2z M411,237.3c1.9,0,4.6-1.5,4.6-2.4c0.1-1.4-1.7-3.3-3-3.4
		c-1.6-0.1-3.5,1.5-3.5,2.9C409.2,235.9,409.5,237.2,411,237.3z M449.6,170.9c0.1,0.6,0.5,0.9,0.8,0.7c1.4-0.6,2.3-0.1,3.2,0.9
		c0.2,0.3,0.5,0,0.7-0.2c0.2-0.3,0.5-0.7,0.2-1c-0.8-0.9-1.7-1.9-3-1.8C450.8,169.7,449.8,170.1,449.6,170.9z M434,176.4
		c0.8-0.2,0.4-1.6,1.3-1.8c-0.2-0.7-0.5-1.4-1.3-1.5c-0.9,0-1.5,0.5-1.6,1.4C432.3,175.4,432.6,176.2,434,176.4z M451.3,175
		c0,0-0.5-0.3-0.5-0.2c-0.9,1.2-1.5,0.4-2.2-0.3c-0.2-0.2-0.6,0-0.7,0.3c-0.1,0.5,0.1,0.9,0.4,1.2c0.6,0.6,1.4,0.6,2.2,0.3
		C450.9,176.2,451.2,175.9,451.3,175z"/>
	<path d="M366.9,342.2c-2.7-2.4-1.1-5.3-1-8.1c0-0.7,0.6-1.3-0.3-2.1c-0.7-0.6,0.3-1.2,0.7-1.7c2.3-2.6,4.3-5.5,5.8-8.6
		c3.2-6.5,6.5-13,7.6-20.3c0.6-4.2,1.3-8.4,1.6-12.7c0,0.6,0.1,1.2,0.1,2c0.7-0.3,0.1-1.7,1.2-1.4l0,0c0.1,2.3,1.1,4.3,1.9,6.7
		c-1.2-0.9-1-2.3-2-3.5c-0.5,3-1.2,5.8-1.5,8.5c-0.4,4.1-2.1,7.7-3.5,11.4c-0.3,0.7-0.6,1.3-0.1,2c2.5,3.1,2.1,7.2,3.8,10.6
		c1.2,2.3,2,4.8,2,7.4c0,1.7,0,3.5-0.1,5.2c-0.1,1.3,0.4,2.2,1.7,2.4c2.1,0.2,3.7,1.4,5.6,2c3.8,1.2,7.7,2.1,11.7,2
		c0.4,0,0.9,0,1.3,0.1c2.3,0.3,2.3,0.3,3.7-1.1c-4,7.6-8,15.3-12,22.9c0.5-2.4,1.7-4.5,2.8-6.7c1.3-2.5,1.3-2.4-1.5-3
		c-4.7-1-9.4-2.1-14.1-3.1c-1-0.2-1.8-0.5-2.5,0.8c-2.6,5.4-6.5,10.1-9.4,15.3c-0.4,0.8-0.9,1.5-1.3,2.2c-1.1,1.8-0.7,3.3,0.9,4.3
		c2.6,1.8,5.3,3.6,8.3,4.7c1.8,0.6,3.6,1.1,5.3,2c1.7,0.9,2.6,0.3,3.4-1.3c1.7-3.4,3.5-6.6,5.7-9.7c-4.8,9.2-9.6,18.5-14.5,28
		c-1-1.7-1.7-3.1-2.8-5c2.5,2.1,3.5,1.9,4.9-0.5c1.4-2.5,2.8-5.1,3.6-7.9c0.2-0.6,0.3-1.2-0.7-1.1c-1.1,0.1-4.3-0.5-5.3-0.9
		c-1.4-0.6-2.8-1.3-4.3-1.8c-1-0.3-1.2,0.5-1.4,1.2c-0.2,0.6,0,0.8,0.8,0.8c1.6-0.1,2.4,1.3,3.5,2.1c-2.9,0.1-5.6-1.3-8.4-1
		c-0.9,0.1-1.9,0-2.8-0.1c-0.4,0-1.4,0.5-1-0.9c0.2-0.8-0.8-0.6-1.3-0.7c-6.2-0.7-11.5,1.4-16.1,6.2c0.2-2,1.7-3,2.6-3.8
		c1.9-1.7,4.5-2.9,6.8-3.5c3.6-0.9,7.4-1.3,11.1,0c0.4,0.1,0.8,0.2,1.3,0.3c1,0.1,1.5,0,1.1-1.3c-1.3-3.8-2.4-7.6-3.6-11.4
		c-0.1-0.3-0.2-0.7-0.5-0.9c-3.9-2.8-8.1-5.2-13.1-4.7c-2.6,0.3-5.2,1.2-7.7,2.4c-2.7,1.2-4.8,2.9-6.9,4.7c0.4-1.1,1.1-2.1,2-2.8
		c3.6-2.7,7.5-5,12-5.5c2-0.2,2.5-0.9,2-2.9c0.6,2.3,1.6,3.8,4,3.7c1.1-0.1,0.3-1.1,0.8-1.6c0.6,0.7,0.4,1.6,1.1,2.2
		c2.2,2,5,1.3,5.7-1.5c1-4.3,1.9-8.6,2.1-13C367.8,347.6,367.1,344.9,366.9,342.2c1.3,3,1.7,6.2,1.5,9.5c-0.2,5-1.9,9.7-2.7,14.5
		c-0.1,0.6-0.4,1.3,0.2,1.8c1,0.7,1.4,1.7,1.9,3c0.5-0.7,1-1.2,1.3-1.7c3.4-5.5,6.7-11,10.1-16.4c0.6-0.9,0.1-1.2-0.5-1.5
		c-1.6-0.7-1.7-2.2-1.5-3.5c0.3-2.3,0.1-4.5,0.2-6.7c0-0.9-0.1-1.7-0.7-2.4c-0.9-1-1.7-2.1-1.5-3.7c-1.3,0.3-1.7,1.4-2.3,2.1
		c-0.6,0.7-1.1,1.7-2.3,1.3c-1.1-0.4-1.7-1.3-1.9-2.4c-0.5-2.9,1.4-5.8,4.3-6.6c-1.6,1.5-3.6,2.7-3.8,5.2c-0.1,1.4,0.2,2.6,1.3,3.2
		c1.4,0.7,1.7-0.8,2.3-1.6c0.8-1.1,2.2-2.2,3.2-1.1c1.2,1.3,1.7,0.6,2.4-0.2c0,0.6-0.5,1.2,0.2,1.8c0.6-0.6,1.4-1,1.5-2
		c0-0.4,0.4-0.9-0.1-1.2c-0.6-0.3-0.8,0.3-1.1,0.7c0.7-1.5-0.1-2.5-1.1-3.4c1,0.7,1.9,1.5,2.9,2.2c0.3,0.2,0.6,0.4,1,0.2
		c0.4-0.2,0.3-0.6,0.3-0.9c-1.1-5.3-3-10.2-6.5-14.6c-0.2,0.3-0.4,0.6-0.5,0.8c-1.7,3.2-3.1,6.6-5.8,9.3c-1.4,1.4-3,3.1-2.9,5.2
		C366.5,336.1,365.6,339.2,366.9,342.2z M392.1,346.2c0.4,0,0.7,0,1,0.1c1.2,0.4,1.7-0.3,1.8-1.3c0.1-1-0.8-0.9-1.4-1.1
		c-2.7-0.9-5.4-1.9-8.2-2.7c-0.8-0.2-1.8-1.5-2.3-0.6c-0.6,1.1,1.1,1.2,1.7,1.8c0.1,0.1,0.1,0.3,0.1,0.5c-3.4,1.3,0.2,1.8,0.3,2.5
		c-0.8,1.9-2.3,0.2-3.4,0.9c0.4,1,1.4,0.8,2,1.7c-1.1-0.3-2-0.5-2.7,0.5c0.9,0.7,2.2,0.5,2.9,1.5c-0.9,0.3-1.6-0.8-2.5-0.1
		c0.3,0.9,1.6,0.8,2.1,1.5c-1.1,0.9-1.8-0.7-3.3-0.1c2.7,1.5,5.3,2.2,7.9,2.3c2.5,0.1,4.9,0.2,7.3,0.7c-1-1.2-2.8-0.9-3.9-2.2
		c1,0.1,1.7,0.2,2.4,0.3c1,0.2,1-0.9,1.2-1.3c0.3-0.7-0.6-0.5-1-0.6c-0.7-0.2-1.6-0.2-2-1c1-0.7,2.3,0.8,3.5-0.3c-1-0.7-2-0.7-2.9-1
		c0.3-0.5,1,0,1.3-0.6C393.7,346.8,392.6,347.2,392.1,346.2z M371,382.4c0.4-1,0.7-1.7,1-2.5c0.4-1.2-0.8-1.3-1.3-2
		c-0.2-0.3-0.7-0.5-0.9-0.1c-0.5,0.6,0.1,1.2,0.2,1.8C370.3,380.4,370.6,381.3,371,382.4z"/>
	<path d="M369.2,425.4c2.2,1,4,2.9,6.7,2.6c1.8-0.2,3.7-2,3.7-3.9c0-0.8-0.5-1.1-1.1-1.4c-0.8-0.4-1.5-0.9-2.2-1.4
		c-1-0.7-1.9-1.4-2.8-2.2c1.4,0.9,3.1,0.9,4.4,2c0.8,0.7,3.5-0.3,4.1-1.3c0.8-1.4,0.9-2.6-0.6-3.8c-2.2-1.7-4.2-3.6-5.8-5.9
		c1.7,1.6,3.5,3.1,5.2,4.7c1.5,1.4,2.6,1.3,4-0.1c1.1-1.1,1.6-2.4,2-3.8c0.2-0.7,0-1.5-0.7-1.9c-2.5-1.3-3.9-3.6-5.8-5.8
		c1.4,0.3,1.6-0.7,2-1.5c3-5.6,6.1-11.3,9.1-17c0.5,1.2,5.3,3,6.2,2.2c0.1-0.1,0.2-0.4,0.3-0.6c0.3-1.4,0.5-2.8,0.8-4.2
		c0.2-1-0.1-1.8-1.3-1.7c-1.3,0-1.4-0.6-1.2-1.7c0.2-0.8,0.2-1.6,0.2-2.4c0-1-0.5-0.8-1.1-0.3c0.9-0.9,0.6-2.4,1.6-3.2
		c0,1.7,0.1,3.4,0,5.1c-0.1,1.3,0.4,1.8,1.6,2.1c7.2,2,14.7,2.6,22.1,3.1c10.7,0.7,21.4-0.7,32.1-1.2c0.3,0,0.6,0,0.9,0.1
		c-4.3,1.1-8.7,1.3-13.2,1.4c-4.9,0-9.7,0.7-14.5,0.7c-3.7,0.1-7.4-0.4-11-0.8c-2.1-0.2-4.2,0-6.3-0.5c-1.2-0.3-1.7,0.7-1.7,1.7
		c0,1.4-0.5,2.1-1.9,1.9c-1.6-0.2-1.7-1.3-1.3-2.6c0.9-2.9-1.7-2-2.8-2.5c-1.7-0.7-1.5,0.8-1.8,1.8c-0.6,2.2,0.1,4.6-1.2,6.8
		c-0.4,0.7-0.2,1.8,0.2,2.9c-1.2-0.5-1.4-1.2-1-2c0.5-0.9-0.3-1.1-0.7-1.6c-0.6-0.6-1,0.1-1.3,0c-1.2-0.1-2.4,1.1-3.6-0.2
		c-0.7-0.9-1.5-0.8-2.1,0.3c-1.1,1.9-1.4,4.1-2.8,5.8c-0.5,0.5-0.1,1.1,0.4,1.5c2.2,1.6,3.2,4,4.5,6.2c0.5,0.8,0,2.7-0.4,3.9
		c-1.2,3.1-1.4,6.3-1.9,9.5c-0.5,2.9-2,4.5-4.4,5.7c-0.4,0.2-0.9,0.3-1.2,0.2c-2.1-1.2-2.3,0.2-2.6,1.7c-0.8,4.1-0.8,4.2-5,5
		c-0.9,0.2-0.9,0.9-1.1,1.4c-0.9,2.3-1.8,4.6-4.8,5c-0.7,0.1-0.6,0.8-0.7,1.4c-1,7.9-1.1,15.7-0.7,23.6c0.2,4.5,0,9,0.6,13.4
		c0.1,0.4-0.2,0.8-0.3,1.3c-0.6-0.5,0-1.3-0.5-1.8c-0.2,1.6-0.2,1.6,1.1,2.8c0.7,0.6-0.3,1.8,0.7,2.3c-1.4,1.8,0.9,3.3,0.4,5.2
		c-0.2,0.8,1.1,1.9-0.6,2.5c-0.5,0.2-0.1,1.3,0.3,1.5c1.4,0.8,1.2,2.1,1.3,3.9c-1.6-1.7-2.1-3.5-2.3-5.1c-0.9-6.2-2.4-12.4-2.3-18.7
		c0.1-6-0.9-11.9-0.7-17.9c0.1-2.7,0-5.5-0.2-8.2c-0.1-1.7,0.1-3.3,0.4-5.2c-1.3,0.9-1.3,2.3-2.3,3.3c0.1-1.7,1.1-2.6,1.6-3.9
		c0.3-0.9,0.4-1.1-0.6-1.5c-4.1-1.6-4-1.7-6.2,2.2c-0.3,0.5-0.3,1.2-1.2,1.6c0.6-2,1.6-3.6,2.6-5.3c0.6-1,0.5-1.4-0.6-2
		c-3-1.5-6.1-3.1-8.9-5c-1.9-1.3-3.1-2.9-3.6-5.2c-1.1-4.2-1.4-8.6-2.1-12.9c-0.1-0.6,0.1-1.5-0.6-1.7c-3.7-1.3-4.9-4.6-6.2-7.7
		c-1.6-3.7-4.2-6.9-4.6-11.2c1.3,2.5,2.7,4.9,3.8,7.4c1.2,2.8,2.7,5.4,4.2,8c0.5,0.9,1.2,1.5,2.7,2c-2.4-3.7-1.5-7.1-0.5-10.6
		c0.5,0.9-0.2,1.8-0.2,2.7c0,1-0.3,2,1,2.5c0.5,0.2,0.6,0.7,0.6,1.3c0.2,6.7,1.1,13.2,2.4,19.8c0.4,1.9,1.2,3.5,2.9,4.6
		c5.8,3.8,12.3,6.3,18.8,8.6c1.6,0.6,5.2-2.8,4.8-4.4c-0.2-0.6-0.8-0.6-1.2-0.8C371.7,427.4,370,426.9,369.2,425.4L369.2,425.4z
		 M390.5,404.4c0-1.3-0.6-2.8-2.1-4.9c-2.4-3.3-2.4-3.3-4.3,0.3c-0.2,0.4-0.4,0.7-0.6,1.1c-2,4.1-1.8,3.2,1.5,6.1
		c0.2,0.2,0.6,0.2,0.8,0.4c1.6,1.2,2.4,2.5,1.5,4.6c-0.7,1.6-1.6,2.8-2.9,4c-1.3,1.2-1.2,3-1.2,4.7c0,0.6,0.6,0.9,1.3,0.6
		c1.6-0.8,3.2-1.8,3.6-3.8c0.6-3,0.9-6,1.9-8.9c0.3-0.9-1.3-0.9-0.3-1.5C390.6,406.4,390.4,405.4,390.5,404.4z M404.3,383.8
		c0,0.6-0.1,1.5,0.8,1.5c1.1,0,1-1,1.2-1.7c0.3-0.7-0.2-1.1-0.9-1.2C404.4,382.3,404.4,383.1,404.3,383.8z"/>
	<path d="M404.7,548.8c-1.9-1.9-4.5-1.5-6.7-1.8c-4.4-0.5-8.8,0-13.2,0.3c-3.7,0.2-6.2,2.4-8.4,4.9c-5.2,6-9.5,12.6-13.6,19.3
		c-0.4,0.7-0.6,1.3-0.5,2c0.6,4.7,1.2,9.3,1.8,14c0.2,1.2,0.6,2.4,1,3.5c0.5,1.3,0.9,2.8,0.9,4.2c0.1,3.5,0.2,6.9,1.6,10.3
		c0.7,1.6,0.2,3.5,0.7,5.3c0.3,0.8-0.3,1.5-1,2.5c-0.7-5.1-2.4-9.8-2.4-14.3c0-6.2-2.5-11.9-2.8-18.1c-0.1-2.7-1-5.5-0.8-8
		c0.5-5.2,0.7-10.5,1.9-15.7c1.3-5.9,3-11.7,4.1-17.7c1.4-7.7,2.5-15.3,3-23.1c0.1-1.8,0.1-3.5-0.3-5.3c-0.6-2.5-0.2-5.1,0-7.6
		c0.2-3-0.3-5.9-0.5-8.8c-0.1-1.1,0-2.1,0-3.2c2.3,0.7,2.5,1.1,1.2,2.7c-0.7,0.9,0,1.2,0.4,1.8c0.3,0.5,1.4,0.8,0.5,1.7
		c-1.2,1.1-0.9,2.2,0.3,3c1.2,0.9,0.4,2.2,0.7,3.3c0.7,3.1,0.9,6.4,2,9.5c0.3,0.7,1.8,2.7-0.8,4.1c-1.5,0.8-1.4,3.6-1.4,5.5
		c0,2.9-0.5,5.9-0.1,8.8c0.2,1.8,0.3,3.7,0.7,5.5c0.4,1.8,0.4,3.7,0.4,5.5c0,1.3,0.5,2.5,0.3,3.8c-1.8-1.5-1.8-3.8-2.4-5.9
		c-1.7,1-2.4,2.3-2.6,4.1c-0.2,2.1-0.8,4.3-1.8,6.1c-1,1.9-0.6,3.9-1.4,5.7c-0.7,1.6-0.9,3.4-1.2,5.1c-0.3,1.8-0.9,3.5-1.4,5.2
		c-0.1,0.4-0.1,1.1,0.4,1.4c0.7,0.3,0.8-0.4,1.1-0.8c0.6-1,1.2-2,1.8-3c1.1-1.6,1.8-3.5,3.2-5c1.3-1.4,3-3,1.6-5.6
		c1.5,1.8,2.1,1,2.9-0.3c0.6-1,1.3-1.9,2.2-2.6c2.1-1.6,3-3.4,2.5-6.2c-0.3-2.1,0.5-4.4,0.2-6.6c-0.1-0.7-0.7-1.5,0-2.4
		c1.2,1.1,1.4,2.7,1.6,4c0.3,2,0.9,3.9,0.3,6c-0.2,0.7,0,1.1,0.7,0.8c4.5-1.5,9.1-0.4,13.6-0.3c2.1,0,4.2-0.1,6.3,0.1
		c0.7,0.1,1.2-1.3,1.4-0.6C403.1,547.2,405.5,547.1,404.7,548.8C404.7,548.9,404.7,548.8,404.7,548.8z"/>
	<path d="M441.3,285.2c0.6-2.4,2.6-4.1,3.1-6.9c1.8,5.2,2.4,10.1,2.9,15.1c0.5,5.3,1.9,10.5,3.4,15.6c2.3,8.3,4.8,16.5,7.3,24.7
		c2.6,8.3,4.5,16.7,7.7,24.8c0.7,1.7,1.5,3,3.4,3.6c1.7,0.6,3.3,1.7,5,2.6c-0.1,0.1-0.2,0.2-0.3,0.2c-2.8-1.1-2.9-1.1-2.4,1.8
		c0.5,3.1,1.1,6.1,1.6,9.2c0.1,0.5,0.4,1.1-0.1,1.8c-0.9-2.3-0.9-4.8-1.5-7.1c-0.5-2.1-0.9-4.2-1.3-6.4c-0.3-1.7-1.7-1.9-2.9-2.2
		c-0.7-0.2-0.4,0.6-0.3,1.1c0.3,1.3-0.2,2.3-1.6,2.2c-1.4-0.1-3.4,0.7-3.9-1.7c-0.2-1.3-0.3-2.6-0.3-3.9c0-1.6-0.5-2-2.1-1.7
		c-2.4,0.5-4.9,0.5-7.3,0c-1.3-0.3-1.4,0.6-1.4,1.3c0.4,3.8-1.7,4.5-4.9,4.8c-3.7,0.3-7.4,0.3-11,0.4c-3.1,0.1-6.1,0.5-9.1,0.8
		c-0.9,0.1-1.7,0.3-2.6,0.3c-0.6,0-1.6,0.4-1.6-0.5c-0.1-0.9,1-0.6,1.6-0.7c2.4-0.3,4.7-0.8,7.1-0.8c3.6,0,7.2,0.2,10.8,0.3
		c2.6,0,5-0.5,7.5-0.9c0.9-0.1,1.6-0.6,1.7-1.9c0.5-5.1,0.4-10.3,0.5-15.4c0-1.1-0.2-2.1-0.4-3.3c0.4,1.6,1.4,2,2.9,1.9
		c1.9-0.1,3.8,0,5.6-0.1c1.3-0.1,1.8-0.8,1.4-2.1c-2.5-8.1-5.1-16.3-7.5-24.4c-0.4-1.3-0.9-1.7-2.2-1c-0.4,0.2-0.8,0.6-1.4,0.3
		c0-0.1,0-0.2,0.1-0.2c3.1-0.6,2.8-2.4,2-4.7c-1.1-3.3-2-6.7-3-10.1c-0.3-1-0.8-1.9-0.9-3.1c-0.6-4.3-0.4-8.8-1.4-13
		c-0.2-1.1-0.5-2.2-0.8-3.4C442.8,282.8,442.4,284.3,441.3,285.2L441.3,285.2z M465.8,362.4c0.1-1.6-0.7-2.9-1.4-4.1
		c-0.5-1-1.4-0.5-2.1-0.3c-0.9,0.2-0.4,0.9-0.2,1.4c0.3,1.1,0.7,2.2,0.9,3.3c0.2,1,0.7,1.6,1.8,1.5C466,364,465.7,363.1,465.8,362.4
		z"/>
	<path d="M480.4,636.5c2.5,2,3.3,5.1,4.5,7.8c1.4,3,3.6,5.3,5.1,8.2c1.9,3.5,4.9,6.1,7.5,9.6c-3.3-0.8-6.2-1.8-9.4-1.3
		c1.3-1.2,2.5-1.9,4.2-1.3c-0.3-1.3-1.2-0.9-1.7-0.9c-0.6-0.1-1.2-0.2-1.7,0c-2,0.6-3.9-0.6-5.9-0.5c0-0.9,1.1-0.5,1.2-1.1
		c-1.3-0.5-2.5,0.4-3.8,0.2c0.7-1.3,2.2-1.6,3.5-2.6c-2.3,0-4.1,0-6.1,0c1-1.3,2.8-1.1,3.9-2.2c-1.4-0.9-2.3,0.5-3.7,0.6
		c1.1-1.6,3.2-0.9,4.3-2.1c-0.6-0.8-1-0.1-1.5-0.2c-0.3,0-0.9,0.1-0.7-0.2c0.2-0.3-0.3-1.1,0.6-1c0.6,0,1.3-0.3,1.9-0.4
		c0.4-0.1,0.9-0.3,0.8-0.8c-0.1-0.6-0.6-0.5-1-0.5c-0.7,0-1.4,0-2.2,0c0.2-0.8,1.2-0.5,1.4-1.1c-0.4-0.9-1.5-0.4-2.1-1.1
		c0.4-0.7,1.2-0.1,1.8-0.7c-3.1-3.2-7.6-1.4-11.2-3.2c1.1-0.9,2.5-1.2,3.4-2.2c-0.2-0.8-1.1-0.2-1.4-1c1-0.3,1.7-1.2,2.8-1.1
		c1.2,0.1,2.5,0.2,3.6,0.6C480.1,638.4,480.5,637.9,480.4,636.5L480.4,636.5z"/>
	<path d="M433.3,359.2c-2.1,0-4.8,0.1-7.4-0.4c-0.9-0.2-0.9-0.5-1.1-1.2c-0.7-2.7-0.2-5.4-0.8-8.2c-0.4-1.8,1.3-3.1,4.4-3.6
		c4.8-0.7,9.7-0.6,14.5-0.4c0.3,0,0.8,0.1,0.8,0.2c0.3,2.1,2.3,2.5,3.4,3.8c1.4,1.5,1.1,2.9-0.7,3.9c-1.4,0.8-2.1,1.7-2.2,3.3
		c0,1.5-0.9,2-2.4,2.2C439.1,359.1,436.5,359.4,433.3,359.2z M436.6,351.6c0.4-0.3,1.1,0,1.2-0.6c0.1-0.4-0.3-0.5-0.5-0.5
		c-1.4,0.4-0.4-1.6-1.5-1.5c0.3-0.8,1.3-0.3,1.7-0.9c-0.3-0.6-1.4,0-1.5-1c1,0,1.9,0,2.7,0c0.3,0,0.5-0.2,0.5-0.6
		c0-0.4-0.3-0.4-0.6-0.4c-3.2,0.1-6.4-0.2-9.6,0.3c0.1,1,1.1,0.5,1.3,1.4c-1.2-0.3-2.2,0.9-2.2,1.3c0.1,1.1,1.4,0.3,2.1,0.7
		c0.3,0.1,0.5,0.3,0.8,0.5c-0.9,0.3-0.9,0.9-1.6,1.7c-0.7,0.8-1.4,0.9,0.1,1.3c1,0.2,1.3,1.2,1.9,1.8c-0.7,0.5-0.4,1.9-2.1,1.8
		c3.6,1.6,7.3,1.7,8.9,0.3c-0.3-0.5-1.1,0.1-1.4-0.7c0.8-0.2,1.6-0.4,2.3-0.6c0.3-0.1,0.5-0.3,0.4-0.6c-0.1-0.2-0.3-0.4-0.4-0.4
		c-1.5,0.5-1.9-1.1-2.8-1.6c0.6-0.5,1.8,0,2.1-1C438,351.5,437.1,352.1,436.6,351.6z M444.3,348.9c-1.9-0.3-3.4,0-3.2,2.4
		c0.1,0.7-0.6,2.4,1.3,2c1.7-0.3,4.3,0.9,4.6-2.1C447.2,349.5,446.2,348.4,444.3,348.9z"/>
	<path d="M411.6,344.2c0.4,1.6,1.6,1.1,2.6,1.1c1.7,0,3.9-0.9,5-0.1c1.1,0.8-0.2,3.1,0,4.7c0.4,3.3-0.9,6.6,0,10
		c-0.4-1.5-1.4-1.7-2.7-1.7c-1.9,0.1-3.8,0.1-5.6-0.1c-1.2-0.2-1.9,0.3-1.7,1.7c0.1,1,0.1,2,0,3c-0.1,1.5-1.1,2.1-2.5,2.2
		c-1.5,0.1-1-1.3-1.4-2c-1.4-2.9-0.4-5.4,1.2-8C408.4,351.6,409.1,347.6,411.6,344.2z M408.2,360.9c-0.1-0.5-0.2-0.9-0.2-1.3
		c0-0.7,0.2-1.4-0.7-1.6c-0.6-0.2-1.3-0.3-1.9,0.2c-0.6,0.5-0.2,1.1,0,1.8c0.3,0.9,0.4,1.8,0.6,2.7c0.1,0.6,0.1,1.2,0.9,1.2
		c0.9,0,1-0.6,1.1-1.3C408.1,362,408.2,361.4,408.2,360.9z"/>
	<path d="M339.8,379.4c1.5,0.4,1.2-2.5,2.9-1.1c-0.4,0.7-1.8,0.9-1.9,2.4c1.3-0.6,2.5-1.1,3.6-1.9c-0.9,1.8-2.5,3.2-3.3,5.4
		c1.8-0.2,2.8-1.7,4.3-2.4c0.5,0.4-1.5,1.8,0.5,1.8c0.5,0,0.2,0.3-0.1,0.4c-0.2,0.1-0.5,0.1-0.6,0.2c-0.3,0.6-1.4,1.2-0.9,1.7
		c0.8,0.9,1.1-0.6,2-0.8c-0.6,0.7,0,1.7-1.4,1.9c-0.5,0.1-2.5,0.9-1.3,2.7c0.3,0.4,0.5,2-0.5,2.5c-1,0.5-1-0.7-1.4-1.1
		c-1.3-1-1.2,0.9-2,1.3c0.2-1.4-0.8-2.7,0.2-4c0.2-0.3,0.1-0.6-0.2-0.7c-0.3-0.1-0.6-0.1-0.8,0.2c-0.3,0.4-0.3,1-1,1.2
		c-1-1.9-0.8-3.8,0.4-6c-1.6,0.7-1.9,1.7-2.5,2.6c-0.6-0.8-0.1-1.4,0.1-2.1c0.1-0.5,0.2-1-0.3-1c-2.2,0-1.6-1.6-1.2-2.5
		c1.6-3.4,2.6-7.2,6.7-8.8c0.3,1-0.3,1.5-0.9,2c-0.6,0.4-1.1,0.9-1.7,1.3c-0.2,0.2-0.3,0.5,0,0.8c0.1,0.1,0.4,0.2,0.6,0.1
		c2-0.9,3.9-1.7,5.8-2.6c0.2-0.1,0.2-0.3,0.5-0.4C344.4,375.5,340.2,375.8,339.8,379.4z"/>
	<path d="M449.2,654.1c0.6-2.4-1.9-4.2-0.2-6.7c1.4-2,3.1-3.7,4.8-5.4c-1.5,0.7-3.1,1.2-4.4,2.3c1.3-3.1,4-4.9,6.5-7
		c-0.3,0.5-0.6,1-0.8,1.5c0.1,0.1,0.2,0.2,0.2,0.2c1.1-0.8,2.1-1.7,3.2-2.4c0.4-0.3,0.8-0.9,1.4,0c0.5,0.8-0.2,0.8-0.5,1.1
		c-1.3,1.2-3,1.9-4.4,3.6c2.3-0.7,3.9-2.1,6.1-2.3c-2.8,2-5.6,4.1-8.4,6.1c0.1,0.2,0.2,0.3,0.3,0.5c2.5-1.5,4.7-3.5,7.6-4.3
		c0,0.9-1.1,1.1-1,2c1.7-0.2,3.3-1.3,5.5-0.5C458.5,645.1,453.1,648.3,449.2,654.1z"/>
	<path d="M382.4,289.4c-1.3-2.4-1.1-4.8-1-7.4c0.1-2.2-0.7-4.5-1.1-7c1.6,1,1.8,2.8,2.9,3.7c0.9,0.7,2.1,2,3.3,0.1
		c0.3,0.9-1.2,1.4-0.4,2c0.8,0.6,1.3-0.6,2.1-0.8c0.1,0.6-1.7,2.2,1,1.6c1.4-0.3,3.1,1,4.8,0.6c0.4,0.6-0.6,0.8-0.3,1.4
		c1.3-0.2,2.3-1.2,3.6-1.8c0.2,1-1.2,1.2-0.9,2.1c0.8,0.3,1.2-0.7,2.3-0.6c-2.3,2.6-4.9,3.6-8.1,3.7c0.1-0.7,1.4-0.9,0.8-1.3
		c-1.1-0.7-1.8,0.6-2.8,1.2c-0.3-0.6,0.2-1.8-1-1.7c-1,0.1,0.6,1.4-0.7,1.7c-0.2-0.6,0.1-1.8-1-1.6c-0.8,0.1-2.2-0.2-2.2,1.4
		C381.6,286.6,382.9,288.5,382.4,289.4C382.4,289.4,382.4,289.4,382.4,289.4z"/>
	<path d="M405.5,406.8c-1.5,1-2.8,0-3.9-0.6c-0.8-0.4-1.2-1.8-0.3-2.9c0.7-0.9,0.4-2.3,0.2-3.1c-0.3-1.7,0.9-2.9,0.4-4.6
		c-0.3-1.2,0.9-2.2,2.5-1.8c6.1,1.7,12.4,1.7,18.7,2.1c5.7,0.4,11.4,0.8,17.1,0c4.9-0.7,9.9-1.2,14.7-2.5c0.4-0.1,0.8-0.1,1.3,0
		c-1.7,0.9-3.6,1.2-5.4,1.5c-1.9,0.4-3.9,0.6-5.8,0.9c-8.6,1.5-17.3,1.2-25.9,0.5c-2.5-0.2-5.1-0.3-7.6-0.5c-1.3-0.1-2.3,0-2.2,1.7
		c0,0.1,0,0.3,0,0.4c-0.2,0.9-0.7,1.4-1.6,1.5c-1.1,0.1-1-0.9-1.1-1.5c-0.2-1.5,0-3.1-2.1-3.3c-1.3-0.2-1.9,0.1-1.9,1.5
		c0,2.5,0,5.1-0.1,7.6c-0.1,1.5,0.1,2.7,2,2.8C404.9,406.4,405.2,406.7,405.5,406.8L405.5,406.8z"/>
	<path d="M473.6,225.5c-0.3-0.6-1.5,0-1.3-1c0.1-0.6,0.3-0.7,1.2-0.5c1.8,0.4,3.4-1,5.1-1.5c6.1-1.5,12.5-2.1,18.7-3.1
		c5.9-1,11.9-0.8,17.7-1.8c7.3-1.2,14.7-0.9,22.1-0.8c2.7,0,5.5,0.2,8.2,0.4c0.4,0,1.1-0.3,1.2,0.4c0,0.1-0.1,0.3-0.2,0.4
		c-0.5,0.8-0.8-0.1-1.2-0.1c-1.8-0.4-3.7-0.5-5.4-0.3c-2.8,0.3-5.6,0.2-8.2,0c-4.5-0.4-8.8-0.2-13.3,0.5c-1.7,0.2-3.5,0.4-5.3,0.6
		c-2.7,0.2-5.4,0-8.1,0.3c-5.4,0.6-10.8,1.6-16.1,2.4c-5.1,0.8-10.1,1.6-14.8,3.9C473.9,225.4,473.8,225.5,473.6,225.5z"/>
	<path d="M507.2,670.9c-3.7-0.3-7.7,0.9-11.3-1.4c0.2-0.7,1.3-0.2,1.6-1.2c-2.4-0.9-4.7-2.1-7.7-2.6c2.7-0.8,5.2-0.5,7.9-1.1
		c-1.6-1.1-3.1-1.1-4.6-1.5c1.4-0.1,2.8-0.2,4.1,0.3c0.6,0.2,1.1,0,1.2,1.2c0.1,1.3,1.8,0.7,2.8,0.8c0.4,0,0.8-0.4,1.3,0.1
		C504,667.4,505.7,669.2,507.2,670.9z M505.1,669.6c-1.5-2-3.2-1.1-4.9-1.4C501.5,670.3,503.1,669.5,505.1,669.6z"/>
	<path d="M462.9,588.7c-1.6,2.7-3.8,4.9-5.6,7.4c2.1-0.6,2.9-2.7,4.6-3.7c-2.8,4.9-6.9,8.5-11.2,12.1c0.6-2.4,2.9-3.6,4.2-6.2
		c-3.4,2.7-6,5.4-9.1,8.4C450.1,598.8,457,594.2,462.9,588.7z"/>
	<path d="M465.4,318.5c-1.9-2.6-2.3-5.7-3.1-8.6c-2.4-8.6-4.4-17.3-6-26.1c-1.1-6.1-2.1-12.3-3.2-18.4c-0.1-0.4,0.1-1.1-0.5-0.9
		c-1.1,0.4-0.9,0-0.5-0.6c0.4-0.7,0.8-1.3,1.3-2.1c1.1,2.4,1.8,5.1,1.7,7.5c0,4.8,1.2,9.3,1.8,13.9c0.6,4.9,1.7,9.7,3.1,14.4
		c1.3,4.6,2,9.5,3.5,14.1C464.3,314,464.5,316.3,465.4,318.5z"/>
	<path d="M429.2,298.7c-0.2-1.9-1.5-0.5-2.4-0.8c0.2-1,1.2-1.2,1.9-1.3c1.7-0.3,2.5-1.5,3.2-2.8c1.2-2.4,2.3-4.8,3.5-7.2
		c0.2-0.4,0.6-0.9,0.4-1.4c-0.9-2.4-0.8-3.2,1.1-5c1.1-1,1.3-2.3,1.6-3.7c0.4-2,1-4,1.6-6.1c2.4,2.7,2.4,3.3,1.1,5.9
		c-2.9,5.8-5.7,11.7-8.4,17.6C431.7,295.6,430.7,297.3,429.2,298.7L429.2,298.7z"/>
	<path d="M440.7,595c0.1-2.1,15.3-18.5,24.1-25.7C458,579.1,448.6,586.5,440.7,595z"/>
	<path d="M544.6,205.1c-22,1.1-44.1,3.5-66,7c0.7-1.4,1.4-3,2.2-4.5c0.7-1.4,1.5-2.8,2.5-4.1c-1.1,2.5-2.3,4.9-3.6,7.7
		c11.1-1.4,21.9-2.9,32.7-3.9C523.2,206.3,533.9,204.5,544.6,205.1z"/>
	<path d="M555,346.6c-3,3.7-6,7.5-9.2,11.2c-4.6,5.4-9.3,10.7-14.6,15.4c-2.9,2.6-6.1,4.9-9.2,7.3c-0.4,0.3-0.7,0.6-1.3,0.4
		c-2.1-0.7-4.2-1.4-6.3-2.3c1.5,0.4,3,0.8,4.5,1.1c1.4,0.3,2.7,0.2,3.8-0.8c4.5-4.1,9.8-7.2,13.9-11.8c4.6-5.1,9-10.4,13.4-15.7
		c1.5-1.8,3.1-3.4,4.6-5.2C554.8,346.3,554.9,346.4,555,346.6z"/>
	<path d="M441.9,602.3c6.2-9.7,14.2-17.4,22.4-25.3c0.1,1.5-0.9,2.4-1.6,3.2c-4.4,5.2-9.2,10-14,14.8
		C446.4,597.3,444.6,600,441.9,602.3z"/>
	<path d="M464.3,582.3c0.2,1.6-0.7,2.4-1.4,3.3c-4.6,5.4-9.9,10.1-14.9,15.1c-1.5,1.6-3,3.2-4.7,4.6
		C449.1,596.7,457,589.9,464.3,582.3z"/>
	<path d="M407.8,500.4c-0.6-0.8-1.5-1.2-1.9-1.9c-0.5-0.8,0.6-1.6,1.1-2c2.5-2.1,4.6-4.4,6.9-6.7c0.3-0.3,0.4-1,1.1-0.4
		c0.6,0.5,0.1,0.7-0.1,1.1c-0.6,1.1-0.7,2.5-1.1,3.6c-0.7,2.1-2.3,3.8-4,5.2C409.4,499.7,408.5,499.8,407.8,500.4z"/>
	<path d="M464.4,565.7c-7.4,10.7-18.4,18.3-26.2,29.5c1.4-3.7,3.6-6.1,5.9-8.5c6.7-7.1,13.3-14.3,19.9-21.4
		C464.1,565.5,464.3,565.6,464.4,565.7z"/>
	<path d="M405.5,406.9c2.5-0.2,5,0.7,7.4,1.1c9.5,1.7,19.1,2.1,28.7,1.4c4.1-0.3,8.1-1.1,12.1-2c0.8-0.2,1.4-0.3,2,0.5
		c-1.2-0.9-1.9,0.4-2.9,0.5c-2.4,0.3-4.9,0.3-7.1,1c-2.4,0.8-4.7,0.4-7,0.7c-2.4,0.4-4.8-0.1-7.2,0.5c-0.2,0.1-0.6-0.4-0.9-0.4
		c-1.9,0.1-4.4-1.1-4.6,2.5c-3-3.8-7.2-2.9-11-3.7C411.8,408.5,408.4,408.9,405.5,406.9C405.5,406.8,405.5,406.9,405.5,406.9z"/>
	<path d="M394.8,129.4c2-3.6,2.7-7.9,6.1-10.8c0.6-0.5,1.2-1.2,1.9-1.4c4.1-1,6.2-4.2,8.1-7.5c1.3-2.2,5.4-3.7,7.7-2.9
		c0,0.4-0.3,0.7-0.6,0.8c-4.5,1.4-7.4,4.9-10.7,8c-1.2,1.1-2.5,2.2-4.1,2.7c-2.9,1-4.3,3.5-5.5,6c-0.9,1.8-1.6,3.6-2.5,5.5
		C395.1,129.6,395,129.5,394.8,129.4z"/>
	<path d="M464.1,573.7c-5.5,9-14.2,15-21,22.7C448.4,587.2,457.3,581.5,464.1,573.7z"/>
	<path d="M443.1,579.3c0-0.9,0.6-1.4,1.1-2c2.4-2.9,4.8-5.6,7.6-8.1c3.5-3.2,7-6.5,9.4-8.8c-1.1,1.5-3.1,4.2-5.4,6.6
		c-3.9,4-7.2,8.6-11.9,11.9C443.7,579.1,443.5,579.4,443.1,579.3L443.1,579.3z"/>
	<path d="M546.5,339c-1.5,3.8-4.1,6.7-6.8,9.7c-3.1,3.4-6,7-9.2,10.3c-3.6,3.7-7.4,7.1-11.4,10.2c-1.3,1-1.7,0-2.5-0.7
		c3.9,0,5.7-3.1,8.2-5.1c2.7-2.1,4.5-5.1,7.2-7.2c2.5-1.9,4-4.6,5.8-7c0.9-1.1,2-1.8,2.9-2.7C543,344.2,544.6,341.5,546.5,339z"/>
	<path d="M440.9,586.2c0.9-1.8,2.4-3.1,3.8-4.3c4.3-3.8,7.1-8.9,11.4-12.7c1.8-1.6,3.7-3.2,5.5-5.1c-1,1.5-2,2.9-3.1,4.4
		c-4.8,6.3-10.7,11.6-16.3,17.1C441.9,585.9,441.5,586.3,440.9,586.2L440.9,586.2z"/>
	<path d="M560.7,280.9c-0.3-18.3-2.2-36.5-2.3-54.8C559.2,244.4,561.1,262.6,560.7,280.9z"/>
	<path d="M465.8,228.1c-0.1-0.6,0.1-1.6-0.9-1.2c-2.8,1.2-6,1-8.7,2.8c-1.6,1-3.7,1.4-5.6,2.4c-0.7,0.4-0.6,0.5-0.6,1.1
		c-0.2,5.8,1.4,11.3,1.9,17c0.1,0.6,0.1,1.3-0.1,1.9c-0.5-2.8-0.9-5.6-1.5-8.4c-0.7-3.5-1.5-6.9-1.5-10.5c0-1,0.2-1.6,1.4-2
		c3.6-1.1,6.9-2.9,10.5-3.9c1.7-0.5,3.4-1.1,5.1-1.5c0.8-0.2,1.5-0.6,1.9-1.3C467.4,225.8,466.8,227.1,465.8,228.1L465.8,228.1z"/>
	<path d="M526,103.2c0.2,3.4-0.6,6.6-1.1,9.8c-1.3,8.2-2.1,16.6-4.3,24.6c-1.6,5.9-4.7,11.1-7.6,16.5c-0.4,0.8-0.9,1.6-1.7,2.2
		c1.1-2.2,2.1-4.5,3.3-6.7c3.9-6.9,6.4-14.1,7.4-22C523,119.5,524.7,111.3,526,103.2z"/>
	<path d="M550.8,273c-0.4-2.5-1.3-4.8-0.8-6.8c0.6-2.5-0.9-4.8,0.1-7.3c0.5-1.4,0.1-3.3-0.4-4.8c-0.8-2.5-0.2-5.1-0.7-7.6
		c-1.1-5.5-1.3-11.1-1.6-16.7c0-0.6-1-1.1-0.2-1.7c0.1,0,0.1-0.1,0.2-0.1C548.7,231.4,551.7,269.9,550.8,273z"/>
	<path d="M251.1,647.5c-1.8,3.6-3.6,7.1-5.4,10.7c-2.2,4.4-4.3,8.8-6.1,13.4c-0.8,2.1,0.6,4,3.7,5c2,0.7,3.2,0,4.1-2.2
		c0.8-1.9,1.8-3.7,3-5.5c-0.6,1.9-1.2,3.9-1.9,5.8c-0.9,2.2-2.2,2.8-4.6,2.5c-2-0.2-3.3-1.4-4.6-2.7c-0.9-0.9-0.9-2-0.4-3.2
		c2.6-5.9,5.2-11.7,8.3-17.4c1.2-2.2,2.3-4.5,3.5-6.8C250.8,647.4,251,647.4,251.1,647.5z"/>
	<path d="M560.5,338.3c0.8-16.6-0.2-33.3,0.8-49.8C561.9,292.7,561.2,335.6,560.5,338.3z"/>
	<path d="M416,117.5c1.5-3.6,4.1-4.9,6.7-3.7c2.3,1,2.4,2.3,0.5,7c-0.5-1.4-0.8-2.7-0.3-4c0.2-0.4,0.3-0.9-0.1-1.2
		c-0.5-0.3-0.7,0.2-1.1,0.5c-1.6,1.2-2.1,3-2.6,4.9c-0.4-1.1-0.4-2.2-0.1-3.3c0.2-0.5,0.9-1.2,0.1-1.7c-0.6-0.3-1.2,0.2-1.8,0.6
		C417,116.6,416.8,116.9,416,117.5z"/>
	<path d="M339.8,278.6c-2.3,6.8-2.3,13.7-2.2,20.6c-0.7-4-0.6-8-0.4-12.3c-1.2,0.6-0.5,1.6-1.4,2.5
		C335.5,285,337.6,281.8,339.8,278.6z"/>
	<path d="M269.5,610.4c-5.3,11.7-11.3,23.1-17.4,34.3C257.5,633,263.9,621.9,269.5,610.4z"/>
	<path d="M378.8,269.1c-1.6-1.3-0.7-3-0.3-4.3c2.5-8.1,7.3-14.6,14-19.9C385.6,251.6,379.8,258.9,378.8,269.1z"/>
	<path d="M357.4,370c-1.9,0.5-2.3,1.2-1.5,1.4c0.8,0.2,1.3,0.7,2.1,1.1c-0.6,1.1-2.1,0.3-3,1.3c1.5,0.5,3-0.1,4.6,0.6
		c-1.6,0.4-2.9,0.5-4.2,0.1c-0.3-0.1-1-0.1-0.9-0.4c0.7-2.3-1.5-1.4-2.4-2.1c0.7-0.2,1-1.2,1.8-0.9c0.8,0.3,1.1,0.1,1.2-0.6
		c0.1-0.8-0.5-0.9-1.1-1.1c-0.6-0.2-1.8,0.6-1.6-0.9c0.1-0.6,0-1.3,0.9-1.1c0.9,0.2,2.5-0.7,2.6,0.9
		C356.1,369.4,356.9,369.3,357.4,370z"/>
	<path d="M550.8,278c0.6,11.1,1,22.2,0.7,33.4c-0.2,0-0.4,0-0.7,0C550.8,300.2,550.8,289.1,550.8,278z"/>
	<path d="M372.3,239.3c-1-0.5-1.4-2-2.7-1.4c-0.9,0.4,0.5,1.2,0,1.8c-0.2,0-0.3,0-0.3,0c-1.8-2.7-1.9-2.7,1.2-4.1
		c1.1-0.5,0.5-1.1,0.4-1.8c0.9-0.3,1.3,1.5,2.2,0.6c0.7-0.7-0.6-1-0.5-1.6c1.6,0.9,3.2,3.9,3.1,6.2c-0.7-1.1-1.3-2.1-1.9-3.1
		c-0.1-0.1-0.2-0.1-0.4-0.2c-0.6,0.4,0.1,1-0.3,1.4c-0.8,0.1-0.8-1.3-1.8-1.1C371.6,237.1,373.1,237.8,372.3,239.3z"/>
	<path d="M507.9,137.5c4.5-9.1,8.6-18.4,13.4-27.3c0.2,0.1,0.3,0.2,0.5,0.2c-4.4,9.1-8.9,18.2-13.3,27.4
		C508.2,137.7,508,137.6,507.9,137.5z"/>
	<path d="M359.2,273.3c-1.3,1-2.8,1.4-2.1,3.2c0.2,0.4-0.4,0.4-0.6,0.4c-0.4,0-0.4-0.3-0.3-0.6c0.3-0.5,0.5-1-0.1-1.3
		c-0.6-0.2-1.3,0.1-1.7,0.7c-0.8,1.2-1.4,2.5-2.3,3.6c1-1.6,1-3.7,2.5-5.1c0.3-0.3,0.5-0.7,0.7-1.1c0.5-0.8,0.5-1.8,0.2-2.5
		c-0.5-1-1.2,0.1-1.8,0.2c-1.4,0-2.7,0.7-4.1,1.2c0.5-1.4,0.7-2.8,2.6-1.8c0.4,0.2,1.3,0,1.9-0.4c1.9-1.2,2.4,0.4,2.3,1.5
		C356.2,273.6,356.7,274.4,359.2,273.3z"/>
	<path d="M370.1,629c-0.5-2.7-0.9-5.4-1.4-8.2c-0.3-1.7-0.5-3.4-0.8-5.1c-0.1-0.7-0.1-1.4,0.7-1.5c0.8-0.1,0.7,0.7,0.7,1.1
		c0.1,2.1,1.3,4.2,0.5,6.4c-0.3,0.9,0.7,1.3,0.9,2.1c0.5,1.8-0.3,3.4-0.1,5.1C370.5,629,370.3,629,370.1,629z"/>
	<path d="M346.8,324.1c4.4,2.8,8.7,5.7,9.5,11.4c0.3,1.8,1,3.8-0.2,5.7C356,333.9,352.9,328.2,346.8,324.1z"/>
	<path d="M444.8,492.1c1.5,0.5,2.1,1.9,3.1,3c0.7,0.7,1.3,1.3,2.2,1.7c0.6,0.3,1.5,0.4,1.4,1.4c0,0.2-0.2,0.7-0.3,0.7
		c-0.7-0.1-1.5-0.1-1.8-0.9c0-0.1-0.2-0.2-0.3-0.3c-0.3-0.2-0.6-0.4-1-0.1c-0.5,0.4-0.2,0.7,0.3,1c0.4,0.2,0.8,0.9,0.5,0.8
		c-0.8-0.1-1.1,0.9-1.7,0.6c-0.8-0.4-0.8-2.1-2.4-1.6c-0.2,0.1-0.3-0.4-0.1-0.5c1.3-0.9-0.3-1.4-0.2-2.2c0.1,0,0.2-0.1,0.3-0.1
		c0.8,0.5,1.8,2,2.3,1.4c0.9-0.9-0.8-1.7-1.2-2.6C445.7,493.6,445.2,492.9,444.8,492.1z"/>
	<path d="M450.1,512c0.7,1,0.2,2.1,0.5,3.1c0.6,0.3,1-0.1,1.4-0.3c0.4-0.3,0.6-1.2,1.3-0.4c0.2,0.2,0.5,0.7,0.4,0.6
		c-1-0.5,0,2.2-1.7,1c-0.4-0.3-2.1,0.9-1.4,2.3c-1.4,0.8-0.6-3.5-2.7-1c-1.6-1.2-0.5-2.6-0.4-4c1.1,0.2,0.2,2,1.3,1.8
		C450.4,514.8,449.2,513.1,450.1,512z"/>
	<path d="M429.1,298.7c-0.1,2.8-2.2,4.8-3.3,7.1c-2.2,4.4-4.5,8.7-6.6,13.2c-0.2,0.4-0.4,0.9-1.1,0.9c0.6-2.6,2.3-4.7,3.3-7
		c2.1-4.9,5.3-9.2,7.4-14.1C428.8,298.7,429,298.7,429.1,298.7C429.2,298.7,429.1,298.7,429.1,298.7z"/>
	<path d="M350.5,350.6c0.9,0.2,2.3-0.2,1.8,1.7c-0.2,0.6,0.5,1.6,1.4,1.8c0.9,0.2,0.5-1,1.2-1.6c-0.2,2.2-0.7,4-0.6,5.9
		c0.1,1.2-0.1,1.2-2.5-0.1c0.3-0.5,1.2,0.4,1.3-0.6c0-0.7-0.3-1.1-0.8-1.4c-0.2-0.1-1.9-0.1-0.1-0.6c0.1,0,0.2-0.1,0.2-0.1
		c0.5-1.5-1.8-2.3-1.5-2.5C353.3,351.7,351.2,351.4,350.5,350.6z"/>
	<path d="M480.4,636.5c-1.1,0.7-2.1,0.1-3.1-0.2c-1.4-0.3-2.6-1.1-4.2-0.6c-0.9,0.3-1.8-0.6-2-1.1c-0.3-1,0.7-1.1,1.5-1.4
		c1.6-0.4,3.1-0.6,4.8-0.2c-0.9,0.7-2,0.2-3.3,1.1C476.7,634.4,478.4,635.8,480.4,636.5C480.4,636.5,480.4,636.5,480.4,636.5z"/>
	<path d="M328.6,338.1c-2,6.4,0.5,12.2,2.7,18.2C327.4,352,326,343.3,328.6,338.1z"/>
	<path d="M480.8,355.3c-1.8-0.8-3.5-1.5-5.3-2.3c-0.5-0.2-0.9-0.7-1-1.3c-0.3-2.8-1.6-5.2-2.2-8c0.7,0.4,1.1,0.7,1.3,1.7
		c0.5,2.1,1.6,4.1,2.4,6.1c0.7,1.8,2.4,2.1,3.8,2.9c0.3,0.2,0.7,0.4,1,0.6C480.9,355.2,480.8,355.3,480.8,355.3z"/>
	<path d="M451.6,630.2c0.6-1.2,1.4-2.1,2.7-2.8c1.9-1,3.4-2.7,5-4.1c1.2-1,2.4-2,4-2.4c-1.9,1.6-3.8,3.3-5.8,4.9
		c-1.8,1.5-3.5,3-4.7,5c-0.2,0.4-0.5,0.7-1,0.6c0,0,0,0,0,0C452.1,630.4,452.1,630.4,451.6,630.2z"/>
	<path d="M423.3,321.2c2.7-5.4,5.4-10.7,8.1-16.1C429.5,310.8,427.3,316.4,423.3,321.2z"/>
	<path d="M509.9,158.6c-2.7,5.4-6.4,10.2-9.4,15.4C502.9,168.5,506.2,163.4,509.9,158.6z"/>
	<path d="M368.8,243.4c-2.7-0.6-5.9,0.3-8.2-2.6c1.4,0.2,2.6,0.6,3.6,1.3c0.4,0.3,0.7,0.6,1.1,0.2c0.5-0.4,0-0.8-0.3-1.1
		c-0.3-0.3-0.6-0.6-0.9-1c-0.2-0.2-1.1,0.1-0.5-0.7c0.4-0.4,0.7-1,1.4-0.3C366.4,240.6,367.3,242.3,368.8,243.4z"/>
	<path d="M388.9,234.3c-0.4-1-1-2-0.8-3.4c1.1,1.1,2.4-0.4,3.8,0.5c0.8,0.5-0.1-1.2,0.9-1.6c0.5,1.6,1.5,2.9,3.1,3.8
		c-1.8-0.7-3.4-1.4-5.2-1.6c-0.5,0.7,0.6,1.2,0.1,1.8c-1,0.2-0.1-1.1-1-1C389.2,233.1,389.6,234,388.9,234.3z"/>
	<path d="M410.5,306.6c-2.3,2.3-5.1,4-7.8,5.8c-1.6,1-2.8-0.3-4.1-1.4C403.6,312.1,406.7,308.7,410.5,306.6z"/>
	<path d="M363.5,324.2c-0.9-1.6-0.1-3.3-0.9-4.7c1.1,0.1,0.5,2.2,1.7,1.5c1.4-0.8-0.1-2.4,0.2-3.6c1,0.2,0.3,2,1.5,1.8
		c0.9-0.1,0.9-1.3,1.3-2.1c0.8,0.8,0.4,1.7,0.1,1.9c-1.5,0.8-1,3.1-3.1,3.4C363.4,322.3,364,323.4,363.5,324.2z"/>
	<path d="M349.3,292c-1.9,4.2,0.8,8.7-1,12.9C347.4,300.5,347.7,296.2,349.3,292z"/>
	<path d="M441.3,285.2c-0.4,2.9-2.3,5.1-3.5,7.6c-1,2.1-2.2,4.2-3.4,6.2C436,294.1,438.7,289.6,441.3,285.2
		C441.3,285.2,441.3,285.2,441.3,285.2z"/>
	<path d="M331,373c-1.6-5.4-3.4-10.8-2.9-16.6C328.5,362,329.6,367.5,331,373z"/>
	<path d="M339.8,299.6c-1.2,3.8-2.3,7.7-3.5,11.5C336.8,307,337,302.9,339.8,299.6z"/>
	<path d="M457.6,560c-2.2,3.4-5.1,6.2-8.4,8.6C451.7,565.4,454.5,562.5,457.6,560z"/>
	<path d="M551.3,318.6c-0.1,5.2,0.9,10.5-0.7,15.5C551.5,329,550.8,323.7,551.3,318.6z"/>
	<path d="M376.9,511.1c0.5,1.8,1.6,2.4,3.4,2.1c0.6-0.1,1.2-0.7,1.8,0c0.3,0.5-0.1,1.2-0.3,1.4c-0.6,0.4-1.6,0.9-2,0.7
		c-1.3-0.8-2.5-1.9-3.6-3C375.7,512,376.3,511.5,376.9,511.1z"/>
	<path d="M387,290.2c1.8,1,2,3.4,3.9,4.2c0.3,0.1,0.3,0.5,0,0.7c-0.3,0.2-0.7,0.3-1,0.3c-1.5-0.2-2.1-1.3-2.6-2.6
		C387,292,386.9,291.2,387,290.2z"/>
	<path d="M356.9,417.4c-1.6-0.5-2.8-1.4-3-3c-0.1-1.4,0.5-2.9,1.7-3.6c1-0.6,2.3,0.2,3.4,0.9c-1.4,0.7-3-1.7-3.8,0.4
		C354.5,414.1,354.9,416,356.9,417.4z"/>
	<path d="M433,110.2c3.7,4,1.7,7.7-0.3,11.5C433.8,117.9,436,114.1,433,110.2z"/>
	<path d="M435.9,338.1c2.2,1.8,4.2,1.1,6.1,1.2c2.2,0.1,4.5,0.1,6.7,0c0.8,0,1.4,0.1,1.5,1.1c-4.3-0.9-8.5-1.1-12.7-0.4
		C435.5,340.3,436.4,339.2,435.9,338.1z"/>
	<path d="M337.1,477.3c2.2-4.3,4.5-8.6,6.7-12.9C342.2,469,339.8,473.3,337.1,477.3z"/>
	<path d="M414.4,103.3c0.4,0.6,1,0.2,1.5,0.6c-1.6,0.4-2.8,1.4-4.4,1.8c2.2-1.7,3.3-4.9,7.3-5.2C416.9,101.5,415.4,102,414.4,103.3z
		"/>
	<path d="M398.8,265.2c1.8-0.8,3.4-1.5,4.9-2.2c-1.9,1.6-3.8,3-6.6,3c1.2-1.7,2.6-2.8,4.4-3.9C400.9,263.5,399.5,263.7,398.8,265.2z
		"/>
	<path d="M465.7,228.1c-1.5,4.3-4.2,7.9-6.3,11.9C461.3,235.9,463.1,231.7,465.7,228.1C465.8,228.1,465.7,228.1,465.7,228.1z"/>
	<path d="M403.5,123.4c-2.6,2.1-6.1,3.4-7.1,7.2C397.3,126.8,399.7,124.4,403.5,123.4z"/>
	<path d="M506.7,141.3c-1.7,3.6-3.5,7.3-5.2,10.9C502.7,148.4,504.3,144.7,506.7,141.3z"/>
	<path d="M488.8,524.5c1.3,0.8,1.7,1.9,0.9,3.2c-0.8,1.2,0.6,2.2,0,3.3C488.1,528.3,487.8,526.1,488.8,524.5z"/>
	<path d="M364.4,402.8c-1.9-0.2-3.4-1.7-4.4,0.4c-0.9,1.9-0.8,3.6,1.3,4.9c-2.5-0.8-3.1-2.4-2.1-4.6
		C360.2,401.1,361.2,401,364.4,402.8z"/>
	<path d="M352,449.9c-1.9,3.5-3.7,6.9-5.6,10.4C347.2,456.2,349.9,453.1,352,449.9z"/>
	<path d="M386.9,299.8c1.5,0.5,2.1,1.7,3.1,2.5c0.3,0.3,0.9,0.4,0.4,1c-0.3,0.3-0.7,0.4-1.2,0.3
		C387.2,303.1,387.4,301.3,386.9,299.8z"/>
	<path d="M466.6,236.4c1.4-3.2,2.5-6.5,4.6-9.3C469.6,230.1,469.4,233.9,466.6,236.4C466.6,236.4,466.6,236.4,466.6,236.4z"/>
	<path d="M351.6,463.3c1.7-3.4,3.4-6.9,5.1-10.3c0.2,0.1,0.3,0.1,0.5,0.2c-1.7,3.4-3.4,6.9-5.1,10.3
		C351.9,463.4,351.7,463.4,351.6,463.3z"/>
	<path d="M443.1,579.2c-0.8,2.2-2.4,3.9-4.2,5.4C440.5,583.1,439.8,579.6,443.1,579.2C443.1,579.3,443.1,579.2,443.1,579.2z"/>
	<path d="M459,250.6c0.7,0.8,0.1,1.6-0.2,2.2c-1.2,2.5-2.6,4.9-4.3,7.2C456,256.9,457.5,253.7,459,250.6
		C459,250.6,459,250.6,459,250.6z"/>
	<path d="M492.3,169.9c1.8-2.7,2.7-5.8,4.3-8.6c0.2,0.1,0.3,0.2,0.5,0.2c-1.4,2.9-2.8,5.8-4.2,8.7
		C492.7,170.2,492.5,170.1,492.3,169.9z"/>
	<path d="M434.9,110.7c-1.7-2.7,0.7-6.2-2.2-8.6C435.6,104.4,434.9,107.7,434.9,110.7z"/>
	<path d="M369.2,425.3c-2.8-1-5.2-2.9-7.8-4.2c-0.3-0.2-0.4-0.4-0.2-0.7c0.4-0.4,0.8-0.2,1.1,0.1
		C364.5,422.3,367.1,423.4,369.2,425.3C369.2,425.4,369.2,425.3,369.2,425.3z"/>
	<path d="M353.7,418.7c-0.5,1.1-2.6,1-1.7,2.8c0.5,1,1.3,1.8,1.8,2.8c-1.8-1-3.1-2.3-2.6-4.6C351.6,418.1,352.9,419.2,353.7,418.7z"
		/>
	<path d="M307.6,552.2c1.7-3.1,3.3-6.2,5-9.4C311.6,546.4,309.6,549.3,307.6,552.2z"/>
	<path d="M426.9,110.3c2.6,2,2.8,2.7,1.5,5.7C428.7,113.9,427.7,112.2,426.9,110.3z"/>
	<path d="M456.6,630.5c1.5-1.9,3.3-3.3,5.6-4.4C460.8,628.3,460.8,628.3,456.6,630.5z"/>
	<path d="M557.2,206.2c0.8,3.7,1.4,7.3,1,11.1C557.8,213.5,557.5,209.9,557.2,206.2z"/>
	<path d="M371.8,396.2c-3.4-0.9-5,0.6-4.5,3.9c-1-1.1-0.9-2.5,0.4-4.1C368.9,394.4,370.2,395.1,371.8,396.2z"/>
	<path d="M426.7,339.8c2.1-0.1,5-0.3,8-0.4c0,0.1,0,0.3,0,0.4C431.7,339.8,428.7,339.8,426.7,339.8z"/>
	<path d="M426.8,103.8c3.7,0.6,4.1,1,3.7,2.8C429.3,105.6,428.1,104.7,426.8,103.8z"/>
	<path d="M495.7,182.9c-1.3,2.2-2.6,4.4-4,6.6c0.5-2.7,2.3-4.6,3.5-6.8C495.4,182.7,495.5,182.8,495.7,182.9z"/>
	<path d="M335.4,371.2c2,1.4,1.5,3.6-1,6.2C334.2,375.2,337.1,373.9,335.4,371.2z"/>
	<path d="M370.6,241.4c-2.8,0-3.6-1.7-5.3-3.1C368,238.3,368.5,240.5,370.6,241.4z"/>
	<path d="M328.5,510.4c1.2-2.5,2.4-5,3.6-7.5c0.1,0.1,0.3,0.1,0.4,0.2c-1.2,2.5-2.3,5-3.5,7.5C328.8,510.5,328.7,510.5,328.5,510.4z
		"/>
	<path d="M412,331.8c1.3-2.2,2.5-4.5,3.8-6.7c-0.4,2.7-2.1,4.7-3.2,6.9C412.3,332,412.1,331.9,412,331.8z"/>
	<path d="M332.6,324.2c0.5-1.6,1.1-3.2,1.7-5.1c0.6,3.4,0.6,3.4-1.5,5.2C332.8,324.4,332.7,324.2,332.6,324.2z"/>
	<path d="M386.2,235.4c-1.1-1.6-1.9-3.2-0.9-5.2C387.1,231.7,384.8,233.9,386.2,235.4z"/>
	<path d="M383,236.4c-0.8-0.5-2-0.6-2.3-1.9c-0.1-0.5-0.8-0.9,0-1.3c0.5-0.2,1.1-0.1,1.4,0.6C382.3,234.7,382.7,235.5,383,236.4z"/>
	<path d="M395.5,253c0.9-2.2,2.9-2.7,4.9-3.3C398.8,250.8,397.2,251.9,395.5,253z"/>
	<path d="M455.3,248.4c-0.9,2.1-1.8,4.3-3.6,6C452.8,252.3,454.2,250.4,455.3,248.4z"/>
	<path d="M431.6,115.9c-1.3-1.4-0.9-3.2-2-4.6C431.9,112.3,431.7,114,431.6,115.9z"/>
	<path d="M373.5,490.4c1,1.8,1.7,3.7,2.1,6.1C373.5,494.7,374.5,492.3,373.5,490.4z"/>
	<path d="M380.5,391.6c-1-1.9-1.8-3.2-3.3-4.2c0.7-0.2,1.2-0.3,1.7-0.5C378.8,388.5,381.1,389.2,380.5,391.6z"/>
	<path d="M379.3,234.9c-1.1-1.1-2.4-1.9-1.8-3.8C378.4,232.2,379.9,232.8,379.3,234.9z"/>
	<path d="M472.7,214.2c-0.5,2.5-2,4.6-3.2,6.8C470.5,218.7,471.1,216.2,472.7,214.2L472.7,214.2z"/>
	<path d="M440.9,586.3c-1.3,1.7-2.6,3.3-4,5C437.5,589,439,587.5,440.9,586.3C440.9,586.2,440.9,586.3,440.9,586.3z"/>
	<path d="M408,263.6c-1.2,1.7-2.9,3-4.7,3.9C404.5,265.8,406.1,264.6,408,263.6z"/>
	<path d="M474.7,625.4c0,2.3-1.5,2.8-3.3,3.4C472.2,627.1,473.5,626.4,474.7,625.4z"/>
	<path d="M413.6,268.3c-1.5,1.3-2.9,2.5-4.4,3.8C410.2,270.3,411.6,269,413.6,268.3z"/>
	<path d="M321.5,525.2c-1,2.1-2,4.2-3,6.3c-0.1-0.1-0.3-0.1-0.4-0.2c1-2.1,2.1-4.2,3.1-6.2C321.3,525.1,321.4,525.2,321.5,525.2z"/>
	<path d="M446.1,633.9c-0.3,1.8-1.6,2.9-3.1,4.2C443.4,635.9,445.3,635.3,446.1,633.9z"/>
	<path d="M503.3,374.9c2,0.6,4,1.3,6.1,1.9c0,0.1-0.1,0.2-0.1,0.4c-2-0.6-4.1-1.2-6.1-1.8C503.3,375.2,503.3,375,503.3,374.9z"/>
	<path d="M500,363.6c-2-0.7-3.9-1.5-5.9-2.2c0-0.1,0.1-0.2,0.1-0.3c2,0.7,4,1.4,5.9,2.1C500.1,363.4,500.1,363.5,500,363.6z"/>
	<path d="M360.5,319.5c0.5,1.7,0.8,3.5,0.5,5.6C360.1,323.1,360.3,321.3,360.5,319.5z"/>
	<path d="M358.8,325.3c-0.8-1.6-0.9-3.2-0.9-5.4C358.7,322,358.7,323.7,358.8,325.3z"/>
	<path d="M472.7,214.2c0.1-1.8-1.3-0.7-1.9-1.1c0.8-1,2.8-0.1,3.3-2C473.7,212.3,473.4,213.3,472.7,214.2
		C472.7,214.2,472.7,214.2,472.7,214.2z"/>
	<path d="M388.7,685.3c-4.9,0.6-9.8-0.2-14.8,0.3c3.1-3.6,7.9-4.9,11.4-3.3c-0.5,0.8-1.6-0.1-2.2,0.9
		C384.9,684.2,387,684,388.7,685.3z"/>
	<path d="M370.9,689.1c4.1-4.3,8.8-2.3,13.6-2.1c-2.3,1.3-4.6,0.3-6.8,1.1c0.6,1.3,1.9,0.5,2.7,1.1
		C377.3,690.3,374.2,690,370.9,689.1z"/>
	<path d="M394.5,672c2.2-0.1,4.4-0.2,6.6-0.4c1.5-0.1,1.1,1.6,2.4,1.9c1.6,0.4,3.1,1.5,4.2,2.9c0.3,0.3,0.6,0.7,0.1,1.1
		c-0.3,0.2-0.5,0-0.7-0.2c-3.6-2.9-7.5-4.9-12.3-4.8c-0.1,0-0.2-0.1-0.4-0.2C394.5,672.3,394.5,672.1,394.5,672z"/>
	<path d="M392.5,652.7c3.2-1.6,4.9-1.6,6.2-0.2c0.3,0.3,0.5,0.6,0.4,0.9c-0.1,0.2-0.5,0.3-0.7,0.3
		C396.6,653,394.5,653.7,392.5,652.7z"/>
	<path d="M400.1,627.9c-2.4-2.6-4.8-5.1-7.2-7.7c-0.3-0.3-0.4-0.6-0.1-0.9c0.4-0.5,0.6,0,0.8,0.2
		C395.9,622.2,398.6,624.5,400.1,627.9z"/>
	<path d="M399.3,677.2c2.2-1.2,4.2-0.3,6.3-0.1c0.3,0,0.7,0.3,0.5,0.8c-0.2,0.4-0.6,0.6-1.1,0.5C403.1,678,401.2,677.6,399.3,677.2z
		"/>
	<path d="M396.2,686.1c2.3-1,4.8-0.8,7.4-1.5C401.7,686.1,399.6,686.5,396.2,686.1z"/>
	<path d="M406,682.3c-2.5-0.4-4.6-0.8-6.9-1.2C401.7,680.1,404.5,680.5,406,682.3z"/>
	<path d="M392.5,688.9c-3.2,1.9-6.4,1.5-9.7,0.9C386.1,689.4,389.4,689.9,392.5,688.9z"/>
	<path d="M398.5,683.1c2.3-0.3,4.5-1,7.3,0.3C403,684.1,400.7,683.1,398.5,683.1z"/>
	<path d="M409.4,187.1c-1-0.9-1.9-1.8-3-2.8c-0.2,0.7-0.1,1.5,0.4,2.1c0.8,1.1,2.6,1.9,1,3.7c-0.1,0.1,0.1,0.6,0.3,0.8
		c2,1.4,0.7,3.7,1.5,5.5c-0.9-1.7-3-2.2-3-4.9c0-1.7,0.4-4.1-1.2-5.7c-0.4-0.4-0.7-0.9-1.1-1.6c0.6-0.1,1.8,0.7,1.4-0.8
		c-0.1-0.5-0.1-1.1-0.4-1.4c-1.6-1.5,0.6-3.7-0.9-5.2c2.2-1.2,0.3-2.4,0.1-3.7c0-0.1-0.1-0.4,0-0.4c3-0.9,0-2.8,0.7-4.3
		c1,1.9,2,3.6,3,5.5c-0.8,0.1-1.3-1.4-2-0.4c-0.4,0.5,0.5,1.2,0.5,1.3c-0.2,2.1,2.3,3.2,1.8,5.3c-1.7-0.1-0.3-2.8-2.3-2.8
		c-0.2,0.9,0.4,1.6,0.5,2.4c0,0.3,0.6,0.8,0.2,0.9c-2.4,0.9-0.4,1.9,0.1,2.4C408.1,184,408.2,185.8,409.4,187.1z"/>
	<path d="M434.7,141c0.6,2.2,1.4,3.9,1.3,5.9c-1.7-0.6-1.1-2.1-1.4-3.6c-1.3,1.7-2.5,3.1-3.4,4.8c0-1.6-0.8-2.7-1.3-4
		c-1.1,1.4,1,3.6-1.3,4.4c0.4-1.8-0.5-3.3-1.2-4.8c-0.2-0.4-0.9-0.4-0.5-1.1c0.3-0.6,0.7-0.7,1.4-0.7c1.3,0.1,2.7-0.6,3.8,0.8
		c0.2,0.2,0.6-0.1,0.5-0.4c-0.8-1.6,0.3-0.6,0.6-0.4c0.4,0.2,0.2,1.1,1,0.9C434.8,142.6,434,141.8,434.7,141z"/>
	<path d="M439,148.7c-1.5-1.8-1.5-4-2.6-5.7c-0.1-0.1,0.1-0.4,0.2-0.6c0.2-0.4,0.4-0.2,0.6,0.1c0.4,0.6,0.8,1.2,1.3,1.9
		c0.7-0.8,0.1-1.8,0.5-2.6c0.7,0.3,0.8,1,1,1.6c0.1,0.4,0.2,0.8,0.6,0.7c0.6-0.1,0-0.8,0.6-1.2c1.1,2.5,3,4.7,2.8,7.6
		c-1.8-0.5-2.6-1.8-2.7-3.6c0-0.4,0.2-1.2-0.5-1.3c-0.5,0-0.8,0.5-0.9,1C439.7,147.5,438.7,147.8,439,148.7z"/>
	<path d="M421.6,143.5c2.3,1.5,2,3.7,2.7,5.5c-0.7,0.2-0.9-1-1.6-0.4c-0.9,0.8,0.6,1.3,0.4,2.1c-0.6,0.3-1.1-1.5-1.8,0
		c-0.2,0.4-1.5-0.9-1.4-1c0.6-1.2-0.4-2-0.7-2.8c-0.5-1.3,1.6-1.8,0.4-3c2.1,0.5,1,2.5,2.1,3.3c0.3,0.2,0.3,1.1,1,0.6
		c0.6-0.4,0.2-0.8,0-1.3C422.2,145.7,422,144.8,421.6,143.5z"/>
	<path d="M414.9,154.2c0.5-1,0-1.8-0.5-2.6c-0.7-1.2-0.9-2.3,1-2.8c0.1,1.6,1.5,2.6,1.5,4.2c0,0.4,0.7,0.8,0.1,1.3
		c-0.5,0.4-0.9,0.6-1.4-0.1C415.5,154.1,415.1,154.1,414.9,154.2L414.9,154.2z"/>
	<path d="M424.5,141.8c0.2,0.1,0.7,0.2,0.7,0.3c-0.1,1.7,1.5,2.5,1.9,3.8c0.1,0.4,1.1,1.2-0.1,1.4c-0.5,0.1-1.4,1.3-1.8-0.7
		c-0.2-1.2-0.4-2.9-1.6-4C423.1,142.2,424,142,424.5,141.8z"/>
	<path d="M411.7,169.2c-3-2.9-4.2-5.9-4.3-9.5C408.4,162.8,410.7,165.4,411.7,169.2z"/>
	<path d="M447.7,147.3c0.8,2.4,3.2,4.5,1.6,7.4c-0.9-0.9,0-2.3-1.2-3c-0.6,0.4,0,1.1-0.3,1.7C447.3,151.4,448.8,149.3,447.7,147.3z"
		/>
	<path d="M419.8,153c-1.9-2.1-4.2-4.1-2.4-7.5C418.2,148,418.8,150.6,419.8,153z"/>
	<path d="M451.4,148.1c0,3.1,0,6.3,0,9.4c-0.6-3.1-1.1-6.3-0.7-9.4C451,148.1,451.2,148.1,451.4,148.1z"/>
	<path d="M414.8,154.1c-0.8,0.7,1,1.6-0.4,2.6c-0.7,0.5-0.9,0.1-1-0.1c-0.5-1.1-1.1-2.2-1.2-3.3c-0.1-0.9,0.9-0.2,1.4-0.3
		C413.8,153.6,414.4,153.9,414.8,154.1C414.9,154.2,414.8,154.1,414.8,154.1z"/>
	<path d="M409.7,158.3c0.7,1.5,1.3,3,2,4.5c0.2,0.5,0.3,1.1-0.2,1.3c-1,0.5-0.7-0.6-0.9-1C409.6,161.7,409.3,160,409.7,158.3z"/>
	<path d="M445.8,151.7c-1-2.1-0.7-3.8-1.2-5.4c-0.2-0.6,0-1,0.6-1.1c0.8-0.1,0.4,0.5,0.5,0.9c0.4,1.4-0.2,2.9,0.7,4.2
		C446.7,150.7,445.4,150.6,445.8,151.7z"/>
	<path d="M406.5,163.9c1.3,1.8,0.7,4,2.5,5.2c0,0-0.2,0.8-0.4,0.9c-0.8,0.5-0.4-0.4-0.6-0.6C406.8,168,406.4,166.2,406.5,163.9z"/>
	<path d="M443.7,199.7c-1.9,1.5-4.1,1.2-6.2,1.4c-0.3,0-0.8,0.1-0.9-0.4c-0.1-0.4,0.2-0.7,0.5-0.8
		C439.3,198.9,441.5,199.3,443.7,199.7z"/>
	<path d="M423.1,186.8c0.1,0.7-1.7,0.8-0.4,1.9c0.6,0.5-0.3,0.7-0.7,0.9c-0.7,0.3-1.1,0.2-1.1-0.7c0-1.3-0.4-2.4-1.1-3.7
		C420.9,185.7,421.9,186.3,423.1,186.8z"/>
	<path d="M447.8,196.8c0,0.6-0.3,0.9-0.8,0.8c-1.2-0.3-1.8-1.4-2.6-2.2c0.4-0.3,0.2-1,0.8-1.1C446,194.3,447.8,196.1,447.8,196.8z"
		/>
	<path d="M439,192.5c-1.7-0.8-3.5-1.4-4.9-2.8C435.9,189.4,436.8,189.9,439,192.5z"/>
	<path d="M444.1,188.1c0.4,0.8,0.3,1.9,0.2,1.9c-1.7,0.2-2.2,2.1-3.6,2.6c-0.1,0-0.4-0.1-0.5-0.3c-0.2-0.3,0.1-0.5,0.3-0.6
		C442.1,191,442.8,189.4,444.1,188.1z"/>
	<path d="M427.7,222.3c1,0.1,1.7,0.1,1.6,1.3c-0.1,0.9,0.5,1.8,1.3,2.6c0.6,0.5,0.7,1.7,0,2.2c-0.7,0.5-0.9-0.6-1.4-0.9
		C427.2,226.3,428.5,224.1,427.7,222.3z"/>
</g>
</svg>
