<?xml version="1.0" encoding="utf-8"?>
<!-- Generator: Adobe Illustrator 26.0.2, SVG Export Plug-In . SVG Version: 6.00 Build 0)  -->
<svg version="1.2" baseProfile="tiny" id="Layer_1" xmlns="http://www.w3.org/2000/svg" xmlns:xlink="http://www.w3.org/1999/xlink"
	 x="0px" y="0px" viewBox="0 0 800 800" overflow="visible" xml:space="preserve">
<g>
	<path d="M689,302.7c0.6,0.7-1.4,2.2,0.7,2.5c0,0.1,0,0.3-0.1,0.4c-2.2,5.5-3.1,11.4-4.9,17.1c-1,3.3-1.9,6.6-2.7,10
		c-0.7,3.1-0.9,6.2-1.6,9.2c-0.9,3.6,0.1,7.2,0.5,10.7c0.7,7.1,3.4,13.7,4.1,20.8c0.1,0.5,0.3,1.4,0.7,2.1c0.4,0.7,0.3,1.6,0,2.3
		c-2.3,4.1-2.7,8.6-3.8,13c-0.8,3.5-2.4,6.7-3.1,10.3c-0.5,2.7-1.1,5.4-1.5,8.1c-0.2,1.2-1.1,2.2-1.7,3.3c-0.1,0.1-0.4,0.3-0.5,0.2
		c-2.5-1.8-4.3,0.7-6.3,1.3c-5.7,1.9-10.5,5.4-15,9.4c-1.4,1.2-2.2,2.9-2.9,4.5c-2.5,5.3-4.7,10.8-8.1,15.7
		c-2.6,3.8-5.9,6.5-9.9,8.6c-2.2,1.2-4.6,1.9-6.9,3c-1,0.5-1.2,0.9-0.5,1.7c2.9,3.2,5.4,6.9,9.2,9c2.2,1.2,3.5,3.7,6.3,3.8
		c2.5,0.1,4.9,0.9,7.4,1.5c2,0.5,3.9,1.3,5.8,2.1c1.6,0.7,1.6,2.3,1.4,3.7c-0.4,3.2-0.4,4.2,2.5,5.2c4.7,1.7,4.8,3.5,3.9,8.5
		c-0.5,2.8,0.1,5.7-0.2,8.5c0,0.4,0.1,1,0.4,1.3c1.9,2.1,3.6,4.3,5.8,5.9c3.1,2.2,4.3,5.2,3.1,8.9c0,0.1,0,0.1-0.1,0.2
		c-2.7,4.6-0.3,8.1,2.4,11.6c1.2,1.5,2.2,3.1,3,4.7c0.7,1.4,1.6,2.4,2.9,3.2c1.7,1,2.4,2.6,1.6,4.3c-1.6,3.6-0.2,6.3,2,8.9
		c1.7,2,1.8,4.4-1.1,6.1c-3.2,1.9-6.7,2.8-10.1,4.3c-4.7,2-9.6,3.7-14.1,6.2c-5.1,2.7-9.7,6.1-14.2,9.5c-3.4,2.6-5.6,6.2-7.8,9.7
		c-1.2,2-2.4,3.9-2.2,6.4c0.1,1.5-1.2,2.1-2.7,1.8c-3.9-0.6-7.8-1.6-11.8-2c-2.8-0.2-5.7-0.4-8.5,0.2c-1.4,0.3-2.8,0.4-4.2,0.3
		c-0.9-0.1-1.7,0.1-2.6,0.4c-2.8,1-3.7,3.1-3.5,5.7c0.2,1.9-0.7,1.8-1.9,1.3c-2.1-0.9-4.2-1.7-6.1-3c-4.5-3-9.6-4.9-14-8.2
		c-6.9-5.3-13.8-10.6-20.3-16.4c-4.5-3.9-8.8-8-12.9-12.3c-5-5.2-9.7-10.8-14.9-15.8c-2.3-2.2-4.7-4.4-6.5-7.1
		c-0.2-0.3-0.5-0.7-0.9-0.6c-0.6,0.1-0.5,0.7-0.5,1.1c0.1,2.1-0.1,4.3,0.5,6.3c1,3.5,0.9,7.1,1.4,10.7c0.7,5.3,1,10.6,0.8,16
		c-0.2,5.1-0.3,10.2-0.8,15.2c-0.4,4-1.6,7.9-2.4,11.8c-0.8,4.1-1.2,8.4-1.8,12.6c-0.8,5,0.8,10,0.4,15c-0.5,5.5,0.3,11-0.8,16.4
		c-0.7,3.4-1.7,6.8-2.6,10.2c-1.6,6.2-3.6,12.1-5.9,18c-1.6,4.1-3.8,8-7.4,10.7c-3.1,2.4-6.4,4.5-9.9,6.3
		c-6.9,3.6-14.3,3.5-21.7,3.7c-5,0.1-9.9,0.1-14.9-0.6c-6.6-0.9-13.1-1.4-19.7-2.5c-7.1-1.2-13.3-4.3-19.6-7.3
		c-1.3-0.6-2.2-1.8-3.3-2.7c-4.7-3.8-8.9-8-12.5-12.9c-3.5-4.7-7.5-9-11-13.7c-6.9-9.2-14.1-18.3-19.4-28.5
		c-1.9-3.7-4.3-7.2-6.5-10.7c-2.8-4.4-4.6-9.4-7.3-13.8c-4.3-6.9-7.3-14.4-11.8-21.1c-0.1-0.1-0.2-0.2-0.2-0.3
		c-0.6-0.8-0.2-2.4-1.5-2.4c-0.8,0-1.6,1-2.2,1.8c-3.7,4.1-8.1,7.6-12.6,10.8c-5.7,4.1-11.3,8.5-17.3,12.3c-2.3,1.5-4.4,3.2-6.5,4.9
		c-3.8,2.9-7.6,5.8-11.3,8.7c-1.8,1.4-2.8,3.5-4.1,5.4c-3.4,4.8-6.8,9.6-9,15c-1.8,4.4-4.4,8.5-5.7,13c-1.7,6.1-3.4,12.3-2.8,18.7
		c0.2,2.7,1,5.5,1.5,8.2c1.1,5.7,1.4,11.5-1.7,16.8c-0.4,0.7-0.8,1.4-1.3,2.2c-0.4-0.7-0.2-1.2,0.1-1.7c2.7-4.2,3-8.8,2.4-13.6
		c-0.6-4.9-1.2-9.9-2.9-14.6c-0.5-1.4-0.5-3-0.1-4.4c1.3-4.5,1.4-9.3,3.5-13.6c0.5-1,1-1.9,1.6-2.8c1.8-2.9,2.9-6.1,4.1-9.3
		c1.5-4,4-7.4,6.1-11c0.5-0.9,1.2-1.7,1.3-2.9c-1.1,0.1-1.6,0.9-2.3,1.4c-6.5,4.2-13.2,7.9-19.9,11.8c-5.5,3.3-10.7,7-16.1,10.3
		c-2.6,1.6-5.1,3.3-7.4,5.1c-3.5,2.8-5.6,6.8-7.6,10.6c-4.2,7.8-10.4,13.4-17.4,18.6c-5,3.7-9.6,8-13.9,12.5
		c-2.3,2.4-4.7,4.8-7.1,7.1c-2.2,2-5.4,1.1-6.6-1.6c-0.4-0.8-0.2-1.4,0.3-1.9c1.7-2,3-4.3,4.3-6.7c1.2-2.3,3.5-3.5,5.2-5.4
		c1.1-1.3,2.5-2.3,3.2-4c-8.7,2.9-15.7,8.5-23,13.7c0.3-1.6,2.1-3.4,4.6-5.2c5.3-3.9,11.2-6.9,16.8-10.3c0.5-0.3,1.2-0.7,1.8-0.6
		c2.5,0.3,3.3-2.2,5.1-3.1c0.7-0.4,0.7-2.1,1.6-2.9c0.3-0.2,0.5-0.7,0.9-0.2c0.3,0.3,0.1,0.5-0.1,0.8c-3.4,4.6-6.1,9.8-10.4,13.8
		c-1.9,1.7-3.8,3.3-4.9,5.7c-0.2,0.5-0.7,0.8,0.1,1.4c1.4,0.9,1.3,2.2,0.1,3.3c0-0.8,0.3-1.5,0.1-2.3c-0.2-0.6-0.4-1-1.1-0.7
		c-1.2,0.4-1.2,1.5-1.6,2.4c-0.3,0.6,0.2,1,0.6,1.2c1,0.7,1.4-0.4,2.1-0.8c-0.1,0.2-0.2,0.5-0.3,0.7c-0.2,0.6-1.5,0.8-0.8,1.4
		c0.6,0.6,1.4-0.3,1.9-0.8c5.3-5.5,10.8-10.8,16.5-15.8c2.8-2.5,6.1-4.5,8.9-7c4.8-4.3,9.3-8.8,12.3-14.7c2.2-4.4,5-8.6,8.9-11.8
		c3.2-2.7,6.9-4.9,10.3-7.5c5-3.7,10.4-6.6,15.7-9.9c2.9-1.8,5.5-4.1,8.6-5.4c3-1.3,5.9-2.8,8.6-4.7c6.2-4.4,12.1-9,18-13.7
		c3.6-2.9,7.6-5.2,11.4-7.9c5.5-4,11.3-7.6,16.2-12.4c3.6-3.4,8-6,11.6-9.6c6.8-7,14.3-13.3,21-20.4c6.1-6.6,12.4-13,17.7-20.2
		c5.3-7.1,11.3-13.7,15.8-21.4c3.2-5.4,6.9-10.4,10.5-15.4c3.6-5.1,7.4-10.1,10.9-15.2c2.3-3.4,5.7-5.8,8.3-9
		c0.7-0.9,1.6-1.6,2.6-2.5c-0.4,1.3-1.3,2-2,2.9c-0.2,0.3-0.6,0.6-0.2,1c0.4,0.4,0.7,0,1-0.2c0.8-0.7,1.6-1.5,2.8-2.5
		c-0.9,2.1-2.1,3.4-3.3,4.6c-0.4,0.5-1.2,1.1-0.8,1.5c0.8,0.7,0.9-0.4,1.3-0.8c1.7-1.6,3.4-3.3,5.2-4.8c-1,2.5-3.5,3.9-4.9,6.8
		c2.8-1.1,4-3.4,6.1-4.8c-1.1,2.7-3.4,4.4-5.1,6.5c-0.6,0.8-1.9,0.6-2.9,0.1c-3.1-1.5-4.2-1-6.4,1.9c-6,7.9-12.2,15.6-17.6,23.9
		c-5.6,8.8-11.5,17.4-17.8,25.6c-4.1,5.3-7.8,10.9-12.3,15.8c-3,3.3-6.1,6.5-9.5,9.4c-3.5,3-6.4,6.6-9.9,9.5c-2.1,1.8-4,3.8-6,5.7
		c-0.9,0.8-1,1.4-0.4,2.5c3.9,7.4,7.9,14.7,11.5,22.2c2.7,5.5,6.1,10.6,8.9,16c3.7,7.2,8.2,14,12.2,21c3.1,5.4,7.4,10,11.1,15
		c3.2,4.4,6.6,8.5,9.9,12.7c1.5,1.9,3.7,3.4,5.1,5.5c3.3,4.8,7.4,8.9,11.8,12.6c1.5,1.3,3.5,2.1,5.3,3c4.6,2.3,9.3,4.3,14.6,4.9
		c6.5,0.8,13,1.9,19.5,2.5c4.5,0.4,8.9,1,13.5,0.6c3-0.3,6.2,0,9.3,0c6.5-0.1,12.1-2.8,17.6-5.8c9-5,13.1-13.2,15.8-22.6
		c1.5-5.1,3.2-10.2,4.1-15.5c0.9-5,1.8-10,1.6-15.1c-0.1-2.3,0.2-4.6,0.4-6.9c0.3-2.9-0.3-5.6-1-8.3c-0.7-2.6-2.2-4.3-4.3-5.7
		c2.3,0.3,3.4,2,4.9,3.8c0.5-2.3,0.9-4.3-0.7-6c-0.4-0.4-0.2-0.8-0.1-1.3c1.8-5.6,2.6-11.5,4.1-17.2c1.4-5.2,1.7-10.5,1.9-15.9
		c0-1.1,0.2-2.3-0.5-3.4c-0.6-0.9,0.6-1.5,0.5-2.5c-0.5-4.4-0.8-8.9-1.5-13.3c-0.1-0.4,0-0.9-0.5-0.9c-0.6,0-0.4,0.5-0.4,0.9
		c-0.6,4.5-1.2,9-2.3,13.5c-0.5,2-0.8,4-1.8,6c-0.2-1,0.3-1.7,0.4-2.6c1.5-8.2,3.4-16.4,3.7-24.8c0.2-4.6-0.1-9.2-0.8-13.8
		c-0.9-5.7-1.4-11.4-2.6-17c-1.5-7-3.1-14.1-5.4-20.9c-1.1-3.2-1.8-6.5-2.4-9.9c-0.6-3.4-1.7-6.7-3.3-9.8c-1.6-3.1-2.7-6.5-4.4-9.6
		c-1.8-3.3-2.9-7-5-10.2c-1-1.6-1.3-3.5-1.9-5.2c-0.9-2.9-2.6-5.3-4.1-7.8c-1.3-2.1-2.7-4.2-4.2-6.2c-2.3-2.9-3.5-6.5-5.9-9.3
		c-4.7-5.4-9.1-11-14.5-15.7c-2.9-2.5-5.5-5.4-8.3-8c-2.4-2.2-5.4-3.7-8.1-5.5c-1.7-1.1-3.4-2.4-5.3-3.1c-0.8-0.3-1.5-0.8-2.4-0.3
		c-1.1,0.6-1.3-0.7-2-1.1c-1.9-1-4.1-1.2-6.1-2.1c-0.8-0.3-1.7-0.7-2.5-1.2c2.2,0.7,4.5,0,6.7,0.4c0.8,0.1,1.9,0.4,1.9-0.9
		c0-1.1,0.5-2.5-1.2-3.1c-2.2-0.8-4.4-1.8-7.2-2.5c2.2-0.7,3.8-0.2,5.4,0.2c0.4,0.1,0.9,0.4,1.2-0.1c0.2-0.5-0.1-0.9-0.5-1.2
		c-0.8-0.7-1.8-1.2-2.3-2.3c1.1-0.4,1.6,0.4,2.3,0.8c1,0.5,1.5,0.3,1.6-0.9c0-2.2,0.5-4.5,0-6.7c-0.5-2.1-0.3-4.3,0-6.5
		c0.4-3.3-0.6-6.5-0.5-9.8c0.1-3.7-0.1-7.4,0.7-11c0.3-1.2-0.2-2.3-0.1-3.4c0.1-0.8-0.5-2.1,0.4-2.2c1,0,0.5,1.3,0.5,2
		c0.1,3.6,0,7.2,0.1,10.8c0.1,4.2,0.3,8.5,0.4,12.7c0.1,4.7,0.3,9.4,0.4,14.1c0,2.9,0.5,5.8,0.9,8.6c0.4,2.7,1.9,4.5,4.6,5.8
		c5.1,2.7,9.9,6,14.6,9.3c0.3,0.2,0.6,0.8,1.1,0.5c0.6-0.3,0.3-0.9,0.3-1.4c-0.3-13.9,0.7-27.9,0.7-41.8c0-0.1,0.1-0.2,0.1-0.4
		c0.5,0.1,0.6,0.5,0.5,0.9c-0.6,4.1-0.1,8.2-0.3,12.3c-0.2,6.1,0,12.1-0.2,18.2c-0.1,3.4,0.4,6.9,0.4,10.3c0,3.3,1.1,5.1,3.5,6.9
		c1.7,1.2,3,3,4.5,4.5c0.9,1,1.5,1.2,2-0.4c1.2-3.9,2.2-7.9,3.6-11.8c1.1-3,2.5-5.8,3.8-8.7c0.5,0.6,0.4,1.3,0.3,2
		c0.8,0.5,1.1-0.7,1.9-0.4c-1.8,7.5-2.2,15.1-2.9,22.7c-0.1,0.6,0,1.3,0.1,1.9c0.1,0.6-0.4,1.5,0.4,1.7c0.7,0.1,1.5-0.5,1.8-1.2
		c0.6-1.2,1.1-2.6,2.3-3.3c2.6-1.6,3.3-5,5.8-6.6c1.1-0.7,2.4-2.1,2.5-2.6c0.1-2.1,1.8-2.8,2.8-4.1c3.1-3.8,5.7-7.9,9.1-11.4
		c1-1,1.6-2.5,3.2-3.4c-0.6,2.5-2.3,4.1-3.5,5.9c-2,3-3.7,6.2-5.3,9.4c-0.6,1.3-1.4,2.6-2.2,3.8c-2.4,3.7-3.1,8-5.2,11.8
		c-2.2,4-4,8.1-5.9,12.1c-0.3,0.6-0.4,0.8,0,1.3c0.5,0.7,0.9,1.4,1.3,2.1c1.2,2.1,2.7,3.3,5.5,3.3c5.6,0,11.2-0.7,16.7-1.8
		c3.8-0.7,7.6-0.7,11.3-2c-2.2,1.5-4.9,1.7-7.3,2.8c-4.5,1.9-9,3.9-12.7,7.1c-1.2,1.1-2.5,2-3.9,2.8c-1,0.6-1.6,1.5-0.9,2.7
		c1.5,2.8,3,5.6,4.5,8.3c0.4,0.7,0.7,1.3,1.7,1.1c5.5-0.9,11-1.2,16.4-2.7c2.1-0.6,4-1.5,5.9-2.3c4.3-1.7,8.7-2.6,13.3-3.4
		c8.5-1.5,17.1-2.5,25.5-4.4c2-0.4,4.1-0.6,6.1-0.6c3.8,0,6.3-2.5,9.1-4.5c1.1-0.8,0.9-1.7-0.3-2.4c-4.3-2.6-8.4-5.4-13.3-7
		c-4.5-1.5-8.8-3.2-13.5-3.7c-3.9-0.5-7.9-0.2-12,0.2c1.4-0.7,2.7-1.3,4.1-2c4-2,8.5-1.6,12.6-2.8c7.6-2.1,15.2-4.1,21.9-8.5
		c1.6-1.1,3.4-1.8,5.1-2.7c3.4-1.7,6.2-4.1,8.8-6.8c2.6-2.7,4.3-6.2,5.8-9.6c2.6-6.1,5.8-11.9,7.6-18.3c0.6-2.2,1.3-4.5,1.8-6.7
		c0.5-2.4-1.6-5.2-4.3-5.1c-5.6,0.3-11.2-0.3-16.6,1.8c-0.1,0.1-0.4,0-0.7-0.1c1-1,2.6-0.7,3.6-2.1c-1.3,0.1-2.3,1.1-3.4,0.6
		l0.1,0.1c4.1-2.9,8.7-4.9,13.2-7.8c-0.3,1.8-2.2,1.8-2.8,3c-0.5,0.9-2.4,0.2-3.2,1.6c1.4,0.6,2.7-0.5,4.1,0.1
		c0.7,0.3,0.3-0.8,0.6-1.4c0.1,1.4,0.7,1.5,1.9,1.6c1.5,0.2,3.1,0.6,4.6,1.1c3.2,1.2,4.3,3.4,3.7,6.9c-1,5.8-3.2,11.2-5.7,16.5
		c-2.2,4.5-4.1,9.1-6.1,13.7c-0.8,1.8-2.1,3.3-3.4,4.6c-4.1,4.1-9,6.9-14.1,9.7c-5.3,2.9-10.7,5.3-16.4,7c-3,0.9-5.9,2.1-9.1,2.6
		c-0.4,0.1-0.9,0.3-1.3,0.4c-0.4,0.1-0.8,0.3-0.7,0.8c0.1,0.3,0.4,0.4,0.8,0.5c1.3,0.2,2.5,0.7,3.8,0.7c4.7,0.2,8.7,2.5,12.9,4.2
		c2,0.8,4.1,1.5,5.9,2.6c2.1,1.3,4.3,2.9,5.8,5c0.7,1-0.6,2.8,0.9,3.8c-0.4,0.5-0.9,0.6-1.5,0.4c-1.2-0.4-2.3,0.1-3.8,1.1
		c3.1,0.1,5.6-0.3,8.1-0.6c3-0.4,6-0.8,9.2-0.4c3,0.3,6,0.4,9,0.3c2.1-0.1,4.3,0.7,6.3,0.3c2.1-0.5,2.8,0.9,3.6,2.1
		c2.3,3.5,5.7,5.9,8.5,8.9c0.9,1,2.1,0.4,3.1,0.1c4-1.2,7.8-2.8,11.1-5.3c4.7-3.5,7.9-8.1,9.9-13.5c0.4-1.2,1-2.4,1.4-3.6
		c1.3-3.6,1.7-7.3,0.8-11.1c-0.4-1.7-2.2-1.6-2.8-2.9l0,0c3.1,0.9,3.9,2,3.9,5c0,1.4,0,2.8,0,4.3c0.9-0.5,1.5-1.3,2-2
		c4.2-5.8,9.9-9.5,16.6-11.9c1.1-0.4,2.2-1,3.3-1.6c0.4-0.2,0.9-0.4,0.9-0.9c-0.1-0.6-0.8-0.6-1.3-0.6c-2.2-0.2-4.5-0.5-6.7-0.4
		c-5.1,0.3-10.3,0.1-15.4,1c-0.7,0.1-1.4-0.5-2.2-0.2c0.7-1,1.6-0.5,2.4-0.6c6.5-1,13.1-1.4,19.6-1.7c1.6-0.1,3.2,0.2,4.8,0.4
		c0.9,0.1,1.5,0,1.8-1c1.3-5.6,3.9-10.7,5.3-16.2c1-4,2.4-8,3.3-12c0.6-2.6-0.1-5.4-0.8-8c-1.1-4.1-2.3-8.2-3.3-12.4
		c-1.9-8.9-1.4-17.6,0.9-26.3c1.2-4.5,2.4-9,3.8-13.5c0.9-3.1,2.2-6.1,2.5-9.5C687,307.3,687.7,304.8,689,302.7L689,302.7z
		 M605.7,465.7c2.9-0.5,6.3,0.9,9.6,0.2c4.2-0.9,8.5-0.1,12.7-0.7c1-0.1,2.3,1.1,2.8,0.1c0.5-0.9-1.2-1.2-1.7-2
		c-2.3-3.3-5.2-6.1-8.1-8.8c-2.8-2.7-5.8-5.1-7.7-8.6c-0.8-1.6-2.4-2.1-4.3-2.1c-11.7,0.1-23.4,0.6-35.1,2.4
		c-4.5,0.7-9.1,0.9-13.6,1.5c-6.4,0.9-12.8,2-19.3,2.8c-4.4,0.5-8.7,1.5-12.9,2.9c-2.3,0.7-4.2,2.2-6.6,2.7
		c-5.1,1.1-10.2,2.2-15.3,2.9c-2,0.3-2.6,1.2-1.7,3c1.5,2.9,2.8,5.9,3.3,9.2c0.2,1.5,1,2.1,2.7,1.6c2-0.6,3.9-1.4,6.5-1.1
		c-2.7,0.4-5,1-7.3,1.8c-0.6,0.2-1.2,0.4-0.7,1.4c2.3,4.5,3.7,9.3,4.8,14.2c0.2,0.8,0.6,1.5,1.6,1.4c3.1-0.3,6.3,0.4,9.5,0
		c2.5-0.3,5.1-0.5,7.7-0.1c-2.2,0.2-4.5,0.4-6.7,0.6c-3,0.3-6.1,0.1-9,0.7c-1.5,0.3-1.9,1-1.4,2.5c1.5,4.2,2.1,8.7,3.3,13.1
		c0.5,1.9,1.3,2.6,2.9,3.2c3.4,1.2,7.1,1.9,10.4,3.4c2.1,0.9,4.2,1.6,6.4,2.4c-5.8-1.4-11.5-3-17.2-4.8c-1.1-0.4-1.3-0.2-1.2,1
		c0.5,4,1.2,8,1.6,12.1c0.2,1.9,0.7,3.9,1.8,5.6c4.4,6.7,9.1,13.1,14.9,18.7c4,3.9,7.4,8.4,11.8,11.9c0.9,0.8,2,1.3,2.9,2.3
		c3.3,3.5,7.1,6.5,10.4,10c1.9,2,4.3,3.5,6.4,5.2c2.8,2.2,5.5,4.4,8.3,6.5c2.9,2.1,6.3,3.5,9.2,5.6c3.1,2.2,6.2,4.5,9.7,6
		c1.9,0.8,2.2,0.8,2.5-1.1c0.3-2.3,1.3-3.8,3.5-4.7c0.5-0.2,1-0.6,1.7-1c-3.1-1.6-5.9-3-8.8-4.5c3.3,0.4,5.7,3.2,9.4,3.5
		c-0.7-0.5-1.2-0.8-2.1-1.5c2.3,0.6,4,1.8,5.8,1.6c4-0.4,7.9-0.9,11.9-0.5c0.4,0,0.8,0.2,1-0.3c0.1-0.4-0.2-0.6-0.5-0.7
		c-2.4-1.2-4.6-3-7-4.1c-3.8-1.7-7.4-3.5-10.7-6.4c5.1,2.4,9.8,4.6,14.6,6.8c4.1,1.8,8.2,3.7,12.5,5.1c1.1,0.3,1.4,0.1,1.7-1
		c1.7-5.4,4.4-10.1,8.5-14.1c2.1-2,4.5-3.4,6.7-5.2c4.9-4.2,10.4-7.3,16.6-9.3c3.1-1,6.1-2.2,9.6-3.5c-8.2-2.1-16.4-3-24.2-5.4
		c5.2,0.9,10.4,2,15.7,2.6c5.2,0.5,10.4,2,15.7,0c2.2-0.8,2.5-1.3,1-3.2c-2.1-2.7-3.8-5.6-3.4-9.1c0.2-1.7-0.2-2.5-2.2-2.6
		c1.1-0.3,2,0.5,2.5-0.4c0.4-0.7-0.2-1.1-0.6-1.4c-2.9-2.2-5.1-5-6.6-8.1c-1.9-4-4.2-8.1-1.7-12.8c0.8-1.6,0.5-3.3-1-4.7
		c-2.3-2.1-4.3-4.4-6.3-6.7c-2.4-2.8-3.8-5.9-2.9-9.7c0.3-1.2,0.5-2.4,0.8-3.6c0.9-3.7,0.3-4.8-3.1-6.2c-3-1.2-5.2-5.2-3.9-7.6
		c1-1.7,0.1-1.9-1.1-2.4c-3.5-1.2-6.9-2.2-10.6-2.9c-3.7-0.7-7.3-2.1-11-2.5C622.3,467.8,613.8,466.8,605.7,465.7z M594,361.8
		c-0.5-0.2-1,0-1,0.5c0,0.2,0.6,0.7,0.8,0.7c1.5-0.3,2.9,0.2,4.4,0.3c0.3,0,0.8-0.2,0.7-0.7c-0.1-0.4-0.4-0.4-0.7-0.5
		C596.7,361.9,595.3,361.8,594,361.8z"/>
	<path d="M689,302.7c-0.1-0.4,0-0.7,0.4-1c1-0.8,0.7-1.4,0-2.4c-1.6-2.2-2.7-4.7-4.3-7c-3.1-4.6-5.9-9.3-7.4-14.7
		c-1.7-5.9-3-11.8-3.9-17.8c-0.8-4.8-0.3-9.6-1.7-14.3c-0.5-1.6-1.3-2.3-2.4-2.4c-2-0.3-3.4-1.4-4.7-2.6c-2.5-2.4-5.4-3.8-8.5-4.8
		c-4.9-1.6-8.7-4.9-12.9-7.4c-2.8-1.7-5.6-3.1-8.4-4.7c-2.7-1.5-5.3-2.7-8.5-2.2c-0.7,0.1-1.5-0.3-1.7-1c-1.2-3.5-4.4-5.4-6.4-8.4
		c-2.5-3.8-4-7.8-4.2-12.2c-0.2-5.6-0.7-11.2-0.1-16.8c0.6-5.2-4.4-8.6-9.2-7.1c-3.4,1.1-7.1,1.8-10.5,1.1
		c-3.9-0.8-8.1-1.1-11.5-3.7c-0.6-0.5-1.2-1-1.6-1.6c-2-3.4-4-4.1-7.6-2.6c-9.4,3.7-17.6,9.3-26,14.8c-6.2,4.1-11.7,9.1-17.2,13.9
		c-6.6,5.8-13,11.9-18.9,18.5c-5.3,5.9-10.3,12-14.7,18.6c0-1.2-0.5-0.8-1-0.3c-0.8,0.8-1,2.1-2,2.8c0.3-1.5,1.2-2.7,2.1-3.9
		c0.9-1.1,0.4-1.7-0.8-1.7c-4.4,0.3-8.8,0.1-12.6,3.3c-1.1,0.9-1.4,2-2.1,3c-3.7,5.4-7.6,10.7-10.5,16.6c-3.9,7.7-8.9,14.7-12,22.8
		c-2.6,6.7-5,13.3-6.4,20.3c-0.9,4.4-2.1,8.8-2.6,13.4c-0.1,0.5-0.4,1-0.9,1.5c0.5-2.6,1.2-5.1,1.5-7.7c0.8-6.6,3-12.9,3.8-19.4
		c0.2-1.6,1.2-2.9,1.7-4.4c-1.3,1-2.7,2-4,3.1c-1.1,0.9-2.3,1-3.4,0.4c-1.3-0.7-1.7,0.1-1.8,1c-0.4,3.7-1.8,7.2-2.2,10.9
		c-0.8,6.6-1.5,13.1-1.8,19.7c-0.2,4.2-1,8.4-0.2,12.6c0.4,2-0.6,4.1-0.4,6.4c-0.4-0.9-0.8-1.5-0.7-2.2c0.9-5.1-0.2-10.3,0.5-15.4
		c1-7.4,0.3-14.9,2-22.2c0.7-3,1.5-6.1,1.8-9.2c0.1-1.6,2-2.9,3.6-3.3c4.1-0.8,7.1-3.1,8.7-7.1c0.3-0.8,0-1.6-0.3-2.4
		c-0.9-2.1-2-4.2-3.3-6.1c-1.2-1.8-2.8-3.3-4.4-4.9c-0.9-0.9-1.6-1.8-2.2-2.9c-1.1-2.3-2.9-2.4-4.8-0.7c-3.5,3.1-4.5,7.6-6.6,11.5
		c-2.5,4.7-3.8,9.8-6.3,14.5c0.4-1.8,0.9-3.6,1.7-5.4c1.1-2.3,2-4.8,2.7-7.3c0.3-1.1-0.5-0.8-1.2-0.5c-1.5,0.7-2.9,1.3-5,1.4
		c2.2-1.4,3.9-3,6.3-3.2c1.7-0.2,2-1.8,2.6-3.1c0.7-1.4,1.1-3,1.7-4.5c0.5-1.2,1.2-2.3,2.5-3.1c1.5-0.9,2.2-2.6,3.3-4
		c2.8,2,5,4.4,6.6,7.4c0.2,0.3,0.4,0.7,0.7,0.9c3.6,2.5,4.6,6.6,6.7,10.1c0.6-0.2,0.7-1,1.1-1.6c2.7-4.1,3.6-9.2,6.9-12.9
		c0.3-0.4,0.6-0.9,0.4-1.4c-0.3-0.7-0.9-0.1-1.3-0.2c-1.3-0.3-2.4-1.5-4-0.5c2.4-3.1,3.2-3.3,6.3-2c0.7,0.3,1-0.1,1.4-0.6
		c2.8-4,5.3-8.2,7.7-12.5c0.2-0.4,0.6-0.7,0.1-1.2c-4-3.6-7.6-7.8-12.6-10.2c-2-0.9-4.2-1.6-6.2-2.6c-1-0.5-1.8-1-2.4-1.9
		c-2.3-3.3-5.9-4.2-9.4-5.4c-4.3-1.5-8.3-0.4-12.5,0.1c-4.5,0.5-8.7-0.9-13-2.1c-2.5-0.7-5-1.7-7.6-2c-1.6-0.2-3,0.2-4.5,0.5
		c-5.1,1-8.8,4.3-12.9,7.1c-0.9,0.6-1.8,1.2-2.8,1.7c-3.8,1.7-5.3,4.8-5.4,8.8c-0.2,6.5,0.2,12.9,1,19.4c0.8,6,1,12,0.7,18.1
		c-0.1,3.2,0.5,6.4,0.7,9.6c0.3,4.9,1.2,9.7,1.8,14.5c0.3,2.4,0.6,4.8,1.2,7.2c0.7,3,0,6,0.7,9c1.4,5.7,2.4,11.4,2.8,17.2
		c0.3,3.9,2.2,7.3,2.7,11c0.7,5.6,2.8,10.8,3.8,16.3c0.4,2,3.4,3.9,5.5,3.3c1.4-0.4,1.5,0.3,2.3,1c1.5,1.2,2.8,2.9,5,3.2
		c0.6,0.1,1.9-0.1,1.7,0.9c-0.1,0.5-1.1,1-2.2,0.7c-2.6-0.6-5.3,0-8.2,0.5c1.7-1.7,4-1.6,5.9-2.5c-1.1-1.5-3.4-1.9-5.7-1
		c-3.6,1.5-7.3,2.4-11,3.4l0,0.1c2.1-1.4,4.7-1.6,7-2.6c0.6-0.2,1.5-0.5,1.3-1.2c-0.2-0.7-0.5-1.6-1.4-2c-1.9-0.6-3.8-1.5-5.8-0.3
		c-0.5,0.3-0.9,0.1-1.3,0c-2.9-0.6-5.9-1.1-8.7-0.8c-2.1,0.2-3.5-1.1-5.4-1.2c-1.9,0-3.8-0.7-5.7-1.5c1.5,0,3,0,4.5,0
		c1.4,0,1.4-0.5,0.7-1.5c-1.2-1.7-2.3-3.2-4.8-3.4c-2.5-0.2-5-1.2-7.6-1.9c2.5-1.1,4.5,0.9,7,0.4c-1.6-2-3.3-3.3-5.8-3.5
		c-3.2-0.2-6.2-1.3-9.7-1.8c3.2-1.2,5.7,0.7,8.4,0.6c-3.9-4.6-9.3-2.9-14.3-3.8c0.9-1.2,2.4-1.1,3.7-1.5c1.4-0.5,2.7,0.9,4.3,0.1
		c-3.3-2.9-7.3-3.1-11-2.7c-3.9,0.3-7.5,2.2-11.3,3.3c2.9-1.9,5.9-3.3,9.2-4.4c2.5-0.8,2.6-1.1,1.3-3.4c-0.7-1.2-1.7-2.4-3-3
		c-3.5-1.5-6.7-4.1-10.6-4c-4.2,0.1-8.5-0.6-12.7,0.7c-1.2,0.4-2.7,0.1-4.2,0.1c0.6-0.9,1.9-0.5,2.5-1.7c-5.3-0.4-10.2-2.4-15.6-1.2
		c-8.1,1.8-16,4.4-23.9,6.7c-4.4,1.3-8.6,3.7-11.4,7.6c-1.8,2.4-3.5,5.1-4,8.3c-0.2,1-0.5,2-1.5,2.6c-0.3,0.2-0.7,0.6-0.7,0.9
		c0.1,2.2-1.6,2.8-2.9,3.9c-3.8,3.4-6.2,7.8-8.3,12.4c-0.4,0.8,0.1,1.1,0.6,1.3c5.4,2.5,10.5,5.4,16,7.7c4.5,1.9,8.9,4.3,13.4,6.1
		c2.2,0.9,4.4,2,6.6,2.8c1.5,0.5,3.1,1.4,4.4,2.3c3.1,2.1,6.2,1.6,9.4,0.3c3.3-1.3,6.8-1.7,10.2-2c-1.2,0.9-2.6,1-3.9,1.5
		c-1.1,0.4-3.1-0.4-3,1.9c-1.5,0-2.6,1.4-4.1,1.5c-2.4,0.2-4.6,0-7-1.2c-8-4.1-16.2-7.9-24.5-11.5c-5.8-2.5-11.3-5.7-17-8.3
		c-10.3-4.8-20.2-10.2-29.7-16.4c-4.4-3-9.1-5.5-13.6-8.4c2.3,0.6,4.2,2.1,6.3,3.2c6.7,3.6,12.9,8,19.4,11.8
		c4.7,2.7,9.7,4.7,14.3,7.6c1,0.6,1.5,0.3,1.6-0.7c0-1.1,0.6-1.9,1-2.8c0.3-0.7,1.1-1.3,0.5-2.4c-0.3-0.6,0.5-1.5,1-2.1
		c2-2.2,4.1-4.4,6.7-6c0.7-0.5,1.3-0.9,1.1-1.8c-0.3-2,0.1-4,0.4-5.9c0.3-2.4,1.7-4.1,3.7-5.3c1-0.6,2.1-1.3,2.9-2.2
		c4.9-4.7,10.7-7.3,17.3-8.9c4.9-1.2,9.8-2.8,14.6-4.3c5.8-1.8,11.5-1.2,17.3,0.1c4.1,0.9,8.4,1.8,12.6,1.4
		c8.5-0.9,14.8,3.7,21.1,8.1c1,0.7,2.2,1.6,2.6,3c0.1,0.4,0.5,0.6,0.9,0.7c3.6,0.7,6.3,3,9,5.1c3.2,2.5,7.1,3.7,10.2,6.2
		c2.1,1.7,4.4,3.2,5.8,5.6c1.4,2.5,4.9,3.5,7.4,3c2.7-0.6,5.3-0.2,7.9,0.7c0.4,0.1,0.9,0.2,1.3,0.3c0.5,0,1.1,0.3,1.4-0.3
		c0.2-0.5-0.2-0.8-0.5-1.2c-3.7-5.7-6.8-11.8-8.8-18.4c-1.5-5.1-4.3-9.7-6.2-14.7c-0.3-0.7-0.7-0.8-1.3-0.3
		c-0.5,0.4-0.9,0.7-1.7,0.4c-3.1-1.3-6.5-1.7-9.6-3.2c-4-1.9-7.4-4.7-10.5-7.9c-3.8-4-7.4-8.2-11.8-11.7c-2.4-2-4.1-4.6-5.9-7.2
		c-0.3-0.4-0.4-0.7,0.2-0.9c0.3-0.1,0.6-0.6,1-0.3c0.4,0.2,0.3,0.6,0,1c-0.8,1.1,0,1.2,0.8,1c1-0.3,1.2-0.1,0.8,0.9
		c-0.4,1-0.4,1.6,1,0.9c0.7-0.4,1.1,0.2,0.7,0.7c-1.1,1.4-0.3,1.4,0.8,1.1c0.9-0.3,1.2-0.2,0.9,0.8c-0.1,0.3-0.2,0.8,0.2,0.8
		c2,0.1,2.5,1.9,3.7,2.9c1.7,1.4,2.7,3.5,4.4,4.8c3.1,2.4,4.8,6.2,8.2,8.3c0.6,0.4,1.1,0.9,1.9,0.4c0.3-0.2,0.9-0.2,0.8,0
		c-0.2,1.5,1.3,1.3,1.9,1.9c0.7,0.8,1.5,1.8,2.4,0.1c0.2-0.4,0.9-0.4,1,0.2c0.2,1.7,1.9,1.3,2.6,2.1c0.3,0.4,0.8-0.1,1.2-0.4
		c0.5-0.4,1-0.4,1.2,0.3c0.2,0.9,0.9,1.5,1.4,0.8c0.6-0.7,2-1.1,1.5-2.4c-0.4-1-0.6-2.2-1.5-2.8c-0.4-0.3-0.7-0.5-0.4-1.1
		c0.4-0.9-0.1-1-0.9-0.9c-0.3,0-0.7,0.1-0.8-0.3c-0.1-0.4,0.2-0.6,0.5-0.7c0.8-0.3,0.7-1,0.3-1.4c-0.8-0.9-0.2-2.5-1.8-2.8
		c-0.3,0-0.3-0.5-0.1-0.6c1.4-1.1,0.4-2.3,0.1-3.4c-1.1-4.5-2.3-9-3.5-13.4c-0.4-1.4-1.1-2.3-2.4-3.1c-3-1.8-5.1-4.6-8-6.7
		c-1.5-1.1-2.8-2.6-4.3-3.7c-0.5-0.4-1-0.8-2,0.2c-1.1,1.1-3,1.7-4.6,2.5c-0.8,0.4-1.7,0.3-2.1,1.3c-0.2,0.5-0.6,0.3-0.9-0.1
		c-0.2-0.3-0.3-0.6-0.5-0.8c-1.3-1.2-1.8,1.3-2.8,0.7c-0.8-0.5-1.3-1.8-2.4-0.5c-0.1,0.1-0.2,0.3-0.2,0.3c-1.3-0.6-2.7-1.2-4.1-0.2
		c0,0-0.1-0.1-0.1-0.1c-0.1-0.3,0.1-0.9,0.3-0.7c1.5,1.3,1.2-2.6,2.6-0.9c0.9,1.1,1.3,1.2,2.1,0c0.3-0.5,0.7-0.7,1-0.3
		c0.8,1,1.6,1,2.5,0.2c0.3-0.2,0.6-0.4,0.9-0.2c2.4,1.7,3.5-0.7,5-1.7c0.8-0.6,0.4-1.3-0.2-1.8c-0.7-0.5-1.2-1.1-1.7-1.8
		c-0.3-0.5-0.3-1,0.3-1.3c0.6-0.3,0.8,0.1,1,0.6c0.4,1.3,1.2,1.2,2,0.5c0.3-0.3,0.3-1.2,1-0.6c0.5,0.4-0.1,0.7-0.4,1.1
		c-0.1,0.1-0.1,0.3-0.2,0.7c1.1-0.1,2.2-0.4,3,0.6c0.1,0.2,0.6,0.1,0.9,0.1c0.5-0.1,1-1,1.5-0.5c0.7,0.8-0.5,0.8-0.7,1.2
		c-0.2,0.2-0.1,0.5,0.2,0.7c0.4,0.3,0.8,0.5,1.2,0.1c0.3-0.2,0.5-0.7,0.9-0.4c0.4,0.4,0.2,0.8-0.1,1.2c-0.5,0.9,0,1.1,0.7,0.8
		c0.9-0.3,1.5-0.4,0.8,0.8c-0.2,0.4-0.4,0.7-0.1,1c0.3,0.4,0.7,0.2,1-0.1c0.3-0.2,0.9-0.1,0.8-0.1c-1.1,1.9,2.5,1.2,1.6,3
		c0,0.1,0.2,0.4,0.3,0.4c1.7,0,1.9,2.1,3.3,2.4c0.3,0.1,0.5,0.5,0.8,0.3c0.1-0.1,0.2-0.6,0.1-0.7c-0.7-0.7,0.2-2.4-1.5-2.5
		c-0.5,0-0.6-0.6-0.1-1c0.2-0.2,0.5-0.2,0.7-0.4c1-1.3-1.1-2.1-0.7-2.7c0.6-0.9,1.5-1.3,0.6-2.6c-1-1.5-2.5-2.3-3.6-3.5
		c-0.2-0.2-0.8-0.4-0.4-0.9c0.4-0.4,0.8-0.3,1.2,0.1c0.2,0.3,0.4,0.7,0.6,0.9c2.2,1.8,2,1.6,4-0.6c2.2-2.4,3.7-5.3,6-7.5
		c2.2-2.2,3.2-5.1,4.7-7.7c0.3-0.5,0.3-1.1-0.2-1.6c-1.9-2.3-3.8-4.5-6.5-6c-0.7-0.4-1.5-0.7-1.8-1.6c-1.3-3.7-4.3-5.9-7.5-8
		c-4.3-2.8-9.2-4.3-14.1-3.7c-4.2,0.5-8.4,1.5-12.4,3.5c-3.6,1.8-7.4,3.8-11.7,2.4c-0.8-0.3-0.8,0.4-0.7,0.9
		c0.2,1.2,0.5,2.4,0.6,3.6c-2.2-2.5-2.9-6.5-7.5-6.4c1.1-1.2,0.4-2.1-0.5-2.8c-4.1-3.1-8.5-5.9-13.3-7.9c-1.7-0.7-2.9-0.4-4.2,0.8
		c-0.4,0.3-0.7,1.5-1.5,0.4c-0.4-0.5-1.7-0.2-1.3-1.3c0.3-0.8,1.2-0.7,1.9-0.9c2-0.7,3.8-1.8,5.6-2.8c2.9-1.5,5.8-2.9,8.9-4.1
		c-2,1.1-4,2.2-6,3.3c-0.3,0.2-0.6,0.2-0.9,0.4c-1,0.7-2.4,1.3-2.5,2.5c0,0.9,1.6,1.1,2.4,1.6c4.4,2.8,9.3,5,13,8.9
		c0.4,0.4,0.7,0.3,1.2,0.2c3-0.5,6-1.3,9.2-0.7c1.9,0.4,3.8-0.2,5.7-0.6c1.7-0.3,3.3-0.8,5.1-0.5c1.8,0.3,3.4-0.7,5-1.4
		c3-1.3,6.1-1.2,8.9-0.4c5.9,1.7,11.7,1,17.5,0c2-0.4,4.1-0.2,6.1,0.3c-4.3-0.1-8.4,1.4-12.6,1.8c-0.5,0-1.4-0.3-1.5,0.5
		c-0.1,0.7,0.8,1,1.3,1.2c3,1.2,5.4,3.2,6.3,6.1c1,3.3,3.4,4.6,6,5.9c1,0.5,2,1.1,2.5,2.3c0.1,0.4,0.3,1,0.9,0.8
		c0.5-0.2,0.4-0.7,0.4-1.2c-0.3-2.7-0.5-5.4-0.9-8c-0.5-3.5-0.1-7.1-0.2-10.6c0-1.1,1.3-1.6,1.5-2.6c0.7-4,3.1-6.5,6.6-8.3
		c3.2-1.6,5.7-4.4,8.8-6.2c1.4-0.9,3-0.4,4.5-1c4.4-2,8.7-1.1,13.1,0.1c2.2,0.6,4.3,1.6,6.7,1.7c1.1,0,2.2,0.3,2.9-1.1
		c0.6,0.6,0.1,1.3,0.6,1.7c0.6,0.4,1.1,0.1,1.7,0.1c5.9-0.5,11.9-0.8,17.9-0.8c1.3,0,2.3,0.4,2.9,1.6c1,2.1,2.8,3.5,4.1,5.3
		c0.5,0.8,1.2,1.2,2.1,1.6c3.9,1.6,7.7,3.3,11.3,5.5c2.6,1.7,4.5,4.2,6.7,6.4c0.9,0.9,1.1,0.8,1.9,0c1.6-1.7,2.3-4,4.3-5.4
		c3.5-2.5,7.4-3.8,11.6-3.4c3,0.3,4.8-1,6.3-3.2c2-2.9,4.2-5.7,6.8-8.2c0.6-0.5,1-1.2,1.2-2c0.1-0.5,0.3-1,0.7-1.1
		c3.5-1.2,5.2-4.5,7.7-6.8c5.3-4.8,10.6-9.6,16.1-14.2c4.6-3.8,9-8,13.6-11.7c2.4-1.9,5-3.6,7.8-5c5.7-2.8,11.2-5.8,16.3-9.5
		c3.3-2.3,8.2-1.5,10.3,1c2.6,3,6,4.2,9.6,5.1c0.1,0,0.3,0,0.4,0.1c1.7,1.9,3.7,0.5,5.6,0.7c2.2,0.3,4.4,0.1,6.6-0.2
		c2.5-0.4,5-1,7.6,0c2.4,1,4.5,3.5,4.2,6.1c-0.5,4.2-0.1,8.4-0.2,12.7c0,2.5,0.2,5,0.9,7.4c0.9,3.1,1.3,6.5,3.3,9.2
		c1.4,1.9,3,3.7,4.5,5.5c0.2,0.3,0.6,0.6,0.7,0.9c1.1,2.5,2.8,3.7,5.6,2.9c1-0.3,2.1,0.3,2.9,0.9c2.8,2,6.2,2.8,9.2,4.3
		c3.5,1.8,6.9,3.9,10.4,5.7c5,2.5,9.3,6.1,14.5,8.1c3,1.2,6.1,2.7,9.6,1.6c-0.2,0.6-0.6,0.5-0.9,0.6c-1.9,0.4-2.5,1.3-1.8,3.2
		c0.5,1.5,0.8,3,0.6,4.5c-0.4,3-0.3,6,0.4,9c1.2,5.2,2.2,10.4,3.3,15.6c1.3,5.9,4.3,11.2,7.3,16.5c1.2,2.2,2.5,4.3,3.8,6.5
		c0.3,0.5,0.7,0.9,1,1.4c0.3,0.5,1.2,0,1.3,0.9c0.1,1.4,0.2,2.9-1,4C690.3,302.7,689.4,301.9,689,302.7
		C689,302.7,689,302.7,689,302.7z M671.1,241.9c-0.7-1.5-2-1.6-3.4-1.6C668.7,241.3,669.7,242,671.1,241.9c2,1.5,1,4.4,2.9,6.4
		c0.6-2.1-0.6-3.7-0.9-5.3C672.9,241.5,672.2,241.4,671.1,241.9z M386.7,260.5c-0.5-0.1-0.7,0.3-0.8,0.5c-1.1,1.6-1.8,3.6-3.2,4.8
		c-2.6,2.3-4.5,5.1-6.6,7.8c-1.5,1.8-2.7,3.9-2.5,6.3c0.1,3,1.2,5.9,1.7,8.9c1.1,6.1,3,11.8,5.6,17.4c2,4.2,3,8.8,4.6,13.2
		c1.3,3.7,2.8,7.4,4.4,11c0.7,1.8,1.1,3.7,1.9,5.5c2,4.6,4.7,8.8,5.9,13.8c0.2,0.7,0.5,1.7,1.8,1.7
		C392.5,321.4,388.6,291.1,386.7,260.5z M342.6,238.7c-4.8,1.8-9.9-0.6-14.7,1.2c0.2,0.8,0.6,1.3,1.4,1.5
		C334.1,242.6,338.4,241.2,342.6,238.7z M266.7,348.2c0.4-2.9,1.4-5.6,3-8C266.8,341.8,265.5,345.5,266.7,348.2z"/>
	<path d="M274.3,488c1.9-0.3,4.1,0,5.3-1.5c1.9-2.4,5.2-3.1,6.7-5.8c1.4-2.7,2.6-5.4,3.5-8.3c1-3.4,1.3-6.8,0.7-10.8
		c1.4,1.9,1.5,3.7,2,5.6c1.8-1.6,2.6-3.6,3.6-5.4c0.1-0.2,0-0.5-0.1-0.7c-1.1-2.5-1.2-5.2-1.9-8.3c1.9,1.4,3.1,2.8,3.1,5
		c0,0.4-0.2,1,0.4,1.2c0.5,0.2,0.8-0.3,1-0.7c0.6-1,1.3-2.1,1.8-3.2c0.3-0.7-0.3-1.2-0.7-1.7c-0.9-1.2-1.8-2.5-2.5-3.8
		c1.1,0.8,2.5,1.1,3.3,2.2c0.7,1,1.7,1.1,2.3,0.1c0.5-0.9,2.3-1.8,0.4-3.2c-2.4-1.8-4.8-3.6-6.3-6.3c-0.3-0.6-1.3-1.1-2-0.3
		c-0.8,0.9-1.5,0.6-2.2,0.1c-3.6-2.8-7.2-5.7-10.8-8.5c-0.2-0.1-0.2-0.4-0.5-1c2.8,1.7,5.5,1.2,8.2,1.3c1,0,1.3,0.5,1,1.3
		c-0.2,0.6-0.3,1.1,0.4,1.5c0.6,0.4,0.9,0.4,1.5-0.2c0.5-0.5,1.1-0.3,1,0.6c-0.1,1,0.8,1.4,1.4,1.1c1.1-0.5,1.9-0.4,2.7,0.6
		c0-1.2,1.1-2.4-0.4-3.2c-0.3-0.2-0.2-0.6,0.2-0.8c0.5-0.2,0.8,0,0.9,0.4c0.1,0.4,0.1,0.9,0.6,0.7c0.6-0.1,0.4-0.6,0.3-1.1
		c-0.2-1.1,0.7-1.1,1.4-1.4c0.7-0.3,1.7-0.6,0.6-1.6c-0.2-0.2-0.3-0.5-0.1-0.7c0.2-0.2,0.6-0.3,0.9,0c0.9,0.8,1,0.3,1.4-0.5
		c0.5-1,2.2-1.4,1.6-3.1c0,0,0.2-0.2,0.3-0.2c2.1,1.3,2.7-1.6,4.3-1.4c1,0.1,1.9,0.3,2.6-0.8c0,0,0.2,0,0.2,0
		c0.6,1.9,2.9,1.1,3.8,2.6c0.3,0.6,0.8,1.2,1.5,0.7c0.9-0.6,0.1-1-0.4-1.5c-0.4-0.3-0.4-0.7,0.1-0.9c0.4-0.1,0.8-0.2,0.9,0.3
		c0.1,0.5,0.2,1,0.3,1.5c0.4,2.7,2.5,3.9,4.2,5.6c1.1,1.1,2.6,1.9,3.4,3.4c0.9,1.5,2.3,2.2,4.1,2.1c1.6-0.1,3.2-0.3,4.9-0.5
		c-0.9-1.8,0.4-3.7-0.7-5.6c1.2,0.4,1.3,1.1,1.3,1.8c0.1,2,0.2,4,1.5,5.7c0.1,0.1-0.1,0.5-0.1,0.7c-1.3-0.9-1.9,1.2-3.1,0.7
		c-0.3-0.1-0.8-0.5-0.9,0.1c-0.2,0.7,0.4,0.7,0.8,0.8c0.7,0.2,1.5,0.4,2.1,0.8c0.4,0.3,0.9,0.4,0.9-0.3c0-0.4,0.2-0.8,0.7-0.7
		c0.5,0.1,0.6,0.5,0.3,0.9c-0.8,1.2,0.5,1.3,1,1.6c0.9,0.5,0.9-0.6,1.3-1c0.7-0.7,0.3-1.1-0.5-1.2c-0.4-0.1-0.5-0.4-0.3-0.7
		c0.2-0.4,0.5-0.4,0.8-0.3c1.9,0.7,2.2-1.1,2.7-2.1c0.6-1.4-0.8-1.4-1.7-1.7c-0.9-0.3-1.8-1-2.7,0.2c-0.1,0.2-0.5,0.1-0.7-0.1
		c-0.2-0.2-0.1-0.5,0.1-0.7c1-1,2.1-1.4,3.4-0.5c0.5,0.4,0.9,1,1.1-0.2c0.1-0.4,0.3-0.2,0.5-0.1c1.2,1.5,1.3,0.2,2.1-0.5
		c1.7-1.6,2.6-4,5.3-4.7c2-0.5,3.5-2.4,4.9-4c0.3-0.3,0.5-0.6,0.3-1.1c-0.2-0.5-1.6-0.4-0.7-1.3c0.7-0.7,1.5-0.9,2.6-0.4
		c-1.6,2.6-1.3,5.2,0.2,7.7c0.2,0.4,0,0.4-0.1,0.6c-1.3,2-0.6,4.2-0.8,6.3c-0.1,0.6,0.3,1-0.3,1.6c-1,0.9,1.4,0.4,0.7,1.5
		c-0.4,0.6-1.4-1.1-1.5,0.4c0,0.3-0.3,0.8-0.2,0.9c1.4,1.7,0.2,1.7-1.1,2.2c-1.7,0.7-1.7,3-3,4.2c-0.1,0.1,0,0.5,0.1,0.5
		c1.9,0.5,2.7,2.5,4.6,3.1c1.2,0.4,3.1-0.1,3.3,2.2c0,0.6,1.1,1,1.8,1.3c0.8,0.3,1.7,0.5,2.1,1.5c0.2,0.5,0.8,0.9,1.5,0.6
		c0.4-0.1,1-0.2,0.9,0.3c-0.7,2,1.2,2.1,2,3.1c0.5,0.7,1.4,0.5,2.2,0.1c0.7-0.3,0.8-1,0.5-1.7c-0.2-0.5-0.3-0.9,0.2-1.1
		c0.6-0.3,0.4-1.1,0.8-1.4c1.3-1.2-1.3-2.8,0.7-4.2c1-0.6,1-2.8,1.5-4.2c0.3-0.8,0.5-1.6,0.1-2.4c-0.2-0.5-0.3-1.1,0.3-1.4
		c1.5-0.8,0.7-2.6,1.8-3.7c0.4-0.3-0.1-0.6-0.6-0.6c-0.5,0-1-0.1-0.8-0.8c0.2-0.5,0.6-0.2,1-0.1c0.3,0.2,0.7,0.4,0.9-0.2
		c0.2-0.6,0.9-1.2,0.1-1.9c-0.9-0.8-0.5-0.9,0.5-0.9c1.2,0,1.7-1,0.9-2c-0.2-0.3-0.4-0.6-0.3-0.8c0.2-0.3,0.6-0.3,0.9-0.1
		c0.8,0.5,1-0.2,1.3-0.7c0.3-0.5,0.6-1.1-0.2-1.4c-0.4-0.2-0.5-0.4-0.3-0.8c0.2-0.4,0.5-0.4,0.8-0.2c0.9,0.5,1.1-0.2,1.4-0.7
		c0.4-0.6,0.2-0.9-0.3-1.2c-0.5-0.3-0.6-0.6-0.3-1.1c0.1-0.2,0.3-0.6,0.3-0.6c-2.1-1.1-0.2-1.5,0.2-2.4c0.5-1,0.7-2.4-0.1-3.4
		c-0.7-0.8-0.1-1.1,0.3-1.7c0.9,1.7,1.3,3.4,2.4,4.9c1.5-1,2.2-2.6,3.4-3.8c0.6-0.6,0.3-1.2,0.1-1.8c-0.8-2.5-1.5-5-2.3-7.5
		c1,0.1,1,0.8,1.1,1.5c0.2,1.7,1.1,2.9,2.1,4.2c0.9,1.1,1.6,0.9,2.4,0.2c1-0.8,1.9-1.7,2.8-2.6c0.6-0.6,0.3-1.1,0-1.7
		c-0.8-1.8-1.5-3.7-3.5-4.9c3-0.7,5.3,0,7.4,1.9c0.4,0.4,1.1,0.6,1.8,0.7c3.9,1,6.3,2.4,9.2,5.3c-2.2-1.4-4.3-2.9-6.7-4
		c-1-0.4-1.6-0.5-2.6,0.2c-4.4,3.1-8.3,6.8-11.5,11.1c-4.7,6.2-8.5,13-10.2,20.8c-1,4.7-2.3,9.3-3.4,13.9c-0.3,1.2-0.8,2.2-1.4,3.1
		c-2.2,3.4-3.2,7.5-5.6,10.7c-2.6,3.5-4.8,7.3-7.4,10.8c-2.9,3.8-5.7,7.8-8.6,11.7c-3.8,5.1-6.7,10.8-10.2,16.1
		c-3.2,4.7-6.4,9.5-10.4,13.5c-3.6,3.5-7.1,7-11,10.3c-4.4,3.7-8.7,7.6-13.1,11.5c-3.7,3.3-7.5,6.4-11.4,9.5c-2.7,2.1-4.8,5-7.3,7.4
		c-4.1,4.2-8.1,8.4-12.2,12.7c-4,4.1-8.4,7.8-12.4,11.9c-4.6,4.7-9.7,8.9-14.9,12.8c-6.1,4.5-10.3,10.5-15.5,15.8
		c-3.8,3.9-7.4,8-9.9,12.8c-2.4,4.8-7.1,6.9-10.5,10.4c-1.4,1.5-2.9,2.9-4.4,4.3c-4.9,4.3-9.7,8.6-14.6,12.9c-2.8,2.5-4.1,6-6.5,8.8
		c-2.5,2.9-4.8,6-7.7,8.6c-2.8,2.7-5,6-7,9.4c-0.6,1.1-1.2,2.4-2.6,2.7c-0.6,0.2-1.2,1.2-1.9,0.4c-0.6-0.8,0.2-1.4,0.5-2.1
		c1.1-2.6,3.2-4.4,4.7-6.7c1.8-2.9,4.2-5.4,6.9-7.5c2.4-1.9,4.5-4,6.1-6.6c0-0.1,0.1-0.1,0.1-0.2c1.8-5.5,6.5-8.2,10.6-11.6
		c4.1-3.3,7.9-7.1,11.7-10.7c3.4-3.2,6.8-6.5,10.2-9.7c2.5-2.4,4.3-5.3,6.2-8.1c1.4-2.1,2.8-4.2,4.8-5.8c1.1-0.9,2-2,2.9-3.1
		c4.8-5.8,9.6-11.6,15.9-15.9c1.5-1,3-2.3,4.1-3.7c1.9-2.6,2.9-5.7,3.2-8.9c0.8-7.1,3-13.9,5.2-20.7c2.2-6.6,4-13.3,6-20
		c2.1-7,4.2-14,6.9-20.8c1.6-4.1,2.7-8.3,2.8-12.9c0.2-8.4,2.3-16.4,6.6-23.6c0.1-0.1,0.1-0.2,0.2-0.3c0.4-1,1.5-2.2,0.7-3
		c-0.9-0.9-1.5,0.7-2.3,1.1C279.2,487.6,277.1,489,274.3,488z M323.6,505.1c0.1-0.1,0.3-0.1,0.4-0.2c0.7,1.3,1.6,2.6,2.1,4
		c1.2,3.4,2.3,6.9,3.4,10.4c0.7,2.3,1,2.3,2.6,0.6c3.4-3.6,6-7.7,8.7-11.8c3-4.4,5.6-9,8.4-13.4c3.6-5.7,7.7-11,11.5-16.5
		c2.3-3.3,4.4-6.8,6.6-10.2c0.7-1.1,0.6-2-0.2-3c-4.3-5.5-9.7-9.9-15.8-13.1c-4.3-2.3-8.9-3.8-13.4-5.6c-4.3-1.7-8.5-2.8-13-2.3
		c-4.6,0.5-9.2,0.5-13.7,2c-1.1,0.4-2.3,0.6-1.8,2.4c0.3,1-0.6,1.3-1.3,1.5c-1.5,0.4-2.7,1.3-3.5,2.6c-2.9,4.4-5.7,8.7-8.1,13.4
		c-1.6,3-3.8,5.6-5.2,8.8c-2.6,5.7-5,11.5-7.8,17.1c-2.1,4.2-3,8.4-3.5,13.1c-0.4,4.5,0.6,9.3-2.4,13.4c0,0-0.1,0.1-0.1,0.2
		c-0.3,2.8-1.4,5.4-2.5,8c-2.4,5.9-4.3,11.9-6.2,18c-1.5,5-3.1,10.1-4.5,15.1c-0.7,2.4-0.8,5-1.8,7.3c-3.1,7.1-3.9,14.7-6,22.1
		c-0.1,0.5-0.6,1.3-0.1,1.6c0.7,0.5,1.1-0.4,1.6-0.7c7.4-5.2,13.4-12,19.4-18.7c4.4-4.9,9.2-9.4,14-13.8c5.7-5.1,11.6-9.9,17.4-15
		c6.2-5.4,12.3-10.7,18.1-16.5c0.5-0.5,0.8-1,0.7-1.7c-0.8-5.6-1-11.2-3.3-16.5C324.2,506.9,323.9,506,323.6,505.1z M305.3,439.6
		c-0.4-0.3-0.6-0.4-0.8-0.5c-0.5-0.3-1.1-0.4-1.7-0.1c-0.3,0.2-0.3,0.5-0.2,0.9c0.3,0.9,0.9,0.4,1.4,0.4c0.6,0,1.2,0.3,0.6,1.1
		c-0.3,0.4-0.5,0.8,0,0.9c0.8,0.2,1.1,0.7,1.4,1.4c0.3,0.7,0.9,0.7,1.5,0.4c0.8-0.5,0.1-0.8-0.2-1.2c-0.2-0.3-0.6-0.6-0.2-1
		c0.5-0.4,0.8,0,1,0.4c0.2,0.4,0.5,0.6,0.9,0.5c0.6-0.2,0.3-0.6,0.2-0.9c-0.1-0.5,0.2-1.1,0.6-0.9c1.7,0.7,1.7-0.8,2.4-1.6
		c-0.6-0.4-1.4,0-1.5-0.8c-0.1-0.4,0.3-0.5,0.6-0.5c2.2-0.1,3.1-1,3.2-3.2c0-0.4,0.3-0.5,0.5-0.7c1.3-1,1.3-2.5,0-3.3
		c-0.8-0.5-1.9-0.1-2.3-1.4c-0.1-0.3-1.3-0.1-1,0.9c0.1,0.4,0.4,0.8-0.1,1c-0.4,0.2-0.8-0.1-0.9-0.5c-0.1-0.5-0.3-0.7-0.8-0.6
		c-0.6,0.2-0.5,0.6-0.4,1.1c0.2,0.7-0.1,0.9-0.8,0.7c-0.8-0.3-2.5,1.1-2.4,2c0.1,0.8,0.5,0.5,0.9,0.2c0.3-0.2,0.6,0,0.8,0.3
		c0,0.1-0.1,0.5-0.1,0.5c-1.8,0.1-1.9,2.9-4.1,2C304.1,438.3,305.2,438.4,305.3,439.6z M319.2,443.2
		C319.2,443.2,319.2,443.2,319.2,443.2c1.1,0,2.2,0,3.2,0c0.6,0,1.1-0.3,1.4-0.9c0.7-1.5-0.4-6.9-1.6-8.1c-0.8-0.8-1.5-1.1-2.6-0.3
		c-2.7,1.9-3.7,4.7-4.4,7.7c-0.2,1,0.2,1.7,1.5,1.6C317.5,443.1,318.4,443.2,319.2,443.2z M354.8,438c-0.3-1,0.5-1.9-0.6-2.2
		c-0.7-0.2-1.5-0.6-2.2-0.1c-3.4,2.3-5.3,5.6-6.9,9.2c-0.4,0.9-0.5,2.3,0.7,2.5c1.4,0.2,2.8,0.3,4-1.2c0.9-1.1,1.5-2.3,2.7-3.2
		C354.3,441.7,354.4,439.6,354.8,438z M324.6,437.6c0.1,1.4-0.3,2.6,0.5,3.7c0.2,0.3,0.7,1.2,1.1,0.5c0.3-0.5,1.4-1.6,0.6-1.9
		C325.6,439.5,325.9,438.2,324.6,437.6z M344,441.5c-0.9,0.1-1.7,0.9-0.8,1.5c1,0.8-0.6,2.1,0.5,2.1c0.9,0,0.4-1.7,1-2.4
		c0,0,0.1-0.1,0.1-0.1C345.7,441.5,344.7,441.6,344,441.5z"/>
	<path d="M149.8,649.9c0.9,1.9,0.6,3.6,0.3,5.1c-0.8,3.5,0.1,6.8,0.5,10.1c0.3,1.9,0.1,3.7,0.3,5.6c0.1,1,0,1.7,1.3,1.4
		c1-0.2,1.4,0.5,1.4,1.2c0,1.5,0.7,3.3-1.3,4.2c-0.7,0.3-0.9,1-0.3,1.6c0.7,0.7,1.5,0.4,2.1-0.1c1.4-1.3,2.2-2.9,2.3-4.7
		c0.2-5.5,1.4-10.9,0.9-16.3c-0.2-1.7,0-2.6,1.7-3.6c2.5-1.3,3.5-4.2,5.2-6.3c3.1-3.7,5.3-8,9.1-11c0.5-0.4,0.6-0.8,0.5-1.4
		c0-1.1,0.2-2.2,0.5-3.2c2.8,4.6,3.3,10.2,7,14.3c-1.3-0.1-1.2-1.3-2.3-1.9c0,2.7-0.1,5.2,0,7.7c0,0.8,0.8,0.9,1.5,0.5
		c0.7-0.4,1.4-0.7,2.2-0.3c1.5,0.7,2.1-0.2,2.4-1.5c0.1-0.8-0.1-1.5-0.3-2.3c-0.8-3.7,0.1-7.4,0.6-11.1c0.1-0.8,0.3-1.7,0.1-2.5
		c-0.3-1.4-0.2-2.7,0.4-4.1c0.6-1.3,0.7-2.6,1.9-3.9c2.3-2.4,3.1-6,3-9.3c0-2.5,0-5.1-1.1-7.7c-0.5-1.1,0.2-3.2,1-4.7
		c0.1-0.1,0.3-0.2,0.3-0.2c2,1.8,2.2-1.3,3.7-1.2c-0.6,1.5-0.9,3.1-2.2,4.2c-0.4,0.3-0.7,0.9-0.2,1.3c0.4,0.4,0.9,0,1.2-0.3
		c1.2-1.4,2.8-1.9,4.5-1.9c0.7,0,0.9-0.4,1.2-0.8c3.6-4.7,6.5-9.9,9.4-15c2.4-4.3,5-8.5,7.4-12.8c3.1-5.7,5.9-11.4,8.9-17.1
		c0.8-1.6,1.7-3.2,2.6-4.8c0.2-0.3,0.7-0.8,0.1-1.2c-0.4-0.3-0.8,0.1-1.2,0.4c-3.1,2.2-5.8,4.9-8.7,7.4c-2.7,2.4-5.8,4.4-8.9,6.2
		c-0.1-0.1-0.2-0.3-0.3-0.4c1.4-1,2.8-2,4.2-3.1c3.7-3,7.4-6,11.2-8.9c1.2-0.9,2.4-1.7,3.6-2.6c2.8-2.1,4.2-5.1,5.6-8.2
		c4.3-9.2,8.2-18.5,12.3-27.8c2.4-5.5,5.5-10.6,8.1-16c1.3-2.7,2.3-5.4,3.7-8c3.9-7.3,6.3-15.3,10.3-22.6c0.2-0.3,0.3-0.7,0.6-1
		c0.5-0.6,1.1-0.5,1.7,0c0.6,0.5,0.5,1,0,1.5c-2.4,2.7-3.6,6.1-5,9.3c-2.5,5.9-5,11.8-8,17.5c-2.6,4.9-5.1,9.8-7.3,14.9
		c-1.8,4.2-4,8.2-6,12.3c-1.6,3.3-3,6.7-4.4,10.1c-2.1,5.2-4.8,10.2-7.1,15.4c-2.6,5.7-6.2,10.9-8.5,16.8c-0.9,2.3-2.4,4.3-3.5,6.4
		c-2.3,4.6-4.1,9.4-6.9,13.7c-2.6,4-4.9,8.3-7.9,12c-1.4,1.7-2.4,3.8-3.5,5.7c-1.8,3.2-4.3,6-6.7,8.7c-1.6,1.8-2.7,3.8-2.9,6
		c-0.3,3.7-2.8,6.5-4.2,9.6c-0.2,0.5-0.7,0.9-0.6,1.6c0.1,3-0.2,6-0.7,9c-0.4,2.6,0,5.1,0.2,7.7c0.3,3.4,0.3,6.9-1.4,10.2
		c-0.5,1-0.9,2.1-2.2,2c-2.3-0.1-4.5-1.6-4.7-3.1c-0.4-2.5-1-5-0.8-7.5c0.3-3-0.3-5.9-0.5-8.9c-0.1-1.1-0.9-1.8-1.2-2.8
		c-0.2-0.7-0.8-0.3-1.3-0.1c-2.5,1-4,3.2-5.6,5.2c-3,3.9-5.6,8-9,11.6c-0.4,0.4-0.7,0.8-0.6,1.4c0.6,6.2-0.9,12.2-1.4,18.4
		c-0.2,2.4-2.1,4.4-4.2,5.7c-0.8,0.5-3.2-0.7-3.3-1.6c-0.4-3.6-0.8-7.3-1.2-10.9c-0.3-2.4-0.5-4.7-0.8-7c-0.2-1.3-0.8-1.4-1.8-0.7
		c-1.4,1-2.5,2.2-3.4,3.6c-0.4,0.6-1,1.2-1.7,0.7c-0.8-0.6-0.5-1.4-0.1-2.1c1.9-2.9,3.1-6.1,4.3-9.4c0.3-0.7,0.7-1.3,1.4-1.5
		C148.2,652.3,149.2,651.6,149.8,649.9z M183.9,657.9c-1.1-0.6-2.2,0.2-3.2-0.4c1-0.2,2-0.3,2.9-0.6c0.8-0.2,1.6-2.4,0.9-2.9
		c-1-0.6-2.1-0.8-3.3-0.5c-0.9,0.2-1.3,0.7-1,1.7c0.1,0.4-0.2,1-0.5,1.4c-0.5,0.5-0.4,0.7-0.1,1.3
		C180.7,659.8,181.9,659.8,183.9,657.9z M195.8,610.4c-1,0.9-2.1,1.3-3.3,1.5c-0.6,0.1-1.2,0.5-0.8,1.2c0.4,0.7,1.1,1.7,1.7,1.1
		C194.5,613.2,195.6,612.1,195.8,610.4z M148.2,656.3c-0.1-0.4,0.3-1-0.3-1.3c-0.2-0.1-0.6,0.1-0.7,0.2c-0.2,1.4-1.4,2.3-1.6,3.6
		c0,0.3-0.1,0.7,0.2,0.9c0.3,0.2,0.6-0.1,0.9-0.2C148,658.8,148.2,657.7,148.2,656.3z M152.8,675.1c0-0.6,0-0.8,0-1.1
		c0-0.5,0.1-1.3-0.7-1.3c-0.7,0-0.9,0.6-0.9,1.2c0,0.7,0.1,1.4,0.2,2.1c0,0.4,0.2,0.8,0.6,0.7c0.4,0,0.7-0.3,0.8-0.7
		C152.9,675.7,152.8,675.3,152.8,675.1z"/>
	<path d="M195.4,415.9c3.7-0.2,7.2,1.2,10.9,1.7c5.4,0.8,10.9,1,16.3,1.3c5.1,0.3,10.1,0.5,15.1,1c3.3,0.4,6.6,0.9,10,1
		c1.8,0,3.6,0,5.4-0.3c2-0.2,3.9,0.2,5.8,0.1c0.3,0,0.7,0.2,0.8,0.4c1.2,3.6,4.2,6.2,5.6,9.7c0.5,1.3,2.1,2,3.4,2.2
		c1.5,0.3,0.9-1.1,0.7-1.7c-0.6-1.7-1.3-3.3-2-5c-0.1-0.3-0.3-0.6,0-0.9c1.5,0.7,1.3,2.4,1.9,3.6c1,2.2,2.1,4.2,4.1,5.7
		c0.3,0.2,0.5,0.4,0.6,0.7c1.7,3.8,4.8,6.2,8.3,8.2c0.5,0.3,1.4,0.5,1.3,1.2c-0.1,0.7-0.9,0.2-1.3,0.3c-0.7,0.2-0.4,0.7-0.1,1.1
		c3,4.3,3.8,9.3,4.3,14.4c0.4,3.2-0.8,7-3.8,8c0-1,1.2-1.6,0.7-2.6c-0.3-0.5-0.8,0.3-1.3,0.1c1.2-2.4,2.9-4.5,2.9-7.3
		c0.1-4.2-1.3-7.9-2.9-11.7c-0.9-2.2-2.4-3.6-4.7-4.3c-1.5-0.4-2.6-1.5-3.5-2.9c-1.5-2.2-4-3.3-6.1-4.9c-3.1-2.3-5.5-5.3-7.2-8.8
		c-0.7-1.5-1.5-2-3.2-2.1c-3.9-0.1-7.7-0.6-11.6-1c-6.2-0.5-12.4-0.6-18.5-1.5c-5.9-0.8-11.8-1.5-17.6-2.3
		c-6.7-0.9-13.4-1.7-20.1-2.6c-4.3-0.6-8.6-1.6-12.9-2.5c-0.2,0-0.3-0.4-0.5-0.6l0,0c5,0.4,10,0,14.9,1.1
		C192.7,415.3,194.2,415.1,195.4,415.9c-0.9,0.5-1.9-0.7-3.2,0.1c1,0.8,2,0.7,2.8,1c0.3,0.1,0.7,0.2,0.8-0.2
		C196.1,416.4,195.4,416.3,195.4,415.9z M222.6,419.9c6.3,0.3,12.5,2,18.8,1.6C235.2,420.2,228.9,419.6,222.6,419.9z"/>
	<path d="M495.4,260.2c1.8-2.4,3.7-4.9,5.5-7.3c5.9-7.8,14.1-12.9,21.8-18.6c4.3-3.2,8.9-5.9,14.2-7.3c1.5-0.4,2.9,0,4.4,0
		c0.8,0,0.7,0.6,0.6,1.3c-0.7,2.8-1.7,5.5-2.7,8.2c-3,8.3-6.8,16.4-9,25c-1.7,6.8-3.4,13.7-5.9,20.3c-1.8,4.7-2.9,9.8-5.2,14.2
		c-2.6,5.1-3.5,10.7-6,15.8c-0.3,0.6-0.3,1.2-0.1,2c0.7-0.6,1.2-1.2,1.6-2c1.9-3.7,3.7-7.7,6.8-10.5c1.4-1.3,2.3-2.8,3.8-4
		c-8.6,11.7-14.6,24.9-21.6,37.5c1.2-3.4,2.3-6.7,3.5-10.1c2.5-6.6,5.4-13.1,7.6-19.9c1.4-4.5,3.6-8.6,5.1-13
		c1.7-5.1,3.3-10.2,5.1-15.2c3.3-9.2,5.1-18.9,8.7-28c2.1-5.4,3.9-11,5.9-16.5c0.3-0.9,0.7-1.9,0-2.6c-0.7-0.8-1.8-0.4-2.7-0.1
		c-2.7,0.8-5.1,2.2-7.6,3.4c-3.2,1.5-6.4,2.9-9.3,5c-4.3,3-8.5,6-12.2,9.7c-4.1,4.2-8.3,8.2-11.7,12.9
		C495.7,260.4,495.5,260.3,495.4,260.2z"/>
	<path d="M464.5,350.2c0.5,2.3-0.3,3.9-0.9,5.6c-1,2.8-1.6,5.8-2.4,8.7c-1.1,4.3-2.2,8.5-3.4,12.8c-0.1,0.5,0,1.1-0.8,1.2
		c-0.7,0-0.8-0.5-1-1c-2-5.3-3.8-10.6-4.1-16.3c-0.1-1.6-0.7-3.3-0.8-4.9c-0.4-5.6,0.2-11.3,1.1-16.8c0.4-2.9,0-5.8,0.5-8.7
		c1.1-5.7,2.2-11.4,4-17c2.2-7.1,4.8-14.2,7.9-21c2.4-5.1,4.6-10.4,7.4-15.3c1.8-3.1,3.8-6,5.7-8.9c0.9-1.4,2.6-2.2,4.2-2.8
		c0.7-0.3,1.1,0,1.1,0.8c-0.3,5,0.7,10-0.7,15c-0.5,1.7-0.3,3.6-0.2,5.5c2.1-2.8,1.3-6.9,4.7-8.9c0.2,0.7-0.3,1.3-0.7,2
		c-2.1,4.8-3.3,9.9-5.2,14.7c-0.2,0.4,0,1.4-0.9,1.2c-0.8-0.2-0.6-1-0.5-1.7c0-0.2,0-0.4,0.1-0.6c2.7-5.9,1.7-12.3,2.4-18.4
		c0.2-2-0.1-4.2-0.2-6.3c0-0.4,0.1-0.8-0.3-1c-0.5-0.1-0.7,0.3-0.9,0.6c-2.2,2.6-4.1,5.4-5.8,8.4c-1.2,2.1-3.1,3.6-4.3,5.8
		c-3.1,5.6-5.8,11.4-8.1,17.3c-1.2,3.1-2.1,6.3-3.3,9.4c-0.9,2.2-2.3,4.3-2.6,6.8c-0.7,6.5-2.8,12.7-3.1,19.3
		c-0.2,4.4-1,8.8-0.6,13.3c0.6,6.9,0.4,13.9,1.9,20.7c0.2,0.8,0.5,1.6,0.7,2.4c0.1,0.6-0.1,1.4,0.8,1.5c0.8,0,1.3-0.5,1.7-1.2
		c1-1.8,1.4-3.9,1.7-5.9c0.7-4.3,2.8-8.2,3.6-12.4C463.4,352.7,463.5,351.5,464.5,350.2z"/>
	<path d="M291,191.9c0.3,0,0.5-0.1,0.8-0.1c0.5-0.1,1.3,0.4,1.5-0.3c0.3-0.8-0.6-0.8-1-1.2c-1.5-1.6-3.7-2.5-5.1-4.3
		c0.8-0.2,0.9-0.9,0.8-1.7c-0.8-5.7-1.8-11.4-5.4-16.1c-2.7-3.4-5.8-6.7-10-8.1c-2.2-0.7-4.5-1.4-6.9-1.9c-0.3-0.1-0.7-0.2-1.5-0.5
		c2.7-0.2,4.6,1.1,6.7,1.2c-5-3.5-10.7-4.4-16.7-3.7c4.7-1.3,4.7-1.2,12.4,0.4c3,0.6,5.5,2,7.9,3.8c2.3,1.8,5.2,2.6,7.1,4.9
		c2.5,3.1,5.1,6.1,5.5,10.3c0.1,0.7,0.5,1.4,0.7,2.2c0.7,2.1,0.4,4.3,0.7,6.4c0.3,2.1,1.2,3.6,3.1,4.6c1.1,0.6,1.7,0.1,1.6-1
		c-0.4-6.9,1-13.6,1.2-20.5c0-0.6,0.1-1.3,0.3-1.9c1.4-5.4-0.4-10-3.4-14.5c-3.4-4.9-7.8-8.9-12-13.1c-2.9-3-5.5-6.3-8.3-9.4
		c-1.3-1.4-2.4-3-4.4-3.7c-1.2-0.4-2-0.4-2.9,0.4c0,0,0,0,0,0c0.4-1.4,1.2-1.8,2.6-1.3c1.5,0.5,2.5,1.3,3.6,2.5
		c5.8,6.2,11.7,12.3,17.3,18.6c2.8,3.2,5.7,6.5,7.3,10.6c0.2,0.4,0.2,1.2,0.9,1.1c0.6-0.1,0.6-0.8,0.6-1.3c2-10,6.8-18.8,11.1-27.9
		c2.1-4.5,4.9-8.6,8.4-12.1c1.9-1.9,3.2-4.4,5.4-6c0.3-0.2,0.5-1,1-0.4c0.7,0.6,0,0.9-0.4,1.1c-1.8,1.4-3.2,3.2-4.5,5
		c-1.3,1.9-2.8,3.7-4.5,5.3c-2.6,2.5-4,5.8-5.6,9c-2.9,6.1-5.8,12.2-8.2,18.5c-2.1,5.3-3.2,10.8-3.5,16.6c-0.2,4.7-0.7,9.3-1,14
		c-0.3,4-0.7,8.1,0.3,12.1c0.5,2,0.2,4.1,0.3,6.2c0.2,3.4,1,6.7,1.6,10.1c0.1,0.5,0.5,1.2-0.1,1.6c-0.7,0.4-0.9-0.5-1.3-0.8
		c-1.7-1-3.7-1.4-5.4-2.5c-0.4-0.3-0.9-0.4-1.3-0.7c1.6,0.5,3.4,0.2,5,0.9c1.2,0.5,1.5-0.2,1.4-1.3c-0.4-2.7-0.7-5.4-0.8-8.1
		c0-0.9-0.5-1.6-1.4-1.9C292,192.8,291.1,192.8,291,191.9C291,191.9,291,191.9,291,191.9z"/>
	<path d="M419.7,531.2c6.4-0.1,12.4-0.9,17.9-4.2c-2,1.8-4,3.8-6.2,5.4c-1.2,0.9-1.7,1.6-0.8,2.9c1.3,2.1,3,4.2,3.7,6.5
		c2.4,8.4,7.6,15.2,11.6,22.8c1.8,3.5,3.5,7,5,10.6c0.8,1.8,1.6,3.7,4.1,3.7c-0.3,1-2.2,0.2-1.6,1.5c0.6,1.4,1,3.1,2.5,3.9
		c1.4,0.7,2.9,1.4,4.6,1.4c-0.8,0.5-1.8,0.7-2.6,0.5c-1.8-0.6-1.5,0.1-1.2,1.4c1.3,5.7,5.4,9,10.1,11.6c0.3,0.2,0.6,0.3,1.4,0.7
		c-1.7-0.1-2.6-0.7-3.5-1.2c-1-0.5-2.1-0.8-3.3-1.1c1.3,2.8,3.5,4.9,5.8,7.3c-1.7-0.2-2.2-1.5-3.2-2.1c-0.7-0.4-1.2-1.5-2.1-1
		c-1,0.6-0.1,1.6,0.1,2.5c0.1,0.7,0.5,1.4,0.8,2.2c0.2,0.5,0.6,1-0.1,1.3c-0.8,0.3-0.7-0.5-0.9-1c-1.6-4.5-3.1-9.1-4.8-13.6
		c-2.9-7.8-6.1-15.6-10.1-22.9c-4.1-7.4-7.9-15-12.1-22.4c-2.8-4.8-5.7-9.7-9.1-14.1c-0.9-1.2-2.6-1.3-4-1.7
		C421.1,531.8,420.4,531.9,419.7,531.2z"/>
	<path d="M361.3,392.3c7.1,4.8,11,12.3,15.2,19.6c-0.6,0.5-1.3-0.8-1.7,0c-0.3,0.7,0.3,1.2,0.8,1.7c1.1,1.2,1.6,2.7,2.4,4.1
		c0.4,0.7,0,0.8-0.6,0.9c-1,0.2-2.2,0.6-0.9,2c0.5,0.5,0.1,0.9-0.3,1c-1.7,0.7-1,2.3-1.4,3.5c-0.2,0.6,1,0.6,1.1,1.3
		c-1.5,0.7-1.6,2.2-1.2,3.6c0.4,1.3-0.6,2.8,0.9,3.8c0.2,0.1-0.1,0.4-0.3,0.6c-1.5,1.6-1.7,3-0.6,5c-1.3,0.3-2.9,0.5-1.7,2.5
		c0.3,0.4-0.2,0.6-0.6,0.7c-1.6,0.4-2,1.2-0.8,2.6c-2.3,0.3-3.6,1.5-4,3.5c-0.1,0.3-0.1,0.5-0.4,0.5c-0.3,0.1-0.5-0.1-0.5-0.4
		c-0.1-1.7-1.2-1.1-2.1-0.9c-1.2,0.2-2.4,1.1-3.7,0.2c-0.1,0-0.1-0.1-0.2-0.1c-1.2,0-1.8-0.7-2.3-2.5c-0.2-0.7-1.3-1.1-0.6-2
		c0.4-0.1,0.5,0.2,0.6,0.5c1.5,3.6,5.5,4.5,8.5,1.7c1.4-1.4,3-2.9,2.9-5.2c0-0.3,0.1-0.7,0.3-0.9c2.5-2.9,1.8-6.6,2.7-9.9
		c1.1-3.9-0.5-7.8-0.8-11.6c-0.2-3-1.4-5.8-1.4-8.9c0-0.8-1-2-1-3.2c0-0.1-0.3-0.4-0.4-0.3c-0.4,0-0.5,0.3-0.6,0.6
		c-0.3,2.1-1.5,3.9-1.9,6.1c0-2.4,0.1-4.7,0-7.1c-0.2-2.4-0.2-4.8-1.4-7.1C364.2,396,362.2,394.4,361.3,392.3z M367.5,405.2
		c0.8-1.3,0.8-2.4-0.3-3.9C366.9,403,366.8,404.1,367.5,405.2z"/>
	<path d="M273.1,266.6c2.5,0,4.9,0.1,7.1-1.5c0.1-0.1,0.3-0.2,0.4-0.3c1-1.4,1-1.4,2.2-0.8c0.6-0.7-0.6-1.4,0-2.1
		c0.3-0.4-0.2-0.7-0.7-0.6c-0.9,0.1-1.5,0-1-1.1c0.3-0.7-0.3-0.6-0.7-0.8c-2.1-1.5-4.1,0.5-6.2-0.2c-0.8-0.2-1.6-0.1-2.1-0.9
		c-0.7-1-0.6,1.1-1.4,0.4c-0.3-0.2-1.1,0.6-1.3-0.1c-0.3-0.9,0.6-0.5,0.9-0.7c0.5-0.3,2.1-0.4,2.6,0c1.2,0.8,5.7,0.6,6.8-0.2
		c0.7-0.5,0.3-1.1,0.3-1.8c1.9,0.5,3.2,1.5,4.1,3.2c1.1,2.1,3.4,3.2,4.6,5.3c0.2,0.4,1.3,0.9,1.7,0.2c0.6-0.8-0.3-0.8-0.8-1
		c-0.6-0.3-0.5-0.9,0-1c0.9-0.2,1.5-0.3,1.5-1.4c0-0.2,0.4-0.3,0.6-0.2c0.3,0.1,0.4,0.4,0.2,0.7c-0.5,1,0.1,1.1,0.8,1.1
		c0.3,0,0.7,0,0.7,0.4c0.1,0.3-0.2,0.5-0.4,0.5c-0.9,0.4-1.3,1.1-0.6,1.8c0.6,0.6,1.3,0.3,1.7-0.6c0.4-0.8,1-0.8,1.2,0
		c0.3,1,0.7,0.8,1.4,0.6c1.6-0.5,2.4-2.4,4.3-2.8c0.3-0.1,0.8-1.4,2-1.2c0.2,0,0.2-0.4,0.1-0.7c-0.1-0.2-0.1-0.5-0.1-0.7
		c1.4-0.1,2-1,2.4-2.1c0,0,0.4,0,0.5,0c0.1,0.1,0.2,0.4,0.2,0.5c-0.2,1.2,1.9,1.4,1.4,1.9c-1.1,1.1-1.9,2.5-3.2,3.5
		c-0.6,0.4-1.2,0.8-1.7,1.3c-0.4,0.4-1.2,0.7-1,1.3c0.3,0.9,0.9,0.1,1.5,0.1c0.4,0,0.5,0.2,0.7,0.5c1,1.8,2.3,2.3,4.1,1.6
		c0.4-0.1,0.7-0.1,0.8,0.2c1.1,2.7,3.4,1.5,5.2,1.7c1.2,0.1-0.2-1.9,1.2-1.6c0.8,0.2-0.1,1.7,1.3,1.7c2.1,0,4.1,0.3,6.2,0.5
		c0.6,0,1.4-0.2,1.4,0.5c0,0.8-0.9,0.5-1.4,0.5c-3.1,0.2-6.3,0.4-9.4,0.5c-4.9,0.2-9.6-0.8-13.8-3.7c-1.6-1.1-3.6-1.1-5.4-1.3
		c-2.1-0.2-3.7-1-5.2-2.2c-1.5-1.2-2.8-1.1-4.2,0c-3.2,2.3-6.7,2.3-10.4,1.7C273.8,267.1,273.3,267.2,273.1,266.6L273.1,266.6z"/>
	<path d="M279,223.5c-0.4,0.9-1.2,1.4-2.2,1.6c-0.4-0.8-0.1-1.4,0.5-1.9c0.8-0.7,1.2-1.7,1.6-2.6c1-2.8,0.6-5.3-2-7.2
		c-0.7-0.6-1.4-1.2-2-2c-0.9-1.4-2.9-1.4-4.2-0.4c-1.3,0.9-2.5,2-4.2,2.4c-0.9,0.2-1.5,0-0.9-1.1c0.2-0.3,0.7-0.8,0-1.1
		c-0.6-0.2-1,0-1.1,0.7c-0.1,0.4-0.2,0.7-0.7,0.8c-1.2,0.4-1.4,1-0.2,1.8c0.4,0.3,1.2,0.8,0.6,1.3c-0.9,0.9-0.9-0.4-1.3-0.7
		c-0.4-0.2-0.7-0.6-1-0.9c-0.5-0.3-0.6-0.7-0.1-1c1.8-0.9,2.8-2.7,4.3-4c1.2-1,1.9-2.3,2.3-3.7c0.3-0.8,0.8-1.7-0.1-2.2
		c-1-0.6-2.2-1.5-3.5-0.3c-0.4,0.4-0.7,0.7-1.2,1.2c0.4,0.3,0.7,0.5,1,0.7c0.2,0.2,0.4,0.4,0.2,0.7c-0.2,0.3-0.5,0.3-0.8,0.1
		c-1.8-1.1-3.1-0.2-4.3,1.1c-0.3,0.3-0.5,0.4-0.8,0.4c-1.8,0-3.6,0-5.4,0c-0.7,0-1.4-0.4-1.3-1.1c0.1-0.6,0.5-1.5,1.6-1.3
		c2.1,0.3,3.9-0.3,5.3-2.1c0.7-0.9,1.4-2,2.8-2.1c0.7-0.1,0.9-0.6,0.3-1.3c-1.1-1.4-2.1-2.9-3.4-4.2c-0.8-0.8-1.6-2.2-3.3-1.4
		c-0.4,0.2-0.9-0.2-1.2-0.5c-0.4-0.3-0.7-0.7-1.1-1.1c-2.8-2.8-3.3-2.9-6.7-1c-0.4,0.2-0.8,0.4-1.2,0.7c0,0-0.1,0-0.2-0.1
		c-0.3-1,2.2-1.6,0.5-2.8c0.5-0.5,1-1.1,1.8-0.9c0.7,0.2,1.5,0.2,2,0.6c2.9,1.9,6.3,2.7,8.9,5c1.7,1.5,3.2,3.2,4.7,5
		c1.7,1.9,3.6,3.2,6.2,3.5c1.8,0.2,3.4,1.2,5.3,1c0.3,0,0.8,0,0.6,0.5c-0.2,0.5-0.5,1.1-1.3,0.9c-1.2-0.4-2.4-0.8-3.7-0.7
		c-0.5,0.5,0,0.9,0.1,1.2c0.2,0.8-1.4,4.1,1.7,1.4c0.5-0.4,1.1,0.2,0.7,1c-0.2,0.4-0.3,0.8,0.1,1c0.3,0.2,0.7-0.4,0.9-0.4
		c2.2-0.3,3.5,1.8,5.5,2.3c0.8,0.2,0.9,1,0.2,1.7c-0.2,0.2-0.5,0.6-0.2,0.9c1.9,2.1,2,5.3,4.1,7.1c1.2,1.1,2.4,2.1,4,3.6
		c-1.8-0.5-3.2-1.6-4.5-0.1c-0.4-0.6,0.1-0.9,0.2-1.3c0.2-0.5,0.3-0.9-0.2-1.2c-0.7-0.4-0.7,0.4-0.9,0.7c-0.4,0.7-1.1,1.1-1.7,1.5
		c0.3-0.4,0.5-0.8,0.8-1.1c1.3-1.3,0.7-2.4-0.2-3.5c-0.2-0.3-0.7-0.7-0.9-0.2C279.7,219.8,278.6,221.5,279,223.5z M267.1,210.7
		c0.8-0.6,1.7-1.3,2.6-2.1c0.1-0.1,0.1-0.4,0-0.5c-1.1-0.6-1.3,1-2.2,1.1c-0.4,0-0.9,0.3-1,0.8C266.4,210.3,266.4,210.8,267.1,210.7
		z"/>
	<path d="M263.2,236c-0.6,0.7-1.2,0.1-1.7,0.2c-0.5,1.8,1.8,2.5,1.3,4.2c-0.1,0.2,0.5,0.2,0.8,0.2c0.3,0,0.7-0.1,0.7,0.4
		c0,0.4-0.2,0.5-0.5,0.7c-1.6,0.6-1.1,1.4-0.2,2.1c0.3,0.3,0.9,0.3,0.5,1c-0.9,1.6,0.1,2.9,0.9,4.1c0.1,0.2,0.4,0.4,0.5,0.5
		c-1.3,1.3-0.1,2.8-0.4,4.2c-0.3,1.4,0.1,3.2,1.3,4.1c0.5,0.4,0.6,0.7,0,1c-1.3,0.7-1.3,1.5-0.3,2.4c0.4,0.3,0.5,0.6,0.3,1.1
		c-0.3,0.8-0.2,1.3,0.9,0.8c0.4-0.2,0.6-0.1,0.8,0.2c0.1,0.1,0.1,0.4,0,0.5c-0.2,0.3-0.5,0.3-0.9,0.2c-1.5-0.3-2.3-0.7-2.6-2.6
		c-0.7-4.6-0.7-9.3-1.5-14c-0.6-3.7-1.5-7.3-2.3-10.9c-0.5-2.3-2.2-3.6-4.4-3.8c-0.5-0.1-1-0.3-1.5-0.7c-1-1-2.3-1.8-3.9-0.8
		c-0.5,0.3-0.9-0.1-1.3-0.2c-5.9-1.4-11.7-3.3-17.7-4.1c-4.5-0.6-8.8-1.5-12.9-3.1c-4-1.5-7.9-3-11.8-4.7c-2.9-1.2-5.9-1.8-9-2.2
		c-0.4-0.1-0.8-0.1-1-0.7c1.1-0.3,2.2,0.1,3.1,0.5c1.8,0.7,3.7,0.2,5.4,1.3c0.4,0.2,0.8,0.2,1.2-0.3c0.3-0.4,0.7-0.5,1.1,0.1
		c1,1.6,2.2,2.4,4.1,1.6c0.3-0.1,0.6-0.2,0.8,0.2c0.9,1.8,2.4,2,4.1,1.7c0.7-0.1,0.8,0.4,1.2,0.7c0.6,0.5,1.4,1.6,1.9-0.2
		c0.1-0.4,0.5-0.4,0.8-0.3c0.3,0.1,0.4,0.5,0.2,0.8c-0.6,1-0.1,1.1,0.7,1c0.5-0.1,0.9,0.1,1.2,0.4c0.2,0.2,0.7,0.6,0.8,0.5
		c2.1-1.4,2.9,1.2,4.5,1.5c1.4,0.2,2.9-0.7,4.2,0.6c0.1,0.1,0.6,0,0.5-0.3c0-0.2-0.2-0.5-0.4-0.6c-1-0.4-1.9-1.2-3.1-0.6
		c-0.5,0.2-1,0.1-0.9-0.5c0-0.5,0.5-0.6,0.9-0.5c1.4,0.4,3,0,4.3,0.8c0.5,0.3,1,0.3,1.4-0.1c0.3-0.2,0.8-0.4,0.9,0.1
		c0.5,2,2.2,1.6,3.5,1.7c0.7,0.1,1.3-0.1,1.8,0.6c0.2,0.2,0.7,0.5,0.8,0.4c1.9-1.7,2.7,1.2,4.2,1.1c0.2,0,0.5,0.3,0.7,0.3
		c1.6-0.3,2.7,0.1,3.8,1.3c0.4,0.4,1.1,0.5,1.1-0.5c0-0.3-0.1-0.7,0.3-0.8c0.4-0.1,0.6,0.1,0.8,0.4c0.8,1.1,1.5,2.2,2.1-0.1
		c0.1-0.5,0.6-0.3,1,0c0.3,0.3,0.5,0.7,1,0.4c0.5-0.4,0.3-0.8,0-1.2c-0.3-0.3-0.4-0.7,0.1-0.9c0.3-0.2,0.7,0,0.7,0.1
		c-0.5,1.4,2,1.2,1.3,2.6c-0.2,0.4-0.8,0.6-0.5,1.1C260.6,232.2,261.1,234.6,263.2,236z"/>
	<path d="M323.1,415.4c0.1-1.2,0.6-1.9,1.9-0.9c0.5-1.6,2.2-0.8,3.1-1.7c0.7-0.8,2.6-0.7,1.4-2.6c-0.2-0.3,0.4-0.6,0.7-0.7
		c0.6-0.1,1.1-0.9,0.9-1c-1-1,1.6-2.6-0.6-3.3c-0.2-0.1-0.1-0.7,0.2-1c1.5-1.2,1.4-4.5-0.1-5.3c-1.2-0.7-4.9,1.1-5.2,2.6
		c-0.1,0.4-0.1,0.9-0.6,0.8c-1.7-0.4-2.8,0.9-4.2,1.5c-1.6,0.8-1.9,2.6-0.8,4.1c0.4,0.5,0.3,1-0.2,1c-1.6,0.2-1.3,1.3-1,2.2
		c0.4,1.4,0.3,3,1,4.3c0.2,0.3,0.3,0.6,0,0.9c-0.4,0.3-0.7,0.2-1-0.1c-0.6-0.7-1.2-1.3-2.2-1.3c-0.6,0-0.5-0.7-0.6-1
		c-1.2-1.8,0.7-3.3,0.5-4.8c-0.5-3.4,2.4-5.2,3.1-8c0.2-0.8,1.8-1.4,3-1.7c1.2-0.3,2.4-0.7,3.7-1.9c-2.4-0.3-3.9,1-5.7,1.8
		c1.4-1.7,5.1-3.8,7-3.8c1.3,0,2.5-0.4,3.8-0.6c1.4-0.3,2.7,0.3,2.9,1.7c0.3,2.2,1.2,4.3,0.5,6.5c-0.6,2.1-0.8,4.2-1.5,6.3
		c-0.9,2.6-2.9,4-4.7,5.6c-1.3,1.2-2.8,2.3-4.9,1.9c-0.1,0-0.3,0-0.4,0.1c-0.3,0.4-0.5,1.5-1.1,0.9c-0.6-0.6-1.1-1.9-0.9-2.6
		C321.8,413.7,322.3,415.7,323.1,415.4z"/>
	<path d="M572.7,328.4c0.1-0.2,0.2-0.5,0.3-0.6c4.4-2.7,8.3-6.2,12.9-8.7c11.2-6.1,22.6-12.1,34.7-16.4c1.7-0.6,3.5-0.9,5.2-1.4
		c3.8-1.2,5.9,1.5,4.8,5c-1.1,3.7-1.3,7.4-1.8,11.2c-0.5,3.8-1.1,7.6-2,11.3c-0.7,3.1-1.4,6.1-3,8.9c-2.3,3.9-5.4,6.9-9.2,9.3
		c1.2-1.3,2.5-2.6,3.7-3.9c2.5-2.8,5.1-5.6,6.1-9.4c1.4-5.1,2.5-10.3,3-15.6c0.3-3.6,1.2-7.2,1.8-10.8c0.1-0.8,0.3-1.6,0.1-2.3
		c-0.3-1.3-0.9-2.2-2.5-2.1c-3.2,0.3-6,1.7-9,2.6c-1.6,0.5-3.3,0.6-4.8,1.4c-6.6,3.4-13.6,6.2-20.1,9.9c-6.4,3.6-12.8,7-18.8,11.2
		C573.6,328,573.1,328.2,572.7,328.4L572.7,328.4z"/>
	<path d="M155.3,410.2c1.2,0.8,2.4,0.8,3.4,1.1c0,0.2-0.1,0.3-0.1,0.5c-2.1-0.3-4.3-0.3-6.3-1c-3.1-1.1-6.3-1.1-9.5-1.8
		c-3.9-0.9-8-1.4-11.4-3.8c-0.6-0.4-1.5-0.7-1.3-1.5c0.2-0.7,1.3-0.9,2-0.8c2.9,0.4,5.8,0.9,8.6,1.7c3,0.8,6,1.9,9.2,1.8
		c2.4-0.1,4.6,1.1,6.9,1.6c2.3,0.5,4.6,1.4,6.8,2.2c0.6,0.2,0.5,0.6,0.4,1.1c-0.2,0.9-0.5,0.2-0.8,0.2c-1.1,0.1-2.1-1.1-3.2-0.1
		c-0.9-1.6-2.6-1-4-1.5C156,409.9,155.8,410.1,155.3,410.2z M138.3,406.4c1.6,1.2,3.3,1.6,5.3,1.5
		C141.9,406.9,140.2,406.4,138.3,406.4z"/>
	<path d="M355.1,374.2c-3-2-6-4-9-5.9c-3.8-2.5-8.1-2.9-12.5-3.1c-0.8,0-1.5,0.4-2.3,0.4c2.5-1.4,4.3-3.5,5.9-5.6
		c1.3-1.7,3-3,4.7-4.2c0.4-0.2,0.8-0.5,1.2-0.6c1.1-0.3,1,0.1,1.5,0.9c0.6,1.1,1.7,2.1,3,2.1c2.1,0,3.9,0.3,5.6,1.6
		c1,0.7,2.3,0.3,3.4,0.4c1.1,0.1,2.3-0.3,3.6,0.8c-1.8,0-3.3,0.1-4.7,0c-1.4-0.1-1.3,0.4-0.9,1.5c1.4,3.7,4.8,4.7,7.9,6.2
		c-0.3,0.6-0.7,0.1-1.1,0.1c-0.4-0.1-0.9-0.2-1.3-0.3c-0.7-0.1-1.7-0.5-1.9,0.3c-0.2,0.9-0.7,2.2,0.6,2.9c1.5,0.9,3.1,1.8,4,3.5
		c-1.3-0.6-2.6-1.2-3.9-1.8c-0.4-0.2-0.8-0.6-1.2-0.1c-0.4,0.5,0,0.9,0.3,1.4c0.7,0.9,1.8,1.3,2.1,2.6
		C358.4,376.2,356.4,375.8,355.1,374.2c1.2,0.4,1.6-0.4,1.8-1.4c0.8-3.5-0.6-6.5-3.1-8.7c-3-2.7-6.4-4.9-9.6-7.4
		c-0.9-0.7-1.6-0.5-2.5-0.1c-2.7,1.4-3.7,3.8-4.1,6.7c-0.1,0.5,0.1,0.8,0.6,0.8c3.4-0.1,6,1.6,8.5,3.8
		C349.3,370.1,352.7,371.4,355.1,374.2z"/>
	<path d="M575.8,677.5c1.2,2.5,2.6,5,3.7,7.5c1.1,2.4,3,4,4.6,5.9c0.9,1,3.7,0.6,4.7-0.5c1.9-2,3.5-4.3,4.7-6.8
		c0.8-1.5,1.6-2.2,3.4-2.1c3.9,0.1,7.9-0.3,11.7-1c1.8-0.3,3.4-1.3,4.7-2.5c1.3-1.2,0.7-4-0.8-5.9c-2.8-3.6-6-6.7-9.7-9.3
		c-1-0.7-1.1-1.6-0.7-2.5c0.9-2.3,1.7-4.6,2-7c0.2-1.1,0.8-1.3,1.9-1.4c2.5-0.2,4.7,0.6,6.9,1.5c2.2,0.9,4.4,1.4,6.8,0
		c-0.9,1.9-3,2.6-5.3,2.1c-2.5-0.6-4.7-2-7.3-2.4c-2.4-0.3-2.4-0.4-2.9,2c-0.3,1.6-0.7,3.2-1.3,4.6c-0.4,1.1-0.2,1.7,0.6,2.4
		c0.8,0.7,1.7,1.5,2.6,2c2.8,1.7,4.7,4.4,6.9,6.7c3.5,3.7,2.4,7.7-2.5,9.7c-1.8,0.7-3.8,0.9-5.7,1.1c-2.8,0.3-5.5,0.4-8.3,0.5
		c-1.1,0-1.7,0.3-2.3,1.5c-1.6,3.1-3.6,6-6,8.5c-0.8,0.8-4.9,0.2-5.7-0.6c-3.1-3.1-4.9-6.9-6.3-11
		C575.9,679.6,575.1,678.8,575.8,677.5z"/>
	<path d="M577.3,644.4c-0.4-4.5-1.4-8.9-0.8-13.4c0.3-2.1-0.3-2.8-2.3-1.9c-3.8,1.8-7.7,3.5-10.7,6.7c-0.9,0.9-1.2,2-0.9,3.2
		c0.6,2.9,1.2,5.8,1.7,8.7c0.2,0.9,0.5,1.9-1,2.3c-2.9,0.6-5.7,1.6-8.5,2.6c-2.8,0.9-5.4,2.1-8.1,3c-0.6,0.2-1.2,0.4-1.4,1.2
		c-0.2,0.7-0.5,1.6,0.1,2.2c0.6,0.6,1.2-0.2,1.7-0.4c4.9-2.3,10-3.7,15.3-4.4c0.3,0,0.6-0.1,1-0.1c0.4,0,0.8,0.2,0.9,0.6
		c0.1,0.5-0.5,0.6-0.8,0.6c-2.2,0.1-4.3,0.5-6.5,1c-3.6,0.7-7.1,1.6-10.3,3.6c-0.6,0.4-1.1,0.6-1.8,0.2c-0.7-0.4-0.5-1.1-0.4-1.8
		c0.1-1.6,0.8-2.6,2.4-3.3c5-2,9.9-4.4,15.1-5.8c0.9-0.2,1.1-0.7,0.9-1.6c-0.5-2.1-1-4.2-1.2-6.4c-0.3-2.6,0-4.8,2.2-6.7
		c3-2.6,6.4-4.3,9.8-6.1c0.4-0.2,1-0.3,1.5-0.4c2.9-0.5,3.2-0.1,3.1,2.8c-0.1,3.8,0,7.6-0.1,11.4C578,642.7,578.3,643.6,577.3,644.4
		z"/>
	<path d="M529.6,289.4c-1-1.5-0.4-3.1,1.3-3.8c0.3-0.1,0.4-0.2,0.5-0.5c1.6-4.6,4.4-8.6,7.5-12.4c3.4-4.2,6.7-8.4,10.1-12.7
		c1.4-1.8,3.3-3,5.4-4c1.7-0.9,3-0.5,3.9,1.3c1.7,3.4,3.8,6.5,5.8,9.7c1.4,2.3,1.9,5,2.3,7.6c0.4,2.5,0.8,5,1.3,7.5
		c1,5,1.5,10,0.7,15.1c-0.2,1.3,0,2.6,0,4.1c-0.9-0.5-0.8-1-0.7-1.4c0.9-7.7,0-15.2-1.8-22.6c-0.6-2.7-1.4-5.3-2.1-8
		c-0.9-3.3-3.6-5.4-5.1-8.4c0-0.1-0.1-0.1-0.1-0.2c-2.3-3.5-2.8-3.7-6.3-1.3c-1.1,0.7-2.5,0.3-3.3,1.6c-1.4,2.2-3.2,4.1-4.7,6.2
		c-2.6,3.7-5.9,6.8-8.2,10.8C533.9,281.7,531.8,285.5,529.6,289.4z"/>
	<path d="M204.6,338.5c-3.3,0.9-4.7-1.5-6.6-2.8c-0.9-0.7-1.7-1.6-2,0.6c-0.8-1,0.6-2-0.5-2.7c-1.1-0.6-1.1,1-2.1,0.7
		c-0.4-0.6,1.3-1,0.3-1.8c-0.8-0.7-1.5,0-2.3,0c0.1-1.2-0.5-1.9-1.5-2.6c-4.4-3.2-8.7-6.5-13-9.8c-4-3.1-7-7.2-10.8-10.5
		c-0.6-0.5-1.3-1.3-0.7-2c0.5-0.7,1.6-0.4,2.3-0.1c2.5,1.1,4.6,2.8,6.8,4.4c4.4,3.2,8.2,7.2,12.5,10.6c4.7,3.7,8.8,8.1,13.3,12
		C201.7,335.8,202.6,337.5,204.6,338.5z M194.9,331.9c-2.1-2.4-3.9-5-6.4-7c-6.8-5.7-13.2-11.7-20.8-16.4c-0.5-0.3-1.1-1.1-1.6-0.4
		c-0.5,0.6,0.3,1.1,0.7,1.4c4.6,4,8.4,8.8,13.5,12.3c3.5,2.4,6.8,5.2,10.3,7.8C191.9,330.6,193.2,331.6,194.9,331.9z"/>
	<path d="M243.7,212.9c-0.4,1.9,1.1,2.9,2,4c0.7,0.8,2.6,1.8,3.1,1.4c1.6-1,3.3,0.1,4.6-0.8c1.3-1,2.7-0.7,4-0.7
		c0.8,0,1.7-0.5,1.7,1c0,0.9,1.6-0.1,1.5,0.9c-0.1,1.2-1.3-0.1-1.6,0.5c-0.4,0.6,0,1.2,0.4,1.6c2.4,2.6,4.6,5.2,7.2,7.5
		c0.9,0.8,1,1.9,1.9,2.5c0.4,0.2,0.2,0.6-0.2,0.7c-0.4,0.1-0.7-0.1-0.6-0.5c0.2-1.1-0.6-1-1.3-1.2c-0.7-0.2-1.3-0.3-1.6-1.2
		c-0.2-0.7-1.2-1.3-1.6-1.1c-2,0.9-2.1-2-3.7-1.8c-0.5-2.1-2.7-2.7-3.8-4.2c-0.2-0.2-0.5-0.4-0.7-0.6c-1.2-1.2-1.4,2.2-1.7,0.7
		c-0.3-1.7-1.2-0.9-1.8-1.2c-0.9-0.4-1.8-0.3-2.8-0.1c-1.3,0.3-1.7-1.1-2.6-1.7c-0.4-0.2-0.6-0.8-0.9-0.9
		C242.3,217,242.4,215.2,243.7,212.9z"/>
	<path d="M417.9,319.5c0.9,0.1,0.7-0.8,0.6-1.7c-0.4-4.6-0.7-9.2-1-13.9c-0.3-4.1,0.2-8.1,0.7-12.1c0.9-6.1,1-12.3,0.8-18.5
		c-0.1-3.9,0.6-7.8,1.3-11.7c0.5-2.5,0.4-2.8-2.1-2.5c-1.7,0.2-3.3,0.8-4.6,1.8c-3.4,2.5-6.3,5.6-8.2,9.4c-0.7,1.5-2.2,2.2-2.9,3.8
		c-0.2-0.7,0.2-1.1,0.5-1.5c1.6-1.9,2-4.4,3.7-6.4c2.1-2.3,4.1-4.7,6.5-6.6c2.4-1.8,5.3-1.8,8.1-2.1c0.9-0.1,0.7,0.8,0.7,1.5
		c-0.1,3.9-1.9,7.4-2.1,11.2c-0.2,3.1-0.7,6.1,0,9.2c0.5,2.2-0.6,4.3-0.8,6.5c-0.4,6.2-1.3,12.4-0.8,18.7c0.4,4.7,0.4,9.4,0.7,14.1
		C419.4,320.8,418.1,319.4,417.9,319.5z"/>
	<path d="M331.8,199.4c-0.8,2.6-3.2,3.5-5.2,4.7c-2.3,1.3-4.4,2.9-6.7,4.2c-1.8,1-2.5,2.9-3.7,4.4c-0.4,0.6-0.8,1.6-1.3,0
		c-0.2-0.8-1-0.4-1.5-0.3c-2,0.4-3.8,1.2-5.6,2c-2.6,1.1-5.8,0.6-8,3c-0.7,0.8-2.2,0.2-2.9,1.4c-0.3,0.5-0.7,0-1-0.2
		c-0.9-0.6-2.1-0.8-2.9-1.5c-2-1.7-4.5-2.8-6.2-5.3c0.7,0.2,1.1,0.3,1.5,0.3c0.5,0.1,0.9,0.1,1.2-0.4c0.3-0.5-0.1-0.8-0.4-1.2
		c-0.6-0.7-1.2-1.3-1.8-2c1.5,0.3,3,0.6,4.3,1.4c2.6,1.6,5.5,2.7,7.9,4.7c0.4,0.4,0.9,0.3,1.5,0.3c4.5-0.2,8.5-2.1,12.7-3.4
		c3.3-1,5-4.1,8-5.3c1.9-0.8,3.7-2.1,5.5-3.1C329.1,202.1,330.4,200.7,331.8,199.4z M294.4,213.2c-0.5,0-0.8-0.1-1.1-0.1
		c-0.5,0-1.2-0.3-1.6,0.3c-0.3,0.5,0.3,0.9,0.4,1.4c0.6,1.9,5.1,3.2,7.5,2c0.3-0.2,0.8-0.5,0.3-0.8
		C298.3,214.8,297.2,212,294.4,213.2z"/>
	<path d="M152.8,644.8c1.2-2.9,3.4-5.4,4-9c-3.6,2.4-6.8,4.6-10.3,7c0.1-1.2,0.9-1.6,1.5-2c3.2-2.2,6.1-4.7,9-7.3
		c1.9-1.7,2.8-3.8,3.6-6c2.1-5.7,4.7-11.2,6.8-16.8c0.9-2.3,1.7-4.5,2.7-6.7c0.6-1.3,0.2-2.8,0.7-4.3c1.6-4.9,4.8-8.4,8.7-11.5
		c-0.4,0.5-0.8,0.9-1.3,1.4c-0.4,0.5-0.9,0.9-1.3,1.4c-3.1,3.3-4.2,7.5-5.6,11.7c-1.8,5.3-3.3,10.7-5.9,15.7
		c-1.9,3.7-3.2,7.8-4.8,11.7c-0.4,1.1-0.9,2.2-1.6,3.1c-1.7,2.2-1.6,5-2.7,7.3C155.4,642.2,154,643.3,152.8,644.8z"/>
	<path d="M255.8,188.6c-1.7-0.8-3-1.3-4.2-1.8c-1.8-0.8-3.5-0.6-5.1,0.4c-1.4,1-3,1.4-4.6,0.9c-1.2-0.4-1.6,0.1-1.6,1.1
		c-0.1,2.5-1.4,4.7-2,7.3c-0.6-0.6-0.3-1-0.3-1.4c0.3-1.7-0.4-2.6-2.1-2.7c-1-0.1-1.6-0.6-1.9-1.6c0.4-0.3,0.6,0.1,0.8,0.3
		c0.5,0.4,1.1,0.8,1.5,0.4c0.6-0.6-0.3-0.9-0.6-1.3c-0.4-0.7-0.9-1.3-1.4-2c0.5-0.5,0.8,0,1.2,0.2c0.2,0.1,0.7,0,0.7,0
		c0-1,0.1-2,0-3c0-0.3-0.8-0.4-1-1c-0.1-0.4-0.5-0.7-0.8-1c1.2-0.3,2.3,0.5,3.4,0.5c0.7,0,1.4,0.1,2-0.4c0.6-0.6,1.3-0.7,1.6,0.3
		c0.3,0.9,1,1,1.8,1.1c2,0.3,4.1,0.3,6.2,0.2C252.1,185,254.1,186.1,255.8,188.6z M246,186.3c-1.2-0.4-2.2-1.1-3.4-0.4
		c-0.4,0.3-1.1,0.3-0.9,1c0.1,0.6,0.7,0.4,1.1,0.4C244,187.3,245,186.9,246,186.3z"/>
	<path d="M558.7,338.3c-10.1,8.1-20.8,15.6-29.5,25.4c-0.2-1.1,0.4-1.6,1-2.2c4.9-5,10-9.8,14-15.6c2.8-4.1,5-8.6,7.4-12.9
		c0.7-1.3,1.4-2.5,2.5-3.5c-3,5.5-4.9,11.5-7.8,17.2C550.2,343.5,554.3,340.6,558.7,338.3z"/>
	<path d="M432,212c1.7-1.2,1.8-2.7,1.9-4.3c0.9,0.5,1.1,1.4,0.7,1.9c-1.5,1.9-1,4.6-2.7,6.4c-0.5,0.5-0.7,1.3-1.7,0.9
		c0.4-1,0.8-1.9,1.2-2.9c-1-0.5-1.2,0.5-2.1,0.7c2.5-2.1,2.4-4.8,2.8-7.3c0.2-1,0-2-0.6-2.8c-1.3-1.7-0.8-3.2,0.3-4.5
		c1.1-1.4,0.6-2.1-0.5-3c-1.3-1.2-2.8-1.6-4.6-1.6c-2.8,0.1-5.6,0-8.3-0.1c2.8-0.7,5.7-1.2,8.6-0.7c2.9,0.5,5.8,1,8.8,0.2
		c1.9-0.5,2.4-2.2,1-3.6c-1.8-1.6-3.9-2.8-6.1-3.7c-3.2-1.3-6-3.8-9.6-3.8c-2.8-0.1-5.5-0.5-8.3-0.7c2.9-0.3,5.9,0.1,8.7-0.7
		c0.5-0.1,1.2,0.4,1.8,0.6c4.6,2.3,9.6,3.9,13.6,7.4c0.9,0.8,1.6,1.5,1.2,2.8c-0.4,1.2-0.9,2.2-2.4,2.5c-1,0.2-1.9,0.3-2.9,0.3
		c-0.8,0-1.4,0.1-0.5,1.1c1.1,1.2,1,2.3-0.2,3.6c-1,1-1.3,2.2-0.3,3.6c1,1.4,0.9,3.1,0.4,4.7C432.1,209.8,432,210.7,432,212z"/>
	<path d="M559.4,671.7c4.3,3.8,10,4.2,15,6.2c-1.6,0.3-3-0.1-4.5-0.4c-4.5-0.7-8.4-2.6-12.1-5.2c-0.7-0.5-1.5-0.7-2.2-1.1
		c-1.1-0.6-1.2-1-1.1-2.8c2.6,2.4,6,1.7,9,2.7c1.5,0.5,2.9-0.1,4.4-0.3c1.4-0.1,0.5-1.2,0.3-1.6c-1-2.4-2-4.7-2.4-7.3
		c-0.4-2.3-0.7-4.7-1-7.3c1.2,1.2,1.1,2.5,1.3,3.7c0.5,3.4,2.1,6.4,3.3,9.5c0.2,0.5,0.5,1.1,0.6,1.6c0.6,2,0.2,2.4-1.7,2.5
		c-1.8,0-3.5,0.5-5.4,0.4C561.7,672.4,560.8,671.3,559.4,671.7z"/>
	<path d="M334.1,259c1.7-0.4,3.3-0.4,4.9-0.4c1.7,0,3.1,0.4,4,2c0.8,1.3,2.1,1.6,3.8,1.8c3.1,0.4,6.3-1.3,9.2,0.8
		c0.3,0.2,0.6,0.1,0.9-0.1c0.7-0.3,1.2-0.2,0.9,0.7c-0.1,0.3-0.1,0.8,0.2,0.8c1.7-0.3,1.5,2.1,3,2.1c0.2,0,0.3,0.4,0.1,0.7
		c-0.2,0.4-0.5,0.3-0.8,0.1c-0.6-0.5-1.2-1-1.8-1.5c-0.5-0.4-1-1-1.4-0.9c-1,0.1-2.2,0.7-1.8-1.2c-1.3,0.3-2.3-1.3-3.3-0.7
		c-1.1,0.6-1.9,0.7-2.9,0c-0.1-0.1-0.6,0.1-0.9,0.2c0.5,0.8,2.9,1.9-0.3,1.9c-0.1,0-0.2,0.1-0.3,0.2c-0.3,0.4,0.5,1.4-0.6,1.2
		c-1-0.2-0.1-0.9-0.1-1.4c0-0.5-0.4-0.3-0.7-0.4c-3.5-0.9-6.7-2.9-10.4-3.5c-1.1-0.2-2.2-1.1-3.5-0.5c-0.4,0.2-0.8-0.1-0.8-0.6
		c0-0.5,0.4-0.6,0.8-0.5c0.6,0.1,1.1,0.3,1.7,0.4c0.4,0.1,0.8,0.2,0.8-0.4C335.1,259.1,334.5,259.4,334.1,259z"/>
	<path d="M394.1,184c2.4-3,3.4-6.3,2.5-10.1c-0.3-1.2,0.3-2.4,0.4-3.6c0.3-3.2-0.1-6.4,1.3-9.4c0.5-1.1,0.3-2.4-0.1-3.6
		c-1.9-6.8-3.1-13.7-5.1-20.5c2.3,2.9,3.1,6.4,4,9.9c0.9,3.4,1.4,7,2.2,10.5c0.5,2.4,0.6,4.6-0.9,6.7c-0.7,0.9-0.6,2-0.5,3.1
		c0.2,2.8,0.2,5.5,0.1,8.3c-0.1,1.4,0.2,2.9-0.3,4.3C397,181.5,396,183.1,394.1,184L394.1,184z"/>
	<path d="M353.7,395.1c-1.9-0.3-2.4,0.4-2.2,3.1c-0.5-2.2-2.1-3.7-3.5-5.3c-0.4-0.4-0.8-0.9-1.3-1.1c-0.9-0.5-2-0.6-2.8-0.1
		c-0.8,0.6,0.6,1.2,0.4,2.2c-1.5-0.1-2.3-1.4-3.5-2c-1.3-0.7-5.1-0.2-5.9,1c-0.2,0.4-0.1,0.5,0.2,0.8c0.4,0.3,1,0.2,1.5,1.3
		c-5.8-3.5-11.4-2.1-17-0.8c4.7-1.4,9.3-3.3,14.3-3c1.2,0.1,2.4,0.1,3.7-0.2c1.5-0.3,3.2-0.9,4.7-0.2c1.1,0.5,1.5-0.6,2.4-0.5
		c2.4,0.1,4.3,1.4,6.5,2.1C352.6,392.7,352.3,394.6,353.7,395.1z"/>
	<path d="M400.9,390.4c-4.5,2.2-9.3,2.8-14,1.6c-2.3-0.6-4.9-0.7-6.9-2.5c-0.4-0.3-1.1-0.5-1.6-0.5c-1,0.1-1.9,0.5-0.8,1.7
		c2.5,2.8,5.2,5.3,9,6.3c1.4,0.4,2.8,1,4.2,1.5c-3.9,1-6.7-1.1-9.5-3.2c-2.5-1.9-4.8-4-7.1-6c-0.5-0.4-1.6-0.7-0.7-1.8
		c0.3-0.3-0.4-0.9-0.8-1.2c-0.8-0.6-1.6-1.1-2.8-2c2.7,0.6,4.4,2.1,6.5,2.8c3.9,1.3,7.8,2.8,11.6,4.1c4.2,1.4,8.1,0,12.1-0.9
		C400.4,390.5,400.7,390.5,400.9,390.4z"/>
	<path d="M258.1,419.8c-2.5-2.3-3.2-5.2-3.5-8.1c-0.6-4.1-2.3-7.7-4.1-11.2c-1.1-2.1-0.7-4.5-1.3-6.8c-0.2-0.9-0.8-1.9-0.4-2.9
		c1.8,2.7,1.1,6.5,3.8,9.1c0.8-0.8,0.4-1.8,0.7-2.6c0.2-0.4,0-1,0.8-0.9c0.6,0.1,0.5,0.5,0.4,0.9c-0.1,3.2,0.1,6.3,1,9.5
		c0.7,2.4,0.1,5.1,1,7.6c0.4,1.1,0.6,2.2,1.4,3.1C258.5,418.1,258.4,418.8,258.1,419.8z"/>
	<path d="M288.4,425.1c-0.1,0.3-0.2,0.5-0.1,0.6c0.3,1.5,3.1,0.9,2.6,3.2c0,0.1,1,0.5,1.2,0.4c1.9-1.7,2.9,0.9,4.5,1
		c0.5,0,1.1,1.7,1.2,2.7c0.1,0.7-0.8,0.8-1.2,0.3c-0.6-0.8-1.5-1-2.4-1.1c-2.7-0.2-4.2-2.2-6.1-3.6c-3.8-3-6.3-7.2-8.8-11.3
		c-0.1-0.1,0-0.2,0-0.5c1.2,0.9,1.5,2.3,2.4,3.4c2.3,3,5.6,4.2,9.1,4.8c0.7,0.1,1.3,0.4,2,0.7c0.6,0.2,0.5,0.7,0.4,1.2
		c0,0.2-0.3,0.5-0.4,0.5c-0.5,0.1-0.7-0.2-0.8-0.6C291.2,425,289.3,426.4,288.4,425.1z"/>
	<path d="M408.1,377.6c0.2-0.9,0.5-1.1,1-1.3c4.9-1.4,9.5-3.4,14.5-4.6c2.5-0.6,3.9-0.3,5.1,1.9c0.4,0.7,1.2,1.2,2,1.1
		c2.1-0.4,2.6,1.6,3.8,2.5c0.3,0.2,0.2,0.4,0,0.6c-0.2,0.3-0.6,0.4-0.9,0.2c-0.6-0.3-1.2-0.7-1.8-1.1c-3.2-2.5-6.8-2.7-10.6-2.2
		C416.8,375.2,412.5,376.1,408.1,377.6z"/>
	<path d="M249.7,694.1c-2.2,1.1-4.6,0.7-7.1,0.4c-4.6-0.5-9.1,0.2-13.7,0.8c-5.6,0.8-11.2,1.6-16.8,2.6c-0.1,0-0.2-0.1-0.4-0.3
		C224.2,693.5,236.9,692.1,249.7,694.1z"/>
	<path d="M339.7,286.9c-5.1-4.4-11.2-7.2-16.7-11.8c1.4-0.2,2.5,1.1,3.3-0.3c0,0,0.3,0.1,0.5,0.2c-0.1,0.2-0.1,0.3-0.2,0.5
		c-0.4,1-0.2,1.4,0.7,1.2c1.1-0.3,1.3-0.1,1.3,1c0.1,1,2.5,1.7,3.5,1.1c0.1-0.1,0.3-0.2,0.3-0.2c1.3,0.8,2.7,1.2,4.1,0.3
		c0.1,0,0.5,0.4,0.3,0.8c-0.3,0.6-0.2,0.8,0.5,0.8c1.4-0.1,1.8,1.2,2.6,2c0.2,0.2,0.3,0.7-0.1,0.8c-2.8,0.6-0.4,1.5-0.1,2.3
		c0.1,0.3,0.3,0.5,0.5,0.8C340.1,286.5,339.9,286.7,339.7,286.9z"/>
	<path d="M204.1,149.6c1.6,1.1,2.5,2.6,3.6,4.1c4.9,6.4,10,12.6,15.7,18.3c1.2,1.2,2.8,2.1,4.1,3.2c0.7,0.6,1.1,0.3,1.2-0.6
		c0.2-1.5,0.3-3.1,0.7-4.6c0,0.5,0.1,1.1,0.1,1.7c1.4-1.5,1.8-2.8,1.3-5.1c-0.1-0.5,0.3-0.7,0.5-0.9c0.6-0.5,1.1-1.1,1.7-1.6
		c0.8,0.7,0.9,1.2,0,2.1c-1.4,1.3-1.6,3.3-2,5c-0.3,1.4-0.4,2.9-0.6,4.5c-0.8-0.5-0.5-1.3-0.9-2c-0.9,1.3-0.5,2.6-0.8,4
		C218.7,170,211.8,159.5,204.1,149.6z"/>
	<path d="M396,366.6c-0.4,1-1.5,0.9-2.2,1.2c-4.4,1.8-8.9,0.7-13.4,0.9c-0.8,0-1.7,0-2.5-0.1c2.5-0.6,5.1-0.4,7.6-1.3
		c-2.5-2.5-5.7-0.5-8.6-1.9c2.4-0.3,4.4-0.5,6.4-0.9c3.5-0.7,6.5,1.5,9.8,1.8C394.1,366.3,395,366.9,396,366.6
		C396,366.6,396,366.6,396,366.6z"/>
	<path d="M342.8,104.5c0.9-0.5,1.6-0.2,2.1-1c-4.2-2.3-8.3-0.4-12.5,0c1.5-0.5,2.9-1,4.3-1.7c1.4-0.8,3-1.1,4.6-1.4
		c1.5-0.3,2.7,0.1,3.6,1.1c1.4,1.6,3.2,1.9,4.9,1.2c4.3-1.7,9-2,13.5-3.2c2.6-0.7,5.5-0.4,8.7,0.3c-4.4,0.2-8.3,0.3-12.2,1.1
		c-3.4,0.7-6.7,1.9-10.1,2.7C347.6,104.2,345.4,104.2,342.8,104.5z"/>
	<path d="M290.5,418.2c7.4,0.4,14.3-2.8,21.7-2.1c-1.7,0.5-3.4,1.3-5.2,1.6c-1.3,0.2-2.3,1.1-3.5,1c-1.9-0.1-2.7,2-4.7,1.9
		c-1.9,0-3.8-0.7-5.7-0.6C292,420,291.5,418.7,290.5,418.2z"/>
	<path d="M238.6,206.8c2.8-0.1,5.2-0.2,7.7,0.1c1.7,0.2,3.2,0.8,4.9,0.9c0.8,0.1,0.9,0.6,0.2,1.1c-1.2,1-2.9,1.4-3.7,2.9
		c-0.2,0.3-0.6,0.2-1-0.1c-0.6-0.5-1.5-0.4-2-0.1c-1.5,0.9-2.5,0-3.5-0.8c-0.2-0.1-0.5-0.4-0.5-0.5
		C241.5,208.4,239.6,207.8,238.6,206.8z M245.5,209.9c-0.3-0.5-0.8-0.5-1.3-0.7c-0.6-0.3-1.2-0.4-1.8-0.7c-0.3-0.1-0.6-0.2-0.9,0
		c-0.4,0.4,0,0.7,0.1,1C241.9,211.4,243.3,210.9,245.5,209.9z"/>
	<path d="M581.4,652.6c0.5,3.9,1.4,7.7,2.4,11.5c0.7,2.5,1.5,2.8,3.6,1.4c1.1-0.7,2.1-1.4,3.1-2.3c1.2-1,1.2-2.2,0.2-3.4
		c-1.4-1.7-2.8-3.5-4.3-5.2c-0.7-0.8-1.4-1.5-2.5-1.6c-0.8-0.1-1.5-0.6-2.2-1.4c3.5,0.1,5.9,1.7,7.6,4.6c0.5,0.8,1,1.7,1.6,2.4
		c2.5,2.5,1.1,4.7-1.2,6.4c-1.3,0.9-2.9,1.5-4.1,2.5c-1.2,1-1.7,0.4-2.1-0.6c-1.2-2.8-1.6-5.8-2.1-8.8c-0.3-1.8-0.4-3.6-0.5-5.4
		C581,652.6,581.2,652.6,581.4,652.6z"/>
	<path d="M387.4,380.7c-1.8,0.2-3.6,0.3-5.3,0.5c-0.4,0-0.9-0.1-1,0.4c-0.1,0.4,0.3,0.6,0.6,0.9c1.3,1.5,3.3,1.5,4.8,2.5
		c-6.4-1-11.9-4.1-17.4-7.3c3.3-0.2,6.4,0.5,9.4,1.7c1.5,0.6,2.9,1.1,4.5,0.8c1.5-0.3,2.9,0.6,4.4,0
		C387.4,380.3,387.4,380.5,387.4,380.7z"/>
	<path d="M318.5,395c-2.7,3-6,3.9-9.5,4.2c-4.7,0.4-9.4,0.6-14,0.8c-0.4,0-0.9,0-1.4,0c-0.3,0-0.6-0.3-0.6-0.6
		c0-0.4,0.4-0.5,0.7-0.5c5.4,0.2,10.5-1,15.8-1.8c1.8-0.3,3.5,0.2,5-1.4C315,395.3,316.9,395.2,318.5,395z"/>
	<path d="M387.9,208.9c13.4-4.3,26.8-4.9,40.2-5.8c-7.2,1.5-14.5,1.5-21.7,2.6c-4.4,0.7-8.8,1.8-13.1,2.8
		C391.7,209,390.1,208.7,387.9,208.9z"/>
	<path d="M394.1,184c-1.4,1.2-2.8,2.5-4.3,3.7c0.1,0.2,0.1,0.3,0.2,0.5c5.8-2.2,11.7-3.9,17.9-4.4c-2.4,0.7-4.9,1.2-7.3,2
		c-2.1,0.7-4.7,0.5-6.4,1.9c-2.6,2.2-6,1.6-8.8,3c-2.8,1.4-5.7,2.7-8.9,3c-0.7,0.1-1.4,0.6-2.1,1c-0.9,0.5-1.9,0.8-3.4,0.7
		c5.5-2.1,10.6-4,15.7-6c0.6-0.2,1.5-0.3,1.2-1.4c0-0.2,0.2-0.5,0.3-0.6C390.3,186.4,391.8,184.4,394.1,184
		C394.1,184,394.1,184,394.1,184z"/>
	<path d="M226,139.3c2.9,3.3,4.5,7.3,6.7,11c2.1,3.6,3.9,7.2,6.4,10.6c2.5,3.4,4.4,7.3,7,10.6c0.3,0.4,0.5,0.8-0.1,1.1
		c-0.5,0.2-0.7-0.1-0.9-0.5c-1.2-2-2.6-3.9-3.7-5.8c-1-1.8-1.8-3.7-4.5-3c0.7-0.1,1.6,0,1.9-0.4c0.5-0.7-0.5-1.2-0.8-1.8
		C233.5,154,230,146.5,226,139.3z"/>
	<path d="M413.7,427.6c1.1-4.3-0.4-8.3-1.7-12.3c-0.8-2.5-3.1-3.6-5.3-4.7c-0.7-0.3-1.4-0.6-2.1-1c1.5,0.3,2.9,0.4,4.4,0.4
		c1.6,0,2.8,1.2,3.7,2.3c1.4,1.7,1.8,3.9,1.9,6.1c0.1,1.8,0.6,3.5,0.6,5.4C415.2,425.2,414.9,426.6,413.7,427.6z"/>
	<path d="M130.7,667.8c-0.6,0.7-1.3,1.5,0.5,1.6c0.5,0,1,0.3,1.4,0.5c0.3,0.1,0.7,0,0.8,0.4c0.1,0.5-0.4,0.5-0.7,0.7
		c-3,1.6-5.7,3.7-8.2,5.8c-3.4,2.9-7.7,3.8-11.5,5.6c-0.6,0.3-0.9-0.2-1.4-0.4c1.1-1,2.6-0.5,3.9-1.1c2.6-1.1,5-2.4,7-4.4
		c1.8-1.8,4.5-2.3,6.3-4c1-1,1.2-1.6-0.4-1.9c-1.2-0.2-1.1-0.9-0.5-1.6c0.6-0.7,1.2-1.3,1.8-1.9c0,0,0,0,0,0
		C129.4,668.1,130.1,667.9,130.7,667.8L130.7,667.8z"/>
	<path d="M504.5,265.4c2.9,1.3,3.3,4.1,4.6,6.3c1.6,2.7,3.6,5.3,5,8.1c1.6,3.3,3.7,6.4,3.8,10.3c0,0.5,0.3,1.2-0.4,1.3
		c-0.5,0.1-1.2,0-1.6-0.2c-0.5-0.3-0.1-0.8,0-1.2c0.6-3.3-0.5-6.2-2.1-8.9C510.7,275.9,506.9,271.2,504.5,265.4z"/>
	<path d="M282.9,478.3c-0.3-0.7,1.2-1,0.5-1.8c-0.6-0.6-1.3-0.2-2-0.1c-3.8,0.6-7.2,0.2-9.6-3.4c1.6,1.3,3.4,2,5.4,2.3
		c3.7,0.6,6.4-1.5,9.1-3.3c0.5-0.3,0.9-0.9,1.5-0.6c0.6,0.4,0.3,1.1,0.3,1.6C287.8,475.1,284.8,478.1,282.9,478.3z"/>
	<path d="M606.7,640.9c3.3-0.2,6.6-0.5,9.9-0.3c0.9,0.1,1.6,1.1,2.1,1.9c1.3,2.1,2.5,4.3,3.2,6.7c0.4,1.3,0.1,2.4-0.1,3.6
		c0,0.4-0.2,0.7-0.7,0.7c-0.4,0-0.5-0.4-0.5-0.7c0.8-3.7-2.2-6.1-3.3-9.2c-0.8-2.5-3.4-2-5.4-2.2c-1.8-0.1-3.6,0-5.3,0
		C606.7,641.2,606.7,641.1,606.7,640.9z"/>
	<path d="M597.9,657.8c-2.7-1.8-5.5-3.3-7.8-5.6c-0.7-0.7-1.6-1-2.6-1.3c-0.4-0.1-0.8-0.3-0.7-0.8c0.1-0.5,0.6-0.3,1-0.4
		c2.5-0.2,4.9,0.1,7.3,0.6c1.2,0.2,2.7-0.6,3.5,0.4c0.7,1-0.9,1.9-0.9,3.1C597.7,655.2,596.7,656.5,597.9,657.8z M591.7,651.9
		c1.3,1.5,3,2.1,4.1,3.4c0.5,0.6,1,0.1,1.1-0.4c0-0.9,1.4-2.3,0-2.7C595.4,651.7,593.7,651.3,591.7,651.9z"/>
	<path d="M351.5,413.2c2.1-0.9,4.2-1.7,4.2-4.5c0-0.6,0.7-0.8,1-1.1c1.1-1.1,1.9-2.3,2.2-4c1.9,3.3,5,5.9,3.9,10.7
		c-0.5-1.5-0.9-2.5-1.1-3.5c-0.3-1.4-1.4-1.9-2.4-2.4c-1.1-0.4-1.5,0.8-1.9,1.5C356.3,411.9,354,413.3,351.5,413.2z"/>
	<path d="M179.4,677.4c0.9-1.9,2.4-3.3,3.9-4.6c3.5-2.8,6-6.5,9-9.7c0.5-0.6,0.9-1.6,1.7-1c0.5,0.4,0.1,1.5-0.3,2.1
		c-1.3,1.7-2.8,3.3-4.2,4.9c-0.8,0.9-1.5,1.8-2.3,2.6c-0.5,0.5-1.2,1.4-1.8,1.4c-2.2,0-3.3,1.4-4.4,2.9
		C180.7,676.6,180,676.9,179.4,677.4z"/>
	<path d="M269.8,198.5c3.9,0.1,7.6,0.6,11.3,0.3c1.5-0.1,2.9,0.1,4.3,0.8c0.3,0.2,0.8,0.2,0.7,0.7c-0.1,0.4-0.5,0.6-0.9,0.6
		C280,200.9,274.7,201.7,269.8,198.5z"/>
	<path d="M291,191.9C291,191.9,291,191.9,291,191.9c-2,0.3-3.7-0.7-5.5-1.4c-1.3-0.5-2.7-1-4.1-0.9c-2.3,0.2-3.8-1.2-5.5-2.3
		c0.4-0.5,0.8,0.3,1.1-0.1c-0.1-1.6-2.8-0.4-2.6-2.5c2.3,1,4.6,2.1,7,2.5c1.6,0.3,3,1.6,4.8,1.3c0.1,0,0.4,0.1,0.3,0.3
		c-0.7,1.7,0.9,1.2,1.5,1.4c0.7,0.3,1.5,0.3,2.3,0.5C290.7,191,291.2,191.2,291,191.9z"/>
	<path d="M263.1,375.8c-2.8-0.5-5.3-1.9-7.7-3.3c-3-1.7-2.8-1.7-3.8,1.4c-1.2,4.1-2.2,8.2-2.3,12.5c-0.9-2-0.8-4.1-0.4-6.1
		c0.7-3.1,1-6.2,2.3-9.1c0.4-1-0.2-1.3-0.8-1.9c-1.2-1-3.1-0.8-4.6-2.4C252.4,369.1,256.9,374,263.1,375.8z"/>
	<path d="M189.7,200.9c-0.6-2.3-0.7-4.8-2.6-6.5c1.5-0.7,2.8-0.2,3.4,1.4c0.1,0.3,0.3,0.6,0.7,0.5c0.4,0,0.9-0.9,1.2,0
		c0.2,0.6-0.6,0.6-0.8,0.9c-0.6,0.9-1.4,1.6-0.9,2.9c0.4,0.9,0,1.8-0.7,2.6c-0.4,0.5-1,0.7-1.5,0.7c-0.8,0-0.4-0.7-0.4-1.2
		c0-0.5-0.3-0.7-0.8-0.5c-0.3,0.1-0.9,0-0.8-0.2c0.4-1.5-0.3-1.7-1.6-1.7c-0.3,0-0.2-0.7,0-0.7c0.7,0.1,0.7-1.4,1.6-0.6
		c0.5,0.5,1,1,1.5,1.5C188.4,200.3,188.7,201,189.7,200.9z"/>
	<path d="M377.6,105.1c2,1.9,1.7,4.6,2.2,6.9c0.2,0.8,0.2,1.7,0.6,2.4c1.8,3.1,3.5,6.3,6.2,8.8c2.6,2.5,4.5,5.3,5.1,8.8
		c-1-0.7-1.9-1.5-1.8-3.1c0-0.5-0.4-1.2-0.8-1.7c-1.7-1.9-3.3-3.8-5.2-5.4c-0.8-0.7-0.3-1.6-0.8-2.1c-0.9-0.9-1.1-2.2-2.3-3
		c-1-0.7-1.3-2.3-1.4-3.7C379,110.5,378.2,107.8,377.6,105.1z"/>
	<path d="M600.7,641c0.3-1.1,0.4-2.3,0.9-3.3c0.9-2.1,1.2-4.3,1.4-6.6c0.2-1.9,0.9-3.7,1.4-5.6c0.4-1.4,1.5-2,2.7-1.8
		c1.4,0.3,1.2,1.4,1.1,2.7c-0.1,4.2-1.3,8.1-1.7,12.2c-0.1,0.6,0,1.3-0.5,1.8c-0.8-0.3-0.5-1-0.4-1.5c0.4-2.3,0.5-4.7,1.3-6.8
		c0.8-2.1,0.1-4.2,0.8-6.3c0.3-0.7-0.6-0.8-1.1-1.1c-0.7-0.3-1.1-0.2-1.4,0.4c-0.9,1.6-1.4,3.4-1.5,5.2c-0.2,3.4-1.2,6.7-2.4,9.9
		c-0.1,0.3-0.2,0.5-0.4,0.8C600.9,641.1,600.8,641.1,600.7,641z"/>
	<path d="M238.2,215.4c-2.1,0.1-4.3-0.3-6.1-1.2c-3.7-1.9-7.7-2.3-11.7-2.7c-2.2-0.2-4.4-0.9-6.6-1.1c-3.4-0.4-6.7-1.3-10.1-1.2
		c-0.4,0-1.1,0.1-1-0.5c0-0.5,0.6-0.4,0.9-0.3c3.8,0.9,7.7,0.9,11.6,1.7c5.8,1.1,11.8,1.2,17.5,2.7c1.9,0.5,3.8,1.4,5.7,2.1
		C238.3,215.1,238.3,215.2,238.2,215.4z"/>
	<path d="M337.9,217c-6.9,4.3-12.9,9.9-19.6,14.6c-0.5,0.4-1.1,0.8-1.5,0.2c-0.5-0.6,0.5-0.7,0.6-1.1c0.8-2.6,3.4-2.8,5.3-4
		c4.3-2.6,7.9-6.2,12.4-8.6C336,217.7,336.8,216.9,337.9,217L337.9,217z"/>
	<path d="M414.6,279c0,0.3,0.1,0.4,0.1,0.4c-2.9,2.2-0.9,4.5-0.2,6.8c0.1,0.2,0.2,0.5,0.2,0.7c0,0.1,0,0.2,0,0.7
		c-2.2-2.4-4.4-4.6-6.2-7.2c-1.1-1.5-2-3.1-3.1-4.6c-0.2-0.3-0.8-0.4-0.3-0.8c0.4-0.4,0.8,0,1,0.3c0.6,1,1.2,2,2,3
		c0.3,0.4,0.7,0.7,1.1,1c1.4,1,2.8,1.7,4.3,0.1C413.6,279.2,414.1,279.1,414.6,279z"/>
	<path d="M471.7,323.4c1.6-8.6,3.8-16.4,7-24.2C479.2,301.1,474.4,317.7,471.7,323.4z"/>
	<path d="M210.5,112.9c0.8,0.2,0.8,1,1,1.5c0.3,0.5,0.6,1,0.9,1.6c0.6-0.7-0.1-1.4,0.3-2.1c2.3,4.3,3.9,8.9,6.9,12.7
		C217,126.6,211.5,118.6,210.5,112.9z"/>
	<path d="M402.5,274.6c-4.8,8.7-6.7,17.4-3.9,26.8c-3.2-7.8-2-15.5,0.6-23C401.1,277.9,399.8,275,402.5,274.6z"/>
	<path d="M406.7,401.7c2.9-0.8,4.8-2.7,6.1-5.6c-1.9,0.2-3.4,1.1-5.1,0.9c3.5-1.1,6-4.5,9.9-4.5c-1.8,1.4-3.4,2.9-3.8,5.5
		c-0.2,1.7-2.3,2.3-3.8,3C409.1,401.6,407.8,401.5,406.7,401.7z"/>
	<path d="M261.2,192.7c-2.1-0.8-3.8-2.5-4.8-4.2c-1.6-2.8-1.5-3.3-3.8-5c-1.4-1-3-1.4-4.6-1.8c-2-0.4-3.8-1.1-5.4-2.4
		c4.6,2.2,10.2,1.8,14,5.8c0.4,0.4,0.8,0.9,1,1.4c0.7,2,1.7,3.9,3.4,5.2C261.2,192,261.5,192.2,261.2,192.7z"/>
	<path d="M341,206.1c-1.9,3-4.7,5.2-7.3,7.6c-3.5,3.2-7.4,5.7-12,7.1c-0.4,0.1-0.9,1.3-1.3,0.3c-0.3-0.7,0.6-0.9,1.1-1.1
		c2.4-0.6,4.4-1.7,6.5-2.9c0.8-0.5,1.6-1,2.4-1.5c0.6-0.4,1.5-0.8,0.4-1.7c-0.2-0.1-0.2-0.5,0-0.7c0.3-0.3,0.7-0.3,0.8,0.1
		c0.4,1,0.9,0.4,1.3,0.1c1.1-0.9,2.1-1.9,3.2-2.8c1-0.8-1.2-1.3-0.2-2c0.7-0.5,1.1,1.4,1.9,0.3c0.2-0.3,0.7-0.5,0.6-0.7
		C337.8,205.5,340.1,206.8,341,206.1L341,206.1z"/>
	<path d="M408.6,405.4c4.2-1,8.1-2.6,11.6-5.3c-2,1.7-3,4.4-6,5.1c3.4,1,6.9,1.2,9.3,4C419.1,405.6,413.6,406.5,408.6,405.4z"/>
	<path d="M159.5,688.2c-2.5,0.9-3.6,3.2-5.3,4.9c-0.6,0.6-1,1.4-1.6,1.9c-0.8,0.8-1.8,1.7-2.3-0.3c-0.2-0.6-0.5-0.8-1.1-0.7
		c-1,0.1-2.1,0-3.1,0.3c-0.4,0.1-0.9,0.1-0.9-0.4c0-0.4,0.4-0.5,0.9-0.5c3.8,0,7-1.6,9.8-4C157,688.5,158.1,687.8,159.5,688.2z"/>
	<path d="M300,408.1c4.8-0.6,9.1-2.6,13.7-4.1c1.3-0.4,1.6,0.9,1.9,1.5c0.4,0.8-0.5,1.1-1.1,1c-3.7-0.4-7,1.7-10.6,1.6
		C302.6,408.1,301.4,408.5,300,408.1z"/>
	<path d="M303.5,363.9c-2.3,1.5-4.3,3.4-7.1,4c-0.5,0.1-0.9,0.5-1.3,0.8c-1,0.8-2,1.4-3.1,0.1c-0.5-0.6-1.1-0.3-1.8-0.1
		c-2,0.7-4,1.3-6.1,1.8C290.4,367.6,297.2,366.6,303.5,363.9z"/>
	<path d="M436.2,286.1c4.7-4.4,9.7-7,15.7-7.7c0.6-0.1,0.9,0.1,0.9,0.6c-0.1,0.7-0.2,1.3-1.1,1.2c-2-0.2-3.7,0.7-5.6,0.9
		c-2.8,0.4-5,1.9-7.1,3.6C438.2,285.4,437.5,285.7,436.2,286.1z"/>
	<path d="M334.3,571.8c5.3-1.2,8.1-5.2,10.8-9.3c1.1,0.7,1.2,1.6,0.8,2.6C344.5,568.1,337.8,572.1,334.3,571.8z"/>
	<path d="M419.6,331.2c0.5,3.7,0.8,7.1,1,10.6c0.3,6,0.7,12.1,1.3,18.1c0.2,2.6-0.1,5.3,0.9,7.8c0.1,0.2,0.3,0.9-0.4,0.7
		c-0.3-0.1-0.5-0.2-0.6-0.8c-0.2-3.6-0.5-7.3-0.9-10.9c-0.8-8.3-0.6-16.6-1.5-24.9C419.4,331.8,419.5,331.6,419.6,331.2z"/>
	<path d="M178,684.3c-1.5-1-2.1-0.3-2.6,0.5c-0.7,1.1-0.2,2,0.8,3c-1.6-0.1-2.2,1.2-3.3,1.9c-0.4,0.3-0.9,0.6-1.4,0.2
		c-0.5-0.4-0.2-0.9,0-1.4c1.2-2.1,2.5-4.2,3.7-6.3c0.5-0.8,1.1-0.9,1.6,0C177.1,682.7,177.4,683.2,178,684.3z"/>
	<path d="M129.6,667c0-1,0.6-1.7,1.1-2.4c3.3-4.6,5.6-9.7,8.2-14.7c1-1.9,2.1-3.9,4-5.3c-3.2,4.5-5.2,9.5-7.7,14.4
		c-0.5,0.9-1.3,1.6-1.7,2.5c-0.5,1.1-1.9,1.8-0.8,3.5c0.5,0.8-0.9,2-1.9,2.6c0,0,0.1,0,0.1,0c-0.1-0.8,0.6-1,0.9-1.6
		c0.2-0.4,0.5-0.9,0.1-1.2c-0.5-0.3-0.8,0.2-1.1,0.5C130.1,666,130.3,666.9,129.6,667L129.6,667z"/>
	<path d="M358.1,193.2c-3,1.2-5.7,2.8-9.2,3.1c1.1-2.3,2.9-3.4,4.8-4.5c0.6-0.4,1.2-0.7,1.8-1.2c0.6-0.4,1.7-0.7,1.3-1.6
		c-0.4-0.9-1.2,0.2-2.2-0.2c1-0.5,1.8-1,2.7-1.4c0.9,2.1,0.1,3.2-1.6,4.1c-1,0.5-1.9,1.1-2.8,1.7c-0.4,0.2-0.8,0.6-0.5,1
		c0.2,0.4,0.7,0.1,1.1,0c1-0.4,1.9-0.7,2.9-1.1C356.8,192.9,357.4,192.5,358.1,193.2z"/>
	<path d="M345.8,412.2c3.9-1.5,4.9-4.6,5.6-8c0.2-1.2,0.4-2.6,1.7-3.3c0.6,0.6,0.2,1.3,0.4,1.8c0.3,0.7-2,2.1,0.6,2.2
		c0.1,0,0.2,0.9-0.2,1.2c-2.2,1.8-3.6,4.3-5.9,6.1C347.4,412.5,346.9,412.8,345.8,412.2z"/>
	<path d="M348.8,269.6c0.6,0.2,0.9-0.1,1.3-0.2c0.3-0.1,0.7,0,0.8,0.3c0.2,0.4-0.2,0.8-0.4,0.7c-1.4-0.8-1,2.5-2.5,1.2
		c-1-1-1.6-2-2.5,0c-0.1,0.3-0.4,0.3-0.7,0.2c-0.3-0.1-0.4-0.4-0.3-0.6c0.9-1.3,0.1-1.2-0.8-1.1c-0.4,0-0.8-0.1-0.8-0.6
		c0-0.4,0.4-0.5,0.7-0.4c1.6,0.7,0.6-2.2,1.8-1.5c1,0.6,1.7,1,2.7,0.1c0.3-0.3,0.7-0.2,1,0.1C350,268.5,348.8,268.8,348.8,269.6z"/>
	<path d="M579,644.4c6.9-1.2,13.7-3.3,20.8-2.3C592.9,642.9,585.9,643.6,579,644.4z"/>
	<path d="M327.5,256.7c0.9,0.8,0.7,1.6,0.4,2.3c-0.3,0.8-1.1,1.5-0.2,2.4c0.2,0.2,0.1,0.5-0.2,0.7c-0.2,0.2-0.5,0.2-0.7,0
		c-1.5-1.5-2.9,0-3.7,0.7c-1.5,1.3-3.2,0-4.6,0.8c-0.3,0.1-0.5-0.4-0.4-0.7c0.1-0.3,0.3-0.6,0.7-0.4c0.5,0.2,1,0.7,1.6,0.2
		c0.7-0.7-0.5-0.7-0.4-1.2c0-0.2,0.1-0.5,0.3-0.6c0.1-0.1,0.4,0,0.5,0.1c1.7,2.2,2.9,0.1,3.8-0.7C325.8,259.3,327,258.3,327.5,256.7
		z"/>
	<path d="M279.6,237.3c-0.9-0.2-0.8-0.9-0.6-1.5c0.3-0.7,1.1-1.3,0.2-2.2c-0.1-0.1,0-0.3,0.1-0.5c1.6,0.4,1.5-2.3,3.2-1.7
		c0.2,0.1,0.5,0.1,0.6-0.2c0.2-0.4-0.7-1,0.1-1.3c0.1-0.1,0.4,0.1,0.5,0.2c0.1,0.9,2.3,1.1,0.7,2.9c-0.8,0.9-2.4,1.1-2.6,2.6
		c0,0-0.4,0.1-0.5,0.1c-1.1-0.4-2.1-0.8-1.2,1.1C280.1,237,280,237.3,279.6,237.3z"/>
	<path d="M288.9,223.3c0.7-0.1,0.7,0.6,1,1c2.2,4,3.1,8.7,5.8,12.5c0.7,1,1.1,2.2,2.4,2.7c0.4,0.1,0.8,0.3,0.4,0.8
		c-0.3,0.4-0.7,0.2-1-0.1c-1.8-1.7-3.3-3.5-4.4-5.8c-1.3-2.8-1.8-5.9-3.1-8.7c-0.3-0.6-0.6-1.3-1.2-1.7
		C288.2,223.7,288.4,223.4,288.9,223.3z"/>
	<path d="M275.1,462c4.1-1.1,4.1-1.1,2-4.7c-0.5-0.9-1-1.8-1.4-2.8c1.4,1.8,3.3,3,5.2,4.2c0.9,0.5,0,1.3-0.1,1.9
		c-0.3,1.1-1.2,1.9-2.3,2c-1.1,0.1-2.2,0-3.3,0C275.1,462.4,275.1,462.2,275.1,462z"/>
	<path d="M343.2,266.8c-0.4,0.7-0.4,1.6-1.6,1.3c-0.8-0.2-1.3-0.1-0.8,0.9c0.1,0.3,0.1,0.7-0.3,0.7c-0.4,0.1-0.6-0.2-0.7-0.5
		c-0.4-1.6-1.4-0.9-2.1-0.4c-0.6,0.6-1,1-1.7,0.2c-0.4-0.4-0.9-0.4-1.3-0.2c-1.1,0.6-1.8,0.4-2.6-0.5c-0.3-0.3-0.9-0.6-1.3,0.1
		c-0.2,0.4-0.5,0.8-1,0.5c-0.4-0.2-0.2-0.7-0.2-1.1c0-0.8,0.6-0.5,0.9-0.6c1.5-0.5,3,0.2,4.5,0.3
		C337.9,267.7,340.4,267.2,343.2,266.8z"/>
	<path d="M281.9,211.1c2.8,0.5,4.4,2.4,6.2,4c0.3,0.3,0.3,1.4-0.2,1.6c-0.9,0.2-1.9,0.4-2.7-0.4C283.8,214.8,283,213.1,281.9,211.1z
		"/>
	<path d="M236.5,178.6c-1.9-0.8-2.5-2.4-2.4-4.3c0.1-0.9-1.1-2.2,0.3-2.5c1.2-0.3,1.3,1.1,1.7,2c0.4,1,1.2,1.2,2,1.4
		c0.6-0.7-0.6-1.2,0.1-1.9c0.7,1.6,2.3,1.7,3.6,2.6c-0.9,0-1.8,0-2.6-0.2c-1.1-0.2-2.3-0.8-1.6,1.2c-0.9,0-1-0.6-1.3-1
		c-0.3-0.4-0.6-1.1-1.1-0.6c-0.4,0.3-0.3,1,0,1.4c0.5,0.6,1.1,1,1.7,1.4C236.8,178.3,236.7,178.5,236.5,178.6z"/>
	<path d="M324.2,254.2c-0.7,2-2.1,3.3-3.9,4.2c-0.5,0.2-0.7,0.4-0.8,0.9c-0.1,0.5-0.5,0.9-0.9,0.5c-0.8-0.9-1.5-0.5-2.5-0.2
		c-1.2,0.4-2.7-0.6-4,0c0,0-0.4-0.4-0.4-0.5c0-0.6,0.5-0.5,0.9-0.4c2.3,0.3,4.4-0.4,6.6-1.1C321,256.7,322.8,255.8,324.2,254.2z"/>
	<path d="M281.7,456.5c1-4.3-2.8-5.8-4.6-8.3c-0.3-0.4-0.7-0.7-1-1.1c-0.1-0.1-0.1-0.2-0.1-0.3C281.5,448.1,284,452.3,281.7,456.5z"
		/>
	<path d="M416.6,318.3c-0.1,0.8-0.5,0.5-1,0.3c-1.3-0.6-2.6-1.2-3.8-1.9c-1.8-1.1-3.6-2.2-5.5-3.2c-0.5-0.3-1-0.6-1.3-1.1
		c-0.1-0.2-0.1-0.5,0.1-0.7c0.1-0.1,0.5,0,0.5,0c0.2,1.5,1.5,0.9,2.3,1.3c2.6,1.4,5.2,2.9,7.8,4.4
		C416.3,317.6,416.6,317.9,416.6,318.3z"/>
	<path d="M507.3,299.1c-2.3-5.2-2.9-10.9-7.7-14.5C503.6,285.1,507.3,293.2,507.3,299.1z"/>
	<path d="M198.1,201.4c-0.6,0.7-1.5,0.8-1.9,1.5c-0.3,0.4-0.6,0.9-1.2,0.8c-0.9-0.3-0.1-0.8-0.1-1.2c0-0.1-0.1-0.2-0.1-0.4
		c-1.7,0.5-1.6-1.6-2.8-1.9c-0.5-0.1-1-0.3-0.6-0.8c0.6-0.8,1.1-1.8,2.3-1.7c0.9,0.1,0.3,0.7,0.2,1.2c-0.3,0.9,0.1,1.2,1,0.8
		c0.7-0.3,1.3-0.3,0.8,0.7c-0.8,1.5-0.1,1.4,1,0.9C197,201,197.5,200.9,198.1,201.4z"/>
	<path d="M340,350.2c-6.2,1.9-11.4,5.3-17.1,7.9c0.3-1,1.1-1.2,1.7-1.7c0.6-0.5,1.3-0.9,1.9-1.2c0.7-0.4,1.5-0.8,2.2-1.1
		c2.2-0.8,4.1-2,6.2-3.1C336.5,350.3,338,349.7,340,350.2z"/>
	<path d="M425.5,461.1c1.7-5.4,3.2-10.5,5.2-15.3C431.5,447.5,428.1,457.8,425.5,461.1z"/>
	<path d="M285.6,386.4c3,1.3,6,2.5,9,3.8c0.3,0.1,0.6,0.3,0.5,0.7c-0.2,0.7-0.7,1.1-1.4,1.2c-2.4,0.3-4.7,1.3-7.2,1.1
		c1.9-0.4,3.7-0.9,5.3-2c0.3-0.2,1.1,0,1-0.7c0-0.5-0.6-0.6-1-0.8c-1.8-0.9-3.6-1.8-5.3-2.7C286.2,387,285.9,386.7,285.6,386.4
		C285.7,386.4,285.6,386.4,285.6,386.4z"/>
	<path d="M336.3,192.2c-1.7-0.6-3.4-0.6-4.3-2.4c-0.6-1.4-2.3-1.3-3.4-1.9c-0.4-0.2-0.7,0.1-0.9,0.5c-0.3,0.8-0.1,1.5,0.6,1.9
		c2.4,1.4,3.4,4,5.2,5.9c0.1,0.1,0,0.2-0.1,0.4c-0.7,0.2-1-0.5-1.3-0.9c-1.5-2-2.7-4.2-4.9-5.6c-1.1-0.7-0.5-1.8,0-2.6
		c0.5-0.9,1.3-0.5,2-0.1c1.5,0.8,3.1,1.2,4,2.9C333.9,191.3,335.5,190.8,336.3,192.2z"/>
	<path d="M186.5,206.2c0.5,0,1-0.1,1.5-0.3c0.4-0.2,0.9,0.2,0.6,0.6c-0.7,0.9-0.4,1.8-0.2,2.7c0.2,0.7-0.2,0.9-1,0.8
		c-1.9-0.2-3.9-1-5.9-0.1c-0.5,0.2-0.7-0.1-0.8-0.5c-0.1-0.3,0.1-0.8,0.4-0.7c1.3,0.8,1.6-1.9,2.2-0.9c0.6,1,1.4,0.9,1.8,0.7
		C185.9,207.9,187,207.4,186.5,206.2L186.5,206.2z"/>
	<path d="M194.6,212.9c0.1,0.9,1.5,1.1,0.9,2c-0.6,0.8-1.6,0.7-2.5,0.5c-1.4-0.4-2.8-0.7-4.1-1.6c-1.5-1-3.2-1.1-5-1.6
		c0.7-0.4,1.7,0.1,2-1c0.1-0.6,0.5-0.4,0.8,0c1.5,1.8,3.8,2,5.7,3C193.5,214.9,193.9,213.7,194.6,212.9z"/>
	<path d="M401.5,522.1c-2.4-1.4-5.2-1-7.5-2.1c-0.3-0.1-0.9,0-0.8-0.6c0.1-0.4,0.5-0.6,0.9-0.5c1.2,0,2.3-0.2,3.4-0.4
		c0.9-0.2,1.9,0,2.2,1.3C399.8,520.8,400.9,521.2,401.5,522.1z"/>
	<path d="M274.2,173.7c-1.9-2.5-4.9-2.3-6.8-4.3c3.4-0.6,6,0.7,8.5,2.4c-0.5-0.1-1-0.2-1.7-0.4C274.3,172,274.2,172.5,274.2,173.7z"
		/>
	<path d="M187.8,124.1c2.8,3.2,3.2,7.5,5.6,10.9c-2.3-3.3-6.8-5.2-6.7-10.2c0.5,0.3,0.7,1,0.9,1.6c0.1,0.4,0.1,0.9,0.3,1.3
		c0.3,0.9,0.8,2.5,1.6,2.2c1.1-0.4-0.2-1.5-0.4-2.4C188.9,126.3,187.7,125.4,187.8,124.1z"/>
	<path d="M272.1,223c1.8,1.9,1.6,4.4,1.7,6.7c0.1,1.3-1.4,1.5-2.3,2c-0.3,0.2-0.5-0.5-0.2-0.8c0.7-0.9,1.1-1.7,0-2.6
		c-0.4-0.3-0.1-0.6,0.2-0.9c0.6-0.5,0.5-1.4,0.2-1.8C271,224.5,271.6,223.8,272.1,223z"/>
	<path d="M129.4,694.4c-3.8,1.5-7.7,1.5-12.1,1.7c1.7-0.5,3.2-0.5,4-1.3C123.9,692.2,126.7,695.5,129.4,694.4z"/>
	<path d="M308.7,164.7c0.9,0.9,1,2.1,1,3.3c1-0.1,0.6-1.2,1.5-1.5c-1.3,3.4-2,6.8-2.7,10.3C307.6,172.8,309.2,168.7,308.7,164.7
		L308.7,164.7z"/>
	<path d="M431.5,454.6c1.5-4.3,2.6-8.6,3.7-13.5C436.4,446.7,433.7,450.6,431.5,454.6z"/>
	<path d="M420.3,367.6c-0.5,1-1.1,1.4-2.1,1.5c-2.4,0.1-4.8,0.5-7.2,0.5C413.9,368.4,416.7,366.5,420.3,367.6z"/>
	<path d="M299.6,413.8c2.7-0.7,5.4-1.5,8.1-2.4c0.3-0.1,0.7-0.1,0.9,0.2c0.1,0.2,0,0.5-0.1,0.7c-0.4,0.6-0.6,1.3-1.5,1.4
		C304.6,413.9,302.1,414.3,299.6,413.8z"/>
	<path d="M424.7,318.1c2-3.3,4.8-5.3,8.7-5.8C430.7,314.5,427.5,315.9,424.7,318.1z"/>
	<path d="M282.4,351.1c4-3.7,9.2-4.9,14.3-6.2C292.2,347.4,286.7,347.9,282.4,351.1z"/>
	<path d="M99.4,686.8c0.9,2.8,2.3,4.7,4.2,6.2c1.9,1.6,4.3,1.8,7,2.2C105.7,696.7,99.2,691.9,99.4,686.8z"/>
	<path d="M269.2,165.5c0.4-0.1,0.7-0.2,1.2-0.3c-0.9-0.7-1.7-1-2.6-1.3c3.8,0.6,6.9,2.7,9.7,5.1
		C274.5,168.5,272.3,166.3,269.2,165.5z"/>
	<path d="M273.1,174.9c2.1,0.9,4,1.8,4.7,4.3c0.4,1.3,2.1,1.6,3,2.5c0.5,0.5,1.1,1,1.6,1.6C278.7,181.2,275.2,178.9,273.1,174.9z"/>
	<path d="M289.2,443.6c-3.2-1-6.4-2.1-8.4-5.6c3.1,1.8,5.9,3.4,8.8,5C289.4,443.2,289.3,443.4,289.2,443.6z"/>
	<path d="M336.6,424.1c1.7,0.2,3.4,0.3,5.1,0.5c0.4,0,0.8,0.2,1.1,0.4c0.7,0.4,0.5,1.3,0.7,1.9c0.1,0.4-0.4,0.6-0.6,0.3
		c-0.7-0.7-1.5,1.6-2-0.2c-0.4-1.1-1.4-1.6-2.5-1.9c-0.6-0.2-1.2-0.4-1.7-0.6C336.5,424.5,336.6,424.3,336.6,424.1z"/>
	<path d="M346,188.3c-0.6,0.6-1.3,1.1-2.2,0.5c-0.8-0.5-0.2-1.3-0.1-1.9c0.3-1.4,0.7-2.7,1.1-4.1c0.1-0.4,0.2-0.9,0.2-1.3
		c-0.1-0.6-0.6-1.1-1.1-1.2c-0.6-0.1-0.7,0.6-0.9,1.1c-0.2,0.8-0.4,1.6-0.7,2.7c-0.7-1.9-0.1-3.2,0.8-4.4c0.5-0.6,1.2-0.6,1.8,0.2
		c0.7,1,1.2,1.9,0.6,3.2c-0.5,1.1-0.7,2.3-1.1,3.5C343.8,188.1,344.2,188.8,346,188.3L346,188.3z"/>
	<path d="M292.7,201.3c-3.5-2-7-3.7-11.1-4.1C287.2,196.9,289.4,197.7,292.7,201.3z"/>
	<path d="M260.1,652.2c-0.4,3.6,1.4,8-3.7,9.8c0.3-0.8,1.3-1.2,1.2-2.2c0.4,0.3-0.1-1.9,0.9-0.3c0.2,0.2,0.8-1.2,0.6-1.8
		c-0.8-1.9,0.1-3.4,0.7-5.1C259.9,652.5,260,652.4,260.1,652.2z"/>
	<path d="M262.2,182.1c4,0.6,5.9,3.2,6.8,7.4C266.3,187.1,265.3,183.6,262.2,182.1z"/>
	<path d="M318.6,556.3c1.7-1.5,3.5-3.2,5.7-3.4c1.6-0.2,3.2-0.1,4.8-0.8c-0.8,1.2-2,1.7-3.2,2c-1.2,0.3-2.6,0.1-3.7,0.9
		C321.1,555.7,319.9,555.9,318.6,556.3z"/>
	<path d="M176.3,413.8c-0.6,0.4-1.3,0.4-1.9,0.2c-2.4-0.9-5-0.3-7.4-1.3c-0.8-0.3-1.1,1.2-2,0.4c-0.5-0.9,2.1-1.9-0.1-2.9
		c1.1-0.6,2.2-1.1,3.3,0c-0.5,0.6-1.8-0.8-1.8,0.5c0,0.9,0.9,1.2,1.8,1.5C170.9,413,173.7,412.9,176.3,413.8
		C176.3,413.9,176.3,413.8,176.3,413.8z"/>
	<path d="M472.3,290.9c1.8-1.9,3.9-3.6,6.1-5c0.4-0.2,0.9-0.5,1.2,0c0.4,0.6-0.2,0.9-0.6,1.2C477.1,288.9,474.7,289.8,472.3,290.9z"
		/>
	<path d="M289.4,339.6c3.3-1.9,6.6-3.8,10.2-5.2c0.3-0.1,0.5-0.1,0.7,0.2c0.2,0.4,0,0.6-0.4,0.7c-2.9,0.8-5.4,2.3-7.8,4
		C291.3,339.8,290.3,339.7,289.4,339.6z"/>
	<path d="M271.6,466.2c2.5,0.9,4.9,1.9,7.6,1.1c-1.9,1-3.7,2.1-6,1.6c-0.4-0.1-0.6-0.1-0.3-0.8C273.5,467.1,271.7,467.3,271.6,466.2
		z"/>
	<path d="M424.3,384.7c-1,0.9-3.3,0.6-1.8,3.2c-1.8-1.9-3.6-2.9-5.8-3.7C419.3,384.1,421.7,384.1,424.3,384.7z"/>
	<path d="M284.7,357.9c-3.5,1.7-6.8,3.8-10.3,5.4C276.8,359.4,281.4,359.8,284.7,357.9z"/>
	<path d="M587.2,364.3c0,0.1,0,0.3,0,0.4c-4,1.9-7.7,4.6-12.1,5.6C579,368,582.9,365.7,587.2,364.3
		C587.3,364.3,587.2,364.3,587.2,364.3z"/>
	<path d="M206.6,570.8c-3.3,3.2-6.8,6.1-11.4,7.4C199.1,575.9,202.9,573.5,206.6,570.8z"/>
	<path d="M268.7,172.9c-2.1-0.8-4-0.7-5.6-1.8c-0.7-0.5-2.1-0.2-3.2-0.2c-1.6,0-3.2,0-4.9,0C257,169.2,264.8,170.2,268.7,172.9z"/>
	<path d="M377.2,134.2c3.8-1.7,7.9-2.4,12.1-3.1C385.5,132.8,381.4,133.6,377.2,134.2z"/>
	<path d="M268.8,194.9c2.7,1.6,5.8,1.4,8.7,2C275.6,198.7,271.4,197.5,268.8,194.9z"/>
	<path d="M271.1,415.4c-1.4-2.8-4.1-5.1-2.7-9.1C269.4,409.6,270.3,412.5,271.1,415.4z"/>
	<path d="M347.4,406.6c-0.2-4.4-3.1-6.9-6.3-9.4C344.6,397.5,348,402.5,347.4,406.6z"/>
	<path d="M328.9,370.9c-3.6,0.4-7.2,1-10.7,2.1C321.5,370.9,325.1,370.3,328.9,370.9z"/>
	<path d="M336.3,431.9c0.5-0.7-0.7-2.2,0.9-2.2c1,0,1.5,0.9,1.4,2.1c-0.1,1.3-0.7,2.1-1.8,2C335.5,433.7,336.7,432.5,336.3,431.9z"
		/>
	<path d="M341,139.8c2.3-2.3,5.1-3.7,8.3-4.6c0.8-0.2,1.5,0,2,0.7c0.5,0.7,1,1.3,2.1,1.9c-1.3,0.1-1.7-0.4-2.1-1
		c-0.7-1.3-1.7-1.1-3-0.7C345.7,137.1,343.4,138.6,341,139.8L341,139.8z"/>
	<path d="M323.7,236.8c4.2-2.2,8.7-3.7,13.3-4.9C332.5,233.5,328.1,235.3,323.7,236.8z"/>
	<path d="M379.1,403.5c-1.9-2.2-3.7-4.4-5.6-6.6c0.1-0.1,0.3-0.2,0.4-0.4C376.4,398.2,378.2,400.5,379.1,403.5z"/>
	<path d="M277.7,383c-1.3,0.2-2.2-0.7-3.2-1.2c-3.1-1.7-6.7-2.6-9.5-4.9C269.4,378.7,273.7,380.5,277.7,383L277.7,383z"/>
	<path d="M485.6,386.9c-0.2-4.6,0.2-5.9,2.3-8.9c0,1.6-0.9,2.9-1.2,4.3C486.4,383.7,486.1,385.2,485.6,386.9z"/>
	<path d="M426.2,300.8c-1.7-1.2-3-2.1-4.2-3c-0.5-0.4-1.2-0.6-0.8-1.5c0.1-0.2,0.3-0.6,0.4-0.6c0.7,0.1,1.4,0.3,1.9,0.9
		C424.3,297.8,425.1,299.1,426.2,300.8z"/>
	<path d="M290.2,217.2c0.3,0.3,0.7,0.6,0.8,1c1.4,3.7,4.7,4.5,8.1,5.2c0.3,0.1,0.6,0.1,0.7,0.5C295.9,224.5,291.8,221.7,290.2,217.2
		z"/>
	<path d="M262.5,136.2c-0.8,4.9,0.2,9.6,1.7,14.6c-1.6-1.6-1.7-3.5-1.9-5.2c-0.4-2.7-0.6-5.4-0.5-8.1
		C261.9,137,261.6,136.3,262.5,136.2L262.5,136.2z"/>
	<path d="M175.2,694.1c-1.7,1.5-3.6,2.8-4.9,4.7c-0.4,0.6-1.3,0.4-2.4,0.2C170.5,697.3,172.4,695.1,175.2,694.1z"/>
	<path d="M273.1,266.6c-1.5-0.2-2.9,0.2-4.2,0.8c-0.4,0.1-0.9,0.5-1.1-0.2c-0.2-0.6,0.3-0.6,0.7-0.6c0.3,0,0.6-0.2,0.7-0.5
		c0.5-1.2,0.5-1.2,1.7-0.3c0.4,0.3,0.8,0.8,1.3,0.2c0.3-0.4,0.1-1.3,0.9-0.9C273.9,265.4,273.1,266.1,273.1,266.6
		C273.1,266.6,273.1,266.6,273.1,266.6z"/>
	<path d="M306.6,330.8c4-1.9,8.2-0.6,12.2-0.4C314.7,329.7,310.7,330.5,306.6,330.8z"/>
	<path d="M433.6,476.9c1.4-2.8,3.9-4.6,6.2-6.6C438.3,473.1,435.8,474.9,433.6,476.9z"/>
	<path d="M302.3,424.1c-2.3,0.8-4.6,1.5-6.9,2.3c-0.6,0.2-0.9,0.1-1.1-0.4c-0.2-0.3,0-0.5,0.3-0.6c2.6-0.7,5.1-1.3,7.7-1.9
		C302.2,423.7,302.3,423.9,302.3,424.1z"/>
	<path d="M494.1,239c-0.6,1.6-1.6,2.9-2.5,4.3c-0.2,0.3-0.4,0.8-0.9,0.5c-0.5-0.3-0.2-0.6,0-1c1.1-1.9,2.2-3.8,3.2-5.7
		C493.8,237.8,493.9,238.4,494.1,239z"/>
	<path d="M273.5,373.9c2.1-2,4.3-3.7,6.6-5.2C279.4,370.6,276,373.2,273.5,373.9z"/>
	<path d="M510.4,294.1c0.8,1.3,2.2,2.4,1.4,4.2c-0.1,0.3,0.6,0.7-0.1,0.9c-0.6,0.2-1-0.3-1.2-0.8C509.8,297,510.3,295.6,510.4,294.1
		z"/>
	<path d="M453.4,301.1c1.8-2,4.2-2.9,6.3-4.4c0.2-0.2,0.7-0.5,1-0.2c0.3,0.3,0.1,0.9-0.2,1C458,298.4,455.9,300.1,453.4,301.1z"/>
	<path d="M281.2,356.4c2.6-2.8,5.4-5.3,8.7-7.3C286.9,351.5,284.4,354.4,281.2,356.4z"/>
	<path d="M262.5,136.2c-0.9-3.4-1.6-6.8-0.3-10.2c0.3-0.7,0.4-1.7,1.5-1.7c0,0,0,0,0,0c-1.7,2.7-2,5.6-1.3,8.8
		C262.7,134,262.5,135.1,262.5,136.2C262.5,136.2,262.5,136.2,262.5,136.2z"/>
	<path d="M226.3,220.7c-0.2-0.2-0.4-0.3-0.5-0.5c-0.2-0.3,0-0.7,0.3-0.9c1.1-0.8,2.3-1.7,3.5-2.5c0.5-0.3,0.9-0.1,1.1,0.3
		c0.3,0.6-0.3,0.6-0.5,0.8c-1.1,0.8-2.5,1.2-3.3,2.5C226.8,220.5,226.5,220.6,226.3,220.7z"/>
	<path d="M572.6,328.4c-2.6,1.9-5.3,3.8-7.9,5.7c-0.9,0.6-1.7,1.3-2.7,1.8c2.3-2.3,4.9-4.2,7.6-6
		C570.6,329.3,571.4,328.4,572.6,328.4C572.7,328.4,572.6,328.4,572.6,328.4z"/>
	<path d="M264.7,409.9c0.5,1.6,0.8,3.1,1.5,4.4c0.8,1.4,1.3,2.6,0.9,4.2C266.8,415.6,263.6,413.5,264.7,409.9z"/>
	<path d="M385.6,373.5c-3.2,1.5-6.5,1.2-9.7-0.2C379.1,373.1,382.3,374.4,385.6,373.5z"/>
	<path d="M365.4,355.1c-2.7,0.6-5.4,0-8-0.6C360.2,353.8,362.8,354.4,365.4,355.1z"/>
	<path d="M352.1,182.5c1.6,0.2,2,0.6,0.8,2.1c-1.4,1.8-2.6,3.8-3.8,5.8c-0.2,0.4-0.2,0.8-0.7,0.5c-0.5-0.3-0.1-0.6,0.1-0.9
		c1.2-1.8,2.4-3.6,3.6-5.5C352.6,183.8,353,183.1,352.1,182.5C352.2,182.4,352.1,182.5,352.1,182.5z"/>
	<path d="M346,188.3c1.8-2.2,3.5-4.3,5.3-6.4c0.2-0.3,0.7-0.7,1.1-0.2c0.2,0.3-0.1,0.6-0.4,0.8c0,0,0,0,0,0
		c-1.3,1.1-2.4,2.3-3.3,3.7C348.1,187.3,347.3,188,346,188.3C346,188.3,346,188.3,346,188.3z"/>
	<path d="M237.9,201.8c1.3-0.5,2.4,1.4,3.7-0.1c0.2-0.3,0.5,0.3,0.5,0.5c-0.1,0.6,0.2,1.3-0.7,1.5
		C239.6,204.1,238.6,203.3,237.9,201.8z"/>
	<path d="M337.9,217c2.6-2,5.5-3.6,8.5-5c0.8-0.4,1.6-0.7,2.5-0.9c-2.6,1.5-5.2,2.9-7.7,4.4C340.1,216.1,339.2,216.9,337.9,217
		C337.9,217,337.9,217,337.9,217z"/>
	<path d="M186.6,206.1c-1.3-2.1-3.1-4-3.8-6.5c0.8,1.3,2.5,2.1,2.7,3.8c0,0.1,0.1,0.3,0.2,0.3C188,203.8,186.7,205.2,186.6,206.1
		C186.5,206.2,186.6,206.1,186.6,206.1z"/>
	<path d="M407.7,392.2c3-2,5.7-4.4,9.4-4.7C413.6,388.5,411,391.1,407.7,392.2z"/>
	<path d="M297.5,226c-4.1,0.3-1.1,2.5-1.6,3.8c-1.5-1.1-1.3-3.1-3.1-4.4C294.6,225.3,295.8,224.8,297.5,226z"/>
	<path d="M274,180c-2.1-1.2-4.4-2.1-6.4-3.4C269.8,177.7,272.9,176.8,274,180z"/>
	<path d="M401.1,232.2c3.2-0.7,6.4-1.9,9.8-1.9c-3.2,0.8-6.4,1.6-9.6,2.5C401.2,232.6,401.2,232.4,401.1,232.2z"/>
	<path d="M245.2,160.5c1-1.6,2-3,4.1-3c0.9,0,1.7-0.8,2.6-1.2c0.5-0.3,0.7-0.1,0.8,0.4c0.1,0.3,0,0.4-0.3,0.5
		C249.8,157.9,247.2,158.4,245.2,160.5z"/>
	<path d="M468.9,335.5c0.5-3.9,1.2-7.8,2.8-11.4C470.8,327.9,469.7,331.7,468.9,335.5z"/>
	<path d="M289.6,245.1c-1-0.5-0.8-2.2-2.1-2.5c0,0-0.1-0.4,0-0.5c1.2-0.9,0.9-1.9,0.2-3c-0.2-0.3,0.2-0.6,0.5-0.7
		c0.3-0.1,0.6,0,0.6,0.3c0,2.1,0.2,4.2,1,6.2C289.7,244.9,289.6,245,289.6,245.1z"/>
	<path d="M341,139.8c-2.6,2.5-5.3,4.8-7.6,7.6C335.5,144.4,337.6,141.5,341,139.8C341,139.8,341,139.8,341,139.8z"/>
	<path d="M246.5,194.9c2.2,1.9,4.4,0.8,6.9-0.2C250.6,197.5,249.2,197.5,246.5,194.9z"/>
	<path d="M467.3,275.4c1.2-1.4,2.8-1.8,4.4-2.1c0.4-0.1,0.9,0.1,0.9,0.5c0.1,0.5-0.4,0.5-0.8,0.6C470.4,274.7,468.8,275,467.3,275.4
		z"/>
	<path d="M469.9,662.5c-2,1.8-4.7,2.2-7.2,3.2C464.8,664,467.5,663.6,469.9,662.5z"/>
	<path d="M418.6,459.6c-0.3,2.2-1.2,4-3.1,5.4c0.9-1.9,1.7-3.8,2.6-5.6C418.3,459.4,418.4,459.5,418.6,459.6z"/>
	<path d="M440.7,306.6c-1.2,1.6-2.5,2.6-4,3.3C436.2,308.1,436.2,308.1,440.7,306.6z"/>
	<path d="M163.9,693.9c-1.3,1.6-2.2,2.8-3.2,4c-0.4,0.6-0.9,0.7-1.4,0.1c-0.5-0.7,0-1,0.5-1.1C161.2,696.3,162,694.8,163.9,693.9z"
		/>
	<path d="M341,206.2c-0.1-1-0.1-2.4-1.7-1.2c-0.4,0.3-0.7,0.3-0.9-0.2c-0.2-0.5,0.1-0.7,0.5-0.8c1.3-0.3,2.5-0.2,3.9,0.4
		C342.2,204.9,342,205.9,341,206.2C341,206.1,341,206.2,341,206.2z"/>
	<path d="M259.8,411.7c0.7,2,1,4.2,1.6,6.2C259.5,416.1,260,413.8,259.8,411.7z"/>
	<path d="M198.8,338.4c2.9,1.4,5.7,2.9,7.8,5.4C203.9,342,201.4,340.2,198.8,338.4z"/>
	<path d="M318.7,425.6c-0.4-1.9,0.3-2.9,2.1-3c0.3,0,0.8-0.4,1,0.1c0.2,0.5-0.1,1-0.5,1.1C320.2,424,319.4,424.6,318.7,425.6z"/>
	<path d="M501.9,341.9c-1.6-2.2,0.8-3.4,1-5.1C502.5,338.5,503.5,340.4,501.9,341.9z"/>
	<path d="M333.7,202.2c1.1-1.7-0.4-3.1-0.4-4.6c1,1.6,1.6,3.5,4.1,3.4C336.2,201.6,334.7,200.5,333.7,202.2z"/>
	<path d="M277.7,383c2.8,0.7,5.4,2,7.9,3.4c0,0,0.1,0,0.1,0c-1.4,0.4-2.7-1.5-4.2-0.4C281.3,383.7,278.6,384.5,277.7,383
		C277.7,383,277.7,383,277.7,383z"/>
	<path d="M304.2,380.3c1.4-1.1,6.2-2.4,9.1-2.6C310.2,379.2,307.1,379.1,304.2,380.3z"/>
	<path d="M185.6,700c-0.6-0.1-1.7,0-1.5-0.8c0.2-1,1.4-0.8,2.2-1.1c0.4-0.2,1.1,0.3,1,0.9C187.2,700,186.3,699.9,185.6,700z"/>
	<path d="M298.3,383.4c-1.5,0.4-3.1,0.9-4.6,1.3c-0.4,0.1-0.8,0.1-0.9-0.4c-0.1-0.4,0.4-0.5,0.7-0.5
		C295.1,383.4,296.7,382.8,298.3,383.4z"/>
	<path d="M492.1,265.2c0.5-1.6,1.5-2.9,2.9-3.8C494.6,263.8,493.5,265.2,492.1,265.2z"/>
	<path d="M358.5,402.3c-1.1-0.4-1.8,0.3-2.5,0.9c1-1.4,0.3-2.8,0.6-4.3C358,399.7,357.5,401.3,358.5,402.3z"/>
	<path d="M334.2,130.3c1.2-1.7,4.2-2.7,5.7-2.1c1.1,0.5,1.5,1.2,0.6,2.2c-0.1-1.6-1.2-2.4-2.7-1.8
		C336.6,129.1,335.4,129.7,334.2,130.3L334.2,130.3z"/>
	<path d="M274.2,215c1.6,0.7,3.1,1.5,3.8,3.8C276.3,217.4,274.9,216.6,274.2,215z"/>
	<path d="M353.6,228.1c-2.9,0.6-5.7,1.2-8.6,1.8C347.7,228.6,350.6,228.2,353.6,228.1z"/>
	<path d="M409.3,418c2.3,1.3,1.9,3.6,2.3,5.7C411.1,421.7,410.4,419.8,409.3,418z"/>
	<path d="M305.9,256.2c-1.2-0.8-0.5-2.5-2.2-2.4c-0.4,0-0.2-0.6,0.1-0.9c0.5-0.4,1.1-0.9,1.9-1.3
		C304.1,253.2,306.2,254.5,305.9,256.2z"/>
	<path d="M334.9,108.4c1.7-0.9,3.4-1.7,5-2.6C338.9,107.5,336.7,108.5,334.9,108.4z"/>
	<path d="M448.8,265.2c-1.4,1.6-3.3,2-5.6,2.7C445,266.2,446.8,265.6,448.8,265.2z"/>
	<path d="M229.4,184.4c0.1,1.6,0.3,3.1,0.9,4.6C229.2,187.7,227.9,186.3,229.4,184.4z"/>
	<path d="M283,406.5c-2.1-0.8-3.5-1.9-5.1-3C280,403.7,281.1,404.4,283,406.5z"/>
	<path d="M440.2,438.3c0,2.4-0.6,4.6-1.3,6.9C438.8,442.8,439.6,440.6,440.2,438.3z"/>
	<path d="M285,337.5c1.8-1,3.7-1.6,6.2-2.3C289,336.5,287,337,285,337.5z"/>
	<path d="M339.7,189.4c-0.2-1.8,0.6-3.1,1.3-4.4c0.2,0.1,0.3,0.2,0.5,0.2C340.9,186.6,340.3,188,339.7,189.4z"/>
	<path d="M645.5,417.5c-2.2-0.3-3.9-1.7-5.6-3C641.9,415.4,643.9,416,645.5,417.5C645.5,417.6,645.5,417.5,645.5,417.5z"/>
	<path d="M170.7,411.6c2-0.1,4,0,5.7,1.3C174.5,412.5,172.6,412.1,170.7,411.6z"/>
	<path d="M400.5,313.4c-1,1.4-1.7,2.3-3.4,2.3C398.1,314.6,398.7,313.5,400.5,313.4z"/>
	<path d="M202.4,207.1c-0.2,0.2-0.4,0.4-0.6,0.5c-0.4,0.1-0.7-0.1-0.7-0.5c0.1-0.8-0.4-1.1-1.1-1.3c-0.5-0.1-0.8-0.5-0.5-1
		c0.3-0.5,0.8-0.1,1,0.1C201.1,205.6,201.7,206.3,202.4,207.1z"/>
	<path d="M334.2,130.3c-2.2,0.7-4.3,1.4-6.5,2.1C329.8,131.5,331.8,130.1,334.2,130.3C334.2,130.3,334.2,130.3,334.2,130.3z"/>
	<path d="M358.3,194.3c-0.5,1.6-0.5,1.6-5.1,2.8C354.7,195.6,357.2,196.1,358.3,194.3z"/>
	<path d="M307.7,179.7c0,2.4-0.2,4.7-1.4,6.9C306.8,184.2,307.3,182,307.7,179.7z"/>
	<path d="M308.7,164.7c-0.4-0.6-0.7-1.2-0.7-2c-0.2-1.3-0.5-2.4-2.7-1.7c1.8-1.3,2.3-1.1,2.6,0.3
		C308.2,162.5,308.5,163.6,308.7,164.7C308.7,164.7,308.7,164.7,308.7,164.7z"/>
	<path d="M300.2,337c1.4-0.9,2.9-1.6,4.7-1.3C303.4,336.1,301.8,336.5,300.2,337z"/>
	<path d="M206,340.2c1.9,0.8,3.7,1.5,4.8,3.3C209.2,342.4,207.6,341.3,206,340.2z"/>
	<path d="M364.8,157.1c-1.7-0.9-3.4-0.5-5.2,0.1C361.6,155.7,363.2,155.6,364.8,157.1z"/>
	<path d="M478.2,663.7c-0.8,1.5-2.1,2.6-3.9,3C475.6,665.7,476.9,664.7,478.2,663.7z"/>
	<path d="M609.4,470.9c5.1,1.6,10.3,2.4,15.5,3.7c1.8,0.5,3.6,1.4,3.7,3.4c0.1,2-2.2,2.2-3.5,2.7c-7.2,2.6-14.5,5.3-21.4,8.6
		c-2.1,1-4.6,1.3-6.4,3.1c-0.3,0.3-1,0.3-0.8,0.9c0.1,0.5,0.7,0.5,1.1,0.6c2.6,0.1,5.3,0.3,7.8,1.1c3.1,1,6.4,1.2,9.4,2.8
		c2.6,1.4,5.7,1,8.5,1.6c1.2,0.3,2.4,0.5,3.5,1c4.1,2.2,8.7,3.2,13.2,4.1c1.5,0.3,2.9,1.1,4.3,1.6c4.6,1.7,9.5,2.2,14.3,3.2
		c2.2,0.5,4.1,1.5,6.2,2c1,0.2,0.7,0.7,0.1,1.2c-1.2,1.1-2.8,1.5-4.2,1.8c-7.6,1.5-14.9,3.8-22.7,4.5c-2.4,0.2-4.8,0.6-7.7,0.4
		c2.1,2.2,4.5,2.6,6.6,3.6c2.5,1.2,5.2,1.9,7,4.2c0,0,0,0,0,0c-0.7,0.2-1.1-0.3-1.6-0.6c-4.6-2.7-10-3.6-14.2-7
		c-0.7-0.5-1.7-0.6-1.8-2c11.9,2.2,23-1.2,34-5.2c-1.9-0.5-3.8-0.9-5.6-1.5c-8.1-3-16.4-5.2-24.6-7.8c-1.7-0.5-3.7-0.3-4.9-2.1
		c-0.7-1-1,0.7-1.7,0.4c-4-1.7-8.2-2.4-12.3-3.8c-3.5-1.2-7.5-2.1-11.4-2.2c-2.7-0.1-5.1-1.6-7.7-2.1c3.5-1.3,6.8-2.9,10.2-4.1
		c4.6-1.6,9.1-3.4,13.4-5.8c3-1.7,6.2-3.1,9.3-4.7c0.4-0.2,1.2-0.3,1.1-0.9c0-0.6-0.7-0.7-1.2-0.9c-4.5-1.9-9.1-3.4-13.8-4.7
		C610.4,471.6,609.6,471.7,609.4,470.9L609.4,470.9z"/>
	<path d="M647.8,529.7c3.5,2.1,7.3,3.7,10,7c1,1.2,2.5,2,3.8,3c1,0.7,1.8,1.5,1.8,2.8c0,1.2-0.3,1.8-1.5,2.3
		c-4.7,2.1-9.6,1.6-14.5,1.2c-3.6-0.3-7.2-0.6-10.8-1c-1.7-0.2-3.5-0.6-5.3-0.2c4.6,1.9,9.6,2.7,14.4,4.3c-4-0.6-7.9-2.2-12.5-2
		c3.5,2.2,6.6,4,9.3,6.5c2.4,2.3,2.3,3.1-0.2,5.4c-3.5,3.3-7.7,5.4-11.9,7.4c-0.9,0.4-1.7,1.2-2.5,1.7c-1.7,1.2-3.6,2-5.5,2.9
		c-2.2,1.1-4.7,1.1-7.1,1.7c-4.8,1-9.5,0.5-13.9-1.2c-5.1-2-10.6-3.3-15-6.9c-0.8-0.6-1.9-0.9-3.4-1.6c1.8,0,2.9,0.3,3.9,0.9
		c3.8,2.3,7.7,4.5,12.1,5.5c6.2,1.4,12.4,3.7,19,1.8c3.2-0.9,5.9-2.8,8.8-4.3c4.1-2.1,8.2-4,11.8-7c1.4-1.2,2.6-2.6,3.9-3.9
		c0.5-0.5,0-0.8-0.2-1.1c-1.5-2.4-4-3.6-6.3-4.9c-3.9-2.3-8-4.3-12-6.5c-2.1-1.1-4.4-1.5-6.6-2.2c-1.8-0.6-3.6-1.2-5.4-1.9
		c2.6-0.2,5,0.8,7.5,1.5c4.2,1.1,8.4,2.4,12.9,1.8c1.1-0.2,2,0.6,3.1,0.8c6.8,1.2,13.6,1.5,20.4,1.4c1.9,0,3.7-0.7,5.4-1.5
		c1.4-0.6,1.4-2.1-0.1-3.2c-4.4-3.1-7.8-7.5-12.7-10C648.2,530.3,647.9,530.1,647.8,529.7L647.8,529.7z"/>
	<path d="M588.1,466.8c-1.9,1-4,1.1-6,1.5c-5.1,0.9-10.3,0.8-15.3,2.5c-2.5,0.8-5.2,1.1-7.7,2.2c-5.3,2.4-11.2,3.3-16.4,5.8
		c-1.4,0.7-3,1.1-4.5,1.6c-0.6,0.2-1.3,0.4-1.4,0.9c-0.1,0.8,0.8,1,1.3,1.2c3,1.3,6,2.4,8.9,3.7c4.4,1.8,8.9,3.3,13.5,4.2
		c1.8,0.3,3.7-0.2,5.5,0.8c0.4,0.2,0.9,0.2,1.1,0.7c-0.7,0.5-1.5,0.3-2.3,0.2c-6.8-1.1-13.3,0.7-19.7,2.7c-2.3,0.7-4.5,1.4-6.8,2.1
		c-1.6,0.5-1.3,1.2-0.2,1.9c0.5,0.4,1,0.9,1.6,1.1c4.9,2.2,9,5.8,14.1,7.7c0.8,0.3,1.4,0.7,1.5,1.8c-2.5-1.3-4.9-2.6-7.2-3.9
		c-3.5-2-7.1-3.9-10.6-6c-2.3-1.4-2.2-2,0-3.3c2.6-1.6,5.4-2.8,8.4-3.2c3-0.3,5.7-2.1,8.8-1.9c0.3,0,0.7,0,0.7-0.4
		c0-0.5-0.4-0.6-0.8-0.7c-2.4-0.9-4.7-1.7-7.1-2.5c-3.7-1.3-7.4-2.6-11-4.3c-0.8-0.4-1.7-0.7-1.7-1.7c0-1,1.2-1,1.9-1.4
		c4.9-2.2,9.9-4.3,14.9-6.4c3.5-1.4,7.2-1.9,10.9-2.5c1.7-0.3,3.4-0.5,5-1.2c1.4-0.6,2.8-1,4.3-1.1c4.1-0.1,8-0.8,12.1-1.3
		C585.2,467.5,586.7,467.1,588.1,466.8z M550.5,474.9c2.7,0.2,4.8-0.6,5.9-2.1C554.4,473.3,552.7,473.8,550.5,474.9z"/>
	<path d="M569.1,522.3c9.5,4.8,19.3,8.4,28.9,13.6c-3.4-0.6-6.5-0.9-9.6-1.6c-6.4-1.5-12.8-2-19.4-2.2c-3.7-0.1-7.4-0.1-11.1-0.2
		c-4-0.2-8.1-0.8-12.1,0.2c-1.3,0.3-2.1-0.6-3.1-0.7c5.5-1.2,11.1-0.5,16.6-0.4c5.2,0.1,10.3,0.3,15.5,0.5c2.8,0.1,5.5,0.5,8.3,0.8
		c0.6,0,1.6,0.4,1.8-0.6c0.1-0.7-0.8-0.9-1.3-1.2c-4.3-2.5-9.2-3.8-13.4-6.7C569.6,523.4,568.9,523.4,569.1,522.3z"/>
	<path d="M594.2,452.3c0.2-0.4,0.6-0.5,1-0.5c2.6-0.1,5.3-0.3,7.9-0.3c3.6,0,6.2,2.2,8.6,4.5c1.2,1.2,0.3,3-1.3,3.6
		c-2.9,1.1-5.8,2-8.9,2.5c-2.9,0.4-5.7,1.1-8.5,1.7c-5.5,1.1-10.9,2.5-16.5,3.3c-4.6,0.7-9.2,0.1-13.8-0.4c-0.3,0-0.9,0.2-0.9-0.4
		c0-0.8,0.6-0.4,1-0.3c4.3,0.1,8.6,0.9,12.9,0.4c3.8-0.4,7.6-1.3,11.4-2.2c5.2-1.2,10.4-2.2,15.6-3.3c2.3-0.5,4.7-0.7,6.8-2
		c1.7-1,1.7-1.9,0.4-3.4c-1.9-2.1-4.4-2.7-6.9-3.1C600.1,451.8,597.1,451.7,594.2,452.3L594.2,452.3z"/>
	<path d="M570.2,569.7c7.8,8.6,15.6,16.5,25.5,22.7c-7.8-2.1-23.4-18.3-26.2-23.7c1.9,0.6,3.6,1.6,5.4,3.2
		C573.2,571.7,572.3,570.1,570.2,569.7z"/>
	<path d="M543.6,457.2c-0.1,1.1-0.6,1.4-1.3,1.6c-3.2,0.8-5.6,3.1-8.6,4.2c-0.4,0.2-1,0.5-0.9,1.1c0.1,0.5,0.7,0.6,1.1,0.7
		c1.3,0.2,2.7,0.3,4,0.4c3.5,0.2,7,0.4,10.8,0.5c-0.9,1-1.8,0.7-2.7,0.7c-4.4,0-8.7-0.3-13.1-0.7c-0.6,0-1.5,0.2-1.6-0.7
		c-0.1-0.8,0.2-1.6,1-2c2.2-1.2,4.4-2.4,6.6-3.6C540.4,458.7,541.9,458,543.6,457.2z"/>
	<path d="M556.6,509.9c1.5,0.7,3,1.3,4.4,2.1c1.9,1,4,1.3,5.8,2.5c0.3,0.2,1.1,0,0.9,0.7c-0.2,0.6-0.8,0.6-1.3,0.4
		c-1.6-0.5-3.2-0.7-4.9-0.5c-0.8,0.1-1.6,0.2-2.8,0.3c1.9,3.3,5.6,3.5,8,5.6c-3-1.2-6-2.1-8.3-4.5c-0.3-0.3-0.9-0.5-0.7-1
		c0.1-0.5,0.7-0.5,1.1-0.6c0.9-0.2,1.8-0.3,2.7-0.5c0.4-0.1,1,0,1.1-0.6c0.1-0.5-0.4-0.7-0.8-0.9c-1.5-0.7-3-1.5-4.5-2.2
		c-0.3-0.1-0.5-0.3-0.7-0.5C556.5,510.1,556.5,510,556.6,509.9z"/>
	<path d="M575.1,453c-2.1,1.2-4.5,0.7-6.8,1.1c-5.7,0.9-11.6,0.4-17.3,1.6c-2,0.4-3.8,1.4-6,1.1c1.9-0.5,3.8-1.2,5.7-1.6
		c1.9-0.4,3.8-0.8,5.7-0.8C562.6,454.4,568.8,453.2,575.1,453C575.1,453,575.1,453,575.1,453z"/>
	<path d="M609.4,470.9c-2.4,0.4-4.7-0.8-7-1.1c-3.8-0.5-7.5-1.3-11.1-2.3C597.4,467.8,603.4,469.5,609.4,470.9
		C609.4,470.9,609.4,470.9,609.4,470.9z"/>
	<path d="M594.2,452.3c-5.7,0.3-11.5,0.6-17.2,1c-0.6,0-1.3,0-1.9-0.2c0,0,0,0,0,0c6-0.9,12.1-0.9,18.2-1
		C593.6,452,593.9,452.2,594.2,452.3C594.2,452.3,594.2,452.3,594.2,452.3z"/>
	<path d="M577.5,560.8c-2.5-1.6-5-3.1-7.5-4.7C572.7,557.3,575.4,558.6,577.5,560.8z"/>
	<path d="M581.9,576.7c-1.7-0.9-3.5-1.9-4.7-3.6c1.7,1,3.4,2.1,5.1,3.1C582.1,576.4,582,576.5,581.9,576.7z"/>
	<path d="M647.9,529.6c-1.7-0.3-2.8-1.6-3.9-2.7c0,0,0,0,0,0C645.6,527.4,647.1,528,647.9,529.6
		C647.8,529.7,647.9,529.6,647.9,529.6z"/>
</g>
</svg>
