<?xml version="1.0" encoding="utf-8"?>
<!-- Generator: Adobe Illustrator 26.0.2, SVG Export Plug-In . SVG Version: 6.00 Build 0)  -->
<svg version="1.2" baseProfile="tiny" id="Layer_1" xmlns="http://www.w3.org/2000/svg" xmlns:xlink="http://www.w3.org/1999/xlink"
	 x="0px" y="0px" viewBox="0 0 800 800" overflow="visible" xml:space="preserve">
<g>
	<path d="M476,442.9c1.4,1.7,2,3.8,2.5,5.8c0.4,1.7,0.9,3.3,1.5,5c1.4,3.8,1.6,7.6,0.8,11.6c-0.1,0.6-0.2,1.1,0,1.5
		c0.7,2,1.6,3.9,2.3,5.9c0.6,1.8,0.7,3.8,1.4,5.7c1.6,4.1,1.6,8.4,1.4,12.7c-0.2,4.5-1.5,8.8-3,13.1c-1.7,5.2-5.6,9.1-7.8,13.9
		c-1.3,2.9-3.7,5-5.9,7.1c-0.8,0.8-1.1,1.4-0.8,2.5c2,6.3,2.3,12.9,2.6,19.4c0.1,3.5-0.1,7,1.1,10.4c0.9,2.6,1.7,5.2,2.7,7.7
		c1,2.5,1.8,5.1,1.9,7.9c0,0.7-0.1,1.5,0.7,2.1c0.6,0.5-0.5,1-0.1,1.7c0.2,0.4-1,1.1,0,1.7c-2,0.7-0.6,3.2-2.2,4
		c1.1-3.6,0.9-7.3,0.7-11c0-0.4,0.2-1.1-0.7-0.7c-0.2,0.1-0.6-0.2-0.4-0.4c0.9-1.1,0.3-2.5-0.1-3.3c-0.5-1.1-0.6-2.3-1.1-3.1
		c-0.7-1.1-0.7-2.3-1.3-3.2c-0.8-1.1-1-2.3-1.1-3.6c0-0.4-0.1-0.7-0.5-0.7c-0.8,0-0.9-0.2-0.2-0.7c0.1-0.1,0.3-0.3,0.3-0.3
		c-1-1.4,0-2.9-0.4-4.4c-0.2-0.6-0.3-1.2-1.4-1c0.7-0.6,1.7-0.9,0.4-1.6c-0.1-0.1,0.3-1.1,0.2-1.8c-0.2-1.3,0-2.7,0-4
		c0-0.7,0.2-1.5-0.9-1.7c-0.2,0-0.3-0.3-0.2-0.5c0.4-1.1,0.5-3.4,0.4-4.7c-0.1-0.9-0.2-1.6-1.5-1.3c0.8-0.5,1.4-1,0.3-1.6
		c0.3-0.7,0.2-1.4,0.2-2.1c0-0.5-0.1-1.4-0.6-1.1c-0.6,0.3-2.2-0.9-2,1c0,0.5-0.1,0.6-0.6,0.5c-0.2,0-0.5,0-0.5,0.1
		c-0.1,1.4-1.9,1.2-2.3,2.5c-0.1,0.6-1.3,0.7-1.5,1.4c-0.4,1.8-2.1,3.1-2.3,5c-0.1,0.8-0.1,1-0.9,1.4c-0.5,0.2-1,1.2-0.8,2
		c0.1,0.5,0,0.7-0.5,0.8c-0.2,0-0.4,0.2-0.5,0.3c-0.4,1.8-2,3.1-2.5,4.8c-0.2,0.6-1.3,1.2-0.3,2c-0.1,0.1-0.1,0.2-0.2,0.2
		c-1.5-0.5-1.2,0.9-1.4,1.5c-0.9,1.9-1.9,3.7-3.1,5.5c-0.6,0.9-1.4,1.9-0.7,3.2c-1.1-0.1-2.1,1.1-1.9,2.4c0,0.3,0.3,0.8-0.2,0.7
		c-0.9-0.1-0.9,0.6-1.1,1.1c-0.6,1.2-0.7,2.6-0.5,3.2c-1-0.2-2,0.9-1.8,2.2c0.1,0.6,0.1,0.8-0.5,0.9c-0.1,0-0.2,0.1-0.2,0.1
		c-0.6,1.8-1.9,3.1-2.7,4.8c-0.6,1.4-0.1,2.4,0.9,3.3c0.7,0.6-0.3,1.4,0.2,2.1c0.1,0.1-0.5,0.4-0.6,0c-0.3-0.7-0.6-0.6-1-0.2
		c-0.3,0.3-0.5,0-0.6-0.3c-0.1-0.5-0.3-0.9-1-1c-0.1,0.5,0.6,1.7-0.9,1.3c-0.2,0-0.9,1.3-0.8,2.2c0,0.3,0.2,0.6-0.1,0.7
		c-0.3,0.1-1-0.1-0.7,0.5c0.2,0.4,0.9,1,1.5,0.8c0.7-0.3,0.7,0,1,0.5c0.4,0.7,1,1.8,2.2,1.2c0.2-0.1,0.5-0.1,0.6,0.2
		c0.2,0.7,0.4,1,0.8,0.1c0-0.1,0.1-0.2,0.2-0.2c0.6,0.5,1.3,0.5,2,0.2c0.2,0.8,0.5,0.6,0.9,0.1c0.1-0.2,0.5-0.1,0.5,0.1
		c0,0.6,0.7,1.3,0.2,1.9c-0.4,0.5-0.4,1-0.5,1.7c-0.5-0.4-1-1.4-1.6-0.3c-0.6-0.8-1.3-0.2-1.9-0.1c-0.2,0-0.4,0.3-0.4,0.3
		c1.2,0.4,0.2,1.4,0.5,2c0.1,0.3,0.4,0.4,0.1,0.7c-0.4,0.4-0.7,0-0.8-0.3c-0.6-1.6-2.4-2.2-3.3-3.7c-0.6-1-2.1-1.6-2.9-2.8
		c-0.9,2.7-1.2,5.3-1.5,7.9c-0.2,1.3,0.1,2.6,0.4,3.8c1.2,4,2.6,8,3.6,12.1c0.6,2.5,0.8,5.1,1.5,7.7c0.7,3-0.1,5.9-0.5,8.8
		c-0.4,4-2.2,7.7-3.2,11.5c-0.7,2.7-1,5.4-0.5,8.2c0.5,2.5,0.2,5.1,0.9,7.6c0.4,1.7,0.5,3.4,0.3,5.1c-0.2,1.6,0.8,3.2,0.3,4.9
		c-0.2,0.6-0.2,1.3-0.5,1.8c-1.4,2.1-2.6,4.4-4.2,6.4c-1.7,2.2-3.7,4.1-4.7,6.8c-0.2,0.6-0.4,1.1-0.4,1.8c0,3-0.9,5.6-2.6,8
		c-0.6,0.9-1.2,1.9-1.7,2.9c-1.3,2.5-3.3,3.3-6.2,2.9c-2.3-0.3-4.7,0-6.9,0.8c-3.5,1.2-6.9,2.5-10.7,2.7c-2.4,0.1-3.2-0.7-2.8-3.1
		c0-0.3,0.1-0.6,0.2-0.9c0.2-1.1,0-1.6-1.4-1.7c-2.4-0.1-4.4,1.1-6.6,1.3c-6.4,0.6-12.6,2.1-19.1,1.8c-0.6,0-1.2,0-1.7,0.2
		c-1.7,0.4-2,0.3-1.9-1.5c0.1-1.2-0.3-1.4-1.3-1.1c-1.1,0.2-2.2,0.4-3.3,0.5c-1.3,0.2-2.2-0.6-1.9-1.8c1.2-5.8,3.1-11.2,6.5-16
		c0.3-0.4,0.5-0.8,0.8-1c2.6-1.4,2.6-4,3-6.4c0.6-3.2,2.3-5.5,5.3-6.7c3.2-1.3,6.2-2.9,8.5-5.6c1.2-1.4,3.2-1.2,4.7-2
		c0.4-0.2,0.9-0.2,1.1-0.8c0.9-2.6,2.8-4.6,4.4-6.8c0.4-0.5,0.9-0.9,1.4-1.2c1.9-1.1,2.7-2.8,3-5c0.5-3.8,0-7.5-0.9-11.2
		c-0.7-3.2-1-6.4-1.2-9.6c-0.2-2.6-0.7-5.3-0.7-7.9c0-2.9-1.2-5.6-1.2-8.5c0-0.9-0.3-1.7-0.7-2.5c-1-1.9-1-4-0.9-6.2
		c0.1-4.5,0.3-9-0.1-13.5c0-0.2,0-0.4,0.1-0.6c1.5-2.5,0.2-4.6-0.9-6.7c-1.1-2.2-0.7-4.5-0.6-6.7c0.2-1.9,0.6-3.8,1.3-5.7
		c1-2.5,0.9-5.2,1.3-7.8c0.6-4.8,2.2-9.4,3.5-14c1.2-4.3,2.7-8.5,4.8-12.4c0.9-1.7,1.8-3.4,3.4-4.7c1.2-1,1.5-2.5,2.3-3.7
		c0.2-0.4,0.1-0.8-0.2-1.1c-1.1-1.8-1.7-3.8-2.9-5.6c-2-3.1-2.4-6.8-3.3-10.3c-0.7-2.6-1.9-4.9-3.4-7c-2.8-4-5.4-8.1-6.6-13
		c-0.5-2.1-0.2-4.3-0.4-6.4c-0.4-3.7-1.4-7.3-2.5-10.9c-1.3-4.6-1.9-9.4-1.6-14.2c0.3-4.2,1.2-8.2,2.1-12.3c0.2-0.7,1.2-1.4,0.5-2
		c-0.4-0.4-1.4,0-2.1-0.2c-3.7-0.7-7.2-2.2-10.5-4c-3.1-1.7-5.8-4.1-9.2-5.2c-1-0.3-2-0.6-3.1-0.2c-2.2,0.7-3.5,0.1-4.6-1.8
		c-0.2-0.4-0.5-0.7-1-0.8c-0.5-0.2-1.1-0.4-1.6-0.7c-3.9-1.6-2.9-1.8-5.1,1.1c-0.3,0.3-0.4,0.9-1,0.8c-0.5-0.1-0.4-0.7-0.5-1.1
		c-0.2-1.1-0.5-2.3-0.7-3.4c-0.1-0.6-0.5-1-1-1.2c-1.4-0.5-2.7-1-4.1-1.4c-1.1-0.3-2.2-0.4-3.4-0.4c-1-0.1-1.7-0.7-1.8-1.8
		c-0.1-1.1-0.4-2.2-0.4-3.3c0-0.9-0.4-1.4-1.2-1.5c-1.4-0.1-2.7-0.6-4.1,0c-0.6,0.3-1.3,0.1-2,0.1c-3.6,0.2-7.3,0-10.9,0.8
		c-0.3,0.1-0.5,0.2-0.5,0.6c0,3.1-0.1,6.2-0.1,9.3c0,6,0.3,12,0.2,18.1c-0.1,12.7,0.2,25.4,0,38.1c-0.2,14.8,0.2,29.7,0.1,44.5
		c0,5.1,0.1,10.2,0.3,15.3c0.2,5.1,0.2,10.2,0.3,15.3c0.1,6.4,0,12.9,0,19.3c0,5.1,0.2,10.3,0.2,15.4c0,6.3,0,12.7-0.1,19
		c0,13.8-0.1,27.6-0.1,41.4c0,6.5-0.4,13-0.2,19.5c0.2,5.6,0.1,11.2,0.1,16.9c0,1.2,0.3,2.3,0.4,3.5c0.1,2.2-1.3,3.7-3.5,3.9
		c-0.4,0-0.8,0-1.2,0c-3.5-0.1-4.1-0.6-4.1-4.1c0-10.7,0-21.5,0-32.2c0-19.7,0-39.5,0.1-59.2c0-4.2,0.2-8.4,0.1-12.6
		c-0.3-20.2,0-40.4-0.1-60.7c0-7.8,0-15.5-0.1-23.3c0-5.1-0.2-10.1-0.2-15.2c0-5.8,0.3-11.6,0.1-17.4c-0.1-4.6,0.1-9.2,0-13.8
		c-0.2-4.9,0-9.8,0-14.7c0-2.8,0.3-5.6,0.2-8.3c-0.2-5.8-0.1-11.6-0.4-17.4c0-0.5,0-1.1,0-1.6c0.1-0.7-0.2-1-0.9-1
		c-1.1,0-1.9-0.3-2.7-1.3c-0.6-0.8-2.1-0.8-3.2-1.2c-1.7-0.6-3.6-1-5-2.5c-1.7-1.9-2.5-5.2-1.5-7.6c0.4-0.8,0.2-1.1-0.6-1.4
		c-1.6-0.6-2.5-1.6-2.4-3.5c0.1-1.3,0-2.6-0.1-3.9c0-1,0.4-1.8,1.1-2.4c0.9-0.8,1-1.5,0.4-2.5c-1.4-2.1-1.7-4.5-1.2-6.8
		c0.3-1.8,1.4-3.5,2.5-4.9c0.5-0.6,1.2-0.9,2.1-0.8c3.1,0.3,5.3-1.1,6.9-3.7c0.8-1.3,1.5-3,3.6-2.8c0.7,0.1,0.5-0.8,0.5-1.3
		c0-4.8,0-9.5,0-14.3c0-3.3,0.1-6.6,0.2-10c0-1.1-0.3-1.9-1.3-2.6c1.3,0.7,1.3,0,1.3-0.8c0-14.7-0.1-29.4,0.1-44
		c0.1-10.8-0.2-21.6-0.1-32.4c0-3.7,0-7.4,0-11.1c0-0.9-0.2-1.6-1-2.1c-0.9-0.5-1.3-1.3-1.2-2.4c0.1-1.8,0-3.7,0-5.6
		c0.2,0,0.4,0,0.6,0c0,1.4,0,2.8,0,4.2c-0.1,3.3,1.6,4.6,4.8,3.8c0.6-0.2,1.2-0.2,1.9-0.3c1-0.2,1-0.2,1.8-1.2
		c-0.3,1.2,0.1,2.2-1,2.9c-0.2,0.1-0.1,0.7-0.1,1.1c0.1,5.5,0.1,11,0.2,16.5c0.2,11.9,0.1,23.8,0.2,35.6c0,3.3,0.4,6.6,0.5,9.9
		c0,6.1,0.1,12.2,0,18.3c-0.1,5.6,0.2,11.1,0.1,16.7c0,3.7,0.4,7.5,0.1,11.2c-0.1,1.3,0,2.7,0.1,4.1c0,0.5,0.2,1,0.8,0.7
		c2.8-1.5,5.4,0.5,8.1,0.6c2.7,0.1,4.2,1.8,5.8,3.5c2.4,2.4,5.2,4.5,7.3,7.2c1.2,1.6,1.6,3.6,2.9,5.2c0.5,0.7,0.8,1.5,1.4,2.2
		c0.7,0.8,1.4,1.9,2.9,0.7c1.4-1.1,4.5,0.2,5.3,2c0.4,0.9,1,1.3,1.9,1.6c1,0.2,2,0.5,3,0.7c0.7,0.1,1.2-0.1,1.7-0.5
		c0.9-0.8,1.8-1.7,2.7-2.5c0.8-0.7,1.3-0.6,1.6,0.5c0.3,1,0.1,2,0.2,3c0.1,0.9,0.4,1.5,1.3,1.9c0.7,0.3,1.3,0.6,2,0.9
		c1.6,1,3.4,1.1,5.3,1.2c1.6,0.1,2.8,1.2,2.6,2.7c-0.2,2.1,0.8,2.8,2.6,3.4c3.7,1.3,7.5,1.5,11.3,1c1.3-0.2,2.7-0.1,4-0.2
		c1.2,0,1.8-0.5,1.7-1.8c-0.3-4.8,0.1-9.6,1.9-14.2c0.5-1.3,0.7-2.7,0.9-4.1c0.1-1,0.6-1.9,1.3-2.5c3.8-3,6.1-7,7.9-11.3
		c0.7-1.6,0.3-3.2,0.1-4.7c-0.7-5.3,0-10.3,2.6-15.1c0-0.1,0.2-0.1,0.5-0.3c-1.4,3.4-1.7,6.7-1.6,10.1c0,0.1,0,0.3,0,0.4
		c0.2,0.8,0,1.9,0.8,2.2c0.5,0.3,1-0.8,1.6-1.1c-0.6,3.9-2.2,7.4-3.9,11c-1.8,3.9-4.5,7.1-6.6,10.8c-1.2,2.1-2.7,4-2.8,6.5
		c0,0.8-0.4,1.7,0.6,2.3c0.1,0.1,0.1,0.4,0.1,0.5c-0.1,0.2-0.3,0.3-0.5,0.1c-0.2-0.1-0.4-0.8-0.7-0.1c-0.1,0.3-0.2,0.8,0.4,0.9
		c0.3,0,0.6,0.2,0.4,0.4c-1.1,1.5-0.2,3.4-1.1,4.9c-0.2,0.3-0.3,0.7,0,0.7c2,0.3,0.6,1.8,0.9,2.7c0.1,0.3-0.4,0.6,0.4,0.9
		c1.1,0.3,2.1,0.8,3.2,1c0.5,0.1,2.1-0.3,2.2,1.1c0.6-0.8,1.1,0.4,1.6,0.1c0.6-0.4,0.6-1,0.8-1.6c1.4-5.1,0.8-10.7,3.6-15.5
		c0.2,0.2,0.5,0.4,0.8,0.5c0.2,0.1,0.3,0.4,0.1,0.6c-0.4,0.4-1.8,2.9-1.8,3.3c0,0.1,0,0.3,0,0.3c1.3,0.5,0.3,1.3,0.2,2
		c-0.1,0.6-0.4,1.4,0.2,1.9c0.4,0.3,0.1,0.6-0.1,0.9c-0.2,0.2-0.5,0.6-0.2,0.7c0.9,0.6,0.8,1.1,0.4,2c-0.4,0.9,1.3,0.4,1.3,1.3
		c0.4,0,0.9-0.1,0.9-0.5c0-0.8,1.5-0.6,1-1.7c0,0,0.1-0.1,0.2-0.2c1.2,1.3,1.7-0.7,2.9-0.5c1.2,0.3,2.2-0.7,3.4-1.1
		c2.5-0.9,5.1-1.5,7.7-2.3c4.8-1.5,9.7-2.4,14.5-3.7c0.5-0.1,0.8-0.4,1.1-0.8c2-3.1,4.1-6.1,6.2-9.2c0.9-1.3,2-2.3,3.3-3.3
		c-0.5,0.7-0.9,1.5-1.4,2.1c-2.5,2.7-4.1,5.9-6,8.9c-0.6,1-0.7,2.3-1.1,3.4c-0.2,0.5-0.3,1-0.9,0.3c-0.3-0.4-0.9-0.5-1.5-0.3
		c-3.4,1.1-7,1.4-10.5,2.5c-4.9,1.6-9.8,3-14.4,5.5c-3,1.5-5.8,3.3-8.6,5c-1.5,0.8-1.4,1.3,0,2.2c0.7,0.5,1.4,1,2.2,1.4
		c0.7,0.4-0.2,1.3,0.7,1.5c-0.6,0-1-0.4-1.4-0.7c-2.5-1.6-5.1-3-7.8-4c-4.1-1.4-8.4-1.5-12.7-0.8c-1.3,0.2-2.5,0-3.8-0.1
		c-2.5-0.1-5-0.2-7.3-1.3c-1-0.5-1.3-0.1-1.3,1c0,1.3-0.1,2.6-0.4,3.9c-0.2,1.1,0,1.7,1,2.3c0.6,0.3,1.4,0.5,1.5,1.4
		c-2.9-0.5-2.9-0.5-3.9,2.5c-0.4,1.2-0.4,2.4-0.8,3.5c-0.2,0.6,0.2,0.8,0.6,1c1.2,0.7,2.4,1.1,3.7,1.6c-0.6,0.1-1.4-0.3-1.9,0.4
		c-0.1,0.2-0.5,0.1-0.6-0.2c-0.2-0.6-0.8-0.6-1.3-0.9c-0.3-0.2-0.7-0.5-1,0c-0.3,0.5,0.2,0.6,0.5,0.8c0.7,0.4,1.5,0.9,2.1,1.5
		c1.7,1.5,3.6,1.1,5.4,0.7c0.3-0.1,0.7-0.4,0.8,0c0.2,0.6-0.4,0.5-0.7,0.6c-1.1,0.2-2.2,0.4-3.1,1.2c-0.5,0.4-1.1,0.3-1.7,0.2
		c-1.3-0.4-2.6-0.8-3.9-1.2c-1.5-0.4-2.6,0.8-2.2,2.4c0.2,0.9,1,0.5,1.4,0.9c1.5,1.1,2.7,2.6,4.9,3.1c-0.8-1.3-1.9-1.9-2.9-2.6
		c-0.3-0.2-1-0.4-0.7-0.9c0.2-0.5,0.7,0.1,1,0.1c1.7-0.1,3.7,1,5-0.3c1-1,2-0.1,2.9-0.9c0.2-0.2,1.1,0.1,1.4,0.4
		c0.5,0.5,1,0.8,1.5,1.1c1.7,1,2.6,2.3,2.1,4.4c-0.2,0.7,0.6,1.1,0.9,1.9c-0.8-0.1-1-1.3-1.8-0.8c-0.1,0.1-0.4-0.4-0.2-0.6
		c0.6-0.8-0.2-1.1-0.6-1.5c-0.6-0.8-0.9-0.3-1.5,0.1c-0.2,0.2-1.2-0.4-1.7-0.9c-0.6-0.5-1-0.8-1.4,0.2c-0.2,0.6-0.6,0.3-0.8-0.1
		c-0.2-0.6-0.6-0.3-1-0.2c-0.4,0.2-0.5,0.6-0.5,1c0.1,0.6,0.5,0.2,0.8,0.3c0.6,0.3,0.9,1.2,1.7,1.4c0,0-0.3,0.4-0.6,0.2
		c-0.8-0.4-1.5-0.8-2.3-1.2c-0.3-0.1-0.5-0.2-0.8-0.3c-0.4,0-0.8-0.5-1,0c-0.3,0.6,0.3,0.7,0.7,0.9c0.2,0.1,0.3,0.2,0.6,0.3
		c-0.5,0.8-0.9,1.1-1.7,0.3c-0.6-0.5-1.4-0.8-2.1-1.3c-0.7-0.4-1.3-0.7-1.7,0.7c-0.3-0.9-0.1-1.9-1.3-1.3c-0.4,0.2-1.2-0.5-1.7-0.9
		c-1-0.7-1.3,0.4-1.9,0.7c-0.3,0.2-0.2,0.6,0.1,0.7c0.7,0.2,1.1,1.2,2.1,0.7c0.7-0.3,0.7-0.3,0.7,0.3c0,0.7,0.1,0.7,1.4,0.1
		c0,0.7-0.5,1.8,1,1c0.4-0.2,1,0.6,1.4,0.9c1.6,1.5,3.6,2.4,5.4,3.6c0.2,0.1,0.4,0.3,0.5,0.3c1.8-1.5,2.6,0.7,3.7,1.2
		c1,0.5,1.5,0.7,1.8-0.7c0.3,1.4,1.6,1,2.2,1.7c0.1,0.1,0.4,0.1,0.4,0c0.5-0.9,1-1,1.7-0.3c0.1,0.1,0.6-0.1,0.5-0.5
		c0-0.4-1.9-1-2.2-0.8c-0.2,0.2-0.3,0.8-0.7,0.4c-0.3-0.3-0.1-0.5,0.1-0.7c0.2-0.2,0.2-0.4,0-0.6c-0.2-0.1-0.4-0.1-0.5,0
		c-0.5,0.6-0.9,0.8-1-0.3c0-0.4-0.5-0.4-0.8-0.5c-0.3-0.1-0.4-0.3-0.3-0.5c0.5-1.2,0.5-1.2-0.7-1.8c-0.1,0-0.2-0.1-0.3-0.2
		c0.6-0.5,1.6-0.2,1.9-1.4c-0.2,1.4,0.9,1,1.4,1.4c1.3,1,3.1,1,4,2.6c0.2,0.4,0.9,0.5,1.5,0.6c0.6,0.1,1.4-0.1,1.7,0.8
		c0,0.1,0.1,0.3,0.3,0.2c1.4-0.9,0.7,0.5,0.9,0.8c0.5,0.1,0.9-0.9,1.5,0c0.2,0.3,0.9,0.4,1.1,1c0,0.1,0.3,0.1,0.4,0
		c1.4-1.6,0.5,0.6,1.1,0.6c0.4-0.6,0.9-0.7,1.7,0c0.4,0.3,1.4,0.4,1.8,0.1c0.8-0.6,1.2-0.3,1.7,0.3c0.2,0.2,0.9-0.1,0.9,0.5
		c0,0.6-0.8,0.2-1,0.6c1.6,1.2,2.1,1.1,3.7-0.4c0,0,0.2-0.1,0.2-0.1c1,1.9,0.8-0.5,1.4-0.3c0.5,0.6,0.9,1,1.7-0.1
		c0.2-0.3,1.7-0.6,2.7-0.4c1.1,0.1,2.2-0.6,2.6-1.8c0.9,1.2,1.6,0.9,2.1-0.5c0.7,1.1,1.3,1.8,1.9,0.2c0-0.1,0.1-0.2,0.1-0.2
		c0.9,0.2,1.9-0.4,2.5-0.3c1.3,0.2,1.7-0.4,2.1-1.2c0.2-0.3,0.4-0.6,0.8-0.6c2.1,0.1,4.1-1,6-0.8c1.1,0.1,2.3-1.1,3.3,0.1
		c0.8-0.7,1.6-0.7,2.5-0.3c0.4-1,1-1.2,1.7-0.3c0.7-1,1.6-0.7,2.6-0.6c0.4,0,0.9-1.2,1.6-0.1c0,0,0.2,0,0.3,0
		c1.3-1.4,3.2-0.4,4.7-1.2c0.7-0.4,1.9-0.2,0.9-1.9c1.1,0.9,1.9,1.4,2.4,0c0.1-0.2,0.3-0.1,0.5,0c0.9,0.2,1.4-0.3,2-0.9
		c0.3-0.4,0.5-1.1,1.2-0.7c0.1,0,0.2,0.1,0.3,0c0.6-0.4-0.6-1,0.1-1.3c0.5-0.2,0.5,1.1,1.2,0.5c0.4-0.3,0.6-0.9,1.2-1
		c0.4,0,0.3-0.4,0.3-0.7c0-0.3,0.1-0.5,0.4-0.4c2.3,1,2.2-1.6,3.4-2.3c0.1-0.1,0-0.6,0.3-0.5c2,0.8,2.2-1.5,3.4-2.1
		c0.3-0.2,1.7-0.6,1.3-1.8c0-0.1,0.3-0.1,0.5-0.1c1,0.1,1.7-0.5,2.3-1.1c0.4-0.3,0.6-0.4,1-0.4c1.4-0.2,3-0.2,4.1-1.1
		c0.5-0.5,0.6-1.3,1.6-0.6c0.2,0.1,1.4-0.4,1.6-1.3c0-0.3,0.1-0.5,0.3-0.6c0.2-0.1,0.3,0.1,0.4,0.3c0.4,1.1,1,0.4,1.2,0
		c0.3-0.8,0.8-0.6,1.4-0.5c0.4-0.5-0.7-0.8-0.1-1.3c0.7-0.5,0.6,0.3,0.8,0.6c0.3,0.3,0.7,0.1,0.7-0.1c0.2-0.9,1.4-0.8,1.5-1.8
		c0-0.3,0.3-0.4,0.5-0.3c1,0.3,0.7-0.1,0.5-0.7c-0.2-0.4,0.2-0.8,0.5-0.5c1.4,1.2,1.6-0.5,2.2-1c0.7-0.5,0.8-1.7,1.9-2
		c-0.6-1.2,1.7-0.9,1-2c0,0,0.1-0.2,0.1-0.2c0.9,0.1,1.7,0.1,0.9-1.1c0,0,0.1-0.2,0.2-0.2c2.1,0.6,0.2-1,0.7-1.3
		c0.4-0.4,0.7,0.6,1.1,0.1c0.3-0.4-0.2-0.6-0.3-0.9c-0.2-0.6-0.1-0.6,1.2-0.3c0.5-0.1-1.7-1.9,0.6-1c0,0,0.2-0.1,0.2-0.2
		c-0.5-1.8,1.5-2.5,1.7-3.9c0-0.2,0.2-0.4,0.1-0.5c-0.9-1.3,0.4-2.1,0.7-3.1c0-0.1,0.2-0.3,0.1-0.4c-1.2-1.4,0.4-2.2,0.6-3.3
		c0-0.1,0.1-0.4,0.1-0.4c-1.7-1,0.5-1.7,0.2-2.6c0,0,0-0.1,0.1-0.1c0.5-0.8-1-0.9-0.6-1.5c0.2-0.3,1.2,0.1,0.8-1
		c-0.2-0.5,1.1-0.9,0.8-1.7c-0.5-1.2,0.7-2.6-0.5-3.7c-0.1,0-0.1-0.2,0-0.3c0.8-0.8,1.4-1.5-0.3-1.9c-0.1,0-0.1-0.4,0.1-0.5
		c0.7-0.1,0.8-0.4,0.7-1.1c-0.1-0.9-0.9-0.4-1.3-0.7c0.7-0.7,1.7-1.4,0-2c-0.1,0-0.2-0.3-0.2-0.3c0.8-0.8-0.2-1.5-0.2-2.1
		c-0.1-2.1-0.7-4.1-1-6.1c-0.1-0.7-0.1-1.4-1.4-1c0.6-0.5,1.2-0.6,1.1-1.5c-0.1-0.9-0.8-0.4-1.1-0.7c-0.1-0.6,1-0.4,0.8-1.2
		c-0.1-0.6-0.2-0.9-1-0.8c-0.3,0-0.3-0.5,0-0.6c0.8-0.3,0.7-1,0.6-1.4c-0.7-2.9-0.1-5.7-0.1-8.6c0.1-5.6-0.2-11.2-1.1-16.7
		c-0.1-0.3-0.1-0.7-0.2-1c-1.8-2.9-1.4-6.5-3-9.5c-0.2-0.4-0.2-0.6,0.3-0.7c0.8-0.1,3.7-3,3.8-3.8c0-0.1,0-0.2,0-0.3
		c-0.3-0.5-0.8-0.8-0.6-1.5c0.1-0.5,0.5-0.9,0.3-1.6c-0.8,0.4-1,1.3-1.9,1.7c0.7-1.1,1.3-2,1.3-3.2c-0.5,0.7-1,1.3-1.4,2
		c-0.4,0.6-0.9,0.9-1.5,1.3c-0.7,0.5-1.4,1.4-0.9,2.5c0.2,0.5,0.5,1,0.1,1.6c-1.4-2.6-2.5-5.3-3.5-8.5c-0.7,4.5-4.1,7-6.1,10.3
		c-0.8,1.3-2.5,1.4-3.9,0.5c-0.5-0.4-1.2-0.5-1.5-1c-0.1-0.2-0.5-0.4-0.3-0.7c0.2-0.3,0.5-0.1,0.8,0c0.9,0.5,1.8,1,2.8,1
		c0.4,0,0.9,0.1,1.1-0.4c0.5-1.6,2.1-2.3,3.1-3.5c1.8-2,3.6-4.1,2.5-7.2c-0.3-0.8-0.1-1.6-0.1-2.5c0-0.5-0.1-1.1-0.4-1.5
		c-0.4-0.4-0.3-1.6-1.3-1c-0.8,0.5-2,0.8-1.2,2.3c0.7,1.5,0.3,2.3-1.1,3.3c-0.5,0.3-0.7,1-0.9,1.6c-0.2,0.7-0.7,0.8-1.3,0.8
		c-0.1-0.7,0.5-0.8,0.8-1.2c1-1.2,1.4-2.5,0.9-4.1c-0.1-0.5-0.3-1-0.9-1c-0.7,0-1.1,0.3-1.3,1c-0.3,1.2-1.2,2.1-1.8,3.3
		c0.3-2.6,3.1-6.4,5.3-7.3c1-0.4,1.9-0.5,2.8,0.3c0.6,0.5,1.4,0.8,2.3,0.3c0.8-0.4,1.3-1,1.1-2c0-0.1,0-0.3,0-0.4
		c-0.1-0.7,0.6-1.7-0.2-2.2c-0.8-0.4-1.8,0.1-2.6,0.5c-1,0.5-1.9,0.8-3,0.8c-2.9-0.1-4.8,1.5-6.5,3.8c-1.2,1.6-2,3.5-3.3,5
		c1.4-3.7,3.2-7.1,6.9-9.1c0.2-0.1,0.4-0.2,0.7-0.3c1.8-0.5,1.8-0.5,1.2-2.2c0.5-0.1,1.5,0.3,0.9-1c-0.2-0.4,0.5-0.9,0.9-1.2
		c1.2-1.2,1.7-2.8,2.4-4.3c-1.6,1.5-3,3.4-5.4,3.8c2.3-1.7,4.3-3.7,6.3-5.7c0.1,0.8-0.3,1.7-0.2,2.5c0.4-0.5,0.6-1.1,0.9-1.6
		c0.5-1,0-1-0.8-0.8c1.1-1.1,1.6-0.9,2.1,0.4c1,2.3-0.1,4.4-0.3,6.5c-0.1,1-0.2,1.7,0.5,2.7c1,1.3,0.2,4.4-1.1,5.3
		c-1.4,1-1.8,2.4-1.2,4.1c0.6,1.7,1.9,3.1,2.5,4.9c0.4,1.1,1.3,0.7,2,0.4c1.5-0.6,2.3-1.9,3.3-3c0.4-0.4,0.6-1,1-1.5
		c0.3-0.4,0.8-0.9,1.3-0.8c0.6,0.1,0.7,0.8,0.7,1.3c-0.4,1.7,0.3,3.4,0.2,5c-0.2,3-1.6,5.7-2.8,8.5c-0.2,0.5-0.5,1-1,1.2
		c-1.4,0.7-1,1.6-0.5,2.6c0.8,1.7,2,3.1,2.3,5c0.9,5.7,1.3,11.5,0.9,17.2c-0.3,3.7-0.3,7.4,0.5,11.1c0.6,2.9,0.9,5.8,1.6,8.7
		c0.3,1.4,0.6,2.8,1,4.1c1.5,4,1.3,8.1,0.7,12.2c-0.6,4.1-2.3,7.9-3,11.9c-0.6,3.3-2.8,5.5-4.3,8.1c-2.8,5-7.2,8.4-12,11.3
		c-1.2,0.7-1.4,1.7-1.5,2.8c-0.2,1.9-0.7,3.8-1.2,5.7c-0.7,2.5-0.7,5-0.9,7.5c-0.2,2.5-1.2,4.6-2.2,6.7c-0.5,0.9-0.4,1.6,0.1,2.5
		C475.1,438.8,475.7,440.8,476,442.9c-0.1-0.1-0.2-0.3-0.3-0.4c-1.2-0.8-0.8-3-2.7-3.2c-0.2,0-0.1-0.3,0-0.5c0.5-1-0.1-1.3-0.9-1.1
		c-0.7,0.1-1.4-0.9-2,0.1c-0.1-0.2-0.3-0.3-0.3-0.5c0.5-1.9-1.1-0.8-1.7-1c-0.6-0.3-0.8,0.5-0.8,1.1c0,0.2-0.2,0.3-0.4,0.3
		c-0.7-0.3,0.5-1.2-0.6-1.3c-1.1-0.2-0.3,1-0.6,1.1c-0.9,0.1-0.6-1.7-1.1-0.8c-0.8,1.3-1.9-0.3-2.4,0.7c-0.8-1.1-1.7,0.1-2.7-0.1
		c-1.2-0.2-2.3,0.7-3.5,1c-1.6,0.4-3.2,0.4-4.9,1.1c0.7-0.3-0.2-1.7,0.8-1.3c1,0.5,1.5-0.4,2.3-0.4c0.7,0.1,0-0.9,0.4-1.2
		c0.7-0.6,0.7,1,1.1,0.5c0.6-0.8,1.2-0.3,1.8-0.4c0.9-0.2,2-0.2,1.8-1.8c0.7,1.7,1.7,0.1,2.6,0.4c0.6,0.2,2.4,0.4,2-1.6
		c0.6-0.1,0.8,2.1,1.5,0.1c0.1-0.3,0.4,0,0.6,0.1c1.3,0.1,2.6,0.4,3.6-0.6c0.5-0.5,0.8-1.1,1.5-1.3c-0.3-0.5-1.2-0.2-1-0.8
		c0.3-0.9,0.6,0.1,0.9,0.1c0.5,0.1,0.7-0.4,1.1-0.6c0.4-0.2,0-0.4-0.2-0.6c-0.2-0.2-0.2-0.5,0-0.6c0.3-0.2,0.4,0.1,0.5,0.3
		c0.1,0.2,0.1,0.5,0.5,0.4c0.8-0.9,0.3-2.1,0.6-3c0.3-0.9-0.8-2.2,0.9-2.6c-0.3-0.4-0.9-0.3-1-0.8c-0.2-1,1.1,0.1,1.1-0.8
		c0-0.6-1.6-0.2-0.8-1.2c0.5-0.6-0.6-1.7,0.7-1.9c0.1,0-0.2-0.2-0.3-0.3c-0.7-0.4-1-0.7,0.1-0.8c0.3,0,0.5-0.1,0.5-0.4
		c0-0.1-0.1-0.3-0.2-0.3c-1-0.7-2.2-0.3-3.2-0.2c-0.7,0.1-0.2,0.6-0.1,1c0.1,0.2,0,0.4-0.2,0.4c-0.6,0-0.1-0.9-0.7-0.9
		c-0.5,0.2-0.5,1.1-1.2,0.8c-0.8-0.3-1.1,0.2-1,0.9c0,0.2,0.1,0.6-0.3,0.6c-0.4,0-0.4-0.3-0.3-0.6c0.1-0.5-0.4-0.7-0.5-0.4
		c-0.3,1.1-1.2,0.8-2,1c-0.9,0.3-1.8,1.1-3.3,2.8c-0.1,0.1-0.3,0.2-0.4,0.1c-1.6-0.5-1.2,0.7-1.2,1.5c-1.1-0.5-2.4,0-2.9,1.1
		c-0.1,0.3-0.2,0.5-0.5,0.3c-1.7-0.6-1.3,0.6-1.3,1.4c-0.7,0.4-0.4-1.1-1.2-0.5c-1.2,0.8-2,2.2-3.7,2.2c-0.3,0-0.8,0.1-0.9,0.6
		c-0.1,0.7-0.3,0.6-1,0.5c-0.7-0.2-1.5,0.1-2.3,0.3c-0.8,0.2,0.1,0.7,0,1c-0.1,0.2-0.3,0.3-0.5,0.2c-1-0.9-1.8,0.2-2.8,0.1
		c-0.8-0.1-1.5,0.3-1.4,1.6c-0.5-0.4-0.8-1.7-1.4-0.4c-0.1,0.2-0.3,0.2-0.5,0.1c-2.3-0.4-4.5-0.2-6.8-0.2c-0.6,0-1.9-0.3-1.9,1.2
		c0,0.2-0.5,0.3-0.6,0.1c-0.4-1.9-0.7-0.8-1,0c0,0.1-0.3,0-0.5,0c-1.5-0.1-3.1-0.6-4,1.2c-0.1,0.3-0.4,0.1-0.6,0.1
		c-1.4,0.1-3.1-0.5-4,1.2c-0.1,0.2-0.2,0.4-0.4,0.3c-1.1-0.7-2.1,0.2-3.1,0.2c-1-0.1-1.4,0.2-1.4,1.4c-0.5-0.7-0.9-1.8-1.4-0.3
		c0,0-0.2,0.1-0.3,0c-0.6-1.3-1.7,0.6-2.4-0.3c-0.4,0.3-0.8,0.4-1.3,0.1c-0.2-0.1-0.5,0-0.5,0.3c-0.1,0.3,0.2,0.4,0.4,0.5
		c0.4,0.2,1.1-0.1,1,0.8c-0.7-0.3-1.4-0.1-2.2-0.2c-1.4-0.2-2.9-0.1-4.3,0c-1,0-0.8,2-1.4,1.2c-0.6-0.9-1.3-1.2-1.9-1.1
		c-1.4,0.1-2.8-1.1-4.2-0.2c0,0-0.3-0.1-0.3-0.3c-0.6-2.4-0.8,0.4-1.3,0.1c-0.4-1.8-0.9-0.8-1.5,0.2c0.2-1.4-0.5-1.7-1.6-1.8
		c-0.8-0.1-1.5-0.5-2.3-0.6c-0.7-0.1-1.4-0.4-2.1,0.4c-0.8,0.9,0.7,1,0.4,1.5c-0.3,0.5-1.4-0.6-1.4,0.7c0,0.6-0.3,1.1-0.2,1.7
		c0.1,1.2-0.6,2.3-0.3,3.5c0.1,0.3-1,1,0.3,1.7c-1.4-0.1-1.6,0.7-1.6,1.6c0,2.1-0.1,4.3-0.1,6.4c0,0.7,1.6,1.1,0.4,2
		c1.2,0.8,0.2,2,0.5,2.9c0.4,1.2-0.5,3.1,1.5,3.6c0.1,0,0.1,0.3,0.1,0.4c-0.4,1.9-0.1,3,1.3,4.2c0.2,0.2,0.2,0.3,0.1,0.6
		c-0.3,0.9,0.2,2,1.1,2.4c0.2,0.1,0.4,0.3,0.3,0.4c-0.8,0.7,0,1.5,0,2.1c0.1,2.5-0.5,5-0.2,7.5c0.1,0.8-0.9,2.4,1.2,2.4
		c0.2,0,0.3,0.5-0.1,0.6c-0.9,0.2-0.7,0.5-0.1,0.8c0.3,0.2,0.3,0.3,0.3,0.7c-0.1,1.1-0.3,2.2,1.3,2.5c0.4,0.1,0.4,0.4,0.2,0.7
		c-0.8,1,0.3,1.2,0.7,1.1c0.8-0.3,1-0.1,0.9,0.6c0,0.4,0.2,0.6,0.5,0.6c0.7,0.1,0.9,0.5,1.3,1c1.2,1.2,2.4,2.3,3.5,3.6
		c-0.6-0.8,0.1-1.6-0.2-2.3c-0.1-0.3,0.2-0.5,0.6-0.5c0.3,0,0.4,0.2,0.3,0.5c-0.4,1.2-0.1,1.6,1.2,1c1.1-0.5,2.1,0,1.9,1
		c-0.3,1.3-0.5,2.4,1.4,2.5c-0.4,0.6-1.1,0.8-1.5,1.1c-0.2,0.2,0,0.8-0.5,0.7c-0.5-0.1-0.1-0.6-0.2-0.9c-0.1-0.4-0.2-0.8-0.7-0.8
		c-0.2,0-0.4,0.3-0.4,0.6c0,0.4,0.4,0.8,0,1.1c-0.6,0.3-0.6-0.7-1.1-0.7c-0.6,0.7-0.4,1.5-0.4,2.3c0,0.6-0.1,1.6,1.1,0.9
		c0.1-0.1,0.4,0.1,0.5,0.2c0.1,0.3-0.1,0.4-0.3,0.5c-0.2,0.1-0.5-0.1-0.6,0.5c0.9,0.1,0.8,0.7,0.8,1.5c0,0.6,0.4,1.3,1,1.7
		c0.3,0.2,0.6,0.3,0.6,0.7c-0.1,0.8,0,1.5,1.1,1.1c0.2-0.1,0.5,0.3,0.3,0.5c-0.9,0.7-0.1,1.3,0.3,1.7c0.8,0.9,1.4,2,2.6,2.3
		c1,0.3,0.6-1,1.2-1.3c1.2-0.5,1.7-1.8,2.6-2.6c0.6-0.5,0.9-1.1,0-2.1c1.4,0.5,2.3,0.7,2-1c0-0.1,0.1-0.4,0.1-0.4
		c1.7-0.1,1.6-2,2.6-2.8c0.2-0.2,0.6-0.5,0.4-1c-0.3-0.8,0-0.9,0.7-0.7c0.5,0.2,0.9-0.3,0.8-0.8c-0.1-0.6-0.1-0.8,0.5-1.1
		c1-0.6-0.9-0.6-0.3-1.2c0.4-0.4,1.3,0.8,1.4-0.4c0-0.2,0-0.4,0.1-0.6c0.4-0.7-0.1-1.8,0.3-2c1.6-0.8,0.9-2.3,1.3-3.4
		c0.2-0.5,0-1-0.8-0.7c-0.5,0.2-0.6-0.1-0.5-0.5c0-1.7,0-3.5,0-5.2c0-0.8-0.3-1.4-1-1.8c-0.5-0.2-0.5-0.7,0-0.7
		c0.9,0,0.9-0.6,1.1-1.1c0.4-0.9,0.4-1.9,0.2-2.8c-0.1-0.5,0.2-1,0.4-0.7c0.5,0.6,1.1-0.1,1.6,0.4c-0.5,0.4-2,0.8-0.3,1.4
		c0,0,0,0.3,0,0.4c0.1,1.4-0.1,2.9,0,4.3c0.1,2.9-0.1,5.8-0.6,8.7c-0.8,4.8-2.7,9.2-5.3,13.2c-2.3,3.6-5.2,6.7-7.6,10.2
		c-0.6,1-1.3,2.1-1.9,2.8c-2.1,2.4-3.6,5.2-5.4,7.8c-2,2.9-3,6.3-4.3,9.5c-2,4.9-3.4,10.1-4.6,15.2c-1.1,4.3-1.5,8.7-2.8,13
		c-1,3.1-0.8,6.4,1.1,9.4c0.2,0.3,0.2,1.1,0.8,0.4c0.2-0.2,0.2-0.5,0.5-0.2c0.2,0.2,0.1,0.5,0.1,0.7c-0.6,1.8-0.3,3.9-1.1,5.6
		c-0.5,1.1-0.5,2.2-0.5,3.4c-0.1,3.4,0.8,6.8,0.6,10.2c-0.1,1.7-0.7,3.4-0.4,5.2c0.6,3.2,3.4,6.7,6.8,7.1c1.5,0.2,3.1,0,4.6,0.1
		c1.6,0.2,2.7-0.2,3.9-0.9c0.8-0.4,1.5-0.9,2.3-1.5c-1.5,2.5-4,3-6.4,3.5c-3.3,0.7-6.2,0.1-9-1.8c-0.6,2.4,0.7,3.6,2.4,3.9
		c1,0.2,2,0.1,2.9,0.4c2.3,0.7,4.6,0.4,6.8-0.2c2.5-0.7,4.6-2.2,6.9-3.1c0.5-0.2,0.5-0.6,0.1-1c-0.2-0.2-0.6-0.5-0.2-0.8
		c0.5-0.3,0.4,0.3,0.6,0.5c1,1.3,2.2,2.3,4,2c0.7-0.1,1.2,0.1,1.4,0.8c0.3,0.7,0,1.2-0.7,1.6c-0.4,0.2-0.9,0.5-1.2,0.8
		c-0.2,0.2-0.9,0.4-0.4,0.9c0.4,0.5,0.8,0.2,0.9-0.3c0.1-0.4,0.5-0.2,0.7-0.4c0.8-0.7,2-0.2,2.8-1.2c-0.3,0.7-0.5,1.1,0.4,1.4
		c0.3,0.1,0.2,1.2,0.9,1.6c0.1,0.1-0.1,0.4-0.4,0.3c-0.9-0.2-1.2,1-2.1,0.9c-0.2,0-0.3,0.6-0.1,0.8c0.9,0.6,0.3,1.9,1.4,2.3
		c-2.4,0.1-0.8,1.5-0.8,2.1c-0.5,0.4-1.1-0.7-1.2,0.1c-0.1,0.4-1.2,1.3,0.3,1.5c0.4,0.1,0.3,0.5,0.1,0.7c-0.8,0.6-0.5,1.3-0.1,1.9
		c1.7,3.5,3.4,7,5.2,10.4c0.1,0.3,0.2,0.5-0.1,0.6c-0.9,0.3-1.4,0.6-0.5,1.5c0.1,0.1,0,0.4-0.1,0.5c-0.2,0.1-0.4,0.1-0.5-0.1
		c-0.3-1.2-1.1-0.8-1.7-0.6c-0.5-0.4,1.3-1.6-0.6-1.2c0.1-0.9-0.4-1.4-0.9-2c0,0,0.1-0.2,0.2-0.2c0.5-0.2,0.4-0.6,0.2-1
		c-0.6-1.5-0.6-3.3-1.9-4.5c-0.2-0.2-0.1-0.4,0.1-0.5c0.9-0.3,0.7-0.9,0.5-1.5c-0.3-0.6-0.4-1.3-0.8-1.9c-0.3-0.5-0.7-0.2-0.8,0.3
		c-0.1,0.3,0.4,0.6-0.1,0.9c-0.5,0-0.2-0.9-0.9-0.9c-0.2,0-0.2-1.1,0.3-1c1.1,0.1,0.9-0.9,1.6-1.5c-2.1,0.1-3.4,1.5-5.3,1.5
		c0.8-1,1.9-1.4,2.7-2.2c0.3-0.3,0.7-0.5,0.5-1c-0.2-0.5-0.7-0.3-1-0.2c-0.4,0.1-0.9,0.4-1.5,0c1-0.6,1.7-1.4,2.5-2.1
		c0.3-0.3,0.6-0.6,0.4-1c-0.3-0.5-0.8-0.2-1.2-0.1c-0.4,0.2-0.8,0.5-1.3,0.7c-0.8,0.3-1.7,0.9-3,0.5c1.9-0.8,3.4-1.6,4.5-3
		c0.5-0.6,0.5-1.1,0.2-1.7c-0.4-0.7-1-0.5-1.5-0.2c-1.3,0.6-2.7,0.3-4.1,0.5c1.3-1.1,3-1.6,4.1-2.9c-1.4,0-2.7,0.1-4,0.6
		c-2.3,0.8-4.8,1.4-7.2,1.3c-2.3-0.1-4.5,0.3-6.8-0.2c-0.4-0.1-1-0.4-1.2,0.3c-0.2,0.5,0.1,0.9,0.4,1.3c1.5,1.7,3.3,2.7,5.6,2.1
		c0.3-0.1,0.6-0.1,0.7,0.2c0.2,0.4-0.1,0.7-0.4,0.8c-0.5,0.2-1,0.2-1.6,0.1c-0.6-0.1-1.2-0.2-1.9-0.2c-0.7,0-1.1,0.2-0.9,1.2
		c0.3,1.4,1.5,2.7,0.5,4.3c-0.1,0.1,0.1,0.4,0.1,0.6c0.3,3.2,0.7,6.3,0.6,9.5c-0.1,1.5-0.4,3.1-0.2,4.6c0.4,3.2-0.6,6.2-0.4,9.4
		c0,0.7-0.3,1.5-0.1,2.3c0.2,1,1.2,0.7,1.9,0.8c0.4,0.1,0.6,0.3,0.5,0.7c-0.1,0.5-0.5,0.4-0.8,0.3c-0.5-0.2-1.1-0.5-1.5-0.9
		c-1-0.9-1.8-1-2.7,0.1c-0.2,0.3-0.7,0.8-1.1,0.4c-0.8-0.9-1.2-0.1-1.7,0.3c-1,0.9-1.3,2.4-2.4,3.3c-0.3,0.2-0.1,0.6,0,1
		c0.1,0.4,0.3,0.8,0.2,1.1c-0.2,1.1,0.2,1.9,1.2,2.3c0.2,0.1,0.6,0.4,0.4,0.5c-1.5,0.7,0.1,1.2,0.2,2c-1.2-1-2.5-1.4-3.8-1.9
		c-1.3-0.4-2,0.2-3,0.7c-0.8,0.4-2.3-0.4-3.2,0.6c-1.1,1.2-2.4,2.2-3.6,3.4c-1.3,1.2-2.3,2.5-2.8,4.3c-0.4,1.5-0.5,2.9-0.2,4.5
		c0.1,0.4-0.4,0.9,0.1,1.2c0.5,0.2,0.8-0.3,1.1-0.6c1.1-0.8,2.2-1.7,3.3-2.6c0.5-0.4,0.9-0.4,1.4-0.3c1.4,0.2,2.2,1.1,3.2,2
		c2.7,2.5,5.2,5,6.5,8.5c0.6,1.6,1.5,3.2,2.3,4.9c1.9-3.4,3.4-6.8,6.2-9.4c1.3-1.2,1.5-2.3,0.9-3.8c-0.2-0.5-0.9-0.9-0.1-1.9
		c0.6-0.8,0.8-0.9,1.6-0.6c0.3,0.1,0.6-0.1,0.7-0.4c0.1-0.4,0.3-0.6,0.7-0.5c1,0.3,1.9-1.2,2.9-0.2c0.1,0.1,0.4-0.2,0.6-0.3
		c-0.5-1,0.8-1.1,0.9-1.8l0,0c0,0.2,0.1,0.4,0.1,0.6c-0.5,2.5-0.5,2.5,1.9,3.4c0.9,0.3,0.9,0.3,1.3,1.4c-1.9-1.6-3.9-1.2-5,0.2
		c-1.1,1.4-2.7,1.9-3.8,3.1c-0.9,1-2.3,1.4-2.9,2.7c-1.6,3.1-3,6.3-3.9,9.7c-0.4,1.6-0.6,3.5,0.3,5.2c0.7-3.3,2.9-6.2,2-10.1
		c0.7,0.5,0.1,1.2,0.7,1.5c0.5-0.1,0.7-0.5,0.9-0.9c1.5-2.3,3.5-4.1,5.7-5.8c2.8-2.1,6.2-1.7,7.7,1.3c1.8,3.7,1.9,7.7,1.3,11.7
		c-0.1,0.6-0.9,1.5,0.5,1.8c0.1,0,0.1,0.2,0.1,0.4c0,0.2-0.2,0.4-0.4,0.3c-0.8-0.4-1.1,0.4-1,0.7c0.2,0.8-0.4,1.8,0.4,2.5
		c1.1,1.1,2.3,0.9,3.3-0.5c0.2-0.2,0.4-0.2,0.4-0.1c0.3,1,0.7,0.1,1.1,0.1c1.4,0,1.4-1.4,2.3-1.9c0.8-0.5,1.6-1.1,1.1-2.2
		c-0.1-0.3,0.1-0.5,0.4-0.4c0.4,0,0.6-0.2,0.8-0.5c0.7-0.9-0.1-2.3,1.2-3c0,0-0.1-0.3-0.1-0.4c-1.2-0.4-0.8-0.7,0-1
		c0.1,0,0.1-0.4,0.1-0.4c-1.4-0.4,0-1.5-0.5-2.3c-0.4-0.5,0.9-1.8,0.1-2.9c1.3-1.4-0.2-2.3-0.6-3.4c-0.1-0.4-0.6-0.8-0.1-1.1
		c0.5-0.4,0.9,0,1.1,0.4c0.8,1.6,1.2,0.8,2-0.1c0.8-1.1,1.3-2.9,3.4-2.2c0.2,0.1,0.3-0.1,0.4-0.3c0.1-0.8,1.6-1.2,0.8-2.3
		c-0.1-0.2,0.2-0.4,0.5-0.3c0.5,0.1,0.6-0.4,0.8-0.5c1.1-0.5,0.3-1.9,1.3-2.3c0.5-0.3,1-0.7,0.2-1.3c-0.3-0.2-0.3-0.5,0.1-0.7
		c1-0.4,1.1-0.4,0.5-1.4c-0.1-0.2-0.2-0.4,0-0.6c0.8-0.9,0.3-1.9-0.1-2.7c-0.6-1.4-1.2-2.8-2-4.2c-0.9-1.7-1-1.7-2.3-0.4
		c-0.3,0.3-0.7,0.6-0.2,1.1c0.2,0.2,0.1,0.6,0,0.6c-0.9-0.2-1,0.7-1.7,1c0.1-1.8,1.9-3,1.4-4.8c-0.1-0.2,0.3-0.2,0.4-0.2
		c1.5-0.7,1.9-2.3,0.8-3.4c-0.3-0.3-0.1-0.6,0.2-0.6c1.2,0,0.8-0.7,0.5-1.2c-0.2-0.4-0.3-0.6,0-1c0.7-0.9,0.9-1.8-0.1-2.7
		c-0.3-0.2-0.1-0.4,0-0.7c0.7-1.5,1.5-3.1,0.5-4.9c-0.2-0.4,0-0.8,0.4-0.7c0.8,0.3,0.8-0.4,1-0.7c0.5-0.6,0.3-1.5,0.7-2.2
		c1-1.5,1.2-3.3,1.7-4.9c0.3-0.8,0.9-1.8,0.6-2.9c-0.2-0.8-0.9-1.7,0.4-2.2c0,0,0-0.2,0-0.3c0.1-1.1-1.4-2.2,0.1-3.2
		c0.1,0-0.1-0.5-0.2-0.6c-0.2-0.3-0.3-0.5-0.1-0.9c0.5-0.8,0.2-1.7,0.1-2.5c-0.2-0.8-0.9-1.8-0.7-2c1-1.6-0.2-2.9-0.5-4.2
		c-0.2-0.7-0.9-1.8-0.9-1.9c0.9-1.1,0.1-2-0.1-3c-0.4-1.8-2.3-3.2-1.6-5.3c0,0,0-0.1-0.1-0.1c-2,0.1-0.5-0.6-0.3-1.1
		c0.1-0.2-0.2-0.6-0.4-0.9c-0.1-0.3-0.4-0.5-0.3-0.8c0.2-1.7-0.6-3.3,0-5c-1.5-0.2-0.4,1.5-1.4,1.7c-0.3-0.5,0.1-1.2-0.7-1.5
		c-0.4-0.2-0.2-0.6,0.2-0.6c1.2-0.1,1.2-0.6,0.5-1.4c-0.3-0.3-0.2-0.6,0.2-0.8c0.8-0.3,1.4-0.6,0.3-1.4c-0.2-0.1-0.1-0.5,0.1-0.5
		c1.8-0.1,1.3-1.7,1.9-2.6c0.9-1.5,0.9-3.3,2.1-4.8c0.4-0.5,0-1.6,1-2.1c0.3-0.1-0.1-0.6-0.3-0.8c-0.4-0.3-0.2-0.8,0.2-0.7
		c1.3,0.1,1.3-1,1.6-1.8c0.2-0.5,0.1-1,0.7-1.3c0.5-0.2,0.7-0.7,0.1-1.2c-0.3-0.3-0.2-0.6,0.3-0.7c1-0.2,1.8-1.1,1.6-2
		c-0.1-0.4-0.1-0.7,0.3-0.8c0.8-0.3,1-0.7,0.4-1.4c-0.2-0.3,0-0.7,0.3-0.6c1.1,0.3,1.4-0.9,1.4-1.2c-0.1-1.2,1.7-1.9,0.9-3.2
		c-0.1-0.2,0.1-0.4,0.3-0.4c1,0.3,0.9-0.6,1.2-1.1c0.8-1.4,0.8-3.2,2.2-4.2c0.2-0.2,0.2-0.5-0.1-0.8c-0.5-0.6-0.4-0.8,0.4-0.7
		c0.7,0.1,0.6-0.5,0.8-0.9c0.4-0.8-0.3-0.4-0.6-0.5c-0.2-0.1-0.3-0.2-0.2-0.5c0.1-0.2,0.3-0.4,0.5-0.2c0.7,0.7,0.7,0,1-0.4
		c0.5-0.6,0.5-1.4,0.8-2c0.4-0.7,1.1-1.2,0.6-2.1c-0.1-0.2,0.2-0.3,0.4-0.3c0.7,0.2,0.8-0.4,1.1-0.8c0.5-0.7,0.9-2.1,1.1-3.7
		c0-0.3,0.2-0.4,0.5-0.4c0.3,0.1,0.5,0,0.7-0.3c1-0.9,0.6-2.5,1.7-3.2c0,0,0-0.3-0.1-0.4c-0.4-0.6-0.1-0.8,0.4-1.1
		c0.5-0.2,1.3-0.5,0.3-1.2c-0.1-0.1-0.2-0.5-0.2-0.5c1.1-0.5,0.1-2.3,1.6-2.7c0.9-0.3-0.4-0.8-0.3-1.3c0.2-0.9,1.2,0.9,1.3-0.3
		c0-0.5,0.3-0.6,0.7-0.8c1-0.5,2-1.1,1.4-2.5c0.5-0.4,0.7,0.6,1.2,0c0.4-0.5,1.8-1.2,2.3-1.6c0.8-0.7,2-1,2.6-2
		c-0.4-0.3-0.7,0.1-1.1,0c-0.2-0.1-0.4-0.2-0.3-0.4c0-0.1,0.2-0.3,0.2-0.3c1.5,0.1,2.1-1.4,3.4-1.8c0.5-0.2,2.2-0.5,1.1-2
		c0,0,0.1-0.3,0.3-0.3c1.6-0.6,2.9-1.3,3.2-3.3c0-0.2,0.2-0.3,0.4-0.3c1.1-0.1,1.5-1,1.5-1.8c0.1-1,1.8-1.5,0.7-2.7
		c0.1-0.1,0.1-0.1,0.2-0.2c2-0.2,1.1-2.9,2.8-3.4c-1-1.5,1-1.5,1.2-2.5c0.2-0.9,0.3-2,1.5-2.4c0.4-0.1-0.1-0.5-0.4-0.7
		c-0.4-0.4-0.1-0.9,0.2-0.7c1,0.5,0.8-0.4,1.1-0.8c0.6-0.8,0.7-1.8,1-2.7c0.4-1.4,2-2.8,0.4-4.4c-0.1-0.1,0-0.4,0.1-0.4
		c1.7-0.6,0.3-2.3,1.1-3.3c0.5-0.7-1.1-2.1,0.2-3c0,0,0-0.1,0-0.1c0.1-1-1.3-2.1,0.3-3c0,0,0-0.3,0-0.3c-1-0.4,0.6-2.1-1.1-2.2
		c-0.1,0-0.1-0.5,0.3-0.5c1.4,0.2,0.9-0.7,0.6-1.1c-0.6-0.6,0.8-1.9-0.8-1.9c0.1-0.1,0.1-0.3,0.2-0.3c1.1-0.1,0.7-0.9,0.5-1.4
		c-0.4-1-0.6-2-1.3-2.9c-0.4-0.5-0.9-1.6-0.8-1.8c0.8-1.2,0-2.1-0.3-3.1c-0.4-1.7-1.1-3.5-2-4.8c-0.8-1.2-0.3-3.1-2.1-3.6
		c-0.1,0,0-0.3-0.1-0.4c-0.3-0.5-0.6-1-0.9-1.5c-0.7,0.4,0.1,1.2-0.6,1.6c-0.5-1.9-2.3-3.9-3.2-3.7c0.1-1.1,0.2-2.1,0.8-3.3
		c0.3,0.6,0.4,1,0.3,1.4c0,0.3-0.1,0.6,0.3,0.6c0.3,0,0.5-0.4,0.4-0.6c-0.5-0.9,0.1-1.3,0.7-1.7c0.7-0.4,2.2-0.4,1-1.9
		c0,0,0.2-0.3,0.3-0.4c0.8-1.6,1.5-3.1,0.8-5C476.6,446.7,476.4,444.7,476,442.9z M332.6,404.6L332.6,404.6c-0.4,0.9-0.3,1,0.4,0.9
		c0.6-0.1,0.8,0.3,1.1,0.5c0.6,0.5,1.2,1.1,1.9,1.5c1.1,0.6,1.8,1.7,3.2,1.7c0.4,0,0.8,1.2,1.4,0.8c0.5-0.3,0.7-1.1,1-1.7
		c1.2-3.1,2.3-6.2,3.2-9.4c0.4-1.4,1-2.9-1-3.7c0,0,0-0.2-0.1-0.5c2.4,0.6,2.4-1,2.5-2.6c0.3-2.7-0.6-5.4-0.2-8.1
		c0-0.2,0-0.5-0.3-0.5c-0.2,0-0.5,0.1-0.7,0.3c-0.3,0.3-0.3,0.6,0,0.9c0.2,0.3,0.5,0.6,0.2,0.9c-0.3,0.3-0.7,0.1-1.1,0
		c-1.3-0.5-2.5-1-4.1-1.7c1.3-0.3,1-0.9,0.7-1.5c-0.5-1-1-2-1.6-2.9c-1.4-2.7-2.8-5.4-5.3-7.3c-2-1.5-4-3.2-5.5-5.3
		c-0.4-0.6-0.9-1-1.7-1.1c-2.5-0.5-4.9-1-7.3-1.8c-0.9-0.3-3.4,0.7-3.5,1.4c-0.1,1.1-0.1,2.1-0.2,3.2c0,0.6,0.3,1,0.9,1.1
		c1.3,0.3,2.5,0.6,3.8,1c1.2,0.4,2.5,0.5,3.4,1.5c-0.1,0.1-0.1,0.1-0.1,0.1c-0.3-0.1-0.5-0.2-0.8-0.3c-2.2-0.9-4.5-1-6.7-0.3
		c-2.3,0.8-4.5,1.3-6.9,1.3c-1.8,0-3.8,1.3-4.3,2.8c-0.1,0.3-0.3,0.5-0.6,0.2c-0.7-0.7-1.1-0.3-1.5,0.2c-0.2,0.2-0.5,0.4-0.7,0
		c-0.1-0.2-0.1-0.5,0.2-0.6c0.5-0.1,0.8-0.4,0.4-0.8c-0.3-0.3-0.8-0.4-1.1,0.2c-0.3,0.7-0.5,0.7-0.9,0c-0.3-0.6-1-0.7-1.2,0.2
		c-0.2,0.6-0.3,0.9-0.9,0.2c-0.7-0.7-1.1-0.6-1.4,0.4c-0.2,0.5-0.5,0.4-0.8,0.2c-0.4-0.2-0.8,0.1-0.5,0.4c0.9,1,0.3,0.9-0.5,0.9
		c-0.4,0-0.2,0.3-0.1,0.5c0.1,0.2,0.2,0.6,0,0.6c-2-0.2-0.9,1.3-1,2c-0.2,2.6,0.7,4.3,3.5,5c0.9,0.2,1.3,0,1.6-0.5
		c0.8-0.1,0.2,1.2,1,0.8c0.6-0.3,0.4-0.8-0.1-1.3c-0.2-0.2,0.8-2,1.1-2c0.1,0,0.2,0.1,0.2,0.1c0.5,1,1.9,1.1,2.2,2.4
		c-0.2-0.1-0.3-0.2-0.5-0.2c-0.3-0.2-0.7-0.8-1-0.3c-0.3,0.5,0.3,0.7,0.6,1c0.6,0.5,1.3,0.9,1,1.8c-2.2-0.5-4.2,0.2-4.9,1.8
		c-0.4-0.6-0.9-1.1-1.7-1c-1,0.1,0.2,1-0.5,1.2c-0.4,0-0.3-0.7-0.7-0.6c-0.8,0.3-1.7,0.7-2.3,1.4c-0.5,0.5-0.4,1.3,0,1.8
		c0.6,0.7,0.3,1.1,0.1,1.9c-0.6,1.9,0.2,4.2,2.8,3.9c0.8-0.1,1.7-0.5,2.5,0.2c0.2,0.2,0.7-0.1,0.8-0.4c0.6-1.3,1.7-2.2,2.4-3.3
		c0.9-1.3,1-0.5,1.3,0.1c0.8,1.5,2,2.3,3.7,2.1c0.4,0,1.3-0.4,1,0.7c0,0,0.9,0.6,1,0c0.1-0.7,0.3-0.5,0.7-0.4c0.9,0,1.1,0.8,1.3,1.5
		c-0.7-0.4-1.4-1.2-1.9,0.2c-0.2,0.4-0.4,0.1-0.7-0.2c-0.6-0.8-1.2-0.6-1.4,0.3c-0.1,0.3-0.1,0.5-0.4,0.5c-0.2,0-0.4-0.1-0.4-0.3
		c0.1-0.5-0.1-0.6-0.5-0.5c-0.4,0-0.7,0-0.7,0.5c0,0.8-0.4,0.7-0.9,0.5c-0.8-0.2-1.8,0.9-2.5-0.3c0,0-0.2,0-0.3,0.1
		c-0.6,0.6-1.1,1-2.1,0.5c-0.4-0.2-0.5,0.7-1,0.9c-0.4,0.2-0.9-0.3-1.2,0.1c-0.6,0.7,0.6,0.3,0.6,0.8c0,0.3-0.2,0.4-0.4,0.5
		c-0.9,0.4-0.8,1.1-0.7,1.8c0.2,0.8,0.5,1.5,0.8,2.3c0.5,1.4,1.4,1.8,2.7,1.4c0.3-0.1,0.6-0.4,0.7,0c0.7,1.3,1,0.4,1.4-0.2
		c0.1-0.2,0.2-0.3,0.4-0.3c0.3,0.1,0.3,0.3,0.2,0.5c-0.2,0.4-0.4,1,0.2,1.1c0.6,0.1,0.3-0.7,0.5-1c0.2-0.3,0.1-0.7-0.2-1.1
		c-0.2-0.2-0.5-0.6-0.1-0.8c0.5-0.3,0.5,0.1,0.6,0.5c0,0.6,0.4,0.5,0.7,0.3c0.9-0.5,0.5-1-0.1-1.3c-0.3-0.2-0.6-0.2-0.4-0.6
		c0.3-0.4,0.6-0.2,0.8,0c0.6,0.7,1.4,1.1,1.6,2.1c0.1,0.7,0.7,1,1.2,1.1c1.9,0.5,3.8,1,5.8,0.8c0.6-0.1,1.3-0.7,1.6-0.1
		c0.4,0.7-0.6,1.1-0.9,1.7c0,0.1,0,0.2,0.1,0.3c0.7,0.1,1.9-0.6,2.1,0.6c0.2,1.1,1.1,1.1,1.8,1.5c0.8,0.4,1.2-0.7,1.4-0.5
		c1,0.7,1.8-0.5,2.2-0.3c1,0.6,1.5,0.7,2-0.4c0,0,0.2,0,0.2,0.1c1.2,1.8,1.5,0.3,1.9-0.5c0.7,0.1-0.1,1.1,0.6,1.1
		c0.4,0,1.1,0.3,1.3-0.3c0.2-0.5,0.4-1.3,0.1-1.8c-0.4-0.7-0.6,0.3-0.9,0.4c-0.3,0.1-0.6,0-0.8-0.2c-0.3-0.3-0.6-0.3-0.9,0
		c-0.9,1.4-1.5-0.2-2.2-0.2c-0.2,0-0.2-0.5,0-0.6c0.6-0.2,1.1-0.5,0.9-1.2c0.9,0.3,1.9,0.4,2.7-0.3c0.9,1.3,1.3,0.2,1.8-0.5
		c0.2,0.4,0.4,0.8,0.6,0.9c1.2,0.1,1.9,1,2.7,1.7c1,1,2.1,1.7,3.5,2.1c0.6,0.2,1,0,1.3-0.6c0.1-0.3,0.2-0.6-0.1-0.8
		c-0.6-0.3-0.4,0.7-0.9,0.6c-1.2-0.6-1.3-1.9-1.8-2.9c-0.2-0.5-0.5-0.6-1-0.7c-0.4-0.1-0.7-0.3-1.1-0.4c-0.4-0.2-0.7-0.4-0.6-1
		C331.7,404.4,332.2,404.7,332.6,404.6z M310.2,687.7c-0.2,0.8,0.2,1.6,0.1,2.5c-0.2,1.2,0.6,1.9,1.7,2.1c0.5,0.1,1,0,1.4,0.1
		c2.6,0.4,3.3-0.2,3.3-2.8c0-3.1,0-6.2,0-9.3c0.1-7.3-0.1-14.6,0.1-22c0.2-9,0.1-18,0.1-27c0-13.5-0.1-26.9-0.1-40.4
		c0-12.3,0.1-24.6-0.1-36.9c-0.2-11-0.2-22-0.3-32.9c0-6,0-12-0.1-17.9c0-9.8,0-19.6,0-29.4c0-12.1-0.2-24.3-0.2-36.4
		c0-6-0.1-12.1-0.1-18.1c0-3.2-0.1-3.2-3.2-4c-0.8-0.2-2-1-2.4-0.7c-0.8,0.6,0.1,1.7,0.1,2.6c-0.1,3.6-0.2,7.3-0.2,10.9
		c0.1,6.9-0.2,13.8-0.1,20.7c0.1,9,0.2,18.1,0,27.1c-0.2,12.3,0.2,24.6,0.1,36.9c0,4.3,0.1,8.6,0.1,12.9c0.1,14.8,0,29.7,0,44.5
		c0,13.4,0,26.8,0,40.1c0,9.9,0,19.8-0.1,29.7c0,3.8-0.2,7.6-0.2,11.3C310.2,663.5,310.2,675.6,310.2,687.7z M314,273.4
		c0-4.8,0-13.1,0-21.4c0-2,0-2-2-2.2c-0.3,0-0.7-0.1-1-0.2c-1-0.4-1.1,0.1-1.1,0.9c0,3.1,0,6.3,0,9.4c0.1,9.5,0.2,19,0.1,28.5
		c-0.1,5.5,0,11.1-0.1,16.6c0,6.9,0.1,13.9,0,20.8c0,3.5-0.1,7,0.1,10.4c0.1,3.7,0.1,7.4,0.1,11.1c0.2,6.3-0.1,12.6,0.3,19
		c0.1,1.3,0.4,2.8-0.4,4.1c-0.2,0.3-0.3,0.8,0.1,1.1c1.2,0.7,2.4,0.3,3.6,0c1-0.2,1-1,1-1.7c0.1-1.4,0.1-2.9,0.1-4.3
		c-0.1-7.6-0.2-15.2-0.2-22.8c0-5.8-0.1-11.7,0-17.5c0.1-7.8-0.3-15.6-0.4-23.4C314.3,293.6,314.5,285.3,314,273.4z M370.1,696.3
		c2.5,0.1,5.1-0.3,7.7-0.9c3-0.8,6.1-1.6,9.2-2c2.1-0.3,2.3-0.7,2.7-2.7c1.4-6.6-1.6-11.8-5.2-16.8c-0.8-1.1-2-1.8-3-2.7
		c-0.5-0.4-1-0.5-1.7-0.4c-1.7,0.3-3,1.4-4.3,2.4c-2,1.6-3.8,3.4-5.5,5.3c-4.2,4.6-5.4,10.3-6.4,16.2c-0.2,1.1,0.1,1.6,1.4,1.6
		C366.6,696.4,368.3,696.3,370.1,696.3z M349.7,394.2c0.6-2,0.5-4,0.6-5.9c0-1-0.1-2-0.4-3c-0.3-1.2-2.1-2.4-2.9-2
		c-1.1,0.6-0.3,1.6-0.1,2.4c0.8,3.9,0.5,7.7-0.5,11.5c-0.7,2.7-1.6,5.4-2.6,8c-1.5,4-3.2,7.9-6.4,10.9c-0.7,0.7-0.6,2,0.3,2.1
		c1.6,0.1,3.3,0.2,4.4-1.5c1-1.4,2.1-2.7,2.7-4.3c0.4-1,0.7-0.5,1.1,0.1c0-1,1.5-1.7,0.3-2.9c-0.1-0.1,0-0.4,0.1-0.5
		c1.3-2.9,2.6-5.7,3.9-8.6c0.9,0.7,0.7,1.5,0.4,2.4c-0.3,0.8-0.2,1.7-0.3,2.5c0.1,0,0.1,0.1,0.2,0.1c0.7-1.3,1.3-2.6,2-4
		c0.4,1.3-0.2,2.4-0.2,3.7c0.9-0.7,1.3-1.6,1.9-2.4c0.1,0.7,0,1.2-0.2,1.7c-0.1,0.3-0.3,0.9,0.1,1c0.5,0.2,0.6-0.3,0.8-0.6
		c0.3-0.6,0.6-1.2,1-2c0,0.7,0,1.1,0,1.5c0,0.4-0.2,0.8,0.3,1c0.5,0.2,0.8-0.2,1-0.6c0.2-0.5,0.5-1,0.7-1.5c0.2,0.8,0.1,1.5,0,2.2
		c0,0.4,0.1,0.7,0.4,0.8c0.5,0.2,0.5-0.3,0.6-0.6c0.3-0.8,0.6-1.5,1.2-2.1c0.5,1-0.3,1.8-0.1,2.7c0.8-0.2,0.6-1,1.1-1.3
		c0.3,1.2-0.4,2.2-0.2,3.5c0.9-0.7,0.9-1.8,1.7-2.5c0.2,0.6,0.1,1.2,0,1.7c-0.1,0.3-0.5,0.8,0.1,1c0.6,0.2,0.7-0.4,0.8-0.8
		c0.3-1.1,0.8-2.1,0.8-3.3c0.4,0.9,0.4,1.8,0.2,2.8c-0.1,0.3-0.2,0.6,0.2,0.7c0.4,0.1,0.5-0.2,0.6-0.5c0.2-0.4,0.3-0.9,0.5-1.4
		c0.2,0.9,0.3,1.8-0.3,2.5c-0.2,0.3-0.5,0.6-0.4,0.9c0.6,1.8-0.6,3.3-0.9,5c-0.4,2.3-2.2,4-3.4,6c-0.3,0.4-1.4,0.6-0.7,1.2
		c0.6,0.5,0.7-0.7,1.1-0.9c0.1,0,0.1,0,0.4,0c-0.9,1.7-1.8,3.4-3.1,4.7c-0.3,0.3-0.9,0.7-0.6,1.2c0.3,0.6,0.9,0.3,1.3,0.3
		c1.9,0.3,2.7-1.3,3.6-2.4c1.6-1.9,2.8-4.2,3.7-6.5c0.8-2,2.1-3.9,2.4-6c0.7-3.9,1.9-7.6,2.4-11.5c0.3-2.2,0.6-4.4-0.2-6.6
		c-0.4-1-1-1.7-2.1-1.6c-1,0.1-1.9-0.2-2.8-0.5c-1-0.4-2-0.8-3-1.2c-0.6-0.3-0.9-0.2-0.9,0.7c0,2-0.2,4.1-0.2,6.1c0,1.2-0.4,2.1-1,3
		c-1.4,2.1-5.2,1.8-6.4-0.4c-1.1-1.9,0.1-3.9-0.6-5.9c-0.3-0.8-0.1-2.1,0.2-3.2c0.7,1.3,0.4,2.6,0.6,4c2.3-1.8,4.5-3.4,7.1-4.5
		c0-0.3-0.3-0.3-0.5-0.4c-2.8-1.6-6-1.8-9-2.9c-1.4-0.5-1.8-0.1-1.8,1.4c-0.1,1.6-0.2,3.2-0.3,4.8
		C350.4,393.6,350.5,394.1,349.7,394.2z M395.6,698.9c1.2,0,2.2,0,3.1-0.5c1.5-0.9,3.2-1.3,4.9-1.5c3.9-0.5,6.3-2.7,7.1-6.5
		c0.4-1.7,0.4-3.4,0.8-5c0.5-2.1-0.2-4-1-5.9c-0.9-2.4-2.6-2.7-4.8-2.1c-2.9,0.7-5.3,2.3-6.7,5.2c-0.6,1.3-1,2.7-1.5,4.1
		c-1.4,3.5-2.4,7.1-3.1,10.8C394.3,698.2,394.2,699.2,395.6,698.9z M357.5,692.8c0,1.5,0.2,1.7,1.2,1.3c1-0.4,2.1-0.9,3.1-1.1
		c0.9-0.2,1.2-0.4,1.4-1.3c0.5-2.3,0.8-4.6,1.6-6.8c1.4-3.8,3.9-6.7,6.6-9.6c0.3-0.3,0.8-0.6,0.6-1.1c-0.2-0.5-0.8-0.5-1.1-0.4
		c-2.7,0.7-5.4,1.5-7,4c-2.3,3.5-3.9,7.3-5.3,11.3C358,690.4,357.7,691.8,357.5,692.8z M352,416.9c-0.2-0.1-0.3,0-0.3,0.1
		c-0.1,0.4,0,1-0.6,0.7c-0.5-0.2,0.1-0.5,0.2-0.8c0.1-0.6,0.7-1.1,0.6-1.8c-0.5,0-0.5,0.4-0.7,0.6c-0.3,0.2-0.5,0.5-0.6,0.8
		c-0.3,0.4-0.5,0.5-1,0.2c-0.4-0.2-0.9-1.1-1.1,0c-0.1,0.8-1.2,0.2-1.2,1c0,0.3,0.2,0.8-0.4,0.7c-0.5-0.1-0.4-0.6-0.2-0.9
		c0.4-0.6,0.5-1.1-0.4-1.2c-0.6-0.1-1.5-1.8-1.6,0.4c0,0-0.3,0.1-0.4,0.1c-0.2,0.8-1.5,1.3-1.1,2.2c0.5,1,2,0.9,2.9,1.6
		c0.7,0.5,0.8-0.6,1.3-0.5c0.4,0.3-0.2,1,0.4,1.1c1.4,0.3,2.5,1,3.7,1.8c0.3,0.2,0.9,0.7,1-0.2c0-0.2,0.2-0.5,0.5-0.4
		c0.3,0.1,0.3,0.4,0.2,0.7c-0.3,0.8,0,0.9,0.6,0.5c0.2-0.1,0.6-0.4,0.6-0.1c0.1,1,1.2,0.6,1.6,1.2c0.4,0.6,0.9,0.4,1.2-0.2
		c0.1-0.3,0.2-0.6,0.5-0.6c0.4,0,0.8,0,0.6-0.5c-0.2-0.4,0-1-0.8-0.9c-0.8,0.1-0.7-0.4-0.3-0.8c0.4-0.5,0.8-1.1,1.1-1.7
		c0.1-0.3,0.1-0.7-0.3-0.9c-0.4-0.2-0.5,0.1-0.5,0.5c0,0.6-0.4,0.7-0.9,0.6c-0.6-0.2-1,0.4-1.4,0.5c-0.7,0.1-0.6,1.6-1.3,1
		c-0.5-0.4,0.7-1.1,1-1.7c0.2-0.4,0.7-0.7,0.3-1.1c-0.5-0.5-0.8,0.2-0.9,0.5c-0.2,0.5-0.9,0.4-1,1c0,0.3,0.1,0.8-0.5,0.6
		c-0.6-0.2-0.2-0.6,0-1c0.2-0.4,0.4-0.7,0.7-1.1c0.3-0.5,0.3-1-0.3-1.2c-0.6,0.3,0.3,1.4-0.6,1.2C351.4,418.4,352.4,417.4,352,416.9
		z M359.6,410.2c-0.1-1,0-2.5-1.2-3.1c-0.9-0.4-1.9-2.2-3.1-0.4c0,0-0.3,0-0.4-0.1c-0.6-0.8-1,0-1.4,0.3c-0.3,0.2-0.5,0.6-0.8,0.9
		c-1.9,1.6-2.2,4.6-0.5,6.3c0.6,0.6,1.4,1.2,2.3,1.5c1.1,0.4,1.9,0.2,3-0.4C359.5,414.1,359.4,412.3,359.6,410.2z M361.8,393.2
		c-0.1-0.7,0.2-1.4-0.3-1.7c-0.5-0.3-1,0.3-1.4,0.5c-1,0.6-1.8,1.3-2.8,1.8c-1.5,0.9-2.2,2.1-2.2,3.8c-0.1,2,0.3,2.6,2,3.2
		c1.7,0.5,2.9,0,3.8-1.5C362.1,397.3,361.2,395.1,361.8,393.2z M369.3,671.5c0.6-0.2,1.9,0.4,2.2-0.7c0.5-1.8,1.1-3.5,1.7-5.2
		c0.3-0.9-0.1-1.1-0.9-0.8c-2.5,1-4.3,2.3-4.7,5.3C367.4,671.5,367.8,671.7,369.3,671.5z M394.9,626.3c0.7-3.1,0.5-7.6-0.4-10.2
		c-0.1-0.3-0.4-0.6-0.7-0.9c-0.3-0.3-0.5-0.9-1-0.5c-0.5,0.3-0.4,0.9-0.2,1.3c1.1,2.3,1,4.9,1.1,7.3
		C393.7,624.3,394.2,625.2,394.9,626.3z M309,368c-0.1-0.3,0-0.9-0.4-0.9c-0.6-0.1-1.3-0.1-1.7,0.5c-0.8,1-1.5,2.1-2.3,3.2
		c-0.3,0.5,0,0.6,0.4,0.7C307,371.9,309,370.1,309,368z M487.2,288c-0.2,0.1-0.4,0.1-0.5,0.1c-1.1,1.2-1.3,3-2.3,4.3
		c-0.1,0.2-0.6,1.4,0.2,1.7c0.6,0.2,1.2-0.3,1.5-1.1C486.6,291.4,487,289.8,487.2,288z M360.8,386.7c-0.2-0.6,0.4-1.6-0.4-1.8
		c-0.6-0.2-1.1,0.6-1.6,1.1c-0.4,0.3-0.7,0.7-1.1,1c-0.2,0.2-0.4,0.6-0.1,0.7c0.9,0.3,1.9,0.8,2.8,0.7
		C361.2,388.3,360.5,387.3,360.8,386.7z M347.6,422c-0.5,0-0.7,0.2-0.6,0.6c0.3,0.8,0,2.1,1,2.3c0.5,0.1,1.3-0.8,1.3-1.5
		C349.4,422.4,348.2,422.5,347.6,422z M492,316.7c1-0.5,1.3-1.5,1.8-2.3c0.1-0.2,0.3-0.4,0-0.6c-0.2-0.2-0.5-0.1-0.7,0
		c-0.7,0.5-1.2,1.2-1.7,2C491.1,316.3,491.5,316.5,492,316.7z M426.9,674.4c0-0.4-0.2-0.6-0.4-0.7c-0.2-0.1-0.4-0.1-0.5,0.1
		c-0.4,0.7-0.8,1.4-1.2,2.1c-0.1,0.3-0.2,0.7,0.2,0.8c0.4,0.1,0.6-0.3,0.6-0.6c0.1-0.6,0.3-1.1,0.9-1.3
		C426.7,674.8,426.8,674.5,426.9,674.4z M339.7,411.7c0-0.6-0.5-0.8-0.9-0.9c-0.4-0.2-0.8-0.5-1.2-0.1c-0.1,0.1-0.2,0.3-0.2,0.5
		c0,0.3,0.3,0.4,0.5,0.3c0.4-0.2,0.8-0.3,0.8,0.3c0,0.3-0.1,0.7,0.4,0.5C339.4,412.2,339.5,411.9,339.7,411.7z M487,285.4
		c-0.5,0.9-1.2,1.5-0.8,2.5C487.3,287.4,487.7,286.6,487,285.4z M336.9,415.8c0.4-0.2,0.4-0.6,0.4-0.9c0-0.5-0.1-0.9-0.6-1
		c-0.4,0-0.5,0.4-0.5,0.7C336.3,415,336.3,415.5,336.9,415.8z M495.1,307.2c-0.6,0.7-1,1.5-0.9,2.6
		C495.1,309,495.4,308.2,495.1,307.2z"/>
	<path d="M316.4,208.6c-0.3-0.3-0.3-0.7-0.3-1c0-0.8,0.1-1.5-1-0.6c-0.3,0.3-1.1,0.1-1.7,0.1c-2.4-0.2-4.8-0.2-7.5,0.3
		c0.7-1,0.6-1.7,0.4-2.5c-0.9-3.8-1.6-7.8-3-11.4c-1.1-2.8,0.2-4.8,0.3-7.2c0.1-2.6,0.5-5.3,0.8-7.9c0.4-4.1,1-8.3,1.3-12.4
		c0.3-3.6,1-7.1,1.3-10.7c0.3-3,0.9-6.1,1-9.1c0.1-3.9,1.1-7.8,1.3-11.7c0.1-2.4,0.5-4.7,0.9-7.1c0.5-2.8,0.1-5.7,0.6-8.5
		c0.7-4.1,0.4-8.3,1-12.5c0.3-1.8,0.9-3.5,1.1-5.4c0.5,0.2,0.2,0.9,0.8,1c0.3-0.5,0.2-1,0-1.5c-0.1-0.3-0.2-0.6,0.2-0.7
		c0.3,0,0.4,0.3,0.5,0.6c0.1,1,0.2,1.9,0.3,2.9c0.5,6.8,0.9,13.7,1.9,20.5c0.5,3.3,0.4,6.6,0.7,9.9c0.9,9.3,1.9,18.6,1.9,28
		c0,6.1,0.4,12.3,1,18.4c0.8,9.1-0.3,17.9-2.9,26.6C316.9,207.4,317.2,208.2,316.4,208.6z M314.4,151.3c-0.2-0.4-0.2-0.9,0.2-1.1
		c0.8-0.4,1.2-0.8,0.7-1.7c-0.1-0.2,0.2-0.2,0.4-0.3c1.1-0.6-1.3-1.5,0.1-2.1c-0.1-0.1-0.1-0.2-0.2-0.2c-0.1,0-0.2-0.1-0.3,0
		c-0.2,0.1-0.5,0.5-0.7,0.1c-0.1-0.3,0-1.1,0.2-1.1c0.9-0.3,0.6-1,0.7-1.6c0.3-1.4,0.1-2.9,0.4-4.3c0.3-1.7,0.3-3.5-1-4.9
		c-0.3-0.4-0.9-0.4-1.3-0.6c-0.2-0.1-0.3,0.3-0.2,0.4c0.6,0.7,0.2,1.6,0.5,2.4c0.4,1,0.6,2.4-0.3,3.6c-0.1,0.1-2.2,1.2-0.2,1.9
		c0,0,0,0.4,0,0.4c-1.1,0.7,0.1,1.6-0.3,2.4c-0.3,0.6-1.2,1.3,0,1.9c-0.6,1.1,0.3,2.5-0.7,3.5c-0.2,0.2-0.3,0.4-0.2,0.6
		c0.4,1.6,0.4,3.3,0.5,4.9c0,0.7-0.6,1.2-0.5,1.4c0.9,1.3,0.2,2.6,0.3,3.9c0.1,1.2-0.3,2.5-0.2,3.7c0.2,1.5,0.4,3,0.3,4.5
		c-0.2,2.3,0.1,4.4,0.6,6.6c0.3,1.5,0.6,2.9,0.9,4.4c0.2,0.9-0.5,2.1,0.8,2.6c0.1,0.1,0.2,0.6,0.1,0.8c-0.7,1,0.3,1.7,0.4,2.6
		c0.1,1.2,1.8,1.7,1.6,3.1c0,0.3,0.2,0.6,0.6,0.4c0.3-0.1,0.4-0.5,0.2-0.6c-0.7-0.5,0.3-1.9-1-2.1c-0.2,0-0.3-0.6,0-0.7
		c0.6-0.4,0.4-0.9,0.3-1.3c-0.4-1.7,0-3.3-0.1-5c-0.1-1-0.4-2-0.2-2.9c0.2-0.8-0.9-1.7,0.2-2.4c-1.4-0.6,0.2-1.7-0.3-2.6
		c-0.2-0.3-0.3-1.4,0.5-1.7c0.3-0.1,0.3-0.3,0.1-0.4c-1.3-0.6-0.2-1.8-0.6-2.7c-0.4-0.7-0.3-2-0.3-3.1c0-1.7-0.7-3.4-0.4-5.1
		c0.4-1.7,0-3.3-0.1-4.9c0-0.4,0-0.9,0-1.1c-0.3-0.8,0.9-0.9,0.6-1.4C315.9,150.3,315.1,150.3,314.4,151.3z M313.8,118.9
		c-0.4,0-1.3-0.7-0.8,0.6c0.1,0.3,0.2,0.7,0.1,1c-0.3,1,0.4,2-0.2,3.2c-0.4,0.7,1.2-1.6,1.8,0c0,0.1,0.4-0.2,0.4-0.4
		c0,0,0-0.1-0.1-0.1c-0.2-1.6-0.5-3.1-0.5-4.7c0-0.4,0-0.8-0.4-1c-0.1,0-0.2,0-0.2,0.1c-0.3,0.4-0.2,0.7,0,1.1
		C313.8,118.6,313.8,118.7,313.8,118.9z M314.6,127.9c-0.4-0.1-0.5-0.9-1.1-0.9c-0.6,0-0.2,0.6-0.2,1c0,0.4,0.2,1,0,1.3
		c-0.9,1.6,0.5,1.9,1.4,2.5c0.1,0.1,0.4,0.1,0.5,0.1c0.3-0.2,0.1-0.4,0-0.6C315.1,130.2,314.4,129.2,314.6,127.9z M315.9,193.3
		c0.1,0.5,0.1,1,0.2,1.6c0,0.3,0.3,0.5,0.5,0.3c0.4-0.4,0.3-1.1,1-1.3c-0.9-0.5-0.1-1.3-0.3-1.8c0-0.1-0.3-0.1-0.4-0.1
		C316.6,192.5,315.8,192.6,315.9,193.3z M312.4,114.2c-0.2-1,1.2-1.1,1-1.5c-0.6-1.2,0.1-2.5-0.5-4
		C312.4,110.7,312.3,112.4,312.4,114.2z"/>
	<path d="M457.7,610.7c-0.7,0.1-0.8-2.2-1.7-0.3c-0.2,0.3-0.4,0.1-0.5-0.1c-0.2-0.3-0.4-0.6-0.8-0.2c-0.3,0.3-0.2,1,0.1,1
		c0.9,0.1,1.5,1.5,2.7,0.5c-0.6,0.9-0.3,2.2,0.2,2c1.3-0.4,0.9,0.8,1.4,1c0.8,0.3,1.8,0.2,2.3,0.8c0.5,0.6,1.1,1.2,1.6,1.7
		c0.6,0.6,0.9,0.9,1.5-0.4c-0.4,2.1-0.2,2.4,1.4,2.3c-0.1,0.8-0.6,1.9,1,1.5c0.1,0,0.2,0,0.3,0c-0.8,1.7,1.8,1.3,1.6,2.7
		c0,0.3,0.2,0.5,0.6,0.6c0.2,0,0.4,0,0.6,0c-0.6,1.6,1.4,1.4,1.7,2.4c0.2,0.7,1.1,0.9,1.5,0.9c0.8,0,1.5,0.8,2.3,0.4
		c0.4-0.2,0.4,0.3,0.5,0.5c0.2,0.6,0,1.1-0.3,1.5c-0.2,0.3-0.4,0-0.5-0.2c-0.5-0.7-1,0.2-1.7-0.1c-1.5-0.5-3.1,0-4.8-0.3
		c-1.3-0.2-0.7,1.5-0.8,2.2c-0.1,0.6-0.4,2,1.2,1.8c0.3,0,0.1,0.5,0.1,0.7c-0.1,0.5,0.3,0.8,0.7,0.8c0.5,0,0.5-0.4,0.4-0.8
		c-0.1-0.3-0.1-0.7,0.3-0.7c0.6,0,0.4,0.5,0.3,0.7c-0.2,0.7-0.1,1.4,0,2.4c0.6-0.9,0.9-1.6,0.9-2.4c0-0.3,0.1-0.5,0.4-0.5
		c0.2,0,0.3,0.2,0.3,0.4c-0.3,1-0.2,2-0.5,2.9c-0.2,0.7-0.3,1.2,0.1,1.8c-1.7,0-2.6,1.4-1.9,3.1c-1-0.5-1.4-0.3-1.8,0.7
		c-0.3,0.8,0.2,1.9-0.8,2.5c-0.3,0.2,0.5,0.4,0.5,1c-1.3,0.3-1.9,1.4-1.8,2.7c0,0.5-1.4,0.5-0.4,1.3c0.5,0.4,1,0.5,1.6,0.1
		c0.4,0.7-0.7,1.1,0,1.7c0.3,0.2,0,0.5-0.4,0.5c-1.5-0.1-2.9-0.2-4.4-0.3c-0.7,0-1.7-0.4-1.5,1c-1.3,0-1.4,1.4-2.2,1.9
		c-0.7,0.4-0.9,1.2-1.2,2c-0.3,0.8,0,1.6-0.5,2.3c-0.4,0.4,0.2,0.6,0.4,0.8c0.7,0.4,1.4,0.1,2.2,0c0.8-0.1,0.1-0.9,0.4-1.4
		c0.5,0.3,0.8,1.7,1.5,0.3c0.2-0.3,0.5-0.1,0.6,0.2c0.4,1.1,1.2,1.5,2.3,1.4c0.2,0,0.5,0,0.5,0.2c-0.2,1.1,1,1.1,1.2,1.6
		c0.4,1.1,1.8,1.4,1.8,2.7c0.2,0,0.2-0.1,0.2-0.1c0.3-1.8,1.5-2.9,2.7-4c0.1-0.1,0.2-0.1,0.2-0.2c0.2-0.9,0.2-1,1.4-1.2
		c0.3-0.1,0.7-0.1,0.9-0.3c0.2-0.2,0.3-0.5,0.1-0.8c-0.3-0.3-0.4,0.1-0.5,0.2c-0.2,0.2-0.4,0.4-0.6,0.1c-0.1-0.1-0.1-0.3,0-0.4
		c1.3-1.2-0.4-1.7-0.7-2.5c-0.2-0.4-0.8-0.5-0.7-1.2c0.1-0.9-1.3-0.4-1.3-1.6c0.7,1.1,1.9-0.2,2.4,1.1c0,0.1,0.2,0.1,0.2,0.1
		c1.2-1.3,1.2-0.7,1,0.5c0,0.2,0.3,0.4,0.6,0.3c0.3,0,0.6-0.2,0.5-0.4c-0.4-1.4,1.1-1.8,1.6-2.1c2.2-1,3-2.7,3.5-4.9
		c0.2-1-0.2-2.2,0.7-3c-0.8-1,0.3-1.1,0.6-1.6c0.4-0.7,0.6-1.6,0.7-2.5c0.1-0.9,0.9-1.7,0.3-2.7c-0.1-0.2,0.2-0.5,0.4-0.5
		c0.3-0.1,0.5,0.1,0.5,0.4c0,1.2,0,2.3,1,3.2c0,0,0,0.3,0,0.3c-2.1,1-1.1,3.2-1.8,4.8c-0.3,0.7-1,1.6-0.4,2.5c0,0.1-0.1,0.3-0.2,0.3
		c-2.1,0.4-1.5,2.4-1.9,3.7c-0.2,0.6-0.4,1.4-0.1,2.2c0.1,0.4,0.2,0.9,0.6,0.9c0.9,0.1,0.6,0.6,0.7,1.3c0.2,1.4-0.5,1.3-1.3,1.1
		c-0.8-0.1-1.4,0.1-2,0.8c-0.5,0.6-1.8,0.4-1.6,1.7c-0.8,0-0.3-0.9-1-1c0,1.2-1.4,0.8-1.7,1.6c-0.3,0.6-1.6,1.1,0.1,2.2
		c-1.4-0.2-2.6-0.7-2.4,1.1c0,0.2-1.1,0.7-1.3,1.4c-0.1,0.4-0.5,0.9,0.1,1.1c0.6,0.2,0.7-0.3,0.6-0.8c-0.1-0.5,0.2-0.6,0.6-0.5
		c0.5,0.1,0.9-0.2,1-0.6c0.1-0.8,0.3-0.7,1-0.6c1.1,0.1,0.8-0.9,0.9-1.9c0.8,1.4,1.8,0.3,2.6,0.6c0.6,0.2,0.8,0.1,0.4,0.7
		c-0.4,0.6,0.1,0.8,0.2,1.1c0.3,0.6,0.6,0.2,0.9-0.1c0.2-0.2,0.5-0.2,0.6,0c0.1,0.1,0,0.3,0,0.4c-0.4,1.5,0,3.2,1,4.3
		c0.3,0.3,0.1,0.5,0.1,0.8c0,1-0.4,2.1,1.1,2.4c0.1,0,0.1,0.2,0.2,0.3c-1.4,0.4,0.1,1.4-0.4,2.1c-0.3,0.4-0.1,1.4,0.9,0.8
		c0.5-0.3,2,0.8,1.6-1c-0.2-0.8-0.5-1.4-1.4-2c3.4,0.1,3.2,0.3,3.4-3.2c0.1-0.8,0-1.6,0-2.3c0-0.3,0-0.7,0.4-0.5
		c0.3,0.1,0.3,0.3,0.2,0.7c-0.2,1-0.6,2.2,1,2.5c0.3,0.1,0.4,0.5,0.2,0.5c-1,0.3-0.1,0.9-0.2,1.2c-0.5,2,0.9,1.5,1.9,1.6
		c1.1,0,0.6-1,1-1.4c0.3-0.3,1.1,0.7,1.6-0.2c0.3-0.5-0.4-0.8,0-1.3c0.8,0.1,1.9,0.7,1.5-1c0-0.1,0.1-0.4,0.1-0.4
		c1.9-0.3,1.3-2.3,2.2-3.3c0.2-0.2,0.2-0.4,0-0.5c-0.2-0.1-0.4-0.2-0.5-0.1c-0.2,0.1-0.3,0.3-0.4,0.5c-0.4,0.7-0.9,1.3-0.6,2.1
		c-0.8,0.1-1.4,0.3-1.6,1.3c-0.1,0.5-0.6,0.3-0.9-0.1c-0.6-0.9-0.9-2.1-2.4-1.4c-0.2,0.1-0.4-0.3-0.3-0.4c0.8-0.4-0.6-2.1,1.2-1.9
		c0.3,0,0.5-0.4,0.6-0.8c0.1-0.2,0.1-0.6,0.3-0.6c1.9-0.6,2.6-2.2,3.4-3.8c0.3-0.7,1.3-1,1.5-2c0,0,0.7,0.1,0.6,0.5
		c-0.3,1.6,0.2,3.4-0.6,4.9c-0.2,0.5-0.1,0.8,0.3,1c0.4,0.2,0.6-0.2,0.7-0.6c0.2-1.4,1.6-1.8,2.5-2.5c0.6-0.5,1-1.1,1.6-1.6
		c0.4-0.3-0.2-1-0.2-1.6c0-1.6,0.3-3.1,0.2-4.7c0-1,0.1-2-1.4-2.1c0.2-0.5,2.5-0.6,0.4-1.5c-0.3-0.1,0-0.5,0.4-0.6
		c0.3-0.1,0.5-0.3,0.3-0.5c-0.8-0.6-0.6-0.9,0.2-1.2c0,0,0.1-0.3,0-0.4c-1.1-0.7-0.6-0.9,0.3-1.1c0.3-0.1,0.2-0.4,0-0.6
		c-0.2-0.2-0.8,0-0.7-0.5c0.1-0.4,0.5-0.1,0.7-0.3c0.4-0.3,0.7-0.7-0.1-0.9c-0.2-0.1-0.5,0-0.6-0.3c0.1-0.3,0.2-0.4,0.5-0.3
		c0.4,0.1,0.6,0,0.6-0.4c0-0.4-0.1-0.5-0.5-0.5c-0.3,0-0.5-0.1-0.5-0.4c0-0.3,0.2-0.4,0.5-0.2c0.4,0.2,0.5,0,0.6-0.4
		c0.1-0.4,0-0.6-0.4-0.5c-0.3,0-0.5-0.1-0.5-0.4c0-0.3,0.2-0.4,0.5-0.3c0.3,0.1,0.5,0,0.5-0.3c0-0.3-0.1-0.4-0.4-0.5
		c-0.3,0-0.5-0.2-0.5-0.4c0-0.4,0.3-0.4,0.6-0.3c0.2,0,0.4-0.1,0.4-0.3c0.1-0.3-0.1-0.4-0.4-0.5c-0.9-0.4-0.9-0.7,0.2-0.7
		c0.4,0,0.5-0.2,0.5-0.6c0-0.4-0.3-0.4-0.6-0.3c-0.2,0.1-0.5-0.1-0.4-0.4c0.1-0.2,0.3-0.3,0.5-0.2c0.7,0.3,0.8-0.1,0.9-0.6
		c0.3-2.1,1.1-4.2,0.9-6.4c0-0.3,0.2-0.4,0.4-0.5c0.5-0.1,0.5,0.3,0.5,0.7c-0.1,1.2-0.3,2.3-0.5,3.5c-0.3,1.9-0.5,3.9-0.5,5.8
		c0,0.3-0.2,0.7,0.2,0.7c0.5,0.1,0.4-0.4,0.5-0.7c0.1-1.1,0.4-2.2,0.5-3.3c0.1-0.5-0.6-2,0.8-2.2c0,0,0-0.2,0-0.3
		c-1.5-0.9,0-1,0.5-1.3c-0.4-0.5-1.9-1,0-1.3c0.5-0.1,0.4-0.9,0.5-1.4c0.2-1,0.5-2.1,0.6-3.1c0.1-0.6,0.1-1.4-0.2-1.7
		c-1.1-0.9-0.7-2.2-1.1-3.3c0-0.1-0.1-0.3-0.1-0.3c-1.6-0.1-0.9-1.5-1.1-2.2c-0.3-0.9-0.6-1.3-1.7-1.4c0.9-0.9,0.5-1.6,0-2.3
		c-0.5-0.7-1.2-1.2-0.9-2.2c0,0-0.1-0.1-0.1-0.1c0.2-1.3-1.9,0-1.2-0.6c1.1-0.9,0.3-1.3,0.1-1.9c-0.2-0.7-0.7-1.3-0.9-2
		c-0.8-1.9-1.7-3.7-2.9-5.4c-0.2-0.3,0.1-0.5,0-0.8c-0.2-1,0.1-2.3-1.6-2.6c0.6-0.5,1.7-0.8,0.4-1.5c-0.2-0.1,0.1-0.3,0.1-0.5
		c0.1-1,0.4-2.2-1.1-2.5c-0.2-0.1-0.3-0.2-0.2-0.4c0.7-1.7,0-3.1-1-4.3c-0.4-0.5,0.2-1.1-0.1-1.2c-1.2-0.3-1.2-1.2-1.4-2.1
		c-0.1-0.3-0.2-0.2-1.2-0.1c0.4-1.7,0.2-2-1.5-1.7c0.5-1.1,0.3-1.8-1.1-1.5c-0.1,0-0.2,0-0.3,0c0-1.1-1-1.4-1.5-2.1
		c-0.6-0.9-0.9-2-2.3-1.3c-0.1,0-0.3-0.1-0.3-0.2c-0.8-1.3-0.8-1.3-2.6-1.6c-0.1,0-0.3-0.1-0.3-0.2c0.2-1.5-1.4-1.8-2-2.7
		c0.2-0.1,0.3-0.2,0.3-0.2c2.1,1.7,4.8,2,6.9,3.6c1.5,1.2,3.4,2,4.8,3.5c3.1,3.4,4.9,7.2,5.5,11.7c0.6,4.6,2,9,4.3,13.1
		c1.5,2.7,2.6,5.7,4,8.6c1.2,2.4,2,5,3,7.5c0.4,1,0.3,2.5,0,3.7c-0.8,3.4-1.4,6.9-2.2,10.3c-0.7,2.9-1.1,5.8-1.6,8.7
		c-0.3,1.7-0.9,3.3-1.2,4.9c-0.3,1.9-0.3,3.8-0.5,5.7c-0.1,1.1-0.1,2.2-0.3,3.3c-0.1,1.2-0.8,2.2-1.7,3.1c-2.4,2.4-3.7,5.4-4.9,8.5
		c-0.2,0.5-0.4,0.9-0.5,1.3c-0.6,2.4-2.5,2.9-4.6,3.6c-1.9,0.6-3.6,1.5-5.4,2.5c-1.3,0.7-2.5,1.4-3.9,0.3c-0.1,0-0.2-0.1-0.2,0
		c-1.3,1-3.2,0.3-4.3,1.6c-0.3,0.3-0.7,0.6-1.2,0.5c-3.1-0.7-6.1,0.4-9.1,0.1c-1.3-0.1-2.7-0.1-3.6-1.3c-0.2-0.2-0.5-0.2-0.8-0.3
		c-3.5-0.2-7-0.8-10.5-0.7c-0.5,0-1-0.1-1.4-0.2c-0.8-0.1-1.7-0.3-1.4-1.5c0.2-0.7-0.3-0.8-0.9-0.8c-1,0-2,0-3.1-0.1
		c-1.9-0.2-2.3-0.8-1.6-2.6c1.2-2.9,2.8-5.5,4.9-7.9c1-1.2,2.2-2.2,3.4-3.1c0.9-0.7,1.5-2,1.8-3.1c0.5-2.2,1.4-4.2,2.3-6.3
		c0.8-1.9,2.8-2.5,4.2-3.7c1.3-1.1,2.9-1.8,3.6-3.7c0.3-0.9,1.3-1.2,2-1.9c1.2-1.2,2.3-2.5,2.4-4.3c0.1-1.1,1.1-2,0.9-3.3
		c-0.2-1.3-0.2-2.7-0.5-4c-0.2-0.9-0.6-1.9,0.1-2.9c0.1-0.1,0.1-0.5,0.1-0.5c-1.1-0.1-0.6-1.1-0.6-1.6c-0.2-2.7-1.5-4.7-3.4-6.6
		c-2.5-2.4-5-4.7-7.8-6.7c-1.8-1.3-3.2-3.1-4.5-4.9c-0.5-0.6-0.9-1-1.6-1.1c-1.8-0.3-2.9-1.6-4.1-2.8c0.2-0.1,0.2-0.1,0.3-0.1
		c0.5,0,1,0.8,1.4,0.1c0.4-0.9-0.5-1-1-1.2c-2.9-1.3-4.6-3.7-5.9-6.4c0.4,1.3,2.3-0.3,2.5,1.3c0.6,0.1,0.4-0.8,0.9-0.7
		c0.1,0,0.2,0.1,0.2,0.1c-0.2,0.8,0.1,1.1,0.9,1.5c0.8,0.4,2-0.3,2.5,1c0.2,0.3,0.2-0.8,0.8-0.7c0.7,0.3-0.6,1.1,0.3,1.4
		c1.1,0.3,2.1,0.5,3.3,0.4c0.1,0,0.2-0.1,0.2-0.1c0.2-1.1,0.7-1,1.7-0.9c0.6,0,1.9,0.3,1.9-1.3c0-0.6,1.9-0.5,2.2,0.2
		c0.3,0.7,0.6,1.3,1.5,1.7c-0.8,0.5-1.9,0.4-1.9,1.6c0,0.4-0.6-0.2-0.8-0.1c-0.8,0.4-1.8-0.2-2.3,1.1c-0.3,0.9-1.3-0.3-1.9,0.3
		c-0.2,0.2-0.7,0-1.1,0c-0.9,0-1.8-0.1-1.8,1.2c-0.7-0.2,0-1.2-0.9-1.1c-0.6,0.1-0.4,0.6-0.5,0.9c-0.2,0.7,0.5,1,0.9,1
		c1.1,0.1,2.4,0.5,2.9-1c0.1-0.3,0.5-0.4,0.5-0.2c0.5,2.5,2.7,1.4,4.1,1.9c0.5,0.2,1,0.6,1.6,0.2c0.4,0.7,0.7,1.5,0.2,2.1
		C457.4,609.7,457.7,610.1,457.7,610.7z M459.4,677.9c0.9-0.7,2.5,0,3.3-1.5c1.7-2.9,3.3-5.8,5.5-8.4c0.6-0.7,0.6-1.3,0-2.1
		c-1.5-2-3.1-4-5.2-5.4c-1.7-1.1-2.8-1-4.3,0.5c-0.7,0.7-1.2,1.6-1.9,2.1c-2.8,2.3-4.4,5.4-6.2,8.3c-0.5,0.9-1.1,1.9-0.7,3
		c0.2,0.6,0.2,1-0.4,1.3c-0.3,0.2-0.5,0.5-0.4,0.9c0.1,0.4,0.5,0.5,0.9,0.5C453.1,677.5,456.2,677.1,459.4,677.9z M468.7,679.6
		c2.4-0.5,4.7-0.9,7.1-1.4c2-0.5,2.7-1.4,2.8-3.5c0.1-0.7-0.1-1.4,0-2c0.3-3-1-5.4-2.2-7.9c-0.3-0.6-0.6-0.8-1.3-0.4
		c-2.7,1.6-5.4,3.1-6.9,6c-0.2,0.3-0.4,0.6-0.7,0.8c-1.7,1.4-2.4,3.4-3.3,5.2c-0.5,1,0.2,2.5,1.2,2.7
		C466.5,679.3,467.6,679.7,468.7,679.6z M455.9,661.8c-2-0.5-3.3,0.9-4.5,1.7c-1.9,1.2-3.3,3.2-4.5,5.2c-1,1.6-2.2,3.1-2.9,4.9
		c-0.2,0.4-0.4,0.8,0,1.2c1.2,1,4.3,0.1,4.8-1.4c1-2.8,2.1-5.5,4.1-7.8C453.9,664.3,454.8,663.1,455.9,661.8z"/>
	<path d="M455.7,306.9c0.6,0.4,1.9,0.3,1.8,1.1c-0.1,0.9-1.3,0.4-2,0.4c-1.4,0-2.8-0.3-4.2-0.4c-0.7,0-1-0.4-1.1-1.1
		c-0.1-0.4,0-0.9-0.6-1c-0.4,3.5,2.3,6.3,5.3,5.7c-0.7,0.5-1.4,1.2-2.3,0.8c-1.7-0.9-2.6,0.9-4.1,0.8c-0.4,0-0.2,0.5,0.1,0.8
		c0.3,0.3,0.2,0.7-0.1,0.8c-0.3,0.1-0.7,0-0.6-0.5c0.1-0.4-0.2-0.8-0.5-0.6c-0.6,0.6-1.5-0.9-1.9,0.5c-0.4,1.3-0.5,2.5,0.4,3.7
		c0.7,0.8,0.3,2,0.7,3c-0.7-0.1-1.1-0.4-1.2-1.1c-0.1-1.3-1.1-1.9-1.9-2.7c-0.2-0.2-0.5-0.4-0.8-0.2c-0.4,0.2,0,0.5,0,0.8
		c0,1.2,0.8,2.1,1.1,3.1c0.7,3.2,1.1,6.4,0.9,9.7c-0.1,1.1-0.8,2-1.6,2.5c-1.2,0.8-2.2,1.8-3.8,1.8c-1,0-2,0.3-2.9,0.8
		c-0.9,0.4-1.9,0.7-3,0.2c-2.1-0.9-4.4-0.9-6.6-1.5c-1.3-0.4-1.5-0.7-1.3-2.2c0.4,0.1,0.3,0.4,0.4,0.6c0.1,0.3,0.3,0.5,0.6,0.5
		c0.4-0.1,0.4-0.4,0.3-0.7c-0.4-2.1,0.3-4,0.6-6c0.1-0.6,0.3-1.1,0.9-1.2c0.7,0,0.6,0.7,0.6,1.1c0.1,1.6,0.6,3.1,1.7,4.3
		c0.4,0.5,0.6,0.2,1,0.2c0.4,0,0.8,0,0.6-0.6c-0.2-0.8,0.3-0.8,0.9-0.6c0.2,0.1,0.5,0.1,0.7,0.2c0.4,0.1,0.7-1,1.2-0.3
		c0.3,0.5-0.5,0.6-0.7,0.9c-0.1,0.1,0.1,0.4,0.2,0.5c0.2,0.2,0.4,0.1,0.6-0.1c0.3-0.5,0.8-1.1,0.5-1.6c-0.4-0.7-0.3-1.2,0.4-1.7
		c-0.2-0.1-0.3-0.2-0.4-0.2c-1.3,0.4-2.2,1.8-3.9,1.7c-0.3,0-0.7,0.3-0.9-0.2c-0.2-0.4-0.1-0.9,0.4-0.9c1.9-0.1,3.4-1.1,5-1.9
		c1.8-0.9,3.7-2,4.9-3.8c0.4-0.7,0.6-1.5,0.1-2.1c-0.6-0.9-1-1.8-1.6-2.7c-1-1.6-2.4-2-4.1-2c-0.8,0-1.7,0-2.5,0c-2,0-2.1,0-1.8,1.9
		c0.3,2-0.3,3.9-0.1,5.9c0.1,1-0.7,0.9-1.3,0.4c-1.2-1-2-2.4-2.4-3.9c-0.3-1.1-0.4-2.3-0.6-3.4c-0.1-0.5-0.3-0.9-0.8-0.9
		c-0.6,0-0.6,0.5-0.7,0.9c-0.1,1-0.2,2-0.1,3c0,0.3,0.2,0.9-0.2,1c-0.5,0.2-0.8-0.3-1.1-0.6c-0.8-1.1-1.3-2.4-1.5-3.7
		c-0.1-0.8-0.4-1.3-1.3-1.5c-3.8-1.1-5.5-5.1-3.7-8.8c0.4-0.7,0.8-1.5,1.4-2c1-0.9,1.5-1.9,1.4-3.2c-0.1-1.7,0.8-2.8,2-3.8
		c1.8-1.5,3.9-2.4,6.2-3c1.8-0.5,3.4-0.1,4.6,1.2c1.2,1.3,2.3,1.4,4.1,1.2c2.2-0.3,2.4-1.4,2.9-3c0.7-2.6,1.5-2.9,4.1-2.1
		c0.6,0.2,1.2,0.4,1.8-0.2c1.3-1.2,2.9-1.4,4.5-1.3c1.2,0.1,1.6-0.4,1.5-1.5c-0.2-2.2-0.4-4.4-0.9-6.6c-0.3-1.4,0.4-2.3,1.7-2.1
		c0.2,0,0.5,0,0.5,0.1c1,2,3.3,2.4,4.8,3.8c0,0,0.1,0.1,0.1,0.1c0.7,0.4,0.9,1.7,1.8,1.3c0.6-0.3,1-1.3,1.5-1.9
		c1.3-1.7,1.8-3.6,2.3-5.6c0.8-3.5,1.7-7,1.4-10.6c-0.1-0.8-0.2-1.6-0.3-2.7c1.7,2.3,2.8,4.6,3.6,7.3c0.7-0.9,1-1.5,0.4-2.4
		c-0.7-1.2-0.9-2.6-2.2-3.5c-0.9-0.7-0.8-2.1-0.4-3.3c1,0.4,2,1.1,2.6,1.8c1.1,1.5,2.7,2.6,3.6,4.4c3.5,6.6,5.8,13.5,6.3,21
		c0,0.1,0,0.3,0,0.4c0,0.1-0.1,0.1-0.4,0.4c-0.9-3.3-0.6-6.6-1.8-9.7c-0.4,3.2,1,6.5-0.9,9.5c0.4-2.4,1-4.9,0-7.3
		c-0.7,2.7-0.4,5.5-1.9,8c0.2-2.2,1.3-4.3,0.6-6.6c-0.8,2.5-0.8,5.3-2.7,7.4c-1-1.3-0.1-2.6-0.1-3.9c0.1-1.3,0.3-2.7,0.2-4.3
		c-0.7,1.1-0.7,2.2-1.2,3.1c0.6-2.5,0.7-5.1,0.7-7.6c-0.1-2.2-0.6-4.7-1.3-7c-1,0.2-1.1,1-1.1,1.8c-0.1,2.6-0.2,5.2-0.9,7.9
		c-0.2-0.2-0.2-0.3-0.2-0.4c-0.1-0.5,0.4-1.4-0.3-1.5c-0.8-0.1-0.5,0.9-0.6,1.4c-0.5,1.9-1,3.9-1.4,5.8c-0.1,0.3-0.3,0.7-0.2,0.8
		c1.2,1.7-0.7,0.6-0.8,1.1c-0.1-0.6,0.6-1.2,0-1.5c-0.5-0.2-1.3,0.1-1.5,0.8c-0.4,1-1,0.4-1.3,0.1c-0.6-0.4-1.1-0.8-1.9-0.6
		c0.1,0.8,0.7,1.5,0.5,2.4c-0.7-0.5-0.5-1.5-1.4-2c0.1,0.9,0.2,1.7,0.3,2.7c-1.4-1-1.4-2.7-2.4-3.7c-0.9-1-1.8-2-3.4-2.1
		c0.9,1.9,1.4,3.7,1.6,5.6c0,0.5,1.3,0.9-0.1,1.5c-0.6,0.3-0.7,0.3-0.9-0.3c-0.1-0.7-0.2-1.3-0.1-2c0.2-1.1-0.3-2-1.2-2.9
		c0.1,1.2,0.1,2.5,0.3,3.7c0.2,1,0.3,1.4-1,1c-1.1-0.4-2.2-0.3-3.4,0.3c-1.4,0.8-2.8,1.3-4.6,0.7c-1.9-0.6-2.6,0-2.9,1.8
		c-0.1,0.4-0.2,0.9,0.3,1.1c0.4,0.2,0.7,0,1-0.4c0.6-0.7,1.2-1.2,2.2-1.8c-0.6,1.1-1.2,1.9-1.5,2.7c-0.5,1.3,1.5,1,1.5,2.1
		c-0.3,0.4-0.6,0-0.9-0.1c-0.6-0.3-1.1-1.1-1.6,0.1c-0.2,0.3-0.6,0.1-0.9,0c-1.5-0.8-3.1-0.7-4.8-0.7c-1,0-1.3,0.4-1,1.2
		c0.4,1.2,0.1,2.3-0.5,3.4c-0.9-0.5-1.2-1-0.6-1.9c0.5-0.8,0.3-1.6-0.2-2.3c-1.8-2.9-3-3.6-6.7-2.3c-2.2,0.8-4.3,1.7-5.4,3.9
		c-0.2,0.3-0.4,0.7-0.4,0.9c0.5,2.1-0.8,3.2-2,4.5c-1.4,1.5-2.3,3.2-1.8,5.4c0.4,1.9,1.8,2.6,3.3,3.1c3.1,1.2,6.3,1.5,9.7,1
		c3-0.4,6.1,0,9,1.2c0.5,0.2,1.2,1.1,1.6,0.4c0.4-0.5-0.7-0.8-0.9-1.5c1,0.4,1.7,1,3.1,1.2c-1-0.7-1.8-1.3-2.5-1.8
		c0.1-0.2,0.3-0.3,0.4-0.5c1.2,0.2,2,1.3,3.5,1.7c-0.7-1.3-2.1-1.6-2.6-3c0.6,0.3,1.1,0.6,1.6,0.9c0.2,0.2,0.5,0.5,0.7,0.1
		c0.2-0.3-0.1-0.5-0.3-0.7c-0.5-0.4-1-0.8-1.7-1.4c1.3,0.1,1.5-0.3,1-1.1c-0.4-0.7-0.5-1.5-1.4-1.9c-0.2-0.1-0.4-0.3-0.3-0.6
		c0.7-3.2-0.5-4.7-3.7-5c-0.1,0-0.2-0.1-0.4-0.2c1.2-0.5,2.1-0.3,3.1,0.2c0.6,0.3,1.1,0.6,1.7,0.9c0.2,0.1,4.2-1.1,4.3-1.3
		c0.1-0.7-0.2-1.3-0.6-1.9c-0.3-0.6-1-1.2,0.5-1.1c1,0,1.2-1.4,2.2-2.1c-0.3,1.3-1.6,2.1-1.1,3.4c0.5,1.3,1.9,1.2,2.7,2
		c0,0.5-0.5,0.3-0.7,0.6c-0.4,0.5-0.7,1.6-0.5,1.7c0.7,0.5,1.6,0.9,2.5,1c1.1,0.1,2.1,0.3,3.1,0.7c-1.2-0.1-0.8,0.7-0.7,1.2
		c0.3,0.8,1,0.5,1.6,0.3C456.5,307.7,456.1,307.3,455.7,306.9z M430.2,317.9c0-1.9,0-1.9-1.9-1.8c0,0-0.1,0-0.1,0
		c-1.2-0.2-1.2,0.5-1,1.2c0.5,1.7,1.2,3.3,2.1,4.8c0.2,0.3,0.3,0.5,0.7,0.4c0.3-0.1,0.2-0.4,0.2-0.6
		C430.2,320.5,430.2,319.2,430.2,317.9z M465,279.5c-0.5-0.1-0.6,0.2-0.7,0.5c-0.9,1.8-1.4,3.9-3.1,5.3c-0.4,0.4-0.5,1.4,0.5,1.8
		c0.9,0.4,1-0.5,1.3-1c0.5-0.9,0.9-1.9,1.3-2.9C464.7,282,465.3,280.9,465,279.5z M436.8,328.4c-0.8,1.9-1,3.6-0.8,5.3
		c0.1,0.9,1,0.8,1.6,0.5c0.4-0.2,1.4,0,1.1-0.9C438.3,331.8,437.6,330.3,436.8,328.4z M427.8,326.3c-0.3,2.2-0.5,4.3-0.5,6.5
		c0,0.5,0.2,0.7,0.6,0.8c0.7,0.1,1.4,0.2,2.2,0.3c0.2,0,0.4,0.1,0.5-0.2c0-0.1,0-0.3-0.1-0.4c-1.9-1-1.6-3-2-4.7
		C428.4,327.9,428.7,327,427.8,326.3z M424.6,317.4c0.1-0.9-0.2-1.1-0.9-1.1c-0.5,0-0.9,0.2-0.8,0.7c0.2,0.9,0.2,2.2,1.2,2.2
		C424.8,319.2,424.2,317.9,424.6,317.4z M440.8,327.7c-0.7-0.7-0.9-1.2-0.3-1.7c0.2-0.2,0.2-0.5,0-0.8c-0.1-0.1-0.4-0.1-0.4,0
		c-0.4,0.9-2.2,1.2-1.3,2.8C439.3,327.4,439.9,327.6,440.8,327.7z M456.6,286c-0.1-1.2-0.3-2.3-1.7-3
		C454.9,284.5,455.6,285.3,456.6,286z M474.6,281.5c0.1,0,0.3,0,0.4,0c0.2-1.2-0.1-2.2-0.7-3.2c-0.1,0-0.2,0-0.4,0.1
		C474.2,279.4,474.4,280.4,474.6,281.5z"/>
	<path d="M447.2,347c-0.1,0.7,0.6,0.9,0.3,1.2c-0.3,0.4-0.6,0.1-0.7-0.3c-0.1-0.2-0.4-0.3-0.5-0.2c-0.7,1.1-2,0.4-2.8,1
		c-0.7,0.5-1.5,0.2-2.1,0.2c-1.2-0.1-2.2,0.9-3.4,0.3c-0.6-0.3-0.9,0.6-1.4,0.6c-0.5-0.4,0.1-0.9-0.3-1.4c-0.4,0.3-0.8,0.7-1.4,0.1
		c-0.5-0.5-1.1,0-1.4,1c-0.3-1.7-1.6-1.5-2.4-2c-1-0.8-2.3-1.3-3.2-2.3c-0.6-0.7-1.3-1.6-2.4-0.5c-0.2,0.2-0.4,0-0.5-0.2
		c-0.2-0.5-0.7-0.5-1.2-0.6c0.6-0.8,1.2-1.4,2-1.9c0.9-0.6,1-1,0.2-2.1c-1.3-1.6-3-2.9-4.2-4.6c-0.4-0.5-0.7-0.3-1.1-0.2
		c-2.2,0.6-3.9,2.2-5.7,3.4c-0.6,0.4-1.2,1-2,1.1c1.2-1.7,4.9-4.4,6.7-4.9c1.5-0.4,2.5-1.2,2.6-2.8c0.1-0.8,0.5-1.3,1.2-1.8
		c0,1,0,2,0,3c-0.1,2.7,0.4,3.4,3,4.3c0.7,0.3,1.5,0.4,2.2,0.7c0.3,0.1,0.9,0.2,0.7,0.7c-0.1,0.5-0.6,0.4-1,0.3
		c-0.4-0.1-0.9-0.4-1.5,0c0.6,1.1,1.4,1.9,2.3,2.7c1.1,0.9,2.3,1.8,3.5,2.6c1.5,1.1,3.1,1.1,4.9,0.5c0.9-0.3,2,0.2,2.8,0.6
		c2.8,1.4,5.2,0.9,7.6-0.9c1.1-0.8,2.3-1.6,3.5-2.4c1.1-0.8,1.7-2,1.5-3.4c-0.1-0.7-0.1-1.3-0.2-2.4c0.8,1.1,1.3,1.9,1.5,2.9
		c0.1,0.3,0,0.9,0.6,0.8c0.4,0,0.5-0.5,0.5-0.8c0-1.8,0.6-3.6,0.8-5.4c0.1-1.1-0.8-0.7-1.7-0.7c1.2-0.9,0.7-1.7,0.7-2.6
		c0.2,1.3,1.7,1.9,1.6,3.5c0,0.7-0.8,2,1,2.1c-0.3,0.5-1.9,0.5-0.6,1.4c0.2,0.1,0.2,0.4,0,0.5c-1.1,0.3-0.5,0.6-0.3,1.3
		c0.3,0.7-0.3,2,0.5,2.2c1.5,0.6,3.2,1.2,4.9,1c0.2,0,0.5-0.2,0.7-0.2c5.9,0.1,8.7-3.9,11.3-8.3c0.1-0.2,0.2-0.3,0.4-0.5
		c0.2,0.8-0.3,1.2-0.6,1.6c-1.9,2.8-3.2,5.9-5.8,8.1c-0.9,0.7-1.7,1.5-2.9,1.8c-0.7,0.1-1.1,1.2-2,0.5c-0.2-0.2-0.6,0.2-0.8,0.6
		c-0.2,0.3-0.3,0.5-0.8,0.3c-1-0.5-2,0.8-3.1,0c-0.3-0.2-0.4,0.4-0.5,0.7c-0.1,0.4,0.1,0.6,0.4,0.6c0.4,0.1,0.9,0.2,1.3,0.2
		c0.8-0.1,1.5-0.9,2.5-0.1c0.4,0.4,0.8-0.5,1-1.2c0.2,1.5,1.2,1.1,2,1.3c0.5-0.4-0.5-0.9,0.1-1.4c0.3,0.8,1.3,0.8,1.6,1.3
		c0.9,1.1,1.5-1.3,2.5,0.1c0.6,0.9,1.8,0.2,2.7-0.1c0.5-0.2,1-0.6,1.7-0.3c-0.1,0.6-0.6,0.9-1.1,0.9c-1.6,0.3-3.1,0.6-4.7,0.6
		c-2.2,0.1-4.4,0.1-6.6-0.4c-0.7-0.2-1.6-0.1-2.3,0.2c-1.7,0.6-2.3-1.1-3.6-1.5c-0.3-0.1,0.1-0.5,0.3-0.6c0.2-0.2,0.5-0.3,0.3-0.6
		c-0.1-0.2-0.6-0.3-0.6-0.2c-1,1-1.6-0.1-2.4-0.4c-0.9-0.3-2.4,0.1-2.7,1c-0.1,0.2-0.1,0.7-0.3,0.5
		C449.1,346.1,448.3,347.9,447.2,347z"/>
	<path d="M467.9,314.7c0.1,0.7-0.1,1.8,1.2,1.8c0.2,0,0.2,0.3,0.1,0.5c-0.1,0.2-0.3,0.2-0.5,0c-0.1-0.1-0.1-0.2-0.2-0.2
		c-0.4-0.3-0.9,0.1-0.8,0.2c0.7,2.1-3,0.3-2,2.7c-0.8-0.5-1.5-0.6-2.1,0c-0.5,0.4,0.6,0.6,0.1,1.2c-0.7-1-1.9-0.6-2.6-0.4
		c-0.8,0.2-1.1,1.6-2.4,1.4c0,0.2,0,0.4,0,0.5c0,0.2,0.1,0.4,0.1,0.6c-1.3-0.4-1.3,1.3-2,1.3c-1.3,0.1-1.3,0.8-1.5,1.7
		c-0.1,0.4,0.1,0.9-0.5,1.1c-0.1-0.1-0.2-0.3-0.2-0.4c0.5-1,0.4-1.4-0.9-1.3c-0.5,0-1.7,0.2-0.9-1.1c0.2-0.3-0.1-0.5-0.4-0.7
		c-0.2-0.1-0.5-0.5-0.4-0.5c1.7-0.4-0.3-1.3,0.3-1.9c0.7-0.1,0.6,0.7,1.1,0.8c0.7-0.3,0-1.5,1.1-1.5c0.4,0.3-0.2,0.6,0,0.9
		c0.2,0.4,0.5,0.6,0.8,0.2c0.9-1.4,2.7-2.2,2.8-4.1c0-0.3,0.2-0.8,0.6-1c0.2,1-0.8,1.8-0.4,2.8c0.6-0.4,0.6-0.4,1.5-2.1
		c0.4,0.3-0.1,0.9,0.4,1c0.4,0,0.6-0.4,0.8-0.7c0.4-0.7,0.5-1.8,1.8-1.2c0.3,0.1,0.7-0.4,0.8-0.7c0.4-1.3,1.4-0.7,2.3-0.8
		c0.2,0,0.4,0,0.4,0.3c0,0.3-0.8,0.6-0.1,0.9c0.6,0.2,1-0.2,1.2-0.8C467.5,314.8,467.6,314.7,467.9,314.7z"/>
	<path d="M452.8,401.3c0,0.9,0.3,0.9,1.3,1.1c1.3,0.2,2.6,0.3,4,0.4c1.7,0.2,3.5,0.6,5.1-0.6c0.3-0.3,0.6-0.2,1-0.1
		c1.5,0.2,2.8-0.7,3.9-1.6c0.6-0.5,1.1-1,1.9-1.6c-0.2,0.9-0.8,1.1-1.1,1.6c-0.2,0.3-0.3,0.7,0,0.9c0.3,0.3,0.5-0.1,0.7-0.2
		c1.5-1.4,3.1-2.8,4.6-4.2c0.2-0.2,0.5-0.4,0.5-0.4c1.7,1.4,1.9-0.6,2.8-1.2c0.2-0.2,0.4-0.7,0.8-0.3c0.4,0.4-0.1,0.6-0.3,0.9
		c-1,1.5-2.4,2.6-3,4.3c-0.1,0.2-0.1,0.4-0.4,0.3c-1.8-0.5-2.2,1.5-3.4,2c-0.2,0.1-0.1,1-0.6,0.7c-0.6-0.3-0.1-0.7,0.2-1
		c0.1-0.1,0.1-0.3,0.2-0.5c-0.9,0.2-1.4,0.8-1.7,1.4c-0.4,0.7-1.5,0.7-1.4,1.7c0,0-0.2,0.1-0.2,0.1c-1.6-1.1-2.6,0.9-4,0.7
		c-1-0.2-1.2,0.3-0.9,1.4c-0.9-1.1-1.7-1.6-2.2,0c-0.1,0.2-0.3,0.2-0.5,0c-0.2-0.2-0.2-0.4-0.1-0.5c0.4-0.4,0.8-0.9,1.2-1.2
		c0.6-0.6,1.1-1.3,2.2-1.1c0.3,0.1,1-0.5,1.1-1.3c-1.2,1.1-3.3,0-4.1,2c-0.1,0.4-0.5,0.3-0.7,0.1c-0.2-0.2-0.2-0.4,0.1-0.6
		c0.2-0.2,0.5-0.2,0.6-0.6c-0.1-0.1-0.2-0.2-0.2-0.2c-1.5,1-3-0.9-4.5,0c-0.3,0.2-0.5-0.3-0.7-0.4c-0.4-0.2-1.1-0.8-1.2,0.4
		c0,0.5-0.4,0.3-0.6,0.2c-0.2-0.1-0.6-0.1-0.5,0.2c0.7,1-0.5,1.4-0.6,2.1c0,0.3-0.2,0.6-0.5,0.5c-0.4-0.2-0.2-0.5-0.1-0.7
		c0.3-0.6,0.4-1.1-0.3-1.5c-0.2-0.1-0.3-0.4-0.1-0.5C452.1,403.3,451.8,402,452.8,401.3z"/>
	<path d="M482.1,609.5c1-0.1,2,2.4,2.8,0c0.4,0.3,0.4,0.6,0.1,0.8c-0.3,0.3-0.2,0.7,0,0.8c1.4,0.4,2.1,2.3,3.4,2.2
		c1,0,1.2-0.1,1.1,0.9c0,0.1,0.4,0.4,0.7,0.5c0.2,0.1,0.5,0.1,0.7,0.2c-0.6,1.6,1.4,1.4,1.8,2.5c0.2,0.7,1.2,1.7,2.6,0.8
		c-0.4,1-0.4,1.8,0.7,1.8c0.3,0,0.6,0.2,0.5,0.6c-0.1,0.3,0,0.7,0.2,0.8c1.9,1,0.8,2.5,0.8,3.9c-0.6,0.1-1.2-1.9-1.7,0.3
		c-0.3-1.9-2.9-4.2-4.4-3.9c0.4-0.8,0.1-1.5-0.4-2.1c-1.7-2.2-3.3-4.5-5.7-6.1C484,612.4,482.9,611.1,482.1,609.5z"/>
	<path d="M474.6,598.1c1.4-0.3,2.7,0,4.2,0.3c1.7,0.4,2.8,1.9,4.6,2.2c0.2,0,0.3,0.2,0.6,0c0.6-0.5,0.6-0.2,0.7,0.4
		c0.1,0.7,1.3,1.4,2.1,1.2c0.2-0.1,0.7,0,0.5,0.2c-0.8,0.8,0.2,1.9-0.4,2.7c-0.2,0.2-1.7,0.4-1.9,0.2c-0.1-0.1-0.1-0.3-0.2-0.4
		c-0.6-0.4-0.5,1.2-1.1,0.4c-0.2-0.3,0.1-1-0.7-1.1c-0.7-0.1-1.3-0.8-2.2-0.3c-0.1,0.1-0.4,0-0.5-0.2
		C479,601.3,475.9,600.7,474.6,598.1z"/>
	<path d="M419.8,423.9c-0.5,1.2-1.4,2.1-2.3,3.1c-0.6,0.7-1.2,0.6-1.8,0.8c-0.6,0.3-2.1,0.4-1.6,2c-0.9-0.7-1.6-2-2.2,0
		c-0.1,0.3-2.7,0.4-2.9,0.1c-0.6-0.7-0.7,0.1-0.9,0.3c-0.4,0.4-0.6,0.8-1,0c-0.4-0.7-2-0.9-2.5-0.3c-0.3,0.3-0.5,0.2-0.7,0
		c-0.7-0.7-1.7-1-2.6-0.5c-1.1,0.6-0.9-1.4-1.9-0.8c-0.5-1-1.5-1.3-2.4-1.7c-0.4-0.2-0.3-0.6-0.1-0.9c0.3-0.4,0.5-1.4,1.2-1
		c2.2,1.4,4.8,1.7,7.1,2.8c3,1.5,5.5,0.7,8.3-0.4c1.6-0.6,2.6-2,4.4-2.2C418.6,425.3,419.2,424.5,419.8,423.9z"/>
	<path d="M447,327.2c2.2,3.1,2,6.2,1.3,9.3c-0.2,1-0.8,1.6-1.7,2c-2.4,1-4.8,1.4-7.4,1c-1.3-0.2-2.7-0.5-4-0.7
		c-0.4-0.1-0.8-0.1-1-0.8c2.5,0.6,4.7-0.3,7-0.5c1.2-0.1,2.3-0.5,3.3-0.9c2.5-1.1,3.7-3.6,3.1-6.3
		C447.4,329.3,447.2,328.4,447,327.2z"/>
	<path d="M459.6,588.8c-0.1,0.3-0.1,0.6-0.4,0.5c-0.9-0.3-2-0.2-2.8-0.4c-1.1-0.3-2-0.4-3.1-0.2c-0.3-1.3-1.4,0.1-1.8-0.6
		c-0.6-0.9-1.6-0.8-2.4-1.1c-0.2-0.1-0.4-0.3-0.4-0.6c0-0.2,0-0.5-0.1-0.6c-1.9-1-0.6-2.8-1.1-4.1c-0.1-0.3-0.1-0.6-0.1-0.9
		c-0.1-0.8-1.1,0.2-1.2-0.6c-0.1-0.9,1,0,1.1-0.6c0-0.1,0-0.3,0-0.3c-1.6-0.1-0.3-1.3-0.7-1.9c-0.2-0.2-0.2-0.5,0-0.6
		c0.2-0.1,0.4,0.1,0.6,0.2c1.4,1.4,1.8,3.2,2.1,5c0.1,0.7,0.4,1.2,0.9,1.7c2.3,2.2,4.6,4.1,8.1,4.1
		C458.8,587.8,459.6,587.9,459.6,588.8z"/>
	<path d="M454.5,414.4c-0.2,0.9-0.6,1-0.8,1.3c-0.3,0.3-0.5,0.6-0.1,1c0.4,0.4,0.7,0.2,1,0c0.9-0.7,1.5-1.7,2.6-2.2
		c0.7-0.3,1.5-0.4,2-1.1c0.1-0.2,0.5,0.3,0.3,0.6c-0.8,0.8-1.2,2.1-2.5,2.5c-0.8,0.2,0.3,0.8-0.3,1.2c-1.3-0.9-2.1,0-2.8,1.1
		c-0.1,0.2-0.3,0.4-0.3,0.4c-0.9-0.6-1.6,0.3-2.4,0.4c-0.2,0-0.3-0.1-0.8-0.4c1.3-0.2,1.3-1.6,2.5-1.6c0.1,0,0.2-0.2,0.2-0.3
		c-0.1-0.2-0.2-0.3-0.4-0.4c-0.4-0.2-0.8,0-1.1,0.3c-0.5,0.4-1.3,0.7-1.3,1.6c-0.7-0.3-1.2-0.2-2,0.2c-0.7,0.3-1.1,0.6-0.9,1.7
		c-0.9-1.1-1.5-1.4-2.3-0.3c-0.2,0.4-1.8,0.6-2.5,0.4c-1.1-0.2-2.1,1-3,0c-0.7,1-1.3,0.2-2,0c-0.6-0.1-1.3-0.5-2.1,0.1
		c-0.6,0.5-0.7-0.8-1.4-0.7C441.5,420.4,448.3,418.7,454.5,414.4z"/>
	<path d="M401.5,419.7c0.7-0.2,0.9-1,1.4-1.3c0.3-0.2,0.2-0.7-0.3-0.9c-1.1-0.6-2.1-1.2-3.2-1.8c-0.6-0.3-1.2-1.2-1.7,0.1
		c-0.1,0.2-0.4,0.2-0.5,0c-0.5-1.3-2.1-1.2-2.9-2.2c-0.4-0.5-0.9-0.4-0.9,0.4c0,0.2-0.2,0.5-0.5,0.4c-0.4-0.1-0.3-0.5-0.1-0.7
		c0.3-0.3,0.3-0.5,0-0.7c-0.2-0.1-0.4-0.1-0.6,0.1c-0.2,0.2-0.4,0.5-0.7,0.3c-0.3-0.2,0-0.5,0-0.8c0.1-0.5,0.4-0.4,0.8-0.3
		c0.5,0.2,1,0.2,1.4,0.4c4.3,1.7,8.6,3.3,12.7,5.4c1.8,0.9,3.8,1.2,5.8,0.9c0.3,0,0.7,0,1,0.1c0.2,0,0.3,0.2,0.3,0.4
		c0,0.2-0.2,0.3-0.4,0.3c-1.9,0-3.7,0.9-5.6,0.9c-1.4,0-2.8,0.6-4.2-0.4c-0.4-0.2-0.8-0.6-1.3-0.1c-0.2,0.2-0.3,0.6-0.7,0.3
		C401.2,420.3,401.4,420,401.5,419.7L401.5,419.7z"/>
	<path d="M456.2,591.3c-0.3,1-0.3,1.7,0.7,1.7c1.1,0,0.9,0.9,1,1.4c0.1,0.5-0.5,1-1,1c-0.8,0-1.2,0.3-1.2,1.3
		c-0.9-1.4-3.7-2.6-4.7-2.1c0.1-1.3-1-2.2-2.4-1.8c-0.2,0.1-0.5,0.1-0.5-0.2c-0.1-1.6-1.5-1.3-2.4-1.6c-0.3-0.1-0.7,0-0.7-0.4
		c0-0.4,0.4-0.3,0.7-0.2c2.9,0.2,5.7,0.8,8.6,0.9c0.1,0,0.3,0.1,0.4,0.1C455.1,592.8,455.6,591.9,456.2,591.3z"/>
	<path d="M393.7,427.2c-0.6,0.5-1.2,0-1.7,0c0.5,2.1,3.1,4.9,5.2,5.9c-2.5-1.1-5.3-1.1-7.4-3.4c-0.9-1-2.1-1.7-2.6-3
		c0-0.1-0.2-0.3-0.2-0.4c0-1.8,0-3.5-1.7-4.7c1.1,0.8,2.7,0.8,3.1,2.4c0,0.1,0.1,0.1,0.2,0.2c0.4,0.2,0.5,0.7,0.3,1.1
		c-0.5,1,0,2.3,0.8,3c0.7,0.6,1.7,0.8,2.1,1.9c0.7-1-0.1-1.8-0.4-1.9c-1.1-0.4-0.8-1.4-1.2-2.1c-0.2-0.4-0.3-0.7,0-1.1
		c0.1-0.1,0.3-0.1,0.4,0c0.4,0.3-0.1,0.7,0.1,1.2C392.2,425.4,392.4,427.5,393.7,427.2z"/>
	<path d="M449.4,398.5c-0.6,2.2-0.2,4.6-1.8,6.8c0.1-1-0.3-1.8,0.2-2.6c0.2-0.3,0.2-0.8-0.3-1c-0.6-0.2-0.4,0.3-0.6,0.6
		c-0.4,0.8-1,1.5-1.7,2.2c1.3-1.5-0.5-2.9,0.1-4.5c0.5-1.4,1-2.8,1.8-4.1c0.6,0.9-0.5,1.6-0.2,2.4c1.3-0.9,1.1-2.6,2.2-3.6
		c-0.5,1.6-1,3.1-1.5,4.7c-0.1,0.4-0.6,1.1,0.2,1.3c0.9,0.3,0.7-0.5,0.9-1C448.8,399.4,448.9,398.8,449.4,398.5z"/>
	<path d="M435.9,350.8c0.4,0.4,1,0.8,1.6-0.3c0.2-0.3,0.5-0.3,0.7-0.1c0.4,0.2,0.8,0.3,1.1,0c1-1.1,1,0,1.5,0.5
		c-0.7,0.1-1.3,0.3-1.8,0.4c-2.9,0.2-4.9,2.1-6.5,4.2c-1.1,1.5-2.5,2.4-4.4,3.1C430.4,355.6,433.3,353.4,435.9,350.8z"/>
	<path d="M393.9,416.2c-0.1,0.1-0.1,0.2-0.2,0.3c-1.2,0.5-0.3,0.9,0,1.3c0.2,0.2,0.7,0.4,0.3,0.8c-0.3,0.3-0.5-0.2-0.6-0.3
		c-2.7-2.8-5.8-4.9-9.2-6.7c-0.7-0.3-2-0.8-1.7-1.4c0.5-0.9,0.8,0.6,1.5,0.7c1,0.1,1.9,1.1,2.9,1.5c0.5,0.2,0.9,0.7,1.4,0
		c0-0.1,0.3-0.1,0.4-0.1c0.1,0.8,1.2,0.9,1.2,1c0.8,1.5,2.5,1.5,3.5,2.5C393.6,415.9,393.8,415.9,393.9,416.2z"/>
	<path d="M489.4,369.9c0.3,1.3,0.1,2.7,1,3.8c0.1,0.1,0,0.4,0,0.4c-1.1,0.4-1.1,1.6-1.6,2.4c-0.3,0.5-0.7,0.1-1,0.2
		c-0.6,0.3,0.7,1-0.3,1.3c-0.6,0.1-0.8-1.1-1-0.7c-0.6,1.4-2.2,0.2-2.9,1.3c-0.1,0.2-0.3,0.2-0.5,0c-0.2-0.2-0.2-0.5,0.1-0.6
		c0.4-0.3,0.8-0.7,1.3-0.8c3.1-1.1,4.6-3.4,4.9-6.7C489.4,370.2,489.4,370.1,489.4,369.9z"/>
	<path d="M312.5,220.6c-0.6,1.5,0.8,2.6,2.5,2.1c0.7-0.2,1.4-0.6,2.2-0.9c-0.3,1-1.1,0.8-1.6,1.2c-0.3,0.2-1,0.3-0.8,0.8
		c0.3,0.5,0.8,1.1,1.3,1.2c0.6,0.2,0.4-0.6,0.5-1c0.1-0.1,0.1-0.3,0.3-0.7c0.3,1.2-0.6,2.2,0.4,2.9c0.2,0.2-0.3,0.5-0.5,0.4
		c-0.3-0.1-0.6-0.2-0.9-0.5c-1.5-1.2-3.4-1.8-4.3-3.7c-0.3-0.6-1.8,0-1.1-1.3c0.4-0.8,1.3-0.1,1.8-0.7
		C312.2,220.6,312.4,220.6,312.5,220.6z"/>
	<path d="M461,353.5c-4.4-0.3-8.4-3-13-2c1.2-0.1,2.2-1.1,3.5-0.5c0.7,0.3,1.2-0.1,1.4-0.9c0.9,1.1,1.9,1.6,3.1,1
		c0.1-0.1,0.3-0.2,0.4-0.1c0.7,1.3,1.1,0.5,1.6-0.2c0.3-0.4,0.5,0,0.8,0.2C459.7,351.7,459.8,353,461,353.5z"/>
	<path d="M429.9,300.4c0.7-0.1,0.9,0.3,1,0.9c0.1,1.5-1.7,3.1-3.1,2.4c-0.7-0.3-0.7,0-0.9,0.4c-0.3,0.7-0.7,1.3-1.4,1.6
		c-0.2,0.1-0.5,0-0.6-0.3c-0.1-0.3,0.1-0.3,0.3-0.4c0.9-0.2,1-1.1,1.3-1.8C427.4,301.2,428.4,300.3,429.9,300.4z"/>
	<path d="M454.4,303.6c1-0.2,1.7,0.2,2.4,0.7c0.2,0.2,0.5,0.4,0.6,0.6c1.8,2.4,3.9,3.4,6.7,1.3c-1.1,1.1-2.2,2-3.5,2.4
		c-0.7,0.3-1.3,0.1-2-0.6C457.3,306.5,456.5,304.4,454.4,303.6z"/>
	<path d="M442.2,363.3c3.7-2.5,7.7-4,12.3-3.7C450.3,360.4,446.4,362.4,442.2,363.3z"/>
	<path d="M403.5,430.8c-0.4,0.7-0.1,1.3,0.3,1.8c0.6,0.6-0.3,1.2-0.1,1.9c0,0.1-0.3,0.4-0.4,0.2c-1-1.2-1.3-0.4-1.7,0.5
		c0,0.1-0.2,0.1-0.3,0.1c-0.3-1-1.7-0.4-2.1-1.5c1.2,0.2,2.2-0.2,3.2-0.5c0.8-0.2,0.7-0.3,0.2-0.9c-0.9-0.9-2.2-1.2-3.2-2.1
		C400.9,430.1,401.9,432.4,403.5,430.8z"/>
	<path d="M473.5,602.7c0,0.4-1.9,1.4-2.2,1.5c-1.4,0.3-1.8-1.2-2.7-1.7c-0.4-0.2-0.5-0.5-1-0.1c-0.2,0.2-0.6,0.1-0.6-0.3
		c0-0.3,0.3-0.8,0.6-0.6c1.6,1.3,3.5,0.8,5.3,0.7C473.4,602.2,473.5,602.4,473.5,602.7z"/>
	<path d="M445.7,365.3c3.9-2.2,7.9-3.9,12.4-4.3C453.9,362.3,449.8,363.9,445.7,365.3z"/>
	<path d="M481.6,388.6c0.1-0.4,0.3-0.9,0.4-1.3c0.1-0.7,0.1-1.3-1-1.4c-0.8-0.1-1.6-0.5-2.4-0.7c-0.4-0.1-0.6-0.4-0.4-0.8
		c0.2-0.5,0.5-0.3,0.8,0c0.8,0.7,1.3,0.4,1.6-0.8c0.5,0.6,0.3,1.7,1.4,1.1c0.5-0.2,0.9,0.5,1.3,0.8c0.8,0.7-0.3,0.6-0.4,0.9
		c-0.1,0.4-0.2,0.8-0.5,1.2c-0.3,0.3-0.4,0.6-0.6,0.9C481.8,388.6,481.7,388.6,481.6,388.6z"/>
	<path d="M306.9,216.7c-0.9,3.9,0.7,7,2.5,10.2C306.6,226.7,305.6,220.9,306.9,216.7z"/>
	<path d="M457.6,412.1c-1.6-2.1-4-3.1-6-4.6c0.8-0.4,1.6,0.8,2.4,0c0.2,0.7,1,0.7,1.3,1.1c0.7,0.7,1.6,1.1,2.3,1.6
		C458.4,410.8,457.5,411.5,457.6,412.1z"/>
	<path d="M451.2,398.4c0.1,1.1-1.2,2.2,0.1,3.4c-0.5,0.4-0.8,1.1-1.1,1.7c-0.4,0.8-0.4,1.3,1,1.8c-1.4,0.1-1.7,0.9-2.1,1.6
		C448.6,403.7,450.3,401.1,451.2,398.4z"/>
	<path d="M384.4,420.1c0.1-1.5-1.3-1.1-2.1-1.8c1.2-0.1,2.1,0.4,3,0.5c1.6,0.2,3.2,0.5,4.9,0.7c0.3,0,0.7,0,0.8,0.3
		c0.1,0.4-0.2,0.5-0.5,0.6c-0.5,0.1-0.2,0.7-0.5,0.9C388.9,419.9,385.9,419.1,384.4,420.1z"/>
	<path d="M316.7,231.5c0.5-1.7-0.3-2.1-1.7-2.1c-0.9,0-1.9-0.3-2.8-1.1c1.7,0.4,3.1-0.1,4.5-0.3c0.4-0.1,0.9-0.2,1.2,0.2
		c0.3,0.4-0.1,0.7-0.4,1C316.9,229.8,317.4,230.8,316.7,231.5z"/>
	<path d="M485,653.4c0.1-1.1,1.4-1,1.7-1.8c0.1-0.3,0.7-0.4,0.4-0.9c-0.6-1,0.4-0.7,0.7-0.9c0.6-0.4,1,0.2,1.3,0.5
		c0.3,0.3-0.3,0.3-0.4,0.5c-0.4,0.8-2.2,0.8-1.5,2.4c0.1,0.2-0.3,0.4-0.4,0.3C486.3,652.9,485.7,653.5,485,653.4z"/>
	<path d="M317,236.7c0.4,2.4,0.4,2.4-0.6,4.4c-0.4-1.8-2.6-1.1-3.3-2.4C316.2,239.2,316.8,238.9,317,236.7z"/>
	<path d="M459.3,601.1c0.7,0.1,1.2,0.1,1.7,0.1c0.2,0,0.5,0.2,0.4,0.2c-0.8,0.4,0.5,1.8-0.9,2c-0.6,0.1-0.5,1.3-1.4,1.4
		C459.1,603.6,459.9,602.5,459.3,601.1z"/>
	<path d="M401.6,419.7c-0.4,0-1,0-1.2,0.4c-0.7,1.7-2.3,1.8-3.7,2.4c-0.2,0.1-0.5,0.2-0.6-0.1c-0.1-0.2,0.1-0.4,0.3-0.4
		c0.5,0,0.7-0.2,0.6-0.7c-0.1-0.3,0.3-0.6,0.5-0.4c1.4,1.1,2-0.4,2.4-1C400.6,418.7,401,419.3,401.6,419.7
		C401.5,419.7,401.6,419.7,401.6,419.7z"/>
	<path d="M312.1,233.6c1,0.3,2,0.1,3,0.2c0.6,0,1.1,0.1,1.1,0.8c0,0.9-0.7,0.6-1.2,0.6C314,234.9,312.7,234.9,312.1,233.6
		L312.1,233.6z"/>
	<path d="M311.8,209.2c-1.5,0.6-3.2,0.5-4.6,1.6c-0.4,0.3-0.8,0.1-1-0.3c-0.2-0.4,0.2-0.5,0.6-0.7
		C308.4,209.2,310.1,209,311.8,209.2z"/>
	<path d="M314.5,211.3c0.5-0.5,0.9-1,0.5-1.8c2.6,0.8,2.6,0.8,1.2,2.9c-0.7-0.1-0.2-0.7-0.5-1C315.3,211.1,315,211.5,314.5,211.3z"
		/>
	<path d="M389.4,406.1c2.3,0.8,4,2.6,5.7,4.1C392.7,409.5,391.3,407.4,389.4,406.1z"/>
	<path d="M308.6,236.1c1.3,0.7,2.5,1.4,4.1,2.3c-1.4-0.4-2.2-0.5-2,1C309.9,238.3,309.3,237.2,308.6,236.1z"/>
	<path d="M446.4,370.7c2-1.1,4-2.2,6.2-2.7C450.6,368.9,448.7,370.3,446.4,370.7z"/>
	<path d="M312.2,233.6c-0.8,0.2-1.3-0.3-1.8-0.7c-1.1-0.9-1.7-2.2-2.4-3.4C309.8,230.5,310.3,232.7,312.2,233.6
		C312.1,233.6,312.2,233.6,312.2,233.6z"/>
	<path d="M313.1,242.8c0.8,0,1.6,0,2.5,0c0.4,0,0.9,0,0.7,0.6c-0.1,0.3-0.1,0.9-0.8,0.9C314.4,244.2,313.7,243.7,313.1,242.8z"/>
	<path d="M307.4,213.3c1.1,1.7,2.1,0.5,3.3,0.2c-0.3,0.3-0.5,0.7-0.9,1c-0.6,0.4-0.8,1.5-1.7,1.1
		C307.4,215.2,307.5,214.3,307.4,213.3z"/>
	<path d="M460.6,588.9c0.6,0.4,0.8,0.9,1.3,1.1c0.3,0.1,0.5,2.4,0.3,2.5c-0.1,0.1-0.2,0.1-0.3,0.1c-0.4-0.1-0.4-0.4-0.4-0.7
		c-0.1-0.5,0.3-1.3-0.8-0.9c-0.3,0.1-0.5-0.4-0.2-0.6C461,589.9,460.5,589.5,460.6,588.9z"/>
	<path d="M456.2,288.7c0.9,1.1,0.3,3.4,2.6,2.7c-0.9,1-1.2,1.3-1.4,1c-0.4-0.5-1.3-0.7-1-1.7C456.5,290.1,456.3,289.5,456.2,288.7z"
		/>
	<path d="M480.2,309.5c-0.3,1.2-1.6,1.3-2.4,1.8c-0.5,0.3-1-0.2-1.5-0.8C477.7,310.4,479,310.2,480.2,309.5z"/>
	<path d="M448.9,366.5c1.6-1.2,3.6-1.7,5.5-2.2C452.7,365.4,450.7,365.8,448.9,366.5z"/>
	<path d="M468.3,303.4c-1.1-1.1-1.4-2.2-1.4-3.8C467.6,300.9,468.7,301.7,468.3,303.4z"/>
	<path d="M311.9,216.9c-0.6,0.7-1.1,1.5-1.9,1.9c-0.3,0.1-0.5,0.7-0.8,0.3c-0.3-0.4-0.1-0.8,0.3-1.1
		C310.2,217.3,311,217.1,311.9,216.9z"/>
	<path d="M464.3,300.6c1,0.5,1.5,1.4,1.7,2.5c0.1,0.3,0.1,0.6-0.3,0.7c-0.3,0.1-0.6-0.1-0.6-0.4
		C465.1,302.4,464.7,301.5,464.3,300.6z"/>
	<path d="M470.5,301.1c-1.4-1-1.5-2.1-1.8-3.4C469.8,298.5,470.4,299.5,470.5,301.1z"/>
	<path d="M475.4,291.7c-1.5,0.5-3,1.4-4.7,1.2C472.1,292.1,473.7,291.9,475.4,291.7z"/>
	<path d="M314.4,215.5c0.1-0.5,0.5-0.7,0.8-1c0.4-0.3,0.3-0.8,0.5-1.2C316.8,214.9,316.5,215.3,314.4,215.5z"/>
	<path d="M458.5,295.6c-0.6-0.3-1.1-0.7-1.7-1c-0.6-0.3-1.2-0.5-1.9-0.8C456.3,293.6,457.4,294.1,458.5,295.6z"/>
	<path d="M315,218.8c1.3-0.8,1.9-1.4,2-2.6C317.4,218,317.2,218.3,315,218.8z"/>
	<path d="M458.2,328c-1.1-0.8,0.1-1.7-0.3-2.5c0.2-0.1,0.3-0.3,0.5-0.2c0.4,0,0.3,0.3,0.2,0.5C458.5,326.5,458.4,327.2,458.2,328z"
		/>
	<path d="M468.8,291.2c-0.1-1,0.3-1.9,1.1-2.6C469.7,289.4,469.6,290.4,468.8,291.2z"/>
	<path d="M432,465.9c0.8,1.1,1.1,2.4,0.7,3.6c-0.3,0.9-1.5,2-1.8,2c-1.1-0.1-1.3,0.2-1.2,1.2c0,0.3-0.2,0.4-0.5,0.5
		c-0.6,0.1-1.1,0.3-1.2,1c0,0.1-0.2,0.3-0.2,0.3c-1.4-0.5-1.4,0.4-1.4,1.3c0,0.1-0.2,0.2-0.3,0.2c-0.2,0-0.4-0.2-0.3-0.4
		c0.2-0.5,0.2-1-0.5-1c-0.7,0-0.7,0.5-0.3,1c0.1,0.2,0,0.4-0.2,0.4c-0.1,0-0.3-0.1-0.3-0.2c-0.1-1.4-0.9-1.4-2.1-1.2
		c-0.4,0.1-1.1,0.1-0.9-1c0.2-0.7,0.2-2.1-1.2-2.2c-0.1,0-0.2-0.2-0.3-0.3c1.2-0.5-0.4-1.5,0.5-2.1c0.6-0.4-0.2-1-0.2-1.6
		c0.1-1.4,0.1-2.8-0.1-4.3c0-0.4-0.1-0.9-0.6-0.9c-0.6,0.1-0.2,0.7-0.3,0.9c-0.7,0.9-1.4,1.7-2.3,2.4c-0.2,0.2-1-0.3-1.5-0.6
		c-0.3-0.2-0.2-0.5,0.2-0.6c0.4-0.1,0.8,0,1.2-0.1c0.3,0,0.4-0.3,0.3-0.5c0-0.2-0.1-0.4-0.4-0.4c-1.4-0.2-2.6,1.5-2.1,2.9
		c0,0.1,0,0.2,0,0.3c-0.5,0.3-1.1-0.6-1.5,0.2c-0.1,0.2-0.5-0.1-0.6-0.4c-0.1-0.3,0.2-0.5,0.4-0.4c0.7,0.1,1-0.3,1.1-0.8
		c0.1-0.3,0.2-0.6-0.1-0.8c-0.3-0.2-0.6,0-0.6,0.4c-0.1,0.3-0.2,0.6-0.6,0.3c-0.2-0.2-0.1-0.4,0-0.7c0.2-0.8,0.4-1.3,1.2-1.9
		c0.8-0.6,0-2.1,1.1-2.8c0,0,0-0.2,0-0.2c-0.3-0.2-1-0.3-0.5-0.7c0.4-0.3,1.2-0.4,1.6-0.2c1.1,0.7-0.3,0.7-0.4,1.3
		c0.4,0.2,0.8,0.7,1.2,0.3c0.5-0.6,0.9-1.4,0.8-2.2c0-0.3-0.4-0.7,0.2-0.8c0.6-0.1,0.6,0.4,0.4,0.8c-0.1,0.3-0.3,0.6,0.1,0.7
		c0.4,0.1,0.6-0.3,0.6-0.6c0-0.8,1.2-1.4,0.1-2.5c2,1,1.4-0.9,1.9-1.4c0.4,0.2,0.4,0.4,0.2,0.6c-0.2,0.3-0.4,0.6,0.1,0.8
		c0.3,0.1,0.6-0.2,0.6-0.4c0-0.7,1.7-1.1,0.4-2.1c-0.2-0.1,0.2-0.4,0.4-0.3c1.5,0.3,1.7,0.1,1.3-1.4c0.5-0.4,1,0.6,1.5-0.1
		c0.4-0.6-0.2-1,0-1.5c1,0.2,2.2,0.7,1.5-1.1c-0.1-0.3,0.1-0.5,0.4-0.4c1.3,0.6,1.8-0.6,2.6-1.1c0.2-0.2,0.4-0.5,0.7-0.2
		c0.4,0.3,0,0.5-0.3,0.6c-1.4,0.8-2.5,2-3.4,3.3c-1.4,2-2.8,4-3.4,6.6c-0.4,1.6-0.7,3.4-1.3,5c-0.3,0.8,0,1.5,0.2,1.9
		c0.8,1.7,0.5,3.4,0.5,5.1c0,0.3-0.1,0.8,0.4,0.8c0.4,0.1,0.5-0.3,0.6-0.7c0.1-0.6,0.2-1.2,0.4-1.8c0.1,1,0,2.1,0.4,3.1
		c0.1,0.3,0.2,0.6,0.5,0.6c0.3,0,0.4-0.4,0.4-0.7c0.1-1.1,0.2-2.2,0.4-3.3c0-0.2,0.1-0.3,0.4-0.7c0.1,1.2,0.1,2.2,0.5,3.1
		c0.2,0.3,0.2,0.8,0.7,0.8c0.6,0,0.4-0.6,0.4-0.9c0-0.8,0-1.5,0.3-2.3c0.1,0.6,0.3,1.2,0.4,1.8c0.1,0.6,0.2,1.1,1,0.9
		c0.7-0.2,0.5-0.7,0.4-1.1c-0.1-0.7-0.2-1.3,0.2-2c0.6,0.5,0.5,1.1,0.5,1.7c0.1,0.6,0.2,1.2,0.9,1.1c0.7-0.1,0.9-0.6,0.7-1.3
		C432.1,467.4,432.2,466.6,432,465.9z M415.9,460.9c0-0.4-0.3-0.7-0.5-0.6c-0.9,0.3-0.5,1.3-1,1.9c-0.1,0.1,0.1,0.4,0.3,0.3
		C415.6,462.4,415.4,461.4,415.9,460.9z"/>
	<path d="M407.2,578.9c0.7,0.7,0.8,1.4,0.8,2.4c0,0.9,0.8,1.6,0.6,2.6c-0.1,0.3,0.5,0.6,0.8,0.7c0.6,0,0.7-0.6,1.1-1.2
		c0.2,1.2,1,1.8,1,2.9c0,0.4,0.3,0.8,0.8,0.7c0.5-0.2,0.3-0.6,0.2-1c-0.3-1.1-0.7-2.2-0.8-3.4c0.4,1,0.9,2.1,1.3,3.1
		c0.2,0.6,0.4,1.3,1.2,1.1c0.9-0.1,0.3-0.9,0.6-1.6c0.4,1,1,1.3,1.8,0.9c0.8-0.4,1.4-1.2,2.5-1.2c0.4,0,0.4-1,0.1-1.5
		c-0.4-0.9-0.8-1.7-1.1-2.6c0.8,0.6,1.1,1.6,1.6,2.4c0.2,0.3,0.3,0.5,0.9,0.4c1.5-0.2,1.3-0.7,0.6-1.6c-0.4-0.5-0.5-1.1-0.6-1.8
		c0.4,0.5,0.9,0.9,1.2,1.4c0.3,0.5,0.5,1.2,1.2,0.9c0.9-0.3,1.2-1.7,0.8-2.5c-0.2-0.5-0.8-0.7-1-1.4c0.4,0.1,1-0.4,1.1,0.4
		c0.1,0.4,0.2,0.7,0.6,0.5c0.3-0.1,0.4-0.4,0.3-0.7c-0.3-0.6-0.3-1,0.5-1.2c0.4-0.1,0.6-0.4,0.4-0.8c-0.4-0.6-0.1-1,0.5-1.2
		c0.1-0.1,0.3-0.2,0.3-0.3c-0.4-0.9,0.4-1.6,0.5-2.4c0.1-0.9,0.8-5.1,1.3-6.1c1.2,1.8,1.1,3.9,2.1,5.6c-0.1,0-0.1,0-0.2-0.1
		c-0.4-0.4-0.1-1.5-0.9-1.2c-0.7,0.2-0.4,0.9-0.1,1.4c0.1,0.2,0.1,0.4-0.2,0.5c-1.3,0.2-0.8,0.9-0.4,1.5c0.1,0.1,0.1,0.5,0,0.5
		c-1.1,0.3-1.2,1-0.6,1.9c0,0-0.1,0.3-0.3,0.3c-1.4,0.6-2.4,2-2.2,3.2c0.1,0.7,0.8-0.1,1.1,0.5c-0.1,0.6-1,0.1-1.3,0.8
		c-0.3,0.9,0.4,0.9,0.7,1.5c-1-0.1-1.2,0.6-1.6,1.2c-0.4,0.7-0.7,1.6-1.3,2.3c-0.5,0.5,0,1.6-1.4,1c-0.6-0.2,0.3,0.7-0.2,1
		c-0.6-0.5-1.2-0.9-1,0.5c0,0.2-1.6,1-1.8,0.9c-0.3-0.2-0.5-0.9-0.8-0.2c-0.2,0.4-0.3,1.2,0.2,1.5c0.7,0.4,0.5,1.2,1,1.7
		c0.2,0.2,0.2,0.5-0.2,0.6c-0.2,0.1-0.4-0.1-0.4-0.3c-0.2-1.2-1.2-1.8-1.9-2.7c-0.3-0.4-0.3-1-1.1-0.5c-0.6,0.3-0.7,0.7-0.4,1.3
		c0.1,0.1,0.1,0.3,0.3,0.8c-1.2-1-1.2-2.5-2.1-3.2c-0.8-0.7-2-0.8-3.2-1.3c-0.1,1,0.8,1.5,0.7,2.5c-0.9-0.6-1-1.6-1.5-2.3
		c-0.3-0.3-0.3-1.1-0.9-1c-0.6,0.1-0.2,0.8-0.4,1.3c-0.6-0.6-0.7-1.4-1.2-2c-0.8-1-0.9,0.7-1.7,0.3c-0.1-0.3,0.2-0.6,0.4-0.8
		c0.6-0.7,0.6-1.4,0-2c-0.6-0.7-0.8,0.5-1.5,0.5c0.4-0.9,1.7-1.4,1-2.7c-0.4-0.8-0.7-1-1.3-0.3c-0.4,0.4-0.8,0.8-1.3,1.2
		c1.2-2.8,3.5-4.5,5.8-6.6C408,577,406.6,577.6,407.2,578.9c-0.3-0.1-0.5-0.6-0.9-0.1c-0.4,0.5-1.1,0.8-0.8,1.5
		c0.2,0.4,0.1,1.2,0.7,1.1c0.6-0.1,1-0.6,1-1.2C407.2,579.8,406.9,579.3,407.2,578.9z M406.7,584c1.4-0.6,0.9-1.5,0.6-2.5
		C406,582.1,406,582.9,406.7,584z M410.1,584.8c-0.4,0.2-0.7,0.5-0.7,1c0,0.6,0.4,0.7,0.8,0.7c0.5,0,0.7-0.3,0.6-0.7
		C410.7,585.3,410.7,584.8,410.1,584.8z"/>
	<path d="M455.4,493.9c-0.1,0.3-0.2,0.7-0.2,1c0.1,0.5-0.6,1-0.1,1.3c0.6,0.4,1.1-0.2,1.5-0.5c2.4-1.8,4.8-3.5,6.7-5.9
		c-0.2,0.9-0.3,1.6-1.1,2.4c-1,0.9-1.2,2.4-1.6,3.8c-0.1,0.5-0.3,0.8-0.7,1.1c-0.5,0.2-0.9,0.6-1.1,1.1c-0.5,2-2.2,2.5-3.9,3
		c-0.1,0.5,0.5,1.1,0.2,1.7c-0.6,0.2-0.7-0.8-1.3-0.5c-0.6,0.3,0.3,0.8-0.1,1.2c-0.5,0.2-0.6-0.7-1.2-0.4c-0.7,0.3,0.3,0.8-0.3,1.2
		c-0.4-0.1-0.7-1.1-1.4-0.6c-0.7,0.5,0.5,0.7,0.2,1.3c-0.5,0-1.3-0.4-1.3,0.7c0,0.1-0.3,0.2-0.5,0.2c-0.3,0-0.3-0.2-0.2-0.4
		c0.2-0.5-0.1-0.7-0.5-0.8c-0.4-0.1-0.6,0.3-0.7,0.6c-0.2,0.4,0.1,0.6,0.5,0.7c0.4,0.1,0.3,0.6,0.2,0.6c-1.2-0.5-1.3,0.8-2.1,1.3
		c0.3-1.2-0.1-2-1.1-2.7c-0.5,2.1-1.2,4.1-2.1,6c0.2-0.7,0.3-1.5,0.5-2.2c0.1-0.5,0.3-1.1-0.1-1.5c-0.6-0.5-0.4-0.7,0.2-1
		c0.4-0.2,0.5-0.6,0.1-1c-0.5-0.4-0.6,0.2-0.8,0.4c-1.1,0.7-0.3,2.2-1.3,2.9c-0.2,0.1-0.1,0.8-0.6,0.4c-0.3-0.2-0.8-0.6-0.5-0.9
		c1.2-0.9,0.7-2.3,1.1-3.5c1-2.9,1.4-5.9,2.7-8.7c0.1-0.2,0.2-0.3,0.4-0.5c-0.6,3.1-1.3,6.2-1.5,9.3c2-2.7,2-6.2,3.5-9.1
		c-0.3,1.9-0.9,3.8-0.9,5.8c0,0.4-0.7,1.1,0,1.2c0.6,0.1,1.5-0.2,1.8-1.1c0.7-2.4,1.3-4.9,2-7.3c0.1-0.2,0-0.4,0.4-0.5
		c-0.1,2.1-1.1,4.1-1,6.2c2.2-0.3,2.2-2.2,2.8-3.6c0.6,0.7-0.8,1.5,0.2,1.9c0.5,0.2,2.4-1.4,2.5-2.1c0.2-0.8,0.4-1.6,0.5-2.4
		C455.2,493.9,455.3,493.9,455.4,493.9z M454.1,498.2c-1.1,0.1-1.6,0.8-2.3,1c-0.2,0.1-0.4,0.3-0.2,0.6c0.2,0.3,0.4,0.1,0.6,0
		C452.8,499.5,453.3,498.9,454.1,498.2z"/>
	<path d="M461.6,521.6c0,0.9-1.6,1.3-0.9,2.4c-0.6,0-1,0.4-1.5,0.6c-1.1,0.4-1.7,1.3-2.7,1.8c-0.3,0.2-0.6,0.5-0.5,1
		c0.3,0.8,0.3,1.2-0.6,0.5c-0.2-0.1-0.3-0.1-0.5,0c-1.6,1.6-4.1,3.2-6.1,4c-0.8,0.3-1.8,0.7-1.3,2c0.1,0.3,0.1,0.6-0.3,0.6
		c-0.9,0-0.9,0.8-1.2,1.4c-1-0.5-0.4-1.7-1.1-2.4c-0.3-0.3,0.7-0.7,1-1.2c1.4-2.2,2.2-4.7,3.5-7.1c0.4,0.5-0.2,1,0.3,1.5
		c0.7-1.3,1.1-2.7,2.3-3.7c-1,1.6-0.9,3.5-1.7,5.2c0.5,0,0.8-0.4,1-0.7c1.3-2.6,4.2-3,6.4-4.3c0.1,0,0.2,0,0.3,0
		c0.2,0.4-0.6,0.5-0.3,1C459.3,523.9,460.1,522.2,461.6,521.6L461.6,521.6z M456.9,524.7c-2.4,1.1-4.4,2.5-5.7,4.9
		C453,527.9,455.3,526.7,456.9,524.7z"/>
	<path d="M464.5,458.1c-2.2,0.4-4.4,1.1-6.6,1.2c-3,0.1-5.8,0.8-8.7,1.3c-1.7,0.3-3.2,1-4.8,1.5c-0.6,0.2-1.3,0.6-1.3,1
		c-0.2,1.5-1.5,1.6-2.5,1.9c-0.6,0.2-1,0.3-1.2,0.8c-0.5,1-1.5,0.8-2.2,1.4c-0.1,0.1-0.4,0-0.5-0.1c-0.1-0.2,0-0.4,0.2-0.5
		c2.5-1.8,4.9-4.1,7.7-5.2c5.5-2.1,11-4.6,17.2-4.1C462.6,457.4,463.6,457.5,464.5,458.1z"/>
	<path d="M391.2,452.7c1,0.4,2.3,0.3,3.6,0.3c0.3,0,0.6,0,0.6,0.5c-0.1,0.4-0.3,0.3-0.7,0.2c-1-0.2-1.8,0-2.3,1
		c-0.1,0.1-0.1,0.4-0.2,0.4c-1.2-0.1-1.6,0.4-1.9,1.6c-0.2,0.6-0.7,0.6,0.1,1c0.2,0.1,0.2,0.4,0.1,0.5c-0.6,0.1-1.1,0.2-1.7,0.1
		c-0.5-0.1-0.1-0.6-0.2-0.8c-0.5-1.3,0.3-2.9-1.3-3.9c-0.7-0.4,0.6-1,0-1.7c-0.2-0.2,0.8-1.2-0.1-1.8c0.1-0.1,0.2-0.3,0.3-0.3
		c1.1,0.5,1.2-0.1,1.2-1c0-0.3,0.1-0.5,0.4-0.4c0.3,0,0.3,0.3,0.3,0.6c-0.1,0.9,0.3,1.8,0.1,2.6C389.3,452.8,390,452.8,391.2,452.7z
		"/>
	<path d="M406,590.8c1.3,0,2.5,0.4,3.8,1c0.9,0.5,1.9,0.6,2.9,0.8c0.4,0.1,1-0.4,1.3,0.2c0.3,0.7,0.9,1.3,0.9,2.1
		c0.1,1.1-1.1,0.9-1.6,1.4c-0.6-0.9-2.1-0.1-2.6-1.3c0-0.1-0.3-0.3-0.3-0.2c-1.9,0.7-2-2.1-3.8-1.9c-0.2,0-0.7-1.3-1.6-1.5
		c0,0,0-0.4,0.1-0.5C405.3,590.6,405.6,590.7,406,590.8z"/>
	<path d="M437.9,506c0.9,0,1.1-0.8,1.3-1.7c0.6-2.7,1.3-5.3,2.7-7.8c-1,3.9-2,7.7-3.1,11.8C438.5,507.5,438.2,506.8,437.9,506z"/>
	<path d="M461.6,521.6c2.3-2.7,5-5.1,7.5-7.6c0.2-0.2,0.4-0.3,0.6,0c0.1,0.2,0.1,0.5-0.2,0.6c-1.2,0.3-1.6,1.2-1.8,2.3
		c0,0.3-0.2,0.4-0.4,0.5c-1.3,0.7-3,1.1-3.2,3.1C464.1,520.6,462.8,521.9,461.6,521.6C461.6,521.6,461.6,521.6,461.6,521.6z"/>
	<path d="M405.8,665.7c1.4-2,3.8-3.2,4.7-5.7c0.5,0.6,0.8,1.3,0.3,1.9C409.4,663.5,408.4,665.7,405.8,665.7
		C405.8,665.7,405.8,665.7,405.8,665.7z"/>
	<path d="M410.7,655.6c0.1-1.6,0.2-3.1,0.3-4.7c0-0.3-0.2-1,0.5-0.9c0.5,0.1,0.5,0.5,0.3,0.9c-0.1,0.1-0.1,0.3,0,0.4
		C412.7,652.5,412.3,654.2,410.7,655.6z"/>
	<path d="M439.2,498.4c-0.6,1.7-1.1,3.5-1.7,5.2c-0.3,1-0.7,2-0.5,3.1c0.1,0.4,0,0.6-0.4,0.6c-0.4,0-0.3-0.4-0.3-0.7
		C436.8,503.7,437.5,500.9,439.2,498.4z"/>
	<path d="M407.3,597c-0.1,0.9,1.5,1.6,0.3,2.7c-0.1,0.1-0.1,0.4,0,0.5c0.2,0.3,0.4,0,0.6-0.1c0.2-0.2,0.4-0.2,0.6,0
		c0.3,0.3,0.1,0.6-0.1,0.8c-0.7,0.6-1.4,1-2.6,1C408.2,600.4,406.6,598.5,407.3,597z"/>
	<path d="M444.8,532.2c0.7-1.8,1.2-3.2,1.9-5C447,529.4,446.4,530.8,444.8,532.2z"/>
	<path d="M432.1,503.6c0.8-2.1,1.8-4.1,3.5-5.7C434.5,499.9,433.3,501.7,432.1,503.6z"/>
	<path d="M436,467.1c0,1.1-0.3,1.7-1.6,1.5c-0.3-0.1-0.7,0.3-0.8-0.2c-0.1-0.4,0.3-0.4,0.5-0.5C434.8,467.6,435.4,467.3,436,467.1z"
		/>
	<path d="M431.7,500.6c-0.3,1.6-1.2,2.8-2.3,4C430.2,503.2,430.9,501.9,431.7,500.6z"/>
	<path d="M403.7,578.2c1-0.9,2-1.8,2.9-2.7C406.3,576.2,405.1,577.6,403.7,578.2z"/>
	<path d="M397.1,491c-0.1,0.4,0.3,1-0.4,1c-0.7,0-0.3-0.6-0.2-1c0-0.1,0-0.3-0.1-0.4c-0.1-0.3-0.5-0.8,0.2-0.8
		c0.5,0,0.3,0.5,0.4,0.8C397.1,490.7,397.1,490.9,397.1,491z"/>
	<path d="M332.6,404.6c-0.6-0.9-1.3-0.9-2.2-0.1c1-1.6-0.1-2.3-1-3c-0.5-0.4-0.5-1.6-1.6-1.2c0,0-0.1-0.3,0-0.5
		c0.2-0.6-0.8-2-1.4-2.1c-0.6-0.1-0.4,0.8-1,0.8c-0.1-1.5-1.6-0.9-2.3-1.5c-0.2-0.2-0.6-0.2-0.5-0.5c0.1-0.3,0.5-0.3,0.7-0.1
		c0.8,0.9,1.3,0.2,1.8-0.6c0.4,1.3,1.5,1,2.3,1.3c0.4,0.1,0.7-0.1,0.7-0.5c0-0.6-0.3-0.5-0.7-0.3c-0.8,0.3-0.7-0.9-1.5-0.8
		c-1.4,0.1-2.8-0.1-4.1-0.7c-0.3-0.1-0.7-0.2-1.1,0.2c-0.3,0.3-0.6,0.4-0.7-0.1c0-0.4-0.1-0.7-0.6-0.6c-0.3,0.1-0.5,0.5-0.4,0.8
		c0,0.3,0.2,0.7,0.2,1c0.2,1,0.5,1.6,1.5,0.5c0,0.7-0.8,2.2,0.9,1c0.1-0.1,0.4,0,0.4,0c0.3,1.4,1.7,1.2,2.5,1.8
		c0.2,0.1,0.4,0.4,0.2,0.6c-0.1,0.2-0.4,0.1-0.5,0c-0.8-0.5-1.5-1-1.9,0.4c-0.1,0.4-0.6,0-0.8-0.2c-0.7-0.9-1.3-1.8-2.4-2.2
		c-0.4-0.1-0.7-0.4-1,0.1c-0.2,0.2,0,0.8-0.5,0.7c-0.7-0.2,0.2-0.8-0.2-1.1c-0.1,0-0.2-0.1-0.3-0.1c-0.3,0-0.5,0.7-0.9,0.3
		c-0.1-0.1-0.1-0.4-0.1-0.4c0.4-0.2,0.9-0.5,1.3-0.5c1.8,0.1,1.9,0,1-1.5c-0.8-1.3-0.3-2.9-1.2-4.1c-0.2-0.3,0.3-0.4,0.6-0.2
		c0.6,0.3,1.5,1,1.8,0.8c1.2-0.8,2.3,0,3.4,0.1c1.8,0,3.2,0.9,4.6,1.9c0.8,0.5,1.6,1.1,2.5,1.5c-0.4,0.4-0.8,0.6-1.2,0.7
		c-0.3,0.1-0.6,0.1-0.6,0.5c0,0.3,0.2,0.7,0.3,0.7c0.9-0.1,1.9,1.5,2.8-0.2c0.2,0.9,0,1.1-0.6,1.1c-0.5,0-1.1-0.1-1.6,0
		c-0.9,0.2-0.7,1.1-0.4,1.3c1.8,0.9,3.3,2.4,5.1,3.1c0.6,0.3,1.2,0.3,1.6,1.2c0.3,0.8,1.7,0.4,2.6,0.7c-0.8,0.1-1,0.6-1.2,1.4
		c-0.6-1.5-1.1-1.6-1.8-0.3c-0.2,0.4-0.4,0.3-0.7,0C334.3,405,333.5,404.6,332.6,404.6C332.6,404.6,332.6,404.6,332.6,404.6z"/>
	<path d="M311.3,400.8c-1.1-0.4-2.2,1.2-3.3,0c-0.3-0.3-0.6,0-0.9,0.3c-0.3,0.4-0.6,0.7-0.9,1.1c-0.2,0.3-0.4,1.1-0.8,0.7
		c-0.6-0.4-0.1-0.9,0.3-1.3c0.2-0.2,0.5-0.5,0.4-0.9c-0.4-0.2-0.8,0.4-1.3,0.1c-0.3-0.2-0.6,0.1-0.3,0.5c0.4,0.7,0.2,0.9-0.5,0.8
		c-0.1,0-0.2,0-0.3,0.1c-0.3,0.3,0.7,1.4-0.6,1c-0.3-0.1-0.5-0.8-1.1-0.8c-0.3,0-0.3-0.5-0.1-0.6c0.6-0.3,0.6-1.1,1.2-1.5
		c0.5-0.4,0.5-1.5,1.6-0.4c0.7,0.8,1.1-0.4,1.2-1.1c0.7-0.1,0.1,1.6,1.3,0.9c0.5-0.3,1.3,0.7,1.8-0.1c0.2-0.3,0.6-0.2,0.6,0
		C309.8,400.5,310.7,400.4,311.3,400.8z"/>
	<path d="M337.2,379.9c0.8,0.5,1.1,1.3,1.5,2c0.4,0.6,0.2,1.2-0.3,1.7c-0.6,0.5-1.2,0.1-1.6-0.2c-1.1-1.2-2.4-2.2-3.5-3.5
		c0.9,0.5,1.8,1.1,2.8,1.5c0.4,0.2,0.8,0.8,1.3,0.3c0.5-0.4-0.2-0.9-0.2-1.3C337.3,380.3,337.1,380.1,337.2,379.9z"/>
	<path d="M308.4,377.8c-0.6,0.5-1.2,0.2-1.8,0.2c-1.9-0.2-2.4,0.1-3.1,2c-0.1,0.3-0.3,0.4-0.5,0.3c-0.4-0.1-0.4-0.4-0.2-0.7
		c0.3-0.4,0.6-0.7,0.7-1.2c-0.2-0.4-1,0.2-1-0.4c0-0.6,0.6-0.3,0.9-0.3c0,0,0.1,0,0.1-0.1c0.4-0.3-0.8-1.1,0.3-1.2
		c0.5,0,0.5,0.9,1.1,1C306,377.5,307.2,377.6,308.4,377.8z"/>
	<path d="M317,390.6c-1.6-0.9-1.2-2.7-2.4-3.6c-0.3-0.2,0.6-0.6,0.7-0.5c1.1,0.9,2.7,0.9,3.7,2c-0.7,0.1-1.3-0.4-1.9-0.5
		c-0.4-0.1-0.8-0.3-1.1,0c-0.3,0.4,0,0.7,0.2,1.1C316.5,389.6,316.7,389.9,317,390.6z"/>
	<path d="M302.1,388.6c0.6,0.4,1.1,0.6,1.5,0.9c-0.5,0.5-0.5,1.3-0.9,1.9c-0.1,0.2-0.3,0.4-0.5,0.5c-0.2,0.2,0,0.9-0.6,0.7
		c-0.5-0.1-0.3-0.6-0.2-1c0.1-0.4,0.1-0.9-0.2-1.2c-0.1-0.2-0.1-0.5,0-0.5C302.8,390.3,302,389.2,302.1,388.6z"/>
	<path d="M332.1,387.4c-2.3-0.6-4.3-1.2-6.3-2.2C327.7,384.8,329.3,385.4,332.1,387.4z"/>
	<path d="M334.5,397.2c1.5,0,2.4,1.2,4.2,1.4C336.1,399.1,335.2,398.7,334.5,397.2z"/>
	<path d="M366,394.3c0.3,1.7,1.1,3.4,0.4,5.1C364.7,397.8,365.7,396,366,394.3z"/>
	<path d="M352.7,391.9c0.8,1.8,0.7,4.1-0.5,4.8C352.8,395.1,351.8,393.4,352.7,391.9z"/>
	<path d="M368,393.7c0.6,1.1,0.1,2.3,0,3.5c-0.1-1.1-0.3-2.3-0.4-3.4C367.7,393.7,367.9,393.7,368,393.7z"/>
	<path d="M364.4,398.5c-0.1-0.9-0.7-1.6-0.5-2.5c0-0.2,0.1-0.4,0.3-0.4c0.3-0.1,0.4,0.2,0.5,0.4
		C364.9,396.8,364.5,397.6,364.4,398.5z"/>
	<path d="M355,414c-0.9,0-2.2-1.9-1.7-2.7c0.2-0.3,0.5-0.5,0.8-0.6c0.4-0.1,0.5,0.3,0.6,0.5c0.2,0.6,0.7,0.8,1,1.2
		c0.3,0.3,1.1,0.2,0.8,0.9C356.2,413.9,355.6,413.9,355,414z"/>
	<path d="M359.9,394.7c0,1.1-0.3,2-0.4,2.9c-0.1,1.4-1.3,2.2-2.3,1.9c-0.8-0.2-0.4-0.5-0.3-0.9C357.7,397.2,359.3,396.3,359.9,394.7
		z"/>
</g>
</svg>
