<svg version="1.2" baseProfile="tiny" xmlns="http://www.w3.org/2000/svg" viewBox="0 0 75 75" overflow="visible" xml:space="preserve"><path fill="#ED2224" d="M-75.012 18.8h75v18.8h-75z"/><path fill="#B12625" d="M0 0h75v75H0z"/><path fill="#010101" d="M59.688 19.7v17h-26.5v-17h26.5zm-25.1 2.3v12.5l10.4-6.3-10.4-6.2zm22.3-.9h-20.9l10.4 6.3 10.5-6.3zm-20.9 14.2h20.9l-10.4-6.3-10.5 6.3zm11.8-7.1 10.4 6.3V22l-10.4 6.2z"/><g fill="#010101"><path d="M18.088 53.1h-1.8V41.2l-2.1 1.4v-1.8c.5-.2 1.8-1.2 2.3-1.7h1.6v14zM27.788 46.5v6.6h-1.8V38.7h5c2.6 0 3.5 1.8 3.5 3.6 0 1.7-.9 3-2.6 3.3 1.7.3 2.3.8 2.4 3.7 0 .6.2 2.9.5 3.8h-1.9c-.5-1-.4-2.9-.6-4.8-.1-1.8-1.6-1.8-2.2-1.8h-2.3zm0-1.6h2.8c1.3 0 2-1.1 2-2.4 0-1-.5-2.2-1.9-2.2h-2.8v4.6zM35.988 53.1V38.7h7.2v1.6h-5.3v4.6h5v1.6h-5v6.6h-1.9zM46.788 53.3c-2.2 0-3.5-1-3.5-3.3h1.9c0 .6 0 1.9 1.7 1.9 1 0 1.7-.5 1.7-1.5 0-1.8-5-1.8-5-4.9 0-1.1.6-2.8 3.5-2.8 1.8 0 3.3.9 3.2 2.9h-1.8c0-1.1-.5-1.6-1.6-1.6-.9 0-1.6.5-1.6 1.4 0 1.8 5 1.7 5 4.8 0 2.3-1.5 3.1-3.5 3.1zM53.288 53.1h-1.6V38.7h1.6v14.4zM56.788 44.5c.7-1.5 1.6-1.7 3.2-1.7v1.7c-.1 0-.3 0-.4-.1h-.4c-1.8 0-2.3 1.4-2.3 2.7v6h-1.6V43h1.6v1.5z"/></g><g fill="#010101"><path d="M44.688 9.5h1v7.2h-1V9.5zM47.488 9.5h1v7.2h-1V9.5z"/></g><path fill="#010101" d="M24.088 24.1c-.7.6-1.8 1.2-2.6 1.6v-1.6c1-.5 2.1-1.2 2.7-1.7h1.4v11.1h-1.5v-9.4z"/><g fill="#010101"><path d="M30.388 57.2v1h-2.8v2.4c.2-.4.8-.6 1.3-.6 1.2 0 1.7.9 1.7 2.8 0 1.3-.2 2.9-2.3 2.9-1.7 0-2.1-.9-2.1-2.1h1.1c0 .6.3 1.3 1 1.3 1 0 1.1-1 1.1-1.8 0-1.2 0-2.2-1.1-2.2-.6 0-.9.4-1 1h-1v-4.7h4.1zM31.188 66.7h-.8l2.8-9.8h.8l-2.8 9.8zM33.788 63.5v-1l2.4-5.3h1.5v5.3h1v1h-1v2h-1v-2h-2.9zm2.8-1v-4.3l-1.8 4.3h1.8zM42.688 65.5h-1.1v-8.7h1.1v8.7zM47.488 65.5v-4.2c0-.6-.2-1.2-1.1-1.2-1.1 0-1.2 1-1.2 1.8v3.6h-1v-4.8c0-.4 0-.8-.1-1.3h1v.8c.4-.7.8-.9 1.6-.9 1.3 0 1.6.8 1.6 2v4.2h-.8z"/></g></svg>