<svg version="1.2" baseProfile="tiny" xmlns="http://www.w3.org/2000/svg" viewBox="0 0 75 75" overflow="visible" xml:space="preserve"><path fill="#B12625" d="M0 0h75v75H0z"/><path fill="#010101" d="M59.688 19.7v17h-26.5v-17h26.5zm-25.1 2.3v12.5l10.4-6.3-10.4-6.2zm22.3-.9h-20.9l10.4 6.3 10.5-6.3zm-20.9 14.2h20.9l-10.4-6.3-10.5 6.3zm11.8-7.1 10.4 6.3V22l-10.4 6.2z"/><g fill="#010101"><path d="M15.588 45c1.7.1 2.8-.5 2.8-2.3 0-1.3-.6-2.2-1.9-2.2-1.5 0-1.8 1.1-1.7 2.3h-1.8c-.1-2.4 1-3.8 3.6-3.8 2.4 0 3.8 1.2 3.8 3.6 0 2.6-1.9 3-2.7 3.2 2.2.3 2.9 1.5 2.9 3.5 0 2.7-1.5 4-4.1 4-3.9 0-3.6-3.3-3.6-4.1h1.8c0 1.4.2 2.6 1.9 2.6 1.6 0 2.1-1 2.1-2.5 0-2.2-.8-2.7-3-2.7V45zM20.988 55h-1.3l4.7-16.4h1.3l-4.7 16.4zM30.488 53.1h-1.8V41.2l-2.1 1.4v-1.8c.5-.2 1.8-1.2 2.3-1.7h1.6v14zM38.688 53.1V38.7h4.3c1.9 0 4 .7 4 4.1 0 3.3-2.6 4-4 4h-2.4v6.4h-1.9zm1.8-7.9h2c.8 0 2.6-.2 2.6-2.5 0-2.2-1.6-2.4-2-2.4h-2.5v4.9zM48.288 43h1.6v11.5c0 1.6-.5 2.4-2.9 2.4v-1.4c.7 0 1.2-.1 1.2-.9V43zm-.1-4.3h1.8v1.8h-1.8v-1.8zM53.588 53.1h-1.6V38.7h1.6v5.4h.1c.6-.8 1.3-1.2 2.2-1.2 3.3 0 3.3 2.9 3.3 5.4 0 4.4-1.6 5.1-3.3 5.1-1.1 0-1.8-.5-2.3-1.4v1.1zm1.8-1.1c2.1 0 2.1-2.2 2.1-3.7 0-2.7-.2-4.1-2-4.1s-1.9 2.2-1.9 3.5c0 1.5-.2 4.3 1.8 4.3z"/></g><g fill="#010101"><path d="M44.688 9.5h1v7.2h-1V9.5zM47.488 9.5h1v7.2h-1V9.5z"/></g><path fill="#010101" d="M24.088 24.1c-.7.6-1.8 1.2-2.6 1.6v-1.6c1-.5 2.1-1.2 2.7-1.7h1.4v11.1h-1.5v-9.4z"/><g fill="#010101"><path d="M31.088 61.4c0 2.2 0 4.3-2.2 4.3-1.2 0-2.1-.9-2.1-2.2h1.1c0 .6.2 1.2.9 1.2 1.1 0 1.1-1.2 1.1-3.3-.3.6-.8.8-1.4.8-.7 0-1.9-.3-1.9-2.6 0-1.9 1.1-2.6 2.2-2.6 2.3.1 2.3 2.2 2.3 4.4zm-3.4-1.8c0 .8.2 1.7 1.1 1.7s1.1-.9 1.1-1.7c0-.8-.2-1.7-1.1-1.7-.9 0-1.1.9-1.1 1.7zM31.488 66.7h-.8l2.8-9.8h.8l-2.8 9.8zM34.088 63.5v-1l2.4-5.3h1.5v5.3h1v1h-1v2h-1v-2h-2.9zm2.8-1v-4.3l-1.8 4.3h1.8zM41.588 56.9h1.1V58h-1.1v-1.1zm1.1 8.6h-1v-6.1h1v6.1zM47.188 65.5v-4.2c0-.6-.2-1.2-1.1-1.2-1.1 0-1.2 1-1.2 1.8v3.6h-1v-4.8c0-.4 0-.8-.1-1.3h1v.8c.4-.7.8-.9 1.6-.9 1.3 0 1.6.8 1.6 2v4.2h-.8z"/></g></svg>