<svg version="1.2" baseProfile="tiny" xmlns="http://www.w3.org/2000/svg" viewBox="0 0 75 75" overflow="visible" xml:space="preserve"><path fill="#B12625" d="M0 0h75v75H0z"/><path fill="#010101" d="M59.688 19.7v17h-26.5v-17h26.5zm-25.1 2.3v12.5l10.4-6.3-10.4-6.2zm22.3-.9h-20.9l10.4 6.3 10.5-6.3zm-20.9 14.2h20.9l-10.4-6.3-10.5 6.3zm11.8-7.1 10.4 6.3V22l-10.4 6.2z"/><g fill="#010101"><path d="M5.288 53.1v-1.6c4.1-5.7 5.3-6.7 5.3-9.1 0-1.1-.5-1.8-1.7-1.8-1.4 0-1.6 1.1-1.6 2.3h-1.9c-.2-2.3 1-3.8 3.4-3.8 2.5 0 3.7 1.1 3.7 3.6 0 3.1-1.6 4.1-5.1 8.9h5.5v1.6h-7.6zM18.288 53.1V38.7h1.8v6.2h5.1v-6.2h1.8v14.4h-1.8v-6.6h-5.1v6.6h-1.8zM34.488 43h1.6v11.1c0 2.3-1.5 2.8-3.7 2.8-1.7 0-3.2-.8-3.1-2.7h1.8c0 .9.6 1.5 1.5 1.5 1.1 0 1.8-.7 1.8-1.7v-2.1h-.1c-.4.8-1.3 1.3-2.2 1.3-2.7 0-3.3-2.4-3.3-5.4 0-4.6 2.3-4.9 3.2-4.9 1.1 0 1.9.5 2.4 1.4V43zm-1.9 1.2c-1.9 0-1.9 2.2-1.9 3.6 0 3.2.7 4 2 4 2 0 1.9-2.3 1.9-3.7 0-1.6.1-3.9-2-3.9zM43.688 53.1v-6.8c0-1.2-.4-2.1-1.8-2.1-1.6 0-2.1 1.3-2.1 3v5.9h-1.6V38.7h1.6v5.6h.1c.7-1.2 1.4-1.5 2.7-1.5 1.7 0 2.7.9 2.7 3.1v7.2h-1.6zM48.788 53.1h-1.6V38.7h1.6v14.4zM56.088 53.1v-7c0-1.1-.4-2-1.8-2-1.8 0-2.1 1.6-2.1 3v6h-1.6v-8c0-.7 0-1.4-.1-2.1h1.7v1.3h.1c.6-1.1 1.4-1.5 2.7-1.5 2.2 0 2.7 1.3 2.7 3.3v7h-1.6zM64.988 38.7h1.6v14.4h-1.6v-1.2c-.6.9-1.3 1.4-2.3 1.4-1.6 0-3.3-.6-3.3-5.1 0-2.5.1-5.4 3.3-5.4 1 0 1.7.4 2.2 1.2h.1v-5.3zm-1.9 5.5c-1.8 0-2 1.4-2 4.1 0 1.5 0 3.7 2.1 3.7 1.8 0 1.8-2.3 1.8-4.3 0-1.4-.1-3.5-1.9-3.5z"/></g><g fill="#010101"><path d="M44.688 9.5h1v7.2h-1V9.5zM47.488 9.5h1v7.2h-1V9.5z"/></g><path fill="#010101" d="M24.088 24.1c-.7.6-1.8 1.2-2.6 1.6v-1.6c1-.5 2.1-1.2 2.7-1.7h1.4v11.1h-1.5v-9.4z"/><g fill="#010101"><path d="M26.888 65.5h-1.1v-7.1l-1.2.8v-1.1c.3-.1 1.1-.7 1.4-1h.9v8.4zM33.188 61.4c0 2.2 0 4.3-2.2 4.3s-2.2-2.1-2.2-4.3c0-2.2 0-4.3 2.2-4.3s2.2 2.1 2.2 4.3zm-3.4.2c0 1.4-.1 3.2 1.1 3.2 1.2 0 1.1-1.8 1.1-3.2 0-2.2 0-3.6-1.1-3.6s-1.1 1.4-1.1 3.6zM33.588 66.7h-.8l2.8-9.8h.8l-2.8 9.8zM40.488 57.2v1h-2.8v2.4c.2-.4.8-.6 1.3-.6 1.2 0 1.7.9 1.7 2.8 0 1.3-.2 2.9-2.3 2.9-1.7 0-2.1-.9-2.1-2.1h1.1c0 .6.3 1.3 1 1.3 1 0 1.1-1 1.1-1.8 0-1.2 0-2.2-1.1-2.2-.6 0-.9.4-1 1h-1v-4.7h4.1zM45.188 65.5h-1.1v-8.7h1.1v8.7zM49.888 65.5v-4.2c0-.6-.2-1.2-1.1-1.2-1.1 0-1.2 1-1.2 1.8v3.6h-1v-4.8c0-.4 0-.8-.1-1.3h1v.8c.4-.7.8-.9 1.6-.9 1.3 0 1.6.8 1.6 2v4.2h-.8z"/></g></svg>