<svg version="1.2" baseProfile="tiny" xmlns="http://www.w3.org/2000/svg" viewBox="0 0 75 75" overflow="visible" xml:space="preserve"><path fill="#B12625" d="M0 0h75v75H0z"/><path fill="#010101" d="M59.688 19.7v17h-26.5v-17h26.5zm-25.1 1.4v13.4l4.1-2.5c-.4-.2-.8-.5-1.2-.8-.8-.8-1.2-1.9-1.2-3 0-2.3 1.9-4.2 4.2-4.2h11.6l4.7-2.8h-22.2zm23.6 14.2V21.9l-4.1 2.5c1.4.7 2.4 2.2 2.4 3.9 0 2.3-1.9 4.2-4.2 4.2h-11.6l-4.7 2.8h22.2zm-20.5-7.1c0 .8.3 1.5.8 2s1.1.8 1.8.8l9.4-5.7h-9.2c-1.5.1-2.7 1.4-2.8 2.9zm17.4.1c0-1.5-1.1-2.7-2.6-2.9l-9.4 5.7h9.2c1.6 0 2.8-1.3 2.8-2.8z"/><g fill="#010101"><path d="M22.588 53.1h-1.8V41.2l-2.1 1.4v-1.8c.5-.2 1.8-1.2 2.3-1.7h1.6v14zM36.888 42.7c0-.8 0-1.6-.4-2.1s-1.2-.6-1.6-.6c-1.5 0-2.1.9-2.2 1.1-.1.2-.4.5-.4 3V48c0 3.5 1.2 4 2.6 4 .6 0 2.3-.2 2.3-3h1.9c.1 4.6-3.1 4.6-4.1 4.6-1.8 0-4.6-.1-4.6-5.7v-4.1c0-4.1 1.8-5.2 4.6-5.2 2.9 0 4 1.5 3.8 4.3h-1.9zM42.688 53.1h-1.8V38.7h1.8v14.4zM45.288 53.1V38.7h1.8v6.2h5.1v-6.2h1.8v14.4h-1.8v-6.6h-5.1v6.6h-1.8z"/></g><g fill="#010101"><path d="M43.288 9.5h1v7.2h-1V9.5zM46.088 9.5h1v7.2h-1V9.5zM48.788 9.5h1v7.2h-1V9.5z"/></g><path fill="#010101" d="M24.088 24.1c-.7.6-1.8 1.2-2.6 1.6v-1.6c1-.5 2.1-1.2 2.7-1.7h1.4v11.1h-1.5v-9.4z"/><g fill="#010101"><path d="M29.988 63.5v-1l2.4-5.3h1.5v5.3h1v1h-1v2h-1v-2h-2.9zm2.7-1v-4.3l-1.8 4.3h1.8zM38.888 65.5h-1.1v-8.7h1.1v8.7zM43.688 65.5v-4.2c0-.6-.2-1.2-1.1-1.2-1.1 0-1.2 1-1.2 1.8v3.6h-1v-4.8c0-.4 0-.8-.1-1.3h1v.8c.4-.7.8-.9 1.6-.9 1.3 0 1.6.8 1.6 2v4.2h-.8z"/></g></svg>