<svg version="1.2" baseProfile="tiny" xmlns="http://www.w3.org/2000/svg" viewBox="0 0 75 75" overflow="visible" xml:space="preserve"><path fill="#B12625" d="M0 0h75v75H0z"/><path fill="#010101" d="M59.688 19.7v17h-26.5v-17h26.5zm-25.1 2.3v12.5l10.4-6.3-10.4-6.2zm22.3-.9h-20.9l10.4 6.3 10.5-6.3zm-20.9 14.2h20.9l-10.4-6.3-10.5 6.3zm11.8-7.1 10.4 6.3V22l-10.4 6.2z"/><g fill="#010101"><path d="M7.588 53.1v-1.6c4.1-5.7 5.3-6.7 5.3-9.1 0-1.1-.5-1.8-1.7-1.8-1.4 0-1.6 1.1-1.6 2.3h-1.9c-.2-2.3 1-3.8 3.4-3.8 2.5 0 3.7 1.1 3.7 3.6 0 3.1-1.6 4.1-5.1 8.9h5.5v1.6h-7.6z"/><path d="M15.488 55h-1.3l4.7-16.4h1.3l-4.7 16.4zM26.788 39.2v1.6h-4.6v4c.3-.6 1.3-1 2.2-1 2 0 2.9 1.5 2.9 4.7 0 2.2-.3 4.9-3.8 4.9-2.9 0-3.4-1.6-3.4-3.4h1.8c0 1.1.4 2.1 1.6 2.1 1.7 0 1.9-1.7 1.9-3.1 0-2-.1-3.6-1.8-3.6-1 0-1.5.7-1.7 1.6h-1.7v-7.8h6.6zM34.588 53.1h-1.7V38.7h3l3.6 12.1 3.7-12.1h3v14.4h-1.8V40.3l-4 12.8h-1.7l-4-12.8v12.8zM53.588 51.7c-.5 1.2-1.3 1.7-2.6 1.7-2.1 0-2.8-1.4-2.8-3.3 0-3.1 3-3.2 5.3-3.1 0-1.3.1-2.8-1.7-2.8-1.1 0-1.7.7-1.6 1.8h-1.8c.1-2.3 1.3-3 3.4-3 2.6 0 3.3 1.3 3.3 3v4.9c0 .8.1 1.6.2 2.4h-1.8v-1.6zm-3.7-1.6c0 1 .5 1.9 1.6 1.9 1 0 2.2-.6 2.1-3.9-1.6 0-3.7-.1-3.7 2zM62.788 53.1v-6.8c0-1.2-.4-2.1-1.8-2.1-1.6 0-2.1 1.3-2.1 3v5.9h-1.6V38.7h1.6v5.6h.1c.7-1.2 1.4-1.5 2.7-1.5 1.7 0 2.7.9 2.7 3.1v7.2h-1.6z"/></g><g fill="#010101"><path d="M44.688 9.5h1v7.2h-1V9.5zM47.488 9.5h1v7.2h-1V9.5z"/></g><path fill="#010101" d="M24.088 24.1c-.7.6-1.8 1.2-2.6 1.6v-1.6c1-.5 2.1-1.2 2.7-1.7h1.4v11.1h-1.5v-9.4zM36.288 61.8h2.6v.9h-2.6v-.9z"/></svg>