<svg version="1.2" baseProfile="tiny" xmlns="http://www.w3.org/2000/svg" viewBox="0 0 75 75" overflow="visible" xml:space="preserve"><path fill="#B12625" d="M0 0h75v75H0z"/><path fill="#010101" d="M59.688 19.7v17h-26.5v-17h26.5zm-25.1 15.6h4.7c-1.9 0-3.5-1.6-3.5-3.5 0-1.7 1.1-3 2.7-3.4-1.3-.7-2.2-2.1-2.2-3.7 0-1.5.8-2.7 1.9-3.5h-3.6v14.1zm4.7-5.6c-1.2 0-2.1 1-2.1 2.1 0 1.2 1 2.1 2.1 2.1 1.2 0 2.1-1 2.1-2.1.1-1.2-.9-2.1-2.1-2.1zm15.8-5c0-1.6-1.2-2.9-2.8-2.9h-11.8c-1.5 0-2.8 1.3-2.8 2.8 0 1.6 1.2 2.9 2.8 2.9h11.8c1.6 0 2.8-1.2 2.8-2.8zm-10.8 4.2h-2.9c.9.6 1.4 1.7 1.4 2.8 0 1.9-1.6 3.5-3.5 3.5h7c-1.9 0-3.5-1.6-3.5-3.5.1-1.1.7-2.1 1.5-2.8zm2.1.8c-1.2 0-2.1 1-2.1 2.1 0 1.2 1 2.1 2.1 2.1 1.2 0 2.1-1 2.1-2.1.1-1.2-.9-2.1-2.1-2.1zm11.8 5.6V21.1h-3.6c1.2.8 1.9 2.1 1.9 3.6 0 1.6-.9 2.9-2.1 3.6 1.5.4 2.7 1.8 2.7 3.4 0 2-1.6 3.5-3.5 3.5-2 0-3.5-1.6-3.5-3.5 0-1.2.6-2.2 1.4-2.8h-2.9c.9.6 1.4 1.7 1.4 2.8 0 1.9-1.6 3.5-3.5 3.5h11.7zm-6.8-3.5c0 1.2 1 2.1 2.1 2.1 1.2 0 2.1-1 2.1-2.1 0-1.2-1-2.1-2.1-2.1-1.2 0-2.1.9-2.1 2.1z"/><g fill="#010101"><path d="M16.988 53.1h-1.8V41.2l-2.1 1.4v-1.8c.5-.2 1.8-1.2 2.3-1.7h1.6v14zM22.488 45c1.7.1 2.8-.5 2.8-2.3 0-1.3-.6-2.2-1.9-2.2-1.5 0-1.8 1.1-1.7 2.3h-1.8c-.1-2.4 1-3.8 3.6-3.8 2.4 0 3.8 1.2 3.8 3.6 0 2.6-1.9 3-2.7 3.2 2.2.3 2.9 1.5 2.9 3.5 0 2.7-1.5 4-4.1 4-3.9 0-3.6-3.3-3.6-4.1h1.8c0 1.4.2 2.6 1.9 2.6 1.6 0 2.1-1 2.1-2.5 0-2.2-.8-2.7-3-2.7V45zM32.888 38.7h4.4c1.8 0 3.2.7 3.9 2.2.6 1.2.6 4.1.6 4.6 0 3.1-.3 4.9-.9 5.8-.8 1.2-2.2 1.9-4.8 1.9h-3.3V38.7zm1.8 12.8h1.7c2.6 0 3.5-1 3.5-4.3v-2.9c0-2.9-.9-4-2.8-4h-2.4v11.2zM50.388 42.7c0-.8 0-1.6-.4-2.1s-1.2-.6-1.6-.6c-1.5 0-2.1.9-2.2 1.1-.1.2-.4.5-.4 3V48c0 3.5 1.2 4 2.6 4 .6 0 2.3-.2 2.3-3h1.9c.1 4.6-3.1 4.6-4.1 4.6-1.8 0-4.6-.1-4.6-5.7v-4.1c0-4.1 1.8-5.2 4.6-5.2 2.9 0 4 1.5 3.8 4.3h-1.9zM54.188 53.1V38.7h1.8v12.8h5.3v1.6h-7.1z"/></g><g fill="#010101"><path d="M44.688 9.5h1v7.2h-1V9.5zM47.488 9.5h1v7.2h-1V9.5z"/></g><path fill="#010101" d="M24.088 24.1c-.7.6-1.8 1.2-2.6 1.6v-1.6c1-.5 2.1-1.2 2.7-1.7h1.4v11.1h-1.5v-9.4zM36.288 61.8h2.6v.9h-2.6v-.9z"/></svg>