<svg version="1.2" baseProfile="tiny" xmlns="http://www.w3.org/2000/svg" viewBox="0 0 75 75" overflow="visible" xml:space="preserve"><path fill="#B12625" d="M0 0h75v75H0z"/><path fill="#010101" d="M59.688 19.7v17h-26.5v-17h26.5zm-25.1 2.3v12.5l10.4-6.3-10.4-6.2zm22.3-.9h-20.9l10.4 6.3 10.5-6.3zm-20.9 14.2h20.9l-10.4-6.3-10.5 6.3zm11.8-7.1 10.4 6.3V22l-10.4 6.2z"/><g fill="#010101"><path d="M8.088 53.1v-1.6c4.1-5.7 5.3-6.7 5.3-9.1 0-1.1-.5-1.8-1.7-1.8-1.4 0-1.6 1.1-1.6 2.3h-1.9c-.2-2.3 1-3.8 3.4-3.8 2.5 0 3.7 1.1 3.7 3.6 0 3.1-1.6 4.1-5.1 8.9h5.5v1.6h-7.6z"/><path d="M15.988 55h-1.3l4.7-16.4h1.3l-4.7 16.4zM27.288 39.2v1.6h-4.6v4c.3-.6 1.3-1 2.2-1 2 0 2.9 1.5 2.9 4.7 0 2.2-.3 4.9-3.8 4.9-2.9 0-3.4-1.6-3.4-3.4h1.8c0 1.1.4 2.1 1.6 2.1 1.7 0 1.9-1.7 1.9-3.1 0-2-.1-3.6-1.8-3.6-1 0-1.5.7-1.7 1.6h-1.7v-7.8h6.6zM33.388 53.1V38.7h7.4v1.6h-5.6v4.6h5.2v1.6h-5.2v5h5.7v1.6h-7.5zM45.188 53.3c-2.2 0-3.5-1-3.5-3.3h1.9c0 .6 0 1.9 1.7 1.9 1 0 1.7-.5 1.7-1.5 0-1.8-5-1.8-5-4.9 0-1.1.6-2.8 3.5-2.8 1.8 0 3.3.9 3.2 2.9h-1.8c0-1.1-.5-1.6-1.6-1.6-.9 0-1.6.5-1.6 1.4 0 1.8 5 1.7 5 4.8 0 2.3-1.5 3.1-3.5 3.1zM53.088 53.3c-2.2 0-3.5-1-3.5-3.3h1.9c0 .6 0 1.9 1.7 1.9 1 0 1.7-.5 1.7-1.5 0-1.8-5-1.8-5-4.9 0-1.1.6-2.8 3.5-2.8 1.8 0 3.3.9 3.2 2.9h-1.8c0-1.1-.5-1.6-1.6-1.6-.9 0-1.6.5-1.6 1.4 0 1.8 5 1.7 5 4.8 0 2.3-1.5 3.1-3.5 3.1zM65.288 53.1h-2.2l-2.3-4.1-2.2 4.1h-1.9l3.1-5.3-2.9-4.8h2.1l1.9 3.6 2-3.6h2l-3 4.8 3.4 5.3z"/></g><g fill="#010101"><path d="M44.688 9.5h1v7.2h-1V9.5zM47.488 9.5h1v7.2h-1V9.5z"/></g><path fill="#010101" d="M24.088 24.1c-.7.6-1.8 1.2-2.6 1.6v-1.6c1-.5 2.1-1.2 2.7-1.7h1.4v11.1h-1.5v-9.4z"/><g fill="#010101"><path d="M26.488 65.5h-1.1v-7.1l-1.2.8v-1.1c.3-.1 1.1-.7 1.4-1h.9v8.4zM31.288 61.1c1.2.1 1.5 1.1 1.5 2.2 0 1.5-.8 2.4-2.2 2.4s-2.2-.9-2.2-2.4c0-1.1.3-2 1.5-2.2-1-.2-1.5-1-1.5-2 0-1.3.8-2.1 2.1-2.1s2.1.8 2.1 2.1c.1 1-.4 1.8-1.3 2zm.4 2.2c0-.7-.1-1.7-1.1-1.7s-1.1 1-1.1 1.7.3 1.5 1.1 1.5 1.1-.8 1.1-1.5zm-.1-4.2c0-.6-.3-1.2-1-1.2s-1 .6-1 1.2.2 1.5 1 1.5 1-.9 1-1.5zM37.088 65.5h-1.1v-8.7h1.1v8.7zM41.888 65.5v-4.2c0-.6-.2-1.2-1.1-1.2-1.1 0-1.2 1-1.2 1.8v3.6h-1v-4.8c0-.4 0-.8-.1-1.3h1v.8c.4-.7.8-.9 1.6-.9 1.3 0 1.6.8 1.6 2v4.2h-.8zM51.988 65.5h-1.3l-2-3.7-1.9 3.7h-1.2l2.5-4.5-2.4-4.2h1.3l1.8 3.4 1.8-3.4h1.2l-2.3 4.2 2.5 4.5z"/></g></svg>