<svg version="1.2" baseProfile="tiny" xmlns="http://www.w3.org/2000/svg" viewBox="0 0 75 75" overflow="visible" xml:space="preserve"><path fill="#B12625" d="M0 0h75v75H0z"/><path fill="#010101" d="M59.688 19.7v17h-26.5v-17h26.5zm-1.5 1.4h-23.6v14.2h23.6V21.1zm-14.5 7.1c0-1.4 1.2-2.6 2.8-2.6 1.5 0 2.8 1.2 2.8 2.6s-1.2 2.6-2.8 2.6c-1.6 0-2.8-1.1-2.8-2.6z"/><g fill="#010101"><path d="M17.488 53.1h-1.8V41.2l-2.1 1.4v-1.8c.5-.2 1.8-1.2 2.3-1.7h1.6v14zM20.288 46.2c0-3.7-.1-7.2 3.7-7.2 2.1 0 3.5 1.3 3.4 3.4h-1.8c0-1-.5-2-1.6-2-1.5 0-1.9 1.3-1.9 5 .5-.8 1.3-1.3 2.3-1.3 1.8 0 3.3 1 3.3 4.7 0 2.5-1 4.7-3.7 4.7-3.7-.1-3.7-3.6-3.7-7.3zm3.9 5.7c1.5 0 1.8-1.6 1.8-3.5 0-1.3-.3-2.8-1.9-2.8-1.6 0-1.8 1.8-1.8 3-.1 1.4.1 3.3 1.9 3.3zM27.988 49.7v-1.6l3.9-8.9h2.4v8.9h1.6v1.6h-1.6v3.4h-1.7v-3.4h-4.6zm4.6-1.6v-7.2l-3 7.2h3zM41.088 53.1V38.7h7.2v1.6h-5.3v4.6h5v1.6h-5v6.6h-1.9zM50.488 53.1h-1.6V38.7h1.6v14.4zM57.688 38.7h1.6v14.4h-1.6v-1.2c-.6.9-1.3 1.4-2.3 1.4-1.6 0-3.3-.6-3.3-5.1 0-2.5.1-5.4 3.3-5.4 1 0 1.7.4 2.2 1.2h.1v-5.3zm-1.9 5.5c-1.8 0-2 1.4-2 4.1 0 1.5 0 3.7 2.1 3.7 1.8 0 1.8-2.3 1.8-4.3 0-1.4-.1-3.5-1.9-3.5z"/></g><g fill="#010101"><path d="M44.688 9.5h1v7.2h-1V9.5zM47.488 9.5h1v7.2h-1V9.5z"/></g><path fill="#010101" d="M24.088 24.1c-.7.6-1.8 1.2-2.6 1.6v-1.6c1-.5 2.1-1.2 2.7-1.7h1.4v11.1h-1.5v-9.4z"/><g fill="#010101"><path d="M21.488 65.5v-1c2.4-3.4 3.2-4 3.2-5.5 0-.7-.3-1.1-1-1.1-.8 0-1 .7-1 1.4h-1.1c-.1-1.4.6-2.3 2-2.3 1.5 0 2.2.7 2.2 2.2 0 1.9-.9 2.5-3.1 5.3h3.3v1h-4.5zM30.688 61.4c0 2.2 0 4.3-2.2 4.3-1.2 0-2.1-.9-2.1-2.2h1.1c0 .6.2 1.2.9 1.2 1.1 0 1.1-1.2 1.1-3.3-.3.6-.8.8-1.4.8-.7 0-1.9-.3-1.9-2.6 0-1.9 1.1-2.6 2.2-2.6 2.4.1 2.3 2.2 2.3 4.4zm-3.3-1.8c0 .8.2 1.7 1.1 1.7 1 0 1.1-.9 1.1-1.7 0-.8-.2-1.7-1.1-1.7s-1.1.9-1.1 1.7zM31.188 66.7h-.8l2.8-9.8h.8l-2.8 9.8zM36.988 65.5h-1.1v-7.1l-1.2.8v-1.1c.3-.1 1.1-.7 1.4-1h.9v8.4zM43.288 61.4c0 2.2 0 4.3-2.2 4.3s-2.2-2.1-2.2-4.3c0-2.2 0-4.3 2.2-4.3s2.2 2.1 2.2 4.3zm-3.4.2c0 1.4-.1 3.2 1.1 3.2s1.1-1.8 1.1-3.2c0-2.2 0-3.6-1.1-3.6s-1.1 1.4-1.1 3.6zM47.588 65.5h-1.1v-8.7h1.1v8.7zM52.388 65.5v-4.2c0-.6-.2-1.2-1.1-1.2-1.1 0-1.2 1-1.2 1.8v3.6h-1v-4.8c0-.4 0-.8-.1-1.3h1v.8c.4-.7.8-.9 1.6-.9 1.3 0 1.6.8 1.6 2v4.2h-.8z"/></g></svg>