<svg version="1.2" baseProfile="tiny" xmlns="http://www.w3.org/2000/svg" viewBox="0 0 75 75" overflow="visible" xml:space="preserve"><path fill="#FFF" d="M0 0h75v75H0z"/><g fill="#ED2224"><path d="M30.5 52.2c1-.4 2-1 3-1.7h2.1v11.2h-2.4V53c-.5.4-1.4.9-2.6 1.4v-2.2zM40.6 58.6c0 .4.1 1.5 1.4 1.5.9 0 1.4-.7 1.4-1.5 0-1.6-1.6-1.6-2.8-1.6v-1.9c1.1 0 2.8-.1 2.8-1.7 0-.9-.7-1.3-1.4-1.3s-1.4.5-1.4 1.4h-2.4c0-.5.1-1.2.7-1.9.7-.9 1.9-1.2 3.1-1.2 2.8 0 3.8 1.8 3.8 3 0 1.9-1.6 2.4-2.1 2.5.4.1.8.3 1.3.7.8.7.9 1.5.9 2 0 1.9-1.7 3.3-4 3.3-.8 0-2-.2-2.7-.8-1-.8-1-2.1-1-2.5h2.4z"/></g><g fill="#ED2224"><path d="M37.846 11.152c4.501 0 8.732 1.75 11.914 4.932A16.736 16.736 0 0 1 54.693 28c0 4.502-1.75 8.732-4.933 11.914s-7.413 4.933-11.914 4.933-8.733-1.75-11.915-4.933S20.998 32.501 20.998 28s1.75-8.733 4.933-11.915a16.736 16.736 0 0 1 11.915-4.932m0-1.872c-10.343 0-18.72 8.377-18.72 18.719s8.377 18.719 18.72 18.719 18.718-8.377 18.718-18.72c0-10.341-8.376-18.718-18.718-18.718z"/><path d="M33.1 9.87c-8.077 2.077-14.039 9.406-14.039 18.129s5.962 16.051 14.04 18.13V9.868z"/></g></svg>