<svg version="1.2" baseProfile="tiny" xmlns="http://www.w3.org/2000/svg" viewBox="0 0 75 75" overflow="visible" xml:space="preserve"><path fill="#FFF" d="M0 0h75v75H0z"/><g fill="#ED2224"><path d="M30.5 52.2c1-.4 2-1 3-1.7h2.1v11.2h-2.4V53c-.5.4-1.4.9-2.6 1.4v-2.2zM40.7 58.9c0 .3.2 1.2 1.3 1.2.9 0 1.6-.6 1.6-2.1 0-1.1-.4-2-1.5-2s-1.3.9-1.4 1.1l-2.3-.1.3-6.6h6.8v1.8h-4.7l-.1 2.8c.4-.3.9-.8 2.1-.8 1.8 0 3.3 1.3 3.3 3.6 0 1.9-1.1 4-4 4-1.2 0-2.4-.3-3.1-1.2-.6-.7-.6-1.4-.6-1.8h2.3z"/></g><g fill="#ED2224"><path d="M37.851 11.152c4.502 0 8.732 1.75 11.915 4.932A16.736 16.736 0 0 1 54.698 28c0 4.502-1.75 8.732-4.932 11.914-3.183 3.183-7.413 4.933-11.915 4.933s-8.732-1.75-11.915-4.933A16.736 16.736 0 0 1 21.004 28c0-4.502 1.75-8.733 4.932-11.915a16.736 16.736 0 0 1 11.915-4.932m0-1.872c-10.342 0-18.719 8.377-18.719 18.719s8.377 18.719 18.719 18.719S56.57 38.34 56.57 27.998c0-10.341-8.377-18.718-18.719-18.718z"/><path d="M33.106 9.87c-8.077 2.077-14.04 9.406-14.04 18.129s5.963 16.051 14.04 18.13V9.868z"/></g></svg>