<svg version="1.2" baseProfile="tiny" xmlns="http://www.w3.org/2000/svg" viewBox="0 0 75 75" overflow="visible" xml:space="preserve"><path fill="#FFF" d="M0 0h75v75H0z"/><g fill="#ED2224"><path d="M30.5 52.2c1-.4 2-1 3-1.7h2.1v11.2h-2.4V53c-.5.4-1.4.9-2.6 1.4v-2.2zM38.1 59.2V57l4.5-6.6H45v6.9h1.5v1.8H45v2.4h-2.4v-2.4h-4.5zm1.8-1.8h2.8v-4.1l-2.8 4.1z"/></g><g fill="#ED2224"><path d="M37.848 11.152c4.502 0 8.733 1.75 11.915 4.932A16.736 16.736 0 0 1 54.695 28c0 4.502-1.75 8.732-4.932 11.914s-7.413 4.933-11.915 4.933-8.732-1.75-11.914-4.933S21 32.501 21 28s1.75-8.733 4.933-11.915a16.736 16.736 0 0 1 11.914-4.932m0-1.872c-10.342 0-18.719 8.377-18.719 18.719s8.377 18.719 18.72 18.719 18.718-8.377 18.718-18.72c0-10.341-8.377-18.718-18.719-18.718z"/><path d="M33.103 9.87c-8.077 2.077-14.04 9.406-14.04 18.129s5.963 16.051 14.04 18.13V9.868z"/></g></svg>