<svg version="1.2" baseProfile="tiny" xmlns="http://www.w3.org/2000/svg" viewBox="0 0 75 75" overflow="visible" xml:space="preserve"><path fill="#FFF" d="M0 0h75v75H0z"/><g fill="#ED2224"><path d="M30.5 52.2c1-.4 2-1 3-1.7h2v11.2h-2.4V53c-.5.4-1.4.9-2.6 1.4v-2.2zM43.8 53.3c0-.8-.6-1.1-1.2-1.1-1.6 0-1.6 2-1.7 3.1.4-.4 1-.9 2.2-.9 1.6 0 3.2 1.1 3.2 3.5 0 1.2-.3 2.1-1.2 2.9-.7.7-1.6 1-2.8 1-3.9 0-3.9-3.7-3.9-5.1 0-2.2.3-4.6 1.8-5.7 1-.7 2.1-.8 2.6-.8 1.7 0 3.3.9 3.3 2.9h-2.3zm.2 4.8c0-1.2-.6-1.9-1.4-1.9-.4 0-1.6.2-1.6 2 0 1.4.7 2 1.5 2 .6-.1 1.5-.6 1.5-2.1z"/></g><g fill="#ED2224"><path d="M37.844 11.152c4.502 0 8.733 1.75 11.915 4.932A16.736 16.736 0 0 1 54.69 28c0 4.502-1.75 8.732-4.932 11.914a16.736 16.736 0 0 1-11.915 4.933c-4.502 0-8.732-1.75-11.914-4.933A16.736 16.736 0 0 1 20.997 28c0-4.502 1.75-8.733 4.933-11.915a16.736 16.736 0 0 1 11.914-4.932m0-1.872c-10.342 0-18.719 8.377-18.719 18.719s8.377 18.719 18.72 18.719 18.718-8.377 18.718-18.72c0-10.341-8.376-18.718-18.719-18.718z"/><path d="M33.1 9.87c-8.078 2.077-14.04 9.406-14.04 18.129s5.962 16.051 14.04 18.13V9.868z"/></g></svg>