<svg version="1.2" baseProfile="tiny" xmlns="http://www.w3.org/2000/svg" viewBox="0 0 75 75" overflow="visible" xml:space="preserve"><path fill="#FFF" d="M0 0h75v75H0z"/><g fill="#ED2224"><path d="M30.6 52.2c1-.4 2-1 3-1.7h2.1v11.2h-2.4V53c-.5.4-1.4.9-2.6 1.4v-2.2zM38.4 53.4c0-1.4 1.1-3.1 3.9-3.1 2.2 0 3.8 1.3 3.8 3 0 1.3-1.1 2.3-2.2 2.4.4.1 1.2.3 1.8 1.2.4.5.5 1.1.5 1.7 0 2-1.9 3.2-4.1 3.2-2.3 0-3.8-1.5-3.8-3.2 0-.9.3-1.5.8-2s1.1-.7 1.5-.8c-.7-.2-2.2-.7-2.2-2.4zm5.4 5c0-1-.8-1.6-1.6-1.6-.9 0-1.6.7-1.6 1.6 0 1.1.8 1.7 1.6 1.7.7 0 1.6-.4 1.6-1.7zm-.1-5c0-.9-.7-1.4-1.5-1.4s-1.5.5-1.5 1.4c0 .8.6 1.4 1.4 1.4.9.1 1.6-.5 1.6-1.4z"/></g><g fill="#ED2224"><path d="M37.85 11.152c4.502 0 8.732 1.75 11.914 4.932A16.736 16.736 0 0 1 54.697 28c0 4.502-1.75 8.732-4.933 11.914s-7.412 4.933-11.914 4.933-8.733-1.75-11.915-4.933A16.736 16.736 0 0 1 21.003 28c0-4.502 1.75-8.733 4.932-11.915a16.736 16.736 0 0 1 11.915-4.932m0-1.872c-10.342 0-18.72 8.377-18.72 18.719s8.378 18.719 18.72 18.719c10.342 0 18.719-8.377 18.719-18.72 0-10.341-8.377-18.718-18.72-18.718z"/><path d="M33.105 9.87c-8.078 2.077-14.04 9.406-14.04 18.129s5.962 16.051 14.04 18.13V9.868z"/></g></svg>