<svg version="1.2" baseProfile="tiny" xmlns="http://www.w3.org/2000/svg" viewBox="0 0 75 75" overflow="visible" xml:space="preserve"><path fill="#FFF" d="M0 0h75v75H0z"/><path fill="#ED2224" d="m33.8 59.4 2.9-2.6c.5-.5 1.1-1 1.7-1.7.6-.8.8-1.1.8-1.6 0-.8-.5-1.4-1.3-1.4-1.3 0-1.4 1.3-1.4 1.6h-2.4c0-.4 0-1.3.7-2.1.6-.8 1.8-1.2 3.2-1.2 2.4 0 3.8 1.3 3.8 3 0 1.2-.4 2.6-5.3 6.5 1.6 0 1.8 0 3.1-.1h2.3v1.9h-7.8v-2.3z"/><g fill="#ED2224"><path d="M37.844 11.155c4.502 0 8.733 1.75 11.915 4.932 3.182 3.182 4.932 7.413 4.932 11.915s-1.75 8.732-4.932 11.914a16.736 16.736 0 0 1-11.915 4.933c-4.502 0-8.732-1.75-11.914-4.933-3.182-3.182-4.933-7.413-4.933-11.914s1.75-8.733 4.933-11.915a16.736 16.736 0 0 1 11.914-4.932m0-1.872c-10.342 0-18.719 8.376-18.719 18.719s8.377 18.718 18.72 18.718 18.718-8.376 18.718-18.718-8.376-18.72-18.719-18.72z"/><path d="M33.1 9.872c-8.078 2.078-14.04 9.407-14.04 18.13S25.022 44.053 33.1 46.13V9.872z"/></g></svg>