<svg version="1.2" baseProfile="tiny" xmlns="http://www.w3.org/2000/svg" viewBox="0 0 75 75" overflow="visible" xml:space="preserve"><path fill="#FFF" d="M0 0h75v75H0z"/><g fill="#ED2224"><path d="M31.2 52.2c1-.4 2-1 3-1.7h2.1v11.2h-2.4V53c-.5.4-1.4.9-2.6 1.4v-2.2zM38.6 52.2c1-.4 2-1 3-1.7h2.1v11.2h-2.4V53c-.5.4-1.4.9-2.6 1.4v-2.2z"/></g><g fill="#ED2224"><path d="M37.849 11.155c4.502 0 8.732 1.75 11.914 4.932 3.182 3.182 4.933 7.413 4.933 11.915s-1.75 8.732-4.933 11.914A16.736 16.736 0 0 1 37.85 44.85c-4.502 0-8.733-1.75-11.915-4.933s-4.932-7.413-4.932-11.914 1.75-8.733 4.932-11.915 7.413-4.932 11.915-4.932m0-1.872c-10.343 0-18.72 8.376-18.72 18.719S27.507 46.72 37.85 46.72s18.719-8.376 18.719-18.718-8.377-18.72-18.72-18.72z"/><path d="M33.103 9.872c-8.077 2.078-14.039 9.407-14.039 18.13s5.962 16.051 14.04 18.129V9.872z"/></g></svg>