<svg version="1.2" baseProfile="tiny" xmlns="http://www.w3.org/2000/svg" viewBox="0 0 75 75" overflow="visible" xml:space="preserve"><path fill="#FFF" d="M0 0h75v75H0z"/><g fill="#ED2224"><path d="M31 52.2c1-.4 2-1 3-1.7h2.1v11.2h-2.4V53c-.5.4-1.4.9-2.6 1.4v-2.2zM41.9 50.3c1.6 0 2.5.8 2.9 1.5.6.8 1 1.9 1 4 0 2.6-.6 6-4 6-2.9 0-3.9-2.8-3.9-5.7.1-1.5.4-5.8 4-5.8zm1.2 3.2c-.1-.3-.3-1.3-1.2-1.3-.7 0-1 .6-1.1 1-.4 1.1-.4 2.8-.4 3.1 0 1.9.3 3.7 1.5 3.7 1.3 0 1.5-2.2 1.5-3.7 0-.8-.1-2.1-.3-2.8z"/></g><g fill="#ED2224"><path d="M37.848 11.155c4.502 0 8.733 1.75 11.915 4.932s4.932 7.413 4.932 11.915-1.75 8.732-4.932 11.914-7.413 4.933-11.915 4.933-8.732-1.75-11.914-4.933S21 32.503 21 28.002s1.75-8.733 4.933-11.915 7.412-4.932 11.914-4.932m0-1.872c-10.342 0-18.719 8.376-18.719 18.719S27.506 46.72 37.85 46.72s18.718-8.376 18.718-18.718-8.377-18.72-18.719-18.72z"/><path d="M33.103 9.872c-8.077 2.078-14.04 9.407-14.04 18.13s5.963 16.051 14.04 18.129V9.872z"/></g></svg>