<svg version="1.2" baseProfile="tiny" xmlns="http://www.w3.org/2000/svg" viewBox="0 0 75 75" overflow="visible" xml:space="preserve"><path fill="#FFF" d="M0 0h75v75H0z"/><path fill="#ED2224" d="M36.3 58.9c0 .3.2 1.2 1.3 1.2.9 0 1.6-.6 1.6-2.1 0-1.1-.4-2-1.5-2s-1.3.9-1.4 1.1L34 57l.3-6.6h6.8v1.8h-4.7l-.1 2.8c.4-.3.9-.8 2.1-.8 1.8 0 3.3 1.3 3.3 3.6 0 1.9-1.1 4-4 4-1.2 0-2.4-.3-3.1-1.2-.6-.7-.6-1.4-.6-1.8h2.3z"/><g fill="#ED2224"><path d="M37.843 11.155c4.502 0 8.733 1.75 11.915 4.932 3.182 3.182 4.932 7.413 4.932 11.915s-1.75 8.732-4.932 11.914a16.736 16.736 0 0 1-11.915 4.933c-4.502 0-8.732-1.75-11.914-4.933-3.183-3.182-4.933-7.413-4.933-11.914s1.75-8.733 4.933-11.915a16.736 16.736 0 0 1 11.914-4.932m0-1.872c-10.342 0-18.719 8.376-18.719 18.719s8.377 18.718 18.72 18.718c10.341 0 18.718-8.376 18.718-18.718s-8.377-18.72-18.719-18.72z"/><path d="M33.098 9.872c-8.077 2.078-14.04 9.407-14.04 18.13s5.963 16.051 14.04 18.129V9.872z"/></g></svg>