<svg version="1.2" baseProfile="tiny" xmlns="http://www.w3.org/2000/svg" viewBox="0 0 75 75" overflow="visible" xml:space="preserve"><path fill="#FFF" d="M0 0h75v75H0z"/><path fill="#ED2224" d="M34.9 52.2c1-.4 2-1 3-1.7H40v11.2h-2.5V53c-.5.4-1.4.9-2.6 1.4v-2.2z"/><g fill="#ED2224"><path d="M37.851 11.155c4.502 0 8.732 1.75 11.915 4.932 3.182 3.182 4.932 7.413 4.932 11.915s-1.75 8.732-4.932 11.914c-3.183 3.182-7.413 4.933-11.915 4.933s-8.732-1.75-11.915-4.933c-3.182-3.182-4.932-7.413-4.932-11.914s1.75-8.733 4.932-11.915a16.736 16.736 0 0 1 11.915-4.932m0-1.872c-10.342 0-18.719 8.376-18.719 18.719S27.51 46.72 37.851 46.72 56.57 38.344 56.57 28.002 48.193 9.282 37.85 9.282z"/><path d="M33.106 9.872c-8.077 2.078-14.04 9.407-14.04 18.13s5.963 16.051 14.04 18.129V9.872z"/></g></svg>