<svg version="1.2" baseProfile="tiny" xmlns="http://www.w3.org/2000/svg" viewBox="0 0 75 75" overflow="visible" xml:space="preserve"><path fill="#FFF" d="M0 0h75v75H0z"/><path fill="#ED2224" d="M33.7 59.2V57l4.5-6.6h2.4v6.9h1.5v1.8h-1.6v2.4h-2.4v-2.4h-4.4zm1.8-1.8h2.8v-4.1l-2.8 4.1z"/><g fill="#ED2224"><path d="M37.85 11.155c4.502 0 8.732 1.75 11.914 4.932s4.933 7.413 4.933 11.915-1.75 8.732-4.933 11.914-7.412 4.933-11.914 4.933-8.733-1.75-11.915-4.933c-3.182-3.182-4.932-7.413-4.932-11.914s1.75-8.733 4.932-11.915a16.736 16.736 0 0 1 11.915-4.932m0-1.872c-10.342 0-18.72 8.376-18.72 18.719S27.509 46.72 37.85 46.72c10.342 0 18.719-8.376 18.719-18.718s-8.377-18.72-18.72-18.72z"/><path d="M33.105 9.872c-8.078 2.078-14.04 9.407-14.04 18.13s5.962 16.051 14.04 18.129V9.872z"/></g></svg>