<svg version="1.2" baseProfile="tiny" xmlns="http://www.w3.org/2000/svg" viewBox="0 0 75 75" overflow="visible" xml:space="preserve"><path fill="#FFF" d="M0 0h75v75H0z"/><path fill="#ED2224" d="M34 50.5h7.6v2l-3.8 9.2h-2.7l4.1-9.3h-5.1v-1.9z"/><g fill="#ED2224"><path d="M37.846 11.155c4.501 0 8.732 1.75 11.914 4.932s4.933 7.413 4.933 11.915-1.75 8.732-4.933 11.914-7.413 4.933-11.914 4.933-8.733-1.75-11.915-4.933-4.933-7.413-4.933-11.914 1.75-8.733 4.933-11.915 7.413-4.932 11.915-4.932m0-1.872c-10.343 0-18.72 8.376-18.72 18.719s8.377 18.718 18.72 18.718 18.718-8.376 18.718-18.718-8.376-18.72-18.718-18.72z"/><path d="M33.1 9.872c-8.077 2.078-14.039 9.407-14.039 18.13s5.962 16.051 14.04 18.129V9.872z"/></g></svg>