<svg version="1.2" baseProfile="tiny" xmlns="http://www.w3.org/2000/svg" viewBox="0 0 75 75" overflow="visible" xml:space="preserve"><path fill="#FFF" d="M0 0h75v75H0z"/><path fill="#ED2224" d="M39.4 53.3c0-.8-.6-1.1-1.2-1.1-1.6 0-1.6 2-1.7 3.1.4-.4 1-.9 2.2-.9 1.6 0 3.2 1.1 3.2 3.5 0 1.2-.3 2.1-1.2 2.9-.7.7-1.6 1-2.8 1-3.9 0-3.9-3.7-3.9-5.1 0-2.2.3-4.6 1.8-5.7 1-.7 2.1-.8 2.6-.8 1.7 0 3.3.9 3.3 2.9h-2.3zm.1 4.8c0-1.2-.6-1.9-1.4-1.9-.4 0-1.6.2-1.6 2 0 1.4.7 2 1.5 2 .7-.1 1.5-.6 1.5-2.1z"/><g fill="#ED2224"><path d="M37.846 11.155c4.502 0 8.732 1.75 11.915 4.932 3.182 3.182 4.932 7.413 4.932 11.915s-1.75 8.732-4.932 11.914a16.736 16.736 0 0 1-11.915 4.933c-4.502 0-8.732-1.75-11.915-4.933S21 32.503 21 28.002s1.75-8.733 4.932-11.915 7.413-4.932 11.915-4.932m0-1.872c-10.342 0-18.719 8.376-18.719 18.719S27.504 46.72 37.846 46.72s18.719-8.376 18.719-18.718-8.377-18.72-18.72-18.72z"/><path d="M33.1 9.872c-8.077 2.078-14.038 9.407-14.038 18.13S25.023 44.053 33.1 46.13V9.872z"/></g></svg>