<svg version="1.2" baseProfile="tiny" xmlns="http://www.w3.org/2000/svg" viewBox="0 0 75 75" overflow="visible" xml:space="preserve"><path fill="#ED2224" d="M0 0h75v75H0z"/><path fill="#FFF" d="M59.688 19.7v17h-26.5v-17h26.5zm-25.1 1.4v13.1l10.9-13.1h-10.9zm.9 14.2h21.8l-3.8-4.6h-14.2l-3.8 4.6zm22.7-14.2h-10.9l10.9 13.1V21.1z"/><g fill="#FFF"><path d="M13.788 53.1v-1.6c4.1-5.7 5.3-6.7 5.3-9.1 0-1.1-.5-1.8-1.7-1.8-1.4 0-1.6 1.1-1.6 2.3h-1.9c-.2-2.3 1-3.8 3.4-3.8 2.5 0 3.7 1.1 3.7 3.6 0 3.1-1.6 4.1-5.1 8.9h5.5v1.6h-7.6zM26.788 53.1V38.7h1.8v6.2h5.1v-6.2h1.8v14.4h-1.8v-6.6h-5.1v6.6h-1.8zM41.088 38.7h2.3l4.7 14.4h-2.1l-1-3.4h-5.6l-1.1 3.4h-1.9l4.7-14.4zm1.2 1.7-2.3 7.7h4.6l-2.3-7.7z"/><path d="M52.388 38.7h2.3l4.7 14.4h-2.1l-1-3.4h-5.6l-1.1 3.4h-1.9l4.7-14.4zm1.1 1.7-2.3 7.7h4.6l-2.3-7.7z"/></g><g fill="#FFF"><path d="M43.288 9.5h1v7.2h-1V9.5zM46.088 9.5h1v7.2h-1V9.5zM48.788 9.5h1v7.2h-1V9.5z"/></g><path fill="#FFF" d="M24.088 24.1c-.7.6-1.8 1.2-2.6 1.6v-1.6c1-.5 2.1-1.2 2.7-1.7h1.4v11.1h-1.5v-9.4zM36.288 61.8h2.6v.9h-2.6v-.9z"/><path fill="#ED2224" d="M0 75h75v75H0z"/></svg>