<svg version="1.2" baseProfile="tiny" xmlns="http://www.w3.org/2000/svg" viewBox="0 0 75 75" overflow="visible" xml:space="preserve"><path fill="#F04A23" d="M0 0h75v75H0z"/><path fill="#B12625" d="M-.012 18.7h75v18.8h-75z"/><path fill="#010101" d="M59.688 19.7v17h-26.5v-17h26.5zm-25.1 2.3v12.5l10.4-6.3-10.4-6.2zm22.3-.9h-20.9l10.4 6.3 10.5-6.3zm-20.9 14.2h20.9l-10.4-6.3-10.5 6.3zm11.8-7.1 10.4 6.3V22l-10.4 6.2z"/><g fill="#010101"><path d="M17.588 53.1h-1.8V41.2l-2.1 1.4v-1.8c.5-.2 1.8-1.2 2.3-1.7h1.6v14zM25.188 45.8c2 .2 2.6 1.8 2.6 3.6 0 2.5-1.3 4-3.7 4-2.4 0-3.7-1.5-3.7-4 0-1.8.5-3.4 2.6-3.6-1.6-.3-2.4-1.7-2.4-3.3 0-2.2 1.4-3.5 3.6-3.5s3.6 1.3 3.6 3.5c-.1 1.6-.9 2.9-2.6 3.3zm.8 3.6c0-1.2-.1-2.8-1.9-2.8-1.7 0-1.9 1.6-1.9 2.8 0 1.2.5 2.5 1.9 2.5s1.9-1.3 1.9-2.5zm-.2-7c0-1-.5-2.1-1.7-2.1s-1.7 1-1.7 2.1c0 1 .3 2.5 1.7 2.5 1.4.1 1.7-1.4 1.7-2.5zM36.588 38.7h2.3l4.7 14.4h-2.1l-1-3.4h-5.6l-1.1 3.4h-1.9l4.7-14.4zm1.2 1.7-2.3 7.7h4.6l-2.3-7.7zM49.788 43h1.6v8c0 .7 0 1.4.1 2.1h-1.7v-1.2h-.1c-.5.9-1.5 1.4-2.6 1.4-1.8 0-2.7-.9-2.7-2.6V43h1.6v7c0 1.2.6 2 1.7 2 .9 0 2-.7 2-2.3V43zM56.388 53.3c-2.2 0-3.5-1-3.5-3.3h1.9c0 .6 0 1.9 1.7 1.9 1 0 1.7-.5 1.7-1.5 0-1.8-5-1.8-5-4.9 0-1.1.6-2.8 3.5-2.8 1.8 0 3.3.9 3.2 2.9h-1.8c0-1.1-.5-1.6-1.6-1.6-.9 0-1.6.5-1.6 1.4 0 1.8 5 1.7 5 4.8 0 2.3-1.5 3.1-3.5 3.1z"/></g><path fill="#010101" d="m44.688 9.5 1.9 2.8 1.9-2.8h1.2l-2.6 3.5 2.7 3.8h-1.3l-2.1-3.1-2.2 3.1h-1.2l2.8-3.8-2.5-3.4h1.4z"/><g fill="#010101"><path d="M12.088 35.4c-.9-2.1-1.9-4.8-1.9-7.1 0-1.3.3-2.5.7-3.7.4-1.4.9-2.5 1.1-3.2h1.1c-.3.8-.6 1.9-.9 3.4-.3 1.5-.4 2.5-.4 3.5 0 2.3.6 4.1 1.5 7.2h-1.2zM16.688 30.6c0 1.1.7 1.8 2 1.8 1.6 0 2.2-1 2.2-2 0-1.2-.8-1.8-1.6-2-.6-.1-1-.1-1.5-.1V27c1.1.1 3-.1 3-1.9 0-1.2-.8-1.7-2-1.7-.8 0-1.9.4-2 1.7h-1.6c.1-2.8 2.7-3 3.6-3 2.4 0 3.6 1.5 3.6 3 0 .9-.5 2.2-2.2 2.6 2.4.3 2.4 2.5 2.4 2.7 0 1.6-1.3 3.3-3.8 3.3-1.2 0-2.3-.3-3-1.2-.6-.7-.6-1.5-.7-2h1.6zM25.488 21.4c.9 2.1 1.9 4.8 1.9 7.1 0 1.3-.3 2.5-.7 3.7-.4 1.4-.9 2.5-1.1 3.2h-1.1c.3-.8.6-1.9.9-3.4.3-1.5.4-2.5.4-3.5 0-2.3-.6-4.1-1.5-7.1h1.2z"/></g><path fill="#010101" d="m37.988 59.1 1.1 1.6-.7.4-.8-1.7-.8 1.7-.7-.4 1.1-1.6-1.9.2v-.8l1.9.1-1.1-1.5.7-.4.8 1.7.8-1.7.7.4-1.1 1.5 1.9-.1v.8l-1.9-.2z"/></svg>