<svg version="1.2" baseProfile="tiny" xmlns="http://www.w3.org/2000/svg" viewBox="0 0 75 75" overflow="visible" xml:space="preserve"><path fill="#B7872D" d="M0 0h75v75H0z"/><path fill="#B12625" d="M59.688 19.7v17h-26.5v-17h26.5zm-1.5 1.4h-23.6v14.2h23.6V21.1zm-21.3 5.3v-.5c0-.1 0-.1.1-.2 0-.1 0-.1.1-.1l.1-.1c.1 0 .1-.1.2-.1s.1-.1.2-.1H38.588s.1 0 .1.1l.1.1.1.1.1.1c.1.1.1.2.2.3 0 .1.1.2.2.4l.2.4c0 .1.1.1.1.2 0 0 .1.1.1.2s.1.1.1.1l.1.1h1c.1 0 .2-.1.3-.1.1 0 .2-.1.3-.1l.2-.1c.1 0 .1 0 .2-.1l.2-.1c.1 0 .1-.1.3-.1.1 0 .2-.1.4-.2.1-.1.2-.1.3-.2.1 0 .1-.1.1-.1l-.1-.1-.1-.1-.1-.1c-.1 0-.1-.1-.1-.1l-.3-.2c-.1-.1-.2-.1-.2-.2l-.1-.1c0-.1-.1-.1-.1-.2 0 0 0-.1-.1-.2 0-.1-.1-.2-.1-.3v-.5c0-.1 0-.1.1-.1l.1-.1.1-.1s.1 0 .1-.1h.5c.1 0 .2 0 .3.1H43.488l.8.3c.1 0 .3.1.3.1l.7.2c.1 0 .2 0 .2.1 0 0 .1 0 .3.1.2.1.3.1.5.1.1 0 .3.1.4.1H47.588c.1 0 .1 0 .2-.1l.4-.1s.1-.1.2-.1l.2-.1s.1-.1.2-.1.2-.1.3-.1l.5-.2c.2-.1.3-.1.3-.1s.2-.1.3-.1c.2-.1.3-.1.3-.1.1 0 .2 0 .3-.1.2-.1.3-.1.4-.1H51.488l.1.1.1.1c0 .1.1.1.1.1s0 .1.1.1v.8c0 .4-.1.5-.1.5v.1l-.1.1-.1.1s-.1 0-.1.1h-.1l-.3.1h-.1s-.1 0-.1.1h-.1l-.1.1-.1.1V26.4l-.1.2.1-.1.1.1h.1s.1 0 .1.1c.1 0 .1.1.2.1h.1l.2.1c.1 0 .1 0 .2.1h.2l.6.1H53.588l.1-.1c.1-.1.1-.2.2-.2.1-.1.1-.3.2-.5 0-.2.1-.2.1-.3v-1.1s0-.1.1-.1c0 0 .1-.1.2-.1H54.788s.1 0 .1.1c0 0 .1.1.2.1l.1.1s0 .1.1.1l.1.1.1.1v.1s0 .1.1.2l.1.3V29.8l-.1.4v.2l-.1.5V31.2l-.1.2s0 .1-.1.2c0 .1-.1.2-.1.3 0 .1-.1.1-.1.2l-.1.1s-.1.1-.1.2l-.2.2c-.1.1-.1.1-.2.1 0 0-.1 0-.2.1-.1 0-.1 0-.2.1H52.988s-.1 0-.1-.1c-.1 0-.1-.1-.1-.1l-.1-.1s0-.1-.1-.1c0-.1-.1-.1-.1-.2v-.6l.2-1.1V30s0-.1-.1-.1l-.1-.1s-.1 0-.1-.1c0 0-.1 0-.1-.1-.1 0-.1-.1-.2-.1s-.1-.1-.2-.1-.2-.1-.3-.1c-.1 0-.2-.1-.3-.1l-1.8-.5s-.1 0-.2-.1c-.1 0-.2-.1-.3-.1-.1 0-.2-.1-.4-.1l-.6-.1h-1.3c-.1 0-.2 0-.3.1-.2 0-.3.1-.3.1s-.1 0-.2.1c-.1 0-.3.1-.6.2s-.5.2-.8.3c-.2.1-.4.1-.6.2l-1.6.5c-.1 0-.1 0-.2.1-.1 0-.2.1-.2.1-.1 0-.1 0-.2.1 0 0-.1 0-.1.1 0 0-.1.1-.2.1s-.1.1-.1.1l-.1.1V31.5c0 .1 0 .1.1.2v.1l-.2.1.2-.1c0 .1 0 .1.1.2l.1.2c0 .1.1.2.1.2 0 .1.1.2.1.2v.8s0 .2-.1.2h-.5l-.1-.1s-.1 0-.1-.1l-.1-.1s-.1 0-.1-.1c-.1 0-.1-.1-.2-.1s-.1-.1-.1-.1l-.2-.2-.1-.1s-.1-.1-.1-.2l-.5-.6c-.1-.1-.1-.2-.2-.2l-.1-.1c0-.1-.1-.1-.1-.2l-.1-.1s-.1-.1-.1-.2c-.1-.1-.1-.2-.2-.3l-.2-.3c-.1-.1-.1-.2-.1-.3l-.4-.9c0-.1-.1-.1-.1-.2 0 0-.1-.2-.1-.3-.1-.2-.1-.3-.1-.4 0-.1-.1-.2-.1-.3 0-.1 0-.1-.1-.2 0 0 0-.1-.1-.2 0-.1 0-.2-.1-.3v-.2c-.4-.7-.4-.8-.4-.8z"/><g fill="#B12625"><path d="M14.788 53.1h-1.8V41.2l-2.1 1.4v-1.8c.5-.2 1.8-1.2 2.3-1.7h1.6v14zM24.088 48.8v.4c0 2 1.2 2.6 2.4 2.6 1.5 0 2.6-.6 2.6-2.3 0-3.2-6.5-2.8-6.5-7.2 0-2.6 1.8-3.9 4.2-3.9 2.6 0 4.1 1.3 4 4.2h-1.9c0-1.6-.5-2.6-2.2-2.6-1.1 0-2.2.6-2.2 2.1 0 3.2 6.5 2.7 6.5 7.3 0 3-2.1 4-4.5 4-4.3 0-4.3-3.2-4.2-4.6h1.8zM36.088 38.7h2.3l4.7 14.4h-2.1l-1-3.4h-5.6l-1.1 3.4h-1.9l4.7-14.4zm1.1 1.7-2.3 7.7h4.6l-2.3-7.7zM45.788 46.5v6.6h-1.8V38.7h5c2.6 0 3.5 1.8 3.5 3.6 0 1.7-.9 3-2.6 3.3 1.7.3 2.3.8 2.4 3.7 0 .6.2 2.9.5 3.8h-1.9c-.5-1-.4-2.9-.6-4.8-.1-1.8-1.6-1.8-2.2-1.8h-2.3zm0-1.6h2.8c1.3 0 2-1.1 2-2.4 0-1-.5-2.2-1.9-2.2h-2.8v4.6zM60.488 42.7c0-.8 0-1.6-.4-2.1s-1.2-.6-1.6-.6c-1.5 0-2.1.9-2.2 1.1-.1.2-.4.5-.4 3V48c0 3.5 1.2 4 2.6 4 .6 0 2.3-.2 2.3-3h1.9c.1 4.6-3.1 4.6-4.1 4.6-1.8 0-4.6-.1-4.6-5.7v-4.1c0-4.1 1.8-5.2 4.6-5.2 2.9 0 4 1.5 3.8 4.3h-1.9z"/></g><g fill="#B12625"><path d="M44.688 9.5h1v7.2h-1V9.5zM47.488 9.5h1v7.2h-1V9.5z"/></g><path fill="#B12625" d="M24.088 24.1c-.7.6-1.8 1.2-2.6 1.6v-1.6c1-.5 2.1-1.2 2.7-1.7h1.4v11.1h-1.5v-9.4zM36.288 61.8h2.6v.9h-2.6v-.9z"/></svg>