<svg version="1.2" baseProfile="tiny" xmlns="http://www.w3.org/2000/svg" viewBox="0 0 75 75" overflow="visible" xml:space="preserve"><path fill="#B12625" d="M0 0h75v75H0z"/><path fill="#010101" d="M59.688 19.7v17h-26.5v-17h26.5zm-1.5 1.4h-23.6v14.2h23.6V21.1zm-14.5 7.1c0-1.4 1.2-2.6 2.8-2.6 1.5 0 2.8 1.2 2.8 2.6s-1.2 2.6-2.8 2.6c-1.6 0-2.8-1.1-2.8-2.6z"/><g fill="#010101"><path d="M13.688 53.1v-1.6c4.1-5.7 5.3-6.7 5.3-9.1 0-1.1-.5-1.8-1.7-1.8-1.4 0-1.6 1.1-1.6 2.3h-1.9c-.2-2.3 1-3.8 3.4-3.8 2.5 0 3.7 1.1 3.7 3.6 0 3.1-1.6 4.1-5.1 8.9h5.5v1.6h-7.6zM28.588 53.1h-1.8V38.7h1.8v14.4zM36.388 53.1v-7c0-1.1-.4-2-1.8-2-1.8 0-2.1 1.6-2.1 3v6h-1.6v-8c0-.7 0-1.4-.1-2.1h1.7v1.3h.1c.6-1.1 1.4-1.5 2.7-1.5 2.2 0 2.7 1.3 2.7 3.3v7h-1.6zM39.988 53.1V38.7h7.2v1.6h-5.3v4.6h5v1.6h-5v6.6h-1.9zM49.388 53.1h-1.6V38.7h1.6v14.4zM56.588 38.7h1.6v14.4h-1.6v-1.2c-.6.9-1.3 1.4-2.3 1.4-1.6 0-3.3-.6-3.3-5.1 0-2.5.1-5.4 3.3-5.4 1 0 1.7.4 2.2 1.2h.1v-5.3zm-1.9 5.5c-1.8 0-2 1.4-2 4.1 0 1.5 0 3.7 2.1 3.7 1.8 0 1.8-2.3 1.8-4.3 0-1.4-.1-3.5-1.9-3.5z"/></g><g fill="#010101"><path d="M44.688 9.5h1v7.2h-1V9.5zM47.488 9.5h1v7.2h-1V9.5z"/></g><path fill="#010101" d="M24.088 24.1c-.7.6-1.8 1.2-2.6 1.6v-1.6c1-.5 2.1-1.2 2.7-1.7h1.4v11.1h-1.5v-9.4z"/><g fill="#010101"><path d="M19.588 60.7c1 .1 1.7-.3 1.7-1.4 0-.8-.3-1.3-1.2-1.3-.9 0-1.1.7-1 1.4h-1.1c-.1-1.4.6-2.3 2.1-2.3 1.4 0 2.3.7 2.3 2.2 0 1.6-1.2 1.8-1.6 1.9 1.3.2 1.7.9 1.7 2.1 0 1.6-.9 2.4-2.5 2.4-2.3 0-2.1-2-2.1-2.5h1.1c0 .8.1 1.5 1.1 1.5s1.3-.6 1.3-1.5c0-1.3-.5-1.6-1.8-1.6v-.9zM26.788 65.5h-1.1v-8.7h1.1v8.7zM31.588 65.5v-4.2c0-.6-.2-1.2-1.1-1.2-1.1 0-1.2 1-1.2 1.8v3.6h-1v-4.8c0-.4 0-.8-.1-1.3h1v.8c.4-.7.8-.9 1.6-.9 1.3 0 1.6.8 1.6 2v4.2h-.8zM34.988 65.5h-1v-8.7h1.8l2.2 7.3 2.2-7.3h1.8v8.7h-1.1v-7.7l-2.4 7.7h-1l-2.4-7.7v7.7zM43.388 59.5v-1.2l1-.4v1.6h1.3v.7h-1.3v3.7c0 .4 0 .9.9.9h.4v.8c-.3 0-.6.1-1 .1-.9 0-1.4-.4-1.4-1.1v-4.3h-1v-.7h1.1zM47.188 60.4c.4-.9.9-1 1.9-1v1h-.6c-1.1 0-1.4.8-1.4 1.6v3.6h-1v-6.1h1v.9zM57.488 65.5h-1.3l-2-3.7-1.9 3.7h-1.2l2.5-4.5-2.4-4.2h1.3l1.8 3.4 1.8-3.4h1.2l-2.3 4.2 2.5 4.5z"/></g></svg>