<svg version="1.2" baseProfile="tiny" xmlns="http://www.w3.org/2000/svg" viewBox="0 0 75 75" overflow="visible" xml:space="preserve"><path fill="#DEB887" d="M0 0h75v75H0z"/><path fill="#010101" d="M20.8 21.5h33.6v22.4H20.8V21.5zm15.1 11.2-13.3-8.9v17.7l13.3-8.8zm-10.7-9.3 12.4 8.2L50 23.4H25.2zm18.9 16.7c1.3.6 1.7 1.4 1.7 2H50l-12.4-8.2-12.4 8.2h4.2c0-.5.4-1.4 1.7-2 .8-.3 1.8-.5 2.8-.5 1.1 0 2.1.2 2.9.5.3.1.5.6.8.4.2-.2.5-.3.8-.4.8-.3 1.8-.5 2.9-.5 1 0 2 .2 2.8.5zm-7.6 2c-.1-.1-.3-.2-.5-.3-.5-.2-1.3-.4-2.1-.4-1.4 0-2.3.4-2.6.6h5.2zm7.3 0c-.2-.1-.3-.2-.5-.3-.5-.2-1.3-.4-2.1-.4-1.4 0-2.3.4-2.6.6h5.2zm-4.6-9.4 13.3 8.9V23.9l-13.3 8.8z"/><g fill="#010101"><path d="M18 59.5c3.4-7.9 3.4-7.9 3.4-8h3.7v8.6h1.1v2.2h-1.1v3.2h-2.8v-3.2H18v-2.8zm4.5.7.2-6.7-2.5 6.7h2.3zM32.2 59.1v2h-4.9v-2h4.9zM36.6 57.2c.5-.6 1.2-.9 2.1-.9 2.3 0 3 1.6 3 4.6 0 3.7-1.4 4.8-4.3 4.8-2.3 0-3.8-1-3.7-3.5h2.8c0 .4 0 .7.2 1 .2.3.4.4.9.4 1.1 0 1.3-.9 1.3-2.8 0-.9.1-2.8-1.2-2.8-.8 0-1.1.9-1.1 1.6h-2.7v-8.1h7.3v2.2h-4.5v3.5zM47.7 59.1v2h-4.9v-2h4.9zM52 62.3c0 .4 0 .7.2 1 .2.3.4.4.8.4 1.4 0 1.2-1.1 1.2-4.5-.6.6-1.4.9-2.3.9-2.1 0-3-1.9-3-3.8 0-2.7.8-5 4-5 4.1 0 4.1 3.3 4.1 7.2 0 3.4-.1 7.1-4.1 7.1-2.4 0-3.8-.8-3.8-3.5H52zm1-4.1c1.2 0 1.3-1.6 1.3-2.5 0-.9 0-2.4-1.2-2.4s-1.2 1.6-1.2 2.5-.1 2.4 1.1 2.4z"/></g><g fill="#010101"><path d="M34.9 9.3h1.9V18h-1.9V9.3zM38.2 9.3h1.9V18h-1.9V9.3z"/></g><path fill="#010101" d="M11.4 35.2c-.3-.6-.7-1.2-1.3-1.6V32h8.4v1.8h-6.4c.4.4.7.9.9 1.4h-1.6z"/><g fill="#010101"><path d="M56.4 39v-3.3c0-1.7 1-2.3 2.6-2.3 1 0 2.5.3 2.5 2.4v1.3H65v1.8h-8.6zm3.8-1.8v-1c0-.5-.6-.9-1.2-.9-.7 0-1.3.2-1.3 1v.9h2.5zM65 30.6v1.8h-8.7v-3.3c0-1.2.8-2 2.3-2 1.1 0 1.9.4 2.1 1.6 0-.4.1-1.6 1.7-1.6.6 0 2.2 0 2.5-.2v1.8c-.5.2-1.1.2-1.7.2-1 0-1.9-.1-1.9 1.3v.5H65zm-4.9 0v-.8c0-.7-.7-.9-1.3-.9-.8 0-1.1.3-1.1.9v.8h2.4z"/></g></svg>