<svg version="1.2" baseProfile="tiny" xmlns="http://www.w3.org/2000/svg" viewBox="0 0 75 75" overflow="visible" xml:space="preserve"><path fill="#DEB887" d="M0 0h75v75H0z"/><path fill="#010101" d="M54.3 21.5v22.4H20.7V21.5h33.6zm-10.7 4.7c.5 0 1.1.1 1.6.3l4.7-3.1H22.6v18.2l5.5-3.7c-1.1-1-1.7-2.3-1.7-3.8v-2.8c0-2.8 2.3-5.1 5.1-5.1h12.1zM29.9 39l-4.7 3.1h27.3V23.9L47 27.5c1.1 1 1.7 2.3 1.7 3.8v2.8c0 2.8-2.3 5.1-5.1 5.1H31.5c-.5 0-1.1-.1-1.6-.2zm-.2-2.1 13.1-8.8H31.5c-1.8 0-3.3 1.5-3.3 3.3v2.8c0 1 .6 2.1 1.5 2.7zm17.2-5.5c0-1.1-.5-2.1-1.5-2.8l-13.2 8.8h11.4c1.8 0 3.3-1.5 3.3-3.3v-2.7z"/><g fill="#010101"><path d="M30.2 51.1v10.2c0 2.2-1.2 4.4-4.9 4.4-3.3 0-4.9-1.7-4.9-4.4V51.1h3v10c0 1.8.8 2.5 1.9 2.5 1.3 0 1.9-.9 1.9-2.5v-10h3zM37.2 59.1v2h-4.9v-2h4.9zM39.1 53.7c1-.6 2-1.2 2.7-2.2h2.7v14h-3V54.8c-.7.6-1.5 1.1-2.4 1.6v-2.7zM50.5 57.2c.5-.6 1.2-.9 2.1-.9 2.3 0 3 1.6 3 4.6 0 3.7-1.4 4.8-4.3 4.8-2.3 0-3.8-1-3.7-3.5h2.8c0 .4 0 .7.2 1 .2.3.4.4.9.4 1.1 0 1.3-.9 1.3-2.8 0-.9.1-2.8-1.2-2.8-.8 0-1.1.9-1.1 1.6h-2.7v-8.1h7.3v2.2h-4.5v3.5z"/></g><path fill="#010101" d="M36.6 9.3h1.9V18h-1.9V9.3z"/><g fill="#010101"><path d="M65 44.6v1.8h-8.7v-3.3c0-1.2.8-2 2.3-2 1.1 0 1.9.4 2.1 1.6 0-.4.1-1.6 1.7-1.6.6 0 2.2 0 2.5-.2v1.8c-.5.2-1.1.2-1.7.2-1 0-1.9-.1-1.9 1.3v.5H65zm-4.9 0v-.8c0-.7-.7-.9-1.3-.9-.8 0-1.1.3-1.1.9v.8h2.4zM65.2 37.4c0 2.2-1.3 2.7-2.8 2.6v-1.8c.8 0 1.5 0 1.5-1 0-.6-.4-.9-1-.9-1.6 0-1.7 3.6-4.2 3.6-1.4 0-2.4-.6-2.4-2.9 0-1.8.8-2.6 2.6-2.5v1.8c-.6 0-1.3.1-1.3.8 0 .6.3.9.9.9 1.6 0 1.5-3.6 4.2-3.6 2.2-.1 2.5 1.6 2.5 3zM56.4 33v-3c0-2.4 1.6-2.8 4.3-2.8 1.3 0 4.4-.2 4.4 2.9v3h-8.7zm7.3-1.8v-.9c0-1.1-.8-1.3-3-1.3-1.6 0-3 0-3 1.3v.9h6zM59 21.8c-.8 0-1.5.1-1.5 1.1 0 1.1 1.5 1.1 3.2 1.1 2.7 0 3.2-.3 3.2-1.3 0-.3-.1-.6-.2-.9h-1.9v1h-1.3V20h4.4c.1.5.3 1.7.3 2.4 0 3-1.3 3.4-4.5 3.4-2.2 0-4.4-.1-4.4-3.1 0-1.8 1-2.9 2.8-2.8v1.9z"/></g></svg>