<svg version="1.2" baseProfile="tiny" xmlns="http://www.w3.org/2000/svg" viewBox="0 0 75 75" overflow="visible" xml:space="preserve"><path fill="#DEB887" d="M0 0h75v75H0z"/><path fill="#010101" d="M20.6 26.1h33.6v22.4H20.6V26.1zm31.8 20.5V28H22.5v18.7h29.9zm-21-2.8c-2.8 0-5.1-2.3-5.1-5.2v-2.7c0-2.8 2.3-5.1 5.1-5.1h12.1c2.8 0 5.1 2.3 5.1 5.1v2.7c0 2.8-2.3 5.1-5.1 5.2H31.4zM28.1 36v2.7c0 1.8 1.5 3.3 3.3 3.3h12.1c1.8 0 3.3-1.5 3.3-3.3V36c0-1.8-1.4-3.3-3.3-3.3H31.4c-1.8 0-3.3 1.4-3.3 3.3zm9.3 4.7c-1.9 0-3.4-1.5-3.4-3.4s1.5-3.4 3.4-3.4 3.4 1.5 3.4 3.4-1.5 3.4-3.4 3.4z"/><g fill="#010101"><path d="M61.3 49.7c-4.7-2-4.8-2-4.8-2v-2.2h5.2v-.7H63v.7h1.9v1.7H63v2.6h-1.7zm.4-2.7-4-.1 4 1.5V47zM60.7 39.6c2.6 0 4.3.2 4.3 2.4s-1.7 2.4-4.3 2.4c-3.2 0-4.3-.4-4.3-2.4s1.1-2.4 4.3-2.4zm.1 3.1c2.5 0 3.1-.1 3.1-.7s-.5-.7-3.1-.7-3.1 0-3.1.7.5.7 3.1.7zM64.9 36.8v1.8h-8.7v-3.3c0-1.2.8-2 2.3-2 1.1 0 1.9.4 2.1 1.6 0-.4.1-1.6 1.7-1.6.6 0 2.2 0 2.5-.2v1.8c-.5.2-1.1.2-1.7.2-1 0-1.9-.1-1.9 1.3v.5h3.7zm-4.9 0V36c0-.7-.7-.9-1.3-.9-.8 0-1.1.3-1.1.9v.8H60zM64.9 32.5l-8.7-2.4v-2.4l8.7-2.4v1.9l-1.9.5v2.5l1.9.5v1.8zM58 29.1l3.7.9v-1.7l-3.7.8z"/></g></svg>