<svg version="1.2" baseProfile="tiny" xmlns="http://www.w3.org/2000/svg" viewBox="0 0 75 75" overflow="visible" xml:space="preserve"><path fill="#DEB887" d="M0 0h75v75H0z"/><path fill="#010101" d="M20.6 26.1h33.6v22.4H20.6V26.1zm31.8 20.5V28H22.5v18.7h29.9zm-21-2.8c-2.8 0-5.1-2.3-5.1-5.2v-2.7c0-2.8 2.3-5.1 5.1-5.1h12.1c2.8 0 5.1 2.3 5.1 5.1v2.7c0 2.8-2.3 5.1-5.1 5.2H31.4zM28.1 36v2.7c0 1.8 1.5 3.3 3.3 3.3h12.1c1.8 0 3.3-1.5 3.3-3.3V36c0-1.8-1.4-3.3-3.3-3.3H31.4c-1.8 0-3.3 1.4-3.3 3.3zm9.3 4.7c-1.9 0-3.4-1.5-3.4-3.4s1.5-3.4 3.4-3.4 3.4 1.5 3.4 3.4-1.5 3.4-3.4 3.4z"/><g fill="#010101"><path d="M33 65.5V63c4.4-5.9 5.3-6.5 5.3-8.3 0-.7-.3-1.4-1.1-1.4-1.2 0-1.2 1.1-1.2 2h-2.8c-.2-2.6 1.3-4 3.8-4 2.4 0 4.1 1 4.1 3.6 0 3.1-3.7 6.7-5.2 8.4h5.3v2.2H33zM47.5 59v2h-4.9v-2h4.9zM49.3 53.7c1-.6 2-1.2 2.7-2.2h2.7v14h-3V54.8c-.7.6-1.5 1.1-2.4 1.6v-2.7zM57.5 65.5V63c4.4-5.9 5.3-6.5 5.3-8.3 0-.7-.3-1.4-1.1-1.4-1.2 0-1.2 1.1-1.2 2h-2.8c-.2-2.6 1.3-4 3.8-4 2.4 0 4.1 1 4.1 3.6 0 3.1-3.7 6.7-5.2 8.4h5.3v2.2h-8.2z"/></g><g fill="#010101"><path d="M17.6 12.9c0-1.4.3-2.4 1-2.9.6-.5 1.6-.7 3-.7 2.6 0 3.8 1.1 3.8 3.7 0 1.3-.4 2.9-1.9 3.1 1.8.3 2.1 1.8 2.1 3.4 0 2.9-1.5 4.1-4.4 4.1-2.8 0-3.8-1-3.8-4h2.8c0 .9 0 1.9 1.2 1.9 1.3 0 1.4-1.2 1.4-2.2 0-2-.7-2.1-2.6-2.1V15c1.8.1 2.4-.1 2.4-2.1 0-.8-.1-1.7-1.1-1.7s-1.1.8-1.1 1.6h-2.8zM31.8 16.9v2h-4.9v-2h4.9zM32.9 23.3v-2.5c4.4-5.9 5.3-6.5 5.3-8.3 0-.7-.3-1.4-1.1-1.4-1.2 0-1.2 1.1-1.2 2h-2.8c-.2-2.6 1.3-4 3.8-4 2.4 0 4.1 1 4.1 3.6 0 3.1-3.7 6.7-5.2 8.4h5.3v2.2h-8.2zM47.4 16.9v2h-4.9v-2h4.9zM49.2 11.5c1-.6 2-1.2 2.7-2.2h2.7v14h-3V12.6c-.7.6-1.5 1.1-2.4 1.6v-2.7zM57.6 17.3C61 9.4 61 9.4 61 9.3h3.7v8.6h1.1v2.2h-1.1v3.2h-2.8v-3.2h-4.3v-2.8zm4.5.7.2-6.7-2.5 6.7h2.3z"/></g><path fill="#010101" d="M11.3 39.8c-.3-.6-.7-1.2-1.3-1.6v-1.6h8.4v1.8H12c.4.4.7.9.9 1.4h-1.6z"/><g fill="#010101"><path d="M61.3 49.7c-4.7-2-4.8-2-4.8-2v-2.2h5.2v-.7H63v.7h1.9v1.7H63v2.6h-1.7zm.4-2.7-4-.1 4 1.5V47zM60.7 39.6c2.6 0 4.3.2 4.3 2.4s-1.7 2.4-4.3 2.4c-3.2 0-4.3-.4-4.3-2.4s1.1-2.4 4.3-2.4zm.1 3.1c2.5 0 3.1-.1 3.1-.7s-.5-.7-3.1-.7-3.1 0-3.1.7.5.7 3.1.7zM64.9 36.8v1.8h-8.7v-3.3c0-1.2.8-2 2.3-2 1.1 0 1.9.4 2.1 1.6 0-.4.1-1.6 1.7-1.6.6 0 2.2 0 2.5-.2v1.8c-.5.2-1.1.2-1.7.2-1 0-1.9-.1-1.9 1.3v.5h3.7zm-4.9 0V36c0-.7-.7-.9-1.3-.9-.8 0-1.1.3-1.1.9v.8H60zM64.9 32.5l-8.7-2.4v-2.4l8.7-2.4v1.9l-1.9.5v2.5l1.9.5v1.8zM58 29.1l3.7.9v-1.7l-3.7.8z"/></g></svg>