<svg version="1.2" baseProfile="tiny" xmlns="http://www.w3.org/2000/svg" viewBox="0 0 75 75" overflow="visible" xml:space="preserve"><path fill="#F04A23" d="M0 0h75v75H0z"/><g fill="#F6EB16"><path d="M28.2 26.9h7.7v1.9h-5.3v2.8h4.9v1.9h-4.9v3.1H36v1.9h-7.9V26.9zM37.8 27h4.3c.7 0 2 0 2.8.5 1.1.7 1.3 1.8 1.3 2.5 0 .4-.1 1.2-.7 1.7-.1.1-.6.6-1.3.8 1.8.3 2.4 1.6 2.4 2.8 0 1.4-.8 2.3-1.7 2.7-.9.5-2.5.5-2.9.5h-4.3V27zm2.4 4.7h1.7c.7 0 2 0 2-1.5 0-1.4-1.2-1.4-2-1.4h-1.7v2.9zm0 5h1.7c1.1 0 2.4 0 2.4-1.6s-1.5-1.6-2.7-1.6h-1.4v3.2zM20.8 21.5h33.5v1.9H20.8v-1.9zM20.8 42h33.5v1.9H20.8V42zM18.5 53.7c1-.6 2-1.2 2.7-2.2h2.7v14h-3V54.8c-.7.6-1.5 1.1-2.4 1.6v-2.7zM32.2 59.1v2h-4.9v-2h4.9zM33.5 55.1c0-1.4.3-2.4 1-2.9.6-.5 1.6-.7 3-.7 2.6 0 3.8 1.1 3.8 3.7 0 1.3-.4 2.9-1.9 3.1 1.8.3 2.1 1.8 2.1 3.4 0 2.9-1.5 4.1-4.4 4.1-2.8 0-3.8-1-3.8-4h2.8c0 .9 0 1.9 1.2 1.9 1.3 0 1.4-1.2 1.4-2.2 0-2-.7-2.1-2.6-2.1v-2.2c1.8.1 2.4-.1 2.4-2.1 0-.8-.1-1.7-1.1-1.7s-1.1.8-1.1 1.6h-2.8zM47.7 59.1v2h-4.9v-2h4.9zM49 62c0-1.7.3-3.1 2.1-3.8-1.6-.4-1.9-1.6-1.9-3 0-2.5 1.3-3.7 3.9-3.7s3.9 1.2 3.9 3.7c0 1.5-.4 2.6-1.9 3 1.8.6 2.1 2.1 2.1 3.8 0 2.6-1.4 3.8-4 3.8S49 64.6 49 62zm2.8-.2c0 .8.1 1.9 1.2 1.9s1.2-1.1 1.2-1.9c0-.8 0-2.5-1.2-2.5s-1.2 1.6-1.2 2.5zm.2-6.5c0 .7.1 1.9 1.1 1.9s1.1-1.2 1.1-1.9-.1-1.8-1.1-1.8c-1-.1-1.1 1.1-1.1 1.8zM34.9 9.3h1.9V18h-1.9V9.3zM38.2 9.3h1.9V18h-1.9V9.3zM11.7 37.6l6.8 2v1.9l-7.1-2.3v2.9h-1.3v-4.5h1.6zM18.5 36.3H9.8v-4.7h1.3v2.9h2.1v-2.7h1.3v2.7H17v-3h1.3v4.8zM18.5 30.3H9.8v-3.2c0-1.4.4-2.5 2.2-2.5 1 0 1.7.5 1.9 1.5.2-1.3 1-1.6 2.2-1.6 2.2 0 2.3 1.9 2.3 2.7v3.1zm-5.1-1.8v-1.2c0-.4-.3-.9-1.1-.9-.6 0-1.1.4-1.1 1v1.1h2.2zm3.8 0v-1c0-.4 0-1.2-1.2-1.2-.8 0-1.2.3-1.2 1.2v1.1h2.4z"/></g></svg>