<svg version="1.2" baseProfile="tiny" xmlns="http://www.w3.org/2000/svg" viewBox="0 0 75 75" overflow="visible" xml:space="preserve"><path fill="#F04A23" d="M0 0h75v75H0z"/><g fill="#F6EB16"><path d="M28.2 26.9h7.7v1.9h-5.3v2.8h4.9v1.9h-4.9v3.1H36v1.9h-7.9V26.9zM37.8 27h4.3c.7 0 2 0 2.8.5 1.1.7 1.3 1.8 1.3 2.5 0 .4-.1 1.2-.7 1.7-.1.1-.6.6-1.3.8 1.8.3 2.4 1.6 2.4 2.8 0 1.4-.8 2.3-1.7 2.7-.9.5-2.5.5-2.9.5h-4.3V27zm2.4 4.7h1.7c.7 0 2 0 2-1.5 0-1.4-1.2-1.4-2-1.4h-1.7v2.9zm0 5h1.7c1.1 0 2.4 0 2.4-1.6s-1.5-1.6-2.7-1.6h-1.4v3.2zM20.8 21.5h33.5v1.9H20.8v-1.9zM20.8 42h33.5v1.9H20.8V42zM34.7 51.1v10.2c0 2.2-1.2 4.4-4.9 4.4-3.3 0-4.9-1.7-4.9-4.4V51.1h3v10c0 1.8.8 2.5 1.9 2.5 1.3 0 1.9-.9 1.9-2.5v-10h3zM41.6 59.1v2h-4.9v-2h4.9zM42.9 62c0-1.7.3-3.1 2.1-3.8-1.6-.4-1.9-1.6-1.9-3 0-2.5 1.3-3.7 3.9-3.7 2.6 0 3.9 1.2 3.9 3.7 0 1.5-.4 2.6-1.9 3 1.8.6 2.1 2.1 2.1 3.8 0 2.6-1.4 3.8-4 3.8s-4.2-1.2-4.2-3.8zm2.8-.2c0 .8.1 1.9 1.2 1.9s1.2-1.1 1.2-1.9c0-.8 0-2.5-1.2-2.5s-1.2 1.6-1.2 2.5zm.2-6.5c0 .7.1 1.9 1.1 1.9s1.1-1.2 1.1-1.9-.1-1.8-1.1-1.8-1.1 1.1-1.1 1.8zM34.9 9.3h1.9V18h-1.9V9.3zM38.2 9.3h1.9V18h-1.9V9.3z"/></g></svg>