<svg version="1.2" baseProfile="tiny" xmlns="http://www.w3.org/2000/svg" viewBox="0 0 75 75" overflow="visible" xml:space="preserve"><path fill="#7F1416" d="M0 0h75v75H0z"/><path fill="#D3D3D3" d="M20.6 26.1h33.6v22.4H20.6V26.1zm31.8 20.5V27.9H22.5v18.7h29.9zm-9.2-8.4H25.4v-1.9h17.8v1.9zm3.6-.9c0-2.2-1.4-4.6-4.5-4.6h-11v-1.9h11c2 0 3.6.7 4.7 2 1 1.2 1.6 2.8 1.6 4.4s-.5 3.3-1.6 4.4c-1.2 1.3-2.8 2-4.7 2h-11v-1.9h11c1.4 0 2.6-.5 3.4-1.4.7-.6 1.1-1.8 1.1-3z"/><g fill="#D3D3D3"><path d="M57.9 46.4c-.3-.6-.7-1.2-1.3-1.6v-1.6H65V45h-6.4c.4.4.7.9.9 1.4h-1.6zM64.9 40.9h-8.7v-4.7h1.3v2.9h2.1v-2.7h1.3v2.7h2.5v-3h1.3v4.8zM59 30.9c-.8 0-1.5.1-1.5 1.1 0 1.1 1.5 1.1 3.2 1.1 2.7 0 3.2-.3 3.2-1.3 0-.3-.1-.6-.2-.9h-1.9v1h-1.3v-2.8h4.4c.1.5.3 1.7.3 2.4 0 3-1.3 3.4-4.5 3.4-2.2 0-4.4-.1-4.4-3.1 0-1.8 1-2.9 2.8-2.8v1.9z"/></g></svg>