<svg version="1.2" baseProfile="tiny" xmlns="http://www.w3.org/2000/svg" viewBox="0 0 75 75" overflow="visible" xml:space="preserve"><path fill="#9ED08A" d="M0 0h75v75H0z"/><path fill="#010101" d="M54.3 21.5v22.4H20.7V21.5h33.6zm-10.7 4.7c.5 0 1.1.1 1.6.3l4.7-3.1H22.6v18.2l5.5-3.7c-1.1-1-1.7-2.3-1.7-3.8v-2.8c0-2.8 2.3-5.1 5.1-5.1h12.1zM29.9 39l-4.7 3.1h27.3V23.9L47 27.5c1.1 1 1.7 2.3 1.7 3.8v2.8c0 2.8-2.3 5.1-5.1 5.1H31.5c-.5 0-1.1-.1-1.6-.2zm-.2-2.1 13.1-8.8H31.4c-1.8 0-3.3 1.5-3.3 3.3v2.8c.1 1 .7 2.1 1.6 2.7zm17.2-5.5c0-1.1-.5-2.1-1.5-2.8l-13.2 8.8h11.4c1.8 0 3.3-1.5 3.3-3.3v-2.7z"/><g fill="#010101"><path d="M14.1 53.7c1-.6 2-1.2 2.7-2.2h2.7v14h-3V54.8c-.7.6-1.5 1.1-2.4 1.6v-2.7zM27.8 59.1v2h-4.9v-2h4.9zM29.6 53.7c1-.6 2-1.2 2.7-2.2H35v14h-3V54.8c-.7.6-1.5 1.1-2.4 1.6v-2.7zM43.3 59.1v2h-4.9v-2h4.9zM45.2 53.7c1-.6 2-1.2 2.7-2.2h2.7v14h-3V54.8c-.7.6-1.5 1.1-2.4 1.6v-2.7zM56.6 57.2c.5-.6 1.2-.9 2.1-.9 2.3 0 3 1.6 3 4.6 0 3.7-1.4 4.8-4.3 4.8-2.3 0-3.8-1-3.7-3.5h2.8c0 .4 0 .7.2 1 .2.3.4.4.9.4 1.1 0 1.3-.9 1.3-2.8 0-.9.1-2.8-1.2-2.8-.8 0-1.1.9-1.1 1.6h-2.7v-8.1h7.3v2.2h-4.5v3.5z"/></g><path fill="#010101" d="M36.6 9.3h1.9V18h-1.9V9.3z"/><g fill="#010101"><path d="M18.6 39.7c0 2.2-1.3 2.7-2.8 2.6v-1.8c.8 0 1.5 0 1.5-1 0-.6-.4-.9-1-.9-1.6 0-1.7 3.6-4.2 3.6-1.4 0-2.4-.6-2.4-2.9 0-1.8.8-2.6 2.6-2.5v1.8c-.6 0-1.3.1-1.3.8 0 .6.3.9.9.9 1.6 0 1.5-3.6 4.2-3.6 2.3-.1 2.5 1.6 2.5 3zM18.5 35.4H9.8v-4.5h1.3v2.7h2.2V31h1.3v2.6h3.8v1.8zM18.5 30H9.8v-3.2c0-1.4.4-2.5 2.2-2.5 1 0 1.7.5 1.9 1.5.2-1.3 1-1.6 2.2-1.6 2.2 0 2.3 1.9 2.3 2.7V30zm-5.1-1.8V27c0-.4-.3-.9-1.1-.9-.6 0-1.1.4-1.1 1v1.1h2.2zm3.8 0v-1c0-.4 0-1.2-1.2-1.2-.8 0-1.2.3-1.2 1.2v1.1h2.4z"/></g></svg>