<svg version="1.2" baseProfile="tiny" xmlns="http://www.w3.org/2000/svg" viewBox="0 0 75 75" overflow="visible" xml:space="preserve"><path fill="#9ED08A" d="M0 0h75v75H0z"/><path fill="#010101" d="M20.6 26.1h33.6v22.4H20.6V26.1zm31.8 20.5V27.9H22.5v18.7h29.9zm-21-2.8c-2.8 0-5.1-2.3-5.1-5.2v-2.7c0-2.8 2.3-5.1 5.1-5.1h12.1c2.8 0 5.1 2.3 5.1 5.1v2.7c0 2.8-2.3 5.1-5.1 5.2H31.4zM28.1 36v2.7c0 1.8 1.5 3.3 3.3 3.3h12.1c1.8 0 3.3-1.5 3.3-3.3V36c0-1.8-1.4-3.3-3.3-3.3H31.4c-1.8 0-3.3 1.4-3.3 3.3zm9.3 4.7c-1.9 0-3.4-1.5-3.4-3.4s1.5-3.4 3.4-3.4 3.4 1.5 3.4 3.4-1.5 3.4-3.4 3.4z"/></svg>