<svg version="1.2" baseProfile="tiny" xmlns="http://www.w3.org/2000/svg" viewBox="0 0 75 75" overflow="visible" xml:space="preserve"><path fill="#9ED08A" d="M0 0h75v75H0z"/><path fill="#010101" d="M20.6 26.1h33.6v22.4H20.6V26.1zm31.8 20.5V27.9H22.5v18.7h29.9zm-21-2.8c-2.8 0-5.1-2.3-5.1-5.2v-2.7c0-2.8 2.3-5.1 5.1-5.1h12.1c2.8 0 5.1 2.3 5.1 5.1v2.7c0 2.8-2.3 5.1-5.1 5.2H31.4zM28.1 36v2.7c0 1.8 1.5 3.3 3.3 3.3h12.1c1.8 0 3.3-1.5 3.3-3.3V36c0-1.8-1.4-3.3-3.3-3.3H31.4c-1.8 0-3.3 1.4-3.3 3.3zm9.3 4.7c-1.9 0-3.4-1.5-3.4-3.4s1.5-3.4 3.4-3.4 3.4 1.5 3.4 3.4-1.5 3.4-3.4 3.4z"/><g fill="#010101"><path d="M33 65.5V63c4.4-5.9 5.3-6.5 5.3-8.3 0-.7-.3-1.4-1.1-1.4-1.2 0-1.2 1.1-1.2 2h-2.8c-.2-2.6 1.3-4 3.8-4 2.4 0 4.1 1 4.1 3.6 0 3.1-3.7 6.7-5.2 8.4h5.3v2.2H33zM47.5 59v2h-4.9v-2h4.9zM49.3 53.7c1-.6 2-1.2 2.7-2.2h2.7v14h-3V54.8c-.7.6-1.5 1.1-2.4 1.6v-2.7zM57.5 65.5V63c4.4-5.9 5.3-6.5 5.3-8.3 0-.7-.3-1.4-1.1-1.4-1.2 0-1.2 1.1-1.2 2h-2.8c-.2-2.6 1.3-4 3.8-4 2.4 0 4.1 1 4.1 3.6 0 3.1-3.7 6.7-5.2 8.4h5.3v2.2h-8.2z"/></g><g fill="#010101"><path d="M17.6 17.3C21 9.4 21 9.4 21 9.3h3.7v8.6h1.1v2.2h-1.1v3.2h-2.8v-3.2h-4.3v-2.8zm4.6.7.2-6.7-2.5 6.7h2.3zM31.8 16.9v2h-4.9v-2h4.9zM33.1 12.9c0-1.4.3-2.4 1-2.9.6-.5 1.6-.7 3-.7 2.6 0 3.8 1.1 3.8 3.7 0 1.3-.4 2.9-1.9 3.1 1.8.3 2.1 1.8 2.1 3.4 0 2.9-1.5 4.1-4.4 4.1-2.8 0-3.8-1-3.8-4h2.8c0 .9 0 1.9 1.2 1.9 1.3 0 1.4-1.2 1.4-2.2 0-2-.7-2.1-2.6-2.1V15c1.8.1 2.4-.1 2.4-2.1 0-.8-.1-1.7-1.1-1.7s-1.1.8-1.1 1.6h-2.8zM47.4 16.9v2h-4.9v-2h4.9zM48.5 23.3v-2.5c4.4-5.9 5.3-6.5 5.3-8.3 0-.7-.3-1.4-1.1-1.4-1.2 0-1.2 1.1-1.2 2h-2.8c-.2-2.6 1.3-4 3.8-4 2.4 0 4.1 1 4.1 3.6 0 3.1-3.7 6.7-5.2 8.4h5.3v2.2h-8.2zM65.6 16.3c0 4.4-.3 7.2-4 7.2s-4-2.8-4-7.2c0-5.3.6-7.1 4-7.1s4 1.8 4 7.1zm-5.3.1c0 4.2.1 5.1 1.2 5.1s1.2-.9 1.2-5.1c0-4.3 0-5.1-1.2-5.1s-1.2.8-1.2 5.1z"/></g><g fill="#010101"><path d="M18.5 44.3c0 2.2-1.3 2.7-2.8 2.6v-1.8c.8 0 1.5 0 1.5-1 0-.6-.4-.9-1-.9-1.6 0-1.7 3.6-4.2 3.6-1.4 0-2.4-.6-2.4-2.9 0-1.8.8-2.6 2.6-2.5v1.8c-.6 0-1.3.1-1.3.8 0 .6.3.9.9.9 1.6 0 1.5-3.6 4.2-3.6 2.2 0 2.5 1.6 2.5 3zM18.3 40H9.6v-4.5h1.3v2.7h2.2v-2.6h1.3v2.6h3.8V40zM18.3 34.6H9.6v-3.2c0-1.4.4-2.5 2.2-2.5 1 0 1.7.5 1.9 1.5.2-1.3 1-1.6 2.2-1.6 2.2 0 2.3 1.9 2.3 2.7v3.1zm-5.1-1.8v-1.2c0-.4-.3-.9-1.1-.9-.6 0-1.1.4-1.1 1v1.1h2.2zm3.8 0v-1c0-.4 0-1.2-1.2-1.2-.8 0-1.2.3-1.2 1.2v1.1H17z"/></g></svg>