<svg version="1.2" baseProfile="tiny" xmlns="http://www.w3.org/2000/svg" viewBox="0 0 75 75" overflow="visible" xml:space="preserve"><path fill="#FFF" d="M0 0h75v75H0z"/><g fill="#ED2224"><path d="M63.62 45.752c-.338-1.575-.788-3.261-1.125-4.836-.9 1.237-1.8 2.587-2.811 3.823-.113.225-.338.338-.562.563-.563.674-1.125 1.237-2.025.9-.9-.338-.562-1.238-.787-1.8-1.237-2.924 1.912-4.048 2.7-6.185 2.585-7.421 4.047-14.393-2.475-20.802-1.687-1.575-2.811-3.936-3.373-6.298-.113-.562.225-1.686-.675-1.686-.337 0-.9 1.012-1.124 1.686-2.25 6.298-.338 11.92 3.036 17.205 2.024 3.149 2.81 6.522 2.698 10.12 0 .563 0 1.35-.9 1.462-.674 0-.786-.562-.899-1.124-1.124-2.7-2.361-5.398-4.385-7.534-4.498-4.836-8.096-9.783-6.86-16.868v-.787l-.337.675c-1.35 3.823-2.361 7.646-1.8 11.807.338 2.474-.224 4.835-1.46 6.972-.338.562-.563 1.462-1.575 1.124-.787-.225-.562-1.012-.562-1.574 0-2.361-.113-4.835-.113-7.197 0-.674 0-1.349-.787-1.461-.337 0-.787.337-.9.674-1.012 2.811-3.373 4.61-5.51 6.41-5.06 4.16-7.534 9.333-7.196 15.855v3.71c0 .45.337 1.238-.338 1.35-.337.113-.9-.45-1.237-.787-1.124-1.462-2.024-3.149-3.26-4.498-4.386-4.835-4.498-4.835-7.085 1.012-2.474 5.623-.674 12.482 4.386 15.968 1.35.9 3.373 2.024 4.385 1.574 2.924-1.124 5.847-.112 8.659-.675 3.373-.674 7.646-.787 10.12.338 3.823 1.799 5.96.225 8.771-.9 1.125-.45 2.361-1.012 3.261.9 1.012 2.024 5.735 2.811 6.634 1.462 4.161-6.41 6.972-12.932 5.51-20.578zm-16.306 3.036c-1.012.225-1.124-.675-.9-1.35.45-1.237-.224-2.699.788-3.823.787.9.562 1.912.787 2.924-.225.674.562 1.911-.675 2.249z"/><path d="M19.427 37.993c.225-.45.562-.788.787-1.35 1.8-3.71 4.61-6.41 7.872-8.77 1.35-1.013 2.586-2.362 3.71-3.712 2.587-3.148 1.575-6.522.675-10.57 0 0 1.012-.9.225-1.574 0 0-.45.337-.45.562-.787 2.137-2.698 3.149-4.61 3.711-10.233 2.586-11.582 13.044-8.996 20.466.337.337.562.787.787 1.237z"/></g></svg>