<svg version="1.2" baseProfile="tiny" xmlns="http://www.w3.org/2000/svg" viewBox="0 0 75 75" overflow="visible" xml:space="preserve"><path fill="#278C43" d="M0 0h75v75H0z"/><path fill="#F6EB16" d="M35.9 11.2c18.8 0 22.7-2.8 22.5 13.4 9.6-1.1 21.8 8.2 7.7 10.4 2.4 6.3 14.2 7 .1 10.4-39.2-.4-1.7 9.1-30.6 9.1-14.2-2.6-.7 8.5-13.5 8.7-8.4 4.1-31.5-3.8-10.5-5.6 12.3-3.3-6.5-.9-9.9-3.5 6.2-2.7 17.3-.8 21.8-6-12.8-5.4 9-5.2 16-6.7 8.8-9-8.9-3.9-10.1-8-14.9 3.1 6.3-13.6 3.8-8.7 22.5-2.1 4.6-4.8 2.7-13.5zm5.3 17.3c4.3 5.4 15.2 3.7 20.7 1.7-4.7-5-14.7-3.7-20.7-1.7zm16.3 10.2c-5.1 5.3 15.6 3.9 5.5.4-1.8-.7-3.7-.3-5.5-.4zm-24.3 8.1c-7.7.6.9 5.3 4 2.1-1-1.1-2.3-2.8-4-2.1z"/></svg>