<svg version="1.2" baseProfile="tiny" xmlns="http://www.w3.org/2000/svg" viewBox="0 0 75 75" overflow="visible" xml:space="preserve"><path fill="#FFF" d="M0 0h75v75H0z"/><path fill="#3A53A4" d="m63.7 50.2 2.1-1.5-4.4-6-.2.1v-.1H45.9l-.8-1.8 7.6-3-7.6-3 .3-.6h15.8v-.1l.2.1 4.4-6-2.1-1.5-3.6 4.9H46.5l1.8-4.1-7.5 3-3.1-7.3-3.1 7.3-7.5-3 1.8 4.1H15.3l-3.6-5-2.1 1.5 4.3 6.1h16l.3.6-7.5 3 7.5 3-.8 1.8H14l-.1-.1v.1l-4.3 6.1 2.1 1.5 3.6-5h13.1l-1.3 2.9 7.4-2.9h.2l3.1 7.2 3.1-7.2h.2l7.3 2.9-1.3-2.9h13.1l3.5 4.9z"/></svg>