<svg version="1.2" baseProfile="tiny" xmlns="http://www.w3.org/2000/svg" viewBox="0 0 75 75" overflow="visible" xml:space="preserve"><path fill="#7F1416" d="M0 0h75v75H0z"/><g fill="#D3D3D3"><path d="M22.8 20.2h4.5c2.1 0 3.8.1 5 1.6.8.9.9 2 .9 2.7 0 1.7-.7 3.1-1.8 3.8-1.1.7-2.5.7-3.3.7H26v5.6h-3.1V20.2zm3.1 6.5h1.2c1 0 2.9 0 2.9-2.2 0-2-1.7-2-2.5-2h-1.6v4.2zM39 24.3c3.7 0 5.2 2.5 5.2 5.3S42.6 35 38.9 35c-2.9 0-5.2-1.8-5.2-5.3.1-2.4 1.3-5.4 5.3-5.4zm0 8.7c1.3 0 2.2-.8 2.2-3.5 0-1.3-.3-3.2-2.2-3.2-2.2 0-2.2 2.5-2.2 3.4 0 2.3.8 3.3 2.2 3.3zM48.5 31.7c0 .6.4 1.4 1.7 1.4 1.1 0 1.6-.6 1.6-1.2 0-.5-.2-.8-1.4-1.1l-1.8-.5c-.8-.2-2.6-.7-2.6-2.8 0-2 1.8-3.2 4.4-3.2 2.1 0 3.8 1 3.8 3h-2.7c-.1-1.1-1-1.2-1.4-1.2-.8 0-1.4.4-1.4 1 0 .7.5.8 1.4 1.1l1.8.5c1.8.5 2.7 1.4 2.7 2.8 0 1.7-1.5 3.5-4.6 3.5-1.3 0-2.5-.3-3.5-1.2-.7-.7-.7-1.5-.7-2h2.7zM31 44.6l1.9 3.3 2-3.3H38l-3.3 4.9 3.4 5.2h-3.5l-2-3.7-2.1 3.7h-3.1l3.4-5.4-3.2-4.7H31zM40.2 42.8c1.3-.6 2.5-1.3 3.7-2.1h2.6v14h-3V43.8c-.6.4-1.7 1.2-3.3 1.8v-2.8z"/></g></svg>