<svg version="1.2" baseProfile="tiny" xmlns="http://www.w3.org/2000/svg" viewBox="0 0 75 75" overflow="visible" xml:space="preserve"><path fill="#FFF" d="M0 0h75v75H0z"/><path fill="#7F1416" d="M35.4 11.6h.5c-1.1 3.3-5.3 2.5-7.1 5.2 1.2.8 2.3 1.6 3.7 2.6-1.3.9-2.3 1.6-3.3 2.3.3 2.5.5 4.8.8 7.4.4.2 1 .4 1.5.7.6-.8 1.1-1.4 1.4-1.8 3.7.1.8 4.2 3.4 5 .8-.9 1.6-1.7 2.3-2.4v-2.5c-.7-.6-1.4-1.2-2.3-1.9 1.2-1.1 3-1.7 1.9-3.7-1.6-.6-4-.3-3.5-2.6 3.3-7.3 9.5-4.5 14.8-4.9 1.3-.1 2.7 0 4 0 2.8-.1 3.6 1.7 3.5 3.9-.7 9.4-2 18.8 3.5 27.5 1-.7 2.3-.4 3.6.1v1.6c-1.2-.3-2.3-.6-4.3-1.1.9 1.2 1.8 1.8 1.3 2.8-1 .9-3.4.3-3.3 2.8 1.1.6 2.1 1.1 4.7 2.4-5.2-1-9.1 1.5-11.8-2.3-1.7.1-3.2.2-4.6.3-.3 1-.5 1.7-.7 2.4-2.8.4-3.5-2.6-5.4-3.2-1.3.8-1 2.6-2.5 2.7-.9-.1-.3-1.8-1.6-1.4-1 1.1.1 2 .5 3.3-2.2-.2-4.2 1.8-6.2-.3.4-.6.8-1.2 1.3-1.7-1.9-2.5-4.7-.6-7.6-2.7 1.1 2 1.5 2.9 2.1 4-2.5.9-4.1.3-5.3-2.1.8-.5 1.4-.9 2.2-1.4-1-.3-1.7-.6-2.4-.9-2.2.9-4.4 1.9-6.7 2.9.1-2.8-1.8-3.1-3.7-3.2v-1.1c1.1-.9 2.2-1.7 3.7-2.8-1-.6-1.7-1-3-1.7 2.9-1.2 5-2 7.1-2.9 1.8-3.5-.9-5.4-3.5-7.3 7.7-2.7 2.6-11 7.3-14.9 2.6 2-.3 6.1 2.9 7.8 1.8-1.5.9-3.1.6-4.6 1.3-2.5.7-4.8-.4-7.2.8-1.6 1.6-3.2 2.4-4.9h1.6c0 2.1-3.6 3.1-1.9 6.4.4-2.2 1.6-3 3-3.6 2-.9 4.2-1.1 5.5-3zm8 15.4c-2.9.5-2.4 2.1-2 3.9.7-.1 1.4-.1 2-.2V27zm3.7-2.6c1.6-.6 3.4-.7 2.6-3.1h-2.6v3.1zm.1 3.3v4.5c1.3-1.9 2.1-3 3.1-4.5h-3.1zm-8.6 11.6c-.8-2-2-2.5-4.4-1.8 1.5 1.6 2.5 2.4 4.4 1.8zm4.7-15.4v-3.1c-1.5-.5-1.7.3-1.7 1.3.1.9-.2 2.1 1.7 1.8zm-13.6 16c-1.3.9-1.1 2-.6 3.2 1.3-.8 1.8-1.7.6-3.2zm17.4 10c1.2 1.5 2.2.7 3.4-.2-1.3-.1-2.3-1.6-3.4.2zm-19.8-29c.9-.7 1.5-1.1 2.3-1.7-.9-.3-1.5-.5-2.3-.8v2.5zm-.1 1.9.4 1.2.9-.3c0-.3 0-.4-.1-.7-.3-.1-.6-.1-1.2-.2zm.2 5.1c.2-.1.1 0 0 0 .1.1.2.1 0 0zm19.7 30.8c.6-2 6.9-3.1 9-1.6-.4 1.7-2.6.1-3.1 1.6h-5.9z"/></svg>