<svg version="1.2" baseProfile="tiny" xmlns="http://www.w3.org/2000/svg" viewBox="0 0 75 75" overflow="visible" xml:space="preserve"><path fill="#4783B5" d="M0 0h75v75H0z"/><g fill="#D3D3D3"><path d="M20.3 20.2h4.5l5.4 11.4V20.2h2.9v14.5h-4.3l-5.6-12v12h-2.9V20.2zM38.1 30.4c0 .7 0 2.7 2.1 2.7.7 0 1.5-.3 1.8-1.4h2.7c0 .5-.1 1.3-1 2.2-.7.8-2.1 1.2-3.5 1.2-.9 0-2.5-.2-3.6-1.3-.9-1-1.3-2.3-1.3-3.9s.4-3.6 2.1-4.8c.8-.5 1.7-.8 2.8-.8 1.4 0 3.2.6 4.1 2.4.7 1.4.6 2.9.6 3.7h-6.8zm3.8-1.9c0-.5 0-2.3-1.8-2.3-1.3 0-1.8 1.1-1.9 2.3h3.7zM56.4 24.6c-.1.8-.1 1.5-.1 2.5v7.5c0 3.7-3.1 4.1-5 4.1-1.4 0-4.3-.2-4.4-3.2h2.8c0 .3.2 1.4 1.8 1.4.9 0 1.6-.4 1.8-1.3.1-.5.1-.9.1-2.4-.9 1.2-2 1.4-2.7 1.4-2.9 0-4.3-2.5-4.3-5 0-2.6 1.4-5 4.3-5 1.8 0 2.5 1 2.8 1.4l.1-1.3h2.8zm-5 7.8c2.1 0 2.1-2.4 2.1-2.9 0-1.1-.2-3.1-2-3.1-1.1 0-2 .9-2 3-.1.6-.1 3 1.9 3zM31 44.6l1.9 3.3 2-3.3H38l-3.3 4.9 3.4 5.2h-3.5l-2-3.7-2.1 3.7h-3.1l3.4-5.4-3.2-4.7H31zM40.2 42.8c1.3-.6 2.5-1.3 3.7-2.1h2.6v14h-3V43.8c-.6.4-1.7 1.2-3.3 1.8v-2.8z"/></g></svg>