<svg version="1.2" baseProfile="tiny" xmlns="http://www.w3.org/2000/svg" viewBox="0 0 75 75" overflow="visible" xml:space="preserve"><path fill="#ED2224" d="M0 0h75v75H0z"/><path fill="#FFF" d="M20.6 26.1h33.6v22.4H20.6V26.1zm31.8 20.5V28H22.5v18.7h29.9zm-15-5.9c-1.9 0-3.4-1.5-3.4-3.4s1.5-3.4 3.4-3.4 3.4 1.5 3.4 3.4-1.5 3.4-3.4 3.4z"/><g fill="#FFF"><path d="M33.8 53.7c1-.6 2-1.2 2.7-2.2h2.7v14h-3V54.8c-.7.6-1.5 1.1-2.4 1.6v-2.7zM47.5 59v2h-4.9v-2h4.9zM49.3 53.7c1-.6 2-1.2 2.7-2.2h2.7v14h-3V54.8c-.7.6-1.5 1.1-2.4 1.6v-2.7zM65.7 58.4c0 4.4-.3 7.2-4 7.2s-4-2.8-4-7.2c0-5.3.6-7.1 4-7.1s4 1.8 4 7.1zm-5.3.1c0 4.2.1 5.1 1.2 5.1s1.2-.9 1.2-5.1c0-4.3 0-5.1-1.2-5.1s-1.2.8-1.2 5.1z"/></g><g fill="#FFF"><path d="M22.6 12.4c0-.4 0-.7-.2-.9-.2-.2-.4-.4-.8-.4-1.2 0-1.3.6-1.3 4.2.8-.7 1.2-1 2.2-1 2.6 0 3.1 2.3 3.1 4.4 0 2.9-1.1 4.8-4.2 4.8-3.6 0-3.9-3.1-3.9-6 0-5.6.3-8.3 4.3-8.3 2.1 0 3.7.9 3.7 3.2h-2.9zm.2 6.4c0-1.8-.2-2.5-1.3-2.5s-1.2 1-1.2 2.8c0 .8 0 2.5 1.2 2.5 1-.1 1.3-.7 1.3-2.8zM31.8 16.9v2h-4.9v-2h4.9zM32.9 23.3v-2.5c4.4-5.9 5.3-6.5 5.3-8.3 0-.7-.3-1.4-1.1-1.4-1.2 0-1.2 1.1-1.2 2h-2.8c-.2-2.6 1.3-4 3.8-4 2.4 0 4.1 1 4.1 3.6 0 3.1-3.7 6.7-5.2 8.4h5.3v2.2h-8.2zM47.4 16.9v2h-4.9v-2h4.9zM49.2 11.5c1-.6 2-1.2 2.7-2.2h2.7v14h-3V12.6c-.7.6-1.5 1.1-2.4 1.6v-2.7zM57.5 19.8c0-1.7.3-3.1 2.1-3.8-1.6-.4-1.9-1.6-1.9-3 0-2.5 1.3-3.7 3.9-3.7s3.9 1.2 3.9 3.7c0 1.5-.4 2.6-1.9 3 1.8.6 2.1 2.1 2.1 3.8 0 2.6-1.4 3.8-4 3.8s-4.2-1.2-4.2-3.8zm2.8-.2c0 .8.1 1.9 1.2 1.9s1.2-1.1 1.2-1.9c0-.8 0-2.5-1.2-2.5s-1.2 1.6-1.2 2.5zm.2-6.5c0 .7.1 1.9 1.1 1.9s1.1-1.2 1.1-1.9-.1-1.8-1.1-1.8c-1-.1-1.1 1.1-1.1 1.8z"/></g><path fill="#FFF" d="M11.3 39.8c-.3-.6-.7-1.2-1.3-1.6v-1.6h8.4v1.8H12c.4.4.7.9.9 1.4h-1.6z"/><g fill="#FFF"><path d="M58.7 46.4c-.9 0-1.4-.2-1.8-.6-.3-.4-.4-1-.4-1.8 0-1.6.6-2.3 2.2-2.3.8 0 1.7.2 1.9 1.1.2-1.1 1.1-1.3 2-1.3 1.7 0 2.4.9 2.4 2.6 0 1.7-.6 2.3-2.4 2.3v-1.7c.6 0 1.2 0 1.2-.7 0-.8-.7-.8-1.3-.8-1.2 0-1.3.4-1.3 1.6h-1.3c0-1.1-.1-1.4-1.2-1.4-.5 0-1 .1-1 .6 0 .6.5.7 1 .7v1.7zM61.3 41c-4.7-2-4.8-2-4.8-2v-2.2h5.2v-.7H63v.7h1.9v1.7H63v2.6h-1.7zm.4-2.7-4-.1 4 1.5v-1.4zM59 31.3c-.8 0-1.5.1-1.5 1.1 0 1.1 1.5 1.1 3.2 1.1 2.7 0 3.2-.3 3.2-1.3 0-.3-.1-.6-.2-.9h-1.9v1h-1.3v-2.8h4.4c.1.5.3 1.7.3 2.4 0 3-1.3 3.4-4.5 3.4-2.2 0-4.4-.1-4.4-3.1 0-1.8 1-2.9 2.8-2.8v1.9z"/></g></svg>