<svg version="1.2" baseProfile="tiny" xmlns="http://www.w3.org/2000/svg" viewBox="0 0 75 75" overflow="visible" xml:space="preserve"><path fill="#ED2224" d="M0 0h75v75H0z"/><path fill="#FFF" d="M20.6 26.1h33.6v22.4H20.6V26.1zm31.8 20.5V28H22.5v18.7h29.9zm-15-5.9c-1.9 0-3.4-1.5-3.4-3.4s1.5-3.4 3.4-3.4 3.4 1.5 3.4 3.4-1.5 3.4-3.4 3.4z"/><g fill="#FFF"><path d="M58.7 46.4c-.9 0-1.4-.2-1.8-.6-.3-.4-.4-1-.4-1.8 0-1.6.6-2.3 2.2-2.3.8 0 1.7.2 1.9 1.1.2-1.1 1.1-1.3 2-1.3 1.7 0 2.4.9 2.4 2.6 0 1.7-.6 2.3-2.4 2.3v-1.7c.6 0 1.2 0 1.2-.7 0-.8-.7-.8-1.3-.8-1.2 0-1.3.4-1.3 1.6h-1.3c0-1.1-.1-1.4-1.2-1.4-.5 0-1 .1-1 .6 0 .6.5.7 1 .7v1.7zM61.3 41c-4.7-2-4.8-2-4.8-2v-2.2h5.2v-.7H63v.7h1.9v1.7H63v2.6h-1.7zm.4-2.7-4-.1 4 1.5v-1.4zM59 31.3c-.8 0-1.5.1-1.5 1.1 0 1.1 1.5 1.1 3.2 1.1 2.7 0 3.2-.3 3.2-1.3 0-.3-.1-.6-.2-.9h-1.9v1h-1.3v-2.8h4.4c.1.5.3 1.7.3 2.4 0 3-1.3 3.4-4.5 3.4-2.2 0-4.4-.1-4.4-3.1 0-1.8 1-2.9 2.8-2.8v1.9z"/></g></svg>