<svg version="1.2" baseProfile="tiny" xmlns="http://www.w3.org/2000/svg" viewBox="0 0 75 75" overflow="visible" xml:space="preserve"><path fill="#ED2224" d="M0 0h75v75H0z"/><path fill="#FFF" d="M20.6 26.1h33.6v22.4H20.6V26.1zm31.8 20.5V28H22.5v18.7h29.9zm-15-5.9c-1.9 0-3.4-1.5-3.4-3.4s1.5-3.4 3.4-3.4 3.4 1.5 3.4 3.4-1.5 3.4-3.4 3.4z"/><g fill="#FFF"><path d="M33.8 53.7c1-.6 2-1.2 2.7-2.2h2.7v14h-3V54.8c-.7.6-1.5 1.1-2.4 1.6v-2.7zM47.5 59v2h-4.9v-2h4.9zM49.3 53.7c1-.6 2-1.2 2.7-2.2h2.7v14h-3V54.8c-.7.6-1.5 1.1-2.4 1.6v-2.7zM65.7 58.4c0 4.4-.3 7.2-4 7.2s-4-2.8-4-7.2c0-5.3.6-7.1 4-7.1s4 1.8 4 7.1zm-5.3.1c0 4.2.1 5.1 1.2 5.1s1.2-.9 1.2-5.1c0-4.3 0-5.1-1.2-5.1s-1.2.8-1.2 5.1z"/></g><g fill="#FFF"><path d="M20.7 15c.5-.6 1.2-.9 2.1-.9 2.3 0 3 1.6 3 4.6 0 3.7-1.4 4.8-4.3 4.8-2.3 0-3.8-1-3.7-3.5h2.8c0 .4 0 .7.2 1 .2.3.4.4.9.4 1.1 0 1.3-.9 1.3-2.8 0-.9.1-2.8-1.2-2.8-.8 0-1.1.9-1.1 1.6H18V9.3h7.3v2.2h-4.5V15zM31.8 16.9v2h-4.9v-2h4.9zM33.7 11.5c1-.6 2-1.2 2.7-2.2h2.7v14h-3V12.6c-.7.6-1.5 1.1-2.4 1.6v-2.7zM47.4 16.9v2h-4.9v-2h4.9zM48.5 23.3v-2.5c4.4-5.9 5.3-6.5 5.3-8.3 0-.7-.3-1.4-1.1-1.4-1.2 0-1.2 1.1-1.2 2h-2.8c-.2-2.6 1.3-4 3.8-4 2.4 0 4.1 1 4.1 3.6 0 3.1-3.7 6.7-5.2 8.4h5.3v2.2h-8.2zM60.6 15c.5-.6 1.2-.9 2.1-.9 2.3 0 3 1.6 3 4.6 0 3.7-1.4 4.8-4.3 4.8-2.3 0-3.8-1-3.7-3.5h2.8c0 .4 0 .7.2 1 .2.3.4.4.9.4 1.1 0 1.3-.9 1.3-2.8 0-.9.1-2.8-1.2-2.8-.8 0-1.1.9-1.1 1.6h-2.7V9.3h7.3v2.2h-4.5V15z"/></g><path fill="#FFF" d="M16.4 38.4c.2 0 .4 0 .6-.1.2-.1.3-.3.3-.5 0-.8-.7-.7-2.7-.7.4.4.6.9.6 1.4 0 1.3-1.2 1.8-2.3 1.8-1.6 0-3-.5-3-2.4 0-2.5 2-2.5 4.3-2.5 2.1 0 4.3 0 4.3 2.5 0 1.5-.5 2.3-2.1 2.3v-1.8zm-2.5-.6c0-.7-1-.8-1.5-.8s-1.5 0-1.5.7 1 .7 1.5.7 1.5.1 1.5-.6z"/><g fill="#FFF"><path d="M58.7 46.4c-.9 0-1.4-.2-1.8-.6-.3-.4-.4-1-.4-1.8 0-1.6.6-2.3 2.2-2.3.8 0 1.7.2 1.9 1.1.2-1.1 1.1-1.3 2-1.3 1.7 0 2.4.9 2.4 2.6 0 1.7-.6 2.3-2.4 2.3v-1.7c.6 0 1.2 0 1.2-.7 0-.8-.7-.8-1.3-.8-1.2 0-1.3.4-1.3 1.6h-1.3c0-1.1-.1-1.4-1.2-1.4-.5 0-1 .1-1 .6 0 .6.5.7 1 .7v1.7zM61.3 41c-4.7-2-4.8-2-4.8-2v-2.2h5.2v-.7H63v.7h1.9v1.7H63v2.6h-1.7zm.4-2.7-4-.1 4 1.5v-1.4zM59 31.3c-.8 0-1.5.1-1.5 1.1 0 1.1 1.5 1.1 3.2 1.1 2.7 0 3.2-.3 3.2-1.3 0-.3-.1-.6-.2-.9h-1.9v1h-1.3v-2.8h4.4c.1.5.3 1.7.3 2.4 0 3-1.3 3.4-4.5 3.4-2.2 0-4.4-.1-4.4-3.1 0-1.8 1-2.9 2.8-2.8v1.9z"/></g></svg>