<svg version="1.2" baseProfile="tiny" xmlns="http://www.w3.org/2000/svg" viewBox="0 0 75 75" overflow="visible" xml:space="preserve"><path fill="#ED2224" d="M0 0h75v75H0z"/><path fill="#FFF" d="M20.8 21.5h33.6v22.4H20.8V21.5zm15.1 11.2-13.3-8.9v17.7l13.3-8.8zm-10.7-9.3 12.4 8.2L50 23.4H25.2zm18.9 16.7c1.3.6 1.7 1.4 1.7 2H50l-12.4-8.2-12.4 8.2h4.2c0-.5.4-1.4 1.7-2 .8-.3 1.8-.5 2.8-.5 1.1 0 2.1.2 2.9.5.3.1.5.6.8.4.2-.2.5-.3.8-.4.8-.3 1.8-.5 2.9-.5 1 0 2 .2 2.8.5zm-7.6 2c-.1-.1-.3-.2-.5-.3-.5-.2-1.3-.4-2.1-.4-1.4 0-2.3.4-2.6.6h5.2zm7.3 0c-.2-.1-.3-.2-.5-.3-.5-.2-1.3-.4-2.1-.4-1.4 0-2.3.4-2.6.6h5.2zm-4.6-9.4 13.3 8.9V23.9l-13.3 8.8z"/><g fill="#FFF"><path d="M17.8 65.5V63c4.4-5.9 5.3-6.5 5.3-8.3 0-.7-.3-1.4-1.1-1.4-1.2 0-1.2 1.1-1.2 2H18c-.2-2.6 1.3-4 3.8-4 2.4 0 4.1 1 4.1 3.6 0 3.1-3.7 6.7-5.2 8.4H26v2.2h-8.2zM32.2 59.1v2h-4.9v-2h4.9zM33.5 55.1c0-1.4.3-2.4 1-2.9.6-.5 1.6-.7 3-.7 2.6 0 3.8 1.1 3.8 3.7 0 1.3-.4 2.9-1.9 3.1 1.8.3 2.1 1.8 2.1 3.4 0 2.9-1.5 4.1-4.4 4.1-2.8 0-3.8-1-3.8-4h2.8c0 .9 0 1.9 1.2 1.9 1.3 0 1.4-1.2 1.4-2.2 0-2-.7-2.1-2.6-2.1v-2.2c1.8.1 2.4-.1 2.4-2.1 0-.8-.1-1.7-1.1-1.7s-1.1.8-1.1 1.6h-2.8zM47.7 59.1v2h-4.9v-2h4.9zM54 54.6c0-.4 0-.7-.2-.9-.2-.2-.4-.4-.8-.4-1.2 0-1.3.6-1.3 4.2.8-.7 1.2-1 2.2-1 2.6 0 3.1 2.3 3.1 4.4 0 2.9-1.1 4.8-4.2 4.8-3.6 0-3.9-3.1-3.9-6 0-5.6.3-8.3 4.3-8.3 2.1 0 3.7.9 3.7 3.2H54zm.3 6.4c0-1.8-.2-2.5-1.3-2.5s-1.2 1-1.2 2.8c0 .8 0 2.5 1.2 2.5.9-.1 1.3-.7 1.3-2.8z"/></g><g fill="#FFF"><path d="M34.9 9.3h1.9V18h-1.9V9.3zM38.2 9.3h1.9V18h-1.9V9.3z"/></g><path fill="#FFF" d="M13.5 33.7c-.4-.3-.5-.7-.5-1.2 0-1.4.9-1.8 2.8-1.8 2.2 0 2.9.8 2.9 2.6 0 1.4-.6 2.3-2.1 2.2v-1.7c.2 0 .4 0 .6-.1s.3-.3.3-.5c0-.7-.5-.8-1.7-.8-.5 0-1.7 0-1.7.7 0 .5.6.6.9.6v1.6h-4.9v-4.4h1.3v2.7h2.1z"/><g fill="#FFF"><path d="M57.9 44.2c-.3-.6-.7-1.2-1.3-1.6V41H65v1.8h-6.4c.4.4.7.9.9 1.4h-1.6zM60.8 34.4c2.6 0 4.3.2 4.3 2.4s-1.7 2.4-4.3 2.4c-3.2 0-4.3-.4-4.3-2.4s1.1-2.4 4.3-2.4zm0 3.1c2.5 0 3.1-.1 3.1-.7 0-.7-.5-.7-3.1-.7s-3.1 0-3.1.7.5.7 3.1.7zM58.7 33.9c-.9 0-1.4-.2-1.8-.6-.3-.4-.4-1-.4-1.8 0-1.6.6-2.3 2.2-2.3.8 0 1.7.2 1.9 1.1.2-1.1 1.1-1.3 2-1.3 1.7 0 2.4.9 2.4 2.6 0 1.7-.6 2.3-2.4 2.3v-1.7c.6 0 1.2 0 1.2-.7 0-.8-.7-.8-1.3-.8-1.2 0-1.3.4-1.3 1.6h-1.3c0-1.1-.1-1.4-1.2-1.4-.5 0-1 .1-1 .6 0 .6.5.7 1 .7v1.7zM59 24.1c-.8 0-1.5.1-1.5 1.1 0 1.1 1.5 1.1 3.2 1.1 2.7 0 3.2-.3 3.2-1.3 0-.3-.1-.6-.2-.9h-1.9v1h-1.3v-2.8h4.4c.1.5.3 1.7.3 2.4 0 3-1.3 3.4-4.5 3.4-2.2 0-4.4-.1-4.4-3.1 0-1.8 1-2.9 2.8-2.8v1.9z"/></g></svg>