<svg version="1.2" baseProfile="tiny" xmlns="http://www.w3.org/2000/svg" viewBox="0 0 75 75" overflow="visible" xml:space="preserve"><path fill="#ED2224" d="M0 0h75v75H0z"/><path fill="#FFF" d="M20.6 26.1h33.6v22.4H20.6V26.1zm31.8 20.5V28H22.5v18.7h29.9zm-9.2-8.4H25.4v-1.9h17.8v1.9zm3.6-.9c0-2.2-1.4-4.6-4.5-4.6h-11v-1.9h11c2 0 3.6.7 4.7 2 1 1.2 1.6 2.8 1.6 4.4s-.5 3.3-1.6 4.4c-1.2 1.3-2.8 2-4.7 2h-11v-1.9h11c1.4 0 2.6-.5 3.4-1.4.7-.6 1.1-1.8 1.1-3z"/><g fill="#FFF"><path d="M33.8 53.7c1-.6 2-1.2 2.7-2.2h2.7v14h-3V54.8c-.7.6-1.5 1.1-2.4 1.6v-2.7zM47.5 59v2h-4.9v-2h4.9zM49.3 53.7c1-.6 2-1.2 2.7-2.2h2.7v14h-3V54.8c-.7.6-1.5 1.1-2.4 1.6v-2.7zM65.7 58.4c0 4.4-.3 7.2-4 7.2s-4-2.8-4-7.2c0-5.3.6-7.1 4-7.1s4 1.8 4 7.1zm-5.3.1c0 4.2.1 5.1 1.2 5.1s1.2-.9 1.2-5.1c0-4.3 0-5.1-1.2-5.1s-1.2.8-1.2 5.1z"/></g><g fill="#FFF"><path d="M17.6 17.3C21 9.4 21 9.4 21 9.3h3.7V18h1.1v2.2h-1.1v3.2h-2.8v-3.2h-4.3v-2.9zm4.6.7.2-6.7-2.5 6.7h2.3zM31.8 16.9v2h-4.9v-2h4.9zM41.2 16.3c0 4.4-.3 7.2-4 7.2s-4-2.8-4-7.2c0-5.3.6-7.1 4-7.1s4 1.8 4 7.1zm-5.3.1c0 4.2.1 5.1 1.2 5.1s1.2-.9 1.2-5.1c0-4.3 0-5.1-1.2-5.1s-1.2.8-1.2 5.1zM47.4 16.9v2h-4.9v-2h4.9zM48.5 23.3v-2.5c4.4-5.9 5.3-6.5 5.3-8.3 0-.7-.3-1.4-1.1-1.4-1.2 0-1.2 1.1-1.2 2h-2.8c-.2-2.6 1.3-4 3.8-4 2.4 0 4.1 1 4.1 3.6 0 3.1-3.7 6.7-5.2 8.4h5.3v2.2h-8.2zM65.6 16.3c0 4.4-.3 7.2-4 7.2s-4-2.8-4-7.2c0-5.3.6-7.1 4-7.1s4 1.8 4 7.1zm-5.3.1c0 4.2.1 5.1 1.2 5.1s1.2-.9 1.2-5.1c0-4.3 0-5.1-1.2-5.1s-1.2.8-1.2 5.1z"/></g><g fill="#FFF"><path d="M57.9 42.4c-.3-.6-.7-1.2-1.3-1.6v-1.6H65V41h-6.4c.4.4.7.9.9 1.4h-1.6zM63 35.6c.2 0 .4 0 .6-.1.2-.1.3-.3.3-.5 0-.8-.7-.7-2.7-.7.4.4.6.9.6 1.4 0 1.3-1.2 1.8-2.3 1.8-1.6 0-3-.5-3-2.4 0-2.5 2-2.5 4.3-2.5 2.1 0 4.3 0 4.3 2.5 0 1.5-.5 2.3-2.1 2.3v-1.8zm-2.4-.6c0-.7-1-.8-1.5-.8s-1.5 0-1.5.7 1 .7 1.5.7 1.5.1 1.5-.6z"/></g></svg>