<svg version="1.2" baseProfile="tiny" xmlns="http://www.w3.org/2000/svg" viewBox="0 0 75 75" overflow="visible" xml:space="preserve"><path fill="#278C43" d="M0 0h75v75H0z"/><path fill="#F6EB16" d="M54.221 25.941v22.4h-33.6v-22.4h33.6zm-1.9 1.8h-29.9v18.7h29.9v-18.7z"/><path fill="#F6EB16" d="M37.421 39.041c-1.9 1.9-3.8 4-6.8 4-3.1 0-5.3-2.3-5.3-5.5 0-2.9 2.4-5.5 5.6-5.5 2.7 0 4.8 2.2 6.6 4 1.9-1.9 3.8-4 6.8-4 3.1 0 5.3 2.3 5.3 5.5 0 2.9-2.4 5.5-5.6 5.5-2.8 0-4.9-2.2-6.6-4zm-1.5-1.5c-1.4-1.3-3-3.3-5.1-3.3-1.8 0-3.3 1.5-3.3 3.3 0 1.9 1.3 3.3 3.1 3.3 2.2-.1 3.9-1.9 5.3-3.3zm11.3 0c0-1.9-1.3-3.3-3.1-3.3-2.1 0-3.8 1.8-5.2 3.3 1.4 1.3 3 3.3 5.1 3.3 1.8-.1 3.2-1.6 3.2-3.3z"/></svg>