<svg version="1.2" baseProfile="tiny" xmlns="http://www.w3.org/2000/svg" viewBox="0 0 75 75" overflow="visible" xml:space="preserve"><path fill="#278C43" d="M0 0h75v75H0z"/><path fill="#F6EB16" d="M20.8 21.5h33.6v22.4H20.8V21.5zm2.6 1.9h-.8v.2l.8-.2zm2.4 5.9-2.3-1.4-.9-3.6v16.3l13.2-7.9-10.7-6.4.7 3zm11.8 4.5-13.8 8.3h27.6l-13.8-8.3zm11.5-9.1-3-.8.9-.5H28.1l.9.5-3 .8 11.6 6.9 11.5-6.9zm-9.7 8 13.2 7.9V24.3l-.9 3.6-2.3 1.4.7-3-10.7 6.4zm13.1-9.1v-.2h-.8l.8.2z"/><g fill="#F6EB16"><path d="M13.3 65.5V63c4.4-5.9 5.3-6.5 5.3-8.3 0-.7-.3-1.4-1.1-1.4-1.2 0-1.2 1.1-1.2 2h-2.8c-.2-2.6 1.3-4 3.8-4 2.4 0 4.1 1 4.1 3.6 0 3.1-3.7 6.7-5.2 8.4h5.3v2.2h-8.2zM27.8 59.1v2h-4.9v-2h4.9zM32.1 57.2c.5-.6 1.2-.9 2.1-.9 2.3 0 3 1.6 3 4.6 0 3.7-1.4 4.8-4.3 4.8-2.3 0-3.8-1-3.7-3.5H32c0 .4 0 .7.2 1 .2.3.4.4.9.4 1.1 0 1.3-.9 1.3-2.8 0-.9.1-2.8-1.2-2.8-.8 0-1.1.9-1.1 1.6h-2.7v-8.1h7.3v2.2h-4.5v3.5zM43.3 59.1v2h-4.9v-2h4.9zM45.2 53.7c1-.6 2-1.2 2.7-2.2h2.7v14h-3V54.8c-.7.6-1.5 1.1-2.4 1.6v-2.7zM53.3 65.5V63c4.4-5.9 5.3-6.5 5.3-8.3 0-.7-.3-1.4-1.1-1.4-1.2 0-1.2 1.1-1.2 2h-2.8c-.2-2.6 1.3-4 3.8-4 2.4 0 4.1 1 4.1 3.6 0 3.1-3.7 6.7-5.2 8.4h5.3v2.2h-8.2z"/></g><path fill="#F6EB16" d="M36.6 9.3h1.9V18h-1.9V9.3z"/><g fill="#F6EB16"><path d="M18.6 43.3c0 2.2-1.3 2.7-2.8 2.6v-1.8c.8 0 1.5 0 1.5-1 0-.6-.4-.9-1-.9-1.6 0-1.7 3.6-4.2 3.6-1.4 0-2.4-.6-2.4-2.9 0-1.8.8-2.6 2.6-2.5v1.8c-.6 0-1.3.1-1.3.8 0 .6.3.9.9.9 1.6 0 1.5-3.6 4.2-3.6 2.3 0 2.5 1.6 2.5 3zM18.5 39H9.8v-4.5h1.3v2.7h2.2v-2.6h1.3v2.6h3.8V39zM9.8 33.6v-3c0-2.4 1.6-2.8 4.3-2.8 1.3 0 4.4-.2 4.4 2.9v3H9.8zm7.4-1.8v-.9c0-1.1-.8-1.3-3-1.3-1.6 0-3 0-3 1.3v.9h6zM18.5 26.3H9.8v-3.2c0-1.4.4-2.5 2.2-2.5 1 0 1.7.5 1.9 1.5.2-1.3 1-1.6 2.2-1.6 2.2 0 2.3 1.9 2.3 2.7v3.1zm-5.1-1.8v-1.2c0-.4-.3-.9-1.1-.9-.6 0-1.1.4-1.1 1v1.1h2.2zm3.8 0v-1c0-.4 0-1.2-1.2-1.2-.8 0-1.2.3-1.2 1.2v1.1h2.4z"/></g><path fill="#F6EB16" d="M58.5 32.6c-.2 0-.4 0-.5.1-.1.1-.2.2-.2.5 0 .7.4.8 2.5.8-.4-.5-.6-.7-.6-1.3 0-1.6 1.4-1.9 2.7-1.9 1.7 0 2.9.6 2.9 2.5 0 2.2-1.9 2.3-3.6 2.3-3.3 0-5-.2-5-2.6 0-1.3.5-2.2 1.9-2.2v1.8zm3.8-.2c-1.1 0-1.5.1-1.5.8 0 .7.6.7 1.7.7.5 0 1.5 0 1.5-.7-.1-.6-.4-.8-1.7-.8z"/></svg>