<svg version="1.2" baseProfile="tiny" xmlns="http://www.w3.org/2000/svg" viewBox="0 0 75 75" overflow="visible" xml:space="preserve"><path fill="#278C43" d="M0 0h75v75H0z"/><path fill="#F6EB16" d="M20.8 21.5h33.6v22.4H20.8V21.5zm31.7 20.6V23.4H22.6v18.7h29.9zM32.9 31.4v4.7H31v-6.5h13.1v6.5h-1.9v-4.7h-3.7v4.7h-1.9v-4.7h-3.7z"/><g fill="#F6EB16"><path d="M30.2 51.1v10.2c0 2.2-1.2 4.4-4.9 4.4-3.3 0-4.9-1.7-4.9-4.4V51.1h3v10c0 1.8.8 2.5 1.9 2.5 1.3 0 1.9-.9 1.9-2.5v-10h3zM37.2 59.1v2h-4.9v-2h4.9zM39.1 53.7c1-.6 2-1.2 2.7-2.2h2.7v14h-3V54.8c-.7.6-1.5 1.1-2.4 1.6v-2.7zM47.2 65.5V63c4.4-5.9 5.3-6.5 5.3-8.3 0-.7-.3-1.4-1.1-1.4-1.2 0-1.2 1.1-1.2 2h-2.8c-.2-2.6 1.3-4 3.8-4 2.4 0 4.1 1 4.1 3.6 0 3.1-3.7 6.7-5.2 8.4h5.3v2.2h-8.2z"/></g><path fill="#F6EB16" d="M36.6 9.3h1.9V18h-1.9V9.3z"/><g fill="#F6EB16"><path d="M61.4 38.2c-4.7-2-4.8-2-4.8-2V34h5.2v-.7h1.3v.7H65v1.7h-1.9v2.6h-1.7zm.4-2.7-4-.1 4 1.5v-1.4zM60.8 28.1c2.6 0 4.3.2 4.3 2.4s-1.7 2.4-4.3 2.4c-3.2 0-4.3-.4-4.3-2.4s1.1-2.4 4.3-2.4zm0 3.1c2.5 0 3.1-.1 3.1-.7 0-.7-.5-.7-3.1-.7s-3.1 0-3.1.7.5.7 3.1.7z"/></g></svg>