<svg version="1.2" baseProfile="tiny" xmlns="http://www.w3.org/2000/svg" viewBox="0 0 75 75" overflow="visible" xml:space="preserve"><path fill="#278C43" d="M0 0h75v75H0z"/><path fill="#F6EB16" d="M20.8 21.5h33.6v22.4H20.8V21.5zm31.7 20.6V23.4H22.6v18.7h29.9zM32.9 31.4v4.7H31v-6.5h13.1v6.5h-1.9v-4.7h-3.7v4.7h-1.9v-4.7h-3.7z"/><g fill="#F6EB16"><path d="M16.6 57.2c.5-.6 1.2-.9 2.1-.9 2.3 0 3 1.6 3 4.6 0 3.7-1.4 4.8-4.3 4.8-2.3 0-3.8-1-3.7-3.5h2.8c0 .4 0 .7.2 1 .2.3.4.4.9.4 1.1 0 1.3-.9 1.3-2.8 0-.9.1-2.8-1.2-2.8-.8 0-1.1.9-1.1 1.6h-2.7v-8.1h7.3v2.2h-4.5v3.5zM27.8 59.1v2h-4.9v-2h4.9zM28.9 65.5V63c4.4-5.9 5.3-6.5 5.3-8.3 0-.7-.3-1.4-1.1-1.4-1.2 0-1.2 1.1-1.2 2h-2.8c-.2-2.6 1.3-4 3.8-4 2.4 0 4.1 1 4.1 3.6 0 3.1-3.7 6.7-5.2 8.4h5.3v2.2h-8.2zM43.3 59.1v2h-4.9v-2h4.9zM45.2 53.7c1-.6 2-1.2 2.7-2.2h2.7v14h-3V54.8c-.7.6-1.5 1.1-2.4 1.6v-2.7zM53.3 65.5V63c4.4-5.9 5.3-6.5 5.3-8.3 0-.7-.3-1.4-1.1-1.4-1.2 0-1.2 1.1-1.2 2h-2.8c-.2-2.6 1.3-4 3.8-4 2.4 0 4.1 1 4.1 3.6 0 3.1-3.7 6.7-5.2 8.4h5.3v2.2h-8.2z"/></g><path fill="#F6EB16" d="M36.6 9.3h1.9V18h-1.9V9.3z"/><g fill="#F6EB16"><path d="M18.4 50.6H9.7v-4.5H11v2.7h2.2v-2.6h1.3v2.6h3.8v1.8zM12.3 43.7h.8c-.7-.3-.9-.9-.9-1.6h1.5c-.1 1.5.8 1.5 1.4 1.5h3.3v1.7h-6.1v-1.6zM9.7 39.5H11v1.7H9.7v-1.7zm8.7 0v1.7h-6.1v-1.7h6.1zM15.6 36.4c.7 0 1.8 0 1.8-.8 0-.6-.6-.7-1.1-.7v-1.7c.7 0 1.2.2 1.6.6.4.4.6 1 .6 1.8 0 2.2-1.3 2.5-3.2 2.5-1.7 0-3.1-.2-3.1-2.5s1.5-2.5 3.4-2.5v3.3zm-.9-1.5c-.6 0-1.4 0-1.4.8s.9.8 1.4.8v-1.6zM18.4 28.9h-.7c.6.3.8.8.8 1.4 0 1.8-1.9 1.7-3.2 1.7-1.2 0-3.1 0-3.1-1.7 0-.6.2-1 .7-1.4H9.7v-1.7h8.7v1.7zm-3.1.1c-1.2 0-2.1 0-2.1.7s.8.7 2.1.7c1.5 0 2.2-.1 2.2-.7-.1-.6-.7-.7-2.2-.7zM12.9 24.3c-.3-.2-.5-.4-.6-.6-.1-.2-.2-.5-.2-.8 0-.8.5-1.5 1.3-1.5h4.9v1.7h-4.2c-.5 0-1 .1-1 .6s.4.6 1 .6h4.2V26h-6.1v-1.7h.7zM17.2 15.4c.4 0 .8 0 1.1-.1v1.6l-.8.1c.6.4.9.9.9 1.6 0 1.2-.9 1.6-1.9 1.6-2 0-2.1-1.5-2.1-3.1h-.5c-.5 0-.9.1-.9.7s.4.6.9.6v1.7c-.7 0-1.2-.2-1.5-.6-.3-.4-.4-.9-.4-1.6 0-2.1.9-2.4 2-2.4h3.2zm-.7 3.1c.4 0 1-.1 1-.6 0-1-1.3-.8-2-.8 0 .8-.1 1.4 1 1.4zM17.8 11c.3.2.5.4.6.6.1.2.2.5.2.8 0 .8-.5 1.5-1.3 1.5h-4.9v-1.7h4.2c.5 0 .9-.1.9-.6s-.4-.6-.9-.6h-4.2V9.3h4.9c.4 0 .8 0 1.2-.1V11h-.7z"/></g><g fill="#F6EB16"><path d="M61.4 38.2c-4.7-2-4.8-2-4.8-2V34h5.2v-.7h1.3v.7H65v1.7h-1.9v2.6h-1.7zm.4-2.7-4-.1 4 1.5v-1.4zM60.8 28.1c2.6 0 4.3.2 4.3 2.4s-1.7 2.4-4.3 2.4c-3.2 0-4.3-.4-4.3-2.4s1.1-2.4 4.3-2.4zm0 3.1c2.5 0 3.1-.1 3.1-.7 0-.7-.5-.7-3.1-.7s-3.1 0-3.1.7.5.7 3.1.7z"/></g></svg>