<svg version="1.2" baseProfile="tiny" xmlns="http://www.w3.org/2000/svg" viewBox="0 0 75 75" overflow="visible" xml:space="preserve"><path fill="#278C43" d="M0 0h75v75H0z"/><path fill="#F6EB16" d="M54.4 21.5v22.4H20.8V21.5h33.6zm-1.9 1.9H22.6v18.7h29.9V23.4z"/><g fill="#F6EB16"><path d="M26 27h2.5v4.6h4.4V27h2.5v11.6h-2.5v-5.1h-4.4v5.1H26V27zM48.7 38.6h-2.8c-.3 0-1.1 0-1.9.1-.8 0-1.6.1-1.8.1-4.3 0-5.1-4-5.1-5.9 0-3.2 1.6-6.1 5.6-6.1 3 0 5.2 2 5.2 5.8 0 2.6-1.2 3.8-1.7 4.3.5-.1 1.6-.2 2.6-.1v1.8zM42.4 37c2.4 0 2.9-2.5 2.9-4.4 0-1.6-.4-2.4-.7-3-.3-.4-1-1.1-2.1-1.1-2.2 0-2.9 2.1-2.9 4.2 0 1.7.5 4.3 2.8 4.3z"/></g><g fill="#F6EB16"><path d="M21.6 58.5c0 4.4-.3 7.2-4 7.2s-4-2.8-4-7.2c0-5.3.6-7.1 4-7.1s4 1.8 4 7.1zm-5.3.1c0 4.2.1 5.1 1.2 5.1s1.2-.9 1.2-5.1c0-4.3 0-5.1-1.2-5.1s-1.2.8-1.2 5.1zM27.8 59.1v2h-4.9v-2h4.9zM29 55.1c0-1.4.3-2.4 1-2.9.6-.5 1.6-.7 3-.7 2.6 0 3.8 1.1 3.8 3.7 0 1.3-.4 2.9-1.9 3.1 1.8.3 2.1 1.8 2.1 3.4 0 2.9-1.5 4.1-4.4 4.1-2.8 0-3.8-1-3.8-4h2.8c0 .9 0 1.9 1.2 1.9 1.3 0 1.4-1.2 1.4-2.2 0-2-.7-2.1-2.6-2.1v-2.2c1.8.1 2.4-.1 2.4-2.1 0-.8-.1-1.7-1.1-1.7s-1.1.8-1.1 1.6H29zM43.3 59.1v2h-4.9v-2h4.9zM45.2 53.7c1-.6 2-1.2 2.7-2.2h2.7v14h-3V54.8c-.7.6-1.5 1.1-2.4 1.6v-2.7zM53.3 65.5V63c4.4-5.9 5.3-6.5 5.3-8.3 0-.7-.3-1.4-1.1-1.4-1.2 0-1.2 1.1-1.2 2h-2.8c-.2-2.6 1.3-4 3.8-4 2.4 0 4.1 1 4.1 3.6 0 3.1-3.7 6.7-5.2 8.4h5.3v2.2h-8.2z"/></g><path fill="#F6EB16" d="M36.6 9.3h1.9V18h-1.9V9.3z"/><g fill="#F6EB16"><path d="M9.8 40.2h6.1c1.3 0 2.7.7 2.7 2.9 0 2-1 3-2.7 3H9.8v-1.8h6c1.1 0 1.5-.5 1.5-1.1 0-.8-.5-1.2-1.5-1.2h-6v-1.8zM18.6 36.3c0 2.2-1.3 2.7-2.8 2.6v-1.8c.8 0 1.5 0 1.5-1 0-.6-.4-.9-1-.9-1.6 0-1.7 3.6-4.2 3.6-1.4 0-2.4-.6-2.4-2.9 0-1.8.8-2.6 2.6-2.5v1.8c-.6 0-1.3.1-1.3.8 0 .6.3.9.9.9 1.6 0 1.5-3.6 4.2-3.6 2.3 0 2.5 1.7 2.5 3zM18.5 32.7l-8.7-2.4v-2.4l8.7-2.4v1.9l-1.9.5v2.5l1.9.5v1.8zm-7-3.5 3.7.9v-1.7l-3.7.8zM18.5 24.7H9.8V20h1.3v2.9h2.1v-2.7h1.3v2.7H17v-3h1.3v4.8z"/></g><g fill="#F6EB16"><path d="M59.8 35.8h-3.5V34H65v1.8h-3.9v2.1H65v1.8h-8.7v-1.8h3.5v-2.1zM65 25.9v3.6c0 2.7-1.4 3-4.4 3-2.3 0-4.5 0-4.5-3s2.2-3 4.5-3c1.9 0 2.7.3 3.3 1.1-.1-.3-.3-.7-.3-.9v-.8H65zm-4.3 2.4c-2.2 0-3.2.1-3.2 1.2s1 1.2 3.2 1.2 3.1-.1 3.1-1.2-1-1.2-3.1-1.2z"/></g></svg>