<svg version="1.2" baseProfile="tiny" xmlns="http://www.w3.org/2000/svg" viewBox="0 0 75 75" overflow="visible" xml:space="preserve"><path fill="#278C43" d="M0 0h75v75H0z"/><path fill="#F6EB16" d="M54.4 21.5v22.4H20.8V21.5h33.6zm-1.9 1.9H22.6v18.7h29.9V23.4z"/><g fill="#F6EB16"><path d="M26 27h2.5v4.6h4.4V27h2.5v11.6h-2.5v-5.1h-4.4v5.1H26V27zM48.7 38.6h-2.8c-.3 0-1.1 0-1.9.1-.8 0-1.6.1-1.8.1-4.3 0-5.1-4-5.1-5.9 0-3.2 1.6-6.1 5.6-6.1 3 0 5.2 2 5.2 5.8 0 2.6-1.2 3.8-1.7 4.3.5-.1 1.6-.2 2.6-.1v1.8zM42.4 37c2.4 0 2.9-2.5 2.9-4.4 0-1.6-.4-2.4-.7-3-.3-.4-1-1.1-2.1-1.1-2.2 0-2.9 2.1-2.9 4.2 0 1.7.5 4.3 2.8 4.3z"/></g><g fill="#F6EB16"><path d="M30.2 51.1v10.2c0 2.2-1.2 4.4-4.9 4.4-3.3 0-4.9-1.7-4.9-4.4V51.1h3v10c0 1.8.8 2.5 1.9 2.5 1.3 0 1.9-.9 1.9-2.5v-10h3zM37.2 59.1v2h-4.9v-2h4.9zM39.1 53.7c1-.6 2-1.2 2.7-2.2h2.7v14h-3V54.8c-.7.6-1.5 1.1-2.4 1.6v-2.7zM47.2 65.5V63c4.4-5.9 5.3-6.5 5.3-8.3 0-.7-.3-1.4-1.1-1.4-1.2 0-1.2 1.1-1.2 2h-2.8c-.2-2.6 1.3-4 3.8-4 2.4 0 4.1 1 4.1 3.6 0 3.1-3.7 6.7-5.2 8.4h5.3v2.2h-8.2z"/></g><path fill="#F6EB16" d="M36.6 9.3h1.9V18h-1.9V9.3z"/><g fill="#F6EB16"><path d="M59.8 35.8h-3.5V34H65v1.8h-3.9v2.1H65v1.8h-8.7v-1.8h3.5v-2.1zM65 25.9v3.6c0 2.7-1.4 3-4.4 3-2.3 0-4.5 0-4.5-3s2.2-3 4.5-3c1.9 0 2.7.3 3.3 1.1-.1-.3-.3-.7-.3-.9v-.8H65zm-4.3 2.4c-2.2 0-3.2.1-3.2 1.2s1 1.2 3.2 1.2 3.1-.1 3.1-1.2-1-1.2-3.1-1.2z"/></g></svg>