<svg version="1.2" baseProfile="tiny" xmlns="http://www.w3.org/2000/svg" viewBox="0 0 75 75" overflow="visible" xml:space="preserve"><path fill="#278C43" d="M0 0h75v75H0z"/><path fill="#F6EB16" d="M20.8 21.5h33.6v22.4H20.8V21.5zm15.1 11.2-13.3-8.9v17.7l13.3-8.8zm-10.7-9.3 12.4 8.2L50 23.4H25.2zm12.4 10.5-12.4 8.2h24.7l-12.3-8.2zm1.6-1.2 13.3 8.9V23.9l-13.3 8.8z"/><g fill="#F6EB16"><path d="M17.8 65.5V63c4.4-5.9 5.3-6.5 5.3-8.3 0-.7-.3-1.4-1.1-1.4-1.2 0-1.2 1.1-1.2 2H18c-.2-2.6 1.3-4 3.8-4 2.4 0 4.1 1 4.1 3.6 0 3.1-3.7 6.7-5.2 8.4H26v2.2h-8.2zM32.2 59.1v2h-4.9v-2h4.9zM33.5 55.1c0-1.4.3-2.4 1-2.9.6-.5 1.6-.7 3-.7 2.6 0 3.8 1.1 3.8 3.7 0 1.3-.4 2.9-1.9 3.1 1.8.3 2.1 1.8 2.1 3.4 0 2.9-1.5 4.1-4.4 4.1-2.8 0-3.8-1-3.8-4h2.8c0 .9 0 1.9 1.2 1.9 1.3 0 1.4-1.2 1.4-2.2 0-2-.7-2.1-2.6-2.1v-2.2c1.8.1 2.4-.1 2.4-2.1 0-.8-.1-1.7-1.1-1.7s-1.1.8-1.1 1.6h-2.8zM47.7 59.1v2h-4.9v-2h4.9zM49 62c0-1.7.3-3.1 2.1-3.8-1.6-.4-1.9-1.6-1.9-3 0-2.5 1.3-3.7 3.9-3.7 2.6 0 3.9 1.2 3.9 3.7 0 1.5-.4 2.6-1.9 3 1.8.6 2.1 2.1 2.1 3.8 0 2.6-1.4 3.8-4 3.8S49 64.6 49 62zm2.8-.2c0 .8.1 1.9 1.2 1.9s1.2-1.1 1.2-1.9c0-.8 0-2.5-1.2-2.5s-1.2 1.6-1.2 2.5zm.2-6.5c0 .7.1 1.9 1.1 1.9s1.1-1.2 1.1-1.9-.1-1.8-1.1-1.8-1.1 1.1-1.1 1.8z"/></g><path fill="#F6EB16" d="M36.6 9.3h1.9V18h-1.9V9.3z"/><g fill="#F6EB16"><path d="M11.9 35.2c-.2 0-.4 0-.5.1-.1.1-.2.2-.2.5 0 .7.4.8 2.5.8-.4-.5-.6-.7-.6-1.3 0-1.6 1.4-1.9 2.7-1.9 1.7 0 2.9.6 2.9 2.5 0 2.2-1.9 2.3-3.6 2.3-3.3 0-5-.2-5-2.6 0-1.3.5-2.2 1.9-2.2v1.8zm3.9-.2c-1.1 0-1.5.1-1.5.8 0 .7.6.7 1.7.7.5 0 1.5 0 1.5-.7-.1-.6-.4-.8-1.7-.8zM16.5 31.1c.2 0 .4 0 .6-.1.2-.1.3-.3.3-.5 0-.8-.7-.7-2.7-.7.4.4.6.9.6 1.4 0 1.3-1.2 1.8-2.3 1.8-1.6 0-3-.5-3-2.4 0-2.5 2-2.5 4.3-2.5 2.1 0 4.3 0 4.3 2.5 0 1.5-.5 2.3-2.1 2.3v-1.8zm-2.4-.6c0-.7-1-.8-1.5-.8s-1.5 0-1.5.7 1 .7 1.5.7 1.5.1 1.5-.6z"/></g><g fill="#F6EB16"><path d="M61.4 47.9c-4.7-2-4.8-2-4.8-2v-2.2h5.2V43h1.3v.7H65v1.7h-1.9V48h-1.7zm.4-2.8-4-.1 4 1.5v-1.4zM57.9 42.2c-.3-.6-.7-1.2-1.3-1.6V39H65v1.8h-6.4c.4.4.7.9.9 1.4h-1.6zM65 36.7h-8.7v-1.8h7.2v-2.7h1.4v4.5zM59 27.4c-.8 0-1.5.1-1.5 1.1 0 1.1 1.5 1.1 3.2 1.1 2.7 0 3.2-.3 3.2-1.3 0-.3-.1-.6-.2-.9h-1.9v1h-1.3v-2.8h4.4c.1.5.3 1.7.3 2.4 0 3-1.3 3.4-4.5 3.4-2.2 0-4.4-.1-4.4-3.1 0-1.8 1-2.9 2.8-2.8v1.9zM65.2 21.7c0 2.2-1.3 2.7-2.8 2.6v-1.8c.8 0 1.5 0 1.5-1 0-.6-.4-.9-1-.9-1.6 0-1.7 3.6-4.2 3.6-1.4 0-2.4-.6-2.4-2.9 0-1.8.8-2.6 2.6-2.5v1.8c-.6 0-1.3.1-1.3.8 0 .6.3.9.9.9 1.6 0 1.5-3.6 4.2-3.6 2.2 0 2.5 1.6 2.5 3z"/></g></svg>