<svg version="1.2" baseProfile="tiny" xmlns="http://www.w3.org/2000/svg" viewBox="0 0 75 75" overflow="visible" xml:space="preserve"><path fill="#278C43" d="M0 0h75v75H0z"/><path fill="#F6EB16" d="M20.8 21.5h33.6v22.4H20.8V21.5zm15.1 11.2-13.3-8.9v17.7l13.3-8.8zm-10.7-9.3 12.4 8.2L50 23.4H25.2zm12.4 10.5-12.4 8.2h24.7l-12.3-8.2zm1.6-1.2 13.3 8.9V23.9l-13.3 8.8z"/><g fill="#F6EB16"><path d="M18.5 53.7c1-.6 2-1.2 2.7-2.2h2.7v14h-3V54.8c-.7.6-1.5 1.1-2.4 1.6v-2.7zM32.2 59.1v2h-4.9v-2h4.9zM33.3 65.5V63c4.4-5.9 5.3-6.5 5.3-8.3 0-.7-.3-1.4-1.1-1.4-1.2 0-1.2 1.1-1.2 2h-2.8c-.2-2.6 1.3-4 3.8-4 2.4 0 4.1 1 4.1 3.6 0 3.1-3.7 6.7-5.2 8.4h5.3v2.2h-8.2zM47.7 59.1v2h-4.9v-2h4.9zM49 62c0-1.7.3-3.1 2.1-3.8-1.6-.4-1.9-1.6-1.9-3 0-2.5 1.3-3.7 3.9-3.7 2.6 0 3.9 1.2 3.9 3.7 0 1.5-.4 2.6-1.9 3 1.8.6 2.1 2.1 2.1 3.8 0 2.6-1.4 3.8-4 3.8S49 64.6 49 62zm2.8-.2c0 .8.1 1.9 1.2 1.9s1.2-1.1 1.2-1.9c0-.8 0-2.5-1.2-2.5s-1.2 1.6-1.2 2.5zm.2-6.5c0 .7.1 1.9 1.1 1.9s1.1-1.2 1.1-1.9-.1-1.8-1.1-1.8-1.1 1.1-1.1 1.8z"/></g><g fill="#F6EB16"><path d="M29.6 9.4h3.2c.5 0 1.5 0 2.1.4.8.5 1 1.3 1 1.8 0 .3-.1.9-.5 1.3-.1.1-.5.5-1 .6 1.3.2 1.8 1.2 1.8 2.1 0 1-.6 1.7-1.3 2-.7.3-1.8.3-2.2.3h-3.2V9.4zm1.8 3.5h1.3c.5 0 1.5 0 1.5-1.1s-.9-1.1-1.5-1.1h-1.3v2.2zm0 3.7h1.3c.9 0 1.8 0 1.8-1.2s-1.1-1.2-2-1.2h-1.1v2.4zM43.5 12c0-.2 0-.5-.2-.9-.4-.6-1-.7-1.5-.7-2.1 0-2.5 2-2.5 3.3 0 .6.1 1.6.7 2.3.4.5 1 .7 2 .7.9 0 1.2-.1 1.4-.2v-1.8h-1.7v-1.4h3.5v4.3c-.5.2-1.4.5-3.2.5-2 0-3-.5-3.7-1.2-1-.9-1.2-2.3-1.2-3.2 0-3.1 1.9-4.7 4.5-4.7 1.1 0 2.3.3 3 1.1.6.7.6 1.3.6 1.8h-1.7z"/></g><g fill="#F6EB16"><path d="M9.8 40.2h6.1c1.3 0 2.7.7 2.7 2.9 0 2-1 3-2.7 3H9.8v-1.8h6c1.1 0 1.5-.5 1.5-1.1 0-.8-.5-1.2-1.5-1.2h-6v-1.8zM18.6 36.3c0 2.2-1.3 2.7-2.8 2.6v-1.8c.8 0 1.5 0 1.5-1 0-.6-.4-.9-1-.9-1.6 0-1.7 3.6-4.2 3.6-1.4 0-2.4-.6-2.4-2.9 0-1.8.8-2.6 2.6-2.5v1.8c-.6 0-1.3.1-1.3.8 0 .6.3.9.9.9 1.6 0 1.5-3.6 4.2-3.6 2.3 0 2.5 1.7 2.5 3zM18.5 32.7l-8.7-2.4v-2.4l8.7-2.4v1.9l-1.9.5v2.5l1.9.5v1.8zm-7-3.5 3.7.9v-1.7l-3.7.8zM18.5 24.7H9.8V20h1.3v2.9h2.1v-2.7h1.3v2.7H17v-3h1.3v4.8z"/></g></svg>