<svg version="1.2" baseProfile="tiny" xmlns="http://www.w3.org/2000/svg" viewBox="0 0 75 75" overflow="visible" xml:space="preserve"><path fill="#278C43" d="M0 0h75v75H0z"/><path fill="#F6EB16" d="M54.4 21.5v22.4H20.8V21.5h33.6zm-1.9 1.9H22.6v18.7h29.9V23.4z"/><g fill="#F6EB16"><path d="M25.8 27h4l2.4 8.4 2.6-8.4h3.9v11.6h-2.5v-9.9L33 38.6h-2l-3.1-9.9v9.9h-2.3V27zM41 27h3.6c1.7 0 3.1.1 4 1.3.6.7.7 1.6.7 2.2 0 1.3-.6 2.5-1.5 3.1-.8.5-2 .5-2.6.5h-1.7v4.5H41V27zm2.4 5.2h1c.8 0 2.3 0 2.3-1.8 0-1.6-1.3-1.6-2-1.6h-1.2v3.4z"/></g><g fill="#F6EB16"><path d="M30.2 51.1v10.2c0 2.2-1.2 4.4-4.9 4.4-3.3 0-4.9-1.7-4.9-4.4V51.1h3v10c0 1.8.8 2.5 1.9 2.5 1.3 0 1.9-.9 1.9-2.5v-10h3zM37.2 59.1v2h-4.9v-2h4.9zM39.1 53.7c1-.6 2-1.2 2.7-2.2h2.7v14h-3V54.8c-.7.6-1.5 1.1-2.4 1.6v-2.7zM47.2 65.5V63c4.4-5.9 5.3-6.5 5.3-8.3 0-.7-.3-1.4-1.1-1.4-1.2 0-1.2 1.1-1.2 2h-2.8c-.2-2.6 1.3-4 3.8-4 2.4 0 4.1 1 4.1 3.6 0 3.1-3.7 6.7-5.2 8.4h5.3v2.2h-8.2z"/></g><path fill="#F6EB16" d="M36.6 9.3h1.9V18h-1.9V9.3z"/></svg>