<svg version="1.2" baseProfile="tiny" xmlns="http://www.w3.org/2000/svg" viewBox="0 0 75 75" overflow="visible" xml:space="preserve"><path fill="#278C43" d="M0 0h75v75H0z"/><path fill="#F6EB16" d="M20.8 21.5h33.6v22.4H20.8V21.5zm7.3 6.1-5.5-3.7v17.7l5.5-3.7c-1.1-1-1.7-2.3-1.7-3.8v-2.7c0-1.5.6-2.9 1.7-3.8zm15.5-1.3c.5 0 1.1.1 1.6.3l4.7-3.1H25.2l4.7 3.1c.5-.2 1.1-.3 1.6-.3h12.1zM29.9 39l-4.7 3.1h24.7L45.3 39c-.5.2-1.1.3-1.6.3H31.6c-.6 0-1.2-.1-1.7-.3zm-1.7-4.9c0 1.1.5 2.1 1.5 2.8l6.2-4.1-6.1-4.1c-.9.6-1.5 1.6-1.5 2.8v2.6zm9.4-.2-5.3 3.6H43l-5.4-3.6zm0-2.3 5.3-3.5H32.3l5.3 3.5zm9.3-.2c0-1.1-.6-2.2-1.5-2.8l-6.2 4.1 6.2 4.1c.9-.6 1.5-1.6 1.5-2.8v-2.6zM47 38l5.5 3.6V23.9L47 27.6c1.1 1 1.7 2.4 1.7 3.8v2.7c.1 1.5-.5 2.9-1.7 3.9z"/><g fill="#F6EB16"><path d="M13.5 55.1c0-1.4.3-2.4 1-2.9.6-.5 1.6-.7 3-.7 2.6 0 3.8 1.1 3.8 3.7 0 1.3-.4 2.9-1.9 3.1 1.8.3 2.1 1.8 2.1 3.4 0 2.9-1.5 4.1-4.4 4.1-2.8 0-3.8-1-3.8-4h2.8c0 .9 0 1.9 1.2 1.9 1.3 0 1.4-1.2 1.4-2.2 0-2-.7-2.1-2.6-2.1v-2.2c1.8.1 2.4-.1 2.4-2.1 0-.8-.1-1.7-1.1-1.7s-1.1.8-1.1 1.6h-2.8zM27.8 59.1v2h-4.9v-2h4.9zM34 54.6c0-.4 0-.7-.2-.9-.2-.2-.4-.4-.8-.4-1.2 0-1.3.6-1.3 4.2.8-.7 1.2-1 2.2-1 2.6 0 3.1 2.3 3.1 4.4 0 2.9-1.1 4.8-4.2 4.8-3.6 0-3.9-3.1-3.9-6 0-5.6.3-8.3 4.3-8.3 2.1 0 3.7.9 3.7 3.2H34zm.3 6.4c0-1.8-.2-2.5-1.3-2.5s-1.2 1-1.2 2.8c0 .8 0 2.5 1.2 2.5 1-.1 1.3-.7 1.3-2.8zM43.3 59.1v2h-4.9v-2h4.9zM45.2 53.7c1-.6 2-1.2 2.7-2.2h2.7v14h-3V54.8c-.7.6-1.5 1.1-2.4 1.6v-2.7zM53.3 65.5V63c4.4-5.9 5.3-6.5 5.3-8.3 0-.7-.3-1.4-1.1-1.4-1.2 0-1.2 1.1-1.2 2h-2.8c-.2-2.6 1.3-4 3.8-4 2.4 0 4.1 1 4.1 3.6 0 3.1-3.7 6.7-5.2 8.4h5.3v2.2h-8.2z"/></g><g fill="#F6EB16"><path d="M34.9 9.3h1.9V18h-1.9V9.3zM38.2 9.3h1.9V18h-1.9V9.3z"/></g><path fill="#F6EB16" d="M18.5 35.6H17c-3.5-2.6-3.9-3.2-5-3.2-.4 0-.8.2-.8.6 0 .7.7.7 1.2.7v1.7c-1.6.1-2.4-.8-2.4-2.3 0-1.5.6-2.4 2.2-2.4 1.9 0 4 2.2 5 3.1v-3.2h1.3v5zM58.5 32.6c-.2 0-.4 0-.5.1-.1.1-.2.2-.2.5 0 .7.4.8 2.5.8-.4-.5-.6-.7-.6-1.3 0-1.6 1.4-1.9 2.7-1.9 1.7 0 2.9.6 2.9 2.5 0 2.2-1.9 2.3-3.6 2.3-3.3 0-5-.2-5-2.6 0-1.3.5-2.2 1.9-2.2v1.8zm3.8-.2c-1.1 0-1.5.1-1.5.8 0 .7.6.7 1.7.7.5 0 1.5 0 1.5-.7-.1-.6-.4-.8-1.7-.8z"/></svg>