<svg version="1.2" baseProfile="tiny" xmlns="http://www.w3.org/2000/svg" viewBox="0 0 75 75" overflow="visible" xml:space="preserve"><path fill="#4E69B2" d="M0 0h75v75H0z"/><g fill="#D3D3D3"><path d="M20.8 42h33.5v1.9H20.8V42zM20.8 21.5h33.5v1.9H20.8v-1.9zM27.3 26.9l1.8 8.7 2.3-8.7h2.8l2 8.7 1.9-8.7h2.4l-3 11.6h-2.8l-2.1-8.8-2.3 8.8h-2.8l-2.8-11.6h2.6zM41.6 26.9h4.3c.7 0 2 0 2.8.5 1.1.7 1.3 1.8 1.3 2.5 0 .4-.1 1.2-.7 1.7-.1.1-.6.6-1.3.8 1.8.3 2.4 1.6 2.4 2.8 0 1.4-.8 2.3-1.7 2.7-.9.5-2.5.5-2.9.5h-4.3V26.9zm2.4 4.7h1.7c.7 0 2 0 2-1.5 0-1.4-1.2-1.4-2-1.4H44v2.9zm0 5h1.7c1.1 0 2.4 0 2.4-1.6s-1.5-1.6-2.7-1.6H44v3.2z"/></g><g fill="#D3D3D3"><path d="M18.5 53.7c1-.6 2-1.2 2.7-2.2h2.7v14h-3V54.8c-.7.6-1.5 1.1-2.4 1.6v-2.7zM32.2 59.1v2h-4.9v-2h4.9zM34.1 53.7c1-.6 2-1.2 2.7-2.2h2.7v14h-3V54.8c-.7.6-1.5 1.1-2.4 1.6v-2.7zM47.7 59.1v2h-4.9v-2h4.9zM49 62c0-1.7.3-3.1 2.1-3.8-1.6-.4-1.9-1.6-1.9-3 0-2.5 1.3-3.7 3.9-3.7 2.6 0 3.9 1.2 3.9 3.7 0 1.5-.4 2.6-1.9 3 1.8.6 2.1 2.1 2.1 3.8 0 2.6-1.4 3.8-4 3.8S49 64.6 49 62zm2.8-.2c0 .8.1 1.9 1.2 1.9s1.2-1.1 1.2-1.9c0-.8 0-2.5-1.2-2.5s-1.2 1.6-1.2 2.5zm.2-6.5c0 .7.1 1.9 1.1 1.9s1.1-1.2 1.1-1.9-.1-1.8-1.1-1.8-1.1 1.1-1.1 1.8z"/></g><path fill="#D3D3D3" d="M36.6 9.3h1.9V18h-1.9V9.3z"/><g fill="#D3D3D3"><path d="M18.5 57.3H9.8v-2.4l6-2.3h-6v-1.7h8.7v2.4l-6.3 2.4h6.3v1.6zM9.8 47.6h1.3v1.7H9.8v-1.7zm8.7 0v1.7h-6.1v-1.7h6.1zM18.5 46.1H9.8v-1.7H15l-2.6-1.5v-1.8l2.7 1.7 3.4-1.9v1.9l-3.3 1.6h3.3v1.7zM15.4 40.2c-1.7 0-3.1-.2-3.1-2.5 0-2.2 1.4-2.5 3.1-2.5 1.9 0 3.2.3 3.2 2.5s-1.3 2.5-3.2 2.5zm-.1-3.2c-1.3 0-1.9.1-1.9.8 0 .7.6.8 1.9.8 1.8 0 2.2-.2 2.2-.8 0-.7-.4-.8-2.2-.8zM9.8 32.3h8.7V34H9.8v-1.7zM17.4 26.2c.4 0 .8 0 1.1-.1v1.6l-.8.1c.6.4.9.9.9 1.6 0 1.2-.9 1.6-1.9 1.6-2 0-2.1-1.5-2.1-3.1h-.5c-.5 0-.9.1-.9.7s.4.6.9.6v1.7c-.7 0-1.2-.2-1.5-.6-.3-.4-.4-.9-.4-1.6 0-2.1.9-2.4 2-2.4h3.2zm-.8 3.1c.4 0 1-.1 1-.6 0-1-1.3-.8-2-.8 0 .8-.1 1.4 1 1.4zM16.6 23.4c.3 0 .5 0 .7-.1.2-.1.3-.3.3-.6s-.2-.6-.6-.6c-1.3 0-1 3-2.9 3-1.3 0-1.7-1.3-1.7-2.4 0-1.2.6-2.2 1.9-2.1v1.7c-.4 0-.7 0-.8.2-.1.1-.1.3-.1.4 0 .4.2.6.6.6 1 0 .9-3 2.9-3 1.1 0 1.8.9 1.8 2.3 0 1.5-.4 2.5-2.1 2.4v-1.8zM15.7 17.9c.7 0 1.8 0 1.8-.8 0-.6-.6-.7-1.1-.7v-1.7c.7 0 1.2.2 1.6.6.4.4.6 1 .6 1.8 0 2.2-1.3 2.5-3.2 2.5-1.7 0-3.1-.2-3.1-2.5s1.5-2.5 3.4-2.5v3.3zm-.9-1.6c-.6 0-1.4 0-1.4.8s.9.8 1.4.8v-1.6zM15.7 11.9c.7 0 1.8 0 1.8-.8 0-.6-.6-.7-1.1-.7V8.7c.7 0 1.2.2 1.6.6.4.4.6 1 .6 1.8 0 2.2-1.3 2.5-3.2 2.5-1.7 0-3.1-.2-3.1-2.5s1.5-2.5 3.4-2.5v3.3zm-.9-1.6c-.6 0-1.4 0-1.4.8s.9.8 1.4.8v-1.6z"/></g></svg>