<svg version="1.2" baseProfile="tiny" xmlns="http://www.w3.org/2000/svg" viewBox="0 0 75 75" overflow="visible" xml:space="preserve"><path fill="#4E69B2" d="M0 0h75v75H0z"/><g fill="#D3D3D3"><path d="M20.8 42h33.5v1.9H20.8V42zM20.8 21.5h33.5v1.9H20.8v-1.9zM27.3 26.9l1.8 8.7 2.3-8.7h2.8l2 8.7 1.9-8.7h2.4l-2.9 11.6h-2.8l-2.1-8.8-2.3 8.8h-2.8l-2.8-11.6h2.5zM41.6 26.9h4.3c.7 0 2 0 2.8.5 1.1.7 1.3 1.8 1.3 2.5 0 .4-.1 1.2-.7 1.7-.1.1-.6.6-1.3.8 1.8.3 2.4 1.6 2.4 2.8 0 1.4-.8 2.3-1.7 2.7-.9.5-2.5.5-2.9.5h-4.3V26.9zm2.4 4.7h1.7c.7 0 2 0 2-1.5 0-1.4-1.2-1.4-2-1.4H44v2.9zm0 5h1.7c1.1 0 2.4 0 2.4-1.6s-1.5-1.6-2.7-1.6H44v3.2z"/></g><g fill="#D3D3D3"><path d="M18.5 53.7c1-.6 2-1.2 2.7-2.2h2.7v14h-3V54.8c-.7.6-1.5 1.1-2.4 1.6v-2.7zM32.2 59.1v2h-4.9v-2h4.9zM33.3 65.5V63c4.4-5.9 5.3-6.5 5.3-8.3 0-.7-.3-1.4-1.1-1.4-1.2 0-1.2 1.1-1.2 2h-2.8c-.2-2.6 1.3-4 3.8-4 2.4 0 4.1 1 4.1 3.6 0 3.1-3.7 6.7-5.2 8.4h5.3v2.2h-8.2zM47.7 59.1v2h-4.9v-2h4.9zM49 62c0-1.7.3-3.1 2.1-3.8-1.6-.4-1.9-1.6-1.9-3 0-2.5 1.3-3.7 3.9-3.7 2.6 0 3.9 1.2 3.9 3.7 0 1.5-.4 2.6-1.9 3 1.8.6 2.1 2.1 2.1 3.8 0 2.6-1.4 3.8-4 3.8S49 64.6 49 62zm2.8-.2c0 .8.1 1.9 1.2 1.9s1.2-1.1 1.2-1.9c0-.8 0-2.5-1.2-2.5s-1.2 1.6-1.2 2.5zm.2-6.5c0 .7.1 1.9 1.1 1.9s1.1-1.2 1.1-1.9-.1-1.8-1.1-1.8-1.1 1.1-1.1 1.8z"/></g><path fill="#D3D3D3" d="M36.6 9.3h1.9V18h-1.9V9.3z"/><g fill="#D3D3D3"><path d="M18.5 55.7H9.8v-3.2c0-1.4.4-2.5 2.2-2.5 1 0 1.7.5 1.9 1.5.2-1.3 1-1.6 2.2-1.6 2.2 0 2.3 1.9 2.3 2.7v3.1zm-5.1-1.9v-1.2c0-.4-.3-.9-1.1-.9-.6 0-1.1.4-1.1 1v1.1h2.2zm3.8 0v-1c0-.4 0-1.2-1.2-1.2-.8 0-1.2.3-1.2 1.2v1.1h2.4zM17.9 45.5c.3.2.5.4.6.6.1.2.2.5.2.8 0 .8-.5 1.5-1.3 1.5h-4.9v-1.7h4.2c.5 0 .9-.1.9-.6s-.4-.6-.9-.6h-4.2v-1.7h4.9c.4 0 .8 0 1.2-.1v1.8h-.7zM14.6 39.3c-.9 0-1.2.2-1.2.8 0 .7.6.8 1.9.8 1.8 0 2.2-.2 2.2-.8 0-.5-.5-.8-1.3-.8v-1.7c1.6 0 2.4.9 2.4 2.5 0 2.2-1.3 2.5-3.2 2.5-1.7 0-3.1-.2-3.1-2.5 0-1.6.7-2.4 2.3-2.4v1.6zM18.5 36.5H9.8v-1.7H15l-2.6-1.5v-1.8l2.7 1.7 3.4-1.9v1.9l-3.3 1.6h3.3v1.7zM13 28.7c-.3-.2-.5-.4-.6-.6-.1-.2-.2-.5-.2-.8 0-.8.5-1.5 1.3-1.5h4.9v1.7h-4.2c-.5 0-1 .1-1 .6s.4.6 1 .6h4.2v1.7h-6.1v-1.7h.7zM15.4 24.6c-1.7 0-3.1-.2-3.1-2.5 0-2.2 1.4-2.5 3.1-2.5 1.9 0 3.2.3 3.2 2.5s-1.3 2.5-3.2 2.5zm-.1-3.3c-1.3 0-1.9.1-1.9.8 0 .7.6.8 1.9.8 1.8 0 2.2-.2 2.2-.8 0-.6-.4-.8-2.2-.8zM12.4 19v-1.7l4.6-.8-4.6-1.2v-1.8l4.6-1.1-4.6-.9V9.9l6.1 1.6v1.8l-4.1 1.1 4.1 1.2v1.8L12.4 19z"/></g><path fill="#4E69B2" d="M0 75h75v75H0z"/></svg>