<svg version="1.2" baseProfile="tiny" xmlns="http://www.w3.org/2000/svg" viewBox="0 0 75 75" overflow="visible" xml:space="preserve"><path fill="#4E69B2" d="M0 0h75v75H0z"/><g fill="#D3D3D3"><path d="M20.8 42h33.5v1.9H20.8V42zM20.8 21.5h33.5v1.9H20.8v-1.9zM27.3 26.9l1.8 8.7 2.3-8.7h2.8l2 8.7 1.9-8.7h2.4l-2.9 11.6h-2.8l-2.1-8.8-2.3 8.8h-2.8l-2.8-11.6h2.5zM41.6 26.9h4.3c.7 0 2 0 2.8.5 1.1.7 1.3 1.8 1.3 2.5 0 .4-.1 1.2-.7 1.7-.1.1-.6.6-1.3.8 1.8.3 2.4 1.6 2.4 2.8 0 1.4-.8 2.3-1.7 2.7-.9.5-2.5.5-2.9.5h-4.3V26.9zm2.4 4.7h1.7c.7 0 2 0 2-1.5 0-1.4-1.2-1.4-2-1.4H44v2.9zm0 5h1.7c1.1 0 2.4 0 2.4-1.6s-1.5-1.6-2.7-1.6H44v3.2z"/></g><g fill="#D3D3D3"><path d="M26 58.5c0 4.4-.3 7.2-4 7.2s-4-2.8-4-7.2c0-5.3.6-7.1 4-7.1s4 1.8 4 7.1zm-5.2.1c0 4.2.1 5.1 1.2 5.1s1.2-.9 1.2-5.1c0-4.3 0-5.1-1.2-5.1s-1.2.8-1.2 5.1zM32.2 59.1v2h-4.9v-2h4.9zM33.3 65.5V63c4.4-5.9 5.3-6.5 5.3-8.3 0-.7-.3-1.4-1.1-1.4-1.2 0-1.2 1.1-1.2 2h-2.8c-.2-2.6 1.3-4 3.8-4 2.4 0 4.1 1 4.1 3.6 0 3.1-3.7 6.7-5.2 8.4h5.3v2.2h-8.2zM47.7 59.1v2h-4.9v-2h4.9zM49 62c0-1.7.3-3.1 2.1-3.8-1.6-.4-1.9-1.6-1.9-3 0-2.5 1.3-3.7 3.9-3.7 2.6 0 3.9 1.2 3.9 3.7 0 1.5-.4 2.6-1.9 3 1.8.6 2.1 2.1 2.1 3.8 0 2.6-1.4 3.8-4 3.8S49 64.6 49 62zm2.8-.2c0 .8.1 1.9 1.2 1.9s1.2-1.1 1.2-1.9c0-.8 0-2.5-1.2-2.5s-1.2 1.6-1.2 2.5zm.2-6.5c0 .7.1 1.9 1.1 1.9s1.1-1.2 1.1-1.9-.1-1.8-1.1-1.8-1.1 1.1-1.1 1.8z"/></g><path fill="#D3D3D3" d="M36.6 9.3h1.9V18h-1.9V9.3z"/><g fill="#D3D3D3"><path d="M9.8 56v-5.2h1.6l5.8 3.6v-3.7h1.3v5.5h-1.6l-5.7-3.6V56H9.8zM17.4 45.2c.4 0 .8 0 1.1-.1v1.6l-.8.1c.6.4.9.9.9 1.6 0 1.2-.9 1.6-1.9 1.6-2 0-2.1-1.5-2.1-3.1h-.5c-.5 0-.9.1-.9.7s.4.6.9.6v1.7c-.7 0-1.2-.2-1.5-.6-.3-.4-.4-.9-.4-1.6 0-2.1.9-2.4 2-2.4h3.2zm-.8 3.1c.4 0 1-.1 1-.6 0-1-1.3-.8-2-.8 0 .8-.1 1.4 1 1.4zM18.5 40.8h-4.2c-.5 0-1 .1-1 .6s.4.6 1 .6h4.2v1.7H9.8V42H13c-.3-.2-.5-.4-.6-.6-.1-.2-.2-.5-.2-.8 0-.8.5-1.5 1.3-1.5h4.9v1.7zM9.8 35.9h8.7v1.7H9.8v-1.7zM15.7 32.9c.7 0 1.8 0 1.8-.8 0-.6-.6-.7-1.1-.7v-1.7c.7 0 1.2.2 1.6.6.4.4.6 1 .6 1.8 0 2.2-1.3 2.5-3.2 2.5-1.7 0-3.1-.2-3.1-2.5s1.5-2.5 3.4-2.5v3.3zm-.9-1.6c-.6 0-1.4 0-1.4.8s.9.8 1.4.8v-1.6zM13 26.7c-.3-.2-.5-.4-.6-.6-.1-.2-.2-.5-.2-.8 0-.8.5-1.5 1.3-1.5h4.9v1.7h-4.2c-.5 0-1 .1-1 .6s.4.6 1 .6h4.2v1.7h-6.1v-1.7h.7zM18.5 19.4h-.7c.6.3.8.8.8 1.4 0 1.8-1.9 1.7-3.2 1.7-1.2 0-3.1 0-3.1-1.7 0-.6.2-1 .7-1.4H9.8v-1.7h8.7v1.7zm-3.1.1c-1.2 0-2.1 0-2.1.7s.8.7 2.1.7c1.5 0 2.2-.1 2.2-.7s-.7-.7-2.2-.7zM12.4 14.8h.8c-.7-.3-.9-.9-.9-1.6h1.5c-.1 1.5.8 1.5 1.4 1.5h3.3v1.7h-6.1v-1.6z"/><path d="M10.9 9.8c0 .7.2.8.8.8h.7v-.7h1v.8h5v1.7h-5v.8h-1v-.8c-1.7 0-2.7.2-2.7-1.9v-.6h1.2z"/></g></svg>