<svg version="1.2" baseProfile="tiny" xmlns="http://www.w3.org/2000/svg" viewBox="0 0 75 75" overflow="visible" xml:space="preserve"><path fill="#4E69B2" d="M0 0h75v75H0z"/><g fill="#D3D3D3"><path d="M20.8 42h33.5v1.9H20.8V42zM20.8 21.5h33.5v1.9H20.8v-1.9zM27.3 26.9l1.8 8.7 2.3-8.7h2.8l2 8.7 1.9-8.7h2.4l-2.9 11.6h-2.8l-2.1-8.8-2.3 8.8h-2.8l-2.8-11.6h2.5zM41.6 26.9h4.3c.7 0 2 0 2.8.5 1.1.7 1.3 1.8 1.3 2.5 0 .4-.1 1.2-.7 1.7-.1.1-.6.6-1.3.8 1.8.3 2.4 1.6 2.4 2.8 0 1.4-.8 2.3-1.7 2.7-.9.5-2.5.5-2.9.5h-4.3V26.9zm2.4 4.7h1.7c.7 0 2 0 2-1.5 0-1.4-1.2-1.4-2-1.4H44v2.9zm0 5h1.7c1.1 0 2.4 0 2.4-1.6s-1.5-1.6-2.7-1.6H44v3.2z"/></g><g fill="#D3D3D3"><path d="M26 58.5c0 4.4-.3 7.2-4 7.2s-4-2.8-4-7.2c0-5.3.6-7.1 4-7.1s4 1.8 4 7.1zm-5.2.1c0 4.2.1 5.1 1.2 5.1s1.2-.9 1.2-5.1c0-4.3 0-5.1-1.2-5.1s-1.2.8-1.2 5.1zM32.2 59.1v2h-4.9v-2h4.9zM33.3 65.5V63c4.4-5.9 5.3-6.5 5.3-8.3 0-.7-.3-1.4-1.1-1.4-1.2 0-1.2 1.1-1.2 2h-2.8c-.2-2.6 1.3-4 3.8-4 2.4 0 4.1 1 4.1 3.6 0 3.1-3.7 6.7-5.2 8.4h5.3v2.2h-8.2zM47.7 59.1v2h-4.9v-2h4.9zM49 62c0-1.7.3-3.1 2.1-3.8-1.6-.4-1.9-1.6-1.9-3 0-2.5 1.3-3.7 3.9-3.7 2.6 0 3.9 1.2 3.9 3.7 0 1.5-.4 2.6-1.9 3 1.8.6 2.1 2.1 2.1 3.8 0 2.6-1.4 3.8-4 3.8S49 64.6 49 62zm2.8-.2c0 .8.1 1.9 1.2 1.9s1.2-1.1 1.2-1.9c0-.8 0-2.5-1.2-2.5s-1.2 1.6-1.2 2.5zm.2-6.5c0 .7.1 1.9 1.1 1.9s1.1-1.2 1.1-1.9-.1-1.8-1.1-1.8-1.1 1.1-1.1 1.8z"/></g><path fill="#D3D3D3" d="M36.6 9.3h1.9V18h-1.9V9.3z"/><g fill="#D3D3D3"><path d="M18.5 42.3H9.8v-1.8H17v-2.7h1.4v4.5zM17.9 34.1c.3.2.5.4.6.6.1.2.2.5.2.8 0 .8-.5 1.5-1.3 1.5h-4.9v-1.7h4.2c.5 0 .9-.1.9-.6s-.4-.6-.9-.6h-4.2v-1.7h4.9c.4 0 .8 0 1.2-.1v1.8h-.7zM16.6 29.8c.3 0 .5 0 .7-.1.2-.1.3-.3.3-.6s-.2-.6-.6-.6c-1.3 0-1 3-2.9 3-1.3 0-1.7-1.3-1.7-2.4 0-1.2.6-2.2 1.9-2.1v1.7c-.4 0-.7 0-.8.2-.1.1-.1.3-.1.4 0 .4.2.6.6.6 1 0 .9-3 2.9-3 1.1 0 1.8.9 1.8 2.3 0 1.5-.4 2.5-2.1 2.4v-1.8zM12.4 26.5v-.7h-1l-.8-1.7h1.7v-.9h1v.9h3.2c.5 0 .8 0 .8-.5v-.3h1c0 .2.1.5.1.9 0 1.5-1 1.7-1.3 1.7h-3.7v.7h-1z"/></g></svg>