<svg version="1.2" baseProfile="tiny" xmlns="http://www.w3.org/2000/svg" viewBox="0 0 75 75" overflow="visible" xml:space="preserve"><path fill="#4783B5" d="M0 0h75v75H0z"/><path fill="#010101" d="M20.6 26.1h33.6v22.4H20.6V26.1zM35.7 28H22.5v17.7L35.7 28zm15.1 18.6L37.4 28.7 24 46.6h26.8zm-13.4-5.9c-1.9 0-3.4-1.5-3.4-3.4s1.5-3.4 3.4-3.4 3.4 1.5 3.4 3.4-1.5 3.4-3.4 3.4zm15 4.9V27.9H39.2l13.2 17.7z"/><g fill="#010101"><path d="M57.9 48.4c-.3-.6-.7-1.2-1.3-1.6v-1.6H65V47h-6.4c.4.4.7.9.9 1.4h-1.6zM60.7 38.6c2.6 0 4.3.2 4.3 2.4s-1.7 2.4-4.3 2.4c-3.2 0-4.3-.4-4.3-2.4s1.1-2.4 4.3-2.4zm.1 3.1c2.5 0 3.1-.1 3.1-.7s-.5-.7-3.1-.7-3.1 0-3.1.7.5.7 3.1.7zM56.3 33h6.6c1.5 0 2.2 1.2 2.2 2.5 0 2.5-1.1 2.6-3 2.6v-1.8c.7 0 1.7.2 1.7-.8 0-.4-.4-.7-.7-.7h-6.8V33zM58.9 27h6.3c.4 0 2.1 0 2.1 2.3 0 1.3-.3 2.3-1.8 2.4V30c.3 0 .5 0 .6-.1.2-.1.2-.3.2-.6 0-.4-.4-.6-1-.6h-1.2c.5.3.7.7.7 1.3 0 1.9-1.7 1.8-3.1 1.8-1.3 0-3 0-3-1.8 0-.6.3-1.1.8-1.4h-.7V27zm4.9 2.4c0-.6-.6-.7-1.9-.7-1.3 0-2.1.1-2.1.7s.4.7 2.3.7c.6 0 1.7.1 1.7-.7z"/></g></svg>