<svg version="1.2" baseProfile="tiny" xmlns="http://www.w3.org/2000/svg" viewBox="0 0 75 75" overflow="visible" xml:space="preserve"><path fill="#4783B5" d="M0 0h75v75H0z"/><path fill="#010101" d="M20.6 26.1h33.6v22.4H20.6V26.1zM35.7 28H22.5v17.7L35.7 28zm15.1 18.6L37.4 28.7 24 46.6h26.8zm-13.4-5.9c-1.9 0-3.4-1.5-3.4-3.4s1.5-3.4 3.4-3.4 3.4 1.5 3.4 3.4-1.5 3.4-3.4 3.4zm15 4.9V27.9H39.2l13.2 17.7z"/><g fill="#010101"><path d="M33.2 59.5c3.4-7.9 3.4-7.9 3.4-8h3.7v8.6h1.1v2.2h-1.1v3.2h-2.8v-3.2h-4.3v-2.8zm4.6.6.2-6.7-2.5 6.7h2.3zM47.5 59v2h-4.9v-2h4.9zM49.3 53.7c1-.6 2-1.2 2.7-2.2h2.7v14h-3V54.8c-.7.6-1.5 1.1-2.4 1.6v-2.7zM57.5 65.5V63c4.4-5.9 5.3-6.5 5.3-8.3 0-.7-.3-1.4-1.1-1.4-1.2 0-1.2 1.1-1.2 2h-2.8c-.2-2.6 1.3-4 3.8-4 2.4 0 4.1 1 4.1 3.6 0 3.1-3.7 6.7-5.2 8.4h5.3v2.2h-8.2z"/></g><g fill="#010101"><path d="M27 11.5c1-.6 2-1.2 2.7-2.2h2.7v14h-3V12.6c-.7.6-1.5 1.1-2.4 1.6v-2.7zM40.7 16.9v2h-4.9v-2h4.9zM41.8 23.3v-2.5c4.4-5.9 5.3-6.5 5.3-8.3 0-.7-.3-1.4-1.1-1.4-1.2 0-1.2 1.1-1.2 2H42c-.2-2.6 1.3-4 3.8-4 2.4 0 4.1 1 4.1 3.6 0 3.1-3.7 6.7-5.2 8.4H50v2.2h-8.2zM56.2 16.9v2h-4.9v-2h4.9zM57.6 17.3C61 9.4 61 9.4 61 9.3h3.7v8.6h1.1v2.2h-1.1v3.2h-2.8v-3.2h-4.3v-2.8zm4.5.7.2-6.7-2.5 6.7h2.3z"/></g><g fill="#010101"><path d="M57.9 48.4c-.3-.6-.7-1.2-1.3-1.6v-1.6H65V47h-6.4c.4.4.7.9.9 1.4h-1.6zM60.7 38.6c2.6 0 4.3.2 4.3 2.4s-1.7 2.4-4.3 2.4c-3.2 0-4.3-.4-4.3-2.4s1.1-2.4 4.3-2.4zm.1 3.1c2.5 0 3.1-.1 3.1-.7s-.5-.7-3.1-.7-3.1 0-3.1.7.5.7 3.1.7zM56.3 33h6.6c1.5 0 2.2 1.2 2.2 2.5 0 2.5-1.1 2.6-3 2.6v-1.8c.7 0 1.7.2 1.7-.8 0-.4-.4-.7-.7-.7h-6.8V33zM58.9 27h6.3c.4 0 2.1 0 2.1 2.3 0 1.3-.3 2.3-1.8 2.4V30c.3 0 .5 0 .6-.1.2-.1.2-.3.2-.6 0-.4-.4-.6-1-.6h-1.2c.5.3.7.7.7 1.3 0 1.9-1.7 1.8-3.1 1.8-1.3 0-3 0-3-1.8 0-.6.3-1.1.8-1.4h-.7V27zm4.9 2.4c0-.6-.6-.7-1.9-.7-1.3 0-2.1.1-2.1.7s.4.7 2.3.7c.6 0 1.7.1 1.7-.7z"/></g></svg>