<svg version="1.2" baseProfile="tiny" xmlns="http://www.w3.org/2000/svg" viewBox="0 0 75 75" overflow="visible" xml:space="preserve"><path fill="#4783B5" d="M0 0h75v75H0z"/><path fill="#010101" d="M20.8 21.5h33.6v22.4H20.8V21.5zm7.3 6.1-5.5-3.7v17.7l5.5-3.7c-1.1-1-1.7-2.3-1.7-3.8v-2.7c0-1.5.6-2.9 1.7-3.8zm15.5-1.3c.5 0 1.1.1 1.6.3l4.7-3.1H25.2l4.7 3.1c.5-.2 1.1-.3 1.6-.3h12.1zM29.9 39l-4.7 3.1h24.7L45.3 39c-.5.2-1.1.3-1.6.3H31.5c-.5 0-1.1-.1-1.6-.3zm-1.7-4.9c0 1.1.5 2.1 1.5 2.8l6.2-4.1-6.1-4.1c-.9.6-1.5 1.6-1.5 2.8v2.6zm9.4-.2-5.3 3.6H43l-5.4-3.6zm0-2.3 5.3-3.5H32.3l5.3 3.5zm9.3-.2c0-1.1-.6-2.2-1.5-2.8l-6.2 4.1 6.2 4.1c.9-.6 1.5-1.6 1.5-2.8v-2.6zM47 38l5.5 3.6V23.9L47 27.6c1.1 1 1.7 2.4 1.7 3.8v2.7c.1 1.5-.5 2.9-1.7 3.9z"/><g fill="#010101"><path d="M30.2 51.1v10.2c0 2.2-1.2 4.4-4.9 4.4-3.3 0-4.9-1.7-4.9-4.4V51.1h3v10c0 1.8.8 2.5 1.9 2.5 1.3 0 1.9-.9 1.9-2.5v-10h3zM37.2 59.1v2h-4.9v-2h4.9zM39.1 53.7c1-.6 2-1.2 2.7-2.2h2.7v14h-3V54.8c-.7.6-1.5 1.1-2.4 1.6v-2.7zM47.2 65.5V63c4.4-5.9 5.3-6.5 5.3-8.3 0-.7-.3-1.4-1.1-1.4-1.2 0-1.2 1.1-1.2 2h-2.8c-.2-2.6 1.3-4 3.8-4 2.4 0 4.1 1 4.1 3.6 0 3.1-3.7 6.7-5.2 8.4h5.3v2.2h-8.2z"/></g><g fill="#010101"><path d="M34.9 9.3h1.9V18h-1.9V9.3zM38.2 9.3h1.9V18h-1.9V9.3z"/></g><g fill="#010101"><path d="M57.9 43.9c-.3-.6-.7-1.2-1.3-1.6v-1.6H65v1.8h-6.4c.4.4.7.9.9 1.4h-1.6zM60.8 34.1c2.6 0 4.3.2 4.3 2.4s-1.7 2.4-4.3 2.4c-3.2 0-4.3-.4-4.3-2.4s1.1-2.4 4.3-2.4zm0 3.1c2.5 0 3.1-.1 3.1-.7s-.5-.7-3.1-.7-3.1 0-3.1.7.5.7 3.1.7zM56.4 28.5H63c1.5 0 2.2 1.2 2.2 2.5 0 2.5-1.1 2.6-3 2.6v-1.8c.7 0 1.7.2 1.7-.8 0-.4-.4-.7-.7-.7h-6.8v-1.8zM59 22.5h6.3c.4 0 2.1 0 2.1 2.3 0 1.3-.3 2.3-1.8 2.4v-1.7c.3 0 .5 0 .6-.1.2-.1.2-.3.2-.6 0-.4-.4-.6-1-.6h-1.2c.5.3.7.7.7 1.3 0 1.9-1.7 1.8-3.1 1.8-1.3 0-3 0-3-1.8 0-.6.3-1.1.8-1.4h-.7v-1.6zm4.9 2.4c0-.6-.6-.7-1.9-.7-1.3 0-2.1.1-2.1.7s.4.7 2.3.7c.5 0 1.7.1 1.7-.7z"/></g></svg>