<svg version="1.2" baseProfile="tiny" xmlns="http://www.w3.org/2000/svg" viewBox="0 0 45 45" overflow="visible" xml:space="preserve"><path fill="#76A4B2" d="M-4.5-4.5h279v99h-279z"/><path fill="none" d="M0 0h45v45H0z"/><path d="M18.7 23.3s.1 0 0 0c.2-.1.3-.1.5-.2l.1-.1c0 .1.1.1.1.1l.4.4.1.1-.3-.3s-.1-.1 0-.1l.4-.4c.1-.1.1 0 .1 0l.2.2c-.1-.1-.2-.3-.3-.4v-.2l.1-.1c-.1 0-.1.1-.2.2 0 0 0 .1-.1.1v-.1c.2-.2.4-.4.7-.6.1-.1.2-.2.3-.4.2-.3.5-.5.8-.8l.2-.2c.1-.2.3-.4.5-.5.1.2.2.4.4.7v.1c-.1.1-.2.2-.2.3-.1.1-.1 0-.2 0h.1s.1 0 .1.1c0 0-.1 0-.1-.1V21c-.1 0-.1.1 0 .1 0 .1.1.1 0 .2.1 0 .1-.1.1 0 .1.1.2.1.3.2 0-.2-.1-.2-.2-.3.1.1.1.2.2.3-.1 0-.2-.1-.3-.2v-.1c.1-.2.2-.4.3-.5h.1c.2.3.3.5.5.8.1.1.1.2.2.2 0 0 0-.1-.1-.1 0 0 0-.1-.1-.2s-.2-.2-.2-.3c-.2.1-.1 0-.2-.1-.2-.2-.3-.5-.5-.8.6.6 1.1 1.1 1.6 1.7 0-.1 0-.1-.1-.1-.5-.5-1-1-1.4-1.5-.1-.1-.1-.1 0-.2l.4-.4c-.1-.1-.1.1-.2 0 0 0 .1.1 0 .1h-.1c0 .1.1.1 0 .1s-.1-.1-.1-.1v.1h-.1s.1 0 0 .1c-.1 0-.1 0-.2.2 0-.2-.1-.3-.2-.5-.1-.1-.1-.3-.3-.4h.1c0-.1 0-.1-.1-.1s-.1-.1-.1-.2h.1c-.1-.1-.2-.1-.3-.2h.1c0-.1-.1-.2-.2-.2 0-.1.1 0 .1 0 0-.1-.1 0-.2-.1-.1 0-.1 0-.1-.1l-.1-.1h.1s0-.1-.1-.1 0-.2-.1-.2-.1-.1-.1-.1h-.1c-.1-.1-.1-.3-.2-.4.2 0 .2 0 .2.2 0 0 0 .1.1.1s.2.1.2.2c.1 0 .1 0 .2.1.1.2.3.3.4.5.1.1.1.1.2.1l-.3-.3-.6-.6c-.1-.1-.2-.1-.2-.2 0 0-.1-.1-.1 0-.1.1-.1.1-.2.1-.2-.1-.2.1-.2.2s-.1.1-.2.2-.2.2-.3.4h-.1c-.1-.1-.2-.1-.2-.2l-.3.3v.1c.1.1.1.2.2.2v.1l-.2.2h-.1s.1 0 0 .1c-.1-.1-.1-.2-.3-.3 0 .1-.1.2-.2.2.1.1.1.2.2.2-.1 0-.2-.1-.3-.1.1.1.2.1.3.2.1 0 .1.1 0 .1l-.1.1c-.1.1-.1.2-.2.2s-.1-.1-.2-.2c-.1 0 0-.1 0-.1l.2-.2-.3.3v.1l.2.2c-.1 0-.2-.1-.2-.2l-.1-.1.2.2s.1.1 0 .1c0 .1-.1 0-.1 0l-.2-.2v.1c.3.3.3.2 0 .5l-.2.2c-.1.1-.1.1-.2.1s0 .1-.1.1c.1 0 .1-.1.2-.1-.1.2-.1.2-.3.2.1 0 0-.1 0-.1 0-.1 0 0 0 0-.1 0-.1-.1-.1.1 0 .1 0 .2-.1.3-.1.1-.1.1 0 .2l.6.6s0 .1.1 0c-.1-.1-.1-.2-.2-.2 0 0-.1 0 0-.1-.2-.1-.3-.3-.5-.5h.1v-.1c.1 0 .1.1.1.1.1.1 0-.1.1 0 0 .1.1.1.1.1h.1c0 .2.2.3.3.4.1.1.2 0 .2.2.1-.1.1 0 .1 0s0 .1.1.1.2.2.2.2.1.1.2.1h.1s0 .1.1.1.2.2.3.2c.2.1.3.2.3.3 0 0 0-.1-.1-.1 0 0 .1.1 0 .1h-.1c0 .1-.1 0-.1 0v.2c-.1 0-.1.1-.2 0s-.2-.1-.3-.3c0-.1-.1-.2-.2-.2s-.1-.2-.2-.2l-.3-.3c0-.1-.1 0-.2-.1l.6.6.4.4c.1.1.1.1 0 .2-.1 0-.1.1-.2.1v-.1c.1-.1 0 0 0 .1 0 0 .1-.1.1-.2.1.2 0 .2-.1.2zm.8-.2c0 .1 0 .1.1.1-.1 0-.1 0-.1-.1 0 0-.1 0 0 0-.2-.1-.1-.1 0 0 0-.1 0-.2 0 0 .1 0 .1 0 .1-.1 0 0-.1 0-.1-.1l.1-.1c0-.1.1 0 .1 0h.1l-.1.1c0 .1-.1 0-.1 0s.1.1 0 .1h-.1s.1.1 0 .1c.1.1.1.1 0 0zm.6-4.8.5-.5c.1-.1.2-.1.3 0 .2.2.3.4.5.6.4.5.7 1 1.1 1.5.1.1 0 .1 0 .2-.6.6-1.2 1.2-1.7 1.8l-.7.7s0 .1-.1 0-.3-.2-.4-.3c-.3-.2-.6-.5-.9-.7-.2-.2-.5-.4-.7-.6 0 0-.1-.1-.1-.2s.1-.2.2-.3c.5-.7 1.2-1.4 2-2.2zm-.4.1c.1.1.2.1.1.2s-.1 0-.1 0c-.1 0-.1-.1-.1-.2v-.1c0-.1 0-.1.1.1-.1-.1 0-.1 0 0zm-.8.6c.1 0 .1-.1 0 0 .2.1.1.1 0 0v.1c-.1 0 0 0 0-.1zm.7-.4s-.1 0 0 0c0-.1 0-.1 0 0 0 0 .1 0 0 0 0 .1 0 0 0 0z"/><path fill="#010101" d="m20.3 24.1-.4-.4h-.1s-.1 0-.1-.1c-.1-.1-.3-.2-.4-.4h-.1c-.1.1-.3.1-.4.2h-.4l.2-.1s.1 0 .1-.1c.1 0 .1-.1.2-.1v.1s.1 0 .1-.1l-.3-.3-.1-.1-.5-.5V22c-.1 0-.1 0-.1-.1l-.2-.2-.4-.4c-.1-.1-.1-.1-.1-.2l-.1-.1h.1s0-.1.1-.1H17l.4-.2-.2-.1H17.5s0-.1.1-.1c0 0 .1 0 .1-.1l.1-.1.1-.1.1-.1.1-.1-.1-.1s-.1 0-.1-.1l-.1-.1v-.1h.1v-.1h.1v-.1l.1-.1.2-.2V19l-.2-.1h.2c.1 0 .1 0 .1-.1v-.1l.1.1.2.2h.1l.1-.1c-.1 0-.1-.1-.1-.1s0-.1-.1-.1v-.2l.3-.3.1-.1v.1c0 .1.1.1.1.2l.1.1.1-.1.2-.2.1-.1.1-.1v-.1c0-.1 0-.1.1-.2h.2v-.1h.2c.1 0 .1 0 .1.1l.1.1.1.1.4.4.2.2c.1.1.1.2.2.2l.1.1.1.1h-.1c-.1.1-.2 0-.3-.1 0-.1-.1-.2-.2-.3l-.2-.2h-.1v.1l.1.1h.1c.1 0 .1 0 .2.1 0 0 .1.1.1.2v.1c.1 0 .1 0 .2.1h.1v.1c0 .1.1.1.1.2 0 0 0 .1.1.1 0 0 0 .1.1.1 0 .1.1.1.1.2l.1-.1V19.3l.1.2.1-.1s.1 0 .1.1l-.1.1-.3.3v.1l1.2 1.2.2.3.1.1v.2l-.1-.1-1-1-.4-.4c.1.1.2.3.2.4v.1s.1 0 .1.1.1.2.1.2v.1s0 .1.1.1.1.1.1.1l.4.1h-.5c-.1-.1-.2-.2-.2-.3-.1-.2-.2-.4-.3-.5 0-.1-.1-.1-.1-.2-.1.1-.1.2-.2.3 0 0 0 .1-.1.1.1.1.2.2.2.4v.1h-.1c-.1 0-.2-.1-.3-.2l.7.7.3-.4v-.2h-.1.1l-.1-.2.1.1.2-.2.1-.1c-.1-.1-.2-.3-.2-.4v-.1l-.1-.1c-.2.2-.3.3-.4.5-.1.1-.1.2-.2.2-.3.2-.5.5-.8.8l-.1.1-.3.3c-.1.1-.3.2-.4.3l-.1.1s0 .1-.1.1v.1c.1.1.2.1.2.2l.1.1-.1.1c-.1-.1-.2-.2-.3-.2l-.4.4h.1l.2.2.6.5zm-.6-1.2zm.1 0zm-1.4-.9c.1 0 .1.1 0 0l.2.2c.1 0 .1.1.1.1s0 .1.1.1c.1.1.2.1.3.3l.1.1.1.1.1-.1v-.1l.1-.1s-.1 0-.1-.1l-.1-.1c-.1-.1-.1-.1-.2-.1 0 0-.1 0-.1-.1h-.1l-.2-.1s-.1-.1-.1-.2l-.1-.1-.1.1v-.1s0-.1-.1-.1h-.1l-.3-.3h-.1v-.1h-.1v.1l.3.3h.1c.1 0 .1.1.2.1v.1l.1.1h-.1c0-.1.1-.1.1 0zm1 .8zm.5 0s0-.1 0 0c-.1-.1-.1-.1 0 0-.1-.1-.1-.1 0 0-.1-.1-.1-.1 0 0-.1 0-.1 0 0 0-.1 0 0 0 0 0zm-.4-.2c.1 0 0 0 0 0s0 .1 0 0zm.3 0zm-1.2-2.7-.7.7c-.1.1-.1.2-.1.3v.1c.1.1.2.1.2.2.2.1.3.2.5.4.2.1.3.3.5.4l.3.3c.1.1.2.1.3.2.1 0 .1.1.2.1l.3-.3.4-.4c.6-.6 1.2-1.2 1.7-1.8V20c-.2-.3-.4-.5-.5-.8-.2-.2-.3-.5-.5-.8-.1-.2-.3-.3-.4-.5l-.1-.1h-.1s-.1 0-.1.1l-.3.3-.2.2-.5.5-.4.4.4.1-.4-.1c-.1.2-.3.4-.5.6l.2.1-.2-.1zm.3 2.1zm0 0zm0 0zm3.6-.6zm.7-.2zm-.7-.1zm-4.8-.1zm-.1-.1s.1 0 0 0c.1 0 .1 0 0 0 .1 0 .1 0 0 0zm5.3-1.2zm-4.5-.2.1.1.1.1.1-.1s0-.1.1-.1l.1-.1.1-.1c-.1 0-.1-.1-.2-.1-.2.1-.3.2-.4.3zm0 0zm.6-.3h.1s0-.1-.1 0c.1-.1.1-.1 0 0 0-.1 0 0 0 0zm2.8-.1zm-.2-.3c.1 0 .1 0 0 0 .1 0 .1 0 0 0zm-2.3-.3.1.1.1.1.1-.1s-.1 0-.1-.1v-.2c-.1.2-.1.2-.2.2zm0 .1zm.4-.1zm-.2-.2c0 .1.1.1.1.2l-.1-.2c.1.1.1.1 0 0 .1.1.1.1 0 0 .1 0 .1 0 0 0zm.2.2zm1.5-.3zm0-.2.1.1c-.1-.1-.1-.2-.1-.1l-.1-.1.1.1c-.1 0-.1 0 0 0-.1 0-.1 0 0 0zm-.5-.3c.1 0 .1 0 .1.1 0-.1 0-.1-.1-.1.1 0 .1 0 0 0 .1 0 0 0 0 0zm-.1 0z"/><path d="M14 14.1c.1 0 .1-.1.2-.2s.2-.3.4-.4l.3-.3.6-.6c.2-.2.4-.5.7-.7 0 0 0-.1.1-.1v-.1s-.1-.1-.1-.2l1 1c-.1 0-.1-.1-.2-.2l1.1 1.1c-.2-.3-.4-.4-.6-.7l1.1 1.1c-.1 0-.2-.1-.3-.2l.6.6.8.8.2.2c.1.1.1.1 0 .2l-.6.6-.1.1c.2-.2.5-.4.7-.7.1-.1.1-.1.2 0l.7.7.3.3c-.1 0-.1-.2-.2-.1-.1 0-.2.1-.2.2v.1c.1.1.1.1 0 .2l-1.8 1.8-1.3 1.3c-.2.2-.4.4-.6.7 0 0-.1.1 0 .1 0-.1.1-.1.2-.2.5-.5 1.1-1.1 1.6-1.7l1.1-1.1.9-.9c.2-.1.3-.3.5-.5.1 0 0-.1 0-.1l-.9-.9-.9-.9 1.6 1.6c-.1-.1-.2-.1-.3-.2-.1-.2-.3-.3-.5-.5l-.8-.8s-.1-.1-.1-.2c-.1 0-.1-.1-.2-.1 0-.2-.2-.3-.3-.4l-.8-.8-.6-.6-.3-.3-.3-.3-.3-.3-.3-.3s0 .1-.1 0L16 11l.3.3.2.2s0 .1-.1.1c-.7.7-1.3 1.4-2 2-.3.5-.4.5-.4.5zm6.8 2.5c0 .1-.1.1 0 .1v-.1l.1.1-.2.2h-.1s-.1 0 0-.1c0-.1.1-.1.2-.2zM19 14.5c-.2-.1-.4-.3-.4-.4.1.2.2.3.4.4z"/><path fill="#010101" d="M17.1 21.1h-.3c0-.1 0-.1.1-.1l.5-.5.2-.2c.2-.2.4-.5.7-.7l.6-.6c.4-.5.9-.9 1.4-1.4l.5-.5.1-.1s-.1 0-.1-.1v-.1l.2-.2-.1-.1c-.2-.2-.5-.4-.7-.7H20l-.5.5-.2.2-.3.3.2-.4c0-.1.1-.1.1-.2l.5-.5v-.1c-.1 0-.1-.1-.2-.2-.3-.3-.5-.6-.8-.8-.1-.1-.3-.2-.4-.4l-.2-.2-.2-.2.2.1-.2-.2-1.1-1.1-.6-.6h-.1c-.1.1-.3.2-.4.4l-.3.3-.5.5v.1s0 .1-.1.1c-.1.1-.2.2-.3.2-.1 0-.1.1-.2.2l-.2.2-.1.1-.1.1v.2l-.1-.3s0-.1.1-.1l.7-.7 1.4-1.4-.1-.2-.1-.1-.2-.2-.1-.2.2.1c.1 0 .1.1.2.2v-.1l.2.2.2.2.1.1.2.2.1.1.2.2c.1 0 .1.1.1.2s.1.1.2.2c.2.1.3.3.4.4l.1.1.2.2.6.6.1.1c.1.1.2.1.2.3 0 0 .1 0 .1.1h.1v.1h.1c.2.2.4.3.5.5l.4.4c.1.1.3.2.4.4.2.2.3.4.5.5l.1.1s0 .1-.1.1l-.3.3-.2.2-.4.4-.5.5c-.3.2-.5.5-.7.7l-.3.3c-.2.2-.4.4-.6.7-.3.3-.6.7-1 1l-.1.1.2.2zm3.6-4.3zm.3-.2z"/><path d="M23.9 22.6c.1.3.3.5.5.7.1.1.2.3.4.4.1 0 0 .1 0 .1 0 .1.1-.1.1.1 0 0 0 .1.1.1v.1h-.1l-.1-.1c0 .1.1.1.1.1v.1c-.3.3-.6.6-.9 1-.1.1-.1 0-.1 0-.1 0 0-.1 0-.1l.9-.9.1-.1-.6.6-.5.5c-.1.1-.1.1-.2 0l-.3-.3c0 .1 0 .1.1.2h.1c.1.1.1.1 0 .2l-.4.4H23c-.1-.1 0-.1 0-.1.1 0 0-.1.1-.2 0 0 .1-.1.2-.1s.1-.1.1-.1 0-.1-.1-.1-.1-.1-.2-.1l.1.1c.1 0 .2.1 0 .2-.1 0-.1.1-.2.2h-.1c-.1-.1-.1-.2-.1-.3 0 .1 0 .2.1.3 0 .1.1.1 0 .2-.1 0-.1-.1-.2-.1l.2.2s.1 0 0 .1l-.3.3s-.1 0-.1.1c.1 0 .2 0 .5-.3-.1 0-.1.1-.2.1l-.1.1.8-.8-.5.5c.2-.1.3-.3.5-.5 0 .2 0 .3-.1.4l-.5.5c-.1.1-.1.1 0 .1.2.2.2.2.4 0l2.7-2.7c.1-.1.1-.1 0-.2-.2-.2-.2-.2-.4 0-.1.1-.3.2-.4.4-.1.1-.2.2-.5.2l.5-.5c.1-.1.2-.2.3-.4.1-.1.1-.2 0-.4l-.1-.1c0 .1 0 .1.1.1.1.1.1.2 0 .4l-.1.1s0 .1-.1 0c0 0-.1 0-.1.1s-.1.1-.1 0c-.1-.1-.2-.2-.3-.2l.2.2c.1.1.1.1 0 .1l-.3.3.4-.4.1-.1v.1l-.6.6c0-.1.1-.1.1-.2 0 0-.1 0-.1.1-.1.1-.1.1-.2 0 0-.1-.1-.2-.2-.2-.2-.2-.3-.4-.5-.6.3-.4.3-.5.2-.5.1 0 0 0 0 0zm-.3 2.6c0-.1.1-.2 0-.2.1 0 .1.1.1.1-.1.1 0 .1 0 .1.1.1.1.2-.1.2h.1c.1-.1.1-.1 0-.2s-.1-.1 0-.2c.4-.3.7-.7 1-1 .1-.1.1-.1.2 0s.2.1.2 0c.1-.1 0-.2-.1-.3l.5-.5c.2-.2.1-.1.3 0 .1.1.1.1 0 .2l-2.7 2.7c-.2.2-.2.2-.4 0-.1-.1-.1-.1 0-.1l.5-.5s.1-.1.1 0 .1.1.1 0c.2-.2.2-.2.2-.3zm1.4-1.4c.1.1.2.1.3.2 0 0 0 .1-.1 0-.1 0-.1-.1-.2-.1-.1-.1-.1-.1 0-.1 0-.1.1-.1.2-.1v.1H25zm-2.1 1.5c.1-.1.1-.3.3-.3l-.3.3z"/><path fill="#010101" d="M23.1 26.3c-.1 0-.1-.1-.3-.2l-.1-.1c0-.1 0-.1.1-.1l.2-.2.3-.3c.1-.1.1-.1.1-.2l-.1.1-.2.2-.1.2c-.3.3-.4.3-.5.3h-.2l.2-.1c0-.1.1-.2.2-.2 0 0 .1 0 .1-.1l-.2-.2-.1-.1-.2-.2.3.1c.1 0 .1.1.1.1v-.1c-.1-.1-.1-.2-.1-.3v-.2l.1.2v.1c0 .1 0 .1.1.2l.1-.1h-.2l-.2-.1H22.8v-.2h.1c.1 0 .2.1.3.2h.1l.1.1.3-.3.1-.1.4-.4.2-.2v-.2c-.1-.1-.2-.2-.2-.3l-.1-.1c-.2-.2-.4-.4-.5-.7v-.1h.2c.1 0 .1.1.1.1.1.2.2.3.4.5l.1.1c.1 0 .1 0 .2.1v-.1l.1.3s0-.1.1-.1l.3-.3-.2-.2-.1-.1-.4-.4.5.3c.1.1.2.1.3.2 0 0 0-.1.1-.1h.1l.1-.1.1-.1.1-.1s0-.1-.1-.1c0 0-.1-.1-.1-.2v-.1l.1.1.1.1c.1.1.1.3 0 .5-.1.1-.2.3-.4.4l-.4.4.1-.2c.1 0 .2-.1.3-.2.1-.1.2-.2.2-.3l.1-.1c.2-.2.3-.2.5 0 0 0 .1.1.1.2s0 .1-.1.2L24 25.5l-.6.6c-.2.2-.2.2-.3.2zm-.2-.3c.1.1.1.1.2.1l.1-.1.6-.6h-.1l-.1.1s-.1 0-.1-.1l-.2.2c-.1.2-.2.3-.4.4zm0-.6s-.1 0 0 0zm0 0zm.8-.2v.1c.1 0 .1 0 0-.1zm.1-.1c.1 0 .1 0 0 0 .1.1.1.2.1.2l1.2-1.2c-.1 0-.1 0-.2-.1-.3.4-.7.8-1.1 1.1.1 0 .1 0 0 0zm-.7.1zm.5-.1zm-.3-.1v.1-.1zm.5-.1c.3-.2.5-.4.7-.6l.3-.3s0 .1-.1.1l-.1.1c-.3.2-.6.4-.8.7zm1-.9zm.5-.3c.1.1.1.2.1.3l.6-.6.1-.1v-.1l-.1-.1s-.1 0-.1.1l-.6.5zm-.1.1zm.4-1z"/><path d="M9 13.5c.1-.1.1-.1.2 0 0 .1.1.1.1.2v-.1c-.1-.2-.1-.2 0-.4l1.3-1.3 1.5-1.5 1.3-1.3c.1-.1.1-.1.3 0l.3.3s.1.1.1.2l-.3-.3.4.4.2.2c.1.1.1.1 0 .1l-.9.9-.1.1c.1 0 .1 0 .1-.1l.9-.9c.1-.1.1-.1.2 0l-.3-.3.2.2c0-.1-.1-.1-.1-.1l-.8-.8c-.1-.1-.1-.1-.2 0 0 0-.1.1-.2.1s-.2.1-.2.2l-.1.1-.8.8c-.1.1-.2.1-.2.2-.4.5-.8.8-1.2 1.3 0 0-.1.1-.2.1-.1.1-.2.1-.2.3 0 .1-.1.2-.2.2 0 0-.1 0-.1.1l-.6.6s-.1.1-.2.1c-.1.1-.2.1-.2.3l-.1.1c.1-.1.1 0 .1 0zm4-4-.9.9.9-.9zm-2.9 2.9-.4.4c0-.1.2-.3.4-.4zm1.7-1.8-.4.4c.1-.1.3-.2.4-.4z"/><path fill="#010101" d="m9.3 13.8-.2-.2H9c0-.1.1-.1.1-.1l.1-.1c0-.1.1-.2.1-.3l.1-.1s.1 0 .1-.1l.1-.1.4-.4.1-.1c.1 0 .2-.1.2-.1 0-.2.1-.3.2-.3 0 0 .1 0 .1-.1l.4-.4c.3-.3.6-.5.8-.8l.1-.1s.1 0 .1-.1l.6-.6.2-.2.1-.1c.1-.1.2-.2.3-.2h.1l.1-.1c.1 0 .1 0 .2.1l.5.5.3.3s.1.1.1.2l-.1.1h-.1l-.6.6-.3.3s-.1.1-.2.1h-.1l.1-.1.1-.1.2-.2c.2-.2.4-.5.7-.7-.1 0-.1-.1-.1-.1l-.1-.1-.3-.3-.2-.2-.1-.1-.1-.1-.1.1-.6.6-.7.7-.8.8-.6.6-1.3 1.3c-.1.1-.1.1 0 .3.1-.2.2-.2.1 0zm-.2-.5z"/><path d="M16.9 21c-.1 0-.1 0 0 0-.1.1-.2.1-.3 0h-.1v.1s-.1 0-.1-.1v-.1c-.2-.2-.4-.5-.6-.7l.3.3.3.3s.1.1 0 .1h-.1c-.1-.1-.2-.2-.3-.2l.5.5c.1.1.1.1.2 0s.2-.1.2-.2c.3-.1.4-.1.6-.4 0-.1.1-.1.1-.2 0 0 .1-.1 0-.1v-.1l.1-.1c-.2.3-.5.5-.8.9-.1 0 0 0 0 0zm.4-.3c-.1.1-.2.2-.2.3 0 0 0 .1-.1 0v-.1l.5-.5s0-.1.1 0v.1c-.1 0-.2.1-.3.2z"/><path fill="#010101" d="M16.7 21.3s-.1 0-.1-.1c-.1-.1-.3-.2-.4-.4l-.1-.1-.4-.4.3.2c-.1-.1-.2-.2-.2-.3l-.1-.2.2.2c.2.1.3.3.4.4.1.1.2.2.2.3h.1l-.1-.1H16.8l.6-.6.2-.2.4-.4-.3.5c0 .1-.1.1-.1.1v.1s0 .1-.1.1l-.1.1c-.2.2-.2.3-.4.3l.4.1h-.5c0 .1-.1.1-.1.1 0 .3-.1.3-.1.3zm-.1-.2c.1.1.1.1 0 0 .1.1.1 0 .1 0l.1-.1c0 .1-.1.1-.2.1.1 0 .1 0 0 0 .1 0 0 0 0 0z"/><path d="m24.1 20.7 1.5 1.5-.3-.3c-.2-.1-.3-.3-.4-.5v-.1c.1-.1 0-.2-.1-.3-.1-.1-.2-.1-.3 0-.1-.1-.3-.1-.4-.2.2.1.1 0 0-.1zm.6.5s0-.1 0 0c.2 0 .2.1.3.1v.1c0 .1.1.1.1.1l-.5-.5c0 .1 0 .2.1.2z"/><path fill="#010101" d="M25.6 22.4 24 20.7l.1-.1.1.1.1.1c0 .1.1.1.2.1 0 0 .1 0 .1.1.1-.1.3 0 .3 0 .1.1.2.2.1.4.1.2.2.3.3.5l.2.2.1.1.1.1-.1.1zm-.7-1zm0 0zm0-.2.1.1-.1-.1z"/><path d="m13.6 18 .3.3c-.1-.1 0-.2.1-.3.9-1 1.9-1.9 2.8-2.9V15l-.5.5-2.5 2.5c0 .1 0 .1-.2 0 .1 0 .1 0 0 0z"/><path fill="#010101" d="m13.8 18.3-.3-.3.1-.1.1.1v.1l2-2 .4-.4.4-.4.3-.3v.2c0 .1 0 .1-.1.1L14 18l-.1.1-.1.2z"/><path d="M9.6 14c0 .1-.1.1 0 .2h-.1l1.2 1.2c-.4-.3-.7-.7-1.1-1.1h.2c0-.1-.1-.2-.2-.3z"/><path fill="#010101" d="m10.8 15.5-1.4-1.4h.2v-.2l.6.6H10l.4.4.5.5h.1l-.2.1zm-1.1-1.3z"/><path d="M21.5 22.9c0-.1-.1-.2-.1-.2v-.1c.1-.1.2-.1.2-.2 0 0-.1 0-.1.1-.1.1-.2.2-.4.1.1.2 0 .2-.1.3-.1 0-.1.1-.2.2s-.1.2-.3.1h-.1c.2.1.3.2.5.3 0-.1-.1-.1-.2-.1s-.1-.1 0-.2l.3-.3h.1c.1-.1.2 0 .4 0-.1 0-.2 0-.2-.1 0 0-.1 0 0-.1h.1s0 .1.1.2z"/><path fill="#010101" d="m21.1 23.5-.8-.5v-.1s0-.1.1-.1h.1s.1.1.1 0l.1-.1c0-.1.1-.1.2-.2.1 0 .1-.1.1-.1v-.1l-.3-.4.4.3c.1.1.2.1.3 0h.1l.2-.1-.1.2c0 .1-.1.1-.2.2 0 0-.1 0-.1.1.1.1.1.2.2.2l.1.1H21.3c-.1 0-.2-.1-.3-.2l-.3.3s.1.1.2.1l.2.4zm-.6-.4zm.6-.5z"/><path d="M12 16.3c0-.1 0-.1.1-.1.2-.1.3-.3.4-.5-.2.1-.3.3-.4.4-.1.1-.1.1-.2 0s0 0-.1 0v-.2c-.1 0 0 0 0 .1h-.2l-.4-.4.8.8c0-.1-.1-.1-.1-.1s-.1 0 0-.1c-.1 0 0 0 .1.1-.1 0 0 0 0 0z"/><path fill="#010101" d="m12 16.7-1-1 .1-.1c.1.1.3.3.5.4 0-.1.1-.1.1-.1s.1 0 .1.1c.1 0 .1 0 .1.1l.1-.1c.1-.1.2-.2.3-.4l.3-.2-.2.3c-.1.2-.3.4-.4.5v.1l.1.2-.1-.1s-.1 0-.1-.1l.1.1v.3zm-.3-.5z"/><path d="M13 11.6c-.6.5-1.1 1.1-1.6 1.7.5-.6 1-1.2 1.6-1.7z"/><path fill="#010101" d="M11.4 13.3c0-.2.1-.3.2-.5l1.3-1.3.1.1c-.5.6-1.1 1.1-1.6 1.7z"/><path d="M10.8 15.2c0-.1 0-.1-.1-.1l-.5-.5c-.1-.1-.1-.1 0-.2l.7-.7.3-.3-.4.4-.7.7c-.1.1-.1.1 0 .1.2.1.3.3.4.4 0 .1.1.1.1.2.1 0 .2-.1.2 0z"/><path fill="#010101" d="m11 15.3-.2-.1h-.1v-.1s0-.1-.1-.1l-.4-.4-.1-.1c0-.1 0-.1.1-.1.2-.2.4-.3.5-.5l.2-.2.3-.3.1-.1.1.1-.1.1-.2.2-.4.4-.3.3v.1l.5.5.1.1v.2z"/><path d="M16.5 19c-.3.3-.5.6-.8.8-.1.1-.1.1-.2 0l-.5-.5.8.8c-.1-.1-.1-.1 0-.3l.6-.6s0-.1.1-.2z"/><path fill="#010101" d="m15.8 20.3-.9-.9.1-.1c.2.1.4.3.5.5l.3-.3.5-.5.1.1-.1.1s0 .1-.1.1l-.3.3-.3.3-.1.1s0 .1.1.1v.1l.2.1z"/><path d="M21.2 24.9c0 .1.2.1.2.2-.2 0-.2-.1-.2-.2-.1 0-.1-.1-.1 0v.1c0 .1.2.3.2.2h.3c-.2-.1-.3-.1-.4-.3z"/><path fill="#010101" d="M21.5 25.3H21.2c-.1-.1-.2-.2-.2-.3 0-.1 0-.1.1-.1h.1v-.1l.2.1.3.3.1.1h-.3z"/><path d="M21.5 22c-.1 0-.1.1-.2.1v.1s.1.1.1 0c.2-.2.5-.4.6-.6v-.2h-.1c-.1.3-.2.5-.4.6.1 0 .1 0 .1-.1.1-.1.2-.2.3-.4 0 0 0-.1.1 0v.1l-.6.6h-.1v-.1c.2 0 .2 0 .2-.1z"/><path fill="#010101" d="M21.4 22.4c-.1 0-.1 0-.1-.1-.1-.1 0-.2 0-.2l.1-.1c.2-.1.3-.3.4-.4v-.1l.1-.1h.1c.1.1.1.2.1.2-.1.3-.3.5-.7.8.1 0 .1 0 0 0z"/><path d="M21.2 23.5c.4.3.8.5 1.3.7-.5-.2-.9-.5-1.3-.7z"/><path fill="#010101" d="M22.4 24.3c-.4-.2-.7-.4-1.1-.6-.1 0-.1-.1-.2-.1l.1-.1c.3.2.6.4 1 .5.1.1.2.1.3.2l-.1.1z"/><path d="M14.6 10.2c.2.3.5.5.8.8 0 0 0 .1.1 0 0 0 0-.1-.1-.1 0 0-.1 0 0 0 0-.1-.1-.1-.1-.2v.1c-.2-.2-.5-.4-.7-.6.1.1.3.3.5.4-.2-.1-.3-.2-.5-.4z"/><path fill="#010101" d="M15.4 11.1c-.1 0-.1 0 0 0-.1-.1-.1-.1-.2-.1-.2-.2-.5-.4-.7-.7l-.1-.1.1-.1c.1 0 .1.1.2.1.2.1.3.3.4.5v-.1.1s.1 0 .1.1c.1 0 .1.1.1.1v.1c.2.1.2.1.1.1.1 0 0 0 0 0zm0-.1z"/><path d="M22.5 25.4c-.1 0-.1 0-.1.1s.1.2.2.2.1-.1.2-.1c0 0-.1-.2-.3-.2.1.1 0 .1 0 .2-.1-.1 0-.1 0-.2z"/><path fill="#010101" d="m22.6 25.8-.1-.1c-.1 0-.2-.1-.1-.3 0 0 0-.1.1-.1h.1c.1 0 .2.1.2.2v.1c-.1.1-.1.2-.2.2zm0-.2s.1 0 0 0c.1 0 .1 0 .1-.1 0 .1 0 .1-.1.1z"/><path d="M13.2 16.9c-.1 0-.1 0 0 0-.1-.1-.3.1-.3.2s0 .1.1.2h.1l.2-.2c-.1-.1-.1-.1-.1-.2 0 .1-.1.2-.2.3-.1 0-.1 0-.1-.1h.1c.1 0 0 0 0-.1s-.1 0-.1 0c.1 0 .1 0 .3-.1h-.1.1z"/><path fill="#010101" d="M13 17.3c-.1 0-.1 0 0 0-.1-.1-.2-.2-.2-.3v-.1l.1.1.2-.2h.1l.1.1c.1.1 0 .1 0 .2-.1.1-.2.1-.3.2z"/><path d="M17.1 13.1c.1-.1.1-.1 0-.2H17c0 .1-.1.1-.1.2s0 .1.1.1h.1c-.1 0 0 0 0-.1zm.1-.1c0 .1-.1.1-.1.2 0 0 0 .1-.1 0 0 0-.1 0-.1-.1.1 0 0-.1.1-.1.1.1.1 0 .2 0z"/><path fill="#010101" d="M17 13.3s-.1 0-.1-.1c-.1-.1-.1-.1 0-.2 0-.1.1-.1.1-.1s.1-.1.2 0l.3-.2-.2.3c0 .1 0 .1-.1.2-.1 0-.1.1-.2.1zm.1-.4c0 .1 0 .1 0 0 0 .1 0 .1 0 0 0 .1 0 .1 0 0 0 .1 0 .1 0 0 0 .1 0 .1 0 0z"/><path d="M11.1 15.1s0 .1 0 0c-.1.1-.1.2-.1.3.1.1.1.1.2 0l.1-.1c.1-.1.1-.2 0-.3-.1 0-.1 0-.2.1.1 0 0 0 0 0zm.1.1c-.1 0-.1 0-.1.1l.2-.2c.1-.1.1 0 .1 0 0 .1-.1.3-.2.3-.1-.1 0-.1 0-.2z"/><path fill="#010101" d="M11.1 15.5s-.1 0-.1-.1l-.1-.1c0-.1.1-.1.1-.1l.1-.1s.1-.1.2 0c.1 0 .1.1.1.2s0 .1-.1.2h-.2c.1 0 .1 0 0 0zm.1-.3c.1 0 .1-.1 0 0 .1-.1.1-.1 0 0 0-.1 0-.1 0 0z"/><path d="M18.8 14.8c-.1.1-.1.2 0 .3h.1l.1-.1c.1-.1.1-.1 0-.2-.1-.2-.1-.1-.2 0zm.2 0c0 .1-.1.1-.1.2 0 0-.1.1-.1 0-.1 0 0-.1 0-.1 0-.1.1-.1.1-.1s-.1 0 0 .1c0 0 0-.1.1-.1z"/><path fill="#010101" d="M18.8 15.1c-.1-.1-.2-.1-.2-.2s0-.1.1-.2l.1-.1c.1 0 .1 0 .2.1l.1.1c0 .1 0 .1-.1.2l-.1.1h-.1c.1 0 .1 0 0 0zm0-.2c.1 0 .1 0 0 0 .1 0 0 0 0 0z"/><path d="M13.3 9.3s0 .1 0 0c-.1.1-.1.2-.1.2.1.1.1.1.2 0l.1-.1c.1-.1.1-.1 0-.2-.1 0-.1.1-.2.1zm.2 0c0 .1-.2.1-.1.1.1.1.1-.1.1 0 0 0-.1.1-.2.1 0 0 0 .1 0 0 0 0-.1-.1 0-.1 0 0 .1-.1.2-.1z"/><path fill="#010101" d="M13.3 9.6s-.1 0-.1-.1l-.1-.1c0-.1 0-.1.1-.1l.1-.1h.2l-.1.1v.1s0 .1-.1.1c.1.1.1.1 0 .1z"/><path d="M14.8 19.4c0-.1-.1-.1 0-.1.1-.1.1.1.2.1l-.3-.3c-.1 0-.1 0-.3-.1l.3.3s0-.1-.1-.2c.1 0 0 .2.2.3z"/><path fill="#010101" d="m14.8 19.5-.2-.2-.3-.3.1-.1c.1.1.1.1.2.1h.1l.2.2.2.2h-.2s-.1 0-.1.1z"/><path d="M14 14.1c-.2.1-.3.3-.4.4l-.3.3c.2-.1.3-.2.4-.4.1 0 .3-.1.3-.3z"/><path fill="#010101" d="m13 15.1.2-.3.3-.3.1-.1.3-.3.1-.2.1.2v.1c0 .1-.1.2-.2.3l-.1.1c-.1.2-.3.3-.4.4l-.4.1z"/><path d="M13 17.3c-.1.1-.1 0 0 0-.2-.3-.4-.5-.6-.6 0 0-.1-.1-.2-.1.1.1.2.3.3.4.1.1.1.1.1.2.2.1.3.1.4.1-.1.1 0 .1 0 0z"/><path fill="#010101" d="m12.9 17.5-.1-.1c-.1-.1-.1-.1-.1-.2s0-.1-.1-.1V17c-.1-.1-.2-.2-.3-.4l.1-.1.1.1.3.3c.1.1.1.2.2.2h.2l-.2.3-.1.1c.1-.1.1 0 0 0z"/><path d="M10.8 15.2c0 .1.2.1 0 .2h.1s-.1.1 0 .1v-.1s.1.1 0 .1c0 0 0 .1.1.1.1-.1.1 0 .2 0-.1-.1-.2-.3-.4-.4z"/><path fill="#010101" d="m11.7 16-.5-.3H11v-.1s-.1 0-.1-.1l-.1-.1.1-.1v-.2h.1c.1 0 .1.1.2.1v.1l.2.2.3.5zm-.7-.5zm-.2-.2z"/><path d="M22.1 18.7c.1.3.5.4.6.7 0-.1-.2-.3-.3-.4l-.3-.3z"/><path fill="#010101" d="m22.9 19.8-.2-.4-.3-.3c-.1-.1-.3-.2-.3-.4l-.1-.3.2.2.3.3c.1.1.3.3.3.4l.1.5z"/><path d="M15 11.3c.1 0 .1.1.2.1.1-.1.2-.1.2-.2 0 0 0-.1-.1-.1h-.1c-.1 0-.1.1-.2.2zm.3-.2-.2.2H15v-.1c.2 0 .2 0 .3-.1z"/><path fill="#010101" d="M15.1 11.4c-.1 0-.1 0-.1-.1h-.1l.2-.2.2-.2.1-.1h.2l-.1.1v.1c-.1.3-.2.4-.4.4.1 0 0 0 0 0z"/><path d="M14.2 18.6c-.3 0-.4-.2-.6-.4l.6.6c0-.1-.1-.1 0-.2z"/><path fill="#010101" d="m14.5 19.2-.9-.9.1-.1.1.1c.1.1.2.2.4.3h.4l-.4.1.1.1.2.4z"/><path d="m14.9 18.8-.1.1c-.1.1-.1.1 0 .2 0 0 .1.1.1 0l.1-.1s.1-.1-.1-.2zm-.1.1.1-.1.1.1c0 .1-.1.1-.2.1 0 .1-.1 0 0-.1 0 .2 0 .1 0 0h.1c-.1 0-.1.1-.1 0z"/><path fill="#010101" d="M14.8 19.2s-.1 0-.1-.1c0 0-.1-.1-.1-.2v-.1l-.1-.6.2.5.1-.1.1-.1v.2c.1 0 .1.1.1.1 0 .1-.1.1-.1.2s0 .2-.1.2z"/><path d="M20.9 24.6s0 .1 0 0c0 .1 0 .1 0 0 .1.1.1.1 0 0l.7.7-.7-.7z"/><path fill="#010101" d="M21.7 25.4c-.1 0-.1 0 0 0-.3-.2-.5-.4-.7-.6h-.1v-.1l.7-.2-.5.2.7.7h-.1z"/><path d="m17.4 14.5.3-.3.4-.4s.1-.1.1 0c0-.1 0-.1-.1 0l-.6.6c-.1 0-.1.1-.1.1z"/><path fill="#010101" d="m17.4 14.6-.1-.1.1-.1.3-.3.3-.3.1-.1c.1 0 .1.1.1.1l-.1.1-.3.3-.4.4z"/><path d="m25 23-.2.2s-.1.1-.1 0c-.1-.1-.1-.2-.1-.2 0 .2.1.2.2.4h.1c0-.1.1-.1.1-.2l-.2.2c0-.2.2-.2.2-.4z"/><path fill="#010101" d="m24.6 23.6.1-.2s0-.1-.1-.1c-.1-.1-.1-.2-.1-.3v-.2l.1.1s0 .1.1.1c0 0 0 .1.1.1l.1-.1c0-.1.1-.1.2-.1l.1-.1.1-.1-.3.5c0 .1-.1.1-.1.2l-.1.1-.2.1z"/><path d="m12.7 15.6.6-.6c-.2.1-.4.3-.6.6 0-.1 0-.1 0 0z"/><path fill="#010101" d="m12.7 15.6-.1-.1.6-.7.2.2z"/><path d="m15.7 11.3-.2-.2c.1.1.3.2.4.3l-.4-.4h-.1v.1c.1.1.2.2.3.2z"/><path fill="#010101" d="m16.4 11.8-.5-.3c-.1 0-.1-.1-.2-.1l-.1-.1-.2-.2V11l-.3-.3.3.2h.1l.3.3.6.6z"/><path d="M21.6 22.3c.2-.1.5-.2.6-.4-.2.1-.4.3-.6.4z"/><path fill="#010101" d="m21.6 22.4-.1-.1c.2-.1.4-.3.6-.4l.4-.4-.3.5c-.1.1-.3.2-.6.4z"/><path d="M24.7 22.9c.1 0 .1.1.2.1v.1s.1 0 0 0v.1c.1 0 .1 0 .1-.1V23s0-.1-.3-.1c.1 0 .1-.1 0 0z"/><path fill="#010101" d="M25.1 23.2c-.1 0-.1 0-.1-.1V23c-.1 0-.1-.1-.2-.1l-.3-.1H24.8c.1 0 .1 0 .1.1.1 0 .1.1.1 0h.1v.2c.1.1 0 .1 0 .1z"/><path d="M9.3 13.5s.1 0 .1-.1v-.1c-.1 0-.2.1-.1.2-.1 0 0 0 0 0z"/><path fill="#010101" d="M9.3 13.6h-.2c0-.1.1-.2.1-.2l.1-.1s.1 0 .1.1v.2c0-.1 0-.1-.1 0 .1 0 0 0 0 0zm0-.2zm.1-.1"/><path d="M23.5 21.8c0 .2.1.2.1.3 0 0 0 .1.1 0 .1 0 0 0 0-.1 0 0-.1 0-.2-.2.1 0 0 0 0 0z"/><path fill="#010101" d="M23.7 22.2c-.1 0-.1-.1-.1-.1 0-.1-.1-.2-.1-.2v-.1h.6l-.4.1v.1l.1.1c0 .1 0 .1-.1.1zm.1-.1z"/><path d="M9.3 13.5s-.1 0 0 0c0 .1 0 .1 0 0 .1 0 .1 0 .2-.1l.1-.1c0-.1-.1-.1-.1-.2v.1s.1 0 0 .1-.1.3-.2.2z"/><path fill="#010101" d="M9.3 13.7c-.1 0-.1-.1-.1-.2l-.1-.1h.2V13.1h.1s.1 0 .1.1c0 0 0 .1.1.1v.1c0 .1 0 .1-.1.1l-.1.1s0 .1-.1.1z"/><path d="m20.9 24.6-.6-.6c.2.1.3.3.4.4.1.1.1.2.2.2z"/><path fill="#010101" d="M20.9 24.7c-.1 0-.1-.1-.2-.1l-.2-.2-.3-.3.1-.1c.2.1.4.3.5.5 0 0 0 .1.1.1v.1z"/><path d="M9 13.5c.1.1.2.2.3.4l.2.2c-.2-.2-.3-.4-.5-.6z"/><path fill="#010101" d="m9.5 14.2-.2-.2-.1-.1c-.1-.1-.2-.2-.2-.3v-.1l.3.3c.1.1.2.2.3.2l-.1.2z"/><path d="M11.8 10.8c-.2.1-.3.3-.5.5.2-.1.3-.3.5-.5z"/><path fill="#010101" d="m10.8 11.8.4-.5c0-.1.1-.1.1-.2.1-.1.2-.3.4-.4l.1.1-.2.2-.3.3-.5.5z"/><path d="m24.9 22.6-.6-.6.6.6z"/><path fill="#010101" d="m24.9 22.7-.6-.6.1-.1.6.6-.1.1z"/><path d="m17.2 18.3-.6.6.6-.6z"/><path fill="#010101" d="m16.52 18.965.707-.707.071.07-.707.708z"/><path d="m16.7 12.3-.3-.3.3.3z"/><path fill="#010101" d="m17.1 12.7-.5-.3c-.1-.1-.3-.2-.3-.3l-.3-.4 1.1 1z"/><path d="m12.1 16.6.6.6-.6-.6z"/><path fill="#010101" d="m12.7 17.3-.7-.7.1-.1.7.7z"/><path d="M23.9 22.6s.1 0 0 0c.1 0 .1-.1 0 0 .1-.1 0 0 0 0 0-.2-.1-.2-.1-.3h-.1v.1c.1 0 .2.1.2.2z"/><path fill="#010101" d="M23.9 22.7c-.1-.2-.1-.2-.2-.3-.1-.1 0-.1 0-.1h.1s.1 0 .1.1l.1.1s.1 0 .1.1v.1h-.2z"/><path d="M13 11.5c.1 0 .2-.2.3-.2-.2 0-.2.1-.3.2z"/><path fill="#010101" d="m12.6 11.7.3-.2.1-.1c.1-.1.1-.2.3-.2h.4l-.3.1c-.1 0-.1.1-.1.1-.1.1-.1.1-.2.1l-.5.2z"/><path d="M13.3 9.3c-.2.1-.3.3-.4.4l.4-.4z"/><path fill="#010101" d="m12.4 10.1.4-.5.1-.1.3-.3.4-.2-.3.4c-.1.1-.2.3-.3.4l-.6.3z"/><path d="m21 23.7-.4-.4c.1.1.2.3.4.4z"/><path fill="#010101" d="M20.9 23.7c-.2-.1-.3-.3-.5-.5l.1-.1.4.4v.2z"/><path d="m16.9 20.8-.1.1c-.1 0 0-.1-.1-.1 0 0-.1.1 0 .1h.1s.1 0 .1-.1z"/><path fill="#010101" d="M16.7 21c-.1 0-.1 0-.1-.1v-.2s.1-.1.1 0l.2-.2.1.3c0 .1-.1.2-.2.2h-.1c.1 0 0 0 0 0z"/><path d="m13.3 17.6.3.3-.3-.3z"/><path fill="#010101" d="m14.1 18.3-.6-.3c-.1-.1-.3-.2-.3-.4l-.2-.3 1.1 1z"/><path d="m23.5 20.1.5.5c-.2-.2-.4-.3-.5-.5z"/><path fill="#010101" d="m23.9 20.7-.5-.6h.1V20l.6.6z"/><path d="M13.3 10c.1-.1.3-.2.3-.4-.1.2-.2.3-.3.4z"/><path fill="#010101" d="m13.1 10.4.2-.4c0-.1.1-.2.2-.2.1-.1.1-.1.1-.2l.1.1c-.1.2-.2.3-.3.4l-.3.3z"/><path d="M16.8 20.7c-.1-.1-.2 0-.3.2.2 0 .2-.2.3-.2z"/><path fill="#010101" d="m16.4 21 .1-.1.3-.3h.2l.2.2-.3-.1s-.1 0-.1.1c0 0-.1.1-.2.1l-.2.1z"/><path d="M18 19.8c-.1.1-.2.1-.2.2.1 0 .1-.1.2-.2z"/><path fill="#010101" d="m17.5 20.4.2-.4.3-.3.5-.3-1 1z"/><path d="m11.6 15.9-.3-.3c.1.2.2.3.3.3z"/><path fill="#010101" d="m11.6 16-.4-.3.1-.1.4.3z"/><path d="M20.5 16.5c-.1 0-.1.1-.2.2.1-.1.1-.2.2-.2z"/><path fill="#010101" d="m19.8 17 .5-.4v-.1c0-.1.1-.1.2-.1h.2l-.2.1s-.1 0-.1.1l-.1.1-.5.3z"/><path d="M15.2 11.6c-.1.1-.2.2-.3.2.2 0 .3-.1.3-.2z"/><path fill="#010101" d="m14.6 12 .3-.2.1-.1c.1 0 .1-.1.2-.2l.5-.4-.4.5c-.1.1-.2.2-.4.3l-.3.1z"/><path d="m18.4 17.1-.3.3.3-.3z"/><path fill="#010101" d="M18.1 17.5c-.1-.1 0-.2 0-.2.1-.1.1-.2.3-.2l.6-.4-.9.8z"/><path d="m22.8 24.4.3.3c-.1-.2-.2-.3-.3-.3z"/><path fill="#010101" d="m23 24.7-.1-.1c-.1 0-.1-.1-.2-.1l-.2-.2.3.1.3.3H23z"/><path d="M13.4 17.3c.1-.1.2-.1.3-.3-.1.1-.3.2-.3.3z"/><path fill="#010101" d="m13.1 17.5.2-.3c0-.1.1-.1.2-.2l.1-.1h.1c0 .1-.1.2-.2.3h-.1l-.3.3z"/><path d="M23.7 25.4c-.1 0-.1-.1-.1-.2 0 .1 0 .1.1.2z"/><path fill="#010101" d="M23.6 25.5c0-.1 0-.1 0 0-.1-.1-.1-.2-.1-.3l.1-.2.1.2c0 .1 0 .1.1.1l.1.1-.3.1z"/><path fill="none" d="M4.5 27H18v13.5H4.5z"/><path fill="#FFF" d="M5.3 33.7h2.8c1.4 0 2.4.8 2.4 2.1 0 1.5-1.1 2.1-2.4 2.1H6.8v2.5H5.3v-6.7zm1.5 3.1h1.1c.7 0 1.1-.3 1.1-.9 0-.7-.5-.9-1.1-.9H6.8v1.8zM15.5 34v1c-1 1.4-2 3.5-2.3 5.4h-1.4c.3-1.9 1.4-4.1 2.3-5.3h-3V34h4.4z"/><path fill="none" d="M27 4.5h13.5V18H27z"/><path fill="#010101" d="M30.2 11.6c0-1.2.5-2.1 1.9-3.1.9-.7 1.2-.9 1.2-1.5s-.3-.9-.8-.9c-.6 0-.9.4-.9.9h-1.3c.1-1.1.8-2 2.3-2 1.6 0 2.2 1 2.2 1.9 0 .9-.4 1.4-1.6 2.2-.8.6-1.1.9-1.2 1.2h3l-.2 1.2h-4.6zM38.3 11.6v-1.4h-2.9V8.9l2.7-3.7h1.5V9h.8l-.1 1.1h-.6v1.4h-1.4zm0-3.7V6.4c-.3.5-1.1 1.8-1.7 2.6h1.7V7.9z"/><path fill="none" d="m10.896 5.015 3.182-3.182L33.17 20.925l-3.182 3.182z"/><path fill="#010101" d="m18.9 8-.7-.7.5-.5 2 2-.5.5-.7-.7-1.9 1.9-.6-.7L18.9 8zM19.8 10l.5-.5.7.7c0 .1-.2.2-.3.3.2-.1.6-.1.9.2l-.6.6c-.4-.4-.6-.5-1-.1l-.8.8-.7-.7 1.3-1.3zM22.3 13.9l-.6.6-.7-.7c0-.1.1-.2.2-.2-.3.1-.5 0-.7-.3-.4-.4-.4-.8.1-1.3l1.2-1.2.7.7-1.1 1.1c-.2.2-.2.3-.1.5.2.2.3.1.6-.1l1-1 .7.7-1.3 1.2zM24.5 16c-.4.3-.9.4-1.6-.2-.6-.6-.5-1.3 0-1.8s1.3-.6 1.9 0c.7.7.4 1.3.2 1.5l-.6-.6c.1-.1.2-.3 0-.4-.2-.2-.4-.1-.7.2-.4.4-.4.6-.3.8.1.1.3.1.4 0l.7.5zM25.9 16.4c.3-.1.7-.1 1.2-.2l.8.8-1.2.1c-.1.2-.4 1.6-.5 1.7l-.8-.8c0-.1.4-1 .4-1h-.4l-.5.5-.7-.7 2.5-2.5.7.7-1.5 1.4zM27.5 26.2l1.6 3-3-1.6s.7-.3.9-.5.5-.9.5-.9z"/><path fill="none" d="M45 0h45v45H45z"/></svg>