<svg version="1.2" baseProfile="tiny" xmlns="http://www.w3.org/2000/svg" viewBox="0 0 45 45" overflow="visible" xml:space="preserve"><path fill="none" d="M0-44.5h45v45H0z"/><path fill="none" d="M0 0h45v45H0z"/><path d="M6 37.6v-6.8c0-.9.1-1.7 0-2.6v-9.9c.1-.8 0-1.7 0-2.5v-4.9c0-.7.1-1.3 0-1.9-.1-.6 0-1.1 0-1.7v-1c0-.2.1-.3.2-.3.3 0 .5-.1.7 0 .4 0 .8-.1 1.2-.1h.8c.9.1 1.8.1 2.6.1.1 0 .1 0 .1.1 0 0 0 .1.1.1.3-.5.7-.2 1-.2.7-.1 1.4-.1 2.2 0h16c.5.1 1.1 0 1.6 0 .7.1 1.5 0 2.2 0 .4 0 .8-.1 1.2 0 .8.1 1.6 0 2.5 0 .1 0 .2 0 .3-.1.3-.2.5-.1.4.2-.1.8-.1 1.5-.1 2.3V39c0 .5 0 .4-.5.4H34c-1 0-2-.1-2.9 0h-3.6c-.4 0-.8-.1-1.2 0-.2.1-.5 0-.7 0h-4.4c-.7-.1-1.4 0-2.1 0-.4 0-.8-.2-1.1 0-.2.1-.5 0-.7 0-.5 0-1 .1-1.4 0-.3 0-.6 0-.9.1h-.1c-.5-.2-1.1 0-1.6-.1H7.4c-.2 0-.3 0-.5-.1-.1-.1-.2-.1-.3-.1-.6 0-.6-.2-.6-.4v-1.2zm.6-4.8c-.1.2-.2.5-.2.7-.1.4.1.7 0 1.1 0 .2-.2.3-.1.4.2.4 0 .9.1 1.4.1.6 0 1.2-.1 1.8 0 .3.2.7.4.7.7.1.9 0 .9-.7v-4.8c0-.4 0-.5-.5-.5-.2 0-.4 0-.5-.1.1-.3.3-.1.4-.2.4 0 .5-.1.5-.4v-1.6c0-1.1-.1-2.1 0-3.2 0-.9.1-1.9 0-2.8V13c0-.1 0-.3.1-.2.1.1.4 0 .3.3-.1.4-.1.7-.1 1.1 0 .9-.1 1.9 0 2.8v5.3c-.1.9 0 1.7 0 2.6V27c0 .6.1 1.3 0 1.9 0 .3.3.5.1.8-.3.5-.1 1-.1 1.5 0 .6-.1 1.2 0 1.8.1.5-.2 1.1-.1 1.6 0 .2.1.4 0 .7v1.1c.1.7-.2 1.4 0 2.1v.2c-.1.4.1.6.5.6h.7c.5 0 .6 0 .6-.5V32.5c0-.7.1-1.5 0-2.2 0-.4-.1-.4-.5-.4-.3 0-.6.1-.8-.2.3 0 .6 0 .8-.1.1 0 .2 0 .3.1.2 0 .2-.1.2-.2.1-.9 0-1.8 0-2.8V23c0-.6.1-1.2 0-1.8-.1-.6 0-1.1 0-1.7v-2c0-.8-.1-1.5 0-2.3 0-.1 0-.1.1-.2.1 0 .1 0 .2.1s.3.2 0 .4c-.1 0 0 .2 0 .2v18c0 .3.1.4.4.4h.3c.2 0 .4 0 .4-.3V22.6c0-.3.1-.7.1-1 0-.9-.1-1.8 0-2.7v-2.3c0-.1-.1-.2.1-.2.1 0 .1.1.1.2v5c0 .2 0 .3.3.3h.6c.5 0 .6 0 .6-.5v-3.1c0-.1 0-.2.1-.2s.1.1.1.2c0 .3.1.5 0 .8 0 .2-.1.4.1.5.1.1 0 .1 0 .2-.1.1-.1.2 0 .3.1.3.1.7.1 1-.1.5.1.9 0 1.4-.1.4 0 .7 0 1.1v1.2c0 .4.1.8 0 1.1v.4c.1.5 0 1.1 0 1.6V29c0 .6.1 1.2 0 1.8-.1.9 0 1.8 0 2.7v.6c0 .2.1.3.3.3h.4c.5.1.6 0 .6-.5v-2.4c0-.7.1-1.5 0-2.2-.1-1.3 0-2.5 0-3.8V22c0-.3.1-.6 0-1s0-.7 0-1.1c0-.1 0-.2.2-.2s.1.1.1.2v.3c.1.7.1 1.3 0 2 0 1 .2 2-.1 2.9 0 0 0 .1.1.1.1.1.1.2.1.3v2.1c0 1.1-.1 2.1 0 3.2 0 .3.1.4.4.4.1 0 .2-.1.2.1 0 .1-.1.1-.2.2-.3.1-.4.2-.4.5v6.6c0 .3.1.4.4.4h.8c.2 0 .3-.1.3-.3v-2.6c0-1.3-.1-2.6.1-3.9v-.6c0-.1-.1-.2-.2-.1-.2.1-.3 0-.5 0-.1 0-.1-.1-.1-.1 0-.1.1-.2.2-.2s.2 0 .3.1c.2 0 .3 0 .3-.3v-9.3c0-.1 0-.2.1-.2.1.1.1.2.1.4v3.5c0 .5.1.6.6.6.3 0 .4-.1.4-.4v-2.5c0-.1 0-.2.1-.2s.1.1.1.2v11.8c0 .2 0 .2.2.2.3 0 .6-.1.9-.1.4 0 .4-.2.4-.5v-1.4c0-.9.1-1.8.1-2.7v-5.6c0-.1 0-.2.1-.2s.1.1.2.1c.2.2.1.5.1.7-.1.7 0 1.5 0 2.2v8.1c0 .5.1 1-.1 1.5-.1.3.1.4.4.4.2 0 .4-.1.5 0 .3.2.4 0 .4-.3v-5c0-.8 0-1.6.1-2.5 0-.2-.2-.4-.1-.6.1-.5.1-.9.1-1.4v-1.4c0-.1 0-.2.1-.2s.1.1.1.1v.2c0 .6-.1 1.1 0 1.7 0 .3-.1.6 0 .9.1.2.1.2.3.1.1-.1.2-.1.3-.1.3.1.5 0 .8 0 .3 0 .3-.2.4-.4 0-.3-.1-.6 0-.9.2.2.3.3.3.6v1.8c0 .3-.2.6-.1.9.1.5 0 1 0 1.5v6c0 .2.1.2.2.3.2.1.4 0 .6.1.3.1.4-.1.4-.3 0-1.3 0-2.5.1-3.8 0-1.1-.1-2.2 0-3.3 0-.6.1-1.2 0-1.8 0-.1 0-.2.1-.2s.1.1.2.2c0 .3.1.5 0 .8-.1.4 0 .7 0 1.1 0 .1.1.2.1.2.1.1.2.1.1.2s-.2.2-.3.1c-.1-.1-.2 0-.1.1.2.3.1.7.1 1.1 0 .9.1 1.8 0 2.7-.1.3.1.6 0 .9-.1.6-.1 1.2 0 1.8 0 .1.1.2.2.2.3.1.5 0 .8 0 .2 0 .5 0 .4-.3-.1-.5.1-.9.1-1.4v-4.8c0-.3-.1-.4-.4-.4-.2 0-.4 0-.5.1-.1 0-.2 0-.2-.1s.1-.2.2-.2h.2c.4.1.7-.1.7-.4 0-.1 0-.2.1-.2s.2.1.2.2v2.8c0 .2.1.4.4.4.1 0 .2-.1.2.1 0 .1-.1.1-.2.1-.3 0-.4.1-.4.4v3.2c0 .4.2.3.5.3.2 0 .5 0 .5-.3v-1.1c0-.8.1-1.7-.1-2.5v-.2c.1-.1.1-.3.1-.5v-1.6c0-.1 0-.1.1-.2.1 0 .1.1.1.1.2.2.1.5.1.7 0 1 .1 2 0 3v.8c0 .2.1.3.3.3h.8c.2.1.3 0 .3-.2 0-.7 0-1.3.1-2 0-.4-.1-.8.2-1.1.1 0 .1.1.1.2-.2.4-.1.8-.1 1.2v3c0 .2 0 .3.3.4.3.1.6-.1.8-.1 0 0 .1-.1 0-.1-.2-.3 0-.7 0-1-.1-.5 0-1.1 0-1.6 0-.1-.1-.3.1-.4.2 0 .2.2.2.4v2.5c0 .2 0 .4.3.4s.6-.1.9 0c.3.1.3-.1.4-.3.1-.2 0-.5.1-.7 0-.1 0-.3.2-.3.1 0 .2.1.2.3v.6c0 .3.1.4.4.4h.2c.3 0 .5-.1.5-.5v-.3c-.1-.4.1-.7 0-1.1 0-.1.1-.2.2-.2.2 0 .1.2.1.3v1.6c0 .2.1.4.4.3.2 0 .4-.1.6 0 .1.1.4 0 .4-.3 0-.2.1-.5.1-.7v-1.7c0-.3-.1-.7 0-1 0-.1 0-.1.1-.1s.1.1.1.1v3.3c0 .3.1.4.4.4h.5c.3 0 .3-.1.4-.3.1-.4 0-.8 0-1.2v-2.1c0-.2-.1-.3-.4-.3h-.6c-.1 0-.1 0-.2-.1 0-.1 0-.1.1-.2.2-.2.4-.1.7-.1.3 0 .3-.1.4-.3v-.3c0-.5.6-1 1-.9.6.1.8 0 .8-.6v-3c0-.7-.1-1.4 0-2.1 0-.2-.1-.4 0-.5.1-.2.1-.4.1-.6 0-.5-.1-1 0-1.5 0-.1.2-.3.1-.3-.2-.2-.1-.4-.1-.6 0-.2-.1-.4-.1-.5.1-.5 0-1 .1-1.5v-3.2c.1-.5 0-1 0-1.5.1-.5 0-1 0-1.6 0-.3-.2-.5-.5-.4-.2 0-.3.1-.5 0-.2 0-.3.1-.3.3-.1.7-.1 1.3 0 2 0 .7-.3 1.3 0 1.9-.2.9 0 1.8-.1 2.7v1.2c-.1.4 0 .8 0 1.1-.1.4 0 .9 0 1.3-.1 1 0 1.9 0 2.9v3.6c0 .1 0 .2-.1.2s-.1-.1-.1-.2v-7.4c0-.2.1-.4.1-.6-.1-.6-.1-1.2 0-1.8 0-.3-.1-.7 0-1 .1-.6 0-.7-.7-.6-.2 0-.5.1-.5.4 0 .5-.1.9-.1 1.4v.7c-.1.7-.1 1.5-.1 2.2v2.1c0 .8-.1 1.6 0 2.4 0 .3 0 .6-.1.9-.2-.1-.2-.3-.2-.5 0-.5.1-1 0-1.5-.1-.6 0-1.2 0-1.7 0-.6.1-1.1.1-1.7 0-1.2 0-2.4.1-3.7 0-.5-.1-.9 0-1.4.1-.8 0-1.7 0-2.6 0-.2-.2-.3-.4-.3h-.2c-.6-.2-.8-.1-.8.5v4.2c0 1.1 0 2.2-.1 3.3v3.3c0 .1 0 .1-.1.2-.2-.2-.2-.4-.2-.7 0-.4-.1-.5-.5-.5h-.4c-.3 0-.5-.2-.5-.6v-4.1c0-.5 0-.5-.5-.5h-.8c-.2 0-.4.1-.4.4v2.2c0 .1.1.4-.1.4-.1 0-.1-.2-.1-.4s-.1-.5-.4-.4c-.1 0-.3 0-.4-.1v-.1c0-.1.1 0 .1 0 .5.2.7 0 .7-.5 0-1.3.1-2.7 0-4v-7.4c0-.7 0-.7-.7-.8-.4-.1-.3.1-.4.3-.1 1.2 0 2.4-.1 3.7 0 1.1 0 2.2-.1 3.3v2.4c0 .3-.1.6.1.9v.2c0 .1-.1.2-.1.3 0 .4-.1.8 0 1.3 0 .1 0 .1-.1.1s-.1-.1-.1-.1V23c0-.2-.1-.4-.3-.3-.4.1-.7-.1-1.1.1-.1.1-.1 0-.2-.1s-.1-.3-.1-.4v-3.7c0-.5 0-.5-.5-.5h-.3c-.2 0-.3.1-.3.3 0 .2-.1.4-.1.5.1.8 0 1.5 0 2.3 0 .1 0 .2-.1.2-.1-.1-.1-.2-.1-.3v-6c0-.1 0-.2-.2-.2h-1c-.2 0-.3.1-.3.3 0 .2-.1.5-.1.7v3.4c0 .1.1.2-.1.2s-.1-.1-.2-.3c-.1-.6 0-1.1 0-1.6s-.1-1 0-1.5c0-.3.1-.5.1-.8 0-.6-.1-1.1 0-1.7 0-.3.1-.6.1-.9 0-.5-.7-.8-1.1-.6-.1 0-.1.1-.1.2v.6c0 1.6-.1 3.2-.1 4.7 0 .2.1.4-.1.5-.3 0-.2-.3-.2-.4 0-.3-.1-.5-.5-.5-.2 0-.5.1-.6-.2 0-.1-.1-.1-.1-.2.1-.1.1 0 .2 0 .2.1.5.1.7 0 .1 0 .2 0 .2-.2 0-.4.1-.9.1-1.3-.1-.7 0-1.4 0-2.1v-.9c0-.2.1-.3.1-.5 0-.3-.1-.6 0-1 .1-.3.1-.6.1-.9-.2-.6.1-1.2 0-1.8V6.5c0-.3-.3-.5-.5-.4h-.9c-.4 0-.5 0-.5.4 0 1.4-.1 2.8 0 4.2v5c0 .1 0 .2-.1.2s-.1-.1-.1-.2v-.2c.1-1 0-2 .1-3V6.8c0-.8.1-.9-.8-.8h-.1c-.3 0-.4.1-.4.4v1.1c0 1-.1 1.9 0 2.9v3.7c0 .1.1.2-.1.2-.1 0-.2-.1-.2-.2V11.7c0-.4-.1-.7 0-1.1.2-.8 0-1.6.1-2.4 0-.5-.1-1 0-1.6.1-.4-.2-.8-.5-.7H19c-.6 0-.6 0-.6.6 0 .5-.2 1.1.1 1.6v.1c-.1.1-.1.3-.1.5V12c0 .1 0 .2-.1.2-.1-.1-.1-.2-.1-.3V8.6c0-.1 0-.2-.1-.2-.4-.1-.7.1-.8.5V10c0 .3-.1.5 0 .8 0 .1 0 .2-.1.3-.1 0-.1-.1-.1-.2-.1-.4 0-.8 0-1.2V6.4c0-.4-.1-.5-.5-.5H16c-.5 0-.6.2-.6.5.1.8 0 1.7.1 2.5 0 .1 0 .2-.1.3h-.2c-1.2.3-1.3.2-1.2 0 0-.1.1-.2.1-.3V6.5c0-.1 0-.1-.1-.2-.2-.1-.4.1-.6 0-.2 0-.4-.1-.5.3 0 .1-.2.1-.2 0-.1-.3-.3-.3-.5-.3-.1 0-.2.1-.3 0-.2-.1-.4 0-.6 0-.3 0 0 .3-.1.5 0 .1 0 .1-.1.1s-.1-.1-.1-.1v-.3c0-.1-.1-.2-.2-.2-.2 0-.4 0-.6.1-.2 0-.3.2-.3.4v1.5c0 .1-.1.1-.1.1-.1 0-.1-.1-.1-.1v-1c0-.3 0-.5-.1-.8 0-.1-.1-.2-.2-.2-.4 0-.7.1-1.1 0-.5 0-.5.2-.5.4.1.6-.1 1.2 0 1.8.1.4 0 .9 0 1.4 0 .1 0 .2-.1.4 0 .1-.1.1-.2.1s-.1-.1-.1-.2v-.7c0-.6-.2-.7-.8-.7-.1.1-.2.2-.2.3v.7c-.2.4.1.8 0 1.2-.1.5 0 1.1 0 1.6v19.1c-.1.4 0 .8.2 1.1zm25.8-21.7V9.6c0-.3-.1-.4-.4-.4h-.8c-.3-.1-.4.1-.4.4v1.6c0 .4.1.9 0 1.3-.1.8 0 1.7-.1 2.5 0 .3.1.6 0 .9-.2.5 0 .9-.1 1.4 0 .2.1.5.1.7-.1.3 0 .6-.1.9-.1 1 0 2 0 3 0 .3.2.4.4.4h1c.2 0 .3-.1.3-.3v-.7c0-1.1.1-2.1 0-3.2v-1.7c.1-1.2-.1-2.3.1-3.5.1-.4.1-1.2 0-1.8zM11.1 35.6v1.2c0 .2.1.3.3.3.3 0 .5-.1.8-.1.1 0 .2 0 .2-.2.1-.2.1-.3.1-.5v-9.2c0-.9.1-1.7 0-2.6v-2.3c0-.2 0-.4-.3-.2H12c-.3-.1-.5.1-.7.1-.1 0-.2.2-.2.3.1.5 0 1 0 1.4 0 1.1-.1 2.2 0 3.3.1.8-.1 1.6 0 2.4v1.6c0 .5-.1 1 0 1.5 0 1.1-.1 2.1 0 3zM29 9.5c.1-.3.1-.6.1-.9 0-.2 0-.4-.4-.4-.1 0-.3 0-.4-.1-.5-.1-.7 0-.7.5v4.2c0 2.1 0 4.3-.1 6.4v2.6c0 .4.1.5.4.5.2 0 .4.1.6 0 .3 0 .3-.1.4-.4.1-.7 0-1.5.1-2.2V9.5zm7.9 8.2v-1.6c0-.4-.1-.8 0-1.3.1-.3 0-.7 0-1.1 0-1.2.1-2.3 0-3.5 0-.1 0-.3.1-.4.1-.2.1-.5.1-.7 0-.4-.1-.7 0-1.1 0-.4.1-.8.1-1.2 0-.3-.1-.4-.3-.4-.2 0-.4-.1-.5-.1-.3 0-.4.1-.4.4 0 1.4.1 2.8-.1 4.2-.1.6 0 1.1 0 1.7v3.6c0 1.3-.1 2.6-.1 3.9 0 .7 0 .7.7.6.4 0 .5 0 .5-.5 0-.8-.1-1.7-.1-2.5zM20.8 33.1v2.7c0 .8.1 1.5-.1 2.3-.1.3 0 .7.1 1 0 .1 0 .2.1.1.3-.1.7 0 1.1 0 .4 0 .5 0 .5-.4v-7.1c0-.6.1-1.2 0-1.8 0-.2-.1-.3-.4-.3h-.7c-.6 0-.7.1-.7.7.1.8.1 1.8.1 2.8zM35.6 7.2v-.3c0-.5-.1-.6-.6-.5h-.2c-.4-.1-.6 0-.6.4s-.1.9-.1 1.3c0 1.4-.1 2.7-.1 4.1 0 1.5-.1 2.9 0 4.4 0 .5 0 .5.5.7l.1.1c.4.2.7 0 .8-.4.1-.8.1-1.6.1-2.4v-4.1c.1-1.2-.1-2.3.1-3.3zm-2.3 6.7c-.5 0-.6.1-.7.6-.1 1.3 0 2.6 0 3.9v3.9c0 .5-.1.9-.1 1.3.1 1.1 0 2.2 0 3.3 0 .2 0 .4.2.4.3 0 .5.2.8 0l.1-.1c0-.2.1-.5.1-.7v-1.9c0-.7.1-1.4 0-2.1V18c0-1.2 0-2.4.1-3.6 0-.4-.1-.5-.5-.5zm-7.1 2.2v1.4c0 .2.1.4.3.3.2-.1.3-.1.5-.1.3 0 .4-.2.4-.4v-1.4c.1-1.3 0-2.5 0-3.8 0-.9.1-1.7 0-2.6 0-.9.1-1.8 0-2.7 0-.4-.1-.5-.7-.5-.3 0-.4.3-.4.5 0 1.4-.1 2.8-.1 4.2v5.1zm-9 10.9c0-.3 0-.5-.1-.7-.1-.2-.3-.1-.5 0-.2-.1-.3.1-.3.3v9.5c0 .8.1 1.6 0 2.4 0 .2-.1.5.1.6.2.1.4.1.6 0 .2-.1.2-.3.2-.5v-2.2c0-.4-.1-.8 0-1.2 0-.1.1-.3.1-.5 0-.4-.1-.7 0-1.1v-.7c-.1-.3-.1-.6-.1-.9 0-.5.1-1 .1-1.5-.1-1.2-.1-2.4-.1-3.5zM26 8.8V6.7c0-.2 0-.4-.3-.4h-.8c-.4 0-.5.2-.5.5v.5c0 .8-.1 1.6-.1 2.4V14c0 .2 0 .4.2.4.3.1.6.1.9.1.3 0 .4-.1.4-.4-.1-1.1.1-2.2 0-3.4.2-.5.2-1.2.2-1.9zm11.3 4.7v1.2c0 .2.1.3.3.3h.7c.4 0 .5-.1.5-.5v-2.2c0-1 0-2 .1-3V6.7c0-.2-.1-.3-.2-.4-.2-.2-.4-.1-.6-.1-.5 0-.6 0-.5.6v1.6c-.1.9 0 1.8-.1 2.6-.3.9-.2 1.7-.2 2.5zm-3.4-6.4v-.2c0-.6 0-.6-.6-.6-.5 0-.6.1-.5.6 0 .2.1.4 0 .6-.2.5 0 1-.1 1.5v2.5c-.1.5 0 1 0 1.5 0 .4.1.6.5.6h.2c.2.1.3 0 .4-.2V10c.1-1 0-1.9.1-2.9zm4.6 28.2v-1.2c0-.5 0-.5-.5-.5-.2 0-.4 0-.6.1-.3 0-.4.1-.4.4v4.7c0 .3.1.4.5.4h.7c.3.1.4 0 .4-.2 0-.4.1-.7 0-1.1-.2-.9-.1-1.7-.1-2.6zM23.1 11.2c-.1.3-.1.5.2.6.2.1.5.1.7.1.2 0 .2-.1.3-.2.1-.6 0-1.3 0-1.9 0-.9.1-1.7.1-2.6 0-.7-.1-.8-.7-.8h-.2c-.2 0-.3.1-.3.3 0 .4-.1.7-.1 1.1V11.2zm6.2-.7v.7c0 .4.2.5.5.5.1 0 .2-.1.2 0 .4.1.4-.1.4-.4 0-1 .1-2.1 0-3.1 0-.5.1-1 0-1.5 0-.1 0-.2-.1-.2-.2-.2-.4-.1-.6-.1-.5 0-.5.1-.5.5.2 1.1.1 2.3.1 3.6zM18.9 39.1c0-1.2.1-2.4.1-3.5 0-.3-.1-.4-.4-.4-.2 0-.4.1-.6.1-.4 0-.5.1-.5.5v2.1c0 .3-.1.5 0 .8.1.3.2.4.5.4.2 0 .6-.2.9 0zm-6.1-.7c0 .4 0 .5.2.6.1.1.3 0 .5 0 .5.1.7-.1.7-.5v-3.6c0-.2 0-.3-.2-.3h-.8c-.2 0-.3.1-.3.3v.7c-.2.9-.2 1.9-.1 2.8zm-2-2.6v-1.1c0-.5 0-.5-.5-.6-.4-.1-.6.1-.5.5v3.8c0 .6 0 .6.6.6h.1c.3.2.4 0 .5-.2.1-.1 0-.2 0-.3-.2-.9-.2-1.8-.2-2.7zm20-28.1v1c0 .2 0 .3.3.3h.8c.4.1.6-.1.6-.5s-.2-.7 0-1.1c.1-.3-.1-.6 0-.9 0-.1-.1-.2-.3-.2h-1c-.2 0-.4.1-.3.3-.1.4-.1.7-.1 1.1zm-24.4 1c.2-.1.4-.1.6-.1.4.1.4 0 .4-.4 0-.5.1-1 0-1.5 0-.3-.1-.4-.4-.5-.4 0-.6.2-.6.7v1.8zM11 38.2c0 .3.1.7.1.7.2.1.3 0 .5 0 .2.1.4 0 .6 0 .1 0 .2 0 .2-.2.1-.5 0-1 0-1.4 0-.1-.1-.1-.2-.1-.3-.1-.5.1-.7.2-.5 0-.5 0-.5.5.1.1 0 .3 0 .3zM29.1 7.1v-.5c0-.1-.1-.3-.2-.3h-1c-.1 0-.3.1-.2.3v.3c0 .7 0 .7.7.9.6.1.7.1.7-.7zm-12.8.7c0 .2-.1.4.1.5.2.1.4 0 .6.1.1 0 .1-.1.1-.2 0-.6.1-1.2.1-1.8 0-.1 0-.2-.1-.2-.4-.2-.8.1-.8.5s-.1.8 0 1.1zm12.5 30.7c-.1-.2.1-.4-.2-.5-.4-.2-.8 0-1.2 0-.4 0-.1.5-.2.8 0 .1 0 .3.2.3.4 0 .8 0 1.1-.1.1 0 .1-.1.1-.2.2-.1.2-.2.2-.3zm-8.3 0c-.1-.2.1-.5-.2-.6-.3-.1-.7-.1-.9.2-.2.2-.2.4-.1.6.1.2.2.3.4.3h.5c.1 0 .2-.1.2-.2.1-.1.1-.2.1-.3z"/><path d="M12.9 7.6V8c0 .1 0 .1-.1.1s-.1 0-.2-.1c0-.3-.1-.6 0-.8 0-.1 0-.2.1-.2s.1.1.1.2.1.3.1.4z"/><path fill="none" d="m8.398 12.998 3.96-3.96 23.9 23.9-3.96 3.96z"/><path fill="#010101" d="M11.2 14.1c.7-.7 1.3-.8 2.2-.6.7.1.9.1 1.1-.1.2-.2.2-.4 0-.6-.2-.2-.4-.1-.7.1l-.8-.8c.5-.4 1.2-.7 2.1.2.8.8.6 1.5.2 2-.4.4-.8.4-1.6.3-.5-.1-.8-.1-.9 0l1.2 1.2-.7.5-2.1-2.2zM15.4 15l.6-.6.8.8c0 .1-.2.2-.2.3.2 0 .6 0 .9.3.5.5.4 1-.1 1.6L16 18.9l-.8-.8 1.4-1.4c.2-.2.3-.4.1-.6-.2-.2-.4-.2-.7.1l-1.3 1.3-.8-.8 1.5-1.7zM21.8 18.5l-2.4 2.4-.7.7-.8-.8c.1-.1.1-.2.2-.2-.3.1-.6 0-.9-.3-.6-.6-.4-1.4.3-2.1.7-.7 1.6-.8 2.2-.2.3.3.4.5.3.7l1-1 .8.8zm-3.5.5c-.4.4-.5.7-.2.9.3.3.6.1.9-.3.4-.4.6-.6.3-.9-.2-.2-.6-.1-1 .3zM23.2 20.2l.8.8-2.3 2.3 1.4 1.4-.7.5-2.2-2.2 3-2.8zM24.5 25.5c-.2.2-.4.5-.1.8.2.2.3.2.5.1l.8.8c-.4.2-1.1.4-1.9-.4-.8-.8-.6-1.7 0-2.3.7-.7 1.6-.8 2.4 0 .9.9.5 1.7 0 2.3l-.2.2-1.5-1.5zm1 .2c.2-.2.3-.5.1-.7-.2-.2-.5-.1-.7.1l.6.6zM28.3 26.7c-.4.7-.9 1.5-1.2 1.9.5-.4 1.2-.8 1.9-1.2l.8.8-3 1.5-.9-.9 1.5-3 .9.9zM29.4 30.4c-.2.2-.4.5-.1.8.2.2.3.2.5.1l.8.8c-.4.2-1.1.4-1.9-.4-.9-.9-.6-1.7 0-2.3.7-.7 1.6-.8 2.4 0 .9.9.5 1.7 0 2.3l-.2.2-1.5-1.5zm1.1.2c.2-.2.3-.5.1-.7-.2-.2-.5-.1-.7.1l.6.6zM30.3 33.2l3.1-3.1.8.8-3.1 3.1-.8-.8z"/></svg>