<svg version="1.2" baseProfile="tiny" xmlns="http://www.w3.org/2000/svg" viewBox="0 0 45 45" overflow="visible" xml:space="preserve"><path fill="none" d="M0 0h45v45H0z"/><path fill="#DAA628" d="m0 18.1 9-.1 4.3 4.3 4.4 1.8 10.1.2 3.3-1.2 1.2-1.7L36 18l9 .1v26.8L0 45"/><path d="M32.6 22.4c-.1-.1-.1-.3-.2-.2-.1.1-.3.2-.3.4 0 .1 0 .3.2.3.1.1.3 0 .4.1-.3.4-.7.6-1 1 0 0-.1 0-.1.1-.1.5-.5.5-.8.6-.3.1-.5.3-.7.6-.1-.1-.1-.2 0-.3.1-.1 0-.2-.1-.3-.3-.1-.6-.1-.9 0-.5.1-1 .1-1.4.5l-.2.2c0 .1-.1.2-.2.2-.2-.1 0-.2 0-.3v-.1c0-.1.3-.1.2-.3-.1-.1-.3-.1-.4-.1-.5.1-1.1 0-1.5.4-.1.1-.3.1-.4.3h-.1v-.1c.1-.2.2-.4.5-.5.1 0 .2-.1.2-.3 0-.1-.2-.1-.3-.1-.3 0-.6 0-.9.1-.2.1-.4 0-.6 0-.1 0-.2-.1-.2.1 0 .1.1.1.2.1h.1c.1 0 .2 0 .2.1s-.1.1-.3.1c-.2-.1-.3-.2-.5-.2-.3-.1-.5-.1-.8.1-.3.2-.7.2-1 0-.1 0-.1-.1-.2 0-.2.1-.3.1-.2-.2v-.1c0-.1-.8-.3-.9-.2-.3.1-.5.3-.9.1h-.1c-.5.3-1.1.1-1.6.3-.5.1-1 .1-1.4.1-.3 0-.7.1-1 .1-.1 0-.2 0-.2-.1s.1-.3.2-.2c.1 0 .1 0 .2-.1 0-.1-.1-.1-.1-.1-.2-.1-.4-.1-.6-.1-.4 0-.8-.1-1.2 0 0 0-.1 0-.1-.1 0-.3-.2-.4-.5-.4h-.7c0-.1.1-.2.1-.2.1-.1.2-.1.2-.2s-.1-.1-.2-.1c-.4-.3-.8-.4-1.3-.3-.3 0-.4-.1-.6-.3-.3-.3-.6-.5-.9-.6-.3-.2-.7-.4-1.2-.3-.1 0-.3 0-.3-.2s.2-.2.3-.2c.3 0 .7-.1 1 .3.1.1.3.1.4.2.2.1.6 0 .6.4l.1.1c.3.1.6.1.8.3.1.1.2 0 .3-.1 0-.1-.1-.1-.2-.2-.1 0-.1 0-.1-.1-.2-.5-.6-.4-1-.5-.2 0-.3-.1-.3-.2-.1-.2-.2-.4-.5-.4-.4 0-.7-.3-.9-.5-.3-.2-.6-.2-.9-.2-.2 0-.4.2-.6-.2-.1-.2-.4-.2-.7-.2H6c.1 0 0-.1 0-.2s.1-.2.2-.2.3.1.3-.1-.1-.2-.3-.2c-.1 0-.1 0-.1-.1l.1-.1c.5.1.7-.2.9-.5l.1-.1c-.3 0-.6 0-.9.1h-.2c0-.1 0-.1.1-.1.2-.2.4-.2.6-.1.6.2 1.3.1 2 .1.2 0 .4 0 .4-.3l.1-.1c0-.1.2-.3 0-.4-.2-.1-.4-.2-.6-.1-.1.1-.3.1-.4.3 0 .1-.1.1-.2.1-.3-.1-.6 0-.9-.1H7c-.3.2-.6.1-.9-.1.2 0 .5-.1.7-.1.2 0 .3-.1.4-.2v-.1c-.1 0-.1-.1-.2-.1-.2.1-.4.1-.6.1-.3-.1-.4-.2-.4-.5.3 0 .5-.1.7-.2.1-.1.2-.1.3 0 .4.1.8 0 1.1-.1.4-.1.7-.1 1.1 0 .3.1.7-.1 1 0 .5 0 1 .1 1.5.1s1.1.1 1.6-.4c.3-.3.7-.7 1.3-.7h1c.7.1 1.4 0 2.1 0 .9 0 1.7 0 2.5.1.2 0 .5 0 .7-.1h.2c.8.1 1.5 0 2.3 0 .8 0 1.5 0 2.3-.1.8 0 1.6-.1 2.3 0h.9c.1 0 .3 0 .4.1 0 0 .1.1.1 0 .3-.3.7 0 1-.1.1 0 .2 0 .2.1l.1.1c.3.1.6.3.8.6.1.1.2.1.3.1.6-.1 1.1 0 1.6 0 .5.1 1 0 1.5.3.2.1.5 0 .8.1.1 0 .3-.1.3.2 0 .2.2.6-.2.7-.1 0-.3.1-.4.1-.2 0-.2.2-.2.3 0 .2.1.2.2.2s.1 0 .2.1c.1 0 .3-.1.4.1v.3c0 .1-.2.2-.4.2h-.4c0-.2.1-.1.2-.2 0-.1-.2-.1-.2-.2s.1-.3-.1-.3c-.2-.1-.4 0-.5.1l-.2.2c-.1.1-.3.1-.4 0-.1-.1-.2 0-.3 0-.1.1-.1.2-.1.3 0 .1.2.1.2.1.1 0 .3 0 .4-.1.1-.1.3-.1.4-.1.1 0 .2 0 .2.1s0 .2-.1.2c-.2.1-.1.2-.1.3 0 .1.2.1.3.1.3 0 .7-.1 1-.1.2 0 .3.1.2.3 0 .2-.1.2-.3.2-.3-.1-.5-.1-.7.2 0 .1-.2.2-.3.2-.3 0-.6.2-.9.3-.1 0-.2.1-.2.2s.1.1.2.1h.3c.2 0 .3.2.2.3-.1.1-.2 0-.2 0-.3-.3-.4-.3-.7 0l-.1.1c-.2.2-.6.4-.8.9zm-17.5-6.1c-.6 0-.6 0-.5.4 0 .6.4 1.1.5 1.7 0 .1 0 .4.3.5.2 0 .3.1.1.3-.2.2-.3.4-.3.7v2.8c0 .3 0 .5.3.5.1 0 .1.1.2.1.1.2.2.2.3.2.7.1 1.4-.2 2.1 0 .4.1.8 0 1.2 0 .3 0 .7 0 .9.1.4.3.7.3 1.1.2.2 0 .4 0 .6.1.2.1.4.1.6 0 .2-.1.3-.1.5-.1.5.1 1 .2 1.5.2.5.1.9 0 1.3-.2.3-.2.6-.2.9-.2.6.1 1.2-.2 1.8-.1 0 0 .1 0 .1-.1.4-.1.8-.3 1.2-.4.4-.1.5-.2.5-.6 0-.4-.1-.9 0-1.3.1-.5-.1-1-.1-1.5 0-.2.1-.4 0-.6-.2-.3-.3-.6-.3-1v-.6c0-.2-.1-.5.1-.7.2-.2 0-.3 0-.5 0-.1-.2-.1-.3-.1-.3 0-.5.1-.8 0-.4-.1-.8-.1-1.2-.1-.3 0-.6.1-.8-.1 0 0-.3 0-.3.1h-.1c-.4 0-.7-.1-1.1 0-.7.1-1.4 0-2.2 0-.7.1-1.4 0-2.1 0h-.7c-.7.1-1.4.1-2.1.1-.6 0-1.2.1-1.8 0-.3 0-.9.2-1.4.2zm15.8 2.8c.2.1.4-.2.6-.2.4 0 .7-.3 1-.5.3-.1.2-.3 0-.4-.1-.1-.3-.1-.3-.3-.3-.4-.7-.6-1-1-.2-.2-.4-.2-.5.2-.1.2 0 .5 0 .7-.1.4-.1.7-.1 1.1-.1.3 0 .4.3.4zm-16.8-2.4c-.2.3-.4.4-.6.5 0 0-.1 0-.1.1 0 .3-.3.5-.5.7-.3.3-.2.5.2.6.4.1.8 0 1.1.4h.1c.2 0 .3 0 .4.2-.1-1-.3-1.7-.6-2.5zm.2 6c.1-.1.2-.2.2-.3v-.9c0-.1-.1-.1 0-.2.2-.3.1-.5 0-.8 0-.1 0-.1-.1-.1s-.1.1-.1.1c-.1.1 0 .2 0 .3 0 .1 0 .2-.2.3 0-.3 0-.6.1-.9 0-.1 0-.3-.1-.3-.2 0-.2.1-.2.3-.1.3-.1.6 0 .8 0 .1.1.2 0 .3h-.1c-.1-.1 0-.1 0-.2 0-.2 0-.4-.1-.6h-.1c0 .7-.3 1.4.1 2 .1 0 .1-.1.1-.1 0-.1-.1-.2 0-.2s.1.1.1.2l.1.1c.1 0 .1-.1.1-.2 0-.2 0-.5.1-.7.1.2-.2.7.1 1.1zm-5.5-2.9c-.2-.1-.1-.4-.4-.4-.5.1-1.1 0-1.6.2-.1 0-.2 0-.2.1s.1.2.2.2c.2 0 .4.1.6.2.2.1.4.2.5.1.3 0 .5-.2.8-.2.1 0 .1-.1.1-.2zm7.3 4.5s-.1 0-.1.1.1.1.1.1c.2.1.4.2.6 0 .1-.1.3-.1.5-.1.3 0 .6 0 .8-.1.3-.1.7 0 1 0h.2c0-.1-.1-.1-.1-.1-.3-.1-.7-.2-1.1 0-.1 0-.2.1-.3 0-.3 0-.5-.1-.8 0-.2.2-.5.2-.8.1zM13.4 20c0-.1.1-.2-.1-.3-.1 0-.2.1-.2.1 0 .3-.1.6-.1.9 0 .4-.1.9.1 1.3 0 .1 0 .2.1.2h.1c.1-.1.1-.2.1-.3-.2-.2-.1-.5-.1-.7.2-.3 0-.8.1-1.2zm-6-1.1.1.1c.4-.2.6.1 1 .2h.3c.2-.1.4 0 .6 0 .2 0 .4.1.6.1.2 0 .3 0 .2-.3-.4.3-.7-.1-1.1 0-.2-.3-.5-.2-.7-.2-.3.1-.6 0-1 .1zM32 20.4c0-.1 0-.1 0 0 0-.2 0-.3-.1-.3s-.1.1-.1.2v.2c-.2.4-.1.9-.1 1.3 0 .1.1.2.2.2s.1-.1.2-.1c0-.1.1-.2 0-.3-.1-.1-.1-.2-.1-.3v-.9zm-.8 2c.2-.7.2-1.5.2-2.3 0 0 0-.1-.1-.1s-.1.1-.1.1c-.1.5-.1.9-.1 1.4.1.3 0 .6.1.9zm3.5-2.2c-.1-.1-.2-.3-.3-.4-.2-.2-.3-.1-.5 0-.1.1-.3.2-.1.4.1.2.4.2.6.1.1-.1.2-.2.3-.1zm-2.4-.2c-.1 0-.2.1-.2.2v1.1c0 .1 0 .2.2.2.1 0 .1-.1.1-.2s-.1-.2 0-.3c.1-.1.2.1.3.1.1-.2-.1-.4-.1-.6 0-.1 0-.2-.1-.2s-.1.1-.1.2c.1.1.1.3 0 .4-.1-.3 0-.6-.1-.9zm-4.5 4.3h-.4c-.1 0-.2.1-.1.2.2.2.6.3.9.2.1-.1.2-.2.2-.3 0-.1-.2 0-.3-.1h-.3zm-14.7-1.2c-.1 0-.2-.1-.3.1 0 .2.1.1.2.1l.1.1c.2.1.4.2.6.4 0 0 .1.1.2 0s0-.1 0-.1c0-.2-.3-.2-.4-.4-.1-.2-.2-.3-.4-.2zm9.7 1.5c-.1-.1-.2-.1-.3-.1-.1 0-.3.1-.3-.2h-.1c-.2 0-.3 0-.3.2s.1.3.2.3c.2-.1.5 0 .8-.2zm6.3-.2c.4 0 .8.1 1.2-.2-.5-.1-.9-.1-1.2.2zm-18-6.3c-.1 0-.3 0-.2.2 0 .1.1.2.2.2s.3 0 .3-.2c-.1-.2-.2-.2-.3-.2zm23.8-.1c.2 0 .4 0 .4-.2s-.3 0-.4-.1c-.1 0-.3 0-.3.2s.2.1.3.1zm-24.3 2.2c-.1-.1-.2-.2-.3-.2-.1-.1-.2 0-.3.1-.1.1 0 .1 0 .2.1.1.2.2.2.1.1-.2.2-.1.4-.2zm0-1.4c.1 0 .3.1.3-.1 0-.1-.1-.1-.2-.1s-.3 0-.4.1c0 .1.2.1.3.1zm3.9 4.1c-.1 0-.2 0-.1.1s.2.2.3.2c.1 0 .1-.1.1-.1-.1-.1-.2-.1-.3-.2zm17.2-.9c0-.1 0-.2-.1-.2-.2 0-.1.2-.1.3-.1.1 0 .1.1.1.1-.1.1-.2.1-.2z"/><path d="M16.5 25.9c-.1-.3-.3-.3-.5-.5.2-.1.4 0 .5.1.1.1.2.1.4.1.2-.1.4 0 .6.1.2.1.3.1.5 0 .6-.2 1.2-.2 1.8-.3h.1c-.1-.2-.6-.2-1.2-.2.2-.3.7-.4 1-.2.2.1.5.1.7 0 .2-.1.5 0 .7-.1 0 0 .1 0 .1.1s0 .1-.1.1-.4 0-.3.2c0 .2.2.1.4.1.3 0 .6 0 .7.3.1.1.2.3.4.3.3.1.4.4.7.6-.1 0-.1.1-.1 0-.4-.2-.8-.5-1.1-.7-.1 0-.1-.1-.2-.1-.4 0-.8-.2-1.3-.1-.2 0-.3-.1-.5 0-.1.1-.1.1 0 .2.2.1.5.1.7.1.1 0 .2 0 .4.1-.4 0-.7.2-1.1 0-.1-.1-.3-.1-.4 0-.1.1.1.2 0 .3 0 0 .1.1 0 .2-.1 0-.2 0-.2-.1-.1-.2-.3-.4.1-.4.1 0 .3-.1.2-.3 0-.1-.2-.1-.3-.1-.3 0-.5.2-.8.1-.1 0-.2.1-.2.2s.1.1.1.1c.1.1.2.3.2.5 0 .1-.4.2-.6.1.1-.1.2-.1.3-.1.2 0 .2-.1.1-.2-.2-.3-.5-.4-.8-.4-.3 0-.6 0-.8-.1h-.2zM32.4 26.5c.5.2 1 0 1.4-.2.2-.1.5-.1.8 0 .2.1.5.2.7.4.2.1.5.1.7 0 .1 0 .2-.1.2 0s-.1.1-.2.1c-.2 0-.4 0-.7.1-.4-.1-.6-.4-.9-.5-.2-.1-.4-.1-.6 0-.4.1-.8.4-1.3.3-.1 0-.2 0-.3.1-.1.2-.3.2-.5.2h-.1c-.1 0-.3 0-.3.1 0 .2.1.3.3.3.1 0 .2.1.2.1.2.3.5.4.8.5.1 0 .2.1.1.2-.1.2-.2 0-.2 0-.5-.2-1-.1-1.5 0-.1 0-.1.1-.2 0 0-.1.1-.2.2-.2.4.1.4-.3.6-.4 0 0 .1-.1 0-.2-.4-.1-.7-.5-1.2-.5-.3 0-.6-.2-1-.2.1-.2.2-.1.3-.1 0 0 .1 0 .1-.1l-.1-.1c-.2-.1-.3-.1-.5-.2-.1 0-.1 0-.2.1s0 .2 0 .4c-.3-.1-.5-.2-.8-.1 0-.2.2-.2.3-.2.1 0 .2-.1.2-.2 0-.2-.1-.1-.2-.1-.3-.1-.5.1-.7 0 .1-.2.3-.3.5-.3.6 0 1.2.3 1.7.7.2.2.5.1.7.3.1 0 .2 0 .2-.1.2-.2.4-.3.7-.2.6.3.8.3.8 0zM10.6 24.8c-.2-.1-.4 0-.7-.2.3 0 .4-.3.7-.3.1 0 .1-.1.1-.1.2-.4.6-.4.9-.1.5.3 1 .6 1.6.4h.2s.1 0 .1.1-.1.1-.1.1c-.1 0-.4-.1-.4.1s.3.1.4.1c.1.1.2 0 .4 0 .1 0 .2 0 .2-.2 0-.1.1-.2.2-.2s.2.1.2.2.1.1.2.2c.2 0 .3.2.6.1-.1.2-.2.3-.3.4 0 .1-.2.2-.3.1-.4-.3-.8-.3-1.2-.4-.1 0-.4-.1-.5.1-.1.1-.2.1-.2.1-.1 0-.1-.1-.1-.2-.1-.2-.1-.5-.4-.5 0 0-.1 0-.1-.1s-.1-.2-.2-.2c-.3 0-.7-.2-1 0-.1 0-.1.1-.1.1 0 .1.1.1.2.2.1 0 .2 0 .2.1.1 0 .2 0 .2.1 0 .3.4.3.5.5 0 0 .1.1 0 .1h-.1c-.3-.1-.7-.1-1-.2-.1 0-.2-.1-.2-.2-.1-.1-.1-.2 0-.2zM26.7 27.5c-.3 0-.7-.1-1.1 0-.1 0-.3 0-.3-.1-.2-.2-.3-.1-.5-.1-.3.1-.7.2-1 .3-.2.1-.4.1-.5-.1-.1-.1-.3-.1-.4-.1-.3 0-.5 0-.7.3-.1.2-.5.1-.7.1-.1 0-.1-.1 0-.2 0-.1.1-.1.2-.1.3.3.5 0 .6-.2.2-.3.5-.2.8-.2h.1c.1.2.1.2.4.2.4 0 .7-.2 1-.3.3-.1.7 0 1 .1.5.2 1 0 1.3-.4.1-.2.4-.3.6-.4h.1c0 .1 0 .1-.1.1-.4.1-.6.5-.9.7-.1 0-.2.1-.1.2 0 .1.1.1.2.1.2 0 .5-.1.7-.1.1 0 .3-.1.4-.2.1-.1.2-.1.3 0 .1.1-.1.2-.2.2-.5.1-.8.2-1.2.2zM33.1 24c-.1-.5.2-.6.4-.8.1 0 .2 0 .2-.1s-.1-.2-.2-.2h-.6c-.1 0-.2.1-.2-.1 0-.1 0-.2.1-.2.4 0 .8-.1 1.2.1.2.1.4.1.5-.1.2-.2.3-.5.4-.7.1-.2.4-.3.6-.4.2-.1.3-.1.5-.1.1 0 .2.1.1.1-.2 0-.2.4-.5.3-.2 0-.4 0-.6.2-.1.1-.2.2-.1.3.1.1.2.1.3 0 .2-.1.4-.1.7-.2h.2c0 .1-.1.1-.1.1-.2.1-.3.2-.5.2-.4 0-.7.2-.9.5 0 .1-.1.1-.1.1-.3-.2-.4 0-.6.1-.2.1-.4.2-.5.3-.2.1-.1.4-.3.6z"/><path d="M32.3 25c.1-.4.5-.6.6-1 .1.2 0 .3-.1.4 0 .1-.1.2 0 .2.1.1.2 0 .3 0 .3 0 .5-.2.7-.3.4-.2.8-.3 1.3-.3.3 0 .6 0 .9-.1.1 0 .2-.1.4 0-.3.2-.6.4-1 .4s-.7 0-1.1.1c-.5.1-.9.3-1.4.5-.2.1-.4 0-.6.1zM13.8 26.4c0-.1-.2-.2-.1-.3.1-.1.1 0 .2.1.2.1.4.2.7.1.4 0 .4 0 .5.4 0 .2.2.1.3.2.1 0 .2 0 .2.1s-.1.1-.2.1c-.2 0-.4-.1-.6-.1-.4-.2-.8-.2-1.2-.2-.2 0-.4-.1-.7-.1-.1 0-.2 0-.3.2 0 .1-.1.2-.2 0-.1-.1 0-.2.1-.2.1-.1.3-.2.4-.2.3 0 .6-.1.9-.1zM15.4 28.9c0-.2.1-.2.2-.2.4 0 .7-.1 1-.3 0 0 .1 0 .1-.1.1-.1.3 0 .3-.1s-.2-.1-.3-.1c0 0-.1 0-.1-.1s0-.1.1-.1.2 0 .3.1c.1.2.3.2.4 0 0-.1 0-.1.1-.1h.5c.1 0 .1 0 .2.1 0 .1 0 .1-.1.2-.1 0-.1.1-.2.1-.5-.1-.9.3-1.3.4-.3.2-.7.1-1.2.2zM8.2 25c.5.2.9.2 1.4.2.3 0 .5.1.8.4.2.2.5.3.9.4.1 0 .2-.1.2.1 0 .1-.1.1-.2.2s-.1.1-.2 0c-.2-.3-.5-.3-.8-.5-.5-.4-1.1-.4-1.7-.4-.2-.1-.3-.2-.4-.4zM8.7 23c0-.2.1-.2.2-.2s.3 0 .2-.2c0-.1 0-.1.1-.1s.2 0 .2.1.1.1 0 .2c-.3.1-.3.4-.3.6 0 .1-.1.1-.2.1 0-.2-.2-.3-.2-.5zM20.7 27.5c.4-.1.5-.3.7-.6.1-.2.4-.1.6-.1.1 0 .1.1.1.2s-.1.1-.2.1c-.3 0-.6.1-.9.3 0 .1-.1.2-.3.1zM35.7 25.7h-.2c0-.3-.2-.3-.5-.3-.1 0-.1 0-.1-.1s.1-.1.1-.1c.3-.1.6.1.9.2.1 0 .2.1.1.2 0 .1-.2.1-.3.1zM7.6 22.2c-.3 0-.5.1-.8 0-.1 0-.2 0-.2-.1s.1-.1.2-.1c.2 0 .4 0 .6-.1h.2c.1.1.3.1.3.3-.1.1-.3-.1-.3 0zM35.4 21.1H34.8c0-.1.1-.1.1-.1.2-.1.5-.1.7-.2.1-.1.2-.1.3 0 .1 0 .1.1.1.2s-.1.1-.1.1c-.1 0-.3.1-.5 0zM27.9 31.5c.3-.3.2-.6.6-.7.3-.1.5-.3.7-.4.2-.1.3-.1.5-.2h.1s0 .1-.1.1c-.5 0-.7.5-1.2.6-.1 0-.2.2-.3.3 0 .2-.1.3-.3.3zM16.5 25.9c-.1.3-.6.4-.8.1-.1-.1-.3-.3-.1-.5 0-.1 0-.1.1-.1s.1.1 0 .1c-.2.2.1.3.2.4.1.1.2.1.3 0 .1-.1.2 0 .3 0zM26.1 29.1c-.3 0-.5.3-.8.2-.1-.1-.3.1-.3.2 0 .3-.2.1-.3.1-.1 0-.2-.1-.2-.2 0-.2.1-.2.2-.2.6 0 1 0 1.4-.1zM32.5 26.5c-.3-.2-.7-.2-1.1-.2.2-.2.4-.1.6-.1.2 0 .3 0 .5-.1.1-.1.3-.2.4-.1-.2.1-.7.1-.4.5-.1 0 0 0 0 0zM7.3 20.9c.3 0 .6.1.8.1.1 0 .2.1.2.2s-.1.1-.2.1c-.3 0-.5-.3-.8-.4zM13.1 28.2c-.4-.1-.7-.1-1.1-.3l-.1-.1c0-.1.1-.1.1 0 .5.1.8.1 1.1.4zM31.9 24.7s.1 0 0 0l.1.1-.6.3c-.1 0-.2 0-.2-.1s0-.1.1-.2c.2-.1.4-.1.6-.1zM16.6 30.9c-.4 0-.9.1-1.3.1.2-.3.9-.4 1.3-.1zM28.5 26.9l-.1.1c-.2-.1-.5-.1-.7-.1-.1 0-.2-.1-.2-.2s.2-.1.3-.1c.2.1.4.2.7.3zM32.6 22.4c0 .1 0 .1.1.2 0 .1 0 .3-.1.3s-.3-.1-.3-.2 0-.3.2-.2c0-.1 0-.1.1-.1zM8.4 26.8c.5 0 .8.4 1.2.4-.5.2-.8-.2-1.2-.4zM21.9 28.6c-.3.2-.6.3-.9.3-.1 0-.2 0-.2-.1s.1-.1.1-.1c.4 0 .7 0 1-.1zM19 28.2c.2-.1.4-.1.5.1 0 .1.1.2 0 .2-.3.2-.4 0-.5-.3zM9.5 26.6c0 .1-.1.1-.1.1-.1 0-.3-.1-.3-.2s0-.3.1-.3c.3-.1.1.2.3.4zM13.2 28.2c.2 0 .4.1.6.1.1 0 .2 0 .2.2 0 .1-.2.1-.3.1-.1 0-.1-.1-.2-.2s-.1-.2-.3-.2zM6.8 22.8c0 .1-.1.1-.1.1-.2-.1-.3-.1-.5-.1-.1 0-.1-.1-.1-.1.1-.1.1-.1.2 0 .2-.1.4-.1.5.1zM18.6 26.9c.3-.2.6-.2.9-.1l.1.1c0 .1-.1.1-.1.1-.3-.1-.6-.1-.9-.1zM16.5 26.5c0-.1.1-.1.2-.1s.3 0 .4.2c0 .1-.1.1-.2.1-.3 0-.4 0-.4-.2zM11.8 27.9c-.3 0-.4-.1-.6-.1 0 0-.1-.1 0-.1 0-.1.1-.1.2-.1s.2.1.4.3zM17.7 29.7c.2-.1.2-.2.4-.2.1 0 .2 0 .2.1s-.1.2-.1.2c-.2 0-.3 0-.5-.1zM25.8 25.9c.2.1.3.2.5.3-.1.1-.2.1-.3.2-.1-.2-.1-.3-.2-.5zM28 29.8c.2 0 .3 0 .5-.1-.1.2-.1.4-.3.4-.2 0-.2-.2-.2-.3zM13.4 25.6c.2 0 .4.1.5.1v.1c0 .1-.1.1-.1 0-.1 0-.3 0-.4-.2zM35.5 27c-.1.1.1.2-.1.3-.1 0-.1 0-.2-.1 0-.1-.1-.1 0-.2h.3zM14.3 30.8c.3 0 .4.1.6.1-.1.1-.3.1-.6-.1zM21.4 21.2c.8-.2 1.6 0 2.5-.1.2 0 .5 0 .8.1.2.1.3.2.2.4-.1.2-.1.4-.1.6 0 .3-.1.3-.4.4-.9.1-1.7-.1-2.6-.1-.2 0-.3.1-.5.1-.4-.1-.4-.1-.5-.5-.1-.3.2-.6.1-.9 0-.1.1-.1.2-.1 0 .1.1.1.3.1zM28.3 22.4c-.2 0-.3-.1-.5 0-.3 0-.3-.1-.3-.4 0-.2.1-.5.1-.7 0-.1.1-.2.2-.2H29.7c.1 0 .1 0 .1.1s0 .1-.1.2c-.2.1-.3.2-.2.5.1.3-.1.5-.4.5-.4 0-.6.1-.8 0zM17.2 21c.3 0 .5.1.8 0 .2 0 .3.2.3.4v.6c.1.2-.2.4-.4.4-.3 0-.5-.1-.8-.2-.1 0-.2-.1-.3 0-.2 0-.2 0-.2-.2 0-.3.1-.5.1-.8 0-.4.3-.2.5-.2zM20.6 18.9c.3.3.8 0 1.2.2h.3c.1-.1.2-.1.4-.1.6.1 1.2.1 1.8 0 .3-.1.7 0 1.1 0 .7-.1 1.5 0 2.2 0 .1 0 .2 0 .2.1s0 .1-.1.1-.1.2-.2 0c-.1-.1-.3-.1-.4 0-.2.1-.4.1-.6 0-.1 0-.2-.1-.3 0-.4.2-.8 0-1.2.1h-.9c-.4 0-.7 0-1.1-.1-.2 0-.4-.1-.5 0-.2.1-.4.1-.6.1-.5 0-.9-.1-1.4-.1-.1 0-.2 0-.2-.1 0-.2.2-.1.3-.2zM19.5 19.3c-.6.2-1.2-.1-1.8 0h-.3c-.3-.3-.6-.2-.9-.2H16c-.1 0-.1 0-.1-.1s.1-.1.1-.1c.2 0 .3-.1.5 0 .1.1.3 0 .4-.1.1-.2.3-.2.5-.1s.5.1.7.1c.6 0 1.1.2 1.7.1.1 0 .2 0 .2.2-.1.2-.3.2-.5.2zM29 19.3c-.3.1-.5-.1-.7-.1 0 0-.1 0-.1-.1s0-.1.1-.1h.8c.1 0 .2.1.2.2-.1.2-.2.1-.3.1z"/><path fill="none" d="M4.5 4.5h36v9h-36z"/><path fill="#010101" d="M11.6 12.1V6.8h-.9v-1c.5 0 1.1-.3 1.4-.6h1v7h-1.5z"/><path fill="#ED2224" d="M16.9 6.9v2h2V10h-2v2.1h-1.1V10h-2V8.9h2v-2h1.1zM23.9 6.3h-2.8c0 .4-.1 1.2-.2 1.5.2-.2.6-.4 1.3-.4 1.4 0 2.1 1 2.1 2.3 0 1.5-.8 2.5-2.6 2.5-1.3 0-2.3-.6-2.4-2h1.4c.1.5.4.9 1 .9.8 0 1.1-.5 1.1-1.3 0-.7-.3-1.3-1.1-1.3-.6 0-.9.3-1.1.7L19.4 9c.2-.8.5-3 .6-3.8h4l-.1 1.1z"/><path fill="#010101" d="M27.8 6.9v2h2V10h-2v2.1h-1.1V10h-2V8.9h2v-2h1.1zM34.4 5.2v1.1c-1.2 1.6-2.1 3.8-2.5 5.9h-1.5c.4-2.4 1.6-4.7 2.6-5.9h-3.2V5.2h4.6z"/><g fill="#ED2224"><path d="m15.7 36 6.8 4.5 6.7-4.5zM18 33.7h9v2.2h-9z"/></g></svg>