<svg version="1.2" baseProfile="tiny" xmlns="http://www.w3.org/2000/svg" viewBox="0 0 45 45" overflow="visible" xml:space="preserve"><path fill="#76A4B2" d="M-229.5-49.5h279v99h-279z"/><path fill="none" stroke="#FFF" stroke-width=".1" stroke-miterlimit="10" d="M-45 0H0v45h-45zM0 0h45v45H0z"/><path fill="#ED1C24" stroke="#FFF" stroke-width=".1" stroke-miterlimit="10" d="M17.2 22.8c0-.1-.1-.3.1-.2h.1v-.1c-.1-.2-.1-.2 0-.5.1.4.2.7.3 1.1.1-.1.1-.3 0-.4 0-.1 0-.2.2-.1.3.1.6.4.4.8v.3-.1c0-.1 0-.2.1-.1.1 0 .1.1.1.2 0 .2.1.3.2.4.1.1.2.1.2 0s.1-.3 0-.4c-.1-.2-.1-.3-.1-.5 0-.1.1-.4-.2-.4V22c.2 0 .2-.2.3-.3 0-.1.1-.1.2-.1s.1.1.1.2c0 .2.1.3.3.2.2 0 .2.1.2.2 0 .2 0 .4-.1.6 0 0-.1.2.1.3.1 0 .1.1.1.2v.3c0 .1 0 .2.2.2.1 0 .1.1.1.1 0 .3.1.7 0 1-.1 0-.1 0-.1-.1-.1-.1-.2-.1-.2.1s-.1.4 0 .6c.1-.1.3 0 .3-.3.1 0 .1.1.1.2s.1.1.1.1c.1-.1.3-.1.5-.1.1 0 .1 0 0-.1 0-.1 0-.3.1-.3.2 0 .4-.1.4.2 0-.2.1-.3 0-.5-.1-.1-.1-.3 0-.5.1-.1 0-.3.1-.5 0-.1-.1-.1-.1 0-.1.1-.2 0-.2-.1v-.2c0-.1 0-.2-.1-.2s0 .1-.1.2c-.1-.1 0-.2-.1-.3 0-.1 0-.2-.1-.2s-.1.1-.2.2c-.1.3.1.6.4.6.2 0 .2.2.2.3 0 .2 0 .3-.1.5V24c0-.1 0-.2-.1-.1-.1 0-.1.1-.1.1v.2c0 .1.1.2 0 .2s-.3-.1-.3-.2c-.2-.3-.3-.7-.3-1.1 0-.2-.1-.4.1-.5v-.1c-.1.1-.1.2-.2.3 0 .1-.1.1-.1.1-.1 0 0-.1 0-.1.1-.2.1-.4-.1-.6l-.1-.1c.1-.5-.1-1-.1-1.5 0-.2-.2-.4-.4-.4 0 0-.1 0-.1-.1s0-.1.1-.1c.2 0 .2-.1 0-.1 0 0 0-.1-.1-.1 0-.2-.2-.4-.4-.6 0 0-.1-.1 0-.1h.1s.1.2.2.1 0-.1 0-.2v-.4c.1 0 .1.1.1.1.1-.3 0-.5-.2-.6v-.6c0-.3 0-.5-.3-.7v-.1c.1-.2.1-.5.1-.7 0 0 .1 0 .1-.1h-.2c-.1 0-.2 0-.2-.1 0-.3-.1-.6.1-.9 0-.1 0-.1-.1-.2-.2-.2-.1-.4-.2-.6 0 0 0-.1.1-.1s.1.1.1.1c.2.4.2.8.3 1.2v.1c.3.2.2.6.2.9 0 .2 0 .3.1.5 0 0 0 .1.1.1.2 0 .1.1.1.2 0 .2-.1.1-.2.1 0 .3.1.3.4.2 0 .2.1.4.1.6 0 0 0 .1.1.1l.1-.1v-.5s-.1-.1 0-.1.1 0 .1.1c.1.2.2.4.1.7 0 .1 0 .1.1.2 0-.1 0-.2.1-.2s0 .1 0 .2v.4c-.1 0-.1-.1-.2-.1 0 .4 0 .8.1 1.2v.1c-.1.3 0 .5 0 .8 0 .1 0 .3.2.3s.4 0 .4-.2.1-.3-.1-.5c-.1-.1-.1-.1 0-.2.1 0 .2 0 .2.1 0 .2.1.4 0 .7-.1.1-.1.3-.1.4 0 .1 0 .2.1.2s.1 0 .1-.1.1-.1.2-.1.1.2.1.3c0 .1-.1.1-.1.1s-.2-.1-.2 0c-.1.1-.2.2-.2.4 0 .4 0 .4.4.5.1 0 .1 0 .1.1s0 .1-.1.1c0 0-.1 0-.1.1s.1 0 .1 0c.1 0 .1 0 .1.1s0 .3.1.4c0 .1.1.2.2.3.1-.1 0-.2 0-.3 0-.1 0-.2.1-.2s.1 0 .2.1.1.2.2.3c0 0 0 .1.1.1s.1-.1.1-.1v-.9c0-.3-.2-.5-.1-.8-.1.1 0 .1 0 .2v.1H22c-.1 0 0-.1 0-.1.1-.1.1-.3.1-.4 0-.1 0-.3-.2-.3-.1 0-.1-.1-.1-.1s0-.1.1-.1.1 0 .1.1l.1.1c.1 0 .1-.1.1-.2v-.1c.2.1 0 .3.1.4 0 0 0 .1.1.1s.1 0 .2-.1c0-.1.1-.2.2-.2h.1c0-.2.1-.4.2-.5 0-.1 0-.1.1-.2.2-.1.2-.1.3.1.1-.3.1-.5 0-.7-.1-.4-.1-.7.1-1V19c0-.2.1-.3.3-.4.1 0 .1-.1.2-.2.1 0 0 .1 0 .1-.1.2 0 .5 0 .7 0 .2.1.4-.2.4-.1 0-.1.2-.1.3 0 .4-.1.8 0 1.1 0 .1 0 .1-.1.2.1 0 .1-.1.2-.1s.1-.1.2 0c0 .1.1.2-.1.2-.1 0 0 .1 0 .1 0 .1.1.2 0 .2 0 .2 0 .4-.3.4-.1 0-.1.2-.3.1 0 0-.1 0-.1.1 0 .2 0 .4.1.7 0 0 0 .1.1.1s.1.1.1.2c-.2.5-.3.9-.3 1.4 0 .2.1.4 0 .6 0 .1 0 .2-.1.3v.1s.1.1 0 .1c-.3.2-.2.6-.2.9v2.5c0 .3-.1.4-.2.5.1-.4 0-.9 0-1.3 0 .2-.1.5-.2.7-.3.4-.1.9-.2 1.3v.2c0 .1-.1.1-.1.1-.1 0 0-.1 0-.1.1-.5.1-.9 0-1.4 0-.2-.1-.3-.1-.5s0-.3-.1-.5c-.1-.1-.1-.2.1-.2.1 0 .1-.1.1-.1.1-.2 0-.4 0-.7-.1.2-.3.4-.2.6v.1H22c0-.1-.1-.1-.1-.2-.2.4-.1.9-.2 1.3-.1-.1-.1-.2-.1-.2 0-.2-.2-.3-.2-.5h-.1c-.1.1-.1 0-.2-.1 0-.1 0-.2-.1-.3-.1-.1-.1-.3 0-.4 0-.1 0-.3-.1-.4-.1-.1 0-.2 0-.2.1-.2.2-.3-.1-.4l-.1-.1c0-.1 0-.1-.1-.1s-.2-.2-.3-.3c0 .3-.1.5 0 .7.1.3 0 .5.1.8 0 .1 0 .1.1.1.2 0 .4.4.4.6v1.2c.2.1.2.2.2.4 0 .3.1.5.1.8 0 .1-.1.3 0 .5 0 .1 0 .1-.1.1s-.1 0-.2-.1v-.5c-.2.1-.2-.1-.2-.2 0 0 0-.1-.1-.1-.3-.1-.3-.4-.3-.6v-.1c-.2 0-.2-.1-.2-.2s0-.2-.1-.2c-.2 0-.2-.2-.2-.3 0-.3-.2-.5-.2-.7 0 0 0-.1-.1-.1s-.1.1-.1.1c0 .3.1.6.2.9 0 .1.1.1.1.1.1 0 .2.1.2.2s0 .2.1.2.1.1.1.2c.1.1.1.3.1.4v.2c-.1.1-.1 0-.2 0-.2-.2-.4-.4-.3-.7v-.1c-.2 0-.2-.2-.3-.4-.1-.1-.1-.2-.2-.3-.2-.1-.2-.3-.3-.5v-.1c.2-.2 0-.2-.1-.3h-.1c-.2.2-.2.6 0 .8.1.1 0 .2 0 .3v.3h.1l.1-.1c.1 0 0 .1 0 .2 0 .2 0 .4.1.5.1.1.1.2 0 .3-.1.1-.1.1-.1.2s0 .2-.1.2-.1-.1-.2-.1c0 0 0-.1-.1-.1s-.2-.1-.2-.1c-.1 0 0 .1 0 .2v.2c0 .1-.1.1-.2.1s-.1-.1-.1-.1c-.1-.1-.1-.2 0-.4.1-.3.1-.6.2-.9 0-.1 0-.2-.1-.2-.1-.4-.5-.4-.7-.7v-.2c0-.1.1-.3-.1-.4-.1 0 0-.2.1-.2.1-.1.1-.2-.1-.3-.1.1.1.2 0 .2s-.2-.1-.3-.2c-.1-.1-.2-.1-.3-.1-.1 0 0 .2-.1.3v.1c.2 0 .2.2.3.2.1 0 .1.4.1.4h-.1l-.2-.2c-.1-.2-.3-.3-.4-.5 0-.1-.1-.1-.2 0-.3.2-.6.3-.6.8v.2c.1 0 .1 0 .1-.1.1-.1.3 0 .3.1 0 .2.1.4.2.6.1-.1 0-.2 0-.4 0-.1-.1-.2 0-.3.1 0 .1.1.2.2.1 0 0-.1 0-.1 0-.1 0-.2.1-.2s.1.1.1.2v.3c0 .1 0 .3.2.3l.1.1s.1.2.2.1.1-.1 0-.2c-.1-.2-.1-.4-.2-.5.4.1.5.4.5.7 0 .1 0 .1.1.2.1 0 .1.1.1.2s0 .2.2.3c.1 0 .1.2 0 .3-.1.1-.2.1-.3 0-.1-.1-.1-.2-.2-.3 0 0 0-.1-.1-.1s-.2.1-.1.2v.1c0 .1.1.2 0 .3-.1.1-.1-.1-.2-.2s-.3-.1-.4-.3c0 .1-.1.1 0 .2s0 .2 0 .3c0 .1 0 .3.2.3.1 0 .1.1.1.2 0 .2.2.2.3.2.2 0 .1-.1.2-.2 0-.1 0-.2.1-.2s.1.1.1.2c0 .2.2.3.1.5.3 0 .1.3.2.4 0 0 .1.1.1.2s0 .2-.1.1c-.2-.1-.2 0-.2.1 0 .2 0 .3-.1.5 0 .1.1.1.1.3 0-.1.1-.2.1-.2s.1-.1.2 0c.1 0 0 .1 0 .1-.1.1 0 .2 0 .4v.1c0 .1 0 .3-.1.3.3-.8.3-.9.3-1 0-.1-.1-.2-.2-.3-.1 0 0 .2-.2.3-.1-.1 0-.3 0-.4 0-.1 0-.2-.2-.2-.1 0-.2 0-.2-.2v-.5c-.1.1 0 .3-.3.3-.1 0 0 .2-.1.3-.1 0 0-.1-.1-.2-.1.2 0 .3.1.3.3.1.5.3.5.6 0 0 0 .1.1.1v-.1c0-.1.1-.1.1 0 .1.2.2.3.3.5.2-.1.4 0 .4.2s.1.5.1.7c0 .2.1.2.2.3.1.1.1.2 0 .3-.1.1-.1.2-.2.3 0 .1-.1.1-.2.1s-.1-.1-.1-.2 0-.2-.1-.3c-.1.1-.2.2-.3 0-.3.1-.1-.2-.3-.2.1.2-.1.3 0 .5 0 .1 0 0-.1.1-.2.1-.2.3-.1.4 0 .1.1.1.1.2 0 0 0 .1-.1.1s-.1-.1-.1-.2c0-.2-.1-.3-.4-.3-.1 0-.1-.1-.1-.1-.1-.1-.1-.3-.3-.1-.1.1-.1 0-.1-.1H16v.1s.1.1 0 .1c0 .1 0 .2-.1.2s-.1-.1-.1-.2c-.1-.1 0-.3-.1-.3s0 .2 0 .3c0 .2.1.3.1.5 0 .1-.1.2-.1.1-.1-.2-.3-.1-.4-.2-.1 0-.2-.1-.2-.2v-.3c0-.1 0-.1-.1-.1s-.1-.1-.1-.1c0-.1.1-.1.2-.1h.1c.1.1.2-.1.3-.1v-.4c-.1-.1 0-.1 0-.2.1-.2.3-.3.3-.6 0-.1 0-.1-.1-.2-.1 0-.3-.1-.3-.3 0-.1-.1-.1-.1-.2s-.1-.1 0-.2c0-.1.1-.1.1 0 .1.1.1 0 .2-.1 0-.2-.1-.3-.3-.4-.2-.1-.3-.2-.3-.4v-.2s0-.1-.1-.2c0 .3-.2.5-.2.8 0 .1.1.2.2.2.2 0 .2.1.2.2s0 .2-.1.2-.2-.1-.2-.1v-.1s0-.1-.1-.1v.1c0 .1.1.2 0 .2s-.2 0-.2-.1c-.5.2-.5.1-.5-.1-.2.2-.3.3-.3.6 0 .1 0 .1-.1.1s-.1-.1-.1-.1v-.3c0-.1 0-.2-.1-.2s-.1.1-.1.1c0 .1-.1.2-.2.2s-.1-.2-.1-.3c0-.2.1-.4 0-.5V32c.1 0 .1 0 .1.1v.2c0 .1 0 .2.1.1s.1.2.2.1c-.1-.2 0-.4.2-.4.1 0 .1 0 .1.1s.1.2.2.1h.1v.1c0 .1-.1.2 0 .3h.1c.1-.1.1-.2 0-.3-.1-.3-.1-.5-.1-.8v-.3c0-.1-.1-.2.1-.2.1 0 0 .1 0 .1 0 .1 0 .2.1.3.1-.2 0-.5 0-.7v-.1c0-.1 0-.2.1-.2s.2.1.2.2-.1.3 0 .4c.1.2.1.3.2.5.1.1.3.1.4.1 0 0 .1-.1 0-.1v-.4c0-.1-.1-.1-.1 0-.3.1-.4-.1-.3-.4v-.5s0-.1-.1-.1c0-.1.1-.3-.2-.3-.2 0-.3-.2-.3-.4H14c-.1 0-.1.1-.2.1s0-.1 0-.2V29h-.2c-.1 0-.1.2-.2.1s0-.2 0-.2c0-.1 0-.2-.1-.3-.1-.1-.1-.2 0-.3.1-.1.2-.3.1-.5 0-.1 0-.1.1-.1s.1.1.1.1v.3c0 .2.1.1.2.1s.1-.1.1-.2V27.7c.1 0 .1 0 .2.1.3.1.5.3.7.5 0-.1.1-.1 0-.1-.1-.4-.1-.7 0-1.1v-.3h-.1c0 .1-.1.2-.1.3 0 .1.1.1.1.2s0 .2-.1.3c-.1 0-.1-.1-.1-.2s0-.1-.1-.1-.2 0-.3-.1c-.1-.1-.2-.1 0-.2.1-.1 0-.2 0-.4v-.2c0-.1 0-.2-.1-.2s-.1.1-.1.1c0 .1 0 .1-.1.1s-.1 0-.1-.1c-.1-.2-.3-.2-.4-.4 0-.1-.1-.1 0-.2h.1c.1.1.3.1.4 0 .1-.1.3 0 .3.2s.1.2.2.2c-.1-.1-.1-.3 0-.3s.2.2.2.3c0 .1.1.3.1.4.1.1.2.2.3.2.1 0 .3 0 .3.2 0-.2.1-.4.1-.5 0-.1 0-.2-.1-.2-.1-.1-.1-.2-.1-.3v-.1h-.2c-.2.1-.3.1-.3-.1 0-.1 0-.2-.2-.2-.1 0-.2-.1-.1-.2s0-.2 0-.3c0-.1-.1 0-.2 0s-.1.1-.1.2v.2s-.1 0-.1-.1-.1-.2-.2 0c-.1.3-.1.3-.4.1 0 0-.1-.1-.2-.1s-.1.1-.1.2c0 .2-.1.5 0 .7 0 .1 0 .2-.2.2-.1 0-.1-.1-.1-.1v-.2c0-.1 0-.2-.1-.1-.1 0-.1-.1-.2-.2.1-.1 0-.3.2-.5.1-.1.1-.1.1-.2V25c.2-.3 0-.6 0-.9 0-.2-.2-.2-.1-.4-.2.1-.2.1-.3-.1-.1.1-.2 0-.3-.1-.1-.2-.1-.5-.4-.5 0 0-.1 0-.1-.1s.1-.1.1 0c.3.1.2 0 .2-.2s.2-.3.4-.5c.1-.1.3.1.3.2s-.1.3.1.3c.1 0 0-.2 0-.2 0-.2.1-.4 0-.6 0-.1 0-.1.1-.2.1 0 .1 0 .1.1v.2c0 .1.1.2.2.1.1 0 .1-.1.2 0v.2c-.1.1-.1.2-.1.4-.1-.1-.1-.2-.2-.2s-.1.2-.1.3c0 .3.1.5.1.8v.4c.1 0 .1 0 .1-.1v-.4c.1-.1.1 0 .1.1.2.1.3.2.3.4 0 .1.1.1.2.1s.1-.1.2-.1c.1-.1.1-.3 0-.4 0 0-.1-.1 0-.1h.2l.1.1s.1.1.1 0V23.3c-.2-.2.1-.4 0-.5-.1-.2-.1-.4 0-.6v-.1c-.2 0-.2-.2-.3-.4 0 .2.1.3.1.4 0 .1 0 .2-.1.2.1-.3.1-.4.1-.4-.1-.3 0-.5 0-.8 0-.1 0-.2.1-.2s.2.1.2.2v.2c0 .1 0 .2.1.2s.2 0 .3-.2c0-.1 0-.2.1-.2s.1.1.1.2v.6c0-.1 0-.2.1-.3 0-.1.1-.1.2-.1s.1.1.1.2v.3c0 .1.1.1.1.1.1 0 0 0 0-.1s0-.2.1-.2.1.1.1.2 0 .2-.2.2-.1.2-.1.4c.1-.1.1-.3.3-.4.1 0 .1-.1.2-.1s.1.1.1.2v.3s0 .1.1.1c0 0 .1 0 .1-.1v-.1c0-.1.1-.1.1 0 .1 0 0 .1 0 .1-.1.5-.2 1-.1 1.5v.4c0 .1 0 .2.1.2.2.2.3.4.4.7.1.1.1.1.2 0 0-.1.1-.1.2-.1s.3 0 .3-.2c0-.1.1-.1.2 0v.2c0 .1 0 .2.2.2s.2.1.2.3v.3s0 .1.1.1.1 0 .1-.1c0-.3.1-.6-.1-.9-.1-.1-.1-.3-.3-.5-.1-.1-.2-.3-.4-.3-.1 0-.1-.1-.1-.1 0-.3-.1-.5-.1-.7 0-.1 0-.2-.2-.2s-.3-.1-.3-.3c0-.2-.2-.2-.1-.4 0-.1-.1-.2.1-.3.5.1.5.3.6.4zm-1.7.9c-.1.1-.1.2-.2.1s-.1 0-.1 0c0 .1-.1.2-.1.4 0 .1 0 .3.1.3.3 0 .3.2.2.4v.2c0 .2.1.3.2.5 0 .2.1.3.2.3l.3.2c.2 0 .2.1.2.2s-.1.3.1.4c0-.1 0-.2.1-.3 0-.1.1-.2.2 0 .1.1.2.1.2-.1.1-.2-.1-.6-.3-.6-.2 0-.2-.1-.2-.2s-.1-.2-.2-.2-.1 0-.1-.1 0-.3-.2-.2c-.1 0-.1-.1-.1-.2s0-.3-.1-.4c-.1-.2-.2-.4-.2-.7zm4.3-5.2c0 .1.1.2 0 .3-.1.3-.1.7 0 1 .1.3.1.5.2.8 0 .1 0 .1.1.1s0-.1 0-.1c0-.3-.1-.5-.1-.8 0-.2-.1-.5-.1-.7.1-.3 0-.5-.1-.6zm-1.6 16.1c-.1 0-.1-.1-.1-.2v-.2c0-.2-.1-.6-.2-.6-.3-.1-.4-.2-.4-.5 0 0 0-.1-.1 0 0 .1-.1.3 0 .4.1.1.1.2.1.3v.3c.3-.1.3-.1.4.2.1.1.1.2.1.3.1 0 .1.1.2 0zm-3.4-12.2c0 .2 0 .2-.2.2 0 0-.1.1 0 .1l.1.1V24c0 .1 0 .2.1.2.1-.1.1-.2.1-.3 0-.2.2-.4 0-.5v-.1c0-.1.1 0 .1 0h.1c0-.1 0-.1-.1-.1s-.1-.1-.1-.2-.1-.3-.1-.6zm5.6 6.2c0-.1.3-.2.1-.4v-.1c.1-.1.1-.2 0-.3 0 0-.1-.1 0-.1.1-.2 0-.3-.1-.4.1.4 0 .9 0 1.3zm2.7-7.4c-.1 0-.1 0-.1.1v.5c0 .1 0 .1.1.1s.1 0 .1-.1 0-.1.1-.2.1-.1 0-.1 0-.1-.1-.1c0-.2 0-.2-.1-.2zm-1.8 4.7v.2c0 .1.1.2.2.2s.1-.1.1-.2v-.2c0-.1-.1-.2-.2-.2s0 .2-.1.2zM32.1 32.8c.1.1.1.2-.1.2-.1 0-.1.1-.2.2 0 .1 0 .3-.2.2 0 0-.1 0-.1.1v.2c0 .1 0 .2-.1.2s-.3.1-.4-.1c0-.1-.1-.2-.3-.1-.1 0-.3 0-.3-.1-.1-.1-.1 0-.2 0s-.1.1-.1.2.1.2.1.3c0 .1 0 .2.1.2s.1.1.1.1c0 .1 0 .1-.1.1-.1-.1-.1 0-.2 0 0-.2 0-.3-.1-.4V34c-.2 0-.2-.2-.3-.4 0-.1-.1-.1-.2-.1l-.1.1c-.2.4-.2.4-.6.3-.1 0-.1.1-.1.1v.4c-.2-.1-.1-.3-.1-.4v-.1c-.2-.1-.1-.3-.2-.4 0-.1 0-.2-.2-.2-.1 0-.2 0-.2-.1v.2c0 .1 0 .2-.1.2s-.1-.1-.1-.2c0-.3-.1-.7-.1-1v-.1c.1-.3.1-.6.1-.9 0-.1 0-.2.1-.2s.3 0 .2.2v.3c0 .3.1.6.1.9.1-.1.2-.3.2-.5.1.1.1.3.1.4-.1.3.2.3.3.4.1.1.1-.1.2-.2 0-.1.1-.2.1-.2s0-.1.1-.1.1.1.1.1v.7c0 .1 0 .2.1.1.1 0 .1-.1.1-.2 0-.2-.1-.5.1-.7.1-.1.1-.3-.1-.4-.1-.1-.1-.2 0-.4 0-.1 0-.2-.1-.3-.1 0-.1.1-.1.2s-.1.1-.2.1c-.1-.1-.2 0-.2.1s0 .2-.1.3c-.2-.1-.3-.3-.5-.4v-.1c0-.3.2-.4.4-.5.3-.1.4-.3.4-.6 0-.1 0-.1-.1-.2 0 .1-.2 0-.2.1l-.1.1c-.1 0-.1.1-.2 0s0-.1.1-.2c.2-.1.1-.4.1-.5 0 0 0-.1-.1 0s-.3.1-.3.3c0 0 0 .1-.1.1-.2-.1-.2.1-.2.2v.1c0 .1 0 .2-.1.3 0 0-.1 0-.1-.1s-.2-.2-.1-.3c.2-.3.1-.5.1-.8 0 0-.1-.1-.1 0-.1.1-.3.2-.3.3 0 .1-.1.1-.2.1-.3 0-.5-.1-.8-.2-.2-.1-.2-.3-.3-.5-.1.1-.1.2-.1.3 0 .1 0 .2-.1.2s-.1-.1-.1-.2v-.4c0-.2-.1-.4 0-.6v-.2c-.2.2-.3.4-.3.6 0 .1 0 .2-.1.2s-.1-.1-.1-.2c-.1-.4 0-.7.1-1 0-.1.1-.2.2-.2 0 0 .1 0 0-.1-.2-.3-.1-.5 0-.8.1-.2.2-.3.2-.6s0-.6.1-.9c0-.2.2-.3.3-.5 0 0 .1-.1.1 0v.1c0 .2-.1.4 0 .6 0 .3 0 .6.1.9v.2c-.2.2-.1.3 0 .5.3-.2.3-.4.3-.7v-.1c0-.1 0-.1.1-.2 0 0 .1 0 .1.1s.1.1 0 .2-.1.2-.1.2c0 .1-.1.2 0 .2.1.1.2 0 .3 0 .1 0 0-.1 0-.1 0-.1-.1-.3.2-.3-.1-.2-.1-.3.1-.3.1 0 .2-.1.2-.3 0-.3.2-.5.1-.8 0-.2-.1-.4 0-.6.1-.4.1-.8.5-1 .2-.1.2-.5.2-.7 0-.1 0-.2.1-.3.1-.1.1-.2.1-.3.1-.2 0-.5 0-.7 0-.1 0-.1-.1-.1s0 .1-.1.1c0 .1 0 .2-.1.3-.1-.1-.1-.3 0-.4 0-.1-.1-.3.1-.4v-.4c0-.1-.1-.2-.2-.3-.1 0-.2.1-.2.2 0 0 0 .1-.1.1-.1-.3.1-.6.3-.7.1 0 .1 0 .1.1.2.3.4.6.3 1-.1.2.2.3.2.5 0 .1.1.1.1.2.1-.1.2-.2.2-.3 0-.1 0-.2.1-.2 0-.1.1-.1.2-.1.1.1 0 .1 0 .2-.1.2 0 .4 0 .6 0 0 0 .1.1.1s.1 0 .2-.1c.1-.2.3-.4.2-.7 0-.1 0-.2.1-.1.1 0 .3 0 .2-.2 0-.1 0-.1.1-.1.2 0 .2-.1.2-.3v-.2c0-.1.1-.1.2-.1s.1.1 0 .2-.1.2-.1.3c0 .2 0 .3-.2.4v.1c.1.2 0 .4.2.6.1.1 0 .2 0 .3 0 .1-.1 0-.1 0 0-.1-.1-.2-.1-.3 0-.1-.1-.2-.2-.3-.1 0-.2-.1-.2.1s-.1.4-.2.6c-.1.2 0 .3-.1.5 0 .1.1.2.2.2s.3-.1.3-.3v-.1c0-.1.1-.1.2-.1s0 .1 0 .2c-.1.3 0 .6-.3.8v.2c0 .1-.4.5-.5.5h-.1c0-.1 0-.1.1-.1.1-.1.2-.1.2-.3 0-.1.1-.2.2-.3l.1-.1s-.1-.1-.2 0c-.2.1-.3.1-.4-.2 0-.1 0-.1-.1-.2s-.1-.1-.2 0c-.1.3-.3.5-.3.9-.2.1-.1.3-.2.4-.1.2-.1.4-.1.6 0 .1 0 .2-.1.3.2-.1.4-.1.6-.3.1.1.1.1 0 .2s-.2.2-.1.4c0 0 0 .1-.1.1-.3-.1-.2.2-.2.2.1.2-.1.3-.2.4-.1.1-.1.2-.1.3 0 .2 0 .3-.2.4-.1 0-.1.1 0 .2.1 0 .1.1.1.2s-.1 0-.2 0c-.2-.1-.1.2-.2.2 0 .1.1.3-.2.2-.3.2-.4.2-.5-.1-.2.3-.2.3-.3 0-.1.1-.1.1 0 .2 0 .1.1.2-.1.1.1.1 0 .3.1.4.2.2.1.3.1.5-.1 0-.1-.2-.2-.1-.1 0-.1.1-.1.2v.2c0 .1 0 .2.1.2s.2 0 .2-.1c.1-.2.2-.3.3-.5 0-.1 0-.1.1-.1.2 0 .3-.1.4-.2.1-.1.2-.1.3-.1.1.1.2 0 .2-.1v-.1c0-.1.1-.1.1-.1.1 0 .1.1.1.1 0 .1 0 .2-.1.3 0 .1 0 .1.1.2.1 0 .1 0 .1-.1 0-.3.1-.2.2-.1s.2.1 0 .1c0 0-.1 0-.1.1s0 .2.1.3c.2.2.2.2.1.5-.3-.1-.3-.1-.4.6.1-.1.3-.1.3-.3 0-.1.1-.1.2-.2.2-.1.3-.2.2-.4 0-.2 0-.4-.2-.5-.1 0-.1-.2-.1-.2v-.4c0-.1 0-.3.2-.2h.1c0-.1 0-.2-.1-.3 0 0-.1-.1-.1 0 0 0-.1.1-.2.1 0-.3 0-.5-.1-.8 0-.1 0-.2.1-.3.1 0 .3 0 .3.1.1.1.2.2.1.4s-.1.4.1.5l.1.1c0 .1 0 .2.1.3.1 0 .1.1.1.2v.3c0 .1.1.2-.1.3-.1 0-.1.7 0 .7h.1c.1-.1.3-.3.5-.4.1 0 0-.1 0-.1 0-.3-.1-.5 0-.8 0-.1 0-.2-.2-.2s-.2-.1-.2-.2 0-.3-.2-.3c-.1 0-.1-.1-.1-.1v-.4c0-.1 0-.3-.2-.2 0 0-.1 0 0-.1l.1-.1c.1-.1.3 0 .5-.1 0 0 .1.1.1.2s-.1.1-.1.2c.1-.1.2-.1.3 0 .1.1.1.1.1.2v.1c.1 0 .1 0 .2-.1s.1-.2.2-.2 0 .2.1.2c0-.1-.1-.3.1-.3.1 0 .2-.2.2-.3s.1-.3.3-.4c.2-.1.3 0 .3.2s0 .2.2.2c.2-.1.1.1.1.2 0 .3 0 .3.2.2.2-.1.2 0 .2.1s0 .2.1.2.1-.1.1-.1c.4-.1.5-.4.6-.7 0 0 0-.1.1-.1.3 0 .4-.2.6-.3l.1-.1c0-.2.1-.2.3-.2.1 0 .1 0 .1-.1s0-.2.1-.3c0-.1.1-.1.1-.1.1 0 .1.1.1.1v.6c0 .1 0 .2.1.3v.1c-.1 0-.1 0-.1-.1s-.1-.2-.2-.3c0 .1-.1.1-.1.2-.1.3-.1.3-.4.2v.4c0 .3-.1.5-.3.7-.1.1-.1.3-.2.1 0 0-.1 0-.1.1-.1.2-.2.2-.3 0 0 0 0-.1-.1-.1-.2.2-.1.4 0 .5v.1c0 .2.1.2.2.1s.1-.1.2-.1c.1.1 0 .1 0 .2 0 0 0 .1-.1.1-.2.1-.1.3 0 .4 0 .1.1.1 0 .2s0 .3-.1.4c0 0 0 .1-.1.1v-.3c0-.1 0-.1-.1-.1s-.1 0-.1.1c0 .2 0 .5.1.7 0-.2 0-.3.2-.3.1 0 .2 0 .1-.1 0-.1 0-.1.1-.1s.2-.1.3-.1c.1 0 .1-.1.2 0 .1 0 0 .1 0 .2 0 .3-.2.5-.1.8 0 0 0 .1-.1.1s-.1 0-.1-.1-.1-.2-.1-.3c0-.1-.1-.1-.2-.1-.1.1 0 .3-.1.4 0 0-.2.1-.2-.1-.1 0-.1.1-.1.1 0 .1 0 .2-.1.1-.1 0 0-.1 0-.1v-.2c0 .2-.2.2-.3.2-.1 0-.1 0-.1-.1s0-.1.1-.1c.2-.1.3-.2.2-.4V28.8c-.1 0-.1.1-.2.1-.1-.1 0-.1 0-.2v-.1c-.1-.1-.1-.2.1-.2.1 0 .1-.1.1-.2V28c0-.1 0-.3-.1-.3s-.1.1-.1.2c0 0 0 .1-.1.1-.1-.1 0-.1 0-.2s0-.1-.1-.1-.1 0-.1.1 0 .2-.1.4.1.2.1.3c.1.1 0 .2 0 .2-.1.1-.1 0-.2-.1 0-.1 0-.1-.1 0s-.2.1-.3.1c-.2.1-.3.2-.3.4v.2c0 .2.1.3.3.3.2 0 .2 0 .1.2v.1c.1.2.2.4.3.5.1.1.1.2 0 .2-.2.1-.3.4-.3.6-.1-.1 0-.2-.1-.2s-.1.1-.1.2 0 .1-.1.2c0 .2.1.2.2.2s.2 0 .3-.1c.2 0 .1.1.1.2.1 0 .2-.1.3 0 .1 0 .1-.1.1-.1 0-.2.1-.5.2-.7 0-.1 0-.2.2-.1.1.1.1-.1.2 0 0-.1-.2-.2-.1-.3 0 0 .1-.1.1 0 .1 0 .1.1.2.2.1.2.1.5 0 .7-.1.1 0 .2 0 .3 0 0 0 .1-.1.1s-.1 0-.1-.1c0-.2-.1-.4 0-.6-.4.3-.4.8-.4 1.2.4-.1.6.1.6.5v.5c-.1.2.1.3.1.5v.3c-.1.1-.1.3 0 .4.1.1.1.2 0 .3 0 .1 0 .2-.1.2s-.1-.1-.1-.2v-.4c0-.3 0-.4-.3-.3-.1 0-.1 0-.1-.1v-.3c.1 0 .1-.1.1-.3-.1.1-.1.3-.3.1h-.1v.1c.2-.9 0-.6-.2-.8 0-.1 0-.3.1-.5s0-.4 0-.5c0-.1-.2-.2-.2-.1-.2.1-.2 0-.2-.2 0-.1 0-.2-.1-.2-.3.1-.2-.1-.2-.2.1-.2 0-.4-.2-.4-.1 0-.1 0-.1-.1s.1-.1.1-.1c.1 0 .2 0 .2-.1 0-.2.1-.4 0-.5 0-.1-.1-.3-.1-.4 0 .1-.1.2 0 .4 0 .1 0 .2-.1.2s-.1-.1-.1-.1c-.1-.1-.2-.2-.3-.2 0 .3.1.7-.1.9-.1.1-.2.2-.2.4 0 0-.1.1-.1 0-.2-.1-.2.1-.2.2 0 0 0 .1-.1.1s-.1-.1-.1-.1v-.2c.1-.4.1-.7-.1-1.1-.1 0 0 .2-.1.2-.3 0-.3.2-.3.4 0 .1 0 .2.1.2s.1.1.2 0 .1 0 .1.1v.2c-.1.2-.1.3 0 .5s-.1.3-.2.5c0 .1-.1-.1-.2-.1.1.1 0 .2.1.2s.1 0 .1.1v.3c.1-.2.3-.4.5-.4.1 0 .1 0 .1-.1 0-.2.1-.4.3-.5l.1-.1s0-.1.1-.1l.1.1c0 .1 0 .2.1.2 0 0 .3.2 0 .3-.1 0-.1.1-.1.2v.3h.1c.1-.1.3-.1.4 0 .1 0 0 .2 0 .3v.1s0 .1-.1.1l-.1-.1s0-.1-.1-.1v.2c0 .1-.1.3.1.3.1 0 .1-.2.1-.3 0-.1 0-.2.2-.2s.2 0 .3-.2c0-.1 0-.1.1-.2 0 0 0-.1.1-.1s.1 0 .1.1.1.2 0 .2-.2.1-.1.2zm-.7-6.8c0 .1.1.3.1.4v.2c-.1.1-.1-.1-.2-.1 0 .3-.1.4-.4.3.1.2 0 .4.1.6 0 .1 0 .1.1.2.1 0 .2 0 .2-.1s0-.2.1-.3c0 0 0-.1.1-.1l.1.1c.1.1.2.2.3 0 .1-.1.1-.2.1-.3v-.1h.1c0 .1.1 0 .1 0 .1-.1.1-.4 0-.5-.2-.1-.3-.3-.3-.5 0 .1 0 .1-.1.2-.3.1-.3.1-.4 0zm-.7 3.4c.1-.1.1-.2.1-.3 0-.1 0-.2.2-.2.1 0 0-.1.1-.2 0-.1-.1-.1-.1-.1-.1 0-.1 0-.1.1 0 0 0 .1-.1.1-.2-.1-.1.1-.2.1 0 .1 0 .2-.2.2.1-.2-.1-.4 0-.6l-.1.1h-.1c-.1 0-.1.1 0 .2.2.2.2.2 0 .4-.2.1-.1.4.1.5.1 0 0 .1.1.2 0-.1 0-.2.1-.3 0-.1 0-.2.1-.3.1 0 .1.1.1.1zm-.6 4.1c0-.2 0-.3.2-.3s.1-.1.1-.2c0-.2-.1 0-.1 0h-.1c.1-.2-.1-.3-.1-.4-.2 0-.2.4 0 .9z"/><path fill="#ED1C24" stroke="#FFF" stroke-width=".1" stroke-miterlimit="10" d="M25 26.2c-.1-.2-.1-.4 0-.6.1-.2 0-.4 0-.5 0-.1-.1-.1-.1-.1-.1 0-.1 0-.1.1 0 .2 0 .4-.2.5-.1.1 0 .3.1.4.1 0 .1.1 0 .2 0 0-.1.1-.2.1-.2 0-.1.1-.1.2s0 .2-.1.3c-.1 0 0 .1-.1.2 0 0 0 .1-.1.1L24 27v-.6c.1-.3 0-.5-.1-.7-.1-.1-.1-.3-.3-.3-.1 0 0-.3.1-.3.2 0 .1-.2.1-.3v-.1c0-.1.2-.2.1-.4-.1-.1 0-.3 0-.5 0-.3.1-.6.2-.9 0-.1.2-.2.3-.2.1 0 .1 0 .1.1v.2c0 .1 0 .1.1.2.1 0 .1-.1.1-.1v-.3c0-.1 0-.1.1-.2.1 0 .1 0 .2.1s.1.2.2.3v-.8c.2-.2.1-.4.1-.6 0-.2 0-.4.1-.6v-.1c-.1 0-.1-.1 0-.1.2-.3.1-.6.2-.9.1-.1.1-.3.2-.5V19c.3-.3.3-.6.2-.9V18c.3-.3.2-.6.2-.9 0-.1.1-.3.1-.4 0-.1.1-.1.1-.1.1 0 .1.1.1.1V17.3c.1.1.1-.1.1-.1.2-.1.2-.3.3-.4 0-.1.1-.1.2-.2s.2 0 .1.1v.6c0 .2-.1.1-.2.1s-.1-.1-.2-.1c0 .1-.1.2-.1.3 0 .3 0 .3-.3.1.1.3-.1.6-.2.8-.2.2-.2.4-.2.7 0 .1 0 .2-.1.3-.1 0-.1-.1-.2-.2 0 .3-.3.6-.2 1 0 .1 0 .1.1.1s.1 0 .2-.1c0-.1.1-.2.2-.2.2 0 .3 0 .3.2v.5c.2.3 0 .5 0 .7v.8c0 .1 0 .1-.1.2 0 .1-.1.1-.1.1-.1 0-.1-.1-.1-.1 0-.1 0-.2-.1-.3-.4.3-.1.8-.5 1.1-.1-.1-.1-.2 0-.4-.1.1-.1.3-.3.3-.1 0 0 .1 0 .1 0 .1.1.3-.1.4-.1.1-.1.3-.1.4 0 .1 0 .3.2.3.1 0 .1.1.1.2 0 .3.1.6-.1.9-.1.1-.1.3 0 .4 0 .2 0 .2-.1.3zM21.5 19.5c.1-.4.1-.9 0-1.3v-.7c0-.1.1-.1.1-.1.1 0 .2.1.2.3v.7h.1c0-.2.3-.4.2-.6 0-.1 0-.2-.2-.3-.2 0-.2-.2-.2-.3 0-.1.2-.1.2 0 .1 0 .2 0 .2-.2 0-.1 0-.2.1-.1.1 0 .1.1.1.1 0 .1.1.2 0 .4s0 .3-.1.5c0 0 0 .1.1.1s.1 0 .1-.1.1-.3 0-.4c-.1-.3.1-.3.3-.5.1-.1.1 0 .1.1-.1.2-.1.4.1.5.1 0 0 .1 0 .2-.2.1-.1.3-.1.5v.1c.2 0 .2.2.2.3 0 .4-.1.9 0 1.3 0 .1-.2.2-.2.4h-.1l-.1-.1c0-.2 0-.4.1-.6 0-.1 0-.1-.1-.2 0 .2 0 .2-.1.3-.1 0-.1.2-.2.3 0 .1-.1.1-.1.1v-.1c.2-.3.1-.6-.1-.8-.1-.2 0-.4 0-.6v-.6c-.1.1-.1.2-.1.2-.1.2 0 .5-.3.7-.1.1 0 .4 0 .6v.2c.1 0 .1-.1.2-.1.1.1 0 .1 0 .2s0 .1-.1.2c-.1 0-.1-.1-.2-.1 0 .1 0 .1.1.1s.2.1.1.2c0 .1-.1 0-.1 0-.1 0-.1.1-.1.1v.4c-.1 0-.2 0-.2-.1-.1-.2-.1-.4-.2-.5 0-.3-.3-.5-.4-.8h-.1c-.1 0-.2 0-.2-.1s.1-.1.2-.1.1-.1.1-.1c0-.1 0-.2.1-.2s.1.2.1.3c.3 0 .3.2.5.3zM13.7 31.3c-.1 0-.1.1-.1.1-.1.2-.1.2-.3 0-.1-.1-.2 0-.2 0-.3.1-.3.1-.3-.2v-.1c.1-.3-.1-.4-.3-.4-.1 0-.2 0-.2.2v.1c0 .1 0 .2-.1.3-.2 0 0-.1-.1-.2-.1-.3-.2-.5-.3-.8 0-.2-.1-.3-.1-.5-.1.2-.1.4-.2.5l-.1.1-.1.1c-.1 0 0-.1 0-.1 0-.3-.1-.5-.1-.8 0-.1-.1-.1-.1-.1-.1-.1-.2-.1-.2-.2s.2-.1.3-.1h.1c-.1-.2 0-.4.2-.5 0 0 .1 0 .1-.1s0-.2.1-.2.1.1.1.2c.1.1.1.2.2.2 0 0 0-.1.1-.1 0 0 0-.1.1-.1s.1.1.1.1c-.2.4.1.8.2 1.1 0 .1.2.1.2 0 .2-.1.2 0 .2.1v.1l.1.1.1-.1c0-.2.1-.4-.1-.5-.1-.1-.1-.1 0-.2s.1 0 .2 0c.2.2.4.3.5.6 0 0 0 .1.1.1s.3 0 .3.1c0 .2.1.4.1.6v.4c-.4.4-.5.3-.5.2zM30.1 25.5c-.1-.3 0-.5 0-.8 0-.1 0-.1.1-.1.3 0 .3-.3.5-.5 0 0-.1.1-.1-.1 0-.1 0-.2-.1-.3-.1-.1-.1-.1 0-.2 0 0 .1-.1.1 0 .1.1.2.1.2.2s0 .2.1.3c.1-.1 0-.2 0-.3v-.6c0-.1.1-.2.2-.2.2 0 0 .1.1.2.1-.1 0-.3.1-.4l.1-.1c.1.1.1 0 .1-.1v-.2s0-.1.1-.1l.1.1c-.1.3 0 .6-.1.9 0 .1-.1.1-.1.2.3.1.3.1.4-.2 0-.2.1-.3.1-.5v-.1s.1 0 .1.1c0 .2.1.4 0 .6-.1.2-.2.4-.1.6 0 .1.1.2 0 .2s-.1-.1-.2-.2c0-.1-.1-.2-.2-.2-.2 0-.2.1-.2.3 0 .3-.1.5-.4.5-.1 0-.1.1-.1.1-.1.2-.2.3-.2.5s-.2.1-.3.2c-.1.1-.2.1-.3.2zM33.9 31.7c0-.1-.1-.2.1-.2.1 0 .1-.1 0-.1v-.3c0-.1 0-.1.1-.2.1 0 .1.1.1.1.2.1.3.1.5 0s.3-.1.4 0v-.2c-.1-.2 0-.4.1-.4s.3.1.4.2c.1.2 0 .4-.1.6 0 .1-.1 0-.2 0-.2-.1-.3 0-.3.2 0 .1-.1.1-.1.1-.1 0-.1-.1-.1 0v.2c.1.2 0 .4-.1.5 0 0 0 .1-.1.1-.3-.1-.3 0-.3.3v.2s-.1.1-.2 0c-.1 0-.1-.1 0-.1 0-.3 0-.4-.3-.4-.1 0-.2-.1-.2-.2 0-.2.1-.4 0-.6 0-.1 0-.2.1-.2s.2.1.2.2c-.1.1-.2.2 0 .2z"/><path fill="#ED1C24" stroke="#FFF" stroke-width=".1" stroke-miterlimit="10" d="M25 26.2c-.1.4-.1.9 0 1.3s-.1.8 0 1.2c0 .1 0 .1-.1.1-.2 0-.3.1-.4.3 0 0 .2-.1.1.1-.1.1-.2.2-.2.3 0 .1-.1.1-.2.1s-.1-.1-.1-.1c0-.2 0-.4-.1-.5v-.1c.1 0 0 0 .1.1s.3 0 .4 0c-.3-.1-.1-.3-.1-.5 0 0 .1-.1 0-.1-.1-.4.1-.8.2-1.2 0-.1-.1-.2-.1-.3 0-.1 0-.2.2-.2.2-.3.1-.5.3-.5zM26.9 22.5c.2-.4.1-.8.2-1.2 0 0 0-.1.1-.1s.1 0 .1.1v.1c0 .4.1.8 0 1.2v.2c-.3.2-.1.6-.2.9 0 .1 0 .2-.1.2-.1.1-.2.3-.2.4 0 .1-.2.1-.3.1-.1 0-.2-.1-.2-.2s0-.2.1-.1h.1v-.4c0-.3-.1-.7 0-1v-.3c0-.1 0-.2.1-.2.2.1.2.1.3.3-.1 0-.1 0 0 0zM16.3 20.2c0 .3 0 .5.1.7.1.1.1.2.2.1 0 0 .1-.1.1 0 0 .2.3.4.2.7-.1.1 0 .3 0 .4 0 .1 0 .1-.1.2-.1 0-.1-.1-.2-.1 0-.2-.1-.2-.3-.2-.2 0-.2-.2-.3-.3-.1-.1-.1-.3-.2-.5s-.1-.4-.2-.6c0-.1-.2-.2-.2-.3-.1-.1-.1-.2.1-.3l.1-.1c.1-.1.1-.1.2-.1.1.1.1.2 0 .3-.1.1-.2.1 0 .1.1 0 0 .1 0 .1-.1.2.1.1.1.1.1.1.1 0 .1-.1.2.1.2 0 .3-.1zM9.5 31.6c.2-.1.1-.3.3-.4.2.1.2.1.2-.2 0-.1 0-.1.1-.1s.1.1.1.1v.5c.1 0 .2 0 .2-.1.2-.1.3-.1.3.1 0 .1 0 .1.1 0h.1c.1.1.2.1.3 0 0 0 0-.1.1-.1s0 .1 0 .1c0 .1.2.2.2.3 0 .1 0 .2-.1.2-.1.1-.1-.1-.2-.1s-.2-.1-.3-.1c-.1 0-.1-.2-.2-.2 0 0 0-.1-.1 0 0 .1.1.2.1.3 0 .1 0 .2-.1.2s-.1-.1-.1-.2v-.2c0-.1-.1-.2-.2-.1s-.2 0-.2-.1-.1-.1-.2-.2c0 0-.1-.1-.1 0 0 .2-.3.1-.3.3-.1-.1-.3-.1-.4-.1-.1-.1-.1-.4 0-.5l.1-.1s.1-.1.2-.1.1.1.1.2v.6zM10.1 28c0 .1-.1.1-.1.2-.1.1-.3.2-.4 0h-.1s-.1.2-.2.1-.1-.2 0-.3c.2-.2.1-.4 0-.6 0-.1-.1-.1 0-.2s.1 0 .2 0c0 0 .1 0 .2-.1 0-.1-.1-.1-.1-.2.2-.1.3-.1.3.4 0-.2.1-.2.2-.2s.1.1.1.2c.1.2.1.3.1.5 0 .1.2.1.1.3v.2h-.1c-.2-.1-.2-.2-.2-.3zM34.9 28.2c-.1-.1 0-.2.1-.3.1 0 .2-.1.3-.2.1-.1.1 0 .1 0-.1.3.1.5.1.8 0 .1 0 .2-.2.2-.1 0-.2 0-.2.1s-.1.1-.1.1c-.1 0-.1-.1-.1-.2v-.2c0-.1-.1-.2-.1-.2h-.2c.2.2-.1.2-.1.3 0 .1-.1.1-.1.1h-.1v-.1c.1-.1.2-.2.1-.4v-.1c.2-.1.2-.2.2-.4 0-.1 0-.2.1-.2s.1.1.1.2c0 .4.1.4.1.5zM14.4 18.6c.1 0 .2-.1.2-.2v-.2c0-.1 0-.2.1-.2s.1.1.1.2v.4c0 .1 0 .2-.1.2s-.1.1-.1.1c0 .1-.1.2-.2.3-.1.1-.2.4-.3 0 0-.1-.1 0-.1-.1.2-.1.2-.3.1-.5s0-.5-.2-.7c-.1-.1 0-.2.1-.2.1-.1.1-.3.2-.2.1 0 0 .2 0 .3 0 .2.1.3.1.4.2.1.1.3.1.4zM22.4 35.3c.1-.1 0-.2 0-.3v-.2c0-.1 0-.1.1-.1s.1 0 .1.1c0 .2.1.2.2.2s.1 0 .1.1-.1.1-.1 0c-.2-.1-.2 0-.2.2v.2c0 .1.1.2-.1.1-.1 0-.1.1-.1.1-.2.2-.5.2-.6-.1v-.2c0-.1.1-.1.1-.2.1-.2.2-.2.4-.2.1 0 .1.1.1.3zM16.7 23.9c.1-.1.1-.2.2-.2.1.3 0 .7 0 1v-.1s0-.1.1-.1.1.1.1.1c0 .1 0 .2.2.3.1 0 .1.1 0 .2s-.2.2-.1.3c0 .1 0 .1-.1.1s-.1-.1-.1-.2c.1-.2-.1-.4-.1-.6 0-.3-.2-.4-.3-.6-.1-.1-.1-.2 0-.2 0-.1.1-.2 0-.3-.1 0-.1-.1 0-.1.1-.1.1 0 .2 0-.2 0-.1.2-.1.4zM34.2 33.1c0 .1 0 .2-.1.3-.1.1-.1.3-.3.2-.2 0-.2-.1-.1-.2s.1-.2 0-.3c-.1-.1-.1-.3-.1-.5.1.3.3.4.6.3.1-.1.2 0 .4 0 0 0 .1 0 .1.1v.5c0 .1-.1.1-.1.1-.1-.1-.2.1-.3-.1-.1-.2-.1-.2-.1-.4zM26.4 14.1v-.2c-.2-.3 0-.5 0-.7 0-.1 0-.1.1-.1s.1.1.1.1v.2c0 .3.2.5.5.6.1 0 .1.1.1.2s0 .1-.1.1c-.2 0-.3.1-.2.3 0 .1 0 .2-.1.2s-.1-.1-.1-.2 0-.1-.1-.1c-.1.1-.2 0-.3-.1 0-.1 0-.2.1-.1v-.2zM14 34.5c0 .1 0 .2-.1.1-.1 0-.2 0-.2-.2 0-.3-.1-.3-.3-.3-.2 0-.1-.1-.2-.2 0-.1 0-.1.1-.1s.1.1.2.2c0 .1.1.1.2.1.2-.1.4 0 .5-.2 0-.1.1 0 .1.1s.2.2.3.2.1.1.1.2-.1 0-.2 0-.1-.1-.2 0c0 .1-.2.2-.1.3 0 0 .1.1 0 .1h-.1c.1-.1 0-.2-.1-.3zM14 16.9c.1 0 .1-.3.3-.2.2.1.1.2.1.3v.1c.1-.2.4-.1.5-.3.1.2 0 .5-.2.5-.2.1-.4 0-.5-.2 0-.1 0-.1-.1-.1s-.1.1-.1.2-.1.2-.2.2-.1-.1-.1-.2 0-.2-.1-.3c-.1 0-.2-.1-.1-.2s.1-.2.3-.2c.1 0 .2.1.2.2v.2z"/><path fill="#ED1C24" stroke="#FFF" stroke-width=".1" stroke-miterlimit="10" d="M14 19c0 .1-.1.3 0 .4v.1h-.1c-.1-.1-.2-.2-.3-.2-.1 0-.1-.1-.1-.2.1-.4-.1-.6-.4-.9-.1 0-.1-.1-.1-.2.1-.1.1 0 .2 0 .2.1.3.2.4.3.1.1.1.4.4.4 0 .1.1.2 0 .3zM19.7 31.5v-.1c0-.1 0-.2.1-.2s.1.1.1.1v.1c.2.1.2.2 0 .2-.1 0-.1.1-.1.2s0 .3-.1.3c-.2 0-.1-.2-.1-.3 0-.1 0-.2-.1-.2s-.1.1-.2.1c0 0-.1.1-.2 0v-.2c.4-.3.4-.4.3-.9 0-.1 0-.2.1-.2s.2 0 .1.1c0 .2.1.5 0 .7 0 .2 0 .3.1.3zM21.1 16.4c.1-.4-.2-.6-.4-.8-.1-.1-.3-.1-.4.1 0 0 0 .1-.1.1s0-.1 0-.2c.1-.2.1-.3 0-.4l-.1-.1c0-.1 0-.2.1-.2s.1.1.2.1c0 .1 0 .2.1.3 0 0 0 .1.1.1.4 0 .6.4.9.5l.1.1s0 .1-.1.1c-.3 0-.2.2-.2.4 0 .1 0 .2-.1.2-.1-.1-.1-.2-.1-.3zM10.3 22.1c-.1.2 0 .4.2.5.1 0 .1.1.1.2s-.1.1-.1.1c-.1 0-.2 0-.3.1-.1 0-.2 0-.2-.2s0-.3-.1-.4v-.2c.1-.2.2-.5.1-.8v-.1c.1 0 .1 0 .1.1 0 .2.2.5.2.7zM28.4 35.6c-.1 0-.1 0-.1-.1-.1-.3-.3-.4-.6-.5 0 0-.1 0-.1-.1s0-.1.1-.1c.2-.1.3 0 .3.2.1-.1 0-.2-.1-.3-.2-.1-.1-.3-.1-.5 0 0 0-.1.1-.1 0 0 .1 0 .1.1v.1c0 .2.1.4.3.4.1 0 .1.1.1.2.2.2.1.5 0 .7zM26.6 34.4c-.1-.3.2-.4.3-.6 0 0 .1-.1.1 0 0 .2.1.5 0 .7 0 .2-.1.3-.3.3-.2.1-.2 0-.2-.2.1 0 .1-.1.1-.2zM8.7 23v.1s0 .1-.1.1-.1-.1-.1-.1c0-.1 0-.2-.1-.2h-.1c0 .1 0 .2.1.3.1.1 0 .3 0 .3-.1 0-.3.1-.4-.1 0-.1 0-.1-.1-.2-.1 0-.1-.1-.1-.2H8c.1 0 .1-.1.1-.1 0-.1 0-.3.1-.3.3 0 .5.2.5.4zM12.8 19.5c-.2.1-.3.2-.3 0v-.1s-.1 0-.1.1v.1c0 .1-.1.1-.1.1-.1 0-.1-.1-.1-.1 0-.1 0-.3-.2-.2v-.1c.1-.1.2 0 .2 0 .1 0 .1.1.2 0 0-.1 0-.1-.1-.2h-.1c-.1 0-.1-.1 0-.1 0-.1.1 0 .1 0 .1 0 .3.1.3.2s.1.2.2.1l.1.1v.2c0 .1 0 .2.2.1 0 0 .1-.1.1 0 .1 0 0 .1 0 .2l-.1.1c-.1-.1-.1 0-.3 0-.1 0-.1-.2-.1-.3 0 0 0-.1.1-.2zM22.1 21.9c0 .3-.1.3-.3.4-.1.1-.2-.1-.3-.2-.1-.1-.1-.2-.1-.3 0-.2.3-.3.4-.4 0-.1.1 0 .1 0 .2.2.1.4.2.5zM12.2 32.8c0 .2.1.4-.1.5-.1.1-.1.2-.1.3 0 0 0 .1.1.1.3 0 .2.1.1.2s0 .3-.2.3c-.1 0-.1-.1-.1-.2s-.1-.1-.1-.1c-.1 0-.2 0-.2-.1s0-.3.2-.4c.1-.2.4-.3.4-.6-.1 0-.1 0 0 0-.1 0 0 0 0 0zM18.4 12.2c.1.4 0 .7-.1 1 0 .2-.1.4 0 .6v.2h-.1s-.1-.1-.1-.2c.1-.4-.1-.8-.1-1.2 0-.2 0-.3.2-.3.1 0 .2 0 .2-.1zM23.9 35.7c-.1 0-.1.1-.2.1s-.1 0-.1-.1 0-.1.1-.1c.3-.2.4-.4.3-.7V34.6c.1 0 .1.1.1.2s0 .1.1.1.2.1.2.2 0 .2-.2.2-.1.2-.2.3c0 .1.1.2.2.2.1.1.1 0 .2-.1 0 0 .1-.1.2-.1s0 .1 0 .2c-.1.2-.3.2-.5.2s-.1-.2-.2-.3zM16.8 18.7c-.2-.3-.2-.6 0-.9.1-.2.1-.4 0-.6 0-.1-.1-.2 0-.2s.1 0 .2.1c0 .1.1.2.2.1.1 0 .1 0 .1.1s0 .1-.1.1c-.2 0-.2.2-.2.3 0 .2.1.4-.1.5v.1c.2.3 0 .3-.1.4zM34.5 22.6c0 .1 0 .1-.1.1s-.1.1 0 .1c.2.2 0 .4.1.6 0 0 0 .1-.1.1s-.2.1-.3.2c0 0-.1.1-.1 0s-.1-.2 0-.2c.1-.1.1-.2.1-.3 0-.3.1-.5.1-.7 0-.1 0-.1.1-.1s.2.1.2.2zM11.1 25.5c.2.2.3.3.1.5 0 0 0 .1-.1.1s-.5-.2-.5-.3c0-.1-.1-.2.1-.2.1 0 .1-.2.1-.3 0-.1 0-.2.1-.2s.2 0 .2.1.1.2 0 .3c0 .1 0 0 0 0zM11.5 18.2c0 .1-.1.1-.1.1-.2 0-.2.3-.4.2 0-.1-.1-.2-.2-.2s-.1-.1-.1-.1c0-.2.2-.3.3-.3h.1c.2-.2.2 0 .2.1-.1.1 0 .1.2.2 0-.1 0-.1 0 0zM26 33.8c.1-.1.2 0 .2 0 .1.1 0 .2-.1.3-.3.2-.2.5-.2.8 0 0 .1.1 0 .1-.1.1-.1-.1-.1-.1-.2-.1-.2-.3-.1-.5.1-.3.1-.6.1-.9 0-.1 0-.2.1-.2s.1.1.1.2c.1 0 0 .1 0 .3zM12.8 26.7c.1 0 .2.1.3.1.1 0 .2 0 .3-.1.1 0 .1-.1.2 0s.1.1 0 .2-.1.3 0 .4v.1c-.1 0-.1 0-.1-.1-.2-.1-.2-.4-.4-.4-.1 0-.3-.1-.4-.2 0 0-.1 0-.1-.1 0 .1.1.1.2.1zM35.5 29.1c.1.1.1.2.2.3.1.2.1.2.3.1 0 0 0-.1.1-.1.1-.1.1 0 .2 0s0 .1 0 .1c-.1.1-.2.3-.4.2-.1 0-.1.1-.1.1 0 .1 0 .2-.1.3-.2-.2-.1-.3 0-.5-.1 0-.1.1-.2.2h-.2c0-.1.1-.1.1-.1.2 0 .1-.2.2-.3-.2-.1-.2-.2-.1-.3zM13.9 20.4c0 .2-.1.3-.1.4-.1.1-.2.1-.2 0v-.2c0-.2 0-.4-.2-.5-.1-.1-.1-.2 0-.3h.1c0 .2.3.2.4.4-.1.1 0 .1 0 .2zM8.3 33.2c-.1 0-.2 0-.2.2 0 .1 0 .2-.1.2s-.1-.1-.1-.2c-.1-.1-.1-.3.1-.4.1-.1 0-.1 0-.2s-.1-.2 0-.2.1.1.1.1c0 .1.1.2.2.1.2 0 .2.1.2.2 0 .2 0 .3-.2.2zM12 25.8c0 .1.1.2-.1.2s-.1-.2-.1-.3c0-.1 0-.4-.1-.4-.2 0-.2-.2-.3-.3-.1-.1-.1-.2 0-.2.1-.1.2 0 .2.1 0 .2.1.2.3.2.1 0 .1.1.1.1 0 .2.1.4 0 .6zM19 33.5v.1c0 .1 0 .2-.1.2s-.1-.1-.1-.2 0-.1-.1-.1-.2-.1-.1-.2 0-.3.2-.3c0 0 0-.1.1-.1s.1.1.1.1v.5zM18.4 20.1c.2.1.2.3.2.5v.2c0-.1.1-.1.2-.1s.1.1.1.1c0 .1 0 .2-.2.2-.1 0-.2.2-.3.2 0-.3-.2-.7 0-1.1zM9.4 20.7c.1-.1 0-.3.1-.4 0-.1.1-.1.2-.1s.1.1.1.2c0 .2 0 .4.1.6 0 .1 0 .2-.1.2s-.2-.1-.2-.1c-.1-.2-.1-.3-.2-.4zM17.2 21.5c-.1 0 0-.1 0-.1-.2-.3 0-.5.2-.7h.1l.1.1c0 .2-.1.4 0 .6l-.1.1c-.1-.1-.2-.1-.3 0zM13.3 33.7c-.1.1 0 .2-.1.3-.1 0 0 .1.1.1s.1.1.1.2-.3 0-.3-.1v-.1c0-.1 0-.1-.1-.2-.1 0-.1 0-.1.1 0 0 0 .1-.1 0v-.1c0-.1.3-.4.4-.4.1 0 .1.1.1.2z"/><path fill="#ED1C24" stroke="#FFF" stroke-width=".1" stroke-miterlimit="10" d="M18.4 20.1c0 .1-.1.2-.1.3 0 .1 0 .1-.1.1s-.1-.1-.1-.1c-.1-.2-.1-.5-.1-.7 0 0 0-.1.1-.1h.1c.1.2.2.3.2.5zM36.3 33.9c-.1-.1-.3.1-.3-.2 0-.1 0-.2.1-.1.1 0 .1 0 .1-.1s.1-.2.1-.3c0 0 0-.1.1-.1s.1 0 .1.1v.2c-.2.2-.2.2.1.4v.1H36.3zM32.1 24.8c.1-.1.1-.2.1-.3.1-.2 0-.4.3-.3 0 0 .1-.1.2-.1 0 0 .1-.1.1 0 .1 0 0 .1 0 .1-.1.3-.4.4-.7.6zM32.3 18.7c0 .1-.1.2-.1.3 0 .1-.1.1-.1 0-.2-.1-.3-.6-.1-.8.1-.1.2-.1.2.1.1.1.1.2.1.4zM35.9 31.4v-.1c.3-.1.2-.4.3-.6 0 0 0-.1.1-.1s.1.1.1.2c0 .2-.2.5-.1.7 0 0 0 .1-.1.1H36c-.1 0 0-.1-.1-.2zM27.6 18.8c0-.1.1-.1.2-.1s0 .1 0 .2v.3c0 .1 0 .2-.1.2s-.2 0-.2-.2v-.5s0-.2.1-.1c0 0 .1 0 0 .2zM23.2 34.8c.1.1.1.3.2.4.1.3-.1.4-.2.6 0 .1-.2 0-.2 0-.1 0-.1-.1-.1-.1 0-.1.1-.1.2-.1.2-.1.1-.3.1-.4-.2-.1-.1-.3 0-.4zM27 25.9c0-.2 0-.3.2-.5.1 0 .1-.2.1-.3 0 0 0-.1.1-.1 0 0 .1 0 .1.1 0 .2 0 .4-.1.6-.1.1-.1.2-.1.3 0 .1 0 .2-.1.2s-.1-.1-.1-.2c-.1 0-.1 0-.1-.1zM25.9 31c.1.1.2.3.2.4 0 .1-.1.3-.1.4l-.1.1s-.1 0-.1-.1c0-.2-.1-.4-.1-.7 0-.1.1-.1.2-.1zM17 16.1c-.1-.2-.1-.3-.2-.5 0 0-.1-.1 0-.2s.1 0 .2.1c.2.2.3.2.5 0 0 0 .1-.1.1 0 .1 0 .1.2 0 .2s-.2.2-.3.3c0 0-.1.1-.1 0-.1-.2-.1-.1-.2.1zM33.6 35.5c0 .1 0 .2-.1.2s-.2 0-.2-.1-.1-.2 0-.3c.1 0 .1-.1 0-.1 0 0-.1 0-.1-.1v-.3h.1c.1.1.1.2.1.3.2.1.2.2.2.4zM30.1 19.7c0 .1 0 .1 0 0 0 .2 0 .4-.2.4s-.1-.2-.1-.3v-.5c0-.1 0-.2.1-.2s.1.1.1.2c0 .2.2.3.1.4zM24.5 29.6c0-.2.2-.2.2-.4h.1v.2c-.1.1-.1 0 0 .1.2.1 0 .2.1.4 0 .1-.1.1-.2.1s-.1-.1-.1-.1c-.1-.1-.1-.2-.1-.3z"/><path fill="none" d="M9 4.5h27v9H9z"/><path fill="#ED1C24" stroke="#FFF" stroke-width=".1" stroke-miterlimit="10" d="M18.6 9.2c.1.6.6.9 1.3.9.7 0 1-.3 1-.7 0-.5-.3-.7-1.3-1-1.7-.4-2.1-1-2.1-1.8 0-1.1.8-1.8 2.3-1.8 1.6 0 2.3.9 2.4 1.8h-1.3c-.1-.4-.3-.8-1.1-.8-.5 0-.9.2-.9.7 0 .4.3.6 1.3.8 1.8.4 2.2 1.1 2.2 2 0 1.1-.9 1.9-2.5 1.9s-2.4-.8-2.5-1.9h1.2v-.1zM24.1 8.6V11h-1.3V4.9h2.7c1.3 0 2.1.7 2.1 1.7 0 .8-.5 1.3-.9 1.5.3.1.8.4.8 1.5v.3c0 .4 0 .9.1 1.2h-1.3c-.1-.3-.1-.7-.1-1.4v-.2c0-.7-.2-1-1.2-1l-.9.1zm0-1.1h1.1c.7 0 1-.3 1-.8s-.3-.8-1-.8h-1.1v1.6z"/></svg>