<svg version="1.2" baseProfile="tiny" xmlns="http://www.w3.org/2000/svg" viewBox="0 0 45 45" overflow="visible" xml:space="preserve"><path fill="none" d="M0 0h45v45H0z"/><path d="M16.4 34.2h.2c.1 0 .2 0 .2.1s-.1.2-.2.2c-.7-.1-1.3 0-2 0-.2 0-.4.1-.7.1h-.2v-.2c.3-.3.1-.7-.2-.9-.1 0-.1-.1-.2-.2-.2-.4-.2-.8-.4-1.2-.1-.2-.2-.4-.4-.5h-.1c-.1.2-.4.4-.3.7 0 .1 0 .3-.1.4-.2.3-.5.6-.8.9-.2.2-.5.2-.7-.1-.1-.1-.1-.1-.2 0s-.2.2-.3.2c-.2.1-.2.4.1.5.3.1.3.2.1.4-.1.1-.1.1-.1.2s.2.1.2.1h.4c.1 0 .1 0 .1.1s-.1.1-.1.1h-.8c-.3 0-.6-.1-1 0-.1 0-.3-.1-.5-.1-.3.1-.7-.1-1 .1-.2.1-.4.1-.5-.1l-.1-.1c0-.1.1-.1.1-.1.2-.1.4-.1.6-.2.1 0 .2-.1.3-.2.2-.1.2-.3.4-.3 0-.3.2-.5.1-.7 0-.1-.1-.1-.1-.1-.2-.2-.4-.3-.6-.6-.1-.1-.1-.2-.1-.4 0-.1 0-.2-.1-.2s-.1 0-.2.1v.1l-.1.1c-.1 0 0-.1 0-.2.2-.2.2-.5.3-.8.1-.2.1-.4.1-.6v-.2c0-.1.1-.1.2-.1s.1.1.1.2v.9c0 .2 0 .3.1.4.1.2.1.3.1.5 0 .3.1.3.5.4.2 0 .5-.1.5-.3 0-.2.1-.3.2-.4.2-.5.3-1 .5-1.5 0-.1.1-.2 0-.4-.1-.1-.1-.2-.1-.3-.1-.3-.1-.6.1-.8.1-.1.2-.3.2-.5 0-.3 0-.5-.1-.8-.1-.1 0-.3-.1-.5v-.1c-.2-.2-.1-.5-.2-.7v-.1c.1-.3 0-.6-.1-.9 0-.2-.1-.3-.1-.4-.3-.2-.3-.5-.5-.8 0-.1-.1-.1-.1-.2-.1-.1-.3-.1-.3.1 0 .4-.2.7-.3 1.1v.2c0 .5-.1 1-.2 1.5 0 .4-.1.7.1 1.1v.4c0 .4-.2.9-.2 1.4 0 .1 0 .3-.2.3s-.2-.1-.2-.3v-.2c.2-.2.1-.4 0-.7v-.2c.1-.2.1-.4 0-.6 0-.1-.1-.1 0-.2.3-.3.2-.7.2-1.1 0-.2-.1-.4-.1-.5 0-.2-.1-.4.2-.5.1 0 .1-.1.1-.2 0-.3.1-.7.1-1 0-.1 0-.3-.1-.3l-.1-.1c0-.1.1-.1.1-.1.1 0 .2-.1.2-.2s.1-.2.1-.3c.2-.4.1-.9-.4-1-.1 0-.2-.1-.3-.2-.1-.1-.3-.1-.4 0 0 0-.1.1-.1 0v-.1c.1-.2.2-.3.4-.4.1 0 .1 0 .1-.1.2-.3.5-.4.8-.6.1-.1.2 0 .3.2.1.2.3.3.5.4h.1c.3-.2.6 0 .9.1.3.1.5.3.5.6 0 .2.2.2.3.2.1 0 .2-.1.3-.1.1 0 .2-.1.1-.2 0-.2.1-.3.2-.3s.2-.1.2-.1c.3-.3.6-.3 1-.3.2 0 .5.3.5.5s0 .3.2.4c.2 0 .3-.2.4-.3.1-.3.3-.4.6-.5.3 0 .6 0 .9.3.2.2.9.3 1.1.1.1-.1.3-.2.5-.3.2-.1.3-.1.5.1.2.3.4.7.6 1 .1.1.1.2.2.2s.2 0 .2-.1c.1-.1 0-.1-.1-.2-.1 0-.1-.1-.1-.2s.1-.1.2-.1c.2 0 .3-.1.3-.3 0-.1 0-.1.1-.1h.3c.4 0 .6.2.9.4.1.1.1.2.3.1.3-.2.7-.3 1-.2.1 0 .2.1.2.2.2.2.4.2.6-.1 0-.1.1-.1.1-.2.1-.1.1-.3.2-.3s.3.1.4.2c.1.1.3.2.4.2.2 0 .3.1.4.3.1.1.2.2.4.3h.1c.2.1.2.1.3-.1.1-.3.3-.5.5-.7.3-.3.6-.2.9-.1.3.1.4.4.5.6.1.2.1.3.3.4.2 0 .3-.1.4-.3.2-.2.3-.5.6-.6.3-.2.3-.3.4.1.1.3.4.4.5.7.1.3.4.4.6.3.3 0 .5-.2.6-.5.1-.3.5-.5.8-.5.1 0 .1 0 .1.1.1.2.3.4.5.6.1.1 0 .2.1.2.1.1.1.2.3.1.1 0 .1-.1.1-.2s-.1-.1-.2-.1-.2 0-.2-.1.1-.1.2-.1c.2 0 .3 0 .5-.1h.1c.4.1.8.1 1.2.4.2.2.3.1.5 0 .1-.1.2-.3.4-.1.3-.1.5.1.6.3.2.2.3.2.4 0 .1-.1.1-.2.1-.3.2-.5.7-.7 1.1-.7.1 0 .2.1.2.3-.1.3-.1.4.2.5h.1c.1.1.4 0 .4.3 0 .2.1.4 0 .5v.1h.2c.1-.3.4-.2.5-.5h.1s.1.1 0 .1c-.1.2-.1.4-.4.5-.2 0-.2.3-.2.4 0 .4 0 .9.1 1.3.2.9.1 1.8.1 2.7v1.9c0 .7-.1 1.4-.4 2.1-.1.2-.3.4-.4.6-.3.4-.2.7.3.8.2 0 .4.2.6.2.1 0 0 .1 0 .1-.2.1-.3.1-.5.1-.4-.1-.7-.1-1.1-.1-.3 0-.6-.1-.9-.2l-.1-.1.1-.1c.2 0 .3-.1.2-.3 0-.2-.2-.3-.4-.3-.1 0-.1 0-.2.1-.2.1-.3.1-.3-.2 0-.1-.1-.2-.2-.3-.1-.1-.1-.1-.1-.2 0-.2-.3-.5-.4-.4-.1.1-.3.1-.4.3l-.3.3c-.2.2-.4.2-.6 0-.2-.2-.4-.1-.7-.1 0 0-.1 0-.1.1 0 .2-.2.3-.4.4-.1.1-.4.5-.3.6 0 .1.1.1.2.1s.1 0 .1.1v.3c0 .1-.1.2-.2.2-.5-.1-1.1 0-1.6.1-.3.1-.6 0-.8 0-.1 0-.2 0-.2-.1s.1-.2.2-.2c.2 0 .3-.1.4-.2.3-.3.6-.7.7-1.1 0-.2 0-.6-.2-.7-.1-.1-.1-.1-.2 0-.1.2-.3.3-.4.5-.1.2-.4.3-.6.3-.2 0-.4-.1-.5-.3l-.3-.6c-.2-.2-.3-.2-.4 0-.2.2-.4.5-.6.7-.3.3-.7.4-.9.1 0-.1-.1-.1-.1-.2s0-.2-.1-.3c0-.1-.1-.2-.2-.2s-.1.1-.2.2c-.1.2-.1.4-.3.5-.1.1-.2.2-.3.2-.1 0-.7-.2-.7-.3 0-.2-.1-.4-.2-.6-.1-.1-.1-.3-.2-.4 0-.1-.1-.1-.1-.1-.1 0-.1 0-.1.1.1 0-.1.4-.1.8 0 .1-.3.3-.4.3h-.2c-.1 0-.2 0-.3-.2-.1-.2-.2-.3-.3-.5-.1-.2-.2-.2-.4 0-.1.2-.2.3-.3.5-.2.3-.5.4-.8.2-.1 0-.1-.1-.2-.1-.2-.1-.3-.1-.5-.1-.4 0-.7.2-1.1.2-.1 0-.2 0-.2-.1-.2-.3-.4-.5-.5-.9 0-.4-.2-.7-.3-1.1 0-.1-.1-.1-.1-.1-.1 0-.2.1-.2.2-.1.5-.4 1-.5 1.5-.1.3-.4.3-.6.2-.3-.2-.4-.5-.6-.8 0-.1-.1-.2-.2-.2s-.1.1-.2.2c-.1.3-.1.5.1.8.2.2.3.4.4.7.2.3.5.4.8.5-.1 0 0 0 0 0zm2.9-5.3c0 .1 0 .2.1.3.1.1.1.2.1.3 0 .5 0 .9-.1 1.4v.2c.1.1.1.3 0 .4v.3c.2.3.2.8.5 1.1.2.2.6.4.8.1.2-.2.4-.5.4-.8 0-.2-.1-.4 0-.7v-.6c0-.4-.2-.7-.1-1.1v-.6c0-.3 0-.5-.3-.7-.1 0 0-.1 0-.2.1-.1.1-.3 0-.4-.1-.1 0-.2 0-.3.1-.1.2-.2.2-.4 0-.3-.1-.6 0-.8.2-.6.1-1.2-.3-1.7v-.2c.1-.1 0-.3 0-.4-.1-.2-.2-.3-.3-.5-.1-.1-.2-.1-.2 0-.1.2-.3.4-.4.7-.1.4-.2.9-.2 1.3-.1.5-.2.9-.2 1.4 0 .2 0 .4.2.5.1.1.1.1.1.2-.1.1-.1.3-.1.4-.2.3-.1.5-.2.8zm7 3.8c.1 0 .2 0 .2-.1.2-.2.4-.4.5-.7 0-.2.1-.3.2-.5s.1-.4 0-.6v-.2c.1-.1.2-.3.1-.5v-.2c.1-.1.1-.2.1-.4 0-.3.1-.7-.1-1 0-.1-.1-.2 0-.3.1-.3-.1-.7-.1-1 0-.5-.3-1-.3-1.5 0-.1 0-.2-.1-.2-.2-.1-.2-.3-.1-.4 0-.1 0-.2-.1-.2h-.2c-.1.1-.1.1-.1.2-.1.4-.1.7-.3 1.1-.1.2-.1.3-.2.5-.1.4 0 .9-.2 1.3-.1.4.2.7-.1 1.1.2.2.1.4 0 .6v.2c0 .4 0 .9.1 1.3s.1.7.3 1.1c.1.2.2.4.4.4zm-10.7-1c0 .1 0 .2.1.3.1.1.2.2.2.4.1.2.2.2.4.1.1-.1.2-.2.3-.4.1-.2.2-.4.1-.6v-.2c.3-.3.3-.7.4-1 .1-.6 0-1.2 0-1.8 0-.2 0-.5-.3-.6l-.1-.1c0-.1 0-.3-.1-.4 0-.1 0-.2.1-.2.2 0 .2-.2.2-.3-.1-.2-.1-.3-.1-.5-.1-.5-.3-.9-.3-1.4 0-.1-.1-.2-.1-.3-.1-.1-.2-.2-.1-.4 0-.1 0-.2-.2-.2-.1 0-.2.1-.2.2-.1.2-.1.5-.2.7-.1.1-.2.3-.1.5s0 .3-.1.5 0 .3.1.4c.1.1.1.2 0 .3-.1.1-.2.3-.2.4 0 .3-.1.7-.1 1-.1.8.1 1.6.2 2.5 0 .2 0 .5.3.7.1 0 0 .1 0 .2-.2 0-.2.1-.2.2zm13.9-4.9v-.2c-.1-.4-.3-.8-.5-1.2-.1-.1-.1-.1-.1 0s-.1.2-.1.3c0 .2 0 .3-.1.5-.2.2-.2.4-.3.7-.1.5-.3 1.1-.4 1.6-.1.4-.1.8-.1 1.3V31c0 .5.1 1 .2 1.5 0 .3.3.3.4.3.2 0 .2-.1.3-.3 0-.1.1-.2.2-.2s.2 0 .3-.1c.1-.1.1-.3.2-.5.1-.6.2-1.3.4-1.9 0-.1 0-.2-.1-.2s-.1 0-.1-.1c.1-.2.1-.4 0-.6 0 0 0-.1.1-.1.2-.1.2-.3.1-.4 0-.1-.1-.3-.1-.4-.1-.5-.2-.9-.3-1.2zm-6.6.3c0-.9-.3-1.8-.6-2.7 0 0 0-.1-.1-.1-.1-.2-.2-.2-.3 0-.1.2-.3.4-.3.7v.1c-.1.1-.2.3-.2.4-.1.4-.1.8.3 1.1l.1.1c-.1.4 0 .9 0 1.3s.1.8 0 1.1c-.1.6 0 1.3-.2 1.9 0 .1 0 .3.1.3.1.1.1.2 0 .3-.1.1-.1.2 0 .4s.3.2.5.2c.5 0 .7-.2.9-.6.2-.5.1-1 .1-1.5 0-.6 0-1.2-.1-1.8 0-.3 0-.5-.3-.7-.2-.1-.2-.2-.1-.4.1.2.2.1.2-.1zm.8 4c.1.3.1.5.2.8 0 .2.2.4.4.5.1.1.1.1.2 0 .1-.2.2-.1.3 0 .2.1.3.1.4-.1.1-.2.1-.4.2-.6.1-.3 0-.6.1-.9 0-.5 0-1.1-.1-1.6v-.5c0-.4.1-.9-.2-1.2-.1-.1-.1-.2-.1-.3 0-.1 0-.2-.1-.3-.1-.1-.2-.1-.1-.2.1-.4-.1-.8-.1-1.2 0-.1-.1-.2-.2-.2s-.1.2-.1.2v.3c.1.1.1.3-.1.4-.4.2-.4.3-.4.5-.1.3-.1.6-.1 1-.1.4-.1.8-.1 1.2 0 .3-.1.7.1 1v.1c-.2.3-.2.7-.2 1.1zm-4.8.7c0-.1 0-.2-.1-.3-.1-.1-.1-.2.1-.2.3 0 .3-.2.2-.4-.1-.6-.3-1.2-.2-1.8 0-.2 0-.4-.2-.5-.2-.1-.2-.3-.1-.4.1-.1.1-.2 0-.3-.1-.1-.1-.3.1-.4.2-.1.2-.3.1-.4-.1-.3-.2-.6-.2-.9 0-.3-.2-.5-.3-.7-.1-.1-.1-.2 0-.3.1 0 .1-.1 0-.2l-.1-.1c-.1 0-.1.1-.1.1-.2.6-.3 1.2-.4 1.8-.1.7-.1 1.5-.1 2.2 0 .1 0 .2.1.3.1.2.3.5.1.7-.1.1-.1.3-.1.4 0 .3.1.6.1.9 0 .6.3 1.1.5 1.6 0 .1.1.1.2.1s.2 0 .2-.1c-.1-.4.1-.7.2-1.1zm18.6-3.6c.1-.5-.1-1-.1-1.5 0-.2-.1-.4-.1-.6 0-.1 0-.1-.1-.1s-.1 0-.1.1c-.1.1-.1.3-.3.4-.1 0-.1.1-.1.2 0 .2-.1.4-.2.7-.3.8-.3 1.6-.2 2.4v.1c.1.1.1.3.1.5s-.1.3-.1.4c-.1.4-.1.8-.2 1.2-.1.4 0 .7.1 1.1 0 .1.1.2.2.2.2 0 .2-.1.3-.2.2-.5.2-1 .3-1.5v-.4c.1-.4.2-.7.2-1.1.2-.7.3-1.3.3-1.9zm-26.4-4.5c0 .1 0 .1.1.2 0 .3.3.6.3.8.1.3.3.6.3 1v.1c.2.1.2.3.2.6v.3c0 .1.1.1.2.1s.1-.1.1-.2c0-.3.3-.4.3-.7.2-.3.2-.6.3-.9 0-.3.1-.6.2-.9.2-.4.1-.9-.3-1.2h-.1c-.2 0-.2-.1-.3-.3 0-.2-.1-.2-.3-.2-.2 0-.3.1-.5.2-.2.2-.2.6-.6.7.2 0 .2.2.1.4zm20.7 5.5c0-.5 0-1.1-.2-1.7-.1-.3-.1-.5-.2-.8 0-.1-.1-.3-.3-.2-.1.1-.3.2-.3.3-.1.4-.3.8-.3 1.3v1.1c-.2.7-.1 1.4-.1 2.2 0 .2 0 .4-.1.6-.1.1-.1.3 0 .4.1.1.2-.1.3-.2.3-.4.5-.8.8-1.3.2-.6.4-1.1.4-1.7zm-5.5-5.3c-.1-.1 0-.2-.1-.3-.2-.2-.3-.5-.6-.6-.1 0-.1-.1-.1-.1-.1-.2-.3-.3-.5-.2-.2.2-.4.4-.5.6-.1.2-.1.4-.1.7 0 .3.1.5.2.8.1.3.2.7.2 1.1.1.3 0 .6.4.8.1 0 .1.1 0 .1-.1.2.1.4 0 .7 0 0 0 .1.1.1s.1 0 .1-.1v-.1c.2-.8.3-1.6.6-2.4.1-.5.2-.8.3-1.1zm9.3 2.4c0-.2 0-.3-.2-.4-.2-.1-.3-.1-.4.1-.1.2-.1.4-.2.5l-.3.9c-.1.3.2.6 0 .9 0 .6-.2 1.1.2 1.7.1.2.3.5.3.7 0 .2.2.2.3.2.1 0 .1-.1.1-.2 0-.4.2-.8.3-1.2.1-.8.1-1.6 0-2.4.1-.2-.1-.4-.1-.8zm-17.5-2.2c0-.4-.1-.7-.4-1l-.2-.2c-.1-.1-.1-.3-.3-.2-.1 0-.1 0-.2-.1-.2-.1-.4-.1-.5.1-.1.2-.1.3-.2.5-.1.1-.1.2-.1.3.1.3.2.6.2.9.1.3.1.6.2.8.1.3.3.6.3 1 0 .2.1.4.1.7 0 .1.1.2.2.2s.1-.1.1-.2c.1-.5.2-.9.2-1.4 0-.2 0-.5.1-.7.4-.1.4-.4.5-.7zm-3.5 5.4V29c-.1-.3-.2-.7-.2-1 0-.1 0-.2-.1-.2-.1-.1-.1-.1 0-.2s.1-.2.1-.2c-.2-.2-.1-.4-.1-.6v-.2c0-.1-.1-.1-.1-.1-.1 0-.1 0-.1.1-.1.2-.2.3-.2.4-.1.2-.2.5-.4.7-.2.1-.2.3-.1.4 0 .2 0 .5.3.6.1 0 .1.1.1.2-.1.2-.1.3-.2.4-.1.1-.1.1-.1.2 0 .4.2.6.3 1 .1.3.3.4.5.7.1.2.1.3.2.5.1.1.1.1.2.1s.1-.1.1-.2c0-.2 0-.4.1-.6 0-.1 0-.2-.1-.3-.1 0-.1-.1 0-.2.2-.1.2-.3.2-.6-.4-.1-.4-.3-.4-.4zm13.5-4c.1.1.1 0 .1-.1.1-.3.3-.5.3-.8 0-.1 0-.2.1-.3 0 0 .1-.1 0-.1-.2-.1-.2-.2-.3-.4-.1-.4-.4-.6-.7-.8-.2-.1-.3-.1-.5.1-.4.5-.5 1-.2 1.6.1.2.1.4.3.6.1.1.1.2 0 .3-.1.1-.1.2 0 .3.1.2.1.5.2.8.1.4.1.7.2 1.1 0 .1 0 .1.1.1s.1-.1.1-.1c.1-.5.2-.9.3-1.4 0-.2.1-.4-.1-.6 0-.1-.1-.1 0-.2-.1-.1 0-.2.1-.1zM24 24.4c0-.3 0-.5-.3-.7l-.1-.1c0-.2-.2-.4-.3-.5-.1-.2-.4-.2-.6-.2-.4.1-.7.5-.5 1 .1.2.1.3.2.5.3.4.2.9.5 1.3 0 .4.1.7.2 1 0 0 0 .1.1.1 0 0 .1 0 .1-.1s.1-.2.1-.4c0-.3.1-.5-.2-.7-.1-.1-.1-.1-.1-.2.1-.1.1 0 .2 0 .2.1.3.1.3-.1.4-.3.5-.6.4-.9zm11.9 1.7c0 .3.1.6.1.8 0 .1 0 .2.1.2s.1-.1.2-.1c.1-.1.1-.3.2-.4.1-.4.3-.7.3-1.1 0-.1 0-.2.1-.2.2 0 .2-.1.3-.3.1-.2 0-.3-.1-.5-.1-.1-.2-.1-.3-.1-.2 0-.1-.1-.1-.2.1-.1-.1-.4-.2-.5-.2 0-.3 0-.4.2-.1.1-.1.3-.2.4-.3.3-.3.6-.1 1v.1c0 .3 0 .5.1.7zm-2 4.9c0-.1-.1-.1-.1-.2-.1-.3-.2-.5-.4-.8-.1-.2-.2-.2-.4 0-.5.5-.5 1.2-.5 1.8 0 .1.1.1.1.1.1 0 .1 0 .2.1 0 .1 0 .1-.1.2s-.2.2-.2.3c-.1.3.1.5.4.4.4-.1.5-.2.5-.6 0-.3.2-.6.2-1v-.1c.3 0 .3-.1.3-.2zm-4.2-5.7v.5c.1.5.3 1 .3 1.5 0 .1 0 .1.1.1s.1-.1.1-.1c0-.2.1-.3.2-.4 0-.2.2-.4-.1-.5-.1 0 0-.2 0-.2.1-.1.1-.2.1-.3 0-.1.1-.2.2-.3.2-.2.1-.4.1-.6-.1-.2-.3-.4-.4-.7-.1-.3-.4-.2-.6-.5 0-.1-.2 0-.2 0-.1.1-.1.1 0 .2s0 .2 0 .3c-.1.1-.1.2 0 .3.2.2.2.5.2.7zm-9.8-2c0-.3-.5-.7-.8-.5-.1.1-.2.1-.3.3-.1.2-.2.5-.3.7-.2.3-.2.5 0 .8.1.2.1.4.2.6 0 .1.1.2.1.2.1.1.2.1.2 0 .1-.2.2-.5.3-.7.1-.4.2-.9.5-1.2.1-.1.1-.2.1-.2zm13.5.9c0-.4-.5-.7-.9-.6-.2.1-.5.1-.6.5v.1c-.2.1-.1.3 0 .4.1.4.4.7.5 1 .1.2.3.2.4.2.1 0 .2-.2.2-.3.1-.3.2-.6.3-.8 0-.2.1-.4.1-.5zm-12.5-1.3c-.3 0-.3.3-.5.5-.1.1.1.1.2.2v.1c.1.4.4.7.5 1l.1.1c.1 0 .1-.1.1-.1v-.1c.1-.3.2-.6.2-.9 0-.1.1-.3 0-.4-.1-.3-.4-.3-.6-.4zm-11.7-.3c0 .1 0 .2.1.2.2.1.2.2.3.4.1.2.3.4.4.7 0 .1.2.2.2.3 0 .1.1.1.2.1.2 0 .4-.4.3-.6-.1-.2-.2-.3-.3-.5 0-.1-.1-.2-.3-.3-.1 0-.2-.1-.2-.2 0-.2-.2-.3-.4-.4-.1 0-.3.1-.3.3zM11 33c.3 0 .5-.3.7-.4.1-.1.2-.4.1-.6-.1-.2-.1-.3 0-.4 0-.1 0-.2-.1-.2s-.2-.1-.3 0c-.1.2-.3.4-.4.6-.2.2-.2.5-.3.7 0 .2.1.3.3.3zm10.1-4.1v.7c0 .3.1.5.1.8 0 .1 0 .1.1.1s.1-.1.1-.1v-.1c0-.5.1-1 0-1.4v-.1c.1-.3.1-.5-.1-.7 0 0 0-.2-.1-.1-.1 0-.1.1-.1.2v.7zm-10.5.8c.1-.1.2-.4.3-.5.1-.1.2-.2.2-.4l-.3-.9c0-.1-.1-.2-.2-.2s-.1.1-.2.2c-.1.3 0 .6-.1 1-.1.3 0 .6.3.8zm23.3-4.3v-.2c0-.1-.1-.3-.2-.3-.2 0-.3.2-.3.3-.1.5-.1 1-.3 1.4v.2c0 .1.1.1.1 0 .5-.4.7-.9.7-1.4zm-18.6-1.2c-.2.1-.2.3-.3.4-.3.3-.5.7-.4 1.2 0 .1.1.2.2.2s.1-.1.2-.2c.1-.2.1-.5.2-.7.1-.3.2-.5.1-.9zm19.1.6c.1-.1.1-.3.2-.4.1-.1.1-.3 0-.4-.1-.2-.3-.3-.5-.2-.1 0-.1.1-.2.2 0 .1 0 .2.1.2h.1c0 .3.3.4.3.6zm-23.1 1c-.1-.3-.2-.7-.3-1 0-.1-.1-.1-.2 0-.1.2-.1.3-.1.5s.2.4.3.6c0 .1.1.2.2.1.1 0 .1-.1.1-.2zm2.7-2.4c.1 0 .1-.2.2-.2.3-.1.3-.4.4-.6 0-.1 0-.1-.1-.2-.1 0-.1 0-.1.1v.1c-.4.2-.5.4-.4.8zm5.3 9.6c.1 0 .2 0 .2-.2 0-.1-.2-.4-.3-.4-.2 0-.2.2-.2.4.1.1.2.2.3.2zm3.4-.5c-.2 0-.5.1-.5.2s.1.2.2.2c.2 0 .4-.1.4-.3 0 0 0-.1-.1-.1z"/><path fill="none" d="M9 4.5h27v9H9z"/><path fill="#010101" d="m12.8 13.5-1.4-6.7h1.9c.2 1.3.5 3.3.6 4.7.3-1.4.6-3.1.9-4.7h1.6c.3 1.3.7 3.2.9 4.6.2-1.4.6-3.6.7-4.6h1.8l-1.6 6.7h-1.9c-.3-1.4-.6-2.9-.8-4.2-.2 1.3-.6 2.9-.9 4.2h-1.8zM21.9 6.8v6.7h-1.8V6.8h1.8zM24.5 10.9v2.6h-1.8V6.8h3c1.5 0 2.3.8 2.3 1.8 0 .9-.5 1.3-1 1.6.7.3.9.8.9 1.6v.2c0 .6 0 1.1.1 1.5h-1.8c-.1-.3-.1-.7-.1-1.5v-.2c0-.7-.2-.9-.9-.9h-.7zm0-1.3h.8c.5 0 .9-.2.9-.8 0-.5-.3-.7-.8-.7h-.9v1.5zM33.2 10.7h-2.8v1.4h3.1l-.2 1.4h-4.7V6.8h4.7v1.4h-2.9v1.1h2.8v1.4z"/></svg>