<svg version="1.2" baseProfile="tiny" xmlns="http://www.w3.org/2000/svg" viewBox="0 0 45 45" overflow="visible" xml:space="preserve"><path fill="none" d="M0 0h45v45H0z"/><path fill="#FFF" d="M9.4 40.4H4.8c-.2 0-.3 0-.3-.3V5c0-.2 0-.3.3-.3h22.9c-.1.1-.2.2-.3.1-.1 0-.2 0-.2.1 0 .3-.3.4-.4.6 0 .1-.1.1 0 .2-.1.3-.2.3-.4.3-.4 0-.8-.2-1.1.2 0-.1 0-.3-.1-.3-.4-.2-.2-.5-.1-.7 0-.1 0-.2-.1-.2-.2 0-.3-.1-.5-.1s-.3 0-.3.3c0 .2 0 .4-.1.6-.1.3-.1.5 0 .8.1.6.1.8-.5.7h-.2c-.2 0-.2-.1-.3-.3 0-.3 0-.3.2-.4.4-.1.5-.3.5-.7 0-.3-.2-.5-.1-.8.1-.2 0-.3-.2-.3h-.8c-.2 0-.2.1-.2.3 0 .1.1.1 0 .2-.1 0-.2 0-.3-.1-.2-.4-.6-.4-1-.4h-1.8c-.4 0-.8-.1-1.1-.1-.6 0-1.1.2-1.7.1-.1 0-.2 0-.2.1-.1.1 0 .2 0 .2.2.1.2.3.4.4.2.2.3.4.4.5.1.2.1.4 0 .6-.1.1 0 .2 0 .3.1.5.1.9-.2 1.3l-.1.1c-.3 0-.3.1-.3.4.1 0 .1-.3.3-.1.1 0 .1.1.1.3v.2c-.1.2 0 .3 0 .5s.2.3.4.4c.1.1.1-.1.2-.1s.2 0 .2.1c.1.3.4.5.3.8-.1 0-.1.1-.1.1-.2.1-.3.2-.1.4l.3.3c.2.2.2.5-.1.6-.1 0-.1.1-.1.1 0 .1.1.2.2.3.2 0 .2.2.3.3.1.4 0 .8.3 1.1.1.1 0 .3-.2.4-.2.1-.3-.1-.3-.2 0-.3-.2-.3-.4-.1 0-.1-.1-.3-.1-.4 0-.1 0-.2-.1-.2s-.1.1-.2.2c-.2.5-.1 1 0 1.5.1.4-.1.8-.5.8-.1 0-.1.1-.1.1 0 .1.1.2.2.2.3.1.3.2.2.5 0 .1-.1.1 0 .2-.2 0-.1.1-.2.2-.1.3 0 .5 0 .8 0 .1-.2.2 0 .3.1.1.1.2 0 .3-.1.1-.1.2-.2.3-.1.3-.6.6-.9.4-.2-.1-.4-.1-.6.1-.3-.2-.7 0-1.1-.1-.3-.1-.6-.1-.9 0-.1 0-.1 0-.1.1 0 .2-.1.2-.3.1-.2-.2-.3-.3-.3-.6s0-.6-.1-.9v-.3c.2-.4.2-.6-.3-.7-.2 0-.5 0-.5-.3s-.3-.4-.5-.4c-.4-.1-.7.1-.9.5-.1.2-.1.4-.4.3-.1 0-.4 0-.2.3v.2c0 1-.1 2 0 3 .1.9 0 1.8 0 2.7 0 .2 0 .4-.1.6-.3.4-.7.8-1 1.3L7.5 27c-.4.5-.7.9-1.1 1.4-.2.3-.6.5-.6.9 0 .2-.1.5-.2.7-.1.2-.2.3-.3.4v.2c0 .1.1.1.1 0 .4-.6.6-.3.7-.2.2.2.4.5.2.7-.2.4-.3.8-.6 1.1-.1 0-.1.1-.1.2s.1.1.2.1c.4 0 .5.2.6.6 0 .5 0 1-.1 1.5 0 .2-.1.3-.3.3-.3 0-.5 0-.8.1-.1 0-.2 0-.2.1s0 .2.1.2.2.1.2.2-.2.1-.3.2c-.4.1-.4.1-.4.6v.2c0 .3 0 .4.3.4.2 0 .4 0 .4.2.1.4.3.5.7.5.1 0 .1.1.1.2s0 .2-.1.1c-.1 0-.3 0-.4.1-.1-.1-.1-.1-.2 0h-.1c-.1 0-.2-.1-.3-.1-.1-.1-.2-.1-.3 0 0 .1 0 .2.1.2s.2 0 .2.2c0 .1-.1.1-.2.1s-.1 0-.1.1.1.1.1.1h.3c.1.1.2 0 .3 0 .1.2.1.3-.1.3s-.4-.1-.6 0c-.1 0-.2 0-.2.1s.1.1.2.1c.3.2.7.1 1.1.3 0 .1 0 .2.1.3 0-.1.1-.2 0-.3.3.1.6 0 .9.1v.1s.1 0 0-.1c.3 0 .5 0 .6.3 0 .1.1.1.2.2 0 .1 0 .1.1.1.2.1.5-.1.7-.1.2 0 .3.2.4.4.1.1.1.3.3.1.2-.4.3-.2.3-.1zm-2.8-.5c0-.1-.1-.2-.2-.1-.1 0-.3.1-.4.1 0 0-.1 0-.1.1s.1.1.1.1c.2 0 .3 0 .5.1 0-.2.1-.2.1-.3z"/><path fill="#382D2B" d="M6.8 39.3c-.3-.1-.6 0-.9-.1h-.1c-.3-.2-.7-.1-1.1-.3-.1 0-.2 0-.2-.1s.1-.1.2-.1c.2-.1.4 0 .6 0 .3 0 .3-.1.1-.3 0-.2.2-.4.1-.6.1 0 .2-.1.4-.1.1 0 .1-.1.1-.1 0-.1 0-.2-.1-.2-.3 0-.6-.1-.7-.5 0-.2-.3-.2-.4-.2-.3 0-.4-.2-.3-.4v-.2c0-.5 0-.5.4-.6.1 0 .3 0 .3-.2 0-.1-.1-.2-.2-.2v-.2c0-.1.1-.1.2-.1.3 0 .5-.1.8-.1.2 0 .3-.1.3-.3.1-.5.1-1 .1-1.5 0-.4-.2-.5-.6-.6-.1 0-.1 0-.2-.1 0-.1 0-.1.1-.2.4-.3.4-.7.6-1.1.1-.2-.1-.5-.2-.7-.1.1-.3-.2-.6 0h-.1V30c.1-.1.2-.3.3-.4.1-.2.2-.4.2-.7 0-.4.4-.6.6-.9.3-.5.7-1 1.1-1.4l1.2-1.8c.3-.4.7-.8 1-1.3.1-.2.1-.4.1-.6v-2.7c-.1-1 0-2 0-3V17c-.1-.3.1-.3.2-.3.3 0 .3-.1.4-.3.1-.3.5-.5.9-.5.2 0 .4.1.5.4 0 .3.3.3.5.3.5.1.5.2.3.7-.1.1 0 .2 0 .3.1.3.1.6.1.9 0 .3.1.4.3.6.2.1.2.1.3-.1.3-.1.5-.1.8 0h.5c.2 0 .3-.1.5-.1.2.1-.1.3.1.4.1-.1.1-.3.2-.4.2-.2.4-.2.6-.1.3.2.9-.1.9-.4 0-.1.1-.2.2-.3.1-.1.2-.2 0-.3-.1-.1 0-.2 0-.3v-.8c0-.1 0-.2.2-.2v.4c0 .1 0 .1.1.1s.1 0 .1-.1c-.1-.2 0-.4-.2-.5v-.2c.1-.2.1-.4-.2-.5-.1 0-.2-.1-.2-.2s0-.1.1-.1c.4 0 .6-.3.5-.8-.1-.5-.2-1 0-1.5 0-.1.1-.2.2-.2s.1.1.1.2.1.2.1.4c.2-.2.4-.2.4.1 0 .1.1.3.3.2.1 0 .3-.3.2-.4-.2-.3-.2-.7-.3-1.1 0-.2-.1-.3-.3-.3-.1 0-.2-.2-.2-.3 0-.1 0-.1.1-.1.3-.1.4-.3.1-.6l-.3-.3c-.1-.2-.1-.3.1-.4 0 .1 0 .2.2.2 0 0 .1 0 .1-.1.1-.1 0-.2-.1-.3.1-.3-.1-.5-.3-.8 0-.1-.1-.1-.2-.1s-.1.2-.2.1c-.1-.2-.3-.2-.4-.4 0-.2-.1-.3 0-.5v-.2c0-.2 0-.3-.1-.4-.2-.1-.2.2-.3.1-.1-.3 0-.4.3-.4.1 0 .1 0 .1-.1.3-.4.3-.8.2-1.3 0-.1-.1-.2 0-.3.1-.2.1-.3 0-.6-.1-.2-.1-.4-.4-.5-.2-.1-.2-.3-.4-.4-.1 0-.1-.1 0-.2s.1-.1.2-.1c.6.1 1.1 0 1.7-.1.4 0 .8 0 1.1.1h1.8c.4 0 .8 0 1 .4.1.1.2.1.3.1.1-.1 0-.1 0-.2 0-.2 0-.3.2-.3h.8c.2 0 .2.1.2.3-.1.3.1.5.1.8 0 .4-.2.6-.5.7-.2 0-.2.1-.2.4 0 .2.1.3.3.3h.2c.6 0 .6-.1.5-.7 0-.3-.1-.5 0-.8.1-.2.1-.4.1-.6 0-.2.1-.3.3-.3.2 0 .3.1.5.1.1 0 .1.1.1.2-.1.2-.3.5.1.7.1 0 .1.2.1.3 0 .4 0 .9-.3 1.2-.2 0-.3 0-.5-.1-.1-.2.1-.2.2-.3v-.1c0-.1.1-.3 0-.4-.1-.1-.1 0-.2 0-.1.1-.2.2-.2.3 0 .4-.1.9-.3 1.3-.2.3-.1.6-.2.8 0 .1 0 .2.1.2s.2 0 .2-.1c.1-.1.1-.3.2-.4.1.1.2.1.1.3-.1.3-.1.6-.1.9-.1.4 0 .8-.4 1-.1 0 0 .1 0 .2s0 .2-.1.2-.1.1-.1.2c-.1.5-.2 1.1-.4 1.6-.1.2-.1.4-.4.4-.1-.2-.2-.4-.1-.6l.3-.9c.1-.2.2-.4 0-.6l-.3.3c-.2.2-.4.3-.6.6 0 .1-.1.3-.2.2-.3-.2-.3.1-.4.2-.1.2 0 .4.1.6 0 .1.1.2.1.3-.2 0-.2-.4-.4-.2-.2.3-.5.5-.4.9 0 .1 0 .3-.2.3s-.3.2-.2.4c.2.2.1.5.1.8v.2c-.3-.1-.3.2-.3.4l-.1.1c-.4.2-.5.4-.2.8v.1c.1.3-.1.6-.3.9-.1-.1 0-.1 0-.2s0-.2-.1-.3c-.1 0-.1.1-.2.2-.2.2-.4.5-.4.8 0 .1-.1.2-.2 0 0-.1 0-.1-.1-.1-.2.4.1.8.5.8.1 0 .5.1.6.1 0 .1-.1.1-.1.2-.1 0-.2 0-.3.2-.2.4-.3.9-.2 1.3h.1c.1-.1.1-.3.2-.5.1 0 .3.1.4-.1 0-.1.2 0 .1.1-.1.3-.2.6-.4.8-.3.2-.5.5-.7.8-.2.1-.2.3-.3.5-.2.4-.4.8-.3 1.3 0 .1-.1.2-.1.2-.2.2-.1.3.1.5s.3 0 .3-.1c.2-.3.5-.4.6-.8.2-.4.6-.6.8-.9.1-.2.2-.5.5-.6 0 0 0-.1.1-.1.3-.3.4-.7.8-1 .3-.2.3-.3.5.1 0 .1.1.2.2.2s.2-.1.2-.3c0-.1-.1-.2.1-.2 0 .1.1.2.1.3.1.2.4.4.6.2.1-.2.4-.2.5-.5.1-.2.2-.2.3-.1-.1.1-.1.3-.2.4-.3.3-.5.5-.5 1 0 .3-.3.3-.4.5-.3.4-.4.9-.6 1.3 0-.1 0-.2-.1-.2s-.1.1-.2.2l-.9 1.2c-.1.2-.2.4 0 .6.1.1.2.2.2.4s.1.4.2.4.3-.1.4-.3c.1-.2.2-.4.4-.5.4-.4.6-.8.9-1.2.3-.3.4-.8.8-1.1.2-.1.1-.4.2-.5.2-.3.4-.6.7-1 .1-.1.1-.2.2-.2.1.1.1.2 0 .3l-.3.6c-.1.2-.1.3 0 .5 0 .1.3.3.1.5-.3.2-.3.5-.4.8 0 .2-.3.4-.4.3-.5-.2-.4.2-.5.4 0 .1 0 .2-.1.2-.4.1-.6.4-.6.8 0 .2-.1.5-.3.6-.4.1-.5.4-.7.7C21.3 28 21 28 21 28.3c-.3-.1-.2.1-.2.2s0 .2-.1.3c-.2.3-.4.6-.5 1 0 .1-.1.2.1.2.1 0 .2.1.3 0 .1-.3.3.1.4 0 0 .1.1.1 0 .2l-.1.1c-.2-.1-.4.1-.6-.1-.1-.1-.3-.1-.3 0-.1.1-.4.2-.3.5.1.3 0 .6.3.8.1.1.1.2.1.2-.1.1-.1-.1-.2-.1l-.1-.1v.1c-.2.2-.3.1-.4-.1-.2-.3-.1-.7-.1-1 0-.2 0-.2-.1-.3.1-.2.1-.4 0-.6 0-.4.1-.9-.2-1.3 0-.1.1-.3-.1-.2-.1.1-.4 0-.5.3 0 .2.1.4.1.5-.1.3.1.7.1 1-.1-.1-.1-.2-.2-.2-.1-.4-.1-.8-.2-1.2-.4.1-.2.5-.2.7 0 .3.1.5.4.6 0 .1.1.2.2.3.1.1.3 0 .2.2-.1.1.1.3-.1.4 0-.1 0-.2-.1-.3 0-.1-.1-.2-.2-.2-.2.1-.4.2-.4-.1-.3.3-.7.3-1.1.3-.2 0-.2.1-.2.3.1.3.1.7.3 1 0 0 .3.3-.1.3-.1 0-.1.1-.1.2 0 .2.1.3.2.4 0 0 .1.1.2 0 .1 0 .1-.1.1-.2s-.2-.2-.1-.3h.2c.2.3.4.4.6.6.3.3.6.6.8 1 .1.1.3 0 .4.2.1.2.2.2.4.3.1 0 .3.2.4.1.1-.1 0-.3-.1-.5-.4-.2-.4-.6-.5-.9h.1c.2.1.6.1.4.5-.1.1.1.2.3.3.2.1.4 0 .6.3 0-.1.1-.2.1-.3.1-.6 0-.8-.6-1-.2-.1-.3-.2-.3-.4-.1-.1-.1-.2 0-.3.1-.1.2.1.2.1.1.1.1.3.3.2.1-.1.2 0 .2.1.2.2.3.5.3.8 0 .2-.1.4.1.6v.2c-.1.1-.1.3-.1.5 0 .4-.1.9 0 1.3-.1.1-.1.3-.1.4.1.6.1.6-.5.4 0 0-.1 0-.1-.1-.2-.1-.4 0-.4-.3 0 .1 0 .2-.1.3h-.3v-.1s-.1 0 0 .1h-.1c-.1-.1-.3-.1-.5.1-.4-.2-.5-.5-.4-.9 0-.2 0-.3-.1-.4-.3-.3-.5-.6-.9-.9-.1-.1-.1-.1-.1-.2s.1-.1.2 0c.2.1.4.1.6 0h.2c.2.1.3 0 .2-.2-.1-.3-.2-.5-.6-.6-.2-.1-.4-.2-.5-.4 0-.1-.1-.2-.2-.2-.3.1-.3.2-.2.3l.1.1c0 .1 0 .3-.1.3s-.1-.1-.1-.2 0-.2-.1-.3c0-.1 0-.3-.2-.3s-.4-.2-.4-.4c-.1-.3-.2-.6-.5-.7l-.1-.1c-.1-.3-.2-.5-.6-.4-.4.1-.9.1-1.3-.1-.2-.1-.4 0-.6 0h-1c-.3 0-.6 0-1-.1-.5-.1-1 0-1.5 0-.4 0-.8.1-1.2.1-.4 0-.8.4-.7.8.1.7.1 1.4.1 2.2 0 1.4.2 2.7.3 4.1 0 .1 0 .3.2.3.1 0 .2 0 .2.1s-.1.1-.2.1c-.2.1-.1.3-.1.5 0 .1.2.2.2.1.2-.3.5-.2.7-.1.2 0 .4.1.6.1 0 .2-.1.4 0 .6.1 0 .1-.1.1-.2 0-.2 0-.4.3-.4 0 0 .1 0 .1-.1.5-.1 1 .1 1.5 0 .1 0 .4-.1.5 0 0 .1 0 .1.1.1s.1 0 0-.1h.3v.1c-.2 0-.2.1-.2.3 0 0 0 .1.1.1.1-.1.1-.2.1-.3v-.1c.1 0 .2 0 .2-.1h.1c0 .3.3.2.4.4.1-.2.2.1.3.1.1.1.3.3.5.3h.9c.6 0 1.2.1 1.9.1.2 0 .4 0 .5-.1.2-.3.3-.2.4 0 0 .1.1.1.2.1 0 .2-.2.3-.1.4-.3.1-.1-.3-.3-.2.1.2 0 .3-.3.2h-1.2c-.2-.1-.3 0-.5 0-.1-.2-.3-.2-.4-.3-.4-.1-.7.2-1.1 0 0 0-.2-.1-.3 0-.3.3-.6.2-1 .2-.2 0-.5.1-.6-.2 0-.1-.2-.1-.3-.1 0-.1-.1-.1-.1 0h-.2c0-.1.2-.2 0-.4 0 .1-.1.2-.1.3-.1.1-.2.2-.3.1-.3-.1-.5-.1-.8-.1-.5 0-.9.1-1.2.5h-.1c0-.1-.1-.3-.3-.1-.2.1-.2 0-.3-.1-.1-.1-.2-.3-.4-.4 0-.2-.1-.2-.3-.4.2.3 0 .3-.1.3-.1.1-.2-.1-.3 0-.1 0-.2-.1-.2-.2.1-.2-.2-.2-.5-.2zm2.8-9.9s0-.1 0 0zm7 .3c0-.1 0-.3-.1-.3 0 0-.1 0-.1.1l.2.2zm-3.7-.8c-.1.1-.1.2 0 .2.1.1.2 0 .3-.2.2 0 .2-.1.2-.3 0-.1-.1-.3-.2-.2-.2.2-.4.3-.3.5zm-2.7.2c.2-.1.3-.3.2-.5 0-.1 0-.1-.1-.1s-.4.4-.4.6c.2.2.3.4.4.6.2-.2.2-.3-.1-.3v-.3zm7.4-20.3c.1-.2 0-.4.1-.5.2-.3 0-.3-.2-.4 0 .3 0 .6.1.9-.4.1-.4.3-.3.6.1.1.1.3.2.2.2-.1.1-.2.1-.3-.1-.1-.1-.3 0-.5zm.2 18.9v-.8c.2 0 .2.1.2.3 0 .1 0 .2.1.3.1.1.2 0 .3-.1.2-.1.3-.4.5-.5.4-.4.4-.9.7-1.3v-.2c0-.2-.1-.3-.2-.3s-.3.1-.3.2c0 .2-.2.3-.3.5-.3-.1-.5.1-.7.3-.1.1-.2.4-.4.6-.1.1-.2.3-.2.4-.1.2-.1.4-.1.7 0 .2-.1.3.1.4.2.1.3-.1.4-.2.2 0 .1-.2.3-.4-.2 0-.3.1-.4.1zm-2.9 1.7c0 .1 0 .2.1.2 0-.1.1-.1 0-.2.1-.2.2-.5.4-.7.1-.1.1-.3.1-.5 0-.1-.1-.2-.2-.2-.2 0-.3 0-.3.1 0 .5-.2.8-.1 1.3zm2 .2c0 .1 0 .2.1.3h.1c.1-.1 0-.1 0-.2.1-.1.3-.2.2-.3-.2-.3-.1-.6-.2-.9 0-.1-.1-.2-.2-.2s-.1.1-.2.2c-.3.4 0 .8.2 1.1zm-3.3-3.4c-.2.4-.4.8-.7 1.2-.1.1-.1.2-.2.3v.2c.1.1.1 0 .2-.1s.2-.2.3-.4c.2-.3.3-.6.6-.8.1-.1.1-.3.1-.4 0-.2-.1-.1-.2-.1-.1-.2 0-.4-.1-.5-.1.2-.1.4 0 .6zm-6.3 8c0-.1.1-.1.1-.2s.1-.1 0-.2h-.1c-.1 0-.1.1-.1.2s0 .1.1.2c-.4 0-.5.2-.3.5v.4c-.1.3-.1.5 0 .8 0 .3.1.4.3.5.1-.4.2-.8-.1-1.2V35c.2-.3.1-.5.1-.8zm9.3-10.8c-.1.1-.1.2 0 .3.1.1.1 0 .2-.1 0-.1.1-.1.1-.1.1-.2.1-.4.4-.5.1 0 .1-.1.1-.1 0-.1.1-.2.2-.2s.1.2 0 .3v.3h.1c.1-.1.1-.1.1-.2-.1-.2 0-.4-.1-.6-.1-.1 0-.3.2-.3s.2-.1.3-.3c0-.1.1-.3.1-.4.1-.2 0-.4-.1-.6-.1.3-.1.5-.2.7-.5.5-.8 1.1-1.2 1.6-.1 0 0 .1-.2.2zm-.3.9c0-.1 0-.2-.1-.2s-.1 0-.2.1c-.1.2-.2.3-.4.4-.2.1-.5.3-.5.5-.1.4-.3.6-.5.9-.1.2-.3.2-.4.4-.1.3-.4.6-.6.8-.1.1-.2.3-.2.4.1.2 0 .4-.1.5 0 0-.1.1 0 .2 0 .1 0 .1.1.1s.1 0 .1-.1c.1-.2.2-.3.3-.4.3-.4.5-.7.8-1.1l.6-.9c.1-.1.3-.1.3-.3 0-.3.2-.5.4-.7.2-.1.3-.4.4-.6zm3.3 3.5c0 .2.1.4-.1.4-.4.1-.5.4-.5.7 0 .3.1.5.1.8.1.2.3.1.4.1.1 0 .1.1.2 0s0-.2-.1-.2c-.1-.1-.1-.1-.1-.2.2-.3.3-.6.6-.9.2-.2.1-.9 0-1.1-.1-.2-.4-.4 0-.7 0 0 .2-.1.1-.2s-.2-.1-.3 0c-.2.3-.5.6-.7.9-.1.2-.1.3 0 .4.3.3.2 0 .4 0zm.3-3.1c0 .1 0 .1.1.2 0 .1 0 .2.1.2s.2-.1.2-.2.1-.1.2-.2c.5-.3.9-.8 1.1-1.4.1-.2.1-.5.2-.7.1-.2.2-.4.2-.6 0-.1 0-.1-.1-.2h-.2c-.2.1-.2.3-.3.4-.3.3-.6.5-.7.9 0 .1-.1.2-.2.3-.4.4-.5.8-.6 1.3zm-8 2.3c0 .2 0 .4.3.3.2-.1.3-.2.4-.3.2-.2.4-.5.5-.7.4-.6.7-1.2 1.2-1.7.1-.1.1-.3 0-.4-.1-.1-.2 0-.2.1-.3.5-.7.8-1 1.2-.3.4-.5.9-.9 1.3-.2.1-.3.2-.3.2zm3.2-6.1c0-.1 0-.2-.1-.2s-.2 0-.2.1c-.1.1-.1.3-.2.4-.3.3-.5.6-.7 1-.3.4-.6.9-.9 1.3-.1.1-.1.2-.1.3l.1.1c.1-.1.2-.1.2-.2 0-.2.1-.3.2-.4.3-.2.5-.5.8-.8.4-.4.6-.9.9-1.4v-.2zm1.6 5.4c0-.1 0-.2-.1-.3-.1 0-.2 0-.2.1-.2.3-.4.6-.2 1 0 .1 0 .2.2.2.1 0 .2-.1.2-.2.1-.2 0-.5.1-.8zm-2-3.2c.5 0 .6-.1.6-.5 0-.2-.1-.3-.2-.3-.3 0-.6.4-.6.6 0 .2.1.3.2.2zm2.7-3.4c.1.1.1.2 0 .3-.2.2-.1.4 0 .5.1.1.3.1.3 0 0-.2.2-.3.3-.5.2-.2-.2-.2-.2-.4-.2.4-.3.2-.4.1zm1.4-9.8c0-.2 0-.3-.1-.5 0 0 0-.1-.1-.1s-.1.1 0 .1c.1.1 0 .2-.1.2s-.2 0-.2-.1.1-.6.1-.6c.1 0 .1 0 .1-.1s-.1-.1-.2-.1-.1 0-.1.1c-.1.2-.1.5-.1.7 0 .1.1.3.3.3.2 0 .2 0 .1.2 0 0-.1.1 0 .1.1.1.1 0 .2 0 .1-.1.2-.1.1-.2zM9.7 27.3c.1 0 .2-.2.3-.2.2 0 .6-.6.5-.8 0-.1 0-.1-.1-.2-.1 0-.1 0-.2.1-.2.2-.3.4-.5.6 0 .1-.1.3 0 .5zm7.5-2.2c-.2.1-.1.3-.2.4-.2.3 0 .6-.1.9 0 .1.1.1.1.1.1 0 .1-.1.1-.1.2-.4.3-.8.1-1.3zm-4.4-1c0-.1 0-.2-.1-.3-.1 0-.1 0-.1.1s-.1.1-.2.1c-.2 0-.4.2-.4.4 0 .1.1.3.2.4 0 0 .1.1.2 0 .1-.2.3-.5.4-.7zm6.6-7.2s-.1.1 0 0c-.1.3-.3.4-.4.6-.1.1-.1.3.1.4.2.1.3-.1.3-.2.1-.2.1-.4.2-.6-.1-.1-.1-.2-.2-.2zm-2.8 4.6c.2-.2.3-.3.5-.4.1-.1.2-.2.1-.3-.1-.1-.2-.1-.3 0-.4.1-.3.4-.3.7zm5.5-15c0 .2.2.3.3.3h.1c0-.2-.1-.4-.1-.6h-.1c-.1.1-.2.2-.2.3zM10.8 19.4c-.1.1-.2.1-.3.2-.1.1-.2.3-.1.4 0 .1.1.1.1.1.1 0 .1-.1.1-.1.1-.2.2-.4.2-.6zm11.8-8.7c0 .1-.1.3.1.3s.2-.2.2-.3c0-.2.1-.4-.1-.5-.2 0-.2.3-.2.5zM7.4 37.9c.2-.4.1-.4-.2-.7-.1.4-.1.4.2.7zm4.2-20.7c-.1-.3-.3-.5-.1-.9-.3.3-.3.5.1.9zm1.2 7.7c-.2.3-.3.5-.2.8-.1-.3.5-.4.2-.8zm2.5-4.2c.1-.2.3-.3.1-.5h-.1c-.1.1-.2.3 0 .5zm7.6-12.3c-.1-.1 0-.2-.2-.2-.1 0-.2 0-.2.1s0 .2.1.2.3 0 .3-.1zm-8.7 12.1c0 .1 0 .2.1.3.1 0 .1-.1.1-.1-.1-.1.1-.4-.2-.4-.2-.1.1.1 0 .2zM6.4 37.3v.5c0 .1 0 .1.1.1h.1c-.1-.2.1-.4-.2-.6zm8.1-10c-.1.2 0 .4 0 .6 0 0 0 .1.1.1s.1-.1.1-.1c0-.2-.1-.4-.2-.6zm3.6-10.4c.2-.2.2-.2 0-.6 0 .2-.1.3 0 .6zm-2 13.3c.1-.1 0-.2 0-.3-.1-.1-.2-.1-.2-.1-.1 0-.1.1-.1.1 0 .1.1.1.2.1 0 0-.1.2.1.2zm-6-9.8c-.1.2-.1.4 0 .7 0-.3.2-.5 0-.7zm2.6 2.8c0-.3 0-.3-.2-.6-.1.3 0 .5.2.6zm7.5 11.9c-.1-.1 0-.2-.1-.2-.2 0-.1.2-.1.2 0 .1.1.2.2.2v-.2zm-9.3-13c-.1.2 0 .3.1.5 0 .1.1.1.1.1.1 0 .1-.1 0-.2s-.2-.2-.2-.4zM7.6 34.7c.1-.2.1-.4.1-.6 0-.1 0-.1-.1-.1h-.1c.2.3 0 .5.1.7zm.2 5c.1-.2.3-.3.2-.4 0 0-.1-.1-.2-.1-.1.1 0 .3 0 .5zm11.7-24.8c-.1.2-.1.4 0 .5.3-.1 0-.3 0-.5zM6.7 28.3c-.1.2-.2.3-.2.5 0 .1 0 .1.1.1s.1-.1.1-.1v-.5zm6.8 1.9c0-.2-.1-.3-.2-.4-.1 0-.1-.2-.2 0-.1.1 0 .2.1.2s.2 0 .3.2zm6.6-13.9c0-.2.1-.4-.2-.5 0 .2.1.4.2.5zM9.6 29.2c.1-.1 0-.2.1-.3 0-.1.1-.2.1-.3-.3.4-.3.4-.2.6zM12 20c-.2.2-.1.4 0 .6.3-.2 0-.4 0-.6zm9.1-14.5c.1.1.2.2.4.2.1 0 .1-.1 0-.2s-.2 0-.4 0zm-9.9 15.4c0-.1.1-.1.2-.2s.1-.3-.1-.3c-.3.2 0 .3-.1.5zm3.5 3.7c-.1 0-.1.1-.1.1l.3.3.1-.1-.3-.3zm-8.3 5.3c0-.1-.1-.1-.2-.1s-.1.1-.1.1c0 .1 0 .2.1.2.2-.1.2-.1.2-.2zm.5-1.1c.1-.1.2-.2.1-.4h-.1c-.1.1 0 .2 0 .4zm3.7 1.5v-.5c-.5.3 0 .4 0 .5zm-3.4 2.8c0 .2-.2.3-.2.6.2-.2.5-.3.2-.6zm11.5-17.2c-.1.2-.1.3-.1.4 0 .1 0 .1.1.1s.1-.1.1-.1c0-.1-.1-.2-.1-.4zm3.2-4.9c-.1.1-.2.2-.1.3 0 0 .1.1.1 0 .1 0 .1-.1 0-.3zM8.7 26.4c-.1.1-.1.3-.1.4 0 .1 0 .1.1.1s.1 0 .1-.1 0-.3-.1-.4zm2.6-9.2c0 .1-.2.3 0 .4.1.1.1 0 .1-.1.2-.1-.1-.1-.1-.3zM13 23c.1-.1.1-.3.2-.2.1 0 0-.1 0-.1 0-.1 0-.1-.1-.1s-.1 0-.1.1c.1 0 .1.1 0 .3zm-2.1-1.9c.1-.1-.1-.2 0-.3.1-.1.1-.1 0-.2h-.1c-.1.1-.1.1-.1.2.1.1.1.2.2.3zm-4 9.4c.1-.2.1-.3.2-.4V30c-.1-.1-.1 0-.1 0 0 .2-.2.3-.1.5zM20.2 5.8c.1-.1.3-.1.3-.3 0-.1 0-.1-.1-.1-.1.2-.2.3-.2.4-.1 0-.1 0 0 0zM8.1 29.3c.2-.2 0-.4 0-.5-.1.2-.1.3 0 .5zm8.7-4.8c-.1 0 0-.2-.1-.2s-.1.1-.1.1c0 .1 0 .2.1.2s.1 0 .1-.1zm-.1.8c0-.1.1-.3 0-.4h-.1c0 .1 0 .3.1.4zm-7.6 1.1s-.1.1 0 0c-.1.2-.1.3.1.3.1 0 .1 0 .1-.1s-.1-.1-.2-.2zm3.8 3.3c.1-.2 0-.3-.2-.4-.1.2 0 .3.2.4zm8.9-23.3c.1-.1.2-.2.2-.3 0-.1-.1-.1-.1 0-.2.1-.1.2-.1.3zM19 21.3c-.1.1-.1.2-.1.3-.1.2 0 .3.1.2 0-.1.1-.3 0-.5zm-6.9 4.4c0 .2-.2.3-.1.4h.1c.2-.1.1-.2 0-.4zm1.9 0c-.1 0-.1 0-.1.1s0 .2.1.2.1-.1.1-.1c0-.1 0-.2-.1-.2zm9.6-19.5c-.1-.2.2-.3 0-.5.1.2-.2.4 0 .5zM11 23.4c.1-.1.2-.2.1-.4 0-.1-.1 0-.1 0-.1.1-.1.2 0 .4zM21.3 10c0-.2.1-.3-.1-.4h-.1c0 .2.1.3.2.4zm.3-.8v.4c0 .1 0 .1.1.1s.1-.1.1-.1c0-.1-.1-.2-.2-.4zM18.1 9c0-.1 0-.1 0 0-.2-.1-.2 0-.2.1s0 .2.1.2c.1-.1 0-.2.1-.3zM18 7.6v.1c0 .1-.1.1-.1.2s0 .2.1.1c.1 0 .1-.2.1-.3 0 0 0-.1-.1-.1zm.3 9.8c.1 0 .1-.1.1-.2s0-.1-.1-.1-.1.1-.1.1c0 .2 0 .2.1.2zm-3.5 2.8c.1-.2.1-.3-.1-.5-.1.2.1.3.1.5zm-3.1 1.4c.1-.1.2-.1.2-.3 0 0 0-.1-.1-.1-.1.1-.1.2-.1.4-.1-.1 0-.1 0 0zm4.6 8.6c.2-.2.1-.3 0-.5v.5zm1.1-8.6c-.1 0-.2.1-.2.2 0 0 0 .1.1.1s.1-.1.1-.3zM5.7 35.4c0 .1-.1.2 0 .3h.1c.2-.1 0-.2-.1-.3zm4.7-14c0-.1 0-.1-.1-.1s-.1 0-.1.1 0 .1.1.1c0 .1.1 0 .1-.1zm.2.1s0 .1.1.2c.1 0 .1-.1.1-.1 0-.1 0-.2-.1-.2-.1-.1 0 0-.1.1zm8.1-9.5c0-.1.1-.3-.1-.3h-.1c0 .1.1.2.2.3zm-1.3 9.1c0 .1-.1.2 0 .3h.1c0-.1 0-.2-.1-.3zm-.3 6.2c.1-.2.2-.2.2-.4 0-.1-.1-.1-.1 0-.2.1-.1.2-.1.4zm1.3-22c.1.1.2.2.3.2v-.1c-.1-.1-.1-.1-.3-.1zm-5 24.1c0-.1 0-.1-.1-.1s-.1 0-.1.1.1.1.2 0c0 .1 0 .1 0 0zm-5.9 1.4c.1-.1.1-.2 0-.3.1.1-.1.1 0 .3zm9.3-6.8c-.1-.1-.1 0-.1 0 0 .1 0 .2.1 0 0 .1 0 .1 0 0zm-2.2 5.2c0 .1 0 .1 0 0 0 .1 0 0 0 0zm9.1-5.5v.1-.1z"/><path fill="#382D2B" d="M26.7 5.9v-.2c.1-.2.4-.3.4-.6 0-.1.1-.2.2-.1.2 0 .2 0 .3-.1h.2c.1.1.2.2.3.4.1.2.2.3.4.3s.2.1.3.3c.1.1.2.1.3-.1.1-.2.2-.4.2-.6 0-.1 0-.2.1-.3.2-.1.7 0 .8.2.1.1.1.3.2.4 0 .1.1.2.2.2.2 0 .1-.2.1-.2 0-.2-.1-.5.1-.7h.7v.5c0 .4 0 .6.4.7.2.2.2.2 0 .3-.3.1.1.3-.1.4h-.1c-.2 0-.2.1-.1.2l.3.6c0 .1 0 .2.2.2.1 0 .2-.1.2-.2 0-.4.1-.8 0-1.1 0-.2.1-.4-.1-.5-.1-.2 0-.4 0-.6-.1-.3 0-.4.2-.4s.4 0 .5.2c.1.3 0 .6.1.9 0 .1 0 .2.1.2s.1-.1.1-.1c-.1-.1 0-.1.1-.1.2.1.2-.1.2-.2 0-.4.3-.7.3-1h.3c0 .1.1.2.1.3 0 .1.1.1.2.1s.1-.1.1-.2c0-.2.1-.2.2-.2.2.2.4.2.5 0h.7c.1.1 0 .2-.1.3-.2.1-.3.3-.3.5 0 .3.2.3.3.4.2 0 .3 0 .4-.1.1-.2 0-.4-.1-.5-.3-.1-.1-.3-.1-.4 0 0 .1-.1.1-.2h.4c.3.3.3.3.6 0h1.4c.1.1.2.2.2.4V6.9c0 .3.1.6 0 .9v1c0 .7.1 1.5.1 2.2 0 .7 0 1.4-.1 2.1 0 .3.2.5.1.8 0 .2-.1.4-.1.6.1.6-.1 1.1 0 1.7 0 .4-.1.8 0 1.2 0 .2.2.4.1.5-.2.4-.1.7-.1 1 0 .4 0 .8-.1 1.2-.1 0-.1.1-.2.1-.2 0-.2.2-.2.3 0 .2.2.1.3.1 0 .4-.3.8-.2 1.2 0 .2 0 .3-.1.5-.1 0-.1-.1-.1-.2v-.5s0-.1-.1-.1-.1.1-.1.1c-.1.4-.3.7-.6.9l-.1.1c0 .5-.2.8-.3 1.2-.4 0-.6.3-.7.6 0 .1 0 .2-.1.1-.3-.2-.3.1-.3.2-.1.3 0 .6 0 .9-.1.1 0 .2 0 .3-.1.1-.2.3-.1.4.1.3 0 .4-.2.5-.2.1-.2.3-.2.4 0 .1-.1.2-.3.2-.2 0-.5 0-.6.3-.1.2-.1.3-.1.5s0 .5-.1.6c-.2.1-.4.2-.5.2-.4 0-.6.1-.9.3-.3.2-.6.6-.5.9 0 .3.1.5.1.8 0 .8.1 1.5 0 2.3 0 .3-.1.6.1.9 0 .1.1.1.1.2-.1.3-.2.6.1.8.1.1 0 .1 0 .2-.1.3 0 .5.3.6.4 0 .8.1 1.2.1.2 0 .5 0 .7.1-.1.1-.2.1-.3.1-.3 0-.4.2-.2.5l.1.1c.1 0 .1.1.1.1 0 .1-.1.1-.2.1-.2-.1-.5.1-.7-.1-.1 0-.2-.1-.3 0-.2.1-.3.1-.5-.1s-.5 0-.7-.1c-.1-.1-.3-.1-.5 0 0 0-.2-.1-.3 0-.1.1 0 .2.1.3v.1h-.3c-.2-.1-.3-.1-.3.2 0 .2-.1.2-.2.1-.6-.2-.5-.1-.7.3-.1.2-.1.4.1.4.2.1.4.1.6-.1.2-.2.5-.3.7-.1.2.2.3.1.4-.1.2-.3.5-.4.8-.2.1 0 .1.1.2.1.2-.1.3 0 .4.1 0 0 0 .1.1 0-.1.2-.2 0-.3 0 0 0-.1-.1-.1 0h-.5c-.1 0-.2-.1-.2.1 0 .1 0 .2.1.2.3.1.5.2.8.2 0 0 0 .1.1.1s0-.1 0-.1c0-.1.1-.1 0-.2.1 0 .1-.1.2-.1.1.2-.1.4 0 .6v.1c-.1 0-.3-.1-.1.1.1.1-.1.1-.1.1-.1-.1-.4 0-.5-.2.1 0 .3.2.3-.1 0-.1-.1-.2-.2-.2-.2 0-.1.2-.1.3-.3-.1-.8.2-.7-.5l-.1-.1c0 .5-.3.4-.6.4-.4-.1-.8-.1-1.2-.2-.2 0-.4-.1-.6-.1-.1 0-.1.1-.2 0-.3.8-.3.8-.3.7 0-.1.2-.1.2-.1.3.1.2-.1.3-.2v-.4c.2-.2.2-.5.1-.7.1 0 .1-.1.2-.1.3-.1.5-.5.8-.2.1.1.2 0 .3-.1.1-.4.4-.5.7-.3.3.1.4-.1.5-.2.1-.1 0-.2-.1-.3v-.2c.1-.1.1-.2.1-.4v-1c.1-.1.2-.2.1-.3-.2-.1-.2-.3-.2-.5 0-.6 0-.7-.6-.9-.1 0-.1-.1-.1-.2s0-.2.1-.2h.1c.2.1.4.1.4-.2 0-.3-.1-.5-.1-.7 0-.1 0-.1-.1-.1s-.1 0-.1.1c-.1.3-.3.4-.4.7 0 .1-.2.2-.3.4-.2.2-.6.3-.8.6-.4.1-.8.3-.9.8 0 .5-.4 1 0 1.5v.1c.1.4.1.7.1 1.1 0 .3 0 .6.2.8 0 .2-.1.5-.1.7-.2.1-.3 0-.4-.2-.1-.1-.2-.2-.3 0-.3.3-.6.5-1 .7-.2.1-.2.2-.1.3.2.2.3.4.6.5.4.1.7.2 1.1.2.1 0 .3 0 .4.1.2 0 .4-.1.7 0v.1c-.2 0-.4.1-.5 0-.4-.1-.7-.1-1.1-.1-.1 0-.2 0-.2.1 0 .3-.2.2-.4.2s-.2-.1-.4-.1H27.5c-.1-.1.1-.4-.1-.5 0-.1 0-.3-.2-.3-.3-.1-.6-.1-.9 0-.1.1-.2.2-.1.3.1.2.2 0 .2 0 .3 0 .5-.3.8 0v.1c.3-.1.1.1.1.2-.1.1-.2.1-.3.1-.3.1-.6 0-.9 0-.4 0-.9.1-1.3 0h-.2c-.6-.1-1.1 0-1.7 0-.7 0-1.3-.1-2 0-.6 0-1.3-.2-1.9 0h-.5c0-.1-.1-.2-.1-.3.2 0 .3 0 .5.1.1.2.2.1.3 0h.8c.4 0 .8 0 1.1.1.3 0 .7-.1 1.1 0 .3.1.6-.1.8 0 .3.1.4 0 .4-.3v-.7c0-.8-.1-1.7-.1-2.5 0-.1 0-.3-.1-.4v-.7c0-.5-.1-1.1-.1-1.6 0-.3.1-.6 0-.9v-.4c.1-.2.1-.4.1-.7 0-.3-.1-.7-.1-1 0-.2 0-.4-.1-.6 0-.3 0-.5.2-.6.1-.1.2-.2.1-.3V29h.1c.1.2 0 .4.1.6.1 0 .1-.2.2-.1.4.1.4-.3.4-.5 0-.3.3-.4.5-.5.3-.1.3-.2.3-.5s.2-.4.4-.3c.2.1.3.1.4 0 .2-.1.4 0 .4.2s.1.4.1.6c.1.3.3.4.5.3.3-.2.5-.7.3-1-.1-.2-.1-.4-.4-.2-.2.1-.2-.1-.3-.2-.1-.1-.1-.2 0-.3 0-.1.1 0 .1.1.1.4.2.1.3 0 .1-.1.1-.3 0-.4 0-.1-.1-.2 0-.2.2 0 .2-.2.3-.4v.3c0 .1-.1.2.1.2.1 0 .2-.1.2-.3v-.5c0-.1 0-.1.1-.1s.2.1.1.1c-.1.2 0 .5-.1.8-.1.3-.2.7-.3 1.1 0 .2.2.3.4.2.5-.3.7-.9.6-1.4 0-.1 0-.2-.2-.2-.1 0-.1 0-.1-.1s0-.1.1-.2c.4-.3.4-.8.4-1.2 0-.1-.1-.2-.2-.2s-.2 0-.3.1c-.1.2-.2.4-.2.5 0 0 0 .1-.1.1s-.1-.1 0-.1c0-.4.1-.9.2-1.3.2.1.3.1.3-.2 0-.1.1-.3.1-.4.1 0 .1.1.1.1.1.4.1.9.5 1.2v.1c0 .5.1 1.1-.2 1.6-.1.3-.2.6-.2.9 0 .2.2.2.3.4.1.1.1.3.3.3.2 0 .2-.2.2-.4.1-.6.1-1.2.2-1.7 0-.2.1-.5.3-.7.1.1.1.2.1.3 0 .1.1.1.2.2.1 0 .2 0 .2-.1 0-.2.2-.3.4-.4.1 0 .2-.1.2-.3.1-.3.1-.6.1-1 0-.2.2-.4 0-.6-.1-.1.1-.1.2-.2 0-.1.1-.1.2 0 .1 0 .1.1 0 .2-.1.2.1.4.2.6 0-.4.3-.6.4-.8.3-.7.3-1.4.5-2.1 0-.1 0-.2.1-.2s.1.1.1.2c.1.5.1 1 .1 1.4 0 .5.1 1 .1 1.4 0 .1 0 .1.1.2.1 0 .1 0 .2-.1.1-.2.1-.3.2-.5 0-.1 0-.2.1-.3.3-.1.4-.2.4-.6 0-.2.1-.4.1-.7 0-.1 0-.2.1-.2.3-.1.3-.3.2-.6.1.1.2.3.2.4 0 .1 0 .2.1.2s.1-.1.1-.2 0-.3.1-.3c.2-.1.2-.3.2-.5v-.3c.3-.4.1-.8.1-1.1 0-.1-.1-.2-.1-.1-.5.2-.2-.1-.1-.2.1-.2.3-.4.5-.5.2-.1.2-.2.1-.4s0-.3.2-.5c.3-.2.4-.6.1-.9-.1-.2-.3-.1-.4 0-.1 0-.3.1-.1.3.1.1.1.3-.1.2-.1 0-.3 0-.4.2-.2-.4.1-.6.3-.8.2-.1.1-.2 0-.3-.4-.5-.2-1-.2-1.5 0-.4.3-.7-.1-1.1 0-.2.1-.4-.2-.6v.3c-.3.2-.6.4-.4.9.1.1 0 .4-.2.5-.2.1-.4-.2-.4-.5 0-.1 0-.2.1-.3.1-.1 0-.2-.1-.3-.1 0-.1-.1-.2 0s-.3.2-.2.4c.1.3 0 .6 0 .8-.1.4 0 .7.2 1 .1.2.1.4.1.6 0 .1 0 .4-.2.3-.2 0-.2-.3-.2-.4 0-.4.1-.9 0-1.3s.1-.7 0-1.1c0-.2-.2-.3-.2-.4 0-.4.2-.7.3-.9.2-.4.4-.7.2-1.1 0-.1 0-.2.1-.3 0-.1.1-.2.2 0 .1.1.1.3.3.3l.3-.6c.3-.4.2-1-.1-1.4-.1-.1-.1-.1-.1-.2-.1-.2-.2-.4-.4-.5-.1-.1-.3.1-.4.1H33c-.4-.1-.4.2-.3.4.1.4.1.7-.1 1.1-.1.3 0 .6-.3.8-.1.1-.2.3-.2.5.2.3.1.7.2 1.1 0 .1 0 .3-.1.3-.1.1-.2.3-.2.5 0 .4-.3.8-.1 1.2 0 .1-.3.4-.4.4-.2-.1-.1-.2 0-.4.1-.3-.1-.6-.2-.9-.1-.2-.3-.2-.5 0s0 .4-.1.7c0 .1 0 .3-.1.3s-.1-.2-.1-.3v-.1c0-.4.2-.8.3-1.2 0-.1 0-.2.1-.3.3-.2.2-.5.2-.8.1-.3 0-.7.1-1 .1-.3.1-.6 0-.9V10c-.1-.1 0-.2-.1-.4.2-.5.3-1 .5-1.5.1-.2.1-.4 0-.6-.1-.3-.3-.6-.4-.9 0-.2.1-.4-.1-.6-.1.1-.3 0-.4.1-.1.2-.5.3-.4.6 0 .2-.1.3-.2.5-.1.1-.1.2-.1.4 0 .4 0 .8-.2 1.2-.1.2-.2.5-.2.7-.1.1-.1.3-.1.4 0 .4-.1.7-.3 1-.2.4-.2.8-.3 1.3 0 .3-.1.7-.2.9-.1.1-.1.1-.2 0-.3-.3-.3-.6 0-.8.2-.2.3-.6.3-.8-.1-.3-.2-.6-.2-1 0-.1 0-.3-.2-.3-.3 0-.3-.2-.3-.4v-.6c0-.2.3-.4.3-.4.4.1.3-.2.3-.3 0-.4 0-.8.1-1.1 0-.1 0-.2-.1-.3 0-.1.1-.3-.1-.3-.1 0-.1.1-.2.1 0 0-.1 0-.1.1-.3.1-.3.1-.4-.2 0-.1.1-.3-.1-.3 0-.1.1-.2 0-.3-.1-.2-.3-.3-.4-.1-.1.3 0 .4.2.5.2.4.1.8.1 1.2-.2-.4-.2-.8-.4-1.2 0-.1 0-.2-.2-.2-.1.1-.1.2-.1.2.2.4.2.9.1 1.3 0 .4-.2.6-.6.7-.1 0-.2.1-.1.2 0 .1 0 .1-.1.2h-.1c-.1-.1-.1-.6 0-.8.1-.2.3-.3.3-.6 0-.2 0-.5-.1-.7-.1-.2 0-.2.2-.3.1 0 .2 0 .2-.2 0-.1 0-.3-.1-.5zM30 33.1c-.1 0-.1 0 0 0-.1 0-.1 0 0 0zm2.6-8.4c0-.1 0-.3-.1-.4 0 .1-.1.3-.1.4-.1.1-.1.2 0 .2 0 0 .1.1.2 0 .1 0 0-.1 0-.2zM35.5 13c0 .1.1.2.2.1.2-.1.1-.3.2-.4 0-.1 0-.2-.1-.2-.4.1-.5.2-.3.5zm-3.1 13.6v-.2c.1-.1.2-.1.2-.2.1-.1.1-.2 0-.3-.1-.1-.1-.2-.2-.2s-.2.1-.2.2c-.1.2-.1.4 0 .6.1.2.1.2.2.1 0 .1 0 .1 0 0zm2.4-20.4v-.6c0-.1 0-.2-.1-.2s-.1.1-.1.1c0 .1-.1.3-.1.4-.1 0-.1.1-.1.2 0 .2-.1.5.2.5.2.1.2-.2.2-.4zM32 9.8c0-.1 0-.2-.2-.1s-.2.3-.2.5c0 .1 0 .4.1.4s.3-.1.3-.3c.1-.2.2-.3 0-.5zm2 13.3c0 .2.1.3.3.1.1-.2.2-.3.3-.5.1-.1-.2-.6-.3-.6-.2 0-.2.2-.2.4 0 .1 0 .2-.1.2 0 .1-.1.2 0 .4zm-.5 1.3c0 .2 0 .4.1.6.1.1.3.1.3.2.1-.1.2-.1.2-.2 0-.4.2-.7 0-1.1-.1-.1 0-.3-.2-.3s-.2.2-.3.3c-.1.1-.1.3-.1.5zm-8.1 6.8s0-.1 0 0c-.2-.2-.7-.2-.9-.1-.1.1-.2.1-.3.2-.1 0-.2 0-.2-.1-.1-.1 0-.1.1-.2s.2-.1.4-.2.2-.2 0-.3c-.1-.1-.2-.3-.1-.4.2-.2.2-.5.5-.6.1 0 .1-.1.1-.2.1-.2.2-.5.6-.3.1.1.1 0 .1-.1s0-.2-.1-.3c-.2-.2-.4-.1-.6-.1-.3 0-.4.2-.4.5 0 .1 0 .3-.1.3-.3.1-.2.3-.3.5 0 .1-.1.3-.2.4l-.1-.1c-.1-.1-.2-.2-.4-.2-.2.1-.2.2-.2.3v.6c0 .2 0 .5.2.7-.1.3 0 .6 0 .9 0 .4-.1.8 0 1.2.1.3.2.4.4.2.1-.1.2-.1.4 0l-.3.3c-.3.2-.5.5-.4.9V36.3c0 .1 0 .3.2.3.3 0 .1.1.1.2-.1.1-.2.2-.2.3 0 .2 0 .5.1.7 0 .2.2.2.4.1.1-.1.3-.2.3-.3 0-.1 0-.1.1-.1s.1.1.1.1c0 .1.1.1 0 .2 0 0-.1 0-.1.1.1 0 .1-.1.1-.1.2 0 .4.2.6-.1 0 0 .1 0 .2.1.1.3.3.2.5.1s.3-.2.4-.3c.1.2 0 .2-.1.3-.2.2-.4.2-.6.3-.1.1-.1.2 0 .2.1.1.1.1.2.1.2-.1.4-.1.6-.2.4-.2.6-.4.6-.9v-.9c0-.2 0-.4-.2-.5.1-.1 0-.3.1-.3.2 0 .2-.2.2-.3 0-.6 0-1.2-.1-1.8 0-.1 0-.3-.2-.3s-.6.1-.6-.4c0 0 0-.1-.1-.1-.2 0-.2-.1-.1-.2s.2-.2.3 0c0 .1.1.1.2.1s.1-.1.1-.2c0-.2 0-.4-.1-.7-.2-.3-.6-.2-.9-.5h-.1c-.3.2-.3 0-.3-.2.2.3.1.2.1.1zm2.7 2.2c.2.3.4.6.7.7v-.8c0-.3-.1-.5-.4-.3-.2.1-.4 0-.6 0-.1 0-.2-.4-.1-.4.3-.1.1-.3.1-.4 0-.1-.1-.2-.1-.3 0-.2 0-.5-.4-.5 0 0 0-.1-.1-.1 0-.1 0-.1-.1-.1l-.1.1c-.1.2-.1.4-.3.6-.1.1 0 .3.1.4.2.1.2.2.2.4 0 .1 0 .2.1.3.2.3.4.5.5.9.2-.2.4-.2.5-.5zm6.5-26.5c-.2.1-.6-.1-.6.4v.1c-.4.1-.3.4-.3.7v.2c-.2.4.1.6.3.9l.1.1.1-.1v-.3c0-.2 0-.5.2-.5.4-.1.3-.4.4-.6 0-.1.1-.2.1-.3.1-.6.1-.6-.3-.6zM31.9 28h.2c.2-.2.3-.5.3-.8 0-.1-.1-.2-.2-.2s-.2 0-.2.1c-.1.1-.1.3-.2.3-.4-.1-.3.2-.4.4 0 .1 0 .2-.1.3-.1.1-.1.1 0 .2s.1 0 .2 0c.2-.1.2-.4.4-.3zm-2.5 1.8c0-.2-.1-.4-.2-.4-.2.1-.5.1-.5.3 0 .2.3.6.5.5.3.1.2-.2.2-.4zm5.1-18.6c-.1.1-.2.2-.2.4s0 .4-.1.6c-.1.2 0 .4.2.6.1.1.1 0 .2 0 .2-.2.1-.4 0-.6v-.1c-.1-.2-.1-.4-.1-.6 0-.1.1-.2 0-.3zm1.7-2.7c0-.1 0-.2-.1-.2-.2 0-.5.3-.6.6-.1.3.2.3.3.4.1.1.2-.1.2-.1.1-.3.1-.5.2-.7zm-6 21.2c0-.2 0-.3-.1-.4 0-.1-.1-.3-.2-.2-.1 0-.3.1-.3.3 0 .2 0 .2.2.3.1 0 .1.1.2.2s.2.2.3.1c0-.1-.1-.2-.1-.3zm5.1-4.5c-.1.1.1.1 0 .2-.2.2 0 .4 0 .6 0 .1.1.1.2 0 .2-.1.3-.2.3-.5-.1-.3-.3-.3-.5-.3zm-2.5 11.7h-.2c-.1 0-.3 0-.3.2 0 .1.1.3.3.3h.4c.1 0 .2 0 .2-.1s0-.2-.1-.3c0 0-.1-.2-.3-.1zm-4.3-7.4c0-.4-.2-.3-.4-.4-.1 0-.1 0-.1.1.1.2 0 .5.3.6.1.1.2-.2.2-.3zm7-15.9c.1.1 0 .4.3.4.1 0 .3-.1.3-.3 0-.1-.4-.3-.5-.3-.1 0-.1.1-.1.2zm-7.2 17.9c-.2-.1-.2 0-.2.2v.5c0 .1 0 .1.1.1s.1-.1.1-.1c0-.2 0-.4.1-.5.1-.1.1-.3-.1-.2zm7.8-16.3c0 .1 0 .3.2.3.1 0 .2-.2.2-.3 0-.2-.1-.4-.2-.4-.2.1-.1.3-.2.4zm-7 13.5c-.1.1-.4 0-.4.2 0 .1.1.2.2.2s.3-.1.3-.3c.1-.1.1-.1-.1-.1zm-.1 7c-.1.3 0 .6-.1.9l.1.1c.1-.1.2-.3.2-.5-.1-.2-.1-.4-.2-.5zm.8-3.1c0-.1 0-.3-.2-.3-.1 0-.2.1-.2.3 0 .1 0 .3.1.3.2 0 .2-.2.3-.3zm8.5-26.9c.1-.1-.1-.2 0-.2 0-.1.1-.1.1-.2-.1-.1-.1.1-.2.1l-.1-.1s0-.1-.1-.1-.1.1-.1.2c0 .2.3.1.4.3zm-5.6 24.1c.1-.2-.1-.4-.2-.5-.1-.1-.1-.1-.2 0-.1 0-.1.1-.1.2s0 .2.1.2c.2 0 .3 0 .4.1zm-5-.4c0-.1 0-.3-.1-.2-.1.1-.3.1-.3.2 0 .2.2.2.3.2.1 0 .1-.1.1-.2zm9.9-23.5c.3-.2.1-.4.2-.6 0-.1 0-.1-.1-.1s-.1.1-.1.1c.1.2-.1.4 0 .6zm-5.7 24.7c0-.1 0-.2-.1-.2-.2 0-.2.2-.3.3 0 0 0 .1.1.1.2 0 .3 0 .3-.2zm-.6.2c0-.1 0-.2-.1-.3-.1 0-.1 0-.1.1s0 .2.1.3c.1.1.1 0 .1-.1zm-5.6.2c0 .2-.1.3 0 .4h.1c.1-.1.1-.2-.1-.4zm1-1.2c0 .1 0 .2.1.2s.1-.1.1-.2 0-.1-.1-.1c-.1-.1-.1 0-.1.1zm6.8-16.4c0-.2.1-.3 0-.5-.1.2-.2.3 0 .5zm-2.2 15.5c0-.1 0-.2-.1-.2s-.1.1-.1.2 0 .2.1.2.1-.1.1-.2zm6.1-23.1c0-.2 0-.3-.1-.4h-.1c0 .2.1.3.2.4zm-7.1 26.6c.1-.1.3-.1.2-.3h-.1c-.1.1-.2.1-.1.3zm-1.1 1.2c.1-.1.1-.2.1-.3h-.1c-.1.1-.1.2 0 .3zm6.5-26.1V8c.1-.3.1-.3 0-.5zM25.1 38.8c0 .1.1.1.1.1.1 0 .1 0 .1-.1s-.1-.1-.1-.1c-.1.1-.1 0-.1.1zm-.2 1c.1.1.2 0 .2-.1v-.1l-.2.2zM35.2 5.6s-.1 0 0 0c-.1 0-.1 0 0 0-.1.1-.1.1 0 0-.1.1 0 .1 0 0zM35 16.4c0-.1 0-.1 0 0 0-.1 0-.1 0 0z"/><path fill="#FFF" d="M27.3 40h.2c0 .1.1.1.1 0 .1 0 .2.2.4.1.2 0 .4.1.4-.2 0-.1.1-.1.2-.1.4 0 .7 0 1.1.1h.5c.3.1.6 0 .9.1.1 0 .2 0 .2-.1s0-.1-.1-.1c-.3 0-.7-.1-1 0-.2-.1-.4 0-.7 0-.1-.1-.2-.1-.4-.1-.4 0-.7-.1-1.1-.2-.3-.1-.4-.3-.6-.5-.1-.1 0-.2.1-.3.4-.2.7-.4 1-.7.1-.1.2-.1.3 0 .1.2.2.2.4.2h.1c0 .1.1.3 0 .4 0 .1 0 .3-.3.2-.1 0-.2 0-.2.1s0 .2.1.2c.1.1.1 0 .2 0 .2 0 .4.1.6.1.4 0 .8.1 1.2.2.2 0 .6.1.6-.4.1 0 .1.1.1.1-.1.6.4.4.7.5.1.2.4.1.5.2.4.2.8.4 1.3.2-.2-.2-.5-.3-.8-.2-.3.1-.3-.1-.2-.3v-.1c.1 0 .3.2.3-.1.1.1.1.3.3.3h1.5c.2-.1.1-.3 0-.3-.3-.2-.5-.4-.9-.5-.2 0-.4 0-.6-.1 0-.1-.1-.1-.2 0h-.2c-.2-.1-.2-.1-.3.2-.1 0-.1.1-.2.1s-.1.1-.2.2c-.3 0-.5-.1-.8-.2-.1-.1-.2-.1-.1-.2 0-.1.1-.1.2-.1h.5v.1s.1 0 .1-.1c.1 0 .2.1.3 0v-.1h-.1c-.1-.1-.2-.3-.4-.1 0 0-.1 0-.2-.1-.3-.2-.6-.1-.8.2-.1.2-.2.3-.4.1-.2-.2-.5-.2-.7.1.2.2 0 .2-.2.1s-.2-.3-.1-.4c.2-.4.2-.5.7-.3.1 0 .2.1.2-.1s.1-.3.3-.2h.3c.2.1.3.1.5.2.1 0 .1 0 .2-.1 0-.1 0-.1-.1-.1h-.5c-.1-.1-.1-.2-.1-.3.1-.1.2 0 .3 0 .2-.1.4 0 .5 0 .2.1.5 0 .7.1.1.1.3.1.5.1.1-.1.3 0 .3 0 .2.2.5 0 .7.1.1 0 .2 0 .2-.1s0-.1-.1-.1c0 0-.1 0-.1-.1-.2-.3-.1-.4.2-.5.1 0 .2 0 .3-.1-.2-.1-.5-.1-.7-.1-.4 0-.8 0-1.2-.1-.3 0-.4-.3-.3-.6 0-.1.1-.1 0-.2-.3-.3-.1-.5-.1-.8h.3c.1 0 .1 0 .1-.1s-.1-.1-.1-.1h-.4c-.1-.3-.1-.6-.1-.9.3-.2.5-.5.7-.7.6-.5 1-1.2 1.5-1.8l.3-.6c.3-.3.7-1.1 1-1.4.2-.2.3-.6.5-.8.3-.3.4-.7.5-1 0-.1 0-.2.1-.2.3-.5.4-1.1.6-1.6.1-.2.1-.3.1-.5.2-.2.3-.5.3-.7.2-.7.2-1.4.5-2.1.1-.2.1-.3.1-.5-.1-.4.2-.8.2-1.2 0-.2.1-.3 0-.5 0-.4.1-.8.1-1.2.4-.6.3-1.2.4-1.8v-.2c0-.3.1-.6.1-.9v-.8c.2-.5.1-1 .2-1.5s0-1.1 0-1.6c.1-.6.1-1.3.2-1.9.1-.8.1-1.6.1-2.4 0-.1 0-.3.1-.4V6.1c0-.2-.2-.3-.4-.1-.1 0-.1.1-.2 0-.1-.2-.2-.1-.3-.1-.1.1-.2.2-.4.1v-.8c0-.2-.1-.3-.2-.4h1.8c.1 0 .2 0 .2.2v35.1c0 .2-.1.3-.3.3H16.3c0-.1.2 0 .2-.1h1.2c.2 0 .3 0 .3-.2.2 0 .1.3.3.2.1.1.2.1.3-.1h.4c0 .1.1.1.1 0 .6-.1 1.3.1 1.9 0h2c.6 0 1.1-.1 1.7 0h.2c.4.1.9.1 1.3 0 .3 0 .6.1.9 0 .1 0 .2 0 .3-.1l-.1-.1zm7.6-5.1c0 .1-.1.2-.1.2-.2.1-.3 0-.4 0-.1 0-.2 0-.2.1s0 .2.1.1c.1 0 .3.1.4 0h2.1c.2.1.4.1.5 0 .1 0 .2.1.3.1.1.2.2 0 .3 0h.7c0 .1 0 .1.1.1 0 0 .1 0 .1-.1.1-.2 0-.4-.2-.4h-.1c-.1 0-.2-.1-.3-.1-.2.1-.4.1-.6.1h-.2c-.3-.2-.7-.1-1-.2-.1 0-.3-.2-.5 0h-.2c0-.1-.1-.1-.1-.1-.1-.1-.1-.1-.2 0-.1 0-.2.1-.3 0-.1-.3-.4-.4-.7-.3h-.2c-.1 0-.2-.1-.2 0-.1.1 0 .2.1.2.3.2.6.2.8.3zm2.4 2.1c-.2 0-.4-.1-.5-.1-.3-.1-.6-.1-.8-.2-.1 0-.2 0-.2.1s.1.1.2.1c.3 0 .6.1.9 0 .5.4 1 .4 1.6.5.1 0 .4.1.4-.1s-.2-.3-.4-.3h-1.2zm-.6-.6c-.1 0-.2-.1-.3-.1-.1 0-.2 0-.1-.1 0-.1.1-.1.2-.1.5 0 .9.2 1.4.3l.1.1c.1 0 0-.1 0-.2s-.1-.2-.3-.2c-.6 0-1.1-.3-1.7-.4-.4 0-.8-.1-1.2-.1-.3 0-.6.3-.9.2-.1 0-.3 0-.2.1 0 .1.2.2.3.2.1-.1.2 0 .3.1.3.2.8.2 1.1.1.1-.1.3-.2.4 0 .1.2.2.3.4.2.2 0 .3.1.5-.1zM9.5 40.4c.3-.5.7-.6 1.2-.5.3 0 .6 0 .8.1.2 0 .2 0 .3-.1 0 .1 0 .1.1.1h.2c0 .1.1.1.1 0 .1 0 .2 0 .3.1.1.3.3.2.6.2s.7.1 1-.2c.1-.1.3 0 .3 0 .4.2.7-.1 1.1 0 .2 0 .3.1.4.3v.2c-2.1-.2-4.3-.2-6.4-.2zM31.9 6c-.3-.2-.4-.3-.4-.7v-.5h2.2c0 .4-.3.7-.3 1 0 .1 0 .2-.2.2-.1 0-.1 0-.1.1s0 .2-.1.1c-.1 0-.1-.1-.1-.2-.1-.3 0-.6-.1-.9-.1-.2-.3-.2-.5-.2s-.3.1-.2.4c.1.2 0 .4 0 .6.1.1-.1 0-.2.1zM30.8 4.8c-.2.2-.1.5-.1.7 0 .1.1.2-.1.2-.1 0-.2-.1-.2-.2s-.1-.3-.2-.4c-.1-.2-.6-.3-.8-.2-.1.1-.1.2-.1.3 0 .2-.1.4-.2.6-.1.2-.2.2-.3 0-.1-.1-.1-.2-.3-.3-.2 0-.3-.1-.4-.3 0-.1-.2-.3-.3-.4h3zM36.1 4.8c0 .1-.1.1-.1.2 0 .2-.2.3.1.5.1.1.2.3.1.5h-.4c-.2-.1-.4-.1-.3-.4 0-.2 0-.4.3-.5.1 0 .2-.1.1-.3h.2z"/><path fill="#C9564D" d="M34.7 4.8c-.1 0-.3 0-.2.2 0 .1 0 .2-.1.2s-.1 0-.2-.1-.2-.2-.2-.3h.7z"/><path fill="#FFF" d="M37.1 4.8c-.4.3-.4.3-.6 0h.6z"/><path fill="#C9564D" d="M15.9 40.4c.1 0 0-.1 0-.2.2 0 .4-.1.5 0 0 .1-.2 0-.2.1s-.2.1-.3.1z"/><path fill="#FFF" d="M34.7 4.8c.2-.1.4-.1.5-.1-.1.3-.3.3-.5.1z"/><path fill="#C9564D" d="M28 6.4c.1.1.1.2.1.3 0 .3.1.3.4.2 0 0 .1 0 .1-.1.1.1.1.3.2.2.1.1.1.2.1.3-.1.4 0 .8-.1 1.1 0 .1.1.4-.3.3 0 0-.3.2-.3.4v.6c0 .2 0 .4.3.4.2 0 .2.2.2.3 0 .3.1.7.2 1 .1.3 0 .6-.3.8-.3.3-.3.6 0 .8.1.1.1.1.2 0 .2-.3.2-.6.2-.9 0-.4 0-.8.3-1.3.2-.3.3-.6.3-1 0-.2.1-.3.1-.4.1 0 .2.1.2.1 0 .1.2 0 .2.1-.4-.2-.2-.5-.1-.8 0-.1 0-.1-.1-.2.2-.2.1-.6.1-1 0-.1 0-.3.1-.4.1-.1.2-.3.2-.5 0-.3.3-.4.4-.6 0 0 .3 0 .4.2.1.2 0 .4.1.6.1.3.3.6.4.9.1.2.1.4 0 .6-.2.5-.3 1-.5 1.5-.2 0-.2.1-.2.2 0 .2.1.2.2.1v.3c.1.3.1.6 0 .9-.1.3 0 .7-.1 1 0 .3.1.6-.2.8-.1 0-.1.2-.1.3-.1.4-.3.8-.3 1.2v.1c0 .1 0 .3.1.3.2 0 .1-.2.1-.3.1-.2-.1-.5.1-.7.1-.2.4-.2.5 0 .1.3.3.5.2.9 0 .1-.1.3 0 .4.1.1.4-.3.4-.4-.1-.4.1-.8.1-1.2 0-.2.1-.3.2-.5.1-.1.1-.2.1-.3-.1-.4 0-.7-.2-1.1-.1-.2 0-.4.2-.5.3-.2.2-.5.3-.8.2-.3.2-.7.1-1.1 0-.2-.1-.5.3-.4h.1c.2 0 .3-.3.4-.1.2.1.2.4.4.5 0 .1 0 .1.1.2.3.3.4 1 .1 1.4-.2.2-.2.4-.3.6-.2-.1-.2-.2-.3-.3-.1-.2-.2-.1-.2 0s-.1.2-.1.3c.2.4-.1.7-.2 1.1-.1.3-.3.6-.3.9 0 .2.2.3.2.4.1.4-.1.7 0 1.1.1.4 0 .9 0 1.3 0 .2 0 .4.2.4.1 0 .1-.2.2-.3.1-.2 0-.4-.1-.6-.2-.3-.2-.6-.2-1 .1-.3.1-.5 0-.8-.1-.2.1-.3.2-.4.1-.1.1 0 .2 0 .1.1.1.2.1.3-.1.1-.1.2-.1.3 0 .3.2.6.4.5.2-.1.3-.3.2-.5-.2-.4.1-.6.4-.9.1.1-.1.3.2.3.4.3.1.7.1 1.1 0 .5-.2 1.1.2 1.5.1.1.1.1 0 .3-.2.1-.5.4-.3.8.1-.2.2-.2.4-.2.3.1.2-.2.1-.2-.2-.2 0-.2.1-.3.1-.1.3-.2.4 0 .2.3.1.7-.1.9-.1.1-.3.3-.2.5.1.2 0 .3-.1.4-.2.1-.4.3-.5.5 0 .1-.3.4.1.2.1 0 .1.1.1.1 0 .4.2.8-.1 1.1-.1.1 0 .2 0 .3 0 .2 0 .3-.2.5-.1.1-.1.2-.1.3 0 .1 0 .2-.1.2s-.1-.1-.1-.2-.1-.3-.2-.4c0 .3 0 .5-.2.6-.1 0-.1.1-.1.2 0 .2-.1.5-.1.7 0 .3-.1.5-.4.6-.1 0-.1.2-.1.3 0 .2 0 .4-.2.5 0 .1-.1.1-.2.1s-.1-.1-.1-.2c.1-.5-.1-1-.1-1.4 0-.5 0-1-.1-1.4 0-.1 0-.2-.1-.2s-.1.1-.1.2c-.1.7-.2 1.4-.5 2.1-.1.3-.4.5-.4.8-.1-.2-.3-.3-.2-.6 0-.1.1-.2 0-.2h-.2c0 .1-.2.2-.2.2.2.2 0 .4 0 .6 0 .3-.1.6-.1 1 0 .1-.1.2-.2.3-.2.1-.3.1-.4.4 0 .1-.1.1-.2.1s-.2-.1-.2-.2 0-.2-.1-.3c-.2.2-.2.5-.3.7-.1.6-.2 1.2-.2 1.7 0 .2 0 .4-.2.4s-.2-.1-.3-.3c-.1-.1-.3-.2-.3-.4 0-.3 0-.6.2-.9.3-.5.2-1.1.2-1.6v-.1c-.4-.3-.4-.8-.5-1.2 0 0 0-.1-.1-.1 0 .1-.1.3-.1.4 0 .3-.1.3-.3.2v-.1.1c-.1.4-.1.9-.2 1.3v.1c.1 0 .1-.1.1-.1.1-.2.2-.4.2-.5.1-.1.2-.1.3-.1.1 0 .2.1.2.2.1.5.1.9-.4 1.2-.1.1-.1.1-.1.2s.1.1.1.1c.2-.1.2.1.2.2.1.6-.1 1.1-.6 1.4-.2.1-.4 0-.4-.2.1-.4.2-.7.3-1.1.1-.3-.1-.5.1-.8l-.1-.1c-.1 0-.1 0-.1.1v.5c0 .2-.1.3-.2.3-.2 0-.1-.1-.1-.2v-.3c-.1.2-.2.3-.3.4-.1 0 0 .1 0 .2 0 .2.1.3 0 .4-.1.1-.2.4-.3 0 0-.1-.1-.1-.1-.1-.1.1-.1.2 0 .3.1.1.1.3.3.2.3-.2.4 0 .4.2.1.3 0 .8-.3 1-.2.1-.4 0-.5-.3 0-.2-.1-.4-.1-.6 0-.3-.2-.3-.4-.2-.1.1-.3.1-.4 0-.2-.1-.4 0-.4.3s-.1.4-.3.5c-.2.1-.4.2-.5.5 0 .2 0 .6-.4.5-.1 0-.1.2-.2.1-.1-.2 0-.4-.1-.6h-.1v.4c0 .1 0 .3-.1.3-.1-.1-.1.1 0 .3.1.2.1.4.1.6 0 .3 0 .7.1 1 0 .2.1.4-.1.7-.1.1-.1.3 0 .4.1.3.1.6 0 .9-.1.6 0 1.1.1 1.6v.7c-.1.1-.2.2-.3.2-.2.1-.4 0-.6 0-.3.1-.6-.1-.9.1-.1 0-.1-.1-.2-.1-.2-.1-.3-.4-.5-.5-.1-.4 0-.9 0-1.3 0-.2 0-.3.1-.5.2 0 .1-.2.1-.3-.1-.2-.1 0-.1 0-.2-.2-.1-.4-.1-.6 0-.3-.1-.6-.3-.8-.1-.1-.1-.2-.2-.1-.2.1-.2-.1-.3-.2-.1-.1-.1-.2-.2-.1s-.1.2 0 .3c.1.1.1.3.3.4.6.2.7.4.6 1 0 .1 0 .2-.1.3-.1-.2-.4-.2-.6-.3-.2-.1-.3-.2-.3-.3.2-.4-.2-.4-.4-.5h-.1c-.2.2-.2.1-.3-.1-.1-.3-.1-.7-.3-.9-.1-.3-.2-.6-.3-1 .2-.1.1-.3.1-.4.2-.2-.1-.2-.2-.2-.1-.1-.1-.2-.2-.3v-.1c.1 0 .1.1.2.2-.1-.3-.2-.6-.1-1 0-.2-.1-.3-.1-.5 0-.3.3-.2.5-.3.1-.1 0 .1.1.2.3.4.2.9.2 1.3-.2.1-.2.4 0 .6.1.1.1.1.1.3 0 .3-.1.7.1 1 .1.2.2.2.4.1h.1c.1 0 .1.2.2.1s0-.2-.1-.2c-.3-.2-.1-.6-.3-.8-.1-.2.2-.3.3-.5 0-.1.2 0 .3 0 .2.1.4 0 .6.1l.1-.1v-.2c-.1.1-.3-.2-.4 0 0 .1-.2 0-.3 0-.1 0-.1-.1-.1-.2.1-.3.3-.7.5-1 .1-.1.1-.2.1-.3 0-.1-.1-.3.2-.2 0-.3.3-.4.5-.6.2-.3.3-.6.7-.7.2 0 .3-.3.3-.6 0-.4.2-.7.6-.8.1 0 .1-.1.1-.2.1-.2 0-.6.5-.4.1 0 .3-.1.4-.3 0-.3.1-.6.4-.8.2-.1 0-.3-.1-.5s-.1-.3 0-.5l.3-.6c0-.1.1-.2 0-.3-.1 0-.1.1-.2.2-.2.3-.5.6-.7 1-.1.1 0 .4-.2.5-.4.3-.5.8-.8 1.1-.4.4-.5.9-.9 1.2-.2.1-.3.4-.4.5-.1.2-.3.3-.4.3-.1 0-.2-.2-.2-.4s-.1-.3-.2-.4c-.1-.2-.1-.4 0-.6l.9-1.2c.1-.1.1-.2.2-.2s0 .2.1.2c.2-.4.3-.9.6-1.3.1-.2.4-.2.4-.5 0-.4.2-.7.5-1 .1-.1.1-.2.2-.4-.1 0-.2-.1-.3.1-.1.2-.3.3-.5.5-.1.1-.5 0-.6-.2 0-.1-.1-.2-.1-.3-.1 0-.1.1-.1.2 0 .2-.1.2-.2.3-.1 0-.2-.1-.2-.2-.2-.3-.2-.3-.5-.1-.4.2-.5.6-.8 1 0 0 0 .1-.1.1.2 0 .2.3 0 .5-.2.3-.6.5-.8.9-.1.3-.4.5-.6.8 0 .1-.2.2-.3.1-.1-.1-.3-.3-.1-.5.1-.1.1-.1.1-.2h.1c0-.3.2-.5.2-.8 0-.1.1-.3 0-.4 0-.2.1-.4.3-.5.3-.2.5-.5.7-.8.2-.2.3-.5.4-.8 0-.1-.1-.2-.1-.1-.1.2-.2.1-.4.1.1-.2.1-.5.3-.7.1-.1.1-.2 0-.3 0-.1.1-.1.1-.2h.1v.6c.2-.1.1-.3.2-.3.3 0 .4-.2.3-.5 0-.1.1-.2 0-.2s-.1.1-.2.1c-.1-.2 0-.3.1-.4.2-.4.5-.8.7-1.2.2-.4.4-.7.6-1.1.1-.4.3-.7.5-1.1.1-.2.3-.4.3-.6 0-.2.3-.4.1-.5-.3-.3 0-.4.1-.5.2-.1.3-.2.3-.4.3 0 .4-.3.4-.4.2-.5.4-1 .4-1.6 0-.1 0-.2.1-.2s.1-.1.1-.2v-.2c.4-.3.4-.7.4-1 .1-.3 0-.6.1-.9.1-.1.2-.2.2-.3 0-.2.1-.4.1-.5 0-.3.2-.5.2-.7.4-.3.3-.8.3-1.2.5-.5.9-.3 1.3-.3.1 0 .2 0 .3-.2.1.2.1.4.3.6.1.1-.1.1-.2.2s-.2.1-.2.3c.1.2 0 .4.1.7 0 .2-.2.4-.3.6-.1.2-.1.6 0 .8h.1c.1 0 .1-.1.1-.2s0-.2.1-.2c.4-.1.6-.3.6-.7 0-.4 0-.9-.1-1.3 0-.1-.1-.2.1-.2.2-.1.1.1.2.2.2.4.2.8.4 1.2 0-.4.1-.8-.1-1.2.1 0 .1-.2.2-.2zM26.6 23c-.2.2-.5.2-.5.4 0 .3-.2.5-.4.7-.1.1-.1.4-.3.3-.3-.1-.3.1-.4.3 0 .1-.1.2-.2.3-.3.4-.7.8-.9 1.3-.3.5-.6 1-1.2 1.2-.1 0-.3 0-.4.2.5 0 .6.1.3.5-.1.1-.1.2-.2.3-.2.2-.2.3-.2.6s-.3.5-.4.7c0 .1-.2 0-.3 0-.1 0-.2 0-.2.1s.1.1.2.1c.4 0 .5.2.3.5v.1c.1.2.2.2.6 0-.1-.1-.1-.1-.2-.1s-.2-.1-.1-.2c.2-.3.3-.7.6-.9.1-.1.2-.2.2-.3 0-.1 0-.3.2-.3.3 0 .5-.3.5-.5.1-.2 0-.5.4-.5v-.1c.2-.3.2-.6.4-.8.1-.1.2-.3.3-.4.2-.2.4-.5.5-.7.3-.3.7-.6.5-1.1v-.1c.3-.3.5-.6.7-1 .2-.1.2-.3.2-.6zm4.2-.9c0-.4-.2-.6-.3-.8 0-.1-.2-.2-.3-.1-.3.2-.5.6-.3.8.3.5.2 1 .1 1.6v.3c0 .1.1.2.2.2s.1-.1.1-.2.1-.1.1-.1c.1-.2.3-.4.4-.6-.1-.4 0-.8 0-1.1zm2.9-3.9c-.1.1-.1.3 0 .4.1.3-.1.6-.1.9 0 .3.2.6-.3.7v.1c0 .2-.1.4-.1.5-.1.1-.1.3 0 .5 0 .1.1.2.2.1.2-.3.6-.6.7-1 .1-.6.1-1.1.1-1.7-.2-.2-.2-.4-.5-.5zm-7-8.4c0 .4-.3.8-.3 1.2 0 .1-.1.2.1.3.2.1.3 0 .4-.1.1-.1.1-.2.2-.3.3-.1.3-.3.2-.6 0-.2-.2-.3-.1-.4 0 0 0-.1 0 0-.3.2-.4 0-.5-.1zm5 7.7c-.1-.1 0-.4-.2-.4s-.1.2-.2.4.1.3.1.5c0 .3-.2.5-.3.8 0 .1-.2 0-.1.1s.1.2.2 0c0-.1.1-.1.1 0 .2.2.2 0 .2-.1.2-.4 0-.8.2-1.3zm2.1-2.2c0 .3-.3.5-.2.8.1.2.1.4.1.6 0 .1 0 .3.2.3.1 0 .2-.2.2-.3.1-.3 0-.7 0-1-.1-.2-.2-.4-.3-.4zm-7.4-1.6c.1 0 .2 0 .2-.1s0-.2-.1-.2c-.2-.2-.3-.4 0-.6.2-.1.1-.3 0-.5 0-.1-.2-.2-.3-.2-.2.1-.1.3-.1.4v.1c.1.2 0 .3-.1.5 0 .2.1.6.4.6zm2.2.3c0-.1 0-.2-.1-.2s-.1.1-.1.1c0 .2-.1.2-.2.3-.1.2-.2.3-.2.5s.2.2.3.3c.2.1.1-.1.1-.2.2-.2 0-.6.2-.8zm1.1.3c.3-.4.4-1.3.3-1.6 0-.1 0-.2-.1-.1-.1 0-.1.1-.1.2.1.3 0 .5 0 .7-.1.2-.1.5-.1.8zm1.3 6.9c.2-.2.2-.5.1-.7-.1 0-.2.3-.3.1-.1-.1-.2-.1-.2.1 0 .1-.1.3.1.3.2-.1.2.1.3.2zm-2 .9c.1-.3.1-.6-.1-.8-.1-.1-.1-.1-.2 0-.1 0-.1.1-.1.2.2.1.2.4.4.6zM27.8 9.8c.3-.5.4-1 0-1.3.2.5-.1.9 0 1.3zm1.9 9.5c-.2.3-.1.5-.2.8 0 0 0 .1.1.1 0 0 .1 0 .1-.1.1-.3.1-.5 0-.8zm-8 14.7c.1 0 .1 0 .1-.1s-.3-.4-.3-.4c-.1 0-.1.1-.1.2l.3.3zm7.9-18.1c-.1-.2.2-.6-.1-.8-.2.6-.2.6.1.8zm-7 11c0 .1 0 .2.1.2s.2-.1.2-.2 0-.3-.2-.3c-.1 0 0 .2-.1.3zm3.8-5.9c.2-.1.3-.1.3-.3 0-.1 0-.2-.2-.2s0 .2-.1.3c-.1 0-.1.1 0 .2zm.8-.2c0-.1 0-.2-.1-.2s-.2 0-.2.1.1.2.2.2c.1.2.1 0 .1-.1zm-5.6-3c-.1.1 0 .3-.1.4 0 0 0 .2.1.1.2-.1.2-.2.2-.4 0 0-.1 0-.2-.1zm5.5 4.6c0 .2-.2.2-.3.4.4 0 .5-.1.3-.4zm-4.5-6.3c0-.1 0-.1-.1-.1s-.2.1-.3.2c0 0 0 .2.1.2.3-.1.3-.3.3-.3zm5.1 5.8c0-.1 0-.2-.1-.2s-.1.1-.1.1c0 .1 0 .2.1.2s.1-.1.1-.1zm-6.8 7.6c-.1.1-.1.2 0 .3.1-.1.1-.2 0-.3zm-.8 3.7v.1-.1z"/><path fill="#382D2B" d="M5.1 37.7c.1.1.1.2.3.1v.1-.1h.1c.1.3 0 .5-.2.6H5c-.1 0-.2 0-.1-.1 0-.1.1-.1.1-.1.1 0 .2 0 .2-.1-.1-.1-.2-.1-.3-.2-.1 0-.2-.1-.1-.2h.3z"/><path fill="#C9564D" d="M15.2 19.2c0 .1-.1.3-.2.4-.2-.1.1-.3-.1-.4-.1-.1-.3.1-.5.1h-.5c-.3-.1-.5-.1-.8 0 0-.1 0-.1.1-.1.3-.1.6 0 .9 0 .4 0 .8-.2 1.1 0zM6.6 39.9c0 .1 0 .2-.1.1-.2-.1-.3-.1-.5-.1-.1 0-.1 0-.1-.1s.1-.1.1-.1c.1 0 .3 0 .4-.1.1.1.1.2.2.3zM7.7 39.8c.1-.1.2.1.3 0 .1-.1.4 0 .1-.3.2.1.3.2.3.4-.1-.1-.3.1-.7-.1.1.1 0 .1 0 0zM5.2 38.4c.2-.2.3-.4.2-.6.1-.1.1-.1.2 0 .1.2-.1.4-.1.6-.1.1-.2.1-.3 0zM17.9 10.7c.1 0 .1 0 0 0 .1.1.2.2.1.3 0 0 0 .1-.1.1s-.1-.1-.2-.2l.2-.2zM5.8 39.3h.1v.3c-.1-.2-.1-.2-.1-.3zM5.1 37.7h-.3c0-.1.2-.1.3 0zM6.8 39.3c.1.1.1.1 0 0 0 .1 0 .1 0 0z"/><path fill="#C9564D" d="M5.4 37.8c0 .1 0 .1 0 0-.1.1-.1.1 0 0-.1 0-.1 0 0 0z"/><path fill="#FFF" d="M20.8 35.9c.2.1.3.4.5.5.1 0 .1.1.2.1.3-.2.6 0 .9-.1.2-.1.4 0 .6 0 .1 0 .2-.1.3-.2.1.1.1.2.1.4-.1.8.1 1.7.1 2.5v.7c0 .3-.1.4-.4.3-.3-.1-.5.1-.8 0-.3-.1-.7 0-1.1 0-.4 0-.8 0-1.1-.1-.2-.1-.4-.1-.5 0h-.3c-.1-.1-.2 0-.3 0-.1-.1-.3-.1-.5-.1l-.1-.1c-.1 0-.1-.1-.2-.1-.1-.2-.3-.3-.4 0-.1.2-.3.1-.5.1-.6 0-1.3 0-1.9-.1h-.9c-.2 0-.3-.1-.5-.3-.2-.4-.1-.5-.7-.5h-.6c-.2-.1-.4-.1-.5 0-.5.1-1 0-1.5 0-.2 0-.4-.1-.6.1-.4 0-.6 0-.8-.1-.2-.1-.5-.2-.7.1-.1.1-.2.1-.2-.1s-.1-.4.1-.5c.1 0 .2 0 .2-.1s-.1-.1-.2-.1c-.2 0-.2-.1-.2-.3-.1-1.4-.2-2.7-.3-4.1 0-.7 0-1.5-.1-2.2 0-.4.3-.8.7-.8.4 0 .8-.1 1.2-.1.5 0 1-.1 1.5 0 .3.1.6.1 1 .1.3 0 .6 0 .9.1.2 0 .4-.1.6 0 .4.2.9.1 1.3.1.4-.1.5.1.6.4 0 .1.1.1.1.1.4.1.4.4.5.7.1.2.2.4.4.4s.1.2.2.3c0 .1 0 .2.1.3 0 .1 0 .2.1.2s.1-.2.1-.3c0 0 0-.1-.1-.1 0-.1-.1-.2.1-.3.1-.1.2.1.2.2.1.2.3.3.5.4.3.1.5.4.6.6 0 .2 0 .3-.2.2h-.2c-.2.1-.4.1-.6 0-.1 0-.2-.1-.2 0s0 .2.1.2c.4.2.5.6.9.9.1.1.1.3.1.4 0 .4.1.7.4.9.2.1.3 0 .5-.1h.2c.1.1.2.1.3 0 .2.1.3 0 .5 0l.1.1c.6.2.6.2.5-.4-.2.1-.2 0-.1-.2zm-10.1-.2v.6c0 .1 0 .1.1.1.7.2 1.3 0 1.9 0 .1 0 .3-.1.2-.3-.1-1-.1-2.1-.2-3.1 0-.3-.2-.2-.3-.2-.4 0-.9.1-1.3-.1-.1 0-.2 0-.3-.1 0-.1-.1 0-.1 0 0 .3-.2.5-.2.8.2.7.2 1.5.2 2.3zM22.9 13.5c0 .2-.1.3-.3.4-.1.1-.4.2-.1.5.1.1-.1.3-.1.5s-.2.4-.3.6c-.2.3-.4.7-.5 1.1-.2.4-.4.7-.6 1.1-.2.4-.4.8-.7 1.2-.1.1-.1.3-.1.4 0 .2-.2.2-.3.3h-.1s-.5-.1-.6-.1c-.4 0-.7-.3-.5-.8.1 0 .1.1.1.1.1.2.2.1.2 0 0-.4.2-.6.4-.8.1-.1.1-.2.2-.2s.1.1.1.3v.2c.1-.3.3-.6.3-.9v-.1c-.2-.4-.2-.5.2-.8l.1-.1c0-.2 0-.5.3-.4 0 0 .1-.1 0-.2-.1-.2 0-.5-.1-.8-.1-.2 0-.4.2-.4.3 0 .3-.2.2-.3-.1-.4.2-.7.4-.9.2-.2.2.2.4.2.1-.1 0-.2-.1-.3-.1-.2-.2-.4-.1-.6.1-.2 0-.4.4-.2.1.1.2-.1.2-.2.1-.3.3-.4.6-.6l.3-.3c.1.2 0 .4 0 .6l-.3.9c0 .2 0 .4.2.6zm-1.5 2c.1-.2.2-.1.4-.2.1 0 .1-.1.1-.2 0 0 0-.1-.1-.1-.3 0-.5.2-.4.5zm-.6 1.8c0-.2 0-.4-.2-.4-.1 0-.2.2-.1.2.1.1-.1.3.2.4.1 0 .1-.1.1-.2z"/><path fill="#FFF" d="M18.4 30.8c0 .3.1.7.3 1l.3.9c0 .2.1.3.2.4.1.3.2.7.5.9.1.1.2.3.1.5-.1.1-.3 0-.4-.1-.1-.1-.3-.1-.4-.3-.1-.2-.3-.1-.4-.2-.2-.4-.5-.7-.8-1l-.6-.6c0-.1-.1-.1-.2 0 0 .1.1.2.1.3 0 .1 0 .1-.1.2s-.1 0-.2 0c-.1-.1-.2-.2-.2-.4 0-.1 0-.2.1-.2.4 0 .1-.3.1-.3-.2-.3-.3-.7-.3-1 0-.2 0-.3.2-.3.4 0 .8-.1 1.1-.3 0 .3.2.2.4.1.1 0 .1.1.2.2-.1 0 0 .1 0 .2zM16.3 24.3c-.1.2-.2.5-.4.7-.2.2-.4.4-.4.7 0 .2-.2.2-.3.3l-.6.9c-.3.4-.5.7-.8 1.1-.1.1-.3.2-.3.4l-.1.1c-.1 0-.1-.1-.1-.1v-.2c.2-.1.2-.3.1-.5s.1-.3.2-.4c.2-.3.4-.5.6-.8.1-.2.3-.2.4-.4.2-.3.4-.5.5-.9.1-.2.3-.4.5-.5.2-.1.3-.3.4-.4 0-.1.1-.2.2-.1.1-.1.1 0 .1.1z"/><path fill="#C9564D" d="M19.6 27.8c-.2 0-.1.3-.3.2-.1-.1-.1-.3 0-.4.2-.3.5-.6.7-.9.1-.1.2-.1.3 0 .1.1 0 .2-.1.2-.4.3-.1.5 0 .7.1.2.2.9 0 1.1l-.6.9c-.1.1 0 .2.1.2.1.1.1.1.1.2-.1.1-.1 0-.2 0s-.4 0-.4-.1c-.1-.2-.2-.5-.1-.8 0-.3.1-.6.5-.7.1-.2 0-.5 0-.6zM19.9 24.7c.1-.4.2-.9.5-1.2.1-.1.2-.2.2-.3.1-.4.4-.6.7-.9.1-.1.2-.3.3-.4.1 0 .1-.1.2 0 .1 0 .1.1.1.2-.1.2-.1.4-.2.6-.1.2-.1.5-.2.7-.2.6-.6 1-1.1 1.4-.1.1-.2.1-.2.2s-.1.2-.2.2-.1-.1-.1-.2v-.3zM18.8 25.7c0-.2.2-.3.3-.5 0-.1.2-.2.3-.2.1 0 .2.2.2.3v.2c-.3.4-.3 1-.7 1.3-.2.2-.3.4-.5.5-.1.1-.2.1-.3.1-.1-.1-.1-.2-.1-.3 0-.1 0-.3-.1-.4 0-.1-.1-.1-.1-.2.2-.1.3-.4.4-.6.1 0 .3-.2.6-.2 0 .1 0 .2.1.2s.1 0 .1-.1-.1-.1-.2-.1z"/><path fill="#FFF" d="M11.9 27c0-.1.1-.2.2-.2.4-.4.6-.9.9-1.3.3-.4.8-.8 1-1.2.1-.1.1-.2.2-.1s.1.2 0 .4c-.5.5-.8 1.1-1.2 1.7-.1.2-.4.5-.5.7-.1.2-.2.3-.4.3-.2.1-.2 0-.2-.3zM25 7.4c0 .3-.2.5-.2.7 0 .2-.1.3-.1.5 0 .1-.1.2-.2.3 0-.1 0-.2-.1-.3-.1.1-.1.3-.2.4-.1.1-.1.1-.2.1s-.1-.1-.1-.2c.1-.3 0-.6.2-.8.2-.4.3-.8.3-1.3 0-.1 0-.2.2-.3h.2c.1.1.1.2 0 .4V7c0 .1-.3.1-.2.3 0 .2.2.2.4.1zM16.6 23.4c.2-.1.1-.2.1-.3.4-.5.7-1.2 1.2-1.6.2-.2.1-.4.2-.7.1.3.2.4.1.6-.1.1-.1.3-.1.4 0 .1-.1.3-.3.3-.2 0-.2.1-.2.3.1.2 0 .4.1.6 0 .1 0 .2-.1.2 0 0-.1.1-.1 0-.1-.1-.1-.2 0-.3 0-.1.1-.2 0-.3-.1 0-.1.1-.2.2 0 .1 0 .1-.1.1-.2.1-.2.3-.3.5h-.3zM15.1 20.9v.2c-.3.5-.6 1-.9 1.4-.2.3-.4.6-.8.8-.1.1-.2.2-.2.4 0 .1-.2.2-.2.2s-.1 0-.1-.1 0-.2.1-.3c.4-.4.6-.9.9-1.3.2-.3.4-.7.7-1 .1-.1.1-.3.2-.4 0-.1.1-.1.2-.1s.1.1.1.2zM7.3 34.2c.1.2.2.5 0 .7v.2c.2.4.1.8.1 1.2-.2-.1-.3-.2-.3-.5s-.1-.6 0-.8c0-.1 0-.2-.1-.4-.2-.2-.1-.3.3-.4-.1 0 0 0 0 0zM13.7 26.1c.1 0 .2-.1.2.1s0 .3-.1.4c-.3.2-.4.5-.6.8-.1.2-.2.3-.3.4-.1 0-.1.1-.2.1-.1-.1-.1-.1 0-.2 0-.1.1-.2.2-.3.3-.3.5-.7.7-1.2 0 0 .1 0 .1-.1zM16.7 26.3c-.1.3 0 .6-.1.9-.1.1-.1.2-.2.2s-.1-.1-.2-.2c-.1-.4.1-.7.2-1 0-.1.1-.1.2-.1s.1.1.1.2zM16.9 29.6c-.2-.3-.5-.7-.2-1.1 0-.1.1-.2.2-.2s.2.1.2.2c.1.3 0 .6.2.9.1.1-.1.2-.2.3-.1 0-.1-.1-.2-.1zM14.9 29.4c-.1-.4.1-.8.1-1.2 0-.1.1-.2.2-.2s.2.1.2.2c.1.2.1.4-.1.5-.2.2-.3.4-.4.7.1 0 0 0 0 0zM14.7 23.1c-.1.1-.2 0-.2-.2s.4-.6.6-.6c.2 0 .2.1.2.3 0 .4-.1.5-.6.5zM17.7 26.6c0 .1.1.1.1.2v.8c-.1.1 0 .2.1.3-.1.1-.1.3-.4.2-.2-.1-.1-.3-.1-.4.1-.2 0-.4.1-.7.1-.1.1-.3.2-.4zM19.6 19.8c.1.1.1.2 0 .3-.2.2-.2.5-.3.7-.1.2-.1.3-.2.5H19c-.1-.5 0-.9.2-1.3.2-.2.3-.2.4-.2zM17.4 19.7c.1.1.2.4.4 0 0 .2.3.2.2.4-.1.1-.2.3-.3.5 0 .1-.2.1-.3 0-.1-.2-.2-.4 0-.5.1-.3.1-.3 0-.4z"/><path fill="#C9564D" d="M18.8 9.9c0 .1 0 .2-.1.2s-.1.1-.2 0c-.1 0 0-.1 0-.1.1-.2.1-.2-.1-.2s-.3-.2-.3-.3c0-.2 0-.5.1-.7 0-.1 0-.1.1-.1s.2 0 .2.1 0 .1-.1.1-.2.5-.1.6c.1.1.2.1.2.1.1 0 .1-.2.1-.2 0-.1-.1-.1 0-.1s.1.1.1.1c.1.2.1.3.1.5z"/><path fill="#FFF" d="M9.7 27.3c-.1-.2 0-.4.1-.5.2-.2.3-.4.5-.6 0 0 .1-.1.2-.1s.1.1.1.2c0 .2-.3.8-.5.8-.3 0-.3.2-.4.2zM17.2 25.1c.2.4.1.9 0 1.3 0 .1 0 .1-.1.1s-.1-.1-.1-.1c0-.3-.1-.6.1-.9 0-.1-.1-.3.1-.4zM12.8 24.1c-.1.2-.3.4-.4.7 0 .1-.1 0-.2 0-.1-.1-.3-.3-.2-.4.1-.2.2-.4.4-.4.1 0 .1 0 .2-.1 0-.1.1-.1.1-.1.1.1.1.2.1.3zM18.2 29.8v.1c-.3-.1-.4-.4-.4-.6 0-.2-.3-.6.2-.7.1.4.1.8.2 1.2zM19.4 16.9c.1 0 .1.1.1.2 0 .2-.1.4-.2.6-.1.1-.2.3-.3.2-.2-.1-.1-.3-.1-.4.2-.2.4-.3.5-.6-.1.1 0 0 0 0zM16.6 21.5c0-.3-.1-.6.2-.7.1-.1.2-.1.3 0 .1.1 0 .2-.1.3-.1.1-.2.3-.4.4zM18.5 22.8c.1.1 0 .3 0 .4-.1.3-.2.5-.2.8h-.1c-.1-.4.2-.8.3-1.2zM17.6 8.8c-.1.2 0 .3 0 .5 0 .1.1.3-.1.3-.2.1-.2-.1-.2-.2-.2-.2-.1-.5.3-.6-.1 0 0 0 0 0z"/><path fill="#C9564D" d="M13.3 39c.6 0 .6 0 .7.5-.1 0-.2-.3-.3-.1-.2-.1-.5-.1-.4-.4zM9.9 39.1c.2-.2.4 0 .6-.1 0 .1-.1.1-.1.1-.3 0-.3.2-.3.4 0 .1 0 .1-.1.2-.1-.2-.1-.4-.1-.6z"/><path fill="#FFF" d="M22.1 6.5c0-.1 0-.2.2-.3 0 0 .1-.1.1 0 0 .2.1.4.1.6 0 0-.1.1-.1 0-.1 0-.3-.1-.3-.3zM9.9 29c0-.1.3-.5.4-.6.1 0 .1.1.1.1.1.2 0 .4-.2.5-.1 0-.2-.1-.3 0zM12.9 28.9c-.1-.2.2-.3.3-.4.1-.1.2.1.2.2 0 .2 0 .3-.2.3-.1-.1-.2 0-.3-.1zM10.8 19.4c0 .2-.1.4-.1.6 0 .1 0 .1-.1.1s-.1-.1-.1-.1c0-.2 0-.3.1-.4 0-.1.1-.1.2-.2z"/><path fill="#C9564D" d="M17.6 8.8s-.1 0 0 0c-.1-.3-.1-.6-.2-.9.3.1.5.1.3.4-.2.2 0 .4-.1.5z"/><path fill="#FFF" d="M22.6 10.7c0-.2 0-.5.2-.5s.1.3.1.5c0 .1 0 .3-.2.3s0-.2-.1-.3zM7.4 37.9c-.3-.4-.3-.4-.2-.7.3.4.3.4.2.7z"/><path fill="#C9564D" d="M11.6 17.2c-.4-.4-.4-.7-.1-.9-.2.4 0 .6.1.9zM12.8 24.9c.3.4-.3.5-.2.8-.1-.3.1-.5.2-.8z"/><path fill="#FFF" d="M15.3 20.7c-.2-.2-.2-.3-.1-.5 0 0 .1-.1.1 0 .3.2.1.3 0 .5z"/><path fill="#C9564D" d="M18.3 39.8c.1 0 .1 0 .1.1s.1.2.1.3c-.1.2-.2.1-.3.1-.1-.3.2-.4.1-.5zM22.9 8.4c0 .2-.1.1-.2.1s-.1-.1-.1-.2.1-.1.2-.1c0-.1 0 .1.1.2zM14.2 20.5c.1-.1-.1-.3 0-.3.2 0 0 .3.2.4 0 0 0 .2-.1.1-.2 0-.1-.1-.1-.2z"/><path fill="#FFF" d="M18.9 30.3c-.2-.2-.2-.5 0-.6.2.2.1.4 0 .6z"/><path fill="#C9564D" d="M6.4 37.3c.3.2.1.4.2.6h-.1c-.1 0-.1-.1-.1-.1v-.5zM14.5 27.3c0 .2.1.4.1.6 0 .1 0 .1-.1.1s-.1-.1-.1-.1c.2-.1 0-.4.1-.6zM9.9 29c.1-.1.2 0 .3.1 0 0 0 .1.1.1.3.1.3.2.1.3-.2-.2-.3-.4-.5-.5zM18.1 16.9c-.1-.2 0-.4 0-.6.2.4.2.4 0 .6zM16.1 30.2c-.1 0 0-.2-.2-.2-.1 0-.2 0-.2-.1s0-.1.1-.1.2 0 .2.1c.1.1.1.2.1.3zM10.1 20.4c.2.2 0 .4 0 .7-.1-.3-.1-.5 0-.7zM12.7 23.2c-.2-.2-.4-.3-.2-.6.3.4.3.4.2.6z"/><path fill="#FFF" d="M20.2 35.1c0 .1 0 .2-.1.2s-.2-.1-.2-.2-.1-.2.1-.2c.2-.1.1.1.2.2z"/><path fill="#C9564D" d="M10.9 22.1c0 .2.1.3.2.4v.2c-.1 0-.1 0-.1-.1-.1-.2-.2-.3-.1-.5zM7.6 34.7c-.1-.2.1-.5 0-.6h.1c.1 0 .1 0 .1.1s0 .3-.2.5zM7.8 39.7c0-.2-.1-.4.1-.5 0 0 .2 0 .2.1s-.2.2-.3.4zM19.5 14.9c0 .2.3.4 0 .5-.1-.1-.1-.3 0-.5zM6.7 28.3v.5s0 .1-.1.1-.1 0-.1-.1c-.1-.2.1-.4.2-.5zM13.5 30.2c-.1-.2-.2-.2-.3-.2-.1 0-.1-.1-.1-.2.1-.1.1 0 .2 0 .1.1.2.2.2.4zM20.1 16.3c-.1-.2-.2-.3-.2-.5.3.1.2.3.2.5zM20.2 36.7c-.2 0-.3.1-.5 0 0-.1 0-.2.1-.3 0 .2.3.2.4.3zM9.6 29.2c-.1-.2-.1-.2.1-.5 0 .1 0 .2-.1.3 0 0 .1.1 0 .2zM12 20c0 .2.3.4 0 .6-.1-.2-.2-.4 0-.6zM21.1 5.5c.2 0 .3-.1.4 0 .1.1 0 .1 0 .2-.2 0-.3-.1-.4-.2zM11.2 20.9c.1-.1-.2-.3.1-.4.2-.1.2.1.1.3-.1 0-.1 0-.2.1zM14.7 24.6c.1.1.2.2.2.3l-.1.1-.3-.3c.1 0 .1-.1.2-.1zM6.4 29.9c0 .1 0 .1-.1.1s-.1-.1-.1-.2 0-.2.1-.1c0 0 .2 0 .1.2z"/><path fill="#FFF" d="M6.9 28.8c-.1-.1-.1-.3 0-.4H7c.1.2 0 .3-.1.4z"/><path fill="#C9564D" d="M10.6 30.3c0-.1-.4-.3 0-.5v.5zM7.2 33.1c.2.3 0 .4-.2.6.1-.2.2-.4.2-.6zM18.7 15.9c0 .1.1.3.1.4 0 .1 0 .1-.1.1s-.1-.1-.1-.1c0-.1 0-.2.1-.4zM13.7 26.1c0 .1-.1.1-.1.1-.1-.2-.1-.4 0-.6.1.2 0 .4.1.5zM21.9 11c.1.2 0 .3 0 .4h-.1c-.1-.2 0-.3.1-.4zM8.7 26.4c0 .1 0 .3.1.4 0 .1 0 .1-.1.1s-.1-.1-.1-.1c0-.1 0-.3.1-.4zM11.3 17.2c0 .1.3.2.1.4 0 0 0 .1-.1.1-.2-.2 0-.3 0-.5zM13 23c0-.2 0-.3.1-.4 0-.1.1-.1.1-.1.1 0 .1 0 .1.1v.1c-.2 0-.1.2-.3.3zM10.9 21.1c-.1-.1-.1-.2-.1-.3 0-.1 0-.2.1-.2h.1v.2c-.1.1 0 .2-.1.3zM6.9 30.5c-.1-.2 0-.3 0-.5 0-.1 0-.1.1-.1s.1.1 0 .1c.1.2 0 .3-.1.5zM20.2 5.8c-.1 0-.1 0 0 0 0-.2.1-.3.2-.3 0 0 .1 0 .1.1 0 .2-.2.2-.3.2zM17.2 16.8c.2.1.1.3.2.5 0 0 0 .1-.1.1s-.1-.1-.1-.1v-.5zM19.2 36.6c-.2.1-.3.1-.5.1.2-.2.4-.2.5-.1zM8.1 29.3c-.1-.2-.1-.3 0-.5 0 .2.2.3 0 .5zM16.8 24.5c0 .1 0 .1-.1.1s-.1-.1-.1-.2 0-.1.1-.1 0 .1.1.2zM16.7 25.3c-.2-.1-.2-.2-.1-.4 0 0 .1-.1.1 0 .2.1.1.2 0 .4zM9.1 26.4c.1 0 .2.1.2.2s-.1.1-.1.1c-.1 0-.2-.1-.1-.3-.1.1 0 0 0 0zM12.9 29.7c-.2-.1-.3-.2-.2-.4.2.1.2.2.2.4zM21.8 6.4c0-.1-.1-.3.1-.3h.1c0 .1-.1.2-.2.3zM16.6 23.4h.3l-.1.1c0 .1-.1.1-.2.1s-.1-.1 0-.2zM19 21.3c.1.2 0 .4-.1.5-.1.1-.1 0-.1-.2.1-.1.1-.2.2-.3zM12.1 25.7c.1.2.2.3 0 .4H12c-.1-.1.1-.2.1-.4zM12.9 28.9c.1 0 .2 0 .3.1 0 .1-.1.2-.3.2-.1-.1-.2-.2 0-.3z"/><path fill="#FFF" d="M14 25.7c.1 0 .1.1.1.2s0 .2-.1.1c-.1 0-.1-.1-.1-.2 0 0 0-.1.1-.1z"/><path fill="#C9564D" d="M16.9 29.6c.1 0 .1 0 .2.1 0 .1.1.1 0 .2H17c-.1 0-.1-.2-.1-.3zM23.6 6.2c-.3-.1 0-.3 0-.5.2.2-.1.4 0 .5zM11 23.4c-.1-.1-.1-.3 0-.4h.1c.1.2 0 .3-.1.4zM7.3 34.2s-.1 0 0 0c-.1-.1-.1-.2-.1-.2 0-.1 0-.1.1-.2h.1c.1.1 0 .1 0 .2s-.1.2-.1.2zM21.3 10c-.1-.1-.2-.2-.2-.3h.1c.1 0 .1.1.1.3zM21.6 9.2c.1.2.1.3.2.4 0 .1 0 .1-.1.1s-.1-.1-.1-.1v-.4zM18.1 9c-.1.1 0 .2-.2.2-.1 0-.1-.1-.1-.2s.1-.1.3 0c0-.1 0-.1 0 0zM18 7.6c.1 0 .1.1.1.1 0 .1 0 .2-.1.3-.1 0-.1 0-.1-.1s.1-.1.1-.2v-.1zM18.3 17.4c-.1 0-.1-.1-.1-.1 0-.1 0-.1.1-.1s.1 0 .1.1c0 0 0 .1-.1.1zM14.8 20.2c0-.1-.1-.3-.1-.5.2.1.2.3.1.5zM11.7 21.6c0-.1-.1-.1 0 0 0-.2.1-.3.2-.3 0 0 .1 0 .1.1-.1.1-.2.1-.3.2zM16.3 30.2c-.1-.2-.1-.3 0-.5.1.2.2.3 0 .5zM17.9 27.9c0-.1-.1-.2-.1-.3.1 0 .2 0 .3-.1-.1.2 0 .4-.2.4zM17.4 21.6c.1.2 0 .2-.1.3 0 0-.1 0-.1-.1s.1-.1.2-.2zM5.7 35.4c.1.1.2.1.2.3 0 0-.1.1-.1 0-.1 0-.1-.2-.1-.3zM10.4 21.4c0 .1 0 .2-.1.1l-.1-.1c0-.1 0-.1.1-.1s.1 0 .1.1zM13 39.1c0 .1 0 .1 0 0 0 .2 0 .3-.1.3 0 0-.1 0-.1-.1 0 0 0-.1.2-.2zM10.6 21.5c0-.1 0-.2.1-.2s.1.1.1.2 0 .2-.1.1c-.1 0 0-.1-.1-.1z"/><path fill="#FFF" d="M20.8 33.9s.1-.2.1 0c0 .1.1.2-.1.3v-.3z"/><path fill="#C9564D" d="M18.7 12c-.1-.1-.2-.2-.1-.3h.1c.1 0 0 .1 0 .3zM17.4 21.1c.1.1.1.2.1.3h-.1c-.1-.1 0-.2 0-.3z"/><path fill="#FFF" d="M18.8 25.7c.1 0 .2 0 .2.2 0 .1-.1.1-.1.1-.1-.1-.1-.2-.1-.3z"/><path fill="#C9564D" d="M11.9 39.9c-.1 0-.1-.1-.1-.1 0-.1.1-.2.1-.3.1.2-.1.3 0 .4zM16.6 29.7c-.1-.1-.2-.2-.2-.3l.1-.1c.1.1.1.3.1.4z"/><path fill="#FFF" d="M17.1 27.3c-.1-.2-.1-.3 0-.4h.1c.2.2 0 .2-.1.4z"/><path fill="#C9564D" d="M18.4 5.3c.2 0 .3 0 .3.1v.1c-.2 0-.2-.1-.3-.2zM14.9 29.4h.1c.1.1 0 .1 0 .2-.1-.1-.1-.1-.1-.2zM13.4 29.4c0 .1 0 .1 0 0-.1.1-.1 0-.2 0 0 0 0-.1.1-.1s.1.1.1.1zM7.5 30.8c-.1-.1 0-.2 0-.3.1.1.1.2 0 .3z"/><path fill="#FFF" d="M16.8 24c0 .1 0 .1 0 0-.1.1-.1.1-.1 0h.1z"/><path fill="#C9564D" d="M12.3 40c0 .1-.1.1-.1 0s0-.1.1 0zM13 39h.1c0 .1-.1.1-.2.1.1 0 .1 0 .1-.1zM12.6 39h.1v.1c-.1 0-.1 0-.1-.1zM19.4 36.6c-.1 0-.1-.1 0 0 0-.1 0 0 0 0zM14.6 29.2s0 .1 0 0c0 .1 0 .1 0 0z"/><path fill="#FFF" d="M19.7 31.7h-.1v-.1c0 .1 0 .1.1.1z"/><path fill="#C9564D" d="M23.7 23.7v.1-.1zM16.6 29.7zM17.8 27.4zM9.6 29.4zM9.6 29.4c0-.1 0 0 0 0z"/><path fill="#FFF" d="M24.8 38c0-.1-.1-.1 0-.2 0 0 0-.1-.1-.1s-.1 0-.1.1c0 .2-.2.2-.3.3-.2.1-.3 0-.4-.1-.1-.2-.1-.5-.1-.7 0-.1.1-.2.2-.3.1-.1.2-.2-.1-.2-.2 0-.2-.2-.2-.3V35.2c-.1-.4.1-.7.4-.9.1-.1.2-.1.3-.3H24c-.2.1-.4 0-.4-.2-.1-.4 0-.8 0-1.2 0-.3-.1-.6 0-.9.2-.3.5-.3.8 0 .2-.3.3-.3.6 0 .1-.2.3-.3.5-.4v.3c0 .2 0 .4.3.2h.1c.2.3.6.2.9.5.1.2.1.4.1.7 0 .1 0 .1-.1.2-.1 0-.1 0-.2-.1-.1-.2-.2-.1-.3 0-.1.1-.1.2.1.2l.1.1c0 .4.3.4.6.4.2 0 .2.2.2.3.1.6.1 1.2.1 1.8 0 .1 0 .3-.2.3-.1 0-.1.2-.1.3-.5 0-1.6.5-1.8.9.1 0 .2 0 .3-.1.3-.2.7-.3 1-.5.2-.1.4-.1.5-.4.2.1.3.3.2.5v.9c0 .5-.3.7-.6.9-.2.1-.4.1-.6.2-.1 0-.2 0-.2-.1-.1-.1 0-.2 0-.2.2-.2.4-.2.6-.3.1-.1.2-.1.1-.3-.2.1-.3.2-.4.3-.2.1-.4.2-.5-.1 0-.1-.2-.1-.2-.1-.3.1-.5-.1-.7-.1zm.2-1.7c.4-.2.7-.5 1.1-.4l.1-.1c.1-.1.1-.2.2-.2s.2-.1.1-.2c0-.1-.1-.1-.2 0l-.9.3c-.2.1-.4.2-.5.4v.1c0 .1 0 .1.1.1z"/><path fill="#C9564D" d="M37.6 25.9c-.1.6-.3 1.1-.6 1.6 0 .1-.1.2-.1.2-.1.4-.2.7-.5 1-.2.2-.2.5-.5.8-.3.3-.7 1-1 1.4l-.3.6c-.5.6-.9 1.3-1.5 1.8-.3.2-.4.6-.7.7 0-.8-.1-1.5 0-2.3 0-.3-.1-.5-.1-.8 0-.4.2-.8.5-.9.3-.1.5-.3.9-.3.2 0 .4-.1.5-.2.2-.1.1-.4.1-.6 0-.2 0-.4.1-.5.1-.3.4-.3.6-.3.2 0 .2-.1.3-.2.1-.2.1-.3.2-.4.2-.1.3-.3.2-.5 0-.1 0-.3.1-.4.2-.1.2-.2 0-.3.1-.3-.1-.6 0-.9.1-.1 0-.4.3-.2.1.1.1-.1.1-.1.1-.3.3-.6.7-.6.1-.4.4-.8.3-1.2 0 0 0-.1.1-.1.3-.3.5-.6.6-.9 0-.1 0-.1.1-.1s.1.1.1.1c0 .2.1.3 0 .5 0 .1 0 .2.1.2-.3.7-.3 1.4-.5 2.1-.1.3-.1.5-.3.7.1-.3.1-.1.2.1zM38.7 6c.2.1.3 0 .5-.1.1 0 .2-.1.3.1.1.1.1 0 .2 0 .1-.2.3-.1.3.1 0 .5 0 .9-.1 1.4 0 .1-.1.3-.1.4 0 .8 0 1.6-.1 2.4-.1.6 0 1.3-.2 1.9-.1.5 0 1.1 0 1.6-.1.5 0 1-.2 1.5-.2.1-.3.7-.1.8h.1c.1.3 0 .6-.1.9-.1 0-.1-.1-.2-.1.1.1-.1.4.2.4-.1.6 0 1.3-.4 1.8 0-.3-.1-.7.1-1 .1-.1-.1-.4-.1-.5-.1-.4 0-.8 0-1.2 0-.6.1-1.1 0-1.7 0-.2 0-.4.1-.6 0-.3-.1-.5-.1-.8 0-.7.1-1.4.1-2.1 0-.7 0-1.5-.1-2.2V8c.1-.3.2-.9 0-1h-.1V6zm.5 7.6c.2-.1.2-.2.2-.3h-.1c-.1 0-.1.1-.1.3z"/><path fill="#FFF" d="M32.2 34.6v1c0 .2 0 .3-.1.4-.2.1-.3.2-.5.3 0 0-.1 0-.1.1s.1 0 .2 0c.2-.1.3-.1.4-.3.1.1.2.2.1.3-.1.1-.3.4-.5.2-.4-.2-.6-.1-.7.3 0 .2-.2.2-.3.1-.4-.3-.6.1-.8.2 0 0-.1.1-.2.1h-.1c-.2-.2-.2-.5-.2-.8 0-.4 0-.7-.1-1.1v-.1c-.4-.5 0-1 0-1.5 0-.4.4-.7.9-.8.3.6.5 1.2.9 1.7.1.2.2.3.4.1.1-.1.3-.2.4-.4.1.1.2.2.3.2z"/><path fill="#C9564D" d="M32.2 34.6c-.1-.1-.2-.1-.2 0-.1.2-.3.3-.4.4-.2.2-.3.1-.4-.1-.4-.5-.6-1.1-.9-1.7.2-.3.6-.3.8-.6.1-.1.2-.3.3-.4.1-.3.4-.4.4-.7 0 0 0-.1.1-.1s.1 0 .1.1c0 .2.2.5.1.7 0 .2-.2.3-.4.2h-.1c-.1 0-.1.1-.1.2s0 .2.1.2c.6.2.6.3.6.9 0 .1-.1.3.2.5-.1.2-.1.3-.2.4zM25.4 31.2c-.2.1-.4.2-.5.4-.2-.3-.4-.3-.6 0-.3-.3-.6-.3-.8 0-.2-.2-.1-.4-.2-.7v-.6c0-.2 0-.3.2-.3s.3 0 .4.2c0 0 0 .1.1.1.1-.1.2-.2.2-.4s0-.4.3-.5c.1 0 .1-.2.1-.3 0-.3.1-.5.4-.5.2 0 .4-.1.6.1.1.1.1.2.1.3 0 .1-.1.2-.1.1-.3-.2-.4.1-.6.3 0 0-.1.1-.1.2-.3.1-.3.4-.5.6-.1.1 0 .3.1.4.2.1.2.2 0 .3-.1.1-.3.1-.4.2 0 0-.2.1-.1.2s.1.1.2.1c.1-.1.2-.1.3-.2.3-.2.7-.3.9 0 0-.1 0 0 0 0z"/><path fill="#FFF" d="M28.1 33.4c0 .3-.2.3-.4.4-.1-.3-.3-.6-.5-.9-.1-.1-.1-.2-.1-.3 0-.2 0-.3-.2-.4-.1-.1-.2-.2-.1-.4l.3-.6.1-.1c.1 0 .1.1.1.1s0 .1.1.1c.4 0 .4.2.4.5 0 .1.1.2.1.3.1.1.2.3-.1.4-.1 0-.1.4.1.4.2.1.4.1.6 0 .3-.1.5 0 .4.3v.8c-.4 0-.7-.2-.8-.6z"/><path fill="#C9564D" d="M34.6 6.9c.4 0 .4 0 .3.4 0 .1 0 .2-.1.3-.1.2-.1.6-.4.6-.2 0-.2.3-.2.5V9s0 .1-.1.1c0 0-.1 0-.1-.1-.2-.3-.5-.5-.3-.9v-.2c0-.3-.1-.5.3-.7v-.1c0-.3.4-.1.6-.2zM31.9 6c.1-.1.3 0 .3-.2.2.1.1.4.1.5v1.1c0 .1-.1.2-.2.2s-.1-.1-.2-.2l-.3-.6c-.1-.1-.1-.2.1-.2h.1c.2-.1-.2-.3.1-.4.2 0 .2 0 0-.2zM31.9 28c-.2-.1-.3.2-.5.2-.1 0-.1.1-.2 0s0-.1 0-.2c.1-.1.1-.2.1-.3.1-.2 0-.5.4-.4.1 0 .2-.2.2-.3.1-.1.1-.1.2-.1s.2.1.2.2c0 .3-.1.5-.3.8.1.1 0 .1-.1.1zM35.4 39.6h-1.5c0-.1.1-.1.2-.1s.2 0 .2-.1.1-.2 0-.3c-.1 0-.2 0-.2.2-.1.1-.3-.1-.4.1 0 .3-.2.1-.3.1-.1-.2.1-.4 0-.6.1-.3.1-.3.3-.2 0 .2.1.3.3.3.2 0 .5 0 .7.2-.2.4.1.3.3.3.1.1.2.1.3.1-.1-.2 0-.1.1 0zm-1.8-.4s0-.1 0 0c.1-.1 0-.1 0-.1s-.1 0 0 .1c-.1-.1-.1-.1 0 0zM33.6 23.9c0-.2.1-.3.3-.3.2 0 .2.2.2.3.2.4 0 .7 0 1.1 0 .1-.1.1-.2.2 0-.2-.2-.1-.3-.2-.1-.2-.2-.4-.1-.6h.1c-.1-.2.1-.3 0-.5zM29.4 29.8c-.1.2 0 .4-.3.5-.2 0-.6-.3-.5-.5.1-.3.3-.3.5-.3.2-.1.4.1.3.3zM26.9 36.4c-.1.2-.3.3-.5.4-.3.2-.7.2-1 .5-.1.1-.2 0-.3.1.2-.5 1.3-1.1 1.8-1zM34 22.7c0-.1 0-.2.1-.2 0-.2 0-.3.2-.4.1 0 .4.4.3.6-.1.2-.2.4-.3.5-.2.2-.2.1-.3-.1.3-.1.3-.3 0-.4zM34.5 11.2c.1.1 0 .2 0 .3 0 .2 0 .4.1.6v.1c.1.2.1.4 0 .6-.1.1-.1.1-.2 0-.2-.2-.3-.4-.2-.6.1-.2.1-.4.1-.6 0-.2 0-.3.2-.4z"/><path fill="#FFF" d="M27.1 39.6c-.3-.3-.5.1-.8 0-.1 0-.2.1-.2 0s0-.3.1-.3c.3-.1.6-.1.9 0 .1 0 .1.2.2.3h-.2z"/><path fill="#C9564D" d="M36.2 8.5c-.1.2-.1.4-.2.6 0 .1-.1.2-.2.1s-.4-.1-.3-.4c.1-.2.4-.5.6-.6.1.1.1.2.1.3zM30.2 29.7c0 .1.1.2-.1.2-.1 0-.2 0-.3-.1 0-.1-.1-.2-.2-.2s-.2-.1-.2-.3c0-.2.2-.2.3-.3.1 0 .2.1.2.2.3.2.3.3.3.5zM35.3 25.2c.2 0 .4 0 .5.3 0 .3-.1.4-.3.5h-.2c-.1-.2-.3-.4 0-.6.1-.1-.1-.1 0-.2z"/><path fill="#FFF" d="M32.8 36.9c.2-.1.2 0 .4.1.1.1.1.2.1.3 0 .1-.1.1-.2.1s-.3-.1-.4 0c-.2 0-.3-.1-.3-.3 0-.2.2-.1.3-.2h.1z"/><path fill="#C9564D" d="M33.2 39.5c0 .2-.1.4.2.3.3-.1.5 0 .8.2-.5.1-.9 0-1.3-.2 0 0 .1 0 .1-.1-.1-.3.1-.2.2-.2zM32 10.3c0 .2-.2.3-.3.3-.1 0-.1-.2-.1-.4s0-.4.2-.5c.2-.1.2 0 .2.1v.5zM28.5 29.5c0 .1-.1.3-.3.3-.3-.1-.2-.4-.3-.6 0-.1.1-.1.1-.1.3.1.6 0 .5.4zM35.5 13.6c0-.1 0-.2.1-.2s.5.3.5.3c0 .2-.2.3-.3.3-.3 0-.2-.3-.3-.4zM34.8 6.2c0 .2 0 .5-.3.5s-.2-.3-.2-.5c0-.1 0-.2.1-.2.1.1.3 0 .4.2zM30.3 39.8c.3-.1.7 0 1 0 .1 0 .1 0 .1.1s-.1.2-.2.1c-.3-.1-.6 0-.9-.1v-.1z"/><path fill="#FFF" d="M28.3 31.5c.2-.1.2.1.2.2-.1.2-.1.3-.1.5 0 .1 0 .2-.1.1-.1 0-.1-.1-.1-.1 0-.2-.1-.3 0-.5-.1-.2-.1-.3.1-.2zM34.8 6.2c-.1-.1-.3-.1-.4-.3 0-.1.1-.3.1-.4 0-.1 0-.2.1-.1.1 0 .1.1.1.2.1.1.1.3.1.6z"/><path fill="#C9564D" d="M36.1 15.2c0-.1 0-.3.2-.3.1 0 .2.2.2.4 0 .1-.1.3-.2.3-.2-.1-.2-.3-.2-.4z"/><path fill="#FFF" d="M29.9 8.8c.1 0 .1.1.1.2 0 .3-.2.6.1.8 0 0-.1 0-.2-.1 0-.1-.1-.1-.2-.1 0-.4.1-.6.2-.8z"/><path fill="#C9564D" d="M29.1 28.7c.1 0 .2.1.2.2 0 .2-.2.2-.3.3-.1 0-.2-.1-.2-.2 0-.3.2-.2.3-.3zM29 35.7c.1.2.1.4.2.5 0 .1-.1.3-.2.5 0 0-.1 0-.1-.1.1-.3-.1-.6.1-.9z"/><path fill="#FFF" d="M29.8 32.6c0 .1-.1.3-.2.3-.2 0-.1-.2-.1-.3 0-.1.1-.2.2-.3 0 0 .1.2.1.3zM38.7 7h.1c.1.1.1.8-.1.9.1-.4 0-.6 0-.9z"/><path fill="#C9564D" d="M38.3 5.7c-.1-.2-.4 0-.4-.4 0-.1 0-.2.1-.2s.1.1.1.1 0 .1.1.1.1-.2.2-.1c0 .1-.1.1-.1.2-.1.1.1.2 0 .3zM32.7 29.8c-.1-.1-.2-.2-.3-.2-.1 0-.1-.1-.1-.2s0-.2.1-.2h.2c.1.3.2.4.1.6zM38.8 20.3c.1.2 0 .3 0 .5-.1 0-.3.1-.3-.1 0-.1 0-.3.2-.3 0 0 0-.1.1-.1z"/><path fill="#FFF" d="M28 6.4c-.1 0-.1.1-.2.1.2-.4.2-.4-.2-.5.2-.2.3-.2.4.1.1.1 0 .2 0 .3z"/><path fill="#C9564D" d="M32.3 26c0-.1.1-.2.2-.2s.1.1.2.2 0 .2 0 .3l-.2.2c-.2-.2-.1-.4-.2-.5zM29.5 37.5h.1c.1.3.1.5-.1.7h-.1c0-.3.1-.5.1-.7z"/><path fill="#FFF" d="M32.3 26c.2.1 0 .3.1.4v.2h-.1c-.1-.2-.1-.4 0-.6z"/><path fill="#C9564D" d="M27.7 29.4c0 .1 0 .2-.1.2s-.3-.1-.3-.2c0-.2.2-.2.3-.2.1-.1.1.1.1.2zM32.1 36.2c-.1.1-.3.2-.4.3h-.2c-.1-.1 0-.1.1-.1.2-.1.3-.2.5-.3v.1zM27.6 6c.4.1.4.1.2.5-.2-.1-.4-.3-.2-.5zM37.6 5.9c0-.2.1-.4 0-.6 0 0 0-.1.1-.1s.1 0 .1.1c-.1.2 0 .4-.2.6z"/><path fill="#FFF" d="M34.6 13.8c-.2 0-.1-.2-.2-.3v-.3c.3.1.2.4.2.6zM35.8 12.8c0 .1.1.3-.2.4-.2 0-.2 0-.2-.1.2-.1.3-.3.4-.3z"/><path fill="#C9564D" d="M31.5 37.8h.5c.1 0 .1 0 .1.1s-.1.1-.2.1-.3 0-.4-.2zM35.8 12.8c-.2 0-.2.3-.4.3-.1-.4-.1-.5.3-.4.1-.1.2 0 .1.1zM32.5 39.6c.1-.1-.1-.3.1-.3s.2.1.2.2c0 .3-.2.1-.3.1z"/><path fill="#FFF" d="M32.6 24.7c0 .1.1.2-.1.3h-.2c-.1-.1-.1-.2 0-.2.2-.1.3-.1.3-.1z"/><path fill="#C9564D" d="M31.9 30.6c0 .1-.1.1-.3.2-.1 0-.1-.1-.1-.1.1-.1.1-.3.3-.3.1 0 .1.1.1.2zM32.6 34.9h.4c.1 0 .1 0 .1.1s-.1.1-.1.1h-.3c0-.1-.2-.1-.1-.2zM27.1 39.6c.1 0 .1-.1.2-.1.2.1 0 .3.1.5h-.1c0-.1.1-.3-.1-.2-.2 0-.2-.1-.1-.2zM31.3 30.8c0 .1 0 .2-.1.1-.1 0-.1-.2-.1-.3 0-.1 0-.1.1-.1.1.1.1.2.1.3z"/><path fill="#FFF" d="M28.8 7.1c-.2 0-.2-.1-.2-.2s.1-.2.2-.1c.1 0 0 .2 0 .3zM34 22.7c.2.2.2.3 0 .4-.1-.2 0-.3 0-.4zM25.7 31c.2.1.2.3.1.4 0 .1-.1.1-.1 0-.1-.1-.1-.2 0-.4zM26.7 29.8c0-.1.1-.2.2-.2s.1.1.1.1c0 .1 0 .2-.1.2-.2.1-.2-.1-.2-.1zM33.5 13.4c-.2-.1-.1-.3 0-.5.1.2 0 .3 0 .5zM31.2 10.2c-.1 0-.2 0-.2-.1s-.1-.3.2-.2c0 .1-.1.2 0 .3z"/><path fill="#C9564D" d="M31.3 28.9c0 .1 0 .2-.1.2s-.1-.1-.1-.2 0-.2.1-.2c.1.1.1.2.1.2z"/><path fill="#FFF" d="M33.6 23.9c0 .2-.1.3 0 .5h-.1c0-.2 0-.4.1-.5z"/><path fill="#C9564D" d="M37.4 5.8c-.1-.1-.3-.2-.2-.3h.1c.2 0 .1.1.1.3zM30.3 32.4c-.1-.2 0-.3.1-.3h.1c.1.2-.1.2-.2.3zM32.6 24.7h-.2c0-.1 0-.2.1-.4.2.1.1.3.1.4zM19.5 40c.2-.1.3-.2.5 0h-.5z"/><path fill="#FFF" d="M36 26.1c.2.2.2.3 0 .3v-.3z"/><path fill="#C9564D" d="M29.2 33.6c-.1-.2-.1-.3.1-.4h.1c0 .2-.1.3-.2.4zM35.7 7.5c.2.2.2.2 0 .5-.1-.2 0-.3 0-.5z"/><path fill="#FFF" d="M32 10.3v-.5c.2.2.1.3 0 .5z"/><path fill="#C9564D" d="M18.9 39.9c.1 0 .2-.1.3 0-.1.1-.2.2-.3 0zM25.1 38.8c0-.1.1 0 .1 0 .1 0 .1 0 .1.1s0 .1-.1.1c-.1-.1-.1-.1-.1-.2zM32.9 39.2c0-.1.1-.2.2-.2V39.3c-.1 0-.2-.1-.2-.1zM24.9 39.8c.1-.1.1-.1.2-.1 0 0 .1 0 0 .1h-.2zM32.8 38.7s0 .1 0 0c-.1.1-.1 0 0 0-.1-.1-.1-.1 0 0zM24.8 38s0 .1-.1.1l.1-.1c-.1 0-.1 0 0 0zM33 38.6c.1 0 .1 0 0 0zM27.7 40.1c0 .1-.1.1-.1 0s.1-.1.1 0zM19.1 40.2c0 .1-.1.1-.1 0h.1zM35.2 5.6c0 .1-.1.1 0 0-.1.1-.1.1 0 0-.1 0-.1 0 0 0-.1 0 0 0 0 0zM32.3 26.6h.1c0 .1 0 .1-.1 0 0 .1 0 .1 0 0zM35 16.4c0-.1 0-.1 0 0 0-.1 0-.1 0 0zM29.6 39.8zM30 33.1zM30 33.1c-.1 0-.1 0 0 0-.1 0-.1 0 0 0z"/><path fill="#382D2B" d="M36.7 36.4c-.2.2-.4 0-.5.1-.2.1-.3-.1-.4-.2-.1-.2-.3-.1-.4 0-.3.2-.8.2-1.1-.1-.1-.1-.2-.1-.3-.1-.1.1-.3 0-.3-.2s.2-.2.2-.1c.3.1.6-.2.9-.2.4 0 .8.1 1.2.1.6.1 1.1.4 1.7.4.1 0 .2.1.3.2v.2c-.1 0-.1 0-.1-.1-.5-.1-.9-.3-1.4-.3-.1 0-.2 0-.2.1s.1.1.1.1c.2.1.2.1.3.1zM35.8 34.9h.2c.3 0 .6.2 1 .2.1 0 .3 0 .3.2s-.1.2-.3.1c-.1 0-.1-.1-.1.1-.7-.1-1.4-.1-2.2 0-.1 0-.3-.1-.4 0-.1 0-.1-.1-.1-.1 0-.1 0-.2.2-.1.1.1.3.1.4 0 .1.1.3 0 .5 0s.3-.1.2-.3c.1-.1.1-.1.2 0 0-.1 0 0 .1-.1zM36.8 36.9c.2 0 .4.1.5.1H38.2c.2.1.4.1.4.3 0 .2-.3.1-.4.1-.4.1-1 0-1.4-.5 0 .1 0 .1 0 0zM35.4 39.6c-.1-.1-.2-.2-.4-.1-.1 0-.2 0-.3-.1.1-.3 0-.4-.3-.3-.2-.1-.4-.2-.7-.2-.2 0-.3 0-.3-.3.1 0 .2-.1.2 0s.1 0 .2 0c.2.2.4.1.6.1.4.1.6.3.9.5.2.1.3.3.1.4zM37.5 35.1h.2c.2.1.3.1.5.1.1 0 .2.1.3.1h.1c.3 0 .3.2.2.4h-.4c-.1-.1-.2-.1-.3 0H38c0-.1-.1-.2-.2-.3 0 .1-.1.2-.1.2-.1 0-.2-.1-.3-.1 0-.2 0-.3.1-.4z"/><path fill="#C9564D" d="M37.5 35.1c0 .1 0 .3-.1.4-.2.1-.4.1-.5 0 0-.1.1-.1.1-.1.1 0 .2.1.3-.1 0-.2-.1-.2-.3-.2-.3 0-.7-.1-1-.2.1-.2.3-.1.5 0 .3.1.7-.1 1 .2z"/><path fill="#382D2B" d="M34.9 34.9c-.2-.1-.5-.1-.7-.2-.1-.1-.2-.1-.1-.2s.1 0 .2 0 .1.1.2 0c.3-.1.5 0 .7.3-.1.1-.2.1-.3.1z"/><path fill="#C9564D" d="M36.8 36.9c0 .1 0 .1 0 0-.3.1-.6.1-.9.1-.1 0-.2 0-.2-.1s.1-.1.2-.1c.3 0 .6 0 .9.1zM34.9 34.9h.3c.1.1.2 0 .3 0 .1.2 0 .3-.2.3h-.5c0-.2.1-.3.1-.3z"/><path fill="#382D2B" d="M33.6 39.4c.1-.2.3 0 .4-.1.1.1.1.2.3.1 0 .2-.1.1-.2.1s-.2 0-.2.1c-.3.1-.2-.2-.3-.2zM39.3 16.2c-.1 0-.1 0 0 0-.2-.2-.2-.7 0-.8v.8z"/><path fill="#C9564D" d="M37.7 35.6c0-.1.1-.1.1-.2.1.1.2.1.2.3-.1-.1-.3 0-.3-.1zM38.1 35.1c-.2.1-.3 0-.5-.1.2 0 .4 0 .5.1z"/><path fill="#382D2B" d="M39.2 17.3c-.3 0-.1-.2-.2-.4.1 0 .1.1.2.1v.3zM37.6 25.9c-.1-.2-.1-.4.1-.5 0 .1 0 .3-.1.5z"/><path fill="#C9564D" d="M38.1 35.6c.1-.1.2-.1.3 0-.1.1-.2 0-.3 0zM37.5 37h-.1.1zM35.8 34.9c-.1.1-.1 0-.1-.1 0 0 .1 0 .1.1zM38.6 35.6h.1c.1.1 0 .1-.1 0 .1.1 0 .1 0 0zM33.9 38.6c-.1 0-.1.1-.2 0h.2zM38.5 35.2c0 .1 0 .1 0 0-.1 0 0 0 0 0zM39.3 15.7v-.1.1z"/><path fill="#382D2B" d="M26.6 23c0 .3 0 .5-.2.6-.1.4-.4.7-.7 1v.1c.2.5-.3.8-.5 1.1-.2.2-.4.5-.5.7-.1.2-.2.3-.3.4-.2.2-.2.6-.4.8v.1c-.3.1-.3.3-.4.5-.1.2-.2.4-.5.5-.1 0-.1.2-.2.3 0 .1-.1.2-.2.3-.3.2-.4.6-.6.9 0 .1 0 .2.1.2s.2 0 .2.1c-.3.2-.5.2-.6 0v-.1c.2-.4.2-.5-.3-.5-.1 0-.2 0-.2-.1s.1-.1.2-.1.3.1.3 0c.1-.3.5-.4.4-.7 0-.2.1-.4.2-.6.1-.1.1-.2.2-.3.2-.4.2-.5-.3-.5.1-.2.2-.1.4-.2.6-.2.9-.6 1.2-1.2.2-.5.6-.9.9-1.3.1-.1.2-.1.2-.3 0-.2 0-.4.4-.3.2 0 .2-.2.3-.3.1-.2.3-.4.4-.7 0-.2.3-.2.5-.4zM30.8 22.1c0 .3-.1.7-.2 1-.1.2-.3.4-.4.6l-.1.1c0 .1.1.2-.1.2-.1 0-.2-.1-.2-.2v-.3c.1-.5.2-1-.1-1.6-.1-.2.1-.6.3-.8.1-.1.3 0 .3.1.2.3.5.5.5.9zM33.7 18.2c.3.1.3.3.3.6 0 .6-.1 1.1-.1 1.7 0 .4-.4.7-.7 1-.1.1-.1 0-.2-.1-.1-.2 0-.3 0-.5.1-.2.1-.3.1-.5v-.1c.5-.1.3-.5.3-.7 0-.3.2-.6.1-.9.1-.2.1-.4.2-.5zM26.7 9.8c.1 0 .2.3.3 0 0 .2.1.3.1.4 0 .2.1.5-.2.6-.1 0-.1.2-.2.3-.1.1-.2.2-.4.1s0-.2-.1-.3c.2-.3.5-.6.5-1.1zM31.7 17.5c-.2.4.1.8-.2 1.2-.1.1-.1.3-.2.1h-.1c-.1.1-.2 0-.2 0-.1-.1.1-.1.1-.1 0-.3.2-.5.3-.8 0-.2-.2-.3-.1-.5.1-.1 0-.4.2-.4.2.1 0 .4.2.5zM33.8 15.3c.2.1.3.2.3.4 0 .3.1.7 0 1 0 .1-.1.3-.2.3s-.2-.2-.2-.3c0-.2 0-.4-.1-.6-.2-.3.1-.5.2-.8zM26.4 13.7c-.3 0-.4-.3-.3-.5.1-.2.2-.3.1-.5v-.1c0-.1 0-.3.1-.4.1 0 .2.1.3.2 0 .2.1.3 0 .5-.3.2-.2.4 0 .6.1.1.1.1.1.2-.1 0-.2-.1-.3 0zM28.6 14c-.2.2 0 .6-.1.9 0 .1 0 .2-.1.2-.1-.1-.4 0-.3-.3 0-.2.1-.4.2-.5 0-.1.2-.1.2-.3 0 0 0-.1.1-.1v.1zM29.7 14.3c0-.3 0-.6.1-.9 0-.2.1-.5 0-.7 0-.1 0-.1.1-.2.1 0 .1.1.1.1.1.4-.1 1.3-.3 1.7zM19.9 19.6c.1-.1.3-.1.3-.3.1 0 0-.2.2-.1.1 0 0 .1 0 .2 0 .3 0 .5-.3.5-.2 0-.1.3-.2.3v-.6zM31 21.2c-.1-.1-.1-.2-.3-.2-.1 0-.1-.2-.1-.3 0-.1.1-.2.2-.1.2.1.2-.1.3-.1.1.2.1.5-.1.7zM29 22.1c-.1-.2-.2-.5-.4-.7-.1-.1 0-.1.1-.2.1 0 .1-.1.2 0 .2.3.2.6.1.9zM27.8 9.8c-.1-.5.2-.8 0-1.3.4.3.3.8 0 1.3zM29.7 19.3c.1.3.1.5 0 .8 0 0 0 .1-.1.1 0 0-.1 0-.1-.1.1-.3 0-.5.2-.8zM21.7 34c-.2 0-.3-.2-.3-.3 0-.1 0-.2.1-.2s.3.3.3.4c.1 0 0 .1-.1.1zM29.6 15.9c-.2-.1-.2-.1-.1-.8.2.2-.1.5.1.8z"/><path fill="#382D2B" d="M22.6 26.9c.1-.1 0-.3.2-.3s.2.2.2.3c0 .1-.1.2-.2.2-.2 0-.2-.1-.2-.2zM26.4 21v-.2c.1-.1 0-.3.1-.3s.1.1.2.2c0 .2-.1.2-.3.3zM27.2 20.8c0 .1 0 .2-.1.2s-.2-.1-.2-.2.1-.1.2-.1c.1-.1.1.1.1.1zM21.6 17.8c.1 0 .2 0 .2.1s-.1.3-.2.4c-.1 0-.1-.1-.1-.1.1-.1 0-.3.1-.4zM27.1 22.4c.2.3.1.4-.3.4 0-.2.2-.3.3-.4zM22.6 16.1c-.1.1-.1.2-.2.2s-.1-.1-.1-.2c.1-.1.2-.1.3-.2 0 0 .1.1 0 .2zM27.7 21.9c0 .1 0 .2-.1.1-.1 0-.1-.1-.1-.2s0-.1.1-.1.1.1.1.2zM20.9 29.5c.1.1.1.2 0 .3 0-.1-.1-.2 0-.3z"/><path fill="#FFF" d="M20.1 33.2v.1-.1z"/><path fill="#382D2B" d="M27.7 24.2c0-.1 0-.1 0 0 0-.1 0-.1 0 0zM10.7 35.7c-.1-.8 0-1.5-.2-2.2-.1-.3.1-.5.2-.8 0-.1.1-.1.1 0 .1.1.2.1.3.1.4.2.9.1 1.3.1.2 0 .3-.1.3.2.1 1 .1 2.1.2 3.1 0 .2-.1.3-.2.3-.6 0-1.3.2-1.9 0-.1 0-.1 0-.1-.1v-.7zm1.3.1c0-.1 0-.2-.1-.2h-.1v.5l.1.1c.1-.1 0-.2.1-.4 0 .1 0 0 0 0zm.5-2.4c0 .1-.1.3 0 .4.1-.1.1-.3 0-.4zm-1.6.7c.1-.1.1-.2.1-.3h-.1c-.1.1-.1.2 0 .3zM21.4 15.5c-.1-.3.1-.5.4-.5 0 0 .1 0 .1.1s0 .2-.1.2c-.2.1-.4.1-.4.2zM20.8 17.3c0 .1 0 .2-.1.2-.2 0-.1-.2-.2-.4 0-.1 0-.3.1-.2.2.1.2.3.2.4zM25 36.3h-.1v-.1c.1-.2.3-.4.5-.4l.9-.3c.1 0 .2-.1.2 0s0 .2-.1.2-.2.1-.2.2l-.1.1c-.4-.2-.7.1-1.1.3zM39.2 13.6c.1-.2 0-.3.1-.4h.1c0 .2 0 .3-.2.4z"/><path fill="#FFF" d="M34.5 39.1c.3 0 .3 0 .3.3-.2-.1-.5 0-.3-.3zM34.2 39.4c-.1 0-.2-.1-.3-.1 0-.1.1-.2.2-.2.3 0 .1.2.1.3z"/><path fill="#382D2B" d="M33.6 39.2c-.1-.1-.1-.1 0 0v-.1.1c0-.1 0 0 0 0z"/><path fill="#C9564D" d="M12 35.8s0 .1 0 0c0 .1 0 .3-.1.3 0 0-.1 0-.1-.1v-.5s.1-.1.1 0c.1.2.1.2.1.3zM12.5 33.4c.1.1.1.3 0 .4-.1-.1 0-.3 0-.4zM10.9 34.1c-.1-.1-.1-.2 0-.3h.1c0 .1 0 .2-.1.3z"/></svg>