<svg version="1.2" baseProfile="tiny" xmlns="http://www.w3.org/2000/svg" viewBox="0 0 45 45" overflow="visible" xml:space="preserve"><path fill="#9ACA3C" d="M-4.5-49.5h576v144h-576z"/><path fill="none" d="M.5 0H45v44.5H.5z"/><path d="M15.9 11.6v-.2c0-.1.1-.1.1-.1h.6c.1 0 .1.1.1.2v.2c.6.5 1.1 1.1 1.6 1.6h.1l.1.1v.1s0 .1.1.1c0 0 .1 0 .1.1l.5.5v.2l.1.1v.1l.7.7.3.3c.1.1.2.2.2.3.1.1.1.3.2.4h.1c.1-.1.2 0 .3 0 0 0 .1 0 .1.1l.1.1c.1 0 .1-.1.1-.1.1-.2.2-.3.2-.4V16.3c-.1 0-.1.1-.2.1l-.2.2v.1l.3.3.1.1.9.9.9.9.8.8v.4l-.3.3h-.4l-.1-.1h-.1s-.1 0 0 .1.1.1 0 .1l-.2.2v.1s.1 0 .1.1c.1.1.2.1.3.2 0 0 .1 0 .1.1h.1l.2-.2H24.2v.1c0 .1 0 .1-.1.2 0 .1-.1.1-.2.2l-.6.6-.7.7-.9.9c-.1.1-.2.1-.2.2l-.2.2c-.1.1-.1.1-.2.1 0 0-.1 0-.1-.1V23.8l.3-.3v-.1s0-.1-.1-.1c0-.1 0-.1-.1-.2V23l-.2-.2h-.1l-.2.2s0 .1-.1.1l-.1-.1h-.1c-.1.1-.1.1 0 .1l.1.1v.4l-.3.3H19.8s-.1 0-.1-.1c-.3-.3-.6-.7-1-1l-.8-.8c-.1-.2-.3-.3-.5-.5l-.6-.6-.2-.2c0-.1-.1-.1-.1-.2V20.2c-.1 0-.2-.1-.3-.1-.1 0-.1-.1-.2-.1 0 0-.1 0-.1-.1l-.1-.1-.1-.1c-.2-.2-.4-.5-.7-.7-.1-.1-.2-.1-.2-.2l-.1-.1s-.1-.1-.1 0h-.1l-.2-.2-.2-.2c0-.1-.1-.1-.1-.1l-.1-.1h-.1V18l-.4-.4-.2-.2c-.4-.3-.7-.7-1-1h-.1c-.2 0-.2 0-.2-.2V15.6c0-.1.1-.1.1-.1h.2l.3-.3.3-.3.2-.2-.6.6-.3.3h-.4l-.2-.2V15.1l.2-.2.6-.6.6-.6.4-.4H13.6c-.1-.1 0-.2 0-.2l.3-.3s.1 0 .1-.1 0-.1.1-.1l.3-.3c.1-.1.2-.2.2-.3.1-.1.2-.1.3 0 .7-.7.8-.5 1-.4zm2.6 8.9c-.1 0-.1 0 0 0-.1.1-.1.1-.1.2.1.1.2.2.4.3l.3.3.3.3c.1.1.2.1.3.2.1.1.3.2.4.4.1.1.2.2.3.2l.3.3c.1.1.1.1.1 0l.3-.3.2-.2.2-.2.2-.2.2-.2.2-.2.1-.1.5-.5.4-.4v-.1l.1-.1-.1-.1c-.1-.1-.1-.2-.2-.2-.1-.1-.1-.2-.2-.3l-.2-.2c-.1-.1-.1-.2-.2-.3 0-.1-.1-.1-.2-.2s-.1-.2-.2-.2c-.1-.1-.2-.2-.2-.3-.1-.1-.2-.2-.3-.4l-.3-.3H21l-.4.4c-.1.1-.1.2-.2.2l-.4.4-.9.9-.1.1-.1.1-.1.1c.1.2-.1.4-.3.6zm-5.3-5.9c-.1.1-.1.1 0 .1l.5.5.2.2c.1.1.1.1.2.1h.2l.1-.1.5-.5.2-.2.2-.2.1-.1.3-.3.5-.5c.1-.1.1-.1.1-.2s0-.2-.1-.2L16 13c-.1-.1-.2-.1-.2-.2l-.4-.4v.1h.1v.2l-.2.2-.2.2-.3.3-.3.3-.1.1-.2.2c-.2.2-.4.3-.5.5l-.2.2-.1.1c-.1-.1-.2-.1-.2-.2zm4.6 5.2-.2.2c.1 0 .1.1.2.1s.1.1.2.1.1.1.2.1.1.1.2.1h.1l.7-.7.6-.6c.1-.1.1-.2.2-.2l.6-.6.3-.3.1-.1c0-.1.1-.1.2-.2l.2-.2v-.1c-.1-.1-.1-.2-.2-.2-.1-.2-.2-.3-.3-.5 0 0 0-.1-.1 0l-.7.7c-.3.3-.6.7-1 1-.2.2-.4.5-.7.7-.1.1-.2.2-.4.3 0 .2-.1.3-.2.4zm-.6-2.6s0 .1 0 0c.1.2.3.3.4.4l.2.2h.1s0-.1.1-.1l.1-.1.3-.3c.1-.1.2-.1.3 0l.1.1.1.1.1-.1.2-.2c-.1 0-.2.1-.4.1h-.1c-.1 0-.1-.1-.2-.1l-.1-.1-.1-.1-.1-.1-.2-.2-.5-.5-.1-.1c0-.1-.1-.1-.1-.1-.1 0-.1-.1-.1-.1l-.1-.1H17l-.2.2-.3.3-.2.2v.1s.1.1.1.2.1.1.1.1c.1 0 .1 0 .1.1l.3.3s0 .1.1.1.1.1.2.2c.1 0 .1.1.1.2l.2.2.1.1s0 .1.1.1l.1.1h-.1l-.1-.1c-.1-.1-.1-.1-.1 0-.1.1-.3.2-.4.4l-.6.6-.1.1.1.1-.1-.1.1.1h-.1l-.1-.1c-.1 0-.1 0-.1-.1L16 19l-.4-.4s-.1 0-.1-.1l-.1-.1-.1-.1c0-.1-.1-.1-.1-.1-.1 0-.1-.1-.2-.1l-.2-.2v-.1c.1-.1.1-.2.2-.3.1-.1.1-.2.2-.3 0 .1-.1.1-.1.2-.1.1-.2.2-.2.4 0 0 0 .1-.1 0v-.1c.1-.1.1-.2.2-.4.1-.1.2-.2.2-.3l-.1-.1H15l-.5.5-.2.2v.1l.3.3c.1.1.2.3.4.4l.9.9.2.2.2.2.1.1c.1 0 .1 0 .2.1.1 0 .2.1.3.1l-.1-.1v-.1c.2-.2.3-.4.5-.5l.6-.6v-.2l.1-.1c-.1 0-.1-.1-.1-.1.1-.3.1-.4 0-.4h-.1l-.8-.8V17l.5-.5h.1l.1.1.6.6v.1l-.1.1-.3.3-.1-.1-.1-.1c-.1 0-.1-.1-.2-.1-.1-.1-.2-.1-.3-.2zm-.3-.1-.1-.1-.1-.1c-.1-.1-.1-.1-.2 0l-.3.3-.2.2-.3.3-.3.3v.1l.4.4.3.3.2.2c.1.1.1.1.2 0s.2-.2.4-.3l.3-.3.3-.3.2-.2v-.1c0-.1-.1-.1-.2-.2l-.1-.1c0-.1-.1-.1-.1-.1-.2-.1-.3-.2-.4-.3zm0-2.6.3-.3v-.1c-.2-.1-.3-.3-.5-.5h-.1l-.2.2-.2.2-.5.5-.2.2-.2.2c-.1.1-.2.3-.4.4l-.3.3c-.1.1-.1.2-.2.2v.1l.4.4h.1c.1-.1.2-.2.3-.2l.2-.2.8-.8.2-.2.2-.2c.1 0 .2-.1.3-.2zm1.5 2.6v-.2c0-.2 0-.3.1-.5s.2-.3.4-.4c.1-.1.3-.2.5-.2h.3s0-.1-.1-.1l-.2-.2-.3-.3-.3-.3-.2-.2c-.1-.1-.1-.1-.2 0l-.1.1-.5.5-.5.5v.1l.1.1.1.1.5.5c.2.4.3.5.4.5zm2.2-.8c0-.1 0-.2-.1-.2 0-.1 0-.1-.1-.2s-.1-.2-.2-.3c-.1-.1-.2-.2-.2-.3l-.4-.4-1.3-1.3h-.1l-.4.4-.3.3v.1c.1 0 .1.1.2.2h.1c.1-.1.3-.2.4-.2.1 0 .1 0 .1.1h.1l.2.2c0 .1.1.2.2.2l.1.1.5.5.2.2.1.1c.1 0 .1.1.1.1s0 .1.1.1V16.3c0 .1 0 .1-.1.2l.5-.5h.1c.1.1.1.2.2.3zm-.1 6.2-.2-.2-.1-.1c-.1-.1-.2-.2-.3-.2-.1-.1-.2-.1-.2-.2l-.3-.3c-.1-.1-.2-.2-.3-.2l-.3-.3h-.1l-.4.4v.1l.7.7.5.5.1.1c.1 0 .1.1.2.1.2.1.4.1.7 0 .1 0 .1-.1.2-.2-.2-.1-.2-.1-.2-.2h-.1c0-.1 0-.1.1 0-.1 0 0 0 0 0zm-3.6-6.9c-.1 0-.1-.1 0 0 0-.2 0-.3.1-.3l.3-.3.3-.3c.1-.1.1-.1 0-.1l-.1-.1-.1-.1-.3.3-.1.1-.2.2-.2.2-.3.3-.7.7-.2.2c-.1.1-.2.2-.4.3v.1l.2.2.1-.1s.1-.1.2-.1c.1-.1.2-.1.3-.2.1 0 .1-.1.2-.1 0 0-.1 0-.1.1h.1c.1 0 .1 0 .1.1h.1l.4-.4.3-.3v-.4zm.8-2.6-.5-.5h-.1l-.2.2-.3.3c-.1.1-.2.2-.3.2v.1l.1.1.9.9h.1l.2-.2.2-.2.3-.3v-.1c-.1-.2-.2-.4-.4-.5zm5.5 6.7c.1 0 .1 0 .2.1 0 0 .1 0 .1.1l.1-.1c.1-.1.1-.1.1-.2s.1-.2 0-.3c0-.1 0-.2-.1-.3l-.3-.3-.7-.7-.2-.2-.2-.2h-.1c-.1.1-.1.2-.2.2l-.2.2.1.1c0 .1.1.1.1.2.1.1.2.2.2.3 0 .1.1.1.1.2s.1.1.1.2h.1l.2-.2h.4v.1c.1.1.1.1 0 .1l-.2.2H22.5V18.9l-.2.2v.1l.2.2c0 .1.1.1.1.2l.1.1c.4-.1.4 0 .5 0zm-8.7-3.6-.5-.5h-.1l-.4.4-.3.3.3.3c0 .1.1.1.2.2l.1.1c.1.2.3.3.4.4l.2-.2.5-.5v-.1c0-.1-.2-.2-.4-.4zm7.2 5.8-.4.4s0 .1.1.1h.1s.1 0 .1.1.1.1.2.1.1 0 .2.1h.1l.2-.2.1-.1c.1 0 .1-.1.1-.2l.1-.1.2-.2.2-.2.2-.2.2-.2s0-.1-.1-.1c0-.1-.1-.3-.2-.3v-.1s0-.1-.1-.1l-.1.1c0 .1-.1.1-.2.2s-.2.2-.2.3l-.4.4-.1.1c-.1-.2-.2 0-.3.1zm-1.6-4.4.7-.7h.1s.1 0 .1.1.1.3.1.4v-.2c0-.1-.1-.2-.1-.3 0 0-.1 0-.1-.1l-.4-.4c-.1-.1-.1-.1-.1 0v.1l.3.3v.1c-.2.3-.5.5-.7.8-.1.2-.3.3-.4.4l-.2.2-.7.7c-.1 0-.1.1-.2.1l-.2.2-.4.4-.2.2h-.1l-.3-.3s-.1 0-.1.1l.5.5v.1s0 .1.1.1.1.1.2.1.1 0 .2.1c0 0-.1 0-.1-.1-.1 0-.1-.1-.2-.1s-.1-.2-.1-.2l.3-.3.2-.2c.1-.1.2-.1.2-.2l.7-.7.3-.3.1-.1c0-.3.3-.6.5-.8zm-1.4.3s0 .1 0 0l.3.3.4-.4.3-.3.2-.2.4-.4.2-.2v-.1c-.1-.1-.2-.2-.2-.3-.1 0-.1.1-.1.1l-.5.5c.2-.1.3-.1.4-.2.1 0 .2-.1.2-.1h-.1c-.1.1-.3.1-.4.2-.1 0-.2.1-.3.1h-.1l-.1.1-.5.5c0-.1.1-.1.1-.1 0-.1.1-.1.2-.2l.2-.2 1.1-1.1-.6.6-.5.5c-.1 0-.1.1-.1.1l-.2.2c-.2.4-.2.5-.3.6 0 0-.1 0-.1.1l-.6.6-.5.5-.2.2c-.1.1-.2.2-.3.2l-.1.1.3-.3.8-.8.4-.4c.1 0 .2-.1.3-.2zM14 13.1l.3-.3-.1-.1-.1-.1H14l-.3.3c-.1.1-.2.2-.3.2l-.2.2-.2.2c-.1 0-.1.1-.2.2-.2.1-.3.3-.5.5l-.3.3-.2.2.1.1c0 .1.1.1.1.1h.1c.3-.2.5-.5.8-.7l.2-.2.2-.2.2-.2c0-.1.1-.1.2-.1.2-.2.3-.3.3-.4zm.4 4.6s-.1 0 0 0c-.1-.1-.1-.1-.1-.2l-.4-.4-1.3-1.3c-.1-.1-.2-.2-.2-.3 0-.1 0-.1.1-.2l.1-.1.6-.6.2-.2.2-.2.2-.2c.1 0 .1-.1.1-.2l.2-.2.2-.2.7-.7 1-1 .1-.1c.1-.1.2-.1.3 0 .1 0 .1.1.2.1l.3.3 1.4 1.4h.1l-1.8-1.8c-.2-.2-.4-.2-.6 0l-.8.8-.2.2-.6.6-.2.2-.9.9c-.1 0-.1.1-.1.1-.1 0-.1.1-.2.2l-.7.7c-.1.1-.1.2-.1.3v.2c0 .1.1.1.2.2l1.4 1.4.3.3s.1 0 .1.1c.1-.2.1-.1.2-.1zm1.6-5 .2.2h.2l.3-.3.2-.2v-.1s0-.1-.1-.1l-.5-.5c-.1 0-.1 0-.2.1-.1 0-.1.1-.2.2l-.3.3v.1l.2.2c.1 0 .1.1.2.1zm1.9 5.9c.1 0 .1 0 0 0 .2 0 .3-.1.4-.1 0 0 .1 0 .1-.1-.1 0-.2.1-.3.1-.1 0-.3.1-.4.2h-.1l-.3.3-.2.2-.2.2v.1l.2.2.1.1.2-.2.5-.5.2-.2.3-.3.2-.2.1-.1-.3-.3-.2.2-.1.1c.1.1 0 .2-.2.3zm-5-2.8c.1.1.1.2.2.2h.1l.1-.1.2-.2.2-.2v-.1s0-.1-.1-.1l-.2-.2-.4-.4-.2.2-.3.3c-.1 0-.1.1-.1.2.1 0 .1 0 .1.1.2.1.3.2.4.3zm9.6 6.2-1.3 1.3c-.1.1-.1.2-.1.2s.1 0 .1-.1l.1-.1.2-.2.5-.5c.3-.2.5-.5.8-.8l.2-.2.7-.7.3-.3c.1-.1.1-.1.1-.2h-.2c0 .1-.1.1-.1.1-.4.6-.8 1.1-1.3 1.5zm-6.2-5.4s0-.1 0 0l-.1-.1c-.1 0-.1.1-.2.1s-.1.1-.2.2-.2.2-.4.3l-.2.2-.1.1c-.1.1-.1.2-.2.3 0 .1.1.1.2.2h.1c.1-.1.1-.2.2-.3l.3-.3.3-.3.2-.2c.1 0 .1-.1.2-.1s.1 0-.1-.1c.1 0 .1 0 0 0zm.9-.8.1.1c-.1 0-.1 0-.1-.1 0 0-.1 0 0 0-.1-.1-.1 0-.1 0l.2.2h.1c.1-.1.1-.2.2-.3l.3-.3.3-.3c.1-.1.2-.2.3-.2 0 0 .1-.1 0-.1 0-.1-.1-.1-.1-.1h-.1c-.2.1-.4.2-.6.4l-.3.3c-.1.1-.2.2-.2.4-.1-.1-.1-.1 0 0-.1-.1-.1-.1 0 0zm4.8 1.9.2-.2v-.1l-.4-.4-.1-.1s-.1 0-.1.1l-.2.2c-.1.1 0 .1 0 .1s0 .1.1.1c0 .1.1.1.1.2l.2.2.1-.1c0 .1.1.1.1 0zM17.2 20c0-.1-.1-.1-.2-.1s-.2-.1-.3-.1c-.1 0-.2-.1-.3-.1l-.2-.2-.2-.2-1.3-1.3-.3-.3-1.9-1.9c-.1-.1-.1-.2-.1-.2 0-.1 0-.1.1-.2l.3-.3.4-.4v-.1l.2-.2v-.1l-.3.3-.4.4-.3.3c-.1.1-.1.1-.1.2s0 .2.1.2l.1.1 1.2 1.2.1.1.4.4.2.2c0 .1.1.1.2.1l.1.1v.1l.4.4.2.2.2.2.7.7.2.2c.3.1.6.2.8.3zm.7 1.2.2.2h.1c0-.1.1-.1.2-.2s.2-.2.3-.2v-.1s-.1 0-.1-.1l-.3-.3s0 .1-.1.1h-.1l-.1-.1-.3.3v.1c.1.1.2.2.2.3zm-1.6-7.3.3-.3v-.1l-.1-.1c0 .1 0 .2-.1.2l-.5.5c-.1.1-.2.1-.2.2l-.3.3-.3.3-.2.2-.4.4v.1h-.2l.1.1h.1l.1-.1.2-.2.6-.6.2-.2.5-.5.2-.2zm1.6-.7.4.4 1.1 1.1.3.3s.1 0 .1.1l.5.5.2.2c.1.1.1.3.2.4v.2c0-.1-.1-.2-.1-.3 0-.1-.1-.2-.1-.3 0 0 0-.1-.1-.1-.1-.1-.2-.2-.3-.4l-.9-.9-.2-.2c-.1-.1-.1-.2-.2-.2h-.1l-.1-.1v-.1l-.8-.8-1.1-1.1-.2-.2c-.2-.1-.3-.1-.5 0l-.8.8-.2.2.2-.2s0-.1.1-.1.2-.1.2-.2l.2-.2.3-.3.1-.1c.1 0 .3 0 .3.1.6.5 1.1 1 1.5 1.5zm-2.7-1.4-.2-.2h-.1s-.1 0-.1.1l-.5.5-.2.2v.1l.1.1.2.2h.1l.3-.3c.1-.1.2-.1.2-.2.1-.1.2-.2.2-.3v-.1c.1 0 0-.1 0-.1zm3 5.4s.1 0 0 0c-.1-.2-.3-.4-.4-.5h-.1l-.2.2-.3.3c.1 0 .2.1.4.1.1 0 .2.1.3.2h.1v-.1h.1s0-.1.1-.2c-.1.1-.1 0 0 0-.1 0-.1 0 0 0zm-4.4-4.4.2-.2c-.1 0-.2 0-.2.1l-.1.1c-.1.1-.3.2-.4.4l-.4.4-.6.6-.2.2-.1.1v.1l.3-.3.3-.3.1-.1c0-.1.1-.1.2-.1s.1-.1.2-.2.2-.2.4-.3l.2-.2c0-.1 0-.2.1-.3zm-1.5 2.1h.2l.1-.1.3-.3c.1 0 .1-.1.2-.2l.2-.2.2-.2.3-.3.2-.2.3-.3.1-.1v-.1l-.6.6-.1.1c-.6.5-1 .9-1.4 1.3zm1.2-.5-.2.2h.1c.1 0 .1-.1.1-.2.2 0 .3-.1.4-.3.1 0 .1-.1.2-.1.1-.1.3-.2.4-.4l.5-.5.2-.2c.1-.1.1-.2.2-.2v-.1l-.1.1-.7.7s-.1 0-.1.1-.1.1-.2.2c0 .1-.1.1-.2.1-.2.2-.4.4-.6.5.1 0 0 .1 0 .1zm4.3 6.3s.1 0 0 0c.1-.1.2-.1.1-.2h-.1v-.1c-.1 0-.2-.1-.3-.1-.1 0-.1-.1-.1-.1l-.2-.2c0 .1-.1.1 0 .2 0 .1 0 .2.1.3 0 0 .1 0 .1.1l.3.3h.1c-.1-.1 0-.1 0-.2zm-2.1-3.3s-.1 0 0 0c-.1.1-.1.2-.2.2-.1.1-.1.2-.2.3v.1h.1l.5-.5.6-.6h-.1c-.1 0-.1.1-.2.1s-.1.1-.2.1l-.2.2s-.1 0-.1.1zm2.3-2 .2-.2.3-.3h-.1c-.1.1-.2.1-.2.2-.1.1-.2.2-.3.2l-.2.2-.1.1c-.1.1-.1.1-.1.2s-.1.1-.1.2v.1h.1c.1-.3.3-.5.5-.7zm2.1 7.7.2.2.1.1c.1 0 .1.1.1 0 .1-.1.1-.2.2-.2 0 0 .1 0 0-.1l-.3-.3h-.1s-.1 0-.1.1h-.3c.1.2.1.2.2.2zm3.7-3.2.2.2h.1l.2-.2v-.1l-.3-.3-.1-.1v.1c0 .1 0 .2-.1.2v.1c-.1 0-.1.1 0 .1zm-5-3.6-.1.1c-.1.1-.1.2-.1.3v.1h.1c.1 0 .2-.1.3-.1 0 0 .1 0 .1-.1s.1-.1.2-.2c0 0 .1 0 .1-.1s.1-.2.1-.3c-.4.1-.6.2-.7.3zm.5.5-.1-.1H19l-.2.2-.1.1c-.1 0 0 .1 0 .1.1.1.2 0 .4 0 .1 0 .3-.1.4-.2-.1.1-.1 0-.2-.1.1.1 0 .1 0 0zm.7.4.6-.6v-.1l-.3-.3s0 .1.1.1l.1.1.1.1v.1l-.6.6c-.1 0-.2.1-.3.2l-.2.2-.2.2-.4.4h-.1l-.3-.3h-.1v.1l.3.3v.1l-.7.7-.6.6-.2.2-.1-.1-.2-.2.3.3h.1l.1-.1.9-.9 1-1c.4-.3.5-.5.7-.7zm-.5-1-.2.2V16.7l.1.1h.1s.1-.1.1-.2c.1-.1.1-.2.1-.3 0-.1 0-.2-.1-.3h-.1c.1.1 0 .2 0 .2zm-4.4.1-.1.1v.1h.1l.3-.3.6-.6h.1c0-.1.1-.1.1-.1l.1-.1.8-.8.2-.2-.1.1c-.1.1-.2.2-.3.4l-.7.7c-.3.2-.5.5-.8.7-.2-.1-.3 0-.3 0zm6.2 1c0-.1 0-.1 0 0 0-.1 0-.1 0 0l.4-.4v-.1l-.3-.3c-.1 0-.1.1-.1.1l-.1.1c0 .1 0 .2.1.2-.1.2-.1.2 0 .4-.1 0-.1 0 0 0zm-4.9-5.6.3.3.3.3c.1.1.1.1 0 .2l-.5.5c-.1.1-.1.1-.2 0l-.6-.6h-.1v.1l.2.2.4.4c.1.1.1.1.2.1h.1l.7-.7v-.1l-.3-.3-.2-.2c-.2-.1-.3-.2-.3-.2zm-3.9 3.8c0 .1 0 .1.1.2l.6.6h.1l.7-.7v-.1l-.1-.1-.6-.6h-.1v.1l.6.6c.1.1.1.2 0 .2l-.1.1-.4.4c-.1.1-.1 0-.2 0l-.3-.3c-.1-.2-.2-.4-.3-.4zm2.8 1.5c-.1.1-.2.2-.3.4 0 .1-.1.1-.1.2v.1h.1c0-.1.1-.1.1-.2.1-.2.2-.3.3-.4l.2-.2c.1-.1.2-.1.3-.2.1-.1.2-.1.3-.2v-.1c-.1 0-.1.1-.2.1-.1.1-.2.1-.3.2-.1.1-.2.2-.3.2l-.1.1zm1.6-1.3h.1v-.1c.1-.1.2-.2.3-.4.1-.1.2-.2.2-.3l.3-.3c.1-.1.2-.2.4-.2v-.1h-.1c-.1 0-.2.1-.3.2-.1.1-.3.2-.4.3l-.1.1-.2.2-.1.1s-.1.1-.1.2c.1.1.1.2 0 .3 0-.1 0 0 0 0zm2.1 1c0-.1-.1-.1-.1 0-.1 0-.2.1-.3.1h-.1v-.2c.1-.2.2-.4.4-.5.1-.1.2-.1.3-.1h.1v.1c0 .1 0 .1-.1.2 0 .1 0 .1-.1.2v-.1c0-.1.1-.2.1-.3l.1-.1h.2c.2.1.3.2.2.4 0 .1-.1.2-.1.3v-.1c0-.1.1-.2.1-.3 0-.1 0-.3-.1-.4-.1-.1-.1-.1-.2-.1h-.3c.1.2 0 .2-.1.2-.1.1-.3.2-.4.3-.1.1-.1.2-.2.3 0 .1-.1.2-.1.3v.2c0 .1.1.1.2.2h.2c.1 0 .3 0 .4-.1l.1-.1c-.1 0-.2.1-.3.1-.1.1-.3.1-.4 0h-.1v-.1c0-.1 0-.2.1-.2s.2-.1.3-.1c.1-.1.2-.1.2-.1zm-.9.9-.1.1v.1l.1.1v-.1h.1l.1.1v.1l.3-.3v-.1l-.1-.1h-.1c-.1 0-.1 0-.1-.1s0-.1.1-.1h.1v.1l.1.1h.1v-.1l-.2-.2c-.1-.1-.1-.1-.2 0l-.1.1c0 .2-.1.3-.1.3zm3.2 4.9c-.1.1-.1.1 0 .2l.1.1c0 .1 0 .2.1.2 0 .1 0 .1.1 0v-.1c.1 0 .1-.1.1-.1s0-.1.1 0h.1v-.1h-.1c-.1 0-.2-.1-.3-.1-.1-.2-.1-.2-.2-.1zm2.3-3.6c0 .1.1.2.1.3v.1c.1.1.2.1.2.2l.3.3v-.2l-.2-.2-.1-.1c0-.2-.1-.3-.3-.4zm-8-7.5-.1-.1-.1-.1h-.1l-.3.3s.1 0 .1.1l.2.2.1.1c.1-.1.1-.2.2-.2V11.4zm7.7 9.7c.1 0 .1.1 0 0 .1 0 .1 0 0 0l.1-.1c.1 0 .1-.1.2-.2h.2c-.1 0-.1 0-.2-.1-.1 0-.2 0-.2-.1s-.1-.1-.1 0c0 0 0 .1-.1.1v.1l.1.1V21.2v-.1zm-6.1-4.3-.2.2v.1l.1.1h.1c.1-.1.2-.2.2-.3 0 0 .1 0 .1-.1.1 0 .1-.1.1-.1l-.1-.1-.2.2h-.1zm-2.4-4.2-.1.1h-.1l.1.1s.1-.1.1-.2h.1c0-.1.1-.1.2-.1l.4-.4.2-.2.2-.2c-.1.1-.2.2-.2.3l-.1.1-.1.1-.3.3c-.3 0-.4.1-.4.1zm5.6 10.9c-.2-.2-.3-.4-.5-.5h-.1c-.1 0-.1 0-.2-.1l.5.5c.2.1.2.1.3.1zm.5-7c0 .1 0 .1 0 0 .1.1.2.1.2.1.1 0 .1-.1.2-.2 0-.1-.1-.1-.1-.1h-.3c-.1.1-.1.1 0 .2-.1 0-.1 0 0 0zm-7.3-2.4c.1 0 .1 0 .1-.1l.6-.6.2-.2c.1-.1.3-.2.4-.4v-.1h-.1c-.2.2-.4.5-.7.7l-.2.2c0 .2-.2.3-.3.5zm5.9 2.1.1-.1s.1 0 0-.1h-.1c-.1 0-.2 0-.2.1s0 .1-.1.2v.1c.1-.1.2-.1.3-.2zm-1.4-1.9c-.1 0-.2.1-.2.1-.1.1-.2.1-.3.2l-.2.2-.4.4c-.1.1-.2.2-.2.4.1-.1.1-.2.2-.3.1-.1.1-.2.2-.2l.3-.3c.1-.1.2-.1.2-.2.1-.1.2-.1.2-.1.2-.1.2-.1.2-.2zm5.6 5.7-.1-.1h-.1l-.1.1.1.1h.2c.1-.1.1-.1 0-.1zm-11.2-4.1c-.1-.1-.1 0 0 0-.1 0-.1 0-.2-.1v-.5c0-.1 0-.2.1-.2h.1-.1c-.1 0-.1.1-.1.1 0 .2.1.4.1.6-.2.1-.1.1.1.1zm2.3 1.6c.1-.1.1-.1.1-.2.1-.1.2-.2.2-.3.1-.1.2-.3.4-.4.2-.1.3-.2.5-.3-.2.1-.4.3-.6.4l-.2.2-.1.1c-.1.1-.1.2-.2.2 0 .2-.1.3-.1.3zm5.8 5.5.1.1v-.2c-.1-.1-.1-.1-.1-.2h-.1l-.1.1.2.2zM15 12.9c-.1.1-.2.2-.3.2l-.4.4-.3.3-.3.3c.4-.4.8-.8 1.3-1.2zm3.9 3.9c-.1 0-.2.1-.3.1 0 0-.1 0-.1.1v.2l.4-.4zm-3-5.4v.1c0-.1.1-.1.2-.1h.2c.1 0 .1.1.2 0 .1 0 .1.1.1.1v-.1c0-.1-.1-.2-.1-.2H16c0 .2 0 .2-.1.2zm-1.5 1.7.1-.1-.1-.1c0-.1-.1-.1-.1-.1s.1.1.1.2c0 0-.1 0 0 .1-.1 0-.1 0 0 0-.1.1-.2.1-.2.2l.2-.2zm8.7 5.9.1-.1h-.1c-.1 0-.2.1-.2.3.1-.1.1-.2.2-.2zm1.1 1.8c-.1-.1-.1 0 0 0-.2.1-.2.1-.3.2l-.5.5-.3.3c-.1.1-.2.2-.3.2.2-.2.4-.4.6-.5l.2-.2.4-.4c.1-.1.1-.1.2-.1zm-2.7 2.6s.1 0 0 0c.3-.3.6-.6.9-.8l.4-.4c-.4.3-.8.7-1.3 1.2.1-.1 0-.1 0 0zm-2.2-8.9s.1 0 0 0c.1 0 .1 0 0 0 .1 0 .1 0 0 0 .1 0 0-.1 0 0-.1-.1-.1-.1 0-.2v-.1l-.3-.3h-.1l.3.3v.1c0 .1.1.1.1.2 0-.1 0-.1 0 0zm-4.4 3.6-.1-.1c0 .1 0 .2.1.1 0 .1.1.2.1.2s0-.1-.1-.2zm.4.5-.1-.1H15l-.3-.3s-.1 0-.1-.1l.3.3.1.1h.2l.1.1zm2.7 1.8c-.1-.1-.2-.1-.3-.2l-.1-.1s0 .1.1.1.1.1.2.1c0 .1 0 .1.1.1zm-4.3-6.6-.2.2.5-.5s.1 0 .1-.1l-.2.2c-.1 0-.1.1-.2.2zm5.5 2.9c0-.1 0-.1 0 0 .1-.1.1-.2 0-.2h-.1c-.1 0-.1.1-.1.1v.1h.2zm4 2.4c.1-.1.1-.1.1-.2h-.1l-.2.2v.1s.1.1.2-.1c-.1.1 0 .1 0 0zm-5.1-1.2v.1h.1c.1-.1.1-.1 0-.1h-.1zm1-3.8c-.1 0-.2-.1-.2-.1s.1.1.2.1c-.1.1 0 .1 0 0 .1.1.1.2.1.2 0-.1-.1-.1-.1-.2zm-.3-.3c-.1-.1-.1-.1 0 0h-.1l.1.1h.1l-.1-.1zm-.4 3.6v.1h.1v-.1h-.1zm-.8-2.7c-.2.1-.7.7-.7.8.2-.3.4-.5.7-.8zm-2.9 3.2c-.1-.1-.1-.1-.1 0 0 0 .1 0 .1.1v-.1c0 .1 0 0 0 0zm6.5 4.5c.1 0 .1 0 0 0 .1-.1.1-.1 0-.1h-.1l-.1.1v.1c.2 0 .2 0 .2-.1 0 .1 0 0 0 0zm-.1-5.3c0-.1 0-.2-.1-.3v.1c0 .1 0 .1.1.2zm2 3.4c-.1 0-.1 0 0 0 0 .1 0 .1 0 0 0 .1 0 0 0 0 .1 0 .1 0 0 0 0-.1 0-.1 0 0zm-3.5-3.7c-.1.1-.1 0-.2 0l-.1-.1.1.1s0 .1.1.1l.1-.1c0 .1 0 .1 0 0zm3.5 2.3.1-.1-.3.3c.1-.2.2-.2.2-.2zm-8.7-1.4c0 .1.1.2.1.2 0-.1 0-.2-.1-.2zm4.2-4c0 .1 0 .1 0 0 .1 0 .1 0 0 0 0 0 0-.1 0 0-.1-.1-.1-.1 0 0-.1-.1-.1-.1 0 0-.1 0-.1 0 0 0zm4.9 7.3-.1.1c.1 0 .1 0 .1-.1.1 0 .1-.1 0 0 .1 0 .1-.1.1-.1l-.1.1c.1-.1 0-.1 0 0zm-8.9-9.1s0-.1 0 0c0-.1 0-.1 0 0 0-.1 0-.1 0 0-.1-.1-.1-.1 0 0-.1 0-.1 0 0 0-.1 0-.1 0 0 0zm.4.9s0 .1 0 0c.1 0 .1 0 0 0 .1-.1 0-.1 0 0zm-1.4 1.4c-.1 0-.1 0 0 0 0 .1 0 0 0 0 .1 0 .1 0 0 0 0-.1 0 0 0 0zm8.1 1.8c-.1.1-.1.2-.1.2s0-.1.1-.2c0 .1 0 0 0 0zm-6.3-3.5c-.1.1-.2.1-.2.2 0-.1.1-.1.2-.2zm-2.1 2 .3-.3c-.2.2-.3.2-.3.3zm2.5-2.9-.3-.3c.1.2.2.3.3.3zm2 7.1h.1s0-.1-.1 0zm2.8 3.9-.2-.2c0 .1.2.2.2.2zm-2.8-4.5c0-.1-.1-.1 0 0-.1-.1-.1-.1 0 0-.1-.1-.1-.1 0 0-.1 0 0 0 0 0zm0-3.5c.1-.1.2-.1.3-.2-.1 0-.2.1-.3.2zm-5.4 1.2s0-.1 0 0c-.1-.1-.1 0 0 0-.1 0-.1 0 0 0zm9.2 7.2c.1 0 .1-.1.2-.2-.1 0-.2.1-.2.2zm-2.1-5.9s-.1 0 0 0 .1 0 0 0c.1-.1 0-.1 0 0zm-2.9-5.5s0-.1 0 0c0-.1 0-.1 0 0-.1-.1 0-.1 0 0zm-4.3 3.6s0-.1 0 0c.1-.1.1-.1 0 0 .1-.1 0-.1 0 0 0-.1 0-.1 0 0zm5 .8c.1 0 .1 0 0 0 0-.1 0-.1 0 0zm1.3-1.2c0-.1 0-.1 0 0-.1-.1-.1-.1 0 0-.1-.1-.1 0 0 0-.1 0-.1 0 0 0zm-.4 3.3c.1 0 .1 0 0 0 .1 0 .1 0 0 0zm.5-.4-.1-.1s0 .1.1.1zm-4.6-5.2.1.1-.1-.1zm1.2 5.5c-.1 0 0 0 0 0zm2.8 2.5c.1.1.1.1 0 0 .1.1.1.1 0 0 .1 0 0 0 0 0zm-1.6-3.7zm5.2-.6c0-.1 0-.1 0 0 0-.1 0-.1 0 0 0-.1-.1-.1 0 0-.1 0 0 0 0 0zm-7.2-3.4c0 .1 0 .1 0 0 0 .1 0 .1 0 0zm4 .8c-.1-.1-.1-.1 0 0-.1-.1-.1-.1 0 0-.1-.1-.1-.1 0 0-.1 0-.1 0 0 0zm2.8 10c.1-.1.1-.1 0 0 .1-.1 0-.1 0 0zm-7.1-11zm1.8-1.1c0-.1 0 0 0 0z"/><path fill="#010101" d="M21.2 23.8h-.1v-.4l.1-.1.1-.1v-.1c0-.1 0-.1-.1-.2l-.1-.1-.1-.1-.1.1-.1.1s0 .1-.1.1-.1 0-.1-.1l.1.1s.1.1.1.2V23.5l-.2.2-.1.1H20.2c-.1 0-.1 0-.2-.1l-.5-.5-.4-.4-.4-.4-.4-.4-.2-.2c-.1-.1-.2-.2-.2-.3l-.4-.4-.2-.2-.2-.2c0-.1-.1-.1-.1-.2v-.2h-.1c-.1 0-.1-.1-.2-.1s-.1 0-.2-.1c0 0-.1 0-.1-.1h-.1s-.1 0-.1-.1l-.3-.3c-.1-.1-.2-.2-.3-.4-.1 0-.1-.1-.2-.2l-.1-.1h-.4c0-.1-.1-.1-.1-.1-.1 0-.1-.1-.1-.1l-.1-.1v-.2s0-.1-.1-.1h-.2c-.1 0-.1-.1 0-.1l-.3-.3-.1-.1-.1-.1-.1-.1-.7-.7-.3-.3H12.4c-.1 0-.1-.1-.1-.2V15.8s0-.1.1-.1l-.2-.2-.1-.1s-.1-.1 0-.1v-.2s0-.1.1-.1l.1-.1.1-.1.4-.4.2-.2.2-.2.4-.4.2-.2.2-.2h.2c0-.1 0-.2.1-.3l.2-.2.1-.1c0-.1 0-.1.1-.1h.1s.1 0 .1-.1l.2-.2.1-.1.2-.2.1-.1c.1 0 .2 0 .2.1l.3.3v-.1c0-.1.1-.1.2-.1h.6c.1 0 .1 0 .1.1 0 0 .1.1 0 .2v.1l1.5 1.5.1.1.1.1c.1 0 .1.1.1.1h.2l.2.2.3.3s.1.1 0 .2l.1.1v.1l.2.2.5.5.1.1.2.2c.1.1.2.2.2.3.1.1.1.3.2.4h.3s.1 0 .1.1l.1-.1c.1-.1.1-.3.2-.4 0-.1.1-.1.1-.1.1 0 .1.1.1.1V16.7s0 .1-.1.1c0 0-.1 0-.1.1l-.2.2.1.1.2.2.1.1.5.5.3.3.3.3.6.6c.1.2.3.3.4.5l.3.3v.4c0 .1 0 .1-.1.1s-.1.1-.2.2c0 0 0 .1-.1.1 0 .1-.1.1-.2.1h-.2s-.1 0-.1-.1l-.1-.1c0 .1 0 .1-.1.1l-.2.2h.1c.1.1.1.1.3.1h.1l.1-.1.1-.1h.4v.1c0 .1 0 .2-.1.2 0 .1-.1.1-.1.2l-.1.1-.6.6c-.1.1-.3.2-.4.4l-.3.3-.4.4-.5.5-.1.1-.1.1-.2.2-.1.1c.4-.5.3-.5.2-.4zm1.4-1.8-.4.4-1 1s0 .1-.1.1c0-.1.1-.1.1-.1l.1-.1.1-.1.5-.5.3-.3.5-.5.1-.1.1-.1.7-.7.1-.1.2-.2.1-.1h-.1l-.1.1-1 1-.2.3zm-2.5 1.1s.1 0 0 0c.1.1.2.1.2.2s.1.1.1.1l.1-.1.2-.2-.1-.1-.1-.1s-.1 0-.1.1c-.2 0-.2 0-.3.1zm.5-.2.1.1-.1-.1zm.7-.4c0 .1 0 .1 0 0 .1.1.1.1.1.2s0 .1.1.2l.1-.1.1-.1c-.1 0-.2-.1-.3-.2h-.1zm-3-1 .7.7.4.4.1.1c.1 0 .1.1.2.1.2.1.4.1.6 0l-.3-.5.5.4.1-.1s-.1 0-.1-.1l-.1-.1-.1-.1c-.1 0-.1-.1-.2-.2L20 22l-.1-.1-.1-.1-.1-.1c-.1 0-.1-.1-.2-.1l-.1-.1c-.1 0-.1-.1-.2-.1l-.1-.1c-.1 0-.1-.1-.2-.1l-.1.1c-.3 0-.4.1-.5.2zm.1-.9c.1.1.3.2.4.4.1.1.2.1.2.2 0 0 .1 0 .1.1.1 0 .1.1.2.1s.1.1.2.1l.1.1.1.1c.1.1.2.1.2.2l.2.2c.1.1.2.1.2.2l.4.3.1-.1.1-.1.2-.2.2-.2.1-.1.1-.1.1-.1.1-.1.1-.1.1-.1.1-.1.5-.5.1-.1.3-.3.1-.1v-.1l-.1-.1-.1-.1-.1-.1-.1-.1-.1-.1-.1-.1c0-.1-.1-.1-.1-.2l-.1-.1s0-.1-.1-.1l-.1-.1c0-.1-.1-.1-.1-.2l-.1-.1c0-.1-.1-.1-.1-.2l-.1-.1-.1-.1c-.1-.1-.1-.2-.2-.2l-.3-.3-.4.4-.1.1-.1.1-.3.3-.1.1-.3.3-.6.6-.1.1-.1.1h-.1s-.1 0-.1.1c.3-.1.3 0 .2 0-.1.2-.3.3-.5.5.1-.1.1 0 0 0zm3 1.7s.1 0 0 0c.1.1.1.1.2.1 0 0 .1.1.2.1s.1 0 .2.1l.1-.1v.1l.1-.1.1-.1.1-.1.1-.1.1-.1s.1 0 .1-.1l.2-.2.1-.1.2-.2.1-.1.1-.1s.1 0 .1-.1c0 0 .1 0 .1-.1V21c0-.1-.1-.2-.2-.3l-.1-.1-.1.1s-.1 0-.1.1c-.1.1-.2.2-.2.3l-.1.1-.2.2v.1l-.1.1-.2.2-.7.2c-.1.1-.1.2-.2.3zM18 21.1l.2.2.1-.1.1-.1.2-.2-.1-.1c0-.1-.1-.1-.2-.1l-.1-.1-.1.1s-.1 0-.1-.1l-.2.2c0 .2.1.2.2.3zm5.2-.5c0 .1 0 .1 0 0 0 .1 0 .1 0 0 .1.1.1.1.1.2v.1l.2-.2h.1-.2s-.1 0-.2-.1c.1 0 .1 0 0 0 .1 0 .1 0 0 0zm-6-.5v.1c0 .1 0 .2.1.2l.1.1c0 .1.1.1.2.2l.1.1.1-.1v-.1c-.1 0-.2-.1-.3-.1-.1 0-.1-.1-.2-.2 0-.1 0-.2-.1-.2zm.9.5zm5.2 0zm-5.3-.1zm-.3-.5c0 .1 0 .1 0 0l.1.1c.1 0 .1.1.2.1 0 0 .1 0 .1.1l.1.1h.1s.1 0 .1.1l.3-.3c.1-.1.3-.3.5-.4l.3-.3.3-.3.1-.1.1-.1.3-.3.4-.4.2-.2.1-.1h.1l.1-.1.2-.2.1-.1c0-.1-.1-.1-.1-.2s-.1-.1-.1-.2c-.1-.1-.1-.2-.2-.2l-.4.4-.3.3H20c-.3.3-.6.6-.9.8l-.3.3-.4.4-.3.3-.1.1-.2.2-.1.1c.1 0 0 .1 0 .1zm.3.5zm5.3 0zm-6-.5.1.1s0-.1.1-.1l.1-.1.2-.2.1-.1s0-.1.1-.1l.1-.1.1-.1.3-.3.4-.4.1-.1.2-.2.1-.1.5-.5.4-.4.5-.5h.1l-.3-.3-.1-.1.2.2.1.1v.1s0 .1-.1.1l-.3.3-.5.5c-.1.1-.3.3-.5.4-.1 0-.1.1-.2.2 0 0 0 .1-.1.1l-.7.7s-.1 0-.1.1l-.1.1-.1.1-.1.1c-.1 0-.1.1-.1.1l-.3.3-.1.1c.1-.1 0-.1-.1 0 .1 0 .1 0 0 0zm6.4 0-.1-.1c0 .1.1.1.1.1zm0-.2.1.1.1.1.2-.2.1-.1-.1-.1-.3-.3-.1-.1v.1c.1.3 0 .4 0 .5zm-.5-.2c.1.1.2.1.2.2 0-.1.1-.1.1-.2s.1-.2 0-.3c0-.1 0-.2-.1-.3l-.3-.3-.5-.5-.2-.2-.2-.2-.2-.2-.1.1-.2.2-.1.1-.1.1.1.1s0 .1.1.1l.1.1c.1.1.1.2.2.2l.1.1.1.1v.1l.1.1.1-.1.1-.1c.1-.1.1-.1.2 0H23v.1c.1.1.1.2 0 .2l-.1.1s-.1.1-.1 0h-.2V19l-.1.1.1.1.1.1.1.1s0 .1.1.1c.2 0 .2 0 .3.1-.1 0-.1 0 0 0-.1 0 0 0 0 0zm.5.1zm-6.6-.2c.1 0 .1 0 0 0l.2.2.1-.1.1-.1.2-.2.3-.3.1-.1.1-.1.3-.3h-.1c-.1 0-.1 0-.2.1-.1 0-.3.1-.4.2h-.1l-.1.1c-.1 0-.1.1-.1.1l-.2.2-.1.1c0 .1 0 .1-.1.2zm-2.7-2.1.2.2.1.1.2.2.1.1c.2.2.4.4.5.6l.4.4.2.2.2.2s.1 0 .1.1h.2v-.1s0-.1.1-.1l.2-.2.3-.3.4-.4.2-.2s0-.1.1-.1h.1l-.1-.1-.1-.1-.1-.1h-.1l.1.1v.2c-.1.1-.1 0-.1 0l-.2.2-.2.2c-.1.1-.2.1-.2.2l-.4.4.1.1v.1h-.1s-.1 0-.1-.1l-.1-.1c-.1 0-.1-.1-.1-.1l-.1-.1-.2-.2-.3-.3-.1-.1-.1-.1-.1-.1c0-.1-.1-.1-.1-.1-.1 0-.1-.1-.1-.1l-.1-.1-.1-.1v-.1l-.1-.1v-.1c.1-.1.1-.2.2-.4l.2-.2v-.1l-.1-.1-.4.4-.1.1-.1.1c-.1.1-.1.2-.2.2zm9.4 1.7v.1l.1.1.1.1.1.1.1.1v-.1l-.1-.1-.1-.1-.2-.2zm-7.2-2.2-.2.2-.2.2-.1.1-.1.1-.3.3-.1.1-.2.2.2.2.2.2.3.3.1.1.1.1h.2l.2-.2c.1 0 .1-.1.2-.2l.1-.1.2-.2c.1 0 .1-.1.1-.1s.1-.1.2-.1l.1-.1.1-.1v-.1c0-.1-.1-.1-.1-.1l-.1-.1-.1-.1-.1-.1s-.1 0-.1-.1-.1-.1-.1-.2L17 17l-.4-.1zm6.5 2c-.1 0-.1.1 0 0-.1.1-.1.1 0 0-.1.1-.1 0 0 0zm-4.5-.9s0 .1 0 0l-.1.1-.1.1-.2.2H18.5c.1 0 .1 0 .1.1l.1-.1c.1-.2 0-.3-.1-.4zm-.6.3zm.8-.5.2.2.2-.2.2-.2.3-.3.1-.1.3-.3c-.1 0-.1 0-.2.1h-.1c-.1 0-.2.1-.3.1 0 0-.1.1-.1 0l-.4.4-.1.1c0 .2-.1.2-.1.2zm-.6.1s0 .1 0 0c0 .1 0 .1 0 0 0 .1 0 .1 0 0 0 .1 0 .1 0 0 0 .1 0 .1 0 0 0 .1 0 .1 0 0 0 .1 0 .1 0 0 0 .1 0 0 0 0zm-3.5.1zm3.5-.2s.1 0 0 0c.1 0 .2.1.2.1l.2-.2-.1-.1c-.1 0-.2 0-.2-.1l-.1.1-.1.1-.1.1v.1c.1-.1.1-.1.2-.1zm3.2-.3c.1.1.1.1 0 0l.2.2v.1l.1.1.1-.1.1-.1.1-.1.1-.1-.2-.2-.2-.2-.1-.1-.2.2-.1.1c.1 0 .1.1.1.1.1 0 .1.1 0 .1.1 0 .1 0 0 0 .1 0 .1 0 0 0zm-6.3.2.1.1c0-.1.1-.2.2-.3l.3-.3.3-.3.2-.2.1-.1h.1s-.1 0-.1.1c-.1 0-.1.1-.2.1-.1.1-.2.2-.4.3l-.1.1v.1l-.1.1s0 .1-.1.1c-.3.1-.3.2-.3.2zm.6-.3c0 .1 0 .1 0 0l-.2.2c0 .1-.1.1-.1.2l.1-.1.3-.3.3-.3.3-.3h-.1l-.1.1h-.1l-.1.1-.1.1c-.1.2-.1.2-.2.3zm3 .4c.1 0 .1 0 0 0zm-1.2-.4.3.3.1.1s0-.1.1-.1c0 0 .1 0 .1-.1.1 0 .1-.1.1-.1l.1-.1s.1 0 .1-.1v.1l-.1.1-.1.1h-.4l-.1-.1c-.1-.1-.2-.1-.2-.1zm-2.4 0c-.1 0-.1.1 0 0-.1.1-.1.1 0 0-.1.1-.1.1 0 0-.1 0-.1 0 0 0zm3.6 0c.1 0 .1.1 0 0h.1-.1zm-.3.1s.1 0 0 0c.1 0 .1 0 0 0 .1 0 .1 0 0 0 .1 0 .1 0 0 0zm2.9-.1zm-4-.2c.1 0 .1 0 0 0 .2.1.2.1.3.1.1 0 .2.1.2.1h.1l.1-.1v-.2l-.4-.4-.1.1-.1.1c.1.1 0 .2-.1.3.1-.1 0-.1 0 0zm-3.5-.4.1.1c.1.1.2.2.2.3l.2.2.1-.1.1-.1.3-.3.2-.2-.4-.4-.3-.3-.4-.4-.3.3-.2.2-.2.2.2.2.1.1c.1 0 .2.1.3.2-.1-.1 0-.1 0 0zm7.6.5zm-2.7-.2h.3c.1 0 .2-.1.2-.1l-.2-.2-.2.2c0 .1 0 .1-.1.1zm2.6-.5c-.1.1-.1.1 0 0l-.1.1c0 .1 0 .2.1.2v.2l.1-.1.2-.2c-.1 0-.2-.1-.3-.2zm-4.2.4s.1.1 0 0c.1 0 .2-.1.2-.1l.1-.1c0-.1 0-.1.1-.1h.1l-.1.1-.1.1-.1.1h-.2c.1 0 .1 0 0 0zm-1.6-.1-.1.1.1-.1zm3.7-.1.1.2s.1 0 .1-.1l-.2-.1zm-.6.2c.1-.1.1-.1 0 0zm-2-.2c.1 0 .1.1.2.1l.2.2V17l.1-.1.4-.4h.1l-.1-.1s-.1-.1-.1-.2l-.1-.1c-.1 0-.1-.1-.2-.1l-.1.1-.2.2-.1.1-.1.1-.1.1.1.1c-.1 0 0 0 0 .1zm2-1.9c-.1.1-.1.1-.2.1l-.2.2-.3.3-.3.3-.2.2.1.1.1.1.1.1.5.5.1.1v-.1c0-.1 0-.3.1-.5s.2-.3.4-.4c.2-.1.3-.2.5-.2h.2l-.1-.1-.1-.1-.1-.1-.1-.1-.2-.2-.1-.1-.2-.1c.1 0 .1 0 0 0zm1.7 1.5c-.1 0-.1 0 0 0l-.1.1c-.1.1-.2.2-.4.3.1 0 .1 0 .2-.1h.1s.1 0 .1-.1h.1l.1.1.1-.1-.1-.1c-.1 0-.1-.1-.1-.1zm-.8.4zm0 0zm-.1-.2c0 .1 0 .1 0 0l.1.1.1-.1c0-.1.1-.1.1-.2v-.2l-.1.1-.1.1-.1.1v.1zm-.2-.5c-.1.1-.3.1-.4.2l-.1.1c0 .1-.1.1-.1.2v.1s.1 0 .1-.1c0 0 .1 0 .1-.1h.1c0-.1.1-.2.2-.2 0 0 .1-.1.1-.2zm-4.1.4.2.2h.1s.1-.1.2-.1c.1-.1.2-.1.3-.2.1 0 .1-.1.2-.1s.1 0 .1.1c0 0 .1 0 .1.1l.4-.4.1-.1V15.7c0-.1.1-.2.1-.2.1-.1.2-.2.2-.3l.3-.3-.1-.1-.1-.1-.1-.1-.2.2-.1.1-.1.1-.1.1c-.1 0-.1.1-.2.2l-.2.2-.1.1-.2.2-.4.4-.1.1-.1.1c.1-.1 0 0-.2.1.1 0 0 0 0 0zm4 .1h.1c0-.1-.1-.1-.1 0 0-.1 0 0 0 0zm1.8-.2s0 .1 0 0l.1.1.1-.1h-.2zm-.9-.3v.2l.4-.4h.2v-.2c0-.1-.1-.2-.2-.3l-.1-.1-.1-.1-.3-.3-.1-.1c-.3-.3-.6-.7-1-1l-.4-.4-.4.4c-.1.1-.2.1-.2.2l-.1.1.1.1c.1-.1.3-.2.4-.2h.1l.2-.1-.1.1h.1l.2.2.1.1v.1c0 .1.1.1.2.2h.1l.1.1h.1l.2.2.3.3.2.2c.1 0 .1.1.1.2v.1c-.1.3-.1.3-.1.4zm-5.5-.2.1.1.3.3.1-.1.1-.1.2-.2.3-.3.5-.5.1-.1.1-.1.1-.1.2-.2.1-.1.1-.1.2-.2-.4-.4-.1.1-.1.1-.2.2-.2.2-.3.3-.1.1-.1.1-.2.2-.2.2-.2.2-.2.2-.1.1-.1.1c.1-.1 0 0 0 0zm5 .2c-.1 0-.1 0 0 0l-.1.1.1-.1zm-6.5-.3.2.2s.1 0 .1-.1.1-.1.1-.1l.1-.1.2-.2v-.1l-.1-.1-.1-.1-.2-.2-.2-.2-.1.1-.1.1-.2.2-.1.1.1.1.2.2c0 .1 0 .2.1.2zm5.4-.9-.1.1c-.1.1-.2.1-.3.2l-.1.1-.1.1-.1.1c0 .1-.1.1-.1.2v.1l.4-.4.4-.4c-.1 0-.1 0 0-.1zm-4 .9zm-.1 0s.1 0 0 0c.1 0 .1 0 0 0h.1c0-.1 0-.1-.1 0 .1-.1 0 0 0 0zm2.6 0zm.4 0c.1 0 .1-.1.2-.2s.2-.3.3-.4l.3-.3c.1-.1.2-.2.3-.2l-.1-.1c-.2.1-.4.2-.6.4l-.3.3c-.1.1-.2.2-.2.3 0 .1 0 .1.1.2-.1-.1-.1-.1 0 0zm-2.2-.8s0 .1 0 0c-.1.1-.1.1-.2.1 0 0 0 .1-.1.1s-.1.1-.2.2-.2.2-.3.2l.1-.1s0-.1.1-.1l.2-.2c.3 0 .4-.1.4-.2zm2.1.7zm-3.9-1c.1.1.1.1 0 0l.5.5.2.2.1.1.1.1h.2l.1-.1.4-.4.1-.1.1-.1.1-.1.1-.1.1-.1.1-.1c.1-.1.1-.2.2-.2l.1-.1.1-.1c.1-.1.2-.2.4-.3.1 0 .1-.1.1-.2v-.2l-.1-.1-.2-.2-.1-.1-.1-.1-.3-.3v.1l-.1.1-.1.1-.2.2c-.1 0-.1.1-.2.2l-.1.1-.2.2-.1.1v.1c-.1 0-.1.1-.1.1l-.1.1c-.1.1-.3.2-.4.4l-.2.2-.1.1-.1.1c-.1-.1-.2-.1-.3-.1zm2.5-.3-.3.3-.1.1-.1.1-.1.1h.1l.2-.2.2-.2c0-.1.1-.2.1-.2zm-3.7.3c.1 0 .1 0 0 0l.1.1.3-.3.5-.5.1-.1.1-.1c.1 0 .1-.1.2-.2l.1-.1.2-.2.1-.1.2-.2.1-.1.3-.3v-.1s-.1 0-.1-.1l-.2.2-.1.1-.3.3-.1.1-.1.1-.1.1-.1.1-.1.1-.1.1c-.1.1-.2.2-.4.3l-.1.1-.1.1-.2.2-.1.1c-.1.2-.1.2-.1.3zm0 0zm.8-.3c0 .1 0 0 0 0zm-.5-.3-.2.2.1-.1.1-.1zm1.3-.5c0 .1-.1.1 0 0-.1.1-.1.1 0 0l-.2.2-.4.4.1-.1.1-.1.1-.1.1-.1.2-.2zm2.7-.4c0 .1.1.1 0 0l.1.1.9.9.1-.1h.1l.1-.1c.1 0 .1-.1.2-.1l.2-.2.2-.2-.4-.4-.3-.3-.4-.4-.2.2-.1.1-.2.2-.3.3c.1-.1 0 0 0 0zm-2.8 1zm-.6-.6s-.1 0 0 0l-.1.1s0-.1.1-.1c-.1 0 0 0 0 0zm3.5 0v.1-.1c.1 0 0 0 0 0zm-3.1-.5-.1.1-.2.2-.1.1.2-.2c.1 0 .1-.1.2-.2 0 .1 0 0 0 0zm2.9 0zm-2.8-.1s0 .1 0 0c0 .1-.1.1 0 0-.1.1-.1.1 0 0 0 .1 0 0 0 0zm.9 0zm1.6-.3s.1 0 0 0l.2.2h.1l.2-.2.1-.1h.1c.1 0 .1-.1.1-.1l-.3-.3c-.1-.1-.1-.2-.2-.2s-.1 0-.1.1l-.1.1-.1.1-.1.1-.2.2.2.2.1.1c-.1-.3 0-.3 0-.2zm-1 .1zm-.8-.4c0 .1.1.1 0 0l.2.2c0 .1.1.1.2.1l.3-.3.1-.1.1-.1c.1-.1.2-.1.2-.2l-.1-.1-.1-.1-.1-.1-.1.1-.2.2c-.1.1-.2.2-.4.3 0-.1 0 0-.1.1 0-.1 0 0 0 0zm2.8 0zm-1.9-.9.2.2s.1 0 .1.1l.1-.1.1-.1v-.1l-.1-.1-.1-.1-.1-.1h-.1c0 .2 0 .2-.1.3z"/><path d="m21 21.8-.1-.1v-.1l.1-.1h.1l.3.3c-.1 0-.1.1-.2.2h-.1c0-.1-.1-.2-.1-.2zm.1-.2c0-.1-.1-.1 0 0-.1-.1-.1-.1 0 0-.1-.1-.1 0-.2 0v.1l.2.2h.1c0-.2-.1-.3-.1-.3zm0 .3c-.1-.1-.2-.2-.2-.3.1.1.1.2.2.3zm-.1-.4.3.3c-.1-.2-.2-.3-.3-.3z"/><path fill="#010101" d="m21.1 22-.1-.1-.1-.1-.1-.1c-.1-.1-.1-.1 0-.2l.1-.1-.3-.3.3.3h.1l.1.1c0 .1.1.1.1.2v.2l-.1.1c.2-.1.1 0 0 0 .1 0 .1 0 0 0zm.1-.2zm-.2-.2.1.1s0-.1-.1-.1z"/><path d="m22.5 20.3.1.1v.1l-.1.1h-.1l-.2-.2s-.1 0-.1-.1l.1-.1h.1c.1 0 .2 0 .2.1zm-.1.1s0 .1 0 0c.1.1.1.1.2.1v-.1l-.2-.2h-.1v.1s0 .1.1.1zm.2 0c-.1-.1-.2-.2-.2-.3.1.1.1.2.2.3z"/><path fill="#010101" d="M22.5 20.7s-.1-.1 0 0c-.1-.1-.1-.1-.2-.1l-.1-.1s-.1 0-.1-.1v-.1l.1-.1h.2l.1.1v.1l.1.1v.1l-.1.1c.1 0 0 0 0 0zm-.2-.4c.1 0 .1 0 0 0l.2.2c0-.1-.1-.1-.2-.2z"/><path d="M15.3 14.5h.1l.1-.1.3-.3.4-.4c.1-.1.1-.1 0-.2l-.1-.1-.3-.3.2-.1c0 .1.1.1.1.2s.1.1.1.2c.1.1.1.2-.1.3l-.6.6-.4.4c-.1.1-.3.2-.4.4l-.1.1-.3.3-.1.1h-.1l-.1-.1-.2-.2c-.1-.1-.2-.1-.2-.2l.2.2c.1.1.2.2.3.2.1.1.1 0 .2 0l.3-.3.2-.2c.2-.2.4-.3.5-.5z"/><path fill="#010101" d="M14.2 15.6c-.1 0-.2-.1-.2-.1s-.1 0-.1-.1l-.1-.1-.1-.1-.1-.1h.1l.1.1.1.1.1.1.2.2h.1c.1 0 .1-.1.2-.2l.2-.2c.1 0 .1-.1.2-.2l.1-.1.1-.1.2-.2-.3-.3.3.1.1-.1.1-.1.2-.2.4-.4v-.1s0-.1-.1-.1l-.1-.1-.2-.2V13h.2l.1.1s0 .1.1.1l.1.1s0 .1.1.1l.1.1c0 .1.1.1.1.2s0 .1-.1.2l-.2.2c-.1.1-.3.3-.5.4l-.2.2-.2.2-.1.1-.3.3-.2.2-.1.1-.1.1c-.2-.1-.2-.1-.3-.1z"/><path d="m23.2 19.2.3-.3h.1c.1.1.1.1 0 .1l-.3.3h-.1v-.1c-.1.1-.1.1 0 0zm.2 0 .2-.2c-.2.1-.2.1-.2.2-.1 0-.2.1-.2.1 0 .1.1 0 .2-.1z"/><path fill="#010101" d="M23.1 19.6s-.1-.1 0 0c-.1-.1-.1-.1 0 0-.1-.2-.1-.2-.1-.3l.1-.1.1-.1.1-.1h.2l.1.1s0 .1-.1.1l-.1.1c-.1.1-.1.2-.3.3.1-.1 0 0 0 0zm-.1-.1z"/><path d="M18.7 17.8c.1 0 .1-.1 0 0 .1 0 .1 0 0 0z"/><path fill="#010101" d="m18.4 17.9.3-.2s0-.1.1-.1h.1l-.1.1s0 .1-.1.1l-.3.1z"/><path d="M16 12.7c0-.1 0-.1 0 0 0-.1.1-.1 0 0 .1-.1.1-.1 0 0 .1 0 0 0 0 0z"/><path fill="#010101" d="M16.1 12.7c-.1 0-.1 0 0 0l-.1-.1v-.1h.2c0 .1 0 .2-.1.2zm-.1 0zm0 0c.1 0 .1 0 0 0 .1-.1.1-.1 0 0 .1-.1.1-.1 0 0 .1-.1.1-.1 0 0 .1-.1 0-.1 0 0 0-.1 0-.1 0 0zm.1-.1z"/><path d="M15.9 12.5c0-.1 0-.1 0 0 .1 0 .1 0 0 0z"/><path fill="#010101" d="M15.9 12.6c-.1-.1-.1-.1-.1-.2h.2v.1l-.1.1c.1 0 0 0 0 0zm0-.1z"/><path d="M13.3 15.1s0 .1 0 0c0 .1-.1.1 0 0-.1.1-.1 0 0 0-.1 0 0 0 0 0z"/><path fill="#010101" d="M13.3 15.3c-.1 0-.1-.1 0 0-.1-.1-.1-.1-.1-.2h.2v.1l-.1.1c0-.1 0 0 0 0zm-.1-.1s.1 0 0 0c.1-.1.1-.1 0 0 .1-.1 0-.1 0 0 0-.1 0-.1 0 0zm0-.1z"/><path d="M13.4 15.3s-.1 0 0 0c0-.1 0-.1 0 0z"/><path fill="#010101" d="M13.4 15.4s-.1 0 0 0c-.1-.1-.1-.2-.1-.2h.1c.1 0 .1.1 0 .2zm0-.1zm0 0zm0 0z"/><path d="M21.6 23.1s-.1 0 0 0c0 .1 0 .1 0 0z"/><path fill="#010101" d="M21.6 23.2s-.1 0 0 0l-.1-.1V23h.1c.1.1.1.1 0 .2zm0-.1zm0 0z"/><path d="M21.9 22.8s-.1 0 0 0c0-.1 0-.1 0 0z"/><path fill="#010101" d="M21.9 22.9s-.1 0 0 0c-.1-.1-.1-.1-.1-.2h.2v.1l-.1.1zm0-.1z"/><path d="M23.5 21.2c0 .1 0 .1 0 0-.1 0-.1 0 0 0z"/><path fill="#010101" d="M23.5 21.3s-.1 0 0 0c-.1 0-.1-.1-.1-.1v-.1h.2c0 .1 0 .1-.1.2zm0-.1zm0 0z"/><path d="M23.8 20.9c0 .1 0 .1 0 0 0 0-.1 0 0 0z"/><path fill="#010101" d="M23.8 21s-.1 0 0 0c-.1-.1-.1-.2-.1-.2h.2v.1s0 .1-.1.1zm0-.1zm0 0z"/><path d="M16.3 16.6c0-.1 0-.1 0 0 0 0 .1 0 0 0 .1.1.1.1 0 0 .1.1.1.1 0 0 .1.1.1.1 0 0z"/><path fill="#010101" d="m16.4 16.8-.1-.1v-.1h.2l.1.1c-.1 0-.1 0-.2.1.1-.1.1-.1 0 0 .1 0 0 0 0 0zm0-.1z"/><path d="M18.4 14.6c-.1 0-.1 0 0 0-.1 0-.1-.1 0 0-.1-.1-.1-.1 0 0-.1 0 0 0 0 0 0 .1.1.1 0 0 0 .1 0 .1 0 0 0 .1 0 0 0 0z"/><path fill="#010101" d="M18.4 14.8s0-.1 0 0c-.1 0-.1-.1-.1-.1v-.2h.1l.1.1-.1.2c.1-.1.1-.1 0 0 .1-.1.1 0 0 0z"/><path d="m14.6 12 .2-.2c.1-.1.2 0 .2 0v.1l-.1.1-.3.3-.1.1h-.1s-.1 0-.1-.1v-.1c.1 0 .2-.1.3-.2zm0 .2s.1 0 0 0c.1-.1.1-.1 0 0v-.1h-.1l-.1.1-.1.1v.1h.1c.1-.1.2-.1.2-.2zm.3-.3.1-.1h-.1l-.1.1c0 .1 0 .1.1 0zm-.1.1h-.1.1c-.1.1-.1.1 0 0z"/><path fill="#010101" d="M14.4 12.5s-.1 0 0 0c-.1-.1-.2-.1-.2-.2 0 0 0-.1.1-.1l.2-.2.1-.1.2-.2s.1-.1.2-.1.1.1.1.1v.2l-.1.1-.2.2-.1.1c-.2.1-.2.2-.3.2.1 0 0 0 0 0zm0-.2zm.3-.3zm.1-.1s.1 0 0 0c.1 0 .1 0 0 0 .1 0 .1 0 0 0z"/><path d="m14.8 12.2.2-.2h.1l.1.1v.1l-.5.5c0 .1-.1 0-.2 0v-.1s.1 0 .1-.1c.1-.2.2-.2.2-.3zm-.1.2-.1.1v.1h.1l.1-.1.2-.2v-.1h-.1c-.2.1-.2.1-.2.2zm.4-.3.1-.1h-.1l-.1.1v.1l.1-.1zm-.2.2c.1-.1.1-.1 0 0 0-.2 0-.2 0 0-.1-.1-.1-.1 0 0z"/><path fill="#010101" d="M14.6 12.7c-.1 0-.1 0-.1-.1v-.1s0-.1.1-.1l.1-.1.1-.1.2-.2s.1-.1.2 0c0 0 .1.1.1.2v.1l-.2.2-.3.3c-.1-.1-.1-.1-.2-.1zm.2-.4c0 .1 0 0 0 0zm.2-.2z"/><path d="M18.4 17.9c-.1.1-.1.1-.1 0v-.1c-.1 0-.1-.1-.1-.1 0-.1 0-.1.1-.1s.1 0 .1.1 0 .1.1.1l-.1.1c.1-.1.1-.1 0 0 .1 0 .1 0 0 0zm-.2-.2h.1v-.1h-.1c-.1.1-.1.1 0 .1zm.2.2c0-.1 0-.1 0 0 .1-.1.1-.1 0 0v-.1.1c0-.1 0-.1 0 0 0-.1 0-.1 0 0h-.1c0-.1 0-.1.1 0zm-.1-.1s.1 0 0 0c.1 0 .1 0 0 0 .1 0 .1 0 0 0z"/><path fill="#010101" d="M18.4 18s-.1 0-.1-.1v-.1c-.1 0-.2-.1-.2-.2s.1-.2.2-.2h.2V17.7c0 .3-.1.3-.1.3zm-.2-.3c.1 0 .1 0 0 0 .1 0 0 0 0 0z"/><path d="M21.3 22.6c0-.1 0-.1 0 0 0-.1.1-.1 0 0 .1-.1.1-.1 0 0 .1 0 0 0 0 0z"/><path fill="#010101" d="M21.4 22.6c-.1 0-.1 0 0 0l-.1-.1v-.1h.2c0 .1 0 .2-.1.2zm0-.1c-.1 0-.1 0 0 0-.1 0-.1 0 0 0-.1.1 0 .1 0 0z"/><path d="M21.5 22.7c.1 0 .1 0 0 0 .1.1 0 .1 0 0z"/><path fill="#010101" d="M21.5 22.8c-.1 0-.1-.1-.1-.1v-.1h.1c.2.1.1.2 0 .2.1 0 .1 0 0 0zm0-.1c0 .1 0 .1 0 0 .1 0 .1 0 0 0 .1 0 .1 0 0 0zm.1 0z"/><path d="M15.2 11.7c-.1 0 0-.1 0-.1V11.3h.2s.1 0 .1.1.1.1 0 .2v.1h-.1c0 .1-.1 0-.2 0zm.2 0h.1c0-.1 0-.2-.1-.2h-.2c-.1 0-.1 0 0 0v.2h.2c-.1 0-.1-.1-.1-.1v-.1h.1c.1 0 .1 0 .1.1l-.1.1zm0-.2h-.1v.1h.1c.1 0 .1 0 0-.1z"/><path fill="#010101" d="M15.5 11.8h-.4c-.1 0-.1-.1-.1-.1v-.2c0-.1 0-.1.1-.1h.2c.1 0 .1.1.1.1v.2c.2 0 .3 0 .1.1.1 0 0 0 0 0zm-.1 0zm0-.3c0 .1 0 .1 0 0 0 .1 0 .1 0 0 0 .1 0 .1 0 0 0 .1 0 .1 0 0zm0 .1zm-.1-.3z"/><path d="M23.3 20.6s0 .1 0 0c0 .1-.1.1 0 0-.1.1-.1 0 0 0-.1 0 0 0 0 0z"/><path fill="#010101" d="M23.2 20.8c-.1-.1-.1-.1-.1-.2 0 0 .1-.1.2 0 .1 0 .1.1-.1.2.1 0 .1 0 0 0zm0-.1s.1 0 0 0c.1 0 .1-.1 0 0 .1-.1.1-.1 0 0zm.1-.1c-.1.1-.1.1 0 0zm-.1 0s0 .1 0 0c.1 0 .1 0 0 0z"/><path d="M23.5 20.8c-.1.1-.1.1 0 0-.1 0-.1 0 0 0-.1 0-.1 0 0 0z"/><path fill="#010101" d="M23.4 20.9c-.1-.1-.1-.1-.1-.2h.2c0 .1 0 .2-.1.2.1 0 0 0 0 0zm0 0c0-.1.1-.1 0 0zm0-.1z"/><path d="M17.2 17c0 .1-.1.1 0 0-.1 0-.1 0 0 0-.1 0 0 0 0 0z"/><path fill="#010101" d="M17.2 17.1c-.1 0-.1 0 0 0-.2 0-.2-.1-.1-.2h.2v.1c0 .1-.1.1-.1.1zm-.1-.1c.1.1.1 0 0 0 .1 0 .1 0 0 0 .1 0 0 0 0 0zm0 0z"/><path d="M17.5 16.6c.1 0 .1 0 0 0 .1 0 .1 0 0 0 .1.1.1.1 0 0z"/><path fill="#010101" d="M17.6 16.7c-.1 0-.1 0 0 0l-.1-.1v-.1h.1c.1.1.1.1 0 .2zm0-.1c-.1 0-.1 0 0 0z"/><path d="M17.4 16.9s-.1 0 0 0c-.1 0-.1-.1 0 0-.1-.1 0-.1 0 0 0-.1 0 0 0 0z"/><path fill="#010101" d="M17.4 16.9c-.1 0-.1 0 0 0-.1 0-.1 0 0 0-.1-.1-.1-.1-.1-.2h.2c0 .1 0 .2-.1.2zm-.1-.1c0 .1 0 .1 0 0 .1.1.1.1 0 0zm.1 0c-.1 0-.1 0 0 0 0 .1 0 .1 0 0z"/><path d="M19.1 16.5h.1s0 .1-.1 0c.1.1 0 .1 0 .1-.1 0-.1 0 0-.1zm0 .1s.1-.1 0 0c0-.1 0-.1 0 0z"/><path fill="#010101" d="M19.1 16.7c-.1-.1-.1-.2-.1-.2h.2c.1.1.1.1 0 .2h-.1zm0-.1zm0 0z"/><path fill="none" d="M27.2 4.4h13.3v13.3H27.2z"/><path fill="#010101" d="M30.4 11.5c0-1.2.5-2.1 1.9-3.1.9-.7 1.2-.9 1.2-1.4 0-.5-.3-.9-.8-.9-.6 0-.8.4-.9.9h-1.3c.1-1.1.8-2 2.3-2C34.4 5 35 6 35 6.9c0 .9-.4 1.4-1.6 2.2-.8.5-1.1.9-1.2 1.2h3l-.2 1.1h-4.6zM38.4 11.5V10h-2.9V8.8l2.6-3.7h1.5v3.8h.8l-.1 1.1h-.6v1.4h-1.3zm0-3.7V6.3c-.3.5-1.1 1.7-1.7 2.6h1.6V7.8zM25.6 23.8l1.6 2.9-2.9-1.6s.7-.3.9-.5c.2-.1.4-.8.4-.8z"/><g fill="#010101"><path d="M20 10.9c-.6.6-1 .6-1.6 0-.1-.1-.3-.3-.3-.4l.5-.5c0 .1.1.2.2.2.2.2.4.1.5 0l1.6-1.6.7.7-1.6 1.6zM21 11.9c-.2.2-.3.4-.1.6.2.2.3.1.4.1l.7.7c-.3.2-.9.3-1.5-.3-.7-.7-.5-1.4 0-1.8.5-.5 1.2-.7 1.9 0s.4 1.4 0 1.8c-.1.1-.1.1-.2.1L21 11.9zm.8.2c.2-.2.3-.4.1-.5-.2-.2-.4-.1-.6.1l.5.4zM23 14c-.2.2-.3.4-.1.6.2.2.3.1.4.1l.7.7c-.3.2-.9.3-1.5-.3-.7-.7-.5-1.4 0-1.8.5-.5 1.2-.7 1.9 0s.4 1.4 0 1.8c-.1.1-.1.1-.2.1L23 14zm.9.1c.2-.2.3-.4.1-.5-.2-.2-.4-.1-.6.1l.5.4zM24.5 16.7l-.8.8-.7-.7 2-2 .5-.5.6.6c0 .1-.1.2-.2.2.2 0 .5 0 .7.3.4.4.4 1-.2 1.6-.7.7-1.3.6-1.8.2 0-.1-.1-.3-.1-.5zm1.3-.2c.3-.3.4-.5.2-.7-.2-.2-.4-.1-.7.2-.3.3-.4.5-.2.7.1.2.4.1.7-.2z"/></g></svg>