<svg version="1.2" baseProfile="tiny" xmlns="http://www.w3.org/2000/svg" viewBox="0 0 45 45" overflow="visible" xml:space="preserve"><path fill="#76A4B2" d="M-139.5-157.5h279v252h-279z"/><path fill="#76A4B2" d="M0 0h45v45H0z"/><path fill="none" stroke="#FFF" stroke-width="2" stroke-linecap="square" stroke-miterlimit="10" d="m14.8 6.5-1.6 1.4 1.7 1.7-5.4 5-1.6-1.4-1.3 1.5 16.9 17 1.4-1.4-.6-.6 2.5-2.3 2 2 .5-.4-2.1-2.2 2.6-2.4.6.5 1.4-1.4-17-17h0"/><path d="M10.9 13.4c-.7.2-1 .8-1.4 1.3l-1.3-1.3c-.2-.2-.3-.2-.5 0l-1.1 1.1c-.2.2-.2.3 0 .6l3.3 3.3 3.1 3.1c.2.2.3.3.1.6-.1.1 0 .2 0 .3l2.3 2.3c.1.1.3.2.4 0 .2-.2.3-.1.4.1l3.7 3.7 3.1 3.1c.3.3.3.3.6 0l.9-.9c.2-.2.2-.4 0-.5-.1-.1-.3-.2-.2-.3.1-.1.3-.1.4 0 .1.1.2.3.4.1.2-.2.4-.3.4-.6 0-.2.1-.4.3-.5.2-.2.4-.3.5-.5.1-.2.3-.2.4-.4 0-.1.2-.1.3 0 .4.4.9.8 1.2 1.4.1.2.2.3.5.3.2 0 .4-.2.4-.4s-.1-.4-.3-.5c-.6-.2-.9-.8-1.4-1.2-.1-.1-.2-.2.1-.3.1 0 .1-.1.1-.2s.1-.2.2-.2c.2 0 .3-.3.3-.3.1-.3.5-.2.5-.6 0-.1.3-.2.4-.2.3 0 .4-.2.6-.4.1-.1.1-.2 0-.3-.2-.1-.2-.3-.1-.6l.4.4c.1.1.2.1.4 0l1.2-1.2c.2-.2 0-.3-.1-.4l-3.2-3.2L14.9 6.8c-.3-.3-.3-.3-.7 0l-1 1c-.3.3-.3.3 0 .6l1.1 1.1c.1.1.2.1.1.2s-.2 0-.2-.1c-.3-.2-.5-.2-.8 0-.4.2-.6.5-.9.9-.4.5-.9 1-1.4 1.4-.1.1-.3.1-.4.2-.2.4-.2.7.2 1.3 0-.1 0-.1 0 0zm16.6 9.4c-.2 0-.2.1-.3.2-.1.1-.2.1-.4 0-.1-.1-.2-.1-.1-.3.1-.2.3-.3.4-.5.2-.2.3-.2.4 0l1.9 1.9c.2.2.2.3 0 .4l-2.1 2.1s-.1.1-.2.1H27v-.1c.2-.3.6-.4.7-.7l.1-.1c.1 0 .1 0 .1-.1-.1-.2.1-.5-.3-.6-.1 0-.1-.1-.2-.2-.2-.2-.3-.4-.5-.5l-.6-.6c-.1-.1-.2-.2-.3-.2-.1.2.2.2.3.3l1.2 1.2c.2.3.2.5-.2.7-.1 0-.1 0-.1.1 0 .2-.2.3-.3.4-.1.1-.2.1-.3 0-.5-.5-1-.9-1.3-1.5-.1-.2-.1-.3 0-.4.3-.2.5-.5.7-.7-.1-.1-.2 0-.3.1-.2.2-.4.4-.5.6-.1.1-.2.1-.2 0-.1-.1 0-.2 0-.2.4-.4.7-.8 1.2-1.1.2-.1.2 0 .4 0 .2.1.1.2.1.4.2-.1.3-.1.4.1 0 .1.2.2.3.3.2.1.3.2.5 0s0-.4-.1-.6c-.1-.2-.3-.1-.4 0 0 .1-.1.1-.2 0s-.1-.2 0-.2l.3-.3zm-3.3-.1s.1 0 0 0c.1-.3.1-.4.4-.2.2.2.4.2.5 0l1.1-1.1c.2-.2.2-.3.1-.5-.2-.4-.6-.7-.9-1-.1-.2-.3-.2-.5-.1-.1.1-.3.2-.4.3-.4.4-.8.8-1.1 1.2v-.1c.2-.4.3-.8.4-1.3v-.3c-.3-.7-.3-1.4-.3-2.2 0-.3 0-.6-.2-.8l-2.4-2.4c-.1-.1-.2-.1-.4-.1-.3 0-.6-.1-.9-.1-.1 0-.2 0-.1-.1.1-.2.3-.4.5-.5.2-.1.3.1.4.2l4.2 4.2c.1.1.2.2.2.3l2.1 3.3c.1.1.1.2 0 .3l-2.1 2.1c-.1.1-.2.1-.2-.1 0-.3 0-.5-.2-.8l-.1.1c0 .1 0 .3-.2.4-.2.1-.3-.2-.4-.2l-.1-.1c-.1-.1-.1-.2.1-.3.2-.1.3-.3.1-.5l-.4-.4c-.1-.1-.2-.1-.1-.2s.2 0 .2.1c.3.3.6.5.7.9zM21 21.2l-1.7 1.7c-.2.2-.3.2-.5 0l-1.7-1.7c-.2-.2-.2-.3 0-.5l3.4-3.4c.2-.2.3-.2.5 0 .5.6 1.1 1.1 1.6 1.6.2.2.2.3 0 .6-.5.6-1 1.2-1.6 1.7zm-7-.4c.3 0 .3-.2.3-.4-.1-.5-.2-1.1-.3-1.6 0-.1 0-.2-.1-.2-.2 0-.1-.1-.1-.3 0-.2 0-.3-.2-.4-.2 0-.3 0-.4.2-.1.2 0 .4.2.4s.2.2.3.3c0 .1.1.2.1.3.1.5.2.9.3 1.4 0 .1 0 .1-.1.2-.1 0-.1 0-.1-.1l-.3-.3c-.1-.1-.1-.2 0-.3.2-.3.2-.7-.1-1-.6-.6-.5-.6 0-1.2.2-.2.4-.3.7-.1.4.2.5.4.4.9-.1.2-.1.3-.1.5-.1.2 0 .4.1.6.4.7.9 1.4 1.3 2.1.1.1.2.2.2.3 0 .2-.1.4.3.3 0 0 .1.1.2.1.5.5 1 .8 1.6 1v.1c-.3-.1-.6-.1-.8-.2-.1 0-.3 0-.3.1 0 .2.1.2.3.2.6 0 1.1.2 1.7.4.6.3 1.1.2 1.6-.1.3-.1.6-.3 1-.4.1 0 .2-.1.3-.1-.1.1-.2.1-.2.2-.8.3-1.3.8-1.7 1.3-.1.1-.1.1 0 .2.4.4.7.8 1.2 1.1.2.1.3.1.5-.1.3-.3.5-.6.8-.8.4-.3.6-.6.2-1.1v-.1l.6.3c.2.1.3.2.1.4l-1.8 1.8c-.1.2-.3.2-.5.1-.7-.4-1.4-.9-2.1-1.3-.6-.4-1.3-.7-1.8-1.2l-1.6-1.6c-.4-.7-1-1.3-1.7-1.9zm1.1-11.2 1.1-1.1c.1-.1.2-.2.3-.1.2.2.5.3.7.5l8.4 8.4 2.1 2.1c.1.1.2.1.1.2s-.2 0-.3-.1c-.1-.1-.2-.1-.1-.3 0-.1 0-.1-.1-.2-.4-.2-.7-.6-1.1-.9-.1-.1-.2-.3-.3-.4-.1-.2-.2-.3-.4-.1-.2.1-.3.1-.4-.1-.1-.1-.2-.2-.3-.4l-5.4-5.4c-.2-.2-.3-.4-.5-.2h-.1c-.2-.2-.5-.3-.6-.6-.1-.2.1-.4.2-.6 0-.1.1-.2 0-.2-.3-.2-.4-.5-.6-.8-.1-.1-.3-.2-.4-.3-.3 0-.4 0-.6.1-.2.1-.4.3-.6.1-.2-.1-.3-.1-.5 0s-.4.2-.6.4zm-1.4 7.3c-.3-.2-.4-.5-.3-.9.3-1.2 1.1-2 2.3-2.4.4-.2.8-.1 1.1.3l.2.2c.2.2.2.4-.1.5-.3 0-.3.1-.4.4-.1.2-.4.6-.6.6-.4 0-.4.3-.5.5-.1.2-.2.3-.4.4-.1.1-.2.3-.5.2-.1-.1-.2 0-.1.2.2.3-.1.4-.2.5-.2.1-.2-.1-.3-.1-.1-.2-.1-.3-.2-.4zm4.9 9.8c.1 0 .2.1.3.2.1.1.1.1.2 0s0-.1 0-.2l-.1-.1-2.3-2.3c-.1-.1-.2-.1-.1-.3.1-.1.1-.2.3-.2.2 0 .8.7.8.9 0 .3.2.5.5.5.1 0 .2 0 .2.1 0 .2.1.2.3.3.2.1.4.2.6.4.1.1.2.1.3 0 0-.1 0-.2.2-.1.3.3.7.6 1.1.6 0 0 .1 0 .1.1 0 .3.3.3.5.3 0 0 .1 0 .1.1.4.4.8.8 1.3 1.2-.2-.1-.4.2-.5 0-.2-.3-.5-.5-.7-.7l-.3-.3c-.1 0-.2-.2-.4 0-.1.1 0 .3 0 .4.3.4.6.7 1 1-.1 0-.2.1-.3.1-.1 0-.3-.3-.4 0l-.1-.1v-.2c0-.3-.3-.5-.6-.4-.2.1-.2.2-.2.3 0 .1 0 .2.1.3.2.1.1-.2.2-.2 0 .1 0 .2.1.3.1.1.1.2 0 .3-.1.1-.1 0-.2-.1-.6-.9-1.3-1.5-2-2.2zm4.6 1.8-.8-.8c-.3-.3-.3-.3 0-.7.5-.5 1.2-.8 1.6-1.4.1-.1.2-.2.2-.3 0-.1 0-.2.1-.1.1 0 .1.1 0 .2-.1.2-.1.4.1.5.2.1.3.5.6.5.1 0 0 .2.2.3.3.1.4.4.6.6.1.2.3.2.4.2.1 0 .2.1.3-.1 0 0 .1 0 .1.1s-.1.1-.1.2c-.6.6-1.3 1.2-1.9 1.9-.2.2-.3.2-.4 0-.3-.5-.6-.8-1-1.1zm-5.6-12.7c.6-.3.6-.3 1 .1h.1c.6.4 1.1.8 1.7 1.1.2.1.3.2.1.4L17.9 20l-.1.1c0-.5-.2-.7-.5-.8-.2 0-.3 0-.5.1s-.1.3-.2.6c-.1-.2-.3-.2-.3-.4 0-.3-.2-.5-.4-.7-.4-.3-.4-.4-.2-1 0 .1.1.2.1.2.4.7 1.2 1.1 2 .8.2-.1.4-.3.7-.3l.1-.1c0-.2.1-.3.2-.4.2-.4.2-.9.1-1.3-.4-.5-.8-.8-1.3-1zm10.8 7-1.2-1.2c-.1-.1-.1-.1-.1-.2 0-.2 0-.3-.2-.5-.3-.4-.5-.8-.9-1.2-.3-.3-.5-.8-.8-1.3 0-.1-.1-.2 0-.2.1-.1.2 0 .2 0 .4.2.6.6.9.8.2.1.2.3 0 .4-.1 0-.1.1-.1.2.1.1.1 0 .2-.1s.2-.2.3.1c0 .1.1.1.2.1.2.1.5.1.4.5v.1h.1c.1 0 .1-.1.2-.1.5-.4.3-.5.8 0v.1l-.3-.3c.1 0 0-.1-.1 0s0 .2 0 .3c.2.2.3.5.6.6.3.1.5.5.7.8.1.1.2.2 0 .3-.2.1-.2.2-.1.4.1.1.1.1 0 .2s-.1 0-.2 0c-.3-.4-.5-.3-.6.2zm-15.8-9.7c0 .2.2.6.3.6.3-.1.4.1.6.3.1.1.1.2 0 .3l-.4.4c-.1.1-.1.2 0 .3l.3.3c.1.1.1.1 0 .2s-.1 0-.2-.1l-.5-.5c-.2-.2-.3-.2-.5 0-.3.2-.5.5-.8.8-.1.1-.2.3-.1.5.1.4.3.9.7 1.2.1.1.3.2.3.4-.8-.7-1.6-1.4-2.1-2.3l2.4-2.4zm1.1-1.1 1.6-1.6c.1-.1.1-.1.2-.1s.1.1.1.2c0 .3.2.5.4.5.1 0 .2 0 .2.1l.5.5s.1.1.1.2-.1.1-.2.1-.2.1-.3.2l-.7.7c-.3.3-.3.4 0 .7.1.1.2.1.1.2s-.3.1-.4 0l-.3-.3c-.1-.1-.1-.1-.2-.1-.2.1-.2-.1-.3-.1l-.5-.5c-.1-.1-.1-.1-.1-.2.2-.5 0-.5-.2-.5zm.4-3.2s0-.1 0 0l-.6-.6c-.1-.1-.1-.2 0-.4l1.1-1.1c.1-.1.2-.1.3 0L16 7.8c.1.1.1.3 0 .5-.2.3-.4.6-.7.8-.4.4-.6.4-1 0 0-.1-.1-.2-.2-.3zM7.3 14l.5-.5c.1-.1.2-.1.3 0l1.2 1.2c.1.1.1.2-.1.2-.1 0-.2.1-.2.2 0 .4-.3.5-.5.7-.1.1-.3.2-.5.1-.5-.2-.9-.7-1.3-1.1-.1-.1-.1-.2 0-.3.3-.1.4-.3.6-.5zm2.6 4c.1 0 .1 0 .2.1.2.2.3.3.6.1.4-.3.4-.2.8.2l1.5 1.5c.2.2.2.3-.1.4-.1 0-.1.1-.1.1 0 .1.1.2.2.2s.1-.1.1-.1c0-.2.1-.2.2-.1l.6.6c.3.3-.3.3-.1.6 0 0-.1.1-.2.1s-.1-.1-.2-.1l-1.2-1.2c-.8-.9-1.6-1.7-2.3-2.4zM16 9.7c0 .1 0 .2.1.2s.2 0 .3.1l1 1c.2.2.3.4.5.5.6.5 1.1 1.1 1.7 1.7.1.1.2.2.1.3-.1.1-.2.3-.4.3s-.5-.4-.5-.6c0-.3-.1-.4-.4-.4-.2 0-.2-.1-.3-.1l-.4-.4c-.1-.1-.2-.2-.2-.4s-.1-.4-.3-.3c-.5 0-.6-.4-.9-.6-.1-.1-.1-.2-.1-.3 0-.3-.1-.4-.4-.4-.1 0-.1 0-.2-.1s0-.1.1-.2l.3-.3zm-1.4 8.2-.3-.3c-.1-.1-.2-.1-.1-.3.1-.1.2-.2.3-.1.1.1.2 0 .2-.1 0-.5.3-.6.6-.9.1-.1.3.1.4-.1.1-.1 0-.3.1-.5.2-.3.5-.5.7-.7.1-.1.2-.2.4-.1.1.1.2-.1.1-.2 0-.1-.1-.2 0-.2.1-.1.2 0 .2.1l.6.6c.1.1.1.2-.1.2-.4.1-.7.3-1.1.4-.7.2-1.1.6-1.2 1.2-.1.3-.2.5-.3.8 0 .7 0 .7-.5.2zm-2.8-.5 1.5 1.5c.2.2.2.4.3.7 0 .1 0 .2-.1.2s-.2 0-.2-.1l-1.8-1.8c-.1-.1-.2-.3-.4-.4-.4-.3-.8-.7-1.1-1.1-.1-.1-.2-.3-.1-.4.1-.2.3-.1.4 0 .4.3.9.8 1.5 1.4zm10.4 6.3c-.3-.3-.7-.6-1-1-.1-.1 0-.1 0-.2.3-.4.6-.8 1.1-1.1.1-.1.2-.1.3 0l.8.8c.1.1.1.2 0 .3-.2.2-.4.5-.7.7h-.1c-.3 0-.4.1-.4.5zm2.1-3.1.5-.5c.2-.2.3-.2.5 0s.5.4.7.7c.1.1.2.2.1.3-.1.1-.2 0-.3-.1-.1-.1-.1-.2-.2-.1s0 .2.1.2c.2.1.1.3 0 .4l-.3.3c-.1.1-.3.2-.4 0-.1-.1-.2-.2-.3-.1-.1.1 0 .2.1.3.1.1.2.2.1.3-.1.1-.2 0-.3-.1l-.7-.7c-.1-.1-.1-.3 0-.4 0-.2.2-.4.4-.5zm-11.6-7.7c.3-.3.5-.5.8-.7 0 0 .1-.1.2 0 .1 0 0 .1 0 .1 0 .2.2.4.4.4.1 0 .2 0 .2.1l.8.8c.1.1.1.2 0 .3-.2.1-.5.3-.7.5-.1.1-.1.1-.2 0-.3-.3-.7-.5-.8-.9-.2-.3-.3-.5-.7-.6zm8.2 11.3.5-.5c.1-.1.2-.2.3-.1l.9.9v.1c0 .1-.1 0-.2 0l-.1-.1c-.1 0-.1-.1-.2 0s0 .1 0 .2c.3.3 0 .4-.2.6-.2.2-.3.3-.6.1 0-.1-.1-.1-.2 0s0 .1 0 .2c0 0 0 .1.1.1 0 .1.1.1 0 .2s-.2 0-.2-.1l-.8-.8c-.1-.1-.1-.2 0-.4.4-.1.6-.2.7-.4zm.2-9.2.7.7c.1.1.1.1 0 .2s-.2.1-.2 0c-.1 0-.1-.1-.2-.1-.7-.4-1.5-.9-2.2-1.3-.2-.1-.3-.1-.5-.1-.2.1-.5.2-.7.3-.1 0-.1.1-.2 0 0-.1 0-.1.1-.2.3-.4.6-.7 1.2-.5.1.1.3.1.4.1.7.2 1.3.4 1.6.9zm8.6 9.1c-.2-.2-.4-.4-.7-.6-.2-.2-.2-.3 0-.5.3-.3.8-.5 1-.9.1-.1.2-.1.3 0l.5.5c.1.1.1.2 0 .2s-.2.1-.2.3c0 .2-.4.6-.6.7-.2-.1-.3.1-.3.3zm-5.6 5.5c-.2 0-.4.1-.4.3 0 .2-.4.7-.5.6-.3 0-.4.1-.4.4l-.6-.6c-.1-.1-.3-.2-.2-.3.1-.1.2-.2.4-.1.2 0 .4-.1.4-.3-.1-.3.1-.5.3-.6.1-.1.2-.1.4 0s.4.3.6.6zM21.8 18l-.4-.4c-.6-.6-.6-.4 0-1.1.2-.2.4-.2.5 0 .8.6 1.1 1.6 1.5 2.5 0 .1 0 .2-.1.2s-.1.1-.2-.1c0-.2-.2-.4-.4-.3-.3.1-.3-.1-.4-.2-.1-.2-.3-.4-.5-.6zm3.3 7.6-.4-.4c-.1-.1-.1-.2 0-.3.1-.1.2-.1.3 0l.2.2c1 1 2 2 3 3.1.1.1.2.1.1.3-.1.1-.2 0-.3-.1-1.1-1-1.9-2-2.9-2.8zm-8.6-4.1c.4-.4.4-.4.7 0l1.1 1.1c.1.1.2.2.2.4s.2.3.4.3.1.1.1.1c-.1.2-.2.1-.3.1-.8-.3-1.6-.5-2.2-1.2-.3-.4-.4-.5 0-.8zm14.6 2.6-.4.4c-.3.3-.3.3-.7 0-.1-.1-.2-.3 0-.4l.1-.1c.2-.3.5-.6.9-.8.2-.1.4 0 .6.2.1.2 0 .3-.1.4-.1.1-.3.2-.4.3zm-19-12.8 1.6-1.6c.3-.3.4.1.5.2.2.1.1.3 0 .4-.2.1-.4.3-.5.4-.2.2-.4.5-.7.7-.1.1-.2.2-.3.1-.2-.2-.4-.2-.6-.2zm11.5 19.1c.1-.2.4-.3.6-.5.1-.1.1-.1.2 0l.2.2c.2.2.2.3 0 .4-.3.3-.6.5-.8.8-.3.3-.3.3-.6 0-.1-.1-.1-.3 0-.4.1-.2.3-.4.4-.5zm-6.4-13.1-.3-.3c-.1-.1-.3-.2-.3-.4.1-.2.3-.2.5-.2s.4 0 .5.2c0 .1.1.2.2.2.3.1.3.4.3.6 0 .2-.1.3-.2.4-.1.1-.2-.1-.3-.1-.1-.1-.2-.3-.4-.4zm-.9.4c-.1-.2-.1-.5 0-.8.1-.2.2-.2.3-.1l.8.8c.2.2.1.4 0 .6-.1.1-.5.1-.6-.1-.2-.1-.3-.2-.5-.4zm-6.8-2.5c-.1.2-.2.3-.2.5-.1.2-.2.3 0 .5.1.1 0 .2 0 .2-.3.5-.3.5.1.9v.1l-.9-.9s-.1-.1 0-.2c.2-.2.2-.5.4-.7.1-.1.3-.3.6-.4zm6.4 4.8c.1.2.3.4.4.6.1.1.1.2-.1.3-.4.3-.4.3-.7-.1 0-.1-.1-.1-.1-.2-.2-.4-.1-.5.2-.7.2.1.2 0 .3.1zm4.1-4.4.1-.1c.1.2.4.1.4.2.1.1.2.2.3.2.1 0 .3.1.2.2-.1.4-.4.5-.8.3-.1 0-.1-.1-.2-.1-.3-.3-.3-.4 0-.7zm5.5 10.6.8.8c.1.1.1.1 0 .2 0 0-.1.1-.1 0-.2-.2-.4-.2-.5-.4-.1-.1-.2-.4-.3-.4-.3-.2-.6-.4-.7-.8 0-.1-.2-.1-.1-.2s.2 0 .3.1c.2.2.4.5.6.7zm-3.8-4.6.1-.1.8-.8c.1-.1.2-.1.3 0 .1.1.1.2 0 .2-.2.1-.3.3-.5.4-.6.3-1.1.8-1.4 1.4 0 .1-.1.2-.2.2s-.1-.1-.1-.1c-.1-.1 0-.2.1-.3l.9-.9zm2.2 3-.2-.2c-.1-.1-.1-.1 0-.2.2-.4.4-.4.7-.1l.2.2c.2.1.2.3 0 .4-.3.2-.3.2-.7-.1zm-4.8-9.7c.3-.1.5.1.7.2.2.1.2.3-.1.6-.1.2-.4.1-.7-.2-.2-.2.2-.3.1-.6zm4.2 3.3c-.2-.7-.7-1.2-1.1-1.7-.1-.1-.2-.2 0-.3.1-.1.2 0 .3.1.5.4.9.9.9 1.7-.2 0-.1.1-.1.2zm-12.6-3.7-.4.4c-.1.1-.2.1-.3 0-.1-.1-.1-.2 0-.3l.8-.8c.1-.1.2-.1.3 0 .1.1.1.2 0 .3-.2.1-.3.3-.4.4zm4.2 5.3c-.1-.1-.2-.3-.1-.3.2-.1.3-.3.5-.3s.2.2.3.3c0 .1.1.1.1.2.1.1 0 .2-.1.3-.3.3-.4.3-.6-.1 0-.1 0-.1-.1-.1zm13.7 9.4c-.1-.2-.2-.3-.3-.6 0-.1.1-.3.3-.2.2.1.3.1.5.2s.2.3.1.5c-.2.3-.4.3-.6.1zM11.1 12.3l.2-.2c.1-.1.2-.2.3-.1.1.1.3.2.2.4-.1.2-.3.4-.5.5-.2.1-.3-.1-.4-.2-.1-.1 0-.2.1-.3 0 0 0-.1.1-.1zm8.2 10.9c1.2-1.3 2.4-2.6 3.8-3.8l-3.8 3.8zm4.3.1c.2.2.3.3 0 .5-.2.2-.3.2-.5 0s-.2-.3 0-.5c.2-.3.3-.3.5 0zm-14-7.4c2.1-2.1 4.1-4.2 6.2-6.2l-6.2 6.2zm8.3-4.7c.4.1 2 1.8 2 2-.7-.7-1.4-1.3-2-2zm6.8 6.4c-1.9-1.9-3.8-3.8-5.8-5.7 2 1.9 3.9 3.8 5.8 5.7zM22 29.4c-.1-.2-.3-.3-.1-.5.1-.2.3-.1.5.1.1.1.2.2.2.3.1.1.1.2 0 .3-.1.1-.2.1-.3 0-.1-.1-.2-.1-.3-.2zm2.6-5.4c.7-.8 1.5-1.6 2.3-2.3-.7.8-1.5 1.5-2.3 2.3zm-3.4-1.1c-.6.3-1.1.6-1.7.8v-.1c.4-.1.7-.4.9-.7.1-.1.2-.1.3-.1.1.2.3.2.5.1zm-.2 6.2c.1 0 .2.1.3.1.3-.1.4 0 .5.2l.1.1c.1.1.2.1.1.3-.1.1-.2.1-.3 0-.2-.2-.4-.5-.7-.7zm.7-2.2 2.1-2.1-2.1 2.1zm-10.5-9c0-.1 0-.1 0 0 .7.6 1.4 1.3 2.1 2-.7-.7-1.4-1.4-2.1-2zm5.9-7.6.6.6s.1.1 0 .1h-.1l-1.1-1.1s-.1-.1 0-.1c.1-.1.1 0 .1 0l.5.5zm-5.3 6.5v-.1c.3-.4.7-.8 1.1-1.2h.1v.1c-.4.4-.7.8-1.2 1.2zm5.5 2.9c.1.1.1.2 0 .3-.1.1-.2.1-.3 0-.1-.1-.1-.2 0-.3.1-.1.2-.1.3 0z"/><path d="M24.3 29.1h.1c.3.1.6 0 .7-.3.1-.2-.1-.3-.1-.5h-.1c-.1.1-.2-.1-.3 0-.1.2-.4.4-.3.8z"/><path d="M25.1 28.3c0-.1-.1-.2-.2-.3l-1.1-1.1c-.2-.2-.4-.2-.6 0l-.4.4c-.2.2-.2.3 0 .5L24 29c.1.1.2.1.3.1V29c-.3-.3-.6-.6-1-.9-.6-.6-.6-.4.1-1.2.1-.1.3-.1.4 0 .4.5.8.9 1.3 1.4zM27.5 22.8c.6.4 1 1 1.5 1.5-.3 0-.8.4-.7.9-.5-.6-1.1-1-1.5-1.6-.1.1 0 .2.1.3L28 25c.3.3.8.2 1 0 .2-.2.3-.7 0-.9l-1.2-1.2c-.1-.1-.2-.1-.3-.1zM22.2 17.2 22 17c-.1-.1-.2-.3-.4-.1-.2.1-.2.3-.1.5.1.3.4.4.6.6.2.1.3 0 .4-.1.1-.1 0-.2-.1-.3 0-.2-.1-.3-.2-.4zm-.1.1.2.2c.1.1.1.1 0 .2s-.2.1-.3 0l-.5-.5c-.1-.1-.1-.2 0-.2.1-.1.2-.1.2 0 .3.1.4.2.4.3zM16.9 22.3c.1.1.2.2.2.3.1.1.2.3.4.2.2-.1.3-.3.1-.5-.1-.3-.3-.5-.6-.6-.2-.1-.3 0-.4.1-.1.2 0 .3.1.4.1 0 .2.1.2.1zm.2 0-.3-.3c-.1-.1-.1-.1 0-.2s.1-.1.2 0l.6.6c.1.1.1.2 0 .2-.1.1-.1.1-.2 0l-.3-.3z"/><path d="M23.3 27.4c-.1.1-.2.2 0 .4s.5.3.6.1c.1-.2.1-.4-.2-.6-.1-.2-.2-.1-.4.1z"/><path fill="none" d="M0 0h45v45H0z"/><path fill="none" d="M4.5 27h18v13.5h-18z"/><path fill="#010101" d="M9.1 34v1c-1 1.4-2 3.5-2.3 5.4H5.4c.3-1.9 1.4-4.1 2.3-5.3h-3V34h4.4zM14.2 35.2h-2.6c0 .3-.2 1-.2 1.2.2-.2.6-.3 1.2-.3 1.3 0 2 .9 2 2.1 0 1.2-.7 2.4-2.4 2.4-1.3 0-2.2-.6-2.3-1.8h1.4c.1.4.4.7 1 .7.7 0 1-.5 1-1.2s-.2-1.1-1-1.1c-.6 0-.8.3-1 .6l-1.3-.2c.2-.8.4-2.7.5-3.6h3.9l-.2 1.2z"/><path fill="none" d="M27 4.5h13.5V18H27z"/><path fill="#010101" d="M32.8 11.6V6.8c-.3.1-.8.2-1.2.3V6c.6-.1 1.2-.5 1.6-.9h1v6.4h-1.4zM35.5 11.6c0-1.2.5-2.1 1.9-3.1.9-.7 1.2-.9 1.2-1.4 0-.6-.3-.9-.8-.9-.6 0-.9.4-.9.9h-1.3c.1-1.1.8-2 2.3-2 1.6 0 2.2 1 2.2 1.9 0 .9-.4 1.4-1.6 2.2-.8.6-1.1.9-1.2 1.2h3l-.2 1.2h-4.6z"/><path fill="none" d="M27 27h13.5v13.5H27z"/><path fill="#010101" d="M30.4 40.5v-1.2H28v-1l2.2-3.1h1.3v3.2h.6l-.1.9h-.5v1.2h-1.1zm0-3.1v-1.2c-.2.4-.9 1.5-1.4 2.2h1.4v-1zM32.5 40.9l2.2-6.1h1l-2.2 6.1h-1zM36.3 40.5c0-1 .4-1.8 1.6-2.6.8-.5 1-.7 1-1.2s-.2-.7-.7-.7c-.5 0-.7.3-.8.8h-1.1c.1-.9.7-1.7 1.9-1.7 1.4 0 1.8.8 1.8 1.6s-.3 1.2-1.3 1.8c-.7.5-.9.8-1 1h2.5l-.1 1h-3.8z"/><path fill="none" d="M13.74 5.241 16.92 2.06l19.092 19.092-3.182 3.182z"/><path fill="#010101" d="m20.3 5.7 1.1 1.1c.5.5.6 1.2.1 1.6-.5.5-1.2.4-1.7-.1l-.4-.4-.8.8-.7-.7 2.4-2.3zm-.4 1.7.3.3c.2.2.4.3.6.1.2-.3.2-.5 0-.7l-.3-.3-.6.6zM20.5 9.8c.2 0 1.5-.1 1.7-.1l-.8-.8.5-.5 1.5 1.5-.4.5c-.2 0-1.5.1-1.7.1l.9.9-.5.4-1.5-1.5.3-.5zM25.9 11.3l-2.4 2.4-.7-.7 2.4-2.4.7.7zM24.6 14.7l1.6-3.2.7.7-.7 1.3c-.2.4-.4.7-.6 1 .3-.2.6-.4 1-.6l1.3-.7.7.7-3.2 1.5-.8-.7zM28.8 14.2l1.8 1.8-.5.5-1.1-1.1-.5.5 1 1-.5.5-1-1-.9.9-.7-.7 2.4-2.4zM28.4 18.5c.5-.5 1-.6 1.8-.5.6.1.7.1.9-.1.2-.2.2-.3 0-.5s-.3-.1-.6.1L30 17c.4-.3 1-.5 1.7.1.6.6.5 1.2.1 1.6-.3.3-.6.3-1.3.2-.4-.1-.6-.1-.7 0l1 1-.6.4-1.8-1.8z"/></svg>