<svg version="1.2" baseProfile="tiny" xmlns="http://www.w3.org/2000/svg" viewBox="0 0 45 45" overflow="visible" xml:space="preserve"><path fill="#9ACA3C" d="M-139.5-49.5h576v144h-576z"/><path fill="#FFF" d="M7.8 12.7 13 8l15.3 15.2-5.1 5.5L7.6 13.1M29.2 24.9l.3 1.5-3.2 3.2-1.6.2-1.5-1 5.1-5.5z"/><path d="m10.7 11.2-.7-.7c-.2-.2-.4-.2-.6.1-.2.3-.4.6-.7.7-.2.1-.2.3 0 .5.1.2.3.4.5.6 0 0 .1.1.1.2s-.1 0-.2 0c-.2-.1-.5-.3-.7-.4-.1-.1-.3-.1-.4 0-.3.3-.3.3 0 .8.1.1.1.2.2.3.1.2.2.3 0 .5-.1.1 0 .2.1.3l.9.9 1.4 1.4 1.8 1.8 2.4 2.4 7.7 7.7c.3.3.7.4 1.1.2.2-.1.3-.2.3-.4s0-.5.4-.4l.1-.1c.1 0 .1-.1.2 0s0 .1 0 .2l-.7.7-.2.2c-.2.1-.2.3 0 .4l.8.8c.1.1.2.2.4.1h1c.3 0 .5-.1.7-.3l2.9-2.9c.2-.2.3-.4.3-.6V26c.3-1-.4-1.5-1-2-.1-.1-.2 0-.3.1l-.8.8-.1.1c-.1.1-.1.1-.2 0s0-.1 0-.2c.1-.1.2-.2.1-.3-.1-.1.2-.2.3-.3.5-.1.4-.2.6-.6.1-.4 0-.6-.3-.8l-6.6-6.6-2.3-2.3c-.8-.8-1.7-1.6-2.4-2.5-.5-.6-1.1-1.1-1.7-1.6-.3-.4-.7-.7-1-1-.1-.1-.2-.2-.3-.1-.2 0-.3-.2-.4-.3-.3-.3-.5-.3-.7.1 0 .1-.1.1-.2.2-.5.5-1 1.1-1.6 1.6-.1.1-.3.2-.4.4-.1.1-.1.2 0 .3 0-.1.1 0 .2.2 0-.1 0 0 0 0zm10.2 15.5-.4-.4c-.4-.4-.9-.8-1.3-1.3-.1-.1-.2-.1 0-.2s.4-.3.5-.5c0-.1.1-.2.2-.1.1.2.5.2.6.4 0 0 .1.1.2.1s.3.1.4.1c.2.1.4.3.7.4.4.3.8.4 1.1.8.1.2.4.2.6.4h.1c.2 0 .3.2.4.3v.1h-.1c-.1 0-.2-.2-.3-.1-.1.1.1.2.1.3 0 .1 0 .1.1.2.2.3.1.4-.1.6l-.5.5c-.2.2-.3.2-.6 0-.6-.6-1.2-1.1-1.7-1.6zm5.8-5.2c-.1.1-.2 0-.2.1-.1.2-.3.4-.5.5-.1.1-.1.1 0 .2 0 .1.1.1.2.1l.6-.6c.1-.1.1-.1.2 0l1.1 1.1c.2.2.2.3 0 .5l-.6.6c-.1.1-.2.2-.4.1-.1-.1-.3-.1-.4-.2 0 0-.1-.1-.1 0v.2c.1.1.1.1 0 .2s-.1 0-.2 0c-.1-.1-.2-.2-.2-.3 0-.3-.3-.5-.4-.8l-.1-.1c-.1-.1-.2-.2-.3-.4-.3-.4-.5-.9-.8-1.3-.1-.1-.1-.2-.1-.3 0-.3-.3-.5-.4-.8-.2-.3-.3-.3-.1-.4.2-.1.3-.2.4-.3.1-.2.2-.1.3 0l1.5 1.5c.2.1.4.3.5.4zm-4.4.1 1.2-1.2c.2-.2.2-.1.3 0l1.5 2.4c.2.3.5.5.4.9h.1l.2.3v.1l-.6.6c0-.2-.1-.4-.2-.4-.2 0-.4-.2-.5-.3-.2-.2-.5-.4-.6-.8 0-.1-.1-.2-.2-.2s-.2-.1-.3-.1l-.8-.8-.1-.1c0-.3-.2-.3-.4-.4zm-.9.1-1.9 1.9c-.2.2-.3.2-.4 0-.2-.2-.4-.4-.7-.6-.1-.1-.1-.2 0-.3.2-.1.3-.3.5-.5.5-.5.9-1.1 1.6-1.5.1-.1.2-.1.2-.3 0-.1.1-.2.1-.2L22 19c0 .1 0 0 .1 0 .2 0 .3-.2.4-.4 0-.2.1-.2.3 0l.6.6c.2.2.2.3 0 .5-.8.7-1.4 1.3-2 2zm-.1.9c0 .2.1.4.3.4.1 0 .2.1.3.2.3.3.7.6.9 1.1 0 .2.3.1.4.2.3.3.7.5.9 1 0 .1.1.1.1.2.4.1.1.2 0 .4l-.2.2c-.2.2-.3.2-.3 0 .1-.3-.3.1-.2-.1 0-.1-.1-.1-.1 0-.1.1-.2 0-.3 0l-.9-.6c-.7-.4-1.4-.9-2.1-1.3-.1-.3-.2-.3-.1-.5.4-.4.8-.8 1.3-1.2zm4 2.2-.6.6c-.1.1-.2.2-.2 0 0-.1-.1-.2-.3-.2-.1 0-.2-.1-.3-.2-.2-.2-.4-.3-.5-.6-.2-.3-.4-.5-.7-.7-.3-.2-.5-.5-.7-.7-.1-.1-.1-.1-.1-.2 0-.3-.2-.4-.4-.4l.8-.8c0 .2.1.4.2.4.2 0 .3.1.4.3l.5.5c.1.1.2.2.2.3 0 .2.1.3.3.3h.2l.8.8v.1c-.1.4.1.5.4.5zM11.1 11.3l1.1-1.1c.1-.1.2-.1.3 0l.6.6c.1.1.1.1 0 .2-.2.2-.4.4-.7.6-.4.2-.7.5-.9.9-.2.3-.4.5-.6.8-.1.1-.2.2-.4 0l-.5-.5c-.1-.1-.1-.2 0-.4.4-.3.7-.7 1.1-1.1zm3.2 8.3c.3 0 .5-.1.5-.3 0-.2-.1-.3-.3-.3-.3-.1-.4.2-.4.4l-1-1c-.4-.4-.4-.3 0-.7.1-.2.2-.1.4 0 .5.6 1.1 1.1 1.6 1.6.2.2.5.4.7.7.3.4.3.4-.1.7-.1.1-.2.1-.3 0l-1.1-1.1zM13.1 8.2c.3.3.3.3 0 .6-.2.2-.5.4-.7.7-.1.2-.3.2-.4 0-.1-.1-.1-.2-.2-.1s0 .2.1.2c.1.1.2.2 0 .3l-1 1c-.1.1-.1.1-.2.1-.2-.1-.3-.2-.4-.4v-.2s.1-.1.2 0l.1.1c.1 0 .1.1.2 0s0-.1 0-.2c-.2-.2-.1-.3 0-.4l1.6-1.6c.1-.1.2-.2.4 0 0 .1.1.1.2.1.1-.1 0-.1 0-.2s-.2-.1-.1-.2l.2.2zm4.6 10.9c.3.4.7.8 1.1 1.1.1.1.2.1.4 0 .2-.3.5-.5.8-.8.1-.1.1-.2 0-.4-.3-.3-.6-.7-.9-1 0 0-.1 0-.1-.1s.1 0 .2 0l.1.1 1.4 1.4c.1.1.2.1.2 0 .2-.3.5-.5.7-.7.1-.1.1-.1.2-.1.1.1 0 .1 0 .2L19.6 21c-.1.1-.1.1-.2 0h-.5c.3-.3.3-.3 0-.6l-1-1c-.1-.1-.2-.1-.2-.3zm1.5-2.8c-.2.2-.3.4-.5.5-.5.5-.3.4-.8 0-.1-.1-.1-.2 0-.4l1.2-1.2c.5-.5.3-.5.9 0 .1.1.1.2 0 .3-.3.3-.6.5-.8.8zm-9.4-1.2c.2 0 .2-.1.3-.2.2-.2.2-.3 0-.5l-.4-.4c-.1-.1-.3-.2-.4 0l-.3.3c.2-.2.4-.4.6-.7.1-.1.2 0 .2 0l1.4 1.4c.1.1.1.1 0 .2l-.4.4c-.1.1-.1.1 0 .2.2.3.4.4.7.1l.2-.2c.1-.1.2-.2.3 0 .1.1.1.2 0 .3l-.3.3c-.1.1-.2.1-.3 0-.6-.2-1.1-.7-1.6-1.2zM14 9.4c-.3.4-.3.4.1.8l.1.1c.3.3.3.3.6 0 .1-.1.2-.2.3 0l1.3 1.3c.1.1.1.1 0 .2-.2.2-.3.4-.5.5-.1.1-.2 0-.3-.1-.1-.1 0-.2 0-.3l.2-.2c.3-.3.3-.4 0-.6-.1-.1-.2-.1-.3 0l-.4.4c-.1.1-.2.1-.3 0l-1.4-1.4c-.1-.1-.1-.2 0-.3.2-.1.4-.3.6-.4zm-2.1 2.7c.1-.1.2-.2.4-.3.3-.2.6-.3.9-.2.1 0 .3.1.3.2s-.1.2-.2.3c-.7.3-1.1.7-1.4 1.4 0 .1-.2.2-.3.2-.1 0-.2-.1-.2-.2-.1-.2-.1-.5 0-.7.1-.3.3-.5.5-.7zm-3.4-.6c.1 0 .2.1.2.1.1 0 .1.1.2.1.1-.1 0-.1-.1-.2-.1-.2-.1-.3 0-.4l.3-.3c.1-.1.2-.1.3 0 .1.1.1.2.2.1s0-.1-.1-.2c0 0-.1-.1 0-.1h.1c.2.2.4.4.7.6.1.1.1.2 0 .3l-.6.6c-.2.2-.3.3-.5 0l-.1-.1c-.2 0-.3-.3-.6-.5zM28 24.6l.3-.3c.1-.1.2-.1.3 0l.6.6c.1.1.1.2 0 .3l-.4.4c-.5.5-.3.5-.8 0s-.5-.5 0-1zm-14.6-11c.2.2.3.1.4-.1.1-.1.2-.2.3 0l.6.6c.1.1.1.2 0 .3l-.7.7c-.1.1-.2.1-.3 0l-.5-.5c-.3-.2.1-.4-.1-.6.3-.1.4-.2.3-.4zm11.9 14.7c.4.4.4.4 0 .9l-.1.1c-.4.4-.4.4-.8 0-.6-.6-.6-.4 0-1 .5-.6.3-.6.9 0zm-6.8-10.6s0 .1 0 0c-.2-.2-.4-.4-.7-.6-.2-.2-.3-.2-.4 0l-1.6 1.6c-.5.4-.3.5-.8 0 0 0-.1-.1 0-.2s.1-.1.2 0c.2.2.3.1.4-.1l1.7-1.7c.1-.1.1-.2.3-.1.2.5.5.8.9 1.1zm.6-3.4c-.3 0-.4.1-.5.3 0 .2.1.3.2.4 0 0 .1 0 .1.1l-.1.1c-.1 0-.1 0-.2-.1-.4-.4-.8-.9-1.2-1.3-.4-.4-.4-.4.1-.7.1-.1.2-.1.3 0 .5.4.9.8 1.3 1.2zM16.8 17l-.7.7c-.1.1-.1.2-.3.1-.1-.1 0-.2 0-.2.2-.2.1-.3-.1-.4-.2-.1-.1-.2 0-.3l.7-.7c.1-.1.2-.1.2 0 .1.2.3.3.5.1.1-.1.2-.1.2 0 .1.1 0 .1-.1.2 0 .1-.2.3-.4.5zm.9 3.3c.1-.1.2-.1.3 0 .1.2.3.4.5.5.2.1.2.2 0 .3l-.6.6c-.1.1-.2.2-.3 0-.2-.2-.3-.4-.6-.6-.1-.1-.1-.2 0-.3.3-.1.5-.3.7-.5zm3.3-1.8c-.1.1-.2.2-.2.3-.1.1-.2.2-.3 0-.1-.2-.3-.4-.5-.5-.2-.1-.1-.2 0-.3.2-.2.4-.3.6-.6.1-.1.2-.2.3 0 .1.2.3.4.5.5.2.1.1.2 0 .3-.1.1-.2.2-.4.3zm-6.7-1.4c.2-.1.4-.3.5-.5.1-.1.2-.1.3 0 .2.2.3.4.6.6.1.1.1.2 0 .3-.2.1-.4.3-.5.5-.1.1-.2.2-.3 0-.2-.2-.3-.4-.6-.6-.1-.1-.2-.2 0-.3zm2.5-2.5c.2-.2.3-.2.4 0 .1.2.3.4.5.5.2.1.2.2 0 .4-.2.1-.4.3-.5.5-.1.2-.3.2-.4 0-.1-.2-.3-.4-.5-.5-.2-.1-.2-.2 0-.3.2-.3.4-.4.5-.6zm1.5 4.9c-.2-.2-.2-.3 0-.4.2-.1.4-.3.5-.5.1-.2.2-.2.4 0 .1.2.3.4.5.5.2.1.2.2 0 .4-.2.1-.4.3-.5.5-.1.2-.2.2-.4 0s-.3-.4-.5-.5zm.7 5.1s-.1 0 0 0c-1-.9-2-1.9-3-2.9.3.1.5.3.8.5.6.4 1.1.7 1.7 1.1.2.2.2.3 0 .4-.2.1-.2.3 0 .4l.5.5zm-3.5-8.8.4-.4c.1-.1.1-.1.2 0s.3.2.4.3c.1.1.1.2 0 .3l-.7.7c-.1.1-.2.1-.3 0-.5-.4-.5-.4 0-.9-.1 0 0 0 0 0zm3.4-1.8c-.5-.6-1.1-1.1-1.7-1.7l-.2-.2V12h.1l.1.1 3.4 3.4.1.1s.1.1 0 .2-.1 0-.2 0-.1-.1-.1-.1c-.4-.6-.9-1.1-1.5-1.7zm-5.3 5.3c-.5-.6-1.1-1.1-1.6-1.7-.1-.1-.2-.2-.1-.3.1-.1.2.1.3.1l3.4 3.4.1.1v.1h-.1c-.1 0-.1-.1-.2-.1-.7-.4-1.3-1-1.8-1.6zm9.8.5c.1.1.2.2.1.2-.2.1-.2.4-.4.5-.3.1-.4.5-.7.6-.1.4-.5.5-.7.8-.2.3-.5.5-.7.7-.2.2-.3.4-.5.6-.3.2-.4.5-.7.6-.2.1-.2.1-.3-.1.2 0 .3-.1.4-.2l3.4-3.4c.1 0 .1-.1.1-.3zm-10.9-7.1c.2-.2.5-.4.8-.5.2-.1.3 0 .3.2.1.3-.4.6-.6.6-.3-.1-.5.2-.4.4 0 .1 0 .3-.1.3s-.2.2-.4 0c-.1-.1-.1-.2 0-.4.1-.1.2-.4.4-.6zm-3.7.4-.2.2c-.1.1-.2.2-.3 0-.1-.2-.2-.3-.3-.5 0-.1-.1-.1 0-.2.2-.3.4-.4.7-.2 0 0 .1 0 .1.1.5.3.4.2 0 .6zm8.1 8.3-.5-.5c-.2-.2-.2-.3 0-.5l.9-.9c.2-.2.3-.2.5 0l.9.9c.1.1.1.1.1.2s0 .1-.1.2c-.1 0-.1 0-.1-.1-.2-.3-.5-.6-.8-.9-.4-.4-.6-.3-.9 0l-.4.4c-.1.2-.2.3 0 .5.2.3.3.5.4.7.3.1.4.3.6.4.1 0 .2.1.1.2s-.1 0-.2-.1c-.2-.1-.3-.3-.5-.5zm6.8-2.9c-.2 0-.3.2-.4.3-.1.1-.2.1-.3 0l-.6-.9c-.1-.2 0-.3.1-.4.1-.1.2 0 .3.1l.9.9zM15 10.1l-1.4-1.4c-.1-.1-.1-.1-.1-.2.1-.1.1 0 .2.1l.1.1 2.6 2.6.1.1c0 .1.1.1 0 .2s-.1 0-.2 0-.1-.1-.1-.1c-.3-.5-.7-1-1.2-1.4zm-5.3 5.4-1.4-1.4c0-.1-.1-.1 0-.2s.2 0 .2.1l2.7 2.7c.1.1.2.1.1.2s-.2 0-.2-.1c-.5-.5-1-.9-1.4-1.3zM26 26.4l.9-.9c.1-.1.1-.2.2-.1s0 .2-.1.2c-.5.6-1.2 1.1-1.7 1.7-.1.1-.2.1-.2 0-.1-.1 0-.2.1-.2.3-.2.5-.5.8-.7zm-10.3-5.5c1.6-1.7 3.3-3.3 4.9-5-1.6 1.7-3.3 3.4-4.9 5zm-3-5.4c.2.3.5.5.7.8.1.1.1.1 0 .2s-.1 0-.2 0l-1.4-1.4c-.1-.1-.1-.1 0-.2s.2 0 .2 0c.3.2.5.4.7.6zm4.1 3.9c0 .1 0 .1 0 0-.2-.1-.4-.3-.6-.5-.2-.2-.3-.1-.4.1-.1.1-.2.2 0 .4s.4.4.5.6c-.2-.2-.5-.4-.7-.7-.1-.1 0-.2 0-.2l1.9-1.9c.1-.1.2-.1.3 0l.6.6c-.2-.2-.4-.4-.6-.5-.1-.1-.1-.1-.2-.1-.3.2-.4.4-.1.7l.5.5-.1.1-.6-.6c-.2-.2-.3-.2-.4 0-.2.2-.3.3 0 .5l.6.6c-.2-.2-.4-.3-.6-.5-.2-.2-.3-.1-.5.1-.2.1-.2.3 0 .4.1 0 .3.2.4.4zm-.6-4.5-.7.7c-.1.1-.1.1-.2 0s0-.1 0-.2l1.3-1.3c.1-.1.1-.1.2 0s0 .2-.1.2c-.1.2-.3.4-.5.6zm.3-1.4-.7-.7c-.1-.1-.2-.1-.1-.2s.2 0 .2.1l1.3 1.3c.1.1.1.1.1.2-.1.1-.2 0-.2-.1l-.6-.6zm9.4 14.4-.3-.3c-.1-.1-.1-.2 0-.3.1-.1.2-.2.3 0l.4.4c.1.1.2.2 0 .4s-.3.1-.4 0c.1-.1 0-.1 0-.2zM15.3 13l-.6-.6c-.1-.1-.2-.1-.1-.3.1-.1.2 0 .3.1.5.4.8.9 1.3 1.3.1.1.1.1.1.2-.1.1-.2 0-.2-.1-.4-.2-.6-.4-.8-.6zm6.9 5.1c-.1-.1-.1-.2-.2-.3-.3-.5-.7-1.1-1-1.6 0-.1-.1-.2 0-.2.1-.1.1.1.2.2.1.2.3.5.4.7.2.4.5.8.7 1.2 0 .1.1.1 0 .2 0-.1 0-.1-.1-.2zm-9.5-.8-.2.2c-.1.1-.2.1-.3 0-.1-.1-.3-.2-.1-.4.1-.1.2-.2.4-.3.2-.1.3 0 .5.1.1.1 0 .2-.1.3l-.2.1zm4.4-4.4-.1.1c-.2.2-.4.2-.5-.1-.1-.2.3-.7.5-.7.3.2.4.4.1.7zm-1.4 8.5-.1-.1c.1-.1.1 0 .2 0 .4.3.8.5 1.3.8.2.1.5.3.7.4.1 0 .1.1.1.1 0 .1-.1 0-.2 0-.1-.1-.2-.1-.4-.2-.5-.3-1-.7-1.6-1zm-2.5-4.7.7.7c.1.1.1.1 0 .2s-.1 0-.1 0c-.4-.5-.9-.8-1.4-1.3-.1-.1-.1-.1-.1-.2.1-.1.2 0 .2.1.3.1.5.3.7.5zm11.9 8.7.7-.7c.1-.1.1-.1.2 0s0 .1-.1.2l-1.5 1.5c-.1.1-.1.1-.2 0s0-.1.1-.2c.3-.3.6-.5.8-.8zm1.3 3.5c0-.1.1-.2.1-.2l1.9-1.9.1-.1s.1-.1.1 0c.1 0 0 .1 0 .1l-.1.1-1.9 1.9c0 .1-.1.2-.2.1zm.9-1-.7.7c-.1 0-.1.1-.2 0s0-.1 0-.2l1.4-1.4c.1-.1.1-.1.2 0s0 .1-.1.2c-.2.3-.4.5-.6.7zM14.7 15l-.4.4c-.1.1-.1.1-.2 0s-.1-.1 0-.2l.8-.8c.1-.1.1-.1.2 0s0 .2 0 .2l-.4.4zm12 11.9.3-.3c.1-.1.2-.1.3 0 .1.1.1.2 0 .3l-.5.5c-.1.1-.2.1-.3 0-.1-.1-.1-.2 0-.3 0-.1.1-.2.2-.2zm-6.8-11.2c.1 0 .1-.3.3-.2.3.1.3.3.1.5l-.2.2c-.1.1-.2.1-.3 0-.2-.2-.2-.2.1-.5zM17.3 22c-.5-.2-.9-.5-1.3-.8-.1-.1-.3-.1-.1-.3.1-.1.2-.2.4-.1.3.5.6.8 1 1.2zm9.5 3.3c0 .1-.1.2-.1.2l-1.6 1.6c-.1.1-.2.2-.2.4-.1-.2 0-.3.1-.4.5-.6 1.1-1.1 1.6-1.6.1-.2.1-.2.2-.2zm-8-8.5.4-.4c.1-.1.1-.1.2 0s0 .2 0 .2l-.7.7c-.1.1-.1.1-.2 0s0-.2 0-.2c0-.1.2-.2.3-.3zm7.8 10-.3.3c-.1.1-.2.1-.2 0-.1-.1-.1-.2 0-.2l.5-.5c.1-.1.2-.1.2 0 .1.1.1.2 0 .2l-.2.2zm-5.2-10.6c.4.3.7.7 1 1 .1.1.1.2 0 .3-.1.1-.2.1-.2 0-.3-.4-.6-.9-.8-1.3zm4 9.5-.8.8-.1.1c-.1-.1 0-.1.1-.2l1.2-1.2.3-.3s.1-.1.1 0 0 .1-.1.1c-.2.2-.4.5-.7.7zM20 17.4l-.3.3c-.1 0-.1.1-.2.1-.1-.1-.1-.2 0-.2l.7-.7c.1-.1.2-.1.2 0 .1.1 0 .1 0 .2-.2.1-.3.2-.4.3zm-2.9 2.9-.3.3c-.1.1-.1.1-.2 0s-.1-.2 0-.2c.2-.2.4-.5.7-.7.1-.1.2-.1.2 0 .1.1 0 .1 0 .2l-.4.4zm-7.4-7.9 2.4-2.4c-.7.9-1.5 1.6-2.4 2.4zm16.9 12.7c-.1.3-1.6 1.7-1.7 1.7l1.7-1.7zm-.2-.1v.1l-1.5 1.5-.1.1c-.1-.1 0-.1.1-.2l1.4-1.4c-.1-.1 0-.1.1-.1zM14.5 13.6l-.2-.2c-.1-.1-.1-.1 0-.2s.2-.1.2 0l.5.5c.1.1.1.1 0 .2s-.2.1-.2 0c-.2-.1-.2-.2-.3-.3zm6.8 3.7.5.5c.1.1.1.1 0 .2s-.1 0-.2 0l-.1-.1c-.2-.3-.5-.6-.8-.8 0 0-.2 0-.1-.2.1-.1.2 0 .2 0 .2 0 .3.2.5.4zm-1.8-1c.3.3.3.3 0 .6l-.7.7c-.1.1-.1.2-.2.1s0-.1.1-.2l.8-.8c.1-.2.2-.3 0-.4zm-5.1-6.5.1.1c.1.1.1.2 0 .3-.1.1-.2.1-.3 0l-.3-.3c-.1-.1-.1-.2 0-.3.1-.1.2-.1.2 0 .2.1.3.2.3.2zm11.8 19.7c.8-.8 1.5-1.6 2.3-2.4-.7.9-1.5 1.6-2.3 2.4zm1.1-2.1-.3.3c-.1.1-.2.2-.3 0-.1-.1 0-.2.1-.3l.5-.5c.1-.1.1-.1.2 0s.1.1 0 .2-.1.2-.2.3zm-15.5-13c-.3-.2-.5-.4-.7-.6-.3-.2-.3-.3 0-.5.1-.1.1-.1.2 0 .1.4.2.9.5 1.1zm5.8-.4.7.7c.1.1.1.1 0 .2s-.2 0-.2 0c-.1-.1-.2-.3-.4-.4-.2-.1-.3-.3-.1-.5zm-3.3-1.4h.1l1.4 1.4s.1.1 0 .1c-.1.1-.1 0-.1 0l-1.2-1.2c-.1-.1-.2-.1-.2-.3zm15 12.7v.8c0 .1 0 .2-.1.1-.2-.2-.4-.1-.6-.2l.7-.7zm-12.2-6.9c-.1 0-.1-.1-.1-.1-.1-.1-.1-.2 0-.3.1-.1.2-.1.3 0 .1.1.2.2.3.4.1.1.1.1 0 .2s-.1.1-.2 0c-.2 0-.2-.1-.3-.2zm-2.9-.2c-.1-.1-.2-.1-.2-.2s-.1-.1 0-.2.1-.1.2 0l.5.5c.1.1.1.1 0 .2s-.1.1-.2 0l-.3-.3zM25 29.6c.2-.3.4-.4.6-.6.1-.1.1-.1.2 0 0 .2 0 .3.1.5 0 .1 0 .1-.1.1H25zm-9.7-18.1.2-.2c.1-.1.2-.1.3 0 .1.1.1.2 0 .2l-.4.4c-.1.1-.1.1-.2 0s-.1-.1 0-.2c0-.1 0-.1.1-.2zm-2-2.2.2-.2c.1-.1.2-.1.3 0 .1.1 0 .2 0 .3l-.3.3c-.1.1-.2.1-.3 0-.1-.1-.1-.2 0-.2 0-.1 0-.1.1-.2zm3.3 9.7-.2-.2c-.1-.1-.1-.2 0-.3.1-.1.2-.1.3 0l.3.3c.1.1.1.2 0 .3-.1.1-.2.1-.3 0l-.1-.1zm3.2-2 .6-.6c.1-.1.1-.1.2 0 .1 0 .1.1.1.1-.1.1-.2.3-.3.3-.1 0-.2 0-.3.1-.3.2-.5.4-.7.7-.1.1-.2.2-.1.3v.1h-.1c-.1-.1 0-.2 0-.2.2-.4.4-.6.6-.8zm-8.1-.3.2-.2c.1-.1.2-.1.3 0 .1.1.1.2 0 .2l-.4.4c-.1.1-.2 0-.2 0-.1-.1-.1-.1 0-.2 0 0 0-.1.1-.2zM9 13.6l.2-.2c.1-.1.2-.1.2 0 .1.1.1.2 0 .2L9 14c-.1.1-.2.1-.3 0-.1-.1-.1-.2 0-.3.3 0 .3-.1.3-.1zm.6 1c-.1 0-.1-.1-.1-.1-.1-.1-.2-.1 0-.2.1-.1.2-.1.3 0l.3.3c.1.1.1.2 0 .2-.1.1-.2.1-.3 0-.1 0-.2-.1-.2-.2zm1.6 1 .2-.2c.1-.1.2-.1.2 0 .1.1.1.1 0 .2l-.4.4c-.1.1-.1.1-.2 0v-.2c.1-.1.2-.1.2-.2zm5.3-3.6.2-.2c.1-.1.2-.1.3 0 .1.1.1.2 0 .2l-.4.4c-.1.1-.2.1-.2 0-.1-.1-.1-.2 0-.2-.1-.1 0-.2.1-.2zm-.5 7.5c-.1 0-.1-.1-.1-.1-.1-.1-.1-.2 0-.3.1-.1.2-.1.3 0l.3.3c.1.1.1.2 0 .2-.1.1-.2.1-.2 0-.1 0-.2-.1-.3-.1zm1.7-1.6-.2-.2c-.1-.1-.1-.1 0-.2s.2-.1.3 0l.4.4c.1.1.1.2 0 .2-.1.1-.2.1-.2 0-.2-.1-.3-.2-.3-.2zm10.1 8.3.3.3c.1.1.1.1 0 .2s-.1.1-.2 0c-.2-.3-.4-.5-.7-.7-.1-.1-.1-.1 0-.2s.2-.1.2 0l.4.4zM13.8 16c-.5-.5-1-.9-1.5-1.5.6.4 1.1 1 1.5 1.5zm13.4 9.4c.1-.1.1-.1.1 0 .4.4.8.7 1.1 1.1v.1h-.1l-.5-.5c-.1-.2-.4-.5-.6-.7zm-14.9-11c.6-.6 1.2-1.3 1.8-1.9-.6.7-1.2 1.3-1.8 1.9zm16 11.7c-.6-.5-1.2-1.1-1.7-1.6.6.5 1.2 1.1 1.7 1.6zM13.1 11.4c.2-.3.3-.3.5-.1.2.2.3.4.5.6 0 0 .1.1.1.2-.4-.3-.7-.6-1.1-.7zm.1 3.5-.3-.3c-.1-.1-.1-.1 0-.2s.1 0 .2 0l.5.5c.1.1.1.1 0 .2s-.1 0-.2 0l-.2-.2zm12.6 13.7c-.6-.5-1.2-1-1.6-1.6.6.5 1.1 1 1.6 1.6zm-5.3-9.5c-.1.1-.2 0-.2 0l-.9-.9s-.1-.1 0-.1c.1-.1.1 0 .1.1.3.2.7.6 1 .9zM14 16.7l.2-.2c.1-.1.1-.1.2 0s0 .1 0 .2l-.4.4c-.1.1-.1.1-.2 0s0-.1 0-.2c.1 0 .1-.1.2-.2z"/><path d="M23.5 27.5c-.1-.5-1.7-2.2-2.3-2.4.5.4.9.8 1.3 1.2.3.4.7.8 1 1.2zM24.8 21.6c.6.8 1.3 1.6 2.2 2.2-.4-.3-.7-.7-1.1-1-.4-.5-.7-.9-1.1-1.2zM21.8 19.5l-.1.1c-.3.3-.3.3 0 .6s.3.3.6 0l.4-.4.1-.1c.1-.3-.2-.3-.3-.5-.1-.1-.2-.1-.3 0-.2.1-.3.2-.4.3zM19.9 22.7s0-.1 0 0c.4-.4.4-.4 0-.8-.1-.1-.3-.2-.4 0l-.5.5c-.1.1-.1.2 0 .4.4.3.4.3.9-.1z"/><path fill="#010101" d="m29.9 28.5 1.6 3-3-1.6s.7-.3.9-.5c.2-.2.5-.9.5-.9z"/><path fill="none" d="m11.653 6.448 3.182-3.182 19.091 19.091-3.182 3.182z"/><path fill="#010101" d="M21 12.8c.4-.4.9-.8 1.1-1.1-.6.4-1.5 1-2.3 1.5l-.6-.6c.5-.8 1.1-1.7 1.5-2.3-.3.3-.7.8-1.1 1.2l-.8.8-.6-.6 2.4-2.4 1 1c-.4.6-.9 1.4-1.2 1.8.4-.3 1.2-.8 1.9-1.2l1 1-2.4 2.4-.7-.7.8-.8zM23.4 14.5l-.5.5-1-1 .5-.5 1 1zM22.8 16.2l1.6-1.6c-.1-.1-.3-.2-.4-.3l.4-.4c.3.2.6.3.8.3l.5.5-2.3 2.3-.6-.8zM26.8 16.8c.1-.1.1-.2 0-.4-.2-.2-.5-.1-.8.2.2 0 .4.1.6.3.4.4.4 1 0 1.5-.5.5-1.2.5-1.8-.1-.7-.7-.5-1.4.2-2.1.6-.6 1.4-1 2.2-.2.6.6.4 1.2.2 1.4l-.6-.6zm-1 .9c.2-.2.3-.4.1-.6-.2-.2-.4-.1-.6.1-.2.2-.3.4-.1.6.2.2.4.1.6-.1z"/><path fill="none" d="M0 0h45v45H0z"/><path fill="none" d="M27 4.5h13.5V18H27z"/><path fill="#010101" d="M32.6 11.6V6.8c-.3.1-.8.2-1.2.3V6c.6-.1 1.2-.5 1.6-.9h1v6.4h-1.4zM38.6 6.8c-.1-.3-.3-.6-.8-.6-.9 0-1.1.8-1.1 1.7.3-.3.7-.6 1.4-.6 1.2 0 2 .9 2 2.1 0 1.4-.9 2.4-2.3 2.4-1.9 0-2.5-1.4-2.5-3.2 0-1.7.6-3.4 2.5-3.4 1.4 0 2 .9 2.1 1.7h-1.3zm.1 2.6c0-.6-.2-1.2-1-1.2-.6 0-1 .4-1 1.1 0 .5.2 1.2 1 1.2.7.1 1-.4 1-1.1z"/><path fill="none" d="M22.5 27h18v13.5h-18z"/><path fill="#010101" d="M27.4 37.9v1h-2.3v-1h2.3zM28.1 40.9l2.2-6.1h1L29 40.9h-.9zM31.9 40.5c0-1 .4-1.8 1.6-2.6.8-.6 1-.7 1-1.2s-.2-.7-.7-.7c-.5 0-.7.3-.8.8h-1.1c.1-.9.7-1.7 1.9-1.7 1.4 0 1.8.8 1.8 1.6s-.3 1.2-1.3 1.8c-.7.5-.9.8-1 1h2.5l-.1 1h-3.8zM38.7 40.5v-1.2h-2.4v-1l2.2-3.1h1.3v3.2h.6l-.1.9h-.5v1.2h-1.1zm0-3.1v-1.2c-.2.4-.9 1.5-1.4 2.2h1.4v-1z"/></svg>