<svg version="1.2" baseProfile="tiny" xmlns="http://www.w3.org/2000/svg" viewBox="0 0 45 45" overflow="visible" xml:space="preserve"><path fill="#9ACA3C" d="M-436.5-4.5h576v144h-576z"/><path fill="#9ACA3C" d="M0 0h45v45H0z"/><path fill="none" stroke="#FFF" stroke-width="2" stroke-miterlimit="10" d="m16.5 7.8-8.4 8.3 15.2 15.2 2.4-.2 1.2-.9v-1.1l2.6-2.5h.7l1.2-1.1.3-2.6z"/><path d="m28.2 28.2.2.2h.1l.3-.3c.1 0 .1-.1 0-.1-.1-.1-.2-.3-.4-.4-.1 0 0-.1 0-.1l.7-.7.1-.1c.1-.1.1-.1.2 0 0 0 .1.1.1 0v-.2h.5c.2 0 .3.1.5 0 .1 0 .2-.1.2-.2.2-.1.3-.3.5-.5 0 0 .1-.1 0-.1-.1-.1 0-.1 0-.2.2-.1.2-.3.2-.5 0-.5.1-1.1.1-1.6v-.6l-.6-.6-1.2-1.2c-.5-.5-1-1-1.5-1.6l-1.3-1.3-.9-.9-1.7-1.7c-.4-.4-.8-.9-1.3-1.3l-1.3-1.3c-.4-.4-.8-.8-1.2-1.1l-.9-.9c-.3-.3-.7-.6-1-1l-2.3-2.3s0-.1-.1-.1c0 0-.1 0-.1.1L14.7 9c-.1.1-.1.1-.2 0 0 0 0-.1-.1-.1 0 0-.1-.1-.1 0l-.3.3c-.3.3-.6.5-.8.8-.3.3-.6.6-.9.8-.5.5-1 .9-1.5 1.4l-1.5 1.5c-.1.1-.1.1 0 .2.1.2.1.2 0 .3L8 15.5c-.1.1-.1.1 0 .2l1.1 1.1c.8.7 1.5 1.5 2.3 2.3l2.3 2.3c.3.4.7.7 1 1.1l1.1 1.1.9.9 2.4 2.4.4.4c1 .9 1.9 1.9 2.8 2.8l.5.5c.1.1.2.1.2.2h.1c.5-.1 1-.1 1.6-.1h.8c.1 0 .1-.1.2-.1.1-.1.1-.1.2 0h.1l.6-.6c.2-.2.2-.4.2-.6V29s0-.1.1-.1.1-.1.1-.2v-.1s0-.1.1-.1l.8-.8s.1-.1.1 0c.1.4.2.5.2.5zm-3.3 2.7H24s0-.1.1-.1h.3c.2 0 .3 0 .5.1-.1-.1-.1-.1-.2-.1h-.4c-.1 0-.1 0-.1-.1s0-.2-.1-.2v-.2c-.1 0 0-.1 0-.1l.6-.6v-.1s-.1 0-.1.1l-.5.5c-.1.1-.1.1-.2 0h-.1c-.1-.1-.1-.1-.1-.3-.1.1-.1.1-.1.2s.1.2.2.2h-.1c-.2 0-.2.1-.2.2s-.1.2-.2.3l-.2.2c-.1.1-.1.1-.2 0l-1.6-1.6-1-1s-.1-.1 0-.1l.5-.5c.4-.4.8-.7 1.1-1.1.1-.1.1-.1.2 0l.1.1c.2.2.4.3.6.5.1.1.2.1.3.1H23.4s0 .1 0 0c0 0 .1 0 .1-.1v-.1c.1 0 .1-.1.1-.1l.6-.6s.1 0 0-.1c0-.1-.1 0-.1 0v-.1c0-.2 0-.3-.1-.5l-.1-.1c-.2-.3-.4-.5-.6-.7 0 0-.1-.1 0-.2-.1.1-.1 0-.2 0l-.2-.2-.3-.3s-.1-.1 0-.1c.1-.1.2-.2.3-.2 0 0 .1 0 .1-.1h-.1c-.1.1-.2.2-.3.2h-.1v-.1c.1-.1.2-.1.3-.2.1-.1.1-.1.2 0 .2.1.3.3.4.4.1 0 .1.1.2 0 0 0 .1-.1.1 0s0 .1-.1.1l-.1.1.1-.1s.1-.1.1 0v.1l-.4.4-.1.1.1.1v-.2l.4-.4h.1c.4.3.7.7 1.1 1 .4.4.7.8 1.1 1.1.1.1.1.1 0 .2l-.7.7-1.1 1.1-.4.4s-.1.1 0 .1l.5.5 1.1 1.1c.1.1.1.1 0 .2.4.3.3.3.2.3-.4 0-.7 0-1.1.1-.3 0-.6 0-1 .1h-.2c-.1 0-.1 0-.1-.1s0-.1.1-.1l.3-.3s.1-.1.1 0c0 0 0-.1-.1-.1 0-.1 0-.2.1-.2s.3 0 .3.1.1.1.1.2v.1l-.2.2h-.1v-.1s.1 0 0-.1c-.1 0-.1.1-.1.1l-.1-.1.1.1h-.1s-.1 0-.1.1.1.1.1.1c.3 0 .6 0 1-.1.1-.1.2-.1.3-.1zM26 17.5s.1 0 .1.1c.1.1.3.1.4.2l.7.7c.5.4.9.9 1.4 1.4.1.1.1.1 0 .2h.1s0-.1.1 0v.1l-.1.1c-.2.1-.3.3-.4.4-.4.4-.8.8-1.2 1.1 0 0-.1.1-.1 0-.1 0-.1 0-.1-.1l-.4-.4-.8-.8s-.1-.1 0-.1v-1.1c0-.1-.1-.3-.1-.4 0-.2-.1-.4-.2-.5l-.3-.6c-.1-.2-.2-.3-.4-.5-.1-.1-.2-.3-.4-.4 0 0-.1 0 0 0-.1 0-.3-.2-.4-.2-.3-.1-.4-.4-.7-.5-.2-.2-.4-.3-.7-.5-.2-.1-.4-.3-.6-.4-.2-.1-.4-.3-.6-.4-.1-.1-.2-.2-.2-.3v-.1c0-.3-.1-.5-.3-.7-.2-.1-.4-.2-.7-.1-.2 0-.3.1-.4.3 0 .1-.1.1 0 .1h.1c.1-.1.3-.2.4-.2.3 0 .5.1.6.3.1.2.1.4.1.6v.1l-.3.3c-.1.1-.1.1-.2 0-.2-.2-.4-.4-.6-.7v-.1h.1c.1 0 .2 0 .2.1 0 .2.1.3.3.3.1 0 .2 0 .2.1 0 0 .1.1.1 0 0 0 .1 0 .1-.1s0-.1.1-.1.1 0 .1-.1v-.1c-.1-.1-.1-.1-.1-.2 0-.2-.1-.3-.4-.3-.1 0-.1 0-.1-.1 0 0 0-.1-.1-.1 0 0-.1 0-.1.1l-.3.3c-.1.1-.3.1-.4-.1l-.1-.1s-.1-.1 0-.1v-.2c-.2-.2-.4-.4-.6-.7v-.1c0-.1.1-.1.2-.1 0-.1-.1-.2-.2-.2 0 .1 0 .1-.1.1h-.1c-.1-.1-.2-.2-.2-.3-.2-.2-.4-.4-.5-.7v-.1h.1c.1 0 .1-.1.2-.1v-.1c-.1 0-.1-.1 0-.2v-.1c0-.1-.1-.2-.1-.2 0-.1-.1-.1-.2 0H17.6s-.1.1 0 .1c.1.1 0 .1 0 .2-.1 0-.1.1-.1.1-.1 0-.1.1 0 .2s.1.2.2.2.1 0 .2.1c.3.1.5.3.6.5.2.3.3.6.5.9-.1 0-.1-.1-.2-.1-.3-.3-.6-.7-1-1l-.5-.5-1.3-1.3s-.1-.1 0-.1c.2-.2.3-.4.5-.6.2-.4.5-.7.8-1 0-.1.1-.1.1 0l.4.4.6.6.8.8.3.3c.5.5 1.1 1.1 1.6 1.7l.6.6 1.1 1.1c.6.5 1.1 1.1 1.6 1.6s1 1.1 1.5 1.6c.3.2.5.5.7.7 0 0 .1 0 .1.1h-.1c-.5-.6-.6-.6-.6-.6zM21.3 16c0-.1 0-.1-.1-.1s-.1.1-.1.1H21c-.2 0-.3-.1-.4-.3 0-.1 0-.1.1-.1s.1 0 .1-.1c0 0 0-.1-.1 0 0-.3.3-.4.5-.5 0 0 .1 0 0 0v.1h.2s.1 0 .1.1c.1.1.2.2.2.3 0 .1-.1.2-.1.3-.1.1-.1.2-.3.2.1 0 .1 0 0 0 0 .1 0 .1 0 0-.3.1-.5.2-.7.2-.2.1-.5.2-.7.5-.2.2-.3.4-.4.7-.1.2-.1.4-.1.6 0 .2 0 .3.1.5s.2.4.3.5c.3.3.6.5 1.1.5.4 0 .8-.1 1.2-.4h.1l.1.1h.1c.1-.1.2-.2.2-.3 0-.1-.1-.1-.1-.2v-.1c.1-.1.2-.3.3-.5.1-.4.2-.9 0-1.3s-.4-.7-.8-.8c-.1 0-.2-.1-.4-.1h.3-.3s-.1 0 0-.1.2-.2.2-.4c0 0 0-.1 0 0 .2.1.4.1.5.2.2.2.4.3.7.5.1 0 .1.1.2.1 0 0 0 .1.1.1.3.1.5.3.7.5.3.2.5.5.6.8.2.3.3.6.4 1 .1.3.1.6.1.9v.6c0 .3-.1.5-.2.8v.1c.1-.2.1-.4.2-.7v-.5c0-.6-.1-1.2-.3-1.7l-.3-.6c-.1-.2-.2-.3-.4-.5s-.4-.4-.6-.5c-.1-.1-.3-.2-.4-.3-.1-.1-.3-.2-.4-.3-.1-.1-.3-.2-.4-.3-.1-.1-.3-.2-.4-.3-.2-.2-.5-.4-.7-.6l-.3-.3h-.1l-.9.9s0 .1-.1 0c0 0 0-.1.1-.1l.7-.7.3-.3h.1c.1.1.2.2.3.2.1.1.3.2.4.3.3.2.5.4.8.6.3.2.5.4.8.6.2.1.4.3.6.4.3.2.5.4.7.7 0-.1-.1-.1-.1-.1-.2-.3-.4-.4-.6-.6-.1-.1-.2-.2-.4-.3-.2-.2-.4-.3-.6-.5-.2-.1-.4-.3-.5-.4-.2-.2-.4-.3-.6-.5-.2-.2-.4-.3-.6-.4-.1 0-.1-.1-.2 0l-.2.2c.1-.1.2-.2.2-.3.1-.1.1-.1.2 0s.3.2.4.3c.2.1.4.3.5.4.1.1.2.2.4.3.2.1.3.3.5.4.2.1.4.3.6.4.2.1.4.3.6.4.3.3.6.6.8 1 .2.4.4.8.5 1.3.1.3.1.6.1.9v.4s0 .1-.1.1v-.2c0-.4 0-.8-.1-1.2 0-.1 0-.1-.1-.2.1.5.2.9.1 1.4 0 .1 0 .1.1.1 0 0 .1 0 .1.1.2.3.4.5.6.7.1.1.1.1 0 .3 0 0-.1.1-.2.1s-.2 0-.3.1c-.4.2-.7.6-.6 1 0 .1.1.3.1.4v.1l-.1-.1c-.1-.2-.3-.3-.5-.4-.1.1-.2.2-.2.4.1-.1.1-.2.3-.3 0 .2-.1.3-.3.5-.1.1-.1.1 0 .1.1-.1.2-.3.3-.4 0-.1.1 0 .1 0l.4.4c.1.1.1.1 0 .2 0 0 0-.1.1 0v.1l-.4.4s-.1.1-.1 0v-.1l.1-.1c-.1.1-.2.1-.2.2 0 0 0 .1-.1 0 0 0-.1 0 0-.1v-.1c0-.1 0-.1-.1-.2l-.3-.3c-.1-.1-.1-.1 0-.2l.1-.1c0-.2.2-.4.3-.5l.4-.4c.1-.1.2-.3 0-.4l-.4-.4c-.1-.1-.1-.1-.2-.1s-.1 0-.2-.1-.3-.1-.5 0-.3.3-.4.4l-.8.8s-.1.1-.1 0l-.3-.3s-.1-.1-.1 0c0 0-.1.1 0 .1l.1.1.2.2c.1.1.1.1 0 .2s-.3.2-.4.4l-.6.6c-.2.2-.3.5-.1.7.1 0 0 .1 0 .1-.1.1-.1.1 0 .2l.4.4c.1.1.2.1.4 0h.1v.1l-.1.1c-.2.2-.3.4-.3.6 0 0 0 .1-.1.1l-.1.1c-.1.1-.1.1-.2 0 0 0-.1 0-.1-.1-.2-.2-.5-.4-.7-.7-.1-.1-.1-.1-.2-.1h-.2H20.4c.1 0 .1 0 .1.1h-.4c-.6 0-1.2-.1-1.8-.4-.4-.2-.8-.5-1.2-.8l-.4-.4c-.1-.1-.2-.2-.3-.4-.1-.2-.3-.4-.4-.6-.2-.2-.3-.5-.5-.7-.2-.3-.4-.5-.5-.7-.1-.1-.2-.3-.3-.4v-.1c0-.1.1-.2.2-.3v.1c-.1.1-.1.2 0 .3l.3.3c.1.2.3.4.4.6.1.1.2.3.3.4.1.2.3.4.4.6.2.2.3.4.5.7.2.3.4.5.6.7.2.1.3.3.5.4V24c-.2-.2-.5-.3-.7-.5-.1-.1-.2-.3-.3-.5-.1-.2-.2-.3-.4-.5s-.3-.4-.5-.6c-.1-.2-.3-.4-.4-.6l-.6-.9c-.1-.1-.1-.2 0-.4l.4-.4.6-.6v-.1h-.1c-.1 0-.1-.1-.2-.2l.1-.1-.1.1c-.2.2-.1.1 0 .3l.1.1v.1l-.2.2h-.1c-.3-.3-.6-.7-1-1v-.1c.1-.1.1-.1.1 0 0 0 .1.1 0 .1 0 .2.1.4.3.3.1 0 .2 0 .2.1s.1 0 .1 0c0-.1.1-.1.1-.1l.1-.1c-.1-.1-.1-.2-.1-.3v-.1c-.1-.1-.2-.2-.4-.2h-.1s0-.1.1 0c.1 0 .2-.1.3 0h.1s0-.1-.1-.1H15c-.1 0-.2 0-.3.1h-.1v-.1l.4-.4c.8-.8 1.6-1.6 2.4-2.3l.7-.7s0-.1.1 0v.5s0 .1 0 0v-.5.1c-.1.2.2.4.3.4.1 0 .1 0 .2.1s.1.1.2 0c0-.1.1-.1.1-.1.1-.1.1-.1 0-.2l-.1-.1c0-.2-.1-.3-.2-.3s-.2 0-.3-.1c0-.1.1-.1.1-.1h.1c.3.3.7.6 1 1v.1l-.2.2h-.1l-.1-.1h-.1v.1l.1.1s.1.1 0 .1h.2c.1.1.1 0 .2 0l.8-.8c.2-.2.2-.2.4 0 .1.1.1.1 0 .2l-.1.1c-.1 0-.2.1-.4.1 0 .1-.1.1-.1.1l-.4.4c-.1.1-.1.2-.3.1.1 0 .2.1.4.1 0 0 .1 0 .1.1s0 .1.1.1v-.1c0-.1.1-.3.1-.4 0-.1.1 0 .1 0v.2c0 .1-.1.1 0 .2 0-.1.1-.1.1-.1h.3-.3c-.2 0-.2 0-.1-.2s.1-.2-.1-.3c.2-.1.3-.3.5-.4v.1c-.2.2-.2.5 0 .7v.1c.3.1.4 0 .6 0zm-4.2 7.8.2.2c.3.4.8.6 1.2.8.4.1.7.3 1.1.3.3 0 .6.1.9 0h.2l.4.4.8.8s.1.1 0 .2h.1v.1l-.1.1-.6.6c-.3.3-.7.6-1 1h-.1l-1-1-.8-.8c-.2-.2-.4-.4-.5-.7 0-.1-.1-.2-.1-.3 0 .1.1.3.2.4v.1l-1.5-1.5c-.3-.3-.6-.6-1-.9L14 22.1l-1.2-1.2-2.3-2.3-1.2-1.2-.8-.8s-.1-.1 0-.1c.1-.1.3-.2.4-.3.4-.3.9-.6 1.3-.9h.1c0 .1.1.1.1.1.6.7 1.3 1.3 1.9 1.9.3.3.6.6 1 .9l.9.9c.1.1.2.1.1.3v.1s0 .1-.1.1c-.1.1-.2.2-.3.2v.1h.1c.1 0 .1 0 .1.1 0 .2.1.3.3.4.1 0 .1 0 .2.1s.1.1.2-.1c0-.1 0-.1.1-.1s.1-.1 0-.2v-.2c-.1-.2-.2-.3-.4-.3-.1 0-.1 0-.1-.1s0-.1.1-.2v-.1h.1c.1.1.1.2.2.2.2.1.3.3.5.5.1.1 0 .1 0 .1l-.3.3c0 .1-.1.1-.1.1h-.4c-.1 0-.3-.1-.3-.2-.2-.2-.2-.6.1-.9 0 0 .1-.1 0-.1h-.1c-.2.2-.3.4-.3.6 0 .2 0 .4.2.6.2.2.4.3.6.2.1 0 .2 0 .2.1.1.2.3.4.5.6.1.1.2.2.2.3.2.3.4.5.5.7.1.1.2.3.3.4.1.2.2.3.3.5.1.2.3.4.4.6v.2c.1-.1 0-.1 0-.2zm-1.5-13.7c.3.3.6.6.9.8v.1c0-.1 0 0 .1 0l.3.3c.1.1.1.1 0 .2-.3.3-.6.6-.9.8l-1.9 1.9-1.2 1.2-1 1c-.1.1-.1.1-.1 0s-.1-.1-.2-.2l-1.1-1.1V15l.2-.2 1-1h.1v-.1l1.1-1.1s.1-.1.1 0v-.1c.4-.4.8-.7 1.1-1.1 0 0 .1-.1.1 0h.1v-.1c.3-.3.6-.5.8-.8l.3-.3c.1-.1.1-.1.2-.1-.1.1-.1.1 0 0 0 .1 0 0 0 0zm11.5 11.6c0-.1 0-.1.1-.2.2-.2.4-.5.6-.7.3-.3.6-.5.8-.8.1-.1.1-.1.1 0l2.6 2.6c.1.1.1.1 0 .2l-1 1-.3.3s-.1.1-.1 0l-.3-.3c-.1-.1-.1 0-.2 0l-.7.7s-.1.1-.1 0c0 0-.1-.1-.1-.2.1-.1.1-.3 0-.4h-.1v.2-.2c.1 0 .1-.1 0-.1-.1.2-.3.3-.4.5v-.1h-.1s0 .1-.1.1v-.1c0 .1-.1.2-.1.3-.1-.1 0-.1 0-.2-.1.1 0-.1-.1-.1v.1c0 .1 0 .1-.1.1.1 0 .1-.1.1-.1-.1-.1-.1-.1 0-.2v.1c.1-.1 0-.1-.1-.1.1 0 0 .2.1.2 0 0 0 .1.1.2 0 .1.1.1.1.1s0 .1 0 0c.1 0 .1 0 .1.1 0 0 0 .1.1.1v-.1l.1-.1h.1v.2h.3c.1-.1.1 0 .2 0l.1.1s-.1 0-.1.1c-.4.4-.8.8-1.2 1.1-.1.1-.1.1-.1 0l-1-1c-.4-.4-.7-.8-1.1-1.2-.1-.1-.1-.2 0-.3l.3-.3s.1-.1.1 0c0-.1 0 0 .1 0 .2.2.4.3.6.5.2.2.4.2.7.1.1 0 .1 0 .2-.1l.7-.7V23c0-.2 0-.4-.1-.5-.1-.1-.1-.2-.2-.3-.1-.1-.2-.3-.3-.4 0 0-.1-.1 0-.1h-.3zM13.3 10.6l1.2-1.2c.1-.1.1-.1.3 0h.1l.7-.7.7-.7s.1-.1.1 0c.1 0 .1.1.2.2v.1c-.3.3-.5.7-.8 1.1-.2.2-.3.5-.5.7l-.8.8-1.2 1.2c-.4.4-.8.8-1.2 1.1l-1.3 1.3c-.3.3-.6.6-1 .9-.4.3-.9.6-1.3.9-.2.2-.2.1-.4 0-.1-.1-.1-.1 0-.2.4-.5.9-.9 1.4-1.4.2-.2.2-.2 0-.3-.1-.1-.1-.1 0-.2.3-.3.7-.6 1-1l1.5-1.5c.6-.4 1-.8 1.3-1.1zm1.1 3.7c.5.5 1.1.9 1.5 1.4l-.7-.7.9.9c.2.2.2.2 0 .4H16v.1c-.1 0-.1 0 0 0h-.1v.1c-.1 0 0 .1-.1.1l-.3.3c-.1-.1 0 .1 0 0-.1 0-.1-.1-.2-.1 0 .1.1.1.1.2h-.1s0 .1.1.1v.2h-.1l.1.1c-.1 0-.1 0-.1.1l-.4.4c-.1.1-.1.1-.2 0 0 0 .1.1 0 .1 0 0-.1.1-.1 0v.1h-.1v.1l-.2.2h-.1l-.4-.4c-.3-.2-.5-.5-.8-.7-.2-.2-.3-.4-.5-.5l-.2-.2v-.1h.1l-.1-.1c.1 0 .1 0 .1.1l-.1-.1s.1 0 0 0v-.1s0-.1.1 0c0-.1.1-.1.1-.2.2-.2.2-.2.3 0l-.1-.1v-.1h.1s0 .1.1 0c0-.1-.1-.1-.1-.1.1 0 .1.1.1.1l-.1-.1s.1 0 .1.1l-.1-.1c0-.1.1-.1.1-.1l.3-.3c0-.1.1 0 .1 0v-.1c.1 0 .1.1.2.2.5-.5.4-.5.4-.6-.1 0 0-.1 0-.1h.1v-.1c.1-.1.2-.2.4-.3h.1l.2.2-.3-.3c.1 0 .1.1.1.1s-.1 0-.1-.1c.1.2.2.3.3.4 0-.1-.1-.3-.3-.4zm2.6 1.4c-.2-.1-.1 0 0 0h-.1v.1h-.1s.1 0 0 .1l-.1.1c-.1.1-.1 0-.1 0 0-.1 0-.1-.1-.2l-.8-.8.3.3.3.3-1.1-1.1h.1c-.1-.2-.3-.3-.4-.5l.3.3-.3-.3c.1 0 .1 0 .1-.1.1 0 .1.1.1.1-.1-.1-.1-.1 0-.2l.1-.1c.2-.2.2-.2.3 0 0 0 0-.1-.1-.1 0 0-.1 0 0-.1s.1-.1.2-.1v-.1c.1 0 .1.1.1.1l-.1-.1c.1 0 .1-.1.1-.1.1-.2.3-.3.5-.5h.1l.2.2c-.1-.1-.2-.2-.2-.3 0 0 .1 0 .1.1l-.1-.1h.1v-.1c.1 0 0 0 0 0 .1 0 .1 0 .1.1-.1-.1-.1-.1 0-.2s.2-.1.2-.2c.1-.1.1-.1.2 0l.1.1c0-.1-.1-.1-.2-.2.2.2.4.3.5.5.4.4.8.9 1.3 1.3.1.1.1.1 0 .2l-.1.1c-.1 0-.1-.1-.2-.1 0 .1.1.1.1.2-.1 0-.1-.1-.1-.1 0 .1.1.1.1.1l-.1-.1c0 .1.1.1.1.2l-.1-.1.1.1s0 .1-.1.1l-.1.1c-.1.1-.1.2-.3.2 0 .1-.1.1-.1.2-.1.1-.2.1-.2.2 0 0 0 .1-.1 0v.1l-.3.3c-.2 0-.2 0-.2.1-.1-.1-.1-.1 0 0-.1-.1-.1-.1 0 0zm6.6 6.6s-.1 0 0 0l-.9.9c-.1.1-.2.1-.3.1H22.1l-.5.5c-.1.1-.1 0-.1 0-.1-.2-.1-.3 0-.5l.4-.4 1-1 .5-.5c.1-.1.1-.2.2-.3.2-.2.3-.2.5-.1.1 0 .1 0 0 .1-.2.2-.3.4-.5.5 0 0-.1.1-.1.2.1.2.1.3.1.5.1-.1.1-.2.1-.2-.1-.2 0-.3.2-.5.1 0 .1-.1.2-.1l.4-.4s.1-.1.1 0l.5.5c.1.1.1.2 0 .3l-.6.6c-.1.1-.1.2-.2.3 0 .1-.1.2-.1.3v.2c.1.1.2.2.3.4 0 0 .1 0 0 .1h-.1l-.3-.3c-.1-.1-.1-.1-.2-.1 0-.1-.1 0-.1 0s-.1.1-.1.2 0 .1-.1.1-.2.1-.1.1c.1.1 0 .1.1.2s.2.3.4.4c0 0 .1 0 0 .1h-.1c-.1-.1-.3-.2-.4-.4h-.1c-.1 0-.2.1-.3.1-.1 0-.2 0-.3.1-.3.2-.5.4-.7.6-.1.2-.3.2-.4.1l-.4-.4c-.1-.1-.1-.1 0-.2.2-.2.4-.5.7-.7.1-.1.2-.1.3-.1.1 0 .2 0 .3-.1.3-.6.6-.9 1-1.2zm5.1 3c-.1 0-.1 0 0 0-.4.3-.7.7-1.1 1l-.2.2h-.1c.1 0 .1-.1.1-.1 0-.1-.1 0-.1 0s-.1.1-.1 0c0 0 0-.1.1-.1.1-.1.2-.2.3-.2.2-.1.3-.3.4-.4l.5-.5s.1-.1.1 0v.1c.1 0 .2.1.3.2l.3.3h.1s.1-.1 0-.1l-.3-.3c-.1 0-.1-.1 0-.1l.7-.7h.1c.1.1.2.2.3.4.3.4.7.7 1 1.1.1.1.1.1 0 .2l-.4.4c-.2.2-.4.2-.7.2-.4-.1-.7 0-1 .3-.2.2-.5.4-.7.7h-.1c0-.1-.1-.1-.1-.2l-.7-.7v-.1c.5-.8.8-1.2 1.3-1.6-.1 0 0 0 0 0zm-2.9 2.9c.4-.4.8-.7 1.1-1.1 0 0 .1-.1.1 0l.9.9v.1l-.5.5c-.1.1-.2.2-.3.4-.1.2-.1.4-.1.7 0 .2 0 .5-.1.7l-.6.6h-.1l-.5-.5-.9-.9c-.1-.1-.1-.1 0-.2.3-.5.6-.9 1-1.2zm-4.3-10c0-.1 0-.1-.1-.1l-1.2-1.2s-.1-.1 0-.1c.2-.2.5-.3.8-.4h.5c.2 0 .3.1.4.1h.1l.1-.1c.1-.1.1-.1.2 0l.2.2c.1.1.1.1 0 .2s-.1.1-.1.2c.1.2.2.5.1.8-.1.3-.2.6-.4.8 0 0-.1.1-.1 0l-.2-.2s-.1-.1-.3-.2c.1 0 .1 0 0 0l.1.1.4.4s.1.1 0 .2l-.6.3c-.4.1-.7.1-1 0-.1-.1-.2 0-.3.1l.1-.1h.1c0 .1-.2.2-.2.1-.1-.1-.3-.2-.4-.3-.1-.1-.1-.1 0-.2s.1-.1 0-.2c-.1-.2-.2-.4-.1-.7 0-.3.2-.6.4-.9.1-.1.1-.1.2 0l.8.8c.3.1.4.2.5.4zm6.1 8.7c.4.4.8.8 1.1 1.2v.1l-.2.2c0 .1-.1 0-.1 0-.3-.3-.7-.6-1-1l-.6-.6c-.4-.3-.7-.7-1.1-1l-.9-.9c-.3-.3-.5-.6-.9-.8l-.3-.3c-.1-.1-.1-.1 0-.2l.2-.2c.1-.2.2-.2.4-.1.1.2.3.3.4.4l.6.6c.5.5 1 1 1.5 1.6.3.4.6.7.9 1zm3.1-3.3.7-.7c.1-.1.1 0 .1 0 .1.1 0 .2 0 .3 0 .7-.1 1.4-.1 2.1 0 .2-.1.3-.2.4-.1 0-.1.1-.2 0-.4-.4-.7-.8-1.1-1.2v-.1c.3-.3.6-.5.8-.8zm-12.9-8.5c-.4.3-.7.7-1.1 1.1-.1.1-.1 0-.1 0l-1-1c-.3-.4-.7-.7-1.1-1 0 0-.1-.1 0-.1l.3-.3c.6-.5 1.1-1.1 1.7-1.6l.2-.2h.1c-.1.1-.1.2-.2.3l-.7.7-1.2 1.2s-.1.1 0 .1c0 .1.1.1.1.2.1.1.3.2.4.3.4.3.7.7 1 1.1l.3.3c.1.1.2.1.3 0 .7-.7 1.4-1.4 2.1-2 0 0 0-.1.1 0 0 0 .1 0 0 .1l-.1.1c-.3-.1-.7.3-1.1.7zm8.5 6.6.2-.2s.1-.1.1 0c0 0 .1.1 0 .2-.1 0-.1.1-.2.1 0 0-.1.1 0 .1.1.1.1.1-.1.1-.2.1-.3.1-.5.3-.1.1-.2.3-.2.4 0 .1 0 .1-.1.1-.2-.1-.4-.4-.3-.6.1-.3.3-.5.5-.6h.1c0-.1.2-.2.2-.3.2-.2.2-.2.3 0v.1l-.2.2s-.1 0 0 .1c.1-.1.2-.1.2 0zm-4.2 4-.3.3-.1.1c-.1 0-.1-.1-.2-.2.2-.1.2-.3.4-.4.1-.2.2-.3.3-.4.1-.1.1-.1.3 0h.1c0-.1.1-.1.1-.1.1 0 .2 0 .2.1.1.1.2.1.2.3 0 .1 0 .1-.1.1-.3.1-.5.3-.6.6 0 .1-.1.1-.2.1h-.1l-.2.2c-.1.1-.1 0-.1 0v-.1l.2-.2c.1-.3 0-.3.1-.4zm3.7 2.5-1 1c-.2.2-.2.2-.3 0-.1-.1 0-.1 0-.1l.9-.9c.3-.3.6-.6.8-.9l.5-.5h.1c0 .1 0 .1.1.1s.1 0 0 .1l-.1.1c-.3.4-.7.7-1 1.1zM22.3 19l-.2.2-.6.3c-.4.1-.8.1-1.2 0 0-.1.2-.1.2-.1.3.1.6.1.9 0 .4-.1.8-.4 1-.9.2-.4.2-.8.1-1.1 0-.1 0-.1.1-.2 0-.1.1-.1.1 0 .1.2.1.4.1.6 0 .3-.1.8-.5 1.2zM20 16.7c.3-.3.6-.4.9-.5.4-.1.7-.1 1 .1 0 0 .1 0 0 .1 0 .1-.1.1-.2.1-.2-.1-.3-.1-.5-.1-.3 0-.6.1-.9.3-.4.3-.6.6-.7 1-.1.3 0 .5 0 .7 0 .1 0 .2-.1.2-.1.1-.1 0-.1 0-.1-.3-.2-.7-.1-1 .4-.4.5-.7.7-.9zm-8.4-2.8c-.4.3-.7.7-1.1 1 0 0-.1 0-.1.1h-.1v-.1c.3-.3.6-.6.9-.8.5-.5 1-1 1.5-1.4l1.2-1.2c.5-.4.9-.9 1.4-1.4 0 0 .1-.1.1 0v.1l-2 2-.9.9c-.3.2-.6.5-.9.8zm10.7 12.4s-.1-.1 0 0c-.1-.1-.1-.1-.1-.2h.1c.1.1.2 0 .2-.1.1-.3.2-.5.5-.7.1 0 .2 0 .2-.2.1 0 .1-.1.1-.2v-.1h.1c.1.1.2.2.2.3.2.2.2.5.1.7-.2.5-.7.8-1.2.6 0 .1-.1 0-.2-.1zm4.4-4.3c.1 0 .1 0 0 0 .3.3.3.7.2.9-.2.4-.5.6-.9.5-.3 0-.4-.2-.6-.4.1 0 .2-.1.2-.2.1 0 .1 0 .1-.1.1-.3.3-.6.6-.7.2-.1.2-.1.2-.2v-.1h.1c0 .2.1.2.1.3zm-13.3-6.9 1-1h.1l.2.2c.5.5 1 .9 1.4 1.4v.1c0-.1-.1-.1-.2-.1-.5-.5-.9-1-1.4-1.4h-.1l-1.2 1.2c-.3.3-.6.7-1 .9 0 0 0 .1-.1 0v-.1c0-.1.1-.1.1-.2.5-.3.8-.7 1.2-1zm2.2 4.6c-.1 0-.1 0 0 0-.4-.4-.8-.7-1.1-1.1-.1-.1-.1-.1 0-.3l2.1-2.1c.8-.8 1.6-1.5 2.3-2.3.1-.1.1 0 .1 0 .1.2.3.3.5.4l.7.7s.1 0 0 .1h-.1c-.3-.3-.6-.5-.8-.8l-.2-.2s-.1-.1-.1 0c-.8.8-1.6 1.6-2.4 2.3l-1.3 1.3-.7.7c-.1.1-.1.1 0 .2l.3.3.6.6c-.1 0 0 .1.1.2zm2.1-7.2c-.1-.1-.3-.3-.4-.5 0-.1 0-.1.1-.1h.1l.2.2c.4.3.7.7 1.1 1.1 0 0 .1 0 0 .1l-.1.1c-.1 0-.2-.1-.2-.1-.3-.3-.6-.5-.8-.8zm-2.8 6.6.5.5s.1.1 0 .1l-.1.1c-.1.1-.1.1-.2 0l-.9-.9c-.1-.1-.1-.1 0-.3.1-.1.1-.1.2 0l.5.5zm-1.6-1.2-.4-.4c-.2-.1-.3-.3-.5-.5v-.1c.1-.1.2-.1.3 0l.7.7c.1.2.3.3.4.5 0 .1 0 .1-.1.1 0 .1-.1 0-.1 0l-.3-.3zm3-2c.1.1.2.1.3.2.1.1 0 .1 0 .2-.3.2-.5.5-.7.7l-.5.5c-.2.2-.4.3-.6.5l-.4.4h-.1v-.1c.1-.1.1-.2.2-.3.6-.6 1.3-1.2 1.9-1.9V16c0 .1-.1 0-.1-.1zm3.4-1.4c-.1-.2-.3-.3-.5-.5 0 0-.1 0 0-.1s.2-.2.3-.1c0 0 .1.1 0 .1v.1h.1c.1 0 .2 0 .2.1 0 0 0 .1.1.1l.6.6s.1.1 0 .1c-.1.1-.1.1-.2 0-.3-.1-.4-.2-.6-.4zm-.6-.1c.2 0 .3.1.3.2v.2c0 .1.1.1.1.2-.1 0-.1-.1-.2-.1v.1c-.1.1-.1 0-.1 0l.1.1s.1 0 0 .1h-.1L19 15v.1h-.1c-.1 0-.3-.2-.3-.3 0 0 0 .1.1 0l-.2-.2s-.1 0 0-.1h.1l.1.1c0-.1 0-.1.1-.2l-.1-.1-.1-.1c.1-.1.1 0 .1.1.3.1.3.2.4.1.1.1 0 .1 0 0zm-4.7 5.2-.2-.2s-.1 0 0-.1h.1c0 .2.1.2.1.3 0-.2.1-.2.2-.2s.2.1.3.3v.1h-.1l.2.2v.1h-.1l-.2-.2c0 .1.1.1 0 .2s-.1 0-.1 0c0 .1.1.1.1.1s.1.1 0 .1h-.1c-.1 0-.1-.1-.2-.1l.1.1c-.1 0-.2 0-.2-.1-.1-.1-.1-.1 0-.2v-.1c0-.1-.1-.1-.2-.2v-.1l.1.1v-.1h.2c-.1 0-.1.1 0 0zm6-5.4s0 .1 0 0c.1.1.1.1.1.2v.1h-.2c-.1 0-.1-.1-.2-.1s-.3-.1-.2-.2c0-.1 0-.1-.1-.2l-.1-.1v-.1h.1l.1.1h.1v-.1h.2c0-.1-.1-.1-.1-.1v-.1h.1l.1.1h.1c0-.1.1-.1.1-.1.1 0 .2.1.2.3h-.1l.2.2v.1h-.1l-.2-.2s.1.1 0 .2-.1 0-.1 0zm-5.5 4.4s0 .1 0 0c.1 0 0 0 0 0 0-.1 0-.1-.1-.1 0 0-.1 0 0-.1h.1l.1.1c0-.1-.1-.2.1-.1l-.1-.1v-.1h.1l.2.2c.1 0 .2.1.3.2v.1c0 .1-.1 0-.1 0 .1 0 .1.1.2.2v.1h-.1c-.1 0-.1-.1-.2-.1 0 .1.1.1 0 .1h-.1c0 .1.1.1.1.1v.1h-.1l-.2-.2s0 .1-.1.1c0-.2-.2-.3-.1-.5zm8.5 8c0 .1 0 .1 0 0-.1.1-.1.2-.1.2l.1.1v.1c-.2 0-.4 0-.6-.1-.2-.2-.5-.4-.7-.6l-.1-.1c.1-.1.1 0 .1 0l.3.3c.3.2.6.3 1 .1-.1 0-.1 0 0 0zm6-2-.3.3c-.2.1-.2.1-.3 0v-.1c.2-.2.5-.4.7-.7 0 0 .1-.1.1 0 .1.1.2.1.2.2-.2.1-.3.2-.4.3zm-4.1-2.9c.1-.1.3-.2.4-.2h.1s.1 0 0 .1c0 .1-.1.1-.2.1-.3.1-.4.4-.4.7 0 .2.1.4.2.5v.1h-.1c-.1 0-.1 0-.2-.1-.2-.4-.1-.9.2-1.2zM27 23c.1-.1.1-.2.1-.3 0-.2 0-.5-.2-.6-.1-.1-.2-.1-.2-.2 0 0-.1-.1 0-.1h.1l.1.1c.2.2.3.4.4.6.1.2.2.4.1.6v.1c-.2-.4-.2-.4-.4-.2zm-9.4-10.2-.4-.4v-.1h.1c.1.1.2.2.3.2l.8.8c.1 0 0 .1 0 .1 0 .1-.1 0-.1 0-.2-.2-.5-.4-.7-.6zm4.8 11.7c0 .1.1.1.1.2v.1-.1c0-.1-.1-.1-.1-.2-.1 0-.1 0 0-.1l.2-.2c.1-.1.3-.2.4-.3h.1c-.1.1-.2.1-.3.2-.1 0-.1.1 0 .1l.4.4s.1 0 .1.1c-.1-.1-.3-.2-.5-.1-.1 0-.1 0-.1.1-.2-.1-.3-.1-.3-.2zm-9.2-7.1c-.1-.1-.2-.3-.4-.4l-.2-.2v-.1h.1c.4.3.7.7 1.1 1v.1c-.1.1-.1 0-.1 0-.1 0-.3-.2-.5-.4zm6.5-3.9c.1-.2.5-.3.7-.3.3 0 .5.2.6.6v.5s-.1 0-.1-.1v-.1c0-.3 0-.6-.3-.7-.2-.1-.6 0-.9.1 0 .1 0 .1-.1.1 0 0 .1 0 .1-.1zm-5.8 6.8c-.1-.1-.2-.2-.2-.4v-.4c0-.1.2-.2.2-.3h.1c-.1.1-.1.2-.2.3 0 0 0 .1-.1.1 0 .4.1.8.6.8h.4s0 .1-.1.1h-.2c-.1.1-.3 0-.5-.2zm13 2.9c.1-.1.2-.1.2-.2 0 0 .1-.1.1 0s.1.1 0 .2l-.5.5c-.1.1-.1 0-.1 0-.1 0 0-.1 0-.1.1-.2.2-.2.3-.4-.1.1-.1.1 0 0-.1.1-.2.1-.2.2.1-.2.3-.3.4-.4-.1 0-.1.1-.2.2zm-.3.2c-.1.2-.1.2 0 .3v.1h-.2l-.6-.3-.1-.1c.2.1.5.1.9 0zm-2.8 1.9.2.2c.1.2.2.3.2.5v.2c-.1 0-.1 0-.1-.1-.1-.1-.1-.1-.2 0h-.1c.2-.2.1-.5 0-.8zm-.1 1.2.3-.3s.1-.1.1 0c0 0 .1.1 0 .2l-.5.5c-.1.1-.1 0-.1 0-.1 0 0-.1 0-.1 0-.1.1-.2.2-.3zm-6.3-15c-.1-.1-.1-.1 0 0 0-.1.1-.2.1-.2h.1s0 .1.1.1c.2.2.4.5.6.7.1.1.1.2.2.3v.1h-.1c-.1-.2-.2-.3-.3-.5-.1-.2-.2-.3-.4-.4-.1 0-.2-.1-.3-.1zM28 24.7c.1-.1.2-.2.4-.3 0 0 .1-.1.1 0s0 .3-.1.3c0 0-.1.1-.2.1-.1.1-.1.1-.2.1 0 0-.1 0-.1-.1s.1-.1.1-.1zm.8.5c-.1 0-.1 0-.1-.1s-.1 0-.1-.1-.1 0-.1-.1c-.1 0 0-.1 0-.1-.1 0-.1-.1-.1-.2h.1c.1 0 0 .1 0 .1h.1v.1h.1c0 .1 0 .1.1.1v.1c-.1.1 0 .1 0 .2.1-.1.1-.1.1 0h-.1c.2 0 .2.1.2.1s0 .1-.1.1c0 0-.1 0-.1-.1v-.1c-.1.1 0 0 0 0zM17.1 11.1l.1-.1h.1c0 .1.1.1.1.2v.1c-.1.1-.2.1-.2.2-.1 0-.1-.1-.2-.2 0-.1 0-.1.1-.2zm5.5 13.6c.1 0 .2-.1.2 0 .1 0 .3.1.4.1.1 0 .1.1 0 .2 0 0 0 .1-.1 0s-.2-.1-.4-.2l-.1-.1zm-4.9-13.5c-.1.1-.1.1-.2 0s-.2-.2-.2-.3c-.1-.1 0-.1.1-.1 0 0 .1-.1.1 0 .1.1.2.2.2.3.1 0 .1.1 0 .1zm1.2 2c-.2-.1-.3-.3-.4-.5v-.1h.1c.2.2.3.5.6.7v.1h-.1l-.2-.2zM17 12.1l-.1-.1c-.1-.1-.1-.1 0-.2 0 0 0-.1.1 0 0 0 .1 0 0 .1v.1c.1.1.1.2.3.2 0 0 .1 0 .1.1s-.1.1-.1.1h-.1c-.1-.2-.2-.2-.2-.3zm10.1 11.5c-.3.5-.8.5-.9.2.3.1.6.1.9-.2zm-12.9-5.5s0 .1 0 0c.2.2.2.2 0 .3h-.1v-.2l-.1-.1s-.1-.1-.1 0h-.1c0-.1.1-.1.1-.1h.1c.1 0 .1 0 .2.1zm4.4-4.4-.1-.1c-.1-.1-.1-.1 0-.2 0 0 .1-.1.1 0 0 0 .1 0 0 .1v.1c.1.1.1.2.3.2 0 0 .1 0 .1.1s-.1.1-.1.1h-.1c-.1-.2-.2-.2-.2-.3zm-6.1 2.8.2.2v.1s-.1.1-.2.1v-.1c0-.1-.1-.3-.2-.2h-.1c0-.1 0-.1.1-.1 0 0 .1-.1.1 0 0-.1.1-.1.1 0zm15 6.1c.3.2.2.7-.2.9.2-.4.2-.7.2-.9zM23.6 27c.2-.2.3-.4.5-.6h.1v.1c-.1.1-.1.2-.2.3-.1.1-.3.2-.4.2zm-1.5-2.1c.1-.1.1-.1.2-.1v.1c-.1 0-.2.1-.2.2-.1.1-.1.1-.1.2 0 0 0 .1-.1 0v-.1c0-.1.1-.2.2-.3zM19 13.5c.1 0 .1 0 0 0l.2.2c.1 0 .1.1 0 .1H19c-.1 0 0-.1 0-.1-.1 0-.1-.1 0-.2zm-5.2 4.9-.1-.1c0-.1.2-.1.2-.1.1.1.1.1 0 .2 0 .1 0 0-.1 0zm13 5.4.6-.6c-.1.2-.4.5-.6.6zm1.3.6c.1 0 .1-.1.2-.1 0 0 0-.1.1 0v.1l-.3.3H28v-.1c0-.1 0-.1.1-.2zm-13.8-5.8c-.1.1-.1.1-.2 0l-.1-.1v-.1c.1 0 .1-.2.2 0 .1 0 .1 0 .1.1v.1zm-1.9-2 .1.1c-.1.1-.1.1-.2 0-.1 0-.1-.1 0-.1 0-.1 0-.1.1 0zm6.3-3s-.1 0-.1-.1c.1-.1.1-.1.2-.1.1.1.1.1 0 .2 0 .1-.1 0-.1 0zm-1.4-1.8s.1 0 .1.1c-.1.1-.1.1-.2 0l-.1-.1v-.1c0 .1.1 0 .2.1zm-.4-.2c.1-.1.1-.1.2 0 0 0 .1.1 0 .1s-.1.1-.1 0h-.2l.1-.1zm5.4 10.3-.1-.1v-.1l.3.3v.1h-.1s-.1-.1-.1-.2zM17.8 11c-.1-.1-.1-.2-.2-.2v-.1s.1-.1.1 0c.1.1.1.2.1.3zM12 16.6c-.1-.1-.1-.1 0-.2s.1.1.1.1v.1c0 .1 0 .1-.1 0zm9.9 9.3.1-.1v.2l-.1.1h-.1c0-.1 0-.1.1-.2-.1 0-.1 0 0 0zm4.4-4.4c.1 0 .1-.1.1-.1.1.1 0 .1-.1.2s-.1.1-.2 0c.1-.1.2-.1.2-.1zm-6-5.9c0 .1 0 .2-.1.3h-.1s-.1 0-.2-.1c.2 0 .3-.1.4-.2zm4 10.3c.2.1.1.4 0 .6v-.6zm-.6 1.2c-.1.1-.6.2-.6 0 .1.1.4 0 .6 0zm.5-4c.2.1.4.4.4.5-.1-.2-.3-.3-.4-.5zm-2.1-7.5c-.1 0-.2-.1-.3-.1v-.1c.1.1.2.1.3.2zm6.9 9.8s.1-.1.1 0c0 0 .1.1 0 .2 0 .1 0-.1-.1-.2 0 .1 0 .1 0 0zM22.5 19c.1.1 0 .1 0 .1s-.1.1-.1 0V19c0-.1 0-.1.1 0zm.1-2.1s0-.1 0 0h.1l-.1.1s-.1.1-.1 0l.1-.1c-.1 0 0 0 0 0zm-.6-.5c0-.1.1-.1.1-.1.1.1.1.1-.1.1.1.1.1.1 0 0-.1 0 0 0 0 0zm1.8 4.5s.2-.1.2 0c0 0 0 .1-.1.1 0 0-.1.1-.1 0v-.1zm-1.5 3.7s.1.1 0 .1c-.1.1-.1 0-.1 0s-.1-.1 0-.1c.1-.1.1-.1.1 0zm-2.5-5.8s-.1.1 0 0c-.1 0-.2-.1 0 0-.1-.1 0-.1 0-.1s0-.1.1 0c0-.1 0-.1-.1.1 0-.1 0-.1 0 0zm-.2-3.3c0-.1 0-.1 0 0-.1-.1-.1-.1-.1-.2h.1l.2.2v.1l-.2-.1c.1 0 .1 0 0 0zm3.7 9.4c.1 0 0 .2 0 .2h-.1s.1-.1.1-.2zm-1.9-1.5c0 .1-.1.2-.1.2v-.1c0-.1 0-.1.1-.1-.1-.1-.1-.1 0 0zm2.1 7.5h.3v.1c-.1-.1-.2-.1-.3-.1zm-1-6.1c0-.1.1-.1 0 0 .1 0 .2 0 .1.1-.1 0-.1 0-.1-.1-.1 0 0 0 0 0zm1.6-3.9s.1-.1.1 0h-.1c.1.1 0 .1 0 0-.1 0 0 0 0 0zm-2.2 1.9-.1.1c0-.1.1-.1.1-.1v-.1h.1l-.1.1c.1 0 .1 0 0 0zm7.6 3.9s-.1-.1 0 0c0-.1 0-.1 0 0h.1c-.1.1-.1 0-.1 0zm-6-5.5c0 .1 0 .1 0 0-.1.1-.1 0 0 0v-.1h.1s0 .1-.1.1c.1 0 .1 0 0 0zm-1-2.1c.1-.1 0-.2-.1-.2h.1l.1.1s0 .1-.1.1zm-6.6.1-.1-.1.2.2-.1-.1zm9.5 3.7h.2c-.1.1-.1.1-.2 0 0 .1 0 .1 0 0-.1 0 0 0 0 0zm-6.9-10.3c.1-.1.1-.2.1-.2h.1v.1c-.1 0-.2.1-.2.1zm4 6.6c0 .1-.1.1-.1.1l-.1-.1v-.1h.1c-.1.1 0 .1.1.1zm1.5 6.9-.5.5.5-.5zm-2.6-2.3c.1 0 .1.1.1.1-.1.1-.1 0-.1-.1-.1.1-.1.1 0 0zm2.5.5c-.2-.1-.3-.3-.4-.4l.4.4zm-2.3-1.2s.1-.1.1 0h-.1c0 .1-.1.1 0 0-.1 0-.1 0 0 0zm.6-.7c.1 0 .1 0 0 0 .2 0 .1.1 0 0 .1.1 0 .2 0 0 0 .1 0 .1 0 0zm1-.9s0-.1 0 0c.1 0 0 0 0 0 0 .1 0 .1 0 0-.1.1 0 0 0 0zm-1.9 2.2s0-.1 0 0c.1 0 .1 0 0 0 0 .1 0 .1 0 0-.1 0-.1 0 0 0zm1.3-1.6s0-.1 0 0c.1 0 0 0 0 0 0 .1 0 .1-.1.1l.1-.1zm-7.1-3.3c0 .1 0 .1 0 0 0 .1-.1.1 0 0-.1.1-.1.1 0 0-.1 0 0 0 0 0zm3.8-3.8c.1-.1.1-.1 0 0 .1 0 .1 0 0 0 .1.1 0 .1 0 0zm.6.5c.1-.1.1-.2.2-.2-.1 0-.1.1-.2.2zm2.9 6.3c.1 0 .1 0 0 0 .2 0 .1 0 0 0 .1.1.1.1 0 0 0 .1 0 0 0 0zm-2.1-6.6c0 .1-.1.1-.2.2 0-.1.1-.2.2-.2zm6.3 14s0-.1 0 0c0-.1 0-.1 0 0 .1-.1.1 0 0 0z"/><path fill="#010101" d="M23.3 31.3c-.1-.1-.2-.1-.2-.1s-.1 0-.1-.1l-.4-.4-.1-.1-.9-.9c-.6-.7-1.3-1.3-2-2l-.3-.3-.1-.1-.7-.7c-.5-.6-1.1-1.1-1.7-1.7l-.5-.5c-.1-.1-.2-.2-.3-.4l-.3-.3c-.2-.2-.5-.5-.8-.7l-.7-.7-.4-.4-1.2-1.2-1.1-1.1-2.3-2.3c0-.1-.2-.3-.3-.4l-.7-.7c-.1 0-.1-.1-.1-.1s0-.1.1-.2l.6-.6.7-.7.1-.1s0-.1-.1-.1c-.1-.1 0-.2 0-.3.4-.4.8-.8 1.2-1.1.1-.1.2-.2.4-.3l.3-.3 1.2-1.2.5-.5c.1-.1.2-.2.4-.3l.3-.3.5-.5.1-.1.2-.2c.1-.1.1-.1.2 0 0 0 .1 0 .1.1h.1l1-1 .4-.4v-.1h.1c.1 0 .1 0 .1.1l.9.9 1.4 1.4.5.5c.2.1.3.3.5.4l.5.5.5.5c.4.4.8.8 1.2 1.1l.6.6.7.7.9.9.3.3.8.8.9.9.9.9.5.5.8.8.9.9c.2.2.4.5.7.7l.3.3.9.9.1.1c.2.1.3.3.5.5v2.3c0 .2 0 .4-.2.6v.1c.1.1 0 .1 0 .2l-.2.2-.3.3-.2.2c-.2.1-.3.1-.5 0h-.4c.1.1 0 .1 0 .2l-.1.1c-.1 0-.1 0-.1-.1h-.1l-.1.1-.5.5-.2.2.2.2c0 .1.1.1.1.2v.1s0 .1-.1.1l-.3.3h-.2l-.1-.1-.1-.1-.1-.1-.1-.1h-.1l-.5.5-.2.2-.1.1v.1s.1.1 0 .1l-.1.1v.4c0 .2 0 .4-.2.6-.2.2-.4.5-.6.6H26.2c0 .1-.1.1-.2.1h-1.5c-.5-.1-.8-.1-1.2 0 .1 0 .1 0 0 0zm.3-.6-.1.1-.2.2v.1c0 .1.1.1.1.1H24.6c.3 0 .7-.1 1-.1h.1c.1 0 .1 0 .2-.1l.1-.1v-.1l-1-1-.1-.1-.1-.1-.6.6s.1 0 .1.1c.2.1.1.2.1.3v.1h.6v.1h-.1H25.2l-.2.1H23.6v-.1c0-.1.1-.1.1-.1h.1c-.1.1-.1.1-.2 0 .1.1.1.1 0 0zm-.5.3c0 .1.1.1 0 0 .1.1.1.1 0 0 .1.1.1 0 0 0 .1 0 0 0 0 0zm-.9-4.4c-.1 0-.1 0 0 0l-.3.3-.9.9-.5.5v.1l.4.4.6.6 1.1 1.1.5.5.1.1s.1 0 .1-.1l.1-.1.1-.1c.1-.1.2-.1.1-.3 0-.2.1-.2.2-.3-.1 0-.2-.1-.2-.2s0-.1.1-.2v.2c0 .1 0 .2.1.2 0 0 .1 0 .1.1l.1.1.1-.1.2-.2.3-.3.1-.1-.3-.3v-.1c0-.1 0-.1.1-.1l.3-.3.3-.3.9-.9.7-.7v-.1l-.7-.7-.4-.4-.7-.7c-.1-.1-.3-.2-.4-.4l-.3.3-.1.1v.1c.2.2.3.4.4.5l.1.1c.1.1.1.3.1.5v.1l-.6.6-.1.1s0 .1-.1.1H23.6c-.1 0-.3 0-.4-.1-.1-.1-.3-.2-.4-.3-.1 0-.1-.1-.2-.1-.3 0-.4 0-.4-.1zm1.4 4.3zm.3 0h.1s0-.1.1-.1v-.2l-.1.1s0 .1-.1.2zm-.1 0zm2.2-.1zm-.2-2.6-.3.3-.8.8-.1.1.1.1c.1.2.3.3.5.5l.5.5.3.3.2.2s.1-.1.2-.1l.4-.4c.2-.2.2-.4.1-.6 0-.2 0-.5.1-.7.1-.1.1-.2.2-.3l.1-.1c.1-.1.2-.2.2-.3l.3-.3-.9-.9-.9.9h-.2zm-2.1 2.5c.1 0 .1 0 0 0 .1 0 .1 0 0 0 .1.1.1 0 .1 0s0-.1.1-.1l.1-.1.1-.1c-.1 0-.1-.1-.1-.2h-.2s-.1.1-.1.2v.3zm.3-.5zm2.7-3.3-.1.1-.3.3-.6.6-.2.2-.2.2c-.2.2-.4.4-.6.7l.1.1.1-.1.7-.7.3-.3.1-.1.9-.9v-.1c-.2.1-.2 0-.2 0zm.3 2.3zm-2.4-.4-.3.3v.1s0-.1.1-.1c.1-.2.2-.3.2-.3zm-.6-5.5c-.1 0-.1.1-.2.2l-.1.1-.1.1v.1l.1.1.2.2c.2.1.4.3.6.5l.3.3c.3.2.5.5.8.7l.2.2.4.4.7.7c.1 0 .1.1.2.1.1.1.2.2.4.3.2.1.3.3.5.5l.5.5c0-.1.1-.1.2-.2V28c-.2-.2-.4-.5-.6-.7l-.5-.5-.3-.3-.6-.6c-.4-.5-.9-.9-1.3-1.3l-.2-.2-.6-.6-.2-.2-.3-.3H24zm-3.6 5zm-2.5-2.9s0 .1 0 0c.1.1.1.2.1.3.1.3.3.5.5.7l.5.5.3.3.4.4.7.7h.1c.3-.3.6-.6.9-.8l.1-.1.2-.2.3-.3.1-.1H22l-.2.1.1-.1-.3-.3-.5-.5c-.1-.1-.2-.2-.4-.3H19.6c-.4 0-.7-.1-1.1-.3-.5-.2-.9-.5-1.2-.8l-.1-.1v.2h-.1c-.1-.7-.1-.8-.1-.8-.1-.2-.2-.4-.3-.5l-.1-.1c-.1-.2-.2-.3-.3-.5l-.1-.1c-.1-.1-.1-.2-.2-.3-.1-.1-.2-.2-.2-.3-.1-.1-.2-.3-.3-.4l-.1-.1-.1-.1c-.1-.1-.2-.2-.2-.3l-.3-.3c-.1-.1-.1-.1-.2-.1-.3 0-.5-.1-.7-.3-.1-.1-.2-.4-.2-.6 0-.2.1-.4.3-.6l.1-.1h.1v.1s0 .1-.1.1l-.2.2.1-.1s.1-.1.2-.1v-.1c.1-.1 0-.1 0-.2l-.4-.4-.5-.5-.4-.4-.5-.5-.8-.8c-.4-.4-.8-.7-1.1-1.1 0 0-.1 0-.1-.1-.2.2-.5.4-.7.5-.3-.1-.5.1-.7.2-.1.1-.2.1-.2.2-.1 0-.1.1-.2.1l.5.5.3.3.4.4.9.9 1.5 1.5.8.8.6.6.6.6.8.8.7.7.9.9 1.1 1.1.4.4c-.2-.1-.3-.2-.2-.4zM28 28zm.4-.4zm-.9-1 .7.7s.1.1.1.2l.2-.2.4-.4c.3-.3.6-.4 1.1-.3.2.1.4 0 .6-.2l.2-.2.2-.2.1-.1-.1-.1-.6-.6c-.1-.2-.3-.3-.4-.5l-.3-.3-.7.7.3.3c.1.1 0 .1 0 .2 0 0-.1.1-.2 0l-.2-.2-.1-.1-.1-.1v.1l-.2.2c-.3.4-.7.7-1 1.1zm-3.9.6zm-.7-.1.1.1-.1-.1zm.9-.1c-.1.1-.1.1 0 0 0 .1 0 0 0 0zm-1.7-.7c.2.3.4.4.6.6l.1.1c.1.1.3.2.6.1V27s0-.1-.1-.1l-.1-.1v-.1c-.3.1-.5.1-.8-.1-.1 0-.2-.1-.2-.2l-.1-.1zm1.3.6c0 .1.1.1 0 0l.1.1v-.1l.3-.3c-.1.1-.1.2-.2.2 0 .1-.1.2-.2.1.1.1.1.1 0 0 .1.1 0 0 0 0zm.7-.4-.4.4c.1 0 .2-.1.3-.2 0 0 0-.1.1-.2zm2.7.3c0 .1 0 .1 0 0 0 .1 0 .1 0 0 0 .1 0 .1 0 0zm-3.4 0c.1 0 .1 0 0 0 .1.1.1.1 0 0 .1.1.1.1.1 0l.5-.5-.2.2-.1.1c-.1 0-.2.1-.3.2zm3.2-.1s0 .1-.1.1l.1-.1c0 .1.1.1 0 0 .1 0 .1 0 0 0zm-3.2 0c-.1.1-.1.1 0 0-.1.1-.1.1 0 0-.1.1-.1.1 0 0-.1.1 0 .1 0 0zm.8-.1c0 .1-.1.1-.1.2l.3-.3c-.1-.1-.1 0-.2.1zm-.8.1zm6.1 0c.1 0 .1 0 0 0 .1 0 .1 0 0 0 0-.1 0-.1 0 0 0-.1 0-.1 0 0 0-.1 0-.1 0 0zm-6.1-.1.4-.4c-.1.2-.2.3-.4.4zm-1.1-.4.1.1c.1.1.1.2.2.2.2.1.5.1.7 0 .2-.1.4-.3.4-.5.1-.2.1-.5-.1-.7l-.2-.2s0-.1-.1-.1c0 .1 0 .1-.1.2 0 .1-.1.1-.2.2h-.1c-.3.1-.5.3-.5.6 0 .1 0 .1-.1.1.1.1 0 .1 0 .1 0-.1-.1-.1-.1-.1l.1.1c-.1-.1-.1-.1 0 0-.1-.1-.1 0 0 0-.1 0-.1 0 0 0zm1.9.1v.1l-.1.1.1-.1h.1c-.1 0-.1-.1-.1-.1zm-2.1.2s.1 0 0 0c.1 0 .1 0 0 0zm5.3 0 .2-.2.6-.6.4-.4h-.1l-.1-.1-.1.1-.4.4s-.1.1-.1.2l-.3.3s-.1 0-.1.1c-.1 0-.1.1-.2.1 0 0 .1 0 .2.1.1-.1.1-.1 0 0 0-.1 0 0 0 0zm-.2-.1h.1c0-.1 0-.1-.1 0 .1-.1.1 0 0 0zm-5.1 0zm5-.1zm-5.1 0zm.1 0zm1.9-.1zm-2.1-.1c0 .1.1.1 0 0 .1.1.1.1 0 0 .1.1.1.1 0 0 .1 0 .2 0 .2-.1l.1-.1s.1-.1.2 0v-.1c.1-.3.3-.6.7-.7h.1V25c0-.1 0-.1-.1-.2-.1 0-.1-.1-.2-.1h-.1s0 .1-.1.1h-.2s-.1 0-.1.1c-.1.1-.2.2-.3.4 0 0 0 .1-.1.1s-.2.1-.3.2c0 .1-.1.1-.1.1l.1.1.1-.1c.1-.1.1-.1.3-.2l.1-.1-.1.1v.1h.2l-.1.1c-.2.3-.2.4-.3.4zm3.5-2.7-.2.2-.2.2c-.1.1-.1.1 0 .2.4.4.7.7 1.1 1.2l.6.6.4.4c.2-.2.4-.4.7-.6l.5-.5h.1c0-.1-.1-.1-.1 0-.1.1-.2 0-.3 0h-.1V25v.1h-.1c-.1 0-.1-.1-.1-.1h-.1v-.1h-.1l.1-.1v-.1c-.1 0-.1-.1-.1-.2v-.1L27 24h.5V24.3v-.1.1h.1v-.1h.1s0-.1.1 0l.1-.1c.1-.1.2-.2.2-.3h.1l.1.1c.1.1.1.3 0 .5v.1l.1-.1.6-.6c.1-.1.1-.1.2 0l.3.3h.1l.3-.3.1-.1 1-1 .1-.1s0-.1-.1-.1l-.7-.7c-.6-.6-1.3-1.2-1.9-1.9l-.4.4-.4.4-.2.2c-.1.1-.3.3-.4.5v.2l-.1-.1c.1.1.1.1.1.2s.1.1.1.2.1.1.1.2l.1.1c.1.2.1.4.1.6v.2l-.7.7s-.1.1-.2.1h-.1c-.3.1-.5 0-.7-.1-.1-.1-.2-.2-.3-.2-.1-.1-.2-.2-.3-.2.4.2.4.2.3.1 0 .1 0 0 0 0zM24 26s.1 0 .1.1v-.2c0-.2-.1-.3-.2-.5v-.2c.1.5.1.7.1.8-.1 0 0 0 0 0zm-1.8.1zm-.4 0zm6.6-1.1s0 .1 0 0l-.6.6-.5.5s.1 0 .1-.1l.3-.3c0-.1.1-.1.1-.2l.4-.4.2-.1c0 .1 0 0 0 0zm-6.6 1c.1 0 .1-.1.2-.1v-.1l-.2.2c.1 0 0 0 0 0zm-.1 0zm2.5-.2.2.2c0-.1-.1-.1-.2-.2.1 0 0 0 0 0l-.1-.1c.1 0 .1.1.1.1zm7-.1s0 .1 0 0c0 .1 0 .1 0 0zm-10.7-.9c.1 0 .1 0 .2.1.2.2.4.5.7.7l.1.1.1-.1.1-.1v-.1c0-.2.1-.4.3-.6l.1-.1c-.2.2-.3.1-.4 0l-.2-.2-.3-.3-.1-.1s0-.1.1-.1c-.1-.1-.1-.2-.1-.3 0-.2.1-.3.2-.5l.3-.3.3-.3.1-.1.3-.3V22l-.2-.2v-.1l-.1-.1s0-.1.1-.2.1 0 .1 0l.1.1.2.2h.1l.5-.5.3-.3.1-.1.3-.3c.2-.1.4-.1.5 0 .1 0 .1.1.2.1s.2.1.2.1l.1.1c.1-.3.2-.5.2-.8v-.6c0-.3 0-.6-.1-.8-.1-.3-.2-.6-.4-1-.2-.3-.4-.6-.6-.8-.2-.2-.4-.4-.7-.5l-.1-.1-.1-.1h-.1c-.1 0-.1-.1-.2-.1-.2-.1-.3-.3-.5-.4-.1-.1-.2-.1-.4-.2-.1 0-.1 0-.2-.1 0 .1-.1.3-.2.4h.5l-.2.1h.1c.4.2.7.4.9.8.2.4.2.8 0 1.3-.1.2-.2.4-.3.5h.1s.1.1.1.2-.1.1-.2.2l-.1.1h-.2l-.1-.1h-.1c-.3.3-.7.4-1.2.4-.4 0-.8-.2-1.1-.5l-.3-.6c0-.1-.1-.3-.1-.4 0-.2 0-.4.1-.6.1-.2.2-.5.4-.7.2-.2.4-.4.7-.5.1-.1.2-.1.4-.1h-.5l-.1.1v-.6c0 .1-.1.2-.1.3v.2H20c-.1 0-.1 0-.1-.1-.1 0-.2-.1-.3-.1h-.1v-.1c.1 0 .1 0 .2-.1l.1-.1.2-.2h.1V15H20.4l.1-.1v.1h.2c.1 0 .1-.1.1-.1l-.1-.1c-.1-.1-.1-.1-.2-.1 0 0-.1.1-.2.1l-.2.2c-.2.2-.4.4-.6.5l-.1.1H19.1v-.1l-.1-.1-.1-.1v-.2h.2l.1.1.1.1.2-.2-.6-.6V14.8l.1.1v.1h-.1s-.1 0-.1.1-.1.1-.1.1-.1 0-.1-.1l-.1-.1c-.1 0-.2 0-.3-.1l-.1-.1v.1c0 .1 0 .1-.1.1 0 0-.1 0-.1-.1v-.4c-.2.2-.5.4-.7.7l-1.7 1.7-.8.8-.2.2h.5v.2h-.4c.1 0 .2.1.3.2v.1c0 .1 0 .2.1.2v.1c0 .1-.1.1-.1.1-.1 0-.1.1-.1.1l-.1.1s-.1 0-.1-.1-.1-.1-.2-.1l.5.5.1-.1.1-.1-.1-.1s0-.1.1-.2l.1-.1v.1l.2.2h.1v.2l-.4.4-.1.1.4.3c-.1.1-.2.2-.3.4-.1.1-.1.2 0 .3.1.2.3.4.4.6.1.1.1.2.2.3.1.1.1.2.2.3.1.1.2.2.2.3.1.1.2.2.2.3l.3.3c0 .1.1.1.1.2.1.1.2.2.2.3.1.2.2.3.3.5.2.2.4.4.6.5 0 0 .1 0 .1.1v.1h-.1c-.2-.1-.4-.3-.5-.4-.2-.2-.4-.4-.6-.7-.1-.1-.2-.3-.3-.4-.1-.1-.1-.2-.2-.2-.1-.1-.1-.2-.2-.3-.1-.1-.1-.2-.2-.3l-.1-.1c-.1-.1-.1-.2-.2-.3-.1-.1-.2-.3-.3-.4l-.1-.1-.1-.1c-.1-.1-.1-.2-.2-.3 0-.1-.1-.1-.1-.1v.1s0 .1.1.1c.1.1.2.2.2.3.1.2.2.3.3.5.1.1.1.2.2.3 0 .1.1.1.1.2.1.2.2.3.4.5s.3.4.4.6c0 .1.1.1.1.2s.1.1.1.2c.1.2.3.3.4.4.3.3.7.6 1.1.8.6.2 1.1.4 1.8.3h.2H19.8h.1c.4-.5.5-.5.6-.5-.1 0 0 0 0 0zm10.3-1.2-.2.2-.5.5c.4.4.8.8 1.1 1.2h.1c.1-.1.2-.2.2-.3v-.6c0-.5.1-1 .1-1.4V22.9l-.5.5c-.2.1-.3.2-.3.2zM29 25.5c.1 0 .1 0 0 0 .1 0 .1.1 0 0l.1.1c0-.1 0-.2-.1-.1.1-.1.1-.1 0 0 .1 0 0 0 0 0zm-7.2-.1s.1 0 0 0c.1 0 .1 0 0 0zm7.2 0zm-.1-.1v.1s.1 0 0-.1c.1.1.1.1 0 0 .1.1.1.1 0 0 .1 0 .1 0 0 0zm-5.5-.4s.1.1 0 0c.1.1.1.1.2.1l.2.2v.1-.1l.1.1c-.1-.1-.1-.2-.2-.2l-.1-.1c-.1-.1-.1-.1-.2-.1.1 0 .1 0 0 0 0-.1 0-.1-.1-.2l-.1-.1c.1 0 .1.1.1.1 0 .2 0 .2.1.2zm-1.2 0c-.1.1-.1.1 0 0-.1.2-.2.2-.2.4 0-.1.1-.1.1-.2.1-.1.1-.2.2-.2 0-.1-.1 0-.1 0zm1.1.4zm5.5 0c0-.1 0-.1 0 0 0-.1 0-.1 0 0v-.1.1c0-.1 0-.1 0 0 0-.1 0-.1 0 0zm-.2-.2s0 .1 0 0c0 .1 0 0 0 0zm0-.1c.1 0 .1 0 0 0 .1.1.1.1 0 0l.1.1-.1-.1c.1.1.1.1 0 0v-.1.1zm.2.1zm-8.2-.1zm2.7 0zm6.2-.9-.4.4-.3.3v.1c0 .1.1.1.1.1s.1 0 .1-.1c.1-.1.2-.1.2-.2l.1-.1.3-.3c0-.1 0-.1-.1-.2zm-1 .7c0 .1 0 .1 0 0v.1-.1c0 .1 0 0 0 0zm-5.9-.1.1.1c.2 0 .3.1.4.2v-.1c-.1-.1-.3-.1-.4-.1.1-.1 0-.1-.1-.1.1 0 .1 0 0 0zm1.2-.1-.2.2v.1s0-.1.1-.1l.2-.2h-.1c.1-.1.1-.2.2-.2h-.2l-.2-.2c-.1-.1-.1-.1-.2-.1l-.1.1-.1.1c-.1 0-.1.1-.2.1l.2.2.1.1s0 .1.1.1l.1.1h.1l.2-.3zm4.8.3zm-6.1-.1s.1.1 0 0c.1.1.1 0 0 0 .1 0 .1 0 0 0 .1 0 .1 0 0 0 .1 0 .1 0 0 0zm5.9 0zm.2 0c.1 0 .1 0 0 0l.4-.4.4-.4.1-.1h-.1l-.6.6-.2.3c.1-.1.1 0 0 0 .1 0 0 0 0 0zm-.2-.1c0 .1 0 .1 0 0 0 .1 0 .1 0 0 0 .1 0 .1 0 0zm-.4 0c0 .1-.1.1 0 0-.1.1-.1.1 0 .1s.1 0 .2-.1l.1-.1.1-.1c.1-.1.1-.2.1-.3l-.5.5zm.3.1zm-5.9 0zm5.1-.2c.1 0 .1.1 0 0l.1.1.1-.1h-.1c-.1-.1-.1-.1 0-.2 0 .1 0 .1-.1.1v.1zm.4.1zm-5.7 0zm.1-1.4c-.1 0-.1 0-.2.1-.2.1-.3.3-.4.5l-.2.2c-.1.1-.1.1 0 .2s.2.3.4.4l.1.1c.1 0 .1 0 .2-.1l.2-.2c.2-.2.3-.3.5-.4.1-.1.2-.1.3-.1h.4c.1.1.2.2.4.3l-.1-.1-.3-.3s0-.1-.1-.1v-.2s.1-.2.2-.1c0 0 .1 0 .1-.1s.1-.1.1-.2h.4V22.9h.1c0-.1.1-.2.1-.3 0-.1.1-.2.2-.3l.1-.1c.2-.1.3-.3.5-.5.1-.1.1-.2 0-.2l-.4-.4-.3-.1h-.1l-.3.3-.1.1-.1.1c-.2.1-.2.3-.2.4v.2l-.1.1-.3.3-.6.6c-.2.2-.3.3-.5.2zm0 1.3c-.1 0-.1 0 0 0-.1 0-.1 0 0 0 0 .1 0 .1 0 0v.1-.1c.1.1.1.1 0 0 .1 0 0 0 0 0zm5.5-.1v.2-.2c.1 0 .1 0 0 0h.2v-.1c-.1 0-.1.1-.2.1zm.1.1c.2-.1.3-.2.4-.3l-.1.1c-.2.1-.2.2-.3.2zm-5.2 0c-.1 0-.1 0 0 0-.1 0-.1 0 0 0-.1 0-.1 0 0 0zm-.3-.1.1.1.1-.1h.4l-.3-.3v-.1l-.1.1-.1.1c0 .1 0 .1-.1.2 0-.1 0 0 0 0zm4.9-.3c.1 0 .1.1.1.2h.1l-.2-.2c.1 0 .1 0 0 0 .1 0 0 0 0 0zm-3 .2zm5.6 0zm-5.9-.1c.1 0 .1 0 0 0 .1 0 .1 0 0 0 .1 0 .1 0 0 0 .1 0 .1 0 0 0 .1 0 .1 0 0 0zm3.3 0zm-4.4 0c.1 0 .1 0 0 0zm5.5-.1s.1.1 0 0c.1 0 .1 0 0 0zm-4.3 0zm-.8-.3c-.1.1-.2.1-.2.2l-.1.1.3-.3c0 .1 0 0 0 0zm3 0c.1 0 .1.1.2.1s.3 0 .4-.2c-.2.1-.4.1-.6.1zm-1.6-.1.1.1v-.1h-.1c.1 0 .1 0 0 0 .1 0 0 0 0 0zm-3.3.1zm4.6-.2.1.1v-.1c0 .1-.1.1-.1 0zm-2.6.2c.1 0 0 0 0 0zm-1.9 0zm-.2-.1c.1 0 .1-.1.1-.1s0 .1-.1.1c.1 0 0 0 0 0zm5.2-.3c0 .1 0 .1 0 0V23.8h.1l.1-.1h-.2c.1 0 0-.1 0-.2 0 .1 0 0 0 0zm-9.4.3zm8.7-.3c.2.1.3.2.5.3h.2l-.1-.1v-.1c-.2 0-.4 0-.6-.1zM24 21c-.1 0-.2 0-.3.2l-.1.1c0 .1-.1.1-.1.2-.1.1-.2.2-.4.3l-.2.2-.8.8-.2.2-.1.1-.3.3c-.2.2-.1.3 0 .5.1-.2.3-.3.5-.5 0 0 .1-.1.2-.1h.2c.1 0 .2 0 .2-.1l.7-.7.2-.2V22c0-.1 0-.1.1-.2l.2-.2.3-.3c0-.2-.1-.3-.1-.3zm2.5 2.8zm.7-.2c0 .1-.1.1-.1.1l.2-.2-.1.1zm-2.5.1c.1-.1.2-.1.2-.2l.1-.1v.1l.2-.2v-.2l-.1-.1c-.2-.1-.3-.3-.4-.4-.1.1-.2.2-.3.4l.2.2.1.1c.1.1.1.1.1.2l-.1.2c0-.1 0 0 0 0zm-3.4 0zm3.3 0s0-.1 0 0c0-.1 0-.1 0 0zm-3.4-.1c0 .1 0 0 0 0 .1 0 .1 0 0 0 .1 0 .1 0 0 0h.1-.1zm5.7-.3-.1.1-.1.1h.1l.3-.3.2-.2v-.1l-.1.1-.3.3zm.4 0-.3.3.3-.3zm-3.7.3c.1 0 .1-.1.1-.1l-.1.1c0-.1 0-.1 0 0zm-2.3-.2c0 .1 0 .1 0 0v.1-.1zm4.2-.1.1.1v-.1h.1c-.1-.1-.2-.1-.2-.2V23l-.1-.1c-.1 0-.1 0-.1-.1v.1l.1.1.1.1c-.2.1-.2.1 0 .2-.1-.1-.1 0 0 0-.1 0-.1 0 0 0-.1 0-.1 0 0 0-.1 0-.1 0 0 0zm1.2 0c-.1.1-.1.1-.2.1l.2-.1zm-1.2-.2c.2.2.3.3.6.3.4 0 .7-.2.9-.5.1-.2.1-.6-.1-.8l-.1-.1-.1-.1c0 .2 0 .2-.2.3-.3.1-.5.4-.6.7 0 0 0 .1-.1.1-.2 0-.3 0-.3.1zm0 .3zm-4.2 0zm6.3-.2c0 .1-.1.1-.1.2 0-.1.1-.1.1-.2zm-6.2.1c.1 0 .1 0 .1-.1 0 0-.1 0-.1.1zm2.5-.1c-.1 0-.1.1-.1.1.1 0 .1-.1.1-.1zm3.7.1zm-.1-.6c0 .1 0 .3-.1.5.1-.1.1-.2.1-.3.1 0 .1-.1 0-.2zm-3.6.5zm.1 0zm3-.4v.1c0 .1-.1.2-.1.2l.1-.1.1-.1c-.1 0-.1 0-.1-.1zm.3.2s0 .1 0 0c.1.1 0 0 0 0zm-5.6 0 .1-.1s-.1 0-.1.1zm5.4 0c0-.1.1-.1 0 0 .1-.1.1-.1 0 0 .1-.1 0-.1 0 0zm-.1-.1zm-2.7 0c.1-.1.1-.2.2-.2-.1 0-.1.1-.2.2zm2.9-.1s.1 0 .2.1c0-.2 0-.4-.1-.5-.1-.2-.3-.4-.4-.6h-.1l-.1-.1.2.2c.2.2.2.4.2.7 0 .1 0 .2.1.2-.1 0 0 0 0 0zm-1.8.1zm.2 0zm-.1-.1zm6 0zm-6.2-1.1c-.3.3-.4.7-.1 1l.1.1c-.1-.2-.2-.3-.2-.5 0-.3.2-.5.5-.7 0 0 .1 0 .1-.1-.1.1-.3.1-.4.2zm.9-.5-.1.1-.1.1c-.1 0-.1.1-.1.2 0 0-.1 0-.1.1-.3.1-.4.3-.5.6-.1.2.1.5.3.6 0-.1.1-.3.2-.4.1-.1.3-.2.5-.3h.1V22l.1-.1.1-.1v-.1l-.1.1-.1.1v-.2h-.1v-.2l.2-.2v-.1c-.2.1-.3 0-.3 0zm-1.6 1.2c.1.1.1.1.2.1l.2.2c0-.1-.1-.2-.1-.3 0-.2 0-.4.1-.6l-.1.1c-.1.1-.2.2-.3.2v.3zm0 .1v.1-.1c.1.1 0 .1 0 0zm-2.6.2c.1 0 .1 0 0 0 .1 0 .1-.1.1-.1l-.1.1c.1-.1 0-.1 0 0zm5.4-.2zm-5.1-.2c.1 0 .1.1 0 0 .1.1.1.1 0 0 .1 0 .1-.1.1-.1.1.1 0 .1-.1.1.1 0 .1 0 0 0zm.3-.2zm-.1 0zm-.3-.3s0 .1 0 0l.1.1.1.1-.2-.2zm.5.2c.1 0 .1-.1.2-.1-.2 0-.2.1-.2.1zm3.8-.1zm.4-.1zm-3.9-.1c0 .1 0 .1 0 0 0 .1 0 0 0 0 .1 0 .1-.1.2-.1l-.2.1zm3.8 0zm.1-.1s0 .1 0 0c0 .1 0 .1 0 0 0 .1 0 .1 0 0 .3-.2.5-.4.7-.6.2-.2.4-.3.5-.5l.1-.1.3-.3h-.1V20l-.3-.3c-.3-.4-.7-.7-1.1-1.1l-.4-.4-.3-.3c-.1-.1-.1-.1-.2-.1s-.1 0-.2-.1h-.1v-.2l.1.1c.1 0 .1 0 .2.1l-.2-.2c-.2-.2-.3-.4-.5-.5-.3-.2-.5-.5-.7-.8l-.8-.8-.8-.8c-.3-.3-.5-.6-.8-.8l-.7-.7-.4-.4-.3-.3-.3-.3c-.6-.6-1.1-1.2-1.6-1.6l-.1-.1-.2-.2c-.1-.2-.3-.3-.5-.5l-.3-.3-.5-.5-.1-.1-.2-.2c-.1-.2-.1-.3-.2-.4-.1.2-.3.4-.4.6-.2.2-.4.3-.5.5-.1.2-.3.3-.4.5l-.1.1v.1l1.3 1.3.1.1v-.1c0-.1.1-.1.1-.1s.1 0 .1-.1l.1-.1.1-.1v-.2c.1-.1.2-.1.3-.1h.1c.1 0 .1-.1.1 0 0 0 .1 0 .1.1s.1.1.1.2v.4s-.1.1-.2.1c.1.1.2.3.3.4.1.1.2.2.2.3 0 .1.1.1.1.2l.1.1s.1 0 0-.1l-.1-.1h.1c.1 0 .2.1.2.3v.1h-.1s-.1 0-.1.1c.1.2.3.5.6.6.1.1.1.2.1.3v.1l.1.1c0 .1.1.1.3.1.1 0 .2-.1.3-.2 0 0 0-.1.1-.1-.1 0-.2.1-.3.2 0 0-.1.1-.2 0s0-.1 0-.2c.1-.1.3-.2.5-.3.3-.1.5 0 .7.1.3.2.4.4.4.7v.2c0 .2.1.2.2.3.2.1.4.3.6.4.1.1.3.2.4.3l.2.1.2.2c.1.1.3.2.5.3.1.1.2.2.3.2.1.1.2.2.4.3.1 0 .1.1.1.1.1.1.1.1.2.1 0 0 .1 0 .1.1l.1.1.2.2c.1.2.3.3.4.5.1.2.2.3.3.5v.1c.1.1.1.3.2.5 0 .1.1.3.1.4v1.2l.5.5.3.3c.1.3.2.4.5.6-.1 0-.1 0 0 0-.1 0-.1 0 0 0-.1 0 0 0 0 0zm.2 0s0 .1 0 0c0 .1 0 .1 0 0 0 .1 0 0 0 0zm-2.1-.3.1.1c.1.1.1.1.1.2v.1c.1-.1.2-.2.4-.2h.1c.1 0 .2-.1.3-.1l.1-.1.1-.1.1-.1-.2-.2-.5-.5-.1-.1c-.1 0-.1-.1-.1-.2 0-.5 0-.9-.1-1.4h-.1.2c-.1-.3-.2-.6-.4-.9-.2-.4-.5-.7-.8-1-.2-.2-.4-.3-.6-.4-.1-.1-.2-.2-.3-.2-.1-.1-.2-.1-.2-.2-.1-.1-.2-.2-.3-.2l-.2-.2c-.1 0-.1-.1-.2-.1s-.1-.1-.2-.1c-.1-.1-.2-.1-.2-.2l.2.2.3.3.3.3c.1 0 .1.1.2.1.1.1.2.2.3.2l.3.3c.1 0 .1.1.2.1s.1.1.2.1c.2.2.5.4.6.6l.1.1.1.1-.2-.1c-.2-.3-.4-.5-.7-.7-.1-.1-.2-.1-.3-.2-.1-.1-.2-.1-.3-.2-.2-.1-.3-.3-.5-.4-.1-.1-.2-.1-.3-.2-.1-.1-.3-.2-.4-.3-.1-.1-.2-.2-.3-.2-.1 0-.1-.1-.2-.1-.1-.1-.2-.1-.2-.2 0 0 .1 0 .1.1.2.2.4.3.6.5l.1.1c.1 0 .1.1.2.1.1.1.2.1.2.2.1.1.3.2.4.3l.2.2c.1 0 .1.1.2.1 0 0 .1.1.2.1.1.1.2.1.3.2l.1.1c.2.1.3.3.4.4l.1.1c.1.1.2.2.3.4l.3.6c.2.6.3 1.1.3 1.7V20.8c0 .1-.1.3-.1.4-.3-.1-.3 0-.3.1zm1.7.3zm-.4 0h.1v-.1l-.1.1c0-.1 0-.1 0 0zm-.5-.1zm-2.5-.1h.1l.1-.1c-.1 0-.2.1-.2.1zm2.6 0zm.5 0zm-2.2-.4s.1.1 0 0c.1.1.1.1 0 0h.2c-.1 0-.1 0-.1-.1l-.1.1c.1-.1.1-.1 0 0zm-.6.1c.1 0 .1 0 0 0 .1 0 .1 0 .2-.1v-.1l-.2.2zm.4-.1c0-.1 0-.1 0 0 0-.1 0-.1 0 0 0-.1 0 0 0 0zm0-.1h-.1c0 .1 0 0 .1 0-.1 0-.1 0 0 0zm.2 0s-.1 0 0 0zm-.1-.1s0 .1 0 0c0 .1 0 .1 0 0 0 .1 0 .1 0 0zm.1.1zm-9.5-.3zm-.7-.3c.2.2.3.2.6.2h.2H14.5c-.3 0-.4-.1-.5-.2-.1-.1-.1-.2-.2-.3 0 .1.1.2.2.3zm-.1-.5c0 .1 0 .3.1.4.1.1.2.2.3.2h.4c.1 0 .1 0 .1-.1l.3-.3.1-.1-.5-.5-.1-.1-.1-.1v.1c.2 0 .4.1.4.3v.2s.1.1 0 .1c0 0 0 .1-.1.1 0 0-.1 0-.1.1s-.1.1-.1.1-.1 0-.1-.1h-.1c-.2 0-.4-.1-.4-.4v-.1c0 .2 0 .2-.1.2.1 0 0 0 0 0zm11.5.4c0 .1 0 .1 0 0 .1.1.1.1 0 0 .1.1.1.1 0 0 .1 0 .1 0 0 0 .1 0 .1 0 0 0 .1 0 .1 0 0 0 .1 0 .1 0 0 0 .1 0 .1 0 0 0zm-10.4 0 .3-.3.1-.1.1-.1-.1.1-.1.1-.1.1s0 .1-.1.1l-.1.1c.1-.1.1 0 0 0zm-.4-.1c.1 0 .1 0 0 0 .1.1.1.1 0 0h.1s0-.1-.1 0c.1-.1.1 0 0 0 .1 0 0 0 0 0zm10.6-1.5v.1c.1.4.1.8.1 1.2v.2V19.8c0-.3 0-.6-.1-.8.1-.2.1-.3 0-.4zm-11 1.2c.1 0 0 .1 0 0-.1.2 0 .2 0 .2s.1 0 .1.1l.1-.1h.2v-.2h.1c0-.1-.1-.2-.2-.2l.1.2-.2-.2-.1-.1.1.1.1.1h-.2l-.1.1c.1-.1.1 0 0 0 .1 0 .1 0 0 0zm14.5.2zm-14.6-.2zm.3-1.2-.1.1s0 .1.1.1l.1.1.8.8.1-.1-.4-.4-.2-.2-.1-.1s-.2-.1-.3-.3c0 .1 0 0 0 0zm-.4 1c0 .1 0 .1 0 0 0 .1 0 .1 0 0 0 .1 0 .1 0 0 0 .1 0 0 0 0zm1.6 0c.1-.1.3-.2.4-.3v.1l-.1.1c-.1 0-.2.1-.3.1zm-1.5-.1c0 .1 0 .1 0 0 0 .1 0 .1 0 0l.1.1v-.1l-.1-.1c.1.1.1.1 0 .1zm6.3-.2c.3.2.7.2 1.1 0 .2-.1.4-.1.5-.3l.1-.1.1-.1c.4-.3.5-.8.5-1.3 0-.2 0-.3-.1-.5 0 0-.1.1 0 .1.1.4.1.7-.1 1.2-.2.4-.6.7-1 .9-.3.1-.6.1-.9 0-.1.1-.1.1-.2.1zm-6.1.1.1-.1v-.1.1c-.1-.1-.1 0-.1.1 0-.1 0-.1 0 0zm6 0zm0-.2s0 .1 0 0c0 .1 0 .1 0 0 0 0 .1 0 0 0 .1 0 .1 0 0 0 .1 0 0 0 0 0zm-.1-2.3s0 .1 0 0c-.3.4-.4.7-.4.9 0 .2 0 .5.1.7.1.1 0 .2-.1.2l-.1.1s0 .1.1.1l.3.3c0-.1.1-.1.1-.2h.2c.3.1.6.2 1 0 .2-.1.4-.2.5-.3-.1-.1-.1-.2-.2-.2l-.1-.1v-.2l-.1-.1-.3-.3c-.4-.3-.6-.6-1-.9.1.1 0 0 0 0zm.3 2.3zm1.9-.2c-.1.1-.1.1 0 .1V19c.1 0 .1 0 0 0zm-6.9-.1s-.1 0 0 0c-.1 0-.1 0 0 0-.1 0-.1 0 0 0zm-.6-.2s0 .1 0 0c.1.2.1.2.2.2v-.1l.1.1h.2v-.2h.1v-.1c-.1-.1-.1-.1-.2-.1v.1h-.1v.1h-.1v.2H15c0-.3 0-.3-.1-.2.1 0 .1 0 0 0zm.2.2zm4.6-.2c0 .1 0 .1 0 0 .1 0 .1 0 0 0 .1 0 .1-.1.1-.1l-.1.1c.1-.1.1 0 0 0 .1 0 .1 0 0 0 .1 0 .1 0 0 0zm-5.1-.2.2.2v-.2h-.2c.1 0 .1-.1 0 0 .1 0 0 0 0 0zm7-.3.1.1.2.2.2.2c.2-.2.3-.5.4-.8 0-.3 0-.5-.1-.8-.1-.1 0-.2.1-.3l.1-.1v-.1l-.1-.1-.1-.1v.1s-.1.1-.2 0-.3-.1-.4-.1h-.4c-.3.1-.5.2-.7.4l1.2 1.2c-.3.1-.3.1-.3.2zm-7.6.3c0 .1 0 .1 0 0 0 .1.1.1 0 0l.1.1.1-.1H14c.1 0 .1 0 0 0 .1 0 .1 0 0 0zm1.4.1zm4.7-1.9c-.2.2-.4.5-.5.8-.1.3-.1.6.1 1 .1-.1.1-.1.1-.2-.1-.2-.1-.5 0-.8.1-.5.4-.8.7-1 .3-.2.6-.3.9-.3.2 0 .4 0 .5.1.1 0 .1 0 .2-.1-.3-.2-.7-.2-1-.1-.5.2-.8.4-1 .6zm-.3 1.8zm-5.4 0zm-.5 0zm.9-.2s0 .1 0 0c.1.1.1.1 0 0l.1.1h.1v-.1l-.3.3c0-.2 0-.2.1-.3-.1.1-.1.1 0 0-.1 0 0 0 0 0zm-.9.1c.1.1.1.1.1 0l.1-.1s0-.1-.1-.1h-.1c-.1 0-.1 0 0 .2-.1-.1-.1-.1 0 0 0-.1 0-.1 0 0zm.3 0 .1-.1-.1-.1-.1-.1-.1-.1s-.1 0 0 .1c.1-.1.2 0 .2 0l.1.1c-.1 0-.1.1-.1.2zm1.2-1.1c-.3.3-.6.6-.9.8-.1.1-.1.1-.1.2l.1-.1.3-.3c.1-.1.2-.2.4-.3l.2-.2v-.1zm-1.7 1zm.7-.1zm-2-1.3s0 .1 0 0l.2.2.3.3.2.2.2.2.1.1.3.3v-.1l-.3-.3-.1-.1-.5-.5-.2-.2c0-.1-.1-.1-.2-.1zm2.6 1.3zm.1 0s.1 0 0 0c.1 0 .1 0 0 0zm-.1 0c.1 0 .1-.1 0 0 .1-.1.1-.1 0 0 .1-.1 0-.1 0 0zm-2.5-1.9.1.1h.1c.1.1.1.2.2.2l.3.3c.2.1.3.3.4.4l.3.3.1.1.3.3h.1l.2-.2V17.5l.1.2-.1-.2.2.1.1-.1c.1 0 .1-.1.2-.2l.2-.2V17h-.1l.2.1V17h.1v-.1l-.1-.1h.1s.1 0 .1.1h.1l.1-.1.2-.2v-.2l-.1-.3.2.2c.1-.1.1-.1.1-.2l-.1-.1c-.4-.3-.7-.7-.9-.9l-.4-.4-.1.1-.2-.2.1.1-.1.1-.1-.1-.2-.2c-.1 0-.1.1-.2.2l-.2.2h-.1l.1.1v.1l.1.1.1-.1c-.1 0-.1-.1-.1-.1h-.1l-.1.1-.2.2-.1.1s-.1 0-.1.1v.1h-.2l.1.1.3.3-.3-.2-.1-.1-.1.1-.1.1-.1.1v.1h-.1v.1l.1.2-.2-.1v.1l-.1-.1zm2.7 1.8h.1-.1zm.3 0zm-2.2-.7.1.1.4.4c-.2-.2-.3-.4-.5-.5-.2-.3-.3-.4-.5-.6l.1.1.1.1c0 .1.1.2.3.4-.1-.1-.1 0 0 0zm2.2-.1c.1 0 .1 0 .1-.1l.2-.2.7-.7c.1 0 0-.1 0-.1l-.1-.1v.1c-.2.4-.6.7-.9 1.1zm7-.2zm.1-.2c0 .1 0 .1 0 0-.1.1-.1.1 0 0 0 .1 0 .1 0 0 0 .1 0 .1 0 0 0 0 .1 0 0 0 .1 0 .1 0 0 0zm-10.5-.2.2.2s-.1 0-.1-.1l-.1-.1c.1.1.1.1 0 0 .1.1 0 0 0 0zm.2-.1-.1.1h.1s.1 0 .1-.1c0 .1 0 .1-.1 0 .1 0 0 0 0 0zm.3.2c.1 0 .1-.1.1-.1l-.1.1c.1-.1 0-.2 0-.2l-.1-.1-.1-.1c.1 0 .1 0 .2.1-.1.1 0 .2 0 .3zm11.5-.2c0 .1 0 0 0 0zm-12.1 0c.1 0 .1 0 0 0 .1 0 .1 0 0 0h.1c0-.1 0-.1-.1 0 .1-.1.1-.1 0 0v-.1.1zm.1-.1zm-.2 0zm11.3 0c.1 0 .1 0 0 0 .1 0 .1 0 0 0 .1 0 .1 0 0 0zm-1.2 0s.1 0 0 0c.1 0 .1 0 0 0 .1 0 .1 0 .1-.1l-.1.1c.1-.1.1-.1 0 0zm0-.1zm-10.3-2.5c-.3.3-.6.5-.8.8l-.2.2-.1.1s0 .1-.1.1l.4.4.7.7.2.2.5-.5.5-.5.6-.6c.2-.2.4-.4.5-.6l.5-.5v-.1l.1.1c.4-.4.9-.8 1.3-1.3l.1-.1.5-.5.4-.4.1-.1-.1-.1-.3-.3h-.1v-.1l-.2-.2-.5-.5h-.1l-.2.2-.4.4-.6.6v.2h-.2l-.6.6-.5.5v.2H13c-.3.3-.6.6-1 .9l-.2.2v.2c0-.2 0-.2-.1-.2.1 0 .1 0 0 0zm-3.3 2.4c.1 0 .1 0 0 0 .1 0 0 0 0 0zm4 0zm1-1.2-.3.3-.8.8-.1.1c.2-.2.5-.4.7-.6l.3-.3c.2-.2.4-.4.6-.5l.5-.5.1-.1s.1-.1.1 0l-.1-.1-.8.8-.2.1zm-.1-4.5-.3.3-.8.8-.5.5-.9.9-.9.9-.1.1v.1c.1.1.1.1.1.2s0 .1-.1.2l-.4.4-.9.9c-.1.1 0 .1 0 .1l.1.1s.1 0 .2-.1c.3-.2.5-.4.8-.6.2-.1.3-.2.5-.3.3-.2.6-.5.9-.8l.1-.1.8-.8.5-.5c.4-.3.8-.7 1.2-1.1l.5-.5c.2-.2.5-.5.8-.7l.8-.8c.1-.1.2-.3.3-.4.1-.1.1-.2.2-.3-.2-.1 0-.3.1-.5s.2-.3.4-.5V8c0-.1-.1-.1-.1-.1l-.7.7-.2.2-.5.5c-.1.1-.2 0-.2 0l-.1-.1s-.1 0-.1.1l-.9.9-.6.4zm3.1 5.6zm.2-.2c0 .1 0 .1 0 0 .1.1.1.1 0 0l.1.1.3-.3-.2.2c-.1 0-.1.1-.2 0zm-8.4.1zm13.2-.1c.1 0 .1 0 0 0zm-5.4-.3.2.2s0-.1-.1-.1l-.1-.1c.1.2.1.1 0 0 .1.1.1.1 0 0 0 .1 0 .1 0 0zm5.2.2c0 .1 0 .1 0 0 0 .1 0 .1 0 0 0 .1 0 .1 0 0 .1 0 0 0 0 0zm-.4-.2c.1.2.1.3.3.3 0-.1.1-.1.1-.1h.1v.1c.1 0 .2-.1.2-.2.1-.1.1-.2.1-.3 0-.1 0-.2-.2-.3 0 0-.1 0-.1.1h-.1s-.1-.1 0-.1c-.2.1-.4.2-.4.4h.1l.1.1v.1c-.1-.1-.2-.1-.2-.1zm.5.3zm-.8-.1H20.8c-.2-.2-.2-.5 0-.7-.1 0-.1.1-.2.2l-.1.1c.1.1.1.1.1.3l-.1.1zm-4.3-.3.3.3c0-.1 0-.1-.1-.1 0-.1-.1-.2-.2-.2zm3.9.3h.1v-.2c0 .1-.1.1-.1.2zm-4.4-1 .2.2.6.6s.1.1.1.2V15.6h.1v-.1l.1.1v-.1h.2l.2-.2s.1-.1.2-.1v-.1h.1l.1-.1.1-.1.1-.1s.1 0 .1-.1v-.1h.1c.1 0 .1 0 .1-.1l.1-.1.1-.1v-.2l-.1-.2h.1v-.1l.1.1-.1-.2.2.1.1.1.1.1.1-.1.1-.1-.1-.1c-.3-.3-.7-.6-1-.9l-.3-.3-.3-.3.1.2-.2-.2-.1-.1h-.1l-.2.2v.1h.1l.3.2-.4-.1h-.2l.2.3-.1-.1.1.1.2.3-.4-.4-.2-.2-.2.2-.3.3-.1.1.1.1h-.2v.1l-.1-.1-.1.1.1.1v.1l-.1-.1c0-.1-.1-.1-.1-.1l-.1.1-.1.1s0 .1.1.1l-.2.4.3.3.2.2.1.1.1.3zm4.2 1s.1 0 0 0c.1 0 .1-.1 0 0 .2-.1.2-.2.3-.2l.1-.1.1-.1v-.1c-.1.1-.2.2-.2.3l-.1.1-.2.1c.1-.1.1-.1 0 0zm-3.7-.1c.1.1.1 0 0 0zm.8-.1c.2-.1.3-.3.5-.4l.3-.3.1-.1.9-.9c-.2.1-.3.3-.5.4l-1 1c0 .1-.2.2-.3.3zm-1.3-.4.3.3-.3-.3zm1.2.3zm-2-1.3.3.3.5.5.5.5-.9-.9-.1-.1c-.1-.1-.2-.1-.3-.3 0 .1 0 .1 0 0zm5.8 1.2c0 .1 0 .1 0 0 .1.1.1.1 0 0 .1.1.1.1 0 0h.1-.1c.1 0 .1 0 0 0 .1 0 .1 0 0 0zm-.9.1zm0-.1c.1 0 0 0 0 0zm2 0c.1 0 .1 0 0 0 .1 0 .1 0 0 0 0-.1 0 0 0 0zm-2.2-.2zm.5-.1c.1 0 .1 0 0 0zm.7-.1h.1-.1zm-1.5 0zm-.7 0zm.7 0zm2-.1c.1 0 .1.1.1.1h.1c-.1-.1-.2-.1-.2-.1 0-.1-.1-.1 0 0-.1-.1-.1-.1 0 0h-.1.1zm-1.1.1zm0 0zm.7 0zm-.7-.1c.1.1.1.1 0 0 .1 0 .2-.1.3-.2l.1-.1-.1.1s0 .1-.1.1c0 .1 0 .1-.2.1.1 0 .1 0 0 0zm-9.8.1zm8.2-.5c0 .1 0 .1 0 0v.5-.5zm.4.4v-.2l.1.1h.2v-.1l-.1-.1.1.1v-.1c0-.1-.1-.2-.2-.2v.1h-.2v.2h-.2l.1.1h-.2v.1h.4zm-8.7 0zm9.4-.5.2.2.3.3h.1l-.1-.1c-.2-.2-.3-.4-.5-.5l-.1-.1c-.1-.1-.1-.1-.2-.1h-.1v-.1h-.1s-.1 0-.1.1c.3-.1.5.1.6.3zm-8.9.1-.4.4.4-.4zm9.2-.2.3.3.1.1.1-.1.2-.2.1-.1v-.1c0-.2 0-.3-.1-.5s-.3-.3-.6-.3H20s.1 0 .1.1h.1c.3 0 .4.1.4.3 0 .1 0 .1.1.2v.2s0 .1-.1.1c0 .1 0 .1-.1.1h-.2c0-.1-.1-.1-.2-.1H20zm-.7-.1.4.4.1.1-.3-.3c0-.1-.1-.2-.2-.2.1 0 0 0 0 0zm1.7.3zm-6.5-.3c.1.1.2.2.3.2l.1.1c-.2-.1-.3-.2-.4-.3-.1 0-.1 0 0 0zm4 .2c.1.1.1.1 0 0 .1.1.1.1 0 0 .1 0 .1 0 0 0l.1-.1h.1l.1.1.1-.1s-.1 0-.1-.1c-.1 0-.2.1-.3.2zm-8.8-.1c0 .1 0 0 0 0zm10.6-.1c.1 0 .1 0 .2.1l-.1-.1s0-.1-.1-.1v-.1h.1V14l.1-.1h.1v-.1l-.1-.1v.1h-.1c-.1.1-.1 0-.1 0v.1h-.2V14.2c0 .1.1.1.2.1-.1 0-.1 0 0 0zm-5.5-.3c-.1 0-.1 0 0 0 0 .1 0 .2.1.2l.2.2.1.1-.1-.1c-.2-.2-.3-.3-.3-.4zm6.3.4zm-.6-.1s.1.1 0 0c.1.1.1.1 0 0 .1 0 .1 0 0 0h.1c0-.1 0-.1-.1 0 .1-.1.1 0 0 0zm-1.6-.1c.1.1.1.1.3.1l-.2-.2c0 .1 0 .1-.1.1.1 0 .1 0 0 0 .1 0 .1 0 0 0zm1.4-.9c.1 0 .3 0 .4.1.3.2.3.5.3.8v-.4c-.1-.3-.3-.4-.7-.5h-.2c0 .1.1 0 .2 0zm-.6.8.2.2c0-.1-.1-.1-.1-.2V14c.1 0 .1 0-.1.1.1-.1.1 0 0 0zm.7.1zm-5.7-.3-.1.1.2.2s0-.1-.1-.1c-.1-.1 0-.2 0-.2zm.7-3.9-.4.4-1 1-.6.6-.6.6-1.4 1.4.2-.2.3-.3.7-.7.4-.4.4-.4 1.4-1.4c.2-.1.4-.3.6-.6 0 .1.1 0 0 0 .1 0 .1 0 0 0zm3.6 4s.1 0 0 0c.1 0 .1 0 0 0 .1 0 0 0 0 0zm.5 0h.4v-.1h-.1c-.2.1-.3.1-.3.1 0-.1-.1 0 0 0h-.1.1zm.6-.1zm-.7 0zm.6-.1c.1.1.1 0 .1 0h.1c-.2-.1-.2 0-.2 0zm-5.3 0c.2-.1.3-.2.4-.3l.8-.8.1-.1c-.4.4-.8.8-1.2 1.1l-.1.1zm3.9-.2.2.2v-.1c-.1.1-.1 0-.2-.1 0-.1-.1-.1 0-.2l-.1.1c-.1 0 0 0 .1.1-.1 0-.1 0 0 0zm.4-.1c0 .1 0 .1 0 0v.2h.1l.1-.1c-.1.1-.1 0-.2-.1.1.1.1.1 0 0 .1.1.1.1 0 0zm-7.2.3zm6.9-.3c0 .1.1.1 0 0 .1.1.1.1.1 0l.1-.1v-.1h-.1c-.1.1-.1.1-.1.2zm.5 0s0 .1 0 0c0 .1 0 .1 0 0 0 .1 0 .1 0 0 0 .1 0 0 0 0zm.9.1s.1 0 0 0c.1 0 0 0 0 0zm-1.8-.1zm.5-.2s.1 0 0 0l.1.1.1.1-.1-.1c0-.1 0-.1-.1-.1.1 0 0-.1 0 0 0-.1 0-.1 0 0zm-.3-.6c.1.2.2.3.4.5l.1.1.2.2c-.2-.1-.3-.3-.4-.4-.1-.2-.1-.3-.3-.4.1 0 .1 0 0 0 .1 0 .1 0 0 0 .1 0 .1 0 0 0 .1 0 .1 0 0 0zm-1.2-.4c.1.1.1.2.2.3l.1.1.3.3c.1.1.2.2.4.3-.2-.2-.4-.3-.5-.5l-.3-.3-.1-.1-.1-.1zm.4.2.2.2c.2.2.4.3.5.5h.2s.1 0 .1-.1l-.3-.3c-.2-.3-.5-.5-.8-.8-.1 0-.1-.1-.2-.1 0 .1.2.3.3.4v.2zm.8.4.2.2-.2-.2zm-1.4-1.4.2.2.6.6.4.4v-.1c-.1-.2-.2-.4-.4-.6-.2-.2-.4-.4-.6-.5h-.2c.1 0 .1 0 0 0zm1.3 1.1s.1.1 0 0c.1.1.1.1 0 0 .1 0 .1 0 0 0zm-5.4 0zm5.6 0zm-5.5 0zm5.3-.1zm-2.3 0c.2-.1.4-.3.6-.5l.1-.1v-.1l-.1.1-.1.1c-.2.2-.4.3-.5.5zm2.4 0zm.2-.1s0 .1 0 0c0 .1.1.1 0 0 .1 0 0 0 0 0zm-2.4.1zm2.2-.1zm.2 0zm-1.7-.3.2.2h.1s.1 0 .1-.1c-.3 0-.3-.1-.4-.1v-.2l-.1.1.1.1c-.1-.1-.1-.1 0 0zm.1-.2.1.1.1-.1c-.1-.1-.1-.1-.2 0 0-.1 0-.1 0 0zm-.3.1zm.3-.1zm.2-.1s.1 0 0 0c.1.1.1.1 0 0 .1 0 .1 0 0 0l-.1-.1.1.1zm-.4-.1c.1 0 .1 0 0 0l.1.1-.1-.1c.1-.1.1-.1 0 0 0-.1 0-.1 0 0zm.5-.3c.2.1.2.1.3.2 0-.1-.1-.1-.1-.2l-.1-.1-.1.1zm-.1 0s0 .1 0 0zm-3 0zm2.8-.2s0 .1 0 0c.1.2.1.2.1.1.1 0 .1-.1.2-.1l.1-.1s0-.1-.1-.1l-.1-.1-.1.1-.1.2zm.6.1s.1 0 0 0c.1 0 .1 0 0 0l.1-.1-.1.1c.1-.1.1 0 0 0zm-.2-.5c-.1 0-.1 0 0 0l-.1.1c.1.1.2.2.2.3l-.2-.2.1-.2zm.1-.1.1.1s0 .1.1.1c0-.1-.1-.1-.2-.2.1 0 .1 0 0 0 .1 0 0 0 0 0zm-.2 0h-.1c0 .1 0 .1.1 0-.1 0 0 0 0 0zm.2 0zm-2.2-.8c.1 0 .1 0 0 0 .1 0 .1 0 0 0 .1 0 .1 0 0 0zm1.4-1.8zm-.3-.3s.1 0 0 0c.1 0 .1.1 0 0 .1 0 .1 0 0 0 .1 0 .1 0 0 0z"/><path d="m16 19.6.1-.1s0-.1.1 0v.1l-.2.2v.1l.2-.2c.1-.1.1-.1.1 0s0 .1-.1.2c-.1 0-.1 0-.2.1-.1 0-.1 0-.1.1s.1.1.1.1c.1 0 .1 0 .2-.1.1 0 .1 0 .1.1V20.5h-.1l-.1-.1c-.2 0-.3 0-.4.1h-.1c-.1 0-.1 0-.1.1h-.1v.2c.1.1.2.3.2.4 0 .1.1.1.1.2l-.2-.2c-.2-.2-.3-.4-.5-.6-.1-.1-.1-.1 0-.2l.9-.9.1-.1h-.1l-1 1c-.1.1-.1.1 0 .2.2.2.3.4.4.6.1.1.2.3.3.4.1.1.1.2.2.3.1.2.3.3.4.5.2.3.4.5.6.8.2.2.4.5.6.7.3.3.7.5 1.1.7.4.1.7.2 1.1.3h.7c.3 0 .6-.1 1-.2 0-.1-.1-.1-.1 0-.2.1-.4.1-.6.1-.7.1-1.3 0-2-.2-.6-.2-1.1-.6-1.5-1.1-.2-.2-.3-.5-.5-.7v.2l-.1-.1c-.1-.1-.2-.3-.3-.4-.3-.3-.5-.6-.6-1 0-.1-.1-.2-.1-.2v-.1h.1c.1.2.4.2.6.1 0 0 .1 0 .1-.1 0 0 0-.1.1 0h.1v-.4c0-.2 0-.3-.1-.5h-.1c-.1 0-.2 0-.3.1h-.1c0-.1 0-.1.1-.1.1-.1.3-.1.4-.1v-.1s-.1.1-.1 0l-.3-.9c-.1-.2 0-.4.2-.5l.7-.7 1-1c.3-.3.6-.6.9-.8.2-.1.3-.2.5-.1.1 0 .2.1.3.1 0-.1 0-.1-.1-.1s-.1 0-.2-.1-.2 0-.3 0c-.1 0-.2.1-.3.2-.2.2-.5.4-.7.7l-.9.9-1 1c-.1-.3-.1-.2-.1 0v.2c-.1.1.1.2.1.2.1.2.1.2-.1.4.1 0 .1 0 0 0zm.4 1.1c-.1.1-.1 0-.2 0v.1c-.1.1-.2.1-.4.1 0 0-.2 0-.1-.1h-.2.1c-.1-.1 0-.1 0-.2h-.1.1s.1 0 .1-.1c.1-.2.3-.2.4 0h.2c0 .1-.1 0-.1 0 .1 0 .1 0 .1.1s0 .1-.1.1h.2zm-.8-.2s0 .1 0 0v.2c-.1-.1-.1-.1 0-.2zm.8 0v.1s-.1-.1 0-.1z"/><path fill="#010101" d="M20.1 24.8h-.3c-.4 0-.8-.1-1.1-.3-.4-.2-.8-.4-1.1-.7-.2-.2-.4-.5-.6-.7-.1-.1-.2-.2-.2-.3-.1-.2-.2-.3-.3-.5l-.2-.2c-.1-.1-.2-.2-.2-.3 0 0 0-.1-.1-.1 0-.1-.1-.1-.1-.2l-.2-.2-.2-.2c-.2-.2-.3-.4-.4-.6-.1-.1-.1-.2 0-.3l1-1s0-.1.1 0v-.1s-.1-.1-.1-.2V18.6c0-.1 0-.2.1-.3l.3-.3c.2-.2.5-.5.8-.7l.5-.5.4-.4.3-.3.4-.4.1-.1.2-.2h.5c.1 0 .1.1.2.1v.1h-.2c-.1 0-.1-.1-.2-.1-.2-.1-.3-.1-.4.1-.3.3-.6.6-.9.8l-.2.2-.8.8-.1.1c-.2.2-.5.4-.7.7-.1.1-.2.3-.1.5 0 .1.1.3.1.4.1.1.1.3.2.5h.1V19.9h-.1c-.2 0-.3 0-.4.1h.4v1.1s-.1.1-.1 0l-.1.1c-.2.1-.4.1-.6 0 0 .1.1.1.1.2.1.4.3.7.6 1 .1.1.2.2.2.3 0 .1.1.1.1.2v-.1l.1.1c.1.2.2.5.5.7.4.5.9.8 1.5 1.1.6.2 1.2.3 1.9.2.2 0 .4-.1.6-.1h.1l.1.1c-.4.1-.7.2-1 .2h-.1c-.2-.3-.3-.3-.4-.3zm-3.3-2c.1 0 .1 0 0 0 .1 0 .1 0 0 0zm-.7-3.4-.4.4-.6.6c-.1.1-.1.1 0 .2.1.2.3.4.4.5v.1c0-.1-.1-.2-.2-.3V20.6h.1v-.1s.1 0 .1-.1h.1c.1-.1.3-.2.4-.1.1 0 .1.1.2.1V20.1h-.1c-.1 0-.1 0-.2.1h-.1l-.1-.1c0-.1 0-.1.1-.1V19.7l.3-.3zm-.4 1.3c.1 0 .1 0 0 0 .1.1.1.1 0 0v.1h.2c.1.1.2 0 .3-.1h.1s.1 0 .1-.1h-.1l.1-.1h-.1s-.1-.1-.2-.1-.2 0-.2.1c0 0 0 .1-.1.1s-.1 0-.1.1zm.7 0c0 .1 0 .1 0 0 0 .1 0 0 0 0zm.1 0zm-.1 0zm-.1-1.1c-.1 0-.1 0 0 0-.1.1-.1.1-.2.1h.2v-.1zm-.2-.6s0 .1 0 0c0 .1 0 0 0 0z"/><path d="M18.7 22.1c-.3.3-.3.6-.1.9.2.3.6.3.9 0 .3-.3.3-.7.1-.9-.2-.3-.6-.3-.9 0zm.3.3.1-.1c.2-.2.2-.2.3 0 .1.1 0 .1 0 .1l-.3.3c-.2.2-.2.2-.3 0v-.1c.1-.1.2-.1.2-.2zm-.2.6c.3.1.6.1.8-.3.2-.4 0-.6-.3-.8.3 0 .4.2.4.5 0 .2-.2.5-.3.6-.2.1-.5.1-.6 0zm.7-.4c.1.1 0 .2 0 .2-.1.1-.1 0-.1-.1-.1-.1 0-.1.1-.1 0-.1 0-.1 0 0zm-.5-.3c0 .1-.1.1-.1 0 0 0-.1-.1 0-.1 0 0 .1-.1.2 0-.1 0-.1 0-.1.1zm-.4.1c0-.2.3-.5.5-.4-.2 0-.4.1-.5.4zm0 0c0 .2 0 .4.2.5-.2 0-.3-.3-.2-.5zm.5.5s.1-.1.1 0c0 0 .1 0 0 .1 0 0-.1 0-.1-.1-.1 0 0 0 0 0zm-.3-.5c0 .1-.1.1 0 .2v.1-.1c-.1-.1-.1-.2 0-.2-.1 0-.1-.1 0 0-.1-.1-.1-.1 0 0zm-.1.3.2.2c-.1 0-.2-.2-.2-.2zm.2-.2c.1-.1.2-.3.4-.4l-.4.4zm0-.1c.1-.1.1-.2.2-.2l-.2.2zm.2.4c.1-.1.1-.2.2-.2 0 .1-.1.1-.2.2z"/><path fill="#010101" d="M19.1 23.2c-.2 0-.3-.1-.5-.2-.2-.2-.2-.6.1-.9.1-.1.3-.2.5-.2s.3.1.4.2c.3.3.2.7-.1 1-.1 0-.3.1-.4.1zM19 23c0-.1 0-.1 0 0zm-.1-.1c.1 0 .1 0 0 0v-.1c.1.1.1.1 0 .1zm.3-.1s.1 0 0 0c.1 0 .1 0 0 0 .1.1.1.1.1.2h.1c-.1-.1-.1-.2-.2-.2.1 0 .1 0 0 0 .1 0 .1 0 0 0zm-.1.1c.1 0 .1 0 0 0 .1 0 .1 0 0 0 .1 0 .1 0 0 0 .1 0 .1 0 0 0 .1 0 .1 0 0 0zm.1 0zm-.1 0zm.3-.3s0 .1 0 0l-.1.1c.2 0 .2 0 .1-.1zm-.4-.1-.1.1v.1c0 .1.1.1.1.1l.1-.1.1-.1.2-.2-.1-.1s-.1 0-.1.1c0-.1-.1 0-.2.1zm-.3.1c.1.1.1.1 0 0l.1-.1.1-.1h-.1l-.1.2c.1 0 .1 0 0 0 .1 0 0 0 0 0zm0 0zm.8-.1c.1 0 .1.1.1.1v-.3c0-.1-.1-.2-.3-.3H19s0 .1.1.1h.2l.1.1s.1 0 .1.1v.2zm-.8-.1zm-.1 0zm.1-.1s.1 0 0 0c.1 0 .1 0 0 0l.1.1s0-.1-.1-.1c.1 0 .1 0 0 0 .1 0 0 0 0 0zm.2-.2c0 .1 0 .1 0 0-.1.1-.1.1 0 0l-.1.1h.1v-.1c.1.1.1.1 0 0 .1.1.1.1 0 0zm.2-.2h.1-.1z"/><path d="M23 19.5h.1s0 .1-.1.1c-.1.1-.1.1 0 .1l.2.2c-.1.1-.1 0-.2 0s-.1-.1-.1-.1v-.2c-.1.1 0 .2 0 .2.1.2.4.2.6 0l.4-.4c.1-.1.1-.3 0-.4-.1-.1-.2-.1-.4-.1-.1 0-.1.1-.2.2l-.2.2c0 .1 0 .2-.1.2zm.6.1-.2.2c-.1.1-.1.1-.2 0s0-.1 0-.1l.3-.3c.1-.2.2-.2.3 0v.1c-.1 0-.2.1-.2.1zm0 .1-.2.2s-.1.1-.1 0v-.1c.1-.2.3-.3.5-.5h.1v.1c-.1.2-.2.3-.3.3zm-.1-.6c.1-.1.2-.1.3-.1.1 0 .2.1.2.2v.1h-.1l-.1-.1s-.1-.1-.1 0c-.2 0-.2-.1-.2-.1zm-.4.5c.1-.2.3-.3.4-.4-.1.2-.2.3-.4.4z"/><path fill="#010101" d="M23.2 20.1s-.1 0 0 0c-.2 0-.3-.1-.3-.2v-.4.1h-.2.1l.2-.2.2-.2.1-.1.1-.1c.2-.1.3 0 .4.1.1.1.1.4 0 .5l-.2.2-.3.3h-.1zm.1-.1zm-.3-.2s0 .1 0 0c0 .1.1.2.1.2h.1c-.1-.1-.2-.1-.2-.2zm.2.1s0 .1 0 0c.1.1.1 0 0 0 .1 0 0 0 0 0zm.4-.6-.1.1-.3.3.1.1s.1 0 .1-.1l.1-.1.1-.1.1-.1c0-.1 0-.1-.1-.1zm-.6.5c.1 0 .1 0 0 0 .1 0 .1 0 0 0 .1-.1.1-.1 0 0zm.1-.3c.1-.1.3-.2.4-.3h-.1l-.2.2-.1.1zm.8-.1c0-.1 0-.1 0 0 0 0 0-.1 0 0-.1-.1-.1 0 0 0-.1 0 0 0 0 0zm-.2-.3.2.2c0-.2-.1-.2-.2-.2zm-.1.1c.1 0 .1 0 0 0 .1 0 .1 0 0 0 .1-.1 0-.1 0 0 0-.1 0-.1 0 0z"/><path d="M20.8 21.5c0 .1-.1 0 0 0-.2.1-.2.2-.2.3 0 .1.1.1.2.1s.2-.2.1-.3v-.1h.1c.2 0 .4 0 .6-.1.4-.2.6-.7.4-1.1-.1-.2-.4-.4-.7-.3-.3 0-.6.3-.7.6-.1.4-.1.7.2.9zm-.1-.1c-.2-.2-.2-.7.1-1 .3-.3.7-.3 1-.1.3.3.2.7-.1 1-.2.3-.7.4-1 .1zm.2.4c-.1.1-.2.1-.2 0-.1-.1 0-.2 0-.2.1-.1.2-.1.2 0v.2z"/><path fill="#010101" d="M20.8 22c-.1 0-.1 0 0 0-.2 0-.2-.1-.2-.1 0-.1 0-.3.1-.3-.2-.2-.3-.5-.2-.8.1-.3.4-.6.7-.6.3 0 .6.1.7.3.1.2.1.4.1.6-.1.2-.2.4-.4.6-.2.1-.4.1-.6.1 0 0 0 .1-.2.2zm0-.4s-.1 0 0 0l-.1.1v.1h.2c0-.1 0-.1-.1-.2zm0-.1c.1 0 .1.1 0 0 .1.1.1.1 0 0 .1.1.1 0 0 0zm.5-1.3c-.2 0-.4.1-.5.2-.1.1-.2.3-.2.5s.1.3.2.4c.1.1.3.2.4.2.2 0 .4-.1.5-.2.3-.3.3-.7.1-.9-.2-.1-.3-.2-.5-.2z"/><path d="m18.2 16.9.1.1h.1s.1 0 .1-.1v-.2h-.2V16.4c.1-.1.2 0 .3 0v.2h.2c.1 0 .1 0 .1-.1l-.3-.3h-.1l-.2.2c-.2.3-.2.4-.1.5zm.6-.3c-.1 0-.2-.1-.2-.2-.1 0-.1-.1-.2 0s-.1.1-.2.1l.2-.2h.1c.1.2.2.3.3.3zm-.6.2c.2.1.2.1.2.2-.1 0-.2-.1-.2-.2z"/><path fill="#010101" d="M18.4 17.1c-.1 0-.1 0-.1-.1l-.1-.1c-.1-.1-.1-.1-.1-.2H18h.1s0-.1.1-.1c.1-.1.2-.1.2-.2.1-.1.1-.1.2 0l.3.3v.1l-.1.1h-.2v-.2h-.2v.2h.2c.1.1 0 .1 0 .1-.1.1-.1.1-.2.1zm0-.2s0 .1 0 0c0 .1 0 0 0 0 .1 0 .1 0 0 0zm-.3-.1c.1 0 .1 0 .1.1v-.2l-.1.1c0-.1 0-.1 0 0zm.6-.1zm-.2-.2z"/><path d="M16.7 22.1s.1-.1 0 0c0-.3-.1-.6-.1-.8 0-.1-.1-.2-.1-.2v-.2c0 .1-.1.2-.1.3v.2c0 .2.1.4.1.6 0 .1.1.2.2.3 0 0 .1 0 0 .1v.1c0-.1-.1-.1 0-.1l.1.1c-.1 0-.1-.1-.1-.2.1-.1 0-.2 0-.2 0 .1 0 .1-.1.1 0 0-.1 0-.1-.1V22c.1.1.2 0 .2.1zm-.3-.7c.1 0 .1 0 .2-.1V21.6c0 .1 0 .1-.1.2h-.1v-.4c0 .1-.1.1 0 0zm-.1-.2.2-.1s.1.1 0 .2c0 0-.2.1-.2 0v-.1zm.4.7v.2s-.2.1-.2 0c0 0-.1-.1 0-.1 0-.1.1-.2.2-.1zm-.3-.7v-.1c.1 0 .1 0 0 .1z"/><path fill="#010101" d="M16.8 22.6c-.1-.1-.2-.1-.1-.2-.1-.1-.2-.2-.2-.3V22c0-.2-.1-.3-.1-.5v-.2c0-.1 0-.1.1-.2 0-.1.1-.1.1-.2s0-.1.1-.1V21.1c0 .1.1.1.1.2s.1.2.1.4c0 .1 0 .3.1.4v.2c0 .1 0 .1.1.2h.1-.2c-.2-.1-.2 0-.2.1zm-.2-.5s0 .1 0 0c.1.1.1.1 0 0 .1 0 .1 0 0 0 .1 0 0 0 0 0zm-.1-.1h.1v-.1s-.1 0-.1.1zm-.1-.5v.4h.1v-.2c0-.3 0-.3-.1-.2zm0-.2c0 .1.1.1.1 0v-.1s-.1 0-.1.1z"/><path d="M17.1 18.9c.2-.3.2-.4 0-.7-.1-.2-.4-.1-.6.1-.2.2-.2.5-.1.6.3.3.4.3.7 0zm0 0c-.2.2-.4.2-.6 0-.1-.1-.1-.4.1-.6.1-.1.4-.2.5 0 .1.2.2.4 0 .6z"/><path fill="#010101" d="M16.7 19.2c-.1 0-.2 0-.3-.1-.1-.1-.1-.1-.1-.3 0-.2.1-.3.2-.4.1-.1.3-.2.5-.2.1 0 .2 0 .2.1.2.3.2.5 0 .7-.2.1-.3.2-.5.2zm.2-.9c-.1 0-.2 0-.3.1-.1.1-.1.2-.1.3 0 .1 0 .1.1.2s.2.1.3.1c.1 0 .2 0 .3-.1.2-.2.2-.4 0-.5-.2-.1-.2-.1-.3-.1z"/><path d="M23.9 20.1c.1.2.3.2.5.4h.1v-.1c-.1-.1-.2-.1-.2-.3l-.3-.3c-.1-.1-.1 0-.2.1s0 .1 0 .1 0 .1.1.1zm.4.3c-.2-.1-.4-.3-.5-.5.1.1.4.3.5.5z"/><path fill="#010101" d="M24.5 20.6h-.2l-.2-.2c-.1-.1-.2-.1-.2-.2-.1 0-.1-.1-.1-.1l-.1-.1s-.1 0-.1-.1c0 0 0-.1.1-.1l.1-.1h.1l.2.2.1.1v.1c0 .1 0 .1.1.2l.1.1c.1 0 .1.1.1.2 0-.1 0-.1 0 0zm-.3-.4zm-.4-.3c.1 0 .3.1.4.2l-.1-.1c-.1 0-.2-.1-.3-.1.1-.1 0-.1 0 0 0-.1 0-.1 0 0 0-.1 0 0 0 0zm-.1 0s.1 0 0 0c.1 0 .1 0 0 0 .1 0 .1 0 0 0 .1 0 .1 0 0 0 .1 0 0 0 0 0z"/><path d="M17.5 18.5c-.1-.1-.2-.3-.4-.4-.2-.1-.6 0-.8.3-.1.2-.1.4 0 .7l.3.3c-.1-.1-.1-.2-.2-.2-.2-.2-.2-.5-.1-.7.2-.3.5-.4.8-.2.2 0 .3.1.4.2z"/><path fill="#010101" d="m16.6 19.4-.1-.1-.2-.2c-.1-.2-.1-.4 0-.7.2-.3.6-.4.8-.3.2.1.3.2.4.4l.2.3-.3-.2c-.1 0-.1-.1-.1-.1l-.2-.2c-.1-.1-.2-.1-.4-.1-.1 0-.3.1-.3.3-.1.2-.1.4.1.6 0 .1.1.1.1.2l.1.1h-.1z"/><path d="m16.4 20.8-.4.4v.1h.1l.3-.3s-.1-.1 0-.2zm-.1.1-.3.3.3-.3z"/><path fill="#010101" d="M16 21.4s0-.1 0 0c-.1-.1-.1-.1 0 0-.1-.1-.1-.2-.1-.2l.3-.3.3-.3v.1l-.1.1v.2l-.2.2c-.1 0-.1.1-.2.2.1-.1 0 0 0 0z"/><path d="M20.2 24.9h-.6.6z"/><path fill="#010101" d="M20.2 25c-.1 0-.1 0 0 0h-.4s-.1 0-.1-.1v-.1h.6l.1-.2v.2l-.2.2z"/><path d="M18.4 16.7c0 .1.1.1.1.1v-.1c0-.1 0-.1-.1 0z"/><path fill="#010101" d="M18.5 16.8c-.1 0-.1 0 0 0l-.1-.1v-.1c.1-.1.1 0 .2 0v.1l-.1.1zm0-.1c-.1 0-.1 0 0 0-.1 0 0 0 0 0z"/><path d="M23.1 16.5c-.1-.1-.3-.1-.4-.2.1 0 .3.1.4.2z"/><path fill="#010101" d="m23.3 16.6-.7-.3v-.1c.2 0 .3.1.4.2l.3.2z"/><path d="M24.5 17.4c.1.1.1.2.2.3 0-.1-.1-.2-.2-.3z"/><path fill="#010101" d="m24.7 17.7-.2-.3v-.1c.2.1.2.2.2.4.1-.1.1 0 0 0z"/><path d="M17 22.1v.3-.3z"/><path fill="#010101" d="m17 22.4-.1-.6.1.3c0 .1.1.2.1.3H17z"/><path d="M18.1 24.3c.1.1.1.1.2.1-.1 0-.2 0-.2-.1z"/><path fill="#010101" d="m18.5 24.6-.2-.1c-.1 0-.1-.1-.2-.1l-.2-.2.2.1h.1c.1 0 .1.1.2.1l.1.2z"/><path d="M25.1 18.6c0-.1 0-.2-.1-.2.1.1.1.1.1.2.1 0 0 0 0 0z"/><path fill="#010101" d="M25.1 18.7c0-.1 0-.2-.1-.2v-.4l.2.3s0 .1-.1.3h.1-.1z"/><path d="M20.9 25.9c-.3-.3-.7-.3-1.1 0-.4.4-.4.8-.1 1.1.2.3.8.3 1.1 0 .4-.3.4-.9.1-1.1zm0 0c.3.2.2.8-.1 1.1-.3.3-.8.3-1 .1-.3-.3-.3-.7.1-1.1.2-.3.7-.4 1-.1z"/><path fill="#010101" d="M20.3 27.3c-.1 0-.1 0 0 0-.3 0-.4-.1-.6-.2-.3-.4-.3-.8.1-1.2.3-.3.8-.4 1.2 0 .1.1.2.3.2.5 0 .3-.1.5-.3.7-.2.1-.4.2-.6.2zm.1-1.5c-.2 0-.4.1-.5.2-.3.3-.3.7-.1 1 .2.2.7.2 1-.1.1-.1.2-.4.2-.6 0-.2-.1-.3-.2-.4-.1-.1-.2-.1-.4-.1z"/><path d="M8.9 16.2c-.2.1-.2.2-.1.3 0 .1.1.1.1 0h.2c.1.1.3.1.4.1 0 0 .1 0 .1-.1 0 0 0-.1-.1-.1h-.1s-.1 0 0-.1v-.1c-.1-.1-.1-.1-.1-.2v-.1s.1 0 .1-.1h-.1l-.4.4zm.5.4c-.2 0-.5-.2-.5-.3.2.1.3.3.5.3zm-.3-.3c0 .1-.1 0-.1 0h.1c-.1-.1 0-.2.1-.1 0 0 0 .1-.1.1zm-.1-.1s.1-.1.3-.2c-.1.1-.3.2-.3.2zm.2.1c.1 0 0 .1 0 0 0 .1 0 .1 0 0-.1.1 0 .1 0 0z"/><path fill="#010101" d="M9.5 16.7s-.1 0 0 0c-.2 0-.4 0-.5-.2 0 0-.1-.1-.1 0h-.1v-.1c0-.1 0-.2.1-.2l.1-.1c0-.1.1-.2.2-.2h.2c0 .1 0 .1-.1.1v.1c0 .1 0 .1.1.1v.2H9.7c-.1.3-.2.3-.2.3zm0-.1zm-.1-.1zm-.2 0h.2c-.1-.1-.1-.1-.2 0 0-.1 0 0 0 0zm-.4-.2v.1h.1s0-.1-.1-.1zm.3 0c.1 0 .1-.1.1-.1s-.1 0-.1.1zm0-.3s-.1 0-.1.1c0 0 .1 0 .1-.1z"/><path d="M9.9 16.7h.2c.2-.1.4-.3.5-.5.1-.1.1-.4-.1-.4-.2-.1-.3-.1-.5.1-.1.1-.2.2-.4.3-.1.1-.2.2-.1.3.2.1.3.2.4.2l-.1-.1c-.1-.1-.1-.3 0-.4l.4-.4c.1-.1.3-.2.4-.1.1.1.2.2.1.4-.2.3-.4.6-.8.6z"/><path fill="#010101" d="M10 16.8c-.3 0-.4-.2-.4-.3 0-.1.1-.3.1-.3l.3-.3c.2-.2.4-.2.5-.1.1.1.2.3.1.5s-.3.4-.5.5H10zm.4-1.1c-.1 0-.2 0-.2.1l-.4.4s-.1.1 0 .1c0 .1 0 .1.1.2h.1c.3-.1.5-.3.7-.6.1-.2 0-.3-.1-.3-.1.1-.1.1-.2.1z"/><path d="m10.8 17.5.2.2c.1 0 .1.1.2 0s0-.1 0-.2l-.3-.3s-.1-.1-.2 0 0 .1 0 .2c-.1 0 0 .1.1.1zm0 0c0-.1-.1-.1-.2-.2 0 0-.1-.1 0-.1h.2l.3.3s.1.1 0 .1c-.1.1-.1 0-.1 0-.1 0-.2-.1-.2-.1z"/><path fill="#010101" d="M11 17.8s-.1 0-.1-.1l-.1-.1-.1-.1-.1-.1-.1-.1s0-.1.1-.1c.1-.1.2-.1.2 0l.2.2.1.1.1.1s0 .1-.1.1c0 .1 0 .1-.1.1zm-.2-.3.1.1h.1v-.1h-.2c0-.1 0-.2-.1-.2v.1c0-.1 0 0 .1.1z"/><path d="M21.1 27.3c-.1.1-.3.2-.4.4.1 0 .4-.3.4-.4z"/><path fill="#010101" d="m20.6 27.8.1-.1c.1-.1.1-.2.2-.2l.2-.2.1-.2-.1.2c0 .1-.3.4-.4.4l-.1.1z"/><path d="M19.7 11.5c-.1-.1-.1-.2-.2-.2v.1s-.1 0-.1-.1c-.1-.2-.3-.3-.4-.5-.1-.2-.3-.3-.3-.5 0-.1-.1-.2-.2-.3 0 0-.1-.1-.2 0h-.1c-.3.2-.3.4 0 .5.1.1.2.1.3.2.1 0 .1.1.2.2.2.2.3.4.5.6 0 0 .1.1.1.2s0 .1.1.1.3.3.3.4c0 .1-.1.1-.1.2-.2.2-.2.2 0 .3 0 0 .1.1 0 .1.1.1.1.2.2.3h.1c.1-.1.1 0 .1 0 .2.1.3.1.5.1.1-.1.2-.2.2-.3v-.3c.1-.2 0-.3-.1-.4l-.1-.1c-.1 0-.1-.1-.1-.1h-.1c-.1 0-.1.1-.2.1-.1.1-.2.1-.2 0-.1-.1-.1-.2-.2-.2l-.1-.1c0-.3.1-.3.1-.3zm.7.8-.3.3c-.1.1-.3.2-.4 0-.1-.1-.1-.1 0-.2s.1-.1.1-.3c0-.1.1-.1.1-.1h.2c.2-.1.2-.1.3 0 .2.1.2.1 0 .3zm.2.3c-.2.2-.3.3-.5.3H20l-.1-.1v-.1c.3-.1.5-.3.7-.5h.1l.2.2c0 .1 0 .1-.1.2-.1-.1-.2 0-.2 0zm-2.4-2.2c-.1-.1-.1-.2 0-.3l.2-.2h.1c.1.1.2.3.3.5 0 .1-.1.2-.2.1-.2.1-.3.1-.4-.1zm2.6 2.1c.1.1 0 .4-.1.5 0 .1-.1.1-.2.1H20l.1-.1c.1-.1.2-.1.3-.2.2-.1.2-.2.4-.3-.1 0-.1 0 0 0zm-1.9-1.7.3.3.3.3v.1c0 .1-.1 0-.1 0-.1-.2-.3-.3-.4-.5-.1-.1-.1-.2-.2-.2v-.1c0-.1 0-.1.1.1-.1-.1 0-.1 0 0zm.8 1.2-.2-.2v-.1h.1c.1 0 .1.1.1.3.1-.1.1 0 0 0 .1 0 0 0 0 0zm.1.9c0-.1-.1-.1-.1-.1.1-.1.1 0 .1.1.1 0 .2 0 .1.1-.1 0-.1-.1-.1-.1z"/><path fill="#010101" d="M20.4 13.2c-.1 0-.2 0-.3-.1h-.2c-.1-.1-.2-.2-.2-.3v-.1c-.2-.2-.1-.2 0-.4l.1-.1c0-.1-.2-.4-.3-.4 0 0-.1 0-.1-.1s0-.1-.1-.1c-.1-.2-.3-.3-.5-.6l-.1-.1c-.1 0-.2-.1-.3-.2-.1-.1-.2-.2-.2-.3 0-.1.1-.2.2-.3h.1s.1 0 .1.1l.1.1c.1.1.1.2.2.3 0 .2.1.4.3.5.1.1.2.2.3.4l.1.1v-.1c.1 0 .1.1.2.2 0 0 0 .1.1.1v.1h-.2v.1s0 .1.1.1c0 0 .1.1.1.2s.1.1.2 0h.1s.1 0 .1-.1h.2l.1.1c.1 0 .1 0 .2.1s.2.2.1.4v.3c0 .2-.1.3-.2.3-.2-.2-.2-.2-.3-.2zm-.2-.2c.1.1.2.1.4 0 .1 0 .1 0 .1-.1.1-.1.1-.3.1-.4l-.1.1-.1.1c-.2.1-.3.2-.4.3zm-.3-.3s0 .1 0 0c0 .1.1.1.1.1.2-.1.4-.2.5-.3 0 0 0-.1.1-.1 0 0 .1-.1 0-.1 0-.1-.1-.1-.1-.2-.1.4-.3.5-.6.6zm0 0zm-.2 0c.1 0 .1 0 0 0 .1 0 .1 0 0 0 .1 0 .1 0 0 0 .1 0 0 0 0 0zm.2-.7s0 .1 0 0c-.1.1-.1.1 0 0 0 .2-.1.3-.2.3-.1.1-.1.1 0 .2s.2.1.3 0h.1l.3-.3.1-.1-.1-.1-.1-.1s-.1 0-.2.1c0 0-.1.1-.2 0zm.7.1c0-.1 0-.1 0 0-.1 0 0 0 0 0zm-1.1-.4.2.2c-.1-.1-.1-.2-.2-.2.1 0 0 0 0 0 0-.1 0 0 0 0zm-.2-.1c.1 0 .1 0 0 0 .1.1.1.1 0 0 .1.1.1 0 .1 0h.1l.1-.1s0-.1-.1-.1l-.1.1c.1 0 .1 0-.1.1.1 0 .1 0 0 0 .1 0 0 0 0 0zm.1-.1zm-.7-.8c0 .1 0 .1.1.2l.1.1c.1.2.3.3.4.5v-.1s-.1-.1-.1-.2-.1-.1-.1-.2c0 0-.1 0-.2-.1l-.1-.1-.1-.1c.1 0 .1 0 0 0 .1 0 .1 0 0 0zm-.5-.3c.1.1.2.2.3.2h.1v-.1c0-.2-.1-.3-.2-.5h-.1c-.1 0-.1.1-.2.2 0 .1 0 .1.1.2zm.6.2z"/><path d="M17 9c0 .1 0 .2.1.3 0 0 0 .1 0 0-.2-.1-.3 0-.5.2l-.3.3c-.1.1-.2.3-.1.5.1.1.2.2.4.1.1 0 .1-.1.2-.1l.4-.4c.1-.1.2-.3.1-.5 0 0-.1-.1 0-.1v-.2c0-.2-.1-.4-.2-.5v-.2h-.2l-.3.3V9h.1c.1-.1.1 0 .2 0 0 0 .1 0 .1.1-.1 0 0-.1 0-.1zm-.5.6.2-.2c.1-.1.3-.1.4 0 .1.1.1.3 0 .5l-.4.4c-.1.1-.3.1-.4 0-.1-.1-.1-.3 0-.5 0-.1.1-.1.2-.2zm.6-.6c0-.1-.1-.2-.2-.3l-.1-.1v-.1c.1.1.2.1.2.2.1.1.1.2.1.3zm-.4-.3c.1 0 .1-.1 0 0 .2 0 .1 0 0 0v.2c-.1-.1 0-.2 0-.2zm-.2.2c.1-.1.1-.2.2-.3 0 .1-.1.2-.2.3zm.4 0s-.1 0 0 0c-.1 0-.1-.1 0 0-.1-.1 0-.1 0 0 0-.1 0-.1 0 0z"/><path fill="#010101" d="M16.5 10.4c-.1 0-.3-.1-.3-.2-.1-.2-.1-.4.1-.5l.1-.1.2-.2c.1-.1.3-.3.5-.2V9h-.4s0 .1-.1.1l-.2.2v-.6l.1-.1.2-.2c.1-.1.2-.1.2 0 0 0 .1 0 .1.1v.1c.2.1.2.3.2.5V9.4c.1.2.1.4-.1.5v.1l-.3.3s-.1.1-.2.1h-.1zm0-.8c0 .1 0 .1 0 0l-.2.2c-.1.1-.1.3 0 .4.1.1.2.1.4 0 .1-.1.3-.2.4-.4.1-.1.1-.2.1-.3 0-.1 0-.1-.1-.2s-.2-.1-.3 0l-.1.1-.2.2zm.6-.5c0 .1 0 .1 0 0 0 .1.1.1 0 0 .1.1.1.1 0 0 .1.1.1.1 0 0 .1 0 .1 0 0 0zm0 .1zm-.2-.3s0 .1 0 0c0 .1 0 .1 0 0 .1.1.1.1.1 0 0 0 0-.1-.1-.1.1 0 0 .1 0 .1zm-.2-.1zm0 0s.1 0 0 0c.1-.1.1-.1 0 0l.1-.1-.1.1c.1-.1 0 0 0 0zm.2-.4s-.1 0 0 0c-.1.1-.2.2-.3.2l-.1.1c0-.1.1-.1.2-.2.1 0 .1 0 .2-.1-.1.1-.1.1 0 0-.1.1 0 .1 0 0v.1-.1c.1.1.1 0 0 0 .1 0 0 0 0 0z"/><path d="M19.4 12c0-.1-.1-.2-.2-.2l-.1.2s-.1 0-.1-.1-.1-.2-.2-.3c0 0 0-.1-.1-.1-.1-.1-.2-.2-.3-.4 0 0 0-.1-.1-.1 0-.1-.1-.2-.2-.1-.1 0-.1.1-.1.1-.1.1-.1.2 0 .2l.3.3.1.1h.1c.1.3.4.4.6.6 0 .1.1.1.2.2 0 0 0 .1.1 0v-.1c-.1-.1-.1-.2-.2-.3 0-.1-.1-.1 0-.2.1.3.1.2.2.2zm-.7-.1c-.1-.1-.1-.1 0 0-.2-.2-.3-.3-.5-.4 0 0-.1-.1 0-.1l.2-.2.1.1c.1.1.2.3.3.4 0 .1-.1 0-.1.2zm-.6-.7.2-.2s.1-.1.1 0v.1l-.2.2c-.1 0-.1 0-.1-.1-.1.1-.1 0 0 0zm1 .8s.1-.1 0 0c.1-.1.1-.1.2-.1v.1h-.2c.1.1 0 .2 0 .1-.1-.1 0-.1 0-.1zm-.2-.2c0 .1 0 .1.1.2v.1h-.1s-.1-.1 0-.1v-.2zm.3.6-.2-.2v-.1c.1.2.2.2.2.3zm-.5-.6c.1 0 .1 0 0 0 .1 0 .1.1.1.1h-.1v-.1z"/><path fill="#010101" d="M19.4 12.7c-.1 0-.1-.1 0 0-.1-.1-.1-.1 0 0l-.1-.1-.1-.1c-.1-.1-.2-.1-.3-.2-.1-.1-.3-.2-.3-.4l-.1-.1-.1-.1c-.1-.1-.1-.2-.2-.2s-.1-.1-.1-.1 0-.1.1-.2c0 0 .1 0 .1-.1l.1-.1c.1-.1.1-.1.2-.1 0 0 .1.1.1.2v.1c.1.1.2.2.3.4v.1c.1 0 .2.1.2.3l.1-.1v-.1h.1c.1 0 .2.1.2.2v.1l-.1-.1h-.1v.1c.1.1.1.2.2.2-.2.2-.1.3-.2.4 0-.1 0-.1 0 0zm-.1-.2zm-.4-.3c.1 0 .1 0 0 0 .1 0 .1 0 0 0h.1c.1-.1 0-.1-.1 0 .1-.1.1-.1 0 0 .1-.1.1-.1 0 0 .1 0 .1 0 0 0zm.2 0zm-.2-.2c0 .1 0 .1 0 0 0 .1 0 .1 0 0 0 .1 0 .1 0 0zm.2.1c.1-.1.1-.1 0 0l.1-.1-.1.1c.1-.1.1-.1 0 0 0-.1 0-.1 0 0zm-.4-.2.1.1-.1-.1c0 .1 0 0 0 0zm.1 0zm-.4-.7-.1.1-.1.1.1.1c.1.1.1.2.2.2v-.1c0-.1-.1-.1-.1-.2s-.1-.1-.1-.2c.2.1.1.1.1 0zm-.3.1c.1 0 .2-.1.2-.1 0-.1-.1 0-.2.1zm.3-.1z"/><path d="M26.3 20.5c.3.3.8.3 1.1-.1.3-.3.4-.9.1-1.1-.3-.3-.8-.3-1.1.1-.4.4-.4.8-.1 1.1zm.1 0c-.3-.3-.3-.8.1-1.1.3-.3.7-.3 1-.1.3.3.2.8-.1 1.1-.3.3-.8.4-1 .1z"/><path fill="#010101" d="M26.8 20.8c-.2 0-.4-.1-.5-.2-.3-.4-.3-.8.1-1.2.4-.4.8-.4 1.2-.1.1.1.2.3.2.5 0 .3-.1.5-.3.7-.2.2-.4.3-.7.3zm.2-1.6c-.2 0-.4.1-.5.2-.2.2-.3.4-.3.6 0 .2.1.3.2.4.1.1.2.2.4.2s.5-.1.6-.2c.1-.2.2-.4.2-.6 0-.2-.1-.3-.2-.4-.1-.1-.2-.2-.4-.2z"/><path d="m17.8 10.5.2.2c.1.1.1 0 .2 0 .1-.1 0-.1 0-.1l-.4-.4c0-.1-.1-.1-.2 0s0 .1 0 .2c.1 0 .2.1.2.1zm.1 0-.2-.2v-.1h.1l.3.3v.1H18s-.1 0-.1-.1z"/><path fill="#010101" d="M18.1 10.8s-.1 0-.1-.1l-.1-.1-.1-.1-.1-.1-.1-.1s0-.1.1-.1h.1s.1 0 .1.1c.1.1.2.2.3.4l.1.1v.1c-.1-.1-.1-.1-.2-.1zm-.2-.3.2.2-.3-.3c0-.1 0 0 .1.1z"/><path d="m24.9 17-.6-.3.6.3z"/><path fill="#010101" d="m24.9 17-.7-.3.1-.1.7.3z"/><path d="m27.4 21.1-.4.4c.2-.1.3-.2.4-.4z"/><path fill="#010101" d="M27 21.6c0-.1 0-.1 0 0-.1-.1 0-.1 0-.1l.4-.4.1.1-.5.4c.1 0 .1 0 0 0z"/><path d="M25.5 17.3c-.2-.1-.3-.2-.5-.3.2.1.4.2.5.3z"/><path fill="#010101" d="m25.5 17.4-.5-.3V17l.6.3z"/><path d="M26 17.5c-.1-.1-.2-.1-.3-.2.1.1.1.2.3.2z"/><path fill="#010101" d="M26 17.6c-.2-.1-.3-.2-.3-.2v-.1h.1c.1 0 .1 0 .2.1v.2z"/><path d="M27.7 20.9c.1 0 .1-.1.2-.2-.1 0-.2.1-.2.2z"/><path fill="#010101" d="m27.6 21 .1-.1.2-.2.2-.1-.1.2s-.1.1-.2.1l-.2.1z"/><path d="M24 29.1h-.3c-.1 0-.1 0-.1.1s-.1.2 0 .3h-.1l-.4-.4H23v.1l.3.3.5.5s0 .1.1 0v-.1c0-.2.1-.4.3-.4h.2l-.8-.8h-.1v.1c.2 0 .4.1.5.3zm-.1.7s-.1 0 0 0c0-.2.2-.4.4-.5-.1 0-.2.1-.2.1-.2.2-.2.3-.2.4zm-.2-.4h-.1v-.1s.1 0 .1.1h.1c0 .1-.1.1-.1 0 0 .1 0 .1 0 0zm.1-.1s-.1.1-.1 0c0 0-.1-.1 0-.1.1-.1.1 0 .1 0v.1zm.2-.2c.1 0 .1.1.1.1s.1 0 0 .1c0 0-.1.1-.2 0 .2-.1.2-.1.1-.2zm-.1.1c0 .1.1 0 0 0 .1.1.1.1 0 0 0 .1 0 .1 0 0v-.1h.1c0 .1-.1.1-.1.1zm-.2.5c0-.1-.1-.1 0 0 0-.1.1-.2.1-.1 0 0 0 .1-.1.1.1 0 0 0 0 0z"/><path fill="#010101" d="M23.9 30s-.1 0 0 0c-.1-.1-.1-.1 0 0l-.2-.2-.4-.4-.2-.2H23V29h.2l.2.2.2.2v-.2c0-.1.1-.1.1-.1h.2l-.3-.3v-.2h.2l.3.3c.2.2.3.4.5.5 0 0 .1.1 0 .1h-.2c-.2 0-.3.2-.3.4-.1 0-.1 0-.2.1zm-.1-.2.1.1-.1-.1c.1.1.1 0 0 0zm-.1-.2c.1.1.1.1 0 0 .1 0 .1 0 0 0 .1 0 0 0 0 0zm-.2-.1c.1.1.1.1 0 0 .1.1.1.1 0 0 .1 0 .1 0 0 0 .1 0 .1 0 0 0 .1 0 .1 0 0 0zm.3 0s.1 0 0 0h.1l.1-.1h-.2v-.1c0 .1.1.1 0 .2.1-.1.1-.1 0 0zm-.2-.1s.1 0 0 0c.1 0 0 0 0 0zm.7 0s.1 0 0 0c.1 0 0 0 0 0zm-.2-.2c0 .1 0 .1 0 0 0 .1 0 .1 0 0 0 .1 0 .1 0 0 0 .1 0 .1 0 0zm.1.1c.1 0 .1 0 0 0 .1 0 .1 0 0 0zm-.5-.1c0 .1 0 .1 0 0 .1 0 .1 0 0 0 .1 0 .1 0 0 0zm.2 0z"/><path d="M23 29.7c.1-.1.1-.1 0-.2s-.2-.2-.3-.4c0-.1-.1-.1-.2 0 0 0-.1 0-.1.1s0 .2.1.2l.3.3c.1 0 .1.1.2 0 0 .1 0 .1 0 0zm-.3-.2-.2-.2s-.1-.1 0-.1h.1c.1.1.2.3.4.4v.1h-.1c0-.1-.1-.1-.2-.2z"/><path fill="#010101" d="M23 29.8c-.1 0-.1-.1-.2-.1-.1-.1-.1-.2-.3-.2-.1 0-.1-.1-.1-.2s.1-.1.1-.1l.1-.1s.1 0 .1.1l.3.3c.1 0 .1.1.1.1.1.1 0 .1-.1.2.1 0 0 0 0 0zm-.3-.4.2.2c0-.1 0-.1-.2-.2 0-.1-.1-.2-.1-.2v.1l.1.1z"/><path d="M24.8 30.8H25.6h-.4.3s.1 0 .1-.1-.1 0-.1 0h-.6c0 .1 0 .1-.1.1z"/><path fill="#010101" d="M25.3 30.9h-.2l.1-.1h-.4l.1-.1H25.7v.1c0 .1-.1.1-.1.1H25.3z"/><path d="M23.2 27.8c-.1-.1-.1-.1 0-.2l.1-.1-.1.1-.1.1c0 .1.1.1.1.1z"/><path fill="#010101" d="M23.2 27.9s-.1-.1 0 0c-.1-.1-.2-.1-.2-.2s0-.1.1-.1c.1-.1.1-.1.2-.1.1.1 0 .1-.1.2.1.1.1.1 0 .2z"/><path d="M24.8 26.1c.1 0 .1-.1.1-.1-.1 0-.2 0-.1.1z"/><path fill="#010101" d="M24.7 26.1c-.1-.1 0-.2.1-.2h.1v.1c0 .1-.1.1-.2.1z"/><path d="M25.3 25.6c-.1 0-.1 0 0 0-.1.1 0 0 0 0s.1-.1 0 0c0-.1 0-.1 0 0z"/><path fill="#010101" d="M25.2 25.7c-.1-.1 0-.1 0-.1h.2v.1c-.1-.1-.1-.1-.2 0 .1 0 .1 0 0 0zm0-.2z"/><path d="M25.2 30.9h-.3.3z"/><path fill="#010101" d="M25 31s0-.1 0 0l-.2-.1H25.4h-.2c-.1 0-.1.1-.2.1z"/><path d="m15.9 11.1.1.1h.1v-.1c-.1 0-.1-.1-.2-.2h-.1v.1l.1.1z"/><path fill="#010101" d="M16.1 11.3s-.1 0 0 0c-.1-.1-.1-.1-.2-.1l-.1-.1-.1-.1v-.2h.2c.1.1.1.2.2.2l.1.1c0 .1 0 .1-.1.2zm-.1-.2s0 .1 0 0l.1.1-.1-.1s-.1-.1-.1-.2c0 .1 0 .1.1.2zm.1.1z"/><path d="m11.4 15.5.1.1h.1v-.1l-.2-.2h-.1v.1c.1 0 .1.1.1.1z"/><path fill="#010101" d="M11.6 15.7s-.1 0 0 0l-.1-.1-.1-.1-.1-.1v-.2h.1l.1.1.1.1c.1.2.1.2 0 .3zm-.1-.2c0 .1.1.1 0 0 .1.1.1.1 0 0 .1.1.1.1 0 0 .1.1.1.1 0 0 .1.1 0 0 0 0-.1-.1-.1-.1-.1-.2 0 .1 0 .1.1.2z"/><path d="m30 23.1-.4-.4s0-.1-.1 0v.1c.2.1.3.2.5.3 0 .1.1.2.1.3v.1H30c0-.1 0-.2-.1-.2h-.2c-.1 0-.1 0-.1.1v.2c0 .1.1.2.2.2 0 .1 0 .1-.1.2h-.1c-.2-.2-.4-.4-.6-.5h-.1v.1l.4.4.4.4s.1.1.1 0v-.1c0-.1 0-.2.1-.3.1-.1.2-.1.3-.1h.1v-.1c-.1-.5-.2-.6-.3-.7zm-.1.5c.1-.1.2-.1.3-.1h.1-.1c-.2.1-.3.2-.4.4v.1-.1c0-.1 0-.2.1-.3zm-.2-.2c0 .1 0 .1 0 0-.1 0-.2-.1-.1-.1.1-.1.1 0 .1 0 .1 0 .1.1 0 .1zm.2 0s0-.1 0 0c.1 0 0 0 0 0s0 .1 0 0c-.1 0 0 0 0 0zm-.2.2c0-.1 0-.1 0 0 .1-.1.1 0 0 0 0 0 0 .1 0 0-.1 0 0 0 0 0z"/><path fill="#010101" d="M29.8 24.1c-.1 0-.1 0-.1-.1l-.4-.4-.2-.2-.1-.1v-.2h.1l.4.4v-.4s.1 0 .1-.1h.2c-.2-.1-.3-.3-.4-.4v-.2h.1s.1 0 .1.1l.3.3.1.2.1.1.3.3v.1s-.1.1-.1 0c-.1 0-.2 0-.3.1-.1.1-.1.2-.1.3 0 .1 0 .2-.1.2zm-.1-.2.1.1h.1-.1s-.1 0-.1-.1zm-.1-.2s0 .1 0 0c.1.1.1.1 0 0 .1.1.1.1 0 0h.1-.1zm.3-.1s0 .1 0 0c0 .1 0 0 0 0zm-.1 0 .2-.2h-.2v-.1h.1c-.1.2-.1.2-.1.3zm-.2-.2c0 .1 0 .1 0 0v.2-.1c.1 0 .1 0 0-.1 0 .1 0 .1 0 0zm.5.1c-.1 0-.1.1-.2.1.1 0 .1-.1.2-.1zm-.4.1zm.6-.1s.1 0 0 0c.1 0 0 0 0 0 0-.1 0 0 0 0zm-.6-.2s-.1 0 0 0c-.1 0-.1 0 0 0 0 .1 0 .1 0 0 0 .1 0 .1 0 0 0 .1 0 .1 0 0 0 .1 0 0 0 0zm.5.1zm-.1-.1s-.1.1 0 0c-.1.1 0 .1 0 0 0 .1 0 .1 0 0 0 .1 0 0 0 0zm-.3 0v.1-.1c.1 0 .1 0 0 0l.1.1c0-.1 0-.1-.1-.1zm.1 0z"/><path d="M29.2 22.2c.3-.3.3-.8 0-1.1-.3-.2-.7-.3-1.1.1-.3.3-.3.7 0 1 .4.4.8.3 1.1 0zm0 0c-.3.3-.7.3-1 0-.2-.2-.2-.7.1-1 .3-.3.7-.3.9 0 .3.3.3.7 0 1zm-1.2-.6c0-.2.2-.4.4-.5.1-.1.3-.1.4-.1-.4 0-.6.3-.8.6z"/><path fill="#010101" d="M28.7 22.5c-.2 0-.4-.1-.5-.2-.2-.1-.2-.2-.3-.3-.1-.3 0-.5.2-.8.3-.4.8-.4 1.1-.1.1.1.2.3.2.5 0 .3-.1.5-.3.6 0 .2-.2.3-.4.3zm.1-1.4c-.2 0-.3.1-.5.2-.3.3-.3.7-.1.9.1.1.2.2.4.2s.4-.1.5-.2c.3-.3.3-.6.1-.9-.1-.1-.2-.2-.4-.2zm-.8.7c0 .1 0 .1.1.2-.1-.1-.1-.2-.1-.2zm1-.8c.1 0 .2.1.3.2l.1.1c0-.1-.1-.1-.1-.1-.1-.1-.2-.1-.3-.2zm-.1 0c.1 0 0 0 0 0z"/><path d="M29.6 22.4c.1.1.2.2.3.4 0 0 .1.1.2 0 .1 0 .1-.1.1-.2 0 0 0-.1-.1-.1l-.3-.3c-.1-.1-.2-.1-.3 0-.1.1.1.1.1.2zm.2.1-.2-.2s-.1-.1 0-.1h.1l.3.3s.1.1 0 .1h-.1l-.1-.1z"/><path fill="#010101" d="M30 22.8c-.1 0-.1 0-.2-.1s-.1-.2-.2-.2l-.1-.1s-.1 0-.1-.1c0 0 0-.1.1-.1.1-.1.1-.1.2-.1s.1 0 .1.1l.3.3s.1 0 .1.1 0 .1-.1.2H30zm-.2-.3.2.2c0-.1-.1-.2-.2-.2-.1-.1-.1-.2-.1-.2h-.1l.2.2c0-.1 0 0 0 0zm.3.1zm-.6-.3z"/><path d="M28.9 23.5c0-.1 0-.1-.1-.1 0 .1 0 .1.1.1z"/><path fill="#010101" d="m29 23.7-.1-.1-.1-.1v-.1l.1.1c.1.1.1.1.1.2z"/><path d="m14.6 15.5.6.6c-.2-.3-.4-.5-.6-.6 0-.1 0-.1 0 0 .2.3.4.5.7.7-.2-.3-.5-.5-.7-.7z"/><path fill="#010101" d="M15.3 16.2c-.2-.2-.5-.4-.7-.7v-.1h.2l.5.5.1.1-.1.2z"/><path d="m14.8 16.1.7.7c-.2-.3-.4-.5-.7-.7z"/><path fill="#010101" d="m15.5 16.8-.7-.7.1-.1c.2.3.5.5.6.8z"/><path d="m15.3 15.8-.8-.8c.2.3.5.6.8.8z"/><path fill="#010101" d="M15.2 15.9c-.3-.2-.5-.5-.8-.8l.1-.1c.2.2.5.5.7.9z"/><path d="m14.6 16.6-.7-.7c.2.2.4.5.7.7z"/><path fill="#010101" d="m13.82 15.883.07-.07.778.777-.07.071zM13.85 16.306l.07-.071.708.707-.07.07z"/><path d="m15 15.3-.6-.6.6.6z"/><path fill="#010101" d="m15 15.3-.6-.6v-.1l.7.7z"/><path d="m13.3 16.8.6.6-.6-.6z"/><path fill="#010101" d="m13.9 17.4-.6-.6v-.1l.7.7z"/><path d="M15.1 15.6c-.2-.2-.3-.4-.5-.5l.5.5z"/><path fill="#010101" d="m15.1 15.6-.2-.2c-.1-.1-.3-.2-.4-.4l.1-.1.4.4c0 .1.1.2.1.3z"/><path d="m14.5 16.6-.5-.5.5.5c0 .1 0 .1 0 0z"/><path fill="#010101" d="m14.6 16.7-.7-.6.1-.1.6.6z"/><path d="m14.7 15.7.5.5c-.1-.2-.3-.3-.5-.5z"/><path fill="#010101" d="m15.2 16.3-.5-.6v-.1l.6.6z"/><path d="m14.1 16.5.5.5c-.2-.1-.3-.3-.5-.5z"/><path fill="#010101" d="m14.6 17.1-.6-.6.1-.1.6.6z"/><path d="m14.4 16-.5-.5c.1.2.3.4.5.5z"/><path fill="#010101" d="m14.3 16.1-.5-.5.1-.1.5.5z"/><path d="m15.2 15.8-.5-.5c.1.2.3.4.5.5-.1 0 0 0 0 0z"/><path fill="#010101" d="m15.1 15.9-.5-.6h.1l.5.5z"/><path d="m14.6 17.3-.5-.5.5.5z"/><path fill="#010101" d="M14.6 17.3c-.2-.1-.3-.3-.5-.5l.1-.1.4.6z"/><path d="m14 16.3.4.4c-.1-.2-.3-.3-.4-.4 0-.1 0 0 0 0z"/><path fill="#010101" d="m13.94 16.212.07-.07.495.495-.07.07z"/><path d="m14 15.9.4.4c-.2-.1-.3-.3-.4-.4z"/><path fill="#010101" d="m14.4 16.4-.5-.5v-.1l.5.5z"/><path d="m13.8 15.4.4.4-.4-.4z"/><path fill="#010101" d="m14.2 15.9-.5-.5.1-.1v.1l.5.4z"/><path d="m15.6 15.5.4.4-.4-.4z"/><path fill="#010101" d="m16 16-.4-.5h.1l.4.4z"/><path d="m13.6 16.8-.4-.4c.2.1.3.2.4.4z"/><path fill="#010101" d="m13.6 16.8-.4-.4v-.1l.5.5z"/><path d="m13.9 17.7-.4-.4c.1.2.3.3.4.4z"/><path fill="#010101" d="m13.9 17.8-.5-.5.1-.1.5.5z"/><path d="m15.6 15.8.4.4c-.1-.2-.3-.3-.4-.4 0-.1 0-.1 0 0z"/><path fill="#010101" d="m16 16.2-.4-.5.5.4z"/><path d="m13.3 16.3.3.3-.3-.3z"/><path fill="#010101" d="m13.6 16.7-.4-.4-.1-.2.6.5z"/><path d="m14.5 17.3-.3-.3.3.3z"/><path fill="#010101" d="m14.5 17.4-.4-.4.1-.1.4.4z"/><path d="m13.6 16.4-.3-.3.3.3z"/><path fill="#010101" d="m13.6 16.4-.4-.3.1-.1.4.4z"/><path d="m14.1 16.7.3.3-.3-.3z"/><path fill="#010101" d="m14.4 17-.1-.1c-.1 0-.1-.1-.1-.1l.1-.1.2.2c-.1 0-.1 0-.1.1z"/><path d="m14.1 15.4.2.2c-.1 0-.1-.1-.2-.2z"/><path fill="#010101" d="m14.3 15.7-.3-.2.1-.1c.1.1.2.1.2.3z"/><path d="m13.8 15.2.2.2-.2-.2z"/><path fill="#010101" d="m13.9 15.4-.2-.2.1-.1.2.3z"/><path d="m15 15.7-.1-.1s0 .1.1.1z"/><path fill="#010101" d="m15.2 15.9-.3-.2-.1-.1-.1-.2.5.5z"/><path d="m15.2 16.8.2.2c-.1-.1-.1-.2-.2-.2z"/><path fill="#010101" d="m15.4 17-.3-.2.1-.1.3.3z"/><path d="m16.9 13.1.6.6-.6-.6z"/><path fill="#010101" d="m17.5 13.8-.7-.7.1-.1.6.7z"/><path d="m16.2 15.3-.6-.6.6.6z"/><path fill="#010101" d="m16.2 15.4-.7-.7h.1l.6.6z"/><path d="m15.5 14.3.6.6-.6-.6z"/><path fill="#010101" d="m16.1 14.9-.7-.6.1-.1.6.7z"/><path d="m17.4 13.3-.6-.6.6.6z"/><path fill="#010101" d="M17.4 13.3c-.2-.1-.3-.3-.5-.4l-.1-.1.1-.1.5.6z"/><path d="m16.7 14.7-.5-.5c.1.2.3.3.5.5z"/><path fill="#010101" d="m16.7 14.8-.6-.6.1-.1.6.6z"/><path d="m16.1 13.8.5.5-.5-.5z"/><path fill="#010101" d="m16.6 14.4-.5-.6v-.1l.6.6z"/><path d="m16.2 14.3.5.5-.5-.5z"/><path fill="#010101" d="m16.7 14.9-.6-.6h.1l.6.5z"/><path d="m16.9 15.3-.5-.5c.1.2.3.3.5.5z"/><path fill="#010101" d="m16.8 15.3-.5-.5h.1l.6.5z"/><path d="m16.3 14.6.5.5c-.2-.2-.4-.3-.5-.5z"/><path fill="#010101" d="m16.248 14.614.071-.07.495.494-.07.071z"/><path d="m17 13.3.5.5-.5-.5z"/><path fill="#010101" d="m17.4 13.8-.4-.4.1-.1c.2.1.3.3.4.4l-.1.1z"/><path d="m16.9 12.5.5.5-.5-.5z"/><path fill="#010101" d="m17.3 13-.5-.5.1-.1.5.5z"/><path d="m17.1 13.8.4.4c-.1-.2-.3-.3-.4-.4z"/><path fill="#010101" d="m17.5 14.2-.5-.4.1-.1.5.5z"/><path d="m15.7 14.5.4.4c-.2-.1-.3-.2-.4-.4z"/><path fill="#010101" d="m16.1 15-.5-.5h.1l.4.4z"/><path d="m16.6 14.6-.4-.4c.2.1.3.2.4.4z"/><path fill="#010101" d="m16.6 14.6-.4-.4v-.1l.5.5zM16.98 13.647l.071-.071.425.424-.071.07z"/><path d="m16.9 12.9.3.3-.3-.3z"/><path fill="#010101" d="m17.2 13.3-.4-.4.1-.1.4.4z"/><path d="m16.6 14.4-.3-.3c.1 0 .2.2.3.3z"/><path fill="#010101" d="m16.6 14.4-.4-.4h.1l.4.4z"/><path d="m18.2 13.7-.3-.3.3.3z"/><path fill="#010101" d="M18.2 13.7c-.1 0-.1-.1-.1-.1-.1-.1-.2-.1-.2-.2l.1-.1.2.4c0-.1 0-.1 0 0z"/><path d="m16.5 13.8-.3-.3.3.3z"/><path fill="#010101" d="m16.5 13.9-.4-.4.1-.1.4.4z"/><path d="m17.2 14.1.3.3-.3-.3z"/><path fill="#010101" d="m17.5 14.5-.4-.4V14l.5.4z"/><path d="m16.4 14-.3-.3.3.3z"/><path fill="#010101" d="m16.4 14.1-.3-.4h.1l.3.3z"/><path d="m17.4 14.4-.3-.3.3.3z"/><path fill="#010101" d="M17.4 14.5v-.1l-.3-.3h.1l.3.3z"/><path d="m18.4 14-.3-.3.3.3z"/><path fill="#010101" d="m18.4 14-.3-.3.1-.1.2.4z"/><path d="m17.3 13-.2-.2.2.2z"/><path fill="#010101" d="m17.3 13-.3-.3h.1l.3.3h-.1z"/><path d="m15.6 14.6.2.2c-.1 0-.1-.1-.2-.2z"/><path fill="#010101" d="m15.8 14.9-.3-.3h.1l.3.2z"/><path d="m17.2 12.7-.2-.2.2.2z"/><path fill="#010101" d="m17.2 12.7-.3-.2.1-.1.2.3z"/><path d="M24.6 21.8s-.1.1 0 .1c0 .1.1 0 0-.1h.1c0-.1 0 0-.1 0z"/><path fill="#010101" d="M24.6 22c-.1-.1-.1-.2 0-.2 0 0 .1-.1.2 0v.1s0 .1-.1.1h-.1zm0-.1s.1 0 0 0l.1-.1-.1.1c.1-.1.1 0 0 0z"/><path d="M24.1 22.4c.1 0 .1 0 .1-.1v-.1h-.1v.2z"/><path fill="#010101" d="M24 22.4v-.2s.1-.1.2-.1v.1c0 .2 0 .2-.2.2zm.2-.2c-.1.1-.1.1 0 0 0 .1 0 .1 0 0z"/><path d="M22.6 23.7c-.1 0 0 .1 0 .1v-.1c.1.1.2 0 .1 0h-.1z"/><path fill="#010101" d="m22.6 23.9-.1-.1s0-.1.1-.1c0 0 .1 0 .1-.1h.1v.1s0 .1-.1.1l-.1.1c.1 0 0 0 0 0zm.1-.2c-.1 0-.1 0 0 0-.1.1-.1.1 0 0-.1.1-.1.1 0 0-.1.1-.1.1 0 0-.1.1-.1.1 0 0 0 .1 0 0 0 0z"/><path d="M27.9 25.8h-.1v.1h.1v-.1z"/><path fill="#010101" d="M27.8 25.9c-.1 0-.1-.1-.1-.1v-.1c.1-.1.1-.1.2 0s.1.2-.1.2c.1 0 .1 0 0 0zm0-.1c0 .1 0 .1 0 0 .1 0 .1 0 0 0 .1 0 0 0 0 0z"/><path d="M27.5 26v.1h.1V26h-.1z"/><path fill="#010101" d="M27.6 26.2c-.1 0-.1 0 0 0-.1-.1-.1-.1-.1-.2h.2v.1l-.1.1zm-.1-.1s.1 0 0 0c.1 0 .1 0 0 0 .1 0 .1 0 0 0 .1 0 .1 0 0 0z"/><path d="M28.3 25.4h-.1v.1l.1-.1c0 .1 0 0 0 0z"/><path fill="#010101" d="M28.2 25.6s-.1-.1 0 0l-.1-.1v-.1h.2s0 .1-.1.2c.1 0 0 0 0 0zm0-.2s0 .1 0 0c0 .1 0 .1 0 0 0 .1 0 .1 0 0 0 .1 0 0 0 0z"/><path d="M21.3 17.8c.2.2.6.2.9-.1.2-.2.2-.6 0-.8-.3-.3-.6-.3-.9 0-.2.3-.3.6 0 .9zm.6-.3-.2.2h-.1l-.2-.2v-.1c.2-.2.3-.4.5-.5h.1l.3.3v.1c-.2 0-.3.1-.4.2zm0 0c.1-.1.2-.1.2-.2h.1c0 .3-.3.5-.5.5.1-.1.1-.2.2-.3zm-.5-.5c.1-.1.1-.1.2-.1h.1v.1l-.3.3-.1.1v.1-.1c0-.2 0-.3.1-.4zm.4.9c-.3.1-.6-.2-.6-.4.1.2.3.4.6.4zm-.5-.4.3.3c-.2-.1-.3-.2-.3-.3zm1-.1c0 .1-.1.2-.2.3.1-.1.1-.2.2-.3zm-.1-.5s.1.1.1.2c-.1-.1-.1-.1-.1-.2z"/><path fill="#010101" d="M21.7 18c-.2 0-.3-.1-.4-.2-.1-.1-.2-.3-.2-.4 0-.2.1-.3.2-.5.3-.3.6-.3 1 0 .2.2.2.6 0 .9l-.1.1h.1-.1c-.2 0-.4.1-.5.1zm-.1-.2zm.3 0zm.1-.1-.1.1.1-.1c0 .1 0 .1 0 0zm-.1-.1-.2.2c.2 0 .4-.2.4-.4l-.2.2zm-.5-.2c0 .1 0 .1 0 0 .1.1.2.2.2.3l.2-.2.1-.1.2-.2c-.1-.1-.1-.2-.2-.3l-.3.3-.2.2zm-.2 0c.1 0 .1 0 0 0 .1 0 .1 0 0 0zm.6-.7c-.1 0-.3.1-.4.2-.1.1-.2.3-.2.4v-.2.1c0-.1.1-.2.1-.3l.2-.2h.1v.1l.1-.1c.1-.1.1 0 .1 0l.3.3-.1-.3c0 .1-.1 0-.2 0zm.4.5s.1.1 0 0v.1-.1zm.1 0v.1-.1zm-.8 0c-.1 0-.1 0 0 0-.1 0-.1.1 0 0-.1 0-.1 0 0 0zm-.1-.2c0 .1-.1.1-.1.1l.2-.2s0 .1-.1.1z"/><path d="m20.9 18 .2.2s.1.1.1 0v-.1c-.1-.1-.2-.3-.4-.4 0 0 0-.1-.1 0v.1l.2.2z"/><path fill="#010101" d="M21.1 18.3c-.1-.1-.2-.1-.2-.2V18l-.2-.2v-.2h.2l.4.4c-.1.1-.1.2-.2.3.1-.1.1-.1 0 0 .1 0 .1 0 0 0zM21 18l.1.1s-.1 0-.1-.1zm-.3-.2c.1 0 .1.1 0 0 .1.1.1 0 0 0z"/><path d="M31.2 24.6c-.1.1 0 .3 0 .4v.1s0 .1.1.1c0 0 .1 0 .1-.1V24.1v.1c0 .3 0 .6-.1.9v.1-.2c-.1-.1 0-.2-.1-.4z"/><path fill="#010101" d="M31.2 25.3c-.1 0-.1-.1-.1-.1v-.5h.1v-.4h-.1.2V25.4c.1-.1 0-.1-.1-.1zm.1-.7z"/><path d="M31.4 23.9v-.7s0-.1-.1-.1-.1 0-.1.1v.8V23.2s0-.1.1-.1v.1c.1.3.1.5.1.7z"/><path fill="#010101" d="M31.1 24.1v-1c0-.1.1-.1.1-.1h.1V23.8h-.1v-.1.2l-.1.2z"/><path d="M31.3 24.1v.5-.5z"/><path fill="#010101" d="m31 24.7.2-.1v-.5l-.1-.1h.2v.6l-.3.1z"/><path d="M31.4 24.2v-.3c-.1.1-.1.2 0 .3z"/><path fill="#010101" d="M31.3 24.2v-.4h.1v.3l-.1.1z"/><path d="M25.5 28v.1h.1V28h-.1z"/><path fill="#010101" d="M25.6 28.2c-.1 0-.1 0 0 0-.1-.1-.1-.2-.1-.2h.2c0 .1 0 .1-.1.2zm-.1-.1c.1 0 .1 0 0 0 .1 0 .1 0 0 0 .1 0 0 0 0 0z"/><path d="M26.2 27.4h.1v-.1h-.1v.1z"/><path fill="#010101" d="M26.3 27.5c-.1 0-.1 0 0 0l-.1-.1v-.1c.1-.1.1 0 .2 0v.1l-.1.1zm0-.1c0-.1 0-.1 0 0-.1 0-.1 0 0 0z"/><path d="M25.9 27.7c-.1 0 0 0 0 0 0 .1.1.1.1.1v-.1c-.1-.1-.1-.1-.1 0z"/><path fill="#010101" d="m25.9 27.8-.1-.1v-.1c.1-.1.1-.1.2 0v.1s0 .1-.1.1c.1 0 .1 0 0 0zm0-.1s0 .1 0 0c0 .1 0 .1 0 0 0 .1 0 0 0 0 .1 0 .1 0 0 0 .1 0 .1 0 0 0z"/><path d="M25.3 28.4h.1v-.1h-.1c-.1 0-.1.1 0 .1z"/><path fill="#010101" d="M25.3 28.5c-.1-.1-.1-.1-.1-.2h.2v.1l-.1.1c.1 0 0 0 0 0zm0-.1c0-.1 0-.1 0 0 0-.1 0-.1 0 0 0-.1 0-.1 0 0z"/><path d="M25.1 28.5H25v.1h.1v-.1z"/><path fill="#010101" d="M25 28.7c-.1-.1-.1-.1-.1-.2s.1 0 .2 0c.1.1.1.1-.1.2.1 0 .1 0 0 0zm0-.1c.1 0 .1 0 0 0 .1 0 0 0 0 0z"/><path d="M26.6 27.1c-.1 0-.1 0-.1.1 0 0 0 .1.1.1v-.2s-.1.1 0 0c-.1 0 0 0 0 0z"/><path fill="#010101" d="m26.5 27.2-.1-.1V27h.2v.1c0 .1 0 .1-.1.1z"/><path d="M22.8 25.6c-.3.3-.2.5 0 .8.2.2.6.1.8-.1.2-.2.2-.6 0-.8-.3-.1-.6-.1-.8.1zm.4.4-.2.2c-.1.1-.1.1-.1 0 0 0 0-.1-.1-.1V26l.4-.4s.1-.1.1 0c.1 0 .1.1.1.2l-.1.1s0 .1-.1.1zm0-.5c-.1.2-.3.3-.5.4.2-.1.3-.2.5-.4zm-.5.6.5-.5-.3.3-.2.2zm.6 0 .1-.1s0 .1-.1.1c0 .1 0 .1-.1.1v-.1c0 .1 0 0 .1 0zm-.3.2.5-.5c-.2.2-.3.4-.5.5zm-.1.1c-.1 0-.1-.1-.2-.2l.2.2zm.6-.2c0 .1 0 .1-.1.1 0-.1 0-.1.1-.1z"/><path fill="#010101" d="M23 26.5c-.2 0-.3-.1-.3-.1-.1-.1-.1-.2-.1-.2l-.1.1.1-.1c0-.2 0-.4.2-.5.2-.2.4-.2.6-.2l.2-.1-.1.1c.1 0 .1.1.2.1.1.1.1.2.1.3 0 .2-.1.4-.2.5-.2.1-.4.1-.6.1zm0-.1c.2 0 .3 0 .4-.1v-.2c-.1 0-.1 0-.1.1v.1h-.1c-.1 0-.1 0-.2.1v-.1h-.1s-.1 0-.1-.1c0 0 0-.1-.1-.1V26h-.1l.4.4zm-.2-.3c.1.1.1.1 0 0l.1.1.1-.1.1-.1.1-.1-.1-.1-.2.2-.1.1zm.6-.2c.1 0 .1 0 0 0 .1.1.1.1 0 0v.1l-.1.1h.1v-.3c0-.1 0-.2-.1-.3l-.1-.1v.1c.1 0 .1.1.1.2v.1l.1.1c.1 0 .1 0 0 0zm-.8.2zm.2-.4c-.1.1-.2.3-.2.4l.1-.1c.1-.2.3-.3.5-.4-.1-.1-.3-.1-.4.1zm.5 0z"/><path d="M21.7 15.5h-.1v.1h.1v-.1z"/><path fill="#010101" d="m21.6 15.6-.1-.1v-.1c.1-.1.2 0 .2 0 .1.1.1.1-.1.2.1 0 .1 0 0 0zm.1-.1c-.1 0-.1 0 0 0-.1 0-.1 0 0 0-.1 0-.1 0 0 0-.1.1-.1.1 0 0z"/><path d="M26 22.4c-.2.2-.3.5-.1.8.2.2.5.2.7 0 .3-.2.2-.6.1-.7-.2-.4-.5-.4-.7-.1zm.3.2.2-.2.1-.1c.1 0 .1.1.1.2 0 0 0 .1-.1.1l-.3.3c-.2.2-.2.2-.3 0v-.1c.1 0 .2-.1.3-.2zm0-.4c.1.1 0 .1 0 0 0 .1-.1.2-.2.3-.1.1-.1.2-.2.1h.2l.2-.4zm-.3.6c.1-.2.3-.3.4-.5v.1l-.2.2-.2.2zm0 .2c.1 0 .1.1.2.1-.1 0-.1 0-.2-.1zm-.1-.3s.1.1 0 .1h-.1l.1-.1zm.6.1-.2.2c.1-.1.2-.1.2-.2z"/><path fill="#010101" d="M26.2 23.3c-.2 0-.3-.1-.3-.1-.2-.3-.2-.6.1-.8.2-.2.6-.2.8 0 .1.1.1.2.1.3 0 .2-.1.4-.2.5-.2 0-.3.1-.5.1zm-.3-.4c0 .1.1.1.1.2.1.1.1.1.3.1.1 0 .3 0 .4-.1.1-.1.2-.3.2-.4 0-.1 0-.2-.1-.3-.1-.1-.2-.1-.3-.1v.2s.1-.1.2 0c.1 0 .1.1.1.1v.1c0 .1 0 .2-.1.2l-.2.2c0 .1-.1.1-.2.1l-.2.1.1.1h-.1c-.1 0-.2-.1-.2-.1v-.4zm.4-.3-.2.2c.1 0 .1.1.1.1s.1 0 .1-.1l.3-.3.1-.1v-.2l-.1.1c-.2.2-.2.3-.3.3zm-.4.3c.1 0 .1 0 0 0 .1 0 .1-.1.1-.1l-.1.1c.1-.1.1 0 0 0zm0-.2zm0 0h.1s0-.1-.1 0c0-.1 0-.1 0 0 0-.1-.1 0 0 0-.1 0 0 0 0 0zm.1-.1s.1 0 0 0zm-.1-.1c.1 0 .1 0 0 0h.1l.1-.1c.1 0 .1-.1.1-.1s-.1 0-.3.2c.1-.1.1-.1 0 0zm.5-.1z"/><path d="M29 24.5v.1h.1v-.1H29z"/><path fill="#010101" d="M29.1 24.7s-.1 0 0 0c-.1-.1-.1-.1-.1-.2 0 0 .1-.1.2 0v.2h-.1zm0-.1c.1 0 .1 0 0 0 0-.1 0-.1 0 0z"/><path d="M28.8 24.8s0 .1 0 0c0 .1.1.1.1.1s0-.1-.1-.1c.1 0 0 0 0 0z"/><path fill="#010101" d="M28.9 25c-.1 0-.1-.1 0 0-.2-.1-.1-.2-.1-.2.1-.1.1 0 .2 0v.1l-.1.1c0-.1 0 0 0 0zm-.1-.2c0 .1.1.1 0 0 .1.1.1.1 0 0 .1 0 .1 0 0 0 .1 0 .1 0 0 0z"/><path d="M20.9 20.5c-.3.3-.3.6-.1.8.2.2.6.2.8 0 .3-.2.3-.6.1-.9-.2-.2-.5-.2-.8.1zm0 .7c-.2-.1-.1-.5 0-.6.2-.2.5-.2.7 0 .2.2.2.5-.1.7-.1 0-.4.1-.6-.1z"/><path fill="#010101" d="M21.2 21.5c-.2 0-.3-.1-.4-.2-.2-.2-.2-.6.1-.9.1-.1.3-.2.5-.2s.3.1.4.2c.1.1.2.3.2.4 0 .2-.1.4-.2.5-.3.1-.4.2-.6.2zm.1-1.2c-.2 0-.3.1-.4.2-.2.2-.3.5-.1.8.2.2.5.2.8 0 .1-.1.2-.3.2-.4 0-.1 0-.3-.1-.4-.1-.1-.2-.2-.4-.2zm-.1 1.1c-.1 0-.3-.1-.3-.1-.1-.1-.1-.1-.1-.3 0-.2.1-.3.2-.4.2-.2.5-.2.7 0 .1.1.1.2.1.3 0 .1-.1.3-.2.4-.1 0-.3.1-.4.1zm.1-1c-.1 0-.2.1-.3.2-.1.1-.1.2-.1.4 0 .1 0 .1.1.2s.2.1.3.1c.1 0 .2 0 .3-.1.1-.1.2-.2.2-.3 0-.1 0-.2-.1-.3-.2-.1-.3-.2-.4-.2z"/><path d="M20.7 26.9c.2-.2.3-.6 0-.9-.3-.3-.6-.2-.9.1-.2.2-.3.6 0 .8.3.2.7.2.9 0zm-.1-.1c-.2.2-.5.2-.6 0-.2-.2-.2-.5 0-.7.2-.2.5-.2.7 0 .2.2.1.4-.1.7z"/><path fill="#010101" d="M20.3 27.1c-.2 0-.3-.1-.4-.2-.1-.1-.2-.3-.2-.5s.1-.3.2-.4c.3-.3.7-.3 1-.1.2.2.2.7 0 .9-.3.2-.4.3-.6.3zm.1-1.2c-.1 0-.3.1-.5.2-.1.1-.2.2-.2.4s0 .3.1.4c.2.1.3.1.5.1s.3-.1.5-.2c.2-.2.3-.6 0-.8-.2-.1-.3-.1-.4-.1zm-.2 1.1c-.1 0-.2 0-.3-.1-.1-.1-.2-.2-.2-.4 0-.1.1-.3.2-.4.2-.2.5-.2.7 0 .2.2.2.5-.1.7 0 .1-.1.2-.3.2zm.2-1c-.1 0-.2.1-.3.2-.1.1-.2.2-.2.3 0 .1 0 .2.1.3.2.1.4.1.6-.1.2-.2.2-.4.1-.6-.1 0-.2-.1-.3-.1z"/><path d="M10.1 16.2v.1h.1v-.1h-.1z"/><path fill="#010101" d="M10.2 16.4s-.1-.1 0 0c-.1-.1-.1-.1-.1-.2 0 0 .1-.1.2 0 0 0 .1.1 0 .2 0-.1-.1 0-.1 0zm0-.2s0 .1 0 0c0 .1 0 .1 0 0 0 .1 0 .1 0 0z"/><path d="M18.3 10.2c0 .1-.1.1 0 .1h.2c.1-.1.1-.2 0-.2-.2 0-.2.1-.2.1zm-.1.1c.1 0 .1 0 0 0l.1-.1c.1 0 0 0-.1.1.1 0 .1 0 0 0z"/><path fill="#010101" d="M18.3 10.4h-.1c-.1-.1 0-.1 0-.2 0 0 .1-.1.2 0l.1.1c0 .1 0 .1-.1.2 0-.1 0-.1-.1-.1zm0-.1s.1 0 0 0c.1 0 .1-.1.1-.1s0 .1-.1.1c.1 0 0 0 0 0z"/><path d="M16.7 9.8h-.1v.1c.1 0 .1 0 .1-.1.1 0 .1 0 0 0z"/><path fill="#010101" d="M16.7 9.9c-.1 0-.1 0 0 0l-.1-.1v-.1c.1-.1.1 0 .2 0 0 .1 0 .1-.1.2zm0-.1c0 .1 0 0 0 0z"/><path d="M26.5 19.6c-.2.2-.3.6 0 .9.2.2.6.2.8 0 .2-.2.3-.7.1-.9-.2-.3-.6-.3-.9 0zm.1.7c-.2-.2-.2-.5 0-.7.1-.1.5-.2.6 0 .2.2.2.4-.1.6-.1.3-.3.3-.5.1z"/><path fill="#010101" d="M26.8 20.6c-.2 0-.3-.1-.4-.2-.2-.2-.2-.7 0-.9.3-.3.7-.3.9 0 .1.1.1.2.1.4s-.1.4-.2.6c0 .1-.2.1-.4.1zm-.3-1c-.2.2-.3.6 0 .8.2.2.5.2.8 0 .1-.1.2-.3.2-.5 0-.1 0-.3-.1-.3-.3-.3-.6-.3-.9 0zm.4.9c-.1 0-.2 0-.3-.1-.2-.2-.2-.5 0-.7.1-.1.2-.1.3-.1.1 0 .3.1.3.1.1.1.3.4-.1.7 0 0-.1.1-.2.1zm-.3-.2c.2.2.4.1.5 0 .2-.2.2-.4.1-.6-.1-.1-.2-.1-.3-.1-.1 0-.2 0-.3.1-.1.1-.1.4 0 .6z"/><path d="M29.1 21.3c-.2-.2-.6-.1-.8.1-.2.2-.2.6 0 .8.2.2.5.2.8-.1.2-.2.2-.6 0-.8zm0 .8c-.2.2-.5.2-.7 0-.2-.2-.1-.5.1-.7.2-.2.5-.2.7 0 .1.1.1.5-.1.7z"/><path fill="#010101" d="M28.7 22.4c-.1 0-.2 0-.4-.1-.1-.1-.1-.2-.2-.3 0-.2.1-.4.2-.5.1-.1.3-.2.5-.2.1 0 .3 0 .4.1.1.1.2.2.2.4s0 .3-.2.4c-.2.1-.3.2-.5.2zm.1-1.1c-.1 0-.3 0-.3.1-.2.2-.2.5-.1.7.1.1.2.1.3.1.1 0 .3-.1.4-.2.1-.1.1-.2.1-.3 0-.1 0-.2-.1-.3-.1-.1-.2-.1-.3-.1z"/><path fill="none" d="M0 0h45v45H0z"/><path fill="none" d="m16.216 7.488 2.97-2.97 16.829 16.829-2.97 2.97z"/><path fill="#010101" d="M23.3 12.1c.4-.4.9-.8 1.1-1.1-.6.4-1.5 1-2.3 1.5l-.6-.6c.5-.8 1.1-1.7 1.5-2.3-.3.3-.7.8-1.1 1.2l-.8.8-.6-.6 2.4-2.4 1 1c-.4.6-.9 1.4-1.2 1.8.4-.3 1.2-.8 1.9-1.2l1 1-2.4 2.4-.7-.7.8-.8zM24.6 14.9l.5-.5-1-1 .5-.5 2.2-.4.8.8-1.3 1.3.3.3-.5.4-.4-.3-.5.5-.6-.6zm1.2-1.3.5-.5c-.3.1-.8.2-1.2.3l.4.4.3-.2zM26.8 16.2l-.6.3-.7-.7 3.1-1.6.9.9-1.6 3.1-.7-.7.3-.6-.7-.7zm1.1.1c.3-.5.5-.9.7-1.2-.3.2-.7.4-1.2.7l.5.5zM29.1 19.4l.5-.5-1-1 .5-.5 2.2-.4.8.8-1.4 1.2.3.3-.5.4-.2-.2-.6.5-.6-.6zm1.2-1.3.5-.5c-.3.1-.8.2-1.2.3l.4.4.3-.2z"/><path fill="none" d="M4.5 27h18v13.5h-18z"/><path fill="#010101" d="M9.1 34v1c-1 1.4-2 3.5-2.3 5.4H5.4c.3-1.9 1.4-4.1 2.3-5.3h-3V34h4.4zM14.2 35.2h-2.6c0 .3-.2 1-.2 1.2.2-.2.6-.3 1.2-.3 1.3 0 2 .9 2 2.1 0 1.2-.7 2.4-2.4 2.4-1.3 0-2.2-.6-2.3-1.8h1.4c.1.4.4.7 1 .7.7 0 1-.5 1-1.2s-.2-1.1-1-1.1c-.6 0-.8.3-1 .6l-1.3-.2c.2-.8.4-2.7.5-3.6h3.9l-.2 1.2z"/><path fill="none" d="M27 4.5h13.5V18H27z"/><path fill="#010101" d="M32.6 11.6V6.8c-.3.1-.8.2-1.2.3V6c.6-.1 1.2-.5 1.6-.9h1v6.4h-1.4zM38.6 6.8c-.1-.3-.3-.6-.8-.6-.9 0-1.1.8-1.1 1.7.3-.3.7-.6 1.4-.6 1.2 0 2 .9 2 2.1 0 1.4-.9 2.4-2.3 2.4-1.9 0-2.5-1.4-2.5-3.2 0-1.7.6-3.4 2.5-3.4 1.4 0 2 .9 2.1 1.7h-1.3zm.1 2.6c0-.6-.2-1.2-1-1.2-.6 0-1 .4-1 1.1 0 .5.2 1.2 1 1.2.7.1 1-.4 1-1.1zM29.9 28.5l1.6 3-3-1.6s.7-.3.9-.5c.2-.2.5-.9.5-.9z"/><path fill="none" d="M27 27h13.5v13.5H27z"/><path fill="#010101" d="M30.4 40.5v-1.2H28v-1l2.2-3.1h1.3v3.2h.6l-.1.9h-.5v1.2h-1.1zm0-3.1v-1.2c-.2.4-.9 1.5-1.4 2.2h1.4v-1zM32.5 40.9l2.2-6.1h1l-2.2 6.1h-1zM38.9 36.4c-.1-.3-.2-.5-.7-.5-.7 0-.9.7-.9 1.4.2-.3.6-.5 1.2-.5 1 0 1.7.7 1.7 1.8s-.7 2-2 2c-1.5 0-2.1-1.2-2.1-2.7 0-1.4.5-2.8 2.1-2.8 1.2 0 1.7.7 1.8 1.4h-1.1zm.1 2.3c0-.5-.2-1-.8-1-.5 0-.8.3-.8.9 0 .4.2 1 .8 1 .5 0 .8-.4.8-.9z"/></svg>