<svg version="1.2" baseProfile="tiny" xmlns="http://www.w3.org/2000/svg" viewBox="0 0 45 45" overflow="visible" xml:space="preserve"><path fill="#9ACA3C" d="M-301.5-94.5h576v144h-576z"/><path fill="none" d="M0 0h45v45H0z"/><path fill="none" d="M4.5 4.5h36v36h-36z"/><path fill="#010101" d="m10.6 19.3-.4 1.3H8.9l1.9-5.6h1.5l2 5.6H13l-.5-1.3h-1.9zm1.7-1c-.4-1.2-.6-1.9-.8-2.4-.1.6-.4 1.4-.7 2.4h1.5zM14.6 17.5v-1.1h1.1v.7c.2-.5.6-.8 1.3-.8v1.1c-.8 0-1.3.2-1.3 1.4v1.8h-1.2v-3.1zM17.1 16.4h.6v-1.1h1.2v1.1h.8v.9h-.8v2.1c0 .3.1.4.4.4h.3v.8c-.2.1-.5.1-.8.1-.8 0-1.1-.4-1.1-1.2v-2.2h-.6v-.9zM20 14.7h1.2v1H20v-1zm0 1.7h1.2v4.2H20v-4.2zM21.8 20.6v-5.9H23v5.9h-1.2zM23.6 20.6v-5.9h1.2v5.9h-1.2zM26.3 18.7c0 .5.3 1 .8 1s.6-.2.7-.4H29c-.1.5-.6 1.4-1.9 1.4-1.4 0-2-1-2-2.1 0-1.3.7-2.3 2-2.3 1.4 0 1.9 1 1.9 2.1v.4h-2.7zm1.6-.7c0-.5-.2-.9-.8-.9-.6 0-.8.4-.8.9h1.6zM29.5 17.5v-1.1h1.1v.7c.2-.5.6-.8 1.3-.8v1.1c-.8 0-1.3.2-1.3 1.4v1.8h-1.2v-3.1zM33.3 16.4c.4 1.4.8 2.7.9 3.1.1-.4.3-1.4.8-3.1h1.2l-1.4 4.3c-.4 1.2-.7 1.6-1.7 1.6h-.5v-.9h.3c.4 0 .6-.1.8-.6L32 16.4h1.3zM10 28.1v2.2H8.9v-5.6h2.5c1.2 0 1.9.7 1.9 1.5s-.4 1.2-.8 1.3c.3.1.7.4.7 1.4v.3c0 .4 0 .8.1 1.1H12c-.1-.2-.1-.7-.1-1.3 0-.6-.2-.9-1.1-.9H10zm0-1h1c.7 0 .9-.3.9-.7 0-.5-.3-.7-.9-.7h-1v1.4z"/><path fill="#010101" d="M14.5 28.5c0 .5.3 1 .8 1s.6-.2.7-.4h1.2c-.1.5-.6 1.4-1.9 1.4-1.4 0-2-1-2-2.1 0-1.3.7-2.3 2-2.3 1.4 0 1.9 1 1.9 2.1v.4h-2.7zm1.7-.7c0-.5-.2-.9-.8-.9-.6 0-.8.4-.8.9h1.6zM20.5 29.9c-.2.4-.6.5-1.2.5-.9 0-1.8-.7-1.8-2.2 0-1.4.8-2.2 1.9-2.2.7 0 1 .3 1.1.5v-.4h1.1V31.9h-1.1v-2zm-1.8-1.7c0 .7.3 1.3.9 1.3.7 0 .9-.5.9-1.3s-.2-1.3-.9-1.3c-.6.1-.9.6-.9 1.3zM25.9 29.1v1.2h-1.1v-.5c-.2.4-.6.6-1.2.6-.9 0-1.4-.5-1.4-1.6v-2.7h1.2v2.5c0 .5.1.8.6.8s.7-.3.7-1.1v-2.2h1.2v3zM27.5 28.5c0 .5.3 1 .8 1s.6-.2.7-.4h1.2c-.1.5-.6 1.4-1.9 1.4-1.4 0-2-1-2-2.1 0-1.3.7-2.3 2-2.3 1.4 0 1.9 1 1.9 2.1v.4h-2.7zm1.6-.7c0-.5-.2-.9-.8-.9-.6 0-.8.4-.8.9h1.6zM31.5 29.1c.1.3.4.5.8.5s.6-.2.6-.4c0-.3-.2-.4-.8-.5-1.4-.3-1.6-.8-1.6-1.4 0-.6.4-1.3 1.7-1.3 1.3 0 1.7.7 1.7 1.3h-1.1c0-.2-.1-.4-.7-.4-.4 0-.5.2-.5.4s.1.3.8.5c1.4.3 1.6.8 1.6 1.4 0 .7-.5 1.3-1.8 1.3s-1.8-.6-1.9-1.4h1.2zM34 26.1h.6V25h1.2v1.1h.8v.9h-.8v2.1c0 .3.1.4.4.4h.3v.8c-.2.1-.5.1-.8.1-.8 0-1.1-.4-1.1-1.2V27H34v-.9z"/><path fill="#9ACA3C" d="M4.5-45h45V0h-45z"/><path fill="none" d="M4.5-45h45V0h-45z"/></svg>