<svg version="1.2" baseProfile="tiny" xmlns="http://www.w3.org/2000/svg" viewBox="0 0 45 45" overflow="visible" xml:space="preserve"><path fill="#9ACA3C" d="M-526.5-49.5h576v144h-576z"/><path fill="none" stroke="#FFF" stroke-width=".1" stroke-miterlimit="10" d="M-45 45H0v45h-45zM0 45h45v45H0z"/><path fill="#9ACA3C" d="M0-45h45V0H0z"/><path fill="none" d="M0-45h45V0H0z"/><path fill="#9ACA3C" d="M0 0h45.3v45.3H0z"/><path fill="none" stroke="#FFF" stroke-width="2" stroke-miterlimit="10" d="m15.7 8.1-8.3 8.3 16.7 15.8 2-1.6-.3-.2 1.4-2.2 3.1 2.8.4-.3-2.8-3.2 2-1.4.5.2 1.6-1.8z"/><path fill="#FFF" d="m20.3 16-3.6.9-.9 3.6 4.4 2.6 2.5-2.6z"/><g stroke="#000" stroke-width=".1" stroke-miterlimit="10"><path d="m14.7 9-.9.9c-.2.3-.5.5-.7.7l-.5.5-.4.4c-.1.1-.2.2-.3.2-.1 0-.1.1-.1.1s0 .1-.1.1l-1.2 1.2-.8.8-1.2 1.2-.8.8c-.1.1-.1.1 0 .2l2.4 2.4 1.2 1.2.6.6.8.8 1.3 1.3c.4.4.7.8 1.1 1.1l1.1 1.1.8.8 1.6 1.6.9.9c.5.5 1 1 1.5 1.4l1 1 1.2 1.2c.2.2.5.4.8.5.2.1.4.1.7 0 .2-.1.3-.2.4-.3l.7-.7.4-.4c.1-.1.1-.1 0-.2l-.2-.2v-.1c.1-.1.2-.3.4-.4.1-.1.1-.1.1-.2 0-.2.1-.4.1-.6 0-.1.1-.2.1-.2 0-.1.1-.1.1-.2l.4-.4c.1-.1.1-.1.2 0 .4.4.9.9 1.4 1.3.4.4.8.7 1.2 1.1l.4.4h.1l.3-.3v-.1c-.4-.4-.8-.8-1.1-1.2-.4-.4-.8-.9-1.3-1.3l-.4-.4c-.1-.1-.1-.1 0-.2l.4-.4c.1-.1.1-.1.2 0s.1.1.2.1.2-.1.2-.2v-.1s.1-.1.1-.2l.1-.1h.3c.1 0 .2-.1.3-.1.1-.1.2-.3.4-.4h.1l.2.2s.1.1.1 0c.4-.4.8-.8 1.2-1.3.1-.1.1-.3.1-.4 0-.5-.1-.9-.5-1.3l-1.1-1.1-1-1-.6-.6c-.5-.5-1-1-1.6-1.5l-.6-.6-1.5-1.5-1.9-1.9-2-2-.7-.7-1.5-1.5-.8-.8-.7-.7c-.5-.4-.9-.9-1.4-1.3h-.1l-.6.6c-.4.2-.5.3-.6.4zm-.8 11c0 .1 0 .1 0 0 .1.1.2.1.2.1h.1-.2c-.1 0-.2 0-.1-.1 0-.2 0-.3.1-.4v.1c-.1.1-.1.2-.1.3zm4-7.3s.1-.1.1 0c.1.1.1.1.1.2-.1-.1-.1-.2-.2-.2s-.1 0-.1-.2c0 0 .1.1.1.2zm3.7 16.2c.1.3.1.5.2.7.1.3.1.6.2.8v.1h-.1l-.2-.2-1.2-1.2-2.4-2.4c-.6-.6-1.2-1.2-1.8-1.7l-.8-.8c-.3-.3-.6-.6-1-.9l-1-1-.9-.9c-.3-.3-.7-.6-1-1l-1.8-1.8c-.3-.2-.5-.5-.8-.8 0 0-.1 0-.1-.1H9.2v-.2c0-.1-.1-.1-.2-.2h-.2c-.1 0 0 .1 0 .2v.1c-.5-.4-.9-.8-1.3-1.3h.1c.3 0 .6-.1.9-.1.3 0 .5-.1.8-.1h.1l1 1c.3.3.6.6.9.8.2.2.4.5.7.7l.9.9.8.8.9.9V21.5l.6.6.8.8h.1c.1 0 .1 0 .1.1.3.3.6.6.9.8l1.2 1.2.4.4-1.3-1.3c.2.2.4.5.7.7l-.4-.4c.1 0 .2.1.3.1.2.1.5.2.7.2.2 0 .3.1.5.1h.3c.4.1.7.2 1.1.4l.1.1c0 .1.1.1.2.1h.1v.1c0 .1-.1.1-.2.2s-.1.1 0 .2.1.2.2.3c.1.1.2.1.2.2s.1.1.1.2l.3.3c.1.1.2.1.3.1h.1s0 .1-.1.1c.1 0 .1-.1.2-.1l-.2.2c.4-.5.9-1 1.4-1.4l-.1.1.3-.3c.1-.1.2-.1.2-.2s.1 0 .1 0l1.2 1.2c.1.1.1.1 0 .2s-.1.2 0 .2.2.1.3 0v.1l-.1.1c-.1.1-.1.2-.2.2l.2-.2c-.1.1-.2.2-.3.4 0 0 .1-.1.1 0s.1.1.2 0l.1-.1c.1-.1.1-.1.3 0h.1l.9.9c.1.1.1.1 0 .2l-.6.6s-.1.1-.1.2c-.1.2-.1.5-.2.7 0 .1 0 .2-.1.2-.1.1-.3.2-.4.4-.1.1-.1 0-.1 0l-.6-.6c-.1-.1-.1-.1 0-.2l.3-.3s.1-.1 0-.1c-.1-.1-.2-.2-.4-.3-.1-.1-.2-.1-.3 0-.1.1-.1.2-.1.3v.1l-.3-.3c-.1-.1-.1-.1 0-.3-.1 0-.1-.1-.1-.1-.1 0 0-.1 0-.1l.1-.1c0 .1.1.1.1.2l.1-.1c.1-.1 0-.2 0-.2-.1 0 0-.1 0-.1l-.3.3.2-.2-.3.3c-.2.2-.2.2 0 .3v.1c-.1.1-.3.3-.4.5-.3.4-.7.7-1 1.1l-.4.4s0-.1-.1-.1c0-.1-.1-.3-.1-.4l-.3-1.2c-.1-.4-.2-.8-.4-1.2v-.1l.1-.1c-.1 0-.1.1-.1.1l.2-.2c-.2.2-.2.2-.4 0 0 0-.1-.1-.1-.2.2.1.5 0 .6-.1.1-.2.1-.5 0-.6-.1-.1-.3-.2-.6-.1-.1.1-.2.1-.2.3v.4c-.2-.2-.4-.3-.5-.5.3.4.7.7 1 1-.3-.2-.5-.5-.7-.7l.3.3.3.3c0 .2.1.3.1.5 0 0 0 .1.1.1v-.1c0-.1-.1-.2-.1-.4l.2.2c.1.3.2.6.2.9.1.4.2.9.4 1.3.1.2.1.4.2.6-.1 0-.1-.1-.1-.1-.1-.2-.1-.4-.2-.7-.1-.3-.1-.5-.2-.8.4-.6.4-.7.3-.8zm1-2.7c.2 0 .3-.1.4-.3 0 0 0-.1.1-.1h.1c0 .1 0 .1-.1.1l-.3.3-.5.5h-.1v-.2s-.1.1-.1 0l-.2-.2s0-.1.1-.1c0 .1.1.1.1.1.1.1.1.1.1.2v-.1l-.4-.4c-.1-.1-.1-.1-.2 0l-.1.1c-.1 0-.1-.1-.1-.1-.2-.2-.1-.4.1-.5h.1c.1 0 .2.1.3.1l.3.3c0 .2.1.3.3.3-.1 0-.2-.1-.2-.2.1.1.2.1.3.1H22.9V26s-.1 0 0-.1h.2v-.1c.1 0 .1 0 .1.1s0 .1-.1.1c-.2.1-.3.1-.5.2zm1.8-2.2c.1.1.2.1.1.2l-.3.3-.4.4h-.1c0-.1 0-.1-.1-.2 0 .1 0 .3.2.4.1.1.1.1 0 .2s-.3.2-.4.4c-.1.1-.2.2-.4.1.2-.1.2-.3.2-.4-.1 0-.1 0-.1-.1s-.1-.1-.1 0c-.1.1-.2.2-.2.3-.1.1-.1.2 0 .2v.1H22.2l-.5-.5v-.1l.1-.1h.1c.1.1.2.3.4.3 0 0 0 .1.1 0l.1-.1c0-.1 0-.2-.1-.2-.1-.1-.2-.1-.2-.2v-.1c.2-.2.4-.5.7-.7l.5-.5 1-1c0-.1.1 0 .1 0 .1.1.2.2.4.3h.1s.1-.1 0-.1c0-.1 0-.2-.2-.3-.1 0-.1-.1-.2-.1 0 0-.1-.1 0-.1s.1-.1.2 0l.5.5V23.6l-.1-.1h-.1v.1c.1 0 .1.1.1.1 0 .1 0 .2-.1.2-.1.1-.1.1-.2 0 0 0 0 .1.1.1s.2 0 .2-.1v.1l-.4.4h-.1c-.1-.3-.2-.4-.3-.4zm2.9 1.4c.1 0 .1.1.2.1s0 0 0 .1l-.1.1s-.1.1-.1 0h-.1c0-.1 0-.2.1-.3-.1.1-.1.1 0 0l-.1.1c-.1 0-.2.1-.2.2h.1s0 .1.1.1 0 0 0 .1c-.1 0-.1.1-.2.1v-.1c-.1 0 0-.1 0-.1-.1 0-.2.1-.2.1l-.2.2s0 .1-.1 0V25.8c0-.1-.1-.1-.2-.1-.1.1-.1 0-.2 0-.2-.3-.5-.5-.7-.8l-.4-.4v-.1l.3-.3c.3-.3.5-.6.8-.8l.1-.1v-.1l.4-.4h-.1v-.1c.1-.1.1-.2 0-.3l-.4-.4-.1-.1c-.1 0-.1 0-.2-.1l-.2-.2c-.1-.1-.3-.1-.4 0-.1 0-.1.1-.2.1h-.1c-.1 0-.1-.1 0-.2 0 0 .1 0 0-.1 0 0 0-.1-.1-.1s-.1 0-.1-.1c-.1-.1-.1-.2-.1-.3-.1-.3-.2-.7-.3-1.1 0-.3-.1-.5-.2-.8 0-.1-.1-.2-.1-.2l.3.3s.1 0 0 .1c-.1 0 0 .1 0 .1 0 .1 0 .1.1.1s.1 0 .1-.1v-.1h.1c.2.1.3.2.5.4.3.2.5.5.7.8.2.3.4.7.6 1 .1.3.3.5.4.8v.2c-.1.1-.2.1-.2.3l.2-.2.1-.1.1.1c0 .3.1.5.2.7l.3.6c.1.2.3.4.4.7.1.1.1.1 0 .2s-.2.2-.3.4l.1-.1c0 .1.1.1.1.1l-.2.2c0-.1 0-.1-.1-.2-.2.2-.2.3-.2.4zM9.4 16.1h.2c-.1.1-1.8.3-1.9.2.1 0 .2 0 .3-.1h-.3c.3-.4.7-.7 1.1-1.1 0 .1.1.1.1.1l.5.5s.1.1.1 0v-.1l-.4-.4c.1.1.1.1.2.1 0 .1 0 .1.1.2l.1.1h.1c0-.1.1-.1.2-.2v-.1l-.2-.2h-.2c0-.1 0-.1-.1-.2l.3.3s.1.1.1 0v-.1c-.2-.2-.4-.3-.5-.5v-.1l.3-.3c.1-.1.2-.3.4-.4 0 0 .1-.1.1 0s.1.1.1 0h.1l-.1.1c-.1.1-.1.3-.2.4-.1.1-.1.2-.1.3 0 .1 0 .1.1.1s.1.2.2.2c0 0 0 .1.1.1 0 0 .1 0 .1-.1v-.1l.1-.1v-.1c-.1 0 0-.1 0-.1s.1 0 .1-.1c.1-.2.2-.3.3-.4l.4-.4s.1-.1.2 0h.1c0-.1 0-.1.1-.1s.1 0 .1-.1c-.1-.1 0-.1 0-.1l.1-.1c.1-.1.2-.3.4-.4 0 0 0-.1.1 0 .1 0 .1 0 .1-.1v-.1c.1-.1.1-.2.2-.1 0 0 .1-.1.1 0h.1v-.1c-.1-.1-.1-.2-.2-.2-.1-.1-.1-.2-.2-.2l.6-.6c-.2.1-.3.2-.5.4-.3.3-.6.5-.9.8-.2.2-.5.4-.8.7 0 0-.1.1-.1 0v-.1c.1-.1.3-.2.4-.4.2-.2.5-.4.7-.7.2-.1.4-.3.5-.5l.6-.6s0-.1.1 0v.1l-.1.1h.1c.1 0 .1-.1.2-.1s.1-.1.1-.1v-.1c.1-.1.3-.2.4-.4.1-.1.1-.1.2 0 0 .1.1.1.1 0 0 0 0-.1.1 0v.1c0 .1 0 .1.1.1s.1 0 .1-.1c.1-.1.1-.2.2-.1v-.1h-.1c-.1 0-.2-.1-.2 0v-.1s.1 0 .1-.1l-.1-.1H13.9c0 .1-.1.1-.1.1h-.1s0-.1.1-.1c.1-.1.3-.2.4-.3 0 0 .1-.1.2 0h.1l.2.2h.2v-.1l-.3-.3h.2s.1 0 0 .1c0 .1 0 .2.2.2.1.1.1 0 .2-.1s.1-.1 0-.2c-.1 0-.1-.1-.2-.1 0 0-.1 0-.1-.1s0-.1-.1-.2c.1 0 .1.1.2.1.1.1.2.1.2.2h.1v-.1c-.2-.2-.4-.3-.6-.5-.1-.1-.1-.1 0-.1.2-.2.4-.3.5-.5l.4-.4s0-.1.1 0v.2h-.1c-.2.1-.3.2-.3.4v.1c.1.1.1.3 0 .4 0 .1-.1.1 0 .2 0 0 0 .1.1.1 0 .1.1.2.1.3h-.1v.1h.1c-.2.3-.5.5-.7.7l-.3.3.3-.3h.1l.4.4.5.5c.3.2.5.5.8.7v.1c-.2.3-.5.5-.7.7l-.5.5-1.3 1.3c-.5.5-1 1-1.5 1.4l-.5.5c-.1.1-.1.1-.2 0l-.2-.2-.5-.5s-.1-.1 0-.1v-.1s-.1 0-.1.1c-.1-.1-.2-.1-.2-.2l-.5-.5s-.1-.1 0-.1v-.1h-.1l-.1.1c.3-.4.7-.8 1.1-1.2l-.6.6.2-.2c-.1 0-.1.1-.1.1l-.6.6-.5.5c0 .6-.1.7-.3.8 0-.1 0 0 0 0zm20 6c0-.1-.1 0-.2 0-.1-.1-.1-.1-.2-.1s-.3-.1-.4-.1c-.4-.1-.7-.2-1.1-.3-.1 0-.2-.1-.3-.2l-.5-.5c-.2-.2-.4-.3-.5-.5l-.7-.7-1.1-1.1-.4-.4v-.1c-.1-.2-.2-.4-.4-.5-.2-.2-.5-.4-.7-.5-.1-.1-.2-.1-.3-.2 0-.1 0-.2-.2-.3 0-.1-.1-.1-.1-.1-.4-.4-.8-.8-1.1-1.2h-.1c-.1 0-.1 0-.2-.1l-.2-.2c-.4-.4-.8-.8-1.3-1.2l-1.3-1.3c-.3-.2-.5-.5-.8-.8-.3-.2-.5-.5-.8-.8l-.8-.8s-.1-.1-.1-.2v-.4c0-.4.1-.7.1-1.1v-.3l.4.4.8.8s.1 0 0 .1h-.1c-.1 0-.2.1-.1.2 0 .1.1.1.1.1.1.1.1.1.2 0 .1 0 .1-.1.1-.2 0 0 0-.1 0 0h.1l1 1 .8.8.3.3H19v.1c0 .1.1.2.2.2h.2l.1-.1v-.1l1.4 1.4.1.1h-.1c-.1 0-.1.1-.1.2s.1.1.2.2h.1l.1-.1v-.1l.2.2 2 2s.1 0 0 .1h-.1c-.1 0-.2.1-.1.2 0 .1.1.1.1.2.1.1.2 0 .2-.1v-.2l.1.1 1.3 1.3.1.1h-.1c-.1 0-.1 0-.1.2 0 .1.1.1.1.2.1.1.1 0 .2 0s0-.1 0-.1v-.1h.1l.1.1.6.6 1.3 1.3c.1.1.2.1.2.2h-.2c-.1 0-.1.1-.1.1 0 .1.1.2.2.2.1.1.2 0 .2-.1v-.1h.1l1.3 1.3.7.7s.1 0 0 .1h-.1c.3.3.1.2-.1.2.1.1.1.1.2.1.2 0 .3.1.5.1.1 0 .2 0 .2.1-.1 0-.2-.1-.3-.1h.1c.1 0 .2 0 .2.1.1 0 .1.1 0 .1l-1.1 1.1c-.1 0-.1.1-.2.2v-.1l-.6-.6c-.1-.1-.1-.2-.1-.2h-.1s-.1.1 0 .1c.1.1.1.1.2.1l.6.6h-.2c0-.1-.1-.2-.2-.2s-.2 0-.2.1c-.1.1 0 .2 0 .3l-.3-.3s-.1 0-.1-.1-.1-.1-.1-.2h-.1c-.1.1-.1.1 0 .2 0 0 .1 0 .1.1-.1.1 0 .2.1.2.1.1.1.1 0 .2 0 .1-.1 0-.1 0-.1-.1-.1-.1-.1-.2l-.3-.6c-.1-.2-.1-.4-.2-.6h.2c.1 0 .1 0 .2-.1 0-.1.1-.2 0-.2-.1-.1-.1-.1-.3 0-.1 0-.1.1-.1.1-.1 0 0-.1 0-.2v-.1l.3-.3c.1-.1.2-.1.4-.1.1 0 .2.1.3.1-.1 0-.3-.1-.4-.1 0 0-.1 0-.1-.1.3.1.7.2 1 .2.2.1.4.1.6.2-.3.1-.1.1 0 .1 0 .1 0 .1 0 0zm-9.1 1.5h.1c.1.1.3.2.4.2.1.1.2.1.3.2h.1v-.1h-.1c-.2-.1-.4-.2-.7-.4-.1 0-.1-.1-.2-.1-.1-.1-.1-.2-.2-.1v-.1l.2-.2.8-.8.3-.3s.1-.1.1 0c0 0 0 .1.1.1s.2.1.2.1l.5.5.1.1h.1v-.1l-.1-.1c-.2-.3-.5-.4-.7-.8-.1 0 0-.1 0-.1.3-.3.5-.6.8-.8l.4-.4s0-.1.1 0v.2c.1.1.2.1.3.3l.3.6c0 .1.1.1.1.1l-.3-.6c.2.1.3.2.5.4l-.1-.1-.3-.3s-.1-.1 0-.1c.1-.1 0-.3-.1-.4 0 0-.1-.1-.1 0h-.1c-.1-.1-.1-.2-.2-.3 0-.1-.2-.2-.1-.4.1-.1 0-.3-.1-.3s-.1-.1-.1 0c-.1-.1-.1-.2-.2-.3-.1-.3-.3-.5-.4-.8-.1-.2-.3-.5-.4-.7-.1-.3-.3-.5-.4-.8-.2-.3-.3-.6-.5-.8l-.3-.6v-.1c.2 0 .3-.1.5-.1h.1c.2.2.4.4.6.7 0 0 .1.1 0 .1 0 0 0 .1.1.1s.1.1.1.1 0 .1.1.1c0 0 .1 0 .1-.1h.1s.1.1.1.2v.1c-.1 0-.1.1-.1.2 0 .2.2.3.3.2h.1c.1.1.2.3.3.4.2.3.3.5.5.8.1.2.2.4.4.7v.2l.1.1c0 .1 0 .2.1.1 0 0 0 .1.1.1v.1c-.1 0-.1.1-.1.1 0 .1 0 .1.1.2 0 .1.2.1.2.1s.1-.1.1 0c0 0 0 .1.1.1-.1.1-.1.1 0 .1.1.1.1.1.1.2 0 0 0 .1.1.1s.1 0 .1.1c.1.2.1.4.2.6 0 .1.1.2 0 .3 0 .1-.1.1-.1.1-.1 0-.1.1-.2.1 0 0 0 .1.1.1-.1-.1-.2-.2-.3-.2 0 0 0 .1.1.1l.3.3s.1.1 0 .1c-.3.3-.5.6-.8.8l-1.4 1.4-.5.5s-.1.1-.1 0l-.7-.7c-.2-.2-.3-.4-.6-.5-.3.2-.4.2-.4.1zm.3-1.4-.7.7s-.1.1-.1 0c-.2-.1-.4-.2-.7-.4-.5-.3-.9-.5-1.4-.8-.3-.1-.3-.2 0-.3.2-.1.2-.1.3 0h.1l.1-.1c.1-.1.1-.1 0-.3-.1-.1-.1-.1 0-.2l.6-.6c.1-.1.1-.1.2 0s.1.1.2 0l.1-.1c.1 0 .1-.1 0-.1-.2-.1-.2-.1 0-.3h.1l.9.9.8.8s.1.1 0 .1c-.2.4-.4.6-.5.7zm1.3-1.2-.5.5s-.1.1-.1 0c-.6-.6-1.2-1.1-1.7-1.6-.1-.1-.1-.1 0-.2s.1-.2.3 0c.1.1.1.1.2 0 .2-.1.2-.1 0-.3-.1 0-.1-.1 0-.1l.7-.7c.1-.1.1-.1.2 0s.1.1.2 0 .1-.1 0-.2l-.1-.1v-.1l.2-.2c.1-.1.1-.1.2 0 .2.2.3.5.4.7.3.5.5 1 .8 1.4v.1c-.4.3-.6.6-.8.8zm-3.1-1.9c-.3-.2-.5-.4-.7-.6-.1-.1-.1-.2 0-.3l.7-.7.6-.6.7-.7s.1-.1.1 0l.3.6c.2.3.4.7.6 1 0 .1.1.1 0 .2l-.1.1c-.2.2-.1.1-.3 0-.1-.1-.1-.1-.2 0-.2.2-.1.1 0 .3.1.1.1.1 0 .2-.2.2-.4.5-.7.7h-.1l-.1-.1h-.1l-.1.1c-.1 0-.1.1 0 .1.2.2.2.2 0 .3 0 .1-.1.1-.2 0-.1-.3-.3-.5-.4-.6zm-2 .4c.3-.3.6-.6.9-1 .2-.2.2-.2.4 0 .4.3.7.7 1.1 1.1.1.1.2.1 0 .3-.1.1-.1.1-.2 0 0 0-.1 0-.1-.1-.1-.1-.1 0-.1 0-.1.1-.1.1 0 .3.1.1.1.1 0 .2l-.7.7c-.1.1-.1.1-.2 0-.2-.2-.2-.2-.3 0v.1c.1 0 .1.1.1.1v.1l-.2.2c-.1.1-.1.1-.2 0-.2-.1-.5-.3-.7-.4-.3-.2-.6-.3-.8-.5-.1-.1-.1-.1 0-.2.3-.2.7-.5 1-.9zm2.1 4.7c.1 0 .1 0 0 0 .1-.1 0-.1 0-.1-.1 0-.1 0-.2-.1h-.1v.2c-.3-.2-.7-.4-1-.6-.1-.1-.2-.1-.3-.2-.2-.1-.4-.2-.5-.3 0 0-.1 0 0-.1h.1c.1.1.2.1.3.1h.1s0-.1-.1-.1-.2-.1-.3-.2c-.1 0-.1 0-.1-.1-.1-.1-.3-.1-.4 0 0 .1-.1 0-.1 0l-.2-.2v-.1h.2v-.1h-.1c-.1 0-.1 0-.2-.1l-.1-.1h-.1l-.6-.6v-.1c0-.2.1-.3.1-.5 0-.1 0 0 .1 0 .2.2.5.3.7.4.3.2.6.4.9.5l.6.3c.3.2.6.3.9.5.3.1.5.3.8.4 0 0 .1 0 .1.1s.1.2.2.3H19.9l.6.3v.1c0 .1.2.3.3.2.1 0 .2 0 .2.1 0 0 .1 0 .1.1.2.2.4.3.5.5 0 0 .1.1 0 .1-.1.1-.1.1-.1.2-.1 0-.1 0-.1.1s-.1.1-.2.1-.2-.1-.3-.1c-.2-.1-.3-.1-.5-.2 0 0-.1 0 0-.1 0-.1 0-.1-.1-.1s-.2 0-.2-.1H20v.2c-.1 0-.1-.1-.2-.1s-.1-.1 0-.1.1-.1.1-.2-.2-.2-.3-.2c-.1 0-.1.1-.2.2-.3-.1-.4-.1-.5-.2zm7.8 3.2c-.3-.2-.6-.5-.9-.8-.5-.5-1.1-1-1.6-1.5V25l.4-.4h.1l.3.3 1.7 1.7 1.7 1.7.6.6.8.8.8.8c.1.1.1.1 0 .2l-.1.1c-.1.1-.1.1-.2 0l-1-1c-.6-.5-1.1-1.1-1.7-1.6-.3-.3-.6-.5-.9-.8zM10.6 16.9s0 .1 0 0c-.3-.2-.5-.5-.8-.7 0 0-.1-.1 0-.1l.5-.5h.1c.1.1.1.2.2.2.2.1.3.3.5.4.4.3.7.7 1 1l1.1 1.1c.1.1.1.2 0 .3-.1.1-.1.2-.2.2s-.1.2 0 .2 0 .1.1.1c0 .2.1.3.3.3h.1c0 .1.1 0 .2 0l.1-.1.1-.1v.1c0 .2-.1.3-.1.5v.1h-.1l-.5-.5c-.4-.4-.8-.8-1.2-1.1l-.7-.7-.7-.7zm13 14.4H23.3c-.1.1-.2.2-.3.2v.2h-.1c-.2-.2-.4-.4-.7-.6-.1-.1-.1-.1 0-.1.2-.2.4-.4.6-.7.4-.4.8-.8 1.1-1.2.1-.1.1-.1.2 0l.4.4c.2.2.2.2 0 .3l-.1.1s-.1.1 0 .1v.2l-.1.1c.1 0 .1-.1.1-.1h.1c.1.1.1 0 .2 0l.1-.1c.2-.1.1-.1.2 0v.1c-.1.1-.2.3-.4.4l-.4.4-.4.4c-.2.2-.4.5-.7.7H23c-.1-.1-.2-.1-.3-.2 0 0-.1 0 0-.1h.2l.2-.2s.1-.1 0-.1l.5-.2zM14.2 20c-.1-.2-.1-.4-.2-.5-.1-.4-.3-.9-.4-1.3-.1-.3-.2-.6-.4-1 0-.1-.1-.2 0-.3.1-.1.1-.2.2-.3.2-.4.5-.7.8-1l.3-.3c0-.1.1-.1.1 0l.3.3s.1.1 0 .1l-.2.2c-.1.1 0 .1 0 .2 0 0 .1 0 .1.1.1 0 .1.1 0 .1l-.1.1c-.2.2-.3.5-.4.8 0 .1 0 .2-.2.1H14s0 .1.1.1c0 0 .1 0 0 .1v.6c-.1 0-.1.1-.1.2s0 .1.1.2v.4c0 .1 0 .1.1.2.1.3.1.6.2.8v.1c-.1-.1-.2-.1-.2 0zm5.3-5.2h-.2c-.3-.1-.5-.1-.8-.2-.1 0-.3-.1-.4 0 0-.1-.1-.1-.1-.1-.1 0-.3 0-.4.1H16.9s0-.1-.1 0c0 0-.1.1 0 .1v.1h-.1c-.3.1-.6.3-.8.5-.1.1-.1.1-.2 0 0-.1-.1-.1-.2 0-.1 0-.1.1-.2.2h-.1l-.3-.3v-.1c0-.1.1-.1.2-.2.4-.4.9-.7 1.3-1 .1-.1.2-.1.3 0 .1 0 .1.1.2.1.4.2.8.3 1.3.5.3.1.6.2 1 .3.1 0 .2 0 .3.1 0 0 .1 0 .1.1-.2-.3-.2-.3-.1-.2zm-2.7 4.6c0 .1 0 .1 0 0-.1.1-.2.3-.4.4l-.7.7h-.1v-.1c0-.2.1-.4.1-.6.1-.4.2-.7.3-1.1.1-.5.3-1.1.4-1.6 0-.1 0-.1.1 0 .4.4.8.7 1.2 1.1.1.1.1.1 0 .2-.3.4-.6.7-.9 1zm3.3-3.4c0 .1-.1.1-.1.1l-.6.6-1.4 1.4s-.1.1-.1 0l-.3-.3c-.3-.3-.6-.6-.9-.8-.1-.1-.1-.1 0-.1h.1c.3-.1.7-.2 1-.3.5-.1.9-.3 1.4-.4.3 0 .6-.1.9-.2zm11.4 8.7c.1 0 .1-.1.2-.1 0 .2-.1.4-.2.5l-.4.4-.7.7s0 .1-.1.1-.1-.1-.2-.1v-.1l.4-.4-.3.3c-.2.2-.2.2-.4 0s-.2-.1 0-.3l.9-.9.3-.3-.6.6c-.2.2-.4.4-.7.6-.2.2-.1.1-.3 0v-.1c.1 0 .1-.1.1-.2.1-.1.1-.1 0-.1s0-.1 0-.1l.4-.4s.1-.1.1 0c0 0 .1.1.1 0l.2-.2h-.1c.1 0 0-.1 0-.1v-.1l.3-.3c0-.1.1-.1.1 0s.1.1.1 0l.1-.1.1-.1c.1 0 .1.1.1.2v.1s-.1.1-.1.2c.1 0 .1-.1.2-.2.1.2.1.3.1.5v.1c.4-.2.4-.2.3-.1zm-1.1-1.9c.1-.1.1-.2.2-.1l.5.5s.1.1 0 .1l-.2.2s-.1.1 0 .1v.1c-.1.1-.2.2-.3.4h-.1c-.1-.1-.1 0-.2 0l-.2.2s-.1.1 0 .1v.1l-.4.4h-.1c-.1-.1-.1 0-.2 0l-.1.1c-.1.1-.1.1-.2 0-.2-.2-.3-.4-.5-.5v-.1c.1-.1.1-.2.2-.2l1-1c.2-.1.4-.2.6-.4 0 .1 0 .1.1.1v-.1h-.1zM18 12.9l.4.4s.1.1 0 .1c-.1.1-.2.1-.2.2-.1 0-.2 0-.4-.1-.4-.4-.8-.8-1.2-1.1-.3-.3-.6-.6-.9-.8l-.2-.2c-.2-.1-.3-.3-.5-.5v-.1l.1-.1c.1 0 .1 0 .1-.1 0 0 .1-.1.1-.2 0 0 .1-.1.2-.1.1-.1.1-.1.2 0l.2.2v.1c-.1 0-.2.2-.2.2.1.1.2.3.3.3.1 0 .1.1.2.1s.1.1 0 .2 0 .2.1.2.1 0 .1-.1c0 0 0-.1.1 0l.1.1c.2.2.4.4.7.6.3.2.5.5.7.7zm9.4 12.8.3-.3.3-.3s0-.1.1 0v.1l-.3.3v.1c.1 0 .1.1.2.1.1.1.1.1.1 0l.2-.2h.1c0 .2.1.3.1.5s.1.4.1.6v.1l-.2.2-.5.5c-.1.1-.1.1-.2 0-.3-.3-.6-.7-.9-1-.1-.1-.1-.1 0-.2.2-.1.4-.3.6-.5zm.9-1c.1-.1.1-.1.2-.1h.1l.5.5.9.9c.1.1.1.1 0 .1l-.4.4-.1.1c-.2 0-.3.1-.5.1-.1 0-.1 0-.1-.1-.1-.2-.1-.3-.1-.5 0-.4-.2-.7-.4-1-.1-.1-.2-.2-.1-.4-.1.1 0 .1 0 0-.1.1-.1 0-.2-.1v-.1h.2v.2zm-13.1-4c0-.1.1-.2 0-.3v-.3c.1-.3.2-.6.2-.9 0-.1 0-.2.1-.3.1-.1.1-.1.1-.2s.1-.2 0-.2c0-.1.1-.3.1-.5 0 0 0-.1.1-.1s.1 0 .1-.1.1-.2 0-.2c0-.1 0-.2.1-.3.1-.1.2-.3.1-.5v-.1h.1l.1.1c.1.1.2.2.1.4l-.3 1.2c-.1.4-.2.8-.3 1.3-.1.3-.1.6-.2.9 0 0 0 .1-.1.1h-.3zm5.1-5.2c0 .1-.1.2-.1.3 0 .1 0 .1-.1.1-.4.1-.7.2-1.1.3-.3.1-.7.2-1 .3-.4.1-.9.2-1.3.4h-.1l-.3-.3v-.1h.1c.1.1.1.1.2 0 .1 0 .2 0 .3-.2 0-.1.2-.1.2-.1.1 0 0 0 .1.1h.2s.1 0 .1-.1c0 0 0-.1.1-.1s.3-.1.4-.1h.1c.1 0 .3 0 .3-.1s.1-.1.2-.1c.4-.1.9-.2 1.3-.4h.2c0 .2.1.2.2.1zm-6.1 3s.1-.1.1 0c.1 0 .2 0 .3.1.2.1.5.1.7.2.1 0 .1.1.1.1 0 .2-.1.3-.1.5-.1.3-.1.6-.2.9 0 .1 0 .1-.1.1-.1-.1-.2-.1-.3-.2-.1 0-.2-.1-.2-.2 0-.2-.1-.3-.1-.5s-.1-.4-.1-.6c-.1-.2-.2-.3-.1-.4zm5.4-3.5c.1.1.2.3.3.4 0 0 0 .1-.1.1-.3.1-.6.2-.9.2-.2 0-.3.1-.5.1h-.1c0-.1-.1-.3-.1-.4-.1-.2-.1-.4-.2-.5 0-.1-.1-.1 0-.2s.1-.1.3-.1c.3.1.7.2 1 .2.1.1.2.1.3.2zm-1.3-.8c-.1 0-.2-.1-.4-.1-.2-.1-.4-.1-.5-.2-.2-.1-.4-.1-.6-.2-.2 0-.3-.1-.5 0-.1 0-.2.1-.3 0h-.1c-.1 0-.1 0-.1-.1v-.1l.4-.4h.1s.1.1.1 0V13c-.1 0 0-.1 0-.1l.3-.3s.1-.1.1 0c.2.2.3.4.5.5l.5.5s.1 0 0 .1c0 0-.1 0 0 .1l.1.1h.1c.1 0 .2.1.3.3zm-2.5 1.1c.1 0 .2-.1.3-.2.2-.1.4-.3.7-.3h.1c0 .2.1.3.2.5.1.3.2.5.2.8 0 0 0 .1-.1.1s-.2.1-.3.1h-.1c-.3-.3-.6-.5-.9-.8-.3-.1-.3-.1-.1-.2zm-.3 1.5.3.3s.1.1 0 .1c0 .1-.1.2-.1.3 0 0 0 .1-.1.1h-.3c-.2-.1-.4-.1-.7-.2-.1 0-.3-.1-.4-.1-.1 0-.1-.1-.1-.1.1-.3.3-.7.5-.9.1-.1.1-.1.2 0 .4.1.6.3.7.5zm-2.2 1.5-.1-.1s-.1-.1 0-.1V18h-.1c0 .1-.1 0-.1 0l-.3-.3-.6-.6V17l.4-.4.4-.4c.1-.1.1-.1.1 0 0 0 .1.1 0 .1v.1c.1.1.1.1 0 .2 0 0 0 .1-.1.1-.1.1-.1.2 0 .3.1.4.3.7.4 1.1.1.1.1.3.1.4-.1-.1-.3-.2-.2-.4 0 0 0-.1-.1-.1.2.1.2.2.2.3zm11.6 12.4c0-.1.1-.1.2-.2l.4-.4s.1-.1.1 0l.2.2v.1s0 .1-.1.1c-.2.1-.3.3-.5.5l-1.1 1.1H24c-.1 0-.2-.1-.4-.1-.1 0 0-.1 0-.1l.5-.5c.3-.2.6-.4.8-.7zm-7.3-16s.1.1.1.2c.1.3.2.7.3 1.1 0 .1 0 .1-.1.1-.2 0-.3.1-.5.1h-.1c0-.1-.1-.1-.1-.2-.1-.2-.2-.5-.2-.7-.1-.2-.1-.3-.2-.5v-.1c.1 0 .2-.1.3-.1.3 0 .4 0 .5.1zM14.3 18c-.1 0-.1 0 0 0-.1-.3 0-.4 0-.6h.1c.1 0 .2.1.4.1.2.1.4.1.5.2.1 0 .2 0 .3.1.1 0 .2.1.1.2 0 .2-.1.3-.1.5 0 .1-.1 0-.1 0-.3-.1-.6-.2-.8-.2-.2-.1-.3-.2-.4-.3zm8.3 2.1c-.2-.3-.4-.7-.6-1-.2-.4-.5-.8-.7-1.2-.1-.1-.1-.2 0-.3 0-.1 0-.1.1-.1s.1.1.1.1c.2.3.3.6.5.9.1.2.3.5.4.7.2.3.3.5.5.8v.1c-.1.1-.1.1-.3 0 0 .1 0 .1 0 0zm3.3 2.9c0-.1 0-.1 0 0 0-.3-.2-.5-.5-.5-.1 0-.2 0-.2-.1s-.1-.2-.1-.3V22l.2-.2h.2c.1 0 .1.1.2.1.1.1.1.1 0 .2s-.1.1 0 .2.3.2.4.4c0 0 .1.1.2 0h.2v.2c-.2.3-.5.5-.7.8l-.1.1c-.1 0 0-.1 0-.2s0-.1.1-.1.3-.1.3-.2c0 0-.1 0-.1.1-.1.1-.2.1-.3.1h-.1c0-.1 0-.1.1-.1h.1v-.2s0-.1.1 0h.1V23c.1 0 0-.1.1-.2v-.1l-.1-.1c-.2 0-.1.2-.1.4zm-5.9.3V23l.9-.9 1.7-1.7c.1-.1.2-.1.2-.1h.1c0 .1 0 .1-.1.1-.4.3-.7.7-1 1-.2.2-.4.5-.7.7-.3.4-.7.8-1.1 1.2zm-.2.1h-.1c-.3-.2-.5-.3-.8-.5-.2-.1-.5-.3-.7-.4l-.6-.3c-.1-.1-.3-.2-.4-.2-.1 0-.1-.1 0-.1s.2-.1.2-.1h.1c.4.2.7.4 1.1.6.3.2.7.4 1 .6.2 0 .2.1.2.4zm5.6 7.5c.1-.2.3-.3.4-.4 0 0 0-.1.1 0 .1 0 .1.1.2.2 0 .1 0 .1-.1.1-.4.4-.8.9-1.3 1.3-.1.1-.3.1-.4.1h-.1v-.1l1.2-1.2zm-5.1-16.1c.2.1.3.3.4.4 0 0 .1 0 0 .1h-.1c-.2-.2-.5-.4-.7-.6l-.8-.8-1-1-.8-.8-.6-.6s-.1-.1 0-.1h.1l.9.9 1.7 1.7c.3.1.6.5.9.8zm.9 2.9c-.1-.1-.1-.1-.1-.2-.2-.3-.3-.6-.5-.8-.1-.1-.2-.3-.2-.4v-.1c0-.1.1-.1.2-.1s.1.1.1.1l.6 1.2c0 .1.1.1.1.2-.1-.1-.2 0-.2.1zm-4.1 5.6c.1.1.2.1.3.2l.2.2c.2.2.4.3.6.4l.6.3c.3.1.6.2.8.3 0 0 .1 0 .1.1h-.2c-.3 0-.5-.1-.8-.2-.3-.1-.6-.2-.8-.4l-.6-.6c-.1-.1-.1-.2-.2-.3zm9-2.7c.1.1.3.2.4.3l.8.8s.1.1 0 .1l-.3.3h-.1l-.3-.6c-.1-.3-.3-.6-.5-.9zm-8.8 1.1c-.1.1-.2.1-.4 0-.4-.2-.9-.5-1.3-.7 0 0-.1 0-.1-.1s.2-.2.2-.1c.1.1.3.1.4.2.2.1.5.3.7.4.2.1.3.2.5.3zM16 16.6l-.9-.9-.6-.6V15s.1-.1.1 0l1.3 1.3c.2.2.3.2.1.3.1 0 0 0 0 0zm-.1-.6c-.2-.2-.4-.3-.5-.5v-.1s.1-.1.1 0h.1c.1.1.2.2.4.3.2.2.5.4.7.6l.1.1c0 .1-.1.1-.2.1h-.2c-.1-.2-.3-.3-.5-.5zm-.1 1c-.3-.4-.6-.7-1-1.1v-.1s.1-.1.1 0l.5.5.4.4c.2.1.2.2.2.3 0 .1 0 .1-.1.2 0 0 0-.1-.1-.2.1.1 0 0 0 0zm-5-3.5c0-.1.1-.2.1-.2l.6-.6.3-.3s.1-.1.1 0h.1v-.2c.1-.1.2-.2.3-.2-.1.1-.1.2-.2.3l-.6.6c-.1.1-.3.2-.4.4 0 .2-.2.1-.3.2zM24.3 20l-.1-.1c-.1-.1-.1-.2-.1-.3 0-.2-.1-.3-.2-.5s-.2-.5-.3-.7c-.1-.1-.2-.3-.3-.4-.1-.2-.3-.4-.5-.5-.1-.1-.2-.1-.2-.2.1.1.2.1.3.2l.6.6c.1.2.3.5.4.7.1.2.2.4.2.6.2.3.2.4.2.6zm.8 9.4H25l-.1-.1c-.1-.1-.2-.3-.1-.4 0-.1.2-.2.3-.1.1.1.1.2.2.2v.1h.1v.1c-.1 0-.2.1-.3.2 0 0 0 .1 0 0-.1 0 0 0 0 0zm-1-4.9c.1-.1.2-.3.4-.4 0 0 .1-.1.1 0s.1.1 0 .2c-.2.2-.4.5-.7.7h-.1c0-.1-.1-.1-.1-.2.2 0 .3-.1.4-.3zm-10.2-5.2c-.1 0-.1 0-.1-.1 0 0 0-.1-.1 0v.2h-.1s0-.1-.1 0c0 .1.1.1.1.1s-.1-.1-.2 0h-.1c-.1 0-.1-.1-.2-.2v-.1c.1 0 0-.1 0-.1L13 19l.1.1h.1v-.2h.2s0-.1-.1-.1v-.1h.1c0 .1.1.1.2.1v-.1c.1 0 .3.1.3.2-.1 0 0 .1 0 .1-.1.2-.1.2 0 .3zm-1.7-7.4c0-.1.1-.1 0 0l.1-.1v.1c-.1.1-.3.2-.4.4 0 0-.1.1-.1 0 0 0 0-.1-.1 0v.1c.1.1 0 .1 0 .2-.1.1-.2.2-.4.3-.2.2-.4.3-.5.5 0 0-.1.1-.1 0v-.1l.3-.3c.2-.3.5-.5.7-.8h.2c.1-.2.2-.3.3-.3zM18 15s0 .1 0 0c.1.2.1.4.2.6 0 .1.1.2.1.3 0 0 0 .1-.1.1h-.1s-.1 0-.1-.1-.1-.2-.1-.3c0-.2-.1-.4-.2-.5 0-.1 0-.1.1-.1h.2zm-5.3-3.8c.1-.1.1-.2.2-.3l.6-.6.6-.6c.1-.1.1 0 .2 0 .1.1 0 .1 0 .1-.1.1-.2.1-.2.2-.2.2-.4.4-.6.5-.1.1-.2.2-.3.2l-.1.1-.4.4zM24 19.4c-.1-.1-1-1.6-1-1.7.5.5.9 1.2 1 1.7zM18.7 14c0 .1.1.1.1.1v.1s-.1-.1-.2 0h-.1c-.1 0-.1-.1-.1-.1s-.1-.1 0-.1l-.1-.1s-.1 0 0-.1h.1s0 .1.1.1v-.1s0 .1.1 0c0 0 0-.1-.1-.1h.1c.1.1.2.1.2.2.1.1.1.2.3.3v.1H19c-.1-.3-.1-.4-.3-.3h.1c0 .1 0 0-.1 0zm.9.5h-.1c-.3-.1-.5-.1-.8-.2-.1 0-.1 0-.2-.1l-.4-.4s.2 0 .2.1.1.2.2.2c.1.1.3.1.4.2.1 0 .2-.1.3-.2 0-.1.1 0 .1 0 0 .1.1.2.3.4zm-4.3-.3-.5.5h-.1v-.1c.1-.1.1-.3.2-.4l.7-.7s.1-.1.1 0 .1.1 0 .1c0 .3-.2.5-.4.6zm-1.6 1.6-.4.4c-.1.1-.1 0-.1 0s-.1-.1 0-.1l.3-.3c.2-.3.5-.5.9-.6h.1c-.1.2-.3.3-.5.4v-.2h-.1l-.2.2-.1.1v.1c.1.1.1.1.1 0zm5.4 8.6-.9-.3c-.3-.2-.5-.3-.8-.6.7.3 1.2.6 1.7.9zm-4.3-6.1c.3.1.5.1.7.2.1 0 .1.1.1.2s-.1.1-.1.1c-.2-.1-.5-.1-.7-.2-.1-.1-.1-.1 0-.3-.1.1 0 .1 0 0zm14.6 5.4-.4.4c-.1.1-.2.3-.4.4h-.1v-.1c.1-.2.3-.3.5-.5l.6-.6.7-.7s0-.1.1 0v.1c-.1.1-.2.2-.2.3-.3.2-.5.5-.8.7zM20 15.6s0-.1 0 0c-.1-.3-.3-.5-.4-.8h.2c0 .1.1.1.1.2.1.1.2.3.3.4 0 0 .1.1 0 .1s-.1.1-.2.1zm-7.5-3.2c-.2.2-.3.4-.5.5l-.4.4h-.1s-.1-.1 0-.1l.6-.6h.1c.1 0 .1 0 .1-.1s0-.1.1-.1c0 .1 0 .1.1 0zm1.9 7.8v-.1s0-.1.1 0c.1 0 .2.1.2.1.2.1.3.2.5.3.1 0 0 .1 0 .2h-.1c-.1 0-.2-.1-.2-.1-.3-.2-.4-.3-.5-.4zm8 10.6c.2-.3 1.8-1.9 1.9-1.9-.6.7-1.2 1.3-1.9 1.9zm-7.4-10v.2c0 .1 0 .1-.1 0l-.8-.8v-.1c.1 0 .2 0 .3.2l.5.5c-.1.1 0 .1.1 0 0 .1 0 0 0 0zM11 14s-.1.1 0 0l-.1.1V14c.1-.1.1-.1 0-.2v-.1c.1 0 .2-.1.3-.2h.1v.1c-.1.1-.2.3-.3.4zm3.8.5c0 .1 0 .1-.1.2v.1l-.2.2h-.1c-.1.1-.2.1-.4.2.3-.2.5-.5.8-.7zM13.1 11c0 .1-.1.1-.2.2-.2.2-.5.4-.7.6-.1.1-.2.1-.2.2h-.1v-.2c.3-.2.5-.4.8-.6.1 0 .2-.1.4-.2zM25 22.2c-.1 0-.2-.1-.2-.2 0 0-.1-.1-.2 0h-.1c-.1-.1-.1-.1 0-.2 0-.1.1-.1.1-.1h.1c.2.2.3.3.3.5zM15.6 10c0-.6.1-1.2.2-1.8 0 0 .1 0 0 0-.1.6-.1 1.2-.2 1.8zm-2.2.7c.2-.2.4-.4.7-.6.1-.1.2-.1.3-.2h.1l-.1.1c-.2.2-.5.4-.7.6-.1.1-.2.1-.3.2h-.1v-.1h.1zm8.3 15.9c.1.1.2.3.1.4 0 0 0 .1-.1 0 0-.1 0-.2-.1-.2v-.1h-.2s-.1-.1 0-.1v-.1h-.1c-.1.1-.1 0-.1 0v-.1h.1c.2 0 .3.1.4.2zm3.9-5c.1 0 .1.1.2.1v.1h-.1c-.1 0-.1-.1-.1-.2-.2-.1-.3-.1-.4 0l-.1.1H25v-.1c.1-.1.2-.2.3-.2.1-.1.2 0 .2 0 0 .2.1.2.1.2zm-2.8 3.7.2-.1c.1 0 .1.3 0 .3-.1.1-.1.1-.2 0s-.1-.1 0-.2zM10.1 14.5c0-.1.1-.3.1-.4 0-.1.1 0 .1 0 .1 0 .1.1.2.1s.1.1 0 .1c-.1.1-.3.1-.4.2zm-.1 1.2c-.1 0-.1 0 0 0 .1-.1.2-.2.2-.3 0 0 .1-.1.1 0v.1l-.2.2-.3.3h-.1v-.1c.1 0 .2-.1.3-.2zm11.5 11.6h-.3s-.1 0 0-.1v-.1h-.1s0 .1 0 0v-.2H21v-.1s.1.1.1 0 .1 0 .1 0l.2.2s.1.1 0 .1v.1h.1c-.1 0-.1.1 0 .1zm-.2-.4-.2-.2v-.1h.1l.3.3v.1h-.1s-.1 0-.1-.1zm0-1.5c.1 0 .1 0 0 0 .1-.1.2-.1.2-.1v.1c-.1.1-.2.3 0 .5l.1.1v.1h-.1l-.3-.3c0-.1 0-.2.1-.4 0 .1 0 .1 0 0zm.3-3.4c-.1-.1-.1-.1-.1-.2.1 0 .1.1.1.2.1 0 .2.1.3.2.2.2.4.4.6.5 0 0 .1 0 0 .1h-.1c-.3-.3-.5-.6-.8-.8zm.2 3.3c-.1 0-.2-.1-.3-.1-.1 0-.2-.1-.1-.2 0-.1.1-.1.2-.2.1 0 .1.1.1.2s-.1.1 0 .2c0 0 0 .1.1.1zm6.7-.9c-.2-.2-.2-.2-.3-.1l-.1.1c-.1.1-.1.1-.2 0 .1 0 .2 0 .2-.1V24h.1c.1.2.2.3.3.4zM13.1 11.1v.1c-.2.2-.4.3-.5.5h-.1v-.1c.1-.1.2-.2.3-.2.1-.2.2-.3.3-.3zM26 21.9l.4.4c.1.1.1.1 0 .2 0-.1 0-.1-.1-.2l-.2-.2c-.1 0-.1-.1-.1-.2zm-1.2 2.4s0 .1-.1.1l-.6.6H24v-.1c.3-.1.5-.3.8-.6-.1.1-.1 0 0 0zM22 26c.1 0 .1.1.1.2s0 .1-.1 0h-.1s-.1 0-.1-.1V26c0-.1.1-.1.2 0zm6.6-1.6v-.1c0-.2.1-.3.3-.3.1 0 .1 0 0 .1-.1 0-.2.2-.3.3zM11.5 13.6c-.3.3-.5.6-.9.9.3-.3.5-.6.9-.9zm6.2 7.5c-.1-.1-.1-.1 0-.2s.1-.1.2 0l.1.1v.1c-.1.1-.2.1-.3 0zm4 5.3h.2l.3.3h.1c.1 0 .1 0 .1-.1-.1.2-.2.2-.3.1-.2-.1-.3-.2-.4-.3zm-2.2-7.1c-.1-.1-.1-.1 0-.2s.1-.1.2 0 .1.1 0 .2-.1.1-.2 0zm6.2 2.7c.1 0 .1-.1.1-.1s.1.1 0 .1v.2h-.1c-.1.1-.1-.1 0-.2zm-9.8-11c0-.1 0-.1 0 0-.1-.1-.1-.2-.1-.3.1 0 .1-.1.2 0l.2.2v.1c-.1.1-.1.1-.3 0 .1 0 0 0 0 0zm2.9 9.1-.1-.1c0-.1.1-.1.2 0l.1.1v.1c-.1 0-.2 0-.2-.1zm1.8-1.9-.1-.1c0-.1.1-.1.2 0l.1.1v.1c-.1 0-.1 0-.2-.1zm-10.2-4.1-.1-.1v-.1h.1l.2.2s.1 0 0 .1c0 0 0 .1-.1 0l-.1-.1zm10.7 12.4c.1 0 .1 0 0 0 .2.2.4.3.5.5v.1l-.1.1h-.1l-.4-.4-.1-.1c0 .1 0 .1.1.1l.2.2.1.1c.1.1.1 0 .1-.1v-.1l-.1-.1c.1 0 0-.2-.2-.3zm-6.7-8v-.2h.2s0 .2-.1.2c0 0 0-.1-.1 0zm-2.8-5c.3-.3.6-.6.9-1-.2.4-.6.7-.9 1zm-2.4 1.6.1-.1c.1 0 .1.2 0 .2-.1.1-.1.1-.2 0 0-.1.1-.1.1-.1zm1-.6c.1-.1.3-.1.4-.2 0 0 0 .1-.1.1s-.1.1-.1.1c0 .1-.1.2-.2 0 0 .1 0 .1 0 0zm9.7 4.9c.1.1.1.1 0 .2s-.1 0-.2 0c-.1-.1 0-.1.1-.2s.1-.1.1 0zM18 21.2c.1-.1.1-.1.2 0s.1.1 0 .2-.1 0-.2-.1c-.1 0-.1 0 0-.1zm8.9 4.9-.2.2c0-.1-.1-.1-.1-.1 0-.1.1-.1.1-.1h.2zM14.3 10.5c.1 0 .1.1.2.1v.1h-.1l-.3-.3v-.1h.1c0 .1.1.2.1.2zm6.7 7.8c.1.1.1.1 0 .2s-.1 0-.2 0c-.1-.1 0-.1 0-.2.1-.1.2 0 .2 0zm-6.1-7.6.6-.6c-.2.2-.3.4-.6.6zM25.4 23c0-.2 0-.2.1-.3h.1v.1c-.1 0-.1.1-.2.2zm-3.1 2c.1 0 .1.1.2.2l-.3-.3v-.1h.1c-.1.1-.1.2 0 .2zm-2-9c0-.2.1-.3.1-.4.1.1.1.2 0 .3 0 0 0 .1-.1.1zm-1.1 4.2s.1.1 0 .1c0 0-.1.1-.2 0 0 0-.1-.1 0-.2.1.1.1 0 .2.1zm-5.7-9.3c.1 0 .1-.1.2-.1 0 0 .1-.1.1 0v.1h-.3c0 .1 0 .2-.1.1-.1 0 0-.1.1-.1zm12.6 11.5-.1-.1.1-.1.2.2v.1c-.1 0-.1 0-.2-.1.1.1 0 0 0 0zm-14-9.9c-.2.3-.5.5-.8.7.3-.2.6-.5.8-.7zm13.7 14.7c0-.1 0-.1-.1-.2l.1-.1h.1c0 .1.1 0 .1.1l-.2.2zm-11.3-6.7c.1 0 .3.1.4.2v.1h-.1l-.3-.3zm13.6 4.9-.1.1h-.1v-.1l.2-.2h.1v.1c0 .1-.1.1-.1.1zm-2.2-3c-.1 0-.1 0 0 0-.1-.1 0-.1 0 0l.1-.1.1.1s.1 0 0 .1H26s-.1 0-.1-.1zm-10.3-1.7c-.1.2-.2.2-.4.1.1 0 .2-.1.4-.1zm-1-11s0-.1 0 0c.1-.1.1-.1.2-.1v.1c0 .1-.1.1-.1.1-.1 0-.1 0-.1-.1-.1 0 0 0 0 0zm13.2 15.2c0-.1.1-.1.1-.1s0 .1.1.1.1.1 0 .1l-.1.1c0-.1-.1-.1-.1-.2zM15.9 13.7l.1-.1c.1 0 .1.1 0 .2 0 0-.1.1-.1 0-.1 0-.1 0 0-.1zm8.8 8.8-.1-.1s-.1 0 0-.1h.1l.3.3h-.1c-.1 0-.2 0-.2-.1zm-11.2-3.9.3.3c-.1-.1-.2-.2-.3-.1v-.2zm.1-8s0 .1 0 0c-.1.2-.2.2-.3.3h-.1c.2-.1.3-.2.4-.3zm4.7 2.4c0 .1.1.1.1.2V13.5c-.1 0-.1-.1-.2-.2.1-.1 0-.2.1-.3zm-7.7.9c0-.1.1-.1.2-.1 0 0 .1.1 0 .1-.1.2-.1 0-.2 0zm11.5 12.6s-.1 0 0 0c0-.1-.1-.1-.1-.1h.1l.1.1v.1l-.1-.1c0 .1 0 .1 0 0zm2.8-5.1c-.1.1-.2.2-.4.3.1-.1.3-.2.4-.3zm-10.5-12 .1-.1h.1v.1l-.2.2v-.2zm6.8 15.8c-.1 0 0 0 0 0 0-.1.1-.2.1-.3 0 0 0-.1.1 0v.1c-.1 0-.1.1-.2.2zm-3.4-10.4h.1c.1 0 .1 0 .1.1s0 0-.1 0c-.1.1-.1.1-.1-.1-.1.1-.1.1 0 0zm-7.2-1.4c-.1.2-.3.3-.4.4l.4-.4zm11 12.8c.1-.1.1 0 .1 0s.1.1 0 .1h-.2l.1-.1zm1.5-5.8c0 .1.1.1.1.2v.1h-.1v-.3c-.1 0-.1 0 0 0zM21.2 24s0 .1 0 0l-.6-.3.6.3zm3.2-5.1c-.1 0-.2-.1-.3-.3.1 0 .2.1.3.3zm-4.9 5.6c0-.1-.1-.2-.2-.2.1 0 .1 0 .2.1v.1zm3.1 1.3c-.1.1-.1.1-.1.2h-.1v-.1c0-.2.1-.1.2-.1zM11 13.5c0 .1 0 .1-.1.1s-.1 0-.2.1h-.1v-.1c.2 0 .3.1.4-.1-.1.1-.1.1 0 0 0 .1 0 .1 0 0zM27.9 24c0-.1-.1-.1 0 0 0-.2.1-.2 0 0 .1 0 .2 0 .1.1 0 0 0-.1-.1-.1zm-10.6-8c.1.1.1.2.1.3v.1c-.1-.2-.2-.3-.1-.4zm-.9-4.7c.1 0 .1 0 0 0 .1-.1.1-.1.1 0h-.1c.1.1 0 .1 0 .1h-.1c.1 0 .1 0 .1-.1zm-2.1 7.1s-.1 0 0 0c-.1 0-.1-.1-.1-.1h.1c0-.1.1 0 0 .1zm12.9 4.1s.1 0 0 0c.1-.1.1-.1.1 0-.1 0-.1 0-.1.1v-.1c-.1.1 0 .1 0 0zm-6.9 1s.1.1 0 0c0 .1 0 .1 0 0h-.2c.1-.1.1 0 .2 0zm5.6-1.5c0-.1-.1-.1 0 0v-.1.1c.1 0 .1 0 .1.1-.1 0-.1-.1-.1-.1zM11 17.4l-.7-.7.7.7zm3.5-7.8c.1-.1.1-.1 0 0l.1-.1v.1h-.1c0 .1 0 .1-.1.1l.1-.1zm1.8 1.3c.1.1.2.1.2.2l-.1-.1c-.1 0-.1 0-.1-.1zm-6.1 2.8c.1-.1.2-.3.4-.4-.1.2-.3.3-.4.4zM23 25.6c.1 0 .1-.1.2-.1v-.3c.1.1.1.2 0 .3-.1.1-.1.2-.2.1zm-13.7-8 .1.1v.1c0-.1 0-.2-.1-.2h.1c-.1-.1-.1 0-.1 0zm5 3c-.2-.1-.3-.3-.4-.4l.4.4zm2-9.5c.1 0 .1 0 0 0 .2.1.2.1 0 0 .1.1 0 .1 0 .1v-.1zM27.6 20l.2.2h-.1c-.1 0-.1-.1-.1-.2zm-6 6.9c-.1-.1-.3-.2-.4-.4l.4.4zm-8.3-10.6c.1 0 .1 0 0 0 .1 0 0 .1 0 .1v-.1zm-.9 2.4c.2.1.3.3.5.4-.2-.1-.4-.2-.5-.4zm1.6-8.1s-.1 0 0 0h-.1l.1-.1v.1c0-.1 0 0 0 0zm8.8 15.2c0 .1-.1.1-.2.2 0-.1.1-.2.2-.2zm5.4-1.8c.1 0 .1 0 0 0h.1s.1 0 .1.1v.1h-.1c0-.1 0-.2-.1-.2zm-8.1-9c.1 0 .1.1.2.1v.1c-.1 0-.1-.1-.2-.2zm-7.8-2.7c0 .1.1.1 0 0l.1.1c-.1 0-.1.1-.2 0l.1-.1zm12.9 5.3c0 .1 0 .1.1.2h.1-.1c-.1 0-.1 0-.1-.2 0 .1-.1.1 0 0zm-11.8-1.4.3-.3c-.1.2-.1.3-.3.3zm3.2 6.5c-.1-.1-.2-.1-.3-.1.1-.1.2 0 .3.1zm-7.3-7.8-.3.3c.1-.1.1-.2.3-.3zm4.5 5.2-.3-.3.3.3zm1.6-11.3s.1-.1.1 0c.1 0 0 .1-.1 0 .1.1 0 .1 0 .1v-.1zM15 10c-.1.1-.1.1-.2 0 .1 0 .1.1.2 0zm-5.8 4.8c-.1.1-.2.3-.3.3l.3-.3zm7.8.5c.1.1.1.2.1.4 0-.1 0-.2-.1-.4zm-3 4.5v.3-.3zm3.9-5.1c-.1 0-.1.1-.2 0 0 0 .2-.1.2 0zm8.1 7.5c0-.1 0-.1 0 0 .1 0 .1 0 0 0 0 .1 0 .1 0 0-.1 0-.1 0 0 0zm-4.1 4.2s0-.1 0 0c0-.1.1-.1 0 0 .1-.1.1 0 0 0 .1 0 0 0 0 0zm1.4-5.8c.1 0 .1 0 0 0 .1 0 .1.1.1.1l-.1-.1zm5.2 3.3c.1 0 .1-.1.1-.1.1.1 0 .1-.1.1.1 0 .1 0 0 0 0 0 0 .1 0 0-.1 0 0 0 0 0zm-3.1-.8.3-.3c-.1.2-.2.3-.3.3zm-2.7-3.6c.1 0 .1.1.1.2 0-.1-.1-.1-.1-.2zm-6.4 3.2c0-.1.1 0 .2 0s.1.1.1.1c-.1-.1-.1-.1-.3-.1zm-6.1-7.9c.1 0 .1 0 .1.1-.1 0-.1 0-.1-.1zm16.2 6-.2-.2c.1.1.2.1.2.2zm.8.8c-.1 0-.2-.1-.2-.2.1 0 .1.1.2.2zm1.3 5.5c.1.1.2.1.2 0-.1.1-.1.1-.2 0zM15 9.8c.1.1.1.1 0 .2v-.2zm2-.1c.1 0 .1.1.2.1-.1.1-.2 0-.2-.1zm4.4 7.8c0 .1-.1.2-.1.3 0-.2 0-.2.1-.3zm9.7 6.2c.1 0 .1 0 0 0h.1c0 .1 0 .1-.1 0 0 .1 0 .1 0 0 0 .1-.1.1 0 0 0 .1 0 .1 0 0zM9.6 15.4c0-.1 0-.1 0 0 0-.1 0-.1 0 0 .1-.1.1 0 0 0zm5.9-5.8c0-.1 0-.1 0 0v-.2.2c0-.1 0-.1 0 0zm8 6.4zm-10.2-4.9s.1.1.1 0c0 .1 0 .1-.1 0 0 .1 0 .1 0 0zm-3.1 5.5-.3-.3.3.3zm2 1.9-.3-.3c.1.2.2.2.3.3zm16.2 5.2c-.1 0-.1 0 0 0-.1 0-.1-.1 0 0-.1-.1-.1-.1 0 0 0-.1 0 0 0 0zM11.2 13.4c0 .1-.1.1-.2.1.1 0 .2-.1.2-.1zm7.1-.4c-.1 0-.1 0-.1-.1l.1.1c-.1 0-.1 0 0 0 0-.1 0 0 0 0zm-4.2 6.9v.1c-.1 0 0 0 0-.1zm5-6.1c0 .1.1.1.1.2-.1 0-.1-.1-.1-.2zm-9.6 1.7c-.1 0-.1 0-.1-.1.1 0 .1.1.1.1zm9.8-1.5c.1 0 .1.1.1.1l-.1-.1zm1 1.4c.1-.1.1-.1 0 0l.1-.1c0 .1 0 .1-.1.1zm11 8.2s0 .1 0 0c0 .1 0 .1 0 0 0 .1-.1 0 0 0z"/><path d="M21.6 28.9c0-.1 0-.2-.1-.3 0 .1 0 .2.1.3zM24 28.8c-.1 0-.2 0-.2-.1s-.1-.1-.2-.2-.2 0-.3.1c-.1.1-.1.2 0 .3v.1l-.3-.3c-.1-.1-.1-.2-.2-.3l-.1.1v.1l.2.2c.1 0 .1.1.1.1.2.2.4.3.5.5l.1.1.1-.1v-.1c0-.1.1-.1.2-.1h.1s.1 0 .1-.1V29l-.2-.2s-.1 0 0-.1h.1c.1 0 .2-.1.2-.2v-.1c0-.1-.1-.2-.2-.1 0 0-.1 0-.1.1-.1.1-.1.1-.2 0l-.1-.1h-.1c-.1.1-.2 0-.2-.1h-.1v.1l.3.3c.1-.1.3 0 .5.2zm-.7.2s.1.1.2 0c0 0 .1 0 .1.1v.1h-.1c-.1-.1-.1-.2-.2-.2zm.3-.7c-.1 0-.1-.1 0 0 0-.1 0-.1 0 0 .1-.1.1 0 0 0zm.2 0c0-.1.1-.1.2-.2h.1c-.2.1-.3.2-.3.2zm-.1.5c0 .1-.1.1-.1.2 0-.1.1-.1.1-.2zm-.2-.2s0 .1 0 0c-.1.1-.1.1 0 0-.1.1-.1.1 0 0-.1 0-.1 0 0 0zm.1.2c0 .1-.1.1 0 0-.1 0-.1 0 0 0zm.3-.5c0 .1 0 .1-.1.1 0-.1.1-.1.1-.1zM22.2 28.9c.1 0 .1.1.1.2s.1.2.2.1c.1 0 .1-.1.1-.1 0-.1-.1-.2-.2-.2s-.2-.1-.2-.2-.1-.1-.1-.1c-.1 0-.1 0-.2.1 0 .1 0 .1.1.2.1-.1.2 0 .2 0zm.2-.1.1.1s.1.1 0 .1h-.1s0-.1-.1-.1c-.1-.1-.2-.1-.2-.2v-.1h.1c0 .1.1.2.2.2zM17.6 25.6c-.1 0-.1-.1-.2-.1s-.2.1-.1.2c0 .1.1.2.1.2h.2c.1-.1.1-.2 0-.3zm-.1.1v.1-.1zM20 27.9s-.1 0-.2-.1c-.1 0-.1.1-.1.1 0 .1.1.2.2.3.1 0 .2-.1.2-.2 0 0-.1 0-.1-.1zM14.2 20.8c-.1-.1-.2-.1-.3 0v.1c0 .1.1.2.2.2s.1 0 .2-.1v-.1c0-.1-.1-.1-.1-.1zM11.5 19.8v.1c0 .1 0 .2.1.2.2.1.3 0 .3-.1s-.1-.2-.2-.2h-.2zm0 .1c.1-.1.1 0 .2 0s.1.1.1.2h-.1c.1-.1 0-.2-.2-.2zM13.5 21.5c-.1-.1-.2-.1-.3-.1-.1.1 0 .2 0 .3.1.1.2.1.3 0 .1 0 .1-.1 0-.2zM18.1 25.1s.1.1.2.1.1-.1.1-.1c0-.1-.2-.2-.3-.3-.1 0-.1 0-.1.1 0 0 0 .1.1.2zM10.2 16.8c-.1 0-.1 0 0 0-.1-.1-.2-.1-.2-.1l-.1.1c0 .1 0 .2.1.2h.1c.1 0 .1 0 .2-.1l-.1-.1zM12.5 19.1s-.1 0-.1-.1c-.1 0-.1 0-.1.1s0 .2.1.2c.1.1.2.1.3.1l.1-.1c-.2-.1-.3-.1-.3-.2zM15.9 23.9c-.1-.1-.1-.1-.2 0-.1 0-.1.1-.1.2s.1.2.2.2h.1v-.4zM16.3 23.1c-.1.1 0 .2 0 .3.1.1.2.1.3 0 .1-.1 0-.2 0-.3h-.3zm.2.3c0-.1-.1-.2-.2-.2.1 0 .1 0 .1.1.1 0 .2 0 .1.1zM23.9 25.8l-.1.1v.1h.3c.1 0 .1-.1.1-.2v-.1c-.1 0-.2 0-.3.1zm.2 0c-.2 0-.2 0-.2.2v-.1s0-.1.1-.1h.1zM22.1 27.5c-.1.1-.1.2 0 .2 0 0 .2.1.3 0 .1 0 .1-.1.1-.2s0-.2-.1-.2c-.1.1-.2.2-.3.2zm.1.1c.1 0 .1-.1.1-.1-.1 0-.1.1-.2.1 0 .1.1.1.1 0 0 .1 0 0 0 0zM20.7 27.2c-.1-.1-.1-.1-.2-.1 0 0-.1 0-.1.1-.1.1.1.3.2.3s.1 0 .2-.1c0 0 0-.1-.1-.2zm-.2.1c.1 0 .2.1.2.1v.1c-.1-.2-.1-.2-.2-.2zm0-.1c.1 0 .2 0 .2.1-.1-.1-.1-.1-.2-.1zM24.7 28c.1.1.1.1.2.1s.1-.1.1-.1 0-.1-.1-.1-.1 0-.2.1zM25 27.7s0 .1 0 0c.1.1.1.1.2.1 0 0 .1 0 .1-.1v-.1c-.2 0-.2 0-.3.1zM25.5 27.2l-.1.1c-.1.1 0 .1 0 .2.1 0 .1.1.2 0 0 0 .1-.2 0-.2-.2 0-.1 0-.1-.1zM21.5 28.6c0-.1 0-.2-.1-.3v-.2.1c0 .1 0 .3.1.4zM18.5 24.8l.7.7c-.2-.3-.4-.5-.7-.7zM19.7 26c0-.1-.1-.1-.2-.2.1.1.2.1.2.2zM26.5 19.6c-.1.1-.2.2-.2.3-.1.1-.1.3 0 .5.1.1.3.2.5.1s.3-.2.4-.3c.1-.2.2-.1 0-.3l-.4-.4s-.1-.1-.1 0c-.1.1-.2.1-.2.1zm.4.2.2.2v.1l-.3.3c-.1.1-.4.1-.5 0-.1-.1-.1-.3 0-.5l.3-.3h.1c.1 0 .2.1.2.2zM18.6 12.9c0 .1.1.1.2.1s.2 0 .2-.1v-.2H18.7c-.1 0-.2.1-.2.2 0-.1.1-.1.1 0zM27.1 20.7c-.1-.1-.2-.1-.3 0v.1c0 .1.1.3.3.3h.1c-.1-.1-.1-.3-.1-.4zM16.3 10.5l.1.1c.1 0 .2-.1.2-.2v-.1c0-.1-.1-.1-.2-.1s-.1 0-.2.1c0 .1 0 .2.1.2zM20.3 14.5c.1.1.2.1.3 0v-.3h-.3c-.1.1-.1.3 0 .3zm.2 0c-.1 0-.2-.1-.2-.2v-.1c.1.2.1.3.2.3zM22.7 16.9c.1 0 .1.1 0 0 .2.1.3.1.3 0v-.2c0-.1-.2-.1-.3-.1-.1.1-.1.2 0 .3zm.2-.1c-.1 0-.1-.1-.1-.1v-.1c0 .1 0 .2.1.2zM24.4 18.6c.1.1.2.1.2 0 .1-.1.1-.2 0-.3 0 0-.2-.1-.3 0 0 .1 0 .2.1.3zm.1-.3c0 .1.1.2.2.2-.2.1-.3-.1-.2-.2zM12.7 13.3h-.1v-.1c.1 0 .1-.1.2-.2 0 0 .1-.1.1 0v.1c.1 0 .1 0 .1-.1l.3-.3s.1-.1 0-.1c0 0-.1-.1-.2-.1l-.2.2-.6.6c-.1.1 0 .1 0 .2.1.1.1.1.2 0 0 .1.1 0 .2-.2zm.3-.5.1-.1s.1.1 0 .1l-.1.1h-.1l.1-.1c-.1.1-.1.1 0 0zm-.6.6s.1 0 0 0c.1-.1.1-.1.1 0v.1l-.1.1h-.1c0-.1 0-.1.1-.2 0 .1 0 0 0 0zm-.1.2c-.1 0-.1 0 0 0 0-.1 0 0 0 0 0 .1 0 0 0 0z"/><path d="M13.1 12.5c-.2 0-.2.1-.3.2 0 .1-.1.1-.1.1l-.5.5-.3.3.3-.3c0 .1-.1.1-.1.1.3-.1.7-.5 1-.9zm-.9.9c0-.1.1-.1.2-.2l-.2.2zM13.4 13.7h-.1v.1l.1-.1c0 .1 0 0 0 0zM13.7 14.3c.1 0 .1 0 0 0 .1 0 .1-.1.1-.1h-.1v.1zM14.3 14.7s0 .1 0 0c0 .1.1.1 0 0 .1.1.1 0 0 0 .1 0 0 0 0 0zM13.3 15.7s-.1.1 0 0c0 .1 0 .1 0 0 .1.1.1 0 0 0zM11.1 14.2c.1 0 .1 0 0 0 .2 0 .2-.1 0 0 .1-.1.1-.1 0 0zM9 16.1c.1 0 .3 0 .4-.1-.2.1-.3.1-.4.1zM13.5 14c.1.1.1 0 0 0 .1 0 .2 0 0 0 .1-.1.1-.1 0 0zM13.7 11.5c0 .1 0 .1 0 0 0 .1 0 .2 0 0 .1.1.1.1 0 0 .1 0 0 0 0 0zM15.6 11.7s0 .1 0 0c.1.1.1.1 0 0 .2.1.2 0 0 0 .1 0 .1 0 0 0zM15.2 13.8c0 .1.1.1 0 0 .1 0 .1 0 0 0 .1-.1.1-.1 0 0zM12.5 16.6c0-.1-.1-.1 0 0-.1 0-.1.1-.1.1s.1 0 .1-.1zM14.9 10.9s-.1 0 0 0c-.1.1-.1.1 0 0-.1.1 0 .1 0 0 0 .1 0 .1 0 0zM12 13.3c-.1 0-.1 0 0 0 0 .1 0 .1 0 0 .1 0 .1 0 0 0 0 0 0-.1 0 0zM16.1 12.9c.1 0 .1 0 0 0 .1 0 .2 0 0 0 .1-.1.1-.1 0 0 0-.1 0 0 0 0zM12.1 16.9c-.1 0-.1.1 0 0 0 .1 0 .1 0 0 .1.1.1 0 0 0zM16.5 12.5c0 .1 0 .1 0 0 .1.1.1 0 0 0zM9.5 16c.1-.1.1-.1 0 0 0-.2 0-.2 0 0 0-.1 0-.1 0 0zM14 11.7l-.2.2c0-.1.1-.2.2-.2zM23.2 19.9c-.1.1-.1.2 0 .3.1.1.1.1.2.1s.1-.1.1-.2 0-.1-.1-.2v-.3c.1-.1.1-.1.1-.2 0 0 0-.1-.1-.1h-.2c-.2-.3-.3-.6-.4-.8-.2-.3-.4-.7-.5-1-.1-.1-.1-.2-.2-.2l-.1-.1c0-.1-.1-.1-.2-.1h-.1c0 .1-.1.1 0 .2 0 .1.1.2.3.2.1 0 .2.1.2.2s0 .1.1.1l.1.1.3.6c0 .1.1.2.2.3v.1s0 .1.1.1c.1.3.3.6.5.9-.3-.1-.3-.1-.3 0zm0-.3c-.4-.7-.8-1.5-1.2-2.2.1.2.2.3.3.5.1.3.3.5.4.7.2.3.4.6.5 1 .1.1.1.2.1.3 0-.2-.1-.2-.1-.3zm.2.6c-.1 0-.1-.1-.2-.2l.2.2zM24 20.3c-.1-.1-.2-.1-.2 0v.1c.1 0 .1.1.1.1 0 .1 0 .1.1.1s.1 0 .2-.1c-.1 0-.1-.1-.2-.2zM21.5 16.3s-.1 0-.1-.1c0 0-.1 0 0 .1v.1c.1 0 .1.1.1.2 0 0 0 .1.1.1l.1-.1c-.1-.2-.2-.3-.2-.3z"/><path d="M22.9 18.3s.1.1 0 .1v.1l.1-.1c.1-.1.1-.2-.1-.1 0-.1 0-.2-.1-.1 0 0 .1 0 .1.1zM22.3 17.2c.1 0 .1.1.1.2 0 0 0 .1.1.1 0 0 .1-.1 0-.1 0-.1-.1-.2-.2-.2h-.1c.1-.1.1-.1.1 0zM25.4 24.2c0 .1-.1.1-.1.2s.1.1.2.1.1-.1.1-.2.1-.1 0-.2c0 0-.1 0-.2.1zM19.5 23.6c-.1.1-.1.1-.2 0-.3-.1-.6-.3-.8-.5 0 0-.1 0-.1-.1l-.1-.1h-.1c-.2-.2-.5-.3-.8-.5-.1-.1-.2-.1-.3-.2-.1 0-.1-.1-.1-.2s0-.1-.1-.2c-.1 0-.2-.1-.3 0l-.1.1c0 .1 0 .2.1.2.1.2.3.2.5.4s.5.3.8.4c.3.1.5.3.8.4 0 0 .1 0 0 .1v.1c0 .1.3.2.3.1s.1-.1.1 0c.1 0 .1.1.2 0h.1c.1 0 .2.1.3 0 .1 0 .1-.1.1-.2.1.1 0 .1-.3.2.1-.1.1-.1 0 0zm0 .1c0 .1-.1.1-.1.1-.1-.1-.2-.1-.4-.2-.3-.1-.5-.3-.8-.4-.3-.2-.6-.3-.9-.5-.1-.1-.3-.2-.4-.2.1 0 .2.1.3.1.3.2.6.3.8.5.2.1.5.3.7.4.2.1.4.2.5.3.2-.1.2 0 .3-.1zm.1-.1c.1 0 .2 0 .2.1v.1-.1l-.2-.1c.1.1.1.1 0 0zM20 24.3c.1.1.2.1.3.1 0-.1 0-.1.1-.1 0-.1 0-.1-.1-.1s-.2 0-.2-.1-.1 0-.1 0c-.1.2-.1.2 0 .2zM16 21.8c.1 0 .1.1.2.1 0 0 .1 0 .1-.1l-.1-.1c-.1.2-.1.1-.2.1.1-.1 0-.1 0-.1-.1.1-.1.1 0 .1zM17.8 23.4c.1.1.2.1.3.1v-.1H17.8c.1-.1.1-.1 0-.1h-.1l.1.1zM23.7 24.6v-.3c.1-.2.1-.3.3-.3h.1c-.2 0-.4.1-.5.3 0 .1 0 .2.1.3-.1 0-.1 0 0 0zM28.8 22.8c.1 0 0-.1 0-.2s-.1-.1-.1-.1h-.1c-.1-.1-.2-.1-.2-.2s-.1-.1-.2-.1-.1.1-.1.2 0 .1.2.1h.1c.1.1.2.1.2.3 0 .1.1.1.2 0zm-.3-.2c-.1 0-.1-.1-.2-.2v-.1h.1l.3.3s.1 0 0 .1h-.1l-.1-.1zM27.8 23.2s0 .1 0 0H27.5V23h-.2v-.1c.1 0 .1 0 0-.1v-.1h.2v-.1h-.1c-.1 0-.2.1-.2.2s.1.2.2.3c.3.2.4.2.4.1zM28.9 22.1c-.2-.1-.4-.1-.7-.2.3.1.5.2.7.2zM27.9 22.9c0 .1 0 .2-.1.1h.1v-.1z"/><path d="M27.9 22.9c0-.1-.1-.1-.2-.1v.2c.1-.2.2-.1.2-.1zM24.5 30.4c-.1 0-.1.1 0 0-.1.1-.1.1-.2.1 0-.1-.1 0-.1 0l-.2.2v.2c-.1.1-.2.2-.2.3l.2-.2s.1-.1.1 0h.1c0-.1.1-.1.2-.2 0 0 .1-.1 0-.2 0 0 0-.1.1-.2-.1.1-.1.1 0 0zM24.3 29.1c-.1 0-.1 0 0 0-.1.1-.1.1 0 0-.1.1-.1.1 0 0 0 .1 0 .1 0 0zM23.1 30.2s0 .1 0 0c.1.1.1.1 0 0 .1.1.1 0 0 0 .1 0 .1 0 0 0zM22.6 30.8c.1.1.1.1 0 0 .1 0 .1 0 0 0 .1 0 0 0 0 0zM23.7 29.7s-.1.1 0 0c0 .1 0 .1 0 0 .1.1 0 0 0 0zM31.2 25l-.3.3.3-.3zM28.8 24.4c0 .1 0 .1 0 0 0 .2.1.2 0 0 .1.1.1.1 0 0 .1 0 0 0 0 0zM29.8 23.4s0 .1 0 0c.1.1.1.1 0 0 .1.1.1 0 0 0 .1 0 .1 0 0 0zM15.8 18.3s0 .1 0 0c-.1.3-.1.5-.2.7 0 .1 0 .1.1.1h.1c.1-.2.1-.3.1-.5v-.2c0-.1 0-.1-.1-.1.1 0 .1 0 0 0zM18 16.2c-.1.1-.1.1 0 0 0 .1 0 .1.1.1.2-.1.4-.1.7-.2 0 0 .1 0 .1-.1s0-.1-.1 0c-.4.1-.6.2-.8.2zM16.6 12.7c.1 0 .1.1 0 0 .1 0 .1 0 0 0 .1-.1.1-.1 0 0zM17.5 13.5c.1.1.1.1 0 0 .1 0 .1 0 0 0 .1 0 0 0 0 0zM12.4 17.1s-.1 0 0 0c-.1.1-.1.1 0 0-.1.2-.1.1 0 0 0 .1 0 .1 0 0zM12.6 16.9s.1 0 0 0c.1-.1.1-.1 0 0 .1-.1 0-.1 0 0 0-.1 0-.1 0 0zM22.3 19.4h.1v-.1c-.1-.1-.2-.3-.3-.4l-.1-.1s0-.1-.1-.1 0 .1 0 .1c0 .1.1.1.1.2.1.1.2.2.3.4zM20.3 22.8l-.2.2s-.1.1 0 .1h.1l.4-.4s.1-.1 0-.1h-.1l-.2.2zM22.5 20.7c.1-.1.2-.1.2-.2v-.1h-.1l-.1.1c-.1.1-.2.3-.4.4l-.1.1v.1h.1c.1 0 .1-.1.1-.1.2-.2.3-.2.3-.3zM18.3 22.5c.1.1.2.1.3.2.1 0 .1.1.2.1h.2v-.1l-.6-.3s-.1-.1-.1 0c-.1 0 0 0 0 .1zM15.1 14.2l-.2.2s-.1.1 0 .1h.1l.3-.3s.1-.1 0-.1h-.1s0 .1-.1.1zM14.4 14.9c0 .1 0 .1 0 0 0 .1.1.1 0 0 .1.1.1.1 0 0 .1 0 0 0 0 0zM14.5 14.8c.1.1.1.1 0 0 .1.1.1 0 0 0 .1 0 .1 0 0 0zM16.1 10.8l-.1-.1h-.1v.1c0 .1.1.1.1.2 0 0 .1.1.1 0 .1-.1.1-.1 0-.2zm0 0 .1.1c-.1.1-.2 0-.1-.1-.1 0-.2 0-.1-.1 0 0 0 .1.1.1zM26.9 19.8l-.1-.1c-.1-.1-.1-.1-.2 0l-.2.2c-.1.1-.1.3 0 .4.1.1.3.1.4-.1.1-.1.1-.2.2-.2v-.1l-.1-.1zm-.3.3c.1 0 .2 0 .3-.1 0-.1 0-.2-.2-.2.1 0 .2 0 .2.1.1.1 0 .2 0 .2-.2.1-.2.1-.3 0zm-.1.1c0-.1-.1-.1 0-.1v.1s.1 0 0 0h.1c0 .1 0 .1-.1 0 0 .1 0 .1 0 0z"/></g><path fill="none" d="m11.25 10.292 6.435-6.434L36.918 23.09l-6.435 6.434z"/><path fill="#010101" stroke="#000" stroke-width=".1" d="M23.8 13.5c.4-.4.9-.8 1.2-1.1-.6.4-1.5 1-2.3 1.5l-.7-.6c.5-.8 1.1-1.7 1.5-2.3-.3.3-.7.8-1.1 1.2l-.8.8-.6-.6 2.4-2.4 1 1c-.4.6-.9 1.4-1.2 1.8.4-.3 1.2-.8 1.9-1.2l1 1-2.4 2.4-.7-.8.8-.7zM26.3 15.1l-.5.5-1-1 .5-.5 1 1zM25.7 16.9l1.6-1.6c-.1-.1-.3-.2-.4-.3l.4-.4c.3.2.6.3.8.3l.5.5-2.3 2.3-.6-.8zM29.8 18.7c-.7.7-1.4 1-2.2.2-.7-.7-.4-1.5.2-2.1.6-.6 1.4-.9 2.1-.2.8.7.6 1.4-.1 2.1zm-1.2-1.2c-.5.5-.7.8-.5 1 .2.2.5 0 1-.5s.7-.7.5-1c-.2-.2-.5 0-1 .5z"/><path fill="none" d="M4.5 27.2h18.1v13.6H4.5z"/><path fill="#010101" d="M9.2 34.3v1c-1 1.4-2 3.5-2.3 5.4H5.4c.3-1.9 1.4-4.2 2.3-5.3h-3v-1.2h4.5zM14.2 35.4h-2.6c0 .3-.2 1-.2 1.2.2-.2.6-.3 1.2-.3 1.3 0 2 .9 2 2.1 0 1.2-.7 2.4-2.4 2.4-1.3 0-2.2-.7-2.4-1.8h1.4c.1.4.4.7 1 .7.7 0 1-.5 1-1.2s-.2-1.1-1-1.1c-.6 0-.8.3-1 .6l-1.2-.1c.2-.8.4-2.7.6-3.6h3.9l-.3 1.1z"/><path fill="none" d="M27.2 4.5h13.6v13.6H27.2z"/><path fill="#010101" d="M32.9 11.7V6.9c-.3.1-.9.2-1.2.2v-1c.6-.1 1.2-.5 1.6-.9h1v6.4h-1.4zM35.5 9.8c0-.8.6-1.3 1.1-1.5-.6-.3-.9-.7-.9-1.4 0-1.1.8-1.8 2.2-1.8 1.3 0 2.2.7 2.2 1.8 0 .7-.4 1.1-.8 1.3.5.2 1 .7 1 1.6 0 1.3-1.1 2-2.5 2-1.3 0-2.3-.7-2.3-2zm3.5 0c0-.6-.4-.9-1.1-.9-.7 0-1.1.4-1.1.9 0 .6.4 1 1.1 1 .6-.1 1.1-.4 1.1-1zM37 7c0 .4.3.7.9.7.6 0 .9-.2.9-.7 0-.5-.3-.8-.9-.8-.6 0-.9.3-.9.8z"/><path fill="none" d="M27.2 27.2h13.6v13.6H27.2z"/><path fill="#010101" d="M31.9 38.1v1h-2.3v-1h2.3zM32.7 41.1 35 35h1l-2.2 6.1h-1.1zM39.2 36.7c-.1-.3-.2-.5-.7-.5-.7 0-.9.7-.9 1.4.2-.3.6-.5 1.2-.5 1 0 1.7.7 1.7 1.8s-.7 2-2 2c-1.6 0-2.1-1.2-2.1-2.7 0-1.4.5-2.8 2.1-2.8 1.2 0 1.7.7 1.8 1.4h-1.1zm.1 2.2c0-.5-.2-1-.8-1-.5 0-.8.3-.8.9 0 .4.2 1 .8 1 .5.1.8-.3.8-.9z"/><path fill="none" d="M4.5 22.6h9.1v9.1H4.5z"/><path fill="#010101" d="M7.1 30.2c0-1 .4-1.8 1.6-2.6.8-.6 1-.7 1-1.2s-.2-.7-.7-.7c-.5 0-.7.3-.8.8H7.1c.1-.9.7-1.7 1.9-1.7 1.4 0 1.8.8 1.8 1.6s-.3 1.2-1.3 1.9c-.7.5-.9.8-1 1H11l-.1 1H7.1z"/><path fill="#010101" d="M9.1 31.9c-2.6 0-4.8-2.1-4.8-4.8s2.1-4.8 4.8-4.8 4.8 2.1 4.8 4.8-2.2 4.8-4.8 4.8zm0-9c-2.4 0-4.3 1.9-4.3 4.3s1.9 4.3 4.3 4.3 4.3-1.9 4.3-4.3-2-4.3-4.3-4.3z"/><path fill="#9ACA3C" d="M-42.8 1H2.5v45.3h-45.3z"/></svg>