<svg version="1.2" baseProfile="tiny" xmlns="http://www.w3.org/2000/svg" viewBox="0 0 45 45" overflow="visible" xml:space="preserve"><path fill="#9ACA3C" d="M-481.5-49.5h576v144h-576z"/><path fill="none" stroke="#FFF" stroke-width=".1" stroke-miterlimit="10" d="M-45 45H0v45h-45zM0 45h45v45H0zM45 45h45v45H45z"/><path fill="#9ACA3C" d="M2.2 1h45.3v45.3H2.2z"/><path fill="none" stroke="#FFF" stroke-width="2" stroke-miterlimit="10" d="m17.9 9.1-8.3 8.2 16.6 15.8 2-1.5-.2-.3 1.4-2.2 3.1 2.8.4-.3-2.8-3.2 2-1.4.4.2 1.6-1.7z"/><path fill="#FFF" d="m22.4 17-3.5.9-.9 3.6 4.3 2.6 2.6-2.7z"/><g stroke="#000" stroke-width=".1" stroke-miterlimit="10"><path d="m16.9 10-.9.9c-.2.3-.5.5-.7.7l-.5.5-.4.4c-.1.1-.2.2-.3.2-.1 0-.1.1-.1.1s0 .1-.1.1l-1.2 1.2-.8.8-1.2 1.2-.8.8c-.1.1-.1.1 0 .2l2.4 2.4 1.2 1.2.6.6.8.8 1.3 1.3c.4.4.7.8 1.1 1.1l1.1 1.1.8.8 1.6 1.6.9.9c.5.5 1 1 1.5 1.4l1 1 1.2 1.2c.2.2.5.4.8.5.2.1.4.1.7 0 .2-.1.3-.2.4-.3l.7-.7.4-.4c.1-.1.1-.1 0-.2l-.2-.2v-.1c.1-.1.2-.3.4-.4.1-.1.1-.1.1-.2 0-.2.1-.4.1-.6 0-.1.1-.2.1-.2 0-.1.1-.1.1-.2l.4-.4c.1-.1.1-.1.2 0 .4.4.9.9 1.4 1.3.4.4.8.7 1.2 1.1l.4.4h.1l.3-.3v-.1c-.4-.4-.8-.8-1.1-1.2-.4-.4-.8-.9-1.3-1.3l-.4-.4c-.1-.1-.1-.1 0-.2l.4-.4c.1-.1.1-.1.2 0s.1.1.2.1.2-.1.2-.2v-.1s.1-.1.1-.2l.1-.1h.3c.1 0 .2-.1.3-.1.1-.1.2-.3.4-.4h.1l.2.2s.1.1.1 0c.4-.4.8-.8 1.2-1.3.1-.1.1-.3.1-.4 0-.5-.1-.9-.5-1.3l-1.1-1.1-1-1-.6-.6c-.5-.5-1-1-1.6-1.5l-.6-.6-1.5-1.5-1.9-1.9-2-2-.7-.7-1.5-1.5-.8-.8-.7-.7c-.5-.4-.9-.9-1.4-1.3h-.1l-.6.6c-.4.2-.5.3-.6.4zM16 21c.1 0 .1.1 0 0 .1.1.2.1.2.1h.1-.2c-.1 0-.1 0-.1-.1 0-.2 0-.3.1-.4v.1c0 .1 0 .2-.1.3zm4-7.4s.1-.1.1 0c.1.1.1.1.1.2l-.2-.2c-.1 0-.1 0-.1-.2.1.1.1.2.1.2zm3.8 16.2c-.1.1 0 .1 0 0 .1.3.1.5.2.7.1.3.1.6.2.8v.1h-.1l-.2-.2-1.2-1.2-2.4-2.4c-.6-.6-1.2-1.2-1.8-1.7l-.8-.8c-.3-.3-.6-.6-1-.9l-1-1-.9-.9c-.3-.3-.7-.6-1-1L12 19.5c-.3-.2-.5-.5-.8-.8 0 0-.1 0-.1-.1H11.4v-.2c0-.1-.1-.1-.2-.2H11c-.1 0 0 .1 0 .2v.1c-.5-.4-.9-.8-1.3-1.3h.1c.3 0 .6-.1.9-.1.3 0 .5-.1.8-.1h.1l1 1c.3.3.6.6.9.8.2.2.4.5.7.7l.9.9.8.8.9.9V22.4l.6.6.8.8h.1c.1 0 .1 0 .1.1.3.3.6.6.9.8l1.2 1.2.4.4-1.3-1.3c.2.2.4.5.7.7l-.4-.4c.1 0 .2.1.3.1.2.1.5.2.7.2.2 0 .3.1.5.1h.3c.4.1.7.2 1.1.4l.1.1c0 .1.1.1.2.1h.1v.1c0 .1-.1.1-.2.2s-.1.1 0 .2.1.2.2.3c.1.1.2.1.2.2s.1.1.1.2l.3.3c.1.1.2.1.3.1h.1s0 .1-.1.1c.1 0 .1-.1.2-.1l-.2.2c.4-.5.9-1 1.4-1.4l-.1.1.3-.3c.1-.1.2-.1.2-.2s.1 0 .1 0l1.2 1.2c.1.1.1.1 0 .2s-.1.2 0 .2.2.1.3 0v.1l-.1.1c-.1.1-.1.2-.2.2l.2-.2c-.1.1-.2.2-.3.4 0 0 .1-.1.1 0s.1.1.2 0l.1-.1c.1-.1.1-.1.3 0h.1l.9.9c.1.1.1.1 0 .2l-.6.6s-.1.1-.1.2c-.1.2-.1.5-.2.7 0 .1 0 .2-.1.2-.1.1-.3.2-.4.4-.1.1-.1 0-.1 0l-.6-.6c-.1-.1-.1-.1 0-.2l.3-.3s.1-.1 0-.1c-.1-.1-.2-.2-.4-.3-.1-.1-.2-.1-.3 0-.1.1-.1.2-.1.3v.1l-.3-.3c-.1-.1-.1-.1 0-.3-.1 0-.1-.1-.1-.1-.1 0 0-.1 0-.1l.1-.1c0 .1.1.1.1.2l.1-.1c.1-.1 0-.2 0-.2-.1 0 0-.1 0-.1l-.3.3.2-.2-.3.3c-.2.2-.2.2 0 .3v.1c-.1.1-.3.3-.4.5-.3.4-.7.7-1 1.1l-.4.4s0-.1-.1-.1c0-.1-.1-.3-.1-.4l-.3-1.2c-.1-.4-.2-.8-.4-1.2v-.1l.1-.1c-.1 0-.1.1-.1.1l.2-.2c-.2.2-.2.2-.4 0 0 0-.1-.1-.1-.2.2.1.5 0 .6-.1.1-.2.1-.5 0-.6-.1-.1-.3-.2-.6-.1-.1.1-.2.1-.2.3v.4c-.2-.2-.4-.3-.5-.5.3.4.7.7 1 1-.3-.2-.5-.5-.7-.7l.3.3.3.3c0 .2.1.3.1.5 0 0 0 .1.1.1v-.1c0-.1-.1-.2-.1-.4l.2.2c.1.3.2.6.2.9.1.4.2.9.4 1.3.1.2.1.4.2.6-.1 0-.1-.1-.1-.1-.1-.2-.1-.4-.2-.7-.1-.3-.1-.5-.2-.8.3-.6.3-.7.3-.8zm1-2.7c.2 0 .3-.1.4-.3 0 0 0-.1.1-.1h.1c0 .1 0 .1-.1.1l-.3.3-.5.5h-.1v-.2s-.1.1-.1 0l-.2-.2s0-.1.1-.1c0 .1.1.1.1.1.1.1.1.1.1.2v-.1l-.4-.4c-.1-.1-.1-.1-.2 0l-.1.1c-.1 0-.1-.1-.1-.1-.2-.2-.1-.4.1-.5h.1c.1 0 .2.1.3.1l.3.3c0 .2.1.3.3.3-.1 0-.2-.1-.2-.2.1.1.2.1.3.1H25.1v-.1s-.1 0 0-.1h.2v-.1c.1 0 .1 0 .1.1s0 .1-.1.1c-.3.2-.4.2-.5.2zm1.8-2.2c0 .1 0 .1 0 0 .1.1.2.1.1.2l-.3.3-.4.4h-.1c0-.1 0-.1-.1-.2 0 .1 0 .3.2.4.1.1.1.1 0 .2s-.3.2-.4.4c-.1.1-.2.2-.4.1.2-.1.2-.3.2-.4-.1 0-.1 0-.1-.1s-.1-.1-.1 0c-.1.1-.2.2-.2.3-.1.1-.1.2 0 .2v.1H24.4l-.5-.5v-.1l.1-.1h.1c.1.1.2.3.4.3 0 0 0 .1.1 0l.1-.1c0-.1 0-.2-.1-.2-.1-.1-.2-.1-.2-.2v-.1c.2-.2.4-.5.7-.7l.5-.5 1-1c0-.1.1 0 .1 0 .1.1.2.2.4.3h.1s.1-.1 0-.1c0-.1 0-.2-.2-.3-.1 0-.1-.1-.2-.1 0 0-.1-.1 0-.1s.1-.1.2 0l.5.5V24.5l-.1-.1h-.1v.1c.1 0 .1.1.1.1 0 .1 0 .2-.1.2-.1.1-.1.1-.2 0 0 0 0 .1.1.1s.2 0 .2-.1v.1l-.4.4h-.1c-.1-.3-.2-.4-.3-.4zm2.8 1.5s.1 0 0 0c.1 0 .1.1.2.1s0 0 0 .1l-.1.1s-.1.1-.1 0h-.1c0-.2 0-.2.1-.3l-.1.1c-.1 0-.2.1-.2.2h.1s0 .1.1.1 0 0 0 .1l-.2.2V27c-.1 0 0-.1 0-.1-.1 0-.2.1-.2.1l-.2.2s0 .1-.1 0V26.9c0-.1-.1-.1-.2-.1-.1.1-.1 0-.2 0-.2-.3-.5-.5-.7-.8l-.4-.4v-.1l.3-.3c.3-.3.5-.6.8-.8l.1-.1v-.1l.4-.4h-.1v-.1c.1-.1.1-.2 0-.3l-.4-.4-.1-.1c-.1 0-.1 0-.2-.1l-.2-.2c-.1-.1-.3-.1-.4 0-.1 0-.1.1-.2.1H27c-.1 0-.1-.1 0-.2 0 0 .1 0 0-.1 0 0 0-.1-.1-.1s-.1 0-.1-.1c-.1-.1-.1-.2-.1-.3-.1-.3-.2-.7-.3-1.1 0-.3-.1-.5-.2-.8 0-.1-.1-.2-.1-.2l.3.3s.1 0 0 .1c-.1 0 0 .1 0 .1 0 .1 0 .1.1.1s.1 0 .1-.1v-.1h.1c.2.1.3.2.5.4.3.2.5.5.7.8.2.3.4.7.6 1 .1.3.3.5.4.8v.2c-.1.1-.2.1-.2.3l.2-.2.1-.1.1.1c0 .3.1.5.2.7l.3.6c.1.2.3.4.4.7.1.1.1.1 0 .2s-.2.2-.3.4l.1-.1c0 .1.1.1.1.1l-.2.2c0-.1 0-.1-.1-.2-.1.1-.1.2-.2.3 0-.1 0 0 0 0zM11.5 17h.2c-.1.1-1.8.3-1.9.2.1 0 .2 0 .3-.1h-.3c.3-.4.7-.7 1.1-1.1 0 .1.1.1.1.1l.5.5s.1.1.1 0v-.1l-.4-.4c.1.1.1.1.2.1 0 .1 0 .1.1.2l.1.1h.1c0-.1.1-.1.2-.2v-.1l-.2-.2h-.2c0-.1 0-.1-.1-.2l.3.3s.1.1.1 0V16c-.2-.2-.4-.3-.5-.5v-.1l.3-.3c.1-.1.2-.3.4-.4 0 0 .1-.1.1 0s.1.1.1 0h.1l-.1.1c-.1.1-.1.3-.2.4-.1.1-.1.2-.1.3 0 .1 0 .1.1.1s.1.2.2.2c0 0 0 .1.1.1 0 0 .1 0 .1-.1v-.1l.1-.1v-.1c-.1 0 0-.1 0-.1s.1 0 .1-.1c.1-.2.2-.3.3-.4l.4-.4s.1-.1.2 0h.1c0-.1 0-.1.1-.1s.1 0 .1-.1c-.1-.1 0-.1 0-.1l.1-.1c.1-.1.2-.3.4-.4 0 0 0-.1.1 0 .1 0 .1 0 .1-.1v-.1c.1-.1.1-.2.2-.1 0 0 .1-.1.1 0h.1v-.1c-.1-.1-.1-.2-.2-.2-.1-.1-.1-.2-.2-.2l.6-.6c-.2.1-.3.2-.5.4-.3.3-.6.5-.9.8-.2.2-.5.4-.8.7 0 0-.1.1-.1 0v-.1c.1-.1.3-.2.4-.4.2-.2.5-.4.7-.7.2-.1.4-.3.5-.5l.6-.6s0-.1.1 0v.1l-.1.1h.1c.1 0 .1-.1.2-.1s.1-.1.1-.1v-.1c.1-.1.3-.2.4-.4.1-.1.1-.1.2 0 0 .1.1.1.1 0 0 0 0-.1.1 0v.1c0 .1 0 .1.1.1s.1 0 .1-.1c.1-.1.1-.2.2-.1v-.1h-.1c-.1 0-.2-.1-.2 0v-.1s.1 0 .1-.1l-.1-.1H16c0 .1-.1.1-.1.1h-.1s0-.1.1-.1c.1-.1.3-.2.4-.3 0 0 .1-.1.2 0h.1l.2.2h.2v-.1l-.3-.3h.2s.1 0 0 .1c0 .1 0 .2.2.2.1.1.1 0 .2-.1s.1-.1 0-.2c-.1 0-.1-.1-.2-.1 0 0-.1 0-.1-.1s0-.1-.1-.2c.1 0 .1.1.2.1.1.1.2.1.2.2h.1v-.1c-.2-.2-.4-.3-.6-.5-.1-.1-.1-.1 0-.1.2-.2.4-.3.5-.5l.4-.4s0-.1.1 0V9h-.1c-.2.1-.3.2-.3.4v.1c.1.1.1.3 0 .4 0 .1-.1.1 0 .2 0 0 0 .1.1.1 0 .1.1.2.1.3h-.1v.1h.1c-.2.3-.5.5-.7.7l-.3.3.3-.3h.1l.4.4.5.5c.3.2.5.5.8.7v.1c-.2.3-.5.5-.7.7l-.5.5-1.3 1.3c-.5.5-1 1-1.5 1.4l-.5.5c-.1.1-.1.1-.2 0l-.2-.2-.5-.5s-.1-.1 0-.1v-.1s-.1 0-.1.1c-.1-.1-.2-.1-.2-.2l-.5-.5s-.1-.1 0-.1v-.1h-.1l-.1.1c.3-.4.7-.8 1.1-1.2l-.6.6.2-.2c-.1 0-.1.1-.1.1l-.6.6-.5.5c.1.6 0 .8-.3.8zm20.1 6.1c0-.1-.1 0-.2 0s-.1-.1-.2-.1-.3-.1-.4-.1c-.4-.1-.7-.2-1.1-.3-.1 0-.2-.1-.3-.2l-.5-.5c-.2-.2-.4-.3-.5-.5l-.7-.7-1.1-1.1-.4-.4v-.1c-.1-.2-.2-.4-.4-.5-.2-.2-.5-.4-.7-.5-.1-.1-.2-.1-.3-.2 0-.1 0-.2-.2-.3 0-.1-.1-.1-.1-.1-.4-.4-.8-.8-1.1-1.2h-.1c-.1 0-.1 0-.2-.1l-.2-.2c-.4-.4-.8-.8-1.3-1.2l-1.3-1.3c-.3-.2-.5-.5-.8-.8-.3-.2-.5-.5-.8-.8l-.8-.8s-.1-.1-.1-.2v-.4c0-.4.1-.7.1-1.1v-.3l.4.4.8.8s.1 0 0 .1H19c-.1 0-.2.1-.1.2 0 .1.1.1.1.1.1.1.1.1.2 0 .1 0 .1-.1.1-.2 0 0 0-.1 0 0h.1l1 1 .8.8.3.3H21.2v.1c0 .1.1.2.2.2h.2l.1-.1v-.1l1.4 1.4.1.1h-.1c-.1 0-.1.1-.1.2s.1.1.2.2h.1l.1-.1v-.1l.2.2 2 2s.1 0 0 .1h-.1c-.1 0-.2.1-.1.2 0 .1.1.1.1.2.1.1.2 0 .2-.1v-.2l.1.1 1.3 1.3.1.1h-.1c-.1 0-.1 0-.1.2 0 .1.1.1.1.2.1.1.1 0 .2 0s0-.1 0-.1v-.1h.1l.1.1.6.6 1.3 1.3c.1.1.2.1.2.2h-.2c-.1 0-.1.1-.1.1 0 .1.1.2.2.2.1.1.2 0 .2-.1v-.1h.1l1.3 1.3.7.7s.1 0 0 .1h-.1c.2.3.1.2-.1.2.1.1.1.1.2.1.2 0 .3.1.5.1.1 0 .2 0 .2.1-.1 0-.2-.1-.3-.1h.1c.1 0 .2 0 .2.1.1 0 .1.1 0 .1l-1.1 1.1c-.1 0-.1.1-.2.2v-.1l-.6-.6c-.1-.1-.1-.2-.1-.2h-.1s-.1.1 0 .1c.1.1.1.1.2.1l.6.6H31c0-.1-.1-.2-.2-.2s-.2 0-.2.1c-.1.1 0 .2 0 .3l-.3-.3s-.1 0-.1-.1-.1-.1-.1-.2H30c-.1.1-.1.1 0 .2 0 0 .1 0 .1.1-.1.1 0 .2.1.2.1.1.1.1 0 .2 0 .1-.1 0-.1 0-.1-.1-.1-.1-.1-.2l-.3-.6c-.1-.2-.1-.4-.2-.6h.2c.1 0 .1 0 .2-.1 0-.1.1-.2 0-.2-.1-.1-.1-.1-.3 0-.1 0-.1.1-.1.1-.1 0 0-.1 0-.2v-.1l.3-.3c.1-.1.2-.1.4-.1.1 0 .2.1.3.1-.1 0-.3-.1-.4-.1 0 0-.1 0-.1-.1.3.1.7.2 1 .2.2.1.4.1.6.2-.3.1-.2.1 0 .1zm-9.2 1.5h.1c.1.1.3.2.4.2.1.1.2.1.3.2h.1v-.1h-.1c-.2-.1-.4-.2-.7-.4-.1 0-.1-.1-.2-.1-.1-.1-.1-.2-.2-.1v-.1l.2-.2.8-.8.3-.3s.1-.1.1 0c0 0 0 .1.1.1s.2.1.2.1l.5.5.1.1h.1v-.1l-.1-.1c-.2-.3-.5-.4-.7-.8-.1 0 0-.1 0-.1.3-.3.5-.6.8-.8l.4-.4s0-.1.1 0v.2c.1.1.2.1.3.3l.3.6c0 .1.1.1.1.1l-.3-.6c.2.1.3.2.5.4l-.1-.1-.3-.3s-.1-.1 0-.1c.1-.1 0-.3-.1-.4 0 0-.1-.1-.1 0h-.1c-.1-.1-.1-.2-.2-.3 0-.1-.2-.2-.1-.4.1-.1 0-.3-.1-.3s-.1-.1-.1 0c-.1-.1-.1-.2-.2-.3-.1-.3-.3-.5-.4-.8-.1-.2-.3-.5-.4-.7-.1-.3-.3-.5-.4-.8-.2-.3-.3-.6-.5-.8l-.3-.6v-.1c.2 0 .3-.1.5-.1h.1c.2.2.4.4.6.7 0 0 .1.1 0 .1 0 0 0 .1.1.1s.1.1.1.1 0 .1.1.1c0 0 .1 0 .1-.1h.1s.1.1.1.2v.1c-.1 0-.1.1-.1.2 0 .2.2.3.3.2h.1c.1.1.2.3.3.4.2.3.3.5.5.8.1.2.2.4.4.7v.2l.1.1c0 .1 0 .2.1.1 0 0 0 .1.1.1v.1c-.1 0-.1.1-.1.1 0 .1 0 .1.1.2 0 .1.2.1.2.1s.1-.1.1 0c0 0 0 .1.1.1-.1.1-.1.1 0 .1.1.1.1.1.1.2 0 0 0 .1.1.1s.1 0 .1.1c.1.2.1.4.2.6 0 .1.1.2 0 .3 0 .1-.1.1-.1.1-.1 0-.1.1-.2.1 0 0 0 .1.1.1-.1-.1-.2-.2-.3-.2 0 0 0 .1.1.1l.3.3s.1.1 0 .1c-.3.3-.5.6-.8.8l-1.4 1.4-.5.5s-.1.1-.1 0l-.7-.7c-.2-.2-.3-.4-.6-.5-.3.2-.3.1-.4.1zm.4-1.4-.7.7s-.1.1-.1 0c-.2-.1-.4-.2-.7-.4-.5-.3-.9-.5-1.4-.8-.3-.1-.3-.2 0-.3.2-.1.2-.1.3 0h.1l.1-.1c.1-.1.1-.1 0-.3-.1-.1-.1-.1 0-.2l.6-.6c.1-.1.1-.1.2 0s.1.1.2 0l.1-.1c.1 0 .1-.1 0-.1-.2-.1-.2-.1 0-.3h.1l.9.9.8.8s.1.1 0 .1c-.2.4-.4.6-.5.7zm1.2-1.3-.5.5s-.1.1-.1 0c-.6-.6-1.2-1.1-1.7-1.6-.1-.1-.1-.1 0-.2s.1-.2.3 0c.1.1.1.1.2 0 .2-.1.2-.1 0-.3-.1 0-.1-.1 0-.1l.7-.7c.1-.1.1-.1.2 0s.1.1.2 0 .1-.1 0-.2l-.1-.1v-.1l.2-.2c.1-.1.1-.1.2 0 .2.2.3.5.4.7.3.5.5 1 .8 1.4v.1c-.3.4-.6.6-.8.8zm-3.1-1.8c-.3-.2-.5-.4-.7-.6-.1-.1-.1-.2 0-.3l.7-.7.6-.6.7-.7s.1-.1.1 0l.3.6c.2.3.4.7.6 1 0 .1.1.1 0 .2l-.1.1c-.2.2-.1.1-.3 0-.1-.1-.1-.1-.2 0-.2.2-.1.1 0 .3.1.1.1.1 0 .2-.2.2-.4.5-.7.7h-.1l-.1-.1h-.1l-.1.1c-.1 0-.1.1 0 .1.2.2.2.2 0 .3 0 .1-.1.1-.2 0 0-.3-.3-.5-.4-.6zm-1.9.4c.3-.3.6-.6.9-1 .2-.2.2-.2.4 0 .4.3.7.7 1.1 1.1.1.1.2.1 0 .3-.1.1-.1.1-.2 0 0 0-.1 0-.1-.1-.1-.1-.1 0-.1 0-.1.1-.1.1 0 .3.1.1.1.1 0 .2l-.7.7c-.1.1-.1.1-.2 0-.2-.2-.2-.2-.3 0v.1c.1 0 .1.1.1.1v.1l-.2.2c-.1.1-.1.1-.2 0-.2-.1-.5-.3-.7-.4-.3-.2-.6-.3-.8-.5-.1-.1-.1-.1 0-.2.3-.2.6-.6 1-.9zm2.1 4.7s.1 0 0 0c.1-.1 0-.1 0-.1-.1 0-.1 0-.2-.1h-.1v.2c-.3-.2-.7-.4-1-.6-.1-.1-.2-.1-.3-.2-.2-.1-.4-.2-.5-.3 0 0-.1 0 0-.1h.1c.1.1.2.1.3.1h.1s0-.1-.1-.1-.2-.1-.3-.2c-.1 0-.1 0-.1-.1-.1-.1-.3-.1-.4 0 0 .1-.1 0-.1 0l-.2-.2v-.1h.2v-.1h-.1c-.1 0-.1 0-.2-.1l-.1-.1H18l-.6-.6v-.1c0-.2.1-.3.1-.5 0-.1 0 0 .1 0 .2.2.5.3.7.4.3.2.6.4.9.5l.6.3c.3.2.6.3.9.5.3.1.5.3.8.4 0 0 .1 0 .1.1s.1.2.2.3H22.1l.6.3v.1c0 .1.2.3.3.2.1 0 .2 0 .2.1 0 0 .1 0 .1.1.2.2.4.3.5.5 0 0 .1.1 0 .1-.1.1-.1.1-.1.2-.1 0-.1 0-.1.1s-.1.1-.2.1-.2-.1-.3-.1c-.2-.1-.3-.1-.5-.2 0 0-.1 0 0-.1 0-.1 0-.1-.1-.1s-.2 0-.2-.1h-.1v.2c-.1 0-.1-.1-.2-.1s-.1-.1 0-.1.1-.1.1-.2-.2-.2-.3-.2c-.1 0-.1.1-.2.2-.4-.1-.4-.2-.5-.2zm7.8 3.2c-.3-.2-.6-.5-.9-.8-.5-.5-1.1-1-1.6-1.5V26l.4-.4h.1l.3.3 1.7 1.7 1.7 1.7.6.6.8.8.8.8c.1.1.1.1 0 .2l-.1.1c-.1.1-.1.1-.2 0l-1-1c-.6-.5-1.1-1.1-1.7-1.6-.4-.3-.7-.6-.9-.8zM12.8 17.9c-.3-.2-.5-.5-.8-.7 0 0-.1-.1 0-.1l.5-.5h.1c.1.1.1.2.2.2.2.1.3.3.5.4.4.3.7.7 1 1l1.1 1.1c.1.1.1.2 0 .3-.1.1-.1.2-.2.2s-.1.2 0 .2 0 .1.1.1c0 .2.1.3.3.3h.1c0 .1.1 0 .2 0l.1-.1.1-.1v.1c0 .2-.1.3-.1.5v.1h-.1l-.5-.5c-.4-.4-.8-.8-1.2-1.1l-.7-.7-.7-.7zm13 14.3H25.5c-.1.1-.2.2-.3.2v.2h-.1c-.2-.2-.4-.4-.7-.6-.1-.1-.1-.1 0-.1.2-.2.4-.4.6-.7.4-.4.8-.8 1.1-1.2.1-.1.1-.1.2 0l.4.4c.2.2.2.2 0 .3l-.1.1s-.1.1 0 .1v.2l-.1.1c.1 0 .1-.1.1-.1h.1c.1.1.1 0 .2 0l.1-.1c.2-.1.1-.1.2 0v.1c-.1.1-.2.3-.4.4l-.4.4-.4.4c-.2.2-.4.5-.7.7h-.1c-.1-.1-.2-.1-.3-.2 0 0-.1 0 0-.1h.2l.2-.2s.1-.1 0-.1c.4-.1.5-.1.5-.2zm-9.5-11.3c-.1-.2-.1-.4-.2-.5-.1-.4-.3-.9-.4-1.3-.1-.3-.2-.6-.4-1 0-.1-.1-.2 0-.3.1-.1.1-.2.2-.3.2-.4.5-.7.8-1l.3-.3c0-.1.1-.1.1 0l.3.3s.1.1 0 .1l-.2.2c-.1.1 0 .1 0 .2 0 0 .1 0 .1.1.1 0 .1.1 0 .1l-.1.1c-.2.2-.3.5-.4.8 0 .1 0 .2-.2.1h-.1s0 .1.1.1c0 0 .1 0 0 .1v.6c-.1.1-.1.2-.1.3 0 .1 0 .1.1.2v.4c0 .1 0 .1.1.2.1.3.1.6.2.8v.1c-.1-.1-.1-.1-.2-.1zm5.3-5.1h-.2c-.3-.1-.5-.1-.8-.2-.1 0-.3-.1-.4 0 0-.1-.1-.1-.1-.1-.1 0-.3 0-.4.1H19s0-.1-.1 0c0 0-.1.1 0 .1v.1h-.1c-.3.1-.6.3-.8.5-.1.1-.1.1-.2 0 0-.1-.1-.1-.2 0-.1 0-.1.1-.2.2h-.1l-.3-.3v-.1c0-.1.1-.1.2-.2.4-.4.9-.7 1.3-1 .1-.1.2-.1.3 0 .1 0 .1.1.2.1.4.2.8.3 1.3.5.3.1.6.2 1 .3.1 0 .2 0 .3.1 0 0 .1 0 .1.1-.1-.4-.1-.3-.1-.2zm-2.7 4.6c-.1.1-.2.3-.4.4l-.7.7h-.1v-.1c0-.2.1-.4.1-.6.1-.4.2-.7.3-1.1.1-.5.3-1.1.4-1.6 0-.1 0-.1.1 0 .4.4.8.7 1.2 1.1.1.1.1.1 0 .2-.2.3-.5.7-.9 1zm3.4-3.4c0 .1-.1.1-.1.1l-.6.6-1.4 1.4s-.1.1-.1 0l-.3-.3c-.3-.3-.6-.6-.9-.8-.1-.1-.1-.1 0-.1h.1c.3-.1.7-.2 1-.3.5-.1.9-.3 1.4-.4.3 0 .6-.1.9-.2zm11.3 8.7c.1 0 .1-.1.2-.1 0 .2-.1.4-.2.5l-.4.4-.7.7s0 .1-.1.1-.1-.1-.2-.1v-.1l.4-.4-.3.3c-.2.2-.2.2-.4 0s-.2-.1 0-.3l.9-.9.3-.3-.6.6c-.2.2-.4.4-.7.6-.2.2-.1.1-.3 0v-.1c.1 0 .1-.1.1-.2.1-.1.1-.1 0-.1s0-.1 0-.1l.4-.4s.1-.1.1 0c0 0 .1.1.1 0l.2-.2h-.1c.1 0 0-.1 0-.1v-.1l.3-.3c0-.1.1-.1.1 0s.1.1.1 0l.1-.1.1-.1c.1 0 .1.1.1.2v.1s-.1.1-.1.2c.1 0 .1-.1.2-.2.1.2.1.3.1.5v.1c.5-.3.4-.2.3-.1zm-1.1-1.9s.1-.1 0 0c.1-.1.1-.2.2-.1l.5.5s.1.1 0 .1l-.2.2s-.1.1 0 .1v.1c-.1.1-.2.2-.3.4h-.1c-.1-.1-.1 0-.2 0l-.2.2s-.1.1 0 .1v.1l-.4.4h-.1c-.1-.1-.1 0-.2 0l-.1.1c-.1.1-.1.1-.2 0-.2-.2-.3-.4-.5-.5v-.1c.1-.1.1-.2.2-.2l1-1c.3-.1.4-.3.6-.4 0 .1 0 .1.1.1v-.1h-.1zm-12.4-10 .4.4s.1.1 0 .1c-.1.1-.2.1-.2.2-.1 0-.2 0-.4-.1-.4-.4-.8-.8-1.2-1.1-.3-.3-.6-.6-.9-.8l-.2-.2c-.2-.1-.3-.3-.5-.5v-.1l.1-.1c.1 0 .1 0 .1-.1 0 0 .1-.1.1-.2 0 0 .1-.1.2-.1.1-.1.1-.1.2 0l.2.2v.1c-.1 0-.2.2-.2.2.1.1.2.3.3.3.1 0 .1.1.2.1s.1.1 0 .2 0 .2.1.2.1 0 .1-.1c0 0 0-.1.1 0l.1.1c.2.2.4.4.7.6l.7.7zm9.5 12.9c-.1 0-.1 0 0 0l.3-.3.3-.3s0-.1.1 0v.1l-.3.3v.1c.1 0 .1.1.2.1.1.1.1.1.1 0l.2-.2h.1c0 .2.1.3.1.5s.1.4.1.6v.1l-.2.2-.5.5c-.1.1-.1.1-.2 0-.3-.3-.6-.7-.9-1-.1-.1-.1-.1 0-.2s.3-.3.6-.5zm.8-1c.1-.1.1-.1.2-.1h.1l.5.5.9.9c.1.1.1.1 0 .1l-.4.4-.1.1c-.2 0-.3.1-.5.1-.1 0-.1 0-.1-.1-.1-.2-.1-.3-.1-.5 0-.4-.2-.7-.4-1 0-.2-.1-.2-.1-.4-.1.1-.1 0-.2-.1v-.1h.2c.1.1.1.1 0 .2zm-13.1-4c0-.1.1-.2 0-.3v-.3c.1-.3.2-.6.2-.9 0-.1 0-.2.1-.3.1-.1.1-.1.1-.2s.1-.2 0-.2c0-.1.1-.3.1-.5 0 0 0-.1.1-.1s.1 0 .1-.1.1-.2 0-.2c0-.1 0-.2.1-.3.1-.1.2-.3.1-.5v-.1h.1l.1.1c.1.1.2.2.1.4l-.3 1.2c-.1.4-.2.8-.3 1.3-.1.3-.1.6-.2.9 0 0 0 .1-.1.1 0-.1-.1 0-.3 0zm5.2-5.2c0 .1-.1.2-.1.3 0 .1 0 .1-.1.1-.4.1-.7.2-1.1.3-.3.1-.7.2-1 .3-.4.1-.9.2-1.3.4h-.1l-.3-.3v-.1h.1c.1.1.1.1.2 0 .1 0 .2 0 .3-.2 0-.1.2-.1.2-.1.1 0 0 0 .1.1h.2s.1 0 .1-.1c0 0 0-.1.1-.1s.3-.1.4-.1h.1c.1 0 .3 0 .3-.1s.1-.1.2-.1c.4-.1.9-.2 1.3-.4h.2c0 .2.1.1.2.1zm-6.1 3s.1-.1.1 0c.1 0 .2 0 .3.1.2.1.5.1.7.2.1 0 .1.1.1.1 0 .2-.1.3-.1.5-.1.3-.1.6-.2.9 0 .1 0 .1-.1.1-.1-.1-.2-.1-.3-.2-.1 0-.2-.1-.2-.2 0-.2-.1-.3-.1-.5s-.1-.4-.1-.6c-.2-.2-.2-.3-.1-.4zm5.4-3.6c.1.1.2.3.3.4 0 0 0 .1-.1.1-.3.1-.6.2-.9.2-.2 0-.3.1-.5.1h-.1c0-.1-.1-.3-.1-.4-.1-.2-.1-.4-.2-.5 0-.1-.1-.1 0-.2s.1-.1.3-.1c.3.1.7.2 1 .2.1.1.2.1.3.2zm-1.3-.8c-.1 0-.2-.1-.4-.1-.2-.1-.4-.1-.5-.2-.2-.1-.4-.1-.6-.2-.2 0-.3-.1-.5 0-.1 0-.2.1-.3 0h-.1c-.1 0-.1 0-.1-.1v-.1l.4-.4h.1s.1.1.1 0v-.1c-.1 0 0-.1 0-.1l.3-.3s.1-.1.1 0c.2.2.3.4.5.5l.5.5s.1 0 0 .1c0 0-.1 0 0 .1l.1.1h.1c0 .1.2.2.3.3zm-2.6 1.2c.1 0 .2-.1.3-.2.2-.1.4-.3.7-.3h.1c0 .2.1.3.2.5.1.3.2.5.2.8 0 0 0 .1-.1.1s-.2.1-.3.1h-.1c-.3-.3-.6-.5-.9-.8-.2-.1-.2-.1-.1-.2zm-.2 1.4.3.3s.1.1 0 .1c0 .1-.1.2-.1.3 0 0 0 .1-.1.1h-.3c-.2-.1-.4-.1-.7-.2-.1 0-.3-.1-.4-.1-.1 0-.1-.1-.1-.1.1-.3.3-.7.5-.9.1-.1.1-.1.2 0 .4.2.5.3.7.5zm-2.2 1.5-.1-.1s-.1-.1 0-.1v-.1h-.1c0 .1-.1 0-.1 0l-.3-.3-.6-.6v-.1l.4-.4.4-.4c.1-.1.1-.1.1 0 0 0 .1.1 0 .1v.1c.1.1.1.1 0 .2 0 0 0 .1-.1.1-.1.1-.1.2 0 .3.1.4.3.7.4 1.1.1.1.1.3.1.4-.1-.1-.3-.2-.2-.4 0 0 0-.1-.1-.1.2.2.2.3.2.3zm11.6 12.5s-.1 0 0 0c0-.1.1-.1.2-.2l.4-.4s.1-.1.1 0l.2.2v.1s0 .1-.1.1c-.2.1-.3.3-.5.5l-1.1 1.1h-.1c-.1 0-.2-.1-.4-.1-.1 0 0-.1 0-.1l.5-.5c.3-.2.5-.5.8-.7zm-7.4-16.1s.1.1.1.2c.1.3.2.7.3 1.1 0 .1 0 .1-.1.1-.2 0-.3.1-.5.1h-.1c0-.1-.1-.1-.1-.2-.1-.2-.2-.5-.2-.7-.1-.2-.1-.3-.2-.5v-.1c.1 0 .2-.1.3-.1.3.1.4 0 .5.1zM16.4 19s0-.1 0 0c-.1-.3 0-.4 0-.6h.1c.1 0 .2.1.4.1.2.1.4.1.5.2.1 0 .2 0 .3.1.1 0 .2.1.1.2 0 .2-.1.3-.1.5 0 .1-.1 0-.1 0-.3-.1-.6-.2-.8-.2-.2-.2-.3-.2-.4-.3zm8.4 2.1s-.1 0 0 0c-.2-.3-.4-.7-.6-1-.2-.4-.5-.8-.7-1.2-.1-.1-.1-.2 0-.3 0-.1 0-.1.1-.1s.1.1.1.1c.2.3.3.6.5.9.1.2.3.5.4.7.2.3.3.5.5.8v.1h-.3zm3.2 2.8c0-.3-.2-.5-.5-.5-.1 0-.2 0-.2-.1s-.1-.2-.1-.3v-.1l.2-.2h.2c.1 0 .1.1.2.1.1.1.1.1 0 .2s-.1.1 0 .2.3.2.4.4c0 0 .1.1.2 0h.2v.2c-.2.3-.5.5-.7.8l-.1.1c-.1 0 0-.1 0-.2s0-.1.1-.1.3-.1.3-.2c0 0-.1 0-.1.1-.1.1-.2.1-.3.1h-.1c0-.1 0-.1.1-.1h.1v-.2s0-.1.1 0h.1v-.2c.1 0 0-.1.1-.2v-.1l-.1-.1c-.1.1-.1.2-.1.4zm-5.9.4V24l.9-.9 1.7-1.7c.1-.1.2-.1.2-.1h.1c0 .1 0 .1-.1.1-.4.3-.7.7-1 1-.2.2-.4.5-.7.7-.2.4-.6.8-1.1 1.2.1 0 .1 0 0 0zm-.2 0h-.1c-.3-.2-.5-.3-.8-.5-.2-.1-.5-.3-.7-.4l-.6-.3c-.1-.1-.3-.2-.4-.2-.1 0-.1-.1 0-.1s.2-.1.2-.1h.1c.4.2.7.4 1.1.6.3.2.7.4 1 .6.2.1.3.2.2.4zm5.7 7.6c.1-.2.3-.3.4-.4 0 0 0-.1.1 0 .1 0 .1.1.2.2 0 .1 0 .1-.1.1-.4.4-.8.9-1.3 1.3-.1.1-.3.1-.4.1h-.1v-.1l1.2-1.2zm-5.1-16.2c.2.1.3.3.4.4 0 0 .1 0 0 .1h-.1c-.2-.2-.5-.4-.7-.6l-.8-.8-1-1-.8-.8-.6-.6s-.1-.1 0-.1h.1l.9.9 1.7 1.7c.3.2.6.5.9.8zm.9 2.9c-.1-.1-.1-.1-.1-.2-.2-.3-.3-.6-.5-.8-.1-.1-.2-.3-.2-.4v-.1c0-.1.1-.1.2-.1s.1.1.1.1l.6 1.2c0 .1.1.1.1.2-.1 0-.2 0-.2.1zm-4.1 5.6c.1.1.2.1.3.2l.2.2c.2.2.4.3.6.4l.6.3c.3.1.6.2.8.3 0 0 .1 0 .1.1h-.2c-.3 0-.5-.1-.8-.2-.3-.1-.6-.2-.8-.4l-.6-.6c-.1-.1-.2-.2-.2-.3zm9-2.7c.1.1.3.2.4.3l.8.8s.1.1 0 .1l-.3.3h-.1l-.3-.6c-.2-.2-.3-.6-.5-.9zm-8.9 1.1c-.1.1-.2.1-.4 0-.4-.2-.9-.5-1.3-.7 0 0-.1 0-.1-.1s.2-.2.2-.1c.1.1.3.1.4.2.2.1.5.3.7.4.3.1.4.2.5.3zm-1.2-5-.9-.9-.6-.6V16s.1-.1.1 0l1.3 1.3c.2.1.2.2.1.3zm-.1-.6c-.2-.2-.4-.3-.5-.5v-.1s.1-.1.1 0h.1c.1.1.2.2.4.3.2.2.5.4.7.6l.1.1c0 .1-.1.1-.2.1h-.2l-.5-.5zm-.1 1c-.3-.4-.6-.7-1-1.1v-.1s.1-.1.1 0l.5.5.4.4c.1.1.1.1.1.2s0 .1-.1.2c.1 0 .1-.1 0-.1zm-5-3.5c0-.1.1-.2.1-.2l.6-.6.3-.3s.1-.1.1 0h.1v-.2c.1-.1.2-.2.3-.2-.1.1-.1.2-.2.3l-.6.6c-.1.1-.3.2-.4.4-.1.1-.2.1-.3.2zM26.5 21l-.1-.1c-.1-.1-.1-.2-.1-.3 0-.2-.1-.3-.2-.5s-.2-.5-.3-.7c-.1-.1-.2-.3-.3-.4-.1-.2-.3-.4-.5-.5-.1-.1-.2-.1-.2-.2.1.1.2.1.3.2l.6.6c.1.2.3.5.4.7.1.2.2.4.2.6.1.2.2.4.2.6zm.7 9.3h-.1l-.1-.1c-.1-.1-.2-.3-.1-.4 0-.1.2-.2.3-.1.1.1.1.2.2.2v.1h.1v.1c0 .1-.1.2-.3.2.1.1 0 .1 0 0 0 .1 0 .1 0 0zm-.9-4.8c.1-.1.2-.3.4-.4 0 0 .1-.1.1 0s.1.1 0 .2c-.2.2-.4.5-.7.7H26c0-.1-.1-.1-.1-.2.2-.1.3-.2.4-.3zM16 20.2c-.1 0-.1 0-.1-.1 0 0 0-.1-.1 0v.2h-.1s0-.1-.1 0c0 .1.1.1.1.1s-.1-.1-.2 0h-.1c-.1 0-.1-.1-.2-.2v-.1c.1 0 0-.1 0-.1l-.1-.1.1.1h.1v-.2h.2s0-.1-.1-.1v-.1h.1c0 .1.1.1.2.1v-.1c.1 0 .3.1.3.2-.1 0 0 .1 0 .1v.3zm-1.6-7.4.1-.1v.1c-.1.1-.3.2-.4.4 0 0-.1.1-.1 0 0 0 0-.1-.1 0v.1c.1.1 0 .1 0 .2-.1.1-.2.2-.4.3-.2.2-.4.3-.5.5 0 0-.1.1-.1 0v-.1l.3-.3c.2-.3.5-.5.7-.8h.2l.3-.3zm5.8 3.2c.1.2.1.4.2.6 0 .1.1.2.1.3 0 0 0 .1-.1.1h-.1s-.1 0-.1-.1-.1-.2-.1-.3c0-.2-.1-.4-.2-.5l.1-.1h.2zm-5.4-3.8c0-.1 0-.1 0 0 .1-.1.1-.2.2-.3l.6-.6.6-.6c.1-.1.1 0 .2 0 .1.1 0 .1 0 .1-.1.1-.2.1-.2.2-.2.2-.4.4-.6.5-.1.1-.2.2-.3.2l-.1.1c-.1.2-.2.3-.4.4zm11.4 8.2c-.1-.1-1-1.6-1-1.7.5.4.9 1.2 1 1.7zM20.9 15c0 .1.1.1.1.1v.1s-.1-.1-.2 0h-.1c-.1 0-.1-.1-.1-.1s-.1-.1 0-.1l-.1-.1s-.1 0 0-.1h.1s0 .1.1.1v-.1s0 .1.1 0c0 0 0-.1-.1-.1h.1c.1.1.2.1.2.2.1.1.1.2.3.3v.1h-.1c-.1-.4-.2-.4-.3-.3h.1s-.1-.1-.1 0zm.8.4h-.1c-.3-.1-.5-.1-.8-.2-.1 0-.1 0-.2-.1l-.4-.4s.2 0 .2.1.1.2.2.2c.1.1.3.1.4.2.1 0 .2-.1.3-.2 0-.1.1 0 .1 0 .1.2.2.3.3.4zm-4.2-.2-.5.5h-.1v-.1c.1-.1.1-.3.2-.4l.7-.7s.1-.1.1 0 .1.1 0 .1c-.1.3-.2.4-.4.6zm-1.6 1.6-.4.4c-.1.1-.1 0-.1 0s-.1-.1 0-.1l.3-.3c.2-.3.5-.5.9-.6h.1c-.1.2-.3.3-.5.4v-.2h-.1l-.2.2-.1.1v.1c0 .1 0 0 .1 0zm5.4 8.6-.9-.3c-.3-.2-.5-.3-.8-.6.6.2 1.2.5 1.7.9zM17 19.3c.3.1.5.1.7.2.1 0 .1.1.1.2s-.1.1-.1.1c-.2-.1-.5-.1-.7-.2-.1-.1-.2-.2 0-.3-.1 0-.1 0 0 0zm14.6 5.4-.4.4c-.1.1-.2.3-.4.4h-.1v-.1c.1-.2.3-.3.5-.5l.6-.6.7-.7s0-.1.1 0v.1c-.1.1-.2.2-.2.3-.3.2-.6.4-.8.7zm-9.4-8.2c-.1-.3-.3-.5-.4-.8h.2c0 .1.1.1.1.2.1.1.2.3.3.4 0 0 .1.1 0 .1-.1.1-.2.1-.2.1zm-7.5-3.1c-.2.2-.3.4-.5.5l-.4.4h-.1s-.1-.1 0-.1l.6-.6h.1c.1 0 .1 0 .1-.1s0-.1.1-.1h.1zm1.8 7.8v-.1s0-.1.1 0c.1 0 .2.1.2.1.2.1.3.2.5.3.1 0 0 .1 0 .2h-.1c-.1 0-.2-.1-.2-.1-.2-.3-.3-.3-.5-.4zm8 10.6c.2-.3 1.8-1.9 1.9-1.9-.6.6-1.2 1.3-1.9 1.9zm-7.3-10v.2c0 .1 0 .1-.1 0l-.8-.8v-.1c.1 0 .2 0 .3.2l.5.5c-.1.1-.1.1.1 0-.1 0-.1 0 0 0zM13.1 15s-.1.1-.1 0v-.1c.1-.1.1-.1 0-.2v-.1c.1 0 .2-.1.3-.2h.1v.1c0 .2-.1.3-.3.5zm3.9.5c0 .1 0 .1-.1.2v.1l-.2.2h-.1c-.1.1-.2.1-.4.2.2-.2.5-.5.8-.7zm-1.8-3.6c0 .1-.1.1-.2.2-.2.2-.5.4-.7.6l-.2.2H14v-.2c.3-.2.5-.4.8-.6.2 0 .3-.1.4-.2zm12 11.2c-.1 0-.2-.1-.2-.1s-.1-.1-.2 0h-.1c-.1-.1-.1-.1 0-.2 0-.1.1-.1.1-.1h.1c.2.1.3.3.3.4zm-9.5-12.2c0-.6.1-1.2.2-1.8 0 0 .1 0 0 0 0 .6 0 1.2-.2 1.8zm-2.2.7c.2-.2.4-.4.7-.6.1-.1.2-.1.3-.2h.1l-.1.1c-.2.2-.5.4-.7.6-.1.1-.2.1-.3.2h-.1v-.1c.1.1.1 0 .1 0zm8.3 15.9c.2.2.2.3.2.5 0 0 0 .1-.1 0 0-.1 0-.2-.1-.2v-.1h-.2s-.1-.1 0-.1v-.1h-.1c-.1.1-.1 0-.1 0v-.1h.1c.1 0 .2 0 .3.1zm4-4.9c.1 0 .1.1.2.1v.1h-.1c-.1-.1-.2-.1-.1-.2-.2-.1-.3-.1-.4 0l-.1.1h-.1v-.1c.1-.1.2-.2.3-.2.1-.1.2 0 .2 0 0 .1 0 .2.1.2zM25 26.2l.2-.1c.1 0 .1.3 0 .3-.1.1-.1.1-.2 0-.1 0-.1-.1 0-.2zM12.3 15.5c0-.1.1-.3.1-.4 0-.1.1 0 .1 0 .1 0 .1.1.2.1s.1.1 0 .1c-.2 0-.3.1-.4.2zm-.2 1.2c.1-.1.2-.2.2-.3 0 0 .1-.1.1 0v.1l-.2.2-.3.3h-.1v-.1c.2-.1.2-.2.3-.2zm11.6 11.5h-.3s-.1 0 0-.1V28h-.1s0 .1 0 0v-.2h-.1v-.1s.1.1.1 0 .1 0 .1 0l.2.2s.1.1 0 .1v.1h.1c-.1 0-.1.1 0 .1zm-.3-.3-.2-.2v-.1h.1l.3.3v.1h-.1s0-.1-.1-.1zm.1-1.5s.1-.1 0 0c.1-.1.2-.1.2-.1v.1c-.1.1-.2.3 0 .5l.1.1v.1h-.1l-.3-.3c-.1-.2-.1-.2.1-.4-.1.1 0 0 0 0zm.3-3.4c-.1-.1-.1-.1-.1-.2.1 0 .1.1.1.2.1 0 .2.1.3.2.2.2.4.4.6.5 0 0 .1 0 0 .1h-.1c-.3-.3-.5-.6-.8-.8zm.1 3.3c-.1 0-.2-.1-.3-.1-.1 0-.2-.1-.1-.2 0-.1.1-.1.2-.2.1 0 .1.1.1.2s-.1.1 0 .2c.1 0 .1.1.1.1zm6.8-.9s-.1-.1 0 0c-.2-.2-.2-.2-.3-.1l-.1.1c-.1.1-.1.1-.2 0 .1 0 .2 0 .2-.1V25h.1c.1.1.2.3.3.4zM15.3 12v.1c-.2.2-.4.3-.5.5h-.1v-.1c.1-.1.2-.2.3-.2l.3-.3zm12.9 10.9.4.4c.1.1.1.1 0 .2 0-.1 0-.1-.1-.2l-.2-.2c-.1-.1-.1-.1-.1-.2zm-1.3 2.4s0 .1-.1.1l-.6.6h-.1v-.1c.3-.1.6-.3.8-.6zM24.2 27c.1 0 .1.1.1.2s0 .1-.1 0h-.1s-.1 0-.1-.1V27c0-.1.1-.1.2 0zm6.6-1.7v-.1c0-.2.1-.3.3-.3.1 0 .1 0 0 .1l-.3.3zM13.6 14.6c-.3.3-.5.6-.9.9.3-.4.6-.7.9-.9zm6.3 7.5c-.1-.1-.1-.1 0-.2s.1-.1.2 0l.1.1v.1c-.2.1-.2.1-.3 0zm4 5.2h.2l.3.3h.1c.1 0 .1 0 .1-.1-.1.2-.2.2-.3.1-.2-.1-.3-.2-.4-.3zm-2.2-7c-.1-.1-.1-.1 0-.2s.1-.1.2 0 .1.1 0 .2-.2 0-.2 0zm6.1 2.7c.1 0 .1-.1.1-.1s.1.1 0 .1v.2h-.1V23zm-9.7-11.1c-.1 0-.1 0 0 0-.1-.1-.1-.2-.1-.3.1 0 .1-.1.2 0l.2.2v.1c-.1.1-.2.2-.3 0 0 .1 0 0 0 0zm2.8 9.1-.1-.1c0-.1.1-.1.2 0l.1.1v.1s-.1 0-.2-.1zm1.8-1.8-.1-.1c0-.1.1-.1.2 0l.1.1v.1s-.1 0-.2-.1zM12.6 15l-.1-.1v-.1h.1l.2.2s.1 0 0 .1c0 0 0 .1-.1 0 0 0-.1 0-.1-.1zm10.7 12.5c.2.2.4.3.5.5v.1l-.1.1h-.1l-.4-.4-.1-.1c0 .1 0 .1.1.1l.2.2.1.1c.1.1.1 0 .1-.1v-.1l-.1-.1c0-.1-.1-.2-.2-.3zm-6.7-8.1v-.2h.2s0 .2-.1.2c0 .1-.1 0-.1 0zm-2.8-5c.3-.3.6-.6.9-1-.3.4-.6.7-.9 1zM11.4 16l.1-.1c.1 0 .1.2 0 .2-.1.1-.1.1-.2 0 0 0 .1 0 .1-.1zm.9-.5c.1-.1.3-.1.4-.2 0 0 0 .1-.1.1s-.1.1-.1.1c0 .1 0 .1-.2 0 .1 0 .1 0 0 0zm9.8 4.9c.1.1.1.1 0 .2s-.1 0-.2 0c-.1-.1 0-.1.1-.2 0-.1.1-.1.1 0zm-2 1.8c.1-.1.1-.1.2 0s.1.1 0 .2-.1 0-.2-.1c-.1 0 0-.1 0-.1zm9 4.8-.2.2c0-.1-.1-.1-.1-.1 0-.1.1-.1.1-.1h.2zM16.5 11.5c.1 0 .1.1.2.1v.1h-.1l-.3-.3v-.1h.1c0 .1 0 .1.1.2zm6.7 7.8c.1.1.1.1 0 .2s-.1 0-.2 0c-.1-.1 0-.1 0-.2.1-.1.1 0 .2 0zm-6.1-7.6.6-.6-.6.6zm10.5 12.2c0-.2 0-.2.1-.3h.1v.1l-.2.2zM24.4 26c.1 0 .1.1.2.2l-.3-.3v-.1h.1c-.1.1 0 .2 0 .2zm-2-9c0-.2.1-.3.1-.4.1.1.1.2 0 .3.1 0 0 0-.1.1zm-1.1 4.1s.1.1 0 .1c0 0-.1.1-.2 0 0 0-.1-.1 0-.2.1.1.2 0 .2.1zm-5.7-9.2c.1 0 .1-.1.2-.1 0 0 .1-.1.1 0v.1c-.1-.1-.2 0-.3 0 0 .1 0 .2-.1.1 0-.1.1-.1.1-.1zm12.7 11.5s-.1-.1 0 0l-.1-.1.1-.1.2.2v.1c-.1 0-.1 0-.2-.1zm-14-9.9c-.2.3-.5.5-.8.7.3-.3.5-.5.8-.7zM28 28.1c0-.1 0-.1-.1-.2l.1-.1h.1c0 .1.1 0 .1.1-.1.1-.1.2-.2.2zm-11.3-6.6c.1 0 .3.1.4.2v.1H17l-.3-.3zm13.6 4.9-.1.1h-.1v-.1l.2-.2h.1v.1c-.1 0-.1.1-.1.1zm-2.3-3s0-.1 0 0c0-.1 0-.1 0 0l.1-.1.1.1s.1 0 0 .1h-.1s0-.1-.1-.1zm-10.3-1.7c-.1.2-.2.2-.4.1.2-.1.3-.1.4-.1zm-.9-11.1c.1-.1.1-.1.2-.1v.1c0 .1-.1.1-.1.1-.1.1-.2.1-.1-.1-.1.1-.1.1 0 0zm13.1 15.3c0-.1.1-.1.1-.1s0 .1.1.1.1.1 0 .1l-.1.1c0-.1 0-.1-.1-.2zM18.1 14.7l.1-.1c.1 0 .1.1 0 .2 0 0-.1.1-.1 0-.1 0-.1 0 0-.1zm8.8 8.8-.1-.1s-.1 0 0-.1h.1l.3.3h-.1c-.1 0-.2-.1-.2-.1zm-11.2-4 .3.3c-.1-.1-.2-.2-.3-.1-.1-.1 0-.1 0-.2zm.1-7.9c-.1.2-.2.2-.3.3h-.1c.2-.2.3-.3.4-.3zm4.7 2.4c0 .1.1.1.1.2V14.5c-.1 0-.1-.1-.2-.2.1-.2 0-.2.1-.3zm-7.7.9s0-.1 0 0c0-.1.1-.1.2-.1 0 0 .1.1 0 .1-.1.1-.1 0-.2 0zm11.4 12.6c0-.1-.1-.1-.1-.1h.1l.1.1v.1c.1 0 0 0-.1-.1.1.1.1 0 0 0zm2.9-5.1c-.1.1-.2.2-.4.3.1-.2.2-.3.4-.3zm-10.5-12 .1-.1h.1v.1l-.2.2c-.1-.1 0-.1 0-.2zm6.8 15.7c0 .1-.1.1 0 0-.1 0-.1 0 0 0 0-.1.1-.2.1-.3 0 0 0-.1.1 0v.1l-.2.2zm-3.5-10.3h.1c.1 0 .1 0 .1.1s0 0-.1 0l-.1-.1c0 .1 0 0 0 0zm-7.1-1.4c-.1.2-.3.3-.4.4.1-.2.2-.3.4-.4zm11 12.7c.1-.1.1 0 .1 0s.1.1 0 .1h-.2s.1 0 .1-.1zm1.5-5.7c0 .1.1.1.1.2v.1h-.1v-.3c-.1 0-.1 0 0 0-.1-.1 0-.1 0 0zM23.4 25l-.6-.3.6.3zm3.2-5.2c-.1 0-.2-.1-.3-.3 0 .1.2.2.3.3zm-4.9 5.6c0-.1-.1-.2-.2-.2.1 0 .1 0 .2.1v.1zm3.1 1.3c-.1.1-.1.1-.1.2h-.1v-.1c0-.1.1-.1.2-.1zM13.1 14.5c0 .1 0 .1-.1.1s-.1 0-.2.1h-.1v-.1c.2-.1.3 0 .4-.1 0 .1 0 0 0 0zm17 10.4s-.1 0 0 0c0-.1 0-.1 0 0 .1 0 .2 0 .1.1l-.1-.1zM19.4 17c.1.1.1.2.1.3v.1c-.1-.2-.1-.3-.1-.4zm-.8-4.7s0-.1 0 0c.1-.1.1-.1.1 0h-.1c.1.1 0 .1 0 .1h-.1l.1-.1zm-2.2 7c0 .1 0 0 0 0-.1 0-.1-.1-.1-.1h.1s.1.1 0 .1zm13 4.2s0-.1 0 0c.1-.1.1-.1.1 0-.1 0-.1 0-.1.1v-.1c-.1 0-.1 0 0 0zm-6.9 1c0 .1 0 .1 0 0h-.2c0-.1.1-.1.2 0zm5.5-1.6v-.1c.1 0 .1 0 0 .1.1 0 .1 0 .1.1l-.1-.1zm-14.8-4.5-.7-.7.7.7zm3.5-7.9s.1 0 0 0l.1-.1v.1h-.1c0 .1 0 .1-.1.1 0 0 .1 0 .1-.1zm1.8 1.3c.1.1.2.1.2.2l-.1-.1c-.1 0-.1 0-.1-.1zm-6.2 2.9c.1-.1.2-.3.4-.4-.1.2-.2.3-.4.4zm12.8 11.9c.1 0 .1-.1.2-.1v-.3c.1.1.1.2 0 .3 0 .1-.1.1-.2.1zm-13.6-8 .1.1v.1c0-.1 0-.2-.1-.2h.1c-.2-.1-.1-.1-.1 0zm5 3c-.2-.1-.3-.3-.4-.4l.4.4zm2-9.5s.1 0 0 0c.1 0 .1.1 0 0 .1.1 0 .1 0 .1v-.1zM29.7 21l.2.2h-.1c0-.1-.1-.2-.1-.2zm-5.9 6.9c-.1-.1-.3-.2-.4-.4.2.1.3.2.4.4zm-8.3-10.6s.1-.1 0 0c.1 0 0 .1 0 .1-.1 0 0-.1 0-.1zm-1 2.4c.2.1.3.3.5.4-.2-.1-.3-.2-.5-.4zm1.6-8.2c0 .1 0 .1 0 0H16l.1-.1c.1 0 .1 0 0 .1.1 0 .1 0 0 0zm8.8 15.2c0 .1-.1.1-.2.2.1-.1.2-.1.2-.2zm5.5-1.8h.1s.1 0 .1.1v.1h-.1c0-.1 0-.1-.1-.2zM22.3 16c.1 0 .1.1.2.1v.1c-.1-.1-.2-.1-.2-.2zm-7.8-2.7.1.1c-.1 0-.1.1-.2 0 0 0 0-.1.1-.1zm12.8 5.3c0 .1 0 .1.1.2h.1-.1s0-.1-.1-.2c0 .1 0 0 0 0zm-11.7-1.4.3-.3-.3.3zm3.2 6.5c-.1-.1-.2-.1-.3-.1.1-.1.2-.1.3.1zm-7.4-7.8c-.1.1-.1.2-.2.2 0-.1.1-.1.2-.2zm4.5 5.2-.3-.3.3.3zm1.7-11.3s.1-.1.1 0h-.1c.1.1 0 .1 0 .1-.1-.1 0-.1 0-.1zm-.4 1.2c-.1.1-.1.1-.2 0h.2zm-5.8 4.8c-.1.1-.2.3-.3.3.1-.2.2-.2.3-.3zm7.8.5c.1.1.1.2.1.4-.1-.2-.1-.3-.1-.4zm-3 4.4v.3c-.1-.1 0-.2 0-.3zm3.9-5.1s0 .1 0 0c-.1 0-.1.1-.2 0h.2zm8 7.5s.1 0 0 0c.1 0 .1.1 0 0 .1.1 0 .1 0 0 0 .1 0 0 0 0zm-4 4.2s-.1 0 0 0c0-.1 0-.1 0 0 .1 0 .1 0 0 0 0 .1 0 .1 0 0zm1.4-5.7c.1 0 .1.1.1.1-.1 0-.1-.1-.1-.1zm5.2 3.3c0-.1 0-.1 0 0 .1 0 .1-.1.1-.1l-.1.1s0 .1 0 0c-.1 0 0 0 0 0zm-3.1-.8.3-.3c-.2.1-.2.2-.3.3zm-2.7-3.6c.1 0 .1.1.1.2 0-.1-.1-.2-.1-.2zm-6.4 3.2c0-.1.1 0 .2 0s.1.1.1.1c-.2-.2-.2-.2-.3-.1zm-6.2-7.9c.1 0 .1 0 .1.1 0 0 0-.1-.1-.1zm16.3 6-.2-.2c.1.1.2.1.2.2zm.7.7c-.1 0-.2-.1-.2-.2.1.1.2.1.2.2zm1.4 5.5c.1.1.2.1.2 0-.1.1-.2.1-.2 0zM17.2 10.8c.1.1.1.1 0 .2v-.2zm1.9-.1c.1 0 .1.1.2.1-.1 0-.1-.1-.2-.1zm4.5 7.7c0 .1-.1.2-.1.3-.1-.1 0-.2.1-.3zm9.7 6.3s-.1 0 0 0c0-.1 0 0 0 0h.1c-.1.1-.1 0-.1 0 0 .1-.1.1 0 0-.1.1-.1.1 0 0-.1 0-.1 0 0 0zm-21.5-8.4s-.1 0 0 0c0-.1 0 0 0 0s.1 0 0 0c0 .1 0 0 0 0zm5.8-5.8v-.2c.1.1.1.1 0 .2.1 0 .1 0 0 0zm8.1 6.4c0 .1.1.2.2.2-.2 0-.3-.1-.2-.2zm-10.3-4.8s.1.1.1 0c0 0 0 .1-.1 0 .1.1 0 0 0 0zm-3 5.5-.3-.3.3.3zm1.9 1.9-.3-.3c.2.1.2.2.3.3zm16.2 5.1c0 .1 0 .1 0 0-.1 0-.1 0 0 0zM13.4 14.4c0 .1-.1.1-.2.1.1-.1.1-.1.2-.1zm7-.4c-.1 0-.1 0-.1-.1.1 0 .1 0 .1.1 0-.1 0-.1 0 0 .1-.1 0 0 0 0zm-4.2 6.9v.1-.1zm5.1-6.1c0 .1.1.1.1.2-.1-.1-.1-.1-.1-.2zm-9.6 1.7c-.1 0-.1 0-.1-.1 0 0 .1 0 .1.1zm9.8-1.5c.1 0 .1.1.1.1-.1 0-.1 0-.1-.1zm1 1.3s0-.1 0 0l.1-.1c0 .1 0 .1-.1.1zm11 8.3s-.1.1 0 0c-.1 0-.1 0 0 0-.1-.1-.1 0 0 0z"/><path d="M23.8 29.8c0-.1 0-.2-.1-.3 0 .2 0 .3.1.3zM26.1 29.8c-.1 0-.2 0-.2-.1s-.1-.1-.2-.2-.2 0-.3.1c-.1.1-.1.2 0 .3v.1l-.3-.3c-.1-.1-.1-.2-.2-.3l-.1.1v.1l.2.2c.1 0 .1.1.1.1.2.2.4.3.5.5l.1.1.1-.1v-.1c0-.1.1-.1.2-.1h.1s.1 0 .1-.1V30l-.2-.2s-.1 0 0-.1h.1c.1 0 .2-.1.2-.2v-.1c0-.1-.1-.2-.2-.1 0 0-.1 0-.1.1-.1.1-.1.1-.2 0l-.1-.1h-.1c-.1.1-.2 0-.2-.1h-.1v.1l.3.3c.2-.1.4 0 .5.2zm-.6.1s.1.1.2 0c0 0 .1 0 .1.1v.1h-.1l-.2-.2zm.2-.7c0-.1.1-.1 0 0 .1 0 .2 0 0 0 .1.1.1.1 0 0zm.2.1c0-.1.1-.1.2-.2h.1c-.1 0-.2.1-.3.2zm0 .5c0 .1-.1.1-.1.2 0-.1 0-.2.1-.2zm-.3-.2c0 .1 0 .1 0 0-.1 0-.1 0 0 0zm.2.1c0 .1 0 .1 0 0-.1.1-.1.1 0 0-.1.1-.1.1 0 0-.1 0-.1 0 0 0zm.3-.5c0 .1 0 .1-.1.1l.1-.1zM24.4 29.8c.1 0 .1.1.1.2s.1.2.2.1c.1 0 .1-.1.1-.1 0-.1-.1-.2-.2-.2s-.2-.1-.2-.2-.1-.1-.1-.1c-.1 0-.1 0-.2.1 0 .1 0 .1.1.2.1-.1.1 0 .2 0zm.1 0 .1.1s.1.1 0 .1h-.1s0-.1-.1-.1c-.1-.1-.2-.1-.2-.2v-.1h.1c.1.1.2.1.2.2zM19.7 26.5c-.1 0-.1-.1-.2-.1s-.2.1-.1.2c0 .1.1.2.1.2h.2c.1-.1.1-.1 0-.3.1.1.1.1 0 0zm0 .1v.1-.1zM22.1 28.9s-.1 0-.2-.1c-.1 0-.1.1-.1.1 0 .1.1.2.2.3.1 0 .2-.1.2-.2 0 0 0-.1-.1-.1zM16.4 21.7c-.1-.1-.2-.1-.3 0v.1c0 .1.1.2.2.2s.1 0 .2-.1v-.1c-.1 0-.1 0-.1-.1zM13.7 20.8v.1c0 .1 0 .2.1.2.2.1.3 0 .3-.1s-.1-.2-.2-.2c-.1-.1-.2-.1-.2 0zm0 0c.1-.1.1 0 .2 0s.1.1.1.2h-.1c0-.1-.1-.1-.2-.2zM15.7 22.5c-.1-.1-.2-.1-.3-.1-.1.1 0 .2 0 .3.1.1.2.1.3 0 .1 0 0-.1 0-.2zM20.2 26s.1.1.2.1.1-.1.1-.1c0-.1-.2-.2-.3-.3-.1 0-.1 0-.1.1s.1.2.1.2zM12.3 17.7c-.1-.1-.2-.1-.2-.1l-.1.1c0 .1 0 .2.1.2h.1c.1 0 .1 0 .2-.1 0 .1 0 0-.1-.1zM14.7 20.1s-.1 0-.1-.1c-.1 0-.1 0-.1.1s0 .2.1.2c.1.1.2.1.3.1l.1-.1c-.2-.1-.3-.2-.3-.2zM18 24.8c-.1-.1-.1-.1-.2 0-.1 0-.1.1-.1.2s.1.2.2.2h.1v-.1c.1-.2 0-.2 0-.3zM18.5 24.1c-.1.1 0 .2 0 .3.1.1.2.1.3 0 .1-.1 0-.2 0-.3-.1-.1-.3-.1-.3 0zm.2.3c0-.1-.1-.2-.2-.2.1 0 .1 0 .1.1.1-.1.1 0 .1.1zM26 26.8l-.1.1v.1h.3c.1 0 .1-.1.1-.2v-.1c-.1-.1-.2-.1-.3.1zm.3 0c-.2 0-.2 0-.2.2v-.1s0-.1.1-.1c0 0 0-.1.1 0zM24.3 28.5c-.1.1-.1.2 0 .2 0 0 .2.1.3 0 .1 0 .1-.1.1-.2s0-.2-.1-.2c-.2.1-.2.1-.3.2zm.1.1c.1 0 .1-.1.1-.1-.1 0-.1.1-.2.1 0 .1 0 .1.1 0-.1 0 0 0 0 0zM22.9 28.2c-.1-.1-.1-.1-.2-.1 0 0-.1 0-.1.1-.1.1.1.3.2.3s.1 0 .2-.1c0-.1-.1-.1-.1-.2zm-.3 0c.1 0 .2.1.2.1v.1c0-.1-.1-.1-.2-.2zm0 0c.1 0 .2 0 .2.1 0-.1-.1-.1-.2-.1zM26.8 29c.1 0 .1 0 0 0 .1.1.1.1.2.1s.1-.1.1-.1 0-.1-.1-.1c0-.1 0-.1-.2.1.1-.1.1 0 0 0zM27.1 28.7c.1 0 .1 0 0 0 .1.1.1.1.2.1 0 0 .1 0 .1-.1v-.1c-.1-.1-.1-.1-.3.1.1-.1.1 0 0 0zM27.6 28.2l-.1.1c-.1.1 0 .1 0 .2.1 0 .1.1.2 0 0 0 .1-.2 0-.2s-.1-.1-.1-.1zM23.7 29.5c0-.1 0-.2-.1-.3V29v.1c0 .2 0 .3.1.4zM20.7 25.7l.7.7c-.2-.2-.5-.4-.7-.7zM21.9 26.9c0-.1-.1-.1-.2-.2.1.1.1.2.2.2zM28.6 20.6c-.1.1-.2.2-.2.3-.1.1-.1.3 0 .5.1.1.3.2.5.1s.3-.2.4-.3c.1-.2.2-.1 0-.3l-.4-.4s-.1-.1-.1 0c-.1 0-.1.1-.2.1zm.5.1.2.2v.1l-.3.3c-.1.1-.4.1-.5 0-.1-.1-.1-.3 0-.5l.3-.3h.1c0 .1.1.2.2.2zM20.8 13.8c0 .1.1.1.2.1s.2 0 .2-.1v-.2H20.9c-.1 0-.2.1-.2.2 0-.1 0 0 .1 0zM29.2 21.7c-.1-.1-.2-.1-.3 0v.1c0 .1.1.3.3.3h.1c0-.2 0-.4-.1-.4zM18.4 11.5l.1.1c.1 0 .2-.1.2-.2v-.1c0-.1-.1-.1-.2-.1s-.1 0-.2.1c0 .1.1.1.1.2zM22.5 15.5c.1.1.2.1.3 0v-.3h-.3c-.1.1-.1.2 0 .3zm.2 0c-.1 0-.2-.1-.2-.2v-.1c0 .2.1.2.2.3zM24.9 17.9c.2.1.3.1.3 0v-.2c0-.1-.2-.1-.3-.1-.1.1-.1.1 0 .3 0-.1 0-.1 0 0zm.1-.1c-.1 0-.1-.1-.1-.1v-.1c.1.1.1.2.1.2zM26.6 19.5c.1.1.2.1.2 0 .1-.1.1-.2 0-.3 0 0-.2-.1-.3 0 0 .1 0 .3.1.3zm0-.2a.215.215 0 0 1 0 0zM14.9 14.3h-.1v-.1c.1 0 .1-.1.2-.2 0 0 .1-.1.1 0v.1c.1 0 .1 0 .1-.1l.3-.3s.1-.1 0-.1c0 0-.1-.1-.2-.1l-.2.2-.6.6c-.1.1 0 .1 0 .2.1.1.1.1.2 0l.2-.2zm.2-.5.1-.1s.1.1 0 .1l-.1.1H15l.1-.1c0 .1 0 0 0 0zm-.5.6c0-.1 0-.1 0 0 .1-.1.1-.1.1 0v.1l-.1.1h-.1c0-.1 0-.1.1-.2-.1 0 0 0 0 0zm-.2.2c0-.1.1-.1 0 0 .1 0 .1 0 0 0 .1 0 0 0 0 0zM15.3 13.5c-.2 0-.2.1-.3.2 0 .1-.1.1-.1.1l-.5.5-.3.3.3-.3c0 .1-.1.1-.1.1.3-.2.6-.6 1-.9zm-.9.8c0-.1.1-.1.2-.2-.1.1-.1.2-.2.2zM15.5 14.7h-.1v.1c.1 0 .1 0 .1-.1.1 0 0 0 0 0zM15.9 15.2s.1 0 0 0c.1 0 .1-.1.1-.1h-.1v.1zM16.5 15.7c-.1 0-.1 0 0 0 0 .1 0 .1 0 0 .1 0 .1 0 0 0 0-.1 0-.1 0 0zM15.4 16.7c.1.1.1.1 0 0 .1 0 .2 0 0 0 .1-.1.1 0 0 0zM13.3 15.2s.1 0 0 0c.1-.1.1-.1 0 0 .1-.1 0-.1 0 0 0-.1 0-.1 0 0zM11.1 17.1c.1 0 .3 0 .4-.1-.1 0-.3 0-.4.1zM15.7 14.9s0 .1 0 0c0 .1.1.1 0 0 .1.1.1 0 0 0 .1 0 0 0 0 0zM15.9 12.5c-.1 0-.1.1 0 0 0 .1 0 .1 0 0 .1.1.1 0 0 0zM17.8 12.7c0 .1.1.1 0 0 .1 0 .1 0 0 0 .1 0 0 0 0 0zM17.4 14.7s0 .1 0 0c0 .1 0 .1 0 0 .1.1.1 0 0 0zM14.7 17.5c-.1 0-.1 0 0 0-.1 0-.1.1-.1.1l.1-.1c0 .1 0 0 0 0zM17 11.9s-.1 0 0 0c0 .1 0 .1 0 0 .1 0 .1 0 0 0zM14.1 14.2c0 .1 0 .1 0 0 .1.1.1.1 0 0 .1.1.1.1 0 0 .1 0 .1 0 0 0zM18.3 13.9c.1-.1.1-.1 0 0 .1-.1 0-.1 0 0 0-.1 0-.1 0 0zM14.2 17.9c.1.1.1.1 0 0 .1 0 .1 0 0 0 .1 0 0 0 0 0zM18.6 13.5c.1.1.1.1 0 0 .2 0 .1 0 0 0 .1-.1.1-.1 0 0zM11.6 16.9c.1 0 .1 0 0 0 .1 0 .1-.1 0 0 .1-.1.1-.1 0 0zM16.1 12.6l-.2.2c.1 0 .2-.1.2-.2zM25.3 20.8c-.1.1-.1.2 0 .3.1.1.1.1.2.1s.1-.1.1-.2 0-.1-.1-.2v-.3c.1-.1.1-.1.1-.2 0 0 0-.1-.1-.1h-.2c-.2-.3-.3-.6-.4-.8-.2-.3-.4-.7-.5-1-.1-.1-.1-.2-.2-.2l-.1-.1c0-.1-.1-.1-.2-.1h-.1c0 .1-.1.1 0 .2 0 .1.1.2.3.2.1 0 .2.1.2.2s0 .1.1.1l.1.1.3.6c0 .1.1.2.2.3v.1s0 .1.1.1c.1.3.3.6.5.9-.2-.1-.2 0-.3 0zm.1-.2c-.4-.7-.8-1.5-1.2-2.2.1.2.2.3.3.5.1.3.3.5.4.7.2.3.3.6.5 1 0-.1 0-.1 0 0 .1.1.1.2.1.3 0-.2-.1-.3-.1-.3zm.2.5c-.1 0-.1-.1-.2-.2 0 .1.1.2.2.2zM26.1 21.2c-.1-.1-.2-.1-.2 0v.1c.1 0 .1.1.1.1 0 .1 0 .1.1.1s.1 0 .2-.1c0 .1-.1-.1-.2-.2zM23.6 17.2s-.1 0-.1-.1c0 0-.1 0 0 .1v.1c.1 0 .1.1.1.2 0 0 0 .1.1.1l.1-.1c0-.1-.1-.2-.2-.3zM25.1 19.2s.1.1 0 .1v.1l.1-.1c.1 0 .1-.1-.1-.1 0-.1 0-.2-.1-.1l.1.1zM24.5 18.1c.1 0 .1.1.1.2 0 0 0 .1.1.1 0 0 .1-.1 0-.1 0-.1-.1-.2-.2-.2h-.1.1zM27.6 25.1c0 .1-.1.1-.1.2s.1.1.2.1.1-.1.1-.2.1-.1 0-.2c0 0-.1 0-.2.1zM21.7 24.5c-.1.1-.1.1-.2 0-.3-.1-.6-.3-.8-.5 0 0-.1 0-.1-.1l-.1-.1h-.1c-.2-.2-.5-.3-.8-.5-.1-.1-.2-.1-.3-.2-.1 0-.1-.1-.1-.2s0-.1-.1-.2c-.1 0-.2-.1-.3 0l-.1.1c0 .1 0 .2.1.2.1.2.3.2.5.4s.5.3.8.4c.3.1.5.3.8.4 0 0 .1 0 0 .1v.1c0 .1.3.2.3.1s.1-.1.1 0c.1 0 .1.1.2 0h.1c.1 0 .2.1.3 0 .1 0 .1-.1.1-.2 0 .2-.1.1-.3.2.1 0 0 0 0 0zm0 .2c0 .1-.1.1-.1.1-.1-.1-.2-.1-.4-.2-.3-.1-.5-.3-.8-.4-.3-.2-.6-.3-.9-.5-.1-.1-.3-.2-.4-.2.1 0 .2.1.3.1.3.2.6.3.8.5.2.1.5.3.7.4.2.1.4.2.5.3.1-.1.2-.1.3-.1zm.1-.1c.1 0 .2 0 .2.1v.1-.1s-.1 0-.2-.1c.1 0 0 0 0 0zM22.1 25.3c.1.1.2.1.3.1 0-.1 0-.1.1-.1 0-.1 0-.1-.1-.1s-.2 0-.2-.1-.1 0-.1 0v.2zM18.1 22.8c.1 0 .1.1.2.1 0 0 .1 0 .1-.1l-.1-.1c0 .1-.1.1-.2.1.1-.1 0-.1 0-.1v.1zM19.9 24.4c.1.1.2.1.3.1v-.1h-.1s0-.1-.2 0c.1-.1.1-.1 0-.1h-.1c.1 0 .1 0 .1.1 0-.1 0-.1 0 0zM25.8 25.6v-.3c.1-.2.1-.3.3-.3h.1c-.2 0-.4.1-.5.3.1.1.1.1.1.3zM31 23.8c.1 0 0-.1 0-.2s-.1-.1-.1-.1h-.1c-.1-.1-.2-.1-.2-.2s-.1-.1-.2-.1-.1.1-.1.2 0 .1.2.1h.1c.1.1.2.1.2.3h.2zm-.4-.3c-.1 0-.1-.1-.2-.2v-.1h.1l.3.3s.1 0 0 .1h-.1l-.1-.1zM30 24.2s-.1 0 0 0H29.7V24h-.2v-.1c.1 0 .1 0 0-.1v-.1h.2v-.1h-.1c-.1 0-.2.1-.2.2s.1.2.2.3c.2.2.3.2.4.1zM31.1 23.1c-.2-.1-.4-.1-.7-.2.2.1.4.2.7.2zM30.1 23.9s-.1 0 0 0c0 .1 0 .2-.1.1h.1v-.1z"/><path d="M30.1 23.9c0-.1-.1-.1-.2-.1v.2c.1-.2.1-.1.2-.1zM26.6 31.4c-.1.1-.1.1-.2.1 0-.1-.1 0-.1 0l-.2.2v.2l-.2.2.2-.2s.1-.1.1 0h.1c0-.1.1-.1.2-.2 0 0 .1-.1 0-.2l.1-.1zM26.4 30.1c-.1 0-.1 0 0 0 0 .1 0 .1 0 0 .1.1 0 0 0 0zM25.3 31.2c0 .1.1.1 0 0 .1 0 .1 0 0 0 0-.1 0 0 0 0zM24.8 31.7c0 .1 0 .1 0 0 0 .1 0 .1 0 0 .1.1.1.1 0 0zM25.8 30.7c0 .1.1.1 0 0 .1 0 .1 0 0 0 .1-.1 0-.1 0 0zM33.4 26l-.3.3.3-.3zM31 25.4s0 .1 0 0c0 .1 0 .1 0 0 .1.1.1 0 0 0zM32 24.4c0 .1.1.1 0 0 .1 0 .1 0 0 0 .1 0 0 0 0 0zM18 19.3c-.1.3-.1.5-.2.7 0 .1 0 .1.1.1h.1c.1-.2.1-.3.1-.5v-.2c0-.1 0-.1-.1-.1 0-.1 0 0 0 0zM20.1 17.2s0 .1 0 0c0 .1 0 .1.1.1.2-.1.4-.1.7-.2 0 0 .1 0 .1-.1s0-.1-.1 0c-.3.1-.5.1-.8.2zM18.8 13.6s0 .1 0 0c0 .1 0 .1 0 0 .1.1.1 0 0 0 .1 0 0 0 0 0zM19.7 14.5c0 .1 0 0 0 0 .1 0 .1 0 0 0 0-.1 0-.1 0 0zM14.5 18.1c-.1 0-.1.1 0 0 0 .1 0 .1 0 0 .1.1.1 0 0 0zM14.8 17.8c.1 0 .1 0 0 0 0-.1 0-.1 0 0-.1 0-.1 0 0 0zM24.4 20.3h.1v-.1c-.1-.1-.2-.3-.3-.4l-.1-.1s0-.1-.1-.1 0 .1 0 .1c0 .1.1.1.1.2.2.2.3.3.3.4zM22.4 23.8l-.2.2s-.1.1 0 .1h.1l.4-.4s.1-.1 0-.1h-.1l-.2.2zM24.7 21.7c.1-.1.2-.1.2-.2v-.1h-.1l-.1.1c-.1.1-.2.3-.4.4l-.1.1v.1h.1c.1 0 .1-.1.1-.1.2-.2.2-.3.3-.3zM20.5 23.4c.1.1.2.1.3.2.1 0 .1.1.2.1h.2v-.1l-.6-.3s-.1-.1-.1 0c-.1.1-.1.1 0 .1zM17.3 15.2l-.2.2s-.1.1 0 .1h.1l.3-.3s.1-.1 0-.1h-.1l-.1.1zM16.6 15.9s0 .1 0 0c0 .1 0 .1 0 0 .1 0 .1 0 0 0zM16.7 15.8s.1 0 0 0c.1 0 .1 0 0 0 .1-.1 0-.1 0 0zM18.3 11.7l-.1-.1h-.1v.1c0 .1.1.1.1.2 0 0 .1.1.1 0 .1 0 .1-.1 0-.2 0 .1 0 .1 0 0zm-.1.1.1.1c-.1.1-.1 0-.1-.1-.1 0-.2 0-.1-.1l.1.1zM29.1 20.8l-.1-.1c-.1-.1-.1-.1-.2 0l-.2.2c-.1.1-.1.3 0 .4.1.1.3.1.4-.1.1-.1.1-.2.2-.2v-.1l-.1-.1zm-.3.3c.1 0 .2 0 .3-.1 0-.1 0-.2-.2-.2.1 0 .2 0 .2.1.1.1 0 .2 0 .2-.2.1-.3.1-.3 0zm-.1.1c-.1 0-.1 0 0 0 0-.1-.1-.1 0-.1v.1c0-.1 0 0 0 0h.1c0 .1 0 0-.1 0z"/></g><path fill="none" d="m13.397 11.183 6.435-6.435 19.233 19.233-6.435 6.435z"/><path fill="#010101" d="M26 14.4c.4-.4.9-.8 1.2-1.1-.6.4-1.5 1-2.3 1.5l-.6-.6c.5-.8 1.1-1.7 1.5-2.3-.3.3-.7.8-1.1 1.2l-.8.8-.6-.6 2.4-2.4 1 1c-.4.6-.9 1.4-1.2 1.8.4-.3 1.2-.8 1.9-1.2l1 1-2.4 2.4-.7-.7.7-.8zM28.4 16.1l-.5.5-1-1 .5-.5 1 1zM27.8 17.8l1.6-1.6c-.1-.1-.3-.2-.4-.3l.4-.4c.3.2.6.3.8.3l.5.5-2.3 2.3-.6-.8zM32 19.7c-.7.7-1.4 1-2.2.2-.7-.7-.4-1.5.2-2.1.6-.6 1.4-.9 2.1-.2.8.6.5 1.4-.1 2.1zm-1.3-1.3c-.5.5-.7.8-.5 1 .2.2.5 0 1-.5s.7-.7.5-1c-.2-.1-.4 0-1 .5z"/><path fill="none" d="M6.7 28.1h18.1v13.6H6.7z"/><path fill="#010101" d="M11.3 35.2v1c-1 1.4-2 3.5-2.3 5.4H7.6c.3-1.9 1.4-4.2 2.3-5.3h-3v-1.2h4.4zM16.4 36.4h-2.6c0 .3-.2 1-.2 1.2.2-.2.6-.3 1.2-.3 1.3 0 2 .9 2 2.1 0 1.2-.7 2.4-2.4 2.4-1.3 0-2.2-.7-2.4-1.8h1.4c.1.4.4.7 1 .7.7 0 1-.5 1-1.2s-.2-1.1-1-1.1c-.6 0-.8.3-1 .6l-1.3-.2c.2-.8.4-2.7.6-3.6h3.9l-.2 1.2z"/><path fill="none" d="M29.3 5.5h13.6v13.6H29.3z"/><path fill="#010101" d="M35 12.6V7.8c-.3.1-.8.3-1.2.3V7c.6-.1 1.2-.5 1.6-.9h1v6.4H35zM37.6 10.8c0-.8.6-1.3 1.1-1.5-.5-.3-.8-.7-.8-1.3 0-1.1.8-1.8 2.2-1.8 1.3 0 2.2.7 2.2 1.8 0 .7-.4 1.1-.8 1.3.5.2 1 .7 1 1.6 0 1.3-1.1 2-2.5 2-1.3-.2-2.4-.9-2.4-2.1zm3.5-.1c0-.6-.4-.9-1.1-.9-.7 0-1.1.4-1.1.9 0 .6.4 1 1.1 1 .7 0 1.1-.3 1.1-1zm-1.9-2.8c0 .4.3.7.9.7.6 0 .9-.2.9-.7 0-.5-.3-.8-.9-.8-.6.1-.9.3-.9.8z"/><path fill="none" d="M29.3 28.1h13.6v13.6H29.3z"/><path fill="#010101" d="M34.1 39.1v1h-2.3v-1h2.3zM34.8 42.1l2.3-6.1h1l-2.2 6.1h-1.1zM41.3 37.6c-.1-.3-.2-.5-.7-.5-.7 0-.9.7-.9 1.4.2-.3.6-.5 1.2-.5 1 0 1.7.7 1.7 1.8s-.7 2-2 2c-1.6 0-2.1-1.2-2.1-2.7 0-1.4.5-2.8 2.1-2.8 1.2 0 1.7.7 1.8 1.4h-1.1zm.1 2.3c0-.5-.2-1-.8-1-.5 0-.8.3-.8.9 0 .4.2 1 .8 1 .6.1.8-.4.8-.9z"/><path fill="none" d="M6.7 23.6h9.1v9.1H6.7z"/><path fill="#010101" d="M9.3 31.1c0-1 .4-1.8 1.6-2.6.8-.6 1-.7 1-1.2s-.2-.7-.7-.7c-.5 0-.7.3-.8.8H9.3c.1-.9.7-1.7 1.9-1.7 1.4 0 1.8.8 1.8 1.6s-.3 1.2-1.3 1.9c-.7.5-.9.8-1 1h2.5l-.1 1H9.3z"/><path fill="#010101" d="M11.2 32.9c-2.6 0-4.8-2.1-4.8-4.8s2.1-4.8 4.8-4.8 4.8 2.1 4.8 4.8-2.1 4.8-4.8 4.8zm0-9.1c-2.4 0-4.3 1.9-4.3 4.3s1.9 4.3 4.3 4.3 4.3-1.9 4.3-4.3-1.9-4.3-4.3-4.3z"/></svg>