<svg version="1.2" baseProfile="tiny" xmlns="http://www.w3.org/2000/svg" xmlns:xlink="http://www.w3.org/1999/xlink" viewBox="0 0 45 45" overflow="visible" xml:space="preserve"><path d="M16.8 30.7c.2.7.8 1 1.3 1.4l-1.3 1.3c-.2.2-.2.3 0 .5l1.1 1.1c.2.2.3.2.6 0l3.3-3.3 3.1-3.1c.2-.2.3-.3.6-.1.1.1.2 0 .3 0l2.3-2.3c.1-.1.2-.3 0-.4-.2-.2-.1-.3.1-.4l3.7-3.7 3.1-3.1c.3-.3.3-.3 0-.6l-.9-.9c-.2-.2-.4-.2-.5 0-.1.1-.2.3-.3.2-.1-.1-.1-.3 0-.4.1-.1.3-.2.1-.4-.2-.2-.3-.4-.6-.4-.2 0-.4-.1-.5-.3-.2-.2-.3-.4-.5-.5-.2-.1-.2-.3-.4-.4-.1 0-.1-.2 0-.3.4-.4.8-.9 1.4-1.2.2-.1.3-.2.3-.5 0-.2-.2-.4-.4-.4s-.4.1-.5.3c-.2.6-.8.9-1.2 1.4-.1.1-.2.2-.3-.1 0-.1-.1-.1-.2-.1s-.2-.1-.2-.2c0-.2-.3-.3-.3-.3-.3-.1-.2-.5-.6-.5-.1 0-.2-.3-.2-.4 0-.3-.2-.4-.4-.6-.1-.1-.2-.1-.3 0-.1.2-.3.2-.6.1l.4-.4c.1-.1.1-.2 0-.4l-1.2-1.2c-.2-.2-.3 0-.4.1l-3.2 3.2-13.3 13.3c-.3.3-.3.3 0 .7l1 1c.3.3.3.3.6 0l1.1-1.1c.1-.1.1-.2.2-.1s0 .2-.1.2c-.2.3-.2.5 0 .8.2.4.5.6.9.9.5.4 1 .9 1.4 1.4.1.1.1.3.2.4.4.3.7.3 1.3-.2-.1.1-.1 0 0 0zm9.4-16.5c0 .2.1.2.2.3.1.1.1.2 0 .4-.1.1-.1.2-.3.1-.2-.1-.3-.3-.5-.4-.2-.2-.2-.3 0-.4l1.9-1.9c.2-.2.3-.2.4 0l2.1 2.1s.1.1.1.2v.1H30c-.3-.2-.4-.6-.7-.7l-.1-.1c0-.1 0-.1-.1-.1-.2.1-.5-.1-.6.3 0 .1-.1.1-.2.2-.2.2-.4.3-.5.5l-.6.6c-.1.1-.2.2-.2.3.2.1.2-.2.3-.3l1.2-1.2c.3-.2.5-.2.7.2 0 .1 0 .1.1.1.2 0 .3.2.4.3.1.1.1.2 0 .3-.5.5-.9 1-1.5 1.3-.2.1-.3.1-.4 0-.2-.3-.5-.5-.7-.7-.1.1 0 .2.1.3.2.2.4.4.6.5.1.1.1.2 0 .2-.1.1-.2 0-.2 0-.4-.4-.8-.7-1.1-1.2-.1-.2 0-.2 0-.4.1-.2.2-.1.4-.1-.1-.2-.1-.3.1-.4.1 0 .2-.2.3-.3.1-.2.2-.3 0-.5s-.4 0-.6.1c-.2.1-.1.3 0 .4.1 0 .1.1 0 .2s-.2.1-.2 0l-.3-.3zm-.1 3.2c-.3-.1-.4-.1-.2-.4.2-.2.2-.4 0-.5l-1.1-1.1c-.2-.2-.3-.2-.5-.1-.4.2-.7.6-1 .9-.2.1-.2.3-.1.5.1.1.2.3.3.4.4.4.8.8 1.2 1.1h-.1c-.4-.2-.8-.3-1.3-.4H23c-.7.3-1.4.3-2.2.3-.3 0-.6 0-.8.2l-2.4 2.4c-.1.1-.1.2-.1.4 0 .3-.1.6-.1.9 0 .1 0 .2-.1.1-.2-.1-.4-.3-.5-.5-.1-.2.1-.3.2-.4l4.2-4.2c.1-.1.2-.2.3-.2l3.3-2.1c.1-.1.2-.1.3 0l2.1 2.1c.1.1.1.2-.1.2-.3 0-.5 0-.8.2l.1.1c.1 0 .3 0 .4.2.1.2-.2.3-.2.4l-.1.1c-.1.1-.2.1-.3-.1-.1-.2-.3-.3-.5-.1l-.4.4c-.1.1-.1.2-.2.1s0-.2.1-.2c.3-.2.5-.5.9-.7zm-1.5 3.2 1.7 1.7c.2.2.2.3 0 .5l-1.7 1.7c-.2.2-.3.2-.5 0l-3.4-3.4c-.2-.2-.2-.3 0-.5.6-.5 1.1-1.1 1.6-1.6.2-.2.3-.2.6 0 .6.5 1.2 1.1 1.7 1.6zm-.4 7c0-.3-.2-.3-.4-.3-.5.1-1.1.2-1.6.3-.1 0-.2 0-.2.1 0 .2-.1.1-.3.1-.2 0-.3 0-.4.2 0 .2 0 .3.2.4.2.1.4 0 .4-.2s.2-.2.3-.3c.1 0 .2-.1.3-.1.5-.1.9-.2 1.4-.3.1 0 .1 0 .2.1 0 .1 0 .1-.1.1l-.3.3c-.1.1-.2.1-.3 0-.3-.2-.7-.2-1 .1-.6.6-.6.5-1.2 0-.2-.2-.3-.4-.1-.7.2-.4.4-.5.9-.4.2.1.3.1.5.1.2.1.4 0 .6-.1.7-.4 1.4-.9 2.1-1.3.1-.1.2-.2.3-.2.2 0 .4.1.3-.3 0 0 .1-.1.1-.2.5-.5.8-1 1-1.7h.1c-.1.3-.1.6-.2.8 0 .1 0 .3.1.3.2 0 .2-.1.2-.3 0-.6.2-1.1.4-1.7.3-.6.2-1.1-.1-1.7-.1-.3-.3-.6-.4-1 0-.1-.1-.2-.1-.3.1.1.1.2.2.2l1.4 1.4c.1.1.1.1.2 0 .4-.4.8-.7 1.1-1.2.1-.2.1-.3-.1-.5-.3-.3-.6-.5-.8-.8-.3-.4-.6-.6-1.1-.2h-.1l.3-.6c.1-.2.2-.3.4-.1l1.8 1.8c.2.1.2.3.1.5-.4.7-.9 1.4-1.3 2.1-.4.6-.7 1.3-1.2 1.8l-1.6 1.6c-.8 1-1.4 1.6-2 2.2zm-11.2-1-1.1-1.1c-.1-.1-.2-.2-.1-.3.2-.2.3-.5.5-.7l8.4-8.4 2.1-2.1c.1-.1.1-.2.2-.1s0 .2-.1.3c-.1.1-.1.2-.3.1-.1 0-.1 0-.2.1-.2.4-.6.7-.9 1.1-.1.1-.3.2-.4.3-.1.1-.1.2 0 .4s.1.3-.1.4c-.1.1-.2.2-.4.3l-5.4 5.4c-.2.2-.4.3-.2.5v.1c-.2.2-.3.5-.6.6-.2.1-.4-.1-.6-.2-.1 0-.2-.1-.2 0-.2.3-.5.4-.8.6-.1.1-.2.3-.3.4-.2.1-.2.2-.1.4s.3.4.1.6c-.1.2-.1.3 0 .5.2.3.3.6.5.8zm7.3 1.4c-.2.3-.5.4-.9.3-1.2-.3-2-1.1-2.4-2.3-.2-.4-.1-.8.3-1.1l.2-.2c.2-.2.4-.2.5.1 0 .3.1.3.4.4.2.1.6.4.6.6 0 .4.3.4.5.5.2.1.3.2.4.4.1.1.3.2.2.5-.1.1 0 .2.2.1.3-.2.4.1.5.2.1.2-.1.2-.1.3-.2 0-.3.1-.4.2zm9.8-5c0-.1.1-.2.2-.3.1-.1.1-.1 0-.2s-.1 0-.2 0l-.1.1-2.3 2.3c-.1.1-.1.2-.3.1-.1-.1-.2-.1-.2-.3 0-.2.7-.8.9-.8.3 0 .5-.2.5-.5 0-.1 0-.2.1-.2.2 0 .2-.1.3-.3.1-.2.2-.4.4-.6.1-.1.1-.2 0-.3-.1 0-.2 0-.1-.2.3-.3.6-.7.6-1.1 0 0 0-.1.1-.1.3 0 .3-.3.3-.5 0 0 0-.1.1-.1.4-.4.8-.8 1.2-1.3-.1.2.2.4 0 .5-.3.2-.5.5-.7.7l-.3.3c0 .1-.2.2 0 .4.1.1.3 0 .4 0 .4-.3.7-.6 1-1 0 .1.1.2.1.3 0 .1-.3.3 0 .4l-.1.1h-.2c-.3 0-.5.3-.4.6.1.2.2.2.3.2.1 0 .2 0 .3-.1.1-.2-.2-.1-.2-.2.1 0 .2 0 .3-.1.1-.1.2-.1.3 0 .1.1 0 .1-.1.2-.9.7-1.5 1.4-2.2 2zm1.8-4.6-.8.8c-.3.3-.3.3-.7 0-.5-.5-.8-1.2-1.4-1.6-.1-.1-.2-.2-.3-.2-.1 0-.2 0-.1-.1 0-.1.1-.1.2 0 .2.1.4.1.5-.1.1-.2.5-.3.5-.6 0-.1.2 0 .3-.2.1-.3.4-.4.6-.6.2-.1.2-.3.2-.4 0-.1.1-.2-.1-.3 0 0 0-.1.1-.1s.1.1.2.1c.6.6 1.2 1.3 1.9 1.9.2.2.2.3 0 .4-.5.4-.8.7-1.1 1zm-12.7 5.7c-.3-.6-.3-.6.1-1V23c.4-.6.8-1.1 1.1-1.7.1-.2.2-.3.4-.1l2.6 2.6.1.1c-.5 0-.7.2-.8.5 0 .2 0 .3.1.5s.3.1.6.2c-.2.1-.2.3-.4.3-.3 0-.5.2-.7.4-.3.4-.4.4-1 .2.1 0 .2-.1.2-.1.7-.4 1.1-1.2.8-2-.1-.2-.3-.4-.3-.7l-.1-.1c-.2 0-.3-.1-.4-.2-.4-.2-.9-.2-1.3-.1-.5.4-.8.7-1 1.3zm7-10.8L25 14.5c-.1.1-.1.1-.2.1-.2 0-.3 0-.5.2-.4.3-.8.5-1.2.9-.3.3-.8.5-1.3.8-.1 0-.2.1-.2 0-.1-.1 0-.2 0-.2.2-.4.6-.6.8-.9.1-.2.3-.2.4 0 0 .1.1.1.2.1.1-.1 0-.1-.1-.2s-.2-.2.1-.3c.1 0 .1-.1.1-.2.1-.2.1-.5.5-.4h.1v-.1c0-.1-.1-.1-.1-.2-.4-.5-.5-.3 0-.8h.1l-.3.3c-.1.1-.1.2-.1.3.1.1.2 0 .3 0 .2-.2.5-.3.6-.6.1-.3.5-.5.8-.7.1-.1.2-.2.3 0 .1.2.2.2.4.1.1-.1.1-.1.2 0s0 .1 0 .2c-.3 0-.2.3.3.4zm-9.7 15.8c.2 0 .6-.2.6-.3-.1-.3.1-.4.3-.6.1-.1.2-.1.3 0l.4.4c.1.1.2.1.3 0l.3-.3c.1-.1.1-.1.2 0s0 .1-.1.2l-.5.5c-.2.2-.2.3 0 .5.2.3.5.5.8.8.1.1.3.2.5.1.4-.1.9-.3 1.2-.7.1-.1.2-.3.4-.3-.7.8-1.4 1.6-2.3 2.1l-2.4-2.4zM15.4 28l-1.6-1.6c-.1-.1-.1-.1-.1-.2s.1-.1.2-.1c.3 0 .5-.2.5-.4 0-.1 0-.2.1-.2l.5-.5s.1-.1.2-.1.1.1.1.2.1.2.2.3l.7.7c.3.3.4.3.7 0 .1-.1.1-.2.2-.1s.1.3 0 .4l-.3.3c-.1.1-.1.1-.1.2.1.2-.1.2-.1.3l-.5.5c-.1.1-.1.1-.2.1-.5-.2-.5-.1-.5.2zm-3.2-.4c-.1 0-.1 0 0 0l-.6.6c-.1.1-.2.1-.4 0l-1.1-1.1c-.1-.1-.1-.2 0-.3l1.1-1.1c.1-.1.3-.1.5 0 .3.2.6.4.8.7.4.4.4.6 0 1-.1 0-.2.1-.3.2zm5.2 6.7-.5-.5c-.1-.1-.1-.2 0-.3l1.2-1.2c.1-.1.2-.1.2.1 0 .1.1.2.2.2.4 0 .5.3.7.5.1.1.3.4.2.6-.2.5-.7.9-1.1 1.3-.1.1-.2.1-.3 0-.2-.3-.4-.5-.6-.7zm4-2.5c0-.1 0-.1 0 0 0-.1 0-.1.1-.2.2-.2.3-.3.1-.6-.3-.4-.2-.4.2-.8l1.5-1.5c.2-.2.3-.2.4.1 0 .1.1.1.1.1.1 0 .2-.1.2-.2s-.1-.1-.1-.1c-.2 0-.2-.1-.1-.2l.6-.6c.3-.3.3.3.6.1 0 0 .1.1.1.2s-.1.1-.1.2l-1.2 1.2c-.9.8-1.7 1.5-2.4 2.3zm-8.3-6.1c.1 0 .2 0 .2-.1s0-.2.1-.3l1-1c.2-.2.4-.3.5-.5.5-.6 1.1-1.1 1.7-1.7.1-.1.2-.2.3-.1.1.1.3.2.3.4s-.4.5-.6.5c-.3 0-.4.1-.4.4 0 .2-.1.2-.1.3l-.4.4c-.1.1-.2.2-.4.2s-.4.1-.3.3c0 .5-.4.6-.6.9-.1.1-.2.1-.3.1-.3 0-.4.1-.4.4 0 .1 0 .1-.1.2s-.1 0-.2-.1l-.3-.3zm8.2 1.3-.3.3c-.1.1-.1.2-.3.1-.1-.1-.2-.2-.1-.3.1-.1 0-.2-.1-.2-.5 0-.6-.3-.9-.6-.1-.1.1-.3-.1-.4-.1-.1-.3 0-.5-.1-.3-.2-.5-.5-.7-.7-.1-.1-.2-.2-.1-.4.1-.1-.1-.2-.2-.1-.1 0-.2.1-.2 0-.1-.1 0-.2.1-.2l.6-.6c.1-.1.2-.1.2.1.1.4.3.7.4 1.1.2.7.6 1.1 1.2 1.2.3.1.5.2.8.3.7.1.7.1.2.5zm-.5 2.9 1.5-1.5c.2-.2.4-.2.7-.3.1 0 .2 0 .2.1s0 .2-.1.2l-1.8 1.8c-.1.1-.3.2-.4.4-.3.4-.7.8-1.1 1.1-.1.1-.3.2-.4.1-.2-.1-.1-.3 0-.4.3-.5.8-1 1.4-1.5zm6.3-10.5c-.3.3-.6.7-1 1-.1.1-.1 0-.2 0-.4-.3-.8-.6-1.1-1.1-.1-.1-.1-.2 0-.3l.8-.8c.1-.1.2-.1.3 0 .2.2.5.4.7.7v.1c0 .4.1.5.5.4zm-3.1-2-.5-.5c-.2-.2-.2-.3 0-.5s.4-.5.7-.7c.1-.1.2-.2.3-.1.1.1 0 .2-.1.3-.1.1-.2.1-.1.2s.2 0 .2-.1c.1-.2.3-.1.4 0l.3.3c.1.1.2.3 0 .4-.1.1-.2.2-.1.3.1.1.2 0 .3-.1.1-.1.2-.2.3-.1.1.1 0 .2-.1.3l-.7.7c-.1.1-.3.1-.4 0-.2-.1-.4-.2-.5-.4zM16.3 29c-.3-.3-.5-.5-.7-.8 0 0-.1-.1 0-.2 0-.1.1 0 .1 0 .2 0 .4-.2.4-.4 0-.1 0-.2.1-.2l.8-.8c.1-.1.2-.1.3 0 .1.2.3.5.5.7.1.1.1.1 0 .2-.3.3-.5.7-.9.8-.3.2-.5.3-.6.7zm11.3-8.3-.5-.5c-.1-.1-.2-.2-.1-.3l.9-.9h.1c.1 0 0 .1 0 .2l-.1.1c0 .1-.1.1 0 .2s.1 0 .2 0c.3-.3.4 0 .6.2.2.2.3.3.1.6-.1 0-.1.1 0 .2s.1 0 .2 0c0 0 .1 0 .1-.1.1 0 .1-.1.2 0s0 .2-.1.2l-.8.8c-.1.1-.2.1-.4 0-.1-.4-.2-.5-.4-.7zm-9.2-.2.7-.7c.1-.1.1-.1.2 0s.1.2 0 .2c0 .1-.1.1-.1.2-.4.7-.9 1.5-1.3 2.2-.1.2-.1.3-.1.5.1.2.2.5.3.7 0 .1.1.1 0 .2-.1 0-.1 0-.2-.1-.4-.3-.7-.6-.5-1.2.1-.1.1-.3.1-.4.2-.7.4-1.3.9-1.6zm9.1-8.5c-.2.2-.4.4-.6.7-.2.2-.3.2-.5 0-.3-.3-.5-.8-.9-1-.1-.1-.1-.2 0-.3l.5-.5c.1-.1.2-.1.2 0s.1.2.3.2c.2 0 .6.4.7.6-.1.2.1.3.3.3zm5.5 5.5c0 .2.1.4.3.4.2 0 .7.4.6.5 0 .3.1.4.4.4l-.6.6c-.1.1-.2.3-.3.2-.1-.1-.2-.2-.1-.4 0-.2-.1-.4-.3-.4-.3.1-.5-.1-.6-.3-.1-.1-.1-.2 0-.4l.6-.6zm-11.6 2.3-.4.4c-.6.6-.4.6-1.1 0-.2-.2-.2-.4 0-.5.6-.8 1.6-1.1 2.5-1.5.1 0 .2 0 .2.1s.1.1-.1.2c-.2 0-.4.2-.3.4.1.3-.1.3-.2.4-.2.2-.4.4-.6.5zm7.6-3.2-.4.4c-.1.1-.2.1-.3 0-.1-.1-.1-.2 0-.3l.2-.2c1-1 2-2 3.1-3 .1-.1.1-.2.3-.1.1.1 0 .2-.1.3-1 1-2 1.9-2.8 2.9zm-4.1 8.6c-.4-.4-.4-.4 0-.7l1.1-1.1c.1-.1.2-.2.4-.2s.3-.2.3-.4.1-.1.1-.1c.2.1.1.2.1.3-.3.8-.5 1.6-1.2 2.2-.4.3-.5.3-.8 0zm2.6-14.6.4.4c.3.3.3.3 0 .7-.1.1-.3.2-.4 0l-.1-.1c-.3-.2-.6-.5-.8-.9-.1-.2 0-.4.2-.6.2-.1.3 0 .4.1.1.1.2.2.3.4zm-12.8 19L13.1 28c-.3-.3.1-.4.2-.5.1-.2.3-.1.4 0 .1.2.3.4.4.5.2.2.5.4.7.7.1.1.2.2.1.3-.2.2-.2.4-.2.6zM33.8 18c-.2-.1-.3-.4-.5-.6-.1-.1-.1-.1 0-.2l.2-.2c.2-.2.3-.2.4 0 .3.3.5.6.8.8.3.3.3.3 0 .6-.1.1-.3.1-.4 0-.2-.1-.4-.2-.5-.4zm-13.1 6.4-.3.3c-.1.1-.2.3-.4.3-.2-.1-.2-.3-.2-.5s0-.4.2-.5c.1 0 .2-.1.2-.2.1-.3.4-.3.6-.3.2 0 .3.1.4.2.1.1-.1.2-.1.3-.1.2-.3.3-.4.4zm.4 1c-.2.1-.5.1-.8 0-.2-.1-.2-.2-.1-.3l.8-.8c.2-.2.4-.1.6 0 .1.1.1.5-.1.6-.1.1-.2.3-.4.5zm-2.5 6.8c.2.1.3.2.5.2.2.1.3.2.5 0 .1-.1.2 0 .2 0 .5.3.5.3.9-.1h.1l-.9.9s-.1.1-.2 0c-.2-.2-.5-.2-.7-.4-.1-.1-.3-.3-.4-.6zm4.8-6.5c.2-.1.4-.3.6-.4.1-.1.2-.1.3.1.3.4.3.4-.1.7-.1 0-.1.1-.2.1-.4.2-.5.1-.7-.2.1-.1 0-.2.1-.3zM19 21.6l-.1-.1c.2-.1.1-.4.2-.4.1-.1.2-.2.2-.3 0-.1.1-.3.2-.2.4.1.5.4.3.8 0 .1-.1.1-.1.2-.3.3-.4.3-.7 0zm10.6-5.5.8-.8c.1-.1.1-.1.2 0 0 0 .1.1 0 .1-.2.2-.2.4-.4.5-.1.1-.4.2-.4.3-.2.3-.4.6-.8.7-.1 0-.1.2-.2.1s0-.2.1-.3c.2-.1.5-.3.7-.6zM25 19.9l-.1-.1-.8-.8c-.1-.1-.1-.2 0-.3.1-.1.2-.1.2 0 .1.2.3.3.4.5.3.6.8 1.1 1.4 1.4.1 0 .2.1.2.2s-.1.1-.1.1c-.1.1-.2 0-.3-.1l-.9-.9zm3-2.2-.2.2c-.1.1-.1.1-.2 0-.4-.2-.4-.4-.1-.7l.2-.2c.1-.2.3-.2.4 0 .2.4.2.4-.1.7zm-9.7 4.8c-.1-.3.1-.5.2-.7.1-.2.3-.2.6.1.2.1.1.4-.2.7-.2.3-.3-.1-.6-.1zm3.3-4.1c-.7.2-1.2.7-1.7 1.1-.1.1-.2.2-.3 0-.1-.1 0-.2.1-.3.4-.5.9-.9 1.7-.9 0 .1.1.1.2.1zM17.9 31l.4.4c.1.1.1.2 0 .3-.1.1-.2.1-.3 0l-.8-.8c-.1-.1-.1-.2 0-.3.1-.1.2-.1.3 0 .1.1.3.2.4.4zm5.3-4.2c-.1.1-.3.2-.3.1-.1-.2-.3-.3-.3-.5s.2-.2.3-.3c0-.1.1-.1.1-.1.1-.1.2 0 .3.1.3.3.3.4-.1.6v.1zm9.4-13.7c-.2.1-.3.2-.6.3-.1 0-.3-.1-.2-.3.1-.2.1-.3.2-.5s.3-.2.5-.1c.3.2.3.4.1.6zM15.7 30.6l-.2-.2c-.1-.1-.2-.2-.1-.3.1-.1.2-.3.4-.2.2.1.4.3.5.5.1.2-.1.3-.2.4-.1.1-.2 0-.3-.1l-.1-.1zm10.9-8.2c-1.3-1.2-2.6-2.4-3.8-3.8 1.3 1.3 2.6 2.5 3.8 3.8zm.1-4.3c.2-.2.3-.3.5 0 .2.2.2.3 0 .5s-.3.2-.5 0c-.3-.2-.3-.4 0-.5zM19.3 32c-2.1-2.1-4.2-4.1-6.2-6.2 2 2.1 4.1 4.1 6.2 6.2zm-4.7-8.2c.1-.4 1.8-2 2-2l-2 2zM21 17c-1.9 1.9-3.8 3.9-5.7 5.8 1.9-2 3.8-3.9 5.7-5.8zm11.8 2.7c-.2.1-.3.3-.5.1-.2-.1-.1-.3.1-.5.1-.1.2-.2.3-.2.1-.1.2-.1.3 0 .1.1.1.2 0 .3-.1.1-.1.2-.2.3zM27.4 17c-.8-.7-1.6-1.5-2.3-2.3.8.8 1.5 1.6 2.3 2.3zm-1.1 3.5c.3.6.6 1.1.8 1.7H27c-.1-.4-.4-.7-.7-.9-.1-.1-.1-.2-.1-.3.2-.2.2-.3.1-.5zm6.2.1c0-.1.1-.2.1-.3-.1-.3 0-.4.2-.5l.1-.1c.1-.1.1-.2.3-.1.1.1.1.2 0 .3-.2.3-.5.5-.7.7zm-2.2-.7s0 .1 0 0l-2.1-2.1 2.1 2.1zm-9 10.6c-.1 0-.1-.1 0 0 .6-.7 1.3-1.4 2-2.1-.7.7-1.4 1.4-2 2.1zm-7.6-5.9.6-.6s.1-.1.1 0v.1l-1.1 1.1s-.1.1-.1 0c-.1-.1 0-.1 0-.1l.5-.5zm6.5 5.2h-.1c-.4-.3-.8-.7-1.2-1.1v-.1h.1l1.2 1.2zm2.9-5.4c.1-.1.2-.1.3 0 .1.1.1.2 0 .3-.1.1-.2.1-.3 0-.1-.1-.1-.2 0-.3z"/><path d="M32.5 17.4v-.1c.1-.3 0-.6-.3-.7-.2-.1-.3.1-.5.1v.1c.1.1-.1.2 0 .3.2 0 .3.3.8.3-.1 0-.1 0 0 0z"/><path d="M31.6 16.5c-.1 0-.2.1-.3.2l-1.1 1.1c-.2.2-.2.4 0 .6l.4.4c.2.2.3.2.5 0l1.2-1.2c.1-.1.1-.2.1-.3h-.1c-.3.3-.6.6-.9 1-.6.6-.4.6-1.2-.1-.1-.1-.1-.3 0-.4.6-.3 1-.8 1.4-1.3 0 .1 0 .1 0 0zM26.2 14.2c.4-.6 1-1 1.5-1.5 0 .3.4.8.9.7-.6.5-1 1.1-1.6 1.5.1.1.2 0 .3-.1l1.1-1.1c.3-.3.2-.8 0-1-.2-.2-.7-.3-.9 0l-1.2 1.2c-.1 0-.2.1-.1.3zM20.6 19.5l-.2.2c-.1.1-.3.2-.1.4.1.2.3.2.5.1.3-.1.4-.4.6-.6.1-.2 0-.3-.1-.4-.1-.1-.2 0-.3.1-.2 0-.3.1-.4.2zm.1 0 .2-.2c.1-.1.1-.1.2 0s.1.2 0 .3l-.5.5c-.1.1-.2.1-.2 0-.1-.1-.1-.2 0-.2.1-.2.2-.3.3-.4zM25.7 24.8c.1-.1.2-.2.3-.2.1-.1.3-.2.2-.4-.1-.2-.3-.3-.5-.1-.3.1-.5.3-.6.6-.1.2 0 .3.1.4.2.1.3 0 .4-.1 0-.2 0-.2.1-.2zm0-.2-.3.3c-.1.1-.1.1-.2 0s-.1-.1 0-.2l.6-.6c.1-.1.2-.1.2 0 .1.1.1.1 0 .2l-.3.3z"/><path d="M30.8 18.3c.1.1.2.2.4 0s.3-.5.1-.6c-.2-.1-.4-.1-.6.2-.2.2-.1.3.1.4z"/><path fill="none" d="M0 0h45v45H0z"/><path fill="none" d="M4.5 4.5h36V18h-36z"/><path fill="#010101" d="M7.3 11.6 5.6 4.9h1.5c.7 3.1.9 4.4 1 5.2.3-1.3.9-3.6 1.3-5.2h1.3c.3 1.3 1 3.9 1.2 5.1.2-1.5.9-4.1 1.1-5.1h1.4l-1.8 6.7h-1.5c-.4-1.5-.9-3.6-1.2-4.8-.1 1.2-.8 3.4-1.1 4.8H7.3zM16.8 8.9v2.7h-1.4V4.9h2.9c1.5 0 2.2.8 2.2 1.8 0 .9-.5 1.4-1 1.6.3.1.8.5.8 1.7v.3c0 .5 0 1 .1 1.3H19V10c0-.7-.2-1.1-1.3-1.1h-.9zm0-1.1H18c.8 0 1.1-.3 1.1-.9 0-.6-.4-.9-1.1-.9h-1.2v1.8zM26.5 8.7h-3.2v1.7h3.5l-.2 1.2h-4.8V4.9h4.8v1.2h-3.3v1.4h3.2v1.2zM33.6 9.5c-.3 1.2-1.2 2.2-2.9 2.2-2.1 0-3.1-1.5-3.1-3.4 0-1.8 1-3.5 3.2-3.5 1.8 0 2.6 1 2.8 2.2h-1.4c-.1-.5-.5-1-1.4-1-1.2 0-1.7 1.1-1.7 2.3 0 1.1.4 2.3 1.7 2.3.9 0 1.2-.6 1.4-1h1.4zM34.7 4.9h1.4v3c.4-.5 1.8-2 2.7-3h1.7l-2.7 2.8 2.8 3.9h-1.7l-2.1-3-.7.7v2.3h-1.4V4.9z"/><path fill="none" d="M27 27h13.5v13.5H27z"/><path fill="#010101" d="M32.2 38.8c.1.6.5.8 1.2.8.6 0 .9-.3.9-.7 0-.5-.3-.7-1.2-.9-1.5-.4-1.9-.9-1.9-1.7 0-1 .7-1.6 2.1-1.6 1.5 0 2.1.8 2.2 1.6h-1.2c-.1-.3-.2-.7-1-.7-.5 0-.8.2-.8.6 0 .4.2.5 1.1.8 1.6.4 2 1 2 1.8 0 1-.8 1.7-2.2 1.7-1.4 0-2.2-.7-2.3-1.7h1.1zM38.9 36.4c-.1-.3-.2-.5-.7-.5-.7 0-.9.7-.9 1.4.2-.3.6-.5 1.2-.5 1 0 1.7.7 1.7 1.8s-.7 2-2 2c-1.5 0-2.1-1.2-2.1-2.7 0-1.4.5-2.8 2.1-2.8 1.2 0 1.7.7 1.8 1.4h-1.1zm.1 2.3c0-.5-.2-1-.8-1-.5 0-.8.3-.8.9 0 .4.2 1 .8 1 .6 0 .8-.4.8-.9zM12.3 29.2h-.2c-.8 0-1.3-.2-1.8-.7-.2-.2-.4-.6-.3-.9V27.3h-.1c-.3 0-.5-.2-.6-.3-.6-.5-.9-1.1-1-2v-1c0-.1 0-.2.1-.4 0-.1 0-.1.1-.2.1-.5.3-.9.6-1.2.1-.1.3-.2.4-.3 0-.1-.1-.1-.1-.2-.1-.1-.2-.3-.2-.4-.3-.6-.3-1.2-.1-1.7l.3-.3c.1-.1.2-.1.4-.2h.3l.1.1c0-.2 0-.3.1-.5.1-.5.3-.9.5-1.4 0 .1-.1.2-.1.2-.1.2-.2.3-.3.3-.1 0-.2 0-.3-.2-.3-.3-.4-.8-.5-1.3-.1-.5 0-.9.1-1.4.2-.6.5-.9 1-.9h.2c0-.1-.1-.1-.1-.2-.1-.1-.1-.3-.2-.4-.2-.6-.2-1.2-.2-1.7v-.3c0-.5.1-1 .2-1.5.1-.6.5-.9.9-1 .2 0 .4 0 .6.1.4.1.6.3.8.7.2.4.3.8.3 1.2 0 .1 0 .3-.1.4h.3c.3.1.6.2.9.4l.2.2c0-.1-.1-.1-.1-.2l-.1-.1c-.1-.1-.2-.2-.1-.4s.2-.3.4-.3h.1c.3 0 .6 0 .9.1 0-.3 0-.5.1-.8.1-.5.4-.9.6-1.3.1-.2.4-.3.5-.4.3-.1.6-.1.8-.1.5 0 1.1.3 1.2.9v.5l.2-.1v.2c0 .2-.1.3-.2.4-.1.1-.2.1-.3.1h-.1v.2c.6 0 .6.4.6.5v1c-.1.6-.4.9-.8 1.1-.1.1-.2.1-.3.2h-.1c.2.3.2.6.2 1v.3c0 .2-.1.4-.1.6 0 .1-.1.2-.1.2-.1.2-.2.2-.3.2-.2 0-.2-.2-.2-.3 0-.1-.1-.2-.1-.3v.1c.1.5.1.9-.1 1.5-.1.4-.4.7-.7 1-.2.1-.5.2-.7.2-.1 0-.2 0-.2-.1-.1-.1-.2-.2-.1-.4v-.6c-.1.3-.2.5-.3.8 0 0 0 .1-.1.1h.2c.5.2.6.6.7 1 .1.3.1.6.1.9v.2c0 .5-.1 1-.2 1.5 0 .1-.1.2-.1.3 0 0 0 .1-.1.1 0 .1-.1.1-.1.1h-.2l-.1-.1v.1c-.1.3-.2.6-.4.9-.1.1-.1.2-.1.2v.1c.1-.1.2-.1.3-.1.1 0 .2.1.2.2.1.1.1.3.1.4 0 .6-.1 1.1-.3 1.5-.2.5-.6.8-1.2.8-.3 0-.6-.1-.9-.3-.1-.1-.2-.2-.2-.4V24.8c-.1.3-.2.5-.3.8-.1.2-.3.3-.5.4h.1c.1 0 .1 0 .2-.1 0-.1.2-.3.4-.2.2 0 .3.3.4.5v.1c.2.4.1.8-.1 1.1-.1.3-.3.5-.5.6-.3.3-.6.4-.9.5.1 0 .3.1.4.1h.2c.1 0 .2 0 .3.3l-.1.3zm-1.9-1.6c0 .3.1.6.2.8l.2.2h.4c.3 0 .7-.2 1.1-.5.2-.1.3-.3.4-.5.1-.3.2-.6.1-.9v-.1c-.1-.2-.1-.2-.1-.3l-.1.1c-.1.2-.3.2-.4.2-.2 0-.3-.1-.5-.1 0 0-.1 0-.1-.1l-.6-.3.3-.2c.1-.1.2-.1.2-.1.2 0 .4-.2.5-.4.3-.4.4-1 .4-1.5 0-.3 0-.7-.1-1l-.1-.5.3.3c.2.2.3.4.4.5.2.2.2.5.1.8-.1.3-.1.6-.2.9V25.2c.2.1.5.2.7.2.4 0 .7-.2.9-.6.2-.4.3-.9.3-1.4 0-.1 0-.2-.1-.3-.1.1-.1.2-.2.2-.1.1-.3 0-.3-.1-.1-.1-.1-.2 0-.4 0-.1.1-.2.1-.2.1-.1.1-.2.2-.3.2-.2.3-.5.3-.8.1-.4.1-.9.1-1.3v-.8l.3.4c.1.1.1.3.2.4.1.2.1.5.1.7V21.2c0-.1.1-.1.1-.2.1-.6.1-1.1.2-1.5v-1c-.1-.4-.3-.7-.5-.8h-.1l.1.1-.3.2-.1-.1c-.1-.1-.1-.1-.2-.1-.1-.1-.3-.1-.5-.1-.1 0-.3 0-.4-.1l-.3-.1.3-.1c.3-.2.6-.2.8-.2h.4c.2-.5.3-.9.3-1.3 0 0 0-.2.1-.2l.1-.1.1.1c.1.1.1.2.1.4v.3c0 .3.1.5.1.8v.1c.2 0 .4-.1.5-.2.3-.2.5-.4.6-.8.2-.5.2-.9.1-1.3 0-.2-.1-.3-.1-.5v-.1H17.1c.3.1.4.4.5.7V15c.1-.2.1-.4.1-.6v-.3c.1-.3 0-.6-.1-.8 0 0-.1-.1 0-.3 0-.1.1-.2.2-.2h.1c.1 0 .2-.1.2-.1.3-.2.6-.5.6-.9 0-.3.1-.6 0-.9 0-.2-.1-.4-.2-.4-.1-.1-.2-.2-.2-.3-.1-.3-.2-.4-.3-.6-.1-.1-.2-.1-.2-.2l-.1-.1.1-.1c.1 0 .2.1.2.1.2 0 .3.1.4.2v-.1c0-.2-.1-.4-.3-.5H18v-.2c-.1 0-.2-.1-.3-.1-.2 0-.4 0-.7.1l-.1.1c-.2.1-.3.2-.4.3-.2.3-.4.7-.6 1.1-.1.2-.1.4-.1.7 0 .1 0 .2-.1.3 0 0-.1.1-.3 0-.3-.1-.6-.1-.9-.1h-.1s-.1 0-.1.1c0 0 0 .1.1.1l.1.1c.1.1.2.1.2.3.2.4.2.8.3 1.2v.7l-.2-.6c0-.1 0-.1-.1-.2-.1-.4-.3-.7-.6-.9-.2-.2-.5-.3-.8-.3-.2 0-.3 0-.5.1-.1.1-.1.2-.2.3 0 0 0 .1-.1.2l-.3-.1c.1-.3.3-.6.5-.8.1-.1.1-.2.1-.3 0-.4-.1-.8-.3-1-.2-.3-.4-.4-.7-.5-.2-.1-.3-.1-.5-.1-.1-.1-.3.2-.4.6-.1.5-.1.9-.2 1.4v.3c0 .5 0 1 .2 1.6 0 .1.1.2.1.4 0 .1.1.2.1.2 0 .1.1.2 0 .3-.1.1-.2.1-.2.1H10.6c-.3 0-.6.3-.7.7-.1.4-.2.8-.1 1.2.1.5.2.9.4 1.2l.1.1v-.1c.2-.5.5-.9 1-1.1 0 0 .2-.1.3 0l.1.1-.1.1c0 .1-.1.1-.1.2-.1.1-.2.2-.2.3-.3.5-.6 1.1-.7 1.8-.1.3-.1.6-.1.9 0 .2.1.4.1.6l.1.3h-.2c-.1 0-.2-.1-.2-.2-.2-.3-.3-.5-.3-.9v-.1h-.1c-.1 0-.2.1-.3.1l-.2.2c-.2.5-.1.9.1 1.5.1.1.1.2.2.4 0 .1.1.1.1.2s.1.2.1.3c0 .1-.1.2-.2.2h-.1c-.1.1-.2.1-.3.2-.3.3-.4.6-.5 1.1 0 .1 0 .2-.1.2 0 .1-.1.2-.1.3v1c0 .8.3 1.3.8 1.8.3 0 .4.1.6.1.3.1.4.2.4.6zm0 0zm2.4-4.1v.9c0-.1.1-.2.1-.3 0-.2 0-.4-.1-.6zM10 19.4zm4.7-1.6zm3.1-4.4zm0-.1zm-2.1-2.4zm2.7-1.1.1.1-.1-.1c.1.1.1 0 0 0 .1 0 .1 0 0 0z"/><path fill="#010101" d="M14 30c-.4 0-.8-.2-1-.5v-.1c-.2-.3-.3-.3-.5-.2H12.2c-.1-.1-.3-.1-.4-.1-.3 0-.6-.2-.9-.3-.2-.1-.2-.2-.2-.3 0-.1.1-.1.1-.1H11.1c.1 0 .2-.1.3-.1.2 0 .4-.1.5-.2.3-.2.5-.3.6-.6.1-.2.2-.5.1-.8v-.4.1c-.1.2-.3.3-.5.3s-.4-.1-.6-.2c0 0-.1 0-.1-.1-.3-.2-.4-.3-.4-.4 0-.1.1-.2.3-.2.3.1.5-.1.7-.4.4-.6.4-1.3.3-2 0-.2 0-.3-.1-.5s0-.2.1-.3c0 0 .2-.1.3.1.1.2.3.3.4.5.3.4.3.7.1 1.2-.1.2-.1.4-.1.6 0 .1 0 .3-.1.4h.1c.1 0 .2.1.2.1h.4c.4 0 .6-.2.8-.6.2-.5.3-1 .2-1.5-.1.1-.3.2-.5.2 0 0-.2 0-.3-.1-.1-.1 0-.3 0-.3.1-.2.2-.3.3-.4.1-.1.1-.2.2-.3.1-.3.3-.6.4-1.1 0-.5.1-1 0-1.4 0-.2.1-.3.2-.3s.2 0 .3.2c.2.3.2.6.2.8.1-.4.1-.9.1-1.3s0-.7-.1-1c-.1-.2-.2-.3-.3-.3 0 .1 0 .1.1.2V18.6H15c-.1 0-.2 0-.2-.1-.2-.3-.4-.4-.8-.4h-.5c-.1 0-.2-.1-.3-.2 0-.1 0-.2.1-.3.3-.2.6-.3 1-.2h.2s.1-.2.1-.3c.1-.4.3-.8.2-1.3 0-.2.1-.2.1-.2s.2 0 .3.1c.1.1.2.4.2.6v.3c0 .3.1.5 0 .8.3-.1.5-.1.6-.3.2-.3.4-.6.5-1 .1-.4 0-.8-.1-1.1 0-.1 0-.1-.1-.1-.1-.1-.1-.2-.1-.3 0-.1.1-.2.3-.1.3.1.6.3.7.6.1-.3.1-.6.1-.9 0-.3-.1-.5-.2-.7-.1-.1-.1-.2-.1-.2 0-.1.1-.1.2-.1.2 0 .4-.1.5-.2.4-.3.6-.6.6-1v-.8c0-.2-.1-.2-.1-.2H18c-.1-.1-.1-.2-.1-.2 0-.4-.2-.6-.6-.8l-.2-.2c0-.1 0-.2.2-.3.2-.1.5-.1.7.1 0-.3-.2-.4-.4-.5h-.1c-.1-.1-.1-.2-.1-.3 0 0 .1-.2.2-.2.2 0 .4.1.6.3.2.3.3.7.3 1v.1c.1-.1.3-.2.6-.1.3 0 .6.2.8.5l.1.1-.1.1c.4.7.5 1.4.5 2.1 0 .2-.1.4-.3.6.2-.3.1-.3.1-.3h-.1v.6c0 .2 0 .3-.1.5s-.2.2-.2.2c-.1 0-.2 0-.3-.1-.1-.1-.2-.2-.3-.2.1.1.2.2.2.3.1.1.1.2.1.3 0-.1.1-.1.1-.1.1-.1.2 0 .3 0 .4.1.7.5.6 1.1 0 .3-.1.6-.1.9 0 .2 0 .3-.1.5-.1.4-.2.7-.4 1.1-.2.3-.4.6-.7.8.1 0 .3.1.3.4v.6c-.1.5-.4 1-.7 1.3-.1.1-.2.1-.3.1-.1.3-.2.5-.2.8 0 .2-.1.4-.2.6-.1.1-.1.2-.1.3-.1.1-.2.3-.2.4-.1.1-.2.1-.3.1-.1 0-.2-.1-.2-.3 0-.1 0-.1-.1-.2.1.4.1.7 0 1.1v.1c.1 0 .3 0 .4.1.4.3.6.7.7 1.3 0 .9-.3 1.7-1 2.1-.5.3-1.1.3-1.7-.1-.1-.1-.2-.1-.4-.2 0 .1.1.3.1.4 0 .9-.1 1.4-.6 1.9-.2.3-.4.3-.5.3H14zm-.8-.7c.3.3.5.5.9.4.1 0 .2 0 .2-.1 0 0 0-.1.1-.1.4-.3.5-.9.5-1.6 0-.2-.1-.4-.1-.6v-.1l-.1-.2h.2c.1 0 .2.1.3.1.2.2.3.3.5.3.5.3 1 .3 1.4.1.5-.3.9-1 .8-1.8 0-.5-.2-.8-.5-1.1-.1 0-.1-.1-.1-.1s0 .1-.1.1c-.2.4-.4.7-.8.8l-.1-.3c.1 0 .2-.1.2-.2.1-.2.2-.4.2-.7 0-.1 0-.2.1-.3.1-.3.1-.6 0-1l-.3-.6c0-.1-.1-.1-.1-.2 0 0-.1-.2 0-.3.1-.1.2-.1.3 0 .2.2.4.4.5.7 0 .1 0 .1.1.2 0 .1.1.2.1.3.1-.1.1-.2.2-.3 0-.1.1-.3.2-.4.1-.2.1-.4.2-.6.1-.3.1-.6.2-.9.1-.1 0-.3 0-.5v-.4c0-.1 0-.2-.1-.3l.3-.2c.1.1.1.2.1.4V20.5c.3-.3.5-.6.6-1.1 0-.2.1-.4 0-.5v-.1c-.2 0-.4 0-.6-.1l-.6-.2.6-.1c.4-.1.7-.4 1-.9.2-.3.3-.6.3-1 0-.2 0-.3.1-.5 0-.3.1-.6.1-.9 0-.4-.1-.6-.4-.7V15.1c0 .2 0 .3-.1.5l-.4.5.1-.6V14.9c0-.3-.1-.6-.3-.9-.1-.3-.3-.5-.6-.6l-.5-.2v.4c0 .3-.1.6-.1.9 0 .1 0 .2-.1.3 0 .1 0 .1-.1.1-.1.1-.2.2-.2.1-.1 0-.2-.1-.2-.2 0-.2-.2-.4-.3-.5.2.4.2.9.1 1.3-.1.5-.3.9-.5 1.2-.2.2-.5.3-.8.4-.2 0-.2 0-.3-.1-.1-.1-.1-.2-.1-.3v-1c0 .3-.1.6-.2.9-.2.5-.2.6-.7.5-.2 0-.4 0-.6.1h.2c.3 0 .5 0 .7.2 0-.1.1-.2.3-.1.3.1.5.3.7.6.1.3.2.7.2 1.1 0 .6-.1 1.2-.2 1.8 0 .1 0 .2-.1.2 0 .1 0 .2-.1.2h-.2c-.2-.1-.1-.3-.1-.4V20.1v.9c0 .5-.2.9-.4 1.2-.1.1-.1.2-.2.3-.1.1-.2.3-.2.4.1 0 .2-.1.3-.1.1-.2.3-.2.3-.1.1.1.2.2.2.3.1.6 0 1.1-.2 1.7-.2.5-.6.7-1 .8h-.4c-.2 0-.3-.1-.4-.1H13c-.1-.1-.2-.2-.2-.4v-.4c0-.2 0-.4.1-.6.1-.4.1-.6-.1-.9 0-.1-.1-.1-.1-.2v.2c.1.7 0 1.5-.4 2.2-.2.3-.5.5-.8.6.1.1.2.1.4.1.1 0 .2 0 .3-.1.1-.2.2-.2.3-.2.2 0 .3.2.3.4V26.4c.1.4 0 .7-.2 1-.2.4-.5.6-.7.7-.2.1-.4.2-.6.2-.1 0-.2 0-.2.1.2.1.3.1.5.2.2 0 .3 0 .5.1h.2c.3.2.6.2.9.6zm2.4-7.7zm.1-4.2zm2.9-3.8h.3c.2 0 .5.1.7.3 0-.1.1-.3.1-.4v-.1c.1-.5.1-.9-.1-1.3l-.2-.7.6.6c.2.2.3.3.3.6.1-.1.2-.2.2-.4.1-.7-.1-1.4-.6-2.1l.1-.1c-.1-.1-.3-.2-.5-.2h-.3c0 .1-.1.1-.2.2l-.1.1c-.1.1-.2.1-.3 0-.1-.1-.1-.2-.1-.2V9.6c-.1.1-.2 0-.3-.1-.1-.1-.2-.1-.3-.1.3.2.6.5.6 1 .3 0 .3.3.3.4V11.7c0 .7-.4 1.1-.7 1.3-.1.1-.3.2-.5.2.1.1.2.2.2.4h.8zm1.7-.9zm-.2-2.6z"/><path fill="#010101" d="m10.2 28.5-.2-.9c0-.1 0-.2-.1-.2h-.2c-.3-.1-.7-.2-1-.4-.6-.3-.9-.8-1.1-1.4-.1-.2-.1-.5-.1-.7v-.1c0-.3.1-.7.2-1v-.1c0-.1 0-.2.1-.2.1-.3.1-.6.3-.8.1-.1.1-.3.2-.4-.5-.2-.9-.7-1.1-1.5-.1-.4-.2-.9-.2-1.4v-.7c.1-.7.2-1.2.5-1.6.3-.5.7-.7 1.2-.6h.5c-.2-.6-.2-1-.2-1.3 0-.4 0-.8.1-1.1.1-.3.3-.6.5-.7.2-.1.4-.1.6-.1 0-.1 0-.2-.1-.3-.1-.3-.1-.6-.2-1 0-.4-.1-.9 0-1.4 0-.6.2-1.1.4-1.5.1-.3.3-.5.5-.7.2-.2.4-.4.5-.6l.1-.1c.5-.5 1.1-.6 1.6-.2.4.3.6.6.6 1.1V9c.1-.2.2-.3.4-.3s.4-.1.7 0c.4.1.6.4.7.8.1-.1.1-.2.2-.3.4-.5.8-.8 1.3-1l.4-.2-.2.4c-.1.1-.2.2-.3.2-.1 0-.1.1-.2.1-.2.7-.6 1.2-.6 1.9v.4s0 .2-.1.3c0 0-.1.1-.3 0-.3-.1-.6-.1-.9-.1h-.3v.1l.1.1c.1.1.2.1.2.2.2.5.3 1 .3 1.6 0 .2-.1.2-.2.2s-.2-.1-.2-.2 0-.2-.1-.3c-.2-.6-.4-.9-.8-1.1-.1 0-.1 0-.2-.1-.1 0-.2-.1-.3-.1-.2 0-.4.1-.5.3 0 0 0 .1-.1.1 0 .1-.1.1-.1.2s-.1.1-.1.2h-.2c-.1 0-.2-.1-.1-.2 0-.2.1-.3.1-.4.1-.2.2-.5.4-.7.1-.1.1-.2.1-.4v-.1c0-.5-.3-.9-.7-1.1-.3-.1-.6-.1-.8 0-.2.1-.3.3-.3.6-.1.3-.1.7-.1 1.1v1.3c.1.6.2 1.1.5 1.5.1.1.1.2.1.3 0 .1-.2.1-.2.2H11c-.1 0-.2 0-.3.1-.2 0-.3.2-.4.3-.3.5-.4 1.1-.2 2 .1.3.2.5.3.7.2-.4.4-.8.8-1 .2-.1.4-.2.6-.2.2 0 .3.1.3.2s0 .2-.1.3c-.2.2-.4.4-.6.8-.3.5-.5 1.1-.6 1.8-.1.5 0 .9.2 1.2 0 0 .1.2 0 .3 0 .1-.1.1-.1.1-.1 0-.2 0-.2-.1-.3-.2-.5-.6-.6-1.2-.1 0-.2.1-.3.2-.1.1-.2.3-.2.5 0 .5.1.9.4 1.3l.1.1c.1.1.1.2.2.2s.1.1.1.3c0 .1-.1.2-.2.2-.4 0-.6.3-.8.8-.2.5-.3 1-.3 1.4 0 .4 0 .8.1 1.2.1.4.3.7.7 1-.1-.1.1 0 .3 0 .2 0 .2.2.2.3V27.6l-.2.9zM8.5 16.6c-.3 0-.5.2-.8.5-.3.4-.4.8-.5 1.5v.7c0 .5.1 1 .2 1.4.2.7.5 1.1 1 1.3 0 0 .2.1.2.2s-.1.2-.1.3c-.1.1-.2.2-.2.3-.1.2-.2.5-.3.7 0 .1 0 .2-.1.2v.1c-.1.3-.1.6-.1.9v.1c0 .2 0 .4.1.6.1.6.4 1 .9 1.3.2.1.4.2.5.2-.4-.3-.6-.7-.8-1.1-.1-.4-.1-.9-.1-1.3 0-.5.1-1 .3-1.6.2-.4.4-.9.9-1-.1-.1-.1-.1-.1-.2 0 0 0-.1-.1-.1-.3-.4-.5-.9-.5-1.4 0-.4.1-.6.3-.8.1-.1.3-.2.4-.2 0 0 .2-.1.3 0 .1.1.1.2.1.3 0 .2 0 .4.1.5 0-.3-.1-.5 0-.9.1-.8.3-1.4.6-1.9.2-.3.3-.5.4-.6l-.1.1c-.3.2-.5.5-.7.9 0 .1-.1.2-.2.3-.1 0-.3-.1-.3-.2-.2-.2-.3-.5-.4-.8-.2-.9-.1-1.6.2-2.2.1-.2.4-.4.6-.5.1 0 .2 0 .3-.1h.2c-.3-.5-.4-1-.5-1.6v-1.3c0-.4 0-.8.2-1.2.1-.3.2-.6.5-.8.3-.2.8-.2 1.2 0 .5.3.8.8.9 1.4v.1c0 .2 0 .4-.1.6 0 0-.1.1-.1.2.1-.1.3-.1.5-.1.1 0 .3.1.4.1 0 0 .1 0 .1.1.4.1.7.4.9.9 0-.2-.1-.4-.2-.6 0-.1-.1-.1-.1-.1-.1 0-.1-.1-.2-.2 0-.1-.1-.1-.1-.3 0-.2.2-.3.3-.2h.2c.3 0 .6 0 .9.1v-.3c.1-.6.3-1.1.5-1.5-.1.1-.3.2-.4.4-.1.1-.2.3-.3.4-.1.2-.2.2-.3.2-.1 0-.2-.1-.2-.2v-.1c0-.3-.3-.7-.5-.7h-.6c-.1 0-.1 0-.1.1s-.1.2-.1.2v.1c-.1.2-.3.1-.3.1-.1-.1-.1-.2-.1-.3v-.7c0-.4-.1-.7-.4-.9-.3-.4-.7-.4-1.1 0l-.1.1c-.2.2-.4.3-.5.5-.2.2-.3.4-.4.6-.2.4-.3.9-.4 1.4V12c0 .3.1.6.1.9 0 .1 0 .2.1.4 0 .1 0 .2-.1.3-.1.1-.2.1-.3 0-.2-.1-.3 0-.4 0-.2.1-.3.3-.4.5-.1.3-.1.6-.1 1s.1.8.2 1.2c0 .1 0 .2-.1.3 0 0-.1.1-.2 0h-.5c.1 0 0 0 0 0zm-.2 5.7zm.8-5.9zm1.1-3zm0-.1zm4.3-2.1zm1.3-.2z"/><path fill="#010101" d="m19 23.7-.4-1.2c0-.1-.1-.2-.1-.2-.1-.2-.1-.4-.2-.6v-.2c.1-.1.1-.1.2-.1.3-.1.5-.3.6-.5.2-.4.3-.8.3-1.2v-.5c0-.2.1-.3.2-.3s.2-.1.3-.1l.6-.3-.3.4c-.1.2-.3.2-.4.3 0 0-.1 0-.1.2 0 .4-.1.9-.3 1.3-.1.4-.4.9-.9 1.1v.1s0 .1.1.1c.1.2.1.4.2.6l.2 1.1zM14.3 30l.3-.5c.1-.1.1-.2.2-.2l.1-.1c.3-.4.4-.8.4-1.3 0-.1 0-.2.1-.3.1-.1.2 0 .3.1.5.4 1 .4 1.4.1h.1l.6-.3-.4.5c-.3.4-.8.4-1 .4-.3 0-.6-.1-.8-.3-.1.7-.3 1.2-.7 1.6l-.1.1-.5.2z"/><path fill="#010101" d="m17.4 23.5.1-.6c0-.1.1-.2.1-.3 0 0 0-.1.1-.1.2-.5.3-1 .5-1.7v-.5l.1-.4.2.4c.1.2.1.4 0 .5 0 .1 0 .3-.1.4v.3c0 .1-.1.2-.1.3 0 .1 0 .1-.1.1v.2c-.1.3-.2.7-.4.9l-.4.5z"/><path fill="#010101" d="m18.4 20.9-.1-.5v-.2c0-.2-.1-.3-.2-.4-.1-.1-.1-.1-.1-.2s0-.1.1-.1c.1-.1.2-.1.3 0 .2.2.2.4.3.6V20.8l-.2-.1-.1.2zM19.2 16.6v-.3c-.1-.1-.1-.2-.1-.3v-.7l.1-.4.2.3.2-.7v.9c0 .2 0 .5-.2.7l-.2.2v.3z"/></svg>