<svg version="1.2" baseProfile="tiny" xmlns="http://www.w3.org/2000/svg" viewBox="0 0 45 45" overflow="visible" xml:space="preserve"><path fill="#76A4B2" d="M-49.5-202.5h279v252h-279z"/><path fill="none" d="M0-45h45V0H0z"/><path fill="#76A4B2" d="M0 0h45v45H0z"/><path fill="none" stroke="#FFF" stroke-width="2" stroke-linecap="square" stroke-miterlimit="10" d="m27.5 27.3 2.6-2.4.5.5L32 24 15 7h0M15 7l-1.5 1.4 1.6 1.8-5.3 4.9-1.6-1.4-1.4 1.5 16.9 17 1.5-1.4-.6-.6 2.5-2.3"/><path d="M30.2 25c.4.3.4.3.8 0l.9-.9c.2-.2.2-.3 0-.5l-6-6c-1.2-1.2-2.4-2.4-3.7-3.6-.1-.1-.2-.2-.2-.4 0-.1-.1-.2-.1-.2l-.4-.4c-.1-.1-.2-.2-.3-.1-.2 0-.3-.1-.4-.2L16.1 8l-.7-.7c-.3-.3-.4-.3-.6-.1l-1.2 1.2c-.2.2-.2.3 0 .5l1 1c.1.1.2.1.1.3-.1.1-.2 0-.3-.1-.1-.1-.2-.1-.3-.2-.1 0-.2-.1-.3 0-.2.3-.8.3-.9.7-.2.6-.8.9-1.2 1.4-.2.2-.4.5-.7.6-.2.1-.4.2-.6.4-.1.2-.2.3 0 .4.2.2.4.3.5.5 0 0 .1.1.1.2-.1.1-.1 0-.2 0-.2-.2-.3-.1-.4 0-.2.2-.4.5-.7.7-.1.1-.1.2-.1.3-.4-.4-.8-.7-1.1-1.1-.2-.2-.3-.2-.5 0l-1 1c-.3.3-.3.3 0 .6 1.7 1.7 3.4 3.3 5 5 .4.4.7.8 1.1 1.2.6.5 1.1 1 1.6 1.5l1.5 1.5c.9.9 1.8 1.8 2.7 2.6 1.5 1.5 3 3 4.5 4.4.3.3.3.3.6 0s.6-.7 1-1c.1-.1.2-.3 0-.4 0 0-.1-.1 0-.2s.1 0 .2 0c.2.1.3.1.4-.1 0-.1 0-.1.1-.1.2 0 .1-.2.1-.3-.2-.3-.1-.4.1-.6.7-.7 1.4-1.3 2-2 .4-.4.8-.7 1.1-1.1.1-.1.2-.1.3 0 .1.1.3.1.5 0l.1-.1c.2 0 .2-.1.1-.3.2-.3.2-.4.2-.6zm-10-10.5c-.1-.1-.4-.1-.4-.2 0-.2.2-.3.4-.5.1-.1.2.1.3.1l4 4c.1.1.2.2.3.4.7 1.1 1.4 2.3 2.2 3.4.1.2.1.3-.1.5l-2.1 2.1c-.1.1-.1.1-.2.1s-.1-.1-.1-.2v-1c0-.2.1-.2.2-.1s.3.2.4 0l1.3-1.3c.1-.1.1-.2 0-.4-.3-.5-.7-.9-1.2-1.3-.1-.1-.2-.1-.2 0-.2.5-.7.7-1 1.1.2-.5.2-.9 0-1.4 0-.1-.1-.2-.1-.4 0-.6-.2-1.2-.2-1.8 0-.2-.1-.3-.2-.4l-2.4-2.4c-.2-.2-.4-.3-.7-.2h-.2c.1-.1.1-.1 0-.1.1 0 .1 0 0 0zM16 20.4c-.1 0-.1 0-.2-.1v-.1c.2 0 .1.1.2.2zm.1-.9c0 .1-.1.2-.1.1-.3-.2-.4 0-.6.2-.2.1-.1.4 0 .5.4.6.6 1.3 1.1 1.7 0 0 .1.1 0 .1-.1.1-.1.1-.2 0s-.1-.1-.1-.2L15 19.8c0-.1-.1-.2 0-.2.1-.2.3-.3.5-.4.2-.1.1.2.2.1h.1c.1-.1.1.1.3.2 0-.1-.1-.2-.1-.3-.2-.3-.2-.5.1-.8.4.8 1 1.3 1.8 1.1.8-.1 1.2-.5 1.4-1.3.1-.4 0-.8-.3-1.2-.2-.3-.5-.6-1-.7.5-.2 1.1-.1 1.3.3.2.2.3.5.6.5.1 0 .3.1.3.3v.1c.2-.1.4.1.6.1.1 0 .2-.1.2.1 0 .1-.1.2-.1.2-.9.9-1.8 1.7-2.7 2.6h-.1c-.1-.5-.3-.6-.6-.7-.4 0-.5 0-.7.7-.1-.1-.2-.3-.3-.5 0-.1.1-.1 0-.2s-.2-.3-.4-.3zm2.8 3.6s0-.1 0 0c0-.2 0-.2-.1-.3-.4-.4-.8-.7-1.1-1.1-.2-.2-.2-.3 0-.4 1.2-1.2 2.3-2.3 3.5-3.4.1-.1.2-.1.4 0l1.8 1.8c.2.2.2.3 0 .4-1.1 1.1-2.2 2.2-3.4 3.3-.2.2-.3.2-.4 0-.1-.1-.2-.3-.5-.3l.5.5c.1.1.1.2 0 .3-.1.1-.2.1-.2 0-.2-.1-.4-.2-.6-.2-.7-.2-1.3-.7-1.9-1.2-.2-.2-.2-.5 0-.7.1-.1.1-.1.2-.1.2-.2.3-.1.5 0 .4.5.8 1 1.3 1.4zm-.4-12.5c.6.8 1.7 1.5 2.4 2.4h-.1c-.1 0-.1 0-.2.1 0 .1.1.2.2.2h.2c.1-.3.2-.1.3 0l.3.3c.1.1.2.2 0 .2-.1 0-.1.1-.1.2s.1.1.2.2c.1 0 .1 0 .1-.1 0-.3.1-.1.2 0l1.3 1.3c1.1 1.1 2.2 2.2 3.3 3.2.6.6 1.2 1.3 1.9 1.9.6.5 1.1 1.1 1.6 1.6.1.1.2.2.1.4-.3.3-.6.6-1 .9-.1.1-.2.2-.3 0-.5-.5-1-.9-1.4-1.4-.1-.1 0-.3-.1-.4-.3-.1-.3-.3-.4-.5-.2-.4-.5-.7-.8-1.1-.4-.5-.8-1.2-1.1-1.7-.1-.1-.1-.2 0-.3.1-.1.1-.1 0-.2s-.1-.1-.2 0c-.2.1-.2 0-.3-.1-.7-.6-1.3-1.3-1.9-1.9l-2.3-2.3-1.9-1.9c-.1-.1-.1-.2-.1-.3 0-.3.3-.6.1-.7zm-8.3 7.8c0-.1 0-.1 0 0h.2c.1.1.2.3.4 0 .1-.2.6-.1.8.1l6.3 6.3c.1.1.2.3.2.5 0 .1.1.3.2.3.2.1.4.1.6.4.1.2.5.3.7.5.1 0 .2.1.3 0 .2-.3.3-.1.4 0 .1.1.3.1.4.2.3.2.8.1.9.6h.1c.3 0 .5.1.7.3.3.3.5.6.8.9.1.1.1.2-.1.3-.2.1-.3.2-.2.4.1.2.1.3-.1.4l-.3.3c-.2.2-.3.2-.5 0-.9-.8-1.7-1.7-2.6-2.5-1.8-1.7-3.5-3.4-5.2-5.1l-.3-.3c-.1-.1-.1-.2.1-.2.1 0 .2 0 .2-.1s-.1-.2-.2-.2-.1 0-.2.1c0 .2-.1.2-.2.1l-.5-.5c-.1-.1-.1-.2.1-.2.1 0 .2 0 .2-.1s-.1-.2-.2-.2-.1 0-.2.1c-.1.3-.2.1-.3 0-.1-.1-.2-.3-.4-.4-.7-.7-1.4-1.4-2.1-2zm3.7 1.4c0-.2 0-.3-.1-.4-.1-.1-.2-.2-.4-.3-.2-.2-.2-.3 0-.5s.4-.4.6-.5c.1-.1.2-.1.3 0 .4.3.7.7.4 1.2 0 .1 0 .2-.1.2-.1.1 0 .3.1.4.4.7.8 1.4 1.2 2 .1.1.1.2 0 .3-.1.1-.1.2.1.2.3 0 .4.1.6.3.5.4 1 .9 1.6 1.1 0 0 .1 0 .1.1-.3-.1-.5-.2-.8-.2-.1 0-.3-.1-.3.1-.1.2.1.2.2.3.6.2 1.3.4 1.9.6.5.2.9.1 1.3-.1s.7-.4 1.1-.6c.2-.1.4-.1.5 0 .2.1.3.3.5.6-.2-.1-.3-.3-.5-.4-.2-.2-.3-.2-.4 0l-.5.5c-.3.3-.5.6-.8.8-.4.2-.1.3 0 .5.4.3.7.7 1.1.9.2.1.3.1.4-.1.4-.4.7-.8 1.2-1.1.2-.2.2-.3.1-.6-.1-.2-.2-.3-.3-.6.3.2.6.3.9.4.3.1.2.2.1.4-.6.6-1.3 1.1-1.9 1.8-.1.1-.2.1-.4 0-.9-.5-1.8-1.1-2.7-1.6-.4-.2-.8-.4-1.1-.7l-3.3-3.3c-.1-.1-.4-.2 0-.4.1 0 0-.1 0-.2l-.3-1.8c0-.1-.2-.2-.2-.4.1-.2 0-.3-.2-.4-.2 0-.3 0-.4.2-.1.2 0 .4.2.4.2.1.2.2.2.3 0 .2 0 .4.2.6.1.1.1.2 0 .3-.2.2-.1.3 0 .5 0 .1 0 .3.1.5l-.5-.5c-.1-.1-.1-.1-.1-.2.2-.2.1-.2-.1-.3-.1 0-.2-.2-.3-.2l-1.5-1.5c-.1-.1-.3-.2-.2-.4 0-.1 0-.1-.1-.1-.2.1-.3 0-.4-.2l-.8-.8c-.1-.1-.3-.3-.2-.5 0-.1 0-.2.1-.2s.2.1.2.1c.7.7 1.5 1.3 2.1 2 .2.2.4.4.7.6.4.2.7.4.8.9zm11.4 5.4c0-.2.1-.2.2-.3l1.1-1.1c.1-.1.2-.3.3-.2.1.1.3.2.2.4 0 .2.1.3.2.4l.9.9c.5.5.8.5 1.2 0 .1-.1.2-.2.2-.4 0-.3-.1-.5-.3-.7l-.8-.8c-.4-.4-.5-.4-.9 0-.1.1-.2.2-.3.1-.1-.1-.2-.3 0-.4l.4-.4c.1-.1.2-.1.4 0l1.9 1.9c.2.2.2.3 0 .5-.8.8-1.6 1.5-2.4 2.3-.8.8-1.6 1.6-2.4 2.3-.3.3-.3.3-.5 0 0 0-.1 0-.1-.1-.3-.2-.6-.5-.8-.8 0-.1-.1-.1-.2-.2-.3-.2-.5-.5-.8-.7-.1-.2-.1-.3 0-.4.4-.4.8-.7 1.2-1.1.2-.2.4-.5.7-.7.1.1 0 .4.1.4.3.1.4.4.6.6.3.3.7.5.9 1h.1c.4.2.6-.2.8-.4l.9-.9c.2-.2.2-.3.2-.4 0-.2-.2-.1-.2-.2-.2-.3-.5-.5-.7-.7-.2-.2-.5-.4-.7-.7-.2-.2-.4-.2-.6 0l-.8.8zM14.9 15c.3-.3.7-.5 1.3-.7.5-.2.8-.2 1.2.3.2.3.2.5-.2.6-.1 0-.2.1-.2.2-.1.4-.4.6-.8.8-.1.1-.2.1-.3.3-.2.3-.4.6-.8.8-.1.1-.2.1-.3.3-.1.2-.2.4-.4.4s-.6-.6-.6-.8c.2-1 .5-1.6 1.1-2.2zm12.9 10.5c.1.1.2.3.3.4.1.2.1.3-.1.5-.4.4-.8.7-1.1 1.1-.1.1-.2.2-.4.1-.6-.5-1.1-1-1.6-1.6-.1-.1 0-.2 0-.3l1.3-1.3c.1-.1.2-.1.3 0 .6.3.9.8 1.3 1.1zm-14.7-6.8c.1-.2 0-.4-.2-.4s-.3-.1-.3-.2c-.6-.6-1.2-1.2-1.8-1.7l-.1-.1c.1-.1 0-.2-.1-.3-.2-.1-.1-.2 0-.4.4-.5.9-.8 1.3-1.3.2-.3.5-.5.8-.7.2-.1.3-.1.2.1 0 .2.1.3.3.3.2 0 .4.2.5.4.1.2-.1.3-.2.4-.1.1-.1.2-.2.2-.2.2-.2.3 0 .4.2.1.3.3.5.4.1.1.2.1.1.2s-.2 0-.2-.1l-.6-.6c-.2-.2-.3-.2-.6 0-.2.2-.5.4-.7.7-.1.1-.1.1-.1.2.1.4.2.9.5 1.3l.8.8c.2.2.3.3.1.4zm4-6.5c-.1-.1-.3-.3-.5-.1l-.9.9c-.1.1-.1.3 0 .4l.4.4c.1.1.2.1.1.2s-.2.1-.3 0c-.1 0-.1-.1-.2-.2-.2-.1-.3-.5-.6-.3H15c-.3-.2-1-1.1-1.1-1.4 0-.1 0-.1.1-.1l1.4-1.4s.1-.1.2-.1.1.1.1.2c0 .3.1.4.3.3h.2c.3.3.6.5.8.8.1.3.2.3.1.4zm-2.7-4.3.6-.6c.1-.1.2-.1.3 0l.9.9c.1.1.2.3.2.4-.2.2-.3.4-.4.6-.2.2-.5.5-.8.6-.2.1-.2.1-.3 0l-1.1-1.1c-.1-.1-.1-.2 0-.4.2-.1.4-.3.6-.4zm-5.3 6.6.6.6s.1.1 0 .2c-.2.1-.3.4-.5.6-.2.1-.4.4-.7.5-.1.1-.1.1-.2 0-.4-.3-.8-.7-1.2-1.1-.1-.1-.1-.2 0-.3.4-.3.7-.7 1-1 .1-.1.2-.1.4 0 .2.2.4.3.6.5zm9.9-1.8.9.9c.1.1.1.2 0 .4-.3.3-.3.3-.6 0-.1-.1-.2-.2-.1-.3 0-.1-.1-.2-.2-.2-.4 0-.6-.3-.8-.6-.2-.2-.4-.3-.4-.7 0-.1-.1-.1-.2-.2-.5-.2-.8-.6-1.2-1v-.1c0-.2-.1-.3-.3-.3-.2 0-.2-.1-.1-.2.2-.3.5-.3.7-.1.3.3.7.6 1 1 .1.1.2.2.2.3 0 .1 0 .1.1.1.2 0 .3.1.3.2.1.3.4.6.7.8zm-4 5.7-.3-.3c-.1-.1-.2-.1-.1-.3.1-.1.1-.1.3-.1.2.1.3 0 .3-.2 0-.1 0-.2.1-.3.2-.2.3-.5.6-.5.2 0 .3 0 .3-.2.1-.4.7-1 1.1-1 .2 0 .3-.1.2-.3 0-.1 0-.2.1-.2.1-.1.1 0 .2 0l.6.6c.1.1.1.2 0 .2-.3.1-.5.3-.8.3-.7.2-1.3.4-1.5 1.2-.1.3-.2.6-.4.9-.3.6-.2.6-.7.2zm-.1-4.8c.2.2.4.4.6.5.1.1.1.2 0 .2-.2.1-.5.3-.7.5-.1.1-.2.1-.3 0-.4-.3-.7-.6-1-.9-.1-.1-.1-.1-.1-.2 0-.2 0-.3-.3-.3-.1 0-.2 0-.2-.1-.1-.1 0-.1.1-.2l.6-.6s.1-.1.2-.1 0 .1 0 .1c0 .2.2.5.3.4.2-.2.3 0 .4.1.1.3.3.5.4.6zm16.4 9.7c-.2.1-.4.2-.4.4s-.2.4-.4.5c-.3 0-.4.2-.5.4l-.8-.8c-.1-.1-.1-.1 0-.2.3-.3.7-.7 1.1-1 .1-.1.2-.1.3 0 .2.2.5.4.7.7zM24.6 30c-.3 0-.5.1-.5.4 0 .2-.2.3-.4.4-.3 0-.4.2-.5.5l-.8-.8c-.1-.1 0-.2.1-.3l1-1c.1-.1.2-.1.3 0 .3.2.5.5.8.8zm-3.2-14.6.6.6c.1.1.1.3 0 .4-.1.1-.2 0-.3-.1-.5-.3-1.1-.6-1.6-.9-.5-.4-1-.5-1.6-.2-.1 0-.2.1-.3 0-.1-.1 0-.2.1-.3.2-.2.3-.5.7-.4.2.1.5.1.7.1.8.2 1.4.3 1.7.8zm-9.1-3.8c.4-.4.8-.7 1.1-1.1.5-.5.5-.5.9 0 .1.1.1.2 0 .3l-1.7 1.7c-.1.1-.1.1-.2.1-.2-.2-.4-.3-.5-.6.2.2.4.2.6.2.2 0 .3-.1.3-.2 0-.2-.1-.3-.2-.3-.1-.1-.2 0-.3-.1zm9.6 6.6c-.6-.6-.6-.6 0-1.2.2-.2.3-.1.4 0 .7.7 1.1 1.6 1.5 2.5.1.2 0 .2-.2.3-.1 0-.2-.1-.3-.2l-1.4-1.4zm-.6 6.4.5-.5c.1-.1.3-.1.4 0l.7.7c.1.1.2.2.1.3-.1.1-.2 0-.3-.1-.1 0-.1-.1-.2 0s0 .1 0 .2c.2.2.1.3 0 .4l-.2.2c-.2.2-.3.3-.5.1 0 0-.1-.1-.2 0s0 .1 0 .2l.1.1s.1.1 0 .2-.1 0-.2 0c-.1-.1-.2-.2-.4-.3-.2-.1-.2-.2 0-.4.1-.1.1-.1.1-.2s-.1-.1-.2-.1-.2 0-.2.1 0 .2-.1.1c-.1 0-.1-.1-.2-.1-.1-.1-.1-.2.1-.4.4-.1.6-.3.7-.5zm3.2-3.6c.2-.2.4-.3.5-.5.1-.1.2-.1.3 0 .1.2-.1.1-.1.2-.1.1-.1.2 0 .3.1.1.2 0 .2 0 .1-.1.2-.1.4 0 .1.1.2.1.2.2.1.1.2.2.1.3-.1.1-.2 0-.2-.1-.1-.1-.1-.1-.2 0s0 .2 0 .2c.2.2.1.3 0 .4l-.3.3c-.1.1-.2.2-.4 0-.1-.1-.1-.2-.2-.1s0 .1.1.2c0 .1.2.1.1.2s-.2 0-.2-.1l-.7-.7c-.2-.2-.2-.3 0-.4l.4-.4zm3 2.8c.2-.5.4-.6.8-.2l.6.6c.2.2.4.3.5.5-.4 0-.8.5-.8.9l-.5-.5-.8-.8c0-.1-.1-.1 0-.2.1 0 .1 0 .1.1.1.2.3.2.5.3.2.1.4.1.5-.1.1-.2 0-.5-.4-.7-.2-.2-.2.1-.3.2-.1-.1-.1-.1-.2-.1zm-9.4-5.4c-.1 0-.3-.1-.2.1 0 .2-.1.3-.3.3-.1 0-.4.1-.3-.2 0-.1-.1-.2-.3-.3h-.1c-.1.1.1.2.1.2-.1-.1-.2-.2-.1-.3 0-.1.1-.1 0-.2-.4-.2-.1-.4-.1-.6.1-.2.2-.2.3-.1.3.4.6.8 1 1.1zm-.4-.6-.5-.5s-.1-.1-.1-.2c.1-.2.3-.2.5-.2.1 0 .3-.1.3.1.1.2.3.4.5.4.3 0 .2.1.3.2 0 .2 0 .3-.1.5s-.2.2-.3.1c-.3-.1-.5-.2-.6-.4zm-.1-8.1c-.1 0-.1 0 0 0-.2-.2-.3-.4-.6-.2-.1.1-.3.2-.5.1s-.3 0-.5 0c-.2.1-.5.2-.7.5v-.2c.4-.4.8-.8 1.1-1.2.1-.1.2 0 .3 0 .4.3.6.7.9 1zm1.4 6.5c.3-.1.2-.3.1-.4-.1-.1-.1-.2 0-.2.1-.1.1-.2.2-.2.1-.2.2-.1.4-.1l2.1 1.2c.4.2.4.2.1.6h-.1c0-.3 0-.5-.3-.6-.4-.2-.9-.5-1.3-.7-.2-.1-.4-.1-.5.1-.1.2-.2.3-.1.6-.4-.2-.5-.2-.6-.3zm5.5 15c-.1.1-.1.2-.2.2l-.2.2c-.1.1-.2.2-.3 0-.1-.1-.1-.3 0-.4.1-.1.1-.1.2-.3 0-.2.2-.4.4-.5.2-.1.3-.2.4-.3 0-.1 0-.1.1-.1.2 0 .3.4.2.5-.3.3-.4.5-.6.7zm-13-16.8c0-.2.1-.3.1-.3l1.7-1.7c.3-.3.5-.6.9-.8.1-.1.3-.2.3-.3.1-.2.2-.4.4-.5.2-.1.3-.3.4-.5.1-.2.4-.3.6-.3l-4.4 4.4zm-1.9 3.3c-.4-.3-.7-.6-.9-1-.1-.1 0-.2.1-.3l.7-.7c.1-.1.2-.1.3 0-.1.3-.5.5-.2.8v.1c-.2.1-.1.4-.2.5-.1.1 0 .1.1.2-.1.2 0 .2.1.4zm21.6 6.9-.4.4c-.1.1-.1.1-.2.1l-.3-.3c0-.1.1-.1.2-.1.1-.1.2-.1.2-.3 0-.2.1-.2.2-.4.2-.2.4-.2.6-.4.1-.1.2 0 .3.1.1.1 0 .2 0 .3-.3.2-.5.4-.6.6zM11.8 13.4c-.3.3-.3.3-.7 0-.3-.3-.3-.4 0-.7.4-.4.4-.4.8 0 .2.2.2.3 0 .5-.1.1-.1.2-.1.2zm11.8 5.4c-.2-.8-.7-1.3-1.2-1.9-.1-.1-.2-.3-.1-.5.8.6 1.5 1.3 1.3 2.4zm-.4 3.3c.1.1.3.2.2.3-.1.2-.2.3-.4.4-.1 0-.2-.2-.2-.2-.1 0-.2-.2-.3-.2-.2-.1-.2-.2 0-.3.2-.3.3-.3.7 0zm-.2 1 .5-.5c.1-.1.2-.1.3 0 .1.1.1.2 0 .3l-.9.9c-.1.1-.2.1-.3 0-.1-.1-.1-.2 0-.3l.4-.4zm-1 .2c-.3-.3-.3-.4 0-.7.1-.1.2-.2.2 0 0 0 .2.2.3.2.1 0 .3.2.2.3-.2.5-.4.5-.7.2zm2.2-.8c.3.2.2.6.2.9 0 .1-.1.2-.2.2s-.2-.2-.3-.3c-.1-.1 0-.2.1-.2.2-.2.1-.4-.1-.6-.1-.1-.2-.1-.2-.2v-.1h.1c0 .1.2.1.4.3zm1.9.9c0 .1.3.2.1.4l-1 1c-.1.1-.2.1-.3 0-.1-.1-.1-.2 0-.2l1.2-1.2zm-6.3.9c0-.1.1-.1.2-.1.3-.1.5-.3.7-.6.2-.2.4-.4.7-.2h.2c.1 0 .2-.1.2 0s-.1.1-.2.2c-.5.2-.9.5-1.4.7-.2-.1-.3 0-.4 0zm.4-10.7c0 .1 0 .1 0 0-.8-.6-1.5-1.3-2.2-2l.1-.1 2.1 2.1zm-7.3 3.3.6-.6c.1 0 .1-.1.2-.1.1.1 0 .2 0 .2l-.4.4-.6.6c-.1.1-.2.1-.3 0-.1-.1 0-.2.1-.2.1-.1.3-.2.4-.3zm9.3 5.2.8-.8c.1-.1.2-.1.2 0 .1.1 0 .2-.1.2-.2.2-.4.2-.6.4-.4.4-.9.7-1.1 1.2 0 .1-.1.1-.2.1s-.1-.1 0-.2c0-.1.1-.1.2-.2.3-.2.6-.5.8-.7zm-9.4-5.5-.5.5c-.1.1-.1.2-.2.1s0-.2.1-.3c.2-.1.3-.3.5-.5.1-.2.3-.3.5-.5.1-.1.1-.1.2 0s0 .2-.1.2c-.1.2-.3.3-.5.5zm-2.2-1.9.3-.3c.1-.1.2-.1.3 0 .1.1.1.2 0 .2l-.7.7c-.1.1-.1.1-.2 0s-.1-.2 0-.2c.1-.2.2-.3.3-.4zm12.5 11.7c.2.2.1.4-.1.6-.1.1-.3.2-.4.4-.1.1-.1.1-.2 0s-.1-.2 0-.3c.1-.2.4-.4.7-.7zm-9.6-6.2-2.1-2.1c.2.1 2 1.8 2.1 2.1zm-.9-4.1-.4.4s-.1.2-.2.1-.1-.2 0-.2c.3-.3.6-.5.8-.8.1-.1.1-.1.2 0s0 .1 0 .2c-.2.1-.3.2-.4.3zm4.6-3.3c0-.1 0-.1.1-.1s.1.1 0 .2c0 .1-.1.2-.1.2-.2.2-.4.5-.7.7-.1.1-.1.2-.2.1s0-.2.1-.2c.3-.4.6-.7.8-.9zM13.8 15c.3-.3.4.1.6.2.2.1 0 .2-.1.3-.2.2-.4-.1-.6-.2-.2-.1 0-.2.1-.3zm-3.3-.4-.3.3c-.1.1-.1.2-.2.1s0-.2 0-.2l.6-.6c.1-.1.1-.1.2 0s0 .2 0 .2c-.1 0-.2.1-.3.2zm8.1.1s0-.1 0 0c-.1.1-.3.2-.4.4 0 0-.1.1-.2 0-.1 0 0-.1 0-.1.3-.3.6-.6.8-.9 0-.1.1-.1.2 0s0 .1 0 .2c-.1 0-.3.2-.4.4zm-2.2-1.6-.3.3c-.1 0-.1.1-.2.1-.1-.1 0-.1 0-.2.3-.3.6-.6.8-.9.1-.1.1-.1.2 0s0 .1 0 .2l-.5.5zm1.5-1.7c-.4-.1-1.4-1.2-1.4-1.4.5.5 1 .9 1.4 1.4zm-2.8-1.1c-1.2 1.3-2.5 2.5-3.8 3.8 1.2-1.3 2.5-2.5 3.8-3.8zm8.3 13.3c.1-.1.2-.3.4-.1.1.1.3.2.1.3-.1.1-.2.3-.5.1-.2-.1-.2-.2 0-.3zm-5.6-9.7-.4.4s-.1.1-.2 0 0-.1 0-.1c.2-.2.4-.5.7-.7 0-.1.1-.1.2 0s0 .1 0 .2c-.1 0-.2.1-.3.2zm-4.1 3c0 .2 0 .3-.1.4-.2.2-.4.3-.5.5-.1.1-.1.1-.2.1-.1-.1 0-.1 0-.2.2-.3.5-.5.8-.8zm6.3-.6s0-.1 0 0c0-.1.1-.1 0 0 .1-.1.1 0 0 0 .1 0 .1 0 0 0z"/><path d="M17.3 22.6c.2.2.4.3.6.5.1.1.2.1.3 0 .1-.1.1-.2 0-.3-.2-.3-.5-.5-.8-.7-.1-.1-.3-.1-.3.1-.1.1 0 .3.1.3l.1.1zM20.6 19c-.2.2-.2.6 0 .8.2.2.6.2.8 0 .2-.2.2-.6 0-.8-.2-.2-.6-.2-.8 0zm.1.1c.2-.2.5-.2.7 0 .1.1.2.5.1.6-.2.2-.5.2-.7 0-.2-.1-.2-.4-.1-.6zM22.3 28.1c-.1-.3-.5-.3-.7-.6-.1-.1-.2-.1-.3 0-.1.1-.1.1 0 .3.2.5.7.7 1 1.1.1.1.2.2.4.1.1 0 .1-.1.1-.2s0-.3-.2-.4l-.3-.3zM23.9 28.7l.5.5c.4.4.7.3 1 0 .4-.4.4-.7 0-1.1l-.9-.9c-.2-.2-.4-.2-.6 0-.2.1-.3.3-.5.5s-.2.4 0 .5c.1.2.3.4.5.5zm1.7-.2c-.5 0-.9.4-.8.8h-.1c-.5-.4-.9-.8-1.3-1.3-.1-.1-.1-.2 0-.3.2-.2.4-.3.6-.5.1-.1.2-.1.3 0 .4.4.8.9 1.3 1.3zM22.2 17.3c-.1-.1-.2-.1-.3 0-.1.1-.1.2 0 .3.2.3.3.6.6.7.1.1.2.1.3 0 .1-.1.1-.2 0-.3-.2-.2-.3-.4-.6-.7zM21.8 25.6c.1.1.3.2.4.1.2-.1.2-.2.2-.3 0-.2-.1-.3-.2-.4-.1-.1-.3-.1-.5-.2-.1-.1-.2 0-.2.1-.1.1-.1.1-.1.2.2.1.2.4.4.5zm0-.1c-.1-.1-.1-.3 0-.4.1-.1.3-.1.5 0 .1.1.1.3 0 .4-.2.1-.3.1-.5 0zM24.7 21.2l-.1.1c.1.2.1.5.4.7.2.1.5 0 .6-.2.1-.2 0-.5-.2-.6-.1-.1-.3-.1-.4-.2-.1 0-.2.1-.3.2zm.2.2c.3 0 .6-.1.6.3 0 .2-.1.3-.3.3-.3-.1-.2-.4-.3-.6z"/><path d="M23.8 27.6c-.2.1-.3.2-.1.4.3.3.6.4.8.2.2-.2.1-.4-.3-.8-.3-.2-.3.1-.4.2z"/><path fill="none" d="M0 0h45v45H0z"/><path fill="none" d="M4.5 27h18v13.5h-18z"/><path fill="#010101" d="M9.1 34v1c-1 1.4-2 3.5-2.3 5.4H5.4c.3-1.9 1.4-4.1 2.3-5.3h-3V34h4.4zM14.2 35.2h-2.6c0 .3-.2 1-.2 1.2.2-.2.6-.3 1.2-.3 1.3 0 2 .9 2 2.1 0 1.2-.7 2.4-2.4 2.4-1.3 0-2.2-.6-2.3-1.8h1.4c.1.4.4.7 1 .7.7 0 1-.5 1-1.2s-.2-1.1-1-1.1c-.6 0-.8.3-1 .6l-1.3-.2c.2-.8.4-2.7.6-3.6h3.9l-.3 1.2z"/><path fill="none" d="M27 4.5h13.5V18H27z"/><path fill="#010101" d="M32.8 11.6V6.8c-.3.1-.8.2-1.2.3V6c.6-.1 1.2-.5 1.6-.9h1v6.4h-1.4zM35.5 11.6c0-1.2.5-2.1 1.9-3.1.9-.7 1.2-.9 1.2-1.4 0-.6-.3-.9-.8-.9-.6 0-.9.4-.9.9h-1.3c.1-1.1.8-2 2.3-2 1.6 0 2.2 1 2.2 1.9 0 .9-.4 1.4-1.6 2.2-.8.6-1.1.9-1.2 1.2h3l-.3 1.2h-4.5z"/><path fill="none" d="M27 27h13.5v13.5H27z"/><path fill="#010101" d="M30.4 40.5v-1.2H28v-1l2.2-3.1h1.3v3.2h.6l-.1.9h-.5v1.2h-1.1zm0-3.1v-1.2c-.2.4-.9 1.5-1.4 2.2h1.4v-1zM32.5 40.9l2.2-6.1h1l-2.2 6.1h-1zM36.3 40.5c0-1 .4-1.8 1.6-2.6.8-.5 1-.7 1-1.2s-.2-.7-.7-.7c-.5 0-.7.3-.8.8h-1.1c.1-.9.7-1.7 1.9-1.7 1.4 0 1.8.8 1.8 1.6s-.3 1.2-1.3 1.8c-.7.5-.9.8-1 1h2.5l-.1 1h-3.8z"/><path fill="none" d="M4.5 18H18v13.5H4.5z"/><path fill="#010101" d="M9.9 29.7c-.2 1-1 1.8-2.4 1.8-1.8 0-2.6-1.3-2.6-2.8 0-1.5.9-2.9 2.7-2.9 1.5 0 2.2.9 2.3 1.8H8.7c-.1-.4-.4-.9-1.2-.9-1 0-1.4.9-1.4 1.9 0 .9.3 1.9 1.4 1.9.8 0 1-.5 1.1-.9h1.3zM14.1 26.1v.9c-.8 1.2-1.7 2.9-1.9 4.5H11c.2-1.6 1.2-3.4 1.9-4.4h-2.5v-1h3.7z"/><path fill="none" stroke="#000" stroke-miterlimit="10" d="M5 33.3h8.5"/><path fill="#010101" d="m29.9 28.6 1.6 3-3-1.6s.7-.3.9-.5c.3-.2.5-.9.5-.9z"/><path fill="none" d="M4.5 4.5h9v9h-9z"/><path fill="#010101" d="m9.5 6.7-.2 1.5 1.1-.9.5.9-1.4.5 1.4.6-.5.9-1.1-1 .2 1.5h-1l.2-1.5-1.1.9-.5-.9 1.4-.6-1.4-.5.5-.9 1.1 1-.2-1.5h1z"/><path fill="none" d="m13.68 5.528 3.182-3.182 19.092 19.091-3.182 3.182z"/><path fill="#010101" d="m20.6 6.3 1.1 1.1c.5.5.6 1.2.1 1.6-.5.5-1.2.4-1.7-.1l-.4-.4-.8.8-.7-.7 2.4-2.3zm-.4 1.8.3.3c.2.2.4.3.6.1.2-.3.1-.5-.1-.7l-.3-.3-.5.6zM20.8 10.5c.2 0 1.5-.1 1.7-.1l-.8-.8.5-.5 1.5 1.5-.5.5c-.2 0-1.5.1-1.7.1l.9.9-.5.4-1.5-1.5.4-.5zM26.1 11.9l-2.4 2.4-.7-.7 2.4-2.4.7.7zM24.8 15.4l1.6-3.2.7.7-.7 1.3c-.2.4-.4.7-.6 1 .3-.2.6-.4 1-.6l1.3-.7.7.7-3.2 1.5-.8-.7zM29.1 14.9l1.8 1.8-.5.5-1.1-1.1-.5.5 1 1-.5.5-1-1-.9.9-.7-.7 2.4-2.4zM29 19.5l1.6-1.6c-.1-.1-.3-.2-.4-.3l.4-.4c.3.2.6.3.8.3l.6.5-2.3 2.3-.7-.8z"/></svg>