<svg version="1.2" baseProfile="tiny" xmlns="http://www.w3.org/2000/svg" viewBox="0 0 45 45" overflow="visible" xml:space="preserve"><path fill="none" d="M0-45h45V0H0z"/><path d="M28 11.7c.3-.4.3-.4 0-.8l-.9-.9c-.2-.2-.3-.2-.5 0l-6 6c-1.2 1.2-2.4 2.4-3.6 3.7-.1.1-.2.2-.4.2-.1 0-.2.1-.2.1l-.4.4c-.1.1-.2.2-.1.3 0 .2-.1.3-.2.4L11 25.8l-.7.7c-.2.2-.2.3 0 .5l1.2 1.2c.2.2.3.2.5 0l1-1c.1-.1.1-.2.3-.1.1.1 0 .2-.1.3-.1.1-.1.2-.2.3 0 .1-.1.2 0 .3.3.2.3.8.7.9.6.2.9.8 1.4 1.2.2.2.5.4.6.7.1.2.2.4.4.6.2.1.3.2.4 0 .2-.2.3-.4.5-.5 0 0 .1-.1.2-.1.1.1 0 .1 0 .2-.2.2-.1.3 0 .4.2.2.5.4.7.7.1.1.2.1.3.1-.4.4-.7.8-1.1 1.1-.2.2-.2.3 0 .5l1 1c.3.3.3.3.6 0 1.7-1.7 3.3-3.4 5-5 .4-.4.8-.7 1.2-1.1.5-.6 1-1.1 1.5-1.6l1.5-1.5c.9-.9 1.8-1.8 2.6-2.7 1.5-1.5 3-3 4.4-4.5.3-.3.3-.3 0-.6s-.7-.6-1-1c-.1-.1-.3-.2-.4 0 0 0-.1.1-.2 0s0-.1 0-.2c.1-.2.1-.3-.1-.4-.1 0-.1 0-.1-.1 0-.2-.2-.1-.3-.1-.3.2-.4.1-.6-.1-.7-.7-1.3-1.4-2-2-.4-.4-.7-.8-1.1-1.1-.1-.1-.1-.2 0-.3.1-.1.1-.3 0-.5l-.1-.1c0-.2-.1-.2-.3-.1-.4-.1-.5 0-.7-.1zm-10.5 10c-.1.1-.1.4-.2.4-.2 0-.3-.2-.5-.4-.1-.1.1-.2.1-.3l4-4c.1-.1.2-.2.4-.3 1.1-.7 2.3-1.4 3.4-2.2.2-.1.3-.1.5.1l2.1 2.1c.1.1.1.1.1.2s-.1.1-.2.1h-1c-.2 0-.2-.1-.1-.2s.2-.3 0-.4l-1.3-1.3c-.1-.1-.2-.1-.4 0-.5.3-.9.7-1.3 1.2-.1.1-.1.2 0 .2.5.2.7.7 1.1 1-.5-.2-.9-.2-1.4 0-.1 0-.2.1-.4.1-.6 0-1.2.2-1.8.2-.2 0-.3.1-.4.2l-2.4 2.4c-.2.2-.3.4-.2.7v.2c-.1-.1-.1-.1-.1 0 0-.1 0 0 0 0zm5.9 4.2c0 .1 0 .1-.1.2h-.1c0-.1.1-.1.2-.2zm-.9 0c.1 0 .2.1.1.1-.2.3 0 .4.2.6.1.2.4.1.5 0 .6-.4 1.3-.6 1.7-1.1 0 0 .1-.1.1 0 .1.1.1.1 0 .2s-.1.1-.2.1L22.8 27c-.1 0-.2.1-.2 0-.2-.1-.3-.3-.4-.5-.1-.2.2-.1.1-.2v-.1c-.1-.2.1-.2.2-.3-.1 0-.2.1-.3.1-.3.2-.5.2-.8-.1.8-.4 1.3-1 1.1-1.8-.1-.8-.5-1.2-1.3-1.4-.4-.1-.8 0-1.2.3-.3.2-.6.5-.7 1-.2-.5-.1-1.1.3-1.3.2-.2.5-.3.5-.6 0-.1.1-.3.3-.3h.1c-.1-.2.1-.4.1-.6 0-.1-.1-.2.1-.2.1 0 .2.1.2.1.9.9 1.7 1.8 2.6 2.7v.1c-.5.1-.6.3-.7.6 0 .4 0 .5.7.7-.1.1-.3.2-.5.3-.1 0-.1-.1-.2 0-.1 0-.3.1-.3.4zm3.6-2.9s-.1 0 0 0c-.2 0-.2 0-.3.1-.4.4-.7.8-1.1 1.1-.2.2-.3.2-.4 0-1.2-1.2-2.3-2.3-3.4-3.5-.1-.1-.1-.2 0-.4l1.8-1.8c.2-.2.3-.2.4 0 1.1 1.1 2.2 2.2 3.3 3.4.2.2.2.3 0 .4-.1.1-.3.2-.3.5l.5-.5c.1-.1.2-.1.3 0 .1.1.1.2 0 .2-.1.2-.2.4-.2.6-.2.7-.7 1.3-1.2 1.9-.2.2-.5.2-.7 0-.1-.1-.1-.1-.1-.2-.2-.2-.1-.3 0-.5.5-.4 1-.8 1.4-1.3zm-12.5.4c.8-.6 1.5-1.7 2.4-2.4v.1c0 .1 0 .1.1.2.1 0 .2-.1.2-.2v-.2c-.3-.1-.1-.2 0-.3l.3-.3c.1-.1.2-.2.2 0 0 .1.1.1.2.1s.1-.1.2-.2c0-.1 0-.1-.1-.1-.3 0-.1-.1 0-.2l1.3-1.3c1.1-1.1 2.2-2.2 3.2-3.3.6-.6 1.3-1.2 1.9-1.9.5-.6 1.1-1.1 1.6-1.6.1-.1.2-.2.4-.1.3.3.6.6.9 1 .1.1.2.2 0 .3-.5.5-.9 1-1.4 1.4-.1.1-.3 0-.4.1-.1.3-.3.3-.5.4-.4.2-.7.5-1.1.8-.5.4-1.2.8-1.7 1.1-.1.1-.2.1-.3 0-.1-.1-.1-.1-.2 0s-.1.1 0 .2c.1.2 0 .2-.1.3-.6.7-1.3 1.3-1.9 1.9l-2.3 2.3-1.9 1.9c-.1.1-.2.1-.3.1-.3.1-.6-.3-.7-.1zm7.8 8.3s-.1 0 0 0v-.2c.1-.1.3-.2 0-.4-.2-.1-.1-.6.1-.8l6.3-6.3c.1-.1.3-.2.5-.2.1 0 .3-.1.3-.2.1-.2.1-.4.4-.6.2-.1.3-.5.5-.7 0-.1.1-.2 0-.3-.3-.2-.1-.3 0-.4.1-.1.1-.3.2-.4.2-.3.1-.8.6-.9v-.1c0-.3.1-.5.3-.7.3-.3.6-.5.9-.8.1-.1.2-.1.3.1.1.2.2.3.4.2.2-.1.3-.1.4.1l.3.3c.2.2.2.3 0 .5-.8.9-1.7 1.7-2.5 2.6-1.7 1.8-3.4 3.5-5.2 5.2l-.3.3c-.1.1-.2.1-.2-.1 0-.1 0-.2-.1-.2s-.2.1-.2.2 0 .1.1.2c.2 0 .2.1.1.2l-.5.5c0 .2-.1.2-.1 0 0-.1 0-.2-.1-.2s-.2.1-.2.2 0 .1.1.2c.3.1.1.2 0 .3-.1.1-.3.2-.4.4-.7.7-1.4 1.3-2 2zm1.4-3.7c-.2 0-.3 0-.4.1-.1.1-.2.2-.3.4-.2.2-.3.2-.5 0s-.4-.4-.5-.6c-.1-.1-.1-.2 0-.3.3-.4.7-.7 1.2-.4.1 0 .2 0 .2.1.1.1.3 0 .4-.1.7-.4 1.4-.8 2-1.2.1-.1.2-.1.3 0 .1.1.2.1.2-.1 0-.3.1-.4.3-.6.4-.5.9-1 1.1-1.6 0 0 0-.1.1-.1-.1.3-.2.5-.2.8 0 .1-.1.3.1.3.2.1.2-.1.3-.2.2-.6.4-1.3.6-1.9.2-.5.1-.9-.1-1.3s-.4-.7-.6-1.1c-.1-.2-.1-.4 0-.5.1-.2.3-.3.6-.5-.1.2-.3.3-.4.5-.2.2-.2.3 0 .4l.5.5c.3.3.6.5.8.8.2.4.3.1.5 0 .3-.4.7-.7.9-1.1.1-.2.1-.3-.1-.4-.4-.4-.8-.7-1.1-1.2-.2-.2-.3-.2-.6-.1-.2.1-.3.2-.6.3.2-.3.3-.6.4-.9.1-.3.2-.2.4-.1.6.6 1.1 1.3 1.8 1.9.1.1.1.2 0 .4-.5.9-1.1 1.8-1.6 2.7-.2.4-.4.8-.7 1.1l-3.3 3.3c-.1.1-.2.4-.4 0 0-.1-.1 0-.2 0l-1.8.3c-.1 0-.2.2-.4.2-.2-.1-.3 0-.4.2 0 .2 0 .3.2.4.2.1.4 0 .4-.2.1-.2.2-.2.3-.2.2 0 .4 0 .6-.2.1-.1.2-.1.3 0 .2.2.3.1.5 0 .1 0 .3 0 .5-.1l-.5.5c-.1.1-.1.1-.2.1-.2-.2-.2-.1-.3.1 0 .1-.2.2-.2.3l-1.5 1.5c-.1.1-.2.3-.4.2-.1 0-.1 0-.1.1.1.2 0 .3-.2.4l-.8.8c-.1.1-.3.3-.5.2-.1 0-.2 0-.2-.1s.1-.2.1-.2c.7-.7 1.3-1.5 2-2.1.2-.2.4-.4.6-.7.2-.3.4-.7.9-.8zm5.4-11.3c-.2 0-.2-.1-.3-.2l-1.1-1.1c-.1-.1-.3-.2-.2-.3.1-.1.2-.3.4-.2.2 0 .3-.1.4-.2l.9-.9c.5-.5.5-.8 0-1.2-.1-.1-.2-.2-.4-.2-.3 0-.5.1-.7.3l-.8.8c-.4.4-.4.5 0 .9.1.1.2.2.1.3-.1.1-.3.2-.4 0l-.4-.4c-.1-.1-.1-.2 0-.4l1.9-1.9c.2-.2.3-.2.5 0 .8.8 1.5 1.6 2.3 2.4.8.8 1.6 1.6 2.3 2.4.3.3.3.3 0 .5 0 0 0 .1-.1.1-.2.3-.5.6-.8.8-.1 0-.1.1-.2.2-.2.3-.5.5-.7.8-.2.1-.3.1-.4 0-.4-.4-.7-.8-1.1-1.2-.2-.2-.5-.4-.7-.7.1-.1.4 0 .4-.1.1-.3.4-.4.6-.6.3-.3.5-.7 1-.9v-.1c.2-.4-.2-.6-.4-.8l-.9-.9c-.2-.2-.3-.2-.4-.2-.2 0-.1.2-.2.2-.3.2-.5.5-.7.7-.2.2-.4.5-.7.7-.2.2-.2.4 0 .6.2.1.5.4.8.8zM18 27c-.3-.3-.5-.7-.7-1.3-.2-.5-.2-.8.3-1.2.3-.2.5-.2.6.2 0 .1.1.2.2.2.4.1.6.4.8.8.1.1.1.2.3.3.3.2.6.4.8.8.1.1.1.2.3.3.2.1.4.2.4.4s-.6.6-.8.6c-1-.1-1.6-.4-2.2-1.1zm10.5-12.9c.1-.1.3-.2.4-.3.2-.1.3-.1.5.1.4.4.7.8 1.1 1.1.1.1.2.2.1.4-.5.6-1 1.1-1.6 1.6-.1.1-.2 0-.3 0l-1.3-1.3c-.1-.1-.1-.2 0-.3.3-.6.8-.8 1.1-1.3zm-6.8 14.7c-.2-.1-.4 0-.4.2s-.1.3-.2.3c-.6.6-1.2 1.2-1.7 1.8l-.1.1c-.1-.1-.2 0-.3.1-.1.2-.2.1-.4 0-.5-.4-.8-.9-1.3-1.3-.3-.2-.5-.5-.7-.8-.1-.2-.1-.3.1-.2.2 0 .3-.1.3-.3 0-.2.2-.4.4-.5.2-.1.3.1.4.2.1.1.2.1.2.2.2.2.3.2.4 0 .1-.2.3-.3.4-.5.1-.1.1-.2.2-.1s0 .2-.1.2l-.6.6c-.2.2-.2.3 0 .6.2.2.4.5.7.7.1.1.1.1.2.1.4-.1.9-.2 1.3-.5l.8-.8c.2-.2.3-.3.4-.1zm-6.5-4c-.1.1-.3.3-.1.5l.9.9c.1.1.3.1.4 0l.4-.4c.1-.1.1-.2.2-.1s.1.2 0 .3c0 .1-.1.1-.2.2-.1.2-.5.3-.3.6v.1c-.2.3-1.1 1-1.4 1.1-.1 0-.1 0-.1-.1l-1.4-1.4s-.1-.1-.1-.2.1-.1.2-.1c.3 0 .4-.1.3-.3v-.2c.3-.3.5-.6.8-.8.3-.1.3-.2.4-.1zm-4.3 2.8-.6-.6c-.1-.1-.1-.2 0-.3l.9-.9c.1-.1.3-.2.4-.2.2.1.4.2.5.3.2.2.5.5.6.8.1.2.1.2 0 .3l-1.1 1.1c-.1.1-.2.1-.4 0 0-.2-.2-.4-.3-.5zm6.6 5.2.6-.6s.1-.1.2 0c.1.2.4.3.6.5.2.3.5.5.6.7.1.1.1.1 0 .2-.3.4-.7.8-1.1 1.2-.1.1-.2.1-.3 0-.3-.4-.7-.7-1-1-.1-.1-.1-.2 0-.4s.2-.4.4-.6zm-1.8-9.9.9-.9c.1-.1.2-.1.4 0 .3.3.3.3 0 .6-.1.1-.2.2-.3.1-.1 0-.2.1-.2.2 0 .4-.3.6-.6.8-.2.2-.3.4-.7.4-.1 0-.1.1-.2.2-.2.5-.6.8-1 1.2h-.1c-.2 0-.3.1-.3.3 0 .2-.1.2-.2.1-.3-.2-.3-.5-.1-.7.3-.3.6-.7 1-1 .1-.1.2-.2.3-.2.1 0 .1 0 .1-.1 0-.2.1-.3.2-.3.3-.1.6-.4.8-.7zm5.7 4-.3.3c-.1.1-.1.2-.3.1-.1-.1-.1-.1-.1-.3.1-.2 0-.3-.2-.3-.1 0-.2 0-.3-.1-.2-.2-.5-.3-.5-.6 0-.2 0-.3-.2-.3-.4-.1-1-.7-1-1.1 0-.2-.1-.3-.3-.2-.1 0-.2 0-.2-.1-.1-.1 0-.1 0-.2l.6-.6c.1-.1.2-.1.2 0 .1.3.3.5.3.8.2.7.4 1.3 1.2 1.5.3.1.6.2.9.4.6.3.6.3.2.7zm-4.8.1c.2-.2.4-.4.5-.6.1-.1.2-.1.2 0 .1.2.3.5.5.7.1.1.1.2 0 .3-.3.4-.6.7-.9 1-.1.1-.1.1-.2.1-.2 0-.3 0-.3.3 0 .1 0 .2-.1.2-.1.1-.1 0-.2-.1l-.6-.6s-.1-.1-.1-.2.1 0 .1 0c.2 0 .5-.2.4-.3-.2-.2 0-.3.1-.4.3-.1.5-.3.6-.4zm9.7-16.4c.1.2.2.4.4.4s.4.2.5.4c0 .3.2.4.4.5l-.8.8c-.1.1-.1.1-.2 0-.3-.3-.7-.7-1-1.1-.1-.1-.1-.2 0-.3.2-.1.4-.5.7-.7zm6.7 6.7c0 .3.1.5.4.5.2 0 .3.2.4.4 0 .3.2.4.5.5l-.8.8c-.1.1-.2 0-.3-.1l-1-1c-.1-.1-.1-.2 0-.3l.8-.8zm-14.6 3.3.6-.6c.1-.1.3-.1.4 0 .1.1 0 .2-.1.3-.3.5-.6 1.1-.9 1.6-.4.5-.5 1-.2 1.6 0 .1.1.2 0 .3-.1.1-.2 0-.3-.1-.2-.2-.5-.3-.4-.7.1-.2.1-.5.1-.7.2-.9.3-1.5.8-1.7zm-3.8 9.1c-.4-.4-.7-.8-1.1-1.1-.5-.5-.5-.5 0-.9.1-.1.2-.1.3 0l1.7 1.7c.1.1.1.1.1.2-.2.2-.3.4-.6.5.2-.2.2-.4.2-.6 0-.2-.1-.3-.2-.3-.2 0-.3.1-.3.2s0 .2-.1.3zm6.6-9.7c-.6.6-.6.6-1.2 0-.2-.2-.1-.3 0-.4.7-.7 1.6-1.1 2.5-1.5.2-.1.2 0 .3.2 0 .1-.1.2-.2.3-.4.5-.9.9-1.4 1.4zm6.4.6-.5-.5c-.1-.1-.1-.3 0-.4l.7-.7c.1-.1.2-.2.3-.1.1.1 0 .2-.1.3 0 .1-.1.1 0 .2s.1 0 .2 0c.2-.2.3-.1.4 0l.2.2c.2.2.3.3.1.5 0 0-.1.1 0 .2s.1 0 .2 0l.1-.1s.1-.1.2 0 0 .1 0 .2c-.1.1-.2.2-.3.4-.1.2-.2.2-.4 0-.1-.1-.1-.1-.2-.1s-.1.1-.1.2 0 .2.1.2.2 0 .1.1c0 .1-.1.1-.1.2-.1.1-.2.1-.4-.1-.1-.4-.3-.5-.5-.7zM24 17.4c-.2-.2-.3-.4-.5-.5-.1-.1-.1-.2 0-.3.2-.1.1.1.2.1.1.1.2.1.3 0 .1-.1 0-.2 0-.2-.1-.1-.1-.2 0-.4.1-.1.1-.2.2-.2.1-.1.2-.2.3-.1.1.1 0 .2-.1.2-.1.1-.1.1 0 .2s.2 0 .2 0c.2-.2.3-.1.4 0l.3.3c.1.1.2.2 0 .4-.1.1-.2.1-.1.2s.1 0 .2-.1c.1 0 .1-.2.2-.1s0 .2-.1.2l-.7.7c-.2.2-.3.2-.4 0-.1-.1-.3-.2-.4-.4zm2.8-3c-.5-.2-.6-.4-.2-.8l.6-.6c.2-.2.3-.4.5-.5 0 .4.5.8.9.8l-.5.5-.8.8c-.1 0-.1.1-.2 0 0-.1 0-.1.1-.1.2-.1.2-.3.3-.5.1-.2.1-.4-.1-.5-.2-.1-.5 0-.7.4-.2.2.1.2.2.3-.1.1-.1.1-.1.2zm-5.4 9.5c0 .1-.1.3.1.2.2 0 .3.1.3.3 0 .1.1.4-.2.3-.1 0-.2.1-.3.3v.1c.1.1.2-.1.2-.1-.1.1-.2.2-.3.1-.1 0-.1-.1-.2 0-.2.4-.4.1-.6.1-.2-.1-.2-.2-.1-.3.5-.3.8-.7 1.1-1zm-.6.4-.5.5s-.1.1-.2.1c-.2-.1-.2-.3-.2-.5 0-.1-.1-.3.1-.3.2-.1.4-.3.4-.5 0-.3.1-.2.2-.3.2 0 .3 0 .5.1s.2.2.1.3c-.1.2-.2.4-.4.6zm-8.1.1c-.2.2-.4.3-.2.6.1.1.2.3.1.5s0 .3 0 .5c.1.2.2.5.5.7h-.2c-.4-.4-.8-.8-1.2-1.1-.1-.1 0-.2 0-.3.3-.4.7-.7 1-.9zm6.5-1.4c-.1-.3-.3-.2-.4-.1-.1.1-.2.1-.2 0-.1-.1-.2-.1-.2-.2-.2-.1-.1-.2-.1-.4l1.2-2.1c.2-.4.2-.4.6-.1v.1c-.3 0-.5 0-.6.3-.2.4-.5.9-.7 1.3-.1.2-.1.4.1.5.2.1.3.2.6.1-.2.3-.2.4-.3.6zm15-5.6c.1.1.2.1.2.2l.2.2c.1.1.2.2 0 .3-.1.1-.3.1-.4 0-.1-.1-.1-.1-.3-.2-.2 0-.4-.2-.5-.4-.1-.2-.2-.3-.3-.4-.1 0-.1 0-.1-.1 0-.2.4-.3.5-.2.3.3.5.5.7.6zm-16.8 13c-.2 0-.3-.1-.3-.1l-1.7-1.7c-.3-.3-.6-.5-.8-.9-.1-.1-.2-.3-.3-.3-.2-.1-.4-.2-.5-.4-.1-.2-.3-.3-.5-.4-.2-.1-.3-.4-.3-.6l4.4 4.4zm3.3 2c-.3.4-.6.7-1 .9-.1.1-.2 0-.3-.1l-.7-.7c-.1-.1-.1-.2 0-.3.3.1.5.5.8.2h.1c.1.2.4.1.5.2.1.1.1 0 .2-.1.2 0 .2-.1.4-.1zm6.9-21.6.4.4c.1.1.1.1.1.2l-.3.3c-.1 0-.1-.1-.1-.2-.1-.1-.1-.2-.3-.2-.2 0-.2-.1-.4-.2-.2-.2-.2-.4-.4-.6-.1-.1 0-.2.1-.3.1-.1.2 0 .3 0l.6.6zM16.4 30.2c.3.3.3.3 0 .7-.3.3-.4.3-.7 0-.4-.4-.4-.4 0-.8.2-.2.3-.2.5 0 .1 0 .2 0 .2.1zm5.4-11.9c-.8.2-1.3.7-1.9 1.2-.1.1-.3.2-.5.1.6-.8 1.3-1.4 2.4-1.3zm3.3.4c.1-.1.2-.3.3-.2.2.1.3.2.4.4 0 .1-.2.2-.2.2 0 .1-.2.2-.2.3-.1.2-.2.2-.3 0-.3-.2-.3-.3 0-.7zm1 .2-.5-.5c-.1-.1-.1-.2 0-.3.1-.1.2-.1.3 0l.9.9c.1.1.1.2 0 .3-.1.1-.2.1-.3 0l-.4-.4zm.2 1.1c-.3.3-.4.3-.7 0-.1-.1-.2-.2 0-.2 0 0 .2-.2.2-.3 0-.1.2-.3.3-.2.5.1.5.4.2.7zm-.8-2.2c.2-.3.6-.2.9-.2.1 0 .2.1.2.2s-.2.2-.3.3c-.1.1-.2 0-.2-.1-.2-.2-.4-.1-.6.1-.1.1-.1.2-.2.2h-.1v-.1c.1-.1.1-.3.3-.4zm.9-2c.1 0 .2-.3.4-.1l1 1c.1.1.1.2 0 .3-.1.1-.2.1-.2 0-.5-.4-.8-.8-1.2-1.2zm.9 6.3c-.1 0-.1-.1-.1-.2-.1-.3-.3-.5-.6-.7-.2-.2-.4-.4-.2-.7v-.2c0-.1-.1-.2 0-.2s.1.1.2.2c.2.5.5.9.7 1.4-.1.2 0 .3 0 .4zm-10.7-.4c.1 0 .1.1 0 0-.6.8-1.3 1.5-2 2.2l-.1-.1 2.1-2.1zm3.3 7.3-.6-.6c0-.1-.1-.1-.1-.2.1-.1.2 0 .2 0l.4.4.6.6c.1.1.1.2 0 .3-.1.1-.2 0-.2-.1-.1-.1-.2-.3-.3-.4zm5.2-9.3-.8-.8c-.1-.1-.1-.2 0-.2.1-.1.2 0 .2.1.2.2.2.4.4.6.4.4.7.9 1.2 1.1.1 0 .1.1.1.2s-.1.1-.2 0c-.1 0-.1-.1-.2-.2-.2-.3-.5-.6-.7-.8zm-5.5 9.4.5.5c.1.1.2.1.1.2s-.2 0-.3-.1c-.1-.2-.3-.3-.5-.5-.2-.1-.3-.3-.5-.5-.1-.1-.1-.1 0-.2s.2 0 .2.1c.2.1.3.3.5.5zm-1.9 2.2-.3-.3c-.1-.1-.1-.2 0-.3.1-.1.2-.1.2 0l.7.7c.1.1.1.1 0 .2s-.2.1-.2 0c-.2-.1-.3-.2-.4-.3zm11.7-12.4c.2-.2.4-.1.6.1.1.1.2.3.4.4.1.1.1.1 0 .2s-.2.1-.3 0c-.2-.2-.4-.5-.7-.7zm-6.2 9.5-2.1 2.1c.1-.2 1.8-1.9 2.1-2.1zm-4.1 1 .4.4s.2.1.1.2-.2.1-.2 0c-.3-.3-.5-.6-.8-.8-.1-.1-.1-.1 0-.2s.1 0 .2 0c.1.1.2.2.3.4zm-3.3-4.7c-.1 0-.1 0-.1-.1s.1-.1.2 0c.1 0 .2.1.2.1.2.2.5.4.7.7.1.1.2.1.1.2s-.2 0-.2-.1c-.4-.3-.7-.5-.9-.8zm2.2 3.5c-.3-.3.1-.4.2-.6.1-.2.2 0 .3.1.2.2-.1.4-.2.6-.1.1-.2 0-.3-.1zm-.4 3.2.3.3c.1.1.2.1.1.2s-.2 0-.2 0l-.6-.6c-.1-.1-.1-.1 0-.2s.2 0 .2 0c0 .1.1.2.2.3zm.1-8.1c.1.1.2.3.4.4 0 0 .1.1 0 .2 0 .1-.1 0-.1 0-.3-.3-.6-.6-.9-.8-.1 0-.1-.1 0-.2s.1 0 .2 0c0 .1.2.3.4.4zm-1.6 2.2.3.3c0 .1.1.1.1.2-.1.1-.1 0-.2 0-.3-.3-.6-.6-.9-.8-.1-.1-.1-.1 0-.2s.1 0 .2 0l.5.5zM14.4 24c-.1.4-1.2 1.4-1.4 1.4.5-.5.9-1 1.4-1.4zm-1.1 2.9c0-.1.1-.1 0 0 1.3 1.2 2.5 2.5 3.8 3.8-1.3-1.3-2.5-2.6-3.8-3.8zm13.3-8.4c-.1-.1-.3-.2-.1-.4.1-.1.2-.3.3-.1.1.1.3.2.1.5-.1.2-.2.2-.3 0zm-9.7 5.6.4.4s.1.1 0 .2-.1 0-.1 0c-.2-.2-.5-.4-.7-.7-.1 0-.1-.1 0-.2s.1 0 .2 0c0 .1.1.2.2.3zm3 4.2c.2 0 .3 0 .4.1.2.2.3.4.5.5.1.1.1.1.1.2-.1.1-.1 0-.2 0l-.8-.8zm-.6-6.4c-.1 0-.1 0 0 0-.1-.1 0-.1 0 0 0-.1 0 0 0 0z"/><path d="M25.6 24.6c.2-.2.3-.4.5-.6.1-.1.1-.2 0-.3-.1-.1-.2-.1-.3 0-.3.2-.5.5-.7.8-.1.1-.1.3.1.3.1.1.3 0 .3-.1l.1-.1zM22 21.3c.2.2.6.2.8 0 .2-.2.2-.6 0-.8-.2-.2-.6-.2-.8 0-.2.2-.2.6 0 .8zm.1-.1c-.2-.2-.2-.5 0-.7.1-.1.5-.2.6-.1.2.2.2.5 0 .7-.1.2-.4.3-.6.1zM31.1 19.6c-.3.1-.3.5-.6.7-.1.1-.1.2 0 .3.1.1.1.1.3 0 .5-.2.7-.7 1.1-1 .1-.1.2-.2.1-.4 0-.1-.1-.1-.2-.1s-.3 0-.4.2l-.3.3zM31.7 18l.5-.5c.4-.4.3-.7 0-1-.4-.4-.7-.4-1.1 0l-.9.9c-.2.2-.2.4 0 .6.1.2.3.3.5.5s.4.2.5 0c.2-.1.4-.3.5-.5zm-.2-1.7c0 .5.4.9.8.8v.1c-.4.5-.8.9-1.3 1.3-.1.1-.2.1-.3 0-.2-.2-.3-.4-.5-.6-.1-.1-.1-.2 0-.3.4-.4.9-.8 1.3-1.3zM20.3 19.7c-.1.1-.1.2 0 .3.1.1.2.1.3 0 .3-.2.6-.3.7-.6.1-.1.1-.2 0-.3-.1-.1-.2-.1-.3 0-.2.2-.4.4-.7.6zM28.6 20.1c.1-.1.2-.3.1-.4-.1-.2-.2-.2-.3-.2-.2 0-.3.1-.4.2-.1.1-.1.3-.2.5-.1.1 0 .2.1.2.1.1.1.1.2.1.1-.2.4-.2.5-.4zm-.1 0c-.1.1-.3.1-.4 0-.1-.1-.1-.3 0-.5.1-.1.3-.1.4 0 .1.2.1.3 0 .5zM24.2 17.2l.1.1c.2-.1.5-.1.7-.4.1-.2 0-.5-.2-.6-.2-.1-.5 0-.6.2-.1.1-.1.3-.2.4 0 .1.1.2.2.3zm.2-.2c0-.3-.1-.6.3-.6.2 0 .3.1.3.3-.1.3-.4.3-.6.3z"/><path d="M30.6 18.2c.1.2.2.3.4.1.3-.3.4-.6.2-.8-.2-.2-.4-.1-.8.3-.2.2.1.2.2.4z"/><path fill="none" d="M0 0h45v45H0z"/><path fill="none" d="M4.5 4.5h36V18h-36z"/><path fill="#010101" d="M7.3 11.6 5.6 4.9h1.5c.7 3.1.9 4.4 1 5.2.3-1.3.9-3.6 1.3-5.2h1.3c.3 1.3 1 3.9 1.2 5.1.2-1.5.9-4.1 1.1-5.1h1.4l-1.8 6.7h-1.5c-.4-1.5-.9-3.6-1.2-4.8-.1 1.2-.8 3.4-1.1 4.8H7.3zM16.8 8.9v2.7h-1.4V4.9h2.9c1.5 0 2.2.8 2.2 1.8 0 .9-.5 1.4-1 1.6.3.1.8.5.8 1.7v.3c0 .5 0 1 .1 1.3H19V10c0-.7-.2-1.1-1.3-1.1h-.9zm0-1.1H18c.8 0 1.1-.3 1.1-.9 0-.6-.4-.9-1.1-.9h-1.2v1.8zM26.5 8.7h-3.2v1.7h3.5l-.2 1.2h-4.8V4.9h4.8v1.2h-3.3v1.4h3.2v1.2zM33.6 9.5c-.3 1.2-1.2 2.2-2.9 2.2-2.1 0-3.1-1.5-3.1-3.4 0-1.8 1-3.5 3.2-3.5 1.8 0 2.6 1 2.8 2.2h-1.4c-.1-.5-.5-1-1.4-1-1.2 0-1.7 1.1-1.7 2.3 0 1.1.4 2.3 1.7 2.3.9 0 1.2-.6 1.4-1h1.4zM34.7 4.9h1.4v3c.4-.5 1.8-2 2.7-3h1.7l-2.7 2.8 2.8 3.9h-1.7l-2.1-3-.7.7v2.3h-1.4V4.9z"/><path fill="none" d="M27 27h13.5v13.5H27z"/><path fill="#010101" d="M32.2 38.8c.1.6.5.8 1.2.8.6 0 .9-.3.9-.7 0-.5-.3-.7-1.2-.9-1.5-.4-1.9-.9-1.9-1.7 0-1 .7-1.6 2.1-1.6 1.5 0 2.1.8 2.2 1.6h-1.2c-.1-.3-.2-.7-1-.7-.5 0-.8.2-.8.6 0 .4.2.5 1.1.8 1.6.4 2 1 2 1.8 0 1-.8 1.7-2.2 1.7-1.4 0-2.2-.7-2.3-1.7h1.1zM38.9 36.4c-.1-.3-.2-.5-.7-.5-.7 0-.9.7-.9 1.4.2-.3.6-.5 1.2-.5 1 0 1.7.7 1.7 1.8s-.7 2-2 2c-1.5 0-2.1-1.2-2.1-2.7 0-1.4.5-2.8 2.1-2.8 1.2 0 1.7.7 1.8 1.4h-1.1zm.1 2.3c0-.5-.2-1-.8-1-.5 0-.8.3-.8.9 0 .4.2 1 .8 1 .6 0 .8-.4.8-.9z"/><g fill="#010101"><path d="m7.3 27.4.2-.2h-.6c-.2-.1-.4-.2-.5-.4-.1-.2-.1-.3-.1-.5v-.2c0-.3 0-.5.1-.7.1-.2.2-.3.3-.4.3-.3.7-.3 1.1-.2h.7c.4-.1.6-.2.8-.5.1-.2.1-.5.1-.8 0-.4 0-.9.3-1.3l.6-.6c.1-.1.3-.2.5-.2h.1c.1 0 .3.1.3.2.1.1 0 .2-.1.3-.2.2-.4.5-.4.8v-.1c.2-.4.5-.7.9-1.1.2-.2.4-.3.6-.4-.3-.1-.5 0-.7 0-.1 0-.2.1-.3 0-.1-.1 0-.2 0-.3.3-.4.5-.8.8-1 .3-.3.6-.4 1-.4.2 0 .3 0 .4.1.1 0 .2.1.2.2v.3s0 .1-.1.1c.4-.4.9-.5 1.4-.5 0 0-.1 0-.1-.1-.1-.1-.3-.1-.5-.1s-.2-.1-.2-.2 0-.2.1-.2l.3-.3.1-.1.3-.3.1-.1.1-.1c.1-.1.2-.2.4-.3.1 0 .2-.1.3-.1h.2s.1.1.1.2 0 .2-.1.3c.2-.2.4-.3.6-.3h.6c.2 0 .4.1.6.1h.1c.1 0 .2.1.3.1 0 0 0-.1-.1-.1-.3-.3-.6-.5-1-.5-.1 0-.2 0-.2-.1v-.2c0-.1.1-.1.1-.2.1-.1.2-.2.2-.4.1-.2.1-.4.2-.7v-.1c0-.2 0-.3.1-.5.1-.4.5-.9 1.1-.8h.1c.2 0 .4 0 .5.1.3.1.5.3.5.6.1.2.1.4.1.6v.1c.1 0 .1 0 .2-.1.5-.2.9-.3 1.4-.4h.4c.4.1.6.3.7.6.1.1.1.2.1.3 0 .1 0 .1-.1.1s-.1 0-.1-.1v.1c0 .2 0 .4-.1.5v.1c-.1.3-.3.6-.5.8 0 0-.1.1-.3.1.5 0 .5-.1.5-.2s0-.2-.1-.3v.8c0 .2-.1.3-.2.5 0 .1-.1.1-.1.2s-.1.1-.3.1c-.1 0-.2-.1-.2-.2v-.2c0-.2-.1-.3-.2-.4.1.5-.2 1.1-.7 1.4h-.1c-.1.1-.3.1-.4.1-.1 0-.2-.1-.3-.3-.1-.1-.1-.2-.2-.2v.1c0 .1.1.2.1.4s-.1.4-.3.5c-.1.1-.2.2-.4.3-.1.1-.2.1-.3.1-.1 0-.1-.2-.2-.2 0-.2-.2-.3-.4-.4v.2c.1.3 0 .6 0 .9 0 .2-.2.4-.3.5-.2.2-.4.3-.6.4-.1 0-.2.1-.3.1h-.2c.1.1.1.1.3.1h.4c.1 0 .3-.1.3.1.1.1.1.3 0 .4-.1.2-.3.3-.5.5-.1.1-.2.1-.3.2-.1 0-.2.1-.2.1-.2.1-.3.3-.4.4-.3.4-.7.5-1.1.5-.2 0-.2-.1-.2-.3 0-.3.1-.5.2-.6.1-.2.2-.3.2-.5 0 .1-.1.2-.1.3-.2.3-.4.6-.8.8-.4.2-.8 0-1-.4-.1-.1 0-.3 0-.4.1-.3.2-.5.3-.7-.2.3-.4.5-.8.7h-.1s-.1 0-.1.1c-.1.1-.3.1-.4.1h-.1v.1c0 .1 0 .1-.1.2s-.1.2-.2.2c0 .1-.1.1-.1.2-.2.3-.5.4-.7.5-.1 0-.2.1-.3.1-.1 0-.2.1-.3.1-.1.1-.2.1-.2.2v.2h-.2c-.2-.1-.3-.1-.4 0-.1.1-.2.2-.2.4v.1c.2.5.1.7-.2 1-.3.3-.6.5-1 .6h-.7zm-.4-.4H7c.2.1.5.1.7 0l.3-.2c.1-.1.3-.3.4-.5.1-.1.1-.2.2-.3 0-.1.1-.2.2-.3 0-.1.1-.2.2-.2 0-.2.1-.4.3-.5.1-.1.3-.1.5 0 0-.1.2-.2.3-.2.1 0 .3-.1.4-.1.1 0 .2 0 .3-.1.2-.1.5-.2.6-.4 0-.1.1-.1.1-.2.1-.1.1-.2.2-.3v-.1c0-.2.1-.3.3-.2h.3s.1 0 .1-.1h.1c.4-.2.6-.4.8-.7.1-.2.2-.4.2-.5 0-.2.1-.2.2-.2s.1.1.1.2v.2c0 .2-.1.3-.2.5 0 .1-.1.1-.1.2-.1.2-.2.4-.3.7 0 .1-.1.2 0 .3.2.3.4.4.8.3.3-.1.5-.4.7-.7l.3-.6c0-.1.1-.1.1-.1.1 0 .1.1.1.1v.3c-.1.2-.2.4-.3.7-.1.2-.2.4-.2.6 0 .1 0 .1.1.1.4 0 .7-.1 1-.4.1-.2.3-.4.5-.5.1 0 .2-.1.3-.1.1-.1.2-.1.3-.2.2-.1.3-.2.4-.4.1-.1.1-.2 0-.3h-.1c-.2 0-.3.1-.5 0-.1 0-.2 0-.4-.1 0 0-.1-.1-.1-.2s.1-.1.1-.1H16.6c.1 0 .2 0 .3-.1.2-.1.4-.2.6-.4.1-.1.2-.3.3-.5 0-.2.1-.5 0-.8v-.4c.1-.1.2 0 .2 0 .3.1.4.3.5.5v.1l.1-.1c.1-.1.2-.2.4-.3.1-.1.2-.2.2-.3 0-.1 0-.2-.1-.3v-.2s0-.1.1-.2.2 0 .2 0c.1.1.2.2.2.3.1.1.1.2.2.2s.2 0 .2-.1l.1-.1c.4-.2.7-.8.6-1.2v-.2l.1-.1.1.1c.2.2.4.4.4.7v.2h.1c0-.1.1-.1.1-.2.1-.2.1-.3.2-.5v-.8c0-.1 0-.2.1-.2s.1 0 .2.1.2.3.2.4v.1h.1c.2-.2.4-.5.5-.8v-.1c0-.1.1-.3.1-.4 0-.3-.1-.5-.3-.7v-.2h-.5c-.5 0-.9.2-1.4.3-.1 0-.1 0-.2.1h-.2c-.1 0-.1-.1-.1-.2V16c0-.2 0-.4-.1-.5 0-.2-.2-.3-.4-.4-.1-.1-.3-.1-.5-.1h-.1c-.5 0-.9.4-.9.7v.6c0 .2 0 .5-.2.8-.1.1-.2.3-.3.4 0 .1-.1.1-.1.2.5 0 .8.3 1.1.6.1.1.1.1.1.2v.2c-.1.1-.2 0-.2 0-.1 0-.2-.1-.3-.1h-.1c-.2-.5-.4-.6-.6-.6H17c-.3.1-.5.2-.6.4 0 .1-.1.2-.1.2v.1l-.1.4-.1-.4v-.5c0-.1 0-.1.1-.2 0-.1.1-.2.1-.2v-.1h-.1c-.1 0-.2.1-.3.1l-.3.3-.1.1-.1.1-.3.3-.1.1c-.1.1-.2.2-.4.3h.1c.2 0 .4.1.5.1.2.1.4.1.5.3l.2.2-.3-.1H15.3c-.5-.1-1 0-1.4.4l-.1.1c-.1.1-.1.2-.2.2l-.1.1V20c0-.1.1-.1.1-.2 0 0 0-.1.1-.1v-.1l-.1-.1c-.1 0-.2-.1-.4-.1-.3 0-.6.1-.9.4-.3.3-.5.6-.8 1v.1h.1c.2-.1.5-.1.8 0 .1 0 .2.1.2.2s-.1.1-.1.2c-.2.1-.4.2-.6.4-.4.3-.7.6-.8 1 0 .1-.1.1-.1.2s-.1.2-.1.3l-.1.2-.1-.2v-.3c0-.4.2-.8.5-1.1.1-.1.1-.1 0-.1 0-.1-.1-.1-.1-.1H11c-.1 0-.3 0-.4.1h-.1c-.2.1-.4.3-.6.5-.3.3-.3.8-.3 1.2 0 .2 0 .5-.1.8-.1.3-.4.5-.9.6h-.7c-.3 0-.7 0-.9.2l-.3.3c-.1.2-.1.4-.1.7v.2c0 .1 0 .2.1.4-.1.2 0 .3.2.4zm2-1.2c-.1.1-.1.2-.1.3-.1.1-.1.2-.2.4l.3-.3v-.4z"/><path d="M11.5 31.2c-.1 0-.2-.1-.2-.1-.4-.1-.5-.2-.6-.6 0-.1.1-.2.1-.3v-.1c0-.1.1-.2.1-.3v-.1l.1-.1c.2-.3.4-.5.7-.8.2-.1.3-.2.5-.3h.1v-.2c-.1-.2-.1-.5-.1-.7 0-.3.2-.4.4-.5.2-.1.4-.2.6-.2.1 0 .2-.1.3-.1h.1c.1 0 .3-.1.4-.2-.2-.3-.4-.6-.4-.9 0-.2 0-.4.1-.6V25h-.1c-.3 0-.6 0-.9-.2-.2-.1-.4-.3-.4-.5-.1.1-.3.2-.4.3-.1.1-.2.2-.4.3-.3.2-.6.3-1 .5h-.1c-.1 0-.3.1-.5 0-.1-.1-.1-.1-.1-.2s.1-.1.2-.2c.3-.1.5-.2.8-.2.5-.1.8-.3 1-.7 0-.1.1-.1.1-.2v-.1c0-.1 0-.2.1-.3.1 0 .1-.1.2 0 .2.1.4 0 .6-.2 0 0 .1 0 .1-.1.3-.2.5-.4.7-.8V22s0-.2.1-.2.2.1.2.1c.1.1.1.3 0 .4-.1.3-.2.6-.3.8-.1.2-.2.4-.2.6 0 .1.1.3.2.4.3.1.5 0 .8-.2.3-.3.6-.8.7-1.2 0 0 0-.1.1-.1 0 0 .1 0 .2.1.1.2.1.4 0 .6-.1.3-.2.5-.4.8-.1.1-.1.2-.1.4.4 0 .7-.1.9-.4.2-.3.4-.5.8-.7h.1c.2-.1.5-.3.7-.5v-.2h-.1c-.2.1-.5.1-.7 0-.1 0-.3-.1-.4-.3v-.2l.1-.1h.4c.5-.1.8-.4 1-.8.1-.3.1-.7 0-.9v-.1c0-.1 0-.1-.1-.2s0-.1 0-.2c0 0 .1-.1.2-.1.4 0 .7.2.8.6v.1s.1 0 .1-.1c.1-.1.2-.1.3-.2.1-.1.2-.3.1-.5v-.1c0-.1-.1-.3-.1-.4 0-.1.1-.2.1-.2h.2l.3.3c0 .1.1.1.1.1.1 0 .1 0 .2-.1.1 0 .1-.1.2-.1.1-.1.2-.1.2-.2.3-.3.3-.7.2-1.1-.1-.1-.1-.2 0-.2.1-.1.2 0 .3 0 .1.1.3.3.4.5.1.2.1.3.1.5 0-.1.1-.1.1-.2.1-.1.1-.3.1-.4.1-.3 0-.6 0-.8 0 0 0-.1.1-.2s.2 0 .2 0c.2.1.3.3.3.6.3-.4.5-.7.5-1 0-.3 0-.6-.2-.8l-.1-.1s0-.1-.1-.1c0 0-.1-.1 0-.2 0 0 .1-.1.2-.1.2 0 .3.1.4.2.2.2.3.4.3.6.1.3 0 .6-.1.8-.1.3-.3.6-.5.9l-.2.2-.1.1s-.1.1 0 .2l.2.2c.1.1.1.1.1.2v.1s0 .1-.1.1h-.1s0 .1-.1.1l-.1.2c-.1.2-.2.4-.3.7-.1.3-.3.6-.7.8-.3.1-.7.1-.9-.1-.1-.1-.1-.2 0-.3.1-.1.1-.3.1-.4-.2.3-.5.5-.8.7.2 0 .2.1.3.2.1.3.1.6 0 1-.1.3-.2.6-.5.7-.1.1-.3.1-.4.2-.1 0-.2 0-.3-.1-.1-.1-.1-.1-.1-.3V21.6c-.1.1-.1.2-.2.3-.1.2-.2.4-.3.5h.1c.1 0 .1.1.1.2.1.4-.1.7-.2 1-.2.4-.4.7-.7.9-.2.2-.5.2-.7.2-.1 0-.2-.1-.2-.1v-.2c0-.1.1-.2.1-.3-.2.3-.6.5-.9.6-.1.1-.2.1-.4.2s-.3.2-.5.3c-.3.2-.3.4-.3.6 0 .1.1.2.1.3 0 .1.1.3.1.4.1.4 0 .6-.3.9-.2.1-.2.2 0 .4l.1.1c.1.1.3.4.1.7-.1.3-.4.6-.9.5-.1 0-.3-.1-.4-.2-.1-.1-.2-.2-.3-.2v.1c0 .1 0 .3-.1.4-.1.2-.2.3-.4.4.1 0 .1 0 .1.1.2.1.2.3.2.5s-.1.4-.3.5c0 .3-.4.5-.9.5zm0-.2c.4 0 .9-.1 1.3-.4.1-.1.2-.2.2-.3 0-.1-.1-.2-.2-.3-.1-.1-.1-.1-.2 0s-.2.1-.3.1H12s-.1-.1-.1-.2.1-.1.1-.1h.5c.2-.1.3-.2.4-.4 0-.1.1-.2.1-.4v-.1c0-.1 0-.2.1-.2h.2c.1.1.2.2.4.3.1.1.2.2.3.2.3.1.5 0 .7-.4.1-.2.1-.4-.1-.5l-.1-.1c-.2-.2-.2-.5.1-.7.2-.2.3-.4.2-.7 0-.1-.1-.3-.1-.4 0-.1-.1-.2-.1-.3-.1-.4 0-.6.4-.8.2-.1.3-.2.5-.3.1-.1.2-.1.3-.2.3-.2.6-.4.8-.6 0 0 .1-.1.2-.1.1.1.1.2.1.2 0 .1-.1.3-.1.4v.1h.1c.2 0 .4 0 .6-.1.3-.2.5-.5.7-.9.1-.3.2-.6.2-.9v-.1s-.1.1-.2.1c0-.1 0-.2.1-.2.1-.2.3-.4.4-.6.1-.1.2-.3.3-.4v-.1h.1c.1.1 0 .3 0 .4V22.8h.1c.1 0 .2 0 .3-.1.2-.1.3-.3.4-.6.1-.3.1-.6 0-.9 0-.1 0-.1-.2-.1h-.1s-.1 0-.2-.1c0-.1 0-.1.1-.2.4-.2.7-.5.9-.8.1-.1.1-.1.2-.1s.1.2.1.2c0 .2-.1.3-.1.5v.1c.2.2.5.2.7.1.3-.2.5-.4.6-.7.1-.2.2-.4.3-.7l.1-.2c.1-.2.1-.2.3-.2 0 0 0-.1-.1-.1l-.2-.2c-.1-.2-.1-.3 0-.5l.1-.1c.1 0 .1-.1.2-.1.2-.3.4-.5.5-.8.1-.2.1-.5.1-.7-.1-.2-.2-.4-.3-.5l-.1-.1v.1c.3.3.3.6.3.9 0 .4-.2.8-.6 1.2 0 0-.1.1-.2.1s-.1-.1-.1-.2c0-.2-.1-.4-.2-.5v.9c0 .2-.1.3-.2.4 0 .1-.1.1-.1.2s-.1.1-.2.1-.1-.1-.1-.2c0-.2 0-.3-.1-.4-.1-.2-.2-.3-.3-.4.1.5 0 .9-.3 1.2-.1.1-.2.2-.3.2-.1 0-.1.1-.1.1-.1.1-.2.1-.4.1-.1 0-.2-.1-.3-.2l-.3-.3c0 .1 0 .2.1.4v.1c.1.2 0 .5-.2.7-.1.1-.2.1-.3.2l-.1.1c-.1.1-.1.1-.2.1s-.1-.1-.1-.2c-.1-.3-.3-.4-.6-.4 0 .1.1.1.1.2v.1c.1.4.1.7 0 1.1-.2.5-.6.8-1.1.9h-.4c0 .1.1.1.2.2.2.1.4 0 .6 0h.3c.1.1.1.2 0 .3 0 .1 0 .1-.1.1-.2.3-.5.4-.7.6h-.1c-.3.2-.5.3-.7.6-.2.4-.6.5-1.1.5-.1 0-.1 0-.2-.1v-.2c0-.2.1-.3.2-.5.2-.3.3-.5.4-.8.1-.2.1-.3 0-.4-.1.5-.4.9-.7 1.3-.3.3-.6.4-.9.2-.2-.1-.4-.4-.4-.6.1-.3.2-.5.3-.7.1-.3.3-.5.3-.7V22 22.3c0 .1 0 .2-.1.2-.2.4-.4.7-.8.9 0 0-.1 0-.1.1-.2.1-.5.3-.8.2v.1c0 .1 0 .2-.1.2l-.1.1c-.2.4-.6.7-1.1.8-.2 0-.5.1-.8.2h.4c.4-.1.7-.3 1-.4l.3-.3c.1-.1.3-.2.4-.3.1 0 .1-.1.2 0 .1 0 .1.1.1.2 0 .2.2.3.3.4.3.1.5.2.8.2.1 0 .2 0 .2.1v.3c-.1.2-.1.4-.1.6 0 .3.1.6.4.9l.1.1-.1-.3c-.1.2-.3.2-.5.3h-.1c-.1 0-.2.1-.3.1-.2.1-.4.1-.6.2-.2.1-.3.2-.3.4s0 .4.1.7v.1c.1.2 0 .2-.2.3-.2.1-.3.2-.5.3-.3.2-.5.5-.6.7v.2l.1.1c0 .1 0 .1-.1.2v.1c0 .1-.1.2-.1.3.1.3.1.4.4.4.1-.1.1 0 .2 0zm.5-1.2h.2c.1 0 .2-.1.2-.1h-.2c0 .1-.1.1-.2.1zm6.1-7.1zm-.4-2.9zm1.4-.8zm3.5-.1zm-.1-3.4z"/><path d="m7.3 27.2-.4-.1c-.3-.1-.5-.3-.6-.5-.3-.5-.3-1 0-1.5.1-.2.2-.3.3-.4.1 0 .1-.1.2-.2s.3-.2.5-.3h.2c.2-.1.4-.1.6-.1.3 0 .5.1.7.3h.1l.1-.1V22.2c.1-.5.2-.8.4-1.1.3-.3.7-.4.9-.5h.3c-.1-.3 0-.6.2-.9.2-.4.5-.7.8-.9.6-.3 1.1-.1 1.5.1.1-.3.2-.5.4-.8.3-.2.6-.4 1-.5.2-.1.3-.1.5-.2.3-.1.6-.2.8-.3.2-.1.4-.3.5-.5.2-.3.4-.6.6-1 .2-.4.4-.7.6-.9.3-.3.6-.4 1.1-.4.2 0 .5 0 .7.1.2.2.5.3.6.6v.2l-.1.2-.1-.2c-.1-.3-.4-.4-.7-.5h-.4c-.4 0-.7.4-.7.8v.2c0 .2 0 .4-.1.7l-.3.6v.1s0 .1-.1.1H17.7c.3.1.6.3.8.5.1.1.1.2.2.3V18.3h-.2c-.3-.2-.6-.3-1-.3-.4-.1-.8-.1-1.1.2-.2.1-.2.3-.2.5 0 0 0 .1-.1.2H16c-.1 0-.1-.1-.1-.1-.1-.2-.1-.4 0-.6 0-.1 0-.1.1-.2 0-.1.1-.2.1-.3-.2.1-.4.2-.6.4-.1.1-.2.2-.3.2l-.3.3-.3.3-.1.1c.1 0 .2.1.4.1.3.1.5.3.7.4.1.1.1.2.1.2s-.1.1-.2.1c-.2-.1-.5-.1-.7-.1-.4 0-.7.1-1 .4l-.1.1-.3.3c0 .1-.1.1-.2.1s-.1-.1-.1-.2 0-.2.1-.3c.1-.1.1-.2.2-.3v-.1c-.2-.1-.4-.1-.6-.1-.5.1-.7.5-1 .9l-.1.1c-.1.1-.1.2-.2.3.3-.1.6-.1.9 0 .1 0 .2.1.2.2s-.1.2-.1.2c-.1.1-.2.1-.3.2-.3.2-.5.4-.7.7-.3.3-.4.7-.6 1.1 0 .1-.1.1-.2.1s-.1-.1-.1-.2c-.1-.2 0-.5.1-.8.1-.3.3-.5.4-.7H11c-.3 0-.6.2-.9.4-.3.3-.5.7-.5 1.3 0 .3 0 .6-.1.8-.1.3-.3.5-.6.6-.4.2-.7.2-1.1.1h-.6c-.3.1-.7.3-.7.7v.9c0 .1.1.2.2.2s.1.1.2.1c0 0 .1 0 .1.1l.3.3zm.6-2.9c-.2 0-.3 0-.5.1h-.2c-.2 0-.3.1-.4.2l-.2.2c-.1.1-.2.2-.2.3-.2.4-.2.8-.1 1.1v-.7c.1-.5.5-.8.8-.9h.6c.4.1.7 0 1-.1.3-.1.4-.3.5-.5.1-.2.1-.4.1-.8 0-.6.2-1.1.5-1.4.2-.2.5-.5 1-.5.1 0 .2 0 .2.1.1.1 0 .2-.1.2-.1.2-.3.4-.4.6-.1.2-.1.5-.1.6.1-.4.3-.7.6-1 .3-.3.5-.5.8-.7.1-.1.2-.1.4-.2h-.1c-.3-.1-.6-.1-.8 0-.1.1-.2 0-.2 0-.1-.1 0-.2 0-.2.1-.1.2-.3.2-.4l.1-.1c.3-.4.6-.8 1.1-.9.2-.1.5 0 .7.1.1 0 .1.1.1.1V19.8c-.1.1-.1.2-.2.3 0 0 0 .1-.1.2l.3-.3.1-.1c.3-.3.7-.4 1.1-.4.2 0 .4 0 .5.1-.2-.1-.3-.2-.5-.3-.1 0-.3-.1-.4-.1-.1 0-.2-.1-.2-.1 0-.1.1-.1.1-.1l.1-.1c.1-.1.2-.2.3-.2.1-.1.2-.2.4-.3.1-.1.2-.1.2-.2.2-.2.5-.3.7-.4h.2s.1.1 0 .2c0 .1-.1.2-.1.3 0 .1 0 .1-.1.2v.3c0-.2.1-.3.3-.5.4-.3.9-.3 1.3-.2.4 0 .7.1 1 .3 0-.1-.1-.2-.1-.2-.2-.2-.4-.4-.7-.5H17.2c-.1 0-.1 0-.2-.1 0 0 0-.1.1-.2l.1-.1s0-.1.1-.1c.1-.2.3-.3.3-.5.4-.5.4-.7.4-.9v-.2c0-.5.4-.9.9-1h.7-.1c-.2-.1-.5-.1-.7-.1-.4 0-.8.1-1 .4-.2.2-.4.5-.5.9-.2.4-.4.7-.6 1-.2.2-.3.4-.6.5-.3.1-.6.2-.8.4-.2.1-.3.1-.5.2-.3.1-.6.3-.9.5-.2.2-.3.4-.4.7 0 .1 0 .2-.1.2h-.2c-.5-.3-.9-.3-1.3-.1-.3.2-.6.4-.8.8-.1.1-.1.3-.1.6v.2s-.1.1-.2.1h-.3c-.4.1-.6.2-.8.4-.2.2-.3.6-.4 1V23.6c0 .3-.1.6-.2.8 0 .1-.1.2-.2.2h-.3c-.2-.2-.4-.3-.7-.3zM11.8 31.6s-.1 0 0 0c-.2 0-.3 0-.5-.1-.1 0-.3-.1-.5-.1h-.1c-.2 0-.3.1-.4.1 0 0-.1.1-.2 0-.1 0-.1-.1-.1-.1s0-.1.1-.1c.2-.3.4-.7.5-1v-.1c0-.1 0-.1.1-.2 0 0 0-.1.1-.1 0-.1.1-.2.2-.3l.2-.1v.2c0 .2-.1.4-.1.5 0 .1-.1.2-.1.3 0 .2 0 .3.2.4.1 0 .2.1.3.1.5 0 .9-.2 1.2-.5.1-.1.2-.2.1-.3 0-.1-.1-.2-.2-.3h-.1c-.3.2-.5.2-.7 0-.1 0-.2-.1-.1-.2 0-.1.1-.2.2-.2s.2 0 .4-.1h.1c.3 0 .5-.2.5-.4 0-.1.1-.3 0-.4v-.2c.1-.1.2 0 .2 0 .2.1.3.2.4.3l.1.1c.1.1.2.1.3.2.3.1.4 0 .6-.3.1-.2.1-.3-.1-.4 0 0-.1-.1-.1-.2V28c-.2-.3-.2-.5.1-.7.2-.2.3-.4.2-.7 0-.2-.1-.3-.1-.5 0-.1 0-.1-.1-.2-.1-.4 0-.7.4-.9.1-.1.3-.2.4-.2.2-.1.4-.2.5-.3.3-.2.6-.3.7-.6 0 0 .1-.1.2-.1s.1.2.2.2c0 .2 0 .3-.1.5v.1h.1c.3 0 .5-.1.7-.3.3-.3.5-.7.6-1.2v-.3s-.1.1-.2.1h-.1v-.2l.1-.1c.3-.3.4-.7.6-1v-.2h.1c.1 0 .1.1.1.1.1.1.1.3.1.4V22.7h.1c.3-.1.4-.3.5-.5.1-.4.2-.7.1-1v-.1h-.2c-.1 0-.2-.1-.3-.2 0-.2.1-.2.2-.2.4-.2.7-.5 1-.9 0 0 .1-.1.2-.1s.1.1.1.2c0 .2 0 .4-.1.7v.1h.1c.5.3.9-.1 1-.3.2-.2.3-.5.4-.7 0-.1.1-.2.1-.3.1-.1.1-.3.2-.4 0 0 .1-.1.2-.1s.1.1.2.1c.1.3.1.6 0 .9-.1.4-.4.7-.8.9-.5.3-1 .5-1.6.5.1.1.1.2.2.3.2.6.2 1.2-.2 1.8-.2.3-.4.5-.7.6-.2.1-.4.1-.7 0-.1-.1-.3-.1-.4-.3 0 .1-.1.2-.1.3V24.3c-.1.2-.1.5-.3.6-.4.5-1 .7-1.5.4-.1 0-.2-.1-.2-.1-.1-.1-.2-.1-.4-.2-.2 0-.3 0-.5.1-.1.1-.2.1-.2.2-.1.1-.2.3-.1.5V26.1c0 .1.1.2.1.3.1.2.2.4.2.6.1.3 0 .6-.3.7H15v.1c.2.2.3.4.3.6 0 .2-.1.4-.3.6-.3.3-.8.6-1.4.7h-.4c.1.2.1.3.1.5 0 .3-.1.5-.3.7-.2.5-.7.7-1.2.7zm-1.6-.1zm.5-.3s.1 0 0 0c.2 0 .4.1.6.1.1 0 .3.1.4.1.5 0 1-.2 1.3-.5.2-.2.3-.4.3-.6 0-.2 0-.3-.1-.5 0-.1-.1-.1 0-.2 0-.1.1 0 .2 0h.4c.5-.1.9-.3 1.3-.6.2-.2.2-.3.2-.5s-.1-.3-.2-.5c0-.1-.1-.1-.1-.2s.1-.1.1-.2c.2-.1.3-.3.2-.5-.1-.2-.1-.4-.2-.6 0-.1-.1-.2-.1-.3v-.1c0-.1 0-.1-.1-.2 0-.2 0-.5.2-.7.1-.1.2-.1.3-.2.2-.1.4-.2.7-.1.1 0 .3.1.4.2.1 0 .1.1.2.1.5.2.9.1 1.3-.4.1-.2.2-.4.2-.6V23.9c0-.1.1-.3.1-.4 0 0 0-.1.1-.1s.1 0 .1.1c.1.1.2.2.4.3.2.1.4.1.5 0 .3-.1.5-.3.6-.6.3-.5.3-1.1.1-1.7 0-.1-.1-.2-.1-.2v-.1s-.1-.1 0-.2c0-.1.1-.1.2-.1.6 0 1.1-.1 1.5-.4.3-.2.6-.5.7-.8.1-.3.1-.5 0-.8-.1.1-.1.2-.2.4 0 .1-.1.2-.1.3-.1.3-.2.5-.4.7-.3.4-.7.6-1.2.3-.1-.1-.2-.1-.1-.3.1-.2.1-.4.1-.6-.3.4-.7.8-1.1 1h-.1.2c.2-.1.3 0 .4.2.1.3.1.7-.1 1.1-.1.3-.3.5-.6.6h-.3s-.1-.1-.1-.3v-1c-.1.3-.3.7-.6 1v.1c.1-.1.1-.1.2 0 .1 0 .1.1.1.2v.5c-.1.5-.3 1-.6 1.3-.2.2-.4.4-.8.4-.1 0-.2 0-.3-.1v-.3c.1-.2.1-.3.1-.4-.2.3-.5.5-.8.7-.2.1-.4.2-.5.3-.1.1-.3.2-.4.2-.3.1-.4.4-.3.7 0 .1 0 .1.1.2 0 .2.1.3.1.5.1.4 0 .6-.2.9-.2.1-.2.3 0 .5v.1l.1.1c.1.1.2.3.1.6-.2.3-.4.5-.8.4-.1 0-.2-.1-.3-.2l-.1-.1c-.1-.1-.2-.2-.4-.2v.5c-.1.3-.3.5-.7.6h-.1c-.1 0-.2 0-.3.1h-.1.1c.2.1.3.1.5 0 .1 0 .2-.1.3 0 .2.1.2.3.3.4 0 .2-.1.3-.2.4-.4.3-.8.5-1.4.5-.1 0-.2 0-.4-.1-.3-.1-.4-.3-.3-.6-.1.3-.2.6-.5.9.1 0 .2-.1.3-.1-.4 0-.3-.1-.3-.1zM6 29.9c-.2-.1-.2-.2-.3-.3V29.3c-.1-.3 0-.7.2-1 .2-.3.5-.5.9-.4h.3c.3 0 .5.2.6.5l.1.2s0 .1-.1.1c-.2.3-.4.6-.7.8-.3.2-.6.3-.8.2-.1.1-.1.2-.2.2zm-.1-.5s0 .1 0 0c0 .1.1.2.1.2s.1-.1.1 0c.2.1.4 0 .7-.2.3-.2.5-.5.6-.8 0 0 0-.1.1-.1l-.1-.2c-.1-.2-.2-.3-.4-.3h-.4c-.3 0-.5.1-.7.3-.2.3-.2.6-.2.9v.1c.1 0 .2.1.2.1z"/><path d="m5.9 29.9-.2-.4c-.2-.4-.2-.9 0-1.3v-.1c0-.1.1-.2.2-.3.3-.3.8-.4 1.2-.2.3.2.5.4.7.7l-.2.1c-.1-.2-.3-.3-.5-.3h-.5c-.3.1-.5.2-.6.6-.1.2-.1.5-.1.8v.4zm.7-2.3c-.2 0-.5.1-.6.2-.1.1-.1.1-.1.2v.1c-.1.2-.1.4-.1.7v-.2c0-.2.2-.6.7-.7H7.1c-.1-.1-.2-.2-.3-.2 0 0-.1-.1-.2-.1zM4.1 28.7c-.2 0-.4-.1-.5-.3-.2-.3-.2-.5-.1-.8.1-.2.2-.2.3-.3.1-.1.3-.1.4-.1.2 0 .3.1.4.2.1.1.2.3.1.4v.2c0 .2-.1.4-.3.5 0 .2-.1.2-.3.2zm.2-1.3c-.1 0-.2.1-.4.1-.1.1-.2.1-.2.2-.1.2-.1.4.1.6.2.3.6.2.7.1.1-.1.2-.3.2-.4v-.3c0-.1 0-.2-.1-.3h-.3zM11.8 31.7c-.2 0-.3 0-.5-.1h-.1c-.2 0-.3-.1-.5-.1-.1 0-.1-.1-.1-.1v-.1H11.5c.1 0 .2.1.4.1.5 0 1.3-.3 1.5-.8.1-.2.1-.4 0-.7 0-.1-.1-.2 0-.3 0-.1.1-.1.3 0 .4 0 .8-.1 1.2-.3.3-.2.5-.4.5-.6.1-.2 0-.4-.1-.6V28l-.4-.5.5.3c.2.1.3.3.3.6 0 .2-.1.5-.3.7-.5.5-1.1.7-1.8.7.2.5.1.9-.3 1.2-.5.4-.9.6-1.5.7zM15.1 26.4l-.1-.2c-.2-.3-.2-.5-.1-.8.1-.2.3-.3.5-.4.4-.2.7 0 1 .1.4.2.7.3 1 .1.3-.1.5-.3.7-.6.1-.2.1-.4.2-.6V23.7c0-.1 0-.2.2-.2.1 0 .2.1.2.1l.1.1c.1 0 .1.1.2.1l.2.2h-.3c-.2 0-.3-.1-.4-.2 0 .1-.1.3-.1.4 0 .1-.1.2-.1.3-.1.5-.5.8-.9.9-.4.1-.7 0-1-.1-.1-.1-.2-.1-.4-.2s-.3 0-.4 0c-.1.1-.2.1-.4.2s-.2.3-.1.6v.5zM11 29.7l-.1-.1c.1-.2.3-.5.5-.7.2-.2.5-.4.8-.5 0-.1 0-.1-.1-.2 0-.1 0-.1-.1-.2-.1-.2-.1-.4 0-.6.1-.2.2-.4.4-.4.2-.1.4-.2.6-.2h.2c.2-.1.5-.1.7-.3l.2-.2-.1.3c0 .1-.1.2-.2.2-.2.1-.4.2-.6.2-.1 0-.3.1-.4.1-.5.2-.7.5-.5 1.1v.1c.1.3.1.4-.3.5-.3.2-.6.4-.9.8.1 0 0 0-.1.1.1 0 0 0 0 0zM20.4 22l-.2-.3c-.1-.1-.1-.2-.2-.3 0 0-.1-.1 0-.2 0-.1.1-.1.2-.1.7 0 1.3-.2 1.7-.6.5-.4.6-.8.5-1.4V19l.1-.4.1.3c.2.4.1.8-.1 1.2-.2.4-.6.6-.8.8-.4.2-.9.3-1.4.4.1.1.1.2.1.3v.4z"/><path d="M9.4 32.1s-.1 0-.1-.1c-.1-.1 0-.2 0-.2l.2-.2c.5-.3.8-.7 1-1.3 0-.1 0-.1.1-.2V30h.1s.1 0 .1.2c-.1.4-.2.7-.5 1 .1 0 .2-.1.3-.1l.4.2h-.3c-.2 0-.5.1-.7.4-.1.1-.3.2-.5.3l-.1.1c.1 0 .1 0 0 0zM22.6 19.2l-.1-.2c0-.1-.1-.1-.2-.2s-.2-.3-.2-.4c0-.1.1-.2.2-.4.4-.3.7-.8.8-1.5V16.2l.1-.1v.1c.1.2 0 .4 0 .6-.1.4-.3.7-.4 1-.1.2-.3.4-.4.5-.1 0-.1.1 0 .2 0 .1.1.1.2.2s.1.2.1.3l-.1.2zM6.6 30.1c-.1 0-.3 0-.4-.1-.1 0-.2-.1-.2-.2l-.1-.1H6.2c.4.3.8 0 1-.2.1-.1.1-.1.3-.1l.1.1v.1c-.1.2-.3.4-.6.5h-.4zM7.7 29.1h-.1c-.1 0-.1-.1-.1-.2v-.3c0-.1 0-.1.1-.2l.1-.1v.1c.1.3.1.5 0 .7z"/><path d="M7.5 29.6c-.1 0-.1-.1-.2-.1v-.1s0-.1.1-.1c0-.1.1-.1.1-.2 0 0 .1-.1.2-.1h.1v.1c-.1.1-.2.3-.3.5zM10.7 30.5l-.1-.3v-.1c0-.1 0-.1.1-.2l.2-.2v.2c0 .1-.1.2-.1.3l-.1.3zM7.9 27.1c-.1 0-.1 0 0 0-.1 0-.1 0-.1-.1v-.1c0-.1.1-.1.1-.1.3-.2.5-.5.6-.8.1-.3.2-.5.4-.7 0-.1.1-.1.1-.1s.1 0 .1.1v.2c.1.3 0 .5-.2.8-.3.3-.6.5-1 .6.1.2.1.2 0 .2zm1-1.5c-.1.2-.2.3-.3.5-.1.2-.2.4-.4.6.2-.1.4-.3.6-.5.2-.1.2-.3.1-.5v-.1zM18 22.6h-.1.1c-.1-.2 0-.3 0-.3.2-.2.3-.5.4-.7 0-.1.1-.2.1-.2l.2-.3v.4c0 .1-.1.2-.1.3v.1c-.1.3-.3.5-.5.8 0-.1-.1-.1-.1-.1zM11.4 31.1c-.1 0-.3-.1-.4-.1-.1-.1-.2-.2-.2-.4 0-.1 0-.1.1-.2l.1-.2v.2c0 .3 0 .3.3.4h.1c.1 0 .1 0 .2.1l.1.1h-.2l-.1.1z"/><path d="M17.8 22.9c-.1 0-.1 0-.1-.1 0 0-.1-.1 0-.2v-.1l.1-.1.2-.2v.2c0 .1-.1.1-.1.2l.1.1h-.1c0 .2 0 .2-.1.2.1 0 .1 0 0 0z"/><path d="M17.9 22.9h-.3l.2-.1c.1 0 .1-.1.2-.1h.2l-.1.2c.1-.1 0 0-.2 0zM18.8 21.7l-.2-.2-.1.1v-.1s0-.1.1-.1h.1c.1 0 .1.2.1.2v.1zM9.5 32.1l-.1-.2 1-.8v.2c0 .1 0 .1-.1.1v.1l-.2.1c-.1.1-.3.2-.4.3-.1.1-.1.2-.2.2zM6.6 30.1c-.1 0-.2 0-.4-.1-.1 0-.2-.1-.2-.2 0 0-.2-.1-.1-.2 0 0 0-.1.1-.1h.2c.3.1.5 0 .8-.2 0-.1.2-.3.4-.6v-.1s0-.1.1-.1.1.1.2.1v.5l-.2.5-.1.1c-.1.1-.2.2-.3.2-.1.1-.3.2-.5.2zm-.5-.4.1.1c.3.1.5.1.8-.1.1-.1.2-.1.2-.2l.1-.1.2-.4v-.3c-.2.3-.3.5-.5.7-.2.2-.5.4-.9.3zM4.1 28.7c-.3 0-.4-.1-.5-.3-.1-.2 0-.5.1-.6 0 0 .1 0 .1-.1.3-.2.4-.2.6 0 .1.1.3.3.2.6 0 .2-.2.4-.5.4zm.2-1c-.1 0-.1 0-.2.1 0 0-.1 0-.1.1-.1.1-.1.3-.1.4.1.2.1.2.3.2.2 0 .4-.1.4-.3.1-.1 0-.2-.1-.4-.1-.1-.2-.1-.2-.1z"/></g><g fill="#010101"><path d="m15.7 35.6-.1-.1c-.4-.4-.6-.8-.6-1.2 0-.2.1-.5.2-.6-.1-.2-.2-.3-.2-.4-.1-.5 0-1 .4-1.4.1-.1.2-.2.4-.3l.1-.1c.1-.1.1-.1.2-.1h.1c.3-.2.5-.2.8-.2.1 0 .2 0 .3.1V31c.1-.4.3-.7.7-.8h.3c.1 0 .2.1.3.1l.2.2c.1 0 .1-.1.2-.1.1-.1.3-.1.4-.2 0 0-.1-.1-.1-.3 0-.4.2-.7.3-.8.2-.2.4-.4.7-.5.3-.2.7-.1.9.1 0 0 .1 0 .1.1v-.1c0-.1 0-.2.1-.3.2-.4.4-.6.6-.8l.1-.1c.2-.2.5-.4.7-.5.3-.2.6-.2.9.1.1.1.2.2.3.4.1.3.2.5.1.7 0 .3-.2.5-.4.7l-.1.1.1.1c.1.1.1.2.2.4 0-.1.1-.1.1-.1.1-.1.3 0 .4.1l.1.1c.1.1.3.3.4.5.1-.1.2-.2.3-.2.3-.2.6-.2.9-.2.2 0 .3.1.5.1.2.1.4.2.5.4.3.3.4.7.2 1.1 0 .1-.1.1-.2.2l.1.1-.1.2c-.1.1-.2.1-.3.1.2-.9.2-.9.1-.9 0 .1 0 .3-.1.4l-.4.4c-.4.2-.7.2-1 .1-.1 0-.1-.1-.2-.1-.1.2-.2.4-.4.5l-.1.1c-.1.1-.2.1-.3.2 0 0-.1 0-.2.1-.2 0-.2 0-.3-.1v-.1c-.2.2-.4.3-.5.3-.3.1-.5.1-.8 0-.2-.1-.3-.2-.4-.3 0 .2-.1.3-.1.4-.1.2-.2.3-.4.4l-.1.1c-.2.2-.5.4-.7.6-.1.1-.2.1-.2.1h-.1c-.1 0-.2 0-.3-.1v-.1c-.1.1-.3.2-.6.2 0 0 .1.1 0 .3 0 .1-.1.2-.2.3-.2.2-.5.4-.8.5-.4.1-.7 0-1-.3-.2-.2-.3-.4-.4-.6V34h-.2l.1.1c.1.1 0 .3 0 .4v.1c-.1.3-.3.4-.6.5-.2.1-.4.1-.5 0-.2 0-.3-.1-.5-.1 0 0 0 .1.1.1.1.1.1.2 0 .3v.2zm2-1.4c.1.2.1.3.3.4.2.2.4.3.7.2.3-.1.5-.2.7-.4 0 0 0-.1.1-.1h-.2s-.2-.1-.2-.2 0-.2.2-.2h.4c.2 0 .3-.1.5-.2s.4-.3.6-.5l.1-.1.1-.1.3-.3v.4c0 .1 0 .2-.1.3-.1.1-.1.2-.2.3.2-.2.4-.3.6-.4l.1-.1.3-.3c.1-.2.1-.4 0-.5h-.2v-.1c0-.1 0-.1-.1-.2 0-.1-.1-.2-.2-.3-.1-.1-.1-.1-.2-.3l-.1-.3.3.1c.2.1.4.2.5.4 0 0 0 .1.1.1 0 0 0 .1.1.1.3-.1.5-.2.7-.4.1-.1.2-.1.2 0l.1.1v.1c0 .1-.1.2-.1.3l-.1.1c-.1.1-.2.3-.3.4.1.1.2.2.3.2.2.1.4.1.6 0 .3-.1.5-.3.6-.5 0-.1.1-.2.1-.3l.1-.1.1.1c.1 0 .1.1.1.1.1.2.1.3 0 .5.1 0 .2-.1.2-.1l.1-.1c.1-.1.2-.2.2-.4 0-.1.1-.2.1-.2.1-.1.2 0 .2 0h.1c.1 0 .1.1.2.1.3.1.5.1.6 0 .2-.1.3-.2.4-.3.1-.1.1-.2.1-.2-.1-.1 0-.2 0-.3.1-.1.1-.2.1-.4V30.3h.1c.1 0 .2.1.2.1.1.1.1.2.1.2.1-.1.1-.2 0-.3h-.1v-.1c0-.1-.1-.1-.1-.1-.1-.1-.2-.2-.4-.3h-.1c-.1 0-.2-.1-.3-.1-.2 0-.5 0-.7.2-.1.1-.2.1-.3.2-.1.1-.1.1-.2.1s-.1 0-.2-.1c-.1-.2-.3-.3-.4-.5l-.1-.1V29.8c-.1.3-.2.5-.4.7l-.4.4.1-.6v-.1c.1-.2.1-.4.1-.6 0-.2-.1-.4-.2-.5-.1-.1-.1-.2-.3-.2H23v-.6c.2-.1.4-.1.6-.1h.1c.2-.2.3-.3.3-.5s0-.3-.1-.5c-.1-.1-.1-.2-.2-.3-.2-.1-.4-.1-.6 0-.2.1-.4.3-.7.5l-.1.1c-.2.2-.4.4-.6.7 0 .1 0 .1-.1.2v.2s-.1.2-.2.2-.2 0-.2-.1h-.1s-.1 0-.1-.1c-.2-.1-.4-.2-.6-.1-.2.1-.4.2-.5.4-.2.2-.3.5-.3.7.3-.1.7-.1 1 0l.2.2.1.2h-.5c-.4.1-.7.2-1.1.4-.1.1-.3.2-.4.3-.1.1-.1.2-.2.3l-.1.2-.2-.2c-.1-.1-.1-.2-.1-.2 0-.2.1-.4.3-.6-.1 0-.1-.1-.2-.1h-.1c-.3.1-.4.3-.5.6V31s0 .1-.1.2-.2 0-.2 0c-.1 0-.2-.1-.2-.1-.2 0-.5 0-.7.2-.1 0-.1.1-.2.1s-.1 0-.1.1l-.1.1-.3.3c-.3.3-.4.7-.3 1.1 0 .1.1.2.1.3.2.2.1.3 0 .5-.1.1-.2.2-.1.4v.1l.1.1s.1 0 .1.1c.2.2.4.3.8.3h.4c.2-.1.3-.1.4-.3v-.2h-.1c-.1 0-.3 0-.4-.1-.1-.1-.1-.2-.2-.3v-.1l-.2-.3.4.1c.1 0 .1.1.2.1.1.1.2.1.4.1.3 0 .5-.1.8-.4.1-.1.2-.3.4-.4l.3-.3v.8c0 .2-.1.4-.3.4-.2.1-.3.2-.5.3h-.5zm1.8.2zm-2.4-.1zm2.3 0zm-1.7-.1zM22 32c0 .1 0 .1 0 0 .1.1.1.1 0 0l.1.1.1-.1.1-.1c-.1.1-.2.1-.3.1zm-2.4-2.4zm1.8-1.2z"/><path d="M19.2 37.5c-.1 0-.3 0-.4-.1-.4-.1-.7-.4-.8-.9 0-.1 0-.1-.1-.2 0 0 0 .1-.1.1-.2.3-.6.6-1.1.5-.2 0-.3-.1-.3-.2-.3-.3-.4-.5-.4-.8v-.1c0-.1 0-.2-.1-.3-.1 0-.1-.1-.1-.1 0-.1-.1-.2-.2-.3l-.3-.6v-.2l.1-.1s.2-.1.3.1c.1 0 .1.1.2.1.1.1.2.1.3.2.2.1.4.1.6.1.2 0 .3-.1.3-.2 0 0 0-.1.1-.1v-.1c-.2 0-.3-.1-.4-.2-.1-.1-.2-.3-.2-.4v-.1c0-.1 0-.2.1-.3 0 0 .2-.1.3.1.1.2.3.2.5.2.4-.1.7-.3 1-.6l.2-.2c.1-.2.2-.1.2-.1l.2.2v.4c0 .3-.2.5-.5.6-.1 0-.2.1-.3.2l-.1.1c0 .1 0 .1.1.2.1 0 .1.1.1.2 0 0 0 .1.1.1.2.2.4.2.6.2.3-.1.5-.2.6-.4-.1 0-.2-.1-.3-.2 0 0-.1-.1-.1-.2s.2-.2.2-.2c.1 0 .2 0 .3-.1h.2c.3-.1.5-.1.6-.2l.6-.6c.1-.2.3-.1.3-.1s.1.1.1.3c0 .1 0 .2-.1.3.1-.1.3-.2.4-.3.2-.2.3-.3.3-.4v-.1l-.1.2-.2-.1s-.1-.1-.1-.2c0-.2 0-.4-.2-.6l-.1-.1-.1-.1c-.1-.1-.1-.2 0-.3 0 0 .1-.1.3-.1.3.1.4.2.6.4 0 .1.1.1.1.1s.1 0 .1-.1c.2-.1.4-.2.6-.4.1-.1.2-.1.2-.1s.1.1.1.2 0 .3-.2.4c0 0-.1.1-.1.2l-.3.3c.1.1.3.2.4.2.2 0 .4 0 .6-.2.2-.1.3-.3.4-.5v-.1c0-.2.1-.2.1-.2s.2 0 .3.1c.1.2.2.4.1.5.1-.1.3-.2.4-.2.1-.1.1-.1.1-.2l-.1-.2.1.1v-.1c0-.2.1-.2.1-.2h.2c.1.1.2.1.4.2.3.1.5.1.7-.1l.1-.1.2-.2v-.1l-.1-.1c0-.1 0-.2.1-.2.1-.2.1-.3 0-.6V30s.1-.2.3 0l.3.3V30c0-.2.1-.2.1-.2s.1-.1.2.1c.1.1.2.3.2.6 0 .2-.1.4-.2.5.1.1.3.2.3.3.1.2.2.4.2.6v.1h-.1c-.1.5-.3.8-.7 1.1-.1.1-.3.1-.4.1-.1 0-.2-.1-.2-.1l-.2.2c-.1.1-.2.1-.3.2h-.2c.2.3.1.6-.1.9-.1.1-.3.2-.5.3-.1.1-.2.1-.2.2-.2.1-.4.2-.7.3h-.6c0 .1 0 .1-.1.2l-.3.3c-.3.2-.6.2-.9.2-.1 0-.1 0-.2-.1-.1.1-.3.1-.4.2-.1.1-.3.1-.4.2-.1 0-.2.1-.2.1h-.3c-.1 0-.2-.1-.2-.1v-.1c-.1.1-.2.2-.3.2.1.1.1.1.1.2.1.3 0 .7-.2.9-.7 0-1.1.1-1.5.1zm-1.3-1.8.2.2c.1.1.1.2.1.2 0 .2.1.3.1.4.1.4.4.6.7.7.4.1.8 0 1.1-.3.2-.2.2-.4.2-.6v-.1c-.3.1-.5.1-.8 0l.1-.3h.2c.1 0 .2-.1.4-.2l.1-.1c.2-.1.3-.2.4-.4.1-.1.1-.2.1-.4v-.1c0-.2.2-.2.2-.2.1 0 .2 0 .2.2s.1.4 0 .6v.2h.1c.1 0 .2-.1.3-.1.1 0 .2-.1.3-.1.2-.1.3-.2.5-.3.1 0 .1-.1.2-.2 0 0 0-.1.1-.1l.1-.1c0-.1.1-.1.1-.1l.3.1c0 .1-.1.2-.1.2s0 .1-.1.1v.1l-.1.1c.2 0 .4 0 .7-.2.1-.1.2-.1.2-.2l-.3-.3-.4-.6.6.4c.2.2.5.2.9.2.2 0 .4-.1.5-.2.1-.1.2-.1.2-.2.1-.1.3-.2.4-.3.1-.1.2-.3.1-.4-.1 0-.1.1-.2.1l-.1.1h-.1c-.1.1-.2.1-.3.2h-.5l.4-.3.1-.1c0-.1.1-.1.2-.2s.2-.3.2-.5 0-.3-.1-.5l-.3-.1-.1.1c-.1.1-.3.2-.5.3l-.1.1h-.1c-.1 0-.2 0-.2-.1 0 0-.1-.1 0-.3 0 0 .1-.1.1-.2-.1.2-.2.4-.4.5-.3.2-.5.3-.8.2-.2 0-.4-.1-.6-.3-.1-.1-.1-.1-.1-.2s0-.1.1-.2l.3-.3c-.1.1-.2.1-.3.1-.3.3-.4.3-.5.3l.1.1c.1.2.2.4.1.6-.1.2-.2.4-.4.6-.3.2-.5.5-.9.7 0 0-.1.1-.2.1 0 0-.1.1-.2 0 0 0-.1 0-.1-.1v-.1c-.2.1-.4.1-.6.1H19.4c.2 0 .2.1.3.1 0 .1 0 .2-.1.3-.2.3-.5.5-.9.6-.3.1-.6 0-.9-.2-.1-.1-.1-.1-.1-.2 0 0 0-.1-.1-.1-.1-.1-.1-.2-.2-.3v-.1c-.1-.1 0-.3.1-.3s.1-.1.2-.1c.1-.1.2-.2.4-.2.2-.1.3-.2.3-.3-.3.3-.6.6-1.1.7h-.5c.1.1.1.1.2.1s.2 0 .3.1c.1.1.1.2 0 .4 0 0 0 .1-.1.1v.1c-.1.2-.3.3-.5.4-.3.1-.5 0-.7-.1-.1 0-.3-.1-.4-.2 0 0 0 .1.1.1.1.1.1.2.2.3 0 0 0 .1.1.1.2.1.3.3.3.6 0 .2.1.4.3.6l.1.1h.1c.3 0 .6-.1.9-.4.1-.1.1-.2.2-.3v-.2zm-2 .3zm.3 0zm.8-1.6zm8.6-1.4c.1 0 0-.1 0-.1v.1zm.3-.2zm-.7-1 .3.3.2.2c.1.1.2.3.2.4l.1-.1c.2-.2.4-.3.5-.5l.3-.6v.7c0 .1 0 .3-.1.4.1 0 .1 0 .1-.1.3-.2.5-.6.6-1.1h.1c0-.1-.1-.2-.1-.3l-.2-.2H26.9c-.1 0-.2-.1-.2-.2v.1c.1.2 0 .3 0 .4l-.3.3-.1.1c-.3.3-.7.3-1 .2-.1 0-.2-.1-.3-.1l.2.1zm1.5.8zm-4.3-.3zm0-.1zm5.3-.8c.1 0 .1 0 0 0zm-.6-.7zm-.1-.2c0 .1 0 .1 0 0 0 .1 0 .1 0 0 0 .1 0 .1 0 0zm-.1-.7z"/><path d="m14.8 34.3.4-.6s0-.1.1-.1c0 0 0-.1-.1-.1-.2-.2-.3-.5-.4-.7-.2-.4-.2-.8 0-1.2l.3-.3.1-.1c.2-.2.3-.3.5-.3h.1s.1 0 .1-.1c.2-.1.3-.2.5-.2h.2c-.1-.4-.1-.7.1-1.2.1-.2.3-.5.5-.7l.3-.3h.1c.3-.3.7-.4 1-.4.4 0 .7.1.9.3l.1.1.1.1c.1-.2.2-.3.4-.5s.3-.3.5-.4c.2-.1.4-.1.6 0 .1 0 .3.1.3.2 0 0 0-.1.1-.1.1-.2.2-.3.3-.5l.6-.6c.3-.2.6-.4.9-.4.2-.1.4-.1.5-.1h.5c.5.1.8.3.9.8.1.3 0 .6-.2.8l-.1.1c.1 0 .2.1.2.1.1.1.3.2.4.3.1.2.2.5.1.7h.2c.4 0 .8.1 1.1.3l.4.2-.5.1h-.4c-.5 0-.8.1-1 .3l-.1.1s0 .1-.1.1c-.1.1-.2.1-.2.1-.1 0-.1 0-.2-.1-.1-.2-.2-.3-.4-.5v.2c-.1.3-.3.6-.6.9-.1.1-.2 0-.2 0-.1-.1-.1-.2 0-.3 0 0 .1-.1.1-.2.2-.3.2-.6 0-.8 0 0 0-.1-.1-.1 0-.1-.1-.1-.1-.2-.1-.1-.2-.2-.3-.1h-.2c-.1.1-.2 0-.3-.1 0 0-.1-.1.1-.3.1-.1.2-.1.3-.1.2 0 .3-.1.5-.1 0 0 .1 0 .1-.1.2-.3.2-.5.1-.7-.1-.2-.3-.5-.5-.5-.1 0-.2 0-.4.1s-.3.2-.5.4l-.1.1c-.2.1-.3.3-.4.4-.2.3-.3.6-.4.8 0 .1 0 .2-.1.2s-.2 0-.2-.1l-.1-.1c-.1 0-.1-.1-.2-.1-.1-.1-.2-.1-.3-.1-.4.1-.6.3-.9.7-.1.1-.1.2-.1.3.2-.1.5-.1.8 0 .2 0 .3.1.4.2.1.1.1.2.1.3 0 0-.1.2-.2.1h-.6c-.3.1-.7.2-1 .5-.2.2-.4.3-.4.5s-.1.2-.2.2c0 0-.2 0-.2-.2-.1-.3 0-.6.2-.8-.1 0-.1-.1-.2-.1 0 0-.1 0-.3.1-.2.2-.3.4-.3.7v.2c0 .1 0 .2-.1.3-.1.1-.2 0-.3 0-.2-.2-.4-.2-.7-.1-.3.1-.5.2-.7.4-.2.2-.3.3-.4.5-.1.2-.1.4-.1.7 0 .2.1.3.2.4.1.1.1.1 0 .2 0 0 0 .1-.1.2 0 0-.1 0-.1.1l-.7.3zm1.8-3.5h-.2c-.1 0-.3.1-.4.2 0 0-.1 0-.1.1h-.1c-.2.1-.3.2-.4.3l-.1.1c-.1.1-.2.2-.2.3-.1.3-.1.6 0 .9v.1c0-.2 0-.4.1-.5.1-.3.3-.5.5-.6.2-.2.5-.4.8-.5.2-.1.5-.2.8 0v-.1c0-.3.1-.6.4-.9.2-.2.4-.2.6-.2.1 0 .2.1.3.1l.2.2v.1h.1c.4-.3.8-.4 1.1-.5-.1 0-.2 0-.3.1 0 0-.2.1-.3 0-.1-.1-.1-.2-.1-.2 0-.2.1-.4.2-.6.3-.5.6-.8 1.1-.8.2 0 .4 0 .6.1.1 0 .1.1.2.1.1-.3.2-.6.4-.9.1-.2.3-.3.5-.5l.1-.1c.2-.2.4-.3.6-.4.2-.1.4-.2.6-.1.3.1.6.4.7.7.1.4 0 .7-.2 1-.1.1-.1.2-.3.2l.1.1c.1.1.1.2.1.2s0 .1.1.1c.1.2.1.3.1.5V29.1s0-.2.1-.2c.1-.1.2 0 .3.1l.1.1c.1.1.3.3.4.5l.1-.1c.2-.1.4-.2.5-.3h-.3c-.2.1-.2 0-.3-.1 0 0-.1-.1 0-.3.1-.1.1-.4 0-.5l-.3-.3h-.2c-.2 0-.2-.1-.2-.1 0-.1 0-.2.1-.2l.1-.1c.1-.1.1-.2.2-.2.1-.1.2-.3.1-.5-.1-.3-.3-.5-.7-.6h-1c-.3.1-.5.2-.8.4-.2.2-.4.4-.5.6-.1.1-.2.3-.3.4 0 .1-.1.1-.1.2-.1.1-.1.1-.2.1s-.2-.1-.2-.2-.1-.2-.2-.2h-.3c-.2.1-.3.2-.4.4-.1.2-.3.4-.4.6-.1.1-.2.1-.2.1s-.1 0-.2-.1c0-.1-.1-.1-.2-.2l-.1-.1c-.1-.2-.3-.2-.6-.2s-.5.1-.8.4h-.1c-.1.1-.2.1-.3.2-.2.2-.3.4-.4.7-.2.4-.2.7 0 1v.2c-.1.1-.2.2-.3.2zm7.3-.6zM19.2 37.7H18.9c-.2 0-.4-.1-.6-.3-.2-.1-.3-.4-.4-.6-.3.2-.7.3-1.1.3l-.3-.1c-.1-.1 0-.2 0-.2s.1-.1.2-.1c.3.1.5-.1.8-.3.2-.1.2-.3.3-.5 0-.2.1-.2.2-.2s.2.1.2.2c.1.1.1.3.1.4.1.4.3.7.6.9.3.2.9.1 1.2-.2.1-.1.2-.2.2-.4v-.2c-.3.1-.5.1-.8 0-.1 0-.3-.2-.2-.4 0-.1.1-.1.1-.1.1 0 .2 0 .2.1h.2l.6-.3c.2-.2.3-.4.4-.7v-.2c0-.1.1-.2.2-.2s.2 0 .2.1c.1.3.1.5.1.8 0 .1 0 .1-.1.2.3 0 .6-.2.8-.3.2-.1.4-.2.5-.4 0-.1.1-.1.1-.1h.1c.1 0 .1.1.1.3l-.1.1c.3 0 .5-.1.7-.3-.1-.1-.2-.3-.3-.5l-.1-.3h.2c.1 0 .2 0 .2.1.2.2.4.2.6.2.2 0 .4 0 .5-.1.1-.1.3-.2.4-.3.1 0 .1-.1.2-.1.1-.1.2-.1.3-.2.1-.1.1-.1.1-.2l-.2.2c-.1.1-.2.1-.4.2-.2 0-.2-.1-.2-.1s0-.1.1-.2l.2-.2c.1-.2.2-.4.2-.6 0-.2 0-.3-.1-.4v-.1c-.1-.1 0-.2 0-.3 0 0 .1-.1.3 0l.3.3c.1.1.2.2.2.4.2-.1.3-.2.5-.4.1-.1.1-.2.1-.3v-.4l.3.4c.1.2.1.4.1.5.3-.2.4-.5.5-.9V31l.3.4c.1.1.1.2.1.2v.1c0 .5-.1 1-.4 1.3-.3.3-.5.4-.9.3 0 .3-.1.6-.3.9-.2.3-.5.5-.8.8-.3.2-.7.4-1.1.5H24c-.1 0-.2-.1-.3-.1-.2.1-.3.3-.5.4-.2.1-.5.2-.8.2-.1 0-.2-.1-.3-.1 0-.1-.1 0-.1.1-.2.5-.6.8-1 1.1-.5.4-1.1.6-1.8.6zm1-1.8c.1 0 .1.1.1.2s.1.3.1.5-.1.3-.3.5c-.1.1-.2.2-.4.3.4-.1.7-.2 1-.4.4-.3.6-.6.9-1 .1-.1.1-.2.1-.3-.2.1-.5.2-.7.2h-.2c-.1 0-.2 0-.2-.1 0 0-.1-.1 0-.2s.1-.2.1-.3v-.1c-.1.2-.2.4-.4.6.1 0 0 0-.1.1zm-2.3.3c-.1.1-.1.2-.2.3.1-.1.1-.1.2-.1v-.2zm5.9-1.3h.2c.1 0 .1.1.2.1h.2c.3-.1.7-.2 1-.5.3-.2.5-.4.7-.7.2-.3.2-.5.2-.8v-.2c-.1 0-.1.1-.2.1s-.2.1-.3 0c-.1 0-.1-.1-.1-.2s0-.1-.1-.2v.1c0 .1 0 .3-.1.4h.1s.1 0 .2.1c.2.2.1.5 0 .7-.1.1-.2.2-.4.3-.1 0-.1.1-.2.1-.2.1-.3.2-.5.3-.2.1-.5.1-.7.1h-.4v.1c.1.2.2.2.2.2zm-.4 0zm3.4-2c.2 0 .3-.1.4-.2l.1-.1-.2.2c-.1 0-.2.1-.3.1zm-.4-.1h.1-.1c.1-.1.1-.1 0 0 .1-.1 0-.1 0 0zm-1.3-.6z"/><path d="m21.3 36.9.4-1s0-.1.1-.2c0-.1.1-.2.2-.4 0-.1.1-.1.1-.1h.2c.2.1.3.1.5.1.2-.1.5-.2.7-.3.1 0 .1-.1.2-.1.1-.1.2-.1.3 0 .1 0 .1.1.2.1l.6.3-.5.1c-.2 0-.3 0-.4-.1-.2.2-.4.3-.7.4-.2.1-.6.2-.9 0 0 .1-.1.3-.2.4l-.8.8zM18.8 37.7c-.3 0-.6-.2-.7-.4-.1-.1-.2-.3-.3-.5-.3.2-.6.3-1 .3h-.1l-.5-.2.5-.1H17c.3 0 .5-.1.7-.3 0 0 .1-.1.2-.1s.1.2.2.2c.1.4.3.6.7.7h.1l.6.3-.7.1z"/><path d="M21.1 35.8h-.5l.4-.3c.1 0 .2-.1.2-.1h.1c.3-.1.6-.2.9-.5l.1-.1s.1-.1.2-.1l.3-.2-.1.4c0 .1-.1.2-.2.3-.1 0-.1.1-.2.1l-.1.1c-.1 0-.1.1-.2.1h-.2c-.3.2-.5.3-.7.3z"/><path d="M22.5 35.3v-.2l-.3.1.2-.4s0-.1.1-.1c.1-.1.1-.2.1-.2 0-.1 0-.1.1-.2 0 0 .1-.1.2 0 .1 0 .2.1.2.2 0 .2 0 .3-.1.4 0 0 0 .1-.1.1l-.4.3zM24.8 33.9h-.4l.2-.2c0-.1 0-.1.1-.2 0 0 .1 0 .1-.1s.1-.1.2-.1l.3-.1v.2l.5-.2-.5.5c-.1.1-.2.1-.5.2.1 0 .1 0 0 0z"/></g></svg>