<svg version="1.2" baseProfile="tiny" xmlns="http://www.w3.org/2000/svg" viewBox="0 0 45 45" overflow="visible" xml:space="preserve"><path fill="none" d="M0 0h44.9v44.9H0z"/><path fill="none" d="M4.5 4.5h35.9V18H4.5z"/><path fill="#010101" d="M7.3 11.6 5.6 4.9h1.5c.6 3.1.9 4.4 1 5.2.3-1.3.9-3.6 1.3-5.2h1.3c.3 1.3 1 3.9 1.2 5.1.2-1.5.9-4.1 1.1-5.1h1.4l-1.8 6.7h-1.5c-.4-1.5-.9-3.6-1.2-4.8-.2 1.2-.8 3.4-1.1 4.8H7.3zM16.7 8.9v2.7h-1.4V4.9h2.9c1.5 0 2.2.8 2.2 1.8 0 .9-.5 1.4-1 1.6.3.1.8.5.8 1.7v.3c0 .4 0 1 .1 1.3h-1.4c.1-.3.1-.8.1-1.5V10c0-.7-.2-1.1-1.3-1.1h-1zm0-1.2H18c.8 0 1.1-.3 1.1-.9 0-.5-.4-.8-1.1-.8h-1.2v1.7zM26.4 8.7h-3.2v1.7h3.5l-.2 1.2h-4.8V4.9h4.7v1.2h-3.3v1.4h3.2v1.2zM33.6 9.5c-.3 1.2-1.2 2.2-2.9 2.2-2.1 0-3.1-1.5-3.1-3.4 0-1.8 1-3.5 3.2-3.5 1.8 0 2.6 1 2.8 2.2h-1.4c-.1-.5-.5-1-1.4-1-1.3-.1-1.8 1-1.8 2.2 0 1.1.4 2.3 1.7 2.3.9 0 1.2-.6 1.4-1h1.5zM34.7 4.9h1.4v3c.4-.5 1.8-2 2.7-3h1.7l-2.7 2.8 2.8 3.9h-1.7l-2.1-3-.7.7v2.3h-1.4V4.9z"/><path d="M20.3 33.8c.2-1.6 7.7-6.6 7.1-8.1-.2-.1.2-.5.3-.4 1.9.4-6.7 7.5-7.4 8.5zM16.8 32.8c-1.1-1-2.2-2.1-3.2-3.2.4-.5 2.3 2.3 3 2.7.2.4.5-.2.7-.4.7-.2-.3.8-.5.9zM19.4 26.7c-1-.6-1.7-1.7-2.6-2.5-.5-.5 1.5-2.3.3-.5-.4.6.9 1.2 1.3 1.7.5.4.9 1.3 1.5.6 1.1-.4-.1.7-.5.7zM19.1 32.6c0-.9 1.8-2 2.5-2.9 3.5-3.3-1.5 2.1-2.5 2.9zM21.4 22.9c-.6-.6 0-2.2-.8-2.6.1-.3.9-.1.9.3-.2.7.5 2-.1 2.3zM15.6 21.3c-.3-.1-.6-.4-.3-.7.1 0 2.3-2.5 2.4-2.2.3.1-2.1 2.2-2.1 2.3.3.1.4.5 0 .6zM15.6 29c-.7-.7-2.3-1.8-2.4-2.6.8.5 1.4 1.4 2.1 2.1.8.6 1.7-1.9 2.6-1.9-.4.8-1.5 1.6-2.3 2.4z"/><path d="M21.9 28.2c-1.6-1.1-1.2-2.4-3-.7 0-.5 1.1-1.5 1.6-1 .1.1 2 1.6 1.4 1.7zM19.4 32.7c-.2-.7 1.6-1.7 2.2-2.5.5-.3 1.1-1.6 1.7-1.3-1.2 1.1-2.7 2.8-3.9 3.8zM18.5 31.8c-1-.9-2.2-1.9-3-3 .8 0 1.8 1.7 2.5 2.3.1.1.9.6.5.7z"/><path d="M19.2 27.2c-.1-.1-3.6-3.3-3.4-3.5.2-.1 3.9 3.4 3.4 3.5zM18.5 17.3c-.4-.2.3-.6.4-.8.8-.6 1.6-2.1 2.5-2.3-.8 1.1-2.1 2.1-2.9 3.1zm2.8-2.9zM22.1 20.5c-.4-.5-.3-1.5-.5-2.1.4-.2.8-1.2 1.2-.7.2.3-1.3.3-.8 1.1-.1.5.6 1.6.1 1.7zM29.2 24.6c-.3-.5.2-1.4.2-2-.2-.1-.7-.2-.6-.5.3-.5.3.2.8.3.1.6-.1 1.7-.4 2.2z"/><path d="M13.1 26.7c-.3-.6 1.2-1.3 1.6-1.9 2.9-2.7-.7 1.3-1.6 1.9zM11.4 28c-.5-.3-1.1-1.1-1.5-1.5-.7-.4 1.7-2 .9-1.1-1.4 1-.2 1.3.6 2.2 1.3-1.3 1-.1 0 .4zM30.7 19.3c-1.3-.7-1.5-2.1 0-.3l1.2-1.2c-.1-.1-.2-.2-.1-.3 1.1.1-.7 1.6-1.1 1.8zM20.6 24.7c-.3-.1-2.4-2.2-1.5-1.8.4.5 1.8 1.3 1.5 1.8zM12.1 24.2c-.4-.2.2-.5.4-.7.6-.3 1.2-1.7 1.8-1.5-.7.8-1.5 1.6-2.2 2.2zM22.9 28.8c-.1-.1-2-1.7-1.8-1.9.2-.2 2.5 1.8 1.8 1.9z"/><path d="M22.5 26.6c-.7-.5-1.4-1.2-1.9-1.9 0-.5 2.5 1.9 1.9 1.9zm0-.3zM27.4 12.1c-.4-.2.2-.4.3-.6L26.2 10c-.2.1-.3.5-.5.4-.3-.2.4-.8.6-.7.4.6 2.7 1.9 1.1 2.4zM24.2 29.6c-.1-.8 1.6-1.7 2.1-2.4.5-.4.9-1.1 1.5-1.4-.4 1.2-2.5 2.6-3.6 3.8zM32 16.6c-.7-.5-5.1-5.1-2.8-3.2.8 1 2.7 2.1 2.8 3.2zM18.7 22.8c-.6-.5-1.1-.8-1.6-1.4-.4-.8.4-.2.6.1.2.3 1.4.9 1 1.3zM13.8 22.1c.8-1.7 3.6-3.6 5-5.3 0-.3.4 0 .2.2-1.7 1.7-3.4 3.6-5.2 5.1z"/><path d="M17.2 21.3c-.2-.6 1.2-1.4 1.5-2.1 2.1-2-.8 1.6-1.5 2.1zM18.6 35.2c-.6-.7-2.5-1.6-1.1-2.4.1-.2.5-.3.4 0l-.6.6c.6.3 1.3 1.9 1.9 1 .5 0-.3.8-.6.8zM12.8 24.6c-.7.1 2.1-2.7 2.3-2.5-.4.8-1.6 1.7-2.3 2.5zM29.7 14.5c-.3-.5-1.7-1.1-1.3-1.7.1-.2.1-.2.1-.5.3 0 .3.5.1.7.1.5 1.5 1.1 1.1 1.5zM18.9 33.2c-.1-1-1.5-1.9-2.3-2.8-.2-.8 3.5 2.7 2.3 2.8zM26.7 21c-1.3 0-2.6-2.5-.7-2.5 1.1.1 2.4 2.2.7 2.5zm-.8-2.3c-2.4.8 2.7 3.4 1 .7-.3-.3-.5-.7-1-.7zM21.8 13.9c-.5-.2 1.1-1.4 1.4-1.6.3.3-1.1 1.2-1.4 1.6zM26.7 15.2c-.5-.1 1-1.1 1.2-1.4.1-.1-.2-.2-.1-.3 1.1.1-.6 1.5-1.1 1.7zM23 17c-.2.1-.7-.5-.2-.4.2.2.2.2.4 0s.8-.7.1-.6c-.2.1-.4-.1-.4-.2-.1-.2.3-.2.3 0 1.4-.4.5 1-.2 1.2zM29.8 24.7c-.5-.4 2-2.2 2.3-2.7.6-.4.9-1.1 1.5-1.5.4.1-.1.3-.2.5-1.1 1.3-2.4 2.4-3.6 3.7zm.8-1.1zM19.3 16.7c-.3-.4.9-1.1 1.2-1.5.6.1-.9 1.3-1.2 1.5z"/><path d="M26.9 21.5c-1.3-.1-2.7-1.4-2.3-2.5.4 1 .7 2.1 2.1 2.3.7.1 1.3-.6.9-1.1 1-.2.1 1.6-.7 1.3zM21 20.8c-.7-.2-1.8 0-2.3-.5.1-.2 3 .1 2.3.5zM15.4 27.9c-.5 0-1.9-1.8-.8-1.3 0 .1-.2.1-.2.2l.9.9c.1-.6.5.2.1.2zm-.1-.2zM22.1 13.9c-.1-.8 1.6-1.7 2.1-2.5-.4-.5.8-.9.6-.2-.9.9-1.8 1.9-2.7 2.7zm2.4-2.7c-.1 0-.1.1-.1.1l.1-.1z"/><path d="M15.8 27.2c-.4-.2-.7-.8-1.1-.9 0 .2-.1.5-.3.2-.2-1.3 1.9.5 1.4.7zM30.4 19c-.5-.2.5-.5.4-.8-.3-.4-.6.6-.9.4.3-1.5 2.1-.4.5.4zm.4-.8zM19.5 26.6c-.2-.1-1.7-1.4-1-1.3.2.3 1.4 1.1 1 1.3zM19.6 24l-1.9-1.9c0-.7 2.5 1.9 1.9 1.9zM11.9 24.1c-.2-.8 1.7-1.5 1.9-2.5 1.8-2-1.2 2.3-1.9 2.5zM19.6 30.3c-.2-.2-1.6-1.2-1-1.3.1.3 1.4 1.1 1 1.3zM27.3 23.6c-.3-.2-4.8-4.4-3.7-4l3.6 3.6c.3 0 .8-.6.7-1 .8-.3-.1 1.5-.6 1.4zM26.2 13.3c-.1-.1-1.9-1.7-1.7-1.9.1-.3 1.6 1.5 1.7 1.5 1.7-1.7 1.4-.6 0 .4zM28 26.1c-.3-.1 0-.3.1-.4 2.1-2.3 1.5-.8-.1.4z"/><path d="M23 27.4c-1-1-2.3-2.6-3.3-3.2.6-.6 1 .6 1.5.9.4.7 2.1 1.6 1.8 2.3zM29.6 18.3c-.3 0-.3-.5 0-.3l.3-.3c.4-.3.6-.9.9-1.2-.5-.5-1-1.1-1.6-1.5l-1.5 1.5.6.6c.1.7-1.4-.7-.7-.9.8-.7 1.4-2.1 2.3-.8.3.5 1.6 1 .8 1.6.1.4-.6 1-1.1 1.3zm1-1.2zM23.7 25.1c-.2-.2-1.4-1-1-1.2.2.2 1.4 1.1 1 1.2z"/><path d="M24.4 25.9c-.6-.2-1.3-1.7-.2-.5.3.7.9-.9 1.3-.7.2.2-1 1.2-1.1 1.2zM12.6 25.7c-.2-.5 1.7-1.8 2.1-2.4.5-.7 1.5-1 .8-1.7.2-.2.9.4.6.7-1.3 1-2.3 2.4-3.5 3.4zM32.8 17.7c-1.4-1.1-2.7-2.6-3.9-3.9.6-.1 1.4 1.3 2 1.7.4.5 2.4 1.8 1.9 2.2z"/><path d="M23.3 27c-.6-.2-.7-1.1 0-.3 1.6-1.7 1.4-.6 0 .3zM16 19.7c-.4-.4.7-.9.9-1.3.5-.3 1-1.3 1.6-1.3-.5.9-1.7 1.7-2.5 2.6zM19 22.6c-1-.6.2-2.6 1.1-1.8-.5.2-1.5.5-1.1 1.4 0 .1.3.4 0 .4zM24.9 24.2c-.2-.4-.6-.9-1-1.2-.8-1 1.8.9 1 1.2zM20.3 33.6c-.4-.3-1.1-.8-1.2-1.3.3-.1.6.4.8.6.3.5.4.2.8.2.1.1-.3.4-.4.5zM25.6 15.7c-.2-.3-1.2-.8-.8-1.3.1 0 .6-.7.7-.5.2.2-.5.6-.5.7 0 .3 1.1.8.6 1.1zM20.6 15.4c-.5 0 .9-1.4 1-1.2.2.2-.9 1.1-1 1.2zM31.3 22.6c-1.6-1.1-.7-1.8-2.4-.6-.1-1 .1-.8-.7-.2-.1.1.3.5-.1.4-.6-.4.5-1.1.8-1.3.4.1.3.4.2.7.2-.2.5-.4.7-.7.9.2 1.3 2.1 2.1.6 1.9-1.5.9-1.4-.4-2.8.2-.6 1.3 1.1 1.7 1.4.5.6-1.5 2-1.9 2.5zM19.1 33.5c-.6-.5-1.1-1-1.6-1.5-.2-.4.3-.3.4 0 .3.3 1.6 1.2 1.2 1.5zM20.5 29.1c-.3-.1-1.6-1.5-.8-1.1.2.3 1.2.9.8 1.1z"/><path d="M20.1 30.3c-.4-.4.7-.9.8-1.3 0-.1.2-.1.1-.2-.1-.3.4-.2.3.1-.3.5-.8 1-1.2 1.4zM20.7 24.7c-.3-.5 1-1.1 1.3-1.6 1.2-1-1 1.5-1.3 1.6zM22.6 13.7c-.1-.8 1.6-1.7 2.2-2.5 2.4-2.1-1.5 2-2.2 2.5zM14.6 29c-1.3-.7-2-2.1-3.2-2.8 0-.8 2.2 1.4 2.3 1.8.1.3 1.3.6.9 1zM22.4 21.8c-.2.1-.3-.3 0-.3l-.1-.3c-.1-.8-.4-1.6.4-2.1.1-.2.3-.4.3-.1-1.4 1.2.2 2.4-.6 2.8zM34.5 19.3c-.5-.2.4-.5.3-.7-1-1 1.4.1-.3.7zm.5-.3zM16.7 27.7c-.8-.5-.4-.9.2-1.4.3-.2.6.3.7.5-.3.3-.6.7-.9.9zm-.3-.6c.3.5.4-.1.8-.3.2 0 0-.1 0-.2-.3-.3-.5.4-.8.5zM16.6 29.9c-.4-.2 1.1-1.6 1.4-1.5-.2.6-1 1.1-1.4 1.5zM16.5 26.6c-.4-.1-1-1.4-1.3-.8-.4 0-.1-.5 0-.5.4-.1 1.6 1 1.3 1.3zM20.2 20.5c-.5-.1-1.1-.1-1.5-.1-.4-.7 2.2-.2 1.5.1zM27.4 23c-.1-.1-1.5-1.2-1.3-1.4.1-.3 1.8 1.4 1.3 1.4zM24.8 20.3c-.4-.3-1.1-.7-1-1.2.1-.1 1.4 1.1 1 1.2zM23.7 21.6c-.6-.5 0-2.1-.7-2.3 0-.7.7-.1.6.4-.1.6.4 1.5.1 1.9zM23.2 29c-.3 0 0-.3 0-.4.6-.9-.1-1.2-.5-1.9.3-.4.7.6 1.1.8.1.4-.3 1.2-.6 1.5zM16 21.7c-.5-.4.8-.6 1.1-.7.6.3-.9.5-1.1.7zM30.2 20.3c-.6-.1-.4-1 .1-.5.8-.5 1.6-1.6 2.4-2.3.9-.1-2.2 2.5-2.5 2.8zM19.9 34.4c-.3-.6 1.2-1.2 1.5-1.8 2.7-2.5-.5 1.3-1.5 1.8zM29 17.9c-.4-.1.2-.7.3-.8-.2-.7-1.1.7-1-.1.4-.1.6-.7.9-.4.6.4.1.9-.2 1.3zM14.2 21.5c-.4-.2.5-.7.6-1 .7-.1-.4.9-.6 1zM16 30.5c-.3-.1-.4-.6-.7-.5-.2.1-1 1-.7.1.6-.7.8-.7 1.4 0 .6-.4.5.1 0 .4z"/><path d="M15.5 31.3c-.3 0-1.4-1.2-.7-1 .2.3.5.5.7.8.4-.5.4.2 0 .2zM15.2 29c-1.1-.8-1.9-2.4-3.1-2.9-.1.1-.1.5-.3.2.3-1.4 1.6.6 2.1 1 .2.5 1.6 1.1 1.3 1.7zM23.8 25.1c-.3-.2-.7-.8-1-1-.1.1-.3-.1-.2-.2.2-.4 1.7 1.1 1.2 1.2zm-1.2-1.2zM23.6 21.6c-.3.2-.6-1.8-.4-1.8.3-.1.3 1.4.4 1.5 1.3-1.3 1.1-.2 0 .3zM29.6 22.4c-.3-.2.2-.9.1-1.3.5-.5.2 1.2-.1 1.3zM21.2 17.2c-.2.1-.5-.2-.3-.4.5-.5.9.4.3.4zm-.1-.3s.1 0 0 0c.1 0 0 0 0 0zM23 15.3c-.6-.4 1.1-.3.5-.6-.9-1.5-1.6-.1-1.4-.8.6-.9 1.1.2 1.6.6.8.6-.3.6-.7.8zm.8-.4zm-1.3-1.2zM18.7 33.3c-.3-.2-.7-.5-.9-.8.2-.4 1.4.7.9.8zM23.7 27.8c-.2-.5 1.2-1.1 1.6-1.7 1-.8 1.8-1.6 2-2.7.4 1.9-2.5 3.2-3.6 4.4zM19.8 29.9c-.1-.1-1.2-1-1-1.1.1-.3 1.5 1 1 1.1zM19.8 34.6c-.7-.1.1-.7.3-.9-.1-.2-.5-.3-.5-.5.2-.3.9.3.8.6-.7.5-.1.6-.6.8zM27.3 19.7c-.3-.4 1-1 1.2-1.5-1-1.6-1.6 1.1-2.1.5.8-.8 1.4-2.1 2.3-.7.3.6-1 1.3-1.4 1.7z"/><path d="M16.1 30.3c-.5-.4-1-1-1.5-1.5-.3-.8 2.1 1.5 1.5 1.5zM21.9 18.3c-.1 0-.6-.6-.7-.6 0-.5.8-1.1 1.4-1.1.2-.1.8-1.2 1-.7-.5 1-1.5.8-2.1 1.6.1.1.9.7.4.8zm.8-1.7zM19.4 30.4c-.3 0-1.8-1.4-.9-1.3 0 .4.5.7.8 1.1.2-.4.5.3.1.2zM19.8 23c-.2.1-1-.3-.5-.4.6.3 1.3 0 1.3-.7.8-.4-.2 1.3-.8 1.1zM34.6 18.4c-.3 0-1.2-1.6-1.5-1-.8.7-.1-.7.3-.5l1.2 1.2c.2.2.1.3 0 .3zM30.9 23.1c-.3-.2-2.5-1-1.9-1.2.7.2 1.3.6 1.9 1 .6-.6.5.2 0 .2z"/><path d="M19.5 18.7c-.4-.2.5-.8.6-1 .3-.1 1.1-.4 1.3-.1-1 .5-.9-.1-1.9 1.1zm.8-.9zM16.6 27.9c-.2 0-1.3-.9-.7-.9.2 0 1.2.8.7.9zM25.9 17.8c-.3 0 0-.3-.2-.4-.2-.2-.4-.3-.4-.6.4-1.1 1.9.9.6 1zm-.3-.9c.2.1.3.5.5.3-.2-.2-.3-.6-.5-.3zM11.7 24c-.5.1 1.7-2.2 1.8-2-.2.7-1.1 1.5-1.8 2zM27.3 23.6c-.9-.8 3.2-3.4 1.1-1.5-.5.4-.9 1-1.1 1.5zM22.6 31.7c-.4-.1.6-1.1.8-.7-.1.2-.5.5-.8.7zM22.6 16c-.2-.4-.3-1.4-.6-2 .1.1-.1.3-.2.4-.2.1-.7 1-.9.5.4-.2 1-1.5 1.3-1.2.1.7.9 1.9.4 2.3zm-1.4-.9zM15.5 27.7c-.4-.4-1.1-.9-1.2-1.3.2-.2 1.7 1.3 1.2 1.3z"/><path d="M27.2 17.2c-.4 0-1.8-1.3-1.2-1.3.4.3.7 1 1.3 1 .2 0 .1.4-.1.3zM12.3 25.9c-.2-.2-.7-.5-.7-.8.2-.2 1.1.7.7.8zM19.7 33.3c-.5-.3-3.1-3-1.1-1.4.2.4 1.5 1 1.1 1.4zM17.7 24.8c-.1 0-.8-.7-.8-.8-.3-.7 1.3.7.8.8zM20.3 17.8c-.3 0 0-1-.1-1.2.4-.6.3 1.3.1 1.2z"/><path d="M26.4 18c-.5-.2.4-.4.6-.6 1.1-.4-1.6-1.6-1.3-2.1.7.2 1 1 1.6 1.4.9.6-.4 1.1-.9 1.3zM16.2 27.1c-.2-.2-1.6-1.3-1-1.4.2.4 1.4 1 1 1.4zM15 22.3c-.8-.4 1-.4.1-1.2 0-.5 1.3.5-.1 1.2zm-.1 0zM20.6 33.3c-.4-.4.8-.9 1-1.3.8-.8 1.6-1.8 2.5-2.4-.5 1.2-2.5 2.5-3.5 3.7zM12.2 25c-.4-.3.6-1 .7-1.4 1.5-1.8-.1 1-.7 1.4zM15.2 20.5c-.4-.1.4-.9.6-.8 0 .4-.5.7-.6.8zM20.8 15c-.5-.1 1-1.3 1.2-1.5.6-.5.2.3-.1.5-.5.2-.7.8-1.1 1zm.4-.7zm.4-.2zM22.5 16.2c-.2-.2-.3-.1-.5-.4-.1-.1-.2-.6.1-.6.2.1-.1.4.1.5.6-.1.8.3.3.5zm-.2-.4zM22.3 18.6c-.8-.1.4-1.3.3-.6-.4.2-.1.5-.3.6zM29.1 21.4c-.4-.2.6-.7.7-1 .6-.1-.5.9-.7 1zM24.7 19.2c-.7-1.8 3.1-1 2-.6-.9-.7-1.8-.3-2 .6zM20.8 26.7c-.3-.1-1.4-1.3-.7-1.2.2.1.2.2.2.4.2.2.9.6.5.8z"/><path d="M25 16.6c-.4-.2.4-1.4.8-1.2-.1.3-.5.9-.8 1.2zM22.3 21.8c-.2-.1-.4-1.5.1-1.1-.2.3.2.9-.1 1.1zM23.6 24.3c-.9-.2.5-1 .6-.4 0 .4-.3-.1-.6.2.2 0 .1.2 0 .2zM15.1 20.6c-.4-.2.3-.4.4-.6.2-.1.1-.4.3-.4.4.3-.4 1-.7 1zm.5-.9zM16.3 23.4c-.4-.1.2-.3 0-.6 0-.4-.6-.5-.2-.9.2-.2.3.1.1.3.5.3.7 1 .1 1.2zM19.4 24.9c-.4-.2.3-.6.4-.8.5.2-.3.7-.4.8zM21.8 27.6c-.4-.1-1.5-1.7-.5-.8.2.2.9.6.5.8zM22.2 23.1c-.6 0 1.3-1.6 1.5-1.6 0 .5-1 1.1-1.5 1.6zM23.1 15.9c-.4-.2.6-1.1.9-1 0 .4-.7.8-.9 1zM29.9 20c-.5-.4-1.3-1-1.4-1.6.1-.1 1.8 1.5 1.4 1.6z"/><path d="M14 24.4c-.4-.3.8-.9 1-1.3.4-.3.8-1.1 1.3-1-.5.8-1.6 1.6-2.3 2.3zM22.5 21.3c-.6 0 .8-1 .9-.8-.1.4-.6.7-.9.8z"/><path d="M18.2 24c-.3-.4-3.8-3.3-2.8-3 .8.9 2.7 2 2.8 3zM19.4 17.5c-.2-.1-.6-.4-.5-.6.1 0 .1-.4.3-.2.2.1.8.6.2.8zM13.5 23.2c-.4-.3.7-.7.9-1 .3-.1.7-.7 1-.6-.2.6-1.4 1-1.9 1.6zM18.9 33.7c-.4-.4-1-.7-1.2-1.3-.1-.2.2-.5.3-.2-.2.7 1.4 1.1.9 1.5zm-1.2-1.5zM21.3 29c-.4-.2.5-.7.6-1 .6.2-.4.8-.6 1zm.6-.9zM22.7 26.4c-.6-.3-3.2-3.4-1.1-1.4 0 .1 1.7 1.3 1.1 1.4zM21.2 25zM27.8 14.9c-.5-.3.8-.9.6-.2-.3.1-.3 0-.6.2zM24.9 13.2c-.4 0-.6-.7-.1-.7.1.1-.1.2.1.4.2 0 .4.2 0 .3zM20.8 21.9c-.3-.1-.1-.7-.4-.8-1-1.1 1.1.4.4.8zM27.9 20.4c-.3-.1 0-.5-.2-.7-.5-1.3.9.4.2.7zM16.4 24.1c-1-.4.9-1.3 0-.4 0 .1.3.3 0 .4zM15.7 19.8c-.4-.1.1-.5.3-.4.2-.1.3-.7.6-.5.3.4-.5.9-.9.9zm.5-.3zm.3-.4zM22.1 18.8c-.1 0-.5-.3-.3-.5.1-.1.9-1.1.8-.4l-.5.5c.4-.2 1.3-.9 1.2.2-.8 0 .2-.8-1.2.2zM26.5 15c-.3-.4-.6-.8.1-1.2.9-.1.4 1.1-.1 1.2zm-.1-.6c.2.4.7-.1.4-.3-.2 0-.4.2-.4.3z"/><path d="M22.9 18c-.6-.1.2-.9.4-.3 0 .1-.2.3-.4.3zM30.8 23.3c-.2-.2-1.7-.6-1.1-.9.5.1.9.7 1.3.4.2.2-.1.5-.2.5zM10.6 25.1c-.4-.3.7-.9.8-1.3.9-.1-.6 1.2-.8 1.3zM20.1 25.8c-.4-.2.4-.7.6-.9.7 0-.4.8-.6.9zM18.6 17.6c-.4-.1.3-.8.5-.6.2.2-.3.5-.5.6zM22.6 20.1c-.1 0-.5-.3-.4-.5.2-.2.4.4.6 0 .7-.7.4.4-.2.5zM20 25.1c-.3 0-.4-.4-.2-.5.3-.1.7.5.2.5z"/><path d="M10.7 25.3c-.4-.1.5-1 .7-.6-.1.2-.4.4-.7.6zM12.4 26c-.2 0-.2-.2 0-.3.1-.2-.5-.5-.6-.8-.3-.7 1.6 1 .6 1.1zm.1-.1zM18.2 28.5c-.5-.1.7-1.1.5-.4-.1 0-.4.4-.5.4z"/><path d="M10.9 25.4c-.4-.1.2-.5.3-.6.6-.3-.1.5-.3.6zM24.9 24.5c-.3-.5-1.2-1.1-1.5-1.7.1-.4 2.2 1.7 1.5 1.7zM25.3 12.9c-.2 0-.1-.3-.1-.3-1.2-.4.8-.6.1.3zM22.3 19.8c-.5-.1-.3-1.9 0-.9-.1.3.2.8 0 .9z"/><path d="M11.5 25.6c-.4-.2.3-.4-.2-.7-.3-.2-.3-1 .1-.5-.1.4.9.8.1 1.2zM20.4 16.5c-.2-.1-.1-.8 0-.9.3 0 .2.8 0 .9zM23.1 12.5c-.4-.1.2-.7.4-.7.3.2-.2.6-.4.7zM24.5 22.7c-.4-.1.8-.9-.3-1.1-.6-.9 1.7.5.3 1.1zM30.5 18.9c-.1-.1-.6-.4-.4-.7.2 0 .8.6.4.7zM29.9 21.1c-.3 0 0-.7 0-.8.4-.4.3.9 0 .8zM20.9 26.7c-.3 0-.1-.3.1-.3.2-.1.3-.4.5-.4.3.2-.4.6-.6.7zM32.1 16.9c-.5-.3.6-.8.5-.2-.2.2-.1-.2-.5.2zM33.3 20.5c-.4-.4 1.1-.9.9-1.4-.2-.4.4-.2.3.1-.3.5-.7 1.1-1.2 1.3zM18.5 29.3c-.3-.1 0-.6.3-.6.2 0 .2.3 0 .3-.3-.1 0 .2-.3.3zM22.4 16c-.2-.1-1-2.4-.3-1.8 0 .6.7 1.4.3 1.8zm-.4-1.9zM23.9 29.9c-.1 0-.5-.5-.5-.5-.2-.7 1 .4.5.5z"/><path d="M22.6 15.2c-.2 0-.6-1-.1-.7.1.2.4.6.1.7zM25.7 13.7c-.4-.4-.9-.6-1.3-1.1-.1-.4.7-.6.6-.1-.9.1 1.3.7.7 1.2zM23.6 24.2c-.5-.2.6-.6.7-.4 0 .3-.5.4-.7.4zM23.9 15c-.5-.2.7-.4.8-.4.1.4-.5.4-.8.4zM23.5 12.2c-.5-.1.8-1 .9-1 .2.4-.7.8-.9 1zM21.9 13.6c-.4-.1.4-.8.5-.5 0 .2-.3.4-.5.5zM26.9 11.6c-.3-.2-.7-.5-.8-.9-.2.1-.4-.2-.1-.3.2 0 .4.1.4.3.2.3 1 .7.5.9zM17.4 25.8c-.2 0-.4-.2-.1-.3-.3-.3-.7-1.1-1-.7-.8-1.2 1.9.6 1.1 1zM23.9 29.8c-.3-.3-1.1-.8-1.1-1.2.1-.2 1.6 1.1 1.1 1.2zM15.5 31.2c-.6-.3 1-1 .6-.3-.3-.1-.4.2-.6.3zm.5-.6z"/><path d="M24 29.7c-.3-.1-.6-.8-.1-.5 0 .2.5.5.1.5zM21.2 27c-.4-.2-.6-.6-.8-.9-.1-.6 1.2 1 .8.9zM13.8 22.9c-.4-.2.3-.7.4-.9.3-.2.4-.8.8-.8-.1.5-.8 1.2-1.2 1.7zM27.9 13.9c-.8-.2-.1-.8-.4-.7-.2.3-.4-.1-.2-.2.5-.4 1.1.6.6.9zm-.2-.4c.1.1.1.1.1 0s0-.1-.1 0zm0-.1zm-.4-.3zM23.4 31c-.4-.2.5-.8.6-.8.3.3-.4.6-.6.8zM13.5 26.5c-.4-.1-.1-.6.2-.5.2.1.1.5-.2.5zm0-.2zM16.1 19.4c-.4-.1.2-.6.3-.6.3.2-.1.6-.3.6zM15.3 20.3c-.5-.1.7-.9.4-.3-.1 0-.4.3-.4.3zM25.2 13.2c-.3-.1.1-.3-.4-.7.1-.6 1 .5.4.7zM18.4 32c-.4-.1.3-.7.4-.7.3.2-.2.6-.4.7zM25.9 17.8c-.4-.3-1.2-.8-1-1.3.1-.2.3 0 .2.1-.1.4 1.3.9.8 1.2zM32.9 21.3c-.4-.2.8-1.4.9-.8.2.3-.3 0-.9.8zm.9-.8zM24.1 28.5c-.8-.1.5-1.1.4-.3-.1.1-.2.3-.4.3zm0-.2zm.3-.3zm0 0zm0 0zM13.2 25.2c-.4-.3.6-.7.7-1 .6-.1-.5.9-.7 1zM16.7 21c-.5-.1 0-.8.3-.6.3.2 0 .6-.3.6zm.4-.3zm-.4-.2zM23 15.8c-.4-.4.4-.5-.6-.6.1-.7 1.3.2.6.6zM31.9 16.7c-.5-.2.6-.8.6-.2 0 .2-.3.2-.3 0 0 0-.2.2-.3.2zM21.5 17.6c-.5-.3.3-.3.5-.4.2-.1.5-.7.8-.6-.1.5-.8 1-1.3 1zM31.7 17.9c-.4-.2-1-.9-.2-1 .4.1.8.8.2 1zm-.4-.7c.1.1.5.6.4.2-.2 0-.2-.4-.4-.2zM23.2 19.2c-.4-.3-.2-1.3.4-.4 0 .1-.2.1-.3.1 0 .1.1.3-.1.3zM28.3 12.4c-.2-.2-.5-.1-.8-.1-.4-.5 1.5-.3.8.1zM13.7 29.6c-.4-.2.3-.7.4-.8.4.2-.3.6-.4.8zM18.3 28c-.4-.1.3-.7.5-.7.1.2-.4.6-.5.7zM14.9 26.3c-.7-.7.9-.6.1-.3 0 0 0 .3-.1.3zM11.4 24.2c-.4-.1.2-.6.3-.5.3.1-.1.4-.3.5zM16.9 26.2c-.3-.2-1.4-1-1-1.3.2.1 1.2 1.5 1.1.8l-.9-.9c-.1-.7 2.1 1.4.8 1.4zM17.4 31.9c-.3-.5-.5-.2-.6-.5.2-.4 1.1.3.6.5z"/><path d="M18.7 27.8c-.3-.1.1-.5.2-.6.5 0 0 .5-.2.6zm.4-.5zm0 0zM15.5 25.5c-.3 0-.1-.4 0-.5.2-.2.7.2.2.2-.1 0 0 .3-.2.3zM20 24.2c-.1-.1-.5-.3-.4-.5.2-.2.8.5.4.5zM22.2 32.3c-.5-.1.6-.9.4-.3-.1 0-.3.3-.4.3zM20.6 15.8c-.7-.1.4-.5.5-.2 0 .2-.4.2-.5.2zM16.6 26.6c-.3-.1.2-.5.3-.6.3.1-.1.5-.3.6zM23.4 22.5c-.2 0-.2-.2-.3-.3-.3-.6.8.1.3.3zM18.9 28.9c-.6-.3.7-.9.3-.3-.3.1-.1.2-.3.3zM19.3 33.7c-.2 0-.5-.2-.3-.4.3 0 .4.2.6-.2.5-.1 0 .6-.3.6z"/><path d="M20.1 29.5c-.1-.1-1.1-.9-.9-1.1.1-.3 1.4 1 .9 1.1zM11.5 26.1c-.3-.2-.3-.6-.7-.7-.1-.8 1.2.5.7.7zm-.3-.5zM15.9 25.1c-.6-.4.8-.8.3-.3-.2 0-.1.3-.3.3zM12.6 25.8c-.4-.2.4-.5.5-.8.6-.1-.3.7-.5.8zM20.1 15.5c-.4-.1.2-.7.4-.4 0 .1-.3.3-.4.4zM32.7 17.5c-.2 0-.2-.4-.1-.6.1-.1.3 0 .2.2 0 0 .2.3-.1.4zM21.4 25.4c-.4 0-.5-.7-.1-.6.2.1-.1.2.1.4.3-.4.3.2 0 .2zM19.5 30.3c-.4-.1.1-.3.1-.4 0-.1.1-.1.1-.1.4 0 .2.4-.2.5zM20 25.7c-.2-.1-.4-.1-.5-.3.1-.5.9.2.5.3zM27.9 12.6c-.3-.1-.4-.4-.6-.5 0-.5.5-.1.6.2.6-.4.5.3 0 .3zM14.6 28.8c-.4 0 .2-.6.3-.5.1.2-.2.5-.3.5zM19.6 34.1c-.2-.2-.3-.4-.6-.5-.5-.6 1.2.2.6.5zM22.8 18.3c-.1 0-.7-.7-.8-.7-.2-.8 1.3.7.8.7zM18.1 26.6c-.6 0 .3-1 .3-.4-.2.2-.1.4-.3.4zM26.2 11c-.5 0-.2-1 0-.4-.1.2.3.3 0 .4zM24.3 29.7c-.1-.1-.6-.4-.5-.6.2-.2.9.6.5.6zM21.7 32.8c-.4-.1.2-.6.4-.4.1.1-.2.3-.4.4zM20.7 33.8c-.4-.1.3-.7.4-.5.1.2-.2.4-.4.5zM27.6 17.7c-.1 0-.3-.2-.3-.3-.2-.6.8.2.3.3z"/><path d="M27.4 12.2c-.2 0-.1-.2-.2-.2-.8-.7.9-.2.2.2zM21 28.8c-.1 0-.2-.2 0-.3-.1-.3-.6-.6-.8-.9-.1-.1-.3.3-.3-.1 0-.8 2 1.2 1.1 1.3zM12.5 23.9c-.6-.2.7-.7.9-1 .6.2-.7.8-.9 1zM21.6 25.2c-.1 0-.2-.1-.1-.2-.1-.1-.4 0-.3-.2.1-.5.9.2.4.4zM13.8 29.3c-.5-.1.3-1.2.4-.7 0 .2-.1.2-.2.3-.2.2.1.4-.2.4zM13.4 22.4c-.6-.2.8-.8.3-.2-.1.1-.2.2-.3.2zM19 16.9c-.4-.2.3-.5.3-.7.5-.1 0 .7-.3.7zm.3-.5zM27.8 24.1c-.3-.2-.1-.8.2-.7.4.3.1.7-.2.7zM17.1 32.7c-.5-.1-.3-.4.1-.3.2-.2.6-.1.3.1-.1 0-.2.2-.4.2zM13.4 28.5c-.5-.1.5-.8.3-.3 0 .1-.2.3-.3.3zM32.4 17.1c-.3 0 .1-.5.2-.5.2.1-.1.5-.2.5zM22.8 26.7c-.4 0-.3-.5 0-.6.4 0 .5.5 0 .6zm0-.4c0 .1 0 .1 0 0 .1.1 0 0 0 0zM28.1 12.8c-.5 0-.3-.8 0-.3.4-.6.6.3 0 .3zM23.6 22.1c-.6-.3 1-1.2.5-.5-.3 0-.2.4-.5.5z"/><path d="M13.5 28.6c-.3 0 .1-.5.2-.5.3.1 0 .5-.2.5zM24.2 30.2c-.4-.1.4-1 .6-.7.1.1-.5.7-.6.7zM21.6 14.1c-.6-.1.3-.9.3-.4-.1.2-.1.3-.3.4zM18.8 31.5c-.4-.2.6-.6.7-.9.3-.2.1-.5.5-.7.9-.4-.7 1.4-1.2 1.6zM27.5 13.6c-.3 0-.5-.7-.1-.4.1.1.5.3.1.4zM25.4 24.7c-.1-.2-.6-.2-.6-.5.3-.1 1.4.2.6.5zM16.3 26.9c-.3-.1 0-.2.1-.4.3.1.2.4-.1.4zM21.9 15.5c-.4-.1.2-.5.4-.4.2.3-.2.4-.4.4zM12.2 25.2c-.5-.1.3-.6.4-.8.7-.1-.2.7-.4.8zm-.1-.2zM28 12.9c-.1 0-.2-.2-.3-.3-.1-.6.8.2.3.3zM19.6 28.1c-.4-.1.1-.7.3-.5.1.1-.1.2-.2.3 0 .1 0 .2-.1.2zM23.7 25.2c-.3-.2-2.4-2-1.7-2 .4.3 1.3 1.4 1.5 1.4.3-.4.8.6.2.6zm-.2-.5.2.2c-.1-.1-.1-.2-.2-.2zM23.6 27.8c-.2-.1-.4-.2-.5-.4.1-.4.9.3.5.4z"/><path d="M22.7 15.9c-.4-.1.2-.3 0-.3-.8-.6 1.4.1 0 .3zM15.6 27.6c-.3-.1.1-.5.2-.5.3.1 0 .5-.2.5zM14.1 22.1c-.5-.1 1-1.5 1.2-1.1.1.1-.1.3-.2.2-.3.2-.6.6-1 .9zM19.3 28.4c-.4-.1.3-.7.4-.3-.1.1-.3.2-.4.3zM23.8 28c-.3 0 .1-.5.3-.5.2.1-.2.4-.3.5zM13.5 22.2c-.4-.1.4-.8.5-.6 0 .2-.3.5-.5.6zM17.6 26.8c-.2-.1-1.1-1-.4-.8.1.2.8.6.4.8zM24 22.7c-.2-.1-.7-.5-.4-.7.1.1.7.7.4.7zM26.2 18.1c-.3 0-.6-.7-.1-.4.2.3.5-.4.8-.6.7-.5-.4 1-.7 1zM27.5 24.1c-.5-.1.3-.9.1-.3 0 .1.1.3-.1.3zM11.6 25.9c-.4-.1-.1-.8.1-.4-.1.2.1.4-.1.4zM23.3 31.1c-.5-.1.5-.7.3-.2-.1.1-.2.2-.3.2zM25.2 17c-.5-.2.7-1.3.8-.6 0 .1-.2.2-.3 0-.3.1-.3.5-.5.6zm.8-.6zm0 0zM34.3 19.1c-.1 0-.1-.1-.1-.1 0-.1-.2-.1-.2-.2.2-.4.7.2.3.3zM22.9 27.7c-.6-.2.2-.8.1-.2 0 0 0 .2-.1.2zM23.2 20.1c-.4-.1 0-.7-.4-.9-.2-.1 0-.3.1-.2.4 0 .6.9.3 1.1zM20.9 24.2c-.2 0-.4-.2-.3-.3.3-.1.8.3.3.3zM30.9 23.1c-.4-.1.3-.8.5-.7.1.2-.4.5-.5.7zM24.7 24.1c-.2-.3-.5-.8-.9-1.1-.6-.8 1.7.9.9 1.1z"/><path d="M25.1 16.7c-.5-.1.6-1 .8-.9.1.2-.7.8-.8.9zM28 25.8c-.4-.1.2-.5.3-.6.8-.7 1.5-1.7 2.4-2.2.3.2-.3.5-.4.7-.8.7-1.5 1.5-2.3 2.1zM21.9 18.7c-.4 0 .1-.6.3-.3 0 .1-.2.2-.3.3zM16 27.3c-.4-.1.2-.7.3-.3 0 .2-.2.2-.3.3zM21.3 33.2c-.4-.1.2-.6.3-.5.2.2-.2.5-.3.5zM16.4 30.2c-.1-.2-1.4-1.1-.7-1.1.1.4 1.2.8.7 1.1zM22.6 24.1c-.3 0 0-.6.2-.4.2.1-.1.4-.2.4zM34 19c-.3-.2-.5-.6-.8-.8-.2-.3.3-.2.4 0 .1.1.9.5.4.8zm-.1-.3.1.1-.1-.1zM26.9 22.3c-.4-.1.2-.7.4-.4.1.2-.3.3-.4.4zM23.6 11.9c-.4-.1.2-.6.3-.4.1.2-.1.4-.3.4z"/><path d="M33.1 18.2c-.2 0-.4-.3-.2-.4.2-.1.5.3.2.4z"/><path d="M33.3 18c-.1 0-.1-.1-.2-.1-.4-.5.8-.1.2.1zM27.1 15.8c.1-.1.1-.1 0 0-.5-.2.4-1.1.5-.6-.2.2-.3.4-.5.6zM20.6 29.1c-.4 0-.2-.3.1-.3 0-.1 0-.2.1-.3.4.1.2.7-.2.6zM12.5 23.1c-.3 0 0-.5.2-.4.1.1-.1.4-.2.4zM15.7 24.4c-.3 0-.3-.5 0-.3-.1-.2.1-.4.3-.5.4-.3-.1.8-.3.8zm.2-.6zM30.7 17.3c-.4-.1.5-.8.7-.4.3.2-.1.4-.2.1-.2.1-.3.3-.5.3zM26.1 14.6c-.8-.3-.1-.8.3-1.2.3-.2.6-1 1.1-.6.3.2 0 .5-.2.2l-.6.6c-.1.1-.5.4-.6.6-.1.1.3.4 0 .4zM24.9 19.3c-.3 0-.2-.6.1-.4 0 .2.1.4-.1.4zm-.1-.1zM20.9 17.5c-.3 0-.3-.6 0-.3.3-.2.3.4 0 .3zM22.2 15.8c-.4-.1.2-.6.3-.3 0 .2-.2.3-.3.3zM34.2 19.2c-.1 0-.4-.3-.2-.4.2 0 .5.4.2.4zM19.5 25.2c-.1 0-.2-.1-.2-.2-.2-.5.6.1.2.2zM29 24.8c-.1 0-.3 0-.3-.1 0-.4.7 0 .3.1zM22.2 26.9c-.3 0 0-.6.2-.4.2 0 0 .3-.2.4zM24.9 29.5c-.3 0-.1-.5.2-.4 0 .1-.1.4-.2.4zM22.6 31.8c-.7-.2.8-.8.4-.2-.1.2-.3.2-.4.2zm0-.1zM13.6 22c-.5-.1.6-.9.4-.3-.1 0-.4.3-.4.3zM20.8 19c-.3 0 0-1.1.3-.8 0 .2 0 .7-.3.8zM16.3 30.4c-.3 0 0-.5.2-.4.1.1-.1.4-.2.4z"/><path d="M19.2 24.9c-.2 0-.6-.3-.3-.4.1 0 .2.2.3.1.3-.1.2.4 0 .3zM23.8 19.3c-.4-.2-.6-.8-.8-1.1.2-.2.7.4.6.6 0 .1.6.4.2.5zM17.5 32.1c-.1 0-.4-.1-.3-.2.1-.3.8.1.3.2zM15.4 20.8c-.2 0-.3-.2-.2-.3.2-.2.6.3.2.3zm-.1-.2zM27.1 11.6c-.1 0-.2-.1-.3-.2.1-.4.7.1.3.2zM25.9 16.1c-.4 0-.3-.9 0-.5 0 .3.3.5 0 .5zM24.6 19.2c-.3 0-.3-.5 0-.3.4-.1.4.4 0 .3zM27.3 24.8c-.2.1-.5-.2-.2-.3.2 0 .5.2.2.3zM21.6 14.4c-.4-.1.2-.7.4-.3 0 .1-.2.2-.4.3z"/><path d="M26.9 11.8c-.5 0 0-.9.1-.3 0 .1.2.3-.1.3zm.1-.2zM10.7 25.3c-.2-.1-.6-.3-.2-.5.3.1.5.5.2.5zM19.1 24.8c-.1 0-.3-.3-.2-.4.2-.1.4.4.2.4zm0-.3zM27.2 27.2c-.4-.4 1.3-1.4 1.6-1.9 3-2.6-.8 1.4-1.6 1.9zM24.5 11.1c-.5-.1.3-.6.2-.1-.1 0-.1.1-.2.1zm0-.3zm0 0zM19.9 29.9c-.2 0-.2-.2 0-.3.2 0 .1-.3.2-.3.4.1.1.6-.2.6zM15.3 20.9c-.1 0-.2-.1-.2-.2-.1-.4.6.1.2.2zM28 17.6c-.4-.1.2-.6.4-.6.1.2-.2.5-.4.6zM12.1 25.3c-.4-.1.1-.6.2-.2 0 .1-.1.2-.2.2zM24.2 29.9c-.1 0-.2-.1-.2-.2 0-.4.6.1.2.2zm0-.3zM20 30.4c-.5 0 .1-.6.2-.2 0 .1-.1.2-.2.2zm0 0zM20.4 22.7c-.4-.5-1.3-1-1.5-1.6.4 0 1.9 1.3 1.5 1.6zM19.7 25.4c-.1 0-.1-.1-.2-.1-.2-.5.7 0 .2.1z"/><path d="M24 30.4c-.4 0 .2-.7.3-.4 0 .2-.2.4-.3.4zM24.8 29.7c-.5-.3.7-.9.9-1.3.6-.4 1-1.1 1.5-1.5 0 .9-1.9 2-2.4 2.8zM23 18.3c-.1 0-.2-.2-.3-.2-.1-.6.8.1.3.2zM28.3 13.1c-.2-.1-.5-.3-.2-.4.2 0 .5.3.2.4zM19.7 34.2c-.4-.1.3-.5.4-.7.5-.1-.2.6-.4.7zM23.6 15.9c-.4-.1.1-.6.3-.5.2.2-.1.5-.3.5zM25.9 21.5c-.2 0-.5-.5-.1-.5.1.1.5.5.1.5zM19.2 25.1c-.1 0-.3-.3-.1-.4.2-.1.4.4.1.4zm.1-.3zM15.2 21.1c-.5-.1.4-.7.2-.2 0 .1-.1.2-.2.2zM21.9 19.2c-.4-.1.2-.5.3-.2 0 .2-.2.2-.3.2zM33.2 21.3c-.7-.1.6-.8.3-.3-.1.1-.2.3-.3.3zm0-.2zM22.5 13c-.4-.1.3-.8.5-.5 0 .2-.3.4-.5.5zM18.7 16.8c-.4-.1.2-.7.4-.4.1.1-.2.3-.4.4zM16.6 18.9c-.5 0 .3-.8.5-.4-.1.1-.3.4-.5.4zM14.4 21.1c-.4-.1.2-.7.4-.4 0 .1-.2.3-.4.4zM20.9 28.8c-.2-.2-1.4-1-1-1.2.2.1 1.4 1 1 1.2zM24.6 14.9c-.4-.1.2-.6.2-.2.1.1-.1.1-.2.2zm0-.3zM29.9 20.6c-.4-.1.1-.3.2-.5.4-.2.1.5-.2.5z"/><path d="M30.2 20.3c-.3 0 0-.4.1-.4.3.1.1.4-.1.4zM17.1 18.4c-.4-.1.3-.7.4-.3-.1.1-.2.3-.4.3z"/><path d="M17.5 18c-.4-.1.2-.6.3-.4.1.2-.2.4-.3.4zM26.4 17.2c-.3 0-.1-.4.1-.3.1 0 0 .3-.1.3zm-.1-.3zM26.6 15.2c-.3-.1-1.1-.9-.5-.8.1.2 1 .6.5.8zM23.9 15.6c-.4-.1.5-.9.7-.9.1.4-.5.7-.7.9zM19.2 34.7c-.4-.1.3-.7.5-.7.2.3-.3.6-.5.7zM11.5 24.6c-.2 0-.2-.3 0-.3s.2.3 0 .3zM15.7 31.1c-.3 0 0-.5.2-.5.2.1-.1.5-.2.5z"/><path fill="none" d="M26.9 26.9h13.5v13.5H26.9z"/><path fill="#010101" d="M32.3 38.7c.1.6.5.8 1.2.8.6 0 .9-.3.9-.7 0-.5-.3-.7-1.2-.9-1.5-.4-1.9-.9-1.9-1.7 0-1 .7-1.6 2-1.6 1.5 0 2.1.8 2.1 1.6h-1.2c-.1-.3-.2-.7-1-.7-.5 0-.8.2-.8.6 0 .4.2.5 1.1.8 1.6.4 2 1 2 1.8 0 1-.8 1.7-2.2 1.7-1.4 0-2.2-.7-2.3-1.7h1.3zM38.6 40.4v-1.2h-2.4v-1l2.2-3.1h1.3v3.2h.6l-.1.9h-.5v1.2h-1.1zm0-3.1v-1.2c-.2.4-.9 1.5-1.4 2.2h1.4v-1zM15.9 39.7c-.1 0-.2 0-.4-.1h-.1c-.2-.1-.5-.1-.8-.3-.4-.3-.8-.6-1-.9-.2-.3-.4-.6-.5-.9 0 0 0-.1-.1-.1-.1-.2-.1-.2-.2-.2h-.2c-.5.1-1.1.2-1.7 0-.2 0-.3-.1-.5-.1-.5-.2-.9-.6-1.2-1-.1-.2-.2-.3-.3-.5v-.1H9c.1 0 .1.1.2.1v-.1c-.2-.3-.2-.5-.2-.8v-.1c-.1-.5.1-.8.2-1.1 0 0 0-.1.1-.1h.2c.2.1.2.2.2.3.1.2.2.4.4.6 0-.1-.1-.2-.1-.3l-.3-.9v-.8c0-.1 0-.1.1-.1h.2c.1 0 .2.1.3.3 0 .1.1.1.1.2s.1.1.1.2c.2.3.3.5.6.8-.2-.5-.3-1-.2-1.3.1-.2.2-.3.4-.4.1-.1.2-.1.3-.1.2 0 .4.2.7.5.1.2.2.3.4.4 0-.1-.1-.1-.1-.2-.1-.2-.2-.3-.3-.5-.1-.4 0-.5.1-.6l.3-.3c.1-.1.2-.1.2-.1.1 0 .2.1.4.4.2.3.5.6.8.8 0-.1-.1-.1-.1-.2s-.1-.1-.1-.2c-.3-.5-.4-.9-.5-1.2-.1-.3 0-.6.1-.7.1-.2.3-.4.6-.4H14.8h-.1c-.1-.1-.3-.2-.5-.3-.2-.1-.4-.1-.6-.1-.1 0-.3 0-.4-.2-.2-.2-.2-.4-.2-.6 0-.3.2-.4.4-.5.1-.1.2-.1.4-.2.1 0 .2-.1.3-.1.2-.1.2-.3.3-.5.1-.2.2-.3.3-.4.2-.1.5-.1.9 0 .2.1.3.2.4.4v.5c0 .3-.1.6-.1.8 0 .1 0 .2.1.3V28c.1-.4.2-.8.7-.9.4-.1 1 .2 1.4.8.2.2.2.4.2.6.1.4 0 .7 0 1v.3c0 .2 0 .3.1.6v-.5c.1-.4.3-.7.7-.9h.2c.1-.1.3 0 .5.1h.1V29c0-.1-.1-.2 0-.3 0-.1.1-.2.1-.3 0-.1 0-.2.1-.3.1-.4.5-.4.7-.5h.9l-.1-.2-.1-.3.3.1s.1 0 .1.1c.3.2.5.2.6.2.1-.1.1-.2 0-.5v-.1c-.5-.7-.6-1-.3-1.4.2-.3.6-.5 1-.5s.8.1 1.2.3c0 0 .1 0 .1.1h.1c.3.2.6.4.8.7.2.2.3.5.4.7 0 .1.1.2.1.3v.1c.2.4.3.7.3 1 0 .3-.1.4-.2.5-.3.3-.8.1-1.3 0-.1 0-.1 0-.2-.1-.3-.1-.6-.2-.8-.2-.3 0-.5 0-.6.1-.1.1-.1.2-.1.4 0 .3.1.8.3 1.1.2.6.4 1.3.3 1.7-.1.3-.2.5-.5.6-.1.2-.4.1-.6.1h-.1c-.2 0-.3-.1-.4-.3-.1-.2-.1-.3 0-.3.2-.3.2-.8 0-1.3v.2c0 .5-.2.9-.6 1.3-.2.2-.4.3-.6.4l.1.1c.4.2.7.2 1 .2.1 0 .2 0 .3.1.1.1.1.3.1.3-.1.5-.2 1-.5 1.3-.2.3-.6.5-1.1.3-.2 0-.4-.1-.6-.3-.3-.1-.4-.3-.4-.6v-.5s0 .1-.1.1c0 0 0 .1-.1.1-.3.4-.9.5-1.7.2.1.1.2.1.3.2.2.1.5.3.7.3.1 0 .2.1.3.2v.2c0 .1-.1.1-.1.1l-.3.3-.1.1-.3.3-.1.1-.1.1c-.1.1-.2.2-.4.3h-.1c-.1 0-.2.1-.3.1-.2 0-.4-.1-.5-.4-.1-.2-.1-.3-.1-.4V35c-.1.3-.4.4-.8.4-.3 0-.5-.1-.8-.2-.3-.1-.6-.2-.8-.4-.1 0-.1-.1-.2-.1-.1-.1-.3-.1-.4-.2l.2.2c.5.5 1.1.9 1.7 1.1.1 0 .2.1.3.2.1.1.1.2 0 .2 0 .1 0 .1-.1.2 0 .1-.1.3-.1.4 0 .3.1.6.2 1 0 .1 0 .1.1.2.1.2.2.5.2.7.1.3 0 .6-.2.8.2.1.1.2-.1.2zM13 37c.2 0 .2.1.3.3 0 0 0 .1.1.1.1.3.2.6.5.9.2.3.5.6.9.9.3.1.5.2.7.3h.1c.3.1.5.1.7-.1.2-.1.2-.4.2-.6 0-.2-.1-.4-.2-.7 0-.1 0-.1-.1-.2-.2-.4-.3-.8-.2-1.1 0-.2.1-.3.1-.5 0-.1 0-.1.1-.2V36c0-.1-.1-.1-.2-.1-.6-.2-1.2-.7-1.7-1.2-.1-.1-.2-.2-.3-.4 0-.1-.1-.1 0-.2s.2 0 .2 0c.2.1.3.2.5.3.1 0 .1.1.2.1.3.1.6.3.8.4.3.1.5.2.8.2.3 0 .5-.1.6-.3v-.5l-.1-.5.3.5c.1.2.2.4.2.7v.5c.1.2.2.3.3.3.1 0 .2-.1.3-.1h.1c.1 0 .2-.1.3-.2l.1-.1.1-.1.3-.3.1-.1c.1-.1.2-.3.4-.4 0-.1-.1-.1-.2-.2-.2-.1-.5-.2-.7-.4-.3-.1-.6-.3-.9-.6l-.7-.5.5.2c.1 0 .1.1.2.1s.2.1.3.1c.8.3 1.3.3 1.6-.1 0 0 0-.1.1-.1.1-.1.1-.2.2-.2h.1v.8c0 .2 0 .3.3.4.2.1.4.2.6.2.4.1.7 0 .9-.3.2-.3.3-.7.4-1.2 0-.1 0-.1-.1-.2l-.1-.1c-.3 0-.6 0-1.1-.2-.1 0-.2-.1-.2-.2v-.1c0-.1.1-.1.1-.1.2-.1.4-.2.5-.3.3-.3.5-.7.5-1.2V29.4l.1.2c.1.2.2.3.2.4.2.6.2 1.1 0 1.5v.1c.1.1.2.2.3.2h.1c.2 0 .3.1.4 0l.1-.1c.2-.1.3-.3.4-.5.2-.4 0-1-.3-1.6-.1-.4-.3-.8-.3-1.1 0-.2.1-.4.2-.5.1-.1.4-.2.7-.2.3 0 .6.1.9.2.1 0 .1 0 .2.1.4.1.9.3 1.1.1.1-.1.2-.2.2-.4 0-.3-.1-.6-.2-.9v-.1c0-.1-.1-.2-.1-.3 0-.2-.2-.4-.4-.6-.2-.2-.5-.4-.8-.6 0 0-.1 0-.1-.1-.4-.2-.7-.3-1-.3l-.2.2c-.1.1-.3.3-.3.5v.8c0 .1 0 .2-.1.3.2.4.1.6 0 .7-.1.1-.3.1-.7-.1v.1c0 .1-.2.1-.2.1h-.9c-.3.1-.5.2-.6.4 0 .1 0 .2-.1.3 0 .1 0 .2-.1.3v.1c0 .1.1.2 0 .3-.1.1-.2 0-.3 0-.1-.1-.3-.1-.4-.1 0 0-.1 0-.1.1h-.1c-.4.2-.5.4-.6.7 0 .2 0 .5.1.7v.2h-.1c-.1 0-.1-.1-.2-.2 0-.1-.1-.1-.1-.2 0-.2-.1-.4-.1-.6v-1.2c0-.2-.1-.3-.2-.5-.4-.5-.9-.8-1.3-.7-.3.1-.5.4-.5.8-.1.3 0 .5 0 .8v.1h-.1c-.1 0-.1-.1-.2-.2-.1-.2-.1-.3-.1-.5 0-.3 0-.6.1-.9 0-.2.1-.4-.1-.8 0-.1-.1-.2-.2-.2-.4-.1-.6-.1-.8 0-.1.1-.2.2-.2.3-.1.2-.1.5-.4.6-.1 0-.2.1-.3.1-.1 0-.2.1-.3.2-.2.1-.3.2-.3.4 0 .1 0 .3.2.4.1.1.2.1.3.1h.1c.2 0 .4 0 .6.1.2.1.4.2.5.3.1 0 .1.1.1.2v.1c0 .1-.1.1-.1.1H14.6c-.2 0-.4.2-.5.4-.1.1-.2.3-.1.6.1.4.2.8.5 1.2 0 .1.1.1.1.2s.1.1.1.2c.1.1.1.2 0 .3-.1.1-.2 0-.3 0-.4-.2-.7-.5-.9-.9-.1-.2-.2-.3-.2-.3h-.1l-.3.3c-.1.1-.1.2 0 .4s.2.3.3.5c.1.1.1.2.1.2 0 .1.1.2 0 .3-.1.1-.2 0-.3-.1-.1-.1-.3-.2-.4-.4-.3-.3-.4-.4-.5-.4-.1 0-.1 0-.2.1l-.1.1c-.1 0-.2.1-.3.3-.1.3 0 .9.2 1.3 0 .1.1.2.1.3v.2l-.1-.1c-.4-.4-.7-.7-.9-1.1 0-.1-.1-.1-.1-.2s-.1-.1-.1-.2-.1-.1-.2-.2h-.1v.8c0 .3.2.5.3.8 0 .1.1.2.1.4 0 .1.1.1 0 .2 0 0 0 .1-.1.1s-.2-.1-.3-.2c-.2-.2-.3-.4-.4-.7 0-.1-.1-.2-.2-.2h-.1c-.1.3-.3.6-.2 1v.1c0 .2.1.4.2.7.2.4.4.8.8 1.1l.1.1v.1c.1.1.2.1.3.1.2.1.3.1.5.1.6.1 1.1 0 1.7 0-.2.4-.2.4 0 .4-.1 0-.1 0 0 0zm7.8-5zm2.2-6.7s-.1 0 0 0c-.2.1-.3.3-.4.5-.1.2.1.4.2.6v-.9c.1 0 .1-.1.2-.2zm.3-.4c-.3 0-.6.2-.7.4-.1.2-.2.3-.1.4v-.1c.1-.2.2-.4.4-.6.1-.1.2-.1.3-.2 0 .2 0 .2.1.1z"/><path fill="#CCC" d="M21.9 27.2c.1 0 .1 0 0 0 .3.3.4.3.2.4-.3.1-.6.1-.9.1-.6 0-1 .2-1 .8 0 .1 0 .1-.1.2v.2c.1.2 0 .3-.1.2-.5-.3-.7-.1-1 .1-.3.2-.5.5-.5 1 0 .2.1.4.1.6 0 .1.1.2 0 .2s-.2-.1-.2-.2c-.2-.2-.2-.3-.2-.5-.1-.4 0-.7 0-1v-.9c0-.3-.4-.7-.7-.9-.5-.3-.8-.2-1 0-.3.4-.3 1-.2 1.7v.1c-.1 0-.1-.1-.2-.1-.2-.3-.3-.5-.3-.8 0-.4 0-.7.1-1 0-.2 0-.4-.1-.6 0-.1-.1-.2-.2-.2-.6-.2-1-.1-1.1.4-.1.4-.3.6-.6.7-.3.1-.6.2-.7.6v.1c.1.3.2.4.4.4.3 0 .6 0 .9.2.2.1.4.2.5.4.1.1.1.2 0 .2h-.5c-.6 0-.9.3-1 .9 0 .4.2.9.6 1.5.1.2.2.3.3.5.1.1.1.1 0 .1-.5-.1-.9-.4-1.2-1-.2-.5-.2-.6-.4-.5l-.3.3c-.2.1-.1.5.1.8.2.2.3.5.4.7 0 .1 0 .2-.1.1-.2-.2-.5-.4-.7-.6-.3-.4-.5-.5-.7-.3-.1.1-.3.2-.4.3-.2.4-.1 1 .3 1.7l.2.2c-.1.1-.2-.1-.3-.2-.3-.2-.5-.5-.7-.8-.2-.3-.3-.5-.4-.8 0-.1-.1-.1-.2-.2h-.1v.9c.1.4.3.8.5 1.3 0 .1.1.2.1.2-.1 0-.1-.1-.2-.1-.3-.3-.6-.6-.7-.9 0-.1 0-.1-.1-.2s-.1 0-.1 0c-.2.4-.3.8-.1 1.4.1.4.3.9.8 1.3.1.1.2.3.4.4v.1h-.1c-.2-.1-.4-.3-.6-.4-.3-.3-.6-.6-.8-1-.3-.4-.3-.8-.3-1.1-.1-.4.1-.8.2-1.1 0-.1.2-.2.3-.3.1-.1 0-.3-.2-.5l-.3-.3c-.1-.1-.2-.2-.2-.3 0 0-.1-.1 0-.1.2.1.3.1.3-.1 0-.4 0-.8.1-1.1 0-.4.1-.7.5-.9.2-.1.8.1 1.2.5.1.1.2.2.2.3 0 .2 0 .4.1.6 0 .1 0 .1.1.2s.1 0 .1-.1c.2-.4.4-.7.8-.9 0 0 .1 0 0-.1 0-.1-.1-.1-.1-.1h-.1c-.2 0-.3-.1-.5-.3-.3-.5-.5-1-.5-1.4-.1-.4 0-.7.2-.8.1-.1.2-.1.4-.1s.4.2.5.4c.1.3.2.7.4 1 .1.2.1.3.2.5.1-.4.1-.9.3-1.3 0-.1.1-.1 0-.2-.1 0-.1.1-.1.1-.2 0-.3 0-.4-.3-.3-.5-.3-1-.3-1.4 0-.5.1-.9.4-1.1.2-.1.4-.2.8 0 .2.1.3.2.3.4s0 .3.1.5c0 .1 0 .1.1.2s.1 0 .1 0c.2-.3.5-.5.8-.7.3-.1.6-.2.8-.4.3-.2.3-.5 0-1-.2-.4-.5-.8-.7-1.2-.3-.5-.4-.8-.1-1.1.2-.2.1-.4-.3-.8l-.3-.3c-.4-.3-.5-.7-.5-1 0-.5.2-.6.8-.3.2.1.4.3.6.4.2.2.4.4.7.5.2.1.2.1.2-.1-.1-.2-.2-.5-.2-.7 0-.3.1-.4.4-.5h.8s.1 0 .1-.1-.1-.1-.1-.2c-.1-.1-.3-.2-.4-.1-.1 0-.2 0-.3.1-.1.1-.2 0-.4-.1-.5-.4-.7-1-.4-1.2.4-.3.8-.4 1.5-.2.1.1.2.1.3.1.5.2.7.4 1 1 0 .1 0 .3.1.4v.4c0-.1 0-.2.1-.2h.1c.1.2 0 .3 0 .4-.1.4-.2.7-.5 1-.1.1-.3.2-.5.2-.1 0-.1 0 0 .3.3.4.5.8.6 1.2.1.3 0 .5-.2.6-.3.2-.7.1-1 .2-.2 0-.5 0-.6.2.5.5.9 1 1.1 1.6l.3.9c0 .3.1.3.3.4.4.1.8.3 1.2.5.3.2.6.5.8.8.1.2.1.2.3.2.3-.1.5-.4.7-.6.3-.2.7-.3 1.1-.3-.4.6-.2.6 0 .8z"/><path fill="#010101" d="M10.4 37s-.1 0 0 0c-.3-.1-.5-.3-.7-.4-.3-.3-.5-.6-.8-1-.3-.4-.3-.8-.4-1.1-.1-.4.1-.8.2-1.1 0-.1.1-.2.2-.2 0-.2.1-.2.1-.2.1-.1 0-.2-.2-.4l-.3-.3-.3-.3s-.1-.1 0-.2c0 0 0-.1.1-.1s.1.1.1.1v-.4c0-.3 0-.6.1-.9 0-.4.1-.8.5-.9.3-.1.9.2 1.3.5.1.1.2.2.2.4s0 .4.1.6c0 0 0 .1.1.1.2-.4.5-.7.8-.9h-.2c-.3 0-.4-.1-.6-.4-.3-.5-.5-1-.5-1.4 0-.3-.1-.7.3-.9.1-.1.3-.1.5-.1s.5.2.6.5c.1.3.2.7.4 1 0 .1.1.2.1.3 0-.1 0-.2.1-.4 0-.3.1-.6.2-.8-.2.1-.4-.1-.5-.3-.3-.6-.3-1-.4-1.4 0-.5.1-.9.5-1.2.2-.2.5-.2.8 0 .3.1.4.3.4.5s0 .3.1.5c0 .1 0 .1.1.1.2-.4.5-.5.8-.7.1-.1.2-.1.4-.2s.3-.1.5-.2c.1 0 .1-.1.2-.2 0-.2 0-.4-.2-.7-.1-.2-.2-.4-.3-.5-.1-.2-.3-.4-.4-.7-.2-.4-.4-.9-.1-1.2 0-.1.2-.2-.3-.7l-.1-.1-.2-.2c-.4-.3-.5-.7-.5-1 0-.2 0-.4.2-.5.2-.1.4-.1.7.1.2.1.4.3.6.4.2.2.4.3.6.5v-.1c-.1-.2-.1-.4-.1-.6 0-.3.1-.5.5-.5h.7l-.1-.1c-.1-.1-.2-.1-.3-.1-.1 0-.2 0-.2.1-.2.1-.4 0-.5-.1-.4-.3-.6-.7-.6-1 0-.1 0-.3.1-.3.4-.4.9-.4 1.6-.3.1.1.2.1.2.1.5.2.7.4 1.1 1 0 .1 0 .3.1.4v.1h.1v.6c-.1.3-.2.7-.5.9-.1.1-.3.2-.6.2l.1.1c0 .1.1.1.1.2.2.4.5.7.6 1.1.1.3 0 .5-.2.7-.2.1-.5.1-.7.2h-.4c-.2 0-.3 0-.4.1.5.6.9 1 1.1 1.5l.3.9c0 .2 0 .2.3.3.4.1.8.3 1.3.6.3.2.6.5.8.9 0 .1.1.1.1.1.1-.1.3-.2.4-.3l.3-.3c.3-.2.6-.3 1.1-.3h.1c.2 0 .3 0 .6.1l.1.1c.2.1.3.2.2.3 0 .1-.1.1-.2.1-.3.1-.6.1-.9.1-.6 0-.9.2-.9.7 0 .1 0 .2-.1.2v.2c.1.1.1.3 0 .3-.1.1-.2.1-.3 0-.4-.2-.6-.1-.8 0 0 0-.1 0-.1.1-.3.2-.4.5-.4.9 0 .1 0 .2.1.3 0 .1.1.2.1.3v.2H19c-.1 0-.2-.1-.3-.2-.2-.2-.2-.4-.2-.5-.1-.4 0-.8 0-1v-.9c0-.2-.4-.6-.7-.8-.4-.2-.7-.2-.9 0-.3.4-.3.9-.2 1.6v.1h-.1c-.1 0-.1-.1-.2-.1-.2-.3-.4-.5-.4-.8 0-.3 0-.7.1-1 0-.1 0-.3-.1-.6 0-.1-.1-.1-.1-.2-.3-.1-.6-.1-.8 0-.1.1-.2.2-.2.3-.1.4-.3.6-.7.7h-.1c-.3.1-.5.2-.6.5v.1c.1.3.1.3.3.3.3 0 .6 0 1 .2.2.1.4.2.6.5.1.1.1.2.1.2l-.1.1h-.5c-.3 0-.5 0-.6.2-.1.1-.2.3-.2.6 0 .4.2.8.6 1.4 0 0 0 .1.1.1.1.1.2.2.3.4 0 0 .1.1.1.2s-.1.1-.2 0c-.5-.2-1-.5-1.3-1.1l-.1-.2-.1.1c-.1.1-.2.1-.3.2v.1c0 .1 0 .4.2.6 0 0 0 .1.1.1.1.2.3.4.3.6 0 0 .1.2 0 .2-.1.1-.2 0-.3-.1l-.8.7c-.2-.2-.4-.3-.6-.6-.2-.3-.4-.3-.4-.4-.1 0-.1 0-.1.1 0 0-.1.1-.2.1-.1.1-.2.1-.2.2-.2.4-.1.9.3 1.6l.1.1c.1.1.2.2.1.3h-.1c-.1 0-.2-.1-.2-.1h-.1c-.2-.2-.5-.4-.7-.8-.2-.3-.3-.5-.5-.8 0-.1 0-.1-.1-.1v.8c.1.4.3.9.5 1.3 0 .1.1.2 0 .3-.1.1-.2 0-.3-.1-.3-.3-.6-.6-.7-1v-.1c-.2.4-.3.8-.1 1.4.1.4.3.9.8 1.3l.2.2.2.2.1.1c-.2-.1-.2 0-.3 0 .1 0 0 0 0 0zm0-.1zm-2-5c0 .1.1.1.2.2s.2.2.4.3c.2.2.3.5.2.6l-.1.1c-.1 0-.1.1-.1.1-.1.3-.2.6-.1 1 0 .3.1.7.3 1.1.2.4.5.7.8.9l.2.2-.1-.1c-.5-.5-.7-1-.8-1.4-.3-.3-.3-.8 0-1.3 0 0 0-.1.1-.1h.1c.1.1.1.1.1.2.1.4.4.6.7.9-.2-.4-.4-.8-.5-1.3-.1-.2 0-.4 0-.6v-.3c0-.1 0-.1.1-.1h.2c.1 0 .2.2.2.2.1.2.2.5.4.7.2.3.4.5.6.7-.4-.7-.5-1.3-.3-1.7l.3-.3.1-.1c.1-.1.2-.1.3-.1.2 0 .4.1.6.4l.6.6h.1c-.1-.2-.2-.4-.3-.5l-.1-.1c-.2-.2-.2-.5-.2-.7 0-.1.1-.1.1-.2.1-.1.2-.1.2-.2l.1-.1c.1 0 .1-.1.2-.1s.2.1.3.3c.2.4.6.8 1.1.9-.1-.1-.2-.2-.2-.3 0 0 0-.1-.1-.1-.3-.4-.6-1-.6-1.5 0-.3.1-.6.3-.7.2-.2.4-.2.8-.2h.5c-.1-.2-.3-.3-.5-.4-.3-.2-.6-.2-.9-.2-.3 0-.4-.2-.5-.4V28c.1-.4.4-.5.7-.6h.1c.3-.1.5-.3.6-.6 0-.2.1-.3.3-.4.2-.1.5-.1.9 0 .1 0 .2.1.3.3.1.3.1.5.1.6-.1.3-.1.7-.1 1 0 .2.1.5.3.7-.1-.7 0-1.2.3-1.6.2-.3.6-.4 1.1-.1.3.2.7.6.7.9.1.4.1.7 0 .9 0 .3-.1.6 0 1 0 .1.1.3.2.5v.1s0 .1.1.1c0-.1 0-.2-.1-.3 0-.1-.1-.2-.1-.3 0-.5.2-.9.5-1.1h.1c.2-.1.5-.3 1 0V29c0-.1-.1-.2 0-.3v-.1c0-.6.4-.9 1.1-.9.3 0 .6 0 .9-.1l-.1-.1-.1-.1c-.2-.1-.3-.1-.5-.1h-.1c-.5 0-.8.1-1.1.3-.1.1-.2.2-.3.2-.1.1-.3.2-.4.3-.2.1-.2 0-.4-.2-.2-.3-.5-.6-.8-.8-.4-.3-.8-.4-1.2-.5-.3-.1-.4-.2-.4-.5s-.1-.6-.3-.8c-.2-.5-.6-1-1.1-1.5l-.1-.1v-.1c.1-.2.4-.2.6-.2h.4c.2 0 .5 0 .6-.1.1-.1.2-.2.1-.5s-.3-.7-.5-1c0-.1-.1-.1-.1-.2-.1-.1-.1-.2-.1-.3 0-.1.1-.1.2-.1.2 0 .4-.1.5-.2.2-.2.3-.5.4-.8v-.4h-.2V19.1c-.3-.6-.5-.7-1-.9-.1 0-.2-.1-.3-.1-.6-.2-1.1-.1-1.4.2-.1 0-.1.1-.1.2 0 .2.1.5.5.8.2.2.2.1.3.1.1-.1.2-.1.3-.1.1 0 .3 0 .4.2.1 0 .1.1.2.2v.1c0 .1-.1.1-.1.1h-.3c-.2 0-.3-.1-.4 0-.2 0-.3.1-.3.4 0 .2.1.3.1.5v.1c0 .1.1.2 0 .3-.1.1-.2 0-.3-.1-.2-.2-.4-.3-.6-.5-.2-.2-.4-.3-.6-.4-.3-.1-.4-.2-.5-.1-.1 0-.1.2-.1.4 0 .3.1.6.5.9l.2.2.1.1c.2.3.5.6.3.9-.2.2-.1.5.2 1 .1.2.3.4.4.7.1.2.2.4.3.5.2.3.3.6.2.8 0 .1-.1.2-.2.3-.2.1-.3.2-.5.2-.1 0-.2.1-.4.2-.3.2-.6.3-.8.6 0 0 0 .1-.1.1h-.1c-.1-.1-.1-.2-.1-.2-.1-.2-.1-.4-.1-.5 0-.2-.1-.3-.3-.3-.3-.1-.5-.1-.7 0-.3.2-.4.5-.4 1 0 .4.1.8.3 1.4.1.2.2.2.2.2s0-.1.1-.1h.1c.1.1 0 .2 0 .2-.1.3-.1.5-.2.8 0 .2-.1.4-.1.5l.1.1h-.2c-.1-.2-.2-.4-.3-.5-.1-.3-.2-.7-.4-1-.1-.2-.2-.4-.4-.4-.1 0-.2 0-.3.1-.2.1-.2.3-.2.7.1.5.2.9.5 1.4.2.3.2.3.4.3h.1s.1 0 .2.1c0 0 .1.1 0 .1 0 .1-.1.1-.1.1-.4.2-.6.4-.8.8 0 0 0 .1-.1.1h-.1c-.1-.1-.1-.2-.2-.2-.1-.2-.1-.4-.1-.6 0-.1 0-.1-.1-.2-.4-.3-.9-.5-1.1-.4-.3.1-.4.3-.4.8 0 .3 0 .6-.1.9v.3c0 .1 0 .2-.1.2.3-.8.3-.8.2-.8zm3.9-4z"/><path fill="#989898" d="M13.7 38.3c.4.6.9.9 1.4 1 .2.1.4.1.6.1.5.1.8-.4.6-1-.1-.4-.4-.9-.4-1.3 0-.3 0-.5.1-.7 0-.1 0-.2.1-.3.1-.1 0-.1-.1-.1s-.3-.1-.4-.2c-.5-.2-.9-.6-1.4-1.1-.2-.2-.3-.4-.4-.6-.1-.1 0-.2.1-.1.5.4 1.1.6 1.6.8.6.2 1.2.4 1.5.1.2-.2.2-.4 0-.8 0-.1-.1-.1 0-.2.1 0 .1.1.2.1.2.3.3.6.3.8 0 .2 0 .4.1.6 0 .2.1.2.2.2.3-.1.5-.1.6-.4.1-.1.2-.2.2-.3.2-.2.3-.4.5-.6 0 0 .1-.1.2-.1 0 0 .1 0 0-.1 0-.1-.1-.1-.1-.1-.2-.1-.5-.2-.7-.3-.4-.2-.8-.5-1.1-.8l-.1-.1c0-.1.1 0 .1 0 .3.2.7.3 1 .4.6.2 1 .1 1.2-.2.1-.1.2-.3.3-.5 0 0 0-.1.1 0 .1 0 .1.1.1.1 0 .1.1.3.1.4v.5c0 .1 0 .2.2.2.4.2.7.3.9.3.6 0 .8-.5.9-1 .1-.2.1-.4.2-.6 0-.1.1-.1 0-.2s-.1 0-.2 0c-.3.1-.8-.1-1.2-.3-.1 0-.2-.1-.2-.2-.1-.1 0-.1.1-.1.1-.1.2-.1.4-.2.3-.2.5-.4.6-.7.2-.4.2-.9.1-1.5v-.1c.1 0 .1.1.2.2.2.4.3.8.4 1.1 0 .4 0 .6-.2.9 0 0-.1.1 0 .2s.2.2.3.2c.5.1.8-.1 1-.4.3-.4.2-1.1-.1-1.9-.2-.4-.3-.8-.3-1.1 0-.4.2-.6.5-.6.4-.1.8 0 1.3.2.3.1.6.2.8.2.4 0 .7-.3.6-.9-.1-.4-.4-.9-.5-1.3-.1-.2-.3-.4-.5-.5-.2-.1-.3-.3-.5-.4.4.2.7.5 1 .9.6.8.9 1.5.9 2.1 0 .2 0 .3-.2.4-.1.1-.1.2-.2.2-.3.3-.5.4-.7.4-.3 0-.5.1-.9 0s-.7-.3-1.1-.6c-.3-.2-.4-.2-.4 0 0 .4.1.8.3 1.1.2.6.4 1.3.6 1.9.2.6.3 1.1.1 1.4-.2.3-.5.4-.9.3h-.4c-.1 0-.1 0-.1.2.2.5.3.9.3 1.2 0 .5-.2.8-.6 1-.5.2-1.2-.1-1.9-.6-.2-.2-.2-.1-.2.1.1.4.1.7-.1.9-.3.3-.6.3-1 .4-.5.1-1 .2-1.5.4-.2.1-.3.3-.4.6-.2.4-.2.8-.2 1.2 0 .4-.1.8-.2 1.1-.2.4-.7.4-1.2.3-.3-.1-.6-.2-1-.4h-.1c-.4-.3-.8-.6-1.2-1.1v-.1z"/><path fill="#010101" d="M16.5 40.1c-.2 0-.3 0-.5-.1-.3-.1-.6-.2-1-.4h-.1c-.4-.3-.8-.6-1.2-1.1-.1-.1-.1-.1-.1-.2V38l.2.3c.4.6.9.8 1.4 1 .2.1.4.1.6.1.2 0 .3 0 .4-.2.1-.2.2-.5.1-.8 0-.1-.1-.2-.1-.4l-.3-.9c-.1-.3 0-.6.1-.8v-.1c0-.1 0-.1.1-.2-.1 0-.2-.1-.3-.1 0 0-.1 0-.1-.1-.5-.2-.9-.6-1.4-1h-.1c-.2-.1-.3-.3-.4-.5 0 0 0-.1-.1-.1-.1-.1-.1-.2 0-.2h.2c.5.3 1 .6 1.5.8.5.2 1.1.4 1.4.1.1-.1.1-.4 0-.7 0-.1-.1-.1 0-.2 0 0 0-.1.1-.1s.2.1.3.2c.2.3.3.6.4.8V35.5c0 .1 0 .1.1.1h.1c.2-.1.5-.1.6-.3.1-.1.1-.2.2-.3l.3-.3c.1-.1.1-.2.2-.3l.1-.1h-.1l-.6-.3h-.1c-.4-.2-.7-.5-1.2-.8-.1 0-.1-.1-.1-.2 0 0 0-.1.1-.1h.2c.4.2.7.3 1 .4.5.1.9.1 1.1-.2 0 0 0-.1.1-.1.1-.1.2-.2.2-.3 0 0 0-.1.1-.1h.2c.1 0 .1.1.1.2.1.2.1.3.1.4v.5s0 .1.1.2c.3.2.6.3.9.3.5 0 .7-.4.8-.9 0-.1 0-.1.1-.2 0-.1.1-.3.1-.4v-.1h-.1c-.3.1-.7 0-1.3-.3-.1-.1-.2-.1-.3-.2v-.2c0-.1.1-.1.1-.1.1-.1.2-.1.3-.2.2-.1.4-.4.6-.7.2-.4.2-.8.1-1.4v-.2h.1c.1 0 .2.1.2.2.2.4.3.7.4 1.2.1.4-.1.7-.2.9l.2.2c.5.1.6-.1.9-.4.3-.3.2-.9-.1-1.8-.2-.5-.3-.8-.3-1.1 0-.4.2-.7.5-.7.4-.1.8 0 1.4.2.3.1.5.2.8.2.2 0 .3-.1.4-.2.1-.1.1-.4.1-.6-.1-.2-.1-.4-.2-.6-.1-.2-.2-.5-.2-.7 0-.2-.2-.3-.4-.5-.1-.1-.2-.2-.4-.3-.1 0-.1-.1-.2-.1l-.5-.4.6.2c.5.2.8.6 1.1.9.6.8.9 1.5.9 2.2 0 .2-.1.4-.2.5-.1 0-.1.1-.1.2-.1.1-.3.2-.5.2h-1c-.4-.1-.8-.4-1.1-.6l-.2-.1v.1c0 .3.1.7.3 1.1.1.3.2.5.3.8.1.3.2.7.4 1 .2.7.2 1.2.1 1.5-.2.4-.7.4-1 .4h-.4c.2.4.3.8.3 1.2 0 .5-.2.9-.6 1-.6.3-1.4-.2-2-.6.1.4.1.8-.1 1-.3.3-.6.4-1 .5-.2 0-.4.1-.6.1-.3.1-.6.1-.9.2-.2.1-.3.3-.4.5-.1.3-.2.7-.2 1.2s-.1.9-.3 1.2c-.5.4-.7.6-1.1.6zm-1.7-.8c.1 0 .1.1.2.1.4.2.7.3 1 .4.6.1.9.1 1.1-.2.1-.2.2-.6.2-1.1 0-.5.1-.9.2-1.3.1-.2.2-.5.5-.6.3-.1.6-.2.9-.2.2 0 .4-.1.6-.1.4-.1.7-.2.9-.4.2-.2.2-.5.1-.8v-.3c.1 0 .2 0 .3.1.9.6 1.4.8 1.8.6.3-.1.5-.4.5-.9 0-.4-.1-.8-.3-1.1 0-.1-.1-.2 0-.2 0-.1.1-.1.2-.1h.4c.5 0 .7-.1.8-.3.2-.4 0-1-.1-1.4-.1-.3-.2-.7-.4-1-.1-.3-.2-.5-.3-.8-.1-.4-.3-.8-.3-1.2 0 0 0-.2.1-.3.1-.1.2 0 .4.1.3.2.7.5 1 .6.3.1.5.1.7 0h.2c.2 0 .3-.1.4-.2.1-.1.1-.2.2-.2.1-.1.1-.2.1-.3 0-.5-.2-1.1-.7-1.8 0 .1.1.2.1.3.1.2.2.4.2.6.1.3.1.6-.1.8-.1.2-.3.3-.6.2-.3 0-.5-.1-.8-.2-.5-.2-.9-.3-1.3-.2-.3.1-.4.2-.4.5s.1.6.3 1.1c.4 1 .4 1.6.1 1.9-.2.3-.4.6-1.1.4-.1 0-.2-.1-.3-.2-.1-.1-.1-.2 0-.3.1-.2.2-.4.1-.8s-.2-.7-.4-1.1c.1.6 0 1-.2 1.4-.2.4-.4.6-.7.8-.1.1-.2.1-.4.2 0 .1.1.1.2.2.5.2.9.3 1.1.3.1 0 .1-.1.2 0s.1.2 0 .2c0 .2-.1.3-.1.5v.1c-.2.5-.4 1-1 1-.3 0-.6-.1-1-.3-.1-.1-.2-.2-.2-.3V33c0-.1 0-.2-.1-.4v-.1c0 .2-.1.3-.2.4l-.1.1c-.3.3-.7.4-1.3.3-.2-.1-.5-.2-.7-.3.3.3.6.5.9.6h.1l.6.3c.1 0 .1 0 .2.2 0 0 .1.1-.1.2l-.1.1c-.1.1-.1.2-.2.3-.1.1-.2.3-.3.4l-.2.2c-.1.3-.4.3-.7.4h-.2c-.1 0-.1-.1-.1-.3V34.8c0-.2-.1-.4-.2-.6.1.3.1.5-.1.7-.3.4-1 .2-1.6 0-.5-.2-1-.4-1.5-.7.1.1.2.3.3.4h.1c.4.4.9.8 1.3 1 0 0 .1 0 .1.1.1.1.2.1.3.1 0 0 .2 0 .2.1v.1s0 .1-.1.1v.1c-.1.2-.1.4-.1.7 0 .3.2.6.3.9 0 .1.1.2.1.4.1.4.1.7-.1.9-.1.2-.3.3-.6.2-.2 0-.4-.1-.6-.2.5.3.4.2.3.2zm-1.1-5.2zm9.4-.8zM8.6 32.2s-.1 0 0 0c-.1 0-.2-.1-.3-.2l-.1-.1c-.3-.4-.5-.9-.5-1.3 0-.5.1-.9.5-1.1.5-.3 1.1-.3 1.9-.1l-.1-.1c-.1-.1-.3-.3-.4-.5-.6-.9-.9-1.8-.8-2.6.1-.5.4-.7.6-.7.2 0 .5 0 .9.3.3.2.5.4.7.5 0-.1 0-.3-.1-.4v-.4c-.1-.3-.1-.6 0-.9.1-.3.3-.4.5-.5.3-.1.8 0 1.3.3.1.1.2.1.4.2s.4.3.6.4c.3.2.5.1.6 0 .1 0 .1-.1.2-.2s.1-.4-.1-.7c0-.1-.1-.2-.2-.3 0-.1-.1-.1-.1-.2-.1-.1-.2-.3-.3-.4-.2-.3-.5-.6-.7-1-.2-.3-.2-.5-.2-.7 0-.1.1-.2.2-.3 0 0-.1-.1-.1-.2-.7-.7-1-1.3-.7-1.8.3-.4.8-.6 1.5-.5.2 0 .4.1.6.1-.2-.3-.3-.5-.4-.8-.2-.4-.2-.7 0-1 .3-.5.8-.7 1.6-.4l.6.3h.1c.2.1.5.2.7.3h.1c.2 0 .3 0 .4-.1.1 0 .1-.1.2 0 .2.1.1.2.1.3-.1.4-.2.8-.1 1.4v.6c0 .1 0 .3-.1.3l-.1.1v-.1c-.1-.3-.1-.5-.1-.7 0-.1 0-.3-.1-.4-.1-.3-.3-.6-.6-.8-.2-.1-.3-.2-.5-.2-.6-.1-1.1-.1-1.4.2 0 0-.1.1-.1.2 0 .2.2.5.5.7.1.1.1 0 .1 0 .3-.2.6-.1.9.1.1.1.2.1.2.3v.2c0 .1-.1.1-.2.1h-.6c-.2 0-.3 0-.4.1-.1.1-.1.2 0 .4 0 .2.1.4.2.7 0 .1.1.2 0 .2-.1.1-.2 0-.2 0-.2-.2-.5-.3-.7-.5-.1-.1-.2-.1-.3-.2l-.1-.1c-.2-.1-.3-.3-.5-.3-.2-.1-.4-.1-.5-.1-.1 0-.1.2-.1.4s.1.5.4.7c.1.1.2.2.2.3l.1.1c.5.6.4.9.3 1-.2.2-.1.5.2 1 .2.3.3.5.5.8.1.1.1.2.2.3.2.4.3.7.2.9 0 .1-.1.2-.3.3-.1.1-.3.1-.4.2l-.6.3c-.3.2-.5.3-.6.6 0 0 0 .1-.1.1H13c-.1-.1-.2-.2-.2-.3-.1-.2-.2-.5-.2-.7 0-.2 0-.2-.3-.3-.4-.1-.5 0-.7.2-.2.3-.2.8-.1 1.6 0 .1.1.3.2.5 0 0 0 .1.1.1v.1s.1-.1.2-.1h.1c.1 0 .1.1.1.2v.2c-.1.4-.2.9-.2 1.3v.4l-.1-.1c-.1 0-.2-.1-.2-.2l-.3-.6c-.1-.2-.1-.4-.2-.6 0-.1-.1-.3-.1-.4-.1-.2-.2-.4-.4-.3-.3 0-.4.2-.4.5 0 .5.2 1 .5 1.5.2.3.2.3.3.3h.2c.1 0 .3.1.4.2 0 0 .1.1 0 .2 0 .1-.1.1-.1.1-.4.1-.7.5-.8 1 0 0 0 .1-.1.1h-.1c-.1 0-.1-.1-.2-.2-.2-.3-.3-.6-.2-.9 0-.1 0-.1-.2-.3-.4-.3-.7-.4-.9-.3-.2.1-.2.2-.3.3-.1.3-.1.6-.1.9v.4c0 .2 0 .3-.1.5.1.1.1.2 0 .3 0-.1 0 0 0 0zm-.3-.5c.1.1.1.1 0 0l.1.1s0 .1.1.1V31c0-.3 0-.7.1-1 .1-.2.2-.4.4-.4.2-.1.5-.1 1.1.3.2.1.3.2.3.4 0 .3 0 .5.2.8 0 0 0 .1.1.1.2-.6.5-.9.9-1.1-.1-.1-.2-.1-.2-.2h-.1c-.3 0-.3 0-.5-.4-.3-.5-.5-1-.5-1.5 0-.4.2-.7.6-.7.3 0 .5.1.6.4 0 .1.1.3.1.4.1.2.1.4.2.6.1.2.1.3.3.5 0-.4.1-.9.2-1.3v-.2h-.1l-.1.1c-.1.1-.1.1-.1 0-.1 0-.1-.1-.2-.2 0 0 0-.1-.1-.1-.1-.2-.2-.3-.2-.5-.2-.8-.1-1.3.1-1.7.1-.2.4-.5.9-.3.3.1.4.2.4.5 0 .2 0 .4.2.6 0 .1.1.1.1.2.1-.4.4-.6.7-.7l.6-.3c.1-.1.3-.1.4-.2.1 0 .1-.1.2-.2.1-.2 0-.4-.2-.8-.1-.1-.1-.2-.2-.3-.1-.3-.3-.5-.5-.8-.2-.4-.5-.9-.1-1.2.2-.2-.1-.6-.3-.7l-.1-.1-.2-.2c-.3-.3-.5-.6-.5-.9 0-.2 0-.4.2-.5.1-.1.3-.1.6.1.2.1.4.2.5.4l.1.1c.1.1.2.1.3.2.2.2.4.3.6.5-.1-.2-.2-.4-.2-.6 0-.2 0-.4.1-.5.1-.1.3-.2.5-.1h.5c0-.1-.1-.1-.2-.2-.4-.3-.6-.2-.7-.1-.1.1-.2.1-.3 0-.3-.3-.6-.6-.6-.8 0-.1 0-.2.1-.3.3-.3.9-.4 1.6-.3.2.1.3.1.5.2.4.2.6.5.7.9 0 .2 0 .3.1.5v.4-.5c-.1-.5-.1-1 .1-1.4 0-.1 0-.1.1-.1-.1.1-.4.1-.5.1h-.2c-.3-.1-.5-.2-.8-.3H16l-.6-.3c-.7-.2-1.2-.1-1.4.3-.1.2-.1.5 0 .8.1.3.2.5.4.8.1.1.1.2.1.3 0 .1-.1 0-.2 0h-.1c-.2-.1-.4-.1-.5-.1-.7 0-1.1.1-1.3.4-.2.4 0 1 .6 1.5.1.1.2.2.2.3 0 .1-.1.1-.1.1-.1 0-.1.1-.1.2s0 .3.2.6.4.6.7.9c.1.1.2.3.3.4 0 .1.1.1.1.2.1.1.1.2.2.3.2.3.3.7.1.9-.1.1-.2.2-.3.2-.3.1-.5.1-.8 0-.2-.1-.4-.2-.6-.4-.1-.1-.2-.1-.4-.2-.5-.3-.9-.4-1.2-.3-.2.1-.3.2-.4.4-.1.2 0 .5 0 .8v.4c0 .2.1.4.1.5 0 0 0 .1-.1.2-.1 0-.2 0-.2-.1-.2-.2-.4-.4-.7-.6-.3-.2-.6-.3-.8-.2 0-.3-.2-.1-.2.3-.1.7.2 1.5.8 2.4.1.2.2.3.4.4l.1.1c.1.1.1.1.1.2v.1h-.1c-.8-.2-1.4-.2-1.8.1-.3.2-.5.5-.4 1-.2.4 0 .8.2 1.2zm2.5-.3zm5.6-11.9zM24.8 24.2c-.1 0-.3 0-.4-.1-.2-.1-.3-.1-.5-.2-.4-.1-.7-.4-1-.8l-.2-.4v-.1c0-.5.2-.8.4-1 .3-.2.6-.2 1-.1l.1-.1c.2.1.3.3.4.4l.1.1c0 .1.1.2.1.2s0 .1.1.1c.3.5.4.9.3 1.4 0 .2-.1.3-.2.4.1.1 0 .2-.2.2zM23.1 23c.2.4.5.6.9.7.2.1.3.1.5.2s.4.1.6 0c.1 0 .1-.1.2-.3.1-.4 0-.8-.3-1.3 0 0 0-.1-.1-.1 0-.1-.1-.2-.1-.2s0-.1-.1-.1l-.3-.3h-.2c-.5-.2-.7-.1-.8 0-.2.2-.4.5-.4.9v.1l.1.4zm1.2-1.5z"/><path fill="#010101" d="M25.1 24.7c-.3 0-.6-.1-.9-.3-.5-.4-.9-.8-1.3-1.3l.1-.1c.3.4.6.6 1 .7.1 0 .2.1.2.1.1 0 .3.1.4.1.2 0 .3 0 .3-.1.1-.1.1-.3.1-.6 0-.4-.2-.7-.4-1.1l-.3-.7.4.6c.5.7.8 1.4.8 1.9v.5c.1.2-.1.3-.4.3zm-1.3-1c.2.2.4.3.6.5.5.4 1 .4 1.2.1v-.5c0-.4-.1-.7-.3-1.1 0 .1.1.2.1.4 0 .4 0 .6-.1.7-.2.2-.4.2-.6.2-.1 0-.3-.1-.4-.1-.1 0-.1-.1-.2-.1s-.2 0-.3-.1zM28.2 25.8H28c-.4-.1-.8-.5-1-.9 0-.1-.1-.2-.1-.4-.1-.2 0-.6.1-.7.1-.1.6-.3 1.3.5.4.4.5.8.5 1.1 0 .2-.1.3-.3.3 0 .1-.1.1-.3.1zm-1.1-1.9c-.1.1-.1.3 0 .5 0 .1.1.3.1.4.1.4.5.7.8.8h.4c.1 0 .2-.1.2-.2 0-.3-.1-.6-.5-1-.4-.7-.8-.6-1-.5zM13 21.2c-.7-.6-1-1.4-.7-1.8.4-.6 1.1-.7 2-.4v-.1c-.5-.7-.6-1.3-.4-1.7.3-.5.8-.6 1.5-.4.2.1.5.2.7.3.1 0 .1.1.2.1.2.1.5.2.7.3 0 0 .1 0 .1.1l.1.1h-.1c-.2 0-.4-.1-.7-.2 0 0-.1 0-.1-.1-.1 0-.2-.1-.2-.1-.2-.1-.4-.2-.5-.2-.5-.2-1-.1-1.2.1-.2.1-.3.3-.3.6s.1.6.4 1.1v.1c.2.2.2.3.1.4-.1.1-.1 0-.3 0h-.1c-.6-.2-1.1-.2-1.5.1-.3.1-.4.3-.4.7 0 .3.3.6.5.9l.1.1.1.1v-.1zM11.1 26.5c-.1 0-.2-.1-.3-.2l-.1-.1c-.1-.1-.2-.1-.2-.2-.1-.1-.2-.1-.3-.2l-.4-.4.5.2c.2.1.4.3.7.5 0-.2-.1-.3-.1-.5s-.1-.3-.1-.5c-.1-.6.2-1 .7-1.1.4-.1 1 .2 1.4.5.2.1.4.2.6.4.2.1.4.2.6.1.1 0 .2-.1.3-.2.1-.1.1-.4-.2-.8 0 0 0-.1-.1-.1-.1-.1-.1-.2-.1-.3v-.3l.2.3c.3.4.5.8.5 1.1 0 .3-.2.4-.4.5-.4.2-.9-.1-1.4-.5-.5-.3-1.1-.6-1.4-.5-.3.2-.5.5-.5.8 0 .3.1.6.1.9V26.5c.1 0 .1 0 0 0zM15.4 23.7v-.2c0-.2.1-.2.2-.3.2-.1.5-.1.7-.1h.4c.2 0 .4-.1.4-.2.1-.2 0-.6-.4-1.2l-.1-.1c-.2-.3-.3-.4-.2-.5 0-.1.1-.1.3-.2.4-.1.6-.4.7-.9 0-.1.1-.1.1-.1v-.1h.2c-.1.3-.2.6-.3.8-.2.3-.5.4-.8.5v.1c.1.1.1.2.2.3.1.1.1.2.2.3.2.3.3.5.3.8 0 .2 0 .4-.3.5-.2.1-.5.1-.7.1h-.2c-.3 0-.6.1-.7.2v.3zM8.6 32.4l-.3-.5c-.4-.6-.6-1.2-.6-1.7.1-.5.4-.8.7-.9.4-.2 1-.2 1.6-.1l-.1-.1c-.1-.1-.3-.3-.3-.4l-.2-.6.4.5c.1.2.3.4.5.5.1.1.2.2.1.3 0 .1 0 .1-.1.1h-.2c-.9-.2-1.6-.2-2 .2-.4.4-.3 1 .2 1.9v.1l.3.7z"/><path fill="#010101" d="M17.8 19.4c-.2-.1-.2-.2-.2-.2-.1-.6-.1-1 .1-1.4v-.1c-.1.1-.3.1-.5.1l-.4-.3h.4c.3 0 .5-.1.7-.3.1-.1.3-.2.5-.3 0 0 .1 0 .2.1s0 .2 0 .2c0 .1-.2.2-.2.2-.5.2-.6.8-.5 1.6v.2l-.1.2zm.3-2.2.1.1h.1c.1 0 .1-.1.1-.1-.2-.1-.2-.1-.3 0zm-.1 0zM9 35.7c-.3-.4-.3-.6-.4-.9-.1-.5-.1-1 0-1.3.1-.3.2-.5.4-.6.1-.1-.1-.2-.1-.3l-.4-.4c-.1-.1-.2-.2-.2-.3l-.1-.4.3.3.4.4c.3.3.5.5.5.7 0 .1 0 .2-.1.3-.4.3-.4 1-.2 1.9 0 0 0 .1.1.1 0 .1.1.2.1.2l-.3.3zM24.3 21.6c-.1 0-.1 0-.2-.1-.3-.3-.7-.4-.9-.3-.2 0-.3.1-.3.2s-.1.2-.3.1l-.1-.1v-.1c0-.3.2-.5.4-.6.3-.1.7-.1 1.2.2.1.1.3.2.4.3l.1.1-.3.3zm-1.1-.6c-.1 0-.2 0-.2.1-.1.1-.2.2-.3.4v-.1c.1-.3.3-.4.5-.4h.1-.1zM22.8 22.8c-.2-.4-.3-.6-.3-.8v-.1h.1c.1 0 .1.1.2.2s.1.3.2.4v.2c-.1 0-.1.1-.2.1z"/><path fill="#010101" d="M22.6 22.1h-.1c-.1-.3-.1-.5 0-.7v-.1h.1c.1 0 .2.1.2.2v.5c-.1.1-.1.1-.2.1.1 0 0 0 0 0zm0-.4zM17.6 19.7v-.8l.2.4V19.6l-.2.1zM22.9 27c-.1 0-.1-.1-.1-.1s0-.1-.1-.1l-.1-.1s0-.1-.1-.2c-.3-.4-.3-.8-.2-1 .2-.4.5-.6 1-.6 0 0 .1-.1.2.1 0 0 .1.1 0 .1 0 .1-.1.1-.1.1-.3.2-.4.5-.4.9 0 .3 0 .6-.1.9.1 0 .1 0 0 0zm-.1-.3c.1 0 .1 0 0 0 .1-.1.1-.4.1-.6 0-.4.1-.7.4-1-.4 0-.6.2-.8.5-.1.2-.1.5.2.8.1.1.1.2.1.3zM12.3 30l-.1-.3c-.1-.2-.1-.3 0-.4v-.1c0-.4.1-.7.2-1v-.1h.1v.3c-.1.3-.1.6-.1.9v.3l-.1.4zM17.4 19l-.1-.2c-.2-.5-.3-.6-.8-.8h-.1c-.1 0-.2-.1-.2-.1l-.2-.2h.3c.4 0 1 .5 1.2.9 0 .1.1.2 0 .3l-.1.1z"/><path fill="#010101" d="M12.3 28.3v-.4l-.1-.1h.1c.1 0 .1-.1.2.1.1.1.1.2 0 .2v.1c0 .1 0 .1-.1.2l-.1-.1z"/><path fill="#010101" d="M12 28v-.1c0-.1 0-.1.1-.2h.2l.1.1-.1.1s-.1.1-.2.1H12zM12.2 29.8c-.2-.1-.2-.2-.3-.3l-.2-.4.3.3.1.1h.1v.1c.1 0 .2.1 0 .2.1 0 0 0 0 0zM17.7 17.9v-.5l.2-.1c.1-.1.3-.2.4-.3h.1l.1.2-.8.7zM23 22.9c-.1 0-.1-.1-.2-.1 0-.1-.1-.2-.1-.3 0-.1-.1-.3-.2-.4v-.6l.1-.1c.1-.1.1-.2.2-.2.3-.2.7-.2 1.2.1.1.1.3.2.4.3 0 0 .1 0 .1.1.1.1.2.2.2.3 0 0 0 .1-.1.1s-.1 0-.2-.1c0 0-.1 0-.1-.1-.5-.2-.7-.1-.9 0-.2.1-.3.4-.3.7v.2l-.1.1c.1 0 0 0 0 0zm-.3-.9c.1.1.1.3.2.4 0 .1 0 .1.1.2v-.1c.1-.4.2-.7.4-.8.3-.2.6-.3 1-.1-.1-.1-.2-.2-.3-.2-.4-.3-.8-.3-1-.1l-.2.2s0 .1-.1.1l-.1.4zM28 25.4c-.2 0-.3-.1-.5-.3-.3-.3-.5-.5-.5-.8 0-.2.1-.3.2-.4.1-.1.3-.1.4-.1.3.1.5.2.7.5.1.2.3.7.1.8l-.1.1c-.1.1-.2.2-.3.2zm-.6-1.5c-.1 0-.1 0-.2.1s-.1.1-.1.2c0 .2.2.5.5.7.4.4.4.3.6.2l.1-.1c0-.1 0-.4-.1-.6-.2-.3-.3-.4-.6-.5h-.2z"/></svg>