<svg version="1.2" baseProfile="tiny" xmlns="http://www.w3.org/2000/svg" viewBox="0 0 45 45" overflow="visible" xml:space="preserve"><path fill="none" d="M.1 44.5h45v45H.1z"/><path fill="none" d="M0 0h45v45H0z"/><path fill="none" d="M4.5 4.5h36V18h-36z"/><path fill="#010101" d="M7.3 11.6 5.6 4.9h1.5c.7 3.1.9 4.4 1 5.2.3-1.3.9-3.6 1.3-5.2h1.3c.3 1.3 1 3.9 1.2 5.1.2-1.5.9-4.1 1.1-5.1h1.4l-1.8 6.7h-1.5c-.4-1.5-.9-3.6-1.2-4.8-.1 1.2-.8 3.4-1.1 4.8H7.3zM16.8 8.9v2.7h-1.4V4.9h2.9c1.5 0 2.2.8 2.2 1.8 0 .9-.5 1.4-1 1.6.3.1.8.5.8 1.7v.3c0 .5 0 1 .1 1.3H19V10c0-.7-.2-1.1-1.3-1.1h-.9zm0-1.1H18c.8 0 1.1-.3 1.1-.9 0-.6-.4-.9-1.1-.9h-1.2v1.8zM26.5 8.7h-3.2v1.7h3.5l-.2 1.2h-4.8V4.9h4.8v1.2h-3.3v1.4h3.2v1.2zM33.6 9.5c-.3 1.2-1.2 2.2-2.9 2.2-2.1 0-3.1-1.5-3.1-3.4 0-1.8 1-3.5 3.2-3.5 1.8 0 2.6 1 2.8 2.2h-1.4c-.1-.5-.5-1-1.4-1-1.2 0-1.7 1.1-1.7 2.3 0 1.1.4 2.3 1.7 2.3.9 0 1.2-.6 1.4-1h1.4zM34.7 4.9h1.4v3c.4-.5 1.8-2 2.7-3h1.7l-2.7 2.8 2.8 3.9h-1.7l-2.1-3-.7.7v2.3h-1.4V4.9z"/><path d="M28.2 21.3c-.3-.8-.3-.6.3-1.2-.2.1-.3.4-.4.3-.3-.3-.5-.4-.1-.7-.2.1-.4.6-.7.2 0 .1.3.1.2.2-.8-.8-1.7-1.7-2.6-2.5.2-.1.5-.4.7-.4.1.2.5.2.4.4 0-.1.1-.2.2-.1 0 .1-.2.1 0 .1.3 0 .5-.7 0-.2.3-.3.3 0 .1.1-1.1-.5 0-.6.4-1.1-.6.3-.9.7-1.6 1 .6-.6 1.1-1.1 1.7-1.6-.7.4-1.5 2.2-2.2 1.1-.1.1.1.1 0 .2.1 0 .1 0 .1.1.3-.1-.1.2.2 0v.1c.2 0-.1.1.2.2-.4.1-1.1.8-1.1.5-.2.3-.2.1-.4.4-.1-.3 0 .2-.2.1-.1 0-.1.2-.1.1-.2.1-.3.2-.4.4-1.3.7 1.5-1.6.4-.7-.4.4-1.3.9-.5 1.3.1.2.6.4.6.6-.5.2.2.8.4.3.1 0 .3.2.3.3 0 0 0-.1.1 0-.3.2-.2.2-.1.5.2-.2.2-.2.1 0 .2-.1.2-.5.5-.1.5.3-.2.6-.4.2.2.6.8-.2.4.3-.2.3.2-.2.3-.1.1.1-.1.2-.2.3-.1 0 0 .1 0 0 .3-.5.7.1.8.4.1.2.2.1 0 0 .2.1.2.1.2.3-.1-.1-.3 0-.1 0 .2-.1.3.3.5.1.2-.2.5-.4.6-.7-.3.2-.4.5-.7.7.1-.1 0-.1-.1-.1 0-.1.1-.1.1-.1 0-.1-.2 0 .1-.2.3-.3.5-.7.9-1 .1-.2.4-.8.7-.9-.2.1.2 0 0 .2 0 .1.1 0 0 .1.6 0-.3.6-.4.8-.9 1.1.5-.7.8-.5-.1.2-.4.1 0 .3-.2-.1-.2-.2 0 0zm-.3-.8c.1 0 .1 0 .1-.1.1.1-.2.4-.1.1-.2 0 0 0-.1-.1-.1.2-.3-.1-.2-.2 0-.2 0-.1.1 0 .1 0 0 .1 0 .1s.1-.1.1 0c0 0-.1.1 0 .1.2-.1.3.1.1.1zm-4.7-.5c-1.4-1 1-1.6 1.6-2.3 1 .5 1.8 1.7 2.7 2.4-1.9 3.4-2.1 1.9-4.3-.1zm0 .4c.1 0 .1-.2.2-.1.2.2-.6.4-.2.1zm.7.7c-.1-.1 0-.1 0 0 .2 0 0 .1 0 0zm-.4-.6c-.1.1-.2 0 0 0 0-.2.1-.1 0 0z"/><path fill="#010101" d="M28.9 19.7c-1.4 1.6-.7.4-.8 1.9-.2-.4-.3-.4-.3-.7-.3.1-.7.7-1.1 1-.2.1-.8 1.1-1.1.7v.4c-.1-.1-.2-.6-.3-.2 0-.4-.3-.7-.7-1-.4.8-.7-.7-1-.1.1-.7-.5 0 .1-.8-.4-.3-.4.5-1-.4.8-.3-.4-.6-.5-1-.2-.3-.2-.3.1-.6.3-.2.8-1 1-.9.2.3-.9.7-.5.7.3-.2.3-.1.4-.4.2 0 .4-.4.5-.2.1-.2.8-.4.8-.6 0-.1-.2-.1-.2-.2-.2 0-.2 0 0-.1-.1-.1-.1-.2.1-.2.8 1.2 1.5-1.1 2.4-1.1-.3.4-2 1.8-1 1.2.1-.2.5-.4.7-.5 0 0 .2-.4.1-.4v.5c-.2.4-1.4.6-.7.8.3-.1.8-.5.3.2l.4.4c-.6-.5-.7 0-.8-.3 0-.1-.2.1-.2.1.3-.1-.1-.5-.2-.5-.6.3-.6.3-.1.7.7.6 1.3 1.3 1.9 1.9.2.1.3-.3.4-.3.2.1-.1.2-.2.4.7.5 1.1-.1 1.5-.4zm-1.1.7zm-.1-.2zm-.8 1.4c.2-.3 1-.7.7-.9-.1 0-.2-.2-.2 0-.3.2-.3.6-.6.8-.1.1-.2.1 0 .2-.1 0-.2.1-.2.2-.6.5-.6.9-.1.1.1.1.1-.1.2-.1 0-.1 0-.2.2-.3zm.8-1zm-.1-.4c0-.1 0 0 0 0 0 .1 0 0 0 0zm-.2.3c.2-.1.1-.1 0 0 .1.1.2.1 0 0zm0-.3zm-2.7 1.2c1.2 1.7 1.7-.1 2.6-1-.1-.9-1.8-1.7-2.4-2.6-.5.2-1.1.7-1.6 1.1-.7.4-.7.6-.1 1.1.3.2.9 1.3 1.1.5-.2.3.2 1 .6.8-.1 0-.2.1-.2.1zm2.2-.2zm0 0zm0 0zm-.7-3.7s.1 0 0 0c.1 0 0 0 0 0zm-.1-.7zm-.1.8zm-.1 4.8zm-.1 0c-.1 0-.1 0 0 0zm-1.3-5.3zm-.2 4.5c.3-.2.2-.2 0-.4-.3-.2-.2.3 0 .4zm0 0zM24 21c0-.1-.1 0 0 0zm-.1-2.8zm-.3.2c.1 0 .1 0 0 0 .1 0 .1 0 0 0zm-.2 2.3c.1-.1.3-.2.2-.3-.1 0 0 .1-.1.1-.1.2-.4 0-.1.2zm0 .1zm0-.5zm-.2.2c.1-.1.2-.1.2-.2-.1 0-.2.1-.2.2zm.1-.2zm-.3-1.5c.1 0 .1 0 0 0 0 0 .1 0 0 0zm-.2.1.1-.1c-.2 0-.1.3-.1.1zm-.3.4c0-.1 0-.1.1-.1-.1 0-.1 0-.1.1zm.1.2z"/><path d="M19 26c-3.1-3.3-2.6-1.6.3-4.7.8-.8 1-1.4 1.9-.3-1.2-.9-.5-1.1.3-1.8-.3.1.1.5.2.4.7.1 1.3 1.3 2 1.8.7.6 1.3 1.5 2.1 1.9-1-.9-2-1.9-2.9-2.8-1-1-1.3-2-2.4-.5-1.6 1.6 0 .1.7-.7-1.4 1.7-3.3 3.1-4.9 4.8 0 0 .1 0 0 .1-.4.4.2-.1.3-.3.9.6 1.6 1.4 2.4 2.1zm2.4-6.7c.1 0 .3.1 0 0 .4-.2.5.4 0 0zm-2 1.8c-.1.2-.3.4-.4.4.1-.2.3-.3.4-.4z"/><path fill="#010101" d="M25.9 23c.1 1.2-3.5-3.2-4.1-3.5-.7.3-.1-.6-1.2.6.1.4.7.7 1 1.1-.5-.1-.8-.6-1.1-.9-.7.6-1.2 1.2-1.9 1.8.1-.3 0-.1-.1 0 .2 0-1.1 1.1-1.1 1.1 0-.2-.5.5-.5.4 0 .2.3.3.4.5.7.6 1.2 1.4 1.9 1.8-.6.3-1.9-1.7-2.5-2.1-2.3 1.8 2.3-2.7 2.8-3.2.6-.5 1.6-2.4 2.3-1.5 1.4 1.2 2.8 3.3 4.1 3.9zm-4.2-3.6c-.1 0 0 0 0 0zm-.2-.3c0-.1 0-.1 0 0 0-.1 0-.1 0 0z"/><path d="M27.4 16.1c.5-.2.9-.9 1.3-1 0 .1-.1.1-.1.2.4-.2.8.7 1.2.9-.1.5-.8-.6-1-.8-.1.2 1.6 1 .7 1.5.1 0 .1-.1.2-.2.2-.2.6.3.6.5-.3 0-.5-.7-.7-.1.1-.3.4 0 .4.1-.5.3 0-.1.2 0-.3.4 0-.1.2-.1.3.3.6.5 0-.1.6.8-1.3-1.3-.1 0-.2-.2-.7-.8-.1-.4.2.1.4.6.7.5.2-.2.2-.2 0-.4-.4-.5-4.3-4.3-2.6-2 .7 1.2-1.2-1.1-1.1-.4.3-.3.7.3.6.4-.4.5-.1-.1.2 0l-.2-.2c.2 0 .9.9.5.6 0 0 0 .1.1.1.1.2-.8.7-1 .9zm2.7.3c-.1.1-.2-.1-.2 0h-.1c.1-.2.2 0 .3-.2.1-.2.2.2.2 0-.6.1-.9-.6-1.4-1-.2-.1.2-.3 0-.4-.3.1-1.1-.4-.8-.7.2-.1 3.8 3.3 2.8 3.1-.1-.2-.6-.5-.5-.7 0-.2-.2-.1-.3-.1zm-1.5-1.3c.4-.6.2.1 0 0-.1-.2.1-.3 0 0zm1.5 2.1c-.1 0-.3-.2-.3-.3l.3.3z"/><path fill="#010101" d="M31.2 17c-.2.9-1-.5-1.1-.3.3.4.9.7.7 1.1-.2-.6-.6-.6-.9-.1 0-.1.3-.5.1-.4-.2.2-.8.1-.3 0s.1-.5-.1 0c.1-.6-.5-.1.1-.7.2-.2-.6-.7-.8-1-.5-.7-.9.5-1.5.6 0-.4.7-.5.8-.9-.3 0 .2-.1.2-.1-.4-.7-.7-.2-1.1.2.1-.2.4-.6.5-.8-.2-.3-.2-.5-.6-.2h-.1c.5-.7 1.1.3 1.5.6-.1-.4-1.2-.8-.4-1.2.9 1 2.1 2.1 3 3.2zm-.3.1c.4-.2-.5-.7-.5-.9-.1.4.2.6.5.9zm-.7.1zm0 0zm-.2-.9h.1c.1-.1 0 0-.1 0zm0-.1c.4-.1-1-1.5-1.1-1.1.2.4.8.7 1.1 1.1zm0 .7c.1 0 .1 0 0 0 .1 0 .1 0 0 0zm-.1-.5zm-.1.4s.1 0 0 0c0-.1 0-.1 0 0zm-.1-.5c-.1-.3-.7-.9-1-1 .4.3.7.7 1 1zm-.9-1zm-.3-.5c.5-.1-.2-.5-.4-.7-.1.1-.2.2-.1.3.1-.1.5.4.5.4zm.2 0zm-1-.3z"/><path d="M18.4 31.1c-.2-.2.1-.1.1-.3-.2.1-.3.2-.4 0-1.2-1.4-3.3-2.8-4-4.3.6-.6.8-1.2 2 .3-.1-.5-1.1-.8-1-1.2-.1.1-.2.3-.3.3.6-.6-.9.6-.7.9 1.2 1.4 2.8 3 4.3 4.3zm-4.1-4c.3.3.7.6.9.9l-.9-.9zm2.9 2.9.4.4c-.1-.1-.2-.3-.4-.4zm-1.7-1.8.4.4c-.2-.1-.3-.2-.4-.4z"/><path fill="#010101" d="M18.6 30.7c-.1.2-.3.2-.2.4-.1 0-.5-.2-.5-.3-1.2-1.4-2.8-2.6-4-4.1-.2-.4.7-1 1.1-1.3 0 .1.1 0 .1.1 0 .3.5.5.6.7.2.2.5.3.4.6-.4-.4-.8-.8-1.2-1.1-.1.3-1 .8-.8.9 1.4 1.2 3 3.8 4.5 4.1zm-.4.3z"/><path d="M25.8 23.2c0 .1.2.2 0 .3 0 .1.1.1.1 0-.2.1-.6.4-.8.7.4-.4 1.1-.7.9-.9-.7-1-1.4-1.2-.2-.1zm-.3-.4c.1.1.4.4.2.3-.3-.3-.8-.9-.2-.3z"/><path fill="#010101" d="M26.2 23.4c-.2.4-.7.7-1 1 .4-.6 0-.1-.3 0 .4-.5 1-.9.9-1.1-.3-.5-.9-.9-1.3-1.3.4.3 1.1.5 1.3 1l.1-.4c0 .4.1.5.3.8zm-.2 0c.1-.1 0-.2-.1-.2 0 .1.1.2.1.2z"/><path d="M25.6 15.9c.5-.7 2.3-2.1.8-.9-.6-.1-.4.7-.8.9zm.5-.5c-.2 0 .2-.4.2-.2 0 0 .1-.1.2-.1-.2.1-.7.6-.4.3z"/><path fill="#010101" d="M27.2 14.4c0-.1-1.8 2.1-1.7 1.5.4-.2.2-1.1.8-.9.4-.1.7-.8.9-.6zm-1 .7zm0 0zm-.2.1.1-.1-.1.1z"/><path d="M22.8 26.4c.2-.6-2.2-2.2-2.9-3.2.5.8 2.7 2.2 2.9 3.2z"/><path fill="#010101" d="M23.1 26.2c-.1.1-.3.4-.4.2-.3-1.1-2.2-2.2-3-3.3 1.2.6 2.2 2.3 3.4 3.1z"/><path d="M18.8 30.4c.4.1.9-.8 1.4-1.2-.5.5-1 1-1.4 1.2z"/><path fill="#010101" d="M20.3 29.3c0-.1-1.6 1.8-1.4 1.2h-.3c.1 0 .7-.9.6-.4.3-.1.8-1.1 1.1-.8zm-1.2 1s-.1 0 0 0z"/><path d="M27.7 18.6c-.3.2-.3.2-.5-.1.1.2.3.3.1.5.2-.2.7.4.5.5 0 .1.2-.4.3-.5-.2.4-.4.2-.6-.1 0 0 .3-.1.2-.3-.1.4-.3.2 0 0z"/><path fill="#010101" d="m28.4 18.9-.5.8c-.2-.1-.1-.2 0-.3-.4-.4-.5-.4-.9-.1.5-.4.4-.6 0-1 .4.2.4.5.8.2.1-.1.1-.2.1 0 .1.3-.4.5.1.7 0 0 .2-.3.4-.3zm-.5.7zm-.4-.7z"/><path d="M21.2 28c-.2 0-.3-.4-.6-.5.2.3.7.5.4.7-.2.1.1.1 0 .2-1.1 1 .8-.6.2-.2-.2 0-.1-.1 0-.2z"/><path fill="#010101" d="M21.5 28c-.1 0-1 1.2-1.1.9.1-.2.4-.3.4-.5-.2-.1 0-.2.1-.3 0-.2-.4-.3-.4-.5-.2-.3-.2-.3.1-.1.4.2.4.6.8.4l-.2.2c-.2.2.2-.1.3-.1zm-.5.4c0-.1 0-.1 0 0z"/><path d="M16.4 27.1c.5.6 1.1 1.1 1.7 1.6-.6-.5-1.1-1.1-1.7-1.6z"/><path fill="#010101" d="M18.1 28.7c-.6 0-1.2-1.1-1.8-1.5.6 0 1.3 1.1 1.8 1.5z"/><path d="M20 29.2c-.9 1.1-1.1.3-1.9-.4.9.8 1 1.6 1.9.4z"/><path fill="#010101" d="M20.2 29.1c-1 1.5-1 .7-2.1-.2.4-.2.8.7 1.2 1 .2-.3.5-.7.9-.8z"/><path d="M23.9 23.5c.6.6 1.2.9.3 1.5.2-.2.6-.6.7-.8-.3.3-.6-.5-1-.7z"/><path fill="#010101" d="M25.2 24.2c-.1 0-.9 1.1-1 .8.1-.2.3-.4.5-.5 0-.3-1-.7-.7-1 .4.3.6.9 1.2.7z"/><path d="M29.8 18.9c.3-.2.2-.1 0 0-.2.3.4.1.3-.1 0-.4-.1-.1-.3.1z"/><path fill="#010101" d="M30.2 18.5c.1.3-.4.9-.5.4-.1 0 .6-.7.5-.4z"/><path d="M26.9 18.5c.6.6-.2-.9-.5-.6 0 .3.4.4.5.6 0-.2-.7-.5-.4-.5.2 0 .9.9.4.5z"/><path fill="#010101" d="M27.2 18.6c-.3.5-.6-.4-.9-.6.1-.5.8.3.9.6z"/><path d="M28.3 18.9c.3-.4.5-.8.7-1.3-.2.4-.5.8-.7 1.3z"/><path fill="#010101" d="M29.1 17.6c-.2.4-.5 1.3-.9 1.2.3-.3.5-1.2.9-1.2z"/><path d="M15.1 25.4c.2-.1 1-1 .7-.7-.2.1-.5.5-.7.7.4-.4.6-.6 0 0z"/><path fill="#010101" d="M16 24.6c-.1.2-1.3 1.3-.9.6.2-.1.8-.9.9-.6zm-.1 0z"/><path d="M30.3 17.5c0 .3.5-.1.2-.2-.1 0-.2.1-.2.2.1-.1.1 0 .2 0-.1.1-.2.1-.2 0z"/><path fill="#010101" d="M30.7 17.5c-.1.2-.5.4-.5 0 0-.3.5-.4.5 0-.1 0 0 0 0 0zm-.2 0c0-.1 0-.1-.1-.1 0 0 .1 0 .1.1z"/><path d="M21.8 26.9c-.1.6.7.1 0 0 .3 0 .3.4.2.1 0-.1 0 0-.1 0s0 .1 0 .1c-.1 0 0-.1-.1-.2-.1.1-.1.1 0 0z"/><path fill="#010101" d="M22.2 27.1c0 .2-.3.2-.4.2.1-.1-.1-.2-.1-.3-.1-.4.4-.2.5.1z"/><path d="M18 22.9c-.1-.2-.3-.1-.2.1.1.3.5.2.2-.1zm-.1 0c.1.1.3.2.1.3-.1-.1-.1-.2-.1-.3z"/><path fill="#010101" d="M18.2 23.1c-.1.3-.3.1-.5 0-.1-.2.1-.3-.1-.5.2.2.5.2.6.5zm-.4-.2c0 .1.1.1 0 0z"/><path d="M20 28.9c.2.3.4-.1.1-.2-.2-.2-.3.1-.1.2zm.1 0c.1.3 0 .1-.2 0-.1-.5.6.2.2 0z"/><path fill="#010101" d="M20.3 28.9c-.1.3-.4.2-.5 0-.1-.4.5-.3.5 0zm-.3-.1c-.1 0 0 0 0 0z"/><path d="M19.6 21.3c.2.2.4-.1.1-.2-.1-.3-.3.1-.1.2zm0-.3c.1.1.4.3.1.3-.1 0-.2-.2 0-.1 0-.1-.1-.1-.1-.2z"/><path fill="#010101" d="M20 21.2c-.1.4-.4.2-.5 0 0-.4.4-.3.5 0zm-.3 0s.1 0 0 0c.1 0 .1 0 0 0z"/><path d="M14.1 26.7c.2.2.4 0 .2-.1-.1-.2-.3 0-.2.1zm0-.1c.1.2.2.1.1 0 .3.2 0 .3-.1 0z"/><path fill="#010101" d="M14.5 26.7c-.1.4-.6 0-.4-.3.1.1.3 0 .4.3z"/><path d="M24.2 25.3c-.2.1-.1 0 0-.1-.2.2-.3.3-.4.6.3-.4 0-.3.4-.5z"/><path fill="#010101" d="m24.3 25.2-.5.5c-.3-.2.2-.6.4-.8 0 .2 0 .3.1.3z"/><path d="M19 26c.2.3.5.5.7.7-.2-.2-.4-.5-.7-.7z"/><path fill="#010101" d="M20 27c-.5-.3-.8-.9-1.3-1 .5-.3 1 .6 1.3 1z"/><path d="M22.2 27.1c-.3.3-1.2 1-.4.4.1-.2.6-.3.4-.4z"/><path fill="#010101" d="M22.3 27.1c-.1.1-.8.8-1 .6.2-.4.8-.5.7-.9.1.1.3.2.3.3z"/><path d="M20 29.2c.1-.2.3 0 .2-.1 0 0 .1.1.1 0h-.1s.2 0 .2-.1c0-.4-.1.1-.4.2z"/><path fill="#010101" d="M20.8 28.3c0 .1-.4.6-.4.6.1.2-.2.3-.2.4l-.1-.1c-.6.3.6-.6.7-.9zm-.4.8zm-.2.1z"/><path d="M23.6 17.9c.3-.1.4-.5.7-.6-.3.1-.5.5-.7.6z"/><path fill="#010101" d="M24.6 17.2c-.6.2-.7.8-1.4.9.5-.3.8-1 1.4-.9z"/><path d="M16.1 25.1c.2-.2 0-.3-.1-.4-.3 0 0 .2.1.4zm-.1-.4c.1.1.2.1.2.2-.1.1-.2-.1-.2-.2z"/><path fill="#010101" d="M16.3 24.9c0 .1-.1.2-.1.3-.1-.2-.5-.3-.4-.5.1 0 0-.1 0-.2.2.1.4.2.5.4z"/><path d="M23.4 25.8c-.4.8-.3.4.2 0 0 .1-.2.2-.2 0z"/><path fill="#010101" d="M24 25.5c-.1 0-.9 1.1-1 .8.3-.2.4-.6.4-1 .1.7.2.4.6.2z"/><path d="M23.6 25.1c.1.2.4.3.3 0-.1-.1-.1-.1-.3 0zm.2.2c-.3-.2.1-.3.1-.1 0 .1 0 .1-.1.1.1 0 .1-.1 0 0-.1-.2-.1-.1 0 0z"/><path fill="#010101" d="M24 25.2c0 .3-.6.1-.9.2.1-.1.7-.1.3-.3.3-.2.5-.2.6.1z"/><path d="M29.5 19.1c.1 0 .5-.5.7-.7-.2.1-.5.5-.7.7z"/><path fill="#010101" d="M30.2 18.4c-.6.5-.8 1.4-1 .1l.2.5c.1 0 .9-1 .8-.6z"/><path d="M19.4 22.7c-.2-.3-.7-.5-.7-.8-.2.1.5.7.7.8z"/><path fill="#010101" d="M19.5 22.7c-.2.3-.6-.5-.8-.6-.3-.7.6.4.8.6z"/><path d="M27.9 15c0 .1.3.2.2.3-.4.2-.1.1.1 0 .1-.1-.1-.2-.2-.2.3.3.1 0-.1-.1z"/><path fill="#010101" d="M28.5 15.4c-.3-.2-.5.2-.8.1.1-.1.3-.2.4-.2-.2-.1-.3-.3-.3-.4.2.1.5.3.7.5z"/><path d="M20.4 27.4c-.2-.2-.4-.5-.6-.6.2.2.4.5.6.6z"/><path fill="#010101" d="M20.5 27.4c-.1.4-.7-.6-.8-.6.1-.4.7.5.8.6z"/><path d="M16.2 24.3c-.4.3 0 0 .1-.2l-.4.4c0 .2.3-.1.3-.2z"/><path fill="#010101" d="M16.7 23.7c-.3.5-.6.9-1 1.3.1-.5.6-1 1-1.3z"/><path d="M27.2 18.5c-.1-.2-.2-.5-.4-.6.1.1.2.3.4.6z"/><path fill="#010101" d="M27.2 18.4c-.3 0-.6-.7-.9-.9.4.3.7.4.9.9z"/><path d="M27.7 15.3c.1-.2.2-.3.3-.3-.1-.3-.3.2-.3.3z"/><path fill="#010101" d="M28.1 15c0 .1-.1.1-.2.1-.1.1-.2.3-.3.4 0-.2.2-1 .5-.5z"/><path d="M18.4 30.7c-.1-.2-.1 0-.2-.1-.2.1.2.3.2.1z"/><path fill="#010101" d="M18.4 30.7c0 .4-.6 0-.3-.2.1 0 .3.1.3.2zm-.1 0zm-.1 0"/><path d="M26.7 16.5c0 .2.5-.3.3-.2-.2.1-.3.2-.3.2z"/><path fill="#010101" d="M27.1 16.4c-.5.5-.6.2-.5-.3.2.8.3-.2.5.3zm-.1-.1z"/><path d="M18.4 30.7c.3.2-.1-.5-.3-.1 0 .1.2-.1.2-.1 0 .1.1.1.1.2z"/><path fill="#010101" d="M18.5 30.7c0 .1-.2.1-.3.2 0-.1.1-.3 0-.3-.6.2.1-.5.3.1z"/><path d="m29.5 19.1-.6.6c.1-.2.4-.4.6-.6z"/><path fill="#010101" d="M29.5 19.1c-.2.2-.5.7-.7.6.2-.2.6-.9.7-.6z"/><path d="M18.4 31.1c.2-.1.4-.3.6-.5-.2.1-.5.3-.6.5z"/><path fill="#010101" d="M19 30.6c-.1.1-.7.8-.7.4.2-.1.5-.6.7-.4z"/><path d="M15.7 28.2c.1.2.3.3.5.5-.1-.2-.4-.3-.5-.5z"/><path fill="#010101" d="M16.6 29.2c-.3-.3-.7-.6-1-.9.4-.2.8.6 1 .9z"/><path d="m27.4 15.1-.6.6c.3-.2.5-.4.6-.6z"/><path fill="#010101" d="M27.5 15.2c-.2.1-.5.7-.7.5.1-.1.6-.8.7-.5z"/><path d="m23.2 22.9.6.6c-.2-.2-.4-.5-.6-.6z"/><path fill="#010101" d="M23.9 23.4c-.1.3-.7-.6-.8-.6l.1-.1.7.7z"/><path d="m17.2 23.4-.3.3.3-.3z"/><path fill="#010101" d="M17.5 22.9c-.2.5-.6.9-1.1 1.1.1 0 1.1-1.1 1.1-1.1z"/><path d="m21.5 27.9.6-.6c-.2.2-.5.4-.6.6z"/><path fill="#010101" d="M22.2 27.4c-.1 0-.7.9-.8.6.1-.1.7-1 .8-.6z"/><path d="M27.4 16.1c0-.1 0 0 0 0-.5.2-.2.2 0 0z"/><path fill="#010101" d="M27.5 16.2c-.1 0-.3.3-.4.2-.1-.3.5-.6.4-.2z"/><path d="M16.4 27.1c0-.1-.2-.2-.2-.3-.1.1.1.1.2.3z"/><path fill="#010101" d="M16.5 27.4c-.2-.3-.6-.6-.5-1.1.1.4.5.7.5 1.1z"/><path d="M14.2 26.8c.1.2.3.3.4.4-.1-.2-.3-.3-.4-.4z"/><path fill="#010101" d="M15 27.6c-.4-.3-.9-.7-1.1-1.2.4.4.8.8 1.1 1.2z"/><path d="m28.5 19.1-.4.4c.2-.1.3-.3.4-.4z"/><path fill="#010101" d="M28.6 19.1c-.1.1-.4.6-.5.4 0-.1.4-.7.5-.4z"/><path d="M25.6 23.2c.2.2 0 .1.1.2.2.1.1-.3-.1-.2z"/><path fill="#010101" d="M25.9 23.4c0 .2-.4.1-.3-.1 0-.1-.2-.2-.3-.2.3 0 .6 0 .6.3z"/><path d="m22.4 26.8.3-.3-.3.3z"/><path fill="#010101" d="M23.2 25.9c-.3.4-.6.9-1.1 1.1l1.1-1.1z"/><path d="M25 16.6c.1-.2.3-.3.5-.5-.2.1-.4.3-.5.5z"/><path fill="#010101" d="M25.5 16.1s-.6.8-.6.5c.1-.1 0 0 0-.1.1 0 .5-.7.6-.4z"/><path d="M14.9 26.7c-.1-.1-.2-.3-.4-.3.1.1.2.3.4.3z"/><path fill="#010101" d="M15.2 27c-.2-.1-.9-.4-.7-.6.3.1.5.4.7.6z"/><path d="M25.6 23.2c-.1.1 0 .2.2.3-.1-.1-.3-.1-.2-.3z"/><path fill="#010101" d="M25.9 23.6c-.4-.1-.5-.4-.1-.7-.3.4 0 .4.1.7z"/><path d="M24.7 22c.1.1.1.2.2.2-.1 0-.2-.1-.2-.2z"/><path fill="#010101" d="M25.2 22.5c-.5-.1-.8-.6-1-1 .1 0 1 1 1 1z"/><path d="m20.8 28.4-.3.3c.1-.1.3-.2.3-.3z"/><path fill="#010101" d="m20.9 28.4-.4.4c-.3-.1.2-.4.3-.5l.1.1z"/><path d="M21.3 19.6c0 .1.1.1.2.2 0-.1-.1-.2-.2-.2z"/><path fill="#010101" d="M21.9 20.3c-.2-.3-.7-.5-.6-.9.1.2.4.6.6.9z"/><path d="M16.5 24.8c.1.1.2.2.2.3 0-.1-.1-.2-.2-.3z"/><path fill="#010101" d="M16.9 25.4c-.2-.3-.6-.8-.9-1.1.4.3.9.6.9 1.1z"/><path d="m22 21.6.3.3c-.1 0-.2-.1-.3-.3z"/><path fill="#010101" d="M22.3 21.9c-.3.3-.6-.6-.8-.8l.8.8z"/><path d="m29.2 17.3.3-.3c-.1 0-.2.1-.3.3z"/><path fill="#010101" d="M29.5 17c-.1.2-.3.4-.5.5.1-.1.3-.8.5-.5z"/><path d="M22.1 26.7c-.1-.1-.1-.2-.3-.3.2.1.2.2.3.3z"/><path fill="#010101" d="M22.4 26.9c-.2-.1-.6-.3-.5-.6.2.1.3.4.5.6z"/><path d="M30.2 16.3c0 .1-.1.1-.2.1.2 0 .3 0 .2-.1z"/><path fill="#010101" d="M30.3 16.4c-.1.1-.3.1-.4 0 .3 0 .4-.5.4 0z"/><g fill="#010101"><path d="m12 32.9-.1-.1c-.4-.4-.6-.8-.6-1.2 0-.2.1-.5.2-.6-.1-.2-.2-.3-.2-.4-.1-.5 0-1 .4-1.4.1-.1.2-.2.4-.3l.1-.1c.1-.1.1-.1.2-.1h.1c.3-.2.5-.2.8-.2.1 0 .2 0 .3.1v-.3c.1-.4.3-.7.7-.8h.3c.1 0 .2.1.3.1l.2.2c.1 0 .1-.1.2-.1.1-.1.3-.1.4-.2 0 0-.1-.1-.1-.3 0-.4.2-.7.3-.8.2-.2.4-.4.7-.5.3-.2.7-.1.9.1 0 0 .1 0 .1.1V26c0-.1 0-.2.1-.3.2-.4.4-.6.6-.8l.1-.1c.2-.2.5-.4.7-.5.3-.2.6-.2.9.1.1.1.2.2.3.4.1.3.2.5.1.7 0 .3-.2.5-.4.7l-.1.1.1.1c.1.1.1.2.2.4 0-.1.1-.1.1-.1.1-.1.3 0 .4.1l.1.1c.1.1.3.3.4.5.1-.1.2-.2.3-.2.3-.2.6-.2.9-.2.2 0 .3.1.5.1.2.1.4.2.5.4.3.3.4.7.2 1.1 0 .1-.1.1-.2.2l.1.1-.1.2c-.1.1-.2.1-.3.1-.1 0-.1 0-.2-.1 0 .1 0 .3-.1.4l-.4.4c-.3.2-.6.2-.9.1-.1 0-.1-.1-.2-.1-.1.2-.2.4-.4.5l-.1.1c-.1.1-.2.1-.3.2 0 0-.1 0-.2.1-.2 0-.2 0-.3-.1v-.1c-.2.2-.4.3-.5.3-.3.1-.5.1-.8 0-.2-.1-.3-.2-.4-.3 0 .2-.1.3-.1.4-.1.2-.2.3-.4.4l-.1.1c-.2.2-.4.4-.7.6-.1.1-.2.1-.2.1h-.1c-.1 0-.2 0-.3-.1V32c-.1.1-.3.2-.6.2 0 0 .1.1 0 .3 0 .1-.1.2-.2.3-.2.2-.5.4-.8.5-.4.1-.7 0-1-.3-.2-.2-.3-.4-.4-.6v-.3h-.2l.1.1c.1.1 0 .3 0 .4v.1c-.1.3-.3.4-.6.5-.2.1-.4.1-.5 0-.2 0-.3-.1-.5-.1 0 0 0 .1.1.1.1.1.1.2 0 .3l.2-.6zm2.1-1.4c.1.2.1.3.3.4.2.2.4.3.7.2.3-.1.5-.2.7-.4 0 0 0-.1.1-.1h-.2s-.2-.1-.2-.2 0-.2.2-.2h.4c.2 0 .3-.1.5-.2s.4-.3.6-.5l.1-.1.1-.1.3-.3v.4c0 .1 0 .2-.1.3-.1.1-.1.2-.2.3.2-.2.4-.3.6-.4l.1-.1.3-.3c.1-.2.1-.4 0-.5h-.2v-.1c0-.1 0-.1-.1-.2 0-.1-.1-.2-.2-.3-.1-.1-.1-.1-.2-.3l-.1-.3.3.1c.2.1.4.2.5.4 0 0 0 .1.1.1 0 0 0 .1.1.1.3-.1.5-.2.7-.4.1-.1.2-.1.2 0l.1.1v.1c0 .1-.1.2-.1.3l-.1.1c-.1.1-.2.3-.3.4.1.1.2.2.3.2.2.1.4.1.6 0 .3-.1.5-.3.6-.5 0-.1.1-.2.1-.3l.1-.1.1.1c.1 0 .1.1.1.1.1.2.1.3 0 .5.1 0 .2-.1.2-.1l.1-.1c.1-.1.2-.2.2-.4 0-.1.1-.2.1-.2.1-.1.2 0 .2 0h.1c.1 0 .1.1.2.1.3.1.5.1.6 0 .2-.1.3-.2.4-.3.1-.1.1-.2.1-.2-.1-.1 0-.2 0-.3.1-.1.1-.2.1-.4V27.6h.1c.1 0 .2.1.2.1.1.1.1.2.1.2.1-.1.1-.2 0-.3h-.1v-.1c0-.1-.1-.1-.1-.1-.1-.1-.2-.2-.4-.3H23c-.1 0-.2-.1-.3-.1-.2 0-.5 0-.7.2-.1.1-.2.1-.3.2-.1.1-.1.1-.2.1s-.1 0-.2-.1c-.1-.2-.3-.3-.4-.5l-.1-.1V27.1c-.1.3-.2.5-.4.7l-.4.1.1-.6v-.1c.1-.2.1-.4.1-.6 0-.2-.1-.4-.2-.5-.1-.1-.1-.2-.3-.2H19.4l-.1-.3c.2-.1.4-.1.6-.1h.1c.2-.2.3-.3.3-.5s0-.3-.1-.5c-.1-.1-.1-.2-.2-.3-.2-.1-.4-.1-.6 0-.2.1-.4.3-.7.5l-.1.1c-.2.2-.4.4-.6.7 0 .1 0 .1-.1.2v.2s-.1.2-.2.2-.2 0-.2-.1h-.1s-.1 0-.1-.1c-.2-.1-.4-.2-.6-.1-.2.1-.4.2-.5.4-.2.2-.3.5-.3.7.3-.1.7-.1 1 0l.2.2.1.2h-.5c-.4.1-.7.2-1.1.4-.1.1-.3.2-.4.3-.1 0-.2.1-.2.3l-.1.2-.2-.2c-.1-.1-.1-.2-.1-.2 0-.2.1-.4.3-.6-.1 0-.1-.1-.2-.1h-.1c-.3.1-.4.3-.5.6V28.3s0 .1-.1.2-.2 0-.2 0c-.1 0-.2-.1-.2-.1-.2 0-.5 0-.7.2-.1 0-.1.1-.2.1s-.1 0-.1.1l-.1.1-.3.3c-.3.3-.4.7-.3 1.1 0 .1.1.2.1.3.2.2.1.3 0 .5-.1.1-.2.2-.1.4v.1l.1.1s.1 0 .1.1c.2.2.4.3.8.3h.4c.2-.1.3-.1.4-.3v-.2h-.1c-.1 0-.3 0-.4-.1-.1-.1-.1-.2-.2-.3v-.1l-.2-.3.4.1c.1 0 .1.1.2.1.1.1.2.1.4.1.3 0 .5-.1.8-.4.1-.1.2-.3.4-.4l.3-.3v.8c0 .2-.1.4-.3.4-.2.1-.3.2-.5.3h-.4zm-.7.1zm5-2.2.1.1.1-.1.1-.1c-.2 0-.2 0-.3.1zm5.1-1.7zm-7.6-.8zm1.7-1.2zm.2 0z"/><path d="M15.5 34.8c-.1 0-.3 0-.4-.1-.4-.1-.7-.4-.8-.9 0-.1 0-.1-.1-.2 0 0 0 .1-.1.1-.2.3-.6.6-1.1.5-.2 0-.3-.1-.3-.2-.3-.3-.4-.5-.4-.8v-.1c0-.1 0-.2-.1-.3-.1 0-.1-.1-.1-.1 0-.1-.1-.2-.2-.3l-.3-.6v-.2l.1-.1s.2-.1.3.1c.1 0 .1.1.2.1.1.1.2.1.3.2.2.1.4.1.6.1.2 0 .3-.1.3-.2 0 0 0-.1.1-.1v-.1c-.2 0-.3-.1-.4-.2-.1-.1-.2-.3-.2-.4v-.1c0-.1 0-.2.1-.3 0 0 .2-.1.3.1.1.2.3.2.5.2.4-.1.7-.3 1-.6l.2-.2c.1-.2.2-.1.2-.1l.2.2v.4c0 .3-.2.5-.5.6-.1 0-.2.1-.3.2l-.1.1c0 .1 0 .1.1.2.1 0 .1.1.1.2 0 0 0 .1.1.1.2.2.4.2.6.2.3-.1.5-.2.6-.4-.1 0-.2-.1-.3-.2 0 0-.1-.1-.1-.2s.2-.2.2-.2c.1 0 .2 0 .3-.1h.2c.3-.1.5-.1.6-.2l.6-.6c.1-.2.3-.1.3-.1s.1.1.1.3c0 .1 0 .2-.1.3.1-.1.3-.2.4-.3.2-.2.3-.3.3-.4V30H18l-.2-.1s-.1-.1-.1-.2c0-.2 0-.4-.2-.6l-.1-.1-.1-.1c-.1-.1-.1-.2 0-.3 0 0 .1-.1.3-.1.3.1.4.2.6.4 0 .1.1.1.1.1s.1 0 .1-.1c.2-.1.4-.2.6-.4.1-.1.2-.1.2-.1s.1.1.1.2 0 .3-.2.4c0 0-.1.1-.1.2l-.3.3c.1.1.3.2.4.2.2 0 .4 0 .6-.2.2-.1.3-.3.4-.5v-.1c0-.2.1-.2.1-.2s.2 0 .3.1c.1.2.2.4.1.5.1-.1.3-.2.4-.2.1-.1.1-.1.1-.2l-.1-.2.1.1v-.1c0-.2.1-.2.1-.2h.2c.1.1.2.1.4.2.3.1.5.1.7-.1l.1-.1.2-.2v-.1l-.1-.1c0-.1 0-.2.1-.2.1-.2.1-.3 0-.6v-.2s.1-.2.3 0l.3.3V27.1c0-.2.1-.2.1-.2s.1-.1.2.1c.1.1.2.3.2.6 0 .2-.1.4-.2.5.1.1.3.2.3.3.1.2.2.4.2.6v.1h-.1c-.1.5-.3.8-.7 1.1-.1.1-.3.1-.4.1-.1 0-.2-.1-.2-.1l-.2.2c-.1.1-.2.1-.3.2h-.2c.2.3.1.6-.1.9-.1.1-.3.2-.5.3-.1.1-.2.1-.2.2-.2.1-.4.2-.7.3H20c0 .1 0 .1-.1.2l-.3.3c-.3.2-.6.2-.9.2-.1 0-.1 0-.2-.1-.1.1-.3.1-.4.2-.1-.1-.2-.1-.3 0-.1 0-.2.1-.2.1h-.3c-.1 0-.2-.1-.2-.1V33c-.1.1-.2.2-.3.2.1.1.1.1.1.2.1.3 0 .7-.2.9-.4.4-.8.5-1.2.5zM14.2 33l.2.2c.1.1.1.2.1.2 0 .2.1.3.1.4.1.4.4.6.7.7.4.1.8 0 1.1-.3.2-.2.2-.4.2-.6v-.1c-.3.1-.5.1-.8 0l.1-.3h.2c.1 0 .2-.1.4-.2l.1-.1c.2-.1.3-.2.4-.4.1-.1.1-.2.1-.4V32c0-.2.2-.2.2-.2.1 0 .2 0 .2.2s.1.4 0 .6v.2h.1c.1 0 .2-.1.3-.1.1 0 .2-.1.3-.1.2-.1.3-.2.5-.3.1 0 .1-.1.2-.2 0 0 0-.1.1-.1l.1-.1c0-.1.1-.1.1-.1l.3.1c0 .1-.1.2-.1.2s0 .1-.1.1v.1l-.1.1c.2 0 .4 0 .7-.2.1-.1.2-.1.2-.2l-.3-.3-.4-.6.6.4c.2.2.5.2.9.2.2 0 .4-.1.5-.2.1-.1.2-.1.2-.2.1-.1.3-.2.4-.3.1-.1.2-.3.1-.4-.1 0-.1.1-.2.1l-.1.1h-.1c-.1.1-.2.1-.3.2h-.5l.4-.3.1-.1c0-.1.1-.1.2-.2s.2-.3.2-.5 0-.3-.1-.5l-.2-.3-.1.1c-.1.1-.3.2-.5.3l-.1.1h-.1c-.1 0-.2 0-.2-.1 0 0-.1-.1 0-.3 0 0 .1-.1.1-.2-.1.2-.2.4-.4.5-.3.2-.5.3-.8.2-.2 0-.4-.1-.6-.3-.1-.1-.1-.1-.1-.2s0-.1.1-.2l.3-.3c-.1.1-.2.1-.3.1-.1 0-.2.1-.3.1l.1.1c.1.2.2.4.1.6-.1.2-.2.4-.4.6-.3.2-.5.5-.9.7 0 0-.1.1-.2.1 0 0-.1.1-.2 0 0 0-.1 0-.1-.1v-.1c-.2.1-.4.2-.6.2H16c.2 0 .2.1.3.1 0 .1 0 .2-.1.3-.2.3-.5.5-.9.6-.3.1-.6 0-.9-.2-.1-.1-.1-.1-.1-.2 0 0 0-.1-.1-.1-.1-.1-.1-.2-.2-.3v-.1c-.1-.1 0-.3.1-.3s.1-.1.2-.1c.1-.1.2-.2.4-.2.2-.1.3-.2.3-.3-.3.3-.6.6-1.1.7h-.5c.1.1.1.1.2.1s.2 0 .3.1c.1.1.1.2 0 .4 0 0 0 .1-.1.1v.1c-.1.2-.3.3-.5.4-.3.1-.5 0-.7-.1-.1 0-.3-.1-.4-.2 0 0 0 .1.1.1.1.1.1.2.2.3 0 0 0 .1.1.1.2.1.3.3.3.6 0 .2.1.4.3.6l.1.1h.1c.3 0 .6-.1.9-.4.1-.1.1-.2.2-.3v-.1l-.3.2zm-2 .3zm.3 0zm.9-1.6zm8.5-1.4c.1 0 .1 0 0 0 .1 0 0-.1 0-.1v.1zm.3-.1zm-.7-1 .3.3.2.2c.1.1.2.3.2.4l.1-.1c.2-.2.4-.3.5-.5l.3-.6v.7c0 .1 0 .3-.1.4.1 0 .1 0 .1-.1.3-.2.5-.6.6-1.1h.1c0-.1-.1-.2-.1-.3l-.2-.2H23.2c-.1 0-.2-.1-.2-.2v.1c.1.2 0 .3 0 .4l-.3.3-.1.1c-.3.3-.7.3-1 .2-.1 0-.2-.1-.3-.1.2 0 .2 0 .2.1zm1.6.7zm-4.3-.3zm0 0zm5.3-.8c0-.1 0-.1 0 0zm-.7-.8zm-.1-.1c.1 0 0 0 0 0zm-.1-.7z"/><path d="m11.2 31.6.4-.6s0-.1.1-.1c0 0 0-.1-.1-.1-.2-.2-.3-.5-.4-.7-.2-.4-.2-.8 0-1.2l.3-.3.1-.1c.2-.2.3-.3.5-.3h.1s.1 0 .1-.1c.2-.1.3-.2.5-.2h.2c-.1-.4-.1-.7.1-1.2.1-.2.3-.5.5-.7l.3-.3h.1c.3-.3.7-.4 1-.4.4 0 .7.1.9.3l.1.1.1.1c.1-.2.2-.3.4-.5s.3-.3.5-.4c.2-.1.4-.1.6 0 .1 0 .3.1.3.2 0 0 0-.1.1-.1.1-.2.2-.3.3-.5l.6-.6c.3-.2.6-.4.9-.4.2-.1.4-.1.5-.1h.5c.5.1.8.3.9.8.1.3 0 .6-.2.8l-.1.1c.1 0 .2.1.2.1.1.1.3.2.4.3.1.2.2.5.1.7h.2c.4 0 .8.1 1.1.3l.4.2-.5.1h-.4c-.5 0-.8.1-1 .3l-.1.1s0 .1-.1.1c-.1.1-.2.1-.2.1-.1 0-.1 0-.2-.1-.1-.2-.2-.3-.4-.5v.2c-.1.3-.3.6-.6.9-.1.1-.2 0-.2 0-.1-.1-.1-.2 0-.3 0 0 .1-.1.1-.2.2-.3.2-.6 0-.8 0 0 0-.1-.1-.1 0-.1-.1-.1-.1-.2-.1-.1-.2-.2-.3-.1h-.2c-.1.1-.2 0-.3-.1 0 0-.1-.1.1-.3.1-.1.2-.1.3-.1.2 0 .3-.1.5-.1 0 0 .1 0 .1-.1.2-.3.2-.5.1-.7-.1-.2-.3-.5-.5-.5-.1 0-.2 0-.4.1s-.3.2-.5.4l-.1.1c-.2.1-.3.3-.4.4-.2.3-.3.6-.4.8 0 .1 0 .2-.1.2s-.2 0-.2-.1l-.1-.1c-.1 0-.1-.1-.2-.1-.1-.1-.2-.1-.3-.1-.4.1-.6.3-.9.7-.2 0-.2.1-.2.2.2-.1.5-.1.8 0 .2 0 .3.1.4.2.1.1.1.2.1.3 0 0-.1.2-.2.1h-.6c-.3.1-.7.2-1 .5-.3.1-.5.2-.5.4s-.1.2-.2.2c0 0-.2 0-.2-.2-.1-.3 0-.6.2-.8-.1 0-.1-.1-.2-.1 0 0-.1 0-.3.1-.2.2-.3.4-.3.7v.2c0 .1 0 .2-.1.3-.1.1-.2 0-.3 0-.2-.2-.4-.2-.7-.1-.3.1-.5.2-.7.4-.2.2-.3.3-.4.5-.1.2-.1.4-.1.7 0 .2.1.3.2.4.1.1.1.1 0 .2 0 0 0 .1-.1.2 0 0-.1 0-.1.1l-.5.5zm1.7-3.5h-.2c-.1 0-.3.1-.4.2 0 0-.1 0-.1.1h-.1c-.2.1-.3.2-.4.3l-.1.1c-.1.1-.2.2-.2.3-.1.3-.1.6 0 .9v.1c0-.2 0-.4.1-.5.1-.3.3-.5.5-.6.2-.2.5-.4.8-.5.2-.1.5-.2.8 0v-.1c0-.3.1-.6.4-.9.2-.2.4-.2.6-.2.1 0 .2.1.3.1l.2.2v.1h.1c.4-.3.8-.4 1.1-.5-.1 0-.2 0-.3.1 0 0-.2.1-.3 0-.1-.1-.1-.2-.1-.2 0-.2.1-.4.2-.6.3-.5.6-.8 1.1-.8.2 0 .4 0 .6.1.1 0 .1.1.2.1.1-.3.2-.6.4-.9.1-.2.3-.3.5-.5l.1-.1c.2-.2.4-.3.6-.4.2-.1.4-.2.6-.1.3.1.6.4.7.7.1.4 0 .7-.2 1-.1.1-.1.2-.3.2l.1.1c.1.1.1.2.1.2s0 .1.1.1c.1.2.1.3.1.5V26.4s0-.2.1-.2c.1-.1.2 0 .3.1l.1.1c.1.1.3.3.4.5l.1-.1c.2-.1.4-.2.5-.3h-.3c-.2.1-.2 0-.3-.1 0 0-.1-.1 0-.3.1-.1.1-.4 0-.5l-.3-.3h-.2c-.2 0-.2-.1-.2-.1 0-.1 0-.2.1-.2l.1-.1c.1-.1.1-.2.2-.2.1-.1.2-.3.1-.5-.1-.3-.3-.5-.7-.6h-1c-.3.1-.5.2-.8.4-.2.2-.4.4-.5.6-.1.1-.2.3-.3.4 0 .1-.1.1-.1.2-.1.1-.1.2-.2.1-.1 0-.2-.1-.2-.2s-.1-.2-.2-.2h-.3c-.2.1-.3.2-.4.4-.1.2-.3.4-.4.6-.1.1-.2.1-.2.1s-.1 0-.2-.1c0-.1-.1-.1-.2-.2l-.1-.1c-.1-.2-.3-.2-.6-.2s-.5.1-.8.4h-.1c-.1.1-.2.1-.3.2-.2.2-.3.4-.4.7-.2.4-.2.7 0 1v.2c-.1.1-.2.2-.3.2zm7.4-.6zM15.5 35H15.2c-.2 0-.4-.1-.6-.3-.2-.1-.3-.4-.4-.6-.3.2-.7.3-1.1.3l-.2-.1c-.1-.1 0-.2 0-.2s.1-.1.2-.1c.3.1.5-.1.8-.3.2-.1.2-.3.3-.5 0-.2.1-.2.2-.2s.2.1.2.2c.1.1.1.3.1.4.1.4.3.7.6.9.3.2.9.1 1.2-.2.1-.1.2-.2.2-.4v-.2c-.3.1-.5.1-.8 0-.1 0-.3-.2-.2-.4 0-.1.1-.1.1-.1.1 0 .2 0 .2.1h.2l.6-.3c.2-.2.3-.4.4-.7v-.2c0-.1.1-.2.2-.2s.2 0 .2.1c.1.3.1.5.1.8 0 .1 0 .1-.1.2.3 0 .6-.2.8-.3.2-.1.4-.2.5-.4 0-.1.1-.1.1-.1h.1c.1 0 .1.1.1.3l-.2-.1c.3 0 .5-.1.7-.3-.1-.1-.2-.3-.3-.5l-.1-.2h.2c.1 0 .2 0 .2.1.2.2.4.2.6.2.2 0 .4 0 .5-.1.1-.1.3-.2.4-.3.1 0 .1-.1.2-.1.1-.1.2-.1.3-.2.1-.1.1-.1.1-.2l-.1.2c-.1.1-.2.1-.4.2-.2 0-.2-.1-.2-.1s0-.1.1-.2l.2-.2c.1-.2.2-.4.2-.6 0-.2 0-.3-.1-.4v-.1c-.1-.1 0-.2 0-.3 0 0 .1-.1.3 0l.3.3c.1.1.2.2.2.4.2-.1.3-.2.5-.4.1-.1.1-.2.1-.3v-.4l.3.4c.1.2.1.4.1.5.3-.2.4-.5.5-.9V28.2l.3.4c.1.1.1.2.1.2v.1c0 .5-.1 1-.4 1.3-.3.3-.5.4-.9.3 0 .3-.1.6-.3.9-.2.3-.5.5-.8.8-.3.2-.7.4-1.1.5h-.3c-.1 0-.2-.1-.3-.1-.2.1-.3.3-.5.4-.2.1-.5.2-.8.2-.1 0-.2-.1-.3-.1-.1.2-.1.3-.2.4-.2.5-.6.8-1 1.1-.5.2-1.1.4-1.8.4zm1.1-1.8c.1 0 .1.1.1.2s.1.3.1.5-.1.3-.3.5c-.1.1-.2.2-.4.3.4-.1.7-.2 1-.4.4-.3.6-.6.9-1 .1-.1.1-.2.1-.3-.2.1-.5.2-.7.2h-.2c-.1 0-.2 0-.2-.1 0 0-.1-.1 0-.2s.1-.2.1-.3v-.1c-.1.2-.2.4-.4.6l-.1.1zm-2.4.4c-.1.1-.1.2-.2.3.1-.1.1-.1.2-.1.1-.2 0-.2 0-.2zm6-1.4h.2c.1 0 .1.1.2.1h.2c.3-.1.7-.2 1-.5.3-.2.5-.4.7-.7.2-.3.2-.5.2-.8v-.2c-.1 0-.1.1-.2.1s-.2.1-.3 0c-.1 0-.1-.1-.1-.2s0-.1-.1-.2v.1c0 .1 0 .3-.1.4h.1s.1 0 .2.1c.2.2.1.5 0 .7-.1.1-.2.2-.4.3-.1 0-.1.1-.2.1-.2.1-.3.2-.5.3-.2.1-.5.1-.7.1H20v.1c.1.2.1.2.2.2zm-.5 0zm3.5-2c.2 0 .3-.1.4-.2l.1-.1-.2.2c-.1 0-.2.1-.3.1zm-.4-.1h.1-.1c.1-.1 0-.1 0 0 0-.1 0 0 0 0zm-1.4-.6z"/><path d="m17.6 34.2.4-1s0-.1.1-.2c0-.1.1-.2.2-.4 0-.1.1-.1.1-.1h.2c.2.1.3.1.5.1.2-.1.5-.2.7-.3.1 0 .1-.1.2-.1.1-.1.2-.1.3 0 .1 0 .1.1.2.1l.6.3-.5.1c-.2 0-.3 0-.4-.1-.2.2-.4.3-.7.4-.2.1-.6.2-.9 0 0 .1-.1.3-.2.4l-.8.8zM15.2 35c-.3 0-.6-.2-.7-.4-.1-.1-.2-.3-.3-.5-.3.2-.6.3-1 .3h-.1l-.5-.2.5-.1H13.4c.3 0 .5-.1.7-.3 0 0 .1-.1.2-.1s.1.2.2.2c.1.4.3.6.7.7h.1l.6.3-.7.1z"/><path d="M17.4 33.1h-.5l.4-.3c.1 0 .2-.1.2-.1h.1c.3-.1.6-.2.9-.5l.1-.1s.1-.1.2-.1l.3-.2-.1.5c0 .1-.1.2-.2.3-.1 0-.1.1-.2.1l-.1.1c-.1 0-.1.1-.2.1h-.2c-.2.1-.4.2-.7.2z"/><path d="M18.9 32.6v-.2l-.3.1.2-.4s0-.1.1-.1c.1-.1.1-.2.1-.2 0-.1 0-.1.1-.2 0 0 .1-.1.2 0 .1 0 .2.1.2.2 0 .2 0 .3-.1.4 0 0 0 .1-.1.1l-.4.3zM21.2 31.2h-.4l.2-.2c0-.1 0-.1.1-.2 0 0 .1 0 .1-.1s.1-.1.2-.1l.3-.1v.2l.5-.2-.5.5c-.1.1-.3.1-.5.2z"/></g></svg>