<svg version="1.2" baseProfile="tiny" xmlns="http://www.w3.org/2000/svg" viewBox="0 0 45 45" overflow="visible" xml:space="preserve"><path fill="#010101" d="M19.2 24.1c-.3 0-.4 0-.6-.1-.1-.1-.2-.2-.2-.3v-.1c-.1-.2 0-.4 0-.6.1-.2.2-.3.3-.4.3-.3.7-.5 1-.6h.1c.2-.1.4-.1.6-.2.4-.2.6-.5.7-.7.1-.2.1-.4 0-.6 0-.3-.1-.7.2-1 .1-.2.3-.4.5-.6.1-.2.3-.2.4-.3h.1c.2-.1.3 0 .4 0 .1.1 0 .2 0 .2-.2.3-.3.6-.3.8v-.1c.1-.4.4-.7.7-1.1l.5-.5c-.3.1-.5.2-.7.3-.1 0-.2.1-.3.1-.1-.1-.1-.1 0-.2.2-.4.4-.8.6-1.1.2-.3.5-.6.9-.7.2-.1.3-.1.5-.1h.2c.1.1 0 .1 0 .2v.1c.4-.5.9-.8 1.5-.9h-.2c-.2 0-.3 0-.5.1h-.2s-.1 0-.1-.1 0-.1.1-.2.2-.2.3-.4l.1-.1c.1-.1.2-.2.3-.4l.1-.1.1-.1.3-.3c.1-.1.2-.1.3-.2.1-.1.2-.1.3-.1 0 0 .1 0 .1.1v.2c.1-.2.3-.3.6-.5l.6-.3c.2-.1.4-.1.6-.1h.5l-.1-.1c-.3-.1-.7-.1-1.1 0h-.2c-.1-.1 0-.1 0-.1 0-.1.1-.1.1-.2.1-.1.1-.2.2-.4s.1-.4.1-.6v-.5c0-.3.4-.8 1-1h.1c.2-.1.4-.1.6-.2.3 0 .5 0 .6.2.1.1.2.2.2.4v.1c.1 0 .1-.1.2-.1.7-.8 1.2-1.1 1.7-1.3.1-.1.3-.1.4-.2.4-.1.7 0 .8.1.1 0 .1.1.2.2 0 0 0 .1-.1.1h-.1c-.1 0-.1 0-.1-.1 0 .1.1.1.1.2v.5c-.1.3-.2.6-.4.8 0 .1-.1.1-.2.2h-.1c-.1 0-.1-.1-.1-.1 0-.1-.1-.1-.2-.2v.2c0 .1.1.3 0 .5 0 .1-.1.3-.1.4 0 .1 0 .1-.1.2 0 .1-.1.1-.2.2h-.1s-.1 0-.1-.1V12l-.3-.3c.2.3 0 .9-.5 1.3l-.1.1c-.1.2-.3.2-.4.2-.1 0-.2 0-.3-.1-.1 0-.1-.1-.2-.1 0 0 0 .1.1.1 0 .1.1.1.1.2s-.1.3-.2.4l-.3.3c-.1.1-.2.2-.3.2-.1 0-.2-.1-.2-.1-.1-.1-.2-.2-.4-.1h-.1l.1.1.1.1c.1.2.1.4.1.6 0 .2-.1.4-.3.5-.1.2-.3.4-.6.5-.1.1-.2.1-.3.2l-.1.1h.3c.1 0 .3-.1.4-.2.1-.1.2-.1.4-.1.1.1.1.2.1.3-.1.2-.3.4-.4.5l-.3.3c-.1.1-.2.1-.2.2-.2.2-.3.3-.4.5-.2.4-.6.6-1.1.8h-.2c-.1 0-.1-.1-.1-.1 0-.2 0-.3.1-.5s.2-.4.2-.6v-.1c-.3.5-.3.7-.4.8-.2.3-.4.6-.7.9-.2.2-.5.2-.7.2-.1 0-.3 0-.4-.1-.1 0-.1-.1 0-.2 0-.2.1-.4.2-.6-.1.3-.4.5-.7.8 0 0-.1 0-.1.1l-.1.1c-.1.1-.3.2-.4.2-.1 0-.1.1-.1.1v.1c-.1.1-.1.2-.1.2 0 .1-.1.1-.1.2-.2.3-.4.5-.7.6-.1.1-.2.1-.3.2-.1.1-.2.1-.3.2-.1.1-.2.1-.2.2v.1H22c-.4 0-.6.3-.6.6v.1c.2.3.2.4-.1.8-.2.3-.5.6-.9.8-.3.2-.6.3-.9.4-.2.1-.2.1-.3.1.1 0 0 0 0 0zm3.5-5.8s-.1 0 0 0c-.1 0-.1.1-.2.1-.1.1-.3.1-.4.3-.2.2-.4.4-.5.6-.2.4-.2.7-.2 1v.6c-.1.3-.4.5-.8.8l-.6.3h-.1c-.4.1-.7.2-1 .5-.1.1-.2.3-.3.4-.1.2-.1.4 0 .5v.2c0 .1 0 .2.1.2.1.1.2.1.4 0h.1c.3-.1.5-.2.8-.3.1-.1.2-.1.2-.2h-.1c.1-.1.3-.3.4-.5 0-.1.1-.2.1-.3 0-.1.1-.2.1-.3 0-.1.1-.2.2-.2-.1-.4.3-.6.7-.7 0-.1.1-.2.2-.3.1-.1.2-.2.4-.2.1-.1.2-.1.3-.2.2-.1.5-.3.6-.6 0-.1.1-.1.1-.2s.1-.2.1-.3v-.1c0-.1.1-.2.2-.2s.2-.1.3-.2l.1-.1s.1 0 .1-.1c.3-.3.6-.6.7-.9.1-.2.1-.3.1-.5 0-.1 0-.1.1-.1h.1c.1 0 .1.1.1.1v.1c0 .1 0 .3-.1.4 0 .1 0 .1-.1.2-.1.2-.2.4-.2.6v.2c.1.1.2.1.3.1.2 0 .4-.1.5-.2.3-.2.5-.5.7-.9.1-.2.2-.4.2-.6 0 0 0-.1.1-.1h.1s.1 0 .1.1v.3c-.1.2-.1.4-.2.6-.1.2-.1.4-.1.5.4-.2.8-.4 1-.7.1-.2.2-.4.4-.5.1-.1.2-.1.2-.2l.3-.3c.2-.2.3-.3.4-.5v-.2s-.1 0-.1.1c-.2.1-.3.2-.5.2-.1 0-.2.1-.4 0-.1 0-.1-.1-.1-.1 0-.1.1-.1.1-.1h.1c.1 0 .1-.1.2-.1.1-.1.2-.1.3-.2l.5-.5c.1-.1.2-.3.2-.5s0-.4-.1-.6l-.1-.1-.1-.1v-.1s.1-.1.2-.1c.4-.1.5.1.6.2v.1s.1 0 .1-.1l.3-.3c.1-.1.2-.2.2-.4 0-.1 0-.1-.1-.2 0 0 0-.1-.1-.1v-.1c.1-.1.2-.1.2-.1.1 0 .2.1.3.1.1 0 .1.1.2 0 .1 0 .2-.1.3-.2l.1-.1c.4-.3.6-.9.4-1.2V11.4h.1c.3.1.4.2.5.4v.2s.1 0 .1-.1 0-.1.1-.2c0-.1.1-.3.1-.4V10.6s.1-.1.2 0 .2.2.2.3c0 0 .1 0 .1-.1.2-.3.4-.5.4-.8v-.1c0-.1.1-.3 0-.4-.1-.2-.2-.3-.3-.4 0 0-.1 0-.1-.1h-.1c-.1 0-.3.1-.4.1-.5.2-.9.5-1.4.8-.1 0-.1.1-.2.1s-.1.1-.2.1-.1-.1-.1-.1v-.1c0-.1-.1-.3-.2-.3-.1-.1-.2-.2-.5-.1-.2 0-.3.1-.5.1h-.1c-.5.2-.9.7-.9.9v.5c0 .2 0 .4-.1.6-.1.1-.1.3-.2.4 0 .1-.1.1-.1.2.5-.2.8-.1 1.2 0 .1 0 .1.1.2.1v.1c0 .1-.1.1-.2.1h-.4c-.2 0-.4.1-.6.1-.2.1-.4.1-.6.3-.3.2-.5.3-.6.6 0 .1-.1.1-.1.2v.4l-.1-.2c-.1-.1-.1-.2 0-.3V13.3h-.1c-.1.1-.2.1-.3.2l-.3.3c0 .1-.1.1-.1.2l-.1.1c-.1.1-.2.2-.3.4l-.1.1c-.1.1-.2.3-.3.4l-.1.1c.2-.1.4-.1.5-.1h.8l-.2.1h-.1c-.1 0-.1 0-.2.1-.6.2-1 .4-1.4.9 0 0 0 .1-.1.1-.1.1-.1.2-.2.2l-.1.1-.1-.1v-.2c0-.1.1-.1.1-.2v-.2h-.1c-.1 0-.3.1-.4.1-.3.1-.6.4-.9.7-.2.3-.4.7-.6 1.1v.1h.1c.2-.2.5-.3.8-.4h.2s.1 0 .1.1 0 .1-.1.1c-.2.1-.4.3-.5.5-.4.4-.6.8-.7 1.1 0 .1 0 .1-.1.2 0 .1 0 .2-.1.2l-.1.1-.1-.1c-.1-.1-.1-.1-.1-.2 0-.3.1-.6.3-1 1.1 0 1.2 0 1.1-.1zm-1.6 4s-.1 0 0 0c-.1.1-.1.2-.1.3 0 .1-.1.2-.1.3.1-.1.2-.2.2-.3v-.3zm4.6-7.1zm0 0zm5-2zm2.7-2.2zm.4-1.8h.1-.1z"/><path fill="#010101" d="M24.4 25.2h-.2c-.2.1-.3.1-.5 0-.1 0-.2-.1-.2-.3 0-.1 0-.2.1-.3h-.1v-.1c0-.1 0-.2.1-.2v-.1l.1-.1c.2-.3.3-.6.6-.8.1-.1.3-.3.5-.4l.1-.1v-.1c-.1-.1-.2-.3-.2-.5s.1-.3.3-.5c.2-.2.4-.3.6-.4.1-.1.2-.1.3-.2l.1-.1c.2-.1.3-.2.4-.3-.3-.1-.5-.3-.5-.5v-.6h-.1c-.3.1-.6.2-.9.2-.3 0-.4-.1-.5-.2l-.4.4-.3.3c-.3.2-.6.5-1 .7-.1.1-.3.2-.5.2-.1 0-.2 0-.2-.1s0-.1.1-.2c.3-.2.5-.4.8-.5.5-.3.8-.6 1-1 0-.1.1-.1.1-.2v-.1c0-.1 0-.1.1-.2 0 0 .1-.1.2-.1.3 0 .5-.2.7-.4l.1-.1c.3-.3.5-.6.6-.9V17s0-.1.1-.1c.1-.1.2 0 .2 0 .1.1.1.2.1.3 0 .2-.1.5-.2.7-.1.2-.1.4-.2.6 0 .1 0 .1.1.2h.2c.3 0 .6-.2.8-.5.3-.4.5-.8.6-1.2 0 0 0-.1.1-.1h.2c.1.1.2.2.1.4s-.2.5-.3.7c-.1.1-.1.2-.1.4.4-.2.7-.4.9-.7.1-.3.4-.5.7-.8.2-.2.5-.4.6-.7V16l-.1.1c-.2.1-.5.3-.7.3-.1 0-.3.1-.4-.1 0 0-.1-.1.1-.2.1 0 .1-.1.2-.1s.2-.1.2-.1c.5-.3.8-.6.9-1 .1-.2 0-.5-.1-.7l-.1-.1c-.1 0-.1-.1-.1-.1s0-.1.1-.1c.2-.1.5-.1.6-.1.1 0 .2.1.3.2l.1-.1.1-.1.3-.3c.1-.1.2-.3.1-.4-.1-.1-.1-.2-.1-.3 0-.1 0-.1.1-.1h.2c.1 0 .3 0 .4.1h.1s.1 0 .3-.2l.1-.1c.1-.1.2-.2.2-.3.2-.3.3-.6.1-.9-.1 0-.1-.1-.1-.1.1-.1.2-.1.2 0 .2 0 .4.1.5.2.1.1.2.2.2.3 0-.1 0-.1.1-.2 0-.1.1-.2.1-.4s0-.5-.1-.6v-.1c.1-.1.2-.1.2 0 .2 0 .4.1.4.3.3-.4.4-.7.4-1 0-.3-.1-.4-.3-.5-.1 0-.1 0-.1-.1h-.2V9c0-.1.1-.1.1-.1h.4c.2.1.3.2.5.3.1.2.1.4 0 .6-.1.3-.2.6-.4.8 0 .1-.1.1-.2.2l-.1.1c-.1.1-.1.2 0 .2s.1.1.2.1.2.1.2.1.1.1 0 .1-.1 0-.2.2l-.1.2c-.1.2-.2.4-.2.6-.1.3-.3.6-.6.8-.2.2-.7.3-.9.3-.1 0-.1 0-.1-.1v-.2c0-.1.1-.2.1-.3-.2.3-.5.6-.7.9h.2c.1 0 .1.1.2.1.1.2.2.4.1.7-.1.3-.2.5-.4.7-.1.1-.2.2-.4.3-.1.1-.2.1-.3 0-.1 0-.1-.1-.1-.2 0-.2-.1-.3-.1-.5v-.1c0 .1-.1.2-.1.3-.1.2-.2.4-.3.5h.1c.1 0 .1.1.1.1.1.3 0 .6 0 .8-.1.3-.3.7-.6 1-.2.2-.4.3-.7.4h-.2c-.1 0-.1-.1 0-.2 0-.1.1-.2.1-.3-.2.3-.5.6-.8.8l-.3.3c-.1.1-.3.2-.4.4-.2.2-.3.4-.2.6 0 .1.1.1.1.2.1.1.1.2.2.3.1.2.1.5-.1.7-.2.2-.1.3 0 .3h.1c.2 0 .4.2.2.5-.1.4-.4.6-.8.7h-.9v.5c-.1.2-.2.3-.4.5h.1c.1 0 .2.1.3.2.1.1 0 .3-.1.5-1.1.8-1.5 1.1-2 1.3zm-.2-.1h.2c.5-.2.9-.5 1.3-.9.1-.2.2-.3.1-.4 0 0-.1-.1-.2-.1s-.1 0-.2.1-.2.1-.3.2c-.1.1-.2.1-.3.1-.1 0-.2-.1-.2-.1 0-.1.1-.1.1-.1.1-.1.2-.1.2-.1.1-.1.2-.1.3-.2.2-.1.3-.3.4-.5v-.4c0-.1 0-.1.1-.1h1c.4-.1.5-.2.7-.6.1-.3 0-.3-.1-.4-.1 0-.1 0-.1-.1-.2-.1-.2-.3-.1-.5.2-.2.2-.4.1-.6 0-.1-.1-.2-.2-.3 0-.1-.1-.1-.1-.2-.1-.2 0-.5.2-.7l.4-.4.3-.3c.3-.3.6-.5.8-.8 0 0 .1-.1.2-.1h.1v.1c0 .1 0 .2-.1.3v.1h.1l.6-.3c.3-.3.5-.6.6-.9.1-.2.1-.5 0-.8H30s0 .1-.1.1h-.1v-.1l.3-.6c.1-.1.1-.3.2-.4h.1c.1.1.1.2.1.3 0 .2 0 .3.1.5v.1h.1c.1 0 .2-.1.3-.2.2-.2.3-.4.3-.6.1-.3 0-.5-.1-.7v-.1l-.1.1H30.8c-.1-.1 0-.1 0-.1.3-.3.6-.6.9-1 0 0 .1-.1.2-.1h.1l.1.1c0 .1 0 .2-.1.4v.1c.2 0 .6-.1.8-.2.3-.3.5-.5.6-.8.1-.2.2-.4.2-.6l.1-.2c.1-.2.1-.2.3-.2h-.1c-.1 0-.2 0-.2-.1-.1-.1-.2-.2 0-.4l.1-.1.2-.2c.2-.3.3-.5.4-.8 0-.2.1-.4 0-.6-.1-.1-.2-.2-.4-.3h-.2.2c.4.1.4.3.4.6s-.1.6-.5 1.1c0 0-.1.1-.2.1s-.1 0-.1-.1c0-.2-.2-.2-.3-.2.1.2.1.4.1.7 0 .1-.1.3-.1.4 0 .1-.1.1-.1.2s-.1.1-.1.1H33c-.1 0-.1-.1-.1-.1 0-.1-.1-.2-.2-.3-.1-.1-.2-.1-.4-.2h.1c.2.3.1.6-.1 1-.1.1-.2.2-.2.3l-.1.1c-.1.1-.3.2-.4.2-.1 0-.2 0-.3-.1-.1-.1-.2-.1-.3-.1v.1c0 .1.1.2.1.2.1.1.1.4-.1.5-.1.1-.2.2-.2.3l-.1.1c-.1.1-.1.1-.2.1s-.1-.1-.1-.1c0-.1-.1-.1-.2-.1s-.3 0-.5.1c.1 0 .1.1.1.1.2.2.2.5.1.8-.2.4-.5.8-1 1.1-.1 0-.2.1-.2.1-.1 0-.1.1-.2.1h.2c.2 0 .5-.2.7-.3.1-.1.2-.1.3-.1.1 0 .1.1.1.2v.1c-.1.3-.4.5-.6.7l-.7.7c-.2.3-.5.6-1 .8h-.2c-.1 0-.1-.1-.1-.1 0-.1 0-.3.1-.4.1-.3.2-.5.3-.7 0-.1 0-.2-.1-.3-.1.4-.3.8-.6 1.3-.2.3-.6.5-.9.5-.1 0-.3 0-.3-.1-.1-.1-.1-.2-.1-.2 0-.2.1-.4.2-.6.1-.2.2-.4.2-.7v-.2.4c-.1.3-.3.6-.6.9l-.1.1c-.2.2-.4.4-.8.4h-.1s-.1.1 0 .1v.2l-.1.1c-.2.4-.5.7-1 1-.2.1-.5.3-.7.5 0 0-.1 0-.1.1h.1c.1 0 .2-.1.3-.2h.1c.4-.3.7-.5 1-.7l.3-.3.4-.4c.1-.1.1-.1.2-.1s.1 0 .1.1c.1.1.2.2.4.2.3 0 .6-.1.8-.2.1 0 .2-.1.3 0 .1 0 .1.1 0 .2v.5c.1.2.2.4.5.5h.1c-.1.2-.3.3-.5.4 0 0-.1 0-.1.1-.1.1-.2.1-.3.2-.2.1-.4.2-.6.4-.2.2-.3.3-.3.5s.1.3.2.4v.1c.1.1 0 .2-.1.2-.2.1-.3.3-.5.4-.2.3-.4.5-.6.8l-.1.1v.1h.1V24.5c0 .1 0 .2-.1.2.1.1.1.2.1.2-.4.2-.3.2-.1.2zm-.6-.6zm1.2-.5c.1 0 .1 0 .2-.1s.2-.1.2-.2c-.1 0-.1.1-.2.1s-.1.1-.2.2c0-.1 0-.1 0 0zm2.3-6.7zm7-5.6zm-2.2 0zm0 0z"/><path fill="#010101" d="M19.2 24.1c-.3.1-.5 0-.7-.1-.3-.3-.4-.6-.3-1.1.1-.1.1-.3.2-.4l.2-.2.4-.4c.1 0 .1-.1.1-.1l.6-.3c.3-.1.5-.1.8-.1.1 0 .2 0 .2-.2.1-.2.1-.4 0-.6v-1c0-.4.1-.7.3-1 .2-.3.4-.5.8-.7.1-.1.2-.1.3-.2.1 0 .1-.1.1-.1-.1-.2-.1-.4 0-.7.1-.3.4-.7.7-1 .4-.4.9-.5 1.5-.5h.1v-.1c0-.2.1-.5.3-.7.3-.3.6-.5.9-.8.2-.1.3-.2.5-.3.3-.2.5-.4.8-.6.2-.2.3-.4.5-.6.2-.3.4-.6.5-.9.1-.4.3-.7.5-.9.2-.3.6-.5 1-.8.2-.1.5-.2.7-.2h.1c.3 0 .6.1.7.2 0 0 .1.1 0 .1v.1c-.1-.2-.4-.1-.8 0-.1 0-.3.1-.5.2-.4.2-.7.6-.7.9v.2c0 .2.1.3 0 .5 0 .2-.1.4-.3.6v.1s0 .1-.1.1h.2c.4-.1.6 0 .9.1.1 0 .2.1.2.2v.1s-.1.1-.2.1c-.3 0-.7.1-1.1.2-.4.1-.8.3-1.2.6-.2.2-.2.3-.2.5v.1h-.1s-.1 0-.1-.1c-.1-.1-.1-.3-.1-.4V13.6c-.2.2-.4.3-.6.5-.1.1-.1.2-.2.3-.1.1-.2.2-.3.4-.1.1-.2.2-.2.3l-.1.1c.1 0 .2-.1.4-.1h.9v.1c0 .1-.1.1-.1.1-.3 0-.5.1-.7.2-.4.2-.8.4-1 .7 0 0 0 .1-.1.1-.1.1-.2.2-.2.3 0 .1-.1.1-.1.1h-.1v-.4c0-.1.1-.2.1-.3v-.1c-.2 0-.4.1-.6.2-.5.3-.7.7-.9 1.1l-.1.1c-.1.1-.1.2-.2.3.3-.2.5-.3.9-.3h.2s.1 0 .1.1 0 .1-.1.2l-.3.3c-.2.2-.4.5-.7.8-.2.3-.4.7-.4 1 0 0 0 .1-.1.1h-.1c-.1 0-.1-.1-.1-.1-.1-.2-.1-.4-.1-.6 0-.2.2-.5.3-.7h-.1c-.4.2-.6.4-.8.7-.3.4-.4.7-.3 1.2v.6c-.1.2-.3.5-.6.7-.3.2-.6.4-1 .5-.2.1-.4.1-.6.2-.3.2-.6.5-.6.9v.7s0 .1.2.1H19.2v.1zm.9-2.6c-.1 0-.1 0-.2.1l-.6.3c-.1 0-.1.1-.2.1-.2.1-.3.2-.4.3-.1.1-.1.2-.2.2-.1.1-.2.2-.2.3-.1.4-.1.7.1.9v-.6c0-.4.4-.8.7-.9l.6-.3c.4-.1.7-.3 1-.5.3-.2.4-.4.5-.6.1-.2.1-.4 0-.6-.1-.5 0-.9.3-1.3.2-.3.5-.6.9-.7.1 0 .2-.1.3 0 .1.1 0 .1 0 .2-.1.2-.3.4-.3.6v.5c.1-.4.2-.7.4-1 .2-.3.4-.6.7-.8l.3-.3.1-.1c-.4.1-.6.2-.9.4l-.1.1h-.1c-.1 0 0-.1 0-.1 0-.1.1-.2.2-.4l.1-.1c.2-.4.5-.8 1-1.1.2-.1.5-.2.7-.2h.1c.1 0 0 .1 0 .1v.1c0 .1-.1.2-.1.3v.1c.1-.1.1-.2.2-.3 0 0 0-.1.1-.1.3-.3.6-.6 1.1-.8.2-.1.5-.2.7-.2h-.6c-.1 0-.3 0-.4.1h-.1s-.1 0-.1-.1V15l.1-.1c.1-.1.2-.2.2-.3.1-.1.2-.3.3-.4l.2-.2.6-.6s.1-.1.2-.1.1.1.1.1c0 .1 0 .2-.1.2v.1c0 .1 0 .2.1.3-.1-.2 0-.4.2-.6.3-.4.8-.6 1.2-.7.4-.1.8-.2 1.1-.2 0-.1-.1-.1-.1-.1-.3-.1-.5-.1-.8-.1h-.1c-.1 0-.1 0-.2.1h-.2c-.1 0 0-.1 0-.1l.1-.1v-.1c.1-.2.2-.4.3-.5v-.7c0-.3.3-.8.7-1 .2-.1.3-.2.5-.2.1 0 .2-.1.4-.1h-.1c-.2 0-.5.1-.7.2-.5.2-.8.4-1 .7-.2.2-.3.5-.4.9-.1.3-.3.7-.5 1-.1.2-.3.4-.5.6-.3.2-.5.4-.8.6-.2.1-.3.2-.5.3-.3.2-.6.5-.9.7-.2.2-.3.4-.3.7 0 .1 0 .2-.2.2-.4 0-.9.1-1.4.5-.3.3-.6.6-.7.9-.1.3-.1.5 0 .6 0 0 0 .1-.1.2s-.2.1-.3.2c-.4.2-.6.4-.8.6-.3.4-.3.7-.3 1.1v1.6c0 .2-.2.3-.4.3h-.5zm4.8-5.5z"/><path fill="#B4B4B4" d="M30.5 15.1c.1.1.1.2.1.2 0 .2 0 .3.1.5 0 .1.1.2.3 0 .3-.2.5-.4.5-.6.1-.3.1-.6-.1-.8-.1-.1-.1-.1-.3 0 0 0-.1 0-.1.1-.1 0-.2.1-.2 0s.1-.1.1-.2c.4-.3.7-.7 1-1.1 0 0 0-.1.1-.1s.1 0 .1.1c.1.1 0 .3 0 .5 0 .1 0 .1.1.1.5 0 .9-.3 1.1-.7.2-.3.3-.6.4-1 0-.1.1-.2.2-.4 0 0 0-.1.1-.1h.1c.2.2.2.4.1.6-.1.3-.3.6-.6.9-.5.4-1 .7-1.6 1 0 0-.1 0-.1.1v.1c.1 0 .2.1.2.2.3.4.3.8.1 1.3-.1.3-.3.5-.6.7-.2.1-.4.2-.6.2-.2 0-.3 0-.4-.1-.1 0-.1 0-.1.1 0 .2 0 .3-.1.5 0 .2 0 .4-.2.6-.3.5-.8.8-1.4.9-.2 0-.4 0-.7.1-.2 0-.4.2-.6.3l-.2.2c-.2.2-.2.4-.1.5 0 .1.1.1.1.2.2.2.4.3.5.5.1.2 0 .4-.2.6-.1.1-.1.1 0 .2.4.1.5.4.2.8s-.8.7-1.2 1c-.2.1-.3.1-.5.2-.1 0-.1 0-.1.1.1.1.1.2.2.3 0 .2-.1.4-.2.6-.3.4-.8.8-1.3 1-.2.1-.3.1-.5.1s-.3.1-.5.1c-.1 0-.1 0-.1.1-.2.1-.3.2-.4.3l-.1.1v-.1l.1-.1c.2-.3.3-.7.4-1 0-.1 0-.2.1-.3.1-.1.1-.2.2-.3 0 .2-.1.5-.1.7 0 .2.1.3.3.2.1 0 .2 0 .4-.1.5-.2.9-.5 1.3-.9.2-.3.2-.5-.1-.5-.1 0-.1.1-.2.1-.2.2-.4.3-.6.3-.1 0-.1 0-.1-.1s.1-.1.1-.1c.1-.1.3-.2.4-.2.3-.2.5-.4.6-.6v-.4c0-.1 0-.1.1-.1h1c.4-.1.5-.2.6-.6.1-.2 0-.3-.2-.4-.1 0-.1-.1-.2-.1-.2-.1-.2-.2 0-.4.2-.3.2-.5.1-.6-.1-.1-.2-.3-.3-.4-.1-.2-.1-.5.2-.7.3-.3.6-.5.9-.8.3-.2.5-.5.7-.8 0 0 0-.1.1-.1s.1 0 .1.1v.4c-.1.2 0 .2.2.1.3-.1.5-.3.7-.6.3-.4.4-.8.4-1.1 0-.1 0-.2-.1-.3 0 0 0-.1-.1 0l-.2.2c-.1 0-.1 0 0-.1 0-.1.1-.1.1-.2.2-.3.3-.7.5-1V15c-.1 0-.1 0 0 .1z"/><path fill="#010101" d="M23.1 26H23v-.2c.2-.3.3-.7.4-1v-.1c0-.1 0-.1.1-.2v-.1c0-.1.1-.2.2-.3l.1-.1v.2c0 .1 0 .3-.1.4 0 .1 0 .2-.1.3 0 .1 0 .1.1.2h.2c.1 0 .2 0 .3-.1.5-.2.9-.5 1.2-.9.1-.1.2-.3.1-.3 0 0-.1-.1-.2-.1l-.1.1c-.1.1-.4.3-.7.3 0 0-.2 0-.2-.1s.1-.1.1-.2c.1-.1.2-.1.4-.2h.1c.3-.2.5-.3.5-.6v-.4s.1-.1.2-.1h1c.3-.1.5-.2.6-.5.1-.2-.1-.3-.1-.3-.1 0-.1 0-.2-.1h-.1c-.1-.1-.4-.2-.1-.5.2-.2.2-.4.1-.6-.1-.1-.1-.2-.2-.3l-.1-.1c-.1-.2-.1-.5.2-.8.1-.1.3-.2.4-.3.2-.1.3-.3.5-.4.3-.2.5-.5.7-.8 0 0 .1-.1.2-.1h.1c.1 0 .1.1.1.1v.5h.1c.3-.1.5-.3.7-.5.3-.3.4-.7.4-1.1v-.2c0 .1-.1.1-.2.1l-.2.1v-.2c0-.1.1-.1.1-.2.2-.4.4-.7.5-1v-.2l.1-.1c.1 0 .1 0 .1.1.1.1.1.2.1.3v.6l.1-.1c.3-.2.4-.4.5-.6.1-.3.1-.6 0-.8v-.1s-.1 0-.1.1c0 0-.1 0-.1.1h-.2s-.1 0-.1-.1c-.1-.1 0-.2.1-.2.4-.3.7-.7.9-1.1 0 0 0-.1.1-.1s.1 0 .2.1.1.3 0 .5v.1c.5 0 .8-.3 1-.6.1-.2.2-.5.3-.7 0-.1.1-.2.1-.3 0-.1.1-.2.2-.4 0 0 0-.1.1-.1h.2c.2.2.2.4.1.6-.1.3-.3.6-.6 1-.5.4-1 .7-1.6 1 .1 0 .2.1.2.2.3.4.3.8.1 1.4-.1.3-.3.5-.6.7-.2.1-.4.2-.7.2-.1 0-.3 0-.5-.1 0 .1 0 .2-.1.3v.2c0 .2-.1.4-.2.6-.4.5-.9.8-1.5.9H27.7c-.2 0-.4.2-.5.3l-.2.2c-.2.2-.1.3-.1.5 0 0 0 .1.1.1v.1s.1.1.2.1c.1.1.3.2.3.3.1.2.1.4-.2.6l-.1.1c.2 0 .3.1.4.2.1.2 0 .4-.2.7-.3.4-.7.7-1.3 1-.1.1-.3.1-.4.2h-.1c.1.1.2.2.2.4s0 .4-.2.6c-.3.4-.8.8-1.3 1-.2.1-.3.1-.4.1-.2 0-.3.1-.5.1h-.1c-.2.1-.3.2-.4.3.3.4.3.4.2.4zm.5-1.2c0 .3-.2.6-.3.9.1-.1.2-.1.3-.2.1 0 .1-.1.2-.1.2-.1.4-.1.5-.1.1 0 .3-.1.4-.1.6-.2 1-.5 1.3-1 .2-.2.2-.4.2-.6 0-.1-.1-.2-.2-.3 0 0-.1-.1 0-.1l.1-.1h.1c.1 0 .3-.1.4-.2.6-.3.9-.6 1.2-1 .2-.2.2-.4.2-.6 0-.1-.1-.1-.3-.2l-.1-.1s0-.1.1-.2c.2-.2.3-.4.2-.5l-.3-.3c-.1 0-.1-.1-.2-.1v-.1l-.1-.1c-.1-.1-.1-.3.1-.6.1-.1.1-.2.2-.2.1-.1.4-.3.6-.3H28.8c.6-.1 1-.3 1.4-.8.1-.2.1-.4.2-.5v-.2c0-.1 0-.2.1-.3 0 0 0-.1.1-.1h.1c.1 0 .2.1.4.1s.4-.1.6-.2c.3-.2.5-.4.6-.7.2-.5.2-1-.1-1.3 0-.1-.1-.1-.2-.1h-.1s-.1 0-.1-.1.1-.1.1-.1c.6-.2 1.1-.6 1.5-1 .3-.3.5-.6.6-.9.1-.2 0-.4-.1-.6v.1c-.1.1-.1.2-.1.3 0 .1-.1.2-.1.3-.1.2-.2.5-.3.7-.2.3-.6.7-1.2.7H32v-.1c.1-.2.1-.4 0-.5-.3.4-.6.8-1 1.1l-.1.1h.2c.1-.1.2-.1.3-.1.1 0 .1.1.2.1.1.2.2.5.1.8-.1.3-.3.5-.6.7h-.4c-.1 0-.1-.1-.1-.2v-.5c0-.1 0-.2-.1-.2v.1c-.1.3-.2.6-.5 1 0 0 .1-.1.2-.1s.1 0 .1.1v.1c0 .1.1.2 0 .3 0 .4-.2.8-.4 1.2-.2.2-.4.5-.7.6-.1 0-.2.1-.3 0-.1 0-.1-.1 0-.2 0-.2.1-.3 0-.4v.1c-.2.3-.4.6-.7.8-.2.1-.3.3-.5.4-.1.1-.3.2-.4.3-.3.2-.3.5-.2.7l.1.1c.1.1.1.2.2.3.1.2.1.4-.1.7-.2.2-.2.3 0 .4h.2c.2 0 .3.1.2.4-.1.3-.3.5-.7.6h-1c.1.1.1.3 0 .4 0 .3-.2.5-.6.7h-.1c-.1.1-.2.1-.3.2-.1 0-.1.1-.1.1.2 0 .4-.1.6-.3.1-.1.1-.1.2-.1s.3.1.3.1c.1.1 0 .3-.1.4-.3.4-.8.7-1.3.9-.1 0-.3.1-.4.1h-.3c-.3 0-.3-.1-.3-.3 0 .1 0 0 0 0zM18.7 26.4c-.2 0-.3-.1-.3-.1v-.1c-.1-.2-.1-.5.1-.8.1-.3.4-.5.8-.6.1 0 .2-.1.4-.1.4-.1.6 0 .7.1l.1.1v.2c-.1.3-.3.6-.6.9-.3.3-.5.4-.8.5-.3-.2-.3-.2-.4-.1.1 0 0 0 0 0zm-.2-.2c.1.1.1.1.2.1 0 0 0-.1.1-.1.2-.1.5-.2.7-.4.3-.3.4-.5.5-.8 0 0 0-.1.1-.1l-.1-.2c-.1-.1-.2-.2-.5-.1-.1 0-.2.1-.4.1-.3.1-.6.3-.7.6-.1.3-.2.6-.1.7l.2.2c-.1 0-.1 0 0 0z"/><path fill="#010101" d="m18.5 26.5-.2-.2c-.3-.2-.3-.6-.2-1v-.1c0-.1 0-.2.1-.3.2-.3.7-.6 1.1-.6.3 0 .6.1.8.3l-.1.1c-.1-.1-.3-.1-.6 0-.1 0-.1 0-.2.1-.1 0-.2.1-.3.1-.3.2-.5.4-.6.7v.6l.2.3zm.6-2c-.3.1-.6.3-.8.5-.1.1-.1.2-.1.2v.1c-.1.2-.1.4 0 .6v-.3c.1-.4.3-.6.6-.8.1-.1.2-.1.3-.1h.2c.1 0 .2-.1.4-.1-.1 0-.2-.1-.4-.1h-.2zM16.5 26.4h-.1c-.1 0-.2 0-.3-.1-.2-.1-.3-.3-.2-.5l.3-.3c.1-.1.3-.2.4-.3.2-.1.3-.1.5 0 .1 0 .2.1.2.2v.2c0 .1-.1.3-.2.5l-.6.3zm.2-1.1c-.2.1-.3.2-.5.3-.1.1-.2.2-.2.3-.1.2 0 .3.1.4.1 0 .1.1.2 0 .2 0 .3-.1.5-.3.1-.1.2-.3.2-.4v-.2c0-.1 0-.1-.1-.2 0 .1-.1.1-.2.1zM23.6 25.7h-.1c.2-.1.3-.1.5-.2H24.3c.1 0 .3-.1.4-.1.6-.2 1.3-.7 1.5-1.3.1-.2 0-.4-.1-.5-.1-.1-.1-.1-.1-.2 0 0 .1-.1.2-.1.4-.2.8-.4 1.2-.8.3-.2.4-.5.5-.7.1-.2-.1-.3-.2-.4h-.1l-.3-.1h.4c.2 0 .3.1.4.2.1.2.1.4-.1.7-.4.6-1 1-1.7 1.2h-.1v.1c.2.3.2.6-.1 1-.3.4-.7.7-1.3 1-.2.1-.4.1-.5.1h-.1c-.2 0-.3 0-.6.1.1 0 .1 0 0 0 .1 0 0 0 0 0zM27.5 20.2l-.1-.1c-.2-.1-.3-.3-.2-.6.1-.2.2-.3.4-.5.3-.3.7-.3 1-.3.4 0 .7-.1 1.1-.3.3-.2.5-.5.6-.8.1-.2.1-.4.1-.5V17c0-.1 0-.1.1-.2s.2 0 .3 0H31.1l.2.1h-.7c0 .1 0 .2-.1.4v.3c-.1.4-.3.7-.8 1-.3.2-.7.3-1 .3h-.4c-.2 0-.3.1-.4.2l-.3.3c-.1.2-.2.3-.1.5l.1.1-.1.2zM23.7 24.3h-.2c.1-.2.3-.5.4-.7.2-.3.5-.5.7-.7.1 0 .1-.1 0-.1l-.1-.1-.1-.1c-.1-.1-.1-.3-.1-.4 0-.2.2-.3.3-.4.2-.2.4-.3.6-.4.1 0 .1-.1.2-.1.2-.2.5-.3.7-.5l.2-.2-.1.3c0 .1-.1.1-.2.2-.2.1-.4.3-.6.4-.1.1-.3.2-.4.2-.6.4-.6.7-.4 1 .2.2.1.2-.2.5-.3.3-.6.6-.8 1 .3 0 .2 0 .1.1.1 0 .1 0 0 0zM32.3 14.7l-.2-.1c-.1-.1-.1-.1-.2-.1l-.1-.1c0-.1.1-.1.1-.1.7-.3 1.3-.7 1.7-1.1.4-.5.5-.9.3-1.2v-.3l.2.2c.2.2.3.5.1.9-.2.4-.5.7-.7.9-.4.3-.9.6-1.4.9.1 0 .2.1.2.2v-.1z"/><path fill="#010101" d="M22.5 26.7h-.1c-.1 0 0-.1 0-.1.1-.1.1-.2.2-.2.5-.4.7-.9.8-1.4v-.1h.1v.1c0 .3-.1.6-.3.9.1-.1.1-.1.2-.1h.4l-.2.1c-.2.1-.5.3-.7.6l-.4.4c.1-.2 0-.2 0-.2zM34.1 11.8l-.1-.1c-.1 0-.1 0-.2-.1-.1 0-.2-.1-.3-.2 0-.1 0-.2.1-.4.4-.4.6-.9.6-1.4v-.2l.1-.1.1.1c.1.1.1.3.1.4 0 .3-.2.6-.3.9-.1.2-.3.4-.4.5-.1.1 0 .2 0 .2.1 0 .1.1.2.1s.2.1.2.1l-.1.2zM19.1 26.4h-.2c-.1 0-.2 0-.3-.1h-.1l.1-.1c.1-.1.1-.1.2 0 .5 0 .9-.4 1-.5 0-.1.1-.1.2-.2h.1v.1c-.1.3-.5.7-1 .8zM20.2 25.2h-.1l-.1-.1v-.2s0-.1.1-.1l.1-.1.1.1c0 .1.1.2-.1.4z"/><path fill="#010101" d="M20.1 25.6h-.2v-.2c0-.1 0-.1.1-.2l.1-.1h.1v.1c.1.1 0 .3-.1.4zM23.5 25l-.1-.2v-.1l.2-.2v.2c0 .1 0 .2-.1.3zM20.2 23.7h-.1c-.1-.1 0-.1.1-.1.3-.3.5-.6.5-.8l.3-.6s0-.1.1-.1h.1v.1c.1.2.1.4-.1.6-.2.3-.5.6-.9.8.1 0 .1 0 0 .1.1-.1 0-.1 0 0zm.9-1.6c-.1.2-.2.4-.2.6l-.3.6c.2-.2.4-.4.5-.6.1-.2.1-.4 0-.6 0 .1 0 0 0 0zM29.8 16.3c0-.2 0-.2.1-.3.1-.2.2-.5.3-.7 0-.1.1-.1.1-.2l.1-.3.1.3c0 .1 0 .2-.1.3v.1c-.1.3-.2.5-.4.7 0 0 0 .1-.1.1h-.1zM24.2 25.2h-.4c-.1 0-.2-.1-.2-.2v-.1l.1-.2v.2c0 .1 0 .2.1.2h.8l-.1.1c-.1-.1-.2 0-.3 0z"/><path fill="#010101" d="M29.8 16.5s-.1 0 0 0h-.1c-.1 0-.1-.1 0-.1v-.1s0-.1.1-.1l.2-.2v.2c0 .1 0 .1-.1.1v.1h.1-.1l-.1.1z"/><path fill="#010101" d="m29.6 16.5.1-.2c0-.1.1-.1.2-.2l.2-.1-.1.2c0 .1-.1.2-.2.2l-.2.1zM30.6 15.2h-.1l-.1.1v-.1c0-.1.1-.1.1-.2h.1c.1 0 .1.1.1.1l-.1.1zM22.5 26.6l-.2-.1.9-1v.4l-.2.2-.4.4c0 .1 0 .1-.1.1.1 0 .1 0 0 0zM19.1 26.4h-.6v-.1c0-.1.1-.1.2-.1.3-.1.5-.2.8-.5.2-.2.3-.4.4-.7v-.1s0-.1.1-.1h.2V25.1l-.2.4-.1.1c-.1.1-.1.2-.2.3-.1.3-.3.4-.6.5zm-.4-.1h.2c.3 0 .6-.2.8-.4.1-.1.1-.2.2-.3l.1-.1.1-.4v-.2.1c-.1.3-.3.5-.5.7-.2.2-.5.5-.9.6zM16.5 26.4c-.1 0-.3 0-.4-.1-.1-.1 0-.4 0-.5 0 0 0-.1.1-.1.2-.2.3-.3.6-.2.1 0 .4.1.3.3-.1.2-.3.4-.5.5l-.1.1zm.2-.9c-.1 0-.1.1-.2.2 0 0 0 .1-.1.1-.1.1-.1.3-.1.4.1.1.1.1.3 0 .2-.1.4-.3.4-.4 0-.1 0-.2-.2-.2 0-.1-.1-.1-.1-.1z"/><path fill="none" d="M.1.1H45V45H.1z"/><path fill="none" d="M4.6 4.6h35.9v13.5H4.6z"/><path fill="#010101" d="M7.4 11.7 5.7 5h1.5c.6 3.1.9 4.4 1 5.2.3-1.3.9-3.6 1.3-5.2h1.3c.3 1.3 1 3.9 1.2 5.1.3-1.5.9-4.1 1.2-5.1h1.4l-1.8 6.7h-1.5c-.4-1.5-.9-3.6-1.2-4.8-.2 1.2-.8 3.4-1.2 4.8H7.4zM16.9 9v2.7h-1.4V5h2.9c1.5 0 2.2.8 2.2 1.8 0 .9-.5 1.4-1 1.6.3.1.8.5.8 1.7v.3c0 .4 0 1 .1 1.3h-1.4c-.1-.3-.1-.8-.1-1.5v-.1c0-.7-.2-1.1-1.3-1.1h-.8zm0-1.1h1.2c.8 0 1.1-.3 1.1-.9 0-.5-.4-.8-1.1-.8h-1.2v1.7zM26.5 8.8h-3.2v1.7h3.5l-.2 1.2h-4.8V5h4.7v1.2h-3.3v1.4h3.2v1.2zM33.6 9.6c-.3 1.2-1.2 2.2-2.9 2.2-2.1 0-3.1-1.5-3.1-3.4 0-1.8 1-3.5 3.2-3.5 1.8 0 2.6 1 2.8 2.2h-1.4c-.1-.5-.5-1-1.4-1-1.2 0-1.7 1.1-1.7 2.3 0 1.1.4 2.3 1.7 2.3.9 0 1.2-.6 1.4-1h1.4zM34.8 5h1.4v3c.4-.5 1.8-2 2.7-3h1.7l-2.7 2.8 2.8 3.9H39l-2-3-.7.7v2.3h-1.4V5z"/><path fill="none" d="M27.1 27.1h13.5v13.5H27.1z"/><g fill="#010101"><path d="M32.2 38.9c.1.6.5.8 1.2.8.6 0 .9-.3.9-.7 0-.5-.3-.6-1.2-.9-1.5-.4-1.9-.9-1.9-1.7 0-1 .7-1.6 2-1.6 1.5 0 2.1.8 2.1 1.6h-1.2c-.1-.3-.2-.7-1-.7-.5 0-.8.2-.8.6 0 .4.2.5 1.1.8 1.6.4 2 1 2 1.8 0 1-.8 1.7-2.2 1.7-1.4 0-2.2-.7-2.3-1.7h1.3zM39.8 36.1h-2.1c0 .3-.1.8-.2 1 .2-.2.5-.3 1-.3 1 0 1.6.8 1.6 1.8s-.6 2-2 2c-1 0-1.8-.5-1.9-1.5h1.2c.1.4.4.6.8.6.5 0 .8-.4.8-1s-.2-.9-.8-.9c-.5 0-.7.2-.8.5l-1-.1c.1-.7.4-2.3.5-3H40l-.2.9z"/></g><path d="M16 21.4h-1.3c-.5 0-1 0-1.5-.1H12.3c-.3.1-.2-.2-.2-.4 0-.1 0-.1.1-.1.9.1 1.8 0 2.7 0h1.4c.1 0 .2 0 .2-.1l3.9-3.9 1.6-1.6.6-.6.2-.2 3.3-3.3c.1-.1.2-.1.3-.2h.2c.1 0 .2.1.2.1l1.1 1.1c.2.2.2.3 0 .5l-.2.2c-.1.2.3.4.4.6l3.5 3.5.3.3c.1.1.1.1.2 0l.2-.2.1-.1c.1-.1.2-.2.4 0 .4.3.7.7 1 1 .1.1.1.2.2.3v.3c-.1.2-.2.3-.3.4l-3.8 3.8-.8.8-.2.2c-.3.3-.6.5-.8.8L25 27.6 21.6 31l-.4.4c-.8.8-1.7 1.6-2.5 2.5-.6 0-1.1-1.1-1.7-1.4l-.1-.1c-.1-.2-.4-.4-.6-.6-.1-.1-.2-.1-.1-.2.1-.2-.2-.3-.3-.4l-.3-.3-1.3-1.3-.8-.8c-.1-.1-.1-.1-.2 0s-.1.1-.2 0c-.2-.2-.4-.5-.7-.7 0 0-.1 0-.1-.1l-1.5-1.5c-.1-.1-.1-.1 0-.2l1.3-1.3.6-.6 1-1c.9-.6 1.6-1.3 2.3-2zm2.7-1.1h-.4 1.1-.7zm.3 10.9c0-.1 0-.1-.1-.1s-.1 0-.2.1c0 .1 0 .2.1.2s.2-.1.2-.2zm-4.9-4.9c-.1 0-.1 0 0 0-.1 0-.2.1-.2.2s.1.1.2.1.1-.1.1-.1c0-.2-.1-.2-.1-.2zm5.4-6.4v-.3c-.1.1-.2.3-.3.4-.1.1 0 .1.1.1 0-.1.1-.1.2-.2-.1 0-.1 0 0 0 0 0-.1.1 0 0-.1.2-.1.2 0 .2v-.2zm-2.3 9.8c-.1.1-.2.1-.2.2 0 0 .1.1.1 0 0 0 .1-.1 0-.1l.1-.1c.1 0 .1 0 .1.1h.1c.1 0 .1 0 .2.1 0-.1 0-.1.1-.1-.1-.2-.3-.2-.5-.1zm3-6.3h-.1l-.1.1-2.1 2.1s-.1.1 0 .1l.1.1h.1c.1.1.2.1.2.2v.1c.1.1.2.2.3.2.2.1.3.4.5.5h.1c.1.1.2.2.2.3 0 .1 0 .1.1.1s.2-.2.4-.3l1.3-1.3.5-.5s0-.1.1-.1c0 .1 0 .1.1.1v.1c0 .1.1 0 .1.1v.1h.1s0 .1-.1.1l-.2.2-.3.3c-.2.3-.5.5-.8.8l-.6.6c-.2.3-.4-.4-.6-.1v.1c.1.1.2.3.4.4 0 0 .1.1.1 0h.1l.2.2v.1l1.1-1.1.7-.7s.1-.1.1-.2c.1 0 .1-.1.2-.1l.1-.1h.1v.1c-.1.1-.2.2-.2.3-.1 0-.1.1-.2.1l-.5.5-.4.4-.3.3-.3.3c-.1.1-.1.2-.3.3v.1l.2.2h.1l.6-.6c.1-.1.1-.1 0-.2s-.1-.1 0-.2l.2-.2c.1-.1.1-.1.2 0s.1.1.1 0l1.6-1.6c.2-.1 0-.3-.2-.3-.2.1-.3.1-.5.2-.1 0-.3.1-.4.1h-.1c.2-.1.3-.1.5-.1.2-.1.3-.1.5-.2s.3-.1.5-.2.3-.1.5-.2h-.1c-.2 0-.5 0-.7-.1-.5-.1-1-.3-1.6-.4-.5-.1-.9-.2-1.4-.4-.2 0-.3-.1-.4-.3.4-.3.4-.4.2-.4.1-.1 0 0 0 0zm9-5.4s0-.1 0 0c-.1-.1-.2-.1-.3-.1-.2.1-.3.2-.4.4-.2.2-.3.5-.4.7v-.1c.1-.3.2-.5.4-.7.1-.1.2-.3.4-.3 0-.1.2-.1.3.1h.2c.1 0 .1 0 .1.1h.1l.2-.2c.1 0 .2-.1.2-.2v-.1c-.1-.1 0-.2 0-.2v-.2l.3-.3H30.6s.1 0 .1.1V17.3l-.3.3c-.2.1-.3.3-.4.4v.1c0 .1-.1.1-.1.1l-.1.1v.1c.1.1.1.3.2.5 0 .1.1.2 0 .2 0 .1-.1.2-.2.2-.3.3-.7.5-1.1.6h-.6v.1c0 .2-.1.4.1.6l.5.5c.1.1.1.1.2 0 .2-.1.4-.1.6-.2.5-.2 1-.3 1.4-.5.2-.1.5-.2.7-.2.1 0 .1 0 0-.1l-.4-.4-.4-.4c-.1-.1 0-.3.1-.4.1-.1.1-.2.2-.2l.4-.4.4-.4v-.1l-.3-.3-.8-.8-.7-.7-.9-.9-.5-.5c-.2-.2-.3-.4-.5-.5l-.5-.5c-.1-.1-.1-.1-.2 0l-1.1 1.1c-.1.1-.3.1-.4 0l-.7-.7c-.1-.1-.1-.1-.1 0-.1.3-.2.6-.3 1-.2.6-.4 1.1-.6 1.7v.2l.6.6c.1.2.2 0 .3 0v.1l-.2.2c-.1 0-.1.1-.1.2v.1h.1c.2 0 .4.1.6.2.6.3 1.3.7 1.9 1 .1.1.2.1.3.2.2.1.4.3.5.5.1-.1.1-.1 0-.2v-.2c0-.1 0-.1.1-.1l.3-.6c.1-.1.1-.2.2-.3l.2-.2c-.2-.5 0-.4.1-.4zm-3.3 6.3c-.1 0-.1 0-.2.1s-.3.2-.4.2l-.3.3-3.3 3.3-1.7 1.7-.1.1c0 .1-.2.1-.2.2-.1.1-.2.2-.2.3-.1.1-.1.2 0 .3l.7.7c.1.1.1.1.2 0l1.6-1.6.9-.9.9-.9 3.3-3.3 2.5-2.5.2-.2c.1-.1.1-.1 0-.1 0-.1-.1-.1-.1-.2l-.1-.1c-.1-.1.1-.3.2-.3h.1c.1.1.2.1.3.1h.1l.1-.1.4-.4.5-.5c.1-.2.3-.3.5-.5-.1 0-.2.1-.3.1-.3.1-.7.2-1 .3-.5.2-1 .3-1.5.5-.1 0-.2.1-.3.2-.2.3-.7.5-.6.9.2-.2.6-.4.6-.7 0-.1 0-.1.1-.1h.1l.1-.1h.1v.1c-.1.1-.2.3-.4.4l-.7.7s-.1.1-.1.2v.5c0 .1 0 .1-.1.1l-.3.3c-.3.2-.7.3-1 .5-.1.1-.2.1-.3.2l-1.4 1.4-.1.1-.3.3h-.1v-.1l.1-.1s.1-.1 0-.1c0-.1 0-.1.1-.1h.1l.7-.7c.3-.2.4-.4.6-.5zm2.1-3.2v-1.4c0-.1 0-.3-.2-.4-.1-.1-.2-.2-.3-.2-.2-.1-.5-.2-.7-.4-.5-.2-.9-.5-1.4-.7-.4-.2-.8-.3-1.3-.2-.6.1-1.3.3-1.9.4l-1.2.3c-.1 0-.2.1-.3.1-.1.1-.2.3-.2.4h.1c.1 0 .3 0 .4.1 0 0 .1 0 .1.1s.1.1.1.2c.2.2.2.3.2.6V22.7c0 .3-.1.4-.3.6l-.1.1s0 .1-.1.1h-.4c0 .1.1.2.2.3.1.1.2.1.3.1.5.1 1 .3 1.6.4.5.1 1 .3 1.6.4.4.1.8 0 1.2-.1.2-.1.5-.2.7-.3.3-.1.5-.2.8-.4.3-.1.6-.3.9-.4.2-.1.3-.3.3-.6V21.7c-.1 0-.1 0-.2-.1v-.2c-.1-.3 0-.3.1-.3zm1 2.7 3.1-3.1.1-.1c.1-.1.1-.1 0-.1-.1-.1-.1-.1-.1 0l-.1.1c-.1.1-.1.1-.1 0-.1-.1-.1-.1 0-.1.1-.1.2-.1.1-.2s-.1-.1-.1 0c-.1.1-.3.2-.4.4l-.5.5-.6.6s-.1.1 0 .1c0 .2-.1.4-.4.3h-.1l-.1.1-3.5 3.5-3.4 3.4-.3.3c-.1.1-.3.2-.4.4l-2.7 2.7-.3.3c-.1.1.4.6.5.4l2.4-2.4c1.4-1.4 2.8-2.8 4.2-4.1.9-1.1 1.8-2.1 2.7-3zm-2.2-12.7c-.1 0-.2-.1-.3 0 0 0-.1 0-.1.1l-.4.4-.3.3-.3.3-.7.7c-.1.1-.1.1 0 .2l1.4 1.4c.1.1.1.1.2 0l1.7-1.7.1-.1v-.1H28s0-.1-.1-.1h-.1v-.1c0-.1 0-.1-.1-.1s-.1-.1-.1-.2c0 0 0-.1-.1-.1-.1.3 0-.2-.2-.1-.1 0-.1 0-.1-.1H26.9v-.1s0-.1-.1-.1-.2-.2-.3-.2c.1 0 0-.1-.1 0l-.5.5-.1.1c0-.1.1-.1.1-.2.1-.1.2-.3.4-.4.4-.1.4-.2.5-.3-.1.1-.1.1 0 0-.3.3-.5.5-.6.7l.1-.1c.1-.1.1-.2.2-.2 0-.2.1-.3.3-.4zm6.8 6.8c-.1 0-.1 0 0 0-.1.1-.2 0 0 0-.1 0-.1 0 0 0l-.1-.1h-.1c-.1 0 0-.1-.1-.1v-.1l-.1-.1c-.2 0-.2-.1-.2-.2 0 0 0-.1-.1-.1 0 0-.1 0-.1-.1s0-.1-.1-.1-.2 0-.2.1c-.5.5-1 1-1.6 1.5l-.2.2v.1l.1.1 1.1 1.1c.1.1.1.1.2 0 0 .1 0 .1.1.1-.1.1-.1.1 0 .2h.1l1.1-1.1c.2-.2.4-.3.5-.5.1-.1.1-.2.1-.4h-.1v-.1l-.6.6.6-.6c-.1 0-.2.2-.3.2.1-.1.1-.2.2-.2 0 0 .1-.1 0-.1l-.1-.1s0-.1-.1-.1h-.1c.1 0 .2 0 .1-.1v.1c-.1 0-.1 0 0-.1-.1.1-.1.1 0 0zm-18.7 8c0 .1.1.1 0 .2-.1 0-.2 0-.2-.1-.1 0 0 .1 0 .1l.6.6.1.1v.1c-.3.2 0 .3.1.5s.1.4 0 .5c-.1.1-.2.3-.3.4l-.4.4c-.2.2-.3-.3-.5-.1-.1.1-.2.2-.3.2l-.1-.1v-.2l.2-.2c0-.3-.4.2-.5.3.7.9 2 2.2 2.9 2.9l.4-.4V31c-.1 0-.2-.1-.2 0l-.1.1c-.1.1-.2.1-.2 0-.1-.1-.1-.1 0-.2l.1-.1v-.1c0-.1 0-.2-.1-.3-.1-.1-.1-.1 0-.2l.5-.5.2-.2c.2-.1.4-.1.6 0l.3.3c0 .1 0 .1.1 0l.1-.1c.1-.1.1-.1.2 0 .2.1.4.5.6.5.1-.1.1 0 .2 0 0 0-.1-.2-.2-.2s-.2-.1-.3-.2c.1 0 .1.1.2.2l-.7-.7c.2.2.3.4.5.5h-.1l-.5-.5s-.1-.1 0-.1c0-.3-.4-.4-.5-.6l-.3-.3c-.2-.2-.5-.4-.7-.7l-.5-.5H16c-.2 0-.2-.1-.4-.2l-.5-.5v-.1c.1-.2-.1-.3-.2-.4zm-.8.3-.6-.6-.2-.2h-.1l-.5.5-.2.2-.4.4c-1 .5.9 1.7 1.4 2.2l.3-.3c.1-.2.3-.3.5-.5l.8-.8c.1-.3-.5-.6-.7-.9 0 .3-.4.3-.4.1-.2 0-.1-.1.1-.1zm4.8 4.8-.8-.8H18l-1.5 1.5c-.1.1 0 .1 0 .1l1.6 1.6c.1.1.1.1.2 0l.6-.6.9-.9c.1-.1.1-.1 0-.2l-.4-.4-.3-.3c0 .2-.1.3-.2.3s-.2-.1-.2-.2c-.1 0 0-.1.2-.1zm-2.4-7.7c-.2.2-.4 0-.3-.1.1.1.2.1.3.1-.1-.1 0-.1-.1-.2h.1l.1.1c0 .1.1.1.1 0 .1-.1.2-.1.2-.2l.5-.5.7-.7s.1-.1.1-.2c0-.2 0-.2-.2-.2h-.7c-.1 0-.2 0-.2.1l-2.6 2.6-.4.4c-.1.1-.5.3-.4.5l.4.4.1.1c.1.1.2-.1.2-.2s.1-.1.2-.2c.5-.5 1-.9 1.4-1.4.2-.1.4-.2.5-.4zm.6-1.9s-.1 0 0 0c-.3 0-.6 0-.9-.1h-.1l-.2.2c-.1 0-.1.1-.2.2l-.3.3-2 2-1.4 1.4c-.2.1.4.6.5.5l.4-.4.5-.5.8-.8 2.3-2.3c.2-.1.4-.3.6-.5zm-.4-.6h.9c.1 0 .1 0 .1-.1l.7-.7 2.3-2.3.1-.1v-.1s0-.1-.1 0c-.1 0-.1 0-.2-.1l-.1-.1-.1-.1s0-.1-.1 0l-.1.1-3.2 3.2c-.1.2-.1.3-.2.3zm-1.8 5c.1.1.1.2.2.2 0 0 .1.1.1 0h.1l.1.1.3.3.3.3s.1.1.1.2v.1l.7.7h.1s.1-.1.2-.1h.3c.1.1.1.2 0 .3 0 .1-.1.1-.1.2v.1l.7.7s.1.1.1 0h.1l.7.7s.1.1 0 .1v.1c.1.1.1.2.2.2v-.2c0-.1 0-.2.1-.2 0-.1.1-.1.2-.2l.3-.3c.1-.1.2-.1.2-.2l.3-.3.3-.3v-.1l-.2-.2h-.1V28.3l-.9.9c-1.2-.3-2.3-2.2-3.6-3.2-.1-.1-.1-.1-.1-.2.1-.1.2-.1.2-.2l.8-.8c.1-.1.1-.1.2 0h.1c0-.1-.1-.2-.1-.2-.1-.1-.1-.1-.2 0l-1 1c-.1.1-.2.2-.3.2h-.4zm6-8.3c.1-.1.1-.1.2-.1s.1-.1.1-.1l1.4-1.4.4-.4.2-.2.2-.2.2-.2c.1-.1.1-.2.2-.2s.1-.1 0-.2-.3-.4-.5-.3c-.1.1-.3.2-.2.3H23s-.1 0 0 .1c-.1 0-.1 0-.2.1l-1.9 1.9s-.1.1-.1.2h-.1c-.1 0 0 .1 0 .1-.2 0-.3.2-.4.3-.1.1-.1.1 0 .2l.3.3c.2.1.3-.1.3-.2.1 0 .1 0 0 0zm2.4-2.2c-.1 0-.1.1-.2.2l-.4.4-.4.4c-.3.3-.7.6-1 1l-.9.9-1.3 1.3-.7.7c-.1 0 0 .1 0 .1h.8l-.2-.2c0-.1 0-.1.1-.2.1-.2.3-.4.4-.6.1-.2.3-.3.4-.5.1-.2.3-.4.5-.5.1-.1.3-.2.4-.3.2-.1.3-.2.5-.4.1-.1.3-.2.4-.3.1-.1.2.2.3.3v.1s-.1.1-.1 0c-.1-.1-.1-.1-.2 0l-.6.6v.1c.1 0 .3-.1.4-.1.1 0 .1 0 .2-.1l1.8-1.8.1-.1.1-.1c.1-.1.2-.1.1-.3v-.1c0-.1 0-.1-.1-.1-.3.1-.4-.2-.4-.4zm-5.6 9.6s0-.1.1-.1l1.7-1.7c.3-.2-.1-.3 0-.6v-.3c0-.2-.2 0-.3-.1h-.1l-.9.9c-.1.1-.1.1 0 .2s.1.1 0 .2l-.2.2c-.2.2-.2-.1-.4 0l-.4.4-.3.3c-.1.1-.1.1 0 .1.1.1.2.3.3.1 0 0 0-.1.1-.1s.1-.1.1-.1l1-1 .2-.2.2-.2.2-.2c.1 0 .1-.1.1-.1.1 0 .1-.2.2-.1v.1l-.1.1c-.1.1-.1.1-.1.2-.1 0-.1.1-.2.1l-.6.6-.6.6-.6.6h.1c.1.1.2.1.2.2v.1l.3.3h.1c.1-.1-.1-.2-.1-.3-.1-.1-.1-.2 0-.3.2-.1.3-.3.4-.4l1.3-1.3.1-.1v-.1l-.6.6-.6.6c-.2.4-.4.6-.6.8zm.9-3.9-.1-.1h-5.8c-.1 0-.1 0-.1.1s0 .2.1.2H15c.6 0 1.2 0 1.8.1.6 0 1.2 0 1.8.1.1 0 .2 0 .2-.1-.2-.2-.2-.2-.2-.3zm2.7 1.3c0-.1 0-.1 0 0v-2.1c0-.1 0-.1-.1-.1h-.6c-.2 0 0 .5-.1.7v1.5c0 .1 0 .1.1.1.2-.2.4-.1.7-.1zm7.6-4.2c-.1 0-.1 0 0 0-.4.3-.6.6-.7.9v.6c-.1.1.1.2.2.2s.3 0 .4-.1c.3-.1.6-.3.8-.5l.2-.2c-.1 0-.2 0-.3-.1-.2-.1-.3-.3-.4-.4-.1-.1-.2-.2-.2-.4zm-11.4 9.6 1.7 1.7c.1.1.1.1.2 0l.5-.5.4-.4c.1-.1.1-.1 0-.1l-.1-.1-1.1-1.1-2.3-2.3c-.1-.1-.1-.1-.2-.1l-.2.2-.8.8c-.1.1 0 .1 0 .1.7.7 1.3 1.2 1.9 1.8zm12.2-12.2 2.1 2.1.1.1h.1l.1-.1-.2-.2-.3-.3-.6-.6-.2-.2-.5-.5-.3-.3-.5-.5-.3-.3-.2-.2-.3-.3-.6-.6-.3-.3s0-.1-.1 0l-.1.1v.1l.1.1c.6.5 1.3 1.2 2 1.9zM18.1 22l-.1.1-.2.2-.3.3-.2.2-.3.3c-.1.1-.1.2-.2.2v.1c.1.1 0 .1-.1.1h-.1l-.1.1-.3.3-1.1 1.1-.3.3c-.1 0 .1.3-.1.2-.1 0-.2.1-.2.2s.1.1.2.1.1 0 .2-.1c.1-.2.3-.3.4-.4 0 0 0-.1.1-.1s.1 0 .1-.1l2.9-2.9v-.1c-.2 0-.2 0-.3-.1zm.3 0s.1 0 0 0h1s.1 0 .1-.1c0 0 0-.1.1-.1.1-.2.2-.3.3-.5.1-.2.1-.4 0-.5-.1-.1-.1-.2-.2-.3 0-.1-.1-.1-.2-.1-.3 0-.7-.1-.9 0 .1.1.2.3.3.4.1.2.2.3.1.5 0 0 0 .1-.1.1l-.3.3c-.1.1-.1.2-.2.3zm2.1-1.8c0-.1 0-.1 0 0h-.2c-.1 0-.4-.1-.5.1 0 .1 0 .1-.1.2v.1c0 .1.1.2.1.3.1.2.1.4 0 .6-.1.1-.1.3-.2.4v.2c.1 0 0 .1 0 .1 0 .1 0 .1.1.1h.5s.1 0 .1-.1V21c.2-.3.2-.6.2-.8zm4.5-6.6c-.1.1-.3.2-.4.4l-.9.9c-.1.1-.1.1 0 .2l.3.3c.2.2-.1.3-.2.3 0 0-.1 0-.1.1s0 .2.1.3V16.4c.1.1.1.1.1 0 .1-.2.1-.4.2-.6.1-.2.2-.5.2-.7.4-.5.6-1 .7-1.5zM20.9 23c.1-.1.1-.2.2-.3v-.3c0-.1 0-.1-.1-.1h-.4c-.1 0-.1 0-.1-.1-.2-.1-.5 0-.7 0h-.1c0 .1-.1.1-.1.2v.5c0 .1.2.2.3.2.2.1.4.1.6.1.2 0 .3-.1.4-.2zM19 31l.8.8c.1.1.1.1.1 0l.2-.2v-.1c-.2-.1-.3-.3-.4-.4l-.5-.5-.3-.3c-.1-.2-.3-.3-.5-.5-.1-.1-.1-.1-.1 0l-.2.2c-.1.1-.1.1 0 .2.4.3.6.5.9.8zm-4.8-4.8.8.8.1.1h.1l.2-.2c.1-.1.1-.1 0-.1l-.3-.3-.4-.4-.4-.4-.5-.5c-.1-.1-.2.2-.3.2 0 .2.4.5.7.8zm6.7-6.8c-.1-.1-.3-.2-.5-.2s-.4 0-.6.1c-.1.1 0 .3-.1.4v.2c0 .1.1.1.1.1h.6c0-.1.1 0 .1 0h.4s.1 0 .1-.1c.1-.1.1-.3-.1-.5zm2.9-2.2c.1 0 .1.1.2 0 .1.1.1 0 .1 0 .1 0 .1-.1.2-.1s.2-.1.3 0l-.3-.3-.3-.3s0 .1-.1.1c0 0-.1 0-.1.1l-1.4 1.4v.1c.1 0 .2 0 .3-.1.1-.1.2-.2.4-.2l.1-.1c-.1-.1-.1-.1 0-.2l.1.1v.1c.3-.1.4-.2.6-.4 0-.1-.1-.1-.1-.2zm-6.7 15.4.6.6.9.9c.1.1.1.1.1 0l.6-.6v-.1h.2c0-.2-.3-.3-.4-.4-.1-.1-.1 0-.1 0v.1h-.1l-.1.1-.5.5c-.4 0-.8-.8-1.2-1.1zm-5.7-6.5-.3.3c-.1.1.4.6.5.5l.6-.6c.1-.2-.3-.4-.4-.5-.1-.1-.3.3-.4.3zm6 4.6.3-.3.1-.1c0-.1 0-.3-.2-.4-.1-.1-.3-.1-.4 0l-.5.5c-.1.1-.1.1 0 .2 0 .1.1.2.2.2.1.1.2.1.3 0 .1 0 .1-.1.2-.1zm4.5-12.5c.2 0 .4 0 .6-.1l.6-.6.8-.8.1-.1v-.1c0-.1-.1-.1-.1-.2v.2s0 .1-.1 0h-.2L22.1 18l-.2.2zm-6.9 10c.1-.1.2-.2.3-.2.1-.1.1-.1.1-.2 0-.2-.1-.3-.3-.3-.1 0-.1 0-.2.1-.2.3-.6.4-.6.8 0 .1.1.2.2.2.1.1.2 0 .3 0 0-.3.1-.3.2-.4zm4.7-8.8c.1-.1.2-.2.4-.2s.3-.2.4-.3v-.1c.1-.3.3-.3.5-.5l.8-.8.1-.1v-.1h-.1c-.1.1-.2.2-.4.3-.2.1-.3.3-.5.4l-.3.3-.3.3c-.3.3-.5.6-.6.8zm-1.1 7.1 1.5 1.5.1.1h.1c.1 0 0-.1 0-.1l-.2-.2-1.2-1.2-1.3-1.3-.3-.3h-.2v.1l.1.1c.4.3.9.8 1.4 1.3zM23 18l1.5-.3v-.2c0-.1.1-.1.1-.2.1-.1.1-.1 0-.2h-.2c-.1 0-.2 0-.3.1-.3.3-.7.5-1.1.8.1-.1 0-.1 0 0zm-8 7.7h.3c.5-.2.8-.7 1.2-1l.1-.1v-.1h-.1c-.1-.1-.2 0-.2 0l-.8.8c-.3.2-.4.3-.5.4zm5.5 3c0 .1-.1.1-.1.1l-.3.3c-.1.2-.3.3-.5.4-.1.1-.2.3-.2.5 0 .1 0 .2.1.1l.9-.9.2-.2v-.1s0-.1-.1-.2zm7.6-7 .5-.5c.1-.1.1-.1 0-.1l-.3-.3-.2-.2c0 .1-.1.6-.1.7-.1-.1-.1 0-.1 0v.1c-.1 0 0 .1 0 .1v-.1h.1v.1h.1-.1c.1.1.1.2.1.2-.1 0-.1 0 0 0zM24 15.4l-.2-.2-.2-.2h-.1c-.1.1-.1.2-.2.3v.1c0 .1.2.3.3.2.1 0 .1 0 .2-.1s.1-.1 0-.2c0 0-.1 0-.1-.1.2.1.2.2.3.2zm.4-2.2c.1 0 .1-.1.2 0 0 0 .1.1 0 .1v.1c.1 0 .1.1.2.1h.1v.1c0 .1-.1.1-.2.1l-.6.6c-.1 0-.1.1-.2.1v.1c0 .1.1.1.1 0l.9-.9c.1-.1.1-.1 0-.1l-.3-.3-.1-.1h-.1c.1-.1 0 0 0 .1zm5.1 4.9s-.2-.1-.3-.1c-.1 0-.1 0-.1.1.1.2.3.4.6.6.1 0 .2.1.1 0 0-.1-.1-.2-.1-.3h-.1c-.1-.1-.1-.1-.1-.3 0 .1 0 .1 0 0zm1.4 1.1-.2-.2c-.1.1-.1.2 0 .2l.1.1.7.7c.1.1.1.1.2 0l-.8-.8c.1.1.1.2 0 .2v-.2c0 .1 0 0 0 0zm-2.7.6c0 .1.1.1.2.1h.4c.3-.1.6-.2.8-.4l.3-.3c.1-.1.1-.2.1-.2 0-.1 0-.1-.1-.2v.1c0 .1 0 .2-.1.3l-.2.2c-.3.2-.6.4-1 .5-.1-.1-.3-.1-.4-.1zm-12.9 5.4s.1 0 0 0c1-1 2.1-2 3.1-3-1 1-2 2-3.1 3zm1.3-1.8c0-.1 0 0 0 0-.2.2-.3.3-.5.4-.4.3-.7.7-1 1l-.4.4s-.1 0-.1.1h.1l1.9-1.9zm5.1-5.1c.1 0 .1 0 .1-.1l.7-.7 1-1s.1 0 .1-.1h-.1c-.6.6-1.2 1.2-1.8 1.9zm3.4 6.3c-.2 0-.3.1-.4.1-.1 0-.2.1-.2.1v.1c0 .1.1.1.1.2s0 .1.1 0 .3-.3.4-.5zm-3.6 2.8c.1 0 .1.2.2.1l.3-.3c.1-.1-.1-.2-.1-.2-.1-.1-.1 0-.1 0l-.1.1c-.2.2-.2.3-.2.3zm-.9.4c.1.1.1 0 0 0 .1-.1.1-.1.2-.1l1.4-1.4.1-.1-.1.1c-.5.5-1.1 1-1.6 1.5zm-2.9-4.5s0 .1 0 0c-.2.2-.2.2-.1.3h.1s.1-.1.1 0c.1-.1.2-.1.2-.3 0-.1-.1-.2-.2-.2h-.1c.1.1.1.2 0 .2zm1.4-3.4.3-.3c.1-.2.3-.3.4-.5.1-.1.2-.2.3-.4l.3-.3c.2-.1.4-.3.5-.4.1-.1.3-.2.4-.3.1-.1.2-.2.3-.2v-.1c-.1 0-.1.1-.2.2l-.3.3c-.2.1-.4.3-.5.4-.2.1-.3.2-.5.4s-.3.4-.5.6c-.1.2-.3.3-.4.5 0 0 0 .1-.1.1zm-2 8.1.1.1h.1c0-.1.1-.1.1-.2s0-.1-.1-.2c-.1 0-.1-.1-.2 0-.1 0-.1.1-.2.1v.1c.1.1.2.1.2.1zm9.1-3.8c-.1 0-.2.1-.2.2l-1.1 1.1-.1.1s.1 0 .1-.1c.4-.4.8-.9 1.3-1.3-.1 0 0 0 0 0zm-7.9-3.8c.1.2.3.3.4.5.1.1.1.3.1.4 0 .1-.1.1-.1.2-.1.2-.2.3-.3.4v.1h.1l.2-.2c.1-.1.2-.2.3-.4.2-.2 0-.5-.2-.7-.2-.1-.3-.1-.5-.3.1 0 .1 0 0 0zm6.1 5-.3-.3H24c-.1 0-.2.1-.3.1v.1c.1.1.1.2.2.1h.3c0-.1.1-.1.2 0zm-6.7-4.5h.4v-.4l-.4.4zm-.4 3.6 1.6-1.6c-.5.5-1 1.1-1.6 1.6zm6.1 1.8c.4-.3.8-.8.9-.9-.1 0-.2-.1-.3-.1-.1 0-.2 0-.2.1l-.3.3.2-.2c.1-.1.1-.1.3 0 .1.1.1.1 0 .2l-.2.2c-.1.1-.2.3-.4.4zm-5.3-4.5-1.4 1.4c.5-.4 1-.9 1.4-1.4.1 0 .1 0 0 0zm3.8 6-2 2c.7-.6 1.4-1.3 2-2zm-6.4.1c.1-.2 0-.4-.1-.5 0 .1-.1.1-.1.1s0 .1.1.1v.1c0 .1.1.1.1.2zm-3.3-2-.1-.1s0 .1-.1.1-.1-.1 0-.2c.1 0 0-.1 0-.1-.3.2 0 .3 0 .4.1 0 .1.2.2.2 0 0 .1 0 .1-.1 0-.2-.1 0-.2 0 0 0 0-.2.1-.2zm11.5-11.8c0-.1-.1-.1 0 0 0-.2 0-.3.1-.3l.1-.1.2-.2.3-.3s.1 0 0-.1l-.7.7c-.1.2-.1.3 0 .3zm4.3 8.2c.1 0 .1-.1 0 0l.7-.7h-.1c-.1.2-.3.4-.6.7.1-.1 0-.1 0 0zm1.8-4.1s.1-.1 0 0c.1-.1.1-.2.1-.2h-.1l-.2.2v.1h.1l.1-.1zM17.7 30c.1.1.1.2.1.3.2-.1.2-.2.1-.4 0 0-.1.1-.2.1zm12-8.2c0-.1 0-.1.1-.1l.1-.1c.1-.1-.1-.1-.1-.1-.1 0-.1.1-.1.1-.1.1-.1.1 0 .2zm1-4.8c-.2.1-.4.3-.5.5.2-.1.5-.4.5-.5zM24 13.8c-.1.1-.1.1 0 .2s.1.1.2 0v-.1c0 .1-.1 0-.2-.1zm-3.9 13.3c0-.1.2-.1.1-.2h-.1c0 .1-.1.1-.2.2v.1h.1l.1-.1zm.2.1s0-.1 0 0c.1-.1.1-.2 0-.2-.1.1-.2.2-.3.2h.2c0 .1 0 0 .1 0zm.6-.7c0-.1.2-.1.1-.2h-.1l-.2.2c-.1 0 0 .1.1.1s.1 0 .1-.1zm.3-.4-.1.1c-.1.1 0 .1.1.1l.2-.2V26h-.1c0 .1-.1.1-.1.1zm-.4.3.1-.1v-.1h-.1c-.1.1-.2.1-.2.2v.1h.1s0-.1.1-.1zm-.4.3.1-.1v-.1h-.1c-.1.1-.2.1-.2.2v.1h.1c.1 0 .1 0 .1-.1zM25.7 14l-.2-.2h-.1v.1l.3.3h.1v-.1l-.1-.1zm-3.9 11.5-.1.1v.1h.1l.2-.2v-.1c0-.1-.1 0-.2.1zm-.7.6.1-.1v-.1h-.1c0 .1-.1.1-.1.2v.1l.1-.1zm.5-.4-.2.2v.1h.1l.1-.1c.1-.1.1-.1 0-.2zm-.1 0 .1-.1v-.1h-.1l-.2.2c-.1.2.1.1.2 0zm-.7-2.5h.1c.2-.1.2-.2.3-.4v-.1h-.1c0 .2-.2.4-.3.5zm-.4 3.7h.2l.2-.2v-.1h-.1l-.3.3zm.4 2c.1-.1.1-.1 0-.2s0-.2.1-.2l.4-.4-.3.3-.2.2v.1c-.1 0-.1.1 0 .2zM18.1 25l.1-.1s0-.1-.1-.1c-.1.1-.1.2-.2.3v.1h.1c0-.1 0-.1.1-.2zm3.7.4s0-.1 0 0c.2-.1.1-.2 0-.2l-.2.2c0 .1 0 .2.2 0-.1.1-.1 0 0 0zm-2.6-1.2.1-.1V24h-.1l-.2.2s0 .1.1.1c0-.1.1-.1.1-.1zm-.4.2-.1.1c-.1 0 0 .1.1.1l.2-.2v-.1h-.1l-.1.1zm-.1 0 .1-.1v-.1h-.1l-.2.2s0 .1.1.1l.1-.1zm.4-.4c0-.1.2-.1.1-.2h-.1c0 .1-.4.4 0 .2-.1.1-.1.1 0 0zm-.6.8.1-.1s0-.1-.1-.1l-.2.2s0 .1.1.1.1 0 .1-.1zm-.1-.1.1-.1v-.1h-.1l-.2.2v.1h.1l.1-.1zm0 .3c-.1 0-.1 0 0 0-.1-.1-.1 0-.1 0-.1.1-.4.4-.1.3l.1-.1c-.1-.1 0-.1.1-.2zm-3.1 2.3c-.2-.1-.2-.1-.3.1.1 0 .1 0 .2.1 0-.2 0-.2.1-.2zm3 1.8c.2.3.5.5.7.7-.2-.3-.5-.5-.7-.7zm1.1-5.5-.1.1v.1h.1l.2-.2c0-.2-.2 0-.2 0zm.5-.1.1-.1v-.1c-.1 0-.2.2-.3.2 0 0 0 .1.1.1 0 0 0-.1.1-.1zm-.2-.2c-.1 0-.2.2 0 .2l.2-.2c0-.1-.1-.1-.2 0 0-.1 0 0 0 0zm-7.3-2.1v-.3c0-.1-.1-.1-.1 0v.2c0 .1 0 .1.1.1zm7.2 2.4-.2.2v.1h.1l.1-.1v-.2zm5.4-6.4c-.1 0-.2.1-.3.2v.1c.1 0 .2-.2.3-.3zm-6.4 7c.1 0 .1 0 0 0 .1-.1.1-.1.1-.2h-.1c.1.1 0 .1 0 .2 0-.1-.1 0-.1 0s-.1 0 0 .1c0 .1.1 0 .1-.1zm-.3.4s0-.1 0 0c.1-.1.2-.1.1-.2h-.1c0 .1-.1.1 0 .2h-.1c-.2.2.1.1.1 0zm.7-.7.1-.1-.2.2s0-.1.1-.1zm1.3-.6c.1.1.3.1.4.1.1 0 0-.1 0-.1h-.4zm.7-4c.1.1.2.3.2.5v-.1c0-.1 0-.2-.2-.4 0 .1 0 0 0 0zM18.1 30c0-.2-.3-.5-.5-.5.2.1.4.3.5.5zm.2-7.9h1.1-1.1zM15 28.4c.1 0 .1-.1.1-.1-.1-.1-.1-.1-.2 0l.1.1zm2.2-4.5c-.2.1-.3.3-.5.4-.1.1-.1.1-.2 0l-.1-.1h-.1c.1 0 .1 0 .2.1h.1c.2-.1.4-.2.6-.4zm4.1-1.6v.2c0 .2 0 .4-.2.6.2-.2.2-.5.2-.8zm7.8-4.1c.1.1.1.4.3.3-.2-.1-.2-.2-.3-.3zM15.4 28h-.2c-.1 0 0 .1 0 .2.1-.1.2-.1.2-.2zm.2-.4c0-.2-.2-.5-.4-.5.2.1.3.3.4.5zm8.2-13.4c.1 0 .1.1 0 0l.1.1c0-.1-.1-.1-.2-.2.1-.1 0 0 .1.1zm-2.1 11.1.1-.1v-.1h-.1l-.2.2c.1.1.1 0 .2 0zm-1.3-6.2c.1 0 .3 0 .4.1-.1-.1-.2-.1-.4-.1zm-3.6 11c-.1.1 0 .2.1.1s-.1-.2-.1-.1zm12.8-11.3c.1 0 0 0 0 0l-.2-.2v.1c.1.1.2.1.2.1zm-10.4 4.7-.1.1.2-.2c.1 0 0 .1-.1.1zM17.8 25l.2-.2s0-.1 0 0c-.1 0-.1.1-.2.2zm6.6.2V24.9h-.1v.1c0 .1.1.1.1.2zM20 26.9l.1-.1s0-.1 0 0c-.1.1-.2.2-.3.2.1 0 .1 0 .2-.1zm.7 1.7c-.1 0-.1 0 0 0-.1 0-.1.1 0 0v.3h.1v-.1c-.1 0-.1-.1-.1-.2 0 .1 0 0 0 0zm3.7-14.5s.1-.1.1-.2l-.2.2c0 .1 0 0 .1 0zm-.3-.5c-.1 0-.3.2-.3.3.1-.1.3-.2.3-.3zm-4.5 9.7c0-.1.1-.1 0 0l.1-.1h-.1c0 .1-.2.1-.2.2.1 0 .1 0 .2-.1-.1 0 0 0 0 0zm1 2.9s-.2.2-.1.2l.2-.2s0-.1 0 0h-.1zm8.5-7.8c-.1-.2-.1-.2 0-.3-.1 0-.1 0-.1.1s0 .1.1.2zm.3.4c.1.1.2.1.3.2h.1v-.1h-.2s-.1-.1-.2-.1zm-8.6 7.3s.1 0 0 0c.1-.1.2-.2.3-.2-.1 0-.2 0-.3.2 0-.1 0-.1 0 0zm1.7.6.8-.8c-.3.3-.5.6-.8.8zm1.9-13.5c.1.1.3.4.4.4-.1-.1-.3-.2-.4-.4zm7.6 7.2c.1 0 .1 0 0 0l.1-.1c-.1 0-.1.1-.2.2l.1-.1c0 .1 0 .1 0 0zm-17.2 5.3c.2-.1.4-.3.4-.4-.1.2-.3.3-.4.4zm5.4 1 .2-.2v-.1l-.2.2v.1zm-5.3 1.9-.1-.1c-.1 0 0 .1 0 .1 0 .1 0 0 .1 0-.1 0 0 0 0 0zm6.4-3-.1.1h.1l.2-.2s0-.1 0 0c-.2 0-.2.1-.2.1zM16 26.8l-.7-.7.7.7zm-.1.2-.7-.7c.2.2.4.5.7.7zm6.7-1.2c-.1.1-.1.2-.2.2.1 0 .2 0 .2-.2 0 .1 0 .1 0 0zM21.3 20c.1-.2 0-.4-.1-.5.1.2.1.3.1.5zm4-6.4c-.1 0-.1-.1 0 0-.1-.1-.2-.1-.1 0l.1.1v-.1zm.8.9c0-.1-.1-.1-.1-.1h-.1s0 .1.1.1h.1zM16.7 31s.1 0 0 0c.1 0 .1-.1 0 0 0-.1-.1 0-.1 0 0 .1.1.1.1 0 0 .1 0 .1 0 0zm-.1-.7c-.1-.1-.1.2 0 .1.1 0 .1 0 0-.1zm-1.2-4-.1-.1c0 .1.1.2.2.2 0 0-.1 0-.1-.1zm-.6-.5h-.2c.1.1.2.1.2 0 .1.1.1.1 0 0zm-.3-.4c-.1 0-.1.1-.2.2.1 0 .2-.1.2-.2zm16.1-8.2c0 .1 0 .2-.1.1v.1c.1 0 .2-.1.1-.2.1.1.1.1 0 0 .1 0 .1 0 0 0zm-1.7 4.2c.1 0 .2-.1.2-.2-.1.1-.2.1-.2.2zm-14.6 7.2s0-.1 0 0l.1-.1-.1.1c-.2 0-.1.1 0 0-.1 0-.1 0 0 0zm6.3-10.9c0-.1-.2-.2-.3-.3l.3.3zm3.5-4c0 .1 0 .1.1.2h.2c-.2 0-.2-.1-.3-.2zm-9.9 14.8s0-.1 0 0c.1-.1 0-.1 0-.1s-.1.1 0 .1c-.1 0-.1.1 0 0-.1 0 0 0 0 0zm16-10.8c.1 0 .1-.1.2-.1-.1 0-.1 0-.2.1zm-6.5-1.4c.1 0 .1-.1.2-.1-.1 0-.2 0-.2.1zm-4.4 6.2c-.1.1-.2.1-.2.2.1 0 .1-.1.2-.2zm5.2 3.3c.1-.1.1-.1 0 0 .1-.1 0-.1 0 0 0 0-.1 0 0 0 0 .1 0 0 0 0zm-.7-11.9c.1.1.2.3.4.4l-.4-.4zm-3.5 14.2c.1-.1.2-.1.2-.2 0 .1-.1.2-.2.2zM17 24.8c.1-.1.2-.1.2-.2-.1.1-.1.2-.2.2zm3.5-5.8c-.1.1-.1.1-.1.2 0-.1.1-.1.1-.2zm-3.1 6c0-.1-.1-.1-.2-.2l.2.2zm-.7 5.8c-.1 0-.1.1-.2.1.1 0 .2 0 .2-.1zm-.8-4c-.1 0 0 .1 0 0 .1.1 0 .1 0 0 0 .1 0 .1 0 0zM30 18c.1 0 .1-.1.1-.1-.1-.1-.1 0-.1.1zm-5.6-4.3.1.1v-.1h-.1zM19.7 30l-.3.3.3-.3z"/><path d="M14 26.3c.1 0 .2.2.1.2-.2.1-.3-.2-.1-.2zm0 .1c0 .1 0 .1 0 0 .1 0 0-.1 0 0zM18.9 31.1c.1 0 .1.1.1.1l-.1.1s-.1.1-.1 0l-.1-.1s0-.1.2-.1c-.1 0-.1 0 0 0zm-.1.1c0 .1.1.1 0 0 .1 0 .1-.1 0 0zM26.3 16.2h.1c0 .1-.1.1-.1 0-.1.1-.1.1-.1.2 0 0-.1 0-.1.1l.1.1.3.3s.1 0 .1.1c-.1-.1-.3-.2-.4-.4-.1-.2-.6 0-.2 0 .1 0 .2 0 .2.1l.3.3v.1h-.1l-.3-.3c-.1-.1-.1-.1-.2 0s.1.1 0 .2c0 .1 0 .1.1.1h.1s.1.1 0 .1c0 .1 0 .1.1.1 0 .1-.1.1-.2.1l-.2-.2c.2-.2.1-.2 0-.2h-.1H26v-.1h-.1c-.1.1-.2-.1-.2 0l-.1.1v-.1l1.3-1.3c.1-.1.1-.1.2-.1h.1c-.1-.1 0-.2.1-.1l.1.1 1.3 1.3.1.1c0 .1-.1.1-.2.1v.1c0 .1 0 .2-.1.3l-1.3 1.3.1-.1s0-.1-.1-.1v-.2s0-.1-.1 0c0 0-.1 0-.1.1v.2-.2c0-.1 0-.1-.1-.1l-.3-.3c-.1 0-.1-.1 0-.1 0-.1.1-.1.1-.1s0 .1-.1.1c0 .1 0 .1.1.1s.2.1.2.2c0 0 0 .1.1.1.1-.1.2.1.2 0v-.2l-.3-.3s-.1 0 0-.1c0 0 .1 0 .1.1l.3.3c.1.1.1.1.1.2v.1h.1c0-.1 0-.2-.1-.3l-.2-.2h.1l.2.2h.1l.1-.1c.1-.1.1-.1 0-.2v-.1c.1 0 .1 0 .1.2h.1l.5-.5c.1-.1.1-.2 0-.3l-.7-.7-.4-.4c-.1-.1-.2-.1-.3 0-.3-.2-.5 0-.7.2.1 0 0 0 0 0zm-.4.3h.2c.1-.1.1-.1.1-.2v-.1l.6-.6c.1-.1.2-.1.3 0l.3.3.3.3c.2.1.3.3.5.5.1.1.1.3 0 .4l-.5.5-.1.1c-.1 0-.1.1-.2.2 0 0-.1.1 0 .2h.1l.8-.8.1-.1c.1-.6-.9-1-1.2-1.5-.1-.1-.3-.1-.4 0-.1.2-.3.3-.5.5-.1 0-.2.1-.4.3zm2.7.3s0-.1 0 0c-.4-.5-.9-.9-1.3-1.4h-.1l1.4 1.4zm-1.4 1.4c.2-.1-.1-.1 0 0 0 .1 0 .1 0 0zm-1.4-1.4c0-.1 0-.1 0 0 0-.2-.1-.1 0 0-.1-.1-.1 0 0 0-.1 0 0 0 0 0zm1.9-.9c.1.1.2.2.3.4-.1-.1-.2-.2-.3-.4zM28.2 14.9l-.1.1s-.1.1-.1 0h-.1c0 .1-.1 0-.2.1h-.1c-.1-.1-.1-.2 0-.3v-.1c0-.1 0-.1.1-.2l.2-.2c.1-.1.1-.1.2 0h.1c.1 0 .1 0 .1.1s.2.2 0 .3c0 .1-.1.2-.1.2zm0-.4c-.2.1-.3.2-.4.4 0 0-.1.1 0 .1.2-.1.3-.3.4-.5zM31.2 17.9s.1.1.1.2-.1.2-.2.2-.2-.1-.2-.2c0-.3.2-.3.3-.2zm-.1.1c0-.1 0-.1 0 0-.1 0 0 0 0 0 0 .1.1.1 0 0 .1 0 0 0 0 0zm-.1-.1c0 .1.1.3.2.2-.2 0-.2 0-.2-.2zM27.3 14c.1.1.1.2 0 .3-.1.1-.2.1-.3 0 0 0 0-.1-.1-.1 0-.1.1-.2.2-.2.1-.1.2-.1.2 0zm0 0c-.1-.1-.2 0 0 0-.1.1-.1.1 0 0-.1.1 0 .1 0 0 0 .1 0 .1 0 0 0 .1 0 0 0 0zm-.2 0c-.1 0 0 .1 0 .1 0 .1.1.1.2.1-.2-.1-.2-.1-.2-.2z"/><path d="M28.1 16.9c.1-.1.1-.1.2 0s.1.1 0 .1l-.1.1c-.1.1-.1.1-.1 0-.1 0-.1-.1 0-.2-.1 0-.1 0 0 0zm.1.1s.1-.1 0-.1h-.1l.1.1c-.1 0-.2 0 0 0-.1.1-.1.1 0 0zM26.9 15.8c.1-.1.1-.1.2 0v.1l-.1.1h-.1c-.1-.1-.1-.2 0-.2-.1 0 0 0 0 0zm.1.1c0-.1 0-.1 0 0 .1-.1 0-.1 0-.1-.1-.1-.2.1 0 .1-.1 0 0 0 0 0zM27.4 17.3l-.2-.2c.1 0 .2.1.2.2zM26.9 17.3c.1.1.2.1.2.2-.1 0-.1-.1-.2-.2zM20.5 29.9c-.2.2-.4.3-.5.5 0 .1-.1.1-.1.2-.1.1-.2.1-.2.2h-.1c-.1-.1 0-.1.1-.2 0 0 .1-.1 0-.1 0 0 0-.1.1-.1h.1l.6-.6c.4-.4.8-.8 1.3-1.2 0 0 .1-.1 0-.1 0-.1 0-.1.1-.1h.1c.2-.2.5-.4.7-.7l.4-.4.3-.3.6-.6v-.1c0-.1 0-.1.1-.1.1.1.2-.3.3-.1v.1l-.1.1-.1.1c-.2.1-.3.2-.4.4L22.6 28l-.4.4c0 .1-.1.1-.2.2-.1 0-.1.1-.2.2l-.2.2-.3.3-.3.3c-.2 0-.3.1-.5.3zm-.7.5c.1 0 .1 0 0 0 .1 0 .1 0 0 0 .7-.7 1.3-1.3 2-1.9-.1.1-.2.2-.4.3l-1.5 1.5s0 .1-.1.1zm2.1-2.1c0 .1 0 .1 0 0 .7-.6 1.3-1.3 2-1.9-.7.6-1.3 1.3-2 1.9zm2.3-2.2c-.1 0-.1.1-.2.2.1 0 .2-.1.2-.2zm-4.6 4.6c.1 0 .1-.1.2-.1-.2 0-.2 0-.2.1zM26.8 24.4c.1-.1.2-.1.3 0v.1H27c-.1-.1-.1-.1-.2-.1 0 .1 0 .1.1.2v.1h-.1c-.2-.1-.2-.2 0-.3-.1 0-.1 0 0 0zM28.3 23.1s.1.1 0 .1v-.1c-.1 0-.1.1-.2.1v.1s0 .1-.1.1-.1-.1-.1-.2l.1-.1c.2-.1.2-.1.3 0zM27.4 23.8c0-.1 0-.1 0 0 .1-.1.2-.1.3 0 0 0 0 .1-.1.1s-.1 0-.2.1c0 .1.1.2 0 .1-.1-.2-.1-.2 0-.3zM20.2 23.4c0 .1 0 .1-.1.1l-.7.7-1 1c-.1.1-.1.3.1.4h.1c.1-.1.1-.1.2 0l.1.1c.1.1-.1.2 0 .3l.4.4H19.6c.1.1.2.1.1.2v.1c.1.1.3.1.4 0l.9-.9c.3-.3.5-.6.8-.8v.1l-.1.1-1.6 1.6c-.1.1-.1.1-.2.1s-.2 0-.2-.1c0 0-.1-.1-.1 0-.1.1-.1 0-.2-.1s-.1-.1 0-.2v-.1l-.1-.1-.3-.3h-.1c-.1.1-.1 0-.2 0-.1-.1-.1-.1 0-.2v-.1s-.1-.1-.1-.2 0-.2.1-.3c.3-.6.9-1.2 1.5-1.8zm-1.5 2.3c0-.1 0-.1 0 0-.1-.1-.1-.1-.1 0s0 .1.1.1.1-.1 0-.1zm.8.7-.1-.1v.2s.1 0 .1-.1c0 .1 0 .1 0 0zm-1-.7c0 .1 0 .2.1.2s.1 0 .1-.1c-.1 0-.1 0-.2-.1zm.8.7c-.2.1.1.3.1.2-.1 0-.1 0-.1-.2zM22.2 25.4l-2 2c.6-.7 1.3-1.3 2-2zM27.1 22.8c-.1.1-.2.2-.4.2l-.6.3c-.4.2-.7.3-1.1.5-.2.1-.5.1-.7.1-.3 0-.6-.1-.8-.2-.4-.1-.8-.2-1.2-.4-.2 0-.3-.1-.5-.1-.2-.1-.4-.2-.3-.5v-3.3c0-.2.1-.4.4-.5.5-.1 1.1-.3 1.6-.4.2 0 .4-.1.6-.1.4-.1.7 0 1.1.2.5.3 1 .5 1.5.8.1 0 .2.1.3.2.1.1.2.3.2.4v2.3c0 .3 0 .4-.1.5zm-.1-3-.1-.1-.6-.3c-.3-.2-.7-.4-1-.5-.3-.2-.7-.2-1.1-.2-.3 0-.5.1-.8.2-.5.1-1 .2-1.5.4-.2 0-.3.1-.3.4V23c0 .2.1.3.2.3s.1 0 .2.1c.5.1 1 .3 1.5.4.3.1.6.2.9.2.2 0 .4 0 .6-.1.2-.1.3-.1.5-.2.5-.3 1.5-.4 1.6-1.1v-2.3c0-.3 0-.4-.1-.5z"/><path d="M25.1 18.5s0 .1 0 0l-.1.1v-.1c.1-.1-.1-.1-.1-.2h.4c0 .1.1.1.1.1.5.3 1.1.6 1.6.9.1 0 .1.1.2 0h.1c0 .1 0 .1.1.1s.1.1 0 .1h-.2s0 .1-.1 0v-.2c-.4-.2-.9-.5-1.3-.7-.3 0-.4 0-.7-.1.1 0 .1 0 0 0zm.1-.1c.6.3 1.2.7 1.8 1-.1-.1-1.7-1-1.8-1zM24.9 24.2l.1-.1V24c.1 0 .1.1.2.1h.1c.4-.2.7-.3 1.1-.5l.6-.3c.1 0 .1 0 0-.1v-.1c0-.1.1-.1.1 0s0 .1.1 0h.1v.1c-.1 0-.1.1-.1.1 0 .1-.1 0-.2 0-.2.1-.4.2-.7.3-.2.1-.5.2-.7.4-.1 0-.2.1-.3.1 0 0-.1 0-.1.1 0 0-.1.1-.1 0h-.2c0 .1 0 .1 0 0-.1 0-.1 0 0 0zm2.1-1c-.6.3-1.2.6-1.8.8h-.1c.1.1 1.8-.7 1.9-.8zM27.5 22.4h-.1c0-.1-.1-.1-.1-.1v-.1c.1 0 .1 0 .1-.1v-1.5c0-.1 0-.1-.1-.1v-.1c.1 0 .1 0 .1-.1s.1-.1.1 0V22.2c.1.1 0 .1 0 .2.1 0 0 0 0 0zm0-.2c0-.5.1-.9.1-1.4v-.3c-.1.6-.1 1.1-.1 1.7zM23.6 18.3c.1-.1.1 0 .2-.1h-.1.1c.2 0 0 .1-.2.1.1 0 .1.1 0 0zM23.4 24.1h-.1s-.1 0 0 0V24h.1c-.1 0 0 0 0 .1zM20.9 31.4c0 .2-.1.3-.2.4 0 .1-.2 0-.1-.1 0-.1.1-.2.2-.3 0-.1 0-.1.1 0zm-.2.3c.1-.1.1-.2.2-.2-.2 0-.2.1-.2.2zM24.9 13h.1l.2-.2c-.1.1-.1.1-.3.2zM15.4 30c-.1-.1-.3-.2-.2-.3V29.4c-.1-.2-.1-.4 0-.6.1-.3.4-.5.7-.5.3 0 .6.1.8.3.2.2.3.5.3.8 0 .2-.1.4-.2.5-.1.1-.2.2-.4.2h-.8c0 .2-.1-.1-.2-.1zm.8.1c0-.1-.1-.1 0-.1h.1c.1 0 .1.1 0 .2.2 0 .3 0 .4-.1.1 0 0-.1 0-.1.1 0 0-.1 0-.1v-.1h.1s0 .1.1.1c.1-.2.2-.3.2-.5h-.2c0-.1 0-.1.1-.1h.1c0-.2-.1-.3-.2-.5-.2.2-.3 0-.1-.1-.1-.1-.3-.2-.5-.2v.2c-.1 0-.2-.1-.1-.2-.2 0-.4 0-.5.2.1 0 .1.1.1.2h-.2c-.1.1-.1.3-.1.4.1-.1.2 0 .2.1h-.2c0 .1 0 .3.1.2.1-.1.1-.1.2 0s.4.3.3.5v.1c-.1-.2 0-.1.1-.1zm-.7-.2c-.1 0-.1-.2-.2-.2 0 .1.3.4.4.4 0-.1-.1-.2-.2-.2zm.2-.2.2.2c0 .1.1 0 .1-.1l-.3-.3h-.1c-.2.1 0 .2.1.2zm-.2-.1c-.1 0-.1-.1 0 0-.2 0 0 .1 0 0 0 .1 0 0 0 0zM16.4 31.2v.1c-.1.1-.2-.1-.2-.1h.2zM14.8 29.6s.1.1 0 .1c-.2.1-.2-.3 0-.1zM15.2 30c.1.1 0 .2-.1.1s0-.2.1-.1zM14.4 29.2v.1c-.1.1-.2-.1-.1-.2l.1.1zM16 30.8s.1.1 0 .1c-.1.1-.2-.1-.2-.1.1-.1.2-.1.2 0zM13.8 28.9s-.1-.1 0-.1c.1-.1.2.1.2.1h-.2zM15.6 30.4c.2.2-.3.2-.1 0 0-.1 0-.1.1 0zM12 26.9c.1.1.1.2 0 .2-.1.1-.4-.1-.2-.2 0-.1.1 0 .2 0zm-.2.1c-.1.1 0 .1 0 0 .2 0 .1-.1 0 0zM13.5 28.6c-.1.1-.4-.1-.2-.2.1-.1.3.1.2.2zm-.1-.1h-.1c-.1.1 0 .2.1.1.1 0 .1-.1 0-.1zM18.1 33.4c-.1-.1-.1-.2 0-.2.2-.1.4.1.2.2 0 .1-.2.1-.2 0zm.2-.2c-.2-.2-.2.3 0 .1v-.1zM16.8 31.9c-.2.2-.4-.1-.2-.2.1-.1.3.1.2.2zm0-.2h-.1c-.1.1.1.2.1.2v-.2zM15.2 24.6c0 .1-.1.1 0 0-.1.1-.3 0-.3-.1h.1c0 .1 0 .1.2.1 0-.1-.1-.2-.1-.2s0-.1.1 0c.1 0 .1.1 0 .2zM22.6 16.5l-.1-.1c-.1 0 0-.1 0-.1.1 0 .2-.1.3-.1l.1-.1c.1-.1.1-.1 0-.1v-.1s.1 0 .1-.1c.1 0 .2 0 .2.1.1.1.1.1 0 .2s.2.2.1.3h-.1c-.2-.2-.1-.1-.3 0-.1.1-.2.2-.2.3v.1h-.1c.1-.2 0-.3 0-.3zm.4-.3s.1-.1 0 0c.1-.1.1-.2.1-.2H23l-.2.2v.1c.1 0 .1-.1.2-.1zm.3-.4h-.1c-.1 0-.1 0 0 .1 0 .1.1.1.2.2h.1c-.2-.2-.2-.3-.2-.3zm-.7.5.1.1c.2 0 0-.1-.1-.1zm.8-.1c-.1-.1-.2-.2-.3-.4 0 .2.1.3.3.4zM17.6 26.7l.4-.4c.1-.1.1-.1.2 0l.6.6c.1.1.1.1 0 .2-.3.2-.6.9-1 .8-.1-.2-.8-.5-.6-.8.2-.1.3-.3.4-.4z"/><path d="m18.4 27.5.4-.4c.1-.1.1-.1.2 0l.5.5c.1.1.1.1 0 .2l-.8.8c-.3.2-.5-.4-.7-.5-.1-.1-.1-.1 0-.2.2-.1.3-.2.4-.4zM17.6 26.7l-.4.4c-.1.1-.1.1-.2 0l-.5-.5c-.1-.1-.1-.1 0-.2l.8-.8c.1-.1.1-.1.2 0l.5.5c.1.1.1.1 0 .2-.2.1-.3.3-.4.4zM16.8 25.9l-.4.4c-.1.1-.1.1-.2 0l-.4-.4c-.1-.1-.1-.1 0-.2l.8-.8c.1-.1.1-.1.2 0l.4.4c.1.1.1.1 0 .2s-.2.2-.2.3c-.1 0-.1.1-.2.1zM19.7 28.8c-.2.1-.4.6-.6.4l-.4-.4c-.1-.1-.1-.1 0-.2l.8-.8c.1-.1.1-.1.2 0 .1.2.5.3.4.5-.1.3-.2.4-.4.5zM18.9 21.6h.2c.1.1-.3.2-.2 0zM19.5 21.6v.1c-.1.1-.2 0-.2-.1.1-.1.2-.1.2 0zM19.5 20.7v.1h-.2v-.1h.2zM19 20.7c.1.2-.3.2-.2 0h.2zM23.4 17.4l.1-.1h.1c-.1.2-.1.2-.2.1zM19 33c.1 0 .1 0 0 0 0-.1.1-.1.1-.1s.1 0 .1.1c0 0 0 .1-.1.1 0 .1-.2 0-.1-.1z"/><path d="M19.4 33.3c-.1 0-.2 0-.3-.2.1 0 .1.1.2.1 0 0 .1-.1.1.1 0 0 0-.1 0 0-.1 0 0 0 0 0zM31.5 19.8s.1 0 0 0c.1.1.1.1 0 0 0 .1 0 .1 0 0-.1.1-.1 0 0 0zM25.1 23.3c-.5.5-1.2.5-1.6-.1 0 0-.1-.1-.1-.2s-.1-.1-.1-.1c-.3.1-.3.1-.3-.1.1-.2-.1-.7.2-.7.1 0 .2 0 .2-.1.1-.2.3-.4.6-.4.4-.1.7 0 1 .3.3.3.4.6.3 1 0 .1-.1.3-.2.4zm-.6-1.7c.2.1.3.1.4.2l.2.2c-.1-.2-.2-.3-.4-.3 0-.1-.1-.1-.2-.1h-.2c-.3 0-.5.1-.7.2-.1.1-.2.2-.2.3.2-.2.4-.4.7-.4.2-.2.3-.1.4-.1zm.7 1.1H25c-.1 0-.1 0-.1-.1s0-.1.1-.1h.2c.1 0 .1 0 .1-.1-.1-.4-.5-.8-1-.7-.3 0-.5.2-.7.4.1 0 .2 0 .2.2v.6c0 .1 0 .1-.1.2h-.1c.2.3.6.5 1 .5.3-.2.6-.5.6-.9zm-1.9-.6h-.1s-.1 0-.1.1v.6c0 .1.1.1.2.1h-.1s-.1 0-.1-.1h.1c.1 0 .1 0 .1-.1l-.1-.1c-.1 0-.1 0-.1-.1h.1c.1 0 .1-.1 0-.1s-.1 0 0-.1l.1-.1v-.1zm.3.7v-.6c0-.1-.2-.2-.2 0 .1 0 .1 0 .1.1v.2s-.1.1 0 .1V22.9c0-.1.1-.1.1-.1zm.5.8c.4.1.7 0 1-.3.2-.1.3-.5.2-.6 0 .5-.6 1-1.2.9zm-.7-.8v.1h.1v-.1c0 .1 0 .1-.1 0zm0 .2c.1.2.2.3.4.4-.2 0-.3-.2-.4-.4zm0-.2s-.1 0 0 0c-.1 0-.1.1 0 .1v-.1zM23.6 20.7l-.2-.2c0-.1-.1-.1-.2-.1s-.1 0-.1-.1v-.6c0-.2.3-.1.4-.3.3-.4.6-.5 1.1-.4.5.1.9.6.9 1.1 0 .3-.1.5-.3.7-.1.1-.2.1-.2.2-.4.2-.8.2-1.2-.1-.2-.1-.2-.2-.2-.2zm-.4-.7s0 .1.1.1V20h-.1c0-.1 0-.1.1-.2.1 0 .1-.1 0-.1 0 0-.1 0-.1-.1 0 0 0-.1.1-.1s.1-.1.1-.1h-.1v.7c0 .1 0 .1.2.1-.1 0-.1 0-.1-.1-.2 0-.2 0-.2-.1zm2.1-.2c-.1-.5-.5-.9-1-.8-.3 0-.5.2-.7.4-.1 0 0 .1 0 .1.1 0 .1 0 .1.2v.6c0 .1 0 .1-.1.1h-.1c.1.3.5.5 1 .5.5-.1.8-.5.8-.8h-.2c-.1 0-.1 0-.1-.1s0-.1.1-.1c0-.1.1-.1.2-.1zm-1.9.6c.2.5.8.6 1.3.5.5-.2.7-.8.6-1.1 0 .6-.4 1-.7 1.1-.3.1-.8 0-1.2-.5zm.1-.5h.1s.1 0 .1-.1v-.2c0-.1 0-.1-.1-.1 0 0 .1 0 .1.1v.1s0 .1-.1.1-.1 0-.1.1zm.9-1c.4.1.7.3.9.6-.1-.2-.5-.6-.9-.6zm-.9.5c.3-.3.2-.3.6-.5-.3.1-.5.2-.6.5zm.2.6c-.1-.1-.1.1-.1.2h.1V20zm0 .2s-.3 0-.1.1h.1v-.1zm-.3-.7s0 .1 0 0c0 .1 0 .1 0 0 .1.1.1 0 0 0zm0 .4c0-.1 0-.1 0 0-.1 0-.1.1 0 .1s.1-.1 0-.1zm0 .3c-.1.1 0 .2 0 0 .1.1 0 .1 0 0z"/><path d="M26.6 20.4c0 .1 0 .1 0 0 0 .2.2.3.2.4 0 0 .1.1.1 0 .1 0 .1 0 .1.1.1.1.1.3.1.5 0 .1 0 .2-.1.3 0 0 0 .1-.1.1h-.1l-.2.2-.1.1s0 .1-.1.1c-.3.1-.5.1-.8 0 0 0-.1 0-.1-.1V22c-.1-.1-.1-.2-.2-.2s-.1 0-.2-.1c-.1-.3-.1-.5 0-.8 0 0 0-.1.1-.1h.2l.2-.2v-.2c.4-.1.7-.1 1 0zm-.9 1.5s.1.1.2.1.1.1.2.1.2 0 .3-.1c.1 0 .1-.1.2-.1s.1-.1.2-.2c0 0 0-.1.1-.1s.1-.1.1-.2V21s-.1-.1 0-.1v-.1l-.3-.3H26.4c0 .1-.1.1-.1 0-.1-.1-.1 0-.2 0 0-.1-.1 0-.1 0-.1 0-.1 0-.1.1-.1 0-.1.1-.2.2-.1 0-.1.1-.1.2s-.1.2 0 .3v.2c0 .1 0 .1.1.2 0 0 .1 0 0 .1-.1-.1-.1 0 0 .1-.1-.1-.1-.1 0 0zM22.6 22.7c-.4.4-1.1-.2-.6-.6.2-.2.5-.2.6 0 .2.2.2.4 0 .6zm-.4-.5c-.1.1-.1.2 0 .3.1.1.2.1.3 0 .1-.1.1-.3 0-.3-.1-.1-.3-.1-.3 0zm0-.2s0 .1 0 0c.1.1.1.1.2.1V22h-.2zm.2.7h-.2v.1c.1 0 .2 0 .2-.1 0 .1 0 .1 0 0 .1 0 0 0 0 0zm-.4-.6c0 .1 0 .1 0 0 0 .1-.1.1 0 .1h.1c0 .1 0 0-.1-.1.1 0 0 0 0 0zm0 .5c.1 0 .1 0 0 0 .1 0 .1-.1 0-.1h-.1s.1 0 .1.1zm.7-.1s-.1-.1 0 0c-.1 0-.1.1-.1.1h.1v-.1zm0-.2s0-.1 0 0c0-.1 0-.1 0 0 0-.1 0-.1-.1-.1h-.1c.1 0 .1.1.2.1zM21.9 21.8c.1-.1.5 0 .2.1 0 0-.1.1-.1 0h-.1v-.1zM26.6 20.1c-.1 0-.1-.1 0 0 0-.1 0-.1.1-.1h.1s.1 0 .1.1c-.1 0-.3.1-.3 0zM26.8 22.7s-.1.1-.1 0c-.1.1-.2-.1-.1-.1 0 0 .1-.1.1 0 0-.1.1 0 .1.1 0-.1 0 0 0 0zM22 20.5h.3-.1c-.1.1-.2.1-.2 0zM16.4 29c-.1 0-.1-.1 0 0-.1-.2-.1-.2-.1-.3v.1c0 .1.1.1.2.2h.1s.1 0 .1.1-.1.1-.2 0c-.1 0-.1-.1-.1-.1z"/></svg>