<svg version="1.2" baseProfile="tiny" xmlns="http://www.w3.org/2000/svg" viewBox="0 0 45 45" overflow="visible" xml:space="preserve"><path fill="none" d="M0 0h45v45H0z"/><path fill="none" d="M9 18.3h27v9H9z"/><path fill="#ED2224" d="M15.6 19.6h3.6v1.2h-2.1v1.4H19v1.2h-1.9v2.7h-1.5v-6.5zM20.8 19.6h3.6v1.2h-2.1v1.4h1.9v1.2h-1.9v2.7h-1.5v-6.5zM29.4 23.4h-2V25h2.2l-.2 1.2H26v-6.6h3.6v1.2h-2.1v1.3h2v1.3z"/><path fill="#F6EB16" d="M30 7.2c-.1-.2.2-.4.4-.4v.3c-.2.1-.4.1-.4.1zM21.3 6.9h.6s-.1.1-.1.2c-.1.1-.1.2-.2.3-.1 0-.2.1-.3.1v-.6zM20.2 7.9c-.3.1-.3-.5 0-.3v.3zM33.7 7.5c.2-.1.3 0 .2.2-.2.1-.3 0-.2-.2zM12.1 7.8h.3c0 .1-.1.2-.1.3 0 .2-.1.3-.1.5h-.1v-.8zM21.8 7.8c.1.1 0 0 0 0zM5.4 8.7c-.2-.1-.2-.2 0-.4.2 0 .3.1.3.3-.1 0-.2.1-.3.1zM30.8 8.6c.1 0 .3-.1.4-.1l-.2.1-.1.1c-.1.2-.3.4-.4.6.1 0 .2.1.3.1-.3.1-.5-.2-.7-.3.2-.2.4-.5.7-.5zM14.1 8.8l.3-.3c0 .1.1.2.1.3h-.2v.6l.1.2c0 .1.1.3.1.4h-.3c-.2.5-.4 1-.4 1.6H14.1c-.1.2-.3.4-.4.5h.4v.3c-.1 0-.2 0-.2.1-.2.1-.4.2-.6.4H13c-.1 0-.3.1-.3.2s-.1.3-.1.4c0 .1-.1.2-.1.3-.1-.1-.1-.2-.2-.3 0-.1.1-.3.1-.4l.3-.3h.5l.3-.3v-.7c.2-.3.1-.7.2-1 0-.1.1-.2.1-.3.1-.3.1-.6.2-.9.1-.2.1-.5.1-.8zM26.3 8.6h.6c-.1.3-.3.5-.4.8 0 .2 0 .3-.2.3-.1.1-.1.3-.2.4v-.4c-.5.2-.7.7-.4 1.2-.2-.2-.4-.5-.6-.7v-.3h.5c.1-.3.3-.5.6-.6.1-.3.1-.5.1-.7zM5.4 8.8l.1.1s0-.1-.1-.1zM5.7 8.8v.1-.1zM12.2 9c.1 0 0 0 0 0zM20 9.4c0-.3.2-.5.5-.6v.4h-.3c.1.2.2.4.4.6-.3-.1-.4-.3-.6-.4zM23.1 9.1c.2-.1.4-.1.6-.2 0 .1 0 .3-.1.4-.2.1-.4.1-.6.2v.4c-.1-.1-.4-.2-.2-.4.1-.1.2-.3.3-.4zM9.2 9c.4.2.7.5.9.8-.2-.2-.5-.4-.7-.5 0 .5-.3.9-.1 1.4l-.3-.3c0-.2 0-.5.2-.7V9zM27.7 9.5c.2-.1.4-.3.6-.5v.8h-.4l-.2-.2-.4.4h-.6c.1.2.1.4.2.6-.4 0-.5-.4-.5-.7.2-.2.4-.2.6-.2v-.3c.3.1.5.1.7.1zM20.7 9.2s0 .1 0 0c0 .1 0 0 0 0zM20.9 9.5h.8v.3h-.5c-.2-.1-.3-.3-.3-.3zM29.1 9.7c.2 0 .4-.1.7-.1v.2h-.4c-.2.2-.4.4-.5.6h.3v.1c-.3.1-.6.3-.8.5h-.5c-.1.2-.1.4-.2.6-.1-.1-.2-.2-.3-.2v-.7c.2-.3.4-.5.6-.7-.1.1-.2.3-.2.4h.6c.2-.3.3-.7.7-.7zM20.7 9.8c0 .1 0 0 0 0zM10.1 9.9s0 .1 0 0zM21.1 10h.2c0 .1 0 .2.1.2-.2.1-.3.1-.3-.2zM36.6 10.4zM21.6 10.7zM21.8 10.7c.2 0 .2.3.2.5-.2 0-.5-.3-.2-.5zM14.3 10.8zM36.4 10.7h.2v.1l-.1.1-.1-.1v-.1zM19.3 11.1c.2-.1.5-.2.7 0v.1c0 .1-.1.3-.1.4v.1c-.1-.2-.2-.3-.3-.5h-.2v-.1z"/><path fill="#F6EB16" d="m22 11.2.2-.1V11.7c0 .2-.1.4-.1.6h-.7V12c-.2.1-.5 0-.7.2 0 .2 0 .5-.1.7-.1.2-.4.2-.5.2-.1.2-.1.3-.1.5h-.2v-.5c0-.1.1-.3.2-.4h.3c0-.1.1-.3.2-.3-.1-.3-.2-.5-.2-.8h.1c.3 0 .6 0 .8.1.2-.1.5-.1.8-.1-.1-.1 0-.2 0-.4zM28.3 11.5h.9v.3c.1 0 .3 0 .4.1l-.1.1c-.3.2-.7.2-1 .2l-.3.3.3.6c-.5-.2-.5-.7-.3-1.2h.3c-.2-.2-.2-.4-.2-.4zM29.8 12.4l.1-.1v.4l.3.3c-.3 0-.5.1-.8.2v.6c-.1.4.1.7.6.7v.4c-.2 0-.7.4-.6 0 .1 0 .2-.1.2-.2v-.1c-.3-.2-.4-.5-.4-.8-.3.1-.5.2-.7.4-.1.2-.3.3-.4.5.2.1.4.1.7.2-.1.4-.1.7-.2 1.1v.1h-.3c0-.4 0-.7.1-1-.1-.2-.4-.4-.5-.6.1-.1.1-.3.2-.5l.3-.6c.3.1.5.2.8.2-.1-.3.1-.6-.2-.8.3-.1.5-.3.8-.4zM10.1 12.4c.4.2.8.4 1.1.5v.1h-.4c-.1-.1-.2-.3-.3-.3-.4.1-.7.3-1.1.5v.4c-.2-.2-.4-.3-.6-.5.1 0 .3.1.4.2v-.4c.1 0 .3-.1.4-.2h.5c-.1-.1 0-.2 0-.3zM7.7 12.5l.3.3v.8c-.1 0-.3-.1-.4-.1.1-.1.2-.3.3-.4-.1-.2-.1-.4-.2-.6zM5.5 13c.2 0 .3.1.2.3-.1 0-.2.1-.3.1-.3 0-.1-.4.1-.4zM6.9 13c.2.1.4.1.6.2 0 0-.1.1-.1.2l-.1.1c-.1.4 0 .8.3 1-.3-.1-.5-.4-.7-.6v.2h-.1c-.3-.1-.6-.2-.8-.3v.4c.1.1.2.3.3.4-.4-.3-.7-.7-.9-1.1.1.1.3.4.5.2.3-.1.8.1 1-.2V13zM35.6 13.1l.3.3c0 .6 0 1.2-.3 1.7-.4.3-.6.8-.6 1.3h-.4c0-.1-.1-.2-.1-.3.2-.2.2-.5.2-.7h.2c.1-.2.2-.3.3-.5v-.3h.3c0-.4 0-.8.1-1.2v-.3zM17.8 13.7c.2-.2.3-.3.5-.4.1.1.3.2.4.2l-.1.1c-.2.1-.3.3-.5.4h-.4c-.4.3-.8.5-1.2.7 0 .4.1.8-.2 1.1H16c0-.1.1-.3.1-.4.1-.1.1-.3.2-.4-.1-.2-.1-.5-.1-.8h.5c.3-.2.5-.3.7-.6.1.1.3.1.4.1z"/><path fill="#F6EB16" d="M5.8 13.4s.1.1.1.2c-.1-.1-.1-.1-.1-.2zM14.6 14.5c.1-.3.3-.5.7-.6 0 .1 0 .3-.1.3H15c-.1.2-.2.3-.4.5v.4h-.1c-.1-.2-.1-.4-.2-.6.1.1.3.1.3 0zM9.2 14.3l.6.9v.5h-.7l.2-.1h.2c0-.5-.2-.9-.3-1.3zM13 14.3c.2.2.1.4-.1.4 0-.1.1-.3.1-.4zM39.3 14.9c-.3.1-.3-.6 0-.5.1.2.1.4 0 .5zM7.7 14.6c.2.1.4.3.6.4v.4c.1.1.1.3.2.4-.5.3-.8.8-1.3 1v.5h-.3v-.6h.2c.2-.4.5-.7.7-1.1H8c0-.3.1-.8-.3-1zM12.7 14.7s0-.1 0 0c0-.1 0 0 0 0zM20.9 14.5c.5.2 1 .5 1.2 1-.1.2-.2.3-.4.4l-.2-.2v-.8h-.6v-.4zM12.7 14.8h.2c.1.2-.1.4-.3.4.1-.1.1-.3.1-.4zM36.5 14.8l.3.3c-.1 0-.2-.1-.3-.1v.6h-.3c0-.2-.1-.4-.1-.5.1-.1.2-.2.4-.3zM15 15.1zM33.6 15.2c.2-.1.4-.1.6-.2 0 .1-.1.2-.1.2-.2.3-.3.5-.5.7.1.3.3.6.3.9h-.1c0-.3-.2-.5-.5-.6v-.4l.3-.6zM8.9 15.2s.1 0 0 0c.1 0 0 0 0 0zM17.2 15.1c.3-.1.8 0 .7.4-.1.5-.7.3-1 .3l-.1-.2h.4l.4-.4c-.1.1-.3 0-.4-.1zM19.5 15.2c.2-.1.5-.1.7-.1l-.1.1s-.1.1-.2.1c-.2.1-.5.1-.7.2-.2-.1-.3-.2-.4-.3.3.1.5.1.7 0zM23 15.2c.2-.1.3 0 .2.2-.2 0-.3 0-.2-.2zM14 15.4c.3.2.5.3.8.5l.1.2c-.2-.1-.4-.3-.6-.4-.1.2-.1.4-.2.6h-.2v.3c-.1-.1-.2-.2-.3-.2V16h.3c-.1-.2 0-.4.1-.6zM23 15.6c.2-.1.3.2.2.4-.2 0-.3-.3-.2-.4zM26.8 16.5c-.1-.4.3-.6.6-.5 0 .4 0 .8-.5.8l.1-.2c.5.2.2-.6-.1-.1h-.1zM35.4 16.5c-.1-.2-.1-.5.1-.5.3 0 .2.6-.1.5zM18.5 16.2s.1-.1.2-.1c0 .2.2.4.2.6-.1.2-.2.3-.3.5-.3 0-.6.2-.6.5.1.2.3.3.4.5h.2v.1c-.2.1-.4.1-.6.2v.5h-.3v.3h-.3v.6c.2.2.4.4.6.5v.3c.1.2.2.3.3.5h.4c-.1.2-.3.3-.4.5-.2-.1-.3-.1-.5-.2h-.9c-.1-.1-.3-.2-.4-.3.4 0 .8 0 1.2.1.1 0 .3.1.4.1-.1-.3-.3-.6-.4-1l-.7-.7v-.6c.4-.4.8-.9.9-1.4-.1-.1-.3-.2-.3-.3v-.6c.2-.1.4-.1.5-.2.2-.1.3-.3.4-.4zM20.6 16.1h.4c.1.1.1.2.2.4-.1.2-.2.3-.3.5h-.2v.7h.3v.1c-.1.1-.3.1-.4.2-.2-.2-.2-.5-.2-.7h-.1v.4c-.1-.1-.3-.1-.4-.2v-.8c.1 0 .3.1.4.1.1.2.6.1.5-.2h-.3v-.1h.3c-.2-.2-.2-.3-.2-.4zM14.4 16.3s.1 0 0 0c.1 0 0 0 0 0zM21.5 16.6c.2-.4.5-.1.8 0 .2.1.4.1.6.1.1-.1.2-.3.3-.4.3.3.1.7.1 1-.3.1-.5.2-.8.3-.1-.2-.2-.4-.5-.5v-.2c-.2 0-.6 0-.5-.3zm.6.3c-.1.2.2.5.4.4 0-.2-.2-.5-.4-.4zM19.4 16.6c.2.1.2.2 0 .3-.3-.1-.2-.2 0-.3zM29.4 17.3c-.2 0-.3-.6 0-.5 0 .1.1.3.1.4l-.1.1zM30.6 17.2c.1-.1.2-.2.3-.2 0 .1.1.3.2.4 0 0-.1.1-.1.2v.6h-.1v-.3c-.3-.3-.3-.5-.3-.7zM27.1 17.1c.2.1.4.3.6.4 0 .4-.1.8.1 1.2.1.5-.1 1-.2 1.5-.2.2-.1.5 0 .7-.1.1-.2.1-.4.1.2-.3.1-.6.2-1h-.3v-.2c.2-.1.4-.1.6-.3 0-.6-.5-1.1-.1-1.7h-.4l-.8.8c.1-.1.1-.3.2-.4.4-.2.9-.7.5-1.1zM32.7 17.3c.3.1.5.3.6.5-.1-.1-.3-.2-.3-.3 0 .3.1.6.2.8l-.4-.4c-.2-.1-.1-.3-.1-.6zM7.6 17.7c.2.1.4.3.6.4v.4h-.6v.4c.1.1.3.2.3.3-.1.2-.1.3-.2.5-.1 0-.2.1-.3.1v-.9h-.3v-.4c.2-.1.4-.1.6-.2 0-.3 0-.5-.1-.6zM21.3 17.8c.2 0 .3 0 .2.2-.2.1-.3 0-.2-.2zM22.4 18.2c0-.2 0-.3.2-.2.1.2 0 .2-.2.2zM15.6 18.1c.2-.1.3.2.4.3h-.4c.1.3.1.5.2.8-.2-.2-.3-.4-.4-.5 0-.3 0-.5.2-.6zM24.2 18.2c.2.4.6.5.9.4.1.1.3.2.4.3h.4c.1-.1.2-.2.4-.3v.3l-.3.3c-.2.1-.4.1-.6.2l-.3-.3c-.1 0-.3 0-.4-.1-.2 0-.5-.1-.7-.1-.2.3-.4.5-.7.6l-.5-.5h-.7c-.1-.4.3-.7.7-.5.3.1.5.2.6.5.2-.1.3-.1.5-.2v-.2h.3v-.4zM30.9 18.2c.2 0 .2.3.3.4-.2.1-.4-.2-.3-.4zM28 19c-.1-.3.5-.7.5-.3-.1.1-.3.3-.5.3zM21.5 19.1c-.1-.2.2-.4.4-.2.1.1-.2.3-.4.2zM29.5 18.8h.9v.3h.3v.4h-.6v-.4h-.6v-.3zM39.9 18.8h.6v.3h-.3v.3h-.3v-.6zM14 19c.2-.1.3-.1.3.1-.1.1-.3 0-.3-.1zM30.9 19.4c.1-.1.4.1.4.2-.1.1-.4 0-.4-.2zM37.9 20.1c.3-.2.5-.5.8-.8.1 0 .3.1.4.2v.2h-.4c-.2.2-.3.4-.5.7v.3c.1 0 .2.1.3.2l.1.2c-.2-.1-.4-.3-.6-.4-.1-.2-.1-.4-.1-.6zM11.7 20.2c.2.1.3.2.4.3-.1.2-.3.5-.5.2-.2-.1.1-.4.1-.5zM25.2 20.6c0 .1.1.3.1.3.3-.1.5-.2.8-.3-.2.2-.4.4-.5.6h-.4c-.1-.2-.1-.4 0-.6zM38.9 20.8h.8l-.1.1c-.5.2-.4.7-.2 1h-.3v-.5c-.1-.1-.2-.2-.2-.3-.1-.1-.1-.2 0-.3zM30.8 21.1h1.3v.3h-.9l.3.3c-.2-.1-.4-.2-.7-.3v-.3zM19.3 21.4c.2-.2.4-.2.6 0v.3c-.1 0-.2.1-.2.2-.1 0-.3-.1-.4-.2v-.3zM32.4 21.7c.2 0 .6 0 .5.3-.2 0-.5-.1-.5-.3zM32.8 22.4c.1 0 0 0 0 0zM33.1 22.5c.1.1 0 0 0 0zM31.3 22.7c.1.2.2.3.2.5h-.2c0 .1.1.3.1.3-.1-.1-.4-.1-.4-.3 0-.2.1-.3.3-.5zM33.3 22.7c.1.2.2.3.2.5-.3.2-.4-.3-.2-.5zM35.3 22.8h.2c0 .2.1.4.2.6h-.4v-.6zM39.7 22.9c.2 0 .3 0 .2.2-.2.1-.3 0-.2-.2zM6.8 24.5c-.3.2-.3-.5 0-.3v.3zM30.1 24.7c.2-.3.5-.2.8 0l-.1.1c-.3-.1-.3.2-.2.4-.2-.2-.3-.4-.5-.5zM31.9 25.4c.2.2.3.4.4.7l-.3-.3v1.1l-.1.2v-1.7zM34.9 25.8c-.1-.3.6-.3.5 0-.1.2-.4.2-.5 0zM7.7 25.8c.3-.1.5.2.6.4l-.1.1c-.1.2 0 .4 0 .7-.1-.2-.2-.5-.2-.8-.1-.1-.2-.2-.3-.4zM12.3 26.4c-.2 0-.2-.5 0-.5.1.2.1.3 0 .5zM32.6 26.2c.1-.1.2-.2.3-.2 0 .1 0 .3-.1.4l-.1.2c-.1.1-.1.3-.2.4-.1-.1-.2-.4-.3-.5v-.1c.1.1.2.2.3.2.1-.1.1-.3.1-.4zM28.6 26.2h.2v.1h-.2v-.1zM15 26.6c.2.1.4.2.5.5h-.3v.7h-.1c-.1-.4-.1-.8-.1-1.2zM38.9 26.7h.5c.1.1.1.3.2.4-.1 0-.2.1-.3.2 0-.1.1-.2.1-.3-.2 0-.3 0-.3.3v.3h-.6c0-.4.2-.7.4-.9zM12.3 26.8c.2.1.5.3.3.6-.3.2-.5.4-.8.5-.1.3-.3.5-.6.6 0-.1-.1-.2-.1-.3.1 0 .3 0 .4-.1v-.5h.6v-.3c0-.2.1-.4.2-.5zM17.1 27h.5v.3c-.1.2-.3.4-.4.6-.2-.1-.4-.3-.4-.5.1-.1.2-.3.3-.4zM32.7 27.1zM6.1 27.1c.1.2.3.4.4.5 0 .2.1.5.2.7-.1-.2-.3-.4-.4-.5 0-.3-.1-.5-.2-.7zM32.3 27.2zM8.5 27.3c.1 0 0 0 0 0zM16 27.3c.1.2.1.4.1.6h-.2l-.3.9c0 .1-.1.2-.1.3-.1.2-.2.3-.3.5-.3 0-.6 0-.8.2 0 .3.1.7.2 1-.1.1-.3.2-.3.3 0 .2.1.3.1.5 0 .1 0 .2.1.3-.4-.4-.4-1.1-.2-1.6 0-.1-.1-.3-.1-.4.1-.2.3-.3.4-.5h.5v-.3h.2c.1-.2.2-.3.3-.5v-.5h-.3V28H15.6v-.3c.1.1.2.2.3.2 0-.3.1-.5.1-.6zM28.2 27.8h.6v.2c.2.1.3.2.5.4-.2-.1-.4-.2-.7-.3.1.3.1.5.2.8-.1-.1-.2-.2-.3-.2v-.5c0-.1-.1-.2-.3-.4zM29.8 27.8h.3v.5c-.2 0-.4.1-.6.1V28h.3c-.1 0 0-.1 0-.2zM33.5 27.8c.1.1.3.2.4.2-.1.1-.2.3-.2.4h-.2v-.6zM37 27.8h.7v.3c-.2 0-.5.1-.7.2l-.6.9v.3c-.4.3-.7.6-1.1.9h-.4v-.3h.3v-.3h.3v-.3h.3v-.3h.3v-.4c.3-.1.4-.3.5-.6.2 0 .3-.2.4-.4zM4.5 28.4c.2.1.4.1.5.2 0 0-.1.1-.1.2H5.2c.3.2.6.4.7.7h-.4v-.2h-.1c-.3-.2-.8-.4-.9-.9zM31.5 28.4h.2c.1.1.2.3.2.4h-.1c-.1.1-.2.1-.3.2-.1.2-.1.4-.3.5-.3.1-.6 0-.7-.3.1 0 .2.1.2.2.1 0 .3-.1.4-.2V29h.3c.1-.2.1-.4.1-.6zM34.6 28.4h.5v.2H35c-.3 0-.5.2-.4.5l.1.1c0 .1.1.3.1.4h-.1c-.2-.3-.4-.6-.5-.9.1 0 .2-.1.4-.3zM7.4 28.7c.3 0 .5.2.7.3.1 0 .3 0 .4.1.2.2.4 0 .6 0 .2.1.3.3.4.5-.1-.1-.2-.2-.3-.2-.1.1-.2.3-.3.3-.1-.2-.3-.3-.4-.5h-.4c0 .4 0 .8.1 1.2l.1.2h-.1c-.1-.3-.2-.5-.2-.7-.2-.3-.3-.6-.6-.9h.2c0-.1-.2-.3-.2-.3zM12.3 28.6h.4V30c-.2-.1-.4-.1-.6-.2l.1-.1.4-.4c-.1 0-.2-.1-.2-.2l.1-.1c-.1 0-.1-.2-.2-.4zM20.8 29.6c.4-.3.9-.6 1.4-.8v.4c-.5.3-.8.8-1.5 1 .1.1.1.3.2.4.3.1.4.3.5.5 0 .2.1.4.1.6h-.2c0-.3-.2-.6-.3-.9-.6 0-1.2.3-1.8.4-.2.2-.5.4-.7.6l-.3-.6h-.3c-.2-.2-.4-.4-.5-.6-.2.4-.5.6-.9.8-.2.1-.3.1-.5.2-.1-.2-.1-.5-.2-.7-.2.1-.4.1-.6.2v-.4l.6-.6c0 .1.1.2.2.3.1.3-.1.5-.1.8.2-.1.4-.1.5-.2.2 0 .3-.1.5-.1v-.6c.3.1.5.4.8.6.3-.3.5 0 .6.3h.3c.1-.1.3-.1.4-.2.1-.1.3-.2.4-.3.2.2.4 0 .7 0-.1-.2-.1-.3-.2-.5.1-.1.2-.3.2-.3.3-.1.5-.2.7-.3zM37.3 28.8c.1.1.2.2.3.2V29.8h-.1c0-.1-.1-.3-.2-.4v-.6zM29.1 29c.2.1.4.2.5.3 0 .4-.1.9-.2 1.3l.4.4c-.2-.1-.3-.2-.5-.3 0 .1-.1.3-.1.4 0-.1-.1-.2-.1-.3-.2-.1-.4-.2-.7-.3-.1.1-.3.2-.4.3v-.7c-.1 0-.3-.1-.4-.2.3-.1.4.1.6.3h.3v.3h.6v-.6c.3-.4.1-.7 0-.9zM24.4 29.3c.1-.1.3-.1.4-.2.1.2.3.4.4.6h-.3c.2-.4-.5-.3-.1 0l.1.1h-.3c-.1-.1-.2-.3-.2-.5zM34.9 29.2zM6.6 30.6c.2-.1.4-.1.6-.2v.3h.3v.1c-.2 0-.6-.1-.7.2v.9h-.3c-.2 0-.3.1-.5.1-.1.4-.2.7-.2 1.1-.2-.1-.4-.2-.6-.4.1-.1.1-.3.2-.4-.4-.1-.1-.3.1-.5.3 0 .5.1.8.2 0-.2.1-.3.1-.5s.1-.4.2-.6c-.1-.1 0-.3 0-.3zM37.6 30.4h.6v.4c-.1 0-.2.1-.2.2-.1-.3-.5-.1-.5.1h.4v.4h.3v.3h-.3v.3h-1.1c0 .2 0 .4-.1.6-.2.1-.5.2-.3.5l.1.1h-.3v-.6c.1-.1.3-.2.4-.4 0-.2-.1-.3-.1-.5.2-.1.4-.3.6-.4v-.5h.3v-.3h.3c-.1 0-.1-.1-.1-.2zM8.6 30.6c.3.2.4.6.5 1-.3.1-.5.1-.8.2V31.2c.1.1.2.2.3.2v-.8zM26.9 31l.3.3v.7c-.3.3-.6.7-.8 1.1.1.3.3.5.4.8-.1.1-.1.2-.2.3-.2.1-.3.1-.5.2-.1.2-.2.3-.3.5 0 0-.1.1-.2.1-.1-.2-.2-.4-.2-.6h.3c.1-.3.3-.5.6-.4v-.7H26V33h-.3v-.1c.2-.1.4-.1.6-.2v-.5c.2-.1.4-.2.6-.4V31z"/><path fill="#F6EB16" d="M20.8 31.2h.3v.6h-.4c-.1-.1-.2-.2-.2-.3h.3v-.3zM15.5 31.8c.1 0 .3-.1.3-.1v.4c.2.1.4.2.6.2-.2.4-.8.8-.5 1.2h.4c.1.3.3.6.4.9h.6c-.1.2-.1.3-.2.5 0 0 .1.1.1.2v.2c-.2-.1-.2-.4-.2-.7h-.6v.3h-.6v-.3h.2c0-.1.1-.3.2-.4v-.5h-.4c-.1-.2-.2-.3-.3-.5v-.4c-.1-.2-.2-.3-.3-.5h.4c0-.1-.1-.3-.1-.5zM28.6 32c.1.1.2.2.3.2v.7c-.3 0-.5-.1-.6-.3.1 0 .3.1.4.1-.1-.2-.1-.4-.1-.7zM37.6 32.4c.4-.1.7-.2 1.1 0v.3h-.5c-.1.1-.2.2-.2.3h-.3c-.1 0-.3.1-.4.2v.5H37v-.3c-.1 0-.3 0-.4-.1l.1-.1.1-.1c.3-.2.7-.4.8-.7zM6.6 32.8c.1-.4.4-.5.8-.5-.1.2-.2.4-.2.6.4.1.9.3 1.1-.1-.1-.2-.3-.3-.4-.4.1 0 .2 0 .3.1.1.2.3.4.4.6.1-.1.1-.2.2-.3.1 0 .2-.1.3-.1v.3h.3v.3l-.4-.4c-.1.3-.2.5-.3.8-.2-.1-.3-.1-.5-.2-.3-.1-.6-.2-1-.3.1.5.2 1 0 1.5h-.4v-.6h.3v-.8c-.1-.2-.3-.3-.5-.5zM38.4 33.5c.1-.3.2-.5.3-.8v.5c.2 0 .4-.1.5-.2.1.2.2.3.3.5l-.2-.1c-.2.1-.5.1-.9.1zM22.7 33.2c-.1-.3.5-.2.5 0-.2.1-.3.1-.5 0zM23.5 33.2h.4v.6h.3c-.1-.2-.1-.3-.2-.5.2.1.3.1.5.2v.8c-.1 0-.2-.1-.2-.1-.2-.2-.6-.1-.6.2h.5c-.1.1-.3.2-.5.2v.2h-.6v-.4c.2-.2.4-.4.6-.5 0-.2 0-.5-.2-.7zM18 33.5c.1.1.2.2.4.3.3-.2.6-.1 1-.1v.4c-.2 0-.5 0-.7.1-.3-.2-.6-.4-.7-.7z"/><path fill="#F6EB16" d="M38.2 33.5h.2v.2c-.2.1-.3.1-.2-.2zM38.5 33.9h.4c0 .2-.5.3-.4 0zM22 34.1c.3 0 .7 0 .6.4-.2.2-.5.2-.7.2v-.3h-.3c0 .4-.3.7-.7.6.1-.3.3-.5.6-.6.2-.2.4-.3.5-.3zM24.8 34.2c.2-.1.3 0 .2.2-.1.1-.2 0-.2-.2zM36.2 34.9h.6c.1.1.3.2.4.2-.1.2-.2.3-.4.4l.3-.3h-.9v.5c-.1-.1-.2-.2-.3-.2v-.3c0-.1.2-.2.3-.3zM32.1 35.8h.3c.1.2.1.4.2.6h-.5v-.6zM30.6 37.1l.7-.7c0 .1.1.3.2.3-.1.2-.3.4-.5.5-.1.1-.3 0-.4-.1zM28.6 38.2c-.1-.5.5-.5.9-.5v.1h-.2c-.1.1-.1.2-.2.4.1.1.2.3.2.4-.3-.1-.5-.3-.7-.4z"/><path fill="#ED2224" d="M21.8 7.3c0-.1.1-.2.2-.3.2.2.4.4.7.6 0 .2 0 .5-.1.7-.1-.2-.3-.3-.5-.4v-.2H21.8c-.1-.1-.1-.3 0-.4zM20.3 7.6s.1.1.2.1l-.1.1s-.1 0-.1-.2zM12.4 8l.2-.1c.1.3.2.8-.3 1h-.1v-.4c.1-.2.2-.4.2-.5zM5.5 8.5h.2l.1.1v.1h-.1l-.1-.1-.1-.1zM31.1 8.5l.1-.1h.2c.2.3 0 .6-.2.9h-.3c-.1 0-.2-.1-.3-.1.2-.2.3-.5.5-.7zM14.4 8.8H14.7c0 .3-.1.6-.3.8l-.1-.2c.1-.2.1-.4.1-.6zM20.2 9h.5c0 .1.1.2.2.2.1.1.2.2.2.3h.5c.3.1.1.4.1.6 0 .1.1.2.1.3l-.1.1h-.2c0-.1-.1-.3-.2-.4 0-.1 0-.2-.1-.2h-.5V9.6H20.4c.1-.2 0-.4-.2-.6zM9.5 9.1c.2.2.5.4.7.5v.2c.1.5-.4.7-.8.6-.2-.4 0-.8.1-1.3zM23.2 9.4c.2-.1.4-.1.6-.2 0 .2.1.5.2.7-.1.1-.2.3-.3.3-.2-.1-.3-.2-.5-.3v-.5zM26.6 9.3zM27.9 9.4l.2.2s.1.1.1.2c-.3.2-.5.4-.6.7-.1 0-.3 0-.4.1-.1-.2-.1-.4-.2-.6h.6c0-.3.1-.4.3-.6zM25.8 10.7c-.3-.5 0-1 .4-1.2v.4c0 .4-.2.6-.4.8zM29.5 9.6h.4c0 .2-.2.4-.3.6H29c.1-.2.3-.4.5-.6zM14.3 10h.3c0 .2 0 .4-.1.6-.1.3.1.7-.3.9H14c-.1-.4 0-1 .3-1.5zM18.4 10.3c.1 0 .1.1 0 0zM36.5 10.5c0-.1.1-.2.2-.2h.1v.3h-.2l-.1-.1zM7.6 10.9c-.1-.2 0-.4.1-.5.1.2.3.3.4.5 0 .3.1.5.3.7.1.4.2.9.4 1.3 0 .1.1.2.1.2.2.2.4.4.6.5v-.4c.3-.2.7-.4 1.1-.5.1.1.2.3.3.3h.4c0 .1.1.3.2.3 0 .1 0 .2-.1.3.1.2.2.3.3.5l.2.2c.1 0 .2-.1.2-.2v-.9c.1.1.2.3.3.5.1.1.1.2.2.3 0 .3.1.5.2.7v.5c.2 0 .3-.2.3-.4v-.2c.2 0 .2-.2.1-.4h-.1c-.1-.2-.3-.4-.4-.7 0-.1.1-.3.1-.4.1 0 .3-.1.3-.2h.3c.2-.1.4-.2.6-.4.1 0 .2 0 .2-.1l.2-.1c.2.1.4.3.6.4-.4 0-.6.3-.7.6 0 .1-.1.3-.1.4-.2.2-.3.5-.3.9-.2.2-.4.4-.5.6-.1.4-.2.8-.5 1-.1-.1-.2-.3-.2-.4-.3-.1-.6-.1-.9-.1-.4.1-.6-.3-.8-.5-.1 0-.3-.1-.4-.1-.1.5.3.9.2 1.5-.2.1-.4.3-.6.4-.2.3-.3.8-.6 1 0 .4.1.8.1 1.2.3.2.6.3.8.5v.3c.1.1.2.4 0 .5-.4-.1-.8-.1-1.1-.3-.2-.1-.4-.1-.5-.2-.3-.3-1.1-.1-1.1-.6.1-.1.2-.2.2-.4-.1-.1-.3-.2-.3-.3v-.4h.6v-.4c-.2-.2-.4-.3-.6-.5-.1-.1-.3-.1-.4-.2v-.6c.6-.2.8-.7 1.3-1-.1-.1-.1-.3-.2-.4v-.4c-.2-.2-.4-.3-.6-.4h-.1c-.3-.3-.4-.6-.3-1l.1-.1.2.1c.1.1.3.1.4.1v-.8l-.3-.3c-.2-.3-.1-.6-.1-.9l.2.1v-.5l-.2.1c0-.1.1-.3.2-.4l-.3.1zM9 15s0 .1 0 0c.1.1.3.3.3.4l-.2.1h.7V15c-.2-.3-.3-.6-.5-.9h-.1l-.1-.2c-.5.1-.2.8-.1 1.1zM20 11.4c0-.1.1-.3.1-.4.1.2.3.3.4.5v.1h-.1l-.4-.2zM22.3 11.3h.1c.1.3.5.7.2 1-.2-.1-.3-.1-.5-.2 0-.2.1-.4.1-.6.1-.1.1-.2.1-.2zM28.5 11.9c.4 0 .7 0 1-.2.1.2.2.4.4.5-.2.2-.5.3-.8.4-.2.1-.4.1-.7.1l-.3-.6c.1 0 .2-.1.4-.2zM20.8 12.1c.1-.2.4-.2.7-.2v.3c0 .5.1 1 .4 1.4-.3-.1-.5-.4-.8-.2-.3.2-.5.4-.7.6-.1-.1-.3-.2-.4-.2v-.2c0-.2.1-.3.1-.5.2-.1.4-.1.5-.2.1-.3.1-.6.2-.8zM35.4 11.8c.3.3.6.5.8.8 0 .6.1 1.1-.1 1.7-.1.2 0 .5 0 .7 0 .2.1.4.1.5h.3v-.6c.1 0 .2.1.3.1.2.1.3.3.4.5-.1.2-.3.3-.4.5-.2 0-.4 0-.5.2v.6c.5.1.7.6 1 .9h.3c.2.1.3.3.5.4 0 .3-.2.5-.3.7h-.5v-.3h-.8c-.1-.2-.2-.3-.3-.5-.1-.1-.2-.2-.2-.3-.2.1-.6.5-.8.2 0-.1-.1-.2-.1-.3-.3.1-.6.3-.9.4v-.6H34v-.7c0-.3-.2-.6-.3-.9.2-.2.4-.5.5-.7.1.1.2.2.3.2 0 .2.1.4.2.6 0 .1.1.2.1.3h.4c0-.5.1-1 .6-1.3.3-.5.4-1.1.3-1.7l-.3-.3c-.1-.1-.2-.3-.4-.3v-.4l.2.1-.2-.5zm.1 4.6c.3.1.4-.5.1-.5-.2 0-.2.3-.1.5zM29.6 13c.3-.1.5-.1.8-.2h.1v.4c-.3.1-.6.3-.9.4V13zM5.5 13.3c.1 0 .2-.1.3-.1l.1.1s.1.1.1.2v.1c-.2.2-.4-.1-.5-.3zM18.1 13.8c.1-.1.3-.3.5-.4h.2v.4c-.2.2-.3.6-.3.9l.4.4c.1.1.3.2.4.3.2-.1.5-.1.7-.2 0 0 .1-.1.2-.1.2.2.3.5 0 .6h-1.6c-.1 0-.2.1-.3.2.1 0 .3.1.4.1-.1.2-.2.3-.3.5-.2.1-.4.1-.5.2v.6c.1.1.3.2.3.3-.2.5-.5 1-.9 1.4v.6c.2.2.5.4.7.7.1.3.2.7.4 1-.1 0-.3-.1-.4-.1-.4-.1-.8-.1-1.2-.1-.2 0-.5-.1-.5-.4-.1 0-.3.1-.4.1 0-.3-.3-.4-.5-.3l.1-.2c-.1 0-.2.1-.3.1v-.8c-.2-.2-.4-.5-.6-.7v-.4c.1 0 .2.1.2.1 0-.3.1-.7.1-1 .3-.1.5-.1.8-.2 0-.3-.2-.7 0-1 .2-.1.5-.1.7-.2.1-.2.1-.3.2-.5h-.3c.2-.3.1-.7.2-1.1.4-.2.9-.4 1.2-.7.2 0 .3-.1.4-.1zm-1.2 1.7.1.2c.3 0 .9.2 1-.3.1-.4-.4-.5-.7-.4-.2.1-.3.4-.4.5zm-1.2 2.4c-.2.1-.2.3-.2.5.1.2.3.4.4.5.1 0 .2-.1.3-.2v-.6h-.1c-.1 0-.2-.2-.4-.2zM6.1 13.6c.3.1.5.2.7.3 0 .2-.1.4-.1.6h-.3l-.1-.1c-.1-.1-.2-.3-.3-.4.1-.1.1-.3.1-.4zM28.6 14c.2-.2.5-.3.7-.4.1.3.1.6.4.8v.1c-.1 0-.2.1-.2.2-.1 0-.2.1-.3.2 0 .4-.1.9-.6 1 0-.4.1-.8.2-1.1-.2-.1-.4-.1-.7-.2.2-.2.4-.4.5-.6zM15.1 14.1h.2c.2.3 0 .6-.2.8-.1 0-.3 0-.4.1v-.4c.2-.1.3-.3.4-.5zM14.2 16.1c.1-.2.1-.4.2-.6.2.1.4.3.6.4-.1.1-.2.4-.4.3-.2 0-.3-.1-.4-.1zM27 16.2c.3-.4.6.3.1.1l-.1-.1zM20.3 16.6c0-.1.1-.2.2-.2h.3c.1.3-.4.4-.5.2zM22.2 16.7c.2 0 .4.2.4.4-.2.1-.5-.2-.4-.4zM29.6 17.1s0 .1.1.1l-.1-.1zM31.1 17.2l.1-.1.4.4v.6c.2.3.5.5.5.8h-.6c-.1-.1-.2-.3-.3-.4 0-.2-.1-.4-.3-.4v-.7l.2-.2zM27.3 17.7h.4c-.3.6.2 1.1.1 1.7l-.6.3v.2h.3c0 .3 0 .7-.2 1H27c-.3.2-.6.5-.7.9-.1.2-.4 0-.5 0-.3-.1-.6.1-1 .1-.2-.2-.3-.5-.4-.7-.2.2-.5.3-.7.4-.1-.1-.2-.2-.3-.2-.1-.2-.2-.3-.4-.5-.2 0-.3 0-.5-.1-.3-.5-.4-1.2-.4-1.8h.7l.5.5c.3-.2.5-.4.7-.6.2 0 .5.1.7.1.1 0 .3 0 .4.1l.3.3c.2-.1.4-.1.6-.2l.3-.3v-.3c.5-.4.7-.7 1-.9zm-2 2.7c0 .2-.1.4-.1.6h.4c.2-.2.4-.4.5-.6-.1-.3-.7-.3-.8 0zM33 17.5c.1.1.3.2.3.3.2.2.3.4.4.6-.2.3-.5.1-.6-.1 0-.3-.1-.6-.1-.8zM28.2 18.9c.2-.1.3-.2.5-.3.2.1.3.2.4.3h-.9zM38.7 19.6h.5c-.1.3-.2.6-.3 1 0 .1-.1.3-.1.4-.1-.1-.3-.2-.4-.2-.1 0-.2-.1-.3-.2v-.3c.3-.2.5-.4.6-.7zM39.4 21.7c-.2-.4-.3-.9.2-1 .3.1.4.3.4.6-.1.1-.2.3-.3.5-.1 0-.2 0-.3-.1zM31.2 21.2h.9c.1 0 .2.1.3.1v.2c0 .2.3.3.5.3h.2c.3.3.5.5.9.8.2.3 0 .9-.4 1v-.4c0-.2-.1-.4-.2-.5l-.1-.2-.3-.3c-.1 0-.3 0-.4-.1-.4-.2-.7-.4-1-.7-.1 0-.3-.1-.4-.2zM31.3 23h.2c.1.1.1.3 0 .4h-.1c0-.1 0-.3-.1-.4zM30.7 25c0-.2 0-.5.2-.4.3.2.1.8-.2.4zM10.8 24.7c.2.1.3.3.5.4 0 .2.1.5.1.7.2.2.1.4 0 .7-.2 0-.4-.2-.5 0-.1.5.1 1 .3 1.5v.1c0 .1.1.2.1.3.3-.1.5-.3.6-.6.3-.2.5-.4.8-.5.2.2.3.4.4.7 0 .1-.1.3-.1.4.3.3.6.7.6 1.1.2.4-.1.9-.1 1.4-.3.1-.7.1-1 .2-.2-.1-.3-.2-.5-.3-.4.1-.9.2-1-.3h-.3c0 .3 0 .6-.1.9-.2-.1-.3-.2-.5-.3 0 0-.1.1-.2.1 0 .2.1.5.1.7.2.2.1.5.1.7-.3-.2-.6-.4-1-.5 0 .1-.1.3-.1.5-.1.1-.1.2-.2.3-.1-.2-.3-.4-.4-.6-.1 0-.2-.1-.3-.1h-.4c-.4 0-.7.1-.8.5 0 .1-.1.3-.1.3-.3.2-.6.2-.9 0 0-.4.1-.8.2-1.1.2 0 .3-.1.5-.1h.3v-.9c.1-.3.4-.2.7-.2.1 0 .2.1.2.1.3.1.4.5.6.7v.2c.3-.1.5-.1.8-.2 0-.4-.1-.8-.5-1l-.3-.3c-.1-.4-.1-.8-.1-1.2h.4c.1.2.3.3.4.5.1-.1.2-.3.3-.3.1.1.2.2.3.2.2.1.4.2.5.3 0-.1-.1-.2-.1-.3.1 0 .3.1.4.1 0-.1-.1-.2-.1-.3.3 0 .4-.3.3-.5l.2.1c0-.4-.1-.8-.2-1.2-.5-.2-.7-.6-.7-1.1.2-.1.3-.2.5-.3v-.6l.2.1c0-.3 0-.5-.1-.8l.2.1v-.3zm1.3 4.3v.3c0 .1.1.3.1.4l-.1.1c.2.1.4.1.6.2v-1.4h-.4c0 .1-.1.2-.2.4zM12.4 25.7h.3v.6h-.3c.1-.2.1-.4 0-.6zM32.2 25.6l.3.3v.4c.1.1.2.4.3.5.1-.1.1-.3.2-.4l.1-.2v.6s-.1.1-.2.1h-.1c-.1 0-.3.1-.4.2-.1-.1-.2-.3-.2-.3v-1.2zM29 26c.2-.1.4-.1.6 0-.1.2-.5.2-.6 0zM6.3 26.2c.1 0 .2 0 .3.1.2.2.4.4.7.6 0 .4-.1.7-.3 1 .2.2.3.5.5.7l.3.3h-.4c-.1-.3-.3-.5-.5-.6-.1-.2-.1-.5-.2-.7-.1-.2-.3-.4-.4-.5-.1-.1-.2-.3-.3-.4.2-.2.3-.3.3-.5zM8.4 26.9c0-.2-.2-.5 0-.7.4.1.5.7.3 1l-.1-.1-.2-.2zM39.1 27.1c0-.2.1-.3.3-.3 0 .1-.1.2-.1.3l-.1.1-.1-.1zM15.2 27h.3v.7h-.2c-.1-.2-.1-.5-.1-.7zM16 27.7h.4c0 .4 0 .7-.1 1.1l.2.2.4-.2c-.1.1-.2.3-.3.4l.3-.1c0 .1 0 .3.1.3-.2.3-.4.5-.6.8 0-.1-.1-.2-.2-.3l-.6.6v.4c.2-.1.4-.1.6-.2.1.2.1.5.2.7.2-.1.3-.1.5-.2.3-.2.7-.4.9-.8.2.2.4.4.5.6h.3l.3.6c.2-.2.5-.4.7-.6.6-.1 1.2-.4 1.8-.4.1.3.3.6.3.9v.2c-.2.2-.3.4-.3.7h-1.3c0-.1 0-.2.1-.3l-.4.1.3-.3c-.1 0-.3-.1-.4-.1v.1c-.5-.2-1.1.1-1.4.5-.1.3.1.5.2.7.1.3.4.5.6.7-.1.1-.3.2-.4.2 0 .2-.1.3-.1.5-.3.1-.6.4-.9.3 0 0-.1-.1-.1-.2.1-.2.1-.3.2-.5h-.6c-.1-.3-.2-.6-.4-.9h-.4c-.3-.5.3-.8.5-1.2-.2-.1-.4-.2-.6-.2v-.4c-.1 0-.3.1-.3.1h-.1c-.2.1-.4.1-.7.2-.1-.1-.3-.2-.3-.4 0-.1 0-.2-.1-.3 0-.2-.1-.3-.1-.5.1-.1.3-.2.3-.3-.1-.3-.2-.7-.2-1 .2-.2.5-.2.8-.2.1-.2.2-.3.3-.5 0-.1 0-.2.1-.3-.2.1-.1-.2 0-.5zm4.9 3.4v.3h-.3c.1.1.2.2.2.3h.4v-.6h-.3zM37.1 28.2c.2-.1.4-.2.7-.2h.1c0 .4.3.8.4 1.3-.2.1-.4.3-.6.4V29c-.1-.1-.2-.2-.3-.2-.2.1-.5.2-.6.4-.2.4-.2.8-.5 1.1 0 .2-.1.5-.1.7-.2-.1-.4 0-.5 0-.2-.1-.3-.1-.5-.1 0 0-.1.1-.2.1-.4-.2-.8-.4-1.2-.5.1-.2.3-.4.4-.5.2 0 .5 0 .7.1v.3h.4c.3-.3.7-.6 1.1-.9v-.3c.3-.4.5-.8.7-1zM28.8 28c.2.1.4.2.7.3h.1v.1c.2 0 .4-.1.6-.1h.1c.1.3.3.5.4.8.1.3.4.4.7.3.1-.2.2-.3.3-.5.1-.1.2-.1.3-.2.2.2.5.4.7.5l.2.2v.5h-.4c-.3-.2-.6-.1-.8.2-.2.3-.7.4-1.1.6 0 0-.1-.1-.2-.1l-.4.4-.1-.1-.4-.4c.1-.4.2-.9.2-1.3-.1-.1-.3-.2-.4-.3H29v-.1c-.1-.3-.1-.6-.2-.8zM4.9 28.7s.1-.1.1-.2l.1.1v.1h-.2zM34.6 29c-.1-.3.2-.5.4-.5 0 .1 0 .4-.1.5l-.3.1V29zM5.6 29.1l.1.1c-.1 0-.1 0-.1-.1zM24.9 29.6c-.4-.3.3-.5.1 0h-.1zM26.2 29.5h.5l-.1.2c.1 0 .4-.1.5-.1l-.1.2c.2 0 .4-.1.6-.1.1 0 .3.1.4.2v.7c.1-.1.3-.2.4-.3.2.1.5.2.7.3 0 .1.1.2.1.3.1.4.4.8.7 1.1-.1.1-.2.3-.3.4 0 .3 0 .6-.2.9-.2 0-.3 0-.5.1-.1.1-.2.2-.3.2.1.2.2.4.3.5l-.4.4H28l-.3.6c-.7 0-1.4 0-2-.3.1-.2.2-.3.3-.5.2-.1.3-.1.5-.2.1-.1.1-.2.2-.3-.1-.3-.3-.5-.4-.8.2-.4.5-.8.8-1.1v-.7l-.3-.3-.4-.4-.1.1c.1-.5 0-.8-.1-1.1zm2 3h.1c.2.2.4.3.6.3v-.7c-.1-.1-.2-.2-.3-.2v-.1c-.3 0-.3.4-.4.7zM37.5 30.9c0-.3.4-.4.5-.1l-.1.1h-.4zM38.3 32.5h.5v.1c-.1.3-.2.5-.3.8h-1.1V33c.1 0 .3-.1.4-.2h.3c0-.1.1-.2.2-.3zM36.4 33.1c-.2-.3.1-.4.3-.5 0 .1.1.3.2.4l-.1.1h-.4z"/><path fill="#ED2224" d="M8.8 33.5c.1-.3.2-.5.4-.8l.4.4.3.3.3.6c0 .2 0 .4-.1.5-.3 0-.8-.2-.9.2-.2.3.1.5.3.7h.3c.2.1.4.3.6.4.5 0 .9.2 1.3.2l-.1.3c.2-.2.4-.3.5-.6h.3v.4l-.3.3h-1.2c-.6 0-1.2-.3-1.8-.3-.3 0-.6-.2-.9-.3 0-.2 0-.3-.1-.5h-.2c.1-.3-.3-.5-.5-.7v-.1c.2-.5.1-1 0-1.5.3 0 .7.1 1 .3.1.1.3.1.4.2zM38.5 33.4c.3 0 .7 0 1-.1v.3c-.2.1-.4.2-.6.1h-.4V33.4zM23.8 34.3c0-.3.4-.4.6-.2 0 0-.1.1-.1.2h-.5zM36.2 35h.9l-.3.3-.3.3h-.4v-.1c.1-.1.1-.3.1-.5zM29.3 37.7h.2c.2 0 .3.2.3.4-.2.2-.3.3-.5.4-.1-.1-.2-.3-.2-.4.1-.1.2-.3.2-.4z"/></svg>