<svg version="1.2" baseProfile="tiny" xmlns="http://www.w3.org/2000/svg" viewBox="0 0 45 45" overflow="visible" xml:space="preserve"><path fill="#76A4B2" d="M-184.5-202.5h279v252h-279z"/><g fill="none" stroke="#000" stroke-width=".25" stroke-linecap="round" stroke-linejoin="round" stroke-miterlimit="10"><path d="M9.9 17.9c.4.4.7.8 1.1 1.1l1.9 1.9 4.3 4.3.4.4c.1-.2.3-.3.4-.4l.2.2c-.1.2-.3.3-.4.4M11.6 15c-.2-.2-.5-.4-.7-.7l.3-.3c.7-.7 1.3-1.4 2-2 .3-.3.5-.6.8-.8M17.5 17.9c-.2-.2-.3-.5-.5-.7-.1-.1-.1-.2 0-.3l.9-.9c.5-.5 1-.9 1.4-1.4.1-.1.2-.1.3 0 .1.1.2.1.3.2.2.1.3.2.5.3M11 16.7c.2.1.3.3.5.4l.8.8c.2.2.4.5.7.7l1.8 1.8.1.1M23.1 18.8c-.1-.2-.3-.1-.4-.1-.5.1-1.1.1-1.6.2h-.3c0 .2.1.2.2.2.7-.1 1.3-.2 2-.2.1 0 .2-.1.2-.2s0-.3.1-.4M22.7 12.9l-.3.3c0 .1.1.1.1.1l.3-.3 2.2 2.2M17 15.4c-.7-.8-1.5-1.5-2.2-2.2.1-.1.2-.3.3-.4.4-.3.7-.7 1-1l.9-.9.1-.1M15.5 19.5 17 18c.2-.2.2-.4.1-.6l-.3-.3c-.2-.2-.3-.4-.5-.5M11 17l1.8 1.8 1.6 1.6.3.3M11.8 16.1c.6-.6 1.2-1.2 1.7-1.8l1-1h.1M16.4 16.8l3.3-3.3M26.4 16c.2 0 .3.2.4.3l.2.2 2.3 2.3s0 0 0 0M23.2 19.8v-.1c.5-.1 1-.2 1.5-.2.2 0 .3-.1.4-.2.3.2.5.5.8.7.1.1 0 .2-.1.3M19.1 26.8c.4 0 .7.1 1.1.2.3.1.6.1.8.2l.3-.6c.1 0 .1.1.1.1"/><path d="m16.9 10.7.9.9c.5.4.9.9 1.3 1.3.2.1.3.3.5.4M16.4 9.8l-.7-.7.5-.5.9-.9c.1-.1.2-.1.3 0l.8.8.1.1M25.4 27.4c-.2 0-.3.2-.5.4l-.4.4c-.1.1-.1.2 0 .3l1 1c.2.2.2.2.4 0M19 18.2c0-.1.1-.1.1-.1l1.4-1.4.1-.1M19.5 9.6l.3.3 1.5 1.5c.1.1.2.1.2.2M16 19.5c-.3.2-.5.5-.8.7l-.3.3s0 0 0 0l1.7-1.7M17.1 20.1s0 0 0 0l1.7-1.7s0-.1.1-.1M31.6 25c.1.2.3.3.4.5l1.7-1.7c-.2-.2-.3-.4-.5-.5M17.6 25.4s0 0 0 0c-1.2-1.2-2.3-2.3-3.4-3.5l-.1-.1M27.1 29.6l1.7-1.7 1.8-1.8M20.9 16.3c0-.1.1-.2.2-.2l1.2-1.2.1-.1c-.1 0-.1 0-.2.1-.2.2-.4.4-.6.5l-.1.1M26.7 16.6s0 0 0 0c-.9-.9-1.8-1.8-2.7-2.6l-1.7-1.7-.8-.8M22.4 14.8c.3.2.6.5.9.8.3.3.7.6 1 .9.2.2.5.4.7.6M8.9 16.7l-.5-.5.1-.1 1.3-1.3c.2-.2.2-.2.4 0l.6.6M19.1 10.3c0 .1 0 .1 0 0 .3.3.4.5.7.7.4.3.7.7 1 1l.5.5v.1M29.2 27.3l.6-.6c.1-.1.2-.2.2-.3.1-.1.3-.2.4-.4.1-.1.2-.1.3 0 .1.1.3.1.4 0v-.1M10.5 16.5c.2.2.4.2.5 0l.9-.9c.4-.4.9-.9 1.4-1.3M24.8 24.1c.1-.1.1-.3.2-.4.1-.5-.3-1-1-.8-.6.2-.9.6-1.2 1.1-.1.2-.1.4 0 .6.2.4.6.5 1 .4.2-.1.3-.2.5-.4.1-.2.3-.3.5-.5M29.8 19.4l1.2 1.2.1.1M28.5 24.3c0 .1 0 .2.1.2.3.4.7.7 1 1.1.1.1.2.1.4 0M26.9 20.3c-.2.3-.2.3 0 .5l.6.6c.3-.1.3-.4.2-.6-.1-.1 0-.2.1-.2M23 31.3c0-.1-.1-.2-.2-.2-.1-.1-.2-.1-.2-.2-.1-.2-.4-.2-.5-.4-.1-.3-.4-.3-.6-.6 0-.1-.1-.1-.2-.2-.1 0-.2-.1-.2-.2l-.3-.3c-.1-.1-.1-.3-.3-.4-.2-.1-.3-.4-.6-.5l-.1-.1c0-.1-.1-.2-.2-.3-.2-.1-.3-.3-.5-.5H19M27 16.9c.1.2.3.3.5.5l.8.8"/><path d="M23.4 25.3c-.1.2-.1.2-.5.1-.6-.1-.8-.7-.7-1.2.1-.5.3-1 .7-1.4l.3-.3c.2-.2.5-.2.7-.3.2-.1.4-.1.5-.1M22.9 18.6c.1-.2.1-.4.1-.6.1-.5.2-1 .2-1.5M16 13c-.1 0-.1.1-.2 0v-.2c0-.1.1-.1.1-.2l.8-.8.1-.1c.1 0 .2 0 .2.2M32.2 21.9c.2 0 .2.1.3.2.1.1 0 .2-.1.2l-.5-.5-1.4-1.4c-.3-.2-.5-.5-.8-.7M16.4 13.4l.8-.8s.1-.1.1-.2c.1-.2 0-.3-.2-.3H17M24.7 28l.5.5c0 .1.3 0 .3 0 .2-.2.2-.3 0-.6l-.3-.3M17.1 17.1l1-1s0-.1.1-.1M19.7 17.2c.1-.1.2-.1.3-.3.1-.2.3-.3.4-.4l.4-.4c.2-.2.4-.3.6-.5 0 0 .1 0 .1-.1M19.6 9.5c.2.1.3.3.5.5.4.4.8.8 1.3 1.2.1.1.2.1.3.2.2.1.5.2.6.4l.2.2M13.3 17.2c.3-.3.6-.6.8-.9l.2-.2"/><path d="M21.3 25.7c-.2 0-.3 0-.5-.1-.1 0-.1 0-.2-.1-.1-.2-.3-.3-.5-.5-.1-.1-.1-.2 0-.3l.8-.8.7-.7c.2-.2.5-.5.8-.7.5-.5 1-.9 1.4-1.4V21M31.4 24.9c-.1-.2-.2-.3-.3-.4l-.7-.7 1.6-1.6M19 27.1l-1.3-1.3-.2-.2M16.3 20.6c.1 0 .1 0 .2-.1l.9-.9c.3-.3.7-.6 1-.9.1-.2.3-.3.4-.4l.4-.4.2-.2c.1-.1-.1-.1-.1-.2M25.5 27.1c-.1.1-.1.2 0 .3l.3.3c.2.2.4.4.5.6.1.1.2.1.2.1.1-.1.2 0 .2.1.3.3.3.3.6 0l1.2-1.2c.2-.2.2-.3 0-.5l-1.2-1.2s0 0 0 0c-.2-.2-.2-.2-.5 0l-.5.5M18.5 21.3l.9-.9.1-.1M18.5 21.3c-.2.1-.3.2-.4.4l-.3.3 1 1M18 10.1c0 .1.2.2.3.3.2.1.4.4.6.5l.8.8c.3.3.6.5.8.8l.7.7c.1.1.1.2.2.3.1 0 .1.1.2 0s.3-.2.4-.4M28 28.4c-.3.2-.6.5-.8.8l-1.1 1.1s-.1.1-.1.2c.1 0 .2-.1.2-.2l.7-.7c.4-.4.8-.7 1.1-1.2.3-.3.7-.6 1.1-1 .2-.2.4-.4.6-.7h.1M17.7 22l-1.1-1.1c.1-.2.3-.3.4-.4M26.4 16c-.1-.1-.2-.2-.3-.4-.4-.5-.9-.9-1.3-1.4-.2-.2-.4-.3-.5-.5l-.2-.2M21.1 16.6c.1 0 .2-.1.3-.2.4-.2.8-.1 1.1.2.3.2.4.5.4.9M19.5 22.5c.1.1.2 0 .3 0l.9-.9.1-.1M11.2 16.8c-.3.3-.6.6-.9 1 0 0-.1.1-.1.2l.3.3M28 23.2c.2 0 .2-.2.3-.3.2-.1.3-.3.5-.5.1-.1.2-.1.2 0 .2.2.3.4.5.5M28.3 18.2l.9.9M21.4 25.7s.1 0 0 0c.2-.2.2-.2.4 0l.6.6c.1.1.1.2 0 .3l-.1.1c-.2-.1-.4-.1-.6-.1.2.4.6.6.8 1l-.9.9c-.2.2-.3.3-.5.4-.1.1-.1.1 0 .2.5.6 1.1 1.1 1.6 1.7l.2.2c.1.1.1.1.3 0l1.3-1.3.2-.2M10.2 16.7c.3-.3.6-.6 1-.9.1-.1.1-.1.1-.2s.1-.2.2-.2.1-.1.2-.2M14.5 18.1c.3-.3.6-.6 1-.9M13.4 17.7c.3.1.4.4.6.5.2.1.3.3.5.4v.1c.1.1.1.1.2 0M19 18.2l1.4 1.4c.1.1.1.2.2.2"/><path d="M33 23.2c-.2-.3-.4-.5-.7-.7-.2-.2-.5-.4-.7-.7l-.6-.6-1-1M14.7 12.2c.1-.1.2-.3.3-.4.1-.2.3-.4.5-.6.1-.1.1-.1.2-.1l.3-.3c.2-.1.4-.2.4-.5 0 0 0-.1.1-.1.2-.1.3-.3.4-.5 0-.1.1-.1.2-.1.1-.1.2-.1.2-.3 0-.1.1-.2.1-.3M21.9 19.9v.2c.6-.1 1.1-.2 1.7-.3.1 0 .2 0 .3.1.1.2.3.3.4.5.1.1.1.1.2.1M24.3 32.1c0 .1.2.2.3.3 0 0 0 0 0 0 .1 0 .1.2.2.2s.1-.1.2-.2l.2-.2M16.8 14.2c0-.2-.2-.2-.3-.4-.2.2-.3.3-.5.4.1.1.1.2.3.3l.3.3v.1c.1.1.2.1.3 0 .1-.1.2-.1.3-.2v-.2c-.1-.1-.2-.2-.4-.3M15 15.5c-.3-.3-.7-.6-1-1l-.3-.3M17.1 14.1l.9-.9c.1-.1.1-.1 0-.2s-.1-.2-.2-.2M23.2 17.8c.1-.4.1-.9.2-1.3 0-.1 0-.2-.2-.1M20.7 25l1.2-1.2M23.4 22.4c0-.1 0-.1.1-.1l.9-.9M22.1 21.3c.2-.1.4-.1.6-.1.4 0 .7-.1 1.1-.2.2 0 .4 0 .6-.1.1-.1 0-.2-.1-.2M14.7 20.8c.1.1.2.1.2.1.3.1.6.3.9.3h.2c.3-.3.5-.6.8-.8 0 0 0 0 0 0M22.4 14.7c-.1-.4-.3-.7-.4-1 0 0 0-.1-.1-.1M23.4 27.8l.3-.3c.1.2.1.2 0 .3-.2.1-.1.1 0 .3.3.4.7.7 1.1 1.1l1.2 1.2h.1M9.2 17.5c.3.2.5.5.7.8.3.3.5.6.8.9l.9.9M25.8 26.6c.3.1.5.3.7.5.1-.1.2-.3.4-.4.1-.1.1-.1 0-.1-.1-.1-.1-.2-.2-.2-.1-.1-.1-.3-.2-.4M22.2 11.7c.2.3.5.5.7.7M13.5 13.9l-.3-.3.4-.4c.1-.1.1-.2.2-.2.1-.1 0-.1 0-.2l-.5-.5c-.1-.1-.1-.1-.2 0 0 .1.2.2.2.3.1.1.3.2.3.4"/><path d="M12.5 13.2c-.2-.2-.2-.2 0-.3.2-.2.4-.5.7-.7M14.7 12.8l1.5-1.5c.5-.4.9-.8 1.3-1.3.2-.1.1-.3.1-.4 0-.1-.1-.2-.3-.2M18.6 21.4s0 0 0 0c.4-.3.7-.6 1-.9 0 0 0-.1.1-.1 0-.1-.1-.1-.1-.1M23.6 20.8c-.5.1-1 .2-1.5.2 0 .1-.1.2 0 .3l.7.7M21.3 27.2c.4.1.8.2 1.1.2M26.7 18.6c-.1-.1-.2 0-.2.1v.2l.1.1c.1 0 .1 0 .1-.1.1-.1.1-.2 0-.3M28.4 20.5c.1.3.1.6.2.9 0 .1 0 .1.1 0l.1-.1 1.2-1.2s0 0 0 0c-.1-.2-.3-.3-.4-.4M10.4 16.3c.1-.2.2-.3.4-.4l.3-.3M15.9 21.2c.2.3.4.5.6.7.3.3.6.7.9 1l.6.6c.3.3.6.7.9 1 0 0 0 .1.1.1.4.1.7.1 1.1.2M13.8 17.4l.9-.9M9.2 17.5c-.1-.1-.1-.2 0-.3l.6.6c.1-.2.4-.3.4-.6M24 24.9c.1.3.4.4.6.6.2.2.4.3.5.6 0 .1.1.1.2.1h.2l.6-.6c.1-.1.1-.1 0-.2-.3-.3-.6-.7-1-1l-.3-.3M13.4 13.7l.5-.5.9-.9M25.4 19.5l.6-.6c.3.2.5.4.7.6 0 0 .1.1.1.2 0 .2.1.3.1.5 0 0 0 .1.1.1.3.2.5.5.7.7h.1M13.4 17h-.1c0-.1 0-.2.1-.3.3-.2.5-.5.7-.7.1-.1.2-.1.2 0M21.7 18.4c-.7-.1-1.2-.7-.9-1.5v-.1M25.3 32.2l1.2-1.2c-.1-.2-.3-.3-.5-.5"/><path d="M20.8 28.8c-.2-.2-.2-.2-.1-.6.2-.3.4-.7.6-1 .1-.2.1-.4.2-.5l.1-.1M26 18.9c0-.3-.2-.7-.2-1l-.1-.1c-.3-.2-.5-.5-.8-.7M15.8 14.2c0-.1 0-.1.1-.2.2-.1.3-.3.5-.4.1 0 0-.1.1-.2M26.2 23.6s-.1 0 0 0c.3.4.2.3.5 0l.3-.3c0-.1-.1-.1-.2-.2s-.2 0-.2 0l-.3.3c-.1.1-.2.2-.4.1 0 .3.1.4.4.4M19.7 9.3c.2.3.5.5.7.7.1.1.1.1.1.2.2.2.4.3.7.5l.3.3M22.1 26.5l-.6-.6c-.3-.3-.6-.5-.8-.9l-.1-.1c-.2 0-.3-.1-.5-.1M12.5 20.9c0-.1-.2-.2-.3-.3l-.3-.3M27.7 20.2c0 .1.1.1.2.1.3-.1.5-.1.8-.2.2-.1.4-.1.7-.2.1 0 .3-.1.4-.1 0-.1-.1-.2-.3-.2-.1 0-.1 0-.1-.1-.3-.2-.5-.5-.7-.8 0 0-.1 0 0 0M16 13.1c.3-.3.6-.6 1-.9l.2-.2M26.5 24.9c0-.2 0-.3.2-.5l.9-.9M17.7 9.9c.2-.2.4-.3.6-.6M10.4 17.3c.3-.2.5-.4.7-.7l.6-.6c.1-.1.2-.3.4-.4v-.1M18.9 15.3l.7-.7M25.9 17.9c.3 0 .7 0 1 .1"/><path d="M28.1 23.4c0 .1 0 .1-.1.2-.3.3-.6.6-.9.8l-.4.4c-.1.1-.1.2-.2.2s0 .1-.1.1c-.3-.1-.4-.4-.5-.7-.1-.1-.2-.3-.2-.4 0 0-.1-.1 0-.1M16.6 13.8c.2-.2.5-.4.7-.6l.3-.3.1-.1M21.4 12.5s-.1.1 0 .1c.2.1.3.3.4.4.1.1.2.1.3 0l.3-.3M13.9 21.6c-.1 0-.2-.1-.3-.2l-2.1-2.1c-.3-.3-.7-.6-1-1l-.1-.1M18.7 9.8c.3.2.5.4.8.6.3.2.6.5 1 .7M23.1 12.7c.2.2.4.3.5.5M28.7 18.4l.4.4c.1 0 .1.1.2.1s.3.3.3.3c0 .1 0 .1.1.1l.4.4M28.2 19.7c-.2-.1-.3 0-.4 0 0 0-.1 0-.1.1v.2c-.1 0-.1 0-.2.1 0 .1.1.2.2.1M25.1 19.9l.1-.1c.2.1.3.3.5.4M22.3 26.7c0 .1.2.2.2.3l.5.5s0 0 0 0M24.5 22.3c.5 0 .9.4.9.9 0 .4-.1.7-.2 1 0 .1-.1.1-.1.2M17 18.4c.2-.2.4-.3.5-.5 0 0 .1-.1.2-.1s.1-.1.2-.2M27.1 22.7c.4.2.8.3 1 .7M21.9 19.9c.3 0 .6-.1.9-.1v.1M19.7 21.7c.1 0 .2-.1.1-.2-.1-.2-.1-.3-.2-.5-.1.1-.2.1-.2.2M23.8 13.4c-.1 0-.1-.1-.2 0h-.1l-.4-.4c-.1-.1 0-.1-.1-.2M20.2 13.9c.1.2.3.2.5.2s.4 0 .5-.2c.1-.2.2-.2.4 0M18.8 17c.2.1.3.2.4.3 0 .1.1.1.2.1M16.1 19.4l.6-.6c.1-.1.2-.2.3-.2M20.6 19.8c-.1.1 0 .1 0 .1.3.3.5.6.8.8.2.2.3.4.5.5M28.6 21.4c-.3-.2-.5-.5-.8-.8M23.7 27.5c.1-.2.3-.3.4-.4.3-.3.7-.6 1-1"/><path d="m19.3 11.6 1.1 1.1c.3.4.7.7 1 1v.1M22.9 20.9c-.1-.2-.3-.4-.4-.5-.1-.1-.2-.1-.2-.3M19.7 15.8c.6-.7 1.3-1.3 2-2 .3-.3.5-.6.8-.9v-.1M26.6 16.6c-.1.2-.3.3-.4.4 0 .1.1.1.1.2l.5-.5M21.9 12.9c-.2-.2-.3-.4-.4-.5-.2-.3-.4-.6-.6-.8-.1-.2-.2-.3-.3-.4M9.9 16.5c.2-.1.3-.3.4-.5.1-.1.2-.3.4-.4.1-.1.2-.2.4-.2h.1M14.7 18.9c.2.2.4.5.6.7h.1M17.3 20.3l1.2-1.2c0-.1 0-.1.1-.1h.1c.1-.2.3-.3.5-.5M28.9 25.9l.1-.1c.1 0 .1-.1 0-.1-.1-.1-.2-.2-.2-.3M30.5 22.6c0-.1 0-.2.1-.3.1-.1.2-.1.3-.1M21.7 18.4c.3 0 .6-.1.8-.4 0-.1.1-.1.2-.2M23.3 25.5c.2.1.5 0 .7-.1.1 0 .2-.1.2-.1M19.6 14c.1-.2.4-.2.5.1M24.6 14.2c-.1 0-.1 0 0 0-.2-.1-.4-.3-.6-.5v-.1c.2-.2 0-.2-.1-.3v-.1M25 20.8c.1-.1.2 0 .2-.1.2 0 .3-.2.1-.4-.2-.2-.3-.5-.5-.7l.2-.2.6.6M28.7 24.1l.4.4c.1.1.2.2.3.2.2 0 .3-.2.2-.4-.1-.2-.2-.3-.4-.4-.1 0-.1-.1-.2 0l-.3.3M25.7 20.5c0 .1.1.2.1.3.1.1.1 0 .1-.1s-.1-.1-.2-.2c.1-.1.1-.1 0 0M20.5 28.5c-.1 0-.1-.1-.2-.1l.6-1.2M18.5 8.2c.1.1.3.2.3.3 0 .1.2.1.3.2.1 0 .1.1.2.2l.3.3M18.5 18.4c-.2-.3-.4-.5-.7-.7M26.1 16.2c.1.2.3.3.4.4M24.1 20.7c-.1-.2-.3-.3-.4-.4-.1-.1-.1-.1 0-.2s.1-.2.2-.2M18.6 17.7c.1 0 .2-.1.2-.2-.1-.1-.2-.1-.2.2M18.9 8.8c0-.1-.1-.2-.2-.3-.1-.1-.2-.2-.2-.3M17.7 10s0 0 0 0c.1.2.2.2.3.1l.6-.6s.1 0 .1-.1M15.2 15.8l.4.4M18.3 8.5c.2.1.3.3.4.4M19.2 22.5c.1.1.2 0 .3-.1l.6-.6.3-.3.1-.1c.1 0 .1-.1.2-.2M30.8 22.9c.3.1.4-.1.4-.3M23.9 19.8l.1-.1c.3 0 .5-.1.8-.1"/><path d="m18.1 9.1.1.1c.1.1.2.1.3 0l.3-.3s.1-.1.2 0c.2.1.2.1.2-.1M27.2 18c.2 0 .4.1.6 0M31.2 20.7c.2.1.2.3.4.3M21 22.1c.2.3.6.4.9.1.1-.1.2-.3.2-.5M24.8 28.1c.2-.1.2-.3.4-.4M22.5 27.5c.2 0 .4.1.6.1M17 18.5c0 .1 0 .1.1.2s.2.3.4.4M26.9 30.2c.1-.2.1-.2-.1-.4M23.2 30.9c0 .1.1.1.2.2l.7.7c.1.1.2.1.3.2 0 0 0 0 0 0 .1 0 .1-.1.1-.1M14.7 16.5c0-.3-.1-.3-.3-.3M27.7 20c.4-.1.8-.2 1.1-.3.2-.1.3-.1.5-.1v-.1M13.8 21.5c.2-.1.3-.3.5-.4M28.5 20.2c.2-.1.3-.1.5-.2M30 23.3c.1-.1.2-.3.4-.4.1-.1.1-.1.1-.3v-.1c.2-.1.3-.3.5-.4.2.1.3.2.2.3M19.7 21.7c-.1-.2-.2-.4-.2-.6M28.8 22.2c-.1-.1 0-.3-.1-.4v-.3M32.2 21.9c0-.1 0-.1-.1-.1s-.1-.1-.1-.1 0-.1-.1-.1c-.2-.1-.3-.4-.5-.5M30.4 19.9c0-.1-.1-.1-.2-.2s-.1-.1-.1-.2M32.1 24.6v-.1l.5-.5.1-.1c.1 0 .2-.1.2-.3M17.9 14.9v.1c.1 0 .2 0 .3-.1.3-.2.5-.5.8-.7l.1-.1c.1-.2 0-.2-.2-.2M13.9 21.5c.1-.1.2-.2.3-.2.1-.1.1-.2.2-.2.2-.2.4-.3.6-.5M12.8 13.6s0 0 0 0c0-.3-.2-.4-.3-.6M13.9 21.6c.1 0 .1-.1.2-.2s.1-.1.1 0M16.6 18.7l.2-.2c.1-.1.2-.1.3-.2.1-.1.1-.2.3-.2M20.8 11.4c.2.1.5.3.7.5.3.2.5.4.8.6M30.3 25.4c0 .1-.1.2-.2.2s-.2-.1-.3-.1c.1-.2.2-.2.3-.3h.1c.1.1.2.2.3.1.1-.1.1-.1 0-.3 0 0-.1 0-.1-.1M13.2 21.6l-.3-.3-.3-.3M17.2 11c-.1 0-.1.1 0 .2s.2.1.2 0M24.3 13.7l.3.3M23.4 12.8l.3.3"/><path d="M30.5 22.8c.1.1.2.1.4 0 .1-.1.1-.2.2-.2M11.7 16c.2.1.2.3.4.4M25.9 23.5c.1-.2.3-.3.4-.4l.4-.4c.1-.1.1-.1.3 0M22.4 30.5c.3.2.5.4.7.7 0 .1-.1.1-.2.2M15.4 21.9h.1c0-.2 0-.3-.2-.4-.1 0-.1 0-.1.1 0 .2.1.2.2.3M19.2 11.5l-.7-.7s0-.1-.1-.1M22.7 14.5c0-.1-.1-.2 0-.2.1-.1.2.1.2.1v.1c.1 0 .1.1 0 .2 0 .1-.1 0-.2 0 .1-.2.1-.2 0-.2M27.9 20.6h.4s.1 0 .1-.1c.1-.1.2-.3.1-.5M27.1 30h.1c0-.2-.1-.3-.2-.4M26.8 20.2l-.6-.6c-.1-.1-.1-.4-.1-.5M26.4 29.3s.1 0 .1-.1c.1-.1.1-.2 0-.3 0 0 0-.2-.1-.1-.1 0-.1.1-.2.1-.1.1-.2.1-.2.2-.1.1-.1.1-.1.2s.1.1.2.2c.1 0 .2 0 .2-.1 0 0 0-.1.1-.1M24.5 20.8c.2 0 .3 0 .5-.1 0 .1-.2.2-.2.3M31.4 25.2v.1c-.1.1 0 .3 0 .4 0 .1 0 .2-.2.2M14.1 11.3c.1.1.2.1.3.3 0 .1.1.1.2.1M15.7 15.8c.2.1.3.3.4.4M17.4 12.4c.2 0 .3 0 .3.2M19.5 9c.1.1.1.2.3.3M18.5 13.5c-.1 0-.1 0-.1.1l-.9.9c-.1.1 0 .2 0 .2.1.1.3.2.4.1l.9-.9M11.8 15c.1 0 .3-.1.3-.3v-.2M15.9 16.3l.3.3h.1M18.4 13.4c.1-.2 0-.3-.3-.3M19.5 17.6l.3-.3M11.4 19.8l.3.3M28 18.5c0-.1-.1-.3-.1-.5M17.1 14.2l.3.3M21.2 21c.1 0 .2-.2.3-.3M14.8 16.5c.2 0 .2.1.3.2M10.1 16.6c-.2.1-.2.3 0 .5l.2.2M14.2 17.7l.9-.9M17.6 9.1c.1 0 .2-.2.3-.1l.1-.1c0-.1.1-.2.2-.3M18.8 13.7c0-.2-.1-.2-.3-.3M17.9 10.2l.6.6M28.5 18c-.1-.1-.2-.2-.2-.3M26.2 30.3c.1.1.1 0 .2 0h.2M18.4 19.1c-.1-.1-.1-.1 0-.2.2-.2.2-.2.3-.1M13.4 17.1c0 .1.1.2.3.2M18 17.6l.3-.3c-.1-.2-.1 0-.2 0M31.2 25.8c0-.1-.1-.2-.1-.2-.1-.1-.1-.2 0-.2l.2-.2c.1-.1.1-.1.1-.2M14.9 12.2l.2.2"/><path d="M9.6 17.1c.2 0 .3-.1.3-.2s.1-.2.1-.4M25.4 20.4l.7-.7M17 15.7c0-.1.1-.1.1 0 .1.1.1.2.2.2M32.7 23.8c.1-.2.1-.2.3-.1M13.9 21.9c.1-.1.3-.2.4-.4M10.9 19.3l.2.2M9.9 18.3l.3.3M26 25.2l.2-.2M31.5 25c.1 0 .2-.1.2-.1 0-.1.1-.1.1-.1M14.9 18.6c.1.2.1.2.3.1l.8-.8.1-.1c0-.1 0-.2-.1-.2M19.8 10s-.1.1 0 .1c.1.2.3.3.4.5.1.1.2.2.3.4M18.5 19.2s0 0 0 0c.1.1.1 0 .3-.1.1-.1.1-.1 0-.2M14.3 11.4c.2 0 .3 0 .4.2.1.1.1.1.2.1M21.3 10.9c0 .1.2.2.2.3M26.8 16.6c.1.2.3.3.4.4h.1M19.8 25.7c.1 0 .1 0 .2-.1-.1-.2-.1-.2-.4-.2 0 .1.1.2.2.3M11.2 15.1c0-.1 0-.1-.1-.2s-.1-.2 0-.3M15.2 11l.2.2M26.6 30c.1.1.1.2.3.2M17.2 20.6l.2-.2c0-.1-.2-.1-.3-.2-.1 0-.1.1-.1.2.1.1.1.2.2.2M31.1 25.9c-.1 0-.2-.1-.2-.2s.1-.2.2-.2M22.1 21.7c0-.3-.2-.4-.5-.5M15.1 11.1c.1.1.1.2.3.2M13.5 21.8c.1.1.2.2.3.2.1 0 .2.2.2.3M29.7 19.1c.1.1.2.1.2.3-.2-.1-.2-.2-.2-.3M12.2 16.4c.1.2.2.3.4.5s.4.4.5.6c.1.1.1.1.2 0l.2.2c.1 0 .1.1 0 .2M30.1 25.1c.1-.1.1-.2.2-.2M19.1 23.1s-.1-.1-.1-.2c.2-.1.2-.3.3-.5M16.7 13.8c0 .1.1.2.2.2M28.3 19.8c-.1-.1-.1-.2-.1-.3M18.5 9.8s0 0 0 0c.2.2.4.4.5.6M30.8 25.6c.1-.1.2-.1.2-.2M15.6 17.2c.1 0 .2.1.2.2M20.2 19.5l-.7.7-.3.3-.7.7c-.1.1 0 .2.1.3 0 0 0 0 0 0 .1-.1.2-.1.3-.3M15.8 21.2c.1-.1.2-.2.2-.4M28.1 20.2c0 .2-.1.2-.2.4-.1-.1-.1-.2-.1-.3M16.1 13.2c0 .1.1.2.2.2M22.5 12.8c.1-.1 0-.2 0-.3l-.6-.6-.2-.2M15.3 16.9c.1.1.2.1.2.2M15.7 21.4c.1.1.1.2.2.2M21.5 11.1c.1.2.3.2.4.4M16.9 15.2c.2-.1.3-.2.4-.3.1-.1.2-.1.2-.2M20.9 21.6c.1-.2.2-.3.5-.4M25.9 23.5c-.1 0-.1.1-.2.2s0 .1 0 .2l.3.3.4.4s.1.1.1 0M19.6 25.1c.1 0 .2 0 .3.1M17.8 9.1c0-.1.1 0 .2 0M12.5 20.9c0 .1.1.1.1.2M26.7 22.8c.2.1.3.1.4.3.1.1.1.2.1.3 0 .1-.1 0-.1 0M24.6 31.9c.1 0 .1-.1.2-.2M16 20.5s.1 0 .2-.1v.1M23.6 20.8c.2 0 .3-.1.5-.1s.3-.1.3-.3M19.5 18.6c0-.1 0-.2.1-.2M20.6 28.5c.2.1.3.3.4.4M19.5 22.3c.1.1.2 0 .2 0 .3-.2.5-.5.7-.7l.1-.1M27.7 23.4c-.2-.2-.4-.4-.6-.7M20.4 28.2c-.1 0-.2-.1-.2-.2l-1-1c-.4-.4-.9-.9-1.3-1.4M25 19.5c.1 0 .1.1.2.2M16.4 13.6c.1 0 .1.2.2.1M10.4 18.9l.3.3M13.5 14c.1.1.1 0 .1 0 .2-.3.5-.5.7-.8"/><path d="M19.6 20.2c.1 0 .1.1.2.1M24.7 31.6c.1.1.1 0 .1 0l.7-.7M21.4 24.5l.2.2v.1M31.9 21.4c0-.1-.1-.2-.2-.2M25.5 30.7c0-.1.1-.1.2-.1M25.7 30.9c.1 0 .1-.1.1-.1M27.9 24.8c.1-.1.1-.2.3 0 .1.1.2.2.3.2M14.5 18.2c0 .2.1.3.3.3M20.6 10.1c.1 0 .1.1.2.1M19.4 13.2l-.1.1c.1.1.2.2.3.1h.1c0 .1.2.1.2.2M26.5 28.9c0-.1.1-.1.2-.2-.1-.1-.3-.2-.3-.4M30.5 25l.1-.1c.1-.1.1-.2 0-.3l-.9-.9-.1-.1c-.2-.3-.4-.3-.6 0M24.4 22.5c.1 0 .1-.1.2 0M26.2 18.4c-.1.1-.1.2 0 .3M28 19.9c0-.1-.1-.1-.1-.1M24.5 31.8c0-.1.1-.1.1-.1M18.4 17.1l.1-.1M18.9 26.6v-.2M16.8 19.8c.1 0 .1.1.2.1M14.2 22.5c.1 0 .1 0 .1.1M12.1 20.5c0-.1-.1-.1-.2-.2.1-.1 0-.2-.1-.3M21.7 11.1l.3.3M24.7 18.4c.1.1.2.1.3.1.1 0 .2 0 .3.1M13.3 13.9l.1.1M18.8 16.9c-.1-.1 0-.2.1-.3v-.1M24.4 21.4l.2-.2c.1-.1.1-.2.3-.1h.1l.3-.3M11.6 15.1v-.3M22.9 13c0-.1.1-.1.1-.1M32.1 24.7c.1 0 .1 0 .1-.1M27.6 23.5c.1-.1.2-.1.3-.1M24.5 22.4c0-.1 0-.1 0 0-.1-.2 0-.2 0-.2M18.9 24.9v-.2M29.5 19.5c0-.1-.1-.2-.2-.2M31.9 24.5c0-.1.1-.1.2-.1M18.4 8.3c.1 0 .2-.1.2-.2 0 0 0 0 0 0"/><path d="M18.9 16.6c.1 0 .1-.1.1-.1M18.9 27.5c.1 0 0-.1 0-.1-.1-.1-.2-.3-.4-.4-.2-.1-.3-.3-.5-.4-.2-.2-.3-.4-.5-.6-.2-.2-.5-.4-.7-.7-.1-.2-.3-.3-.5-.5M32.6 22.1c.1 0 .1.1.1.1M13.8 17.5c0 .1.1.2.3.2M22.8 12.9s0-.1 0 0M26.4 25.9c-.1-.1-.3-.2-.3-.3M18.4 9.7s0 .1 0 0M13.8 21.8c0-.1.1-.1 0 0M13.3 17.5v.1M21 18c.3-.3.7-.6 1-1l.4-.4M18.2 17.3c.1 0 .1-.1 0 0M13.2 21.6c.1.1.2.1.2.2"/><path d="M13.9 22.4c.1-.1.1-.1 0 0 .2.1.3.2.3.3.2.3.6.4.8.7.1.2.3.4.5.6.2.2.4.5.7.7.1.1.1.2.2.2M25.4 20.6c.1 0 .1-.1.2-.1M30.6 25.9c.1-.1.1-.1.1-.2M9.5 17.3l.3.3.1.1M27.8 21.2c.1 0 .2.2.3.2M22.1 23.5c.1 0 .1 0 .1-.1 0 0 .1-.1.2-.1M18.6 16.8c.1 0 .1-.1.1-.1M22.6 12.8l.1.1M24.5 19.5v.2M22.6 31.1l-.2-.2c-.1-.1-.1-.1 0-.1M31 20.5c-.1-.2-.2-.2-.3-.3M27.1 16.6c0-.1-.1-.2-.2-.3M25 14.5c0-.1-.2-.2-.2-.3 0 0-.1 0 0-.1M22.8 12.3l-.2-.2M14.9 18.5l.9-.9.1-.1M28.8 22.2c.1.1.1.1 0 0M23.4 27.8l-.3-.3M23.4 27.8c0 .1.1.1 0 0M25.4 14.9c0-.1-.1-.1-.2-.2M25.9 15.3c-.1-.1-.2-.1-.2-.2M26.5 24c.1-.1.1 0 0 0M28.5 24.3l.6-.6M28.1 21.5c.2.2.4.4.7.6M9 16.8l.4.4M19.1 9.1s0 0 0 0M12.8 13.4c-.1 0-.2-.1-.2-.1"/></g><path fill="none" d="M2 .9h45v45H2z"/><path fill="none" d="M6.4 27.9h18v13.5h-18z"/><path fill="#010101" d="M8 41.4v-4.8c-.3.1-.8.2-1.2.3v-1c.6-.1 1.2-.5 1.6-.9h1v6.4H8zM15.1 36.1h-2.6c0 .3-.2 1-.2 1.2.2-.2.6-.3 1.2-.3 1.3 0 2 .9 2 2.1 0 1.2-.7 2.4-2.4 2.4-1.3 0-2.2-.6-2.3-1.8h1.4c.1.4.4.7 1 .7.7 0 1-.5 1-1.2s-.2-1.1-1-1.1c-.6 0-.8.3-1 .6l-1.3-.2c.2-.8.4-2.7.5-3.6h3.9l-.2 1.2zM21.3 38.1c0 1.8-.6 3.4-2.5 3.4s-2.5-1.5-2.5-3.3c0-1.8.6-3.3 2.5-3.3 1.8 0 2.5 1.4 2.5 3.2zm-3.5.1c0 1.2.1 2.2 1 2.2s1-1 1-2.2c0-1.2-.1-2.2-1-2.2-.8 0-1 .8-1 2.2z"/><path fill="none" d="M29 5.4h13.5v13.5H29z"/><path fill="#010101" d="M40.6 7.7c-.1-.3-.3-.6-.8-.6-.9 0-1.1.8-1.1 1.7.3-.3.7-.6 1.4-.6 1.2 0 2 .9 2 2.1 0 1.4-.9 2.4-2.3 2.4-1.9 0-2.5-1.4-2.5-3.2 0-1.7.6-3.4 2.5-3.4 1.4 0 2 .9 2.1 1.7h-1.3zm.1 2.7c0-.6-.2-1.2-1-1.2-.6 0-1 .4-1 1.1 0 .5.2 1.2 1 1.2.7 0 1-.5 1-1.1z"/><path fill="none" d="M28.9 27.9h13.5v13.5H28.9z"/><path fill="#010101" d="M33.7 41.4v-1.2h-2.4v-1l2.2-3.1h1.3v3.2h.6l-.1.9h-.5v1.2h-1.1zm0-3.1v-1.2c-.2.4-.9 1.5-1.4 2.2h1.4v-1zM35.8 41.8l2.2-6.1h1l-2.2 6.1h-1zM42 38.8v1h-2.3v-1H42z"/><path fill="none" stroke="#000" stroke-miterlimit="10" d="M7 34.2h14"/><path fill="#010101" d="m31.9 29.5 1.6 3-3-1.6s.7-.3.9-.5c.2-.2.5-.9.5-.9z"/><path fill="none" d="M6.5 5.4h9v9h-9z"/><path fill="#010101" d="m11.4 7.7-.2 1.5 1.1-.9.5.9-1.4.6 1.4.6-.5.6-1.1-1 .2 1.5h-.9l.2-1.5-1.1 1-.5-.9 1.4-.6-1.4-.4.5-.9 1.1 1-.2-1.5h.9z"/><path fill="none" d="m16.427 6.075 3.182-3.182L38.7 21.985l-3.182 3.182z"/><path fill="#010101" d="M20.3 3.8 21.5 5c.6.6.5 1.1.2 1.4-.3.3-.6.3-.8.2.1.2.1.6-.2.9-.4.4-1 .4-1.6-.2L18 6.2l2.3-2.4zm-1.2 2.6.4.4c.2.2.4.2.5 0 .1-.1.2-.3-.1-.6l-.4-.4-.4.6zm1.4-.6c.2.2.4.2.5 0 .1-.1.1-.3-.1-.5l-.4-.4-.4.4.4.5zM21.6 7.3l.5-.5.7.7c0 .1-.2.2-.3.3.2-.1.6-.1.9.2l-.6.6c-.4-.4-.6-.5-1-.1l-.8.7-.7-.7 1.3-1.2zM24.1 11.2l-.6.6-.7-.7c0-.1.1-.2.2-.2-.3.1-.5 0-.7-.3-.3-.3-.3-.8.1-1.2l1.2-1.2.7.7-1.1 1.1c-.2.2-.2.3-.1.5.2.2.3.1.6-.1l1-1 .7.7-1.3 1.1zM25.2 10.8l.5-.5.6.6-.2.2c.2 0 .5 0 .7.3.3.3.3.5.2.7.2 0 .5 0 .8.3.3.3.4.8-.1 1.3l-1.2 1.2-.5-.6 1.1-1.1c.1-.1.2-.3.1-.4-.2-.1-.3-.1-.5.1l-1 1-.7-.7 1.1-1.1c.1-.1.2-.3.1-.4-.1-.1-.3-.1-.5.1l-1 1-.7-.7 1.2-1.3zM28.4 14l.5-.5.6.6-.2.2c.2 0 .5 0 .7.3.3.3.3.5.2.7.2 0 .5 0 .8.3.3.3.4.8-.1 1.3L29.8 18l-.7-.7 1.1-1.1c.1-.1.2-.3.1-.4-.1-.2-.3-.1-.5.1l-1 1.1-.7-.7 1.1-1.1c.1-.1.2-.3.1-.4-.1-.1-.3-.1-.5.1l-1 1-.7-.7 1.3-1.2zM32.7 15.9l.7.7-.8.8c.2 0 .4 0 .7.3.4.4.4 1.1-.2 1.6-.6.6-1.3.7-1.8.2-.3-.2-.3-.4-.3-.6 0 0-.1.1-.2.1l-.6-.6.6-.6 1.9-1.9zm-.4 2.8c.3-.3.4-.5.2-.7-.2-.2-.4-.1-.8.2-.3.3-.4.5-.2.7.3.2.5.1.8-.2zM34.6 21.7c-.2.2-.5.5-.5.6l-.6-.6c0-.1.1-.1.1-.2-.2 0-.4 0-.7-.3-.4-.4-.4-.9 0-1.2.4-.4.9-.3 1.5.3l.2.2.1-.1c.1-.1.2-.2 0-.4s-.3-.1-.4 0l-.6-.6c.3-.3.8-.4 1.4.2.6.6.6 1.1.2 1.5l-.7.6zm-.4-.9-.1-.1c-.2-.2-.4-.2-.5-.1-.1.1-.1.3 0 .4.2.2.4.1.6-.2zM35.7 21.4l.5-.5.7.7c0 .1-.2.2-.3.3.2-.1.6-.1.9.2l-.6.6c-.4-.4-.6-.5-1-.1l-.7.7-.7-.7 1.2-1.2z"/><path fill="#76A4B2" d="M0-45h45V0H0z"/></svg>