<svg version="1.2" baseProfile="tiny" xmlns="http://www.w3.org/2000/svg" viewBox="0 0 45 45" overflow="visible" xml:space="preserve"><path fill="none" d="M-45 0H0v45h-45z"/><path d="M29.5 12.9c-.1.1-.1.2-.1.2 0-.1-.1-.1-.1 0-.1 0-.2.1-.3 0 .1.2.2.2.3.2 0 0-.1 0 0 .1h.1c-.2.2.1.2.1.3 0 .1.1.1.2 0 .3-.3.6-.6 1-.9.7-.6 1.3-1.3 1.9-1.9.4-.3.7-.7 1-1.1l-.4.4c-.7.7-1.5 1.4-2.2 2.2-.1.1-.4.3-.4.5s.3.3.4.5c.1.1.2.1.3 0 .9-.9 1.7-1.8 2.6-2.7.3-.3.3-.3 0-.7-.1-.1-.1-.2-.2-.2-.2-.1-.1-.2 0-.3l1.2-1.2c.2-.2.3-.3.5-.4.1-.1.2-.1.2 0l.4.4c.1.1.1.1 0 .2 0-.3-.3-.4-.5-.6h-.1v.2c.1.1.2.2.3.4l-.3-.3c-.1-.1-.1-.1-.2 0l-.9.9c-.2.2-.4.3-.5.5-.1.1-.1.1 0 .2l.5.5c.1.1.1.1.2 0 .4-.4.4-.3 0-.7l-.1-.1c.1.1.2.2.3.4.1.1.1.1.1 0l.9-.9.2-.2c0-.1.1-.1.2-.1-.4.5-.9.9-1.4 1.5-.1.2-.4.3-.6.5-1 1.1-2.2 2.1-3.1 3.3-.2.2-.4.4-.6.7-.1.1-.1.1 0 .2l1 1c.1.1.2.1.3 0 .1-.1.2-.1.3-.2.1 0 .2 0 .4-.1.1 0 .2 0 .1.2v.2c0 .2-.1.4-.2.4-.2.1-.1.1 0 .2.2.2.4.3.5.6.1.1.1 0 .2 0s.1-.1.2-.1c.3.1.5.2.7.4.1.1.1.2.2.2.3.2.5.5.8.7.1 0 .1.1.2.2s.1.2 0 .3c0 .1-.2.2-.3.3-.1.2-.4.3-.5.5 0 .1-.1.2-.3.2l-.1.1c-.2.3-.4.5-.7.8h-.1s-.1 0-.1.1-.1.2-.1.2c-.2.1-.3.2-.4.4 0 .1-.1.1-.2.1s-.1 0-.1.1c0 .2-.1.3-.3.3-.1 0-.1.1-.2.2 0 .1-.1.2-.3.3-.1 0-.2.1-.2.1 0 .2-.1.3-.3.3-.1 0-.2.1-.2.1 0 .2-.1.3-.3.3-.1 0-.1 0-.1.2 0 .1-.1.2-.1.2-.2.1-.3.3-.4.4-.1.2-.3.3-.4.4-.1.2-.3.2-.4.4-.1.2-.3.2-.4.4-.1.2-.3.3-.4.5-.1.2-.3.3-.4.5-.1.1-.2.1-.3.2-.1.3-.5.4-.6.7 0 .1-.1.1-.2.1s-.1 0-.1.1c0 .2-.1.3-.3.3-.3.3-.3.3-.3.4 0 .2-.2.3-.3.3-.1 0-.1.1-.1.1 0 .2-.1.2-.3.3-.1 0-.2.1-.2.1 0 .1-.1.2-.2.2l-.3.3c-.1.2-.4.4-.5.6 0 0-.1 0-.1.1-.2.2-.3.4-.6.6-.2.3-.5.5-.7.7-.1 0-.1.1-.2.2s-.1.2-.3.3c-.1 0-.1.1-.1.1-.2.3-.5.5-.7.7 0 0-.1 0-.2.1-.1.3-.5.4-.7.7h-.1c-.1 0-.1.1-.2.2-.2.3-.5.4-.7.7h-.1c-.1 0-.1.1-.1.1 0 .2-.2.2-.3.3-.2.2-.3.5-.6.5 0 .2-.2.3-.3.3-.1.1-.3.1-.4.2 0 0-.1.1 0 .1h.1l.1-.1c0 .1-.1.2-.2.3-.1 0-.1.1-.1.1 0 .2-.1.2-.2.3-.1 0-.1.1-.2.1.1.2 0 .1-.1.1s-.2-.1-.3-.2c-.3-.4-.7-.7-1-1-.2-.2-.3-.3-.3-.6 0-.1-.1-.1-.2 0s-.2.1-.3 0l-1-1c-.2-.2-.4-.5-.7-.7l-2.1-2.1c-.3-.3-.5-.6-.8-.9-.1-.1-.1-.2 0-.3 0 0 .1-.1 0-.1-.3.1-.5-.2-.7-.4-.1-.1-.1-.2-.1-.2-.3-.2-.5-.6-.8-.8-.1-.1-.1-.3-.2-.4H9v-.1c.1-.2.4-.4.5-.6h.1c.1 0 .2-.1.2-.2s0-.1.1-.1c.2-.1.4-.3.5-.5l.1-.1c.1 0 .1 0 .1-.1.1-.3.5-.5.6-.8l.1-.1c.1 0 .1-.1.2-.1.2-.3.5-.4.7-.7h.1c.1 0 .1-.1.1-.1.1-.3.5-.5.7-.8h.1c.1 0 .1-.1.1-.1 0-.1.1-.2.2-.3.3-.1.4-.4.6-.6.2-.2.5-.4.6-.7 0-.1.2-.1.3-.2.1-.3.5-.4.6-.7.1-.1.2-.1.3-.2.1-.3.5-.4.7-.7h.1c.1 0 .1-.1.2-.1.1-.2.2-.2.3-.3.1-.1.2-.3.3-.4.1 0 .1-.1.2-.1.2-.3.5-.4.7-.7h.1c.1 0 .1-.1.1-.1.1-.2.2-.3.4-.3.1 0 .1-.3.3-.4h.1c.1 0 .2-.1.2-.1 0-.2.2-.2.3-.3.2-.2.3-.4.6-.5v-.1c0-.1 0-.1.1-.1.2-.1.3-.2.4-.4.1-.2.4-.3.5-.5l.1-.1c.1 0 .1-.1.2-.1.1-.3.5-.4.6-.7h.1c.1 0 .1-.1.2-.2.2-.2.5-.4.7-.7.1 0 .1-.1.2-.2.2-.2.4-.5.7-.7l.6-.6.3-.3s.1 0 .1-.1c.1-.3.5-.5.7-.7.2-.2.4-.4.6-.7.1-.2.3-.2.5 0s.4.5.6.6c.1.1.1.2.2.3.3.2.5.4.6.8 0 .2 0 .2-.1.3 0 0-.1.1 0 .1.2.1.4.4.6.6.1.1.1.1.1 0 .1-.2.3-.3.5-.2.1 0 .2-.1.3 0-.1-.5-.3-.4-.4-.3.1.3 0 .4-.2.5.3-.3.3-.3.2-.5zM28.6 25c-.2.1-.3.2-.3.4 0 .1-.1.1 0 .2.1 0 .1-.1.2-.1 0 0 .1-.1 0-.1-.1-.1-.1 0-.2 0 .1-.1.3-.2.3-.4zm3.4-9.1c-.2.1-.3.2 0 .4 0-.2 0-.3.1-.5 0 .2.1.2.2.2s.1-.1.1-.2v-.1c0-.1.1-.1 0-.1s-.1 0-.1.1c0 0 0 .1-.1.1v-.1c-.2-.1-.5.1-.5.3.1-.1.3-.3.5-.3 0 0-.1 0-.1.1s-.1 0-.1.1zm-9.6 7.7c-.1-.1-.1-.1-.2 0s-.2.2-.1.3l.1.1c.2.2.2.2.4 0l.1-.1c0-.1.2-.1.1-.3-.2-.1-.3-.1-.4 0zm7.5-4.4c.1 0 .1-.1.2-.2 0 0 0-.1-.1-.1.1-.1 0-.1 0-.2l-.5-.5c-.1-.1-.2-.1-.3 0-.1.1-.1.2 0 .3.2.2.3.5.7.7-.1-.1-.1 0 0 0zm-4-1.8c0-.1.2-.1.1-.1-.1-.1-.2-.3-.4-.4-.1 0 0 .1-.1.1v.1c.1.2.3.3.4.5.5.5.9 1 1.4 1.5.1.1.1.2.2.1s0-.2 0-.2c-.3-.3-.6-.6-.8-.9 0 0-.1-.2-.1 0h-.1s-.1-.1 0-.1.1-.1 0-.1c0-.1-.1-.1-.1-.2-.1-.2-.2-.2-.4 0-.1-.2-.1-.3-.1-.3zM21 25.2c.1.2.2.4.4.5.2.1.4.3.5.5.1.1.1.3.3.2-.1.3-.2 0-.3 0 .3.3.6.6.8.9.1.1.3.1.1.3 0 0 0 .1.1.1l.6.6c-.2-.5-.3-1-.6-1.4l-.5-.5c-.1-.1-.1-.1-.2 0L21 25.2zm1.6-8c-.4.2-.8.4-1.2.7-.1 0-.2 0-.1.2.1.1.2.1.2 0 .7-.4 1.4-.8 2.2-1.2.1-.1.3-.2.4-.2.2-.1.3-.2.3-.4 0-.1.1-.1 0-.1h-.1c-.3 0-.5.2-.8.4l-.6.3c-.1 0-.2 0-.1.2.4-.2.8-.4 1.2-.7.1-.1.2-.1.3-.1-.5.3-1.1.6-1.7.9zm5.2-2.9s-.1.1 0 .1c-.2 0-.3.2-.4.3.3 0 .5 0 .6.3 0 .1.1 0 .1 0 .1 0 .1 0 .1.1-.1.2.1.2.1.3.2.2.4.4.6.7.1.1.1.2.2.1 0 0 .1 0 .1.1-.1.2.1.2.2.3v.5c.2-.1.3-.3.3-.5 0 .1.1.1.1 0 .2-.2.4-.4.5-.7 0-.1.1-.2.1-.3-.2.3 0 .4.2.6l1 1c.1-.3.1-.6.2-.9 0-.1 0-.1-.1-.1-.5-.5-1-1-1.5-1.6 0 .2-.2.3.1.4.2 0 .1.3.1.4-.1-.2-.3-.3-.4-.5-.1-.1-.1-.1-.2 0-.1.2-.3.3-.4.5l-.1.1c-.1.1-.2.1-.1.3-.1-.2-.4-.2-.5-.3-.2-.2-.4-.3-.4-.6 0-.2-.2-.3-.3-.5-.1-.1-.1 0-.1 0l-.2.2c0-.1.1-.2.2-.2v-.1h.2c.3.3.3.3.6 0 .4-.3.4-.3 0-.7-.1-.1-.2-.1-.3 0-.1 0-.1.1-.2.1.2-.1.3-.2.6-.2.1 0 .2.1.2.2s0 .1.1.1.2 0 .2-.1 0-.1-.1-.1l-.1-.1c-.3-.5-.8-.4-1.2-.3-.1 0-.1.1 0 .1.1.1.2.3.4.3-.1.3-.3.4-.5.7zm-8.2 6.1c0-.1.1-.2.1-.2h-.1c-.4.6-.8 1.3-1.2 1.9h.1c.2-.2.3-.5.5-.7 0 .2-.1.3-.2.4-.1.1-.1.2-.2.3 0 .1-.2.1-.1.2s.2 0 .3-.1c.2-.3.3-.5.5-.7l1.8-3s.1-.1.1-.2c.1-.1 0-.1 0-.2-.1-.1-.1 0-.2.1-.4.7-.9 1.4-1.4 2.2-.2.2-.3.5-.5.7.2-.3.4-.5.5-.7zm7.4 4.1c.1 0 .2-.1.1-.2s-.1 0-.2 0c-1 .6-2 1.3-2.9 1.9-.1.1-.1.1-.2.1.4-.3.8-.5 1.2-.8.4-.3.8-.5 1.1-.8.1-.1.1-.1 0-.2-.2-.1-.3-.3-.4-.5 0 0-.1-.1-.2 0s-.1 0-.1-.1c.1-.1 0-.1 0-.2l-.2-.2c-.1-.1-.1-.1-.2 0h-.1v-.1c.2-.1 0-.2 0-.2l-.2-.2c-.1-.1-.2.1-.2 0-.1-.1.1-.2 0-.3l-.3-.3s-.1-.1-.1 0H24v-.1c.2-.2-.1-.2-.1-.3-.1-.1-.1-.3-.3-.2-.1 0-.2 0-.1-.1s0-.2 0-.2l-.2-.2c-.1-.1-.1-.1-.2 0s-.1 0-.1-.1c0-.2-.2-.5-.4-.4-.1 0-.1 0-.1-.1.1-.2-.1-.3-.2-.4-.1-.1-.1-.2-.3-.1-.1.1-.1-.1-.1-.1.1-.1 0-.2 0-.2-.1-.1-.2-.4-.4-.2l-.1-.1c.1-.1 0-.2-.1-.2l-.5-.5c-.4.7-.9 1.4-1.3 2.1-.2.3-.4.7-.6 1-.1.1-.1.2 0 .3.5.5.9 1 1.4 1.4.1.1.1.2.2 0h.1v.1c-.1.2.1.2.2.3.1.1.1 0 .2 0l.9-.9c.1-.1.2-.1.4-.1s.5.2.7 0c0 0 .1 0 .2.1 0 .1.1.1 0 .2-.1.2-.1.3 0 .5s.3.2.5.1h.2c.1.1 0 .1 0 .2-.1.3.1.7.3.8h.2v.2l-.2.2h-.1s-.1-.1 0-.1c.1-.2-.1-.3-.1-.4 0-.1-.1-.1-.2-.2 0 .1-.1.2-.1.3l-.9.9c-.1.1-.2.2 0 .4l.2.2c.1.2.3.3.5.2-.1.1-.3.2-.2.4.3-.2.5-.3.7-.5-.2.2-.4.3-.6.4v.1l1.8-1.2v-.1c-.4.2-.8.6-1.3.8 1-.7 2.1-1.4 3.1-2.1zm-4.1-.2c.1 0 .1-.1.1-.1.1 0 .1-.1.1-.1s0-.1-.1-.1-.1 0-.1.1l-.1.1-.1-.1c-.1-.1-.2-.1-.3 0-.1.2-.2.1-.3 0-.1-.1-.1-.3 0-.6 0 0 .1-.1 0-.2h-.2l-1 1c-.1.1-.1.1 0 .2.4.5.9.9 1.3 1.4.1.1.1.1.2 0l.4-.4c-.1-.2.1-.3.2-.4 0-.2-.2-.3-.3-.5-.1-.1-.2-.1-.3 0 0 .1-.1.1-.1.2s-.1.1-.1 0c-.1-.1-.1 0-.2 0 0-.1 0-.1.2-.1.1 0 .1-.1.1-.1.1-.1.1-.2.2-.1.3.2.3-.1.4-.2-.1-.1 0-.1 0-.1v.1zm6.1.1c.1-.1.2-.2.2-.4 0-.1 0-.1-.1-.1H29c-.1.1-.2.2-.2.4 0 .1-.1.2-.2.4 0 .1-.1.1-.1.2.1.1.1-.1.2-.1s.1-.1.2-.1l3-3c.1-.1.1-.2 0-.4-.3-.3-.5-.6-.8-.9-.2.4-.3.7-.5 1.1-.3.7-.7 1.4-1.1 2-.1.1-.1.3-.2.4 0 .2-.2.4-.3.6-.1.1-.1.2-.2.3 0-.2 0-.3.2-.4zm-11.9-2c.2-.2.3-.2.5 0 .1.1.2.3.2.2.1-.1-.1-.2-.2-.3-.1-.2-.3-.3-.4-.5-.1-.1-.2-.2-.3 0 .1-.1 0-.2 0-.3l-.7-.7c-.1-.1-.2-.1-.2 0-.3.3-.3.3 0 .7.1.2.3.3.4.5.1.1.2.1.3 0l.1-.1c-.2.4-.6.7-.9 1-.4.4-.7.8-1.1 1.1-.1.1 0 .1 0 .1.2.2.4.4.6.7.1.1.1.1.2 0 .4-.4.8-.8 1.1-1.2.1-.1.1-.1 0-.2l-.2-.2s-.1-.1-.1-.2c0-.2.2-.5.4-.6l-.3.3c-.1.1-.1.2 0 .3l.3.3s.1 0 .1-.1l.6-.6c.1-.1.1-.1 0-.2-.1 0-.1-.1-.2-.2.1.1 0 .1-.2.2 0 .1-.1.2-.2.2.1-.1.2-.1.2-.2zm10.3-7.8-.5-.5c-.1-.1-.1-.1-.2 0-.2.2-.3.4-.6.5 0 .2.2.2.3.3.1.1.1 0 .2 0 .1-.1.1-.2.3-.2l-1.2 1.2-.3.3c-.1.1-.1.2-.1.3 0 .1.1 0 .2 0s.1 0 .1.1c.7.8 1.4 1.5 2.2 2.3.1.1.1.1.1.2 0 .2.1.1.2.1 0 0 .1 0 .1-.1l1.5-1.5c.1-.1.2-.3.2-.5 0 0 0-.1-.1-.1 0 0-.1 0-.1.1-.3.5-.7.8-1.1 1.2-.1.1-.1 0-.2 0-.1-.1-.2-.2-.4-.1h-.1l-.3-.3c-.1-.1-.1-.2 0-.2.1-.1.1-.1 0-.2l-.5-.5c-.1-.1-.1-.1-.1 0-.1.1-.2.1-.3 0-.1-.1-.2-.2-.2-.3 0 0-.1-.1 0-.2.2-.2 0-.3-.1-.4-.1-.1-.1-.2 0-.3l.9-.9c.1-.1.2-.1.3-.1-.1 0-.1-.1-.2-.1-.2-.1-.1-.1 0-.1zm-5.3 17.5c.3-.3.3-.3 0-.6-.2-.2-.3-.4-.5-.5-.1-.1-.1-.1-.2 0-.4.4-.4.4 0 .7.1.2.3.3.4.5-.3-.2-.5-.5-.7-.8.1-.4-.3-.4-.4-.6-.3-.4-.3-.3-.6 0-.8.9-1.7 1.7-2.5 2.6-.1.1-.1.2 0 .3.5.5.9.9 1.3 1.4 0 .1.1.2.2.1s0-.1-.1-.2l-.6-.6c-.1-.1-.1-.2 0-.3l1.7-1.7c.2-.3.5-.5.8-.8.1-.1.1-.1.2 0l.6.6c.1.1.1.1.2 0-.1.1 0 0 .2-.1zM16 26.9c.3 0 .4.2.6.4 0 0 0 .1.1.1 0 0 .1-.1 0-.1-.2-.4-.2-.5.1-.8.7-.7 1.4-1.4 2.1-2.2.1-.1.2-.2.3-.2-.3.1-.4.3-.6.5-.6.6-1.2 1.3-1.8 1.9-.2.2-.2.4 0 .6 0 0 .1.1.1 0 .2-.2.2.1.4.2.1.1.2.1 0 .3-.1.1 0 .1 0 .2l.5.5c.1.1.2.2.3.1h.1l.3.3v.1c-.2.2 0 .3.1.3.1.1.3.1.4-.1l.9-.9 1.2-1.2c.1-.1.3-.3.4-.5-.1.2.2.1.2.3l.1-.1c-.1-.1 0-.2 0-.3l-.1-.1c-.1 0-.1.1-.1.2-.1-.3-.3-.5-.6-.7l-1.3-1.3c-.1-.1-.2-.2-.4-.2.2-.1.3 0 .4.1l.9.9c0-.1-.1-.2-.1-.2-.1-.2-.3-.3-.4-.5-.3-.6-.9-1-1.4-1.5-.3-.4-.2-.3-.5 0-1.1 1.1-2.2 2.2-3.3 3.4-.1.1-.2.2 0 .4 1.4 1.5 2.8 2.9 4.2 4.4.1.1.2.1.3 0 1.1-1.2 2.2-2.3 3.4-3.5.2-.2.1-.3 0-.4l-.6-.6c-.1-.1-.2-.1-.3 0 .2.2.3.4.5.5.2.1.1.2 0 .3l-1.6 1.6c-.3.3-.6.7-1 .9-.1 0 0 .1 0 .1 0 .1-.1.1-.2 0-.2-.2-.3-.4-.5-.5-.1-.1 0-.2 0-.2-.1-.2.1-.1.1-.1s.1 0 .1-.1l.4-.4s.1-.1 0-.1c-.1-.1 0-.2.1-.1h.1c.1-.2.3-.3.4-.5V28c0-.1 0-.1.1-.1.2.1.2-.1.3-.2l.3-.3c.1-.1.1-.3.3-.3.1 0 .1-.1.2-.2 0 0 .1-.1 0-.1-.1-.1-.1-.1-.2 0-.3.3-.6.6-.8.9-.4.5-.9.9-1.3 1.4-.2.2-.4.2-.7 0 0 0-.1-.1-.1 0-.1.1 0 .1.1.1.2.1.4.3.4.6s0 .3-.3.3c.1-.1.3 0 .3-.2s-.2-.5-.4-.4c-.2 0-.2.2-.2.3 0 .1-.1.3.1.4h-.1c-.1-.1-.1-.6 0-.7.1-.1.2-.2 0-.3-.1-.1-.3-.2-.1-.4 0 0 0-.1-.1-.1l-.5-.5c-.1-.1-.2-.3-.3-.1h-.1c-.1-.1-.2-.1-.2-.2-.1-.1-.1-.1-.1 0-.1.2-.3.2-.5.2-.3 0-.3-.1-.2-.3.1.1-.1.2 0 .2.2 0 .3-.1.5-.1.1-.1 0-.1 0-.2-.1-.2-.3-.3-.4-.3-.1 0-.1.1-.1.2-.5-.7-.5-.7-.2-.7zM28.5 21v-.1l-.3-.3c-.1-.2-.2.1-.3-.1 0-.1.1-.2 0-.3l-.3-.3s-.1-.1-.2 0h-.1v-.1c.1-.1-.2-.3.1-.4.1-.1.3-.2.3-.4-.3.2-.3.2-.5-.1l-1.8-1.8c-.1-.1-.4-.3 0-.5-.1-.1-.2 0-.2 0l-.2.2c-.2.2-.2.2-.4 0-.1-.1-.1-.2-.3-.1-.2-.1-.2-.1-.4.1.3.1.4.3.2.6.1-.1.1-.1.2-.1s0-.1 0-.1c0-.1.1-.1.1 0 .1.1.2.2.4.1 0 0 .1 0 .1.1 0 .2-.1.3.1.4v.1c-.2 0-.3.1-.3.3 0 .1-.1.1-.1 0-.1-.1-.2-.1-.4-.1-.1 0-.1 0-.1-.1 0-.3 0-.4-.3-.5-.2-.1-.2-.3-.1-.6-.6.3-1.1.6-1.7.9.1.1.2.2.2.3.1.1.1.3 0 .4-.1.1 0 .2-.1.3-.1.1-.3.2-.4.2-.1 0-.2-.1-.3-.2-.2-.2-.2-.2-.4 0-.1.2-.1.3 0 .4 1.3 1.3 2.5 2.6 3.8 4l.7.7c.1.1.1.1.2 0s0-.1-.1-.1c-.2-.2-.2-.3 0-.5l.1-.1c.2-.2.2-.3.5 0 .1.1.1.1.2 0-.1.2-.1.2-.2.1s-.1-.2-.3-.2c-.2.1-.3.2-.4.4-.1.1.1.2.2.3.1.1.1.1.1.2s0 .2.1.2l.3.3s.1.1.1 0h.1c.1 0 .1.1.2 0 .2-.2.5-.3.6-.5.1-.1.1-.3.2-.4 0-.1.2-.2 0-.2v-.1s.1-.1.1 0c.1.1.1 0 .2-.1s.1-.2.2-.3c0-.1.2-.2 0-.2v-.1h.1c.1.2.1 0 .1-.1.2-.4.4-.8.7-1.3-.3 0-.4 0-.3-.2zM15.8 34.2c.1.1.2.1.3 0 .9-.9 1.8-1.9 2.7-2.8.1-.1.1-.2 0-.3-1-1.1-2.1-2.2-3.1-3.3-.4-.4-.8-.8-1.1-1.2-.1-.1-.2-.1-.2 0-.9.9-1.8 1.9-2.7 2.8-.1.1-.1.2 0 .2.6.7 1.3 1.3 1.9 2l.3.3c.5.8 1.2 1.5 1.9 2.3zm2.3-14.1c.2-.4.5-.9.8-1.3.2-.2.2-.4.2-.7-.1.1-.2.3-.4.4-.8.7-1.5 1.5-2.2 2.3-.1.1-.2.2 0 .4l.5.5c.1.1.1.1.2 0 .1-.2.3-.5.5-.7-.1.2-.3.4-.4.6-.1.1-.1.2.1.2.3.1.6.2.8.4.1.1.2 0 .2-.1.6-1 1.3-2.1 1.9-3.1.2-.3.4-.7.6-1 .1-.1 0-.1 0-.2-.2-.2-.4-.4-.5-.6-.1-.1-.1-.1-.2 0-.3.3-.6.6-.9 1 0 .1-.2.2-.1.3 0 0 0 .1-.1.2-.1 0 0-.1-.1-.1-.2.5-.5 1-.9 1.5zm-3 14.9c.1.2.2.1.4 0 .1-.2.3-.3.4-.5.1-.1.1-.2 0-.3-1-1.1-2-2.1-3.1-3.2-.4-.5-.9-.9-1.3-1.4-.1-.1-.2-.1-.3 0l-.5.5c-.1.1-.1.2 0 .3.6.7 1.3 1.3 1.9 2 .1.1.2.2.2.3l2.3 2.3zm12.2-10.5c-.1.2-.3.2-.4.3-1.2.8-2.4 1.6-3.7 2.4-.1.1-.1.1-.1.2.1.3.3.6.4.9 0 .1.1.1.2.1.1-.1.2-.1.2-.2.1 0 .2-.1.1-.2v-.1h.1c.1.2.2.1.2 0 .7-.5 1.4-.9 2.1-1.4 0 0 .1 0 .1-.1s.1-.1.1-.1c.3.1.4-.1.5-.2.2-.1.3-.3.4-.5 0-.1.2-.1.3-.2.1-.1.1-.1 0-.2-.1-.3-.2-.5-.5-.7-.1-.1-.1-.1-.2 0 .1.1.2 0 .2 0zm-3.2-9.8c-1 .6-2.1 1.2-3.1 1.8-.2.1-.5.3-.6.5-.1.1-.1.1 0 .2.2.2.3.4.5.5.1.1.1.1.2 0 1.1-.6 2.1-1.2 3.2-1.7.1 0 .1 0 .1-.1.2-.5.3-1.1.5-1.6-.2 0-.5.2-.8.4zm3.6.2c-.1-.1-.5-.1-.6 0l-.9.9c-.1.1-.1.1 0 .2.1 0 .1.2.2.1s.2 0 .2 0l.2.2.1.1c-.1.2.1.3.2.4l.5.5.1.1c.3-.2.3.1.4.2.1.1.2.2.1.3-.1.1 0 .1.1.2s.1 0 .2 0l.9-.9c.1-.1.1-.6 0-.7-.3-.3-.5-.6-.8-.9-.4-.1-.6-.4-.9-.7zm1.7 6c-.1 0-.1.1-.2.2-.6 1.1-1.1 2.2-1.7 3.2-.1.2-.1.3.1.4l.4.4c.1.1.1.1.2 0 0 0 .1-.1.2-.1h.1c-.1-.2.1-.3.1-.4.1-.2.2-.5.3-.7.8-1.1 1.3-2.3 2-3.5v-.1c-.5.3-1 .4-1.5.6zm-15.3 3.4c.2.3.2.3 0 .5-.5.6-1.1 1.1-1.7 1.7-.2.3-.5.5-.7.7-.1.1-.1.1-.2 0l-.6-.6s-.1-.1-.1 0c-.1.1 0 .1 0 .1.5.5.9 1 1.4 1.5.1.1.2.1.3 0 .7-.7 1.4-1.4 2.1-2.2l.6-.6c.1-.1.1-.2 0-.3l-.5-.5c-.1-.1-.1-.2-.3-.1 0 0-.1 0-.1-.1l-.6-.6s-.1-.1-.2 0c.2.2.4.3.6.5zm19.6-4.5c.1-.1.1-.2 0-.3-.5-.5-.9-.9-1.3-1.4-.1-.1-.2-.1-.3 0l-.1.1c-.5.4-.7.9-.8 1.5-.1.4 0 .6.3.9l.6.6c.1.1.2.2.3 0 .2-.2.4-.5.6-.7l.7-.7zm-7.8-8.5c-.1-.1-.1-.1-.2 0-.5.5-.9 1-1.4 1.4-.1.1-.1.1 0 .2l.9.9c.1.1.1.1.2.1.3-.1.6-.1.9-.2.1 0 .3-.1.4-.2l.6-.6c.1-.1.1-.2 0-.3l-.7-.7c-.2-.1-.5-.3-.7-.6zM10.7 26.9c-.1-.1-.1-.1-.2 0l-1.2 1.2c-.1.1-.1.1 0 .2.5.5.9 1 1.4 1.5.1.1.1.1.2 0 .4-.4.8-.8 1.2-1.3.1-.1.1-.2 0-.2l-.7-.7c-.3-.2-.5-.4-.7-.7zm6.5 6.8c-.1-.1-.1-.1-.2 0l-1.2 1.2c-.1.1-.1.2 0 .3.4.5.9.9 1.3 1.4.1.1.2.1.3 0l1.2-1.2c.1-.1.1-.2 0-.3l-.7-.7c-.3-.2-.5-.4-.7-.7zm3.4-3.8c-.1.1-.1.2 0 .3l.6.6s.1.1.2 0l1.3-1.3c.3-.3.5-.6.8-.8.1-.1.1-.2 0-.3-.2-.2-.4-.4-.5-.6-.1-.1-.2-.1-.3 0-.3.4-.7.7-1 1.1-.4.3-.7.7-1.1 1zm8.4-9c.1.1.1 0 .2 0 .5-.2 1.1-.4 1.6-.6.1 0 .1-.1 0-.2l-.2-.2c-.1-.1-.1-.1-.3-.1-.1 0-.3 0-.3-.1-.1-.3-.4-.3-.5-.5l-.6-.6c-.1-.1-.2-.2-.2 0-.1.2-.4.3-.5.5-.1.1-.1.2-.3.3-.1.1-.2.1-.3 0 .4.5.9 1 1.4 1.5zm-7.6-5.2c.1 0 .2 0 .3-.1.9-.6 2-1.1 3-1.5.2-.1.2-.1.1-.3l-.7-.7c-.1-.1-.2-.1-.3 0l-.9.9c0-.1.1-.1 0-.2-.3.4-.8.8-1.2 1.2l-1.2 1.2c.5-.5 1-1.1 1.6-1.6-.1.5-.4.8-.7 1.1zm5.7 10.8c0 .1-.2.1-.3.1h-.2c-1 .6-1.9 1.3-2.9 1.9-.1.1-.1.1 0 .2l.5.5c.1.1.2.1.3 0 .6-.6 1.2-1.2 1.8-1.9l1.4-1.4s.1-.1.1-.2c-.2.3-.5.4-.7.8zm-8.2 6.9c-.1.1-.1.1 0 .3l.7.7c.1.1.1.1.2 0 .4-.4.8-.8 1.2-1.3.1-.1.1-.1 0-.2-.2-.3-.5-.5-.7-.8-.1-.1-.1-.1-.2 0l-.6.6c-.2.3-.4.5-.6.7zm10.8-18.2c.1.1.1.1.2 0 .4-.5.8-.9 1.2-1.4.1-.1.1-.1 0-.2-.2-.2-.3-.4-.5-.5-.1-.1-.1-.1-.2 0-.5.5-1 .9-1.5 1.4-.1.1-.1.1 0 .2.2.2.4.4.6.7.1.1.1.1.2 0 .1 0 0-.1 0-.2l-.3-.3.3.3zm-5.9 15.1c.1-.1.1-.1 0-.2-.2-.2-.5-.5-.7-.8-.1-.1-.1-.1-.2 0-.4.4-.8.8-1.2 1.3-.1.1-.1.1 0 .2l.7.7c.1.1.1.1.2 0l.6-.6.6-.6zm-10.2-5c.1-.1.1-.1 0-.2-.2-.2-.5-.5-.7-.8-.1-.1-.1-.1-.2 0-.4.4-.8.9-1.2 1.3-.1.1-.1.1 0 .2.2.3.5.5.7.8.1.1.1 0 .2 0l.6-.6c.2-.3.4-.5.6-.7zm.6-2.6c-.1.1-.1.1 0 .2l.7.7c.1.1.1.1.2 0l1.2-1.2c.1-.1.1-.1 0-.2-.2-.2-.5-.5-.7-.8-.1-.1-.1-.1-.2 0l-.6.6c-.2.3-.4.5-.6.7zm17-4.2c.1.1.1.1.2 0 0-.1.1-.3.2-.4V18c-.1-.2-.1-.3.1-.4 0 0 0-.1-.1-.1l-1.1-1.1c-.1-.1-.1-.1-.2 0-.2.2-.4.3-.5.6v.2c.2.2.4.5.7.7.2.1.5.3.7.6zm-6.1-2.3s.1 0 .1-.1c.2-.2.4-.5.6-.7.1-.1 0-.2 0-.3.1-.1.2.1.3 0 .1-.1.2-.2 0-.4l-.2-.2s-.1-.1-.1 0v.1s.1.1 0 .2-.1 0-.2 0c-.1-.2-.3-.3-.4-.5-.1-.1-.1-.1-.2 0-.2.6-.4 1.1-.6 1.7v.2c.2.2.3.3.4.5.1-.2.1-.4.3-.5zm4.3 1.6c-.1.1-.1.2 0 .3l.6.6c.1.1.2.3.4.2 0 0 .1 0 .1.1.1.2.3.1.4 0 .4-.4.4-.4 0-.8s-.7-.8-1.1-1.2c-.1.4-.2.6-.4.8zm5.1.8-1.4-1.4c-.2-.2-.3.1-.4.1-.1.1-.1.2 0 .2 0 0 .1.1.1 0 0 0 .1-.1.1 0v.1c-.1.1 0 .1 0 .2l.3.3c.1.1.1.1.2 0s.2 0 .1.1 0 .2 0 .2l.3.3.1.1c.2-.1.3 0 .2.2 0 0 .1.1.1 0l.2-.2c.4.1.3 0 .1-.2zM28 11.8c-.4-.4-.9-.9-1.3-1.4-.1-.1-.1-.2-.2-.1l-.3.3c0 .1.1.1.1 0 .1-.1.2 0 .1.1s0 .2.1.3l.3.3c.1.1.2-.1.3 0 .1.1-.1.2 0 .3.1.1.3.2.4.4.1.1.2-.1.3 0 .1.1-.1.1 0 .3.2.2.2 0 .3-.1.2-.1.1-.2-.1-.4zM11.5 27.2c.1.1.1.1.2 0 .4-.4.4-.4 0-.8l-.4-.4s0-.1-.1-.1c-.3-.1-.3.2-.5.3-.1.1-.1.1 0 .2.1 0 .1.1.2.2.3.2.4.4.6.6zm9.6 4.6c-.4-.4-.4-.4-.7 0-.1.1-.1.1 0 .2l.8.8c.2 0 .3-.2.4-.3.1-.1.1-.1 0-.2s-.2-.3-.4-.4c0 0 0-.1-.1-.1zm2.8-1.9c.1.1.1.1.2 0 .4-.4.4-.3 0-.7l-.5-.5c-.1-.1-.1-.1-.2 0-.3.3-.3.3 0 .7l.1.1.4.4zm-5 5c.2.2.2.2.4 0 .2-.3.2-.3 0-.5l-.6-.6c-.1-.1-.1-.1-.2 0-.4.4-.4.4 0 .7l.2.2.2.2zm-4.8-10.8c.3.3.3.3.6 0 .1-.1.1-.2 0-.3-.2-.2-.4-.5-.7-.7-.1-.1-.1-.1-.2 0-.3.4-.3.4 0 .7l.1.1c.1.1.1.2.2.2zm-.5.7c.2.2.2.2.4 0l.1-.1c.1-.1.1-.2 0-.3-.2-.2-.4-.5-.7-.7-.1-.1-.1-.1-.2 0-.4.3-.4.3 0 .7 0 .1.1.1.2.2 0 .1.1.2.2.2zm13.9-11.2h-.1c-.1 0-.2.1-.4.1-.2.1-.2.1-.1.3l.2.2c.2.2.4.2.6 0l.1-.1c.4-.3.4-.3 0-.7 0 .2-.1.4-.3.2zm1.1 7.7c-.5.9-.9 1.8-1.4 2.7v.1c0 .1 0 .1.1.2.1 0 .1 0 .1-.1.5-1 1.1-2.1 1.6-3.1-.2 0-.3 0-.4.2zm5.5-2.3c-.2-.2-.3-.4-.5-.5 0 0-.1 0-.1-.1-.1-.3-.3-.5-.6-.6-.1 0 0-.1-.1-.2 0 0-.1-.1-.2-.1-.1.1-.1.1 0 .2.4.5.9 1 1.3 1.5.2.2.2-.1.3-.1-.1.1-.1-.1-.1-.1zm-7.9-7.8c.5.4.9.9 1.4 1.3 0 0 .1.1.2.1l.1-.1c0-.1-.1-.1-.2-.1s-.1-.1-.1-.2c-.2-.2-.3-.4-.6-.5-.1 0 0-.1-.1-.2-.2-.2-.3-.4-.5-.5-.1 0 0-.1-.1-.2-.3.2-.3.2-.1.4zm1.5 8.4-.1-.1c-.1-.1-.1 0-.2 0-.1.1-.1.1 0 .2.4.4.8.9 1.2 1.3.1.1.2 0 .3 0-.4-.5-.8-1-1.2-1.4zm-9.2 3.1c.2.1.2.3.5.3.1 0 .1.1.1.2v.1c.1 0 .1.2.2.1s0-.1-.1-.2c-.3-.3-.5-.6-.8-.8l-.1-.1c-.4-.2-.7-.3-1.1-.5l.6.6h.1c.2-.1.3 0 .3.1l1.5 1.5-.4-.4-1.1-1.1s-.1-.1-.1-.2.1 0 .1 0 .1 0 .1-.1c.1.3.2.4.2.5zm4.8-7.8c-.4.2-.7.3-1 .5-.3.2-.6.3-.7.6l2.7-1.5c-.4.1-.7.3-1 .4zm8.6 2.5c0 .1.1.2.2.2.1.1.1 0 .2-.1.5-.4.5-.4 0-.9l-.2-.2c-.1.4-.2.7-.2 1zm-10.3 1.3c.1.1.2.1.2-.1 0-.1.1-.2.2-.2s.2-.1.1-.2c-.2-.3-.5-.3-.8 0-.2.2 0 .3.1.4.1 0 .1.1.2.1zm-1.1 5.7s.1.1.2.1c.1-.1 0-.1-.1-.2-.6-.6-1.2-1.3-1.8-1.9-.1-.1-.1-.1-.3-.1.7.8 1.3 1.4 2 2.1zm7.8-11.8c-.1-.1-.1-.1-.2 0s-.2.3-.4.4c0 0-.1.1 0 .1 0 .1.1.1.2.1.3-.1.5-.1.9-.2-.2-.1-.4-.3-.5-.4zm.6 2.8c.2.2.4.3.7.2l-.9-.9c-.1.3 0 .5.2.7zm-4.2 2.5c.1-.1.2-.3 0-.3-.1-.1-.1-.3-.3-.2-.1 0-.2 0-.2.1-.1.1-.1.3 0 .5.2 0 .3 0 .5-.1zm6.2 1.5c-.2.2-.2.3 0 .5.1.1.2.1.2 0 .1-.3.1-.5.2-.8-.2 0-.3.2-.4.3zm-7.4 5.2c0-.1.1-.1 0-.2s-.1-.2-.2-.1h-.2c-.1 0-.2.1-.2.1-.1.1-.1.2 0 .2 0 0 0 .1.1.1.1.2.2.2.3 0 0 0 0-.1.1-.1 0 .1 0 .1.1 0zm-2.9 0c.6.6 1.1 1.1 1.6 1.7 0-.2-1.4-1.6-1.6-1.7zm4.8-10.5c.3.4.3.4.6.1l.2-.2c-.2 0-.5 0-.8.1zm-5.8 9.4s-.1-.1-.1 0v.1c.3.3.5.5.7.8 0 0 .1.1.1 0 .1 0 .1 0 .1.1v.1s.1 0 .1-.1v-.1l-.5-.5c-.1 0-.3-.2-.4-.4zm3.1 4.1c0-.1 0-.1 0 0-1.2 1.2-2.4 2.4-3.5 3.6 1.2-1.2 2.3-2.4 3.5-3.6zm-8.2-1.4c1.2-1.2 2.3-2.4 3.5-3.6-1.2 1.3-2.4 2.4-3.5 3.6zm7-10.4c-.1-.1-.1 0-.2 0-.3.2-.4.5-.7.6 0 0-.1.1 0 .1h.1c.2-.2.5-.3.8-.5 0 0 .1-.1 0-.2zm2.9 13.6c.1 0 .1 0 0 0 1.1-1.1 2.2-2.2 3.2-3.3-1 1-2.1 2.1-3.2 3.3zm5.9-9.6c.1 0 .2 0 .3-.1 0-.1-.1-.1-.1-.2l-.3-.3c-.1-.1-.1-.1-.2 0 0 .1 0 .3.1.4 0 .1.1.2.2.2zm-5.7-3.4-.1-.1c-.1.1-.1.2 0 .3l.3.3c.1.1.1 0 .2 0 .1-.1.1-.1 0-.2l-.2-.2c-.1 0-.2-.1-.2-.1zm-1.4 12.8s-.1-.1-.1 0h.1c.2.4.4.6.7.9 0 0 .1.1.1 0 .1 0 0-.1 0-.1l-.4-.4-.4-.4zm-4.3 2.3c-.9.9-1.7 1.8-2.6 2.6.9-.8 1.7-1.7 2.6-2.6zM21 18.2c-.1 0-.1-.1 0 0-.5.6-.8 1.2-1.2 1.8h.1c.3-.6.7-1.2 1.1-1.8zm8.4-1.6c-.5-.6-1.1-1.2-1.7-1.8.6.6 1.1 1.2 1.7 1.8zM23 26.8l-.5-.5s-.1-.1-.2 0 0 .1 0 .1l.6.6c.1-.1.1-.2.1-.2zm6.6-2.7c.8-.8 1.7-1.7 2.5-2.6-.8.8-1.6 1.7-2.5 2.6zm-3.5-13.3-2.5 2.5c.9-.8 1.7-1.7 2.5-2.5zm-6.5 23.7c0 .1 0 .1 0 0 .1 0 .1 0 0 0-.2-.4-.5-.7-.8-1l-.1.1c.3.3.5.7.9.9zm5.6-8.8s.1.1 0 0c.6-.3 1.3-.7 1.9-1.1v-.1c-.6.4-1.3.8-1.9 1.2zm-1-12.8c0 .2.2.3.3.4l.3.3c.1.1.2.3.4.3l-1-1zm-2.9 4.9c.5-.2 1-.5 1.5-.7V17c-.6.2-1.1.5-1.5.8zm-6.7 5.8.3.3h.1v-.1l-.9-.9-.1.1.6.6zm14.5-2.5c-.1 0-.1 0 0 0-.3.5-.6 1-.8 1.5h.1c.1-.4.4-.9.7-1.5zm-12.6 1.2c-.3-.4-.6-.7-.9-1l-.1.1c.4.3.7.6 1 .9zm11.7.4c-.3.5-.6 1-.8 1.5h.1c.2-.4.5-1 .7-1.5zm-6.7 8c.2.4.6.7.9 1l.1-.1c-.4-.3-.7-.6-1-.9zm-7.8-5.5s0-.1 0 0c-.3-.4-.6-.7-.9-1 .3.3.6.6.9 1zm-2.4.7.8.8.1.1c.1-.1 0-.1 0-.1l-.9-.9c-.1 0 0 .1 0 .1zm9 6c0 .1 0 .1 0 0 .3.4.6.7.9 1-.3-.3-.6-.6-.9-1zm-7.4-4c.5-.4.9-.9 1.3-1.3-.5.3-.9.8-1.3 1.3zm16.9-8.5s0-.1 0 0c-.3-.4-.6-.7-.9-1 .3.4.6.7.9 1zm-3-2.9c.1-.1 0-.2-.1-.3-.1-.1-.1-.3-.3-.1-.1.1.1.2.1.3.1 0 .2.2.3.1zM9.1 28.2c.5-.5 1-1.1 1.6-1.6-.6.5-1.1 1-1.6 1.6zM24 17.4c.1-.1.1-.2 0-.3-.1-.1-.2-.1-.3 0-.1.1-.1.2 0 .3.1 0 .2.1.3 0zm-3.3 7.2c.5.5 1 1.1 1.5 1.6-.4-.6-1-1.1-1.5-1.6zm11.7-6.9c-.1-.1-.1-.1-.2 0s-.1.2-.3.1c.1.2.2.2.3 0 .1-.1.2-.1.2 0 .1.2.3.3.4.5-.1-.2-.2-.4-.4-.6zm-4.9-5c.1.1.1.2 0 .3l-.1.1v.1c.1.1.1 0 .1 0l.1-.1c.1-.1.1-.1 0-.2l-.6-.6c.2 0 .3.2.5.4zm.7 5.2c.1-.1-.1-.2-.1-.2-.1-.1-.1-.3-.3-.1-.1.1.1.2.1.3.1-.1.1.2.3 0zm-.7-.3c-.1.1 0 .2.1.3.1.1.1.3.3.2.1-.1-.1-.2-.1-.3-.2-.1-.2-.3-.3-.2zm-1.2-1.2c-.1.1.1.2.1.3.1.1.1.3.3.1.1-.1-.1-.2-.1-.3-.1 0-.2-.2-.3-.1zm-8.8 20.1s.1 0 0 0l1.4-1.4c-.4.5-.9.9-1.4 1.4zm5.9-11.6c-.1-.1-.1-.1-.1 0-.2.2-.3.4-.5.6.3-.2.5-.4.6-.6zM19.1 18c.2 0 .2-.2.4-.3 0 .1-.2.2-.2.3.3-.1.2-.4.4-.6-.2.3-.4.5-.6.6zm-6.7 10.4c-.3.3-.6.6-.9 1 .2-.4.6-.7.9-1zm17-15.4c0-.1.1-.2.2-.2v-.1h-.1c-.1.1-.3 0-.3.1s.1.1.1.2h.1zm1.9 5.7c-.2.2-.4.3-.5.5.2-.1.4-.3.5-.5zm-10.9-1.8c-.3.1-.5.4-.6.7.2-.3.4-.5.6-.7zm1.5 6.4-.9.9.8-.8c.1-.1.2-.2.4-.2-.2 0-.2 0-.3.1zm-.7 2.7c-.1-.3-.4-.4-.6-.7.2.3.4.5.6.7zm9.2-4.4c-.1 0-.1 0 0 0-.2.3-.4.6-.5.9.1-.2.3-.5.5-.9zm-18.3 6.7c0-.2-.2-.4-.4-.5.1.2.2.4.4.5zm8.5 2c-.1 0-.1 0 0 0 .1.2.2.3.3.4 0-.2-.2-.3-.3-.4zm6-16.4c-.1 0-.4.3-.5.5.2-.2.4-.3.5-.5zm-8 21.2c.1-.1-.1-.2-.2-.3-.1-.1-.1-.2-.2-.2-.1.1.1.1.1.2.1.2.2.4.3.3zm9.7-9.9c-.2.1-.3.3-.5.4.2-.1.4-.2.5-.4zm-2.7-10.7c0-.2-.1-.3-.3-.3l.3.3zm6.5 6.8c-.1-.2-.2-.3-.4-.5v.1c.1.1.2.3.4.4zm-17 3.2c-.1-.1-.1-.1 0 0-.1 0-.1 0 0 0 .1.2.2.3.3.4l.1-.1c-.2-.1-.3-.2-.4-.3zm-4 2.8c-.1-.2-.2-.3-.4-.4.1.1.2.3.4.4zm6.5 6.8c0-.2-.2-.4-.5-.5l.5.5zm3.2-3.3c-.1-.2-.2-.3-.4-.4.1.2.2.3.4.4zM32.5 18c.1.2.2.3.4.4-.1-.2-.3-.3-.4-.4zM17.7 34.2c.1.2.3.3.5.5-.1-.3-.3-.5-.5-.5zm15.2-15.7c.1.2.2.3.4.4-.1-.1-.2-.3-.4-.4zm-1.7 1.8c0 .2.2.4.4.4-.1-.1-.2-.3-.4-.4zm-19.9 7c-.1 0-.1.1 0 0-.1.1-.1.1 0 0v.1c.1.1.2.2.3.4 0-.1-.3-.4-.3-.5zM33.4 19c.1.2.2.3.4.4-.1-.2-.2-.3-.4-.4zm-18.5 5.6c.1.2.2.3.4.4-.1-.2-.3-.3-.4-.4zm11.6-12.9c.1.2.2.3.4.4-.1-.1-.2-.3-.4-.4zm-2.4 13.4c-.1-.2-.2-.3-.4-.4.1.2.2.3.4.4zM26 11.2c.1.2.2.3.4.4-.1-.1-.3-.2-.4-.4zm4.2 8 .4.4c-.1-.2-.3-.3-.4-.4zm-2.9-6.5c-.1-.2-.2-.3-.4-.4.2.1.3.3.4.4zm5 8.6.7-.7-.7.7zm-14.2 7.2s0-.1 0 0H18s-.1.1.1.1h.1c0 .2.1.1.2.1v-.1c-.1 0-.2-.1-.3-.1zm13.7-10.4c-.1.1-.3.1-.3.4.1-.2.3-.2.3-.4zm-4.9-4.5c.2 0 .3-.1.4-.4-.2.1-.3.3-.4.4zM28 25.9c-.1-.1-.1 0-.2.1 0 0-.1.1 0 .1.1.1.1 0 .1-.1.1 0 .2-.1.1-.1zm-16.8 3.6-.6.6.6-.6zm4.2 5.6.5-.5c-.1.2-.3.3-.5.5zm2.9.8c.1.1.1 0 .1 0s.1-.1.1-.2c-.1-.1-.1 0-.2 0 0 .1-.1.2 0 .2zm-1.2-16.1c-.1 0-.1 0-.2.1 0 0-.1.1 0 .1.1.1.1 0 .1 0 .1-.1.2-.1.1-.2zm.1 7.7-.3-.3c.1.1 0 .3.3.3zm8.1-16.1c-.1 0-.1 0-.1.1l-.1.1c.1.1.1 0 .2-.1 0 0 .1-.1 0-.1zm-.4.4c-.1-.1-.1 0-.2.1l-.1.1c.1.1.1 0 .1-.1.2 0 .3 0 .2-.1zm7 10.1c-.1-.1-.1 0-.1.1l-.1.1c.1.1.1 0 .2-.1 0 0 .1-.1 0-.1zM20 24.5c.1.1.2.3.4.4-.1-.2-.3-.3-.4-.4zm5.4 4c-.1-.1-.1 0-.1.1 0 0-.1.1 0 .2s.1 0 .1-.1c0 0 .1-.1 0-.2zm-5.7-11.3c-.1 0-.1 0-.2.1 0 0-.1.1 0 .1.1.1.1-.1.2-.1 0-.1.1-.1 0-.1zm2.2-2.3c-.1-.1-.1 0-.1.1l-.1.1c.1.1.1 0 .1-.1 0 0 .1 0 .1-.1zm-1.8 1.8c-.1-.1-.1 0-.1.1l-.1.1c.1.1.1 0 .1 0 .1-.1.2-.1.1-.2zm1.3-1.3c-.1-.1-.1 0-.2.1l-.1.1c.1.1.1 0 .1-.1.2 0 .3-.1.2-.1zm5.3 11.8s-.1 0-.1.1l-.1.1c.1.1.1 0 .1 0 .1-.1.2-.1.1-.2zm-6.3-10.7c.1.1.1 0 .1 0s.1-.1.1-.2c-.1-.1-.1 0-.1.1-.1 0-.2 0-.1.1zm4.4 12.7c.1.1.1 0 .1-.1l.1-.1c-.1-.1-.1 0-.1 0-.1.1-.2.1-.1.2zm7.6-7.8c-.1 0-.1 0-.1.1l-.1.1c.1.1.1 0 .1 0 .1-.1.1-.1.1-.2zm-.9.9c-.1-.1-.1 0-.1.1 0 0-.1.1 0 .1.1.1.1 0 .1-.1 0 0 .1 0 0-.1zm-.4.5c-.1-.1-.1 0-.1.1l-.1.1c.1.1.1 0 .1-.1.1 0 .1-.1.1-.1zm-.9.9c-.1-.1-.1 0-.2.1 0 0-.1.1 0 .1.1.1.1 0 .2 0 0-.1.1-.2 0-.2zm-.4.4c-.1-.1-.1 0-.1.1l-.1.1c0 .1.1 0 .1-.1.1 0 .1-.1.1-.1z"/><path d="M23.8 19.7c.1-.1.1-.1 0 0h-.3c.1-.1.2-.1.3-.2-.1-.1-.3-.1-.2-.3.1-.2.3-.4.5-.4.1 0 .1 0 .1-.1s0-.2-.2-.4c0 .2 0 .3-.1.4-.1.1-.3.2-.4.1-.2-.1-.2-.2-.3-.4 0-.2-.1-.3 0-.5.1 0 .2 0 .3-.1.3 0 .4.2.6.4-.1-.3-.3-.4-.5-.5.3 0 .6.4.7.8 0 .2 0 .3.2.4.1 0 0 .1 0 .2s-.1.3 0 .4c.1.1.1.2 0 .3-.1.1-.1.1-.2 0-.2-.1-.3 0-.4.2-.2.3-.4.5-.6.8-.1.1-.1.1 0 .2s0 .1-.1.2c-.1 0-.4-.2-.4-.3 0-.1 0-.1.1-.2h.1c.1.1.2 0 .2-.1l.6-.9c0 .1 0 .1 0 0zm.3-.3c.1-.2 0-.3-.1-.4-.1-.1-.2 0-.3.1-.1.2-.1.3.1.4.1 0 .1.2.3.2 0-.1.1-.2 0-.3zm-.6-1.1c0 .1-.1.1-.1.2 0 0-.1-.1-.1.1 0 .1.1.2.2.2h.2c0-.1 0-.2.1-.2s0-.2-.1-.3c-.1-.1-.2-.2-.2 0zm.4 1.6c-.3.3-.6.7-.8 1h.1c.2-.3.5-.6.7-1zM25.1 20.6c0 .2 0 .1 0 0l.1.1c.1 0 .3 0 .3.1 0 .2-.1.5-.3.5-.1 0-.1.1-.1.2.2.3.4.4.7.4 0 .1.2.1.2.1-.3.1-.6 0-.9-.2-.1-.1-.2-.3-.3-.4l.1-.1c0-.1-.1 0-.2 0-.1-.1-.1-.1-.2 0s.1.1.1.2c-.1 0-.2 0-.2-.2 0-.1-.1-.3-.2-.3s-.1-.1-.1-.2.1-.1.2-.1c.2 0 .3-.1.3-.3 0-.1 0-.2.1-.3 0 .2-.1.3 0 .5.1-.4.2-.9.3-1.3.2.4.1.8.1 1.3 0-.1 0-.2.1-.2.1-.1.2-.3.5-.2-.3.1-.5.2-.6.4zm-.1.5c0 .2.1.2.3.2.1 0 .2-.1.2-.2 0-.3.1-.3-.2-.3H25c-.2 0-.1.2-.1.2-.1.1 0 .1.1.1zm.7 1c-.3-.1-.5-.3-.6-.6 0 .3.3.6.6.6z"/><path d="M25.9 22.1c0 .1.2.1.2.1.4-.1.7-.4.8-.7-.1.2-.2.5-.5.5.3-.1.3-.4.4-.6 0-.2 0-.3-.1-.5v.5c-.1-.1-.2-.1-.2 0-.2.3-.2.3-.5 0l-.1-.1c-.2-.2-.2-.2 0-.4.1-.1.2-.1.1-.3.2.1.4.4.6.5l-.5-.5s-.1-.1-.1 0l-.1.1c.1.1 0 .1 0 .2-.2.2-.2.2 0 .5l.1.1c.2.2.2.2.5 0l.1-.1c.1.1 0 .1 0 .2-.1.3-.4.4-.7.5zM22.3 18.9c0 .4.2.7.6.9.3.2.7.2 1-.1-.2.1-.4.2-.6.1-.4 0-.7-.3-.8-.6.2.4.5.6.9.6-.3-.1-.6-.2-.8-.5-.1-.2-.1-.5-.1-.7-.2.1-.1.2-.2.3 0 .2 0 0 0 0zM25.2 19.3c.1-.1.3 0 .2-.2 0-.2-.2-.1-.3-.2-.1 0-.2 0-.2.1-.1.1 0 .1.1.2.1 0 0 .1 0 .2 0 .2-.1.4-.1.6.1-.2.1-.4.1-.6.1-.1.1-.2.2-.1z"/><path d="M26.1 20.1c.1.1.3.1.5.3-.3-.1-.5-.3-.7-.2.1.1.4 0 .5.3.3 0 .3.3.4.4 0-.1-.1-.2-.1-.4.2.2.2.4.2.6.1-.4-.3-.9-.8-1zM23.2 18c.1 0 .2 0 .3-.1 0-.1-.1 0-.2-.1.1-.1.2 0 .2 0-.2-.1-.3-.1-.5 0 0 .1.1 0 .2.1-.5.1-.7.3-.8.7.1 0 .1-.1.1-.1.2-.3.4-.5.7-.5z"/><path d="M22.3 18.7c.1-.2.1-.4.2-.5.2-.2.4-.3.6-.4-.4.1-.8.5-.8.9zM14.4 29.9c0 .1.1.1.2.1.5-.1.9-.9.7-1.4-.1-.3-.4-.5-.6-.7-.2-.1-.5-.1-.8 0-.5.2-.8.9-.5 1.4.1.2.3.4.5.5.1 0 .1.1.2 0H14c-.3-.1-.5-.3-.5-.6 0-.2-.1-.4 0-.6.1-.4.4-.7.7-.7h.1c.1-.1.2 0 .3.1.5.2.7.5.7 1 .1.1 0 .2 0 .3-.1.3-.3.5-.6.5h-.1l-.2.1zM16.9 32.3c.3-.1.5-.3.6-.7.1-.3.1-.6-.2-.9-.2-.2-.3-.4-.6-.5-.1 0-.2 0-.2.1.3 0 .5.2.7.4.2.2.3.5.2.8.1.1 0 .1 0 .2-.1.4-.3.5-.5.6z"/><path d="M13.4 28.7c-.1.2 0 .4 0 .6.1.2.3.5.5.6h.1c.1 0 .2.1.3 0v-.1c-.7 0-.9-.5-.9-1v-.1zM15.6 31.1c.1-.2.2-.4.4-.5.1-.1.2-.2.4-.1H16.7c0-.1-.1-.1-.2-.1-.5-.1-.9.3-.9.7zM15.6 31.6c0 .4.4.7.8.8-.1-.1-.2-.1-.3-.2-.1 0-.1 0-.1-.1-.2-.1-.3-.3-.4-.5zM17.5 30.4c-.1-.1-.1-.1-.2 0s0 .1.1.2.1.1.2 0c0-.1-.1-.2-.1-.2zM15.1 28.2c.1.1.1.1.2 0s0-.1 0-.2-.1-.1-.2 0c-.2.1-.1.1 0 .2zM14.2 27.2h.2v-.1c0-.1-.1 0-.2 0v.1zM14.3 29.9c0 .1.1 0 0 0l.1.1c0-.1 0-.1-.1-.1zM20.3 20.4c0 .1.1.1.1.1.1-.1.2 0 .3.1.1.1.2 0 .3-.1 0-.1.1-.1.1-.2.2-.3.2-.4-.1-.6-.1 0-.1-.1 0-.1 0 0 0-.1-.1-.1h-.3v.2c.1 0 .1-.2.2-.2-.1.2-.1.2.2.4.1.1.1.1 0 .2l-.1.1c-.1.2-.2.2-.4.1 0 .1 0 0-.2.1zM19.9 22.1l-.2-.2c-.1-.1-.1 0-.2 0-.1.1-.1.3-.3.2v.1c.1 0 .1.1.2 0-.1-.1 0-.1.1-.2.1-.2.2-.2.3 0 0 .1 0 .1.1.1.2.3.2.3-.1.6-.1.1 0 .1 0 .1s0 .1.1.1 0-.1 0-.1v-.1c.2-.3.2-.3 0-.6z"/><path d="M20.6 19.7c-.1.1-.2.2-.2.3 0 .1 0 .1-.1.1s-.1 0-.1.1.1.1.1.1c.1-.1.3-.3.3-.6zM19.4 22.6l-.3-.3c-.1-.1-.1 0-.2 0v.1s.1.1.1 0c.2-.2.2.1.4.2-.1 0 0 0 0 0zM18.6 26.9c-.1-.1-.1-.3 0-.4.1-.1.3-.1.4 0 .1.1.1.3 0 .4-.1.1-.3.1-.4 0zm.3-.3c-.1-.1-.2-.1-.2 0-.1.1-.1.1 0 .2s.2.1.2 0c.1-.1.1-.2 0-.2zM20.7 26.1c-.1.1-.1.2 0 .3.1.1.2.1.2 0 .1-.1.1-.2 0-.3-.1-.1-.2 0-.2 0zM19.1 24.8c.1.1.2.1.3 0 .1-.1.1-.2.1-.3-.1-.1-.2 0-.3 0-.2.1-.2.2-.1.3zM15.8 26.3c.1.1.2.1.2.2.1.1.2 0 .4.1v-.1c-.1-.1 0-.2.1-.3.2-.2.3-.4.6-.6.2-.1.3-.3.5-.4h.2c-.1-.3.2-.3.3-.5.1-.1.1-.2.3-.1 0 0 .1 0 .1-.1-.1-.2.2-.3.2-.4h.1s.1.1.2 0v-.2c0-.1 0-.1.1-.1h.1v-.1c-.3-.1-.4-.4-.6-.6-.1-.1-.2-.1-.3 0-.8.9-1.7 1.8-2.5 2.6-.1.1-.1.2 0 .4-.1.1 0 .2 0 .2zM28.3 19.6c.1.1.1.1.2.1.1-.1 0-.1 0-.2-.1-.1-.1-.1-.2-.1-.1.1 0 .1 0 .2zM21.6 25.3c.1.1.2 0 .3 0 .1-.1.1-.2 0-.3-.1-.1-.2-.1-.2 0-.1 0-.2.1-.1.3zM20.1 33.1c-.1-.1-.2-.1-.3 0-.1.1-.1.2 0 .3.1.1.2.1.3 0 .1-.1.1-.2 0-.3zM22.9 30.6c.1-.1.1-.2 0-.3-.1-.1-.2-.1-.3 0-.1.1-.1.2 0 .3.1 0 .2.1.3 0zM12.3 25.6c.1.1.2.1.3 0 .1-.1.1-.2 0-.3-.1-.1-.2-.1-.3 0-.1.1 0 .2 0 .3zM15.1 22.4c-.1.1-.1.2 0 .3.1.1.2.1.3 0 .1-.1.1-.2 0-.3-.1-.1-.2-.1-.3 0zM29.5 16.5s0-.1 0 0c.3-.3.3-.3.4 0v-.4c-.2.1-.3.3-.4.4zM29.4 18.4c.1.2.2.3.3.4 0-.2-.1-.3-.3-.4zM23.1 24.7l.1-.1c.3-.1.1-.2 0-.2.1.1 0 .2-.1.3zM22.4 23.6c.1.1 0 .2-.1.3.1 0 .2-.2.3-.1 0 0 .1-.1 0-.1 0-.1-.1-.1-.2-.1zM24 17.3v-.2h-.2v.2h.2zM24.1 19.4c-.1.1-.2-.1-.4-.1l.3.3c.1 0 .2-.1.1-.2zM25 21.1c.1-.1.1-.2.1-.3H25c-.1.1-.1.2 0 .3zM15.1 29.1c-.1.4-.3.6-.6.8h.1c.2-.1.4-.3.6-.5 0-.1 0-.2-.1-.3zM14 28.2c0-.1.1-.1.2-.1-.1-.1-.3 0-.4.1-.2.1-.3.3-.4.5.1-.2.2-.4.3-.5.1 0 .2-.1.3 0zM17.4 31.7c-.1.2-.2.3-.4.4-.4.2-1 0-1.1-.4-.1-.2-.1-.4-.1-.6-.1.1 0 .3 0 .4.1.3.3.5.5.7.2.1.4.1.6.1.1-.1.4-.2.5-.6zM15.7 31.2c.1-.3.3-.6.6-.7 0 0 .1 0 .1-.1h-.1c-.3.2-.6.4-.6.8z"/><path fill="#010101" d="m34.1 26.4-1.5-3.7 1.5-1L36 25l-1.9 1.4zm-1.2-3.5 1.3 3.1 1.4-1.1-1.6-2.8-1.1.8zM13 19.6l-1.2-.6.6-1-.7-.9 2-.7.2-.8 1.9 2-.3 1.5-2.5.5zm-.8-.7.8.4 2.2-.4.3-1.2-1.5-1.6-.1.4-1.7.6.6.8-.6 1zM8.7 25.7l-.2-.2.7-.8 1.2-.3v-.5l.4.1-.1.7-1.3.3z"/><path d="m22.8 33.8-.4.5-1 .5-.7.7-.3 1.5 1-.7.8-.6.8-.5z"/><path fill="#010101" d="m20.2 37.3.4-1.9.8-.8 1-.5.6-.7.2 1.8-.9.5-.9.7-1.2.9zm.6-1.7-.2 1.1.6-.4.9-.7.7-.4-.1-.9-.2.2-1 .5-.7.6z"/><g fill="#010101"><path d="m11.9 32.1-.1-.1c-.3-.3-.5-.6-.5-1 0-.2.1-.4.2-.5-.1-.1-.1-.3-.1-.3-.1-.4 0-.8.3-1.1l.3-.3s.1 0 .1-.1c.1 0 .1-.1.2-.1h.1c.2-.1.4-.2.7-.2h.2v-.2c.1-.3.3-.6.6-.7h.3c.1 0 .1.1.2.1 0 0 .1.1.1.2l.1-.1c.1-.1.2-.1.3-.2 0 0-.1-.1-.1-.2 0-.3.2-.5.3-.7.1-.2.3-.3.5-.4.3-.1.5-.1.8.1h.1v-.1c0-.1 0-.1.1-.2.1-.3.3-.5.5-.7l.1-.1c.2-.2.4-.3.6-.4.3-.1.5-.1.8 0 .1.1.2.2.2.3.1.2.1.4.1.6 0 .3-.2.4-.3.5l-.1.1.1.1c.1.1.1.2.2.3l.1-.1c.1-.1.2 0 .3.1l.1.1c.1.1.2.2.3.4.1-.1.2-.1.3-.2.2-.1.5-.2.7-.2.1 0 .3 0 .4.1.2.1.3.2.4.3.2.2.3.6.2.9 0 .1-.1.1-.1.2h.1l-.1.1c-.1.1-.1.1-.2.1h-.1c0 .1 0 .2-.1.3-.1.1-.2.2-.4.3-.2.2-.5.1-.7.1-.1 0-.1 0-.2-.1 0 .2-.1.3-.3.4 0 0-.1 0-.1.1-.1.1-.2.1-.3.2H19c-.1 0-.2 0-.2-.1v-.1c-.1.1-.3.2-.4.3-.2.1-.4.1-.6 0-.1 0-.3-.1-.4-.2 0 .1-.1.2-.1.3-.1.2-.2.3-.3.3 0 0-.1 0-.1.1-.2.2-.4.3-.6.5-.1 0-.1.1-.2.1H16c-.1 0-.2 0-.2-.1v-.1c-.1.1-.3.1-.5.1 0 0 .1.1 0 .2 0 .1-.1.2-.1.2-.2.2-.4.3-.7.4-.3.1-.5 0-.8-.2-.1-.1-.2-.3-.3-.5v-.2h-.1c.1.1 0 .2 0 .3-.1.2-.3.3-.4.4-.1 0-.3.1-.4 0-.1 0-.3-.1-.4-.1l.1.1c.1.1.1.2 0 .3l-.3.3zm1.6-1.1c0 .1.1.3.2.4.2.2.3.2.5.2l.6-.3.1-.1h-.2s-.1-.1-.1-.2c0 0 0-.2.2-.2H15.1c.1 0 .3-.1.4-.1.2-.1.3-.2.5-.4 0 0 0-.1.1-.1l.2-.2v.3c0 .1 0 .2-.1.2 0 .1-.1.2-.2.2.2-.1.3-.2.4-.4 0 0 .1 0 .1-.1.1-.1.2-.2.2-.3.1-.2.1-.3 0-.4h-.2v-.1c0-.1-.1-.1-.2-.2l-.2-.2-.1-.3.3.1c.2.1.3.2.4.3l.1.1.1.1.6-.3c.1-.1.2-.1.2 0h.1v.1c0 .1 0 .1-.1.2l-.1.1-.3.3c.1.1.2.1.3.2h.5c.2-.1.4-.2.4-.4 0-.1.1-.1.1-.2l.1-.1.1.1c.1 0 .1.1.1.1.1.1.1.3 0 .4.1 0 .1-.1.2-.1l.1-.1c.1-.1.2-.2.2-.3 0-.1.1-.1.1-.1H19.8s.1 0 .1.1c.2.1.4.1.5 0l.3-.3c.1-.1.1-.1 0-.2v-.2c.1-.1.1-.2 0-.3V28h.1c.1 0 .1.1.2.1 0 .1.1.1.1.2.1-.1.1-.1 0-.3v-.1l-.1-.1c-.1-.1-.2-.2-.3-.2h-.1c-.1 0-.2-.1-.3-.1-.2 0-.4 0-.6.1-.1 0-.2.1-.2.2-.1.1-.1.1-.2.1 0 0-.1 0-.2-.1s-.2-.3-.3-.4l-.1-.1V27.6c0 .2-.2.4-.3.5l-.3.4.1-.5v-.1c.1-.2.1-.4.1-.5 0-.1-.1-.3-.2-.4 0-.1-.1-.1-.2-.2h-.2l-.1-.2c.2 0 .3-.1.5-.1h.1c.1-.1.2-.3.2-.4 0-.1 0-.3-.1-.4-.1-.1-.1-.2-.2-.2.1-.5-.1-.5-.3-.5-.2.1-.4.2-.5.4l-.1.1c-.2.2-.3.3-.5.6 0 0 0 .1-.1.2v.1s0 .1-.1.2c-.1 0-.2 0-.2-.1 0 0-.1 0-.1-.1-.1-.1-.3-.1-.5 0s-.3.2-.4.3c-.1.2-.2.4-.2.5.3-.1.6-.1.8 0 0 0 .1 0 .1.1v.2h-.5c-.3 0-.6.1-.9.3-.1.1-.2.1-.3.3-.1.1-.1.1-.1.2l-.1.2-.1-.1v-.1c0-.2.1-.3.2-.4 0 0-.1 0-.2-.1h-.1c-.2.1-.3.2-.4.5V28.6s0 .1-.1.2H13c-.2 0-.4 0-.5.1 0 0-.1 0-.1.1 0 0-.1 0-.1.1 0 0-.1 0-.1.1-.1.1-.2.2-.3.2-.2.2-.3.5-.2.9 0 .1.1.2.1.2.1.2.1.3 0 .4-.1.1-.1.2-.1.3v.1l.1.1h.1c.2.1.3.2.6.3h.3c.1-.1.2-.1.3-.2v-.2c-.1 0-.2 0-.3-.1-.1-.1-.1-.2-.2-.2v-.1l-.1-.3.3.1c.1 0 .1.1.1.1.1.1.2.1.3.1.2 0 .4-.1.6-.3.1-.1.2-.2.3-.4l.2-.3v.7c0 .2-.1.3-.3.3-.2-.1-.3-.1-.5.1.1 0 0 0 0 0zm1.4.1zm-1.9 0zm1.9 0zm-1.4-.1zm3.5-1.7c0 .1 0 .1.1.1 0 0 0-.1.1-.1l.1-.1c-.2 0-.3 0-.3.1zm-2-2zm1.5-1z"/><path d="M14.7 33.6c-.1 0-.2 0-.3-.1-.3-.1-.5-.4-.7-.7 0 0 0-.1-.1-.2 0 0 0 .1-.1.1-.2.2-.5.5-.9.4-.1 0-.2-.1-.3-.1-.2-.2-.3-.4-.3-.7 0-.1 0-.2-.1-.2l-.1-.1c0-.1-.1-.1-.1-.2-.1-.1-.2-.3-.2-.5v-.2s0-.1.1-.1c0 0 .2-.1.2.1.1 0 .1.1.1.1.1.1.2.1.3.1.2 0 .3.1.4.1.1 0 .2-.1.3-.2V31c-.1 0-.2 0-.3-.1-.1-.1-.1-.2-.2-.3v-.1c0-.1 0-.2.1-.2 0 0 .1-.1.2.1.1.1.2.2.4.2.3 0 .6-.3.8-.5 0-.1.1-.1.1-.2.1-.1.2-.1.2-.1s.1 0 .1.2v.3c0 .2-.2.4-.4.5-.1 0-.1.1-.2.1l-.1.1c0 .1 0 .1.1.1l.1.1v.1c.2.1.3.2.5.1s.4-.2.5-.3c-.1 0-.2-.1-.2-.1s-.1-.1-.1-.2.1-.1.2-.1h.5c.2 0 .4-.1.5-.2.2-.1.3-.3.5-.4.1-.1.2-.1.2-.1s.1.1.1.2 0 .2-.1.2l.3-.3c.1-.1.2-.2.3-.4v-.1l-.1.1-.1-.1s-.1-.1-.1-.2c0-.2 0-.3-.2-.4l-.1-.1-.1-.1c-.1-.1-.1-.2 0-.2 0 0 .1-.1.2-.1.2.1.4.2.5.3l.1.1h.1c.2-.1.4-.2.5-.3.1-.1.2-.1.2 0 0 0 .1.1.1.2s0 .2-.1.3l-.1.1c-.1.1-.1.2-.2.3.1.1.2.1.3.1.2 0 .3 0 .5-.1.1-.1.2-.2.3-.4V29c0-.1.1-.2.1-.2s.1 0 .2.1.1.3.1.4c.1-.1.2-.1.3-.2.1 0 .1-.1.1-.2l-.1-.1.1.1v-.1c0-.1.1-.2.1-.2h.2c.1.1.2.1.3.1.3.1.4.1.5-.1l.1-.1.2-.2v-.1l-.1-.1c0-.1 0-.1.1-.1.1-.1.1-.3 0-.5v-.2s.1-.1.2 0 .2.1.3.2v-.2c0-.1.1-.2.1-.2h.2c.1.1.1.3.1.5s-.1.3-.2.4c.1 0 .2.1.3.2.1.2.2.3.1.5v.1h-.1c-.1.4-.2.7-.5.9-.4.3-.5.3-.6.3-.1 0-.2-.1-.2-.1-.1 0-.1.1-.2.1s-.1.1-.2.1H20c.1.2.1.5-.1.7-.1.1-.2.2-.4.3-.1 0-.1.1-.2.1-.2.1-.3.2-.5.2h-.4c0 .1 0 .1-.1.2s-.1.2-.3.2c-.2.2-.5.2-.7.2-.1 0-.1 0-.1-.1-.1 0-.2.1-.3.2-.1.1-.2.1-.3.1-.1 0-.1 0-.2.1h-.2c-.1 0-.2-.1-.2-.1v-.1l-.2.2c.1 0 .1.1.1.2.1.3 0 .5-.2.8-.4.2-.7.3-1 .3zm-1.1-1.4.1.1c.1.1.1.1.1.2s.1.2.1.3c.1.3.3.5.5.6.3.1.7 0 .9-.3.1-.2.2-.3.1-.5-.2.1-.4.1-.6 0l.1-.2h.2c.1 0 .2-.1.3-.1 0 0 .1 0 .1-.1l.3-.3c0-.1.1-.2.1-.3v-.1c0-.2.1-.2.2-.2s.1 0 .2.2v.7h.1c.1 0 .1-.1.2-.1s.2-.1.3-.1c.1-.1.3-.2.4-.2l.1-.1.1-.1v-.1c0-.1 0-.1.1-.1h.3c0 .1 0 .1-.1.2 0 0 0 .1-.1.1v.1s0 .1-.1.1c.2 0 .4 0 .5-.1.1 0 .1-.1.2-.1-.1-.1-.2-.2-.2-.3l-.3-.5.5.3c.2.1.4.2.7.1.2 0 .3-.1.4-.2.1 0 .1-.1.2-.1.1-.1.2-.2.4-.2.1-.1.1-.2.1-.3l-.1.1-.1.1c-.1.1-.1.1-.3.1h-.4l.3-.3v-.1s.1-.1.2-.1c.1-.1.1-.2.2-.4 0-.1 0-.3-.1-.4l-.1-.2s0 .1-.1.1c-.1.1-.3.2-.4.3 0 0-.1 0-.1.1H19c-.1 0-.2 0-.2-.1 0 0-.1-.1 0-.2v-.2c-.1.2-.2.3-.3.4-.2.1-.4.2-.7.2-.2 0-.3-.1-.5-.2-.1-.1-.1-.1-.1-.2 0 0 0-.1.1-.2l.2-.2c-.1 0-.2.1-.2.1-.1 0-.2.1-.2.1l.1.1c.1.1.1.3.1.5-.1.2-.2.3-.3.5-.2.2-.4.4-.7.6l-.1.1s-.1.1-.2 0c0 0-.1 0-.1-.1v-.1c-.2.1-.3.1-.5.2H15.1c.1 0 .2.1.2.1v.2c-.2.2-.4.4-.7.5-.3.1-.5 0-.7-.2l-.1-.1v-.1c-.1-.1-.1-.1-.1-.2s0-.2.1-.3l.1-.1c.1-.1.2-.1.3-.2.2-.1.2-.1.2-.3-.2.3-.5.5-.9.6h-.4c0 .1.1.1.1.1.1 0 .2 0 .2.1.1.1 0 .2 0 .3v.2c-.1.2-.3.3-.4.3-.2.1-.4 0-.6-.1-.1 0-.2-.1-.3-.1 0 0 0 .1.1.1l.2.2.1.1c.2.1.2.3.2.5s.1.3.2.5l.1.1h.1c.3 0 .5-.1.7-.3.1-.1.1-.1.1-.2v-.1l-.3-.5zm-1.6.2zm.3 0zm.7-1.3zm6.8-1.1s.1 0 0 0c.1 0 .1 0 0 0 .1 0 .1 0 0 0v-.1.1zm.3-.1zm-.6-.8.2.2.2.2c.1.1.2.2.2.4l.1-.1c.2-.1.3-.2.4-.4l.2-.5v.5c0 .1 0 .2-.1.3h.1c.3-.2.4-.5.5-.9h.1c0-.1 0-.2-.1-.2l-.1-.1h-.1c-.1 0-.1-.1-.2-.1v.1c.1.1 0 .3 0 .3-.1.1-.1.2-.2.2l-.1.1c-.3.3-.6.2-.8.2-.1 0-.1-.1-.2-.1-.1-.2-.1-.1-.1-.1zm1.3.6zm-3.5-.2zm0-.1zm4.3-.6s0-.1 0 0zm-.5-.6zm-.1-.1zm-.1-.6z"/><path d="m11.2 31 .3-.5v-.1s0-.1-.1-.1c-.1-.2-.3-.4-.3-.6-.1-.3-.1-.7 0-.9.1-.1.1-.2.2-.3.1-.1.3-.2.4-.3h.1s.1 0 .1-.1c.1-.1.3-.1.4-.2h.2c-.1-.3-.1-.6.1-.9.1-.2.2-.4.4-.6.1-.1.2-.1.2-.2.3-.2.5-.3.8-.3.3 0 .6.1.7.3 0 0 0 .1.1.1l.1.1c.1-.1.2-.3.3-.4.1-.2.3-.3.4-.4.1-.1.3-.1.5 0 .1 0 .2.1.3.2v-.1c.1-.1.2-.3.3-.4.1-.2.3-.3.5-.5s.5-.3.7-.3h.8c.4 0 .7.3.8.6.1.3 0 .5-.2.7l-.1.1c.1 0 .2 0 .2.1l.3.3c.1.1.1.4.1.6h.1c.3 0 .6.1.9.2l.3.2H20.4c-.4 0-.6.1-.8.3v.2c-.1.1-.1.1-.2.1 0 0-.1 0-.1-.1-.1-.2-.2-.3-.3-.4v.2c-.1.3-.2.5-.5.7-.1.1-.2 0-.2 0-.1-.1-.1-.2 0-.2l.1-.1c.1-.3.1-.5 0-.7v-.1c0-.1-.1-.1-.1-.2-.1-.1-.2-.1-.3-.1h-.2c-.1 0-.2 0-.2-.1 0 0-.1-.1 0-.2s.2-.1.2-.1c.1 0 .3-.1.4-.1 0 0 .1 0 .1-.1.2-.2.1-.4.1-.5-.1-.2-.2-.4-.4-.4-.1 0-.2 0-.3.1-.2.1-.3.2-.4.3l-.1.1-.3.3c-.2.2-.3.4-.3.7 0 .1 0 .1-.1.2h-.2s-.1 0-.1-.1l-.1-.1c-.1-.1-.2-.1-.3-.1-.3 0-.5.2-.7.5-.1.1-.1.2-.1.3.2-.1.4-.1.6 0 .1 0 .2.1.3.2.1.1.1.2.1.2s-.1.1-.2.1h-.5c-.3 0-.5.2-.8.4-.2.1-.3.3-.3.4 0 .1-.1.1-.1.2 0 0-.1 0-.2-.1-.1-.2 0-.4.2-.7 0 0-.1 0-.2-.1 0 0-.1 0-.2.1-.2.1-.2.3-.2.5v.2c0 .1 0 .2-.1.2h-.2c-.1-.1-.3-.2-.6-.1l-.6.3c-.1.1-.3.3-.3.4-.1.2-.1.4 0 .6 0 .1.1.2.1.3v.1s0 .1-.1.1h-.1l-.4.1zm1.4-2.8h-.2c-.1 0-.2.1-.3.1 0 0-.1 0-.1.1h-.1c-.1.1-.2.1-.3.2l-.2.2c-.1.2-.1.5 0 .7v.1c0-.2 0-.3.1-.4.1-.2.3-.4.4-.5.2-.2.4-.3.7-.4.2-.1.4-.1.7 0v-.1c0-.3.1-.5.3-.7.2-.2.3-.2.4-.1.1 0 .2.1.3.1l.1.1v.1h.1c.3-.2.6-.3.9-.4-.1 0-.2 0-.3.1h-.2c-.1-.1-.1-.2-.1-.2 0-.1 0-.3.1-.5.2-.4.5-.6.9-.7.2 0 .3 0 .4.1l.1.1c.1-.2.2-.5.3-.7.1-.2.3-.3.4-.4l.1-.1c.1-.1.3-.3.5-.3.1-.1.3-.1.5-.1.2.1.5.3.5.6.1.3 0 .6-.2.8l-.2.2.1.1c0 .1.1.1.1.2v.1c.1.1.1.3.1.4v-.2s0-.1.1-.2c.1 0 .2 0 .3.1l.1.1c.1.1.2.2.3.4 0 0 0-.1.1-.1.1-.1.3-.2.4-.2h-.2c-.1.1-.2 0-.2 0s-.1-.1 0-.2.1-.3 0-.4c-.1-.1-.1-.2-.2-.2h-.1c-.1 0-.2-.1-.2-.1v-.2l.1-.1.2-.2c.1-.1.1-.2.1-.4-.1-.3-.3-.4-.5-.4H18c-.2.1-.4.1-.6.3-.2.1-.3.3-.4.5-.1.1-.2.2-.2.4l-.1.1c-.1.1-.1.1-.2.1s-.1 0-.2-.1c0-.1-.1-.1-.2-.1h-.3l-.3.3c-.1.1-.2.3-.3.4-.1.1-.1.1-.2.1 0 0-.1 0-.2-.1 0-.1-.1-.1-.1-.2l-.1-.1c-.1-.1-.3-.2-.5-.2s-.4.1-.7.3l-.2.2c-.2.2-.3.3-.4.5-.1.3-.2.6 0 .8v.2c-.1.1-.1.1-.2.1zm5.9-.4zM14.7 33.8h-.2c-.2 0-.3-.1-.5-.2-.1-.1-.2-.3-.3-.5-.3.2-.6.3-.9.2h-.2c-.1-.1 0-.2 0-.2s.1-.1.2-.1c.2 0 .4-.1.6-.2.1-.1.2-.2.2-.4 0-.1.1-.2.2-.2s.1 0 .2.1c0 .1.1.2.1.3.1.3.2.6.5.7.3.2.7.1 1-.2.1-.1.1-.2.2-.3v-.2c-.2.1-.4.1-.6 0-.1 0-.2-.1-.1-.3l.1-.1c.1 0 .1 0 .2.1h.1c.2 0 .3-.1.5-.2s.2-.3.3-.6v-.1c0-.1.1-.1.2-.1s.1 0 .2.1c.1.2.1.4 0 .6v.1c.2 0 .5-.1.7-.3.2-.1.3-.2.4-.3l.1-.1h.1c.1 0 .1.1 0 .2v.1c.2 0 .4-.1.6-.2-.1-.1-.2-.2-.2-.4V31h.1c.1 0 .1 0 .2.1s.3.2.5.2c.1 0 .3 0 .4-.1.1-.1.2-.1.3-.2l.1-.1c.1-.1.2-.1.2-.2 0 0 .1-.1 0-.2l-.2.2c-.1.1-.2.1-.3.1-.1 0-.2-.1-.2-.1s0-.1.1-.2c.1 0 .1-.1.2-.1.1-.1.2-.3.2-.5 0-.1 0-.2-.1-.3-.1-.1 0-.2 0-.2s.1-.1.2 0l.3.3c.1.1.1.2.2.3.1-.1.3-.2.4-.3.1-.1.1-.1.1-.2v-.3l.2.3c.1.1.1.3.1.4.2-.2.4-.4.4-.7V28.5l.2.3c0 .1.1.1.1.2v.1c0 .4-.1.8-.3 1.1-.2.2-.4.3-.7.2 0 .2 0 .5-.2.7l-.6.6c-.3.2-.6.3-.9.4h-.3c-.1 0-.2-.1-.3-.1-.1.1-.3.2-.4.3-.2.1-.4.2-.7.1-.1 0-.1 0-.2-.1 0 .1-.1.2-.2.3-.2.4-.5.7-.8.9-.8.1-1.2.3-1.8.3zm.8-1.5.1.1c0 .1.1.2.1.4 0 .1-.1.3-.2.4-.1.1-.2.2-.3.2.3-.1.6-.2.8-.3.3-.2.5-.5.7-.8 0-.1.1-.2.1-.3-.2.1-.4.2-.6.2H16c-.1 0-.2 0-.2-.1v-.2c0-.1.1-.1.1-.2-.1.2-.2.3-.3.5 0 .1 0 .1-.1.1zm-1.9.3c0 .1-.1.1-.2.2.1 0 .1-.1.2-.1s0 0 0-.1zm4.8-1.1h.1c.1 0 .1.1.2.1h.1c.3-.1.5-.2.8-.4l.6-.6c.1-.2.2-.4.1-.6v-.1c-.1 0-.1.1-.2.1s-.1.1-.2 0c-.1 0-.1-.1-.1-.2 0 0 0-.1-.1-.1v.1c0 .1 0 .2-.1.3h.1s.1 0 .1.1c.1.2.1.4 0 .6-.1.1-.2.2-.3.2l-.1.1c-.1.1-.3.2-.4.3-.2.1-.4.1-.6.1h-.3v.1c.2-.1.3-.1.3-.1zm-.3 0zm2.7-1.6c.1 0 .2 0 .3-.2 0 0 0-.1.1-.1 0 .1-.1.1-.2.1 0 .2-.1.2-.2.2zm-.3-.1h.1c0 .1 0 0-.1 0 .1 0 .1 0 0 0 .1 0 0 0 0 0zm-1-.4z"/><path d="m16.4 33.1.3-.8v-.1c0-.1.1-.2.1-.3 0-.1.1-.1.1-.1h.2c.1.1.3.1.4.1.2 0 .4-.1.5-.3l.1-.1c.1-.1.2-.1.2 0 .1 0 .1.1.2.1l.5.2-.4.1c-.1 0-.2 0-.3-.1-.2.1-.4.3-.6.4-.2.1-.5.1-.7 0 0 .1-.1.2-.2.3l-.4.6zM14.4 33.7c-.3 0-.5-.2-.6-.3-.1-.1-.2-.3-.2-.4-.2.2-.5.2-.8.2h-.1l-.4-.1.4-.1H13c.2 0 .4-.1.6-.2 0 0 .1-.1.2-.1s.1.1.1.2c.1.3.2.5.6.6h.1l.5.2h-.7z"/><path d="M16.2 32.3h-.4l.4-.2c.1 0 .1-.1.2-.1h.1c.2-.1.5-.2.8-.4l.1-.1.3-.1-.1.3c0 .1-.1.2-.2.2s-.1.1-.2.1l-.1.1c-.1 0-.1.1-.2.1h-.2c-.1 0-.3.1-.5.1z"/><path d="M17.4 31.8v-.1l-.2.1.2-.3v-.1c0-.1.1-.1.1-.2v-.1h.1c.1 0 .1.1.1.2s0 .3-.1.3c0 0 0 .1-.1.1l-.1.1zM19.3 30.7H19l.2-.1s0-.1.1-.1c0 0 .1 0 .1-.1l.1-.1.2-.1v.2l.4-.2-.4.4c-.1 0-.3.1-.4.1z"/></g><path fill="none" d="M0 0h45v45H0z"/><path fill="none" d="M4.5 4.5h36V18h-36z"/><path fill="#010101" d="M7.3 11.6 5.6 4.9h1.5c.7 3.1.9 4.4 1 5.2.3-1.3.9-3.6 1.3-5.2h1.3c.3 1.3 1 3.9 1.2 5.1.2-1.5.9-4.1 1.1-5.1h1.4l-1.8 6.7h-1.5c-.4-1.5-.9-3.6-1.2-4.8-.1 1.2-.8 3.4-1.1 4.8H7.3zM16.8 8.9v2.7h-1.4V4.9h2.9c1.5 0 2.2.8 2.2 1.8 0 .9-.5 1.4-1 1.6.3.1.8.5.8 1.7v.3c0 .5 0 1 .1 1.3H19V10c0-.7-.2-1.1-1.3-1.1h-.9zm0-1.1H18c.8 0 1.1-.3 1.1-.9 0-.6-.4-.9-1.1-.9h-1.2v1.8zM26.5 8.7h-3.2v1.7h3.5l-.2 1.2h-4.8V4.9h4.8v1.2h-3.3v1.4h3.2v1.2zM33.6 9.5c-.3 1.2-1.2 2.2-2.9 2.2-2.1 0-3.1-1.5-3.1-3.4 0-1.8 1-3.5 3.2-3.5 1.8 0 2.6 1 2.8 2.2h-1.4c-.1-.5-.5-1-1.4-1-1.2 0-1.7 1.1-1.7 2.3 0 1.1.4 2.3 1.7 2.3.9 0 1.2-.6 1.4-1h1.4zM34.7 4.9h1.4v3c.4-.5 1.8-2 2.7-3h1.7l-2.7 2.8 2.8 3.9h-1.7l-2.1-3-.7.7v2.3h-1.4V4.9z"/><path fill="none" d="M27 27h13.5v13.5H27z"/><g fill="#010101"><path d="M32.2 38.9c.1.6.5.8 1.2.8.6 0 .9-.3.9-.7 0-.5-.3-.7-1.2-.9-1.5-.4-1.9-.9-1.9-1.7 0-1 .7-1.6 2.1-1.6 1.5 0 2.1.8 2.2 1.6h-1.2c-.1-.3-.2-.7-1-.7-.5 0-.8.2-.8.6 0 .4.2.5 1.1.8 1.6.4 2 1 2 1.8 0 1-.8 1.7-2.2 1.7-1.4 0-2.2-.7-2.3-1.7h1.1zM38.9 36.5c-.1-.3-.2-.5-.7-.5-.7 0-.9.7-.9 1.4.2-.3.6-.5 1.2-.5 1 0 1.7.7 1.7 1.8s-.7 2-2 2c-1.5 0-2.1-1.2-2.1-2.7 0-1.4.5-2.8 2.1-2.8 1.2 0 1.7.7 1.8 1.4h-1.1zm.1 2.2c0-.5-.2-1-.8-1-.5 0-.8.3-.8.9 0 .4.2 1 .8 1 .6.1.8-.4.8-.9z"/></g></svg>