<svg version="1.2" baseProfile="tiny" xmlns="http://www.w3.org/2000/svg" viewBox="0 0 45 45" overflow="visible" xml:space="preserve"><path fill="none" d="M-45 0H0v45h-45z"/><path d="m31 22.7 1.6-1.6 3.1-3.1c.1-.1.1-.2 0-.3-.2-.2-.4-.3-.5-.5l-.5-.5-.4-.4c-.1-.1-.1-.1-.2 0l-.7.7c-.1.1-.1.1-.2 0l-1.8-1.8c-.2-.2-.4-.4-.6-.5-.1-.1-.1-.1 0-.2l.1-.1h.1c.2-.3.4-.4.6-.7.1-.1.1-.1 0-.2s-.2-.1-.2-.2.1-.1.2-.2l1.6-1.6.2-.2c.1-.1.1-.1 0-.2l-.4-.4c-.1-.1-.1 0-.2 0l-1.2 1.2-.7.7c-.1.1-.1.1-.2 0-.2-.2-.2-.2-.3 0l-.4.4-.3.3c-.1.1-.1.1-.2 0l-1-1-.5-.5c-.1-.1-.1-.1 0-.2l.8-.8c.1-.1.1-.1 0-.1l-.7-.7-.6-.6c-.1-.1-.2-.2-.3-.2-.1-.1-.2-.1-.3 0-.4.4-.8.7-1.1 1.1-.4.5-.9.9-1.3 1.4-1 1-2 2-3 3.1-1.2 1.3-2.5 2.5-3.8 3.8l-2.3 2.3c-.1.1-.2.1-.3.2-.6.8-1.4 1.5-2.1 2.2-.1.1-.2.1-.2.2-.1.1-.1.2-.2.3L11.4 25l-1.3 1.3c-.3.2-.5.5-.8.8-.1.1-.1.2 0 .3l1 1c.2.1.3.3.5.4.1.1.1.1.2 0s.1 0 .1 0c0 .1 0 .1.1.2s.2.3.4.3c0 .1.1.2.3.3.1 0 .2.1.3.2l1.3 1.3c.1.1.2.2.2.3.1.1.2.1.3.2l1.1 1.1.3.3c.1.1.1.1.1.2s.2.2.2.2c.1 0 .1 0 .1.1 0 .2.2.3.4.4h.2v.1c-.1.1-.1.1 0 .2l.9.9.6.6c.2.2.2.2.4 0 .6-.6 1.2-1.2 1.7-1.8l1.1-1.1c1.2-1.2 2.4-2.4 3.6-3.7l3.5-3.5.9-.9c.6-.7 1.3-1.3 1.9-2zm-13-3.1c0-.1.1-.1.1-.1.1-.1.1-.1 0-.2-.1 0-.1-.1-.2-.1-.1-.1-.1-.1 0-.2.1 0 .1-.1 0-.2v-.1h.1c.2.1.4.3.5.5v.1s-.1.1-.1 0c-.1-.1-.2 0-.2.1v.1c.1.1 0 .1 0 .2 0-.1-.1-.1-.2-.1.1 0 .1 0 0 0l-.1.1c-.1.1-.1.1 0 .2v.1h-.1c-.2-.1-.4-.3-.5-.5v-.1h.1c.1.1.1 0 .2 0 .1-.1.1-.1.2 0l.2.2zm6.3 7c-.1.2-.3.3-.5.5V27c-.1-.1-.2 0-.2 0l-.1.1v.1l-.1.1-1.5 1.5s-.1.1-.1 0c-.1 0-.1 0-.1.1s0 .1-.1.1l-.4.4-1.9 1.9s-.1.1-.1 0c-.1 0-.1 0-.1.1v.1l-.1.1s-.1.1 0 .1v.1l-.3.3c0-.2.1-.4.1-.6 0 0 0-.1.1-.1.6-.6 1.2-1.2 1.8-1.9.7-.8 1.5-1.5 2.2-2.2l.9-.9s.1-.1.1 0c.1.2.3.2.4.2.4.1.8.1 1.2.2v.1l-.4.4c-.1.1-.1.1-.2 0-.2-.3-.4-.5-.6-.7zm0-6c.1.1.2.1.2.2l1.2 1.2c.2.2.6.3.8 0 .3-.3.6-.7 1-1 0 0 .1-.1.1 0l.2.2c.1.1.2.1.4 0l.1-.1h.1l.3.3c.1.1.1.1 0 .2-.1 0-.1.1-.1.1-.8.8-1.6 1.6-2.4 2.5l-1.1 1.1s-.1.1-.2 0c-1-1-2-2-3-2.9l-1.5-1.5-1-1c-.1-.1-.1-.1 0-.2l.9-.9.9-.9c.2-.2.2-.2.4 0 .1.1.2.1.4 0l.5-.5c.1-.1.1-.2 0-.3l-.1-.1v-.1l.8-.8h.1l.5.5c-.4 0-.5 0-.7.3-.1.2 0 .4.1.5.2.2.4.2.6.1.2-.1.3-.3.2-.7.5.5 1.1 1 1.6 1.6-.1 0-.2.1-.3.2-.3.3-.6.7-1 1-.1.1-.2.1-.2.2-.1.2 0 .4.1.6l-.3-.3c-.1-.1-.2-.1-.3 0 0 0-.1 0-.1.1s-.1 0-.1 0l-.2-.2c-.2-.2-.2-.2 0-.3.1-.1.1-.2 0-.3l-.4-.4c-.1-.1-.2-.1-.2 0l-.1.1s-.1.1-.1 0c-.1 0-.2 0-.3.1-.1.1-.2.2-.2.3l-.9.9c-.1.1-.1.3 0 .4.1.2.3.3.4.4l.6.6.7.7c.1.1.3.1.4 0l.3-.3c.3-.3.6-.6.8-.9.1-.1.1-.1.1-.2s0-.1.1-.2c-.1-.1-.1-.2-.1-.3zm-8.8 12.1c.1.1.1.1.2 0s.2-.2.4-.3h.2c.1.1.1 0 .1 0l.4-.4c.1-.1.2-.2.2-.3.1-.2 0-.6-.2-.7-.2-.2-.5-.2-.8-.1l-.6.6v.1l.1.1c-.1.2-.1.4-.3.5-.1.1-.1.1 0 .2 0 0 .1.1 0 .1s-.1.1-.1.1l-.4-.4c.1 0 .1 0 .1-.1s0-.1-.1-.1-.1.1-.1.1c-.1-.2-.3-.3-.4-.4.1 0 .1 0 .1-.1s0-.1-.1-.1-.1 0-.1.1c-.1-.1-.2-.2-.2-.3v-.2c0-.2-.1-.3-.2-.2-.2.1-.3 0-.4-.1l-.1-.1c.1 0 .2 0 .1-.1 0-.1-.1-.1-.1-.1-.1 0-.1.1-.1.1l-.4-.4s-.1 0 0-.1c.1 0 .1-.1 0-.2s-.1-.1-.2 0c0 .1-.1 0-.1 0l-.2-.2c-.1-.1 0-.1 0-.2s.1 0 .1 0c.1 0 .1.1.1 0 .1-.1.2-.2.4-.3h.2c0 .1.1.1.1 0 .2-.2.4-.3.5-.5.2-.2.2-.6 0-.8-.2-.2-.6-.3-.8-.1l-.6.6v.1l.1.1c-.1.2 0 .4-.2.5l-.1.1c0 .1.1.1.1.1-.1 0-.1 0-.1.1l-.1-.1c-.1-.1-.2-.2-.1-.3v-.2c-.1-.1-.2 0-.2 0h-.2l-.3-.3c-.1-.1-.1-.1 0-.2l.6-.6c.1-.1.1-.1 0-.2l-.8-.8s-.1 0 0-.1h.1c.4-.1.8-.1 1.2-.2.1 0 .2 0 .3-.1.3-.1.5-.1.8-.1.1 0 .2 0 .3.1 0 .1-.1.1-.1.2v.1h.1c.1-.1.1 0 .1 0l.1.1 1 1s.1.1.1 0h.1l.7.7 1.2 1.2.1.1c-.1.1 0 .1 0 .2l1.1 1.1s.1.1 0 .2v.1h.1l.1-.1h.1v.1c0 .2-.1.4-.1.6 0 .2-.1.3-.1.5-.1.4-.1.7-.2 1.1v.1s-.1 0-.1-.1c-.3-.3-.6-.6-.9-.8-.1-.1-.1-.1-.2 0l-.6.6c-.1.1-.1.1-.1 0 .1 0 .1 0 .1-.1 0 0 0-.1-.1-.1s-.1 0-.1.1l-.2-.2v-.4s-.1-.1-.2 0-.3 0-.3-.1l-.1-.1c.2.4.3.3.3.3zm12.8-13.8c.1-.1.3-.2.4-.4.3-.3.6-.6.8-.9.1-.1.2-.3.4-.5.3-.5.5-1 .8-1.5v-.2l-.3-.3c-.2-.2-.2-.1 0-.3.1-.1.1-.1.2 0l.6.6 1.7 1.7c.1.1.1.1 0 .3l-1.2 1.2c-.1.1-.1.1 0 .2l.8.8c.1.1.1.1 0 .2-.6.4-1.3.7-1.9 1.1-.5.3-.9.5-1.4.8h-.1l-.4-.4s-.1-.1 0-.1l.2-.2c.1-.1.1-.3 0-.4l-.4-.4c-.1-.1-.1-.1 0-.2l.1-.1.4-.4h.1l.2.2c.1.1.2.1.3 0l.6-.6c.1-.2.3-.3.4-.5 0-.1.1 0 .1 0 .1.1.1 0 .1 0s.1 0 .1-.1c.1-.1.1-.1 0-.2l-.9-.9s-.1-.1-.1 0c-.1 0-.1.1-.2.2v.1c-.1 0-.2.1-.3.2l-.8.8c-.2.1-.2.2-.3.2zm-3.8-1.8c-.1 0-.1 0 0 0-.4-.4-.8-.7-1.1-1.1-.1-.1 0-.1 0-.1.4-.7.8-1.5 1.2-2.2.2-.4.4-.7.6-1.1 0-.1.1-.1.1 0l.8.8c.1.1.1.1.2 0 .4-.4.8-.8 1.2-1.3.1-.1.1-.1.2 0 .5.5 1 .9 1.4 1.4.2.2.2.1 0 .3-.1.1-.1.1-.2 0l-.4-.4c-.1-.1-.1-.1-.2 0-.5.3-1 .5-1.5.8-.1 0-.1.1-.2.1l-.1.1c-.1 0-.1.1-.2.1l-.9.9c-.2.2-.5.4-.7.7 0 .4-.2.7-.2 1zm1.4-1.9.2-.2c.3-.3.9-.4 1.2-.1.1.1.1.1 0 .2-.2.2-.4.4-.6.7 0 .1-.1.1-.1 0-.1-.1-.2 0-.3.1-.2.2-.4.4-.5.6-.1.1-.2.1 0 .2.1.1.1 0 .2 0 0-.1.1-.1.2 0 .2.1.4.3.6.4l.7.7c0 .1 0 .1.1.2s0 .1 0 .1-.1 0-.1.1c-.1.1 0 .1.1.2s.1 0 .1 0l.6-.6c.1-.1.1-.2.1-.3v-.1c.3-.2.5-.4.7-.6.1-.1.1 0 .2 0 .3.4.2.9-.1 1.2l-.8.8c-.2.2-.4.4-.6.5-.2.1-.4.3-.6.3H27l-.9-.9-1.3-1.3c-.1-.1-.2-.2-.1-.4.1-.3.3-.6.5-.8.1-.4.4-.7.7-1zm7 2.2 1.1-1.1c.1-.1.1-.1.2 0l1.2 1.2c.1.1.1.1 0 .2l-2.1 2.1s-.1.1-.1.2c.1.1.1 0 .2-.1l2.1-2.1c.1-.1.1-.1.2 0s0 .1 0 .2c-.7.7-1.5 1.4-2.2 2.2-.1.1-.1.1-.2 0l-1.5-1.5c-.1-.1-.1-.1 0-.2l1.1-1.1zm-5.5-5.3c-.3.4-.7.7-1 1-.1.1-.1.1-.2 0l-1.5-1.5c-.1-.1-.1-.1 0-.2l.7-.7 1.5-1.5c.1-.1.1-.1.2 0s0 .1 0 .2l-1 1c-.2.3-.5.5-.8.7l-.4.4s-.1.1 0 .1h.1l1.2-1.2 1-1c.1-.1.1-.1.2 0l.4.4.9.9c.1.1.1.1 0 .1l-1.3 1.3zm-7.5 16.6-.3-.3c-.1-.1-.1-.1 0-.2.5-.5 1-1 1.5-1.6l1.5-1.5s.1-.1.1 0c.3.1.6.1.7.4l.2.2c.1.1.1.2 0 .4l-1.7 1.7c-.2.2-.1.1-.3 0-.1-.1-.2-.1-.3 0l-.2.2c-.2.2-.2.2 0 .4 0 0 .1.1 0 .1l-.7.7s-.1.1-.2.1c0 0-.1 0-.1-.1v-.1c0-.2-.1-.3-.2-.4zm-2-4.3c-.3.4-.7.7-1.1 1.1-.1.1-.1.1-.2 0l-.7-.7-.1-.1c-.1 0-.1 0-.1-.1s0-.1.1-.2l.6-.6c.1-.1.1-.1.3 0 .1.1.2.1.3 0l.3-.3c.1-.1.1-.1 0-.2 0 0 0-.1-.1-.1-.1-.1-.1-.1 0-.2l1-1 .8-.8c.1-.1.2-.1.3 0l.3.3c.1.1.2.2.2.4 0 .1 0 .2.1.3v.1l-.4.4c-.5.6-1.1 1.2-1.6 1.7zm.8 7.2-.1-.1c-.1 0-.1-.1 0-.2v-.1L17.4 30s-.1-.1-.1 0h-.1l-.9-.9s-.1-.1 0-.1v-.2c-.1-.1-.1-.1-.2 0H16l-.8-.8s-.1-.1 0-.1v-.1l-.3-.3-.9-.9s-.1-.1-.1 0c-.1.1-.1 0-.2 0l-.2-.2s-.1 0-.1-.1h.1c.2 0 .4-.1.5-.2.2-.1.4-.3.6-.5l.9-.9s.1-.1.1 0l.6.6s.1.1 0 .1c-.1.1-.1.1 0 .2l.1.1c.1.1.1.1.2 0 0-.1.1-.1.1 0l1.2 1.2v.1c-.1.1-.1.1 0 .2l.1.1c.1.1.1.1.2 0s.1 0 .2 0l.2.2.9.9s.1.1 0 .1c-.1.1-.1.1 0 .2l.1.1c.1.1.1.1.2 0 0 0 .1-.1.1 0l.6.6v.1l-1.2 1.2c-.1.1-.1.2-.2.3-.2.2-.3.4-.3.6zm12.5-11c0 .1-.1.2-.1.4 0 .1 0 .1-.1.1s-.2.2-.1.2c.1.1 0 .1 0 .2l-.1.1c-.1.1-.1.1-.3 0-.1-.1-.1-.1 0-.2v-.2c-.1-.1-.1 0-.2 0v.2l-2.2 2.2s-.1.1-.1 0c-.1 0-.1 0-.1.1v.1c-.1 0-.1.1-.1.1-.6.7-1.3 1.3-1.9 2h-.1c-.2 0-.1.1-.1.2v.1c.1 0 .1 0 .2-.1 0-.1.1-.1.1-.1l1-1c.2-.2.1-.2.3 0 .1.1.1.1 0 .2L26 26.5c-.2.2-.2.2-.3 0-.2-.2-.4-.3-.4-.6v-.2c0-.1 0-.1.1-.2.2-.1.3-.3.5-.5l1.7-1.7c.3-.3.6-.7 1-1 .2-.2.4-.5.7-.6.6-.3 1.1-.6 1.7-.9-.2 0 0-.1.2-.2zm-9.7.7-.6-.6c-.1-.1-.1-.2 0-.3l1.2-1.2s.1-.1.2 0c.1 0 .1 0 0 .1s-.1.1-.1.2v.1s-.1.1 0 .1h.1c0-.1.1 0 .1 0l.3.3c.1.1.2.1.3 0h.1l.3.3c.1.1.1.1 0 .2s-.1.2 0 .2l.4.4c.1.1.2.1.3 0l.1-.1h.1c0 .1 0 .1-.1.2l-1.1 1.1c-.2.2-.2.2-.4 0-.5-.3-.9-.6-1.2-1zm8.4 2.3-1.5 1.5c-.1.1-.1.1-.2 0l-.3-.3c-.2-.2-.2-.1 0-.3l2.1-2.1 1.2-1.2.1-.1c.2.1.3.1.5 0 .1-.1.2 0 .3.1.1.1.1.1 0 .2l-.6.6-1.6 1.6zM26 27.7l-.6.6-1.6 1.6c-.2.2-.1.2-.3 0-.1-.1-.1-.1 0-.2l1-1 .2-.2s.1-.1.1 0 .1 0 .1 0c0-.1.2-.1.1-.3v-.1l.2-.2c.1-.1.1-.1 0-.3-.2-.2-.2-.1 0-.3.7-.8 1.5-1.5 2.2-2.3l.1-.1h.1v.2l.3.3h.2v.1c-.6.7-1.4 1.4-2.1 2.2zm2-12.4 1.8-1.8-.3.3h-.1v-.1c.1-.1.2-.2.4-.3l.1-.1c.1-.2.3-.3.4-.4-.1.1-.2.3-.3.4-.1.1-.1.1 0 .2.2.3.4.5.7.7.1.1.2 0 .2 0 .1-.1.2-.2.4-.3-.3.3-.5.6-.8.8-.1-.1 0-.2.1-.2l.2-.2-1.8 1.8h.1l1.3-1.3c.1-.1.1-.1.2 0l-.3.3-1.1 1.1c-.1.1-.3.1-.4 0l-.6-.6c-.1-.1-.1-.2 0-.3l.6-.6.8-.8s0-.1.1 0v.1l-1 1c-.6.1-.7.2-.7.3zm-6.8 1.9s-.1.1 0 .1c0 0 .1.1.1 0 .2-.1.3-.2.4-.4v-.1c0-.1-.1-.1-.1 0-.1.2-.2.2-.3.2l.8-.8h.1l.2.2h.1s.1 0 .1-.1c0 0 .1-.1.1 0h.1c.1 0 .1-.1.2-.1v.1c-.2.3-.5.5-.7.8h-.1c-.1-.1-.2 0-.2 0l-.6.6c-.1.1-.1.2 0 .2v.1l-.8.8-.9.9c-.2.2-.4.3-.7.2-.2-.1-.4-.2-.5-.3-.1-.1 0-.2 0-.2.2 0 .3-.2.3-.3 0 0 0-.1 0 0h.1l.2-.2s.1-.1.1-.2l.1-.1c.1 0 .1 0 .1.1v.1l-.3.3-.4.4c-.1 0-.1.1-.1.2s.1.1.1 0c.1.1.1 0 .1-.1s0-.1.1-.2c.6-.7 1.3-1.3 1.9-2 .2-.1.2-.2.4-.2zM20 31.1s-.1 0 0 0c.2-.3.5-.5.7-.8.1-.1.1 0 .1 0l.7.7c.2.2.2.3 0 .4l-.1.1-1.2 1.2-.1.1c-.1-.1-.2-.1-.2-.1l-.7-.7c-.1-.1-.1-.1 0-.2.3-.2.5-.4.8-.7zm-6.1-6c-.2.3-.5.5-.7.7-.1.1-.1.1-.2 0l-.2-.2c-.2-.2-.5-.4-.6-.7v-.1l1.4-1.4c.1-.1.2-.1.4 0 .3.2.5.5.8.8v.1c-.4.3-.7.5-.9.8zm9 3 .7-.7c.1-.1.1-.1.2 0l.8.8c.1.1.1.2 0 .3l-1.3 1.3-.1.1c-.1-.1-.2 0-.2-.1l-.7-.7c-.1-.1-.1-.1 0-.2.2-.3.4-.6.6-.8zm-6-6.1c-.2.3-.5.5-.7.7 0 0-.1.1-.1 0l-.8-.8c-.1-.1-.1-.2 0-.3l1.3-1.3c.1-.1.2-.1.3 0l.8.8v.1c-.3.4-.6.6-.8.8zm2.1 2.4 1-1c.1-.1.2-.1.4 0l1.2 1.2c.2.2.2.3 0 .4l-.7.7-1.8 1.8c-.2.2-.2.2-.4 0l-1.2-1.2c-.1-.1-.1-.2 0-.4.2-.2.4-.4.5-.6.4-.3.7-.6 1-.9zm4.2-11.3.1-.1 1.1-1.1c.1-.1.1-.1.1 0l.4.4v.1c-.1.1-.2.2-.2.3L23.4 14l-.9.9c-.1.1-.1.1-.2 0l-.4-.4s-.1-.1 0-.1c.5-.4.9-.9 1.3-1.3zm-1.1 11.6c0-.1-.1-.2-.1-.3L20.6 23s-.1 0-.1-.1c0 0-.1 0-.1-.1l.1-.1c.1-.1.2-.2.1-.4-.1-.1-.1-.2-.1-.4 0-.1 0-.1.1-.2.1 0 .1 0 .1.1l.3.3 1.6 1.6.6.6s.1.1 0 .1c0-.1 0-.1-.1-.1 0 0-.1 0-.1.1s0 .1.1.1H23c-.1 0-.3-.1-.4-.1-.1 0-.2 0-.3.1-.1 0-.1.1-.2.2zm-4.2 9.5c.3.2.5.5.8.7 0 0 .1.1 0 .1-.2.2-.4.5-.7.7-.1.1-.1.1-.2 0l-.4-.4c-.4-.3-.7-.7-1.1-1-.1-.1-.1-.1 0-.2.2-.2.5-.4.7-.7.1-.1.1-.1.2 0 .2.3.5.5.7.8zm-7-7.1.7.7c.1.1.1.1 0 .2l-.7.7c-.1.1-.1.1-.2 0l-1.4-1.4c-.1-.1-.1-.2 0-.3l.6-.6c.1-.1.1-.1.2 0 .3.2.5.5.8.7zM27 15.7l.2-.2.3-.3c.1-.1.1 0 .2 0s0 .1 0 .1c0 .1 0 .2.1.3l.7.7c.1.1.2.1.3.1.1 0 .1 0 .1.1v.2c-.2.2-.4.4-.7.6l-.2.2c-.1.1-.1.1-.1 0-.1-.2-.2-.3-.4-.5-.2-.3-.5-.5-.8-.7-.1 0-.1-.1 0-.1 0-.1.2-.3.3-.5zM12.7 26.4l.5-.5 1.9-1.9.2-.2v-.1c.1 0 .1 0 .1-.1.2-.3.5-.5.8-.8.7-.7 1.4-1.3 2-2h.1v.3c0 .1 0 .1-.1.2l-1.3 1.3c-.8.8-1.6 1.6-2.4 2.5l-1.1 1.1c-.1.1-.1.2-.2.2-.1-.1-.3 0-.5 0zM25 12.6c-.2.3-.3.6-.5.9-.3.5-.5 1-.8 1.4-.2.3-.3.6-.5.9 0 .1-.1.1-.1 0l-.3-.3c-.1-.1-.1-.1 0-.2l.5-.5c.1-.1.1-.2.3-.2.1 0 0-.2.1-.2 0 0 0-.1-.1-.1s-.2 0-.2.1-.1.1-.1.2l-.4.4-.4.4h-.1c-.1-.1-.1 0-.1 0s0 .1-.1 0v-.1c0-.1.1-.1.1 0 .1.1.1-.1.2-.1s0-.1 0-.1c-.1 0 0-.1 0-.1l.5-.5c.7-.6 1.3-1.2 2-1.9zm6.7.2-.4.4c-.1.1-.1.1-.2 0l-.3-.3c-.1-.1-.1-.1 0-.2l.6-.6 1.3-1.3h.1l.3.3c.1.1.1.1 0 .2-.4.5-.9 1-1.4 1.5zm-9.9 19c.1 0 .1 0 0 0l-1.5 1.5s-.1.1-.1 0v-.1s.1-.3 0-.3 0-.1 0-.1l.3-.3 1.1-1.1s.1-.1.1 0h.1c0-.1.1-.1.1-.1s.1-.1 0-.1 0-.1 0-.1l.9-.9s0-.1.1 0 .2 0 .2 0c.1-.1.1-.1.2 0s.1.1 0 .2c-.4.4-.9.9-1.5 1.4zm4.5-11.7.2.2c.1.1.1.1.3 0 0 0 .1-.1.1 0 .1.1.2.2.2.3v.2c-.1 0-.1 0-.1-.1-.1 0-.1-.1-.2 0l-.5.5c-.1.1 0 .1 0 .2l.1.1v.1h-.1c-.1 0-.2-.1-.3-.1-.1-.1-.1-.1 0-.2s.1-.1 0-.2l-.4-.4c-.1-.1-.1-.1-.3 0 0 0 0 .1-.1 0-.1 0-.2-.2-.2-.3v-.1h.1c.1.1.1.1.2 0l.4-.4c.1-.1.1-.1 0-.3-.1-.1 0-.1 0-.1.1 0 .2 0 .3.1.2.1.2.1 0 .3-.1.1-.1.1 0 .2.1-.1.2-.1.3 0zm3.2-3.1c-.1 0-.1-.1-.1-.1 0-.1-.1-.2-.2-.3v-.2c.1-.1.1-.2.2-.3.1-.1.2-.3.2-.4 0-.1.1-.2.2-.3l.1-.1c.1-.1.1-.2.2-.2s.2.1.2.2v.1c-.1 0 0 .1 0 .2 0 0 .1.1.2 0h.1v.1s0 .1-.1.1c-.3.5-.5.9-.8 1.4-.1.1-.1.1-.2 0 .1 0 .1-.1.1-.1 0-.1 0-.1-.1-.1.1-.1.1-.1 0 0zm-2.6-2.5c0-.1 0-.1.1-.2.5-.3.9-.5 1.4-.8.1 0 .1-.1.2-.1h.1v.1s-.1.1 0 .2c0 .1.1.1.2 0s.1 0 .2 0l.1.1c.1 0 0 .1 0 .1l-.4.4h-.1c-.2 0-.3.1-.4.2-.1.1-.3.2-.4.2h-.1c-.1-.1-.2-.1-.4-.2-.1 0-.1-.1 0-.2 0 0 .1-.1 0-.2l-.1-.1c-.3.3-.4.4-.4.5 0-.1 0 0 0 0zm-13 8.5c-.1-.1-.1-.1-.2 0l-.1.1s-.1.1 0 .1 0 .1 0 .1l-.7.7c-.1.1-.1.1-.3 0-.1-.1-.1-.1 0-.2l2.8-2.8c.2-.2.2-.2.4 0v.1l-.7.7c0-.1 0-.1-.1-.1s-.2.2-.2.2v.1c.1 0 0 .1 0 .1l-.3.3c-.2.2-.2.2 0 .3l-.1-.1c-.1-.1-.1-.1-.2 0-.1.2-.2.3-.3.4zm8.8 2c.2-.2.3-.5.7-.3h.1s.1 0 0 .1v.1l.8.8s.1.1.1 0c0 0 .1-.1.1 0v.1l-.3.3h-.1c-.1-.1-.2-.1-.2 0-.2.2-.4.3-.5.5l-1.2 1.2h-.1c-.1-.1 0-.1 0-.1l1.7-1.7.1-.1c.1-.1.1-.2 0-.3l-.4-.4c-.1-.1-.1-.1-.2-.1-.3 0-.4-.1-.6-.1zm-4.6-2.9-.9.9s-.1.1-.1 0c-.1-.1-.1-.1 0-.1l.4-.4.9-.9c.1-.1.2-.1.2-.2l.3-.3c.1-.1.1-.1 0-.2 0 0-.1 0 0-.1l.3-.3h.1v.2l.8.8s.1.1.2 0h.1c0 .1.1.2.1.3v.1l-.2.2h-.1c0-.1-.1-.2-.1-.3 0-.1 0-.1-.1-.2l-.4-.4c-.2-.1-.3-.1-.4 0-.6.3-.8.6-1.1.9zm1.4 10.5c.1.2.3.3.4.5v.2l-.3.3c-.1.1-.1.1-.2 0l-.9-.9v-.1l.4-.4c.1-.1.1-.1.2 0l.4.4zm-7.7-6.5-.4-.4v-.1l.3-.3c.1-.1.2-.1.3 0 .3.2.5.5.8.7.1.1 0 .1 0 .1l-.4.4c-.1.1-.1.1-.2 0s-.2-.3-.4-.4zm10.1 4-.4-.4c-.1-.1-.1-.1 0-.2l.3-.3c.1-.1.1-.2.3 0 .3.3.6.5.8.8v.1l-.4.4c-.1.1-.1.1-.2 0l-.4-.4zm-7-7-.4-.4c-.1-.1-.1-.1 0-.2l.3-.3c.1-.1.2-.1.4 0 .3.2.5.5.8.8.1.1 0 .1 0 .1l-.4.4c-.1.1-.1.1-.2 0-.2-.1-.4-.3-.5-.4zm15.2-9.6h.1c.1-.1 0-.1-.1 0 .1-.1 0-.1 0-.1H30v-.2c.1-.2.3-.4.4-.5 0-.1.1 0 .1 0 .3.3.6.6.9.8 0 0 .1.1 0 .1-.2.1-.3.2-.5.4-.1.1-.2.1-.3 0 0 0 .1 0 0-.1 0 0 0-.1-.1-.1s0 0 0 .1c-.1-.1-.2-.3-.4-.4zm-8.2 16.7.4.4c.1 0 .1.1 0 .1l-.3.3s-.1.1-.1 0c-.1-.1-.2 0-.2-.1l-.8-.8c-.1-.1-.1-.1 0-.2l.3-.3c.1-.1.1-.1.1 0 .3.3.4.5.6.6zm-7.1-7 .4.4c.1.1.1.1 0 .2l-.3.3c-.1.1-.1.1-.2 0-.2-.2-.4-.3-.5-.5l-.3-.3v-.1l.3-.3h.1c.2 0 .3.1.5.3zm10 4c.1 0 .1 0 0 0l.4.4c.1.1.1.1 0 .2l-.2.2c-.1.1-.2.1-.3 0l-.8-.8v-.1l.3-.3c.1-.1.1-.1.2 0 .2.1.3.3.4.4zm-7.4-6.6-.3-.3c-.2-.2-.2-.2 0-.4l.1-.1c.1-.1.1-.1.2 0 .3.3.5.6.8.8.1.1 0 .1 0 .1l-.3.3c-.1.1-.1.1-.2 0s-.2-.2-.3-.4zm-4.7 8.8c-.1-.1-.1-.3-.1-.4.1.1.1 0 .1-.1v-.2c0-.1 0-.1.1-.1h.1c0-.1.1-.2.2-.3.1-.1.3-.1.4 0 .1.1.2.2.1.4-.1.1-.1.2-.3.3 0 0-.1 0-.1.1s0 .1-.1.1h-.2s-.1 0-.1.1c.1.1 0 .1-.1.1.2.1.1.1 0 0zm3.4 2s0-.1 0 0c.2-.2.5-.2.6 0 .1.2 0 .5-.2.5 0 0-.1 0-.1.1s0 .1-.1.1h-.1c-.1 0-.2 0-.1.1l-.1.1c-.1 0-.3 0-.4-.1-.1-.1-.1-.3 0-.4.1.1.1 0 .1-.1v-.1s0-.1.1-.1c.1.1.1 0 .1 0 .1 0 .1-.1.2-.1zm-2.7-5.2c.1 0 .1 0 0 0 .3-.3.5-.5.6-.7l1-1c.1-.1.2-.1.3 0 .1.1.1.1 0 .2l-.6.6-.7.7c-.1.1-.3.2-.6.2zm16.2-7.6-.4-.4s-.1 0 0-.1.2-.3.4-.3h.2l.6.6c.1.1.1.2 0 .3l-.3.3H30c-.2-.1-.3-.2-.4-.4zm-10.8 13v-.2c.1-.3.2-.5.4-.7l.8-.8.3-.3c0-.1.1-.1.1 0 .1.1.2.2 0 .4l-1.2 1.2c-.1 0-.3.2-.4.4zm13.9-14.9.3.3c.1.1 0 .1 0 .1-.1.1-.1 0-.1 0-.1-.1-.3-.2-.4-.4l-1.1-1.1c-.3-.3-.6-.6-1-.9 0 0-.1-.1 0-.1s.1-.1.2 0l.3.3 1.8 1.8zm-4 6.6c-.5.5-.9 1-1.4 1.4l-.1.1s-.1.1-.1 0v-.1c.3-.4.7-.7 1-1l1.3-1.3.8-.8s0-.1.1 0v.1c0 .1-.1.1-.1.2-.5.5-1 .9-1.5 1.4zm-7.2-5.7v.2c.1 0 .1 0 .1-.1l.6-.6h.1l.2.2c.1.1.1.1 0 .2l-.6.6c-.1.1-.1.1-.2 0l-.3-.3c0-.1 0-.1.1-.2zm-11.1 8.7c-.1-.1-.2-.1-.1-.2.3-.3.6-.6.9-.8l1.1-1.1c.2-.2.2-.1.3 0 .1.1.1.1 0 .2l-.5.5s-.1.1-.1 0h-.1l-.1.1s-.1.1-.1 0c-.1 0-.1 0-.1.1 0 0-.1.1 0 .1.1.1 0 .1 0 .1s-.1.1-.1 0c-.1-.1-.1 0-.2 0s-.1.1 0 .1c.1.1 0 .1 0 .1s-.1.1-.1 0c0 0-.1-.1-.1 0s-.2.1 0 .2v.1s-.1.1-.1 0c0 0-.1-.1-.1 0s-.1.1-.1.2v.1c-.3.1-.4.2-.4.2zm11.4-1.5c0-.1-.1-.2-.1-.3l-1.2-1.2c-.1-.1-.1-.1-.2-.1 0 0-.1 0 0-.1V23c0-.1.1-.1.2-.1l.1.1c.4.4.8.8 1.2 1.1.1.1.3.2.3.4-.1.2-.1.2-.3.3.1 0 0 0 0 0zm.1-9.4.2.2v.1s0 .1-.1 0-.1 0-.2 0c0 0-.1.1 0 .2s0 .1 0 .1-.1.1-.1 0c-.1-.1-.1 0-.1 0 0 .1-.2.1-.1.2v.1h-.1c-.1-.1-.1-.1-.2-.1-.1-.1-.2-.2-.3-.4v-.1h.2c.2-.1.2-.1.3 0l.1.1c.1.1.1.1.2 0h.1c.1 0 .1-.1 0-.1l-.2-.2c-.1-.1-.1-.1 0-.2 0 0 .1-.1 0-.1v-.1h.1c0 .2.2.2.2.3zm6 9.1c0 .1-.1.1-.1.1l-.4.4s-.1.1-.1 0v-.1l.9-.9 1.7-1.7.6-.6h.1v.1c-.1 0-.1.1-.1.2l-.3.3-.4.4-.4.4-.4.4c-.4.3-.8.6-1.1 1zm.7-11.8c.3.2.5.5.8.8 0 0 .1.1 0 .1 0 0-.1.1-.1 0-.5-.5-1-1-1.6-1.5 0 0-.1-.1 0-.1 0 0 .1-.1.1 0 .3.2.6.4.8.7zm-4.2 7.8-.1-.1c-.1-.1-.1-.3 0-.4.1-.1.1-.1.2 0l.1.1c.1.1.1.1.2 0l.1-.1c0-.1.1 0 .1 0 .1 0 0 .1 0 .1 0 .2 0 .3.1.4l.1.1v.1h-.1l-.1-.1c-.1-.1-.1-.1-.2 0-.3.1-.2.1-.4-.1zm1.4 1.5s0-.1 0 0c-.2-.2-.2-.2-.1-.3.1-.1.2-.2 0-.3v-.1h.1c.1.1.2.2.4.1h.1v.1c-.1.1-.1.2 0 .3.1.1.1.2 0 .2h-.1c-.1.2-.3.1-.4 0zm-8.9-2s-.1 0 0 0c-.1 0-.1 0 0 0-.1-.1-.2 0-.2 0-.1.1-.2.1-.1.2s0 .1 0 .2l-.5.5c-.2.2-.1.2-.3 0v-.1l.9-.9s.1-.1.1 0l.1.1zm10.1-.4c.4-.1.7-.3 1-.5 0 .1-.1.1-.1.2-.2.2-.2.3 0 .4l.2.2c-.1 0-.2 0-.2.1s-.1.1-.1.2h-.1c-.3-.2-.5-.4-.7-.6zm-4.4 4.1c.1.1.2.1.3.2.3.3.6.6 1 .9l.4.4c.1.1.1.2.2.2h.1v-.2l.3.3c.1.1.1.3.1.5-.8-.7-1.6-1.5-2.4-2.3zm2.9-5c.1-.1.3-.1.5 0 .1.1.2.1.2.2v.1c-.2.2-.1.2 0 .4v.1h-.1c-.1-.1-.3-.2-.5-.1-.1 0-.1 0-.1-.1v-.1c.1-.2.1-.2 0-.3v-.2zm1.7-1.7c.1.1.2.3.3.4.1.1.1.2.2.3.1.1 0 .1-.1.1h-.1c-.4-.5-.8-.9-1.2-1.2v-.1c0-.1.1-.1.2-.1.3.2.5.4.7.6zm.4 3.2c.1 0 .1.1.2.2s.1.3 0 .4c0 .1-.1.1-.2 0s-.1-.1-.2-.1-.1.1-.2.1h-.1v-.1c.1-.2 0-.3-.1-.5 0 0-.1-.1 0-.1h.1c.1.1.1.1.3 0l.2.1c-.1 0-.1 0 0 0zm1.3-.9-.4-.4c-.1-.1 0-.1 0-.2.1-.1.1-.1.2 0l.2.2c.1.1.1.1.2 0 0 0 .1-.1.1 0v.1c-.1.1-.1.1 0 .2 0 0 .1.1 0 .1 0 .1 0 .2.1.2s.2.1.2.1c0 .1-.1.1-.1.1h-.1c-.2-.1-.3-.2-.4-.4zm-7.2 8.9c-.2.2-.2.2-.5 0-.1-.1-.1-.1 0-.2l.3-.3c.1-.1.1-.1.2 0l.2.2v.1c-.1.1-.1.2-.2.2zm7.2-9.5c.1-.2.1-.2.2-.3h.1l.4.4v.1l-.2.2c0-.1.1-.1.2-.2-.1 0-.1.1-.2.1-.1.1-.1.1-.2.1 0 0-.1 0-.1-.1s0-.2-.2-.2c.1 0 .1.1 0-.1.1.1.1.1 0 0 .1 0 .2-.1.2-.2 0 0 .1-.1 0-.1 0 .2-.1.3-.2.3zm-12.1 4.6.2-.2h.1c.1.1.1.2.2.2.1.1.1.1 0 .2-.1 0-.1.1-.2.2-.2.2-.2.2-.4 0s-.2-.2.1-.4c-.1 0-.1 0 0 0zm11-2.7.5.5h.1l.3-.3c.1-.1.1-.1 0-.2l-.5-.5c-.1-.1-.2-.1-.2 0l-.2.2h-.1v-.1l.2-.2c.1-.1.2-.1.3 0l.5.5c.1.1.1.1 0 .2l-.5.5c-.1.1-.2.1-.2 0l-.3-.3v-.1c.1 0 .1-.1.1-.2zm-5.3-4.8.2-.2h.1c.1.1.2.1.2.2v.1c-.1 0-.2.1-.2.2s-.1.1-.1.2c-.1.1-.1.1-.2 0l-.1-.1c-.2-.2-.2-.1 0-.3 0-.1 0-.1.1-.1zm-2.9 4.9c.1 0 .1 0 .1.1l1.5 1.5.6.6c.1.1.1.2.1.2.1 0 .2.2.3.2 0 .1.1.1.1.2-.9-.9-1.8-1.9-2.7-2.8zm-1.2 13.2c0-.3.1-.7.1-1 0-.1 0 0 .1 0 .1.1.2.2.4.3v.1c-.2.3-.4.4-.6.6zm-7.3-7.2s0-.1 0 0c.2-.2.3-.4.5-.6 0 0 .1-.1.1 0l.4.4c-.3.1-.7.1-1 .2zm4.6-2c-.1-.1-.2-.2-.4-.3v-.1c0-.1.1-.1.2 0 0 0 .1.1.1 0 .1-.1.2-.2.4-.3 0 0 .1 0 .1-.1l.3-.3s.1-.1.1 0c.1.1 0 .1 0 .1l-.7.7s-.1.1-.1.3zm8.3 1.7c.2-.2.4-.4.5-.6h.1l.4.4c-.3.1-.7.2-1 .2zm.6-5.6v-.1s.1-.1.2-.1.2.1.1.2v.1l.5.5s.1.1.1 0c.1-.1.1 0 .2.1s.1.1 0 .2-.1.1-.2 0c-.2-.2-.5-.4-.7-.7 0 0-.1-.1 0-.1v-.1c0-.1-.1-.1-.1-.1s0 .1-.1.1zm2.8.3-.8.8s0 .1-.1.1-.1-.1-.2-.1v-.1c.1 0 .1-.1.2-.1h.1l.5-.5s.1-.1 0-.1c-.1-.1.1-.2.1-.2.1-.1.1 0 .2.1-.1 0-.2 0-.2.1h.2zm-8.9-.1c0-.3.1-.6.1-.9 0-.1 0-.1.1 0l.3.3v.1l-.5.5zm-2 11c.2-.1.3-.4.2-.6v-.2h-.2c-.2-.1-.4 0-.5.1-.1.1-.1 0-.1 0-.1 0 0-.1 0-.1s.1-.1.1 0h.1s.1-.1 0-.1c0-.1 0-.1.1-.1.2 0 .4.1.6.2.1.2.2.4.1.6l-.1-.1v.1c0 .1.1.1.1.1l-.4.4c0-.1 0-.1-.1-.1 0 0 .1 0 .1-.1 0 0 .1-.1.1 0h.1V32h-.2zm3.7-9.8.1-.1c.1-.1.1 0 .1 0 0 .1.1.2.1.4v.2l-.2.2h-.1c0-.1 0-.2-.1-.3-.1-.2-.1-.3.1-.4zm6.1-2.1-.2-.2c-.1 0-.1-.1 0-.1s.1-.1.2-.1h.2v.2s.1.1.1 0h.1v.1c-.1.1 0 .1 0 .1.1.1.1.1.1 0h.1v.1l-.2.2c0 .1-.1.1-.1 0l-.3-.3zm-6 9.2c.1 0 .2-.1.3-.2l.6-.6.1-.1h.1v.1l-.1.1c-.1.1-.3.2-.3.3l-.3.3c0 .1-.1.1 0 .2l.1.1c0 .1 0 .1-.1.1 0 0-.1.1-.1 0l-.3-.3zm5.2-9.4-.2.2s-.1.1-.1 0c-.1 0-.2-.1-.2-.1V19.7h.1c0 .1.1 0 .1 0s.1-.1 0-.1v-.1h.1c.1.1.1 0 .1 0s.1-.1 0-.1v-.1h.1l.2.2v.1c-.1.1-.2.2-.2.3zm-4.6 1.7 1.1 1.1s.1 0 0 .1h-.1l-2-2-.1-.1v-.1h.1l.1.1.9.9zm1.9 3.2c-.1 0-.1.1-.1.1h-.1c-.1 0-.3-.1-.4-.1-.1 0-.1 0 0-.1l.2-.2c.1-.1.1-.1.2 0 .1 0 .2.1.4.1.1 0 .1.1 0 .1s-.2 0-.2.1zm3.7-3.9.2-.2s.1-.1.1 0c.1 0 .1.1.1.2v.2h-.1c-.1-.1-.1 0-.1 0-.1 0 0 .1 0 .1v.1h-.1c0-.1-.1-.1-.1 0 0 0-.1.1 0 .1v.1h-.1l-.2-.2c-.1 0-.1-.1 0-.1l.3-.3zm-.9-.2c.1 0 .1 0 0 0 .1.1.2.1.2.2v.1c0 .1-.1.1-.1.1H25.4V21c.1-.1 0-.1 0-.1 0-.1-.1 0-.1 0h-.1v-.1c.1-.1.1-.1 0-.1-.1-.1-.1 0-.1 0H25v-.1l.2-.2c.1-.1.1-.1.2 0 .1.2.2.2.2.3zm-1.1-.8c.1-.1.2-.1.1-.2v-.1l.8-.8h.1s.2.1.1.2c0 .1-.1.1-.2.1h-.1l-.5.5s-.1.1 0 .1c0 .1-.1.1-.1.2-.2.1-.2.1-.2 0zm2.8.1c0 .1-.1.1-.1.2-.1-.1-.2-.1-.2-.2 0 0 0-.1-.1-.1l-.5-.5s-.1-.1-.1 0c-.1.1-.2 0-.2-.1-.1-.1 0-.1 0-.2 0 0 .1-.1.2 0l.7.7s.1.1 0 .1v.2c.2 0 .3 0 .3-.1zm4.9-.9.5.5s.1.1 0 .1h-.2l-.9-.9s-.1-.1 0-.1c.1-.1.1 0 .1 0 .2.1.4.3.5.4zm-12.8-1.3c0 .1 0 .1 0 0 .2.2.2.2 0 .3 0 0-.1.1 0 .1 0 0 .1.1 0 .1h-.1c-.2-.1-.4-.3-.4-.5v-.1h.2c.1 0 .1 0 .3.1zm11.8 3.3c-.1-.1-.1-.4 0-.5h.1l.5.5v.1c-.1 0-.4 0-.6-.1zm-3.2-.4-.2-.2s0-.1-.1-.1c0-.1.1-.1.1-.2.1-.1.1 0 .1 0l.5.5c.1.1 0 .1 0 .2 0 0-.1.1-.2 0l-.2-.2zm-8-3.3.2.2v.1s-.1.1-.1 0c-.1-.1-.1 0-.2 0 0 .1-.1 0-.1 0l-.2-.2c-.1-.1-.1-.1 0-.2.1 0 .1-.1 0-.1v-.1h.1l.3.3zm9.2-1.5.3-.3s0-.1.1 0v.1c-.1.3-.3.5-.4.8h-.1v-.4c-.1 0 0-.1.1-.2zm3.3 3.9c-.2.2-.4.5-.7.7-.2.2-.1.2-.4 0-.1-.1-.1-.1 0-.1.4-.2.8-.4 1.1-.6zm-14.2.8c-.2-.2-.4-.3-.5-.5V20c.1 0 .2-.1.2-.1 0-.1.1-.1.1-.2.1-.1.1 0 .1 0 0 .3.1.6.1.9zm7.2 6.1s-.1 0 0 0c-.4 0-.9-.1-1.3-.1.3-.1.6-.1.9-.2h.1s.1.2.3.3zm-1.7-9.3c-.1.1-.2.1-.2.1-.1 0 0-.1-.1-.1l-.1-.1s-.1 0-.1-.1c0-.2.1-.3.3-.3 0 0 .1 0 .1.1s0 .1.1.1.1 0 .1.1 0 .1-.1.2zm-5.3 3.4c-.1-.1-.1-.3-.1-.4 0-.2-.1-.5-.1-.7v-.1h.1l.2.2s.1.1 0 .1c0 .3-.1.6-.1.9zm10-6.2c-.2.2-.4.3-.5.5-.1.1-.2.2-.3.1 0 0-.1 0-.1-.1s0-.1.1-.1c.2-.1.3-.2.5-.3 0-.1.1-.1.3-.1zm-5 5.7c0 .1-.1.1 0 .1l.1.1c.1 0 .1-.1.2 0 0 .1-.1.1 0 .2s.1.1.3 0c-.1.1-.1.2 0 .2 0 0 0 .1-.1.1s-.1 0-.2-.1l-.2-.2c-.4-.1-.4-.1-.1-.4zm-.7 3.2.2.2c.2.2.5.4.7.7l.8.8.1.1c0 .1-.1 0-.1-.1l-1.4-1.4c-.2-.1-.3-.2-.3-.3zm-4-3.5h.2c.1 0 .2 0 .3.1l.3.3v.1h-.1c-.1 0-.1 0-.1.1-.1-.1-.1-.1-.2-.1 0 0-.1 0 0 0v-.1c-.1-.2-.2-.3-.4-.4zm1 3-.1-.1v-.1l.2-.2c.1-.1.1 0 .1 0 0 .1.1.2.1.3 0 .1 0 .2-.1.2-.1.1-.1 0-.2-.1zm13.5-3.1c.8-.8 1.5-1.6 2.3-2.3l-2.3 2.3zM22.6 25l-.3.3h-.1l-.2-.2s-.1 0-.1-.1.1-.2.2-.1c.1 0 .3 0 .5.1zm5.4-7.1-.3.3s0 .1-.1 0c-.1 0-.1-.1 0-.2.2-.1.3-.3.5-.4.1 0 .1-.1.1-.2v-.1h.1c.1 0 .1.2 0 .2-.1.2-.2.3-.3.4zM26.3 16l.2-.2c.1-.1.1-.1.2 0 0 0 .1 0 .1.1 0 0 0 .1-.1.1s-.1 0-.2.1c-.1.2-.3.3-.4.5-.1.1-.1 0-.1 0-.1 0 0-.1 0-.1 0-.2.1-.4.3-.5zm4 2s0-.1 0 0l.4.4s.1.1 0 .1c-.1.1-.1 0-.1 0l-.8-.8s-.1-.1 0-.1c.1-.1.1 0 .1 0l.4.4zM28 19.6c-.1 0-.1-.1 0 0-.1-.1-.1-.2-.1-.2.2-.1.3-.1.4 0l.1.1c.1.1.1.1.1.2v.1c0 .1 0 .1-.1 0-.3 0-.3-.1-.4-.2zm-2.8-7.2c0 .1.1.1.1.1.1-.1.1 0 .2 0l.1.1h-.1s0 .1.1.1.1 0 .1-.1l.1.1c.1.1.1.1 0 .2v.1h.1s0-.1.1-.1l.1.1s.1.1 0 .1v.1h.1v-.1c.1.1 0 .1 0 .1 0 .1-.1 0-.1 0-.3-.3-.6-.6-.9-.8 0 .1 0 .1 0 0zM13.9 29l-.5.5c-.1.1-.1 0-.1 0h.1v-.2s.1-.1.1 0h.1v-.1c-.1-.1 0-.1 0-.1.1-.1.2-.3.1-.4v-.2c.3 0 .4.2.2.5 0-.1 0-.2-.1-.2v.1l.1.1zm1.7 4.1c-.1 0-.1 0-.1-.1l-.6-.6c-.3-.3-.6-.6-.8-.9l-.1-.1.1.1 1.4 1.4c0 .1 0 .1.1.2zm-2.9-2.8-.8-.8s-.1 0 0-.1h.1l.4.4.9.9.3.3s.1.1 0 .1h-.1c-.3-.2-.5-.5-.8-.8zM27.3 9.4c-.8.8-1.5 1.6-2.3 2.3l2.3-2.3zm-6.2 6.1-.4.4h-.1v-.1l.1-.1.5-.5.2-.2s.1-.1.1 0c.1 0 0 .1 0 .1-.1.2-.3.3-.4.4zm-2.4 3.1.2.2v.1s-.1.1-.1 0c-.2-.1-.3-.3-.5-.4v-.1h.1c.2 0 .2.1.3.2zm11.6-4.7c-.2-.2-.3-.3-.3-.4v-.1h.1c.1.1.2.3.4.4.1.1.2.2.3.2h-.2c-.1.1-.3 0-.3-.1zM13.7 26.8c.1 0 .1.1.2 0 0 0 .1 0 .1.1s.1.2.2.2c0 0 .1 0 .1.1s.1.2.2.2c0 0 .1 0 .1.1s.1.2.2.2c0 0 .1 0 .1.1s.1.2.2.2c0 0 .1 0 .1.1v.1h-.1l-.1-.1-1-1-.3-.3zm5.6 4.8c0-.1 0-.1 0 0 .8-.8 1.6-1.7 2.4-2.5-.8.8-1.6 1.6-2.4 2.5zm-.7-12.8c.1.1.1.1.1.2-.1.1-.1 0-.1 0-.2-.1-.3-.3-.5-.4 0 0-.1-.1 0-.1 0 0 .1-.1.1 0 .1 0 .2.2.4.3zm3-3.7c-.1 0-.1 0-.1-.1v-.1s.1-.1.1 0c.1.2.3.3.5.5 0 0 .1.1 0 .1-.1.1-.1 0-.1 0-.1-.2-.2-.3-.4-.4zm.6 0 .2.2v.1h-.1c-.2-.1-.3-.3-.5-.4v-.1h.1c.2 0 .2.1.3.2zM21 16.2l.1.1v.1H21l-.2-.2-.3-.3c-.1 0 0-.1 0-.1h.1c.1.2.3.3.4.4zm-3.8 13.9c.1 0 .1 0 .1.1l1 1 .1.1v.1h-.1v-.1c0-.1-.1-.2-.2-.2 0 0-.1 0-.1-.1s-.1-.2-.2-.2-.1 0-.1-.1-.1-.2-.2-.2c0 0-.1 0-.1-.1s-.1-.2-.2-.2h-.1c.2 0 .2 0 .1-.1zm2.9-13c-.1-.1-.2-.1-.2-.2v-.1h.1l.4.4v.1h-.1c-.1 0-.1-.1-.2-.2zm-1.8 14.3c-.1 0-.1-.1-.1-.1l-1-1s-.1 0 0-.1h.1s.1 0 .1.1 0 .2.2.2c0 0 .1 0 .1.1s.1.2.2.2c0 0 .1 0 .1.1s.1.2.2.2c0 0 .1 0 .1.1s.1.2.2.2h.1c-.4-.1-.3-.1-.3 0zM19.8 17s0-.1 0 0c.1.1.3.2.4.3 0 0 .1.1 0 .1h-.1l-.5-.5s-.1-.1 0-.1c.1-.1.1 0 .1 0 0 .1.1.1.1.2zm-1 1.5-.2-.2v-.1s.1-.1.1 0h.1l.4.4s.1.1 0 .1c0 0-.1.1-.1 0-.2-.1-.3-.1-.3-.2zm.1-.4.2.2v.1H19c-.2-.2-.4-.3-.5-.5-.1 0 0-.1 0-.1s.1-.1.1 0c.1.1.3.2.3.3zm1.8-1.6c-.1-.1-.2-.1-.2-.2v-.1s.1-.1.1 0c0 0 .1 0 .1.1l.4.4s.1.1 0 .1H21l-.3-.3zm3.5 4.2-.1-.1s-.1-.1-.1 0l-.1.1v.1h-.1V20.5c-.1-.1-.1-.1-.2 0h-.1v-.2c0-.1.1-.1.1-.1s.1 0 .1.1c.3.1.4.2.5.4 0-.1 0-.1 0 0zM15 27.8c-.1 0-.1-.1-.2-.1 0-.1-.1-.2-.2-.2 0 0-.1 0-.1-.1s-.1-.2-.2-.2c0 0-.1 0-.1-.1s-.1-.2-.2-.2c0 0-.1 0-.1-.1s-.1-.2-.2-.2h-.1v-.1h.1c.4.3.7.7 1.1 1l.2.3zm18-7.7s0 .1 0 0l.2.2c.1.1.1.1 0 .2h-.1v-.1c0-.1 0-.1-.1-.1s-.2-.2-.2-.2c0-.1 0-.1-.1-.1h-.1c0-.1.1-.1.2-.1 0 .1.1.1.2.2zM19.5 32.4l.4.4s.1 0 0 .1h-.1l-.7-.7s-.1-.1 0-.1h.1l.3.3zM25 19.5l.2-.2h.1v.1s-.1.1 0 .1v.1h-.2s-.1.1 0 .1c0 0 .1.1 0 .1h-.2s-.1.1 0 .1v.1c-.1 0-.1-.1-.1-.1v-.1c.1-.2.2-.3.2-.3zm-3.8 11.1-.4-.4s-.1 0 0-.1h.1l.7.7s.1.1 0 .1h-.1c-.1 0-.2-.1-.3-.3zm3.1-3 .3.3s.1.1 0 .1h-.1l-.7-.7s-.1-.1 0-.1h.1l.4.4zm-1.8 1.7.3.3s.1 0 0 .1h-.1L22 29s-.1-.1 0-.1h.1l.4.4zm-10-3.8c-.1-.1-.2-.2-.3-.2 0 0-.1-.1 0-.1h.1c.2.2.5.4.7.7 0 0 .1.1 0 .1h-.1c-.1-.2-.3-.3-.4-.5zm12.4-13.6c.1.1.1.2.2.2 0 0 .1.1 0 .1H25l-.4-.4s-.1-.1 0-.1h.1l.2.2zm-7.6 8.9-.4-.4s-.1 0 0-.1h.1l.7.7s.1.1 0 .1h-.1c0-.1-.2-.2-.3-.3zm-1.7 1.7.4.4v.1h-.1l-.7-.7s-.1-.1 0-.1h.1l.3.3zm-1 1.4.2.2s.1 0 0 .1h-.1l-.7-.7v-.1h.1c.1.2.3.4.5.5zm13.4-.1c.2-.3 2.2-2.3 2.3-2.3L28 23.8zm-14.2 4.4c-.1 0-.1.1-.1 0-.2-.1-.4 0-.6.1l-.1-.1s.1-.2.2-.1h.1V28c0-.1 0-.1.1-.1.1.2.3.2.4.3zM33 20.1l-.2-.2s-.1-.1 0-.1h.1l.2.2c-.1-.1 0 0-.1.1 0-.1 0 0 0 0 .1 0 .1 0 0 0 .1-.1.2 0 .2 0l.1.1v.1h-.1c0-.1-.1-.1-.2-.2zm-12.2-3c0 .1-.1.1-.1.1 0 .1-.1 0-.1 0-.1 0 0-.1 0-.1l.3-.3s.1-.1.1 0c.1.1 0 .1 0 .1-.1.1-.2.1-.2.2zm6.1 4.2-.2.2h-.1v-.1c.1 0 0-.1 0-.1v-.1h.1c0 .1 0 .1.2.1 0-.1 0-.1-.1-.2V21s.1.1.1 0 .1-.1 0-.2c0 0 0-.1 0 0 .1 0 .1.1.1.1v.1c0 .2 0 .2-.1.3zm-1.6-.2c-.1-.1-.2-.1-.3-.2v-.1H25.3v.1c-.1 0-.1.1 0 .2.1 0 .1 0 .2-.1h.1v.1c-.1 0 0 .1 0 .1.1.1.1 0 .1 0 0 .1-.1.1-.1.1h-.1c-.1-.1-.2-.1-.2-.2zm-1.7 6.1c-.6.6-1.2 1.2-1.7 1.8.6-.7 1.1-1.3 1.7-1.8zm3.1-7.5.2.2v.1h-.1s-.1-.1-.1 0h-.1v-.1s.1-.1 0-.1c0 0-.1-.1-.2 0h-.1s.1-.1 0-.1c-.1-.1-.1 0-.2 0 0 0-.1 0 0 0 0-.1.1-.1.1-.1h.1c.3-.1.3 0 .4.1zM21 17.2c-.7.8-1.5 1.5-2.2 2.2.7-.8 1.5-1.5 2.2-2.2zm6.7 6.9c-.7.7-1.3 1.4-2 2l2-2zm4.9-3.4c-.1.1-.2.1-.3 0-.1-.1-.1-.2 0-.2.1-.1.2-.1.3 0 .1 0 .1.1 0 .2zm-8.2 4.6c-.8-.8-1.6-1.5-2.3-2.3l2.3 2.3zm-.7 1.9c-.5.6-1.1 1.1-1.6 1.7.5-.6 1-1.1 1.6-1.7zm-4.6-9.8.3-.3.1-.1v.1l-.1.1c-.2.2-.3.2-.3.2 0 .2-.1.3-.2.3h-.1v-.1c.1 0 .2-.1.3-.2zm-7.9 10-.3-.3s-.1 0 0-.1h.1c.2.2.4.3.5.5 0 0 .1.1 0 .1h-.1l-.2-.2zm6.4-8.5.3-.3h.1c-.1.1-.1.2-.2.2s-.2.1-.3.3c0 .1-.1.1-.2.1h-.1v-.1c.2 0 .3-.1.4-.2zm0 14.8-.3-.3v-.1h.1c.2.2.4.3.5.5 0 0 .1 0 0 .1h-.1l-.2-.2zm4.3-10.9s0 .1 0 0l-2.2-2.2 2.2 2.2zm1.4-6.7 2.4 2.4-2.4-2.4zm3.9 9.1-2.1 2.1 2.1-2.1zm-9.6-5.3-.2-.2c-.1-.1-.1-.1-.2-.1h-.1l-.1-.1s-.1-.1 0-.1c.1-.1.1-.1.2 0 .1.2.2.3.4.5 0 0 .1 0 0 0zm7.5-7.5-2.5 2.5 2.5-2.5zm-5.2 14.7-.2.2s0 .1-.1 0v-.1l.4-.4s0-.1.1 0v.1l-.2.2zm.6-.6-.2.2s0 .1-.1 0v-.1l.4-.4h.1v.1l-.2.2zm-2.2 7.6c0-.4.1-.9.1-1.3 0 .5 0 .9-.1 1.3zm-6.1-7.6s0 .1 0 0c-.4.1-.9.2-1.3.3.4-.1.8-.2 1.3-.3zm8.4 3.8-1.3 1.3c.5-.4.9-.9 1.3-1.3zm12.1-9.4-.2.2h-.1V21c.1-.1.2-.3.4-.4h.1v.1c0 .1-.1.1-.2.2zm-14.1 3.7-.2.2h-.1v-.1l.4-.4s.1-.1.1 0v.1c-.1 0-.2.1-.2.2zm9.9-5c0-.2 0-.4-.3-.3.1-.1.3-.2.4-.1 0 .1 0 .2-.1.4zm-9.2 8.1-.2.2H19v-.1l.3-.3h.1v.1l-.1.1zm-.9 6.4s0-.1 0 0c.2-.3.4-.5.7-.7-.3.2-.5.5-.7.7zm-.5-9 .2-.2s0-.1.1 0v.1l-.4.4s0 .1-.1 0v-.1l.2-.2zm11.9-5.9c0 .1 0 .1 0 0l-.1.1-.1-.1c0-.1.1-.1.2-.2.1.1.1.1 0 .2zm-8.3 6.1.2-.2h.1v.1l-.4.4h-.1v-.1c.1-.1.2-.1.2-.2zm6.5-6c.1-.1.2-.2.2-.3.1-.1.1-.1.3.1-.2 0-.3.2-.5.2zM22.2 16l-1 1c.3-.3.6-.7 1-1zm-2 11.3-.2.2s0 .1-.1 0v-.1l.4-.4s0-.1.1 0v.1c0 .1-.1.2-.2.2zm0 1.8c-.1 0-.8-.7-.8-.8.2.3.5.5.8.8zm1.4-12.2c0 .2-.2.4-.4.4.1-.1.3-.2.4-.4zm-1.7 6.4-1.5 1.5 1.5-1.5zm-6.1 8.2c0-.1.1-.1.1-.2-.1-.1-.1 0-.2 0 .1-.1.1-.2.3-.2.1 0 .1 0 .1.1-.2.1-.2.2-.3.3zm14.6-11.7c0-.1 0-.1.1-.2s.1-.2.2-.3c.1 0 .1.1 0 .2l-.3.3zm-8.7 3.6-.2.2h-.1v-.1l.4-.4h.1v.1l-.2.2zm2.2 2.3-.2.2s0 .1-.1 0v-.1l.4-.4h.1v.1c-.1 0-.1.1-.2.2zm-.4-8 .6-.6-.6.6zm-4.3 7.9c.1-.1.1-.2.2-.2h.1v.1c-.1.2-.3.3-.4.4H17v-.1l.2-.2zm3.8.4-.1.1h-.1V26l.3-.3h.1v.1l-.2.2zm-3.7-.3.2-.2h.1v.1l-.3.3h-.1v-.1l.1-.1zm5.8-6.2c-.1 0-.1-.1-.1-.1h-.1s-.1.1-.1 0c-.1 0 0-.1 0-.1v-.2h-.1s0 .1-.1 0l.1-.1h.1c0 .2.2.3.3.5zm-11.5 9.8c0-.1.2-.2.3-.2 0 0 .1 0 .1.1s-.1.2-.2.3c0-.1.1-.1 0-.2s-.1 0-.2 0zm4.1 4.1c0-.1.1-.1 0-.2s-.1 0-.2 0c.1-.1.2-.2.3-.2.1 0 .1 0 .1.1 0 .2-.1.2-.2.3zm6.9-14c-.1.1 0 .2 0 .2s-.1 0-.1.1-.1 0-.1 0v-.1l.2-.2zm9.4 1.2c.1-.2.3-.3.4-.4 0 0 0 .1-.1.1 0 0-.1 0-.1.1.1 0-.1.1-.2.2zm-12.5 7.3.2-.2h.1v.1c-.1.1-.2.2-.3.1 0 .1-.1.2-.1.2h-.1V28c.1.1.2 0 .2-.1zm3.1-4.6c-.2 0-.3-.2-.4-.3v-.1h.1c0 .1.2.3.3.4zm-6.1 10.5.3-.3.3-.3h.1v.1c-.1 0-.1.1-.2.1l-.3.3c-.1.1-.1.1-.2.1zm14.8-13.3c.1 0 .6.5.6.6l-.6-.6zM16.4 33.9c-.2-.2-.4-.3-.6-.5.2.2.4.4.6.5zm3.2-10.6-.2.2h-.1v-.1l.4-.4s0-.1.1 0v.1l-.2.2zm1.2 3.5-.2.2h-.1v-.1l.4-.4c0 .1 0 .2-.1.3zM19.2 28s-.1 0 0 0c.2-.2.3-.4.5-.5-.2.2-.4.3-.5.5zm-1.1-3.3c0 .1 0 .1 0 0-.1.2-.3.3-.4.5 0 0 0 .1-.1 0v-.1c.2-.1.3-.2.5-.4-.1.1 0 0 0 0zm2.5-7.9c-.2-.2-.4-.3-.5-.5l.5.5zm-9 12.4c-.2-.1-.4-.3-.6-.5.2.1.4.3.6.5zm8.2-1.6-.5.5V28c.1-.1.3-.3.5-.4-.1 0-.1 0 0 0zm-3.1-2c-.3-.3-.6-.5-.8-.8l.8.8zm1.5-1.4.2-.2h.1v.1l-.4.4H18v-.1l.2-.2zm2 2.7s.1 0 0 0c-.1.2-.3.3-.5.5l.5-.5zm7.8-6.8c0-.1.1-.1.1 0l.4.4.1.1v.1h-.1v-.1c0-.1 0-.1-.1-.1-.1-.1-.3-.2-.4-.4.1 0 0 0 0 0zM15.7 32.6s-.1 0 0 0c-.1.1-.1.1-.2.1v-.1l.1-.1h.1c.1 0 0 0 0 .1 0-.1 0 0 0 0zm5-15.9c-.2-.1-.4-.3-.5-.5.2.2.4.3.5.5zm-2.2 15.7c0-.3 0-.5.1-.8 0 .3 0 .6-.1.8zm9.7-15.1c.3-.2.5-.5.8-.7-.2.2-.7.7-.8.7zM19 24l.1-.1s0-.1.1 0v.1l-.3.3h-.1v-.1l.2-.2zm-1.1.5c0 .1-.4.5-.5.5l.5-.5zm-1 1.3c0-.1 0-.1 0 0 .1-.2.3-.4.5-.5l-.5.5zm2.9 1.7.5-.5v.1l-.4.4c0-.1 0 0-.1 0zm.6-.6c.2-.2.3-.4.5-.5v.1l-.3.3s-.1.1-.2.1zm-1.9-2.5-.2.2h-.1v-.1l.4-.4v.1c0 .1-.1.2-.1.2zm-1 .8c0-.1.4-.5.5-.5l-.5.5zm-4.9 4.3s.1 0 0 0c.1-.1.2-.1.2-.1v.1l-.1.1h-.1c-.1.1-.1 0 0-.1 0 .1 0 .1 0 0zm0-3c.2-.1.5-.1.8-.2-.3.1-.6.2-.8.2zm5.5-1.9c.1-.2.3-.3.5-.5-.2.1-.3.3-.5.5zm13.9-3c.1-.1.2-.2.1-.3 0 0 0-.1.1-.1h.2v.1c-.2.1-.3.2-.4.3zM15.4 32.3c.1-.1.1-.1.2 0v.1l-.1.1c-.2 0-.2-.1-.1-.2zm6.5-7.1c0 .1-.4.5-.5.5l.5-.5zm-2.7-1.6c-.1.2-.3.3-.4.5.1-.2.3-.3.4-.5zm2.3 2.2c.1-.2.3-.3.4-.5h.1v.1l-.3.3s-.1.1-.2.1zm6.4-8.3c.1 0 .1 0 0 0 .1-.1.1-.2.2-.1v.1l-.2.2h-.1v-.1c.1 0 .1 0 .1-.1zm-8.3 5.4c-.1.2-.3.3-.4.5.1-.2.2-.4.4-.5zm.8 3.9c-.1 0-.1 0 0 0 .1-.2.3-.3.4-.5v.1l-.3.3c-.1 0-.1.1-.1.1zm2.1-11.1 1-1c-.4.3-.7.7-1 1zm6.6 2.7c-.1.1-.1.1 0 0-.1.1-.1.1-.2.1v-.1c.1-.1.1-.1.2-.1h.1c0 .1-.1.1-.1.1z"/><path d="M23.3 22.4c-.1.1-.1.2-.2.2v.1c.1 0 .1 0 0 .1v.4c-.1 0-.1.1 0 .1.1.2.2.3.4.4.1 0 .2.1.2 0h.5c0 .1.1.1.1 0 .2-.1.4-.3.4-.5v-.1c-.1 0-.1 0-.1-.1v-.2c0-.1 0-.2.1-.2v-.1c-.1-.2-.3-.3-.5-.4h-.1c0 .1-.1.1-.1.1h-.3s-.1 0-.1-.1 0-.1-.1 0c0 .1-.1.2-.2.3zm.1 1.2c-.2-.2-.1-.2-.1-.4s.1-.4 0-.5v-.1l.3-.3h.1c.1.1.1 0 .2 0h.5c.2.1.3.2.4.3v.1c-.1 0-.1.1 0 .2v.5c-.1.2-.2.3-.3.4h-.1c0-.1-.1-.1-.1 0h-.4c0 .1-.1 0-.1 0-.3-.1-.4-.2-.4-.2zM14 30.9l.2.2c.1.1.2.1.3-.1 0-.1.1-.1.1 0 .2.1.4.1.6.1.4-.1.6-.4.6-.8 0-.7-.7-1.3-1.3-1.3-.4 0-.7.3-.7.7 0 .2 0 .4.1.5v.2c-.1.1-.1.2 0 .3 0 0 0 .1.1.2zm.9.1h-.1c-.1 0-.1 0 0-.2.1-.1.1-.1 0-.2l-.5-.5c-.1-.1-.1-.1-.2 0s-.1.1-.2-.1v-.1c-.1-.5.2-1 .8-.9.5.1 1 .5 1.1 1 .1.6-.3 1-.8.9.1 0 .1-.1 0-.2 0-.1-.1-.1-.1 0-.1.2 0 .2 0 .3zm-.5-.5.2.2v.1h-.1l-.1-.1c-.1-.1-.2-.3-.4-.4 0 0-.1 0 0-.1 0 0 0-.1.1 0 0 0 .1 0 .1.1l.2.2zm-.2.2c.1.1.2.2.2.3v.1h-.1l-.5-.5v-.1h.1c.1.1.2.1.3.2zM31.9 17.5c0 .1.1.1.1.1h.2c.1-.1.1-.1 0-.2s-.2-.2-.3-.1c-.1 0-.3.1-.4.1-.1 0-.3.2-.2.3 0 .1 0 .1-.1.1s-.1.1 0 .2l.1.1.1.1c.1 0 .1-.1.1-.1.3-.2.4-.3.4-.6-.1 0-.1 0 0 0zm-.2.1c0 .1-.1.1-.2.1h-.1v-.1l.3-.3h.1v.1c0 .1-.1.2-.1.2zM27.4 13.1h-.1c-.2 0-.3.2-.3.3 0 0 0 .1 0 0-.1 0-.1.1-.1.1s0 .1.1.1l.1.1c.1.1.2.1.3 0h.1c.1 0 .3-.2.3-.3 0-.1 0-.3.1-.4 0-.1 0-.3-.1-.3h-.2c-.1.1-.1.2 0 .2-.3.2-.2.2-.2.2zm0 .3s-.1.1-.2.1h-.1v-.1l.3-.3h.1v.1c0 .1-.1.2-.1.2zM24.5 15.4c.1.1.2.1.3 0 .1-.1.1-.2 0-.3-.1-.1-.2-.1-.3 0-.1.1-.1.2 0 .3zM26.7 17.6l.1-.1v-.1h-.1c-.1.1-.2.1-.2.2v.1h.1c0-.1 0-.1.1-.1zM25.6 17.8c.1-.1.1-.2 0-.2-.1-.1-.2-.1-.2 0-.1.1-.1.2 0 .2 0 .1.1.1.2 0zM24.9 17.3c.1.1.2.1.2 0 .1-.1.1-.2 0-.2-.1-.1-.2 0-.2 0-.1 0-.1.1 0 .2zM26.1 18.3c.1-.1.1-.1 0-.2s-.2-.1-.3-.1c-.1.1-.1.2 0 .2.1.1.2.1.3.1zM26.8 19c-.1.1-.1.2 0 .2.1.1.2.1.2 0 .1-.1.1-.2 0-.2h-.2zM26.3 18.7c.1.1.1.1.2 0s.1-.2 0-.2c-.1-.1-.2-.1-.2 0s-.1.2 0 .2zM21.8 26.8c0-.1.1-.1.1-.1v-.1h-.1c-.1 0-.1.1-.2.1l-.3.3-1.2 1.2c-.1.1-.2.1-.2.2v.1h.1c.2-.1.3-.3.4-.4l.5-.5.6-.6c.2-.1.2-.2.3-.2zm-.1 0-1.5 1.5 1.5-1.5zM18.2 23.1c-.2.3-.5.5-.7.8l-.8.8c-.1.1-.2.1-.2.2v.1h.1l.3-.3 1.3-1.3c.1-.1.2-.1.2-.2v-.1h-.2zM16.3 28.7l1.9 1.9c.1.1.2.1.4 0l1.1-1.1c.1-.1.1-.3 0-.4-.6-.6-1.3-1.2-1.9-1.9-.4-.4-.8-.8-1.2-1.3l-.7-.7c-.1-.1-.2-.1-.3 0l-1.2 1.2c-.1.1-.1.2 0 .3l1.4 1.4c.2.2.4.4.5.6zm1.2-.3-.1.1-.5.5s0 .1-.1 0v-.1l1.1-1.1s.1-.1.1 0v.1c-.1.2-.3.3-.5.5zm-.7-1c.1-.2.3-.3.4-.5 0 0 0-.1.1 0v.1l-1.1 1.1-.1.1s0-.1.1-.1c.1-.3.4-.5.6-.7zm1.5 1.7.6-.6s0-.1.1 0v.1l-.8.8-.4.4h-.1v-.1l.1-.1.5-.5zm-3.1-1.7c0-.1 1.2-1.3 1.3-1.3l-1.3 1.3zm2.2-.4c0-.1 0-.1 0 0 .3.2.5.4.7.6v.1H18c-.2-.2-.3-.4-.5-.5l-.1-.2zm-1.3 1.3c.2.2.5.4.7.6-.3-.2-.5-.4-.7-.6zM28.9 22c-.1.1-.2.2-.2.3v.1h.1l.1-.1c.1 0 .1-.1.2-.1 0-.1 0-.1.1-.1 0 0 .1-.1 0-.1 0 0-.1-.1-.1 0-.1-.1-.2-.1-.2 0zm.2 0-.2.2h-.1v-.1s.1-.1.3-.1c0-.1.1-.2.1-.1s-.1.1-.1.1zM21.8 21.4c.1.1.2.1.2 0 .1-.1.1-.2 0-.2-.1-.1-.2-.1-.2 0-.1 0-.1.2 0 .2zM28.9 15.3l.1-.1v-.1h-.1c-.1.1-.2.1-.2.2v.1h.1s.1 0 .1-.1zM20.6 31.8c.1-.1.1-.2 0-.2-.1-.1-.2-.1-.2 0-.1.1-.1.2 0 .2 0 .1.1.1.2 0zM13.1 24.7c.1.1.2.1.3 0 .1-.1.1-.2 0-.2-.1-.1-.2-.1-.3 0v.2zM23.3 28.8c.1.1.2.1.2 0 .1-.1.1-.2 0-.3-.1-.1-.2-.1-.2 0s-.1.2 0 .3zm.1-.2s.1 0 0 0c.1.1.1.1 0 0 .1.1 0 .1 0 0 0 .1 0 .1 0 0zM16.2 21.4c-.1.1-.1.2 0 .3.1.1.2.1.3 0 .1-.1.1-.2 0-.3h-.3zM19.8 26.6l1.4-1.4c.1-.1.1-.3 0-.4l-.9-.9c-.2-.2-.3-.2-.5 0L18 25.7c-.1.1-.2.2-.1.4v.1c-.1.1-.1.1 0 .2s.2.1.2 0 .1 0 .1 0l.4.4v.1c-.1.1-.1.1 0 .2s.1.1.2 0c0 0 .1-.1.1 0 .1.1.2 0 .3-.1.2-.1.4-.2.6-.4zm.4-.5-.9.9c-.1.1-.1.1-.2.1s-.1 0-.1-.1-.1-.2-.2-.2h-.1l-.4-.4v-.1c0-.1-.1-.3-.2-.2-.1 0-.1 0-.1-.1s0-.1.1-.2l.3-.3 1.5-1.5c.1-.1.2-.1.4 0l.9.9c.1.1.1.2 0 .4-.4.2-.7.5-1 .8zM18.2 35.2l-.3.3s-.1 0 0 .1h.1l.6-.6v-.1h-.1l-.3.3zM9.7 26.8l-.3.3s-.1.1 0 .1h.1l.6-.6v-.1H10l-.3.3zM27.5 16.4c0 .1.1.1.2.1.2 0 .3-.1.3-.3 0-.2-.2-.2-.3-.3-.2-.1-.3.1-.3.3 0 .1 0 .1.1.2zm.3-.3c0 .1.1.1 0 .2s-.1 0-.2 0c0 0-.1-.1 0-.2s.1 0 .2 0zM17.9 21.3c-.5.6-1.1 1.1-1.6 1.7-.1.1-.2.2-.3.2-.1 0-.1.1-.1.2l-1.3 1.3-1 1c-.1.1-.1.1-.2.1s-.1.1-.1.1l-.2.2v.1h.1l.1-.1.1-.1c.1 0 .1 0 .1-.1v-.1c.8-.8 1.5-1.6 2.3-2.3 0 0 .1-.1.2-.1 0 0 .1 0 .1-.1v-.1c.2-.2.4-.3.5-.5l1.1-1.1s.1-.1.1 0c0 0 .1 0 .1-.1-.1-.1.1-.2 0-.2.1-.1 0-.1 0 0zm-1.9 2-2.5 2.5c.8-.9 1.6-1.7 2.5-2.5zm1.8-1.9s.1 0 0 0c-.6.6-1.2 1.2-1.7 1.8.6-.6 1.2-1.2 1.7-1.8z"/><path d="M15.2 29.8c.1.1.2.1.3.2v-.1s0-.1-.1-.1c-.2 0-.3-.1-.3-.3 0 0 0-.1-.1-.1h-.1v.1c.1 0 .1.2.3.3zM20.4 24.7c.1.1.2.1.2 0 .1-.1.1-.2 0-.2-.1-.1-.2-.1-.2 0-.1 0-.1.1 0 .2z"/><path fill="#010101" d="M15.8 27.1c-.2-.1-.4-.3-.4-.5s0-.4.1-.6c0-.1.1-.1.1-.2v-.1c.1-.3.3-.6.5-.8.2-.2.4-.3.6-.4.5-.3.9-.2 1.3-.1h.1c.2 0 .4.1.7.1.5 0 .9-.2 1.2-.5.3-.3.4-.6.6-.9.2-.5.5-1 1-1.4.3-.2.6-.4 1-.6.2-.1.4-.1.6-.1h.1c.2 0 .3.2.3.3 0 .2-.1.2-.2.3-.4.3-.7.6-1 .9 0-.1.1-.1.1-.2a5 5 0 0 1 1.6-1.1c.3-.2.6-.3.9-.4-.3-.1-.6-.1-.9 0-.1 0-.2.1-.3-.1 0-.2.1-.3.1-.3.5-.5 1-.8 1.4-1.1.5-.3.9-.4 1.3-.4.2 0 .3.1.5.1.1 0 .2.1.2.2s-.1.2-.2.3l-.1.1c.7-.4 1.3-.5 2-.3-.1 0-.1-.1-.2-.1-.1-.1-.3-.2-.5-.2-.1 0-.1 0-.2-.1v-.2c0-.1.1-.2.2-.2l.6-.3c.1 0 .1-.1.2-.1l.6-.3c.1 0 .1-.1.2-.1s.2-.1.2-.1l.6-.3h.1c.1 0 .3-.1.4-.1.1 0 .2 0 .3.1v.3c0 .1-.1.2-.2.3.3-.2.6-.3.9-.3h.7c.2 0 .4.1.6.2h.1c.1.1.2.1.3.2v-.2c-.2-.3-.4-.6-.9-.7-.2 0-.2-.1-.2-.2s.1-.2.1-.2c.1-.1.2-.1.2-.2.2-.1.3-.3.5-.4.3-.2.4-.5.6-.8 0 0 0-.1.1-.1l.3-.6c.3-.4 1-.9 1.7-.8h.1c.2 0 .4.1.6.2.3.2.4.4.3.7 0 .2-.1.5-.2.7v.1h.2c.6-.1 1.2-.3 1.8-.2h.5c.4.1.5.5.5.8v.4l-.1.1c-.1 0-.1 0-.1-.1V16.2c0 .1-.1.3-.1.4-.1.2-.2.4-.4.6l-.1.1c-.3.4-.7.7-1 .9-.1.1-.2.1-.3.1l-.1-.1V18c.1-.1.1-.3 0-.4v.1c0 .1-.1.2-.1.3-.1.2-.2.5-.4.7-.1.2-.3.4-.5.5l-.2.2c-.1.1-.2.1-.3.1-.1 0-.1-.1-.1-.1v-1c-.2.6-.8 1.3-1.5 1.5 0 0-.1 0-.1.1-.2.1-.4.1-.6.1-.1-.1-.1-.2-.2-.3 0-.1 0-.2-.1-.2V19.9c0 .1 0 .3-.1.4-.1.2-.3.4-.5.5l-.6.3c-.1.1-.3.1-.4 0-.1-.1 0-.3 0-.3.1-.2 0-.4-.2-.5h-.1v.4c-.1.4-.3.7-.5 1-.2.3-.4.4-.6.6-.3.2-.6.3-.9.4-.1 0-.3 0-.4.1H29c0 .1.1.1.3.1h.5c.1 0 .3 0 .3.2s-.1.3-.2.5c-.2.2-.5.3-.8.5-.2.1-.3.1-.5.2-.1 0-.2.1-.4.1-.3.1-.5.3-.8.5-.5.4-1 .5-1.5.4-.1 0-.1-.1-.2-.1V25c.1-.2.3-.4.6-.7.3-.2.5-.5.7-.7 0 0 0-.1.1-.1l-.6.6c-.4.3-.8.7-1.3.8-.3.1-.6 0-.7-.1-.1-.1-.2-.3-.2-.4 0-.2.1-.3.2-.5.2-.3.5-.5.7-.8-.3.3-.7.5-1.2.7h-.1c-.1 0-.1 0-.2.1-.2.1-.3 0-.5 0-.1 0-.2 0-.2.1s-.1.1-.2.2l-.3.3c-.1.1-.2.2-.3.2-.4.3-.7.4-1.1.5-.1 0-.3 0-.4.1-.2 0-.3 0-.5.1H20c-.2 0-.3.1-.3.2v.1h-.2c-.3-.2-.7-.1-.9.4v.1c-.1.6-.2.8-.8 1.2-.5.3-.9.5-1.4.5-.4.1-.7 0-1-.1.5-.7.5-.7.4-.7zm7.7-6h-.2c-.2 0-.3 0-.5.1h-.1c-.3.1-.6.3-.9.5-.5.4-.8.9-1 1.3-.1.3-.3.6-.6.9-.3.4-.8.6-1.3.6-.3 0-.5 0-.7-.1h-.1c-.4-.1-.8-.1-1.2.1-.2.1-.4.2-.5.4-.2.2-.4.5-.5.8 0 .1-.1.2-.1.3-.1.1-.1.3-.1.4 0 .2.1.3.3.4h.1c.3.1.6.1 1 .1.1 0 .2 0 .3-.1v-.1c.2-.1.5-.3.8-.5l.4-.4c.1-.1.2-.2.3-.4.1-.1.2-.2.3-.2.3-.6.8-.8 1.2-.5.1-.2.3-.2.4-.3h.1c.2 0 .3-.1.5-.1.1 0 .3 0 .4-.1.3-.1.7-.2 1-.4.1-.1.2-.1.3-.2l.3-.3.1-.1c.1-.2.2-.2.4-.2.1 0 .3.1.4 0 .1 0 .1 0 .2-.1h.1c.5-.2.9-.4 1.3-.7.2-.2.4-.4.5-.6.1-.1.1-.2.2-.1.1 0 .1 0 .1.1v.2c0 .1-.1.1-.1.2-.1.2-.3.4-.4.5l-.2.2c-.2.2-.5.5-.7.8-.1.1-.2.2-.2.3 0 .1.1.2.1.3.1.1.3.1.6.1.4-.1.8-.4 1.3-.8.3-.2.5-.5.7-.7l.1-.1s.1 0 .1.1v.2c0 .1-.1.3-.2.4l-.7.7c-.3.2-.4.4-.5.6v.1c.5.1 1 0 1.4-.4.2-.2.5-.4.8-.5.1 0 .2-.1.4-.1.2-.1.3-.1.5-.2.3-.1.5-.2.8-.4.1-.1.2-.2.2-.3h-.9c-.1 0-.3-.1-.4-.2-.1-.1-.1-.2 0-.2.1-.1.1-.1.2-.1H29.9c.1 0 .3 0 .4-.1.3-.1.6-.2.9-.4.2-.1.4-.3.6-.5.2-.3.4-.6.4-.9V20.1c0-.1 0-.1.1-.2h.2c.4.2.4.5.3.7v.1s.1 0 .2-.1l.6-.3c.2-.1.3-.2.4-.4.1-.1.1-.2.1-.3v-.2c0-.1 0-.2.1-.2.1-.1.2 0 .2.1.1.1.1.2.1.3 0 .1 0 .2.1.2.1.1.2 0 .4-.1 0 0 .1 0 .1-.1.6-.2 1.2-.8 1.4-1.4 0-.1 0-.2.1-.3l.1-.1.1.1c.1.3.2.6.1.9V19.1h.1l.2-.2c.2-.2.3-.3.4-.5l.3-.6c0-.1.1-.2.1-.3 0 0 0-.1.1-.2.1 0 .1 0 .2.2 0 .2 0 .4-.1.6v.1s.1 0 .2-.1c.4-.2.7-.5 1-.9l.1-.1c.1-.2.3-.3.3-.5.1-.3.2-.6.1-.8V15.5h-.5c-.6 0-1.2.1-1.8.2h-.4V15.4c.1-.2.2-.4.2-.6 0-.2 0-.4-.3-.5 0-.3-.2-.3-.4-.3h-.1c-.6-.1-1.3.4-1.5.7-.1.2-.2.3-.3.5 0 0 0 .1-.1.1-.1.3-.3.6-.6.9-.2.1-.3.3-.5.4-.1.1-.2.1-.2.2h-.1c.5.1.8.4 1 .8.1.1.1.2 0 .3 0 0 0 .1-.1.2H34s-.1-.1-.2-.1c0 0-.1 0-.1-.1-.2-.1-.4-.2-.6-.2-.2 0-.4-.1-.7 0-.4 0-.7.2-1 .4-.1.1-.2.2-.2.3l-.1.1-.3.3.1-.4c.1-.2.1-.4.3-.5 0-.1.1-.1.2-.2s.2-.2.2-.3v-.1h-.1c-.1 0-.3.1-.4.1H31c-.2.1-.4.2-.5.3-.1 0-.2.1-.2.1-.1 0-.1.1-.2.1l-.6.3c-.1 0-.1.1-.2.1l-.6.3c-.1 0-.1.1-.1.1.2 0 .4.1.5.2.2.1.3.2.5.4l.1.2-.2-.1h-.2c-.1 0-.1 0-.2-.1-.6-.2-1.2-.1-1.8.3l-.1.1c-.1.2-.2.3-.3.3h-.1v-.2c0-.1.1-.2.1-.2.1-.1.2-.1.2-.2 0 0 .1-.1.1-.2.1-.1.1-.2.1-.2l-.1-.1c0 .1-.1.1-.3.1-.4 0-.8.1-1.2.4-.5.3-.9.6-1.4 1.1l-.1.1h.1c.3-.1.6-.1 1 .1 0 0 .1 0 .1.1v.1c0 .1-.1.1-.2.1-.3.1-.6.2-.8.4-.6.3-1.1.7-1.5 1.1l-.2.2-.3.3-.1.1v-.2c0-.1.1-.2.1-.3.2-.5.6-.9 1.1-1.2 0-.1.1-.2 0-.3.1 0 .1 0 0 0zm-4.7 4.6c-.2.1-.3.3-.4.4-.1.1-.2.3-.4.4.2-.1.3-.2.5-.3.2-.2.3-.4.3-.5zm9.8-7zm0 0zm5.7.6zm4.1-1.3zm1.8-2.4s0 .1.1.1c-.1 0-.1 0-.1-.1z"/><path fill="#010101" d="m19 32.3-.1-.1c-.2-.1-.3-.1-.4-.3-.1-.1 0-.3 0-.5.1-.1.2-.2.3-.4l-.1-.1v-.1l.3-.3.1-.1.1-.1c.4-.3.8-.6 1.2-.8.2-.1.5-.2.8-.3.1 0 .1 0 .2-.1V29c0-.3.1-.6.3-.9.1-.2.4-.4.7-.5.3-.1.6-.2.8-.2.1 0 .2 0 .4-.1h.2c.2 0 .4-.1.6-.2-.1-.4-.1-.8 0-1.2.1-.2.2-.5.4-.7 0 0 0-.1.1-.1h-.1c-.3-.1-.6-.1-.9-.3-.2-.2-.3-.4-.2-.7-.2.1-.4.2-.7.3-.2.1-.4.2-.5.3-.4.2-.9.3-1.4.4H21c-.2 0-.4.1-.5-.1 0-.1-.1-.1-.1-.2s.1-.1.3-.2c.4-.1.7-.2 1-.2.6-.1 1.2-.3 1.6-.7l.2-.2c.1 0 .1-.1.1-.2s.1-.2.2-.3h.2c.3.1.6 0 .9-.1 0 0 .1 0 .1-.1.5-.2.9-.5 1.2-.9.1-.1.1-.2.2-.2 0-.1.1-.2.2-.2 0-.1.1-.1.2-.1s.2.1.2.2c0 .2-.1.3-.2.5-.2.3-.5.6-.8.8-.2.2-.4.4-.6.7-.1.1-.1.2-.1.3 0 .1.1.2.1.2.2.1.6.1 1-.2.6-.4 1.1-.8 1.5-1.4 0 0 .1-.1.2-.1s.1.1.2.2c0 .2 0 .5-.3.7-.3.3-.5.6-.9.9-.1.1-.3.3-.4.5.5.1.9-.1 1.3-.4.3-.3.7-.5 1.2-.7h.1c.4-.1.7-.2 1.1-.5l.1-.1c0-.1 0-.1.1-.1h-.1c-.3 0-.6.1-.8-.1-.1 0-.3-.1-.3-.4 0-.1 0-.2.2-.2h.5c.6 0 1.2-.3 1.6-.8.3-.3.4-.7.5-1.1v-.5s.1-.1.2-.1c.3 0 .5.1.6.3.1.1.1.3 0 .5v.1h.1c.1 0 .1 0 .2-.1s.3-.1.4-.2c.2-.1.4-.4.4-.5v-.1c0-.2 0-.3.1-.5.1-.1.1-.2.2-.2 0 0 .1 0 .1.1.1.1.2.3.2.5 0 .1 0 .1.1.2 0 0 .1 0 .3-.1.1 0 .2-.1.2-.1.1-.1.3-.1.4-.2.5-.3.8-.8.9-1.3 0-.1 0-.2.1-.2.1-.1.2 0 .2.1.1.2.2.4.2.6 0 .2 0 .4-.1.6.1-.1.2-.2.2-.3.1-.1.3-.3.4-.5.2-.3.4-.7.5-1 0-.1 0-.1.1-.2s.2 0 .2.1c.2.2.2.4.1.7.6-.4 1-.8 1.2-1.2.2-.4.3-.7.2-.9v-.5c.1-.1.1 0 .2 0 .2.1.2.2.3.3.1.2.1.5.1.8-.1.4-.3.7-.5.9-.3.4-.7.7-1 .9-.1.1-.2.1-.3.2-.1 0-.1.1-.2.1-.1.1-.2.2-.2.3 0 .1 0 .2.1.2.1.1.1.2.1.3 0 0 0 .1-.1.2-.1-.1-.1-.1-.3.1l-.2.2-.7.7c-.3.3-.7.6-1.2.8-.4.1-.8 0-1-.3v-.2c0-.1.1-.2.1-.2.1-.1.3-.3.3-.4-.4.3-.9.6-1.3.8.1 0 .1 0 .1.1.1.1 0 .2 0 .3-.1.4-.2.8-.5 1.2-.3.4-.6.6-.9.7-.2.1-.4.1-.5.1-.2 0-.2-.1-.3-.1v-.3c.1-.3.2-.5.4-.8 0 0 0-.1.1-.1-.1.1-.2.2-.4.3-.2.2-.4.4-.7.6 0 0 .1 0 .1.1.1.1 0 .2 0 .3-.1.4-.4.8-.7 1.2-.4.4-.8.8-1.3 1-.3.2-.6.2-.9.1 0 0-.2-.1-.2-.2s.1-.2.1-.3c.1-.1.2-.2.3-.4-.4.3-.9.5-1.4.7-.2.1-.3.1-.5.2s-.4.2-.7.2c-.4.2-.6.4-.7.7 0 .1-.1.3-.1.4 0 .2-.1.3-.1.5-.1.4-.3.7-.7.9-.3.2-.3.3-.3.5v.2c.1.2.1.5-.2.9-.4.5-.8.6-1.2.4-.2-.1-.3-.2-.3-.3l-.3-.3v.2c-.1.2-.2.3-.3.5-.2.2-.4.4-.7.4l.1.1c.1.1.1.3.1.4-.1.3-.3.5-.6.6-.8.1-1.4.3-1.9.2zm-.1-.3c.1 0 .1 0 .1.1.5.1 1.1-.1 1.7-.4.2-.1.4-.3.5-.5 0-.1 0-.2-.1-.3 0-.1-.1-.1-.2 0s-.2.1-.4.1c-.1 0-.3 0-.4-.1-.1-.1-.1-.2 0-.3.1-.1.1-.1.2-.1h.7c.3 0 .5-.2.7-.4.1-.1.2-.3.3-.4v-.1c.1-.1.1-.2.2-.2s.1 0 .2.1l.3.3.3.3c.3.2.6.1 1-.4.3-.3.3-.5.2-.6 0-.1 0-.1-.1-.2v-.1c-.1-.3 0-.6.4-.7.3-.2.5-.4.6-.8 0-.2.1-.3.1-.5 0-.1 0-.3.1-.4.1-.4.4-.7.8-.9.2-.1.5-.2.7-.2.2-.1.3-.1.5-.2.5-.2.9-.4 1.3-.6.1 0 .1-.1.2 0 0 0 0 .1.1.1 0 .1 0 .1-.1.2-.1.2-.2.3-.3.4l-.1.1h.1c.2.1.5 0 .8-.1.5-.2.9-.5 1.2-.9.3-.3.6-.7.7-1.1v-.1h-.1s-.1.1-.2.1h-.1v-.1c0-.1.1-.1.2-.2.3-.2.5-.5.8-.7.2-.1.3-.3.5-.5h.1v.1c0 .2-.1.3-.2.4-.1.3-.3.5-.4.8v.1h.1c.1 0 .3 0 .5-.1.3-.1.6-.3.8-.7.3-.4.4-.7.5-1.1v-.1H33.4c-.1 0-.2-.1-.2-.2s.1-.2.2-.2c.5-.2 1-.5 1.5-.8 0 0 .1-.1.2 0 0 0 0 .1.1.1v.2c-.1.2-.2.3-.4.5l.1.3c.1.2.5.3.8.2.5-.1.8-.5 1.1-.8l.7-.7.2-.2c.2-.2.2-.2.4-.1v-.1c-.1-.1-.1-.2-.1-.3-.1-.2 0-.4.3-.5.1 0 .1-.1.2-.1s.2-.1.3-.2c.3-.3.7-.6 1-.9.2-.3.4-.5.5-.8 0-.3 0-.5-.1-.6 0-.1-.1-.2-.2-.2v.2c.2.4 0 .8-.2 1.1-.3.5-.7.9-1.3 1.3-.1 0-.1.1-.2 0 0 0-.1-.1 0-.2.1-.3.1-.5 0-.6v.2c-.1.3-.2.7-.5 1-.1.2-.3.3-.4.5-.1.1-.2.2-.2.3-.1.1-.1.1-.2.1s-.1-.1-.1-.1v-.2c.1-.2.1-.4.1-.5 0-.2-.1-.4-.2-.5v.1c-.1.6-.4 1-1 1.4-.1.1-.3.2-.4.2-.1 0-.2.1-.2.1-.2.1-.4.1-.5.1-.1-.1-.1-.2-.1-.3 0-.1-.1-.2-.2-.3l-.1.1c-.1.1-.1.3-.1.4v.1c0 .3-.3.6-.6.7-.1.1-.3.1-.4.2-.1 0-.1.1-.2.1-.1.1-.2.1-.3 0-.1-.1 0-.2 0-.3v-.3c-.1-.1-.2-.2-.4-.2v.4c0 .5-.2.9-.5 1.2-.5.5-1.1.8-1.7.9h-.6c0 .1 0 .1.2.2s.5.1.8.1c.1 0 .2 0 .3.1 0 .1 0 .2-.1.3 0 .1-.1.1-.1.1-.3.3-.7.4-1.1.6h-.1c-.5.2-.8.4-1.2.6-.4.4-.9.5-1.5.4 0 0-.1 0-.1-.1V25c.1-.2.3-.4.4-.5l.9-.9c.2-.2.2-.3.2-.5-.4.6-.9 1.1-1.5 1.4-.4.3-.9.3-1.2.2-.4-.5-.4-.6-.5-.7 0-.2 0-.3.1-.4.2-.3.4-.5.6-.7.2-.2.5-.5.7-.8.1-.1.1-.2.1-.3l-.1.1v.1c-.1.1-.1.1-.1.2-.1.1-.1.2-.2.3-.4.4-.8.7-1.3.9 0 0-.1 0-.1.1-.3.1-.7.3-1 .1h-.1c-.1 0-.1.1-.1.1 0 .1-.1.2-.2.2s-.1.1-.2.1c-.5.5-1 .7-1.7.8-.3 0-.6.1-1 .2h-.1v.1c.1.1.2 0 .4 0h.1c.6-.1 1-.2 1.4-.4.2-.1.4-.2.5-.3.2-.1.4-.2.7-.3.1 0 .2-.1.2 0v.2c0 .2 0 .4.2.5.2.2.5.3.8.3.1 0 .2 0 .2.1s0 .2-.1.3c-.2.2-.3.4-.4.7-.1.4-.1.7 0 1.1v.1h-.1c-.2.2-.5.2-.7.2h-.2c-.1 0-.2 0-.4.1-.3 0-.5.1-.8.2-.3.1-.5.3-.6.5-.2.3-.2.5-.2.8v.1c0 .2-.1.3-.3.3-.3.1-.5.1-.7.2-.4.2-.8.5-1.1.8l-.1.1-.1.1.1.1s0 .1-.1.1l-.1.1-.3.3c-.1.2-.1.3 0 .4.1.1.2.2.4.2zm-.1-1.2zm1.5 0c.1 0 .1.1.2.1s.2 0 .3-.1h-.5c.1 0 0 0 0 0zm7.6-8.1zm10.5-3.3zM36.6 18zm0-.1z"/><path fill="#010101" d="M15.8 27c-.3-.1-.4-.3-.4-.7 0-.6.2-1.2.7-1.8.2-.2.3-.3.5-.4.1-.1.2-.1.3-.2h.1c.2-.1.4-.2.6-.2h.2c.2 0 .5-.1.8-.1.3 0 .5.2.7.4.1.1.2.1.3-.1l.6-.9.3-.6c.1-.3.3-.6.4-.8.3-.6.6-.9 1.1-1.2.4-.2.8-.4 1.3-.4h.4c.1 0 .1-.1.1-.1.1-.3.3-.7.6-1 .4-.4.9-.7 1.4-.9.6-.2 1.1-.1 1.6.3h.1s0-.1.1-.1c.2-.3.5-.6.9-.8.5-.2.9-.4 1.4-.5.2-.1.5-.1.7-.2.4-.1.8-.2 1.1-.3.3-.1.6-.3.9-.5.4-.3.8-.7 1.2-1.1.4-.4.8-.8 1.1-1 .4-.3.9-.4 1.5-.4.3 0 .5.1.8.2.2.2.4.5.4.8 0 .1 0 .1-.1.2l-.2.2v-.3c0-.4-.2-.5-.6-.6-.1 0-.3-.1-.5 0-.5 0-1.1.4-1.3.9 0 .1-.1.2-.1.3-.1.2-.2.5-.4.7-.2.3-.5.5-.7.7l-.1.1-.1.1s.1 0 .1.1h.1c.4.1.5.4.7.7.1.1 0 .3 0 .4v.1c0 .1 0 .1-.1.2h-.2c-.2-.2-.6-.4-1-.5-.4-.1-.9-.2-1.5.1-.3.2-.5.4-.5.6 0 .1 0 .1-.1.2h-.1s-.1-.1 0-.2c0-.2.1-.5.3-.7 0-.1.1-.1.1-.2.1-.1.2-.2.2-.3-.3.1-.6.2-.9.4-.1.1-.3.2-.4.2l-.2.2-.6.3c-.1.1-.3.2-.4.3-.1 0-.1.1-.2.1.1 0 .2.1.3.1.3.1.4.3.6.6v.1s0 .1-.1.1c-.1.1-.2 0-.2 0-.2-.1-.5-.2-.7-.2-.5-.1-.9.1-1.4.3 0 0-.1 0-.1.1-.2.1-.3.2-.5.3-.1.1-.1.1-.2 0 0 0-.1 0-.1-.1v-.2c.1-.1.1-.2.3-.4l.3-.3.1-.1c-.2-.1-.4-.2-.7-.1-.6.1-1.1.5-1.7.9-.1 0-.1.1-.2.1-.1.1-.3.2-.4.3.3-.1.7 0 1 .1.1 0 .1.1.1.1v.1c0 .1-.2.2-.2.2-.2.1-.3.1-.5.2-.4.2-.8.4-1.2.7-.5.3-.9.7-1.2 1.2 0 0-.1.1-.2.1 0 0-.1 0-.1-.1v-.2c.1-.3.2-.6.5-.9.2-.3.6-.6.8-.8h.1-.1c-.4-.1-.9.2-1.3.4-.6.3-1 .8-1.3 1.5-.2.4-.4.7-.6.9-.3.3-.6.5-1 .6-.4.1-.8.1-1.2 0-.2-.1-.4-.1-.7-.1-.4 0-1 .3-1.3.8-.1.2-.2.3-.2.5l-.3.6c0 .1 0 .1.1.3 0 .1.1.1.2.2l.1.1.2.3c0 .1 0 0 0 0zm2.9-3.1h-.2c-.2 0-.5 0-.7.1h-.2c-.2 0-.4.1-.6.2h-.1c-.1.1-.2.1-.3.2-.2.1-.3.2-.5.3-.4.4-.7.9-.7 1.4.1-.1.1-.3.2-.4.1-.2.2-.3.2-.5.3-.5.9-.9 1.4-.9.3 0 .5 0 .7.1.4.1.8.1 1.2 0 .4-.1.7-.3 1-.6.2-.2.4-.5.5-.9.3-.7.8-1.2 1.4-1.6.4-.2.9-.5 1.4-.4.1 0 .2 0 .2.2 0 .1-.1.2-.1.2-.3.2-.6.4-.8.7-.2.3-.4.5-.4.8.4-.5.8-.9 1.3-1.2.5-.3.9-.5 1.3-.7.2-.1.3-.1.5-.2 0 0 .1 0 .1-.1-.3-.1-.7-.2-1-.1h-.1l-.1-.1c0-.1.1-.2.1-.2.1-.1.3-.3.5-.4.1 0 .1-.1.2-.1.5-.4 1.1-.8 1.7-.9.3 0 .6 0 .8.2.1 0 .1.1.1.1 0 .1-.1.2-.1.2l-.1.1c-.1.1-.2.2-.4.3-.1.1-.1.1-.1.2.1-.1.3-.2.5-.3 0 0 .1 0 .1-.1.5-.3 1-.4 1.5-.3.3 0 .5.1.7.2-.1-.2-.3-.3-.5-.4-.1-.1-.3-.1-.4-.2 0 0-.1 0-.1-.1v-.1c0-.1.1-.1.1-.1h.1c.1 0 .1-.1.2-.1.1-.1.3-.2.4-.3l.6-.3h.1c.1-.1.3-.1.4-.2.3-.2.7-.3 1-.4 0 0 .2 0 .2.1s0 .2-.1.3c-.1.1-.2.2-.2.3 0 .1-.1.1-.1.2-.1.2-.2.4-.2.5.1-.3.3-.5.6-.7.6-.3 1.1-.2 1.6-.1.4.1.8.3 1 .5v-.4c-.2-.3-.3-.5-.6-.6h-.1c-.1 0-.1-.1-.2-.1s-.1-.1-.1-.1c0-.1.1-.2.1-.2.1 0 .1-.1.2-.1l.1-.1c.2-.2.5-.4.7-.6.2-.2.3-.5.4-.7 0-.1.1-.2.1-.3.3-.5 1-1 1.5-1 .2 0 .4 0 .6.1.1 0 .2.1.4.1l-.1-.1c-.2-.1-.5-.2-.7-.2-.5 0-1 .1-1.4.3-.4.2-.7.5-1.1 1-.4.4-.8.8-1.2 1.1-.3.2-.6.4-.9.5-.4.1-.8.2-1.1.3-.2.1-.5.1-.7.2-.5.1-.9.2-1.3.5-.3.2-.6.4-.8.8-.1.2-.2.2-.4.1-.3-.3-.7-.5-1.5-.3-.5.2-1 .5-1.3.9-.3.3-.5.6-.6.9 0 .1-.1.2-.3.2h-.4c-.5 0-.9.2-1.2.4-.4.3-.7.6-1 1.2-.2.3-.3.6-.4.8-.1.2-.2.4-.3.7l-.6.9c-.2.2-.4.3-.6.1-.7-.5-.8-.6-1-.7zm8.6-4.7z"/><path fill="#B4B4B4" d="M32.5 21.8c0 .1-.1.3-.1.4-.1.3-.3.5-.4.8-.1.2 0 .3.2.3.4-.1.7-.3 1-.6.3-.4.6-.8.6-1.2 0-.2 0-.2-.2-.2h-.1c-.1 0-.2 0-.2-.1s.1-.1.2-.2c.6-.2 1.2-.5 1.7-1l.1-.1c.1 0 0 .1 0 .1-.1.3-.2.5-.5.7-.1.1-.1.2 0 .3.4.4 1 .2 1.4-.2.4-.3.8-.7 1.2-1.1l.4-.4c.1 0 .1-.1.2-.1s.1.1.1.1v.1c0 .3-.2.7-.4 1-.4.4-.8.7-1.3.9-.7.3-1.4.4-2.1.3h-.1v.1c0 .1.1.3.1.4-.1.7-.4 1.4-1.1 2-.3.3-.7.5-1.1.6-.3.1-.5 0-.7-.1-.1-.1-.2-.2-.3-.4 0-.1-.1-.1-.1 0-.2.2-.3.4-.5.6-.2.3-.4.5-.7.7-.7.5-1.3.6-1.9.3-.2-.1-.4-.3-.6-.4-.2-.1-.5 0-.7.1-.1.1-.3.1-.4.2-.3.2-.4.4-.5.7 0 .1 0 .2-.1.3v1c-.1.3-.3.6-.6.7-.2.1-.2.1-.2.3.3.5 0 1-.6 1.3-.6.4-1.2.5-1.8.6-.2 0-.4 0-.5-.1-.1 0-.1 0-.2.1 0 .2-.1.4-.2.6-.1.3-.4.6-.7.8-.6.4-1.3.6-1.9.5-.2 0-.3-.1-.5-.2s-.3-.1-.5-.2h-.2c-.2 0-.4 0-.6.1H17s0-.1.1-.1c0 0 .1 0 .1-.1.4-.3.8-.7 1.2-1.2l.3-.3c.1-.1.2-.3.4-.4-.2.4-.5.6-.7.9-.2.3-.2.5.1.6.1.1.2.1.4.1.6 0 1.2-.1 1.8-.4.4-.2.5-.6.3-.8-.1-.1-.2 0-.2 0-.3.1-.6.2-.7 0 0 0-.1-.1-.1-.2.1-.1.2-.1.2-.1h.5c.4 0 .7-.2 1-.5.1-.2.2-.4.3-.5 0-.1.1-.1.2-.1.2.1.3.3.4.5l.3.3c.4.2.6 0 1-.4.2-.2.3-.4.2-.6 0-.1-.1-.2-.1-.3-.1-.3 0-.5.4-.7.4-.2.6-.5.7-.9.1-.3.1-.6.2-.9.1-.4.4-.7.8-.9.5-.2.9-.3 1.4-.5.4-.2.9-.3 1.2-.7.1 0 .1-.1.2-.1s.1.1 0 .2c-.1.2-.2.4-.3.5-.2.2-.2.3 0 .3.3.1.7-.1 1-.3.6-.4 1-.8 1.3-1.4.1-.2.1-.3.2-.5 0-.1 0-.2-.1-.1-.1 0-.2.1-.3.1-.1 0-.1-.1 0-.1.1-.1.2-.1.3-.2.4-.3.8-.7 1.2-1.1l.1-.1c.2.5.2.5.2.6z"/><path fill="#010101" d="M17.2 32.7c-.1-.1-.1-.1-.1-.2s.1-.1.1-.1.1 0 .1-.1c.4-.3.8-.7 1.1-1.2l.1-.1.2-.2.1-.1.3-.3.2-.1-.1.2c-.1.2-.3.4-.4.6-.1.1-.2.2-.3.4-.1.1-.1.2-.1.3 0 .1.1.1.1.2.1.1.2.1.3.1.6 0 1.2-.1 1.7-.4.2-.1.3-.3.4-.4 0-.1 0-.2-.1-.2h-.1c-.2.1-.6.2-.8 0 0 0-.2-.1-.1-.3.1-.1.2-.1.3-.2h.5c.4 0 .7-.2.9-.5.1-.2.2-.3.3-.5 0-.1.1-.2.1-.2h.2c.1.1.2.2.3.4l.1.1c.1.1.1.2.2.2.3.1.5 0 .9-.3.3-.3.2-.4.2-.5 0-.1-.1-.1-.1-.2V29c0-.2-.1-.5.4-.8.4-.2.5-.4.6-.8 0-.2.1-.4.1-.6 0-.1 0-.2.1-.3.1-.4.4-.8.9-1 .2-.1.4-.1.6-.2.3-.1.5-.2.8-.3.4-.2.8-.3 1.2-.6.1 0 .1-.1.2-.1s.1.1.1.1v.2c-.1.2-.2.4-.4.6l-.1.1h.1c.3.1.7-.1 1-.3.5-.3.9-.8 1.3-1.3.1-.1.1-.2.2-.4-.1 0-.2.1-.3.1h-.2l.1-.1c0-.1.1-.1.1-.2l.2-.2c.5-.4.9-.8 1.2-1.1l.1-.1.1-.1h.1c.1 0 .1.1.1.2 0 .2-.1.3-.1.5-.1.2-.1.3-.2.4-.1.1-.1.2-.2.3v.1h.2c.4-.1.7-.3.9-.5.4-.4.6-.8.6-1.1v-.1H33.2c-.1 0-.2 0-.2-.1v-.1c0-.2.2-.2.3-.2.6-.2 1.1-.5 1.7-.9 0 0 .1-.1.2-.1s.1.1.1.2c-.1.3-.2.5-.5.8 0 0 0 .1-.1.1.4.3.9.1 1.3-.2.3-.2.6-.5.8-.8l.3-.3.4-.4s.1-.1.2-.1.1.1.1.2c0 .4-.2.7-.5 1-.4.4-.8.7-1.3.9-.7.3-1.4.4-2.1.3v.1c0 .1.1.2 0 .4-.1.7-.4 1.4-1.1 2.1-.3.3-.7.5-1.1.6-.3.1-.5 0-.7-.1-.1-.1-.2-.2-.3-.4-.1.1-.2.3-.3.4 0 .1-.1.1-.1.2v.1c-.2.2-.4.5-.6.7-.8.5-1.4.6-2 .3-.1 0-.1-.1-.2-.1-.1-.1-.2-.2-.4-.2-.2-.1-.5 0-.7.1-.1.1-.3.1-.4.2-.3.2-.4.4-.5.6V28c-.1.4-.3.6-.7.8 0 0-.1 0-.1.1v.1c.1.2.1.4.1.6-.1.3-.3.6-.7.9-.6.4-1.2.5-1.9.6h-.7c0 .2-.1.4-.2.7-.1.3-.4.6-.7.8-.6.4-1.3.6-1.9.5-.2 0-.3-.1-.5-.1-.2-.1-.3-.1-.5-.2h-.1c-.2 0-.4 0-.5.1.2-.2.2-.2.1-.2zm1.4-1.5c-.3.4-.7.8-1.1 1.1.1 0 .2 0 .4-.1h.2c.2 0 .4.1.5.2.1.1.3.1.4.1.6.1 1.2-.1 1.8-.5.3-.2.5-.5.7-.7.1-.2.1-.4.1-.6 0-.1 0-.1.1-.2H22c.2 0 .3.1.5 0 .7 0 1.3-.2 1.8-.6.3-.2.6-.5.6-.7 0-.1 0-.3-.1-.4v-.2c0-.1.1-.1.2-.2.3-.1.5-.4.6-.6v-1.3c.1-.2.2-.5.6-.7.1-.1.3-.1.4-.2.2-.1.5-.2.8-.1.1.1.3.2.4.2.1 0 .1.1.2.1.5.3 1.1.2 1.8-.3.3-.2.4-.4.6-.7v-.1c.1-.1.1-.1.1-.2.1-.1.2-.3.3-.4 0 0 .1-.1.2-.1 0 0 .1 0 .1.1s.1.2.3.4c.2.1.4.2.6.1.4-.1.7-.3 1.1-.6.6-.6 1-1.3 1-1.9V21.5c.1-.1.1-.1.2 0 .7.1 1.4 0 2.1-.3.5-.2.9-.5 1.3-.9.2-.3.4-.6.4-.9v-.1l-.1.1-.4.4-.3.3c-.3.3-.5.6-.9.8-.5.4-1.1.6-1.5.2 0 0-.1-.1-.1-.2s.1-.2.1-.2c.2-.2.4-.4.4-.7-.6.5-1.2.8-1.7 1 0 0-.1 0-.1.1h.5c.1.1 0 .2 0 .3-.1.4-.3.8-.7 1.3-.3.3-.6.5-1 .6-.2 0-.3 0-.3-.1v-.3c.1-.1.1-.2.2-.3.1-.1.1-.3.2-.4.1-.1.1-.2.1-.3l-.1.1c-.3.3-.7.7-1.2 1.1 0 0 .1-.1.2 0V23.4c0 .1-.1.3-.2.4-.4.6-.8 1.1-1.4 1.4-.3.2-.7.4-1.1.3-.1 0-.2-.1-.3-.2 0-.1 0-.2.2-.3.2-.2.3-.3.3-.5 0 0-.1 0-.1.1-.4.3-.8.5-1.3.7-.3.1-.5.2-.8.3-.2.1-.4.1-.6.2-.4.1-.7.4-.8.8 0 .1 0 .2-.1.3 0 .2-.1.4-.1.6-.1.4-.3.7-.7.9-.3.1-.4.3-.3.5v.1c0 .1 0 .1.1.2.1.2.1.4-.2.8-.4.4-.7.6-1.1.4l-.3-.3-.1-.1-.3-.3c0 .2-.2.4-.3.6-.3.4-.6.6-1 .6h-.5c-.1 0-.1 0-.2.1.1.1.3.1.7 0 .1 0 .2-.1.3 0 .1.1.1.3.1.4 0 .2-.2.4-.5.6-.6.3-1.2.5-1.8.4-.1 0-.3-.1-.4-.1-.1-.1-.2-.2-.2-.3 0-.3 0-.5.2-.8 0 .1 0 0 0 0 .1 0 0 0 0 0zM13.4 30.1c-.1-.1-.1-.3-.2-.4v-.4c.1-.4.3-.8.8-1.1.4-.3.8-.5 1.2-.4.1 0 .3.1.4.1.4.1.5.4.5.6v.3s0 .1-.1.1l-.1.1c-.4.4-.8.7-1.2.9-.4.2-.8.3-1 .2h-.3zm0-.5c0 .1 0 .1 0 0 0 .1 0 .2.1.2 0 0 .1-.1.2-.1.2.1.6 0 1-.1.4-.2.8-.5 1.1-.8 0 0 .1-.1.2-.1v-.2c0-.1 0-.3-.3-.4-.1 0-.3-.1-.4-.1-.3-.1-.7 0-1 .3-.4.3-.6.7-.7 1v.1c-.2.1-.2.2-.2.2z"/><path fill="#010101" d="M13.2 30v-.4c0-.5.2-1.1.7-1.6l.1-.1.3-.3c.4-.3 1.1-.4 1.4 0 .3.3.4.6.4 1h-.2c0-.2-.1-.3-.5-.4h-.2c-.1 0-.2-.1-.3 0-.4 0-.7.2-1.1.7-.2.3-.4.6-.5.9l-.1.2zm2.2-2.4c-.3-.1-.7 0-1 .2l-.3.3-.1.1c-.2.3-.4.6-.5.9.1-.1.2-.3.3-.4.4-.5.7-.7 1.2-.8H15.6c.1 0 .2 0 .4.1-.1-.1-.1-.2-.2-.4-.3.1-.4 0-.4 0zM11.6 28.5s-.1 0-.1-.1c-.1-.1-.2-.2-.2-.3-.1-.3 0-.6.3-.9.2-.2.3-.2.5-.3.2-.1.4-.1.6-.1.2 0 .3.1.4.3.1.1 0 .3-.1.5-.1.1-.1.2-.1.3-.1.2-.4.4-.6.5-.1.1-.4.2-.7.1zm1.2-1.5s-.1 0 0 0c-.3 0-.4 0-.6.1-.2.1-.3.1-.4.2-.2.2-.3.5-.3.7 0 .1.1.2.1.2.1.1.4.1.7 0 .2-.1.4-.3.5-.5 0-.1.1-.2.2-.3.1-.1.1-.2 0-.3-.1 0-.1 0-.2-.1zM17.9 32.5c-.1-.1-.1-.1-.1-.2v-.1h.1c.2 0 .4 0 .5.1h.1c.1 0 .1 0 .2.1s.2.1.4.1c.6.1 1.7-.2 2.3-.8.2-.2.3-.5.4-.8 0-.1 0-.2.1-.3.1-.1.1 0 .3 0h.1c.5.1 1 0 1.6-.2.4-.2.7-.4 1-.6.2-.2.2-.5.2-.7V29l-.1-.4.2.3c.1.1.2.3.1.5 0 .3-.3.7-.7.9-.8.5-1.6.7-2.4.6h-.1v.1c-.1.6-.4 1-.9 1.4-.6.4-1.2.6-1.8.5-.2 0-.4-.1-.5-.2h-.1c-.5-.1-.6-.1-.9-.2.1 0 0 0 0 0zM25.7 27.2V27c0-.3.1-.7.3-.9.2-.2.5-.3.7-.4.5-.2.8 0 1.1.2.3.3.6.4 1.1.3.5-.1.8-.4 1.1-.7.2-.2.4-.5.5-.7 0-.1.1-.1.1-.2v-.2c.1-.1.1-.2.2-.2s.2.1.2.2l.1.1s.1.1.1.2l.1.2-.2-.1c-.2-.1-.3-.2-.3-.4-.1.2-.3.3-.4.5-.1.1-.2.3-.3.4-.4.5-.9.8-1.5.9-.5.1-.8-.1-1.1-.3-.1-.1-.2-.2-.4-.2-.2-.1-.3-.1-.5 0s-.4.1-.5.2c-.3.2-.4.4-.5.7v.1c0 .1 0 .1-.1.2l.2.3zM19.2 30.6l-.1-.2c.3-.2.6-.5.9-.7.4-.2.8-.4 1.1-.5.1 0 .1-.1.1-.1v-.4c0-.2.1-.4.3-.7.2-.2.4-.4.6-.4.3-.1.6-.2.8-.2h.2c.3-.1.6-.1 1-.2l.4-.2-.3.3c-.1.1-.2.1-.3.2-.3.1-.5.1-.8.2-.2 0-.3.1-.5.1-.9.2-1.1.6-1.2 1.2v.1c-.1.4-.1.4-.5.6-.5.1-1 .4-1.5.8-.1 0-.1.1-.2.1.1-.1 0 0 0 0zM34.3 22.6v-.3c0-.1 0-.2-.1-.4 0-.1 0-.2.1-.3.1-.1.1-.1.2 0 .8.1 1.6-.1 2.3-.5.8-.4 1.2-.9 1.3-1.6v-.1l.2-.4v.3c0 .5-.3 1-.7 1.4-.4.4-.9.6-1.3.8-.6.2-1.2.3-1.9.2v.1c0 .1.1.2 0 .4l-.1.4z"/><path fill="#010101" d="M16.1 33.2s-.1 0-.1-.1.1-.2.1-.2c.1-.1.3-.2.4-.2.7-.3 1.3-.7 1.8-1.4 0-.1.1-.1.2-.2l.1.1v.1c-.3.4-.6.8-1 1.1h.3l.3.2h-.3c-.3 0-.6.1-1 .3-.2.1-.4.2-.7.3h-.1zM38.3 19.6l-.1-.2c0-.1-.1-.2-.1-.2-.1-.2-.1-.3-.1-.4 0-.2.2-.3.5-.5.7-.3 1.2-.9 1.7-1.6v-.1c0-.1 0-.1.1-.2l.2-.1v.2c0 .2-.1.5-.3.7-.3.4-.7.8-1 1.1-.3.2-.5.4-.7.5-.2.1-.2.2-.2.2 0 .1 0 .2.1.2.1.1.1.2 0 .3l-.1.1zM13.7 30.4c-.1 0-.2-.1-.2-.1-.1-.1-.1-.2-.2-.3v-.1l.1-.1c.1 0 .2 0 .2.1.4.4 1.1 0 1.3-.1.1-.1.2-.1.3-.1l.1.1-.1.1c-.4.4-1 .7-1.5.5zM15.6 29.4c-.1 0-.1-.1-.1-.1v-.1c0-.1.1-.2.2-.3 0-.1.1-.1.2-.1l.2-.1v.2c-.1.1-.2.3-.5.5z"/><path fill="#010101" d="M15.2 29.9c-.1 0-.1-.1-.1-.1 0-.1 0-.1.1-.2.1 0 .1-.1.2-.2l.2-.2c.1 0 .1-.1.2 0h.1l-.1.1c-.2.3-.4.5-.6.6zM18.4 31.5l.1-.4V31c0-.1.1-.1.2-.2l.3-.2-.2.3-.3.3-.1.3zM16.9 27.1c-.1 0-.1-.1-.1-.1 0-.1.1-.2.2-.2.5-.2.9-.5 1.2-.8.2-.3.5-.5.8-.7 0 0 .1-.1.1 0 0 0 .1 0 .1.1v.2c0 .3-.2.6-.6.8-.5.3-.9.5-1.4.6-.2.1-.2.1-.3.1zm2.1-1.6c-.2.2-.4.4-.7.6-.2.3-.5.5-.8.7.3-.1.6-.3.9-.5.3-.2.5-.4.5-.7l.1-.1zM30.9 23.1l.1-.1.2-.2c.3-.2.6-.5.9-.8l.3-.3.3-.3-.2.4-.3.3-.1.1c-.3.3-.6.6-.9.8l-.1.1h-.2zM18.8 32.2c-.1 0-.2-.1-.3-.3-.1-.1-.1-.3 0-.4 0-.1.1-.1.1-.2l.2-.2-.1.3c-.1.1-.1.3-.1.3 0 .1.1.1.3.2h.1c.1 0 .1 0 .2.1l.1.2h-.5z"/><path fill="#010101" d="M30.7 23.5s0-.1 0 0c0-.1 0-.1 0 0-.1-.2-.1-.3 0-.3l.1-.1s.1-.1.2-.1l.3-.2-.2.3c0 .1-.1.1-.2.2 0 0-.1 0-.1.1v.1h-.1c.1 0 .1 0 0 0z"/><path fill="#010101" d="m30.6 23.4.3-.1h.1c.1 0 .2-.1.3-.1h.3l-.2.2c-.1.1-.2.2-.4.1l-.4-.1zM32.5 22l-.1-.2-.2.1.1-.2c.1-.2.2-.2.2-.1.1 0 .1.1.1.1v.2l-.1.1zM16.2 33.1l-.1-.2 1.6-.8-.2.3c0 .1-.1.1-.1.1s-.1 0-.1.1l-.2.1c-.2.1-.4.2-.7.3 0 .1-.1.1-.2.1.1 0 .1 0 0 0zM13.7 30.4c-.1 0-.1-.1-.2-.1l-.2-.2s-.1-.1-.1-.2c0 0 0-.1.1-.1.1-.1.2 0 .2 0 .3.1.6.1 1-.2.3-.1.6-.4.9-.7l.1-.1.1-.1s.1 0 .1.1-.1.1-.1.2c-.1.1-.1.2-.1.3l-.5.5c-.1 0-.1.1-.2.1-.1.1-.3.2-.4.2-.1.3-.4.4-.7.3zm-.2-.5c0 .1.1.1.1.2.2.2.6.2 1 0 .1-.1.3-.1.4-.2.1 0 .1-.1.2-.1l.4-.5c0-.1.1-.2.1-.3l-.1.1c-.4.3-.7.5-1 .7-.2.1-.7.3-1.1.1zM11.7 28.5c-.1-.1-.2-.2-.2-.4s.3-.6.5-.7c0 0 .1 0 .1-.1h.1c.4-.2.5-.2.7.1.1.1.2.4-.1.7-.2.3-.6.4-.9.4h-.2zm.8-1.1c-.1 0-.2 0-.4.1H12s-.1 0-.1.1c-.2.1-.4.4-.4.5 0 .2 0 .2.2.2s.5-.1.7-.3c.2-.2.1-.3 0-.4.2-.2.2-.2.1-.2z"/><path fill="none" d="M0 0h45v45H0z"/><path fill="none" d="M4.5 4.5h36V18h-36z"/><path fill="#010101" d="M7.3 11.6 5.6 4.9h1.5c.7 3.1.9 4.4 1 5.2.3-1.3.9-3.6 1.3-5.2h1.3c.3 1.3 1 3.9 1.2 5.1.2-1.5.9-4.1 1.1-5.1h1.4l-1.8 6.7h-1.5c-.4-1.5-.9-3.6-1.2-4.8-.1 1.2-.8 3.4-1.1 4.8H7.3zM16.8 8.9v2.7h-1.4V4.9h2.9c1.5 0 2.2.8 2.2 1.8 0 .9-.5 1.4-1 1.6.3.1.8.5.8 1.7v.3c0 .5 0 1 .1 1.3H19V10c0-.7-.2-1.1-1.3-1.1h-.9zm0-1.1H18c.8 0 1.1-.3 1.1-.9 0-.6-.4-.9-1.1-.9h-1.2v1.8zM26.5 8.7h-3.2v1.7h3.5l-.2 1.2h-4.8V4.9h4.8v1.2h-3.3v1.4h3.2v1.2zM33.6 9.5c-.3 1.2-1.2 2.2-2.9 2.2-2.1 0-3.1-1.5-3.1-3.4 0-1.8 1-3.5 3.2-3.5 1.8 0 2.6 1 2.8 2.2h-1.4c-.1-.5-.5-1-1.4-1-1.2 0-1.7 1.1-1.7 2.3 0 1.1.4 2.3 1.7 2.3.9 0 1.2-.6 1.4-1h1.4zM34.7 4.9h1.4v3c.4-.5 1.8-2 2.7-3h1.7l-2.7 2.8 2.8 3.9h-1.7l-2.1-3-.7.7v2.3h-1.4V4.9z"/><path fill="none" d="M27 27h13.5v13.5H27z"/><g fill="#010101"><path d="M32.2 38.9c.1.6.5.8 1.2.8.6 0 .9-.3.9-.7 0-.5-.3-.7-1.2-.9-1.5-.4-1.9-.9-1.9-1.7 0-1 .7-1.6 2.1-1.6 1.5 0 2.1.8 2.2 1.6h-1.2c-.1-.3-.2-.7-1-.7-.5 0-.8.2-.8.6 0 .4.2.5 1.1.8 1.6.4 2 1 2 1.8 0 1-.8 1.7-2.2 1.7-1.4 0-2.2-.7-2.3-1.7h1.1zM38.9 36.5c-.1-.3-.2-.5-.7-.5-.7 0-.9.7-.9 1.4.2-.3.6-.5 1.2-.5 1 0 1.7.7 1.7 1.8s-.7 2-2 2c-1.5 0-2.1-1.2-2.1-2.7 0-1.4.5-2.8 2.1-2.8 1.2 0 1.7.7 1.8 1.4h-1.1zm.1 2.2c0-.5-.2-1-.8-1-.5 0-.8.3-.8.9 0 .4.2 1 .8 1 .6.1.8-.4.8-.9z"/></g></svg>