<svg version="1.2" baseProfile="tiny" xmlns="http://www.w3.org/2000/svg" viewBox="0 0 45 45" overflow="visible" xml:space="preserve"><path d="m32.2 21.2-.2.2s0 .1-.1 0v-.1c.3-.3.5-.6.8-.8l.8-.8.2-.2c.1 0 .1-.1 0-.1-.1-.1-.3-.2-.4-.4l-.9-.9s-.1-.1 0-.1l.2-.2c.1 0 0-.1 0-.1s-.1-.1-.1 0-.1.1-.2.2c0 0-.1.1-.1 0l-.1-.1v-.2c0-.1-.1-.1-.1-.2s-.1-.1-.2 0c0-.1-.1-.2-.2-.3h-.2V17c0-.1 0-.2-.2-.3H31v-.1c0-.1 0-.2-.1-.3-.1 0-.1-.1-.2 0 0-.1-.1-.1 0-.2V16l-.1-.1h-.2c0-.1 0-.1-.1-.2s-.1-.1-.2-.1v-.2c-.1-.1-.1-.2-.2-.2 0-.1-.1-.1-.1-.2v-.1l.6-.6c.6-.6 1.1-1.2 1.7-1.8 0-.1.1-.1.2-.1l.1-.1.3-.3c.1 0 .1-.1.2-.1h.1s.1.1.1 0c.1 0 0-.1 0-.1 0-.1.1-.3.2-.4.1 0 .1 0 .1-.1 0 0 0-.1-.1-.1l-.3-.3-.1-.1c-.1-.1-.1-.1-.2.1 0 .1-.1.2-.2.2h-.2v.2c-.1.2-.2.3-.3.4-.2.2-.4.5-.6.7-.3.2-.5.5-.8.7-.3.2-.5.5-.8.7-.2.2-.4.4-.6.5h-.1v-.2L29 14h-.2c0-.1-.1-.1-.1-.2v-.1c-.1 0-.1-.1-.2-.1 0 0-.1-.1-.1 0 0 0-.1 0-.1-.1v-.1l-.1-.1H28v-.1c.1-.1 0-.1-.1-.2 0 0-.1 0-.1-.1-.1-.1-.1-.1-.2 0 .1-.1 0-.1-.1-.2-.1 0-.1-.1-.2-.1-.1.1-.1 0-.2 0s-.1 0-.1-.1v-.1c0-.1.1-.1.1-.1s.1-.1 0-.1H27l-.2.2c0 .1-.1 0-.1 0-.2-.2-.4-.3-.5-.5-.3-.3-.6-.5-.8-.8h-.1L24 12.4c-.2.1-.3.3-.4.5 0 0 0 .1-.1 0 0 0-.1-.1 0-.1l.2-.2s.1 0 0-.1h-.1c-.1.1-.2.1-.2.2 0 0-.1.1-.1 0l-.1.1c0 .1 0 .1-.1.1-.2.2-.5.4-.7.6-.2.2-.4.3-.6.5l-.3.3h-.1c-.1 0-.1.1-.2.1 0 .1-.1.1-.2.2s-.3.1-.4.3c-.1.2-.3.4-.5.5l-.7.7s-.1 0-.1.1c-.1.1-.1.2-.2.3-.3.3-.5.6-.8.8l-.2.2c-.1 0-.1.1-.1.1 0 .1-.1.1-.2.2l-1 1-.1.1c-.1.1-.1.1-.1.2l-.8.8-.4.4c0 .1-.1.1-.1.2-.3.3-.5.6-.8.8l-.2.2c-.1 0-.1 0-.1.1v.1l-.6.6-.3.3-.1.1s-.1 0-.1.1c-.1.1 0 .1 0 .1l.3.3-1.1 1.1c-.3.3-.5.6-.8.8-.1.1-.1.1 0 .2l1.1 1.1h.2l-.1.1v.1c.1.1 0 .1 0 .1-.2.2-.2.2 0 .4l.9.9 1.7 1.7c.3.3.6.6.8.9l1.5 1.5.1.1c.1.1.1.1.2 0l.1-.1h.2l.1-.1c0-.1.1-.1.2 0 0 0 0 .1-.1 0v.2l.7.7.4.4s.1.1.1 0l.9-.9c.3-.3.6-.7 1-1 .1-.1.1-.1.1 0l.3.3h.1c.1-.1.2-.1.2-.2v-.1l.5-.5.4-.4s.1-.1.2-.1c0 0 .1-.1.1-.2v-.1c.1-.1.2-.3.4-.4l.7-.7s0-.1.1 0c.1-.1.1-.1.1-.2s.1-.1.1-.2l1-1c.1-.1.1-.1.2-.1.1-.1.1-.2.1-.2l1.1-1.1s.1 0 .1-.1c.2-.2.3-.4.5-.6l.7-.7s.1-.1.2-.1c.1-.2.2-.3.4-.4l.8-.8c.1-.1.1-.1.2-.1v-.2l.2-.2c.1-.1.2-.1.3-.2 0-.2.2-.3.3-.4.2-.3.5-.6.7-.9.1-.2.3-.4.4-.5h.1c.1 0 .1-.1.1-.2v-.1l.1-.1c-.1.7-.1.6-.1.6zm-10.8 4.5.3-.3c-.1.2-.2.2-.3.3 0 .1 0 .1 0 0-.1.1 0 0 0 0-.1 0-.1.1 0 0-.1 0-.1 0 0 0 0-.1.1-.2.2-.3-.1.2-.2.2-.2.3zm6.4-1.1c0-.1.1-.1 0 0 .1-.1.1-.2.1-.2l.1-.1s0 .1-.1.1-.1 0-.1.1c.1 0 .1-.1 0 .1.1 0 .1 0 0 0 0 0 0 .1 0 0v.1s-.1 0 0-.1c-.1.1-.1 0 0 0zm-8.4-1s-.1 0-.2.1c.1-.1.2-.2.4-.3-.1 0-.1.1-.2.2.1-.1.1-.2.2-.2 0 .1-.1.1-.2.2.1-.1.3-.2.3-.2-.1.1-.2.3-.4.4 0-.1.1-.1.1-.2zm-.5-.4c.1 0 .1-.1.2-.1s.1-.1.2-.1l-.2.2.2-.2-.3.3c-.1-.1-.1 0-.1-.1 0 .1 0 0 0 0s-.1.1-.1 0h.1c-.1-.1-.1 0-.2 0l.3-.3h.1v.1c0-.1-.1 0-.1 0 .1 0 .1-.1.2-.1l-.3.3zm-.1-.4c.1 0 .1-.1.2-.1l-.3.3s-.1 0 0 .1c-.1 0-.1-.1 0-.2l.1-.1.1-.1s0 .1-.1.1zm3.7 3.7c-.1 0-.1.1-.2.1h-.1v-.1l.3-.3-.3.3s.1 0 .1-.1l.2-.2s0-.1.1 0v.1c-.1.1-.1.2-.1.2.1 0 .1-.1.2-.1-.1 0-.1.1-.2.1.1 0 .1 0 .2-.1l-.3.3c-.1.1-.1 0-.1 0v-.1s.1 0 .2-.1zm-.9-9.6c0-.1 0-.2.1-.2 0 .1-.1.2-.1.2s0 .1 0 0c0 .1 0 .2-.1.3-.1.2-.1.2-.2 0 0 0-.1 0 0-.1l.1-.1c.1.1.1 0 .2-.1zm-1.8 11.5c-.1 0-.1.1-.2.1s-.1 0-.1.1c0 0 0 .1 0 0v-.1s-.1.1-.1 0-.1 0-.1 0c.1 0 .1-.1.2-.2v.1l.1-.1s0-.1.1 0c.1 0 .1 0 .1.1-.1 0-.1 0-.2.1.1 0 .2-.1.2-.1 0-.1.1 0 0 0 0 .1-.2.2-.2.3.1-.1.2-.2.2-.3zm2.3-1.8s0-.1 0 0v-.2.2l-.1-.1v-.1l.3-.3c0 .1-.2.2-.3.4.1-.1.2-.2.3-.4 0 .1-.1.1-.2.3l.2-.2-.1.1c.1.1 0 .1-.1.3l.3-.3c0 .1-.2.2-.3.3zm-6.4-2c.1 0 .1-.1.2-.1l-.3.3c0-.1.1-.1.1-.2-.1.1-.1.1 0 0l-.1.1v-.1s0 .1-.1 0l-.1-.1.3-.3c0 .1-.1.1-.2.2l.2-.2-.3.3c.1-.1.2-.2.3-.2.1.2 0 .2 0 .3 0-.1.1-.2.2-.2-.1.1-.2.1-.2.2zm12.4-8.1c-.2-.1-.3-.3-.5-.4V16h.1l.1.1v.2h.1c0-.1.1 0 .1 0l.1.1v.1c-.1-.1-.1 0 0 0 .1-.1.1 0 .2 0l.1.1s-.1 0-.1.1c-.1 0-.2-.1-.2-.2zm-6.8 3c-.1 0-.1 0 0 0l-.1.1v-.1l.1-.1.9-.9s0-.1.1 0c-.1.1-.2.2-.3.4l-.3.3c-.2 0-.3.2-.4.3zm2.3-1.9s0 .1 0 0c-.1.1-.2.1-.2 0v-.2l-.1-.1c0-.1-.1-.1-.1-.1 0-.1.1-.1.1-.2s.1-.1.1 0h.1c.1 0 .1.1.1.1v.1l.1.1c-.1.1-.1.1 0 .1.1.3 0 .2-.1.2zm-.8-.8c0-.1.1-.1.1-.2 0 .1.1.1.1.2h.1c.1 0 .1 0 .1.1v.1c.1.1 0 .1 0 .1l-.1.1s0 .1-.1 0c0 0-.1 0 0-.1 0-.1 0-.1-.1-.1 0 0-.1-.1-.1 0-.1-.1-.1-.1 0-.2zM19.9 29l.3-.3c-.1.1-.1.2-.2.2.1-.1.1-.2.2-.2-.1.1-.1.2-.2.2l.2-.2h.1v.1l-.2.2v.1h.1l.1-.1v.1l.2-.2h.1v.1l-.1.1c.1 0 .1-.1.2-.1l-.3.3c.1-.1.1-.2.2-.2l-.2.2h-.1c0-.1-.1-.1-.2-.2V29c-.1.1-.1.1-.2 0 0 0 .1 0 0 0 .1 0 0 0 0 0 0 .1 0 0 0 0-.1 0-.1 0 0 0 0-.1.1-.2.2-.3 0 .1-.1.2-.2.3zm4-11.6c-.1.1-.1.1-.1 0 0 0-.1 0-.1-.1s-.1-.2-.1-.2h-.1V17l.1-.1c.1-.1.1-.1.2 0 0 0 0 .1.1 0 .1 0 .1 0 .1.1v.1s.1.1.1 0v.1H24h.1c-.1.2-.1.2-.2.2zm-.1 11.9c0-.1.1-.1 0-.2l-.1-.1c-.1 0-.1 0-.1-.1-.1 0-.1 0-.1-.1v-.1l.2-.2c0 .1 0 .1 0 0h.2c.1 0 .1 0 .1.1 0-.1.1 0 .2 0 0 0 .1 0 0 0 0 0 0 .1-.1 0h-.2v.1c0 .1 0 0 .1.1.1.3 0 .4-.2.5.1 0 0 0 0 0 0 .1 0 .1-.1.1 0 0 .1 0 .1-.1zm-6.5-4.4c-.1 0-.1.1-.2.1 0 0 0-.1.1-.1.1-.1.2-.2.3-.4v-.1c.1-.1.2-.2.3-.2 0 0-.1.1-.1.2.1-.1.2-.1.2-.3.1-.1.1-.1.1-.2l.4-.4c0 .1-.1.1-.1.1.1 0 .1-.1.2-.2 0 .1-.1.1-.2.2.1 0 .1-.1.2-.1h.1l-.2.2v.1l-.2.2s-.1 0-.1.1l-.3.3s0 .1-.1.1c-.1.1-.2.1-.2.2l-.1.1c-.1.1-.2.1-.3.2H17s-.1-.1 0-.1c.1.1.2 0 .3 0zm1.6-.7h.1-.1c-.1.2-.2.3-.3.4l-.3.3-.3.3c0 .1-.1.2-.2.3 0 .1-.1.1-.2.2v-.1h-.1l.1-.1-.1.1v-.1s-.1.1-.1 0 .1-.1.1-.1l-.1.1v-.1l.1-.1.3-.3.6-.6c.1-.2.3-.3.5-.4l-.1.1s.1 0 .1-.1h.1v.1s0 .1-.1.1zm3.5 3.4h.1c-.1.1-.2.1-.2.2l.1-.1-1.2 1.2.3-.3-.3.3-.1.1H21v-.1h-.1c0-.1 0-.1.1-.1 0 0-.1.1-.1 0v-.1l.2-.2c.1-.1.2-.3.4-.4l.5-.5c.1-.1.2-.3.3-.4h.1v.1h.1v.1c-.1.1-.1.1-.1.2 0-.1.1-.1.1-.1-.1 0-.1.1-.1.1zm-5.5-2.7c.1 0 .1-.1.2-.2 0 .1-.1.1-.2.2-.1 0 0 0 0 0 0-.1 0-.1 0 0 0-.1-.1 0-.1 0v-.1l.1-.1h-.1s0 .1-.1 0v-.1l.3-.3.4-.4.6-.6s.1-.1.2-.1l-.2.2.1-.1h.1v.1l-.1.1c.1 0 .1-.1.2-.1-.1 0-.1.1-.2.2l.1-.1-.1.1c-.2.2-.4.3-.5.5-.1.2-.3.3-.5.5 0 .1-.1.2-.2.3zm1.6 5.9c0 .1.1.1.1.1.1 0 .1-.1.1-.1.1.2 0 .4-.1.5 0-.1 0-.2-.1-.2s-.1 0-.1.1.1.1.2.1c-.1.2-.5.3-.7.1-.3-.2-.4-.5-.4-.8.1-.3.4-.5.7-.5.3 0 .5.2.6.4-.2.1-.3.1-.3.3zM14 27.1c0 .1.1.2.2.2-.1 0-.2.1-.1.2 0 .1.1.1.2.1 0 0 .1 0 .1-.1v-.2H14.7c0 .1.1.1.2.1s.1-.1.1-.1c0-.1 0-.1-.1-.1 0 0-.1 0 0 0 0-.1 0-.2.1-.3.1.1.2.1.3-.1.1.4-.1.7-.5.8-.3.1-.7-.2-.8-.5-.1-.4.2-.7.5-.8.3-.1.7.2.7.4-.1-.1-.2 0-.3.1l-.2-.2c.1-.1.1-.1.1-.2s-.1-.1-.2 0l-.1.1c0 .1 0 .1.1.2h-.1c-.1 0-.2.1-.3.2-.2.1-.2.2-.2.2zm7.4 3.1c.1-.1.2-.2.3-.4h.1c0-.1.1-.1.1-.2h.1c0-.1.1-.1.2-.2 0 0 0-.1.1-.1 0-.1.1-.1.2-.2l.1-.1c0-.1.1-.1.1-.2l.1-.1s.1 0 .1-.1.1-.1.1-.2c.1 0 .1-.1.1-.1l.2-.2c.1.1.2 0 .2.1 0-.1.1-.1.2-.1-.1-.1.1-.2 0-.3.1 0 .1.1.1.1.1.1.1.1 0 .2l-.1.1c-.1.1-.1.1-.3 0v.2c0 .1 0 .1-.1.1 0 0 0 .1-.1.1 0 0-.1 0 0 0l-.1.1c0-.1 0-.1-.1-.1h-.1s0 .1-.1.1c0 .1-.1.1-.1.2-.1.1-.1.1 0 .2 0 0 .1 0 0 .1s-.1.2-.3.2c0 .1-.1.2-.2.2s-.1.1-.1.1l-.1.1v.1c-.1 0 0 0 0 0-.1 0-.1.1-.1.1s-.1 0-.1.1l-.1.1c0-.1-.1-.1-.1-.1 0-.1-.1-.1-.1-.1.1.1.1.1-.1.2.1 0 .1 0 0 0 0 .1 0 .2-.1.2v.1-.1c0-.1.1-.2.1-.2zM27 15c.1 0 .1.1.2.1.1.1.1.1 0 .1l-.4.4-.5.5c-.1.1-.1.1-.1 0-.1-.2-.3-.3-.5-.5-.1-.1-.1-.1-.1-.2h.1l.1-.1s.1-.1 0-.1c-.1-.1 0-.1 0-.1l.1-.1c.1.1.1 0 .1 0l.1-.1v-.1c0-.1.1-.1.1-.1.1 0 .1 0 .1.1.5 0 .6.1.7.2zm-9.2 6s.1 0 0 0c.3-.3.6-.5.8-.8l1.2-1.2c.3-.3.5-.6.8-.8l.6-.6s0-.1.1 0v.1l-.2.2-2.2 2.2c-.4.3-.7.7-1 1.1 0-.1-.1-.1-.1-.2 0 0 0-.1 0 0 .1-.2.2-.3.2-.4v-.1h-.1c0 .2-.2.3-.1.5-.2-.2-.2-.2-.1-.3l.1-.1.7-.7c.4-.3.7-.7 1.1-1.1l.6-.6c.3-.3.6-.6.9-1 .1-.1.1-.1.2 0s.1.1 0 .2c-.3.3-.6.6-.9 1l-.8.8-1.1 1.1-.7.7zm-1.4 7.8c-.1-.1-.1 0-.2.1l-.1.1c-.1 0-.1.1-.1.2 0 0 0 .1.1.1h.1l.2-.2c.1 0 .1 0 .2.1l.2.2h.1c.1 0 .1-.1.2-.1.1-.1.1-.2.2-.2l.4-.4.3-.3c.1-.1.2-.1.2-.2.1-.1.1-.1.1 0l1 1 .9.9v.1c-.1.1-.2.2-.2.3h-.2l-.1.1v.1c-.1.1-.2.2-.2.3l-.2.2v-.1c0-.2 0-.4-.1-.6 0-.1-.1-.1 0-.2v-.1c-.1-.2-.2-.3-.2-.4h-.2c-.1 0-.2 0-.2-.1l-.2-.2c-.1-.1-.1-.1 0-.2s0-.1 0-.2l-.3-.3c-.1-.1-.1-.1-.2 0 0 .1-.1.1-.1 0l-.1-.1c-.1-.1-.1-.1-.2 0l-.3.3-.6.6c-.1.1-.1.2 0 .3l.6.6v.1c0 .2 0 .4.1.5v.1l-3.4-3.4c.2.1.3.1.5.1.1 0 .1 0 .2.1l.6.6c.1.1.2.1.2 0 .1-.1.2-.2.3-.4.2-.2.3-.4.5-.5.2-.2.2-.2 0-.3v-.1c.1-.1.1-.1 0-.2s-.1-.2-.2-.2c-.1-.1-.1-.1-.2 0h-.1l-.2-.2c-.1-.1-.1-.2-.2-.3v-.1l-.2-.2s-.1-.1-.1 0h-.1c-.1 0-.2-.1-.4-.1h-.3l.5-.5h.2l.1-.1v-.2c.1-.1.2-.2.2-.3h.1l.7.7h.1l-.9-.9c0-.1.1 0 .2-.1.1.1.2 0 .2.1 0 0 0 .1.1.1l.6.6.6.6 1.1 1.1s.1 0 0 .1h-.1l-.2-.2c-.1 0-.1-.1-.2-.1h-.2l-1.1-1.1h-.1l.1.1 1.1 1.1s.1.1 0 .1c0 .1-.1.1-.1.2l-.4.4-.3.3c-.1 0-.2.1-.2.1 0 .1-.1.2-.2.3-.1.1 0 .1 0 .2l.1.1c.1-.1.2 0 .2.1zm8.4-7.7-1.2 1.2c-.1.1-.1.1-.2 0l-.3-.3-.7-.7c-.1-.1-.2-.2-.2-.3 0-.1-.1-.1-.2-.2l-.2-.2-.7-.7c-.1-.1-.1-.1 0-.2l.8-.8.4-.4s.1-.1.1 0l.3.3 1.6 1.6.4.4v.1c0 .2.1.2.1.2zm1.8 3.5s0-.1 0 0c-.1-.1-.1-.1-.1 0s0 0 .1 0l-.3.3s-.1.1-.1 0h-.1v.1h.1l-.8.8h-.2v.2l-.4.4v-.1c0 .1.1 0 .1.1l-.9.9v-.1h-.1c0 .1-.1 0-.1 0-.2-.1-.3-.3-.5-.4l-.6-.6s-.1 0 0-.1c0-.1.1 0 .1 0 .1.1.2.1.2.2.3.1.6.2.9.2.7-.1 1.2-.6 1.4-1.2.1-.3 0-.7-.1-1v-.2l.4-.4.7-.7c0 .1.1.1.1 0 .2.1.3.2.5.4 0 0-.1 0-.1.1h.1c.1.1.2.2.4.3-.1 0 0 .1 0 .1v.1l-.3.3c0-.1-.2.1-.4.3zm-5.3 1-.3.3h-.1c-.1-.1-.2-.2-.4-.3-.1-.1-.2-.1-.4 0-.1 0-.1.1-.2.2l-.5.5-.7.7c-.1.1-.3.2-.3.4h-.1l-.2-.2-.4-.4s-.1-.1 0-.1.1-.1.1-.1c.1-.2.3-.3.4-.5l1.1-1.1c.1-.1.1-.3 0-.5l-.3-.3c-.1-.1-.1-.1 0-.2.2-.2.3-.4.5-.5.1 0 .1-.1.1 0l.5.5c.4.4.8.8 1.1 1.2v.1c.2.1.1.2.1.3zm3.6-2c.6.6.7 1.6 0 2.3-.6.6-1.5.6-2.1 0-.6-.6-.7-1.6-.1-2.2.6-.7 1.6-.7 2.2-.1zm-.3-8.6c0 .1 0 .1 0 0-.1.1-.2.1-.3.1-.1 0-.1.1-.1.1 0 .1 0 .1-.1 0 .1 0 0 .1 0 .1H24c-.1-.1-.1-.1-.2 0-.1 0-.1 0-.1-.1v-.1c0-.1.1-.1.1-.1.1-.1.2-.1.2-.2s0-.1.1-.1c0 0 0-.1.1-.1 0 0 0-.1.1-.1h.1c.1-.1.1-.1.2-.1 0 0 .1 0 .1-.1 0 0 0-.1.1 0 0-.1.1-.1.1-.1V14c0-.1-.1-.1-.1-.2h-.2v.1h-.1v-.2c-.1 0-.1-.1-.1-.1-.1 0-.1 0-.1-.1h-.1s0-.1-.1-.1c0-.1-.1-.1-.1-.1v-.1c.1-.1.1-.1.2-.1V13c0-.1.1-.1.2-.1 0-.1 0-.1.1-.1 0 0 0-.1.1-.1s.1-.1.2-.2h.1l.1-.1h-.1v-.1l.1-.1c0-.1.1-.1.1 0h.1c0-.1.1-.1.1 0l.1.1c-.1.1 0 .1 0 .2l.1-.1.2.2h-.1v.1c.1 0 .1 0 .1-.1l.2.2v.2h.1c.1-.1.1 0 .1 0l.1.1c.1.1.1.1 0 .2h.2l-.1.1-.2.2c0 .1-.1.1-.1.1-.1.1-.1.2-.2.2l-.2.2-.1.1c0 .1-.1.1-.2.2l-.1.1c0 .1-.1.1-.1.1l-.2.2c-.1.2-.2.2-.3.2.1.1.1.1 0 0zm6 5.2c0 .1 0 .1 0 0-.1.2-.1.4-.3.6-.2.1-.3.3-.4.5 0 0-.1 0-.1.1 0 0 .1 0 0-.1.1 0 0 0 0-.1v-.1s0-.1.1 0V21c.1 0 .1-.1.1-.1 0-.1.1-.1.1-.2s0-.1.1-.2c0-.1.1-.1.1-.1 0-.1.1-.1.1-.2s.1-.1.1-.1h.1c0-.1.1-.1.1-.2 0 0 .1 0 .1-.1s.1-.1.1-.2.1-.1.1-.2l.1-.1c0-.1.1-.1.2-.2 0 0 .1 0 .1-.1.1 0 0 0 .1-.1 0 0 .1.1.1 0s.1 0 .1 0c.1 0 .1.1.2.2 0 0 .1.1 0 .1v.1h.1v-.1l.3.3h-.1v.1h.1s.1-.1.1 0 .1.1.1.1c.1.1.1.1 0 .2.1 0 .1.1.1 0s.1 0 .1 0 0 .1.1.1c.1.1.1.1 0 .1h.1l.1-.1-.3.3h-.2v.2s0 .1-.1.1l-.1.1-.3.3c-.1.1-.1.2-.2.2s-.1.1-.1.1c-.1 0-.1 0-.1-.1h-.1l-.5-.5h-.2v-.2c0-.1 0-.2-.1-.2h-.2c.2-.1.1 0 .1-.1zm-10.1-.1h-.1c0 .1-.1.2-.2.2h-.1c-.1 0-.2-.1-.2 0h-.1l-.1-.1c-.1-.1-.1-.1-.2 0l-.6.6-.6.6h-.1l-.2-.2V21l.3-.3h.1v-.2l.3-.3h.2v-.1c-.1 0 0-.1 0-.1.2-.2.4-.4.5-.6l.8-.8 1.3-1.3h.1l.3.3c.1.1.2.3.3.4v.1l-.2.2-.2.2c-.3.3-.5.6-.8.8 0 0 0 .1-.1 0s-.2-.1-.2-.2-.1-.2-.1-.2 0-.1-.1 0c-.1 0-.1 0-.2-.1h-.1c-.1.2-.2.4-.4.6v.1H20.1c.2.4.3.6.4.6l.1.1-.4.4s-.1.1-.1 0H20l.5-.5zm10-1.9c.3.2.5.5.7.7 0 0 .1.1 0 .1l-.7.7c-.2.2-.5.4-.6.7 0 .1-.2.2-.2.2h-.1s-.1 0-.1-.1-.1-.1-.1-.1c0-.1 0-.1.1-.1h.1c.1 0 .1.1.2 0h.1s0 .1.1 0V20c-.3-.2-.5-.5-.8-.8l-.7-.7s-.1-.1-.1 0h-.1c-.1-.1-.1 0-.1 0v.1s.1.1 0 .1v.1s.1 0 0 .1l-.1.1-.1-.1h-.1c-.1 0-.2-.1-.3-.3 0 0 0-.1-.1-.1-.2-.1-.3-.3-.4-.4V18l.9-.9.4-.4c.1-.1.1-.2 0-.3 0-.1.1-.1.2 0l.1.1c.6.5 1.2 1.1 1.8 1.7zm-10.6 5.1c.1 0 .1 0 0 0 0 .1 0 .1.1.1l-.1-.1c.2 0 .1 0 0 0 .1 0 .1 0 0 0 .2-.2.3-.3.4-.5h.1s.1.1.1 0v-.1c-.1 0 0-.1 0-.1l.6-.6h.1l.6.6.8.8v.1l-.2.2c-.2.3-.3.6-.3 1v.1l-.3.3h-.1v.1h-.1c-.4-.4-.8-.8-1.2-1.1-.1-.3-.3-.5-.5-.8zm5.2-4-.6-.6c-.1-.1 0-.1 0-.1l1.1-1.1.1-.1.1.1.9.9.3.3s.1.1 0 .1l-.2.2-.9.9h-.1c-.3-.2-.5-.4-.7-.6zm1-3c.2.2.4.3.5.5v.1l-.3.3h-.1l-.3-.3-.7-.7-.7-.7c-.1-.1-.1-.1 0-.2s.1-.2.2-.2.1-.1.2-.1c.4-.4.8-.8 1.1-1.2h.1l.9.9.6.6.4.4v.1l-.1.1v-.2c-.4-.4-.8-.8-1.2-1.1-.1-.1-.2-.1-.3 0h-.2l-.2.2s-.1.1 0 .1v.1l-.1.1h-.2l-.2.2s-.1.1 0 .1v.1c-.1.1 0 .2.1.3l.5.5zm-2.2 6.9c-.4 0-.7.1-1 .3-.1.1-.1 0-.2 0l-.5-.5-.9-.9-.1-.1v-.4c0-.1.2-.3.3-.2.1 0 .1.1.1.2v.2h.2c.2-.1.3-.2.5-.4h.1l.5.5.6.6c.2.1.2.1 0 .3v.1c.1 0 .3.1.4.3zm5.8-6.3-.9-.9c-.1-.1-.1-.1 0-.2-.1.1 0 .1 0 .2h.4c.1 0 .2-.1.3-.1.1 0 .1-.1.1-.1l.1.1c0 .1.1.2.2.2h.1c.2.2.4.4.7.6v.1c-.1.1 0 .1 0 .1s.1.1.1 0h.1l.7.7v.1c0 .1.1.2.2.2h.1l.1.1v.1l-.5.5h-.1c-.1-.1-.3-.2-.4-.4l-.4-.4-.9-.9zm.5-2.5-1.1 1.1c-.2.3-.5.5-.7.7h-.1c-.1-.1-.2-.2-.3-.2-.1 0 0-.1 0-.1l.8-.8 1-1c.4-.4.8-.7 1.2-1.1.2-.2.5-.4.7-.7h.1l.1.1c.1 0 0 .1 0 .1l-.4.4c-.4.6-.9 1-1.3 1.5zM16.5 28.8l-.3-.3s-.1-.1 0-.1c.1-.1.1-.1.2-.1 0 0 .1 0 .1-.1v-.1c.3-.3.5-.6.8-.9.1 0 .1 0 .1-.1 0 0 0-.1.1-.1h.1l.7.7v.1l-.9.9c-.1.1-.2.2-.4.3-.1.1-.1.1-.2 0-.1 0-.2-.1-.3-.2zm2.5 3.1c.1 0 .1-.1.1-.1l.1-.1c0-.1.1-.1.1-.1l.1-.1.1-.1c0-.1.1-.1.1-.2.1 0 .1-.1.1-.1 0-.1.1-.1.1-.2v-.1c-.1.3-.5.7-.8 1.1-.1-.2 0-.2 0-.3l.4-.4.1-.1s.1 0 .1-.1 0-.1.1-.1l.4-.4h.1l.2.2.6.6v.1h-.1l-.2-.2V31c0 .1 0 .1-.1.1l-.2.2c0 .1-.1.1-.1.2s-.1.1-.2.2c.1.1 0 .1 0 .1 0 .1-.1.1-.2.2.1.1.1.1 0 .2 0 0-.1.1 0 .1l.1.1c.1 0 .1-.1.2 0 .1 0 .1 0 .1-.1l.3-.3.1-.1.2-.2.2-.2.4.4v.1s0-.1-.1-.1v.2s0 .1-.1.1 0 .1 0 .1l-.2.2s-.1.1-.1 0v.1c0-.1-.1 0-.1 0v.1h.1v.1c-.1.2-.3.3-.4.4h-.1l.1-.1c-.6-.1-.6-.1-.6 0-.1-.1-.2-.1-.2-.2h.1s0-.1-.1-.1v-.1c-.1 0-.1 0-.1-.1v-.1c0-.1 0-.1-.1-.1h-.1c0-.1-.1-.1-.1-.2 0 0-.1.1-.1 0-.2 0-.3-.1-.3-.2.1 0 .1 0 .1-.1H19zM26.7 14l-.4-.4v-.1l.5-.5c.1-.1.1-.1.2 0 0 0 .1 0 .1.1v.1s.1.1.2 0h.1l.8.8v.1c0 .1 0 .2.2.2h.1l.5.5v.1l-.5.5c-.1.1-.1 0-.1 0-.7-.4-1.2-.9-1.7-1.4zm-7.9 13.5s0 .1 0 0l-.2-.2c-.1-.1-.1-.1 0-.2l.7-.7.8-.8c.1-.1.2-.1.2 0l.4.4v.1l-.5.5c-.3.3-.5.6-.8.8l-.3.3H19c-.1 0-.2-.1-.2-.2zm1.7-4.9c-.1 0-.1-.1-.2 0v.2l-.5.5h-.1l-.1-.1c-.1 0 0-.1 0-.1l.1-.1c0-.1 0-.2-.1-.2-.1-.1-.2 0-.3 0-.1.1-.1.1-.2 0l-.5-.5c-.1-.1-.1-.1 0-.2v-.2c-.1-.1-.2-.1-.3 0l-.1.1c-.1 0-.1-.1-.1-.1-.1 0 0-.1 0-.1l.6-.6h.1l.3.3s.1.1 0 .1c0 0-.1.1 0 .1 0 0 .1.1.1 0 .1-.1.1 0 .2 0l.9.9c.1-.1.2-.1.2 0zm6.4-5.9.6-.6s.1-.1.1 0l.6.6v.1c-.2.2-.4.4-.6.7l-.6.6c-.1.1-.1.1-.1 0-.2-.2-.4-.3-.5-.5-.1-.1-.1-.1 0-.2.1-.3.3-.5.5-.7zm-6.9-.4c.2-.3.5-.5.7-.8l.1-.1h.1v.1c-.1.1-.1.2-.2.2l-1 1c-.6.6-1.2 1.3-1.9 1.9-.4.4-.8.9-1.3 1.3L15.4 21l-.6.6-.9.9-.7.7-.3.3s-.1.1-.1 0v-.1l.4-.4c.4-.4.7-.8 1.1-1.2.4-.4.7-.8 1.1-1.1l.8-.8.8-.8 1-1 1.1-1.1c.3-.1.6-.4.9-.7zM14.1 29l-.4-.4-.2-.2s-.1 0 0-.1.1-.1.2 0l.2.2.8.8c.3.3.6.6.9.8l1.4 1.4c.1.1.1.1 0 .3v.2c.1 0 .1.1.2.1l.1.1c-.1-.1-.2-.3-.4-.4 0 0-.1-.1 0-.1 0-.1.1 0 .1 0s.1.1 0 .1v.1h.1c.1-.1.1 0 .1 0l.5.5c.1.1.1.1 0 .2h-.1s.1 0 0 .1h-.1c-.1-.1-.3-.2-.4-.4L15.8 31c-.3-.3-.6-.6-.8-.9l-1.5-1.5-.4-.4-.6-.6s-.1 0 0-.1h.1c.1.1.2.2.4.3.1.1.2.1.2.3h.1c.1 0 .1 0 .1.1l.6.6v.1c0 .1 0 .1.1.1zm10.1-1.8s.1 0 0 0c.2-.1.3-.2.4-.3l2-2 .9-.9c.2-.2.1-.2.3 0 0 0 .1.1 0 .1l-.3.3c-.4.4-.8.8-1.1 1.2-.1.1-.1.1-.1.2-.1.1-.3.2-.4.4l-.4.4-.7.7-.3.3h-.1c-.1-.2-.2-.3-.2-.4-.1 0-.1 0 0 0 0-.1.1-.2.1-.2.1-.2.3-.3.5-.5.4-.4.7-.7 1-1.1.3-.4.7-.7 1-1.1l.6-.6h.1v.1l-.3.3-.7.7-1 1-1.1 1.1c-.1.1-.1.2-.2.3zm-2.3 4.9-.1.1s-.1.1-.1 0c-.1-.1 0-.1 0-.1.4-.4.8-.8 1.2-1.3.6-.6 1.2-1.2 1.7-1.8l1.2-1.2 1.3-1.3 1.1-1.1 1.2-1.2s.1-.1.1 0c.1 0 0 .1 0 .1l-.7.7c-.3.3-.5.6-.8.8l-.8.8-.8.8-.9.9-1 1-.6.6c-.5.5-.9 1-1.4 1.4-.1.3-.4.5-.6.8zm-3.8-6.9c.1-.2.3-.3.5-.5l.4-.4s0-.1.1 0 .3.2.3.4v.2l-.2.2-1.3 1.3c-.1.1-.1.1-.2 0l-.3-.3V26c.2-.2.5-.5.7-.8zM20 22l-.4-.4c-.1-.1-.1-.1 0-.2l.5-.5s0-.1.1 0l.6.6v.1c-.1.1-.1.1 0 .2 0 0 0 .1.1.1h.3c0-.1.1 0 .1 0l.1.1v.1l-.6.6h-.1c-.4-.3-.6-.5-.7-.7zm7.2.2c.3 0 .3-.1.2-.2h.2v-.1c-.1-.1 0-.2.1-.2s.1 0 .1-.1v-.1c.1 0 .2-.1.2-.1.1 0 .1-.1 0-.1l-.1-.1h.1c.1 0 .1 0 .2-.1V20.8h.2c.1 0 .1 0 .1-.1s0-.1-.1-.1h-.1c-.1 0-.1 0-.1-.1s-.1-.2-.2-.2h-.1.1l.7.7v.1l-.5.5-1.3 1.3h-.1l-.3-.3v-.1h.2c.1 0 .1 0 .1-.1.4-.1.4-.2.4-.2zm.7-6.3h-.2c-.1 0-.1 0-.1.1s-.1.1-.1.1h-.1c-.1.1-.2.3-.3.3v.2c-.1 0-.1.1-.2.2l-.1.1h-.1l-.5-.5v-.1c.3-.3.6-.7 1-1h.1l.5.5.1.1zm-16 10.6-.6-.6v-.1c.1-.2.3-.3.5-.5h.1v.1c-.1.1 0 .1 0 .2l1 1s.1.1.1 0h.1v.1c-.1.2-.3.3-.4.5 0 0-.1.1-.1 0-.3-.4-.5-.6-.7-.7zm6.8 5.7c-.1.1 0 .1 0 .1l.3.3.7.7s.1.1.1 0h.1v.1l-.4.4h-.1l-1.1-1.1v-.1l.2-.2c0-.1.1-.2.2-.2zM17 29.4l.3-.3c.1-.1.1-.1.2 0l.6.6v.1c-.1 0-.2.1-.3.1-.2.2-.4.3-.6.6 0 0 0 .1-.1 0l-.5-.5c-.1-.1-.1-.1 0-.2l.4-.4zm14.5-7.8c-.1 0 0 0 0 0-.1-.1-.1 0 0 0-.1 0-.1 0 0 0-.1 0-.1.1-.1.1.1 0 0 .1 0 .1l-.2.2-.3.3h-.1s-.1-.1-.2 0h-.1v-.1c.1 0 .1-.1.1-.1.1-.1.1-.1.2 0 0-.1 0-.1.1-.1s.1-.1.2-.2c0 0 0-.1-.1-.2s-.2-.2-.3-.1h-.1s-.1 0-.2-.1v.2s.1 0 0 .1c0 .1-.1.2-.2.2h-.1s-.1 0-.1-.1c-.1 0-.1 0 0-.1 0 0 0-.1.1-.1H30s-.1-.1-.1 0l.1-.1v-.1l.2-.2.1-.1c0-.1.1-.1.1-.1 0-.1 0-.1.1-.1h.1c.1-.1.1-.1.1 0l.1.1c.1 0 .1 0 .2.1s.1.2.2.2l.1.1v.1c.1 0 0 .1.1.1v.1c.1-.2.1-.1.1-.1zM13.2 24c0-.1.1-.1 0 0 .3.2.5.3.6.5.2.2.4.4.5.6v.1h-.1c0-.1 0 0-.1 0 0 .1-.1.1-.2.2s-.1.1 0 .2v.1c0 .1-.1.1-.2.2l-.1.1c0 .1-.1.1-.1.1s-.1 0-.1.1c0 0 0-.1-.1 0v.1h-.1c0 .1-.1.1-.1.2v-.1H13v.1s0-.1-.1-.1c0 0 0-.1-.1-.1 0 0 .1 0 .1-.1h-.2c-.1 0-.2 0-.1-.1 0-.1-.1-.1-.1-.1v.1h-.1c-.1 0-.1 0-.1-.1s0-.1-.1-.1h-.1c0-.1-.1-.1-.1-.1h.1s-.1 0-.1-.1-.1 0-.1 0c.1 0 .1-.1.1-.1.1-.1.1-.1.2-.1s.1-.1.1-.1h.1c-.1.1-.2.2-.3.2 0 .1.1.2.1.2.1 0 .1.1.1.1.1.1.1.2.2.3.1 0 .1.1.2.2h.1s0-.1.1 0c0-.1.1-.1.1-.2 0 0 .1 0 0 0 .1 0 .1-.1.1-.1h.1V26c0-.1.1-.1.2-.1l.6-.9v-.1c-.1 0-.1-.1-.1-.1l-.1-.1v-.1s-.1 0 0-.1c-.1 0-.1-.1-.1-.1-.1 0-.1 0-.2-.1l-.1-.1c-.1-.2-.1-.2-.2-.2.1 0 0 0 0 0zm4-2.8c-.1 0-.1.1-.2.1 0 0 0 .1-.1.1.1 0 0 0 0 .1v.1s0 .1-.1 0c0 0 0 .1-.1 0v.1l-.2.2-.2.2-.2.2c-.1 0 0 .1-.1.1 0 .1 0 .1-.1.1 0 0 0 .1-.1.1v.1c0 .1-.1.1-.2.2l-.1.1c0 .1 0 .1-.1.1 0 0 0 .1-.1.1 0 0-.1 0 0 0 0 0-.1-.1 0-.1-.1 0-.1 0-.1-.1s0-.1.1-.1c0-.1.1-.1.1-.1v-.1c.1-.1.1-.1.1-.2l.3-.3c.1 0 .1-.1.1-.1 0-.1 0-.1.1 0 0 0 0 .1.1 0 0 0 0-.1.1-.1h.1v-.1c.1 0 0-.1 0-.1l-.3-.3c-.1-.1-.1-.1-.1 0h-.1c.1 0 .1-.1.1-.1 0-.1 0-.1.1-.1 0 0 .1 0 0 0 0 0 0-.1.1 0 0 0 .1 0 .1.1v.2c0 .1.1.2.2.2h.3v-.1s.1 0 .1-.1c.1-.1.1-.2.3-.3 0-.2 0-.2.1-.1-.1 0-.1 0 0 0 0-.1 0 0 .1.1 0 0-.1 0-.1-.1zm6.6 1.1s0-.1 0 0c.3-.4.6-.7 1-1 0 0 .1-.1.2-.1h.1-.1.2l.3.3c.1.1.1.1 0 .1 0 0-.1 0 0 .1h.1c.1-.1.1 0 .2 0l.1.1v.1l-.2.2c-.1-.1-.1 0-.2 0-.3 0-.7 0-1.1.1-.3.1-.5.1-.6.1zm-8 5.9c-.1.1-.2.2-.3.4-.1 0-.1.1-.1 0-.2-.2-.4-.3-.5-.5V28l.3-.3c.2-.2.3-.3.4-.6 0-.1 0-.1.1 0s.2.2.4.3l.2.2c.1.1.1.1 0 .2-.3.2-.4.3-.5.4zM33 18.7l.6.6v.1l-.3.3h-.1l-.2-.2c-.4-.4-.7-.8-1.1-1.1-.1 0 0-.1 0-.1.1-.1.2-.2.3-.2h.1c.3.2.5.4.7.6zm-7.2-6.2c-.2-.2-.4-.4-.7-.6v-.1l.2-.2s.1-.1.1 0l.7.7.6.6c.1.1.1.1 0 .1l-.2.2h-.1c-.1-.3-.3-.5-.6-.7zm-3 2c.1 0 .1 0 0 0 .1 0 .1.1 0 0 0 .1 0 .1 0 0-.1 0-.1 0 0 0-.1-.1 0-.1 0 0 0-.1 0-.1-.1-.1 0 0-.1-.1 0-.1 0-.1.1-.1.1-.1.1 0 0 0 .1-.1 0-.1.1 0 .1 0V14s.1 0 .1-.1.1 0 .1-.1v.1V13.6c0-.1 0-.1.1-.1h.1v.1h.1l.4.4c.1 0 .1.1 0 .1l-.1.1h.1v.1s0 .1-.1.1c0 .1-.1.1-.1.2 0 0 0 .1-.1 0v.1c0 .1 0 .1-.1.1 0 0 0 .1-.1.1 0 .1-.2.1-.3.1v.1l-.2-.2v-.1c.1 0 0 0 0-.1l-.1-.1v-.1h.1c0-.1.1-.1.1-.1h.2c.1.1.1 0 .2 0v-.1c-.1-.1-.1-.1-.1-.2V13.8h-.1c-.1 0-.1-.1-.2 0-.1 0-.1.2-.3.2 0 .1 0 .1-.1.1v.1c0 .1 0 .1-.1.1.4.1.4.2.3.2zm-.5 6.7h-.5c-.1 0-.2 0-.2-.1s-.1-.1-.1-.2l-.7-.7-.5-.5s-.1 0 0-.1c0-.2.1-.3.1-.4v.1h.2l.3.3h-.2c0 .1-.1.2-.1.3 0 .1.1.1.1.1s0 .1.1.1c.1.1.1 0 .2 0l.1-.1v-.1h.1c.3.3.6.6 1 .9 0 0 .1.1 0 .1 0 0-.1 0 0 .1 0 0 0 .1.1.1h.1c-.3-.1-.2 0-.1.1-.1-.1-.1-.1 0 0zm4.8 5c.2-.3.5-.5.7-.8.1-.1.1-.1.2 0 .1 0 .1.1 0 .1l-.1.1c-.4.4-.8.9-1.3 1.3-.3.4-.7.7-1 1.1l-.1.1-.1-.1c-.1 0-.1-.1 0-.1l.9-.9.8-.8zm-2.9 3 .7-.7c.1-.1.1-.1.3 0v.1c-.4.4-.7.8-1.1 1.1l-.6.6-.4.4s0 .1-.1 0l-.1-.1v-.1l.7-.7c.1-.2.3-.4.6-.6zm-4.6-.4.8.8c.1.1.1.2.1.3 0 .1 0 .1-.1 0-.2-.1-.3-.3-.5-.5l-1-1-.5-.5s-.1-.1 0-.1v-.2l-.3-.3s-.1 0 0-.1h.1l.8.8c.1.3.3.5.6.8zm-.8-11c.2-.2.4-.5.7-.7.1-.1.1-.1.2 0 0 0 .1.1 0 .1l-.6.6c-.3.3-.6.5-.8.8-.3.4-.7.7-1 1h-.1c-.1 0-.1-.1-.1-.1v-.1l1.1-1.1c.2-.1.4-.3.6-.5zm-3.2 3.5c0 .1 0 .1 0 0-.3.4-.7.7-1 1-.1.1-.1.1-.2 0v-.1l1.2-1.2.9-.9c.1-.1.1-.1.2 0v.1c-.4.4-.7.8-1.1 1.1zm12.2 1.3.2-.2c.1-.1.1-.1.3 0 .1 0 0 .1 0 .1-.1 0 0 .1 0 .1l.4.4c.1.1.1.1 0 .1-.2.1-.5.2-.7.3h-.1l-.4-.4c-.1 0 0-.1 0-.1l.3-.3zm1.9.3c-.1 0-.1-.2-.2 0 0 .1-.1.1 0 .1v.1s0 .1-.1 0c-.1 0-.1-.1-.2-.1s0-.1-.1-.1v-.1c0-.1 0-.2.1-.2 0-.1 0-.1.1-.1 0-.1.1-.2.1-.3 0-.1.1-.2.1-.3.1 0 .1 0 .1-.1h.1l.1.1h.1c.1 0 .1.1.2.2-.1.1 0 .1 0 .1s.1 0 0 .1c-.1 0-.1.2-.2.2s0 .1-.1.1c0 .1 0 .1-.1.1.1.1-.1.1 0 .2zm-8.5-1c-.1 0-.1-.1-.1-.1v-.1s.1 0 0-.1c0-.2 0-.2-.2-.2h-.2l-.5-.5v-.1l.4-.4h.1c.1.2.3.3.4.4v.4c0 .1-.1.1 0 .2.1.2.1.3.1.5zm2.9-1.6-.9-.9s-.1-.1 0-.1c.1-.1.1-.1 0-.2 0 0-.1 0 0-.1h.1c.1.1.2.1.2.2l1.1 1.1c.2.2.3.4.5.6l.2.2s.1 0 0 .1h-.1l-.1-.1s-.1-.1-.1 0-.1.1-.2 0c-.1-.2-.4-.5-.7-.8zm-1.3-3.6c-.1 0-.1 0 0 0 0-.1-.1-.2-.1-.2l-.1-.1-.1-.1c0-.1-.1 0-.1-.1v-.1h.1c.1 0 .1-.1.2-.1.1-.1.2-.1.2-.2 0 0 .1-.1.2-.1 0 0 .1 0 .1-.1 0 0 .1-.1.2 0-.1-.1 0-.1 0-.1h.1s.2.1.1.1v.3c0-.1.1-.1.1 0V16.2h-.1s0 .1-.1.1v.2c0-.1-.1 0-.1 0-.1 0-.1 0-.1.1v.2c0 .1-.1.1-.1 0h-.1c-.3-.2-.4-.2-.3-.1zm10.3-5.3s.1.1.1.2c0 0 .1.1 0 .1h-.1l-.1.1c-.1.1-.1.1-.1.2v.1s-.1 0-.1-.1 0 0-.1 0h-.1c-.1.1-.2.2-.4.3 0 0 0 .1-.1 0 0 0-.1 0-.1-.1s0-.1-.1-.1-.1-.1-.1-.2c.1-.1.2-.2.3-.4v-.2h.2l.3-.3c0-.1 0-.1.1 0l.4.4zm-6.4 9.3s-.1 0 0 0c-.1-.1-.1-.1-.2-.1V20.9s0 .1-.1 0-.1-.1-.2.1v.1c0 .1 0 .1-.1.1s-.1 0-.1.1v.2s0 .1-.1.1-.1-.1-.1-.1v-.1l.2-.2c.3-.3.5-.5.7-.8.2-.3.4-.6.6-1 0-.1.1-.1.1 0l.3.3v.1l-.1-.1h-.2V20c-.1.1-.1 0-.1 0-.1 0-.1 0-.1.1v.1s0 .1-.1 0c-.1 0-.1.1-.2 0V20.5h-.2v.2zm-4.1-6.5c-.2.3-.5.5-.8.8h-.1c0-.1-.1-.1-.2-.2-.1 0 0-.1 0-.1.3-.2.5-.4.8-.6.3-.3.6-.5.9-.8 0 0 .1-.1.1 0 .1.1 0 .1 0 .1-.2.3-.4.6-.7.8zm3.4 8.9c-.2.3-.5.5-.7.8-.1.1-.1 0-.1 0-.1-.2-.2-.3-.4-.4-.1-.1-.2-.2-.4-.2.1-.1 1.2-.2 1.6-.2zm-2.9-7.9v.2l-.2.2c-.1 0-.2.2-.3.2l-.1.1c-.1.1-.2.1-.3.2 0 0-.1.1-.1 0s-.1-.1-.1-.2h-.1s-.1 0 0 0l.1-.1c.1.1 0 0 .1 0 .1.1.1.1.3-.1-.1 0-.1-.1-.1-.1v-.1s0-.1.1 0v-.1c.1 0 .1-.1.1-.1 0-.1.1-.1.1-.1H22.9c.1-.1.1 0 .1 0 .1-.1.1-.1.1 0 .1 0 .1 0 0 0 .1.1 0 0 0 0zm1.9 7.2c.1 0 .1 0 0 0h.4c.3-.1.5-.1.7.1v.1c-.1.1-.1.2-.2.2 0 .1-.1.1-.1.1H24.9l.2-.2c.1-.1.1-.1 0-.2 0 0 0-.1-.1-.1zm5 .8c.1 0 .1-.1 0 0 .3-.2.4-.4.6-.6l.6-.6c.1-.1.2-.3.4-.4h.1v.1c-.2.2-.3.4-.5.6-.2.2-.4.5-.6.7-.1.2-.3.3-.4.5h-.1c.1-.1 0-.2-.1-.3.1-.1.2-.2.2-.3 0 .1-.1.2-.2.3zm-10.1 4.6c-.1 0-.1 0 0 0-.1.1-.1.1-.1 0v-.1l.1.1c.1-.3.3-.5.5-.7l.8-.8h.1v.1l-.1.1c.1 0 .1-.1.2-.1-.1.1-.1.2-.3.3-.1.1-.2.1-.2.2-.1.1-.1.2-.2.2l-.6.6c-.1.1-.1.2-.2.2 0 0 0 .1-.1 0 .1 0 .1 0 .1-.1v.1c-.1-.1 0-.1 0-.1zm2.4-.6c-.1.1-.3.3-.4.5l-.4.4c-.1.1-.3.3-.4.5l-.3.3v-.1c-.1 0-.1-.1-.1-.1v-.1l.6-.6.5-.5.3-.3-.5.5c.2-.2.4-.4.6-.5 0 .1-.1.1-.1.2.1 0 .1-.1.1-.1 0-.1 0-.1.1-.1-.1 0-.2.1-.2.1.1 0 .1 0 .2-.1zm6.6-4.5s0-.1 0 0c-.1 0-.1-.1-.1-.1 0-.1-.1-.1-.1-.1-.1 0-.1-.1-.2-.1 0 0-.1-.1 0-.2.2-.1.3-.3.4-.5l.3-.3s.1-.1.1 0 .1.1.1.1h.1v.1c-.1 0 0 .2-.2.2v.1c0 .1-.1.1-.1.2h-.1v.1s0 .1-.1.1c0 0 .1 0 0 .1.1.1 0 .2-.1.3zm-10.8.5c0 .1 0 .1 0 0-.3.3-.5.6-.8.8v.1l-.6.6s0 .1-.1 0v-.1s.1 0 .1-.1l-.1.1v-.1h-.1v-.1l.3-.3c.1-.1.3-.2.4-.4-.1 0-.1.1-.2.2l.6-.6c.1-.1.3-.2.4-.4 0 0 .1 0 .1-.1l-.2.2c.1-.1.2-.1.3-.2l-.1.1c.1 0 .1-.1.2-.1-.1.1-.1.1-.2.1v.3H18c.1.1.1 0 .1 0zm2.5 4.9s-.1 0 0 0c-.1.1-.2.1-.2.2-.1 0-.1-.1-.1-.2l.6-.6.3-.3.1-.1c.1-.1.3-.2.4-.4v.1s-.1 0-.1.1l.1-.1c-.1 0-.1.1-.2.1.1 0 .1-.1.2-.1h.1v.1l-.3.3-.9.9c0 .1-.1.2-.2.2h-.1v-.1c.1 0 .2 0 .3-.1zm.5-12.3-.5.5s0 .1-.1 0l-.1-.1s0-.1.1-.1c.1-.2.3-.3.4-.5.1-.1.1-.2.2-.2v-.1l-.1-.1v-.1l.3-.3h.1l.2.2c.1 0 .1.1 0 .1-.2.4-.4.5-.5.7zm2.5 1.9h.1c.1 0 .1 0 .2-.1v-.1h.4s.1 0 0-.1v-.2H24.6V17s-.1 0 0-.1H24.9s.1 0 .1-.1v-.1h.1l.2.2v.1c-.1.1-.2.1-.3.2-.4.3-.9.6-1.3.9 0-.1 0-.1-.1-.2h.3c-.2 0-.2-.1-.3-.2.1 0 .1 0 0 0zm-2.5 8.6L20 27.4c-.1.1-.2.2-.3.4h-.1v-.1l.1-.1.1-.1c-.1 0-.1.1-.2.1 0 0 0 .1-.1.1v-.1s-.1.1-.1 0v-.1l.2-.2c.3-.4.7-.8 1.1-1.1l.2-.2-.3.3v.1c.1 0 0 0 0 .1l.1-.1.2-.2h.1c.2 0 .1 0 .1.1zm8.2-2.3.5-.5c.1-.1.1-.1.2 0l.1.1c.1 0 .1.1 0 .1l-.3.3h-.1c0-.1-.1 0-.1 0-.2.2-.4.4-.5.6-.1.1-.1.1-.3 0v-.1c.1-.2.3-.3.5-.5zm-7.5-6.6-.1-.1v-.1l.3-.6c0-.1.1-.1.1 0l.2.2.2.2v.1h-.1c-.1 0-.1 0-.2.1v.1s0 .1-.1.1c0 0-.1 0-.1.1v.1c0 .1 0 .1-.1.1 0-.1 0-.2-.1-.3 0 .1 0 0 0 0zm-8.7 10.2-.3-.3h.1l.1.1 1.3 1.3 1.6 1.6 1 1 .8.8.3.3v.1h-.1l-.2-.2c-.3-.3-.7-.6-1-1l-2-2-.5-.5-.5-.5-.5-.5s0-.1-.1-.2zm5.4-1.6-.6.6-.1.1c-.1 0-.1 0-.1-.1 0 0 0-.1-.1-.1h-.1l-.3-.3v-.1h.1l.3.3s.1.1.2.1h.1c.1-.1.2-.2.3-.2l1.3-1.3c.1-.1.1-.2 0-.3l-.3-.3c-.1-.1 0-.1 0-.1 0-.1.1 0 .1 0l.3.3c.1.1.1.3 0 .4-.4.3-.8.6-1.1 1zm-1.9-1.8c-.1 0-.1.1-.2.2l.3-.3c-.2 0-.2.2-.4.3l.2-.2c-.1.1-.1.1-.2.1.4-.4.8-.8 1.2-1.1.1-.1.3-.3.5-.4l-.3.3.2-.2h.1l-.2.2.2-.2h.1v.1l-.2.2.1-.1c-.1.1-.2.1-.3.3-.1 0-.1.1-.1.1-.1.1-.2.2-.2.3l-.4.4s-.1 0-.1.1c-.2-.1-.3 0-.3-.1 0 .1 0 0 0 0s0 .1-.1.1c0 0 .1 0 .1-.1zm8.1-1.2h-.5c-.2 0-.4 0-.5-.2-.2-.2-.2-.2 0-.3.2-.1.3-.2.5-.1v.1c-.1 0 0 .1 0 .1.1.1.2.2.3.2h.1c0-.1.1 0 .1 0-.1.1 0 .2 0 .2zm-3.2 3.5s.1 0 0 0c0 .1-.1.2-.2.2.2 0 .2-.1.2-.2 0 .1 0 .2-.1.2l.1-.1h.1v.1c-.1.1-.2.3-.4.4l-1 1V28c-.1 0-.2 0-.2.1l.1-.1-.1.1s.1-.1.1 0c-.1.1-.1.1-.2 0V28c.2-.1.3-.3.5-.5 0 0 0-.1.1-.1l.3-.3V27c.1-.1.2-.3.4-.4.1 0 .2-.1.3-.1l-.3.3.3-.3zm-2.3-5.9.3-.3s.1-.1.1 0c.1 0 .1.1.2.1v.1c-.1.1-.1.2 0 .3v.1c-.1.1-.2.3-.4.4h-.1L19 21v-.1c0-.1.1-.2.2-.3zM30 17.5l-.6-.6-.7-.7v-.1h.1l.2.2.9.9.7.7.8.8s.1 0 0 .1c0 .1-.1 0-.1 0l-.4-.4-.9-.9zm-12.3 5.1c-.5.6-1 1.1-1.5 1.6l.4-.4c-.1.1-.3.2-.4.3h-.1V24c0-.1.1-.1.2-.1-.1 0-.1.1-.2.1l.2-.2c-.1.1-.2.2-.3.2.1-.1.2-.3.4-.4h-.1l.6-.6-.2.2c.2-.3.5-.6.8-.8 0 .1-.1.1-.1.2l.1-.1c.1.1.1.1.2.1-.1 0-.2.1-.2.1l-.2.2c.1 0 .3-.2.4-.3zm9.2-3c0 .1 0 .1-.1.1-.1.2-.2.4-.4.5-.1.2-.3.4-.4.5 0 0-.1.1-.1 0s-.1-.1-.2-.2c-.1 0 0-.1 0-.1.1-.1.1-.1.2 0h.2c.1-.1.2-.2.2-.3.1-.2.1-.2-.1-.4v-.1l.2-.2c.1-.1.1-.1.3 0 0 .2.1.3.2.2zm-5 7.4h.2c-.1.2-.2.3-.4.4.1-.1.2-.3.4-.3l-1.5 1.5c0-.1.1-.2.2-.2-.1.1-.1.1-.2.1.1.1 0 .1 0 .1s-.1 0-.1-.1c0 0 0-.1.1-.1h.1c.1-.1.2-.2.3-.4l-.1.1-.1.1c.2-.5.7-.9 1.1-1.2-.1 0-.1 0-.1.1l.2-.2-.1.1c.1 0 0 0 0 0zm2.3-7.3c-.1 0-.1-.1-.2-.2v-.1l.4-.4h.1c.1.1.3.2.4.4v.1c-.1.1-.2.3-.4.4h-.1c-.1-.1-.1-.2-.2-.2zm.5.5-.2-.2v-.1l.4-.4h.1l.4.4v.1c-.1.1-.2.3-.4.4h-.1c0-.1-.1-.2-.2-.2zm-2.3 7s-.1 0-.1-.1c-.1-.1-.1-.2-.2-.3l-.2-.2-.5-.5.8.8-.9-.9c.1 0 .1.1.1.1s0-.1-.1-.1v-.1h.1c.1.1.2.2.4.3l.8.8c.1 0 .1.1.2.2l-.1-.1c.1.1.2.2.3.4-.1 0-.1-.1-.1-.1l.1.1s0 .1.1.1c0 0 0 .1-.1 0s-.2-.1-.2-.2l-.3-.3c-.2 0-.2 0-.1.1zm-4.8-2.1c-.1.1-.2.2-.3.2h-.1v-.1c0-.1.1-.1.2-.1.2-.2.4-.4.6-.7l.3-.3-.4.4.3-.3c-.1 0-.1.1-.1.1l.4-.4-.2.2.4-.4-.2.2.2-.2h.1l-.1.1c.1 0 .1-.1.2-.1l-.2.2h.1l-.7.7-.6.6s0 .1-.1 0v-.1c.1.1.1.1.2 0zm-.2.6-.3-.3c0 .1.1.1.1.2l-.4-.4c.1 0 .1.1.2.2-.1-.1-.2-.2-.4-.3-.1 0-.2-.1-.3-.2-.2-.2-.3-.4-.5-.5l-.1-.1.3.3-.3-.3v-.1h.1c.1.1.3.2.4.4l.2.2c.1.1.1.2.2.2l.5.5c.2 0 .3.1.3.2 0-.1 0-.2-.1-.2 0 .1.1.1.1.2-.1-.1-.1-.2-.2-.3 0 .2.1.2.2.3zm2.2 2 1.5 1.5H21c0 .1.1.1.1.1-.1-.1-.2-.2-.3-.2 0 0 0 .1.1.1l.2.2v.1l-.1-.1c-.2-.1-.3-.3-.5-.5-.3-.2-.5-.5-.8-.7 0 0-.1-.1-.1-.2.1 0 .1.1.2.2l-.3-.3.5.5c-.1-.1-.2-.3-.4-.4 0 0-.1-.1-.1-.2h.1c-.1-.1-.1-.1 0-.1l.3.3-.3-.3zm2.4 4c0 .1-.1.1-.2.2s-.1.1-.3 0c0 0-.1-.1 0-.1l.8-.8c.1-.1.1-.1.3 0 0 0 .1.1 0 .1-.1.1-.3.4-.6.6zm2.7-14.2v.1l.1.1v.1l-.2.2c-.1.1-.1.1-.3 0 0 0 0-.1-.1-.1s-.2 0-.3.1c-.2.1-.3.2-.1.4v.1l-.1.1c-.1.1-.1.1-.2 0-.2-.2-.2-.2 0-.4.2-.1.4-.3.6-.4.3-.1.5-.2.6-.3zm-11.9 7.1c.1-.1.2-.2.2-.3h.1l.3.3v.1c-.1.1-.1.2-.3.2l-.1.1c0 .1-.1.2-.2.2h-.1l-.2-.2v-.1l.3-.3zM25 19.3l-.4-.4-.4-.4c-.1-.1-.2-.2-.2-.3 0 0-.1-.1 0-.1.1-.1.2-.1.3-.1.1 0 .1.1.2.1v.1l-.1.1c-.1.1-.1.1 0 .2l.9.9c.2.2.4.4.5.6.1.1.1.1.2 0l.1-.1s.1-.1.1 0c.1 0 .2.1.1.2 0 .1-.1.2-.1.3 0 .1-.1.1-.2 0 0 0-.1 0-.1-.1-.2-.3-.5-.7-.9-1zm-11.5 6.1c-.2.2-.2.2-.4 0-.1-.1-.2-.1 0-.3l.2-.2c.1-.1.1-.2.2-.2h.1l.2.2v.1c-.1.2-.2.3-.3.4zm10.4-7.2c0 .1.1.2.2.2l.8.8.6.6.6.6v.1H26l-.3-.3-1.6-1.6c-.1-.1-.1-.2-.2-.2v-.2zm-10 4.9s0 .1 0 0l-.4.4c-.1.1-.1.1-.2 0v-.1l.3-.3.6-.6s0-.1.1 0c.1 0 .1.1.1.2-.2.1-.4.3-.5.4zm7.3 8.4.5.5v.1c-.1.1-.1 0-.1 0-.3-.3-.6-.6-1-.9l-.5-.5c-.1-.1 0-.1 0-.1h.1c.3.2.6.6 1 .9zm1.8-2-.1.1s.1.1 0 .1h.1s0 .1-.1.1c0 .1-.1.1-.2.2v.1s-.1 0-.1.1h-.1c0 .1-.1.1-.1.1 0 .1-.1.1-.1.2 0 0 0-.1-.1-.1v-.1s0-.1.1-.1.1-.1.1-.1.1 0 .1-.1 0-.1.1-.1c0-.1 0-.1.1-.1s.1-.1.1-.1c0-.1.1-.2.2-.2 0-.1 0-.1.1-.1 0-.1.1-.1.1-.2h.1s0 .1.1.1h.1c-.1 0-.1.1-.1.1 0 .1-.1 0-.1.1 0 0-.1 0-.1-.1-.1.1-.1 0-.2.1zm5.6-10.2.5.5.3.3s.1 0 0 .1-.2 0-.3 0c0-.2-.1-.2-.2-.3l-.6-.6c-.1-.1-.1-.2-.1-.3h.1l.3.3zm-14.8 5.1-.7-.7s-.1 0 0-.1c0 0 .1-.1.1 0l.1.1.5.5.8.8v.1c0 .1-.1.1-.1 0l-.7-.7zm7.8 6.4-.2-.2s-.1-.1 0-.1l.2-.2h.1l.2.2s0 .1-.1.1c0 0 0 .1-.1.1v.1h.1l.1-.1c.1-.1.1-.1.2 0l.1.1v.1c-.2-.1-.2 0-.3.1h-.1l-.2-.2zm-3.8-8.4c-.1 0-.1 0 0 0l-.1-.1.1.1c.1 0 .1 0 .2.1l.5.5c-.2-.3-.5-.5-.8-.8.1.1.1.1.1.2.3.1.6.4.8.6.1.1.2.3.3.4l.3.3v.1c-.1-.1-.1-.1-.2-.1 0 .1.1.1.1.2l-.1-.1c0 .1.1.1.1.2l-.1-.1c-.1-.1-.2-.1-.2-.2l-.5-.5.2.2c0-.1-.1-.1-.2-.2l-.5-.5c0-.1-.1-.2 0-.3-.1 0-.1 0 0 0zm4.8 5.3c-.2.2-.3.3-.5.4.1 0 .1 0 .1-.1l-1 1 .3-.3-.3.3h-.1v-.1l.4-.4c.2-.2.4-.4.7-.6.1-.1.2-.1.2-.2.1-.1.1-.2.2-.2h.1c-.1.1-.2.1-.2.2.1-.1.1-.1.2-.1h.1c-.1.1-.2.1-.2.1 0-.1.1-.1 0-.1l-.2.2c.1 0 .1 0 .2-.1zM20.5 30c-.3.3-.6.6-.8.9-.2.2-.4.4-.5.6-.3.4-.7.7-1 1.1 0 0 0 .1-.1 0v-.1c.2-.2.5-.4.7-.7l.5-.5c.2-.3.5-.5.7-.8l.6-.6c.2-.2.4-.4.6-.7v.2c-.2.2-.5.4-.7.6zm-6.1-4.5c0 .1-.1.1 0 0-.6.6-1.1 1.1-1.7 1.6 0 0 0 .1-.1 0V27l.3-.3.8-.8c.3-.4.7-.7 1-1.1.2-.2.3-.3.5-.4l.5-.5v.1s0 .1-.1.1v.1c-.1.1-.2.2-.3.2-.2.4-.6.8-.9 1.1zm6.7-5.6c-.1-.1-.1-.1 0-.1l.1-.1c0-.1.1-.1.1-.2.2-.3.5-.5.7-.8l.2-.2s.1-.1.1 0c0 0 .1.1 0 .2l-.3.3-.8.8s0 .1-.1.1zm4.8 1.9c.2.2.4.4.7.6 0 0 .1.1 0 .1h-.1l-.3-.3c-.3-.3-.7-.6-1-1 0 0-.1 0 0-.1 0 0 .1-.1.1 0 .2.3.4.5.6.7zm-11.8 5.5c-.1-.1-.1-.3 0-.4.1-.1.3-.1.4 0 .1.1.2.3 0 .5 0 0-.2 0-.4-.1zm8.4-1.6c-.1 0-.1 0 0 0-.1.1 0 .1 0 0 0 .1 0 .1 0 0l.2.2v.1h-.1l-.2-.2-.6-.6v-.1c.1 0 .2-.1.2-.1l.1-.1c.1.3.2.5.4.8zm-3.4-3L18 21.6l-.2-.2s-.1-.1 0-.1h.1l.5.5.9.9.6.6s.1 0 0 .1h-.1l-.7-.7zm3-5.4c.1 0 .1 0 0 0 .1.1.1.2.2.2 0 0 .1.1.1 0h.1c.1.1.1.2 0 .3 0 0-.1.1 0 .1l.1.1c.1-.1.1 0 .2 0s.1 0 .1.1.1.1.1.2c0 0 .1.1 0 .1v.1h.1s0 .1-.1 0h-.2v-.1c0 .1.1 0 .1 0 .1 0 0-.1 0-.1-.1-.1-.1-.1-.2 0h-.1s-.1-.1-.1 0h-.1l-.1-.1V18l-.1-.1s-.1-.1-.1 0c-.1.1-.1-.1-.2-.1 0-.1.1-.1.1-.2.1-.2.2-.2.1-.3zm3.6-4.7c-.1-.1-.2-.2-.2-.3 0 0-.1-.1 0-.1v-.1h-.2c-.1 0-.2-.1-.3-.1v-.1h.1l.1.1 1.2 1.2c.1.1.1.1 0 .2 0 0 .1-.1 0-.1h-.1c0 .1 0 0-.1 0l-.2-.2v-.2h-.1c0 .1 0 0-.1 0 .1-.1 0-.2-.1-.3h.1c0-.1 0-.1-.1 0 0-.1 0-.1 0 0 0-.1 0 0 0 0zm-3.4 13.3c-.2-.2-.4-.3-.5-.5 0 0-.1 0 0-.1h.1l.4.4c.3.2.5.5.8.7l.9.9s.1 0 0 .1h-.1c-.2-.2-.4-.4-.6-.5l-1-1zm5.1-11c.3.2.5.5.7.7 0 0 .1 0 0 .1H28l-.6-.6-.9-.9-.4-.4v-.1h.1l.2.2c.3.3.7.6 1 1zm4.5 3.6c.2.1.3.2.4.4l.7.7.3.3v.1s0 .1-.1.1v-.2H33l-.1-.1s-.1-.1-.1-.2h-.1s0 .1-.1.1l-.2-.2v-.2h-.2l-.2-.2s-.1 0 0-.1v-.1h-.1l-.3-.3c.3 0 .3 0 .3-.1zm-2.7-3 .2-.2h.1c.2.1.2.2.1.3 0 0 0 .1-.1.1-.1.3-.3.3-.5.1v-.1l.2-.2zm-2.5 2.7c-.2-.2-.4-.4-.7-.6-.1-.1-.2-.2-.4-.3v-.1h.2l.7.7.7.7s.1.1 0 .1h-.1c-.1-.2-.3-.3-.4-.5zm-6 6.1c-.3-.3-.6-.5-.8-.8v-.1h.1l.6.6.8.8.4.4v.1h-.1l-1-1zm10.2-6.2c.2.2.4.3.5.5 0 0 .1 0 0 .1h-.1l-.8-.8c-.4-.3-.7-.7-1.1-1l-.8-.8s-.1 0 0-.1h.1l.3.3.7.7c.5.4.8.8 1.2 1.1zm-1.8 2.4.3.3s.1 0 0 .1h-.1s-.1 0-.1-.1c-.2-.2-.4-.4-.7-.6l-.7-.7-.4-.4s-.1 0 0-.1h.1l.6.6c.2.1.3.3.4.4.3.1.4.3.6.5zm-.4-.8.5.5c.1.1.1.1 0 .2l-.1.1H29v-.1c0-.1-.1-.2-.2-.1h-.1l-.1-.1c-.1-.1-.1-.1-.1-.2s-.1-.2-.1-.1h-.1l-.1-.1v-.1c0-.2 0-.2-.2-.2h.2c.1-.1.3 0 .5.2zm-8.2 12.2-.1.1h-.1l-.2-.2v-.1l.3-.3h.1l.2.2v.1l-.2.2zm-3.6-11.1c0 .1 0 .1 0 0-.1.1 0 .2-.1.2 0 0-.1 0-.1.1s-.1.1-.2.2c0 .1-.1 0-.2 0-.1-.1 0-.2 0-.2 0-.1.1-.1.1-.2s.1-.1.1-.2h.2c.1.1.1.1.2.1zm11.4 3.5s.1 0 0 0c.2.1.3.3.5.4 0 0 .1.1 0 .1 0 0-.1.1-.1 0l-.9-.9s-.1-.1 0-.1c0 0 .1-.1.1 0 .1.2.3.3.4.5zm-.1-4.4c-.3-.3-.6-.6-.9-.8 0 0-.1-.1 0-.1h.1c.3.3.6.6.8.9.2.1.4.3.6.5l.5.5s.1 0 0 .1h-.1l-.1-.1c-.3-.4-.6-.7-.9-1zm-1.6 2.8s-.1-.1 0-.1c.1-.1.1 0 .2 0 .2.2.4.3.6.5.1.1.3.2.4.3 0 0 .1 0 0 .1h-.2c-.4-.2-.7-.5-1-.8zm-13.6 5 .3.3v.1l-.1.1s-.1 0-.1-.1l-.6-.6c-.1-.1 0-.1 0-.1s.1-.1.1 0c.2.1.3.2.4.3zM29.8 23c.1-.1.1-.1.2-.1v-.1c0-.1.1 0 .1 0v-.1c.1 0 0-.1.1-.1l.2-.2v.1s0-.1.1 0v.2c.1 0 0 .1 0 .1 0 .1-.1.1-.2.1s-.1 0-.1.1v.2c0-.2-.1-.2-.2-.1 0 0 0 .1-.1 0l-.1-.1c.1 0 .1 0 0 0zm-15.1-.6.1-.1h.1l.1-.1v-.1c0-.1 0-.1.1-.1 0-.1 0-.1.1-.1.1-.1.1-.1.2 0v.1s0 .1-.1 0h-.1c0 .1.1 0 .1 0s-.1 0-.1.1c-.1.1-.1.2-.3.2-.1 0-.1.1-.1.1-.1.1-.1.1-.1 0l-.1-.1h.1c-.1.1 0 .1 0 .1 0 .1.1.1.1 0h-.1zm12.5-3.3v.2c-.2.3-.4.6-.6 1-.1.1-.2.3-.3.4l-.4.4-.3.3h-.1v-.1l.2-.2c.2-.3.5-.5.7-.8.1-.2.3-.4.4-.6.2-.2.3-.4.4-.6zm1 3-.5.5-.4.4h-.1v-.1l.2-.2 1.5-1.5.2-.2h.1v.1l-1 1zm-3.5-5.6-.6-.6v-.1h.1l.2.2c.3.3.6.6 1 .9 0 0 .1 0 0 .1h-.1c-.2-.2-.4-.4-.6-.5zm2.2 2.6.1-.1c.1-.1.1-.1.2 0 0 .1.1.1 0 .2s-.2.3-.2.4l-.2-.2v-.1c0-.1 0-.2.1-.2zm-11.7 3.2.1-.1h.1v.1c0 .1-.1.1-.2.2 0 .1-.1.1-.1.1h-.2s0 .1-.1.1c0 0-.1 0-.1.1 0 0 0 .1-.1.1 0 .1-.1.1-.1.2l-.3.3h-.1v-.1l.1-.1c.3-.2.7-.5 1-.9zm2-1.9.5.5s.1 0 0 .1c0 0-.1.1-.1 0l-.3-.3-.6-.6V20h.1c.1.1.2.3.4.4zm3.9 10 .5-.5.8-.8.6-.6.9-.9s0-.1 0 0v.1l-.4.4-1.2 1.2c-.4.4-.7.8-1.1 1.1h-.1zm11-12.5c-.8-.7-1.6-1.5-2.4-2.3.9.7 1.7 1.5 2.4 2.3zM21.5 30.8c.1.1.2.1.2.2v.1c-.1.1-.2 0-.3 0-.1-.1-.2-.3-.2-.5 0-.1.1-.1.1 0l.2.2zm4.7-17.2c.1 0 .1.1 0 0 .3.2.5.4.7.6l.9.9.4.4s.1 0 0 .1h-.1c-.3-.2-.5-.5-.8-.7l-.9-.9c0-.2-.1-.3-.2-.4zm-2 2.8c0-.1 0-.1 0 0h.1c.1 0 .1.1.1.1 0 .1.1.2.2.2s.1 0 .1.1-.1.1-.2.1-.1 0-.2.1c0 0 0 .1-.1 0l-.1-.1c0-.1-.1-.2-.2-.2s0 0 0-.1c.2-.1.2-.2.3-.2zM18.8 19c0 .1-.1.1-.1.1V18.8c0-.1 0-.2.1-.2 0 0 .1-.1.1 0h.1s.1 0 .1-.1h.1c0 .1 0 .1-.1.1.1 0 .1.1 0 .1v.1c-.1 0-.1 0-.1.1-.1.1-.2.1-.2.1zm3.6-4.4c.1 0 .1.1.1.2v-.1c.1 0 .1.1 0 .1-.1.1-.2.1-.2.2-.1 0 0 0-.1.1h-.1c0 .1-.1.1-.1.1-.1 0-.1 0-.1.1 0 0 0-.1-.1-.1s-.1-.1-.1-.1h.1c.1-.1.2-.1.2-.1 0-.1.1-.1.2 0h.1v-.2c0-.1 0-.1.1-.2 0 .1-.1.1 0 0 0 .1 0 .1 0 0zm-1.7 2.3c-.2-.1-.3-.3-.4-.4 0 0-.1-.1 0-.1h.1l.1.1.8.8s.1 0 0 .1h-.1c-.2-.3-.4-.4-.5-.5zm7.4 1.9c.1 0 .1-.1.2 0 .4.4.8.9 1.3 1.3v.2l-.1-.1c0-.1-.1-.1-.1-.1-.4-.3-.7-.7-1.1-1 0-.2-.1-.3-.2-.3zm.1 2.1s0-.1 0 0c-.1 0-.2 0-.2.1 0 0 0 .1.1.1.1-.1.1-.1.1-.2h.2c0 .1 0 .1-.1.1 0-.1-.1-.1-.1 0s-.1.1-.1.1 0 .1-.1 0c0 0-.1 0-.1-.1s-.1-.2-.2-.2c0 0-.1 0-.1-.1.1 0 .1-.1.2-.1h.1s.1.1.1 0c0 0 .1 0 .1.1s.1.1.1.2zm-4.9-2.4c.1-.1.2-.2.4-.3l.9-.6c.2-.1.4-.2.5-.4h.1v.1c-.1.1-.2.2-.3.2-.3.2-.5.4-.8.6-.2.1-.4.2-.5.4l-.4.4s0 .1-.1 0v-.1c0-.1.1-.2.2-.3zm3.9 4.4c-.2-.2-.4-.4-.6-.5l-.3-.3-.6-.6v-.1h.1c.5.4.9.9 1.4 1.3-.1.2 0 .2 0 .2zm-.7-2.1s0 .1 0 0c.1.1.1.1 0 0 .1 0 .1 0 0 0 .1 0 .1-.1 0 0 .1-.1.1 0 .1 0 0 .1 0 .1.1.1 0 0 0 .1.1.1s.1 0 .1.1c0 0 0 .1.1.1l-.2.2v-.1l-.1-.2c-.1 0-.2-.1-.2-.1v-.2zm-3.8 8.9-.4.4s0 .1-.1 0V30l.6-.6.7-.7.2-.2s0-.1.1 0v.1l-.3.3c-.3.2-.6.5-.8.8zm-10.1-3.9.5.5s.1 0 0 .1H13c-.1 0-.1 0-.1-.1s0-.1-.1-.1h-.1c0-.1 0-.1-.1-.1s-.1 0-.1-.1 0-.1-.1-.1-.1 0-.1-.1-.1-.1-.1-.1c-.1 0-.1 0 0 0 0-.1 0-.1-.1-.1H12v-.2s-.1 0 0-.1h.1l.5.5zm12.7-8.3c-.1 0-.1 0 0 0-.2.2-.3.2-.4 0v-.1c.1-.1.2-.2.3-.2h.2c.1 0 .1 0 0 .1 0 0-.1.1-.1.2zm2.2 2.3s0-.1.1-.1l.1.1c0 .1.1.1.1.1h.1c.1 0 0 .1.1.1v.1l-.1.1v-.1c-.1 0-.1-.2-.2-.1-.1 0-.1-.1 0-.2-.1.1-.1 0-.2 0h.1c0-.1 0 0-.1 0 .1 0 .1 0 0 0zM18 27.1c.1 0 .1.1 0 0l.8.8-.5-.5-.9-.9-.3-.3v-.1l.1.1c.4.4.6.7.8.9zm8.5.4c-1.4 1.4-2.7 2.8-4.1 4.2 1.3-1.4 2.7-2.8 4.1-4.2zm1-6.8c0-.1.1-.1 0 0l.1-.1c-.1 0-.1-.1-.1-.1h-.1s-.2 0-.1-.1c0-.1.1-.2.1-.3 0 0-.1 0 0 .1h.2s.1.1.2.1 0 .2.1.2c-.2 0-.3.1-.4.2zm-4.8-3.9c0 .1 0 .1.1.2 0 0 .1.1.1 0 0 0 .1 0 .1.1v.2c0 .1-.1.1-.2.1h-.1v-.2s-.1 0-.1-.1h-.2l-.1-.1c0-.1.1-.1.1-.2.2.2.2.1.3 0zm5.8 8.3s0 .1 0 0c-.2.2-.2.2-.3.1v-.1l.3-.3c0-.1.1 0 .1 0 .1.1.1.1-.1.3.1 0 .1 0 0 0zm-1.6-4.5c.1.1.1.2.2.2s.1 0 .2.1v.1c0 .1-.1.1-.2.2 0-.1-.1-.2-.2-.2s-.1 0-.1-.1c-.1-.1 0-.2.1-.2-.1 0 0-.1 0-.1zM24 16.3l-.1.1h-.1c.1-.1 0-.1 0-.1l-.1-.1c-.1 0-.1 0-.1-.1V16h.1c.1.1.1 0 .1 0 .1 0 0-.1 0-.1s0 .1.1.1c0 0 0 .1.1 0 .1 0 .1 0 .1.1 0 0 .1.1-.1.2zm-.8.1s.1 0 0 0c.1.1.1.1.2.1 0 0 .1 0 .1.1v.2l-.2.2s0 .1-.1 0v-.1c0-.1 0-.1-.1-.1h-.2c-.1-.1-.1-.2 0-.3.2 0 .2-.1.3-.1 0 .1-.1.1-.1.1s-.1.1 0 .1h.1c.1 0 .1-.1 0-.2zm-1.1 1.8c-.1-.1-.2-.2-.3-.4-.1-.1-.1-.2-.2-.3v-.1h.1l.1.1c.2.2.3.4.5.6v.1c-.1.1-.2.1-.2 0zm5.1 2.2c.1 0 .1 0 0 0 .1.1.1.1.2.1h.1s.1.1 0 .1c.1.1 0 .1-.1.2 0 0-.1.1-.1 0s-.1-.1-.1-.1H27v-.1c.1 0 .1-.1 0-.2 0 0 .1.1.1 0s0-.1.1 0c-.1-.1-.1-.1-.1-.2v.1c.1 0 .1.1.1.1-.1.1-.2.1-.1.2 0 0 .1.1.1 0 .1-.1.1-.1 0-.2zm-2.2.3c.1 0 .1 0 0 0 .1-.1.2-.1.2-.1l.2.2v.1c0 .1 0 .1.1.1h.1v.1l-.1.1h-.1c-.1-.2-.3-.3-.4-.5zm-.1 7.4.3.3v.1h-.1c0-.1-.1-.2-.2-.4-.3-.1-.5-.3-.7-.6 0 0-.1 0 0-.1h.1c.2.3.4.5.6.7zM28 13.9s.1 0 0 0l.9.9s.1 0 0 0h-.1c-.1-.3-.4-.5-.8-.9-.3-.2-.6-.6-.9-.9 0 0-.1 0-.1-.1h.1c.3.4.6.7.9 1zm-1.9 9.2v-.3c0-.1.1-.1.1-.2s.1-.1 0-.2l-.2-.2v-.1c.1.1.2.2.4.3v.2h.1c-.2.2-.3.3-.4.5zm1.5-2.2c0-.1.1-.1.1 0h.1c.1 0 .1.1.1.1 0 .1.1.1.1.2v.1c-.1.1-.2.1-.2.2 0 0-.1-.1-.1-.2v-.1l-.1-.1s0-.1-.1 0c0-.1.1-.1.1-.2zm-3.8-1.5h.1l.3.3.7.7c.1.1.1.1.1.2l-1.2-1.2zm4.3 1c0-.1.1-.1 0 0h.2s.1 0 .1.1.1.1.2.1v.1c-.1-.1-.1 0-.1 0v-.1s0-.1-.1-.1-.1 0-.1.1v.1s.1 0 0 .1c0 0 0 .1-.1 0 0 0-.1-.1 0-.1v-.1s-.1-.1-.1 0H28v-.1c0-.1.1-.1.1-.1zm-13.6 2.4c0 .1 0 .2-.1.1 0 .1 0 .1-.1.1v.1l-.1.1-.1.1c-.1 0-.1-.1 0-.1 0 0-.1.1-.1 0l.3-.3.1-.1c.1 0 .1 0 .1-.1-.1.1-.1.1 0 .1-.1.1 0 0 0 0zM28.9 24l.4-.4v-.1h.1s.1 0 .1.1c-.1 0-.1.1-.1.1-.1 0-.1.1-.1.1-.1.2-.2.2-.3.3l-.1-.1zm-2-2.4c.1 0 .1-.1.1-.1 0-.1.1-.1.2-.1s.1.1.1.2l.1.1h.2v.1h-.2s0 .1-.1.1v-.1l-.1-.2-.1.1v.1H27l-.1-.1c.2 0 .2-.1 0-.1zm-13.4 6c-.2-.1-.3-.3-.4-.4v-.1l.3-.3c-.1.3 0 .5.1.8zm13.8-5.5s0-.1 0 0c0-.1-.1-.1 0 0-.1.1-.2 0-.2.1-.1 0-.2 0-.1-.1 0-.1-.1-.2-.2-.2 0 0-.1 0-.1-.1s.1-.1.1-.2h.1c.1 0 .2 0 .2.2l.1.1h.2c0 .1 0 .1-.1.2zm-7.2-5.3s-.1.1 0 0c-.2.2-.2.2-.3.1v-.1c.1-.1.2-.2.3-.4h.1l.1.1v.1l-.2.2zm2.7 2.2-.3-.3s-.1-.1 0-.1h.1l.6.6v.1h-.1c-.1-.2-.2-.2-.3-.3zm-2.5 11.6c0-.1 0-.1.1-.1l-.1.1c.1-.1.1 0 0 0 .1 0 .2.1.2 0h.1l.1.1c.1 0 .1.1 0 .1-.1.1 0 .1 0 .1h.2c0 .1.1.1.1.2h-.1s-.1 0-.1-.1c-.1 0-.1-.1-.2 0h-.1l-.2-.2c.2 0 .1-.1 0-.2zm4.5-14.3s0 .1 0 0l-.2-.2-.4-.4v-.1h.1l.7.7.5.5s.1 0 0 .1h-.1l-.6-.6zM23.4 29c.1-.1.1-.1.2 0l.2.2c.1.1.1.1 0 .2 0 0-.1.1-.1 0l-.1-.1c0-.1 0-.1-.1-.1h-.1s-.1 0-.1-.1l.1-.1c-.1 0 0 0 0 0zm-9.6-5s-.1 0 0 0c-.1 0 0 .1 0 0 0 0 0 .1 0 0 .1.1.1.1.2.1h.1s0 .1 0 0h.1s0 .1 0 0c0 0 .1 0 0 .1s0 .1 0 .2c0 0-.1 0 0-.1h-.1l-.1-.1c-.1 0-.1 0-.1-.1-.1.1-.1 0-.1-.1-.1 0-.1 0-.1-.1s0 .1-.1 0c0-.1-.1-.1-.2-.2 0 0 0 .1 0 0h.1c0 .1 0 .1.1.2.2 0 .2 0 .2.1-.1 0 0 0 0 0zm-.8 2.3c0 .1 0 .1 0 0l-.1.1-.9-.9v-.1h.1v.1c0 .1.1.1.1.1.1 0 .1 0 .1.1s.1.1.1.1.1 0 0 0c0 .1.1.2.1.1.1 0 .1 0 0 0 0 .1.1.1.1.1h.1c0 .1 0 .1.1.1 0 0 .1 0 0 0 0 .2.1.3.2.2zm10.8-7s-.1 0 0 0c-.1.1-.2.1-.2 0l-.3-.3c-.1-.1 0-.2.1-.2 0 0 .1 0 0 0 0 .1 0 .1.1.1.1.1.2.2.3.4zm2.2 2.4c-.1-.1-.1-.2.1-.2.1 0 0-.1 0-.1s-.1 0 0 0h.1v.1c0 .1.1.1.2.1l.1.1c0 .1 0 .2-.1.2h-.1l-.1-.1v-.1s.1 0 0-.1l-.1-.1s-.1 0-.1.1c0 0 .1 0 0 .1h.1-.1zm-7.6 10.2-.3.3H18l-.3-.3v-.1c.2.1.5.1.7.1zm9.2-10.3s.1-.1 0 0c.1-.1.1-.1 0-.2 0 0 0-.1-.1 0 0 0 0 .1.1.2l-.1.1-.1-.1c0-.1-.2-.2-.2-.2l.1-.1s.1-.1.2-.1h.2s.1.1 0 .2v.1s0 .1.1.1c0-.1-.1-.1-.2 0 .1 0 .1 0 0 0zm-7.4 3.9c.1-.1.2 0 .3 0 .1.1.3.2.4.4v.1h-.1l-.1-.1c-.2-.1-.3-.2-.5-.4zm-5.4 3.6 1.9 1.9c-.1-.1-.2-.1-.3-.2l-.2-.2-.7-.7c-.2-.2-.5-.4-.7-.7.1 0 0 0 0-.1zm3.8-6.4-.1.1c-.1.1-.1-.1-.1-.1v-.1l.3-.3h.1l-.1.1.1-.1-.1.1c.1 0 .1-.1.2-.1-.2.2-.2.2-.3.4.1-.1.2-.1.2-.2l-.3.3s0-.1.1-.1zm4.8-6.6v.1c0 .1 0 .2.1.2s.1 0 .1-.1c.1 0 .1 0 .1.1v.2c-.1 0-.1.1-.2.2h-.1v-.1c0-.1-.1-.2-.2-.2l-.1-.1c.2-.1.2-.2.3-.3zm2.2 1.1-.1.1-.7.7-.4.4h-.1v-.1l.1-.1c.3-.3.6-.6.8-.9.2.1.3 0 .4-.1zm-.8 5.8c-.1-.1-.2-.1-.2-.2v-.2l-.1-.1v-.1h.5l-.3.3c-.1.1-.1.1 0 .2 0 0 .1 0 .1.1zM21 31l-.1-.1-.3-.3s-.1 0 0-.1h.1c.1 0 .1.1.2.1.1.2.3.3.4.5.1.1.2.1.2.2v.1h-.1c-.1-.2-.2-.3-.4-.4zm1.3-13.6c.1.1.2 0 .2 0v-.1c-.1-.1-.1 0-.1 0-.1 0-.1.1-.1.1v-.2s.1-.1 0-.1v.2c.1 0 .1.2.2.1.1 0 0 .2.1.2l-.2.2c.1-.1 0-.1 0-.1l-.1-.1h-.1c.1-.1.1-.2.1-.2zm-5.9 7.5c0 .1-.1.1-.1.2-.1.1-.1.1-.2.1s-.1-.1-.2-.1V25c.1-.1.2-.2.3-.2.1-.1.1 0 .1 0v.1c-.1.1-.2.1-.3.2l.2-.2h.2c-.1 0-.1 0-.1.1 0 0 .1 0 .1-.1zm5.6 3.7c-.1.1-.2.3-.4.4h-.1v-.1l.6-.6.3-.3h.1v.1l-.5.5zm1 1.2s.1 0 0 0l.1-.1v.1l-.5.5c-.1.1-.1.2-.2.2h-.1v-.1c.3-.1.5-.3.7-.6zm-4-6.4.3-.3h.1v.1l-.1.1c.1 0 .1-.1.2-.1 0 .1-.1.1-.1.1l.1-.1c0 .1-.1.1-.1.1l.1-.1c-.1.1-.2.1-.2.2s-.1.1-.2.1v-.1s0 .1-.1 0v-.1c.1.1.1.2 0 .1 0 0 .1 0 0 0zm-2.2 6.9-.3-.3v-.1l.1.1v.1c0 .1 0 .1.1.1h.1c0-.1.1 0 0 .1.2 0 .2.1.3.2.1 0 0 .1 0 .1H17c0-.1-.1-.2-.2-.3zm9.8-8.6c0-.1-.1-.2-.2-.2s-.1 0-.1-.1c0 0 0-.1.1-.1 0 0 0-.1.1 0 0 0 0 .1-.1.1v.1s.1.1.1 0 .1-.1.2-.1c.1.1.1.2.1.2-.1 0-.2 0-.2.1zm-7.2 6.7.2-.2c0 .1 0 .1-.2.2 0 0 0 .1-.1.1s-.1-.1-.2-.1v-.1l.2-.2h.1c0 .1-.1.1-.2.2.1 0 .1-.1.1-.1s0-.1.1 0v.1h.1v.1c0-.2 0-.1-.1 0zm-.2-.4s0 .1 0 0c.1 0 .1-.1.2-.1-.1.1-.1.1-.2.1.1 0 .2 0 .2-.1h.1v.1l-.1.1c-.2.2-.2.2-.3 0l.3-.3-.1.1.1-.1h.1c-.2.1-.3.2-.3.2zm9.3-4c0 .1-.1.1-.2.1h-.1V24c.2 0 .2-.1.3 0 0-.1.1-.1.1-.2v-.1c.1 0 .1-.1.1-.1v-.1s.1 0 0-.1v.1h-.1s0 .1-.1.1v.1c.2.1.1.2 0 .3zm-9.6 8.4-.1-.1v-.1h.1v.2h.2c0 .1 0 .1.1.1 0 .1 0 .1.1.1h.1c0 .1 0 .1.1.1 0 .1 0 .1.1.1 0 0 .1 0 .1.1s0 .1.1.1h.1-.1c-.3 0-.6-.3-.9-.6zm3.7-5.7c.1 0 .1-.1.2-.1 0 0 0-.1.1 0v.1l-.2.2.2-.2h.1v.1l-.3.3h-.1V27h-.2v-.1l.3-.3h.1s-.1 0-.2.1zm-.6-.6c.1 0 .1-.1.2-.1h.1v.1l-.3.3h-.1v-.1c-.1 0-.1 0-.1-.1v-.1s0-.1.1-.1l.2-.2c0 .1-.1.1-.1.1s.1 0 .1-.1v.1c0 .1 0 .1-.1.2zm1.7-12.7.5.5v.1h-.1l-.1-.1s-.1 0 0-.1c0 0 0-.1-.1-.1s-.1 0-.1-.1l-.1-.1v-.1zm-2.2 17.8h.4v-.1c.1 0 .1-.1.1-.1h.1s.1 0 0 0v-.1s.1 0 .1-.1c0 0 0-.1.1 0v.1s0 .1-.1 0c0 .1-.1.2-.2.2 0 .1-.1.1-.1.2h-.2c-.1 0-.2 0-.2-.1zm1.5-4.4-.2.2c-.1.1-.1.1-.1 0-.1 0 0 0 0-.1l.3-.3h.1c-.1.1-.1.1-.1.2-.1 0-.2.1-.3.2.1-.1.2-.1.3-.2 0-.1.1-.1 0 0 .1 0 .2 0 0 0 0 .2-.1.3-.2.4 0 0 0 .1-.1 0v-.1h-.1c.2-.1.4-.1.4-.3zm-2.3-9.6c-.1.1-.1.1-.2.1l-.1.1c-.1 0-.1 0-.1.1 0 0 0-.1.1-.1 0-.1.1-.2.1-.3 0 0 .1 0 .1-.1-.1.1 0 .1.1.2-.1 0-.1.1 0 0-.1 0 0 0 0 0zm3.4-.5c.1 0 0 .1 0 .2H24l-.1.1c-.1 0-.1-.1-.2-.1-.1-.1-.1-.1 0-.2l.1-.1c.1 0 .2 0 .3.1zm-.9 1.3c-.1-.1-.1-.1-.1 0-.1 0-.1 0-.2-.1h-.2v-.1l.1-.1s.1-.1.1 0c.1 0 .2 0 .1.1l.2.2c0-.1 0-.1 0 0zm-3.5 10.8.2-.2s0-.1.1 0c0 0 .1 0 0 .1l-.2.2s0 .1-.1-.1c0 .1 0 0 0 0-.1 0-.1 0-.1-.1v-.1c.1-.1.1-.2.2-.2h.1c0 .1-.1.1-.1.1l.1-.1-.1.1c.1.2 0 .3-.1.3zm2.2-3.2c0 .1-.1.1-.1.2 0 0 .1-.1.1-.2 0 .1 0 .2-.1.3.1 0 .1-.1.1-.1 0-.1.1-.1 0-.2l.1.1-.2.2h.1l.2-.2-.3.3s0 .1-.1 0c0 0-.1 0 0-.1 0-.1.1-.2.2-.3zm-7.1-2.2c-.1 0-.1.1-.1.1 0 .1-.1.1-.1.2h-.1v-.1s.1 0 0 0c0 0 0-.1.1-.1s0 0 0-.1.1 0 .1-.1v-.1c0 .2 0 .2.1.2zm5.6 6c.1 0 .1-.1.2-.2 0 0 .1-.1.1 0v.1c-.1.1-.1.2-.2.3.1-.1.2-.2.2-.3h.1v.1l-.2.2c-.1.1-.1.1-.2 0s-.1-.1 0-.2c-.1 0-.1 0 0 0 0-.1.1-.1.2-.2-.1 0-.1.1-.2.2zm-3.8-6s-.1 0 0 0l-.3.3s0 .1-.1 0v-.1l.5-.5c.2-.1.3-.3.5-.4h.1v.1c-.3.1-.5.4-.7.6zm-1.2-1.6s-.1 0 0 0c-.1-.1 0-.1 0-.1.1 0 .2 0 .3.1.1 0 .1.1 0 .2l-.2.2s-.1.1-.1 0c0 0 0-.1.1-.1 0-.1 0-.2-.1-.3zm5.4 8.6s-.1 0 0 0c0-.1-.1-.2-.2-.2l.1-.1s.1 0 .1.1c.1 0 .1.1.1.1.1 0 0 .1 0 .1v.1c0 .1-.1 0-.1-.1-.1.1-.1 0 0 0zm-2.5-8.3-.3.3h-.1c-.1-.1-.1-.1 0-.2l.2-.2.1-.1c0 .1 0 .1-.1.1 0 0 .1-.1.2-.1-.1.1-.2.1-.2.2l.2-.2c0 .1-.1.1-.1.2s0 0 .1 0zm-1.7 3.1-.3.3h-.1v-.1l.1-.1c.1-.1.2-.1.3-.1-.2 0-.3.1-.4.2h-.1v-.1H16l.3-.3c-.1 0-.1.1-.1.2.1 0 .1-.1.1-.1.2 0 .3 0 .3.1 0-.1 0 0 0 0-.1.1-.2.1-.3.2v.1c.1-.2.2-.3.3-.3zm10.5-6.5c0 .1-1.1 1.3-1.2 1.3.4-.5.8-.9 1.2-1.3zm-4-1.2s.1-.1.1 0h.1l.1.1s0 .1-.1.1c-.1.1-.1.1-.2 0 0 0-.1-.1-.1 0 0-.1 0-.2.1-.2zm-8 11.1-.5-.5V28h.2c.1.1.2.2.4.3-.1.2 0 .2-.1.3zm2.3-2.7 2.1-2.1-2.1 2.1zm-2.9-1.6.2.2v.1h-.1L14 24v-.1h.1c.1.2.2.3.4.4zm13.6-.3s-.1 0-.1-.1l.1-.1h.1c0-.1.1-.1.1-.2l.4-.4c-.1.2-.3.4-.5.6h-.1v.2c0-.1 0-.1 0 0zm-9.7 3.5s0-.1 0 0c-.1-.1-.1-.1 0-.1.1-.1.1-.1 0 .1.1-.1.1-.1.1 0l.4.4s.1 0 0 .1h-.1l-.3-.3c0-.2 0-.2-.1-.2.1-.1.1-.1 0 0 0-.1.1-.1 0 0zm11-6.4c-.1 0-.1.1 0 0-.1.1-.1.2-.1.2v.1c-.1.1-.2.3-.4.4v-.2c.2-.2.3-.4.5-.5zm.7.1c-.1.1-.1.2-.2.2h-.1v-.1l.3-.3.2-.2h.1v.1l-.3.3zM19.8 32.9l-.2-.2c-.1-.1-.1-.2-.2-.2 0 0-.1-.1 0-.1h.1l.3.3v.2zm-1.2-10.6-.3.3h-.1l-.1-.1.3-.3c.1 0 .1 0 .2.1-.1 0-.2 0-.2.1.1-.1.1-.1.2-.1 0 0-.1 0 0 0-.1.1-.1 0 0 0zm5.9 6s.1.1 0 .1l-.1.1h-.1s-.1-.1 0-.1c-.1-.1 0-.1 0-.1h.2c-.1 0-.1 0 0 0zm.5-.9c0 .1 0 .2-.1.2v.2s.1 0 .1.1v.1h-.1l-.1-.1v-.1c0-.1.1-.1.1-.2 0-.2.1-.1.1-.2zm-3.9 3.9h.1s.1.1.1 0h.1c0 .1.1.1.1.2 0 0 .1 0 0 .1h-.1c.1 0 0 .1.1.1h-.1c-.1-.1-.2-.3-.3-.4-.1 0-.1 0 0 0-.1-.1 0-.1 0 0 0-.1 0 0 0 0zm-5.3-8.6c.1-.1.2-.2.4-.3v.1c-.1.1-.2.2-.4.2-.1.2-.2.3-.3.4V23l.3-.3zm6.4-1.5c-.1.1-.3.2-.4.3v-.2c.1-.1.3-.1.4-.1zm4.3.8.1-.1c.1 0 .1 0 .2.1 0 0 .1 0 .1.1v.1c-.1-.1-.1-.1-.1 0s-.1.1-.1 0-.1-.1-.2-.2zM21 16l.3-.3h.1s.1 0 0 .1v.2c-.1.1-.1.2-.3.1.1-.1 0-.1-.1-.1zm7.2 7.6c0 .1-.2.2-.2.2-.1 0-.1-.1-.2-.2.1-.1.2-.1.3-.2 0 .2 0 .2.1.2zm-8.7-2.3-.2.2s-.1.1-.1 0v-.1l.4-.4h.1v.1l-.2.2zm3-4.6-.3-.3c-.1-.1 0-.1 0-.1h.1v.1h.1c0-.1.1 0 .1 0s.1 0 .1.1l.2.2c-.2-.1-.3-.1-.3 0zm-8.6 9 .2-.2s0-.1.1 0v.1l-.4.4s0 .1-.1 0v-.1l.2-.2zm14.9-1.3s-.1 0 0 0c-.1.1-.2.1-.2.1s-.1-.1 0-.1c0 0 0-.1.1-.1l.1-.1v-.1.1c.1 0 .1 0 0 .2 0-.1 0-.1 0 0zm-7 1.1c0 .1-.1.1-.1.2 0-.1 0-.1.1-.2 0 .1 0 .1 0 0 0 .2-.1.2-.2.3l-.1.1c-.1 0-.1-.1-.1-.1-.1 0 0 0 0-.1.1-.1.1-.2.2-.2h.2c-.1 0-.1.1-.1.1-.1 0 0-.1.1-.1zm6.6-8.9-.6-.6c.1-.1.6.4.6.6zm1.7 5.2c.1.1.2.1.2.2v.1h-.1c-.2-.1-.3-.3-.4-.4 0 0-.1 0 0-.1h.1l.2.2zm-1.5 0 .2-.2s0-.1.1 0v.1l-.4.4h-.2c.2-.1.2-.2.3-.3zm-13.8 2.3c.5-.6 1-1.1 1.5-1.6 0 .1-1.5 1.6-1.5 1.6zm10.7-1.8s0-.1 0 0c.1-.1.1-.2.2-.3h.1l.1.1c-.1 0 0 .1 0 .1-.2 0-.3.1-.4.1zm-8.9 3.4c.1-.1.2-.2.3-.2 0 .1-.1.1-.1.2-.2.2-.2.2-.3 0l.3-.3-.3.3c.1-.1.1-.2.2-.2l-.2.2c.1-.1.2-.2.3-.2-.1-.1-.2 0-.2.2.1-.2.1-.3.3-.3-.2.1-.2.2-.3.3zm8.5-9.2c0-.1-.2-.1-.1-.2 0 0 0-.1.1 0s.2.1.2.3v.1h-.1c-.1-.1-.1-.2-.1-.2zm-7.8 3.8c0 .1 0 .1-.1.2h-.1l-.1-.1v-.1c.1 0 .1 0 .1-.1.2.1.2 0 .2.1.1-.1 0-.1.1-.1s.1 0 .2-.1l-.1.1c-.1.2-.1.1-.2.1zm8.2.1.1.1v.1h-.1c-.1-.1-.2-.1-.3-.2v-.1c.1 0 .2 0 .3.1-.1 0 0 0 0 0zm-4.6-4c0-.3.1-.4.3-.4h.1v.1c-.2.1-.3.2-.4.3zm.9-1.1c-.1-.1-.3-.2-.4-.4 0 0 .1-.1.1 0 .1.1.2.2.3.2 0 .1.1.1 0 .2zm-1.7 17c-.1.1-.1.1-.2.1l-.2-.2v-.1h.1c0 .1.1.1.2.1l.1.1zm9.9-12c.4-.4.8-.9 1.2-1.3-.3.4-.7.9-1.2 1.3zm-4.1-3.4.3.3v.1h-.1c-.1 0-.1-.1-.2-.1l-.1-.1s0-.1.1-.2c-.1.1-.1.1 0 0zm-11.6 7.7s-.1 0 0 0v-.1h.2c.1 0 .1.1.1.2s0 .2.1.2h-.1c0-.1-.1-.1-.1-.1s0-.1 0 0l-.2-.2c0 .1.1 0 0 0zm1.1 5.2c.4.3.8.7 1.1 1.1-.3-.4-.8-.7-1.1-1.1zm9.2-13.7c0-.1 0-.1 0 0-.2-.2-.1-.2-.1-.2h.1c.1 0 .1.1.2.1.1.1.1.1 0 .2-.1 0-.1-.1-.2-.1.1 0 0 0 0 0zm-3.4.7c0-.1 0-.2-.1-.2 0-.1.1-.1.1-.2 0 0 .1 0 .1-.1 0 .1 0 .1-.1.1v.1c.1 0 0 .1.1.1s0 0 0 .1c0 0-.1 0-.1.1zm-1 2.4v.4H20c0-.1.1-.3.2-.4zm-7 4.8s.1.1 0 .1-.1 0-.1.1H13v.1h-.1v.1c-.1 0-.1.1-.2.1v.1c0-.1 0-.1.1-.2.1 0 .1-.1.2-.2 0 0 .1 0 .2-.2-.1.1-.1.1 0 0 0 .1-.1 0 0 0zm16.7-.8.3.3v.1h-.1l-.2-.2c0-.1-.1-.1 0-.2zm-1-.3c-.1 0-.4-.3-.4-.4h.1l.2.2s.1 0 0 .1c0-.1 0 0 .1.1-.1-.1 0-.1 0 0zm-.4-.2-.2-.2v-.1h.1c.2.1.3.3.4.4v.1h-.1l-.2-.2zM23.1 15c.1 0 .1.1.2.2 0 0 .1 0 0 .1h-.1l-.3-.3v-.1h.1c0-.1.1 0 .1.1zm5.1-.8c-.1 0-.1 0-.1-.1l-.3-.3-.5-.5v-.1c.3.4.6.7.9 1zm-4.2.6c-.2.2-.4.3-.5.4h-.1v-.1l.6-.3c0-.1 0-.1 0 0 0-.1 0 0 0 0zm-3.4 14.9c.1-.1.2-.2.3-.2 0 .1-.2.1-.3.2 0 .1 0 0 0 0v-.1l.2-.2c-.1.1-.1.2-.2.3 0-.1.1-.2.1-.3 0 0 .1-.1.1 0v.1l-.2.2zm1.7-13.2.2.2v.1h-.1l-.4-.4v-.1h.1l.2.2zM12.5 27c-.4-.3-.8-.7-1.1-1.1.3.4.7.7 1.1 1.1zm16.6-3.9s-.1 0 0 0c-.1-.1-.1-.1-.1-.2h.1s.1 0 .1.1c0 0 0 .1-.1.1.1 0 0 0 0 0h.2s.1 0 .1.1c0 0 0 .1-.1.1h-.1c0-.1-.1-.1-.1-.2zm2.7-5.5s0 .1 0 0c-.3-.3-.6-.5-.9-.8.3.3.6.6.9.8zm-7.9 1.3.1.1v.1h-.1l-.3-.3v-.1h.1l.2.2zm-2-3c.1 0 .1.1 0 0 .1.1.2.1.1.2 0 0-.1.1-.1 0l-.2-.2s-.1-.1 0-.1.1 0 .2.1c0-.1 0 0 0 0zm8.4 6.4s0 .1 0 0c-.1 0-.1 0 0 0 0-.2.1-.3.2-.4 0 0 0-.1.1 0v.1l-.3.3zm-14.8 4.5c.1.1.2.1.2.2 0 0 0 .1-.1.1h-.1v-.3zm.7 1c0-.1-.1-.1-.1-.2v-.1s0-.1.1 0c.1 0 .2.1 0 .3zm5.2-11.3c-.1 0-.1.1 0 0-.1 0-.1 0 0 0-.1 0-.1 0 0 0v-.4h.1c0 .2 0 .3-.1.4zm-2.9 13.2c-.1 0-.3 0-.3-.1v-.1s0-.1.1 0l.2.2zm4.2 1.1c0-.1-.1-.1 0-.2h.1c.1 0 .1.1.2.1 0 0 .1.1 0 .1-.2.1-.2.1-.3 0zM18 24.4c-.2.3-.5.6-.8.8.2-.3.5-.5.8-.8zm7.3 3.9c0 .1-.1 0-.1 0l-.1-.1v-.1c0-.1.1-.1.2 0 .1.2.1.2 0 .2zm-9.4-3.5.2-.2-.1.1-.2.2h-.1l.2-.1c-.1 0 0-.1 0-.1s.1-.1.2-.1c-.1.1-.1.2-.2.2zm8.2 3s.1 0 0 0c.1.1.2.1.1.2h-.1l-.2-.2s-.1 0 0-.1h.1s.1 0 .1.1zm.9-7.4c0-.1.1-.1.1 0l.1.1c-.1.1-.1 0-.2 0 .1.1 0 0 0-.1 0 .1 0 0 0 0zM21.6 16c.1 0 .1.1.2.2 0 0 0-.1 0 0v.1s0-.1-.1 0v-.1c0-.1 0-.2-.1-.2-.1.1-.1 0 0 0zm8.3 4.4c0 .1 0 .3-.1.4h-.1s-.1-.1 0-.2c.1 0 .1-.1.2-.2zM16.8 20c-.1-.1-.1-.1 0-.2s.1-.1.2 0c0 .2-.1.2-.2.2.1.1 0 0 0 0zm.9 8.9s.1.1 0 .1c0 0-.1.1-.1 0 0 0-.1 0-.1-.1-.1-.1-.1-.1 0-.1h.1c0 .1.1.1.1.1zm5-14.1-.3.3h-.1V15c.1-.1.3-.3.5-.4h.1v.1s-.1.1-.2.1zm9.6 3.1c.1 0 .1-.1.2-.2h.1v.1l-.3.3h-.1V18c0-.1 0-.1.1-.1zm-9.6.7c-.1-.1-.2-.1-.2-.2v-.1h.1l.4.4v.1h-.1l-.2-.2zm4.5-.3.1.1v.1s0 .1-.1 0c-.1 0-.1-.1-.2-.1.1 0 .1 0 .2-.1h-.1l-.1-.1c.1 0 .1.1.2.1zm-8.8 3.9s.1 0 0 0c0 .1-.1.1-.1.2l-.2.2H18v-.1c.2-.2.3-.3.4-.3l-.3.3c.1-.2.2-.3.3-.3zm-.6-.7c-.2 0-.2.1-.2.2-.1-.1-.1-.1 0-.2.1-.2.1-.2.2 0zm-4.6 6c.3.3.7.6 1 .9-.1-.1-.2-.1-.3-.3-.2-.1-.5-.4-.7-.6zm14.6-3.2-.1.1v-.1c0-.1.1-.1.1-.2h.1v.1l-.1.1zm.5.3c0-.1.1-.1.1 0 0 0 0 .2-.1.2v-.2.1c0 .1 0 .1-.1.1v-.2c0 .1.1.1.1 0zm-3.8-9.4c.1 0 .1 0 0 0l-.2.2h-.1l-.1-.1v-.1h.4zm-5.6 16.6v.1l-.4.4h-.1v-.1c.2-.1.3-.3.5-.4zM13.2 25c0-.1.1-.1 0 0v-.1s0-.1.1 0c.1-.1.2-.2.3-.2-.1 0-.1.2-.2.2 0 0-.1 0 0 0 0-.1-.1 0-.2.1zm14.2 1.7c.3-.3.6-.7 1-1-.3.3-.7.6-1 1zm-13-4.1c-.1-.1-.1-.1 0 0-.1-.1-.1-.1-.1-.2h.1l.2.2v.1h-.1l-.1-.1zM30 16c.1 0 .1 0 0 0 .2.1.3.2.4.3l.3.3c-.2-.2-.4-.4-.7-.6zm-2.1 3.1c.1-.1.1-.1.2-.1 0 0 .1-.1.1 0v.1c0 .1 0 .1-.1.1-.1-.1-.1-.1-.2-.1 0 .1 0 .1 0 0zm-.8-6.4.2-.2h.1v.1l-.3.3H27v-.1l.1-.1zm-9.9 8.4-.1-.1v-.1c.1 0 .2.1.3.2v.1h-.1l-.1-.1zm11 4.2s.1 0 .1.1-.1.1-.2 0c0 0 0-.1-.1-.1v-.1c.1 0 .1 0 .2.1 0-.1 0-.1 0 0zm-7.7-8.2c0-.1 0-.1 0 0V17h.2s.1 0 .1.1v.1c-.1 0-.2 0-.3-.1zm5.2-.1h-.1c-.1 0-.1-.1-.1-.1.1 0 0-.1 0-.2 0 0 .2.1.2.3zm-4.1-1.6c0-.1.1-.1.1 0l.1.1v.1c-.1 0-.1 0-.1.1-.1.1-.1 0-.1 0v-.3c.1 0 .1 0 0 0 .1 0 .1 0 0 0 .1-.1.1 0 0 0zm1.8 14.2-.1.1h-.1v-.1c.1-.1.1-.2.2-.2h.1v.1l-.1.1zm5.9-9.2c0 .1-.1.1 0 0-.1 0-.1 0-.1-.1v-.1c0-.1.1-.1.2-.1 0 .2-.1.3-.1.3zM14.7 24c-.1.1-.2.2-.2.1h-.1c.1 0 .1-.1.1-.1l.1-.1s0-.1.1.1c-.1-.1-.1 0-.1 0 .1-.1.1 0 .1 0zm10.8-2.6c-.1-.1-.1-.1 0 0 .1-.2.1-.2.2-.3 0-.1.1-.1.2-.2h.1v.1l-.2.2c-.2 0-.3.1-.3.2zm-9.1.7.1-.1s0-.1.1 0v.1l-.3.3h-.1v-.1c.1-.1.2-.1.2-.2zm7.6-2.9c.1.1 0 .1 0 .1h-.1s-.1-.1-.1-.2V19l.2.2c-.1 0-.1 0 0 0zM12.6 25l.2.2v.1h-.1l-.3-.3v-.1h.1c0 .1.1.1.1.1zm.4.6-.1-.1v-.1h.1l.3.3v.1h-.1c-.1-.1-.1-.2-.2-.2zm15.8-3.7c-.1.2-.3.3-.5.5 0-.1.1-.1 0-.1h-.1s.1-.1.2-.1.2 0 .2-.1.1-.2.2-.2zm-15.1 3-.1-.1s-.1 0 0-.1h.1c.1.1.2.2.3.2v.1h-.1c-.1 0-.1-.1-.2-.1zm3.5.9s.1 0 0 0c-.1.1-.2.2-.2.3.1-.1.2-.2.2-.3 0 .2-.1.3-.2.4h-.1s-.1 0 0-.1c0 0 0-.1.1-.1l.2-.2zm14.2-4.7-.1-.1v-.1h.1l.2.2v.1h-.1l-.1-.1zm-6.5 2h-.6H24.9zm4.7.1c.1 0 .1.1.2.1v.1c0 .1-.1.1-.2 0v-.2zm-8.9-6.6c0-.1 0-.2 0 0-.1 0-.1 0-.1-.1v-.1s.1 0 .1-.1h.1c0 .1 0 .2-.1.3 0-.1 0-.1 0 0zm-3.2 15.3c-.1-.1-.3-.2-.4-.4-.1-.1-.3-.2-.4-.4l.8.8zm-.7-11.1-.1-.1s-.1 0 0-.1h.1l.2.2v.1c-.1 0-.1-.1-.2-.1.1 0 0 0 0 0zm3.9-3.4.2-.2h.1v.1c-.1 0-.1.1-.1.1l-.1.1h-.1c-.1 0-.1 0 0-.1zm-5.8 7s-.1 0 0 0H14.6v-.1h.1c.1 0 .1 0 .2-.1-.1.1 0 .1 0 .2zm8.4 2.9c.1 0 .2 0 .2-.1 0 0 .1 0 0 .1 0 .1-.1.1-.2.2h-.1c.1-.1.1-.1.1-.2zm8.7-15 .1.1s.1 0 0 .1H32l-.2-.2v-.1h.1l.1.1zm-11.1 9.3c-.1 0-.1 0 0 0 0-.1.1-.1.1-.2h.1s0 .1.1.1c-.2.1-.3.2-.3.1zm3.2-4.6c.1.1.1.1.2 0-.1.1 0 .1.1.1 0 0 0 .1-.1.1-.1-.1-.1 0-.2 0H24s-.1 0 0-.1c.1 0 0-.1.1-.1zM14 23.4c.1 0 .1.1.2.1v.1s0 .1-.1 0c-.1 0-.1-.1-.1-.1-.1 0 0 0 0-.1zm11-.6s-.1.1-.1 0c-.1-.1 0-.1 0-.1s.1-.1.2 0c0 .1-.1.1-.1.1zM23.1 19c-.1-.1 0-.1 0 0 .1-.2.3-.4.4-.5h.1v.1l-.2.2c-.2 0-.3.1-.3.2zm-9.8 5.4-.1-.1v-.1h.1l.3.3v.1h-.1c-.1-.1-.2-.1-.2-.2zm4.7-2.8.1.1c0 .1-.1.1-.2.2 0 0-.1 0-.1-.1.1 0 .1-.1.2-.2zm-3.6 7.3a3.044 3.044 0 0 0 0 0zm-1.3-2.4.4-.4h.1v.1c-.2.2-.4.2-.5.3zm4.8 2.7c.1.1.1.1.2.1h.1v.1H18c-.1-.1-.2-.1-.1-.2-.1 0 0 0 0 0zM29 23.5l-.6.6.6-.6zm-4.5 4.8c-.1-.1-.1-.1 0 0-.1-.1-.1-.1-.1-.2h.1c.1 0 .1.1.2.2v.1c-.1 0-.1 0-.2-.1zm-1.3-1.1c-.2-.1-.2-.1 0-.2.1-.1.1-.1.1 0-.1 0-.1.1-.1.2zm1.1-11.5s-.1-.1 0-.1c.1-.1.1 0 .1 0 .1.1 0 .1 0 .1 0 .1-.1.1-.1 0zm-5.2 16.5.1.1v.1c-.1-.1-.2-.1-.1-.2-.1.1-.1.1-.1 0V32h.1c-.1.2-.1.2 0 .2zm-3.2-10.7.3.3-.3-.3s-.1 0 0 0zm1.1-1.7s-.1-.1 0-.1c.1-.1.1 0 .1 0s.1.1 0 .1c-.1.1-.1.1-.1 0zm6.6-2c-.1.1-.1.1-.2.1h-.2s-.1 0 0-.1h.2c.1.1.1.1.2 0l-.1-.1h.1c.1.1 0 .1 0 .1zM15 23.7c0-.1.4-.5.5-.5-.2.2-.4.3-.5.5zm2.9 5.3h.2s.1 0 0 .1l-.1.1h-.1v-.1c.1 0 .1 0 0-.1zm7.5-.9c-.1-.1-.1-.1 0-.1h.1l.1.1c-.1.1-.1.1-.2 0zM15 24.4c-.1 0-.1-.1-.1-.1 0-.1 0-.1.1.1.1 0 .1 0 .2.1v.1l-.2-.2zm6.9 6.7V31l.3-.3c-.1.2-.2.3-.3.4zm6.4-16.8.6.6-.6-.6zM26.2 26s0 .1-.1 0c0 0-.1-.1 0-.1.1-.1.1-.1.2-.1 0 .1-.1.1-.1.2zm-3 2.8-.1.1s0 .1-.1 0v-.1c.1-.1.1-.2.2-.2v.1c.1 0 0 .1 0 .1zm-5.1-7c-.2.2-.3.4-.5.6.1-.1.2-.2.3-.4l.2-.2zm5.4-8.5s-.1-.1 0-.1h.1c.1.1 0 .1 0 .1 0 .1 0 .1-.1 0 0 .1 0 0 0 0zM19 33.5c-.3-.2-.5-.4-.7-.7l.7.7zM15.9 27h.2s.1 0 0 .1c0 0 0 .1-.1.1s-.1 0-.1-.1c.1 0 .1 0 0-.1zm0 .4-.1-.1v-.2.1c-.1 0 0 .1 0 .1s.1.1 0 .1c.1-.1.1 0 .1 0zM28.5 19l-.1-.1h.1l.2.2v.1c0-.1-.1-.1-.2-.2.1.1.1 0 0 0zm-4.8 9h-.1s0-.1.1-.1l.1-.1c.1-.1.1-.1.2 0-.3.1-.3.1-.3.2zm-.7-9.4s-.1.1-.1 0l-.1-.1c0-.1.1-.1.2 0v.1c.1-.1.1-.1 0 0 .1 0 .1 0 0 0zm6.4 1.2s-.1 0 0 0l-.1-.1h.1l.1.1v.1c0 .1 0 0-.1-.1 0 .1 0 .1 0 0zM23 27.5l.1-.1-.2.2h-.1v-.1h.2zm1.6.6s-.1 0 0 0l-.1-.1h.1c.1 0 .1.1.2.2v.1l-.2-.2c0 .1 0 0 0 0zm-5.9-9c-.1.1-.8.8-.9.8.3-.2.6-.5.9-.8zm10.5.6c-.1 0-.1-.1-.2-.2 0 0-.1 0 0-.1h.1l.1.1c0 .1.1.1 0 .2zm-8.3 10.4c0 .1.1.1.1.2l-.3-.3v-.1h.1c0 .1 0 .2.1.2zm-3.4-7.6-.6.6c.3-.3.5-.4.6-.6zm6.4-3.9c0 .1 0 .1 0 0 .1.1.1.1 0 0l.2.2v.1c-.1-.1-.2-.1-.2-.3-.1.1 0 0 0 0zm3.5.1c.1 0 .2.1.2.1-.1 0-.1.1-.1 0-.1 0-.1 0-.1-.1zm-12.6 4.9c-.1.1-.3.4-.4.4.1-.2.3-.4.4-.4zm10.6 3.5v-.2s0-.1.1-.1h-.1c.2.2 0 .2 0 .3zm-2.1 1.8-.1.1.2-.2h.1c-.1 0-.1 0-.2.1 0-.1 0 0 0 0zm-10.4-3.6s0 .1 0 0l-.1.1v-.1c0-.1.1-.1.1-.2h.1c0 .1 0 .1-.1.2.1 0 0 0 0 0zm16.2-6c-.2-.2-.4-.4-.6-.5.2.2.4.3.6.5zm-12 2.5c0-.1.4-.5.5-.5-.2.1-.4.3-.5.5zm2.7-4.9c0 .1 0 .1 0 0 .1.1.1.1 0 .1h-.1l-.1-.1v-.1c.1.1.1.1.2.1zm.2 3.7c-.1 0-.1 0 0 0l-.1.1v-.1c0-.1.1-.1.1-.1h.1c-.1 0-.1 0-.1.1 0-.1 0 0 0 0zm7.8.1c-.1-.1-.1-.1 0 0 0-.1 0-.2.1-.2h.1v.1c-.1 0-.2 0-.2.1zm-6 9.9c0-.1 0-.2.2-.1 0 0 .1 0 0-.1v-.1h.1v.1c-.1 0-.2.1-.3.2zm-2.6-11.5s-.1 0 0 0l-.1.1v-.1c0-.1.1-.1.1-.1h.1s-.1 0-.1.1c0-.1 0 0 0 0zm4.3-3.6s-.1-.1 0 0l-.1-.1h.1l.1.1s.1 0 0 .1l-.1-.1zm-.1 2.7-.2.2c0-.1-.1-.1-.1-.2h.3zM17 20.6c-.1 0-.1-.1 0 0l-.1-.1h.1l.1.1v.1s-.1 0-.1-.1zm-4 6.1c0 .1 0 .1 0 0l-.1.1v-.1l.1-.1h.1s0 .1-.1.1c.1 0 0 0 0 0zm11.3-12.4-.1-.1h.1s.1 0 0 .1c.1 0 .2 0 .1.1l-.1-.1zm4.8 5.1zm-2.4.1s.1 0 0 0l.1.1h-.1l-.2-.2v-.1l.2.2c0-.1 0-.1 0 0zm-3.1-2.6s0 .1 0 0c-.1 0-.1 0 0 0 0-.1 0-.1.1-.2h.1v.1c-.1.1-.2.1-.2.1zM14 23.7c-.1.1-.1.1 0 0-.2 0-.1-.1-.1-.1s.1-.1.1 0c.1.1 0 .1 0 .1zm10-5.1h.1c0 .1.1.1.1.1s.1 0 0 0h-.1c0 .1-.1 0-.1-.1zm2.1 8.4c-.2.3-.5.5-.7.7l.7-.7zm-3.4 3.3s.1 0 0 0h.1c.1.1.1.1-.1 0 .1.1.1.1 0 0 .1.2-.1.1-.1.2v-.1l.1-.1c0 .1 0 .1 0 0 0 .1 0 .1 0 0zM27.9 19c-.1.1.1.2.1.3l-.2-.2s0-.1.1-.1zm1.4 1.7.1-.1c.1 0 .2.1.1.1-.1.1-.1 0-.2 0zm-5.2 6.8c.1.1.1.1 0 0l.1.1h-.1l-.1-.1v-.1c0 .1.1.1.1.1zm-5.7-8.8c0-.1.3-.3.4-.4l-.4.4zm7.8 7.5c.1-.1.1-.1.1 0-.1.1-.2.1-.2.2v-.1s0-.1.1-.1zM17.5 21l.2.2v.1h-.1l-.1-.1c-.1-.2-.1-.2 0-.2zm9.5.4s0 .1 0 0c-.1 0-.1-.1 0-.1 0 0 0-.1.1 0 .1 0-.1.1-.1.1zm-13.6 6.9s-.1 0 0-.1.1 0 .1 0 0 .1-.1.1c0 .1 0 0 0 0zm1.6-4.8s0 .1 0 0h-.1.1c-.1 0-.1 0 0 0-.1-.2 0-.1.1-.2 0 .1-.1.2-.1.2zm12.5-2.7c.1-.1.1-.1 0 0 .1 0 .1 0 0 0 .1.1 0 .1 0 .1h-.1l.1-.1zm1.3-1.5-.1-.1s0-.1.1 0l.1.1v.1l-.1-.1zm-11.9 6.8.3-.3-.2.2-.1.1zm5.3-11.4.8-.8-.8.8zm5.7-1.2c.1 0 .1 0 0 0 .1.1.1.1.1.2h-.1c0-.1-.1-.1-.2-.1 0 0-.1 0 0 0 .1-.2.1-.2.2-.1 0-.1 0 0 0 0zm-2 14.6c.3-.3.5-.6.8-.8 0 .1-.7.8-.8.8zm-8.4-7.4-.1-.1v-.2h.1v.1c.1.2.1.2 0 .2zm-.5 1.1c-.1.2-.3.3-.4.5.1-.2.3-.4.4-.5zm4.6-6.3c.1 0 .1.1.1.1s0 .1-.1.1-.1-.1-.1-.1.1 0 .1-.1zm.8 2.9s.1.1 0 .1v-.1c-.1.1-.1 0 0 0 0-.1 0 0 0 0zm8.4 3.1c-.1 0-.1.1 0 .2-.1 0-.1-.1-.2-.1v-.1c.1-.1.1-.1.2 0zm1 0s-.1 0 0 0l-.1-.1h.1l.1.1h-.1c0 .1 0 0 0 0zm-7.6 6.6c0 .1-.1.1-.1.2l-.1.1h-.1c.1-.2.2-.2.3-.3zm-9.5-4.9.4-.4c-.1.1-.2.3-.4.4zm2.1-.8s0-.1 0 0l.3.3-.3-.3zm7-5.8c0 .1 0 .1 0 0-.1 0 0 0 0 0 0-.1 0-.1.1-.2 0 .2 0 .2-.1.2zm-4 15.8c0 .1 0 .1 0 0-.1 0-.1 0 0 0-.1-.1 0-.2 0-.1.1.1 0 .1 0 .1zM17 25.6l-.3.3.3-.3zm4.1-8.8h-.2c0-.1.1-.1.2 0 0-.1 0-.1 0 0zm.1 4.4v-.3c.1.1.1.1 0 .3zm-.4.6h-.1v-.1h.1c.1 0 0 0 0 .1zm8.9-1.6s-.1 0 0 0V20h.1c0 .1-.1.2-.1.2zm-1 2.9-.6.3s.5-.3.6-.3zm2.5-2.3s.1 0 0 0c0 .1 0 .1 0 0h-.1v-.1l.1.1c0-.1 0 0 0 0zm-15.4.9s.1.1 0 .1c.1.1 0 0 0-.1 0 .1-.1.1 0 0 0-.1 0 0 0 0zm12.3-2.9.1-.1s0-.1.1 0v.1h-.2zm-1.5 3.1c-.1 0-.1 0 0 0-.1 0-.1-.1 0 0 0-.1 0-.2.1-.1l-.1.1zm-3-2.9s-.1 0 0 0c0-.1.1-.1.1-.1.1.1 0 .1-.1.1.1.1.1.1 0 0zm6 2.4s.1.1 0 .1v-.1c-.1 0-.1 0 0 0 0-.1 0 0 0 0zM27.3 19l-.1-.2c.1 0 .1 0 .1.2 0-.1 0 0 0 0zm1.3-4.8s.1 0 0 0l.1.1s-.1-.1-.2-.1v-.1l.1.1c0-.1 0-.1 0 0zM18 19.8c-.1 0-.1-.1 0 0 0-.1.1-.2.2-.2-.1 0-.1.1-.2.2 0-.1 0-.1 0 0 0-.1 0 0 0 0zm-1.2 5.8.1-.1-.3.3c.1-.1.2-.1.2-.2zm11.3-11.8c.1 0 .2.1.2.1v.1c-.1 0-.2-.1-.2-.2zm-4.6.5c.1.1.1.1 0 0 0 .2 0 .1 0 0h-.1c.1-.1.1 0 .1 0zm3.9 4.6s-.1-.2-.1-.3c.1.1.1.2.1.3zm.6 1.4c0-.1.1-.1 0 0l.1-.1c.1.1 0 .1-.1.1.1.1 0 .1 0 .1v-.1zm-6.7 1c0-.1.1-.1.1-.1h.1c.1 0 .1.1 0 .1-.1-.1-.2 0-.2 0zm-4.2 4.9.3-.3c-.1.1-.2.3-.3.3zm10.5-2.4c0-.1-.1-.1 0-.2s.1 0 .2.1c-.1 0-.2 0-.2.1zM21 16.5v.1h-.1l.1-.1zm4.5 4.2c-.1.1-.1.1 0 0h-.1c0-.1 0 0 .1 0zm-9.8 4.1.3-.3h.1s-.1 0-.1.1c-.2.1-.2.2-.3.2zm-.6 3.8h.2v.1c-.1 0-.1 0-.2-.1zm8.9-5.4c.2-.1.2-.1.3.1-.1-.1-.2-.1-.3-.1zm-.7-6.1.1-.1c0 .1 0 .2-.1.1v.1c-.1 0 0 0 0-.1zm-9 8.2s.1.1 0 .1v-.1h-.1c.1-.1.1 0 .1 0zm12.5-3.7c0 .1 0 .1 0 0-.1 0-.1 0 0 0 0 0 0-.1 0 0 0-.1 0-.1 0 0 .1-.1.1 0 0 0zm-7.1-.6c-.1 0 0-.1 0 0 0-.1.1-.1.1-.1v.1c-.1.1-.1 0-.1 0zm7.5 4.4c-.1 0-.1 0 0 0-.1 0-.1 0 0 0h-.1c0-.1 0-.1.1 0-.1 0-.1 0 0 0-.1-.1.1-.1.1-.2-.1.1-.1.1-.1.2zm-12.6 3.5-.3-.3c.1.1.3.2.3.3zm8.3-.5c-.1-.1-.3-.2-.4-.3.2.1.3.2.4.3zm-4.9 4-.3-.3.3.3zm6.3-9.9c.1-.1.1-.1 0 0 .1.1.2.1.2.2v.1s0-.1 0 0h-.1c0-.3 0-.3-.1-.3zm-1.9 4.3.3-.3-.3.3zm.2-9 .1-.1c0 .1 0 .1-.1.1.1 0 0 .1 0 .1h-.1l.1-.1c-.1 0 0 0 0 0zm6.8 3.1s.1 0 0 0c.1 0 .1 0 0 0l.1.1c0 .1 0 0-.1-.1 0 .1 0 .1 0 0zm-12.1.4c0 .1 0 .1 0 0 0 .1-.1.2-.1.2h-.1v-.1c.1.1.1 0 .2-.1zM19.8 33l.2.2s-.1-.1-.2-.1V33zm.6-1.7c.1 0 .3.2.3.3-.1 0-.2-.1-.3-.3zm5.2-14.2c-.1.1-.1 0-.2 0 0 0-.1 0 0 0h.2zm1.8-4c0-.1 0 0 0 0 .1 0 .2.1.2.1s-.1 0-.2-.1zm2.2 10.3s-.1 0 0 0l-.1.1c-.1 0-.1-.1 0-.1 0-.1 0 0 .1 0zM27.3 21c.1.1 0 .1 0 0v.1c-.1 0 0 0 0-.1zm-3.6 6.4-.1-.1c.1 0 .1.1.1.1.1.1.1.1 0 0 .1.1 0 0 0 0zm-.5-.2c0-.1 0-.2.1-.2s.1 0 .1.1c-.1 0-.1 0-.2.1zm6.5-6.2c-.1 0-.1 0 0 0-.1 0-.1 0 0 0-.1 0-.1 0 0 0v-.2h.1c-.1.1 0 .1-.1.2zm-6.6 9.1c-.1.1-.1.1 0 0-.1 0-.1 0 0 0-.1-.1 0-.1 0 0 0-.1.1-.1 0 0zm1.1-7.8h-.4.4zm3.5-8.8c.1 0 .2.1.2.2l-.2-.2zM13.8 28.2l.3.3c-.2-.1-.2-.2-.3-.3zm17-7.7c-.1 0-.2 0-.2.1v-.1c.1-.1.1 0 .2 0 0-.1 0-.1 0 0 0-.1 0-.1 0 0zm1.2-8.2v-.1c.1 0 .1.1.2.2-.1 0-.1 0-.2-.1zM20.6 30.1c0-.1 0-.1 0 0h.1c-.1 0-.1.1-.1 0v.1c-.1 0-.1-.1 0-.1-.1 0 0 0 0 0zm3.1-7.7c0-.1 0-.1 0 0 0-.1.1-.1 0 0h.1c0 .1-.1.1-.1.1v-.1c-.1 0-.1 0 0 0zm6.9-6.2c-.1 0-.1-.1-.2-.1 0 0-.1 0 0 0h.1s.1 0 .1.1zm-7.7 1.5s-.1.1-.1 0c-.1 0 0-.1.1 0v-.1.1zm3.5 4.3s-.1 0 0 0c0-.1 0-.1 0 0 .1 0 .1 0 0 0 .1.1.1 0 0 0zm3-.7s0-.1 0 0c0-.1.1-.1 0 0 .1-.1.1 0 0 0 .1 0 0 0 0 0zm-3.3-6.5s0-.1 0 0h.2v.1c-.1 0-.2 0-.2-.1 0 .1 0 0 0 0zm-9.3 11.1c0-.1.2-.3.3-.3l-.3.3zm.2-.3-.3.3c.1-.2.2-.3.3-.3zm9.3-10.9c-.1.1-.1.1-.2 0v-.1c.1.1.1 0 .2.1zm-5 2.7c.1 0 .1-.1.2 0v.1c-.2 0-.2 0-.2-.1zm-4.6 4.5c0-.1.1-.1 0 0 .1 0 .1 0 0 0 0 .1 0 0 0 0zm3.1-5.5.3-.3-.3.3zm5.8-1s-.1-.1 0 0c0-.1 0-.1 0 0 .1-.1.1 0 0 0 0 .1 0 0 0 0zm-11.4 10s.1 0 0 0c0 .1 0 .1 0 0h-.1c.1-.1.1 0 .1 0zm9.1-7.2c-.2.1-.2.1-.3-.1 0 0 .1.1.1 0 .1 0 .1 0 .2.1zm3.6 4.2c.1-.1.1-.1.1-.2 0 0 .1 0 .1.1-.1.1-.1.1 0 .1h-.2zm.9-2.7c.1.1.2.1.2.2 0-.1-.2 0-.2-.2zM25 22.3h-.1v-.1c.1 0 .1.1.1.1zm3.1-1.1s.1-.1.1 0c0 0 0 .1-.1 0 0 .1 0 .1 0 0 0 .1-.1 0 0 0zm3.5-4.1c0 .1.1.1 0 0 .1.1.1.1 0 0 .1.2.1.1 0 0 0 .1 0 .1 0 0h-.1.1zm-7.8-1.4h-.1v-.1c0-.1 0-.1.1.1-.1-.1 0-.1 0 0zm-.8 1.7c.1 0 .1-.1 0 0 .1-.1.1-.1 0 0 .2-.1.1 0 0 0 .1 0 .1 0 0 0 0 .1 0 .1 0 0 0 .1 0 0 0 0zm1.8 4.9h-.1v-.1c.1 0 .1.1.1.1zm.3-6.1c.1.1.2.1.2.2-.1 0-.2-.1-.2-.2zm-9.3 5.4c-.1 0-.1-.1-.2-.1.1 0 .1 0 .2.1 0-.1 0 0 0 0zm2.7 1.3c0-.1.2-.2.3-.3-.2.1-.2.2-.3.3zm6.4-5.3.1.1c-.1.1-.1 0-.1-.1h-.1.1zm-6.4 13.7c-.1 0-.1 0 0 0 0-.1.1-.1.1-.1v.1h-.1zm-3.9-3.9h.1v.1l-.1-.1c0 .1 0 0 0 0zm11-6.6v-.1.1c.1 0 0 0 0 0 0 .1 0 .1 0 0zm-11.5 6.8s0-.1 0 0c.1-.1.1-.1 0 0h.1-.1zm4.6-5.7h-.1v-.1h.1v.1zm3.4-3.9c.1 0 .1.1.2.1-.1 0-.1 0-.2-.1zm6.3-4c-.1 0-.1-.1-.2-.1.1-.1.1 0 .2.1zm-3.2 8.3h-.1s0-.1.1-.1 0 .1 0 .1zm-4.3-5.5s.1 0 0 0h.1v.1l-.1-.1c0 .1 0 0 0 0zm-.4 13.6s-.1-.1 0 0c0-.1 0-.1 0 0 .1 0 .1 0 0 0 0 .1 0 0 0 0zm1.4-15.1s.1 0 .1.1h-.1c-.1-.1 0-.1 0-.1zm-5 6.5s-.1 0 0 0c-.1 0-.1-.1 0 0 0-.1 0-.2 0 0 .1-.1 0-.1 0 0zm8.8-5c-.1-.1-.2-.1-.2-.2l.2.2zm-2.8 10.5c.1 0 .1 0 0 0 .1 0 .1 0 0 0v-.1c.1 0 .1 0 0 .1.1 0 0 0 0 0zm7.4-11.4-.2-.2c.1 0 .2.1.2.2zM16.1 29.1l.2-.2c0 .1-.1.1-.2.2zm3.7-8.3s-.1 0 0 0c-.1 0-.1-.1 0 0-.1-.1 0-.1 0 0 0-.1 0-.1 0 0zm-6.6 6.8.2.2c-.1-.1-.2-.1-.2-.2zM32.1 18c-.1 0-.1-.1-.1-.2 0 .1.1.1.1.2zm-4.5 5.3s-.1 0 0 0c-.2-.1-.2-.2-.3-.2.1.1.2.1.3.2zm.7.2s-.1-.1 0-.1h.1l-.1.1zm-4.7 6c0-.1.1-.1.1-.1 0 .1 0 .1-.1.1 0 0 .1 0 0 0 0 .1 0 .1 0 0zm2.1-6.4c.1 0 .1-.1 0 0 0-.1.1-.1.1-.1.1 0 0 .1 0 .1h-.1zm-2.1-4.3s0-.1 0 0c.1 0 0 0 0 0 0 .1 0 .1 0 0-.1 0-.1 0 0 0zm6.2 4.3c-.1 0-.1.1-.1 0V23c.1 0 .1.1.1.1zm-14.7 1.5c0 .1-.1.1 0 0-.1 0-.1 0 0 0-.1 0 0-.1 0 0 .1 0 0 0 0 0zm3.2-5.3s.1 0 0 0h.1-.1c.1.1 0 .1 0 0v.1-.1c0 .1 0 0 0 0zM31 16.6l-.1-.1h.1c-.1-.1 0 0 0 .1zm-7.7 13.2c-.1 0-.1-.1-.2-.1.1 0 .2.1.2.1zm3.4-4s-.1 0 0 0c-.1.1-.2.1-.2.2v-.1c.1 0 .1-.1.2-.1 0 0 0-.1 0 0zm-7.9-1.7c0-.1.1-.1.2-.2-.1.1-.2.1-.2.2zm6.8-3.1c0-.1.1-.1.2-.2l-.2.2zm-7 9.8c0-.1.1-.1.1-.1v.1c-.1 0-.1.1-.1 0zm.8-12.5s0 .1 0 0c-.1 0-.1 0 0 0 0-.1 0-.1 0 0 .1 0 .1 0 0 0zm6.1 4.8h-.1V23c.1 0 0 .1.1.1zm-11.6.5s-.1 0 0 0c-.1 0-.1 0 0 0-.1-.1 0-.1 0 0zm11.4-3.5v.1c-.1.1-.1.1 0-.1-.1.1 0 .1 0 0zm-1.9 9.7c-.1-.1 0-.1 0-.1v.1c.1-.1.1-.1 0 0 0-.1.1 0 0 0zm2.3-6.7h-.1V23c.1 0 0 .1.1.1zm-2.1-4.4c.1-.1.1-.1 0 0 .1 0 .1 0 0 0 .1.1.1 0 0 0zm-9.9 8.6c.1.1.1.2.2.3-.1-.1-.2-.2-.2-.3zm3.5-2.6c0 .1-.1.1-.2.2.1 0 .2-.1.2-.2zm8.5-7.7h-.3.3zm-11.2 9.6h-.1v-.1s.1 0 .1.1zm7-9.9c-.1.1-.1.2-.2.2.1-.1.1-.2.2-.2zm-1.4 16.5c-.1 0-.1.1-.1.1s-.1 0 0-.1h.1zm5.6-17.9s-.1 0 0 0c0-.1 0-.1 0 0 0-.1.1 0 0 0 .1 0 .1 0 0 0zm3.4 7.9c-.1 0-.2-.1-.2-.2l.2.2zm-15.6 2.9c.1-.1.1-.1 0 0 .1 0 .1 0 0 0 .1.1.1 0 0 0zm11.6-3.4c0-.1 0-.1 0 0-.1-.1-.1-.1-.1-.2.1 0 .1.1.1.2 0-.1 0-.1 0 0zM14.8 27c0-.1-.1-.1 0 0 0-.1 0-.1 0 0 .1-.1.1 0 0 0zm12.6-13.8c.1 0 .1 0 .1.1l-.1-.1c.1 0 0 0 0 0zm-2.3 9.9c.1-.1.1-.1 0 0 .1 0 .1 0 0 0 .1 0 .1 0 0 0zm4.6-7.5c.1 0 .1.1.2.1-.1.1-.2 0-.2-.1 0 .1 0 .1 0 0zM27 25.4l.3-.3-.3.3zm-12.7-1.6c0 .1 0 .1 0 0s0-.1 0 0c.1 0 .1 0 0 0zm6.8 2.6c0-.1.1-.1.2-.2l-.2.2zm3-11c0-.1 0-.1 0 0h.2-.2zm.2 12.4s-.1 0 0 0c0-.1 0-.1 0 0 .1 0 .1 0 0 0 0 .1 0 0 0 0zm-9.8-2.6s0 .1 0 0c-.1 0-.1 0 0 0 0 0 0-.1 0 0zm5.8 5.2c.1 0 0 0 0 0 0 .1 0 .1-.1.1 0 0 0-.1.1-.1 0-.1 0 0 0 0zm7-5.3c.1-.1.1-.1 0 0 .1 0 .1 0 0 0 .1.1.1.1 0 0zM18 22.4l.2-.2c0 .1-.1.2-.2.2zm12.9-1.7c-.1 0-.1 0 0 0l-.1-.1h.1c-.1.1 0 .1 0 .1zm-11.6-2.3c-.1 0-.1 0 0 0 0-.1 0-.1 0 0 0 0 .1 0 0 0zm2.4-2.4c.1 0 .1.1.2.1-.1 0-.1-.1-.2-.1zm8.9 6.3c0 .1.1.1 0 0 0 .1 0 .1 0 0 0 .1-.1 0 0 0zm-5.9.5c0-.1.1-.1.2-.2l-.2.2zm-5.1-4.7V18c.1 0 .1 0 0 .1.1-.1.1-.1 0 0 0-.1.1 0 0 0zM14.2 24v-.1h.1l-.1.1zm7.6-6.4c.1 0 .1.1.2.1-.1 0-.1 0-.2-.1zm2.3-1.3s0-.1 0 0c.1 0 0 0 0 0 0 .1 0 .1 0 0-.1 0 0 0 0 0zm5-1.7-.1-.1h.1c-.1 0 0 .1 0 .1zm-.1 1.2.2.2c-.1-.1-.2-.1-.2-.2zm-4.1.2c-.1 0-.1-.1-.2-.2.1.1.2.1.2.2zm-6 6.9-.2.2c.1-.1.1-.2.2-.2zm11.2-7.1c.1 0 .1 0 .2.1-.1 0-.2 0-.2-.1zM12 25.3s-.1 0 0 0c-.1-.1-.1-.1 0 0 0-.1 0-.2 0 0 0-.1 0-.1 0 0zM23.1 30s0-.1 0 0l.1-.1c0 .1 0 .1-.1.1zm3.8-7.6c-.1.1-.1 0-.1 0h.1zm-8.4.6c.1-.1.2-.2.3-.2-.1 0-.2.1-.3.2zm3.7 7.7c0-.1 0-.1 0 0 0-.1.1-.1 0 0 .1 0 .2 0 0 0 .1 0 .1 0 0 0zm-2.7-12.5s-.1 0 0 0c0-.1 0-.1 0 0 .1 0 .1 0 0 0zm12.3-.8c.1 0 .1 0 .2.1-.1 0-.1-.1-.2-.1zM18 32.3c0-.1 0 0 0 0 .1 0 .1 0 .1.1-.1 0-.1-.1-.1-.1zm6.6-15.8c0 .1.1.1 0 0 0 .1 0 .1 0 0-.1.1-.1.1 0 0zm.4 11.6c0-.1.1-.2.2-.2 0 .1-.1.2-.2.2zm-6.4-5.3c.1-.1.1-.2.2-.2 0 .1-.1.2-.2.2zm-.4-3.3c0-.1 0-.1 0 0 .1 0 .1 0 0 0 0 0 0 .1 0 0zm6.3 8.1v-.1c.1 0 .1 0 0 .1.1 0 .1 0 0 0zM17.7 20c0-.1 0-.1.1-.1l-.1.1c.1 0 0-.1 0 0zm8.6 1.1s0-.1 0 0c.1-.1.1 0 .1 0h-.1zM24 15.6h.1c-.1.1-.1 0-.1 0zm-9.2 8.2c0 .1 0 .1 0 0 .1 0 .1 0 0 0zm-1.7 2.7v-.1c.1-.1.1 0 0 .1.1-.1 0-.1 0 0zm7.4-9.8s0 .1 0 0l-.1.1s0-.1.1-.1c-.1 0 0 0 0 0zm3.6-1.3c0 .1 0 .1.1.1-.2 0-.2 0-.1-.1zm-9.8 12.4h.3-.3zm1.9-4c0 .1-.1.2-.2.2l.2-.2zm12.7-9.2c.1 0 .1 0 .1.1l-.1-.1zm2.2 2.2c.1 0 .1 0 .2.1-.1-.1-.1-.1-.2-.1zm-5.4 3.9s.1 0 0 0c0 .1 0 .1 0 0 0 0-.1 0 0 0 0-.1 0 0 0 0zm2.4-.7.1.1h-.1c-.1 0 0-.1 0-.1zM27 13c.1 0 .1 0 .1.1-.1 0-.1 0-.1-.1zm-2.7 6c-.1.1-.1.1 0 0-.1 0-.1 0 0 0-.1 0-.1 0 0 0zm-2.4-4.5.2-.2c-.1 0-.1.1-.2.2zm2.7 7.8c-.1.1-.1.1 0 0-.1 0-.1 0 0 0-.1-.1-.1-.1 0 0zm-8.2 2.2c0-.1.1-.1.1-.1l-.1.1zm-3.5 1 .2.2c-.1 0-.1-.1-.2-.2zm5.8-2c-.1 0-.1-.1-.1-.1.1 0 .1.1.1.1zm2-2 .1-.1c0 .2 0 .1-.1.1zm9.8.8s-.1 0 0 0v-.1c.1.1 0 .1 0 .1zM20.2 17h-.1v-.1l.1.1c-.1 0 0 0 0 0zm-.5.9s.1 0 0 0l.1-.1c0 .2-.1.1-.1.1zm-2.1 14c0-.1-.1-.1-.2-.2.1 0 .2.1.2.2zm1.7-8c0 .1-.1.1-.2.1.1 0 .2-.1.2-.1zm8.8-5.3c.1 0 .1 0 0 0 .1.1 0 0 0 0zm-8.1-.9c0-.1 0-.1 0 0 .1-.1.1-.1 0 0 .1-.1.1-.1 0 0 .1 0 0 0 0 0zm-6.1 7.2c-.1-.1-.2-.1-.2-.2l.2.2zm4.7-5.9c0 .1 0 .1 0 0v.1s-.1 0 0-.1zm8.4 6.5s-.1 0 0 0c0-.1 0-.1 0 0 .1 0 0 0 0 0zm-4.8-11.3c.1-.1.1-.1.2-.1-.1 0-.1.1-.2.1zm-2.3 3.5c.1-.1.1 0 0 0h.1c0 .1-.1 0-.1 0zm-1 5.2-.2.2c.1-.1.2-.1.2-.2zm2.6 3.1c0-.1.1-.1.1-.1l-.1.1zm2.3-8.5c.1 0 .1 0 0 0 .1 0 .1 0 0 0 .1.1.1.1 0 0zm5.2 5.8c-.1 0-.1 0 0 0-.1 0-.1 0 0 0-.1-.1-.1-.1 0 0zm-13 .1c.1 0 .1.1.2.2-.1-.1-.2-.1-.2-.2zm10.8-2.8c0-.1 0-.1.1-.1-.1 0-.1.1-.1.1zm4-4.1c.1 0 .1 0 .1.1l-.1-.1zm-5.1 3.9s-.1 0 0 0c-.1 0-.1-.1 0 0 0-.1 0 0 0 0zm-4.1 11.1s0-.1 0 0c0-.1 0-.1 0 0 .1 0 .1 0 0 0zm-6.9-6.2c0-.1 0-.1 0 0 0 0 .1-.1.1 0 .1 0 0-.1-.1 0 .1 0 .1 0 0 0zm.1-.5c0-.1 0-.1 0 0 0-.1 0-.1 0 0 .1-.1.1-.1 0 0zm1.1 0c0 .1-.1.1-.1.1 0-.1 0-.1.1-.1zm-.7-2.2c0 .1-.1.1-.1.1.1 0 .1-.1.1-.1zm5.9 3.3c0-.1.1-.1.2-.2l-.2.2zm10.7-8.4c.1 0 .1.1.1.1l-.1-.1zm-7.5-3s0-.1 0 0c.1 0 .1 0 0 0zm4.7 5.9c.1 0 .1.1.2.2-.1-.1-.1-.2-.2-.2zm-9.3.2c0-.1 0-.1 0 0 .1-.1.1-.1 0 0 .1 0 0 0 0 0zm-.1 2.2c.1 0 .1 0 0 0 .1 0 .1 0 0 0 .1 0 .1.1 0 0zm-.2 1 .2-.2c-.1.1-.2.1-.2.2zm5.8 3.5s-.1 0 0 0c0-.1 0-.1 0 0 0 0 .1 0 0 0zm-1.8-11.2s0-.1 0 0c.1 0 .1 0 0 0 .1 0 0 0 0 0zM13.1 26.9c0 .1-.1.1-.1.1l.1-.1zm9-11.4s.1 0 0 0c.1.1.1.1 0 0 0 .1 0 .1 0 0 0 .1 0 .1 0 0z"/><path fill="none" d="M0 0h45v45H0z"/><path fill="none" d="M4.5 4.5h36V18h-36z"/><path fill="#010101" d="M7.3 11.6 5.6 4.9h1.5c.7 3.1.9 4.4 1 5.2.3-1.3.9-3.6 1.3-5.2h1.3c.3 1.3 1 3.9 1.2 5.1.2-1.5.9-4.1 1.1-5.1h1.4l-1.8 6.7h-1.5c-.4-1.5-.9-3.6-1.2-4.8-.1 1.2-.8 3.4-1.1 4.8H7.3zM16.8 8.9v2.7h-1.4V4.9h2.9c1.5 0 2.2.8 2.2 1.8 0 .9-.5 1.4-1 1.6.3.1.8.5.8 1.7v.3c0 .5 0 1 .1 1.3H19V10c0-.7-.2-1.1-1.3-1.1h-.9zm0-1.1H18c.8 0 1.1-.3 1.1-.9 0-.6-.4-.9-1.1-.9h-1.2v1.8zM26.5 8.7h-3.2v1.7h3.5l-.2 1.2h-4.8V4.9h4.8v1.2h-3.3v1.4h3.2v1.2zM33.6 9.5c-.3 1.2-1.2 2.2-2.9 2.2-2.1 0-3.1-1.5-3.1-3.4 0-1.8 1-3.5 3.2-3.5 1.8 0 2.6 1 2.8 2.2h-1.4c-.1-.5-.5-1-1.4-1-1.2 0-1.7 1.1-1.7 2.3 0 1.1.4 2.3 1.7 2.3.9 0 1.2-.6 1.4-1h1.4zM34.7 4.9h1.4v3c.4-.5 1.8-2 2.7-3h1.7l-2.7 2.8 2.8 3.9h-1.7l-2.1-3-.7.7v2.3h-1.4V4.9z"/><path fill="none" d="M27 27h13.5v13.5H27z"/><g fill="#010101"><path d="M32.2 38.9c.1.6.5.8 1.2.8.6 0 .9-.3.9-.7 0-.5-.3-.7-1.2-.9-1.5-.4-1.9-.9-1.9-1.7 0-1 .7-1.6 2.1-1.6 1.5 0 2.1.8 2.2 1.6h-1.2c-.1-.3-.2-.7-1-.7-.5 0-.8.2-.8.6 0 .4.2.5 1.1.8 1.6.4 2 1 2 1.8 0 1-.8 1.7-2.2 1.7-1.4 0-2.2-.7-2.3-1.7h1.1zM38.5 40.5v-1.2h-2.4v-1l2.2-3.1h1.3v3.2h.6l-.1.9h-.5v1.2h-1.1zm0-3.1v-1.2c-.2.4-.9 1.5-1.4 2.2h1.4v-1z"/></g><path fill="#010101" d="M19.2 27.8c-.3 0-.5-.1-.6-.3-.1-.2-.1-.3 0-.5 0-.1 0-.2.1-.2v-.1c0-.3.2-.6.3-.9.1-.2.3-.4.5-.5.5-.4.9-.4 1.4-.5h.1c.3 0 .5-.1.8-.2.5-.2.9-.5 1.1-.8.2-.3.3-.6.4-.9.1-.5.3-1 .7-1.5.3-.3.5-.6.9-.8.2-.2.4-.2.6-.3h.1c.3-.1.3.1.4.2 0 .1-.1.2-.1.3-.4.4-.6.7-.8 1.1 0-.1.1-.1.1-.2.3-.5.8-1 1.4-1.4.3-.2.6-.4.8-.6-.3 0-.6.1-.9.2-.1 0-.2.1-.3 0-.1-.1 0-.2.1-.3.4-.5.8-1 1.2-1.4.4-.4.9-.6 1.3-.7.2 0 .4-.1.5 0 .1 0 .2 0 .2.1s0 .2-.1.3l-.1.1c.6-.6 1.3-.8 2-.9-.1 0-.2 0-.2-.1-.2 0-.4-.1-.6 0h-.2l-.1-.1c0-.1.1-.2.2-.3.2-.1.4-.3.5-.4.1 0 .1-.1.2-.1.2-.2.3-.3.5-.4.1 0 .1-.1.2-.1l.2-.2c.2-.1.3-.3.5-.4h.1c.1-.1.3-.2.4-.2.1-.1.2-.1.3 0 0 0 .1.1 0 .3 0 .1-.1.2-.1.3.2-.2.5-.4.9-.5.3-.1.5-.1.8-.2H35.7c.1 0 .3 0 .4.1 0-.1 0-.1-.1-.1-.3-.2-.6-.4-1.1-.3-.2 0-.2-.1-.2-.1 0-.1 0-.2.1-.2l.2-.2c.1-.2.3-.3.4-.5.2-.3.3-.5.4-.9v-.1c0-.2.1-.4.2-.6.2-.4.9-1.1 1.6-1.2h.1c.2 0 .4-.1.7 0 .4.1.5.2.6.5.1.2 0 .4 0 .7v.1c.1 0 .2-.1.2-.1.6-.3 1.3-.6 1.9-.8.2 0 .3-.1.5-.1.5 0 .7.3.8.5 0 .1.1.2.1.4l-.1.1h-.1c-.1 0-.1-.1-.1-.1v-.1.4c0 .2-.1.4-.2.6v.1c-.2.4-.5.8-.9 1.1-.1.1-.2.2-.3.2-.1 0-.1 0-.1-.1v-.2c0-.1 0-.2-.1-.4v.1c0 .1 0 .2-.1.3 0 .2-.1.5-.2.7-.1.2-.2.4-.4.6 0 .1-.1.1-.1.2-.1.1-.2.2-.3.2-.1 0-.1 0-.2-.1l-.1-.1v-.2c0-.2-.1-.4-.2-.5 0 .6-.5 1.4-1.2 1.8l-.1.1c-.2.2-.4.2-.6.2-.1 0-.2-.1-.3-.2 0-.1-.1-.1-.1-.2V17c-.1.2-.2.4-.4.6-.2.1-.4.3-.5.4-.1.1-.3.2-.4.1-.1-.1-.1-.2-.1-.3 0-.2-.1-.3-.4-.3h-.1V17.8c0 .3-.1.7-.2 1-.1.3-.3.5-.5.7-.2.2-.5.5-.9.6-.1.1-.3.1-.4.2-.1 0-.1 0-.2.1H32.3c.1 0 .2.1.3 0 .2 0 .3-.1.6-.2h.1c.1 0 .3-.1.4 0 .1.1 0 .3-.1.5-.2.3-.5.5-.7.6-.2.1-.3.2-.5.3-.1.1-.2.1-.4.2-.3.2-.5.4-.7.6-.4.5-.9.8-1.5.8-.1 0-.2 0-.2-.1s-.1-.1 0-.2c.1-.2.2-.5.4-.8.2-.3.4-.6.6-.8v-.1c-.1.2-.3.5-.5.7-.3.4-.7.8-1.2 1.1-.3.2-.6.2-.8.1-.1-.1-.3-.2-.3-.3-.1-.2 0-.3.1-.5.1-.3.4-.6.6-.9-.3.3-.6.6-1.1.9 0 0-.1 0-.1.1-.1 0-.1.1-.2.1-.2.1-.3.1-.5.1-.1 0-.2 0-.2.2 0 .1 0 .1-.1.2l-.3.3c-.1.1-.2.2-.2.3-.3.4-.7.6-1 .7-.1.1-.3.1-.4.2-.2.1-.3.1-.5.2h-.2c-.2.1-.3.2-.3.3v.1h-.2c-.4-.1-.8.2-.9.6v.1c.1.5 0 .7-.5 1.2-.4.4-.9.7-1.4.9-.4.2-.8.2-1.1.2.1-.3 0-.3-.1-.3.1 0 .1 0 0 0zm6.7-7.5h-.2c-.2 0-.4.1-.5.2 0 0-.1 0-.1.1-.3.2-.6.5-.9.7-.4.5-.6 1-.7 1.4-.1.3-.2.6-.4 1-.3.4-.7.7-1.2.9-.3.1-.5.1-.8.2H21c-.4.1-.8.1-1.3.5-.2.2-.4.3-.5.5-.2.2-.3.5-.3.8 0 .1 0 .2-.1.3-.1.2-.1.3 0 .4.1.1.2.2.4.2h.1c.3 0 .7-.1 1-.2.1 0 .2-.1.3-.2l-.1-.1c.2-.2.5-.4.7-.7.1-.1.2-.3.3-.4.1-.1.2-.3.3-.4l.3-.3c.1-.6.6-.9 1.1-.8 0-.2.2-.3.4-.4h.1c.2-.1.3-.1.5-.2.1-.1.3-.1.4-.2.3-.1.7-.3 1-.7.1-.1.2-.2.2-.3l.3-.3.1-.1c.1-.2.2-.3.4-.3.1 0 .3 0 .4-.1.1 0 .1-.1.2-.1 0 0 .1 0 .1-.1.5-.3.9-.6 1.2-1 .2-.3.3-.5.4-.7 0-.1.1-.2.2-.2h.1v.2c0 .1 0 .1-.1.2l-.3.6c.2.2.1.3 0 .3-.2.3-.4.6-.5.9-.1.1-.1.3-.1.3 0 .1.1.2.2.2.2.1.4 0 .7-.1.4-.2.8-.6 1.2-1 .2-.3.4-.5.6-.8l.1-.1h.1v.1c0 .1 0 .3-.1.4-.2.3-.4.6-.6.8-.2.3-.4.6-.4.8v.1c.5-.1 1-.3 1.4-.8.2-.2.4-.5.7-.7.1-.1.2-.2.4-.2.2-.1.3-.2.5-.3.3-.2.5-.4.7-.6.1-.1.1-.3.1-.3H33.5c-.2.1-.4.1-.6.2-.1 0-.3 0-.4-.1-.1-.1-.1-.1-.1-.2s.1-.1.2-.1h.1c.1 0 .1-.1.2-.1.1-.1.3-.1.4-.2.3-.2.6-.4.8-.6.2-.2.4-.4.5-.6.1-.3.2-.6.2-.9V16.8c0-.1 0-.1.1-.2s.1-.1.2-.1c.4 0 .5.3.5.5v.1s.1 0 .2-.1c.2-.1.3-.3.5-.4.2-.1.3-.3.4-.5v-.5c0-.1 0-.1.1-.2s.2 0 .2 0c.1.1.2.2.2.3 0 .1.1.1.1.1.1 0 .2 0 .4-.2l.1-.1c.6-.3 1.1-1.1 1.1-1.6 0-.1 0-.1.1-.3l.1-.1.1.1c.2.2.4.4.4.7v.2s.1 0 .1-.1.1-.1.1-.2c.1-.2.3-.4.3-.6.1-.2.1-.4.2-.7 0-.1 0-.2.1-.3 0 0 0-.1.1-.2.1 0 .2 0 .2.1.1.1.1.3.1.5v.1s.1 0 .2-.1c.3-.3.6-.7.8-1v-.1c.1-.2.2-.4.2-.5 0-.3 0-.6-.2-.7 0 0-.1-.1 0-.2v-.1h-.1c-.1 0-.3 0-.5.1-.6.2-1.3.5-1.9.8-.1 0-.2.1-.2.1-.1 0-.2.1-.3 0-.1-.1-.1-.1 0-.2v-.1c0-.2.1-.4 0-.6 0-.2-.1-.3-.4-.4h-.7c-.6.1-1.3.7-1.4 1.1-.1.2-.1.4-.2.5v.1c-.1.3-.2.6-.4.9-.1.2-.3.3-.4.5l-.2.2v.1c.6-.1.9.1 1.2.4.1.1.1.1.1.3 0 0 0 .1-.1.2s-.2 0-.2 0c-.1 0-.2 0-.4-.1H34.9c-.2 0-.5.1-.7.2-.4.1-.7.3-1 .6-.1.1-.1.2-.2.3 0 0 0 .1-.1.1l.1.7v-.4c0-.2 0-.3.1-.5 0-.1.1-.1.1-.2.1-.1.1-.2.2-.3v-.1h-.1c-.1.1-.3.1-.4.2h-.1c-.2.1-.3.2-.5.4l-.2.2c-.1 0-.1.1-.2.1-.2.1-.3.3-.5.4-.1 0-.1.1-.2.1-.2.2-.3.3-.6.4-.1 0-.1.1-.1.1h.6c.2 0 .4.1.6.2l.2.2h-.7c-.7 0-1.3.3-1.9.8l-.1.1-.3.3-.1.1v-.1c0-.1 0-.2.1-.2.1-.1.1-.2.2-.3 0-.1.1-.1.1-.2.1-.1.1-.2.1-.2h-.6c-.4.1-.8.3-1.2.7-.4.4-.8.8-1.2 1.4l-.1.1h.1c.3-.2.7-.2 1-.2 0 0 .1 0 .2.1v.1c0 .1-.1.1-.1.2-.3.2-.5.4-.8.6-.6.5-1 .9-1.3 1.4-.1.1-.1.2-.2.2-.1.1-.1.2-.2.3l.1.2v-.5c.1-.5.4-.9.9-1.4 0 0 .1-.1 0-.2.1.1.1 0 0 0zm-3.8 5.4c-.1.2-.2.3-.3.4-.1.1-.2.3-.3.4.2-.1.3-.3.4-.4.2-.1.2-.3.2-.4zm8.6-8.9zm0-.1zm6.2-1.2zm4-2.3zm1.3-2.6.1.1c0-.1 0-.1-.1-.1z"/><path fill="#010101" d="M24 31.3h-.2c-.2 0-.4 0-.5-.1-.1-.1-.1-.3-.1-.5.1-.1.1-.2.2-.4h-.1v-.1c0-.1.1-.2.2-.3l.1-.1.1-.1c.3-.4.6-.7 1-1 .2-.2.5-.3.7-.4.1-.1.1-.1.1-.2V28c0-.3-.1-.5 0-.8.1-.3.3-.5.6-.7.3-.2.6-.3.8-.4.1-.1.2-.1.4-.2.1 0 .1 0 .2-.1l.6-.3c-.2-.3-.3-.6-.3-1 0-.2.1-.5.2-.7 0 0 0-.1.1-.1H28c-.4.1-.7.1-1.1 0-.3-.1-.4-.3-.4-.5-.2.1-.4.3-.6.5-.2.1-.3.3-.5.4-.4.3-.8.5-1.4.8h-.1c-.2.1-.4.2-.6.1-.1 0-.1-.1-.1-.2s.1-.2.2-.2c.4-.2.7-.4 1.1-.5.7-.2 1.2-.6 1.5-1.1 0-.1.1-.1.2-.2s.1-.1.1-.2.1-.2.2-.3c.1-.1.2-.1.2-.1.3 0 .6-.2.9-.4l.1-.1c.4-.3.8-.7 1.1-1.1.1-.1.1-.2.1-.3 0-.1.1-.2.1-.2 0-.1.1-.2.2-.2s.2.1.2.1c.1.1 0 .3 0 .5-.1.3-.4.7-.6 1-.2.2-.3.5-.5.8v.3c0 .1.1.1.2.1.3 0 .7-.1 1.1-.5.5-.5.9-1 1.2-1.6 0 0 0-.1.1-.1s.2 0 .2.1c.1.2.1.4-.1.7-.2.3-.4.7-.7 1-.1.2-.2.3-.3.5.5-.1 1-.3 1.3-.8.3-.4.6-.6 1.1-.9h.1c.4-.2.7-.4 1-.8l.1-.1v-.1h-.1c-.2-.2-.5-.1-.9-.1-.1 0-.3 0-.4-.3 0-.1 0-.2.2-.3.1 0 .1-.1.2-.1s.2-.1.3-.1c.6-.2 1.2-.6 1.5-1.2.2-.3.3-.7.2-1.1v-.1c0-.1 0-.2-.1-.2v-.1s.1-.1.2-.1c.3-.1.5 0 .7.1.1.1.2.2.2.4 0 0 .1 0 .1-.1l.1-.1c.1-.1.3-.2.4-.3.2-.1.3-.4.3-.6v-.6c0-.1.1-.2.1-.2h.2c.1.1.3.2.3.3 0 .1.1.1.1.1.1 0 .2 0 .4-.2l.2-.2c.1-.1.3-.2.4-.3.4-.4.6-.9.6-1.4-.1-.1-.1-.2 0-.2.1-.1.2 0 .3 0 .2.1.3.3.4.5.1.2.1.4 0 .6.1-.1.1-.2.2-.3.1-.2.2-.3.3-.5.1-.4.2-.7.2-1 0-.1 0-.1.1-.2s.2 0 .2 0c.2.1.3.3.3.6.5-.5.8-1 1-1.4.1-.4.1-.7-.1-.8l-.1-.1s0-.1-.1-.1l-.1-.1v-.1c0-.1.1-.1.2-.1.2 0 .3.1.4.2.2.1.3.4.3.6 0 .3-.1.7-.3 1-.2.4-.5.8-.8 1.1-.1.1-.2.2-.3.2-.1 0-.1.1-.2.1.3.5.2.6.3.7 0 .1.1.1.1.2.1.1.1.1.1.2 0 0 0 .1-.1.2-.2 0-.2 0-.3.2l-.1.2-.6.9c-.2.4-.6.8-1.1 1-.3.2-.8.2-1.1.1-.1 0-.1-.1-.1-.1 0-.1 0-.2.1-.2.1-.2.2-.3.2-.4-.4.4-.8.8-1.2 1.1h.2c.1 0 .1.1.1.2 0 .3 0 .7-.3 1.2-.2.4-.4.7-.8.9-.2.1-.4.2-.5.3h-.3s-.1-.1-.1-.3c.1-.3.1-.5.2-.8v-.1c-.1.1-.2.3-.3.4-.2.2-.4.5-.6.7h.1c.1.1.1.2.1.2 0 .4-.3.9-.5 1.2-.3.5-.7.9-1.1 1.2-.3.2-.6.3-.9.3 0 0-.2 0-.2-.1-.1-.1 0-.2 0-.3.1-.1.2-.3.2-.4-.4.4-.8.7-1.3 1-.2.1-.3.2-.5.3-.2.1-.4.3-.7.4-.4.3-.6.5-.5.8v.9c0 .4-.2.7-.5 1-.3.3-.3.4-.2.5l.1.1c.2.1.3.4 0 .8-.4.5-.7.7-1.2.7-.2 0-.3-.1-.4-.2-.1-.1-.2-.1-.4-.2h-.1v.2c-.1.2-.1.3-.2.5s-.4.4-.6.6c.1 0 .1 0 .2.1s.2.2.2.3c0 .2-.2.5-.4.7-.4.4-1 .7-1.7.8zm-.1-.2h.2c.6-.1 1.1-.4 1.8-.8.2-.2.4-.4.4-.6 0-.1 0-.2-.1-.2s-.1-.1-.2 0-.2.2-.4.2c-.2.1-.3.1-.4 0-.1-.1-.1-.2-.1-.2 0-.1.1-.1.2-.2s.2-.1.3-.1c.2 0 .3-.1.5-.1.3-.1.5-.3.6-.6.1-.2.1-.3.2-.5v-.1c0-.1.1-.2.1-.2h.2c.1.1.3.1.4.2.1.1.2.1.4.1.4 0 .7-.1 1-.6.2-.4.1-.5.1-.6l-.1-.1c-.2-.2-.1-.5.2-.8.3-.3.5-.5.4-.9v-.9c0-.4.2-.7.6-1 .2-.1.4-.3.7-.4.2-.1.3-.2.5-.3.5-.3.9-.6 1.3-1 0 0 .1-.1.2-.1 0 0 .1 0 .1.1v.2c-.1.2-.1.3-.2.5v.1h.1c.2 0 .5-.1.8-.3.4-.3.8-.7 1.1-1.2.2-.3.4-.7.4-1.1v-.1h-.1s-.1.1-.2.1h-.1v-.1c0-.1.1-.2.1-.2.2-.3.5-.6.7-.8.1-.2.3-.4.4-.5H36.3v.5c-.1.3-.1.5-.2.8v.1h.1c.1 0 .3-.1.5-.2.3-.2.5-.5.7-.8.2-.4.3-.7.2-1.1v-.1l-.2.1h-.1c-.1 0-.2 0-.2-.1s.1-.2.1-.2c.5-.3 1-.7 1.4-1.2 0 0 .1-.1.2-.1 0 0 .1 0 .1.1v.2c0 .2-.1.4-.3.6 0 .1-.1.1-.1.1.2.1.6.1.9-.1.5-.3.8-.7 1-1 .2-.3.4-.6.6-.8l.2-.3c.1-.2.2-.2.4-.2 0 0 0-.1-.1-.1l-.2-.2c-.1-.2-.1-.4.1-.5.1 0 .1-.1.2-.1.1-.1.2-.1.3-.2.3-.3.6-.7.8-1.1.1-.3.3-.6.3-.9 0-.2-.1-.4-.2-.5-.1-.1-.1-.1-.2-.1v.2c.3.2.2.7.1 1-.2.5-.5.9-1 1.5 0 0-.1.1-.2.1s-.1-.1-.1-.2c.1-.3-.1-.4-.2-.5v.1c0 .3-.1.6-.2 1-.1.2-.2.4-.3.5-.1.1-.1.2-.2.3 0 .1-.1.1-.2.1h-.1V14c-.1-.2-.2-.3-.3-.4v.1c0 .5-.2 1-.6 1.5-.1.1-.3.2-.4.3-.1 0-.1.1-.2.2-.2.2-.4.2-.5.2-.1 0-.2-.1-.2-.2s-.1-.2-.3-.2v.6c0 .2-.1.6-.4.8-.1.1-.3.2-.4.3l-.1.1c-.1.1-.2.2-.3.1-.1 0-.1-.2-.1-.2 0-.1 0-.2-.1-.3-.1-.1-.3-.1-.5-.1 0 .1.1.2.1.3v.1c.1.4 0 .8-.3 1.2-.4.6-.9 1-1.6 1.3-.1 0-.2.1-.3.1-.1 0-.1.1-.2.1s-.1 0-.1.1.1.1.2.1c.3 0 .6-.1.8-.2.1-.1.3-.1.3 0 .1.1 0 .2 0 .3 0 .1-.1.1-.1.2-.3.4-.7.6-1 .8h-.1c-.5.3-.8.6-1.1.9-.4.5-.8.7-1.4.8h-.2c-.1-.1 0-.2 0-.2l.3-.6c.3-.4.5-.7.7-1 .1-.2.2-.4.1-.5-.3.6-.7 1.2-1.3 1.7-.4.4-.9.6-1.2.5-.1 0-.3-.1-.3-.2-.1-.1-.1-.3 0-.4.2-.3.3-.6.5-.8l.6-.9c0-.1.1-.2.1-.3l-.1.1v.1c0 .1-.1.1-.1.2s-.1.2-.1.3c-.3.5-.7.9-1.1 1.2l-.1.1c-.3.2-.6.4-1 .4h-.1c-.1 0-.1.1-.1.2s-.1.2-.1.3l-.2.2c-.4.5-.9.9-1.6 1.2-.3.1-.6.3-1 .5-.1 0-.1 0-.1.1h.1c.1 0 .3 0 .4-.1h.1c.6-.3 1-.5 1.4-.8.2-.1.3-.3.5-.4.2-.2.4-.3.6-.5.1-.1.2-.1.2-.1.1 0 .1.1.1.2 0 .2.1.3.3.4.3.1.6.1 1 0h.3c.1.1 0 .2-.1.3-.1.2-.2.5-.2.7-.1.3 0 .6.3.9l.1.1-.1.1c-.2.2-.5.3-.7.4-.1 0-.1 0-.2.1s-.3.1-.4.2c-.3.1-.5.2-.8.4-.3.2-.4.4-.5.6-.1.3-.1.5 0 .7v.1c0 .2 0 .2-.2.3-.3.1-.5.3-.7.4-.4.3-.7.7-1 1l-.1.1-.1.1v.1l.1.1c0 .1-.1.1-.1.2 0 0 0 .1-.1.1-.1.1-.1.3-.2.4 0 .2 0 .3.1.3-1.2-.4-1.1-.4-.8-.4-.1 0-.1 0 0 0zm-.4-1zm1.6-.5h.3c.1-.1.2-.1.3-.2-.1 0-.2.1-.3.1-.1 0-.2 0-.3.1zm5.9-9.3zm10.3-5.9zm-2.3-.7zm0-.1z"/><path fill="#010101" d="M19.2 27.8c-.3 0-.5-.1-.6-.5-.2-.5-.1-1.1.3-1.7.1-.2.3-.4.4-.5l.3-.3h.1c.2-.2.4-.3.6-.4.1 0 .1-.1.2-.1.3-.1.5-.2.8-.3.4-.1.6 0 .8.1.1 0 .2 0 .3-.2.2-.3.3-.6.4-1 .1-.2.1-.4.2-.7.1-.3.2-.6.2-.9.2-.6.4-1 .8-1.4.3-.3.7-.6 1.2-.7.2-.1.3-.1.4-.1.1 0 .1-.1.1-.1 0-.3.1-.7.4-1.1.3-.5.7-.9 1.3-1.2.6-.4 1.2-.5 1.8-.2h.1s0-.1.1-.1c.1-.3.3-.7.7-1 .4-.3.9-.6 1.3-.8.2-.1.5-.2.7-.3.4-.2.8-.4 1.1-.6.3-.2.6-.4.8-.7.4-.4.7-.8 1-1.3.3-.5.6-.9 1-1.2.4-.4.9-.6 1.5-.8.3-.1.6-.1.9-.1h.1c.3.1.5.3.7.6v.2l-.1.2v-.2c-.1-.3-.3-.4-.8-.3-.2 0-.4.1-.6.1-.5.2-1.1.7-1.2 1.2 0 .1 0 .2-.1.3-.1.2-.1.5-.2.8-.1.3-.4.5-.6.8l-.1.1-.1.1H35.7c.4 0 .7.2.9.4.1.1.1.2.1.4v.1c0 .1 0 .1-.1.2-.1 0-.1.1-.2 0-.3-.1-.7-.1-1.2-.1s-1 .1-1.5.5c-.3.2-.4.5-.4.7 0 0 0 .1-.1.2H33l-.1-.1c0-.2 0-.4.1-.7 0-.1.1-.1.1-.2.1-.1.1-.2.2-.3-.3.2-.6.3-.9.6-.1.1-.2.2-.4.3v.2c-.2.1-.4.3-.5.4-.1.1-.3.2-.4.4-.1.1-.1.1-.2.1h.5c.3 0 .5.1.8.3l.1.1v.1c-.1.1-.2.1-.2.1h-.8c-.5.1-1 .3-1.4.7l-.1.1c-.2.1-.3.3-.4.4-.1.1-.1.1-.2.1 0 0-.1 0-.1-.1v-.1c0-.1.1-.2.2-.4.1-.1.2-.3.3-.4l.1-.1c-.2-.1-.5 0-.8.1-.6.3-1.1.8-1.6 1.3 0 .1-.1.1-.1.2-.1.1-.2.2-.3.4.3-.2.7-.2 1.1-.2.1 0 .1 0 .2.1v.1c0 .1-.1.2-.2.2-.2.1-.3.2-.5.3-.4.2-.7.5-1.1 1-.4.4-.7.9-1 1.4 0 0 0 .1-.2.1h-.1v-.1c0-.3.1-.6.3-1 .2-.4.5-.7.7-.9H26c-.5.1-.9.4-1.2.8-.5.4-.8 1-1 1.7-.1.4-.2.7-.4 1-.2.3-.5.6-.9.8-.4.2-.9.3-1.3.3-.2 0-.5.1-.7.2-.4.2-1 .6-1.1 1.1-.4.1-.4.3-.4.4 0 .2-.1.4-.1.6 0 .1 0 .1.1.2.1 0 .1.1.2.1h.1l.3.1-.4.1zm2.3-3.6h-.2c-.3 0-.5.1-.7.3-.1 0-.1.1-.2.1-.2.1-.4.2-.6.4h-.1l-.3.3c-.1.1-.3.2-.4.4-.3.5-.5 1-.3 1.4 0-.1.1-.3.1-.4 0-.2.1-.3.1-.5.2-.5.8-1 1.2-1.2.3-.1.5-.2.8-.2.5 0 .9-.1 1.3-.3.4-.2.7-.5.9-.8.2-.3.3-.6.3-.9.2-.7.5-1.3 1-1.8.4-.3.8-.7 1.3-.8.1 0 .2 0 .3.1 0 .1 0 .2-.1.2-.2.2-.5.5-.7.9-.1.4-.2.6-.2.9.2-.5.6-1 1-1.4.4-.4.8-.7 1.1-1 .2-.1.3-.2.5-.3l.1-.1c-.4 0-.8.1-1.1.2 0 0-.1.1-.2.1 0 0-.1 0-.1-.1-.1-.1 0-.2.1-.2.1-.2.2-.3.4-.5 0-.1.1-.1.1-.2.5-.5.9-1.1 1.6-1.3.3-.1.6-.2.9-.1.1 0 .1.1.1.1v.2l-.1.1c-.1.1-.2.3-.3.4 0 .1-.1.1-.1.2l.4-.4.1-.1c.5-.4 1-.7 1.5-.8.3-.1.6-.1.8 0-.2-.1-.4-.2-.7-.2h-.8v-.1c0-.1.1-.1.1-.1h.1c.1 0 .1-.1.2-.1.1-.1.3-.2.4-.4l.5-.5.1-.1c.1-.1.2-.2.4-.3.3-.3.6-.5.9-.6 0 0 .2-.1.3 0 .1 0 .1.1 0 .2s-.1.2-.2.3c0 .1-.1.1-.1.2-.1.2-.1.4-.1.5 0-.3.2-.6.5-.8.6-.5 1.1-.5 1.6-.6.5 0 .9 0 1.3.1v-.1c0-.1 0-.2-.1-.2-.2-.2-.5-.4-.8-.4H35c-.1 0-.2 0-.2-.1s0-.2.1-.2l.2-.2.1-.1c.2-.2.4-.5.6-.7.1-.2.2-.5.2-.7 0-.1 0-.2.1-.3.1-.5.8-1.1 1.3-1.3.2-.1.4-.1.6-.1h.4s-.1 0-.1-.1c-.3 0-.6 0-.8.1-.6.1-1 .4-1.4.7-.3.3-.6.7-.9 1.2-.3.5-.6.9-1 1.3-.2.3-.5.5-.8.7-.4.2-.8.4-1.1.6-.2.1-.5.2-.7.3-.5.2-.9.5-1.3.8-.3.3-.5.5-.7.9-.1.2-.1.3-.3.2-.4-.1-.9-.2-1.7.2-.5.3-.9.7-1.2 1.1-.3.4-.4.7-.4 1 0 .1 0 .2-.2.3-.1 0-.3.1-.4.1-.5.2-.9.4-1.2.7-.3.3-.6.8-.8 1.3-.1.3-.2.6-.2.8-.1.2-.1.4-.2.7-.1.3-.2.7-.4 1-.1.3-.3.3-.6.3-.1-.1-.3-.2-.5-.2zm7.9-6.6z"/><path fill="#B4B4B4" d="M35.7 18.2v.4c-.1.3-.1.5-.2.8-.1.2.1.3.3.2.4-.2.7-.4.9-.8.2-.4.4-.8.4-1.2 0-.2 0-.2-.3-.1h-.1c-.1 0-.2 0-.2-.1s.1-.2.2-.2c.6-.4 1.1-.8 1.6-1.3l.1-.1c.1 0 0 .1.1.1 0 .2-.1.5-.3.8-.1.1-.1.2 0 .2.5.2 1.1-.2 1.5-.6.4-.4.6-.9.9-1.3.1-.2.2-.3.3-.5 0-.1.1-.1.2-.1s.1.1.1.1v.1c.1.3 0 .6-.2 1-.3.5-.6.9-1.1 1.2-.7.5-1.4.8-2.1.9 0 0-.1 0-.1.1v.1c.1.1.2.2.2.3.1.6-.1 1.3-.6 2-.3.4-.6.7-1 .9-.3.1-.5.2-.8.1-.2-.1-.3-.1-.4-.3-.1-.1-.1 0-.1 0-.1.2-.2.5-.3.7-.1.3-.3.6-.5.8-.6.6-1.2 1-1.9.8-.2 0-.5-.1-.7-.1-.3 0-.5.1-.8.3-.1.1-.2.2-.4.3-.3.2-.4.5-.4.7v.3l.3.9c0 .3-.2.6-.5.8-.2.1-.2.1-.1.3.4.3.2.8-.3 1.3-.6.5-1.2.8-1.8 1.1-.2.1-.4.1-.6.1-.2 0-.2 0-.1.1v.6c-.1.3-.3.6-.5.9-.6.6-1.2.9-1.9 1h-1.1c-.1 0-.1 0-.2.1-.2.1-.4.1-.6.3l-.1.1v-.1l.1-.1c.4-.4.7-.9.9-1.4.1-.1.1-.3.2-.4.1-.1.2-.3.4-.4-.1.4-.4.7-.5 1-.1.3-.1.5.2.5h.4c.6-.1 1.2-.4 1.8-.9.4-.3.4-.6.1-.8-.1 0-.2 0-.3.1-.3.2-.6.3-.8.2-.1 0-.2 0-.1-.1 0-.1.1-.1.2-.2.2-.1.4-.1.6-.2.4-.1.7-.4.9-.8.1-.2.2-.4.2-.6 0-.1.1-.1.2-.1l.6.3c.1.1.2.1.4.2.4 0 .7-.2 1-.6.2-.2.2-.5 0-.6l-.2-.2c-.2-.2-.1-.4.2-.7.4-.3.5-.6.5-.9 0-.3 0-.5-.1-.8 0-.4.2-.7.6-1 .5-.3.9-.6 1.4-.9.4-.3.8-.6 1.1-.9 0-.1.1-.1.2-.1s.1.1.1.1c0 .2-.1.4-.2.6-.2.3-.1.3.1.3.4 0 .7-.3 1-.6.5-.5.8-1 1.1-1.6.1-.2.1-.3.1-.5 0-.1 0-.1-.1 0s-.2.2-.3.2c-.1 0-.1 0 0-.1s.2-.2.2-.3c.4-.4.7-.9 1-1.3 0 0 0-.1.1-.1-.1-.4-.1-.4-.1-.3z"/><path fill="#010101" d="M22.2 32.2c-.1 0-.1-.1-.1-.1 0-.1.1-.1.1-.2 0 0 .1 0 .1-.1.4-.4.7-.9.9-1.3 0 0 .1-.1.1-.2s.1-.2.1-.2l.1-.1c.1-.1.1-.2.3-.3l.2-.2v.2l-.3.6c-.1.1-.1.3-.2.4-.1.1-.1.2 0 .3 0 0 .1.1.2.1h.4c.6-.1 1.2-.4 1.7-.9.2-.2.3-.3.3-.5 0-.1-.1-.1-.1-.2 0 0-.1 0-.1.1-.2.2-.6.4-.9.2-.1 0-.2-.1-.1-.2 0-.1.2-.2.2-.2.2-.1.3-.1.5-.2h.1c.4-.1.7-.4.9-.7.1-.2.2-.4.1-.5 0-.1 0-.1.1-.2s.2 0 .2 0c.2 0 .3.1.5.2 0 0 .1.1.2.1.1.1.2.1.3.1.4 0 .6-.1.9-.6.2-.3.1-.4 0-.5-.1 0-.1-.1-.1-.2v-.1c-.1-.1-.3-.4.2-.8.3-.3.5-.5.4-.9v-.7c0-.4.2-.8.7-1.1.2-.1.4-.3.6-.4.3-.2.5-.3.8-.5.4-.3.8-.5 1.1-.9 0-.1.1-.1.2-.1s.1 0 .1.1c.1.1 0 .1 0 .2 0 .2-.1.4-.2.6 0 .1-.1.1-.1.1h.1c.4 0 .7-.3 1-.6.5-.4.8-.9 1-1.6 0-.1.1-.2.1-.4l-.2.2-.2.1.1-.1c0-.1 0-.1.1-.2l.2-.2c.4-.5.7-.9 1-1.3V18s.1-.1.1 0c.1 0 .1.1.1.1v.4c0 .2-.1.3-.1.5 0 .1-.1.2-.1.3v.1h.2c.4-.2.7-.4.9-.8.3-.5.4-.8.4-1.2v-.1s-.1 0-.1.1c-.1 0-.1 0-.2.1h-.2l-.1-.1c0-.1.1-.2.2-.3.6-.3 1.1-.8 1.6-1.3 0 0 .1-.1.2-.1s.1.1.1.2c0 .2-.1.5-.3.8v.1c.5.2 1-.2 1.4-.6.3-.3.5-.6.7-.9.1-.1.2-.2.2-.4.1-.2.2-.3.3-.5 0-.1.1-.1.2-.1s.2 0 .2.1c.1.3 0 .7-.2 1-.3.5-.6.9-1.2 1.2-.7.5-1.4.8-2.2.9v.1c.1.1.1.2.1.3.1.6-.1 1.4-.6 2.1-.3.4-.6.7-1 .9-.3.1-.6.2-.8.1-.1 0-.3-.1-.4-.3-.1.1-.2.3-.2.5 0 .1-.1.2-.1.2v.1c-.1.3-.3.5-.5.8-.7.7-1.3 1-2 .8-.1 0-.2 0-.3-.1-.1 0-.3-.1-.4-.1-.3 0-.5.1-.7.3-.1.1-.2.2-.4.3-.3.2-.3.5-.3.7V24.5c0 .1.1.2.1.3.1.2.1.4.2.7 0 .3-.2.6-.5.9l-.1.1c.2.1.2.3.2.5 0 .3-.2.6-.5 1-.5.5-1.1.8-1.9 1.1-.2.1-.4.1-.5.1h-.2v.6c-.1.3-.2.6-.6.9-.6.6-1.2.9-1.9 1H23.4c-.2.1-.4.2-.5.3-.5.1-.6.2-.7.2zm1.2-1.7c-.2.4-.5.9-.9 1.3.1-.1.2-.1.4-.2.1 0 .1-.1.2-.1h1.1c.7-.1 1.3-.5 1.8-1 .3-.3.5-.6.5-.8V29c0-.1.1-.1.2-.1h.1c.2 0 .3 0 .5-.1.7-.2 1.3-.6 1.8-1 .3-.3.5-.6.5-.8 0-.1-.1-.3-.2-.3 0-.1-.1-.1-.1-.2s.1-.1.2-.2c.3-.2.5-.5.5-.7 0-.2-.1-.4-.2-.6 0-.1-.1-.2-.1-.3V24.4c0-.2.1-.5.4-.8.1-.1.2-.2.4-.3.2-.2.5-.3.8-.3.2 0 .3.1.5.1.1 0 .2 0 .3.1.6.1 1.2-.1 1.9-.8.2-.2.3-.5.5-.7v-.1c0-.1.1-.2.1-.2.1-.2.1-.3.2-.5l.1-.1s.1 0 .1.1c.1.1.2.2.4.2.2.1.5 0 .7-.1.4-.2.7-.5 1-.8.5-.7.7-1.4.6-2 0-.1 0-.2-.1-.2v-.1s-.1-.1 0-.2c0-.1.1-.1.2-.1.7-.1 1.4-.4 2.1-.9.5-.3.9-.7 1.1-1.2.2-.3.3-.6.2-.9l-.1.1c-.1.2-.2.3-.3.5-.1.1-.2.2-.2.4-.2.3-.4.7-.7 1-.4.5-1 .9-1.6.6-.1 0-.1-.1-.2-.1 0-.1 0-.2.1-.2.2-.3.3-.5.3-.7-.5.6-1 1-1.6 1.4l-.1.1h.2c.1-.1.2-.1.3-.1.1 0 .1.1.1.2 0 .4-.1.8-.4 1.3-.2.4-.5.6-.9.8-.2.1-.3.1-.4 0-.1-.1-.1-.2-.1-.3 0-.1.1-.2.1-.3 0-.1.1-.3.1-.4 0-.1.1-.2 0-.3v.1c-.2.4-.6.9-1 1.3 0 0 .1-.1.2-.1s.1.1.1.2v.1c0 .1 0 .3-.1.4-.3.6-.6 1.2-1.1 1.6-.3.3-.6.6-1.1.6-.2 0-.3 0-.3-.1-.1-.1 0-.2.1-.3.1-.2.2-.4.2-.5 0 0-.1 0-.1.1-.3.4-.8.7-1.2 1-.3.2-.5.3-.8.5-.2.1-.4.2-.6.4-.4.3-.6.6-.6.9v.7c0 .4-.1.7-.5 1-.3.2-.3.4-.2.6v.1l.1.1c.1.1.2.3 0 .7-.3.4-.6.7-1 .6-.2 0-.3-.1-.4-.1-.1 0-.1-.1-.2-.1-.1-.1-.3-.2-.4-.2 0 .2-.1.4-.2.6-.2.4-.5.7-1 .8h-.1c-.2 0-.3.1-.4.1-.1 0-.1.1-.2.1.2.1.4 0 .7-.2.1-.1.2-.1.3-.1.1.1.2.2.2.3 0 .2-.1.4-.4.6-.6.5-1.2.8-1.8.9h-.4c-.2 0-.3-.1-.3-.2-.1-.1-.1-.3 0-.4.1-.1.1-.2.1-.2zM17.4 31.1c-.2-.1-.2-.2-.3-.3v-.4c0-.4.2-.8.5-1.2.3-.4.7-.6 1.1-.7h.4c.5-.1.6.2.7.4v.3s0 .1-.1.1l-.1.1c-.3.4-.6.8-1 1.1-.3.4-.6.5-1 .5-.1.1-.1.1-.2.1zm-.1-.4c0 .1 0 .1 0 0 .1.1.1.2.1.2s.1-.1.2-.1c.3 0 .6-.1 1-.4.4-.3.7-.7 1-1.1l.1-.1V29c0-.1-.1-.3-.5-.3h-.4c-.4 0-.7.2-1 .6-.3.4-.5.8-.5 1.1V30.7z"/><path fill="#010101" d="m17.2 31.1-.1-.3c-.2-.5-.1-1 .3-1.5 0 0 0-.1.1-.1.1-.1.1-.3.3-.4.4-.4 1-.6 1.5-.5.3.1.6.4.7.7h-.3c-.1-.2-.2-.2-.6-.2h-.2c-.1 0-.2 0-.3.1-.4.2-.7.4-1 .9-.2.3-.2.6-.3.9l-.1.4zm1.7-2.7c-.3 0-.8.2-1.1.5-.1.1-.2.2-.2.3 0 0 0 .1-.1.1-.2.3-.3.6-.3.9 0-.1.1-.3.2-.4.3-.5.6-.8 1.1-1 .1-.1.3-.1.4-.1H19.5c-.1-.1-.2-.2-.3-.2-.1-.1-.2-.1-.3-.1zM15.2 30.3h-.1c-.1 0-.2-.1-.3-.2-.2-.3-.1-.6.1-.9.1-.2.3-.3.4-.4l.6-.3c.2 0 .4 0 .5.1.1.1.1.3.1.4 0 .1-.1.2-.1.3 0 .2-.3.5-.5.6-.2.3-.4.4-.7.4zm.8-1.6h-.1c-.2 0-.3.1-.5.2s-.3.2-.4.3c-.2.3-.2.5-.1.7 0 .1.1.1.2.1.2 0 .4 0 .7-.2.2-.1.4-.4.4-.5 0-.1.1-.2.1-.3v-.3H16zM22.9 31.8c-.1 0-.1-.1-.1-.1v-.1h.1c.2-.1.4-.1.6-.1H24.2c.7-.1 1.7-.6 2.2-1.4.2-.3.2-.5.2-.8V29c0-.1.1-.1.3-.1h.1c.5-.1 1.1-.3 1.7-.7.4-.3.7-.5.9-.8.2-.3.1-.5 0-.6v-.1l-.2-.3.3.2c.2.1.3.2.3.4 0 .3-.1.7-.5 1-.8.7-1.6 1.1-2.4 1.2H27v.1c.1.5-.1 1-.6 1.5s-1.1.8-1.8 1h-1.7c.1 0 .1 0 0 0 .1 0 .1 0 0 0zM29.9 24.9l-.1-.2c-.1-.3-.1-.6.1-.9.2-.3.4-.4.7-.6.5-.3.9-.2 1.2-.1.4.1.8.1 1.3-.1.5-.3.8-.6 1-.9.2-.3.3-.5.4-.8 0-.1 0-.1.1-.2v-.2c0-.1.1-.2.2-.2.1-.1.2 0 .3.1 0 0 .1 0 .1.1.1 0 .1.1.2.1l.1.2h-.2c-.2 0-.3-.1-.5-.2-.1.2-.2.4-.3.5-.1.1-.1.3-.2.4-.3.5-.7 1-1.4 1.3-.5.2-.9.2-1.2.1-.1 0-.3-.1-.5-.1s-.4 0-.6.1c-.2.1-.4.2-.5.4-.2.2-.3.4-.3.7V24.7l.1.2zM23.8 29.8l-.1-.1c.2-.3.5-.6.8-.9.3-.3.7-.5 1.1-.8l.1-.1v-.4c0-.2 0-.4.1-.7.1-.3.3-.4.5-.6.3-.2.6-.3.8-.4.1 0 .1-.1.2-.1.3-.1.7-.3 1-.5l.3-.2-.2.4c-.1.1-.2.2-.3.2-.3.2-.5.3-.8.4-.2.1-.3.1-.5.2-.9.4-1 .9-.9 1.4v.1c.1.4 0 .4-.4.6-.5.3-.9.6-1.4 1.2 0 .1-.1.1-.2.1 0 .1-.1.1-.1.2zM37.8 18.3l-.1-.3c0-.1-.1-.2-.2-.3 0 0-.1-.1 0-.2s.1-.1.2-.1c.9-.2 1.7-.5 2.4-1.1.7-.6 1-1.2 1-1.8v-.1l.1-.4.1.3c.1.4 0 .9-.4 1.4-.4.5-.8.8-1.2 1.1-.6.4-1.2.6-1.9.8v.1c.1.1.1.2.1.3l-.1.3z"/><path fill="#010101" d="M21.2 32.9s-.1 0-.1-.1c-.1-.1 0-.2.1-.2l.3-.3c.7-.5 1.2-1 1.6-1.8 0-.1.1-.1.1-.2h.1c.1 0 .1 0 .1.1v.1c-.2.4-.5.8-.8 1.2.1-.1.2-.1.3-.1l.4.1-.3.1c-.3.1-.6.3-1 .6-.2.2-.4.3-.6.5h-.2zM41.2 14.6l-.1-.1c0-.1-.1-.1-.2-.2s-.2-.2-.2-.3c0-.2.1-.3.4-.5.6-.5 1.1-1.1 1.4-1.9V11.3l.2-.1v.1c0 .2 0 .4-.1.6-.2.5-.5.9-.8 1.2-.2.3-.5.5-.7.6-.1.1-.1.2-.1.2 0 .1.1.1.1.2.1.1.1.2.1.3v.2zM17.9 31.3h-.3c-.1 0-.2-.1-.3-.2V31l.1-.1c.1-.1.2 0 .2 0 .5.2 1.1-.3 1.3-.5.1-.1.2-.2.3-.2l.2.1-.1.1c-.2.5-.9.9-1.4.9zM19.7 29.9c-.1 0-.1 0-.1-.1v-.1c0-.1 0-.2.1-.3 0-.1.1-.1.1-.2l.2-.1v.2c-.1.1-.1.3-.3.6z"/><path fill="#010101" d="M19.4 30.4c-.1 0-.1 0-.2-.1v-.2c0-.1.1-.1.1-.2.1-.1.1-.2.2-.2 0-.1.1-.1.2-.1h.1v.1c-.1.3-.2.5-.4.7zM23.2 30.7v-.5c0-.1.1-.1.1-.2l.3-.3-.1.3c-.1.1-.1.3-.2.4l-.1.3zM20.5 27.5c-.1 0-.1 0 0 0-.1 0-.1 0-.1-.1s.1-.2.1-.2c.5-.4.8-.7 1-1.1l.6-.9.1-.1s.1 0 .1.1v.2c0 .3-.1.6-.4.9-.4.4-.9.7-1.3.9 0 .3-.1.3-.1.3zm1.7-2c-.2.2-.4.5-.5.8-.2.3-.4.5-.7.8.3-.2.6-.4.9-.7.3-.3.4-.5.4-.7-.1-.1-.1-.2-.1-.2zM34.3 19.8v-.1c0-.1.1-.2.2-.2.3-.3.5-.6.7-.9.1-.1.1-.2.2-.3l.2-.3-.1.4c0 .1-.1.3-.2.4l-.1.1c-.2.4-.5.7-.8 1l-.1.1v-.2zM23.8 31.3c-.2 0-.3 0-.4-.1-.1-.1-.2-.2-.1-.3 0-.1 0-.1.1-.2l.2-.2v.6s.2.1.3.1H24.2l.1.1-.2.1c-.1-.1-.2-.1-.3-.1z"/><path fill="#010101" d="M34.2 20.2c-.1 0-.1 0-.1-.1s0-.1.1-.2l.1-.1c0-.1.1-.1.1-.2l.3-.2-.1.3c0 .1-.1.1-.1.2l-.1.1v.1h-.1l-.1.1z"/><path fill="#010101" d="m34 20.1.2-.2h.1c.1-.1.2-.1.3-.2l.3-.1-.2.3c-.1.1-.2.2-.4.2H34zM35.8 18.4l-.1-.1-.2.1v-.2c0-.2.1-.2.2-.2h.1v.4zM21.3 32.9l-.1-.2 1.4-1.2-.1.3c0 .1-.1.1-.1.1l-.1.1-.2.2c-.2.2-.4.3-.6.5 0 .1-.1.1-.2.2.1-.1.1-.1 0 0zM17.9 31.3h-.2c-.1 0-.2-.1-.2-.1l-.1-.1V31c.1-.1.2-.1.2-.1.3 0 .6-.1 1.1-.5.3-.2.5-.5.8-.9l.1-.1s0-.1.1-.1c0 0 .1 0 .2.1v.2c0 .1-.1.2-.1.3l-.4.6c-.1 0-.1.1-.2.1-.1.1-.2.2-.4.3-.3.2-.6.4-.9.4zm-.4-.4c.1.1.1.1.2.1.3.1.7 0 1-.3.1-.1.2-.2.4-.3.1 0 .1-.1.2-.1l.3-.5c0-.1 0-.2.1-.3 0 0 0 .1-.1.1-.3.4-.6.7-.8.9-.3.2-.8.5-1.3.4zM15.2 30.2c-.2 0-.3-.1-.3-.3 0-.2.1-.6.3-.7l.1-.1h.1c.3-.3.5-.3.8-.1.1.1.3.3.1.6-.2.3-.5.5-.8.6h-.3zm.6-1.2c-.1 0-.2.1-.4.2h-.1l-.1.1c-.1.1-.3.4-.3.5 0 .1.1.2.3.1.2 0 .5-.3.7-.5.1-.2.1-.3-.1-.4.1.1.1 0 0 0z"/></svg>