<svg version="1.2" baseProfile="tiny" xmlns="http://www.w3.org/2000/svg" viewBox="0 0 45 45" overflow="visible" xml:space="preserve"><path fill="#DAA628" d="M-4.5-4.5h576v99h-576z"/><path fill="none" d="M44.7 0h45v45h-45z"/><path fill="#DAA628" d="M0 0h45v45H0z"/><path fill="none" stroke="#FFF" stroke-width="2" stroke-miterlimit="10" d="m14.6 6 16.9 16.8-1.6 1.7-.7-.4-2.4 2.4 1.4 1.7-1.7-1.5-2.8 2.6.8.7-1.9 1.6L5.7 14.7z"/><path fill="none" d="m13.221 4.579 3.182-3.182 19.092 19.092-3.182 3.181z"/><path fill="#010101" d="m22.4 8.6-.7-.7.5-.5 2 2-.4.6-.7-.7-1.9 1.9-.7-.7 1.9-1.9zM24.1 11.7l-.5.5-1-1 .5-.5 1 1zM24.9 11.5c.3-.3.9-.4 1.5.2.6.6.5 1.1.2 1.5-.3.3-.6.2-.8.2.1.2.2.6-.2.9-.4.4-1 .5-1.6-.2-.7-.7-.5-1.3-.2-1.6l.6.6c-.1.1-.2.3 0 .5s.4.1.5 0c.2-.2.2-.4 0-.6l-.2-.2.4-.4.2.2c.2.2.3.2.5 0 .1-.1.2-.3 0-.4-.2-.2-.3-.1-.4 0l-.5-.7zM26.3 16.2l.5-.5-1-1 .5-.5 2.2-.4.8.8-1.3 1.3.3.3-.5.4-.2-.2-.5.5-.8-.7zm1.3-1.2.5-.5c-.3.1-.8.2-1.2.3l.4.4.3-.2z"/><path d="m24 24.4 3.1 3.1c.3.3.6.5.8.8h.1c.2-.2.2-.2 0-.3-.1-.1-.2-.3-.4-.4l-3-3c-.1-.1-.2-.3-.4-.4-.1-.2-.2-.2-.3 0 0-.1.1-.2.2-.2s.2.1.3.1l1.4 1.4.4.4.4.4s.1.1.1 0c.2-.2.5-.4.7-.7l1-1 .2-.2.6-.6v-.1c-.1-.2-.3-.3-.4-.4l-.6-.6-.6-.6c-.1-.1-.1-.1 0-.3l.9-.9c.1-.1.1-.1 0-.3l-.9-.9c-.1-.1-.2-.1-.3-.2l-.2-.2h-.2c0 .1-.1.2-.2.2 0 0-.1.1-.2 0 .1 0 .2 0 .3-.1v-.1c-.1 0-.1-.2-.2-.1s-.2.2-.1.4c-.1-.1-.1-.2 0-.3 0 0 .1-.1.2-.1s.1 0 .1-.1v-.2l-.3-.3c-.1-.1-.2-.2-.4-.3l-5.2-5.2-1.2-1.2-2.3-2.3c-.3-.3-.5-.6-.8-.8l-.7-.7c-.1-.1-.1-.1-.1 0l-1.3 1.3-.1.1c.1 0 .1-.1.2-.2l.4-.4.3-.3.4-.4.1-.1V8c-.1 0-.1-.1-.2-.2l-1.2-1.2c-.1-.1-.1-.1-.1 0l-1.2 1.2-.1.1c0-.1.1-.1.1-.2l.5-.5c.2-.2.4-.4.5-.6 0 0 .1-.1.1 0l.2.2c.1.1.3.2.4.4.1.2.3.3.4.5 1.2 1.2 2.4 2.3 3.5 3.5l.3.3 1.4 1.4c.1.1.2.1.3.2.1.1.1.2.2.3l.6.6c.2.1.3.4.5.5.1 0 .1.1.2.2s.2.1.3.2c.1.1.2.3.4.5.1.1.2.3.4.4l.3.3c.1.1.2.3.4.4l.1.1c0 .1.1.1.1.1s.1 0 .1.1l.3.3c.2.2.3.4.6.5.1.1.2.2.2.3.4.4.8.8 1.1 1.2.1.1.1.1.2 0s.1 0 .2 0c.1.1.2.2.1.4v.1l.6.6.3.3.5.5c.1.1 0 .1 0 .1l-.6.6-.5.5c-.1.1-.1.1 0 .2l1.1 1.1c.1.1.1.1.2 0l.9-.9c.1-.1.2-.2.3-.4l.3-.3v-.1l-.2-.2-.5-.5-.3-.3s0-.1-.1-.1-.2-.1-.2-.1l-.5-.5c-.1-.1-.1-.2-.2-.2-.3-.2-.4-.5-.7-.7-.1-.1-.2-.2-.2-.3l-.6-.6-.3-.3-1.8-1.8c-.1-.1-.2-.3-.3-.4-.1-.1-.3-.2-.4-.4-.2-.2-.3-.4-.5-.5l-.4-.4-1.8-1.8c-.1-.1-.2-.2-.4-.3l-.2-.2c-.2-.2-.5-.4-.7-.7l-.9-.9-.5-.5-3-3V7l-.8-.8h-.1l-.2.2L12.7 8c-.1.1 0 .1 0 .1h.1s-.1.1-.1 0-.1-.1-.1 0l-.3.3c0-.1.1-.1.1-.1.2-.2.3-.4.5-.5l.9-.9.8-.8c.1-.1.1-.1.1 0l.4.4c.1.1.1.2.2.2l1 1c.1.1.3.2.4.3.2.3.5.5.7.8.3.2.6.5.9.7l.8.8 1.5 1.5.6.6 1 1 5.6 5.6 3.8 3.8c.1.1.1.1 0 .2L30 24.6s-.1.1-.1 0l-.3-.3-.3-.3h-.1l-.3.3c-.5.5-.9 1-1.4 1.4-.3.2-.5.5-.7.7v.1l.4.4c.1.2.3.3.4.4l.7.7s.1 0 0 .1l-.2.2c-.1.1-.1.1-.2 0l-.8-.8c-.3-.2-.5-.5-.7-.7 0-.1-.1-.1-.1 0-.4.4-.8.8-1.3 1.2l-1.1 1.1-.1.1v.1l.3.3.2.2c.1.1.1.1 0 .2l-1.6 1.6c-.1.1-.1.1-.2 0l-.9-.9-.3-.3-8.8-8.8c-.5-.5-1-.9-1.4-1.4l-.3-.3-.1-.1.1.1-.4-.4.2.2c-.1 0-.1 0-.1-.1l-.9-.9c-1.2-1.2-2.5-2.4-3.7-3.7.2.1.1 0 0-.2-.1-.1-.1-.1 0-.3.5-.5 1.1-1.1 1.7-1.6.1-.1.1-.2.3-.2l.1-.1c.1-.1.1-.1.1-.2v-.1c.1 0 .2-.2.2-.2l.2-.2s0-.1.1 0 .2.2.2.3v.2c-.1.1-.1.2-.2.2v.1l.2.2s.1.1.2 0c-.1.1 0 .1 0 .2.1 0 .1.1.2.2s.2.3.4.4c.1.1.2.1.3.1.2 0 .4-.1.6-.3.1-.2.1-.4 0-.6 0-.1-.1-.1-.1-.1l-.3-.3-.3-.3.7.7c.1.1.2.5.1.6-.1.2-.3.3-.5.3h-.2l.6.6-.6.6s-.1.1 0 .1c.1.1.1.1.1 0l.5-.5s.1 0 .1-.1h.1c-.1 0-.1.1-.2.2l-.3.3c-.1 0 0 .1-.1.1 0 0-.1 0 0 .1h.1c.1-.1.3-.2.4-.4l-.3.3c.1.1.1 0 .2.1H10.2v.1c.1.1.1.2.2.2l1.8 1.8.4.4.4.4 2.1 2.1.1.1c.1.1.2.2.3.1l.5-.5.1.1H16l-.3.3c-.1.1-.1.1 0 .2l1.5 1.5.1.1V22l.3.3.3.3c.1.1.2.2.4.3.1.1.3.1.4.2l-.6-.3 2.2 2.2h.1c.2-.2.5-.4.7-.7l.2-.2-.8.8s-.1.1 0 .1l1-1c-.1 0-.1-.1-.2-.1.1 0 .2 0 .3.1-.2.1-.3.3-.4.4-.1.1-.1.2-.2.2l-.3.3v.1l1-1c0 .1 0 .1-.1.1l-.9.9-.1.1c0-.1-.1 0-.1-.1 0 0 0-.1-.1-.1l-.3-.3-.2-.2c-.1-.2-.3-.3-.5-.5-.1-.2-.3-.3-.4-.4l-1.1-1.1c-.2-.2-.4-.3-.5-.5-.3-.3-.6-.5-.8-.8-.1-.2-.3-.3-.4-.4-1.4-1.4-2.8-2.8-4.2-4.3l-.2-.2-1.2-1.2-.1-.1s-.1 0 0-.1c0 0-.1-.2-.2-.2l-.2.2h.1c-.1 0-.1 0-.2.1-.3.3-.6.6-.9.8-.1.1-.1.1 0 .2l1.1 1.1c.1.1.2.2.3.4 1.9 1.9 3.8 3.7 5.6 5.6l.6.6s.1 0 .1.1l-.1-.1c-.4-.5-.9-.9-1.3-1.4l-.3-.3c-.3-.3-.6-.6-.9-1l-2.1-2.1-.3-.3c-.7-.8-1.5-1.5-2.2-2.3-.3-.3-.6-.5-.8-.8-.2-.3-.5-.5-.7-.7l.5.5c.1.1.1.1.2 0l.7-.7s0-.1.1 0l-.1.1-.3.3c-.1 0-.1.1-.2.2l-.3.3s-.1.1 0 .1l.3.3c.1.1.1.1.1 0l1.1-1.1.1-.1-.1-.1c-.1 0-.1-.1 0-.1l.4-.4.2-.2-.5.5c-.1.1 0 .1 0 .1.1.1.1 0 .1 0l.1-.1v.1c.1-.1.2-.2.2-.3l.1-.1.1-.1-.3-.3c-.1-.1-.1-.1-.1 0l-.8.8s0 .1-.1.1c0 0 0-.1.1-.1l.7-.7c.1-.1.2-.1.2-.2s-.1-.1-.2-.2l-1.2-1.2c-.1-.1-.1-.1-.2 0 0 .1-.1.1-.1.1-.1.1-.2.2-.3.2l.3-.3s.1 0 0-.1c0 0 .1 0 0-.1 0-.1-.1-.1-.1-.1l.1.1h-.1c-.1-.1-.1 0-.2.1l-.1.1c-.1.1-.1.1 0 .2-.1-.1-.1-.1-.2 0C7 13.4 6.5 14 5.9 14.6c-.1.1-.1.1 0 .2l.7.7s0 .1.1 0l.6.6 1.2 1.2c.2.2.4.5.6.7l.6.6 1.2 1.2.3.3 1.1 1.1.9.9 1 1c.5.6 1.1 1.1 1.7 1.7l.1.1c.2.2.4.4.5.6 0 0 .1 0 0 .1 0 0 0 .1.1.1h.1c0-.1.1-.1.2-.2.1 0 .1-.1 0-.2.1 0 .1.1 0 .1l-.2.2c-.1 0 0 .1 0 .1.1.1.2.2.3.2l.3.3c.2.2.5.4.7.7l1 1c0 .1 0 .1.1.1h.1l.1-.1v.1c-.1.1-.1.1 0 .2l.3.3.3.3c.2.2.4.4.5.6l.3.3.9.9s.1.1.1 0c.2-.2.4-.4.7-.6l.9-.9c.1-.1.1-.1 0-.2l-1.1-1.1s-.1-.1-.1 0l-.8.8-.2.2c.1-.1.1-.2.2-.2.3-.2.5-.5.7-.7l.1-.1c.1-.1.1-.1.2 0l1.4 1.4c.1.1.2.2.3.2h.1l.6-.6 1.1-1.1.6-.6c.1-.1.1-.1 0-.2 0 0-.1 0-.1-.1-.5-.5-.9-1-1.4-1.4h-.1l-.3.3s0 .1-.1.1l.4-.4s.1 0 0-.1l-.2-.2h-.2c-.1 0-.2 0-.2-.1 0 .1.2.1.2 0v-.1s-.1 0-.1-.1c-.1-.2-.2-.3-.3-.4l-.4.4-.1.1c-.1 0-.1-.1-.1-.1 0-.1-.1-.1-.2-.2h-.1l-.6.6-.1.1s0-.1.1-.1c.2-.1.3-.3.5-.4h.1c.2-.1.2-.1.1-.3l-.1-.1v-.2l-.1-.1c.1-.1.1-.2.1-.3v.1c-.1.1 0 .2 0 .2l.6.6c.1.1.1.1.2.1 0-.1 0-.3.1-.4 0 .1 0 .3-.1.4h.1c-.3-.1-.2-.3 0-.4-.1 0-.1 0 0 0-.1-.1-.1-.1-.1-.2 0 .1 0 .1.1.2zm-.2 6.2.5-.5c.1-.1.1-.1 0-.2l-.6-.6-.4-.4h-.1l-.8.8c-.3.2-.5.5-.8.8-.1.1-.1.1 0 .2l.9.9c.1.1.1.1.2 0l.5-.5c.3-.2.4-.4.6-.5zm6-6.1s.1.1.1 0l.1-.1.8-.8.7-.7s.1-.1 0-.1l-.4-.4c-.1 0-.1-.1-.1-.2l-.4-.4c-.1-.1-.1-.1-.1 0l-.6.6c-.1.1-.2.1-.2.2l-.6.6c0 .1-.1.1-.2.2s-.1.1 0 .1l.5.5c.1.2.2.4.4.5zM8.3 12.1c-.1 0-.1.1 0 0 0 .2.1.2.3.3h.1c.1-.1.2-.2.1-.3 0-.1-.2-.2-.2-.3 0 0-.1 0 0 .1s.1.1 0 .2c-.1.2-.1.2-.3 0 .1 0 0 0 0 0zm1.4 2.7s-.1.1 0 .1c.1.1.1 0 .1 0l.5-.5.1-.1c.1 0 .1 0 0-.1 0 0-.1-.1-.1 0l-.3.3-.3.3zm-1.1 2.8s0-.1 0 0c-.2-.2-.4-.4-.5-.6l-.3-.3-.4-.4c-.2-.3-.4-.4-.6-.6 0 0 0-.1-.1-.1.6.7 1.3 1.3 1.9 2zm4.3 4.2L11.1 20c.6.6 1.1 1.3 1.8 1.8zm-4.4-9.7c.1-.1 0-.1 0-.1s-.1-.1-.1 0c-.1.1 0 .1 0 .1.1 0 .1.1.1 0zm14.3 12.1c.1.2.3.3.4.4-.1-.1-.2-.3-.4-.4z"/><path fill="#010101" d="M22.7 31.7s-.1 0-.1-.1l-.4-.4-.5-.5-.1-.1-.1-.1-4.6-4.6-4.2-4.2-.3-.3-1.1-1.1-.2-.2c-.1 0-.1 0-.2-.1l-.1-.1c-.1 0-.1 0-.1-.1-.2-.2-.3-.4-.5-.5l-.4-.4-1.6-1.6c-.7-.7-1.4-1.4-2-2.1-.1-.1-.2-.1-.3-.2l-.1-.1c-.1-.1-.1-.1-.1-.2s0-.1.1-.2l.4-.4 1.3-1.3.1-.1c.1-.1.1-.1.2-.1l.1-.1c.1 0 .1-.1.1-.2v-.1c.1 0 .1-.1.1-.1l.1-.1c.1 0 .1-.1.1-.1l.1-.1h.2s0 .1.1.1.2.1.2.1v.2c-.1.1-.1.2-.2.2l.3.3s.1.1.1 0l.1.1c.1 0 .1.1.2.1h.1l.2.2c.1.1.1.2.2.2.1.1.2.1.3.1.2 0 .4-.1.5-.3.1-.2.1-.4 0-.5l-.1-.1s-.1 0-.1-.1-.1-.1-.2-.2l-.1-.1-.3-.3v-.1l.2.2.5.5c.1.2.2.5.1.7-.1.2-.3.3-.6.3H10l.2.2.1-.1-.1.5.3.3-.2.2-.5.5.2-.2.3-.3.1-.1h.1v.1s-.1 0-.1.1v.1l-.3.3s.1 0 .1.1v.1h-.4c0 .1.1.1.1.2l.1.1 1 1 .8.8.4.4.2.2s.1.1.2.1l1.6 1.6.5.5.1.1c0 .1.1.1.1.1h.1l.1-.1c.1-.1.2-.2.3-.4h.1v.2h-.2l-.2.2-.1.1-.1.1.1.1 1.5 1.5h.3l.2.2c.1.1.1.2.2.2l.1.1.2.2.3.3.1.1c.1 0 .2.1.2.1l.2.2-.2-.1c-.1 0-.2-.1-.3-.2l1.8 1.8.2.2.3-.3.4-.4.2-.2-.3-.1.4.1h.2l.2-.1-.2.2v.1c0 .1 0 .1-.1.1l-.9.9-.1.1h-.1s-.1 0-.1-.1c0 0 0-.1-.1-.1l-.2-.2c-.1 0-.1-.1-.2-.1l-.2-.2-.2-.2-.2-.2-.2-.2-.2-.2-.4-.4-.7-.7-.4-.4-.1-.1-.8-.8-.3-.3-.1-.1-1.8-1.8-2.4-2.4-.1-.1-.1-.1-.9-.9-.3-.3-.1-.1h-.1v-.1s-.1-.1-.1-.2l-.1.1h.1v.1h-.2l-.3.3-.6.6v.1l.9.9.2.2.2.2.2.2 2.3 2.3c1.1 1.1 2.2 2.2 3.3 3.4l.4.4.2.2s.1 0 .1.1v.1L16 24l-.1-.1-.5-.5c-.3-.3-.6-.6-.8-.9 0-.1-.1-.1-.2-.1l-.1-.1-.3-.3c-.2-.2-.4-.5-.7-.7l-1.5-1.5-.6-.6-.1-.1s0-.1-.1-.1c-.3-.3-.6-.7-1-1-.4-.4-.9-.8-1.3-1.3l-.4-.4c-.1-.1-.2-.3-.3-.4-.1-.2-.3-.3-.4-.4l-.3-.3V15l.6.6.1.1.1-.1.2-.2.6-.6.1-.1c0-.1 0-.1.1-.1l.4-.4.3-.3.1-.1.1-.1s0-.1-.1-.1l-.1-.1-.3-.3c-.5-.2-.7-.5-1-.7h-.1l-.1.1-.1.1c-.1.1-.1.2-.3.2l-.1.1h-.2v-.1c0-.1-.1-.1-.1-.1l-.1.1-1.8 1.8-.1.1.1.1H6l.6.6h.2c.2.3.4.5.6.7l.5.5.7.7.4.4.3.3.3.3.3.3.5.5.7.7.2.2.1.1 1.1 1.1.5.5.4.4.3.3.7.7 1.3 1.3.4.4.1.1.3.3.2.2h.1v.1l.2-.2s.1 0 .1-.1l-.1-.2.2.1s.1 0 .1.1 0 .1-.1.1l-.1.1-.1.1h.1l.2.2.2.2.1.1.4.4.3.3.6.6.3.3v.1l.1-.1.1-.1V27.9l.3.3.1.1c.1 0 .1.1.1.1.1.1.1.2.2.2.1.1.2.2.3.4 0 .1.1.1.2.2l.1.1.2.2.7.7c.2-.2.4-.4.7-.6l.5-.5.4-.4v-.2l-.3-.3-.8-.8-.6.6-.2.2-.3.5-.1-.1s0-.1.1-.1c0-.1.1-.1.1-.2.2-.2.5-.4.7-.7l.1-.1c.1 0 .1 0 .1.1l1.2 1.2.2.2.2.2.2-.2.4-.4.9-.9.2-.2.3-.3c.1-.1.2-.2.4-.3l.1-.1v-.1l-.6-.6-.8-.8-.2.2-.2.2-.1.1H24l.2-.2.3-.3c0-.1-.1-.1-.1-.2H24.1L24 25v-.1h.1v.1h.1v-.1s-.1 0-.1-.1l-.1-.1-.1-.1c-.1.1-.2.1-.2.2l-.1.1-.1.1c-.1 0-.1-.1-.2-.1l-.1-.1-.1-.1-.3.3-.3.3-.1.1-.3.3.2-.3v-.2l.3-.3.2-.2.1-.1c.1 0 .1 0 .1-.1 0 0 0-.1-.1-.1l-.1-.1s-.1 0 0-.1l-.1-.1c-.1 0 0-.1 0-.1v-.1c0-.1 0-.1.1-.2l.1-.2v.5l.2.2.4.4.1.1v-.1c0-.1 0-.2.1-.3l.1-.2v.2c0 .1 0 .2-.1.4l.2-.2.1-.1v-.2c0-.1.1-.2.2-.2s.2.1.3.1c.2.2.4.5.7.7l.7.7.4.4.3.3.1.1.4-.4.3-.3.6-.6.4-.4.1-.1s.1 0 .1-.1l.3-.3.3-.3c-.1-.1-.2-.3-.4-.4l-.4-.4-.2-.2-.2-.2c-.1-.1-.2-.2-.4-.3l-.1-.1c0-.1 0-.1.1-.2l.9-.9c.1-.1.1-.1 0-.2l-.3-.3-.6-.6-.1-.1c-.1 0-.1-.1-.2-.2 0-.1-.1-.1-.1-.1s-.1 0-.1-.1H27c0 .1-.1.2-.1.2h-.1l-.1.1-.1-.1c-.1 0-.1-.1-.1-.1 0-.1 0-.2.1-.2 0-.1.1-.1.2-.1v-.2l-.3-.3-.2-.2c-.1 0-.1-.1-.2-.1l-4.2-4.2-2.4-2.3-.6-.6-1.6-1.6-.6-.6-.3-.3-.3-.3-.4-.4-1.2 1.2-.1.1s-.1.1-.2.1h-.1l.1-.1c.1 0 .1-.1.1-.1l.1-.1.4-.4.1-.1c.1-.1.1-.2.2-.2l.4-.4.1-.1.1-.1c-.1 0-.1-.1-.1-.1l-.1-.1-1.2-1.2-.9.9-.5.5s-.1 0-.1-.1l-.2.2-.1.1-.2.2.1-.2c0-.1.1-.1.1-.1.1-.1.1-.2.2-.2l.3-.3.6-.6.3-.3.2-.2.6-.6.1-.1s.1 0 .1.1.1.3.2.4l.1.1.1.1.3.3.7.7.2.2.2.2c.1.1.2.1.2.2l.5.5.4.4c.1.1.3.3.5.4l.8.8 1.5 1.5.3.3.3.3c.2.3.5.5.7.7l.2.2c.8.7 1.5 1.5 2.3 2.3l3.3 3.3 2.6 2.6 1.2 1.2c.1.1.1.1 0 .3l-.8.8-.8.8s-.1.1-.1 0h-.1l-.2-.2-.1-.1-.2-.2-.2.2-.1.1-.6.6-.8.8c-.2.1-.3.3-.5.4l-.3.3.1.1.3.3.3.3.1.1.4.4.3.3.1.1v.1l-.1.1c-.1.1-.1.1-.3 0l-.2-.2-.5-.5-.6-.6-.1-.1-.3.3c-.3.3-.6.6-1 .9l-.8.8-.3.3.3.3.2.2.1.1s0 .1-.1.1l-.6.7-1.2 1.2h-.1zm.6-2.8-.8.8c-.2.2-.4.3-.5.5l-.2.2-.1.1.1.1.2.2.7.7h.1c.1-.1.2-.3.4-.4l.1-.1.2-.2.4-.4.4-.4.1-.1.1-.1-.1-.1-.2-.2-.4-.4-.1-.1c-.2.1-.3 0-.4-.1zm-1.7 1.6zm2.3-1.2zm-.1 0zm-.5-.5s0 .1 0 0c0 .1 0 .1 0 0zm-3.6-.2s0 .1 0 0c0 .1 0 0 0 0zm4.3-4.4s0 .1.1.1c.5.4.9.9 1.4 1.4l1.8 1.8.5.5.3.3.1-.1s0-.1-.1-.1l-.3-.3-1-1-2.1-2.1-.2-.2-.1-.1c-.1-.1-.1-.1-.2-.1-.1-.2-.2-.2-.2-.1zm4.2 3.9zm-9.1 0s.1 0 0 0c.1 0 .1 0 0 0zm0-.1zm-2.5-2.5zm6.7-.8.2.2c-.1-.2-.1-.2-.2-.2zm6.5-.2s.1 0 0 0c.1 0 .1 0 0 0 .1 0 .1-.1.1-.1l.4-.4c.1-.2.3-.3.5-.5l.7-.7-.1-.1c-.1-.1-.2-.2-.4-.3l-.1-.1-.1-.1-.2-.2-.2-.2-.6.6-.1.1c-.1 0-.1.1-.1.1l-.3.3-.3.3c0 .1-.1.1-.2.2l.4.4.3.3c.1.2.2.3.3.4zm-2.9-5.6h.1c.1 0 .2.1.2.2v.4l.2.2c.1.1.2.3.4.3l.2.2.1.1.3.3.2.2c.1.1 0 .1 0 .2l-.2.2-.3.3-.1.1-.4.4v.1c.4.4.8.7 1.1 1.1l.7-.7.2-.2.2-.2c0-.1.1-.1.2-.2l.1-.1c.1-.1.2-.2.3-.2 0-.1-.1-.1-.1-.1s-.1 0-.1-.1l-.4-.4h-.2l-.1-.1-.2-.2v-.1c-.1 0-.2-.1-.2-.1l-.1-.1-.4-.4-.1-.1c0-.1-.1-.1-.1-.1l-.3-.3c-.1-.1-.2-.3-.4-.4-.1 0-.1-.1-.2-.2l-.1-.1-.2-.2-.4-.4-.2-.2-.1-.1-1.8-1.8s-.1-.1-.1-.2l-.2-.2c-.1-.1-.3-.2-.4-.4-.1-.2-.3-.3-.5-.5l-.4-.4c-.3-.3-.5-.6-.8-.8l-1-1-.2-.2-.1-.1-.1-.1s0-.1-.1-.1l-.3-.3-.3-.3-.9-.9-.3-.3-.2-.2L17.7 9l-1.9-1.9V7l-.2-.2c-.6-.4-.8-.6-1-.8 0 .1-.1.1-.2.2l-.1.1-1 1-.7.7v.1h.1V8c0-.1.1-.2.2-.2l.3-.3.2-.2.6-.6.1-.1c.1-.1.1-.1.2 0 .1 0 .1.1.1.1s0 .1.1.1l.1.1.3.3c.2.2.3.3.4.5l1.5 1.5 2.1 2.1.2.2.1.1.4.4 1.1 1.1c.1.1.1.1.2.1l.1.1c.1 0 .1.1.1.2l.1.1.2.2.4.4.2.2c.1.1.1.2.2.2l.2.2.1.1s.1 0 .1.1l.2.2c.1.1.1.2.2.2s.1.1.1.1c.1.1.2.2.3.2.1 0 .2.1.2.2l.1.1.1.1.3.3s.1 0 .1.1l.1.1s.1 0 .1.1l.2.2.1.1.2.2c.1.1.2.3.4.3.1 0 .1.1.2.2l.1.1c.3.3.6.6.8.9l.3.3h.1c0-.1.1-.1.1-.1zm-9.3 4zm11.5-2.5zm-2.6-.7c.1 0 .2 0 .3-.1l-.1-.1-.1-.1c-.2.1-.2.2-.1.3zm-16.4-.6.1.1.3.3-.4-.4c.1.1.1 0 0 0zm16.6.3.1.1H27.1v-.1c0-.1.1-.1 0-.2 0-.1-.1-.1-.1-.2h-.2l-.1.1V19.4c0-.1 0 0 0 0zm.7-.7c.1.1.1.2.2.2l.1.1-.3-.3zm-.9-.9c.1.1.1.2.2.2h.1c-.1 0-.2-.1-.3-.2zm-17.8-.2.3.3c-.2-.1-.2-.2-.3-.3zM8 15.8l.3.3.8-.8.3-.3.1-.1-.1-.1-.1-.1s0-.1.1-.1l.1-.1.3-.3c.1-.1.1-.2.2-.2l-.1-.1-.7.7-.2.1-.1.1-.1.1-.1.1-.2.2-.1.1-.1.1c-.1 0-.1.1-.2.1 0 .2 0 .2-.1.3 0-.1 0 0 0 0zm1.9-.6zm.1-.1zm-.3-.2c.1 0 .1 0 0 0 .2-.1.3-.2.4-.3l.1-.1.1-.1-.2.2-.1.1-.1.1c0-.1-.1 0-.2.1 0-.1 0-.1 0 0zm.4-.8-.2.2-.4.4.1-.1.1-.1v.1c0-.1.1-.1.2-.2l.1-.1c.1-.1.1-.1.1-.2.1 0 0 0 0 0zm.2.2zm-2.2-1.8s-.1 0 0 0c-.1.1-.1.1-.2.1v.1c.1 0 .2-.1.2-.2.1 0 .1 0 0 0 .1 0 0 0 0 0zm0-.1zm.2-.2.2.2h.2s0-.1.1-.1c.1-.1.1-.1.1-.2s-.1-.1-.1-.2l-.1-.1c.1.1.1.1 0 .2l-.1.1c-.2.2-.2.1-.3.1.1 0 0 0 0 0zm0 .1s0 .1 0 0c0 .1 0 .1 0 0zm.1-.2c.1 0 .1 0 0 0 .1 0 .1 0 0 0 .1 0 .1 0 0 0 .1 0 .1 0 0 0 .1 0 .1 0 0 0 .1-.1.1-.1 0 0 0-.1 0-.1 0 0 0-.1 0-.1 0 0 0-.1 0-.1 0 0 0-.1 0 0 0 0z"/><path d="M14.5 11.2h.1-.1c.2-.1.2 0 .2 0l.4.4.4.4v.1c0-.1-.1 0-.1 0l-.1.1-.4.4s-.1.1 0 .1h.1c.2-.2.4-.3.5-.5l-.7.7v-.1h-.1v.1s.1.1 0 .2c0 0-.1-.1-.1 0l-.4.4c-.2.1-.3.3-.4.4-.3.2-.5.5-.7.7 0 0 0 .1-.1.1 0 0 0-.1.1-.1l.3-.3v-.1h-.1c-.1.1-.2.3-.4.4v.1c.1 0 .1-.1.1 0 0 0-.1.1 0 .1v.1h-.2l-.3.3c-.1.1-.2.1-.2.2l.3-.3.1-.1v-.1h-.1l-.4.4v.1h.1s0 .1-.1.1c0-.1-.1 0-.1 0 0 .1 0 0 .1 0-.1 0-.1 0-.2-.1h.1l-.4-.4v.1l.1.1.2.2c-.3-.2-.6-.5-.8-.8h.1s0-.1-.1-.1l.7-.7s.1-.1 0-.1c0 0-.1 0 0-.1h.1c0 .1.1 0 .1 0l.5-.5c.1-.1.2-.1.2-.2l.3-.3c.3-.2.5-.5.7-.7 0 0 .1-.1 0-.1v-.1h.1s.1.1.1 0l.6-.6c-.2.1-.2.1-.1.1 0 0-.1 0 0 0zm-.5 2.5c.1-.1.1-.1 0 0 .1-.1 0-.1 0 0-.2 0-.2.1-.3.2l-.2.2v.1h.1l.3-.3c0-.1.1-.2.1-.2zm-2.3 0 1.1 1.1c-.3-.4-.7-.8-1.1-1.1zm.8-.6s-.1.1 0 0c0 .1 0 .1 0 0 .1-.1.2-.1.3-.2l.2-.2s.1-.1 0-.1h-.1l-.2.2c-.1.1-.1.2-.2.3zm1.1-1s.1-.1 0 0c0-.1 0-.1 0 0-.2.1-.3.2-.4.3v.1h.1l.2-.2c0-.1 0-.1.1-.2zm-1.7 1.6s-.1 0 0 0c0 .1 0 0 0 0 .2-.1.3-.2.4-.3v-.1h-.1l-.2.2c.1 0 0 .1-.1.2zm2-2s-.1.1 0 0c0 .1 0 .1 0 0 .2-.1.3-.2.5-.4v-.1h-.1l-.2.2c-.1.2-.1.3-.2.3zm.3 1.7s-.1.1 0 0c0 .1 0 .1 0 0 .1 0 .2-.1.3-.2l.1-.1V13h-.1l-.2.2c0 .1 0 .1-.1.2zm-3.1 1s0 .1 0 0c.1.1.1.1 0 0 .1 0 .2-.1.3-.2.1-.1.2-.2.2-.3-.1.2-.3.4-.5.5zm.3.7c.1 0 .1 0 0 0 .1-.1.1-.1 0 0 0-.2-.1-.2-.2-.3v.1l.1.1s.1 0 .1.1zm3.6-3.4c0 .1.3.4.4.4-.1-.2-.2-.3-.4-.4zm-.1-.1c0 .1.1.1 0 0 .1 0 .1 0 0 0 0-.1-.1-.2-.2-.3 0 .1.1.2.2.3zm-2.6 2.8c-.1 0-.1 0 0 0-.1 0-.1.1 0 0 0 .1.1.2.2.3-.1-.2-.2-.2-.2-.3zm.9-.4c0 .1.1.2.2.3 0-.2-.1-.3-.2-.3zm-.5.9s0-.1-.1-.1l-.1-.1s-.1-.1-.1 0v.1l.1.1c.1 0 .1.1.2 0zm-.2-1.6c0-.1 0-.1 0 0-.1 0-.1 0 0 0 0 .1 0 .1.1.2h.1v-.1c-.1 0-.1 0-.2-.1.1 0 .1 0 0 0 .1 0 0 0 0 0zm.4.5s0 .1.1.1l.1.1c.1-.1-.1-.1-.1-.1 0-.1 0-.2-.1-.1zm-.7.6s0-.1-.1-.1l-.1-.1c-.1.1 0 .1.1.1 0 0 0 .1.1.1zm1.8-2.1c-.1-.2-.3-.3-.4-.4.1.1.2.3.4.4zm-.8.4.1.1c.1 0 0-.1-.1-.1 0-.1 0-.1-.1-.1l.1.1zm-1.3 1.4s0-.1-.1-.1l-.1-.1c0 .1 0 .1.1.1 0 .1.1.2.1.1zm1-.4s0-.1-.1-.1l-.1-.1c-.1.1 0 .1.1.1 0 .1 0 .1.1.1zm1.3-1.6c-.1 0-.1 0 0 0-.1 0-.1.1 0 0 0 .1 0 .1.1.2h.1v-.1c-.1 0-.2 0-.2-.1 0 .1 0 0 0 0zm.4.5-.1-.1-.1-.1h-.1v.1l.1.1c.1-.1.1 0 .2 0zm-.7.7c0 .1.1.2.2.2l-.2-.2zm0-1.4c0 .1.1.1.1.2h.1c-.1-.1-.1-.2-.2-.2zm-.3 1.2s0 .1.1.1l.1.1c0-.1-.1-.1-.1-.1 0-.1 0-.2-.1-.1zm1.2-.3s0-.1-.1-.1l-.1-.1.1.1c0 .1.1.2.1.1zm-1.2.2s0-.1-.1-.1l-.1-.1s0 .1.1.1c0 .1 0 .2.1.1zm.7-.4c0 .1.1.2.2.2 0-.1-.1-.1-.2-.2zm0 0-.2-.2c0 .1.1.1.2.2z"/><path fill="#010101" d="M11.9 15.7s-.1 0-.1-.1v-.1l-.1.1-.1-.1c-.2-.2-.5-.4-.7-.7l-.1-.1.1.1v-.1h-.1l.2-.2.5-.5v-.2h.2l.5-.5.1-.1.1-.1V13c.1-.1.1-.2.2-.2.2-.1.3-.3.5-.5.1-.1.1-.2.2-.2v-.2h.2c.1-.1.2-.2.4-.3l.3-.3s.1-.1.2-.1h.1c.1 0 .1.1.2.1l.4.4.1.1.3.3c.1 0 0 .1 0 .1v.1l-.7.7v.1s0 .1-.1.1h-.1l-.4.4c-.1.1-.2.1-.2.2l-.2.2-.5.5-.2.2-.1.1v.2h-.1l-.2.2-.1.1-.2.2s0 .1-.1.1c-.3.1-.3.1-.4.1zm.2-.2.1-.1.4-.4v-.1c-.1 0-.1-.1-.2-.1l-.1-.1v-.1s-.1 0-.1-.1c0 0-.1 0-.1-.1 0 0-.1 0-.1-.1v-.1c0 .1-.1.1-.2.2l-.1.1-.2.2h-.1v.1h.1l.2.2.1.1v.1h.1c-.1 0 0 .1.2.3-.1-.1-.1 0 0 0-.1 0-.1 0 0 0-.1 0-.1 0 0 0zm.6-.6c0 .1 0 .1 0 0 0 0 .1 0 0 0l.1-.1-1-1v.1h.1s.1 0 .1.1l.1.1s.1 0 .1.1l.1.1h.2c.1 0 .1.1.1.2h.1l.1.1c-.1.2-.1.2-.1.3zm.2 0zm-.2 0zm.2 0zm-1-1.1c.3.3.6.6.9.8v-.1c.1-.1.2-.1.2-.2s.1-.1.2-.2c-.1 0-.1-.1-.2-.1v-.1c0 .1 0 0 0 0s-.1 0-.1-.1c0 0-.1 0-.1-.1 0 0-.1 0-.1-.1h-.1l-.1-.1c-.2 0-.4.1-.6.3.1 0 .1 0 0 0 .1 0 0 0 0 0zm.3.6zm0 0zm-.1 0zm1.1-.5c.1 0 .1.1.1.1l.1.1.1-.1s.1-.1.2-.1l.1-.1.2-.2-.1-.1-.1-.1v-.1s-.1 0-.1-.1l-.1-.1s-.1 0-.1-.1c0 0-.1 0-.1-.1 0 0-.1 0-.1-.1l-.1-.1v.1c-.1.1-.2.1-.2.2l-.1.1-.1.1.1.1v.1s.1 0 .1.1l.1.1v.1h.1s.1 0 .1.1c-.2 0-.2 0-.1.1 0-.1 0 0 0 0zm0 .1zm-1.4 0zm1.1-.3zm-1.2 0zm2.2-.4c.1.1.2.1.2.2l.1-.1.1-.1.1-.1.1-.1h.1l-.1-.1c-.1-.1-.2-.1-.2-.2-.1 0-.2-.1-.2-.2v-.1l-.3-.3v.1l-.1.1-.1.1-.1.1s.1 0 .1.1l.1.1s.1 0 .1.1c0 0 .1 0 .1.1 0 0 .1 0 .1.1-.2 0-.2.1-.1.2 0-.1 0-.1 0 0 0-.1 0 0 0 0zm.3.1zm-1.8-.2zm1.2-.1c.1 0 .1 0 0 0zm1.1-.1c0 .1 0 .1 0 0s-.1-.1 0-.2c0 0-.1 0-.1-.1 0 0-.1 0-.1-.1l-.1-.1v-.1h-.1l-.1-.1v-.1l-.1-.1V12l-.1.1.3.3.4.4c.1 0 .1.1.1.1l-.1.1c-.1 0 0 0 0 0zm-.1 0zm.2-.1zm0 0c.1-.1.1-.1 0 0 0-.1 0-.1 0 0 0-.1 0-.1 0 0zm0-.1zm-.2-.2s.1 0 .1.1l.4-.4.1-.1v-.1c-.1 0-.4-.3-.4-.4h-.1l-.1-.1-.2-.2h-.1v.1l-.3.3.1.1v.1h.1v.1h.1l.1.1c.2.3.2.3.2.4zm-.1-.1zm-1.4 0s0 .1 0 0c0 .1 0 .1 0 0 0 .1 0 .1 0 0zm2.4-.3zm-1.6-.3zm.7-.6zm-.1-.1zm0 0zm0 0z"/><path d="M22.9 18c-.1-.1-.1-.2-.2-.3-.1-.1-.2-.2-.2-.3-.2-.2-.4-.3-.6-.4v-.1c.1 0 .2.1.3.2l-1.6-1.6h-.1c0 .1-.1.1-.2.2.1-.1.1-.2.2-.2 0-.1-.1-.1-.2-.2-.2-.1-.3-.2-.4-.4l-.6-.6-2.1-2.1-1.7-1.7-.2-.2c-.1-.1-.1-.1-.2 0v.1c0-.1-.1 0-.1 0-.1 0-.1 0-.1.1 0 0 0 .1 0 0-.1 0-.1 0-.1.1h.1v.1l-.1.1.1-.1s.1 0 0-.1h-.1c-.1.1-.2.2-.3.2v.1c-.1-.1-.1 0-.1 0-.1 0 0 0 0 0 .1 0 0 0 0 .1l-.3.3c0-.1.1-.1.1-.2 0 0 .1-.1 0-.1h-.1c0 .1-.1.1-.1.1-.1.1-.1 0-.1 0V11c-.1 0 0-.1 0-.1l.4-.4v-.1c-.1-.1-.2-.3-.4-.4l-.1-.1.1-.1.1-.1.3-.3c-.3.3-.4.5-.5.6 0 0-.1 0 0 .1.1.2.2.2.3.1l.5-.5s.1-.1.1 0c-.1-.1-.1 0-.1 0l-.6.6c-.1.1 0 .2 0 .2.1-.1.3-.2.4-.4l.2-.2s.1-.1.1-.2c.1 0 .1.1.1.1l.3.3c.1.2.3.3.4.5l.5.5c.5.5 1 1.1 1.6 1.6.1.1.3.3.5.4l1.1 1.1c.5.5 1.1 1 1.6 1.6.2.2.3.4.5.5l.3.3.4.4c.8.7 1.5 1.5 2.3 2.3l.8.8c.1 0 .2.1.3.1.1 0 .2 0 .3.1-.2 0-.3-.1-.4-.1h-.1v.2c-.2.1-.3.3-.4.5l-.1.1-.3.3c0 .1-.1.1-.1.2v-.1c0-.1-.1-.2.1-.3.1-.1.2-.2.2-.3l.5-.5s0-.1.1 0l-.9.9h.1l.7-.7c.1-.1.1-.1 0-.2l-1.2-1.2-.2-.2-.3-.3-.5-.5s0-.1-.1 0c0-.3.1-.2.1-.1.1.1.2.2.2.4 0-.1-.1-.3-.2-.4zm-8.5-7.3s.1 0 0 0c.1-.2.2-.2.3-.3l.4-.4v-.1s-.1-.1-.1 0l-.1.1c-.3.4-.7.7-1.1 1.1 0 0-.1 0-.1.1 0 0 0 .1.1.1h.1c.1-.3.3-.5.5-.6 0-.1 0-.1 0 0 .1 0 0 0 0 0zm-.2-.3s-.1.1 0 .1h.1l.6-.6c.1-.1 0-.1 0-.1s-.1-.1-.1 0l-.3.3-.3.3zm10.6 10.3.4-.4s.1-.1 0-.1h-.1l-.6.6c-.1.1-.2.1-.2.3v.1c.2-.2.3-.4.5-.5zm-10.6-9.6c.1 0 .1-.1.1-.1-.1-.1-.1 0-.1.1-.1-.1-.1-.1 0 0z"/><path fill="#010101" d="M24.4 21.3h-.2v-.2c0-.1 0-.1.1-.2.1 0 .1-.1.2-.2 0 0 0-.1.1-.1.1-.1.2-.3.4-.4l.1-.1h.1l-.3-.3-.9-.9s-.1 0-.1-.1l-.1-.1c-.1-.1-.2-.2-.2-.3l-.3-.3c.1.1.1.2.2.4v.2l-.1-.1c-.1-.1-.1-.1-.1-.2s-.1-.1-.1-.2l-.1-.1c0-.1-.1-.1-.1-.2-.1-.1-.1-.2-.2-.3-.2-.2-.3-.3-.6-.4 0 0-.1 0-.1-.1V17h.1l-1.5-1.5c0 .1-.1.1-.2.2l-.1-.1.1-.1s0-.1.1-.1c0-.1-.1-.1-.1-.1l-.3-.3-.1-.1-.4-.4-.2-.2-1.5-1.5-.6-.6-1.7-1.7-.1-.1-.1-.1-.1-.1-.1.1h-.1v-.1h-.1v.2l-.1.1-.1.1h-.1l-.1.1v.1s0 .1-.1.1h-.1v.1l-.2.2-.2.2.1-.2h-.1s-.1 0-.1-.1V11s0-.1.1-.1l.2-.2c.1-.1.2-.1.2-.2l-.1-.1-.3-.3-.1-.1s0-.1.1-.1l.1-.1.3-.3.1.1c-.1.1-.2.2-.3.4l.1.1s.1 0 .1-.1l.1-.1.4-.4s.1-.1.1 0l.1.1c.1 0 .1.1.1.1 0 .1.1.1.2.1s.1.1.2.2l.2.2c.1.1.2.2.2.3l.3.3.2.2.9.9c.2.2.4.5.7.7l.2.2c.1.1.2.2.3.2.2.2.3.4.5.5l.6.6c.2.3.5.5.7.8.3.3.6.5.8.8.2.2.3.4.5.5l.2.2.1.1.3.3c.1 0 .1.1.2.1l1 1 1.3 1.3.6.6.2.2c.1 0 .1 0 .2.1h.2c.1 0 .1 0 .2.1l.1.1h-.2c-.1 0-.2 0-.3-.1h-.1v.1l-.3.3c0 .1-.1.1-.2.2l-.1.1s-.1 0-.1.1c-.1.1-.1.2-.2.2l-.1.1-.1.1-.3-.1zm-1.6-3.6zm-9-6.5zM15 10c-.1 0-.1 0 0 0-.1 0-.1 0 0 0l-.8.8-.4.4c.1-.1.2-.3.4-.4l.2-.2h.1c0-.1.1-.1.1-.2l.1-.1.2-.2.1-.1zm-.9 1.1zm0-.1zm.2-.1zm0-.1s0 .1 0 0c0 .1 0 .1 0 0 0 .1 0 0 0 0zm0 0zm.3-.3c-.1 0-.1.1-.1.1l.1-.1zm.2-.7-.2.2-.1.1-.1.1-.2.2c.2-.1.4-.3.6-.6.1.1.1.1 0 0 .1.1.1.1 0 0zm-.2-.2-.4.4-.2.2v.1l.1.1.2-.2c.1 0 .1-.1.2-.1l.2-.2c0-.1 0-.2-.1-.3zm.3.6zm.2-.2z"/><path d="M15.3 17.7c.1-.1 0-.1 0 0 0-.2-.1-.2-.1-.2L14 16.3c-.1-.1-.2-.1-.2-.2l-.3-.3c-.1-.1-.2-.1-.1-.2-.1 0-.1-.1-.1-.1.1-.1 0-.1 0-.1v-.1s0-.1.1-.1c-.1.1 0 .1-.1.2.1 0 .1-.1.1-.1l.1-.1h-.1s0-.1 0 0c0-.1.1 0 .1 0l-.2-.2s-.1 0 0 0h.1c.1.1.2.2.3.4l1.9 1.9.1.1c-.2.2-.5.4-.6.7.1-.2.1-.3.2-.4zm-1.9-2.3s-.1.1 0 0c0 .1 0 .1 0 0 .1 0 .2-.1.2-.2-.1.1-.1.2-.2.2l.2-.2-.1.1c-.1 0-.2.1-.1.1 0 0 0-.1 0 0zm1.8 1.8c0 .1-.1.1 0 0 0 .2 0 .2 0 0 .1.1.2 0 .2 0 .1-.1.1-.1 0-.2l-.1-.1-.1.1c-.1.1 0 .1 0 .1v.1l.2-.2-.2.2zm-.6-.9c-.1.1-.1.2-.2.2 0 .1.1 0 .1 0v.1l.2-.2c0 .1-.1.1-.2.2l.2-.2-.2.2v.1h.1l.2-.2v-.1c-.2-.2-.2-.2-.4 0v.1c0-.1.1-.1.2-.2zm-.4 0c.1-.1.2-.1.2-.2 0 0 .1 0 0-.1h-.1s.1-.1 0-.1h-.1c0 .1-.1.1-.1.1 0 .2 0 .2.1.3-.1 0 0 0 0 0 0-.1.1-.1.1-.1l-.1.1zm-.3-.2.2-.2c.1 0 0-.1 0-.1H14s-.1.1-.1.3c0-.1 0-.1 0 0 0-.1 0-.1 0 0zm.8.7h.1-.1c.1.1.1 0 .2 0l.2-.2c-.1 0-.1.1-.2.1 0-.1.1-.1.1-.2-.2.1-.3.2-.3.3zm-1.1-1.2c0 .1-.1.1-.1.1.1 0 .1-.1.1-.1h.1s.1 0 0-.1c0 0-.1-.1-.1 0s-.1.1-.2.2l.2-.1zm0-.2c0-.1.1-.1 0 0 0-.1 0-.1 0 0-.1 0-.1.1-.2.1v.1h.1s-.1 0 0 .1h.1c0-.2.1-.3 0-.3 0 0 0 .1-.1.1l.1-.1zm1.4 1.4c0-.1 0-.1 0 0 0-.1 0-.1 0 0-.1 0-.2.1-.2.1s0 .1 0 0c.1 0 .2-.1.2-.1.1 0 .1-.1 0 0 .1-.1 0-.1 0 0l-.1.1c0-.1.1-.1.1-.1zm-.9-.6c.1-.1.2-.2.3-.2 0 0 0-.1-.1 0-.2 0-.2.1-.2.2-.1 0-.1 0 0 0 0-.1.1-.2.2-.3-.1.2-.2.2-.2.3zm1.4 1.1-.2.2c.2-.1.2-.1.2-.2.1 0 .1 0 0 0 .1 0 0-.1 0 0-.1 0-.2.1-.2.1.1 0 .1-.1.2-.1zm-1.1-.9.2-.2v-.1h-.1c-.1.2-.2.3-.1.3-.1.1-.1 0 0 0zm.3.4.2-.2v-.1h-.1c-.1.1-.1.2-.1.3-.1 0 0 0 0 0zm-1-1c-.1 0-.1 0 0 0s.2-.1.2-.2l-.1.1c-.1 0-.1 0-.1.1zm1.5 1.1c0-.1 0-.1 0 0-.1 0-.2.1-.2.2 0-.1.1-.1.2-.2zm0-.1c-.1 0-.2.1-.3.3l.3-.3zm-1-.4c.1 0 .2-.1.2-.2l-.2.2zm0-.5c-.1 0-.2.1-.2.2l.2-.2zm-1-.5c.1 0 .2-.2.3-.3l-.3.3zm.5.5c.1 0 .1 0 0 0 .1-.1.2-.1.3-.2-.1 0-.2.1-.3.2zm.1 0c.1 0 .2-.1.3-.2-.1.1-.2.2-.3.2zm1.6 1.6c.1 0 .2-.1.3-.2-.1.1-.2.2-.3.2zm-1.8-1.8c.1-.1.2-.1.2-.2 0 .1-.1.2-.2.2zm.1.1c.1-.1.2-.1.2-.2 0 .1-.1.2-.2.2zm1.6 1.5s-.1.1 0 0c0 .1 0 0 0 0 .1 0 .1-.1.2-.1-.1 0-.1 0-.2.1zm-.7-1.1.3.3-.3-.3z"/><path fill="#010101" d="m15.1 18.3.1-.3c0-.1.1-.2.2-.3h-.1l.1-.1-.1-.1-.1-.1-.3-.3-.1.1v-.1l-.1-.1-.3-.3-.3-.3H14l-.1-.1h-.1v-.1l-.1-.1c-.1 0-.1-.1-.1-.1h-.1c0-.1-.1-.1-.2-.2l-.1-.1c-.1 0-.1-.1-.1-.2l-.1-.1h-.1l-.2.1.2-.2v-.1s0-.1.1-.1c0 0 0-.1.1-.1V14.7h.1c.1 0 .1.1.2.2l.1-.1v.1l.1.1.1.1.7.7.1-.1v.1l.4.4.1.1h.1l-.1.1.1.1h.1l-.1.1.4.4s0 .1.1 0h.1l-.1.1c-.2.2-.4.4-.6.7l.1.5zm.2-.8zm-.4-.3.3.3h-.1v-.1H15c0-.2 0-.2-.1-.2zm.3.1c.1 0 .1 0 .1-.1l.1-.1-.2.2zm.5 0zm-.1-.1zm-.4-.2-.1.1.1-.1c.1 0 .1 0 0 0 .1 0 0 0 0 0zm.3.1zm-.7-.1c.1 0 .1 0 0 0zm0 0zm.5-.1.1.1-.1-.1zm-.5.1zm-.1-.1zm.5 0c0-.1 0-.1 0 0 0-.1 0-.1 0 0zm-.6-.1zm.5-.1zm-.7-.1.1.1-.1-.1zm.6 0zm-.7-.1zm.2 0 .2-.1.1.1-.1-.1-.2.1zm-.3-.1zm.1-.3c0 .1 0 .1 0 0zm.2 0zm-.7-.1c.1.1.1.1 0 0zm.6 0zm0 0zm-.5-.1s.1.1 0 0c.1 0 .1 0 .1-.1v-.1c0 .2 0 .2-.1.2zm.4.1zm-.6-.1zm.6 0zm-.6-.1c0 .1 0 .1 0 0zm.5.1c.1 0 .1 0 0 0 .1 0 .1 0 0 0 0-.1 0-.1 0 0 0-.1 0-.1 0 0 0-.1 0-.1 0 0 0-.1 0 0 0 0zm-.8-.2c.1 0 .1 0 0 0l.1.1-.1-.1c.1 0 .1 0 0 0 .1 0 .1 0 0 0zm0-.2s0 .1.1.1l-.1-.1c0 .1 0 .1 0 0 0 .1 0 .1 0 0 0 .1 0 .1 0 0zm.3 0zm-.2 0zm.3-.1zm-.6 0zm.5-.1zm-.1-.1zm-.2-.1c-.1.1-.1.1 0 0-.1.1-.1.1 0 0-.1.1 0 .1 0 0 0 .1 0 .1 0 0zm.2 0s0 .1 0 0z"/><path d="M17.7 15.4c-.2.1-.3.3-.4.4l-.1.1s0-.1-.1-.1l-.4-.4-.6-.6-1.3-1.3s-.1 0 0-.1h.2l.1-.1c.1-.1.3-.1.4 0l1.7 1.7.3.3c.1.1.1.1 0 .1l-.2.2c.1.1.1.1.2 0 0 .1-.1.1-.1.1l.1-.1c.1-.1.2-.1.1-.3-.1.2-.1.2.1.1 0 0 0-.1 0 0zm-.7-.3c-.1 0-.1.1-.2.1v-.1s.1-.1 0-.1 0-.1 0-.1h-.1l-.1.1c0-.1.1-.1.1-.2l-.3.3c.1 0 .1-.1.2-.1l-.1.1c.1 0 .2-.1.2-.2-.1.1-.2.1-.2.2.1 0 .1 0 .1-.1v.1s0 .1.1 0c0 .1 0 0 .1 0l.1-.1-.1.1c.1 0 0 .1.1 0l.2-.2v-.1c-.1-.1-.1-.1-.2 0 0 .4 0 .3.1.3zm-1-.4c.1 0 .2-.1.2-.2 0 .1-.1.1-.2.2.2 0 .2-.1.3-.2-.1 0-.1-.1-.2-.2l-.2.2c.1 0 .1-.1.2-.2 0 .1-.1.1-.2.3.1-.1.2-.2.3-.2-.1 0-.2.1-.2.3 0-.1 0-.1 0 0 0-.1.1-.2.2-.3 0 .1-.1.2-.2.3zm1 .8c-.1.1 0 .1 0 .2l.2-.2v-.1c-.1-.1-.1-.1-.2 0l-.2.2c.2 0 .2-.1.2-.1zm-.6-.7-.1.1h.1l.1-.1s.1 0 0-.1h-.1c.1.1.1.2 0 .1 0 .1 0 .1 0 0 0 0 .1 0 .1-.1 0 0 0-.1-.1-.1-.1.1-.2.2-.2.3.1 0 .1-.1.2-.1zm-.4-.6c.1-.1 0-.1 0 0-.1-.2-.1-.2-.2-.1 0 .1-.1.1-.2.2.1 0 .1-.1.3-.2-.1.1-.2.2-.2.3.1 0 .1-.1.2-.1 0 .1-.1.1-.1.1l.2-.2zm-.6-.5-.2.2h.1c0-.1.1-.2.1-.2 0 .1-.1.1-.1.2l.2-.2v-.1c0-.1-.1 0-.1.1 0-.1.1-.1.1-.1-.1-.1-.1 0-.1.1-.1 0-.1 0-.2.1.1 0 .1-.1.2-.1zm1.1 1.3s-.1.1 0 .1V15c.1 0 .1 0 .2-.1v-.1c-.1 0 0-.1-.1 0l-.3.3.2-.1zm-.2-.4c0 .1-.1.1-.1.2l.2-.2h-.1c.1-.1.1-.1 0 0-.1 0-.1.1-.2.2.1-.1.2-.1.2-.2zm-.6-.6c0-.1.1-.1.1-.2l-.3.3c.1 0 .1 0 .2-.1 0 .1-.1.1-.1.1.1 0 .2-.2.2-.3 0 .1-.1.2-.1.2zm.1.4c0 .1.1.1 0 0 .1 0 .2-.1.3-.2-.1 0-.2.1-.3.2zm-.3-.3.1-.1.1-.1-.1.1c-.1 0-.2 0-.1.1zm-.4-.4c0 .1.1.1 0 0 .1 0 .2-.1.2-.1v-.1l-.1.1s0 .1-.1.1zm.2-.3-.1.1-.1.1.1-.1.1-.1zm.4.4c-.1.1-.2.1-.3.2.1 0 .2-.1.3-.2zm.2.2c-.1 0-.2.2-.3.3l.3-.3zm-.8-.3c.1-.1.2-.1.3-.2-.2 0-.3.1-.3.2zm.3.3c.1 0 .2-.1.3-.2-.2 0-.2.1-.3.2zm-.4-.4c.1-.1.2-.1.2-.2-.1 0-.2.1-.2.2zm.6.1c-.1.1-.2.1-.3.2.1-.1.2-.1.3-.2zm-.5-.3c-.1 0-.1.1-.1.1l.1-.1z"/><path fill="#010101" d="M17.2 15.9c-.1 0-.1 0 0 0l-.1-.1-.2-.2-.1-.1-.2-.2-.2-.2-.2-.2-.1-.1-.1-.1-.1-.1-.2-.2c-.1-.1-.2-.2-.2-.3h-.1l.1-.1-.1-.1-.4.2.2-.1-.3-.3-.2-.2v-.2H15c.1-.1.1-.1.2-.1h.2v.1s.1 0 .1.1l.3.3.1.1.1.1h.1l.1-.1-.2.2.1.1.1.1.1-.1-.1.1.5.5.1.1.1.1c.1 0 .1.1.2.1l.1.1.1.1.1-.1h.1v.2h-.1c-.1.1-.2.1-.2.2l-.2.2c.3.2.2.2.2.2zm-.1-.1zm0-.1s.1 0 0 0l.2-.2v.1c.1-.1.1-.1.1-.2-.2.1-.2.2-.3.3zm-.2-.1zm.3-.2-.2.1v.1l.1-.1c.1 0 .1-.1.1-.1zm.3.1zm-.7-.1zm.1 0c.1 0 .1 0 .1-.1l.1-.1-.2.2zm.3-.1c-.1.1-.1.1 0 0zm-.5.1zm0-.1c0 .1 0 .1 0 0 0 .1 0 0 0 0zm.1 0zm-.2 0zm.1 0 .1-.1-.1.1c0-.1 0-.1 0 0zm-.2-.1zm.5 0c-.1 0 0 0 0 0zm-.5 0zm-.1-.1zm-.2-.2c.1 0 .1.1 0 0 .1.1.1.1 0 0l.1.1c.1 0 0 0-.1-.1.1.1.1 0 0 0 .1 0 .1 0 0 0zm.5.1zm-.1-.1c.1 0 .1-.1.1-.1l-.1.1zm-.4-.1zm.3-.1s-.1 0 0 0c-.1 0-.1 0 0 0zm-.5 0zm.4-.1zm-.5-.1c0 .1 0 .1 0 0 0 .1 0 0 0 0zm-.1 0zm-.1-.1zm.4-.1c.1 0 0 0 0 0zm-.6-.1c.1 0 .1 0 0 0zm.4 0s.1 0 0 0c.1 0 .1-.1 0 0 .1-.1.1-.1 0 0zm.1-.1zm-.6 0zm-.1-.1zm-.1-.1.1.1c0-.1 0-.1-.1-.1zm.7 0s-.1 0 0 0zm-.9-.3.2.2-.2-.2c0 .1 0 .1 0 0 0 .1 0 0 0 0zm.5 0zm-.6 0zm0-.1s0 .1 0 0zm-.1 0z"/><path d="M18.5 13.9c0-.2-.2-.2-.2-.3h.1c0 .1.1.2.1.3 0 0 .1 0 0 0 .1-.1.1-.2.1-.2.1 0 .1-.1 0-.1-.1-.1-.2-.2-.4-.3.1.1.2.2.2.3l-.2-.2s0-.1-.1 0c0 0-.1 0 0 .1l-.2-.2-.3-.3s.1.1 0 .1h-.1v.1l.3.3s0 .1.1.1v-.1c0 .1.1 0 .1.1l.1.1-.1-.1.3.3s-.1 0-.1-.1l-.6-.6-.4-.4c-.1-.1-.1-.1-.2 0l-.4.4h-.1c.1-.1.2-.3.4-.4.1-.1.1-.1 0-.2l-.9-.9-.9-.9c-.1-.1-.1-.2-.1-.3.1.2.2.4.4.5l.3.3c.1.1.1.2.2.2.1.1.2.2.4.3.2.2.4.5.7.7 0 0 .1.1.1 0v-.1l-.6-.6-.1-.1c0 .1.1.1.1.2v.1c.1 0 .1.1.2.1h.2v-.2c.1 0 .1.1.1.1s-.1 0-.1.1c.1 0 .1-.1.1-.2 0 0 0 .1-.1 0-.1-.2-.2-.3-.4-.4h-.1v.1l.2.2c-.1 0-.2-.2-.3-.2l.1-.1c.1-.1.1-.1.3 0l.6.6c.6.6 1.1 1.2 1.7 1.7l.1.1.6.6c.1.1.1.1 0 .2l-.1.1c-.1.1-.1.1-.2 0l-.1-.1-.6-.6c-.1-.1-.2-.1-.2-.2l-.3-.3c.2.3.2.3.3.3zM17 12.4c0 .2.2.3.3.4.1.1.1.1.2 0 0 0 .1-.1.1 0l-.3-.3.3.3-.2-.2.2.2v-.1l-.4-.4h-.1v.1l.1.1s-.1 0-.1-.1c.1-.1.1-.1-.1 0 .1 0 .1 0 0 0 .1.1.2.1.2.1-.1 0-.1-.1-.2-.1zm2.2 1.8c-.1 0-.1 0 0 0-.1-.1-.2-.2-.4-.3 0 0 0-.1-.1 0v.1l.1.1-.2-.2c0 .1 1 1 1.1 1l-.6-.6s.1 0 .1.1l-.2-.2c.1 0 .1.1.1.1h.1c.1 0 .1 0 0-.1s-.2-.3-.4-.4c.1.2.2.3.4.4zm-2.5-2.5c0 .1.1.1.1.2 0 0-.1-.1-.1-.2 0 .1 0 .1 0 0 .1.2.2.3.4.5h.1l-.5-.5zm1.9 2.3c.1.2.2.3.3.4h.1l-.4-.4zm.7.4c0 .1.3.3.5.5-.2-.1-.3-.3-.5-.5zm0 0c.1.2.3.3.5.5-.1-.2-.3-.4-.5-.5zm.4.5-.5-.5c.2.2.3.4.5.5zm-1.5-1.7c0-.1-.3-.4-.5-.5.2.2.3.4.5.5zm-.1.1c0-.1-.3-.4-.4-.5.2.2.3.3.4.5zm0 0c-.1-.2-.3-.3-.4-.5.1.2.3.4.4.5z"/><path fill="#010101" d="M19.6 15.1s-.1 0-.1-.1l-.1-.1-.1-.1-.3-.3-.3-.3-.1-.1-.1-.1c0-.1-.1-.1-.1-.1l-.1-.1s-.1 0-.1-.1c-.1-.1-.2-.2-.4-.3l-.2-.2-.4-.4H17l-.3.3-.1.1h-.1l.1-.1.3-.3h.1l-.6-.6-.5-.5-.6-.6c-.1-.1-.1-.2-.1-.3v-.3l.1.2c.1.2.2.3.3.5l.1.1.2.2c.1 0 .1.1.1.1s0 .1.1.1l.1.1.2.2.1-.1.1-.1c.1 0 .1 0 .2.1s.2.2.2.3l.1.1c.1.1.1.2.2.2l1 1 .7.7s.1 0 .1.1c.1.2.3.3.4.4l.1.1.1.1s0 .1-.1.1c.1.1.1.1 0 .1zm-.5-.6.4.4s.1 0 .1.1h.1c-.1 0-.2-.1-.6-.5zm.6.4zm.1 0zm-.5-.5zm-.1 0zm-.3-.2.1.1-.1-.1zm.3.1zm-.3-.1s0-.1-.1-.1l.1.1zm-.4-.3c0 .1 0 .1 0 0 .1.1.1 0 0 0 .1 0 .1 0 0 0 .1 0 .1 0 0 0zm.2 0zm0 0zm-.1 0c.1 0 .1 0 0 0 0-.1 0-.1 0 0 0-.1 0 0 0 0zm.1-.1zm-.4-.2c.1.1.2.2.3.2v-.1l-.2-.2-.1-.1c0 .1-.1.1 0 .2l-.1-.1.1.1c-.1 0-.1 0 0 0zm.3.1zm-.6-.2c.1-.1 0-.1 0 0 0-.1 0-.1 0 0zm.1-.1zm-.5-.4.3.3-.3-.3zm.6.2zm-.7-.2s0-.1 0 0c.1-.1.1-.1 0 0l.1-.1-.1.1c0-.1 0-.1 0 0zm-.4-.4c0 .1.1.1.2.2l.1.1-.3-.3s-.1 0-.1-.1l.1.1.1.1-.1-.1c.1 0 .1 0 0 0zm.2-.2c.1.1 0 0 0 0zm-.3.1zm-.1-.1c.1 0 0 0 0 0zm-.1-.2c.1 0 .1.1 0 0 .1.1.1.1 0 0 .1.1.1.1 0 0 .1.1.1.1 0 0l.1.1-.1-.1c.1.1.1.1 0 0 .1.1.1 0 0 0l-.1-.1h-.1c.1 0 .1.1.2.1zm-.1-.3s0 .1 0 0l.1.1.1.1c-.1 0-.2-.1-.2-.2z"/><path d="M13.9 18.7c-.2 0 0 .1 0 0-.1.1-.1 0 0 0 .1.2.2.4.4.5-.2-.1-.3-.3-.4-.4 0 0 0-.1-.1 0v.1h-.1v.1l.4.4s0 .1.1 0c0 .1.1 0 .1 0l.6.6s-.1 0-.1.1h-.1l-1-1V19c0-.3.1-.3.2-.3-.1-.1-.1 0-.2.1.1 0 0-.1 0-.1l-.1-.1.1.1c0 .1.1 0 .1 0v-.1l-.4-.4-.5-.5.9.9-1-1s.1 0 0-.1c-.2-.1-.3-.3-.4-.5l-.1.1V17c0 .1-.1.1-.1.2.1-.1.1-.1.2 0h-.1c-.1 0 0 0 0 .1l.4.4v-.1l-.1-.1-.3-.3.3.3-.4-.4.3.3s.1.1.1 0h.1c0 .1.1.1.1.1l.3.3s.1 0 0 .1c-.2-.2-.3-.4-.5-.4l.2.2c-.1 0-.1-.1-.2-.1 0 0 0 .1.1.1l.3.3c.1.1.1.1.1 0-.1.1-.1.1 0 .2l.1.1.4.4-1.7-1.7c.1 0 .1.1.1.1 0-.1.2-.1.1-.2l.1.1-.5-.5c-.1.1-.1.1 0 .2-.1 0-.1-.3-.3-.1 0-.1.1-.1.2-.2 0-.1.1 0 .1 0l.7.7c.2.1.3.3.5.5.1.1.1.1.2 0s.2-.2.3-.4l-.2.2c-.1.1-.1.1 0 .3l.4.4c-.2-.1-.3-.3-.4-.4 0 0 0-.1-.1 0v.1l1.7 1.7c.1.1.1.1-.1.2.1-.1.1-.1 0-.2l-.3-.3c-.1 0-.1-.1-.2-.1l.3.3c-.2-.1-.3-.3-.5-.4l-.3-.3.3.3s0 .1.1 0 0-.1 0-.1c.1 0-.1-.1-.2-.2 0-.1 0 0 0 0zm.5.8.3.3h.1v-.1l-.4-.4s0-.1-.1 0c0 0-.1.1 0 .1l.4.4c-.1-.2-.2-.3-.4-.4 0 0 0 .1.1.1z"/><path fill="#010101" d="M14.7 20c-.1 0-.1 0-.1-.1l-1-1v-.1l-.1-.1-1.5-1.4-.1.1v-.2l-.2-.2.2.1h.1l.1-.1s.1 0 .1-.1v-.1l-.2.1h.1l-.3-.3s0 .1.1.1l.1.1v.1l-.1-.1s0-.1-.1-.1l-.1.1-.3.2.2-.3c0-.1.1-.1.1-.1l.1-.1s0-.1.1-.1c0 0 .1 0 .1.1.1.1.2.2.4.3l.4.4.5.5h.2c.1-.1.2-.2.2-.3l.1-.1v.2l-.2.2-.1.1s0 .1.1.1l.4.4-.1.1.3.3 1 1 .1.1s0 .1-.1.1c-.4 0-.4 0-.5.1.1-.1.1 0 0 0zm-.2-.6.3.3s.1-.1 0-.1l-.2-.1-.1-.1zm-.1-.1c.1.1.1.1 0 0 .1.1 0 .1 0 0zm-.6-.4.3.3-.3-.3zm.5.3c.1 0 .1 0 0 0zm-.4-.4c.1.1.2.2.3.2l.1.1-.1-.1c-.1-.1-.2-.2-.3-.2 0-.1 0-.1 0 0zm-.7-.6c-.1.1-.1.1 0 .1l.3.3-.1-.1-.1-.2.1.1.1.1-.3-.3c.1 0 .1 0 0 0zm-.4-.3s0 .1 0 0l.2.2-.1-.1c-.1-.1-.2-.2-.3-.2l.2.2v-.1zm-.1-.2s0-.1 0 0zm-.1-.1zm-.3-.4.1.1.2.2-.2-.2c.1 0 0-.1-.1-.1 0-.1 0 0 0 0-.1 0-.1 0 0 0zm-.1.1zm0-.3c0 .1 0 .1 0 0 0 .1.1.1 0 0z"/><path d="m19.8 28.5.3-.3c0-.1.1 0 .1 0l.5.5.1.1c-.1 0 0-.1-.1-.1 0 .1 0 .1-.1 0l-3-3-.5-.5-.4-.4c-.2-.1-.3-.3-.5-.5l-.1-.1c0 .1.1.1.1.1.2.2.4.5.6.6.1.1.3.2.3.3v.1l.2.2 2.6 2.6c.1.1.1.1 0 .2.1 0 0 .1-.1.2z"/><path fill="#010101" d="M20.9 28.8c-.1 0-.1-.1 0 0-.1 0-.1 0-.1-.1l-.1-.1-.4-.4-.2.2-.1.1-.1-.1.1-.1.2-.2v-.2L19 26.7c-.4-.4-.9-.9-1.4-1.3l-.1-.1-.1-.1v-.1c0-.1-.1-.2-.2-.2l-.1-.1c-.2-.2-.4-.4-.6-.7l-.1-.1v-.2l.1.1c.1.1.2.2.2.3.1.1.1.2.2.2l.2.2.2.2c.1.1.3.2.4.4l.1.1 2.4 2.4.7.7v-.1h.1v.1c-.1.3-.1.3-.1.4 0-.1 0-.1 0 0 0-.1 0-.1 0 0z"/><path d="M12.1 8.3s.1-.1.1 0l.1.1c0 .1-.1 0-.1 0s0-.1-.1-.1c0 .1.1.1.1.1l.1.1c0-.1.1-.1.2-.2l.2-.2c-.1.1-.2.2-.3.4-.1.1-.1.1 0 .2l.3.3.8.8.2.2c-.1 0 0 .1 0 .2 0 .2 0 .4-.2.5-.1.1-.2.2-.4.2H13c.1 0 .2 0 .3-.1.1 0 .1-.1.2-.2.2-.2.2-.5 0-.7l-.6-.6h-.1l-.1.1.1-.1c.1-.1.1-.1 0-.2l-.2-.2c-.1-.1-.1-.1-.1 0-.3.1-.4.2-.5.1h-.1s-.1.1-.1 0h-.1c-.1 0-.1 0-.1-.1s.1-.1.1-.1c0 .1.1.1.1.2.2.1.4 0 .5-.1v-.1c-.1-.1-.1-.2-.2-.3H12v.1s0 .1.1.1c.1.1.1.1 0 .2H12l-.1-.1c0-.2.1-.4.2-.5zm-.2.3c-.1.1 0 .1 0 .1 0 .1.1.1.1 0 .1-.1 0-.1 0-.1 0-.1-.1-.1-.1 0zm-.2.4s.1 0 0 0c.1-.1 0-.1-.1-.1h-.1c.2 0 .2 0 .2.1z"/><path fill="#010101" d="M13 10.9s-.1 0-.1-.1l-.1-.1h.1c.1 0 .2 0 .3-.1l.1-.1.1-.1c.1-.1.1-.2.1-.3 0-.1 0-.2-.1-.3l-.4-.4c-.1-.1-.2-.1-.2-.2l-.1.1c0-.1.1-.1.1-.1s.1 0 .1-.1V9l-.1-.1-.1-.1c-.5.2-.6.3-.7.3h-.1l-.1.1s-.1 0-.1-.1c-.1 0-.1 0-.1-.1v-.1s0-.1.1-.1h.1l.1-.1.2-.2s.1-.1.2 0l.1.1s.1 0 .1-.1.1-.1.1-.1l.1-.1.1.1c-.1.1-.2.3-.3.4l-.1.1V9l.2.2.1.1.3.3c.1.1.3.3.5.4l.1.1.1.1V10.5c0 .2 0 .4-.2.6-.1-.3-.3-.3-.5-.2.1 0 0 0 0 0zM11.8 9c0 .1 0 .1 0 0 0 .1 0 .1 0 0 0 0 .1 0 0 0zm-.1-.3c.1.1.1.1 0 0l.1.1s.1.1.2.1.1-.1.2-.1v-.1s-.1-.1-.1-.2l-.1-.1c.1.1.1.2 0 .3h-.1c0 .2 0 .2-.2 0 .1.1.1.1 0 0zm-.1.2c0 .1 0 .1 0 0zm.1-.1zm.2-.2c0 .1 0 .1 0 0 0 .1 0 .1 0 0v.1c.1 0 .1 0 0-.1.1.1.1.1 0 0 .1 0 .1 0 0 0zm.3-.2zm0-.1z"/><path d="M23.6 17.7c-.1-.1-.1-.1-.2 0 0 0 0 .1-.1 0 0 0-.1 0-.1-.1 0 0 0-.1.1-.1.2 0 .2 0 .3.2.4.3.8.6 1.1 1l.8.8c.1.1.1.1 0 .3 0 0 0 .1-.1.1s-.1-.1-.1-.1h.1c.1 0 .1 0 .1-.1v-.1s-.1 0-.1-.1l-.9-.9-.9-.9zm.8.7a1.38 1.38 0 0 0 0 0z"/><path fill="#010101" d="M25.5 19.9c-.1 0-.2-.1-.1-.2v-.1h.1s-.1 0-.1-.1l-.7-.7-1.1-1.1-.1-.1v.1s0 .1-.1 0c-.1 0-.1-.1-.1-.1v-.1h.1c.1-.1.2-.1.3 0l.6.6.5.5.8.8c.1.1.1.2.1.3l-.2.2c.1-.1.1 0 0 0 .1 0 0 0 0 0zm0-.2c0 .1 0 .1 0 0 0 .1 0 .1 0 0 0 .1 0 .1 0 0 0 .1 0 .1 0 0 0 .1 0 .1 0 0zm0 0zm-2.1-2.1s0 .1 0 0c0 .1 0 .1 0 0 0 .1 0 .1 0 0zm.1-.1s0 .1 0 0z"/><path d="M22.3 24s0 .1 0 0c.1.1.1 0 .1 0h-.1c.1-.1 0-.1 0-.1l-.2-.2s0-.1-.1-.1-.1-.1 0-.2l1.3-1.3.1-.1c.1 0 .1.1.2.1.1.2.3.3.4.4 0 0 .1.1 0 .1-.1.1-.1.1 0 .1v.1h-.1v-.2h-.1v.1s-.1-.1 0-.1c0 0 .1-.1.1 0 0 0 .1-.1 0-.1l-.4-.4h-.1L22 23.5v.1l.4.4c.1.1.1.1.2.1-.1.1-.1.1 0 .2l.3.3c.1 0 .1.1 0 .1-.1-.1-.2-.3-.4-.4 0 0-.1-.1-.2 0h-.1c.1-.2 0-.2.1-.3-.1.1-.2.1-.2.2s0 .1-.1.2c0-.1.1-.1 0-.1v-.1c.2-.1.2-.1.3-.2zm-.3-.7c-.1 0-.1.1 0 0 0 .1 0 .1 0 0 .2-.1.3-.3.5-.4l.9-.9s.1-.1 0-.1h-.1l-.3.3-.4.4c-.2.3-.4.5-.6.7z"/><path fill="#010101" d="m22.9 24.6-.2-.2-.2-.2h-.2v.2l-.3.1v-.2c-.1-.1 0-.1 0-.2l.1-.1.1-.1v-.1h.1c0-.1-.1-.1-.1-.2l-.1-.1v-.1l-.1-.1c-.1 0-.1-.1-.1-.1 0-.1 0-.1.1-.2l.1-.1 1.2-1.2.1-.1c.1 0 .2.1.2.1.1.2.2.3.4.4l.1.1V22.5c-.1.1-.1 0-.2 0v-.1s-.1-.1 0-.2c0 0 0-.1.1-.1h.1l-.4-.4c-.5.6-1 1-1.4 1.4l.1.1.3.3c.1.1.1.1.1 0l.2-.1-.4.6v.2l.1.1.2.2c.1-.1.1 0 0 .1zm-.4-.6zm-.2 0c.1 0 .1 0 0 0 .1 0 .1 0 0 0zm1.6-1.2c.1 0 .1 0 0 0 .1 0 .1-.1 0 0 .1-.1.1-.1 0 0 0-.1 0 0 0 0z"/><path d="M23.9 20.8h-.1v.1h.1c.1-.1.1-.2.1-.3-.1-.2-.2-.3-.4-.5-.1-.2-.3-.4-.4-.6-.1-.2-.2-.3-.3-.5-.1-.1-.2-.3-.3-.4 0-.1-.1-.1-.1 0h-.1s-.1 0 0 0c0 0 0 .1.1.1h.1c0-.1.1-.1.1 0 .1.1.1.2.2.3l.6.9c.1.2.3.4.4.6-.1.1 0 .2 0 .3z"/><path fill="#010101" d="M23.8 21c0-.1 0-.1 0 0 0-.1-.1-.1 0 0-.1-.1-.1-.1-.1-.2h.1c0-.1-.1-.1-.1-.2l-.1-.1c-.1-.1-.2-.3-.3-.4 0-.1-.1-.1-.1-.2l-.2-.4c-.1-.2-.2-.4-.4-.5v-.1c0-.1-.1-.1-.1-.2v.1h-.1c-.1 0-.1-.1-.1-.1v-.1h.1l.1-.1s.1 0 .1.1c.1.1.2.3.3.4 0 .1.1.1.1.2.1.1.1.2.2.3.1.1.2.2.3.4 0 .1.1.1.1.2s.1.1.1.2c.1.1.1.2.2.3.1.1.1.1.1.2s-.1.1-.2.2c.1 0 0 0 0 0zm0-.2s0 .1 0 0c0 .1 0 .1 0 0 .1.1.1 0 0 0zm0-.2c0 .1.1.1.1.2 0-.1 0-.1-.1-.2.1 0 .1 0 0 0zm-.6-.9.1.2c0 .1.1.1.1.2.1.1.2.3.3.4v.1c0-.1-.1-.1-.1-.2s-.1-.1-.1-.2-.1-.1-.1-.2c-.1-.2-.1-.2-.2-.3zm-.9-1c.1 0 .1 0 0 0 .1 0 .1 0 0 0 .1 0 0 0 0 0z"/><path d="m16.8 10.7-.8-.8-.1-.1h-.1l-.1.1s-.1 0 0 .1c0 0 0 .1.1.1l.1-.1c0-.1 0-.1.1-.1 0 0 .1 0 .1.1l.3.3.5.5c.2.1.3.3.4.4.2.2.4.3.5.5v.1c.1.1 0 .1-.1.2-.1 0-.1 0-.1.1l.1.1h.1c0-.1.1-.1.1-.2v-.1s0-.1-.1-.1c-.5-.6-.8-.9-1-1.1z"/><path fill="#010101" d="M17.5 11.9c-.1 0-.1-.1-.1-.1s0-.1.1-.1h.1v-.2l-.3-.3c-.2 0-.3-.1-.3-.2l-.1-.1-.3-.3-.3-.3-.2-.2H16c-.1-.1-.2-.1-.2-.2h-.1s-.1 0-.1.1c0 0 0 .1-.1.1 0 0-.1 0-.1-.1s0-.1.1-.1c0 0 .1 0 .1-.1 0 0 .1-.1.2 0l.1.1.6.6.4.4.7.7.1.1v.1l-.2.1c.1 0 .1 0 0 0zm0-.1s.1 0 0 0c.1 0 0 0 0 0zm0 0zm.2-.2zm-2.1-1.8c-.1 0-.1 0 0 0 0 .1 0 .1 0 0 0 .1 0 .1 0 0 0 .1 0 .1 0 0zm0 .1z"/><path d="M18.5 22.6c.2.1.4.3.6.4.2.1.3.2.5.3.3.2.5.4.8.5l.1.1h.2l-.1-.1c-.2-.1-.4-.3-.6-.4-.2-.1-.4-.3-.6-.4-.3-.2-.5-.3-.8-.5l-.1-.1c0-.1 0-.1.1-.1 0 0 .1 0 0 0 0 0-.1-.1-.1 0s-.1.1-.1.2c0 0 0 .1.1.1z"/><path fill="#010101" d="M20.6 24.1h-.1l-.1-.1h-.1c-.1 0-.1-.1-.2-.1-.2-.1-.4-.3-.6-.4-.1 0-.1-.1-.2-.2s-.2-.1-.2-.2c-.2-.1-.3-.2-.5-.3-.1 0-.1-.1-.2-.1s-.1-.1-.1-.2.1-.1.1-.1h.1l.1.1v.1h-.1s0 .1.1.1c.1.1.3.2.4.3.1.1.3.2.4.3.2.2.4.3.6.4 0 0 .1 0 .1.1.2.1.3.2.5.3 0 0 .1 0 .1.1 0-.1 0-.1-.1-.1zm-.1-.1.1.1-.1-.1zm-1.1-.8c.1 0 .1.1.2.1s.1.1.2.1c-.2 0-.3-.1-.4-.2zm-1-.7s.1.1 0 0c.1.1.1.1 0 0 .1 0 0 0 0 0zm.2-.1c-.1 0-.1 0 0 0-.1 0 0 0 0 0z"/><path d="m21.6 15.7-.6-.6c-.1-.1-.2-.1-.2 0 0 0 0 .1-.1 0h-.1V15s.1 0 .1-.1c.1-.1.1 0 .2 0l1.3 1.3.3.3c.1.1.2.3.4.4v.1l-.1.1h-.1V17c.1 0 .1-.1 0-.2l-.6-.6c0-.1-.2-.3-.5-.5zm.9.9.3.3c-.1-.2-.2-.3-.3-.3 0-.1 0-.1 0 0z"/><path fill="#010101" d="M22.9 17.3c-.1 0-.1 0-.1-.1 0 0 0-.1.1-.1h.1l-.1-.1-.6-.6-.3-.3-.4-.4c-.1-.2-.3-.3-.4-.4l-.2-.2h-.1v.1s0 .1-.1.1c0 0-.1 0-.1-.1s0-.1.1-.1h.1c.1-.1.2 0 .3 0l.5.5.8.8.1.1.2.2c.1.1.2.1.2.2s.1.1.2.2c0 0 .1.1 0 .2-.2-.2-.2-.1-.3 0 .1-.1.1-.1 0 0zm0-.1c0-.1 0-.1 0 0 0-.1 0-.1 0 0 0-.1 0-.1 0 0 0-.1 0-.1 0 0zm-2.1-2.1z"/><path d="M20.4 14.3s-.1 0 0 0l-1.1-1.1-.4-.4c-.1-.2-.3-.3-.4-.5-.1-.1-.1-.1-.2 0 0 0 0 .1-.1.1 0 0-.1 0 0 0 0 0 0 .1.1.1h.1v-.1s.1-.1.1 0l1.7 1.7.2.2c-.1.1-.1.1 0 0z"/><path fill="#010101" d="M20.3 14.4s-.1 0-.1-.1l-.1-.1-1.1-1.1-.6-.6v.1c0 .1-.1.1-.1.1-.1 0-.1-.1-.1-.1v-.1h.1c.1-.1.2-.1.3 0 .1.1.3.3.4.5l.3.3.1.1 1 1c0-.1 0-.1-.1 0 .1 0 .1 0 0 0zm-2.1-1.9z"/><path d="M23.3 18.6c0 .1.1.2.1.3-.6-.8-1.1-1.6-2-2.2.2 0 .3.2.5.2-.2-.1-.3-.2-.5-.3-.2-.1-.3-.2-.5-.3 0 0-.1-.1-.2-.1.2.1.3.2.5.3.2.1.3.2.5.3.2.1.3.2.4.4.2.1.3.3.4.5.1.2.3.3.4.5.1.1.2.3.3.4.1.2.3.4.4.7.1.2.2.3.2.5.1.1.1.3.2.4-.1-.1-.1-.3-.2-.4-.1-.3-.3-.5-.4-.8 0-.1 0-.2-.1-.4z"/><path fill="#010101" d="M24 20.3c-.1-.1-.1-.2-.2-.3-.1-.2-.2-.3-.2-.5-.1-.2-.2-.4-.4-.7-.1-.1-.2-.3-.3-.4-.1-.2-.2-.3-.4-.5l-.1-.1c-.1-.1-.2-.3-.4-.4-.1 0-.1-.1-.2-.1-.1-.1-.2-.1-.2-.2-.1 0-.1-.1-.2-.1-.1-.1-.2-.1-.3-.2-.1-.1-.2-.1-.3-.2l-.1-.1v-.1h.1c.1 0 .1 0 .2.1s.3.2.5.3c.2.1.4.2.5.3l.2.1-.4-.2h-.1c.6.5 1.1 1.1 1.5 1.7v-.1l.1.1s.1 0 .1.1.1.2.1.4c.1.2.1.3.2.4.1.1.1.3.2.4 0 .1.1.2.1.3 0-.1 0-.1 0 0z"/><path d="m12.2 18.5.6.6-.3-.3c-.1-.1-.2-.1-.3-.3 0 0 0-.1.1-.1v-.1h-.2s0 .1-.1.1c.1.1.1.1.2.1.3.4.6.7 1 1l.9.9c.1.1.1.1.2 0h.1v-.1l-.1-.1h-.1c-.1.1-.1.1-.2 0l-1-1 .7.7c-.5-.3-1-.8-1.5-1.4 0 .1 0 0 0 0z"/><path fill="#010101" d="M14.1 20.6s-.1 0-.1-.1l-.4-.4-.5-.5c-.2-.2-.5-.4-.7-.7l-.3-.3c-.1-.1-.1-.2 0-.2 0 0 0-.1.1-.1 0 0 .1 0 .1.1s0 .1-.1.1v.1l.2.2.4.4.2.2.2.2.7.7.1.1v-.1s0-.1.1-.1c0 0 .1 0 .1.1 0 0 0 .1-.1.1.1.1.1.2 0 .2zm.2-.3c0 .1 0 .1 0 0 0 .1 0 .1 0 0 0 .1 0 .1 0 0 0 .1 0 .1 0 0zm-2.1-2c0 .1 0 .1 0 0 0 .1 0 .1 0 0 .1 0 .1 0 0 0 .1 0 .1 0 0 0z"/><path d="M12.5 12.9c0-.1-.1-.1-.1-.2.1-.1.2-.2.3-.1v-.1c-.1 0-.1-.1 0-.1l1-1s.1 0 0-.1l-2.6 2.6h.1l1-1c.2-.2.2-.2.3 0z"/><path fill="#010101" d="M11.2 13.9h-.1l2.7-2.7v.2l-1 1 .1.2-.2-.1s-.1 0-.2.1c0 0 .1 0 .1.1v.1h-.1c-.1 0-.1 0-.1-.1s-.1-.1-.1-.1h-.1l-.2.2-.8.8c.1.3.1.3 0 .3.1 0 0 0 0 0zm1.2-1.2.2-.2-.2.2z"/><path d="M12.3 11c-.1 0 0 .1 0 .1.1.3 0 .6-.2.8-.2.2-.3.4-.6.5-.2.1-.5.2-.7.1-.2-.1-.3-.3-.4-.5.1.3.3.6.6.6.2 0 .4 0 .6-.1.2-.1.3-.2.4-.3.2-.2.3-.5.4-.8 0-.2 0-.3-.1-.4z"/><path fill="#010101" d="M11.1 12.6h-.2c-.3 0-.5-.3-.6-.6v-.1h.1c.1.2.2.4.4.4.2.1.5 0 .7-.1.2-.1.4-.2.6-.5.2-.3.2-.5.2-.8v-.1h.2l-.1.2c.1.1.1.2.1.3 0 .3-.2.6-.4.9-.1.1-.3.2-.5.3-.2.1-.3.1-.5.1z"/><path d="M19.4 25.7c-.7-.6-1.3-1.2-1.9-1.9.4.3.7.7 1.1 1 0 0 0-.1-.1-.1l-.9-.9s-.1-.1-.2-.1l.1.1 1.9 1.9c.1.1.1.1.3 0h.1s.1 0 0-.1h-.2c-.1.1-.1.2-.2.1-.1-.2-.2-.3-.4-.4-.2-.1-.3-.3-.5-.4.4.3.7.6.9.8z"/><path fill="#010101" d="M19.5 25.8s-.1 0-.2-.1l-2-2h.1c.1 0 .2 0 .2.1l.3.3.7.7.1.1.3.3.1.1.2.2.1.1c0 .1.1 0 .1 0v-.1s0-.1.1-.1.1 0 .1.1v.2c-.1.1-.2.1-.2.1zm.1-.2s0 .1 0 0c0 .1 0 .1 0 0 0 .1 0 .1 0 0 .1 0 .1 0 0 0z"/><path d="M11.2 10.7s-.1 0 0 .1.1.1 0 .2l-.3.3c-.1 0-.1.1-.2.1s-.1-.1-.2-.1c0-.1 0-.1-.1-.1-.1-.1-.1-.1 0-.2l.4-.4s.1-.1.2 0 .2.1.2.1c.1-.1.1-.1 0 0 .1 0 0-.1 0 0zm-.2.1s-.1 0 0 0c-.1.1-.1.1 0 0 0 .1-.1.1-.1.2l-.1.1h-.1v.1c.1 0 0 .1 0 .1s-.1.1-.1 0v.1c.1.1.2.1.2 0l.3-.3c0-.1.1-.1.1-.2v-.1c-.1 0-.1-.1-.1-.1-.1-.1-.1-.1-.2 0l-.4.4v.2c.1-.1.1 0 .2 0-.1-.1 0-.1 0-.1s.1-.1.1 0h.1c-.1-.3 0-.4.1-.4 0-.1 0 0 0 0 .1 0 .1 0 0 0 .1.1 0 .1 0 0z"/><path fill="#010101" d="M10.6 11.5s-.1 0-.1-.1h-.1V11.1c-.1-.1-.1-.2 0-.3l.3-.3.1-.1.1-.1h.1c.1.1.1.1.2 0h.1c0 .1-.1.1-.1.1l.1.1c0 .1 0 .1-.1.2l-.3.3c-.1.4-.1.5-.3.5.1 0 .1 0 0 0zm0-.2h.1l.1-.1c.1 0 .1-.1.1-.2 0 0 0-.1.1-.1 0 0 .1 0 .1-.1v-.1l-.1.1h-.1v.2s-.1.1-.2 0v.1s0 .1-.1.1c.1.1.1.1 0 .1.1 0 0 0 0 0zm.3-.6c-.2.1-.2.2-.3.3l-.1.1v.1h.1v-.1s0-.1.1-.1c0 0 0-.1.1-.1v-.1s0-.1.1-.1c.1-.1.1 0 .1 0h-.1c.1 0 0 0 0 0zm.2.1z"/><path d="m10.7 15.3.3.3 1.5 1.5s0 .1.1.1c.1-.1 0 0-.1-.1s-.2-.2-.3-.4l-.1-.1-.1-.1c0-.1-.1-.1-.1-.1-.1-.1 0-.1 0-.1l1.1-1.1s.1 0 .1-.1l-.1.1-.5.5-.5.5-.2.2h-.1l-.8-.8c0-.1-.1-.2-.2-.3z"/><path fill="#010101" d="M12.6 17.3c-.1 0-.1-.1 0 0-.1-.1-.1-.1 0 0l-1-1-.6-.6-.2-.2-.1-.1.1-.1c.1.1.2.1.3.2l.5.5.3.3.1-.1s0-.1.1-.1l.1-.1.4-.4.3-.3.2-.2h.2v.1s0 .1-.1.1l-.9.9-.2.2.1.1s0 .1.1.1l.1.1c0 .1.1.1.2.2 0 0 .1.1.1.2h.1l-.2.2c0-.1 0 0 0 0z"/><path d="M21.7 18.9c.1.1 0 .2-.1.3l-.3.3c.1 0 .2-.2.3-.2.1-.1.1-.1.2 0 .2.3.4.6.6.8.3.4.5.8.8 1.1.1.2.3.4.4.6 0 .1.1.1.2.1-.3-.3-.5-.7-.8-1.1l-.6-.9-.6-.9-.1-.1z"/><path fill="#010101" d="m24 22-.2-.1c-.1 0-.2-.1-.2-.2-.1-.2-.2-.3-.4-.5v-.1c-.3-.4-.5-.8-.8-1.1-.1-.2-.2-.3-.4-.5-.1-.1-.1-.2-.2-.3l-.1-.1-.1.1s-.1 0-.1.1-.1.1-.2.1h-.1l.1-.1.1-.1.2-.2.1-.1v-.2h.2s0 .1.1.1c.1.1.1.2.2.3.1.2.3.4.4.6.1.1.2.2.2.3.1.2.2.4.4.6.1.1.2.2.2.4.2.2.3.5.5.7l.1.3z"/><path d="M20.6 16.7c-.5-.4-1.1-.8-1.7-1.1.6.4 1.1.8 1.7 1.1z"/><path fill="#010101" d="m20.6 16.8-.9-.6c-.3-.2-.5-.4-.8-.5v-.1c.7.3 1.3.7 1.7 1.2z"/><path d="M26 21.8s-.1.1 0 0c0 .1 0 0 0 0 .3-.2.4-.3.6-.5.2-.1.3-.3.4-.4.1-.1.1-.1 0-.2l-.1-.1h-.1v.1s.1.1 0 .1l-.8.8v.2z"/><path fill="#010101" d="M25.9 22.2v-.5h.1l.3-.3.5-.5c-.1 0-.1-.1-.1-.1s0-.1.1-.1c0 0 .1 0 .1.1v.1l.1.1s0 .1-.1.1l-.2.2c-.1.1-.1.2-.2.2l-.3.3-.2.2-.1.1v.1zm1-1.5z"/><path d="M20.8 26.9c0 .1-.1.1-.1.1h-.1c0-.1-.1-.1-.2-.1.1.2.1.3.1.5.1-.1 0-.1 0-.1v-.2h.1c.1.1.2.1.3 0l.2-.2c.2-.2.4-.4.7-.6.1-.1.1-.3 0-.4h-.1v.1c.1.1.1.1 0 .2l-.7.7h-.2z"/><path fill="#010101" d="M20.5 27.4h-.2v-.1c0-.1 0-.1-.1-.2 0-.1 0-.2-.1-.2l-.1-.1.1.1c.1 0 .2 0 .2.1 0 0 .1 0 .1-.1l-.1-.1h.3l.1-.1.6-.6.1-.1s0-.1-.1-.1l-.1-.1v-.1s0-.1.1-.1h.1c.1.1.1.1.1.2s0 .2-.1.2l-.3.3-.3.3c0 .1-.1.1-.2.2l-.1.1c-.1.1-.2.1-.3 0v.1c.3.2.3.3.3.4zm0-.4c0-.1-.1-.1 0 0-.1-.1-.1 0 0 0-.1 0-.1 0 0 0zm-.1-.2zm1.2-.9c.1 0 0 0 0 0z"/><path d="m15.5 21.8.1.1-.4-.4c.1.1.1.2.3.3-.2-.1-.6-.5-.6-.6l.3.3-.3-.3c-.1-.1-.1-.1 0-.2v-.1s-.1-.1-.1 0 0 .1-.1.1 0 .1 0 .2c.3.2.5.4.8.6.1.1.2.3.4.4l.1.1c0-.1-.1-.1-.1-.2 0 0 .1 0 .1.1l-.2-.2c-.2 0-.3-.1-.3-.2z"/><path fill="#010101" d="m16 22.5-.1-.1c-.2-.2-.3-.3-.4-.5l-.3-.3-.3-.3-.1-.1V20.9h.1v.2l-.1.1.1.1.3.3.4.4.2.2v.1l.2.2zm-1.1-1.6z"/><path d="M27.4 24.7v-.1c-.1 0-.1-.1-.2-.2 0 0 0-.1-.1-.1 0 0-.1 0-.1.1 0 0 0 .1.1.1 0 0 .1 0 0 .1l-.1-.1v-.1c.1-.1.1-.1 0-.2.1.1.1 0 .1 0 0-.1.1 0 .1 0l.3.3s.1.1 0 .1v.1c0 .1.1.1.1.2l-.1-.1c0-.2-.1-.2-.1-.1-.1.1-.1.1 0 0h-.1c0-.1 0 0 .1 0zm-.1-.4c0 .1 0 .1 0 0h-.1v.1l.2.2c.1-.1-.1-.1-.1-.2h.1v-.1l-.2-.2c-.1-.1-.1-.1-.2 0 .2.1.2.2.3.2z"/><path fill="#010101" d="M27.7 24.9s-.1 0 0 0c-.1-.1-.1-.1 0 0-.1-.1-.2-.1-.2-.1l-.1.1-.1-.1s-.1 0-.1-.1h.1c-.1 0-.1-.1-.1-.1s0-.1-.1-.1c0 0 .1 0 .1.1v.2l-.2-.3-.1-.1v-.2c.1 0 .1-.1 0-.1l-.2-.4.3.3.1-.1s.1 0 .1.1l.3.3s.1.1 0 .1c0 0 0 .1-.1.1 0 .1.1.1.1.1.2.2.2.2.2.3zm-.2-.2c0-.1 0 0 0 0zm-.2-.3s.1.1 0 0h.2l-.1-.1-.1.1zm-.2-.1c.1 0 .1 0 0 0 .1 0 .1 0 0 0 .1 0 0 0 0 0zm.1-.1c.1.1.1.1 0 0h.1-.1c.1 0 0 0 0 0z"/><path d="M16.5 20.7v-.1c-.1-.1-.2-.3-.3-.5-.1-.2-.2-.3-.3-.4-.1-.1-.1-.2-.2-.3-.1.1 0 .2 0 .2.2.2.3.5.5.7.1.1.1.2.2.2 0 0 .1.1.1.2z"/><path fill="#010101" d="M16.6 20.7h-.2v-.1s0-.1-.1-.1-.1-.1-.1-.2v-.1c-.1-.1-.1-.2-.2-.3-.1-.1-.2-.2-.2-.4 0-.1-.1-.2 0-.3v.1s0 .1.1.1c0 .1.1.1.1.2.1.1.1.2.2.3 0 .1.1.1.1.2s.1.1.1.2c.1.1.1.2.2.3v.1zm-.9-1.3c0 .1.1.1 0 0 .1.1.1.1 0 0 .1.1.1 0 0 0z"/><path d="M23.6 26.8c-.1 0-.1 0-.1.1l.1.1s.1.1.1 0c.1.1.2.1.3.2 0 .1.1.1.1.2v-.1s-.1-.1 0-.1l-.1-.1c-.1-.1-.1-.2-.2-.2v-.1c0-.1-.1.1-.1 0 0 0-.1 0 0-.1-.1 0-.1 0-.1.1 0-.1 0-.1 0 0 0-.1 0-.1 0 0 .1 0 0 0 0 0 0 .1 0 .1 0 0-.1 0 0 0 0 0z"/><path fill="#010101" d="M24.1 27.5s0-.1 0 0l-.1-.1-.1-.1c0-.1-.1-.1-.1-.1s-.1 0-.1-.1h-.1s-.1 0-.1-.1l-.1-.1c0-.1.1-.1.1-.1h.1s.1 0 .1.1v.1l.1.1.1.1.1.1v.1c.2 0 .2 0 .1.1.1-.1.1 0 0 0zm-.1-.3s0 .1 0 0c.1.1.1.1 0 0 .1.1.1.1 0 0 .1.1.1.1 0 0zm-.3-.3c.1 0 .1.1.1.1l-.1-.1v-.1.1c-.1-.1-.1-.1 0 0-.1 0-.1 0 0 0h-.1.1c-.1 0-.1.1 0 0-.1.1-.1.1 0 0-.1 0 0 0 0 0zm-.1-.2z"/><path d="M23.8 22.9c.1.1.1.1.2.1l.6.6v.1l-.2.2h-.1l.2-.2s.1-.2 0-.2c0 0-.1 0-.1-.1-.2 0-.4-.2-.6-.5-.1 0-.1-.1-.2 0 .1 0 .1-.1.2-.1-.1 0 0 .1 0 .1zm.2.2c.2.2.3.4.5.6-.1-.3-.3-.4-.5-.6z"/><path fill="#010101" d="M24.3 24.1c0-.2.1-.2.1-.3v-.1h-.1l-.1-.1-.6-.6s-.1-.1-.1 0h-.2l.2-.1h.1s.1 0 .1-.1l.1.1v.1l.1.1h.1c.1.1.3.2.4.4l.3.3v.1s0 .1-.1.1c0-.1-.1 0-.3.1.1 0 .1 0 0 0 .1 0 .1 0 0 0zm.3-.4zm-.6-.6z"/><path d="M15.9 17.1s.1 0 0 0c.2-.2.4-.3.5-.5.2-.2.5-.4.7-.7-.1 0-.2-.1-.2-.2l-.4-.4-.7-.7-.4-.4s0-.1-.1-.1l.1.1 1.6 1.6v.3l-.1.1c-.3.2-.6.5-1 .9.1 0 0 0 0 0z"/><path fill="#010101" d="M15.9 17.2V17h.1l.6-.6.3-.3.1-.1-1-1-.5-.5-.1-.1-.1-.1h.1c.1 0 .1 0 .1.1l.2.2.1.1.3.3.4.4c.1.1.2.1.2.2l.2.2.1.1c0 .1.1.1.2.1h.1-.2l-.4.4-.3.3-.4.4s0 .1-.1.1z"/><path d="M11.6 11.7c-.1.1-.2.3-.3.4v.1s0 .1.1.1h.1c-.1 0-.1-.1 0-.2.2-.2.4-.3.5-.5 0-.1.1 0 .1 0s0 .1.1 0l.1-.1v-.1c-.1-.1-.2-.1-.3.1-.3.1-.3.2-.4.2z"/><path fill="#010101" d="M11.3 12.4s0-.1 0 0c-.1 0-.1-.1-.1-.1v-.2l.3-.3.1-.1.1-.1c.2-.1.2-.1.4-.1 0 0 .1 0 0 .1 0 0 0 .1-.1.1 0 0-.1 0-.1-.1l-.3.3c-.1.1-.2.1-.2.2v.1l.1.1c-.1-.1-.1 0-.2.1.1-.1.1 0 0 0zm0-.2s0 .1 0 0c0 .1 0 .1 0 0zm.7-.7s0 .1 0 0c0 .1 0 .1 0 0 0 .1 0 .1 0 0 0 .1 0 .1 0 0 0 .1 0 .1 0 0z"/><path d="m11.2 17.6-1.1-1.1-.1-.1v-.1h.1l-.5-.5c-.1-.1-.1-.1 0-.2v-.1s0-.1-.1-.1c0 0-.1 0-.1.1s0 .1-.1.1v.1c.2.1.3.3.4.4-.2-.1-.3-.3-.4-.4.8.8 1.3 1.4 1.9 1.9z"/><path fill="#010101" d="M11.3 17.8 9.5 16c-.1-.1-.1-.1 0-.2v-.1h.1c.1 0 .1 0 .1.1 0 0 0 .1-.1.1h-.1l.1.1.3.3.3.3-.1-.1.2.2.8.8s.1 0 .1.1l.1.2zm-1.7-2.1s.1 0 0 0c.1 0 .1 0 0 0 .1 0 .1 0 0 0 .1 0 .1 0 0 0z"/><path d="M26 22.9c.1 0 .1-.1.2-.1h.1l-.1.1c-.1 0-.1.1-.1.1-.1.1-.3.2-.3.4 0 0 0 .1-.1.1s0-.1-.1-.1v-.1c0-.1.1-.1.2-.2s.2-.1.2-.2zm-.2.3s.1.1 0 0c.1 0 .2-.1.3-.1-.1-.1-.2 0-.3.1z"/><path fill="#010101" d="M25.8 23.5c-.1 0-.1-.1-.1-.1v-.1c0-.1.1-.1.1-.1l.1-.1s.1 0 .1-.1h.1c.1 0 .2-.1.3-.1h.2v.1s0 .1-.1.1h-.1l-.3.3c-.2.1-.3.1-.3.1zm0-.2s-.1 0 0 0v.2-.2zm.1-.1.1-.1c-.1 0-.1.1-.1.1zm.2-.2c-.1 0 0 0 0 0h.1l.1-.1c-.1 0-.2 0-.2.1z"/><path d="M7.8 12.9s0 .1 0 0l-1.3 1.3c-.1.1-.1.1 0 .2.2.2.5.4.7.7h.1c-.1 0-.1-.1-.1-.1l-.3-.3-.3-.3v-.1l.6-.6.6-.6v-.2z"/><path fill="#010101" d="M7.3 15.1c-.1 0-.1 0 0 0-.3-.2-.4-.4-.6-.5l-.2-.2-.1-.1s0-.1.1-.1l.9-.9.4-.4v.1c0 .1 0 .1-.1.1l-.6.6-.3.3-.3.3.3.3c0 .1.1.1.2.1l.1.1.1.1s0 .1.1.1v.1z"/><path d="M19.1 17.4c-.1 0-.1 0-.1.1-.1.1-.2.1-.2.2l-.8.8c-.2.2-.4.4-.6.5-.1.1-.2.2-.3.4l.3-.3.7-.7c.2-.2.3-.4.5-.5 0 0 .1-.1.2 0-.1-.1-.1-.1 0-.1.1-.2.2-.3.3-.4z"/><path fill="#010101" d="m16.9 19.5.1-.2s0-.1.1-.1c.1-.1.1-.2.2-.3l.2-.2c.1-.1.2-.2.4-.3l.6-.6.2-.2.1-.1.1-.1.1-.1h.1v.2c-.1.1-.2.1-.2.2l-.1.1-.1.1h-.1l-.3.3-.2.2c-.2.1-.3.3-.5.5l-.2.2-.1.1c0 .1-.1.1-.2.2l-.2.1z"/><path d="M24.2 19.6c.1-.1.1-.1.1-.2.1 0 .1.1.2.1.2.2.3.4.5.5 0 .1.1.1 0 .1-.1.2-.3.3-.5.5h-.1c-.1-.1-.2-.2-.3-.4l-.1-.1c.1.2.3.3.4.5h.1l.5-.5c.1-.1 0-.1 0-.1l-.7-.7c-.1-.1-.1-.1-.1 0v.3z"/><path fill="#010101" d="M24.5 20.7s-.1 0 0 0l-.1-.1-.4-.4-.2-.2.2.1.1.1.2.2.2.2c.2-.1.3-.3.5-.5V20l-.2-.2c-.1-.1-.2-.2-.3-.4l-.1-.1v.1s0 .1-.1.1l-.1.1.1-.2v-.1c0-.1 0-.1.1-.1 0 0 .1 0 .1.1l.2.2.4.4s.1.1 0 .2l-.3.3-.2.2c0 .1-.1.1-.1.1z"/><path d="M8.6 11.7c.1.1.2.1.2.2 0 0 0 .1.1.1s.1 0 .1-.1 0-.1-.1-.1h-.1c0-.1-.1-.1 0-.1.2-.1.2-.3.4-.4.1-.1.3-.2.4-.4.2-.2.4-.3.5-.5l-1.2 1.2c-.1.1-.1.1-.3.1z"/><path fill="#010101" d="M8.9 12c-.1 0-.1-.1-.1-.1 0-.1-.1-.1-.1-.1l-.1-.1-.1-.1h.2c.1 0 .1 0 .2-.1l1.2-1.2h.1l-.3.3-.2.2-.1.1-.3.3c-.1 0-.1.1-.2.2-.1.2-.1.3-.2.3v.1H9v.1c0 .1 0 .1-.1.1zm0-.1zm-.1-.2zm1.3-1.3zm0 0z"/><path d="M24.3 27.6v.1c-.1 0-.1 0-.1-.1l-.2-.2s-.1-.1 0-.1c-.1.1-.1.1 0 .1l.3.3s.1.1.1 0h.1l.1.1h.1v-.1c-.1 0-.1-.1-.1-.1v-.1c.1 0 .1-.1 0-.1l-.2-.2s0-.1-.1 0c.1.1.2.2.2.3v.1c-.1-.1-.1-.1-.2 0 0-.1 0-.2-.1-.2.1 0 .1.1.2.2 0 0 .1.1 0 .1 0 0 0-.1-.1-.1z"/><path fill="#010101" d="M24.6 27.9c-.1-.1-.1-.1-.2-.1h-.1s0 .1-.1.1h-.1l-.2-.2-.1-.1-.1-.1s0-.1.1-.1v.1c.1 0 .1.1.2.2h.1v-.1l-.1-.1s-.1 0 0-.1c0 0 0-.1.1-.1 0 0 .1 0 .1.1l.1.1s.1 0 .1.1l-.1-.1-.2-.2h.1l.1.1.1.1.1.1s0 .1-.1.1c0 0 0 .1.1.1 0 0 0 .1.1.1.1-.2.1-.1 0 0 .1-.1.1-.1 0 0 .1 0 0 0 0 0zm-.1-.2zm0-.1zm-.3-.3z"/><path d="m14 16.4-.6-.6 1.3 1.3-.6-.6.6.6h.1V17l-1.2-1.2s-.1-.1-.1 0v.1c.1.2.3.4.5.5 0 .1 0 .1 0 0z"/><path fill="#010101" d="M14.8 17.2c-.1 0-.1 0 0 0-.2-.2-.4-.3-.5-.5l-.2-.2-.2-.2-.3-.3v-.2h.2l1 1 .2.2c-.2.1-.2.1-.2.2zM13.5 16z"/><path d="M18.3 16.6c-.1 0-.3.1-.4.2-.5.4-.9.9-1.3 1.3 0 0-.1.1-.1.2l.3-.3c0-.1.1-.1.1-.1.1-.1.2-.2.3-.4l.8-.8c.2-.1.3-.1.3-.1z"/><path fill="#010101" d="m16.3 18.6.2-.3c0-.1.1-.1.1-.2l1.3-1.3c.1-.1.2-.2.4-.2h.2l-.2.1h-.1c-.1 0-.1.1-.1.1l-.6.6-.2.2-.3.3-.1.1h-.1s-.1 0-.1.1-.1.1-.2.2l-.1.1-.1.2z"/><path d="M10.7 14.5s0 .1 0 0c0 0-.1 0 0 0v-.1c.1 0 .1-.2.2-.2 0-.1.1-.1.1-.1.1 0 .1 0 .1-.1 0 0 0 .1-.1 0v-.2s0-.1 0 0c-.1.1-.1.2-.2.2l-.3.3v.1c.1.2.2.2.2.1z"/><path fill="#010101" d="M10.7 14.6s-.1 0-.1-.1v-.1c.1 0 .1-.1.2-.2l.1-.1.2-.2h.2v.2h.1l-.1.1s0 .1-.1.1h-.1v.1s-.1 0-.1.1l-.1.1h.1v.1l-.3-.1zm-.1-.1zm.2-.2zm.2-.2zm0 0zm.1-.1z"/><path d="M13.8 18.4c0 .1.1.2.2.3l.3.3.2.2c.1 0 .1.1.1.1l.3.3c.1.1.3.2.3.5 0-.1 0-.3-.1-.3s-.1-.1-.1-.2l-1.2-1.2z"/><path fill="#010101" d="m15.3 20.2-.1-.1V20c0-.2-.1-.2-.2-.3 0 0-.1 0-.1-.1l-.1-.1-.2-.2v-.1s0-.1-.1-.1-.1-.1-.1-.1l-.2-.2c-.1-.1-.2-.1-.2-.2l-.1-.2.1.1.2.2 1 1 .1.1s0 .1.1.1c.1.1.1.2.1.3v.1l-.2-.1z"/><path d="M21.7 18.9c-.2-.4-.5-.7-.8-1-.2-.2-.4-.3-.6-.5-.1-.1-.3-.2-.4-.3h-.1c.2.2.4.3.6.4.3.2.5.4.7.6.1.2.3.4.4.5.1.1.1.2.2.3z"/><path fill="#010101" d="M21.7 18.9c-.1-.1-.2-.1-.2-.2-.1-.2-.3-.4-.4-.5-.2-.2-.4-.4-.6-.5-.1 0-.1-.1-.2-.1-.1-.1-.2-.1-.2-.2-.1-.1-.2-.2-.4-.3l-.1-.1h.2s.1 0 .1.1c.1.1.2.1.3.2.2.1.5.3.7.5.3.2.5.5.7.8.1.1.1.2.1.3z"/><path d="M15.9 17.1s-.1 0 0 0c-.2-.1-.3-.2-.4-.3-.1-.1-.1-.2-.2-.2l-.6-.6c-.2-.2-.3-.4-.5-.6 0 .1 0 .1.1.1l1.5 1.5c0 .1 0 .1.1.1-.1.1-.1.1 0 0 0 .1 0 0 0 0z"/><path fill="#010101" d="M15.8 17.2c0-.1 0-.1-.1-.1l-1.2-1.2-.3-.3-.1-.1v-.1l.1.1.3.3c.1.1.1.2.2.2l.2.2c.1.1.2.2.4.3.1 0 .1.1.1.1l.1.1c.1.1.2.2.3.2l.1.1h.1v.1c-.1.1-.1.1-.2.1z"/><path d="M21.5 17.9c0 .1-.1 0-.1.1s.1.1.1.1 0 .1.1.1l.1.1c0-.1-.1-.2-.2-.3v-.1h.1c.1 0 .2.1.2.2s.1.1.1.2c.1.1 0 .1 0 .2.1 0 .1-.1 0-.2 0 0-.1-.1 0-.1 0-.1-.2-.3-.2-.3-.1.1-.1 0-.2 0z"/><path fill="#010101" d="M21.8 18.6v-.2l-.1-.1v-.2c0-.1-.1-.1-.1-.1s0 .1.1.1c.1.1.1.1.1.2v.3l-.1-.2-.1-.1c-.1 0-.1-.1-.1-.1l-.1-.1c0-.1.1-.1.1-.1l.1-.3v.3h.2s.1 0 .2.1c0 0 .1.1.1.2v.1c-.2.1-.2.1-.3.2zm-.1-.6c0 .1 0 .1 0 0 .1.1.1.1.1.2 0 0-.1-.1-.1-.2zm.1.2z"/><path d="M19.1 17.9c-.1 0 0-.2 0-.3.1-.1.2-.1.3 0 .1.1.1.2 0 .3-.1.1-.2.1-.3 0zm0-.1h.2c-.1-.2-.1-.1-.2 0 .1-.1 0-.1 0 0 0-.1 0-.1 0 0zm.2 0c-.1.1-.1.1 0 0-.1.2 0 .1 0 0 .1.1.1 0 0 0zm-.2.1c.1 0 .1-.1.2-.2-.1 0-.1.1-.2.2z"/><path fill="#010101" d="M19.2 18c-.1 0-.1 0-.2-.1l-.1-.1c0-.1 0-.2.1-.2.1-.1.2-.1.3 0 .1.1.1.2 0 .3 0 .1 0 .1-.1.1zm-.1-.1s.1 0 0 0c.1 0 .1 0 0 0 .1 0 .1 0 0 0zm0 0z"/><path d="M20 22.6c.3.2.6.5 1 .7.2.1.4.3.7.5.1 0 .1.1.2.2 0-.1-.1-.2-.2-.3-.4-.2-.7-.5-1-.7-.3-.1-.5-.2-.7-.4z"/><path fill="#010101" d="m21.9 24.2-.2-.2v-.1l-.1-.1c-.1-.1-.3-.2-.4-.3-.1-.1-.2-.1-.3-.2-.2-.1-.3-.2-.5-.3-.1-.1-.3-.2-.4-.3v-.2h.2l.2.2c.1.1.2.2.3.2.1.1.3.2.4.3.2.1.4.3.6.4.1.1.1.2.2.3v.3z"/><path d="M12.1 9.7c-.1 0 0-.1-.1-.1l-.1-.1.1-.1.1-.1h.1l.1.1c-.1 0-.2.2-.2.3zm0-.2c.1-.1.2-.1.1-.1-.1-.1-.1 0-.1.1 0-.1-.1-.1 0 0z"/><path fill="#010101" d="M12.1 9.8c-.1 0-.1-.1-.1-.1l-.1-.1.1-.1.1-.1.1-.1c.1-.1.1 0 .2 0l.1.1.1.1h-.1c-.1 0-.2.1-.2.1-.1 0-.2 0-.2.2h.3-.3zm-.1-.3c.1 0 .1.1 0 0 .1 0 .1 0 0 0 .1 0 .1 0 0 0zm.1-.1zm0 0zm0 0zm.1-.1h.1-.1c0-.1 0-.1 0 0 0-.1 0-.1 0 0z"/><path d="M26.9 23.9c-.1.1-.2 0-.3-.1l-.2-.2c0-.1-.1 0-.2-.1-.1.2-.2.3-.3.4h-.1v-.1h-.1s0 .1.1.1h.1l.3-.3s.2 0 .2.1c.1 0 .1.1.1.1.1 0 .1 0 .1.1s.1.1.2.1c.2.1.2.1.1-.1.1.1 0 .1 0 0 0 .2 0 .2 0 0-.1.1 0 .1 0 0z"/><path fill="#010101" d="M27 24.2c-.1 0-.2 0-.2-.1 0 0 0-.1-.1 0h-.1l-.1-.1h-.1v-.1h-.2l-.2.2-.1.1s-.1.1-.1 0l-.1-.1s0-.1.1-.1v-.1.1l.1-.1c.1-.1.2-.1.2-.2h.2s.1 0 .1.1l.1.1c0 .1.1.1.2 0l.2-.1.1.2v.2c0-.1 0 0 0 0zm-.4-.3c.1 0 .1 0 0 0 .1 0 .1 0 0 0zm-.1-.1z"/><path d="M14.3 20.9c.1.1.2.1.3.1v-.1s0-.1-.1-.1h-.1v.1h-.1l-.1-.1c0-.1-.1-.1 0-.2v-.1h-.1l-.1.1v.1c.3.1.3.2.3.2z"/><path fill="#010101" d="M14.5 21.1c-.1 0-.1 0-.2-.1 0 0 0-.1-.1-.1 0 0-.1-.1 0-.2 0 0 0-.1.1-.1h.2v.2l.1.1s0-.1.1-.1.1 0 .1.1v.1c-.2.1-.2.1-.3.1zm.1-.2zm0 0zm-.4-.2s0 .1 0 0c0 .1 0 .1 0 0 0 .1 0 0 0 0zm.1-.1z"/><path d="M21.3 17.2c-.1 0-.1.1-.2.1v.1h.1c0-.1.1-.1.1-.2v-.1c-.1-.1-.2-.1-.3-.2-.1 0-.2-.1-.2-.2 0 .1 0 .1-.1 0 .2.3.4.3.6.5z"/><path fill="#010101" d="M21.2 17.4s-.1 0-.1-.1v-.1c-.1-.1-.2-.1-.3-.2-.1 0-.2-.1-.2-.1l-.1-.1h.2v-.1l.1.1c.1.1.1.1.2.1s.2.1.2.2c0 0 .1.1 0 .1l.1.1h-.1c.1 0 .1 0 0 .1.1 0 .1 0 0 0zm0-.1z"/><path d="M9.2 12.2c0-.1-.1 0-.1 0v.1c.1.1.1.2.1.3 0 .1-.1.1-.1.2.1-.1.2-.1.1-.3 0-.1.1-.3.2-.4V12c0-.1-.1-.1-.2 0 .1.2.1.2 0 .2z"/><path fill="#010101" d="M9 12.9v-.1s0-.1.1-.1v-.1c0-.1 0-.1-.1-.2v-.2l.1-.1.1-.1c.1 0 .1 0 .1.1v.1h-.1c-.1 0-.2.2-.2.3 0 .2 0 .2-.1.3l.1.1zm.1-.6c.1 0 .1 0 0 0zm.2-.2s0 .1 0 0c0 .1 0 0 0 0 .1 0 0 0 0 0z"/><path d="M26.6 23.1s0 .1-.1.1c-.2.1 0 .1 0 .2 0 0 .1.1 0 .1v-.2l.3-.3v-.1s-.1-.1-.1 0c.1.1.1.1 0 .2l-.3.3c.1-.2.2-.2.3-.4l-.3.3c0-.1.2-.2.2-.3-.1 0-.1.1-.1.1 0 .1.1 0 .1 0z"/><path fill="#010101" d="m26.6 23.7-.1-.1v-.1l-.1-.1.1-.1v-.1h-.1H26.7s0-.1.1-.1l.1-.1-.1.2v.2l-.3.3v.1c.1-.2.1-.2.1-.1zm-.2-.4zm.4-.3c0 .1 0 .1 0 0 0 .1 0 .1 0 0z"/><path d="M8.5 14.6c.1.1.1.1.2 0 0 0 .1-.2 0-.2h-.2c-.1 0-.1.1 0 .2z"/><path fill="#010101" d="M8.6 14.7c-.1 0-.1 0-.1-.1s-.1-.2 0-.2h.2s.1 0 .1.1c.1.1.1.2 0 .3-.1-.1-.2-.1-.2-.1zm-.1-.1h.1v-.1h-.2c.1 0 .1 0 .1.1z"/><path d="M16.7 21c.1.1.1.3.3.4.1.1.1.1.2 0l.1-.1s.1 0 0-.1h-.2c-.1.1-.1.1-.2 0 0-.1-.1-.2-.2-.2z"/><path fill="#010101" d="M17.1 21.4s-.1 0-.1-.1c-.1-.1-.1-.1-.1-.2s-.1-.1-.1-.2l-.1-.1.2.1c.2 0 .2.2.3.3 0 0 0 .1.1.1h.1s0-.1.1 0c0 0 .1 0 .1.1s0 .1-.1.1c-.3-.1-.4-.1-.4-.1zm.1-.2c0 .1 0 .1 0 0 0 .1 0 .1 0 0 0 .1 0 .1 0 0 .1.1.1 0 0 0 .1 0 0 0 0 0z"/><path d="m14.6 14.8.3-.3s.1-.1 0-.1c0 0-.1-.1 0-.1 0 0 .1-.1.1 0 .1 0 .1.1.1.1s.1.1 0 .1c0 0-.1.1-.1 0s-.1 0-.1 0l-.3.3zm.3-.6c-.1.1 0 .2.1.2 0-.1 0-.2.1-.1-.1 0-.2 0-.2-.1zm.2.3s0-.1 0 0c0-.1 0-.1-.1-.1.1 0 0 .1.1.1z"/><path fill="#010101" d="M14.6 14.9v-.2l.2-.2-.1-.1v-.1l.1-.1v-.1h.1c.1 0 .1.1.1.1s.1.1 0 .2l-.1.1s-.1 0-.1-.1l-.2.2c.1.2.1.2 0 .3zm.3-.6z"/><path d="M14.4 8.6s-.1 0-.1.1 0 .1.1.2h.2c.1 0 0-.1 0-.1-.1-.1-.1-.2-.2-.2 0-.1 0 0 0 0z"/><path fill="#010101" d="M14.4 8.9c-.1 0-.1 0 0 0-.2-.1-.2-.2-.2-.2l.1-.1h.1c.1.1.1.2 0 .2v.1zm-.1-.3c0 .1 0 .1 0 0-.1.1 0 .1 0 .2h.1v-.1l-.1-.1c.1.1.1.1 0 0z"/><path d="m16.7 14.7.1.1.1.1s0 .1.1 0v-.1l-.4-.4-.7-.7-.1-.1s0-.1-.1 0l.1.1 1 1s.1 0 0 .1c.1 0 0-.1-.1-.1z"/><path fill="#010101" d="M17.1 15c-.1 0-.1 0 0 0-.1 0-.1 0 0 0-.1 0-.1 0 0 0l-.2-.2-.1-.1-.1-.1-.1-.1-.6-.6h-.2s-.1 0-.1-.1v-.1h.2l.8.8.3.3v.1c.1 0 .1.1.1.1z"/><path d="M20.9 21.7h.1c.1-.1.1 0 .2 0 .1.1.1 0 .2 0 .1-.1.3-.2.3-.3 0-.1.1-.1 0-.2V21c-.1.1-.1.2 0 .2.1.1 0 .1 0 .2-.1.1-.2.2-.3.2h-.2c-.2.1-.2 0-.3.1z"/><path fill="#010101" d="M20.8 22v-.3c0-.1.1-.1.2-.1s.1 0 .1.1c.1 0 .2-.1.3-.2v-.2s0-.1.1-.2v.2c.1.1 0 .1 0 .2-.1.2-.2.3-.3.3 0 0-.1.1-.2 0h-.2v.2z"/><path d="M24.3 21.3v.1c0 .1 0 .2-.1.3 0 .1-.1.1-.1.1.1 0 .1 0 .2-.1 0 .2-.1.3-.2.4H24l-.1-.1c.1 0 .1.1.2.2.2-.2.3-.5.3-.8-.1 0-.1-.1-.1-.1z"/><path fill="#010101" d="m24 22.3-.1-.1-.1-.1-.3-.2.4.1s.1 0 .1.1c0-.1.1-.1.1-.2h-.2v-.1l.1-.1c.1-.1.1-.2.1-.3v-.1l-.1-.1h.2v.1c.1.4 0 .7-.2 1z"/><path d="M16.4 22.7c-.1 0-.1-.1 0 0-.2 0-.1 0 0 0-.2-.1-.3-.2-.4-.3.1 0 .1.1.2.1 0-.1-.1-.1-.2-.2 0 .1 0 .2.1.3 0 .1.1.2.3.1z"/><path fill="#010101" d="M16.3 22.8c-.1 0-.2-.1-.2-.1-.1-.1-.1-.2-.1-.4v-.1h.1c.1 0 .1.1.2.2v.1c.1 0 .1 0 .1.1h.1l-.1.1-.1.1zm-.2-.2c.1 0 .1 0 0 0 .1 0 .1 0 0 0 .1 0 .1 0 0 0 .1 0 .1 0 0 0z"/><path d="M26.5 23.1c.1-.1.2-.2.2-.3v.1s0 .1 0 0h-.1c0-.1-.1 0-.1 0h.1c-.2.1-.4.2-.5.4 0 .1-.1.1-.1.2.1-.1.1-.1.1-.2.1-.2.3-.3.4-.4 0 0 .1 0 0 .2.1 0 0 0 0 0z"/><path fill="#010101" d="M25.8 23.7v-.2c0-.1.1-.2.1-.2.1-.2.3-.3.4-.4h.1s.1-.1.1 0c0 0 .1 0 .1.1 0-.1 0-.1.1-.1h.1v.1c0 .1-.1.2-.2.3h-.2l.1-.1v-.1c-.2.1-.3.2-.4.4l-.1.1-.1.1h-.1zm.8-.8s0 .1 0 0c0 .1 0 .1 0 0zm0-.1z"/><path d="M10.2 10.2s.1.1 0 .1L11.5 9l-.3.3-.5.5c-.1.1-.2.3-.4.4 0 0-.1.1-.1 0z"/><path fill="#010101" d="m10.1 10.5.1-.2v-.4l.1.2h.1l.2-.2.2-.2c.2-.2.4-.3.5-.5l.2-.2.1-.1V9l-1.5 1.5z"/><path d="M19.4 24.5c0 .1.1.1.1.2l.4.4s0 .1.1 0l.5-.5-.3.3-.1.1H20c-.3-.1-.4-.2-.6-.5 0 .1 0 .1 0 0z"/><path fill="#010101" d="M20 25.2c-.1 0-.1 0 0 0-.1 0-.1 0 0 0l-.2-.1-.3-.3s-.1-.1-.1-.2v-.1l.2.2.1.1c.1.1.2.2.3.4l.1-.1.2-.2.1-.1.1.1-.2.2c-.1-.1-.2 0-.3.1z"/><path d="M22 24.5c-.1-.1-.1-.1-.2 0 0 0 0 .1-.1 0v-.1c-.1 0-.1.1 0 .1l.1.1h.1l.4.4h.1c-.2-.1-.3-.3-.4-.4-.1 0-.1-.1-.1-.2v-.1s0-.1.1-.1c-.1.3-.1.3 0 .3z"/><path fill="#010101" d="M22.3 25.2c-.1 0-.1 0 0 0-.1 0-.1 0 0 0-.2-.1-.3-.2-.3-.3l-.1-.1h-.1V24.5s0-.1.1-.1h.1v.1c0-.1.1-.1.1-.1s.1 0 .1.1H22l.1.1c.1.1.2.1.2.2-.1.2-.1.3 0 .4h.1-.1zm-.5-.5z"/><path d="M14.2 15h.1c-.1 0 0 .1 0 .2-.1-.1-.1-.1-.1-.2-.1 0-.1.1 0 0 0 .2.1.3.2.3l-.1-.1v-.1c.1 0 0 0 0 .1 0 0 .1 0 .1.1 0 0 .1 0 0-.1l-.2-.2c0-.1 0-.1 0 0z"/><path fill="#010101" d="M14.4 15.3c-.1 0-.1 0-.2-.1l-.1-.1V15s.1-.1.2-.1c.1.1.2.1.2.2v.1l-.1.1zm0-.2c0 .1 0 .1 0 0 0 .1 0 .1 0 0 0 .1 0 .1 0 0z"/><path d="M16.2 12c-.4.4-.8.7-1.2 1.1.5-.4.9-.7 1.2-1.1z"/><path fill="#010101" d="m15.1 13.2-.1-.1.6-.6.6-.6.1.1-1.2 1.2z"/><path d="m19.7 20.8-.8-.8c.2.3.5.5.8.8z"/><path fill="#010101" d="M19.6 20.8c-.3-.2-.5-.4-.8-.8l-.3-.3.3.3c.2.1.4.3.5.5.2 0 .3.1.3.3z"/><path d="M19.8 21.1c0-.2.2-.3.3-.4.1-.1.2-.1.2-.2l.2-.2.4-.4-.1.1-1 1c-.1.1 0 .1 0 .1z"/><path fill="#010101" d="M19.8 21.2V20.9l.8-.8.3-.3.1.1c-.1.1-.2.2-.3.4l-.1.1c0 .1-.1.1-.1.2l-.1.1-.1.1c-.1.1-.2.1-.2.2-.2.2-.2.2-.3.2z"/><path d="M16.7 21.7c0-.1 0-.1-.1-.1-.1-.2-.2-.3-.3-.5-.1-.1-.1-.3-.2-.4.2.2.3.5.4.8v-.2c0 .1.1.2.2.4z"/><path fill="#010101" d="M16.7 21.7c0-.1-.1-.2-.1-.2v.1l-.1-.2c-.1-.2-.2-.5-.3-.7l-.2-.2.2.2c.1.1.2.2.2.3 0 0 0 .1.1.1 0 0 0 .1.1.1.1.1.1.3.2.4l.1.1.1.1-.3-.1z"/><path d="M18.2 21.3c-.5-.3-.8-.8-1.1-1.3 0 .1.4.6.5.7l.6.6z"/><path fill="#010101" d="M18.2 21.3c-.3-.2-.5-.4-.6-.6-.1-.1-.4-.6-.5-.7v-.2l.1.2c.3.5.6.9 1 1.3z"/><path d="M17.8 21.7c0 .1.1.1 0 .2.1 0 .1.1.2.1h.1v-.1c-.1-.1-.3-.1-.3-.2z"/><path fill="#010101" d="M18 22.1s0-.1 0 0l-.1-.1s-.1 0-.1-.1l-.1-.1v-.1l-.1-.1h.1l.1.1.1.1.1.1c.2.1.1.1 0 .2.1-.1.1 0 0 0zm-.2-.3c.1.1.1.1 0 0 .1.1.1.1.2.1l-.2-.1c.1 0 .1 0 0 0z"/><path d="M18.7 14.3c-.2-.3-.5-.5-.7-.7l-.3-.3c0 .1 0 0 0 0 .1.2.4.3.5.5.1.2.3.3.5.5-.1 0-.1 0 0 0z"/><path fill="#010101" d="M18.7 14.4c-.1-.1-.1-.1 0 0l-.1-.1c0-.1-.1-.1-.2-.2l-.2-.2c-.1-.1-.1-.2-.2-.2l-.3-.3h-.1v-.2h.1l.3.3c.2.2.5.4.7.7h.1l-.1.2z"/><path d="M21 19.3s.1.1 0 .1 0 .1 0 .1v.1h-.1c-.1-.1-.1 0-.2 0-.1.1.1.1.1.1v-.1h.2s0-.1.1-.1v-.1s-.1-.1 0-.1c0-.1.1 0 .1 0-.1.1-.1 0-.2 0z"/><path fill="#010101" d="M20.9 19.8c-.1-.1-.1-.1 0 0h-.1v-.2l.1-.1s.1 0 .1.1l-.1-.1v-.1l-.2-.4.3.2s.1 0 .1.1l.1.1h.1-.2v.1s0 .1-.1.1l-.1.1c.1.1.1.1 0 .1 0-.1 0-.1 0 0 0-.1 0-.1 0 0 0-.1 0-.1 0 0 0-.1 0-.1 0 0z"/><path d="M19.4 21.3v-.1.1c.2 0 .2-.1.2-.2V21c-.1 0 0-.1 0-.1v-.1h-.1c-.1 0-.1.1 0 .2v.1h-.1s-.1-.1-.1 0 0 .1.1.2z"/><path fill="#010101" d="M19.4 21.3c-.1 0-.1-.1-.1-.1v-.1c.1-.1.1 0 .2 0l-.1-.1c0-.1 0-.1.1-.1h.1v.2l.1.1v.1s0 .1-.1.1c-.1-.1-.2-.1-.2-.1 0-.1 0 0 0 0zm0-.1zm.2-.2z"/><path d="M21.6 24.3c.1 0 .2 0 .3-.1 0 .1-.1.1-.1.2l.5-.5c-.1 0-.1-.1-.2-.1 0 .1.1.1.1.2s-.1.1-.2.2c-.2 0-.4 0-.4.1z"/><path fill="#010101" d="M21.6 24.6V24.3h-.1l-.1.1v-.2c.1-.1.1-.1.2-.1h.1c.1 0 .2-.1.2-.2l-.1-.1v-.1l.1.1h.1l.1.1h.1v.1c-.2.1-.3.3-.5.4l-.1.2z"/><path d="M20 19.1c0 .1.1.1.1.2 0-.1 0-.1-.1-.2.1.2.6.6.6.7-.2-.3-.4-.5-.6-.7z"/><path fill="#010101" d="M20.8 19.8h-.2c-.1 0-.6-.5-.6-.6l-.2-.3.1.1v-.1l.1.1.3.3c.1.1.2.2.3.4l.2.1z"/><path d="M14.9 9.7c.1 0 .1-.2.2-.1 0-.1.1-.2.1-.3l.7-.7.1-.1c-.4.4-.7.8-1.1 1.2z"/><path fill="#010101" d="m15.2 9.7-.1-.1-.1.1h-.1L16 8.5l.1.1-.3.3-.5.5c-.1.1-.1.1-.1.2v.1z"/><path d="m14.7 13.5-1.3 1.3 1.3-1.3z"/><path fill="#010101" d="m13.4 14.9-.1-.1 1.4-1.4.1.1z"/><path d="M10 13.4c-.3-.2-.5-.5-.7-.7.2.2.4.5.7.7z"/><path fill="#010101" d="M10 13.4c-.2-.1-.4-.3-.5-.5l-.2-.2.1-.1c.2.1.3.3.4.4 0 .1.1.2.2.4z"/><path d="M20.7 16.3c-.1-.1-.2-.1-.3-.2-.1-.1-.2-.1-.4-.2-.1 0-.1-.1 0-.1 0 0 .1-.1.1-.2-.1.1-.2.3-.4.2.4.2.7.4 1 .5z"/><path fill="#010101" d="M20.7 16.5c-.4-.3-.7-.4-1-.6v-.1h.1c.1 0 .1 0 .2-.1l.1-.1.1-.1-.1.1c0 .1-.1.1-.1.1.1 0 .1.1.2.1s.1.1.2.1h.1c.1 0 .2.1.2.2v.4z"/><path d="m20.9 20.2.1.1c-.1.1-.2.1-.2 0l-.1-.1v.1c.1.1.3.1.3 0 0 0 0-.1-.1-.1 0-.1 0-.1-.1-.1 0 .1.1 0 .1.1z"/><path fill="#010101" d="M20.9 20.5c-.1 0-.1 0-.2-.1l-.1-.1.1.1h.1V20.1h.2c.1 0 .2.2.1.3-.1.1-.2.1-.2.1z"/><path d="m22.1 25.4-.5-.5s-.1-.1 0-.1c-.1.1-.1 0-.1 0l-.2-.2c.3.2.5.5.8.8z"/><path fill="#010101" d="m22.1 25.4-.5-.5-.3-.3.1-.1.1.1.1.1.1.1.3.3.1.3z"/><path d="M22.8 26.9c-.1.1-.2.2-.4.3v-.1c-.1 0-.1.2-.2.1 0 0-.1-.1-.1-.2 0 .1.1.2.2.2.3 0 .5-.1.5-.3z"/><path fill="#010101" d="M22.4 27.3h-.1c-.1 0-.1-.1-.1-.2V27l.1.1.1.1v.1l.1-.1s0-.1.1-.1h.1v.1c.1 0 .1-.1.2-.1 0 0 0-.1.1-.1l.1-.1-.1.2c-.2 0-.4.1-.6.2z"/><path d="m10.6 14.9.2.2s.1 0 .1.1h.1v-.1c-.1-.1-.3-.2-.4-.2z"/><path fill="#010101" d="M10.9 15.3s-.1 0 0 0c-.1 0-.1-.1 0 0l-.1-.1-.1-.1-.1-.1-.1-.1h.1c.1 0 .3.1.4.2v.1l-.1.1c.1 0 .1 0 0 0zm-.1-.2z"/><path d="M22.9 25.9c.1.1.1.1.2.1s.1-.1.1-.2-.1-.1-.2-.1c.1 0 0 .1-.1.2.1-.1.2-.2.3-.1.1.1 0 .1 0 .2 0 0-.2 0-.3-.1z"/><path fill="#010101" d="M23.1 26.1c-.1 0-.1 0-.2-.1l-.1-.2.2.1c0-.1.1-.2.2-.2s.2.1.2.2c-.1 0-.1.2-.3.2.1 0 0 0 0 0zm-.1-.2c.1 0 .1.1.2 0v-.2l-.2.2z"/><path d="M23.8 28.4c.1-.1 0-.2-.1-.2s-.3 0-.3.2c0 .1 0 .2.1.2-.1-.1-.1-.2 0-.3 0 0 .1-.1.2 0 0 0 .1 0 .1.1z"/><path fill="#010101" d="M23.6 28.6h-.1c-.1 0-.1-.1-.1-.1v-.1c0-.1.1-.1.2-.2h.2c.1 0 .1.1.1.1v.1h-.1v-.1h-.1c-.1.1-.1.1 0 .2l-.1.1z"/><path d="m24.2 25.7-.9.9c.3-.3.7-.6.9-.9z"/><path fill="#010101" d="M23.4 26.6c.2-.4.5-.7.8-.9l.1.1c-.2.2-.3.4-.5.5-.2.1-.3.2-.4.3z"/><path d="M20.9 21.7c-.1-.1-.2-.1-.2-.2l-.1-.1V21v.2c-.2 0 0 .1 0 .2 0 .2.1.3.3.3z"/><path fill="#010101" d="m20.9 21.9-.1-.1c-.2 0-.3-.2-.3-.3l-.1-.1s0-.1.1-.1v-.2h.1v.2c0 .1 0 .1-.1.1 0 0 0 .1.1.1l.1.1.1.1.1.2z"/><path d="M22.5 26.4c.1 0 .1.1.2.1 0 0 .1 0 .1.1.1 0 .1 0 0 .1l-.3.3.1-.1.2-.2c0 .1-.1.1 0 .2.1-.1.1-.3 0-.4-.1 0-.1-.1-.3-.1z"/><path fill="#010101" d="M22.6 27.1c0-.2.1-.3.2-.3 0 0-.1 0-.1-.1h-.1s-.1 0-.1-.1h-.1l-.2-.1h.2c.1 0 .2 0 .2.1.1.1.1.1.1.2s0 .2-.1.2v-.1.2z"/><path d="M20.4 18.5c.1.1.2.1.2.2s0 .1-.1.2c0 0-.1.1-.1.2 0-.1.1 0 .1-.1h.1s0 .1.1 0c0 0 .1-.1 0-.1-.1-.1 0-.1-.1-.2 0-.1-.1-.2-.2-.2z"/><path fill="#010101" d="M20.4 19.1c-.1-.1 0-.1 0-.2 0 0 .1-.1 0-.2 0-.1-.1-.1-.2-.2l-.2-.1h.2c.1 0 .2.1.3.2V18.9s0 .1-.1.1h-.1l-.1-.1c.3.1.3.2.2.2zm.2-.2z"/><path d="M19.1 22c.2.2.5.4.7.5.1 0 .1.1.2.1-.1-.1-.2-.2-.3-.2-.2-.1-.4-.3-.6-.4z"/><path fill="#010101" d="m20 22.8-.1-.2s-.1 0-.1-.1l-.1-.1c-.2-.1-.4-.3-.6-.4l-.1.2v-.3h.1c.1 0 .1.1.2.1.1.1.3.2.4.3 0 0 .1 0 .1.1.1 0 .1.1.2.2v.2z"/><path d="M16.7 21.7c.1.1.1.2.2.2l.3.3c.1.1.2.2.4.3l-.3-.3-.4-.4c-.1-.1-.1-.1-.2-.1z"/><path fill="#010101" d="M17.5 22.5c-.1-.1-.3-.2-.4-.3l-.1-.1c0-.1-.1-.1-.1-.2-.1 0-.1-.1-.1-.2v-.2h.1l.1.1.3.3.1.1.2.2-.1.3z"/><path d="M22 17.8c0 .1.2.2.3.2h.1v-.1s-.1 0-.1-.1c-.1-.1-.1-.1 0-.1h-.2s-.1 0 0 .1h.1c0 .1.1.1.1.1s.1 0 0 .1h-.1c-.1-.2-.1-.2-.2-.2z"/><path fill="#010101" d="M22.2 18c-.1 0-.2-.1-.3-.2v-.2h.4l-.1.1h.1c.1 0 .1.1.1.1h.1-.1l-.2.2c.1-.1.1 0 0 0zm-.2-.3c.1 0 .1 0 .1.1l-.1-.1c.1 0 0 0 0 0z"/><path d="m18.7 14.3.1.1 1 1-1.1-1.1z"/><path fill="#010101" d="m19.8 15.5-.3-.3-.8-.8s-.1 0-.1-.1v-.2l.1.1 1 1c.1.1.1.2.1.3z"/><path d="m23.2 26.6.9-.9c-.3.2-.6.6-.9.9z"/><path fill="#010101" d="M23.3 26.6c0-.1 0-.1.1-.2l.8-.8.1.1-.6.6c-.2.1-.3.2-.4.3z"/><path d="M18.1 21.3c-.3-.2-.5-.5-.7-.8 0 .1.1.2.1.2.2.3.4.5.6.6z"/><path fill="#010101" d="M18.1 21.4c-.3-.2-.4-.3-.5-.5 0-.1-.1-.1-.1-.2-.1-.1-.1-.1-.1-.2v-.2l.1.2c.2.3.4.5.7.7l.1-.2-.2.4zM19.8 20.9l-.1-.1 1.1-1.1.1.1z"/><path d="M21.3 18.5z"/><path fill="#010101" d="m21.2 18.5-.7-.7-.3-.3.4.2c.3.2.5.5.6.8z"/><path d="M25.8 23.9h.1l.2-.2s.1.1.1 0h-.1s-.1-.1-.1 0h.1c0-.1-.1.1-.3.2z"/><path fill="#010101" d="M25.9 23.9s-.1 0 0 0h-.1l.4-.4h-.1.1c.1-.1.1 0 .1 0h.1v.2h-.1l-.2.2h-.2z"/><path d="M18.8 15.7c-.1 0-.1.1-.1.2 0 0-.1 0 0 .1h.1V15.7c.1 0 .1-.1 0 0 0-.1 0-.1 0 0z"/><path fill="#010101" d="m18.7 16-.1-.1s0-.1.1-.1c0 0 .1-.1.1 0v.2c-.1 0-.1.1-.1.1.1-.2.1-.2 0-.1.1 0 .1 0 0 0 .1 0 0 0 0 0zm0-.1z"/><path d="M11.3 17.7c.1.1.1.1.2.1l.1-.1v-.1h-.1l-.1.1h-.1c0-.1 0-.1 0 0z"/><path fill="#010101" d="M11.4 17.9c-.1 0-.1-.1-.2-.1v-.1l.1-.1.1.1v-.1h.1s.1 0 .1.1v.1s0 .1-.1.1h-.1c.1-.1.1 0 0 0zm.2-.2z"/><path d="M20.6 17.7c-.2-.2-.5-.3-.7-.5.2.3.4.4.7.5 0 .1 0 .1 0 0z"/><path fill="#010101" d="M20.6 17.8c-.1-.1-.2-.2-.3-.2-.1-.1-.3-.2-.4-.3l-.3-.3 1 .8z"/><path d="M25.4 21.9c-.3-.1-.6.1-.6.4.2-.4.2-.4.6-.4z"/><path fill="#010101" d="M24.7 22.4v-.2c0-.1.1-.3.2-.3.1-.1.3-.1.5-.1l.2.1h-.2c-.4 0-.4 0-.6.4l-.1.1z"/><path d="M28.4 23.8c0-.1 0-.1-.1-.2-.1 0-.2.1-.2.2s0 .1.2.1c-.1 0-.1-.1-.1-.2s.1-.1.2-.1v.2z"/><path fill="#010101" d="m28.6 24.1-.4-.1c-.1 0-.2-.1-.2-.2s.1-.2.3-.2c.1 0 .1 0 .1.1v.2l-.1-.1h-.1c-.1 0-.1 0-.1.1 0 0 0 .1.1.1l.4.1z"/><path d="M19 23.5c0 .1 0 .1 0 0 .2.1.3.1.3.1-.2-.1-.5-.2-.7-.4v.1c.2.1.3.1.4.2z"/><path fill="#010101" d="m19.1 23.7-.1-.1s-.1 0-.1-.1c-.1 0-.1-.1-.2-.1 0 0-.1 0-.1-.1 0 0-.1-.1 0-.1.1.1.2.1.3.2.1.1.2.1.3.2v.1s-.1-.1-.1 0z"/><path d="M23.6 26.2c0-.1 0-.1 0 0l.9-.9c-.3.2-.6.5-.9.9z"/><path fill="#010101" d="m23.4 26.3 1.1-1.1.1.1-.9.9-.3.1z"/><path d="M19.1 22c-.1-.1-.1-.1 0-.2l.3-.3-.2.2-.2.2h-.1c-.1 0-.1-.1-.2-.1.1 0 .2.1.4.2z"/><path fill="#010101" d="M19.1 22.1c-.1-.1-.1-.1-.2-.1-.1-.1-.2-.1-.3-.2l-.2-.2.3.2c.1 0 .1.1.2.1 0-.1.1-.1.1-.1l.1-.1.2-.2.1-.1.1.1-.3.3-.1.1v.2z"/><path d="M22.1 26.8v-.2c0-.1 0-.2.2-.2h.2c-.1 0-.2-.1-.3 0-.1 0-.2.1-.2.2.1.1.1.2.1.2z"/><path fill="#010101" d="M22.2 26.9c-.1-.1-.1-.2-.1-.2v-.1c0-.1.1-.2.2-.3h.4-.4v.1c-.1.3-.1.4-.1.5z"/><path d="M22.8 23.5c.1-.3.3-.4.5-.5-.2 0-.5.3-.5.5z"/><path fill="#010101" d="M22.7 23.8v-.4c0-.3.3-.6.6-.6h.2l-.2.2c-.3.1-.4.3-.5.5l-.1.3z"/><path d="M16.8 23.1c0 .1.1.1.1 0h.1V23s0-.1-.1-.1c0 0-.1 0-.1.1.1.1 0 .1 0 .1z"/><path fill="#010101" d="M16.8 23.2c-.1 0-.1-.1-.1-.1V23h.1c.1 0 .1 0 .1-.1 0 0 0-.1.1-.1s.1 0 .1.1c0 0 0 .1-.1.1 0 .1-.1.1-.2.2.1 0 .1 0 0 0zm.2-.2c-.1 0-.1 0 0 0-.1 0-.1 0 0 0z"/><path d="m16.4 14.4-.6-.6.6.6z"/><path fill="#010101" d="m16.4 14.4-.6-.6.1-.1.3.3.2.2v.2z"/><path d="M20.4 14.3c-.1 0-.1.1-.2.1 0 0-.1 0-.1.1 0 0 0 .1.1.1l.1-.1s.1-.1.1-.2z"/><path fill="#010101" d="M20.2 14.6c-.1 0-.1 0-.1-.1 0 0 0-.1.1-.1h.1s.1 0 .1-.1h.1l-.1.1s0 .1-.1.1c.1 0 0 0-.1.1.1 0 .1 0 0 0zm0-.1s.1 0 0 0c.1 0 0 0 0 0z"/><path d="M18.8 16.5c.3.1.5.3.7.4 0-.1-.5-.4-.7-.4z"/><path fill="#010101" d="m19.7 17.1-.2-.1c-.1-.1-.2-.1-.3-.2-.1-.1-.3-.2-.4-.2l-.4-.1h.4c.2 0 .6.3.7.4l.2.2z"/><path d="M13.3 10.2c0-.1 0-.1-.1-.2l-.6-.6c.2.3.5.5.7.8z"/><path fill="#010101" d="m13.3 10.4-.1-.2c-.1-.2-.2-.3-.4-.5l-.3-.3.1-.1.5.5.1.1c.1.1.1.1.1.2v.3z"/><path d="M16.5 20.7c.1.1.1.3.3.3-.1-.1-.1-.2-.3-.3z"/><path fill="#010101" d="M16.9 21.1h-.1c-.2 0-.2-.2-.3-.3v-.1h.1c.1 0 .2.2.3.4z"/><path d="M12.9 10.4c-.2-.2-.4-.4-.7-.6.2.2.4.5.7.6z"/><path fill="#010101" d="M12.8 10.5c-.1-.1-.3-.2-.4-.4l-.3-.3.1-.1c.1.1.3.2.4.3.1.2.2.3.2.5z"/><path d="m16.4 22.8.2.2c-.2-.2-.3-.4-.5-.5.1.1.3.2.3.4.1-.1 0-.1 0-.1z"/><path fill="#010101" d="M16.5 23v-.1c0-.1-.1-.2-.2-.3l-.1-.1-.2-.2.3.2c.2.1.3.3.4.4l.1.1h-.2l-.1-.1v.1z"/><path d="M26 21.8s-.1 0-.1-.1h-.1v.1l.1.1s0-.1.1-.1z"/><path fill="#010101" d="M25.9 21.9c-.1 0-.1 0 0 0-.1-.1-.1-.1-.2-.1v-.2h.1l.1.1.1.1v.1h-.1c.1 0 0 0 0 0zm0-.1zm-.1-.1c0 .1 0 .1 0 0 0 .1 0 0 0 0z"/><path d="M17.8 15.9c.2-.2.4-.3.6-.3-.1 0-.4.1-.6.3z"/><path fill="#010101" d="M17.8 15.9c.1-.3.4-.4.6-.4l.3.1h-.3l-.6.3z"/><path d="M20.5 27.3c0 .1.1.2.1.4 0 .1.1.2.1.3 0-.1-.1-.3-.1-.4-.1 0-.1-.1-.1-.3 0 .1 0 0 0 0z"/><path fill="#010101" d="M20.6 28.1V28c0-.1 0-.2-.1-.2 0-.1 0-.2-.1-.3v-.2h.1l.1.1v.2c0 .1 0 .2.1.3v.2h-.1z"/><path d="m9.6 12.3.7.7s-.4-.5-.7-.7z"/><path fill="#010101" d="M10.3 13.2c-.2-.2-.3-.4-.4-.5l-.3-.3.1-.1c.2.1.7.6.7.7l-.1.2z"/><path d="m17.9 19.1.6.6c-.1-.2-.3-.4-.6-.6.1 0 .1 0 0 0z"/><path fill="#010101" d="M18.6 19.8s-.1 0 0 0l-.6-.6-.1-.1.1-.1.6.8z"/><path d="M26.8 20.5c-.2-.1-.5-.1-.7-.2.2.1.5.2.7.2z"/><path fill="#010101" d="M26.8 20.6c-.1 0-.2 0-.2-.1-.1 0-.3-.1-.4-.1v-.1h.1c.1.1.3.1.5.3z"/><path d="M18.3 21.8c0 .1.1.1 0 0 .1.1 0 .1 0 .1-.1 0-.1.1-.2.2.1 0 .2-.1.2-.1h.1c0-.1 0-.1-.1-.2z"/><path fill="#010101" d="m18 22.2.1-.2c0-.1.1-.1.2-.2l-.1-.1v-.1h.1c.1 0 .1.1.2.1v.1h-.1l-.1.1h-.1l-.2.3z"/><path d="M17.5 23.6c.1 0 .1 0 0 0v-.1c-.1 0 0 0 0 .1-.1-.1-.1 0 0 0h-.1c0 .1.1 0 .1 0z"/><path fill="#010101" d="M17.4 23.7c-.1 0-.1 0 0 0-.1-.1-.1-.1 0-.2 0-.1 0-.1.1-.1s.1 0 .1.1v.1c-.1.1-.1.1-.2.1.1 0 .1 0 0 0zm.1-.2c0 .1 0 .1 0 0 0 .1 0 .1 0 0 0 .1 0 .1 0 0 0 .1 0 .1 0 0z"/><path d="M26.8 23.9c.1-.1 0-.2-.1-.2h-.1l.2.2z"/><path fill="#010101" d="m26.8 24-.3-.4h.2c.1.1.2.2.1.4zm-.1-.3c.1.1 0 .1 0 0z"/><path d="M16.9 16.9c0 .1.1.1 0 .2h-.2v.1s.1.1.1 0c.1-.2.2-.2.1-.3.1 0 .1 0 0 0z"/><path fill="#010101" d="M16.8 17.2c0-.1 0-.1 0 0-.1 0-.1-.1-.2-.1V17h.1v-.2h.1s.1 0 .1.1 0 .2-.1.2c.2 0 .1 0 0 .1.1 0 .1 0 0 0z"/><path d="M23.6 28.4c0 .1 0 .1 0 0 .1 0 .2-.1.1-.1h-.1c-.1.1-.1.1 0 .1z"/><path fill="#010101" d="m23.6 28.5-.1-.1s0-.1.1-.1c.1-.1.1 0 .2 0v.1c-.1 0-.1 0-.2.1.1 0 0 0 0 0zm0-.1s.1 0 0 0c.1 0 .1 0 0 0 0-.1 0-.1 0 0z"/><path d="M25.8 23.8s-.1 0 0 0c-.2 0-.3-.1-.4-.2 0 0 0-.1-.1 0v.1c.2.1.3.1.5.1z"/><path fill="#010101" d="m25.8 24-.1-.1c-.2 0-.3 0-.4-.2v-.2h.1c.1.1.1.2.3.2h.1v.3z"/><path d="m28.6 24.4.5-.5c-.2.2-.4.3-.5.5z"/><path fill="#010101" d="m28.4 24.7.1-.3c.1-.2.2-.3.4-.4l.1-.1.1.1-.7.7z"/><path d="M20.8 26.9s.1-.1 0 0l.6-.6-.6.6z"/><path fill="#010101" d="M20.8 26.9h-.1.1c.2-.3.4-.5.6-.6l.1.1-.2.2-.3.3h-.2z"/><path d="M15.7 18.5c.1-.2.1-.4.2-.6-.2.2-.2.4-.2.6z"/><path fill="#010101" d="M15.6 18.8v-.3c0-.2.1-.4.2-.6h.1c-.1.1-.1.3-.2.4v.1l-.1.4z"/><path d="M15.7 20c-.1-.2-.2-.3-.2-.4.1 0 .1.2.2.4z"/><path fill="#010101" d="M15.8 20c-.2-.1-.2-.2-.2-.3 0-.1-.1-.1-.1-.2h.2c0 .1.1.1.1.2s.1.1.1.2l-.1.1z"/><path d="M26 22c.2.1.3.2.5.4 0-.1-.4-.3-.5-.4z"/><path fill="#010101" d="m26.6 22.5-.1-.1-.1-.1c-.1-.1-.2-.2-.4-.3l-.3-.1.3.1c.1 0 .5.3.6.4v.1z"/><path d="M17.6 18.9c.1.2.3.3.5.5-.1-.2-.3-.3-.5-.5z"/><path fill="#010101" d="m18.1 19.4-.2-.2-.3-.3.1-.1.2.2c0 .2.2.3.2.4z"/><path d="m22.5 25.8.5.5c-.1-.2-.3-.4-.5-.5z"/><path fill="#010101" d="M23 26.3c-.2-.1-.3-.2-.4-.4l-.1-.1.1-.1.4.6z"/><path d="M25.8 23.8c.1 0 .1-.1.2-.1h-.2c-.1 0-.1-.1-.1-.1s0 .1.1.2z"/><path fill="#010101" d="M25.7 23.9v-.4l.1.1v.1h.4l-.5.2z"/><path d="m17.2 13.8-.5-.5s.3.4.5.5z"/><path fill="#010101" d="m17.5 14-.3-.2c-.1-.1-.5-.5-.5-.6v-.1l.1.1c.2.2.3.4.5.5l.2.3z"/><path d="M13.6 17.3c0-.1 0-.1 0 0-.1-.2-.3-.4-.4-.5H13c.1-.1.2 0 .3.1 0 .1.2.2.3.4z"/><path fill="#010101" d="m13.6 17.4-.1-.1c-.1-.1-.1-.2-.2-.3l-.1-.1c-.1-.1-.1-.1-.2-.1v-.1c.1-.1.1-.1.2 0 .2.1.3.3.5.4v.1l-.1.2z"/><path d="M24.1 19.7c-.1.1-.1.3-.1.4 0-.1.1-.3.1-.4z"/><path fill="#010101" d="m23.9 20.5.1-.4c0-.2.1-.4.2-.5l.2-.3-.1.3c0 .1 0 .1-.1.2 0 .1-.1.2-.1.3l-.2.4z"/><path d="M12.1 9.7c0 .1-.1.1-.2.2v.1l.3.3-.2-.2c-.1-.1-.1-.1 0-.2.1 0 .1-.1.1-.2z"/><path fill="#010101" d="M12.2 10.4c-.1-.1-.2-.2-.3-.2V10l.1-.1h.1v.1c0 .1 0 .1-.1.1V10l.1.1c.1.1.1.1.2.1l-.1.2z"/><path d="M21 22.8c-.1 0-.1-.1-.2 0 .1-.1-.1-.1 0-.2-.1.2 0 .3.2.2 0 .1 0 .1 0 0z"/><path fill="#010101" d="M21 22.9c-.2 0-.3-.1-.3-.3 0-.1 0-.1.1-.1h.1v.1s.1 0 0 .1H21.2l-.2.2c.1 0 .1 0 0 0z"/><path d="M12.1 10.7c-.2-.1-.3-.2-.5-.1.1 0 .3 0 .5.1-.1 0-.1 0 0 0z"/><path fill="#010101" d="M12.1 10.7H12c-.1-.1-.3-.1-.4-.1h-.4.3c.2 0 .3 0 .5.1l.1-.2v.2z"/><path d="M22 18.1c-.1-.2-.2-.3-.3-.4.2.1.2.3.3.4z"/><path fill="#010101" d="m22.2 18.3-.2-.2c-.1-.1-.1-.1-.1-.2s-.1-.2-.2-.2v-.1c.2.1.3.2.4.4l.1.3z"/><path d="M17.8 21.7c.1 0 0-.1.1-.2h-.1c-.1 0-.2.1-.3.2.1 0 .1-.1.2-.1h.1v.1c0-.1 0-.1 0 0z"/><path fill="#010101" d="M17.4 21.7v-.1c.1-.1.2-.2.3-.2 0 0 .1 0 .1.1v.1l-.4.1zm.3-.1c-.1.1-.1.1-.2.1l.2-.1z"/><path d="M19.8 15.8c-.1-.1-.3-.2-.5-.3.2.1.3.2.5.3z"/><path fill="#010101" d="M19.8 15.9c-.2-.2-.4-.3-.5-.3l-.3-.2.4.1c.2.1.3.1.5.3l-.1.1z"/><path d="m27.5 25.6.5-.5c-.2.1-.4.3-.5.5 0-.1 0-.1 0 0z"/><path fill="#010101" d="M27.5 25.6h-.1l.6-.7.1.1z"/><path d="m10.5 14.3.4-.4s.1-.1.1 0c0 0 0-.1-.1 0l-.4.4z"/><path fill="#010101" d="m10.5 14.3.4-.5h.1s.1 0 .1.1h-.2l-.3.3-.1.1z"/><path d="M21.3 20.7c-.1 0-.2.1-.3 0l.1.1c0-.1.1 0 .2-.1-.1 0-.1 0 0 0z"/><path fill="#010101" d="M21.1 20.8c-.2 0-.2 0-.2-.1l.1-.1c0 .1.1.1.2 0H21.5l-.2.1c-.1 0-.1 0-.2.1.1-.1.1 0 0 0 .1 0 .1 0 0 0z"/><path d="m14.8 19.7-.5-.5c.2.2.3.4.5.5z"/><path fill="#010101" d="m14.8 19.8-.6-.6h.1l.6.5z"/><path d="M17.9 18c0-.1-.1-.1-.1-.1-.1 0-.1.1.1.1-.1.1 0 .1 0 0z"/><path fill="#010101" d="m18 18.4-.1-.3h-.1c-.1-.1-.1-.1 0-.2v-.1.2l.1-.2.1.6zm-.2-.4z"/><path d="m13.3 18.4-.1-.1.3.3-.2-.2h-.1v.1c0-.2 0-.1.1-.1z"/><path fill="#010101" d="m13.5 18.6-.1-.1h-.1s-.1 0-.1-.1c0 0-.1 0-.1-.1v-.1h.2l.2.2v.2z"/><path d="M15.2 18.2c.1-.1.1-.3.2-.4-.1.1-.2.2-.2.4z"/><path fill="#010101" d="M15.2 18.4v-.2c0-.2.1-.3.2-.5h.1c0 .1-.1.2-.1.2 0 .1 0 .1-.1.2l-.1.3z"/><path d="M19.4 23.7c.1.1.3.2.5.2-.1 0-.3-.1-.5-.2z"/><path fill="#010101" d="M19.9 24c-.2 0-.3-.1-.5-.2v-.1l.5.3z"/><path d="M19.5 18.5 19 18c.2.2.3.4.5.5z"/><path fill="#010101" d="m19.5 18.6-.6-.6h.1l.5.5z"/><path d="M28.3 23.9c.1 0 0-.1 0-.1 0-.1-.1 0 0 .1-.1-.1-.1-.1 0 0-.1 0 0 0 0 0z"/><path fill="#010101" d="m28.2 23.9-.1-.1.1-.1h.2v.1c0 .1 0 .1-.2.1.1 0 .1 0 0 0 .1 0 .1 0 0 0zm0-.1c0 .1 0 0 0 0 .1 0 .1 0 0 0 .1 0 .1 0 0 0 .1 0 .1 0 0 0 .1 0 0 0 0 0z"/><path d="M9.2 12.8c0 .1.1 0 0 0 .1.1.1.1 0 0 0 .1 0 .1 0 0v.1h.1l.1-.1h-.2z"/><path fill="#010101" d="M9.3 13c-.1 0-.1 0 0 0l-.1-.1h-.1H9.4l.1.1c-.1-.1-.1 0-.2 0z"/><path d="M26.7 22.6c0-.1-.1-.2-.1-.2h-.1v.1c.1 0 .2.1.2.1z"/><path fill="#010101" d="M26.7 22.7c-.1-.1-.1-.1 0 0-.1-.1-.2-.1-.2-.2v-.1h.1c.1.1.1.1.1.3z"/><path d="m20.2 24.2.3.3s.1.1 0 .1c.1 0 .1-.1.1-.1-.2-.1-.3-.2-.4-.3z"/><path fill="#010101" d="M20.5 24.7v-.1l-.2-.2-.1-.1.1-.1.1.1c.1.1.2.1.2.2l.1.1c-.1 0-.1 0-.2.1z"/><path d="M20 22.3c.1 0 .2 0 .2-.2-.1.1-.1.2-.2.2z"/><path fill="#010101" d="M20 22.4v-.2l.1-.1h.1v.1c0 .1-.1.2-.2.2z"/><path d="M10.8 9.9c0 .1 0 .1 0 0 .1.1.1.1 0 0 .1.1.1 0 0 0 .1 0 .1 0 0 0z"/><path fill="#010101" d="M10.9 10.1c-.1 0-.1 0 0 0l-.1-.1v-.1h.2s0 .1-.1.2zm0-.1zM23.345 26.148l.494-.495.071.07-.495.496z"/><path d="M11.8 12c.1 0 .1-.1 0 0 .1 0 .1 0 0 0v.1s.1 0 .1-.1c.1 0 .1-.1-.1 0 .1-.1.1-.1 0 0z"/><path fill="#010101" d="M11.9 12.1c-.1 0-.1 0 0 0-.1 0-.1 0 0 0l-.1-.1c0-.1.1-.1.2-.1l.1.1c-.1.1-.2.1-.2.1z"/><path d="M17.5 22.2c0 .1 0 .2.1.1h.1l-.1-.1v.1h-.1v-.1z"/><path fill="#010101" d="M17.7 22.5s0-.1 0 0c0-.1-.1-.1 0 0-.1-.1-.1-.1 0 0-.1 0-.2 0-.2-.1V22.1h.2s.1 0 .1.1c-.1.1 0 .1-.1.3.1-.1.1-.1 0 0 .1-.1 0 0 0 0z"/><path d="M13.6 18.6c-.1-.1-.3-.2-.4-.4.2.1.3.3.4.4z"/><path fill="#010101" d="m13.9 18.8-.3-.2-.2-.2-.2-.2v-.1h.1l.2.2.2.2.2.3z"/><path d="M20.7 24c.1-.1.1-.1 0 0 0-.1 0-.1 0 0-.1-.1-.1-.1 0 0z"/><path fill="#010101" d="M20.7 24c-.1 0-.1 0 0 0l-.1-.1v-.1h.2v.1s0 .1-.1.1c.1 0 0 0 0 0zm-.1 0zm.1-.1z"/><path d="M17.6 22.5c.1.1.2.2.4.3-.1-.1-.3-.1-.4-.3z"/><path fill="#010101" d="m18.3 23.1-.3-.2c-.2-.1-.3-.2-.4-.3l.1-.1.2.2c.1 0 .1.1.2.2l.2.2z"/><path d="m18.2 19.4.3.3-.3-.3z"/><path fill="#010101" d="M18.5 19.8c-.1-.1-.3-.2-.4-.3l.1-.1c.1 0 .1.1.2.2 0 0 .1.1.1.2z"/><path d="m21.6 20.9-.3-.3c.1.1.2.3.3.3z"/><path fill="#010101" d="m21.7 21.1-.1-.1-.1-.1c-.1-.1-.1-.1-.2-.1v-.1c.1.1.2.1.3.3l.1.1z"/><path d="M9.6 13.1c-.1 0 0 .1 0 0-.1.1-.1.1 0 0-.1 0-.1 0 0 0-.1.1-.1.1 0 0-.1.1-.1.2 0 .1v-.1z"/><path fill="#010101" d="M9.5 13.3s-.1-.1 0 0l-.1-.1v-.1h.2v.1s0 .1-.1.1z"/><path d="M16.9 22.2c-.1-.1-.2-.2-.2-.4 0 .1.1.3.2.4z"/><path fill="#010101" d="M16.9 22.2c-.2-.2-.3-.3-.3-.4h.1c0 .1.1.1.1.2s.1.1.1.2zM16 24.9v-.1l.4-.4.1.1z"/><path d="M17.9 18c0 .1 0 .1 0 0 .1 0 .1 0 0 0 0-.1 0-.2-.1-.2 0 .1.1.1.1.2 0 0 .1 0 0 0z"/><path fill="#010101" d="M18 18.1c-.1 0-.1 0 0 0-.1 0-.1 0 0 0l-.2-.1-.2-.2.2.1c.1 0 .1.1.2.2 0-.1 0-.1 0 0z"/><path d="M12.2 11.4s0-.1 0 0 0 .1.1.1l.1-.1c-.1-.1-.2-.1-.2 0z"/><path fill="#010101" d="M12.2 11.5c-.1 0-.1 0-.1-.1v-.1h.1l.1-.1s.1 0 .1.1v.1c-.1 0-.1.1-.2.1z"/><path d="M11.5 16.7c0 .1.2.2.3.3l-.3-.3z"/><path fill="#010101" d="M11.8 17s-.1 0 0 0c-.2-.1-.2-.2-.3-.3l-.1-.2.1.2.1.1c.2.1.2.1.2.2z"/><path d="M9.8 10.9s0 .1 0 0c0 .1 0 .1.1.1v-.1h-.1c.1 0 .1 0 0 0 .1.1.1.1 0 0 0 .1 0 0 0 0z"/><path fill="#010101" d="M9.8 11.1c0-.1 0-.1 0 0-.1-.1-.1-.1-.1-.2l.1-.1h.1v.1c.1.1.1.1-.1.2.1 0 .1 0 0 0zm.1-.2zm0 0z"/><path d="M15.8 19s.1 0 0 0c.1 0 .1-.1.1-.1l-.1.1c0-.1.1 0 0 0z"/><path fill="#010101" d="M15.9 19.1s-.1 0 0 0c-.1 0-.1 0 0 0l-.3-.1h.1v-.1h.2c.1.1.1.1 0 .2zm0-.2c0 .1 0 .1 0 0 0 .1 0 .1 0 0zm-.1.1z"/><path d="M25.3 23.5c-.1-.1-.1-.2-.2-.3 0 .2.1.3.2.3z"/><path fill="#010101" d="m25.5 23.8-.3-.2c-.1-.1-.2-.2-.2-.3l-.1-.2.2.1c.1 0 .1.1.1.2l.1.1.2.3z"/><path d="m24.7 25.3-.4.4c.1-.1.2-.3.4-.4z"/><path fill="#010101" d="M24.3 25.7h-.1l.5-.5v.1z"/><path d="M13.9 18.7c.1.2.3.3.4.4-.2-.1-.3-.3-.4-.4z"/><path fill="#010101" d="m14.2 19.1-.1-.1-.3-.3v-.1h.1l.3.3c0 .1.1.1 0 .2z"/><path d="M17.7 15.8c.1-.1.2-.2.4-.2-.1 0-.3.1-.4.2z"/><path fill="#010101" d="m17.5 16 .2-.2c.1-.1.2-.2.4-.3v.1c-.1 0-.1.1-.2.1s-.1.1-.2.1l-.2.2z"/><path d="M13.3 10.5c0 .1-.1.1-.1.1l.1.1c.1-.1.1-.2 0-.2z"/><path fill="#010101" d="M13.3 10.7s-.1 0-.1-.1l-.1-.1h.2v-.2l.1.1v.1c0 .1 0 .1-.1.2z"/><path d="M18.5 16.3c-.1 0-.3 0-.3.2 0-.1.2-.2.3-.2z"/><path fill="#010101" d="m17.9 16.7.2-.3c.1-.1.2-.2.4-.2h.3l-.3.1h-.1c-.1 0-.2.1-.2.1l-.3.3z"/><path d="m12.4 10.5.3.3c0-.1-.2-.2-.3-.3z"/><path fill="#010101" d="m13 10.9-.3-.1c-.1 0-.2-.1-.3-.2 0 0 0-.1-.1-.1l.1-.1.3.3.3.2z"/><path d="M18.1 15.9c.1 0 .2-.1.3-.1-.1 0-.2 0-.3.1z"/><path fill="#010101" d="M18.1 15.9c.1-.2.2-.2.3-.2h.2-.2c-.1.2-.2.2-.3.2z"/><path d="M13.4 9.9s0 .1 0 0c-.1.1-.1 0 0 0l-.1.1h.1v-.1z"/><path fill="#010101" d="M13.3 10.1c-.1-.1-.1-.1-.1-.2v-.1l.1.1c.1 0 .2 0 0 .2.1-.1.1 0 0 0z"/><path d="m11.6 16.8.4.4c-.1-.2-.2-.3-.4-.4 0-.1 0 0 0 0z"/><path fill="#010101" d="m12 17.2-.4-.4v-.1l.5.4z"/><path d="m6.8 15.5.4-.4c-.2.1-.3.3-.4.4z"/><path fill="#010101" d="M6.8 15.5h-.1l.4-.5.1.1z"/><path d="M16.8 13.2c-.1 0-.1.1 0 0 0 .1 0 .1 0 0 .1.1.1 0 0 0z"/><path fill="#010101" d="M16.8 13.4s0-.1 0 0c-.1-.1-.1-.1-.1-.2h.1v.1c.1 0 .1 0 0 .1.1-.1 0 0 0 0zm0-.2c0 .1 0 .1 0 0 0 .1 0 .1 0 0 0 .1 0 0 0 0z"/><path d="m12 17-.3-.3.3.3z"/><path fill="#010101" d="m12 17.1-.4-.4.1-.1.4.4z"/><path d="M10.4 13.3c0 .1 0 .1-.1.1 0 .1 0 .1.1.1.1-.1.1-.1 0-.2z"/><path fill="#010101" d="M10.4 13.5c-.1 0-.1-.1-.1-.1v-.1h.1v-.1l.1.1v.1s0 .1-.1.1z"/><path d="M18.1 21.3c.1.1.2.2.4.3-.1-.1-.3-.2-.4-.3z"/><path fill="#010101" d="M18.5 21.6c-.1 0-.1 0 0 0-.2-.1-.3-.1-.4-.3v-.1l.1.1.3.3z"/><path d="M16.3 18.1c-.1.1-.1.2-.1.4 0-.1 0-.2.1-.4z"/><path fill="#010101" d="M16.1 18.8v-.3c0-.1.1-.3.1-.4h.1c0 .1-.1.2-.1.3l-.1.4z"/><path d="M10.1 12.6s0 .1 0 0h.1v-.1s-.1 0-.1.1c.1 0 0 0 0 0z"/><path fill="#010101" d="M10.1 12.7s0-.1 0 0l-.1-.1h.2c.1 0 .1.1.1.1h-.2c.1 0 .1 0 0 0z"/><path d="M9.9 12.2c0 .1 0 .1 0 0 0 .1-.1.1 0 0-.1.1 0 .1 0 .1v-.1c.1 0 0 0 0 0z"/><path fill="#010101" d="M9.9 12.4s-.1 0-.1-.1v-.1h.2c0 .1 0 .1-.1.2.1 0 0 0 0 0z"/><path d="M20.2 24.1c-.1-.1-.1-.1-.2 0h.2z"/><path fill="#010101" d="M20.1 24.1h-.2c.1-.1.1-.1.2 0h.1-.1z"/><path d="m26.2 23.6-.2.2c.1 0 .2-.1.2-.2z"/><path fill="#010101" d="m26 23.9-.1-.1.3-.3.1.1z"/><path d="M9.7 13.4c.1 0 .1 0 0 0 .1 0 .1 0 0 0 .1 0 0 0 0 0 0 .1 0 .1 0 0 .1.1.1.1 0 0 .1.1.1 0 .1 0s0-.1-.1 0z"/><path fill="#010101" d="M9.8 13.5s-.1 0 0 0c-.1 0-.1-.1-.1-.1h.1s.1 0 .1.1c0-.1 0 0-.1 0zm0-.1z"/><path d="M18.3 16.2c-.1 0-.2.1-.3.2.1 0 .2-.1.3-.2z"/><path fill="#010101" d="m17.9 16.6.1-.2c.1-.1.2-.1.3-.2l.3-.1-.7.5z"/><path d="M20.6 21c.1-.1.1-.2.3-.3-.2 0-.3.1-.3.3z"/><path fill="#010101" d="m20.4 21.3.1-.4c.1-.1.1-.2.3-.3v.1c-.1.1-.2.2-.2.3l-.2.3z"/><path d="M19.4 17.2h.3-.3z"/><path fill="#010101" d="m20 17.3-.3-.1h-.5l.1-.1h.3l.4.2z"/><path d="m23.2 24.8-.3.3c.1 0 .2-.1.3-.3 0 .1 0 .1 0 0z"/><path fill="#010101" d="M22.9 25.2h-.1l.4-.4h.1z"/><path d="M10.4 10.4c0 .1 0 .1 0 0l-.1.1h.1v-.1z"/><path fill="#010101" d="M10.4 10.6c-.1 0-.1 0 0 0-.1 0-.1-.1-.1-.1h.1c.1-.1.1 0 0 .1zm-.1-.1zm0-.1z"/><path d="m24.4 25.2-.3.3.3-.3z"/><path fill="#010101" d="M24.1 25.6v-.1l.3-.4.1.1z"/><path d="M11.2 12.3c0 .1 0 .1-.1.1 0 .1.1.1.1.1v-.2z"/><path fill="#010101" d="M11.1 12.5c-.1 0-.1-.1-.1-.1v-.1h.2v-.1l.1.1.1.1c-.1 0-.2 0-.3.1.1 0 0 0 0 0z"/><path d="M27.3 20.7c.1 0 .2.1.3.1-.1-.1-.2-.1-.3-.1z"/><path fill="#010101" d="m27.8 20.8-.9-.2h.4c.1 0 .2 0 .4.1l.1.1z"/><path d="M21.9 18c-.1-.2-.2-.2-.3-.1.1-.2.2 0 .3.1z"/><path fill="#010101" d="m22 18.1-.2-.1-.1-.1c0-.1-.1-.1-.1 0v-.1c.1 0 .1-.1.2-.1s.1.1.2.2v.2z"/><path d="M19 23.5c-.1 0-.2-.1-.3 0h.3z"/><path fill="#010101" d="M19 23.6h-.1c-.1 0-.2 0-.2-.1l-.1-.1h.4v.2z"/><path d="M11.3 9.4s.1 0 0 0c0 .1 0 .1 0 0-.1.1 0 .2 0 .2s.1-.1 0-.2c.1 0 .1 0 0 0z"/><path fill="#010101" d="M11.3 9.6c-.1 0-.1 0-.1-.1v-.1h.1v-.2h.1s.1 0 .1.1c-.1.3-.1.3-.2.3z"/><path d="M10.1 10.1s0 .1 0 0c-.1.1 0 .2 0 .2v-.2z"/><path fill="#010101" d="M10.2 10.4c-.1 0-.1 0 0 0-.2-.1-.2-.1-.2-.2v-.1h.2l-.1.1v.1h.2l-.1.1z"/><path d="m17.5 13.4-.2.2c-.1 0-.1.1-.2.2l.4-.4z"/><path fill="#010101" d="M17.2 13.8v-.1s0-.1.1-.1l.1-.1.1.1-.3.2c.1-.1.1 0 0 0z"/><path d="M18.4 16.5h.3-.3z"/><path fill="#010101" d="m18.2 16.7.2-.2c.1-.1.3-.1.4 0l.1.1h-.4l-.3.1z"/><path d="m12.3 11-.3-.3c.1.1.2.1.3.3 0-.1 0 0 0 0z"/><path fill="#010101" d="M12.3 11s-.1 0 0 0l-.2-.2-.1-.1v-.2l.1.2.3.3h-.1z"/><path d="M10.7 12.1s-.1.1-.1 0c0 .1 0 .1.1 0 0 .1 0 .1 0 0z"/><path fill="#010101" d="M10.6 12.3s0-.1 0 0l-.1-.1v-.1h.2v.1s0 .1-.1.1c.1 0 0 0 0 0z"/><path d="M12.2 10s0 .1 0 0h-.1.1c.1 0 0 0 0 0z"/><path fill="#010101" d="M12.2 10.1c-.1 0-.1 0 0 0-.2 0-.2 0-.2-.1h.1v-.1l.1.1c.1 0 .1.1.1.1 0-.1 0 0-.1 0z"/><path d="M9.4 11.5s.1-.1 0 0v-.1.1h-.1.1z"/><path fill="#010101" d="M9.4 11.6c-.1 0-.1 0 0 0-.1-.1-.1-.1 0 0l-.1-.1h.1s.1 0 .1.1c0-.2 0-.1-.1 0 0-.1 0-.1 0 0 0-.1 0 0 0 0zm0-.2z"/><path d="M20.3 18.5c-.1 0-.2.1-.3.2 0-.2.1-.2.3-.2z"/><path fill="#010101" d="M20 18.7c0-.2.1-.3.3-.3h.4l-.4.1c-.1 0-.2.1-.3.2zM13.1 18.1l-.4-.3v-.1l.1.1-.1-.1h.1l.3.4z"/><path d="m25.1 27.8-.3.3c.2-.1.3-.2.3-.3.1 0 .1 0 0 0z"/><path fill="#010101" d="m24.9 28.2-.1-.1.3-.3h.1z"/><path d="M22.6 21.1c.1 0 .1.1.1 0h-.1c0-.1 0-.1 0 0-.1-.1-.1-.1 0 0-.1-.1-.1 0 0 0z"/><path fill="#010101" d="M22.6 21.2s0-.1 0 0c-.1-.1-.1-.1 0 0-.1-.1-.1-.1-.1-.2v-.1h.1c.1 0 .1 0 .1.1 0 0 0 .1-.1.2.1-.1.1-.1 0 0 .1 0 .1 0 0 0z"/><path d="m16.9 12.1-.3-.3c.1.2.2.3.3.3 0 .1 0 .1 0 0z"/><path fill="#010101" d="m16.9 12.2-.3-.3v-.1l.4.3z"/><path d="M11.5 10.8h.1v-.1s-.1 0-.1.1c0-.1 0-.1 0 0z"/><path fill="#010101" d="M11.5 10.8c-.1 0-.1 0 0 0l-.1-.1h.1v-.1h.2c0 .1-.1.2-.2.2.1 0 0 0 0 0z"/><path d="M22.4 25.7c-.1-.1-.2-.1-.2-.2.1 0 .1.1.2.2z"/><path fill="#010101" d="m22.6 25.9-.5-.5.1-.1v.1l.1.1.1.1.2.3z"/><path d="M12 10.8s.1.1 0 0v.1h.1l-.1-.1c.1 0 .1 0 0 0z"/><path fill="#010101" d="m12 11-.1-.1v-.1h.1v.1c.1 0 .1 0 0 .1z"/><path d="m10.9 14.4.3-.3c-.2.1-.3.2-.3.3z"/><path fill="#010101" d="M10.9 14.4v-.2l.2-.2.2-.1-.4.5z"/><path d="M12.7 9.4c0 .1.1.1.1 0v-.1c0 .1 0 .2-.1.1z"/><path fill="#010101" d="M12.8 9.6s-.1 0-.1-.1l-.1-.1H12.9v-.1h.1v.1c0 .1-.1.1-.2.2.1-.1.1 0 0 0zm0-.2z"/><path d="M10.5 11.7c0 .1 0 .1-.1.1 0 0 0 .1.1.1.1-.1.1-.1 0-.2.1 0 .1 0 0 0z"/><path fill="#010101" d="M10.5 11.8s-.1 0 0 0l-.1-.1-.1-.1h.2v-.1l.1.1.1.1c-.1.1-.1.1-.2.1z"/><path d="M22.7 21.1c0-.1 0-.1-.1-.2h-.1c0 .1 0 0 0 0 .2 0 .2.1.2.2 0-.1 0-.1 0 0z"/><path fill="#010101" d="m22.7 21.2-.1-.1V21h-.1.1c.1 0 .1.1.1.2z"/><path d="M21.6 24.3c-.1 0-.1 0-.1.1l-.1.1c0-.1.1-.1.2-.2z"/><path fill="#010101" d="M21.3 24.7v-.1c0-.1 0-.1.1-.1 0 0 0-.1.1-.1h.2v.1l-.1.1-.3.1z"/><path d="M20.7 20.3c.1-.1.1 0 0 0 .2 0 .1 0 0 0 .1-.1.1-.1 0 0z"/><path fill="#010101" d="M20.7 20.4v-.1h-.2l.1-.1.1-.1h.1s.1.1 0 .1c.1.1.1.2-.1.2zm0-.1z"/><path d="m12.5 10.3-.1.1h.1v-.1z"/><path fill="#010101" d="M12.4 10.4c-.1 0-.1-.1-.1-.1l.1-.1c.2.1.2.2 0 .2.1 0 .1 0 0 0z"/><path d="M13 9.7c.1.1.1.1 0 0h.1v-.1s0 .1-.1.1c.1 0 .1.1 0 0z"/><path fill="#010101" d="M13.1 9.8s-.1 0 0 0c-.1 0-.1 0 0 0l-.2-.3.2.1v-.1h.1v.1c0 .2 0 .2-.1.2z"/><path d="M23.2 26.5c-.1.1 0 .1.1.2h.1c-.2-.1-.2-.1-.2-.2z"/><path fill="#010101" d="M23.3 26.7c-.1 0-.1 0 0 0-.1 0-.1 0 0 0-.1 0-.1 0 0 0-.1-.1-.2-.1-.1-.2l.1-.1v.1c0 .1 0 .1.1.1h.1v.1h-.2z"/><path d="M19.1 17.4c.1-.1.2-.1.3-.2-.1 0-.2.1-.3.2z"/><path fill="#010101" d="M19.2 17.4c0-.2.1-.2.2-.2h.1v.1s-.1 0-.1.1c-.1-.1-.2 0-.2 0z"/><path d="M18.4 15.5h-.3.3z"/><path fill="#010101" d="M18.8 15.6H18l.1-.1c.1-.1.2-.1.3 0l.4.1z"/><path d="M10.3 12.9c.1 0 .1 0 0 0h.1c.1-.1.1-.1-.1 0 .1-.1.1-.1 0 0 .1 0 .1 0 0 0z"/><path fill="#010101" d="M10.4 13c-.1 0-.1-.1 0 0l-.1-.1h.2v.1c0-.1 0-.1-.1 0z"/><path d="M21 22.8c0-.1-.1-.1-.2-.2.1.1.1.2.2.2z"/><path fill="#010101" d="M21 22.9c-.1-.1-.2-.1-.2-.2l-.1-.2.2.1s.1.1.1.3z"/><path d="M17.7 15.4c.1-.1.2-.1.3-.2-.1 0-.2.1-.3.2z"/><path fill="#010101" d="M17.7 15.4c0-.2.1-.2.3-.3l.4-.1-.4.2c-.1.1-.2.1-.3.2z"/><path d="M17.5 22.2c0-.1 0-.1.1-.1h-.1c-.1 0 0 .1 0 .1z"/><path fill="#010101" d="M17.4 22.3c0-.1 0-.1 0 0 0-.1-.1-.2 0-.2h.2l-.1.1-.1.1z"/><path d="M15.4 19.8v-.1c-.1-.1-.1 0 0 .1-.1-.1-.1-.1 0 0z"/><path fill="#010101" d="M15.3 19.8s0-.1 0 0c-.1-.1-.1-.1-.1-.2v-.1h.1c.1.1.1.2 0 .3.1-.1.1-.1 0 0z"/><path d="m18 13.3-.3-.3c.1.2.2.3.3.3z"/><path fill="#010101" d="M18 13.4c-.2-.1-.2-.2-.3-.3l.1-.1.2.4z"/><path d="m17.5 12.8-.3-.3.3.3z"/><path fill="#010101" d="m17.8 13-.3-.2c-.2-.1-.3-.2-.3-.3l-.1-.3.1.3c0 .1.1.1.1.2l.1.1.4.2z"/><path fill="none" d="M-.3 0h45v45h-45z"/><path fill="none" d="M4.2 27h18v13.5h-18z"/><path fill="#010101" d="M8.8 34v1c-1 1.4-2 3.5-2.3 5.4H5.2c.3-1.9 1.4-4.1 2.3-5.3h-3V34h4.3zM12.8 35.6c0-.3-.2-.6-.8-.6-.9 0-1.1.8-1.1 1.7.3-.3.7-.6 1.4-.6 1.2 0 2 .9 2 2.1 0 1.4-.9 2.4-2.3 2.4-1.9 0-2.5-1.4-2.5-3.2 0-1.7.6-3.4 2.5-3.4 1.4 0 2 .9 2.1 1.7h-1.3zm.2 2.7c0-.6-.2-1.2-1-1.2-.6 0-1 .4-1 1.1 0 .5.2 1.2 1 1.2.7 0 1-.5 1-1.1z"/><path fill="none" d="M26.8 4.5h13.5V18H26.8z"/><path fill="#010101" d="M32.4 11.6V6.8c-.3.1-.8.2-1.2.3V6c.6-.1 1.2-.5 1.6-.9h1v6.4h-1.4zM38.4 6.8c-.1-.3-.3-.6-.8-.6-.9 0-1.1.8-1.1 1.7.3-.3.7-.6 1.4-.6 1.2 0 2 .9 2 2.1 0 1.4-.9 2.4-2.3 2.4-1.9 0-2.5-1.4-2.5-3.2 0-1.7.6-3.4 2.5-3.4 1.4 0 2 .9 2.1 1.7h-1.3zm.1 2.6c0-.6-.2-1.2-1-1.2-.6 0-1 .4-1 1.1 0 .5.2 1.2 1 1.2.7.1 1-.4 1-1.1z"/><path fill="none" d="M26.7 27h13.5v13.5H26.7z"/><path fill="#010101" d="M31.5 40.5v-1.2h-2.4v-1l2.2-3.1h1.3v3.2h.6l-.1.9h-.5v1.2h-1.1zm0-3.1v-1.2c-.2.4-.9 1.5-1.4 2.2h1.4v-1zM33.6 40.9l2.2-6.1h1l-2.2 6.1h-1zM39.8 37.9v1h-2.3v-1h2.3zM29.6 28.5l1.6 3-3-1.6s.7-.3.9-.5c.3-.1.5-.9.5-.9z"/></svg>