<svg version="1.2" baseProfile="tiny" xmlns="http://www.w3.org/2000/svg" viewBox="0 0 45 45" overflow="visible" xml:space="preserve"><path fill="none" d="M0 0h45v45H0z"/><path fill="none" d="M0 0h45v45H0z"/><path fill="none" d="M4.5 4.5h18v9h-18z"/><path fill="#010101" d="M5.7 7.9H4.6v-.8h3.2V8h-1v3.3H5.7V7.9zM9.1 8c.2 1 .4 1.8.5 2.2 0-.4.2-1.4.4-2.2h1.1l-.9 3c-.3 1.1-.7 1.3-1.4 1.3h-.4v-.8h.3c.2 0 .3-.1.4-.3L7.9 8h1.2zM12.5 11v1.4h-1.1V8h1.1v.4c.1-.2.3-.4.9-.4.6 0 1.2.5 1.2 1.6s-.6 1.7-1.3 1.7c-.4-.1-.7-.2-.8-.3zm.9-1.4c0-.6-.2-.8-.5-.8-.4 0-.5.2-.5.8 0 .6.1.9.4.9.4 0 .6-.3.6-.9zM16 9.8c0 .4.1.7.5.7.3 0 .4-.2.4-.3H18c-.1.5-.5 1.1-1.5 1.1-1.1 0-1.5-.7-1.5-1.6 0-.8.4-1.6 1.6-1.6 1-.1 1.4.6 1.4 1.5v.3h-2zm.9-.6c0-.3-.1-.5-.4-.5-.3 0-.4.3-.4.5h.8z"/><path fill="none" d="M27 4.5h13.5v9H27z"/><path fill="#010101" d="M31.8 9.8v-2c-.2.9-.4 2.3-.7 3.3h-.9c-.2-1-.5-2.4-.6-3.3 0 .5.1 1.3.1 2v1.3h-1v-4h1.6c.2.7.4 2 .5 2.6.1-.6.4-1.8.6-2.6H33v4.1h-1.1V9.8zM36.6 9.6c0 .9-.4 1.7-1.6 1.7-1.2 0-1.6-.8-1.6-1.7 0-.7.4-1.6 1.6-1.6 1.2 0 1.6.8 1.6 1.6zm-2.1 0c0 .6.2.9.5.9s.5-.3.5-.9c0-.6-.1-.9-.5-.9-.3 0-.5.3-.5.9zM40 6.8v4.3h-1v-.3c-.2.2-.4.4-.8.4-.8 0-1.2-.7-1.2-1.6 0-1 .5-1.7 1.3-1.7.4 0 .6.1.7.2V6.8h1zm-1.9 2.8c0 .6.1.9.5.9s.5-.3.5-.9c0-.6-.1-.8-.4-.8-.5-.1-.6.2-.6.8z"/><path fill="none" d="M4.5 13.5H27V36H4.5z"/><path fill="#010101" d="M4.9 17.4h2.8v.9H6v.8h1.6v.9H6v1.6H4.9v-4.2zM9.2 18.3H8.1v-.9h3.2v.9h-1.1v3.3h-1v-3.3zM6 24.6v4.1H4.9v-4.1H6zM6.8 24.6h2.8v.9H7.9v.8h1.6v.8H7.9v1.6H6.8v-4.1zM9.6 29.4c.2-.4.4-1.1.4-1.7h.9c0 .7-.2 1.4-.6 1.8h-.7zM12.8 24.6h1.1v1.5H15v-1.5h1.1v4.1H15V27h-1.1v1.7h-1.1v-4.1zM19.8 27.1h-1.7v.8H20l-.1.8H17v-4.1h2.9v.9h-1.8v.7h1.7v.9zM5.8 35.1l-.2.9H4.5l1.1-4.1h1.5L8.4 36H7.2l-.2-.9H5.8zm1-.9c-.2-.6-.3-1.2-.4-1.6-.1.5-.2 1-.4 1.6h.8zM8.8 33.9v-1.1h1.1v.6c.1-.3.4-.6.9-.6v1c-.7 0-.9.2-.9.8V36H8.8v-2.1zM11.1 32.8h.4V32h1.1v.8h.5v.8h-.5V35c0 .2 0 .3.3.3h.2v.7h-.7c-.7 0-.9-.3-.9-.9v-1.5h-.4v-.8zM13.5 35.9v-1.1h1v1.1h-1zM18.7 33.9c0 1.2-.6 2.2-2 2.2-1.3 0-1.9-1-1.9-2.2 0-1.1.6-2.1 2-2.1 1.3 0 1.9 1 1.9 2.1zm-2.7 0c0 .8.2 1.3.8 1.3.6 0 .8-.5.8-1.3 0-.7-.2-1.3-.8-1.3-.6 0-.8.5-.8 1.3zM20.1 32.8c.2.8.4 1.6.4 2.2.1-.6.2-1.2.5-2.2h1.1l-1 3.1h-1.2l-1-3.1h1.2zM22.5 33.9v-1.1h1.1v.6c.1-.3.4-.6.9-.6v1c-.7 0-.9.2-.9.8V36h-1.1v-2.1z"/><path fill="none" stroke="#010101" stroke-width=".5" stroke-miterlimit="10" d="M4.5 13.5h36"/><path fill="none" d="M18 13.5h22.5V36H18z"/><path fill="#010101" d="M40.3 19.5c0 1.2-.4 2.1-1.6 2.1-1.1 0-1.5-.9-1.5-2.1 0-1.2.5-2 1.6-2 1 0 1.5.8 1.5 2zm-2 0c0 .9.1 1.4.5 1.4s.4-.4.4-1.4c0-.9-.1-1.3-.4-1.3-.4.1-.5.4-.5 1.3zM37.1 26.8v.9h-1.6v-.9h1.6zM37.4 28.8c0-.8.3-1.4 1.1-2 .5-.4.6-.5.6-.8 0-.3-.1-.4-.4-.4-.3 0-.4.2-.4.6h-1c0-.6.3-1.4 1.5-1.4.9 0 1.4.5 1.4 1.2 0 .5-.2.8-.9 1.3-.4.2-.6.5-.7.7h1.7l-.1.8h-2.8zM35.7 32.9V34h1.1v.8h-1.1v1.1h-.8v-1.1h-1.1V34h1.1v-1.1h.8zM39 36v-.9h-1.7v-.8l1.3-2.3H40v2.3h.4l-.1.8H40v.9h-1zm0-2.3v-1c-.2.4-.6 1.1-.8 1.6h.8v-.6z"/><path fill="none" d="M-45 0H0v45h-45z"/><path fill="none" d="M-45 0H0v45h-45z"/></svg>