<svg version="1.2" baseProfile="tiny" xmlns="http://www.w3.org/2000/svg" viewBox="0 0 45 45" overflow="visible" xml:space="preserve"><path fill="none" d="M0 0h45v45H0z"/><path d="M29.7 23.8c-.2-.2-.3-.1-.4 0-.1.1-.2.1-.3 0-.1-.1-.1-.1 0-.2-.3 0-.5.2-.5.5 0 .2.2.2.3.2.7.2 1.5.5 2.3.5.4.1.9.2 1.3.2.1 0 .1 0 .2.1.3.2.7.2 1 .1.1-.1.3-.1.5-.1s.3 0 .3-.3c0-.2.1-.1.2-.1.2.1.3 0 .5 0-.2-.4-.2-.4-.5-.1-.1.1-.1 0-.2 0l-.1-.1c.3-.3.2-.7.3-1 .1.1.1.3.3.3.2 0 .2-.1.3-.2.1-.1.2-.1.3-.1-.2.4.1.4.3.4.2 0 .4-.1.5-.1.2 0 .3 0 .3.2 0 .3.2.4.4.6.1.1.2.1.1.2-.2.2-.1.3.1.4.1.1.2.1.2.2 0 0 .2.1.1.2s-.1 0-.2 0c-.5-.3-.5-.3-.7.2-.1.1-.2.2-.3.2-.3 0-.6.1-.9.2-.3.1-.6 0-.9 0-.3 0-.4.1-.2.4.1.1 0 .2-.1.2h-.5c.1.1.3.3.2.3-.1.1-.3.3-.5.2-.2-.1-.5.1-.7-.1h-.1c-.2.2-.4.1-.6 0-.2-.1-.3 0-.4.1-.1.1-.2.2-.3 0 0-.1-.2-.2-.3-.2-.7-.3-1.4-.3-2.2-.3-.2 0-.3 0-.4-.1-.1-.1-.2-.1-.3-.1-.6-.2-1.3-.3-1.9-.6-.3-.1-.4.2-.6.3-.1.1-.2.2-.4.2s-.4.1-.5.2c-.2.1-.5.1-.8 0-.4-.1-.8-.4-1.3-.2.2-.2.1-.4 0-.5-.1-.1-.3-.1-.4 0-.4.2-.8.2-1.2.4-.4.2-.7 0-.8-.4-.1-.3-.3-.4-.5-.5-.1-.1-.1-.2-.1-.3 0-.1.1-.2.2-.2s.3 0 .3-.2c0-.1 0-.3-.2-.2-.1 0-.3-.1-.4.2 0 .1-.1.1-.1.1l-.2-.2c0-.1 0-.1.1-.1.4-.1.2-.3 0-.4-.2-.2-.5-.3-.7-.1-.2.2-.2.4 0 .6 0 .1.1.1.1.2s-.1 0-.1 0c-.1 0-.2-.1-.2-.2 0-.2-.1-.2-.2-.3-.1-.1-.3-.3 0-.4.1-.1.1-.4.2-.6 0-.1.1-.2.2-.3.1-.1.2-.2 0-.3h-.1c-.3-.2-.3-.2-.4.2 0 .1-.1.1-.2.1-.2 0-.4-.1-.3-.3.1-.3-.1-.2-.2-.3-.1-.1-.2 0-.2-.2s.2 0 .2-.1c0 0 .1 0 .1-.1-.2 0-.3-.1-.3-.2-.1-.4-.5-.5-.8-.5h-.5c-.4-.1-.8-.1-1.2-.4-.1-.1-.4 0-.6 0 0-.2.1-.2.2-.2.2 0 .2-.1.2-.3 0-.1-.1-.1-.2-.1-.5 0-.8.3-1.3.3.3.2.6.1.9.1-.5.2-.8.7-1.1 1.1-.1.1-.1.1-.2.1-.3.1-.7.3-1 .3-.1 0-.2.1-.2.1-.1.2-.3.3-.4.5-.1.1-.2.2-.2.3 0 .1 0 .3.1.3s.3-.1.3-.3c0-.4.2-.5.5-.6l.9-.3c.1-.1.3-.1.3.1.1.1-.1.2-.2.2-.2.1-.3.2-.4.4-.1.2-.3.4-.4.6.3-.1.6-.1.8-.4.1-.1.2-.2.4-.3.1 0 .2 0 .2.1s0 .2-.1.3c-.6.2-1.1.6-1.4 1.2v.2c0 .3-.1.3-.3.2-.1-.1-.2-.1-.3 0-.1.1-.3 0-.4 0-.2-.1-.3-.2-.5 0 0 0-.1.1-.1 0-.1-.1 0-.2.1-.2.1-.1.2-.2.1-.3-.1-.1-.1-.2-.3-.2h-.3c-.2.1-.4 0-.6 0-.1 0-.1 0-.1-.1.1-.2-.2-.5-.4-.5s-.4 0-.4.3c0 .1-.3.3 0 .5.1 0 0 .1-.1.2-.2.1-.3.2-.2.4v.1c-.1 0-.1 0-.1-.1-.3-.4-.2-.7.2-.9.5-.4.7-1.1.5-1.7v-.1c.3-.2.4-.6.7-.7.3-.1.6-.4.9-.4.2 0 .3-.2.2-.4 0-.1 0-.2.1-.2h.4c.4.1.6 0 .8-.3 0-.1.1-.2.1-.2.1-.1.2-.2.2 0 0 .1.1.1.1.1.1 0 .1.1.1.2-.2.4 0 .6.4.5h.3c.1-.1-.1-.3 0-.4.1-.1.3-.1.4-.1.4-.1.8-.2 1.3 0 .1 0 .3-.1.4-.1.4-.1.6-.4.9-.6.1 0 .2-.1.2-.2 0-.2-.2-.1-.3-.1h-.1c-.1 0-.3 0-.3-.1s.1-.3.1-.4h.2c.1 0 .2.1.3.1.2 0 .3 0 .3.2s.1.2.3.2c.4 0 .8-.2 1.3-.2.4.1.8.1 1.2.3.1 0 .1.1.2.1.3.4.7.6 1.2.7-.2.1-.4.2-.4.4 0 .1-.1 0-.1-.1-.1-.3-.3-.2-.5-.2-.4.2-.6.4-.9.8 0 .1-.2.1-.2.2-.1.1-.3.1-.2.4.1.2.2.3.3.4.1.1.2.1.3.1.4.3.8.1 1-.4 0-.1 0-.2.1-.2.1-.2 0-.2-.2-.3-.1 0-.2 0-.2-.1s0-.3.2-.2c.1 0 .2 0 .3-.1 0-.1.1-.2.2-.1s.2.1.2.3c0 .2-.1.3-.2.4-.1.2-.1.5-.4.7-.2.1 0 .4.2.4.3.1.7.2 1 .2.6 0 1.1.2 1.6.3h.2c.3 0 .4 0 .2-.3-.1-.1 0-.3 0-.4 0-.4 0-.5-.4-.5-.1 0-.1-.1-.2-.2s0-.1.1-.2h.1c.1-.2.2-.4.4 0 0 .1.2 0 .3 0 .4-.1.5-.5.7-.8 0-.1 0-.1-.1-.2-.3-.2-1.2-.2-1.5 0 0 .1.1.1.1.1.1 0 .2.1.1.2s-.2 0-.2 0c-.1-.1-.3-.2-.5-.1-.1 0-.2.1-.1.2.1.3 0 .3-.3.3-.2 0-.4.2-.3.4 0 .1 0 .3-.1.4h.1c.1 0 .2.1.2.1 0 .1-.1.2-.2.3-.1.1-.2 0-.2-.1s-.1 0-.1 0c-.1.1-.2.1-.3 0-.1-.1 0-.2 0-.2s0-.1.1-.1c.3-.1.2-.5.3-.7v-.1c-.3-.4.2-.4.3-.6 0-.1.2 0 .2-.1s-.1-.1-.2-.2c-.3-.1-.5-.2-.8-.2 0-.1.1-.1.1-.1.3.2.8 0 1.1.2h.2c.4-.1.9-.2 1.3-.2.1 0 .2 0 .3.1.3.2.6.1.8-.1.3-.3.5-.5 1-.4.2 0 .5-.1.8.1 0 0 .3-.1.5-.2.3-.1.5-.2.8-.3.1 0 .2 0 .2-.2.1-.2.3-.1.4 0 .2.3.6.3.9.4.1 0 .3.1.4.2.4.4.9.4 1.4.3.1 0 .2-.1.3-.1.1 0 .2 0 .2-.2v-.1c.3-.3.4-.7.7-1 .1-.1.1-.3.2-.4.2-.2.4-.2.6-.2.2 0 .4-.1.5-.2.1-.1.6-.1.7 0 .2.2.2.3 0 .5-.3.4-.5 1-.9 1.4 0 .1.1.2-.1.3-.1.1-.2-.1-.3 0 .1.1.2.1.2.3 0 .1.2.1.2.1.3-.2.6 0 .9-.2.1-.1.2 0 .3 0 .1.1.1.3 0 .4-.1.2-.1.3 0 .5 0 .1 0 .3-.1.4-.2.2-.2.4-.3.6-.1.1.1.2.2.2.4.2.9.3 1.3.2 0 0 .1 0 .1.1.3.2.3.2.4-.1.1-.2.3-.1.5-.1.1 0 .2 0 .1.1 0 .1 0 .3-.2.3H36c-.1 0-.1.1-.1.1 0 .1.1.1.1.1.3.1.5.3.8.1.1-.1.2 0 .3.1.1.1.2.2.3.2.1 0 .2-.1.1-.3l.1-.1c.4 0 .7-.1 1-.4.1-.1.2-.2.3-.1.1.1 0 .2-.1.3-.2.1-.5.2-.6.4-.1.3-.4.3-.5.4-.2.1-.4 0-.5.1-.5.1-.9 0-1.4-.1-.1 0-.2-.1-.2-.2 0-.2-.1-.2-.2-.2-.3 0-.5-.1-.8 0-.2.1-.4 0-.4-.2-.1-.2-.2-.3-.5-.3-.2 0-.5 0-.7-.2-.2-.2-.3 0-.5.1-.7.2-.7.2-.7 1 0 .2.3.4.1.7 0 0 0 .1-.1.2s-.1.4-.3.3c-.1-.1.1-.2.1-.3 0-.1.1-.3-.1-.4-.1 0-.1-.1-.1-.1.3-.2 0-.5.2-.7.1-.1 0-.1-.1-.1s-.4.2-.4.3c0 .2-.3.4-.5.3-.1 0-.1 0-.2.1-.1.2-.2.3-.3.5 0 .2-.4.2-.6.3-.1 0-.1-.1 0-.1 0-.7.1-.8.2-.8zm-4.3-3.1c-.2-.3-.1-.6.2-.7.1-.1.1-.1 0-.2-.2-.1-1.1.1-1.3.3-.3.2-.3.6-.7.8-.1 0 0 .1-.1.2-.2.2.1.4 0 .6-.1.3-.3.5-.1.9.1.2.2.3.3.5.1.1 0 .1 0 .2-.1.1-.1 0-.2 0 0-.1-.1-.1-.1-.2-.1-.2-.3-.2-.4 0-.1.2.1.5.3.4.3 0 .7.1.9-.3.1-.1.1-.1.2-.1.3-.1.7-.2 1-.4-.1-.1-.2-.1-.3-.1-.1 0-.2 0-.2-.1s.1-.2.2-.2c.2 0 .2-.2.1-.3-.1-.2-.3-.4-.6-.3-.1 0-.2-.1-.1-.2.2-.1.1-.2 0-.3 0-.1-.1-.1-.1-.2.1-.1.1 0 .2 0s.1.1.1.1c.3.2.3.5.5.7.2.2.3.4.4.6.1.3.3.3.4.2.2-.1.3-.1.5-.1-.4-.3-.8-.6-1.1-.9.1-.1.2-.2.1-.4-.1-.3-.2-.4-.1-.5 0 0 .1.1.2.1.1.1.3.2.3.4-.1.2 0 .4.1.5.3.4.9.5 1.4.3.3-.1.4-.3.4-.6s-.2-.4-.4-.5c-.1 0-.2-.1-.1-.2.2-.1.1-.2 0-.2s-.1-.1 0-.2c.2.1.3.2.6.3l.1.1c-.1.2.3.4.1.6v.1c.1.1.7.1.7-.1.1-.3.3-.6.4-.8.1-.1.3-.3-.1-.4L29 20c0-.2-.1-.2-.2-.2-.2-.1-.5-.2-.7-.1-.1 0-.2 0-.1-.1.2-.2 0-.3-.1-.2-.4 0-.9.1-1.3.1-.1 0-.2.1-.2.2 0 .2.1.2.2.2.2.1.4.1.5.2 0 0 .1.1.1.2-.1.1-.1 0-.1 0-.1-.1-.2-.1-.4-.1-.5 0-.9.3-1.3.5zm-9 .5c.1-.1-.1-.2 0-.3h.1c.2.3.5.2.8.3.2.1.2.1.2-.1s.1-.4.4-.4c.1 0 .1-.1.2-.1.4-.1.6-.6 1-.6 0 0 .1 0 .1-.1-.1 0-.3.1-.3-.2 0-.4-.2-.5-.6-.4-.3 0-.6.1-.9-.1-.1-.1-.2-.1-.3 0-.1.1-.2.4-.4.1 0 0-.1 0-.1.1-.1.1-.2.2-.1.4-.1 0-.2-.1-.2-.1-.1-.2-.2-.2-.3-.1-.1.1-.4.1-.3.3 0 .2-.1.3-.2.3-.2.1-.2.3-.1.4 0 .1.1.2.2.3.2.1.5 0 .8.3zm-6.3.3c-.1-.1-.3-.1-.4-.1-.5-.1-.7 0-.7.5.1.1 0 .2 0 .3-.1.1-.2.3-.3.4-.1.2 0 .2.1.3 0 .1.1.1.2 0s.2-.1.3 0c.4.2.8 0 1.3 0 .1 0 .2-.1.1-.2-.3 0-.2-.3-.4-.4-.4-.3-.4-.5-.2-.8zm13.2 4.6c.2.1.3.2.4.1.2-.1.3-.1.5 0 .6.3 1 0 1.4-.3.1-.1.1-.2 0-.2-.5-.2-1-.4-1.6-.4-.3 0-.5.3-.9.3.2.1.5.2.2.5zm8.2-5.6c-.1-.1-.4-.1-.3-.3 0-.2.2-.2.4-.2.1 0 .2 0 .2-.1s-.1-.2-.2-.2h-.3c-.3.1-.5.4-.7.6-.1.1-.1.2-.2.2-.2-.1-.1-.2 0-.2.1-.1 0-.2-.1-.2s-.2 0-.2.1c-.1.2.1.2.1.4 0 .1.2.1.1.2s-.2.1-.3.1c-.1 0-.2-.1-.2-.2 0-.2-.1-.2-.2-.1-.3.2-.2.5-.4.7-.1.1.1.2.2.1.3-.1.6-.1.8-.2.2-.2.4-.2.7-.3.1-.2.4-.2.6-.4zM11 24.6c.1.1.2 0 .3 0 .4-.2.5-.3.3-.7v-.2c.1-.2.2-.4.4-.6.1-.1.1-.2-.1-.2s-.4 0-.4.2c-.1.3-.3.5-.6.6-.4.1-.5.3-.3.6 0 .2.3.2.4.3zm24.5-.4h-.3c-.1.1-.3.1-.3.3 0 .2.2.3.4.3.3 0 .7-.1 1-.1.1 0 .3-.1.3-.3 0-.1-.1-.2-.3-.2-.3.1-.5 0-.8 0zm.1 1.5c.2 0 .4-.1.7-.1.2-.1.3-.2.2-.4 0-.1-.5-.3-.6-.2-.2.2-.4.2-.6.3-.1 0-.1 0-.1.1s0 .1.1.2c.1 0 .2.1.3.1zm-25.3-2.2c-.2-.2-.6.1-.8-.2h-.1c-.3.2-.3.2 0 .4.1 0 .1.1.2.2.2.1.4.1.6.1.2 0 0-.2.1-.3-.1-.1 0-.1 0-.2zm23.9 2c.3.1.6.1.8.4 0 .1.2.1.3 0 .1-.1 0-.2-.1-.2s-.2 0-.3-.1c-.1 0-.1 0-.2-.1-.2-.2-.3-.2-.5 0zm-11.1-3.4c0-.2 0-.4-.1-.4-.2 0-.1.2-.3.3.1.1.1.3.3.4.1-.1.1-.2.1-.3zm5.2 1.5c0-.1 0-.2-.1-.2s-.4.1-.4.1c0 .2.2.4.3.4.3.1.1-.2.2-.3zm-.7.6c0-.2-.1-.2-.1-.3-.1-.1-.2-.1-.3 0-.1 0-.1.1-.1.1 0 .1.1.1.2.1.1-.1.2.1.3.1zm-16.2-3.7c.1 0 .2.1.3.1.1 0 .2-.1.2-.2s-.2-.1-.3-.1c-.1-.1-.1 0-.2.2zm20.5-.4c0 .1-.2-.1-.2.1 0 .1.1.2.2.2s.2-.1.2-.2c0-.2-.1-.1-.2-.1zm-6.1-.1c.1.1.3.2.4.1 0 0 .1-.1 0-.2s-.3 0-.4.1zm4.2 3c-.1 0-.1.4-.1.3.1 0 .2-.1.2-.2 0 0 0-.1-.1-.1zm-14.9-2.5c-.2-.1-.3-.1-.4 0v.1c.1.2.2 0 .4-.1-.1.1-.1.1 0 0z"/><path d="M9.9 25.6c.3.1.3-.2.4-.3.2-.2.4-.3.6-.1.2.1.3.2.6.1.1 0 .3.1.3.2.1.2-.1.2-.2.3.2 0 .3 0 .4-.1.2-.2.5-.5.7-.6.5-.3.8-.9 1.2-1.3.1-.1.2-.2.3-.4.1-.1.1-.1.2 0s0 .1 0 .2c0 .3-.3.4-.5.5-.2.1-.4.2-.5.4-.2.4-.3.8-.8 1-.2.1-.3.3-.4.5-.2.3-.5.5-.8.6-.1 0-.2.1-.3-.1-.1-.1.1-.1.2-.2 0-.1-.1-.1-.2 0-.3.2-.5.2-.8.3-.1 0-.3.1-.3-.2 0-.1-.1-.1-.1-.1-.1 0-.2.1-.2.2 0 .2.2.4.5.4s.7-.1 1 .1c.1.1.4.1.3.3 0 .1-.3 0-.4-.1-.3-.2-.7 0-1-.1-.3 0-.6-.4-.5-.7 0-.2-.1-.3-.1-.5s.2-.8.4-.8c.1 0 .1 0 .1.1.1.1 0 .2-.1.4zM13.8 18.1c-.1.1-.2.1-.2.2 0 .2-.1.2-.2.1-.5 0-.8.2-1.1.5-.1.1-.3.1-.2.3 0 0-.2.1-.2 0 0-.2-.2-.3.1-.5.2-.2.6-.3.8-.6.2-.2.6-.1 1 0zM15.1 24.4c.1.1 0 .2 0 .3-.2.2-.1.3.1.4.2 0 .3 0 .5.1.1 0 .1.1.1.1 0 .1-.1.1-.1.1-.2 0-.4 0-.5-.1-.2-.2-.4-.2-.6-.1-.2.1-.4.1-.6.2-.1 0-.1 0-.2-.1 0-.1.1-.1.1-.1.1-.3.4-.3.6-.4.2 0 .5-.1.6-.4zM35 21.7c0-.3.6-.8.9-.7.2.1.5-.1.7.2 0 .1.1.2 0 .2-.1.1-.1 0-.2-.1-.2-.3-.4-.1-.6-.1-.2 0-.1.2-.1.2-.1.2-.3.4-.5.5-.3.1-.1-.1-.2-.2zM7.6 25.4c.1-.2.1-.4.4-.4.2 0 .4.1.4.3 0 .3.3.5.5.6.1 0 .2 0 .1.1 0 .1-.2.1-.2 0-.1-.1-.3-.2-.4-.3-.2-.2-.4-.3-.7-.3-.1.1-.1.1-.1 0zM15.6 26.1c-.1.1-.2 0-.3.1v.1c.1.1.2.1.3 0 .1-.1.1 0 .1.1s.1.1.1.2c.1.1.2.2.1.3-.1.1-.3.1-.4 0-.1-.1-.1-.1-.3-.1-.2 0-.3-.3-.2-.6 0-.1 0-.3.2-.3.4-.1.4.1.4.2zM13.9 26.3c-.3 0-.5.2-.8.1-.1 0-.1.1-.1.2s0 .2-.2.2-.3 0-.4-.2c-.1-.1.1-.2.2-.3.3-.1.6-.3.9-.4.3.1.3.3.4.4zM17.8 23.8v.2c0 .1 0 .2-.1.2s-.1-.1-.1-.2c-.1-.2-.2-.3-.1-.5 0 0-.2-.2-.4-.3-.1-.2-.2-.2-.2-.2s-.1-.1 0-.2h.1c.2.1.4.1.6.4 0 .2.2.3.2.6z"/><path d="M14.2 22.9c-.2.3-.3.6-.7.7-.2 0-.2.3-.3.4-.2.1-.4.3-.5.4l-.1.1c-.1 0-.1.2-.2.1s0-.2.1-.3c.4-.3.7-.7 1.2-1 .2-.1.4-.3.5-.4zM16.2 22c-.3-.2-.6.1-.9 0-.2-.1-.2-.2-.3-.3l.1-.1c.4.2.7.1 1.1 0 .1 0 .3 0 .3.2s-.1.1-.3.2zM16.8 25.2c0-.2-.1-.3-.2-.3-.2-.1-.3-.1-.2-.3.1-.1 0-.3-.2-.3H16s-.1-.1 0-.1c.2-.1.3 0 .5 0 .1 0 .1 0 .1.1-.1.3.1.5.3.6.1.1.1.2.1.3 0 .1-.1.2-.2.1-.1 0-.1 0 0-.1zM15.2 18.6c-.3-.1-.5-.1-.8-.1-.1 0-.2-.1-.2-.2s.1-.2.2-.2c.3-.1.7.1.8.5zM16.4 26.3c.2 0 .4.1.7.1.1 0 .2.1.2.2v.2c-.1.1-.1 0-.2-.1-.1 0-.2-.1-.2-.1-.4.3-.4 0-.5-.3zM19.7 26.3c-.3.6-.7.7-1.3.7.1-.2.2-.2.4-.2.3 0 .4-.2.5-.4 0-.1.2-.1.4-.1zM13.7 22.1c-.1 0-.2-.1-.1-.1.2-.1 0-.4.3-.5.1 0 .2 0 .2.1 0 .3-.3.5-.4.5zM30.6 24.4c0-.1 0-.3.2-.4.1 0 .2 0 .3.1 0 .1-.1.1-.1.2l-.1.1c0 .1-.1.1-.2.1-.1.1-.1 0-.1-.1zM18.2 26.1c-.3-.1-.1-.5-.4-.5l.1-.1c.1 0 .2-.1.2.1.1.1.1.3.1.5zM30.7 23.5c-.3 0-.1.3-.3.5h-.2l-.1-.1c.2-.1.1-.3.3-.4.1 0 .1-.1.2 0 .1-.1.1 0 .1 0zM19.4 25.5c.2.1.3.3.3.5 0 .1 0 .1-.1.2-.1 0-.1 0-.1-.1-.1-.2 0-.4-.1-.6zM15.3 23.7c0 .2-.2.3-.4.4-.1 0-.1-.1-.1-.1.1-.1.1-.3.4-.4.1-.1.1 0 .1.1zM16.6 22.2c-.3.2-.5.2-.7.3-.1 0-.1 0-.1-.1v-.1c.2 0 .4-.1.8-.1zM16.9 27.6c.3-.1.6-.1.7-.3h.1v.1c-.2.1-.4.3-.8.2zM33.1 22.6c-.2.1-.4-.1-.6-.1-.1 0-.1-.1 0-.2s.1 0 .2 0c.1.2.3.2.4.3zM34.5 23.5s-.1 0 0 0c-.2-.2-.4-.3-.3-.5 0 0 0-.1.1-.1.1.2.1.4.2.6zM12.9 27.5c-.2.1-.5.2-.8 0h.8zM16.8 24c.3-.1.4.1.5.2v.1h-.1c-.2 0-.3-.1-.4-.3z"/><path fill="none" d="M4.5 4.5h36v12.1h-36z"/><path fill="#010101" d="M6.2 11.2v2.3H5.1V8h2.3c1 0 1.8.5 1.8 1.5 0 .8-.4 1.1-.9 1.3.5.2.7.6.7 1.3v.1c0 .5 0 1 .1 1.3H8c-.1-.2-.1-.6-.1-1.3v-.1c0-.6-.2-.9-1-.9h-.7zm0-.9H7c.5 0 1-.1 1-.8 0-.5-.4-.7-.8-.7h-1v1.5zM13.3 11.4c0 1.2-.6 2.2-2 2.2-1.5 0-2-1.1-2-2.2 0-1 .6-2.1 2-2.1 1.4-.1 2 .9 2 2.1zm-2.8 0c0 .9.3 1.4.9 1.4.6 0 .9-.5.9-1.4 0-.8-.3-1.3-.9-1.3-.6 0-.9.5-.9 1.3zM17 12.4c0 .3 0 .8.1 1.1h-1c0-.1-.1-.4-.1-.5-.2.3-.6.6-1.2.6-1 0-1.4-.6-1.4-1.3 0-.8.5-1.4 2-1.4h.5v-.3c0-.3-.1-.6-.6-.6s-.6.2-.6.6h-1.1c0-.7.4-1.3 1.7-1.3 1 0 1.7.3 1.7 1.4v1.7zm-1.1-.8h-.5c-.8 0-.9.3-.9.6s.2.5.6.5c.7.1.8-.4.8-1.1zM21.2 7.6v5.9h-1.1V13c-.2.4-.5.6-1.2.6-1.1 0-1.6-.9-1.6-2.2 0-1.3.7-2.2 1.8-2.2.6 0 .9.2 1 .4v-2h1.1zm-2.7 3.8c0 .8.3 1.3.9 1.3.7 0 .9-.5.9-1.3 0-.9-.2-1.3-.8-1.3-.7 0-1 .5-1 1.3zM21.9 7.6H23v2.2c.2-.3.5-.5 1.2-.5 1.1 0 1.6.9 1.6 2 0 1.3-.6 2.3-1.8 2.3-.6 0-.9-.3-1-.5v.4h-1.1V7.6zm2.8 3.7c0-.7-.3-1.2-.9-1.2-.7 0-.9.4-.9 1.2 0 .9.2 1.3.9 1.3.6.1.9-.4.9-1.3zM26.2 13.5V7.6h1.1v5.9h-1.1zM31.6 11.4c0 1.2-.6 2.2-2 2.2-1.5 0-2-1.1-2-2.2 0-1 .6-2.1 2-2.1 1.4-.1 2 .9 2 2.1zm-2.8 0c0 .9.3 1.4.9 1.4.6 0 .9-.5.9-1.4 0-.8-.3-1.3-.9-1.3-.6 0-.9.5-.9 1.3zM35.5 12.1c-.1.8-.7 1.5-1.8 1.5-1.3 0-1.9-.8-1.9-2.2 0-1.3.7-2.2 2-2.2 1.4 0 1.7 1 1.8 1.6h-1.1c0-.4-.2-.7-.7-.7-.6 0-.8.5-.8 1.3 0 1 .3 1.4.8 1.4s.6-.3.7-.7h1zM36.9 11.1c.3-.4.9-1.1 1.3-1.7h1.2c-.4.5-.9 1.1-1.4 1.6.5.8 1 1.7 1.5 2.6h-1.3c-.3-.5-.7-1.3-1-1.8l-.5.5v1.3h-1.1v-6h1.1v3.5z"/><g fill="#010101"><path d="m15.8 33.7 6.7 4.5 6.7-4.5zM18 31.5h9v2.2h-9z"/></g></svg>