<svg version="1.2" baseProfile="tiny" xmlns="http://www.w3.org/2000/svg" viewBox="0 0 45 45" overflow="visible" xml:space="preserve"><path fill="none" d="M45 45h45v45H45zM0-45h45V0H0z"/><path fill="#B4B4B4" d="m15.8 8.6-1.5-.5-2.4.8-1.2 1.1-.2 2.6v2l-1.4 3.1-.6 1.6.2 1.9-.4 3.2-.6 1.2-.7 1.9.6 3.9.1 1.5.7 2.1 1.3 1 1 .5 1.2-.1 1.4.1 1.7.7 1.6-.8 4.8.4 2.1.7h1.1l2.3-1.4-.7-.5 2.9 2.2.8-.7.6-.5.7-.6 1.3-2 2.1-2.8-.1-1.7.4-1.8 2-3.5.2-1.5.5-2.6-.9-3.1v-3.5L35 11.3l-2.7-2.6-2.4-1-2 .6-2.3-1.2-4 .3"/><path fill="none" d="M0 0h45v45H0z"/><path d="M15 8.9c.2-.1.4 0 .6-.1-.1-.2-.2-.3-.4-.2-.5.1-1.1-.2-1.6 0s-1.1.2-1.6.5c-.3.2-.4.5-.7.7-.3.2-.5.5-.5.8 0 .6-.3 1.1-.1 1.7.1.3.1.7.3 1 .1.2-.1.5-.1.7 0 .1-.1.1-.1.2.1.5-.2.8-.4 1.1h-.1c.2.4-.2.6-.3 1 0 .3-.2.6-.2.9-.1.5-.2 1-.2 1.6 0 .5 0 1 .4 1.4v.1c0 .1 0 .2.1.2s.2 0 .2-.1 0-.1.1-.2c.4-.2.2-.4.1-.7-.1-.3 0-.7 0-1v-.6c.4-.3.3-.7.3-1 0-.4.2-.8.3-1.2 0-.2.2-.4.2-.6 0-.1.1-.1.1-.1.1 0 .1.1.1.1 0 .1 0 .3.1.4 0 0 0 .1.1.1 0 0 .1 0 .1-.1 0-.3.3-.5.3-.8 0-.1.1-.3.2-.3.2-.1.4-.3.6-.4.3-.2.4-.5.6-.7.3-.3.2-.8.4-1.1.3-.5.6-1 1.2-1.3.3-.1.5-.3.9-.3.2 0 .2.1.3.2.1.2 0 .2-.1.2-.3.3-.6.4-1 .7-.1.1-.3.2-.3.4s-.1.2-.2.2c-.1.1-.4.3-.3.4.1.2.3-.1.4-.2.1-.1.2-.1.3-.1.2 0 .4-.1.5-.3 0-.1.1-.1.2-.1.6 0 .9-.4 1.3-.7.3-.3.5-.7.9-1 .1 0 .2-.2.2-.1.1.1.3.2.1.3-.1.1 0 .3-.1.5-.1 0 .2 0 .2.1.1.2.3.3.4 0 .2-.2.4-.3.6-.4.1 0 .2-.1.2 0 .1.1 0 .2-.1.3-.2.3-.6.4-.9.7-.2.1-.3.3-.3.4-.1.2-.3.2-.4.3h-.2c0-.1 0-.1.1-.1.2-.2.2-.3.2-.4.1-.1 0-.2-.1-.3-.2-.1-.3 0-.5 0-.2.1 0 .2-.1.3-.1.3.1.6-.2.8l-.1.1c-.1 0 0-.1 0-.2s-.1-.2 0-.3c.1-.2 0-.3-.2-.3-.1 0-.2 0-.1-.2 0-.1-.1-.1-.1-.1-.1 0-.2 0-.2.1-.1.3-.4.3-.6.5-.1.1-.3.2-.4.4 0 .1-.2.1-.3.1-.3 0-.6.2-.7.5-.1.2-.2 0-.3.1.1.1.2.2.4.3.5.3.8.8.7 1.4 0 .1 0 .3-.1.4-.1.1-.1.2-.2.1-.1 0-.2-.1-.2-.2v-.9c0-.2-.1-.2-.3-.3-.3 0-.7.2-.8.5-.1.3-.1.5-.5.3H13c-.2.3-.7.3-.7.7 0 .3-.3.5-.2.8 0 .1-.2.2-.3.2.2.1.3.2.2.5-.1.5-.4 1-.3 1.5 0 .1-.1.2-.1.3-.1.2-.1.3 0 .5.2.2.1.3.1.5-.1.2-.3.3-.2.6 0 .1-.1.1-.1.1-.1 0-.2 0-.2-.1s-.1-.2-.2-.2c-.2 0-.1.1-.1.2s-.2 0-.2.1c.1.2.2.5.3.7 0 .1 0 .5-.2.6-.1.1-.2.2-.1.3.1.1.2 0 .3-.1.1-.2.2-.3.5-.2.1 0 .2 0 .2-.1 0-.2 0-.5.1-.7 0-.1.1-.3.2-.4.2-.2.5-.5.5-.8.1-.5.3-.9.2-1.4-.1-.9.3-1.6.9-2.2.1-.2.3 0 .5-.1-.1-.2-.3-.3-.1-.5 0 0-.1-.1 0-.1s.1 0 .2.1c.2.3.8.3 1 0 .2-.2.4-.3.6-.1.1.1.1.3 0 .3l-.6.3c-.2.1-.3.3-.5.4-.1 0-.1.2 0 .2.2.1.4.1.6.2.2 0 .3.2.2.3 0 .2-.2.1-.3.1-.3 0-.6-.1-1-.1-.2 0-.4.1-.4.4 0 .5 0 1 .1 1.5 0 .3.2.3.4.1.2-.1.3-.3.5-.5.1 0 .1-.1.2-.1.1.1 0 .1 0 .2 0 .5-.4.8-.7 1-.1.1-.2.2-.2.3.1.1.2.1.3.1.1 0 .2-.1.3 0 0 .1.1.3 0 .4-.3.2-.3.6-.6.8-.3.2-.4.5-.6.7-.2.2-.4.2-.6 0-.1-.1-.2-.2-.3-.2-.2 0-.3 0-.3.2v.2c-.1.2-.1.3 0 .5.2.3-.1.4-.2.6l-.1.1c0 .3-.3.5-.3.8 0 .1-.2.3-.3.4-.1.2-.2.4-.1.6.1.1 0 .3 0 .4 0 .1-.2.1-.3.1-.1 0-.2-.1-.2-.2 0-.2.1-.5-.2-.7V25c.1-.2 0-.3-.1-.3-.2 0-.3.1-.4.3-.1.6-.1 1.2-.3 1.8 0 .1-.1.2 0 .3.1.2.1.3 0 .5-.1.1.1.3.1.4.1.3.1.6.2.8 0 .1 0 .2.1.3l.1.1c0 .1-.1.1-.2.1H10c-.7.6-1 .5-1 .7-.1.2 0 .4.1.6.2.3.3.6.6.7.1.1.3.1.4.2.1.1.3.1.4.2.1.1-.1.2 0 .4.1.1-.1.2-.2.2-.2 0-.4 0-.7-.1h-.1c-.1-.4-.5-.5-.7-.8 0-.1-.1-.1-.1-.1-.4-.3-.4-.4-.2-.8.1-.1-.1-.4.2-.5 0 0 0-.1-.1-.1h-.3c0-.4.1-.7.1-1.1 0-.3-.1-.7.1-1 .1-.1.1-.2.1-.3 0-.4.2-.7.3-1.1.1-.1-.1-.3.1-.4.1-.1.1-.3.2-.4.1-.3-.1-.2-.3-.2-.1 0-.1.1-.2.1-.1.1-.3.3-.4 0 0-.1-.3 0-.4.2-.2.3-.3.6-.3 1v.1c.1.3 0 .6 0 .8 0 .4 0 .9.1 1.3.1.3.1.7.2 1.1.1.3 0 .6.1.9 0 .2-.1.5 0 .7 0 0 0 .2-.1.2s-.1-.1-.1-.2c-.1-.4-.1-.9-.2-1.3-.1-.2 0-.6 0-.8-.1-.4-.1-.7-.1-1.1v-1.1c0-.4.1-.8.1-1.2 0-.3.2-.7.4-1 .3-.3.4-.7.4-1.1 0-.3.1-.6.2-.9 0-.3.3-.6.3-1 0-.2.1-.4 0-.7-.1-.3 0-.6 0-.9 0-.2-.2-.5-.4-.5h-.2c-.1 0-.2-.1-.2-.1 0-.1 0-.1.1-.2h.2c.1 0 .1.2.3.1.1-.1.1-.3 0-.4-.1-.4-.1-.7.1-1.1 0-.1.1-.2.2-.2-.1.1 0 0 0-.3 0-.2.1-.4.2-.5.3-.3.4-.8.8-1 .1-.1 0-.2.1-.4.3-.5.3-1.1.6-1.6.1-.1 0-.1-.1-.2h-.1c-.4.1-.9.1-1.2.4-.3.3-.5.7-.5 1.2 0 .4-.1.8 0 1.2 0 .1-.1.1-.1.1-.1 0-.2-.1-.1-.2.1-.3 0-.6 0-.9 0-.3.1-.7.2-1 .1-.3.4-.6.6-.8.3-.3.7-.4 1.1-.5.2 0 .2-.2.2-.3-.1-.5-.1-1-.1-1.4 0-.4 0-.8.1-1.3.1-.3.2-.6.3-.8.1-.4.3-.8.8-1 .2-.1.2-.3.4-.4.3-.1.6-.2.8-.3.1 0 .3-.1.3-.1.2-.3.5-.3.8-.3.5 0 1.1 0 1.6.1.4.1.8.2 1.2.5.1.1.3.2.5.3.1 0 .3-.1.4-.2.2-.2.4-.2.6-.2.6-.1 1.2-.3 1.8-.5.5-.2 1-.4 1.6-.3.5 0 .9.2 1.4.2.1 0 .2 0 .1.1 0 .1-.1.1-.2.1-.6 0-1.1.1-1.7.1-.4 0-.7.3-1.1.3-.4 0-.7.3-1.1.4-.1 0-.1.1-.2.1-.1.1-.2.2-.4.2-.3.1-.6.2-.8.5-.1.1-.2.2-.3.2-.1 0-.2 0-.3.2 0 .1-.1.1-.1.1-.1 0-.1-.1-.1-.2s.2-.2 0-.3c-.1-.1-.3-.2-.5-.3-.4-.1-.9-.3-1.3-.2H15zM9.7 20.7c-.1-.3-.1-.6-.1-.9 0-.1-.1-.1-.2-.1s-.1.1 0 .2c0 .2.1.3 0 .5s-.1.4-.1.5c.3.3 0 .2-.2.3-.1 0-.1.1-.1.1 0 .1 0 .1.1.1.3 0 .1.2.1.3 0 .1-.1 0-.1.1.1.5.1.9.1 1.4 0 .5-.2.9-.5 1.2 0 .1-.1.4 0 .4.2 0 .4.1.6.1.1 0 .1 0 .2-.1.4-.4.2-.9.2-1.3-.1-.4 0-.8.2-1.1.3-.4.1-.7 0-1.1-.1 0-.2-.3-.2-.6zm3 1.6c.1 0 .1 0 .2-.1.1-.3.3-.6.5-.9 0-.1.2-.1.1-.2s-.2-.3-.4-.2c-.1 0-.3.1-.4.1-.3.1-.4.4-.5.7-.1.2.1.2.3.3v.1c-.1.2.1.2.2.2zm-1.5 1.6c0-.1 0-.2-.1-.2-.2-.1-.4 0-.4.1-.2.3-.5.6-.5 1 0 .2.1.3.2.3.1.1.4-.1.3-.2 0-.2.2-.3.3-.4.1-.2.2-.4.2-.6zm1.4-3.7c.2 0 .3-.2.3-.3 0-.1-.1-.1-.1-.1-.2 0-.2.1-.2.4-.1 0-.1 0 0 0zm-1.3-2.5H11c-.1 0-.2.2-.1.3 0 .1.1.2.2.1.1 0 .1-.1.1-.2-.1-.1 0-.1.1-.2zM19.8 33.4c.2.3.6.4.9.5.3.2.6.2.9.4.1.1.2.1.3.1.1 0 .2.1.3 0 .1-.1 0-.2-.1-.3-.1-.1-.1-.1-.1-.2.1-.1.1 0 .2 0s.1.1.2.2c.1.4.4.4.7.4.3 0 .7.1 1 .4.3.3.7.2 1.1.2h.2c0 .2-.1.3-.2.3-.7.2-1.3.1-1.9-.2-.4-.2-.9-.3-1.3 0-.3.2-.6 0-.8 0-.2 0-.5-.1-.7-.1-.1 0-.2 0-.2-.1s.1-.1.2-.1.3.1.3-.1-.2-.1-.3-.1c-.2 0-.4-.1-.6-.1-.1 0-.1 0-.1.1s0 .1.1.1.2 0 .2.1-.1.1-.2.1c-.5 0-.9-.1-1.4-.1-.3 0-.7 0-1-.1-.6-.1-1.1-.2-1.6-.8.7.2 1.2.7 1.9.5-.1-.3-.4-.4-.5-.7-.1-.3-.5-.6-.5-1 0-.1-.1-.1-.2-.1-.3-.1-.7-.3-.9-.6-.3-.1-.5-.1-.7 0-.4.2-.7 0-1-.3-.2-.2-.5-.4-.6-.7-.1-.4-.4-.7-.3-1.1 0-.1-.1-.1-.1-.2s-.1-.2 0-.3c.1-.1 0-.3.1-.5v-.5c0-.1 0-.1.1-.1s.1.1.1.2v.4c0 .1 0 .1.1.1s.1-.1.1-.1c0-.3.3-.6.3-.9 0-.1.8-.3.9-.2-.5.3-.7.8-.7 1.3 0 .2-.1.5-.2.7 0 .1-.2.4 0 .5.2.1.4.1.5 0 .3-.2.7-.3 1.1-.3.5 0 1 .1 1.5.1.1 0 .3-.1.4-.1.1 0 .1 0 .2.1 0 .1 0 .1-.1.2 0 .1-.2.1-.1.3.1.1.2.1.4 0 .3-.1.3-.4.6-.5.2-.2.4-.2.6-.3.5-.1.9 0 1.4-.2.1 0 .2 0 .2.1s-.1.1-.2.1c-.3.1-.7.1-1 .2-.2 0-.4 0-.6.1-.3.1-.5.3-.5.6 0 .1-.1.1-.1.1-.3.2-.5.5-.5.8 0 .1 0 .1-.1.2-.1.3-.1.6.1.9h.1c.3-.1.6.1.8.4.1.2.3.2.4 0 .1-.2.3-.4.3-.7 0-.1.2-.2.2-.3.1-.2.2-.5.4-.5.2-.1.2-.3.3-.4.4-.5.8-.9 1.4-1.1.2-.1.4-.1.5-.3 0 0 .1-.1.2 0s0 .1 0 .2c-.2.2-.5.4-.8.4-.1 0-.2.1-.2.2s.1.1.2.1c.2 0 .3.1.5.2.5.1.9.1 1.4 0 .5 0 .6-.4.8-.7 0-.1 0-.1-.1-.2 0-.7 0-1.1.4-1.3.2-.1.4-.3.7-.3.3-.1.3-.2.1-.4 0 0-.1-.1-.1-.2s.1 0 .2 0c.5.1.5.1.7-.4 0-.1.1-.1.1-.1.1 0 .1 0 .1.1s.1.1 0 .2c-.2.2-.1.2.1.3.4.1.8.3 1.1.6.1.1.2.1.2 0 .1-.1.1-.2 0-.3-.2-.7-.2-1.4-.1-2.1 0 0 0-.1.1-.1h.1c.1.3-.1.5-.1.8v.2c.3.3.2.6.2.9 0 .4.2.8.2 1.2v.6c0 .1 0 .2.1.2.1.1.2-.1.2-.1.2-.2.2-.5.2-.7 0-.3.1-.6.2-1s0-.8-.1-1.2c0-.2-.2-.1-.3-.1-.1 0-.3.1-.4-.1 0-.2.2-.3.3-.3.1 0 .3-.3.3-.5 0-.1-.1-.1 0-.2.3-.3.2-.6.3-.9.2-.4.4-.7.7-1 0 0 .1-.1.2 0v.1c-.4.6-.7 1.2-.8 1.9 0 .1 0 .1.1.1.2.1.4.2.6.1.4-.1.8 0 1.1-.2h.1v.2c-.1.3-.3.4-.6.4s-.6.1-1 .2c-.3 0-.3.2-.4.5-.1.3.2.6 0 .9-.1.1.2.2 0 .4l.1.1c.1 0 .2-.1.2-.2 0-.4.1-.5.6-.6.1 0 .2 0 .2-.1 0-.2.2-.2.3-.2v-.1c0-.1-.2-.1-.1-.2s.2-.1.3-.1c.3 0 .4.2.4.4s.1.4 0 .6c-.1.3-.3.4-.6.5-.1 0-.2 0-.3.1.1.1.2.1.3 0 .1 0 .2-.1.3.1.1.1.1.2 0 .3-.1.1-.1.1-.1.2 0 .2-.2.1-.3.1-.1 0-.2 0-.2.1-.1.2.1.2.1.2.1 0 .2.1.3.2-.3.2-.5.4-.5.7 0 .3-.1.6 0 .9.2.5-.3.8-.5 1.1-.3.5-.8.8-1.4 1-.3.1-.6.1-1 0h-.3c-.2.1-.4.2-.6-.1-.1-.1-.2-.1-.3 0-.2.1-.3.1-.4.4-.1.5-.8.5-1.1.1-.1-.1 0-.1.1-.2.3-.3.2-.3-.1-.5-.1 0-.2-.1-.2-.1-.2-.1-.3-.1-.4.1-.2.3-.5.5-.9.5-.1 0-.2 0-.2-.2 0-.1.1-.1.2-.2.4-.3.9-.5 1.3-.8.1-.1.2-.1.3 0 0 .3.3.3.5.4.2.1.3-.1.3-.3-.1-.2-.1-.4 0-.7 0-.1 0-.1.1-.1s.1.1.1.1c0 .3.2.5.1.8 0 .1 0 .1.1.1h.2c.1-.1 0-.1 0-.1-.1-.1 0-.1 0-.2.1-.2.1-.4 0-.6v-.2c0-.1.1-.1.2-.1s.1.1.1.2-.1.3 0 .4v.1c-.2.1 0 .3-.1.5 0 .1.1.2.3.2.1 0 .3 0 .4-.2.1-.3-.1-.6-.1-.9 0-.2-.1-.4 0-.6.1-.1.2-.1.2 0 .1.2.2.3.2.6 0 .2 0 .4.1.5.1.1.1.2 0 .2 0 .2.1.3.3.3.3 0 .6-.1.6-.5.1-.4.2-.9.1-1.3 0-.1.1-.2.1-.4 0 0 .1-.1.2-.1s.1.1.1.1c-.2.4 0 .9-.1 1.4-.1.3.2.4.5.3.5-.1.8-.5.9-1 .1-.4.1-.4-.1-.7-.1-.1-.2-.2-.1-.3.1-.2.2-.1.3-.1.1 0 .2 0 .2-.1s0-.2-.1-.2c-.3-.2-.4-.4-.2-.8.1-.1-.2-.3 0-.5l-.2-.2c-.1 0-.2.1-.2.2 0 .3-.3.6-.3.9 0 .1-.2.1-.2.1-.2-.2-.3-.1-.5-.1-.1 0-.2-.1-.3-.2 0-.3-.2-.6-.2-.8-.1-.5-.5-.5-.8-.7-.4-.2-.8-.1-1.1.1-.4.2-.8.3-1.1.7-.1.1-.2.1-.1.3.1.1.2.1.3.1.1 0 .2-.1.2-.1.2-.1.3 0 .2.2-.1.2 0 .2.1.3.2.2.3.5.4.8v.1c0 .1.2.3 0 .3s-.2-.1-.2-.3c0 0-.1-.3-.3-.3-.2 0-.1.2-.1.3 0 .2 0 .3-.1.5 0 .1-.1.1-.2.1s-.1-.1-.1-.2c.2-.2 0-.4.2-.6v-.1h-.3c-.1.1-.3.2-.4.3-.2.2-.5.2-.8.3-.1 0-.2 0-.3.1-.1 0-.1.1-.1.2.1.3.4.6.6.9 0 .1.2.1.1.2s-.2.1-.3 0c-.2-.2-.4-.4-.5-.7-.2-.5-.7-.9-1.2-.8h-.2c-.4 0-.5.1-.4.4 0 .5.2 1 .4 1.4.1.3.3.5.5.8.1.1.1.1 0 .2s-.2 0-.2 0c-.2-.2-.3-.4-.5-.6-.2-.2-.3-.4-.4-.6 0-.1-.1-.2-.2-.1-.1 0-.1.1-.1.2 0 .2.1.4-.2.3-.4.6-.6.7-.8.7zM16 30.5c-.5.1-1 .1-1.4.2-.1 0-.3.1-.3.2 0 .2.2.2.4.2.3 0 .6-.1.9-.1.1 0 .2 0 .3-.2.1-.2.1-.1.2 0 .1.2.1.4.1.6 0 .2 0 .5.3.6.1 0 .2.1.2.2.1.2.3.2.4.1.1-.1.2-.3.2-.5-.1-.3.1-.5.3-.7.1-.1 0-.2.1-.3-.2 0-.4-.2-.6-.2-.4 0-.8 0-1.1-.1zm1.7 3.6c-.1-.7-.3-.9-.8-.8.3.2.4.7.8.8zm1-.7c.2 0 .4.3.8.3-.3-.2-.5-.4-.8-.3zm-.5.4c.1.1.2.2.3.2h.1v-.1s-.1-.2-.4-.1z"/><path d="M10.6 36c-.1-.3-.3-.4-.5-.7-.1-.1-.2-.1-.2-.2-.3-.5-.7-1-.9-1.5-.2-.4-.3-.8-.4-1.3 0-.1 0-.1.1-.2.1 0 .1.1.1.1.1.3.3.4.4.7 0 .1.1.3.3.4.1 0 .1.1.1.2v.1c.3.1.3.3.5.5.2.3.4.7.7 1 .1.1.2.3.2.4 0 .2.1.2.3.2.4-.1.8 0 1.2 0 .1 0 .2 0 .2-.2.1-.3.2-.6.4-.9.1-.2.2-.5.3-.7 0-.1-.1-.2-.2-.3l-.9-.9c-.2-.3-.3-.5-.7-.5-.2 0-.2-.1-.3-.3 0-.2 0-.3.2-.3s.1-.2.1-.3c-.2-.4-.4-.8-.5-1.2 0-.2-.2-.4-.3-.5-.2-.3-.4-.6-.5-.9-.1-.2-.1-.4-.1-.6 0-.2 0-.3-.1-.5 0 0-.1-.2 0-.2s.1 0 .2.1c.2.2.3.5.5.8.1.1 0 .2-.1.2-.2 0-.2.1-.1.2.1.3.3.5.6.4.2 0 .3.1.4.2 0 .1 0 .1.1.1.2.1.1.4.3.6.1.1 0 .1-.1.2-.1 0-.3 0-.2.1.1.2-.1.4.3.5.3.1.7.1.9.3.1 0 .1.1.2.1.2.1.1.4 0 .5l-.1.1c-.6.3-.6.4-.2.9.3.3.6.5 1 .7.2.1.1.4.2.5v.2c.1.1 0 .1-.1.1-.3 0-.6.2-.6.4 0 .3-.2.6-.3.9 0 .1 0 .2.1.3.2.2.5.3.7.4.3.2.7.3 1.1.5.3.2.7.1 1-.2.4-.3.9-.6 1.4-.8.4-.1.7-.2 1.1-.2.4.1.7 0 1.1 0 .2 0 .4-.2.6-.2.2 0 .3-.1.4.1.1.1.3.1.5.2.5.1 1 .4 1.5.5.6.2 1.2.2 1.7 0 .2-.1.4-.3.6-.4.4-.1.6-.4 1-.5.2-.1.1-.2 0-.3-.2-.2-.2-.3.1-.4.2 0 .3-.1.4-.2.3-.2.7-.3 1-.4.1 0 .2 0 .2.1s.1.2 0 .3c0 0-.1 0-.1.1s.1.1.1.1c.3 0 .7 0 1-.2.1 0 .2-.1.1-.2s-.1-.3.1-.3c.3-.1.6-.4.8-.6.1-.1.2-.1.3-.1.1 0 .3-.1.2-.3-.1-.2.1-.3.2-.4.1-.2.3-.4 0-.6.1-.1-.1-.2 0-.3.1-.2.1-.4.2-.6.1-.2.2-.2.3 0 .1.2.2.3.2.6-.1.4-.2.8-.4 1.2v.2c0 .1.1.1 0 .2-.2.2-.2.4-.3.6-.1.1-.2.3-.4.3 0 0-.1 0-.1.1-.1.3-.3.3-.5.4-.2.1-.4.2-.5.3-.1.1-.2.1-.3.2h-.5c-.6-.2-1 .1-1.2.6.3.1.6.2.9.2v.1c-.6.1-.9.5-1.4.8-.2.1-.3.3-.5.5-.6.5-1.3.7-2 .5-.4-.1-.7-.3-1.1-.4-.3-.1-.6-.2-1-.2s-.9-.1-1.3-.2h-.1c-.8.1-1.4-.3-2.2-.4-.6 0-1.3-.1-1.9.3-.2.1-.3.3-.5.4-.3.2-.5.3-.8.2-.5-.1-.9-.2-1.3-.5-.3-.2-.5-.4-.8-.5-.2-.1-.5-.1-.6.1-.2.2-.5.2-.8.2-.3 0-.5 0-.6.3-.1.2-.3.3-.5.4-.2.1-.3-.1-.4-.1-.1 0-.1-.1-.1-.2.1-.1.3-.1.4-.1.2.1.3-.1.4-.3 0-.1.1-.2-.1-.3-.5-.2-.9-.4-1.2-.8-.3-.3-.8-.4-.9-.9 0-.2-.2-.2-.3-.4-.2-.6-.5-1.2-.3-1.9 0-.1 0-.2.1-.2s.1.1.1.2c0 .3.2.5.3.8.1.4.3.7.6 1 .2.3.3.8.8.8.1 0 .1.1.1.1.1.4.7.8.9.9-.1 0-.1.1 0 .2.2.2.9.3 1.2.2-.4 0-.7-.2-1-.4-.1 0-.2-.1-.2 0zm15.6.5c-.1-.1-.2-.1-.3-.1-.5.1-.9.3-1.3.5-.3.2-.5.2-.8.3 0 0-.1 0-.1.1s.1.1.1.1h.3c.5-.1 1-.1 1.4-.5.2-.2.4-.3.7-.4zm-6.9-.1c.3.1.6.1.9 0-.3-.1-.5-.1-.9 0zM22.3 9.9c-.4-.1-.7.1-.9.3-.3.1-.5.3-.7.6-.1.2-.3.1-.4 0-.2-.1.1-.1.1-.2.1-.2.3-.3.5-.5s.1-.4 0-.6c0-.1-.1-.1-.1-.2s.1-.1.2-.1.1.1.1.2c.1.3.2.3.5.2.4-.1.9-.2 1.4-.1h.5c.2 0 .2-.2.2-.3 0-.1-.2-.1-.2-.1-.5 0-1-.1-1.5-.2-.1 0-.2 0-.2-.1s0-.1.1-.2c.3-.2.7-.2 1.1-.2h.5c.2 0 .4.1.5.3-.1.2.1.3 0 .4 0 .1.2.1.3.1.1 0 .4.1.4-.1 0-.1.1-.1.2-.1.3 0 .6-.1.8-.3.2-.2.5-.1.8 0 .1 0 .1.1.2.1s.1-.1.1-.1c0-.1-.1-.1-.1-.1h-.6c-.3 0-.5-.1-.7-.3.1-.1.2-.1.4-.1.4 0 .8 0 1.2.2.1 0 .2.1.3.1h.2c0-.1-.1-.1-.2-.1-.2 0-.2-.2-.4-.3-.5-.3-1.1-.5-1.6-.6h-.1c-.2.3-.6.3-.7.6-.1.1-.2.1-.3 0-.1-.1 0-.2 0-.2.3-.4.6-.6 1.1-.7.3 0 .7.1 1 .2.6.2 1.1.5 1.6 1 .1.1.4.1.5 0-.1-.4 0-.5.1-.4.1.1 0 .2-.1.2l-.1.1c0 .1.1.1.1.1h.5c.2 0 .3 0 .3.2s-.2.1-.3.1c-.1 0-.2 0-.2.1.1.1.3.2.3.1.6-.2.8.2 1.2.6.2.2.4.3.5.4v.1c-.5-.2-.9 0-1.4 0h-.2c-.2.2-.5.2-.8.3-.1 0-.3.1-.2.3.1.2 0 .5.1.6.2.2.5.4.8.4.3 0 .5.2.7.3.1 0 .2.2.1.3-.1.1-.2.3-.3.3-.2.1-.3.2-.4.4 0 .2-.2.2-.3.1h-.5c-.1 0-.2 0-.2-.1s.1-.2.2-.2c.4 0 .5-.3.9-.4.2 0 .1-.2 0-.3-.3-.2-.6-.2-.9-.2-.1 0-.2 0-.3-.1-.1-.2-.7-.2-.7 0s-.1.4-.1.6c0 .2-.1.2-.3.2-.1-.1-.2-.1 0-.2s.2-.4.2-.5c-.1-.2-.2-.5-.6-.5-.2 0-.4.1-.6 0h-.1c-.2.3-.5.3-.9.5.6.2 1.2.3 1.8.5 0 .1 0 .1-.1.1-.5-.1-.9 0-1.4-.1-.5-.1-1-.1-1.6-.3-.2-.1-.5.1-.7.2-.4.1-.8.2-1.2.4-.2.1-.3.3-.5.3-.1 0-.2 0-.2-.1s0-.1.1-.2.2-.1.3-.2v-.1c-.4.1-.8-.1-1.2-.1-.1 0-.2.1-.2.2.1.2 0 .4.1.5.2.2 0 .5-.1.6l-.4.4c-.4.5-.9.7-1.5.6-.3 0-.6-.1-.7.2-.1.3-.4.5-.6.8-.1.2-.3.4-.7.2.2-.1.3-.2.3-.3.1-.2.3-.3.5-.5l.2-.2c.1-.4.5-.7.8-1 .1-.1.3-.2.3-.3.1-.2.2-.3.4-.4.4-.3.7-.6 1-.9.1-.1.3-.3.5-.3.3-.1.6-.2.7-.4.1-.1.2 0 .4-.1.3-.1.6-.2 1-.2.6-.1 1.2-.1 1.7.5.2.2.7.1.9-.1.1-.1.2-.1.3-.1.4-.1.8-.1 1.2-.2.2 0 .4-.2.7-.2-.2 0-.5-.4-.5-.6-.1-.5-.5-.8-1-.7.2.2.3.4.3.6.1.2 0 .4 0 .5 0 .1 0 .1-.1.1s-.1-.1-.1-.1c.1-.3-.1-.5-.2-.7 0-.1-.3-.2-.4-.2-.4-.1-.8 0-1.2.2-.2.1-.1.2 0 .4.1.1.2.2.1.3-.1.1-.2 0-.3-.1-.3-.4-.5-.4-.9-.2s-.8.3-1.2.3c-.1 0-.2 0-.2-.1s.1-.1.1-.1c.4-.4.7-.5.9-.7zm4.3-.6c.7.5 1.2.5 1.5 0-.5-.2-1-.3-1.5 0zm-7.9 4.9c.3 0 .5-.2.6-.6 0-.1.1-.2-.1-.2-.1 0-.2 0-.2.1-.1.1-.2.3-.4.3-.1 0-.3 0-.3.2.1.1.3.2.4.2zm8.9-3.4c-.1 0-.3 0-.3.2s.2.2.4.2c.1 0 .2-.1.2-.2 0-.2-.1-.2-.3-.2zm.2-.9c-.2 0-.2 0-.8.5.4-.1.6-.3.8-.5z"/><path d="M34 15c.1.4 0 .7 0 1 0 .3-.2.5-.2.7 0 .5-.1 1 .1 1.6.1.3.2.6.3.8.1.1-.1.2 0 .4l.3 1.2c.1.3 0 .6 0 .9 0 0-.1.1 0 .1.2.1.1.2-.1.3-.1.1-.1.2-.1.3 0 .1.1.1.2.1s.1-.1.1-.1c0-.1 0-.1.1-.1s.1.1 0 .1c-.2.4-.3.9-.5 1.3-.2.2-.5.4-.5.7 0 0-.1.1-.2.1-.3.1-.4.3-.5.6 0 .1-.1.1-.1.1-.1 0-.1-.1-.1-.1 0-.1 0-.2.1-.3.1-.2.2-.3.3-.6V24c.4-.3.3-.8.4-1.3 0-.3.1-.6.1-1 0-.2-.2-.3-.1-.6.2-.5 0-.9-.2-1.3 0-.1-.1-.1 0-.2.1 0 .1-.1.1-.1 0-.1-.1-.2.1-.3.1 0 0-.1 0-.2s-.1-.1-.1-.2c.1-.4-.1-.7 0-1 0-.3.1-.5 0-.8 0-.2 0-.4-.2-.5-.1 0-.1-.1-.1-.1 0-.2-.2-.3-.3-.3-.1 0-.2.1-.1.2 0 .1.1.2.1.2.2.3 0 .6 0 .8 0 .2.2.4 0 .6 0 .1-.1.2-.2.2s-.2-.1-.2-.2c0-.4-.2-.7-.5-1-.1-.1 0-.1 0-.2s0-.3-.1-.4c-.2-.1-.2-.4-.4-.5-.3-.2-.3-.6-.6-.8-.1 0-.1-.2 0-.2.1-.1.1 0 .2.1l.3.3c.3.4.3.4.8.2.1-.1.1-.1 0-.1s0-.1 0-.2c.1-.6 0-1.1-.4-1.6-.3-.4-.8-.5-1.3-.6-.1 0-.2 0-.1.1v.2c0 .1 0 .1-.1.1s-.1 0-.2-.1c-.1-.2-.1-.4-.2-.6 0-.1 0-.1-.1-.1-.1-.1-.1-.1 0-.2s.1-.2.2-.3c.1-.1 0-.4-.2-.5-.1 0-.4 0-.4-.1 0-.2.1-.3.3-.4.1-.1.1-.3.2-.3.2 0 .4 0 .5.1.3.2.6.2.9.3.1 0 .3.1.4-.2 0-.1.2-.1.2 0 .1.1.1.2.1.3 0 .1.1.1.2.1.1-.1 0-.1 0-.1v-.1c.1-.1.2-.1.2 0 .2.2.4.2.7.2.2 0 .3.3.3.4 0 .1.1.2.2.2.5.3.7.6.5 1.2 0 .1-.1.3 0 .4.1.1 0 .1 0 .2-.1 0-.1.1-.1.1-.1 0-.1-.1-.1-.2 0-.3-.2-.5-.3-.7-.1-.1-.1-.2-.2-.3-.1-.2-.2-.3-.4-.2-.2.1.1.2 0 .3 0 .1.1.1.1.2.1.1.2.1.1.2s-.2 0-.2 0c-.1 0-.7.6-.7.7.1.3.2.7.3 1v.5c0 .2.1.2.2.3.3.1.5 0 .6-.3.4 0 .6-.2.6-.3zm-1.5-1.9c.1 0 .4.1.3-.3v-.1c.1-.1 0-.2 0-.4 0-.1-.2-.2-.2-.3-.1-.2-.4-.4-.6-.3-.2.1-.3.2-.2-.1 0-.1-.1-.1-.1-.1-.2-.2-.5-.1-.8-.2-.1-.1-.3-.1-.4 0-.1.1-.1.4-.1.5 0 .3.9.5 1.1.4l.1-.1c0-.1.1-.2.2-.2.1.1 0 .2 0 .3 0 .1-.1.1-.1.2-.1.1-.1.2 0 .3.2.2.4.5.8.4zm1.4 10.3c.2-.1.3-.3.4-.4.1-.1.1-.2 0-.2s-.2-.1-.3.1c-.1.1-.1.3-.2.4 0-.1 0 0 .1.1z"/><path d="M36.9 13.8c0 .2.2.4.1.6 0 .2 0 .5-.1.7.2.2 0 .3 0 .5 0 .1-.1.2-.2.2s-.1-.1-.1-.2c0-.5-.1-.9-.3-1.3-.2-.5-.5-.9-.5-1.5 0-.1-.1-.3-.2-.4-.2-.2-.4-.5-.7-.7-.2-.1-.3-.3-.4-.4-.3-.3-.7-.4-1-.6-.3-.2-.6-.3-.9-.6-.1-.1-.2-.1-.4-.2-.6-.3-1.2-.7-1.8-.9 0 0-.1 0-.1-.1 0-.2-.1-.3-.3-.3-.1 0-.2-.2 0-.3.1-.1.2-.1.3-.2.1-.2.1-.4.4-.3.2.1.4-.1.6.1.4.3.9.5 1.2.9.2.2.4.3.5.6.1.2.3.3.5.4.3.1.6.2.7.5 0 .1.1.1.1.1.4.2.7.5 1 .7.2.1.3.2.4.5v.1c.5.2.5.7.7 1 .3.3.6.7.5 1.1zm-4.2-4.7c-.1 0-.2 0-.3-.1-.3-.2-.5-.4-.7-.6-.4-.3-.7-.1-1-.1-.1 0-.2.1 0 .3.4.4 1 .4 1.6.5.1.1.2.1.4 0zM32.7 30.7c-.1-.2 0-.3.1-.4 0-.1 0-.1.1-.2s0-.2 0-.2c-.3.1 0-.9-.6-.4-.1.1 0 .2-.1.3-.2.2.1.2.1.3.1.2 0 .4-.1.5-.2.3-.3.4-.4.8 0 .1-.1.1-.2.1s-.1 0-.1-.1c-.1-.4-.3-.8-.4-1.2 0-.4 0-.8.3-1.1.1-.1.1-.2.1-.3 0-.2 0-.3.2-.4.1-.2 0-.4.2-.6.1-.2 0-.4 0-.6v-1.1c0-.1-.1-.2 0-.3 0-.1 0-.1.1-.2.1 0 .1 0 .2.1 0 .1 0 .2.1.1.1 0 .1-.1.2-.2 0-.1.1-.2.2-.1.1 0 .1.1.1.2-.1.2-.1.5-.3.7 0 0-.1.1 0 .1.3.3-.1.7.1 1.1 0 .1 0 .2.1.3.2.1.2-.2.3-.2.2-.1 0-.1 0-.2-.1-.2.1-.3.1-.4.1-.3.1-.6.2-.8v-.1c.3-.3.3-.9.7-1.2.1-.1.1-.2.1-.3 0-.1.1-.1.2 0s0 .1-.1.1c-.2.2-.2.5-.2.8-.1.4-.2.8-.2 1.2 0 .2-.2.3-.3.5-.1.1-.1.3-.1.4-.1.3.2.7-.3.9-.1 0-.2.6-.1.7.1.1.2.1.3.1.2 0 .2.2.2.3-.4.4-.6.6-.8 1zm-1.1-1.4s-.2 0-.1.1c0 .1.1.1.2.1s.1 0 .1-.1-.1-.1-.2-.1zM12.2 28.4c-.2 0-.5.1-.6-.2V28l.4-1c.1-.3-.2-.4-.3-.5 0-.1-.1-.2-.1-.3 0-.1-.1-.2.1-.2.1 0 .2 0 .2.1v.2c0 .1.1.1.1.1.1 0 .1-.1.1-.1.1-.4.2-.4.6-.4.3 0 .6-.3.4-.6-.1-.2.2-.3 0-.4.2-.3-.1-.3-.2-.3 0 0-.1 0-.2-.1.3-.1.4-.3.7-.4.3-.2.5-.6.8-.8.4-.4 1.2-.5 1.7-.1.1 0 .1.1.1.2-.1.1-.2.1-.2 0-.5-.5-.8-.4-1.2-.4-.2 0-.3.1-.4.3-.3.3-.5.6-.8.9-.1.1-.1.2-.1.2.1.1.2.1.3 0 .4-.1.7-.3 1-.5.2-.1.3-.2.5-.3.1 0 .1-.1.2 0 0 .1 0 .1-.1.2-.5.4-.9.8-1.5 1-.2.1-.1.2-.2.3-.1.1.1.1.2.2.2.1.2.3.1.5v.2c-.2.4-.1.9-.2 1.3 0 .1-.1.2-.2.2s-.1-.1-.1-.2.1-.3.1-.4c0-.1.1-.2 0-.2s-.2 0-.2.1c-.2.4-.5.6-.7 1.1-.1.4-.1.9 0 1.3 0 .2.1.5.2.7 0 .1.1.2-.1.2-.1 0-.1-.1-.1-.2-.1-.3-.2-.5-.2-.8-.2-.4-.2-.6-.1-.7zM16.9 17c.5.1.9-.2 1.1-.5.2-.2.4-.4.3-.7l.2-.2c.1 0 .1-.1.1-.1-.1-.2.1-.3.2-.4.1-.1.2-.1.3 0 .1.1.1.1 0 .2-.2.1 0 .2-.1.3-.2.3-.4.7-.6 1.1-.1.1-.1.4-.3.5-.1 0-.1.1-.2.1s-.2 0-.1.2c0 .1 0 .1-.1.1-.4.1-.8.4-1.3.4-.3 0-.3.3-.3.4-.1.1.1.2.2.2.3.2.5.4.7.6.1.2.3.3.5.4.1 0 .2 0 .2.1s-.1.1-.2.1c-.3-.1-.6 0-.7-.4-.1-.2-.3-.2-.5-.2-.1 0-.3.1-.2.3 0 .1-.1.1-.1.1-.3 0-.3.3-.4.5 0 .1-.1.2-.2.2-.2-.1 0-.2 0-.2 0-.2.2-.3.1-.5v-.2c.3-.2.2-.7.4-.9.1-.1.1-.2.1-.3 0-.5.3-.9.5-1.3.1-.2.2-.3.3-.6.1-.3.3-.1.5-.1.1 0 .3.2.1.3-.4.2-.3.4-.5.5zM36.4 18.7c-.1-.2 0-.5-.2-.7-.3-.3-.4-.6-.1-.9V17c.1-.2 0-.4.3-.4.2 0 .3-.1.3-.4 0-.1-.1-.1 0-.1s.1.1.1.1c.1.5.1.9.2 1.4.1.3.2.4.4.6.1.2.3.3.2.6 0 .1 0 0 .1 0 .2.1.3.3.2.6-.1.4 0 .8-.1 1.1 0 .2.1.5-.1.7 0 0 .1.3 0 .4 0 .1 0 .2-.1.2s-.1-.2-.1-.2c0-.3-.1-.3-.4-.3-.1 0-.2 0-.1-.1.1-.2.1-.4 0-.6 0-.1 0-.3.1-.4.1-.1 0-.2 0-.3-.1-.2-.1-.5 0-.7.1-.2 0-.4-.1-.6 0 0 0-.2-.1-.2s-.1.1-.2.2c-.2-.1-.2 0-.3.1zM16.5 10.3c-.2 0-.4-.1-.6-.2-.2-.1-.3-.2-.6 0-.4.4-.8.7-1.3 1-.1 0-.1.1-.2.2-.3.3-.4.7-.7.9-.2.1-.2.3-.3.5 0 .3-.2.5-.1.7 0 .1-.1.3-.3.2-.1 0-.2-.1 0-.3.1-.1-.1-.1-.1-.1-.1 0-.2-.1-.1-.2.2-.2.2-.5.4-.7.3-.2.4-.5.5-.9 0-.1.1-.2.2-.2.2-.2.5-.3.7-.5.1 0 .2-.1.1-.2s-.1 0-.2 0l-.3.3c0 .1 0 .1-.1.2-.1 0-.1.1-.2 0s0-.1 0-.2c.1-.3.3-.5.6-.5.1 0 .1-.1.2-.1.4-.3.8-.4 1.3-.4h.1c.6-.3 1 .2 1.5.3.1 0 .1 0 .1.1s0 .1-.1.2c-.3-.1-.4-.1-.5-.1zM23.7 14.3c.3 0 .4.2.7.2.6-.1 1 .3 1.4.5.1 0 .2.1.1.2s-.2.1-.3 0c-.2-.1-.3-.2-.5-.3-.4-.2-.6 0-.6.4 0 .3-.3.6-.3.9l-.1.1c-.1 0-.1-.1-.1-.1.1-.2.1-.5.2-.7 0-.1.1-.2.1-.4.1-.4-.2-.4-.4-.4-.6-.1-1.1-.4-1.5-.6-.2-.1-.5-.2-.7-.1h-.1c-.1.4-.5.5-.8.6-.3.1-.3.3-.2.5 0 .1 0 .2-.1.2-.1.1-.1.1-.2 0s-.1-.1 0-.2c.1 0 0-.1 0-.1-.1-.1-.2-.1-.3-.2-.1 0-.2-.1-.2-.2s.1-.2.2-.2c.2-.1.3-.2.3-.4.1-.2.4-.3.5-.1.1.1.2 0 .3 0 .1 0 .1-.1.1-.2-.1-.1 0-.1 0-.1.2 0 .4-.2.6-.3.1 0 .3-.2.3.2l.1.1c.3.1.5.3.8.3.2 0 .4.2.6.2.1 0 .1 0 .1.1.2 0 0 0 0 .1zM25.6 13c.6-.1 1.2.1 1.7.3.3.1.6.3 1 .4h.3c.4-.1.8.1 1.2.3.2.1.2.3.3.4.1.2.2.5.3.7 0 .1.1.1 0 .1s-.1 0-.1-.1c-.1-.3-.4-.5-.6-.7-.2-.2-.5-.4-.8-.4-.6 0-1.1-.1-1.7 0h-.3c-.1 0-.2 0-.2-.1s.1-.1.2-.2c.1 0 .1 0 .1-.1s-.1-.1-.2-.1c-.4 0-.7-.1-1.1-.1-.1 0-.2 0-.2-.2 0-.1-.2-.1-.4-.1-.1 0-.2 0-.2-.1s.1-.1.2-.1c.2.1.3.1.5.1zM35.3 24.2c0-.2-.2-.2-.4-.2s-.2 0-.1-.2c.1-.4.4-.6.4-.9 0-.1.1-.1.2-.1s.1.1.1.2 0 .1-.1.1c-.2.1-.2.3-.2.5s.1.3.3.2c.1 0 .2-.1.2-.1.1 0 .3 0 .1.2 0 .1-.1.1-.1.2.1.3-.1.5-.3.7-.2.1-.1.3 0 .4.2.3.1.6 0 1 0 .1-.1.2 0 .4.1.1-.1.2-.1.3 0 .5-.2.9-.4 1.3-.1.1-.1.2-.2.2-.1-.1-.1-.2 0-.3 0 0 .1-.1 0-.1-.1-.4.1-.8.1-1.2 0-.3 0-.7.1-1 .1-.2 0-.5 0-.7.3-.2.3-.6.4-.9zM29.7 37.2c-.2-.1-.3-.1-.4-.1-.2.2-.5.1-.8.1-.2 0-.5 0-.5-.4 0-.1-.1-.1-.1-.2.3-.1.5-.2.8-.4.2-.2.6-.1.8-.2.1 0 .3 0 .4-.1.1 0 .1-.1.2 0s-.1.1-.1.2v.1c-.1.1-.2.2 0 .3.1.1.3 0 .4-.2.1-.2.2-.3.3-.4 0-.1.1-.1.2-.1.1.1 0 .1 0 .2-.1.3-.3.5-.4.7-.2.4-.7.5-.9.9-.2.3-.4.4-.6.4-.1 0-.1 0-.2-.1 0-.1 0-.2.1-.2.4 0 .4-.4.8-.5zm-1.2-.6c.4.2.7.1 1-.1-.4-.1-.7 0-1 .1zM31.7 22.4c.1 0 .2.1.3.1 0 0 0 .1.1.1.2.2.5.1.4.5.1 0 .2.1.2.1 0-.1.1-.2 0-.4-.1-.3-.3-.5-.5-.8-.2-.2-.2-.3.1-.5.1-.1.2-.2.4-.3.1 0 0-.1 0-.2-.1-.2 0-.3-.1-.5 0-.2.2-.1.3-.1.1 0 .1 0 .1.1 0 .3.1.5.1.8 0 .3-.1.6 0 .8 0 .3 0 .6-.1.9-.1.3 0 .7-.3.9-.1 0 0 .1 0 .2s0 .1-.1.1-.2 0-.1-.1V24c.2-.5-.1-.8-.4-1.1-.2-.1-.4-.2-.4-.5zM12.2 10.5c-.2 0-.3 0-.4.2l-.3.3h-.2c-.1-.1 0-.1 0-.2.4-.5.8-1 1.3-1.4.4-.3.7-.3 1.1-.4h.2c.1.1-.1.1-.1.2-.1.2-.3.2-.4.3-.3.2-.6.4-.8.7-.1.2-.3.3-.4.3zM33.4 32.6c-.1 0-.1-.1-.1-.2.2-.4.4-.8.8-1 .1-.1.1-.2.2-.3.1-.1.1-.3.3-.3-.2-.2.1-.4 0-.6-.2-.3 0-.6 0-1 0 0 0-.1.1-.1s.1.1.1.1c0 .2.1.3.1.5.1.3.1.5.1.8 0 .3-.2.6-.3.9-.3.4-.8.5-1.1.9 0 .2-.1.3-.2.3zM25.8 14.3c.3.2.6.3 1 .4.5.1 1.1.2 1.6.2.7 0 1.3.4 1.7.9.1.1.1.1.1.2-.1.1-.2 0-.2 0-.2-.2-.4-.2-.6-.5-.1-.1-.2-.2-.4-.2-.4 0-.8-.2-1.2-.2-.5 0-.9-.1-1.4-.1-.2 0-.3 0-.3-.2-.1-.3-.3-.3-.3-.5zM31.1 17c-.2.3-.1.6-.3.9-.3.4-.6.9-.7 1.4-.1.5 0 .9.2 1.4.1.2.3.4.3.7 0 .1 0 .2-.1.2s-.1-.1-.1-.1c-.2-.4-.3-.9-.5-1.3-.1-.4-.1-.7 0-1.1.1-.5.5-1 .8-1.4.1-.1.2-.3.2-.5-.1-.1 0-.2.2-.2zM32.9 33.7c0 .3 0 .6-.1.9-.1.2-.3.3-.4.5-.2.2-.5.3-.6.5 0 0-.1.1-.2 0s0-.1 0-.2c.2-.3.2-.6.6-.8.3-.2.5-.6.6-1 0-.1 0-.1.1-.1v.2zM7.9 27.8s-.3 0-.1-.2c.1-.1 0-.2 0-.3 0-.2-.1-.3.1-.4l.1-.1c-.1-.4.3-.6.3-1 0-.1 0-.1.1-.1s.1.1.1.1c0 .2 0 .4-.1.6-.1.3-.1.6-.3.8v.3c0 .2 0 .3-.2.3z"/><path d="M31.4 19.2c.1 0 .1.1.1.1l-.3.9c-.1.2 0 .5-.2.7-.1.1-.2.2-.3.2-.2 0 0-.1 0-.2-.2-.4.1-.7.3-1 .1-.2.1-.5.4-.7-.1.1 0 0 0 0zM19.8 15.4c0 .6 0 1.3-.3 1.9-.1.1 0 .3-.1.5 0 .1 0 .2-.1.2s-.1-.1-.1-.2c.1-.3.1-.5.2-.8.1-.4.2-.7.2-1.1 0-.3 0-.5-.1-.8 0-.1 0-.1.1-.1s.2 0 .2.1c-.1 0 0 .1 0 .3zM36.6 25.3c.2-.6.2-1.2.2-1.7 0-.1 0-.2.1-.2s.1.1.1.2c0 .5.2.9 0 1.4-.2.3-.2.3-.4.3zM36 20c-.1 0-.2-.1-.1-.1.2-.2-.2-.5 0-.7v-.1s-.1-.1 0-.2.2 0 .2.1c0 0 0 .1.1.1.5.2.1.5 0 .7-.1.2-.1.2-.2.2zM32.4 19.6c-.1.3-.1.6-.3.9-.1.1-.1.2-.2.1s0-.1 0-.2c.1-.1 0-.1 0-.2s-.1-.2.1-.3c.2-.1.1-.3.1-.4 0-.1 0-.2.1-.2.2.1.2.2.2.3zM24.6 14.3c-.1-.4-.3-.8-.7-1.1l-.1-.1c0-.1.1-.1.2 0 .3.2.5.4.6.8.1.1.3.3 0 .4zM18.8 30.5c.2 0 .5.1.7.1.1 0 .2.1.2.2s-.1.1-.2.1c-.2-.1-.5 0-.7-.2-.1-.1-.2 0-.2-.2 0 0 .1.1.2 0zM34.8 16.8c-.1-.1.1-.2.1-.4 0-.1.1-.2.2-.1.1 0 .2 0 .1.2 0 .1-.2.3-.1.4 0 .1-.1.1-.2.1s-.1-.1-.1-.2zM36.8 21.7v.2c-.2.1-.1.5-.3.5-.2 0-.2-.4-.3-.6 0-.1 0-.2.1-.2 0 0 .1 0 .1.1.1.4.2.1.4 0zM27.8 25.3c0-.3-.1-.5-.4-.7-.1 0-.1-.1-.1-.2s.1 0 .2 0c.2.1.4.2.4.5 0 .1 0 .3.1.4 0 .1 0 .2-.1.2-.2-.1-.2-.2-.1-.2zM30 7.7c-.4-.1-.7 0-1.1.1-.1 0-.2 0-.2-.1s.1-.1.1-.1c.4-.1.8-.3 1.2-.2.1 0 .2 0 .1.1.1.2 0 .2-.1.2zM27.8 12.6c0-.1-.1-.1 0 0l-.1-.1c.1-.1.2-.2.2-.4 0-.1 0-.1.1-.1s.1 0 .2.1c.1.2-.1.3-.1.4 0 0-.2 0-.3.1zM36.2 21.1c-.1 0-.1-.1 0-.2 0-.2.2-.3.2-.5 0-.1.1-.1.2 0 .1 0 .1.1.1.1l-.3.6h-.2zM35.3 12.8c0 .1 0 .1-.1.2l-.1.1c-.2-.1 0-.4-.2-.5 0 0 0-.1.1-.1.2-.1.3 0 .3.3 0-.1 0-.1 0 0zM36.9 23.2c.2-.2.1-.6.4-.7.1.2-.1.4-.4.7zM35.2 14.1c-.1.1.1.3-.1.3s0-.2-.1-.3V14c0-.1 0-.2.1-.2s.1.1.1.2v.1zM19.6 9.7c-.3.1-.5 0-.7 0 0 0-.1 0-.1-.1s.1-.1.1-.1c.3 0 .4.1.7.2zM30 22.7c0 .1.1.2-.1.2-.1 0-.1-.2-.1-.3 0-.1.1-.1.2-.1s0 .1 0 .2zM31.2 16.7c0 .1 0 .2-.1.2-.2 0-.1-.1-.1-.2v-.1s-.1-.1 0-.1.1 0 .1.1c0 0 .1 0 .1.1zM30 23.5c-.1.1 0 .3-.2.3-.1 0-.1-.1-.1-.1.1-.1 0-.3.2-.3.1 0 .1 0 .1.1zM35 12.2c0 .1 0 .1-.1.1s-.2 0-.2-.1 0-.2.1-.2c.2 0 .2.1.2.2zM13.4 27.9c0 .1 0 .2-.1.2s-.1 0-.1-.1 0-.2.1-.2.1 0 .1.1z"/><g fill="#010101"><path d="M17.7 28c.3.2.6.1.8-.2.3-.3.3-.5.1-.7-.2-.2-.4-.2-.9.1-.8.5-1.2.4-1.5.1-.4-.4-.4-1 .2-1.6.6-.6 1.2-.5 1.6-.2l-.5.5c-.2-.1-.4-.2-.7.1-.2.2-.2.4-.1.6.2.2.3.1.8-.2.9-.5 1.3-.4 1.6-.1.4.4.4 1.1-.2 1.7-.6.6-1.2.6-1.7.2l.5-.3zM21.1 24.2 20 23.1c.4.6.9 1.6 1.4 2.6l-.4.4c-.8-.5-2-1.1-2.5-1.5.3.3.8.7 1.2 1.1l.8.8-.5.5-2.4-2.4.8-.8c.8.4 1.8 1 2.2 1.3-.3-.4-.8-1.5-1.2-2.3l.7-.7 2.4 2.4-.5.6-.9-.9zM23.9 20.8c.7.7.8 1.6.1 2.4-.7.7-1.7.6-2.4-.1s-.8-1.7-.1-2.4c.8-.7 1.7-.6 2.4.1zm-1.8 1.8c.5.5 1 .6 1.4.2.5-.5.2-1-.2-1.4-.4-.4-1-.6-1.4-.2-.4.4-.2.9.2 1.4zM23 19.3l.5-.5 1.1 1.1c0-.3-.1-1.4-.1-2l.6-.6v1.9l2.4.4-.6.6-1.8-.3v.5l.8.8-.5.5-2.4-2.4zM28.2 16.9 27 18l.6.6 1.3-1.3.4.5-1.7 1.7-2.4-2.4 1.7-1.7.4.4-1.2 1.2.5.5 1.1-1.1.5.5z"/></g><path fill="none" d="M0 45h45v45H0z"/></svg>