<svg version="1.2" baseProfile="tiny" xmlns="http://www.w3.org/2000/svg" viewBox="0 0 45 45" overflow="visible" xml:space="preserve"><path fill="none" d="M45 0h45v45H45zM45 45h45v45H45zM0 0h45v45H0z"/><path d="M10.9 14.9c0-.1 0-.2.1-.3.2-.2.1-.4-.2-.5-.2-.1-.4-.1-.5-.3-.1-.1-.1 0-.2-.1-.4 0-.7-.2-1-.3-.1 0-.2-.1-.2-.2-.1-.2 0-.3.2-.4.3-.1.5-.1.8 0 .2.1.4.1.6.2.3.2.6.3 1 .4.2 0 .3.1.5.2s.3 0 .3-.2 0-.3-.2-.3-.4-.2-.5-.4l-.1-.1s-.1.1-.1 0 0-.2.1-.2.2-.1.2-.1c0-.1.1 0 .2 0 .1.1.3.1.4.1.1 0 .3.1.4.1.2.1.5.1.6.3h.1c0-.1.1-.1 0-.2-.2-.2-.3-.5-.6-.6-.1 0-.1-.1 0-.2s.2-.2.1-.3c-.1-.1 0-.2.1-.1h.3s.1-.1.2-.1c.2.1.4-.1.5-.1h.1c.2-.1.3-.1.5 0 .1.1.3 0 .4 0 .1 0 .1-.2.1-.3 0-.3 0-.2.2-.2s.3.1.5 0c.3-.1.6-.1.7-.4.1-.1.3-.2.4-.2.2 0 .4-.1.7-.1.1 0 .2-.1.2-.2s-.1-.1-.1-.1c-.2.2-.5.1-.7.1h-.1s-.1.1-.1 0 0-.2.1-.2c.2 0 .3-.2.5-.3 0 0 .1 0 .1-.1 0-.2.2-.2.3-.2h.7c.1 0 .1 0 .1.1s0 .1-.1.1c-.1.1-.2.1-.3.1-.1 0-.2 0-.2.1s0 .1.1.2.1.3.2.4c0 .2 0 .2.2.1.3 0 .5-.1.8-.1.1 0 .3 0 .4-.1h.1c.2.1.3.2.4.3.1.1.2.1.3.1l.1-.1c-.1-.1-.1-.2-.2-.2-.2 0-.3-.2-.5-.2-.1 0 0-.1 0-.1.1 0 .2-.1.2-.2 0 0 0-.1.1 0l.1.1c-.1.2 0 .2.2.3.1 0 .2.2.3.2.1 0 .2 0 .2.1.2.1.4.1.6 0 .1 0 .2 0 .3.1 0 0 .1 0 .1.1.3.1.6.3.8.4.1 0 0 .1 0 .2s0 .2.1.2.1-.1.1-.1 0-.1.1-.1c.1-.1.2-.1.1-.3v-.1h.1v.1c0 .1 0 .1.1.1s.1-.1.1-.1-.1-.1 0-.2c.1 0 .1.1.1.2 0 .2.1.3.3.3.1 0 .2 0 .2.2.1.3.2.4.5.3h.1c.1.2.3.2.5.2s.4.1.6.2c.1.1.2.1.2.1.4 0 .7.3 1 .4h.1c.2-.1.4 0 .5.2.1.1.2.1.3.1.2 0 .3.2.4.2.1 0 .2.1.4.1.3.1.6.2.9.2.4.1.6.3.6.7l.3 1.5c.1.3.2.6.2 1v.1c.2.2.2.4.2.6 0 .3.1.5.2.7.1.3.1.5.2.8 0 .1 0 .2.1.3v.1c.2 0 .2.1.2.3.1.3.2.5.2.8 0 .1.1.2.2.2.1.1.2.1.3-.1.3-.5.3-1 .4-1.5 0-.2.2-.4.4-.6h.1v.1c-.1.2-.1.5-.1.7 0 .2 0 .5-.1.7-.1.4-.2.9-.2 1.3 0 .1 0 .3.2.3l.3.3c.1.1.2.1.4.2.2 0 .2 0 .2-.2s-.1-.3-.2-.4c-.6-.1-.7-.2-.7-.4 0-.1 0-.2.1-.2s.2-.1.2-.2.1-.2.1-.3c.2-.2 0-.5-.2-.5-.1 0-.2 0-.2-.1 0-.2.1-.1.2-.1.2.1.2.1.2-.2 0-.1 0-.2-.1-.3v-.1c.1-.1.1-.2.1-.3h.1v.2c0 .2 0 .4.1.5 0 .2.2.3.4.2.1-.1.3-.1.4-.3 0-.1.1-.1.2 0 .1 0 .2 0 .2-.1 0 0 .1-.1.1 0 .1 0 .1.1.1.1 0 .1 0 .1-.1.1s-.2.1-.2.2-.1.1-.1.1c-.2.1-.2.1-.1.3v.1c-.1-.2-.2-.1-.4-.1-.1 0-.2 0-.3-.1 0 0 0-.1-.1-.1s-.1.1-.1.1c.1.1 0 .2-.1.4-.1.1 0 .3.1.4.1.1.1.3 0 .4-.1.1-.1.2 0 .3.1.2.2.4.2.6v.1c.2.1.2.4.3.6.1.2.2.4.4.5.1.1.2 0 .2-.1v-.6c0-.1-.1-.3-.1-.4 0-.1 0-.2-.1-.2s-.1.1-.1.2.1.3.1.4v.2c0 .1 0 .2-.1.2s-.1-.1-.1-.1c-.1-.1-.1-.2-.1-.3 0-.2-.1-.3-.2-.4-.1-.2-.2-.4-.2-.6 0 0 0-.1.1-.1s.1.1.2.1.1.1.1.2v.2s0 .1.1.1.1-.1.1-.1c0-.1 0-.2.1-.3v-.1c-.1-.1-.1-.2-.1-.3v-.1c-.1-.2-.1-.4 0-.6 0-.1.1-.1.1-.1.2 0 .1-.1.2-.2 0-.1.1-.2.2-.3 0 0 .1-.1.1 0 .1 0 .1.1 0 .2-.1.2 0 .3.1.5l.1.1c.1 0 .1 0 .1.1s0 .2-.1.1c-.1 0-.1 0-.2.1 0 0 0 .1-.1 0v-.1c0-.1.1-.1 0-.2 0-.1 0-.2-.1-.2s-.2.1-.2.2c.1.2 0 .3.1.5 0 .1 0 .1.1.1s.1-.1.1-.1c0-.1.1-.1.1-.1.1 0 .2-.1.3-.2.1-.3.3-.6.4-.8l.1-.1c.1 0 0 .1 0 .1 0 .1-.2.1 0 .2-.2.3-.3.6-.3.9 0 .2-.1.3-.2.5-.2.3-.2.6 0 .9.1.1.1.2 0 .4v.3c.1.1 0 .2 0 .3v.3c0 .1.1.2.2.1s.2-.2.3-.4c.1-.3.3-.5.4-.8 0-.1.1-.1.2-.1s.1.1 0 .2c0 .1-.1.2-.2.3-.1.2-.2.5-.3.7 0 .1-.1.1-.1.2 0 .2-.1.3-.2.4-.1.1-.2.4-.1.5 0 0 .1.1.1 0 .1-.1.2-.1.3-.3.1-.2.3-.3.4-.5 0-.1.1-.1 0-.2 0 0-.1-.1 0-.1h.1c0 .1.1.2.1.2 0 .2.3.3.5.1.1-.1.1-.1 0-.2 0 0-.1 0-.1-.1s.1 0 .1 0c.1.1.2.4.1.6 0 0 0 .1-.1 0-.2-.1-.4-.1-.5 0-.1.1-.3.1-.4 0 0 .3-.2.4-.3.6l-.1.1c-.2.1-.4.3-.4.5 0 .1 0 .1.1.2s.2.1.4.1c.1 0 .2.1.1.2 0 .1-.1.1-.2.1-.2 0-.4.1-.5.4-.1.3.1.5 0 .8-.1.3-.1.6 0 .8 0 .3 0 .5-.1.8 0 .4-.1.8.2 1.1.1.1.1.2.2.2l.1.1c.1 0 .2-.1.2.1 0 .1.1.3 0 .4v.2h.1c.3-.1.5-.4.7-.6l.1-.1c.1-.1.1-.1.2 0 0 .1.1.1.1.2s-.1 0-.2 0-.1.1-.1.1c-.1.2-.2.4-.4.5-.1 0-.1.4 0 .5h.1c.1-.1.2 0 .2.1 0 .3.1.5.3.7v.1c0 .3.2.4.4.5.2.1.2.3.1.4-.1.1-.1.2-.2.3-.1.1 0 .2.1.3.2.1.2.4.2.6 0 .1-.2.3-.4.3-.1 0-.2 0-.3.1 0 0 0 .1-.1.1v-.1c0-.1 0-.1-.1-.1H36c-.1 0-.2 0-.3-.1l-.1-.1c-.2 0-.3-.1-.4-.3-.1-.1-.2-.2-.3-.2h-.3c-.3 0-.5 0-.7.2-.2.1-.4.1-.6 0-.2-.1-.4-.1-.6-.2-.1 0-.2 0-.3.1-.1.1 0 .1.1.2l.1.1v.1h-.1c0-.1-.1-.2-.2-.3 0-.1-.1-.1-.2 0l-.2.2s-.1.1-.1 0c-.1-.1-.3-.1-.4-.2-.1-.1-.1-.1-.2-.1s-.1.1-.1.2c0 .2-.1.3-.4.3h-.2c-.1 0-.1 0-.1-.1s0-.1.1-.1.1-.1.2-.1.1-.1.1-.2-.1-.1-.2-.1c-.4-.1-.8 0-1.2 0-.2 0-.4.2-.6.3-.1.1-.2 0-.2-.1-.1-.2-.2-.2-.3-.2-.3 0-.7 0-1-.1-.1 0-.1-.1-.2-.1s-.3 0-.3.2c0 .1-.1.1-.2.2-.2 0-.3.2-.5.3-.1.1-.2.1-.3.1-.2-.1-.5-.1-.7-.2 0 0-.1-.1-.1 0-.1.1-.2.1-.3.1-.4.1-.8.1-1.1 0-.3 0-.5 0-.6.3-.1.1-.2.1-.3.1-.1 0-.2-.1-.2-.2v-.2h-.1c-.1.2-.3.1-.5.1-.1 0-.2 0-.3.1-.1.1-.3.2-.4.1-.2-.1-.4-.2-.6-.2 0 0-.1 0-.1-.1-.1-.1-.2-.1-.3 0-.3.2-.6.2-1 .1-.1 0-.2-.1-.3 0-.2.1-.5.1-.7.3H18c-.1-.1-.3-.2-.4-.2-.2-.1-.3-.2-.4-.3l-.1-.1c-.2-.2-.3-.2-.4.1-.1.2-.2.3-.4.4-.1 0-.2.1-.3.2-.1.2-.3.2-.5.1-.1-.1-.2-.1-.3 0-.1.1-.3.1-.5.1-.1 0-.2-.1-.3-.1-.1 0-.1-.1-.1-.2s0-.2.1-.2c.2 0 .4-.1.6-.1.1 0 .2 0 .2-.2 0-.1-.1-.1-.2-.1-.2 0-.2 0-.3-.2 0-.2 0-.3.2-.4.1 0 .2-.1.3-.1.1 0 .2-.1.2-.2s-.1-.1-.2-.1c-.3 0-.5.1-.8.2-.1 0-.1.1-.1.2 0 .4 0 .4-.4.5h-.4s-.1 0-.1-.1.1-.1.1-.1c.1 0 .2 0 .2-.2 0-.1-.1-.2-.3-.2-.1 0-.3-.1-.5 0-.1.1-.2.2 0 .3.1.1.3.2.4.3.2.1.2.3.3.4.2.2.1.3-.1.4-.3.1-.7.1-1.1.2-.3.1-.7 0-.9-.2-.1 0-.1-.1-.2-.1-.2-.1-.3-.2-.2-.4.1-.2.2-.5.3-.7.1-.1.3-.2.5-.1 0 0 .1.1.1 0v-.1c0-.1-.1-.1-.1-.1-.2-.1-.5-.2-.8-.1H11c-.1.2-.4.2-.6.3-.1.1-.2 0-.2-.1 0-.2-.1-.3-.2-.3s-.2-.1-.3-.1c-.3-.2-.6-.1-.9 0-.1 0-.1 0-.2.1-.1 0-.1 0-.1-.1s0-.1.1-.1.2 0 .3-.1c0-.1 0-.3-.1-.4 0-.1-.1-.1-.1-.1H8c-.1 0-.2 0-.3.1.9.3.8.3.7.3-.2 0-.3.1-.5.1-.4 0-.6-.2-.4-.6v-.3c0-.1 0-.2.1-.3v-.1c0-.1.1-.2.2-.2s.1 0 .1-.1 0-.1-.1-.1c-.1-.1-.1-.1 0-.2.3-.2.5-.5.7-.8.1-.2.3-.3.5-.4h.2c.1 0 .1.1.2 0 0-.1.1-.1 0-.2s-.1-.2.1-.2.3-.1.3-.3c0-.3.1-.6.1-.9 0-.1 0-.2.1-.2.2-.1.3-.3.3-.5v-5.5c0-.1 0-.2-.2-.2-.3.1-.4-.1-.5-.4 0-.1-.1-.2-.1-.3-.1-.2 0-.3.2-.4-.1.2-.1.4 0 .5 0 0 .1.1.1 0 .1-.2.2-.2.3-.3.1-.1.1-.2 0-.3-.1-.1-.2 0-.2 0-.1 0-.2.1-.3.1 0-.2.1-.3.3-.4l.8-.8s.1-.1 0-.1c0-.1-.1 0-.1 0-.2 0-.4.2-.6.2-.1 0-.2.1-.3.2-.1.1-.2.1-.3.1h-.2c-.1 0-.2 0-.2-.1v-.2H9.3c.1-.1.1-.2.1-.3 0-.1-.1-.1-.2-.1s-.2.1-.2.1c-.1.1-.1.1-.2 0 0-.1 0-.2.1-.3.2 0 .3-.1.5-.1.1 0 .3 0 .4-.2 0-.1.1-.1.2-.1.4 0 .7-.3 1-.4.1 0 .1-.1.1-.2-.1-.1-.1-.1-.3-.1-.4.1-.8.2-1.1.3h-.5c-.1.1-.2 0-.3-.1-.1-.1-.2-.2-.1-.4.1-.1.1-.3 0-.5 0 0 0-.1-.1-.1 0 0-.1-.1 0-.1h.1c.1 0 .1.1.1.1 0 .1 0 .1.1.2 0 .6 0 .6.2.5.4-.2.7-.3 1.1-.3h.2c.1 0 .1-.1.1-.2s-.1-.1-.2-.1c-.2.1-.5.1-.8.1h-.1c-.2.1-.3-.1-.4-.2-.2-.2-.1-.5 0-.7 0-.1.1-.2.2-.3.1-.1.2 0 .2.1s.1.2.1.2c0 .1.1.1.2 0 .1 0 .1-.1.1-.1 0-.2.1-.3.3-.3h.4c.1 0 .2 0 .2-.2v-.2c0-.1.1-.1.2 0s.2.1.2.1c.2-.1.4.1.5.1v.1s-.1.1-.1 0c-.2-.2-.4-.1-.7-.1-.1 0-.1.1-.1.1 0 .1.1.1.1.1h.8c.1 0 .1 0 .1-.1s0-.1.1-.1h.1v.1s-.1.1 0 .1h.4c.1 0 .1 0 .1-.1s0-.1-.1-.1l-.1-.1c-.3 0-.5-.2-.8-.2h-.3c-.2 0-.3-.1-.4-.2-.1-.1-.1-.1-.2-.1h-.1c-.2-.2-.5-.2-.8-.3-.1 0-.2-.1-.2-.3 0-.1.1-.2.1-.4 0-.1.2 0 .3 0 .1 0 .1.1.1.2s-.1.1-.1.1c-.1 0-.1 0-.1.1.1.2.2.2.2.2.2.1.4.1.7.2.1 0 .1.1.2 0 0-.1 0-.1-.1-.1s-.1 0-.1-.1c-.1-.1 0-.2.1-.2-.1.1 0 .1.1.1.1.2.3.2.5.4h.1c0-.1.1-.1.1-.2s-.1-.1-.2-.1c-.2-.2-.3-.1-.5-.1zm10.4 11.8h-.1c0-.2-.2-.2-.3-.4V26c0-.3-.2-.4-.4-.5-.1-.1-.2-.1-.2-.2 0-.2-.1-.3-.2-.4-.1 0-.2-.1-.2-.3v-.2c0-.2-.3-.4-.5-.3-.2.1-.3 0-.4 0-.1 0-.1-.1-.1-.2s.1 0 .2 0 .2 0 .2-.1c0-.2 0-.4-.1-.5-.1-.1-.1-.1-.1-.2 0-.2 0-.3-.2-.3-.1 0-.3 0-.3-.2 0-.1-.1-.1-.2-.1-.2 0-.3-.1-.4-.2-.1-.1-.1-.2-.2-.1-.1 0-.1.1-.2.2 0 .2 0 .3-.3.3 0 0-.1 0-.1.1 0 0 0 .1.1.1s.2.2.4.2c0 0 .1 0 .1.1s-.1.1-.1.1c-.2 0-.3-.1-.5-.2-.1 0-.1-.1-.2 0 0 0 0 .1-.1.1s0-.1 0-.1c.1-.1.2-.2.1-.3-.2-.2-.1-.2-.4-.2-.1 0-.2.2-.2 0v-.4c0-.3 0-.6-.2-.9-.1-.3-.2-.5-.3-.8 0-.1-.1-.2-.2-.2s-.2 0-.2-.2c.1-.3-.1-.5-.3-.8 0 0-.1-.1-.1 0-.1.1-.2 0-.2-.1 0 0 0-.1-.1-.1l-.3-.3c-.1-.1-.3-.1-.4-.1-.1.1-.1.2-.1.3.1.6 0 1.1 0 1.7 0 .3-.1.5-.1.8v.3c0 .2.1.5.1.7v.5c0 .1 0 .2.2.2-.2.1-.2.2-.1.4 0 0 .1.1 0 .2-.1.3-.1.7 0 1 0 .3.2.4.4.5.1.1.2.1.1.2 0 .1-.1.1-.2.1s-.2.1-.2.2 0 .1.1.2.1.2.1.3c-.1.1-.1.3-.2.4-.1.1-.1.2-.1.3 0 .3.1.6 0 .9v1.5c0 .4-.1.8-.1 1.3v.8c0 .2.1.3.1.5 0 .1.1.2.2.2.3 0 .6-.1.9-.1.1 0 .2 0 .2.2s.2.3.2.4c0 .1.1.1.2.1.2-.1.3-.1.5-.1s.3-.2.3-.3c-.1-.5.1-.8.6-.8.1 0 .2-.1.2-.2v-.5c-.1-.3.1-.3.3-.4.3-.1.6-.2.9-.1.2 0 .4 0 .4-.1.1-.1 0-.3-.2-.4-.1-.1-.1-.1-.1-.2s.1-.3.2-.4c.3-.3.6-.5 1.1-.4.2.1.3 0 .5-.2.1-.1.3-.2.4-.2.2 0 .5-.1.6.2.2 0 .3.1.4.2.1.2.3.2.4.1l.1-.1c.3 0 .4-.2.4-.4.1-.2.2-.2.4-.3h.9c.2 0 .3-.1.3-.2 0-.4.1-.7-.1-1.1 0-.1 0-.1-.1-.1s-.1.1-.1.1c0 .1-.1.2-.2.2-.2 0-.4.1-.6.1-.2 0-.4 0-.6-.2-.1-.1-.1-.2-.2-.3-.1-.1-.1-.1-.1 0 0 0 0 .1-.1.1h-.1s-.1-.1 0-.1c.2-.2 0-.4 0-.5 0-.1-.1-.2-.2-.2-.2.1-.5.1-.7.3-.1.2-.1.3 0 .4zm7.3 3.6.2.2h.1v-.1c-.1-.1-.1-.2-.1-.4 0 0 0-.1-.1-.1s-.3.1-.3.2c0 .3-.1.5 0 .8 0 .2.1.4 0 .6.1.2 0 .5.1.7.1.3.2.6 0 .8v.1h.1c.2 0 .2-.2.2-.3 0-.1.1-.2.2-.1.2.2.5.2.7.1h.3c.3.1.4.1.5-.2.1-.2.3-.4.5-.5.1-.1.2-.1.1-.3 0 0 0-.1-.1-.1s-.1 0-.1.1c0 0 0 .1-.1.1s-.1-.1-.1-.1v-.1c.2-.1.3-.1.3.2 0 0 0 .1.1.1h.1c.2-.3.4-.5.5-.8v-.1c-.2 0-.2-.3-.3-.3 0 0-.1 0-.1-.1h.2c.1.2.2.2.3.3l.3.3c.1.1.1.2.1.3 0 .2 0 .4.2.5.1.1.1.1.2 0 0-.1.1-.2.1-.2.3-.2.5-.4.8-.6 0 0 .1 0 .1-.1h.1v.1c-.1.1-.1.2-.2.3-.1.1-.1.2 0 .3.1.1.3.2.5.3.1.1.3 0 .4-.1.1-.3.2-.6.2-.8 0-.4-.2-.8 0-1.2.1-.2.1-.4.1-.6 0-.1 0-.2-.1-.3-.1 0-.1-.1-.1-.1-.1-.5-.2-.9-.1-1.4v-.4c0-.1 0-.1-.1-.1s-.3-.1-.4-.2c0 0-.1-.1-.2 0-.1 0 0 .1 0 .2v.2c-.1.1-.1.2 0 .3 0 .2.1.4.1.5 0 .1 0 .2-.1.2-.2.1-.4.1-.7.1-.3-.1-.5-.1-.8-.1-.1 0-.2 0-.3.1-.2.1-.3.1-.3-.1V27c.1-.3 0-.6-.1-.9-.1-.1-.2-.2-.1-.4 0-.2 0-.4-.1-.6 0-.1-.1-.1-.2-.1-.2.1-.3.2-.6.2s-.3.1-.3.3v.1c0 .1 0 .2-.1.3-.1.2-.2.3 0 .5.1.1 0 .1-.1.1-.3 0-.4.1-.4.4 0 .1-.1.2-.2.2s-.1.1-.2 0c0-.1 0-.1.1-.1.1-.2.3-.4.2-.7v-.2l.1.1c0 .1 0 .2.1.1.1 0 0-.1 0-.2V26c0-.1-.1-.1-.2-.1s-.1.1-.1.1c-.1.2-.2.3-.4.4-.1.1-.2.1-.3.2h-.1v-.5c0-.1.1-.2-.1-.2-.1 0-.1.1-.1.2s0 .3-.1.4c-.1.1-.1.1 0 .2s.1.2 0 .3c-.1.1-.2.2-.1.3.1.2.1.4 0 .6 0 .1 0 .2.1.2s.1-.1.1-.1h.1c0 .1 0 .2-.1.3-.1.2-.2.4-.2.6 0 .1 0 .3-.1.4-.1.2 0 .2.2.2.1 0 .3.1.4 0 0 0 .1 0 .1.1.1.1 0 .2 0 .4-.1.2 0 .4.2.4-.1.1-.2 0-.2.1-.1.1-.2.2-.2.3l-.1.1c-.1 0 0-.1 0-.1.1-.3.1-.4.1-.5zM12.2 20c-.4 0-.4 0-.4.4v.2c-.1.3 0 .6-.1.9v.3c0 .1-.1.2-.2.2h-.1c0-.1 0-.2.1-.3l.1-.1c0-.1-.1-.1-.1-.1h-.2c-.1 0-.2.1-.2.2v.7c0 .1 0 .2.2.2.1 0 .1.1.1.2l-.1.1c-.1 0-.2.1-.1.3 0 .1.1.2.1.4 0 .1.1.2.2.1.2-.1.3 0 .3.1s0 .1-.1.1c-.1-.1-.2 0-.3 0-.3 0-.3 0-.3.2v1.1c0 .1.1.1.2.2.2.1.4 0 .7.1.1 0 .2 0 .2-.1l.3-.3c.1-.1.1-.3-.1-.4-.1 0-.2 0-.2-.1-.1-.1.1-.2.1-.3 0-.1 0-.2.1-.3.3-.3.5-.6.7-.9.1-.1.1-.3-.1-.3-.2-.1-.2-.2-.1-.4 0-.1.1-.1.1-.2-.1-.2-.1-.3-.1-.5 0-.1 0-.1-.1-.1-.2-.1-.3-.3-.5-.4-.1 0-.1-.1-.1-.2s.1-.1.2-.1.2-.1.1-.2c0-.1-.1-.2-.1-.3-.1-.1 0-.1 0-.2s.1 0 .1 0h.1c0-.1.1-.1.1-.1s.1 0 .1.1-.1.1-.1.1c-.1.1-.2.2-.1.4.1.1.1.3.1.4v.3c0-.2.1-.4.1-.5 0-.2.1-.3.1-.5 0-.1.1-.1.1-.1.1 0 .1-.1.1-.2s-.1-.1-.2-.1h-.5c-.1 0-.1.1-.2 0zm15.5.8c0 .2-.1.3-.2.2-.2-.1-.3 0-.4 0-.1 0-.1.1-.1.1 0 .1 0 .1.1.1.2 0 .2.1.2.2.1.2.1.4.2.5 0 .1.1.1.2.1s0-.1 0-.1c0-.1-.1-.1 0-.2h.2c.1.1.2.1.2-.1 0-.1 0-.1.1-.1s.1.1.1.1c0 .1.1.1.2.2s.3.1.4 0h.3s.1.1.1 0c0 0 .1-.1 0-.2 0-.1 0-.1-.1-.2 0-.1-.1-.2-.2-.2s-.2 0-.3-.1c-.2 0-.3-.1-.4-.2-.1 0 0-.2 0-.3v-.1l-.3-.9c-.1-.2-.2-.4-.2-.6 0-.1-.1-.1-.1-.1-.2-.2-.4-.4-.4-.7V18c-.1-.1-.1-.3-.1-.4 0-.1 0-.2-.1-.3-.1.3-.1.1-.1 0s-.1-.2-.1-.3c-.1-.4-.2-.7-.3-1.1 0-.1-.1-.1-.2-.1-.1.1-.1.2-.1.3 0 .1.1.2.1.3 0 .3.2.6.2 1 .1.4.2.9.4 1.3v.1c.2.1.2.3.2.5 0 .1 0 .2.1.2.2.1.2.2.2.3 0 .1.1.2.1.3.1.1.1.2 0 .2.1.3.1.4.1.5zm1.5-4.6v.2c0 .1-.1.1 0 .2v.2c0 .3.1.5.2.7.1.4.3.7.3 1.1 0 .2 0 .4.2.5 0 0 0 .1.1.1 0 .3.1.5.2.8 0 .2.2.3.3.2.1 0 .2-.2.1-.3 0-.2-.1-.4-.1-.6 0-.1 0-.1-.1-.1s-.1-.1-.1-.2 0-.2-.1-.3c-.1-.1-.2-.3-.2-.4 0-.5-.2-.9-.2-1.3 0-.1-.2-.2-.2-.3-.1-.5-.2-1-.5-1.5 0-.1-.1-.2-.1-.3 0 0 0-.1-.1-.1s-.2-.1-.2-.1c-.2-.1-.2 0-.2.2v.1c0 .2.1.2.1.4 0 .3.2.7.2 1 0 0 0 .1.1.1l.1-.1c.1-.1.1-.2.2-.2zm.1 4c0-.2 0-.4-.3-.6-.1 0-.1-.1-.1-.2 0-.3-.1-.5-.2-.7 0-.1-.1-.3-.1-.4 0-.2-.1-.4-.1-.6 0-.1-.1-.3-.1-.4-.1-.1-.2-.2-.2-.4s0-.4-.1-.6c-.1-.4-.2-.8-.6-1.1-.1-.1-.2-.1-.3 0-.1.1-.1.2 0 .4 0 .1.1.2.1.3 0 .1 0 .1.1.2s.1.1.1.2c0 .2 0 .4.1.6.2.3.3.6.4.9.1.2.2.4.3.7 0 .1 0 .2.1.3.1.1.1.3.2.3.1.1.1.1.1.2 0 .3.1.6.1.8 0 .2.1.3.2.4.1.1.2.1.4 0 .1 0 .1-.1.1-.2-.2 0-.2-.1-.2-.1zm-7.6.5c.2-.2.2-.2 0-.3 0 0-.1-.1 0-.1 0 0 0-.1.1-.1h.1c.1.1.2.1.3-.1.1-.1.2-.2.3-.1.1 0 .1 0 .1-.1s.1-.3 0-.4c-.1-.1-.1-.1-.2-.1s-.3 0-.4.1c-.2 0-.4.1-.6.1-.1 0-.1.1-.2.2 0 .2.1.3.2.4.1.1.1.1 0 .2s-.1.2.1.3c.2.2.2.2.1.4-.1.1-.1.3 0 .4.1.1.2.3.1.4 0 .1 0 .2.1.2h.3c.2 0 .2-.1.1-.2 0 0 0-.1-.1-.1 0-.1-.1-.2 0-.2.1-.1.2 0 .3 0l.2.2c.1.1.2.1.4 0s.2-.3.1-.4l-.1-.1c.1-.2-.1-.3-.1-.4 0-.1-.1-.1-.1-.1-.1 0-.2 0-.2.1s.1.1.1.2c.1.1.2.2.1.4v.2s-.1 0-.1-.1c0-.2-.1-.1-.2-.1s-.1 0-.1-.2c0-.1.1-.3 0-.5v-.1l.1-.1c.1 0 .1-.1 0-.2 0-.1-.1-.1-.2 0-.1 0-.1.1-.2.2 0 .2-.2.3-.4.1zm3.5-3.7.3.6c0 .1.1.2.1.3 0 .1.1.2.2.4.1.1.1.2 0 .3v.2c0 .1.2.1.2.2s0 .2.2.2v.1c0 .1 0 .3.1.4v.2c0 .1-.1.1-.1 0-.1-.1-.1-.2-.1-.3v-.2c0-.1-.1-.1-.1-.1-.1 0-.1.1 0 .1.1.1.1.2.1.3 0 .2 0 .3.2.4.1 0 .1.1.1.2s0 .1.1.1.1-.1.1-.1V20c0-.3 0-.6-.1-.9-.2-.3-.3-.6-.4-.9-.1-.2-.2-.3-.2-.5s-.1-.3-.2-.5c-.1-.1-.1-.2-.1-.3 0-.2-.1-.3-.2-.5 0-.1-.1-.1-.2-.1-.2.3-.3.6-.2.7.1.2.2.3.2.5s0 .3.1.5c.1.3.1.7.3 1v.2c0 .1 0 .1.1.1.1.1.1.1.1 0s.1-.2 0-.3c-.1-.1-.1-.2 0-.3 0-.1 0-.2-.1-.1h-.1v-.1l.1-.1c-.1-.1 0-.2-.1-.2-.1-.2-.1-.4-.2-.6-.1-.3-.1-.4-.2-.6zm-8.1-2.9c0 .1 0 .2.1.2 0 0 .1 0 .1.1s-.1.1-.1 0h-.4s-.1 0-.1-.1h.2c.1-.1.2-.1.2-.2-.1-.1-.2-.1-.3-.1-.1 0-.2.1-.3.1-.1 0-.2.1-.3.1-.1 0-.1 0-.1.1s0 .1.1.1.3.1.4.2c0 0 .1.1.2.1.2-.1.3.1.5.1.1 0 .1 0 .1.1.1.1.3.2.5.1.1 0 .1 0 .1.1 0 .2.1.3.3.4.2.1.5.2.7.2.1 0 .3-.1.4-.2.1-.1.1-.2 0-.2-.1-.1-.2-.2-.3-.2-.2 0-.4-.1-.5-.2-.2-.1-.5-.3-.7-.3-.4-.3-.6-.5-.8-.5zm5.5 18.7c-.2 0-.4 0-.5.1 0 0-.1.1 0 .1 0 .1.1.1.1 0 .1 0 .1-.1.2-.1s.2 0 .2.1 0 .2.1.3c.1.1 0 .2 0 .3 0 0-.1.1-.1 0s-.2-.2-.1-.3v-.2h-.1c-.1 0-.1.1-.1.2.1.4.2.4.5.4h.1c.2 0 .4 0 .5.2.3.2.6.3.8 0l.1-.1c.1-.1.1-.2 0-.3-.1-.1-.3-.1-.4-.2-.2-.2-.3-.2-.5-.1-.1.1-.2 0-.2-.1s-.1-.2-.1-.3c0-.1 0-.2-.1-.2-.2.1-.3.2-.4.2zm4.3-9.8c-.1 0-.2-.1-.2-.2-.1-.2-.3-.4-.3-.6V22c0-.1.1-.3 0-.4v-.1h.1c0 .1.1.2.2.3v.1c-.1.1 0 .2.1.1.1 0 .1 0 .1.1s-.1 0-.1.1c0 0-.1 0-.1.1.1.1.3.2.4.2.1 0 .1-.1.1-.2s0-.2-.1-.2c-.2 0-.3-.1-.4-.3-.1-.2-.2-.4-.4-.5-.1-.1-.2-.2-.3-.1-.1.1 0 .2 0 .3v.1c.1.1.1.3 0 .4 0 0-.1.1 0 .1.2.1.1.3.1.5 0 0 0 .1.1.1.2.3.5.5.8.7.1 0 .2.1.2-.1 0-.1.1-.1.2-.1l.1.1c.1.1.2 0 .2-.1 0 0 .1-.1 0-.1l-.3-.3c-.1-.1-.1-.1-.2 0l-.2.2c-.1 0-.2 0-.2-.1 0-.2-.2-.2-.3-.4 0 0 0-.1-.1 0v.1c0 .1.1.2.1.2.3 0 .4.1.4.2zM12 26.4c0-.1 0-.2-.1-.3-.2-.2-.3-.4-.6-.4-.1-.1-.2 0-.2.1s-.1.3-.1.4v.3c0 .3.1.5 0 .8 0 .1 0 .2.1.3.1 0 .1-.1.2-.1l.1-.1c0-.1.1-.2.2-.2.2-.3.4-.5.4-.8zm12.6-6.8c-.1-.3 0-.6-.3-.8 0 0-.1-.1-.1-.2-.1-.4-.3-.8-.3-1.2 0-.1-.1-.1-.2-.1s-.1.1-.2.1c-.2.2 0 .5.1.6.2.2.2.5.2.7 0 .4.1.7.4 1 .1.1.2.1.3.1.1 0 .1-.1.1-.2zm-2.1-6c-.1 0-.1 0-.2.1 0 0 0 .1-.1.1s-.1 0-.2.1c0 .1 0 .1.1.2.3.1.6.2.9.4.1 0 .1 0 .2.1.3.2.5.3.8.2.1 0 .2-.1.3-.1.1 0 .1-.1.1-.2s0-.1-.1-.1-.1 0-.2-.1c-.1-.2-.3-.2-.5-.2-.2-.1-.4-.2-.7-.2 0-.2-.2-.4-.4-.3zm-1.5.6c-.1 0-.2 0-.3.1-.1.1-.1.2 0 .3 0 0 .1.1.2.1.1-.1.2-.2.4-.2.1 0 .2 0 .1.2 0 .1 0 .1-.1.2 0 .1 0 .2-.1.2s-.1-.1-.1-.2c0 0 0-.1-.1-.1s-.1.1-.1.1c0 .1 0 .1.1.2.3.2.6.2.9.4.1 0 .1 0 .1-.1s0-.2.1-.2.2-.1.4-.1c.1 0 .1 0 .1-.1l-.2-.2c-.2.1-.2 0-.4-.1-.3-.4-.6-.4-1-.5zm-4.4 18c0 .2.1.3.2.4.1 0 .3 0 .4-.2 0-.1.1-.1.2-.1s.1.1.1.2.1.2.2.2.2-.1.2-.2c0-.2 0-.4-.2-.5-.1-.2-.3-.2-.5-.1-.1.1-.2.1-.3 0-.1 0-.2 0-.3.1v.2zm7.8-19.7h-.1c-.1 0-.1 0-.1.1s.1.1.1.1c.2 0 .5 0 .7-.1h.2l.3.3.3.3c.1.1.2.1.3 0 0-.1.1-.1.2-.1s.1-.1.2-.2c0-.1 0-.1-.1-.2s-.2 0-.2-.1c-.2-.2-.5-.1-.8-.3h-.1c-.2 0-.3.1-.5.1-.1.1-.2.2-.4.1zm-13 20.1c-.3 0-.5.2-.8.3v.1c.1.1.2.2.3.1.2-.1.2-.1.3.1 0 .1 0 .2.1.3 0 .1 0 .1.1.1s.3-.1.3-.3c0-.1 0-.3.1-.4.1-.1 0-.2-.1-.3h-.3zm19.7-9.8c0-.2 0-.5-.1-.7-.1-.2-.2-.3-.4-.4h-.2c-.1 0-.2 0-.1.2 0 0 0 .1.1.1.1.1.2.2.2.4 0 .1 0 .1.1.2.1.2.3.3.3.5 0 0 0 .1.1.1s.1 0 .1-.1c-.1-.1-.1-.3-.1-.3zm-9.8 11.1v.2c0 .2.1.3.3.3.1 0 .3-.1.3-.2s0-.1.1-.2c.2-.3 0-.6-.3-.7-.2-.1-.4 0-.4.1v.5zm-5.1-15.7c-.1 0-.2.1-.2.2s0 .2.2.2c.3 0 .6 0 .8-.1h.1s0 .1.1.1 0-.1 0-.1c-.1-.1-.2-.2-.2-.3 0-.2-.1-.2-.3-.2-.1 0-.1 0-.2.1 0 .1-.1.2-.3.1zm18.6 15.7h.3c.1 0 .1-.1.1-.2s0-.2-.1-.3c-.1-.1-.5 0-.6.1-.1.2-.3.2-.5.2-.1 0-.2 0-.2.1v.1c.1 0 .3.1.4.1.2-.1.5 0 .6-.1zm-21.6 1.4c.2-.1.5-.1.7-.2 0 0 .1 0 .1-.1l-.1-.1c-.2 0-.3-.1-.5-.1h-.1c-.2 0-.4.1-.6.1-.1 0-.2.1-.2.2s0 .1.1.1.3 0 .6.1zm6.9-3v.3c0 .1.2.2.3.2.2-.1.3-.3.4-.5v-.2c-.1-.1-.1-.2-.2-.2-.1-.2-.3-.2-.4 0-.2.2-.1.3-.1.4zm-.2-12.9c0-.1 0-.2-.1-.3-.1-.2-.2-.2-.4-.1-.1.1-.3.3-.5.4l-.1.1c0 .1.1 0 .1 0 .1 0 .2 0 .3.1.1.2.3.1.4 0 .3 0 .3-.1.3-.2zm1.5-3.4c-.2-.1-.3.2-.5.2-.1 0 0 .1 0 .1.1.1.2.2.4.2.2.1.4.1.6-.1.1-.2.1-.3-.1-.4 0-.1-.2-.1-.4 0zM9.5 31.9c.2 0 .3-.1.2-.3 0-.1-.4-.4-.5-.4-.1 0-.1 0-.1.1-.1.2-.2.2-.4.2h-.2c-.1 0-.1.1-.1.1 0 .1 0 .1.1.1.4.1.7.1 1 .2zm10.7-10.6c-.2 0-.3.1-.4.2 0 .1.1.2.3.2.2 0 .3 0 .5.1h.2c.1-.2.1-.6-.1-.7-.1 0-.1-.1-.2.1-.1 0-.2.1-.3.1zm-4.1-3.7c0-.1-.1-.2-.2-.2-.3 0-.6 0-.8.2-.1 0-.2 0-.2.1s.1.1.2.1c.1.1.2.2.4.1.2 0 .4-.1.6-.2-.1.1 0 0 0-.1zm1.3 2.2s0 .1 0 0c0 .3.1.4.2.5.1 0 .3-.1.4-.3.1-.2.1-.4.1-.6v-.2c0-.1-.1-.1-.2 0s-.1.2-.2.2c-.2 0-.3.2-.3.4zm9.1-2c-.1-.2-.1-.5-.2-.7-.1-.2-.2-.4-.2-.6 0-.2-.1-.4-.2-.6 0-.1-.1-.1-.2-.1s-.1.1 0 .2c.1.2.1.3.1.5v.1c.1.2.1.3.2.5 0 .2.1.5.2.7 0 0 0 .1.1.1.2.1.2 0 .2-.1zm-5.6-.3h.1c.3-.1.5-.3.8-.4.1 0 .1-.1.2-.1l.1-.1c.2 0 .4-.2.6-.3.1 0 .1-.1.1-.2s0-.1-.1-.1-.2 0-.2.1l-.1.1c-.2 0-.4.2-.6.3-.3.1-.6.4-1 .5 0 0-.1 0-.1.1.1.1.2.1.2.1zm4.5 4.4c0-.1 0-.1-.1-.2-.1-.2-.3-.4-.4-.6 0 0 0-.1-.1-.1s-.1.1-.1.1c0 .1-.1.2 0 .3.1.1 0 .3.2.3l.1.1.3.3h.1v-.2zm-13.8-3.2c0 .1 0 .2.1.2.1.1.1 0 .2-.1l.1-.1c.2-.1.4-.3.6-.4 0 0 .1-.1.1-.2s-.1 0-.1 0c-.2 0-.3.1-.5.1h-.2c-.3.1-.3.3-.3.5zm1.3-3.1c0-.1 0 0 0 0-.1.2-.2.2-.3.1-.1-.1-.2-.2-.3-.2-.1 0-.1-.1-.2-.1v-.1H12.4s.1-.1 0-.1c0-.1-.1-.1-.1-.1h-.2c-.1-.1-.2-.1-.3 0-.1.1-.2.2-.1.3 0 .1 0 .3.2.3s.3.1.4.2c.4 0 .6 0 .6-.3zm11.6 15.6c.2 0 .4-.1.4-.3 0-.2-.1-.2-.2-.3-.2-.1-.3-.1-.4.1 0 0 0 .1-.1.1-.1.1-.1.3-.1.4 0 .1.1.1.2 0h.2zm12.3 3.1h.2c.1 0 .1 0 .1-.1.1-.2-.2-.5-.3-.4-.2 0-.3 0-.4-.2h-.1v.1c.1.1.1.2.1.3 0 .2.1.3.4.3zm-8-11c.1 0 .2 0 .2-.1s0-.1-.1-.1c-.2 0-.4-.1-.5-.3l-.1-.1c0-.1-.2-.2-.1-.3.1-.1.2 0 .3.1 0 0 .1.1.1 0 .1 0 0-.1 0-.1 0-.1-.1-.1-.2-.1-.2 0-.4 0-.6-.1h-.1v.1c.1.3.3.6.5.9.3-.1.5 0 .6.1zm-2.3 3.1c.3-.1.5-.1.7.2 0 .1.1.1.2 0s.1-.1 0-.2c0-.1-.1 0-.1 0-.1 0-.2 0-.1-.1 0-.1 0-.2.1-.2 0-.2-.1-.2-.2-.2-.2 0-.3.2-.5.2-.1 0-.1.1-.1.2-.2.1-.1.1 0 .1zm-14.2 2.3c.3 0 .4-.1.3-.3 0-.1-.1-.1-.1-.2-.1-.1-.3-.2-.4-.1-.1 0-.2.3-.1.5 0 .2.2.1.3.1-.1 0-.1 0 0 0zM19.1 16c0 .1.2.4.3.4.2 0 .3.2.5.1.1.2.3.1.4.2 0 0 .1 0 .1-.1v-.1c-.2-.1-.4-.3-.7-.3h-.1c-.1-.2-.3-.2-.5-.3.1 0 0 0 0 .1zm3.9-.7h-.2v.2c.1.2.2.2.3.3h.1c.1-.1.3-.1.4-.2.1 0 .1-.1.1-.2s0-.1-.1-.1c-.2 0-.3-.1-.5 0H23zM19.7 13c.1 0 .2-.1.2-.2.1-.1.2-.1.1-.2s-.2-.2-.3-.2c-.2 0-.4 0-.6.1-.1 0-.1.1-.1.2s.1.1.1.1c.1 0 .1 0 .1.1.2.1.4-.1.5.1zm7.9.4c-.3-.1-.4.2-.6.3v.1c0 .1.2.2.3.2.2 0 .3-.1.5-.2.1-.1.1-.2.1-.3-.1-.1-.2-.1-.3-.1zm-4.7 16.3c.1 0 .2-.1.3-.1.1-.1-.1-.1-.1-.2-.1-.2-.1-.4.1-.5.1 0 .1-.1.2-.1.1-.1.1-.2-.1-.2-.1 0-.3.1-.3.2v.2c-.1.1-.2.3-.3.5-.1.2 0 .2.2.2zm-.3 1c-.1 0-.2 0-.1.1.1.2 0 .2-.1.3l-.1.1c0 .1.1.1.1.1.1 0 .1 0 .1-.1.1-.2.2-.4.4-.5 0 0 .1-.1.1 0v.1c-.1.1-.1.1 0 .2.1 0 .1.1.2 0 .1 0 .1-.1.1-.2v-.2c-.1-.2-.2-.3-.4-.1-.1.2-.2.2-.3.2zm10.7 2.2h.1c.1 0 .1-.1.1-.2s-.1-.1-.1-.1c-.1 0-.2 0-.3.1 0 .1-.1.1-.1.1-.2.1-.5.1-.7 0-.1-.1-.2 0-.2.1s0 .2.1.2c.3.1.6.1.9-.2.1.1.1 0 .2 0zM18 31.3c.1 0 .2 0 .2-.1s.1-.2.2-.2.1-.1.1-.2-.1-.1-.1-.1-.1 0-.1-.1c-.1 0-.2 0-.3.1 0 .1 0 .2.1.2 0 0 .1 0 0 .1l-.1.1c-.1 0-.1-.1-.2-.1-.1-.1-.1 0-.2.1 0 .1 0 .2.1.2.1-.1.2-.1.3 0zm-5.2-15.9c.1 0 .2 0 .2.1 0 0 .1 0 .1.1s-.1.1-.1.2h-.1l-.1.1c0 .1.1.1.1.1h.1s0-.1.1-.1c0-.1.1-.1.2-.1s.2 0 .2-.1-.1-.1-.1-.2c-.1 0-.2-.1-.2-.1-.1-.2-.3-.1-.5-.2 0 .1-.1.2-.1.3.1 0 .2-.1.2-.1zm1.7 17.7c0-.1-.1-.2-.1-.2-.2-.3-.2-.2-.4 0-.1.1-.2.2-.4.2 0 0-.1 0-.1.1s.1.1.1.1h.7c.1-.1.2-.1.2-.2zm7.3-13.9c.2 0 .3 0 .4-.1.1 0 .1-.1 0-.2-.2-.1-.3-.2-.3-.3 0-.1-.1-.1-.1 0-.1.1-.2.3-.2.4-.1.2-.1.3.2.2zM13.4 12h-.1c-.1 0-.1 0-.1.1s.1.1.1.1h.3c.3.1.6-.1.8-.2.1 0 .1-.1.1-.2s-.1-.1-.1-.1c-.2 0-.3 0-.5.1-.1.1-.3.2-.5.2zm11.2 1.6c-.1 0-.1 0-.1.1v.2c.2 0 .3.2.5.2.1 0 .3 0 .4.1.1.1.2 0 .4 0v-.1c-.1-.1-.2-.2-.3-.2h-.2c-.3-.1-.5-.2-.7-.3zm-8.9.4c.1 0 .1-.1.2-.1s.1 0 .1-.1-.1-.1-.1-.1c-.2 0-.4-.1-.5-.1-.1 0-.2 0-.2.1s0 .2.1.2c0 .1.2.1.4.1zm-.7 3.1c.1-.1.1-.1.1-.2l-.1-.1c-.2-.1-.4-.2-.6-.2h-.1v.1c.1.1.1.2.1.3 0 .1 0 .1.1.1.1-.1.2-.1.3 0h.2zm5.3-1.6s0-.1 0 0c-.1-.1-.2-.1-.3-.1-.1 0-.2 0-.3.1-.1.1-.1.1-.2.1s-.1 0-.1.1 0 .1.1.1.1 0 .2.1.1 0 .2 0c.1-.2.2-.3.4-.4zm8.9 6.7c-.1 0-.2 0-.2.1s.1.1.1.1h.1c.1.1.3.1.4.3h.1c.2 0 .2.1.2.2s0 .1.1.1.1 0 .1-.1-.1-.3-.2-.4c-.1 0-.1-.1-.2-.1-.2 0-.3-.1-.5-.2zm-8 7s0-.1-.1-.1c-.1-.1-.2-.2-.3-.2-.1-.1-.2 0-.2.1 0 .2.1.3.2.4.2.1.4 0 .4-.2zm-9.1 1.7c.1 0 .2 0 .3-.2.1-.1 0-.2-.1-.3-.1 0-.3-.1-.4-.2 0 0-.1-.1-.1 0s-.1.1 0 .2.1.2.2.3c0 .2.1.2.1.2zm2.1-14.8c.1.3.1.3.3.1.1-.1.1-.1.1-.2-.1-.1-.3-.1-.3-.1-.1.1-.3.1-.5.2-.1 0-.1.1 0 .2.1 0 .3 0 .4-.2zM8.9 32.6c.1 0 .2 0 .3-.1.1-.1.1-.1 0-.2s-.2-.1-.4-.1-.3.1-.3.2.2.2.4.2zm10.5-3.5c-.1 0-.2 0-.4.1-.1 0-.1.1-.1.2s.1.1.1.1c.1 0 .1 0 .2.1s.2.1.3 0c.1-.1.2-.2.1-.3 0-.2-.1-.2-.2-.2zm8.4-5.2c-.1 0-.2 0-.2.1s0 .3.1.3.2.1.2.2.1.1.2 0c0 0 .1-.1.1-.2-.1-.1-.1-.3-.2-.4h-.2zm-3.6-2.4c0 .2.1.3.2.3.2 0 .2.1.2.2 0 .2.2.3.3.4.1.1.1 0 .1-.1s0-.1-.1-.2-.2-.2-.3-.4c0 0 0-.1-.1-.1s-.2 0-.2-.2c0-.1-.1-.1-.1-.1v.2zM32.1 32c0 .1 0 .1.1.2 0 0 .1.1.1 0 .1 0 .1-.1.1-.1 0-.3-.1-.5-.5-.4-.1 0-.2.2-.2.3 0 .1.1.1.2.1s.1-.1.1-.1c0-.1 0-.1.1-.1v.1zm-21.3-1.3c0 .1 0 .2.1.2s.2 0 .3-.1c.1 0 .1-.1.1-.2s-.1-.3-.1-.4c0-.1-.1-.1-.2-.1s-.1.1-.1.2c-.1.2-.1.3-.1.4zm22.8-7.1c0-.1-.2-.3-.2-.3-.1 0-.3.1-.3.2 0 .2.2.3.3.3 0 .1.2-.1.2-.2zm-12.9-4.3c0-.1-.1-.4-.1-.5 0 0 0-.1-.1-.1v.5c0 .1 0 .1-.1.2-.1 0-.1 0-.1.1s.1.1.2.1c0 .1.2-.1.2-.3zm14.9 12.5c0 .1 0 .3.1.3s.1-.1.1-.2.1-.2.2-.2.1-.1.1-.2-.3-.2-.3-.1c-.1.2-.2.3-.2.4zm-25.3-.5c0-.1 0-.2-.1-.2-.2 0-.3.1-.3.3 0 .2.1.4.2.4.1-.1.2-.2.2-.5zm17.1-1.9c0-.2 0-.2-.1-.2s-.1-.1-.1-.1c0-.1-.1-.1-.1-.2-.1-.1-.2 0-.2 0-.1.1 0 .1 0 .2l.3.3c0 .1.1.1.2.1v-.1zm-16.7 2.7c-.1 0-.2.1-.3.2-.1.1-.1.2.1.3.1 0 .4-.1.4-.2 0-.2 0-.3-.2-.3zm1.3-.5c0-.1 0-.2-.1-.2-.1-.1-.2 0-.2 0-.1 0-.2 0-.2.2 0 .1.1.2.2.2h.1c.1.1.2 0 .2-.2zm18.6-13.4v-.1c0-.1 0-.1-.1-.2h-.1v.2c.1.1.1.2.1.3 0 .3.1.5.2.8 0 0 0 .1.1.1l.1-.1v-.3c-.2-.1-.2-.4-.3-.7zM18.4 34.3c.2 0 .2-.1.2-.2 0-.2-.1-.2-.2-.2h-.3c-.1 0-.1.1-.1.2.1.1.2.2.4.2zm-1.5.1c0-.1-.1-.1 0 0-.3 0-.6 0-.8.2-.1.1 0 .1 0 .2.1.1.1 0 .2 0 .1-.1.3-.2.4-.3.1 0 .2 0 .2-.1zm-4.5.2c.2 0 .3-.1.4-.2.1-.1.2 0 .2-.1s-.2-.1-.3-.1c-.2-.1-.4 0-.5.2 0 .2 0 .2.2.2zm-1.9-4.8c0 .1 0 .2.1.2s.4-.1.4-.2 0-.2-.1-.2-.1-.1-.2-.1c0 .1-.2.2-.2.3zm9.2-16.1c0-.1 0-.1-.2-.1s-.3.3-.4.4v.1h.1c0-.1.1-.1.2-.1.3 0 .3-.1.3-.3zm3.8 5c0-.3-.1-.5-.2-.7 0 0 0-.1-.1-.1s-.1.1-.1.1c.1.2.1.5.2.7l.1.1c.1 0 .1-.1.1-.1zm-10.9 13c0-.1 0-.2-.1-.1-.1 0-.3 0-.2.2v.3c0 .1 0 .1.1.2.1 0 .2 0 .2-.1-.1-.2-.1-.4 0-.5zm17.6-8c0 .1 0 .1.1.2.1 0 .1 0 .2-.1l.1-.1c.1-.1.1-.2.1-.3 0-.1-.1-.1-.2-.1-.2 0-.3.2-.3.4zm-7 2.5c-.2 0-.3.1-.3.2s.1.2.3.2c.1 0 .2-.1.2-.2 0-.2-.1-.2-.2-.2zM23 12.1c.1 0 .3 0 .4-.2.1-.1 0-.2-.1-.2s-.3 0-.4.1c-.1 0-.1.1-.1.2.1.1.1.1.2.1zm-5.1 5.8c.1 0 .2-.1.3-.1v-.1l-.1-.1c-.1.1-.1 0-.2 0h-.2s-.1.1-.2.1l-.1.1c0 .1.1.1.2.1h.3zm8.2 8.7c0-.2-.1-.3-.4-.3-.1 0-.1 0-.1.1 0 .2.1.4.3.4.2 0 .2-.1.2-.2zm.3-3.4c.1 0 .1 0 .2-.1V23c-.2-.1-.3-.3-.4-.4 0 0-.1-.1-.1 0v.1c-.1.2.1.4.3.5-.1 0 0 0 0 0zm5.4 10.4c0-.1-.1-.2-.2-.3-.1-.1-.1.1-.2.1l-.1.1-.1.1c0 .1.1.1.1.1h.3c.2.1.2 0 .2-.1zm-2-10.3c0-.2-.1-.2-.2-.2H29.3c0 .1 0 .1.1.1.1.1.2.1.2.2s0 .2.1.2.1-.1.1-.2v-.1zM16.9 22c-.1 0-.1 0-.2.1 0 .1 0 .1.1.2.1 0 .2.1.3.1.1 0 .1-.1.2-.1 0-.1.1-.2 0-.2h-.1c-.2-.1-.2-.1-.3-.1zm3.4-10c-.1 0-.3 0-.3.1s.1.2.3.2c.1 0 .2-.1.2-.2 0 0-.1-.1-.2-.1zm-1-.4h-.2s-.1 0-.1.1 0 .1.1.1.3.1.4.1c.1 0 .1 0 .1-.1s-.1-.1-.2-.2h-.1zm1.5 19.8c0-.2 0-.2-.2-.3h-.2c0 .1 0 .1.1.2.1 0 .1.1.2.1 0 .1.1.2.2.1-.1.1-.1 0-.1-.1zM8 32.5c-.1 0-.2 0-.2.1s.1.1.1.1c.1 0 .1.1.2.1.1.1.2 0 .3-.1.1-.1 0-.1 0-.2-.2.1-.3.1-.4 0zm9.1-20.9c0-.1-.1-.1-.2-.1s-.2.1-.1.2c0 .1.1.1.2.1h.3c.1 0 .1 0 .1-.1s-.1-.1-.2-.1c0-.2-.1-.1-.1 0zm1.7 9.6c0 .2.1.3.2.3s.2-.1.2-.2c0-.2-.1-.2-.2-.2-.2 0-.2 0-.2.1zm7.9-2c.1.1.1.3.2.5 0 .1.1 0 .1 0v-.2c0-.1-.1-.2-.1-.3 0-.1 0-.1-.1-.1-.1-.1-.1 0-.1.1zm-7.1 1.4v.2c0 .1 0 .1.1.1s.2 0 .2-.1v-.3c0-.1 0-.1-.1-.1s-.1.1-.2.2c.1 0 .1 0 .1.1v.1c-.1-.1-.1-.1-.1-.2zm-1.2 12.3c-.1 0-.2.1-.3.2v.1c.1.1.2 0 .3 0 .1 0 .1-.1.1-.2.1-.1 0-.1-.1-.1zm2.8-22.2c0-.1 0-.1-.1-.1H21c0 .1-.1.1-.1 0 0 0-.1-.1-.1 0l-.1.1c0 .1.1.2.2.3.1.1.1-.1.1-.1 0-.1.1-.1.2-.2-.1.1 0 .1 0 0zm.3 1c-.1 0-.1 0-.2.1v.1c.1.1.3.1.4 0l.1-.1c0-.1-.1-.1-.1-.1-.1.1-.2.1-.2 0zM24.8 23v.1s0 .1.1.1h.1c0-.1.1-.1.2-.2.1 0 .1-.1 0-.2-.1 0-.2-.1-.3-.1-.2.1-.1.2-.1.3zm-10.1 9.5c-.1 0-.2.1-.2.2s.2.2.2.2c.1 0 .2-.1.2-.2s-.1-.2-.2-.2zm6.2-12.4c-.1-.1 0-.2-.1-.3-.1 0-.2 0-.3.1 0 0-.1 0-.1.1l.1.1c.1 0 .2 0 .2.1h.1l.1-.1zm-.5-8.8s0-.1-.1-.1H20c-.1 0-.1.1-.1.2s.1.1.2.1h.1c.2 0 .2-.1.2-.2zM9.9 17.4c.1 0 .2 0 .3-.1 0 0 .1-.1 0-.1s-.3-.1-.4 0c0 0-.1 0-.1.1s.1.1.1.1h.1zM24 29.5v.1h.1c.1-.1.2-.4.1-.5 0 0 0-.1-.1-.1 0 0-.1 0-.1.1.1.1 0 .2 0 .4zM11.4 17.4c.1 0 .3 0 .4-.1 0 0 .1 0 .1-.1h-.1c-.2 0-.3.1-.5.1 0 0-.1 0-.1.1 0 0 0 .1.1.1l.1-.1zm13.2-2.3c.1 0 .2 0 .2-.1s0-.2-.1-.2c-.1-.1-.1 0-.1 0h-.1c-.1 0-.1.1-.1.2 0 0 .1 0 .2.1zm8.3 11.7s0-.1 0 0c-.1-.1-.1 0-.1 0 0 .1-.1.2-.2.3-.1.1-.1.1-.1.2 0 0 0 .1.1.1h.1c0-.1.1-.1.2-.2-.1-.2 0-.3 0-.4zM24 32.7c0-.1 0-.2-.2-.3-.1 0-.1.1-.2.2 0 .1.1.2.2.2.2.1.2 0 .2-.1zm2.6-11.6s.1 0 0 0c.1 0 .1-.1.1-.2s-.1-.2-.2-.2h-.1c-.1.2.1.4.2.4zm-9.3-1.8.5-.3c0-.1 0-.1-.1-.1-.2.1-.3.1-.4.3-.1 0-.1 0 0 .1-.1 0-.1 0 0 0zm2.6 12.3v.2s0 .1.1 0 .2-.2.2-.3c0-.1 0-.1-.1-.1s-.1 0-.2.1v.1zm-7.3-14.1c.1 0 .2 0 .2-.1v-.1c-.2 0-.3.1-.5.1-.1 0-.1.1 0 .2h.1c.1-.1.1-.1.2-.1zm7.5 16.6c-.1 0-.2.1-.2.1s-.1.1 0 .1c0 0 .1.1.1 0l.1-.1c.1 0 .1 0 .1-.1h-.1zm9.1-10.2s-.1-.1-.1 0c0 0 0 .1.1.1s.2.1.4.2c.1 0 .1 0 .1-.1-.1-.1-.3-.2-.5-.2zm1.8 9.4c.1 0 .1 0 .1-.1s-.2-.2-.3-.2c-.1 0-.1.1-.1.1.1.1.2.2.3.2z"/><path d="M24.4 11.4v-.1c0-.1.1-.1 0-.2s-.1 0-.1 0c-.1 0-.1.1-.2 0 0-.1-.2-.1-.1-.2 0-.1.3-.2.4-.1.1.1.1 0 .1 0 .1-.1.1-.1.2-.1.3.1.4.3.6.5.1.1.3.1.4.2.1 0 .2 0 .2-.1.1-.2.1-.3.4 0 .2.2.4.2.5.4 0 .1.1 0 .2-.1 0-.1.1-.1.2 0s.2.1.1.2 0 .2 0 .3c0 .1 0 .2-.1.1H27c-.1-.1-.3 0-.5-.1s-.3-.1-.5-.2-.3-.2-.5-.3c-.1-.1-.2-.2-.3 0l-.5-.1V11.2c0-.1 0-.2-.1-.2s-.1.1 0 .2-.1.1-.2.2zM10.4 16.1c0-.2.2-.3.3-.4h.1c.1.1.1.2 0 .3 0 .1-.1.1-.2.1-.2.1-.5 0-.7.2h-.1V16s-.1-.1 0-.1h.1l.1.1c0-.1 0-.1-.1-.2 0 0-.1 0-.1-.1-.1-.1-.3-.1-.5-.1-.1 0-.1.1-.1.1s0 .1-.1.1-.1.1-.1.2c-.1.3-.3.3-.5.2-.1-.1-.1-.2-.1-.3v-.4c0-.1 0-.1.1-.1s.2 0 .1-.2c0-.1 0-.1.1-.1s.3 0 .4.1c.1 0 .1.1.2 0s.2 0 .2.1.1.2.2.2c.2 0 .3.1.5.2.1.1.1.1.1.2-.1 0 0 .1.1.2zM9.8 28.1c.2-.1.2-.1.2-.2-.1-.1-.1-.3 0-.4v-.2c-.1 0-.1 0-.1.1s0 .1-.1.1-.1-.1-.1-.2-.1-.2-.1-.3l-.1-.1c-.1 0 0 .1 0 .1v.1c-.1 0-.1-.1-.1-.1-.1-.2-.1-.3.2-.3.1 0 .1-.1.2-.1v.1c0 .1-.1.2.1.2.1 0 .1 0 .1.1v.1c.1 0 .1 0 .1-.1s0-.2.1-.1c.1 0 0 .1 0 .2s-.1.1 0 .2c.2.3 0 .5 0 .8 0 .2-.2.3-.3.4v-.1c.1-.2.1-.2-.1-.2h-.1s-.1 0-.1-.1 0-.1.1-.1l.1-.1c.1-.1.1-.1.2-.1h.1c-.2 0-.2.2-.3.3zM22 9.8v.1c0 .1 0 .3-.1.3s-.3 0-.3-.2c0-.1-.1-.1-.1 0-.1.1-.2 0-.3 0H21c-.1 0-.2 0-.2-.2v-.1h-.1l-.1.1s-.1.1-.1 0v-.1c.1-.1.1-.1.1-.2s.1-.1.1 0c.1.2.3.1.4.3 0 .1.1 0 .1-.1s.1-.1.2-.1.2 0 .2-.1c.1-.1.2-.1.3 0 .1.2.1.3.1.3zM31.4 18v.4s0 .1.1.1 0-.1.1-.1c0-.1.1-.1.2-.2.1 0 .1 0 .1.1v.1s-.1.1-.1 0c0 0-.1-.1-.1 0v.2c.1 0 .2.2.3.3.1.1.1.2 0 .3-.1.2-.1.4-.2.6v.1c-.2-.2-.1-.3 0-.5.1-.1.1-.3.1-.4 0-.1-.1-.2-.2-.2h-.1c-.1-.1-.1-.2-.3-.2h-.1c-.1-.1-.1-.2-.2-.4v-.1c.1 0 .1 0 .1.1h.1l.1-.1c.1.1 0 0 .1-.1zM22.6 34.9c-.1.1-.1.1-.2.1s-.1.1-.1.1 0 .1-.1.1v-.1s0-.1-.1-.1-.1.1-.1.1c0 .1 0 .3-.1.4l-.1.1c-.1 0-.1-.1-.1-.2s.1-.1.1-.2v-.1h-.1c-.1.1-.2.1-.2 0s-.2-.1-.1-.2.2.1.3.1c.1.1.3 0 .4-.1 0-.1.1-.1.1 0 0 0 0 .1.1 0 0 0 0-.1.1-.1 0-.1 0-.2.2-.1.1.1.2 0 .2 0 .1-.1.1-.1.1 0s.1.1.1.1c.1 0 .1 0 .1.1s0 0-.1 0h-.1c-.3.2-.3.2-.3 0zM28.1 12.2s0-.1 0 0c0-.1-.1-.1 0-.2h.1c.1.1.2.1.3.2.1.1 0 .2-.1.2-.2.1-.4.1-.5.2-.1 0-.5-.2-.5-.3 0-.1 0-.1.1-.1 0 0 .1-.1.2 0l.2.2s.1.1.2 0v-.2zM15 10.3c0-.2.2-.3.4-.2.1 0 .1.1.2 0 0-.1.3-.1.4 0 .1.1.1.1.1.2s-.1.1-.1.1c-.1-.1-.1 0-.2 0-.1.1-.1.1-.2 0h-.1c-.1.1-.2.1-.3.1-.2-.1-.2-.1-.2-.2zM30.5 34.7c-.1 0-.1 0 0 0-.1.2-.3.2-.4.3-.1.1-.2.1-.3.1-.1 0-.2-.1-.2-.3 0-.1.1-.1.1-.1.2.1.4 0 .5-.1 0 0 .1 0 .1-.1l-.1-.1c-.1 0-.1 0-.1-.1s.1-.1.1 0c.1.1.2.2.3.2 0 .1.1.2.1.3 0 0-.1 0-.1-.1.1.1 0 0 0 0zM9.8 14.2c-.1-.1-.2-.1-.3-.1-.1-.1-.2-.1-.2-.2-.1.2-.1.2-.3.1-.1 0-.2-.1-.2-.2v-.2h.1c.1.1.2.1.4.1h.1c0 .1.1.1.2.1.1.1.2.2.2.4zM34.2 20.9c0 .1 0 .2-.1.2h-.2c-.1-.1 0-.1 0-.2s.1-.2.1-.2c0-.1 0-.1-.1-.2s-.1-.2-.2-.3v-.1s.1 0 .1.1v.1s0 .1.1.1c.2-.1.2 0 .2.1s.1.3.1.4zM36.1 22.4c-.2-.1-.2 0-.1.1v.1l-.1.1-.1-.1c0-.2 0-.4-.1-.6-.1-.1 0-.1.1-.1 0 0 .1 0 .1.1.1.1.3.2.4 0h.1v.1c-.2.1-.3.1-.3.3.1 0 0 0 0 0zM9.6 28.9c-.1.2 0 .4-.1.6 0 .1 0 .1-.1.1s-.2-.1-.2-.1v-.1h.1c.2.1.2 0 .1-.1v-.1c.1-.1.1-.2 0-.4 0-.1 0-.1.1-.2.1.1.1.1.1.3zM32.6 20.8c0-.1 0-.2.1-.2 0 0 .1-.1.2 0 .1 0 0 .1 0 .1-.1.2 0 .4.2.5l.1.1v.1h-.1c-.2-.1-.3-.2-.4-.3-.2-.1-.1-.2-.1-.3zM7.4 31.3v-.2c.1 0 .1 0 .2.1 0 .1 0 .2.1.3 0 .1 0 .1-.1.2-.1 0-.1 0-.1-.1v-.1c-.1 0-.1.1-.1.2v.2h-.1c0-.1-.1-.1 0-.2v-.1c-.1-.2-.1-.3.1-.3 0 .1 0 .1 0 0z"/><path d="M29.5 34.6c.1-.1.2-.2.3-.2.1-.1.3 0 .3.2 0 0 0 .1-.1.1-.2-.1-.3 0-.5.1-.1.1-.1.1-.2 0l-.1-.1c0-.1.1-.1.2-.2 0 0 0 .1.1.1zM24.9 34.9s0 .1 0 0c-.1.1-.1.1-.2 0s-.1-.1-.2 0-.2 0-.4.1H24c0-.1-.1-.2-.1-.2v-.1h.1c.2.1.4.2.6.1.2-.1.4 0 .3.1zM10.4 14.9v-.2c-.1-.1 0-.2.1-.3.2 0 .2-.1.1-.2.1 0 .2 0 .3.1 0 0 .1.1 0 .1-.2.2-.3.4-.5.5zM27.5 34.2c.1 0 .2.1.2.1.1.1.1.2 0 .3-.1 0-.1 0-.1-.1s0-.1-.1-.1-.1.1 0 .1v.1h-.1c-.1-.1-.1-.2-.1-.2-.1-.2 0-.2.2-.2zM29.6 12.9c0-.1.1-.1.1-.1.1 0 .3.3.3.4 0 .1-.1.1-.2.1-.2 0-.2-.2-.2-.4zM36.4 20.8c.1.3 0 .4-.1.6l-.1.1c-.1 0-.1-.1-.1-.1 0-.2.1-.4.3-.6zM25.4 34.6c.1 0 .2.1.3.1.1 0 .1.1 0 .2s-.1.1-.2.1-.3-.2-.3-.3c.1-.1.2-.1.2-.1zM17 34.9c.1-.2.4-.2.4-.5 0 .1.2 0 .2.1s-.1.2-.2.2-.1.1-.1.2 0 .1-.1.2h-.1c.1-.1 0-.2-.1-.2zM35.8 21.3c.1 0 .1 0 0 0 .1.4.1.4.4.4 0 0 .1 0 .1.1s-.1.1-.1.1c-.1-.1-.3-.1-.4 0-.1 0-.1 0-.1-.1s0-.2.1-.2v-.3zM9.7 19.2c-.1 0 0-.1-.1-.1s-.1.1-.1.1c-.1.1-.2.1-.3 0v-.1h.1s.1.1.1 0c.1 0 0-.1 0-.2s0-.1.1-.1h.5v.1l-.3.3zM30.3 14.9c0-.2 0-.3.1-.4.1-.1.2-.1.3-.1.1 0 .1.1.1.2 0 0 0 .1-.1.1-.2 0-.3.1-.4.2zM22.6 10.4v-.2c-.1-.1 0-.1 0-.2 0 0 0-.1.1-.1s.1.1.1.1c0 .2 0 .4-.1.5 0 0 0 .1-.1 0-.1 0-.1-.1-.2-.2v-.1h.1s0 .1.1.1v.1zM32.4 34.6c.1 0 .2 0 .2.1s-.1.1-.1.2l-.1.1s-.1.1-.1 0-.1-.1-.2-.1c0 0-.1 0-.1-.1 0 0 0-.1.1-.1 0 0 .2 0 .3-.1zM28.8 35c0 .1 0 .1 0 0-.1.1-.1.2 0 .3 0 0 .1.1 0 .1-.1.1-.1 0-.1 0l-.1-.1c-.1 0-.1-.1-.1-.2s.1-.1.1-.2c0 0 .1-.1.1 0l.1.1zM29.1 34.9s-.1.1 0 0c-.1.1-.1 0-.1 0-.1-.2-.3-.3-.4-.4l-.1-.1h.1c.2 0 .3.2.4.3 0 .1 0 .1.1.2zM9.6 26.4c0-.1 0-.2.1-.3.1-.1.3-.1.4-.1v.1c-.2 0-.2.3-.5.3zM20.4 35c0-.1.1-.2.2-.2s.2.1.3.2c0 0-.2.2-.3.2-.1-.1-.2-.1-.2-.2zM27.4 34.8c.1 0 .2.1.3.1 0 0 .1.1 0 .1-.1.1-.2.1-.2.1-.1 0-.2 0-.3-.1 0-.2.1-.2.2-.2zM8.5 18.9c0-.1.1-.2.2-.1h.1c.1 0 .1.1.1.2s0 .1-.1.1-.1 0-.1-.1c0 0-.1 0-.2-.1 0 .1 0 .1 0 0zM18.7 25.2V26.9c0 .1-.1.2-.1.3 0 .2-.1.4-.4.3H18c-.1 0-.2 0-.1.2v.2c-.1 0-.1-.1-.1-.1-.1-.2-.2-.3-.4-.3-.3.1-.7-.1-1-.1H16v-.1c.2-.2.2-.5.1-.8-.1-.3 0-.6 0-.8v-.3c-.1-.4 0-.8.1-1.1 0-.1.2-.1.3-.1h.7c.2.1.4.1.6.1h.6c.1 0 .2 0 .3.2v.7z"/><path d="M20.2 25.5c0 .3 0 .4-.3.4h-.4c0 .1 0 .1.1.1s.2 0 .1.1-.2 0-.2 0l-.2-.2h-.1v.1c.1.2 0 .2-.1.3-.1 0-.1.1-.1.2s.1.1.2.1.2.1.3.1c0 .1-.1.1-.1.1h-.1c-.1.1-.1.3-.3.3v.2c0 .1.1.1.2 0 .1 0 .1-.1.2-.2l.1-.1s.1 0 .1.1 0 .1-.1.1c-.2.1-.3.2-.2.4v.1h-.1l-.1-.1s-.1 0-.1.1v.6c0 .1 0 .1.1.1h.3c.1 0 .1 0 .1.1s-.1.1-.1.1c-.1 0-.3.1-.4.1-.1 0-.1.1-.2.2l-.1.1c-.1 0 0-.1 0-.1 0-.1.1-.1.1-.2v-.2c-.1-.1-.1 0-.2 0-.1.1-.4-.1-.3-.3v-.3c0-.1 0-.1.1-.1.1.1.2 0 .3 0 .1-.1.2-.1.1.1 0 0 0 .1.1.1s.1-.1 0-.1c-.1-.1 0-.1 0-.2.1-.2.1-.4.1-.6 0 0 0-.1.1-.1.2 0 .1-.1 0-.2s-.2-.3-.1-.4l.1-.1h.1c-.2-.3-.2-.3-.3-.3-.1-.1-.1-.1 0-.2 0 0 .1-.1 0-.1-.1-.1 0-.3 0-.4 0-.1 0-.1.1 0s.1.1.2 0c.1 0 0-.1 0-.2V25h.1c.1.1.1 0 .1-.1v-.3c0-.1 0-.1.1-.1s.1 0 .1.1c.1.2.1.3.2.5l.2.2s.1.1 0 .1c-.1.1-.1 0-.1 0-.1-.1-.1-.1-.2 0 0 0-.1 0-.1.1s-.2.1-.1.2c0 .1.1.1.2.1h.1c.2-.1.3-.1.4-.3zM20.8 27.5c.4.1.4.2.5.6v.1s0 .1.1.1c0 0 .1-.1 0-.1-.1-.1 0-.2-.1-.3v-.1s0-.1.1-.1.1 0 .1.1c0 .2.1.2.3.2.3-.1.5.1.6.3v.1l-.1.1c-.1 0-.1 0-.1-.1 0 0 0-.1-.1-.1s-.1.1-.2.2c0 .1 0 .1.1.1h.2c.1 0 .1 0 .1.1s0 .1-.1.1c-.1.1-.3 0-.4.1h-.1c-.1-.2-.3-.3-.6-.4h-.3c-.1 0-.1 0-.1-.1s-.1-.1-.1-.1c-.1 0-.1-.1 0-.1 0-.1.1 0 .1 0h.1c.1-.1.2 0 .3 0 0 0 .1.1.1 0s0-.1-.1-.1c-.3-.3-.3-.3-.3-.6zM18.7 23.3c0 .1 0 .2-.1.2s-.1.1 0 .1v.4s-.4 0-.4-.1v-.1c.1-.1.1-.2 0-.2-.2-.1-.3-.5-.2-.7 0-.1.1-.1.1 0s.1.1.1 0h.1c.2 0 .4.3.4.4zM15.2 26.2c-.1-.1-.1-.2-.1-.2 0-.1 0-.3-.2-.3-.1 0-.1-.2 0-.2s.2-.1.3-.1h.1c.1.2.3.1.4.1.1 0 .1 0 .1.1v.3c0 .1-.1.2-.1.2-.2-.2-.4-.1-.5.1zM14.4 22.5c.1 0 .2 0 .3.1.2.1.3.1.4-.1.1-.1.2-.2.2 0 0 .1.1.1.1.1.1 0 .1 0 .1.1s.1.2-.1.2h-.8c-.2-.2-.4-.2-.6-.2-.1 0-.2 0-.2-.1s.1-.1.1-.1h.5zM17.1 27.9c-.1.1-.1.2-.2.2s-.1-.1-.2-.2c0-.1 0-.2-.1-.2v-.1h.3c.1 0 0 .1 0 .1.2-.1.3-.1.5-.1.1 0 .2 0 .1.2-.1.1-.2.3-.1.5.1.1 0 .2-.1.2s-.1-.1-.1-.1c0-.2 0-.3-.1-.5zM24.1 27.7c0 .1.1.2 0 .3 0 .1-.1.1-.2.1-.1-.1-.2-.1-.3-.1-.1 0-.1-.1-.2-.1s-.2 0-.3.1H23c-.1 0-.1-.1-.1-.2 0 0 0-.1.1-.1h.1c.1 0 .2 0 .2-.1s.1-.1.1 0c.1.1.3.2.4.2.1 0 .1 0 .1-.1s0-.3-.2-.3c-.1 0-.1-.1-.1-.2s.2-.1.2-.1c.1 0 .1.1.1.1.2.3.2.4.2.5z"/><path d="M20.6 26.2c0 .1 0 .2.1.2v.1c-.1 0-.1 0-.1-.1-.1-.1-.2-.2-.4-.1h-.3c-.1 0-.1-.1 0-.2 0-.1.1-.1.1 0h.1c.2 0 .2 0 .2-.2v-.1c0-.1 0-.1.1-.1h.1c0 .2.1.3.1.5zM14.1 26.9c0 .1.1.2.2.2-.1.2.1.4.1.7 0 .1 0 .1-.1.2-.1 0-.1 0-.1-.1-.2 0-.1-.1-.1-.2v-.8zM15.2 29.5c.2-.2 0-.4 0-.6 0-.1-.1-.2-.1-.3 0-.1 0-.2.1-.2s.2 0 .2.1c0 .3.2.5.1.8-.2.1-.2.2-.3.2zM18.8 24.5c0-.2 0-.2.2-.2h.2c.1 0 .2 0 .1.1-.1.2-.2.4-.2.5 0 0-.1.2-.1.1-.1-.1-.1-.2 0-.3 0 0 .1 0 .1-.1l.1-.1c0-.1-.1 0-.1 0-.2.1-.3.2-.3 0zM20.7 27.4c-.1 0-.5-.3-.5-.4v-.1h.2c.1.1.2.2.3.2.1 0 .1.1.1.2.1 0 0 .1-.1.1zM22.1 26.8c0 .1-.1.3-.1.4 0 0 0 .1-.1.1v-.2c0-.1 0-.2-.1-.1-.1 0-.1-.1-.2-.2 0-.1 0-.2.1-.3.1-.1.2.1.2.1.1 0 .1.1.2.2zM14.3 25.9c0-.1 0-.2.1-.2s.1-.1.2 0c0 .1-.1.1-.1.1l-.1.1c0 .1.1.1.1 0H14.8c0 .2.2.3.2.4v.1h-.1l-.3-.3-.1-.1c-.2.2-.2 0-.2-.1zM18.1 30.1c0-.2.1-.5.1-.7 0 0 0-.1.1-.1s.1.1 0 .1c-.1.1 0 .2.1.4.1.1 0 .2 0 .2 0 .1-.1.1-.2 0 0 .1 0 .2-.1.1zM14.1 19.6V19c0-.1.1-.1.1 0 .1.1.2.1.2.1v.4c0 .1-.1.1-.1.1-.1-.1-.2 0-.2 0zM20.2 28.4c-.1 0-.3 0-.3-.1 0-.3-.2-.2-.3-.3 0 0-.1 0-.1-.1s.1-.2.2-.2l.1.1c0 .2.2.3.2.5 0 0 .1 0 .2.1-.1-.1 0-.1 0 0zM16.5 28c.1 0 .1 0 .1.1 0 .2-.2.4-.4.4h-.1v-.2c0-.1.1-.1.1-.1.2-.1.2-.2.3-.2zM15 27.7c-.1.1 0 .1 0 .2 0-.2-.1-.3-.1-.5 0-.1.1-.1.1-.1s.1 0 0 .1c-.2.1 0 .1.1.1.1.1.2.1.3.2.1 0 .1.1 0 .2 0 .1-.1.1-.2 0 0-.1-.1-.2-.2-.2zM14.6 20.5c0-.2.1-.3.1-.5l.1-.1c.1 0 .1.1.1.1v.1c-.1.1-.1.1-.1.3 0 .1 0 .2-.1.3 0 .1-.1.1-.1 0v-.2zM23.4 27.6c-.1 0-.2.1-.3 0-.1 0-.2 0-.2-.1s.1 0 .2 0h.5v.1h-.2c.1 0 0 0 0 0zM14.1 28.7v-.6c.1 0 .1.1.2.1s.1.1.1.1c0 .1 0 .1-.1.1s-.1.2-.2.3zM17.6 22.7s0-.1.1-.1.3.1.3.2 0 .2-.1.2c-.2 0-.3-.2-.3-.3zM15.8 21.7c.1 0 .1 0 0 0 .1.2.1.4.2.5v.1c-.1.1-.1.2 0 .3v.1h-.1s-.1-.1 0-.2c0-.3 0-.5-.1-.8zM16 30c.1-.1.4-.2.5-.1v.1l-.1.1c-.1.1-.1.2-.2 0 .1-.1-.1-.1-.2-.1zM22.7 27.4c0 .1-.1.1-.2.2-.1 0-.1.1-.2.1-.1-.1 0-.2.1-.2 0 0 0-.1.1-.1 0 0 0-.2.1-.1.1-.1 0 .1.1.1zM28.6 31.8v-.4c0-.1 0-.2.1-.2s.1-.1.2-.1.1-.1.1-.2 0-.1.1-.1 0 .1 0 .1c0 .1 0 .1.1.2s.1.1.1.2 0 .2.1.1c.1 0 .1-.1.2 0 0 .1-.1.1-.1.1-.1.1-.2.1-.3 0-.1-.1-.1 0-.2 0 0 .1-.1.2-.2.4 0 .1 0 .1-.1.1s-.1-.1-.1-.2zM30.6 26.1c-.1 0-.1 0-.2.1 0 0 0 .1-.1 0v-.1c.1-.2.2-.5.3-.7 0-.1.1-.1.2-.1s.2 0 .3-.1c.1-.1.1 0 .2 0s.1.1 0 .1c-.1.1 0 .2 0 .3v.2c-.1 0-.1 0-.1-.1s0-.1-.1-.2c0-.1-.1-.1-.1 0-.1 0-.1.1 0 .1v.1c0 .1 0 .1-.1.1s-.1 0-.1-.1c0 0 0-.1-.1-.1s-.1.1-.1.1v.2c.1.2.1.3 0 .2zM31.6 26.3c-.1.1.1.3-.1.5V27.1c-.1 0-.1 0-.2-.1-.1 0 0-.1 0-.1.1-.1 0-.1-.1-.1s-.1-.1-.1-.1c0-.1-.1-.2-.1-.3 0 0 0-.1-.1 0h-.1v-.1h.3c.2 0 .1.1.2.2 0 0 0 .1.1.1 0-.1.1-.2.2-.3-.1 0-.1-.1-.2-.1v-.1c.1 0 .1 0 .1.1 0 0 0 .1.1.1zM30.5 32.3c-.1.2-.2.3-.3.4h-.1v-.1h.1v-.2c0-.1-.1 0-.1 0l-.3.3c-.1.1-.2.1-.3 0-.1-.1-.1-.1-.2-.1s-.1 0-.1-.1.1 0 .1 0c.1.1.3.1.5.1s.3-.1.3-.3c0 0 0-.1.1-.1s.1 0 .1-.1 0-.1.1-.1.1.1.1.1 0 .1-.1.1-.1.1-.1.2c0-.1.1-.1.2-.1zM34.4 31.5c-.1 0-.1 0-.1-.1-.1-.1-.1-.2 0-.3 0-.1.1-.1.2-.1h.1v.1c-.2.2 0 .2.1.2s.2 0 .2.2c0 .1 0 .3-.2.4h-.1v-.1c0-.1.1-.1.1-.2-.2-.1-.2-.2-.3-.1zM28.9 27.9c0 .2.1.3.2.4-.1.1-.2.2-.1.4H28.7c0-.1 0-.1.1-.1.2-.1.1-.3.1-.5-.1 0-.1-.1 0-.2zM31.5 27.8s0 .1 0 0c.1.2.1.4.1.5v.1s-.1 0-.1-.1-.1-.1-.2-.1c0 0-.1.1-.1 0v-.1c.1 0 .2-.1.3-.3-.1 0-.1 0 0 0zM28.7 27.5c-.2-.2-.1-.3.1-.3.1 0 .1-.1.1-.1s0-.1.1-.1h.1c0 .1 0 .3-.2.3-.1.1-.1.2-.2.2zM11.7 25.1c0-.1.1-.2.2-.2s.1 0 .1.1c.1.1 0 .2 0 .2-.1 0-.1.1-.2.1-.1-.1 0-.2-.1-.2zM28 20.6c.1.1.1.2.1.3 0 .3.1.4.4.5.2 0 .3.1.4.1.1 0 .1.1.1.1 0 .1-.1 0-.1 0-.1-.1-.3 0-.5-.1 0 0-.1-.1-.2-.1-.1-.1-.3-.1-.4 0-.1 0-.1.1-.2.1s-.2 0-.2-.1c-.1-.1 0-.1 0-.2.3-.1.5-.3.6-.6zM30.1 19.2c-.2-.2-.3-.5-.3-.7-.1-.2-.1-.5-.2-.7 0-.2-.2-.4-.2-.6V17h.1c0 .1.2 0 .1.1v.1c.1.1.1.2.1.4v.2c.1.3.1.6.2.8 0 .1 0 .2.1.3.2 0 .2.1.1.3zM29.1 16.1c-.1 0-.1-.1-.1-.2s0-.3-.1-.4v-.1c0-.1 0-.2-.1-.3 0 0-.1-.1 0-.1h.1c.1.1.2.2.2.3 0 .2 0 .3.1.5 0 .1 0 .2-.1.3zM27.6 15.5c.1.2.2.3.2.6v.1c.2.2.3.5.3.8 0 .1 0 .2-.1.1-.1 0-.2 0-.2-.1s-.1-.3-.1-.4c0-.3-.1-.6-.2-.8 0-.2 0-.2.1-.3zM28.5 18.5c-.1-.2-.2-.3-.1-.5 0-.1 0-.1-.1-.1-.2-.1-.2-.3-.2-.5 0 0 0-.1.1-.1 0 0 .1 0 .1.1s0 .1.1.1.1.1.1.1c-.1.2 0 .5 0 .9 0-.1 0-.1 0 0zM21.5 19.8c.1-.2.1-.2.2-.1.2.1.3 0 .5 0 .1 0 .1 0 .1.1s-.1.1-.1.1c-.1 0-.2.1-.2.2s-.1.1-.2.1h-.1c-.1.2-.2 0-.3-.1-.1 0-.1-.1-.1-.1.1-.2.1-.2.2-.2zM21.8 21c.1.1.2 0 .3.1 0 0 .1 0 .1.1 0 0 0 .1-.1.1H22c-.2 0-.3.2-.2.4.1.1.1.2 0 .3 0 0 0 .1-.1.1l-.1-.1c0-.2-.1-.3-.2-.5.1-.2.3-.5.4-.5zM18.6 15c-.1.1.1.1 0 .2-.1 0-.1-.1-.2-.1-.2 0-.3-.1-.4-.3 0-.1-.2-.1-.2-.1h-.2c-.1 0-.1-.1-.1-.1 0-.1.1-.1.1 0l.6.3c.1 0 .1.1.2.1.2-.1.2 0 .2 0zM23.9 33.9c0 .1-.1.1-.1.1-.1 0-.2-.2-.4-.2-.1 0-.1-.1-.1-.2s.1-.1.2-.1c.2 0 .2.1.3.2.1.1.1.2.1.2zM11.7 26.4c0 .2 0 .3-.2.4h-.1v-.1s.1 0 .1-.1c-.1-.1-.1-.1-.2 0l-.1.1s-.1 0 0-.1c0-.1 0-.1.1-.1.1-.1.2-.1.4-.1 0-.1 0 0 0 0zM22.5 13.7c.1.1.3 0 .4.1.1.1.3.2.4.2.2 0 .3.2.5.2.1 0 .2.2.4.2v.1h-.1c-.1 0-.1-.1-.2 0-.3 0-.5-.1-.7-.2-.2-.2-.3-.3-.5-.3-.1 0-.2 0-.2-.1l-.1-.1s0-.1.1-.1zM21.9 14.7c0 .1-.2.4-.2.4-.1 0-.2-.2-.2-.3 0-.1.1-.2.3-.2.1-.1.1 0 .1.1zM30.9 22.5v.1h-.1c0-.1-.1-.1-.1-.2.1-.2-.1-.3-.2-.4v-.1h.1c.1 0 .1 0 .1.1.1.1.2.3.2.5zM21.7 34.2c-.1 0-.2-.2-.2-.3.1-.1.1-.2.1-.3 0-.1 0-.1.1-.1s.1.1.1.1l.1.1c.1.1.1.2 0 .3-.1 0-.1.1 0 .1 0 .1-.2.1-.2.1zM17.8 19.4c.1 0 .1 0 0 0 0 .2.1.4 0 .5 0 0 0 .1-.1.1s-.1-.1-.1-.1c0-.1.1-.2.1-.4 0-.1.1-.1.1-.1z"/><path fill="none" d="M0 45h45v45H0z"/></svg>