<svg version="1.2" baseProfile="tiny" xmlns="http://www.w3.org/2000/svg" viewBox="0 0 45 45" overflow="visible" xml:space="preserve"><path fill="#DAA628" d="M-4.5-49.5h576v99h-576z"/><path d="m19.9 29.7 1.6 1.6 3.1 3.1c.1.1.2.1.3 0 .2-.2.3-.4.5-.5l.5-.5.4-.4c.1-.1.1-.1 0-.2l-.7-.7c-.1-.1-.1-.1 0-.2l1.8-1.8c.2-.2.4-.4.5-.6.1-.1.1-.1.2 0l.1.1v.1c.3.2.4.4.7.6.1.1.1.1.2 0s.1-.2.2-.2.1.1.2.2l1.6 1.6.2.2c.1.1.1.1.2 0l.4-.4c.1-.1 0-.1 0-.2l-1.2-1.2-.7-.7c-.1-.1-.1-.1 0-.2.2-.2.2-.2 0-.3l-.4-.4-.3-.3c-.1-.1-.1-.1 0-.2l1-1 .5-.5c.1-.1.1-.1.2 0l.8.8c.1.1.1.1.1 0l.7-.7.6-.6c.1-.1.2-.2.2-.3.1-.1.1-.2 0-.3-.4-.4-.7-.8-1.1-1.1-.5-.4-.9-.9-1.4-1.3-1-1-2-2-3.1-3-1.3-1.2-2.5-2.5-3.8-3.8l-2.3-2.3c-.1-.1-.1-.2-.2-.3-.8-.6-1.5-1.4-2.2-2.1-.1-.1-.1-.2-.2-.2-.1-.1-.2-.1-.3-.2l-1.2-1.2-1.3-1.3c-.2-.3-.5-.5-.8-.8-.1-.1-.2-.1-.3 0l-1 1c-.1.2-.3.3-.4.5-.1.1-.1.1 0 .2s0 .1 0 .1c-.1 0-.1 0-.2.1s-.3.2-.3.4c-.1 0-.2.1-.3.3 0 .1-.1.2-.2.3l-1.3 1.3c-.1.1-.2.2-.3.2-.1.1-.1.2-.2.3l-1.1 1.1-.3.3c-.1.1-.1.1-.2.1s-.2.2-.2.2c0 .1 0 .1-.1.1-.2 0-.3.2-.4.4v.2h-.1c-.1-.1-.1-.1-.2 0l-.9.9-.6.6c-.2.2-.2.2 0 .4.6.6 1.2 1.2 1.8 1.7l1.1 1.1c1.2 1.2 2.4 2.4 3.7 3.6l3.5 3.5.9.9c.6.6 1.3 1.2 2 1.9-.1 0-.1 0 0 0zm3.1-13c.1 0 .1.1.1.1.1.1.1.1.2 0 0-.1.1-.1.1-.2.1-.1.1-.1.2 0 0 .1.1.1.2 0h.1v.1c-.1.2-.3.4-.5.5h-.1s-.1-.1 0-.1c.1-.1 0-.2-.1-.2h-.1c-.1.1-.1 0-.2 0 0-.1.1-.1.1-.2l-.1-.1c-.1-.1-.1-.1-.2 0h-.1v-.1c.1-.2.3-.4.5-.5h.1v.1c-.1.1 0 .1 0 .2.1.1.1.1 0 .2l-.2.2zM15.9 23c-.2-.1-.3-.3-.5-.5h.1c.1-.1 0-.2 0-.2l-.1-.1h-.1l-.1-.1-1.5-1.5s-.1-.1 0-.1c0-.1 0-.1-.1-.1s-.1 0-.1-.1l-.4-.4-1.9-1.9s-.1-.1 0-.1c0-.1 0-.1-.1-.1H11l-.1-.1s-.1-.1-.1 0h-.1l-.3-.3c.2 0 .4.1.6.1 0 0 .1 0 .1.1.6.6 1.2 1.2 1.9 1.8.8.7 1.5 1.5 2.2 2.2l.9.9s.1.1 0 .1c-.1.1-.1.2-.2.4-.1.4-.1.8-.2 1.2h-.1l-.4-.4c-.1-.1-.1-.1 0-.2.4-.2.6-.4.7-.6zm6-.1s0 .1 0 0c-.1.1-.1.2-.2.2l-1.2 1.2c-.2.2-.3.6 0 .8.3.3.7.6 1 1 0 0 .1.1 0 .1l-.2.2c-.1.1-.1.2 0 .4l.1.1v.1l-.3.3c-.1.1-.1.1-.2 0 0-.1-.1-.1-.1-.1-.8-.8-1.6-1.6-2.5-2.4l-1.1-1.1s-.1-.1 0-.2c1-1 2-2 2.9-3l1.5-1.5 1-1c.1-.1.1-.1.2 0l.9.9.9.9c.2.2.2.2 0 .4-.1.1-.1.2 0 .4l.5.5c.1.1.2.1.3 0l.1-.1h.1l.8.8v.1l-.5.5c0-.4 0-.5-.3-.7-.2-.1-.4 0-.5.1-.2.2-.2.4-.1.6.1.2.3.3.7.2-.5.5-1 1.1-1.6 1.6 0-.1-.1-.2-.2-.3-.3-.3-.7-.6-1-1-.1-.1-.1-.2-.2-.2-.2-.1-.4 0-.6.1l.3-.3c.1-.1.1-.2 0-.3 0 0 0-.1-.1-.1s0-.1 0-.1l.2-.2c.2-.2.2-.2.3 0 .1.1.2.1.3 0l.4-.4c.1-.1.1-.2 0-.2l-.1-.1s-.1-.1 0-.1c0-.1 0-.2-.1-.3-.1-.1-.2-.2-.3-.2l-.9-.9c-.1-.1-.3-.1-.4 0-.2.1-.3.3-.4.4l-.6.6-.7.7c-.1.1-.1.3 0 .4l.3.3c.3.3.6.6.9.8.1.1.1.1.2.1s.1 0 .2.1c.2-.1.2 0 .3-.1zm-12-8.8c-.1.1-.1.1 0 .2s.2.2.3.4v.2c-.1.1 0 .1 0 .1l.4.4c.1.1.2.2.3.2.2.1.6 0 .7-.2.2-.2.2-.5.1-.8l-.6-.6H11l-.1.1c-.2-.1-.4-.1-.5-.3-.1-.1-.1-.1-.2 0 0 0-.1.1-.1 0s-.1-.1-.1-.1l.4-.4c0 .1 0 .1.1.1s.1 0 .1-.1-.1-.1-.1-.1c.2-.1.3-.3.4-.4 0 .1 0 .1.1.1s.1 0 .1-.1 0-.1-.1-.1c.1-.1.2-.2.3-.2h.2c.2 0 .3-.1.2-.2-.1-.2 0-.3.1-.4l.1-.1c0 .1 0 .2.1.1v.1c0-.1-.1-.1-.1-.1l.4-.4s0-.1.1 0c0 .1.1.1.2 0s.1-.1 0-.2c-.1 0 0-.1 0-.1l.2-.2c.1-.1.1 0 .2 0s0 .1 0 .1c0 .1-.1.1 0 .1.1.1.2.2.3.4v.2c-.1 0-.1.1 0 .1.2.2.3.4.5.5.2.2.6.2.8 0 .2-.2.3-.6.1-.8l-.6-.6H14l-.1.1c-.2-.1-.4 0-.5-.2l-.1-.1c-.2.1-.3.2-.3.2 0-.1 0-.1-.1-.1l.1-.1c.1-.1.2-.2.3-.1h.2c.1-.1 0-.2 0-.2v-.2l.3-.3c.1-.1.1-.1.2 0l.6.6c.1.1.1.1.2 0l.8-.8s0-.1.1 0v.1c.1.4.1.8.2 1.2 0 .1 0 .2.1.3.1.3.1.5.1.8 0 .1 0 .2-.1.3-.1 0-.1-.1-.2-.1h-.1v.1c.1.1 0 .1 0 .1l-.1.1-1 1s-.1.1 0 .1v.1l-.7.7-1.2 1.2-.1.1c-.1-.1-.1 0-.2 0L11.3 17s-.1.1-.2 0H11v.1-.1.1h-.1c-.2 0-.4-.1-.6-.1-.2 0-.3-.1-.5-.1-.4.1-.8 0-1.2 0h-.1s0-.1.1-.1c.3-.3.6-.6.8-.9.1-.1.1-.1 0-.2l-.6-.6c-.1-.1-.1-.1 0-.1 0 .1 0 .1.1.1L9 15c0-.1 0-.1-.1-.1l.2-.2h.4s.1-.1 0-.2 0-.3.1-.3l.1-.1h.2zm13.8 12.8c.1.1.2.3.4.4.3.3.6.6.9.8.1.1.3.2.5.4.5.3 1 .5 1.5.8h.2l.3-.3c.2-.2.1-.2.3 0 .1.1.1.1 0 .2l-.6.6-1.7 1.7c-.1.1-.1.1-.3 0L24 30.3c-.1-.1-.1-.1-.2 0l-.8.8c-.1.1-.1.1-.2 0-.4-.6-.7-1.3-1.1-1.9-.3-.5-.5-.9-.8-1.4v-.1l.4-.4s.1-.1.1 0l.2.2c.1.1.3.1.4 0l.4-.4c.1-.1.1-.1.2 0l.1.1.4.4v.1l-.2.2c-.1.1-.1.2 0 .3l.6.6c.2.1.3.3.5.4.1 0 0 .1 0 .1-.1.1 0 .1 0 .1s0 .1.1.1c.1.1.1.1.2 0l.9-.9s.1-.1 0-.1c0-.1-.1-.1-.2-.2h-.1c0-.1-.1-.2-.2-.3l-.8-.8c-.2-.1-.2-.2-.2-.3zm1.7-3.8c.4-.4.7-.8 1.1-1.1.1-.1.1 0 .1 0 .7.4 1.5.8 2.2 1.2.4.2.7.4 1.1.6.1 0 .1.1 0 .1l-.8.8c-.1.1-.1.1 0 .2.4.4.8.8 1.3 1.2.1.1.1.1 0 .2-.5.5-.9 1-1.4 1.4-.2.2-.1.2-.3 0-.1-.1-.1-.1 0-.2l.4-.4c.1-.1.1-.1 0-.2-.3-.5-.5-1-.8-1.5 0-.1-.1-.1-.1-.2l-.1-.1c0-.1-.1-.1-.1-.2l-.9-.9c-.2-.2-.4-.5-.7-.7-.3 0-.6-.2-1-.2zm1.9 1.5.2.2c.3.3.4.9.1 1.2-.1.1-.1.1-.2 0-.2-.2-.4-.4-.7-.6-.1 0-.1-.1 0-.1.1-.1 0-.2-.1-.3-.2-.2-.4-.4-.6-.5-.1-.1-.1-.2-.2 0-.1.1 0 .1 0 .2.1 0 .1.1 0 .2-.1.2-.3.4-.4.6l-.7.7c-.1 0-.1 0-.2.1s-.1 0-.1 0 0-.1-.1-.1c-.1-.1-.1 0-.2.1s0 .1 0 .1l.6.6c.1.1.2.1.3.1h.1c.2.3.4.5.6.7.1.1 0 .1 0 .2-.4.3-.9.2-1.2-.1l-.8-.8c-.2-.2-.4-.4-.5-.6-.1-.2-.3-.4-.3-.6v-.2l.9-.9 1.3-1.3c.1-.1.2-.2.4-.1.3.1.6.3.8.5.5.1.8.4 1 .7zm-2.1 7 1.1 1.1c.1.1.1.1 0 .2l-1.2 1.2c-.1.1-.1.1-.2 0L22.8 32s-.1-.1-.2-.1c-.1.1 0 .1.1.2l2.1 2.1c.1.1.1.1 0 .2s-.1 0-.2 0c-.7-.7-1.4-1.5-2.2-2.2-.1-.1-.1-.1 0-.2l1.5-1.5c.1-.1.1-.1.2 0 .4.3.7.7 1.1 1.1zm5.3-5.5c-.1 0-.1 0 0 0-.4-.3-.7-.7-1-1-.1-.1-.1-.1 0-.2l1.5-1.5c.1-.1.1-.1.2 0l.7.7 1.5 1.5c.1.1.1.1 0 .2s-.1 0-.2 0l-1-1c-.3-.2-.5-.5-.7-.8l-.4-.4s-.1-.1-.1 0v.1l1.2 1.2 1 1c.1.1.1.1 0 .2l-.4.4-.9.9c-.1.1-.1.1-.1 0-.6-.5-1-.9-1.3-1.3zm-16.6-7.6.3-.3c.1-.1.1-.1.2 0 .5.5 1 1 1.6 1.5l1.5 1.5s.1.1 0 .1c-.1.3-.1.6-.4.7l-.2.2c-.1.1-.2.1-.4 0l-1.7-1.7c-.2-.2-.1-.1 0-.3.1-.1.1-.2 0-.3l-.2-.2c-.2-.2-.2-.2-.4 0 0 0-.1.1-.1 0l-.7-.7s-.1-.1-.1-.2c0 0 0-.1.1-.1h.1c.1 0 .3-.1.4-.2zm4.3-1.9c-.4-.3-.7-.7-1.1-1.1-.1-.1-.1-.1 0-.2l.7-.7.1-.1c0-.1 0-.1.1-.1s.1 0 .2.1l.6.6c.1.1.1.1 0 .3-.1.1-.1.2 0 .3l.3.3c.1.1.1.1.2 0 0 0 .1 0 .1-.1.1-.1.1-.1.2 0l1 1 .8.8c.1.1.1.2 0 .3l-.3.3c-.1.1-.2.2-.4.2-.1 0-.2 0-.3.1h-.1l-.4-.4c-.7-.6-1.2-1.1-1.7-1.6zm-7.2.7.1-.1c0-.1.1-.1.2 0h.1l1.2-1.2s.1-.1 0-.1v-.1l.9-.9s.1-.1.1 0h.2c.1-.1.1-.1 0-.2v-.1l.8-.8s.1-.1.1 0h.1l.3-.3.9-.9s.1-.1 0-.1c-.1-.1 0-.1 0-.2l.2-.2s0-.1.1-.1v.1c0 .2.1.4.2.5.1.2.3.4.5.6l.9.9s.1.1 0 .1l-.6.6s-.1.1-.1 0c-.1-.1-.1-.1-.2 0l-.1.1c-.1.1-.1.1 0 .2.1 0 .1.1 0 .1l-1.2 1.2h-.1c-.1-.1-.1-.1-.2 0l-.1.1c-.1.1-.1.1 0 .2s0 .1 0 .2l-.2.2-.9.9s-.1.1-.1 0c-.1-.1-.1-.1-.2 0l-.1.1c-.1.1-.1.1 0 .2 0 0 .1.1 0 .1l-.6.6h-.1l-1.2-1.2c-.1-.1-.2-.1-.3-.2-.2-.2-.4-.2-.6-.3zm11 12.5c-.1 0-.2-.1-.4-.1-.1 0-.1 0-.1-.1s-.2-.2-.2-.1c-.1.1-.1 0-.2 0l-.1-.1c-.1-.1-.1-.1 0-.3.1-.1.1-.1.2 0h.2c.1-.1 0-.1 0-.2h-.2L19 26.7s-.1-.1 0-.1c0-.1 0-.1-.1-.1h-.1c0-.1-.1-.1-.1-.1-.7-.6-1.3-1.3-2-1.9v-.1c0-.2-.1-.1-.2-.1h-.1c0 .1 0 .1.1.2.1 0 .1.1.1.1l1 1c.2.2.2.1 0 .3-.1.1-.1.1-.2 0l-1.3-1.3c-.2-.2-.2-.2 0-.3.2-.2.3-.4.6-.4h.2c.1 0 .1 0 .2.1.1.2.3.3.5.5l1.7 1.7c.3.3.7.6 1 1 .2.2.5.4.6.7.3.6.6 1.1.9 1.7 0-.2.1 0 .2.2zm-.8-9.7.6-.6c.1-.1.2-.1.3 0l1.2 1.2s.1.1 0 .2c0 .1 0 .1-.1 0s-.1-.1-.2-.1h-.1s-.1-.1-.1 0v.1c.1 0 0 .1 0 .1l-.3.3c-.1.1-.1.2 0 .3v.1l-.3.3c-.1.1-.1.1-.2 0s-.2-.1-.2 0l-.4.4c-.1.1-.1.2 0 .3l.1.1v.1c-.1 0-.1 0-.2-.1l-1.1-1.1c-.2-.2-.2-.2 0-.4.3-.5.7-.8 1-1.2zm-2.3 8.5-1.5-1.5c-.1-.1-.1-.1 0-.2l.3-.3c.2-.2.1-.2.3 0l2.1 2.1 1.2 1.2.1.1c-.1.2-.1.3 0 .5.1.1 0 .2-.1.3-.1.1-.1.1-.2 0l-.6-.6-1.6-1.6zm-4-4-.6-.6-1.6-1.6c-.2-.2-.2-.1 0-.3.1-.1.1-.1.2 0l1 1 .2.2s.1.1 0 .1 0 .1 0 .1c.1 0 .1.2.3.1h.1l.2.2c.1.1.1.1.3 0 .2-.2.1-.2.3 0 .8.7 1.5 1.5 2.3 2.2l.1.1v.1h-.2l-.3.3v.2h-.1c-.7-.6-1.5-1.3-2.2-2.1zm12.4 2 1.8 1.8-.3-.3V28h.1c.1.1.2.2.3.4l.1.1c.2.1.3.3.4.4-.1-.1-.3-.2-.4-.3-.1-.1-.1-.1-.2 0-.3.2-.5.4-.7.7-.1.1 0 .2 0 .2.1.1.2.2.3.4-.3-.3-.6-.5-.8-.8.1-.1.2 0 .2.1l.2.2-1.8-1.8v.1l1.3 1.3c.1.1.1.1 0 .2l-.3-.3-1.1-1.1c-.1-.1-.1-.3 0-.4l.6-.6c.1-.1.2-.1.3 0l.6.6.8.8s.1 0 0 .1h-.1l-1-1c-.1-.5-.2-.6-.3-.7zm-2-6.8s-.1-.1-.1 0c0 0-.1.1 0 .1.1.2.2.3.4.4h.1c.1 0 .1-.1 0-.1-.1-.1-.1-.1-.1-.3l.8.8v.1l-.2.2v.1s0 .1.1.1c0 0 .1.1 0 .1v.1c0 .1.1.1.1.2h-.1c-.3-.2-.5-.5-.8-.7v-.1c.1-.1 0-.2 0-.2l-.6-.6c-.1-.1-.2-.1-.2 0h-.1l-.8-.8-.9-.9c-.2-.2-.3-.4-.2-.7.1-.2.2-.4.3-.5.1-.1.2 0 .2 0 0 .2.2.3.3.3 0 0 .1 0 0 0v.1l.2.2s.1.1.2.1l.1.1c0 .1 0 .1-.1.1h-.1l-.3-.3-.4-.4c0-.1-.1-.1-.2-.1s-.1.1 0 .1c-.1.1 0 .1.1.1s.1 0 .2.1c.7.6 1.3 1.3 2 1.9.1.2.2.3.1.4zm-13.8-1.2c.3.2.5.5.8.7.1.1 0 .1 0 .1l-.7.7c-.2.2-.3.2-.4 0l-.1-.1-1.2-1.2-.1-.1c.1-.1.1-.2.1-.2l.7-.7c.1-.1.1-.1.2 0 .2.3.4.5.7.8zm6-6.1c-.3-.2-.5-.5-.7-.7-.1-.1-.1-.1 0-.2l.2-.2c.2-.2.4-.5.7-.6h.1l1.4 1.4c.1.1.1.2 0 .4-.2.3-.5.5-.8.8h-.1c-.3-.4-.5-.6-.8-.9zm-3 9.1.7.7c.1.1.1.1 0 .2l-.8.8c-.1.1-.2.1-.3 0L12.8 22l-.1-.1c.1-.1 0-.2.1-.2l.7-.7c.1-.1.1-.1.2 0 .3.1.5.3.8.6zm6-6.1c-.3-.2-.5-.5-.7-.7 0 0-.1-.1 0-.1l.8-.8c.1-.1.2-.1.3 0l1.3 1.3c.1.1.1.2 0 .3l-.8.8h-.1l-.8-.8zm-2.3 2.2 1 1c.1.1.1.2 0 .4L18 20.3c-.2.2-.3.2-.4 0l-.7-.7-1.8-1.8c-.2-.2-.2-.2 0-.4l1.2-1.2c.1-.1.2-.1.4 0 .2.2.4.4.6.5.2.3.6.6.9 1zm11.2 4.2.1.1 1.1 1.1c.1.1.1.1 0 .1l-.4.4h-.1c-.1-.1-.2-.2-.3-.2l-1.3-1.3-.9-.9c-.1-.1-.1-.1 0-.2l.4-.4s.1-.1.1 0l1.3 1.3zm-11.5-1.2c.1 0 .2-.1.3-.1l1.4-1.4s0-.1.1-.1c0 0 0-.1.1-.1l.1.1c.1.1.2.2.4.1.1-.1.2-.1.4-.1.1 0 .1 0 .2.1 0 .1 0 .1-.1.1l-.3.3-1.6 1.6-.6.6s-.1.1-.1 0c.1 0 .1 0 .1-.1 0 0 0-.1-.1-.1s-.1 0-.1.1v-.1c0-.1.1-.3.1-.4 0-.1 0-.2-.1-.3-.1 0-.1-.1-.2-.2zm-9.5-4.1c-.2.3-.5.5-.7.8 0 0-.1.1-.1 0-.2-.2-.5-.4-.7-.7-.1-.1-.1-.1 0-.2l.4-.4c.3-.4.7-.7 1-1.1.1-.1.1-.1.2 0 .2.2.4.5.7.7.1.1.1.1 0 .2-.3.2-.5.4-.8.7zm7.1-7.1-.7.7c-.1.1-.1.1-.2 0l-.7-.7c-.1-.1-.1-.1 0-.2l1.4-1.4c.1-.1.2-.1.3 0l.6.6c.1.1.1.1 0 .2-.3.3-.5.6-.7.8zm11.3 16.2.2.2.3.3c.1.1 0 .1 0 .2s-.1 0-.1 0c-.1 0-.2 0-.3.1l-.7.7c-.1.1-.1.2-.1.3 0 .1 0 .1-.1.1h-.2c-.2-.2-.4-.4-.6-.7l-.2-.2c-.1-.1-.1-.1 0-.1.2-.1.3-.2.5-.4.3-.2.5-.5.7-.8 0-.1.1-.1.1 0 .2 0 .4.1.5.3zM16.2 11.3l.5.5 1.9 1.9.2.2h.1c0 .1 0 .1.1.1.3.2.5.5.8.8.7.7 1.3 1.4 2 2v.1h-.3c-.1 0-.1 0-.2-.1L20 15.5c-.8-.8-1.6-1.6-2.5-2.4L16.4 12c-.1-.1-.2-.1-.2-.2v-.5zM30 23.7c-.3-.2-.6-.3-.9-.5-.5-.3-1-.5-1.4-.8-.3-.2-.6-.3-.9-.5-.1 0-.1-.1 0-.1l.3-.3c.1-.1.1-.1.2 0l.5.5c.1.1.2.1.2.3 0 .1.2 0 .2.1 0 0 .1 0 .1-.1s0-.2-.1-.2-.1-.1-.2-.1l-.4-.4-.4-.4v-.1c.1-.1 0-.1 0-.1s-.1 0 0-.1h.1c.1 0 .1.1 0 .1-.1.1.1.1.1.2s.1 0 .1 0c0-.1.1 0 .1 0l.5.5c.5.6 1.2 1.3 1.9 2zm-.2 6.6-.4-.4c-.1-.1-.1-.1 0-.2l.3-.3c.1-.1.1-.1.2 0l.6.6 1.3 1.3v.1l-.3.3c-.1.1-.1.1-.2 0-.5-.4-1-.9-1.5-1.4zm-19-9.8L9.3 19s-.1-.1 0-.1h.1s.3.1.3 0 .1 0 .1 0l.3.3 1.1 1.1s.1.1 0 .1v.1c.1 0 .1.1.1.1s.1.1.1 0 .1 0 .1 0l.9.9s.1 0 0 .1 0 .2 0 .2c.1.1.1.1 0 .2s-.1.1-.2 0c-.4-.5-.9-1-1.4-1.5zm11.6 4.4-.2.2c-.1.1-.1.1 0 .3 0 0 .1.1 0 .1-.1.1-.2.2-.3.2h-.2c0-.1 0-.1.1-.1 0-.1.1-.1 0-.2l-.5-.5c-.1-.1-.1 0-.2 0l-.1.1h-.1v-.1c0-.1.1-.2.1-.3.1-.1.1-.1.2 0s.1.1.2 0l.4-.4c.1-.1.1-.1 0-.3 0 0-.1 0 0-.1 0-.1.2-.2.3-.2h.1v.1c-.1.1-.1.1 0 .2l.4.4c.1.1.1.1.3 0 .1-.1.1 0 .1 0 0 .1 0 .2-.1.3-.1.2-.1.2-.3 0-.1-.1-.1-.1-.2 0 .2.2.1.2 0 .3zm3.1 3.3c0-.1.1-.1.1-.1.1 0 .2-.1.3-.2h.2c.1.1.2.1.3.2.1.1.3.2.4.2.1 0 .2.1.3.2l.1.1c.1.1.2.1.2.2s-.1.2-.2.2h-.1c0-.1-.1 0-.2 0 0 0-.1.1 0 .2v.1h-.1s-.1 0-.1-.1c-.5-.3-.9-.5-1.4-.8-.1-.1-.1-.1 0-.2 0 .1.1.1.1.1.1 0 .1 0 .1-.1.2.1.1 0 0 0zm2.6-2.7c.1 0 .1 0 .2.1.3.5.5.9.8 1.4 0 .1.1.1.1.2v.1h-.1s-.1-.1-.2 0c-.1 0-.1.1 0 .2s0 .1 0 .2l-.1.1c0 .1-.1 0-.1 0l-.4-.4v-.1c0-.2-.1-.3-.2-.4-.1-.1-.2-.3-.2-.4v-.1c.1-.1.1-.2.2-.4 0-.1.1-.1.2 0 0 0 .1.1.2 0l.1-.1c-.4-.3-.4-.3-.5-.4 0 .1 0 .1 0 0zm-8.6-13c.1-.1.1-.1 0-.2l-.1-.1s-.1-.1-.1 0-.1 0-.1 0l-.7-.7c-.1-.1-.1-.1 0-.3.1-.1.1-.1.2 0l2.8 2.8c.2.2.2.2 0 .4h-.1l-.7-.7c.1 0 .1 0 .1-.1s-.2-.2-.2-.2h-.1c0 .1-.1 0-.1 0l-.3-.3c-.2-.2-.2-.2-.3 0l.1-.1c.1-.1.1-.1 0-.2s-.2-.2-.4-.3zm-1.9 8.9c.2.2.5.3.3.7v.1s0 .1-.1 0h-.1l-.8.8s-.1.1 0 .1c0 0 .1.1 0 .1h-.1l-.3-.3v-.1c.1-.1.1-.2 0-.2-.2-.2-.3-.4-.5-.5l-1.2-1.2v-.1c.1-.1.1 0 .1 0l1.7 1.7.1.1c.1.1.2.1.3 0l.4-.4c.1-.1.1-.1.1-.2 0-.4.1-.5.1-.6zm2.8-4.7-.9-.9s-.1-.1 0-.1c.1-.1.1-.1.1 0l.4.4.9.9c.1.1.1.2.2.2l.3.3c.1.1.1.1.2 0 0 0 0-.1.1 0l.3.3v.1h-.2l-.8.8s-.1.1 0 .2v.1c-.1 0-.2.1-.3.1h-.1l-.2-.2v-.1c.1 0 .2-.1.3-.1.1 0 .1 0 .2-.1l.4-.4c.1-.2.1-.3 0-.4-.3-.5-.6-.8-.9-1.1zM10 18.1c-.2.1-.3.3-.5.4h-.2l-.3-.3c-.1-.1-.1-.1 0-.2l.9-.9h.1l.4.4c.1.1.1.1 0 .2l-.4.4zm6.5-7.6.4-.4h.1l.3.3c.1.1.1.2 0 .3-.2.3-.5.5-.7.8-.1.1-.1 0-.1 0l-.4-.4c-.1-.1-.1-.1-.1-.2.2-.1.3-.3.5-.4zm-4.1 10.1.4-.4c.1-.1.1-.1.2 0l.3.3c.1.1.2.1 0 .3-.3.3-.5.6-.8.8h-.1l-.4-.4V21c.2-.1.3-.3.4-.4zm7.1-7.1.4-.4c.1-.1.1-.1.2 0l.3.3c.1.1.1.2 0 .4-.2.3-.5.5-.8.8-.1.1-.1 0-.1 0l-.4-.4c-.1-.2-.1-.2 0-.3.1-.1.3-.2.4-.4zm9.6 15.3v.1-.1c.1.1.1 0 .1 0v-.1h.2c.2.1.4.3.5.4.1 0 0 .1 0 .1-.3.3-.6.6-.8.9 0 0-.1.1-.1 0-.1-.2-.2-.3-.4-.5-.1-.1-.1-.2 0-.3 0 0 0 .1.1 0 0 0 .1 0 .1-.1s0 0-.1 0c.1-.1.2-.3.4-.4zm-16.7-8.3-.4.4c0 .1-.1.1-.1 0l-.3-.3s-.1-.1 0-.1c.1-.1 0-.2.1-.2l.8-.8c.1-.1.1-.1.2 0l.3.3c.1.1.1.1 0 .1l-.6.6zm7-7.1-.4.4c-.1.1-.1.1-.2 0l-.3-.3c-.1-.1-.1-.1 0-.2.2-.2.3-.4.5-.5l.3-.3h.1l.3.3v.1c0 .2-.1.4-.3.5zm-4 10.1-.4.4c-.1.1-.1.1-.2 0l-.2-.2c-.1-.1-.1-.2 0-.3l.8-.8h.1l.3.3c.1.1.1.1 0 .2-.2.1-.3.2-.4.4zm6.5-7.5.3-.3c.2-.2.2-.2.4 0l.1.1c.1.1.1.1 0 .2-.3.3-.6.5-.8.8-.1.1-.1 0-.1 0l-.3-.3c-.1-.1-.1-.1 0-.2.2 0 .3-.2.4-.3zm-8.7-4.6c.1-.1.3-.1.4-.1-.1.1 0 .1.1.1h.2c.1 0 .1 0 .1.1v.1c.1 0 .2.1.3.2.1.1.1.3 0 .4-.1.1-.2.2-.4.1-.1-.1-.2-.1-.3-.3 0 0 0-.1-.1-.1s-.1 0-.1-.1v-.2s0-.1-.1-.1c-.1.1-.1 0-.1-.1-.1.2-.1 0 0 0zm-2 3.4c.2.2.2.5 0 .6-.2.1-.5 0-.5-.2 0 0 0-.1-.1-.1s-.1 0-.1-.1v-.1c0-.1 0-.2-.1-.1l-.1-.1c0-.1 0-.3.1-.4.1-.1.3-.1.4 0-.1.1 0 .1.1.1h.1s.1 0 .1.1c-.1.1 0 .1 0 .1 0 .1.1.1.1.2zm5.1-2.7c.1 0 .1 0 0 0 .3.3.5.5.7.6l1 1c.1.1.1.2 0 .3-.1.1-.1.1-.2 0l-.6-.6-.7-.7c-.1-.1-.1-.4-.2-.6zm7.6 16.1.4-.4s0-.1.1 0 .3.2.3.4v.2l-.6.6c-.1.1-.2.1-.3 0l-.3-.3v-.1c.2-.1.3-.3.4-.4zM11 17.4h.2c.3.1.5.2.7.4l.8.8.3.3c.1 0 .1.1 0 .1-.1.1-.2.2-.4 0l-1.2-1.2-.4-.4zm14.9 14-.3.3c-.1.1-.1 0-.1 0-.1-.1 0-.1 0-.1.1-.1.2-.3.4-.4l1.1-1.1c.3-.3.6-.6.9-1 0 0 .1-.1.1 0s.1.1 0 .2l-.3.3c-.6.6-1.3 1.2-1.8 1.8zm-6.7-4c-.5-.5-1-.9-1.4-1.4l-.1-.1s-.1-.1 0-.1h.1c.4.3.7.7 1 1l1.3 1.3.8.8s.1 0 0 .1h-.1c-.1 0-.1-.1-.2-.1-.4-.6-.9-1.1-1.4-1.5zm5.8-7.3h-.2c0 .1 0 .1.1.1l.6.6v.1l-.2.2c-.1.1-.1.1-.2 0l-.6-.6c-.1-.1-.1-.1 0-.2l.3-.3c.1 0 .1 0 .2.1zm-8.7-11c.1-.1.1-.2.2-.1.3.3.6.6.8.9l1.1 1.1c.2.2.1.2 0 .3-.1.1-.1.1-.2 0l-.5-.5s-.1-.1 0-.1v-.1l-.1-.1s-.1-.1 0-.1c0-.1 0-.1-.1-.1 0 0-.1-.1-.1 0-.1.1-.1 0-.1 0s-.1-.1 0-.1c.1-.1 0-.1 0-.2s-.1-.1-.1 0c-.1.1-.1 0-.1 0s-.1-.1 0-.1c0 0 .1-.1 0-.1s-.1-.2-.2 0h-.1s-.1-.1 0-.1c0 0 .1-.1 0-.1s-.1-.1-.2-.1h-.1l-.2-.4zm1.5 11.3c.1 0 .2-.1.3-.1l1.2-1.2c.1-.1.1-.1.1-.2 0 0 0-.1.1 0h.1c.1 0 .1.1.1.2l-.1.1c-.4.4-.8.8-1.1 1.2-.1.1-.2.3-.4.3s-.3-.1-.3-.3c0 .1 0 .1 0 0zm9.3.2-.2.2h-.1s-.1 0 0-.1 0-.1 0-.2c0 0-.1-.1-.2 0s-.1 0-.1 0-.1-.1 0-.1c.1-.1 0-.1 0-.1-.1 0-.1-.2-.2-.1h-.1v-.1c.1-.1.1-.1.1-.2.1-.1.2-.2.4-.3h.1v.2c.1.2.1.2 0 .3l-.1.1c-.1.1-.1.1 0 .2v.1c0 .1.1.1.1 0l.2-.2c.1-.1.1-.1.2 0 0 0 .1.1.1 0h.1v.1c-.1 0-.2.1-.3.2zm-9 5.9c-.1 0-.1-.1-.1-.1l-.4-.4s-.1-.1 0-.1h.1l.9.9 1.7 1.7.6.6v.1h-.1c0-.1-.1-.1-.2-.1l-.3-.3-.4-.4-.4-.4-.4-.4c-.3-.4-.7-.7-1-1.1zm11.8.8c-.2.3-.5.5-.8.8 0 0-.1.1-.1 0 0 0-.1-.1 0-.1.5-.5 1-1 1.5-1.6 0 0 .1-.1.1 0 0 0 .1.1 0 .1-.2.2-.5.5-.7.8zM22 23l.1-.1c.1-.1.3-.1.4 0 .1.1.1.1 0 .2l-.1.1c-.1.1-.1.1 0 .2l.1.1c.1 0 0 .1 0 .1 0 .1-.1 0-.1 0-.2 0-.3 0-.4.1l-.1.1h-.1v-.1l.1-.1c.1-.1.1-.1 0-.2-.1-.2-.1-.2.1-.4zm-1.4 1.5c0-.1 0-.1 0 0 .2-.2.2-.2.3-.1.1.1.2.2.3 0h.1v.1c-.1.1-.2.2-.1.4v.1h-.1c-.1-.1-.2-.1-.3 0-.1.1-.2.1-.2 0v-.1c-.2-.2-.1-.3 0-.4zm2-9c.1-.1 0-.2 0-.2-.1-.1-.1-.2-.2-.1s-.1 0-.2 0l-.5-.5c-.2-.2-.2-.1 0-.3h.1l.9.9s.1.1 0 .1c0 0 0 .1-.1.1zm.4 10.2c.1.4.3.7.5 1-.1 0-.1-.1-.2-.1-.2-.2-.3-.2-.4 0l-.2.2c0-.1 0-.2-.1-.2s-.1-.1-.2-.1v-.1c.2-.3.4-.5.6-.7zm-4.1-4.5c0 .1 0 .1 0 0-.1.1-.1.2-.2.3-.3.3-.6.6-.9 1l-.4.4c-.1.1-.2.1-.2.2v.1h.2l-.3.3c-.1.1-.3.1-.5.1.7-.7 1.5-1.6 2.3-2.4zm5 2.9c.1.1.1.3 0 .5-.1.1-.1.2-.2.2h-.1c-.2-.2-.2-.1-.4 0h-.1v-.1c.1-.1.2-.3.1-.5 0-.1 0-.1.1-.1h.1c.2.1.2.1.3 0h.2zm1.7 1.8c-.1.1-.3.2-.4.3-.1.1-.2.1-.3.2-.1.1-.1 0-.1-.1v-.1c.5-.4.9-.8 1.2-1.2h.1c.1 0 .1.1.1.2-.2.2-.4.4-.6.7zm-3.3.3c0 .1-.1.1-.2.2s-.3.1-.4 0c-.1 0-.1-.1 0-.2s.1-.1.1-.2-.1-.1-.1-.2v-.1h.1c.2.1.3 0 .5-.1 0 0 .1-.1.1 0v.1c-.1.1-.1.1 0 .3.1 0 .1 0-.1.2.1 0 .1 0 0 0zm.9 1.3.4-.4c.1-.1.1 0 .2 0 .1.1.1.1 0 .2l-.2.2c-.1.1-.1.1 0 .2 0 0 .1.1 0 .1h-.1c-.1-.1-.1-.1-.2 0 0 0-.1.1-.1 0-.1 0-.2 0-.2.1s-.1.2-.1.2c-.1 0-.1-.1-.1-.1v-.1c.2-.1.3-.3.4-.4zm-8.8-7.1c-.2-.2-.2-.2 0-.5.1-.1.1-.1.2 0l.3.3c.1.1.1.1 0 .2l-.2.2h-.1l-.2-.2zm9.4 7.2c.1-.1.1-.1 0 0 .2.1.2.1.3.2v.1l-.4.4h-.1l-.2-.2c.1 0 .1.1.2.2 0-.1-.1-.1-.1-.2-.1-.1-.1-.1-.1-.2 0 0 0-.1.1-.1s.2 0 .2-.2c0 .1 0 0 .1 0 0 .1.1.2.2.2 0 0 .1.1.1 0-.1-.1-.2-.1-.3-.2zm-4.5-12.2.2.2v.1c-.1.1-.2.1-.2.2-.1.1-.1.1-.2 0 0-.1-.1-.1-.2-.2-.2-.2-.2-.2 0-.4s.2-.1.4.1c0-.1 0 0 0 0zM22 26.5l-.5.5v.1l.3.3c.1.1.1.1.2 0l.5-.5c.1-.1.1-.1 0-.2l-.2-.2v-.1h.1l.2.2c.1.1.1.2 0 .3l-.5.5c-.1.1-.1.1-.2 0l-.5-.5c-.1-.1-.1-.2 0-.2l.3-.3h.1c-.1 0 0 0 .2.1zm4.8-5.4.2.2v.1c-.1.1-.1.2-.2.2h-.1c0-.1-.1-.2-.2-.2s-.1-.1-.2-.1c-.1-.1-.1-.1 0-.2l.1-.1c.2-.2.1-.2.3 0l.1.1zm-4.9-2.9c0 .1 0 .1-.1.1l-1.5 1.5-.6.6c-.1.1-.2.1-.2.1 0 .1-.2.2-.2.3-.1 0-.1.1-.2.1.9-.8 1.8-1.8 2.8-2.7zM8.6 17c.3 0 .7.1 1 .1.1 0 0 0 0 .1-.1.1-.2.2-.3.4h-.1l-.6-.6zm7.3-7.3c.2.2.4.3.6.5 0 0 .1.1 0 .1l-.4.4c-.1-.3-.1-.6-.2-1zm2 4.6c.1-.1.2-.2.3-.4h.1c.1 0 .1.1 0 .2 0 0-.1.1 0 .1.1.1.2.2.3.4 0 0 0 .1.1.1l.3.3s.1.1 0 .1c-.1.1-.1 0-.1 0l-.7-.7c-.1 0-.2-.1-.3-.1zm-1.8 8.3s.1 0 0 0c.2.2.4.4.6.5v.1l-.4.4c0-.3-.1-.6-.2-1zm5.7.7h.1s.1.1.1.2-.1.2-.2.1h-.1l-.5.5s-.1.1 0 .1c.1.1 0 .1-.1.2s-.1.1-.2 0-.1-.1 0-.2c.2-.2.4-.5.7-.7 0 0 .1-.1.1 0h.1c.1 0 .1-.1.1-.1 0-.1-.1-.1-.1-.1zm-.3 2.8-.8-.8s-.1 0-.1-.1.1-.1.1-.2h.1c0 .1.1.1.1.2v.1l.5.5s.1.1.1 0c.1-.1.2.1.2.1.1.1 0 .1-.1.2 0-.1 0-.2-.1-.2v.2zm.1-8.9c.3 0 .6.1.9.1.1 0 .1 0 0 .1l-.3.3h-.1c-.2-.1-.3-.3-.5-.5zm-11-2c.1.2.4.3.6.2h.2v-.2c.1-.2 0-.4-.1-.5-.1-.1 0-.1 0-.1 0-.1.1 0 .1 0s.1.1 0 .1v.1s.1.1.1 0c.1 0 .1 0 .1.1 0 .2-.1.4-.2.6-.2.1-.4.2-.6.1l.1-.1h-.1c-.1 0-.1.1-.1.1l-.4-.4c.1 0 .1 0 .1-.1 0 0 0 .1.1.1 0 0 .1.1 0 .1v.1h.1v-.2zm9.7 3.6.1.1c.1.1 0 .1 0 .1-.1 0-.2.1-.4.1h-.2l-.2-.2v-.1c.1 0 .2 0 .3-.1.2 0 .4 0 .4.1zm2.2 6.1.2-.2c0-.1.1-.1.1 0s.1.1.1.2v.2h-.2s-.1.1 0 .1v.1h-.1c-.1-.1-.1 0-.1 0-.1.1-.1.1 0 .1v.1h-.1l-.2-.2c-.1 0-.1-.1 0-.1l.3-.3zM13.3 19c0 .1.1.2.2.3l.6.6.1.1v.1h-.1L14 20c-.1-.1-.2-.3-.3-.3l-.3-.3c-.1 0-.1-.1-.2 0l-.1.1c-.1 0-.1 0-.1-.1 0 0-.1-.1 0-.1.1-.1.1-.2.3-.3zm9.4 5.1-.2-.2s-.1-.1 0-.1c0-.1.1-.1.1-.1H22.9v.1c-.1 0 0 .1 0 .1s.1.1.1 0h.1v.1H23s.1.1.1 0h.1v.1l-.2.2h-.1c0-.1-.1-.1-.2-.2zm-1.8-4.5-1.1 1.1s0 .1-.1 0v-.1l2-2 .1-.1h.1v.1l-.1.1-.9.9zm-3.1 1.8c0-.1-.1-.1-.1-.1v-.1c0-.1.1-.3.1-.4 0-.1 0-.1.1 0l.2.2c.1.1.1.1 0 .2 0 .1-.1.2-.1.4 0 .1-.1.1-.1 0s-.1-.1-.1-.2zm3.9 3.7.2.2s.1.1 0 .1c0 .1-.1.1-.2.1h-.2v-.1c.1-.1 0-.1 0-.1 0-.1-.1 0-.1 0h-.1v-.1c.1 0 .1-.1 0-.1 0 0-.1-.1-.1 0h-.1V25l.2-.2c0-.1.1-.1.1 0 .1.2.2.3.3.3zm.2-.8c-.1.1-.1.2-.2.2h-.1c-.1 0-.1-.1-.1-.1V24.1h.1c.1.1.1 0 .1 0 .1 0 0-.1 0-.1v-.1h.1c.1.1.1.1.1 0 .1-.1 0-.1 0-.1v-.1h.1l.2.2c.1.1.1.1 0 .2-.2 0-.3.1-.3.2zm.7-1.2c.1.1.1.2.2.1h.1l.8.8v.1s-.1.2-.2.1c-.1 0-.1-.1-.1-.2v-.1l-.5-.5s-.1-.1-.1 0c-.1 0-.1-.1-.2-.1-.1-.1 0-.1 0-.2zm0 2.9c-.1 0-.1-.1-.2-.1.1-.1.1-.2.2-.1 0 0 .1 0 .1-.1l.5-.5s.1-.1 0-.1c-.1-.1 0-.2.1-.2.1-.1.1 0 .2 0 0 0 .1.1 0 .2l-.7.7s-.1.1-.1 0h-.2s0 .1.1.2zm.8 4.9-.5.5s-.1.1-.1 0v-.2l.9-.9s.1-.1.1 0c.1.1 0 .1 0 .1-.1.2-.2.3-.4.5zM24.7 18s0 .1 0 0c-.2.2-.2.2-.3 0 0 0-.1-.1-.1 0 0 0-.1.1-.1 0v-.1c.1-.2.3-.4.5-.4h.1v.2c.1.2.1.2-.1.3zm-3.3 11.9c.1-.1.4-.1.5 0v.1l-.5.5h-.1c0-.2 0-.5.1-.6zm.4-3.2.2-.2s.1 0 .1-.1c.1 0 .1.1.2.1.1.1 0 .1 0 .1l-.5.5c-.1.1-.1 0-.2 0 0 0-.1-.1 0-.2s.2-.1.2-.2zm3.4-8.1-.2.2h-.1s-.1-.1 0-.1c.1-.1 0-.1 0-.2-.1 0 0-.1 0-.1l.2-.2c.1-.1.1-.1.2 0 0 .1.1.1.1 0h.1v.1c-.2.1-.2.2-.3.3zm1.4 9.3.3.3s.1 0 0 .1h-.1c-.3-.1-.5-.3-.8-.4v-.1h.4c.1-.1.1 0 .2.1zm-3.9 3.2c-.2-.2-.5-.4-.7-.7-.2-.2-.2-.1 0-.4.1-.1.1-.1.1 0 .3.5.5.8.6 1.1zM22 17c0-.1 0-.1 0 0 .2-.2.3-.4.5-.5h.1c0 .1.1.2.1.2.1 0 .1.1.2.1.1.1 0 .1 0 .1-.4 0-.6 0-.9.1zm-6.1 7.1c0-.4.1-.9.1-1.3.1.3.1.6.2.9v.1l-.3.3zm9.3-1.7c-.1-.1-.1-.2-.1-.2 0-.1.1 0 .1-.1l.1-.1s0-.1.1-.1c.2 0 .3.1.3.3 0 0 0 .1-.1.1s-.1 0-.1.1 0 .1-.1.1-.2 0-.2-.1zm-3.4-5.3c.1-.1.2-.1.3-.1.2 0 .5-.1.7-.1h.1v.1l-.2.2s-.1.1-.1 0c-.2 0-.5 0-.8-.1zm6.2 10c-.2-.2-.3-.4-.5-.5-.1-.1-.2-.2-.1-.3 0 0 0-.1.1-.1s.1 0 .1.1c.1.2.2.3.3.5 0 0 .1.1.1.3zm-5.8-5c-.1 0-.1-.1-.1 0l-.1.1c0 .1.1.1 0 .2-.1 0-.1-.1-.2 0s-.1.1 0 .3c-.1-.1-.2-.1-.2 0 0 0-.1 0-.1-.1s0-.1.1-.2l.2-.2c.2-.3.2-.3.4-.1zm-3.1-.7-.2.2c-.2.2-.4.5-.7.7l-.8.8-.1.1c-.1 0 0-.1.1-.1l1.4-1.4c.1-.2.2-.3.3-.3zm3.5-3.9v.2c0 .1 0 .2-.1.3l-.3.3h-.1v-.1c0-.1 0-.1-.1-.1.1-.1.1-.1.1-.2 0 0 0-.1 0 0h.1l.4-.4zm-3 .9.1-.1h.1l.2.2c.1.1 0 .1 0 .1-.1 0-.2.1-.3.1-.1 0-.2 0-.2-.1-.1 0 0 0 .1-.2-.1.1 0 .1 0 0zm3 13.5s.1 0 0 0c.8.8 1.6 1.5 2.3 2.3l-2.3-2.3zm-5-10.7-.3-.3v-.1l.2-.2s0-.1.1-.1.2.1.1.2c0 .1-.1.3-.1.5zm7.1 5.5-.3-.3s-.1 0 0-.1c0-.1.1-.1.2 0 .1.2.3.3.4.5 0 .1.1.1.2.1h.1v.1c0 .1-.2.1-.2 0-.2-.1-.3-.2-.4-.3zm1.9-1.8.2.2c.1.1.1.1 0 .2 0 0 0 .1-.1.1 0 0-.1 0-.1-.1s0-.1-.1-.2c-.2-.1-.3-.3-.5-.4-.1-.1 0-.1 0-.1 0-.1.1 0 .1 0 .2.1.3.2.5.3zm-2 4-.4.4s-.1.1-.1 0c-.1-.1 0-.1 0-.1l.8-.8s.1-.1.1 0c.1.1 0 .1 0 .1-.1.1-.2.3-.4.4zM23 26.6s0-.1 0 0c.1-.1.2-.1.2-.1.1.2.1.3 0 .4l-.1.1c-.1 0-.2.1-.2 0h-.1c-.1 0-.1 0 0-.1 0-.1.1-.2.2-.3zm7.2-2.8c-.1 0-.1.1-.1.1.1.1 0 .1 0 .2l-.1.1v-.1s-.1 0-.1.1 0 .1.1.1l-.1.1c-.1.1-.1.1-.2 0h-.1v.1s.1 0 .1.1l-.1.1s-.1.1-.1 0h-.1v.1h.1c-.1.1-.1 0-.1 0-.1 0 0-.1 0-.1.3-.3.6-.6.8-.9-.1.1-.1 0 0 0zM13.6 12.6l-.5-.5c-.1-.1 0-.1 0-.1v.1h.2s.1.1 0 .1v.1h.1c.1-.1.1 0 .1 0 .1.1.3.2.4.1h.2c0 .3-.2.3-.5.2.1 0 .2 0 .2-.1h-.1c-.1-.1-.1 0-.1.1zm-4.2 1.6c0-.1 0-.1.1-.1l.6-.6c.3-.3.6-.6.9-.8l.1-.1-.1.1-1.4 1.4s-.1.1-.2.1zm2.8-2.8c0-.1 0-.1 0 0l.8-.8s0-.1.1 0v.1l-.4.4-.9.9-.3.3s-.1.1-.1 0v-.1l.8-.8zm20.9 14.5c-.8-.8-1.6-1.5-2.3-2.3.8.8 1.6 1.5 2.3 2.3zm-6-6.1-.4-.4v-.1h.1l.1.1.5.5.2.2s.1.1 0 .1c0 .1-.1 0-.1 0l-.4-.4zM24 17.3l-.2.2h-.1s-.1-.1 0-.1c.1-.2.3-.3.4-.5h.1v.1c-.1.2-.1.3-.2.3zm4.7 11.6c.2-.2.3-.3.4-.3h.1v.1c-.1.1-.3.2-.4.4-.1.1-.2.2-.2.3v-.2c-.1-.1 0-.2.1-.3zM15.8 12.3c0 .1-.1.1 0 .2 0 0 0 .1-.1.1s-.2.1-.2.2c0 0 0 .1-.1.1s-.2.1-.2.2c0 0 0 .1-.1.1s-.2.1-.2.2c0 0 0 .1-.1.1s-.2.1-.2.2c0 0 0 .1-.1.1h-.1v-.1l.1-.1 1-1 .3-.3zM11 17.9c.8.8 1.7 1.6 2.5 2.4-.9-.7-1.7-1.5-2.5-2.4zm12.8-.7c0 .1 0 .1 0 0-.1.1-.1.1-.2.1-.1-.1 0-.1 0-.1.1-.2.3-.3.4-.5 0 0 .1-.1.1 0 0 0 .1.1 0 .1-.1.1-.2.3-.3.4zm3.7 3.1c0-.1 0-.1.1-.1h.1s.1.1 0 .1c-.2.1-.3.3-.5.5 0 0-.1.1-.1 0-.1-.1 0-.1 0-.1l.4-.4zm0 .5-.2.2h-.1v-.1c.1-.2.3-.3.4-.5h.1v.1c0 .2-.1.3-.2.3zm-1.2-1.2-.1.1h-.1v-.1l.2-.2.3-.3c0-.1.1 0 .1 0v.1c-.2.2-.2.3-.4.4zm-13.8-3.7c0 .1 0 .1-.1.1l-1 1-.1.1h-.1V17h.1c.1 0 .2-.1.2-.2 0 0 0-.1.1-.1s.2-.1.2-.2 0-.1.1-.1.2-.1.2-.2c0 0 0-.1.1-.1s.2-.1.2-.2v-.1c-.1.2 0 .1.1.1zm12.9 2.8c.1-.1.1-.2.2-.2h.1v.1l-.4.4h-.1v-.1c.1 0 .2-.1.2-.2zM11.1 17c0-.1.1-.1.1-.1l1-1s0-.1.1 0v.1s0 .1-.1.1-.2 0-.2.2c0 0 0 .1-.1.1s-.2.1-.2.2c0 0 0 .1-.1.1s-.2.1-.2.2c0 0 0 .1-.1.1s-.2.1-.2.2v.1c.2-.4.1-.4 0-.3zm14.5 1.4c0 .1 0 .1 0 0-.1.1-.2.3-.3.4 0 0-.1.1-.1 0v-.1l.5-.5s.1-.1.1 0c.1.1 0 .1 0 .1-.1.1-.2.1-.2.1zm-1.5-1 .2-.2h.1s.1.1 0 .1v.1l-.4.4s-.1.1-.1 0c0 0-.1-.1 0-.1 0-.1.1-.2.2-.3zm.4.2-.2.2h-.1v-.1c.2-.2.3-.4.5-.5 0-.1.1 0 .1 0s.1.1 0 .1c-.2.1-.2.2-.3.3zm1.5 1.8c.1-.1.1-.2.2-.2h.1s.1.1 0 .1c0 0 0 .1-.1.1l-.4.4s-.1.1-.1 0v-.1c.2-.2.3-.2.3-.3zm-4.1 3.5.1-.1s.1-.1 0-.1l-.1-.1h-.1v-.1H22.1c.1-.1.1-.1 0-.2v-.1h.2c.1 0 .1.1.1.1s0 .1-.1.1c-.1.2-.2.3-.4.5zm-7.2-9.3c0-.1.1-.1.1-.2.1 0 .2-.1.2-.2 0 0 0-.1.1-.1s.2-.1.2-.2c0 0 0-.1.1-.1s.2-.1.2-.2c0 0 0-.1.1-.1s.2-.1.2-.2v-.1h.1v.1c-.3.4-.7.7-1 1.1-.2.2-.2.2-.3.2zm7.8 18c-.1 0-.1.1 0 0l-.2.2c-.1.1-.1.1-.2 0v-.1h.1c.1 0 .1 0 .1-.1s.2-.2.2-.2c.1 0 .1 0 .1-.1v-.1c.1 0 .1.1.1.2-.1.1-.2.1-.2.2zM10.2 18.1l-.4.4s0 .1-.1 0v-.1l.7-.7s.1-.1.1 0v.1l-.3.3zm12.9 5.6.2.2v.1h-.1s-.1-.1-.1 0H23v-.2s-.1-.1-.1 0c0 0-.1.1-.1 0v-.2s-.1-.1-.1 0h-.1c0-.1.1-.1.1-.1h.1c.2 0 .2.1.3.2zm-11.2-3.9.4-.4s0-.1.1 0v.1l-.7.7s-.1.1-.1 0v-.1c.1 0 .2-.1.3-.3zm3.1 3.1-.3.3s-.1.1-.1 0v-.1l.7-.7s.1-.1.1 0v.1l-.4.4zm-1.8-1.8-.3.3s0 .1-.1 0v-.1l.7-.7s.1-.1.1 0v.1c-.1.2-.3.3-.4.4zm3.8-10c.1-.1.2-.2.2-.3 0 0 .1-.1.1 0v.1c-.2.2-.4.5-.7.7 0 0-.1.1-.1 0v-.1c.2-.1.4-.2.5-.4zm13.7 12.5s-.1 0 0 0c-.1.1-.2.1-.2.2 0 0-.1.1-.1 0v-.1l.4-.4s.1-.1.1 0v.1c-.1 0-.2.1-.2.2zM21.8 16l.4-.4s0-.1.1 0v.1l-.7.7s-.1.1-.1 0v-.1c0-.1.1-.2.3-.3zM20 14.3l-.4.4h-.1v-.1l.7-.7s.1-.1.1 0v.1s-.1.2-.3.3zm-1.4-1.1-.2.2s0 .1-.1 0v-.1l.7-.7h.1v.1c-.1.2-.3.3-.5.5zm.2 13.5c.3.2 2.3 2.2 2.3 2.3-.8-.8-1.5-1.6-2.3-2.3zm-4.4-14.3c0-.1-.1-.1 0-.1.1-.2 0-.4-.1-.6l.1-.1s.2.1.1.2v.1h.1c.1 0 .1 0 .1.1-.2.1-.2.3-.3.4zm8.1 19.2.2-.2s.1-.1.1 0v.1l-.2.2-.1-.1c0 .1 0 .1 0 0 0 .1 0 .1 0 0 .1.1 0 .2 0 .2l-.1.1h-.1v-.1l.2-.2zm3-12.2c-.1 0-.1-.1-.1-.1-.1 0 0-.1 0-.1 0-.1.1 0 .1 0l.3.3s.1.1 0 .1c-.1.1-.1 0-.1 0-.1-.1-.2-.1-.2-.2zm-4.2 6.1-.2-.2v-.1h.1c0 .1.1 0 .1 0h.1v.1c-.2 0-.2.1-.1.2.1 0 .1 0 .2-.1h.1s-.1.1 0 .1.1.1.2 0c0 0 .1 0 0 0 0 .1-.1.1-.1.1h-.1c-.2.1-.3 0-.3-.1zm.2-1.6.2-.2h.1V24h-.1c-.1-.1-.1-.1-.2-.1 0 .1 0 .1.1.2v.1h-.1c0-.1-.1 0-.1 0-.1.1 0 .1 0 .1-.1 0-.1-.1-.1-.1v-.1c0-.1.1-.1.2-.2zm-6.1-1.6c-.6-.6-1.2-1.2-1.8-1.7.6.5 1.2 1.1 1.8 1.7zm7.5 3-.2.2h-.1v-.1s.1-.1 0-.1v-.1h.1s.1.1.1 0c0 0 .1-.1 0-.2v-.1s.1.1.1 0c.1-.1 0-.1 0-.2 0 0 0-.1 0 0 .1 0 .1.1.1.1v.1c0 .3 0 .4-.1.4zm2.5-5.7c-.8-.7-1.5-1.5-2.2-2.2.7.8 1.5 1.5 2.2 2.2zm-6.9 6.7c-.7-.7-1.4-1.3-2-2l2 2zm3.4 4.9c-.1-.1-.1-.2 0-.3.1-.1.2-.1.2 0 .1.1.1.2 0 .3-.1.1-.2.1-.2 0zm-4.6-8.1c.8-.8 1.5-1.6 2.3-2.3-.8.7-1.6 1.5-2.3 2.3zm-2-.8c-.6-.5-1.1-1.1-1.7-1.6.6.5 1.2 1.1 1.7 1.6zm9.8-4.6.3.3.1.1h-.1l-.1-.1c-.1-.1-.2-.2-.2-.3-.2 0-.3-.1-.3-.2v-.1h.1c.1.1.2.2.2.3zm-9.9-7.8.3-.3s0-.1.1 0v.1c-.2.2-.3.4-.5.5 0 0-.1.1-.1 0v-.1l.2-.2zm8.5 6.4.3.3v.1c-.1-.1-.2-.1-.2-.2s-.1-.2-.3-.3c-.1 0-.1-.1-.1-.2v-.1h.1c0 .2.1.3.2.4zm-14.9 0 .3-.3h.1v.1c-.2.2-.3.4-.5.5 0 0 0 .1-.1 0v-.1l.2-.2zm10.9 4.3 2.2-2.2-2.2 2.2zm6.8 1.3-2.4 2.4c.8-.7 1.5-1.6 2.4-2.4zm-9.1 4-2.1-2.1c.6.7 1.4 1.4 2.1 2.1zm5.2-9.6.2-.2c.1-.1.1-.1.1-.2v-.1l.1-.1s.1-.1.1 0c.1.1.1.1 0 .2-.1 0-.3.2-.5.4.1 0 .1 0 0 0zm7.6 7.4-2.5-2.5c.8.9 1.6 1.7 2.5 2.5zm-14.7-5.1-.2-.2s-.1 0 0-.1h.1l.4.4s.1 0 0 .1h-.1c-.1-.1-.1-.2-.2-.2zm.6.6c-.1-.1-.1-.2-.2-.2 0 0-.1 0 0-.1h.1l.4.4v.1h-.1c-.1-.1-.1-.2-.2-.2zm-7.7-2.3c.4 0 .9.1 1.3.1-.4.1-.8 0-1.3-.1zm7.6-6.1c-.1-.4-.2-.9-.3-1.3.2.4.3.9.3 1.3zm-3.7 8.5L11 18l1.3 1.3zm9.4 12.1-.2-.2v-.1h.1c.1.1.3.2.4.4v.1h-.1l-.2-.2zM18 17.2l-.2-.2v-.1h.1l.4.4s.1.1 0 .1h-.1l-.2-.2zm5 9.9c.2 0 .4 0 .3-.3.1.1.2.3.1.4-.1.1-.2 0-.4-.1zm-8.1-9.2-.2-.2v-.1h.1l.3.3v.1H15s-.1 0-.1-.1zM8.5 17c.3.2.5.4.7.7-.3-.2-.5-.4-.7-.7zm9-.4.2.2s.1 0 0 .1h-.1l-.4-.4s-.1 0 0-.1h.1l.2.2zm5.8 11.9s0-.1 0 0l-.1-.1.1-.1c.1 0 .1.1.2.2 0 .1-.1.1-.2 0zm-6-8.3.2.2v.1h-.1l-.4-.4V20h.1c0 .1.1.1.2.2zm6 6.4c.1.1.2.2.3.2.1.1.1.1-.1.3 0-.2-.2-.3-.2-.5zm3.3-5.8-1-1c.3.3.6.7 1 1zm-11.4-1.9-.2-.2s-.1 0 0-.1h.1l.4.4s.1 0 0 .1h-.1c-.1-.1-.1-.2-.2-.2zm-1.7-.1c0-.1.7-.8.8-.8l-.8.8zm12.1 1.4c-.2 0-.4-.2-.4-.4l.4.4zm-6.3-1.6-1.5-1.5 1.5 1.5zm-8.2-6.2c.1 0 .1.1.2.1.1-.1 0-.1 0-.2.1.1.2.1.2.3 0 .1 0 .1-.1.1l-.3-.3zm11.7 14.7c.1 0 .1 0 .2.1s.2.1.3.2c0 .1-.1.1-.2 0l-.3-.3zm-3.7-8.8-.2-.2V18h.1l.4.4v.1h-.1c0-.1-.1-.1-.2-.2zm-2.2 2.2-.2-.2s-.1 0 0-.1h.1l.4.4v.1h-.1c-.1 0-.1-.1-.2-.2zm8-.3.6.6-.6-.6zM17 15.9c.1.1.2.1.2.2v.1h-.1c-.2-.1-.3-.3-.4-.4v-.1h.1c.1 0 .1.1.2.2zm-.4 3.8-.1-.1v-.1h.1l.3.3v.1h-.1l-.2-.2zm.3-3.8.2.2v.1H17l-.3-.3v-.1h.1c-.1 0 0 .1.1.1zm6.2 5.8c0-.1.1-.1.1-.1v-.1s-.1-.1 0-.1c0-.1.1 0 .1 0h.2v-.1s-.1 0 0-.1l.1.1v.1c-.2.1-.4.2-.5.3zm-9.9-11.5c.1 0 .2.2.2.3 0 0 0 .1-.1.1s-.2-.1-.3-.2c.1 0 .1.1.2 0 .2 0 .1-.1 0-.2zm-4 4.1c.1 0 .1.1.2 0s0-.1 0-.2c.1.1.2.2.2.3 0 .1 0 .1-.1.1-.2 0-.3-.1-.3-.2zm13.9 7c-.1-.1-.2 0-.2 0s0-.1-.1-.1 0-.1 0-.1h.1c.2 0 .2.1.2.2zM22 30.6c.2.1.3.3.4.4 0 0-.1 0-.1-.1 0 0 0-.1-.1-.1 0 .1-.2-.1-.2-.2zm-7.4-12.4.2.2v.1h-.1c0-.2-.1-.2-.1-.3-.1 0-.2-.1-.2-.1V18h.1c0 .1.1.1.1.2zm4.7 3c0-.2.2-.3.3-.4h.1v.1c-.2.1-.3.2-.4.3zM8.8 15.1l.3.3.3.3v.1h-.1c0-.1-.1-.1-.1-.2l-.3-.3c-.1-.1-.1-.1-.1-.2zM22.1 30c0 .1-.5.6-.6.6l.6-.6zM8.6 15c.2-.2.3-.4.5-.6-.1.3-.3.4-.5.6zm10.7 3.2-.2-.2v-.1h.1l.4.4s.1 0 0 .1h-.1c-.1-.1-.2-.1-.2-.2zm-3.5 1.2-.2-.2v-.1h.1l.4.4c-.2.1-.2 0-.3-.1zm-1.2-1.6c.2.2.4.3.5.5-.2-.2-.4-.3-.5-.5zm3.2-1.1c0 .1 0 0 0 0-.2-.1-.3-.3-.5-.4 0 0-.1 0 0-.1h.1c.1.2.3.3.4.5zm8 2.6s0-.1 0 0c.2-.2.3-.4.5-.5-.2.1-.4.3-.5.5zm-12.4-9.1c.1-.2.3-.4.5-.6-.2.3-.3.5-.5.6zm1.6 8.2-.5-.5h.1c.1.2.2.3.4.5zm2-3.1c.3-.3.5-.6.8-.8-.3.3-.6.5-.8.8zm1.4 1.6.2.2v.1h-.1l-.4-.4v-.1h.1c.1 0 .1.1.2.2zm-2.7 2c-.2-.1-.3-.3-.5-.5l.5.5zm6.7 7.7c.1 0 .1.1 0 .1l-.4.4-.1.1h-.1v-.1h.1c.1 0 .1 0 .1-.1.1-.1.2-.3.4-.4 0 .1 0 .1 0 0zM10 14.3c-.1-.1-.1-.1-.1-.2h.1l.1.1v.1c0 .1 0 .1-.1 0 0 .1 0 0 0 0zm15.9 5.1s0-.1 0 0a1.205 1.205 0 0 0 0 0zm-15.8-2.2c.3 0 .5 0 .8.1-.3 0-.5-.1-.8-.1zm15.1 9.6c.2.3.5.5.7.8-.1-.1-.6-.7-.7-.8zm-6.6-9.1.1.1s.1 0 0 .1h-.1l-.3-.3v-.1h.1c.1.1.2.1.2.2zm-.5-1.1c-.1 0-.5-.4-.5-.5l.5.5zm-1.3-1a1.205 1.205 0 0 0 0 0zm-1.7 2.9.5.5h-.1l-.4-.4v-.1zm.6.6c.2.2.4.3.5.5h-.1l-.3-.3c0-.1-.1-.1-.1-.2zm2.4-2c0-.1-.1-.1-.2-.2v-.1h.1l.4.4h-.1s-.1 0-.2-.1zm-.7-.9c.1 0 .5.4.5.5l-.5-.5zm-4.4-5c0 .1 0 .1 0 0 0 .1.1.1 0 0 .1.1.1.2.1.2H13l-.1-.1v-.1h.1zm3 0c.1 0 .1 0 0 0 .1.2.1.5.2.8-.1-.3-.1-.5-.2-.8zm2 5.6c0-.1 0-.1 0 0 .2.1.3.3.5.5l-.5-.5zm2.9 13.9c.1 0 .1-.1 0 0 .1 0 .1 0 0 0 .1.1.2.2.3.1 0 0 .1 0 .1.1v.2h-.1c0-.2-.1-.3-.3-.4zM10.3 14.1c.1.1.1.1 0 .2h-.1l-.1-.1c0-.2.1-.3.2-.1-.1-.1 0-.1 0 0zm7.1 6.5c-.1 0-.5-.4-.5-.5.2.1.3.3.5.5zm1.6-2.7s-.1 0 0 0c-.2-.1-.3-.3-.5-.4.2.1.3.2.5.4zm-2.2 2.3c.2.1.3.3.5.4v.1h-.1l-.3-.3c0-.1-.1-.1-.1-.2zm8.2 6.4s.1 0 0 0c.1.1.2.1.1.2H25l-.2-.2v-.1h.1l.1.1zm-5.3-8.4c-.2-.1-.3-.3-.5-.4.2.1.4.3.5.4zm-3.9.8c.2.1.3.3.5.4h-.1l-.3-.3c-.1 0-.1 0-.1-.1zm11.1 2.1 1 1c-.4-.3-.7-.6-1-1zm-2.8 6.6s0-.1 0 0c-.1-.1-.1-.1-.1-.2h.1c.1.1.1.1.1.2v.1l-.1-.1c.1 0 0 0 0 0z"/><path d="M20.2 21.9c-.1-.1-.2-.1-.2-.2h-.1c0 .1 0 .1-.1 0h-.4c0-.1-.1-.1-.1 0-.2.1-.3.2-.4.4 0 .1-.1.2 0 .2v.5c-.1 0-.1.1 0 .1.1.2.3.4.5.4h.1c0-.1 0-.1.1-.1h.2c.1 0 .2 0 .2.1h.1c.2-.1.3-.3.4-.5v-.1c-.1 0-.1-.1-.1-.1v-.3s0-.1.1-.1.1 0 0-.1c-.2 0-.2-.1-.3-.2zM19 22c.2-.2.2-.1.4-.1s.4.1.5 0h.1l.3.3v.1c-.1.1 0 .1 0 .2v.5c-.1.2-.2.3-.3.4h-.1c0-.1-.1-.1-.2 0h-.5c-.2-.1-.3-.2-.4-.3V23c.1 0 .1-.1 0-.1v-.4c-.1 0 0-.1 0-.1.1-.3.1-.3.2-.4zM11.7 12.7l-.2.2c-.1.1-.1.2.1.3.1 0 .1.1 0 .1-.1.2-.1.4-.1.6.1.4.4.6.8.6.7 0 1.3-.7 1.3-1.3 0-.4-.3-.7-.7-.7-.2 0-.4 0-.5.1h-.2c-.1-.1-.2-.1-.3 0 0-.1-.1 0-.2.1zm-.2.9v-.1c0-.1 0-.1.2 0 .1.1.1.1.2 0l.5-.5c.1-.1.1-.1 0-.2s-.1-.1.1-.2h.1c.5-.1 1 .2.9.8-.1.5-.5 1-1 1.1-.6.1-1-.3-.9-.8 0 .1.1.1.2 0 .1 0 .1-.1 0-.1-.1-.1-.2-.1-.3 0zm.6-.6-.2.2h-.1v-.1l.1-.1c.1-.1.3-.2.4-.4 0 0 0-.1.1 0 0 0 .1 0 0 .1 0 0 0 .1-.1.1l-.2.2zm-.3-.2c-.1.1-.2.2-.3.2h-.1v-.1l.5-.5h.1v.1c0 .1-.1.2-.2.3zM25.1 30.5c-.1 0-.1.1-.1.1v.2c.1.1.1.1.2 0s.2-.2.1-.3c0-.1-.1-.3-.1-.4 0-.1-.2-.3-.3-.2-.1 0-.1 0-.1-.1s-.1-.1-.2 0l-.1.1-.1.1c0 .1.1.1.1.1.1.3.3.4.6.4-.1 0 0 0 0 0zm-.1-.2c-.1 0-.1-.1-.1-.2V30h.1l.3.3v.1h-.1c-.1 0-.2 0-.2-.1zM29.4 26v-.1c0-.2-.2-.3-.3-.3 0 0-.1 0 0 0 0-.1-.1-.1-.1-.1s-.1 0-.1.1l-.1.1c-.1.1-.1.2 0 .3v.1c0 .1.2.3.3.3.1 0 .3 0 .4.1.1 0 .3 0 .3-.1v-.2c-.1-.1-.2-.1-.2 0-.1-.2-.1-.2-.2-.2zm-.2 0s-.1-.1-.1-.2v-.1h.1l.3.3v.1h-.1c-.1 0-.2 0-.2-.1zM27.2 23.2c-.1.1-.1.2 0 .3.1.1.2.1.3 0 .1-.1.1-.2 0-.3-.1-.1-.2-.1-.3 0zM25 25.3l.1.1h.1v-.1c-.1-.1-.1-.2-.2-.2h-.1v.1l.1.1zM24.8 24.2c.1.1.2.1.2 0 .1-.1.1-.2 0-.2-.1-.1-.2-.1-.2 0-.1.1-.1.2 0 .2zM25.3 23.5c-.1.1-.1.2 0 .2.1.1.2.1.2 0 .1-.1 0-.2 0-.2-.1-.1-.2-.1-.2 0zM24.3 24.7c.1.1.1.1.2 0s.1-.2 0-.2c-.1-.1-.2-.1-.2 0-.1 0-.1.1 0 .2zM23.5 25.5c-.1-.1-.2-.1-.2 0-.1.1-.1.2 0 .2.1.1.2.1.2 0 .1-.1.1-.2 0-.2zM23.8 25c-.1.1-.1.1 0 .2s.2.1.2 0c.1-.1.1-.2 0-.2 0-.1-.1-.1-.2 0zM15.8 20.5c.1 0 .1.1.1.1h.1v-.1c0-.1-.1-.1-.1-.2l-.3-.3-1.2-1.2c-.1-.1-.1-.2-.2-.2h-.1v.1c.1.2.3.3.4.4l.5.5.6.6c0 .1.1.2.2.3zm0-.1-1.5-1.5 1.5 1.5zM19.4 16.9c-.3-.2-.5-.5-.8-.7l-.8-.8c-.1-.1-.1-.2-.2-.2h-.1v.1l.3.3 1.3 1.3c.1.1.1.2.2.2h.1V17c.1-.1.1-.1 0-.1zM13.9 15 12 16.9c-.1.1-.1.2 0 .4l1.1 1.1c.1.1.3.1.4 0 .6-.6 1.2-1.3 1.9-1.9.4-.4.8-.8 1.3-1.2l.7-.7c.1-.1.1-.2 0-.3l-1.2-1.2c-.1-.1-.2-.1-.3 0l-1.4 1.4c-.3.2-.4.3-.6.5zm.3 1.2-.1-.1-.5-.5s-.1 0 0-.1h.1l1.1 1.1s.1.1 0 .1h-.1l-.5-.5zm1-.8c.2.1.3.3.5.4 0 0 .1 0 0 .1h-.1l-1.1-1.1-.1-.1s.1 0 .1.1c.2.2.4.4.7.6zm-1.8 1.5s.1 0 0 0l.6.6s.1 0 0 .1h-.1l-.8-.8-.4-.4v-.1h.1l.1.1c.2.1.3.3.5.5zm1.8-3c.1 0 1.3 1.2 1.3 1.3-.4-.5-.9-.9-1.3-1.3zm.4 2.2c-.2.3-.4.5-.6.7h-.1v-.1c.2-.2.4-.3.5-.5.1-.1.2-.2.2-.1zm-1.3-1.4c-.2.2-.4.5-.6.7.1-.2.3-.5.6-.7zM20.6 27.5c-.1-.1-.2-.2-.3-.2h-.1v.1l.1.1c0 .1.1.1.1.2.1 0 .1 0 .1.1 0 0 .1.1.1 0 0 0 .1-.1 0-.1.1-.1 0-.1 0-.2zm-.1.2-.2-.2v-.1h.1c.1 0 .1.1.1.3.1 0 .2.1.1.1l-.1-.1zM21.1 20.4c-.1.1-.1.2 0 .2.1.1.2.1.2 0 .1-.1.1-.2 0-.2h-.2zM27.3 27.6l.1.1h.1v-.1c-.1-.1-.1-.2-.2-.2h-.1v.1l.1.1zM10.7 19.2c.1.1.2.1.2 0 .1-.1.1-.2.1-.2-.1-.1-.2-.1-.2 0-.2 0-.1.1-.1.2zM17.8 11.8c-.1.1-.1.2 0 .3.1.1.2.1.2 0 .1-.1.1-.2 0-.3 0-.1-.1-.1-.2 0zM13.8 22c-.1.1-.1.2 0 .2.1.1.2.1.3 0 .1-.1.1-.2 0-.2-.1-.1-.2-.1-.3 0zm.1.1s.1 0 0 0-.1 0 0 0c0-.1 0-.1 0 0zM21.1 14.8c-.1-.1-.2-.1-.3 0-.1.1-.1.2 0 .3.1.1.2.1.3 0 .1-.1.1-.2 0-.3zM16 18.4l1.4 1.4c.1.1.3.1.4 0l.9-.9c.2-.2.2-.3 0-.5l-1.8-1.8c-.1-.1-.2-.2-.4-.1h-.1c-.1-.1-.1-.1-.2 0s-.1.2 0 .2 0 .1 0 .1l-.4.4h-.1c-.1-.1-.1-.1-.2 0s-.1.1 0 .2c0 0 .1.1 0 .1-.1.1 0 .2.1.3 0 .3.2.5.4.6zm.4.4-.9-.9c-.1-.1-.1-.1-.1-.2s0-.1.1-.1.2-.1.2-.2v-.1l.4-.4h.1c.1 0 .3-.1.2-.2 0-.1 0-.1.1-.1s.1 0 .2.1l.3.3 1.5 1.5c.1.1.1.2 0 .4l-.9.9c-.1.1-.2.1-.4 0-.2-.4-.5-.7-.8-1zM7.3 16.9l-.3-.3s0-.1-.1 0v.1l.6.6h.1v-.1c0-.1-.1-.2-.3-.3zM15.8 8.4l-.3-.3s-.1-.1-.1 0v.1l.6.6h.1v-.1l-.3-.3zM26.2 26.1c-.1 0-.1.1-.1.2 0 .2.1.3.3.3.2 0 .2-.2.3-.3.1-.2-.1-.3-.3-.3-.1 0-.2.1-.2.1zm.3.3c-.1 0-.1.1-.2 0s0-.1 0-.2c0 0 .1-.1.2 0s0 .2 0 .2zM21.3 16.5c-.6-.5-1.1-1.1-1.7-1.6-.1-.1-.2-.2-.2-.3 0-.1-.1-.1-.2-.1l-1.3-1.3-1-1c-.1-.1-.1-.1-.1-.2s-.1-.1-.1-.1l-.2-.2h-.1v.1l.1.1.1.1c0 .1 0 .1.1.1h.1c.8.8 1.6 1.5 2.3 2.3 0 0 .1.1.1.2 0 0 0 .1.1.1h.1c.2.2.3.4.5.5l1.1 1.1s.1.1 0 .1c0 0 0 .1.1.1.1-.1.2.1.2 0 .1.1 0 .1 0 0zm-2-1.9-2.5-2.5c.8.9 1.6 1.7 2.5 2.5zm1.9 1.9c-.6-.6-1.2-1.2-1.8-1.7.6.5 1.2 1.1 1.8 1.7z"/><path d="M12.8 13.8c-.1.1-.1.2-.2.3h.1s.1 0 .1-.1c0-.2.1-.3.3-.3 0 0 .1 0 .1-.1v-.1h-.1c-.1.2-.2.2-.3.3zM17.9 19c-.1.1-.1.2 0 .2.1.1.2.1.2 0 .1-.1.1-.2 0-.2 0-.1-.1-.1-.2 0z"/><path fill="none" d="m14.978 7.345 3.182-3.182 19.092 19.092-3.182 3.182z"/><path fill="#010101" d="M21.6 11.2c-.2.2-.1.5.1.7.2.2.4.2.5.1.2-.2.1-.3-.2-.8-.5-.9-.4-1.3-.1-1.6.4-.4 1-.4 1.7.2.7.7.6 1.3.3 1.7l-.7-.7c.1-.1.2-.3-.1-.6-.2-.2-.3-.2-.4-.1-.1.1-.1.3.2.7.5.9.4 1.3.1 1.7-.4.4-1.1.4-1.8-.3s-.7-1.3-.3-1.8l.7.8zM25.7 11.9l-1.5 1.5c-.3.3-.3.6-.1.8.2.2.5.2.8-.1l1.5-1.5.7.7-1.4 1.4c-.8.8-1.5.6-2.1 0-.6-.6-.8-1.3 0-2.1l1.4-1.4.7.7zM25.4 16.4l1.6-1.6c-.1-.1-.3-.2-.4-.3l.4-.4c.3.2.6.3.8.3l.5.5-2.3 2.3-.6-.8zM26.5 17.5c.5-.5 1-.6 1.8-.5.6.1.7.1.9-.1.2-.2.2-.3 0-.5s-.3-.1-.6.1l-.6-.6c.4-.3 1-.5 1.7.1.6.6.5 1.2.1 1.6-.3.3-.6.4-1.3.2-.4-.1-.6-.1-.7 0l1 1-.6.4-1.7-1.7zM28.6 19.6c.5-.5 1-.6 1.8-.5.6.1.7.1.9-.1.2-.2.2-.3 0-.5s-.3-.1-.6.1l-.6-.6c.4-.3 1-.5 1.7.1.6.6.5 1.2.1 1.6-.3.3-.6.4-1.3.2-.4-.1-.6-.1-.7 0l1 1-.6.4-1.7-1.7z"/><path fill="none" d="M0 0h45v45H0z"/><path fill="none" d="M4.5 27h18v13.5h-18z"/><path fill="#010101" d="M6.1 40.4v-4.8c-.3.1-.8.2-1.2.3v-1c.6-.1 1.2-.5 1.6-.9h1v6.4H6.1zM8.8 40.4c0-1.2.5-2.1 1.9-3.1.9-.7 1.2-.9 1.2-1.4 0-.6-.3-.9-.8-.9-.6 0-.9.4-.9.9H8.8c.1-1.1.8-2 2.3-2 1.6 0 2.2 1 2.2 1.9 0 .9-.4 1.4-1.6 2.2-.8.6-1.1.9-1.2 1.2h3l-.2 1.2H8.8zM14.3 40.4c0-1.2.5-2.1 1.9-3.1.9-.7 1.2-.9 1.2-1.4 0-.6-.3-.9-.8-.9-.6 0-.9.4-.9.9h-1.3c.1-1.1.8-2 2.3-2 1.6 0 2.2 1 2.2 1.9 0 .9-.4 1.4-1.6 2.2-.8.6-1.1.9-1.2 1.2h3l-.2 1.2h-4.6z"/><path fill="none" d="M27 4.5h13.5V18H27z"/><path fill="#010101" d="M32.5 11.6V6.8c-.3.1-.8.3-1.2.3V6c.6-.1 1.2-.5 1.6-.9h1v6.4h-1.4zM40.1 8.4c0 1.8-.6 3.4-2.5 3.4s-2.5-1.5-2.5-3.3c0-1.8.6-3.3 2.5-3.3 1.8-.1 2.5 1.3 2.5 3.2zm-3.5 0c0 1.2.1 2.2 1 2.2s1-1 1-2.2c0-1.2-.2-2.2-1-2.2s-1 .8-1 2.2z"/><path fill="none" stroke="#000" stroke-miterlimit="10" d="M5 33.3h14.1"/><path fill="none" d="M4.5 4.5h9v9h-9z"/><path fill="#010101" d="m9.5 6.7-.2 1.5 1.1-.9.5.9-1.4.5 1.4.6-.5.9-1.1-1 .2 1.5h-1l.2-1.5-1.1.9-.5-.9 1.4-.6-1.4-.5.5-.9 1.1 1-.2-1.5h1z"/></svg>