<svg version="1.2" baseProfile="tiny" xmlns="http://www.w3.org/2000/svg" viewBox="0 0 45 45" overflow="visible" xml:space="preserve"><path fill="none" d="M0 0h45v45H0z"/><path fill="none" d="M0 0h45v45H0z"/><path fill="none" d="M4.5 4.5H18v9H4.5z"/><path fill="#010101" d="M4.9 7.1H6v1.5h1.1V7.1h1.1v4.1h-1V9.5H6v1.7H4.9V7.1zM9.9 9.8c0 .4.1.7.5.7.3 0 .4-.2.4-.3h1.1c-.1.5-.5 1.1-1.5 1.1-1.1 0-1.5-.7-1.5-1.6-.1-.9.3-1.7 1.5-1.7 1.1 0 1.5.8 1.5 1.6v.3h-2zm.9-.6c0-.3-.1-.5-.4-.5-.3 0-.4.3-.4.5h.8zM13.2 8c.2.4.3.8.4.9.1-.2.2-.5.4-.9h1.2l-.9 1.5.9 1.7H14c-.2-.4-.3-.8-.4-1-.1.1-.2.6-.4 1H12l.9-1.5L12 8h1.2z"/><path fill="none" d="M27 4.5h13.5v9H27z"/><path fill="#010101" d="M28.2 7.1h1.6c1.3 0 2 .8 2 2 0 1.3-.7 2.1-2 2.1h-1.6V7.1zm1.1 3.3h.4c.6 0 .9-.4.9-1.3 0-.8-.2-1.2-.9-1.2h-.4v2.5zM32.3 6.8h1.1v.8h-1.1v-.8zm0 1.2h1.1v3.1h-1.1V8zM36.9 10c-.1.7-.5 1.2-1.5 1.2-1.1 0-1.5-.7-1.5-1.6 0-1.1.6-1.7 1.6-1.7 1.1 0 1.4.8 1.4 1.2h-1.1c0-.3-.1-.5-.4-.5-.3 0-.4.3-.4.9 0 .7.1.9.4.9.3 0 .3-.2.4-.5h1.1zM38.4 9.8c0 .4.1.7.5.7.3 0 .4-.2.4-.3h1.1c-.1.5-.5 1.1-1.5 1.1-1.1 0-1.5-.7-1.5-1.6 0-.8.4-1.6 1.6-1.6 1.1 0 1.5.8 1.5 1.6v.3h-2.1zm.8-.6c0-.3-.1-.5-.4-.5-.3 0-.4.3-.4.5h.8z"/><path fill="none" d="M4.5 13.5H27V36H4.5z"/><path fill="#010101" d="m5.5 19.7-.9-4.1h1.2c.1.8.3 2 .4 2.9.2-.9.4-1.9.6-2.9h1c.2.8.4 2 .5 2.8.1-.8.3-2.2.4-2.8h1.1l-1 4.1H7.7c-.2-.8-.4-1.8-.5-2.6-.2.8-.4 1.9-.6 2.6H5.5zM10.2 15.6h1.6c1.3 0 2 .8 2 2 0 1.3-.7 2.1-2 2.1h-1.6v-4.1zm1.2 3.3h.4c.6 0 .9-.4.9-1.3 0-.8-.2-1.2-.9-1.2h-.4v2.5zM14.4 19.7v-4.1h1.4c.9 2.1 1 2.6 1.1 2.7 0-.5-.1-1.2-.1-1.8v-.9h1v4.1h-1.3c-.9-2.3-1.1-2.7-1.1-2.8v2.8h-1zM5.7 25.7c0 .3.2.5.6.5.4 0 .5-.2.5-.4 0-.3-.2-.4-.8-.6-1-.3-1.3-.7-1.3-1.2 0-.8.7-1.3 1.5-1.3 1 0 1.5.5 1.6 1.2h-1c0-.3-.2-.5-.5-.5s-.4.1-.4.3c0 .3.2.3.7.5 1.1.5 1.4.9 1.4 1.5 0 .8-.6 1.3-1.7 1.3-1 0-1.6-.5-1.7-1.3h1.1zM8.2 23.8h.4V23h1.1v.8h.5v.8h-.5V26c0 .2 0 .3.3.3h.2v.7h-.6c-.7 0-.9-.3-.9-.9v-1.5h-.5v-.8zM10.6 24.8v-1h1.1v.4c.1-.2.4-.4.9-.4.6 0 1 .4 1 1.1V27h-1.1v-2c0-.3-.1-.5-.3-.5-.3 0-.4.1-.4.6v1.8h-1.1v-2.1zM4.9 30h1.6c1.3 0 2 .8 2 2 0 1.3-.7 2.1-2 2.1H4.9V30zM6 33.3h.4c.6 0 .9-.4.9-1.3 0-.8-.2-1.2-.9-1.2H6v2.5zM9 29.8h1.1v.8H9v-.8zM9 31h1.1v3.1H9V31zM10.9 34.1v-2.4h-.4V31h.4v-.2c0-.7.3-1 1.1-1h.4v.7h-.2c-.2 0-.2.1-.2.3v.2h.5v.8H12v2.4h-1.1z"/><path fill="none" stroke="#010101" stroke-width=".5" stroke-miterlimit="10" d="M4.5 13.5h36"/><path fill="none" d="M27 13.5h12.6V36H27z"/><path fill="#010101" d="M27.2 18.5c0-.5.3-.8.6-.9-.3-.2-.5-.5-.5-.8 0-.6.4-1.1 1.4-1.1.9 0 1.4.5 1.4 1.1 0 .4-.2.7-.5.8.3.1.6.4.6 1 0 .7-.4 1.3-1.6 1.3-1-.1-1.4-.7-1.4-1.4zm2 0c0-.4-.1-.6-.5-.6-.3 0-.5.2-.5.6 0 .3.2.5.5.5.4.1.5-.1.5-.5zm-.8-1.7c0 .3.1.5.4.5.3 0 .4-.2.4-.4 0-.3-.1-.5-.4-.5-.3 0-.4.1-.4.4zM32.4 17.7v.9h-1.6v-.9h1.6zM28.3 25.9c0 .2.1.3.4.3.4 0 .4-.5.5-1-.2.2-.4.2-.7.2-.7 0-1.3-.5-1.3-1.2 0-.9.6-1.4 1.5-1.4 1.1 0 1.6.8 1.6 1.9 0 1.3-.4 2.2-1.6 2.2-1 0-1.3-.6-1.4-1h1zm0-1.7c0 .4.2.6.4.6s.4-.1.4-.5-.1-.6-.4-.6c-.3-.1-.4.1-.4.5zM32.6 23.9V25h1.1v.8h-1.1v1.1h-.8v-1.1h-1.1V25h1.1v-1.1h.8zM27.6 34.1v-2.9h-.5v-.7c.3 0 .6-.2.8-.4h.8v4h-1.1zM32.4 32c0 1.2-.4 2.1-1.6 2.1-1.1 0-1.5-.9-1.5-2.1 0-1.2.5-2 1.6-2 1 .1 1.5.8 1.5 2zm-2 .1c0 .9.1 1.4.5 1.4s.4-.4.4-1.4c0-.9-.1-1.3-.4-1.3-.4 0-.5.3-.5 1.3zM34.8 31.1v1.1h1.1v.8h-1.1v1.1H34V33h-1.1v-.8H34v-1.1h.8z"/></svg>