<svg version="1.2" baseProfile="tiny" xmlns="http://www.w3.org/2000/svg" viewBox="0 0 45 45" overflow="visible" xml:space="preserve"><path fill="#DAA628" d="M-139.5-49.5h576v99h-576z"/><path d="M30.3 28.7c-.1-.1-.2-.1-.2-.1.1 0 .1-.1 0-.1 0-.1-.1-.2 0-.3-.2.1-.2.2-.2.3 0 0 0-.1-.1 0v.1c-.2-.2-.2.1-.3.1-.1 0-.1.1 0 .2.3.3.6.6.9 1 .6.7 1.3 1.3 1.9 1.9.3.4.7.7 1.1 1l-.4-.4c-.7-.7-1.4-1.5-2.2-2.2-.1-.1-.3-.4-.5-.4s-.3.3-.5.4c-.1.1-.1.2 0 .3.9.9 1.8 1.7 2.7 2.6.3.3.3.3.7 0 .1-.1.2-.1.2-.2.1-.2.2-.1.3 0l1.2 1.2c.2.2.3.3.4.5.1.1.1.2 0 .2l-.4.4c-.1.1-.1.1-.2 0 .3 0 .4-.3.6-.5v-.1h-.2c-.1.1-.2.2-.4.3l.3-.3c.1-.1.1-.1 0-.2l-.9-.9c-.2-.2-.3-.4-.5-.5-.1-.1-.1-.1-.2 0l-.5.5c-.1.1-.1.1 0 .2.4.4.3.4.7 0l.1-.1c-.1.1-.2.2-.4.3-.1.1-.1.1 0 .1l.9.9.2.2c.1 0 .1.1.1.2-.5-.4-.9-.9-1.5-1.4-.2-.1-.3-.4-.5-.6-1.1-1-2.1-2.2-3.3-3.1-.2-.2-.4-.4-.7-.6-.1-.1-.1-.1-.2 0l-1 1c-.1.1-.1.2 0 .3.1.1.1.2.2.3 0 .1 0 .2.1.4 0 .1 0 .2-.2.1h-.2c-.2 0-.4-.1-.4-.2-.1-.2-.1-.1-.2 0-.2.2-.3.4-.6.5-.1.1 0 .1 0 .2s.1.1.1.2c-.1.3-.2.5-.4.7-.1.1-.2.1-.2.2-.2.3-.5.5-.7.8 0 .1-.1.1-.2.2s-.2.1-.3 0c-.1 0-.2-.2-.3-.3-.2-.1-.3-.4-.5-.5-.1 0-.2-.1-.2-.3l-.1-.1c-.3-.2-.5-.4-.8-.7v-.1s0-.1-.1-.1c-.2-.1-.3-.2-.3-.2-.1-.2-.2-.3-.4-.4-.1 0-.1-.1-.1-.2s0-.1-.1-.1c-.2 0-.3-.1-.3-.3 0-.1-.1-.1-.2-.2-.1 0-.2-.1-.3-.3 0-.1-.1-.2-.1-.2-.2 0-.3-.1-.3-.3 0-.1-.1-.2-.1-.2-.2 0-.3-.1-.3-.3 0-.1 0-.1-.2-.1-.1 0-.2-.1-.2-.1-.1-.2-.3-.3-.4-.4-.2-.1-.3-.3-.4-.4-.2-.1-.2-.3-.4-.4-.2-.1-.2-.3-.4-.4-.2-.1-.3-.3-.5-.4-.2-.1-.3-.3-.5-.4-.1-.1-.1-.2-.2-.3-.3-.1-.4-.5-.7-.6-.1 0-.1-.1-.1-.2s0-.1-.1-.1c-.2 0-.3-.1-.3-.3 0-.1 0-.1-.1-.1-.2 0-.3-.2-.3-.3 0-.1-.1-.1-.1-.1-.2 0-.2-.1-.3-.3 0-.1-.1-.2-.1-.2-.1 0-.2-.1-.2-.2l-.3-.3c-.2-.1-.4-.4-.6-.5 0 0 0-.1-.1-.1-.2-.2-.4-.3-.6-.6-.3-.2-.5-.5-.7-.7 0-.1-.1-.1-.2-.2s-.2-.1-.3-.3c0-.1-.1-.1-.1-.1-.3-.2-.5-.5-.7-.7 0 0 0-.1-.1-.2-.3-.1-.4-.5-.7-.7v-.1c0-.1-.1-.1-.2-.2-.7-.2-.9-.5-1.2-.7v-.1c0-.1-.1-.1-.1-.1-.2 0-.2-.2-.3-.3-.2-.2-.5-.3-.5-.6-.2 0-.3-.2-.3-.3-.1-.1-.1-.3-.2-.4 0 0-.1-.1-.1 0v.1l.1.1c-.1 0-.2-.1-.3-.2 0-.1-.1-.1-.1-.1-.2 0-.2-.1-.3-.2 0-.1-.1-.1-.1-.2-.2.1-.1 0-.1-.1s.1-.2.2-.3c.4-.3.7-.7 1-1 .1-.1.3-.3.6-.3.1 0 .1-.1 0-.2s-.1-.2 0-.3l1-1c.2-.2.5-.4.7-.7l2.1-2.1c.3-.3.6-.5.9-.8.1-.1.2-.1.3 0 0 0 .1.1.1 0-.1-.3.2-.5.4-.7.2.1.3 0 .3 0 .2-.3.6-.5.8-.8.2-.2.3-.2.5-.2.1 0 .1.1.1.2h.1c.2.1.4.4.6.5v.1c0 .1.1.2.2.2s.1 0 .1.1c.1.2.3.4.5.5l.1.1c0 .1 0 .1.1.1.3.1.5.5.8.6l.1.1c0 .1.1.1.1.2.3.2.4.5.7.7v.1c0 .1.1.1.1.1.3.1.5.5.8.7v.1c0 .1.1.1.1.1.1 0 .2.1.3.2.1.3.4.4.6.6.2.2.4.5.7.6.1 0 .1.2.2.3.3.1.4.5.7.6.1.1.1.2.2.3.3.1.4.5.7.7v.1c0 .1.1.1.1.2.2.1.2.2.3.3.1.1.3.2.4.3 0 .1.1.1.1.2.3.2.4.5.7.7v.1c0 .1.1.1.1.1.2.1.3.2.3.4 0 .1.3.1.4.3v.1c0 .1.1.2.1.2.2 0 .2.2.3.3.2.2.4.3.5.6h.1c.1 0 .1 0 .1.1.1.2.2.3.4.4.2.1.3.4.5.5l.1.1c0 .1.1.1.1.2.3.1.4.5.7.6v.1c0 .1.1.1.2.2.2.2.4.5.7.7 0 .1.1.1.2.2.2.2.5.4.7.7l.6.6.3.3s0 .1.1.1c.3.1.5.5.7.7.2.2.4.4.7.6.2.1.2.3 0 .5s-.5.4-.6.6c-.1.1-.2.1-.3.2-.2.3-.4.5-.8.6-.2 0-.2 0-.3-.1 0 0-.1-.1-.1 0-.1.2-.4.4-.6.6-.1.1-.1.1 0 .1.2.1.3.3.2.5 0 .1.1.2 0 .3.4-.2.3-.4.3-.4-.3.1-.4 0-.5-.2.3.2.3.2.5.2zm-12.2-.9c-.1-.2-.2-.3-.4-.3-.1 0-.1-.1-.2 0 0 .1.1.1.1.2 0 0 .1.1.1 0 .1-.1 0-.1 0-.2.2.1.2.2.4.3zm9.2 3.3c-.1-.2-.2-.3-.4 0 .2 0 .3 0 .5.1-.2 0-.2.1-.2.2s.1.1.2.1h.1c.1 0 .1.1.1 0s0-.1-.1-.1c0 0-.1 0-.1-.1h.1c.1-.2-.1-.5-.3-.5.1.1.3.3.3.5 0 0 0-.1-.1-.1s-.1 0-.1-.1zm-7.7-9.5c.1-.1.1-.1 0-.2s-.2-.2-.3-.1l-.1.1c-.2.2-.2.2 0 .4l.1.1c.1 0 .1.2.3.1.1-.2.1-.3 0-.4zM24 29c0 .1.1.1.2.2 0 0 .1 0 .1-.1.1.1.1 0 .2 0l.5-.5c.1-.1.1-.2 0-.3-.1-.1-.2-.1-.3 0-.2.2-.5.4-.7.7 0 0-.1 0 0 0zm1.8-4c.1 0 .1.2.1.1.1-.1.3-.2.4-.4 0-.1-.1 0-.1-.1h-.1c-.2.1-.3.3-.5.4-.5.5-1 .9-1.5 1.4-.1.1-.2.1-.1.2s.2 0 .2 0c.3-.3.6-.6.9-.8 0 0 .2-.1 0-.1v-.1s.1-.1.1 0 .1.1.1 0c.1 0 .1-.1.2-.1.2-.1.2-.2 0-.4.2-.1.3-.1.3-.1zm-7.9-4.8c-.2.1-.4.2-.5.4-.1.2-.3.4-.5.5-.1.1-.3.1-.2.3-.3-.1 0-.2 0-.3-.3.3-.6.6-.9.8-.1.1-.1.3-.3.1 0 0-.1 0-.1.1l-.6.6c.5-.2 1-.3 1.4-.6l.5-.5c.1-.1.1-.1 0-.2l1.2-1.2zm8.1 1.6c-.2-.4-.4-.8-.7-1.2 0-.1 0-.2-.2-.1-.1.1-.1.2 0 .2.4.7.8 1.4 1.2 2.2.1.1.2.3.2.4.1.2.2.3.4.3.1 0 .1.1.1 0v-.1c0-.3-.2-.5-.4-.8l-.3-.6c0-.1 0-.2-.2-.1.2.4.4.8.7 1.2.1.1.1.2.1.3-.3-.6-.6-1.1-.9-1.7zm2.9 5.2s-.1-.1-.1 0c0-.2-.2-.3-.3-.4 0 .3 0 .5-.3.6-.1 0 0 .1 0 .1 0 .1 0 .1-.1.1-.2-.1-.2.1-.3.1-.2.2-.4.4-.7.6-.1.1-.2.1-.1.2 0 0 0 .1-.1.1-.2-.1-.2.1-.3.2h-.5c.1.2.3.3.5.3-.1 0-.1.1 0 .1.2.2.4.4.7.5.1 0 .2.1.3.1-.3-.2-.4 0-.6.2l-1 1c.3.1.6.1.9.2.1 0 .1 0 .1-.1.5-.5 1-1 1.6-1.5-.2 0-.3-.2-.4.1 0 .2-.3.1-.4.1.2-.1.3-.3.5-.4.1-.1.1-.1 0-.2-.2-.1-.3-.3-.5-.4l-.1-.1c-.1-.1-.1-.2-.3-.1.2-.1.2-.4.3-.5.2-.2.3-.4.6-.4.2 0 .3-.2.5-.3.1-.1 0-.1 0-.1l-.2-.2c.1 0 .2.1.2.2h.1v.2c-.3.3-.3.3 0 .6.3.4.3.4.7 0 .1-.1.1-.2 0-.3 0-.1-.1-.1-.1-.2.1.2.2.3.2.6 0 .1-.1.2-.2.2s-.1 0-.1.1 0 .2.1.2.1 0 .1-.1l.1-.1c.5-.3.4-.8.3-1.2 0-.1-.1-.1-.1 0-.1.1-.3.2-.3.4-.3-.1-.5-.3-.7-.5zm-6.1-8.2c.1 0 .2.1.2.1v-.1c-.6-.4-1.3-.8-1.9-1.2v.1c.2.2.5.3.7.5-.2 0-.3-.1-.4-.2-.1-.1-.2-.1-.3-.2-.1 0-.1-.2-.2-.1s0 .2.1.3c.3.2.5.3.7.5l3 1.8s.1.1.2.1c.1.1.1 0 .2 0 .1-.1 0-.1-.1-.2-.7-.4-1.4-.9-2.2-1.4-.2-.2-.5-.3-.7-.5.3.2.5.3.7.5zm-4.1 7.4c0 .1.1.2.2.1s0-.1 0-.2c-.6-1-1.3-2-1.9-2.9-.1-.1-.1-.1-.1-.2.3.4.5.8.8 1.2.3.4.5.8.8 1.1.1.1.1.1.2 0 .1-.2.3-.3.5-.4 0 0 .1-.1 0-.2s0-.1.1-.1c.1.1.1 0 .2 0l.2-.2c.1-.1.1-.1 0-.2v-.1h.1c.1.2.2 0 .2 0l.2-.2c.1-.1-.1-.2 0-.2.1-.1.2.1.3 0l.3-.3s.1-.1 0-.1v-.1h.1c.2.2.2-.1.3-.1.1-.1.3-.1.2-.3 0-.1 0-.2.1-.1s.2 0 .2 0l.2-.2c.1-.1.1-.1 0-.2s0-.1.1-.1c.2 0 .5-.2.4-.4 0-.1 0-.1.1-.1.2.1.3-.1.4-.2.1-.1.2-.1.1-.3-.3-.2-.2-.2-.2-.2.1.1.2 0 .2 0 .1-.1.4-.2.2-.4l.1-.1c.1.1.2 0 .2-.1l.5-.5c-.7-.4-1.4-.9-2.1-1.3-.3-.2-.7-.4-1-.6-.1-.1-.2-.1-.3 0-.5.5-1 .9-1.4 1.4-.1.1-.2.1 0 .2v.1h-.1c-.2-.1-.2.1-.3.2-.1.1 0 .1 0 .2l.9.9c.1.1.1.2.1.4s-.2.5 0 .7c0 0 0 .1-.1.2-.1 0-.1.1-.2 0-.2-.1-.3-.1-.5 0s-.2.3-.1.5v.2c-.1.1-.1 0-.2 0-.3-.1-.7.1-.8.3v.2h-.2l-.2-.2v-.1s.1-.1.1 0c.2.1.3-.1.4-.1.1 0 .1-.1.2-.2-.1 0-.2-.1-.3-.1l-.9-.9c-.1-.1-.2-.2-.4 0l-.2.2c-.2.1-.3.3-.2.5-.1-.1-.2-.3-.4-.2.2.3.3.5.5.7-.2-.2-.3-.4-.4-.6h-.1l1.2 1.8h.1c-.2-.4-.6-.8-.8-1.3 1 1.1 1.7 2.1 2.4 3.2zm.1-4.1c0 .1.1.1.1.1 0 .1.1.1.1.1s.1 0 .1-.1 0-.1-.1-.1l-.1-.1.1-.1c.1-.1.1-.2 0-.3-.2-.1-.1-.2 0-.3.2-.2.4-.2.6-.1 0 0 .1.1.2 0V21l-1-1c-.1-.1-.1-.1-.2 0-.5.4-.9.9-1.4 1.3-.1.1-.1.1 0 .2l.4.4c.2-.1.3.1.4.2.2 0 .3-.2.5-.3.1-.1.1-.2 0-.3-.1 0-.1-.1-.2-.1s-.1-.1 0-.1c.1-.1 0-.1 0-.2.1 0 .1 0 .1.2 0 .1.1.1.1.1.1.1.2.1.1.2-.1.4.1.4.2.5.1-.1.1 0 .1 0h-.1zm0 6c.1.1.2.2.4.2.1 0 .1 0 .1-.1v-.1c-.2 0-.3-.1-.4-.1-.1 0-.2-.1-.4-.2-.1 0-.1-.1-.2-.1-.1.1.1.1.1.2s.1.1.1.2l3 3c.1.1.2.1.4 0 .3-.3.6-.5.9-.8-.4-.2-.7-.3-1.1-.5-.7-.3-1.4-.7-2-1.1-.1-.1-.3-.1-.4-.2-.2 0-.4-.2-.6-.3-.1-.1-.2-.1-.3-.2.1-.1.3 0 .4.1zm2-11.8c.2.2.2.3 0 .5-.1.1-.3.2-.2.2.1.1.2-.1.3-.2.2-.1.3-.3.5-.4.1-.1.2-.2 0-.3.1.1.2 0 .3 0l.7-.7c.1-.1.1-.2 0-.2-.3-.3-.3-.3-.7 0-.2.1-.3.3-.5.4-.1.1-.1.2 0 .3l.1.1c-.4-.2-.7-.6-1-.9-.4-.4-.8-.7-1.1-1.1H19c-.2.2-.4.4-.7.6-.1.1-.1.1 0 .2.4.4.8.8 1.2 1.1.1.1.1.1.2 0l.2-.2s.1-.1.2-.1c.2 0 .5.2.6.4l-.3-.3c-.1-.1-.2-.1-.3 0l-.3.3s0 .1.1.1l.6.6c.1.1.1.1.2 0 0-.1.1-.1.2-.2-.1.1 0-.1-.1-.2-.1 0-.2-.1-.2-.2l.2.2zm7.8 10.2.5-.5c.1-.1.1-.1 0-.2-.2-.2-.4-.3-.5-.6-.2 0-.2.2-.3.3-.1.1 0 .1 0 .2.1.1.2.1.2.3l-1.2-1.2-.3-.3c-.1-.1-.2-.1-.3-.1-.1 0 0 .1 0 .2s0 .1-.1.1c-.8.7-1.5 1.4-2.3 2.2-.1.1-.1.1-.2.1-.2 0-.1.1-.1.2 0 0 0 .1.1.1l1.5 1.5c.1.1.3.2.5.2 0 0 .1 0 .1-.1 0 0 0-.1-.1-.1-.5-.3-.8-.7-1.2-1.1-.1-.1 0-.1 0-.2.1-.1.2-.2.1-.4V27l.3-.3c.1-.1.2-.1.2 0 .1.1.1.1.2 0l.5-.5c.1-.1.1-.1 0-.1-.1-.1-.1-.2 0-.3.1-.1.2-.2.3-.2 0 0 .1-.1.2 0 .2.2.3 0 .4-.1.1-.1.2-.1.3 0l.9.9c.1.1.1.2.1.3 0-.1.1-.1.1-.2.1-.1.1-.1.1 0zm-17.5-5.3c.3.3.3.3.6 0 .2-.2.4-.3.5-.5.1-.1.1-.1 0-.2-.4-.4-.4-.4-.7 0-.2.1-.3.3-.5.4.2-.3.5-.5.8-.7.4.1.4-.3.6-.4.4-.3.3-.3 0-.6-.9-.8-1.7-1.7-2.6-2.5-.1-.1-.2-.1-.3 0-.5.5-.9.9-1.4 1.3-.1 0-.2.1-.1.2s.1 0 .2-.1l.6-.6c.1-.1.2-.1.3 0l1.7 1.7c.3.2.5.5.8.8.1.1.1.1 0 .2l-.6.6c-.1.1-.1.1 0 .2-.1 0 0 .1.1.2zm5.2-6.1c0 .3-.2.4-.4.6 0 0-.1 0-.1.1 0 0 .1.1.1 0 .4-.2.5-.2.8.1.7.7 1.4 1.4 2.2 2.1.1.1.2.2.2.3-.1-.3-.3-.4-.5-.6-.6-.6-1.3-1.2-1.9-1.8-.2-.2-.4-.2-.6 0 0 0-.1.1 0 .1.2.2-.1.2-.2.4-.1.1-.1.2-.3 0-.1-.1-.1 0-.2 0l-.5.5c-.1.1-.2.2-.1.3v.1l-.3.3h-.1c-.2-.2-.3 0-.3.1-.1.1-.1.3.1.4l.9.9 1.2 1.2c.1.1.3.3.5.4-.2-.1-.1.2-.3.2l.1.1c.1-.1.2 0 .3 0l.1-.1c0-.1-.1-.1-.2-.1.3-.1.5-.3.7-.6l1.3-1.3c.1-.1.2-.2.2-.4.1.2 0 .3-.1.4l-.9.9c.1 0 .2-.1.2-.1.2-.1.3-.3.5-.4.6-.3 1-.9 1.5-1.4.4-.3.3-.2 0-.5-1.1-1.1-2.2-2.2-3.4-3.3-.1-.1-.2-.2-.4 0-1.5 1.4-2.9 2.8-4.4 4.2-.1.1-.1.2 0 .3 1.2 1.1 2.3 2.2 3.5 3.4.2.2.3.1.4 0l.6-.6c.1-.1.1-.2 0-.3-.2.2-.4.3-.5.5-.1.2-.2.1-.3 0l-1.6-1.6c-.3-.3-.7-.6-.9-1 0-.1-.1 0-.1 0-.1 0-.1-.1 0-.2.2-.2.4-.3.5-.5.1-.1.2 0 .2 0 .2-.1.1.1.1.1s0 .1.1.1l.4.4s.1.1.1 0c.1-.1.2 0 .1.1v.1c.2.1.3.3.5.4h.1c.1 0 .1 0 .1.1-.1.2.1.2.2.3l.3.3c.1.1.3.1.3.3 0 .1.1.1.2.2 0 0 .1.1.1 0 .1-.1.1-.1 0-.2-.3-.3-.6-.6-.9-.8-.5-.4-.9-.9-1.4-1.3-.2-.2-.2-.4 0-.7 0 0 .1-.1 0-.1-.1-.1-.1 0-.1.1-.1.2-.3.4-.6.4s-.3 0-.3-.3c.1.1 0 .3.2.3s.5-.2.4-.4c0-.2-.2-.2-.3-.2-.1 0-.3-.1-.4.1v-.1c.1-.1.6-.1.7 0 .1.1.2.2.3 0 .1-.1.2-.3.4-.1 0 0 .1 0 .1-.1l.5-.5c.1-.1.3-.2.1-.3v-.1c.1-.1.1-.2.2-.2.1-.1.1-.1 0-.1-.2-.1-.2-.3-.2-.5 0-.3.1-.3.3-.2-.1.1-.2-.1-.2 0 0 .2.1.3.1.5.1.1.1 0 .2 0 .2-.1.3-.3.3-.4 0-.1-.1-.1-.2-.1.7-.4.7-.4.7-.2zm5.8 12.5h.1l.3-.3c.2-.1-.1-.2.1-.3.1 0 .2.1.3 0l.3-.3s.1-.1 0-.2v-.1h.1c.1.1.3-.2.4.1.1.1.2.3.4.3-.2-.3-.2-.3.1-.5l1.8-1.8c.1-.1.3-.4.5 0 .1-.1 0-.2 0-.2l-.2-.2c-.2-.2-.2-.2 0-.4.1-.1.2-.1.1-.3.1-.2.1-.2-.1-.4-.1.3-.3.4-.6.2.1.1.1.1.1.2s.1 0 .1 0c.1 0 .1.1 0 .1-.1.1-.2.2-.1.4 0 0 0 .1-.1.1-.2 0-.3-.1-.4.1h-.1c0-.2-.1-.3-.3-.3-.1 0-.1-.1 0-.1.1-.1.1-.2.1-.4 0-.1 0-.1.1-.1.3 0 .4 0 .5-.3.1-.2.3-.2.6-.1-.3-.6-.6-1.1-.9-1.7-.1.1-.2.2-.3.2-.1.1-.3.1-.4 0-.1-.1-.2 0-.3-.1-.1-.1-.2-.3-.2-.4 0-.1.1-.2.2-.3.2-.2.2-.2 0-.4-.2-.1-.3-.1-.4 0-1.3 1.3-2.6 2.5-4 3.8l-.7.7c-.1.1-.1.1 0 .2s.1 0 .1-.1c.2-.2.3-.2.5 0l.1.1c.2.2.3.2 0 .5-.1.1-.1.1 0 .2-.2-.1-.2-.1-.1-.2s.2-.1.2-.3c-.1-.2-.2-.3-.4-.4-.1-.1-.2.1-.3.2-.1.1-.1.1-.2.1s-.2 0-.2.1l-.3.3s-.1.1 0 .1v.1c0 .1-.1.1 0 .2.2.2.3.5.5.6.1.1.3.1.4.2.1 0 .2.2.2 0h.1s.1.1 0 .1c-.1.1 0 .1.1.2s.2.1.3.2c.1 0 .2.2.2 0h.1v.1c-.2.1 0 .1.1.1.4.2.8.4 1.3.7.1-.2.1-.4.2-.3zM9 15c-.1.1-.1.2 0 .3.9.9 1.9 1.8 2.8 2.7.1.1.2.1.3 0 1.1-1 2.2-2.1 3.3-3.1.4-.4.8-.8 1.2-1.1.1-.1.1-.2 0-.2-.9-.9-1.9-1.8-2.8-2.7-.1-.1-.2-.1-.2 0-.7.6-1.3 1.3-2 1.9l-.3.3c-.8.5-1.5 1.2-2.3 1.9zm14.1 2.3c.4.2.9.5 1.3.8.2.2.4.2.7.2-.1-.1-.3-.2-.4-.4-.7-.8-1.5-1.5-2.3-2.2-.1-.1-.2-.2-.4 0l-.5.5c-.1.1-.1.1 0 .2.2.1.5.3.7.5-.2-.1-.4-.3-.6-.4-.1-.1-.2-.1-.2.1-.1.3-.2.6-.4.8-.1.1 0 .2.1.2 1 .6 2.1 1.3 3.1 1.9.3.2.7.4 1 .6.1.1.1 0 .2 0 .2-.2.4-.4.6-.5.1-.1.1-.1 0-.2-.3-.3-.6-.6-1-.9-.1 0-.2-.2-.3-.1 0 0-.1 0-.2-.1 0-.1.1 0 .1-.1l-1.5-.9zM8.2 14.2c-.2.1-.1.2 0 .4.2.1.3.3.5.4.1.1.2.1.3 0 1.1-1 2.1-2 3.2-3.1.5-.4.9-.9 1.4-1.3.1-.1.1-.2 0-.3l-.5-.5c-.1-.1-.2-.1-.3 0-.7.6-1.3 1.3-2 1.9-.1.1-.2.2-.3.2-.8.9-1.6 1.6-2.3 2.3zm10.4 12.3c-.2-.1-.2-.3-.3-.4-.8-1.2-1.6-2.4-2.4-3.7-.1-.1-.1-.1-.2-.1-.3.1-.6.3-.9.4-.1 0-.1.1-.1.2.1.1.1.2.2.2 0 .1.1.2.2.1h.1v.1c-.2.1-.1.2 0 .2.5.7.9 1.4 1.4 2.1 0 0 0 .1.1.1s.1.1.1.1c-.1.3.1.4.2.5.1.2.3.3.5.4.1 0 .1.2.2.3.1.1.1.1.2 0 .3-.1.6-.3.7-.5.1-.1.1-.1 0-.2 0 .1.1.1 0 .2zm9.9-3.2c-.6-1-1.2-2.1-1.8-3.1-.1-.2-.3-.5-.5-.6-.1-.1-.1-.1-.2 0-.2.2-.4.3-.5.5-.1.1-.1.1 0 .2.6 1.1 1.2 2.1 1.7 3.2 0 .1 0 .1.1.1.5.2 1.1.3 1.6.5 0-.3-.2-.5-.4-.8zm-.2 3.5c.1-.1.1-.5 0-.6l-.9-.9c-.1-.1-.1-.1-.2 0 0 .1-.2.1-.1.2s0 .2 0 .2l-.2.2-.1.1c-.2-.1-.3.1-.4.2l-.5.5-.1.1c.2.3-.1.3-.2.4-.1.1-.2.2-.3.1-.1-.1-.1 0-.2.1s0 .1 0 .2l.9.9c.1.1.6.1.7 0 .3-.3.6-.5.9-.8.1-.3.4-.6.7-.9zm-6 1.7c0-.1-.1-.1-.2-.2-1.1-.6-2.2-1.1-3.2-1.7-.2-.1-.3-.1-.4.1l-.4.4c-.1.1-.1.1 0 .2 0 0 .1.1.1.2v.1c.2-.1.3.1.4.1.2.1.5.2.7.3 1.1.8 2.3 1.3 3.5 2h.1c-.3-.5-.5-1-.6-1.5zm-3.5-15.2c-.3.2-.3.2-.5 0-.6-.5-1.1-1.1-1.7-1.7-.3-.2-.5-.5-.7-.7-.1-.1-.1-.1 0-.2l.6-.6s.1-.1 0-.1c-.1-.1-.1 0-.1 0-.5.5-1 .9-1.5 1.4-.1.1-.1.2 0 .3.7.7 1.4 1.4 2.2 2.1l.6.6c.1.1.2.1.3 0l.5-.5c.1-.1.2-.1.1-.3 0 0 0-.1.1-.1l.6-.6s.1-.1 0-.2c-.1.2-.3.4-.5.6zm4.6 19.6c.1.1.2.1.3 0 .5-.5.9-.9 1.4-1.3.1-.1.1-.2 0-.3l-.1-.1c-.4-.5-.9-.7-1.5-.8-.4-.1-.6 0-.9.3l-.6.6c-.1.1-.2.2 0 .3.2.2.5.4.7.6.3.2.5.5.7.7zm8.5-7.8c.1-.1.1-.1 0-.2-.5-.5-1-.9-1.4-1.4-.1-.1-.1-.1-.2 0l-.9.9c-.1.1-.1.1-.1.2.1.3.1.6.2.9 0 .1.1.3.2.4l.6.6c.1.1.2.1.3 0l.7-.7c.1-.3.3-.5.6-.7zM16.3 9.8c.1-.1.1-.1 0-.2l-1.2-1.2c-.1-.1-.1-.1-.2 0-.5.5-1 .9-1.5 1.4-.1.1-.1.1 0 .2.4.4.8.8 1.3 1.2.1.1.2.1.2 0l.7-.7c.2-.2.4-.5.7-.7zm-6.8 6.5c.1-.1.1-.1 0-.2l-1.2-1.2c-.1-.1-.2-.1-.3 0-.5.4-.9.9-1.4 1.3-.1.1-.1.2 0 .3l1.2 1.2c.1.1.2.1.3 0l.7-.7c.2-.2.4-.5.7-.7zm3.8 3.5c-.1-.1-.2-.1-.3 0l-.6.6s-.1.1 0 .2l1.3 1.3c.3.3.6.5.8.8.1.1.2.1.3 0 .2-.2.4-.4.6-.5.1-.1.1-.2 0-.3-.4-.3-.7-.7-1.1-1-.3-.5-.7-.8-1-1.1zm9 8.3c-.1.1 0 .1 0 .2.2.5.4 1.1.6 1.6 0 .1.1.1.2 0l.2-.2c.1-.1.1-.1.1-.3 0-.1 0-.3.1-.3.3-.1.3-.4.5-.5l.6-.6c.1-.1.2-.2 0-.2-.2-.1-.3-.4-.5-.5-.1-.1-.2-.1-.3-.3-.1-.1-.1-.2 0-.3-.6.5-1 1-1.5 1.4zm5.2-7.6c0 .1 0 .2.1.3.6.9 1.1 2 1.5 3 .1.2.1.2.3.1l.7-.7c.1-.1.1-.2 0-.3l-.9-.9c.1 0 .1.1.2 0-.4-.3-.8-.8-1.2-1.2L27 19.6c.5.5 1.1 1 1.6 1.6-.5 0-.8-.3-1.1-.7zm-10.8 5.8c-.1 0-.1-.2-.1-.3v-.2c-.6-1-1.3-1.9-1.9-2.9-.1-.1-.1-.1-.2 0l-.5.5c-.1.1-.1.2 0 .3.6.6 1.2 1.2 1.9 1.8l1.4 1.4s.1.1.2.1c-.3-.3-.5-.6-.8-.7zm-6.9-8.2c-.1-.1-.1-.1-.3 0l-.7.7c-.1.1-.1.1 0 .2.4.4.8.8 1.3 1.2.1.1.1.1.2 0 .3-.2.5-.5.8-.7.1-.1.1-.1 0-.2l-.6-.6c-.3-.3-.5-.4-.7-.6zm18.1 10.7c-.1.1-.1.1 0 .2.5.4.9.8 1.4 1.2.1.1.1.1.2 0 .2-.2.4-.3.5-.5.1-.1.1-.1 0-.2-.5-.5-.9-1-1.4-1.5-.1-.1-.1-.1-.2 0-.2.2-.4.4-.7.6-.1.1-.1.1 0 .2s.2.1.2 0l.3-.3c0 .1-.1.2-.3.3zm-15-5.8c.1.1.1.1.2 0 .2-.2.5-.5.8-.7.1-.1.1-.1 0-.2-.4-.4-.8-.8-1.3-1.2-.1-.1-.1-.1-.2 0l-.7.7c-.1.1-.1.1 0 .2l.6.6c.2.1.4.3.6.6zm5-10.3c.1.1.1.1.2 0 .2-.2.5-.5.8-.7.1-.1.1-.1 0-.2-.4-.4-.9-.8-1.3-1.2-.1-.1-.1-.1-.2 0-.3.2-.5.5-.8.7-.1.1 0 .1 0 .2l.6.6c.3.2.5.4.7.6zm2.5.7c-.1-.1-.1-.1-.2 0l-.7.7c-.1.1-.1.1 0 .2l1.2 1.2c.1.1.1.1.2 0 .2-.2.5-.5.8-.7.1-.1.1-.1 0-.2l-.6-.6c-.2-.2-.4-.4-.7-.6zm4.3 17c-.1.1-.1.1 0 .2.1 0 .3.1.4.2h.1c.2-.1.3-.1.4.1 0 0 .1 0 .1-.1l1.1-1.1c.1-.1.1-.1 0-.2-.2-.2-.3-.4-.6-.5H26c-.2.2-.5.4-.7.7-.1.2-.3.4-.6.7zm2.3-6.1s0 .1.1.1c.2.2.5.4.7.6.1.1.2 0 .3 0 .1.1-.1.2 0 .3.1.1.2.2.4 0l.2-.2s.1-.1 0-.1h-.1s-.1.1-.2 0 0-.1 0-.2c.2-.1.3-.3.5-.4.1-.1.1-.1 0-.2-.6-.2-1.1-.4-1.7-.6H27c-.2.2-.3.3-.5.4.2 0 .4.1.5.3zm-1.7 4.3c-.1-.1-.2-.1-.3 0l-.6.6c-.1.1-.3.2-.2.4 0 0 0 .1-.1.1-.2.1-.1.3 0 .4.4.4.4.4.8 0s.8-.7 1.2-1.1c-.3-.1-.6-.2-.8-.4zm-.8 5.1 1.4-1.4c.2-.2-.1-.3-.1-.4-.1-.1-.2-.1-.2 0 0 0-.1.1 0 .1 0 0 .1.1 0 .1h-.1c-.1-.1-.1 0-.2 0l-.3.3c-.1.1-.1.1 0 .2s0 .2-.1.1-.2 0-.2 0l-.3.3-.1.1c.1.2 0 .3-.2.2 0 0-.1.1 0 .1l.2.2c0 .3.1.2.2.1zm6.8-6.5c.4-.4.9-.9 1.4-1.3.1-.1.2-.1.1-.2l-.3-.3c-.1 0-.1.1 0 .1.1.1 0 .2-.1.1s-.2 0-.3.1l-.3.3c-.1.1.1.2 0 .3-.1.1-.2-.1-.3 0-.1.1-.2.3-.4.4-.1.1.1.2 0 .3-.1.1-.1-.1-.3 0-.2.2 0 .2.1.3.2.1.3 0 .4-.1zM16 10.7c-.1.1-.1.1 0 .2.4.4.4.4.8 0l.4-.4s.1 0 .1-.1c.1-.3-.2-.3-.3-.5-.1-.1-.1-.1-.2 0 0 .1-.1.1-.2.2l-.6.6zm-4.6 9.6c.4-.4.4-.4 0-.7-.1-.1-.1-.1-.2 0l-.8.8c0 .2.2.3.3.4.1.1.1.1.2 0s.3-.2.4-.4l.1-.1zm1.9 2.8c-.1.1-.1.1 0 .2.4.4.3.4.7 0l.5-.5c.1-.1.1-.1 0-.2-.3-.3-.3-.3-.7 0l-.1.1c-.2.1-.3.3-.4.4zm-5-5c-.2.2-.2.2 0 .4.3.2.3.2.5 0l.6-.6c.1-.1.1-.1 0-.2-.4-.4-.4-.4-.7 0l-.2.2-.2.2zm10.8-4.9c-.3.3-.3.3 0 .6.1.1.2.1.3 0 .2-.2.5-.4.7-.7.1-.1.1-.1 0-.2-.4-.3-.4-.3-.7 0l-.1.1-.2.2zm-.8-.4c-.2.2-.2.2 0 .4l.1.1c.1.1.2.1.3 0 .2-.2.5-.4.7-.7.1-.1.1-.1 0-.2-.3-.4-.3-.4-.7 0-.1 0-.1.1-.2.2l-.2.2zm11.3 13.9v-.1c0-.1-.1-.2-.1-.4-.1-.2-.1-.2-.3-.1l-.2.2c-.2.2-.2.4 0 .6v.1c.3.4.3.4.7 0-.1-.1-.3-.1-.1-.3zm-7.7 1.1c-.9-.5-1.8-.9-2.7-1.4h-.1c-.1 0-.1 0-.2.1 0 .1 0 .1.1.1 1 .5 2.1 1.1 3.1 1.6 0-.3-.1-.4-.2-.4zm2.3 5.4c.2-.2.4-.3.5-.5 0 0 0-.1.1-.1.3-.1.5-.3.6-.6 0-.1.1 0 .2-.1 0 0 .1-.1.1-.2-.1-.1-.1-.1-.2 0-.5.4-1 .9-1.5 1.3-.2.2.1.2.1.3-.1-.1 0 0 .1-.1zm7.8-7.9c-.4.5-.9.9-1.3 1.4 0 0-.1.1-.1.2l.1.1c.1 0 .1-.1.1-.2s.1-.1.2-.1c.2-.2.4-.3.5-.6 0-.1.1 0 .2-.1.2-.2.4-.3.5-.5 0-.1.1 0 .2-.1-.2-.3-.2-.3-.4-.1zm-8.4 1.5.1-.1c.1-.1 0-.1 0-.2-.1-.1-.1-.1-.2 0-.4.4-.9.8-1.3 1.2-.1.1 0 .2 0 .3.5-.4.9-.7 1.4-1.2zm-3.1-9.1c-.1.2-.3.2-.3.5 0 .1-.1.1-.2.1h-.1c0 .1-.2.1-.1.2s.1 0 .2-.1c.3-.3.6-.5.8-.8l.1-.1c.2-.4.3-.7.5-1.1l-.6.6v.1c.1.2 0 .3-.1.3l-1.5 1.5.4-.4 1.1-1.1s.1-.1.2-.1 0 .1 0 .1 0 .1.1.1c-.4.1-.4.1-.5.2zm7.8 4.8c-.2-.4-.3-.7-.5-1-.2-.3-.3-.6-.6-.7l1.5 2.7c-.2-.4-.3-.7-.4-1zm-2.5 8.6c-.1 0-.2.1-.2.2-.1.1 0 .1.1.2.4.5.4.5.9 0l.2-.2c-.5-.1-.7-.2-1-.2zm-1.3-10.4c-.1.1-.1.2.1.2.1 0 .2.1.2.2s.1.2.2.1c.3-.2.3-.5 0-.8-.2-.2-.3 0-.4.1-.1.1-.1.2-.1.2zm-5.7-1s-.1.1-.1.2c.1.1.1 0 .2-.1.6-.6 1.3-1.2 1.9-1.8.1-.1.1-.1.1-.3-.8.7-1.5 1.3-2.1 2zm11.8 7.8c.1-.1.1-.1 0-.2s-.3-.2-.4-.4c0 0-.1-.1-.1 0-.1 0-.2.1-.1.1.1.3.1.5.2.9.1-.2.3-.3.4-.4zm-2.8.6c-.2.2-.3.4-.2.7l.9-.9c-.3-.2-.5 0-.7.2zm-2.5-4.3c.1.1.3.2.3 0 .1-.1.3-.1.2-.3 0-.1 0-.2-.1-.2-.1-.1-.3-.1-.5 0-.1.2-.1.4.1.5zM23.8 30c-.2-.2-.3-.2-.5 0-.1.1-.1.2 0 .2.3.1.5.1.8.2-.1-.2-.2-.3-.3-.4zm-5.3-7.4c.1 0 .1.1.2 0s.2-.1.1-.2v-.2c0-.1-.1-.2-.1-.2-.1-.1-.2-.1-.2 0 0 0-.1 0-.1.1-.2.1-.2.2 0 .3 0 0 .1 0 .1.1v.1zm0-2.9c-.6.6-1.1 1.1-1.7 1.6.2 0 1.7-1.4 1.7-1.6zm10.6 4.9s-.1 0 0 0c-.4.3-.4.3-.1.6l.2.2c0-.2 0-.5-.1-.8zm-9.5-5.9s.1-.1 0-.1h-.1c-.3.3-.5.5-.8.7 0 0-.1.1 0 .1 0 .1 0 .1-.1.1h-.1s0 .1.1.1h.1l.5-.5c.1-.1.3-.2.4-.4zm-4 3.2s0-.1 0 0c-1.2-1.2-2.4-2.4-3.6-3.5 1.2 1.1 2.4 2.3 3.6 3.5zm1.3-8.2c1.2 1.2 2.4 2.3 3.6 3.5-1.2-1.2-2.3-2.4-3.6-3.5zm10.4 7c.1-.1 0-.1 0-.2-.2-.3-.5-.4-.6-.7 0 0-.1-.1-.1 0v.1c.2.2.3.5.5.8.1 0 .1.1.2 0zm-13.5 2.9c1.1 1.1 2.2 2.2 3.3 3.2-1-1-2.2-2.1-3.3-3.2zm9.6 5.8c0 .1 0 .2.1.3.1 0 .1-.1.2-.1l.3-.3c.1-.1.1-.1 0-.2-.1 0-.3 0-.4.1-.2.1-.2.2-.2.2zm3.4-5.7.1-.1c-.1-.1-.2-.1-.3 0l-.3.3c-.1.1 0 .1 0 .2.1.1.1.1.2 0l.2-.2c0-.1.1-.1.1-.2zM14 22.3s.1-.1 0-.1v.1c-.4.2-.6.4-.9.7 0 0-.1.1 0 .1 0 .1.1 0 .1 0l.4-.4c.2-.1.3-.2.4-.4zm-2.3-4.2s0-.1 0 0c-.9-.9-1.8-1.7-2.6-2.6l2.6 2.6zm13.3 2c-.6-.5-1.2-.8-1.8-1.2v.1c.6.4 1.2.7 1.8 1.1zm1.6 8.5c.6-.5 1.2-1.1 1.8-1.7-.7.5-1.2 1.1-1.8 1.7zm-10.2-6.5.5-.5s.1-.1 0-.2-.1 0-.1 0l-.6.6c.1.2.2.2.2.1zm2.7 6.7c.8.8 1.7 1.7 2.6 2.5-.9-.9-1.7-1.7-2.6-2.5zm13.3-3.5-2.5-2.5c.8.9 1.7 1.7 2.5 2.5zM8.6 18.7s0 .1 0 0c0 .1.1.1 0 0 .4-.2.7-.5 1-.8l-.1-.1c-.2.3-.6.6-.9.9zm8.9 5.7c-.1 0-.1 0 0 0 .3.6.7 1.3 1.1 1.9h.1c-.5-.7-.8-1.3-1.2-1.9zm12.7-1c-.2 0-.3.2-.4.3l-.3.3c-.1.1-.3.2-.3.4l1-1zm-4.8-3c.2.5.5 1 .7 1.5h.1c-.3-.5-.5-1-.8-1.5zm-5.8-6.6-.3.3v.1h.1l.9-.9-.1-.1c-.2.1-.4.4-.6.6zM22 28.2s.1 0 0 0c-.5-.3-1-.6-1.5-.8v.1c.5.2 1 .5 1.5.7zm-1.1-12.5c.4-.3.7-.6 1-.9l-.1-.1c-.3.3-.6.6-.9 1zm-.5 11.7c.1 0 .1-.1 0 0-.5-.3-1-.6-1.5-.8v.1c.5.2 1 .4 1.5.7zm-7.9-6.8s-.1 0 0 0c-.4.2-.7.6-1 .9l.1.1c.2-.3.6-.6.9-1zm5.5-7.7c.4-.3.7-.6 1-.9-.3.3-.7.6-1 .9zm-.7-2.4-.8.8-.1.1c.1.1.1 0 .1 0l.9-.9c-.1-.1-.1-.1-.1 0zm-6.1 9c0-.1 0-.1 0 0-.4.3-.7.6-1 .9.4-.3.7-.6 1-.9zm4.1-7.4c.4.5.9.9 1.3 1.3-.3-.5-.8-.9-1.3-1.3zm8.5 16.8c0 .1 0 .1 0 0 .4-.3.7-.6 1-.9-.4.3-.7.6-1 .9zm2.9-2.9c.1.1.2 0 .3-.1.1-.1.3-.1.1-.3-.1-.1-.2.1-.3.1 0 .1-.3.1-.1.3zM15 8.3c.5.5 1.1 1 1.6 1.6-.5-.6-1-1.1-1.6-1.6zm10.8 14.9c.1.1.2.1.3 0 .1-.1.1-.2 0-.3-.1-.1-.2-.1-.3 0-.1.1-.1.2 0 .3zm-7.2-3.3c-.5.5-1.1 1-1.6 1.5.5-.5 1.1-1 1.6-1.5zm6.9 11.7c.1-.1.1-.1 0-.2s-.2-.1-.1-.3c-.2.1-.2.2 0 .3.1.1.1.2 0 .2-.2.1-.3.3-.5.4.2-.1.4-.3.6-.4zm5-4.9c-.1.1-.2.1-.3 0l-.1-.1H30c-.1.1 0 .1 0 .1l.1.1c.1.1.1.1.2 0l.6-.6c0 .1-.2.3-.4.5zm-5.2.6c.1.1.2-.1.2-.1.1-.1.3-.1.1-.3-.1-.1-.2.1-.3.1 0 .2-.2.2 0 .3zm.3-.7c-.1-.1-.2 0-.3.1-.1.1-.3.1-.2.3.1.1.2-.1.3-.1.1-.1.3-.2.2-.3zm1.2-1.1c-.1-.1-.2.1-.3.1-.1.1-.3.1-.1.3.1.1.2-.1.3-.1-.1-.2.2-.2.1-.3zM6.7 16.7l1.4 1.4-1.4-1.4zm11.6 5.9c.1-.1.1-.1 0-.1-.2-.2-.4-.3-.6-.5l.6.6zm6.8-4.3c0 .2.2.2.3.4-.1 0-.2-.2-.3-.2.1.3.4.2.6.4-.2-.3-.4-.4-.6-.6zm-10.3-6.8c-.3-.3-.6-.6-1-.9.3.3.7.6 1 .9zm15.4 17.1c.1 0 .2.1.2.2h.1v-.1c-.1-.1 0-.3-.1-.3s-.1.1-.2.1 0 .1 0 .1zm-5.7 1.9c-.2-.2-.3-.4-.5-.5.1.2.3.3.5.5zm1.8-10.9c0-.1 0-.1 0 0-.1-.3-.4-.5-.7-.6.2.1.5.3.7.6zM19.9 21l-.9-.9.8.8c.1.1.2.2.2.4 0-.1-.1-.2-.1-.3zm-2.8-.6c.3-.1.4-.4.7-.6-.2.1-.4.3-.7.6zm4.4 9.1s.1 0 0 0c-.3-.2-.6-.4-.9-.5.3.2.6.4.9.5zm-6.6-18.3c.2 0 .4-.2.5-.4-.2.2-.4.3-.5.4zm-2 8.6c0-.1 0-.1 0 0 0-.1 0-.1 0 0-.2.1-.3.2-.4.3.2-.1.3-.2.4-.3zm16.4 6c0-.1-.3-.4-.5-.5.2.2.3.4.5.5zm-21.2-8c.1.1.2-.1.3-.2.1-.1.2-.1.2-.2-.1-.1-.1.1-.2.1-.2.1-.4.2-.3.3zm9.9 9.7c-.1-.2-.3-.3-.4-.5.1.2.2.4.4.5zm10.7-2.7c.2 0 .3-.1.3-.3-.1 0-.2.1-.3.3zm-6.8 6.4c0 .1 0 .1 0 0 .2-.1.3-.2.5-.4h-.1l-.4.4zm-3.2-17c0-.1 0-.1 0 0-.2.1-.3.2-.4.3l.1.1c.1-.1.2-.3.3-.4zm-2.8-3.9c.2-.1.3-.2.4-.4-.2.1-.3.2-.4.4zm-6.8 6.5c.2 0 .4-.2.5-.5-.3.2-.4.3-.5.5zm3.3 3.2c.2-.1.3-.2.4-.4-.2.1-.3.2-.4.4zm12.8 11.6c-.2.1-.3.2-.4.4.2-.1.3-.2.4-.4zM9 16.8c-.2.1-.3.3-.5.5.3 0 .5-.3.5-.5zm15.7 15.3c-.2.1-.3.2-.4.4.1-.1.3-.2.4-.4zm-1.8-1.7c-.2 0-.4.2-.4.4.1-.1.2-.3.4-.4zm-7.1-20c0-.1 0 0 0 0h-.1c-.1.1-.2.2-.4.3.2 0 .5-.2.5-.3zm8.4 22.2c-.2.1-.3.2-.4.4l.4-.4zM18.6 14c-.2.1-.3.2-.4.4.2-.1.3-.2.4-.4zm12.8 11.6c-.2.1-.3.2-.4.4.2-.1.3-.2.4-.4zm-13.3-2.4c.2-.1.3-.2.4-.4-.2.1-.3.3-.4.4zm13.9 2c-.1 0-.1 0 0 0a.78.78 0 0 1 0 0zm-8 4.1-.4.4c.2-.1.3-.2.4-.4zm6.5-2.8c.2-.1.3-.2.4-.4l-.4.4zm-8.7 4.9.7.7c-.2-.2-.4-.5-.7-.7zm-7.1-14.1s.1-.1 0 0v-.1s-.1-.1-.1.1v.1c-.2 0-.1.1-.1.2h.1c0-.2 0-.2.1-.3zM25.1 31c-.1-.1-.1-.3-.4-.3.2 0 .2.3.4.3zm4.5-5c0 .2.1.3.4.4-.2-.2-.4-.2-.4-.4zm-12.3 1.2c.1-.1 0-.1-.1-.2 0 0-.1-.1-.1 0-.1.1 0 .1.1.1 0 .1 0 .2.1.1zm-3.7-16.8s.1 0 0 0l-.6-.6.6.6zm-5.5 4.2.5.5c-.2-.2-.4-.3-.5-.5zm-.8 2.9c-.1.1 0 .1 0 .1s.1.1.2.1c.1-.1 0-.1 0-.2-.1 0-.2-.1-.2 0zm16.1-1.3c0-.1 0-.1-.1-.2 0 0-.1-.1-.1 0-.1.1.1.1.1.2 0 0 0 .1.1 0zm-7.7.1.3-.3c-.1.1-.4.1-.3.3zm16.1 8.2c0-.1 0-.1-.1-.1l-.1-.1c-.1.1 0 .1.1.2 0 0 0 .1.1 0zm-.4-.4c.1-.1 0-.1-.1-.2l-.1-.1c-.1.1 0 .1.1.1 0 .2 0 .2.1.2zm-10.1 7c.1-.1 0-.1-.1-.1l-.1-.1c-.1.1 0 .1.1.2 0 0 .1.1.1 0zm-2.6-12c-.1.1-.3.2-.4.4.2-.1.3-.2.4-.4zm-4.1 5.5c.1-.1 0-.1-.1-.1 0 0-.1-.1-.2 0s0 .1.1.1.2.1.2 0zM26 18.8c0-.1 0-.1-.1-.2 0 0-.1-.1-.1 0-.1.1.1.1.1.2 0 0 .1.1.1 0zm2.2 2.2c.1-.1 0-.1-.1-.1l-.1-.1c-.1.1 0 .1.1.1.1.1.1.2.1.1zm-1.7-1.7c.1-.1 0-.1-.1-.1l-.1-.1c-.1.1 0 .1 0 .1.1.1.1.2.2.1zm1.3 1.3c.1-.1 0-.1-.1-.2l-.1-.1c-.1.1 0 .1.1.1 0 .2 0 .3.1.2zM16 25.9s0-.1-.1-.1l-.1-.1c-.1.1 0 .1 0 .1.1.1.1.2.2.1zm10.7-6.4c-.1.1 0 .1 0 .1s.1.1.2.1c.1-.1 0-.1-.1-.1 0-.1 0-.1-.1-.1zM14 24c-.1.1 0 .1.1.1l.1.1c.1-.1 0-.1 0-.1-.1-.1-.2-.2-.2-.1zm7.8 7.5c0-.1 0-.1-.1-.1l-.1-.1c-.1.1 0 .1 0 .1.1.1.1.2.2.1zm-.9-.8c.1-.1 0-.1-.1-.1 0 0-.1-.1-.1 0-.1.1 0 .1.1.1 0-.1 0 0 .1 0zm-.5-.5c.1-.1 0-.1-.1-.1l-.1-.1c-.1.1 0 .1.1.1 0 .1.1.2.1.1zm-.9-.8c.1-.1 0-.1-.1-.2 0 0-.1-.1-.1 0-.1.1 0 .1 0 .2.1-.1.2 0 .2 0zm-.4-.5c.1-.1 0-.1-.1-.1l-.1-.1c-.1 0 0 .1.1.1 0 .1 0 .2.1.1z"/><path d="M23.5 23s.1 0 0 0v-.3c.1.1.1.2.2.3.1-.1.1-.3.3-.2.2.1.4.3.4.5 0 .1 0 .1.1.1s.2 0 .4-.2c-.2 0-.3 0-.4-.1-.1-.1-.2-.3-.1-.4.1-.2.2-.2.4-.3.2 0 .3-.1.5 0 0 .1 0 .2.1.3 0 .3-.2.4-.4.6.3-.1.4-.3.5-.5 0 .3-.4.6-.8.7-.2 0-.3 0-.4.2 0 .1-.1 0-.2 0s-.3-.1-.4 0c-.1.1-.2.1-.3 0-.1-.1-.1-.1 0-.2.1-.2 0-.3-.2-.4-.3-.2-.5-.4-.8-.6-.1-.1-.1-.1-.2 0s-.1 0-.2-.1c0-.1.2-.4.3-.4.1 0 .1 0 .2.1v.1c-.1.1 0 .2.1.2l.9.6c-.1 0-.1 0 0 0zm.3.3c.2.1.3 0 .4-.1.1-.1 0-.2-.1-.3-.2-.1-.3-.1-.4.1 0 .1-.2.1-.2.3.1 0 .1.1.3 0zm1-.6c-.1 0-.1-.1-.2-.1 0 0 .1-.1-.1-.1-.1 0-.2.1-.2.2v.2c.1 0 .2 0 .2.1s.2 0 .3-.1c.1-.1.3-.2 0-.2zm-1.5.4c-.3-.3-.7-.6-1-.8v.1c.3.2.6.5 1 .7zM22.5 24.3c-.1-.1-.1 0 0 0l-.1.1c0 .1 0 .3-.1.3-.2 0-.5-.1-.5-.3 0-.1-.1-.1-.2-.1-.3.2-.4.4-.4.7-.1 0-.1.2-.1.2-.1-.3 0-.6.2-.9.1-.1.3-.2.4-.3l.1.1c.1 0 0-.1 0-.2.1-.1.1-.1 0-.2s-.1.1-.2.1c0-.1 0-.2.2-.2.1 0 .3-.1.3-.2s.1-.1.2-.1.1.1.1.2c0 .2.1.3.3.3.1 0 .2 0 .3.1-.2 0-.3-.1-.5 0 .4.1.9.2 1.3.3-.3.1-.7.1-1.3.1.1 0 .2 0 .2.1.1.1.3.2.2.5 0-.3-.1-.5-.4-.6zm-.5-.2c-.2 0-.2.1-.2.3 0 .1.1.2.2.2.3 0 .3.1.3-.2v-.3c0-.2-.2-.1-.2-.1 0-.1 0 0-.1.1.1 0 .1 0 0 0zm-.9.8c.1-.3.3-.5.6-.6-.4 0-.6.2-.6.6z"/><path d="M21.1 25.1c-.1 0-.1.2-.1.2.1.4.4.7.7.8-.2-.1-.5-.2-.5-.5.1.3.4.3.6.4.2 0 .3 0 .5-.1h-.5c.1-.1.1-.2 0-.2-.3-.2-.3-.2 0-.5l.1-.1c.2-.2.2-.2.4 0 .1.1.1.2.3.1-.1.2-.4.4-.5.6l.5-.5s.1-.1 0-.1l-.1-.1c-.1.1-.1 0-.2 0-.2-.2-.2-.2-.5 0l-.1.1c-.2.2-.2.2 0 .5l.1.1c-.1.1-.1 0-.2 0-.3-.1-.4-.4-.5-.7zM24.3 21.4c-.4 0-.7.2-.9.6-.2.3-.2.7.1 1-.1-.2-.2-.4-.1-.6 0-.4.3-.7.6-.8-.4.2-.6.5-.6.9.1-.3.2-.6.5-.8.2-.1.5-.1.7-.1-.1-.1-.2-.1-.3-.2-.2.1 0 .1 0 0zM23.9 24.4c.1.1 0 .3.2.2.2 0 .1-.2.2-.3 0-.1 0-.2-.1-.2-.1-.1-.1 0-.2.1 0 .1-.1 0-.2 0-.2 0-.4-.1-.6-.1.2.1.4.1.6.1.1.1.2.1.1.2z"/><path d="M23 25.3c-.1.1-.1.3-.3.5.1-.3.3-.5.2-.7-.1.1 0 .4-.3.5 0 .3-.3.3-.4.4.1 0 .2-.1.4-.1-.2.2-.4.2-.6.2.5.1 1-.3 1-.8zM25.2 22.3c0 .1 0 .2.1.3.1 0 0-.1.1-.2.1.1 0 .2 0 .2.1-.2.1-.3 0-.5-.1 0 0 .1-.1.2-.1-.5-.3-.7-.7-.8 0 .1.1.1.1.1.3.2.5.4.5.7z"/><path d="M24.4 21.4c.2.1.4.1.5.2.2.2.3.4.4.6 0-.4-.4-.7-.9-.8zM13.2 13.5c-.1 0-.1.1-.1.2.1.5.9.9 1.4.7.3-.1.5-.4.7-.6.1-.2.1-.5 0-.8-.2-.5-.9-.8-1.4-.5-.2.1-.4.3-.5.5 0 .1-.1.1 0 .2v-.1c.1-.3.3-.5.6-.5.2 0 .4-.1.6 0 .4.1.7.4.7.7v.1c.1.1 0 .2-.1.3-.2.5-.5.7-1 .7-.1.1-.2 0-.3 0-.3-.1-.5-.3-.5-.6v-.1c0-.1-.1-.1-.1-.2zM10.8 16.1c.1.3.3.5.7.6.3.1.6.1.9-.2.2-.2.4-.3.5-.6 0-.1 0-.2-.1-.2 0 .3-.2.5-.4.7-.2.2-.5.3-.8.2-.1.1-.1 0-.2 0-.3-.1-.4-.3-.6-.5z"/><path d="M14.5 12.5c-.2-.1-.4 0-.6 0-.2.1-.5.3-.6.5v.1c0 .1-.1.2 0 .3h.1c0-.7.5-.9 1-.9-.1.1 0 .1.1 0-.1 0 0 0 0 0zM12.1 14.7c.2.1.4.2.5.4.1.1.2.2.1.4V15.8c.1 0 .1-.1.1-.2 0-.4-.3-.8-.7-.9zM11.5 14.7c-.4 0-.7.4-.8.8.1-.1.1-.2.2-.3 0-.1 0-.1.1-.1.1-.2.4-.3.5-.4zM12.8 16.6c.1-.1.1-.1 0-.2s-.1 0-.2.1-.1.1 0 .2.1 0 .2-.1zM15 14.2c-.1.1-.1.1 0 .2s.1 0 .2 0 .1-.1 0-.2-.1 0-.2 0zM16 13.4v.2h.1c.1 0 0-.1 0-.2H16zM13.3 13.5c-.1 0-.1 0 0 0l-.1.1c.1 0 .1-.1.1-.1zM22.8 19.4c-.1 0-.1.1-.1.1.1.1 0 .2-.1.3-.1.1 0 .2.1.3.1 0 .1.1.2.1.3.2.4.2.6-.1 0-.1.1-.1.1 0 0 0 .1 0 .1-.1v-.3h-.2c0 .1.2.1.2.2-.2-.1-.2-.1-.4.2-.1.1-.1.1-.2 0L23 20c-.2-.1-.2-.2-.1-.4-.1.1 0 0-.1-.2 0 .1 0 .1 0 0zM21.1 19l.2-.2c.1-.1 0-.1 0-.2-.1-.1-.3-.1-.2-.3H21c0 .1-.1.1 0 .2.1-.1.1 0 .2.1.2.1.2.2 0 .3-.1 0-.1.1-.1.1-.3.2-.3.2-.6-.1-.1-.1-.1 0-.1 0s-.1 0-.1.1.1 0 .1 0h.1c.3.3.3.3.6 0z"/><path d="M23.4 19.8c-.1-.1-.2-.2-.3-.2-.1 0-.1 0-.1-.1s0-.1-.1-.1-.1.1-.1.1l.6.3zM20.6 18.6l.3-.3c.1-.1 0-.1 0-.2h-.1s-.1.1 0 .1c.2.1-.1.2-.2.4 0-.1 0-.1 0 0zM16.3 17.8c.1-.1.3-.1.4 0 .1.1.1.3 0 .4-.1.1-.3.1-.4 0-.1-.2-.1-.3 0-.4zm.3.3c.1-.1.1-.2 0-.2-.1-.1-.1-.1-.2 0s-.1.2 0 .2c0 .1.1.1.2 0zM17.1 19.8c-.1-.1-.2-.1-.3 0-.1.1-.1.2 0 .2.1.1.2.1.3 0 .1 0-.1-.1 0-.2zM18.4 18.3c-.1.1-.1.2 0 .3.1.1.2.1.3.1.1-.1 0-.2 0-.3-.1-.2-.2-.2-.3-.1zM16.9 15c-.1.1-.1.2-.2.2-.1.1 0 .2-.1.4h.1c.1-.1.2 0 .3.1.2.2.4.3.6.6.1.2.3.3.4.5v.2c.3-.1.3.2.5.3.1.1.2.1.1.3 0 0 0 .1.1.1.2-.1.3.2.4.2v.1s-.1.1 0 .2h.2c.1 0 .1 0 .1.1v.1h.1c.1-.3.4-.4.6-.6.1-.1.1-.2 0-.3-.9-.8-1.8-1.7-2.6-2.5-.1-.1-.2-.1-.4 0-.1-.1-.2-.1-.2 0zM23.6 27.5c-.1.1-.1.1-.1.2.1.1.1 0 .2 0 .1-.1.1-.1.1-.2-.1-.1-.1-.1-.2 0zM17.9 20.7c-.1.1 0 .2 0 .3.1.1.2.1.3 0 .1-.1.1-.2 0-.2s-.2-.1-.3-.1zM10.1 19.2c.1-.1.1-.2 0-.3-.1-.1-.2-.1-.3 0-.1.1-.1.2 0 .3.1.2.2.2.3 0zM12.6 22c.1.1.2.1.3 0 .1-.1.1-.2 0-.3-.1-.1-.2-.1-.3 0-.1.1-.1.2 0 .3zM17.6 11.5c-.1.1-.1.2 0 .3.1.1.2.1.3 0 .1-.1.1-.2 0-.3-.1-.1-.2-.1-.3 0zM20.7 14.3c-.1-.1-.2-.1-.3 0-.1.1-.1.2 0 .3.1.1.2.1.3 0 .1-.1.1-.2 0-.3zM26.7 28.6c0 .1 0 .1 0 0 .3.3.3.3 0 .4h.4c-.2-.1-.3-.2-.4-.4zM24.8 28.6c-.2.1-.3.2-.4.3.1 0 .3-.2.4-.3zM18.4 22.3l.1.1c.1.3.2.1.2 0 0 0-.1-.1-.3-.1zM19.6 21.6c-.1.1-.2 0-.3-.1 0 .1.2.2.1.3 0 0 .1.1.1 0 .1 0 0-.2.1-.2zM25.9 23.1h.2v-.2h-.2c-.1.1 0 .2 0 .2zM23.8 23.3c-.1-.1.1-.2.1-.4l-.3.3c0 .1 0 .2.2.1zM22 24.1c.1.1.1.1 0 0 .1.1.2.1.3.1v-.1c0-.1-.1-.1-.3 0 .1 0 .1 0 0 0zM14.1 14.3c-.4-.1-.6-.3-.8-.6v.1c.1.2.3.4.5.6.1-.1.2 0 .3-.1zM15 13.2c.1 0 .1.1.1.2.1-.1 0-.3-.1-.4-.1-.2-.3-.3-.5-.4.2.1.4.2.5.3 0 .1.1.2 0 .3zM11.4 16.5c-.2-.1-.3-.2-.4-.4-.2-.4 0-1 .4-1.1.2-.1.4-.1.6-.1-.1-.1-.3 0-.4 0-.3.1-.5.3-.7.5-.1.2-.1.4-.1.6.2.2.3.5.6.5zM12 14.8s0 .1 0 0c.3.1.6.3.7.6 0 0 0 .1.1.1v-.1c-.2-.3-.4-.5-.8-.6z"/><path fill="none" d="m13.646 5.859 3.182-3.182L35.92 21.769l-3.182 3.181z"/><path fill="#010101" d="M20.3 9.6c-.2.2-.1.5.1.7.2.2.4.2.5.1.2-.2.1-.3-.2-.8-.5-.9-.4-1.3-.1-1.6.4-.4 1-.4 1.7.2.7.7.6 1.3.3 1.7l-.7-.7c.1 0 .2-.2-.1-.5-.2-.2-.3-.2-.4-.1-.1.1-.1.3.2.7.5.9.4 1.3.1 1.7-.4.4-1.1.4-1.8-.3s-.7-1.3-.3-1.8l.7.7zM24.3 10.4l-1.5 1.5c-.3.3-.3.6-.1.8.2.2.5.2.8-.1l1.5-1.5.7.7-1.4 1.4c-.8.8-1.5.6-2.1 0-.6-.6-.8-1.3 0-2.1l1.4-1.4.7.7zM24.1 14.8l1.6-1.6c-.1-.1-.3-.2-.4-.3l.4-.4c.3.2.6.3.8.3l.5.5-2.3 2.3-.6-.8zM28.6 15.8l-.9-.9c-.1.1-.3.2-.4.3.1 0 .3.1.5.3.5.5.4 1.1 0 1.5-.5.5-1.1.6-1.8-.1-.6-.6-.6-1.1-.2-1.6l.6.6c-.1.2-.1.3 0 .5.2.2.4.1.6-.1.2-.2.3-.4.1-.6-.2-.2-.3-.2-.4-.1l-.5-.6c.3-.2 1.1-.8 1.5-1.1l1.5 1.5-.6.4zM27.2 18c.5-.5 1-.6 1.8-.5.6.1.7.1.9-.1.2-.2.2-.3 0-.5s-.3-.1-.6.1l-.6-.6c.4-.3 1-.5 1.7.1.6.6.5 1.2.1 1.6-.3.3-.6.4-1.3.2-.4-.1-.6-.1-.7 0l1 1-.6.4-1.7-1.7z"/><path fill="none" d="M0 0h45v45H0z"/><path fill="none" d="M4.5 27h18v13.5h-18z"/><path fill="#010101" d="M6.1 40.4v-4.8c-.3.1-.8.3-1.2.3v-1c.6-.1 1.2-.5 1.6-.9h1v6.4H6.1zM13.2 35.2h-2.6c0 .3-.2 1-.2 1.2.2-.2.6-.3 1.2-.3 1.3 0 2 .9 2 2.1 0 1.2-.7 2.4-2.4 2.4-1.3 0-2.2-.6-2.3-1.8h1.4c.1.4.4.7 1 .7.7 0 1-.5 1-1.2s-.2-1.1-1-1.1c-.6 0-.8.3-1 .6L9 37.6c.2-.8.4-2.7.5-3.6h3.9l-.2 1.2zM14.2 40.4c0-1.2.5-2.1 1.9-3.1.9-.7 1.2-.9 1.2-1.4 0-.6-.3-.9-.8-.9-.6 0-.9.4-.9.9h-1.3c.1-1.1.8-2 2.3-2 1.6 0 2.2 1 2.2 1.9 0 .9-.4 1.4-1.6 2.2-.8.6-1.1.9-1.2 1.2h3l-.2 1.2h-4.6z"/><path fill="none" d="M27 4.5h13.5V18H27z"/><path fill="#010101" d="M35.2 9.8c0-.8.6-1.3 1-1.5-.5-.3-.8-.7-.8-1.3 0-1.1.8-1.8 2.2-1.8 1.3 0 2.2.7 2.2 1.8 0 .7-.4 1.1-.8 1.3.5.2 1 .7 1 1.6 0 1.3-1.1 2-2.5 2-1.2-.2-2.3-.9-2.3-2.1zm3.5-.1c0-.6-.4-.9-1.1-.9-.7 0-1.1.4-1.1.9 0 .6.4.9 1.1.9.7 0 1.1-.3 1.1-.9zm-1.9-2.8c0 .4.3.7.9.7.6 0 .9-.2.9-.7 0-.5-.3-.8-.9-.8-.6.1-.9.3-.9.8z"/><path fill="none" stroke="#000" stroke-miterlimit="10" d="M5 33.3h14.1"/><path fill="none" d="M4.5 4.5h9v9h-9z"/><path fill="#010101" d="m9.5 6.7-.2 1.5 1.1-.9.5.9-1.4.5 1.4.6-.5.9-1.1-1 .2 1.5h-1l.2-1.5-1.1.9-.5-.9 1.4-.6-1.4-.5.5-.9 1.1 1-.2-1.5h1z"/></svg>