<svg version="1.2" baseProfile="tiny" xmlns="http://www.w3.org/2000/svg" viewBox="0 0 45 45" overflow="visible" xml:space="preserve"><path fill="none" d="M0-45h45V0H0z"/><g stroke="#000" stroke-width=".1" stroke-miterlimit="10"><path d="m11.5 27.4.9.9.7.7.5.5.4.4c.1.1.2.2.2.3 0 .1.1.1.1.1s.1 0 .1.1l1.2 1.2.8.8 1.2 1.2.8.8c.1.1.1.1.2 0L21 32l1.2-1.2.6-.6c.2-.3.5-.5.7-.8.4-.4.8-.9 1.3-1.3l1.1-1.1 1.1-1.1.8-.8 1.6-1.6.9-.9 1.4-1.4 1-1 1.2-1.2c.2-.2.4-.5.5-.8.1-.2.1-.4 0-.7-.1-.2-.2-.3-.3-.4l-.7-.7-.4-.4c-.1-.1-.1-.1-.2 0l-.2.2h-.1l-.4-.4c0-.1-.1-.1-.2-.1-.2 0-.4-.1-.6-.1-.1 0-.2-.1-.2-.1-.1 0-.1-.1-.2-.1l-.4-.4c-.1-.1-.1-.1 0-.2.4-.4.9-.9 1.3-1.4.4-.4.7-.8 1.1-1.1l.4-.4v-.1l-.3-.3h-.1c-.4.4-.8.8-1.2 1.1-.4.4-.9.8-1.3 1.2l-.4.4c-.1.1-.1.1-.2 0l-.4-.4c-.1-.1-.1-.1 0-.2s.1-.1.1-.2-.1-.2-.2-.2h-.1s-.1-.1-.2-.1l-.1-.1v-.3c0-.1-.1-.2-.1-.3-.1-.1-.3-.2-.4-.4v-.1l.2-.2s.1-.1 0-.1l-1.2-1.2c-.1-.1-.3-.1-.4-.1-.5 0-.9.1-1.3.5l-1.1 1.1-1 1-.6.6c-.5.5-1 1-1.5 1.6l-.6.6-1.5 1.5-1.9 1.9-2 2-.7.7-1.5 1.5c-.2.3-.5.5-.8.8l-.7.7c-.4.5-.9.9-1.3 1.4v.1l.6.6c.2.3.3.4.4.5zm10.9.9c0-.1.1-.1 0 0 .1-.1.1-.2.1-.2V28v.2c0 .1 0 .1-.1.1-.2 0-.3 0-.4-.1h.1c.1 0 .2 0 .3.1zm-7.3-4s-.1-.1 0-.1c.1-.1.1-.1.2-.1-.1 0-.1.1-.2.2 0 .1 0 .1-.2.1.1-.1.1-.1.2-.1zm16.1-3.7c.3-.1.5-.1.7-.2.3-.1.6-.1.8-.2h.1v.1l-.2.2c-.4.4-.8.8-1.1 1.2l-2.4 2.4c-.6.6-1.1 1.2-1.7 1.7l-.8.8c-.3.3-.6.6-.9 1-.3.3-.6.6-.9 1l-.9.9c-.3.3-.6.7-1 1-.6.6-1.2 1.2-1.7 1.8-.2.3-.5.5-.8.8 0 0 0 .1-.1.1V32.9h-.2c-.1 0-.1.1-.2.2v.2c0 .1.1 0 .2 0h.1c-.4.5-.8.9-1.3 1.3v-.1c0-.3-.1-.6-.1-.9 0-.3-.1-.5-.1-.8v-.1c.3-.3.6-.6.9-1 .3-.3.6-.6.8-.9.2-.2.5-.4.7-.7l.9-.9.8-.8.9-.9H24l.6-.6.8-.8V26c0-.1 0-.1.1-.1.3-.3.6-.6.8-.9l1.2-1.2.4-.4-1.3 1.3c.2-.2.5-.4.7-.7l-.4.4c0-.1.1-.2.1-.3.1-.2.2-.5.2-.7 0-.2.1-.3.1-.5v-.3c.1-.4.2-.7.4-1.1l.1-.1c.1 0 .1-.1.1-.2v-.1h.1c.1 0 .1.1.2.2s.1.1.2 0 .2-.1.3-.2c.1-.1.1-.2.2-.2s.1-.1.2-.1l.3-.3c.1-.1.1-.2.1-.3v-.1s.1 0 .1.1c0-.1-.1-.1-.1-.2l.2.2c-.5-.4-1-.9-1.4-1.4l.1.1-.3-.3c0-.1-.1-.2-.2-.2s0-.1 0-.1l1.2-1.2c.1-.1.1-.1.2 0s.2.1.2 0 .1-.2 0-.3h.1l.1.1c.1.1.2.1.2.2l-.2-.2.3.3s-.1-.1 0-.1.1-.1 0-.2l-.1-.1c-.1-.1-.1-.1 0-.3v-.1l.9-.9c.1-.1.1-.1.2 0l.6.6s.1.1.2.1c.2.1.5.1.7.2.1 0 .2 0 .2.1.1.1.2.3.4.4.1.1 0 .1 0 .1l-.6.6c-.1.1-.1.1-.2 0l-.3-.3s-.1-.1-.1 0c-.1.1-.2.2-.3.4-.1.1-.1.2 0 .3.1.1.2.1.3.1h.1l-.3.3c-.1.1-.1.1-.3 0 0 .1-.1.1-.1.1 0 .1-.1 0-.1 0l-.1-.1c.1 0 .1-.1.2-.1l-.1-.1c-.1-.1-.2 0-.2 0 0 .1-.1 0-.1 0l.3.3-.2-.2.3.3c.2.2.2.2.3 0h.1c.1.1.3.3.5.4l1 1 .4.4s-.1 0-.1.1c-.1 0-.3.1-.4.1l-1.2.3c-.4.1-.8.2-1.2.4h-.1l-.1-.1c0 .1.1.1.1.1l-.2-.2c.2.2.2.2 0 .4 0 0-.1.1-.2.1.1-.2 0-.5-.1-.6-.2-.1-.4-.1-.6 0-.1.1-.2.3-.1.6.1.1.1.2.3.2h.4c-.2.2-.3.4-.5.5.4-.3.7-.7 1-1-.2.3-.4.5-.7.7l.3-.3.3-.3c.2 0 .3-.1.5-.1 0 0 .1 0 .1-.1H31c-.1 0-.2.1-.4.1l.2-.2c.3-.1.6-.2.9-.2.4-.1.9-.2 1.3-.4.2-.1.4-.1.6-.2 0 .1-.1.1-.1.1-.2.1-.4.1-.7.2-.3.1-.5.1-.8.2-.6-.3-.7-.3-.8-.2zm-2.7-1.1c0-.2-.1-.3-.3-.4 0 0-.1 0-.1-.1v-.1c.1 0 .1 0 .1.1l.3.3.5.5v.1h-.2s.1.1 0 .1l-.2.2s-.1 0-.1-.1c.1 0 .1-.1.1-.1.1-.1.1-.1.2-.1h-.1l-.4.4c-.1.1-.1.1 0 .2l.1.1c0 .1-.1.1-.1.1-.2.2-.4.1-.5-.1v-.1c0-.1.1-.2.1-.3l.3-.3c.2 0 .3-.1.3-.3 0 .1-.1.2-.2.2.1-.1.1-.1.1-.3V19.2h-.1s0 .1-.1 0V19h-.1c0-.1 0-.1.1-.1s.1 0 .1.1c.1.3.2.4.2.5zm-2.2-1.7s.1 0 0 0c.1-.1.1-.2.2-.1l.3.3.4.4v.1c-.1 0-.1 0-.2.1.1 0 .3 0 .4-.2.1-.1.1-.1.2 0s.2.3.4.4c.1.1.2.2.1.4-.1-.2-.2-.2-.4-.2 0 .1 0 .1-.1.1s-.1.1 0 .1c.1.1.2.2.3.2.1.1.1.1.2 0h.1V20l-.5.5h-.1l-.1-.1v-.1c.1-.1.3-.2.3-.4 0 0 .1 0 0-.1l-.1-.1c-.1 0-.2 0-.2.1-.1.1-.1.2-.2.2h-.1c-.2-.2-.5-.4-.7-.7l-.5-.5-1-1c-.1 0 0-.1 0-.1.1-.1.2-.2.3-.4v-.1s-.1-.1-.1 0c-.1 0-.2 0-.3.2 0 .1-.1.1-.1.2 0 0-.1.1-.1 0s-.1-.1 0-.2l.5-.5H25.9l-.1.1v.1h.1c0-.1.1-.1.1-.1.1 0 .2 0 .2.1.1.1.1.1 0 .2 0 0 .1 0 .1-.1s0-.2-.1-.2h.1l.4.4v.1c-.3.1-.4.2-.4.3zm1.5-2.8c-.1-.1-.1-.1 0 0 0-.1.1-.1.1-.2s0 0 .1 0l.1.1s.1.1 0 .1v.1c-.2-.1-.2-.1-.3-.1l.1.1c0 .1.1.2.2.2v-.1s.1 0 .1-.1 0 0 .1 0l.2.2h-.1c0 .1-.1 0-.1 0 0 .1.1.2.1.2l.2.2v.1H28.3c-.1 0-.1.1-.1.2.1.1 0 .1 0 .2-.3.2-.5.5-.8.7l-.4.4h-.1l-.3-.3c-.3-.3-.6-.5-.8-.8l-.1-.1h-.1c-.1-.1-.2-.2-.3-.4v.1h-.1c-.1-.1-.2-.1-.3 0-.1.1-.2.2-.3.4l-.1.1c0 .1 0 .1-.1.2l-.2.2c-.1.1-.1.3 0 .4 0 .1.1.1.1.2v.1c0 .1-.1.1-.2 0 0 0 0-.1-.1 0 0 0-.1 0-.1.1s0 .1-.1.1c-.1.1-.2.1-.3.1-.3.1-.7.2-1.1.3-.3 0-.5.1-.8.2-.1 0-.2.1-.2.1l.3-.3s0-.1.1 0c0 .1.1 0 .1 0 .1 0 .1 0 .1-.1s0-.1-.1-.1h-.1v-.1c.1-.2.2-.3.4-.5.2-.3.5-.5.8-.7.3-.2.7-.4 1-.6.2-.1.5-.3.8-.4h.2c.1.1.1.2.3.2l-.2-.2-.1-.1.1-.1c.2 0 .5-.1.7-.2l.6-.3c.2-.1.4-.3.7-.4.1-.1.1-.1.2 0s.2.2.4.3c0 0 0-.1-.1-.1.1 0 .1-.1.1-.1l.2.2c-.1 0-.1 0-.2.1s-.1.1.1.2c-.1-.1-.1-.1 0 0zm-9.3 17.7v-.2c.1.1.3 1.8.2 1.8 0-.1 0-.2-.1-.3v.3c-.4-.3-.7-.7-1.1-1.1.1 0 .1-.1.1-.1l.5-.5s.1-.1 0-.1H18l-.4.4c.1-.1.1-.1.1-.2.1 0 .1 0 .2-.1l.1-.1v-.1c-.1 0-.1-.1-.2-.2h-.1l-.2.2v.2c-.1 0-.1 0-.2.1l.3-.3s.1-.1 0-.1h-.1c-.2.2-.3.4-.5.5h-.1l-.3-.3c-.1-.1-.3-.2-.4-.4 0 0-.1-.1 0-.1s.1-.1 0-.1v-.1l.1.1c.1.1.3.1.4.2.1.1.2.1.3.1.1 0 .1 0 .1-.1s.2-.1.2-.2c0 0 .1 0 .1-.1 0 0 0-.1-.1-.1h-.1l-.1-.1H17c0 .1-.1 0-.1 0s0-.1-.1-.1c-.2-.1-.3-.2-.4-.3l-.4-.4s-.1-.1 0-.2v-.1c-.1 0-.1 0-.1-.1s0-.1-.1-.1c-.1.1-.1 0-.1 0l-.1-.1-.4-.4s-.1 0 0-.1c0-.1 0-.1-.1-.1H15c-.1-.1-.2-.1-.1-.2 0 0-.1-.1 0-.1v-.1h-.1c-.1.1-.2.1-.2.2-.1.1-.2.1-.2.2l-.6-.6c.1.2.2.3.4.5.3.3.5.6.8.9.2.2.4.5.7.8 0 0 .1.1 0 .1h-.1c-.1-.1-.2-.3-.3-.4-.2-.2-.4-.5-.7-.7-.1-.2-.3-.4-.5-.5-.2-.2-.4-.4-.5-.6 0 0-.1 0 0-.1h.1l.1.1V29c0-.1-.1-.1-.1-.2s-.1-.1-.1-.1h-.1c-.1-.1-.2-.3-.4-.4-.1-.1-.1-.1 0-.1s.1-.1 0-.1c0 0-.1 0 0-.1h.1c.1 0 .1 0 .1-.1s0-.1-.1-.1c-.1-.1-.2-.1-.1-.2H13v.1c0 .1-.1.2 0 .2h-.1s0-.1-.1-.1l-.1.1V28.2c.1 0 .1.1.1.1v.1s-.1 0-.1-.1c-.1-.1-.2-.3-.3-.4 0 0-.1-.1 0-.2v-.1l.2-.2v-.2h-.1l-.3.3v-.2s0-.1.1 0c.1 0 .2 0 .2-.2.1-.1 0-.1-.1-.2s-.1-.1-.2 0c0 .1-.1.1-.1.2 0 0 0 .1-.1.1s-.1 0-.2.1c0-.1.1-.1.1-.2.1-.1.1-.2.2-.2v-.1H12c-.2.2-.3.4-.5.6-.1.1-.1.1-.1 0l-.5-.5-.4-.4s-.1 0 0-.1h.2v.1c.1.2.2.3.4.3h.1c.1-.1.3-.1.4 0 .1 0 .1.1.2 0 0 0 .1 0 .1-.1.1 0 .2-.1.3-.1v.1h.1v-.1c.3.2.5.5.7.7l.3.3-.3-.3v-.1l.4-.4.5-.5c.2-.3.5-.5.7-.8h.1c.3.2.5.5.7.7.2.2.3.4.5.5.4.4.8.8 1.3 1.2l1.4 1.4.5.5c.1.1.1.1 0 .2l-.2.2-.5.5s0 .1-.1 0h-.1s0 .1.1.1c-.1.1-.1.2-.2.2l-.5.5s-.1.1-.1 0h-.1v.1l.1.1c-.4-.3-.8-.7-1.2-1.1l.6.6-.2-.2c0 .1.1.1.1.1l.6.6c.2.1.3.3.5.4.4.3.5.4.6.6-.1 0 0 0 0 0zm6-19.9c-.1 0 0 .1 0 .2s-.1.1-.1.2-.1.3-.1.4c-.1.4-.2.7-.3 1.1 0 .1-.1.2-.2.3l-.5.5c-.2.2-.3.4-.5.5l-.7.7c-.3.4-.7.7-1.1 1.1l-.4.4h-.1c-.2.1-.4.2-.5.4-.2.2-.4.5-.5.7-.1.1-.1.2-.2.2s-.2 0-.3.2c-.1 0-.1.1-.1.1-.4.4-.8.7-1.2 1.1v.1c0 .1 0 .1-.1.2l-.2.2c-.4.4-.8.8-1.2 1.3L14.9 24c-.2.3-.5.5-.7.8-.2.3-.5.5-.8.8l-.8.8s-.1.1-.2.1H12c-.4 0-.7-.1-1.1-.1h-.3l.4-.4.8-.8s0-.1.1 0v.1c0 .1.1.2.2.1.1 0 .1-.1.1-.1.1-.1.1-.1 0-.2 0-.1-.1-.1-.2-.1 0 0-.1 0 0 0v-.1l1-1 .8-.8.3-.3V23.1h.1c.1 0 .2-.1.2-.2v-.2l-.1-.1h-.1l1.4-1.4.1-.1v.1c0 .1.1.1.2.1s.1-.1.2-.2V21l-.1-.1h-.1l.2-.2 2-2s0-.1.1 0v.1c0 .1.1.2.2.1.1 0 .1-.1.1-.1.1-.1 0-.2-.1-.2h-.2l.1-.1 1.3-1.3.1-.1v.1c0 .1 0 .1.2.1.1 0 .1-.1.2-.1.1-.1 0-.1 0-.2s-.1 0-.1 0h-.1v-.1l.1-.1.6-.6 1.3-1.3c.1-.1.1-.2.2-.2v.2c0 .1.1.1.1.1.1 0 .2-.1.2-.2.1-.1 0-.2-.1-.2h-.1v-.1l1.3-1.3.7-.7s0-.1.1 0v.1c.3-.1.2 0 .2.2.1-.1.1-.1.1-.2 0-.2.1-.3.1-.5 0-.1 0-.2.1-.2 0 .1-.1.2-.1.3v-.1c0-.1 0-.2.1-.2 0-.1.1-.1.1 0L26 13c0 .1.1.1.2.2h-.1l-.6.6c-.1.1-.2.1-.2.1v.1s.1.1.1 0c.1-.1.1-.1.1-.2l.6-.6v.2c-.1 0-.2.1-.2.2s0 .2.1.2c.1.1.2 0 .3 0l-.3.3s0 .1-.1.1-.1.1-.2.1v.1c.1.1.1.1.2 0 0 0 0-.1.1 0s.2 0 .2-.1c.1-.1.1-.1.2 0 .1 0 0 .1 0 .1-.1.1-.1.1-.2.1l-.6.3c-.2.1-.4.1-.6.2v-.2c0-.1 0-.1-.1-.2-.1 0-.2-.1-.2 0-.1.1-.1.1 0 .3 0 .1.1.1.1.1 0 .1-.1 0-.2 0h-.1l-.3-.3c-.1-.1-.1-.2-.1-.4 0-.1.1-.2.1-.3 0 .1-.1.3-.1.4 0 0 0 .1-.1.1.1-.3.2-.7.2-1 .1-.2.1-.4.2-.6.1.2.1.1.1-.1zm1.5 9.1v-.1c.1-.1.2-.3.2-.4.1-.1.1-.2.2-.3V21h-.1v.1c-.1.2-.2.4-.4.7 0 .1-.1.1-.1.2-.1.1-.2.1-.1.2h-.1l-.2-.2c-.3-.3-.6-.5-.8-.8l-.3-.3s-.1-.1 0-.1c0 0 .1 0 .1-.1s.1-.2.1-.2l.5-.5.1-.1v-.1H25l-.1.1c-.3.2-.4.5-.8.7 0 .1-.1 0-.1 0-.3-.3-.6-.5-.8-.8l-.4-.4s-.1 0 0-.1h.2c.1-.1.1-.2.3-.3l.6-.3c.1 0 .1-.1.1-.1l-.6.3c.1-.2.2-.3.4-.4l-.1.1-.3.3s-.1.1-.1 0c-.1-.1-.3 0-.4.1 0 0-.1.1 0 .1v.1c-.1.1-.2.1-.3.2-.1 0-.2.2-.4.1-.1-.1-.3 0-.3.1s-.1.1 0 .1c-.1.1-.2.1-.3.2-.3.1-.5.3-.8.4-.2.1-.5.3-.7.4-.3.1-.5.3-.8.4-.3.2-.6.3-.8.5-.2.1-.4.2-.5.3h-.1c0-.2-.1-.3-.1-.5v-.1c.2-.2.4-.4.7-.6 0 0 .1-.1.1 0 0 0 .1 0 .1-.1s.1-.1.1-.1.1 0 .1-.1c0 0 0-.1-.1-.1v-.1s.1-.1.2-.1h.1c0 .1.1.1.2.1.2 0 .3-.2.2-.3v-.1c.1-.1.3-.2.4-.3.3-.2.5-.3.8-.5.2-.1.4-.2.7-.4h.2l.1-.1c.1 0 .2 0 .1-.1 0 0 .1 0 .1-.1h.1c0 .1.1.1.1.1.1 0 .1 0 .2-.1.1 0 .1-.2.1-.2s-.1-.1 0-.1c0 0 .1 0 .1-.1.1.1.1.1.1 0 .1-.1.1-.1.2-.1 0 0 .1 0 .1-.1s0-.1.1-.1c.2-.1.4-.1.6-.2.1 0 .2-.1.3 0 .1 0 .1.1.1.1 0 .1.1.1.1.2 0 0 .1 0 .1-.1-.1.1-.2.2-.2.3 0 0 .1 0 .1-.1l.3-.3s.1-.1.1 0l.8.8 1.4 1.4.5.5s.1.1 0 .1c-.2.2-.4.5-.7.7-.2.2-.4.3-.5.6.1.2 0 .3 0 .3zm-1.4-.3.7.7s.1.1 0 .1c-.1.2-.2.4-.4.7-.3.5-.5.9-.8 1.4-.1.2-.2.3-.3 0-.1-.2-.1-.2 0-.3v-.1l-.1-.1c-.1-.1-.1-.1-.3 0-.1.1-.1.1-.2 0l-.6-.6c-.1-.1-.1-.1 0-.2s.1-.1 0-.2l-.1-.1c0-.1-.1-.1-.1 0-.1.2-.1.2-.3 0v-.1l.9-.9.8-.8s.1-.1.1 0c.4.1.6.3.7.5zm-1.3-1.3.5.5s.1.1 0 .1c-.6.6-1.1 1.2-1.6 1.7-.1.1-.1.1-.2 0s-.2-.1 0-.2c.1-.1.1-.1 0-.2-.1-.2-.1-.2-.3 0 0 .1-.1.1-.1 0l-.7-.7c-.1-.1-.1-.1 0-.2s.1-.1 0-.2-.1-.1-.2 0l-.1.1h-.1c0-.1-.1-.1-.2-.2s-.1-.1 0-.2c.2-.1.5-.3.7-.4.5-.3 1-.5 1.4-.8h.1c.4.3.6.5.8.7zm-1.8 3.1c-.2.3-.4.5-.6.7-.1.1-.2.1-.3 0l-.7-.7-.6-.6-.7-.7s-.1-.1 0-.1l.6-.3c.3-.2.6-.4 1-.6.1 0 .1-.1.2 0l.1.1c.2.2.1.1 0 .3-.1.1-.1.1 0 .2.1.2.1.1.3 0 .1-.1.1-.1.2 0l.7.7v.1l-.1.1v.1l.1.1c0 .1.1.1.1 0 .2-.2.2-.2.3 0 .1 0 .1.1 0 .2-.3.1-.5.3-.6.4zm.4 1.9s0 .1 0 0c-.3-.3-.6-.6-1-.9-.2-.2-.2-.2 0-.4.3-.4.7-.7 1.1-1.1.1-.1.1-.2.3 0 .1.1.1.1 0 .2 0 0 0 .1-.1.1-.1.1 0 .1 0 .1.1.1.1.1.3 0 .1-.1.1-.1.2 0 .2.2.4.4.7.6.1.1.1.1 0 .2-.2.2-.2.2 0 .3h.1c0-.1.1-.1.1-.1h.1l.2.2c.1.1.1.1 0 .2-.1.2-.3.5-.4.7-.2.3-.3.6-.5.8-.1.1-.1.1-.2 0-.2-.2-.6-.5-.9-.9zm4.7-2.1c-.1 0-.1-.1 0 0-.1-.1-.1 0-.1 0 0 .1 0 .1-.1.2v.1h.2c-.2.3-.4.7-.6 1-.1.1-.1.2-.2.3-.1.2-.2.4-.3.5 0 0 0 .1-.1 0v-.1c.1-.1.1-.2.1-.3v-.1s-.1 0-.1.1-.1.2-.2.3c0 .1 0 .1-.1.1-.1.1-.1.3 0 .4.1 0 0 .1 0 .1l-.2.2h-.1v-.2h-.1v.1c0 .1 0 .1-.1.2l-.1.1v.1l-.6.6h-.1c-.2 0-.3-.1-.5-.1-.1 0 0 0 0-.1.2-.2.3-.5.4-.7.2-.3.3-.6.5-.9l.3-.6c.2-.3.3-.6.5-.9.1-.3.3-.5.4-.8 0 0 0-.1.1-.1s.2-.1.3-.2V22.2c.1-.2.2-.4.3-.5h.1c.1 0 .3-.2.2-.3 0-.1 0-.2.1-.2 0 0 0-.1.1-.1.2-.2.3-.4.5-.5 0 0 .1-.1.1 0 .1.1.1.1.2.1 0 .1 0 .1.1.1s.1.1.1.2-.1.2-.1.3c-.1.2-.1.3-.2.5 0 0 0 .1-.1 0-.1 0-.1 0-.1.1s0 .2-.1.2v.1h.2c0 .1-.1.1-.1.2s-.1.1-.1 0-.1-.1-.2-.1-.2.2-.2.3c0 .1.1.1.2.2-.1.3-.2.4-.2.4zm3.1-7.7c-.2.3-.5.6-.8.8-.5.5-1 1-1.5 1.6h-.1l-.4-.4v-.1l.3-.3c.6-.6 1.1-1.1 1.7-1.6l1.7-1.7.6-.6.8-.8.8-.8c.1-.1.1-.1.2 0l.1.1c.1.1.1.1 0 .2l-1 1c-.5.6-1.1 1.1-1.6 1.7-.2.4-.5.6-.8.9zm-10.4 16c-.2.3-.5.5-.7.8h-.1l-.5-.5v-.1l.2-.2c.1-.2.3-.3.4-.5.3-.4.7-.7 1-1l1.1-1.1c.1-.1.2-.1.3 0 .1.1.2.1.2.2s.2.1.2 0 .1 0 .1-.1c.2 0 .3-.1.3-.3v-.1c.1 0 0-.1 0-.2l-.1-.1-.1-.1h.1c.2 0 .3.1.5.1h.1v.1l-.5.5c-.4.4-.8.8-1.1 1.2l-.7.7-.7.7zm14.2-12.9v.2c.1.1.2.2.2.3h.2v.1c-.2.2-.4.4-.6.7-.1.1-.1.1-.1 0l-.6-.6c-.4-.4-.8-.8-1.2-1.1-.1-.1-.1-.1 0-.2l.4-.4c.2-.2.2-.2.3 0l.1.1s.1.1.1 0h.2l.1.1c0-.1-.1-.1-.1-.1v-.1c.1-.1 0-.1 0-.2l-.1-.1c-.1-.2-.1-.1 0-.2h.1c.1.1.3.2.4.4l.4.4.4.4c.2.2.5.4.7.7v.1c-.1.1-.1.2-.2.3 0 0 0 .1-.1 0v-.2l-.2-.2s-.1-.1-.1 0c-.2-.4-.2-.4-.3-.4zM22.3 28c-.2.1-.4.1-.5.2-.4.1-.9.3-1.3.4-.3.1-.6.2-1 .4-.1 0-.2.1-.3 0-.1-.1-.2-.1-.3-.2-.4-.2-.7-.5-1-.8l-.3-.3c-.1 0-.1-.1 0-.1l.3-.3s.1-.1.1 0l.2.2c.1.1.1 0 .2 0 0 0 0-.1.1-.1 0-.1.1-.1.1 0l.1.1c.2.2.5.3.8.4.1 0 .2 0 .1.2v.1s.1 0 .1-.1c0 0 0-.1.1 0h.6c.1.1.2.1.3.1.1 0 .1 0 .2-.1h.4c.1 0 .1 0 .2-.1.3-.1.5-.1.8-.2h.1c-.1.1-.1.1-.1.2zm-5.1-5.3v.2c-.1.3-.1.5-.2.8 0 .1-.1.3 0 .4-.1 0-.1.1-.1.1 0 .1 0 .3.1.4V25.3s-.1 0 0 .1c0 0 .1.1.1 0h.1v.1c.1.3.3.6.5.8.1.1.1.1 0 .2-.1 0-.1.1 0 .2 0 .1.1.1.2.2v.1l-.3.3h-.1c-.1 0-.1-.1-.2-.2-.4-.4-.7-.9-1-1.3-.1-.1-.1-.2 0-.3 0-.1.1-.1.1-.2.2-.4.3-.8.5-1.3.1-.3.2-.6.2-.9 0-.1 0-.2.1-.3 0 0 0-.1.1-.1-.2.1-.2 0-.1 0zm4.6 2.7c.1.1.3.2.4.4l.7.7v.1h-.1c-.2 0-.4-.1-.6-.1-.4-.1-.7-.2-1.1-.3-.5-.1-1.1-.3-1.6-.4-.1 0-.1 0 0-.1.4-.4.7-.8 1.1-1.1.1-.1.1-.1.2 0 .3.1.7.5 1 .8zm-3.4-3.3c.1 0 .1.1.1.1l.6.6 1.4 1.4s.1.1 0 .1l-.3.3c-.3.3-.6.6-.8.9-.1.1-.1.1-.1 0v-.1c-.1-.3-.2-.7-.3-1-.1-.5-.3-.9-.4-1.4 0-.4-.1-.6-.2-.9zm8.7-11.3c0-.1-.1-.1-.1-.2.2 0 .4.1.5.2l.4.4.7.7s.1 0 .1.1-.1.1-.1.2h-.1l-.4-.4.3.3c.2.2.2.2 0 .4s-.1.2-.3 0l-.9-.9-.3-.3.6.6c.2.2.4.4.6.7.2.2.1.1 0 .3H28c0-.1-.1-.1-.2-.1-.1-.1-.1-.1-.1 0s-.1 0-.1 0l-.4-.4s-.1-.1 0-.1c0 0 .1-.1 0-.1L27 12v.1c0-.1-.1 0-.1 0h-.1l-.3-.3c-.1 0-.1-.1 0-.1s.1-.1 0-.1l-.1-.1-.1-.1c0-.1.1-.1.2-.1h.1s.1.1.2.1c0-.1-.1-.1-.2-.2.2-.1.3-.1.5-.1h.1c-.3-.5-.2-.4-.1-.3zm-1.9 1.1c-.1 0-.1-.1 0 0-.1-.1-.1-.1-.1-.2l.5-.5s.1-.1.1 0l.2.2s.1.1.1 0h.1c.1.1.2.2.4.3v.1c-.1.1 0 .1 0 .2l.2.2s.1.1.1 0h.1l.4.4v.1c-.1.1 0 .1 0 .2l.1.1c.1.1.1.1 0 .2-.2.2-.4.3-.5.5h-.1c-.1-.1-.2-.1-.2-.2l-1-1c-.1-.3-.3-.4-.4-.6.1 0 .1 0 .1-.1h-.1v.1zm-9.9 12.3.4-.4s.1-.1.1 0c.1.1.1.2.2.2 0 .1 0 .2-.1.4l-1.1 1.1-.8.8-.2.2c-.1.2-.3.3-.5.5h-.1l-.1-.1c0-.1 0-.1-.1-.1 0 0-.1-.1-.2-.1 0 0-.1-.1-.1-.2-.1-.1-.1-.1 0-.2l.2-.2h.1c0 .1.2.2.2.2l.3-.3c0-.1.1-.1.1-.2s.1-.1.2 0 .2 0 .2-.1 0-.1-.1-.1c0 0-.1 0 0-.1l.1-.1c.2-.2.4-.4.6-.7.3-.1.5-.3.7-.5zM28 14.8l-.3-.3-.3-.3s-.1 0 0-.1h.1l.3.3h.1c0-.1.1-.1.1-.2.1-.1.1-.1 0-.1l-.2-.2v-.1c.2 0 .3-.1.5-.1s.4-.1.6-.1h.1l.2.2.5.5c.1.1.1.1 0 .2-.3.3-.7.6-1 .9-.1.1-.1.1-.2 0-.1-.2-.3-.4-.5-.6zm-.9-.8c-.1-.1-.1-.1-.1-.2v-.1l.5-.5.9-.9c0-.1.1-.1.1 0l.4.4.1.1c0 .2.1.3.1.5 0 .1 0 .1-.1.1-.2.1-.3.1-.5.1-.4 0-.7.2-1 .4-.2 0-.3.1-.4.1.1.1 0 .1-.1.2h-.1V14c.1-.1.1-.1.2 0zm-4 13c-.1 0-.2-.1-.3 0h-.3c-.3-.1-.6-.2-.9-.2-.1 0-.2 0-.3-.1-.1-.1-.1-.1-.2-.1s-.2-.1-.2 0c-.1 0-.3-.1-.4-.1 0 0-.1 0-.1-.1s0-.1-.1-.1-.2-.1-.2 0c-.1 0-.2 0-.3-.1-.1-.1-.3-.2-.5-.1h-.1V26l.1-.1c.1-.1.2-.2.4-.1l1.2.3c.4.1.8.2 1.3.3.3.1.6.1.8.2 0 0 .1 0 .1.1-.1 0 0 .2 0 .3zm-5.2-5.1c.1 0 .2.1.3.1.1 0 .1 0 .1.1.1.4.2.7.3 1.1.1.3.2.7.3 1 .1.4.2.9.4 1.3v.1l-.3.3h-.1v-.1c.1-.1.1-.1 0-.2 0-.1 0-.2-.2-.3-.1 0-.1-.2-.1-.2 0-.1 0 0 .1-.1v-.2s0-.1-.1-.1c0 0-.1 0-.1-.1s-.1-.3-.1-.4v-.1c0-.1 0-.3-.1-.3s-.1-.1-.1-.2c-.1-.4-.2-.9-.4-1.3v-.2c.2 0 .2-.1.1-.2zm3 6s-.1-.1 0-.1c0-.1 0-.2.1-.3.1-.2.1-.5.2-.7 0-.1.1-.1.1-.1.2 0 .3.1.5.1.3.1.6.1.9.2.1 0 .1 0 .1.1-.1.1-.1.2-.2.3 0 .1-.1.2-.2.2-.2 0-.3.1-.5.1s-.4.1-.6.1c-.2.2-.3.2-.4.1zm-3.5-5.3c.1-.1.3-.2.4-.3 0 0 .1 0 .1.1.1.3.2.6.2.9 0 .2.1.3.1.5v.1c-.1 0-.3.1-.4.1-.2.1-.4.1-.5.2-.1 0-.1.1-.2 0s-.1-.2-.1-.3c.1-.3.2-.7.2-1 .1-.1.1-.2.2-.3zm-.8 1.2c0 .1-.1.2-.1.4-.1.2-.1.4-.2.5-.1.2-.1.4-.2.6 0 .2-.1.3 0 .5 0 .1.1.2 0 .3v.1c0 .1 0 .1-.1.1h-.1l-.4-.4v-.1s.1-.1 0-.1h-.1c0 .1-.1 0-.1 0l-.3-.3s-.1-.1 0-.1l.5-.5.4-.4s0-.1.1 0c0 0 0 .1.1 0l.1-.1v-.1l.4-.4zm1.1 2.6c0-.1-.1-.2-.2-.3-.1-.2-.3-.4-.3-.7v-.1c.2 0 .3-.1.5-.2.3-.1.5-.2.8-.2 0 0 .1 0 .1.1s.1.2.1.3v.1c-.3.3-.5.6-.8.9-.1.2-.1.2-.2.1zm1.5.2.3-.3s.1-.1.1 0c.1 0 .2.1.3.1 0 0 .1 0 .1.1v.3c-.1.2-.1.4-.2.7 0 .1-.1.3-.1.4 0 .1-.1.1-.1.1-.3-.1-.6-.3-.9-.5-.1-.1-.1-.1 0-.2.1-.4.3-.5.5-.7zm1.5 2.2-.1.1s-.1.1-.1 0h-.1v.1c.1 0 0 .1 0 .1l-.3.3-.6.6h-.1l-.4-.4-.4-.4c-.1-.1-.1-.1 0-.1 0 0 .1-.1.1 0h.1c.1-.1.1-.1.2 0 0 0 .1 0 .1.1.1.1.2.1.3 0 .4-.1.7-.3 1.1-.4.1-.1.3-.1.4-.1-.1.1-.2.3-.4.2 0 0-.1 0-.1.1.1-.2.2-.2.3-.2zM33 17.3c-.1 0-.1-.1-.2-.2l-.4-.4s-.1-.1 0-.1l.2-.2h.1s.1 0 .1.1c.1.2.3.3.4.5l1.1 1.1v.1c0 .1-.1.2-.1.4 0 .1-.1 0-.1 0l-.5-.5c-.1-.3-.3-.6-.6-.8zm-15.9 7.3s.1-.1.2-.1c.3-.1.7-.2 1-.3.1 0 .1 0 .1.1 0 .2.1.3.1.5v.1c-.1 0-.1.1-.2.1-.2.1-.5.2-.7.2-.2.1-.3.1-.5.2H17c0-.1-.1-.2-.1-.3.1-.3.1-.4.2-.5zm3.3 3.3c-.3.1-.4 0-.6 0v-.1c0-.1 0-.2.1-.3.1-.2.1-.4.2-.5 0-.1 0-.2.1-.3 0-.1.1-.2.2-.1.2 0 .3.1.5.1.1 0 0 .1 0 .1-.1.3-.2.6-.2.8-.2.1-.2.2-.3.3zm2.1-8.3c-.3.2-.6.4-1 .6-.4.2-.8.5-1.2.7-.1.1-.2.1-.3 0-.1 0-.1 0-.1-.1s.1-.1.1-.1c.3-.2.6-.3.9-.5.2-.1.5-.3.7-.4.3-.2.5-.3.8-.5h.1v.3c0-.1 0 0 0 0zm2.8-3.3c-.3 0-.5.2-.5.5 0 .1 0 .2-.1.2s-.2.1-.3.1h-.1l-.2-.2v-.2c0-.1.1-.1.1-.2.1-.1.1-.1.2 0s.1.1.2 0 .2-.3.4-.4c0 0 .1-.1 0-.2v-.2h.2c.3.2.5.5.8.7l.1.1c0 .1-.1 0-.2 0s-.1 0-.1-.1-.1-.3-.2-.3c0 0 0 .1.1.1.1.1.1.2.1.3v.1c-.1 0-.1 0-.1-.1v-.1h-.2s-.1 0 0-.1v-.1h-.2c0-.1-.1 0-.2-.1H25l-.1.1c.1.2.2.2.4.1zm.4 5.9H25.4l-.9-.9-1.7-1.7c-.1-.1-.1-.2-.1-.2v-.1c.1 0 .1 0 .1.1.3.4.7.7 1 1 .2.2.5.4.7.7.4.3.8.6 1.2 1.1 0-.1 0 0 0 0zm0 .2v.1c-.2.3-.3.5-.5.8-.1.2-.3.5-.4.7l-.3.6c-.1.1-.2.3-.2.4 0 .1-.1.1-.1 0s-.1-.2-.1-.2v-.1c.2-.4.4-.7.6-1.1.2-.3.4-.7.6-1 .1-.2.2-.2.4-.2zm7.5-5.6c-.2-.1-.3-.3-.4-.4 0 0-.1 0 0-.1 0-.1.1-.1.2-.2.1 0 .1 0 .1.1.4.4.9.8 1.3 1.3.1.1.1.3.1.4v.1h-.1l-1.2-1.2zm-16 5.1c.1-.2.3-.3.4-.4 0 0 0-.1.1 0v.1c-.2.2-.4.5-.6.7l-.8.8-1 1-.8.8-.6.6s-.1.1-.1 0v-.1c.3-.3.6-.6.8-.9l1.7-1.7.9-.9zM20 21c-.1.1-.1.1-.2.1-.3.2-.6.3-.8.5-.1.1-.3.2-.4.2h-.1c-.1 0-.1-.1-.1-.2s.1-.1.1-.1c.4-.2.8-.4 1.1-.6.1 0 .1-.1.2-.1.1.1.2.1.2.2zm5.6 4c.1-.1.1-.2.2-.3l.2-.2c.2-.2.3-.4.4-.6l.3-.6c.1-.3.2-.6.3-.8 0 0 0-.1.1-.1v.2c0 .3-.1.5-.2.8-.1.3-.2.6-.4.8l-.6.6c-.1.1-.2.2-.3.2zM23 16.1c.1-.1.2-.3.3-.4.3-.3.5-.5.8-.7 0 0 .1-.1.1 0l.3.3v.1l-.6.3c-.3 0-.7.2-.9.4zm1 8.8c.1.1.1.2 0 .4-.2.4-.5.8-.7 1.3 0 0 0 .1-.1.1s-.2-.2-.1-.2c.1-.1.1-.3.2-.4.1-.2.3-.5.4-.7.1-.2.2-.4.3-.5zm-5 1.2-.9.9-.6.6h-.1s-.1-.1 0-.1l1.3-1.3c.2-.2.2-.2.3-.1zm-.6.1c-.2.2-.3.4-.5.5h-.1s-.1-.1 0-.1v-.1c.1-.1.2-.2.3-.4.2-.2.4-.5.6-.7l.1-.1c.1 0 .1.1.1.2v.2c-.2.2-.3.4-.5.5zm1 .1c-.4.3-.7.6-1.1 1h-.1s-.1-.1 0-.1l.5-.5.4-.4c.1-.1.1-.1.2-.1s.1 0 .1.1c.1-.1.1-.1 0 0zm-3.5 5c-.1 0-.2-.1-.2-.1l-.6-.6-.3-.3s-.1-.1 0-.1v-.1h-.2c-.1-.1-.2-.2-.2-.3.1.1.2.1.3.2l.6.6c.1.1.2.3.4.4.2 0 .1.2.2.3zm6.5-13.4-.1.1H22c-.2 0-.3.1-.5.2s-.4.2-.7.3c-.1.1-.3.2-.4.3-.2.1-.4.3-.5.5-.1.1-.1.2-.2.2.1-.1.1-.2.2-.3l.6-.6c.2-.1.5-.3.7-.4.2-.1.4-.2.6-.2.2-.1.4-.1.6-.1zm9.3-.8v.1l-.1.1c0 .1-.3.2-.4.1-.1 0-.2-.2-.1-.3.1-.1.2-.1.2-.2h.1v-.1h.1c0 .1.1.2.2.3.1 0 .1 0 0 0 0 .1 0 0 0 0zm-4.8 1c-.1-.1-.3-.2-.4-.4 0 0-.1-.1 0-.1s.1-.1.2 0c.2.2.5.4.7.7v.1c-.1 0-.1.1-.2.1-.1-.2-.2-.3-.3-.4zm-5.2 10.2c0 .1 0 .1-.1.1 0 0-.1 0 0 .1h.2v.1s-.1 0 0 .1c.1 0 .1-.1.1-.1s-.1.1 0 .2v.1c0 .1-.1.1-.2.2 0-.1-.1 0-.1 0l-.1.1.1-.1V29h-.2v-.2s-.1 0-.1.1h-.1v-.1c.1 0 .1-.1.1-.2h-.1c0-.1.1-.3.2-.3 0 .1.1 0 .1 0h.2zm-7.4 1.6s-.1 0 0 0l-.1-.1h.1c.1.1.2.3.4.4 0 0 .1.1 0 .1 0 0-.1 0 0 .1h.1c.1-.1.1 0 .2 0 .1.1.2.2.3.4.2.2.3.4.5.5 0 0 .1.1 0 .1h-.1l-.3-.3c-.3-.2-.5-.5-.8-.7v-.2c-.2-.1-.2-.2-.3-.3zm3.1-5.8s.1 0 0 0c.2-.1.4-.1.6-.2.1 0 .2-.1.3-.1h.1v.1s0 .1-.1.1-.2.1-.3.1c-.2 0-.4.1-.5.2-.1 0-.1 0-.1-.1v-.1zm-3.8 5.3c0 .1 0 .1 0 0-.1-.1-.2-.1-.3-.2l-.6-.6-.6-.6c-.1-.1 0-.1 0-.2.1-.1.1 0 .1 0 .1.1.1.2.2.2.2.2.4.4.5.6.1.1.2.2.2.3l.1.1.4.4zm8.2-11.2c-.1.1-1.6 1-1.7 1 .5-.5 1.2-.9 1.7-1zm-5.4 5.2c.1 0 .1-.1.1-.1h.1s-.1.1 0 .2v.1c0 .1-.1.1-.1.1s-.1.1-.1 0l-.1.1s0 .1-.1 0v-.1s.1 0 .1-.1h-.1s.1 0 0-.1c0 0-.1 0-.1.1v-.1c.1-.1.1-.2.2-.2.1-.1.2-.1.3-.3h.1v.1c-.3.2-.4.2-.3.3v-.1c.1.1 0 .1 0 .1zm.5-.8v.1c-.1.3-.1.5-.2.8 0 .1 0 .1-.1.2l-.4.4s0-.2.1-.2.2-.1.2-.2c.1-.1.1-.3.2-.4 0-.1-.1-.2-.2-.3-.1 0 0-.1 0-.1.1 0 .2-.2.4-.3zm-.3 4.2.5.5v.1H17c-.1-.1-.3-.1-.4-.2l-.7-.7s-.1-.1 0-.1.1-.1.1 0c.3.1.5.2.6.4zm1.6 1.6.4.4c.1.1 0 .1 0 .1s-.1.1-.1 0l-.3-.3c-.3-.2-.5-.5-.6-.8v-.1c.2.1.3.3.4.5h-.2v.1l.2.2.1.1h.1c.1-.1.1-.1 0-.2zm8.5-5.4-.3.9c-.2.3-.3.5-.6.7.3-.5.6-1 .9-1.6zm-6 4.3c.1-.3.1-.5.2-.7 0-.1.1-.1.2-.1s.1.1.1.1c-.1.2-.1.4-.2.7-.1.1-.2.2-.3 0 .1.1 0 .1 0 0zm5.4-14.5.4.4c.1.1.3.2.4.4v.1h-.1c-.2-.1-.3-.3-.5-.5s-.4-.4-.6-.5L25 12s-.1 0 0-.1h.1c.1.1.2.2.3.2.2.2.4.5.7.7zM18 22.2s-.1 0 0 0c-.3.1-.5.3-.8.4v-.2c.1 0 .1-.1.2-.1.1-.1.3-.2.4-.3 0 0 .1-.1.1 0s.1.1.1.2zm-3.1 7.4c.2.2.4.3.5.5l.4.4v.1s-.1.1-.1 0l-.6-.6v-.1c0-.1 0-.1-.1-.1s-.1 0-.1-.1v-.1zm7.7-1.8h-.1s-.1 0 0-.1c0-.1.1-.2.1-.2.1-.2.2-.3.3-.5 0-.1.1 0 .2 0v.1c0 .1-.1.2-.1.2-.2.2-.3.3-.4.5zm10.5-8c-.3-.2-1.9-1.8-1.9-1.9.7.6 1.3 1.2 1.9 1.9zm-9.9 7.3h.2c.1 0 .1 0 0 .1l-.8.8h-.1c0-.1 0-.2.2-.3l.5-.5c.1.1.1.1 0-.1 0 .1 0 .1 0 0zm-6.8 4.1c0-.1 0-.1 0 0 0 0 .1 0 0 0l.1.1h-.1c-.1-.1-.1-.1-.2 0h-.1c0-.1-.1-.2-.2-.3v-.1h.1c.2 0 .3.1.4.3zm.5-3.9c.1 0 .1 0 .2.1h.1l.2.2v.1c.1.1.1.2.2.3-.2-.1-.4-.4-.7-.7zm-3.5 1.8c.1 0 .1.1.2.2.2.2.4.5.6.7l.2.2v.1h-.2c-.2-.3-.4-.5-.6-.8 0-.2-.1-.3-.2-.4zm11.1-11.9c0 .1-.1.2-.2.2 0 0-.1.1 0 .2v.1c-.1.1-.1.1-.2 0-.1 0-.1-.1-.1-.1v-.1c.2-.2.4-.3.5-.3zm-12.1 9.4c-.6 0-1.2-.1-1.8-.2 0 0 0-.1 0 0 .6 0 1.2.1 1.8.2zm.7 2.2-.6-.6c-.1-.1-.1-.2-.2-.3v-.1l.1.1c.2.2.4.4.6.7.1.1.1.2.2.3v.1h-.1v-.2zm15.8-8.3c.1-.1.3-.2.4-.1 0 0 .1 0 0 .1-.1 0-.2 0-.2.1H29v.2s-.1.1-.1 0h-.1v.1c.1.1 0 .1 0 .1h-.1v-.1c.1-.2.1-.3.2-.4zM24 16.6c0-.1.1-.1.1-.2h.1v.1c-.1.1-.1.1-.2.1-.1.2-.1.3 0 .4l.1.1v.1H24c-.1-.1-.2-.2-.2-.3-.1-.1 0-.2 0-.2.1 0 .2-.1.2-.1zm3.6 2.8-.1-.2c0-.1.3-.1.3 0 .1.1.1.1 0 .2s-.1.1-.2 0zM16.9 32c-.1 0-.3-.1-.4-.1-.1 0 0-.1 0-.1 0-.1.1-.1.1-.2s.1-.1.1 0c.1.1.1.3.2.4zm1.2.2-.2-.2s-.1-.1 0-.1h.1l.2.2.3.3v.1h-.1c-.1-.2-.2-.3-.3-.3zm11.5-11.5v.3s0 .1-.1 0h-.1v.1s.1 0 0 0h-.2v.1h-.1s.1-.1 0-.1 0-.1 0-.1l.2-.2s0-.1.1 0h.1v-.1h.1zm-.3.2-.2.2H29V21l.3-.3h.1v.1l-.1.1zm-1.5 0c-.1-.1-.1-.1 0 0-.1-.1-.1-.2-.1-.2h.1c.1.1.3.2.5 0l.1-.1h.1v.1l-.3.3c-.2 0-.2 0-.4-.1zm-3.4-.3c-.1.1-.1.1-.2.1 0-.1.1-.1.2-.1 0-.1.1-.2.2-.3.2-.2.3-.4.5-.6 0 0 0-.1.1 0v.1c-.3.3-.6.5-.8.8zm3.3-.2c0 .1-.1.2-.1.3 0 .1-.1.2-.2.1-.1 0-.1-.1-.2-.2 0-.1.1-.1.2-.1s.1.1.2 0l.1-.1zm-.9-6.7c-.1 0-.1.1 0 0-.2.2-.2.2-.1.3l.1.1c.1.1.1.1 0 .2 0-.1 0-.2-.1-.2H26.4V14c.1-.1.3-.2.4-.3zM13.5 29h.1c.2.2.3.4.5.5v.1H14c-.1-.1-.2-.2-.2-.3l-.3-.3zm10.8-12.8.4-.4c.1-.1.1-.1.2 0-.1 0-.1 0-.2.1l-.2.2c-.1.1-.1.1-.2.1zm2.4 1.2s.1 0 .1.1l.6.6v.1h-.1c-.2-.3-.4-.5-.6-.8 0 .1 0 .1 0 0zm1.6 2.8c0-.1.1-.1.2-.1s.1 0 0 .1v.1s0 .1-.1.1h-.1v-.2zm-1.6-6.6h-.1c-.2 0-.3-.1-.3-.3 0-.1 0-.1.1 0l.3.3zM16 30.7c.3.3.6.5.9.8-.3-.3-.6-.5-.9-.8zm7.5-6.3c-.1.1-.1.1-.2 0s-.1-.1 0-.2l.1-.1h.1c.1.2.1.3 0 .3zm5.2-3.9v-.2l.3-.3v-.1c0-.1 0-.1-.1-.1.2.1.2.2.1.3-.1.2-.2.3-.3.4zm-7 2.1c-.1.1-.1.1-.2 0s-.1-.1 0-.2.1-.1.2 0c.1.2 0 .2 0 .2zm2.7-6.1c0-.1-.1-.1-.1-.1s.1-.1.1 0h.2v.1c0 .1-.1.1-.2 0zm-11 9.7c0 .1-.1.1 0 0-.1.1-.2.1-.3.1 0-.1-.1-.1 0-.2l.2-.2h.1c.1.1.1.2 0 .3.1 0 0 0 0 0zm9.1-2.8-.1.1c-.1 0-.1-.1 0-.2l.1-.1h.1c-.1 0-.1.1-.1.2zm-1.9-1.8-.1.1c-.1 0-.1-.1 0-.2l.1-.1h.1c0 .1 0 .1-.1.2zm-4.1 10.1-.1.1h-.1v-.1l.2-.2s0-.1.1 0c0 0 .1 0 0 .1l-.1.1zM28.9 21c.2-.2.3-.4.5-.5h.1l.1.1v.1l-.4.4-.1.1c.1 0 .1 0 .1-.1l.2-.2.1-.1c.1-.1 0-.1-.1-.1h-.1l-.1.1c-.1 0-.2.1-.3.2zm-8.1 6.7h-.2v-.2s.2 0 .2.1c.1 0 0 .1 0 .1zm-4.9 2.8-.9-.9.9.9zm1.6 2.4-.1-.1c0-.1.2-.1.2 0 .1.1.1.1 0 .2l-.1-.1zm-.6-.9c-.1-.1-.1-.3-.2-.4 0 0 .1 0 .1.1s.1.1.1.1c.2-.1.2 0 0 .2.1-.1.1-.1 0 0zm4.9-9.8c.1-.1.1-.1.2 0s0 .1 0 .2c-.1.1-.1 0-.2 0-.1-.1-.1-.1 0-.2zm1.8 2c-.1-.1-.1-.1 0-.2s.1-.1.2 0 0 .1-.1.2c0 .1-.1 0-.1 0zm4.8-8.9.2.2c-.1 0-.1.1-.1.1-.1 0-.1-.1-.1-.1v-.2zM12.9 27.8c0-.1.1-.1.1-.2h.1v.1l-.3.3h-.1v-.1c.1 0 .2 0 .2-.1zm7.8-6.6c.1-.1.1-.1.2 0s0 .1 0 .2c-.1.1-.1 0-.2 0-.1-.1 0-.2 0-.2zm-7.5 6-.6-.6.6.6zm12.1-10.4c-.2 0-.2 0-.3-.1v-.1h.1c.1.1.2.1.2.2zm2.1 3.1c0-.1.1-.1.1-.2l-.3.3h-.1v-.1c.2.1.2.1.3 0zm-9 2c-.2 0-.3-.1-.4-.1.1-.1.2-.1.3 0 0 0 .1 0 .1.1zm4.2 1.1s.1-.1.1 0c0 0 .1.1 0 .1 0 0-.1.1-.2 0 0 0-.1 0 .1-.1zm-9.3 5.7c0-.1-.1-.1-.1-.2 0 0-.1-.1 0-.1h.1c0 .1.1.2 0 .3.1 0 .2 0 .1.1 0 0 0-.1-.1-.1zm11.5-12.6s-.1.1 0 0l-.1.1-.1-.1.2-.2h.1c0 .1 0 .1-.1.2 0-.1 0 0 0 0zM14.9 30c.3.2.5.5.7.7-.2-.2-.4-.5-.7-.7zm14.6-13.6c-.1 0-.1 0-.2.1l-.1-.1v-.1c.1 0 0-.1.1-.1s.1.1.2.2zm-6.6 11.2c0-.1.1-.2.2-.4h.1v.1l-.3.3zm4.9-13.5.1.1v.1h-.1l-.2-.2V14h.1c0 .1 0 .1.1.1zm-3 2.2c-.1.1-.1.1 0 0-.1.1-.1 0 0 0l-.1-.1.1-.1s0-.1.1 0v.1l-.1.1zm-1.7 10.3c.2.1.2.2.1.3-.1-.1-.1-.2-.1-.3zm-11 .9-.1-.1h.1c.1 0 .1.1.1.1s0 .1-.1 0c.1.1 0 .1 0 0zm15.2-13c-.1 0-.1-.1-.1-.1s.1 0 .1-.1.1-.1.1 0l.1.1c-.1-.1-.2 0-.2.1zM16.1 26.2l-.1-.1c0-.1.1-.1.2 0 0 0 .1.1 0 .1 0 .1 0 .1-.1 0zm8.8-8.7-.1.1s0 .1-.1 0v-.1l.3-.3v.1c0 .1-.1.2-.1.2zm-4 11.1.3-.3c-.1.1-.2.2-.1.3 0 .1-.1 0-.2 0zm-7.9-.1c.1 0 .1 0 0 0 .2.1.2.2.3.3v.1c-.1-.2-.2-.3-.3-.4zm2.4-4.7c.1 0 .1-.1.2-.1H15.9c0 .1-.1.1-.2.2-.1-.1-.2 0-.3-.1zm.9 7.7c-.1 0-.1-.1-.1-.2 0 0 .1-.1.1 0 .2.1 0 .1 0 .2zm12.6-11.4c-.1 0-.1.1-.1.1v-.1l.1-.1h.1s-.1 0-.1.1zm-5.1-2.8c.1.1.2.2.3.4-.2-.1-.3-.2-.3-.4zM11.9 27.7l-.1-.1v-.1h.1l.2.2c-.1.1-.2 0-.2 0zM27.5 21c0 .1 0 0 0 0-.1 0-.2-.1-.3-.1 0 0-.1 0 0-.1h.1c0 .1.1.1.2.2zm-10.3 3.4v-.1c0-.1 0-.1.1-.1s0 0 0 .1c.1 0 .1.1-.1.1.1 0 .1 0 0 0zm-1.3 7.1c.2.1.3.3.4.4-.2-.1-.3-.3-.4-.4zm12.6-10.9c-.1-.1 0-.1 0-.1s.1-.1.1 0v.2c0-.1-.1-.1-.1-.1zm-5.7-1.5c.1 0 .1-.1.2-.1h.1v.1h-.3c0 .1 0 .1 0 0-.1 0-.1 0 0 0zm3.6 1.9-.3.6.3-.6zm-5.2-3.2c0 .1-.1.2-.3.3l.3-.3zm5.6 4.9c-.1 0-.2.1-.2.2 0-.1 0-.1.1-.2 0 0 0-.1.1 0zm1.3-3.1.1.1v.1h-.1v-.2zM15.9 31.1c.1 0 .1 0 .1.1s0 .1.1.2v.1H16c0-.2.1-.3-.1-.4.1.1.1.1 0 0 .1 0 .1.1 0 0zm10.4-16.8s0 .1 0 0c-.2 0-.1 0 0 0 0-.1 0-.2.1-.1l-.1.1zm-7.9 10.6c.1-.1.2-.1.3-.1h.1c-.2.1-.3.2-.4.1zm-4.7.8c-.1-.1-.1-.1 0-.1 0 0 .1 0 0 .1.1-.1.1 0 .1 0v.1l-.1-.1c.1.1 0 0 0 0zm7 2.2c.1 0 .1 0 0 0 0 .1-.1.1-.1.1v-.1s.1-.1.1 0zM24.9 15c-.1 0-.1 0 0 0-.1-.1-.1-.1 0-.1 0 .1 0 .1.1.1h-.1c0 .1 0 0 0 0zm1 6.9s0-.1 0 0v.2c-.1-.1-.1-.2 0-.2zm-1.6-5.6c0 .1 0 .1 0 0h-.1.1c0-.1 0-.1.1-.1 0 .1 0 .1-.1.1zm-4.5 14.8-.7.7.7-.7zM12 27.6s0-.1 0 0l-.1-.1h.1v.1c.1 0 .1 0 .1.1l-.1-.1zm1.3-1.8c.1-.1.1-.2.2-.2l-.1.1c0 .1 0 .1-.1.1zm2.8 6.1c-.1-.1-.3-.2-.4-.4l.4.4zM28 19.2c0-.1-.1-.1-.1-.2h-.3c.1-.1.2-.1.3 0 0 .1.1.1.1.2zm-8 13.6.1-.1h.1c-.1 0-.2 0-.2.1v-.1c-.1.1-.1.1 0 .1zm3-5c-.1.2-.3.3-.4.4.1-.1.3-.2.4-.4zm-9.4-2c-.1 0-.1 0 0 0 0-.1 0-.1 0 0 .1-.1.1 0 .1 0-.1.1-.1.1-.1 0zm8.8-11.2.2-.2v.1c-.1.1-.2.2-.2.1zm6.8 5.9c-.1.1-.2.3-.4.4.2-.1.3-.3.4-.4zm-10.5 8.3s0-.1 0 0c0-.1.1 0 .1 0 0 .1 0 0-.1 0zm2.4 1c.1-.2.3-.3.4-.5-.1.2-.2.3-.4.5zM13 28.2v.1l-.1-.1c0-.1 0-.1.1 0 0-.1 0-.1 0 0zm15.1-8.8c.1 0 .1.1.2.2l-.2-.2zM26.3 14v-.1s0-.1.1-.1h.1v.1c-.1 0-.1 0-.2.1zm-8.9 8.1c0-.1.1-.1.1-.2h.1c0 .1-.1.1-.2.2zm-2.7 7.7c.1 0 .1 0 0 0l.1-.1c0 .1.1.1 0 .2l-.1-.1zM20 17c.1 0 .1 0 .2-.1v-.1.1c0 .1 0 .1-.2.1.1.1.1.1 0 0zm-1.4 11.7-.3-.3c.2.1.3.2.3.3zm6.5-3.2c-.1.1-.1.2-.1.3-.1-.1-.1-.2.1-.3zm-7.8 7.3c.1.1.2.1.2.2 0 0-.1 0-.2-.2zm5.2-4.4-.3.3.3-.3zm-11.2-1.7s-.1-.1 0-.1v.1c.1-.1.1 0 .1 0-.1.1-.1 0-.1 0zm1.2.4c.1.1.1.1 0 .2v-.2zm4.7 5.8c.1.1.3.2.3.3l-.3-.3zm.5-7.8c.1-.1.2-.1.4-.1-.1.1-.2.1-.4.1zm4.4 3h.3c-.1.1-.2 0-.3 0zm-5-3.8c0-.1 0-.1 0 0s.1.1 0 .2v-.2zm7.4-8c0-.1 0-.1 0 0 0-.1.1-.1 0 0 .1-.1.1 0 0 0 .1 0 0 0 0 0zm4.2 4c-.1 0-.1-.1 0 0 0-.1 0-.1 0 0 0-.1 0 0 0 0zM23 18.9c0-.1 0-.1 0 0 0-.1.1-.1.1-.1s-.1 0-.1.1zm3.2-5.2c0-.1-.1-.1-.1-.1.1 0 .1 0 .1.1.1 0 .2 0 0 0 .1.1.1 0 0 0zm-.7 3.1-.3-.3.3.3zm-3.6 2.7c0-.1.1-.1.2-.1-.1 0-.1.1-.2.1zm3.2 6.3c-.1 0 0-.1 0-.2s.1-.1.1-.1c-.2.2-.2.2-.1.3zm-7.9 6.1c0-.1 0-.1.1-.1 0 .1 0 .1-.1.1zm6-16.1-.2.2c.1-.1.1-.2.2-.2zm.7-.8c0 .1-.1.2-.2.2.1 0 .1-.1.2-.2zm5.5-1.3c.1-.1.1-.2 0-.2.1.1.1.2 0 .2zM12.3 27.1c.1-.1.1-.1.2 0h-.2zm-.2-1.9c0-.1.1-.1.1-.2.1.1 0 .1-.1.2zm7.8-4.4c.1 0 .2.1.3.1-.2 0-.3 0-.3-.1zm6.2-9.6c0-.1 0-.1 0 0-.1-.1 0-.1 0 0v-.1.1c0-.1 0 0 0 0 .1 0 .1 0 0 0 .1 0 0 0 0 0zm-8.3 21.3c-.1 0-.1.1 0 0-.1 0-.1 0 0 0-.1-.1 0-.1 0 0zM12 26.7s-.1 0 0 0h-.2c.1-.1.1-.1.2 0-.1 0 0-.1 0 0zm6.4-8c.1 0 .2-.1.2-.2-.1.1-.1.2-.2.2zm-4.9 10.2s.1-.1 0-.1c.1 0 .1 0 0 .1.1-.1.1-.1 0 0zm5.5 3-.3.3.3-.3zm1.9-1.9-.3.3c.1-.2.2-.3.3-.3zM26 13.9c.1 0 .1 0 0 0 0 .1 0 .1 0 0-.1 0 0 0 0 0 0-.1 0 0 0 0zm-10.2 17c.1 0 .1.1.1.2 0-.1-.1-.2-.1-.2zm-.4-7c0 .1 0 .1-.1.1 0 0 .1 0 .1-.1 0 .1 0 0 0 0-.1 0 0 0 0 0zm6.9 4.2h.1-.1zM16.2 23c.1 0 .1-.1.2-.1 0 .1-.1.1-.2.1zm1.7 9.6c0 .1 0 .1-.1.1 0-.1.1-.1.1-.1zm-1.5-9.8c0-.1.1-.1.1-.1.1.1 0 .1-.1.1zm1.4-1c-.1 0-.1 0 0 0l-.1-.1c.1 0 .1.1.1.1zM26 11c0-.1 0-.1 0 0 0 0 .1 0 0 0z"/><path d="M31.2 20.6c-.1 0-.2 0-.3.1.1 0 .2 0 .3-.1zM31.1 18.2c0 .1 0 .2-.1.2s-.1.1-.1.2c-.1.1 0 .2.1.3.1.1.2.1.3 0h.1l-.3.3c-.1.1-.2.1-.3.2l.1.1h.1l.2-.2c0-.1.1-.1.1-.1.2-.2.3-.4.5-.5l.1-.1-.1-.1h-.1c-.1 0-.1-.1-.1-.2v-.1s0-.1-.1-.1h-.1l-.2.2s0 .1-.1 0v-.1c0-.1-.1-.2-.2-.2h-.1c-.1 0-.2.1-.1.2 0 0 0 .1.1.1.1.1.1.1 0 .2l-.1.1v.1c.1.1 0 .2-.1.2v.1h.1l.3-.3c-.2-.1 0-.3.1-.5zm.2.7s.1-.1 0-.2c0 0 0-.1.1-.1h.1v.1c-.1.1-.2.1-.2.2zm-.7-.3c0 .1 0 .1 0 0-.1 0-.1 0 0 0 0-.1 0-.1 0 0 .1 0 0 0 0 0zm0-.2c-.1 0-.1-.1-.2-.2v-.1c.1.2.2.3.2.3zm.5.1c.1 0 .1.1.2.1-.1 0-.1-.1-.2-.1zm-.2.2c.1 0 .1 0 0 0 .1.1.1.1 0 0 .1.1.1.1 0 0 0 .1 0 .1 0 0zm.2-.1c.1 0 .1.1 0 0 0 .1 0 .1 0 0zm-.5-.3c.1 0 .1 0 .1.1l-.1-.1zM31.2 20c0-.1.1-.1.2-.1s.2-.1.1-.2c0-.1-.1-.1-.1-.1-.1 0-.2.1-.2.2s-.1.2-.2.2-.1.1-.1.1c0 .1 0 .1.1.2.1 0 .1 0 .2-.1-.1-.1 0-.2 0-.2zm-.1-.2.1-.1s.1-.1.1 0v.1s-.1 0-.1.1-.1.1-.2.2h-.1V20c.1 0 .2-.1.2-.2zM27.9 24.6c0 .1-.1.1-.1.2s.1.2.2.1c.1 0 .2-.1.2-.1v-.2c-.1-.1-.2-.1-.3 0zm.1 0h.1s0 .1-.1 0zM30.2 22.2v.2c0 .1.1.1.1.1.1 0 .2-.1.3-.2 0-.1-.1-.2-.2-.2 0 0-.1.1-.2.1zM23.1 27.9c-.1.1-.1.2 0 .3h.1c.1 0 .2-.1.2-.2s0-.1-.1-.2h-.1c0 .1 0 .1-.1.1zM22.2 30.6h.1c.1 0 .2 0 .2-.1 0-.2 0-.3-.1-.3s-.2.1-.2.2c-.1.1-.1.2 0 .2zm.1 0c-.1-.1 0-.1 0-.2s.1-.1.2-.1v.1c-.1 0-.2 0-.2.2zM23.9 28.6c-.1.1-.1.2-.1.3.1.1.2 0 .3 0 .1-.1.1-.2 0-.3 0-.1-.1 0-.2 0zM27.4 24.1s.1-.1.1-.2-.1-.1-.1-.1c-.1 0-.2.2-.3.3 0 .1 0 .1.1.1s.2-.1.2-.1zM19.2 32c-.1.1-.1.2-.1.2l.1.1c.1 0 .2 0 .2-.1v-.1c0-.1 0-.1-.1-.2 0 0-.1 0-.1.1zM21.5 29.6s0 .1-.1.1c0 .1 0 .1.1.1s.2 0 .2-.1c.1-.1.1-.2.1-.3l-.1-.1c-.1.2-.2.3-.2.3zM26.2 26.3c-.1.1-.1.1 0 .2 0 .1.1.1.2.1s.2-.1.2-.2v-.1h-.1c-.2-.1-.2 0-.3 0zM25.5 25.8c.1.1.2 0 .3 0 .1-.1.1-.2 0-.3-.1-.1-.2 0-.3 0-.1.1-.1.3 0 .3zm.2-.2c-.1 0-.2.1-.2.2 0-.1 0-.1.1-.1 0-.1.1-.1.1-.1zM28.1 18.3l.1.1h.1v-.3c0-.1-.1-.1-.2-.1H28c0 .1 0 .2.1.3zm.1-.2c0 .2 0 .2.2.2h-.1s-.1 0-.1-.1c-.1 0-.1-.1 0-.1zM29.9 20c.1.1.2.1.2 0 0 0 .1-.2 0-.3 0-.1-.1-.1-.2-.1s-.2 0-.2.1c0 .2.1.3.2.3zm0 0c0-.1-.1-.1-.1-.1 0 .1.1.1.1.2.2-.1.1-.1 0-.1.1 0 .1 0 0 0zM29.5 21.5c-.1.1-.1.1-.1.2 0 0 0 .1.1.1.1.1.3-.1.3-.2s0-.1-.1-.2c0 0-.1 0-.2.1.1-.1.1 0 0 0zm.1.2c0-.1.1-.2.1-.2h.1c-.2 0-.2.1-.2.2zm-.1 0c0-.1 0-.2.1-.2-.1 0-.1.1-.1.2zM30.4 17.5c-.1 0-.1 0 0 0 .1-.1.1-.1.1-.2s-.1-.1-.1-.1-.1 0-.1.1c-.1.1-.1.1.1.2-.1 0-.1 0 0 0zM30.1 17.2c.1-.1.1-.1.1-.2 0 0 0-.1-.1-.1H30c-.1.2-.1.2.1.3-.1 0-.1 0 0 0zM29.5 16.7l.1.1c.1.1.1 0 .2 0 0-.1.1-.1 0-.2 0 0-.2-.1-.2 0 0 .2 0 .2-.1.1zM30.9 20.7c-.1 0-.2 0-.3.1h-.1.1c.1 0 .2 0 .3-.1zM27.1 23.6l.7-.7c-.2.3-.4.5-.7.7zM28.3 22.5c-.1 0-.1.1-.2.2.1-.1.1-.2.2-.2zM22 15.7c.1.1.2.2.3.2.1.1.3.1.5 0 .1-.1.2-.3.1-.5s-.2-.3-.3-.4c-.2-.1-.1-.2-.3 0l-.4.4s-.1.1 0 .1c0 .1.1.2.1.2zm.1-.4.2-.2h.1l.3.3c.1.1.1.4 0 .5-.1.1-.3.1-.5 0l-.3-.3v-.1c.1-.1.2-.1.2-.2zM15.3 23.5c.1 0 .1-.1.1-.2s0-.2-.1-.2h-.2V23.4c0 .1.1.2.2.2-.1 0-.1 0 0-.1zM23.1 15.2c-.1.1-.1.2 0 .3h.1c.1 0 .3-.1.3-.3v-.1c-.2 0-.4 0-.4.1zM12.9 25.9l.1-.1c0-.1-.1-.2-.2-.2h-.1c-.1 0-.1.1-.1.2s0 .1.1.2c.1 0 .2-.1.2-.1zM16.9 21.9c.1-.1.1-.2 0-.3h-.3v.3c.1.1.3.1.3 0zm0-.3c0 .1-.1.2-.2.2h-.1c.2 0 .3-.1.3-.2zM19.3 19.5c0-.1 0-.1 0 0 .1-.2.1-.3 0-.3h-.2c-.1 0-.1.2-.1.3.1.1.1.1.3 0zm-.1-.2c0 .1-.1.1-.1.1H19c.1 0 .2 0 .2-.1zM21 17.8c.1-.1.1-.2 0-.2-.1-.1-.2-.1-.3 0 0 0-.1.2 0 .3.1 0 .2 0 .3-.1zm-.3-.1c.1 0 .2-.1.2-.2.1.2-.1.3-.2.2zM15.8 29.4v.1h-.1c0-.1-.1-.1-.2-.2 0 0-.1-.1 0-.1h.1c0-.1 0-.1-.1-.1l-.3-.3s-.1-.1-.1 0c0 0-.1.1-.1.2l.2.2.6.6c.1.1.1 0 .2 0 .1-.1.1-.1 0-.2l-.2-.2zm-.5-.2s-.1-.1 0 0l-.1-.1s.1-.1.1 0l.1.1v.1l-.1-.1zm.5.5c-.1-.1-.1-.1 0-.1h.1l.1.1v.1s-.1 0-.2-.1c.1.1 0 0 0 0zm.2.2c-.1 0 0-.1 0 0 0-.1 0-.1 0 0 .1-.1.1-.1 0 0zM14.9 29c0 .2.1.2.2.3.1 0 .1.1.1.1.2.2.3.4.5.5l.3.3s0-.1-.1-.2c.1 0 .1.1.1.1-.3-.4-.7-.7-1.1-1.1zm.9.9c-.1 0-.1-.1-.2-.2l.2.2zM16.1 28.8v.1h.1c0-.1 0-.1-.1-.1.1-.1 0-.1 0 0zM16.7 28.4s0-.1 0 0c0-.1-.1-.1-.1-.1-.1 0-.1.1.1.1-.1 0-.1 0 0 0zM17.1 27.8c0 .1.1.1 0 0 .1 0 .1 0 0 0 .1-.1 0-.1 0 0zM18.1 28.9s.1 0 0 0c.1-.1.1-.1 0 0 .1-.2 0-.2 0 0 0-.1 0-.1 0 0zM16.6 31c0-.1 0-.1 0 0 0-.1 0-.1 0 0-.1-.1-.1-.1 0 0zM18.5 33.2c0-.1 0-.3-.1-.4 0 .1.1.2.1.4zM16.4 28.6c.1 0 .1-.1 0 0 0-.1 0-.1 0 0-.1-.1-.1 0 0 0zM14 28.4c0 .1 0 .1 0 0 .1 0 .1 0 0 0 0-.1 0-.1 0 0-.1 0-.1 0 0 0zM14.1 26.5c.1 0 .1 0 0 0 .1 0 .1-.1 0 0 .1-.1.1-.1 0 0 0-.1 0 0 0 0zM16.2 26.9s0 .1 0 0c.1 0 .1 0 0 0 0-.1 0-.1 0 0-.1 0 0 0 0 0zM18.9 29.6c0 .1 0 .1 0 0 .1.1.1.2 0 0 .1.1.1.1 0 0 .1 0 .1 0 0 0zM13.4 27.3c-.1 0-.1 0 0 0 0 .1 0 .1 0 0 .1 0 .1 0 0 0 0-.1 0-.1 0 0zM15.7 30.2c.1-.1.1-.1 0 0 .1-.1 0-.2 0 0 0-.1 0-.1 0 0zM15.3 26c.1 0 .1 0 0 0 0-.1 0-.1 0 0-.1-.1-.1 0 0 0zM19.3 30.1s.1 0 0 0c.1-.1.1-.1 0 0 .1-.1 0-.1 0 0 0-.1 0-.1 0 0zM14.9 25.7s.1 0 0 0c.1 0 .1-.1 0 0 .1-.1 0-.1 0 0 0-.1 0-.1 0 0zM18.3 32.6c.1 0 .1 0 0 0 0-.1 0-.1 0 0-.1 0-.1 0 0 0 0 0 0 .1 0 0zM14.1 28.2l.2.2c-.1-.1-.1-.2-.2-.2zM22.2 19c.1.1.2.1.3 0 .1-.1.1-.1.1-.2s-.1-.1-.2-.1-.1 0-.2.1h-.3c-.1-.1-.1-.1-.2-.1 0 0-.1 0-.1.1v.2c-.3.2-.6.3-.8.4-.3.2-.7.4-1 .5-.1.1-.2.1-.2.2l-.1.1c-.1 0-.1.1-.1.2v.1c.1 0 .1.1.2 0 .1 0 .2-.1.2-.3 0-.1.1-.2.2-.2s.1 0 .1-.1l.1-.1.6-.3c.1 0 .2-.1.3-.2h.1s.1 0 .1-.1c.3-.1.6-.3.9-.5-.1.3 0 .3 0 .3zm-.2 0c-.7.4-1.5.8-2.2 1.2.2-.1.3-.2.5-.3.2-.1.5-.3.7-.4.3-.2.6-.4 1-.5-.1 0 0 0 0 0 .1-.1.2-.1.3-.1-.2 0-.2 0-.3.1zm.5-.2c0 .1-.1.1-.2.2.1-.1.2-.1.2-.2zM22.6 18.2c-.1.1-.1.2 0 .2h.1c0-.1.1-.1.1-.1.1 0 .1 0 .1-.1s0-.1-.1-.2c.1.1-.1.1-.2.2zM18.7 20.7s0 .1-.1.1c0 0 0 .1.1 0h.1c0-.1.1-.1.2-.1 0 0 .1 0 .1-.1l-.1-.1c-.2.1-.3.2-.3.2zM20.6 19.2s.1-.1.1 0h.1l-.1-.1s-.1 0-.1.1c-.1 0-.2 0-.1.1s.1 0 .1-.1zM19.6 19.9c0-.1.1-.1.2-.1 0 0 .1 0 .1-.1 0 0-.1-.1-.1 0-.1 0-.2.1-.2.2v.1c-.1-.1-.1-.1 0-.1zM26.5 16.8s.1.1.2.1.1-.1.1-.2-.1-.1-.2-.1h-.2s0 .1.1.2zM25.9 22.6c.1.1.1.1 0 .2-.1.3-.3.6-.5.8 0 0 0 .1-.1.1l-.1.1v.1c-.2.2-.3.5-.4.8-.1.1-.1.2-.2.3 0 .1-.1.1-.2.1s-.1 0-.2.1c0 .1-.1.2 0 .3l.1.1c.1 0 .2 0 .2-.1.2-.1.2-.3.4-.5s.3-.5.4-.8c.1-.3.3-.5.4-.8 0 0 0-.1.1 0h.1c.1 0 .2-.3.1-.3s-.1-.1 0-.1c0-.1.1-.1 0-.2v-.1c0-.1.1-.2 0-.3 0-.1-.1-.1-.2-.1.1 0 0 .1.1.3-.1 0 0 0 0 0zm.1 0c.1 0 .1.1.1.1-.1.2-.1.3-.2.5-.1.3-.3.5-.4.8-.2.3-.3.6-.5.9-.1.1-.2.3-.2.4 0-.1.1-.2.1-.3.2-.3.3-.6.5-.8.1-.2.3-.5.4-.7.1-.2.2-.4.3-.5 0-.2 0-.3-.1-.4zm0-.1c0-.1 0-.2.1-.2h.1-.1c0 .1-.1.1-.1.2zM26.7 22.2c.1-.1.1-.2.1-.3-.1 0-.1 0-.1-.1-.1 0-.1 0-.1.1s0 .2-.1.2 0 .1 0 .1c.1.1.1.1.2 0zM24.2 26.2c0-.1.1-.1.1-.2 0 0 0-.1-.1-.1l-.1.1c.1 0 .1.1.1.2-.1-.1-.1 0-.1 0 0 .1.1 0 .1 0zM25.7 24.4c.1-.1.1-.2.1-.3h-.1v.1c.1 0 0 .1 0 .2-.1-.1-.1-.1-.1 0v.1c0-.1.1-.1.1-.1zM27 18.5h-.3c-.2-.1-.3-.1-.3-.3v-.1c0 .2.1.4.3.5.1 0 .1 0 .3-.1-.1.1 0 .1 0 0zM25.1 13.4c0-.1-.1 0-.2 0s-.1.1-.1.1v.1c-.1.1-.1.2-.2.2s-.1.1-.1.2.1.1.2.1.1 0 .1-.2v-.1c.1-.1.1-.2.2-.2.2 0 .2-.1.1-.2zm-.2.4c0 .1-.1.1-.1.2h-.1v-.1l.3-.3s0-.1.1 0v.1c-.1-.1-.1 0-.2.1zM25.6 14.4s0 .1 0 0V14.7h-.2v.2h-.1c0-.1 0-.1-.1 0h-.1v-.2H25v.1c0 .1.1.2.2.2s.2-.1.2-.2c.3-.2.2-.3.2-.4zM24.5 13.3c-.1.2-.1.4-.2.7.1-.2.2-.4.2-.7zM25.3 14.3c.1 0 .2 0 .1.1v-.1h-.1z"/><path d="M25.3 14.3c-.1 0-.1.1-.1.2h.2c-.2-.1-.1-.1-.1-.2zM32.7 17.8s.1 0 0 0c.1.1.1.1.1.2-.1 0 0 .1 0 .1l.2.2h.2c.1.1.2.2.3.2l-.2-.2s-.1-.1 0-.1v-.1c-.1 0-.1-.1-.2-.2 0 0-.1-.1-.2 0 0-.1-.1-.1-.2-.1.1 0 .1 0 0 0zM31.4 17.9c0 .1 0 .1 0 0 .1.1.1.2 0 0 .2.1.2.1 0 0 .1 0 .1 0 0 0zM32.5 19.1s.1 0 0 0c.1-.1.1-.1 0 0 .1-.1 0-.1 0 0 0-.1 0-.1 0 0zM33.1 19.6c.1-.1.1-.1 0 0 0-.1 0-.1 0 0 0-.1 0-.1 0 0zM32 18.5s.1.1 0 0c.1 0 .1 0 0 0 .1-.1 0 0 0 0zM27.4 11l.3.3-.3-.3zM26.8 13.4s.1 0 0 0c.1 0 .1 0 0 0 .1-.1 0-.1 0 0zM25.8 12.4c.1 0 .1-.1 0 0 0-.1 0-.1 0 0-.1-.1-.1 0 0 0zM20.7 26.3s.1 0 0 0c.3.1.5.1.7.2.1 0 .1 0 .1-.1v-.1c-.2-.1-.3-.1-.5-.1h-.2c-.1 0-.1 0-.1.1zM18.6 24.2c.1 0 .1 0 0 0 .1 0 .1 0 .1-.1-.1-.2-.1-.4-.2-.7 0 0 0-.1-.1-.1s-.1 0 0 .1c.1.3.2.6.2.8zM15.1 25.5c.1 0 .1 0 0 0 0-.1 0-.1 0 0zM15.9 24.6c0 .1.1.1 0 0 .1 0 .1 0 0 0 .1-.1 0-.1 0 0zM19.5 29.7c0 .1 0 .1 0 0 0 .2.1.2 0 0 .1.1.1.1 0 0 .1 0 .1 0 0 0zM19.2 29.5c.1 0 .1 0 0 0 0-.1 0-.1 0 0zM21.7 19.9v-.1h-.1c-.1.1-.3.2-.4.3l-.1.1s-.1 0-.1.1.1 0 .1 0c.1 0 .1-.1.2-.1.2-.1.3-.2.4-.3zM25.2 21.9l.2.2s.1.1.1 0V22l-.4-.4s-.1-.1-.1 0v.1c0 .1.1.1.2.2zM23.1 19.7c-.1-.1-.1-.2-.2-.2h-.1v.1h.1c.1.1.2.2.4.3l.1.1h.1v-.1c0-.1-.1-.1-.1-.1-.2 0-.3-.1-.3-.1zM24.8 23.9c.1-.1.1-.2.2-.3 0-.1.1-.1.1-.2v-.2H25l-.3.6s-.1.1 0 .1h.1zM16.6 27l.2.2s.1.1.1 0v-.1l-.3-.3s-.1-.1-.1 0v.1l.1.1zM17.3 27.7c.1 0 .1 0 0 0 .1 0 .1 0 0 0 .1-.1.1-.1 0 0zM17.2 27.6s.1 0 0 0c.1 0 .1 0 0 0 .1-.1 0-.1 0 0 0-.1 0 0 0 0zM13.2 26l-.1.1v.1h.1c.1 0 .1-.1.2-.1 0 0 .1-.1 0-.1 0-.1-.1-.1-.2 0 0 .1 0 0 0 0zm.1.1.1-.1c0 .1-.1.1-.1.1 0 .1 0 .2-.1.1-.1 0 0-.1.1-.1zM22.2 15.3l-.1.1c-.1.1-.1.1 0 .2l.2.2c.1.1.3.1.4 0 .1-.1.1-.3-.1-.4-.1-.1-.2-.1-.2-.2h-.1l-.1.1zm.3.3c0-.1 0-.2-.1-.2s-.2 0-.2.2c0-.1 0-.2.1-.2.1-.1.2 0 .2 0 .1.1.1.1 0 .2zm.1.1c-.1 0-.1.1-.1 0h.1c-.1 0 0 0 0 0v-.1c.1 0 0 0 0 .1z"/></g><g fill="#010101"><path d="m8.6 30.4-.1-.1c-.4-.4-.6-.8-.6-1.2 0-.2.1-.5.2-.6-.1-.4-.1-.5-.1-.6-.1-.5 0-1 .4-1.4.1-.1.2-.2.4-.3l.1-.1c0-.1 0-.1.1-.2h.1c.3-.2.5-.2.8-.2.1 0 .2 0 .3.1v-.3c.1-.4.3-.7.7-.8h.3c.1 0 .2.1.3.1l.2.2c.1 0 .1-.1.2-.1.1-.1.3-.1.4-.2 0 0-.1-.1-.1-.3 0-.4.2-.7.3-.8.2-.2.4-.4.7-.5.3-.2.7-.1.9.1 0 0 .1 0 .1.1v-.1c0-.1 0-.2.1-.3.2-.4.4-.6.6-.8l.1-.1c.2-.2.5-.4.7-.5.3-.2.6-.2.9.1.1.1.2.2.3.4.1.3.2.5.1.7 0 .3-.2.5-.4.7l-.1.1.1.1c.1.1.1.2.2.4 0-.1.1-.1.1-.1.1-.1.3 0 .4.1l.1.1c.1.1.3.3.4.5.1-.1.2-.2.3-.2.3-.2.6-.2.9-.2.2 0 .3.1.5.1.2.1.4.2.5.4.3.3.4.7.2 1.1 0 .1-.1.1-.2.2l.1.1-.1.2c-.1.1-.2.1-.3.1-.1 0-.1 0-.2-.1 0 .1 0 .3-.1.4l-.4.4c-.3.2-.6.2-.9.1-.1 0-.1-.1-.2-.1-.1.2-.2.4-.4.5l-.1.1c-.1.1-.2.1-.3.2 0 0-.1 0-.2.1-.2 0-.2 0-.3-.1v-.1c-.2.2-.4.3-.5.3-.3.1-.5.1-.8 0-.2-.1-.3-.2-.4-.3 0 .2-.1.3-.1.4-.1.2-.2.3-.4.4l-.1.1c-.2.2-.4.4-.7.6-.1.1-.2.1-.2.1h-.1c-.1 0-.2 0-.3-.1v-.1c-.1.1-.3.2-.6.2 0 0 .1.1 0 .3 0 .1-.1.2-.2.3-.2.2-.5.4-.8.5-.4.1-.7 0-1-.3-.2-.2-.3-.4-.4-.6v-.3h-.2l.1.1c.1.1 0 .3 0 .4v.1c-.1.3-.3.4-.6.5-.2.1-.4.1-.5 0-.2 0-.3-.1-.5-.1 0 0 0 .1.1.1.1.1.1.2 0 .3l.2-.3zm2-1.4c.1.2.1.3.3.4.2.2.4.3.7.2.3-.1.5-.2.7-.4 0 0 0-.1.1-.1h-.2s-.2-.1-.2-.2 0-.2.2-.2h.4c.2 0 .3-.1.5-.2s.4-.3.6-.5l.1-.1.1-.1.3-.3v.4c0 .1 0 .2-.1.3-.1.1-.1.2-.2.3.2-.2.4-.3.6-.4l.1-.1.3-.3c.1-.2.1-.4 0-.5h-.2v-.1c0-.1 0-.1-.1-.2 0-.1-.1-.2-.2-.3-.1-.1-.1-.1-.2-.3l-.1-.3.3.1c.2.1.4.2.5.4 0 0 0 .1.1.1 0 0 0 .1.1.1.3-.1.5-.2.7-.4.1-.1.2-.1.2 0l.1.1v.1c0 .1-.1.2-.1.3l-.1.1c-.1.1-.2.3-.3.4.1.1.2.2.3.2.2.1.4.1.6 0 .3-.1.5-.3.6-.5 0-.1.1-.2.1-.3l.1-.1.1.1c.1 0 .1.1.1.1.1.2.1.3 0 .5.1 0 .2-.1.2-.1l.1-.1c.1-.1.2-.2.2-.4 0-.1.1-.2.1-.2.1-.1.2 0 .2 0h.1c.1 0 .1.1.2.1.3.1.5.1.6 0 .2-.1.3-.2.4-.3.1-.1.1-.2.1-.2-.1-.1 0-.2 0-.3.1-.1.1-.2.1-.4V25.1h.1c.1 0 .2.1.2.1.1.1.1.2.1.2.1-.1.1-.2 0-.3h-.1V25c0-.1-.1-.1-.1-.1-.1-.1-.2-.2-.4-.3h-.1c-.1 0-.2-.1-.3-.1-.2 0-.5 0-.7.2-.1.1-.2.1-.3.2-.1.1-.1.1-.2.1s-.1 0-.2-.1c-.1-.2-.3-.3-.4-.5l-.1-.1V24.6c-.1.3-.2.5-.4.7l-.4.4.1-.6V25c.1-.2.1-.4.1-.6 0-.2-.1-.4-.2-.5-.1-.1-.1-.2-.3-.2H15.9V23c.2-.1.4-.1.6-.1h.1c.2-.2.3-.3.3-.5s0-.3-.1-.5c-.1-.1-.1-.2-.2-.3-.2-.1-.4-.1-.6 0-.2.1-.4.3-.7.5l-.1.1c-.2.2-.4.4-.6.7 0 .1 0 .1-.1.2v.2s-.1.2-.2.2-.2 0-.2-.1H14s-.1 0-.1-.1c-.2-.1-.4-.2-.6-.1-.2.1-.4.2-.5.4-.2.2-.3.5-.3.7.3-.1.7-.1 1 0l.2.2.1.2h-.5c-.4.1-.7.2-1.1.4-.1.1-.3.2-.4.3-.1.1-.1.2-.2.3l-.1.2-.2-.2c-.1-.1-.1-.2-.1-.2 0-.2.1-.4.3-.6-.1 0-.1-.1-.2-.1h-.1c-.3.1-.4.3-.5.6V25.7s0 .1-.1.2-.2 0-.2 0c-.3.1-.4.1-.5.1-.2 0-.5 0-.7.2-.1 0-.1.1-.2.1s-.1 0-.1.1l-.1.1-.3.3c-.3.3-.4.7-.3 1.1 0 .1.1.2.1.3.2.2.1.3 0 .5-.1.1-.2.2-.1.4v.1l.1.1s.1 0 .1.1c.2.2.4.3.8.3h.4c.2-.1.3-.1.4-.3v-.2h-.1c-.1 0-.3 0-.4-.1-.1-.1-.1-.2-.2-.3v-.1l-.2-.3.4.1c.1 0 .1.1.2.1.1.1.2.1.4.1.3 0 .5-.1.8-.4.1-.1.2-.3.4-.4l.3-.3v.8c0 .2-.1.4-.3.4-.2.1-.3.2-.5.3-.1-.2-.2-.1-.2-.1zm-.6.1zm4.9-2.3s0 .1 0 0c.1.1.1.1 0 0l.1.1.1-.1.1-.1c-.1.1-.2.1-.3.1zm5.1-1.7zm-7.5-.8zm1.7-1.1zm.1 0z"/><path d="M12.1 32.3c-.1 0-.3 0-.4-.1-.4-.1-.7-.4-.8-.9 0-.1 0-.1-.1-.2 0 0 0 .1-.1.1-.2.3-.6.6-1.1.5-.2 0-.3-.1-.3-.2-.3-.3-.4-.5-.4-.8v-.1c0-.1 0-.2-.1-.3-.1 0-.1-.1-.1-.1 0-.1-.1-.2-.2-.3l-.3-.6v-.2c-.3 0-.2-.1-.2-.1s.2-.1.3.1c.1 0 .1.1.2.1.1.1.2.1.3.2.2.1.4.1.6.1.2 0 .3-.1.3-.2 0 0 0-.1.1-.1v-.1c-.2 0-.3-.1-.4-.2-.1-.1-.2-.3-.2-.4v-.1c0-.1 0-.2.1-.3 0 0 .2-.1.3.1.1.2.3.2.5.2.4-.1.7-.3 1-.6l.2-.2c.1-.2.2-.1.2-.1l.2.2v.4c0 .3-.2.5-.5.6-.1 0-.2.1-.3.2l-.1.1c0 .1 0 .1.1.2.1 0 .1.1.1.2 0 0 0 .1.1.1.2.2.4.2.6.2.3-.1.5-.2.6-.4-.1 0-.2-.1-.3-.2 0 0-.1-.1-.1-.2s.2-.2.2-.2c.1 0 .2 0 .3-.1h.2c.3-.1.5-.1.6-.2l.6-.6c.1-.2.3-.1.3-.1s.1.1.1.3c0 .1 0 .2-.1.3.1-.1.3-.2.4-.3.2-.2.3-.3.3-.4v-.1l-.1.2-.2-.1s-.1-.1-.1-.2c0-.2 0-.4-.2-.6l-.1-.1-.1-.1c-.1-.1-.1-.2 0-.3 0 0 .1-.1.3-.1.3.1.4.2.6.4 0 .1.1.1.1.1s.1 0 .1-.1c.2-.1.4-.2.6-.4.1-.1.2-.1.2-.1s.1.1.1.2 0 .3-.2.4c0 0-.1.1-.1.2l-.3.3c.1.1.3.2.4.2.2 0 .4 0 .6-.2.2-.1.3-.3.4-.5v-.1c0-.2.1-.2.1-.2s.2 0 .3.1c.1.2.2.4.1.5.1-.1.3-.2.4-.2.1-.1.1-.1.1-.2l-.1-.2.1.1v-.1c0-.2.1-.2.1-.2h.2c.1.1.2.1.4.2.3.1.5.1.7-.1l.1-.1.2-.2v-.1l-.1-.1c0-.1 0-.2.1-.2.1-.2.1-.3 0-.6v-.2s.1-.2.3 0l.3.3V24.8c0-.2.1-.2.1-.2s.1-.1.2.1c.1.1.2.3.2.6 0 .2-.1.4-.2.5.1.1.3.2.3.3.1.2.2.4.2.6v.1h-.1c-.1.5-.3.8-.7 1.1-.1.1-.3.1-.4.1-.1 0-.2-.1-.2-.1l-.2.2c-.1.1-.2.1-.3.2h-.2c.2.3.1.6-.1.9-.1.1-.3.2-.5.3-.1.1-.2.1-.2.2-.2.1-.4.2-.7.3h-.6c0 .1 0 .1-.1.2l-.3.3c-.3.2-.6.2-.9.2-.1 0-.1 0-.2-.1-.1.1-.3.1-.4.2-.1.1-.3.1-.4.2-.1 0-.2.1-.2.1h-.3c-.1 0-.2-.1-.2-.1v-.1c-.1.1-.2.2-.3.2.1.1.1.1.1.2.1.3 0 .7-.2.9-.5-.1-.8.1-1.2.1zm-1.3-1.9.2.2c.1.1.1.2.1.2 0 .2.1.3.1.4.1.4.4.6.7.7.4.1.8 0 1.1-.3.2-.2.2-.4.2-.6v-.1c-.3.1-.5.1-.8 0l.1-.3h.2c.1 0 .2-.1.4-.2l.1-.1c.2-.1.3-.2.4-.4.1-.1.1-.2.1-.4v-.1c0-.2.2-.2.2-.2.1 0 .2 0 .2.2s.1.4 0 .6v.2h.1c.1 0 .2-.1.3-.1.1 0 .2-.1.3-.1.2-.1.3-.2.5-.3.1 0 .1-.1.2-.2 0 0 0-.1.1-.1l.1-.1c0-.1.1-.1.1-.1l.3.1c0 .1-.1.2-.1.2s0 .1-.1.1v.1l-.1.1c.2 0 .4 0 .7-.2.1-.1.2-.1.2-.2l-.3-.3-.4-.6.6.4c.2.2.5.2.9.2.2 0 .4-.1.5-.2.1-.1.2-.1.2-.2.1-.1.3-.2.4-.3.1-.1.2-.3.1-.4-.1 0-.1.1-.2.1l-.1.1h-.1c-.1.1-.2.1-.3.2h-.5l.4-.3.1-.1c0-.1.1-.1.2-.2s.2-.3.2-.5 0-.3-.1-.5H18l-.1.1c-.1.1-.3.2-.5.3l-.1.1h-.1c-.1 0-.2 0-.2-.1 0 0-.1-.1 0-.3 0 0 .1-.1.1-.2-.1.2-.2.4-.4.5-.3.2-.5.3-.8.2-.2 0-.4-.1-.6-.3-.1-.1-.1-.1-.1-.2s0-.1.1-.2l.3-.3c-.1.1-.2.1-.3.1-.1 0-.2.1-.3.1l.1.1c-.1.3-.1.5-.1.8-.1.2-.2.4-.4.6-.3.2-.5.5-.9.7 0 0-.1.1-.2.1 0 0-.1.1-.2 0 0 0-.1 0-.1-.1v-.1c-.2.1-.4.2-.6.2H12.3c.2 0 .2.1.3.1 0 .1 0 .2-.1.3-.2.3-.5.5-.9.6-.3.1-.6 0-.9-.2-.1-.1-.1-.1-.1-.2 0 0 0-.1-.1-.1-.1-.1-.1-.2-.2-.3V29c-.1-.1 0-.3.1-.3s.1-.1.2-.1c.1-.1.2-.2.4-.2.2-.1.3-.2.3-.3-.3.3-.6.6-1.1.7h-.5c.1.1.1.1.2.1s.2 0 .3.1c.1.1.1.2 0 .4 0 0 0 .1-.1.1v.1c-.1.2-.3.3-.5.4-.3.1-.5 0-.7-.1-.1 0-.3-.1-.4-.2 0 0 0 .1.1.1.1.1.1.2.2.3 0 0 0 .1.1.1.2.1.3.3.3.6 0 .2.1.4.3.6l.1.1h.1c.3 0 .6-.1.9-.4.1-.1.1-.2.2-.3v-.4zm-2 .3zm.3 0zm.8-1.5zm8.6-1.4c.1 0 0-.1 0-.1v.1zm.2-.2zm-.6-1 .3.3.2.2c.1.1.2.3.2.4l.1-.1c.2-.2.4-.3.5-.5l.3-.6v.7c0 .1 0 .3-.1.4.1 0 .1 0 .1-.1.3-.2.5-.6.6-1.1h.1c0-.1-.1-.2-.1-.3l-.2-.2H19.8c-.1 0-.2-.1-.2-.2v.1c.1.2 0 .3 0 .4l-.3.3-.1.1c-.3.3-.7.3-1 .2-.1 0-.2-.1-.3-.1.2 0 .2.1.2.1zm1.5.8zm-4.3-.3zm0-.1zm5.3-.8c.1 0 .1 0 0 0zm-.6-.8zm-.1-.1s0 .1 0 0c0 .1 0 .1 0 0zm-.1-.7z"/><path d="m7.7 29.1.4-.6s0-.1.1-.1c0 0 0-.1-.1-.1-.2-.2-.3-.5-.4-.7-.2-.4-.2-.8 0-1.2l.3-.3.1-.1c.2-.2.3-.3.5-.3h.1s.1 0 .1-.1c.2-.1.3-.2.5-.2h.2c-.1-.4-.1-.7.1-1.2.1-.2.3-.5.5-.7l.3-.3h.1c.3-.3.7-.4 1-.4.4 0 .7.1.9.3l.1.1.1.1c.1-.2.2-.3.4-.5s.3-.3.5-.4c.2-.1.4-.1.6 0 .1 0 .3.1.3.2 0 0 0-.1.1-.1.1-.2.2-.3.3-.5l.6-.6c.3-.2.6-.4.9-.4.2-.1.4-.1.5-.1h.5c.5.1.8.3.9.8.1.3 0 .6-.2.8l-.1.1c.1 0 .2.1.2.1.1.1.3.2.4.3.1.2.2.5.1.7h.2c.4 0 .8.1 1.1.3l.4.2-.5.1h-.4c-.5 0-.8.1-1 .3l-.1.1s0 .1-.1.1c-.1.1-.2.1-.2.1-.1 0-.1 0-.2-.1-.1-.2-.2-.3-.4-.5v.2c-.1.3-.3.6-.6.9-.1.1-.2 0-.2 0-.1-.1-.1-.2 0-.3 0 0 .1-.1.1-.2.2-.3.2-.6 0-.8 0 0 0-.1-.1-.1 0-.1-.1-.1-.1-.2-.1-.1-.2-.2-.3-.1H16c-.1.1-.2 0-.3-.1 0 0-.1-.1.1-.3 0-.3.1-.3.2-.3.2 0 .3-.1.5-.1 0 0 .1 0 .1-.1.2-.3.2-.5.1-.7-.1-.2-.3-.5-.5-.5-.1 0-.2 0-.4.1s-.3.2-.5.4l-.1.1c-.2.1-.3.3-.4.4-.2.3-.3.6-.4.8 0 .1 0 .2-.1.2s-.2 0-.2-.1l-.1-.1c-.1 0-.1-.1-.2-.1-.1-.1-.2-.1-.3-.1-.4.1-.6.3-.9.7-.1.1-.1.2-.1.3.2-.1.5-.1.8 0 .2 0 .3.1.4.2.1.1.1.2.1.3 0 0-.1.2-.2.1H13c-.3.1-.7.2-1 .5-.2.2-.4.3-.4.5s-.1.2-.2.2c0 0-.2 0-.2-.2-.1-.3 0-.6.2-.8-.1 0-.1-.1-.2-.1 0 0-.1 0-.3.1-.2.2-.3.4-.3.7v.2c0 .1 0 .2-.1.3-.1.1-.2 0-.3 0-.1-.2-.3-.2-.7-.1-.3.1-.5.2-.7.4-.2.2-.3.3-.4.5-.1.2-.1.4-.1.7 0 .2.1.3.2.4.1.1.1.1 0 .2 0 0 0 .1-.1.2 0 0-.1 0-.1.1l-.6.5zm1.8-3.6h-.2c-.1 0-.3.1-.4.2 0 0-.1 0-.1.1h-.1c-.2.1-.3.2-.4.3l-.1.1c-.1.1-.2.2-.2.3-.1.3-.1.6 0 .9v.1c0-.2 0-.4.1-.5.1-.3.3-.5.5-.6.2-.2.5-.4.8-.5.2-.1.5-.2.8 0v-.1c0-.3.1-.6.4-.9.2-.2.4-.2.6-.2.1 0 .2.1.3.1l.2.2v.1h.1c.4-.3.8-.4 1.1-.5-.1 0-.2 0-.3.1 0 0-.2.1-.3 0-.1-.1-.1-.2-.1-.2 0-.2.1-.4.2-.6.3-.5.6-.8 1.1-.8.2 0 .4 0 .6.1.1 0 .1.1.2.1.1-.3.2-.6.4-.9.1-.2.3-.3.5-.5l.1-.1c.2-.2.4-.3.6-.4.2-.1.4-.2.6-.1.3.1.6.4.7.7.1.4 0 .7-.2 1-.1.1-.1.2-.3.2l.1.1c.1.1.1.2.1.2s0 .1.1.1c.1.2.1.3.1.5V23.8s0-.2.1-.2c.1-.1.2 0 .3.1l.1.1c.1.1.3.3.4.5l.1-.1c.2-.1.4-.2.5-.3h-.3c-.2.1-.2 0-.3-.1 0 0-.1-.1 0-.3.1-.1.1-.4 0-.5l-.3-.3h-.2c-.2 0-.2-.1-.2-.1 0-.1 0-.2.1-.2l.1-.1c.1-.1.1-.2.2-.2.1-.1.2-.3.1-.5-.1-.3-.3-.5-.7-.6h-1c-.3.1-.5.2-.8.4-.2.2-.4.4-.5.6-.1.1-.2.3-.3.4 0 .1-.1.1-.1.2-.1.1-.1.2-.2.1-.1 0-.2-.1-.2-.2s-.1-.2-.2-.2h-.3c-.2.1-.3.2-.4.4-.1.2-.3.4-.4.6-.1.1-.2.1-.2.1s-.1 0-.2-.1c0-.1-.1-.1-.2-.2L12 23c-.1-.2-.3-.2-.6-.2s-.5.1-.8.4h-.1c-.1.1-.2.1-.3.2-.2.4-.3.6-.5.8-.2.4-.2.7 0 1v.2c0 .1-.1.1-.2.1zm7.3-.5zM12.1 32.5H11.8c-.2 0-.4-.1-.6-.3-.2-.1-.3-.4-.4-.6-.3.2-.7.3-1.1.3l-.2-.1c-.1-.1 0-.2 0-.2s.1-.1.2-.1c.3.1.5-.1.8-.3.2-.1.2-.3.3-.5 0-.2.1-.2.2-.2s.2.1.2.2c.1.1.1.3.1.4.1.4.3.7.6.9.3.2.9.1 1.2-.2.1-.1.2-.2.2-.4v-.2c-.3.1-.5.1-.8 0-.1 0-.3-.2-.2-.4 0-.1.1-.1.1-.1.1 0 .2 0 .2.1h.2l.6-.3c.2-.2.3-.4.4-.7v-.2c0-.1.1-.2.2-.2s.2 0 .2.1c.1.3.1.5.1.8 0 .1 0 .1-.1.2.3 0 .6-.2.8-.3.2-.1.4-.2.5-.4 0-.1.1-.1.1-.1h.1c.1 0 .1.1.1.3l-.1.1c.3 0 .5-.1.7-.3-.1-.1-.2-.3-.3-.5l-.2-.3h.2c.1 0 .2 0 .2.1.2.2.4.2.6.2.2 0 .4 0 .5-.1.1-.1.3-.2.4-.3.1 0 .1-.1.2-.1.1-.1.2-.1.3-.2.1-.1.1-.1.1-.2l-.2.2c-.1.1-.2.1-.4.2-.2 0-.2-.1-.2-.1s0-.1.1-.2l.2-.2c.1-.2.2-.4.2-.6 0-.2 0-.3-.1-.4v-.1c-.1-.1 0-.2 0-.3 0 0 .1-.1.3 0l.3.3c.1.1.2.2.2.4.2-.1.3-.2.5-.4.1-.1.1-.2.1-.3v-.4l.3.4c.1.2.1.4.1.5.3-.2.4-.5.5-.9V25.8l.3.4c.1.1.1.2.1.2v.1c0 .5-.1 1-.4 1.3-.3.3-.5.4-.9.3 0 .3-.1.6-.3.9-.2.3-.5.5-.8.8-.3.2-.7.4-1.1.5h-.3c-.1 0-.2-.1-.3-.1-.2.1-.3.3-.5.4-.2.1-.5.2-.8.2-.1 0-.2-.1-.3-.1-.1.2-.1.3-.2.4-.2.5-.6.8-1 1.1-.4.1-1 .3-1.7.3zm1-1.8c.1 0 .1.1.1.2s.1.3.1.5-.1.3-.3.5c-.1.1-.2.2-.4.3.4-.1.7-.2 1-.4.4-.3.6-.6.9-1 .1-.1.1-.2.1-.3-.2.1-.5.2-.7.2h-.2c-.1 0-.2 0-.2-.1 0 0-.1-.1 0-.2s.1-.2.1-.3V30c-.1.2-.2.4-.4.6.1 0 0 0-.1.1zm-2.3.3c-.1.1-.1.2-.2.3.1-.1.1-.1.2-.1V31zm5.9-1.4h.2c.1 0 .1.1.2.1h.2c.3-.1.7-.2 1-.5.3-.2.5-.4.7-.7.2-.3.2-.5.2-.8v-.2c-.1 0-.1.1-.2.1s-.2.1-.3 0c-.1 0-.1-.1-.1-.2s0-.1-.1-.2v.1c0 .1 0 .3-.1.4h.1s.1 0 .2.1c.2.2.1.5 0 .7-.1.1-.2.2-.4.3-.1 0-.1.1-.2.1-.2.1-.3.2-.5.3-.2.1-.5.1-.7.1h-.4v.1c.1.2.2.2.2.2zm-.4.1zm3.4-2.1c.2 0 .3-.1.4-.2l.1-.1-.2.2c-.1.1-.2.1-.3.1zm-.4-.1h.1c0 .1 0 0-.1 0 .1 0 .1 0 0 0 .1 0 0 0 0 0zM18 27z"/><path d="m14.2 31.6.4-1s0-.1.1-.2c0-.1.1-.2.2-.4 0-.1.1-.1.1-.1h.2c.2.1.3.1.5.1.2-.1.5-.2.7-.3.1 0 .1-.1.2-.1.1-.1.2-.1.3 0 .1 0 .1.1.2.1l.6.3-.5.1c-.2 0-.3 0-.4-.1-.2.2-.4.3-.7.4-.2.1-.6.2-.9 0 0 .1-.1.3-.2.4l-.8.8zM11.7 32.4c-.3 0-.6-.2-.7-.4-.1-.1-.2-.3-.3-.5-.3.2-.6.3-1 .3h-.1l-.5-.2.5-.1H9.9c.3 0 .5-.1.7-.3 0 0 .1-.1.2-.1s.1.2.2.2c.1.4.3.6.7.7h.1l.6.3-.7.1z"/><path d="M14 30.6h-.5l.4-.3c.1 0 .2-.1.2-.1h.1c.3-.1.6-.2.9-.5l.1-.1s.1-.1.2-.1l.3-.2-.1.4c0 .1-.1.2-.2.3-.1 0-.1.1-.2.1l-.1.1c-.1 0-.1.1-.2.1h-.2c-.3.2-.5.3-.7.3z"/><path d="M15.4 30v-.2l-.3.2.2-.4s0-.1.1-.1c.1-.1.1-.2.1-.2 0-.1 0-.1.1-.2 0 0 .1-.1.2 0 .1 0 .2.1.2.2 0 .2 0 .3-.1.4 0 0 0 .1-.1.1l-.4.2zM17.7 28.6h-.4l.2-.2c0-.1 0-.1.1-.2 0 0 .1 0 .1-.1s.1-.1.2-.1l.3-.1v.2l.5-.2-.5.5c-.1.1-.2.2-.5.2.1 0 .1 0 0 0z"/></g><g fill="#010101"><path d="M19.8 24.2c-.2 0-.4-.1-.5-.2-.1-.1-.2-.2-.3-.2 0 0-.1 0-.1-.1-.1 0-.1-.1-.1-.2 0 0 0-.1-.1-.1-.2-.2-.3-.4-.3-.7v-.2h-.2c-.3 0-.6-.1-.7-.4 0-.1-.1-.2-.1-.3v-.2s0-.1.1-.2l-.1-.1c-.1-.1-.2-.2-.2-.3l-.2.2c-.3.1-.5 0-.7-.1-.2-.1-.4-.2-.5-.4-.2-.3-.2-.5-.1-.8v-.1H15.4c-.3-.1-.5-.2-.7-.4l-.1-.1c-.2-.1-.4-.3-.5-.5-.2-.2-.2-.5-.1-.8 0-.1.1-.2.2-.3.2-.2.3-.3.5-.3s.4.1.6.2c0 0 .1 0 .1.1 0 0 0-.1.1-.1.1-.1.1-.2.2-.3 0 0-.1 0-.1-.1-.1-.1-.1-.2 0-.3v-.1c.1-.1.2-.3.3-.4l-.2-.2c-.2-.2-.3-.5-.3-.7v-.4c0-.2.1-.4.2-.5.2-.3.4-.5.7-.4.1 0 .1.1.2.1v-.1l.1.1c.1 0 .1.1.1.2v.2h.3c.1.1.3.2.4.3.2.2.2.5.2.7v.2c.2 0 .3.1.4.2l.1.1.2.2.1.1c.1.1 0 .2 0 .3l-.1.1c.2.1.3.2.3.4.1.2.2.4.2.7 0 .2-.1.3-.1.4h.3c.2 0 .3.1.4.2 0 0 .1 0 .1.1.2.1.4.3.6.5.1.1.1.1.1.2v.1c.1.1 0 .2 0 .3h-.1c.1.1.2.3.2.4 0 0 .1-.1.2-.1s.2 0 .2.1c.2.1.4.3.5.6.1.3.1.6 0 .9-.1.2-.2.3-.4.4-.1 0-.1.1-.2 0 0 0 0 .1.1.1v-.1c.1-.1.2-.1.3-.1h.1c.2 0 .4.2.5.4.1.1.1.3.1.4v.4l.1-.1c.1-.1.1-.1.2-.1l.1.1H22c-.2.4-.5.7-.8.8-.2.1-.3 0-.5-.1-.1.1-.2.2-.3.2-.2.1-.4.2-.6.2zm-1.3-1.9s.1 0 .1.1c.1.1 0 .1 0 .2v.2c0 .2.1.4.2.5l.1.1s0 .1.1.1c0 0 .1 0 .1.1.1.1.2.2.3.2.3.2.6.2.9 0 .1-.1.2-.1.2-.2.1-.2.2-.2.4-.1.1.1.2.1.3 0h.1v-.2c.1-.2.1-.4.1-.7 0-.1 0-.2-.1-.3-.1-.1-.2-.2-.3-.2h-.2v.3c-.1.1-.1.2-.2.2l-.1.1-.1.3v-.9c-.1-.2-.2-.4-.4-.6-.1-.1-.2-.2-.4-.2l-.3-.1.3-.1c.1 0 .2-.1.3-.1.2 0 .3 0 .4.2l.3.3.1.1.3-.3c.1-.2.1-.4 0-.6-.1-.2-.2-.4-.4-.5h-.1v.2s0 .2-.1.2c0 0-.1 0-.2-.2v-.1c0-.1 0-.1-.1-.2 0-.1-.1-.3-.2-.4-.1-.2-.3-.3-.5-.4 0 0-.1 0-.1-.1L19 19l.3-.1h.2c.1 0 .2.1.2.1l-.4-.4s-.1 0-.1-.1c-.1-.1-.2-.1-.3-.2-.2 0-.3 0-.4.1v.2s-.1 0-.1.1l-.2.2c0 .1-.1.1-.2.2l-.2.2V19c0-.2.1-.4.2-.5v-.1s0-.1.1-.1c-.1-.2-.2-.4-.4-.5-.1-.1-.1-.2-.1-.2v-.1H17.9s.1 0 .1.1c.1.1.2.1.3.2 0-.1.1-.2.1-.3 0-.2 0-.3-.1-.5s-.3-.3-.5-.4c-.1 0-.1 0-.2-.1h-.1v-.1c0-.1.1-.1.1-.1.1-.1.2-.1.3-.1 0-.1-.1-.1-.1-.2l-.1-.1c-.1-.1-.2-.1-.3-.1-.1 0-.1 0-.2-.1s0-.2 0-.2V15.2c0-.2 0-.4-.1-.5-.1-.1-.2-.2-.3-.2-.1-.1-.1 0-.2 0-.1.1-.2 0-.2 0h-.3s-.1.1-.2.1h-.1v-.1c0-.1 0-.2.1-.2 0-.1.1-.1.2-.1h-.2v.1h-.1l-.1.1c-.1.1-.1.2-.2.4v.4c.1.2.1.4.3.6.1.1.1.2.2.2s.1.1.1.1 0 .1-.1.2-.2.3-.3.5v.1h.1s.1-.1.2-.1c.2 0 .4.1.6.2l.4.2h-.5c-.2 0-.3 0-.5.1l-.3.3c-.1.1-.1.2-.1.3v.2l-.2.1c-.1-.2-.1-.3-.2-.5v-.1c-.2-.1-.3-.1-.4-.1-.1 0-.2.1-.4.2-.1.1-.1.2-.2.2-.1.2 0 .3.1.5s.3.3.5.5l.1.1.6.3H15.8s.1 0 .2.1v.4c-.1.2-.1.3.1.5.1.2.3.3.4.4.1.3.3.3.5.3-.2-.3-.2-.5-.2-.8 0 0 0-.1.1-.2l.1-.1v.5c.1.3.3.6.5.8l.3.3c.1 0 .1.1.2.1h.2l-.1.2c0 .1-.1.1-.2.1-.2 0-.3 0-.5-.1V22.1c.1.2.3.3.5.3h.2c.3-.1.3-.1.4-.1zm2.5-.2zm-.1 0zm0 0zm-.4-2zm-2.3-1.9c0 .1.1.1.1.2.1-.1 0-.1-.1-.2.1 0 0 0 0 0zm-2-3.7z"/><path d="M21.3 23.8c-.1 0-.1 0-.1-.1 0 0-.1-.1 0-.3v-.2c0-.1.1-.2.1-.3 0-.2 0-.3-.1-.5-.1-.1-.1-.2-.2-.2h-.2c0 .1 0 .3-.1.4-.1.1-.2.2-.2.3l-.1.1c-.1.1-.2.1-.2 0 0 0-.1-.1 0-.3.1-.1.1-.3 0-.5-.1-.3-.4-.5-.6-.7-.1 0-.1-.1-.2-.1s-.1-.1-.1-.2c0 0 0-.1.1-.2.1 0 .2-.1.3-.1.2 0 .4.1.5.3 0 .1.1.1.2.2l.1.1.1-.1c0-.1.1-.1.1-.1v-.1c.1-.2.1-.4 0-.5-.1-.2-.2-.4-.4-.5 0 .1 0 .2-.1.3 0 0-.1.1-.2.1s-.2-.1-.2-.1c0-.1-.1-.2-.1-.3 0-.1 0-.1-.1-.2-.1-.2-.2-.4-.3-.5-.2-.2-.3-.3-.5-.4.2.1.3-.1.3-.1s.1-.1.2-.1h.2l-.3-.3c-.1-.1-.3-.2-.4-.2h-.1.1l-.1.2-.1.1c-.2 0-.3.1-.4.3 0 .1-.1.1-.1.1l-.1.1c0 .1-.1.1-.2.1 0 0-.1-.1-.1-.2 0-.2.1-.4.2-.6l.1-.1s0-.1-.1-.1c-.1-.2-.2-.3-.4-.4-.1-.1-.1-.2-.1-.2s0-.1.1-.1h.3s.1 0 .1.1c.1 0 .2.1.3.2 0-.1.1-.2.1-.4s-.1-.3-.2-.5c-.1-.1-.3-.2-.4-.2h-.1c-.1 0-.2 0-.2-.1 0 0-.1-.1 0-.2s.2-.2.4-.2c-.1-.1-.2-.2-.2-.3-.1 0-.1-.1-.2-.1l-.1.1v-.1c-.1.1-.2 0-.2 0v-.2c0-.1.1-.2.1-.3 0-.3 0-.4-.2-.5l-.1-.1c-.1-.1-.1-.1-.2-.1h-.1l-.1.1h-.1c-.1-.1-.3 0-.4.1 0 .1 0 .2-.1.1 0 0-.1-.1-.1-.2s.1-.2.2-.3c0 0-.1 0-.2.1s-.2 0-.2 0-.1-.1 0-.2.2-.2.4-.2c.1 0 .3 0 .4.1 0-.1.1-.3.1-.3.1-.2.3-.3.4-.3h.1v.1c.4 0 .7.1.9.3.1.1.1.2.2.3 0 .1 0 .2-.1.2.1 0 .1.1.2.1l.2.2v.2c.2-.2.4-.2.6-.1l.3.3.2.2c.1.1.2.3.3.5.1.2.1.3.1.5h.2c.1 0 .2.1.3.2.2.2.3.5.3.8v.2c.1.1.1.2.2.3.1.1.1.2.2.3 0 .1.1.1.1.2s.1.2.1.2v.2l-.1.1c.1 0 .2.1.2.2 0-.1.1-.1.1-.2.2-.2.5-.2.7 0 .4.2.6.7.6 1.1 0 .4-.2.7-.5.9l-.1.1h.1c.2.1.5.4.6.8 0 .1 0 .2-.1.3-.1.3-.3.5-.5.5-.1 0-.2.1-.2.2s0 .1-.1.1l-.2.2c-.1.2-.2.3-.4.4 0 .1 0 .2-.1.2zm-.4-1.9s.1 0 0 0H21.2c.2 0 .3.2.4.4.1.2.1.4.1.6 0 .1 0 .2-.1.4 0 0 0-.1.1-.1.1-.1.1-.2.2-.2v-.1c.1-.2.2-.3.4-.3s.3-.2.4-.4V22c0-.3-.2-.5-.5-.6-.1 0-.2-.1-.2-.1H21.7l.1-.2c0-.1.1-.1.1-.1.1-.1.2-.1.3-.2.2-.2.4-.4.4-.7 0-.3-.1-.7-.4-.9-.2-.1-.3-.1-.5 0 .1.2.2.4.1.7l-.2-.1v-.2c0-.1-.1-.2-.2-.3l-.1-.1c-.1-.1-.2-.2-.4-.2h-.4c-.1 0-.2-.1-.2-.1 0-.1 0-.1.1-.2s.3-.1.5-.1h.2v-.1c0-.1-.1-.1-.1-.2s-.1-.2-.2-.2c-.1-.1-.2-.2-.3-.4l-.1-.1H20.1v-.3h.5c0-.2-.1-.4-.2-.5-.1-.1-.1-.1-.2-.1-.1.1-.1.2-.2.3l-.4.5.2-.6c.1-.2.1-.5 0-.8-.1-.2-.1-.3-.3-.4l-.2-.2-.3-.3c-.1-.1-.2-.1-.3 0l.1.1.1.1.2.2.1.4-.3-.3h-.1s-.1-.1-.2-.1c-.1-.1-.2-.1-.4-.1-.1 0-.3.1-.4.2l-.2.2s.1 0 .1.1l.3.3.1.1s0 .1.1.1c.1.1 0 .2 0 .2s-.1.1-.2 0h-.2c.2 0 .3.1.4.3.2.2.3.4.3.6 0 .2 0 .4-.1.5 0 .1-.1.1-.1.2h-.2c-.1-.1-.2-.1-.3-.1.1.1.1.2.2.2.1.1.1.1.1.2v-.1c.1-.1.3-.2.4-.2.2 0 .3.1.5.2.2.2.5.4.7.6l.1.1s.1.1.1.2c0 0 0 .1-.1.1h-.1c.1.1.2.3.3.5 0 .1 0 .1.1.2v.1c-.1-.1 0-.2 0-.2.1-.1.2 0 .2 0 .2.1.4.3.6.6.1.3.1.5 0 .8 0 .1-.1.1-.1.1v.1c0 .1-.1.2-.2.2-.1.1-.2.1-.2 0l-.1-.1c-.1-.1-.2-.1-.2-.3-.1-.2-.2-.2-.3-.2.3.2.6.4.7.8 0 .1.1.3.1.4v-.4c.2-.2.2-.2.3-.2zm0 .2zm0 0zm-.8-2.9zm-.8-.3zm-.9-.9zm.1 0zm-.8-1.1zm-.2-1.1c.1 0 .1 0 0 0l.2-.3c0-.1.1-.2.1-.2l.3-.3-.1-.1c-.2-.1-.3-.3-.5-.3l-.5-.1.5-.2c.1 0 .2-.1.3 0 0 0 0-.1-.1-.1-.2-.2-.5-.3-.9-.2v-.1c-.1 0-.1.1-.2.2s-.1.1-.1.2v.1c0 .1 0 .2-.1.2h.1c.1-.1.2-.1.3-.1.1 0 .2.1.3.2 0 0 .1 0 .1.1.3.2.3.5.3.8v.2zm.9-.6s-.1 0 0 0l-.1.1c0-.1 0-.1.1-.1zm-2.6-.4zm.5-.3s0 .1 0 0c0 .1.1.1 0 0 .1.1.1.1 0 0zm.1-.1zm1.5-.1zm-1.1-.6z"/><path d="M19.5 24.6h-.2c-.1 0-.2-.1-.3-.1l-.3-.3v-.1s0-.1-.1-.1c-.1-.1-.2-.2-.2-.4 0 0 0-.1-.1-.2-.2.2-.5.2-.9.2-.2 0-.4-.1-.6-.3-.1-.1-.2-.1-.2-.2-.3-.2-.4-.5-.5-.7-.1-.3-.1-.6.1-.8 0 0 0-.1.1-.1 0 0 0-.1.1-.1-.2-.1-.3-.1-.4-.2-.2-.1-.3-.2-.4-.4-.1-.1-.1-.3-.1-.5 0-.1 0-.2.1-.3h-.1c-.1 0-.3-.1-.4-.2-.2-.1-.4-.2-.6-.4-.2-.2-.4-.4-.5-.6-.1-.1-.1-.3-.1-.4 0-.1 0-.3-.1-.4 0-.4.1-.7.4-1 .2-.2.4-.2.6 0h.1v-.2c0-.1.1-.3.2-.4.1-.2.3-.2.5-.2v-.1c-.1-.3-.1-.7 0-1l.1-.4.1.4V15.4c.1.4.2.6.4.8h.2c.1 0 .1.1.1.2 0 0 0 .1-.1.2s-.2.3-.3.4h.1c.3 0 .5.1.7.3.1.1.1.1 0 .2 0 .1-.1.1-.2.1h-.1c-.3-.1-.5 0-.6.2l-.1.1-.1.1c-.1.1-.1.2 0 .3v.1s0 .1.1.1c.1.1.1.2 0 .2 0 0-.1.1-.2 0l-.2-.2c-.1-.1-.1-.3-.2-.4l-.1-.1c-.2-.1-.4 0-.5 0-.2.1-.3.3-.3.5 0 .1 0 .2.1.3l.4.4.1.1c.1.1.3.2.4.3.2.1.5.2.7.2.1 0 .1 0 .2.1V20.2c0 .1 0 .1-.1.2v.3c.1.3.3.5.7.6h.3c-.1-.2-.2-.4-.2-.7 0-.1 0-.3.1-.4.1-.1.1-.1.2-.1 0 0 .1 0 .1.2s.1.3.1.5c.1.3.3.5.5.8.2.2.3.2.5.2.1 0 .2.1.2.1s0 .1-.1.2c-.2.1-.4.1-.6 0v.2s0 .1.1.2c.2.1.4.2.5.1h.2c.1-.1.1-.1.2 0s.1.1 0 .2c-.1.2-.1.4.1.6.1.2.3.4.4.5.1.1.3.2.5.2s.3 0 .5-.1c.1-.1.2-.1.3-.2 0-.1.1-.1.1-.1s.1 0 .1.1l.1.1.4.4-.5-.2h-.1s0 .1-.1.1c-.1.2-.3.4-.5.5-.4-.2-.6-.1-.8-.1zm-1.3-1.5s.1 0 0 0c.1 0 .1.1.2.2 0 .1 0 .1.1.2 0 .1.1.2.2.3l.1.1v.1l.3.3h.1c.1.1.2.1.2.1.2.1.4 0 .7-.2l.1-.1h-.4c-.2 0-.4-.2-.5-.3-.2-.1-.4-.3-.5-.6-.1-.2-.2-.4-.2-.7h-.1c-.3.1-.5 0-.7-.1-.2-.1-.2-.3-.2-.4v-.3s0-.1.1-.2h.1c-.3-.3-.5-.6-.6-.9 0 .1.1.2.1.3 0 0 .1.1 0 .2 0 .1-.1.1-.2.1h-.4c-.4-.1-.7-.4-.8-.7-.1-.2-.1-.3 0-.5 0-.1 0-.1.1-.2-.2 0-.5-.1-.7-.2-.2-.1-.3-.2-.4-.3l-.1-.1c-.1-.1-.3-.2-.4-.4-.1-.1-.2-.3-.2-.5 0-.3.2-.5.4-.7.2-.2.5-.2.7 0 .1 0 .2.1.2.2 0 0 0-.1.1-.1 0-.1.1-.1.1-.2l.1-.1c.1-.1.2-.2.4-.2h-.1s-.1 0-.1.1c0 0-.1 0-.2-.1s-.1-.2 0-.3c0 0 0-.1.1-.1.1-.1.2-.3.3-.4 0 0-.1 0-.1-.1-.1-.1-.2-.3-.3-.4 0 .1 0 .2.1.2.1.1 0 .2 0 .2s-.1.1-.2 0-.3 0-.4.1c-.1.1-.1.2-.2.3l.1.1v.2H14.9c-.1 0-.1-.1-.2-.1-.1-.1-.3-.1-.4 0-.2.2-.3.4-.3.7 0 .1 0 .3.1.4 0 .1.1.3.1.4.1.2.2.4.4.5.2.1.4.2.5.3.1.1.2.1.4.2.1 0 .1 0 .2.1.1 0 .1.1.1.2s0 .1-.1.2-.1.1-.1.2 0 .2.1.3l.3.3c.2.1.3.2.5.2.1 0 .1.1.1.1s0 .1-.1.2c0 0-.1.1-.1.2 0 0 0 .1-.1.1-.1.2-.1.3 0 .6.1.2.2.4.4.6l.2.2c.2.1.4.2.6.2.3.1.5 0 .7-.2-.1.2 0 .2 0 .2zM22.8 22.1c-.1 0-.1 0 0 0-.1 0-.1 0-.1-.2 0-.3-.2-.4-.4-.6-.1-.1-.3-.1-.4-.1-.1 0-.2-.1-.2-.1 0-.1 0-.1.1-.2s.2-.1.2-.2c.3-.2.5-.4.5-.7.1-.3-.1-.8-.4-.9-.1-.1-.2-.1-.3-.1-.1 0-.1 0-.2.1.1.2.2.4.1.7 0 .1-.1.3-.2.2 0 0-.1 0-.1-.1V19.6c-.1-.1-.2-.3-.3-.4-.1-.2-.3-.2-.6-.2h-.1c-.1 0-.1-.1-.2-.1 0-.1 0-.1.1-.2.2-.2.4-.2.6-.2h.1c-.1-.2-.2-.4-.4-.6-.1-.1-.2-.3-.4-.3-.1 0-.1-.1-.1-.1v-.1c0-.1.1-.1.2-.1h.1c-.1-.2-.2-.4-.3-.5-.1.1-.2.2-.3.4l-.1.1v-.5c.1-.2.1-.4 0-.6 0-.1-.1-.3-.2-.4l-.3-.3-.1-.1c-.1-.1-.1-.2-.2-.2h-.2l.2.1c.1.1.1.1.2.3.1.1 0 .2 0 .2s-.1.1-.2 0c-.1 0-.1-.1-.2-.1-.2-.1-.3-.1-.5-.1-.1 0-.2.1-.3.2-.1.1-.2 0-.2 0s-.1-.1 0-.2c0-.1.1-.2.2-.3.1-.1.1-.2.2-.3-.1-.1-.2-.2-.4-.3-.1-.1-.2-.1-.2-.1l-.3.1.2-.3c.1-.1.2-.2.4-.2-.3-.2-.5-.3-.8-.2H16.7l-.3.1.2-.3c0-.1.1-.1.1-.1h.1c.4-.2.7-.1 1 .1.3.2.4.4.4.7.2-.1.4-.1.7 0 .2.1.5.3.7.5.2.2.4.5.6.8 0 .1.1.2.1.3v.3c.1.1.3.2.4.4.1.2.3.4.3.6v.3c.1 0 .2 0 .3.1.4.1.7.3 1 .6.4.4.6.9.7 1.5v.1c0 .2 0 .4-.1.6-.1.2-.2.3-.4.4.2.2.4.5.4.9v.2h-.1zm-.7-1.1c.1 0 .2.1.2.1 0-.1-.1-.1-.2-.1.1-.1.1 0 0 0zm-.2-2.2c.1 0 .3.1.4.1l.3.3c-.1-.3-.3-.6-.5-.8-.3-.2-.5-.4-.9-.5-.1 0-.2 0-.3-.1.1.2.2.3.3.5v.4s-.1.1-.2 0h-.2c.2 0 .4.1.5.2.1 0 .1.1.1.1s0-.1.1-.1.2-.1.4-.1zm-3.1-3.9c.1 0 .1 0 .2.1s.2.2.3.2l.1.1.3.3c.1.2.2.4.2.5v.3s0-.1.1-.1c0-.1-.1-.1 0-.2V15.8c-.1-.3-.3-.5-.5-.7-.2-.2-.4-.4-.6-.4-.2-.1-.4-.1-.6 0 0 0-.1.1-.1 0l.1.1s.1.1.1.2-.1.1-.2.2l-.1.1h.4V15c0-.1.2-.1.3-.1zm-.8-.4s0 .1 0 0 0-.1 0 0zm-.3-.6c.1 0 .1.1.2.1s.1.1.1.2c0-.1-.1-.2-.3-.3.1 0 .1 0 0 0z"/><path d="m22 18-.8-.1h-.4c-.1 0-.1-.1-.1-.1V17.2c-.1-.2-.2-.3-.4-.5l-.1-.1c-.2-.2-.2-.3-.2-.4V16l.1-.5.2.4v.3c.2.1.3.3.5.5.1.2.2.4.2.8.1 0 .2 0 .3.1l.7.4zM22.9 22.3l-.2-.4V21.6c-.1-.2-.2-.4-.3-.5 0 0-.1-.1-.1-.2s.1-.2.1-.2c.3-.2.4-.4.4-.7v-.1l.1-.6.1.6c.1.3 0 .5-.1.7l-.3.3c.2.2.3.5.4.8v.1l-.1.5z"/><path d="m21.3 18.8-.3-.3c-.1-.1-.1-.1-.1-.2v-.1c-.1-.2-.3-.4-.5-.7l-.1-.1-.3-.2h.3c.1 0 .2.1.2.1l.1.1.1.1s.1.1.1.2v.2c.1.1.2.3.2.5l.3.4z"/><path d="m20.6 17.6-.3-.1h-.4l-.1-.1c0-.1 0-.1.1-.2s.2 0 .3 0h.1l.2.1-.1.1.2.2zM19.2 16l-.2-.1s-.1 0-.2-.1l-.1-.1-.1-.1-.1-.2h.2l-.3-.4.5.3c.1.1.2.2.2.3v.2l.1.2z"/></g><path fill="none" d="M0 0h45v45H0z"/><path fill="none" d="M4.5 4.5h36V18h-36z"/><path fill="#010101" d="M7.3 11.6 5.6 4.9h1.5c.7 3.1.9 4.4 1 5.2.3-1.3.9-3.6 1.3-5.2h1.3c.3 1.3 1 3.9 1.2 5.1.2-1.5.9-4.1 1.1-5.1h1.4l-1.8 6.7h-1.5c-.4-1.5-.9-3.6-1.2-4.8-.1 1.2-.8 3.4-1.1 4.8H7.3zM16.8 8.9v2.7h-1.4V4.9h2.9c1.5 0 2.2.8 2.2 1.8 0 .9-.5 1.4-1 1.6.3.1.8.5.8 1.7v.3c0 .5 0 1 .1 1.3H19V10c0-.7-.2-1.1-1.3-1.1h-.9zm0-1.1H18c.8 0 1.1-.3 1.1-.9 0-.6-.4-.9-1.1-.9h-1.2v1.8zM26.5 8.7h-3.2v1.7h3.5l-.2 1.2h-4.8V4.9h4.8v1.2h-3.3v1.4h3.2v1.2zM33.6 9.5c-.3 1.2-1.2 2.2-2.9 2.2-2.1 0-3.1-1.5-3.1-3.4 0-1.8 1-3.5 3.2-3.5 1.8 0 2.6 1 2.8 2.2h-1.4c-.1-.5-.5-1-1.4-1-1.2 0-1.7 1.1-1.7 2.3 0 1.1.4 2.3 1.7 2.3.9 0 1.2-.6 1.4-1h1.4zM34.7 4.9h1.4v3c.4-.5 1.8-2 2.7-3h1.7l-2.7 2.8 2.8 3.9h-1.7l-2.1-3-.7.7v2.3h-1.4V4.9z"/><path fill="none" d="M27 27h13.5v13.5H27z"/><g fill="#010101"><path d="M32.2 38.9c.1.6.5.8 1.2.8.6 0 .9-.3.9-.7 0-.5-.3-.7-1.2-.9-1.5-.4-1.9-.9-1.9-1.7 0-1 .7-1.6 2.1-1.6 1.5 0 2.1.8 2.2 1.6h-1.2c-.1-.3-.2-.7-1-.7-.5 0-.8.2-.8.6 0 .4.2.5 1.1.8 1.6.4 2 1 2 1.8 0 1-.8 1.7-2.2 1.7-1.4 0-2.2-.7-2.3-1.7h1.1zM39.7 35.2v.8c-.8 1.2-1.7 2.9-1.9 4.5h-1.2c.2-1.6 1.2-3.4 1.9-4.4H36v-1h3.7z"/></g></svg>