<svg version="1.2" baseProfile="tiny" xmlns="http://www.w3.org/2000/svg" viewBox="0 0 45 45" overflow="visible" xml:space="preserve"><path fill="none" d="M0-45h45V0H0z"/><path d="M29 11.4h.9c.1 0 .2.1.3.1.7.7 1.5 1.4 2.2 2.1.4.4.7.8 1.1 1.1.1.1.1.2.1.3v1.2c0 .1 0 .2-.1.3l-.9.9c-.1.1-.2.1-.3 0l-.8-.8c-.1-.1-.1-.2-.2-.1s0 .2.1.2c.1.1.1.2.1.3 0 .1-.2 0-.3.1.2.1.3.3.6.2.1 0 .2 0 .3.1l.3.3.1.1c-.1.3 0 .6-.3.8-.2.2-.4.3-.5.5-.4.5-.9.9-1.3 1.3-.4.5-.9.9-1.4 1.4-1 1.1-2.1 2.2-3.2 3.2-.1.1-.2.3-.1.5s0 .4-.2.5L22 29.5l-3.8 3.8c-.2.2-.3.2-.5 0 0-.1-.1-.2-.2-.1-.3.1-.3-.1-.5-.3l-1.2-1.2c-.3-.3-.4-.6-.7-.9-.1-.1-.2-.2-.3 0-.1.1-.1.1-.2 0-.1 0-.2 0-.3.1-.2.2-.3.1-.3.1 0-.2-.1-.3-.2-.4 0-.1-.1-.1 0-.2.1-.2-.1-.3 0-.5 0-.1-.1-.1-.3-.2 0 .1.1.2.1.3-.1 0-.2-.1-.2-.1-.2-.4-.5-.6-.8-.9-.2-.3-.5-.5-.8-.7-.2-.1-.2-.2-.2-.4 0-.1-.2-.2-.2-.3-.1-.1-.1-.1 0-.2l1.9-1.9c.6-.6 1.1-1.2 1.7-1.8l.8-.8c.1-.1.1-.2 0-.3l-.5-.5c-.1-.1-.1-.1 0-.2s.2 0 .2 0l.5.5c.1.1.2.1.3 0l2.4-2.4c.2-.2.4-.3.7-.2.1.1.3 0 .4-.1l4.5-4.5.9-.9c.3-.4.8-.7 1.1-1.1.2-.2.5-.2.8-.4.1-.1.2.1.3.2.1.1.4.2.2.5 0 .1.1.3.2.4h.1v-.1c0-.1-.1-.2.1-.2.1 0 .2 0 .2.1l.1.1c.1.1.1.1.2.1.1-.1 0-.2-.1-.2l-.8-.8c-.2-.2-.2-.3 0-.5.3-.3.6-.5.8-.8.2-.3.4-.2.6-.2 0 .1-.1.1-.2.1s-.2 0-.2.1l-.9.9c-.1.1 0 .1 0 .2l.8.8s.1.1.2.1c.1-.1 0-.2-.1-.2l-.7-.7c-.1-.1-.1-.1 0-.2l.5-.5c.1-.1.1-.2.1-.3.2.1.4-.1.5.1l.7.7c.1-.2 0-.4.1-.5l.1-.1c0-.1-.1-.1-.2-.1h-.8c.1-.1.3 0 .5-.1h.4c.1 0 .1-.1.2-.1 0-.1-.1-.1-.1-.1-.2 0-.3-.1-.5 0-.1-.1-.1-.1-.2-.1 0 0-.1.1-.2 0zm-7.2 12.8c.1.1.1.4.3.5-.1-.3-.2-.5-.4-.7v-.3c.1 0 .1.1.1.2 0 .2 0 .4.2.4.1 0 .2-.2.3-.3.1-.1.1-.1.2 0s.1.2.2.1.2-.2.3-.4c0-.1-.1-.1-.1-.1-.1.1-.3 0-.3.1-.1.1-.2.1-.3 0l-.4-.4c-.1-.1-.1-.1-.1 0-.1-.2 0-.4.1-.6l.3-.6-.2.2c-.2.3-.2.7-.3 1V23c0-.1 0-.1-.1-.1s-.1.1-.1.1v.1l-.1-.1c0-.2.2-.5 0-.7 0-.1-.1-.2-.2-.2s-.1.1-.2.1c-.1.1 0 .1.1.2 0 .1.2.1 0 .2-.4.3-.7.7-1.1 1.1-.1.1-.1.2 0 .3.3.3.7.6 1 1 .1.1.1.2.2.1s.2-.1.2-.3c0-.1-.1-.2 0-.2.2-.1.1-.3.1-.4 0-.1-.1-.2-.1-.4l.1-.1c.1.2.1.5.3.7.1-.1-.1-.2 0-.2zm11.5-8.3v.3s0 .1.1.1c0 0 .1 0 .1-.1s.1-.3-.1-.4c.1-.1.1-.3 0-.4.1-.3 0-.6-.3-.9l-2-2c-.3-.3-.6-.6-1-.9-.1.2 0 .4-.1.6.1-.1.2-.2.3-.1.8.8 1.7 1.5 2.4 2.4.1.1.2.2.3.2.1 0 .2.1.1.1-.2.1 0 .3-.1.4.2-.2.2-.2 0-.1-.1-.2-.1-.2.1-.3-.2-.1-.4 0-.4.2 0 .1.2 0 .3.1h.1c-.1.1-.3 0-.4.1l.6.6c0-.1.1-.1.1-.2-.1.2-.1.2-.1.3zm-10.7 4.2c0-.1-.1-.1-.1-.2-.2-.2-.4-.5-.7-.5 0 0-.1-.1-.1 0s0 .2.1.2c.2.4.5.6.9.7 0 .2 0 .3-.2.4l-.6.6c-.1.1-.2.1-.1.2s.2 0 .2-.1l.8-.8c.1-.1.2-.2.2-.3-.1 0-.3.1-.4 0 .1-.1.2 0 .3-.1-.2.1-.1-.2-.3-.1zm2.2 5.4s0 .2.1.1.3-.2.3-.4c-.2 0-.2.2-.4.3 0-.1 0-.1 0 0-.4.3-.7.6-1 .9 0 0-.2.1-.1.2s.2 0 .2 0c.4-.4.8-.7.9-1.1zm-7 7.8c.1-.1.3 0 .4-.1.2-.3.5-.5.7-.8.7-.8 1.5-1.6 2.3-2.4.1-.1.1-.2 0-.3-.1-.1-.2 0-.3.1-.6.6-1.2 1.2-1.9 1.8l-1.5 1.5c.2.1.2.1.3.2h-.3c0 .1.1.2.1.2s.1.1.2 0 .2-.1.2-.2-.1 0-.2 0zm-1-6.8c.3-.3.7-.6.9-.9.1-.1.2-.2 0-.3l-.7-.7c-.1-.1-.1-.1-.2 0-.3.3-.5.6-.8.8-.1.1-.1.2 0 .3l.8.8c-.1.1-.3.1-.2.4.1-.1.3-.2.2-.4zm-5 .7c0-.1-.1-.2-.2-.1-.2.2-.2.3.2.4 0 0-.1-.2 0-.3.1.1 0 .2.1.3 0 0 .1 0 .1-.1.8-.9 1.7-1.7 2.5-2.6l.8-.8c.1-.1.1-.2 0-.3-.1-.2-.2-.1-.3 0l-3 3c-.1.3-.2.4-.2.5zm1.8 2c-.4-.5-.8-.8-1.2-1.3-.2-.2-.2-.3 0-.4l4-4c.1-.1.1-.2 0-.3-.3.3-.6.6-.8.9 0 0 0-.1.1-.1-.1.2-.3.3-.4.4-.6.5-1.1 1.1-1.6 1.6-.3.3-.6.6-.8.9-.1.1-.1.3-.2.3-.3.1-.4.3-.6.4-.1.1-.1.1 0 .2l1.5 1.5c-.1.1 0 .1 0-.1v.3c.3-.2.3-.2.1-.5l-.4-.4c0 .1.1.2.2.2.1.2.2.2.1.4zm9.9-11.4c.1.2.3.3.4.4l2.2 2.2c.1.1.1.2.3.1l-1.7-1.7c.5.5 1.1 1 1.6 1.5.1.1.1.1.2 0s0-.2 0-.2l-2.7-2.7c-.1-.1-.2-.1-.3 0-.1.2.1.2 0 .4.4.2.7.5 1 .8l-1.1-1.1c.1.2.1.2.1.3-.2-.2-.4-.1-.6.1-.1 0-.1.1-.2.1-.1.1-.2.1 0 .2.9.9 1.8 1.7 2.6 2.6.4.4.4.4.8 0 .2-.2.1-.3 0-.4-.1-.1-.2-.2-.4-.3-.1-.1-.2-.2-.3 0 0 .1-.1.1-.2 0-.2-.3-.4-.5-.7-.7 0 0-.1-.1 0-.1.1-.1.1 0 .1.1l.5.5c.1.1.1.2.2.1s0-.1-.1-.2l-1.5-1.5c0-.2-.1-.4-.2-.5zm2.7.1c.1-.1.4-.3.4-.4.1-.3.3-.4.5-.6.3-.2.6-.5.8-.8 0 0 .1-.1.1-.2-.1-.2.1-.3.2-.3s.1 0 .2-.1 0-.1-.1-.2l-.4-.4c-.1-.2-.3-.2-.4-.1-1.1.7-2.2 1.4-3.4 2.1-.1.1-.4.2-.4.3 0 .1.2.3.4.4l1.8 1.8c.1.1.2.2.2.1 0-.3.2-.4.5-.4l.5-.5c.1-.2.5-.3.5-.7 0 0 .1-.2.2-.1.2.1.3-.1.4-.2l.6-.6c.1-.1.2-.2.2-.3 0-.1.1-.3.3-.2.1 0 .1 0 .1-.1s.1-.1 0-.2l-.6-.6c-.1-.1-.1-.1-.2 0-.1 0-.1.1-.1.2.1.2-.1.3-.2.3-.2-.1-.3.1-.4.2l-.6.6c-.1.1-.2.1-.1.3 0 .1-.1.2-.2.2-.2-.1-.2.1-.3.1-.2.1-.3.3-.5.4zm-8 9.5c.1.1.2.3.4.3s.2-.2.3-.3c.4-.3.8-.7 1.1-1.1.1-.1.1-.2 0-.4l-1-1c-.1-.1-.3-.2-.4 0-.4.5-1.1.9-1.4 1.6-.3.1-.4.4-.6.5l-.8.8c-.1.1-.1.2 0 .3l.4.4c.1.2.2.1.4 0l1.3-1.3c-.3.4-.7.8-1.1 1.2-.4.4-.4.3 0 .7.1.1.2.1.3 0l1-1c.4-.3.4-.3.1-.7zm10.4-7.1c-.1 0-.2.2-.2.3-.1.1-.2.1-.3.2v.1c.1.2 0 .2-.2.3-.1 0-.1.1-.1.2s.1.2.2.1.2 0 .3.1c.4.3.4.3.7 0 .1-.1.1-.1.1-.2s.1-.2.2-.2c.2 0 .2-.1.3-.2.5-.5 1-1.1 1.5-1.5l.7-.7c.3-.3.2-.6 0-.9-.2-.2-.4-.3-.6-.4-.2-.1-.4-.1-.6.1-.1.1-.1.1-.1-.1 0-.1-.1-.2-.2-.3-.1 0-.2.1-.2.2 0 .3-.3.4-.3.7 0 .1-.1.1-.1.1-.1 0-.1 0-.1.1-.4.6-.8 1.3-1.2 1.9 0 0-.1.1 0 .1s.1-.1.2 0zm-1.1-6.9c-.2-.2-.3-.4-.6-.4-.2 0-.4-.1-.5.1l-.5.5c-.3.2-.5.6-.8.9-.4.3-.8.8-1.2 1.2-.1.1-.1.3-.2.3-.2 0-.3.2-.4.3-.2.1-.2.2 0 .3.1.1.4.2.3.5h.3c.1 0 .2-.1.3 0 .1 0 0-.2.2-.3.1-.1.2-.1.3-.2.1.1.1.1.2 0 .6-.5 1.5-.7 2-1.4.1-.2.4-.1.6-.3h.1c.1 0 .1 0 .2-.1s0-.1-.1-.2-.2-.1-.3-.1c.3-.4.2-.7-.2-1.1.1-.1.2 0 .3 0zm-.2 6.3.4-.4c.1 0 .1-.2.2-.1s0 .2-.1.2l-.9.9c-.1.1-.1.1 0 .2l.6.6c.1.1.1.1.2 0 .1-.2.3-.4.4-.7.6-1 1.3-2 1.9-3.1.1-.1.1-.2 0-.3-.2-.1-.3-.3-.5-.5-.1-.1-.1-.1-.2-.1s-.1.1-.1.2c.1.2-.1.3-.2.2-.1 0-.2 0-.2.1l-.8.8v.3c0 .1-.1.3-.2.2-.1 0-.2 0-.2.1l-.7.7c-.1.1-.3.2-.2.4 0 0-.1.1-.1 0h-.1c0 .1 0 .1-.1.1h-.2v.1c.4.5.4.5.9.1.1.1.2 0 .2 0zM14.6 30.4l.7.7c.1.1.1.2.3.1.1-.1.2-.2.1-.3-.1-.1 0-.2 0-.3l1.1-1.1c.1-.1.2-.2 0-.4l-1-1c-.1-.1-.2-.1-.3 0l-1 1s-.1.1-.1.2c-.1.2-.1.2-.2.1-.2-.1-.2 0-.3.1-.1.1 0 .2.1.2.1.3.4.5.6.7zm5.9-5.8-.7-.7c-.2-.1-.4-.1-.4.1-.1.3-.2.4-.4.6-.1.1-.1.2 0 .3l1.2 1.2c.1.1.2.1.3 0 .2-.2.3-.4.6-.4.2-.1.2-.2 0-.4-.2-.3-.4-.5-.6-.7zm-1 6.1-.6.6c-.5.5-1 1-1.4 1.5-.1.1-.2.1-.3 0l-.6-.6s-.1-.1-.2-.1c-.2.1-.2 0-.3-.1l-.3-.3c0-.1 0-.1-.1-.1h-.1c0 .1 0 .1.1.1l1.4 1.4s.1.1.2.1c.2-.2.5-.3.5-.6 0-.1.1-.1.1-.1.1.1.2 0 .2-.1l2.2-2.2c.2-.2.5-.4.6-.7l.1-.1c.1 0 .2-.1.2-.1.4-.4.9-.7 1.1-1.2.1-.1.2-.1.3-.2l.9-.9c.1-.1.1-.1 0-.2s-.2 0-.2.1l-.9.9c-.1.1-.4.2-.2.5 0 0 0 .1-.1.1l-.3.3s-.1.1-.2.1c-.1-.1-.2 0-.3.1l-1.8 1.8zm2.6-9.7c.1-.1.2-.3.4-.4.1-.1.1-.2 0-.3-.3-.2-.6-.4-.8-.8-.1-.1-.2-.2-.3 0-.2.3-.5.5-.7.7-.1.1-.1.2 0 .3l.8.8c.1.1.2.1.3 0 0-.1.2-.2.3-.3zm-1.7 5.2-.4.4c-.1.1-.1.2 0 .3l.7.7c.1.1.1 0 .2 0l.5-.5c.5-.5.5-.5 0-1-.5-.4-.5-.4-1 .1zm-.2-3c.1-.2.3-.3.4-.5.1-.1.1-.2 0-.2-.3-.2-.4-.5-.7-.7-.1-.1-.2-.1-.3 0l-.5.5c-.4.4-.4.4 0 .8.5.7.5.7 1.1.1zM18 31c-.1.2-.3.3-.5.5l-.5.5c-.2.2-.2.3 0 .5 0 0 .1.1.1 0 .1-.1 0-.1 0-.2-.3-.3 0-.4.2-.5.1-.2.2 0 .3 0 .2.1.3.3.5.1l1.4-1.4s.1-.1 0-.2-.2-.2-.4-.3c-.1-.1-.2-.1-.3 0-.1.4-.5.7-.8 1zm-2.9-4.5c-.1.2-.3.3-.4.4-.1.1-.1.2 0 .3l.6.6c.1.1.1.1.2 0 .3-.3.6-.5.8-.8.1-.1.1-.2 0-.2l-.6-.6c-.1-.1-.2-.1-.3 0l-.3.3zm3.5 3.4.4-.4c.1-.1.1-.2 0-.3-.2-.2-.4-.4-.7-.6-.1-.1-.1-.1-.2 0l-.6.6c-.3.3-.3.3 0 .6l.1.1c.4.5.4.5.9 0 0 .1 0 0 .1 0zm1.3-1.4c.1-.1.2-.3.4-.4.1-.1.1-.2 0-.3l-.7-.7c-.1-.1-.1 0-.2 0l-.9.9c0 .1-.1.1 0 .2.2.2.4.5.7.7.1.1.2.1.3 0 .2-.1.3-.3.4-.4zM14 27.1l.8-.8c.4-.4.4-.4 0-.8-.1-.1-.2-.1-.3 0l-1.2 1.2c-.2.2-.2.4 0 .6.1.1.2.2.1.3-.4.3-.4.4-.8.2-.1 0-.1 0-.1.1s.2.2.3.3c.1.1.1-.1.2-.1.3-.4.7-.7 1-1zm-.3.9-.3.3c-.1.1-.1.2 0 .3l.6.6c.1.1.1.1.2 0 .3-.3.6-.5.8-.9.1-.1.1-.1 0-.2l-.7-.7c-.1-.1-.1-.1-.2 0-.1.2-.3.4-.4.6zM25 25.7s-.1 0 0 0c-1.3 1.2-2.5 2.4-3.6 3.6-.1.1 0 .2.1.2.1.1.1.1.2 0 1.1-1.1 2.1-2.2 3.2-3.2.2-.1.2-.3.1-.6zm-7.9 5.6.4-.4c.1-.1.1-.2 0-.3l-.6-.6c-.1-.1-.2 0-.2 0-.3.2-.5.5-.8.8-.1.1-.2.2-.1.2.1.1.2.3.4.3.4 0 .4 0 .4.4v.1c.1 0 .1 0 .1-.1.2-.1.3-.2.4-.4zm6.1-8.3.1-.1c.4-.4.4-.3 0-.7-.5-.6-.7-.6-1.2.1-.3.4-.3.4.1.7l.1.1c.4.4.4.4.8 0 .1 0 .1-.1.1-.1zm-5.8.3c.1.2.2.2.3 0l1.7-1.7c.1-.1.2-.1.1-.2-.1-.2-.3-.3-.4-.5 0 0-.1 0-.1.1l-.7.7h.1c.1.1.3.2.2.4 0 .1-.1.2-.2.2-.2.1-.3-.1-.3-.2-.1-.1-.1-.1-.2 0l-.7.7c-.1.1-.1.2 0 .2.2 0 .2.2.3.3 0 .1-.1-.1-.1 0zM29.2 13c.1-.1.1-.1 0 0 .5-.5.5-.5.1-.9-.5-.5-.6-.4-1 0s-.4.4 0 .8c.5.5.5.5.9.1zm-6.7 5.7c0 .1 0 .1 0 0 .4.5.7.8 1.1 1.2 0 0 .1.1.1 0 .1-.1.2 0 .3.1l1.3 1.3c.1.1.2.1.3 0 .1-.1.1-.2 0-.3l-.4-.4-2.5-2.5c-.1-.1-.6 0-.6.2.1.1.3.1.4.2.1.1.1 0 .2-.1s.2-.1.3 0l.6.6c.1.1.2.1.1.3-.1.1-.2.2-.3 0-.4 0-.7-.3-.9-.6zm9.5-3-.3.3c-.1.1-.1.2 0 .2l.6.6c.1.1.2.1.3 0l.6-.6c.1-.1.1-.3 0-.4l-.2-.2c-.5-.3-.5-.3-1 .1zm-14.7 8.4c.1.2.7.8.8.9.1.1.1 0 .2 0 .3-.3.6-.6.8-.9.1-.1.1-.2 0-.2-.2-.2-.5-.4-.7-.7-.1-.1-.2-.1-.3 0-.5.6-.5.4 0 .9.2.2.1.3 0 .4-.1.2-.3.2-.4 0 0-.1-.2-.3-.4-.4zm5.7 3c0-.1-.1-.1-.1-.1-.1-.1-.3-.2-.2-.4 0-.1.1-.2.3-.3.2 0 .2.1.3.2 0 .1 0 .2.1.1.1 0 .2-.1.1-.2l-.3-.3c-.1-.1-.2-.1-.3 0l-1.5 1.5c-.1.1-.2.2-.4.1l.6.6v-.2c-.1-.1-.1-.2 0-.4.1-.1.2-.1.4 0 .1.1.2 0 .3-.1.2 0 .5-.3.7-.5zM19.3 20c-.3 0-.4-.1-.6 0l-2.3 2.3c-.1.1-.1.1 0 .2s.1.2.2.1c.1 0 .1-.1.2-.1.9-.8 1.7-1.6 2.5-2.5zm5.3 3.5c-.1 0-.2-.1-.2-.1s-.1-.1-.2 0-.3.2-.4.2c-.1.1-.1.1 0 .2l.5.5c.1.1.1.1.2 0l.4-.4c.5-.5.5-.5 0-1-.1-.1-.1-.1-.2 0s-.3.2-.3.3c0 0 .2.1.2.3.1-.1.1-.1 0 0zm-2-4-.6-.6c-.1-.1-.2-.1-.3-.1-.4.2-.8.4-1.2.7-.3.2-.6.3-.9.5-.1 0-.2.1-.1.2s.1.1.2 0c.6-.3 1.2-.6 1.8-1 .3-.2.4-.1.6.1.3.4.7.7 1 1 .1.1.1.1.2 0s0-.2 0-.2c-.2-.2-.5-.4-.7-.6zm-.4 5.7-.3-.3c-.1-.1-.2-.1-.2 0-.1.2-.4.3-.3.5.2.3.5.5.8.8.1.1.1 0 .2 0l.2-.2c.3-.3.3-.3 0-.5-.2-.1-.3-.2-.4-.3zm4.8-2.8c.1-.1.2-.3.2-.4.2-.3.2-.4-.1-.6l-.5-.5s-.1-.1-.2 0c0 0-.1.1 0 .1.2.2.3.4.6.5.1 0 .1 0 .1.1s-.1.1-.1.2c-.1 0-.1 0-.1-.1-.1-.2-.3-.3-.4-.5-.1-.1-.1-.2-.2-.1s-.3.2-.1.4c.2.3.5.6.8.9zm-3.8 1.3c-.3.1-.5.3-.6.6-.1.2.2.3.3.4 0 .1.1.1.1.1.1.1.2.1.3 0l.4-.4c.1-.1 0-.2 0-.3-.1-.2-.5.1-.4-.3-.2.2-.1.1-.1-.1zm5.9-10.1c-.1.2-.1.3.1.4l1.8 1.8c.1.1.1.2.3.1.1-.1 0-.2-.1-.3l-1.5-1.5c-.2-.1-.5-.3-.6-.5zm-3.5 9.3c.1.1.2.1.1.3-.2.4-.5.6-.8.9-.1.2-.2.3 0 .4l.1.1c.1.2.2.1.2 0 .2-.4.4-.7.6-1.1.1-.3.1-.4-.2-.6zm-8.6-.4-.2.2c.1.1.2.1.3 0l1.5-1.5c.1-.1.2-.1.1-.2s-.2 0-.2.1l-1.3 1.3-.1.1c0 .1-.1.2-.2.2.1-.1.1-.1.1-.2zm3.3-.3.3.3c.1.1.1.1.2 0 .4-.3.4-.4.1-.7l-.2-.2c-.1-.1-.2-.1-.3 0-.4.2-.4.2-.1.6zm4.3 3.3c-.3.1-.6.2-.9.1-.3 0-.4.2-.5.3-.1.1.1.2.2.3 0 0 .1 0 .1.1.1.1.2.1.3 0 .2-.3.5-.5.8-.8zm-5.9-2.8.9-.9c.1-.1.2-.1.1-.2s-.2 0-.2.1l-1.7 1.7c-.1.1-.2.1-.1.2s.2 0 .2-.1c.3-.3.5-.6.8-.8zm-2 9.3c.9-.8 1.7-1.6 2.5-2.5-.9.7-1.7 1.6-2.5 2.5zm-.2-8.2c.2.3.2.3-.1.6-.1.1-.1.1-.2.1-.4.4-.4.4-.8.2-.2-.1-.2 0-.3.1-.1.1 0 .2.1.2l.2.2c.1.1.2.1.3 0 .3-.4.7-.7 1-1.1.1-.1.1-.2 0-.3-.1.1-.1 0-.2 0zm4.9-4.4c-.1 0-.2 0-.3.1-.3.2-.6.4-.9.5-.4.2-.4.2-.1.5.1.1.2.2.3.1.1-.1.1-.2.1-.3l-.1-.1c.2.1.2.1.3 0 .2-.3.4-.6.7-.8zm-.2 9.1c-.3-.4-.2-.4-.5 0l-.7.7c-.4.4-.4.4 0 .8.1.1.1.2.2.1s.2-.2.1-.3c-.1-.1-.1-.2-.2-.3-.1-.1-.1-.2 0-.3.2-.1.4-.3.5-.5.2-.4.4-.4.6-.2zm.9-1.6.8-.8c.1-.1.1-.1.1-.2-.1-.1-.1 0-.2 0-.5.5-1.1 1-1.6 1.6-.1.1-.1.1 0 .2s.1 0 .2-.1c.2-.2.4-.5.7-.7zm-1.3-8.2c.6-.2 1-.6 1.5-.9.1-.1.1-.2 0-.2s-.2-.3-.3-.1l-1.2 1.2zm3.8 3.3c.2-.2.2-.2-.1-.6-.2-.2-.2-.1-.3 0-.3.3-.4.2-.1.5.3.4.3.4.5.1zm8.8-5.6c-.1-.1-.2 0-.3 0-.2.2-.4.3-.5.5-.1.1-.2.1-.3 0-.2-.2-.4-.4-.7-.6 0 0-.1-.2-.2 0-.1.1 0 .1 0 .2.3.3.6.6.9.8.1.1.1.1.2 0l.9-.9zm-8.3 5-1.2-1.2c-.1 0-.1-.2-.2-.1s0 .2 0 .2l.9.9c.2.2.3.3.5.2zm-.4 3.8-.3-.3c-.3-.3-.3-.3-.6 0-.2.2-.1.3-.1.4 0 .1.2 0 .3 0 .2.1.4 0 .7-.1zm4.8-9.7-.9-.9s-.1-.1-.2-.1c-.1.1 0 .1 0 .2.6.6 1.2 1.2 1.9 1.8 0 0 .1.1.1 0s0-.1-.1-.1c-.1-.3-.5-.6-.8-.9zm.8-2.6c-.3.1-.4.4-.6.6-.1.1-.1.2 0 .2.1.1.1.1.2 0 .2-.1.4-.3.5-.5 0 0 0-.2.1 0 0 .1 0 .1.1 0 .1 0 .1-.1 0-.1l-.3-.3s-.1-.1-.1 0-.2.2-.3.3c.2 0 .2-.2.4-.2zM15.8 23.1c-.1.1-.2.2-.3.4-.1.1-.1.1 0 .2.1 0 .1.2.2.1.3-.2.6-.4.7-.8.1-.1 0-.2-.1-.2-.1-.1-.1 0-.2.1-.2 0-.3.1-.3.2zm-.2 2.8c0-.1 0-.1 0 0-.9.8-1.7 1.6-2.6 2.5l.1.1c.9-.9 1.7-1.8 2.5-2.6zm-1.2 4.5-.3-.3c-.1-.1-.1-.1-.2 0-.1.2 0 .4.1.6.2.2.4.2.6.2.1 0 .2-.1.1-.3-.1-.1-.2-.1-.3-.2zm17.5-16.5-.6-.6s-.1-.1-.2 0 0 .1 0 .2l1.2 1.2c.1.1.1.1.2.1.1-.1 0-.2-.1-.2-.2-.4-.3-.6-.5-.7zm-5.2 9.9c.3-.3.6-.5.8-.8.1-.1-.1-.2-.2-.3 0-.1-.1-.1-.2 0s-.3.3-.3.5c.1.2.1.4-.1.6zm1.3-9.4c.1-.1.1-.1 0 0 .6-.6 1.2-1.1 1.7-1.6 0 0 .1-.1 0-.1-.1-.1-.1 0-.1 0l-.9.9c-.1.2-.3.3-.4.5 0 0-.2.1-.3.3zm-4.7 10.9s0-.1 0 0c-.2-.3-.5-.6-.8-.9-.1-.1-.1-.1-.2 0-.1 0-.1.1 0 .2.2.3.5.6 1 .7zm7.3-8.5c.3 0 .4-.2.5-.4.4-.3.8-.8 1.2-1.2 0 0 .1-.1 0-.1h-.1l-.4.4c-.4.5-.8.9-1.2 1.3zm-2.7-2.1s0 .1 0 0c.8.8 1.5 1.6 2.2 2.3 0 0 .1.1.1 0s0-.1-.1-.1l-2-2c0-.1-.1-.2-.2-.2zm.7-.4c-.1.1 0 .1 0 .2.6.6 1.3 1.2 1.9 1.9 0 0 .1.1.1 0 .1-.1 0-.1 0-.1l-.9-.9c-.4-.4-.7-.8-1.1-1.1zm-4.5 7.1H24c-.1 0-.6 0-.6.1 0 .2.2.2.3.3l.1.1c.4.4.4.4 0 .8l-.1.1.1-.1.3-.3c.1-.1.1-.2 0-.3-.3-.3-.3-.3 0-.7 0 .1 0 .1 0 0zm3-.3.3.3s.1.2.2 0c.1-.1.1-.2 0-.2-.2-.2-.4-.5-.7-.6-.1 0-.1-.1-.1 0-.1.1-.1.1 0 .2.1 0 .2.2.3.3zm-3.7.9c.1.1.2.2.3.4.1.1.1.1.2 0s.1-.1 0-.2l-.6-.6c-.1-.1-.2 0-.3 0-.1.1 0 .1.1.2.1 0 .2.1.3.2zm-3.1 5.3L20 27c-.1-.1-.1 0-.2 0-.1.1-.1.1 0 .2l.5.5c.1.1.1.1.2 0s.1-.1 0-.2c0-.1-.1-.1-.2-.2zm7.9-12.6s0 .1 0 0c.6.7 1.3 1.4 2 2.1-.6-.7-1.3-1.4-2-2.1zm2.5 1.6c.1-.1.1-.1 0 0-.6-.7-1.3-1.4-2-2.1l-.1.1c.8.6 1.5 1.3 2.1 2zm-2.3-1.7c-.1 0-.1 0 0 0 .6.7 1.3 1.4 2 2.1-.7-.8-1.4-1.4-2-2.1zM17.3 30.3c.1.1.2.1.2.2.1.1.1.1.2 0s.1-.1 0-.2l-.5-.5c-.1-.1-.1-.1-.2 0 0 .1 0 .2.1.2.1.1.1.2.2.3zM30.1 15l-.9-.9c-.1 0-.1-.2-.2-.1s0 .2.1.2l.6.6c.1.3.2.3.4.2zm1.2-1.3c-.1-.1-.2-.2-.3-.2-.1 0-.1-.2-.2-.1s0 .2 0 .3l.6.6c.1.1.1 0 .2 0 .1-.1 0-.1 0-.2-.1-.2-.2-.3-.3-.4zM16.4 26.2l-.3-.3c-.1-.1-.1-.1-.2 0s-.1.1 0 .2l.5.5c.1.1.1 0 .2 0 .1-.1.1-.1 0-.2s-.1-.2-.2-.2zm2.8-2.8-.3-.3c-.1-.1-.1 0-.2 0 0 .1-.1.1 0 .2l.5.5c.1.1.1.1.2 0s.1-.1 0-.2l-.2-.2zM15 27.6l-.3-.3c-.1-.1-.1-.1-.2 0s-.1.1 0 .2l.5.5c.1.1.1.1.2 0s.1-.2 0-.2c-.1-.1-.1-.2-.2-.2zm9.4-5-.2.2c0 .1-.1.1 0 .2s.1 0 .2 0l.3-.3.3-.3c.1-.1.2-.2.1-.3-.1-.1-.3 0-.3.1l-.4.4zm1.5-1 .6.6c.1.1.1.1 0 .2-.2.2.1.2.1.3 0 .1.1.1.2 0s.2-.2 0-.3c-.3-.2-.5-.5-.8-.8 0 0 0-.1-.1 0zM17.5 25l.3.3c.1.1.1 0 .2 0 .1-.1.1-.1 0-.2l-.5-.5c-.1-.1-.1 0-.2 0-.1.1-.1.1 0 .2.1 0 .2.1.2.2zm1.2 3.9.2.2c.1.1.1.1.2 0s.1-.1 0-.2l-.5-.5c-.1-.1-.1-.1-.2 0s-.1.1 0 .2l.3.3zm3-3-.3-.3c-.1-.1-.1-.1-.2 0s0 .1 0 .2l.5.5c.1.1.1.1.2 0s.1-.1 0-.2l-.2-.2zm-2-4.4c-.1-.2 0-.3.2-.3l-.3-.3c-.1-.1-.2-.1-.3 0-.1.1-.1.2 0 .3.1.1.3.2.4.3zm1.1 6.5c-.3.1-1.3 1.1-1.4 1.4l1.4-1.4zm9.6-13.3.3.3c.1.1.1.2.2 0 .1-.1 0-.2-.1-.2-.2-.1-.4-.3-.5-.5 0 0-.1-.1-.2-.1H30v.1l.4.4zm.8-1.8c-.1 0-.1.1 0 0 .5.6 1 1.1 1.5 1.7-.4-.6-1-1.1-1.5-1.7zm-5.1 11.4c.2-.3.5-.5.6-.8 0 0 .1-.1 0-.1s-.2-.2-.2 0c-.2.2-.3.5-.4.9zm-1.4.7c.1-.1.2-.3.1-.4 0-.1-.1-.2-.2-.2s-.2-.1-.3.1c-.1.2 0 .2.1.3.1 0 .2.1.3.2zm5.3-9.7.7.7c.1.1.1 0 .2 0 .1-.1 0-.1-.1-.1l-.5-.5c0-.2-.1-.3-.3-.1zm-10.1 5.5-.3-.3c-.1-.1-.2 0-.2 0s-.1.1 0 .1c.3.1.4.3.6.5h.2c.1-.1 0-.1 0-.2-.1 0-.2-.1-.3-.1zm-2.8 12.3c-.5-.6-1-1.1-1.5-1.5.4.5 1 1 1.5 1.5zm-1.4-7.5s.1.1 0 0c.5-.4.9-.8 1.3-1.2l-.1-.1c-.3.5-.8.9-1.2 1.3zm5.1-4.4.4.4s.1.1.1 0v-.1c-.3-.3-.5-.6-.8-.8h-.1c-.1.1 0 .1 0 .1.2.1.3.3.4.4zm3.5 0-.7-.7c-.1-.1-.1-.1-.2 0 0 0-.1.1 0 .1.1.1.2.3.4.4.1 0 .1 0 .2.1 0 .1.2.1.3.1zM22.9 17c-.2.1-.3.3-.5.2-.1 0-.2 0-.2.2 0 .1.2.3.3.3.1 0 .1-.1.1-.2.1-.2-.1-.1-.1-.2.2 0 .3-.2.4-.3zm3.3 3.9c0 .1 0 .1 0 0 .6-.5 1.1-1 1.5-1.5l-1.5 1.5zm-2.6 3.9-.2.2s-.1.1-.1.2c.1.1.2 0 .2 0 .2-.1.3-.3.5-.5.1-.1 0-.1 0-.2-.1-.1-.1 0-.2 0-.1.1-.1.2-.2.3zm.8-2.4s-.1-.1 0 0c-.2.1-.3.2-.4.3l-.5.5s-.1.1 0 .2.1 0 .2 0l.1-.1c0-.2.2-.3.3-.4 0-.2.2-.4.3-.5zm-5.3 7.4c-.8.7-1.5 1.5-2.3 2.3.8-.8 1.6-1.5 2.3-2.3zm-2-6.5c-.1 0-.1-.2-.2-.1s-.1.2 0 .3l.3.3c.1.1.1 0 .2 0 0 0 .1-.1 0-.1-.1-.1-.1-.3-.3-.4zm8.6-1.3c0 .4.2.5.4.7.1.1.1.1.2 0s0-.1 0-.2c-.2-.1-.3-.3-.6-.5zm-10.5 4-2.1 2.1 2.1-2.1zm6.7-7.7s0-.1 0 0c-.6.3-1.1.6-1.6 1 .6-.3 1.1-.7 1.6-1zm-5.4 5.3c.1.2.2.3.3.4.2.1.1.2 0 .4l-1.2 1.2c.5-.4.9-.8 1.3-1.3.1-.1.1-.1 0-.2-.1-.2-.3-.4-.4-.5zm4.9 5c0-.1 0-.1 0 0-.1-.2-.3-.3-.4-.5-.1-.1-.1-.1-.2 0l-1.3 1.3c.1 0 .1 0 .1-.1l1.1-1.1c.1-.1.2-.1.3 0 .1.1.3.2.4.4zm1.2-3.1s.1.1 0 0c.1.1.2.2.3.2.1 0 .1-.1.1-.1 0-.1-.1-.1-.2-.1-.1-.1-.2-.1-.2-.1h-.1v.1c0-.1.1-.1.1 0zm-.5-2.2c.1.1.1.2.2.2l.1.1v-.2c-.1-.2-.3-.3-.4-.5 0 0-.1-.1-.1 0v.1c.1.1.2.2.2.3zm10.3-8.4-.9.9.9-.9zm-9.7 3.9c.1.2.3.4.5.6 0 0 .1.1.1 0v-.1c-.2-.2-.3-.4-.6-.5zm4.9 3.5c-.1.1-.3 0-.3.2 0 .1.2.3.3.3.2 0 .1-.2.2-.3-.1-.1-.1.1-.2 0s.1-.2 0-.2zm3.1-9.6-.3-.3h-.1v.1c.2.2.4.4.5.6h.1V13c0-.1-.1-.2-.2-.3zm-7 11.1v.1c.1.2.3.4.5.6h.1v-.1c-.3-.2-.4-.4-.6-.6zm-2.6 4.9c0-.1 0-.2-.2-.3h-.1c0 .2 0 .2-.2.2-.1 0 0 .1 0 .1 0 .1.1.1.2.1 0 0 .1-.2.3-.1zm-1.2-7.1s-.1 0-.1.1c.1.1.1.1.1 0l.3-.3c.1-.1.2-.1 0-.2-.1-.1-.2 0-.2.1s.1.3-.1.3zm1.8.2c0-.1.2-.1 0-.2-.1-.1-.2 0-.3 0-.1.1-.1.1 0 .2.2.1.2.1.3 0zm4.9-1.1s0 .1 0 0c.2.3.4.6.8.8l-.8-.8zm-10.8 3.7c0 .2 0 .2-.1.2 0 0-.1-.1-.1 0s.1.2.1.2c.2 0 .1-.3.3-.2v-.1c.1-.1 0-.1-.2-.1zm1.6 7.5c0 .1.1.3-.2.2-.1 0-.1.1 0 .1 0 .1.1.2.3.2 0-.1-.1-.2.1-.2s.1-.1.1-.1c-.1-.2-.2-.2-.3-.2zm-5.5-4c0 .1 0 .1 0 0 .4.5.9.9 1.4 1.4l-1.4-1.4zm8.8 1.2c0-.1-.1-.2-.2-.2s0 .1-.1.2c0 .1-.1 0-.2 0 0 0-.1 0-.1.1s.1.2.2.2h.1c0-.3.2-.2.3-.3zm-7.6-1.5c0-.1-.1-.2-.2-.2s0 .1-.1.2l-.1.1c-.1 0-.1 0-.1.1s.1.1.2.2c.1 0 .1 0 .1-.1-.1-.4.2-.2.2-.3zm2.9-3.4c0 .1.1.3.2.3.2 0 0-.1.1-.2h.1s.1.1.1 0-.1-.2-.2-.2-.1 0-.1.1H16zm9.4.9.5-.5s.1-.1 0-.1h-.1c-.1.2-.3.4-.4.6zm-4.1-3.2c-.2-.3-.4-.5-.6-.7.1.3.3.5.6.7zm-5.2 9.9s.1.1.2.1.2 0 .2-.1-.1-.1-.1-.1c-.1 0-.2 0-.2-.2v-.2h-.1v.2c-.1.2 0 .3 0 .3zm.7-2.2c-.4.3-.7.7-1.1 1.1.4-.3.8-.7 1.1-1.1zm-1.3 1.8h.5c-.2-.3-.3-.3-.5 0zm12.8-16.9c0-.1.2-.1.1-.2s-.2.1-.3.1l-.1.1s-.1.1 0 .2.1 0 .1 0l.2-.2zm2.3 2.3c0-.1.2-.1.1-.2s-.2.1-.3.1c0 .1-.2.1-.1.2s.2 0 .3-.1c-.1 0-.1 0 0 0zm-12 11.1a4.74 4.74 0 0 1 0 0zm12.8-12.5c0-.1.3-.2.2-.3-.1-.1-.2.1-.3.2-.1 0-.1.1 0 .1 0 .1 0 .1.1 0zM16.7 27c-.1 0-.1 0 0 0-.4.3-.7.7-1 1 .3-.3.6-.7 1-1zm8.6-2.3c.3-.2.4-.5.5-.8-.2.3-.4.5-.5.8zm-1.9.9c-.2-.1-.3 0-.4.1 0 0-.1.1 0 .2s.1 0 .2 0c0-.2.1-.2.2-.3zm2.4-2.6c0-.2-.1-.3-.1-.4 0-.1-.1-.1-.2 0s-.1.1 0 .2c.1-.1.2 0 .3.2zm6.5-8.3c-.3.1-.4.2-.5.5.2-.1.4-.3.5-.5zm-9.7 6.8-.8.8.1.1c.2-.4.4-.7.7-.9zm-.4-.1.9-.9-.9.9zm8.9-8.5c-.1-.2-.3-.4-.5-.4.1.1.3.3.5.4zm-14 16.6-.3.3c.2 0 .3 0 .3-.3zM15 25.1c.1.2.2.4.5.4-.2-.1-.3-.3-.5-.4zm16.6-10.2c-.1 0-.1.1 0 .2s.1.1.2 0 .1-.1 0-.2-.2 0-.2 0zm-2.4-1.5c0 .1 0 .1 0 0l.9-.9-.9.9zm-3.7 11.3c.3-.3.4-.6.4-.9-.1.4-.2.6-.4.9zm-4.6 3.2c-.3-.3-.3-.3-.4 0 .1-.1.3 0 .4 0zm-3.8-3.3c.2-.1.3-.3.1-.4h-.1v.1c.1 0 0 .2 0 .3zM31.4 16c-.3.1-.4.3-.5.5.1-.2.2-.3.5-.5zm-.5-.9c.2 0 .3.1.5-.1-.2 0-.4-.1-.5.1zm-.8-3.1c-.1 0 0 .2-.1.2 0 0-.1-.1-.1 0s-.1.2 0 .2.1-.1.1-.1c.1-.1.2-.2.1-.3zm-14.8 9.7c.1.2.2.3.4.4 0-.2-.1-.4-.4-.4zm4.6 8.3c-.1-.2-.2-.3-.4-.4.1.2.2.3.4.4zm9.8-16.7c-.2.1-.2.2-.2.4 0 .1.3.3.4.2-.3-.1-.3-.1-.2-.6zm-7.6 11.1c.1-.1.3-.1.3-.1.1 0 .1-.1.1-.2s-.1 0-.2 0c0 .1-.1.2-.2.3zM19 20.6c-.1.1 0 .1 0 .2.1 0 .1.2.2.1.1 0 .1-.1 0-.2 0-.1-.1-.2-.2-.1zm-.9 7.8c.2 0 .3-.1.3-.3l-.3.3zm-2.6-.4c-.2 0-.3.1-.3.3l.3-.3zm8.4-4.9s-.1.1 0 .2.1 0 .2 0c.1-.1.1-.1 0-.2s-.1 0-.2 0zm-1.2-1.9c-.1.1 0 .1 0 .2.1.1.1.1.2 0s0-.1 0-.2c-.1 0-.1-.1-.2 0zm-1 .8c.1-.2.3-.3.4-.5-.2.2-.4.3-.4.5zm9.7-6.4c.1-.1.2-.1.3-.3-.2 0-.3.2-.3.3zM14.5 29.2l.6-.6c-.3.2-.4.4-.6.6zm3.7-3.8c0-.1.1-.1.1-.2-.1-.1-.1 0-.2.1 0 0-.1.1 0 .2 0 0 0-.1.1-.1z"/><path d="M21.5 23.1v.6l-.1.1c-.1-.3-.1-.5.1-.7-.1-.1-.1 0 0 0zM21.6 23.3c.1 0 0 .2.1.2V24.1c-.1-.2-.1-.5-.1-.8zM25.7 18.7c-.1.2-.2.1-.3 0-.1-.1-.1-.2 0-.3.1-.1.2-.1.3 0 .1.1.2.2 0 .3zM23.7 18.4c-.1-.1-.2-.3-.4-.4 0 0-.1-.1 0-.1 0-.1.1 0 .1-.1h.1c.1.4.4.5.6.8l.1.1c-.1.1-.1 0-.1 0-.2-.1-.3-.2-.4-.3zM22.6 20.2c-.3 0-.5-.2-.6-.4-.1-.1-.2-.2-.2-.4.2.3.4.6.8.8z"/><g fill="#010101"><path d="m12.1 19.1.2-.1c-.2-.1-.3-.2-.5-.3h-.1c-.2-.2-.3-.3-.3-.5s0-.3.1-.5c0-.1.1-.1.1-.2.1-.3.2-.5.4-.6.1-.1.3-.2.5-.2.4-.1.7.1 1.1.2 0 0 .1 0 .1.1.2.1.3.2.5.2.4.1.7 0 .9-.2.2-.2.3-.4.4-.6.2-.4.4-.8.8-1 .2-.1.5-.2.8-.2.2-.1.4 0 .5 0h.1c.1 0 .2.2.2.3 0 .2-.1.2-.2.2-.3.1-.5.3-.7.6l.1-.1c.3-.3.7-.5 1.2-.6.2-.1.5-.1.7-.1-.2-.2-.4-.3-.7-.3-.1 0-.2 0-.2-.2 0-.1.1-.2.1-.2.4-.3.8-.5 1.1-.6.4-.1.7-.1 1.1 0 .1.1.3.2.4.3.1.1.1.1.1.2s-.1.2-.2.2l-.1.1c.5-.2 1-.1 1.5.2l-.1-.1c-.1-.1-.2-.2-.4-.3-.1-.1-.1-.2-.1-.3 0-.1.1-.1.2-.2.1 0 .3-.1.4-.1 0 0 .1 0 .1-.1.1 0 .3-.1.4-.1h.1c.1 0 .1 0 .2-.1.1 0 .3-.1.5-.1h.4c.1 0 .2.1.2.1v.3c0 .1-.1.1-.2.2.2-.1.4-.1.7 0 .2.1.4.1.6.2.2.1.3.2.5.4 0 0 .1 0 .1.1.1.1.2.1.2.2v-.1c-.2-.4-.3-.7-.7-.9-.1 0-.1-.1-.1-.2s.1-.1.1-.2c.1 0 .1-.1.2-.1.1-.1.3-.1.4-.2.2-.1.3-.3.4-.6v-.1c.1-.1.1-.3.3-.4.2-.3.9-.6 1.4-.3h.1c.2.1.3.2.4.3.2.2.3.5.2.7 0 .2-.1.4-.1.6v.1h.2c.5.1 1 .1 1.5.3.1 0 .2.1.4.2.3.2.4.5.4.8v.3s-.1.1-.1 0c-.1 0-.1-.1-.1-.1v.1c-.1.2-.2.3-.3.4-.2.3-.5.4-.8.5-.1 0-.2.1-.3 0-.1-.1-.1-.2 0-.3 0-.1.1-.2 0-.3 0 .1-.1.1-.1.2-.1.2-.2.4-.3.5-.1.1-.2.3-.4.4l-.1.1c-.1.1-.2.1-.3 0-.1-.1-.1-.2-.1-.3V16c-.2.5-.7.9-1.2.9h-.1c-.2 0-.3 0-.4-.1-.1-.1-.2-.2-.2-.4 0-.1 0-.2-.1-.2v.2c0 .1 0 .2-.1.3-.1.2-.2.3-.4.3-.1 0-.3.1-.4.1h-.3c-.1-.1-.1-.2 0-.3 0-.2 0-.4-.2-.5v.2c-.1.3-.2.6-.4.8-.1.2-.4.3-.5.4-.2.1-.5.2-.7.1-.1 0-.2 0-.3-.1h-.2c0 .1.1.1.2.2s.2.1.4.1c.1 0 .3 0 .3.2 0 .1-.1.3-.2.4-.2.1-.4.2-.6.2H22c-.2 0-.4.1-.6.2-.4.2-.8.2-1.2 0-.1-.1-.2-.2-.1-.3.1-.2.3-.4.5-.5.1-.1.3-.2.4-.3-.1.1-.2.1-.2.2-.3.2-.7.4-1.1.4-.4 0-.7-.3-.7-.7 0-.2.1-.3.2-.4.2-.2.4-.4.6-.5-.3.2-.6.2-1 .3h-.2c-.2 0-.3-.1-.4-.1h-.1v.1l-.1.1c-.1 0-.2.1-.2.1-.1 0-.1.1-.2.1-.3.2-.6.2-.9.1-.1 0-.2 0-.3-.1-.4.5-.5.5-.6.5-.2 0-.2 0-.2.1v.1l-.1-.1-.1-.1c-.1-.1-.2-.2-.4-.2-.1 0-.2.1-.3.3v.1c-.1.5-.2.7-.7.8-.4.1-.7.2-1.1.1-.1 0-.2 0-.2-.1l-.6.1zm-.2-.5c.1 0 .1 0 0 0 .3.2.5.3.8.4l.3-.1c.2 0 .4-.1.6-.2.1-.1.2-.1.3-.2.1-.1.2-.2.3-.2.1 0 .2-.1.3-.1.1-.2.3-.4.5-.4s.3.1.5.2c.1-.1.2-.1.3-.1.1 0 .3 0 .4.1.1 0 .2 0 .3.1.2 0 .5 0 .8-.1.1 0 .1-.1.2-.1.1-.1.2-.1.3-.2l.1-.1c.1-.2.2-.2.4-.1.1.1.2.1.3.1h.2c.4 0 .7-.1 1-.3.2-.1.3-.3.4-.4.1-.1.2-.1.2-.1.1.1.1.2.1.2 0 .1 0 .1-.1.2s-.2.3-.3.3c-.1 0-.1.1-.2.1-.2.2-.4.3-.6.5-.1.1-.1.2-.1.3 0 .3.2.5.6.6.3 0 .6-.1 1-.3.2-.1.4-.3.5-.5.1-.1.1-.1.2 0s.1.2.1.2c0 .1-.1.2-.2.3-.2.2-.4.3-.6.5-.2.1-.3.3-.4.4v.1c.4.2.7.2 1.1 0l.6-.3h.7c.2 0 .4-.1.6-.2.1-.1.1-.1.1-.2 0 0 0-.1-.1-.1-.2 0-.3-.1-.5-.2-.1 0-.2-.1-.3-.3 0 0-.1-.1 0-.2s.1-.1.2-.1H23.1c.1 0 .2 0 .3.1.2 0 .5-.1.7-.1.1-.1.3-.1.4-.3.1-.2.3-.4.3-.7V16.8s0-.1.1-.2c.1 0 .2 0 .2.1.2.2.3.4.2.7v.1h.1c.1 0 .3-.1.4-.1.1 0 .2-.1.3-.2 0-.1.1-.2.1-.3v-.2s0-.1.1-.2c.1 0 .2.1.2.1.1.1.1.2.1.3 0 .1 0 .2.1.2h.4c.4 0 .9-.4 1-.9 0-.1 0-.1.1-.2l.1-.1v.1c.1.3.1.6.1.8V17.1h.1l.1-.1.3-.3c.1-.1.2-.3.3-.5 0-.1.1-.1.1-.2s.1-.1.2-.1.1.1.1.2v.6h.1c.3-.1.6-.3.8-.5.1-.1.2-.2.3-.4.1-.2.1-.5 0-.7v-.2l-.1-.1c-.1-.1-.2-.1-.3-.2-.5-.2-.9-.2-1.4-.3h-.2c-.1 0-.1 0-.2-.1V13.9c.1-.2.1-.3.1-.5s0-.4-.2-.6c-.1-.1-.3-.2-.4-.3H28c-.4-.2-1 0-1.2.2-.1.1-.2.2-.2.4 0 0 0 .1-.1.1-.1.2-.2.5-.5.6-.1.1-.3.2-.4.2-.1 0-.1.1-.2.1.4.2.6.6.7 1v.3s0 .1-.1.1-.2 0-.2-.1c-.1-.1-.1-.2-.2-.2 0 0-.1 0-.1-.1-.1-.1-.3-.2-.4-.3-.2-.1-.3-.2-.5-.2-.3-.1-.5 0-.7.1-.1 0-.1.1-.2.2 0 0 0 .1-.1.1l-.3.3.1-.4c0-.2.1-.3.2-.4l.1-.1.2-.2v-.1h-.5c-.1 0-.3 0-.4.1-.1 0-.1 0-.2.1h-.1c-.1 0-.3.1-.4.1h-.1c-.2.1-.3.1-.5.1h-.1v.1c.2.1.3.2.4.3.1.1.3.3.4.5l.1.3-.3-.2-.1-.1c-.1 0-.1-.1-.2-.1-.4-.3-.9-.4-1.4-.2h-.1c-.1 0-.2.1-.3.1H20v-.1c0-.1.1-.2.1-.2.1 0 .1-.1.2-.1l.1-.1.1-.1-.1-.1c-.1-.1-.2-.2-.3-.2-.3-.1-.6-.1-.9 0-.4.1-.7.3-1.1.6-.1 0-.1 0-.1.1h.1c.3 0 .5.1.8.3.1.1.1.1.1.2s-.1.1-.2.1c-.2 0-.4 0-.7.1-.5.1-.9.3-1.2.6-.1 0-.1.1-.2.1l-.2.2-.2.1v-.2c0-.1 0-.2.1-.3.2-.4.5-.6.9-.8.1 0 .1 0 .1-.1s0-.1-.1-.1h-.1c-.1-.1-.2-.1-.4 0h-.1c-.3 0-.5.1-.7.2-.4.2-.6.6-.8.9-.1.2-.3.5-.5.7-.3.2-.6.3-1.1.2l-.6-.3s-.1 0-.1-.1c-.3-.2-.6-.3-.9-.2-.2 0-.3.1-.4.2-.2.1-.3.3-.4.5 0 .1-.1.1-.1.2-.1.1-.1.2-.1.4.7.4.8.5.9.7zm2.3-.3c-.1.1-.2.1-.2.2-.1.1-.2.2-.3.2.1 0 .3-.1.4-.2 0 .1 0 0 .1-.2z"/><path d="m14.3 24.3-.2-.2c-.3-.2-.4-.4-.3-.8.1-.1.1-.2.2-.2.1-.1.1-.2.2-.2 0 0 .1 0 .1-.1l.1-.1c.3-.2.6-.3.9-.4.2 0 .4-.1.6 0h.1v-.2c0-.2.1-.5.2-.7.2-.2.4-.3.6-.3h1.5c-.1-.4-.1-.7 0-1 .1-.2.2-.4.3-.5l.1-.1s-.1 0-.1-.1c-.2-.1-.5-.3-.7-.5-.2-.2-.2-.4-.2-.7-.2 0-.3.1-.5.1-.1 0-.3.1-.4.1H15.6c-.1 0-.3 0-.4-.2 0-.1-.1-.2 0-.2 0-.1.1-.1.2-.1.3 0 .6.1.8.1.5.1.9 0 1.2-.2.1 0 .1-.1.2-.1 0 0 .1 0 .1-.1s.1-.2.2-.2.1 0 .2.1c.2.2.4.2.6.1h.1c.3 0 .7-.2.9-.4.1 0 .1-.1.1-.2s.1-.1.1-.2c0 0 .1-.1.2-.1s.1.1.1.2c0 .2-.1.3-.1.4l-.6.6c-.2.1-.3.3-.5.5-.1.1-.1.3 0 .5.2.2.5.2.8.1.5-.2.8-.4 1.2-.8 0 0 .1-.1.2-.1 0 0 .1.1.1.2 0 .2 0 .4-.2.6-.2.2-.4.4-.7.6l-.3.3c.4.2.7.2 1 0 .3-.2.6-.3 1-.3h.1c.3 0 .6 0 .8-.2 0 0 .1 0 .1-.1s.1-.1.1-.1h-.1c-.2 0-.5-.1-.7-.3-.1-.1-.2-.2-.2-.4 0-.1 0-.1.1-.1h.4c.1 0 .2 0 .2.1.5.1.9 0 1.2-.3.3-.2.4-.6.4-.8v-.5h.2c.4.2.5.5.5.9v.1h.2c.1 0 .2-.1.3-.1.1 0 .3-.2.3-.4v-.1c0-.1 0-.3.1-.4.1-.1.1-.1.2-.1 0 0 .1 0 .2.1s.1.3.2.4c0 .1 0 .2.1.2h.4c.1 0 .2 0 .3-.1.4-.2.6-.5.7-.9 0-.1 0-.2.1-.2s.2.1.2.1c.1.2.1.3.1.6 0 .2 0 .4-.1.5l.2-.2.3-.3c.2-.3.3-.5.4-.8 0 0 0-.1.1-.2.1 0 .2.1.2.1.1.2.1.4 0 .7.4-.2.7-.4.9-.7.1-.2.3-.5.1-.8v-.4s.1-.1.2 0 .2.2.2.4c.1.2.1.4.1.7 0 .3-.2.5-.4.7-.2.3-.5.4-.8.6-.1 0-.2.1-.3.1h-.1c-.1 0-.2.1-.1.2 0 .1 0 .2.1.2 0 .1.1.2 0 .3v.1h-.1l-.1-.1s-.1 0-.1.1H29c-.2.2-.4.3-.6.5-.3.2-.6.4-1 .4-.3 0-.6-.2-.8-.5 0-.1-.1-.2.1-.3l.3-.3c-.3.2-.7.3-1 .3.1.1.2.2.2.3 0 .3-.2.6-.4.9-.2.3-.5.4-.7.4h-.4c-.1 0-.2-.1-.2-.2v-.3l.3-.6v-.1c-.1.1-.2.1-.2.2-.2.1-.4.2-.5.4 0 0 .1 0 .1.1.1.1 0 .2 0 .2-.1.4-.4.6-.6.9-.3.3-.7.5-1.1.5-.3 0-.5 0-.7-.1-.1-.1-.1-.1-.1-.2s0-.1.1-.2.2-.2.2-.3c-.3.1-.7.2-1.1.2H20c-.3 0-.5.2-.5.5 0 .1 0 .2-.1.3 0 .1-.1.3-.1.4-.1.4-.3.6-.6.7-.2.1-.2.2-.2.4v.2c.1.2.1.5-.2.7-.2.2-.6.4-1 0-.1-.1-.2-.2-.3-.4-.1-.1-.1-.3-.2-.4v.1c-.1.1-.1.2-.2.3-.2.1-.3.2-.5.2l.1.1c.1.2.1.4 0 .5-.1.2-.2.3-.4.3-.6.3-1.1.3-1.5.1zm0-.2c.4.2.8.2 1.3.1.1 0 .3-.1.3-.2.1-.1 0-.2 0-.4 0-.1-.1-.1-.1-.1h-.3c-.1 0-.2-.1-.3-.2 0 0-.1-.1 0-.2s.1-.1.2-.1.2 0 .2.1c.1.1.2.1.3.1.2 0 .4 0 .5-.2.1-.1.2-.2.2-.3v-.1c0-.1.1-.1.2-.1s.1.1.2.1c.1.1.2.3.2.4.1.1.1.2.2.3.2.2.5.2.8 0 .2-.2.2-.3.2-.5V22.5c-.1-.3 0-.5.3-.6.3-.1.4-.2.5-.5 0-.1.1-.3.1-.4 0-.1 0-.2.1-.3.1-.4.3-.6.7-.6h.9c.4 0 .7-.1 1-.2 0 0 .1-.1.2 0s0 .2 0 .2l-.3.3s-.1.1 0 .1l.1.1c.2.1.3.2.6.1.4-.1.7-.2 1-.5.2-.2.4-.4.5-.8v-.1H24s-.1.1-.2 0c0-.1.1-.1.1-.2.2-.1.4-.3.6-.4.1-.1.3-.2.4-.3v-.1h.1c0 .1-.1.3-.1.4l-.3.6v.1l.1.1h.3c.2 0 .4-.2.6-.4.2-.3.3-.5.4-.8 0-.1 0-.1-.1-.2h-.1s-.1-.1-.1-.2 0-.1.2-.1c.4 0 .8-.1 1.2-.3.1-.1.2 0 .2 0 .1.1 0 .2 0 .2-.1.1-.2.3-.3.4-.1 0-.1.1 0 .1.1.2.4.4.6.4.4 0 .6-.2.9-.4.2-.2.4-.3.6-.5l.2-.1c.1-.1.2-.1.3-.1v-.1c0-.1-.1-.2-.1-.3 0-.2.1-.4.2-.4h.2c.1 0 .1 0 .2-.1.3-.2.5-.3.8-.5.2-.2.3-.4.4-.6v-.6c0-.1 0-.1-.1-.1v.1c.2.4 0 .7-.1.9-.2.3-.5.6-1 .8 0 0-.1.1-.2 0s0-.1 0-.2c.1-.2.1-.4 0-.5-.1.2-.2.5-.4.8l-.3.3-.2.2c-.1.1-.2.1-.2 0-.1-.1-.1-.2-.1-.2 0-.2.1-.3.1-.5s0-.3-.1-.5c-.1.5-.4.8-.8 1-.1.1-.2.1-.4.1H26.9c-.1-.1-.1-.2-.1-.3 0-.1-.1-.3-.1-.4-.1.1-.1.2-.1.4v.1c0 .2-.2.5-.5.5-.1 0-.2 0-.3.1H25.5c-.1-.1 0-.2 0-.2.1-.3-.1-.5-.3-.6V17c0 .4-.2.7-.4 1-.4.3-.9.5-1.4.3-.1 0-.2 0-.2-.1H23c0 .1 0 .2.1.3.2.2.4.2.6.3.1 0 .2 0 .2.1s0 .2-.1.3l-.1.1c-.3.2-.6.2-.9.2h-.1c-.4 0-.6.1-.9.2-.4.2-.8.2-1.2 0-.1 0-.1-.1-.1-.1v-.2c.1-.2.2-.3.3-.4.3-.2.5-.4.7-.5.1-.1.2-.2.2-.4-.3.4-.8.7-1.2.9-.4.1-.7.1-1-.2-.2-.2-.2-.5-.1-.7.2-.2.3-.4.5-.5.2-.2.4-.3.6-.5.1-.1.1-.2.1-.2l-.1.1c0 .1-.1.1-.2.2-.3.3-.7.4-1 .5h-.1c-.3 0-.5.1-.8-.2 0 0-.1 0-.1.1s-.1.1-.2.2c-.1 0-.1 0-.1.1-.4.3-.8.4-1.4.3-.2-.1-.5-.1-.8-.1v.1c.1.1.2.1.3.1h.1c.4.1.8.1 1.1 0 .1 0 .3-.1.4-.1.2 0 .3-.1.5-.1h.2v.2c0 .2 0 .4.1.5.2.2.4.4.6.5.1 0 .2.1.2.2s0 .1-.1.2-.2.3-.3.5c-.1.3-.1.6 0 1v.1h-.1c-.2.1-.4.1-.6 0h-.4c-.2 0-.4-.1-.6 0-.2 0-.4.1-.4.2-.1.2-.2.4-.2.6v.1c0 .2-.1.2-.3.2h-.5c-.3.1-.6.2-.9.4l-.1.1s-.1 0-.1.1h-.1l.1.1-.1.1-.1.1c-.1.1-.1.2-.2.2-.1.3-.1.4.2.6-.2-.1-.2 0-.2 0zm1-.8s.1 0 0 0c0 .1.1.1.2.1h.2c-.1 0-.1 0-.2-.1h-.2zm8.6-3.9zm.8-2.8zm1.6-.1zm3.2 1.4zm1.3-3.2z"/><path d="m12.1 18.9-.4-.2c-.3-.2-.3-.5-.4-.7 0-.6.2-1 .6-1.4.1-.1.3-.2.4-.2.1 0 .2 0 .2-.1.2-.1.3-.1.5 0h.2c.2 0 .4.1.6.2.3.1.4.3.5.5 0 .1.1.1.1.1s.1 0 .1-.1c.2-.2.3-.4.5-.7.1-.2.2-.3.3-.5l.3-.6c.3-.4.5-.7.9-.8.4-.2.8-.1 1 0 .1 0 .2.1.3.1.1-.3.2-.5.5-.8.3-.3.7-.4 1.1-.4.7 0 1 .4 1.3.7.2-.2.4-.4.7-.5.4-.1.7-.1 1.1-.1h1.4c.2 0 .4-.1.7-.2l.9-.6c.3-.3.6-.5.9-.6.4-.1.7-.1 1.2.1.2.1.4.2.6.4.1.2.3.5.3.8 0 .1 0 .1-.1.2l-.2.2v-.2c0-.4-.2-.5-.5-.7-.1-.1-.2-.1-.4-.2-.4-.1-.8.1-1 .4 0 .1-.1.1-.1.2l-.3.6c-.2.2-.4.3-.6.4h-.1s-.1 0-.1.1l.1.1.1.1c.3.2.4.5.5.8.1.1 0 .3 0 .4v.1c0 .1-.1.1-.1.1-.1 0-.1 0-.2-.1-.2-.3-.4-.5-.8-.7-.3-.2-.7-.4-1.1-.3-.2.1-.3.2-.4.4 0 0 0 .1-.2.1h-.1v-.2c0-.2.1-.4.2-.6l.1-.1.2-.2c-.2 0-.5 0-.7.1-.1 0-.2.1-.3.1h-.1c-.1 0-.3.1-.4.1-.1 0-.2.1-.4.1h-.2c.1.1.2.2.3.2.2.2.4.4.5.7.1.1 0 .2 0 .2s-.1.1-.2 0c-.2-.2-.4-.3-.6-.4-.4-.2-.7-.2-1.1-.1h-.1c-.1 0-.3.1-.4.2h-.2c-.1-.1 0-.2 0-.2.1-.1.1-.2.2-.3.1-.1.2-.1.3-.2h.1c-.1-.2-.3-.3-.5-.3-.5-.1-.9.1-1.3.4l-.1.1c-.1.1-.2.1-.3.2.3 0 .5.2.8.4.1.1.1.2.1.2 0 .1-.2.1-.2.1h-.4c-.3 0-.6.1-.9.3-.4.2-.7.4-1 .7-.1.1-.2.1-.2.1-.1-.1-.1-.2-.1-.2.1-.2.2-.5.4-.7.2-.2.5-.4.7-.5l-.1-.1c-.3-.1-.6-.1-1 0s-.7.4-1 1c-.1.3-.3.5-.5.7-.2.2-.5.3-.8.3-.3 0-.7-.1-1-.4-.2-.1-.3-.2-.5-.2-.3-.1-.7 0-.9.4-.1.1-.1.2-.2.4-.1.1-.1.3-.2.4 0 .1 0 .2.1.3 0 .1.1.1.1.2 0 0 0 .1.1.1l.9.3zm1.8-2.3c-.2-.1-.3-.1-.5-.1H12.8c-.1 0-.2.1-.3.1-.1 0-.2.1-.3.2-.3.3-.5.6-.5 1 0-.1.1-.1.1-.2.1-.1.1-.3.2-.4.3-.4.8-.5 1.1-.5.2.1.4.1.6.3.3.2.6.3.9.3.3 0 .5-.1.7-.2.2-.2.3-.4.4-.6.3-.6.6-.9 1.1-1.1.3-.1.7-.2 1.1 0 0 0 .2.1.2.2s-.1.2-.1.2c-.2.1-.4.2-.6.4-.2.2-.3.4-.3.6.3-.3.6-.5.9-.7.4-.2.7-.3 1-.3h.5v-.1c-.3-.2-.5-.3-.8-.3-.1 0-.2-.1-.2-.1 0-.1.1-.1.1-.2.1-.1.2-.2.4-.2 0 0 .1 0 .1-.1.4-.3.9-.5 1.4-.4.3 0 .5.2.6.4 0 0 .1.1.1.2s0 .1-.1.1H21c-.1.1-.2.2-.3.2l-.1.1c.1-.1.2-.1.3-.1h.1c.4-.1.8-.1 1.2.1.2.1.3.2.5.3-.1-.2-.2-.3-.3-.5-.1-.1-.2-.2-.3-.2-.1 0-.1-.1-.1-.2s.1-.1.1-.1H22.4c.1 0 .2-.1.3-.1.1-.1.3-.1.5-.1h.1c.1 0 .2 0 .3-.1.3-.1.5-.1.8-.1.1 0 .2.1.2.1v.2l-.2.2-.1.1c-.1.1-.1.2-.1.2.1-.2.2-.3.4-.3.5-.1.9.1 1.3.3.3.2.6.4.8.7v-.3c-.1-.3-.2-.6-.5-.8l-.1-.1c-.1 0-.1-.1-.2-.1s-.1-.1-.1-.1 0-.1.1-.1.1 0 .1-.1h.1c.2-.1.4-.2.5-.4.1-.2.2-.3.3-.5 0-.1.1-.1.1-.2.2-.4.8-.6 1.2-.5.2.1.3.1.4.2.1 0 .1.1.2.1v-.1c-.2-.2-.4-.3-.6-.4-.4-.2-.7-.2-1.1-.1-.3.1-.5.3-.9.6-.3.3-.6.5-1 .6-.2.1-.5.2-.7.2h-1.4c-.4 0-.7 0-1 .1-.3.1-.4.2-.6.4-.1.1-.1.1-.2.1s-.1-.1-.2-.1c-.3-.5-.7-.7-1.1-.6-.4 0-.7.2-1 .4-.2.2-.4.4-.5.7 0 .1-.1.1-.1.1h-.2c-.1 0-.2-.1-.3-.1-.4-.1-.6-.1-.9 0-.3.1-.5.4-.8.8l-.3.6c-.1.2-.2.3-.3.5-.1.2-.3.5-.5.7-.1.1-.2.1-.2.1-.1 0-.2-.1-.2-.2-.4-.3-.5-.5-.8-.6zM14.3 24.8c-.2-.1-.3-.2-.4-.3-.1-.1-.2-.2-.4-.3h-.1c-.2 0-.3-.1-.4 0h-.2v-.1s0-.1.1-.1c.3-.2.6-.4.9-.7l.1-.1s.1-.1.2-.1c0 0 .1 0 .1-.1.1-.1.2-.1.3-.1h.2l-.1.2c-.1.2-.2.3-.3.4l-.2.2c-.1.2-.1.3 0 .4.1.1.2.1.3.2.4.2.9.2 1.3.1.1 0 .2-.1.3-.2v-.3h-.1c-.3 0-.5 0-.7-.3 0-.1-.1-.2 0-.3.1-.1.2-.1.3-.1.1 0 .2.1.4.1h.1c.3.1.5 0 .7-.2.1-.1.2-.2.2-.4 0 0 0-.1.1-.2.1 0 .2.1.2.1.1.1.2.3.3.4 0 .1.1.1.1.2.1.1.1.2.2.3.2.2.4.2.7-.1.2-.1.2-.3.1-.4 0-.1 0-.1-.1-.2v-.1c-.1-.3.1-.5.4-.6.3-.1.4-.2.5-.5 0-.2.1-.3.1-.5v-.2c.1-.4.3-.6.7-.7h1.1c.3 0 .6-.1.9-.2 0 0 .1-.1.2 0s.1.2.1.3c-.1.2-.1.3-.3.4l-.1.1.1.1c.2.1.5.1.7 0 .4-.1.7-.4 1-.8.1-.1.1-.2.1-.3H23.7l.1-.1v-.1s0-.1.1-.1.1-.1.1-.1c.4-.2.7-.5.9-.7v-.1l.1-.1h.1c.1 0 .1.1.1.2s-.1.3-.1.4c-.1.1-.1.2-.2.3 0 .1-.1.2-.1.2v.1s.1 0 .1.1c.3 0 .5 0 .7-.2.3-.3.4-.5.5-.9v-.1h-.2c-.1-.1-.2-.2-.2-.3 0-.2.2-.2.2-.2.4 0 .9-.1 1.3-.4 0 0 .1-.1.2 0s.1.2 0 .2c0 .2-.2.4-.4.6v.1c.3.5.8.2 1 .2.2-.1.5-.3.7-.5.1-.1.2-.1.2-.2l.3-.3s.1-.1.2 0c.1 0 .1.1.1.2 0 .3-.1.6-.4.8-.3.3-.6.5-1.1.5-.6.1-1.1 0-1.7-.3 0 .1.1.2 0 .4-.1.6-.4 1.2-.9 1.6-.3.2-.6.3-.9.3-.2 0-.4-.1-.6-.3-.1-.1-.2-.2-.2-.4-.1.1-.1.2-.2.3 0 .1-.1.1-.1.2-.1.2-.3.4-.5.5-.6.3-1.1.2-1.6-.3l-.2-.2-.3-.3c-.1-.1-.3-.1-.5-.1-.1 0-.2 0-.3.1-.2.1-.3.2-.3.4v1.3c-.1.3-.3.5-.6.5H19v.1c.1.2.1.5 0 .7-.1.2-.3.4-.5.5-.5.2-.9.2-1.5 0-.1 0-.3-.1-.4-.2 0 .2-.1.4-.1.5-.1.2-.3.4-.6.5-.5 0-1 0-1.6-.3zm-1.4-.7zm.6-.1c.1.1.1.1 0 0 .2.1.3.2.5.4.1.1.2.2.3.2.5.2.9.2 1.4 0 .3-.1.4-.3.5-.5.1-.2.1-.3.1-.5 0-.1 0-.1.1-.2h.2c.1.1.2.1.4.2.5.1 1 .1 1.4 0 .2-.1.4-.2.4-.4.1-.2.1-.3 0-.5v-.2c0-.1.1-.1.2-.1.2 0 .4-.2.4-.4v-1.2c.1-.2.2-.4.5-.5.1 0 .2-.1.3-.1.2 0 .4 0 .7.2l.3.3.2.2c.4.4.8.5 1.4.2.2-.1.3-.2.5-.4l.1-.1.3-.3.1-.1c.1 0 .1.1.1.1 0 .1.1.3.2.4.1.2.3.2.5.3.3 0 .5-.1.8-.2.5-.4.8-.9.8-1.4V19s0-.1.1-.2.1 0 .2 0c.5.2 1 .3 1.6.3.4 0 .7-.2 1-.5.2-.2.3-.4.3-.7-.1.1-.2.2-.3.2-.1.1-.2.1-.2.2-.2.2-.4.4-.7.5-.4.2-.9.3-1.2-.2-.1-.1-.1-.2 0-.3.2-.1.3-.3.3-.5-.5.3-.9.4-1.4.4h-.1l.1.1h.1c.3 0 .3.1.2.3-.1.3-.2.6-.5 1-.2.2-.5.3-.8.3-.1 0-.2-.1-.3-.1v-.3c0-.1.1-.2.1-.2.1-.1.1-.2.2-.3 0-.1.1-.2.1-.3-.2.2-.6.5-1 .7h.2V19.7c0 .1-.1.2-.2.3-.3.4-.7.7-1.1.9-.3.1-.6.2-.9 0-.1-.1-.2-.1-.2-.2s.1-.2.1-.2c.1-.1.2-.2.3-.4-.3.2-.7.2-1 .3h-1.1c-.3 0-.5.2-.6.5v.2c0 .2-.1.3-.1.5-.1.4-.3.6-.6.7-.2.1-.3.2-.2.4V23c.1.2.1.4-.2.6-.3.2-.6.3-.9.1-.1-.1-.2-.2-.2-.3 0-.1-.1-.1-.1-.2-.1-.1-.1-.3-.2-.4 0 .2-.1.3-.2.4-.2.3-.5.4-.9.2h-.1c-.1 0-.2-.1-.3-.1h-.1v.1c.1.2.2.2.5.2.1 0 .2 0 .3.1.1.2.1.3.1.5-.1.1-.2.2-.4.3-.5.1-1 .1-1.4-.1-.1-.1-.2-.1-.3-.2-.2-.2-.2-.4-.1-.7-.2.3-.5.5-.8.6.1 0 .2 0 .3.1l-.1-.2zM9.9 20.8c-.1-.1-.1-.3-.1-.4V20.1c.1-.3.3-.6.6-.8.3-.2.6-.2 1 0 .1.1.2.1.3.2.2.1.4.4.3.7v.3l-.1.1c-.3.2-.6.4-1 .5-.3.1-.6 0-.8-.1-.1-.2-.2-.2-.2-.2zm0-.4v.2h.2c.2.1.4.2.7.1.3-.1.6-.2.9-.4l.1-.1V20c0-.2-.1-.4-.3-.5-.1-.1-.2-.1-.3-.2-.3-.2-.5-.1-.8 0-.3.2-.5.4-.5.7v.4z"/><path d="M9.7 20.8v-.4c0-.5.2-.9.5-1.2l.1-.1c.1-.1.1-.2.3-.2.4-.1.9 0 1.1.3.2.3.3.6.3.9h-.2c0-.2-.1-.4-.4-.5-.1 0-.1-.1-.1-.1-.1-.1-.1-.1-.2-.1-.3-.1-.5 0-.8.3-.2.2-.3.4-.4.7l-.2.4zm1.6-1.8c-.2-.1-.5-.1-.6 0-.1 0-.1.1-.2.2l-.1.1c-.2.2-.3.3-.4.5 0-.1.1-.1.1-.2.2-.2.5-.5 1-.4.1 0 .2.1.3.1l.1.1c.1 0 .1.1.2.1 0-.1-.1-.2-.2-.3 0-.1-.1-.1-.2-.2zM8.6 19c-.2-.1-.3-.2-.3-.5s0-.6.3-.7c.1-.1.3-.1.4-.1.1 0 .3 0 .5.1l.3.3v.4c0 .1-.1.1-.1.2-.2.1-.5.3-.6.3-.2.1-.3 0-.5 0zm.8-1.1c-.1-.1-.2 0-.4 0-.1 0-.2 0-.3.1-.2.1-.2.3-.2.6.1.4.4.4.6.4.1 0 .3-.2.3-.3 0-.1.1-.2.1-.2 0-.1.1-.2 0-.3 0-.2 0-.3-.1-.3zM14.3 24.9c-.2-.1-.3-.2-.4-.3 0 0-.1 0-.1-.1-.1-.1-.3-.2-.4-.3-.1 0-.1-.1-.1-.1V24h.1c.2 0 .3.1.4.2 0 0 .1 0 .1.1l.1.1c.1.1.2.2.3.2.5.3 1.3.3 1.7-.1.2-.2.3-.4.3-.6 0-.1 0-.2.1-.2s.1 0 .2.1c.4.2.8.3 1.3.2.3 0 .6-.1.7-.3.2-.1.2-.3.1-.6V23l-.1-.6.3.5c.1.2.1.4.1.7-.1.2-.3.4-.5.5-.7.2-1.3.2-1.9-.1v.1c0 .5-.3.8-.8 1-.4 0-.9 0-1.5-.2.1 0 0 0 0 0zM19.5 21.5v-.3c0-.3.1-.6.3-.8.2-.2.4-.2.6-.2.4 0 .7.3.9.5.3.3.5.5.9.5s.6-.1.9-.3c.2-.1.3-.3.4-.5l.1-.1c0-.1.1-.1.2-.1s.1.1.2.2c0 0 0 .1.1.1 0 .1.1.1.1.2l.1.3-.2-.2c-.1-.1-.2-.2-.2-.4l-.3.3c-.1.1-.1.2-.2.3-.3.4-.7.5-1.2.5-.4 0-.6-.3-.9-.6l-.3-.3c-.1-.1-.2-.2-.4-.2-.1 0-.3 0-.4.1-.2.1-.3.2-.4.5v.1c0 .1 0 .1-.1.2l-.2.2zM14.5 22.8l-.1-.2c.2-.1.5-.3.7-.4.3-.1.6-.1.9-.1v-.4c0-.2.1-.4.2-.5.1-.2.4-.2.5-.2H17.6c.3 0 .5.1.7 0h.3l-.2.2c-.1.1-.2.1-.3.1-.2 0-.4 0-.6-.1-.1 0-.3 0-.4-.1-.6 0-.8.2-.9.7v.1c0 .4-.1.4-.5.4s-.7.1-1.1.4c0 0 0 .1-.1.1zM26.3 19.7v-.4c0-.1 0-.2-.1-.4 0-.1 0-.2.1-.2.1-.1.2 0 .2 0 .6.3 1.2.4 1.8.2.6-.1.9-.5 1-1v-.1l.2-.4v.4c0 .4-.2.8-.6 1.1-.4.3-.8.3-1.1.4-.5 0-.9-.1-1.4-.3v.3l-.1.4z"/><path d="m12 24.3-.1-.1c0-.1.1-.1.1-.2.1-.1.2-.1.3-.1.6-.1 1-.3 1.4-.8l.1-.1h.1v.1s.1.1 0 .2c-.2.3-.5.5-.8.7.1 0 .2 0 .3.1l.3.3-.3-.1c-.2-.1-.5-.1-.8 0-.2.1-.4.1-.5.1 0-.1-.1-.1-.1-.1zM29.4 18.1v-.2c0-.1 0-.2-.1-.3-.1-.2-.1-.3 0-.4.1-.1.2-.2.4-.2.5-.1.9-.5 1.3-1v-.1s0-.1.1-.2h.2v.1c0 .2-.1.4-.2.5-.2.3-.5.5-.8.7-.2.1-.4.2-.6.2-.1 0-.1.1-.1.2s0 .2.1.2c.1.1.1.2 0 .3l-.3.2zM10.3 21.3c-.1-.1-.2-.1-.3-.3-.1-.1-.1-.2-.1-.3v-.1h.1c.1 0 .1.1.2.1.3.4.8.3.9.2.1 0 .2-.1.3 0l.1.1-.1.1c-.2.2-.5.2-.7.2-.2.1-.3 0-.4 0zM11.7 20.8c-.1-.1-.2-.2-.1-.2 0-.1.1-.2.1-.3 0-.1.1-.1.2-.1h.1v.1c0 .2-.1.4-.3.5z"/><path d="M11.3 21.2c-.1-.1-.1-.1-.1-.2 0 0 0-.1.1-.1l.1-.1c.1 0 .1-.1.2-.1H11.9v.1c-.2.2-.4.3-.6.4zM13.8 23.4l.1-.3.1-.1.3-.1v.1l-.2.2-.3.2zM12.7 19.1c-.1 0-.1-.1-.1-.1v-.1h.1c.4-.1.7-.2.9-.4.2-.2.4-.3.6-.5h.1s.1 0 .1.1v.2c0 .3-.2.5-.5.6-.4.2-.8.2-1.1.2h-.1zm1.6-.9c-.2.1-.3.2-.5.4s-.4.3-.7.4c.2 0 .5-.1.7-.2.2-.1.3-.2.4-.5l.1-.1zM23.7 19.3v-.1c0-.1.1-.1.2-.1.2-.1.5-.3.7-.5l.2-.2.3-.2-.1.3c-.1.1-.1.2-.2.2 0 0-.1 0-.1.1-.2.2-.5.4-.7.5h-.3zM14.2 24.2c-.1-.1-.3-.2-.3-.3-.1-.1-.1-.3 0-.4 0-.1.1-.1.1-.2l.2-.1-.1.2c-.1.3-.1.3.1.5l.1.1.1.2h-.2c.1 0 0 0 0 0z"/><path d="m23.5 19.5-.1-.1s0-.1.1-.2h.1l.1-.1.3-.1-.1.2c0 .1-.1.1-.2.1v.1h-.1c0 .1-.1.1-.1.1z"/><path d="m23.6 19.5-.2-.1H24l-.2.1c.1 0-.1.1-.2 0zM24.9 18.8l-.1-.2h-.1l.1-.1s0-.1.1-.1h.1c.1.1.1.2 0 .2l-.1.2zM12.1 24.3v-.2l1.3-.3-.3.2-.1.1v.1h-.2c-.2 0-.4.1-.5.1h-.2zM10.3 21.2c-.1-.1-.2-.1-.3-.2-.1-.1-.1-.2-.1-.2 0-.1-.1-.2 0-.3h.1c.1 0 .1.1.1.1.2.2.4.2.8.1.2-.1.5-.2.7-.3l.1-.1s.1-.1.2-.1.1.1.1.1c0 .1-.1.1-.1.2s-.1.2-.1.2l-.4.3h-.1c-.1 0-.2.1-.3.1-.3.2-.5.2-.7.1zm-.3-.5c0 .1 0 .1.1.1.2.2.4.3.7.2.1 0 .2-.1.3-.1h.1l.3-.3c0-.1.1-.2.1-.2-.3.2-.5.3-.8.4-.1.1-.5.1-.8-.1zM8.7 19c0-.1 0-.1 0 0-.2-.1-.3-.2-.3-.5 0-.2.2-.4.4-.5h.1c.3-.1.4 0 .6.3.1.1.1.4-.1.6-.2.1-.5.1-.7.1zm.5-.9H8.9c-.1 0-.3.2-.3.3 0 .2 0 .2.2.3.1.1.4 0 .5-.1.1-.1.1-.2 0-.4l-.1-.1z"/></g><path fill="none" d="M0 0h45v45H0z"/><path fill="none" d="M4.5 4.5h36V18h-36z"/><path fill="#010101" d="M7.3 11.6 5.6 4.9h1.5c.7 3.1.9 4.4 1 5.2.3-1.3.9-3.6 1.3-5.2h1.3c.3 1.3 1 3.9 1.2 5.1.2-1.5.9-4.1 1.1-5.1h1.4l-1.8 6.7h-1.5c-.4-1.5-.9-3.6-1.2-4.8-.1 1.2-.8 3.4-1.1 4.8H7.3zM16.8 8.9v2.7h-1.4V4.9h2.9c1.5 0 2.2.8 2.2 1.8 0 .9-.5 1.4-1 1.6.3.1.8.5.8 1.7v.3c0 .5 0 1 .1 1.3H19V10c0-.7-.2-1.1-1.3-1.1h-.9zm0-1.1H18c.8 0 1.1-.3 1.1-.9 0-.6-.4-.9-1.1-.9h-1.2v1.8zM26.5 8.7h-3.2v1.7h3.5l-.2 1.2h-4.8V4.9h4.8v1.2h-3.3v1.4h3.2v1.2zM33.6 9.5c-.3 1.2-1.2 2.2-2.9 2.2-2.1 0-3.1-1.5-3.1-3.4 0-1.8 1-3.5 3.2-3.5 1.8 0 2.6 1 2.8 2.2h-1.4c-.1-.5-.5-1-1.4-1-1.2 0-1.7 1.1-1.7 2.3 0 1.1.4 2.3 1.7 2.3.9 0 1.2-.6 1.4-1h1.4zM34.7 4.9h1.4v3c.4-.5 1.8-2 2.7-3h1.7l-2.7 2.8 2.8 3.9h-1.7l-2.1-3-.7.7v2.3h-1.4V4.9z"/><path fill="none" d="M27 27h13.5v13.5H27z"/><g fill="#010101"><path d="M32.2 38.9c.1.6.5.8 1.2.8.6 0 .9-.3.9-.7 0-.5-.3-.7-1.2-.9-1.5-.4-1.9-.9-1.9-1.7 0-1 .7-1.6 2.1-1.6 1.5 0 2.1.8 2.2 1.6h-1.2c-.1-.3-.2-.7-1-.7-.5 0-.8.2-.8.6 0 .4.2.5 1.1.8 1.6.4 2 1 2 1.8 0 1-.8 1.7-2.2 1.7-1.4 0-2.2-.7-2.3-1.7h1.1zM38.5 40.5v-1.2h-2.4v-1l2.2-3.1h1.3v3.2h.6l-.1.9h-.5v1.2h-1.1zm0-3.1v-1.2c-.2.4-.9 1.5-1.4 2.2h1.4v-1z"/></g></svg>