<svg version="1.2" baseProfile="tiny" xmlns="http://www.w3.org/2000/svg" viewBox="0 0 45 45" overflow="visible" xml:space="preserve"><path fill="#DAA628" d="M-346.5-4.5h576v99h-576z"/><path fill="#FFF" d="M26.5 22.1v1.6L23 27.2h-1.3l-1.8-1.4 5.4-5.5 1.2 1.7M10.8 5.4 5 10.9l14.9 14.9 5.4-5.6L10.8 5.4"/><path fill="none" d="M0 .6h44.4V45H0z"/><path d="M26.6 22.7v.9c0 .1-.1.2-.1.3-.7.7-1.3 1.5-2.1 2.1-.4.4-.8.7-1.1 1.1-.1.1-.2.1-.3.1h-1.2c-.1 0-.2 0-.3-.1l-.8-.8c-.1-.1-.1-.2 0-.3l.8-.8c.1-.1.2-.1.1-.2s-.2 0-.2.1c-.1.1-.2.1-.3.1-.1 0 0-.2-.1-.3-.1.2-.3.3-.2.6 0 .1 0 .2-.1.3l-.3.3-.1.1c-.2-.1-.6 0-.8-.3-.2-.2-.3-.4-.5-.5-.5-.4-.9-.9-1.3-1.3-.5-.4-.9-.9-1.4-1.3-1.1-1-2.1-2.1-3.2-3.2-.1-.1-.3-.2-.5-.1s-.4 0-.5-.2l-3.5-3.5c-1.3-1.2-2.5-2.5-3.8-3.7-.2-.2-.2-.3 0-.5.1 0 .2-.1.1-.2-.1-.3.1-.3.3-.4.4-.7.8-1 1.2-1.4.3-.3.6-.4.9-.7.1-.1.2-.2 0-.3-.1-.1-.1-.1 0-.2 0-.1 0-.2-.1-.3-.1-.1 0-.2.1-.2.2 0 .3-.1.4-.2.1 0 .1-.1.2 0 .2.1.3-.1.5 0 .1 0 .1-.1.2-.2-.1 0-.2.1-.3.1 0-.1.1-.2.1-.2.4-.2.6-.5.9-.8.3-.2.5-.5.7-.7.1-.2.2-.2.4-.2.1 0 .2-.1.3-.2.1-.1.1-.1.2 0l1.9 1.9c.6.5 1.2 1 1.8 1.6.3.2.5.5.8.8.1.1.2.1.3 0l.5-.5c.1-.1.1-.1.2 0s0 .2 0 .2c-.2.2-.3.4-.5.5-.1.1-.1.2 0 .3l2.4 2.4c.2.2.3.4.2.7-.1.1 0 .3.1.4 1.5 1.5 3 3 4.5 4.4l.9.9c.4.3.6.7 1 1 .2.2.2.5.3.8.1.1-.1.2-.2.3-.1.1-.2.4-.5.2-.1 0-.3.1-.4.2v.1h.1c.1 0 .2 0 .2.1s0 .2-.1.2l-.1.1c-.1.1-.1.1-.1.2.1.1.2 0 .2-.1.3-.2.5-.5.7-.8.2-.2.3-.2.5 0l.8.8c.3.1.2.3.2.5-.1 0-.1-.1-.1-.2s0-.2-.1-.2l-.9-.9c-.1-.1-.1 0-.2 0l-.8.8s-.1.1-.1.2c.1.1.2 0 .2-.1.2-.2.5-.4.7-.7.1-.1.1-.1.2 0l.5.5c.1.1.1.1.3.1-.1.2.1.3-.1.5l-.7.7c.2.1.4 0 .5.1l.1.1c.1 0 .1-.1.1-.2v-.7c.1.1 0 .3.1.5v.4c0 .1.1.1.1.2.1 0 .1-.1.1-.1 0-.2.1-.3 0-.5.1-.1.1-.1.1-.2-.1-.1-.1-.2 0-.3zM14 15.6c-.1.1-.4.1-.5.3.2-.1.5-.2.7-.4h.3c0 .1-.1.1-.2.1s-.4 0-.4.2c0 .1.2.2.3.3.1.1.1.1 0 .2s-.2.1-.1.2.2.2.4.3c.1 0 .1-.1.1-.1-.1-.1 0-.3-.1-.3-.1-.1-.1-.2 0-.2l.4-.4c.1-.1.1-.1 0-.1.2-.1.4 0 .6.1l.6.3-.2-.2c-.3-.2-.7-.2-1-.3h.3c.1 0 .1 0 .1-.1s-.1-.1-.1-.1h-.1l.1-.1c.2 0 .5.2.7 0 .1 0 .2-.1.2-.2s-.1-.1-.1-.2c-.1-.1-.1 0-.2.1-.1 0-.1.2-.2 0-.3-.4-.7-.7-1.1-1.1-.1-.1-.2-.1-.3 0-.3.3-.6.7-1 1-.1.1-.2.1-.1.2s.1.2.3.1h.2c.1.2.3.1.4.1.1 0 .2-.1.3-.1l.1.1c-.2.1-.5.1-.7.3.2.1.2-.1.3 0zm8.1 11.3h-.3s-.1 0-.1.1c0 0 0 .1.1.1s.3.1.3-.1c.1.1.3.1.4 0 .3.1.6 0 .8-.3.6-.7 1.3-1.3 2-2 .3-.3.6-.6.9-1-.2-.1-.4 0-.6-.1.1.1.2.2.1.3-.8.8-1.5 1.6-2.4 2.4-.1.1-.2.2-.2.3 0 .1-.1.2-.1.1-.1-.2-.3 0-.4-.1.3-.1.3-.1.2-.3.2-.1.2-.1.3.1.1-.2 0-.4-.2-.4-.1 0 0 .2-.1.3v.1c-.1-.1 0-.3-.1-.4l-.6.6c.1 0 .1.1.2.1 0 .2-.1.2-.2.2zm-4-10.5c.1 0 .1-.1.2-.1.2-.2.5-.4.5-.7 0 0 .1-.1 0-.1s-.2 0-.2.1c-.3.2-.6.5-.7.8-.2 0-.3 0-.4-.2l-.6-.6c-.1 0-.1-.2-.2-.1s0 .2.1.2l.8.8c.1.1.2.2.3.2 0-.1-.1-.3 0-.4.1.1 0 .2.1.3-.2-.1.1 0 .1-.2zm-5.4 2.2h-.1c.1.1.2.3.4.3 0-.2-.2-.2-.3-.3.1 0 .1-.1 0 0-.3-.4-.6-.7-.9-1 0 0-.1-.2-.2-.1s0 .2 0 .2c.4.3.7.7 1.1.9zm-7.7-7c.1.1 0 .3.1.4.3.2.5.5.8.7.8.7 1.5 1.5 2.3 2.3.1.1.2.1.3 0 .1-.1 0-.2-.1-.3l-1.8-1.8-1.5-1.5c0 .1 0 .2-.1.2v-.3c-.1 0-.1.1-.2.1 0 0-.1.1 0 .2s.1.2.2.2v-.2zm6.7-.9.9.9c.1.1.1.2.3 0 .2-.2.4-.5.7-.7.1-.1.1-.1 0-.2-.3-.3-.6-.5-.8-.8-.1-.1-.2-.1-.3 0-.3.3-.6.5-.8.8-.1-.1-.1-.3-.4-.2.1 0 .1.3.4.2zm-.7-5c.1 0 .2-.1.1-.2-.2-.2-.3-.2-.4.2 0 0 .2-.1.3 0-.1.1-.2 0-.3.1 0 0 0 .1.1.1l2.5 2.5.8.8c.1.1.1.1.3 0 .1-.1.1-.2 0-.3l-3-3c-.2-.1-.3-.2-.4-.2zM9 7.5c.5-.4.8-.8 1.2-1.2.2-.2.3-.2.4 0l3.9 3.9c.1.1.2.1.3 0-.3-.3-.6-.6-.9-.8 0 0 .1 0 .1.1-.2-.1-.3-.3-.4-.4-.5-.6-1.1-1.1-1.6-1.6-.3-.3-.6-.5-.8-.8-.1-.1-.3-.1-.3-.2-.1-.3-.3-.4-.4-.5-.1-.1-.1-.1-.2 0L8.8 7.5c.1-.1 0 0 .2 0h-.3c.2.3.2.3.5.1l.4-.4c-.1 0-.2.1-.2.2-.2 0-.2.2-.4.1zm11.3 9.8c-.2.1-.3.3-.4.4l-2.2 2.2c-.1.1-.1.1-.1.3l1.6-1.6-1.5 1.5c-.1.1-.1.1 0 .2s.2 0 .2 0l2.7-2.7c.1-.1.1-.2 0-.3-.1-.1-.1 0-.3 0-.2.4-.5.7-.8 1l1-1c-.1-.1-.2-.1-.2 0 .2-.2.1-.4-.1-.6 0-.1-.1-.1-.1-.2-.1-.1-.1-.2-.2 0-.8.9-1.7 1.7-2.6 2.6-.4.4-.4.4 0 .8.2.2.3.1.4 0 .1-.1.2-.2.3-.4.1-.1.2-.2 0-.3-.1 0-.1-.1 0-.2.3-.2.5-.4.7-.6 0 0 .1-.1.1 0 .1.1 0 .1-.1.1l-.5.5c0 .1-.1.1-.1.2.1.1.1 0 .2-.1l1.5-1.5c.2-.1.3-.2.5-.3zm-.1 2.6.4.4c.3.1.4.3.6.5.2.3.5.5.8.8 0 0 .1.1.2.1.2-.1.3 0 .3.2 0 .1 0 .1.1.2s.1 0 .2-.1l.4-.4c.2-.1.2-.2.1-.4l-2.1-3.3c-.1-.1-.2-.4-.3-.4-.1 0-.3.2-.4.3l-1.8 1.8c-.1.1-.2.2-.1.2.3 0 .4.2.4.5l.5.5c.2.1.3.5.7.4 0 0 .2.1.1.2-.1.2.1.3.2.4l.6.6c.1.1.2.2.3.2.1 0 .2.1.2.3 0 .1 0 .1.1.1s.1.1.2 0l.6-.6c.1-.1.1-.1 0-.2 0-.1-.1-.1-.2-.1-.2.1-.3 0-.3-.1.1-.2-.1-.3-.2-.4l-.6-.6c-.1-.1-.1-.2-.3-.1-.1 0-.2-.1-.2-.2.1-.2-.1-.2-.1-.3-.2-.2-.3-.3-.4-.5zM10.8 12c-.1.1-.3.2-.3.4s.2.2.3.3c.3.4.7.8 1.1 1.1.1.1.2.1.3 0l1-1c.1-.1.2-.3 0-.4-.5-.4-.9-1.1-1.5-1.4-.1-.3-.4-.4-.5-.6l-.8-.8c-.1-.1-.2-.1-.3 0-.2.3-.3.4-.5.5-.2.1-.1.2 0 .4l1.3 1.3c-.4-.3-.8-.7-1.2-1.1-.4-.4-.3-.4-.7 0-.1.1-.1.2 0 .3l1 1c.4.3.4.3.8 0zm7 10.3c0-.1-.2-.2-.3-.2-.1-.1-.1-.2-.2-.3h-.1c-.2.1-.2 0-.3-.2 0-.1-.1-.1-.2-.1s-.2.1-.1.2 0 .2-.1.3c-.3.4-.3.4 0 .7.1.1.1.1.2.1s.2.1.2.2c0 .2.1.2.2.3l1.5 1.5.7.7c.3.2.6.2.9 0 .2-.2.3-.4.3-.6.1-.2.1-.4-.1-.6-.1-.1-.1-.1.1-.1.1 0 .2-.1.2-.2s-.1-.2-.2-.2c-.3 0-.4-.3-.7-.3-.1 0-.1-.1-.1-.1 0-.1 0-.1-.1-.1-.6-.4-1.3-.8-1.9-1.2 0 0-.1-.1-.1 0 .2.1.3.1.2.2zm6.8-1.1c.2-.2.4-.3.4-.5s.1-.3-.1-.5l-.5-.5c-.2-.3-.6-.5-.9-.8-.3-.4-.8-.8-1.2-1.2-.1-.1-.3-.1-.3-.2 0-.2-.2-.3-.3-.4-.1-.2-.2-.2-.3 0-.1.1-.2.4-.5.3v.3c0 .1.1.2 0 .3 0 .1.2 0 .3.2.1.1.1.2.2.3-.1.1-.1.1 0 .2.5.6.7 1.5 1.4 2 .2.1.1.4.3.6v.1c0 .1 0 .1.1.2s.1 0 .2-.1.1-.2.1-.3c.4.3.7.2 1.1-.1.1 0 0 0 0 .1zm-6.2-.2.4.4c0 .1.2.1.1.2s-.2 0-.2-.1l-.9-.9c-.1-.1-.1-.1-.2 0l-.6.6c-.1.1-.1.1 0 .2.2.1.4.3.7.4 1 .6 2 1.2 3 1.9.1.1.2.1.3 0 .1-.2.3-.3.5-.5.1-.1.1-.1.1-.2s-.1-.1-.2-.1c-.2.1-.3-.1-.2-.2 0-.1 0-.2-.1-.2l-.8-.8c-.1-.1-.1-.1-.2-.1s-.3-.1-.2-.2c0-.1 0-.2-.1-.2l-.7-.7c-.1-.1-.2-.3-.4-.2 0 0-.1 0 0-.1v-.1c-.1 0-.1 0-.1-.1v-.1h-.1c-.5.3-.5.4-.1.8-.1.2 0 .3 0 .3zM7.8 8.5c-.2.2-.5.4-.7.7-.1 0-.2.1-.1.2s.2.2.3.1c.1-.1.2 0 .3 0 .3.4.7.7 1 1.1.1.1.2.2.4 0l1-1c.1-.1.1-.2 0-.3-.3-.3-.7-.6-1-1l-.1-.1c-.2 0-.2 0-.1-.1.1-.2 0-.2-.1-.3-.1-.1-.2 0-.2.1-.2.1-.5.3-.7.6zm5.8 5.8c.2-.2.5-.4.7-.7.1-.1.1-.4-.1-.4-.3-.1-.4-.2-.6-.4-.1-.1-.2-.1-.3 0L12.1 14c-.1.1-.1.2 0 .3.2.2.3.3.4.6.1.2.2.2.4 0 .3-.2.5-.4.7-.6zm-6-.9-.6-.6c-.5-.5-1-1-1.5-1.4-.1-.1-.1-.2 0-.3l.6-.6s.1-.1.1-.2c-.1-.2 0-.2.1-.3l.3-.3s.1 0 .1-.1v-.1c-.1 0-.1 0-.1.1L5.2 11s-.1.1-.1.2c.2.2.3.5.6.5.1 0 .1.1.1.1-.1.1 0 .2.1.2L8 14.1c.2.2.4.5.7.6l.1.1c.1.2.2.3.2.3.4.4.7.8 1.2 1.1.1.1.1.2.2.3l.9.9c.1.1.1.1.2 0s0-.2-.1-.2l-.9-.9c-.1-.1-.2-.4-.5-.2 0 0-.1 0-.1-.1l-.3-.3-.1-.1c.1-.1 0-.2-.1-.3-.5-.6-1.2-1.3-1.8-1.9zm9.5 2.5.4.4c.1.1.2.1.3 0 .2-.3.4-.6.8-.8.1-.1.2-.2 0-.3-.3-.2-.5-.5-.7-.7-.1-.1-.2-.1-.3 0l-.8.8c-.1.1-.1.2 0 .3.1 0 .2.1.3.3zM12 14.2l-.4-.4c-.1-.1-.2-.1-.3 0l-.7.7c-.1.1 0 .1 0 .2l.5.5c.5.5.5.5 1 0 .4-.5.4-.5-.1-1zm2.9-.2c.2.1.3.3.5.4.1.1.1.1.2 0 .2-.3.5-.4.7-.7.1-.1.1-.2 0-.3l-.5-.5c-.4-.4-.4-.4-.8 0-.6.5-.6.5-.1 1.1zm-7.7-2.2c-.2-.1-.3-.3-.5-.4l-.5-.5c-.2-.2-.3-.2-.5 0 0 0-.1.1 0 .1.1.1.1 0 .2 0 .3-.2.4 0 .5.2.2.1 0 .2 0 .3-.1.1-.3.3-.1.5.5.5.9 1 1.4 1.4 0 0 .1.1.2 0s.2-.2.3-.4c.1-.1.1-.2 0-.3-.3-.2-.6-.5-1-.9zM11.7 9c-.2-.1-.3-.3-.4-.4-.1-.1-.2-.1-.2 0l-.6.6c-.1.1-.1.1 0 .2.3.3.5.6.8.8.1.1.2.1.2 0l.6-.6c.1-.1.1-.2 0-.3-.1 0-.2-.2-.4-.3zm-3.4 3.4.4.4c.1.1.2.1.3 0l.6-.6c.1-.1.1-.1 0-.2l-.6-.6c-.3-.3-.3-.3-.6 0l-.1.1c-.5.4-.5.4 0 .9 0-.1 0-.1 0 0zm1.4 1.3c.1.1.3.2.4.4.1.1.2.1.3 0l.7-.7c.1-.1 0-.1 0-.2l-.9-.9c-.1 0-.1-.1-.2 0-.2.2-.5.4-.6.7-.1.1-.1.2 0 .3 0 .2.2.3.3.4zm1.4-5.8.8.8c.4.4.4.4.8 0 .1-.1.1-.2 0-.3l-1.2-1.2c-.2-.2-.4-.2-.6 0-.1.1-.2.2-.3.1-.3-.2-.3-.3-.1-.6 0-.1 0-.1-.1-.1s-.2.2-.3.3c-.1.1.1.1.1.2.3.1.6.4.9.8zm-.9-.4c0-.1-.2-.1-.3-.3-.1-.1-.2-.1-.3 0-.1.2-.3.5-.6.7v.2c.3.3.5.6.8.8.1.1.2.1.3 0 .2-.2.4-.5.7-.7.1-.1.1-.1 0-.2-.2-.1-.4-.3-.6-.5zm2.2 11.2-3.6-3.6c-.1-.1-.2 0-.2 0-.1.1-.1.1 0 .2l3.2 3.2c.2.3.4.3.6.2zM6.9 11l.4.4c.1.1.2.1.3 0 .2-.2.4-.4.7-.6.1-.1 0-.2 0-.2l-.8-.8c-.1-.1-.2-.2-.3-.1-.1.1-.3.2-.3.4 0 .4 0 .4-.4.4h-.1c0 .1 0 .1.1.1.1.1.3.2.4.4zm8.3 6 .1.1c.4.4.3.4.7 0 .6-.5.6-.7-.1-1.2-.4-.3-.4-.3-.7.1l-.1.1c-.4.4-.4.4 0 .7 0 .1 0 .2.1.2zm-.3-5.8c-.2.1-.2.2 0 .3.6.5 1.1 1.1 1.7 1.7.1.1.1.2.2.1.2-.1.3-.3.5-.4 0 0 0-.1-.1-.1l-.7-.7v.1c-.1.1-.2.3-.4.2-.1 0-.2-.1-.2-.2-.2-.2 0-.2.1-.3.1-.1.1-.1 0-.2l-.7-.7c-.1-.1-.2-.1-.2 0 0 .2-.2.2-.3.3 0 0 .1 0 .1-.1zm10.2 11.7s0 .1 0 0c.5.5.5.5.9.1.5-.5.4-.6 0-1s-.4-.4-.8 0c-.6.5-.6.5-.1.9zm-5.8-6.7c-.5.4-.8.7-1.2 1.1 0 0-.1.1 0 .1.1.1 0 .2-.1.3L16.7 19c-.1.1-.1.2 0 .3.1.1.2.1.3 0l.4-.4 2.4-2.4c.1-.1 0-.6-.2-.6-.1.1-.1.3-.2.3-.1.1 0 .1.1.2s.1.2 0 .3l-.6.6c-.1.1-.1.2-.3.1-.1-.1-.2-.2 0-.3.2-.3.5-.6.7-.9zm3 9.5-.3-.3c-.1-.1-.1-.1-.2 0l-.6.6c-.1.1-.1.2 0 .3l.6.6c.1.1.3.1.4 0l.2-.2c.4-.6.4-.6-.1-1zM14 11.2c-.2.1-.8.7-.9.8-.1.1 0 .1 0 .2.2.3.6.6.8.8.1.1.2.1.2 0l.7-.7c.1-.1.1-.2 0-.3-.6-.5-.3-.5-.9 0-.2.2-.3.1-.4 0-.2-.1-.2-.3 0-.4.2-.1.4-.2.5-.4zm-2.9 5.6c.1 0 .1-.1.1-.1.1-.1.2-.3.3-.2.1 0 .2.1.3.3 0 .1-.1.2-.2.3 0 0-.2 0-.1.1 0 .1.1.2.2.1l.3-.3c.1-.1.1-.2 0-.3l-1.5-1.5c-.1-.1-.2-.2-.1-.4l-.6.6h.2c.1-.1.2-.1.4 0 .1.1.1.2 0 .3-.1.1 0 .2.1.3.1.3.4.5.6.8zm7-3.6c0-.2.1-.4 0-.6l-2.3-2.3c-.1-.1-.1-.1-.2 0s-.2.1-.1.2c0 .1.1.1.1.2l2.5 2.5zm-3.4 5.2c0-.1.1-.2.1-.2s.1-.1 0-.1c-.1-.1-.2-.3-.2-.4-.1-.1-.1-.1-.2 0l-.5.5c-.1.1-.1.1 0 .2l.4.4c.5.5.5.5 1 0 .1-.1.1-.1 0-.2s-.2-.3-.3-.3c-.1-.1-.1 0-.3.1.1 0 0 0 0 0zm3.9-2 .6-.6c.1-.1.1-.2.1-.3-.2-.4-.4-.8-.7-1.2-.2-.3-.3-.6-.5-.9 0 0-.1-.2-.2-.1 0 .1-.1.1 0 .2.3.6.6 1.2 1 1.8.2.3.1.4-.1.6-.4.3-.7.7-1 1-.1.1-.1.1 0 .2s.2 0 .2 0c.2-.3.4-.5.6-.7zm-5.7-.4.3-.3c.1-.1.1-.2 0-.2-.2-.1-.3-.4-.5-.3-.3.2-.5.5-.8.8-.1.1 0 .1 0 .2l.2.2c.3.3.3.3.5 0 .1-.2.2-.3.3-.4zm2.8 4.7c.1.1.3.2.4.2.3.2.3.2.6-.1l.5-.5s.1-.1 0-.2c0 0-.1-.1-.1 0-.2.2-.4.3-.5.6 0 .1 0 .1-.1.1s-.1-.1-.2-.1c0-.1 0-.1.1-.1.2-.1.3-.3.5-.4.1-.1.2-.1.1-.2s-.2-.3-.4-.1c-.3.2-.6.5-.9.8zM14.4 17c-.1-.3-.3-.5-.6-.6-.2-.1-.3.2-.4.3-.1 0-.1.1-.1.1-.1.1-.1.2 0 .3l.4.4c.1.1.2 0 .3 0 .2-.1-.1-.5.3-.4-.2-.2 0-.1.1-.1zm10.1 5.8c-.2-.1-.3-.1-.5.1l-1.8 1.8c-.1.1-.2.1-.1.3.1.1.2 0 .2-.1l1.5-1.5c.3-.2.4-.5.7-.6zm-9.3-3.5c-.1.1-.1.1-.3.1-.4-.2-.6-.5-.9-.8-.1-.1-.2-.2-.4 0l-.1.1c-.2.1-.1.2 0 .2.4.2.7.4 1 .6.4.2.5.1.7-.2zm.4-8.4-.2-.2c-.1.1-.1.2 0 .3l1.5 1.5c.1.1.1.2.2.1s0-.2-.1-.2l-1.3-1.3-.1-.1c-.1 0-.2-.1-.2-.2.1 0 .2 0 .2.1zm.4 3.2-.3.3c-.1.1-.1.1 0 .2.2.4.4.4.7.1l.2-.2c.1-.1.1-.2 0-.3-.3-.4-.3-.4-.6-.1zm-3.3 4.3c-.1-.3-.2-.6-.1-.9 0-.3-.2-.4-.3-.5-.1-.1-.2.1-.3.2 0 0 0 .1-.1.1-.1.1-.1.2 0 .3.2.2.5.4.8.8zm2.8-5.9c.3.3.6.6.9.8.1.1.1.2.2.1s0-.2-.1-.2l-1.7-1.7c-.1-.1-.1-.2-.2-.1s0 .2.1.2c.2.4.5.7.8.9zm-9.2-2c.8.9 1.6 1.7 2.5 2.5-.8-.9-1.6-1.7-2.5-2.5zm8-.1c-.3.2-.3.2-.6-.1-.1-.1-.1-.1-.1-.2-.4-.4-.4-.4-.2-.8.1-.2 0-.2-.1-.3-.1-.1-.2 0-.2.1l-.2.2c-.1.1-.1.2 0 .3.4.3.7.7 1 1 .1.1.2.1.3 0 0-.1.1-.1.1-.2zm4.4 4.8c0-.1 0-.2-.1-.3-.2-.3-.4-.6-.5-.9-.2-.4-.2-.4-.5-.1-.1.1-.2.2-.1.3.1.1.2.1.3.1l.1-.1c-.1.2-.1.2 0 .3.3.2.6.4.8.7zm-8.9-.3c.4-.3.3-.2 0-.5-.2-.2-.4-.5-.7-.7-.4-.4-.4-.4-.8 0-.1.1-.2.1-.1.2s.2.2.3.1c.2 0 .3 0 .4-.1.1-.1.2-.1.3 0 .1.2.3.4.5.5.3.2.2.3.1.5zm1.5 1 .8.8c.1.1.1.1.2.1.1-.1 0-.1 0-.2-.5-.5-1-1.1-1.6-1.5-.1-.1-.1-.1-.2 0s0 .1.1.2c.2 0 .5.3.7.6zm8.1-1.3c.2.5.6 1 .9 1.5.1.1.2.1.2 0s.3-.1.1-.3c-.4-.5-.8-.9-1.2-1.2zm-3.3 3.8c.2.2.2.2.5-.1.2-.2.1-.2 0-.3-.3-.3-.2-.4-.5-.1-.2.2-.2.2 0 .5zm5.5 8.6c.1-.1 0-.2 0-.3l-.5-.5c-.1-.1-.1-.2 0-.3l.6-.6s.1-.1 0-.2-.1 0-.2 0c-.3.3-.5.6-.8.8-.1.1-.1.1 0 .2.4.3.6.6.9.9zm-4.9-8.1 1.2-1.2c0-.1.2-.1 0-.2-.1-.1-.2 0-.2 0l-.9.9c-.1.1-.1.3-.1.5zm-3.7-.5.3-.3c.3-.3.3-.3 0-.6-.2-.2-.3-.1-.4-.1-.1 0 0 .2 0 .3-.1.3-.1.5.1.7zm9.6 4.8.9-.9s.1-.1.1-.2c-.1-.1-.1 0-.1 0l-1.8 1.8s-.1.1 0 .1.1 0 .1-.1c.2-.1.5-.4.8-.7zm2.5.8c-.1-.3-.4-.4-.6-.6-.1-.1-.2-.1-.2 0-.1.1-.1.1 0 .2.1.2.3.3.5.5 0 0 .2 0 0 .1-.1 0-.1 0 0 .1 0 .1.1.1.1 0l.3-.3s.1-.1 0-.1-.2-.2-.3-.3c0 .2.2.2.2.4zm-10-14.4c-.1-.1-.2-.2-.4-.3-.1-.1-.1-.1-.2 0 0 .1-.2.1-.1.2.2.2.4.5.8.7.1.1.2 0 .2-.1.1-.1 0-.1-.1-.2 0-.1-.1-.2-.2-.3zm-2.8-.1s.1-.1 0 0c-.8-.9-1.6-1.7-2.4-2.6l-.1.1 2.5 2.5zM7.9 8.3l.3-.3c.1-.1.1-.1 0-.2-.2-.1-.4 0-.6.1-.2.2-.2.4-.2.6 0 .1.1.2.2.1.1-.2.2-.2.3-.3zm16.3 17.2.6-.6s.1-.1 0-.2-.1 0-.2 0l-1.2 1.2c-.1.1-.1.1-.1.2.1.1.1 0 .2-.1.3-.1.5-.3.7-.5zm-9.9-5c.3.3.5.6.8.8.1.1.2-.1.3-.2.1 0 .1-.1 0-.2s-.3-.3-.5-.3-.4 0-.6-.1zm9.4 1.2c0 .1 0 .1 0 0 .6.6 1.1 1.2 1.6 1.7 0 0 .1.1.1 0 .1-.1 0-.1 0-.1l-.9-.9c-.2-.1-.3-.3-.5-.4-.1 0-.1-.2-.3-.3zM12.9 17c.3-.2.6-.5.9-.8.1-.1.1-.1 0-.2 0-.1-.1-.1-.2 0-.3.3-.6.6-.7 1zm8.3 7.3c0 .3.2.3.4.5.3.4.8.8 1.2 1.2 0 0 .1.1.1 0v-.1l-.4-.4c-.5-.4-.9-.8-1.3-1.2zm2.1-2.7c-.8.8-1.5 1.5-2.3 2.2 0 0-.1.1 0 .1s.1 0 .1-.1c.6-.7 1.3-1.3 1.9-2 .2 0 .3-.1.3-.2zm.4.7c-.1-.1-.1 0-.2 0-.6.6-1.2 1.2-1.8 1.9 0 0-.1.1 0 .1.1.1.1 0 .1 0l.9-.9c.3-.4.7-.7 1-1.1zm-7-4.4v-.1c0-.1 0-.6-.1-.6-.2 0-.2.2-.3.3l-.1.1c-.4.4-.4.4-.8 0l-.1-.1.1.1.3.3c.1.1.2.1.3 0 .3-.3.3-.3.7 0-.1-.1 0-.1 0 0zm.3 2.9-.3.3s-.1.1 0 .2.2.1.2 0c.2-.2.5-.4.6-.7 0-.1.1-.1 0-.1-.1-.1-.1-.1-.2 0 0 .1-.1.2-.3.3zm-.9-3.7c-.1.1-.2.2-.4.3-.1.1-.1.1 0 .2s.1.1.2 0l.6-.6c.1-.1 0-.2 0-.3-.1-.1-.1 0-.2.1 0 .1-.1.2-.2.3zm-5.2-3 .3-.3c.1-.1 0-.1 0-.2-.1-.1-.1-.1-.2 0l-.5.5c-.1.1-.1.1 0 .2s.1.1.2 0l.2-.2zm12.4 7.8c-.7.6-1.4 1.3-2 1.9.7-.6 1.3-1.2 2-1.9zm-1.5 2.5c.7-.6 1.4-1.2 2.1-1.9l-.1-.1-2 2zm1.6-2.4c-.7.6-1.4 1.3-2 2 .7-.6 1.4-1.3 2-2zM8 11.2c-.1.1-.1.2-.2.2-.1.1-.1.1 0 .2s.1.1.2 0l.5-.5c.1-.1.1-.1 0-.2s-.2-.1-.2 0c-.2.1-.2.2-.3.3zm15 12.6.9-.9c0-.1.2-.1.1-.2s-.2 0-.2.1l-.6.6c-.2.1-.2.2-.2.4zm1.3 1.2c.1-.1.2-.2.2-.3 0-.1.2-.1.1-.2s-.2 0-.3 0l-.6.6c-.1.1 0 .1 0 .2.1.1.1 0 .2 0 .2-.1.3-.2.4-.3zM12 10.2l.3-.3c.1-.1.1-.1 0-.2s-.1-.1-.2 0l-.5.5c-.1.1 0 .1 0 .2.1.1.1.1.2 0 .1 0 .1-.1.2-.2zm2.8 2.8.3-.3c.1-.1 0-.1 0-.2-.1 0-.1-.1-.2 0l-.5.5c-.1.1-.1.1 0 .2s.1.1.2 0c0-.1.1-.2.2-.2zm-4.2-4.1.3-.3c.1-.1.1-.1 0-.2s-.1-.1-.2 0l-.5.5c-.1.1-.1.1 0 .2s.2.1.2 0l.2-.2zm4.9 9.2-.2-.2s-.1-.1-.2 0 0 .1 0 .2l.3.3.3.3c.1.1.2.2.3.1.1-.1 0-.2-.1-.3-.2-.1-.3-.3-.4-.4zm1.1 1.5-.6.6c-.1.1-.1.1-.2 0-.2-.2-.2.1-.3.1-.1 0-.1.1 0 .2s.2.2.3 0c.2-.3.5-.5.7-.7.1 0 .1-.1.1-.2zm-3.4-8.2-.3.3c-.1.1 0 .1 0 .2.1.1.1.1.2 0l.5-.5c.1-.1 0-.1 0-.2-.1-.1-.1-.1-.2 0l-.2.2zm-3.8 1.1c-.1.1-.1.2-.2.2-.1.1-.1.1 0 .2 0 .1 0 .1.1.1l.5-.5c.1-.1.1-.1 0-.2s-.1-.1-.2 0-.2.1-.2.2zm2.9 3 .3-.3c.1-.1.1-.1 0-.2s-.1 0-.2 0l-.5.5c-.1.1-.1.1 0 .2s.1.1.2 0c0-.1.1-.2.2-.2zm4.3-2c.2-.1.3 0 .3.2l.3-.3c.1-.1.1-.2 0-.3-.1-.1-.2-.1-.3 0-.1.1-.2.3-.3.4zm-6.4 1c-.1-.3-1.1-1.3-1.4-1.3.5.5 1 .9 1.4 1.3zM23.4 24l-.3.3c-.1.1-.2.1 0 .2.1.1.2 0 .2-.1.1-.2.3-.4.5-.5 0 0 .1-.1.1-.2v-.1h-.1l-.4.4zm1.7.8c-.6.5-1.1 1-1.6 1.5.6-.4 1.1-1 1.6-1.5zm-11.2-4.9c.3.2.5.5.8.6 0 0 .1.1.1 0s.1-.2 0-.2c-.3-.2-.6-.4-.9-.4zm-.7-1.5c.1.1.3.2.4.1.1 0 .2-.1.2-.2s.1-.2-.1-.3c-.2-.1-.2 0-.3.1-.1.1-.2.2-.2.3zm9.6 5.3-.7.7c-.1.1 0 .1 0 .2.1.1.1 0 .1-.1l.5-.5c.1-.1.2-.2.1-.3zm-5.4-10c.1-.1.2-.2.3-.2.1-.1 0-.2 0-.2s-.1-.1-.1 0c-.1.3-.3.4-.5.6v.2c.1.1.1 0 .2 0-.1-.2 0-.3.1-.4zM5.1 10.9c.6-.5 1.1-1 1.5-1.5-.4.5-1 1-1.5 1.5zm7.5-1.3c-.1 0-.1 0 0 0 .3.5.8.9 1.2 1.3l.1-.1c-.5-.4-.9-.8-1.3-1.2zm4.3 5c-.1.1-.2.3-.4.4 0 0-.1.1 0 .1h.1c.3-.2.5-.5.8-.8v-.1c-.1-.1-.1 0-.1 0-.1.2-.2.3-.4.4zM17 18l.7-.7c.1-.1.1-.1 0-.2 0 0-.1-.1-.1 0-.1.1-.3.2-.4.4 0 .1 0 .1-.1.2-.2.1-.2.2-.1.3zm4.1-1.3s-.1-.1 0 0c-.1-.2-.3-.3-.2-.5 0-.1 0-.2-.2-.2-.1 0-.3.2-.3.3 0 .1.1.1.2.1.2.1.1-.1.2-.1 0 .2.1.3.3.4zm-3.9 3.2s-.1 0 0 0c.4.6 1 1 1.5 1.5l-1.5-1.5zm-3.8-2.6-.2-.2s-.1-.1-.2-.1c-.1.1 0 .2 0 .2.1.2.3.3.5.5.1.1.1 0 .2 0 .1-.1 0-.1 0-.2-.1 0-.2-.1-.3-.2zm2.4.8c-.1-.2-.2-.3-.3-.4-.2-.2-.4-.3-.5-.5 0 0-.1-.1-.2 0s0 .1 0 .2l.1.1c.2 0 .3.2.4.3.2.1.3.2.5.3zm-7.4-5.2c-.7-.8-1.5-1.5-2.2-2.3.7.8 1.5 1.6 2.2 2.3zm6.5-1.9c0-.1.2-.1.1-.2s-.2-.1-.3 0l-.3.3c-.1.1 0 .1 0 .2 0 0 .1.1.1 0 .1-.2.3-.2.4-.3zm1.2 8.5c-.4 0-.5.2-.7.4-.1.1-.1.1 0 .2s.1 0 .2 0c.1-.2.3-.4.5-.6zM12.2 9.1 10.1 7l2.1 2.1zm7.6 6.6s0-.1 0 0c-.3-.6-.6-1.1-1-1.6.3.6.7 1.1 1 1.6zm-5.2-5.4c-.2 0-.3.2-.4.3-.1.2-.2.1-.4 0l-1.2-1.2c.4.5.8.9 1.3 1.3.1.1.1.1.2 0 .2-.1.3-.2.5-.4zm-4.9 4.9c.2-.1.3-.3.5-.4.1-.1.1-.1 0-.2l-1.3-1.3c0 .1 0 .1.1.1.4.4.7.8 1.1 1.1.1.1.1.2 0 .3-.2.1-.3.3-.4.4zm3 1.2s-.1 0 0 0c-.1.1-.2.2-.2.3 0 .1.1.1.1.1.1 0 .1-.1.1-.2.1-.1.1-.2.1-.2v-.1h-.1c.1 0 0 0 0 .1zm2.1-.5-.2.2-.1.1h.2c.2-.1.3-.3.5-.4 0 0 .1-.1 0-.1h-.1c-.1.1-.2.1-.3.2zm8.4 10.2-.9-.9.9.9zm-3.9-9.6c-.2.1-.4.3-.6.5 0 0-.1.1 0 .1h.1c.2-.2.4-.4.5-.6zm-3.4 4.8c-.1-.1 0-.3-.2-.3-.1 0-.3.2-.3.3 0 .2.2.1.3.2.1-.1-.1-.1 0-.2s.1.1.2 0zm9.4 3.1.3-.3V24h-.1l-.5.5v.1h.1l.2-.2zm-10.9-7h-.1c-.2.1-.4.3-.6.5v.1h.1l.6-.6zm-4.9-2.5c.1 0 .2 0 .3-.2v-.1c-.2 0-.2 0-.2-.2 0-.1-.1 0-.1 0-.1 0-.1.1-.1.2.1 0 .2.1.1.3zm7-1.2s0-.1-.1-.1-.1.1 0 .1l.3.3c.1.1.1.2.2 0 .1-.1 0-.2-.1-.2s-.2.1-.3-.1zm-.1 1.8c.1 0 .1.2.2 0 .1-.1 0-.2 0-.3-.1-.1-.1-.1-.2 0-.2.2-.1.2 0 .3zm1 4.8c-.3.2-.6.4-.8.8.3-.2.5-.5.8-.8zM13.8 9.7c-.2 0-.2 0-.2-.1 0 0 .1-.1 0-.1s-.2.1-.2.1c0 .2.3.1.2.3h.1c.1 0 .1-.1.1-.2zm-7.4 1.6c-.1 0-.3.1-.2-.2 0-.1-.1-.1-.1 0-.1 0-.2.1-.2.3.1 0 .2-.1.2.1s.1.1.1.1c.2-.1.2-.2.2-.3zm3.9-5.5s-.1 0 0 0c-.5.5-1 .9-1.4 1.4.5-.4.9-.9 1.4-1.4zm-1.2 8.7c.1 0 .2-.1.2-.2s-.1 0-.2-.1c-.1 0 0-.1 0-.2 0 0 0-.1-.1-.1s-.2 0-.2.2v.1c.3 0 .3.2.3.3zM10.6 7c.1 0 .2-.1.2-.2s-.1 0-.2-.1l-.1-.1c0-.1 0-.1-.1-.1s-.1.1-.2.2c0 .1 0 .1.1.1.4-.1.2.2.3.2zM14 9.9c-.1 0-.2.1-.3.2 0 .2.1 0 .2.1v.1s-.1.1 0 .1.2-.1.2-.2 0-.1-.1-.1v-.2zm-.9 9.2.5.5s.1.1.1 0v-.1c-.2-.1-.4-.3-.6-.4zm3.1-4.1c0 .1.1.1 0 0 .3-.2.5-.4.7-.6-.2.2-.5.4-.7.6zm-9.8-5s-.1.1-.1.2 0 .2.1.2.1-.1.1-.1c0-.1 0-.2.2-.2h.2V10h-.2c-.2-.1-.2-.1-.3 0zm2.2.7c-.3-.4-.7-.7-1.1-1.1l1.1 1.1zM6.9 9.4v.5c.3-.3.3-.3 0-.5zM23.5 22c.1 0 .1.2.2.1s-.1-.2-.1-.3l-.1-.1s-.1-.1-.2 0 0 .1 0 .1c.1.1.2.1.2.2zm-2.2 2.2c.1 0 .1.2.2.1s-.1-.2-.1-.3c-.1 0-.1-.2-.2-.1-.2.2 0 .2.1.3-.1 0-.1 0 0 0zm-11-11.8c-.3-.3-.6-.7-1-1 .4.3.7.7 1 1zM22.6 25c.1 0 .2.3.3.2.1-.1-.1-.2-.2-.3 0-.1-.1-.1-.1 0-.1 0-.1.1 0 .1zM11.2 10.5c-.3-.4-.7-.7-1-1l1 1zm2.3 8.5c.2.3.5.4.8.5-.3-.2-.6-.3-.8-.5zm-.9-1.9c.1-.2 0-.3-.1-.4 0 0-.1-.1-.2 0s0 .1 0 .1c.1.2.2.2.3.3zm2.6 2.4c.2 0 .3-.1.4-.1.1 0 .1-.1 0-.2s-.1-.1-.2 0c0 .1-.1.2-.2.3zm8.1 6.4c-.1-.3-.2-.3-.5-.5.1.3.3.4.5.5zm-6.7-9.5-.8-.8-.1.1c.4.2.7.4.9.7zm.1-.4c.3.3.6.6.8.9-.2-.4-.5-.6-.8-.9zm8.4 8.7c.2-.1.3-.3.4-.5-.1.2-.3.3-.4.5zM8.7 10.9l-.3-.3c0 .3.1.3.3.3zm4.3-2c-.2.1-.4.2-.4.5.2-.2.3-.4.4-.5zm10.1 16.3c0-.1-.1-.1-.2 0s-.1.1 0 .2.1.1.2 0 .1-.1 0-.2zm1.5-2.3.9.9-.9-.9zm-11.1-3.6c.3.3.6.4.8.4-.3-.2-.5-.3-.8-.4zm-3.2-4.6c.3-.3.3-.3 0-.4.1.1 0 .3 0 .4zm3.3-3.7c.1.2.2.3.4.1V11h-.1c-.1 0-.2-.1-.3 0zm8.5 14c-.1-.3-.3-.4-.5-.5l.5.5zm.8-.4c0 .2-.1.3.1.4.1-.1.2-.3-.1-.4zm3.1-.8c0-.1-.2 0-.2-.1 0 0 .1-.1 0-.1s-.2-.1-.2 0 .1.1.1.1c.1.1.2.1.3.1zM16.4 9.2c-.2.1-.3.2-.4.4.3-.1.4-.2.4-.4zm-8.2 4.5c.2-.1.3-.2.4-.4-.1.1-.3.2-.4.4zm16.5 9.7c-.1-.2-.2-.2-.4-.2-.1 0-.3.3-.2.4.1-.3.1-.3.6-.2zm-10.9-7.5c.1.1.1.2.1.3 0 .1.1.1.2.1s0-.1 0-.2c-.1 0-.2-.1-.3-.2zm3.7-3.1c-.1-.1-.1 0-.2 0 0 0-.2.1-.1.2 0 0 .1.1.1 0 .2 0 .3-.1.2-.2zM9.8 12c0 .2.1.3.3.3l-.3-.3zm.4-2.6c0-.1 0-.1 0 0 0-.2-.1-.3-.3-.3l.3.3zm4.8 8.3s-.1-.1-.2 0 0 .1 0 .1c.1.1.1.1.2 0s.1-.1 0-.1zm1.9-1.2c-.1-.1-.1 0-.1 0-.1.1-.1.1 0 .2s.1 0 .1 0c0-.1.1-.2 0-.2zm-.8-1c.2.1.3.3.5.4-.2-.2-.3-.4-.5-.4zm6.3 9.5c.1.1.1.2.3.3 0-.2-.1-.2-.3-.3zM9.1 8.3c.2.2.4.4.5.6-.2-.2-.3-.4-.5-.6zm3.7 3.7c.1 0 .1.1.2.1.1-.1 0-.1-.1-.2 0 0-.1-.1-.2 0 0 0 .1 0 .1.1z"/><path d="M15.1 15.3h-.6l-.1-.1c.2-.1.5-.1.7.1 0-.1 0-.1 0 0zM14.8 15.4c0 .1-.2 0-.2.1H14c.2-.1.5-.1.8-.1zM19.4 19.4c-.2-.1-.1-.2 0-.3.1-.1.2-.1.3 0 .1.1.1.2 0 .3-.1.1-.2.2-.3 0zM19.7 17.4c.1-.1.3-.2.3-.4 0 0 .1-.1.1 0 .1 0 0 .1.1.1v.1c-.4.1-.5.4-.7.6l-.1.1c-.1-.1 0-.1 0-.1.1-.1.1-.2.3-.4zM17.9 16.4c0-.3.2-.5.4-.6.1-.1.2-.2.4-.2-.3.2-.6.4-.8.8z"/><path fill="none" d="M4.4 27.2h13.3v13.3H4.4z"/><path fill="#FFF" d="M5.2 33.9H8c1.4 0 2.4.8 2.4 2 0 1.4-1.1 2.1-2.4 2.1H6.7v2.5H5.2v-6.6zm1.5 3h1.1c.7 0 1.1-.3 1.1-.9 0-.7-.5-.9-1.1-.9H6.7v1.8zM15.4 35.3h-2.5c0 .3-.1.9-.2 1.2.2-.2.6-.3 1.1-.3 1.2 0 1.9.9 1.9 2.1 0 1.2-.7 2.3-2.4 2.3-1.2 0-2.2-.6-2.3-1.8h1.4c.1.4.4.7 1 .7.7 0 1-.5 1-1.2s-.2-1.1-1-1.1c-.6 0-.8.3-1 .6l-1.2-.2c.2-.8.4-2.7.5-3.5h3.8l-.1 1.2z"/><path fill="none" d="M26.7 5H40v13.3H26.7z"/><path fill="#010101" d="M32.2 12V7.3c-.3.1-.8.2-1.1.3v-1c.6-.1 1.2-.5 1.6-.8h1V12h-1.5zM38.1 7.2c-.1-.3-.3-.6-.8-.6-.8 0-1.1.8-1.1 1.6.3-.3.7-.6 1.4-.6 1.2 0 2 .9 2 2.1 0 1.3-.9 2.3-2.3 2.3-1.8 0-2.4-1.4-2.4-3.2 0-1.6.6-3.4 2.5-3.4 1.4 0 2 .9 2.1 1.7h-1.4zm.1 2.7c0-.6-.2-1.1-1-1.1-.6 0-1 .4-1 1.1 0 .5.2 1.2 1 1.2.7-.1 1-.6 1-1.2z"/><path fill="none" d="M9.74 3.136 12.85.024l18.809 18.81-3.111 3.11z"/><path fill="#010101" d="m19.6 10.2 1.1-1.1c-.6.4-1.4.9-2.3 1.4l-.5-.5c.5-.8 1.1-1.6 1.5-2.3-.3.3-.7.8-1.1 1.2l-.7.7-.7-.6 2.3-2.3 1 1c-.3.5-.9 1.3-1.2 1.7.4-.3 1.2-.8 1.9-1.1l1 1-2.3 2.3-.7-.7.7-.7zM22 11.8l-.5.5-1-1 .5-.5 1 1zM22.8 11.6c.3-.3.9-.4 1.5.2.6.6.5 1.1.2 1.4-.3.3-.5.2-.7.2.1.2.2.6-.2.9-.4.4-1 .5-1.6-.2-.7-.7-.5-1.3-.2-1.6l.6.6c-.1.1-.1.3 0 .5.2.2.4.1.5 0 .2-.2.2-.4 0-.6l-.2-.2.4-.4.2.2c.2.2.3.2.5 0 .1-.1.1-.3 0-.4-.2-.2-.3-.1-.4 0l-.6-.6zM29.5 28.7l1.6 2.9-2.9-1.6s.7-.3.9-.5c.2-.1.4-.8.4-.8z"/><path fill="none" d="M22.2 27.2h17.7v13.3H22.2z"/><path fill="#010101" d="M31.4 37.9v1h-2.2v-1h2.2zM32.1 40.9l2.2-6h1l-2.2 6h-1zM38.2 40.5v-1.2h-2.4v-1l2.2-3.1h1.2v3.2h.6l-.1.9h-.5v1.2h-1zm0-3.1v-1.2c-.2.4-.9 1.4-1.4 2.2h1.4v-1z"/></svg>