<svg version="1.2" baseProfile="tiny" xmlns="http://www.w3.org/2000/svg" viewBox="0 0 45 45" overflow="visible" xml:space="preserve"><path fill="#DAA628" d="m-45 27 7.9-1.9 6.6-2.5h3.5l9-.3 4.5 1.7.1-.1s.8 1.1.9 1.2l4.2.4L0 27.1v17.8h-45"/><path fill="none" d="M0 0h45v45H0z"/><path fill="none" d="M4.5 13.5h9v9h-9z"/><path fill="#010101" d="M9.5 15.3H6.7c0 .4-.1 1.2-.2 1.5.2-.2.6-.4 1.3-.4 1.4 0 2.1 1 2.1 2.3 0 1.5-.8 2.5-2.6 2.5-1.3 0-2.3-.6-2.4-2h1.4c.1.5.4.9 1 .9.8 0 1.1-.5 1.1-1.3 0-.7-.3-1.3-1.1-1.3-.6 0-.9.3-1.1.7L5 18c.2-.8.4-3.1.5-3.9h4.1l-.1 1.2z"/><path fill="#DAA628" d="M0 26.9 7.9 25l6.6-2.5H18l9-.3 4.5 1.7.1-.1s.8 1.1.9 1.2l4.2.4 8.2 1.8V45h-45"/><path d="M30.1 25.1c-.4-.4-.8-.1-1.3-.1.2-.2.4-.3.1-.5.3 0 .5-.1.7 0 .1.1.2.1.3 0 .1-.1 0-.2-.1-.3-.2-.2 0-.4-.1-.6h.1c.1.1.2.1.3.2.1 0 .1.1.1.1-.2.4.2.6.2 1 0 .1.1.1.2 0s.2-.1.4-.1c-.3-.1-.3-.3-.2-.5.1-.2.3-.3.5-.3h.2c.2-.2.4-.2.5 0 .1.2.3.2.3.4 0 .6.7.9 1.2.7.2-.1.5-.1.7-.3.1-.1.4-.1.7-.1.1 0 .2.1.2.2.1.1-.1.1-.2.3.4-.1.7.1 1.1.1.3-.1.5 0 .8 0 .1 0 .1 0 .1.1s-.1.1-.1.1c-.1 0-.2.1-.3 0-.1 0-.1 0-.2.1-.1.4.1.3.3.3.3 0 .5-.1.8-.1-.2.2-.3.3 0 .5.1 0 0 .1 0 .2-.2.1-.3.2-.5.1-.3-.1-.7 0-1-.1-.1 0-.2 0-.2.1s.1.1.2.2c.2.1.3.1.5.1.1 0 .3 0 .3.2s-.1.2-.3.2c-.2 0-.4 0-.5-.2 0-.1-.1-.1-.1-.1-.3-.2-1-.1-1.3.2 0 0-.1.1-.2.1-.4-.1-.9.1-1.3.1-.1 0-.3-.1-.2.2 0 .1-.1.1-.2 0-.2-.3-.6-.3-.9-.2h-.2c-.1 0-.2-.1-.3 0-.1.2.2.1.2.2-.1.1-.2 0-.3 0-.4-.1-.7 0-.9.3-.1.2-.3.2-.4.3l.3-.6c0-.1.2-.1.3-.1.1-.1.2-.1.1-.2-.2-.1-.3-.1-.5-.2s-.3.1-.4.3c0 .1 0 .1-.1.1s0-.1 0-.1c0-.5 0-.5-.5-.3-.2.1-.5 0-.6.3-.1-.1 0-.2 0-.2.2-.2.1-.2-.1-.3-.7-.2-1.5-.2-2.2.1-.3.1-.6.1-.9.1h-.9c-.1 0-.3.1-.3-.1 0-.1.2-.1.3-.2l-1.5-.3c.1-.1.2-.1.3-.1.3 0 .7-.1 1-.2 0 0 .1 0 .1-.1s-.1-.1-.1-.1c-.2-.1-.4 0-.6 0h-.8c-.3 0-.4.1-.5.4-.1.3-.6.4-.8.2-.5-.3-1-.6-1.7-.6-.2 0-.6 0-.7.3-.2 0-.5-.1-.3.3h-.2c-.2 0-.3-.1-.4-.2-.2-.1-.3 0-.5.1-.1.1.1.4.3.4h.3c.1 0 .3 0 .2.2 0 .2-.2.1-.3.1-.3 0-.6-.2-.8-.4-.2-.2-.3-.2-.5-.2h-.4c-.1 0-.4-.1-.1.2v.1h-.1c-.1-.1-.2-.1-.3-.2-.2-.1-.4-.1-.5-.1-.3 0-.1.2-.1.4h-.2c-.3-.4-.8-.4-1.1 0-.2.2-.3.2-.5 0-.1-.1-.5-.2-.7-.1 0 .1.1.1.2.1s.2.1.2.2-.1.1-.2.2c-.3.2-.7.4-1.1.2-.1 0-.2 0-.3-.2.1-.1.2 0 .3 0 .3.1.5 0 .7-.2.1-.2.1-.3-.1-.3h-.6c0-.1 0-.1.1-.1s.2-.1.2-.2-.1-.1-.2-.2h-.1c-.4-.3-.7-.3-.9.2-.1.1-.2.2-.4.1.1-.1.3-.2.4-.4l.1-.1c0-.1-.1-.1-.2 0-.1 0-.3.1-.4.1-.1 0-.1.1-.2 0s0-.1.1-.2V26c-.3-.1-.6.2-.9.1.1-.2.1-.3-.2-.3-.1 0-.2.1-.3.1-.1 0-.3 0-.2-.2.2-.3 0-.2-.2-.2-.3 0-.5-.1-.7-.2-.1 0-.2 0-.2-.1s.1-.1.2-.1c.4-.1.8-.3 1.2-.4.4-.1.9-.1 1.4-.1.1 0 .4.1.3-.2 0-.1 0-.1.1-.1.5 0 1-.2 1.5-.3.4-.1.8-.1 1.1-.1.5 0 .5.1.6.5 0 .2.1.1.2.1s.3-.1.2-.2c-.1-.2 0-.1.1-.2.2-.1.4-.4.7-.2 0 .1-.2.1-.1.2s.2 0 .2 0h.2c.1 0 .3 0 .3-.1 0-.2-.2-.1-.3-.1-.1-.1-.1-.1 0-.2 0-.1.1-.1.2-.1.1.1 0 .1 0 .1 0 .1 0 .1.1.1.2.1.3.1.4.4 0 .1.5.2.6.1.1-.1 0-.1 0-.2-.2-.1-.1-.2 0-.3.2-.1.4-.2.5-.4.1-.1.2-.1.3-.1.2.1.4.1.6 0 .1 0 .2-.1.1-.2s-.3-.1-.3 0c-.1.2-.3.2-.5.1h-.2c-.1.1-.2.1-.3 0-.1-.1.1-.2.1-.3-.4 0-.7 0-1 .4 0-.2 0-.3.2-.4.1 0 .1-.1.1-.2s-.1-.1-.2 0c-.3.1-.5 0-.8.1-.4.1-.7 0-1.1 0-.1 0-.1 0-.1-.1s.1-.1.1-.1c.4-.1.8-.2 1.1-.4.4-.2.8-.2 1.2-.3.4-.1.8-.3 1.2-.3.3 0 .5.1.8 0 .4-.1.8-.1 1.1-.2h.2c.2.1.3.1.5 0 .4-.2.7 0 1 .3l.1.1c.3 0 .6 0 .8-.1.2-.1-.1-.1-.1-.2.1-.1.1 0 .2 0 .3.1.5.2.9.2.3 0 .7.1 1 .1.6.1 1.2.2 1.8.2.3 0 .5.1.7 0 .3-.1.4.2.4.4 0 .1-.1.1-.2.2s-.4 0-.2.3c.1.1-.1.1-.1.1h-1c-.1 0-.3 0-.4.1-.1.1-.2 0-.3 0-.2 0-.3 0-.4.1-.1.2 0 .2.1.3l.1.1c0 .1-.1.1-.2 0-.1 0-.1-.1-.2-.1-.1-.1-.3-.1-.3 0-.1.3-.3.1-.5 0-.1 0-.2 0-.2.1s-.2.2 0 .3l.1.1s-.1.1-.2.1c-.4-.1-.9-.1-1.3-.4-.1-.1-.2-.1-.3-.1-.1 0-.3.1-.4-.1-.1-.1-.3 0-.4.2-.1.3-.3.4-.6.4V24c.1-.1.3-.2.2-.3-.1-.1-.3-.2-.5-.2s-.4.1-.7.2c-.1 0-.2.1-.2-.2 0-.2-.2-.2-.4-.1s-.4.1-.6.1c-.1 0-.2 0-.2.1-.1.3-.2.2-.4.1s-.4-.1-.5.1l-.1.1c-.1.1-.3 0-.2.2 0 .1.2.1.3.2.3.2.7.3 1 .5.3.2.7 0 .8-.4.1.3.3.2.5.3.4.2.8.4 1.2.7.1.1.9.2.9.1.2-.4.5-.1.8-.2.3-.1.6 0 .8.3 0 0 .1.1.1 0 .4-.2.9.1 1.3-.2.2-.1.4-.1.6-.1.2 0 .4 0 .5-.1h.1c.6.1 1.2.1 1.8.2h.7c.6.3 1.1.3 1.7.1.1-.4.1-.4.2-.4zm-10.8-.4c-.2 0-.4 0-.4.1 0 .2.1.2.3.2.2 0 .3.1.5.1s.3.1.5 0c.1 0 .1 0 .1-.1s-.1-.1-.1-.1c-.2 0-.3 0-.4-.1-.2-.1-.4-.2-.5-.1zm16.3 1.1c.1 0 .3 0 .3-.2 0-.1-.1-.3-.2-.2-.2.1-.4.1-.7 0-.1 0-.1 0-.1.1s.1.1.1.1c.2.1.4.1.6.2zm-24.2-1.7h-.2c-.1 0-.3 0-.2.2 0 .2.1.1.2.1h.1c.1 0 .3 0 .3-.2s-.1 0-.2-.1zm10.4 1.6s.2.1.2-.1c0-.1-.1-.2-.3-.2-.1 0-.2 0-.2.1.1.2.1.2.3.2zm1.3-2.7c-.1 0-.3 0-.2.2 0 .1.1.1.2.1s.3 0 .3-.2-.2-.1-.3-.1zm-.3.5c.1 0 .2 0 .2-.1s-.1-.1-.3-.2c-.1 0-.2 0-.2.1.1.2.2.2.3.2zm10.5 1.6c-.2 0-.4-.1-.5 0v.1c.1.1.3.1.5-.1 0 .1 0 .1 0 0zm-17.2-.5c.1.1.2.2.4.1 0 0 .1-.1 0-.1-.1-.1-.2-.1-.4 0 0-.1 0-.1 0 0z"/><path d="M11.5 31.2c-.3-.2-.5.1-.8.2l.1-.1c.1-.1.2 0 .2-.2 0-.1-.1 0-.2-.1-.3 0-.5-.1-.8 0-.1 0-.1 0-.2-.1 0-.1 0-.1.1-.1s.2 0 .2-.1c0-.2-.2-.1-.3-.1h-.1v-.1c.1-.1.3 0 .2-.2 0-.2-.2-.2-.3-.2H9c-.1 0-.3 0-.3-.2 0-.1.2-.3.3-.2.5.2.9.1 1.4 0 .1 0 .2 0 .2-.1.1 0 .1-.1.1-.2s-.1-.1-.1-.1c-.1 0-.2 0-.3-.1.2-.1.4 0 .6-.1v.1c-.1.3 0 .4.3.4h.4c.2 0 .3 0 .4-.2.1-.2.2-.2.3-.2.4 0 .7 0 1.1-.1.2-.1.5 0 .7 0h.3c.1 0 .3 0 .2-.2 0-.1 0-.3.1-.3.3 0 .6-.3.9-.1.3.1.7.1 1 0 .3-.1.4 0 .6.2.2.2.3.3.5.1 0 0 .1-.1.2 0 .3.1.6-.2.9-.3.1 0 .2-.2.2-.4 0-.1-.2-.1-.3-.1-.1 0-.2 0-.3-.1.1-.1.3-.1.4 0 .2.1.4.1.7.1.2 0 .4 0 .6.1.1.1.2.1.3 0 .3-.2.6-.1.9-.3.3-.2.7 0 1 .3.1.2.2.2.4.1.1-.1.2-.1.2 0 .1.1.3.1.4.1.2-.1.2-.3.2-.4 0-.1-.1-.1-.2-.2-.2 0-.3 0-.5-.1.1-.1.2-.3.4-.1.1.1.2.1.2-.1.1-.3.3-.2.5-.1s.4.2.6.1c.1 0 .1 0 .1.1s0 .1-.1.1c-.1.1-.2.2-.4.1H24c-.2 0-.4 0-.4.2s.2.3.3.3c.2 0 .4.1.4.3.1.2.3.2.5.2.1 0 .2-.1.2-.3 0-.1.6-.4.8-.4.2 0 .5.1.7 0h.2v.2c-.1.1-.2.2-.4.2s-.4.1-.5.2c.2.1.3.1.4.2.1.1.2.2.4.2.7 0 1.3.3 2 .2.3 0 .5-.1.8-.1.4-.1.6.1.8.3.2.2.4.2.7.2.3 0 .6 0 .9.1.2.1.4.1.6-.1.1-.1.2-.1.2.1 0 .1.1.1.3.1.2-.1.4 0 .5.2 0 .1.1.1.2.1s.3 0 .4.1c-.4.2-.8 0-1.1.1 0 .2.2.1.2.2.1 0 .1.1.1.2s-.1.1-.2.1c-.2 0-.5.2-.7-.2 0-.1-.3-.1-.5-.2-.5-.1-1.1-.2-1.6-.3H30c-.4.3-.7 0-1-.1-.2-.1-.4-.1-.6 0 .3.3.6.2.9.3.3.1.5.1.7.4.1.1.3.1.4.2.1 0 .2.1.1.2 0 .1-.1 0-.2 0-.2-.1-.4-.1-.6-.2 0-.1.2 0 .2-.1s-.1-.1-.2-.1c-.4-.3-.9-.3-1.4-.4-.4-.1-.7-.1-1-.2h-.2c-.1 0-.2 0-.2.1s.1.1.2.1.2 0 .3.1c.1 0 .2.1.2.1 0 .1-.1.1-.2.2.1.1.3.1.4.2-.3 0-.6.1-.8-.1-.3-.1-.5-.3-.8 0-.1.1-.3.2-.5.2.2.2.5.3.8.4.2.1.3.2.5.3.1 0 .1.1.1.2s-.1.1-.2.1h-.2c-.1.3-.2.1-.3 0-.2-.1-.3-.3-.4-.5-.3-.2-.5-.3-.8-.1-.2.2-.4.2-.6.1-.2-.1-.3 0-.5 0-.1 0-.3.1-.2.3 0 .1 0 .2-.1.2s-.1-.1-.1-.1c0-.3-.2-.3-.4-.3h-.1c-.1-.1-.3-.2-.4 0-.1.1 0 .3.1.5.1.1.1.2.2.3 0 .1.1.1 0 .2-.1 0-.1-.1-.1-.1-.1-.2-.3-.4-.5-.6-.1-.1-.3-.1-.4-.1-.2 0-.2.1-.1.2 0 .1 0 .2-.1.2h-.2c-.1-.1 0-.1 0-.2.1-.2 0-.3-.2-.4-.1 0-.3-.1-.4-.1-.1 0-.2 0-.2.1 0 .2-.3.1-.3.3l-.1-.1c-.1-.2-.3-.3-.6-.2h-.5c-.2 0-.4.1-.5.3 0 .1-.1.1-.2.2-.2 0-.4.1-.7.2.1-.1.1-.2.2-.3.1-.2.1-.3-.1-.3-.1 0-.2 0-.2-.2-.1-.2-.4-.2-.6-.2-.3 0-.5.3-.8.3 0 .2-.2.3-.1.4 0 .2-.1.2-.2.3-.1.1-.3.2-.4.2-.1 0-.1.1-.2 0 0-.1 0-.1.1-.1.1-.1.2-.1.4-.2s.2-.2.1-.3c-.2-.1-.1-.2 0-.3.1-.1.3-.1.4-.2.1 0 .1-.1.1-.2s-.1-.1-.2-.1c-.2 0-.4-.1-.5-.2-.1-.1-.3-.1-.5 0-.3.1-.7.1-1 .2-.2.1-.5.1-.7.3-.3.2-.6 0-.9-.2.3-.2.7-.2 1-.2.2 0 .4 0 .3-.3 0-.1.1-.2.2-.2h.4c.1 0 .2 0 .2-.1s-.1-.1-.2-.1c-.3 0-.6.1-.9.2 0-.2-.1-.2-.3-.2-.3 0-.6.2-.9.3 0 .5-.4.3-.6.3-.1.2-.4.2-.6.3 0-.1.1-.1.2-.1.1-.1.1-.1.1-.2s0-.1-.1-.1-.2 0-.3.1c0 0 0 .1.1.3zm15.2-1.8c-.1 0-.2 0-.2.1s.1.2.2.2.2 0 .2-.1-.1-.1-.2-.2zM16.3 29c-.2-.1-.4-.2-.4-.1v.1c.1.1.2.1.4 0 0 .1 0 .1 0 0zM27.9 22.5c.4-.1.7.2 1 .3l.1.1c0 .1-.1.1-.1.1-.1 0-.3 0-.4-.1-.2-.1-.4-.2-.6-.2-.1 0-.2 0-.2-.1-.1-.2.1-.2.2-.1zM7.9 29.2c.3-.4.6-.3 1.1-.1-.4.1-.8 0-1.1.1z"/><path d="M29.4 31.1c-.4.1-.9 0-1.3-.1-.1 0-.1 0-.1-.1s.1-.1.2-.1c.4.3.8.2 1.2.3zM19.3 23.5c0 .1-.1.2-.2.2s-.2 0-.2-.1.1-.2.3-.2c.1 0 .1.1.1.1zM15.1 27.2c-.1 0-.2 0-.2-.1s.1-.2.2-.2.2 0 .2.2c0 .1-.1.1-.2.1zM14.5 23.2c-.1.1-.2.2-.3.1-.1 0-.1-.1-.1-.1 0-.1.1-.1.3-.1 0 0 .1 0 .1.1zM24.8 21.2h-.1c-.1 0-.2 0-.3-.1 0 0 0-.1.1-.1.1.1.2.1.3.2zM16.3 27.1c0 .1-.1.1-.1.1-.1-.1-.2 0-.2-.1s0-.2.1-.1c.1-.1.2 0 .2.1z"/><path fill="none" d="M4.5 1.4h36v12.1h-36z"/><path fill="#010101" d="M9.1 8H6.4v1.6h2.9l-.1 1h-4v-6h4v1H6.4V7H9v1zM9.6 7.5V6.1h1.2v.6c.2-.4.7-.7 1.3-.7 1 0 1.5.6 1.5 1.7v3h-1.2V7.9c0-.5-.1-.9-.7-.9-.5 0-.8.3-.8 1.1v2.6H9.6V7.5zM13.7 6.1h.6V4.8h1.2v1.3h.8V7h-.8v2.4c0 .3.1.4.5.4h.3v.8c-.2.1-.6.1-.7.1-.9 0-1.2-.4-1.2-1.2V7h-.6v-.9zM16.6 7.6V6h1.2v.8c.2-.3.6-.8 1.4-.8v1.2c-.9 0-1.4.3-1.4 1.4v2.1h-1.2V7.6zM20.4 8.6c0 .6.2 1.2.9 1.2.5 0 .7-.3.8-.5h1.2c-.2.8-.8 1.5-2 1.5-1.5 0-2.1-1-2.1-2.4 0-1.1.6-2.4 2.1-2.4s2 1.1 2 2.3v.4h-2.9zm1.8-.8c0-.5-.2-1-.9-1s-.9.6-.9 1h1.8zM23.8 7.5V6.1H25v.6c.2-.4.6-.7 1.3-.7 1 0 1.5.6 1.5 1.7v3h-1.2V7.9c0-.5-.1-.9-.7-.9-.7 0-.9.3-.9 1.1v2.6h-1.2V7.5zM32.2 9.1c-.1.9-.7 1.7-2 1.7-1.4 0-2.1-.9-2.1-2.4S29 6 30.3 6c1.5 0 1.9 1.1 1.9 1.7H31c0-.4-.2-.8-.8-.8-.6 0-.9.6-.9 1.4 0 1.1.3 1.5.9 1.5.5 0 .7-.3.8-.8h1.2zM33.8 4.2v2.4c.2-.4.6-.6 1.3-.6.8 0 1.5.5 1.5 1.7v3h-1.2V7.8c0-.5-.2-.9-.7-.9-.6 0-.8.4-.8 1.1v2.6h-1.2V4.2h1.1z"/></svg>