<svg version="1.2" baseProfile="tiny" xmlns="http://www.w3.org/2000/svg" viewBox="0 0 45 45" overflow="visible" xml:space="preserve"><path fill="#76A4B2" d="M-4.5-4.5h279v252h-279z"/><path d="m21.5 13.3-2.7-2.7-3.9-3.9c-.1-.1-.2-.2-.4-.3-.1-.1-.1-.1-.2 0l-.8.8-.2.2c-.1.1-.2.2-.3.1-.1.1-.2 0-.2 0l-.1-.1c-.1-.1-.1-.1-.2 0l-2.1 2.1c-1 1-2 2-2.9 3-.1.1-.1.1 0 .2l.2.2s.1.1 0 .1c0 0-.1.1 0 .1v.2l-1 1c-.1.1-.1.1 0 .2 1.6 1.6 3.2 3.1 4.8 4.7l3.6 3.6 4.1 4.1 1.4 1.4c.1.1.1.1.2 0l1.2-1.2c.1-.1.1-.1.2 0 0 0 .1.1.1 0 .1 0 0-.1 0-.1-.2-.2-.2-.2 0-.3l2.2-2.2c.1-.1.1-.1.2-.1s.2 0 .2-.1.1-.1.1 0c.3.3.7.6 1 1 .2.2.3.3.4.6.1.3.3.4.5.6.1.1.2.1.4 0l.3-.3c.1-.1.1-.2 0-.4l-.2-.2c-.1-.1-.2-.2-.3-.2-.2-.1-.3-.2-.5-.4l-1.2-1.2c-.1-.1 0-.1 0-.1l1.8-1.8c.1-.1.1-.1.2 0l.1.1h.1v-.1c-.1-.1-.1-.1 0-.3l1.1-1.1c.1-.1.1-.1 0-.2-.9-.8-1.7-1.7-2.6-2.5-1-1-2-2-3.1-3l-1.5-1.5zm-3.2-.9c.1.1 0 .1-.1.2s-.2 0-.2-.1 0-.2.1-.2.2 0 .2.1zm-6.8 6.4.2.2c-.1-.1-.2-.1-.2-.2-.2-.1-.3-.2-.4-.3v-.1c.1.1.3.2.4.4zm.6-.9c.1-.1.1 0 .2 0h.1v.1l-.1.1c-.1-.1-.1 0-.2-.2.1 0 0 0 0 0v.1c-.1 0-.2 0-.1-.1 0 0 0-.1 0 0 0-.1 0 0 .1 0-.1-.1-.1-.1 0 0l-.1-.1c-.1 0-.1 0-.1-.1h-.1v.2h-.2c-.1 0-.1 0 0-.1v-.1c0-.1 0-.1.1 0h.1s0-.1-.1-.1h-.1v-.1l.1-.1V17.7s0 .1.1 0 .1 0 .2 0c0-.1.1.1.1.2 0-.1 0-.1 0 0zm5.4-6.1c.1 0 .2.1.3 0-.1.1 0 .2 0 .2.1.1.1 0 .2.1 0 0 .1-.1.1 0 0 0 0 .1-.1.1l-.1.1v-.1h-.1v.2c-.1 0-.2-.1-.2-.2h.1c0-.1-.1 0-.2 0 0-.2.2-.3 0-.4.1.1.1.1 0 0V12.1h-.2c-.1 0-.1-.1-.1-.1.1-.2.2-.2.3-.2-.1.1 0 0 0 0s-.1-.1-.1 0h-.1v-.1l.1-.1h.1v.2zm3 6.2c.1 0 0 .1 0 0 0 .1-.1.2-.1.2s-.1.1-.2.1c0 0-.1 0 0 0v.1c-.2.2-.3.4-.5.5-.1 0-.1.1-.1.2-.1.1-.2.1-.2.2h-.1s0-.1 0 0c0 0-.1 0-.1.1v.1l-.3.3s-.1.1-.1 0c0 0-.1-.1 0-.1l.3-.3.9-.9c.1-.1.1-.1.2-.1v-.1c0-.1.1-.2.3-.3zm1.3-3.3c0 .1 0 .1-.1.2h-.1v-.1c.1-.1.2-.1.2-.1.1-.2.3-.3.5-.4 0 .1-.3.4-.4.4h-.1zM11.9 19s0-.1.1-.2l.1-.1s.1 0 .1.1-.1.1-.1.1c-.1 0-.2.2-.2.1v.1l-.2.2h-.1v-.1s.1-.1.3-.2c-.1-.1 0 0 0 0zm5.5 5.2c.1 0 .2.1.3.2v.1h-.1c-.1-.1-.2-.2-.2-.3 0 .1-.1 0 0 0-.3-.2-.5-.4-.6-.6 0 0-.1-.1 0-.1h.1l.5.5v.2zm-2.9-2.9c.2 0 .3.1.4.3v.1h-.1c-.1-.1-.3-.2-.3-.4h-.1l-.5-.5c-.1 0-.1-.1-.1-.2.1 0 .1 0 .1.1l.6.6zM15.3 8l.1-.1c.1 0 .1.1.2 0 0 0 0 .1.1.1.1.1.1.1 0 .1h-.1V8s.1 0 0-.1h-.1s-.1.1 0 .1c0 .1 0 .2-.1.2v-.1c-.1 0-.1 0-.1-.1.1.2.1.1 0 0v.2V8c-.1 0-.1.1-.2 0 0 0-.1-.1-.1-.2l.1-.1c.1 0 .1 0 .1-.1h.1s-.1.1 0 .1h.2l.1.1s.1.1-.1.2c-.1-.1-.2-.1-.2 0zm-6 8.3c0 .1.1.2.2.2s.1.1.2.2v.1h-.1l-.2-.2c-.1 0-.1-.1 0-.1v-.1h-.1l-.3.3s0 .1-.1 0l.3-.3.1-.1c-.1.1-.2.2-.2.3-.1.1-.2.1-.2-.1s0-.3.1-.3c.1-.1.1-.1.3.1zM15 8.2c.1 0 .2.1.3.2.1.1-.1.1-.1.2H15v.1c0 .1-.1.1-.2.1-.1-.1-.1-.2-.1-.3l.3-.3c-.1 0-.1 0-.2.1s0 .1 0 .2c0 0 0 .1 0 0-.1-.1-.2-.1-.2-.2s0-.3.1-.4h.1c.2.2.2.2.2.3zm1 14.7c0-.1-.1-.1-.1-.1l-.4-.4c-.1-.1-.2-.2-.2-.3-.1-.1-.2-.1-.3-.2 0 0-.1-.1 0-.1.1-.1.1 0 .1 0l.3.3.6.6c0 .1.1.1 0 .2.1 0 .1-.1.2 0l.5.5s.1.1 0 .1h-.1l-.6-.6zm6-8.8c0 .1-.1.2-.2.2-.2.1-.3.1-.4-.1h.4V14l-.1-.1s-.1-.1 0-.1.1-.2.2-.1c0 .1.1.2.1.4v-.2l.2.2c.1 0 0 .1 0 .1l-.3.3c-.2.2-.2.2-.3 0 .3 0 .5-.2.4-.4zm-9.7 5.1h.2c.2.3.5.5.7.7l.5.5s.1.1 0 .1c-.1.1-.1 0-.1 0l-.5-.5s-.1 0 0-.1c-.1 0-.1 0-.1-.1-.3-.2-.5-.3-.7-.6 0 .1 0 0 0 0l-.2-.2H12l-.2.2.2-.2s.1-.1.1 0c.1 0 .2 0 .2.2zM16 8.1l-.4-.4s-.1-.1 0-.1h.1l.5.5c.1.1.1.3.1.4l-.1-.1s0-.1-.1 0v.1s0 .1-.1.1h-.1s0 .1.1.1c0 0 .1.1 0 .1-.1.1-.2.2-.2.3-.2.2-.4.3-.5.5H15c-.1.1-.1 0-.1 0 0-.1-.1-.2-.2-.2-.1-.1-.1-.1 0-.2 0 0 0-.1.1-.1 0 0 .1-.1 0-.1-.1-.1-.1-.2-.3-.2-.1.1-.1 0-.1 0-.1-.2-.3-.3-.5-.5l-.1-.1c-.1 0-.2-.1-.1-.2-.1-.1 0-.1 0-.1 0 .1-.1.1-.1.2l-.1-.1c.1-.1.1-.2.2-.2s.1-.1.1-.1c0-.1.1-.1.1-.1.1 0 .1-.1.2-.2l.1-.1c.1 0 .1-.1.1-.1 0-.1.1-.1.1-.1.1 0 .1-.1.1-.1s0-.1.1 0v.1c.1 0 .1 0 .1.1.2.2.4.3.5.5v.1H15l-.3.3h-.1V8l.3-.3s.1 0 0-.1c0 0-.1-.1-.1 0-.2.1-.3.3-.5.4l-.3.3c-.1.1-.1.1 0 .2l.7.7c.1.1.1.2.2.1.1 0 .1-.1.2-.1l.3-.3.3-.3c.4-.4.4-.4.3-.5-.1.2-.2.3-.3.4h-.1v-.1c.1-.1.2-.3.4-.3zm-9.1 6.7c0 .1-.1.1 0 0-.1 0-.1 0-.1-.1s.1-.1.2-.2h.1v.1c-.1.1-.2.1-.2.2-.1 0 0 0 0 0 .1-.1.1-.2.2-.2s.1-.1.1-.1c0-.1.1-.1.2-.1h.1c.1-.1.1-.2.2-.3.1-.1.2-.2.2-.3 0-.1.1-.1 0-.2H8l1.1 1.1c.1.1.1.1 0 .3.1 0 .1 0 .1-.1h.1v.1l-.4.4-.5.5s-.1 0-.1.1h.1c.3-.4.7-.7 1-1 0 0 .1-.1.1 0v.1l-.2.2c-.3.3-.5.6-.9.8v.1h.1l.2-.2h.1c.1 0 0 .1 0 .1l-.2.2-.2.2h-.1v-.1c-.2 0-.2 0-.2-.2 0 0 0 .1-.1 0-.1 0 .1-.1 0-.1.1.1 0-.1-.1-.1l-.5-.5c-.1-.2-.3-.3-.4-.5-.1 0-.1-.1-.1-.2zm12.2 1.1h.8l-.3.3-.8.8-1.2 1.2c-.1.1-.1.1-.2 0s-.1-.1-.2 0-.2.2-.2.3v-.1c0-.3-.1-.5-.3-.7-.1-.1 0-.1 0-.2l1.4-1.4s.1-.1.2-.1c.3 0 .5-.1.8-.1h-.8l.1-.1c.5-.5.9-1 1.4-1.4.1-.1.1-.2 0-.3-.1-.1 0-.1 0-.2.1-.1.1-.2 0-.3-.1-.1-.2-.1-.3 0-.1.1-.1.1-.1 0-.1-.2-.3-.3-.4-.4-.1-.1-.1-.1 0-.2s.1-.2 0-.2c0-.1-.1-.1-.2-.1 0 0-.1 0-.1.1 0-.2.1-.2.2-.3.1-.1.1 0 .2 0l1.4 1.4.8.8 1.2 1.2c.1.1.1.2 0 .3-.1.1-.3.2-.4.3-.1.1-.2.2-.4.3-.4.2-.4.2-.5.2-.1 0-.1-.1-.2-.1l-1-1-.1-.1c-.3 0-.6.1-.8.1zm-8-3.6c0 .1-.1.1-.1.2 0 0-.1.1-.2 0s-.1-.1 0-.2l.1-.1v-.1c.1 0 .1 0 .2.2-.1-.1-.1-.1 0 0 0-.1 0-.1-.1-.2l-.8-.8c-.1-.1-.3-.1-.4 0l-.7.7c-.1 0-.1.1-.2.1-.4.1-.6.3-.7.7-.1.2-.1.4 0 .6l-.3-.3c-.2-.2-.2-.2 0-.3.7-.7 1.4-1.4 2-2.1L12 8.6l.8-.8s.1-.1.2-.1l.4.4h-.2c-.6 0-1 .3-1.1.9 0 .1 0 .1-.1.2l-.7.7c-.1.1-.1.2 0 .3l.8.8c.2.2.3.2.4 0 .1-.1.1-.1.2 0 0 .1.1.1.1 0s.1-.1.2-.2.1-.1 0-.2c-.1 0-.1-.1 0-.1l.3-.3c.1-.1.2-.2.4-.1.1 0 .3-.3.3-.3v-1l.4.4c.2.2.2.2 0 .4 0 0-.1 0 0 .1 0 .1.1.1.2 0l.1-.1s.1-.1.1 0c.1 0 .1.1.2.2 0 0 0 .1-.1.2l-2 2s-.1.2-.2 0c-.1 0-.2-.2-.3-.3-.2-.2-.4-.3-.5-.6-.1-.1-.3-.2-.4-.4h-.1l-.2.2s-.1.1-.1 0l-.3-.3h-.1v.1l.2.2s.1 0 0 .1c0 .1 0 .2-.1.3-.1 0-.1.1-.1.1-.1.1-.1.1 0 .2l1.2 1.2c.1.1.1.1 0 .2l-.9.9-1 1s-.1.1-.2.1-.1-.1-.2-.2v-.1c.1-.1.1-.2.2-.2.1-.1.1-.1 0-.1s-.1-.1-.2 0l-.2.2h-.1c-.1-.1-.2-.2-.3-.2l-.3-.3c.1.1.2 0 .3 0 .2 0 .4-.1.7-.1.1-.1.2-.2.3-.4.1-.3.2-.5.4-.7h.1l.1.1c.1 0 .1-.1.1-.1l.1-.1c.1-.1.1-.1 0-.2s-.1-.1 0-.2c.2 0 .3 0 .3-.1zm1.3 5.3s.1 0 0 0c.1-.1.1-.1.1-.2h-.1s-.1.1-.1 0l-.3-.3s-.1-.1 0-.1v-.1h-.2l-.7-.7s-.1-.1 0-.1V16H11c-.1.1-.1 0-.1 0l-.7-.7s-.1-.1 0-.1v-.1s-.1-.1-.1 0c0 0-.1.1-.1 0V15l.5-.5L12 13s.1-.1.1 0c.1.1.1 0 .2 0 .1-.1.2-.2.3-.2l.1-.1c0-.1.1-.1.1-.2l.2-.2s.1-.1 0-.1c-.1-.1 0-.1 0-.2l1.4-1.4.7-.7s.1-.1.1 0c.1 0 0 .1 0 .1v.1s.1.1.1 0c.1-.1.1 0 .1 0 .2.2.5.4.7.7 0 0 .1.1 0 .1v.1h.1c.1-.1.1 0 .1 0l.7.7s.1.1 0 .1v.1h.1c.1-.1.1 0 .1 0l.7.7c.2.2.2.2 0 .3-.1.1-.2.1-.2 0s-.1-.1-.2-.1-.1 0-.1.1 0 .1-.1.2l-.9.9c-.1.1-.1.1-.3 0l-.1-.1c-.1-.1-.1-.1 0-.2s.1-.1 0-.2v-.1l.3-.3h.1c.1.1.1.1.3 0l.1-.1c.1 0 .1-.1 0-.1-.1-.1-.1-.1 0-.2.2-.1.1-.3 0-.5l-1.6-1.6c-.2-.2-.3-.2-.5 0l-1.6 1.6c-.2.2-.2.4 0 .5l.5.5 1.1 1.1c.2.2.3.1.5 0l.4-.4s.1-.1.1 0v.1l-.3.3c-.1 0-.1.1 0 .2v.1l-.6.6c-.1.1-.2 0-.3.1 0 0-.1-.1-.1 0v.1c.1.1.1.1 0 .2L13 17c-.1.2-.3.4-.6.6zm7.9 7.8.9.9c.1.1.1.1 0 .1l-.7.7c-.2.2-.3.4-.5.5l-.1.1c0-.1-.1-.1-.2-.1 0-.1-.1-.1-.1-.2-.1 0-.1-.1-.1-.1l-.6-.6-.5-.5s0-.1-.1-.1c0 0-.1 0-.1-.1l-.4-.4c-.1-.1-.1-.1 0-.1 0 0 .1-.1 0-.1h-.1v-.1c.2-.2.4-.4.5-.6l.6-.6s.1-.1.1 0l.2.2s.1.1.2.1.2 0 .2.1c.2.4.5.6.8.9zm4.2-6.7-.2-.2c-.1-.1.1-.1.1-.1.1-.2.2-.2.3-.4l.3-.3c.1-.1.2-.3.4-.3h.1l.2.2.6.6.5.5.1.1.6.6.1.1c.2.1.2.2 0 .3l-.2.2-.1.1-.5.5h-.1l-.1.1c0 .1-.2.2-.2.3 0-.1-.1-.1-.2-.1l-1.5-1.5c-.1-.1-.1-.1-.1-.2.1-.2.1-.4-.1-.5zm-6.6 4.1-.8-.8c-.1-.1-.1-.1 0-.2l1.3-1.3c.1-.1.1-.1.2 0 .3.4.7.7 1.1.9.3.2.5.4.8.5.1.1.1.1 0 .2-.5.5-1 1-1.5 1.6-.1.1-.1.1-.2 0-.3-.4-.6-.6-.9-.9zm.8-5.7c.4-.4.8-.8 1.1-1.2.1-.1.1 0 .1 0l1 1c.1.1.1.2 0 .3l-.2.2-.2.2c-.2.2-.3.4-.5.5l-.5.5-.2.2c-.1.1-.1.2-.2.2l-.2.2s-.1.1-.1 0c0 .1-.1 0-.1 0-.4-.3-.7-.7-1.1-1-.1-.1-.1-.1 0-.2.3-.1.7-.5 1.1-.9zm-2.1 3.4.6.6c.1.1.1.1 0 .2-.3.3-.5.7-.8 1 0 0-.1.1-.1 0 0 0-.1 0-.1-.1-.1-.1-.3-.2-.4-.4-.1 0-.1 0-.2-.1s-.2-.3-.4-.4c-.2-.1-.3-.3-.5-.5l-.9-.9c-.2-.2-.3-.4-.6-.5-.1-.1-.1-.2-.2-.2l-.3-.3c-.1-.1-.1-.2 0-.3.1-.2.3-.3.5-.5l.5-.5s.1-.1.2 0 .1.1.1.2c-.4.5-.3 1.2 0 1.7.4.6 1.2.8 1.9.5h.2c.1.2.3.3.5.5zm8.6-3.3c.1 0 .1 0 0 0 .1 0 .1 0 0 0 .1.1 0 .1 0 .2l-.5.5-.4.4c-.1.1-.1.1-.1 0h-.1c.1.1 0 .1 0 .1-.1.1-.1 0-.1 0l-.2-.2-.1-.1-1.4-1.4c-.1-.1-.1-.1 0-.1l.3-.3c.1-.1.1 0 .1 0 .6.5 1.3.9 1.9 1.4 0 0 0 .1.1 0l-.1-.1c-.1-.1-.1-.1 0-.2v-.1l-.2-.2-.7-.7-1.5-1.5c-.1-.1-.1-.1 0-.2l.3-.3c.1-.1.1-.1.2 0l.6.6.9.9.3.3c.2.2.4.3.6.6h.1c.1 0 .1.1.2.1-.1.2-.2.3-.2.3zM16 11.5l.1.1.7.7c.1.1.1.4-.1.5h-.1c-.1-.1-.2-.1-.2 0l-.1.1c-.1.1-.1.1 0 .2.1 0 .1.1 0 .1l-.3.3s-.1.1-.1 0c-.1-.1-.2-.1-.2-.2s-.1-.1-.1-.1c-.2-.1-.3-.3-.4-.4l-1-1c-.1-.1-.2-.1-.4 0l-.5.5c-.1.1-.1.2 0 .3l.3.3v.1h-.1l-.3-.3c-.2-.2-.2-.3 0-.5.5-.5 1-1 1.5-1.6.2-.2.3-.2.5 0 .3.4.6.6.8.9zm.5 3.2v.2c0 .1 0 .1.1.2.1 0 .2.1.2 0h.1l.5.5v.1c-.1.1 0 .2 0 .2.1.1.2.1.2 0 .1-.1.1 0 .2.1.1 0 0 .1 0 .1-.4.5-.9.9-1.3 1.4-.1.1-.1.1-.2 0-.3-.3-.6-.4-1-.5h-.1l-.3-.3c-.1-.1-.1-.2 0-.3.1-.2.3-.3.4-.4l.3-.3.3-.3.4-.4c.1-.2.1-.3.2-.3zm4.9 8.3c0-.1-.1-.2-.2-.3-.1-.1-.1 0-.1 0s-.1.1-.1 0-.1-.1 0-.2l.8-.8c.1-.1.1-.1.2 0l1.3 1.3c.1.1.2.1.3.1.1 0 .1 0 .1.1s0 .1-.1.1l-1 1-1.5 1.5c-.1.1-.1.1-.2 0l-1.2-1.2-.2-.2.8.8-.6-.6c-.1-.1-.1-.2-.2-.2s-.1-.1-.2-.1v-.1l.2-.2h.2v.1c-.1.1-.1.1 0 .2-.1.2.1.1.2.1s.1 0 .1-.1l.6-.6c-.2.1 0 .3-.1.5l.1.1h.2c.1 0 .1.1.1.1v.2c.1.1.1.2.3.1.1 0 .2 0 .3-.1l1-1c.1-.1.1-.2.1-.3v-.1c0-.1-.1-.3-.2-.3s-.2-.1-.2-.1l-.1-.1v-.1c-.1-.1-.2-.1-.3-.1-.1 0-.3 0-.4.1.1.3 0 .3 0 .4zm1.6-5.3.8.8c.2.2.2.2 0 .3-.3.3-.6.6-.8.9-.1.1-.1.1-.2 0-.2-.2-.3-.5-.5-.7-.2-.3-.3-.5-.6-.8l-.4-.4c-.1-.1-.1-.1 0-.2l.7-.7c.1-.1.1-.1.2 0 .2.3.5.6.8.8zm-2.4 2.1.6-.6s.1-.1.1 0l.2.2.9.9c.1.1.1.1 0 .1l-.2.2-.9.9c-.1.1-.1.1-.2 0l-.1-.1-1.1-1.1c-.1-.1-.1-.1 0-.1.3 0 .5-.2.7-.4zm2.9.2.8-.8c.1-.1.1-.1.2 0s.1.2.2.3l1.2 1.2c.1.1.1.1 0 .2l-1 1-.7.7s0 .1-.1 0c-.1 0 0-.1 0-.1l.1-.1 1-1c.1-.1.2-.2.1-.3v-.2c-.1-.1-.1-.2-.2-.1l-.2-.2v-.1c-.1-.1-.2-.1-.3-.2-.2 0-.2 0-.3.1l-1 1c-.1.1-.1.1-.2 0l-.2-.2c-.1-.1-.1-.1 0-.2.1-.5.4-.8.6-1zm-7.2 3.3 1.2 1.2c.1.1.1.1.2 0l.7-.7c.1-.1.1-.1.2 0 0 0 .1 0 0 .1s-.1.2-.2.2l-.3.3c-.2.2-.5.4-.7.7 0 0-.1.1-.1 0h-.1c0 .1-.1 0-.1 0-.1-.1-.2-.2-.4-.3-.3-.3-.7-.7-1.1-1 0 0 0-.1-.1-.1s-.1-.1-.2-.1l-.5-.5-.4-.4c-.1-.1-.1-.1 0-.2l.3-.3c.1-.1.1-.1.3 0 .5.3.9.7 1.3 1.1zm6.2 1.5c.4-.4.8-.9 1.3-1.3.1-.1.1 0 .2 0s.1.1 0 .1c-.1.1-.1.2-.1.3 0 .1.1.2.2.2.1.1.1.1 0 .1l-.3.3c-.2.3-.5.5-.8.8-.4.4-.8.8-1.2 1.3-.1.1-.1.1-.1 0l-.4-.4c-.1-.1-.1-.1 0-.2l1.2-1.2zm-8.4-11.4-.7-.7c-.1-.1-.1-.2 0-.3l.6-.6c.1-.1.2-.1.2 0l.3.3 1.2 1.2c.1.1.1.2 0 .3l-.5.5c-.1.1-.2.1-.3 0-.3-.3-.5-.5-.8-.7zm11.3 8.5s-.1 0 0 0l.9-.9c.1-.1.1-.1.1 0 .1.2.3.3.5.5.1.1.1.1 0 .1l-.9.9-.6.6c-.1.1-.2.3-.4.4-.1 0-.1.1-.2 0l-.4-.4c-.1-.1-.1-.1 0-.2l1-1zm-14.1-9.6-.6-.6s-.1-.1 0-.2l.7-.7h.1l.2.2 1 1s.1.1 0 .1l-.7.7h-.1c-.1-.1-.3-.3-.6-.5zm6.8 2.2-.5-.5c-.2-.2-.2-.2 0-.4l.6-.6s.1-.1.1 0V13.3c.1.1.2.1.2 0h.1l.5.5s.1.1 0 .1v.2c.1.1.2.1.2 0 .1-.1.2 0 .2.1.1.1 0 .1 0 .2l-.6.6c-.1.1-.1.1-.2 0-.2-.2-.4-.3-.6-.5zm0 0 .6.6s.1.1 0 .1c-.2.3-.5.5-.7.8-.1.1-.1 0-.2 0 0 0-.1-.1 0-.1.1-.1.1-.2 0-.3-.1-.1-.2-.1-.3 0h-.1c-.1-.2-.3-.3-.4-.4-.1-.1-.1-.1 0-.2s0-.3-.1-.3-.1 0-.2.1h-.1v-.1l.7-.7h.1c.3.1.5.3.7.5zm-.4 8.3c.3.2.5.5.8.7 0 0 .1.1 0 .1l-.7.7h-.1l-.3-.3c-.3-.4-.7-.9-1-1.4-.1-.1-.1-.2 0-.2l.3-.3c.1-.1.1-.1.2 0 .3.2.5.4.8.7zm-7.5-13c.5-.5 1-1 1.5-1.6.3-.2.5-.4.8-.7.1-.1.1-.1.2 0s.1.1 0 .2l-.2.2c-.7.7-1.4 1.4-2.1 2.2 0 0-.1.1-.1 0-.1 0-.2.1-.2.1.1.1 0 .1-.1.2l-1.4 1.4-.9.9c-.1.1-.1 0-.2 0-.1-.1-.1-.1 0-.2L8 12l2.2-2.2zm13.1 11.8.7.7c.1.1.1.2 0 .2l-.4.4s-.1 0-.2.1c0-.1-.1-.1-.1-.2l-.1-.1c-.2-.1-.3-.3-.5-.5l-.3-.3s-.1 0-.1-.1l-.3-.3c-.1-.1-.1-.1 0-.2s.2-.3.4-.4c.1-.1.1-.1.2 0 .2.3.4.5.7.7zm-7-2c-.6.6-1.5.6-2.1 0-.6-.6-.6-1.5 0-2.1.6-.6 1.6-.6 2.2 0 .5.6.5 1.5-.1 2.1zm9.6 5.4c-.1 0-.1.1-.2 0l-.8-.8c-.3-.3-.7-.6-1-1l-.2-.2v-.1c.1-.1.2-.2.2-.3.1-.1.1-.1.2 0 .4.4.8.9 1.3 1.3.2.3.5.5.7.8 0 0 .1 0 0 .1-.1.2-.2.3-.2.2-.1.1-.1.1 0 0zm-4.5-11.7c-.2-.1-.3 0-.4.1-.1.1-.2.2-.1.4-.1-.1-.2-.2-.4-.3l-1.2-1.2v-.1l.4-.4h.1c0 .1.1.1.2.2.2.2.4.4.7.6l.7.7c-.1-.1-.1-.1 0 0zm-7.7 8.3c-.1 0-.1 0 0 0-.2-.1-.3-.3-.5-.4-.1-.1-.2-.1-.1-.2-.1 0-.1 0-.1-.1l-.6-.6-.4-.4s-.1-.1 0-.1v-.1h-.1s-.1.1-.1 0v-.1l.3-.3c.1-.1.1-.1.2 0l1.2 1.2.3.3h-.1c-.2 0-.3.1-.3.3-.1.1 0 .3.1.4.1 0 .1 0 .2.1zm7.9 2.3-.2-.2-.2-.2c-.1 0 0-.1 0-.1l.4-.4c.1-.1.2-.1.3-.1h.1c0 .2.1.3.3.3h.1l.2.2v.1c0 .1.1.3.2.3s.1 0 .1.1 0 .1-.1.2l-.4.4c-.1.1-.1.1-.1 0-.4-.3-.5-.5-.7-.6zm3.3-2.2-.2.2h-.1l-.9-.9s-.1-.1 0-.1l.5-.5s.1-.1.2-.1.1 0 .1.1c0 0 .2.3.2.2.1 0 .1 0 .2.1s.1.1.1.2.1.2.2.2.2.1.1.2-.3.2-.4.4c0-.2-.1-.3-.2-.4h-.1v.1c0 .1.1.2.3.3zm-3.3 2.2.5.5s.1.1 0 .1c-.1.1-.3.3-.4.5h-.4s-.1 0-.1-.1-.1-.2-.2-.2-.2-.1-.3-.2v-.1c0-.1-.1-.3-.2-.3s-.1 0-.1-.1 0-.2.1-.2l.4-.4c.1-.1.1-.1.2 0l.5.5zm-10-13.3-.1-.1-.1-.1c-.1-.1-.1-.2 0-.3l.5-.5c.1-.3.1-.3.1-.1v.1c.1.3.4.5.7.6.1 0 .1 0 0 .1l-.6.6c-.1.1-.2.1-.3 0 0-.1-.1-.2-.2-.3zm6.5 8.4c.2.2.4.4.6.5.1.1.1.1 0 .2l-.3.3c-.1.1-.3.2-.4.4 0 0-.1.1-.1 0-.1-.1-.2-.2-.2-.4 0-.5 0-.9-.1-1.4 0-.1 0-.2-.1-.2 0 0-.1 0-.1-.1h.1c.2.3.4.5.6.7zm-8.8-7c.2-.2.4-.5.6-.7.1-.1.2-.1.3 0l.6.6c.1.1.1.2 0 .3-.2.2-.4.3-.5.5-.1.1-.1 0-.1 0-.1-.3-.3-.5-.6-.6-.1 0-.2 0-.3-.1zm16.9 13.1c0-.1-.1-.1 0-.1h.1c.2.1.3.3.5.4.2.1.3.2.5.3l.2.2c.1.1.1.2 0 .3l-.3.3c-.1.1-.2.1-.3 0-.1-.1-.2-.3-.4-.4-.1-.2-.2-.4-.4-.6 0 0-.1-.1-.1-.2v-.1h.2c-.1 0-.1-.1 0-.2-.1 0-.1 0 0 .1zm-5.4 2.2.6-.6c.1-.1.1-.1.1 0l.2.2c.1.1 0 .1 0 .1l-.4.4-.8.8c-.1.1-.1.1-.1 0l-.2-.2c-.1-.1-.1-.1 0-.2.2-.1.4-.3.6-.5zm3.3-4.9c0-.1-.1-.1-.1-.2l-.8-.8c-.1-.1-.1-.1 0-.2l.4-.4h.1l.2.2.7.7s.1.1 0 .1c-.2.3-.3.5-.5.6zm3.7-1.4-.6.6c0 .1-.1.1-.1 0l-.3-.3c-.1-.1-.1-.1 0-.2l1.2-1.2h.1l.3.3s.1.1 0 .1c-.2.3-.4.5-.6.7zM11 18.8c-.1 0-.2 0-.2-.1l-.7-.7-.4-.4-.1-.1c0-.1 0-.1-.1-.1h-.1l-.3-.3s-.1 0 0-.1h.1c.1.1.1.1.2 0l.1-.1c0 .1 0 .1.1.1l1.2 1.2s.1.1.1.2c0 0 0 .1.1.1s.1 0 .1.1l.4.4s.1.1 0 .1c-.1.1-.1.2-.2.2s-.1-.1-.2-.1c-.2-.2-.2-.3-.1-.4zm1.5-10.1c.3-.3.7-.3 1 0 .3.3.3.7 0 1-.3.3-.7.3-1 .1-.3-.4-.3-.8 0-1.1zm7.8 10.9-.4.4s-.1.1-.1 0c-.1-.1-.2-.2-.3-.2-.1-.1-.1-.1 0-.1.2-.1.3-.3.4-.4l.4-.4h.1l.2.2c.1.1.1.1 0 .2l-.3.3zm-1.7-7.7.3-.3.1-.1s.1 0 .1-.1v-.1l-.2-.2c-.1-.1-.1 0-.1 0 0 .1-.1.2-.1.3-.1.2-.1.2-.2 0l-.1-.1s-.1-.1 0-.1v-.1c-.1-.1 0-.1 0-.2l.3-.3s.1-.1 0-.1c0 0-.1-.1-.1 0-.1 0-.1 0-.1-.1s-.1-.1-.1-.1h-.1c0-.1 0-.1.1-.2 0 0 0-.1.1 0v.1c.1 0 .2.1.3.2l.4.4.4.4s.1.1 0 .1l-.5.5c-.4.1-.4.2-.5.1zm2.8 2.5c.1 0 .1 0 .2.1l.1.1s.1.1 0 .1c0 0-.1.1-.1 0l-.4-.4-1.3-1.3-.9-.9s-.1-.1 0-.2.1 0 .1 0l.3.3c.3.2.5.5.7.7l.7.7.5.5c.1.2.1.3.1.3zm-3.3-3.3c-.1 0-.1 0 0 0-.3-.3-.6-.5-.8-.8v-.1c0-.1-.1-.2-.1-.2-.2.1-.2 0-.3 0 0 0-.1-.1-.1 0-.1.1-.1 0-.2 0l-.2-.2-.2-.2s-.1-.1-.2-.1c-.1.1-.1 0-.1 0-.1-.1-.1-.1-.2 0l-.1.1c-.1 0-.1.1-.1.1l-.2.2c.1-.1.1-.1.1-.2l.6-.6c-.1-.1 0-.1.1-.2 0 0 0-.1.1-.1l.1.1V9l-.1.1s-.1 0-.1.1c0 0 0 .1.1.1l.3.3.1.1c.1 0 .1 0 .1.1 0 .2.1.2.2.2h.2c.1.1.2.1.3.1.1 0 .2 0 .3.1l.3.3c.1.1.1.1 0 .2 0 0-.1.1 0 .1.1.1.1.1.2 0 0 0 0-.1.1 0v.1c-.2 0-.4.1-.2.2zm-1.2 8.6.2.2c.1.1.1.1.2 0l.2-.2c0 .3.1.6.1.8 0 .1 0 .2-.1.2l-.1.1c-.1.1-.1.1-.2 0l-.2-.2-.1-.1v-.8zm-8.2-6.1c-.3-.3-.3-.7 0-1 .3-.3.7-.3 1 0 .3.3.3.7 0 1-.3.2-.7.2-1 0zm13.6 11.1c.4-.4.8-.9 1.3-1.3 0 0 .1-.1.1 0 .1.1 0 .1 0 .1-.1.1-.3.2-.4.4-.7.7-1.4 1.5-2.2 2.2 0 0-.1.1-.1 0-.1-.1 0-.1 0-.1l1.3-1.3zm-.2-8s0 .1 0 0c.3.3.6.5.8.7l1.3 1.3c.1.1.1.1 0 .1l-.2.2-1 1s-.1.1-.1 0-.1-.1 0-.2l.3-.3.9-.9c.1-.1.1-.1 0-.1-.1-.1-.2-.1-.2-.2l-1.2-1.2c-.4-.1-.5-.2-.6-.4zm.5-.9-.8-.8s-.1-.1 0-.1c0-.1.1 0 .1 0l.3.3c.3.3.6.6.9.8l.7.7c.2.2.5.4.7.7v.1h-.1c-.6-.6-1.2-1.1-1.8-1.7zm-6-1.4c.6-.7 1.3-1.3 1.9-1.9 0 0 .1-.1.1 0v.1l-.8.8-2.9 2.9-.2.2h-.1v-.1l.1-.1c.6-.6 1.3-1.2 1.9-1.9zm.1 6.2c-.3-.2-.5-.4-.7-.6v-.1c.2-.2.4-.4.6-.7 0 0 0-.1.1 0v1.4zm.5-9.8c.1.1.2.2.4.3l1 1c.1.1 0 .1 0 .2.1-.1 0-.1 0-.2-.6-.5-1-.9-1.4-1.3-.5-.4-.9-.8-1.3-1.2-.1-.1-.1-.1-.2 0l-.4.4c-.1.1-.1.1 0 .2l.7.7 1.6 1.6.1.1s-.1 0-.1-.1l-.6-.6-1.7-1.7c-.1-.1-.1-.1 0-.2.2-.1.3-.3.5-.5.1-.1.1-.1.2 0 .3.4.8.8 1.2 1.3zM6.6 14.7l-.1-.1c-.1 0-.1-.1 0-.1l.9-.9c.1-.1.1-.1.3 0v.1c-.2.1-.4.3-.7.6l-.4.4zM13.8 7l.5-.5c.1-.1.1-.1.2 0s.1.1 0 .2l-1 1c-.2.2-.1.2-.3 0 0 0-.1-.1 0-.1.3-.2.4-.4.6-.6zm3.1 12.5v-.7c0-.2 0-.4.2-.6h.1c.2.1.3.3.3.6 0 0 0 .1-.1 0s-.1 0-.1 0l-.2.2s-.1.1 0 .1c0 0 .1.1 0 .1-.1.2-.1.2-.2.3zm-2.6-5.7-.5-.5s-.1-.1 0-.1c.1-.1.1 0 .1 0l1 1c.1.1.2.1.4 0l.3-.3c.1-.1.1 0 .1 0 .1 0 .1.1 0 .1l-.4.4c-.2.1-.3.2-.4 0l-.6-.6zm10.9 8 .9-.9s.1-.1.1 0c.1.1 0 .1 0 .1l-1.8 1.8s-.1.1-.1 0c-.1-.1 0-.1 0-.1l.9-.9zm-11.1-5.2c.3-.3.5-.6.8-.8 0 0 .1-.1.1 0 .1.1 0 .1 0 .1l-1.7 1.7s-.1.1-.1 0c-.1-.1 0-.1 0-.1l.9-.9zm.8.1.2.2s.1 0 0 .1H15c-.4 0-.7.2-1 .5-.1.1-.1 0-.1 0s-.1-.1-.1-.2.1-.1.2-.1c.1-.2.3-.3.4-.4h.1c0-.1 0-.1.1-.1h.1c.1-.1.2 0 .2 0zm2.3-7.2-.3-.3c-.1-.1-.2-.2-.3-.2 0 0-.1-.1 0-.1 0-.1.1-.1.1-.2.1 0 .1.1.1.1.2.1.3.2.4.3l.4.4.4.4v.1c-.1 0-.1.1-.2 0l-.3-.3c0-.1-.2-.1-.3-.2zm-6.5 8.2.9.9s.1.1 0 .1h-.1l-.4-.4s-.1-.1 0-.1c0-.1 0-.1-.1-.1s-.1 0-.2-.1c-.1 0-.1-.1-.1-.1l-1-1c-.1-.1-.1-.1 0-.2.1 0 .1 0 .1.1l.9.9zm7.2 5.2L17 22s-.1-.1-.1-.2c.1 0 .1.1.2.1l1.7 1.7c.1.1.1.1.2 0l1.7-1.7s.1-.1.1 0 0 .1-.1.1l-1 1-.8.8c-.1.1-.1.1-.2 0-.2-.3-.5-.6-.8-.9zm3.7-4.2c-.1 0-.2 0-.2.1l-1.8 1.8c-.1.1-.2.1-.2.3-.1-.1-.1-.2 0-.3l1-1 1-1c0-.1.1-.1.2.1zm-2 5.6h.1s0-.1.1 0v.1s-.1 0 0 .1h.1l.4-.4.3-.3v-.1h-.1c0 .1-.1.2-.2.2 0 0-.1 0-.1.1s-.1.1-.2.2h-.1v-.1l.1-.1c.1-.1.2-.1.2-.2.1-.2.3-.3.4-.5h.1c.1 0 .1-.1.1-.1 0-.1.1-.1.2-.2s.2-.1.2-.3h.1c.1.1.1.2 0 .3-.4.4-.8.9-1.3 1.3-.2.1-.2.1-.4 0zm.9-10.1c.6.6 1.2 1.1 1.7 1.7l.1.1v.1h-.1l-1.5-1.5c-.5-.5-1.1-1-1.6-1.6l-.6-.6s-.1 0 0-.1h.1l1.9 1.9zm-9.8 3.1 1 1s.1.1 0 .1c-.1.1-.1 0-.1 0-.7-.7-1.4-1.3-2-2 0 0-.1-.1 0-.1.1-.1.1 0 .1 0l1 1zm10.6 9.1c.2.1.2.1 0 .2l-.6.6-.6.6s-.1.1-.1 0v-.2c0-.1.2-.2.3-.2 0 0-.1 0 0-.1s.1-.2.2-.3c.1 0 .1.1.1 0s-.1-.1 0-.1c.1-.1.1-.2.2-.2s.2 0 .1-.1c0-.1.1-.1.2-.2 0 .1.1.1.1 0 .2.1.1.1.1 0zm-5.2-11.9-.2.2h-.1l-.2-.2c-.1-.1 0-.1 0-.2l.3-.3h.1l.2.2c.1.1.1.1 0 .2l-.1.1zm-1.8 5.9c.1.1.1.1 0 0 .7.7 1.3 1.2 1.8 1.8 0 0 .1 0 0 .1H16c-.5-.6-1.1-1.2-1.7-1.9-.6-.6-1.2-1.2-1.9-1.8 0 0-.1 0 0-.1h.1c.6.7 1.2 1.3 1.8 1.9zm12.9.1s0-.1 0 0c.1-.2.2-.3.4-.3V20c0-.1.3-.3.4-.2 0 0 .1 0 0 .1l-.1.1-1.1 1.1-.1.1c-.1 0 0-.1 0-.1-.1-.1 0-.1 0-.2 0 0 .1-.1.2-.1 0 0 .1 0 .1-.1v-.1l.1-.1h.1c.1.1.1 0 0 0 .1 0 .1 0 0 0zm-11-5.8c0-.1-.1-.1 0-.2l1.3-1.3s.1-.1.1 0c.1.1 0 .1 0 .1l-.9.9c-.2.2-.3.4-.5.5zm5.8 6.5c.1 0 .1 0 0 0l-.7.7s-.1.1-.1 0c-.1-.1 0-.1 0-.1 0-.1.1-.1.2-.2l1.2-1.2s.1-.1.1 0c.1.1 0 .1 0 .2-.2.2-.4.4-.7.6zm-1.6 2.2-.5.5s0 .1-.1 0-.1-.2 0-.2l.9-.9.1-.1h.2c0 .1 0 .1-.1.1-.2.3-.4.5-.5.6zm-6.8-6 .9-.9s.1-.1.1 0v.1c-.6.7-1.3 1.3-1.9 2 0 0-.1.1-.1 0v-.1c.3-.4.7-.7 1-1.1zm9.5 8.2c-.4.4-.8.8-1.1 1.2 0 0-.1.1-.1 0v-.1c.1-.1.2-.1.2-.2.7-.7 1.4-1.4 2-2.1l.1-.1c0 .1 0 .1-.1.1-.2.4-.6.8-1 1.2zm-4.3-4.9-.4-.4s-.1-.1 0-.1h.1l.2.2c.2.2.3.4.5.5.5.3.9.6 1.4.9 0 0 .1 0 .1.1s-.1 0-.1 0c-.3-.2-.6-.4-.9-.5-.3-.3-.7-.5-.9-.7zm-6-13c-1.7 1.7-3.4 3.4-5.1 5.2 1.7-1.8 3.4-3.5 5.1-5.2zM21.5 18c.1.1.3.2.4.4.3.5.6.9.9 1.4 0 0 .1.1 0 .1h-.1c-.2-.3-.3-.5-.5-.8-.2-.3-.4-.6-.7-.9-.2-.1-.3-.3-.4-.4 0 0-.1-.1 0-.1h.1c0 .1.1.2.3.3zm1.4 2.5c.1-.1 0-.3.2-.4l.8-.8c.1-.1.1-.1.2 0v.1l-.9.9c-.2 0-.2.1-.3.2zm-3 2.5.9-.9.1-.1h.1v.1l-.1.1-1 1-.7.7s-.1.1-.1 0 0-.1.1-.1c.1-.2.4-.5.7-.8zm-9.2-5.5c.4.4.8.7 1.1 1.1 0 0 .1.1 0 .1h-.1c-.3-.2-.5-.5-.8-.7-.4-.3-.7-.7-1.1-1.1l-.4-.4s-.1 0 0-.1h.1c.5.4.8.8 1.2 1.1zm.5-1 .9.9.3.3s.1 0 0 .1h-.1l-1.4-1.4-.9-.9s-.1-.1-.1 0l-.4.4v.1l.1.1s-.1 0-.1-.1c-.1-.1-.1-.1 0-.2.2-.1.3-.3.4-.4.1-.1.1-.1.2 0l1.1 1.1zm13.4 7.6.1.1v.1c0 .1-.2.1-.3.1-.1-.1-.3-.2-.4-.3-.1-.1-.1-.3 0-.4.1-.1.1 0 .1 0 .2.2.3.3.5.4zm-6.6.6.6-.6s.1-.1.1 0v.1c-.1 0-.1.1-.2.2l-.6.6c-.1.1-.3.2-.3.3l-.1.1s-.1 0-.1-.1 0-.1.1-.1c0 0 .1 0 .1-.1.1-.2.3-.3.4-.4zm-7.5-8c.1-.1.3-.2.4-.2V16.8s0 .1.1 0h.2c-.1.1 0 .1 0 .2 0 0 0 .1.1.1h.2v.1c0 .2 0 .2-.1.3v-.1c-.1-.1-.1-.1.1-.1 0 0 0-.1-.1-.1s-.1 0-.1-.1c0 0 0-.1-.1-.1.1.1 0 .1-.1.1s-.1 0-.1-.1v-.1s0-.1 0 0h.1s0-.1-.1-.1-.1 0-.1-.1c0 0 0-.1-.1-.1v.2l-.1-.1c0-.1 0-.1.1-.1h.1v-.1c-.1 0-.1 0-.1-.1h-.1v.1c.1.2 0 .2-.2.2.1-.1.1 0 0 0zm.1-.3h-.1s0-.1-.1-.1v.2h-.1s-.1 0 0 0v-.1s0-.1 0 0h.1s0-.1-.1-.1-.1 0-.1-.1c0 0 0-.1 0 0v.1c0 .1 0 .1-.1.1s-.2 0-.1-.1v-.1h.2s0-.1-.1-.1-.1 0-.1-.1c0 0 0-.1-.1-.1v.2h-.1s-.1 0 0 0V16c.1 0 .1 0 .1-.1v-.1.1c0 .1 0 .1.1.1h.2V16.3h.2c.1 0 .1 0 .1.1v.2s0 .1 0 0c.1-.1.1 0 .2 0h.1c-.1-.4-.1-.3-.2-.2.1-.1.1-.1 0 0zm6.5-4.7v-.1c0-.1 0-.1.1-.1h.1v-.1h-.2v-.1H17v.2h-.2c-.1 0-.1-.1-.1-.1h.2s0-.1-.1-.1-.1 0-.1-.1c0 0 0-.1-.1-.1 0 0-.1 0-.1.1.1.2-.1.1-.1.1-.1 0 0-.1-.1-.1v-.1h.2V11h-.2v-.1h-.1v.2h-.1s-.1 0-.1-.1l.2-.2s.1.1.1 0c.1 0 .1 0 .1.1 0 .2.1.3.2.2.1 0 .1 0 .1.1s0 .2.1.2c0 0 .1.1.2 0 0 0 .1 0 0 .1v.1c.3-.1.2 0 .1.1zm.6-1.5c-.1 0-.1 0 0 0-.4-.4-.8-.7-1.1-1.1 0 0-.1-.1 0-.1h.1l.4.4c.2.3.5.4.6.8zm-4.1 11.2c-.2-.2-.2-.3 0-.5.1-.1.3-.1.4.1v.1H13.7v.2l.1.1s.1.1 0 .1c0 .1-.1.1-.2-.1 0 .1 0 0 0 0zm6.6 1.9-.4.4-.1.1h-.1c0-.1 0 0 .1-.1.1 0 .1 0 .1-.1 0-.2.2-.3.3-.3.1 0 .1-.1.1-.1.1-.1.1-.2.3-.3.1 0 .1-.1.1-.1v-.1s.1 0 .1.1 0 .1-.1.1c-.1.1-.3.2-.4.4zm-9.3-5.8-.9-.9-.3-.3s-.1 0 0-.1h.1l2.2 2.2.1.1c.1.1.1-.1.2-.1h.1c0 .1-.1.1-.2.2h-.1c-.4-.4-.8-.7-1.2-1.1zM26 22.6c.3-.3.6-.6.8-.9l.1-.1s0 .1-.1.1l-1.5 1.5-.3.3h-.1v-.1l.1-.1c.4-.1.7-.4 1-.7zm-5.5-4.2c0 .1 0 .2-.1.3l-1 1c-.1.1-.2.1-.2.1.4-.5.8-1 1.3-1.4zm-2.6 2.1.4-.4.2-.2h.1v.1l-1.1 1.1-.1.1h-.1v-.1l.1-.1c.2-.2.3-.4.5-.5zm6.9-2.7.5-.5s.1-.1.1 0c.1.1 0 .1 0 .1l-.4.4-.7.7h-.1v-.1s.1 0 .1-.1c.2-.2.4-.3.5-.5zM14 21.9c0-.1-.1-.1 0 0-.1-.1-.1-.1-.1-.2.1-.1.1-.1.2 0 0 0 .1.1.2 0 .1 0 .1-.1.1-.2v-.2h.1c.1.1.2.2.1.3-.2.4-.4.5-.6.3zm2.4-11.3-.1.1c-.1 0 0-.1 0-.1s0-.1-.1-.1c0 0-.1 0 0 .1v.1h-.1s-.1-.1 0-.2c0-.1.1 0 .1 0h.1s0-.1-.1-.1-.1 0-.1-.1v-.1H16v.1s.1.1 0 .1h-.2v-.1h.1s.1 0 .1-.1c0 0 0-.1-.1-.1s-.1 0-.1-.1v-.1s-.1 0 0-.1h.2c.1 0 .1 0 0 0 0 .2.1.3.2.2.1 0 .1 0 .1.1s0 .2.1.2c0 0 .1.1.2 0-.2.1-.2.2-.2.3 0-.1 0 0 0 0zm5 2.8c.1 0 .1.1 0 0 .1.1.1.2.1.2-.1.1-.1.1-.2 0l-.1-.1c-.1 0-.1-.1-.2 0-.1 0-.1.1-.1.2v.2h-.1c-.1-.1-.1-.3 0-.4.3-.2.5-.3.6-.1zM15.7 9l.3-.3s.1-.1.1 0v.1l-.8.8s-.1.1-.1 0c-.1-.1 0-.1 0-.1.2-.1.3-.3.5-.5zm2.5 3.7c-.1.1-.1.1-.2 0l-.1-.1c-.1-.1-.1-.1 0-.1l.2-.2c.2-.2.2-.2.4 0 .1.1.1.2 0 .3-.1-.2-.1-.2-.2-.2s-.2.1-.2.2c-.2 0-.1 0 .1.1zm-5.6 5.7c-.1.1-.1.1-.2 0l-.1-.1c-.1-.1-.1-.1 0-.2l.1-.1c.2-.2.2-.2.4 0 .1.1.1.1 0 .2-.1-.2-.1-.2-.2-.2s-.2.1-.2.2c-.1.1 0 .1.2.2zm5.7-6.7c.1-.1.2-.2.2-.3.2-.2.1-.2.3 0v.1l-.3.3s0 .1-.1 0c.1-.1 0-.1-.1-.1zm-1.8 10.6s-.1 0 0 0l-.1.1v-.1c.3-.3.5-.7.8-1 0 0 0-.1.1 0 .1 0 0 .1 0 .1-.3.2-.6.6-.8.9zm4.8-5.2c.2-.2.4-.3.6-.5.1-.1.3-.2.4-.3 0 0 .1-.1.1 0v.1l-.2.2c-.3.1-.6.3-.9.5 0 .1 0 .1 0 0zm-9.4-7.9v.2l-.5.5c-.1.1-.2.1-.2.3-.1-.1-.1-.2 0-.3l.7-.7zM9.1 12l.8-.8c.1-.1.1-.1.2 0-.1 0-.1 0-.2.1l-.6.6c-.1.1-.1.1-.2.1zm.1 4.6c0 .1.1.2.1.2.1.1.1.2 0 .3 0 0-.1.1-.1 0-.1-.1-.2-.2-.2-.3 0-.1.1-.2.2-.2zm-1.8-2.3-.2.2s-.1.1-.1 0v-.1l.5-.5s.1-.1.1 0v.1l-.3.3zm11.7-2.7c.1 0 .1-.1.2-.2h.1v.1c-.1.2-.4.3-.5.5 0 0-.1.2-.2.1s0-.1.1-.2.1-.1.2-.1c0-.1.1-.2.1-.2zm-5.8 5.3c.1 0 .1-.1 0 0l.6-.6h.1v.1l-.5.5-.3.3-.3.3h-.1v-.1l.5-.5zm7.3 4.2.6.6s.1.1 0 .1h-.1L20 20.7s-.1-.1 0-.1h.1l.5.5zm1.3-1.4-.6-.6s-.1 0 0-.1h.1l1.2 1.2s.1 0 0 .1h-.1l-.6-.6zm-6.4-4.3-.3.3s-.1.1-.1 0c-.1 0 0-.1 0-.1l.6-.6s.1-.1.1 0v.1l-.3.3zm9.2 3.8-.4-.4c-.1-.1-.1-.1 0-.2s.1 0 .1 0l.1.1c.2.2.2.3.2.5zm-10.6-12s-.1 0 0 0c.1-.2.3-.3.4-.5l.1-.1c-.1 0-.1.1-.1.2l-.1.1c-.1 0-.1.1-.1.1-.1.2-.1.2-.2.2-.1.1-.1.1-.1.2s-.1.1-.2.1-.1.1-.1.1c0 .1-.1.2-.2.2l.1-.1c.1-.2.3-.3.5-.5zM8 13.4c.6.5 1.1 1.1 1.6 1.6L8 13.4zm12.7 9c0-.1.1-.1.1 0h.1s.1-.1 0-.2 0-.1.1-.1c.1-.1.2 0 .3-.1-.1.2-.3.3-.4.4 0 .1 0 .2-.2 0zm-6.1-.8c.2.1.2.1 0 .2l-.3.3s-.1.1-.1 0l-.4-.4c.1.1.2.3.4.2.3.1.4-.1.4-.3zm2.7-11 .3.3s.1.1 0 .1h-.1l-.6-.6s-.1-.1 0-.1h.1l.3.3zm-.9-1.2c0-.1 0-.1 0 0-.2-.1-.2-.2-.1-.3.1-.1.1-.1.2 0l.1.1c.1.1.1.2 0 .2 0 .2-.1 0-.2 0 .1 0 .1 0 0 0zm-7 6.2s0 .1 0 0l-.2.2s-.1.1-.1 0v-.1l.4-.4s.1-.1.1 0v.1c0 .1-.1.2-.2.2zm1.5 2.6h-.1c-.3-.3-.6-.6-.9-.8l-.1-.1v-.1h.1l.2.2.8.8zm-3.1-5.1.1.1c.1.1 0 .1 0 .1h-.1l-.2-.2s-.1-.1 0-.2c0 .1.1.1.2.2-.1 0 0 0 0 0zm9.7 6.5s0 .1 0 0l-.3-.3c-.1-.1 0-.1 0-.1.1 0 .2-.1.3-.1v.5zm.1.6c.1.1.2.2.3.2v.1c-.1.1-.2.2-.3.2v-.5zm3.3-2.7.3-.3s0-.1.1 0v.1l-.6.6h-.1v-.1l.3-.3zm-7.8-7.3-.3.3c-.1.1-.1 0-.1 0s-.1-.1 0-.1c.1-.2.2-.2.4-.2zm1.3-1.3c.1-.1.2-.1.2 0 0 0 .1.1 0 .2l-.1.1h-.1v-.3c-.1.1 0 .1 0 0zm5 3c-.1 0-.1.1-.2.1h-.1v-.1c.1-.2.2-.3.4-.4h.1v.1c0 .1-.1.2-.2.3zm-2.1-1.3-.2-.2s-.1 0 0-.1h.1l.7.7s.1.1 0 .1h-.1c-.1-.2-.3-.4-.5-.5zm-8.2 5c.2-.1.3-.3.4-.4h-.1c0 .3-.2.4-.3.4.1.1 0 .2-.1.2-.1-.1 0-.1.1-.2zm8.9-5.3c-.1.1-.1.1-.1 0-.1-.1-.1-.2-.2-.3v-.1h.1l.1.1c.1 0 .1-.1.2-.1h.1c-.1.3-.2.3-.2.4zm-6 .7c.1 0 .2-.1.3-.1 0 0 .1-.1.1 0l.1.1c-.1.1-.1.2-.2.2-.2-.1-.2-.1-.3-.2zm-3.3 5.2.2-.2s0-.1.1 0v.1s0 .1-.1.1h-.2c0 .2 0 .2-.1.3h-.1v-.1l.2-.2zm3.3 3.2-.1.1s0 .1-.1 0c0 0-.1-.1 0-.1.1-.1.2-.3.3-.3h.1v.1c-.1.1-.2.1-.2.2zM10.4 13c-.1 0-.1 0 0 0-.1.1-.1.1-.2.1s0-.1 0-.1c0-.1 0-.2.1-.2.1-.1.1-.1.2 0 0 .1 0 .1-.1.2zm3.8 3.1-.1.1H14v-.1l.1-.1.6-.6s0-.1.1 0v.1l-.6.6zm-4.7-5.7L11 8.9l-1.5 1.5zm-.2 6.2h.1l.4.4s.1.1 0 .1h-.1l-.3-.3s-.1-.1-.1-.2zm9-5.8-.2.2H18v-.1c.1-.1.2-.3.3-.4h.1v.1c0 .1-.1.1-.1.2zm-4.4 10.6.1-.1h.1v.1l-.3.3h-.1v-.1c.2-.1.2-.1.2-.2zm-1.1-10.5c-.1 0-.1.1-.2.1v-.2h.2c.1 0 0 0 0 .1zm2.5 4.1-.1.1s-.1.1-.1 0V15l.2-.2h.1c.1.1 0 .1-.1.2.1 0 0 0 0 0zm1.3-5-.2-.2s-.1 0 0-.1h.1l.5.5s.1 0 0 .1h-.1c-.2-.1-.3-.2-.3-.3zm-.6 3.8c0 .1 0 .1 0 0-.1.1-.2.1-.2.1V13.6h.2s0-.1.1 0c0 .1 0 .1-.1.2.1 0 0 0 0 0zm-5.1-1.1s.1 0 0 0c0 .1-.1.2-.2.3h-.1v-.2h.1c.1-.1.1-.1.2-.1 0-.1 0-.1 0 0zm3.2-4 .2.2V9h-.1s-.1 0-.1-.1l-.3-.3v-.1h.1c.1 0 .2.1.2.2zm-1.6 1.9c.1-.1.2 0 .3 0v.1h-.1s-.1-.1-.1 0-.1.1-.1.2v.1h-.1c0-.2 0-.3.1-.4zm4.3 2.5c-.1.1-.1.1 0 0-.1.1-.2.1-.2.1V13s0-.1.1 0h.2l-.1.1zM9.1 16c-.1 0-.1-.1-.2-.1 0 0-.1 0 0-.1H9l.4.4v.1h-.1c-.1-.1-.2-.2-.2-.3zm5.3 6.3c.1-.2.2-.3.3-.4h.1v.1l-.2.2c-.1 0-.1.1-.2.1zm-1.8-4.8c.2 0 .2 0 .2.1 0 0 0 .1-.1.1s-.1-.1-.2-.1c0 .1 0 0 .1-.1-.1.1 0 .1 0 0zm.4-9.7c0-.1 0-.1 0 0l-.1-.1s0-.1.1-.1h.1c.1.1.2.2.1.2-.1.1-.1 0-.2 0zm3.5 5c.1-.1.2-.1.3 0v.1h-.1s0-.1-.1 0l-.1.1v.1h-.1c0-.1 0-.2.1-.3zm-6-.3c.1-.1.2-.1.2 0v.1h-.1s-.1-.1-.1 0-.2.1-.1.1v.1h-.1c.1-.1.1-.2.2-.3zm5.2 1.1s.1-.1 0 0c.1-.1.2 0 .2 0v.1h-.1s-.1-.1-.1 0l-.1.1v.1h-.1c.1-.2.1-.2.2-.3zm-1.1-4 .1-.1s.1 0 .1.1 0 .1-.1.1l-.1.1c0 .1-.1.1-.1 0s.1-.2.1-.2zm1.2 5.2-1.5 1.5 1.5-1.5zm-6.2.4c-.1 0-.1-.1 0-.1s.2 0 .3.1c0 0 0 .1-.1.1h-.1l-.1-.1zm11.8-1.4.2-.2h.1v.1l-.3.3h-.1v-.1l.1-.1zm-10 5.3s0-.1 0 0c.1-.1.1-.1.2-.1v.1l-.2.2h-.1c0-.1 0-.1.1-.2-.1 0-.1 0 0 0zm-3.2-5.3c-.1 0-.1-.1-.2-.2v-.1h.1l.3.3v.1h-.1l-.1-.1zm.9 1c-.1 0-.1-.1-.2-.2v-.1H9l.3.3v.1h-.1s0-.1-.1-.1zm-.4-.5c-.1 0-.1-.1-.1-.1v-.1h.1l.3.3v.1h-.1l-.2-.2zm13.7 0c-.1.2-.2.3-.4.4h-.1v-.1c.2 0 .3-.2.5-.3zM8.8 16.8c-.1 0-.1-.1-.2-.1-.1-.1-.1-.1 0-.2h.1c.1.1.1.2.1.3zm8.4 2.9c0 .1-.1.1-.2 0s-.1-.1 0-.2.1-.1.2 0 .1.1 0 .2zM13.4 8l-.1-.1v-.1h.1l.4.4v.1h-.1c-.2-.1-.2-.2-.3-.3zm-.5 4.2s0 .1 0 0c-.2.3-.5.5-.8.8.3-.2.5-.5.8-.8zm-2.3 4.3.2-.2h.1v.1l-.4.4h-.1v-.1c0-.1.1-.2.2-.2zm.6-7.8c.2-.2.4-.5.7-.7l-.7.7zm.5 8.5c-.1.2-.3.3-.4.5v-.1c.1-.1.2-.3.4-.4zm9.7-3.1s0-.1.1-.1c0-.1.1-.1.1 0l.1.1s.1.1 0 .1c0 0-.1.1-.1 0-.1-.1-.1-.1-.2-.1zm-.3-.2v-.1c-.1 0 0-.1 0-.1h.1c.2 0 .2 0-.1.2.1-.1.1-.1 0 0zm-8.3 4s-.1 0 0-.1.1 0 .2 0c.1.1 0 .1 0 .1-.1.1-.1.1-.2 0zm3.7-9.1.1-.1h.1v.1l-.2.2h-.1c-.1-.1 0-.1.1-.2-.1.1-.1 0 0 0zm-2.2 12.6c-.1.1 0 .1 0 .2v.1s-.1.1-.1 0c-.1 0-.1-.1-.1-.1 0-.1.1-.1.2-.2-.1 0-.1 0 0 0zm10.4.2c-.1-.1-.1-.1-.1-.2 0 0 0-.1 0 0 .1 0 .2.1.2.2v.1c0-.1 0-.1-.1-.1zM16.2 8.8s0-.1 0 0c-.1-.1-.1-.1-.1-.2h.1l.1.1v.1c0 .1 0 .1-.1 0 .1 0 0 0 0 0zM8 11.9c.2-.3.4-.5.7-.7-.2.3-.5.5-.7.7zm7.1 3.5.6-.6-.6.6zm-.4 6.7s-.1 0 0 0c0-.1.1-.1.1-.1h.1v.1l-.3.3h-.1v-.1l.2-.2zm-.7-.9c-.1.1-.1.2-.1.2-.1 0-.1-.1-.1-.1v-.1h.2zm6.8 1.4s.1.1.1.2v.1h-.1c-.1 0-.1-.1-.2-.2v-.1c.1-.1.2-.1.2 0zm-4-13.2c.2.2.4.3.6.5h-.1c-.2-.1-.4-.3-.5-.5 0 .1-.1 0 0 0zm-1.5-.7.1-.1h.1v.1l-.3.3h-.1v-.1l.2-.2zm2.6 2.5.1.1v.1h-.1l-.2-.2v-.1h.1s0 .1.1.1zm-8.6 4.9s0-.1 0 0c-.1-.1-.1-.1-.1-.2s.1 0 .1 0l.1.1s.1.1 0 .1c0 .1 0 .1-.1 0zM14.6 8l.1-.1h.1V8l-.3.3h-.1v-.1l.2-.2zm.9 1.8c.1 0 .1 0 0 0 .1.1 0 .2.1.3h-.2V10c.1-.1.2-.1.1-.2zm.4 5 .1-.1h.1v.1l-.2.2h-.1c0-.1 0-.1.1-.2zm-1.1.7s-.1-.1 0 0c-.1-.1-.1-.1-.1-.2h.1l.2.2v.1c-.1 0-.1 0-.2-.1.1 0 0 0 0 0zm1.3-5.6v.2h-.2v-.2h.2zm1.8 2.1v-.2h.2v.2h-.2zm-.3-.4h.2v.2h-.2v-.2zM10 16.4v-.2h.2v.2H10zm6.4-6.2v.2h-.2v-.2h.2zM10.8 17h.2v.2h-.2V17zm6-6.3h.2v.2h-.2v-.2zM19.7 24c-.1 0-.2-.1-.3-.2v-.1c.2.1.3.2.3.3zm-5.9-7.3c-.1.1-.3.4-.4.4.1-.1.2-.3.4-.4zm2.6-2.4c0-.1 0-.1 0 0 .3-.3.6-.7 1-1-.4.3-.7.6-1 1zM17 11h.1c.1-.1.1 0 .1.1s.1.1 0 .1H17c0-.1.1-.1 0-.2zm-6.5 5.9v-.2h.2v.2c0 .1-.1 0-.2 0zm-.8-1h.2v.1s0 .1 0 0h-.2v-.1zm-.2.4-.1.1v-.1l.1-.1h.1v.1c0-.1-.1 0-.1 0zm1.8 1v.2h-.2v-.2h.2zm4.4-7.6h.2v.2h-.2v-.2zm8.6 9.2s.1.1 0 .1c0 0-.1.1-.1 0 0 0-.1-.1 0-.1 0 0 0-.1.1 0zM12.5 7.4l-.5.5c.2-.2.3-.4.5-.5zm3.8 1s.1-.1.1 0c.1.1 0 .1 0 .1s-.1.1-.2 0l.1-.1zm.6 6.3s.1 0 0 0c0 .1-.2.2-.2.2v-.1s0-.1.1-.1h.1zm-5.3 3.1h.2v.2h-.2s.1-.1 0-.2zm-4.2-5.2s-.1 0 0 0c.1-.2.3-.3.5-.5-.2.2-.4.3-.5.5zm9.4 8.1c.1 0 .1 0 .1.1l.3.3h.1-.1l-.4-.4zm2.1-9.4-.1-.1v-.1h.1l.2.2s.1 0 0 .1H19l-.1-.1zm-7 7v-.2h.2v.2h-.2zm4.3-7.4c0-.1 0-.1 0 0 .1-.2.3-.4.4-.5 0 .1-.2.3-.4.5zm2.1 2.2c.1.1.1 0 .2-.1v.1l-.1.1c0 .1-.1 0-.1 0h-.1c.1 0 .1 0 .1-.1zm4.4 7c.1.1.2.1.1.3-.2-.2-.2-.2-.1-.3zm-5.1-8.8c0 .1-.4.5-.5.5.2-.2.3-.4.5-.5zm-7.2 5.3-.1.1c-.1 0 0-.1 0-.1v-.1s0-.1 0 0h.1c.1 0 .1 0 0 .1zm6.6-6.4s.1-.1.1 0c.1 0 0 .1 0 .1s-.1.1-.1 0v-.1zm-.6-1.5s-.1 0 0 0v-.1H16.7s-.1 0-.1.1c-.1.1-.2.1-.2 0zm-2.9 8.4.7-.7-.7.7zm2.7-7.5s-.1-.1 0-.1v.1c.1-.1.2 0 .1 0-.1.1-.1.1-.1 0zm-4.8 8s.1 0 0 0c.1-.1.2-.1.1 0v.2c0 .1-.1 0-.1 0h-.1c0-.1.1-.1.1-.2zm5.9 1.4-.1.1h-.1V19l.2-.2h.1c0 .1 0 .1-.1.2.1 0 0 0 0 0zm.8-8.6c.1.1 0 .2-.1.2h-.1v-.1c.1 0 .1-.1.2-.1zM15 9.8s-.1-.1 0-.1c.1-.1.1-.1 0 .1.1-.1.2 0 .1 0H15zm-.2 5.8c0 .1-.2.3-.3.4.1-.2.2-.3.3-.4zm4.6-1.8c-.1 0-.1.1 0 0l-.1.1v-.1c0-.1.1 0 .1 0h.1v.1s-.1 0-.1-.1zm-9.7.7c0 .1-.1.1 0 .2v.1h-.1v-.1c0-.1 0-.2.1-.2zm8 1.2-.1.1h-.1c0-.1.1-.1.1-.2h.1c.1 0 .1 0 0 .1zm1.6-1.7c0 .1 0 .1 0 0l-.1.1V14c0-.1.1 0 .1 0 0-.1 0-.2.1-.1 0 .1 0 .1-.1.1zm-2 5.8s-.1.1-.1 0h.1c-.1-.1 0-.2 0-.1.1 0 0 .1 0 .1zm-2-11.5s0-.1 0 0c.2.1.3.2.4.4l-.4-.4zm3.4 15.8s-.1-.1 0-.1h.1s.1.1 0 .1h-.1zm-2.1-9.2c.1 0 .1 0 0 0 .1 0 .1 0 0 0 .1.1 0 .2 0 .1v-.1c0-.1 0-.1.1-.1l-.1.1c.1-.1 0 0 0 0zm-.3-4.9.1.1h-.2v-.2c.1 0 .1.1.1.1zm.6.6s.1 0 0 0c0 .1 0 0 0 0l-.1.1c-.1 0 .1-.1 0-.2l.1.1c-.1-.1 0-.1 0 0zm1.4 1.3.1.1c-.1.1-.1 0-.1-.1 0 .1-.1.1-.1.1-.1 0-.1 0-.1-.1v-.2l.2.2c-.1 0-.1 0 0 0zm-7.3-.8c-.1-.1-.2-.1-.3-.3l.3.3zm8.3 13.3h-.2s-.1-.1 0-.1.1.1.2.1zM15.9 9.7c.1 0 .1-.1 0 0 .1 0 .2.1.2.1s0 .1 0 0h-.2s.1-.1 0-.1zm8.6 10.7v-.1c.1 0 .1.1.1.1v.1l-.1-.1zm-6.7-8.8c.1-.1.1-.1 0 0 .1 0 .1 0 .1.1l.1.1h-.1s-.1.1-.1 0c.1-.1.1-.2 0-.2zm-.8-.9c.1 0 .1 0 .1.1l.1.1c0 .1-.1 0-.1 0H17s.1-.1 0-.2zm.4.4.1.1h-.2V11l.1.1zm7.7 9.7s.1 0 0 .1-.1-.1-.2-.1c.1.1.1 0 .2 0 0-.1 0 0 0 0zM13.7 8.3c.1 0 .1-.1 0 0 .2 0 .1.1 0 0v.1c-.1 0 0-.1 0-.1zm1.4-.3s-.1 0 0 0l-.3-.3c0 .1.2.2.3.3zM27 21.6l.3.3-.3-.3zm-6.4 2.7c.1.1.1.1 0 0-.1.2-.1 0-.1 0v-.1c.1 0 .1.1.1.1zm1.4-1.4c-.1 0-.1-.1 0-.1.1-.1 0 .1 0 .1.2 0 .1 0 0 0 .1.1 0 .1 0 0zm-6.6-8.2h.1v.1h-.1v-.1zm8.7 3.9s-.1-.1 0-.1c0 0 .1 0 0 .1.1-.1.2 0 .1 0 0 .1 0 0-.1 0zm-7.3 0c.1.2 0 .3-.1.4 0-.1.1-.2.1-.4zm1.3-7.3c.1 0 .2.1.2.2v.1h-.1c.1-.1 0-.2-.1-.3zm-.1-.1s.1-.1.1 0H18c.1.1 0 .1 0 .1v-.1zm-1.4-.9s.1 0 0 0c0 .1 0 .1-.1.1 0 0 0-.1.1-.1-.1 0-.1 0 0 0-.1 0-.1-.1 0 0-.1-.1 0-.1 0 0zm-8.7 3.4c0 .1-.1.1-.2.2h-.1v-.1c.2 0 .2-.1.3-.1zm9.4-2.2v-.1c0-.1.1 0 .1 0l-.1.1zm.2 7.5v-.5c.1.2.1.4 0 .5zm.2-7.6s.1 0 0 0c.1.1.1.1 0 0 0 .1-.1.1-.1.1v-.1c0-.1.1-.1.1 0zm2 12c.1-.1.2-.2.2-.3 0 .2-.1.3-.2.3zm-2.9-3.8c0-.2 0-.3-.1-.5.1.1.1.3.1.5zm-2 2.2c0-.1 0-.1.1-.2h.1v.1c-.1.1-.2.1-.2.1zM11 18.3l.1-.1c0 .1-.1.1-.1.1 0 .1 0 .2-.1.1 0-.1 0-.1.1-.1zm10.8 3.3c-.1.1-.1.2-.2.2l.2-.2zm-4.3-5.9h.1s.1.1 0 .1h-.1c-.1 0 0 0 0-.1zm-3 .3-.3.3c.1-.1.1-.2.3-.3zm2.4-5.9s.1 0 0 0c0 .1 0 0 0 0-.1 0-.1 0-.1-.1.1 0 .1 0 .1.1zm-4.7 8.4v-.1s0-.1 0 0c0 0 .1 0 .1.1h-.1zm7.3-7.1s0 .1 0 0l-.3.3.3-.3zm-12 2.5c0-.1.1-.1.1-.1s0-.1.1 0v.1c-.1-.1-.1-.1-.2 0zM20.1 23c0-.1.1-.2.2-.2 0 .1-.1.1-.2.2zm2.6-2.4c0 .1-.1.1-.1.2h-.1v-.1c.1 0 .2 0 .2-.1zM10 15.4c.1 0 .1.1.1.1-.1 0-.1.1-.1 0-.1 0 0 0 0-.1zm.1-5.2c.1 0 .1.1 0 0 0 .1 0 .2 0 0-.1.1 0 .1 0 0zm8.5 2.7c.1 0 .1.1.1.1h-.1c-.1 0-.1 0 0-.1zm-9.4-.6c-.1 0-.3 0-.4.1.2-.1.3-.1.4-.1zm-2.4 2.2c.1 0 .1.1 0 0v.1c-.1 0 0 0 0-.1zm11.6-2.7s-.1 0 0 0c0-.1.1-.1.1-.1 0 .1 0 .1-.1.1 0 .1 0 .1 0 0zm-4.7-2.2c-.1.1-.2.3-.4.3.1-.1.3-.2.4-.3zm-3.3 6.2c-.1 0-.1 0-.1-.1l.1.1zm6.4 4.6c.1 0 .1.1.1.1h-.1v-.1zm-5.3-3.5c-.1 0-.1 0-.1-.1 0 0 0 .1.1.1zm5.2-6.4c0 .1.1.1 0 .1 0 .1-.1 0-.1 0s0-.1.1-.1zm1.4.9c.1 0 .1.1.1.1-.1 0-.1 0-.1-.1-.1.1-.1.1 0 0zm-6.3 7c0 .1.1.1 0 0 0 .1 0 .2 0 0-.1.1-.1.1 0 0zm5.8 1.5v.1h-.1s0-.1.1-.1c-.1 0 0 0 0 0zM10.5 16c.1 0 .1.1.1.1-.1 0-.1.1-.1 0 0 0 .1-.1 0-.1zm7 3.6v-.1h.1l-.1.1c.1 0 0 0 0 0zM7.4 14.4c0-.1.1-.1.1-.2 0 .1 0 .2-.1.2zm4.9 3.3h-.2v-.1c.1.1.2.1.2.1zm-.4-.4.1.1c-.1 0-.1.1-.1 0v-.1zm4.9 2.4c.1 0 .1.1.1.1h-.1c-.1 0-.1 0 0-.1zm-.1-4.7s.1 0 0 0c.1-.1.1-.1.2-.1 0 0 0 .1-.1.1h-.1zm1.7-2.9s.1 0 0 0c.1 0 .1.1.1.1h-.1v-.1zm-1.6 8.2c-.1 0-.1-.1-.1-.1h.1c.1 0 .1.1 0 .1zm-1.8-5s0 .1 0 0c-.1 0 0 0 0 0 0-.1 0-.1 0 0 .1 0 0 0 0 0zm-5.3-2.8c-.1-.1-.2-.1-.3-.2.1.1.2.1.3.2zm1.5 4.1s-.1.1-.1 0v-.2c0 .2.1.2.1.2zm4-8.4c-.1 0-.1 0 0 0 0-.1 0-.1 0 0 .1 0 .1 0 0 0zm1.6 11.9V20h.1l-.1.1zm.6-6.9.2-.2-.2.2zm.9-1.6c-.1.1-.1 0 0 0-.1 0-.2 0 0 0-.1-.1-.1 0 0 0zm-.7 7.6v.1h-.1l.1-.1c-.1 0 0 0 0 0zm4.9 4.2c0-.1 0-.1 0 0 .1-.1.1 0 0 0zM12.7 9.9c-.1 0-.2-.1-.3-.2.1 0 .2.1.3.2zm-.9 9c-.1 0-.1 0 0 0l-.1-.1.1.1c0-.1 0 0 0 0zm9.3 6s.1 0 0 0c.1 0 .1 0 0 0 .1.1 0 .1 0 0zm-3.6-5.2c.1 0 .1 0 0 0 .1 0 .1.1.1.1h-.1v-.1zM13.4 8.6c.1.1.2.2.2.3 0-.2-.1-.2-.2-.3zM7 14.4c0-.1 0-.1.1-.2 0 .1-.1.2-.1.2zm15.6 9.1c-.1 0 0-.1 0 0 0-.1 0-.1 0 0 .1-.1.1 0 0 0zm-10-5.4s0 .1 0 0c-.1.1-.1.1 0 0-.1.1-.1 0 0 0-.1 0-.1 0 0 0zM17 9.8c-.1-.1-.2-.2-.3-.2.1 0 .2.1.3.2zm-.7-.7c0 .1-.1.1 0 0-.1 0-.1 0 0 0-.1-.1 0-.1 0 0zm-6.4 5.4s0 .1 0 0c-.1.1-.1.1 0 0-.1 0-.2 0 0 0-.1-.1-.1 0 0 0zm9.4-1.8c-.1 0-.2-.1-.2-.2 0 .1.1.1.2.2zm.1 11c-.1.2-.1.2-.1.1l.1-.1z"/><path d="m11.4 16.1.8.8c.2.2.3.2.6 0 .1-.1.1 0 .1 0 .1.1.1.1.2 0l.1-.1c.1-.1.1-.1 0-.2v-.1l.3-.3c.1-.1.1-.1.1 0 .1.1.1.1.2 0 0-.1.1-.1.1-.1.1-.1.1-.1 0-.2s-.1-.1 0-.2l.3-.3c.2-.2.2-.3 0-.5l-1-1c-.1-.1-.2-.1 0-.2h-.1c-.1.1-.1 0-.1 0l-.3-.3c-.2-.2-.3-.2-.5 0L10.6 15c-.2.2-.2.3 0 .5.3.1.5.3.8.6zm0-1.7c.1 0 .1 0 .2.1l1.5 1.5c.1.1.1.2 0 .3l-.5.5c-.1.1-.2.1-.3 0l-.9-.9-.5-.5c-.1-.1-.1-.1 0-.2 0-.4.3-.6.5-.8-.1 0-.1 0-.2.1l-.4.4s0 .1-.1 0h-.1v.1c-.1.1 0 .2.1.3l.3.3c-.1-.1-.2-.2-.4-.3-.2-.2-.2-.3 0-.5l.6-.6 1-1c.1-.1.3-.1.4.1-.2 0-.2 0-.3.1l-.5.5c-.1.1-.1.1-.1.2 0-.1.1-.1.1-.2l.5-.5c.1-.1.2-.1.3 0 .5.5 1 .9 1.4 1.4.1.1.1.2 0 .3l-.5.5c-.1.1-.2.1-.3 0l-.1-.1-1.1-1.1-.4-.4c0 .1 0 .1.1.2l1 1c.2.2.3.4.5.5-.1.1 0 .1.1.1s0 .1 0 .1l-.3.3h-.1c-.1-.1-.1-.1 0-.2.2-.2.2-.3 0-.4-.1-.1-.3-.3-.5-.4-.3-.3-.6-.7-1-1 .1.2.1.1 0 .2zm2.8.5c.2.1.2.3.1.4-.1.1-.3.2-.4.4-.1.1-.1 0-.1 0-.1 0 0-.1 0-.1.1-.1.2-.2.3-.4.1-.1.2-.2.1-.3zM12 16.6l.1.1.1.1c.1.1.2.1.3 0l.1-.1h.1s.1.1 0 .1c-.1.2-.3.2-.5.1 0-.1-.1-.2-.2-.3zm1.1.2c-.1 0-.1.1-.2.1V16.6H13.2c0 .1-.1.1-.1.2zm-.2-.2c-.1 0-.1.1 0 .1v.1s-.1-.1-.1-.2.1-.1.2-.2l.2.1s0 .1-.1 0c-.1 0-.2 0-.2.1zm1-.7c0 .1-.1.2-.2.2h-.1v-.2H13.9c0-.1 0-.1 0 0zm-.4-.1s.1 0 .1-.1h.2v.1h-.1s0-.1-.1 0c0 .1-.2.1-.1.2v.1h-.1c.1-.2 0-.2.1-.3zm-1.6.7c-.2-.1-.3-.3-.5-.5l.5.5zM10.3 13.4c-.1 0-.1.1 0 .2h.1l.1-.1s.1-.1 0-.2c0-.1-.1-.1-.2.1.1-.1.1-.1 0 0zm.1 0 .1-.1c0 .1 0 .1-.1.1 0 .1 0 .2-.1.1 0-.1.1-.1.1-.1zM13.2 10.4s-.1.1 0 .2.1.1.1 0l.1-.1s.1-.1 0-.2c0 0-.1 0-.2.1.1 0 .1 0 0 0zm.1 0s.1-.1.1 0c.1.1 0 .1-.1 0v.1c-.1 0 0 0 0-.1zM18.9 25.6v.1h.1c.1 0 0-.1 0-.1-.1 0 0 .1-.1.1 0 0 .1-.1 0-.1zM25.5 18.6c0 .1.1 0 .1 0 0 .1-.1 0-.1.1h.1v-.1h-.1zM20 17.3c.1.1.3.1.4 0 .1-.1.2-.2.2-.4s-.1-.3-.3-.3h-.1c.1 0 .2.1.2.2.1.1.2.4 0 .5 0 .1-.2.1-.4 0zM20.2 16.5c-.2-.1-.3 0-.4.1-.1.1-.1.3-.1.4 0 .1.1.2.2.3-.1 0 0-.1-.1-.1s-.1-.1-.1-.2c0-.2.2-.4.5-.5 0 0 0 .1 0 0zM24.7 17.1c.1-.1 0-.1 0-.1-.1 0-.1 0 0 .1 0-.1 0-.1 0 0zM7.9 14.5c0-.1-.1 0 0 0-.1-.2-.1-.2 0-.2h.2c.1 0 .2.1.1.2 0 .1-.1 0-.1.1h.1c-.1.1 0 .1 0 .2s0 .2.1.2c0 .1 0 .2.1.2 0-.2-.1-.4-.1-.5 0-.1 0-.2-.1-.2 0-.1-.2-.2-.2-.4h-.1c.1-.1 0-.1 0-.1s-.1 0 0 0c0 .1.1.2 0 .3v.1c-.1.2-.1.2 0 .1zm0-.3v-.1s.2-.1.3 0v.1h-.3zM8 15.4c.1.1.1.2.1.3 0 .1 0 .1.1.1h.2c.1 0 .2-.1.2-.2l-.1.1s-.1-.1 0-.2c0 0 .1-.1 0-.2-.1 0-.3.1-.5.1zm.2.3v-.1h.4c.1.1 0 .2-.1.2-.2-.1-.2-.1-.3-.1zm.2-.3c-.1.1-.2.1-.3 0h.3z"/><path d="M8 14.6c-.1 0-.2 0 0 0-.1.3 0 .5 0 .7v.1-.1c0-.2 0-.3-.1-.5 0-.1 0-.1.1-.2zM8.2 14.3H8s.1 0 .1.1c-.1-.1 0-.1.1-.1zM17.3 13.9v.1s.1.1.1 0c.1 0 0-.1 0-.1h-.1zM14.3 17.6c-.5.5-.5 1.2 0 1.8.5.5 1.3.6 1.8 0 .5-.5.5-1.3 0-1.8-.4-.5-1.2-.5-1.8 0zm1.8 1.8c-.5.5-1.3.5-1.8 0s-.5-1.3 0-1.8 1.3-.5 1.8 0 .5 1.4 0 1.8zM24.1 20.7l-.1-.1h-.1v.2c.1 0 .1.1.2.1h.1v-.1l-.1-.1zm-.1.1c0-.1-.1-.1 0-.2s.1 0 .2.1c0 .1.1.1.1.2-.2 0-.3-.1-.3-.1zM21 23.7c0-.1-.1-.1-.2-.1v.1c0 .1 0 .2.1.2 0 0 .1 0 .1.1h.1v-.1c0-.1-.1-.2-.1-.2zm-.1.1s-.1 0 0 0c-.1-.1-.1-.1 0-.2h.1c.1.1.2.2.1.2-.1.2-.2.1-.2 0zM21.6 24.6l.1.1h.1v-.1c-.1-.1-.2-.2-.3-.2-.1 0-.1 0-.1.1.1 0 .2 0 .2.1zm0 0s-.1-.1-.1-.2v-.1h.1c.1 0 .1.1.2.1 0 0 .1.1 0 .1-.1.2-.1.1-.2.1zM13 9.5h.1s.1 0 0-.1c0-.1 0-.1.1-.1l.1.1c.1-.1.1-.1.1-.2h-.1v-.1s0 .1.1.1c0-.1 0 0 .1 0 0 0 .1 0 .1-.1V9s-.1-.1-.1 0c-.1.1-.1 0-.1 0l-.1-.1s-.1 0 0-.1v-.1h-.1c-.2 0-.2 0-.2.1v.1h.2-.2s-.1-.1 0-.1h-.1s-.1.1-.1 0-.1-.1-.1 0c0 0-.1.1 0 .1s.1.1 0 .1v.1c0-.1.1 0 .1 0s.1.1 0 .1c0 0-.1 0-.1-.1V9h-.1c-.1 0-.1 0-.1.1v.1h.2s.1.1 0 .1-.1 0-.1.1c0 0 0 .1.1.1 0 0 .1 0 .1-.1s.1 0 .1 0v-.1c0 .1.1.1.1.2zm.1-.5c.1.1.1.2 0 .3-.1.1-.2.1-.3 0-.1-.1-.1-.2 0-.3h.3zm-.3 0c0 .1-.1.1-.1.1 0-.1 0-.1.1-.1 0-.1 0-.2.1-.1 0 .1-.1.1-.1.1zM12.8 9.5s0 .1 0 0c-.1.1-.1.2 0 .2 0 0 0 .1.1 0 .1 0 .1-.1.1-.1v-.1h-.2zM13.3 9.4l-.1.1c0 .1 0 .1.1.1 0 0 .1 0 .1-.1 0 0 0-.1-.1-.1z"/><path d="M12.9 8.6c-.3 0-.5.2-.5.5.1-.3.2-.5.5-.5zM13.3 8.8v.1h.1v-.1h-.1z"/><path d="M12.5 9c-.1.1-.1.1 0 0 0 .1.1.1.1.1V9h-.1zM12.9 8.8c.1-.1.1-.1 0-.2h-.1c0 .1 0 .1.1.2-.1 0-.1 0 0 0zM13.4 9.3v.1h.1v-.1c0-.1-.1-.1-.1 0zM13.2 9.6h-.1v.1h.1v-.1zM9.1 13.7c.3 0 .6-.2.6-.4 0 .1-.1.1-.1.2 0-.1 0-.1-.1-.1 0 0-.1 0 0-.1 0-.1.1 0 .1 0h.1v-.1s-.1-.1-.1 0c0 0 0-.1 0 0 .1 0 .1 0 .2-.1v.3c.1-.2 0-.3 0-.5v.1c-.1-.1-.1-.1-.2 0h-.1v.2c0-.1-.1-.1 0-.2h.1s-.1-.1 0-.1.1 0 .1-.1c0 0 0-.1-.1-.1s-.1 0-.1.1c0 0 0 .1 0 0 0 0-.1 0 0-.1v-.1c0-.1 0-.1-.1-.1s-.1 0-.1.1-.1.1-.1.1c-.1 0-.1.1-.2 0h-.1v.1c.1 0 .1.1.1.1l.2-.2c0 .1-.1.2-.2.1v.1c0 .1 0 .1-.1.1 0 0-.1 0-.1.1v.1H9c-.1 0-.1 0-.1.1 0 0 0 .1.1.1s.1 0 .1-.1h.1c-.1.1 0 .1 0 .2-.2.2-.2.2-.1.2v-.3H9v-.1c.1-.1.1 0 .2 0s0 .1 0 .1.1 0 0 .1v.1l.1.1h.1v-.2h.1c0 .1.1.1.2.1-.3 0-.4 0-.6.1zm.2-.5c-.1.1-.2.1-.3 0-.1-.1-.1-.2 0-.3.1-.1.2-.1.3 0 .1.1.1.2 0 .3zm-.1-.5h.2c-.1.2-.2.1-.2 0-.1.1-.1.1 0 0zm-.3.5v-.1H9c-.1 0 0 .1-.1.1 0 .1 0 0 0 0zm.4.1c.1-.1.1-.1 0 0 .2 0 .1 0 0 0 .1 0 0 .1 0 0zM8.8 13c0-.1 0-.1-.1-.1l-.1.1c.1 0 .1.1.2 0z"/><path d="M9.1 12.7v-.2s-.1 0-.1.1c0 0 0 .1.1.1-.1 0 0 0 0 0zM8.6 12.8l.3-.3c-.1 0-.3.2-.3.3zM8.9 13.6l-.3-.3c.1.2.2.3.3.3zM18.3 12.4c0-.1-.1-.1-.2-.1s-.1.1-.1.2c.1.1.1.1.2.1s.1-.1.1-.2zm-.2 0s.1 0 0 0c.1 0 .1.1 0 0 .1.1 0 .1 0 0 0 .1 0 .1 0 0zM14.5 19.3c.4.4 1.1.3 1.4 0 .4-.4.4-1 0-1.4-.4-.4-1.1-.4-1.4 0-.4.3-.4 1 0 1.4zm.7.2c-.6 0-1.1-.6-.9-1.3 0-.1 0-.1.1-.1h.5c.1 0 0-.1 0-.1-.1-.1-.1-.2-.1-.3v-.1c-.1-.1 0-.1 0-.1.2-.1.4-.1.6 0 .4.1.6.5.6.8-.1-.1-.2 0-.2.1-.1 0-.2 0-.3-.1h-.1l-.2.2s-.1.1 0 .1c.1.1 0 .3.1.4h-.2c0 .4 0 .4.1.5zm.1-.5c.1.1.1.1.2 0l.2-.2s.1-.1 0-.1h.1c.1 0 .2 0 .3.1.1 0 .1 0 .1.1 0 .3-.4.6-.6.6h-.1c-.1-.2-.2-.3-.2-.5zm-.7-1.1c.1-.1.2-.1.2-.1 0 .1.1.1 0 .2l-.1.1c-.1.1-.1.1-.2 0-.1 0 0-.1.1-.2-.1 0 0 0 0 0z"/><path fill="none" d="M12.089 3.933 15.27.75l19.091 19.091-3.182 3.182z"/><path fill="#010101" d="M18.6 7.6c-.2.2-.1.5.1.7.2.2.4.2.5.1.2-.2.1-.3-.2-.8-.5-.9-.4-1.3-.1-1.6.4-.4 1-.4 1.7.2.7.8.6 1.4.3 1.8l-.7-.7c.1-.1.2-.3-.1-.6-.2-.2-.3-.2-.4-.1-.1.1-.1.3.2.7.5.9.4 1.3.1 1.7-.4.4-1.1.4-1.8-.3s-.7-1.3-.3-1.8l.7.7zM21.9 8.7l-.7-.7.5-.5 2 2-.5.5-.7-.7-1.9 1.9-.7-.7 2-1.8zM23.9 14.4l-.5-.5c0-.1.1-.2.2-.3-.3 0-.6-.1-1-.4-.7-.7-.5-1.6.1-2.3.7-.7 1.7-.8 2.5 0 .7.7.6 1.5.3 1.9l-.7-.8c.1-.2.2-.4-.1-.7-.4-.4-.9-.1-1.2.2-.4.4-.6.9-.2 1.2.3.4.7.2.8 0l-.4-.4.5-.5 1.1 1.1-1.4 1.5zM27.4 13.1 25 15.5l-.7-.7 2.4-2.4.7.7zM28.6 14.3l-2.4 2.4-.7-.7 2.4-2.4.7.7zM29.7 15.5l-2.4 2.4-.7-.7 2.4-2.4.7.7z"/><path fill="none" d="M0 0h45v45H0z"/><path fill="none" d="M4.5 27h18v13.5h-18z"/><path fill="#010101" d="M12.9 34v1c-1 1.4-2 3.5-2.3 5.4H9.2c.3-1.9 1.4-4.1 2.3-5.3h-3V34h4.4zM18 35.2h-2.6c0 .3-.2 1-.2 1.2.2-.2.6-.3 1.2-.3 1.3 0 2 .9 2 2.1 0 1.2-.7 2.4-2.4 2.4-1.3 0-2.2-.6-2.3-1.8H15c.1.4.4.7 1 .7.7 0 1-.5 1-1.2s-.2-1.1-1-1.1c-.6 0-.8.3-1 .6l-1.3-.2c.2-.8.4-2.7.5-3.6h3.9l-.1 1.2z"/><path fill="none" d="M27 4.5h13.5V18H27z"/><path fill="#010101" d="M32.8 11.6V6.8c-.3.1-.8.3-1.2.3V6c.6-.1 1.2-.5 1.6-.9h1v6.4h-1.4zM35.5 11.6c0-1.2.5-2.1 1.9-3.1.9-.7 1.2-.9 1.2-1.4 0-.6-.3-.9-.8-.9-.6 0-.9.4-.9.9h-1.3c.1-1.1.8-2 2.3-2 1.6 0 2.2 1 2.2 1.9 0 .9-.4 1.4-1.6 2.2-.8.6-1.1.9-1.2 1.2h3l-.3 1.2h-4.5z"/><path fill="none" d="M27 27h13.5v13.5H27z"/><path fill="#010101" d="M32 36.4c-.1-.3-.2-.5-.7-.5-.7 0-.9.7-.9 1.4.2-.3.6-.5 1.2-.5 1 0 1.7.7 1.7 1.8s-.7 2-2 2c-1.5 0-2.1-1.2-2.1-2.7 0-1.4.5-2.8 2.1-2.8 1.2 0 1.7.7 1.8 1.4H32zm.1 2.3c0-.5-.2-1-.8-1-.5 0-.8.3-.8.9 0 .4.2 1 .8 1 .5 0 .8-.4.8-.9zM33.9 40.9l2.2-6.1h1l-2.2 6.1h-1zM40 37.9v1h-2.3v-1H40z"/><path fill="none" d="M0 45h45v45H0z"/></svg>