<svg version="1.2" baseProfile="tiny" xmlns="http://www.w3.org/2000/svg" viewBox="0 0 45 45" overflow="visible" xml:space="preserve"><path fill="#76A4B2" d="M-4.5-49.5h279v252h-279z"/><path d="m18.9 26.9-.2-.2s-.1 0 0-.1h.1c.3.3.6.5.8.8l.8.8.2.2c0 .1.1.1.1 0 .1-.1.2-.3.4-.4l.9-.9s.1-.1.1 0l.2.2c0 .1.1 0 .1 0s.1-.1 0-.1-.1-.1-.2-.2c0 0-.1-.1 0-.1l.1-.1h.2c.1 0 .1-.1.2-.1s.1-.1 0-.2c.1 0 .2-.1.3-.2v-.2h.1c.1 0 .2 0 .3-.2v-.2h.1c.1 0 .2 0 .3-.1 0-.1.1-.1 0-.2.1 0 .1-.1.2 0h.1l.1-.1v-.2c.1 0 .1 0 .2-.1s.1-.1.1-.2h.2c.1-.1.2-.1.2-.2.1 0 .1-.1.2-.1h.1l.6.6c.6.6 1.2 1.1 1.8 1.7.1 0 .1.1.1.2l.1.1.3.3c0 .1.1.1.1.2v.1s-.1.1 0 .1c0 .1.1 0 .1 0 .1 0 .3.1.4.2 0 .1 0 .1.1.1 0 0 .1 0 .1-.1l.3-.3.1-.1c.1-.1.1-.1-.1-.2-.1 0-.2-.1-.2-.2V27h-.2c-.2-.1-.3-.2-.4-.3-.2-.2-.5-.4-.7-.6-.2-.3-.5-.5-.7-.8-.2-.3-.5-.5-.7-.8-.2-.2-.4-.4-.5-.6v-.1h.2l.1-.1v-.2c.1 0 .1-.1.2-.1h.1c0-.1.1-.1.1-.2 0 0 .1-.1 0-.1 0 0 0-.1.1-.1h.1l.1-.1v-.2h.1c.1.1.1 0 .2-.1 0 0 0-.1.1-.1.1-.1.1-.1 0-.2.1.1.1 0 .2-.1 0-.1.1-.1.1-.2-.1-.1 0-.1 0-.2s0-.1.1-.1h.1c.1 0 .1.1.1.1s.1.1.1 0v-.1l-.2-.2c-.1 0 0-.1 0-.1.2-.2.3-.4.5-.5.3-.3.5-.6.8-.8V20l-1.3-1.3c-.1-.2-.3-.3-.5-.4 0 0-.1 0 0-.1 0 0 .1-.1.1 0l.2.2s0 .1.1 0v-.1c-.1-.1-.1-.2-.2-.2 0 0-.1-.1 0-.1l-.1-.1c-.1 0-.1 0-.1-.1-.2-.2-.4-.5-.6-.7-.2-.2-.3-.4-.5-.6l-.3-.3v-.1c0-.1-.1-.1-.1-.2-.1 0-.1-.1-.2-.2s-.1-.3-.3-.4c-.2-.1-.4-.3-.5-.5l-.7-.7s0-.1-.1-.1c-.1-.1-.2-.1-.3-.2-.3-.3-.6-.5-.8-.8l-.2-.2c0-.1-.1-.1-.1-.1-.1 0-.1-.1-.2-.2l-1-1-.1-.1c-.1-.1-.1-.1-.2-.1l-.8-.8-.4-.4c-.1 0-.1-.1-.2-.1-.3-.3-.6-.5-.8-.8l-.2-.2c0-.1 0-.1-.1-.1h-.1l-.6-.6c-.7-.3-.8-.4-.9-.5l-.1-.1s0-.1-.1-.1c-.1-.1-.1 0-.1 0l-.3.3-1.1-1.1c-.3-.3-.6-.5-.8-.8-.1-.1-.1-.1-.2 0l-1.1 1.1v.2l-.1-.1h-.1c-.1.1-.1 0-.1 0-.2-.2-.2-.2-.4 0l-.9.9c-.5.7-1.1 1.3-1.7 1.8-.3.3-.6.6-.9.8l-1.5 1.5-.1.1c-.1.1-.1.1 0 .2l.1.1v.2l.1.1c.1 0 .1.1 0 .2 0 0-.1 0 0-.1h-.2l-.7.7-.4.4s-.1.1 0 .1l.9.9c.3.3.7.6 1 1 .1.1.1.1 0 .1l-.3.3v.1c.1.1.1.2.2.2h.1l.5.5.4.4s.1.1.1.2c0 0 .1.1.2.1h.1c.1.1.3.2.4.4l.7.7s.1 0 0 .1c.1.1.1.1.2.1s.1.1.2.1l1 1c.1.1.1.1.1.2.1.1.2.1.2.1l1.1 1.1s0 .1.1.1c.2.2.4.3.6.5l.7.7s.1.1.1.2c.2.1.3.2.4.4l.8.8c.1.1.1.1.1.2h.2l.2.2c.1.1.1.2.2.3.2 0 .3.2.4.3.3.2.6.5.9.7.2.1.4.3.5.4v.1c0 .1.1.1.2.1h.1l.1.1c-.1 0 0 0 0 0zm-4.5-10.8.3.3c-.1 0-.2-.1-.3-.3 0 0-.1 0 0 0 0-.1 0-.1 0 0 .1 0 .2.1.3.2-.1 0-.2-.1-.3-.2zm1.1 6.5c.1 0 .1 0 0 0 .1.1.2.1.2.1l.1.1s-.1 0-.1-.1 0-.1-.1-.1c0 .1.1.1-.1 0 .1.1 0 .1 0 0h-.1c0-.1 0-.1.1 0 0-.1 0-.1 0 0 0-.1 0-.1 0 0zm1-8.4s0-.1-.1-.2c.1.1.2.2.3.4 0-.1 0-.2-.2-.2.1.1.2.1.2.2 0-.1-.1-.2-.2-.2.1.1.2.3.2.3-.1-.1-.3-.2-.4-.4.1 0 .2 0 .2.1zm.4-.5c0 .1.1.1.1.2s.1.1.1.2l-.2-.2.2.2-.3-.3c.1-.1 0-.2.1-.1 0-.1 0-.1 0 0 0 0-.1-.1 0-.1 0 0 .1 0 0 .1.1-.1 0-.1 0-.2l.3.3v.1h-.1c0-.1-.1-.1-.2-.2 0 .1.1.1.1.2.1-.1 0-.2-.1-.2zm.4-.1c0 .1.1.1.1.2l-.3-.3s0-.1-.1 0c0-.1.1-.1.2 0 0-.1.1 0 .1.1l.1.1s0-.1-.1-.1zm-3.7 3.6c0-.1-.1-.1-.1-.2v-.1h.1l.3.3-.3-.3s0 .1.1.1l.2.2s.1 0 0 .1h-.1c-.1 0-.1-.1-.2-.1 0 .1.1.1.1.2 0 0-.1-.1-.1-.2 0 .1 0 .1.1.2l-.3-.3c-.1-.1 0-.1 0-.1h.1c0 .1.1.1.1.2zm9.6-.9c.1 0 .2 0 .2.1-.1 0-.1 0-.2-.1-.1 0-.2 0-.3-.1-.2-.1-.2-.1 0-.2 0 0 0-.1.1 0l.1.1c0 .1.1.2.1.2zm-11.5-1.7c0-.1-.1-.1-.1-.2s0-.1-.1-.1c0 0-.1 0 0 0h.1s-.1-.1 0-.1 0-.1 0-.1c0 .1.1.1.2.2h-.1l.1.1s.1 0 0 .1c0 .1 0 .1-.1.1 0-.1 0-.1-.1-.2.1.1.1.1.1.2.1 0 .1 0 0 0s-.2-.2-.3-.2c.1 0 .2.1.3.2zm1.9 2.3s0-.1 0 0h.2-.2l.1-.1h.1l.3.3c-.1 0-.2-.2-.4-.3.1.1.2.2.4.3-.1 0-.1-.1-.3-.2l.2.2-.1-.1c-.2.1-.2-.1-.3-.1l.3.3c-.2-.1-.3-.2-.3-.3zm1.9-6.5c0 .1.1.1.1.2l-.3-.3c.1.1.1.1.2.1 0 0-.1 0 0 0l-.1-.1h.1s-.1 0 0-.1l.1-.1.3.3c-.1 0-.1-.1-.2-.2l.2.2-.3-.3c.1.1.2.2.2.3-.1.1-.2.1-.3 0 .1 0 .2.1.2.2-.1 0-.1-.1-.2-.2zm8.1 12.4c.1-.2.3-.3.4-.5h.1v.1l-.1.1h-.2v.1c.1 0 0 .1 0 .1l-.1.1c0 .1 0 .1-.1 0 .1 0 0 0 0 0s0 .1 0 0c.1.1 0 .1 0 .2l-.1.1s0-.1-.1-.1l.2-.2zM20.7 16c-.1 0-.1 0 0 0l-.1-.1h.1l.1.1.9.9s.1 0 0 .1c-.1-.1-.2-.2-.4-.3l-.3-.3c-.1-.2-.2-.3-.3-.4zm1.8 2.4s0-.1 0 0c-.1-.1-.1-.2 0-.2h.2l.1-.1c.1 0 .1-.1.1-.1.1 0 .1.1.2.1s.1.1 0 .1v.1c0 .1-.1.1-.1.1h-.1l-.1.1c-.1-.1-.1-.1-.1 0-.3 0-.2-.1-.2-.1zm.8-.8c.1 0 .1.1.2.1-.1 0-.1.1-.2.1v.1c0 .1 0 .1-.1.1h-.1c-.1.1-.1 0-.1 0l-.1-.1s-.1 0 0-.1c0 0 0-.1.1 0 .1 0 .1 0 .1-.1 0 0 .1-.1 0-.1.1-.1.1-.1.2 0zm-12.2-2.9.3.3c-.1-.1-.2-.1-.2-.2.1.1.2.1.2.2-.1-.1-.2-.1-.2-.2l.2.2v.1h-.1l-.2-.2H11v.1l.1.1H11l.2.2v.1h-.1l-.1-.1c0 .1.1.1.1.2l-.3-.3c.1.1.2.1.2.2l-.2-.2v-.1c.1 0 .1-.1.2-.2h.1c-.1-.2-.1-.2 0-.2 0-.1 0 0 0 0 0-.1 0-.1 0 0 0-.1 0-.1 0 0 .1 0 .2.1.3.2-.1-.1-.1-.2-.3-.2zm11.6 4c0-.1 0-.1 0 0-.1-.1-.1-.1 0-.1 0 0 0-.1.1-.1s.2-.1.2-.1v-.1h.1l.1.1c.1.1.1.1 0 .2 0 0-.1 0 0 .1 0 .1 0 .1-.1.1H23s-.1.1 0 .1h-.1v-.1.1c-.2-.1-.2-.2-.2-.2zm-11.9-.1c.1 0 .1.1.2 0l.1-.1c0-.1 0-.1.1-.1 0-.1 0-.1.1-.1h.1l.2.2c-.1 0-.1 0 0 0v.2c0 .1 0 .1-.1.1.1 0 0 .1 0 .2 0 0 0 .1 0 0 0 0-.1 0 0-.1v-.2h-.1c-.1 0 0 0-.1.1-.3 0-.4-.1-.5-.2-.1 0-.1 0-.1-.1 0 0 .1 0 .1.1 0-.1 0 0 0 0zm4.4-6.6c0-.1-.1-.1-.1-.2 0 0 .1 0 .1.1.1.1.2.2.4.3h.1c.1.1.2.2.2.3 0 0-.1-.1-.2-.1.1.1.1.2.3.2 0 .1.1.1.1.1l.4.4c-.1 0-.1-.1-.1-.1 0 .1.1.1.2.2-.1 0-.1-.1-.2-.2 0 .1.1.1.1.2v.1l-.2-.2h-.1l-.2-.2s0-.1-.1-.1l-.3-.3s-.1 0-.1-.1c-.1-.1-.1-.2-.2-.2l-.1-.1c-.1-.1-.1-.2-.2-.3v-.1s.1-.1.1 0c0 .2.1.2.1.3zm.7 1.7v.1-.1c-.2-.1-.3-.2-.4-.3l-.3-.3c-.1-.1-.2-.2-.2-.4-.1 0-.2-.1-.3-.2-.1 0-.1-.1-.2-.2h.1v-.1l.1.1-.1-.1h.1s-.1-.1 0-.1.1.1.1.1l-.1-.1h.1l.1.1.3.3.6.6c.2.1.3.3.4.5l-.1-.1s0 .1.1.1v.1h-.1c-.1.1-.2 0-.2 0zm-3.4 3.4v.1c-.1-.1-.1-.2-.2-.2l.1.1-1.2-1.2.3.3-.3-.3-.1-.1v-.1h.1v-.1c.1 0 .1 0 .1.1 0 0-.1-.1 0-.1h.1l.2.2c.1.1.3.2.4.4l.5.5c.1.1.3.2.4.3v.1h-.1v.1h-.1s0-.1-.2-.1c.1 0 .1.1.1.1l-.1-.1zm2.8-5.4c0 .1.1.1.2.2-.1-.1-.2-.1-.2-.2-.1 0-.1 0 0 0-.1 0-.1 0 0 0 0 0-.1 0 0 0-.1-.1-.1-.1 0 0-.1-.1 0-.1 0 0 .1 0 0-.1 0-.1h.1l.1.1v-.1s-.1 0 0-.1h.1l.3.3.4.4.6.6s.1.1.1.2l-.2-.2.1.1v.1h-.1l-.1-.1c0 .1.1.1.1.2 0-.1-.1-.1-.2-.2l.1.1-.1-.1c-.2-.2-.3-.4-.5-.5-.2-.1-.3-.3-.5-.5-.1 0-.3-.1-.3-.2zm-6 1.5c-.1 0-.1.1-.1.1 0 .1.1.1.1.1-.2.1-.4 0-.5-.1.1 0 .2 0 .2-.1s0-.1-.1-.1-.1.1-.1.2c-.2-.1-.3-.5-.1-.7.2-.3.5-.4.8-.4.3.1.5.4.5.7 0 .3-.2.5-.4.6-.1-.1-.1-.2-.3-.3zM13 8.8c-.1 0-.2.1-.2.2 0-.1-.1-.2-.2-.1-.1 0-.1.1-.1.2 0 0 0 .1.1.1h.2V9.5c-.1 0-.1.1-.1.2s.1.1.1.1c.1 0 .1 0 .1-.1 0 0 0-.1 0 0 .1 0 .2 0 .3.1-.1.1-.1.2.1.3-.4.1-.7-.1-.8-.5-.1-.3.2-.7.5-.8.4-.1.7.2.8.5.1.3-.2.7-.4.7.1-.1 0-.2-.1-.3l.2-.2c.1.1.1.1.2.1s.1-.1 0-.2l-.1-.1c-.1 0-.1 0-.2.1v-.1c0-.1-.1-.2-.2-.3-.1-.3-.1-.2-.2-.2zm-3 7.4c.1.1.2.2.4.3v.1c.1 0 .1.1.2.1v.1c.1 0 .1.1.2.2 0 0 .1 0 .1.1.1 0 .1.1.2.2l.1.1c.1 0 .1.1.2.1l.1.1s0 .1.1.1.1.1.2.1c0 .1.1.1.1.1l.2.2c-.1.1 0 .2-.1.2.1 0 .1.1.1.2.1-.1.2.1.3 0 0 .1-.1.1-.1.1-.1.1-.1.1-.2 0l-.1-.1c-.1-.1-.1-.1 0-.3h-.2c-.1 0-.1 0-.1-.1 0 0-.1 0-.1-.1 0 0 0-.1 0 0l-.1-.1c.1 0 .1 0 .1-.1v-.1s-.1 0-.1-.1c-.1 0-.1-.1-.2-.1-.1-.1-.1-.1-.2 0 0 0 0 .1-.1 0s-.2-.1-.2-.3c-.1 0-.2-.1-.2-.2s-.1-.1-.1-.1l-.1-.1h-.1c0-.1 0 0 0 0 0-.1-.1-.1-.1-.1s0-.1-.1-.1l-.1-.1c.1 0 .1-.1.1-.1.1 0 .1-.1.1-.1-.1 0-.2 0-.2-.1-.1.1-.1 0 0 0-.1 0-.2 0-.2-.1h-.1.1s.1 0 .2.1zm15.1 5.5c0 .1-.1.1-.1.2-.1.1-.1.1-.1 0l-.4-.4-.5-.5c-.1-.1-.1-.1 0-.1.2-.1.3-.3.5-.5.1-.1.1-.1.2-.1v.1l.1.1s.1.1.1 0c.1-.1.1 0 .1 0l.1.1c-.1.1 0 .1 0 .1l.1.1h.1c.1 0 .1.1.1.1 0 .1 0 .1-.1.1.1.5 0 .6-.2.7zm-6-9.2c0 .1 0 .1 0 0 .3.3.5.6.8.8l1.2 1.2c.3.3.6.5.8.8l.6.6s.1 0 0 .1h-.1l-.2-.2-2.2-2.2c-.3-.4-.7-.7-1.1-1 .1 0 .2 0 .2-.1.1 0 .1.1 0 0 .2.1.3.2.4.2h.1v-.1c-.2 0-.3-.1-.5-.1.2-.2.2-.2.3-.1l.1.1.7.7c.3.4.7.7 1.1 1.1l.6.6c.3.3.6.6 1 .9.1.1.1.1 0 .2s-.1.1-.2 0c-.3-.3-.6-.6-1-.9l-.8-.8-1.1-1.1-.7-.7zm-7.7-1.3c.1-.1 0-.1-.1-.2l-.1-.1c0-.1-.1-.1-.2-.1 0 0-.1 0-.1.1v.1l.2.2c0 .1 0 .1-.1.2l-.2.2v.1c0 .1.1.1.1.2.1.1.2.1.2.2l.4.4.3.3c.1.1.1.2.2.2.1.1.1.1 0 .1l-1 1-.9.9H10c-.1-.1-.2-.2-.3-.2v-.2l-.1-.1h-.1c-.1-.1-.2-.2-.3-.2l-.2-.2h.1c.2 0 .4 0 .6-.1.1 0 .1-.1.2 0h.1l.2-.2v-.2c0-.1 0-.2.1-.2l.2-.2c.1-.1.1-.1.2 0s.1 0 .2 0l.3-.3c.1-.1.1-.1 0-.2-.1 0-.1-.1 0-.1l.1-.1c.1-.1.1-.1 0-.2L11 12l-.6-.6c-.1-.1-.2-.1-.3 0l-.6.6h-.1c-.2 0-.4 0-.5.1h-.1l3.4-3.4c-.1.2-.1.3-.1.5 0 .1 0 .1-.1.2l-.6.6c-.1.1-.1.2 0 .2.1.1.2.2.4.3.2.2.4.3.5.5.2.2.2.2.3 0h.1c.1.1.1.1.2 0s.2-.1.2-.2c.1-.1.1-.1 0-.2v-.1l.2-.2c.1-.1.2-.1.3-.2h.1c.3-.1.3-.2.4-.2 0 0 .1-.1 0-.1v-.1c0-.1.1-.2.1-.4V9l.5.5v.2l.1.1h.2c.1.1.2.2.3.2v.1l-.7.7v.1l.9-.9c.1 0 0 .1.1.2-.1.1 0 .2-.1.2 0 0-.1 0-.1.1l-.6.6-.6.6-1.1 1.1s0 .1-.1 0v-.1l.2-.2c0-.1.1-.1.1-.2v-.2l1.1-1.1v-.1l-.1.1-1.1 1.1s-.1.1-.1 0c-.1 0-.1-.1-.2-.1l-.4-.4-.3-.3c0-.1-.1-.2-.1-.2-.1 0-.2-.1-.3-.2-.1-.1-.1 0-.2 0l-.1.1c0 .1-.1.1-.1.2zm7.6 8.4-1.2-1.2c-.1-.1-.1-.1 0-.2l.3-.3.7-.7c.1-.1.2-.2.3-.2.1 0 .1-.1.2-.2l.2-.2.7-.7c.1-.1.1-.1.2 0l.8.8.4.4s.1.1 0 .1l-.3.3-1.6 1.6-.4.4h-.1c-.2-.1-.2 0-.2.1zm-3.5 1.7c.1 0 .1 0 0 0 .1-.1.1-.1 0-.1v.1l-.3-.3s-.1-.1 0-.1v-.1h-.1v.1l-.8-.8v-.2h-.2l-.4-.4h.1c-.1 0 0 .1-.1.1l-.9-.9h.1v-.1c-.1 0 0-.1 0-.1.1-.2.3-.3.4-.5l.6-.6s0-.1.1 0c.1 0 0 .1 0 .1-.1.1-.1.2-.2.2-.1.3-.2.6-.2.9.1.7.6 1.2 1.2 1.4.3.1.7 0 1-.1h.2l.4.4.7.7c-.1 0-.1.1 0 .1-.1.2-.2.3-.4.5 0 0 0-.1-.1-.1v.1c-.1.1-.2.2-.3.4 0-.1-.1 0-.1 0h-.1l-.3-.3c.1 0-.1-.1-.3-.4zm-1-5.3-.3-.3v-.1c.1-.1.2-.2.3-.4.1-.1.1-.2 0-.4 0-.1-.1-.1-.2-.2l-.5-.5-.7-.7c-.1-.1-.2-.3-.4-.3V13l.2-.2.4-.4s.1-.1.1 0 .1.1.1.1c.2.1.3.3.5.4l1.1 1.1c.1.1.3.1.5 0l.3-.3c.1-.1.1-.1.2 0 .2.2.4.3.5.5 0 .1.1.1 0 .1l-.5.5c-.4.4-.8.8-1.2 1.1h-.1c-.1.3-.2.2-.3.1zm2 3.6c-.6.6-1.6.7-2.3 0-.6-.6-.6-1.5 0-2.1.6-.6 1.6-.7 2.2-.1.7.6.7 1.6.1 2.2zm8.6-.2c-.1 0-.1 0 0 0-.1-.1-.1-.3-.1-.4 0-.1-.1-.1-.1-.1-.1 0-.1 0 0-.1 0 .1-.1 0-.1 0v-.1c.1-.1.1-.1 0-.2 0-.1 0-.1.1-.1h.1c.1 0 .1.1.1.1.1.1.1.2.2.2s.1 0 .1.1c0 0 .1 0 .1.1 0 0 .1 0 .1.1v.1c.1.1.1.1.1.2 0 0 0 .1.1.1 0 0 .1 0 0 .1.1 0 .1.1.1.1h.2c.1 0 .1-.1.2-.1v-.2h-.1v-.1h.2c0-.1.1-.1.1-.1 0-.1 0-.1.1-.1v-.1s.1 0 .1-.1c.1 0 .1-.1.1-.1h.1c.1.1.1.1.1.2h.1c.1 0 .1.1.1.2.1 0 .1 0 .1.1 0 0 .1 0 .1.1s.1.1.2.2v.1l.1.1v-.1h.1l.1.1c.1 0 .1.1 0 .1v.1c.1 0 .1.1 0 .1l-.1.1c-.1-.1-.1 0-.2 0l.1.1-.2.2v-.1h-.1c0 .1 0 .1.1.1l-.2.2h-.2v.1c.1.1 0 .1 0 .1l-.1.1c-.1.1-.1.1-.2 0v.2l-.1-.1-.2-.2c-.1 0-.1-.1-.1-.1-.1-.1-.2-.1-.2-.2l-.2-.2-.1-.1c-.1 0-.1-.1-.2-.2l-.1-.1c-.1 0-.1-.1-.1-.1l-.2-.2c-.2-.1-.2-.1-.2-.2-.1 0 0 0 0 0zm-5.2 5.9c-.1.1-.1.1 0 0-.2-.1-.4-.1-.6-.3-.1-.2-.3-.3-.5-.4 0 0 0-.1-.1-.1 0 0 0 .1.1 0 0 .1 0 0 .1 0h.1s.1 0 0 .1h.1c0 .1.1.1.1.1.1 0 .1.1.2.1s.1 0 .2.1c.1 0 .1.1.1.1.1 0 .1.1.2.1s.1.1.1.1v.1c.1 0 .1.1.2.1 0 0 0 .1.1.1s.1.1.2.1.1.1.2.1l.1.1c.1 0 .1.1.2.2 0 0 0 .1.1.1 0 .1 0 0 .1.1 0 0-.1.1 0 .1s0 .1 0 .1c0 .1-.1.1-.2.2 0 0-.1.1-.1 0h-.1v.1h.1l-.3.3v-.1h-.1v.1s.1.1 0 .1-.1.1-.1.1c-.1.1-.1.1-.2 0 0 .1-.1.1 0 .1s0 .1 0 .1-.1 0-.1.1c-.1.1-.1.1-.1 0v.1l.1.1-.3-.3v-.2h-.2s-.1 0-.1-.1l-.1-.1-.3-.3c-.1-.1-.2-.1-.2-.2s-.1-.1-.1-.1c0-.1 0-.1.1-.1v-.1l.5-.5v-.2h.2c.1 0 .2 0 .2-.1v-.2c.1.2 0 .2.1.1zm.1-10.1v-.1c-.1 0-.2-.1-.2-.2v-.1c0-.1.1-.2 0-.2v-.1l.1-.1c.1-.1.1-.1 0-.2l-.6-.6-.6-.6v-.1l.2-.2h.2l.3.3v.1h.2l.3.3v.2h.1c0-.1.1 0 .1 0 .2.2.4.4.6.5l.8.8 1.3 1.3v.1l-.3.3c-.1.1-.3.2-.4.3H22l-.2-.2-.2-.2c-.3-.3-.6-.5-.8-.8 0 0-.1 0 0-.1s.1-.2.2-.2.2-.1.2-.1.1 0 0-.1c0-.1 0-.1.1-.2v-.1c-.2-.1-.4-.2-.6-.4h-.1V14.8c-.4.2-.5.3-.6.4l-.1.1-.4-.4s-.1-.1 0-.1v-.1c.1.2.3.3.5.5zm1.9 10s0 .1 0 0c-.2.3-.5.5-.7.7 0 0-.1.1-.1 0l-.7-.7c-.2-.2-.4-.5-.7-.6-.1 0-.2-.2-.2-.2v-.1s0-.1.1-.1.1-.1.1-.1c.1 0 .1 0 .1.1v.1c0 .1-.1.1 0 .2v.1s-.1 0 0 .1H20.1c.2-.3.5-.5.8-.8l.7-.7s.1-.1 0-.1V23c.1-.1 0-.1 0-.1h-.1s-.1.1-.1 0h-.1s0 .1-.1 0l-.1-.1.1-.1v-.1c0-.1.1-.2.3-.3 0 0 .1 0 .1-.1.1-.2.3-.3.4-.4h.1l.9.9.4.4c.1.1.2.1.3 0 .1 0 .1.1 0 .2l-.1.1c-.5.6-1.1 1.2-1.7 1.8zm-5.1-10.5c-.1 0-.1 0-.1.1l.1-.1c0 .1 0 .1 0 0 0 0 .1 0 0 0 .2.2.3.3.5.4v.1s-.1.1 0 .1h.1c0-.1.1 0 .1 0l.6.6v.1l-.6.6-.8.8h-.1l-.2-.2c-.3-.2-.6-.3-1-.3h-.1l-.3-.3v-.1h-.1v-.1c.4-.4.8-.8 1.1-1.2.3-.1.5-.3.8-.5zm4.1 5.2.6-.6c.1-.1.1 0 .1 0l1.1 1.1.1.1-.1.1-.9.9-.3.3s-.1.1-.1 0l-.2-.2-.9-.9v-.1c.2-.3.4-.5.6-.7zm2.9.9c-.2.2-.3.4-.5.5h-.1l-.3-.3v-.1l.3-.3.7-.7.7-.7c.1-.1.1-.1.2 0s.2.1.2.2.1.1.1.2c.4.4.8.8 1.2 1.1v.1l-.9.9-.6.6-.4.4h-.1l-.1-.1h.2c.4-.4.8-.8 1.1-1.2.1-.1.1-.2 0-.3v-.2l-.2-.2s-.1-.1-.1 0h-.1l-.1-.1v-.2l-.2-.2s-.1-.1-.1 0h-.1c-.1-.1-.2 0-.3.1-.1.2-.3.4-.5.5zM17 18.7c0-.4-.1-.7-.3-1-.1-.1 0-.1 0-.2l.5-.5.9-.9.1-.1h.4c.1 0 .3.2.2.3 0 .1-.1.1-.2.1h-.2v.2c.1.2.2.3.4.5v.1l-.5.5-.6.6c-.1.2-.1.2-.3 0h-.1c-.1.1-.2.2-.3.4zm6.2 5.8.9-.9c.1-.1.1-.1.2 0-.1-.1-.1 0-.2 0v.4c0 .1.1.2.1.3 0 .1.1.1.1.1l-.1.1c-.1 0-.2.1-.2.2v.1c-.2.2-.4.4-.6.7h-.1c-.1-.1-.1 0-.1 0s-.1.1 0 .1v.1l-.7.7h-.1c-.1 0-.2.1-.2.2v.1l-.1.1H22l-.5-.5v-.1c.1-.1.2-.3.4-.4l.4-.4.9-.9zm2.5.4-1.1-1.1c-.3-.2-.5-.5-.7-.7V23c.1-.1.2-.2.2-.3 0-.1.1 0 .1 0l.8.8 1 1c.4.4.7.8 1.1 1.2.2.2.4.5.7.7v.1l-.1.1c0 .1-.1 0-.1 0l-.4-.4c-.6-.3-1-.8-1.5-1.3zM11.3 11.3l.3-.3s.1-.1.1 0c.1.1.1.1.1.2 0 0 0 .1.1.1h.1c.3.3.6.5.9.8 0 .1 0 .1.1.1 0 0 .1 0 .1.1v.1l-.7.7h-.1l-.9-.9c-.1-.1-.2-.2-.3-.4-.1-.1-.1-.1 0-.2 0-.1.1-.2.2-.3zm-3.1 2.4c0 .1.1.1.1.1l.1.1c.1 0 .1.1.1.1l.1.1.1.1c.1 0 .1.1.2.1 0 .1.1.1.1.1.1 0 .1.1.2.1h.1c-.3-.1-.7-.4-1.1-.8.2-.1.2 0 .3 0l.4.4.1.1s0 .1.1.1.1 0 .1.1l.4.4v.1l-.2.2-.6.6h-.1v-.1l.2-.2h.2c-.1 0-.1 0-.1-.1l-.2-.2c-.1 0-.1-.1-.2-.1s-.1-.1-.2-.2c-.1.1-.1 0-.1 0-.1 0-.1-.1-.2-.2-.1.1-.1.1-.2 0 0 0-.1-.1-.1 0l-.1.1c0 .1.1.1 0 .2 0 .1 0 .1.1.1l.3.3.1.1.2.2.2.2-.4.4h-.1s.1 0 .1-.1H8s-.1 0-.1-.1-.1 0-.1 0l-.2-.2s-.1-.1 0-.1h-.1c.1 0 0-.1 0-.1h-.1v.1h-.1c0-.5-.2-.7-.3-.8v-.1l.1.1c0-.1 0-.1-.1-.1.1-.1.1-.2.2-.2v.1s.1 0 .1-.1h.1c0-.1 0-.1.1-.1h.1c.1 0 .1 0 .1-.1v-.1c.1 0 .1-.1.2-.1 0 0-.1-.1 0-.1.1-.3.1-.3.2-.4 0 .1 0 .1.1.1v-.1zm17.9 7.7.4-.4h.1l.5.5c.1.1.1.1 0 .2 0 0 0 .1-.1.1h-.1s-.1.1 0 .2v.1l-.8.8H26c-.1 0-.2 0-.2.2v.1l-.5.5h-.1l-.5-.5c-.1-.1 0-.1 0-.1.4-.6.9-1.1 1.4-1.7zm-13.5-7.9.2-.2c.1-.1.1-.1.2 0l.7.7.8.8c.1.1.1.2 0 .2l-.4.4H14l-.5-.5c-.3-.3-.6-.5-.8-.8l-.3-.3v-.1l.2-.2zm4.9 1.8c0-.1.1-.1 0-.2h-.2l-.5-.5v-.1l.1-.1c0-.1.1 0 .1 0l.1.1c.1 0 .2 0 .2-.1.1-.1 0-.2 0-.3-.1-.1-.1-.1 0-.2l.5-.5c.1-.1.1-.1.2 0h.2c.1-.1.1-.2 0-.3l-.1-.1c0-.1.1-.1.1-.1 0-.1.1 0 .1 0l.6.6v.1l-.3.3s-.1.1-.1 0c0 0-.1-.1-.1 0 0 0-.1.1 0 .1.1.1 0 .1 0 .2l-.9.9c.1.1.1.1 0 .2zm5.9 6.3.6.6s.1.1 0 .1l-.6.6h-.1c-.2-.2-.4-.4-.7-.6l-.6-.6c-.1-.1-.1-.1 0-.1.2-.2.3-.4.5-.5.1-.1.1-.1.2 0 .3.1.5.3.7.5zm.4-6.9c.3.2.5.5.8.7l.1.1v.1h-.1c-.1-.1-.2-.1-.2-.2l-1-1c-.6-.6-1.3-1.2-1.9-1.9-.4-.4-.9-.8-1.3-1.3l-1.1-1.1-.6-.6-.9-.9-.7-.7-.3-.3s-.1-.1 0-.1h.1l.4.4c.4.4.8.7 1.2 1.1.4.4.8.7 1.1 1.1l.8.8.8.8 1 1 1.1 1.1c.2.4.4.7.7.9zM11.1 8.8l.4-.4.2-.2s0-.1.1 0 .1.1 0 .2l-.2.2-.8.8c-.3.3-.6.6-.8.9l-1.4 1.4c-.1.1-.1.1-.3 0h-.1c0 .1-.1.1-.2.1 0 .1 0 .2-.1.2l-.1.1c.1-.1.3-.2.4-.4 0 0 .1-.1.1 0 .1 0 0 .1 0 .1s-.1.1-.1 0h-.1v.1c.1.1 0 .1 0 .1l-.5.5c-.1.1-.1.1-.2 0v-.1s0 .1-.1 0v-.1c.1-.1.2-.3.4-.4L9 10.6c.3-.3.6-.6.9-.8l1.5-1.5.4-.4.6-.6s0-.1.1 0v.1c-.1.1-.2.2-.3.4-.1.1-.1.2-.3.2v.1c0 .1 0 .1-.1.1l-.6.6h-.1c0-.1 0 0 0 0zm1.8 10.1c0 .1 0 .1 0 0 .1.2.2.3.3.4l2 2 .9.9c.2.2.2.1 0 .3 0 0-.1.1-.1 0l-.3-.3c-.4-.4-.8-.8-1.2-1.1-.1-.1-.1-.1-.2-.1-.1-.1-.2-.3-.4-.4l-.4-.4-.7-.7-.3-.3v-.1c.2-.1.3-.1.4-.2 0-.1 0 0 0 0 .1 0 .2.1.2.1.2.1.3.3.5.5.4.4.7.7 1.1 1 .4.3.7.7 1.1 1l.6.6v.1h-.1l-.3-.3-.7-.7-1-1-1.1-1.1c-.1 0-.2-.1-.3-.2zM8 16.6l-.1-.1s-.1-.1 0-.1c.1-.1.1 0 .1 0 .4.4.8.8 1.3 1.2.6.6 1.2 1.2 1.8 1.7l1.2 1.2 1.3 1.3 1.1 1.1 1.2 1.2s.1.1 0 .1c0 .1-.1 0-.1 0l-.7-.7c-.3-.3-.6-.5-.8-.8l-.8-.8-.8-.8-.9-.9-1-1-.6-.6c-.5-.5-1-.9-1.4-1.4-.2 0-.5-.3-.8-.6zm6.9-3.7c.2.1.3.3.5.5l.4.4s.1 0 0 .1-.2.3-.4.3h-.2L15 14l-1.3-1.3c-.1-.1-.1-.1 0-.2l.3-.3h.1c.2.2.5.4.8.7zm3.2 1.8.4-.4c.1-.1.1-.1.2 0l.5.5s.1 0 0 .1l-.6.6h-.1c-.1-.1-.1-.1-.2 0 0 0-.1 0-.1.1v.3c.1 0 0 .1 0 .1l-.1.1H18l-.6-.6v-.1l.7-.7zm-.2 7.2c0 .1 0 .1 0 0 0 .3.1.3.2.2v.2h.1c.1-.1.2 0 .2.1s0 .1.1.1h.1c0 .1.1.2.1.2 0 .1.1.1.1 0l.1-.1v.1c0 .1 0 .1.1.2H19.3v.2c0 .1 0 .1.1.1s.1 0 .1-.1V23c0-.1 0-.1.1-.1s.2-.1.2-.2v-.1.1l-.7.7H19l-.5-.5-1.3-1.3v-.1l.3-.3h.1v.2c0 .1 0 .1.1.1.1.5.2.5.2.4zm6.3.7v-.2c0-.1 0-.1-.1-.1s-.1-.1-.1-.1v-.1c-.1-.1-.3-.2-.3-.3h-.2c0-.1-.1-.1-.2-.2l-.1-.1v-.1l.5-.5h.1c.3.3.7.6 1 1v.1l-.5.5c0 .1 0 .1-.1.1zM13.7 6.7l.6-.6h.1c.2.1.3.3.5.5v.1h-.1c-.1-.1-.1 0-.2 0l-1 1s-.1.1 0 .1v.1h-.1c-.2-.1-.3-.3-.5-.4 0 0-.1-.1 0-.1l.7-.7zM8 13.5c-.1-.1-.1 0-.1 0l-.3.3-.7.7s-.1.1 0 .1v.1h-.1l-.4-.4v-.1c.3-.4.6-.8 1-1.2h.1l.2.2.3.3zm2.7-1.8.3.3c.1.1.1.1 0 .2l-.6.6h-.1c0-.1-.1-.2-.1-.3-.2-.2-.3-.4-.6-.6 0 0-.1 0 0-.1l.5-.5c.1-.1.1-.1.2 0l.4.4zm7.8 14.5s0 .1 0 0c.1 0 0 0 0 0s0-.1 0 0c0-.1-.1-.1-.1-.1 0 .1-.1 0-.1 0l-.2-.2-.3-.3v-.1s.1-.1 0-.2v-.1h.1c0 .1.1.1.1.1.1.1.1.1 0 .2.1 0 .1 0 .1.1s.1.1.2.2c0 0 .1 0 .2-.1s.2-.2.1-.3v-.1s0-.1.1-.2h-.2s0 .1-.1 0c-.1 0-.2-.1-.2-.2v-.1s0-.1.1-.1c0-.1 0-.1.1 0 0 0 .1 0 .1.1v-.1s.1-.1 0-.1l.1.1h.1l.3.3.1.1c.1 0 .1.1.1.1.1 0 .1 0 .1.1v.1c.1.1.1.1 0 .1l-.1.1c0 .1 0 .1-.1.2 0 .2-.1.2-.1.3l-.1.1h-.1c0 .1-.1 0-.1.1h-.1s-.1 0-.1-.1zM16.2 8c-.2.3-.3.5-.5.6-.2.2-.4.4-.6.5H15V9c.1 0 0 0 0-.1-.1 0-.1-.1-.2-.2s-.1-.1-.2 0h-.1c-.1 0-.1-.1-.2-.2l-.1-.1c-.1 0-.1-.1-.1-.1s0-.1-.1-.1c0 0 .1 0 0-.1h-.1V8c-.1 0-.1-.1-.2-.1h.1v-.1h-.1s.1 0 .1-.1c0 0 .1 0 .1-.1 0 0 0 .1.1.1v-.2c0-.1 0-.2.1-.1.1 0 .1-.1.1-.1h-.1v-.1c0-.1 0-.1.1-.1s.1 0 .1-.1v-.1c.1 0 .1-.1.1-.1v.1l.6.1c.1 0 0-.1 0-.1.1.1.2.1.2.1.1.1.1.1.1.2s.1.1.1.1v.1c-.1-.1-.2-.2-.2-.3-.1 0-.2.1-.2.1 0 .1-.1.1-.1.1-.1.1-.2.1-.3.2 0 .1-.1.1-.2.2v.1s.1 0 0 .1c.1 0 .1.1.2.1 0 0 0 .1 0 0 0 .1.1.1.1.1v.1h.1c.2.4.2.4.2.5.1 0 .1 0 .1.1h.1c0-.1.1-.1.1-.1l.1-.1h.1s0-.1.1 0c0-.1.1-.1.1-.1 0-.1 0-.1.1-.2l.1-.1c.2-.1.2-.1.3-.2-.1 0 0 0 0 0zm2.7 4c0-.1-.1-.1-.1-.2 0 0-.1 0-.1-.1 0 .1 0 0-.1 0h-.1s-.1 0 0-.1c0 0-.1 0 0-.1h-.1l-.2-.2-.2-.2-.2-.2c0-.1-.1 0-.1-.1-.1 0-.1 0-.1-.1 0 0-.1 0-.1-.1h-.1c-.1 0-.1-.1-.2-.2l-.1-.1c-.1 0-.1 0-.1-.1 0 0-.1 0-.1-.1 0 0 0-.1 0 0 0 0 .1-.1.1 0 0-.1 0-.1.1-.1s.1 0 .1.1c.1 0 .1.1.1.1h.1c.1.1.1.1.2.1l.3.3c0 .1.1.1.1.1.1 0 .1 0 0 .1 0 0-.1 0 0 .1 0 0 .1 0 .1.1v.1h.1c0 .1.1 0 .1 0l.3-.3c.1-.1.1-.1 0-.1v-.1c0 .1.1.1.1.1.1 0 .1 0 .1.1 0 0 0 .1 0 0 0 0 .1 0 0 .1 0 0 0 .1-.1.1h-.2c-.1 0-.2.1-.2.2v.3h.1s0 .1.1.1c.1.1.2.1.3.3.2 0 .2 0 .1.1.1-.1 0-.1 0 0 .1 0 0 0-.1.1 0-.1.1-.1.1-.1zm-1.1 6.5c.1 0 .1.1 0 0 .4.3.7.6 1 1 0 0 .1.1.1.2v.1-.1.2l-.3.3c-.1.1-.1.1-.1 0 0 0 0-.1-.1 0v.1c.1.1 0 .1 0 .2l-.1.1h-.1l-.2-.2c.1-.1 0-.1 0-.2 0-.3 0-.7-.1-1.1-.1-.3-.1-.4-.1-.6zm-5.9-8c-.1-.1-.2-.2-.4-.3 0-.1-.1-.1 0-.1.2-.2.3-.4.5-.5h.1l.3.3c.2.2.3.3.6.4.1 0 .1 0 0 .1s-.2.2-.3.4l-.2.2c-.1.1-.1.1-.2 0-.2-.3-.3-.4-.4-.5zm9.5 17.2-.6.6h-.1l-.3-.3v-.1l.2-.2c.4-.4.8-.7 1.1-1.1 0-.1.1 0 .1 0 .1.1.2.2.2.3v.1c-.2.3-.4.5-.6.7zm6.3-7.1s-.1 0 0 0c.2-.2.4-.4.6-.7h.1l.2.2s.1.1 0 .1l-.7.7-.6.6c-.1.1-.1.1-.1 0l-.2-.2v-.1c.2-.2.4-.4.7-.6zm-2.1-3c0 .1 0 0 0 0-.1 0-.1-.1 0 0 0-.1 0-.1 0 0 0-.1 0-.1 0 0 .1-.1.1-.1 0 0 .1 0 .1 0 .1-.1 0 0 .1-.1.1 0 .1 0 .1.1.1.1 0 .1 0 0 .1.1.1 0 0 .1 0 .1h.1s0 .1.1.1 0 .1.1.1h-.1H26.5c.1 0 .1 0 .1.1v.1h-.1v.1l-.4.4c0 .1-.1.1-.1 0l-.1-.1v.1h-.1s-.1 0-.1-.1c-.1 0-.1-.1-.2-.1 0 0-.1 0 0-.1h-.1c-.1 0-.1 0-.1-.1 0 0-.1 0-.1-.1-.1 0-.1-.2-.1-.3H25l.2-.2h.1c0 .1 0 0 .1 0l.1-.1h.1v.1c.1 0 .1.1.1.1v.2c-.1.1 0 .1 0 .2h.1c.1-.1.1-.1.2-.1H26.3V18c0-.1.1-.1 0-.2 0-.1-.2-.1-.2-.3-.1 0-.1 0-.1-.1h-.1c-.1 0-.1 0-.1-.1-.1.4-.2.3-.2.3zm-6.7-.6v-.5c0-.1 0-.2.1-.2s.1-.1.2-.1l.7-.7.5-.5s0-.1.1 0c.2 0 .3.1.4.1h-.1v.2l-.3.3v-.2c-.1 0-.2-.1-.3-.1-.1 0-.1.1-.1.1s-.1 0-.1.1c-.1.1 0 .1 0 .2l.1.1h.1v.1c-.3.3-.6.6-.9 1 0 0-.1.1-.1 0 0 0 0-.1-.1 0 0 0-.1 0-.1.1v.1c.1-.2.1-.2-.1-.1.1 0 .1 0 0 0zm-5 4.9c.3.2.5.5.8.7.1.1.1.1 0 .2 0 .1-.1.1-.1 0l-.1-.1c-.4-.4-.9-.8-1.3-1.3-.4-.3-.7-.7-1.1-1l-.1-.1.1-.1c0-.1.1-.1.1 0l.9.9c.3.3.6.5.8.8zm-2.9-3 .7.7c.1.1.1.1 0 .3h-.1c-.4-.4-.8-.7-1.1-1.1l-.6-.6-.4-.4s-.1 0 0-.1l.1-.1h.1l.7.7c.1.1.3.4.6.6zm.4-4.6-.8.8c-.1.1-.2.1-.3.1-.1 0-.1 0 0-.1.1-.2.3-.3.5-.5l1-1 .5-.5s.1-.1.1 0h.2l.3-.3s0-.1.1 0v.1l-.8.8c-.4.2-.6.4-.8.6zm11-.7c.2.2.5.4.7.7.1.1.1.1 0 .2 0 0-.1.1-.1 0l-.6-.6c-.3-.3-.5-.6-.8-.8-.4-.3-.7-.7-1-1V12c0-.1.1-.1.1-.1h.1l1.1 1.1c0 .1.2.4.5.6zm-3.6-3.2c-.4-.3-.7-.7-1-1-.1-.1-.1-.1 0-.2h.1l1.2 1.2.9.9c.1.1.1.1 0 .2h-.1l-1.1-1.1zm-1.3 12.1.2.2c.1.1.1.1 0 .3 0 .1-.1 0-.1 0 0-.1-.1 0-.1 0l-.4.4c-.1.1-.1.1-.1 0-.1-.2-.2-.5-.3-.7v-.1l.4-.4c0-.1.1 0 .1 0l.3.3zm-.2 1.9c0-.1.2-.1 0-.2-.1 0-.1-.1-.1 0h-.1s-.1 0 0-.1c0-.1.1-.1.1-.2s.1 0 .1-.1h.1c.1 0 .2 0 .2.1.1 0 .1 0 .1.1.1 0 .2.1.3.1.1 0 .2.1.3.1 0 .1 0 .1.1.1v.1l-.1.1v.1c0 .1-.1.1-.2.2-.1-.1-.1 0-.1 0s0 .1-.1 0c0-.1-.2-.1-.2-.2s-.1 0-.1-.1c-.1 0-.1 0-.1-.1-.2.2-.2 0-.2 0zm.9-8.4c0-.1.1-.1.1-.1h.1s0 .1.1 0c.2 0 .2 0 .2-.2v-.2l.5-.5h.1l.4.4v.1c-.2.1-.3.3-.4.4h-.4c-.1 0-.1-.1-.2 0-.2.1-.3.1-.5.1zm1.7 2.9.9-.9s.1-.1.1 0c.1.1.1.1.2 0 0 0 0-.1.1 0v.1c-.2-.1-.2 0-.3.1l-1.1 1.1c-.2.2-.4.3-.6.5-.1.2-.2.2-.2.3 0 0 0 .1-.1 0V20l.1-.1s.1-.1 0-.1-.1-.1 0-.2c.3-.1.6-.4.9-.7zm3.5-1.4s0-.1 0 0c.1 0 .2-.1.2-.1l.1-.1.1-.1c.1 0 0-.1.1-.1h.1v.1c0 .1.1.1.1.2.1.1.1.2.2.2 0 0 .1.1.1.2 0 0 0 .1.1.1 0 0 .1.1 0 .2.1-.1.1 0 .1 0v.1s-.1.2-.1.1h-.3c.1 0 .1.1 0 .1H23.9v-.1s-.1 0-.1-.1h-.2c.1 0 0-.1 0-.1 0-.1 0-.1-.1-.1h-.2c-.1 0-.1-.1 0-.1v-.1c.2-.3.2-.3.1-.3zm5.4 10.3s-.1.1-.2.1c0 0-.1.1-.1 0v-.1l-.1-.1c-.1-.1-.1-.1-.2-.1h-.1s0-.1.1-.1 0 0 0-.1v-.1c-.1-.1-.2-.2-.3-.4 0 0-.1 0 0-.1 0 0 0-.1.1-.1s.1 0 .1-.1.1-.1.2-.1c.1.1.2.2.4.3h.2v.2l.3.3c.1 0 .1 0 0 .1l-.4.4zm-9.4-6.4c.1-.1.1-.1.1-.2H19.2s-.1 0 0-.1.1-.1-.1-.2H19c-.1 0-.1 0-.1-.1s0-.1-.1-.1h-.2s-.1 0-.1-.1.1-.1.1-.1h.1l.2.2c.3.3.5.5.8.7.3.2.6.4 1 .6.1 0 .1.1 0 .1l-.3.3h-.1l.1-.1v-.2H20.1c-.1-.1 0-.1 0-.1 0-.1 0-.1-.1-.1h-.1s-.1 0 0-.1c0-.1-.1-.1 0-.2H19.6v-.2h-.1s0 .1-.1 0zm6.5-4c-.3-.2-.5-.5-.8-.8v-.1c.1 0 .1-.1.2-.2 0-.1.1 0 .1 0 .2.3.4.5.6.8.3.3.5.6.8.9 0 0 .1.1 0 .1-.1.1-.1 0-.1 0-.3-.2-.5-.5-.8-.7zM17 20.8c-.3-.2-.5-.5-.8-.7-.1-.1 0-.1 0-.1.2-.1.3-.2.4-.4.1-.1.2-.2.2-.4.1 0 .2 1.1.2 1.6zm7.9-2.9h-.2l-.2-.2c0-.1-.2-.2-.2-.3l-.1-.1c-.1-.1-.1-.2-.2-.3 0 0-.1-.1 0-.1s.1-.1.2-.1v-.1s0-.1 0 0l.1.1c-.1.1 0 0 0 .1-.1.1-.1.1.1.3 0-.1.1-.1.1-.1h.1s.1 0 0 .1h.1c0 .1.1.1.1.1.1 0 .1.1.1.1V17.7c.1.1 0 .1 0 .1.1 0 .1 0 0 .1zm-7.2 1.9c.1 0 .1 0 0 0v.4c.1.3.1.5-.1.7h-.1c-.1-.1-.2-.1-.2-.2-.1 0-.1-.1-.1-.1V19.7l.2.2c.1.1.1.1.2 0l.1-.1zm-.7 5s0 .1 0 0c.2.3.4.4.6.6l.6.6c.1.1.3.2.4.4v.1h-.1c-.2-.2-.4-.3-.6-.5-.2-.2-.5-.4-.7-.6-.2-.1-.3-.3-.5-.4v-.1c.1 0 .1-.1.3-.1-.1 0-.1 0 0 0 .1.1.2.2.3.2-.2 0-.3-.1-.3-.2zm-4.7-10.2c-.1-.1-.1-.1 0-.1h.1l-.1.1c.3.1.5.3.7.5l.8.8v.1h-.1l-.1-.1c0 .1.1.1.1.2-.1-.1-.2-.1-.3-.3-.1-.1-.1-.2-.2-.2-.1-.1-.2-.1-.2-.2l-.6-.6c-.1-.1-.2-.1-.2-.2 0 0-.1 0 0-.1 0 .1 0 .1.1.1h-.1c.1-.1.1 0 .1 0zm.6 2.5c-.1-.1-.3-.3-.5-.4l-.4-.4c-.1-.1-.3-.3-.5-.4l-.3-.3h.1c0-.1.1-.1.1-.1h.1l.6.6.5.5.3.3-.5-.5c.2.2.4.4.5.6-.1 0-.1-.1-.2-.1 0 .1.1.1.1.1.1 0 .2 0 .1.1 0-.1 0-.1 0 0 0-.1-.1-.2-.1-.2s.1.1.1.2zm4.5 6.6c.1 0 .1 0 0 0 0-.1.1-.1.1-.1.1 0 .1-.1.1-.1 0-.1.1-.1.1-.2 0 0 .1-.1.2 0 .1.2.3.3.5.4l.3.3s.1.1 0 .1-.1.1-.1.1v.1h-.1c0-.1-.2 0-.2-.2h-.1c-.1 0-.1-.1-.2-.1v-.1h-.1s-.1 0-.1-.1c0 0 0 .1-.1 0-.1 0-.1-.1-.3-.1zm-.5-10.8s-.1-.1 0 0c-.3-.3-.6-.5-.8-.8H16l-.6-.6s-.1 0 0-.1h.1s0 .1.1.1l-.1-.1h.1v-.1h.1l.3.3c.1.1.2.3.4.4 0-.1-.1-.1-.2-.2l.6.6c.1.1.2.3.4.4 0 0 0 .1.1.1l-.2-.2c.1.1.1.2.2.3l-.1-.1c0 .1.1.1.1.2-.1-.1-.1-.1-.1-.2-.3-.1-.2 0-.3 0v-.1.1zM12 15.3c-.1-.1-.1-.2-.2-.2 0-.1.1-.1.2-.1l.6.6.3.3.1.1c.1.1.2.3.4.4h-.1s0-.1-.1-.1l.1.1c0-.1-.1-.1-.1-.2 0 .1.1.1.1.2v.1h-.1l-.3-.3c-.3-.2-.6-.5-.9-.9-.1 0-.2-.1-.2-.2V15h.1c0 .2 0 .2.1.3zm12.3.5-.5-.5s-.1 0 0-.1l.1-.1s.1 0 .1.1c.2.1.3.3.5.4.1.1.2.1.2.2h.1l.1-.1h.1l.3.3v.1l-.2.2c0 .1-.1.1-.1 0-.3-.1-.5-.3-.7-.5zm-1.9 2.6v.1c0 .1 0 .1.1.2h.1v.4s0 .1.1 0h.2V19.4h.2s0-.1.1 0V19.7s0 .1.1.1h.1v.1l-.2.2h-.1c-.1-.1-.1-.2-.2-.3-.3-.4-.6-.9-.9-1.3.1 0 .1 0 .2-.1v.3c.1-.2.1-.2.2-.3zm-8.6-2.5s0-.1 0 0l-1.1-1.1c-.1-.1-.2-.2-.4-.3v-.1h.1l.1.1.1.1c0-.1-.1-.1-.1-.2 0 0-.1 0-.1-.1h.1s-.1-.1 0-.1h.1l.2.2c.4.3.8.7 1.1 1.1l.2.2-.3-.3h-.1c0 .1 0 0-.1 0l.1.1.2.2v.1c0 .1 0 .1-.1.1 0 0 .1 0 0 0zm2.4 8.2.5.5c.1.1.1.1 0 .2l-.1.1c0 .1-.1.1-.1 0l-.3-.3v-.1c.1 0 0-.1 0-.1-.2-.2-.4-.4-.6-.5-.1-.1-.1-.1 0-.3h.1l.5.5zm6.5-7.6.1-.1h.1l.6.3c.1 0 .1.1 0 .1l-.2.2-.2.2H23v-.1c0-.1 0-.1-.1-.2h-.1s-.1 0-.1-.1c0 0 0-.1-.1-.1h-.1c-.1 0-.1 0-.1-.1.1 0 .2 0 .3-.1-.1.1 0 0 0 0zM12.5 7.8l.3-.3v.1l-.1.1L11.4 9l-1.6 1.6-1 1-.8.8-.3.3h-.1v-.1l.2-.2c.3-.3.6-.7 1-1l2-2 .5-.5.5-.5.5-.5c0 .1.1 0 .2-.1zm1.6 5.4-.6-.6-.1-.1c0-.1 0-.1.1-.1 0 0 .1 0 .1-.1v-.1l.3-.3h.1v.1l-.3.3s-.1.1-.1.2v.1c.1.1.2.2.2.3l1.3 1.3c.1.1.2.1.3 0l.3-.3c.1-.1.1 0 .1 0 .1 0 0 .1 0 .1l-.3.3c-.1.1-.3.1-.4 0-.3-.4-.6-.7-1-1.1zm1.8-1.9c0-.1-.1-.1-.2-.2l.3.3c0-.2-.2-.2-.3-.4l.2.2c-.1-.1-.1-.1-.1-.2.4.4.8.8 1.1 1.2.1.1.3.3.4.5l-.3-.3.2.2v.1l-.2-.2.2.2v.1h-.1l-.2-.2.1.1c-.1-.1-.1-.2-.3-.3 0-.1-.1-.1-.1-.1-.1-.1-.2-.2-.3-.2l-.4-.4s0-.1-.1-.1c.1-.2 0-.2.1-.3 0 .1 0 .1 0 0 0 0-.1 0-.1-.1 0 .1.1.1.1.1zm1.2 8.2V19c0-.2 0-.4.2-.5.2-.2.2-.2.3 0 .1.2.2.3.1.5h-.1c0-.1-.1 0-.1 0-.1.1-.2.2-.2.3v.1c.1 0 0 .1 0 .1-.1-.1-.1-.1-.2 0zm-3.5-3.2c-.1 0-.2-.1-.2-.2.1.1.1.2.2.2-.1 0-.2 0-.2-.1l.1.1v.1h-.1c-.1-.1-.3-.2-.4-.4l-1-1h.1c0-.1 0-.2-.1-.2l.1.1-.1-.1s.1.1 0 .1c-.1-.1-.1-.1 0-.2h.1c.1.2.3.3.5.5 0 0 .1 0 .1.1l.3.3h.1c.1.1.3.2.4.4 0 .1.1.2.1.3 0-.1 0-.1 0 0l-.3-.3c.2.1.3.2.3.3zm5.9-2.4.3.3s.1.1 0 .1c0 .1-.1.1-.1.2h-.1c-.1-.1-.2-.1-.3 0h-.1c-.1-.1-.3-.2-.4-.4V14l.3-.3h.1c.1.1.2.1.3.2zm3.1 10.8.6-.6.7-.7h.1v.1l-.2.2-.9.9-.7.7-.8.8s0 .1-.1 0c-.1 0 0-.1 0-.1l.4-.4.9-.9zm-5.1-12.2c-.6-.5-1.1-1-1.6-1.5l.4.4c-.1-.1-.2-.3-.3-.4v-.1h.1c.1 0 .1.1.1.2 0-.1-.1-.1-.1-.2l.2.2c-.1-.1-.2-.2-.2-.3.1.1.3.2.4.4v-.1l.6.6-.2-.2c.3.2.6.5.8.8-.1 0-.1-.1-.2-.1l.1.1c0 .1 0 .1-.1.2 0-.1 0-.1 0 0 0-.1-.1-.2-.1-.2l-.2-.2c0 .1.2.2.3.4zm3 9.1c-.1 0-.1 0-.1-.1-.2-.1-.4-.2-.5-.4-.2-.1-.4-.3-.5-.4 0 0-.1-.1 0-.1s.1-.1.2-.2c0-.1.1 0 .1 0 .1.1.1.1 0 .2v.2c.1.1.2.2.3.2.2.1.2.1.4-.1h.1l.2.2c.1.1.1.1 0 .3-.2.1-.3.1-.2.2zm-7.4-4.9c0 .1.1.1.1.1-.2-.1-.3-.2-.4-.4.1.1.3.2.3.4l-1.5-1.5c.1 0 .2.1.2.2-.1-.1-.1-.1-.1-.2-.1.1-.1 0-.1 0s0-.1.1-.1c0 0 .1 0 .1.1v.1c.1.1.2.2.4.3l-.1-.1-.1-.1c.4.3.8.7 1.1 1.2 0-.1 0-.1-.1-.1l.2.2-.1-.1zm7.4 2.3c0-.1.1-.1.2-.2h.1l.4.4v.1c-.1.1-.2.3-.4.4h-.1c-.1-.1-.3-.2-.4-.4v-.1c0-.1.1-.2.2-.2zm-.6.5.2-.2h.1l.4.4v.1l-.4.4h-.1c-.1-.1-.3-.2-.4-.4v-.1c.1-.1.2-.1.2-.2zm-7-2.3s0-.1.1-.1c.1-.1.2-.1.3-.2l.2-.2.5-.5-.8.8.9-.9c0 .1-.1.1-.1.1s.1 0 .1-.1h.1v.1c-.1.1-.2.2-.3.4l-.8.8c0 .1-.1.1-.2.2l.1-.1c-.1.1-.2.2-.4.3 0-.1.1-.1.1-.1l-.1.1s-.1 0-.1.1c0 0-.1 0 0-.1s.1-.2.2-.2l.3-.3c0-.3 0-.2-.1-.1zm2.1-4.8s0-.1 0 0c-.1-.1-.2-.2-.2-.3V12h.1c.1 0 .1.1.1.2.2.2.4.4.7.6l.3.3-.4-.4.3.3c0-.1-.1-.1-.1-.1l.4.4-.2-.2.4.4-.2-.2.2.2v.1l-.1-.1c0 .1.1.1.1.2l-.2-.2v.1l-.7-.7-.6-.6s-.1 0 0-.1h.1c-.1 0 0 .1 0 .2zm-.6-.3.3-.3c-.1 0-.1.1-.2.1l.4-.4c0 .1-.1.1-.2.2.1-.1.2-.2.3-.4 0-.1.1-.2.2-.3.2-.2.4-.3.5-.5l.1-.1-.3.3.3-.3h.1v.1c-.1.1-.2.3-.4.4l-.2.2c-.1.1-.2.1-.2.2l-.5.5c0 .3-.1.4-.2.3.1 0 .2 0 .2-.1-.1 0-.1.1-.2.1.1-.1.2-.1.3-.2-.1 0-.2.1-.3.2zm-2 2.3-1.5 1.5v-.1c-.1 0-.1.1-.1.1.1-.1.2-.2.2-.3 0 0-.1 0-.1.1l-.2.2h-.1l.1-.1c.1-.2.3-.3.5-.5.2-.3.5-.5.7-.8 0 0 .1-.1.2-.1 0 .1-.1.1-.2.2l.3-.3-.5.5c.1-.1.3-.2.4-.4 0 0 .1-.1.2-.1v.1c.1-.1.1-.1.1 0l-.3.3c.1-.2.2-.3.3-.3zm-4 2.4c-.1 0-.1-.1-.2-.2s-.1-.1 0-.3c0 0 .1-.1.1 0l.8.8c.1.1.1.1 0 .3 0 0-.1.1-.1 0-.1-.2-.3-.4-.6-.6zm14.2 2.7h-.1l-.1.1h-.1l-.2-.2c-.1-.1-.1-.1 0-.3 0 0 .1 0 .1-.1s0-.2-.1-.3c-.1-.2-.2-.3-.4-.1h-.1l-.1-.1c-.1-.1-.1-.1 0-.2.2-.2.2-.2.4 0 .1.2.3.4.4.6.1.3.2.4.3.6zm-7.1-12c.1.1.2.2.3.2v.1c-.1.2-.2.2-.3.3h-.1c0-.1-.1-.1-.2-.2l-.1-.1c-.1 0-.2-.1-.2-.2v-.1l.2-.2h.1c.2.1.2.2.3.2zm5.3 12.3.4-.4.4-.4c.1-.1.2-.2.3-.2 0 0 .1-.1.1 0 .1.1.1.2.1.3 0 .1-.1.1-.1.2h-.1l-.1-.1c-.1-.1-.1-.1-.2 0l-.9.9c-.2.2-.4.4-.6.5-.1.1-.1.1 0 .2l.1.1s.1.1 0 .1c0 .1-.1.2-.2.1-.1 0-.2-.1-.3-.1-.1 0-.1-.1 0-.2 0 0 0-.1.1-.1.4-.3.7-.6 1-.9zM14.7 8.3s0-.1 0 0c-.2-.2-.2-.2 0-.4.1-.1.1-.2.3 0 0 0 0 .1.1.1.1.1.2.1.2.2v.1l-.2.2H15c-.1 0-.2-.1-.3-.2zm7.2 10.4c-.1 0-.2.1-.2.2l-.8.8-.6.6-.6.6h-.1v-.1l.3-.3 1.6-1.6c.1-.1.2-.1.2-.2.1-.1.2-.1.2 0zM17 8.6l-.4-.4c-.1-.1-.1-.1 0-.2h.1l.3.3.6.6s.1 0 0 .1c0 .1-.1.1-.2.1-.1-.2-.3-.3-.4-.5zm-8.4 7.3-.5.5H8c-.1-.1 0-.1 0-.1.3-.3.6-.6.9-1l.5-.5c.1-.1.1 0 .1 0v.1c-.2.4-.5.7-.9 1zm2 1.9-.1-.1s-.1.1-.1 0v.1s-.1 0-.1-.1c-.1 0-.1-.1-.2-.2H10s0-.1-.1-.1v-.1c-.1 0-.1-.1-.1-.1-.1 0-.1-.1-.2-.1 0 0 .1 0 .1-.1h.1s.1 0 .1.1.1.1.1.1 0 .1.1.1.1 0 .1.1c.1 0 .1 0 .1.1s.1.1.1.1c.2 0 .2.1.2.2.1 0 .1 0 .1.1.1 0 .1.1.2.1v.1s-.1 0-.1.1v.1c0-.1-.1-.1-.1-.1-.1 0 0-.1-.1-.1 0 0 0-.1.1-.1 0-.1 0-.2-.1-.2zm10.2 5.6-.5.5-.3.3s0 .1-.1 0 0-.2 0-.3l.2-.2.6-.6c.1-.1.2-.1.3-.1v.1s-.1.2-.2.3zM15.7 8.6l.7-.7s0-.1.1 0c0 0 .1.1 0 .1l-.1.1-.5.5-.8.8H15c-.1 0-.1-.1 0-.1l.7-.7zm-6.4 7.7.2-.2h.1l.2.2v.1l-.2.2s-.1 0-.1-.1c0 0-.1 0-.1-.1h-.1v.1l.1.1c.1.1.1.1 0 .2l-.1.1h-.1l-.2-.2v-.1c.2-.1.3-.2.3-.3zm8.4-3.8.1-.1s0 .1-.1.1c0 .1 0 .1-.1.2l-.5.5c.3-.2.5-.5.8-.8-.1.1-.1.2-.2.1-.1.3-.4.6-.6.8-.1.1-.3.2-.4.3l-.3.3h-.1c.1-.1.1-.1.1-.2-.1 0-.1.1-.2.1l.1-.1c-.1 0-.1.1-.2.1l.1-.1c.1-.1.1-.2.2-.2l.5-.5-.2.2c.1 0 .1-.1.2-.2l.5-.5h.3zm-5.3 4.8c-.2-.2-.3-.3-.4-.5 0 .1 0 .1.1.1l-1-1 .3.3-.3-.3v-.1h.1l.4.4c.2.2.4.4.6.7.1.1.1.2.2.2.1.1.2.1.2.2v.1c-.1-.1-.1-.2-.2-.2.1.1.1.1.1.2v.1c0-.1-.1-.1-.1-.2.1 0 .1.1.1 0l-.2-.2c0 .1 0 .2.1.2zm-2.3-2c-.3-.3-.6-.6-.9-.8-.2-.2-.4-.4-.6-.5-.4-.3-.7-.7-1.1-1 0 0-.1 0 0-.1h.1c.2.2.4.5.7.7l.5.5c.3.2.5.5.8.7l.6.6c.2.2.4.4.7.6h-.2c-.2-.3-.4-.5-.6-.7zm4.5-6.2s-.1 0 0 0c-.6-.6-1.1-1.1-1.7-1.6 0 0-.1 0 0-.1h.1l.3.3.8.8c.4.3.7.7 1.1 1 .2.2.3.3.4.5l.5.5H16s-.1 0-.1-.1h-.1c-.1-.1-.2-.2-.2-.3-.3-.2-.7-.6-1-1zm5.6 6.8c.1-.1.1-.1.1 0l.1.1c.1 0 .1.1.2.1.3.2.5.5.8.7l.2.2s.1.1 0 .1c0 0-.1.1-.2 0l-.3-.3-.8-.8s0-.1-.1-.1zm-1.9 4.7c-.2.2-.4.4-.6.7 0 0-.1.1-.1 0v-.1l.3-.3c.3-.3.6-.7 1-1 0 0 0-.1.1 0 0 0 .1.1 0 .1-.3.2-.5.4-.7.6zM12.8 8.9c.1-.1.3-.1.4 0 .1.1.1.3 0 .4-.1.1-.3.2-.5 0 0-.1 0-.3.1-.4zm1.6 8.3s0-.1 0 0c-.1 0-.1 0 0 0 0 .1-.1.1 0 0l-.2.2h-.1v-.1l.2-.2.6-.6h.1l.2.2.1.1c-.3.2-.6.2-.9.4zm3-3.4 1.1-1.1.2-.2s.1-.1.1 0v.1l-.5.5-.9.9-.6.6s0 .1-.1 0v-.1c.3-.2.5-.4.7-.7zm5.4 3.1s0 .1 0 0c-.1.1-.2.1-.2.2 0 0-.1.1 0 .1v.1c-.1.1-.2.1-.3 0 0 0-.1-.1-.1 0l-.1.1c.1.1 0 .1 0 .2s0 .1-.1.1-.1.1-.2.1c0 0-.1.1-.1 0h-.1v.1s-.1 0 0-.1v-.2h.1c-.1 0 0 .1 0 .1 0 .1.1 0 .1 0 .1-.1.1-.1 0-.2v-.1s.1-.1 0-.1v-.1l.1-.1h.2l.1-.1s.1-.1 0-.1c-.1-.1.1-.1.1-.2.1 0 .1.1.2.1.2.1.2.1.3.1zm4.7 3.5c.1-.1.2-.2.3-.2 0 0 .1-.1.1 0h.1V20l.2-.2h.1v.1l-.1.1-1.2 1.2c-.1.1-.1.1-.2 0 0 0 .1.1.1 0v-.1c-.1 0 0 0 0-.1l.2-.2h.2v-.1c-.1 0 0 0 0-.1 0 .1.1 0 .2-.2 0 .1 0 .1 0 0v.1c.1.1.1 0 0-.1.1.1.1.1 0 0 .1 0 .1 0 0 0zM14.3 17c.2-.2.3-.4.5-.5 0 0 0-.1.1 0v.1l-.4.4c-.2.3-.5.5-.7.8l-.9.9s0 .1-.1 0v-.1c.2-.2.4-.4.5-.6l1-1zm11 5.2c-.2.3-.5.5-.7.7 0 0 0 .1-.1 0v-.1l.6-.6.9-.9.4-.4h.1v.1l-.2.2c-.4.3-.7.6-1 1zm-3.7 4.5c-.1.2-.2.3-.4.4l-.7.7-.3.3h-.1s-.1 0-.1-.1h.2v-.2l.1-.1s.1-.1.2-.1v-.1s-.1 0-.1-.1l.2-.2h.2V27l.2-.2s0-.1.1 0h.1v-.1l.3-.3c0 .2 0 .2.1.3zm3-2.7.2.2v.1c-.1.2-.2.2-.3.1 0 0-.1 0-.1-.1-.3-.1-.3-.4-.1-.5h.1c.1.1.2.1.2.2zm-2.7-2.6c.2-.2.4-.4.6-.7.1-.1.2-.2.3-.4h.1v.2l-.7.7-.7.7s-.1.1-.1 0v-.1c.2-.1.4-.2.5-.4zm-6.1-6c.3-.3.5-.6.8-.8h.1v.1l-.6.6-.8.8-.4.4h-.1v-.1l1-1zM22 25.6s0 .1 0 0c-.2.2-.3.4-.5.5 0 0 0 .1-.1 0V26l.8-.8c.3-.4.7-.7 1-1.1l.8-.8s0-.1.1 0v.1l-.3.3-.7.7c-.4.5-.8.9-1.1 1.2zm-2.4-1.7-.3.3s0 .1-.1 0v-.1s0-.1.1-.1c.2-.2.4-.4.6-.7l.7-.7.4-.4s0-.1.1 0v.1l-.6.6c-.1.2-.3.3-.4.4-.1.2-.3.4-.5.6zm.8-.5-.5.5c-.1.1-.1.1-.2 0l-.1-.1v-.1h.1c.1 0 .2-.1.1-.2v-.1l.1-.1c.1-.1.1-.1.2-.1s.2-.1.1-.1V23l.1-.1h.1c.2 0 .2 0 .2-.2v.2c.2.2 0 .4-.2.5zM8.2 15.3c.1 0 .1 0 0 0l-.1-.1v-.1l.2-.2h.1c.1.1.2.1.3.2v.1l-.2.2h-.1s-.1-.1-.2-.1zm11.1-3.7s-.1.1 0 0c-.1-.1-.2 0-.2-.1 0 0 0-.1-.1-.1s-.1-.1-.2-.2c-.1 0 0-.1 0-.2.1-.1.2 0 .2 0 .1 0 .1.1.2.1s.1.1.2.1v.2c-.1.1-.1.2-.1.2zm-3.5 11.5c.1 0 .1 0 0 0-.1.2-.3.3-.4.5 0 0-.1.1-.1 0 0 0-.1-.1 0-.1l.9-.9s.1-.1.1 0c0 0 .1.1 0 .1-.2.1-.3.2-.5.4zm4.4-.1c.3-.3.6-.6.8-.9 0 0 .1-.1.1 0v.1c-.3.3-.5.5-.9.8-.1.2-.3.4-.5.6l-.5.5s0 .1-.1 0V24l.1-.1c.4-.3.7-.6 1-.9zm-2.8-1.6s.1-.1.1 0c.1.1 0 .1 0 .2-.2.2-.3.4-.5.6-.1.1-.2.3-.3.4 0 0 0 .1-.1 0v-.2c.3-.4.5-.7.8-1zm-5-13.6-.3.3H12V8s0-.1.1-.1l.6-.6c.1-.1.1 0 .1 0s.1.1 0 .1c-.1.2-.3.3-.4.4zm4.7 16.7c.1.1.1.1.1.2h.1c.1 0 0 .1 0 .1h.1c0 .1.1 0 .1.1l.2.2h-.1s.1 0 0 .1h-.2c0 .1-.1 0-.1 0-.1 0-.1-.1-.1-.2s0-.1-.1-.1h-.2l-.2-.2s-.1 0 0-.1c.3.1.3 0 .4-.1 0 .1 0 .1 0 0 .1.1 0 .1 0 0zm.6-15 .1.1v.1l.1.1h.1c.1 0 .1 0 .1.1.1 0 .1 0 .1.1.1.1.1.1 0 .2h-.1s-.1 0 0-.1V10c-.1 0 0 .1 0 .1s0-.1-.1-.1c-.1-.1-.2-.1-.2-.3 0-.1-.1-.1-.1-.1-.1-.1-.1-.1 0-.1l.1-.1v.1c-.1-.1-.1-.1-.1 0-.1 0-.1.1 0 .1v-.1zM21 22h-.2c-.3-.2-.6-.4-1-.6-.1-.1-.3-.2-.4-.3l-.4-.4-.3-.3v-.1h.1l.2.2c.3.2.5.5.8.7.2.1.4.3.6.4.2.1.4.3.6.4zm-2.9 1-.5-.5-.4-.4V22h.1l.2.2 1.5 1.5.2.2v.1h-.1l-1-1zm5.6-3.6.6-.6h.1v.1l-.2.2c-.3.3-.6.6-.9 1 0 0 0 .1-.1 0V20c.1-.2.3-.4.5-.6zm-2.6 2.3.1.1c.1.1.1.1 0 .2H21c-.1-.1-.3-.2-.4-.2l.2-.2h.1c0-.1.1 0 .2.1zM17.8 9.9l.1.1v.1h-.1c-.1 0-.1-.1-.2-.2-.1 0-.1-.1-.1-.1v-.2s-.1 0-.1-.1c0 0 0-.1-.1-.1 0 0-.1 0-.1-.1-.1 0-.1-.1-.2-.1l-.3-.3v-.1h.1l.1.1c.2.4.5.7.9 1zm1.9 2-.5.5s0 .1-.1 0c0 0-.1-.1 0-.1l.3-.3.6-.6h.1v.1l-.4.4zm-10 3.9c0 .1.1.1 0 0l.5.5.8.8.6.6.9.9s.1 0 0 0h-.1l-.4-.4-1.2-1.2c-.4-.4-.8-.7-1.1-1.1v-.1zm12.5 11.1c.7-.8 1.5-1.6 2.3-2.4-.7.8-1.5 1.6-2.3 2.4zM9.3 16.3c-.1.1-.1.2-.2.2H9c-.1-.1 0-.2 0-.3.1-.1.3-.2.5-.2.1 0 .1.1 0 .1s-.1.1-.2.2zM26.5 21s0 .1 0 0c-.2.3-.4.5-.6.7l-.9.9-.4.4s0 .1-.1 0v-.1c.2-.3.5-.5.7-.8l.9-.9c.2-.1.3-.2.4-.2zm-2.7-2.1s0 .1 0 0v.1c0 .1-.1.1-.1.1-.1 0-.2.1-.2.2s0 .1-.1.1-.1-.1-.1-.2 0-.1-.1-.2c0 0-.1 0 0-.1l.1-.1c.1 0 .2-.1.2-.2s0 0 .1 0c0 .2.1.3.2.3zm-2.7-5.4c-.1 0-.1-.1-.1-.1H21.3c.1 0 .2 0 .2.1 0 0 .1.1 0 .1v.1s0 .1.1.1v.1c-.1 0-.1 0-.1-.1 0 .1-.1.1-.1 0h-.1c0-.1 0-.1-.1-.1 0 0-.1-.1-.1-.2 0 0 0 .1 0 0zm4.4 3.6c0 .1-.1.1-.2.1h.1c0 .1-.1.1-.1 0-.1-.1-.1-.2-.2-.2 0-.1 0 0-.1-.1v-.1c-.1 0-.1-.1-.1-.1 0-.1 0-.1-.1-.1 0 0 .1 0 .1-.1s.1-.1.1-.1v.1c.1 0 .1.1.1.1.1 0 .1.1 0 .2v.1h.2c.1.2.1.2.2.2-.1 0-.1 0 0 0-.1.1 0 0 0 0zm-2.2-1.6c.1-.2.3-.3.4-.4 0 0 .1-.1.1 0v.1l-.1.1-.8.8s0 .1-.1 0V16c.2-.3.3-.4.5-.5zm-2 7.4c0 .1.1.1 0 .2-.4.4-.9.8-1.3 1.3h-.2l.1-.1c.1 0 .1-.1.1-.1.3-.4.7-.7 1-1.1.2-.1.3-.1.3-.2zm-2 .1c0-.1 0-.1 0 0 0-.1 0-.2-.1-.2 0 0-.1 0-.1.1 0 0 0 .1.2.1v.2c-.1 0-.1 0-.1-.1.1 0 .1-.1 0-.1s-.1-.1-.1-.1-.1 0 0-.1c0 0 0-.1.1-.1s.2-.1.2-.2c0 0 0-.1.1-.1 0 .1.1.1.1.2v.1s-.1.1 0 .1c0 0 0 .1-.1.1s-.2 0-.2.1zm2.3-5c.1.1.2.2.3.4l.6.9c.1.2.2.4.4.5v.1h-.1c-.1-.1-.2-.2-.2-.3-.2-.3-.4-.5-.6-.8-.1-.2-.2-.4-.4-.5l-.4-.4s-.1 0 0-.1h.1c.1 0 .2.1.3.2zm-4.4 3.9c.2-.2.4-.4.5-.6l.3-.3.6-.6h.1v.1c-.4.5-.9.9-1.3 1.4h-.2zm2.1-.6s-.1-.1 0 0c-.1 0-.1.1 0 0 0 .1 0 0 0 0 .1 0 .1 0 0 0 .1.1 0 .1 0 .1-.1 0-.1 0-.1.1 0 0-.1 0-.1.1s0 .1-.1.1c0 0-.1 0-.1.1l-.2-.2h.1l.2-.1c0-.1.1-.2.1-.2 0-.1.1-.1.2 0 0-.1 0-.1 0 0zm-8.9-3.9L10 17s-.1 0 0-.1h.1l.6.6.7.7.2.2s.1 0 0 .1h-.1l-.3-.3-.8-.8zm4-10.1-.5.5s0 .1-.1 0v-.1c0-.1 0-.1.1-.1s.1 0 .1-.1v-.1c.1 0 .1 0 .1-.1s0-.1.1-.1.1 0 .1-.1 0-.1.1-.1.1-.1.1-.1c0-.1 0-.1 0 0 .1 0 .1 0 .1-.1v-.1h.2s0-.1.1 0v.1l-.5.5zM22.7 20c-.1 0-.1 0 0 0-.2-.2-.2-.3 0-.4h.1c.1.1.2.2.2.3v.2c0 .1 0 .1-.1 0-.1 0-.2 0-.2-.1zm-2.4 2.3s.1 0 .1.1l-.1.1c-.1 0-.1.1-.1.1v.1c0 .1-.1 0-.1.1H20l-.1-.1h.1c0-.1.2-.1.1-.2 0-.1.1-.1.2 0-.1-.2 0-.2 0-.2v.1c.1 0 .1 0 0-.1zM13 12.8l-.8.8.5-.5.9-.9.3-.3h.1l-.1.1c-.4.3-.7.5-.9.8zm-.4 8.4c-1.4-1.4-2.8-2.7-4.2-4.1 1.4 1.4 2.8 2.7 4.2 4.1zm6.9 1.1.1.1c0-.1.1-.1.1-.1v-.1s0-.2.1-.1c.1 0 .2.1.3.1 0 0 0-.1-.1 0v.2s-.1.1-.1.2-.2 0-.2.1c-.1-.2-.2-.3-.2-.4zm3.8-4.8c-.1 0-.1 0-.2.1 0 0-.1.1 0 .1 0 0 0 .1-.1.1h-.2c-.1 0-.1-.1-.1-.2v-.1h.2s0-.1.1-.1v-.2l.1-.1c.1 0 .1.1.2.1-.1.2 0 .2 0 .3zM15 23.3s0-.1 0 0c-.2-.2-.2-.2-.1-.3h.1l.3.3c.1 0 0 .1 0 .1-.1.1-.1.1-.3-.1.1 0 0 0 0 0zm4.5-1.6c-.1.1-.2.1-.2.2s0 .1-.1.2h-.1c-.1 0-.1-.1-.2-.2.1 0 .2-.1.2-.2s0-.1.1-.1c.1-.1.2 0 .2.1.1-.1.1-.1.1 0zm4.3-2.9-.1-.1v-.1c.1.1.1 0 .1 0l.1-.1c0-.1 0-.1.1-.1h.1v.1c-.1.1 0 .1 0 .1 0 .1.1 0 .1 0s-.1 0-.1.1c0 0-.1 0 0 .1 0 .1 0 .1-.1.1 0 0-.1 0-.2-.1zm-.1-.8c-.1.1-.1.1-.1.2 0 0 0 .1-.1.1h-.2l-.2-.2s-.1 0 0-.1h.1c.1 0 .1 0 .1-.1v-.2c.1-.1.2-.1.3 0 .1.1.1.2.1.3-.1 0-.1-.1-.1-.1s-.1-.1-.1 0v.1c0 .1.1.1.2 0zm-1.8-1.2c.1-.1.2-.2.4-.3.1-.1.2-.1.3-.2h.1v.1l-.1.1c-.2.2-.4.3-.6.5h-.1c-.1-.1 0-.1 0-.2 0 .1 0 0 0 0zM19.7 22c-.1.1-.1.1-.1.2v.1s-.1.1-.1 0c-.1.1-.1 0-.2-.1 0 0-.1-.1 0-.1s.1-.1.1-.1v-.2h.1c0 .1.1.1.2 0 0 0-.1.1 0 .1s.1 0 0 .1c.1-.1.1-.1.2-.1h-.1s-.1 0-.1.1c-.1-.1-.1-.2-.2-.1 0 0-.1.1 0 .1s.1.1.2 0zm-.3-2.2c.1.1.1.2.1.2l-.2.2h-.1c-.1 0-.1 0-.1.1v.1H19l-.1-.1v-.1c.2-.2.3-.3.5-.4zm-7.4-.1-.3.3h-.1v-.1c.1-.1.2-.2.4-.2.1-.3.3-.5.6-.7 0 0 0-.1.1 0v.1c-.3.2-.5.4-.7.6zm14.2 3.1-.9.9s0 .1 0 0v-.1c.3-.2.6-.5.9-.8.2-.3.6-.6.9-.9 0 0 0-.1.1-.1v.1c-.4.3-.7.6-1 .9zm-9.2-2h.3c.1 0 .1.1.2.1s.1.1.2 0l.2-.2h.1c-.1.1-.2.2-.3.4h-.2v.1c-.2-.1-.3-.2-.5-.4zm2.2 1.5c.1 0 .1.1 0 .1v.1c0 .1-.1.1-.1.1-.1 0-.1.1-.2.1h-.1c-.1-.1-.1-.2-.2-.2 0 0 .1-.1.2-.1h.1l.1-.1s.1 0 0-.1c.1.1.2.1.2.1zm1.5-3.8v.1l-.3.3-.7.7c-.1.1-.1.1-.2.1l1.2-1.2zm-.9 4.4v.2s0 .1-.1.1-.1.1-.1.2h-.1c.1-.1 0-.1 0-.1h.1s.1 0 .1-.1 0-.1-.1-.1h-.1s0 .1-.1 0c0 0-.1 0 0-.1 0 0 .1-.1.1 0h.1s.1-.1 0-.1v-.1h.1l.1.1zM17.3 9.2c-.1 0-.2 0-.1-.1-.1 0-.1 0-.1-.1H17l-.1-.1-.1-.1c0-.1.1-.1.1 0 0 0-.1-.1 0-.1l.3.3.1.1c0 .1 0 .1.1.1 0-.1-.1 0-.1 0-.1 0 0 0 0 0zm-1.2 14.4.4.4h.1v.1s0 .1-.1.1c0-.1-.1-.1-.1-.1 0-.1-.1-.1-.1-.1l-.2-.2v-.2zm2.4-1.9c0 .1.1.1.1.1.1 0 .1.1.1.2s-.1.1-.2.1l-.1.1v.2h-.1v-.2s-.1 0-.1-.1h.1l.2-.1-.1-.1h-.1v-.1l.1-.1c0 .2.1.1.1 0zM12.6 8.2c-.1 0-.1 0 0 0 .1-.2.3-.3.4-.4h.1l.3.3c-.4 0-.6 0-.8.1zM18 22.1c.1-.1.1 0 0 0 .1-.1.1-.1 0 0v-.2c0-.1 0-.2.1-.1.1 0 .2-.1.2-.2 0 0 0-.1.1-.1s.1.1.2.1v.1c0 .1 0 .2-.2.2l-.1.1v.2c-.2 0-.2-.1-.3-.1zm5.3-7.3c-.2-.2-.2-.2-.1-.3h.1c.1.1.2.2.4.3v.1l-.1.1h-.1l-.2-.2zm-2.1 2.8.3-.3s.1-.1.1 0v.1l-.6.6h-.1v-.1c.1-.2.2-.3.3-.3zM9.5 15.1s.1-.1 0 0c.1 0 .1 0 .1.1.1 0 0 0-.1-.1.1 0 0 .1 0 0 0 .1-.1.2 0 .2v.1l-.1.1c0 .1-.1.1-.1 0-.1-.1-.1 0-.1 0v.2c-.1 0-.1.1-.2.1v-.1s0-.1.1-.1c0-.1.1-.1 0-.2v-.1l.2-.2c0 .2.1.1.2 0zm14.3 4.4.2-.2.4-.4h.1v.1l-.7.7-.5.5s0 .1-.1 0v-.1l.6-.6zm-12.7-1.4s0 .1 0 0c.1.1.1.1 0 .2l-.2.2c-.1.1-.1.1-.2 0 0 0-.1-.1 0-.1l.1-.1c.1 0 .1 0 .1-.1v-.1s0-.1.1-.1c0 0 0 .1.1.1zm5-9.5c0-.1 0-.1 0 0 0-.1 0-.1 0 0l-.1.1v.1s-.1 0 0 0v.1s-.1 0 0 0c0 0 0 .1-.1 0s-.1 0-.2 0c0 0 0-.1.1 0v-.1l.1-.1c0-.1 0-.1.1-.1 0-.1.1-.1.1 0 0-.1 0-.1.1-.1s-.1 0 0-.1c.1 0 .1-.1.2-.2 0 0-.1 0 0 0v.1c-.1 0-.1 0-.2.1 0 .1 0 .1-.1.2 0-.1 0-.1 0 0zm-2.3-.9c-.1 0-.1 0 0 0l-.1-.1.9-.9h.1v.1h-.1c-.1 0-.1.1-.1.1 0 .1 0 .1-.1.1s-.1.1-.1.1 0 .1 0 0c-.1 0-.2.1-.1.1 0 .1 0 .1 0 0-.1 0-.1.1-.1.1v.1c-.1 0-.1 0-.1.1 0 0 0 .1 0 0-.2.1-.3.1-.2.2zm7 10.8c-.1-.1-.1-.2 0-.2l.3-.3c.1-.1.2 0 .2.1 0 0 0 .1 0 0-.1 0-.1 0-.1.1-.1.1-.2.3-.4.3zm-2.3 2.3c.1-.1.2-.1.2.1 0 .1.1 0 .1 0s0-.1 0 0v.1h-.1c-.1 0-.1.1-.1.2l-.1.1c-.1 0-.2 0-.2-.1v-.1l.1-.1h.1s0 .1.1 0l.1-.1s0-.1-.1-.1h-.1v.1c-.1 0-.1-.1 0-.1-.1 0 0 0 0 0zM8.3 13.2s-.1 0 0 0c-.2-.1-.2-.2-.3-.3v-.1l.3-.3h.1c-.2.2-.2.4-.1.7zm10.2 9.2c.1 0 .1 0 0 0 .1.1.1.1.2 0 0 0 .1 0 0-.1 0-.1-.1-.1-.2.1 0-.1 0-.1 0 0l-.1-.1.1-.1c.1 0 .2-.2.2-.2l.1.1s.1.1.1.2v.2s-.1.1-.2 0h-.1s-.1 0-.1.1c.1-.1.1-.1 0-.2 0 .1 0 0 0 0zm-3.9-7.5c.1.1 0 .2 0 .3-.1.1-.2.3-.4.4h-.1v-.1l.1-.1c.1-.2.3-.3.4-.5zM11 9.6l-1.9 1.9c.1-.1.1-.2.2-.3l.2-.2.7-.7c.2-.2.4-.5.7-.7h.1zm6.5 3.7-.1-.1c-.1-.1.1-.1.1-.1h.1l.3.3v.1l-.1-.1.1.1-.1-.1c0 .1.1.1.1.2-.3-.1-.3-.2-.4-.3.1.1.1.2.2.2l-.3-.3s0 .1.1.1zm6.5 4.8h-.1c-.1 0-.2 0-.2.1s0 .1.1.1c0 .1 0 .1-.1.1h-.2c0-.1-.1-.1-.2-.2v-.1h.1c.1 0 .2-.1.2-.2l.1-.1c.1.3.2.3.3.3zm-1.1 2.3-.1-.1-.7-.7-.4-.4v-.1h.1l.1.1c.3.3.6.6.9.8 0 .2.1.2.1.4zm-5.8-.8c.1-.1.1-.2.2-.2h.2l.1-.1h.1v.5l-.3-.3c-.1-.1-.1-.1-.2 0 0 0 0 .1-.1.1zm-7.9-3.8.1-.1.3-.3s0-.1.1 0v.1c0 .1-.1.1-.1.2-.3 0-.4.2-.6.3-.1.1-.1.2-.2.2h-.1v-.1c.2 0 .3-.2.5-.3zM22.7 17c0 .1 0 .1 0 0-.1.1 0 .2 0 .2h.1c.1-.1 0-.1 0-.1l-.1-.1h.2s.1.1.1 0h-.2c0 .1-.2.1-.1.2 0 .1-.2 0-.2.1l-.2-.2c.1.1.1 0 .1 0l.1-.1v-.1c.1.2.2.2.2.1zm-7.5-5.8c-.1 0-.1-.1-.2-.1-.1-.1-.1-.1-.1-.2s.1-.1.1-.2h.1c.1.1.2.2.2.3.1.1 0 .1 0 .1h-.1l-.3-.3.2.2c.1.1.1.1.1.2 0-.1 0-.1-.1-.1 0 0 .1 0 .1.1zm-3.7 5.5c-.1-.1-.3-.2-.4-.4v-.1h.1l.6.6.3.3v.1H12l-.5-.5zm-1.2 1.1.1.1h-.1l-.5-.5c-.1-.1-.2-.1-.2-.2v-.1h.1c.1.2.3.5.6.7zm6.4-4.1.3.3v.1h-.1l-.1-.1c0 .1.1.1.1.2-.1 0-.1-.1-.1-.1l.1.1c-.1 0-.1-.1-.1-.1l.1.1c-.1-.1-.1-.2-.2-.2s-.1-.1-.1-.2h.1s-.1 0 0-.1h.1c-.1.1-.1.1-.1 0 0 .1 0 .1 0 0 0 .1 0 .1 0 0zm-6.9-2.1s0-.1 0 0l.3-.3h.1l-.1.1H10c-.1 0-.1 0-.1.1v.1h-.1c0 .2-.1.2-.2.3 0 .1-.1 0-.1 0v-.1c.1 0 .2-.1.3-.2zm8.7 9.7c.1 0 .2-.1.2-.2s0-.1.1-.1c0 0 .1 0 .1.1 0 0 .1 0 0 .1 0 0-.1 0-.1-.1h-.1s-.1.1 0 .1.1.1.1.2c-.1.1-.2.1-.2.1-.1-.1-.1-.1-.1-.2zm-6.8-7.1.2.2c0-.1-.1-.1-.2-.2 0 0-.1 0-.1-.1s.1-.1.1-.2h.1l.2.2v.1c-.1 0-.1-.1-.2-.2 0 .1.1.1.1.1s.1 0 0 .1h-.1v.1h-.1c.2 0 .1-.1 0-.1zm.4-.3c0 .1.1.1.1.2-.1 0-.1-.1-.1-.2 0 .1 0 .2.1.2v.1h-.1l-.1-.1c-.2-.2-.2-.2 0-.3l.3.3-.1-.1.1.1v.1c-.1-.2-.2-.2-.2-.3zm4.1 9.4c-.1 0-.1-.1-.1-.2V23h.1c-.1.1 0 .1 0 .3.1 0 .1.1.2.1h.1c0 .1.1.1.1.1h.1s0 .1.1 0h-.1v-.1s-.1 0-.1-.1h-.1c-.2.1-.2.1-.3 0zm-8.5-9.6.1-.1h.1v.1c-.1-.1-.1 0-.2 0v.2c-.1 0-.1 0-.1.1-.1 0-.1 0-.1.1v.1c-.1 0-.1 0-.1.1-.1 0-.1 0-.1.1 0 0 0 .1-.1.1s-.1 0-.1.1v.1-.1c.1-.4.4-.6.6-.9zm5.7 3.7c0 .1.1.1.1.2 0 0 .1 0 0 .1h-.1l-.2-.2.2.2v.1h-.1l-.3-.3v-.1h.1v-.2h.1l.3.3v.1c0-.1 0-.2-.1-.2zm.6-.6c0 .1.1.1.1.2v.1H14l-.3-.3v-.1h.1c0-.1 0-.1.1-.1h.1s.1 0 .1.1l.2.2c-.1 0-.1-.1-.1-.1s0 .1.1.1h-.1c-.1 0-.1-.1-.2-.1zm12.7 1.7-.5.5h-.1v-.1l.1-.1s0-.1.1 0c0 0 .1 0 .1-.1s0-.1.1-.1l.1-.1c0-.1 0-.1.1 0zM8.9 16.2v.4H9c0 .1.1.1.1.1v.1s0 .1 0 0h.1s0 .1.1.1c0 0 .1 0 0 .1h-.1s-.1 0 0-.1c-.2 0-.2 0-.2-.1-.1 0-.1-.1-.2-.1v-.2c0-.2.1-.2.1-.3zm4.4 1.6-.2-.2c-.1-.1-.1-.1 0-.1 0-.1 0 0 .1 0l.3.3v.1c-.1-.1-.1-.2-.2-.1 0-.1-.1-.2-.2-.3.1.1.2.2.2.3.1 0 .1 0 0 0 0 .1 0 .1 0 0-.2 0-.3-.1-.4-.2 0 0-.1 0 0-.1h.1v-.1c.1.2.2.3.3.4zm9.6-2.4c-.1-.1-.1-.1-.1-.2l-.1-.1c0-.1 0-.1-.1-.1 0 0 .1 0 .1.1.1 0 .2.1.3.1 0 0 0 .1.1.1-.1-.1-.1 0-.2.1 0-.1 0 0 0 0zm.5 3.5c0 .1-.1 0-.2 0v-.1l-.1-.1c0-.1.1-.1.1-.2.1-.1.1-.1.2 0l.1.1c0 .1 0 .2-.1.3zm-1.2-.9c.1-.1.1-.1 0-.1-.1-.1-.1-.1 0-.2v-.2h.1l.1.1s.1.1 0 .1c0 .1 0 .2-.1.1 0 .1-.1.1-.1.2 0-.1 0 0 0 0zm-10.9-3.5.2.2s.1 0 0 .1c0 0 0 .1-.1 0l-.2-.2.1-.1c-.1 0 0-.1 0 0 0-.1 0-.1.1-.1h.1c.1.1.2.1.2.2v.1c-.1 0-.1-.1-.1-.1l.1.1-.1-.1c-.2 0-.2 0-.3-.1zm3.2 2.1c-.1 0-.1-.1-.2-.1.1.1.1.1.2.1-.1 0-.2 0-.3-.1 0 .1.1.1.1.1.1.1.1.1.2 0l-.1.1-.2-.2v.1l.2.2-.3-.3s-.1 0 0-.1c0 0 0-.1.1 0 .1 0 .2.1.3.2zm2.2-7.1c0-.1-.1-.1-.1-.1-.1 0-.1-.1-.2-.1v-.1h.1s0 .1 0 0c0 0 .1 0 .1.1s0 0 .1 0 0 .1.1.1h.1c-.1 0-.2 0-.2.1zm-5.9 5.7c0 .1.1.1.2.2 0 0 .1.1 0 .1h-.1c-.1-.1-.2-.1-.3-.2.1.1.2.2.3.2v.1h-.1l-.2-.2c-.1-.1-.1-.1 0-.2 0-.1.1-.1.2 0-.1-.2-.1-.1 0 0 .1 0 .1.1.2.2l-.2-.2zm5.9-3.9-.3-.3s-.1 0 0-.1h.1l.5.5c.1.2.3.3.4.5v.1h-.1c-.1-.3-.3-.5-.6-.7zm1.6-1.1s0-.1 0 0c0-.1 0-.1 0 0 .1-.1.1 0 .1 0 0 .1 0 .2-.1.3 0 .1-.1.1-.2 0l-.2-.2s-.1-.1 0-.1c0 0 .1 0 .1.1.2-.1.2-.1.3-.1zm-8.6 5.3c.1 0 .2-.1.2-.2l.1.1s0 .1-.1.1c0 .1-.1.1-.1.1 0 .1-.1 0-.1 0h-.1c-.1 0 0 0 .1-.1zM18 13l-.3-.3v-.1c.1-.1.1-.1.2 0l.2.2.1.1c-.1 0-.1 0-.1-.1 0 0 .1.1.1.2-.1-.1-.1-.2-.2-.2l.2.2c-.2 0-.2 0-.2-.1v.1zm-3-1.6c-.1 0-.1 0 0 0l-.3-.3V11h.1l.1.1c0 .1 0 .2.1.3 0-.2-.1-.3-.2-.4v-.1h.1v-.1l.3.3c0-.1-.1-.1-.2-.1 0 .1.1.1.1.1 0 .2-.1.2-.1.3 0 0 0-.1 0 0-.1-.1-.1-.2-.2-.3h-.1l.3.3zm6.4 10.5c-.1 0-1.3-1.1-1.3-1.2.5.3.9.8 1.3 1.2zm1.2-4.1s.1.1 0 .1v.1l-.1.1s-.1 0-.1-.1c-.1-.1-.1-.1 0-.2 0 0 .1-.1 0-.1l.2.1zM11.5 9.9l.5-.5h.1v.2c-.1.1-.2.2-.3.4-.1-.1-.2-.1-.3-.1zm2.7 2.3s.1 0 0 0l2.1 2.1-2.1-2.1zm1.6-3-.2.2h-.1v-.1l.6-.6h.1v.1l-.4.4zm.3 13.7s0-.1.1-.1l.1.1v.1c.1 0 .1.1.2.1l.4.4c-.2-.1-.4-.3-.6-.5v-.1c-.1-.1-.1-.1-.2 0 .1 0 .1 0 0 0zm-3.4-9.7c.1-.1.1-.1.1 0h-.1c.1.1.1.1 0 .1l-.4.4s0 .1-.1 0v-.1l.3-.3c.1 0 .1-.1.2-.1 0 .1 0 .1 0 0zM19 24.1c-.1-.1-.1-.1-.2-.1h-.1c-.1-.1-.3-.2-.4-.4h.2c.3.2.4.4.5.5zm0 .8c-.1-.1-.2-.1-.2-.2v-.1h.1l.3.3.2.2v.1h-.1c-.2-.2-.3-.2-.3-.3zM7.2 14.5l.2-.2c.1-.1.2-.1.2-.2 0 0 .1-.1.1 0v.1l-.3.3c-.1.1-.1.1-.2 0zm10.6-1.2-.3-.3v-.1l.1-.1.3.3c0 .2 0 .2-.1.2 0-.1 0-.2-.1-.2.1.1.1.2.1.2zm-6 5.9s-.1.1-.1 0l-.1-.1V19s.1-.1.1 0c.1-.1.1 0 .1 0v.2zm.9.6c-.1 0-.2 0-.2-.1h-.2s0 .1-.1.1h-.1v-.1l.1-.1h.1c.1 0 .1.1.2.1.2 0 .2 0 .2.1zm-3.9-4v.1s-.1.1 0 .1v.1c-.1 0-.1.1-.2.1 0 0 0 .1-.1 0v-.1c0 .1-.1 0-.1.1v-.1c.2 0 .3-.2.4-.3.1 0 .1 0 0 0 .1.1.1 0 0 0zm8.6-5.2c.1.1.2.2.3.4h-.1c0-.2-.2-.3-.2-.4-.2-.1-.3-.2-.4-.3h.1l.3.3zm1.5 6.4c-.1-.1-.2-.3-.3-.4h.2c.1.1.1.2.1.4zm-.8 4.3.1.1c0 .1 0 .1-.1.2 0 0 0 .1-.1.1h-.1c.1-.1.1-.1 0-.1s-.1-.1 0-.1c.1-.1.2-.1.2-.2zm6-5.5.3.3v.1s0 .1-.1 0h-.2c-.1-.1-.2-.1-.1-.3.2 0 .1 0 .1-.1zM16.5 23c-.1 0-.2-.2-.2-.2 0-.1.1-.1.2-.2.1.1.1.2.2.3-.2-.1-.2-.1-.2.1zm2.3-8.7-.2-.2s-.1-.1 0-.1h.1l.4.4v.1H19c-.1-.1-.1-.2-.2-.2zm4.6 3 .3-.3c.1-.1.1 0 .1 0v.1h-.1v.1c.1 0 0 .1 0 .1s0 .1-.1.1l-.2.2c.1-.3.1-.3 0-.3zm-9-8.7.2.2s.1 0 0 .1h-.1l-.4-.4s-.1 0 0-.1h.1c0 .1.1.2.2.2zm1.4 14.9c-.1 0-.1 0 0 0-.1-.1-.1-.2-.1-.2s.1-.1.1 0c0 0 .1 0 .1.1l.1.1h.1-.1c-.1.2-.1.2-.2 0 0 .1 0 .1 0 0zm-1.2-7c-.1 0-.1-.1-.2-.1.1.1.2.1.2.1 0 .1-.1.1 0 0-.2 0-.2-.1-.3-.2l-.1-.1c0-.1.1-.1.1-.1 0-.1 0 0 .1 0 .1.1.2.1.2.2v.2c0-.1-.1-.1-.1-.1l.1.1zm9 6.6.6-.6c0 .1-.5.6-.6.6zm-5.3 1.7c-.1.1-.1.2-.2.2H18v-.1c.1-.2.3-.3.4-.4 0 0 0-.1.1 0v.1c0 .1-.1.2-.2.2zm0-1.4.2.2s.1 0 0 .1h-.1l-.4-.4v-.2c.2.1.2.2.3.3zM16 9.5c.6.5 1.1 1 1.6 1.5 0 0-1.5-1.4-1.6-1.5zm1.9 10.7c.1.1.2.1.3.2v.1l-.1.1c0-.1-.1 0-.1 0-.1-.1-.1-.2-.1-.4zm-3.5-8.9c.1.1.2.2.2.3-.1 0-.1-.1-.2-.1-.2-.2-.2-.2 0-.3l.3.3-.3-.3c.1.1.2.1.2.2l-.2-.2c.1.1.2.2.2.3.1 0 0-.1-.2-.2.2.1.3.1.3.3l-.3-.3zm9.2 8.5c.1 0 .1-.2.2-.1 0 0 .1 0 0 .1s-.1.2-.3.2h-.1v-.1c.2 0 .2-.1.2-.1zm-3.8-7.7c-.1 0-.1 0-.2-.1v-.1l.1-.1h.1c0 .1 0 .1.1.1 0 .1 0 .2-.1.2.1.1.1 0 .1.1s0 .1.1.2l-.1-.1c-.1-.1-.1-.1-.1-.2zm-.1 8.1-.1.1h-.1v-.1c.1-.1.1-.2.2-.3h.1c.1.2 0 .2-.1.3zm4-4.6s.1 0 0 0c.3 0 .4.1.4.3v.1H24c-.1-.2-.2-.3-.3-.4zm1.1.9c.1-.1.2-.3.4-.4 0 0 .1.1 0 .1-.1.1-.2.2-.2.3 0 .1-.1.1-.2 0 .1.1 0 .1 0 0zm-17-1.6c-.1-.1-.1-.1-.1-.2l.2-.2H8v.1c-.1 0-.1.1-.1.2 0 0-.1 0-.1.1zm12.1 9.9c.4.4.9.8 1.3 1.2-.5-.4-.9-.8-1.3-1.2zm3.3-4.2-.3.3h-.1v-.1c0-.1.1-.1.1-.2l.1-.1c.1 0 .1.1.2.1-.1 0-.1 0 0 0zM15.5 9s.1 0 0 0h.1v.2c0 .1-.1.1-.2.1s-.2 0-.2.1v-.1c.1 0 .1-.1.1-.1s.1 0 0 0l.2-.2c0 .1 0 .1 0 0zm-5.2 1.2c-.3.4-.7.8-1.1 1.1.4-.4.7-.8 1.1-1.1zm13.8 9.2c0-.1 0-.1 0 0 .2-.2.2-.1.2-.1v.1c0 .1-.1.1-.1.2-.1.1-.1.1-.2 0s0-.1.1-.2c-.1 0-.1 0 0 0zm-.7-3.5c.1 0 .2 0 .2-.1.1 0 .1.1.2.1 0 0 0 .1.1.1-.1 0-.1 0-.1-.1h-.1c0 .1-.1 0-.1.1s0 0-.1 0-.1 0-.1-.1zm-2.5-1s0 .1 0 0h-.4v-.2c.1.1.3.1.4.2zm-4.8-7s-.1.1-.1 0 0-.1-.1-.1v-.1h-.1v-.1h-.1c0-.1-.1-.1-.1-.2h-.1c.1 0 .1 0 .2.1 0 .1.1.1.2.2 0 .1.1.1.2.2-.1-.1 0-.1 0 0-.1 0 0 0 0 0zm.9 16.7-.3.3h-.1v-.1l.2-.2s.1-.1.2 0c-.1 0 0 0 0 0zm.3-1c0-.1.3-.4.4-.4v.1l-.2.2s0 .1-.1 0c0 0-.1 0-.1.1zm.1-.3.2-.2h.1v.1c-.1.2-.3.3-.4.4h-.1v-.1c0-.1.1-.1.2-.2zm7.8-5.4c0 .1-.1.1-.2.2 0 0 0 .1-.1 0V18l.3-.3h.1v.1c0-.1-.1 0-.1.1zm.7 5.1c0-.1 0-.1.1-.1l.3-.3.5-.5h.1c-.4.3-.7.6-1 .9zm-.6-4.3c-.2-.2-.3-.4-.4-.5v-.1h.1l.3.6c.1 0 .2 0 0 0 .1.1.1 0 0 0zm-14.9-3.3c.1.1.2.2.2.3 0-.1-.1-.2-.2-.3 0-.1 0-.1 0 0h.1l.2.2c0-.1-.2-.2-.3-.2.1 0 .2.1.3.1 0 0 .1.1 0 .1h-.1c0-.1-.1-.1-.2-.2zM23.6 17l-.2.2h-.1v-.1l.4-.4h.1v.1c-.1.1-.1.2-.2.2zM13.1 7.2c.3-.4.7-.8 1.1-1.1l-1.1 1.1zM17 23.8c.1-.1.2-.1.2-.1v.1s0 .1-.1.1c0 .1-.1.1-.1-.1 0 .1 0 .1 0 0v.2s0 .1-.1.1c0 0-.1 0-.1-.1v-.1c.1 0 .1 0 .2-.1zm5.5 2.7c.3-.3.5-.6.8-.9-.3.4-.5.6-.8.9zm-1.3-7.8-.1.1H21v-.1l.3-.3h.1v.1c-.1.1-.2.1-.2.2zm3-2s0 .1 0 0c-.1.1-.1.2-.2.1 0 0-.1-.1 0-.1l.2-.2s.1-.1.1 0c0 0 .1.1-.1.2.1-.1.1 0 0 0zm-6.4 8.4c0-.1-.1-.1 0 0 0-.2 0-.1 0 0 .2 0 .3.1.4.2 0 0 .1 0 0 .1h-.1l-.3-.3zm-4.5-14.8c-.1.1-.1.2-.2.2 0 0-.1 0-.1-.1v-.1c.1-.1.2-.1.3 0zm-.9.7c.1 0 .1-.1.2-.1h.1s.1 0 0 .1-.2.1-.3 0zm11.2 5.1c0-.1 0 0 0 0 .1 0 .1 0 0 0h.4v.1c-.2.1-.3.1-.4-.1zm-13.2-2.9c0-.1 0-.3.1-.3h.1s.1 0 0 .1l-.2.2zm-1.1 4.2c.1 0 .1-.1.2 0v.1c0 .1-.1.1-.1.2 0 0-.1.1-.1 0-.1-.1-.1-.2 0-.3 0 .1 0 0 0 0zm6.4-4.6c-.3-.2-.6-.5-.8-.8.3.2.5.5.8.8zm-3.9 7.3c-.1 0 0-.1 0-.1l.1-.1h.1c.1 0 .1.1 0 .2s-.1.1-.2 0zm3.5-9.4.2.2-.1-.1-.2-.2v-.1l.1.2c0-.1.1 0 .1 0s.1.1.1.2l-.2-.2zm-2.9 8.2c-.1 0-.1 0 0 0l-.2.1v-.1l.2-.2s0-.1.1 0v.1c-.1 0-.1 0-.1.1zm7.3.9c.1 0 .1.1 0 .1l-.1.1c-.1-.1 0-.1 0-.2h.1c0-.1 0 0 0 0zm4.4-3.5c0 .1-.1.1-.2.2 0 0 .1 0 0 0h-.1s.1 0 0-.1h.1c.1 0 .2 0 .2-.1-.1 0 0 0 0 0zm-4.4 8.4c-.1 0-.3 0-.4-.1v-.1s.1-.1.2 0l.2.2zm.4-13.2c.1-.1.1-.1.2 0s.1.1 0 .2-.2 0-.2-.2c-.1.1 0 .1 0 0zm-8.9.9s-.1.1-.1 0c0 0-.1-.1 0-.1 0 0 0-.1.1-.1.1-.1.1-.1.1 0v.1l-.1.1zm14.1 5.1-.3-.3v-.1h.1c.1.1.3.3.4.5v.1h-.1c0-.1-.1-.2-.1-.2zm-3 9.5c0 .1.1.1.2.2v.1h-.1l-.3-.3v-.1h.1s0 .1.1.1zm-.8-9.6c.1-.1.1-.2.2-.2h.1v.1l-.4.4h-.1v-.1c.1-.1.2-.1.2-.2zm.3 4.5-.1.1h-.1s-.1 0 0-.1c0-.1.1-.1.1-.2 0 .1.1.2.1.2v-.1l.1-.1c0 .1 0 .2-.1.2zM18 13.2c-.1 0-.1-.1-.2-.1l-.2-.2v-.1h.1c.1.1.2.2.3.4l-.3-.3.3.3zm.6-.6c0-.2-.1-.2-.2-.2.1-.1.1-.1.2 0 .2 0 .2 0 0 .2zm-6-4.6c-.3.3-.6.7-.9 1 .1-.1.1-.2.3-.3.1-.3.4-.5.6-.7zm3.2 14.6s0-.1 0 0l-.1-.1h.1c.1 0 .1.1.2.1v.1h-.1c0-.1-.1-.1-.1-.1zm-.3.4c.1 0 .1.1 0 .1 0 0-.2 0-.2-.1.1.1.1.1.2 0h-.1c-.1 0-.1 0-.1-.1h.2c-.1.1-.1.1 0 .1zm9.4-3.7-.2-.2V19l.1-.1h.1v.4zM8.3 13.6h-.1l-.4-.4v-.1h.1c.1.2.3.4.4.5zM15.2 8h.1s.1 0 0 .1c.1.1.2.2.2.3 0-.1-.2-.1-.2-.2 0 0 0-.1 0 0 0-.1-.1-.1-.1-.2zm-1.7 14.2c0-.1 0-.1 0 0 .3.3.7.6 1 1l-1-1zm4.1-13.1.1-.1v.1l-.2.2h-.1v-.1c.1 0 .1-.1.2-.1zm6.6 15.7s-.1 0 0 0c-.1.2-.2.3-.3.4l-.3.3c.1-.3.3-.5.6-.7-.1 0-.1 0 0 0zM21 22.6c0 .1.1.1.1.2 0 0 .1.1 0 .1H21c-.1 0-.1 0-.1-.1.1 0 .1-.1.1-.2-.1.1-.1.1 0 0zm6.4-.8.2.2v.1h-.1l-.3-.3v-.1h.1s0 .1.1.1zM19 12l.1-.1h.1c0 .1-.1.2-.2.3h-.1v-.1s0-.1.1-.1zm-4.1 11s0 .1-.1.1-.1-.1 0-.2c0 0 .1 0 .1-.1h.1c-.1 0 0 .1-.1.2 0-.1 0 0 0 0zm8.2-7.7s0-.1 0 0h.1v.2s0 .1-.1.1H23c-.1-.1 0-.2.1-.3zm.1 5.1v-.1c0-.1.1-.1.1-.1 0 .1.1 0 .2 0-.1.1-.2.2-.3.2zm1.6-4c.1 0 .1.1 0 .1l-.1.1h-.1c0-.1 0-.1-.1-.1-.1-.1 0-.1 0-.1h.3c-.1-.1-.1 0 0 0-.1 0-.1.1 0 0-.1.1 0 .1 0 0 0 0-.1 0 0 0zm-14.3 1.8-.1-.1V18h.1c.1.1.2.1.2.2v.1h-.1s0-.1-.1-.1zm9.2 5.8c-.1 0-.1 0 0 0 0-.1 0-.1.1-.1h.1c.1 0 .1.1.1.2-.2 0-.2 0-.3-.1zM16.1 9.5s.1-.1 0 0c-.1-.1-.1-.2-.1-.2v-.1c0 .1.1.1.1.1l.1.1c.1 0 .1 0-.1.1.1-.1 0-.1 0-.1.1 0 0 .1 0 .1zm2.7 10.7c.2.1.2.1.3.2.1 0 .1.1.2.2v.1h-.1l-.2-.2c-.1-.2-.1-.2-.2-.3zm-.8-9 .1.1s.1 0 0 .1H18l-.3-.3V11h.1c.1.1.2.1.2.2zm2.9 7.5c-.1.1-.1 0-.1 0v-.1s.1-.1.2-.1h.1c0 .1-.1.1-.2.2.1-.1 0 0 0 0zM15.1 7.4c-.1 0-.1.1-.2.1h-.1v-.1l.3-.3h.1v.1c-.1.1-.1.2-.1.2zm-.6.4.1-.1h.1v.1l-.3.3h-.1V8l.2-.2zm3.8 15.7c-.2-.1-.3-.3-.5-.5.1 0 .1.1.1 0v-.1s.1.1.1.2 0 .2.1.2c0 .1.1.2.2.2zm-3.1-15 .1-.1s0-.1.1 0v.1c-.1.1-.2.2-.2.3h-.1v-.1c0-.2.1-.2.1-.2zm-.9 3.5c-.1-.1-.2-.2-.3-.2.1 0 .2.1.3.2-.2 0-.3-.1-.4-.2v-.1s0-.1.1 0c0 0 .1 0 .1.1.1 0 .2.1.2.2zM19 26.2l.1-.1h.1v.1l-.2.2h-.1v-.1s0-.1.1-.1zm-2-6.5c0-.1 0-.1 0 0v-.6V19.7c0-.1 0 0 0 0zm-.1 4.7c0 .1-.1.1-.1.2h-.1c-.1 0-.1-.1 0-.2s.1-.1.2 0c0-.1 0-.1 0 0zm6.7-8.9c0-.1.1 0 0 0 0-.1 0-.1.1-.1h.1s0 .1.1.1v.1c-.1 0-.3 0-.3-.1zM8.2 12.3c.1-.1.2-.3.4-.4.1-.1.2-.3.4-.4l-.8.8zm11.2-.7.1-.1s0-.1.1 0v.1l-.2.2h-.1c0-.1 0-.1.1-.2-.1 0-.1 0 0 0zm3.3 3.9.2.2v.1h-.1c0-.1-.1-.1-.1-.1l-.1-.1v-.1c0-.1 0-.1.1 0 0-.1 0 0 0 0zm-7-5.8c0-.1 0-.1 0 0V9.4h.1v.1c0 .1 0 .1.1.2-.1-.2-.1-.1-.2 0zM12.8 18c0 .1 0 .2.1.2 0 0 0 .1-.1 0-.1 0-.1-.1-.2-.2v-.1c.1.2.1.2.2.1zm15 8.7-.1.1s0 .1-.1 0v-.1l.2-.2h.1v.1c0 .1-.1.1-.1.1zm-9.3-11.1c.1 0 .1.1.2.1v.1s-.1 0-.1.1c-.1-.2-.1-.3-.1-.3zm4.6 3.2c-.1.1-.1.1 0 .2-.1-.1-.1 0-.1.1 0 0-.1 0-.1-.1.1-.1 0-.1 0-.2v-.1s0-.1.1 0l.1.1zM16.7 8.7c0 .1 0 .1 0 0 0 .1-.1.1-.1.2h-.1s-.1 0 0-.1c0-.1.1-.1.1-.1s0 .1.1 0zm.6 11s-.1-.1 0-.1c.1-.1.1 0 .1 0s.1.1 0 .2c0 0-.1 0-.1-.1zm3.8-1.9c.1 0 .1 0 0 0 .2.1.4.3.5.4v.1h-.1l-.2-.2c0-.1-.1-.2-.2-.3zM15.7 8l.1-.1h.1V8l-.3.3h-.1v-.1l.2-.2zm2.8 4.7-.1.1c-.1 0-.1-.1-.2-.2 0 0 0-.1.1-.1 0 .1.1.2.2.2zm-7.2-3.5-.8.8c.2-.3.5-.6.8-.8zm2.3-1.3.4.4v.1h-.1c-.2-.2-.2-.4-.3-.5zm-2.7 4.7c0 .1 0 .1 0 0-.1.1-.1.1-.1.2v.1h-.1v-.2c.1-.1.1-.1.2-.1zm5.7 11.2-.6-.6c.2.1.4.4.6.6zm-4.8-4.6c.1 0 .1-.1 0 0 .1-.1.1-.1.2-.1v.1c0 .1-.1.1-.2.2h-.1c.1-.1 0-.1.1-.2 0 .1 0 0 0 0zm1.1-1.3c.1-.2.1-.2.2 0 .1.1.1.1 0 .1 0 0 0-.1-.2-.1zM24.4 19s.1-.1.1 0c.1.1 0 .1 0 .1-.1.1-.1 0-.1 0V19zM7.9 13.8l-.1.1h-.1c.1-.1.1-.1.2-.1-.1-.1-.1-.1 0-.1h.2v.1c-.1-.1-.2 0-.2 0zm10.8-3.2-.3.3c0-.1.1-.2.3-.3-.1 0-.1 0 0 0zm1.6 1.1s.1-.1.1 0c.1.1 0 .1 0 .1s-.1.1-.1 0c-.1 0 0 0 0-.1zm2 6.7c-.1-.1-.1-.1-.1-.2V18s0-.1.1 0v.2c-.1 0-.1.1 0 .2 0-.1 0-.1 0 0l.1-.1v.1h-.1zm-5.9-8.7c.1 0 .5.4.5.5l-.5-.5zm-5.3 3v.2s0 .1-.1 0l-.1-.1v-.1h.1c0 .1 0 0 .1 0zm.9 7.4c.1-.1.1-.1.1 0v.1l-.1.1c-.1-.1-.1-.1 0-.2zm3.8-10.4c0-.1.1-.1.1-.1 0 .1 0 .1-.1.1 0 .1 0 .1-.1.2h-.1l.2-.2zm-6.8 7h.1l.3.3c-.2-.1-.3-.2-.4-.3zm16.8 6.4-.6.6.6-.6zm-11.7-2.2s-.1 0 0-.1c0 0 .1-.1.1 0 .1.1.1.1.1.2-.1 0-.1-.1-.2-.1zm-2.8-3-.1-.1s-.1 0 0-.1h.1c.1.1.2.1.2.2h-.1c0 .1 0 .1-.1 0zm7-5.1c0 .1 0 .1 0 0-.2-.2-.4-.3-.6-.5.1.1.2.2.4.3l.2.2zm8.5 5.4s.1-.1.1 0v.1c-.1.1-.1 0-.1 0-.1 0 0 0 0-.1 0 .1 0 .1 0 0zM6.7 13.7c.2-.3.4-.5.7-.7l-.7.7zm6.4-3v.2s0 .1-.1 0c0 0-.1 0-.1-.1s0-.1.1-.1h.1zm-.4 0 .1-.1h.2-.1c0-.1-.1 0-.1 0s-.1.1-.1 0c.1.1.1.1 0 .1zm8.4 12.6s.1-.1 0 0l.1-.1v.1l-.2.2h-.1l.2-.2zm-9-4.8v-.1s.1 0 .1.1l.1.1c.1.1.1.1 0 .2-.1-.3-.1-.3-.2-.3zm9.4-.7s-.1-.1 0-.1l.1-.1c.1 0 .1.1 0 .2h-.1c.1.1.1.1 0 0 .1 0 .1 0 0 0zm-1.2 6.3.1-.1v.1l-.1.1h-.1l.1-.1c-.1.1 0 .1 0 0zm-7.7-6.4.1.1-.2-.2v-.1h.1v.2zm-.6 1.6s.1 0 0 0l.1-.1v.1c0 .1-.1.1-.2.2h-.1c.1 0 .1-.1.2-.2 0 .1 0 .1 0 0zm9-5.9c-.1-.1-.8-.8-.8-.9.2.4.5.7.8.9zM20.5 24c0-.1.1-.1.2-.2 0 0 0-.1.1 0v.1l-.1.1h-.2zM10 15.6c-.1 0-.1.1-.2.1l.3-.3h.1v.1c-.1 0-.2.1-.2.1zm7.6-3.3-.6-.6c.3.2.5.4.6.6zm3.9 6.3c-.1 0-.1 0 0 0-.1.1-.1.1 0 0l-.2.2h-.1c.1 0 .1-.1.3-.2zm-.1 3.6c0 .1-.1.2-.1.2 0-.1-.1-.1 0-.1 0-.1 0-.1.1-.1zM16.5 9.6c-.1-.1-.4-.3-.4-.4.2 0 .4.3.4.4zM13 20.1h.2s.1 0 .1.1v-.1c-.2.2-.2.1-.3 0zM11.2 18l-.1-.1.2.2v.1c.1-.1 0-.1-.1-.2.1.1.1.1 0 0zm3.6-10.3c0-.1-.1-.1 0 0l-.1-.1h.1c.1 0 .1.1.2.1v.1c-.1 0-.1 0-.2-.1zm6 16.1c.2-.2.4-.4.5-.6-.1.3-.3.4-.5.6zm-2.4-12c.1 0 .5.4.5.5-.2-.2-.4-.3-.5-.5zm4.8 2.8c-.1.1-.1.1-.1 0v-.1l.1-.1h.1c-.1 0-.1 0-.1.2 0-.1 0-.1 0 0zm-3.6.1c-.1 0-.1 0 0 0l-.1-.1h.1c.1 0 .1.1.1.1v.1c-.1 0-.1 0-.1-.1 0 .1 0 0 0 0zm-.1 7.8c-.1 0-.1 0 0 0 0 0 0-.1 0 0 .1 0 .2 0 .2.1v.1h-.1c0-.1-.1-.1-.1-.2zm-9.9-6c.1 0 .2 0 .1.2 0 0 0 .1.1 0h.1v.1h-.1c-.1-.1-.2-.2-.2-.3zM21 13.9l-.1-.1h.1c.1 0 .1.1.1.1v.1l-.1-.1c.1.1.1 0 0 0zm3.6 4.3c.1 0 .1 0 0 0l.1-.1v.1l-.1.1s0 .1-.1 0c0 0 .1 0 .1-.1 0 .1 0 .1 0 0zm-2.7 0-.2-.2c.1 0 .1-.1.2-.1v.3zm-2.4-6.5c.1 0 .1 0 0 0l.1-.1v.1l-.1.1h-.1s.1 0 .1-.1c0 .1 0 0 0 0zm-6.1-3.9c0-.1-.1-.1 0 0l-.1-.1h.1l.1.1v.1s0-.1-.1-.1zm12.4 11.3c0-.1.1-.1 0 0l.1-.1v.1h-.1c0 .1 0 .2-.1.1l.1-.1zm-5.1 4.7c0 .1.1.1 0 0-.2.2-.4.4-.6.7.2-.2.4-.4.6-.7zm0-2.3c-.1 0-.1 0 0 0l-.1.1v-.1l.2-.2h.1c-.1.1-.2.1-.2.2 0-.1 0-.1 0 0zm2.5-3.2s-.1 0 0 0c0-.1 0-.1 0 0 .1 0 .1 0 .2.1v.1h-.1c0-.1-.1-.1-.1-.2zm-6.8-9.6s-.1 0 0 0c0-.2.1-.1.1-.1s.1.1 0 .1c-.1.1-.1 0-.1 0zm5.1 10v.1c-.1 0-.1.1-.1.1s0 .1 0 0v-.1l.1-.1zm-8.4 2.2c-.3-.2-.5-.5-.7-.7.3.2.5.4.7.7zm-3.3-3.4v.1s-.1 0 0-.1c-.1.1 0 0 0 0-.2.1-.1-.1-.2-.1h.1l.1.1c-.1 0-.1 0 0 0-.1-.1 0 0 0 0zm11.3 5.1c-.1-.1-.2.1-.3.1l.2-.2c.1 0 .1.1.1.1zm-1.7 1.5.1.1c0 .1-.1.2-.1.1-.1-.1 0-.1 0-.2zm-6.8-5.2s-.1 0 0 0l-.1.1v-.1l.1-.1h.1s-.1 0-.1.1c0-.1 0 0 0 0zm8.8-5.8c.1 0 .3.3.4.4-.2-.1-.3-.3-.4-.4zm-7.5 7.8c0 .1 0 .1 0 0 .1.1.1.1 0 .1-.1-.1-.1-.2-.2-.2h.1c0 .1.1.1.1.1zm5.3-8.7-.2.2h-.1v-.1l.1-.1h.2zm-.5 9.6c0-.1.1-.1.1 0 0 0 .1 0 0 .1 0 0 0-.1-.1-.1zM11.8 8.1s0-.1.1 0 0 .1 0 .1l-.1-.1zm4.8 1.6v-.1.1c.2-.1.1 0 .2.1-.1 0-.1-.1-.2-.1zm2.7 12.6c.1 0 .1 0 0 0 0 .1 0 .1 0 0-.1.1-.1 0-.1 0v-.1l.1.1c0-.1 0-.1 0 0zm1.5 1.3c.1-.1.1-.1 0 0l.1-.1s.1 0 0 .1l-.1.1h-.1l.1-.1zm-6.7-12 .3.3-.2-.2c-.1 0-.1 0-.1-.1zm11.3 5.3.8.8c-.3-.2-.6-.5-.8-.8zm1.2 5.8c-.1.1-.1.1-.2.1v-.1c.1 0 .1-.1.1-.2 0 0 0-.1 0 0 .2.1.2.1.1.2.1-.1 0 0 0 0zm-14.6-2c.3.3.6.5.8.8-.1-.1-.8-.7-.8-.8zm7.4-8.4s0-.1 0 0l.1-.1h.2v.1h-.1c-.1.1-.2 0-.2 0zm-1.1-.5c-.2-.1-.3-.3-.5-.4.2.1.4.2.5.4zm6.3 4.5c0 .1-.1.1-.1.1s-.1 0-.1-.1.1-.1.1-.1c0 .1 0 .1.1.1zm-2.9.9s-.1.1-.1 0c-.1 0 0-.1.1 0-.1-.1 0-.1 0 0 .1 0 0 0 0 0zm-3 8.4c0-.1-.1-.1-.2 0 0-.1.1-.1.1-.2h.1c.1.1.1.1 0 .2zm-.1.9s.1 0 0 0l.1-.1v.1l-.1.1v-.1c-.1.1 0 .1 0 0zM12 18.9c-.1 0-.1-.1-.2-.1l-.1-.1v-.1c.2.1.3.2.3.3zm4.9-9.5.4.4-.4-.4zm.9 2.1s0 .1 0 0l-.3.3.3-.3zm5.7 7.1s-.1 0 0 0c0-.1 0-.1 0 0 .1 0 .1 0 .2.1-.1 0-.2-.1-.2-.1zm-15.8-4c0-.1 0-.1 0 0 0-.2.1-.2 0 0 .1-.1.2 0 .1 0h-.1zm6.8-2.8-.3-.3c.2.1.2.2.3.3zm8.9 4v-.2.2c0 .1 0 0 0 0zM19 16h.3c-.2.1-.2.1-.3 0zm-.7-.4v-.1h.1v.1h-.1zm1.6 8.8s.1 0 0 0h.2v.1c-.1 0-.2 0-.2-.1zm-2.9-.9-.3-.6c.1 0 .3.5.3.6zm2.3 2.5c-.1-.1-.1-.1 0 0v-.1h.1l-.1.1c.1-.1.1-.1 0 0zm-.9-15.4s-.1.1-.1 0h.1c-.1-.1 0-.2 0 0 .1 0 0 0 0 0zm2.9 12.3.1.1s.1 0 0 .1h-.1v-.2zm-3.1-1.6c.1-.1.1-.1 0 0 .1 0 .2 0 .1.1 0 0 0-.1-.1-.1zm2.9-2.9s0-.1 0 0c.1 0 .1.1.1.1-.1 0-.1 0-.1-.1-.1 0 0 0 0 0zm-2.3 6s-.1.1-.1 0c-.1 0 0-.1.1 0-.1-.1 0-.2 0 0 0-.1 0 0 0 0zm2.4-2.4.2-.1c-.1.1-.1.2-.2.1 0 .1-.1.1 0 0zm4.7 1.4-.1.1s.1-.1.1-.2h.1c0-.1 0 0-.1.1.1-.1.1-.1 0 0zm-5.6-10.7c.1 0 .1 0 0 0 .1 0 .2.1.2.2 0-.1-.1-.1-.2-.2.1.1.1.1 0 0 .1 0 .1 0 0 0zm-5.8-1.2.1.1-.3-.3c.1.2.1.2.2.2zm11.8 11.3c0 .1-.1.2-.1.2h-.1l.2-.2zm-.5-4.5s0 .1 0 0c-.1 0-.1-.1 0 0v-.1c.1 0 0 .1 0 .1zm-4.5 3.8s.2-.1.3-.1c-.2.1-.2.1-.3.1 0 .1 0 .1 0 0-.1 0-.1 0 0 0zm-1.5.7c.1 0 .1 0 0 0 .1 0 .1 0 0 0l.1.1s-.1 0-.1-.1c-.1.1-.1 0-.1 0 0-.1.1-.1.1 0 0-.1 0 0 0 0zm-.9-6.8c.1 0 .1.1.1.1v.1c0 .1-.1.1-.1 0V16zm-5-4.2.3.3c-.1-.1-.2-.1-.3-.3zm2.4 10.6c.1 0 .1-.1.2 0s0 .1-.1.2c0-.2 0-.2-.1-.2zm7.3-6.6h-.1v-.1c0-.1 0 0 .1.1 0-.1 0-.1 0 0zm-4.2 4.4s0 .1 0 0c-.1 0-.1 0 0 0v-.1c.1.1.1.1 0 .1zm-4.1-9.8.3.3v.1s0-.1-.1-.1c-.1-.1-.2-.2-.2-.3zm-3.8-.5v.2h-.1c0-.1 0-.2.1-.2zm5.5 8.8c0 .2 0 .3-.1.3 0-.1 0-.2.1-.3zm6-.6.1.1-.1-.1h-.1c0-.1.1-.1.1 0zm-8.2-9s-.1.1-.1 0 0-.1.1 0V9c.1 0 .1 0 0 .1zm3.7 12.5c0-.1-.1-.1 0 0 0-.1 0-.1 0 0 .1-.1.1-.1 0 0 .1 0 .1 0 0 0 .1 0 .1 0 0 0zm.6-7.2c.1 0 .1 0 0 0 .1 0 .1.1.1.1h-.1c-.1 0 0 0 0-.1zm-4.3 7.5c-.1 0-.1 0 0 0-.1-.1-.1-.1 0 0v-.1.1c.1-.1.1.1.2.1-.2 0-.2-.1-.2-.1zM11.2 9.4l.3-.3-.3.3zm.5 8.3c.1-.1.2-.3.3-.4 0 .1-.1.2-.3.4zm-4-4.9.3-.3c-.1.1-.1.2-.3.3zm10 6.3c-.1.1-.1.2-.2.2h-.1s.1 0 0 0v-.1c.2 0 .2 0 .3-.1-.1 0-.1 0 0 0-.1 0 0 0 0 0zm-4.4-1.9.3.3-.3-.3zm9 .1c0 .1 0 .1 0 0l.1.1c-.1.1-.1 0-.1-.1 0 .1-.1 0-.1 0v-.1c0 .1 0 .1.1.1zm-3.1 6.9c0 .1 0 .1 0 0l-.1.1c-.1 0 0-.1.1-.1-.1-.1-.1-.1 0 0zM18.8 12s-.1.1 0 0c-.1 0-.2-.1-.2-.1v-.1h.1c-.1.1 0 .2.1.2zM7.1 14.5c0 .1-.1.2-.1.2s.1-.1.1-.2c0 .1 0 0 0 0zm1.7.7c0 .1-.2.3-.3.3l.3-.3zM23 20.4c-.1-.1 0-.1 0-.2 0 0 0-.1 0 0v.1c.1 0 .1 0 0 .1zm4 1.8s0-.1 0 0c.1 0 .1 0 0 0 0 .1-.1.2-.1.2 0-.1.1-.1.1-.2zm-10.3 2.1-.1-.1c0-.1.1-.1.1 0 .1.1.1.1 0 .1zm2.4-2.3c0 .1 0 .1 0 0-.1.2-.1.1 0 0H19c0-.1 0 0 .1 0zm-6.4-3.5s0-.1 0 0l.1-.1c0 .1-.1.1-.1.1-.1.1-.1.1 0 0zm.2-.5c.1 0 .2 0 .2.1s0 .1-.1.1c.1-.1 0-.2-.1-.2zm6.3 6.4c-.1 0-.1 0 0 0-.1 0-.1 0 0 0-.1 0-.1-.1 0 0 0-.1 0 0 0 0h.2v.1c-.1 0-.2 0-.2-.1zM10 17.8c-.1 0-.1 0 0 0 0-.1 0-.1 0 0 .1 0 .1 0 0 0 .1.1.1.1 0 0 0 .1 0 .1 0 0zm7.8 1.2v-.4.4zm8.8 3.5c0 .1-.1.2-.2.2l.2-.2zM12 8.5l-.3.3c0-.1.2-.2.3-.3zm7.7 17.1c0-.1 0-.2-.1-.2h.1v.2c0-.1 0-.1 0 0 0-.1 0 0 0 0zm8.1 1.2.1-.1c0 .1-.1.1-.2.2l.1-.1zM10 15.3c.1 0 .1.1 0 0v.1-.1h-.1.1zm7.8 3.1c0 .1 0 .1 0 0 0 .1 0 .1 0 0v.1c-.1 0-.1-.1-.1-.1h.1c-.1 0-.1 0 0 0-.1 0-.1 0 0 0zm6.1 7c0-.1.1-.1.1-.2 0 0 0-.1 0 0v.1s0 .1-.1.1zm-1.4-7.8s-.1-.1 0-.1v.1h.1c-.1.1-.1 0-.1 0zm-4.4 3.6s0-.1 0 0c.1 0 .1 0 0 0 0 .1 0 .1 0 0-.1 0 0 0 0 0zm.7 3c.1 0 .1-.1 0 0 .2 0 .1 0 0 0 .1.1 0 .1 0 0zm6.5-3.4s.1 0 0 0v.2h-.1c0-.1 0-.1.1-.2 0 .1 0 0 0 0zm-11.1-9.2c.1 0 .3.2.3.3l-.3-.3zm.4.1-.3-.3.3.3zm10.8 9.4c-.1-.1-.1-.1 0-.2h.1c0 .1 0 .1-.1.2 0-.1 0-.1 0 0zm-2.7-5c0 .1.1.1 0 .2h-.1c0-.2.1-.2.1-.2zm-4.5-4.7s.1 0 0 0c.1.1.1.1 0 0 0 .2 0 .2 0 0-.1.1 0 .1 0 0zm5.5 3.1.3.3c-.1 0-.2-.1-.3-.3zm1 5.9c.1-.1.1-.1 0 0 .2 0 .1 0 0 0 .1 0 .1.1 0 0zM14.7 9s0 .1 0 0c-.1 0-.1-.1 0 0v-.1c.1 0 0 .1 0 .1zm7.3 9c-.1-.2-.1-.2.1-.3 0 0-.1.1 0 .1-.1.1-.1.2-.1.2zm-4.3 3.7c.1.1.1.1.2.1 0 0 0 .1-.1.1-.1-.1-.1-.1-.1 0v-.2zm2.7.9c-.1.1-.1.2-.2.2.1-.1 0-.3.2-.2zm-2.6-2.8v-.1h.1c0 .1-.1.1-.1.1zm1.1 3s.1.1 0 .1v-.1c-.1.1-.1 0 0 0-.1 0 0 0 0 0zm4.1 3.6s-.1 0 0 0c-.1 0-.1.1 0 0-.1 0-.1 0 0 0-.1 0-.1-.1 0 0v-.1c.1 0 0 0 0 .1 0-.1 0 0 0 0zm1.5-7.9v-.1h.1l-.1.1zm-1.8-.7c.1 0 .1 0 0 0 .1 0 .1.1 0 0 .1.1.1.1 0 0 0 .1 0 0 0 0s-.1 0 0 0c0-.1 0-.1 0 0zm-4.9 1.8v-.1h.1s-.1 0-.1.1zm6.1.2c-.1.1-.1.2-.2.2.1 0 .1-.1.2-.2zm-5.4-9.2c0-.1.1-.1.1-.2 0 .1 0 .1-.1.2.1 0 .1 0 0 0zm-1.3 2.6c.1 0 .2.2.3.3l-.3-.3zm5.3 6.4-.1.1c-.1 0 0-.1.1-.1v-.1c.1.1 0 .1 0 .1zM8.8 13.2s.1 0 0 0c.1 0 .1.1.1.1h-.1v-.1zm3.9-3.8v.1h-.1s0-.1.1-.1zm6.6 10.9h.1s0 .1-.1 0c.1.1 0 .1 0 0zM12.5 8.9s.1 0 0 0c.1 0 .1.1 0 0V9v-.1zm5.7 4.6s.1-.1 0 0v-.1h.1v.1h-.1zm3.9 3.4c0 .1-.1.1-.1.2 0-.1.1-.2.1-.2zm4.1 6.2c0-.1.1-.1.1-.2 0 .1 0 .2-.1.2zM17.8 20v-.1s.1 0 .1.1c0 0-.1-.1-.1 0zm5.5-4.4c0 .1 0 .1 0 0v.1h-.1l.1-.1c0 .1 0 .1 0 0zm-13.6-.4c.1 0 .1-.1 0 0 .2 0 .1.1 0 0 .1.1 0 .1 0 0 0 .1 0 0 0 0zm15.1 1.5s0 .1-.1.1v-.1c.1-.1.1 0 .1 0zm-6.4-5.1c-.1 0-.1 0 0 0 0-.1 0 0 0 0s.1 0 0 0c0 .1 0 0 0 0zm4.9 8.8c.1-.1.1-.2.2-.2 0 .1-.1.2-.2.2zm-10.5-2.7c0 .1 0 0 0 0s0-.1 0 0c.1-.1.1 0 0 0h.1c0 .1 0 0-.1 0 .1 0 0 0 0 0zm11.4 7.4.2-.2-.2.2zM11 10.9l.2.2c0-.1-.1-.1-.2-.2zm8.4 3.6c-.1 0-.1 0 0 0 0-.1 0-.1 0 0 0 0 .1 0 0 0 0 .1 0 .1 0 0zm-6.8-6.6-.2.2.2-.2zm9.5 18.9c0-.1.1-.1.2-.1 0 .1-.1.1-.2.1zm-5.3-4.4c0-.1 0-.1 0 0 .1-.2.2-.2.2-.3 0 .1-.1.2-.2.3zm-.1.7s.1-.1.1 0v.1c-.1 0-.1-.1-.1-.1zm-6.1-4.7c0-.1 0-.1 0 0 .1 0 .1.1.1.1-.1 0-.1 0-.1-.1-.1 0 0 0 0 0zm6.4 2.1c.1 0 .1 0 0 0 .1 0 .1.1.1.1 0 .1-.1 0-.1 0v-.1zm4.3-2.2c.1 0 .1.1 0 0 0 .1 0 .1 0 0-.1 0-.1 0 0 0zM17 24.6c0-.1-.1-.1 0-.1h.1l-.1.1zM15.5 9.8c-.1 0-.1 0 0 0 0-.1 0-.1 0 0 0 0 .1 0 0 0 0 .1 0 .1 0 0zm5.3 3.3c.1 0 0 0 0 0v.1-.1h-.1c0-.1 0-.1.1 0 0-.1 0-.1 0 0zm2.8 12.6.1-.1v.1h-.1zM10.3 18c0-.1.1-.1.1-.2.1.1-.1.2-.1.2zm4 3.5s0-.1 0 0c-.1-.1-.1-.2-.2-.2h.1c0 .1.1 0 .1.2.1-.1.1-.1 0 0zm1.7-8c.1 0 .1.1.2.2-.1 0-.1-.1-.2-.2zm3.2 6.9c.1 0 .1.1.2.2-.2-.1-.2-.2-.2-.2zm-9.9-7.1c.1 0 .1.1.1.1h-.1v-.1zm12.5.9s0-.1 0 0c0-.1.1-.1 0 0 .1-.1.1 0 0 0 .1 0 0 0 0 0zm-4.8 6v-.1h.1c0 .1-.1.1-.1.1zm-.5-11.6c0-.1.1-.1 0 0 .1 0 .1 0 0 0 .1.1 0 0 0 0zM20 20.1h-.1c-.1-.2 0-.2.1 0-.1-.1-.1-.1 0 0zm-9.7-1.9c.1-.1.1 0 .1 0h-.1c.1.1.1 0 0 0 .1 0 .1 0 0 0zm6.7 2.2v-.1h.1c.1.1 0 .1-.1.1zm4.4-2s.1 0 0 0c.1 0 .1 0 0 0 0 .1 0 .1 0 0-.1 0 0 0 0 0zm-8.5-10c-.1.1-.2.1-.3.2 0-.1.1-.1.3-.2zm2.5 3.6c-.1 0-.1-.1-.2-.2 0 .1.1.1.2.2zm7.7 8.5v-.3.3zM13.5 9.3v-.1h.1l-.1.1zm9.9 6.9c-.1-.1-.2-.1-.2-.2l.2.2zM6.9 14.9c0-.1-.1-.1-.1-.1s0-.1.1 0c.1 0 0 0 0 .1zm17.9 5.5c.1 0 .1 0 0 0 .1 0 .1 0 0 0 .1.1.1.1 0 0 0 .1 0 .1 0 0 0 .1 0 .1 0 0zm-7.9 3.5c0-.1.1-.2.2-.2-.1.1-.2.1-.2.2zM14.1 8.3c-.1.1-.1.1 0 0-.1 0-.1 0 0 0-.1 0-.1 0 0 0zm3.4 11.6c0-.1 0-.1 0 0l.1-.1c0 .1 0 .1-.1.1zM13.1 9.5c.1 0 .1 0 0 0 .1.1.1.1 0 0 .1.1.1.2 0 0 0 .1 0 .1 0 0zm13.8 12.6c0 .1 0 .1-.1.1 0 .1 0 .1.1-.1 0 .1 0 .1 0 0zM17 19.9s.1 0 0 0c.1 0 .1.1 0 0 .1.1 0 .1 0 0 0 .1 0 0 0 0zm7.5 4.5c0 .1-.1.1-.1.2-.1-.1 0-.1.1-.2-.1.1-.1.1 0 0zm-9.7-2.7.3.3c-.2-.1-.3-.2-.3-.3zm1.5-12.6s-.1 0 0 0c0-.1 0-.1 0 0 .1 0 .1 0 0 0zm-2.6 6.7c.1 0 .1.1.2.2-.1-.1-.2-.1-.2-.2zm11.1 3c0 .1 0 .1 0 0v.2c-.1-.1-.1-.1 0-.2zm-12.5.2s.1 0 0 0c.1.1.1.1 0 0 0 .1 0 .1 0 0 0 .1 0 .1 0 0zm2.6-9.7c0-.1-.1-.1 0 0 0-.2 0-.1 0 0 .1-.1.1-.1 0 0zm-5.2 5.8c-.1 0-.1 0-.1-.1 0 0 .1 0 .1.1.1-.1 0 0 0 0zm5.4 7c-.1.1-.1.1 0 0-.1 0-.1 0 0 0-.1 0-.1 0 0 0zm2.6-9.3.2.2c-.1-.1-.1-.2-.2-.2zm1.7 12.8.1-.1v.1h-.1zM21.7 14s.1 0 0 0c.1 0 .1.1 0 0 .1.1 0 .1 0 0 0 .1 0 0 0 0zm2.4 2.5c0 .1-.1.1-.1.2 0-.1.1-.2.1-.2zm-6.3 8.9s-.1 0 0 0c-.1 0-.1 0 0 0-.1-.1 0-.1 0 0 0-.1 0 0 0 0zm-.5-5.9c.1 0 .1.1.2.2 0-.1-.1-.2-.2-.2zm4.7-5.1s0-.1 0 0h.1s.1.1-.1 0c.1.1.1 0 0 0 .1 0 0 0 0 0zm-5.9-5.5h.1V9s-.1 0-.1-.1c0 .1 0 .1 0 0zm6.4 7.7c0 .1-.1.1-.1.2 0-.2 0-.2.1-.2zm1.3 2.2c0 .1.1.1 0 0 0 .1 0 .1 0 0-.1.1-.1 0 0 0zm1.7 5 .1-.1v.1h-.1zm-1.2-.1-.2.2c.1-.1.2-.1.2-.2zm-.2-4c0-.1.1-.1.2-.2-.1 0-.1.1-.2.2zm-6.9-6.1-.2-.2.2.2zm7.1 11.2c0 .1 0 .1-.1.2 0-.1 0-.1.1-.2zM14.9 6.7c-.1 0-.1 0 0 0 0-.1 0 0 0 0 .1 0 .1 0 0 0 0 .1 0 .1 0 0zm-4.8 11.2c.1 0 .1 0 0 0l.1.1-.1-.1zm7.6 3.8c-.1-.1 0-.1 0-.1.1 0 0 0 0 .1zm-.6-8.4c.1.1.2.2.2.3 0-.1-.1-.2-.2-.3zM9.5 17s0-.1 0 0c.1 0 0 0 0 0 0 .1-.1.1 0 0-.1.1-.1 0 0 0zm12.4-2.8s.1 0 0 0c.1 0 .1.1 0 0 .1.1 0 .1 0 0 0 .1 0 .1 0 0zm.8 12.4c0 .1 0 .1-.1.2 0-.1.1-.2.1-.2zM7.9 12.7s-.1.1 0 0c0 .1 0 .1-.1.1l.1-.1c-.1 0-.1 0 0 0zm15.7 6.7s-.1 0 0 0c-.1 0-.1-.1 0 0-.1-.1 0-.1 0 0 0-.1 0-.1 0 0zm-11.6.4c.1 0 .2.1.2.2-.1-.1-.2-.1-.2-.2zm5.3-6.4c.1.1.2.1.2.2l-.2-.2zm3.3-.5s.1 0 0 0c.1.1.1.1 0 0 0 .1 0 .1 0 0 0 .1 0 .1 0 0zm-8.1 6.4h.1c0 .1 0 .1-.1 0zm7.6-6.8c0-.1.1-.1 0 0 .1 0 .1 0 .1.1l-.1-.1c.1 0 .1 0 0 0zM19 21s.1.1 0 0c.1.1 0 .1 0 .1s.1 0 0-.1zm5.5-2.3c0 .1 0 .1 0 0v.1c-.1 0 0-.1 0-.1zm-8.2-9.1s-.1 0 0 0c0-.1 0-.1 0 0 .1 0 0 0 0 0zm-2.6-1.7h.1-.1zm9.7 7.3c0 .1-.1 0 0 0l-.1-.1.1.1zm1.3 3.6c-.1 0-.1 0-.1.1 0-.2 0-.2.1-.1zM12.4 9v.3c-.1-.1-.1-.2 0-.3zm4 2c-.1 0-.2-.1-.2-.2 0 .1.1.1.2.2zm9.1 12.6c0 .1 0 .1-.1.1.1 0 .1 0 .1-.1zm-2.2 2.3c0 .1 0 .1-.1.2.1-.1.1-.2.1-.2zm-3.9-5.4s0-.1 0 0c0-.1 0-.1 0 0 .1-.1 0-.1 0 0zm.7 2.3-.1.1v-.1s.1.1.1 0zm7-1.1c0 .1 0 .1-.1.1 0 0 .1 0 .1-.1zm-6-2.7s-.1 0 0 0c0-.1 0-.1 0 0 0 0 .1 0 0 0zm4.6-2.4.2.2c-.1 0-.2-.1-.2-.2zm-7.9 2.7c0-.1 0-.1 0 0 .1 0 .1 0 0 0zm-2.1-8.1c.1 0 .1.1.1.1-.1 0-.1-.1-.1-.1zm-1.1-3.6-.2.2c.1 0 .1-.1.2-.2zm2 5.9c0-.1.1-.1.1-.1l-.1.1zm2 2 .1.1-.1-.1zm-.8 9.7h.1c0 .1-.1.1-.1 0zM23.1 15c0-.1 0-.1 0 0v-.1h.1l-.1.1c0-.1.1 0 0 0zm-.9-.6c0 .1 0 .1 0 0l.1.1c-.2 0-.1 0-.1-.1zm-13.9-2c.1 0 .1-.1.2-.2-.1.1-.2.1-.2.2zm7.9 1.7c-.1 0-.1-.1-.1-.2.1.1.1.1.1.2zm5.3 8.8s0-.1 0 0c.1 0 .1 0 0 0 0 0 0 .1 0 0zm1-8.1c.1 0 .1 0 0 0 0 .1 0 .1 0 0 0 0-.1 0 0 0zm-7.3-6.1c.1-.1.1-.2.2-.2l-.2.2zm5.9 4.6c-.1 0-.1.1 0 0H21h.1zm-6.5 8.5s0-.1 0 0c0-.1 0-.1 0 0 .1-.1.1 0 0 0 .1 0 0 0 0 0zm11.3-4.9.2.2c-.1-.1-.2-.1-.2-.2zm-3.5-2.2c.1 0 .1 0 0 0v.1c-.1-.1 0-.1 0-.1zm-5.2-1-.2-.2c.1 0 .1.1.2.2zm-3 2.6c.1 0 .1.1.1.1-.1 0-.1-.1-.1-.1zm8.4 2.3c0 .1 0 .1 0 0-.1 0-.1 0 0 0zm-5.8 5.1c0-.1 0-.1 0 0 .1 0 .1 0 0 0zm-.1-13c0 .1-.1.1-.2.2.1 0 .1-.1.2-.2zm2.8 10.8c.1 0 .1 0 .1.1 0-.1-.1 0-.1-.1zm4.1 4c0 .1 0 .1-.1.1l.1-.1c0 .1 0 .1 0 0zm-3.9-5c0-.1 0-.1 0 0 .1-.1.1-.1 0 0 .1-.1.1-.1 0 0zM8.6 16.3c.1 0 .1 0 0 0 .1.1.1.1 0 0 .1.1 0 .1 0 0 0 .1 0 .1 0 0zm6.3-6.8s.1.1 0 .1v-.1s-.1 0 0 0c-.1 0-.1 0 0 0-.1-.1 0 0 0 0zm.5.1c0-.1 0-.1 0 0-.1 0-.1 0 0 0zm0 1c-.1 0-.1-.1-.1-.1l.1.1zm2.1-.6c-.1 0-.1-.1-.1-.1s.1 0 .1.1zm-3.3 5.8c.1 0 .1.1.2.2-.1 0-.2-.1-.2-.2zm8.4 10.8c0 .1-.1.1-.1.1l.1-.1zm3.1-7.5s-.1 0 0 0c-.1 0-.1 0 0 0-.1-.1-.1 0 0 0zm-6 4.7c0 .1-.1.1-.2.2l.2-.2zm-.2-9.3c.1 0 .1 0 0 0 .1.1.1.1 0 0zm-2.2-.1c0 .1 0 .1 0 0 0 0-.1 0 0 0zm-1-.3.2.2c-.1 0-.1-.1-.2-.2zM12.8 20s0-.1 0 0c0-.1.1-.1 0 0 .1-.1.1 0 0 0 .1 0 0 0 0 0zM24 18.2s.1 0 0 0c0 .1 0 .1 0 0zM13.2 7.8c-.1 0-.1-.1-.1-.1 0 .1.1.1.1.1zm11.4 9.1s-.1 0 0 0c-.1 0-.1 0 0 0 0-.1 0 0 0 0z"/><path d="M9.3 13.2c.1 0 .2-.1.2-.2.1.1.1.2.2.1.1 0 .1-.1 0-.2 0-.1-.1-.1-.2 0 0-.1 0-.2-.1-.2h.2v-.1c0-.1-.1-.1-.1-.1-.1 0-.1.1-.1.2-.1 0-.1-.1-.2-.1v-.1c0-.1 0-.1-.1-.2H9c0 .1-.1.1 0 .2s0 .1 0 .1v.1h-.1c0-.1-.1-.1-.2 0-.1 0-.1.1 0 .2 0 .1.1.1.2.1H9c-.1.2.1.2.3.2zm-.3-.1c-.1-.1-.1-.3 0-.4.1-.1.3-.1.5 0 .1.1.1.3 0 .4-.2.1-.4.1-.5 0zm0-.7c.1 0 .1-.1 0 0 .1 0 .1.1.1.1H9v-.1zm.5.1c.1 0 .1 0 0 0 .1 0 .1.1.1.1h-.1v-.1zm-.8.3v-.1h.1s0 .1-.1.1c.1.1 0 .1 0 0zm.9.2c.1 0 .1-.1 0 0 .1 0 .1.1.1.1l-.1-.1c0 .1 0 0 0 0zM20.7 16s0 .1 0 0c.1 0 0 0 0 0s0-.1 0 0c-.1-.1 0 0 0 0zM15.9 13.7c.1 0 .1.1.1.2 0-.2 0-.2-.1-.2zM13.7 10.6s.1 0 0 0c.1-.1.1-.2 0-.2h-.1l-.1.1c-.1 0 0 .1 0 .1.1.1.1.1.2 0zm-.1-.1s0-.1 0 0l.1-.1v.1h-.1c0 .1 0 .1 0 0-.1 0 0 0 0 0zM10.7 13.4c-.1 0-.1 0 0 0-.1.1-.1.1 0 .2h.1l.1-.1v-.1c-.1-.1-.1-.1-.2 0zm.1.1c-.1 0-.1 0 0 0l-.1.1v-.1c0-.1 0-.1.1 0v-.1c.1 0 0 0 0 .1zM19.5 19.1s.1 0 0 0c0-.1 0-.1 0 0-.1 0-.1 0 0 0zM21.3 17.1c0 .1 0 .1 0 0 .1.1.1.1 0 0 .1.1.1.1 0 0 .1 0 0 0 0 0zM20.9 17.6c-.1 0-.1.1 0 0 0 .1 0 .1 0 0 0 .1.1 0 0 0zM19.9 18.6c.1 0 .1 0 0 0 .1 0 .1 0 0 0 .1-.1.1-.1 0 0zM20.4 18.1c0 .1 0 .1 0 0 .1 0 .1 0 0 0 0 0 0-.1 0 0zM13.4 18.2c0-.1 0 0 0 0-.1 0-.1 0 0 0 0 .1 0 .1 0 0zM13.8 17.7c.1.1.1.1 0 0 .1 0 .1 0 0 0 .1 0 .1 0 0 0zM13.3 19.1c0 .1.1.1 0 0 .1 0 .1 0 0 0 .1 0 .1 0 0 0zM16 21.8c0-.1 0-.1 0 0 0-.1 0-.1 0 0-.1-.1 0-.1 0 0zM16.1 19.2c.4-.4.4-1.1-.1-1.5-.3-.2-.6-.2-1-.1-.1 0-.1.1-.2 0v.1c0 .1 0 .1-.1.1s-.1 0-.1.1c0 0 0 .1-.1.1 0 0-.1 0-.1.1v.1c-.2.5-.1 1 .3 1.3.5.1 1 .1 1.4-.3zm0-.6c-.1 0-.2 0-.3-.1h-.2l-.1.1c-.1.1-.1.1 0 .2 0 .2 0 .3.1.4 0 .1 0 .1-.1.1h-.4c-.7-.2-.9-1-.5-1.5l.2-.2-.3.3s-.1.1 0 .1c0 0 .1.1.1 0h.1c.1 0 .1 0 .1.1s.1.1.1.1V18h.1s0-.1-.1-.1h-.1c-.1 0-.1 0-.1-.1s.1-.2 0-.2c.2-.1.3-.1.5-.1.5 0 .9.5.8 1 .3.2.3.2.1.1.1 0 .2-.1.2-.1 0-.1-.1-.1-.1 0-.2 0-.1.1-.1.1zm-.1.6c-.1.1-.2.2-.4.2h-.1c0-.1-.1-.2-.1-.4h.1l.2-.2c.1 0 .1-.1 0-.1v-.1h.1c.1 0 .2.1.3.1.1 0 .1 0 0 .1.1.1.1.3-.1.4zm-1.2-1.3.1-.1s.1 0 .1.1c0 0 0 .1-.1.1s-.1 0-.1.1v.1h-.1c0-.1-.1-.2.1-.3-.1 0 0 0 0 0zm.8 1 .2-.2-.2.2zM16.7 18.6v-.4c-.1-.3-.3-.6-.6-.8 0 .1.1.1.1.1.3.3.5.6.5 1.1 0-.1 0 0 0 0z"/><path d="M16.7 18.6c0 .2-.1.3-.1.5 0 0-.1.1 0 .1 0-.2.1-.3.1-.6zM16.6 19.2c-.1.1-.2.2-.2.3-.1.1-.1.1-.2.1.1-.1.3-.2.4-.4zM14.8 17.3c.1 0 .2-.1.3-.1-.1 0-.2.1-.3.1zM15.5 17.2h.2-.2zM14.5 17.5c.1 0 .1-.1.2-.1-.1 0-.2.1-.2.1zM19.1 26.7c0 .1 0 .1 0 0 0 .1.1.1.1.1l-.1-.1c.1 0 0 0 0 0zM22.4 16.1c0 .1 0 .1 0 0 0 .1.1.1 0 0 .1.1.1.1 0 0 .1 0 0 0 0 0zM20.2 14c0-.1 0-.1 0 0 0-.1 0-.1 0 0-.1-.1 0-.1 0 0zM20.7 14.3c-.1 0-.1 0 0 0-.1.1-.1.1 0 0-.1.1-.1.1 0 0 0 .1 0 .1 0 0zM18.7 12.9c-.1 0-.1-.1 0 0-.1 0-.1 0 0 0-.1.1-.1.1 0 0zM21.5 15.2c0 .1 0 .1 0 0 .1.1.1 0 0 0zM21.9 15.7c.1 0 .1 0 0 0 .1 0 .1 0 0 0 .1-.1.1-.1 0 0zM21.1 14.8c-.1 0-.1 0 0 0 0-.1 0-.1 0 0zM22 16.6c0-.1 0-.1 0 0zM22.4 24.6l.5-.5c.1-.1.1-.2.1-.4v-.2c0-.1-.1-.1-.2-.2h-.2l-.1-.1s-.1-.1 0-.1V23c-.1-.1-.1-.2-.2-.2h-.2c-.1 0-.2 0-.2.1l-.9.9-.3.3c-.1.1-.1.2 0 .3v.2l.2.2h.1c.1-.1.1 0 .1 0l.1.1s.1.1 0 .1c0 .1.2.3.3.3h.1c.1 0 .2 0 .2-.1l.6-.6zm-.6-.6c.2.1.3.3.5.5 0 0 .1.1 0 .1l-.5.5s-.1.1-.2.1c0 0-.1 0-.1-.1V25l-.2-.2s-.1-.1-.1 0h-.1l-.2-.2v-.2c-.1 0-.1-.1-.1-.1s0-.1-.1-.1-.1-.1-.1-.1c0-.1 0-.1.1-.2.3-.3.6-.6.9-1l.2-.2s.1-.1.2 0c.1 0 0 .1 0 .1l.2.2h.1c0-.1.1 0 .1 0l.1.1s.1.1 0 .1l.2.2h.1c0 .1 0 .2-.1.3l-.4.4c-.1.1-.1.1-.2 0l-.9-.9s0-.1-.1 0v.1l.7.7zm-1 .5c.1 0 .1-.1 0 0 .1 0 .2 0 .1.1 0 0 0 .1-.1-.1zm.6.5s0-.1 0 0c.2 0 .1.1.1.1-.1.1-.1 0-.1-.1-.1.1 0 0 0 0zm1-1.9c-.1 0-.1.1 0 0-.2-.1-.1-.1 0 0-.1-.1 0-.2 0 0 .1-.1 0-.1 0 0zm.5.6c-.1-.1-.1-.1 0 0v-.2.2zm-.6-.7s-.1 0 0 0c-.1.1-.1 0-.1 0l.1-.1v.1c0-.1 0-.1 0 0zm.4.5c.1 0 .1-.2 0 0 .2 0 .1 0 0 0 .1 0 .1.1 0 0zM21.3 25s0 .1 0 0c0 0-.1 0 0 0 0-.1 0-.1 0 0 .1-.1.1 0 0 0zm-.5-.6v.1c-.1 0-.1 0 0-.1zM22.7 23.1h.1v-.2h-.1v.2zM20.7 24.7s0 .1 0 0c0 .1 0 .1 0 0 .1.1.1 0 0 0zM22.5 22.8c0 .1 0 .1 0 0 0 .1.1.1 0 0 .1.1.1.1 0 0 .1 0 0 0 0 0zM21.2 25.2c0 .1 0 .1 0 0 0 .1.1.1 0 0 .1.1.1.1 0 0 .1 0 0 0 0 0z"/><path d="M21 25.1c.1.1.1.1 0 0 .1 0 .1 0 0 0 .1-.1.1-.1 0 0zM23.1 23.4s0 .1 0 0c.1 0 .1 0 0 0 0-.1 0-.1 0 0zM20.5 24.6s.1 0 0 0c.1 0 .1 0 0 0 .1-.1 0-.1 0 0zM22.9 23.2c0 .1.1.1 0 0 .1 0 .1 0 0 0 .1 0 0 0 0 0zM22.4 22.6c0 .1 0 .1 0 0 0 .1 0 .1 0 0 0 .1.1.1 0 0zM17.2 16.2c-.2-.2-.5-.2-.8 0-.2.2-.2.5 0 .8.2.2.6.2.7 0 .3-.3.3-.6.1-.8zm-.2-.1c.1.1.2.1.3.3h-.1v.1h.1c0 .2 0 .3-.1.4 0 0 0 .1-.1 0H17v.2c0-.1-.1-.1-.2-.1 0 0-.1 0-.1-.1 0 0 0-.1-.1 0s-.1 0-.1 0c-.1 0-.1-.1-.2-.2.1 0 0-.1 0-.1h-.1c-.1-.2.1-.5.3-.6h.2c.2.1.2.1.3.1 0 .1 0 0 0 0zM16.3 15.2s.1 0 0 0c.1 0 .1 0 0 0 .1-.1 0-.1 0 0zM15.4 16c0 .1 0 .1 0 0 .1.1.1.1 0 0 .1.1.1.1 0 0 .1 0 0 0 0 0zM15.9 15.6c-.1 0-.1 0 0 0 0 .1 0 .1 0 0zM25 20.1c-.1 0-.1 0 0 0-.1 0-.1.1 0 0-.1.1-.1.1 0 0zM25.4 20.7s.1 0 0 0c.1 0 .1 0 0 0 .1-.1 0-.1 0 0zM25 20.4c.1 0 .1 0 0 0 .1-.1.1-.1 0 0 .1-.1.1-.1 0 0 0-.1 0 0 0 0zM25.6 20.8s0 .1 0 0c0 .1 0 .1 0 0 .1.1.1 0 0 0zM21.9 26h-.1v.2h.1l.1-.1c0-.1 0-.1-.1-.1zM22.9 24.8c-.1.1-.1.1 0 .2h.2v-.2h-.2zM25.3 22.7s.1-.1 0-.1c-.1-.1-.1-.1-.2 0v.2l.2-.1zM26.3 21.4s-.1.1 0 .1c0 0 .1.1.2 0v-.2c-.1 0-.1.1-.2.1zM18.8 13.5s0 .1 0 0c0 .1-.1.2-.1.2v.1h.1l.2-.2c.1 0 0-.1 0-.1h-.2zM17.4 14.9c.1 0 .1 0 0 0 .1-.1.1-.1 0 0 .1-.1.1-.1 0 0 0-.1 0-.1 0 0zM17.6 14.9c-.1.1-.1.1 0 0 0 .1 0 .1 0 0 0 .1 0 .1 0 0zM8.5 11.4l1.3-1.3-.2.2-.3.3-.3.3-.5.5c.1 0 0 0 0 0zM10.4 9.6l-.4.4c.1-.2.2-.3.4-.4zM7.5 12.4l.2-.2c0 .1-.1.1-.2.2zM13 19.1l-.1-.1h-.1v.1c.1.1.1.2.2.3 0 0 .1.1.1 0 .1 0 0-.1 0-.1 0-.1 0-.1-.1-.2zM24.3 20.6c0 .1-.1 0-.1 0-.1 0-.1 0-.1.1s.1.1.1.2c.1 0 .1.1.2.1h.1v-.1c0-.1-.1-.1-.1-.2-.1.1 0 0-.1-.1.1.1.1 0 0 0zm.1.3c-.1 0-.1-.1-.2-.1 0 0-.1-.1 0-.1h.1c0 .1.1.2.1.2zM25.1 21.7c.1-.1 0-.2 0-.2-.1-.1-.2-.1-.2-.2h-.1v.1c0 .1.1.2.1.2.1.1.1.1.2.1zm-.1-.1s0-.1-.1-.1h.1c.1 0 .1.1.2.1v.1l-.2-.1zM24.5 20.5c0 .1 0 .1 0 0 .1 0 .1 0 0 0 .1 0 0 0 0 0zM25.1 21c-.1.1-.1.1 0 0 0 .1 0 .1 0 0 0 .1 0 .1 0 0zM24.7 20.7c-.1 0-.1 0 0 0 0 .1 0 .1 0 0 .1 0 .1 0 0 0zM25.2 21.2s0 .1 0 0c0 .1 0 .1 0 0 .1 0 .1 0 0 0zM28 27s0 .1 0 0c.1.1.2 0 .2 0s-.1-.2-.2-.1c0 0-.1 0 0 .1-.1 0-.1 0 0 0zM13 8.8c0-.1 0-.1 0 0 .1-.1.1-.2.1-.2 0-.1-.1-.1-.1-.1-.1 0-.1.1-.1.1-.1.1-.1.1.1.2-.1 0-.1-.1 0 0zm-.1-.1v-.1h.1c-.1 0-.1 0-.1.1zM13.3 8.7s.1-.1.1 0v.2c.1 0 .1 0 .2-.1 0-.1 0-.1-.1-.1-.1-.1-.2-.1-.2 0zM13.4 9.4c0 .1.1.1.1.1v-.1c0-.1-.1 0-.1 0zM12.9 9.5c0 .1 0 .1 0 0 0 .1.1.1.1.1l-.1-.1c.1 0 0 0 0 0zM12.7 8.8c.1-.1.1-.1 0 0 0-.2 0-.2 0 0-.1-.1-.1-.1 0 0zM13.5 8.9s0 .1 0 0c.1.1.1.1 0 0 .2.1.2 0 0 0 .1 0 .1 0 0 0zM13.2 8.5c0 .1 0 .1 0 0 0 .2 0 .2 0 0 .1.1.1.1 0 0zM12.5 9.2c.1.1.1.1 0 0 .1 0 .2 0 0 0 .1-.1.1 0 0 0zM8.8 12.5c.1.1.1.1 0 0 .2.1.2 0 0 0 .1 0 .1 0 0 0zM9.5 12.4s-.1-.1-.1 0v.1l.1-.1zM9.6 13.2c-.1 0-.1.1 0 0 0 .1 0 .1 0 0 .1.1.1 0 0 0zM9.8 12.7s-.1 0 0 0c-.1 0-.1.1 0 0-.1.1 0 .1 0 0 0 .1 0 0 0 0zM9.1 13.5c.1 0 .1-.1.1-.1-.1-.1-.1-.1-.1.1-.1-.1 0-.1 0 0zM8.7 13c0 .1.1.1 0 0 .1 0 .1 0 0 0 .1 0 0 0 0 0zM13.2 15.6c-.1-.1-.1-.2-.2-.2 0 .1.1.1.2.2zM13.8 16.1c0-.1-.1-.1-.1-.2 0 .1.1.2.1.2zM11.7 15.6l-.2-.2c.1.1.1.2.2.2zM16.5 12.4l.2.2-.2-.2zM16.4 12.2c.1 0 .1 0 0 0 .1.1.1.1 0 0 .1 0 .1 0 0 0zM12.1 15.2c-.1-.1-.1-.2-.3-.2.1.1.2.2.3.2zM13.1 16.4l.2.2c0-.1-.1-.1-.2-.2zM12.6 15.8l-.2-.2c0 .1.1.2.2.2zM12.2 16.8l-.3-.3.3.3zM12.5 17.1c-.1-.1-.1-.2-.2-.2.1.1.2.1.2.2zM13.7 15.5l-.1-.1-.1-.1s0-.1-.1 0l-.1-.1c.1.1.2.2.4.3zM12.6 14.5c.1 0 .1.1.1.1 0-.1 0-.2-.1-.1zM16.6 11.9c.1.1.2.1.2.3.1-.1-.1-.3-.2-.3zM16.2 11.6l-.2-.2c.1.1.1.2.2.2zM15.7 13.5s0-.1-.1-.2h-.1v.1l.2.1zM15.2 13c-.1-.1-.1-.2-.2-.2l.2.2zM15 12.7l-.2-.2c.1 0 .2.1.2.2zM17.1 11.9l-.2-.2c.1.1.1.2.2.2 0-.1-.2-.3-.2-.3-.2 0-.2-.2-.4-.3.2.3.4.5.6.6-.1 0-.1 0 0 0zM17 12l-.2-.2.2.2z"/><path d="m16.7 11.4-.1-.1c0 .1 0 .1.1.1zM12.5 16l.3.3-.3-.3zM13.1 17.2l.2-.2-.2.2zM15.1 12.5l.5.5c-.1-.2-.3-.4-.5-.5zM14.8 12.1l.3.3c0-.1-.2-.2-.3-.3zM15.6 11l.3-.3-.3.3zM15.1 11.5l.2-.2-.2.2zM15.4 12.2c-.1-.1-.2-.2-.3-.4.1.2.2.3.3.4z"/><path d="M15.2 12c.1.1.2.2.4.3-.1 0-.2-.1-.4-.3.1 0 .1 0 0 0zM11.4 15.1l.3-.3-.3.3c-.1 0 0 0 0 0z"/><path d="m11.6 14.9-.4.4c.2-.1.3-.3.4-.4zM17.2 13l.4-.4-.4.4zM17.5 12.6l-.3.3.3-.3zM11.3 16.1l.2.2c-.1 0-.2-.1-.2-.2zM21.5 17c0 .1 0 .1 0 0 .1 0 .1 0 0 0zM13.1 9.2v-.1H13v.1h.1zM14.8 16.7c0 .1.1.1 0 0 .1 0 .1 0 0 0 .1-.1 0-.1 0 0zM22.5 17c0 .1.1 0 .1 0 .1-.1 0-.1 0-.1s0-.1-.1 0c-.1 0-.1.1 0 .1zM28.2 19.8s-.1.1 0 0c0 .1 0 .1 0 0 .1.1.1 0 0 0zM23.4 19.1s-.1.1 0 .1c0 0 .1.1.1 0 .1 0 .1-.1-.1-.1.1-.1 0 0 0 0zM23.3 19.3v.1h.1c0-.1 0-.1-.1-.1.1-.1.1 0 0 0zM22.7 18.7c.1 0 .1 0 0 0 .1.1.1.1.2.1 0 0 .1-.1 0-.1 0 0-.1-.1-.1 0 0-.1-.1-.1-.1 0zM19 21.5c.1.1.1 0 .2 0v-.1c-.1-.1-.1-.1-.2 0-.1 0 0 0 0 .1zM20.2 22.4c-.1-.1-.1 0-.1 0v.1s.1.1.2 0c0 0 0-.1-.1-.1zM19.9 22.2s0-.1-.1 0v.1c.1 0 .1 0 .1-.1.1 0 .1 0 0 0zM23 17.5c0 .1.1.1.1 0 0 0 .1-.1 0-.1 0 0 0-.1-.1-.1-.1.1-.1.1 0 .2zM19.4 21.6c0-.1-.1-.1-.1 0v.1s.1.1.1 0v-.1zM23.3 17.6c-.1 0-.1 0-.1.1s0 .1.1.1h.1c0-.1 0-.1-.1-.2zM18.9 22.5c0-.1-.1 0-.1 0v.1l.1.1c.1-.1.1-.1 0-.2zM18 21.9c.1.1.1 0 .2 0v-.1s-.1-.1-.2 0v.1zM22.5 18.4c.1.1.1.1.2 0 0 0 .1-.1 0-.1l-.1-.1c-.1.1-.1.1-.1.2zM21.1 18c0 .1 0 .1 0 0 .1.1.1.1 0 0 .1.1.1.1 0 0 .1 0 0 0 0 0zM15.2 10.9c0 .1.1.1.1.2 0-.2-.1-.2-.1-.2zM21 16.3s0-.1 0 0c-.1 0 0 0 0 0s0 .1 0 0c.1 0 0 0 0 0zM21.2 16.4c-.1 0-.1 0 0 0 0 .1 0 .1 0 0 .1.1 0 .1 0 0zM20.9 16.1s-.1 0 0 0c-.1 0-.1 0 0 0 0 .1 0 .1 0 0 0 .1 0 0 0 0zM14.1 17l-.2-.2.2.2zM13.1 17.6l.2.2c-.1-.1-.2-.1-.2-.2zM11.5 14.8l-.3-.3.3.3zM10.7 15.3l.2.2c-.1-.1-.1-.2-.2-.2zM18.7 23.8c-.1 0-.1.1 0 0 0 .1 0 .1 0 0 .1.1 0 0 0 0zM11.6 14.3l.2.2c0-.1-.1-.1-.2-.2zM17.3 13.6l-.2-.2c.1 0 .1.1.2.2zM24.1 16.6c.1.1.1.1 0 0 .1 0 .1 0 0 0 .1 0 .1 0 0 0zM9.2 12.8v.1h.1v-.1h-.1zM15.3 19.3c-.1.1-.1.1 0 .1h.1v-.1c0-.1 0-.1-.1 0zM15.2 19.4c.1 0 .1 0 0 0 .1 0 0 0 0 0zM21.1 23.8c0 .1 0 .1-.1.2v.1h.2c.1 0 .1.1.2.1h.1v-.1c0-.1-.1-.2-.1-.2-.1-.2-.3-.2-.3-.1zm0 .1s-.1-.1 0-.1h.2s.1.1.1.2v.1h-.1l-.2-.2zM21.9 24.8h.2v-.2c-.1-.1-.2-.1-.2-.2h-.1v.1c0 .1.1.2.1.3zm0-.1-.1-.1v-.1h.1l.1.1v.1c0 .1 0 .1-.1 0zM21.4 24.8c.1 0 .1 0 0 0 .1-.1.1-.1 0 0 .1-.1.1-.1 0 0 0-.1 0-.1 0 0zM22.2 23.2c-.1 0-.1.1 0 0 0 .1 0 .1 0 0 0 .1 0 0 0 0zM21.7 24.9s-.1-.1 0 0c-.1 0-.1 0 0 0-.1.1-.1.1 0 0zM22.7 23.8c-.1 0 0 0 0 0 0-.1 0-.1 0 0zM22 23.1c.1 0 .1 0 0 0 0-.1 0-.1 0 0zM20.9 24.2c0 .1 0 .1 0 0 .1 0 .1 0 0 0 .1 0 0 0 0 0zM22.6 23.6c-.1 0-.1 0 0 0-.1 0-.1.1 0 0-.1.1-.1.1 0 0zM16.6 16.2c-.1 0-.1 0 0 0-.1 0-.1.1 0 0-.1.1-.1.1 0 0 0 .1 0 0 0 0z"/><path fill="none" d="M12.837 3.63 16.019.446 35.11 19.54l-3.182 3.182z"/><path fill="#010101" d="M19.3 7.3c-.2.2-.1.5.1.7.2.2.4.2.5.1.2-.2.1-.3-.2-.8-.5-.9-.4-1.3-.1-1.6.4-.4 1-.4 1.7.2.7.7.7 1.4.3 1.8L21 7c.1-.1.2-.3-.1-.6-.2-.2-.3-.2-.4-.1-.1.1-.1.3.2.7.5.9.4 1.3.1 1.7-.4.4-1.1.4-1.8-.3s-.7-1.3-.3-1.8l.6.7zM22.7 8.4l-.7-.7.5-.5 2 2-.5.5-.7-.7-1.9 1.9-.7-.7 2-1.8zM24.6 14l-.5-.5c0-.1.1-.2.2-.3-.3 0-.6-.1-1-.4-.7-.7-.5-1.6.1-2.3.7-.7 1.7-.8 2.5 0 .7.7.6 1.5.3 1.9l-.7-.7c.1-.2.2-.4-.1-.7-.4-.4-.9-.1-1.2.2-.4.4-.6.9-.2 1.2.4.4.7.2.8 0l-.5-.4.5-.5 1.1 1.1-1.3 1.4zM28.1 12.8l-2.4 2.4-.7-.8 2.4-2.4.7.8zM29.3 14l-2.4 2.4-.7-.7 2.4-2.4.7.7zM30.5 15.1l-2.4 2.4-.7-.7 2.4-2.4.7.7z"/><path fill="none" d="M0 0h45v45H0z"/><path fill="none" d="M4.5 27h18v13.5h-18z"/><path fill="#010101" d="M6.1 40.4v-4.8c-.3.1-.8.3-1.2.3v-1c.6-.1 1.2-.5 1.6-.9h1v6.4H6.1zM13.7 37.2c0 1.8-.6 3.4-2.5 3.4s-2.5-1.5-2.5-3.3c0-1.8.6-3.3 2.5-3.3 1.8-.1 2.5 1.4 2.5 3.2zm-3.5 0c0 1.2.1 2.2 1 2.2s1-1 1-2.2c0-1.2-.2-2.2-1-2.2s-1 .8-1 2.2zM19 35.2h-2.6c0 .3-.2 1-.2 1.2.2-.2.6-.3 1.2-.3 1.3 0 2 .9 2 2.1 0 1.2-.7 2.4-2.4 2.4-1.3 0-2.2-.6-2.3-1.8H16c.1.4.4.7 1 .7.7 0 1-.5 1-1.2s-.2-1.1-1-1.1c-.6 0-.8.3-1 .6l-1.3-.2c.2-.8.4-2.7.5-3.6h3.9l-.1 1.2z"/><path fill="none" d="M27 4.5h13.5V18H27z"/><path fill="#010101" d="M32.8 11.6V6.8c-.3.1-.8.3-1.2.3V6c.6-.1 1.2-.5 1.6-.9h1v6.4h-1.4zM35.5 11.6c0-1.2.5-2.1 1.9-3.1.9-.7 1.2-.9 1.2-1.4 0-.6-.3-.9-.8-.9-.6 0-.9.4-.9.9h-1.3c.1-1.1.8-2 2.3-2 1.6 0 2.2 1 2.2 1.9 0 .9-.4 1.4-1.6 2.2-.8.6-1.1.9-1.2 1.2h3l-.2 1.2h-4.6z"/><path fill="none" d="M27 27h13.5v13.5H27z"/><path fill="#010101" d="M32 36.4c-.1-.3-.2-.5-.7-.5-.7 0-.9.7-.9 1.4.2-.3.6-.5 1.2-.5 1 0 1.7.7 1.7 1.8s-.7 2-2 2c-1.5 0-2.1-1.2-2.1-2.7 0-1.4.5-2.8 2.1-2.8 1.2 0 1.7.7 1.8 1.4H32zm.1 2.3c0-.5-.2-1-.8-1-.5 0-.8.3-.8.9 0 .4.2 1 .8 1 .5 0 .8-.4.8-.9zM33.9 40.9l2.2-6.1h1l-2.2 6.1h-1zM40 37.9v1h-2.3v-1H40z"/><path fill="none" stroke="#000" stroke-width=".75" stroke-miterlimit="10" d="M5 33.3h14.1"/></svg>