<svg version="1.2" baseProfile="tiny" xmlns="http://www.w3.org/2000/svg" viewBox="0 0 45 45" overflow="visible" xml:space="preserve"><path fill="#76A4B2" d="M-49.5-49.5h279v252h-279z"/><path fill="none" d="M-45 0H0v45h-45z"/><path fill="#010101" d="m28.4 27 1.6 3-3-1.6s.7-.3.9-.5c.2-.2.5-.9.5-.9z"/><path fill="#FFF" d="m11.1 7.1 1.4-.1 14.4 14-5.8 5.7-14-14.1v-1.7l3.8-3.8"/><g stroke="#000" stroke-width=".1" stroke-miterlimit="10"><path d="M26 20.6c.1 0 .1 0 0 0l.1.1-.2-.2.1-.1v.2c0-.1.1-.1.1-.2s-.1-.1-.1-.1l-.6-.6-.5-.5c-.1-.1-.1-.1-.1 0l-.7.7s-.1.1 0 .1c.1.1.1.2.2.3.1.2.1.3.2.5.1.4.3.7.4 1.1.1.2.1.2.2 0l.3-.3-.3.3c-.1.1-.1.1 0 .2s.2.1.3.2c0-.1-.1-.2 0-.3.1-.2.3-.3.5-.2.2.1.3.1.4 0 .2-.2.4-.4.5-.6.1-.1.1-.1 0-.2l-.4-.4c-.2.3-.4.4-.6.6l.2-.2.3-.3c.1-.1.1-.2 0-.3 0 0 .1-.1.1.1l.4.4c.1.2.1.2 0 .4l-.1.1c0 .2-.2.5-.4.5-.1 0-.2.1-.2.2s0 .1.1.1.1.1.2 0l.6-.6s0-.1.1-.1.1.1.2.2c0 .1 0 .1-.1.1l-1.7 1.7L24 25l-2 2c-.1.1-.1.1-.3 0-.1-.1-.1-.1 0-.2l.7-.7s.1 0 0-.1h-.1c-.1 0-.2.1-.2.1l-.3.3c-.1.1-.2.1-.3.1-.1 0-.1 0-.1.1l-.1.1c-.1.1-.2.1-.3 0l-.5-.5c-.1-.1 0-.1 0-.1 0 .1.1 0 .2 0-.1 0-.1.1 0 .1l.3.3c.1.1.2.1.3 0l.6-.6c.1-.1.1-.1 0-.2s-.1-.2 0-.3c.1-.2.2-.2.4-.3-.2.2-.3 0-.3-.1 0 0 0-.1-.1-.1l-1.5-.6h-.1l-.7.7s-.1.1-.1.2.1.1.1.1l.6.6c0 .1.1.1.1.1s.1 0 0 .1h-.1l-.6-.6-3.7-3.7-.2-.2s0-.1-.1 0h-.1c-1.7-1.7-3.4-3.4-5.2-5.1l-.1-.1v-.2l-.9-.9-1.1-1.1-.9-.9s-.1-.1 0-.2c.1 0 0-.1 0-.1l-.3-.3c-.1 0-.1-.1-.1-.2v-1.3c0-.1-.1-.3.1-.4.1-.1.3-.2.4-.4 0 0 .1 0 .1-.1-.1-.1 0-.1.1-.2L8.7 9c.1-.1.1-.2.2 0 0-.2.1-.2.2-.2-.1.2 0 .3 0 .3l.4.4c.1.1.1.1.2 0l.6-.6.7-.7s.1-.1 0-.1l-.6-.6h-.1c-.4.5-.8.8-1.2 1.3 0 0-.1.2-.2.1.1-.2.2-.2.3-.3l1.1-1.1.1-.1c.1 0 .1 0 .2-.1l.3-.3h1.6c.1 0 .1 0 .2.1l.3.3s.1.1.1 0c.1-.1.1 0 .1 0l.3.3 1 1 1.6 1.6s.1.1.2.1h.1c0 .1.1.1.1.1l.6.6.6.6c.1.2.3.3.4.5l.8.8c.3.3.6.6 1 .9l.3.3-.2.2h.1c-.1.1-.1.1 0 .2l.8.8c.1.1.1.1.2 0 0 0 0 .1-.1.1v.1c.1 0 .1-.1.1-.1v-.1l-.1-.1-.8-.8-.1-.1c0-.1.1-.1.1 0l1.3 1.3s.1.1 0 .1c-.1.1 0 .1 0 .2l3.5 3.5.3.3.6.6c.2.1.2.2.3.4-.1-.4-.1-.3-.2-.2zm-12.9-9.2c0 .2 0 .2.1.3 0 0 0 .1.1.1s.1-.1.1-.1c.1-.1.1-.2.2-.2h.1c.1 0 .1 0 .1-.1v-.1c.1 0 .1-.1.2-.2v-.2c-.1-.1-.2-.3-.4-.4l-.3-.3c-.1-.1-.2-.3-.4-.4 0 0-.1 0-.1-.1l-.2-.2c-.1-.1-.2-.1-.3 0 0-.1-.1-.1-.1-.2 0 0 .1.1.1 0v-.1c0-.1-.1-.1-.1-.1 0-.1-.2-.1-.2-.2-.2 0-.1-.2-.2-.2-.1-.1-.1-.1-.2 0l-.5.5v.1s.1 0 0 .1c0 0-.1.1-.1 0h-.1s-.1 0-.1.1c0 0 .1 0 .1.1h.1c.1 0 .1 0 .1.1s.1.1.1.2l.1.1s.1.1.2 0h.1c0 .1 0 .2.2.2 0 0 .1 0 0 .1v.1c.1 0 .1.1.1.1 0 .1.1.1.1 0h.1c0 .1.1.3.3.3h.1-.1c.1 0 .1.1.2 0h.1v.1c0 .2.1.3.3.2 0 0-.1 0-.1.1 0 0 .1.1.1 0 0 .3 0 .2.1.2zm6 6.3.7-.7c.1-.1.1-.1 0-.2.1 0 .1.1.1 0l-.2-.2v.1c0-.1-.1-.1-.1 0l-.7.7v.1s-.1 0 0 .1l.1.1h.1v-.1c-.1.2-.1.2 0 .1zm-9.7-5.4c0 .1 0 .1.1.2l.2.2.3.3c.1.1.1.1.2.1 0 .2.2.3.3.3 0 .1.1.1.1.2s0 .1.1.1c0 0 .1 0 .1.1h.2s.1.1 0 .1 0 .1 0 .1h.1c.2-.2.3-.4.5-.5 0 0 0-.1.1-.1 0-.1 0-.1-.1-.1s0-.1-.1-.1l-.3-.3c-.1-.1-.2-.2-.3-.4-.1-.1-.1-.2-.2-.2v-.1c-.1 0-.1 0-.1-.1-.1-.1-.1-.2-.3-.2v-.1c0-.1-.1-.1-.1-.1-.1 0-.1-.1-.2-.1v-.1c0-.1 0-.1-.1-.1 0-.1 0-.1-.1-.2 0 0-.1-.1-.2-.1h-.2l-.6.6c-.1.1 0 .1 0 .2.1 0 .2.1.3.2 0 0 0 .1.1.1s.1 0 .1.1c0-.1 0 0 .1 0-.1-.1 0-.1 0 0zm13.3 12.5c.1-.1.1-.2.1-.3l-.1.1v-.1c0 .1-.1.1-.2.1s-.1-.1-.1-.2v-.1c-.3-.1-.5-.3-.8-.4l-.6-.3c-.1 0-.2 0-.2-.1-.1-.1-.2-.1-.2-.1-.1-.1-.2-.1-.2-.1v.2c.1 0 .1.1.1.2s0 .2-.1.2c0 .1-.1.1-.1.1-.1-.1-.2-.1-.4-.2-.5-.3-1-.5-1.5-.8-.1-.1-.1-.1-.1-.3v-.2c0-.1.1-.2.2-.1h.1v-.1l-.1-.1c.2 0 .3.1.5.2.3.2.7.4 1 .5.3.2.6.3.9.5.5.2.9.5 1.4.7.2.1.3.2.5.2 0 0 .1 0 .2.1h.1l1.5-1.5c.1-.1 0-.2 0-.2-.2-.4-.4-.8-.6-1.1l-.3-.6c-.2-.4-.4-.7-.6-1.1-.3-.6-.6-1.2-1-1.8 0-.1-.1-.1-.1-.2l.3.6c0 .1.1.1.2 0v-.1c0-.1 0-.1.1-.1s.2 0 .3-.1c.1 0 .1 0 .2.1l.6 1.2c.1.2.2.4.3.7.1.1 0 .2-.1.2h-.2s.1 0 .1-.1c.1 0 .1-.1.1-.2-.1-.2-.3-.5-.4-.7-.2-.3-.4-.7-.6-1 0-.1-.1-.1-.2-.1h-.2s-.1 0-.1.1c0 0 0 .1.1.1s.2.1.2.2v.1c-.1 0-.1.1 0 .1.2.4.4.7.6 1.1 0 .1.1.1.1.1.1 0 .1.1.2.1v.1c-.1 0 0 .1 0 .1h.2c-.1 0-.2 0-.2-.1s-.1 0-.2 0c.1.2.2.4.3.5.1.1.1.3.2.4.3.5.5.9.8 1.4 0 .1 0 .2.1.2 0 .1 0 .1.1.1.2-.1.5-.2.7-.2h.2-.1c0-.1 0-.1-.1-.1-.1-.1-.3-.2-.4-.2-.1 0-.1-.1-.1-.1-.1-.3-.3-.6-.4-.9-.1-.3-.2-.5-.4-.8l-.3.3.2-.2c.1-.1.1-.1 0-.2-.1-.3-.3-.6-.5-.8-.2-.4-.4-.7-.6-1.1-.3-.4-.5-.8-.8-1.2-.2-.2-.3-.5-.5-.7 0-.1-.1-.2-.1-.2h-.6c-.1 0-.1 0-.1.1.1.2.2.4.4.7.1.3.3.6.4.8 0 .1.1.1.1.2-.1-.1-.2-.3-.3-.4l-.6-1.2c0-.1-.1-.1-.2 0l-2.9 2.9-1.7 1.7c-.1.1-.1.1 0 .2.7.4 1.4.7 2.1 1.1.1 0 .1.1.2.1l-.6-.3c-.2-.1-.4-.2-.5-.3h-.1c-.1-.1-.2-.1-.3-.2-.3-.1-.6-.3-.8-.4v.4c0 .2.1.3.2.4.4.3.8.5 1.2.8.5.3 1 .7 1.5.9.3.2.6.3.8.5.1.1.2.1.3.1h.1l.2-.2-.2.2v.1c.5.2 1.1.4 1.6.6h.1v-.1c.2-.2.3-.2.5 0 .1.1.1 0 .1-.1.2-.4.1-.4.1-.3zM8.1 12.4H8c-.1 0-.1.1 0 .2.2.2.4.5.7.7.2.2.3.4.5.5.1.1.3.2.4.3l.1.1c0 .1-.1.1-.1.1 0-.1-.1-.1-.1-.1 0-.1 0-.1-.1-.1-.4-.1-.6-.3-.7-.5-.1-.1-.2-.1-.2-.2-.1 0 0-.1 0-.1l-.6-.6c-.1 0-.2.1-.2.2s0 .2.1.2.1.1.2.2h.1c0-.1.1-.1.2 0l.2.2s.1 0 .1.1h.1c0 .2.1.2.2.3.1.2.3.3.4.4l.2.2.3.3.3.3s0 .1.1 0c0 0 .1-.1 0-.1 0-.1.1-.2.1-.2.1 0 .1 0 .1.1l.1.1c.1.1.1.2-.1.3-.1 0-.2.1-.2.2-.1.1 0 .1.1.2l1.3 1.3 4.4 4.4.1.1v-1.3c0-.1 0-.2-.1-.3l-1-1c-.2-.1-.3-.3-.5-.4-.1 0 0 .1-.1.1s-.1-.1-.1-.1c0-.1.1-.1.1-.1l-6.1-6.1c-.1 0-.2.1-.2.1zM20 15.9h1.5c0-.1 0-.1-.1-.1l-3.6-3.6-1.1-1.1-.1-.1s0-.1-.1 0v.1c0 .1 0 .2-.2.2s-.2 0-.3-.2c0-.1-.2-.2-.3-.3 0 0-.1-.1 0-.1v-.1l-1.2-1.2s-.1-.1-.1 0v.1l.8.8.1.1c.1.1.1.1 0 .2s-.1 0-.2 0l-.9-.9c-.2.3-.2.3-.4 0l-.4-.4c-.1-.1-.1-.1 0-.1.2-.2.2-.2 0-.3l-.5-.5s-.1-.1-.1 0c-.1.1-.1 0-.1 0-.1-.1-.2-.2-.2-.3-.2 0-.2-.2-.2-.3 0-.1 0-.1.1-.1s.3-.1.4.1l.3.3s.1.1 0 .1v.1l1.1 1.1s.1.1.1 0v-.1c-.3-.3-.5-.6-.7-.8l-.1-.1c-.1 0-.1-.1-.1-.1 0-.1.1-.1.1-.1.1 0 .1 0 .1.1.2.3.5.5.8.8h.1c.1 0 .1 0 .1.1s0 .1.1.1l1.2 1.2.1.1c.1 0 .1-.1 0-.1-.2-.2-.4-.3-.5-.5l-1.2-1.2-1.1-1.1h-.1c-.1 0-.1 0-.1-.1s-.1-.1-.1-.1c-.2-.2-.2-.2-.4 0L12 8l-.1.1h.1s.1-.1.1 0c.1.1.1.1 0 .2-.1 0 0 .1 0 .1l.7.7.9.9.8.8.6.6.4.4 2.7 2.7c.1.1.1.1.1 0 0 0 .1-.1.1 0 0 0 .1.1.1.2l-.1.1c.6.2 1.1.7 1.6 1.1zm-.1.2c.1-.1.1-.1 0-.2l-1-1c-.1-.1-.1-.1-.2 0l-1 1-1.4 1.4-1.3 1.3c-.1.1-.1.1 0 .2.2.2.4.5.7.7l.3.3h.1l.1-.1 1.8-1.8c.6-.5 1.3-1.2 1.9-1.8zm-8.4-1.8c-.1.1 0 .2 0 .2.1 0 .1.1.1.1.2.2.4.5.6.7h.1c0 .1.1.1.1.2l.3.3c.1.1.2.3.4.4l1.1 1.1c.1.1.3.2.4.4l.1.1c0 .1.1.1.1 0l.6-.6c.1-.1 0-.1 0-.2-.2-.1-.3-.3-.4-.4l-.6-.6-.6-.6-.4-.4-.1-.1c-.1 0 0-.1-.1-.1l-.3-.3c-.1 0-.2-.1-.2-.2 0 0-.1 0-.1-.1l-.3-.3s0-.1-.1 0c0 0 .1 0 0 0l-.1-.1v.1c0 .1-.1.1 0 .1 0-.2-.1-.1-.1 0-.3 0-.4.1-.5.3zm2.5-1.9c.1 0 .1.1 0 0 0 .1 0 .1.1.1s.1 0 .1.1.1.1.1.2l.3.3c.1.1.1.2.2.2s.1.1.2.2c.1 0 .1.1.2.2l.3.3.4.4.1.1s.1 0 .1.1.1.2.2.2v.1c.2.1.3.3.4.4l.2.2c.1.1.2.1.3 0l.5-.5c.1-.1.1-.1 0-.2s-.1-.2-.2-.2c0 0 0-.1-.1-.1-.3-.3-.5-.6-.8-.8-.1-.1-.2-.3-.4-.4-.2-.1-.3-.3-.4-.4l-.3-.3-.6-.6c-.2-.1-.3-.3-.5-.5-.1-.1-.1 0-.1 0-.1.1-.3.2-.4.4l-.2.2c-.1.1 0 .1 0 .1s.1.1.1 0c0 .1.1.2.2.2zM9.5 9.8s.1-.1 0-.1c-.1-.2-.3-.4-.5-.6h-.1c0 .1-.2.1-.3.2-.4.3-.7.7-1.1 1-.1.1-.1.1 0 .2.3.2.5.3.6.5.1.1.1.1.1 0l.6-.6c.3-.2.5-.4.7-.6zm9.2 5c-.4-.3-.7-.7-1.1-1l-.7-.7c-.2-.1-.3-.3-.5-.4l-.6-.6-.9-.9-3.1-3.1c-.1-.1-.1-.1-.2 0l-.4.4-1.3 1.3-.1.1c.2 0 .3.1.2.3.1-.1.2-.1.2-.2.2-.2.5-.4.7-.7l.5-.5s0-.1.1-.1h.7c.1 0 .2.1.3.1.3.3.5.6.8.8.6.5 1.1 1.1 1.6 1.6 1.4 1.2 2.6 2.4 3.8 3.6 0 0 0 .1 0 0 .1 0 .1 0 0 0zm5.9 8.1c-.1 0-.1.1-.1.1l-1 1-.4.4c-.1.1-.2.3-.2.4 0 .1.1.1.1.2s.1.1.2 0l2.4-2.4.1-.1c-.5.2-.8.3-1.1.4zm2.4-1c.1-.1.1-.1 0-.2h-.1l-.6.6v.1c0 .1-.1.2-.2.2H26c-.2.2-.5.4-.7.7l-.3.3-.7.7-1.2 1.2-.3.3c-.1.1-.1.1-.1.2s-.1.2-.2.1h-.1l-.7.7s-.1.1 0 .1c0 0 .1.1.2 0s.2-.3.4-.4l2.2-2.2c.8-.7 1.7-1.6 2.5-2.4zM9.8 10l-.1.1-1.2 1.2c-.2.2-.4.3-.5.5-.1.1-.1.1 0 .2l.6.6c0-.3.1-.6.1-.9v-.1l1.3-1.3c-.1-.1-.2-.1-.2-.3zm16.1 12.6s.1-.1 0-.1c-.1-.1-.2-.1-.2 0l-.3.3-1.1 1.1c-.3.2-.5.5-.7.8-.1.1-.3.3-.4.5-.1.1-.2.1-.2.3l-.1.1c-.1.1-.2.2-.2.3v.1h.1l1.1-1.1.6-.6c.3-.6.9-1.1 1.4-1.7zm-5.9.7c0-.1-.1-.2-.2-.2-.3-.2-.7-.4-1-.5h-.1s0 .1-.1.1-.1 0-.2-.1v-.1s0-.1-.1-.1c0 0-.1 0-.1.1s0 .2-.1.3c0 .1.1.1.1.2.5.3 1 .5 1.5.8.1.1.2.1.3.2h.1c0-.1.1-.2.1-.4l-.1-.1c.1.1 0-.1-.1-.2 0 .1 0 0 0 0zm2.1-7-.5-.5s0-.1-.1 0 0 .1 0 .1c.2.2.3.5.5.7.2.3.5.7.7 1 0 .1.1.1.1.2 0 0 .1.1.1 0 .1-.1.1-.1.3 0 .1.1.1 0 .1 0 .1 0 .1-.1 0-.1l-.5-.5c-.2-.4-.4-.6-.7-.9zm-3.8 6.8c-.2-.1-.3-.1-.5-.1h-.2c0 .1.1.1.1.1.2.3.6.4.9.6l.6.3h.1c.2-.1.3-.1.5-.2-.5-.1-1-.4-1.5-.7zm-.7.3s.1.1.1 0c.1-.1.1-.1 0-.1-.1-.1-.1-.1 0-.3.1-.1.1-.1 0-.2-.4-.3-.9-.6-1.3-.9-.2-.1-.4-.2-.6-.4h-.1c-.1 0 0 .1 0 .1l.9.9c.4.3.7.6 1 .9zm6.6-4v-.1c-.2-.4-.4-.8-.6-1.1-.1-.1-.2-.2-.3-.4h-.1v.5c.3.5.6 1 .8 1.4 0 0 0 .1.1.1 0-.2 0-.3.1-.4zM11.3 8.3c-.1-.1-.1-.1 0 0 0-.1 0-.1 0 0 .1 0 .1 0 .2-.1l.3-.3v-.1l-.7-.7H11l-.4.4c-.1.1 0 .1 0 .1l.6.6s0 .1.1.1zm-3.5 3.4s.1.1.1 0l.3-.3s.1-.1 0-.1v-.1h.1s.1.1 0 0c0 0 0 .1.1 0 0 0 0-.1-.1 0-.1 0-.1 0-.2-.1-.2-.2-.3-.4-.5-.5h-.1l-.4.4c-.1 0 0 .1 0 .1l.3.3c.2.1.3.2.4.3zM18 18.9c.4-.3.7-.7 1-1.1-.1 0-.1.1-.2 0s-.3-.2-.2-.4l-1.1 1.1c.2 0 .4.2.5.4zM10.3 16s0 .1 0 0c.1.1.1.1.2.1.1-.1 0-.1 0-.1l-.9-.9-1-1c-.3-.3-.6-.6-1-.9 0 0-.1-.1-.1 0-.1.1 0 .1 0 .1l1.4 1.4c.4.4.9.9 1.4 1.3zm1.5-8.2h.1c.2-.2.5-.4.6-.7h-1.4l.7.7zm-4.4 4.5c.1-.1.2-.3.4-.4 0 0 .1-.1 0-.1l-.7-.7c0 .5 0 1 .1 1.5 0-.1.1-.2.2-.3zm12.5 11.8h-.1l-.7.7c-.1.1-.1.1 0 .1l.1.1c.2.2.2.2.3 0l.7-.7c0-.1-.2-.2-.3-.2zm-3-4.1c-.1 0-.3-.1-.4-.2v-.2l.8-.8h-.1l-1.1 1.1V20.7c.2-.1.5-.4.8-.7zm-8.4-9s-.1 0 0 0c-.1.1-.1.1 0 .2h.1c0-.1.2-.1.2-.2.1-.2.3-.3.5-.5v-.1c-.1-.1.1-.2.1-.2.2 0 .3-.2.4-.2.1 0 .1-.1.2-.2 0 0 .1-.1.1-.2l.2-.2h.1l.6-.6c0-.2 0-.3.1-.3 0 0 .1-.1 0-.1H11l-.1.1-.5.5c-.6.7-1.3 1.3-1.9 2zm4.8-3.5-.1-.1h-.1v.1l.9.9.5.5c.2.2.4.4.7.6.3.2.5.5.8.7l.1.1h.1v-.1l-.1-.1-1.4-1.4c-.5-.3-.9-.7-1.4-1.2zM17.8 19c0-.1-.1-.1-.2-.2 0 .1-.2.1-.2.2l-.6.6s-.1.1 0 .1v.1l-.1-.1c-.1 0 0 .1.1.1l.1.1c.1 0 .1 0 .2-.1.2-.2.4-.4.6-.7.1-.1.1-.1 0-.2 0 0 0 .1.1.1zm4.8 6.4c.2 0 .3-.1.2-.3-.1-.2-.2-.4-.4-.5-.1-.1-.3 0-.4.1-.1.1 0 .2 0 .3l.1.1c.2.2.4.3.5.3zm1.3-7.3h-.1c-.1.2-.2.1 0 .3l.3.6c0 .1.1.1.1 0l.3-.3c.1-.1.1-.1 0-.2l-.3-.3c-.1.1-.2 0-.3-.1zm-9.6 2.1.9.9s.1.1.2 0 .1-.1 0-.2l-.9-.9c-.1-.1-.3-.2-.4-.4-.1-.1-.1 0-.2 0-.1.1-.1.1 0 .1l.1.1c.1.1.1.1.2 0 0 .3.1.4.1.4zm5.8-3.4.8-.8H20.1l-.3.3c.1.2.3.3.3.5zm-6.7 2.5c0 .1.1.1.2.1l.1-.1v-.1c-.1 0-.1-.1-.2-.1l-.2-.2-.6-.6s0-.1-.1-.1c0 0-.1.1-.1.2.1.1.1.2.2.2l.3.3c.1.1.3.2.4.4zm-2.6-2.9c-.1-.1-.1 0-.1 0s-.1 0 0 .1l.9.9s.1.1.1 0 .1-.1 0-.2l-.4-.4c-.1 0-.3-.2-.5-.4zM7.7 12c-.1.2-.4.3-.5.5-.1.1-.1.1 0 .2 0 0 .1.1.2.1s.1-.1.1-.2.1-.1.1-.2l.1-.1c.2 0 .3-.2.5-.2V12s-.1-.1-.1 0c-.1.1-.1.1-.2 0s0-.1 0-.2l-.2.2zm14.4 14.1c.2-.1.3-.3.4-.4.1-.1.1-.1 0-.2s-.3-.2-.4-.1c-.1.1-.2.2-.2.3 0 .1.1.1.1.2s.1.1.1.2c0-.1-.1 0 0 0zM26 22v-.1c-.1-.1-.2-.1-.3-.2-.1 0-.3 0-.3.1-.1.1-.1.2 0 .4s.1.2.4 0l.2-.2zm-7.5-9.5s-.1-.1-.1 0c0 0-.1.1 0 .2.2.2.5.4.7.7l.2.2c.1.1.1 0 .2 0 .1-.1 0-.1 0-.1-.1-.1-.2-.2-.3-.2-.3-.4-.5-.6-.7-.8zm-1.8-1.7s-.1-.1-.1 0c-.1.1-.1.1 0 .2l.2.2.6.6c.1.1.1 0 .1 0 .1 0 .1-.1 0-.1l-.3-.3c-.1-.2-.3-.4-.5-.6zm6.4 9.2c.1-.1 0-.2 0-.2-.2-.3-.3-.6-.5-1-.1-.1-.1-.1-.2-.1.2.5.4.9.7 1.3 0 .1 0 0 0 0zm1.7-1s-.1 0 0 0c-.2-.3-.2-.3-.4-.1l-.1.1c-.1.1-.1.1 0 .2v.4c.1-.2.3-.4.5-.6zm-5.3 5.2c-.1 0-.2.1-.3.1h-.1l-.2.2v.1c.2.2.2.2.3 0l.5-.5c-.1 0-.1 0-.2.1zM12.8 7.8c-.2-.2-.2-.2-.4 0v.1l.3.3h.1c0-.1.1-.1.1-.1.1-.1.1-.1-.1-.3.1.1.1.1 0 0zm6.3 16.4c0-.1 0-.1 0 0-.2-.2-.4-.3-.6-.4h-.1v.1c0 .1.1.2.1.3.2 0 .4.1.6 0zm-3-13.6c-.1-.1-.1-.1-.1 0l-.1.1c-.1 0-.1.1 0 .1.1.1.2.2.3.2h.1l.2-.2v-.1c-.2.1-.3.1-.4-.1.1.1 0 .1 0 0zm3.1 12.1c.3.1.5.3.8.4h.1V23c-.4-.2-.8-.4-1.1-.6 0 0-.1-.1-.1 0v.1c0 .1.2.1.3.2zM8.9 12.5c.6.6 1.1 1.2 1.7 1.8-.5-.6-1.1-1.2-1.7-1.8zm5.5-1.7c.6.6 1.1 1.2 1.7 1.7-.5-.6-1.1-1.2-1.7-1.7zm3.5 3.5c0-.1 0-.1 0 0-.5-.6-1.1-1.1-1.6-1.6l1.6 1.6zM12 17.9c.1.1.1.1.2 0v-.1l-.3-.3c-.1-.1-.1 0-.1 0s-.1.1 0 .1c.1.2.1.2.2.3zm3.1-7.5.1.1s0 .1.1.1h.1v-.1l-.5-.5-.4-.4s0-.1-.1 0v.1l.4.4.3.3zm-2.6 5.7c-.6-.6-1.1-1.2-1.7-1.8.5.7 1.1 1.3 1.7 1.8zm11.2 1.8-.1-.1h-.1c-.1.1-.1.1 0 .2s.1.2.2.3c.1-.3.1-.3 0-.4zm-8.2-7.5s.1 0 0 0c.1 0 .1-.1 0 0-.2-.4-.5-.6-.8-.9l-.2-.2h-.1v.1l.5.5c.3.1.5.3.6.5zm2.3 1.4c-.1-.1-.1 0-.2 0s0 .1 0 .1l.2.2c.1.1.2 0 .2-.1v-.1c-.1.1-.1 0-.2-.1.1.1.1.1 0 0 .1.1 0 0 0 0zm3.5 3.6c-.1-.1-.1-.1-.2 0s0 .1 0 .2l.1.1c.1.1.2.1.2 0v-.1c.1-.1 0-.1-.1-.2.1 0 .1 0 0 0zm-7.2-6.2c-.2-.3-.5-.5-.7-.8h-.1s0-.1-.1 0v.1l.9.9h.1c0-.1-.1-.1-.1-.2zm1.4 12s-.1-.1-.1 0c-.1.1-.1.1 0 .2.1 0 .1.1.1.1.1.1.1.1.1 0 .1-.1.1-.1 0-.2.1 0 0-.1-.1-.1.1 0 .1 0 0 0zm-6.2-6.5c.2.1.3.4.5.5h.2v-.1l-.6-.6c-.2.1-.1.2-.1.2zm4.8-5.8-.6-.6h-.1v.2c.2.1.3.2.4.4.2.1.3.3.5.5 0-.3-.1-.4-.2-.5zm5.8 5.3c0 .1.1.1.2 0s.1-.1 0-.2l-.1-.1c-.1-.1-.1-.1-.2 0s0 .1 0 .1c0 .1 0 .1.1.2-.1-.1-.1-.1 0 0-.1 0 0 0 0 0zm-.3-.6c0-.1-.1-.1-.2 0s-.1.1 0 .2l.1.1c.1.1.2.1.2 0v-.1c0-.1 0-.1-.1-.2 0 .1 0 .1 0 0zm-5.8 5.8c-.1-.1-.1-.1-.2 0s0 .1 0 .1l.1.1c.1.1.1.1.2 0s0-.1 0-.2c0 .1 0 .1-.1 0zm-3.2-2.9c.1.1.1.1.2 0s0-.1 0-.2l-.1-.1c-.1-.1-.1-.1-.2 0s0 .1 0 .2l.1.1c-.1-.1-.1-.1 0 0-.1-.1-.1-.1 0 0zm8.1 8c.1 0 .1 0 0 0 .2-.1.1-.1 0 0v-.1c0-.1 0-.1-.1-.1-.1-.1-.2-.1-.3-.3-.1-.1-.1-.1-.2-.1.3.2.4.4.6.6zm-.6-12.3c0-.1-.1-.1-.1 0-.1 0-.1.1 0 .2l.1.1c.1.1.2.1.2 0s0-.1-.2-.3c.1 0 .1 0 0 0zm-3.8-1.6c-.6-.6-1.1-1.2-1.7-1.7.5.6 1.1 1.2 1.7 1.7zm2 .1c.1.1.1 0 .2 0 .1-.1 0-.1 0-.1l-.1-.1c-.1-.1-.1-.1-.2 0 0 .1-.1.1 0 .1 0-.1 0 0 .1.1 0-.1 0-.1 0 0zm-6.1 4.5c-.1-.1-.1-.1-.2 0v.1c-.1.1-.1.1 0 .2s.1 0 .2 0c0-.2.1-.2 0-.3zm2.1 3c0 .1.1.1.1 0 .1-.1.1-.1 0-.2l-.1-.1c-.1-.1-.1-.1-.2 0 0 .2.2.2.2.3zM14 9.6c-.1 0-.1 0 0 0-.1 0 0 0 0 0 .1.1.1.1.2 0l-.1-.1-.3-.3s0-.1-.1-.1v.1c.1 0 .1.1.2.2-.1 0-.1-.1-.2-.2l.4.4H14zm-3.6 5.5c0-.1-.1-.2-.2-.3-.1 0-.1 0-.1.1s.1.1.1.2c.1.1.1.1.2 0zm15.5 7.2c0 .1 0 .1 0 0 0 .1.2.2.2.2s.1 0 .1-.1l-.1-.1c-.1-.1-.1-.1-.2 0zm-13.2-6 1.6 1.6-1.6-1.6zm5.2 7.1s-.1-.1-.1 0v.1c.1.1.2.2.3.1h.1c-.2 0-.2-.1-.3-.2zm-9.5-9.7s-.1 0 0 0c.2.3.5.5.7.8-.3-.3-.5-.6-.7-.8zm-.9-.9s.1-.1 0 0c.1-.1.2-.2.3-.1h.1v-.1s-.1-.1-.1-.2c-.1.1-.2.2-.3.4zm1.1.6c0 .1 0 .1 0 0 .2.3.5.5.7.7l-.7-.7zm9.7 10.4c.1 0 0-.1 0-.1 0-.1 0-.1-.1-.1H18s0 .1.1.1c.1.2.1.2.2.1zM12.6 7.6s.1 0 0 0c0-.1 0-.1 0 0-.1 0-.2.1-.3.1v.1h.1l.1-.1s.1 0 .1-.1zm-4.7 5.1c.2.2.4.4.5.6-.1-.2-.3-.4-.5-.6zm17.8 9.7c.2 0 .3-.1.4-.4l-.4.4zm-9.5-11.2s-.1 0 0 0c0 .1 0 .1 0 0 .1 0 .2-.1.3-.2h-.1l-.1.1c-.1 0-.1.1-.1.1zm6.3 14.9c.1.1.1 0 .1 0 .1-.1 0-.1 0-.2h-.1c0 .1-.1.1 0 .2zM17 16.4c-.3.3-.6.5-.8.8.2-.3.5-.5.8-.8zm-7.1-6.3h.1V10h-.1v.1zm6.8 9.8c.1 0 .1.1.1.1 0-.1-.1-.1-.1-.1v-.2h-.1c-.1.1 0 .1.1.2-.1 0 0 0 0 0zm2.2-2.1c0-.1-.2-.2-.2-.3-.1.1-.1.2.2.3zm1-1.1c0 .1 0 .1 0 0 .1 0 .1 0 0 0v-.1c-.1-.1-.1-.1-.2 0 .1 0 .1.1.2.1zm-2.1 2.1c0 .1 0 .1 0 0 .1.1.1 0 0 0v-.1c-.1-.1-.1-.1-.2 0 .1 0 .1.1.2.1zm4.7 7-.3.3c.2-.1.3-.2.3-.3zM7.9 13.3c.1.1.1.2.2.3 0-.1-.1-.2-.2-.3zm7.7-2.9c.1.1.1.2.2.2 0-.1-.1-.1-.2-.2zm3.8 6.3c-.1.1-.2.2-.4.3.1 0 .3-.1.4-.3zm-3-5.5s-.1 0 0 0c-.1.1 0 .1 0 .1s.1 0 0-.1c.1 0 .1 0 0 0 0-.1 0-.1 0 0zm-3.3-2.8-.1-.1s0-.1-.1 0v.1c.2-.1.2 0 .2 0zm1.3.9c-.1 0-.1.1-.1.1.1 0 .1 0 .1-.1 0 .1.1 0 0 0zm4 3.1s-.1 0 0 0c-.1.1-.2.1-.2.2.1 0 .1-.1.2-.2 0 .1 0 0 0 0zm-6.5 5.1c-.1 0-.1 0 0 0-.1.1-.2.1-.1.1 0 .1 0 0 .1-.1-.1.1 0 0 0 0zm5.6-5.7s.1 0 .1-.1c0 0 .1-.1 0-.1h-.1c.1.2 0 .2 0 .2zm-9.4.5s.1 0 0 0c0-.1 0-.1 0 0-.1 0-.2 0-.2.1 0 0 .1-.1.2-.1zm1.2-2c.1 0 .1-.1.1-.1s-.1 0-.1.1zm3-2.7s0 .1 0 0c.1.1.1 0 .2 0-.1-.1-.1-.1-.2 0zm4.3 3.1s0-.1 0 0c-.1 0-.1 0-.2.1.1 0 .2-.1.2-.1zm-6.4-1.2s.1 0 .1-.1c-.1 0-.2 0-.1.1-.1 0-.1 0 0 0zm9.3 4c-.1 0-.1.1-.2.2.1-.1.1-.2.2-.2z"/><path d="M20.5 26.2c0-.1.1-.1.2-.2h.1c0 .1 0 0 0 0v-.1l-.2-.2c.1 0 .1 0 0 .1l-.1.1c-.1.2-.1.2 0 .3zM13 11.2c0 .1 0 .1-.1.1 0 .1.1 0 .1 0 .1 0 .1 0 0-.1zM13.1 11.4c.1 0 .1 0 0 0zM9.4 12.3zM11.7 13.3zM20.2 19.3l.8-.8c.1-.1.3-.1.3 0s.1.1.2 0 .2-.1.2.1v.1c0 .1 0 .2-.1.2s-.1.1-.1.2c.2.4.5.8.7 1.1 0 .1.1.1.1 0 .1-.1.2-.1.2.1v.1c.1.1.1.2-.1.2-.1 0-.1.1 0 .2.1.2.1.3-.1.4l-1.5 1.5c-.2.2-.2.2-.5.1h-.1c-.1.2-.1.2-.3.1-.1-.1-.1-.1-.1-.2v-.1c-.4-.2-.8-.5-1.2-.7h-.1c0 .1-.1.1-.2.1 0 0-.1 0-.1-.1-.1 0-.1-.1-.1-.2.1-.1 0-.1 0-.2-.2-.1-.2-.3 0-.4l1.2-1.2c.6-.3.8-.5.9-.6zm1.6 2.5c.1.1.1.1.2 0l.7-.7c.1-.1.1-.2 0-.3 0-.1-.1-.1-.1 0-.1.1-.2.1-.2-.1-.1-.2-.1-.2.1-.3.1-.1 0-.1 0-.1-.1-.2-.3-.5-.5-.7-.1-.1-.2-.3-.2-.4 0-.1-.1-.1-.2 0s-.2 0-.2-.1c0 0 0-.1-.1-.1 0-.1 0-.1.1-.2.1 0 .1-.1.1-.2-.1-.1-.2-.1-.2-.1l-.3.3c-.1.2-.3.3-.4.4l-.6.6c-.1.1 0 .1 0 .1l1 1c.2.3.5.6.8.9zm-2-1.9s-.1-.1-.1 0l-.4.4c-.2.2-.3.4-.5.5l-.2.2c-.1.1-.1.2 0 .3.1.1.1.1.2 0s.1-.1.2-.1c.2.1.2.1.1.3v.1c.3.1.5.3.7.5.1.1.3.2.4.2h.1c0-.1.1-.1.1-.1.1 0 .2.1.2.2s0 .1-.1.2 0 .1 0 .2c.1.1.2.1.3 0l.6-.6c.1-.1.1-.1 0-.2-.3-.3-.7-.6-1-1 .1-.4-.3-.8-.6-1.1zm2.9.6s.1 0 0 0c0-.1 0-.2-.1-.2l-.1.1s-.1.1 0 .1c0 0 0 .1.1.1 0 0 .1 0 .1-.1-.1 0 0 .1 0 0zm-1-1.6s0-.1 0 0c.2-.2 0-.2 0-.2-.1 0-.2.1-.3.2v.1c.1 0 .1.1.2.1 0-.2 0-.2.1-.2-.1-.1 0-.1 0-.1-.1 0-.1.1 0 .1zM19 21.5c0-.1 0-.1-.1-.1 0 0 0-.1-.1-.1 0 0-.1 0-.1.1-.1.1 0 .1 0 .2s.1-.1.1 0v-.1c.1.1.2.1.2 0 .1 0 0 0 0 0zm1.6.9c-.1-.1-.2 0-.2.1 0 0-.1.1 0 .1 0 0 0 .1.1 0 .1 0 .1 0 .1-.1.1.1 0 0 0-.1zM22.8 24.2l-.3-.3c-.1-.1-.1-.1 0-.2l1.1-1.1c.1-.1.2-.2.3-.2.1 0 .2.2.3.2.1.1.2.2.3.2L23 24.3c-.1 0-.1-.1-.2-.1zm.2-.3c.1.1.2.1.3 0v-.1l-.4-.4c-.1 0-.1.1-.2.2 0 .1 0 .1.1.1 0 0 .1 0 .2.2 0-.1 0 0 0 0zm.8-1.3c-.1-.1-.1 0-.1 0-.1.1-.1.1 0 .3l.3.3c0 .1.1.1.1 0 0 0 0-.1.1-.1s0-.1 0-.1l-.2-.2-.2-.2zm-.3.3c-.1-.1-.1-.1 0 0-.2.2-.2.2-.1.3l.2.2c0 .1.1.1.1 0 0 0 0-.1.1-.1s0-.1 0-.1l-.2-.2-.1-.1zm-.2.7c.1.1.1.1.2 0s.1-.1 0-.2l-.3-.3c-.1-.1-.1 0-.2.1s0 .1 0 .1l.2.2c0 .1.1.1.1.1zm-.6.1c-.1-.1-.1-.1-.2 0s-.1.1 0 .2l.3.3c.1.1.1 0 .2 0 .1-.1 0-.1 0-.1l-.2-.2c0-.1-.1-.1-.1-.2zm1.1-1.2c.1.2.3.3.4.4-.1-.2-.2-.3-.4-.4zM22.4 22.5v.1c0 .1 0 0 0 0s.1 0 .1.1v-.1c.1 0 0-.1-.1-.1.1 0 .1-.1 0 0zM14.6 19.5c-.1-.1-.1-.1 0-.2l.2-.2c.1-.1.1-.1.2 0l.4.4c.1.1.2.1.2.2 0 0 .1.1 0 .1l-.2.2c-.1.1-.1.1-.2 0l-.3-.3c-.1 0-.2-.1-.3-.2zm.8.4c.1-.1.1-.1 0-.2l-.4-.4h-.1s.1 0 0-.1h-.1l-.2.2s-.1.1 0 .1c0-.1.1-.1.1-.1-.1.1-.1.1 0 .2s.3.2.4.4v.1c0 .1 0 .1.1.1.1-.2.2-.2.2-.3h.1c0-.1 0 0-.1 0zm-.1.2c0 .1.1 0 .1 0 .1-.1.2-.2.2-.3-.1.1-.2.3-.3.3zM12.2 16.8c-.1-.1-.1-.1 0 0 0-.2.1-.2.1-.3.1 0 .1.1.1.1l.3.3c.2.2.2.2 0 .3 0 0-.1.1-.1 0l-.3-.3c0 .1 0 0-.1-.1zm.1-.1c-.1.1 0 .1 0 0 .1.1.2.3.3.4 0 0 0 .1.1.1s0-.1 0-.1.1.1.1 0V17l-.3-.3h-.2s.1 0 0 0c.1.1 0 0 0 0zM9.3 14l-.3-.3c-.1-.1-.1-.1 0-.2v-.1c.1-.1.1-.1.2 0l.4.4c.2.2.2.2 0 .3h-.1s-.1-.1-.2-.1zm0-.4c0-.1-.1-.1 0 0-.1 0-.1 0-.1.1v.1c.2.1.3.2.4.4 0 0 .1-.2 0-.2l-.3-.3s-.1-.1-.2 0c.1-.1.2-.1.2-.1zM15.4 20.2l.1-.1s.1-.1.1 0v.1c-.1.1-.2.1-.2.2 0 0-.1.1-.1 0 0 0-.1-.1 0-.1l.1-.1zm.2-.1c-.1 0-.1.1-.2.2.1-.1.2-.1.2-.2zM19.2 15s-.1-.1 0-.1l.3-.3c.1-.1.1 0 .1 0l.7.7c.1.1.1.1 0 .2s-.2.1-.2.2c-.1.1-.1.1-.2 0l-.3-.3-.4-.4zm.3-.3-.2.2v.1c.1 0 0-.1.1-.1 0 0-.1.1 0 .1s.1-.1.1-.1c-.1.1-.1.1 0 .2l.4.4s.1.1.1 0c0 0 0 .1.1 0 0 .1-.1.1-.1.1.1 0 .3-.2.3-.3v.1c0-.1 0-.1-.1-.1-.2-.1-.3-.3-.5-.4 0 0-.1-.1-.1 0-.1-.1-.1-.1-.1-.2.1 0 .1-.1 0 0zM17.1 12.4l.3.3v.1s0 .1-.1 0c0 0-.1 0-.1.1s0 .1-.1.1c0 0-.1 0-.1-.1l-.5-.5c-.1-.1-.1-.1 0-.2l.1-.1c0-.1.1 0 .1 0 .2.2.3.2.4.3zm0 .4s0-.1 0 0h.1c-.1-.1-.3-.2-.4-.4 0 0 0-.1-.1 0v.1l.1.1c-.1 0-.1-.1-.2-.1.2 0 .3.1.5.3zM20.6 15.5c.1 0 .1-.1 0-.1h-.1c-.1.1-.2.2-.2.3v.1h.1c0-.1.1-.2.2-.3zM18.4 16.4c-.4.2-.7.4-1 .6-.1 0-.1.1-.2.2 0 .1-.1.1-.2.1s-.1 0-.2-.1c0-.1-.1-.1 0-.2s.1-.1.2-.1h.2c.4-.2.8-.5 1.2-.7l.1-.1c.1-.3.2-.5.3-.8h.1v.1c-.1.2-.1.3-.2.5v.1c.1.1.1.1 0 .2-.1 0-.2.1-.2.2s-.1.2-.2.3c-.2.3-.4.7-.7 1-.2.2-.4.4-.7.5-.5.3-1 .6-1.6.8-.1 0-.1 0-.2-.1 1.5-.4 2.7-1.2 3.3-2.5zM17 18.2c.7-.5 1.2-1.1 1.5-1.8l-.6.9c-.2.3-.5.5-.8.8l-.9.6c-.3.2-.6.3-1 .4.8-.3 1.3-.6 1.8-.9zm.2-1.2c.5-.3 1-.5 1.4-.9-.4.3-.9.6-1.4.9zm1.5-1c.2-.2.2-.4.3-.7-.1.3-.2.5-.3.7zM17 17v.1h.1V17H17zm1.7-.9c.1.1.1.1 0 0 .1 0 .2 0 0 0 .1-.1.1-.1 0 0zM24.4 22.4c-.1.1 0 .2.1.2 0 .1.1 0 .1 0 .1-.1 0-.1 0-.2h-.2zM9.3 11.7c0-.1-.1 0 0 0-.2.1 0 .1-.1.1h.1s.1-.1 0-.1zM10.3 12.7c0 .1-.1 0-.1 0 0 .1.1.1.1.1-.1 0 0 0 0-.1zM13.2 11.4zM19.3 17.1l-.4.4c.2-.1.3-.3.4-.4z"/><path d="M20.2 19.7c-.1 0-.1.1-.1.1v.2h.1c-.1-.2 0-.2 0-.3zM21.8 21.6s0 .1 0 0c0 .1.1.1 0 0 .1.1.1 0 0 0 .1 0 .1 0 0 0z"/></g><path fill="none" d="M10.523 4.176 13.705.994l19.092 19.092-3.182 3.182z"/><path fill="#010101" d="M14.7 5.4c-.2.2-.1.5.1.7.2.2.4.2.5.1.2-.2.1-.3-.2-.8-.5-.9-.4-1.3-.1-1.6.4-.4 1-.4 1.7.2.7.7.6 1.3.3 1.7l-.7-.7c.1-.1.2-.3-.1-.6-.2-.2-.3-.2-.4-.1-.1.1-.1.3.2.7.5.9.4 1.3.1 1.7-.4.4-1.1.4-1.8-.3s-.7-1.3-.3-1.8l.7.8zM15.7 7.9l1.4-1.4-.2-.2.5-.5.2.2h.1c.4-.4.8-.4 1.3 0l.3.3-.4.4-.1-.1c-.1-.1-.2-.1-.3 0l-.1.1.3.3-.7.5-.3-.3-1.4 1.4-.6-.7zM19.4 6.8l.7.7-1 1c.4-.1 1.2-.1 1.7-.2l.8.8-1.8.1-.5 2.3-.8-.8.4-1.5h-.4l-.7.7-.8-.7 2.4-2.4z"/><path fill="#010101" d="m19.5 11.7 1.4-1.4-.2-.2.3-.5.2.2.1-.1c.4-.4.8-.4 1.3 0l.3.3-.4.4-.1-.1c-.1-.1-.2-.1-.3 0l-.1.1.3.3-.5.5-.3-.2-1.4 1.4-.6-.7zM21 12.3c.2 0 1.5-.1 1.7-.1l-.7-.7.5-.5 1.5 1.5-.5.5c-.2 0-1.5.1-1.7.1l.9.9-.5.4-1.6-1.6.4-.5zM23.2 15.4c.5-.5 1-.6 1.8-.5.6.1.7.1.9-.1.2-.2.2-.3 0-.5s-.3-.1-.6.1l-.6-.6c.4-.3 1-.5 1.7.1.6.6.5 1.2.1 1.6-.3.3-.6.4-1.3.2-.4-.1-.6-.1-.7 0l1 1-.6.4-1.7-1.7zM28.6 17.3l-.9-.9c-.1.1-.3.2-.4.3.1 0 .3.1.5.3.5.5.4 1.1 0 1.5-.5.5-1.1.6-1.8-.1-.6-.6-.6-1.1-.2-1.6l.6.6c-.1.2-.1.3 0 .5.2.2.4.1.6-.1.2-.2.3-.4.1-.6-.1-.2-.2-.2-.4-.1l-.5-.6c.3-.2 1.1-.8 1.5-1.1l1.5 1.5-.6.4zM27.6 19.8l1.6-1.6c-.1-.1-.3-.2-.4-.3l.4-.4c.3.2.6.3.8.3l.5.5-2.3 2.3-.6-.8z"/><path fill="none" d="M0 0h45v45H0z"/><path fill="none" d="M4.5 27h18v13.5h-18z"/><path fill="#FFF" d="M8.3 33.7h2.8c1.4 0 2.4.8 2.4 2.1 0 1.5-1.1 2.1-2.4 2.1H9.8v2.5H8.3v-6.7zm1.5 3.1h1.1c.7 0 1.1-.3 1.1-.9 0-.7-.5-.9-1.1-.9H9.8v1.8zM18.7 35.2h-2.6c0 .3-.2 1-.2 1.2.2-.2.6-.3 1.2-.3 1.3 0 2 .9 2 2.1 0 1.2-.7 2.4-2.4 2.4-1.3 0-2.2-.6-2.3-1.8h1.4c.1.4.4.7 1 .7.7 0 1-.5 1-1.2s-.2-1.1-1-1.1c-.6 0-.8.3-1 .6l-1.3-.2c.2-.8.4-2.7.5-3.6h3.9l-.2 1.2z"/><path fill="none" d="M27 4.5h13.5V18H27z"/><path fill="#010101" d="M32.6 11.6V6.8c-.3.1-.8.3-1.2.3V6c.6-.1 1.2-.5 1.6-.9h1v6.4h-1.4zM38.6 6.8c-.1-.3-.3-.6-.8-.6-.9 0-1.1.8-1.1 1.7.3-.3.7-.6 1.4-.6 1.2 0 2 .9 2 2.1 0 1.4-.9 2.4-2.3 2.4-1.9 0-2.5-1.4-2.5-3.2 0-1.7.6-3.4 2.5-3.4 1.4 0 2 .9 2.1 1.7h-1.3zm.1 2.6c0-.6-.2-1.2-1-1.2-.6 0-1 .4-1 1.1 0 .5.2 1.2 1 1.2.7.1 1-.4 1-1.1z"/></svg>