<?xml version="1.0" encoding="utf-8"?>
<!-- Generator: Adobe Illustrator 26.0.2, SVG Export Plug-In . SVG Version: 6.00 Build 0)  -->
<svg version="1.2" baseProfile="tiny" id="Layer_1" xmlns="http://www.w3.org/2000/svg" xmlns:xlink="http://www.w3.org/1999/xlink"
	 x="0px" y="0px" viewBox="0 0 1000 1000" overflow="visible" xml:space="preserve">
<rect fill="#C2B59B" width="1000" height="1000"/>
<circle fill="none" stroke="#FFFFFF" stroke-width="30" stroke-miterlimit="10" cx="500" cy="500" r="93.5"/>
<g>
	<path d="M363.4,228.7c39.8,38.6,77.6,76.4,116,113.7c26.2,25.5,51.7,51.6,78.1,76.8c37.8,36.1,74,73.8,111.6,110.1
		c25.8,24.8,50.8,50.5,76.4,75.6c5.5,5.4,5.4,5.7-0.1,11.2c-8.7,8.9-17.1,17.9-25.8,26.8c-4.5,4.6-6.1,4.5-10.8-0.1
		c-3-3-5.9-5.9-8.9-8.9c-1.5-1.5-3.2-3.2-5.3-1c-1.7,1.7-4.9,3.3-2.8,6.4c2,2.9,0.4,4.4-1.3,6.2c-3,3-7.1,5.5-8.6,9
		c-3.3,7.6-9.4,11.3-15.6,16c-9.1,6.9-16.6,16-24.9,23.9c-3.3,3.1-3.2,5.3,0.8,7.6c1.6,0.9,3.6,2.3,2.9,4.5
		c-0.8,2.5-2.9,4.4-5.3,5.5c-2.5,1.1-3.2-1.4-4.3-2.8c-3.8-4.8-4.8-5.4-8.5-0.2c-4.2,5.9-10.4,9.5-14.9,14.9
		c-2.3,2.7-4.6,4.9-4.7,8.9c-0.1,3.3-2.7,6.4-5.9,6.5c-5.6,0.2-8.2,4-11.5,7.3c-1.9,1.8-3.7,3.7-5.6,5.5c-1.1,1-2.4,1.7-3.8,0.8
		c-4.1-2.7-5.7,1.1-7.5,3.2c-2.3,2.9,0.8,4.4,2.4,5.9c3.3,3.3,6.9,6.4,10.4,9.6c2.5,2.2,2.5,4.3,0.1,6.7
		c-9.9,9.9-19.7,19.8-29.6,29.7c-2.5,2.6-4.7,2.6-7.5-0.2C494.7,754,440.8,699.9,386,646.7c-34-33-67.1-66.9-101.1-99.8
		c-31.5-30.5-62.6-61.4-93.8-92.2c-18.1-17.9-36.7-35.4-55.2-53c-7.5-7.2-7.6-7.3-0.3-14.6c4.4-4.5,8.8-9,13.3-13.4
		c3.1-3.1,3.9-6.1-0.1-9.2c-1.2-1-2.3-2.2-3.4-3.3c-6.5-6.6-6.8-13-0.1-19.6c3.5-3.5,4.8-6.2,0.4-9.8c-3.6-2.8-2.2-5.7,0.3-8.5
		c7.5-8.5,7.3-8.4-1.5-16.1c-6.1-5.4-11.9-11.3-17.9-16.9c-3.2-3-2.7-5.3,0.1-8.4c19.2-21.2,39.4-41.4,60.1-61.1
		c9.9-9.5,18.9-20,29.5-28.8c2.9-2.4,4.3-2.6,7.3,0c8.1,7,15.4,14.7,23,22.2c3.2,3.1,5.3,3.4,8.5-0.3c5.3-6.3,6.2-6.2,12.4-1.2
		c2,1.7,3.7,1.8,5.4-0.1c1.9-2.1,3.9-4,6.4-5.4c5.8-3.3,10.9-2.7,15.8,1.9c8.5,7.8,8.5,7.8,16.7-0.5c3.7-3.7,7.5-7.3,11-11.2
		c3.2-3.6,5.8-3.4,9.1-0.1C342.8,208.2,353.8,219.2,363.4,228.7z M529.2,501.3c-6.1-1.4-11.4,0.9-14.6,6.2
		c-3.1,5.2-2.5,12.7,1.3,17.1c3.2,3.8,11.1,5.5,15.9,3.4c6.5-2.8,9.9-9,8.8-16C539.5,505.8,535.3,501.9,529.2,501.3L529.2,501.3z
		 M430.5,598.4c-8.5-4-16.8-8.5-24.5-13.9c-1-0.7-2.1-1.7-3.2-0.3c-1.1,1.3-2.6,2.6-1.9,4.6c0.4,1.1,0.8,2.4,1.6,3.2
		c2.8,2.7,2.8,5.6,0.8,8.5c-1.5,2.1-0.9,3.3,1,4.7c19.2,13.8,40.4,21.1,64.7,20.4c-6.2-6.2-12.3-11.7-17.7-17.8
		C445.7,601.4,438.6,598.9,430.5,598.4L430.5,598.4z M429.2,677.1c0.9-1.1,2.2-1,3.4-0.8c19,2.5,38,4.9,57,7.5
		c12.8,1.7,25.5,3.7,38.3,5.4c1.2,0.2,3.1,1.1,3.3-1.2c0.1-1.7-1.2-2.4-2.7-2.6c-2.6-0.4-5.2-0.7-7.8-1.2
		c-7.1-1.5-14.5-1.5-21.2-4.9c1.9-1.1,3.8-0.3,5.6,0c6.2,1,12.4,2.1,18.6,3.2c7.5,1.3,7.6,1.3,7.3-6.5c-0.2-4.4-1-8.7-0.8-13.1
		c0.5-10.9-2.3-20.2-11.7-26.7c-1.3-0.9-2.3-2.2-3.4-3.3c-5.4-5.4-6.8-5.4-12,0.4c-2.4,2.7-5.3,4.5-8.7,3.8
		c-11.1-2.3-22.3,0-33.4-0.8c-2.1-0.1-3.7,0.7-5.2,2.1c-8.4,8.4-16.7,16.9-25.1,25.2c-2.4,2.4-1.6,3.3,1.4,3.8
		c14.1,2.2,28.2,4.4,42.3,6.8c8.4,1.4,17,1.8,25,5c-2.5,1.5-5.1,0.5-7.6,0.1c-16-2.7-31.9-5.7-48-8.1c-5.1-0.8-10.7-3.9-15.7,0.7
		c-3.7-3.3-5.3-0.4-7.2,2.6c4.9-5.1,5.5,1.5,8.2,2.6c-1.9,1.7-4.4,0-6.7,1.3c0.4,0.6,0.6,1.3,1.1,1.8c15.2,15.2,30.5,30.3,45.7,45.5
		c3,3,4.9,1.2,6.8-1c9.4-11.3,20.3-21.1,30.4-31.7c1-1,2.7-1.8,2.3-4c-5.1-0.1-10-1.6-14.9-2.3c-18.2-2.5-36.4-4.7-54.5-7.1
		C435.8,679.1,432.3,679,429.2,677.1z M701.4,580.1c-1.4-0.2-2.6-1-3.6-2c-5.9-5.9-11.8-11.9-17.7-17.8
		c-5.1-5.1-10.3-10.3-15.4-15.4c-0.3,0.4-0.7,0.7-1,1.1c12.6,12.6,25.1,25.1,38.2,38.2c-0.1-1.8-0.1-2.8-0.1-3.8
		c1.5,1.5,3,2.9,4.5,4.4c0.8,0.8,0.9,1.9,0.2,2.9c-0.6,0.8-1.6,1.3-2.3,0.7c-3.4-2.7-5.6,0.7-8,1.8c-6,2.6-8.6,8.4-7.5,14.4
		c0.3,1.8-1.1,3.4-2.1,2.1c-3.3-4.1-9.1-3.5-12.3-7.2c-4.4-5-7.7-11-14.4-13.6c-0.9-0.3-1.6-1.4-2.1-2.3c-1.8-3.7-3.5-7-8.1-8.3
		c-2.6-0.7-4.7-3.7-5-6.9c-0.3-2.1-1.5-3.5-3-4.8c-1.2-1.1-2.5-1.2-3.7-0.1c-1.3,1.2-1.8,2.6-0.5,4.1c0.8,0.9,1.6,1.8,2.5,2.7
		c23.1,23.1,46.2,46.2,69.3,69.3c1,1,2,2,3,2.9c1.4,1.2,2.8,1.4,4.2,0.1c1.3-1.1,2.3-2.4,1.1-4c-1.3-1.7-1-3,0.3-4.6
		c5.8-6.8,12-13.2,18.4-19.4c1.1-1.1,2.4-2.2,4.1-1.8c2.3,0.6,4.7,1.4,5.8-1.5c1-2.5-1.5-3.7-2.8-5.1
		c-23.2-23.2-46.4-46.5-69.6-69.7c-4.5-4.5-5.9-4.4-9.8,0.7c-2,2.6-1.2,5.5,1.9,5.7c6.9,0.6,11.4,3.4,11.6,10.9
		c0,1.5,1.2,1.3,2.2,1.5c5.9,1.2,9.6,4.5,10.3,10.7c0.1,1.3,0.4,2.7,2,2.6c5.2-0.4,6.7,4.5,9.9,6.9
		C703.6,577,702.7,578.7,701.4,580.1z M440,433.8c-11.1,3.2-20.5,7.3-29.1,12.9c-35.7,23.2-48.5,76.7-23.7,114.1
		c11.5,17.2,26.5,30,46.3,35.6c8.4,2.4,15.1,5.6,20.7,12c1.8,2.1,4,3.9,5.9,6c2.8,3.2,5.3,3.1,7.6-0.3c3-4.4,6.9-7.9,10.6-11.6
		c16.1-16.3,32.2-32.6,48.5-48.7c3.3-3.2,3.4-5.5-0.1-8.5c-2.8-2.4-5.2-5.2-7.8-7.7c-1.6-1.5-3-3-0.7-5.2c2.2-2.1,3.4-0.4,4.8,0.9
		c3,2.9,6,5.8,9,8.8c2.2,2.3,4.3,2.6,6.6,0.1c3.8-4.1,7.8-8,11.9-11.9c1.9-1.9,2.8-3.8,1.8-6.5c-0.8-2.4-1.4-5.1-0.2-7.8
		c1.1,7.4,5.1,12.8,11,17.4c0.3-14.8-1-28.8-6.8-42.2c-5-11.5-11.2-22.1-19.9-31.1c-3.6-3.7-4.6-3.6-6.1,1.2
		c-0.7,2.4-1.8,2.5-3.2,1.1c-1.6-1.6-3-3.4-4.2-5.3c-0.7-1.1-0.9-2.6,0.9-2.8c7.3-0.9,1.9-3.5,0.4-4.6c-9-7.1-19.6-11.4-30.2-15.4
		c-0.9-0.4-2.1-0.5-2.7,1.5c7.4,3.6,15,7.1,21,13c5.8,5.8,11.8,11.4,15.9,18.7c4,7.1,5.8,15.2,8.9,23.4c1.3-2.4,1.1-4,1.2-5.6
		c0.1-2,0.6-4.1,2.8-4.5c2.2-0.4,3.7,1.4,4.4,3.1c1.3,2.9,2.1,5.9,3.1,8.9c2,6,1.8,6.3-4.2,5.5c5.5,6.6,6.9,9.8,6.2,14.2
		c-0.5-0.8-1-1.3-1.2-1.9c-1.9-7.6-7.5-12.4-12.7-17.5c-1.3-1.2-2.6-1.9-4.1-0.6c-1.9,1.5-4.8,2.5-4.7,5.2c0.1,1.9,2.6,1.1,4,1.5
		c5.6,1.6,10.2,7.4,11,14c0.8,6.6-2.3,12.9-7.8,15.9c-5.9,3.2-13.1,2.5-18.3-1.3c-5.9-4.4-6.5-10.6-6.4-18.4
		c-7.8,6.3-14.6,11.9-21.5,17.3c-22.6,17.9-45.2,35.7-67.8,53.6c-1.9,1.5-3.7,3.3-5.7,0.6c-1.9-2.5,0.8-3.8,2.2-5
		c13.7-11.1,27.5-22.1,41.3-33.1c6.5-5.2,12.9-10.4,19.4-15.7c-13.3,2.7-25.6,2.3-37.9-3.7c-12.6-6.2-20.6-16.2-25.6-28.6
		C406.1,473.9,415.6,451.3,440,433.8z M370.3,563.3c-1.2-5.5-3.1-9.6-9.7-8.3c-3.1,0.6-4.4-1.2-4.7-4.1c-0.8-6.4-1.8-12.8-2.7-19.2
		c-1-7.1-1-7.3,6-8.2c3.7-0.5,5-1.9,5.6-5.9c0.6-3.9-2.1-6.8-1.5-10.6c0.6-4.2,3-7.2,4.9-10.7c3.2-5.5,5.9-11.4,8.6-17.2
		c3.1-6.7,8.5-12.1,12.4-20.2c-9.9,9.9-18.6,18.7-27.4,27.4c-1.7,1.7-1.9,3.4-1,5.7c1.7,4.3,0.6,7.9-2.9,11.3
		c-9.4,9.1-18.5,18.5-27.8,27.8c-2.1,2.1-3.8,3.7-1.6,7.1c1.9,2.9,1,6-1.6,8.5c-2.1,2.1-4.1,4.4-6.4,6.2c-4.2,3.3-3.9,5.9-0.1,9.6
		c33.5,32.9,66.1,66.8,100.3,99c3.6,3.4,5.7,3.1,9-0.3c7.4-7.9,15.3-15.3,22.8-23.2c2.6-2.8,5.4-4,9.2-3.8c4.7,0.2,9.5-0.2,15.6-0.3
		c-5.1-3.1-8.6-5.8-13.6-5.8c-15.3,0-29.5-4.1-43.3-10.7c-7-3.3-12.9-8.7-20-11.3c-9.1-3.3-14.8-9.9-19.7-17.2
		c-5.4-8.1-9.7-17.1-14.5-25.6C367.7,561.8,368.8,563.6,370.3,563.3z M607.7,668.3c-0.1,0.1-0.1,0.1-0.2,0.2
		c8.1,8.1,16.4,16.2,24.4,24.5c2.8,2.9,5,3,7.8,0c3.4-3.7,7-7.3,10.7-10.8c2.3-2.2,2.8-4.4,1.8-7.5c-7.6-25.2-15-50.5-22.4-75.7
		c-0.8-2.7-2.1-4-5-4.3c-9.7-1-19.4-2.4-29.1-3.6c-1.7-0.2-3.7-0.9-4.8,0.9c-4.7,7.1-11.7,11.9-17.4,18c-2.6,2.8-4.2,4.2,0.9,6.2
		c8.1,3.3,11.9,12.3,8,19.4c-2.3,4.3-1,6.6,1.8,9.5C592.2,652.7,599.9,660.5,607.7,668.3z M569.1,539c0.8,0,1.5-0.1,2.3-0.1
		c-0.4-4.3-0.6-8.6-1.2-12.8c-0.6-4.4,0.9-7.6,4.1-10.7c8.6-8.4,16.9-17.2,25.6-25.5c3.6-3.5,3.6-6,0-9.5
		c-10.2-9.8-20.2-19.8-30.5-29.5c-24.2-22.9-47.1-47.3-71.4-70.1c-2.4-2.3-4.1-2.6-6.5,0c-2.7,3-5.7,5.7-8.6,8.5
		c-2.7,2.7-5.8,3.8-9.5,2c-1.7-0.9-3.4-1.2-4.8,0.2c-4.9,4.8-9.8,9.7-15,15c4.3,1.5,7.7,0.4,11.1,0.2c3.4-0.2,5.2,0.8,5.1,4.6
		c-0.1,4.3,0.2,8.7,0.4,13.1c0.1,2,0.4,3.8,2.9,4.3c2.6,0.5,3.9-0.8,5.1-2.7c0.9-1.6,1.1-3.3,1.3-5c0.4-4.2,0.8-8.3,1.4-12.4
		c0.7-4.8,1.8-5.2,6-3c7,3.6,13.9,7.2,21,10.6c12.9,6.3,25.2,13.6,38.4,19.2c2.3,1,3.9,2.8,1.9,5.4c-2.4,3.2-4.9,6.4-7.7,9.1
		c-5.3,5.1-5.2,4.9-0.3,10.7c16.1,19,25.5,40.7,25.5,65.9C565.8,530.8,566.7,535.1,569.1,539z M533.7,788.9
		c6.2,6.2,11.5,11.5,16.8,16.8c1.5,1.4,3.1,1.4,4.7,0c1.3-1.2,2-2.5,0.8-4.1c-2.1-2.6-0.6-4.5,1.2-6.3c5.4-5.4,10.8-10.9,16.3-16.3
		c2-2,4.2-4,7.2-1.3c1.2,1,2.3,0.2,3.2-0.7c1-1,1.1-2.2,0.3-3.3c-0.9-1.1-1.9-2.1-2.9-3.1c-12.9-12.5-25.8-25-38.6-37.6
		c-11.1-10.9-22.1-21.9-33.1-32.8c-1.5-1.4-3-3.4-5.3-1.2c-2.3,2.2-0.5,3.7,0.9,5.3c1.6,1.6,3.2,3.2,4.8,4.8
		c11.9,11.9,23.7,23.7,35.6,35.6c1.3,1.3,3.4,2.9,1.3,4.8c-2,1.9-3.4-0.4-4.7-1.6c-11.3-10.9-22.5-22-33.9-32.8
		c-3.4-3.2-5.8-9.2-10.1-9c-4.2,0.2-6.7,6.1-10.3,9.1c-4.1,3.4-3.3,5.9,0.2,9.2c13.1,12.8,26,25.9,39,38.9c1.2,1.2,3,2.5,1.2,4.4
		c-1.8,1.9-3.2,0.1-4.4-1c-13.7-12.7-27.2-25.7-40.1-39.2c-2.4-2.5-4.1-3.9-7.3-0.9c-3.1,3-2,4.9,0.5,7.3
		c10.9,10.8,21.7,21.7,32.7,32.5c5.9,5.9,12.1,11.6,18.2,17.3c1.2,1.2,2.7,2.8,4.5,1.5c3.7-2.7,7.3-5.6,10.7-8.6
		c0.9-0.8,1.4-2.2,2.8-1.5c0.8,0.4,1.7,1.3,2,2.2c0.4,1.1-0.7,1.8-1.7,2.3c-2.7,1.3-4.1,3.6-5.4,6.2
		C539.7,787.9,538.2,790.1,533.7,788.9z M204.2,269.8c10-10,20-20,30-30c2.5-2.4,3.8-4.6,0.4-7.2c-7.6-5.9-14-13.1-20.9-19.8
		c-7.6-7.4-7.5-7.4-14.7-0.1c-0.4,0.4-0.7,0.7-1.1,1.1c-19.3,17.5-37.2,36.4-55,55.3c-2.8,3-2.7,5,0.1,7.8
		c7.7,7.4,15.3,14.8,22.6,22.6c3.6,3.8,6,3.2,9.3-0.3C184.6,289.2,194.5,279.6,204.2,269.8z M588.3,504.7
		C588.3,504.8,588.3,504.8,588.3,504.7c-4.2,4.4-8.6,8.7-12.9,13c-1.5,1.5-3,3-2.8,5.4c0.6,7.8-0.4,15.7-0.4,23.5
		c0,6.8,3.7,14.2-1.9,20.7c-1,1.1-0.2,2.2,0.8,3.2c4.7,4.9,9.4,9.8,14.2,14.7c1.8,1.8,3.9,2.7,6.5,3c8.8,1.1,17.6,2.4,26.4,3.6
		c5.5,0.8,5.8,0.4,4.8-5c-2.7-14.8-5.2-29.6-7.8-44.3c-3-16.5-6.4-32.9-8.6-49.5c-0.5-3.8-1.9-4.7-4.8-1.6
		C597.2,495.9,592.7,500.3,588.3,504.7z M419.3,300.2c-4.2,3-7.5,7.1-11.1,10.8c-5.6,5.7-5.6,8.6,0,14.1
		c11.9,11.8,23.7,23.7,36.1,35.1c9.5,8.7,18.5,18.1,27.6,27.2c2.5,2.5,5.5,4,8.3,1.6c5.8-4.8,11.2-10,15.8-16
		c0.9-1.1,2.3-2.9,0.5-4.7c-1.2-1.3-2.4-1.5-4.2-1c-3.6,1.1-6.3-2-5.5-4.2c1.5-4.1-1.1-5.4-3-7.4c-2.8-2.8-6-5.3-8.9-8.2
		C462,334.8,449,321.9,436,309c-1.1-1.1-2.1-2.2-4-2c-5.4,0.6-7.6-1.5-6.7-6.6c0.2-0.9,0.3-1.8-0.7-2.2c-1.1-0.4-1.6,0.4-1.9,1.2
		c-0.5,1.5-0.9,3-1.5,4.5c-0.1,0.3-0.8,0.4-1.1,0.5C418.9,303.1,421,301.6,419.3,300.2z M234.6,488c1.6,1.5,2.8,0.6,4,0.6
		c3.7,0.1,6.4,2.5,6,5.7c-0.5,3.6,1.2,5.3,3.2,7.1c16.4,15.2,32.4,30.8,48.2,46.7c1.4,1.4,2.6,2.5,5,1.9c3-0.7,5.1,1.7,5,4.1
		c-0.2,3.4,1.5,5.6,2.7,8.5c5.4-5.4,10.5-10.4,15.5-15.5c4.3-4.4,4.2-6.1-0.2-10.5c-11.4-11.4-22.8-22.7-34.2-34
		c-10.3-10.2-20.6-20.4-30.9-30.6c-3.5-3.5-6.9-3.6-10.5,0c-3.8,3.8-7.6,7.6-11.3,11.4c0.8,1.5,2.1-0.7,2.7,0.9
		C238.1,485.4,236.5,486.6,234.6,488z M215.5,474c-0.3-0.8-0.5-1.6-0.8-2.3c-9.7-22.6-19.6-45.1-29-67.8c-3.3-8-9.5-13.2-15.2-19
		c-0.7-0.7-1.7-1.4-2.7-1.5c-4.6-0.2-7-2.2-7.2-7.1c-0.1-2.4-2.1-4.1-4.3-4.8c-2.2-0.8-3.4,1.1-4.7,2.5c-4.7,4.9-9.4,9.8-14.2,14.7
		c-4.9,5-4.9,5.1-0.1,9.9c15.5,15.4,31,30.8,46.4,46.2C193.9,454.9,203.9,465.1,215.5,474z M409.6,278.5
		c-16.3-17.8-32.9-34.7-50.3-50.9c-9.9-9.2-19.3-18.8-28.8-28.2c-1.8-1.8-3.4-3-5.6-0.5c-5.1,5.8-11.3,10.4-15.9,16.6
		c-1.1,1.5-3.3,2.7-2.1,4.9c1,2,2.5,3.8,5.2,3.8c3.1-0.1,5.1,1.8,5.9,4.3c3,9.5,10.2,15.6,18.2,19.6c12.9,6.4,26.7,11.2,40.1,16.7
		C387.4,269.3,398.5,273.9,409.6,278.5z M564.8,672.2c-3.8-7-4.7-7.1-10.4-1.3c-4.6,4.8-9.1,9.7-13.5,14.6c-1.1,1.2-3.5,1.8-2.9,3.9
		c0.5,1.7,2.6,1.3,4.1,1.7c16.2,4.4,32.3,8.7,48.5,13c8.6,2.3,17.2,4.5,25.8,6.7c4.2,1,9.1-1.8,11.8-6.6c2.1-3.9-1.6-5.4-3.4-7.2
		c-14.1-13.8-28.3-27.5-42.5-41.2c-0.4-0.4-0.8-0.7-1.1-1.1c-1.7-1.7-3.5-1.9-5,0C572,660.1,563.5,662.8,564.8,672.2z M240.2,294.7
		C240.2,294.6,240.2,294.6,240.2,294.7c17.8-17.8,35.5-35.7,53.4-53.3c3.6-3.5,2.8-5.8-0.8-8.3c-0.7-0.5-1.8-0.7-2.2-1.4
		c-2.7-4.2-4.9-2.8-7.8,0c-16.3,16-32.1,32.6-48.4,48.6c-22.3,21.9-43.8,44.6-65.7,66.9c-5.5,5.6-5.6,5.6,0.1,11.3
		c0.2,0.2,0.5,0.5,0.7,0.8c2.4,3.2,4.6,2.9,7.2-0.1c3.8-4.4,7.6-8.6,11.7-12.7C205.6,329.2,222.9,312,240.2,294.7z M507.1,586.4
		c-1.7-7-4.2-5.3-7.1-2.4c-4.7,4.9-9.6,9.6-14.4,14.5c-1.3,1.3-3.3,2.3-3.2,4.5c0.1,2.3,3.4,0.3,3.8,2.5c-12.5,8.8-12.8,12-2.1,22.7
		c1.2,1.2,2.5,2.5,3.7,3.7c1.3,1.2,2.7,2.2,4.5,2.4c2.5,0.3,5.4,0.5,6.6-1.8c1-2-1.6-3.1-2.9-4.4c-4.6-4.6-4.8-7.8-0.2-12.4
		c4.2-4.2,8.4-8.4,12.6-12.6c1.5-1.5,2.6-3.1,3.2-5.2c2.3-7.8,8.2-13.2,14.7-16.9c3.8-2.2,7.3-4.4,10.4-7.4
		c4.6-4.3,9.1-8.6,13.8-12.8c5.6-5,7.8-4.8,13.3,0.3c1.3,1.2,2.5,3.5,4.7,2.2c2.1-1.2,1.8-3.6,1.6-5.7c-0.3-2.5-1.4-4.6-3.2-6.4
		c-3.2-3.2-6.4-6.4-9.5-9.7c-3.1-3.3-6.1-2.9-9,0.2c-2.3,2.5-4.4,5.2-6.9,8.3c-0.5-5.4-2.5-4.9-5.2-2.2c-5.6,5.5-11.2,11-16.8,16.6
		c-4.2,4.2-4.1,4.3,0.6,8.4C513.8,574.7,510.3,579.3,507.1,586.4z M390.3,350.4c0.1,4,2.7,5.5,4.6,7.4c14.8,14.6,29.7,29,44.4,43.7
		c7.3,7.2,8.5,7.5,15.5,0.3c0.5-0.5,1-1,1.5-1.5c4.6-4.9,4.7-5.6,0-10.2c-7.5-7.5-15-15.2-22.6-22.6c-9.6-9.3-18.4-19.5-29.8-27
		c2.4,2.4,4.8,4.8,7.2,7.2c-4-3.7-8.9-6.1-13-9.5c-3.6-3-6-2.7-9.2,0.6c-3.6,3.7-1.4,5.7,1.2,8.1c1.4,1.3,2.7,2.7,3.2,4.7
		c0.1,0.4,0.1,0.9,0.2,2.1C392.3,352.4,391.6,351.7,390.3,350.4z M297.3,490.3c2.4,2.5,3.2,7.2,8.4,6.1c1.4-0.3,3.5,2.1,3.2,2.9
		c-1.2,3.3,1.6,4.1,3,5.6c4,4.2,8.2,8.1,12.3,12.2c8.8,8.7,8.9,8.6,17.4-0.5c3.4-3.7,3.1-6.5-0.3-9.7c-9.5-9-18.6-18.4-28.3-27.2
		c-10.4-9.4-18-22.2-32.3-26.9c-1.6-0.5-3-2.2-4.6-0.6c-2,1.9-6,4.2-4.7,6.2c2.4,3.7,2.1,8.4,4.6,11.4c5.1,6.2,11.2,11.5,16.9,17.1
		c0.5,0.4,1.3,1,1.8,0.8c5.2-1.5,5.5,3.6,7.8,6.1C300.7,492.7,299,491.5,297.3,490.3z M369.2,612.9c-15.9-15-32.3-33.1-50.4-49.6
		c-2.6-2.4-4.2-4.4-7.6-1c-3.5,3.5-2.9,5.8,0.5,9c11.6,10.9,23,21.9,34.4,33c22.4,21.8,44.7,43.7,67,65.7c3,3,5.3,3.4,8.1-0.1
		c2.8-3.4-0.1-5.1-1.9-6.9C403.2,646.9,387.1,630.9,369.2,612.9z M567.1,446.9c0.3-0.3,0.6-0.6,0.8-0.8c11.4,11.4,22.8,22.6,34,34.2
		c3.1,3.2,4.9,2.5,7.6-0.2c3.2-3.2,1.1-5.1-1.1-7.3c-20-20-40.1-39.9-60.5-59.5c-13.9-13.3-27.4-27-41-40.5
		c-2.5-2.5-4.4-3.3-7.4-0.4c-3.2,3.1-2.3,5,0.4,7.7C522.5,402.2,544.8,424.6,567.1,446.9z M618.6,482.5c-0.4,0.2-0.9,0.5-1.3,0.7
		c3.2,27,7.5,53.8,11.5,80.6c0.7,5,3.1,2.2,4.8,0.6c10.1-10.1,20.1-20.4,30.3-30.4c2.7-2.7,2.8-4.7,0-7.3
		c-7.1-6.5-14-13.1-20.9-19.8C634.8,498.8,626.7,490.6,618.6,482.5z M368.8,375.2c-0.3,0.3-0.5,0.6-0.8,0.9c0.2,0.5,0.4,1,0.7,1.4
		c12.1,13.4,25.8,25,38.6,37.6c0.5,0.4,1.2,1,1.7,0.9c2.7-0.6,2.6-0.6,4.6,1c1.9,1.6,3.7,4.5,6.6,2.5c2.8-1.9,6.4-4.2,6.6-7.7
		c0.3-3.8,2.8-0.7,3.8-1.8c-0.3-0.6-0.5-1.2-0.9-1.5c-13.4-13.4-26.8-26.9-40.4-40.2c-2.2-2.2-4.6-5.9-7.9-5.4
		c-3.7,0.6-6.2-0.6-8.5-2.6c-3.5-3.1-5.2-0.2-7.3,1.7c-2.4,2.2-2.1,3.8-0.2,6.6c4.1,5.9,9.5,10.6,13.4,16.7
		C375.6,382,372.2,378.6,368.8,375.2z M319.6,441.2c-4.4-4.4-9.7-7.4-14.5-11c-3.2-2.4-5-2.7-7.9,0.2c-3,3-3.2,5.3,0,8.3
		c1.9,1.7,4.8,4.7,3.4,6.5c-2.6,3.2,0.1,4,1.4,5.3c12.2,12,24.6,23.8,36.8,35.8c10.3,10.2,10.4,10.2,20.3-0.4c3-3.2,3-5.8-0.1-8.9
		c-14.4-14.3-28.7-28.6-43.1-42.9c-1.5-1.5-2.9-3.1-6.2-3.3C314,434.2,317.5,437.1,319.6,441.2z M319.4,404.9
		c1.9-1.7,3.3-3.5,5.1-4.3c5.8-2.5,8.9-7.3,12.3-12.3c3.2-4.7,7.2-9.1,12.5-11.7c4.1-2,7-5,9.3-8.8c3.9-6.4,8.7-11.7,15.4-15.2
		c2.7-1.4,4.9-3.6,6.2-6.2c3-5.7,7.9-9.7,12.3-14.2c2-2,4-2.5,6.3-0.1c3.5,3.8,5.1-0.5,7.1-2c2.3-1.7,1.3-3.3-0.5-5.1
		c-5-5-4.9-9.3-0.1-14.5c2.5-2.7,5.2-5.2,7.7-7.9c1.2-1.2,2-3.7,0-3.7c-4.9,0-7.3-3.8-10.8-5.8c-11.5-6.2-22.9-12.8-34.3-19.1
		c-4.6-2.5-9.3-4.8-13.9-7.3c0.1,1.4,0.7,2.1,1.3,2.6c13.6,11,25.4,24,37.6,36.5c7.5,7.7,7.8,16.4,1.1,23.4
		c-16.4,17-33.2,33.6-49.9,50.2c-4.1,4-7.3,3.3-9.6-2c-1.2-2.8-2.1-2.9-3.9-0.8c-2.5,2.9-5,5.7-9,6.8c-1.1,0.3-2.2,1.8-2.8,3
		c-4,7.7-9.7,13.6-17.5,17.4c-2,1-3.4,2.8-4.1,5.1c-2.4,7.1-8.2,11.6-14.2,15.2c-3.2,1.9-5.8,3.7-7,7c-0.8,2.5-2.4,4.3-4.3,5.8
		c-4.5,3.6-7.5,9.2-13.6,10.9c-1,0.3-2.4,1.4-2.2,3.2c3.2,0.4,4.7-1.9,6.5-3.7c15.3-15.3,30.6-30.7,46-45.9
		C313.7,395.9,317.2,397,319.4,404.9z M352,452.9c0-2.2-3.1-2.7-1.9-5c2,0.4,3,1.9,4.2,3.1c4.7,4.6,9.4,9.4,14.1,14
		c1.5,1.4,3.1,3.5,5.3,1.2c2.9-3,7.4-5,6.4-10.5c3.5,3.6,0.7,5.7-1.6,8c-2.2,2.2-4.2,4.7-6.8,6.6c5.5-1.7,9.6-5.6,12-10.4
		c2.1-4.2-2.7-6.1-5.2-8.6c-0.9-0.9-1.8-1.7-2.6-2.6c-12.4-12.3-24.8-24.6-37.2-36.8c-1.6-1.6-3.3-4.2-5.6-3.1
		c-2.8,1.4-4.3,0.2-5.9-1.3c-2.2-2.1-4.2-3.9-7-0.9c-2.5,2.7-4.2,5.1-0.5,8.3c1.8,1.5,2.2,4,2.5,6.2c0.2,1.7,0.7,3.4,2.1,3.9
		c3.5,1.2,4.7,4.4,6.9,6.8C337.7,439,344.8,445.7,352,452.9z M535.1,722.3C535.2,722.3,535.2,722.3,535.1,722.3
		c4.3,4.1,8.5,8.3,12.7,12.5c1.7,1.7,3.2,2.5,5-0.2c6.8-10,15.8-18,24.9-25.9c0.9-0.8,2.4-1.4,2.3-2.6c-0.1-1.9-2-1.6-3.3-1.9
		c-10.1-2.6-20.7-4-30.3-7.9c-10.4-4.2-17.2-1.4-23.1,6.8c-0.1,0.1-0.2,0.3-0.4,0.4c-2.5,2.2-2.5,4.3-0.1,6.6
		C527.1,714.1,531.1,718.3,535.1,722.3z M656.6,589.8c-1-0.8-1.6-1.4-2.3-2c-9.1-8.2-9-8.1-17.8,0.6c-3,3-3.6,5.8-2.3,9.8
		c3.5,10.8,6.6,21.7,9.8,32.6c2.1,7.2,2.7,7.3,8.1,2.3c7.5-7,13.8-15.3,22.2-21.4c2.6-1.9,1-3.4-0.4-5.2
		C668.8,600.2,661.4,596,656.6,589.8z M207.7,419.2c0.2-0.2,0.3-0.3,0.5-0.5c11.7,11.7,23.5,23.5,35.2,35.2
		c7.7,7.7,16.1,7.8,23.9,0.1c15.5-15.4,30.9-30.9,46.3-46.3c1.8-1.8,4.5-4,1.7-6.6c-2.3-2.2-4.5,0-6.3,1.8
		c-5.7,5.6-11.4,11.2-16.9,16.9c-9.5,9.7-18.9,19.7-28.5,29.3c-5.8,5.8-11,5.8-16.9,0.2c-5.2-5-10.1-10.2-15.2-15.2
		c-18.8-18.5-37.7-36.9-56.5-55.3c-1.4-1.4-2.9-3.6-5.2-1.4c-1.9,1.8-0.8,3.3,0.8,4.8C183,394.5,195.4,406.9,207.7,419.2z
		 M362.3,278.2c-14.5-14.9-29.8-28.9-44.8-43.3c-1.5-1.4-3.1-3.4-5.3-1.2c-2.1,2.2-0.3,3.8,1.2,5.3c1.9,1.8,3.6,3.8,5.5,5.5
		c22,19.9,42,41.9,63.9,62c9.6,8.8,9.4,12.9,0.3,22c-9.2,9.3-18.5,18.6-27.7,27.9c-5.7,5.7-11.3,11.4-17,17.1c-1.4,1.4-2.6,3.2-1,5
		c1.8,2,3.5,0.5,5-0.8c3.3-2.9,6.9-5.5,9.7-8.7c12-13.4,25-25.8,37.6-38.6c8.8-9,8.8-15.6-0.2-24.7
		C380.6,296.4,371.5,287.3,362.3,278.2z M359.4,386.8c-0.8,1.3,1.4,3.7-1.2,2.6c-3.3-1.4-6.6-3.4-9.1-5.9c-3.5-3.3-4.8,0-6.8,1.5
		c-2.4,1.8-2.2,3.3-0.4,6c4,6.2,8.7,11.9,13.7,17.3c-4.8-1.7-6.8-6.8-11.3-8.8c13.4,15.7,29.2,28.9,44.5,42.8
		c-2.6-2.6-5.3-5.3-7.9-7.9c0.2-0.2,0.4-0.5,0.6-0.7c2.2,1.8,4.3,3.6,6.9,5.7c-1.3-5.5-1.3-5.5,3-8.5c5.1-3.5,5.1-3.5,0.6-7.8
		c-5.2-5.1-10.6-10.1-15.1-15.8c0.3-0.3,0.7-0.7,1-1c6.3,6.3,12.7,12.7,19,19c0.2-0.2,0.4-0.4,0.5-0.6
		C384.8,412.1,372.2,399.6,359.4,386.8z M205.8,271.8c0.1,0.1,0.1,0.1,0.2,0.2c-10,10-19.9,20.1-30.1,29.9c-3.4,3.3-2.2,5.4,0.5,8.2
		c2.9,3,5,3.4,8.2,0.2c19.7-19.9,39.4-39.6,59.3-59.3c3-2.9,3.4-5.1,0.2-8.2c-3.2-3.1-5.4-4.2-9-0.4
		C225.4,252.5,215.5,262.1,205.8,271.8z M197.7,413.3c9.6,18.2,19.2,36.4,28.8,54.6c0.7,1.4,1.6,2.7,3.2,3.3
		c2.5,0.9,3.9,2.6,4.6,5.2c1,3.6,3.1,3.3,5.3,1.1c2.4-2.3,4.6-4.8,7-7.1c4.6-4.5,8.1-4.6,12.7-0.4c2,1.8,3.6,3.4,6.1,0.8
		c2-2.2,4.9-4.1,1.3-7.2c-1.7-1.5-0.9-3.3-0.3-5.3c-10.7,5.3-16.5,4.3-24.6-3.5C227.4,440.7,213.4,426,197.7,413.3z M428.2,479.9
		c0.2,5,0.9,8.8,2.7,12.4c1.9,4,3.6,4.2,6.8,1c11.2-11.5,22.7-22.7,33.9-34.2c2.6-2.7,8.2-5.1,6.6-9c-1.6-3.8-7.4-3.9-11.6-4.9
		c-1.3-0.3-3-0.9-3.9,0.5c-1,1.8,0.9,2.7,1.9,3.9c1.6,1.9,3.4,3.5,4.8,5.5c1,1.5,1.4,3.4-0.1,4.9c-1.6,1.6-3.2,0.4-4.6-0.6
		c-3.7-2.7-7.4-5.2-10.9-8.1c-4.2-3.4-7.6-2.6-11.6,0.6c-4.9,3.9-8.7,8.8-12,13.9c-1.2-0.8-1.2-1.5-0.9-2.1
		c3.4-7.5,9.6-12.4,16-17.3c-6.8,2.8-11.4,8.1-15.7,13.7c-2.6,3.3-2.3,5.7,0.5,8.6c3.9,4.2,7.5,8.7,11.1,13.2
		c1.3,1.6,2.6,3.8,0.6,5.6c-1.8,1.6-3.6,0.2-5.1-1C434.1,484.5,431.6,482.6,428.2,479.9z M570.3,644.6c-6.9-0.9-12.4-3.6-14.7-10.2
		c-1.4-3.9-3-3.5-5.4-1c-4.1,4.3-7.5,9.7-12.5,12.5c-7.7,4.3-6.6,10.5-5.8,16.9c1.1,8.5,0.3,17.2,2.3,26.3c3.4-4.2,8.3-6.7,5.1-12.6
		c-0.3-0.5,0.1-1.9,0.6-2.4c5.5-5,9.3-12.6,18.6-11.8c-3-5.3-3-5.6,2.8-10.1c-2.2,3-3.7,5.2-1.2,7c2.8,2,4-0.9,5.5-2.2
		c2-1.7,3.7-3.7,5.5-5.6c0.7-0.7,1.8-1.5,1.3-2.6c-0.6-1.4-2-1-3.2-1.1c-0.8,0-1.7,0.2-2.5,0.4c-0.7,0.1-1.7,1-2-0.5
		c-0.2-1.2,0.3-2,1.6-2.2C567.6,645.4,568.8,646.5,570.3,644.6z M569.7,582.3c-1.1-1.1-2.2-2.3-3.3-3.3c-10-8.9-6.3-9.9-17.1,0.1
		c-3.2,3-4.4,5.9-2.9,10.1c0.7,2,2.1,4.6-0.1,6.4c-4.6,3.9-2.3,6.6,1,9.6c3,2.7,5.8,5.6,8.6,8.5c2,2.1,3.8,2.1,5.8,0
		c5.4-5.7,10.6-11.6,16.6-16.7c2.4-2,2.2-4.1,0-6.2C575.4,588,572.6,585.2,569.7,582.3z M516.1,611c1.4-2.5,3.5-2.4,5.2-1.4
		c5.7,3.2,9.4,0.4,12.8-3.8c1.3-1.6,3-3,4.4-4.4c6.5-6.5,7.1-11.7,2.2-19.6c-2-3.2-4.2-4.8-7.3-1.2c-1,1.2-2.3,1.9-3.9,2.3
		c-7.1,1.8-11.6,7.4-14.6,13.2c-1.8,3.6-3.8,6.8-6.5,9.6c-2.4,2.5-4.9,4.9-7.3,7.5c-5.8,6.2-5.8,6.4,0.7,11.9c0.4,0.3,0.8,0.7,1.2,1
		c1.9,1.5,2.6,1.2,2.7-1.4c0.1-4.1,3.4-7.4,6.4-7c5,0.6,6.1-2.4,8.2-5C519,610.9,517.2,612.6,516.1,611z M216.1,282.2
		C216.1,282.2,216.1,282.2,216.1,282.2c-9.5,9.5-19.1,19-28.5,28.5c-1.9,1.9-4.6,3.8-1.3,6.9c2.7,2.5,5,3.7,8.3,0.2
		c8.6-9.2,17.7-17.8,26.2-27.2c9.7-10.8,20.5-20.5,31.2-30.3c2.6-2.4,3.3-4.5,0.4-7.4c-2.9-2.9-4.8-2.3-7.3,0.3
		C235.5,263,225.8,272.6,216.1,282.2z M319.5,482.9c0.1-0.1,0.1-0.1,0.2-0.2c8.5,8.5,17.1,17,25.6,25.6c1,1,1.8,2.6,3.3,1
		c3.6-3.6,7.2-7.1,10.5-11c1.5-1.7,0.9-4.3-0.4-5.9c-1.8-2.2-3,0.4-4.2,1.3c-3.9,3-7.8,3.3-11.3-0.3c-15.6-16-32.3-30.9-47-47.8
		c-0.8-0.9-1.4-1.8-2.4-0.8c-2.4,2.3-5.4,4.2-6.5,7.3c-0.2,0.6,3.3,2.4,5,3.8c1.5,1.2,2.9,2.5,4.3,3.9
		C304.2,467.6,311.8,475.3,319.5,482.9z M495.8,478.8c0.7-6.9-1.8-11.9-4.2-16.9c-1.4-3-3-1.8-4.7,0c-4.6,4.8-9.3,9.5-13.8,14.3
		c-0.9,1-3.3,1.9-1.8,3.6c1.4,1.6,2.7,0.2,3.7-1.2c0.7-1,1.7-1.2,2.8-0.6c0.9,0.5,1.2,1.6,0.7,2.3c-2.1,2.4,0.1,4.2,0.8,6.1
		c1.2,3.4,1,6.6-1.6,9.2c-2.6,2.6-5.7,3.2-9.2,2.3c-3.3-0.9-5.4-3-6.4-6.3c-0.7-2.3-1.9-2.7-3.7-0.9c-4.4,4.5-8.9,8.9-13.3,13.4
		c-1,1.1-1.8,2.3-0.2,3.5c4.5,3.4,9.6,4.7,16.1,4.6c-2.5-3.2-4.4-5.5-6.2-7.8c-1.2-1.6-3.3-3.4-1.2-5.4c1.8-1.8,4.1-0.4,5.7,0.8
		c3.4,2.5,6.6,5.1,9.9,7.7c1.8,1.5,3.8,2.9,6.2,1.8c7.1-3.2,13.4-7.6,16.7-15c1.1-2.4,0.9-4.7-0.7-6.9c-3-3.9-6-7.7-8.9-11.6
		c-1.2-1.6-3.5-3.4-1.2-5.3c1.9-1.5,3.9,0.1,5.6,1.4C489.6,474.1,492.3,476.2,495.8,478.8z M503.8,506.9
		c8.6-5.3,14.9-12.1,22.2-17.8c2.2-1.7,4.2-3.2,7.2-1.3c-3.9-22.3-21.7-42.5-39.2-47.5C514.5,459.6,517,481.7,503.8,506.9z
		 M239.4,376.2c0,0-0.1,0.1-0.1,0.1c-0.9-0.9-1.7-1.7-2.6-2.6c-9.3-9.2-18.6-18.4-27.9-27.7c-2-1.9-4.2-2.9-6.5-0.9
		c-2.5,2.2-1.1,4.4,0.5,6.4c0.8,0.9,1.6,1.8,2.5,2.7c18.8,18.7,37.7,37.3,56.5,56c1.1,1.1,2.4,2.1,3.7,2.9c1.7,1.1,3.7,1.6,5.3,0
		c1.8-1.9,0.9-3.9-0.5-5.6c-1-1.2-2.1-2.3-3.2-3.4C257.9,394.7,248.7,385.4,239.4,376.2z M301.1,497.5c-0.2,0.2-0.5,0.5-0.7,0.7
		c-8.6-8.6-17.4-17.1-25.8-26c-2.6-2.7-4.1-3.6-7.1-1c-3.3,2.8-2.1,4.9,0.4,7.3c10.3,9.9,20.6,19.8,30.9,29.7
		c7.6,7.4,15.2,14.8,22.7,22.4c3.3,3.4,5.1,0.6,7.2-1.4c2.7-2.4,0.8-3.6-1-5.3C318.8,515.2,310,506.3,301.1,497.5z M324.6,302.3
		c7.4,7.4,14.7,14.9,22.3,22.2c2.4,2.3,5.3,7.1,8.9,3.3c3.4-3.6-1-6.6-3.5-9c-18.9-18.6-37.9-37.2-56.9-55.6c-2.3-2.2-5-7.1-8.4-3.5
		c-3.4,3.5,0.7,7.2,3.4,9.6C302.2,279.9,313.2,291.3,324.6,302.3z M302.7,313.1c-0.1,0.1-0.2,0.2-0.3,0.3
		c-9.3-9.3-18.5-18.5-27.8-27.8c-1.5-1.5-3-2.9-4.6-4.3c-1.4-1.3-3.1-1.7-4.8-0.5c-2,1.4-1.8,3.4-0.8,5.2c1,1.8,2.5,3.4,3.9,4.9
		c19,19.7,39.4,38.1,58.9,57.3c0.9,0.9,1.8,1.7,2.8,2.3c1.5,0.8,3,0.7,4.3-0.7c1.3-1.4,1.4-2.7,0.3-4.2c-0.7-1-1.5-1.9-2.3-2.8
		C322.5,332.8,312.6,323,302.7,313.1z M264.9,372.4c-13.2-13.9-28.1-26.2-41.4-40c-2.1-2.1-4.5-4.1-7.1-1.2
		c-2.3,2.6-0.3,4.8,1.7,6.7c3.8,3.6,7.8,7,11.5,10.7c16.4,16.2,32.7,32.4,49.1,48.7c1.9,1.9,4.1,4,6.7,1.6c2.9-2.7,0.8-5.1-1.2-7.1
		C277.8,385.2,271.3,378.8,264.9,372.4z M246.3,313.2c-0.7-0.9-0.9-1.2-1.2-1.4c-2.2-2.2-4.6-5.6-7.8-2.8c-3.5,3.1,0.1,5.5,2.1,7.8
		c0.2,0.3,0.5,0.5,0.7,0.7c18.6,18.5,37.2,37,55.8,55.4c1.9,1.8,3.9,3.5,5.9,5.2c1.2,1,2.5,1.2,3.9,0.3c1.2-0.8,2.1-1.8,2-3.4
		c-0.2-1.9-1.4-3.2-2.7-4.4c-7.4-7.4-14.9-14.7-22.3-22.2c-1.9-1.9-3.8-3.1-6.2-0.8c-1,0.9-2.2,0.9-3.3-0.1
		c-1.2-1.1-1.7-2.4-0.6-3.7c2.8-3.1,0.6-5-1.5-7C262.7,328.7,254.7,320.2,246.3,313.2z M332.7,282.3
		C332.7,282.3,332.7,282.3,332.7,282.3c3.2,3,6.2,6.1,9.3,9.2c7.6,7.2,15.2,14.4,22.8,21.6c1.4,1.4,3,2.7,5,1.1
		c2.1-1.7,1.4-3.7,0.2-5.6c-0.5-0.7-1.1-1.4-1.7-2c-20-20.3-40.2-40.2-61-59.6c-0.8-0.7-1.6-1.4-2.5-1.9c-1.3-0.8-2.7-0.9-3.9,0.2
		c-1.4,1.2-1.4,2.8-0.5,4.3c0.8,1.3,2,2.4,3.1,3.5C313.2,262.8,322.9,272.6,332.7,282.3z M284.7,320.4c8.8,9.8,22.3,21.1,34.9,33.5
		c2.1,2.1,4.8,5.6,7.9,2.6c3.4-3.4-1-5.6-2.9-7.5c-19.9-19.6-39.9-39-59.9-58.5c-1.7-1.7-3.6-3.9-6.2-1.6c-2.9,2.6-0.6,4.7,1.3,6.6
		C267,302.7,274.3,309.9,284.7,320.4z M440.2,358.9c-0.1,0.1-0.2,0.2-0.3,0.3c-9-9-18-18.1-27-27c-3-2.9-6.7-1.8-7.8,2.2
		c-0.7,2.6,1.3,3.8,2.8,5.2c17.3,17,34.7,33.8,51.9,50.9c2.4,2.4,3.7,3,6.2,0.3c2.2-2.4,2.4-3.9-0.2-6.4
		C457.1,376,448.7,367.4,440.2,358.9z M245.5,341c-6-6-10.6-10.7-15.4-15.3c-1.9-1.8-4.1-5.1-6.9-2.3c-2.5,2.6,0,5.1,2,7.2
		c0.5,0.5,1,1,1.5,1.5c14.6,14.5,29.2,29.1,43.9,43.6c5.3,5.3,10.9,10.3,16.4,15.4c1.6,1.5,3.5,2.8,5.5,0.7c1.8-1.9,1.1-3.9-0.5-5.6
		c-0.8-0.9-1.7-1.7-2.6-2.6C274.7,368.5,259.4,354.2,245.5,341z M220.7,371.2c-0.2,0.2-0.5,0.5-0.7,0.7
		c-5.8-5.8-11.6-11.6-17.4-17.4c-1.8-1.7-3.7-4.6-6.5-1.9c-3.1,2.9-0.1,4.9,1.6,7c1,1.2,2.1,2.3,3.3,3.4
		c18.2,18,36.4,36.1,54.7,54.1c2.3,2.2,4.9,6,8.2,2.6c3.2-3.3-0.6-6-2.9-8.2C247.6,398.1,234.1,384.7,220.7,371.2z M311.9,303.2
		c0.1-0.1,0.1-0.1,0.2-0.2c10.4,10.4,20.7,20.7,31.1,31.1c2,2,4.2,3,6.3,0.7c1.9-2.2,0.5-4.2-1.2-6c-3.9-4.2-7.7-8.6-11.9-12.4
		c-16.9-14.9-32.2-31.4-48.4-47.1c-1.1-1.1-2.2-2.2-3.5-3.2c-1.5-1.1-3-0.9-4.3,0.3c-1.3,1.2-1.4,2.8-0.3,4.3
		c1.1,1.4,2.3,2.6,3.5,3.9C292.9,284.2,302.4,293.7,311.9,303.2z M610.5,484.2c-0.3,1.6,2.5,4.3-0.1,5.3c-2.9,1.1-1.9,2.7-1.7,4.4
		c2.9,17.9,5.8,35.8,8.8,53.7c2.4,13.9,5.1,27.8,7.7,41.7c0.3,1.9,0.9,3.7,3.1,3.5c2.7-0.3,1.9-2.5,1.7-4.1c-1-8-2.1-15.9-3.2-23.8
		c-3.6-24.3-7.3-48.6-10.8-73C615.5,488.1,615.3,484.5,610.5,484.2z M288.7,341.3C288.7,341.3,288.7,341.3,288.7,341.3
		c-2.3-2.2-4.5-4.4-6.7-6.6c-10.7-10.3-21.3-20.6-32-30.8c-1.9-1.8-4.2-3.2-6.4-1c-2.2,2.2-0.3,4.1,1.4,5.8
		c9.2,9.3,18.5,18.5,27.7,27.8c1.8,1.8,3.6,3.6,6.1,1c1.2-1.2,2.6-1.9,4.1-0.6c1.7,1.5,1.3,3.1-0.1,4.5c-1.8,1.8-1.2,3.1,0.5,4.7
		c8,7.7,15.9,15.6,23.9,23.5c1.9,1.9,4.2,4.1,6.7,1.6c2.6-2.6,0-4.8-1.8-6.6C304.3,356.8,296.5,349,288.7,341.3z M534,445.6
		c6.1-6.3,6.1-6.3-0.8-10.2c-4.6-2.5-9.2-4.9-13.9-7.2c-9.6-4.9-19.3-9.7-29-14.5c-1.1-0.5-3.5-1.9-3.3,0c0.3,3-2.4,7.5,3.3,8.9
		c2.3,0.6,5.8,1.9,4.6,5.2c-1.3,4,1.1,4.5,3.6,5.3c9.3,2.9,18,6.9,25.5,13C528.7,449.9,531.6,449.5,534,445.6z M339.4,251.7
		c2.8,4.9,6.4,8.7,11.2,11.1c16.4,8,31.9,17.9,48.2,26.2c6.9,3.5,7,3.4,12.4-2.2c2.9-3,3-4.6-1.2-6.1c-8-3-15.8-6.4-23.7-9.6
		C370.6,264.5,355,258.1,339.4,251.7z M224.1,413.9c0.2-0.2,0.4-0.4,0.7-0.7c6.7,6.7,13.3,13.4,20,20c1.4,1.4,3.1,2.7,5,1
		c2-1.7,1.5-3.8,0-5.6c-1-1.2-2.1-2.3-3.3-3.4c-19.6-19.1-39.3-38.3-58.9-57.4c-1.7-1.7-3.6-4.2-6.1-1.8c-2.4,2.3-0.5,4.5,1.2,6.3
		c1.3,1.4,2.7,2.8,4,4.1C199.2,389,211.7,401.5,224.1,413.9z M225.8,216.9C225.8,216.9,225.8,216.9,225.8,216.9
		c4.2,4.2,8.5,8.3,12.6,12.5c2.2,2.2,4.1,2.2,6.2-0.1c1.2-1.3,2.4-2.5,3.7-3.7c2.5-2.2,2.3-4.3,0-6.6c-7.4-7.1-14.5-14.6-22.1-21.6
		c-6.1-5.7-6.1-5.3-12.3-0.1c-3.1,2.6-3.1,4.6-0.3,7.2C217.7,208.7,221.7,212.9,225.8,216.9z M141.5,301.1c0.1-0.1,0.2-0.2,0.4-0.4
		c4.2,4.2,8.5,8.3,12.6,12.6c3.4,3.6,5.5,0.8,7.7-1.4c2.3-2.2,4.1-4.3,0.9-7.4c-8.3-8-16.4-16.1-24.5-24.4c-4.4-4.5-6.2,0-8.7,2.1
		c-3,2.5-2.7,4.8,0.1,7.4C134,293.3,137.7,297.3,141.5,301.1z M541.3,617.8c-0.4-0.4-0.7-0.8-1.1-1.1c-3.6-3.1-6.5-9.5-12.3-2.6
		c-0.6,0.7-1.6,0.2-2.4-0.1c-4.5-1.6-4.7,3.1-6.8,4.9c-1.9,1.7-0.2,3.5,1.2,4.9c3.4,3.5,6.9,7,10.3,10.4c5.6,5.5,5.6,5.6,11,0.1
		C550.9,624.4,550.4,627.1,541.3,617.8z M301.1,303.4c-8.2-8.2-18.7-18.8-29.3-29.2c-1.5-1.5-3.6-3.9-5.7-1.6
		c-1.8,2,1.2,3.3,2.3,4.5c9.9,10.6,20.6,20.4,31.1,30.4c12.9,12.2,25.4,25,38,37.5c1,1,2,1.9,3.1,2.8c0.9,0.7,1.9,0.8,2.9,0
		c1.1-1,1-2.2,0.1-3.2c-1.2-1.3-2.3-2.6-3.7-3.7C327.2,329.9,315.8,317.3,301.1,303.4z M187.2,402.7c5.8,13.8,11.6,27.5,17.5,41.3
		c4.6,10.7,9.4,21.4,14.1,32c0.6,1.3,0.8,3.4,3.1,2.5c3.4-1.2,5.2-5.8,3.6-8.9c-7.9-14.9-15.7-29.9-23.9-44.7
		C197.4,417.2,194.8,408.4,187.2,402.7z M413.3,423.3c-0.8-1.4-2.6-0.9-4.4,0.1c-2.9,1.7-5.8,3.3-8.6,5c-13.3,8.2-11.4,4.1-4.7,16.9
		c3.3,6.3,6.6,6.3,10.7,0.3c1.4-2,2.5-3.1,5.2-3.4c9.4-1.1,10.9-4.3,6-12.3C416.4,427.9,415.1,426,413.3,423.3z M457.1,427.1
		c2.3,3.1,5.3,1.2,8,1.2c1.6,0,2.6-1,2.6-2.7c-0.1-4.3-0.2-8.7-0.3-13c-0.1-2.3-1.1-3.5-3.6-3.4c-6.1,0.2-12.1,0.4-18.2,0.5
		c-3.6,0.1-4.4,1.9-4,5.1c0.4,2.9,0.9,5.9,0.6,8.8c-0.5,4.6,1.5,5.9,5.7,5.3c1.7-0.2,3.3-0.1,4.5-1.9
		C453.7,424.9,455.5,424.5,457.1,427.1z M312,269.6c-0.3,0.3-0.5,0.5-0.8,0.8c-5.7-5.7-11.3-11.4-17.1-17c-1.5-1.4-3.3-4.9-5.2-2.9
		c-2.5,2.4,1.2,4.1,2.7,5.6c22.4,22.3,44.6,44.8,67.7,66.3c1.5,1.4,3.2,4.8,5.3,2.5c2.1-2.2-1.3-3.8-2.7-5.2
		C345.3,302.9,328.6,286.3,312,269.6z M310,308.4c9.3,9.3,20.4,20.4,31.6,31.6c1.1,1.1,2.3,2.2,3.4,3.2c0.8,0.7,1.8,1.4,2.8,0.5
		c1.2-1.2,0.3-2.2-0.6-3.1c-0.5-0.5-1-1-1.5-1.5c-22.8-23.6-46.5-46.4-70.2-69.2c-0.8-0.7-1.6-1.4-2.4-2c-0.8-0.5-1.7-0.5-2.4,0.3
		c-0.7,0.8-0.5,1.7,0.1,2.4c0.9,1.1,1.9,2.1,2.9,3.1C284.9,284.9,296,296.3,310,308.4z M372.1,525.2c-1.5-1.7-15.4,0.3-16.2,2.2
		c-0.3,0.7-0.1,1.7,0,2.6c0.4,4.1,0.8,8.3,1.4,12.4c1.5,10.3,2.2,10.8,12.6,8.8c6.3-1.2,8.2-5.3,4.3-10.5c-2-2.6-2.2-4.7-1-7.6
		C374.3,530.5,373.1,527.7,372.1,525.2z M295.4,333c-13.5-13.9-27.7-27.1-41.7-40.4c-1.4-1.3-3-4.2-5-2.4c-2.3,2,1,3.4,2.1,4.9
		c1.2,1.7,2.8,3.1,4.3,4.5c20.1,19.6,40.3,39.1,60.4,58.7c1.9,1.8,3.7,3.7,5.6,5.5c1,0.9,2.1,2.5,3.5,1.3c1.8-1.6-0.3-2.7-1.1-3.9
		c-0.5-0.7-1.2-1.3-1.8-1.9C312.9,350.6,304.2,341.8,295.4,333z M586.8,651.2c0.2-0.2,0.4-0.4,0.5-0.5c-3.5-3.5-6.9-6.9-10.4-10.4
		c-1.4-1.4-2.9-2.1-4.5-0.5c-1.7,1.8-0.5,3.2,0.9,4.4c2,1.7,4.2,3.2,6,5c19.1,19.2,38.8,37.6,57.2,57.5c1.5,1.6,2.9,2.9,4.7,0.8
		c1.7-2-0.1-3.1-1.4-4.3c-3-2.7-6.1-5.2-9-8C616.1,680.5,601.4,665.8,586.8,651.2z M266.8,232.5c-0.2-0.2-0.3-0.3-0.5-0.5
		c-2.7,2.7-5.4,5.5-8.2,8.1c-2.6,2.4-2.1,4.2,0.2,6.6c2.4,2.4,4.3,3.1,7,0.3c7.4-7.9,15.6-15,22.5-23.5c1.6-2,4.1-3.7,1.1-6.6
		c-2.7-2.6-5-1.5-7.3,0.7C276.7,222.6,271.8,227.5,266.8,232.5z M222.4,387c-0.1,0.1-0.3,0.3-0.4,0.4
		c-10.7-10.7-21.5-21.5-32.2-32.2c-1.1-1.1-2.5-3.3-4.2-1.3c-1.3,1.5,0.7,2.7,1.7,3.9c0.3,0.4,0.7,0.7,1.1,1.1
		c22.4,23.5,46.7,45,69.5,68.1c0.1,0.1,0.2,0.3,0.4,0.4c1.2,0.8,2.2,3.1,3.8,1.5c1.5-1.5-0.5-2.7-1.6-3.8
		C247.8,412.4,235.1,399.7,222.4,387z M247.7,370.2c-12.2-12.2-24.4-24.4-36.6-36.6c-1.1-1.1-2.4-2.9-3.9-1.6
		c-2,1.8,0.4,3.1,1.5,4.2c23.3,23.7,47.2,46.6,71.1,69.6c0.5,0.5,1,1,1.6,1.4c0.7,0.5,1.6,1,2.4,0.3c1-0.9,0.6-1.9-0.1-2.8
		c-0.7-0.8-1.4-1.6-2.1-2.3C269.6,392.3,259.1,380.8,247.7,370.2z M301,389.8c-23.7-26.8-50.2-50.7-75.5-75.9
		c-0.6,0.6-1.2,1.3-1.9,1.9C249.1,340.8,273.7,366.6,301,389.8z M164.8,334.6c0.1,0.1,0.3,0.3,0.4,0.4c-4.1,4.1-8.2,8.1-12.2,12.2
		c-2.2,2.3-2,4.6,0.5,6.8c2.4,2.1,4.1,1,5.8-0.8c7.5-7.6,15-15.2,22.5-22.7c2.4-2.4,1.6-4.1-0.4-6.2c-2.1-2.1-4-2.4-6.2-0.1
		C171.8,327.7,168.3,331.1,164.8,334.6z M304.8,387.4c-0.3-4.3-2.4-5.7-4-7.3c-22.6-22.2-45.3-44.5-68-66.6
		c-1.2-1.2-2.7-4.1-4.4-2.3c-1.5,1.6,1.4,3.1,2.6,4.4c19.4,19.4,38.7,38.7,58.2,58C293.8,378.2,298.9,382.2,304.8,387.4z
		 M321.8,368.2c-0.9-2.5-2.7-3.8-4.1-5.2c-12-12-24-23.9-36.4-35.4c-10.6-9.9-20.6-20.4-31-30.6c-1.4-1.3-3.2-4.6-4.7-3
		c-2,2.2,1.5,3.6,2.9,5c22.4,22.5,45,45,68.2,66.8C317.9,366.9,318.8,368.7,321.8,368.2z M279.6,411.1c0.6-2.5-1.5-3.4-2.8-4.7
		c-23.2-22.8-46.4-45.5-69.7-68.2c-0.5-0.5-1-1-1.5-1.4c-0.7-0.5-1.5-1.3-2.3-0.7c-1.2,1-0.2,1.9,0.4,2.6c0.8,0.9,1.7,1.7,2.6,2.6
		c11.9,12.6,24.9,24,37.2,36.1c10.4,10.1,20.6,20.4,31,30.6C276,409.3,277,411.6,279.6,411.1z M262.2,232.4c1.6,0.2,2.1-0.9,2.8-1.6
		c4.8-4.8,9.6-9.6,14.5-14.4c4.6-4.5,6.5-4.5,10.9-0.2c3.9,3.7,7.7,7.6,11.6,11.3c1.4,1.3,2.7,3.8,5.1,1.4c2.1-2.1,0.6-3.8-0.9-5.3
		c-4.1-4.1-8.1-8.2-12.2-12.2c-5.5-5.3-10-5.6-15.6-0.6c-4.9,4.4-9.4,9.3-13.8,14.2C262.9,227,261.1,229.4,262.2,232.4z
		 M169.4,327.6c-5.1-1.4-7.5,0.1-9.4,2.1c-4.8,5-9.6,10.1-14.3,15.3c-3.7,4.2-3.8,8.6,0,12.6c4.6,4.8,9.4,9.3,14.3,13.9
		c1.4,1.3,3.1,2.8,5,0.9c2-2,0.1-3.5-1.2-4.8c-4.3-4.4-8.7-8.6-12.9-13c-2.9-3-2.9-5.8,0.4-8.9C157.2,340.1,162.8,334.2,169.4,327.6
		z M234.1,491.8c-0.4,2.1,0.9,3,1.8,3.9c21.5,21.4,43,42.9,64.5,64.3c1,1,2.2,3.1,3.8,1.7c1.9-1.7-0.3-3-1.4-4.2
		c-5.9-6.7-13-12.2-19.3-18.4c-14.9-14.7-29.7-29.5-44.7-44.2C237.7,493.6,236.7,491.7,234.1,491.8z M366.8,322.3
		c0.6-0.6,1.2-1.2,1.9-1.8c-24.5-25.5-50.2-49.8-76.5-73.5C315.9,273.3,342.4,296.7,366.8,322.3z M258,432.8c0.2-3-1.6-3.8-2.7-4.9
		c-21.8-21.8-43.7-43.6-65.6-65.4c-1.1-1.1-2.1-2.3-3.4-3.3c-1.2-1-2.6-3.5-4.2-1.7c-1.7,2,0.8,3.3,2.2,4.5c2.2,2,4.5,3.8,6.6,5.9
		c16.5,16.3,32.9,32.7,49.5,49C246,422.2,251.9,427.2,258,432.8z M568.6,724.5c2.6,0.5,4.3,0.9,6,1.1c3.1,0.3,5.9,0.5,2.8-3.8
		c-1.4-1.9-0.5-3.8,0.8-5.3c1.7-2,3.5-3.9,5.4-5.7c2.7-2.7,5.5-2.9,8.2,0c2.6,2.8,5.1,5.7,7.7,8.5c7,7.6,7,7.6,14.1-0.2
		c3.1-3.4,2.7-4.7-1.8-5.8c-8-1.9-16-3.6-23.7-6.3c-1.9-0.6-4.1-1.2-5.3,0.8C579.1,713.9,573.1,718.1,568.6,724.5z M428.6,420
		c1.8,0.1,3.4,0.3,4.9,0.4c4.3,0.3,6.1-1.6,5.6-6c-0.3-2.4-1.1-4.3-2.8-6c-16.4-16.2-32.7-32.4-49-48.6c-1-1-2.1-1.8-3.4-2.4
		c-0.9-0.5-2.2-0.3-2.8,0.7c-0.8,1.5,0.7,1.7,1.5,2.1c3.5,1.6,5.7,4.5,8.3,7.1c11.9,11.8,23.6,23.7,35.7,35.3
		C435,410.8,435.3,411.5,428.6,420z M344.6,452.7c6.1,6.1,12.7,12.8,19.4,19.4c1,1,2,2,3.1,2.8c0.9,0.7,2,0.6,2.8-0.4
		c0.9-1.1,0.3-1.8-0.6-2.6c-9.8-9.4-19.6-18.8-29.4-28.2c-6.8-6.5-13.4-13.2-20.1-19.8c-0.8-0.8-0.7-3.4-2.7-2.1
		c-1.8,1.1-1,2.7,0.1,4c0.9,1.1,1.6,2.3,2.7,3.2C328.5,436.2,335.8,444.7,344.6,452.7z M361.1,427c-5.4-5.4-12.9-12.9-20.4-20.4
		c-1.1-1.1-2.3-2.2-3.6-3c-1.3-0.8-2.4,0.1-3.1,1.1c-0.9,1.3,0.3,1.6,1.1,2.3c16.9,15.4,33.5,31.1,49.6,47.4c0.9,1,1.4,3.5,3.5,1.8
		c2.1-1.7,0.6-3.1-0.8-4.2C378.7,444.9,371.5,436.6,361.1,427z M381.1,554.1c-2.7-3-6.4-1.5-9.4-0.5c-2.8,0.9-0.8,3.6-0.2,5.4
		c0.7,2.3,1.5,4.8,2.9,6.7c3,4,6.4,7.6,11.6,9.1c2.3,0.6,3.6-0.8,5-2.1c0.9-0.9,0.9-1.7,0.1-2.8C387.4,565,384.1,559.9,381.1,554.1z
		 M386.3,397.2C386.2,397.2,386.2,397.2,386.3,397.2c-6.5-6.4-12.9-12.8-19.3-19.2c-1.2-1.2-2.1-3.5-4.1-1.6
		c-1.9,1.8,0.1,3.2,1.3,4.3c12.9,12.8,25.7,25.6,38.6,38.4c1.1,1.1,2.6,3.2,4.3,1.3c1.4-1.5-0.6-2.8-1.6-3.9
		C399.1,410,392.7,403.6,386.3,397.2z M387.7,351.4c-4.3,2.8-1.7,4.8,0.2,6.8c15.4,16.2,32.2,31,48.1,46.7c1.2,1.2,2.5,2.9,4.7,2.6
		c0.3-1.2-0.2-1.9-0.9-2.5c-13-12.7-26-25.3-38.8-38.1C396.3,362.2,390,358.8,387.7,351.4z M497.9,366.2c-1.4-4.9-66.7-68.6-71-69.1
		C450.9,319.7,473.7,343.6,497.9,366.2z M331.6,442.2c-0.3,0.3-0.5,0.5-0.8,0.8c-5.2-5.2-10.3-10.4-15.5-15.5
		c-0.9-0.9-2.1-1.8-3.1-0.5c-0.9,1.1,0.4,1.7,1.1,2.5c14,13.9,28,27.7,42,41.6c2.5,2.4,5,4.8,7.5,7.2c0.8,0.8,1.7,1.4,2.7,0.5
		c0.9-0.9,0.4-2-0.3-2.8c-0.9-1-1.9-2-2.9-3C352.1,462.6,341.9,452.4,331.6,442.2z M391.3,452.2c0.9-2.2-0.6-3.2-1.6-4.2
		c-16-16-32-32.1-48-48.1c-0.7-0.7-1.2-1.4-2.1-0.6c-0.8,0.6-0.9,1.6-0.4,2.4c0.5,0.9,1.2,1.7,1.9,2.4
		c15.4,15.2,30.7,30.4,46.1,45.5C388.3,450.6,389.1,452.1,391.3,452.2z M380.4,404.1c6.6,6.6,12.6,12.7,18.7,18.7c1,1,2.4,2,3.6,0.7
		c1.1-1.3-0.4-2.2-1.2-3c-12.9-12.7-25.9-25.4-38.9-38c-0.7-0.7-1.5-1.4-2.4-2c-1.1-0.7-2,0-2.7,0.9c-0.9,1.1-0.4,1.8,0.7,2.5
		C367.2,389.3,373.1,398,380.4,404.1z M669.2,643.6c0.8,1,1.1,1.5,1.4,1.8c9.6,9.6,7,9,16.5,0c3.2-3,2.8-5.2-0.1-8.2
		c-3-3.1-5-2.6-7.8,0.1C676.6,640.1,674.8,644.3,669.2,643.6z M668.3,624c-3.2,3.6-2.9,7.7-1.6,11.8c1,3.2,3,3.7,5.4,1.3
		c2.5-2.4,5.1-4.8,7.3-7.5c1.6-1.8,5.2-3.1,3.5-6.1c-1.4-2.6-4.7-2.6-7.6-2.5C672.6,621.2,670.3,622.1,668.3,624z M582.9,728.5
		c2.5,4.4-0.3,6.5-2.3,9c-2.3,2.9-7.7,4.9-2.4,10c5.5,5.2,7-0.9,9.9-2.9c1.9-1.4,3.5-3.4,5.1-5.2c1-1,1.4-2.3-0.2-3
		C589.1,734.9,587.3,730.8,582.9,728.5z M556.8,629.6c2.8,2.3,6.4,5.3,10,8.3c1.3,1.1,2.7,1.7,4.2,0.3c1.4-1.4,1.1-2.8,0-4.1
		c-4.4-5-8.7-9.9-13.1-14.8c-1.8-2-3.5-1.5-5.3,0.2c-1.9,1.7-2.3,3.4-0.4,5.3C553.3,626.2,554.7,627.5,556.8,629.6z M572.8,737.9
		C572.8,737.9,572.8,737.9,572.8,737.9c1.4-1.5,2.9-3,4.4-4.5c2.7-2.6,2.1-4.4-1.4-5.6c-7-2.4-13.5,1.7-13.6,8.9
		c0,2.6-0.2,5.7,2.6,6.9c2.6,1.1,3.8-1.8,5.4-3.2C571.1,739.7,571.9,738.8,572.8,737.9z M530.9,692.2c-5.7-0.8-10.1-1.4-14.5-2.1
		c-0.5-0.1-1-0.1-1.6-0.2c-2.6-0.1-4.1,1.7-5.3,3.6c-1.3,2.2,0.4,3.5,1.7,4.9c6.3,6.9,6.4,6.9,13.2,0.1
		C526.3,696.8,528.1,695,530.9,692.2z M584.5,595.2c4.1-1.8,4.7-3.7,2.2-6.3c-4.2-4.2-8.4-8.4-12.6-12.6c-3.2-3.2-5.9-7.6-11.6-4.8
		c-0.3,0.2-1-0.3-2-0.7c6,6,11.5,11.6,17.1,17.1c1.3,1.2,2.4,3.5,4.7,1.9c1.5-1,2.8-1.6,4.1,0C587.9,591.8,585.6,592.8,584.5,595.2z
		 M639.3,573c-0.7-0.7-1-1.1-1.4-1.4c-1.5-1.2-2.5-3.8-5.2-2.5c-2.5,1.2-2.5,3.5-2.2,5.9c0.5,3.5,0.8,6.9,1.4,10.4
		c0.2,1.3,0.6,3.5,2.4,2.4c3.5-2,6.6-4.9,8.4-8.4C644.4,576.2,640.5,574.9,639.3,573z M391.8,582.4c-1-1-2-1.9-2.9-2.9
		c-2.1-2.2-4.2-3-6.7-0.5c-2.3,2.4-1.8,4.7,0.4,6.8c1.8,1.9,3.8,3.6,5.5,5.5c2.1,2.3,3.5,2.4,5.8-0.2c2.1-2.3,3.5-3.8,0.5-6.1
		C393.5,584.2,392.7,583.2,391.8,582.4z M534.9,607.9c3.6,3.6,6.6,6.6,9.7,9.7c2,2,3.6,3.5,6.5,0.7c3-2.9,1.5-4.7-0.7-6.8
		c-1.6-1.5-3.1-3.3-4.8-4.8c-2.2-2-4.3-6.4-7.2-0.5C537.9,607.1,536.2,607.3,534.9,607.9z M651.4,653.1c0.2,6.5,3.3,10.8,4.1,15.7
		c0.3,1.8,0.4,4.4,2.2,4.9c1.9,0.5,3-2,4.3-3.3c1.2-1.2,4.3-2.3,1.8-4.9C660,661.7,656.1,657.8,651.4,653.1z M425,478.2
		c-3,18.6,16.8,38.8,33.4,37.2C438.4,510.5,427.4,498.3,425,478.2z M588.4,725.3c-0.4,0.3-0.7,0.6-1.1,0.9
		c2.9,4.1,6.3,7.7,10.4,10.4c3.5,2.3,7.7-0.8,7.4-4.9c-0.3-4.2-6.7-10.5-12.2-11.3c2.7,2.7,4.9,4.9,7.1,7.1c1.6,1.6,3,3.5,1.2,5.4
		c-2,2.2-4.2,0.9-5.9-0.7C592.9,730,590.7,727.6,588.4,725.3z M496,464.4c-2.8-15.3-28-27.1-37.7-21.4
		C475.9,442.4,487.9,450.1,496,464.4z M481.4,426.4c-1.2,1.4-2.9,2.6-2.8,4.8c0.1,2.6,0.1,5.8,2.8,6.7c2.4,0.7,2.7-2.5,3.7-4.1
		c1.2-1.9,2.2-3.9,3.2-5.9c1.3-2.6,0-3.5-2.4-3.5C484.1,424.2,482.5,425,481.4,426.4z M564.1,620.4c4.9-0.5,9.5-1.8,12.9,3.3
		c2.9,4.3,1.7,8.7,0.2,13.2c4.6-2.2,4.9-5.8,4.2-9.7c-1.1-5.9-4.8-9.1-12-10.6C566.1,615.9,565.5,618.6,564.1,620.4z M364.7,291.3
		c-1.1-1.1-1.7-1.7-2.3-2.3c-1.8-1.9-3.6-2.7-5.8-0.4c-2.1,2.3-0.4,3.8,1,5.3c1.3,1.4,2.7,2.7,4.1,4c1,0.9,2.1,1.2,3.3,0.3
		c1.1-0.8,2.4-1.7,2.2-3.3C367.1,293,365.4,292.1,364.7,291.3z M430.4,427.4c-0.6,0.5-0.8,1.2-0.4,1.9c0.4,0.7,1.2,0.8,1.8,0.5
		c0.9-0.5,1.1-1.3,0.5-2.1C431.8,427,431.1,427,430.4,427.4z"/>
	<path d="M434.1,559.6c-3.1,3.1-6.1,6.2-9.3,9.2c-2.1,2.1-4.5,3.6-7.3,1.2c-2-1.7-3.5-0.3-5.2,0.5c-1.1,0.5-2.3,1.3-3.4,0.2
		c-0.9-0.9-0.6-2.1,0-2.9c2.5-4.1,0.4-6.8-2.6-9.4c-2.1-1.8-4-3.9-6-5.9c-2.9-2.8-5.5-6.9-10.3-2.6c-0.7,0.6-2,0.4-2.9-0.4
		c-1.1-1-0.9-2.3-0.3-3.4c1.2-2.1,1.4-4,0.2-6.3c-1.3-2.7,0.2-5.1,2.1-7.1c6.1-6.2,12.3-12.4,18.4-18.6c2.7-2.6,5.5-2.8,8.3-0.3
		c5,4.4,8.7,10.5,15.9,12.1c0.7,0.2,1.6,1.2,1.7,1.9c0.8,6.4,6.1,9.5,10,13.5c3,3,3,5.7,0.1,8.6
		C440.5,553.1,437.3,556.3,434.1,559.6C434.1,559.6,434.1,559.6,434.1,559.6z M420.9,565.3c3.4-2.5,8-4.7,7.7-8.9
		c-0.3-4.2-1.5-6.6,4-4.1c0.9,0.4,1.6-0.1,2.4-0.6c5.9-3.5,6.1-6.9,1.6-12c-3.2-3.6-8.7-4.8-10.8-8.6c-2.8-5-7.2-7.9-10.8-11.8
		c-1.9-2-3.7-2.5-5.8-0.4c-1.9,2-6,2.9-3.9,7.1c0.6,1.2,1.1,2.3,0.1,3.4c-1,1.2-2.1,0.9-3.2,0c-1.1-0.9-2.3-1.3-3.3-0.2
		c-2.4,2.5-5.5,4.6-7.4,8.8c1.7-0.8,2.5-1.1,3.3-1.5c1.7-0.9,3.6-2.2,5.3-0.6c1.8,1.7,0.4,3.5-0.5,5.2c-0.4,0.8-0.9,1.6-1,2.4
		c-0.4,2.6,13,16,15.6,15.6c2.5-0.3,4.8-3.5,7.2-1.4C424,560,419.4,562.3,420.9,565.3z"/>
	<path d="M509.8,568.7c-8.1,8.2-20.6,8.4-28.6,0.5c-7.7-7.6-7.9-20.8-0.5-28.4c7.3-7.5,21-7.3,28.9,0.4
		C517,548.3,517.1,561.3,509.8,568.7z M509.1,561.4c3.4-7.6,1.3-15.3-5.5-19.6c-6.7-4.3-14.3-2.8-20.2,3.7c-5.5,6.2-5.4,12,0.3,19.1
		C492,572.7,501,571.6,509.1,561.4z"/>
	<path d="M408.1,497.1c3.2,3.6,3,9.1-0.5,12.2c-4.2,3.7-10.2,3.5-13.6-0.5c-3-3.5-2.5-9.9,0.9-12.9
		C398.6,492.7,404.6,493.2,408.1,497.1z"/>
	<path d="M443.5,574c3.7,3.5,3.9,8.8,0.6,12.1c-3.3,3.2-8.9,3.2-12.3,0c-3.2-2.9-3.1-8.2,0.2-11.8C435.1,570.9,440,570.7,443.5,574z
		"/>
	<path d="M460.2,603.3c-4.2-4-4.4-9.5-0.5-13.4c3.9-4,9.4-4,13.4-0.1c3.5,3.4,3.4,10.1-0.1,13.6
		C469.8,606.6,463.5,606.5,460.2,603.3z M461.2,591.6c-2.6,2.7-2.6,7.6,0.2,10.4c2.6,2.6,7.6,2.4,10.3-0.5c2.6-2.8,2.7-7.5,0.3-9.9
		C469,588.6,464,588.6,461.2,591.6z"/>
	<path d="M183.8,250.1c2.8-4.7,5.2-3.2,8.5-0.2c5,4.5,0.6,6.8-1.6,9.6c-2.9,3.8-5.1,1.4-7.6-0.8
		C179.1,255.3,179.5,252.5,183.8,250.1z"/>
	<path d="M655,538.9c-0.9,0.9-1.7,1.7-2.6,2.6c-5.8,5.8-6.3,5.6-12.1,0.1c-3.8-3.6-3.6-6.8-0.3-10.3c2.9-3,5.8-6,8.8-8.9
		c2.4-2.4,4.6-2.4,7.2,0.1C664.1,529.8,664.2,529.8,655,538.9z M645.1,529.5c-1.1,1.9-4.9,3.1-3.4,6.1c1.2,2.3,3.2,5.4,6,5.3
		c4.6-0.3,6.8-4.6,9.2-7.8c1.8-2.4-1.2-3.9-2.6-5.5C650.3,522.5,648,526.8,645.1,529.5z"/>
	<path d="M342.6,463.1c4.1,1.5,5.9,4.9,8.6,7.1c2.3,1.9,4.1,4.3,6.3,6.2c2.8,2.5,2.6,5.1,0.6,7.8c-0.1,0.1-0.2,0.3-0.3,0.4
		c-8.9,8.8-7.9,10.3-17.2,0.8c-4.5-4.6-9.2-9-13.8-13.4c-0.7-0.7-1.9-1.1-0.7-3.7c4.3,4.3,8.2,8.3,12.2,12.2c2.3,2.3,4.9,4.5,7,7
		c2.9,3.5,5.4,2.5,7.7-0.3c2.4-2.8,6.9-5.4,2.2-9.9c-3.3-3.2-6.4-6.4-9.6-9.6C344.3,466.5,342.8,465.6,342.6,463.1z"/>
	<path d="M480.1,714.1c-9.1,9.7-9.1,9.7-18.4,0.4c-8.4-8.4-8.4-8.4-0.3-16.7c2.4-2.5,5-4.9,7.3-7.5c2.6-2.8,5-3.3,7.9-0.2
		c2.9,3.2,6.1,6.3,9.3,9.2c3.2,3,3.5,5.8,0.1,8.8C484,710.1,482.1,712.2,480.1,714.1z M465,711.2c7.5,7.3,6.2,8.2,13.9,0.2
		c7.2-7.4,6.5-5.6-2-14.3c-5.9-5.9-5.9-5.9-11.7,0.1C457.8,705,457.4,703.4,465,711.2z"/>
	<path d="M430.5,598.4c3.4,1.4,5.2,4.5,7.3,7.3c2,2.6,0.4,4.5-2.4,4.6c-4.7,0.2-9.4-0.8-13.6-3c-2.9-1.5-2.7-4.5,0.4-5.9
		C424.9,600.2,427.7,599.4,430.5,598.4C430.5,598.4,430.5,598.4,430.5,598.4z"/>
	<path d="M529.1,501.3c1.6,1.6,3.2,3.2,4.9,4.7c4.8,4.3,5.8,9.6,2.8,15c-2.6,4.8-8.2,7.2-13.3,5.7c-5.4-1.5-9.5-7.1-9.2-12.5
		c0.3-5.4,4.5-10.2,10.1-11.1C526.1,502.8,527.8,502.5,529.1,501.3C529.2,501.3,529.1,501.3,529.1,501.3z"/>
	<path d="M509.1,561.4c-8.1,10.3-17.1,11.4-25.3,3.2c-0.8-2.5-2-4.9-2.4-7.4c-0.8-5.4,1.1-9.7,5.6-13.2c4.8-3.7,9.5-3.8,14.6-1
		C509,547.1,510,553.8,509.1,561.4z M486.8,546.8c-4.8,4.8-5,12.3-0.4,16.8c4.9,4.8,12.5,4.8,17.3-0.1c5-5.1,4.9-11.5-0.3-16.6
		C498.3,541.8,491.9,541.8,486.8,546.8z"/>
</g>
<g>
	<path d="M191.7,724.9c-1.2,5.9-2.9,12-4.9,18.2c-2,6.2-4.2,12.3-6.6,18.2c-2.4,6-4.9,11.7-7.4,17.2c-2.6,5.5-5,10.5-7.4,15.1
		c-2.4,4.6-4.6,8.5-6.6,12c-2,3.4-3.6,6-4.9,7.9h28.6v-30.9c1.3-2.6,2.6-5.5,3.9-8.7c1.3-3.2,2.6-6.5,3.8-9.8
		c1.2-3.4,2.3-6.6,3.3-9.9s1.8-6.2,2.4-8.8h10.6v68.1h14v20.2h-14v31h-24v-31h-49.4v-19.2c3.6-6.3,7-13.1,10.4-20.4
		c3.3-7.3,6.4-14.7,9.4-22.5s5.6-15.5,8.2-23.4c2.5-7.9,4.8-15.6,6.8-23.2H191.7z"/>
	<path d="M268.3,724.9c6.1,0,11.6,1.1,16.6,3.3c4.9,2.2,9.1,6,12.5,11.3c3.4,5.4,6,12.6,7.8,21.8c1.8,9.2,2.7,20.7,2.7,34.7
		c0,13.9-0.9,25.5-2.7,34.6c-1.8,9.1-4.4,16.4-7.8,21.8c-3.4,5.4-7.5,9.1-12.5,11.3c-4.9,2.2-10.4,3.3-16.6,3.3
		c-6.2,0-11.7-1.1-16.7-3.3c-4.9-2.2-9.1-6-12.5-11.3s-6-12.6-7.8-21.8c-1.8-9.1-2.7-20.7-2.7-34.6c0-13.9,0.9-25.5,2.7-34.7
		c1.8-9.2,4.4-16.5,7.8-21.8s7.6-9.1,12.5-11.3C256.6,725.9,262.1,724.9,268.3,724.9z M268.3,745.1c-3.1,0-5.5,0.9-7.4,2.6
		c-1.9,1.8-3.4,4.4-4.4,8.1s-1.8,8.2-2.2,13.7c-0.4,5.5-0.6,12-0.6,19.5v14c0,7.5,0.2,14,0.6,19.5c0.4,5.5,1.1,10.1,2.2,13.7
		s2.6,6.3,4.4,8.1c1.9,1.8,4.4,2.6,7.4,2.6c3.1,0,5.5-0.9,7.4-2.6c1.9-1.8,3.4-4.4,4.4-8.1s1.8-8.2,2.1-13.7
		c0.4-5.5,0.5-12,0.5-19.5v-14c0-7.5-0.2-14-0.5-19.5c-0.4-5.5-1.1-10.1-2.1-13.7s-2.6-6.3-4.4-8.1
		C273.8,745.9,271.4,745.1,268.3,745.1z"/>
	<path d="M325.9,727.3h25.6v113.2h58v24h-83.6V727.3z"/>
	<path d="M131.5,874.3v-4.9h279.8v4.9H131.5z"/>
</g>
<g>
	<path d="M828.8,133.2c6.1,0,11.5,1,16.1,3c4.6,2,8.4,4.8,11.5,8.3c3.1,3.5,5.4,7.5,6.9,12.2c1.6,4.6,2.3,9.6,2.3,14.8
		c0,6.5-1.2,12.5-3.7,17.9c-2.5,5.4-6.2,9.8-11.3,13.1c6.3,3.1,10.9,7.5,13.6,13.1c2.8,5.6,4.2,12.2,4.2,19.7
		c0,5.5-0.7,10.6-2.2,15.5c-1.5,4.9-3.8,9.1-7,12.7c-3.2,3.6-7.3,6.5-12.3,8.6s-11,3.2-18,3.2s-13-1.1-18-3.2s-9.1-5-12.3-8.6
		s-5.6-7.9-7.1-12.7c-1.5-4.9-2.2-10.1-2.2-15.5c0-7.4,1.4-14,4.2-19.6c2.8-5.7,7.3-10.1,13.5-13.2c-5.1-3.3-8.8-7.7-11.2-13.1
		c-2.4-5.4-3.6-11.4-3.6-17.9c0-5.3,0.8-10.2,2.3-14.8c1.5-4.6,3.8-8.7,6.9-12.2c3.1-3.5,6.9-6.2,11.5-8.3
		C817.3,134.2,822.6,133.2,828.8,133.2z M828.8,212.7c-4.8,0-8.5,1.8-11,5.5c-2.5,3.6-3.8,9-3.8,15.9c0,6.9,1.3,12.2,3.8,15.8
		s6.2,5.4,11,5.4c4.8,0,8.5-1.8,11-5.4c2.5-3.6,3.8-8.9,3.8-15.8c0-7-1.3-12.3-3.8-15.9C837.2,214.5,833.6,212.7,828.8,212.7z
		 M828.8,153.3c-4,0-7.1,1.7-9.2,5c-2.1,3.4-3.2,8.3-3.2,14.8c0,6.5,1.1,11.4,3.2,14.8c2.1,3.4,5.2,5,9.2,5c4,0,7.1-1.7,9.3-5
		c2.2-3.4,3.3-8.3,3.3-14.8c0-6.5-1.1-11.4-3.3-14.8C835.9,154.9,832.8,153.3,828.8,153.3z"/>
</g>
<g>
	<path d="M795.2,432.4h18.6v12.5h-18.6v24.4h-12.4v-24.4h-18.5v-12.5h18.5v-24.5h12.4V432.4z"/>
	<path d="M855.6,457.1h16.9v12.1h-49.8v-12.1h18.5v-51.3h-18.6v-9.6c1.7-0.2,3.6-0.6,5.8-1.1c2.2-0.5,4.5-1.2,6.8-2s4.7-1.7,7-2.8
		c2.3-1,4.4-2.2,6.3-3.4h7.1V457.1z"/>
</g>
<g>
	<path d="M791.4,844.4h-28.9v-14.2h28.9V844.4z"/>
	<path d="M803.7,875.5h-10.3l17.1-94h10.2L803.7,875.5z"/>
	<path d="M849.3,785.9c3,0,5.9,0.4,8.6,1.2s5,2.1,7,3.8s3.6,3.9,4.7,6.6c1.2,2.7,1.7,5.9,1.7,9.7c0,3.6-0.6,7.1-1.8,10.5
		c-1.2,3.4-2.7,6.6-4.6,9.7c-1.9,3.1-3.9,6-6.2,8.8c-2.2,2.8-4.4,5.3-6.6,7.8c-2.1,2.4-4.1,4.7-5.8,6.7s-3,3.9-3.9,5.6h29.1v13.4
		h-47.1v-2.9c0-3.2,0.4-6.2,1.3-9c0.9-2.8,2.1-5.5,3.6-8c1.5-2.5,3.2-4.9,5.1-7.2c1.9-2.3,3.8-4.6,5.8-6.8s3.9-4.4,5.8-6.6
		c1.9-2.2,3.6-4.5,5.1-6.8c1.5-2.3,2.7-4.7,3.6-7.2c0.9-2.5,1.3-5.2,1.3-8c0-1-0.1-2-0.4-3s-0.6-2-1.2-2.9c-0.6-0.9-1.3-1.6-2.3-2.2
		c-1-0.6-2.2-0.8-3.7-0.8c-1.5,0-2.8,0.3-3.8,1s-1.9,1.6-2.6,2.7c-0.7,1.1-1.1,2.5-1.4,4s-0.4,3.1-0.4,4.8v4.9h-14.8
		c-0.1-0.4-0.1-0.8-0.2-1.3c-0.1-0.8-0.2-2-0.2-3.5c0-4.4,0.6-8.2,1.9-11.3s3-5.7,5.2-7.8c2.2-2,4.8-3.5,7.6-4.5
		C843.1,786.4,846.1,785.9,849.3,785.9z"/>
</g>
<g>
	<path d="M415.4,260.1l-8.9-8.9l6.3-12L395.6,222l-11.9,6.4l-8.4-8.4l61.6-31.6l10.1,10.1L415.4,260.1z M433.7,200.9
		c-1,0.7-1.9,1.3-2.8,1.9c-0.8,0.5-1.6,1-2.5,1.6c-0.9,0.6-1.7,1-2.4,1.4l-20.3,10.8l12.4,12.4l10.9-20.2c0.4-0.8,0.9-1.6,1.5-2.6
		c0.6-0.9,1.1-1.7,1.6-2.5c0.6-0.9,1.2-1.8,1.8-2.6L433.7,200.9z"/>
	<path d="M443.6,274.6l9.6,9.6l-6.9,6.9l-28.2-28.2l6.9-6.9l10.4,10.4l29-29L454,226.9l5.4-5.4c1.1,0.8,2.4,1.7,3.9,2.7
		c1.5,0.9,3.2,1.8,5,2.7c1.8,0.9,3.6,1.7,5.5,2.4s3.7,1.3,5.5,1.7l4,4L443.6,274.6z"/>
	<path d="M510,259.9c1.7,1.7,3.1,3.6,4.2,5.6s1.7,4,1.8,6.1c0.2,2.1-0.2,4.2-1.1,6.4c-0.9,2.2-2.4,4.3-4.5,6.5
		c-2.1,2.1-4.4,3.7-6.9,4.9c-2.6,1.2-5.3,2.2-8.1,2.9c-2.8,0.7-5.6,1.2-8.4,1.5c-2.8,0.3-5.5,0.5-8.1,0.7c-2.6,0.2-4.9,0.3-7.1,0.5
		c-2.2,0.2-3.9,0.5-5.3,1l16.5,16.5l-7.6,7.6l-26.6-26.6l1.6-1.6c1.8-1.8,3.8-3.3,5.9-4.3c2.1-1.1,4.3-1.9,6.5-2.5
		c2.3-0.6,4.6-1,7-1.2c2.4-0.2,4.8-0.4,7.1-0.5s4.7-0.3,7-0.4c2.3-0.2,4.6-0.5,6.7-1c2.2-0.5,4.2-1.2,6.1-2.1
		c1.9-0.9,3.7-2.2,5.3-3.7c0.6-0.6,1.1-1.2,1.5-1.9s0.8-1.5,0.9-2.3s0.1-1.7-0.1-2.5c-0.2-0.9-0.8-1.7-1.6-2.6
		c-0.8-0.8-1.8-1.4-2.7-1.6s-2-0.2-3,0.1c-1,0.3-2,0.7-3,1.4c-1,0.7-2,1.5-3,2.5l-2.8,2.8l-8.4-8.4c0.2-0.3,0.4-0.5,0.6-0.8
		c0.4-0.5,1-1.2,1.9-2.1c2.5-2.5,5-4.3,7.5-5.3c2.5-1,5-1.5,7.4-1.4s4.7,0.7,6.8,1.8C506.2,256.6,508.2,258.1,510,259.9z"/>
</g>
<g>
	<path d="M130.6,132.4h59.6v14.8H148v20.3h37.8v14.8H148v32.5h-17.4V132.4z"/>
</g>
</svg>
