<?xml version="1.0" encoding="utf-8"?>
<!-- Generator: Adobe Illustrator 26.0.2, SVG Export Plug-In . SVG Version: 6.00 Build 0)  -->
<svg version="1.2" baseProfile="tiny" xmlns="http://www.w3.org/2000/svg" xmlns:xlink="http://www.w3.org/1999/xlink" x="0px"
	 y="0px" viewBox="0 0 800 800" overflow="visible" xml:space="preserve">
<g id="bg">
</g>
<g id="scans">
	<image display="none" width="610" height="625" xlink:href="C2282657.jpg"  transform="matrix(1.28 0 0 1.28 9.6 0)">
	</image>
</g>
<g id="counters_00000155831629897369998050000010902328751353074356_">
	<g id="su_237">
		<g>
			<path d="M461.1,393.8c0-4.6,0.5-7.5,5.3-8.5c3.3-0.7,4.9-5,7-7.6c3.3-4.2-1.5-5.7-4.3-7.5c-3.5-2.2-4.4,0.5-5.3,2.9
				c-0.9,2.1-0.5,4.7-2.9,6.4c-2.9-2.1-0.9-4.5-0.5-6.8c0.4-2.6,1.8-5.7-1.3-7.5c-2.5-1.5-4.4-0.6-6.7,1.5c-1.9,1.8-5.5,1.7-8.4,2.4
				c-2,0.5-3.4-0.4-3.9-2.3c-1.3-5.5-2.1-11.2-0.1-16.4c1.3-3.4,5.7-5,9.5-5c4.2,0,8.1,0,11.7-2.5c1-0.7,2.2-1.4,3.4-1.6
				c11.4-2.3,16.4-7.4,18.8-18.7c1.9-8.9,7-16.7,8.4-26c0.9-6.2-0.7-12.3,0.5-18.4c0.6-3.1,1-5.9,3.9-8.1c4.8-3.7,6.9-9.4,9.6-14.7
				c0.5-0.9,0.5-2.7,1.1-2.9c6.8-2.1,6.1-9.3,9.6-13.5c2.3-2.8,4.7-5.4,8.9-4.5c5.5,1.3,10.3-1.7,15.4-3c2-0.5,3.4-3.2,3.4-5.7
				c0.1-5,2.1-9.5,3.7-14.1c2.5-7.2,6.7-13.3,14.1-16.3c9.1-3.6,21.6-0.1,27.4,7.4c1.2,1.5,1.1,3.1,1.2,4.8
				c0.2,3.8,0.4,7.7,0.8,11.5c0.5,4.2,0.8,7.1-3.2,11.3c-3.8,3.9-6.1,11.2-7.2,17.6c-0.2,1.1,0.3,2.6,0.9,3.7
				c6.3,10.4,4.6,20.4-0.3,31c-3.2,7-5.3,14.6-5.2,22.8c0.2,7.1,5.2,9.5,9.6,9.3c4.4-0.2,9.2,0.3,13.8-2c4.5-2.3,10.2-0.2,15.4-1.6
				c4.6-1.3,9.5-1.9,14.2-2.9c2.2-0.5,3.9-0.6,5-2.9c1.6-3.2,4.3-1.6,6.7-0.9c1.6,0.5,2.8,1.2,2.5,3.1c-0.5,2.8-2.7,3.1-5.1,3.7
				c-12.2,3.4-25.2,3-37.1,7.8c-1.6,0.6-3.1,1.1-4,2.8c-2.6,5.3-4,1.7-6-0.9c1,5.8-1.3,11.2-0.6,16.9c0.2,1.8,0.6,4,2.3,4.3
				c5.6,1,5.3,5.4,5.7,9.3c0.3,3.1-1.4,3.9-4.2,5.9c-7.4,5.2-12.7,0.2-18.5-1.6c-4.8-1.5-6.1,0.4-6.3,4.1c-0.2,3.5-0.1,7.1,1.6,10.6
				c4.1,8.5,1.8,17.8-5.6,23.6c-5.4,4.2-4.7,11.7-9,16.5c-0.6,0.7-0.7,2.8-1.1,2.8c-10.2,0.4-9,10.7-13.8,15.8
				c-1.4,1.5-1.8,4.2-4.5,1.8c-0.6-0.5-1.4-0.4-1.4,0.3c-0.2,9.3-8.1,17.7-3.1,27.7c0.7,1.5,1.2,2.6,3,2.5c5.1-0.2,6.8,4.1,8.4,7.5
				c2.6,5.3-1.5,10.5-7.8,8.8c-5-1.3-11.1,0.7-15.2-3.9c-0.3-0.4-1.6-0.2-1.7-0.5c-2.6-7.7-8.5-6.7-14.9-6.4
				c-6.6,0.3-9.9-6.4-6.5-12c3.6-5.9,7.7-11.6,6.9-19.6c4,1.6,2.4,4.9,4.7,6.6c1-15,12.7-27,10.5-42.7c-0.3-1.9-0.1-4.4,2.7-5.1
				c4.1-1,3.2-4.4,3.4-7.3c0.1-1.7-0.9-2.9-2.7-2.8c-3.5,0.3-8-2.4-10,2.2c-1.4,3.3-3.5,5-6.7,6c-1.3,0.4-2,1.5-2.4,2.8
				c-4.5,15.2-16.1,22.8-30.1,27.4c-5.6,1.8-7.7,6.9-11.7,10.2c-5.4,4.5-9.7,10.4-15,15.2c-5.3,4.8-4,16.9,2.2,20.5
				c3.4,2,5.2,4.3,3.7,7.6c-1.7,3.8-5.3,2-8.4,1.4c-5.4-0.9-11-0.1-15.9-3.7c-6.9-5.1-12.6-11.4-17.6-18.2c-2.1-2.9,4.2-15.1,8.2-16
				c3-0.6,4.3-2.4,5.6-4.5c4.9-7.4,11.1-13.6,17.3-19.8c2-2,3-4.9,4.7-6.3c5.4-4.4,7-10.3,9.2-16.2
				C458.3,388.6,459.5,392.2,461.1,393.8z M512.6,262.8c0,0.6,0,1.3,0,1.9c0.3,6.9,1.8,7.8,7.3,4.4c1-0.6,2-0.7,2.9,0
				c1.4,0.9,1.4,1.8,0.2,3c-1.1,1.1-2,2.9,0,3.5c1.8,0.6,3.3-0.8,3.1-2.9c-0.3-3.7,2-6.2,3.5-9.2c2.2-4.3,7.1-7,11.2-5.2
				c1.9,0.8,3.7,3.2,5.5,0.9c1.7-2.2,1.1-4.7-0.9-6.9c-1.6-1.7-2.6-3.9-4.2-5.6c-3.8-4.4-10.3-4.2-13.5,0.6
				c-2.6,3.9-6.8,6.8-10.5,8.1C512.9,257,512.6,259.3,512.6,262.8z M570.8,345.8c0.2-3.9-0.9-7.3-4.2-9.4c-1.9-1.2-3.3-2.4-4.1-4.4
				c-0.5-1.4-0.8-3-2.9-2.3c-1.6,0.5-2.6,1.8-2.4,3.4c0.5,5.2-0.2,10.7,2.7,15.4c1.5,2.5,2,6.7,6.5,5.5
				C570.3,352.8,570.7,349.3,570.8,345.8z M532.3,331.3c-1.2-3.7-1.1-7.8-3.7-11.6c-1.8-2.6-2.5-2.4-4.5-0.8
				c-4.9,3.8-4.4,9.2,1.4,15.2c1.4,1.5,2.2,3.9,4.9,2.5C532.2,335.7,532.1,333.5,532.3,331.3z M549.1,265.8
				c-3.4,2.4-0.5,6.5-2.4,7.8c-6.7,4.5-1.4,10.3-2.1,15.4c-0.3,2,1.4,3,3.3,3.1c2.1,0.1,2.3-1.8,2.5-3.1
				C551.4,281.5,553.4,273.7,549.1,265.8z M483.1,362.3c-0.3-1.7,0.4-6.3-3.8-5.8c-2.8,0.3-6.8,2.7-6.4,7.2c0.2,3.1,0,6.9,4.7,6.6
				C481.7,370.1,483.6,367.7,483.1,362.3z M504.2,290.6c1.3-2,0.4-4.1,0.1-6.2c-0.8-5.7-2.9-11.6,3.6-15.7c1.1-0.7,0.3-2-0.4-2.8
				c-1.2-1.3-2.2-0.5-3.3,0.4c-5,3.8-7.3,17.2-3.8,22.4C501.4,290,502.5,290.9,504.2,290.6z M575.1,245.1c2.5-3.3,3.1-6.6,3.5-9.9
				c0.4-2.8-1.5-4.5-4-4.8c-3-0.4-3.3,2.3-3.4,4.4C571,238.4,572.8,241.5,575.1,245.1z M570.7,202.2c0.6,1.9,0,5.5,3.6,5.9
				c2.7,0.4,3.9-1.9,4-4.6c0.2-3.2-1.3-5.6-4.2-6.2C571.4,196.8,570.7,199.2,570.7,202.2z M559.9,261.9c0.6,2.1-0.8,6.7,3.2,7.1
				c3.5,0.4,3.1-3.9,3.4-6.3c0.3-2.6-0.5-5.2-3.8-5.3C560.1,257.3,559.5,259,559.9,261.9z M506.2,295.7c3.1,1.7,1.7,8.2,6.6,6.8
				c3-0.8,3.7-5.4,1.9-7.7C512.5,292.1,509.4,295.8,506.2,295.7z M502,366.1c-0.8-1.9,0.5-5.2-3-5.5c-1.9-0.2-3.1,1.4-3,3.4
				c0,2.6,1.3,4.5,4,5.1C502.7,369.6,501.6,367.3,502,366.1z"/>
			<path d="M198.9,415.5c0.1-8,3.1-14.6,8-20.7c2.8-3.5,3.7-8.5,8.2-10.8c0.9-0.5,1.5-2,2.2-2c6.5-0.3,5.9-4.8,5.6-9.1
				c-0.2-2.7-0.3-4.9,3.6-3.2c3,1.3,4.4-0.5,4.6-3.3c0.2-2.1,0.5-4.3,0.1-6.4c-0.3-1.8,1.1-5.1-2.2-5c-2.3,0.1-5.8,1.1-5.6,4.2
				c0.6,9.8-10.6,11.6-11.6,20.1c-3.8-2.3-3-4.6-2.3-6.8c0.7-2.8,0.9-5.5-1.1-7.9c-0.8-0.9-2.6-2.5-3-1.5c-1.4,4.4-6.7,0.5-8.9,4.9
				c-1.6,3.3-8.6-0.1-8.9-4.5c-0.2-3.6-0.1-7.2-0.2-10.9c0-1.3-0.3-2.5,1.4-3c5.2-1.7,10.3-3.5,15.4-5.2c3.9-1.4,4.3,1.9,5,4.1
				c0.9,2.8-0.1,6,2.4,9.3c1.4-3.4,0.8-6-0.7-8.6c-1-1.8-2.5-5.1-0.3-5.6c3-0.7,7.8-3.9,8.9-1.9c3.8,6.7,1.8-2.5,3.3-0.9
				c4.2-8.4,7.6-17,9.8-26.4c1.6-6.8,5.9-13.2,7.5-20.5c0.5-2.1,0.9-4.1,0.3-6.3c-2.5-8.5-0.3-16.8,4.9-22.9
				c6.7-7.9,10.5-16.8,13.6-26.3c0.2-0.7,1.1-1.9,1.5-1.8c6.5,0.8,11.6-4.8,18.2-3.9c6.2,0.8,10.4-4.2,12.4-10.2
				c2.9-9.1,5-19.1,11.5-26.2c3.6-3.9,10.3-4,16.5-2.9c-3,4.6-4.6,9.1,0.7,12.8c1.1,0.8,2.3,2.5,3.9,1.5c1.5-1.1,2.9-2.6,2.5-4.8
				c-0.3-1.4-0.8-2.9-1.1-4.3c-0.4-1.4-1-3,0.9-3.8c1.6-0.7,2.7,0.3,3.9,1.3c8.1,7.2,7.8,17.5,9.7,26.9c0.3,1.5-0.6,3.6-3.1,2.5
				c-4.1-1.8-4.2,0.9-4.3,3.7c0,0.2,0,0.5-0.1,0.6c-8.3,11.2-1.5,22.9-1.1,34.3c0.3,10.7-3,20.5-5.8,30.4
				c-1.8,6.4,0.6,11.7,2.3,17.3c0.4,1.2,1.3,0.8,2.1,0.6c5.8-1.1,11.9,0.1,17.5-2.1c4.4-1.7,9.1-0.4,13.7-1.5
				c5.5-1.4,11.2-1.7,16.5-5.5c0.8,5.8-2.7,6.7-6.3,7.4c-7.3,1.4-14.7,2.1-21.7,5.6c-8.4,4.2-11.8,15-6.5,22.9
				c1.5,2.3,3,4.5,3.2,7.5c0.4,8.7-4.8,12.5-12.9,9.2c-2.2-0.9-4.4-1.6-6.5-2.6c-5.1-2.6-7.3-1.4-7.7,4.5c-0.4,5.7,1.7,10.9,4,15.9
				c1.4,3.1,0.9,4.6-1.1,7.6c-4.8,6.9-8.3,14.7-12.2,22.2c-0.7,1.3-0.9,3.2-2,3.9c-11.3,7.3-13.9,20.3-20.7,30.5
				c-5.4,8.2-3.8,14.3,0.8,21.3c1.1,1.7,2.3,2.8,4.3,3.5c4.2,1.4,6.7,6.7,5.3,10.6c-0.7,1.9-1.9,3-3.9,2c-1.8-1-3.9-0.3-5.2-0.7
				c-7.3-2.5-16.3,0-21.9-7.6c-1.9-2.6-5.4-2.5-8.3-2.5c-2,0-3.8,0.1-5.6-0.8c-6.7-3.4-7.3-6.2-2.5-12.1c3.6-4.5,6.6-9,7.2-15
				c0.5-4.5,3-8.3,6.3-12c3.6-4.1,7.7-9,7.2-15.5c-0.7-8.2,0.5-16.1,5.1-23.1c1.4-2.1,0.8-4-0.7-5.1c-2.5-1.7-5.4-0.4-7.8,0.7
				c-8.1,3.7-10.2,12.6-15.6,18.7c-4.8,5.3-9.3,12.9-14.8,15c-6.1,2.4-10.1,7.2-15.9,9.1c-4.3,1.4-6.8,4.8-9.5,8
				c-1.6,1.9-2.1,7.1-6.9,3.7c-0.2-0.2-1.1,0.2-1.1,0.2c0.8,8.1-10.3,10.8-8.6,19.5c0.6,2.9,0.3,5.9,3.2,7.8c0.5,0.4,1,0.9,1.3,1.4
				c2.4,3.6,4.7,8.1,2.4,11.7c-1.9,3.2-6.5,0.1-10,0.3c-9.8,0.8-15.9-5.5-20.8-13.3c-8.5-13.4-8.3-13,2-25.1
				c4.7-5.5,10.2-10.3,14-16.7c1.8-3,6.8-3.5,8.1-8.2C195.7,412.1,197.1,416.1,198.9,415.5z M269.4,272.9c-1.1-5.6,4.3-6.5,5.8-10.2
				c2-4.6,8.5-7.4,13.2-5.4c4.9,2.1,6.2,0.1,6.3-4.3c0.1-4.9-4.6-10.2-11.4-11.7c-5.1-1.2-8.5,2.2-11.8,5.8c-2.3,2.6-1.9,10.6-9,5.5
				c-0.3-0.2-1.3,0.1-1.6,0.5c-3.3,4.1-2.4,8.8-1.9,13.4c0.4,4,3,3.2,5.6,2.7C267.1,268.9,266.7,271.8,269.4,272.9z M319.5,344.5
				c0.1-6.9-2.8-11.6-7.3-15.5c-1.6-1.4-3.4-2.3-5-0.3c-1.2,1.5-3.4,2.8-1.2,5.4c2.5,3,2.9,6.8,3.3,10.6c0.3,2.8,1.2,6.9,5.3,6.7
				C319.1,351.2,319.3,347.3,319.5,344.5z M300.7,277.7c-0.1-5.4-0.5-9.4-2.5-13.1c-0.6-1.1-0.5-2.8-2.2-2.6
				c-1.8,0.2-1.1,1.9-1.3,3.1c-0.4,2.6,1,5.6-1.1,7.9c-4.4,4.8-4.1,13.1,0.9,17.2c2.4,2,4.6,2.4,4.9-1.9
				C299.8,284.4,300.4,280.4,300.7,277.7z M270.8,324.7c0.1,1.2,0.2,2.1,0.2,2.9c0.2,3,1.4,5.5,4.5,6.1c1.7,0.3,3.8,1.5,5.4-0.3
				c2.2-2.4,1.6-5.2,0.6-7.8c-0.8-2.1-2.2-4.1-3.3-6.1c-0.9-1.7-1.7-3.8-4-3.4c-2.1,0.4-2.4,2.8-3,4.5
				C270.8,322.1,270.9,323.6,270.8,324.7z M251.1,273.5c-0.5-1.5,1.2-3.7-1.4-3.7c-2.4,0-4.6,0.8-5.6,3.4c-1.5,3.9,0.4,7.4,1.1,11.1
				c0.6,3.5,2.9,5,5.8,4.1c3.4-1.1,1.9-5.5,1.1-6.2C248.9,279.1,249.3,276.4,251.1,273.5z M318,232.7c0.3,2.6-0.4,6.6,3.2,7
				c3.5,0.4,4.7-3.1,4.7-6.2c0-2.9,0.3-6.4-3.8-6.8C317.9,226.3,318.5,229.8,318,232.7z M243.9,357.9c-1.1,3.7-1.8,7.2,0.8,10.4
				c1.2,1.5,2.3,3.1,4.7,2.2c2.3-0.8,2.6-2.7,2.6-4.7c0-1.8,0.3-4.3-2.5-4.2C246.7,361.9,246,359.1,243.9,357.9z M310,267.4
				c5-1.5,4.7-5.4,4.3-9.2c-0.2-1.7-1.5-2.6-3.1-2.6c-1.9,0-2.4,1.4-2.4,3C308.9,261.5,308.5,264.5,310,267.4z M260.5,296.8
				c0.1-1.9,0-4.1-1.7-3.8c-3.1,0.6-2.9,3.7-3.1,6.2c-0.2,1.7,0.3,4.5,1.8,4.2C260.8,302.6,259.3,298.7,260.5,296.8z M310.9,235.4
				c-0.5-1.3-1.3-3.1-2.9-2.6c-1.9,0.6-3.3,2.4-3.4,4.6c-0.1,1.1,0.4,2.5,1.7,1.7C307.8,238,310.6,238.3,310.9,235.4z"/>
			<path d="M382.7,308.4c-0.8-3.1-1.7-6.3,1.3-7.6c0.6-0.3,5.5-0.4,5.9,2C390.7,308,383.8,304.5,382.7,308.4z"/>
		</g>
		<polygon points="204.4,344.3 210.8,343.5 215,355 213,360 		"/>
		<polygon points="318.2,193.5 327.5,194.5 326,196 316,195 		"/>
		<polygon points="375.7,305.1 384,300.8 387,303 383.3,306.8 374.7,309.4 		"/>
	</g>
</g>
<g id="guides">
</g>
<g id="scratch">
	<g>
		<g>
			<path d="M158,646.3v-2c0-24.7,11.1-44.9,41.9-67.3c20.1-14.7,26.1-19.7,26.1-32.1c0-12.3-6-19.2-17.9-19.2
				c-13.9,0-18.9,8.5-20.9,20.9h-29.8c2-24.5,18.1-45,50.7-45c36.5,0,49,21.7,49,43c0,20.7-8.9,30.7-35.1,49.1
				c-17.5,12.3-24.6,20.4-27,26.8h67.3l-3.8,25.8H158z"/>
			<path d="M336.1,577.3v26.9H276v-26.9H336.1z"/>
			<path d="M356.8,540.7c2-17.5,14.3-39.1,49.9-39.1c32.9,0,47.5,18.6,47.5,38.7c0,17.1-9.8,25.3-17.6,28.9v0.6
				c9.2,3.4,23.1,12.2,23.1,34.3c0,20.6-12.5,44.9-53.3,44.9c-38.1,0-51-23-52.5-41.8H384c1.9,9.7,8.6,18.1,23.3,18.1
				c14.3,0,21.4-9.2,21.4-21.7c0-13.2-6.7-21.1-23.3-21.1h-12.8v-23.8h11.3c14.2,0,19.9-4.7,19.9-16.6c0-9.8-5.8-16.3-18.1-16.3
				c-14.4,0-17.9,8-19.4,15.1H356.8z"/>
			<path d="M540,577.3v26.9h-60.1v-26.9H540z"/>
			<path d="M646.7,504.2v22.9c-22.5,31.9-44.6,78-50.1,119.2h-31.8c5.6-41.8,31.1-91.9,50.4-116.7h-66.9v-25.4H646.7z"/>
		</g>
	</g>
</g>
</svg>
