<?xml version="1.0" encoding="utf-8"?>
<!-- Generator: Adobe Illustrator 26.0.2, SVG Export Plug-In . SVG Version: 6.00 Build 0)  -->
<svg version="1.2" baseProfile="tiny" xmlns="http://www.w3.org/2000/svg" xmlns:xlink="http://www.w3.org/1999/xlink" x="0px"
	 y="0px" viewBox="0 0 800 800" overflow="visible" xml:space="preserve">
<g id="bg">
</g>
<g id="scans">
	<image display="none" width="613" height="603" xlink:href="E0379E60.jpg"  transform="matrix(1.3051 0 0 1.3051 0 6.5253)">
	</image>
</g>
<g id="counters_00000155831629897369998050000010902328751353074356_">
	<g id="su_mmg">
		<polyline points="185.3,426.7 240,413 240,436 185,454 185.3,426.7 		"/>
		<ellipse cx="253.5" cy="609" rx="23.5" ry="9"/>
		<circle cx="252.5" cy="572.5" r="9.5"/>
		<circle fill="none" stroke="#000000" stroke-width="10" stroke-miterlimit="10" cx="248.5" cy="408.5" r="13.5"/>
		<circle fill="none" stroke="#000000" stroke-width="10" stroke-miterlimit="10" cx="248.5" cy="448.5" r="13.5"/>
		<circle cx="246.5" cy="166.5" r="13.5"/>
		<line fill="none" stroke="#000000" stroke-width="11" stroke-miterlimit="10" x1="228" y1="378" x2="268" y2="378"/>
		<line fill="none" stroke="#000000" stroke-width="11" stroke-miterlimit="10" x1="236.5" y1="504.5" x2="246.5" y2="378.5"/>
		<line fill="none" stroke="#000000" stroke-width="11" stroke-miterlimit="10" x1="260" y1="504.1" x2="250" y2="378.1"/>
		<line fill="none" stroke="#000000" stroke-width="11" stroke-miterlimit="10" x1="252.5" y1="572.5" x2="252.5" y2="603.5"/>
		<line fill="none" stroke="#000000" stroke-width="11" stroke-miterlimit="10" x1="249.5" y1="361.5" x2="249.5" y2="377.5"/>
		<circle fill="none" stroke="#000000" stroke-width="10" stroke-miterlimit="10" cx="248.5" cy="480.5" r="13.5"/>
		<rect x="162" y="300" fill="none" width="100" height="0"/>
		<rect x="162" y="328" width="159" height="39"/>
		<rect x="161" y="306" width="14" height="98"/>
		<rect x="308" y="305" width="14" height="98"/>
		<rect x="103" y="426" width="86" height="31"/>
		<line fill="none" stroke="#000000" stroke-width="13" stroke-miterlimit="10" x1="179" y1="649" x2="233" y2="340"/>
		<line fill="none" stroke="#000000" stroke-width="13" stroke-miterlimit="10" x1="321" y1="646.9" x2="267" y2="337.9"/>
		<line fill="none" stroke="#000000" stroke-width="13" stroke-miterlimit="10" x1="191.5" y1="587.5" x2="307.5" y2="588.5"/>
		<line fill="none" stroke="#000000" stroke-width="13" stroke-miterlimit="10" x1="244.5" y1="328.5" x2="246.5" y2="169.5"/>
	</g>
</g>
<g id="guides">
</g>
<g id="scratch">
	<g>
		<g>
			<path d="M439.1,179c0-18.9,0.3-41.4,0.8-53.9H439c-4.9,23-16.3,63.9-26,95.4h-19.5c-7.2-26.5-18.7-73.1-23.3-95.7h-0.9
				c1,13,1.4,37,1.4,56.1v39.5h-20.8v-111h33.8c8,25.9,17.9,64.6,21,81.5h0.2c2.4-14.4,15.1-55.2,23.4-81.5h32.5v111h-21.8V179z"/>
			<path d="M566.1,179c0-18.9,0.3-41.4,0.8-53.9H566c-4.9,23-16.3,63.9-26,95.4h-19.5c-7.2-26.5-18.7-73.1-23.3-95.7h-0.9
				c1,13,1.4,37,1.4,56.1v39.5h-20.8v-111h33.8c8,25.9,17.9,64.6,21,81.5h0.2c2.4-14.4,15.1-55.2,23.4-81.5h32.5v111h-21.8V179z"/>
			<path d="M692.3,220.5h-16.6c-0.8-3.6-1.4-8.7-1.7-12.9c-5.7,11.1-16.8,14.5-30.8,14.5c-29,0-44.3-24.2-44.3-56.5
				c0-31.9,18-57.6,50.8-57.6c26.4,0,40.1,14.8,42.9,33.3h-22.2c-2.1-7-6.9-15.2-22-15.2c-19.3,0-26.2,18.4-26.2,39.6
				c0,21.1,7.4,38.3,26.2,38.3c16.7,0,21.6-11.7,21.6-25.9v-0.5h-23.2v-19.2h45.7C692.3,199.4,692.3,216.9,692.3,220.5z"/>
		</g>
	</g>
	<g>
		<g>
			<path d="M586.5,698.9v-48.8c0-27,14.1-37.2,28.6-37.2c12.6,0,20.8,6.7,24.2,14.2c2.8-7.5,10.8-17.4,25.5-17.4
				c19.1,0,33.4,15,33.4,38.8v50.4H586.5z M630.6,652.8c0-11.5-5.2-16.2-13-16.2c-8.2,0-12.4,6.2-12.4,15.5v23h25.4V652.8z
				 M679.6,675.1v-21.8c0-13.1-5.5-19-15.6-19c-9,0-14.7,5.8-14.7,19.1v21.7H679.6z"/>
			<path d="M698.2,576.5h-79.7c2.3,4.9,4.2,14,4.6,19.3h-17.3c-1.9-10.1-7.6-20.3-14.3-26.4V553h106.7V576.5z"/>
			<path d="M698.2,531.3h-1.5c-18.6,0-33.7-8.3-50.5-31.4c-11-15-14.8-19.6-24.1-19.6c-9.2,0-14.4,4.5-14.4,13.5
				c0,10.4,6.4,14.2,15.7,15.7v22.4c-18.4-1.5-33.7-13.6-33.7-38.1c0-27.4,16.3-36.8,32.3-36.8c15.5,0,23,6.7,36.8,26.3
				c9.2,13.1,15.3,18.4,20.1,20.2V453l19.3,2.9V531.3z"/>
			<path d="M606.8,386.9h35.7v-35h19.4v35h36.3v19.5h-36.3v35.4h-19.4v-35.4h-35.7V386.9z"/>
		</g>
	</g>
	<g>
		<g>
			<path d="M498.2,649.6h-24v48.2H454l-62.4-44.5v-25.3h63.9v-12.8l18.8,2.1v10.7h24V649.6z M436.5,649.6c-11.6,0-18,0-24.7-0.5
				c8.9,4.2,29.2,18.1,43.7,28.1v-27.7H436.5z"/>
			<path d="M446.4,555.5h20.2v45.1h-20.2V555.5z"/>
			<path d="M498.2,523.5h-79.7c2.3,4.9,4.2,14,4.6,19.3h-17.3c-1.9-10.1-7.6-20.3-14.3-26.4v-16.4h106.7V523.5z"/>
			<path d="M444.2,396.8c29.3,0,55.9,9.3,55.9,41c0,31.3-25.7,40.9-55.2,40.9c-29.2,0-55.2-10.7-55.2-41.4
				C389.7,407.6,414,396.8,444.2,396.8z M444.6,454.8c19.6,0,37-2.2,37-17.3c0-14.7-16.3-16.7-37.3-16.7c-20.7,0-36.2,2.5-36.2,16.4
				C408.1,450.9,421.5,454.8,444.6,454.8z"/>
		</g>
	</g>
</g>
</svg>
