<?xml version="1.0" encoding="utf-8"?>
<!-- Generator: Adobe Illustrator 26.0.2, SVG Export Plug-In . SVG Version: 6.00 Build 0)  -->
<svg version="1.2" baseProfile="tiny" xmlns="http://www.w3.org/2000/svg" xmlns:xlink="http://www.w3.org/1999/xlink" x="0px"
	 y="0px" viewBox="0 0 800 800" overflow="visible" xml:space="preserve">
<g id="fill">
</g>
<g id="bg">
	<rect x="-8100" y="-100" fill="#9FC9EB" width="9000" height="1000"/>
</g>
<g id="scans" display="none">
	<g id="_x3F_" display="inline">
		<g>
			<path d="M-39.6,795.6c2.5,0.4,4.9,1.3,7.4,1.1c5.3-0.3,11.1,2.4,11.4-8.2c0.3-8.3,3.2-17.8,1.4-25.4c-1.3-5.4,0-9.7,1-13.4
				c1.9-6.9,0.8-13.2,0.1-19.8c0-0.5-0.2-1.1,0-1.3c5.8-5.8,1.3-12.2-0.2-17.6c-0.9-3.5-1.3-6.2-0.2-9.2c2.9-7.8-0.7-16.7,3.8-24.2
				c-4-3.9,0.1-8.5-0.8-11.7c-1.1-4.2-0.1-7.9-0.7-11.7c-1-6.2,1-11.9,2.3-17.6c0.8-3.9-3.1-6.1-2.4-9.6c2.1-10.6-0.2-21.2-0.2-31.7
				c0-7.3,0.1-15,1.1-21.8c1.6-11.3-0.3-22.3,1-33.4c0.4-3.1,1.5-6.3-2.3-8.2c2.9-2.6,2-5.6,1.3-8.8c-0.6-2.9-1.2-5.7-0.1-9
				c1.6-5.2-0.5-10.8-1.6-15.8c-0.8-3.7-0.6-6.2,0.8-9.2c3.4-7.8,3.4-16.5,0.6-23.7c-2-5.1,0-8.5,1.6-10.9c2-3.1,1-4.5,0-6.9
				c-1.6-4.2-0.9-8.7-0.9-13.2c0.1-7.6,3.5-15.8-1.7-23.2c-1.5-2.1-2.9-3.8-0.2-6.8c2-2.3,0.9-7.1,1.7-9.6c3.1-10-2.7-19.5-1-28.1
				c1.9-9.3,1.2-18.2,1.3-27.2c0.1-13.3,1.6-26.5,1.4-39.8c-0.1-8.5-1.2-16.9-1.2-25.2c0.1-13.6-2.5-26.9-3-40.4
				c0-0.6,0-1.4,0.4-1.9c6.5-7.9,1.7-15.5,0.1-23.6c-0.8-3.8,0.3-8.9,1.4-12.6c1.4-5.3,0.8-10.2,0.4-14.9c-0.6-6.8-0.3-13.6-1-20.3
				c-0.8-7.8,1.2-15.8,0.8-23.7c-0.4-8.7,0.7-16.9,3.1-25.4c1.3-4.7-3.9-9-3-14.8c1.9-11,1.7-22.2-0.9-33.3
				c-0.7-2.9,1.8-6.3,2.1-9.7c1.2-11.1-1.6-22.1-1.1-33.2c0.2-5.4-4.8-4.2-7.5-4.4c-3.3-0.3-4-1.1-4.1-4.3C-28-8.3-27.6-8.7-7.8-6.6
				c15.3,1.6,30.6,0,45.9,0.4c14.7,0.3,29.2-1.5,44.1,0.4c17.3,2.2,35.2,2.5,52.6-1.1c1.5-0.3,3.2-0.3,4.7-0.1
				c13.1,1.5,26.1,2.6,39.3,1.6c6.3-0.5,12.3,1.1,18.5,1.2c5.8,0.1,11.4-0.1,16.6-1.9c6.1-2.1,12.4-2.6,18.7-3.1
				c7.1-0.6,12.9,4.9,20.1,4.8c2.2,0,3.8-0.1,6-0.9c7.4-2.7,15.4-2.5,23.2-2.7c6.1-0.2,12.2,0.1,18.1,0.6
				c13.1,1.1,26.3-3.2,39.3,0.7c0.8,0.2,1.9,0.3,2.7,0c14.5-5.1,29.5-0.9,44.2-2.1c10.8-0.9,22.5,0.6,33.6,2.9
				c4.1,0.8,8.4,0.6,12.8-0.3c6.3-1.2,12.7-2.3,19.4-0.3c9.5,2.9,19.2-1.9,28.9-1.2c11.2,0.9,22.5,0.1,33.7,2.5
				c5.2,1.1,10.5-1.8,16-1.7c8.4,0.3,16.7,0,25.1,0.8C563-5.5,570.5-7,578-6.8c18.5,0.5,37,0.6,55.4,0.8c3.9,0,7.6-0.4,11.4-1.5
				c4.9-1.3,9.7-0.5,14.5,1.6c8.9,3.8,17.8-1,26.9-0.4C713.8-4.6,741.4-8,769-7.9c9,0,18.1,0.7,27.1,1.1c5.4,0.3,10.5-2.5,16.1-0.9
				c3.4,1,5,1.8,4.9,5.6c-0.3,17.3,1,34.7-1.3,52c-0.9,7.1-0.7,14.6,0.5,21.6c0.8,4.5-1.5,8.5-0.4,12.8c2.4,9.6-0.1,19.4,0.3,29
				c0.2,4.5-2.6,9.8,1.9,13.8c0.5,0.5,0.8,1,0.3,1.7c-4.6,6.1-4.9,12.2-2.3,19.6c0.7,2.1-1.2,6.9-1.3,10.6
				c-0.5,13.8,0.1,27.5,0.2,41.3c0,7.7,0.2,15.7,0.3,23.3c0.1,5.4-6.6,12.3,1.2,17.2c0.2,0.1,0.3,1,0.1,1.1
				c-8.4,5.5-2.4,12.9-1.9,19.1c0.3,4.3-0.5,8.4-0.3,12.4c0.5,9.1-1.4,18.5,1.8,27.2c0.9,2.6,0.4,5.1-0.4,6.3
				c-2.6,3.5,0.5,8.1-2.8,11.2c-0.8,0.8-0.2,2,1.4,2.2c1.8,0.3,3.2,1.4,1.1,3c-2.4,1.8-1.4,3.3-0.4,5.2c0.4,0.8,0.8,1.9,0.6,2.6
				c-2.6,8.9,1.4,18.1-0.1,26.3c-2.4,13,1.4,25.7-1.2,38.7c-1.1,5.4-1.9,12.2-0.8,18.4c0.4,2.6,0.4,5-4.2,4.3
				c4.4,2.6,6.5,5.3,4.4,9.7c-0.4,0.9-0.2,2.3,0.2,3.2c3.2,6.4,1.1,13,0.7,19.5c-0.1,1.6-0.9,2.7,0.6,3.8c1.3,0.9,2,2,1.1,3.4
				c-4.5,6.5-3.2,12.9-1.1,20c1,3.5-0.9,8.3-1.4,12.5c-0.6,5.2-1.6,10.4-0.5,15.5c0.4,1.8,0.2,3.2,0.2,4.9
				c0.1,8.2-0.2,16.4,0.1,24.6c0.3,6.8-0.9,13.7,0.3,20.6c2.2,12.6-3,24.9-1.8,37.5c0.7,7.3,1.5,14.6,2.1,21.9
				c0.8,9.4-3.1,18.4-1,27.7c2.3,10.1-2.4,20.2-0.1,30.3c0.1,0.4,0.2,0.9,0.1,1.3c-2.7,12,1.1,24-0.2,35.9c-0.7,7.1-2,14.2-0.1,21
				c1.7,6.1-1.3,10.6-2.1,15.8c-0.9,5.6,0.2,11.7,0.4,17.5c0.4,8.8,0.4,17.7,0.8,26.5c0.3,6.8,1,13.4,1.7,20.2
				c0.4,4-6.9,10.3-11.3,10.2c-33-1.4-66.1-0.8-99.2-1.9c-32.8-1.1-65.6,0.4-98.3-1.3c-27.9-1.4-55.8,0.4-83.6-1.3
				c-29.9-1.9-59.9,0.4-89.7-1.4c-30.2-1.8-60.3,0.3-90.4-1.4c-28.8-1.6-57.6,0.6-86.3-1.2c-30.2-1.9-60.3,0.3-90.4-1.6
				c-26.3-1.6-52.6,0.2-78.8-1.1c-32-1.7-64-0.4-95.9-1.4c-9.8-0.3-19.8-1.2-29.6-2.2C-39.6,803.8-39.6,799.7-39.6,795.6z M28.6,16
				c-4.3-0.3-8.6,1.1-12.8,1.4c-2.1,0.1-4.6,1.9-4,2.8c2.8,4-0.7,6.6-1.1,9.8c-1.5,12.1-0.6,24.2,0,36.3c0.4,8.3,0.2,16.7-0.5,25.1
				c-0.4,4.8-1.2,9.6-1.5,14.5c-0.9,12.4,2,24.8,0.4,37.3c-0.3,2.6-1.5,5.8-0.6,7.9c2.9,6.6,0.4,12.9,0.4,19.4
				c-0.1,6.3-1.6,13-0.5,18.7c2.2,12-3.1,23.9,0.5,35.6c0.8,2.6-3.4,3.6-1.7,6.7c2.2,4,1.1,8.6,1.2,13.1c0.1,7.2-1.9,14.3-1.3,21.2
				c0.7,7.6,2.3,14.9,1,22.6c-0.6,3.3-2.7,6.7-1.9,9.9c3.9,16-2.1,32.6,3.8,48.4c-4.3,12.2,1.8,25.7-4.2,37.7
				c-0.3,0.6-0.9,1.2-0.8,1.8c1.6,9.1,4,17.8,2.3,27.5c-0.9,5.5,0,11.6-0.2,17.5C6.6,442,6.6,453.1,7.2,464
				c0.5,9.8,1.4,19.7,0.1,29.3c-1.6,12.1,1.5,23.8,1,35.8c-0.4,8.3,2.3,17.2-0.4,25.2c-2.3,6.8,3.5,14.1-2.2,20.1
				c0,0,0.3,0.3,0.4,0.5c4.3,5.5,2.7,12.3,2.3,18c-0.6,8.9,1.2,17.6,0,26.7c-0.7,4.8-0.4,11.2,0.2,16.9c1,9.2-2.4,18.6-1.6,28
				c0.3,4,1.9,8,1.9,11.9c0,6.5-6.8,13.1,0.5,19.5c0.5,0.4-0.1,2.7-0.7,3.7c-1.9,2.9-1.3,6.4-0.5,9c1.2,3.8,1.8,6.9,0.5,10.9
				c-2,6.3-2.2,13-1.4,19.5c0.3,2-2.6,2.2-1.4,4.8c1.6,3.5,3.6,7.9,2.7,11.2c-1.9,7-1,13.9-1.1,20.8c-0.1,6.3,1.7,12.3,2.2,18.5
				c0.2,2.7,1.8,3.7,4.6,3.8c17.8,0.9,35.7,1,53.6,1.3c16.3,0.3,32.8,1.6,49.3-1.7c18.5-3.7,37.4,1.8,56.3,1c10-0.4,20.1,2,30.1-1.3
				c2.4-0.8,5.2-0.3,7.1,1.5c1.7,1.7,3.6,1.6,5.6,1.5c17.5-0.2,34.8,3.2,52.4,0.2c8.4-1.4,17.8,0.3,26.1-0.7
				c14.3-1.8,28.4,0.1,42.6-0.8c6.6-0.4,13.1-3.6,19.7-0.1c0.8,0.4,2.4,0.1,3.3-0.4c3.8-2.4,7.9-1.5,11.9-1.7
				c19.6-0.8,39.2,2.5,58.9,0.4c2.9-0.3,6-1.1,8.8-0.6c14.6,2.5,29.2,1.7,43.9,0.3c3.8-0.4,7.7-0.6,11.3,1.6c1.8,1.1,3.9,1.1,6,0.8
				c22.6-3.1,45.3-1.6,67.9-2.6c4.2-0.2,8.6,0.8,12.8,1c8.8,0.4,17.7,3.4,26.3,2.1c8.6-1.3,17.1-1.4,25.7-1.5
				c15.8-0.1,31.7,1.6,47.4,1.6c16.4-0.1,32.9-0.3,49.3-0.2c10.7,0.1,21.4-0.9,32.3,0.4c6.5,0.8,14.1-1.6,21.3-1.9
				c3.3-0.2,5.3-2.6,5.3-6.6c0-2.9-2.9-6.6-1.5-7.8c4.5-3.9,1.9-8,0.4-11c-1.9-3.9-0.4-6.6,0.6-9.9c1.6-5.3,4.3-10.4,3.7-16.3
				c-0.6-6.1-2.6-12.7-0.9-18.2c2.1-6.6-4.4-11.1-1.5-17.6c2.2-5.1-1-11.4,1.2-16.9c0.9-2.3,0.5-4.2,0.2-6.5c-0.6-4.8-2-10.8,1.1-14
				c3.2-3.4,2.6-5.1,0.3-7.5c-1.7-1.7-5.2-2.7-0.3-4.8c1.6-0.7,0.6-2.2-0.2-2.7c-2.9-1.7-1-3.9-0.7-5.9c0.7-4.9,4.9-9.8-0.6-14.5
				c-1.2-1-0.1-2.4,0.4-3.7c2.5-7.3,1.4-15.1,3-22.5c-5.6-1.9-2.6-5.8-1.8-8.9c0.9-3.8,2-7.4-1.1-10.8c-1-1.1-0.3-2.3,0.6-3
				c3-2.4,2-5.9,2.9-8.9c1.9-6.3-2.7-11.8-1.1-17.8c1.8-6.9-3.6-14.2,1.6-20.9c0.2-0.3-0.7-1.5-1-2.3c-2.1-7-5.4-14.1,1-20.9
				c0.6-0.6,0.7-2.4,0.3-3.1c-5.1-8.6,0-17.7-0.6-26.5c-0.8-11.7-2.6-23.8-0.3-35.8c1-5.2-0.4-10.9-0.4-16.4
				c-0.2-13.2,2.3-26.3-0.2-39.6c-2-11,2.7-22.5-0.6-33.3c-2.9-9.3,4.5-18.9-1.7-27.8c-0.5-0.8-0.2-2.6,0.4-3.7
				c4.9-9.8,2.5-20.8,5.1-30.9c0.8-3.2-3.4-5.6-2.3-7.9c2.6-5.7,1.6-10.7,0.4-16.5c-1.1-5.6-3-11.4-1.8-17.6c1-5.3,2.5-11-1.1-16.2
				c-0.3-0.4-0.2-1.4,0.1-2c4.6-9.8,1.3-20.2,2.4-30.2c0.4-3.7-3.4-6.2-1.9-8.2c4.4-5.6,1.3-10.6,0.2-16c-0.8-3.5-1.3-7.3-0.8-10.7
				c0.9-5.8,3.3-10.6,2.1-17.5c-1.3-7.4,0.3-16.1-0.1-24.4c-0.4-7.4,0.3-14.8,0.3-22.2c0-11.6-0.2-23.2-0.5-34.9
				c-0.3-12.1,4.4-24.5-1.4-36.5c-0.6-1.3-0.2-3.4,0.3-5.3c2.1-9.1,0.6-11.9-8.6-12.3c-17.6-0.9-35.4-1.2-52.9-1.1
				c-18.9,0.1-37.8,0.7-56.7,0.6c-15.1,0-30.3,1-45.3-0.3c-10.8-0.9-21.6-0.8-32.2-0.6c-12,0.3-23.9-0.8-35.9-0.5
				c-22.6,0.5-45.2-0.1-67.8-0.3c-11.5-0.1-23.1-0.4-34.6-0.6c-14.7-0.2-29.5-1.1-44.2-0.4c-8.6,0.4-17,2.2-25.7,0.8
				c-10.9-1.8-22.1-1.9-33-2c-24.7-0.3-49.4,1.6-74.1,0.8c-5.6-0.2-10.6-3.2-16.6-2.2c-14.8,2.4-29.9-0.1-44.8,1.1
				c-16.3,1.3-32.6-2.5-49-1.3c-3.6,0.3-7.3,0.9-10.8,0.4c-21.4-3.3-42.8,2.3-64.4-1.3c-10.8-1.8-22.5-0.2-33.8-0.3
				C51.2,15.9,39.9,16,28.6,16z"/>
			<path d="M354.9,340.2c-3.8,0.3-7.7,0.4-11.5,0.8c-3.1,0.3-6.2,0.5-7.5-2.9c-1.2-3.3-3.3-6-0.4-10.4c2.1-3.2,0.4-9,0.3-13.7
				c-0.1-5.4-1-11.1,6-13.3c0.3-0.1,2-0.2,0.8-0.8c-7.4-3.3-1.3-7.3-0.1-10.2c3.7-9,11.8-13.6,18.9-19.8c15-13.1,33.4-10.5,50-15.4
				c11.7-3.4,23.1-0.1,34.3,4.2c5.9,2.2,12.4,2.1,18.4,5.2c10.9,5.6,20.8,11.8,25.1,24.1c0.1,0.2,0.2,0.4,0.4,0.6
				c9.3,12.2,6.3,25.8,4.5,39.3c-0.8,6.4,0.2,13.3-7,17c3.4,9-8.8,10.7-8.6,18.5c0,2.4-4.6,2.9-6.8,5c-6.9,6.3-12.8,13.5-21.6,17.8
				c-5.1,2.5-7.6,10.9-12.7,12.8c-9.3,3.4-5.3,15.9-14.6,18.2c-0.2,0-0.3,1.2-0.1,1.8c1.8,6.4-3.7,12-1.8,18.5
				c0.4,1.5-1,3.5-3.3,3.5c-8.8,0.2-17.6,0.3-26.4,0.5c-5.4,0.1-3.3-3.5-4-6.6c-3-12.2-0.2-24.1,3.2-35.3c1.9-6.5,2.4-15.4,11-18.6
				c5.9-13.3,18.9-20.2,28-30.6c10.1-11.6,14.2-31.6,8.2-43.6c-6.8-13.5-33.2-20-44.1-9.8c-6.1,5.7-13.5,11.8-12.2,22.6
				c0.5,4.1-2,8.5-0.7,13.2c1,4-2.1,5.4-5.5,6.2C368.1,340.5,361.5,340.3,354.9,340.2z"/>
			<path d="M380.4,510.8c0.5-10.1-0.9-20.1-2.1-30.1c-0.9-7.3,1.3-10,8.2-10.4c12.2-0.6,24.5-1.1,36.7-1.5
				c7.8-0.3,11.5,4.5,11.7,12.5c0.2,9.1-3.6,18.5,1.3,27.4c-6.1,4.1-0.7,8.2-0.1,12.4c0.2,1.5-1.4,2.4-2.7,2.7
				c-8,1.8-15.7,4.8-24.5,2.4c-5.8-1.6-12.6-0.3-18.9,0.5c-7.2,0.9-9.8-1-9.7-8.4C380.4,515.8,380.4,513.3,380.4,510.8z"/>
		</g>
	</g>
</g>
<g id="counters_00000155831629897369998050000010902328751353074356_">
	<g>
		<path d="M231.3,388.1c-1.6-3.6,1.7-6.4,1.7-10.1c0-3.8-1.2-4.6-3.9-3.7c-6.9,2.1-5.9-2.5-5-6.1c0.7-2.8,1.3-6.2,4.9-7.5
			c3.2-1.2,2.1-4.6,3.4-6.8c6-10,1.2-17.8-5.1-25.2c-2.3-2.7-4.3-1.1-4.9,1.3c-1.4,5.3-4.8,9.7-6.2,15.3
			c-1.6,6.6-6.5,12.4-10.1,18.4c-0.3,0.6-2.2,0.7-3,0.4c-1.8-0.7-0.6-2.2-0.4-3.4c2-8.7,7-16.1,10.2-24.3c1.5-3.7,3.6-7,5-10.8
			c2.3-6.2,1.2-10.7-3.7-15.2c-4.2-3.8-3.9-16.6,0.2-21.4c1.4-1.7,2.9-3.5,2.4-5.1c-2.2-6.9,0.9-13.6,0.2-20.6
			c-0.9-9.3,1.3-19.5,6.2-28.2c1.4-2.5,2-4.5,1.9-7.3c-0.2-8.4,5.4-13.6,13.9-12.9c3.7,0.3,7.4,0.1,11.2,1.2
			c4.8,1.4,8.4-0.8,10.4-5.7c-7.8-1.9-8.3-3.9-4.4-11.4c1.7-3.3,0.1-7.3-0.5-10.9c-1.7-9.7,5.9-20.2,15.9-20.7
			c5.5-0.3,11-0.8,16.5,0.9c4.8,1.5,8,4.8,9.3,9.1c1.5,4.9,3.3,9.7,5.9,14c2,3.2,1.6,4.8-1.3,6.3c-3.4,1.7-4.9,3.2-3.2,7.6
			c2.3,5.9-3.7,16-9.9,18.5c-0.6,0.2-1.6,0.3-1.8,0.7c-4.8,10-14.2,4.5-21.4,6.4c-4.6,1.2-6.8,5-8.6,8.5c-1.7,3.2,7.1,0.9,2.4,7.4
			c4.7-2.5,6.3-8.1,9.4-6c3.6,2.4-1.7,4.9-2.2,7.7c-0.6,4.1-1.7,8.1-2.5,12.2c-0.2,1.1-1.2,2.8,0.9,3.2c1.5,0.3,3.3-0.4,3,2.2
			c-0.3,2.4-2.7,1.7-4.7,2.5c4.8,3.5,4.7,10,10.2,12.7c1.1,0.5,2.5,4,1.2,6.7c-2.2,4.9-0.5,8.2,4.4,7c7.2-1.7,14.5-1,21.6-2.5
			c1.4-0.3,3.4,0.2,3.8-1.9c0.4-1.9-1.3-2.8-2.5-3.6c-2.3-1.6-4.9-2.8-7.4-4.2c-1.2,6.8-1.1,6.6-7,4.3c-2.1-0.8-4.3,0-5.8,2.2
			c-0.6,0.9-1.5,1.8-2.8,1.2c-1.6-0.7-1.1-2-1.1-3.4c0.2-4.9,1.1-9.1,8.2-9.3c-8.6,0.3-9.6-5.2-10.5-10.9c-0.1-0.8-0.8-1.8,0-2.4
			c8.6-6.9,5.8-16.5,5.8-25.4c0-1.5,0.3-3,0.7-5.7c6.2,8.5,8,17.2,6.4,26.1c-0.7,4-0.3,5,3.4,4.1c9-2.3,16.9-1.5,24.4,5
			c6.1,5.3,14.9,5.3,22.2,8.2c3.6,1.4,6.6,3.1,9.2,5.7c5.4,5.4,11,9.1,19.2,4.7c3.8-2,4.3,2.2,5.2,4.9c1.1,3.1,0.2,5-3.1,4.9
			c-5.3,0-10.6,3-15.6-2.8c-2.5-2.9-7.3-0.5-9.8,3.6c-2.9,4.5-3.2,9.9-3.4,14.4c-0.2,6.3-4.9,10.7-4.7,16.7c0,0.9-0.7,1.7-1.8,1.5
			c-1.2-0.3-1.8-1.3-1.4-2.5c2.4-8.1,1.7-16.9,5.9-24.5c1.5-2.6,0.1-5.2,0.4-7.8c0.1-1.3,0-3.7-2.4-2.8c-1.3,0.5-3.4,1.9-1.8,4.1
			c0.8,1.1,2,1.9,0.4,3.2c-6.3,5.5-5.9,13.8-8.5,20.9c-0.8,2.1-0.2,5.1-2.8,6c-0.9,0.3-2.9-1.1-3.8-2.2c-2.1-2.8,0-4.3,2.2-5.6
			c-2.8-4.7,2.5-10.1-0.3-13.7c-2.1-2.7-7.5-3.9-11.3-2.9c-5.7,1.5-11.2,2.1-17,1.9c-3.3-0.1-4.2,0.5-2.6,4.8
			c1.9,5.1,5,9.2,7.4,13.8c1.7,3.4,3.2,6.9,7.2,8.2c1.5,0.5,2.3,1.4,1.4,2.9c-0.9,1.6-2,1-3.3,0.4c-2-0.9-4.3-2.4-6.2-0.4
			c-2.1,2.1,0.9,3.9,1,5.6c0.3,3.5,1,6.6,2.5,9.6c0.5,1,1.1,2.2-0.3,2.9c-1.3,0.7-2.6,0.6-3.3-1c-1.9-4.5-3.7-8.5-9.8-4.5
			c-1.4,0.9-2.8-1.4-2.8-2.9c-0.2-3.5-2.2-5.7-5.2-5.7c-3.1,0-6.3,1.7-7.1,5c-0.8,2.9-3.6,3.7-5.5,6.9c7.4-0.5,11.4,3.2,13.8,9.2
			c0.3,0.7,1.1,1.6,1.9,1.8c6,1.6,9.7,5.3,11.2,11.3c0.4,1.6,1.4,3.7,3.5,3.3c1.9-0.4,1.7-2.2,1-3.8c-0.2-0.4-0.2-1.2-0.2-1.2
			c8.1-2,2.9-7.9,3.4-13.5c6.1,4.3,7.3,9.9,8.2,15.5c0.8,5.3-0.4,10.8,1.9,16.1c0.8,1.7-0.7,3-2.6,2.7c-2.1-0.4-5,0.8-5.4-3.2
			c-0.2-2.5,3.8-6-1.2-7.5c-3.2-1-5.8,1.4-8.7,2.1c-5.1,1.3-7.2,2.5-3,7.2c1,1.1-0.2,2.4-0.7,3.6c-3.7,8.4-0.2,14.2,9.1,14.8
			c2.4,0.1,4.3,0.7,6,2.2c2.4,2.2,5,2.7,7.6,0.5c4.1-3.5,5-0.3,5.3,2.8c0.2,2.5-0.1,5.3-1,7.7c-3.5,10.1-1.3,20.2-0.9,30.4
			c0.1,3,2.2,5.2,4.3,7.8c4.7,5.6,11.2,6.4,16.5,9.9c2.1,1.4,5.3,2.9,3.8,6.7c-1.2,3.1-3.2,5.1-6.8,5.2c-12.8,0.6-25.5,1.4-38.3,1.9
			c-4.9,0.2-7.6-1.5-6-7.2c3.7-13.2,0.8-26.4,0-39.6c-0.3-5.3-2.1-7.2-5.8-8.6c-3.7-1.4-4.7-4.3-3.6-7.2c1.9-5.4,0.6-10.1-2.1-14.3
			c-4.5-6.9-2.9-15-5.7-22.2c-0.1-0.2,0-0.5,0-0.7c-1.2-3.6-3-7.8-6.3-8.8c-3.2-1-5.8,3.2-7.5,5.7c-4.3,6.3-8.5,12.9-11.5,19.9
			c-2.4,5.6-5.8,9.4-11,12c-0.2,0.1-0.5,0.1-0.6,0.3c-3.3,8.1-12.1,6.4-17.5,10c-9.6,6.4-19.8,13.7-20.5,27.2
			c-0.3,5.5,4.4,9.6,5.1,15c0.6,4.8-0.6,9.1-4.4,12.1c-2.1,1.6-5,0.8-6.6-1.2c-5.4-6.6-13.7-11-15.1-20.6c-0.1-0.6-0.6-1.6-1-1.6
			c-6.9-1.1-8-6.9-10.6-12c-3.2-6.5-0.6-15.2,6.4-16.6c6.3-1.2,11.7-3.2,14.6-9.6c0.7-1.5,2.2-2.9,3.7-3.7c8-4,11-12.3,15.7-19
			c2.5-3.6,5.6-6.7,7.6-10.7c0.9-1.8,2.9-3.9,5.4-2.4c2.6,1.6-0.9,3.4-0.2,5.4c4.1,2,10.3-3.5,13.2,3.4c-1.9,3.8-5.4,3.1-8.7,3.1
			c-1.1,0-2.3,0.1-2.8,1.3c-0.5,1.3,0.7,1.9,1.4,2.7c3.1,3.6,6.8,3.8,10.7,1.4c2-1.2,3.6-3,5.5-4.5
			C236,389.5,233.3,389.4,231.3,388.1z M281.8,323.8c2.2-0.1,4.9-0.2,5.5-2.6c0.7-2.6-2.4-3-4-3.3c-4.5-1-9-6.5-13.9-0.6
			c-0.3,0.4-1.4,0.4-1.9,0.2c-6.4-2.5-10.8,1.7-15.6,4.5c-1.3,0.8-2.9,1.8-2.2,3.6c0.6,1.5,2.3,0.5,3.5,0.6
			C263,326.7,272.1,321.4,281.8,323.8z M322.1,298.1c4.7,0.5,8.3-1.1,8.6-6c0.3-3.8-2.9-4.1-6-4.2c-5.1-0.3-7.4,2.6-7.8,6.9
			C316.7,298.1,319.8,298.2,322.1,298.1z M294.1,209.7c0.1-5-0.9-8.3-4.9-8.7c-2.1-0.2-5.4,0.5-5.2,3.5c0.3,4,1.2,8.6,6.6,9
			C294,213.7,294,210.8,294.1,209.7z M272,213.5c3,0.9,3.7,6,7.2,4.3c1.7-0.8,1.5-4.1,0.4-5.4C277.2,209.6,274.8,213.2,272,213.5z"
			/>
		<path d="M552.7,297.3c1.5-3,7.4-5.1,0.4-9.2c-1.4-0.8-0.3-5.4-1.1-8.1c-0.9-3.2-0.1-5.1,2.9-6.2c0.7-0.3,1.7-1.5,1.6-1.9
			c-2.7-6.5,4.7-12.3,1.2-18.8c-1-1.9-0.4-3.7,1.6-4.2c2.5-0.6,2.9,1.4,2.9,3.3c0.1,6,0.2,12,0,18c-0.1,3.5,0.6,5.1,4.7,5
			c14.2-0.4,26.4,5.8,39.1,11.3c9.6,4.2,18.7,9.6,28.5,13.2c2.2,0.8,4.3,1.1,5.9-1c1.1-1.4,2.7-3.3,4.2-1.3c2,2.7,1.9,6.2,1.8,9.5
			c0,2.5-2.2,3-3.8,2.4c-4.2-1.4-9.3,1.6-12.9-3.2c-0.8-1-3.4-0.6-5.1-1c-4.5-1-7-0.3-7.6,5.3c-0.8,7.3-1.1,14.7-3.6,21.8
			c-0.7,2.1-1,4.2-3.1,3.9c-2.7-0.3-2.3-2.8-1.5-4.7c3.3-7.5,0.3-16.3,4.8-23.8c0.8-1.2-3.6-3.4-6.1-4.6c-0.2,6.3,2.3,12.5-4.4,17.7
			c-3.4,2.7-1.5,9.1-2.1,13.8c-0.3,2.1,1.1,4.6-1.9,5.6c-1.6,0.6-3.1,0.3-4.3-1c-1.7-1.9-3.3-4.9-1.8-6.6c3-3.5,0.2-7.3,1.5-10.8
			c0.6-1.7-0.7-2.6-2.5-3.1c-4.9-1.3-9.7-3-14.8-0.6c-3.1,1.5-6.5,1-9.7,0c-1.6-0.5-3.1-0.6-4.3,0.7c-1.7,1.8,0.2,2.6,1.1,3.7
			c0.6,0.8,1.2,2,1.2,3c-0.3,7.6,4.8,11.3,10.5,14.5c2.4,1.3,0.1,3,0.9,4.6c1,2.1-1.1,2.4-2.7,2.5c-5,0.3-5.7,2.3-2.9,6.3
			c1.4,2.2,2.1,4.8,3.1,7.3c0.4,1.1,1.5,2.6-0.2,3.4c-1.3,0.6-2.9,0.2-3.5-1.1c-2.4-5.9-10.4-5-13-10.9c-0.9-2-3.8-1.9-5.1,0
			c-1.9,2.9-8.4,0.6-7.2,6.8c0.3,1.7,0,3.1,2.2,3.1c3.6-0.1,5.1,2.7,7.4,4.8c5.1,4.5,9.1,9.6,11.2,16.2c0.5,1.7,2.3,2.3,3,1.6
			c2-2.3,6.5-2.1,6.5-6.3c0-1.5-1.4-2.9-0.5-4.5c0.4-0.8,1-1.4,1.5-2.1c0.7,0.5,1.6,0.8,1.9,1.5c3.5,8.3,5.2,17,5.6,26
			c0.1,1.8,0.9,5.4-2.4,5.1c-2.3-0.2-4.1-2.3-4.4-5.6c-0.7-6.5-3.8-9-8.2-5.9c-2.8,1.9-9.6,3.7-5.6,10.3c0.6,1,0.6,2.7,0.3,3.9
			c-2.6,8.6,0.7,13.5,9.8,14.5c5,0.6,9.7,4.3,15.1,0.5c1.4-1,3,1.7,2.8,3.6c-1,7.8-2,15.6-3.3,23.4c-0.2,1.3-0.2,2,0.1,3.3
			c1,3.9,2.4,7.6,2.2,11.9c-0.3,6.2,8.2,13.9,16.6,15c4.6,0.6,6,3.6,7.7,7c1.9,3.7-1.4,5.2-2.7,7.5c-1.2,2.2-3.6,2.2-5.9,1.6
			c-10.2-2.5-20.8-0.5-31-2.1c-4.6-0.7-9.9-0.8-11.7-6.7c-0.5-1.6-0.8-2.9,0.1-4.4c3.4-6.1,1.8-12.4,0.6-18.6
			c-0.6-3-2.2-6.1,1.5-8.2c0.5-0.3,1.4-0.9,0.6-1.2c-8-3.3-2.3-12.6-7.7-17.1c-2.7-2.2-0.2-5.8-0.7-8.8c-0.9-6.8-5.1-12.3-7-18.6
			c-1.3-4.3-1.4-9.1-1.8-13.7c-0.4-3.6-0.5-8-4.4-8.7c-4.6-0.8-7.6,3.7-9.3,7c-3.7,7.1-6.7,14.2-11.4,21c-5.6,8-13.4,12.6-20.4,18.3
			c-4,3.3-10.2,4.8-15.6,6.8c-3.4,1.2-5.8,3.3-7.2,6.4c-1.2,2.6-2.5,4.9-4.6,7.1c-3.8,3.9-3.7,13.3,0.2,18.2c3,3.7,2,7.4,1.6,11.2
			c-0.3,2.5-0.8,5.2-4,5.2c-3.4,0-7.4,1.3-9.9-2.2c-3.6-5.1-7.9-9.7-10.8-15.5c-2.2-4.4-6.8-7.4-9.7-11.5
			c-9.1-12.4-5.8-17.9,6.9-21.6c4.2-1.2,7-3,9-6.8c1.2-2.3,4.1-3.8,5.6-5.6c5.6-6.7,13.9-11.1,16.3-20.4c1.4-5.3,6.7-7.8,10.2-11.7
			c0.8-0.8,3.5-0.4,3,1c-2.8,8.6,4.1,4.4,6.6,4.8c4.7,0.8,4.9-6.3,9.5-6.5c-1.1-1.8-2-3.9-3.4-5.4c-1.6-1.8-3,0-4.5,0.8
			c-1.9,1.1-4.2,3.7-6.4,1.4c-2.6-2.7,1.5-3.5,2.4-5.1c3-5.1,6.4-9.8,8.9-15.2c2.3-4.8,0.4-9.9,1.9-14.7c0.4-1.4-1.3-1.3-2.4-1.5
			c-3.1-0.3-2.4-1.1-0.3-2.2c0.8-0.4,1.6-1.3,0.2-1.8c-3.5-1.1-2.9-3.8-3-6.5c-0.1-1.5-0.8-3.1-2.9-3c-1.6,0.1-1.9,1.1-2.6,2.4
			c-4.5,9.7-7.6,20.2-14,29c-0.7,0.9-0.4,2.6-0.4,3.9c0,3-1.8,4.2-4.3,3.5c-2.1-0.6-3.3-3-1.8-4.8c6.6-7.4,4.5-18.4,11.6-25.9
			c2.3-2.4,3.4-7.6,4.6-11.8c0.7-2.3,0.9-3.7-1.3-6.1c-9.5-10.7-9.3-17.7-0.4-29.2c2.7-3.5,0.5-7.4,0.3-10.9
			c-0.5-9.2-0.2-18.4-0.4-27.6c-0.1-2.9,1.9-5,3.1-7.1c3-5.5,5.7-10.6,5.3-17.3c-0.2-4.2,6.8-8.8,11.7-8.5c3.3,0.2,6.9,0.1,9.7,1.5
			c4.9,2.5,8.4-0.8,11.6-2.7c5.1-3.1,0.5-5.4-1.9-7c-5.2-3.4-5.3-5.1-0.6-9.6c2.9-2.8,2-7.2,1.2-10.2c-2.5-9.4-1.1-13,8-16.8
			c3.6-1.5,7-3.1,11.1-3.7c11.8-1.7,18.2,6.7,20,15.8c0.6,3.1,1.4,5.5,3.8,7.1c3,2,0.8,4.9,1.8,7.2c-9.1,2.6-4,10.7-5.6,16
			c-2.6,8.4-11,10.6-14.8,17.3c-0.7,1.3-2.9,0.8-4.4,0.4c-4.9-1.5-9,0-13,2.8c-5.6,4-6,5.5-1.5,10.1c1.1,1.2,2.3,1.2,3-0.5
			c0.3-0.8,0.2-1.8,0.5-2.6c0.8-2.3,2.9-3.3,4.8-2.4c2.4,1.2,0.3,3.5-0.4,4.3c-3.2,3.8-5.2,8.1-5.8,12.8c-0.5,4.4-1.9,9.3,2.7,12.7
			c-3.7,8.6,5.7,10.1,8.3,15.3C551.4,296.7,551.9,296.9,552.7,297.3z M525.4,337c0.5,1.9,1.7,1.9,2.7,2c10.9,1.7,21.3-2.7,32.1-2.4
			c1.2,0,2.1-0.7,2-2c-0.1-1.5-1.1-2.2-2.4-2.8c-2.3-1.2-5.5,0.3-7.3-2.4c-2.2-3.1-4.2-2.6-6.1,0.3c-0.6,0.9-1.4,2.2-2.5,1.9
			C536.3,329,531.8,335.8,525.4,337z M561.1,296.2c-1.1,3.6-1.6,8.3-7,6.4c-2.3-0.8-4.4-1.2-6,0.9c-0.5,0.6-0.2,2.2,0.3,3.1
			c1.3,2.3,3.9,3.9,6.1,2.9c6.2-3,12.7-3.3,19.2-3.5c1.9-0.1,3.1-1.7,2.8-3.1c-0.8-3.1-2.7-5.4-6-6.4c-1.7-0.5-3.2-0.5-3.6,1.6
			c-0.4,2-0.9,4.5-3.4,3.9C561.4,301.3,563.4,298.1,561.1,296.2z M586.9,303.6c3.1,1.7,3.7,3.8,4.8,5.1c2.9,3.1,6.6,2.9,10.2,1
			c2.4-1.2,2.9-2.9,1.7-5.4c-1.8-3.9-4.6-3.3-7.8-2.3C593.6,302.6,591.1,302.8,586.9,303.6z M505,411.3c-0.4,0,0.5,0.1,1.4,0.1
			c3.5,0.1,4.4-2.5,4.8-5.2c0.2-1.5,1.1-3.9-1.2-4.5c-2.8-0.7-3.7,1.6-4.6,3.7c-1.1,2.6-3.2,1.7-5.1,1.4c-1.4-0.2-3.4-1.5-4,0.5
			c-0.6,2.3,1.8,3.3,3.6,3.9C501,411.7,502.4,411.3,505,411.3z M564.6,227c2.8-2,1.6-4.9,2.7-6.9c1-1.9,0.3-3-1.5-3.5
			c-1.4-0.3-3.2-1.2-4.4,0c-1.3,1.3-0.7,3.2,0.4,4.1C563.4,222.4,562.8,224.9,564.6,227z M538.5,308.3c-2.3,0.1-3.5,1.7-3.7,3.3
			c-0.4,2.9,2,4.2,4.3,4.9c1.8,0.6,3.2-0.8,3.1-2.5C542.1,311.4,540.6,309.5,538.5,308.3z M556.8,228.2c-0.9-2.3-1.6-5.2-4.9-5.3
			c-2-0.1-2.8,1.7-2.5,3.2c0.5,2.9,3.1,3.4,5.5,4C556.1,230.5,557,229.9,556.8,228.2z"/>
		<path d="M317.6,345c-0.1,0-1.7,0.1-3-0.6c-1.4-0.8-3.7-1.7-3.2-3.8c0.6-2.8,2.9-0.9,4.4-0.8c6.1,0.4,11.9,0.6,14.5-6.6
			c0.3-0.9,1.4-1.1,2.2-0.6c1,0.5,0.7,1.2,0.3,2.1C330.5,341.1,325.7,344.8,317.6,345z"/>
		<path d="M602.1,354.5c-10.9,7-10.9,7-16,0C590.9,354.5,595.6,354.5,602.1,354.5z"/>
	</g>
	<g>
		<g>
			<path d="M138.9,617c0-18.2,12.7-29.3,23.2-34c-10.9-6.8-17.6-15.3-17.6-29.7c0-24.1,17.7-40.1,49.6-40.1
				c29.2,0,48.5,15.2,48.5,39.7c0,16.4-8.4,24.4-18.1,28.5c10.2,3.8,23.2,15.8,23.2,34.6c0,29.3-23.4,44.5-55.8,44.5
				C162.9,660.5,138.9,645.1,138.9,617z M216.9,615.6c0-14.1-9.7-20.6-23.6-20.6c-15.5,0-23.4,8.4-23.4,20.4c0,12.6,9.5,21,23.9,21
				C207.2,636.4,216.9,630.1,216.9,615.6z M174,554.3c0,9.6,6.9,16.1,19.9,16.1c12.6,0,19.5-4.9,19.5-16c0-10.8-7.1-17.4-19.8-17.4
				C180.6,537,174,543.1,174,554.3z"/>
			<path d="M328.2,588.8v26.9H268v-26.9H328.2z"/>
			<path d="M348.8,552.3c2-17.5,14.3-39.1,49.9-39.1c32.9,0,47.5,18.6,47.5,38.7c0,17.1-9.8,25.3-17.6,28.9v0.6
				c9.2,3.4,23.1,12.2,23.1,34.3c0,20.6-12.5,44.9-53.3,44.9c-38.1,0-51-23-52.5-41.8H376c1.9,9.7,8.6,18.1,23.3,18.1
				c14.3,0,21.4-9.2,21.4-21.7c0-13.2-6.7-21.1-23.3-21.1h-12.8v-23.8h11.3c14.2,0,19.9-4.7,19.9-16.6c0-9.8-5.8-16.3-18.1-16.3
				c-14.4,0-17.9,8-19.4,15.1H348.8z"/>
			<path d="M532.1,588.8v26.9h-60.1v-26.9H532.1z"/>
			<path d="M552.3,617c0-18.2,12.7-29.3,23.2-34c-10.9-6.8-17.6-15.3-17.6-29.7c0-24.1,17.7-40.1,49.7-40.1
				c29.2,0,48.5,15.2,48.5,39.7c0,16.4-8.4,24.4-18.1,28.5c10.2,3.8,23.2,15.8,23.2,34.6c0,29.3-23.4,44.5-55.8,44.5
				C576.3,660.5,552.3,645.1,552.3,617z M630.4,615.6c0-14.1-9.7-20.6-23.6-20.6c-15.5,0-23.4,8.4-23.4,20.4c0,12.6,9.5,21,23.9,21
				C620.7,636.4,630.4,630.1,630.4,615.6z M587.4,554.3c0,9.6,6.9,16.1,19.9,16.1c12.6,0,19.5-4.9,19.5-16
				c0-10.8-7.1-17.4-19.8-17.4C594,537,587.4,543.1,587.4,554.3z"/>
		</g>
	</g>
</g>
<g id="text">
</g>
<g id="guides" display="none">
</g>
<g id="scratch">
</g>
</svg>
