<svg xmlns="http://www.w3.org/2000/svg" baseProfile="tiny" viewBox="0 0 1000 1000" overflow="visible"><style><![CDATA[.B{font-family:ArchivoNarrow-Bold}.C{font-size:200px}.D{font-size:120px}]]></style><path fill="#c2b59b" d="M0 0h1000v1000H0z"/><circle fill="none" stroke="#fff" stroke-width="30" cx="500" cy="500" r="93.5"/><path d="M363.4 228.7l116 113.7 78.1 76.8c37.8 36.1 74 73.8 111.6 110.1l76.4 75.6c5.5 5.4 5.4 5.7-.1 11.2l-25.8 26.8c-4.5 4.6-6.1 4.5-10.8-.1l-8.9-8.9c-1.5-1.5-3.2-3.2-5.3-1-1.7 1.7-4.9 3.3-2.8 6.4 2 2.9.4 4.4-1.3 6.2-3 3-7.1 5.5-8.6 9-3.3 7.6-9.4 11.3-15.6 16-9.1 6.9-16.6 16-24.9 23.9-3.3 3.1-3.2 5.3.8 7.6 1.6.9 3.6 2.3 2.9 4.5-.8 2.5-2.9 4.4-5.3 5.5-2.5 1.1-3.2-1.4-4.3-2.8-3.8-4.8-4.8-5.4-8.5-.2-4.2 5.9-10.4 9.5-14.9 14.9-2.3 2.7-4.6 4.9-4.7 8.9-.1 3.3-2.7 6.4-5.9 6.5-5.6.2-8.2 4-11.5 7.3-1.9 1.8-3.7 3.7-5.6 5.5-1.1 1-2.4 1.7-3.8.8-4.1-2.7-5.7 1.1-7.5 3.2-2.3 2.9.8 4.4 2.4 5.9 3.3 3.3 6.9 6.4 10.4 9.6 2.5 2.2 2.5 4.3.1 6.7L556.4 808c-2.5 2.6-4.7 2.6-7.5-.2L386 646.7l-101.1-99.8-93.8-92.2-55.2-53c-7.5-7.2-7.6-7.3-.3-14.6l13.3-13.4c3.1-3.1 3.9-6.1-.1-9.2-1.2-1-2.3-2.2-3.4-3.3-6.5-6.6-6.8-13-.1-19.6 3.5-3.5 4.8-6.2.4-9.8-3.6-2.8-2.2-5.7.3-8.5 7.5-8.5 7.3-8.4-1.5-16.1-6.1-5.4-11.9-11.3-17.9-16.9-3.2-3-2.7-5.3.1-8.4 19.2-21.2 39.4-41.4 60.1-61.1 9.9-9.5 18.9-20 29.5-28.8 2.9-2.4 4.3-2.6 7.3 0 8.1 7 15.4 14.7 23 22.2 3.2 3.1 5.3 3.4 8.5-.3 5.3-6.3 6.2-6.2 12.4-1.2 2 1.7 3.7 1.8 5.4-.1 1.9-2.1 3.9-4 6.4-5.4 5.8-3.3 10.9-2.7 15.8 1.9 8.5 7.8 8.5 7.8 16.7-.5 3.7-3.7 7.5-7.3 11-11.2 3.2-3.6 5.8-3.4 9.1-.1l31.5 31.4zm165.8 272.6c-6.1-1.4-11.4.9-14.6 6.2-3.1 5.2-2.5 12.7 1.3 17.1 3.2 3.8 11.1 5.5 15.9 3.4 6.5-2.8 9.9-9 8.8-16-1.1-6.2-5.3-10.1-11.4-10.7h0zm-98.7 97.1c-8.5-4-16.8-8.5-24.5-13.9-1-.7-2.1-1.7-3.2-.3-1.1 1.3-2.6 2.6-1.9 4.6.4 1.1.8 2.4 1.6 3.2 2.8 2.7 2.8 5.6.8 8.5-1.5 2.1-.9 3.3 1 4.7 19.2 13.8 40.4 21.1 64.7 20.4-6.2-6.2-12.3-11.7-17.7-17.8-5.6-6.4-12.7-8.9-20.8-9.4h0zm-1.3 78.7c.9-1.1 2.2-1 3.4-.8l57 7.5 38.3 5.4c1.2.2 3.1 1.1 3.3-1.2.1-1.7-1.2-2.4-2.7-2.6-2.6-.4-5.2-.7-7.8-1.2-7.1-1.5-14.5-1.5-21.2-4.9 1.9-1.1 3.8-.3 5.6 0l18.6 3.2c7.5 1.3 7.6 1.3 7.3-6.5-.2-4.4-1-8.7-.8-13.1.5-10.9-2.3-20.2-11.7-26.7-1.3-.9-2.3-2.2-3.4-3.3-5.4-5.4-6.8-5.4-12 .4-2.4 2.7-5.3 4.5-8.7 3.8-11.1-2.3-22.3 0-33.4-.8-2.1-.1-3.7.7-5.2 2.1l-25.1 25.2c-2.4 2.4-1.6 3.3 1.4 3.8l42.3 6.8c8.4 1.4 17 1.8 25 5-2.5 1.5-5.1.5-7.6.1l-48-8.1c-5.1-.8-10.7-3.9-15.7.7-3.7-3.3-5.3-.4-7.2 2.6 4.9-5.1 5.5 1.5 8.2 2.6-1.9 1.7-4.4 0-6.7 1.3.4.6.6 1.3 1.1 1.8l45.7 45.5c3 3 4.9 1.2 6.8-1 9.4-11.3 20.3-21.1 30.4-31.7 1-1 2.7-1.8 2.3-4-5.1-.1-10-1.6-14.9-2.3l-54.5-7.1c-3.5-.5-7-.6-10.1-2.5zm272.2-97c-1.4-.2-2.6-1-3.6-2l-17.7-17.8-15.4-15.4c-.3.4-.7.7-1 1.1l38.2 38.2c-.1-1.8-.1-2.8-.1-3.8l4.5 4.4c.8.8.9 1.9.2 2.9-.6.8-1.6 1.3-2.3.7-3.4-2.7-5.6.7-8 1.8-6 2.6-8.6 8.4-7.5 14.4.3 1.8-1.1 3.4-2.1 2.1-3.3-4.1-9.1-3.5-12.3-7.2-4.4-5-7.7-11-14.4-13.6-.9-.3-1.6-1.4-2.1-2.3-1.8-3.7-3.5-7-8.1-8.3-2.6-.7-4.7-3.7-5-6.9-.3-2.1-1.5-3.5-3-4.8-1.2-1.1-2.5-1.2-3.7-.1-1.3 1.2-1.8 2.6-.5 4.1.8.9 1.6 1.8 2.5 2.7l69.3 69.3c1 1 2 2 3 2.9 1.4 1.2 2.8 1.4 4.2.1 1.3-1.1 2.3-2.4 1.1-4-1.3-1.7-1-3 .3-4.6 5.8-6.8 12-13.2 18.4-19.4 1.1-1.1 2.4-2.2 4.1-1.8 2.3.6 4.7 1.4 5.8-1.5 1-2.5-1.5-3.7-2.8-5.1l-69.6-69.7c-4.5-4.5-5.9-4.4-9.8.7-2 2.6-1.2 5.5 1.9 5.7 6.9.6 11.4 3.4 11.6 10.9 0 1.5 1.2 1.3 2.2 1.5 5.9 1.2 9.6 4.5 10.3 10.7.1 1.3.4 2.7 2 2.6 5.2-.4 6.7 4.5 9.9 6.9 1.7 1.5.8 3.2-.5 4.6zM440 433.8c-11.1 3.2-20.5 7.3-29.1 12.9-35.7 23.2-48.5 76.7-23.7 114.1 11.5 17.2 26.5 30 46.3 35.6 8.4 2.4 15.1 5.6 20.7 12 1.8 2.1 4 3.9 5.9 6 2.8 3.2 5.3 3.1 7.6-.3 3-4.4 6.9-7.9 10.6-11.6l48.5-48.7c3.3-3.2 3.4-5.5-.1-8.5-2.8-2.4-5.2-5.2-7.8-7.7-1.6-1.5-3-3-.7-5.2 2.2-2.1 3.4-.4 4.8.9l9 8.8c2.2 2.3 4.3 2.6 6.6.1 3.8-4.1 7.8-8 11.9-11.9 1.9-1.9 2.8-3.8 1.8-6.5-.8-2.4-1.4-5.1-.2-7.8 1.1 7.4 5.1 12.8 11 17.4.3-14.8-1-28.8-6.8-42.2-5-11.5-11.2-22.1-19.9-31.1-3.6-3.7-4.6-3.6-6.1 1.2-.7 2.4-1.8 2.5-3.2 1.1-1.6-1.6-3-3.4-4.2-5.3-.7-1.1-.9-2.6.9-2.8 7.3-.9 1.9-3.5.4-4.6-9-7.1-19.6-11.4-30.2-15.4-.9-.4-2.1-.5-2.7 1.5 7.4 3.6 15 7.1 21 13 5.8 5.8 11.8 11.4 15.9 18.7 4 7.1 5.8 15.2 8.9 23.4 1.3-2.4 1.1-4 1.2-5.6.1-2 .6-4.1 2.8-4.5s3.7 1.4 4.4 3.1c1.3 2.9 2.1 5.9 3.1 8.9 2 6 1.8 6.3-4.2 5.5 5.5 6.6 6.9 9.8 6.2 14.2-.5-.8-1-1.3-1.2-1.9-1.9-7.6-7.5-12.4-12.7-17.5-1.3-1.2-2.6-1.9-4.1-.6-1.9 1.5-4.8 2.5-4.7 5.2.1 1.9 2.6 1.1 4 1.5 5.6 1.6 10.2 7.4 11 14s-2.3 12.9-7.8 15.9c-5.9 3.2-13.1 2.5-18.3-1.3-5.9-4.4-6.5-10.6-6.4-18.4l-21.5 17.3-67.8 53.6c-1.9 1.5-3.7 3.3-5.7.6-1.9-2.5.8-3.8 2.2-5l41.3-33.1 19.4-15.7c-13.3 2.7-25.6 2.3-37.9-3.7-12.6-6.2-20.6-16.2-25.6-28.6-8.7-20.9.8-43.5 25.2-61zm-69.7 129.5c-1.2-5.5-3.1-9.6-9.7-8.3-3.1.6-4.4-1.2-4.7-4.1-.8-6.4-1.8-12.8-2.7-19.2-1-7.1-1-7.3 6-8.2 3.7-.5 5-1.9 5.6-5.9.6-3.9-2.1-6.8-1.5-10.6.6-4.2 3-7.2 4.9-10.7 3.2-5.5 5.9-11.4 8.6-17.2 3.1-6.7 8.5-12.1 12.4-20.2l-27.4 27.4c-1.7 1.7-1.9 3.4-1 5.7 1.7 4.3.6 7.9-2.9 11.3-9.4 9.1-18.5 18.5-27.8 27.8-2.1 2.1-3.8 3.7-1.6 7.1 1.9 2.9 1 6-1.6 8.5-2.1 2.1-4.1 4.4-6.4 6.2-4.2 3.3-3.9 5.9-.1 9.6l100.3 99c3.6 3.4 5.7 3.1 9-.3 7.4-7.9 15.3-15.3 22.8-23.2 2.6-2.8 5.4-4 9.2-3.8 4.7.2 9.5-.2 15.6-.3-5.1-3.1-8.6-5.8-13.6-5.8-15.3 0-29.5-4.1-43.3-10.7-7-3.3-12.9-8.7-20-11.3-9.1-3.3-14.8-9.9-19.7-17.2-5.4-8.1-9.7-17.1-14.5-25.6 1.5-1.5 2.6.3 4.1 0zm237.4 105l-.2.2 24.4 24.5c2.8 2.9 5 3 7.8 0 3.4-3.7 7-7.3 10.7-10.8 2.3-2.2 2.8-4.4 1.8-7.5L629.8 599c-.8-2.7-2.1-4-5-4.3-9.7-1-19.4-2.4-29.1-3.6-1.7-.2-3.7-.9-4.8.9-4.7 7.1-11.7 11.9-17.4 18-2.6 2.8-4.2 4.2.9 6.2 8.1 3.3 11.9 12.3 8 19.4-2.3 4.3-1 6.6 1.8 9.5 8 7.6 15.7 15.4 23.5 23.2zM569.1 539c.8 0 1.5-.1 2.3-.1-.4-4.3-.6-8.6-1.2-12.8-.6-4.4.9-7.6 4.1-10.7l25.6-25.5c3.6-3.5 3.6-6 0-9.5l-30.5-29.5c-24.2-22.9-47.1-47.3-71.4-70.1-2.4-2.3-4.1-2.6-6.5 0-2.7 3-5.7 5.7-8.6 8.5-2.7 2.7-5.8 3.8-9.5 2-1.7-.9-3.4-1.2-4.8.2l-15 15c4.3 1.5 7.7.4 11.1.2s5.2.8 5.1 4.6c-.1 4.3.2 8.7.4 13.1.1 2 .4 3.8 2.9 4.3 2.6.5 3.9-.8 5.1-2.7.9-1.6 1.1-3.3 1.3-5 .4-4.2.8-8.3 1.4-12.4.7-4.8 1.8-5.2 6-3l21 10.6c12.9 6.3 25.2 13.6 38.4 19.2 2.3 1 3.9 2.8 1.9 5.4-2.4 3.2-4.9 6.4-7.7 9.1-5.3 5.1-5.2 4.9-.3 10.7 16.1 19 25.5 40.7 25.5 65.9.1 4.3 1 8.6 3.4 12.5zm-35.4 249.9l16.8 16.8c1.5 1.4 3.1 1.4 4.7 0 1.3-1.2 2-2.5.8-4.1-2.1-2.6-.6-4.5 1.2-6.3l16.3-16.3c2-2 4.2-4 7.2-1.3 1.2 1 2.3.2 3.2-.7 1-1 1.1-2.2.3-3.3-.9-1.1-1.9-2.1-2.9-3.1L542.7 733l-33.1-32.8c-1.5-1.4-3-3.4-5.3-1.2s-.5 3.7.9 5.3l4.8 4.8 35.6 35.6c1.3 1.3 3.4 2.9 1.3 4.8-2 1.9-3.4-.4-4.7-1.6l-33.9-32.8c-3.4-3.2-5.8-9.2-10.1-9-4.2.2-6.7 6.1-10.3 9.1-4.1 3.4-3.3 5.9.2 9.2l39 38.9c1.2 1.2 3 2.5 1.2 4.4s-3.2.1-4.4-1c-13.7-12.7-27.2-25.7-40.1-39.2-2.4-2.5-4.1-3.9-7.3-.9-3.1 3-2 4.9.5 7.3l32.7 32.5c5.9 5.9 12.1 11.6 18.2 17.3 1.2 1.2 2.7 2.8 4.5 1.5 3.7-2.7 7.3-5.6 10.7-8.6.9-.8 1.4-2.2 2.8-1.5.8.4 1.7 1.3 2 2.2.4 1.1-.7 1.8-1.7 2.3-2.7 1.3-4.1 3.6-5.4 6.2-1.1 2.1-2.6 4.3-7.1 3.1zM204.2 269.8l30-30c2.5-2.4 3.8-4.6.4-7.2-7.6-5.9-14-13.1-20.9-19.8-7.6-7.4-7.5-7.4-14.7-.1l-1.1 1.1c-19.3 17.5-37.2 36.4-55 55.3-2.8 3-2.7 5 .1 7.8 7.7 7.4 15.3 14.8 22.6 22.6 3.6 3.8 6 3.2 9.3-.3l29.3-29.4zm384.1 234.9c0 .1 0 .1 0 0-4.2 4.4-8.6 8.7-12.9 13-1.5 1.5-3 3-2.8 5.4.6 7.8-.4 15.7-.4 23.5 0 6.8 3.7 14.2-1.9 20.7-1 1.1-.2 2.2.8 3.2l14.2 14.7c1.8 1.8 3.9 2.7 6.5 3l26.4 3.6c5.5.8 5.8.4 4.8-5l-7.8-44.3c-3-16.5-6.4-32.9-8.6-49.5-.5-3.8-1.9-4.7-4.8-1.6l-13.5 13.3zm-169-204.5c-4.2 3-7.5 7.1-11.1 10.8-5.6 5.7-5.6 8.6 0 14.1l36.1 35.1c9.5 8.7 18.5 18.1 27.6 27.2 2.5 2.5 5.5 4 8.3 1.6 5.8-4.8 11.2-10 15.8-16 .9-1.1 2.3-2.9.5-4.7-1.2-1.3-2.4-1.5-4.2-1-3.6 1.1-6.3-2-5.5-4.2 1.5-4.1-1.1-5.4-3-7.4-2.8-2.8-6-5.3-8.9-8.2L436 309c-1.1-1.1-2.1-2.2-4-2-5.4.6-7.6-1.5-6.7-6.6.2-.9.3-1.8-.7-2.2-1.1-.4-1.6.4-1.9 1.2-.5 1.5-.9 3-1.5 4.5-.1.3-.8.4-1.1.5-1.2-1.3.9-2.8-.8-4.2zM234.6 488c1.6 1.5 2.8.6 4 .6 3.7.1 6.4 2.5 6 5.7-.5 3.6 1.2 5.3 3.2 7.1 16.4 15.2 32.4 30.8 48.2 46.7 1.4 1.4 2.6 2.5 5 1.9 3-.7 5.1 1.7 5 4.1-.2 3.4 1.5 5.6 2.7 8.5l15.5-15.5c4.3-4.4 4.2-6.1-.2-10.5l-34.2-34-30.9-30.6c-3.5-3.5-6.9-3.6-10.5 0l-11.3 11.4c.8 1.5 2.1-.7 2.7.9-1.7 1.1-3.3 2.3-5.2 3.7zm-19.1-14c-.3-.8-.5-1.6-.8-2.3l-29-67.8c-3.3-8-9.5-13.2-15.2-19-.7-.7-1.7-1.4-2.7-1.5-4.6-.2-7-2.2-7.2-7.1-.1-2.4-2.1-4.1-4.3-4.8-2.2-.8-3.4 1.1-4.7 2.5l-14.2 14.7c-4.9 5-4.9 5.1-.1 9.9l46.4 46.2c10.2 10.1 20.2 20.3 31.8 29.2zm194.1-195.5c-16.3-17.8-32.9-34.7-50.3-50.9-9.9-9.2-19.3-18.8-28.8-28.2-1.8-1.8-3.4-3-5.6-.5-5.1 5.8-11.3 10.4-15.9 16.6-1.1 1.5-3.3 2.7-2.1 4.9 1 2 2.5 3.8 5.2 3.8 3.1-.1 5.1 1.8 5.9 4.3 3 9.5 10.2 15.6 18.2 19.6 12.9 6.4 26.7 11.2 40.1 16.7l33.3 13.7zm155.2 393.7c-3.8-7-4.7-7.1-10.4-1.3-4.6 4.8-9.1 9.7-13.5 14.6-1.1 1.2-3.5 1.8-2.9 3.9.5 1.7 2.6 1.3 4.1 1.7l48.5 13 25.8 6.7c4.2 1 9.1-1.8 11.8-6.6 2.1-3.9-1.6-5.4-3.4-7.2l-42.5-41.2c-.4-.4-.8-.7-1.1-1.1-1.7-1.7-3.5-1.9-5 0-4.2 5.4-12.7 8.1-11.4 17.5zM240.2 294.7c0-.1 0-.1 0 0l53.4-53.3c3.6-3.5 2.8-5.8-.8-8.3-.7-.5-1.8-.7-2.2-1.4-2.7-4.2-4.9-2.8-7.8 0l-48.4 48.6c-22.3 21.9-43.8 44.6-65.7 66.9-5.5 5.6-5.6 5.6.1 11.3.2.2.5.5.7.8 2.4 3.2 4.6 2.9 7.2-.1 3.8-4.4 7.6-8.6 11.7-12.7l51.8-51.8zm266.9 291.7c-1.7-7-4.2-5.3-7.1-2.4-4.7 4.9-9.6 9.6-14.4 14.5-1.3 1.3-3.3 2.3-3.2 4.5.1 2.3 3.4.3 3.8 2.5-12.5 8.8-12.8 12-2.1 22.7l3.7 3.7c1.3 1.2 2.7 2.2 4.5 2.4 2.5.3 5.4.5 6.6-1.8 1-2-1.6-3.1-2.9-4.4-4.6-4.6-4.8-7.8-.2-12.4l12.6-12.6c1.5-1.5 2.6-3.1 3.2-5.2 2.3-7.8 8.2-13.2 14.7-16.9 3.8-2.2 7.3-4.4 10.4-7.4l13.8-12.8c5.6-5 7.8-4.8 13.3.3 1.3 1.2 2.5 3.5 4.7 2.2 2.1-1.2 1.8-3.6 1.6-5.7-.3-2.5-1.4-4.6-3.2-6.4l-9.5-9.7c-3.1-3.3-6.1-2.9-9 .2-2.3 2.5-4.4 5.2-6.9 8.3-.5-5.4-2.5-4.9-5.2-2.2l-16.8 16.6c-4.2 4.2-4.1 4.3.6 8.4-6.3 1.9-9.8 6.5-13 13.6zm-116.8-236c.1 4 2.7 5.5 4.6 7.4l44.4 43.7c7.3 7.2 8.5 7.5 15.5.3l1.5-1.5c4.6-4.9 4.7-5.6 0-10.2l-22.6-22.6c-9.6-9.3-18.4-19.5-29.8-27l7.2 7.2c-4-3.7-8.9-6.1-13-9.5-3.6-3-6-2.7-9.2.6-3.6 3.7-1.4 5.7 1.2 8.1 1.4 1.3 2.7 2.7 3.2 4.7.1.4.1.9.2 2.1-1.2-1.3-1.9-2-3.2-3.3zm-93 139.9c2.4 2.5 3.2 7.2 8.4 6.1 1.4-.3 3.5 2.1 3.2 2.9-1.2 3.3 1.6 4.1 3 5.6 4 4.2 8.2 8.1 12.3 12.2 8.8 8.7 8.9 8.6 17.4-.5 3.4-3.7 3.1-6.5-.3-9.7L313 479.7c-10.4-9.4-18-22.2-32.3-26.9-1.6-.5-3-2.2-4.6-.6-2 1.9-6 4.2-4.7 6.2 2.4 3.7 2.1 8.4 4.6 11.4 5.1 6.2 11.2 11.5 16.9 17.1.5.4 1.3 1 1.8.8 5.2-1.5 5.5 3.6 7.8 6.1-1.8-1.1-3.5-2.3-5.2-3.5zm71.9 122.6c-15.9-15-32.3-33.1-50.4-49.6-2.6-2.4-4.2-4.4-7.6-1-3.5 3.5-2.9 5.8.5 9l34.4 33 67 65.7c3 3 5.3 3.4 8.1-.1 2.8-3.4-.1-5.1-1.9-6.9l-50.1-50.1zm197.9-166l.8-.8 34 34.2c3.1 3.2 4.9 2.5 7.6-.2 3.2-3.2 1.1-5.1-1.1-7.3l-60.5-59.5c-13.9-13.3-27.4-27-41-40.5-2.5-2.5-4.4-3.3-7.4-.4-3.2 3.1-2.3 5 .4 7.7l67.2 66.8zm51.5 35.6c-.4.2-.9.5-1.3.7 3.2 27 7.5 53.8 11.5 80.6.7 5 3.1 2.2 4.8.6l30.3-30.4c2.7-2.7 2.8-4.7 0-7.3-7.1-6.5-14-13.1-20.9-19.8l-24.4-24.4zM368.8 375.2c-.3.3-.5.6-.8.9.2.5.4 1 .7 1.4 12.1 13.4 25.8 25 38.6 37.6.5.4 1.2 1 1.7.9 2.7-.6 2.6-.6 4.6 1 1.9 1.6 3.7 4.5 6.6 2.5 2.8-1.9 6.4-4.2 6.6-7.7.3-3.8 2.8-.7 3.8-1.8-.3-.6-.5-1.2-.9-1.5l-40.4-40.2c-2.2-2.2-4.6-5.9-7.9-5.4-3.7.6-6.2-.6-8.5-2.6-3.5-3.1-5.2-.2-7.3 1.7-2.4 2.2-2.1 3.8-.2 6.6 4.1 5.9 9.5 10.6 13.4 16.7l-10-10.1zm-49.2 66c-4.4-4.4-9.7-7.4-14.5-11-3.2-2.4-5-2.7-7.9.2-3 3-3.2 5.3 0 8.3 1.9 1.7 4.8 4.7 3.4 6.5-2.6 3.2.1 4 1.4 5.3l36.8 35.8c10.3 10.2 10.4 10.2 20.3-.4 3-3.2 3-5.8-.1-8.9l-43.1-42.9c-1.5-1.5-2.9-3.1-6.2-3.3 4.3 3.4 7.8 6.3 9.9 10.4zm-.2-36.3c1.9-1.7 3.3-3.5 5.1-4.3 5.8-2.5 8.9-7.3 12.3-12.3 3.2-4.7 7.2-9.1 12.5-11.7 4.1-2 7-5 9.3-8.8 3.9-6.4 8.7-11.7 15.4-15.2 2.7-1.4 4.9-3.6 6.2-6.2 3-5.7 7.9-9.7 12.3-14.2 2-2 4-2.5 6.3-.1 3.5 3.8 5.1-.5 7.1-2 2.3-1.7 1.3-3.3-.5-5.1-5-5-4.9-9.3-.1-14.5 2.5-2.7 5.2-5.2 7.7-7.9 1.2-1.2 2-3.7 0-3.7-4.9 0-7.3-3.8-10.8-5.8L367.9 274l-13.9-7.3c.1 1.4.7 2.1 1.3 2.6 13.6 11 25.4 24 37.6 36.5 7.5 7.7 7.8 16.4 1.1 23.4-16.4 17-33.2 33.6-49.9 50.2-4.1 4-7.3 3.3-9.6-2-1.2-2.8-2.1-2.9-3.9-.8-2.5 2.9-5 5.7-9 6.8-1.1.3-2.2 1.8-2.8 3-4 7.7-9.7 13.6-17.5 17.4-2 1-3.4 2.8-4.1 5.1-2.4 7.1-8.2 11.6-14.2 15.2-3.2 1.9-5.8 3.7-7 7-.8 2.5-2.4 4.3-4.3 5.8-4.5 3.6-7.5 9.2-13.6 10.9-1 .3-2.4 1.4-2.2 3.2 3.2.4 4.7-1.9 6.5-3.7l46-45.9c5.3-5.5 8.8-4.4 11 3.5zm32.6 48c0-2.2-3.1-2.7-1.9-5 2 .4 3 1.9 4.2 3.1l14.1 14c1.5 1.4 3.1 3.5 5.3 1.2 2.9-3 7.4-5 6.4-10.5 3.5 3.6.7 5.7-1.6 8-2.2 2.2-4.2 4.7-6.8 6.6 5.5-1.7 9.6-5.6 12-10.4 2.1-4.2-2.7-6.1-5.2-8.6-.9-.9-1.8-1.7-2.6-2.6l-37.2-36.8c-1.6-1.6-3.3-4.2-5.6-3.1-2.8 1.4-4.3.2-5.9-1.3-2.2-2.1-4.2-3.9-7-.9-2.5 2.7-4.2 5.1-.5 8.3 1.8 1.5 2.2 4 2.5 6.2.2 1.7.7 3.4 2.1 3.9 3.5 1.2 4.7 4.4 6.9 6.8 6.5 7.2 13.6 13.9 20.8 21.1zm183.1 269.4h0c4.3 4.1 8.5 8.3 12.7 12.5 1.7 1.7 3.2 2.5 5-.2 6.8-10 15.8-18 24.9-25.9.9-.8 2.4-1.4 2.3-2.6-.1-1.9-2-1.6-3.3-1.9-10.1-2.6-20.7-4-30.3-7.9-10.4-4.2-17.2-1.4-23.1 6.8-.1.1-.2.3-.4.4-2.5 2.2-2.5 4.3-.1 6.6 4.3 4 8.3 8.2 12.3 12.2zm121.5-132.5c-1-.8-1.6-1.4-2.3-2-9.1-8.2-9-8.1-17.8.6-3 3-3.6 5.8-2.3 9.8 3.5 10.8 6.6 21.7 9.8 32.6 2.1 7.2 2.7 7.3 8.1 2.3 7.5-7 13.8-15.3 22.2-21.4 2.6-1.9 1-3.4-.4-5.2-5.1-6.3-12.5-10.5-17.3-16.7zM207.7 419.2l.5-.5 35.2 35.2c7.7 7.7 16.1 7.8 23.9.1l46.3-46.3c1.8-1.8 4.5-4 1.7-6.6-2.3-2.2-4.5 0-6.3 1.8l-16.9 16.9-28.5 29.3c-5.8 5.8-11 5.8-16.9.2-5.2-5-10.1-10.2-15.2-15.2L175 378.8c-1.4-1.4-2.9-3.6-5.2-1.4-1.9 1.8-.8 3.3.8 4.8l37.1 37zm154.6-141c-14.5-14.9-29.8-28.9-44.8-43.3-1.5-1.4-3.1-3.4-5.3-1.2-2.1 2.2-.3 3.8 1.2 5.3 1.9 1.8 3.6 3.8 5.5 5.5 22 19.9 42 41.9 63.9 62 9.6 8.8 9.4 12.9.3 22l-27.7 27.9-17 17.1c-1.4 1.4-2.6 3.2-1 5 1.8 2 3.5.5 5-.8 3.3-2.9 6.9-5.5 9.7-8.7 12-13.4 25-25.8 37.6-38.6 8.8-9 8.8-15.6-.2-24.7-8.9-9.3-18-18.4-27.2-27.5zm-2.9 108.6c-.8 1.3 1.4 3.7-1.2 2.6-3.3-1.4-6.6-3.4-9.1-5.9-3.5-3.3-4.8 0-6.8 1.5-2.4 1.8-2.2 3.3-.4 6 4 6.2 8.7 11.9 13.7 17.3-4.8-1.7-6.8-6.8-11.3-8.8 13.4 15.7 29.2 28.9 44.5 42.8l-7.9-7.9c.2-.2.4-.5.6-.7l6.9 5.7c-1.3-5.5-1.3-5.5 3-8.5 5.1-3.5 5.1-3.5.6-7.8-5.2-5.1-10.6-10.1-15.1-15.8l1-1 19 19c.2-.2.4-.4.5-.6l-38-37.9zm-153.6-115l.2.2-30.1 29.9c-3.4 3.3-2.2 5.4.5 8.2 2.9 3 5 3.4 8.2.2l59.3-59.3c3-2.9 3.4-5.1.2-8.2s-5.4-4.2-9-.4c-9.7 10.1-19.6 19.7-29.3 29.4zm-8.1 141.5l28.8 54.6c.7 1.4 1.6 2.7 3.2 3.3 2.5.9 3.9 2.6 4.6 5.2 1 3.6 3.1 3.3 5.3 1.1 2.4-2.3 4.6-4.8 7-7.1 4.6-4.5 8.1-4.6 12.7-.4 2 1.8 3.6 3.4 6.1.8 2-2.2 4.9-4.1 1.3-7.2-1.7-1.5-.9-3.3-.3-5.3-10.7 5.3-16.5 4.3-24.6-3.5-14.4-14.1-28.4-28.8-44.1-41.5zm230.5 66.6c.2 5 .9 8.8 2.7 12.4 1.9 4 3.6 4.2 6.8 1l33.9-34.2c2.6-2.7 8.2-5.1 6.6-9-1.6-3.8-7.4-3.9-11.6-4.9-1.3-.3-3-.9-3.9.5-1 1.8.9 2.7 1.9 3.9 1.6 1.9 3.4 3.5 4.8 5.5 1 1.5 1.4 3.4-.1 4.9-1.6 1.6-3.2.4-4.6-.6-3.7-2.7-7.4-5.2-10.9-8.1-4.2-3.4-7.6-2.6-11.6.6-4.9 3.9-8.7 8.8-12 13.9-1.2-.8-1.2-1.5-.9-2.1 3.4-7.5 9.6-12.4 16-17.3-6.8 2.8-11.4 8.1-15.7 13.7-2.6 3.3-2.3 5.7.5 8.6 3.9 4.2 7.5 8.7 11.1 13.2 1.3 1.6 2.6 3.8.6 5.6-1.8 1.6-3.6.2-5.1-1l-8.5-6.6zm142.1 164.7c-6.9-.9-12.4-3.6-14.7-10.2-1.4-3.9-3-3.5-5.4-1-4.1 4.3-7.5 9.7-12.5 12.5-7.7 4.3-6.6 10.5-5.8 16.9 1.1 8.5.3 17.2 2.3 26.3 3.4-4.2 8.3-6.7 5.1-12.6-.3-.5.1-1.9.6-2.4 5.5-5 9.3-12.6 18.6-11.8-3-5.3-3-5.6 2.8-10.1-2.2 3-3.7 5.2-1.2 7 2.8 2 4-.9 5.5-2.2 2-1.7 3.7-3.7 5.5-5.6.7-.7 1.8-1.5 1.3-2.6-.6-1.4-2-1-3.2-1.1-.8 0-1.7.2-2.5.4-.7.1-1.7 1-2-.5-.2-1.2.3-2 1.6-2.2 1.3 0 2.5 1.1 4-.8zm-.6-62.3c-1.1-1.1-2.2-2.3-3.3-3.3-10-8.9-6.3-9.9-17.1.1-3.2 3-4.4 5.9-2.9 10.1.7 2 2.1 4.6-.1 6.4-4.6 3.9-2.3 6.6 1 9.6 3 2.7 5.8 5.6 8.6 8.5 2 2.1 3.8 2.1 5.8 0 5.4-5.7 10.6-11.6 16.6-16.7 2.4-2 2.2-4.1 0-6.2l-8.6-8.5zM516.1 611c1.4-2.5 3.5-2.4 5.2-1.4 5.7 3.2 9.4.4 12.8-3.8 1.3-1.6 3-3 4.4-4.4 6.5-6.5 7.1-11.7 2.2-19.6-2-3.2-4.2-4.8-7.3-1.2-1 1.2-2.3 1.9-3.9 2.3-7.1 1.8-11.6 7.4-14.6 13.2-1.8 3.6-3.8 6.8-6.5 9.6l-7.3 7.5c-5.8 6.2-5.8 6.4.7 11.9.4.3.8.7 1.2 1 1.9 1.5 2.6 1.2 2.7-1.4.1-4.1 3.4-7.4 6.4-7 5 .6 6.1-2.4 8.2-5-1.3-1.8-3.1-.1-4.2-1.7zm-300-328.8l-28.5 28.5c-1.9 1.9-4.6 3.8-1.3 6.9 2.7 2.5 5 3.7 8.3.2 8.6-9.2 17.7-17.8 26.2-27.2 9.7-10.8 20.5-20.5 31.2-30.3 2.6-2.4 3.3-4.5.4-7.4s-4.8-2.3-7.3.3l-29 29zm103.4 200.7l.2-.2 25.6 25.6c1 1 1.8 2.6 3.3 1 3.6-3.6 7.2-7.1 10.5-11 1.5-1.7.9-4.3-.4-5.9-1.8-2.2-3 .4-4.2 1.3-3.9 3-7.8 3.3-11.3-.3-15.6-16-32.3-30.9-47-47.8-.8-.9-1.4-1.8-2.4-.8-2.4 2.3-5.4 4.2-6.5 7.3-.2.6 3.3 2.4 5 3.8 1.5 1.2 2.9 2.5 4.3 3.9l22.9 23.1zm176.3-4.1c.7-6.9-1.8-11.9-4.2-16.9-1.4-3-3-1.8-4.7 0l-13.8 14.3c-.9 1-3.3 1.9-1.8 3.6 1.4 1.6 2.7.2 3.7-1.2.7-1 1.7-1.2 2.8-.6.9.5 1.2 1.6.7 2.3-2.1 2.4.1 4.2.8 6.1 1.2 3.4 1 6.6-1.6 9.2s-5.7 3.2-9.2 2.3c-3.3-.9-5.4-3-6.4-6.3-.7-2.3-1.9-2.7-3.7-.9l-13.3 13.4c-1 1.1-1.8 2.3-.2 3.5 4.5 3.4 9.6 4.7 16.1 4.6l-6.2-7.8c-1.2-1.6-3.3-3.4-1.2-5.4 1.8-1.8 4.1-.4 5.7.8 3.4 2.5 6.6 5.1 9.9 7.7 1.8 1.5 3.8 2.9 6.2 1.8 7.1-3.2 13.4-7.6 16.7-15 1.1-2.4.9-4.7-.7-6.9l-8.9-11.6c-1.2-1.6-3.5-3.4-1.2-5.3 1.9-1.5 3.9.1 5.6 1.4a242.09 242.09 0 0 0 8.9 6.9zm8 28.1c8.6-5.3 14.9-12.1 22.2-17.8 2.2-1.7 4.2-3.2 7.2-1.3-3.9-22.3-21.7-42.5-39.2-47.5 20.5 19.3 23 41.4 9.8 66.6zM239.4 376.2l-.1.1-2.6-2.6-27.9-27.7c-2-1.9-4.2-2.9-6.5-.9-2.5 2.2-1.1 4.4.5 6.4.8.9 1.6 1.8 2.5 2.7l56.5 56a20.56 20.56 0 0 0 3.7 2.9c1.7 1.1 3.7 1.6 5.3 0 1.8-1.9.9-3.9-.5-5.6-1-1.2-2.1-2.3-3.2-3.4l-27.7-27.9zm61.7 121.3l-.7.7-25.8-26c-2.6-2.7-4.1-3.6-7.1-1-3.3 2.8-2.1 4.9.4 7.3l30.9 29.7 22.7 22.4c3.3 3.4 5.1.6 7.2-1.4 2.7-2.4.8-3.6-1-5.3l-26.6-26.4zm23.5-195.2l22.3 22.2c2.4 2.3 5.3 7.1 8.9 3.3 3.4-3.6-1-6.6-3.5-9l-56.9-55.6c-2.3-2.2-5-7.1-8.4-3.5-3.4 3.5.7 7.2 3.4 9.6 11.8 10.6 22.8 22 34.2 33zm-21.9 10.8l-.3.3-27.8-27.8c-1.5-1.5-3-2.9-4.6-4.3-1.4-1.3-3.1-1.7-4.8-.5-2 1.4-1.8 3.4-.8 5.2s2.5 3.4 3.9 4.9c19 19.7 39.4 38.1 58.9 57.3.9.9 1.8 1.7 2.8 2.3 1.5.8 3 .7 4.3-.7s1.4-2.7.3-4.2c-.7-1-1.5-1.9-2.3-2.8l-29.6-29.7zm-37.8 59.3c-13.2-13.9-28.1-26.2-41.4-40-2.1-2.1-4.5-4.1-7.1-1.2-2.3 2.6-.3 4.8 1.7 6.7 3.8 3.6 7.8 7 11.5 10.7l49.1 48.7c1.9 1.9 4.1 4 6.7 1.6 2.9-2.7.8-5.1-1.2-7.1l-19.3-19.4zm-18.6-59.2c-.7-.9-.9-1.2-1.2-1.4-2.2-2.2-4.6-5.6-7.8-2.8-3.5 3.1.1 5.5 2.1 7.8.2.3.5.5.7.7l55.8 55.4c1.9 1.8 3.9 3.5 5.9 5.2 1.2 1 2.5 1.2 3.9.3 1.2-.8 2.1-1.8 2-3.4-.2-1.9-1.4-3.2-2.7-4.4l-22.3-22.2c-1.9-1.9-3.8-3.1-6.2-.8-1 .9-2.2.9-3.3-.1-1.2-1.1-1.7-2.4-.6-3.7 2.8-3.1.6-5-1.5-7-8.4-8.1-16.4-16.6-24.8-23.6zm86.4-30.9c3.2 3 6.2 6.1 9.3 9.2l22.8 21.6c1.4 1.4 3 2.7 5 1.1 2.1-1.7 1.4-3.7.2-5.6a16.32 16.32 0 0 0-1.7-2c-20-20.3-40.2-40.2-61-59.6-.8-.7-1.6-1.4-2.5-1.9-1.3-.8-2.7-.9-3.9.2-1.4 1.2-1.4 2.8-.5 4.3.8 1.3 2 2.4 3.1 3.5l29.2 29.2zm-48 38.1c8.8 9.8 22.3 21.1 34.9 33.5 2.1 2.1 4.8 5.6 7.9 2.6 3.4-3.4-1-5.6-2.9-7.5l-59.9-58.5c-1.7-1.7-3.6-3.9-6.2-1.6-2.9 2.6-.6 4.7 1.3 6.6l24.9 24.9zm155.5 38.5l-.3.3-27-27c-3-2.9-6.7-1.8-7.8 2.2-.7 2.6 1.3 3.8 2.8 5.2l51.9 50.9c2.4 2.4 3.7 3 6.2.3 2.2-2.4 2.4-3.9-.2-6.4-8.7-8.4-17.1-17-25.6-25.5zM245.5 341l-15.4-15.3c-1.9-1.8-4.1-5.1-6.9-2.3-2.5 2.6 0 5.1 2 7.2l1.5 1.5 43.9 43.6c5.3 5.3 10.9 10.3 16.4 15.4 1.6 1.5 3.5 2.8 5.5.7 1.8-1.9 1.1-3.9-.5-5.6-.8-.9-1.7-1.7-2.6-2.6-14.7-15.1-30-29.4-43.9-42.6zm-24.8 30.2l-.7.7-17.4-17.4c-1.8-1.7-3.7-4.6-6.5-1.9-3.1 2.9-.1 4.9 1.6 7 1 1.2 2.1 2.3 3.3 3.4l54.7 54.1c2.3 2.2 4.9 6 8.2 2.6 3.2-3.3-.6-6-2.9-8.2l-40.3-40.3zm91.2-68l.2-.2 31.1 31.1c2 2 4.2 3 6.3.7 1.9-2.2.5-4.2-1.2-6-3.9-4.2-7.7-8.6-11.9-12.4-16.9-14.9-32.2-31.4-48.4-47.1-1.1-1.1-2.2-2.2-3.5-3.2-1.5-1.1-3-.9-4.3.3s-1.4 2.8-.3 4.3c1.1 1.4 2.3 2.6 3.5 3.9l28.5 28.6zm298.6 181c-.3 1.6 2.5 4.3-.1 5.3-2.9 1.1-1.9 2.7-1.7 4.4l8.8 53.7 7.7 41.7c.3 1.9.9 3.7 3.1 3.5 2.7-.3 1.9-2.5 1.7-4.1l-3.2-23.8-10.8-73c-.5-3.8-.7-7.4-5.5-7.7zM288.7 341.3l-6.7-6.6-32-30.8c-1.9-1.8-4.2-3.2-6.4-1s-.3 4.1 1.4 5.8l27.7 27.8c1.8 1.8 3.6 3.6 6.1 1 1.2-1.2 2.6-1.9 4.1-.6 1.7 1.5 1.3 3.1-.1 4.5-1.8 1.8-1.2 3.1.5 4.7l23.9 23.5c1.9 1.9 4.2 4.1 6.7 1.6 2.6-2.6 0-4.8-1.8-6.6l-23.4-23.3zM534 445.6c6.1-6.3 6.1-6.3-.8-10.2-4.6-2.5-9.2-4.9-13.9-7.2l-29-14.5c-1.1-.5-3.5-1.9-3.3 0 .3 3-2.4 7.5 3.3 8.9 2.3.6 5.8 1.9 4.6 5.2-1.3 4 1.1 4.5 3.6 5.3 9.3 2.9 18 6.9 25.5 13 4.7 3.8 7.6 3.4 10-.5zM339.4 251.7c2.8 4.9 6.4 8.7 11.2 11.1 16.4 8 31.9 17.9 48.2 26.2 6.9 3.5 7 3.4 12.4-2.2 2.9-3 3-4.6-1.2-6.1-8-3-15.8-6.4-23.7-9.6l-46.9-19.4zM224.1 413.9l.7-.7 20 20c1.4 1.4 3.1 2.7 5 1 2-1.7 1.5-3.8 0-5.6-1-1.2-2.1-2.3-3.3-3.4l-58.9-57.4c-1.7-1.7-3.6-4.2-6.1-1.8-2.4 2.3-.5 4.5 1.2 6.3 1.3 1.4 2.7 2.8 4 4.1l37.4 37.5zm1.7-197l12.6 12.5c2.2 2.2 4.1 2.2 6.2-.1a64.56 64.56 0 0 1 3.7-3.7c2.5-2.2 2.3-4.3 0-6.6l-22.1-21.6c-6.1-5.7-6.1-5.3-12.3-.1-3.1 2.6-3.1 4.6-.3 7.2l12.2 12.4zm-84.3 84.2l.4-.4 12.6 12.6c3.4 3.6 5.5.8 7.7-1.4 2.3-2.2 4.1-4.3.9-7.4-8.3-8-16.4-16.1-24.5-24.4-4.4-4.5-6.2 0-8.7 2.1-3 2.5-2.7 4.8.1 7.4 4 3.7 7.7 7.7 11.5 11.5zm399.8 316.7c-.4-.4-.7-.8-1.1-1.1-3.6-3.1-6.5-9.5-12.3-2.6-.6.7-1.6.2-2.4-.1-4.5-1.6-4.7 3.1-6.8 4.9-1.9 1.7-.2 3.5 1.2 4.9l10.3 10.4c5.6 5.5 5.6 5.6 11 .1 9.7-9.9 9.2-7.2.1-16.5zM301.1 303.4l-29.3-29.2c-1.5-1.5-3.6-3.9-5.7-1.6-1.8 2 1.2 3.3 2.3 4.5 9.9 10.6 20.6 20.4 31.1 30.4 12.9 12.2 25.4 25 38 37.5a41.21 41.21 0 0 0 3.1 2.8c.9.7 1.9.8 2.9 0 1.1-1 1-2.2.1-3.2-1.2-1.3-2.3-2.6-3.7-3.7-12.7-11-24.1-23.6-38.8-37.5zm-113.9 99.3l17.5 41.3 14.1 32c.6 1.3.8 3.4 3.1 2.5 3.4-1.2 5.2-5.8 3.6-8.9l-23.9-44.7c-4.2-7.7-6.8-16.5-14.4-22.2zm226.1 20.6c-.8-1.4-2.6-.9-4.4.1l-8.6 5c-13.3 8.2-11.4 4.1-4.7 16.9 3.3 6.3 6.6 6.3 10.7.3 1.4-2 2.5-3.1 5.2-3.4 9.4-1.1 10.9-4.3 6-12.3-1.1-2-2.4-3.9-4.2-6.6zm43.8 3.8c2.3 3.1 5.3 1.2 8 1.2 1.6 0 2.6-1 2.6-2.7l-.3-13c-.1-2.3-1.1-3.5-3.6-3.4l-18.2.5c-3.6.1-4.4 1.9-4 5.1.4 2.9.9 5.9.6 8.8-.5 4.6 1.5 5.9 5.7 5.3 1.7-.2 3.3-.1 4.5-1.9 1.3-2.1 3.1-2.5 4.7.1zM312 269.6l-.8.8-17.1-17c-1.5-1.4-3.3-4.9-5.2-2.9-2.5 2.4 1.2 4.1 2.7 5.6l67.7 66.3c1.5 1.4 3.2 4.8 5.3 2.5 2.1-2.2-1.3-3.8-2.7-5.2L312 269.6zm-2 38.8l31.6 31.6c1.1 1.1 2.3 2.2 3.4 3.2.8.7 1.8 1.4 2.8.5 1.2-1.2.3-2.2-.6-3.1l-1.5-1.5c-22.8-23.6-46.5-46.4-70.2-69.2-.8-.7-1.6-1.4-2.4-2-.8-.5-1.7-.5-2.4.3s-.5 1.7.1 2.4c.9 1.1 1.9 2.1 2.9 3.1 11.2 11.2 22.3 22.6 36.3 34.7zm62.1 216.8c-1.5-1.7-15.4.3-16.2 2.2-.3.7-.1 1.7 0 2.6.4 4.1.8 8.3 1.4 12.4 1.5 10.3 2.2 10.8 12.6 8.8 6.3-1.2 8.2-5.3 4.3-10.5-2-2.6-2.2-4.7-1-7.6 1.1-2.6-.1-5.4-1.1-7.9zM295.4 333c-13.5-13.9-27.7-27.1-41.7-40.4-1.4-1.3-3-4.2-5-2.4-2.3 2 1 3.4 2.1 4.9 1.2 1.7 2.8 3.1 4.3 4.5l60.4 58.7c1.9 1.8 3.7 3.7 5.6 5.5 1 .9 2.1 2.5 3.5 1.3 1.8-1.6-.3-2.7-1.1-3.9-.5-.7-1.2-1.3-1.8-1.9L295.4 333zm291.4 318.2l.5-.5-10.4-10.4c-1.4-1.4-2.9-2.1-4.5-.5-1.7 1.8-.5 3.2.9 4.4 2 1.7 4.2 3.2 6 5 19.1 19.2 38.8 37.6 57.2 57.5 1.5 1.6 2.9 2.9 4.7.8 1.7-2-.1-3.1-1.4-4.3-3-2.7-6.1-5.2-9-8l-44-44zm-320-418.7l-.5-.5c-2.7 2.7-5.4 5.5-8.2 8.1-2.6 2.4-2.1 4.2.2 6.6 2.4 2.4 4.3 3.1 7 .3 7.4-7.9 15.6-15 22.5-23.5 1.6-2 4.1-3.7 1.1-6.6-2.7-2.6-5-1.5-7.3.7l-14.8 14.9zM222.4 387l-.4.4-32.2-32.2c-1.1-1.1-2.5-3.3-4.2-1.3-1.3 1.5.7 2.7 1.7 3.9.3.4.7.7 1.1 1.1 22.4 23.5 46.7 45 69.5 68.1.1.1.2.3.4.4 1.2.8 2.2 3.1 3.8 1.5 1.5-1.5-.5-2.7-1.6-3.8L222.4 387zm25.3-16.8l-36.6-36.6c-1.1-1.1-2.4-2.9-3.9-1.6-2 1.8.4 3.1 1.5 4.2 23.3 23.7 47.2 46.6 71.1 69.6.5.5 1 1 1.6 1.4.7.5 1.6 1 2.4.3 1-.9.6-1.9-.1-2.8-.7-.8-1.4-1.6-2.1-2.3-12-10.1-22.5-21.6-33.9-32.2zm53.3 19.6c-23.7-26.8-50.2-50.7-75.5-75.9-.6.6-1.2 1.3-1.9 1.9 25.5 25 50.1 50.8 77.4 74zm-136.2-55.2l.4.4-12.2 12.2c-2.2 2.3-2 4.6.5 6.8 2.4 2.1 4.1 1 5.8-.8l22.5-22.7c2.4-2.4 1.6-4.1-.4-6.2-2.1-2.1-4-2.4-6.2-.1l-10.4 10.4zm140 52.8c-.3-4.3-2.4-5.7-4-7.3l-68-66.6c-1.2-1.2-2.7-4.1-4.4-2.3-1.5 1.6 1.4 3.1 2.6 4.4l58.2 58c4.6 4.6 9.7 8.6 15.6 13.8zm17-19.2c-.9-2.5-2.7-3.8-4.1-5.2l-36.4-35.4c-10.6-9.9-20.6-20.4-31-30.6-1.4-1.3-3.2-4.6-4.7-3-2 2.2 1.5 3.6 2.9 5l68.2 66.8c1.2 1.1 2.1 2.9 5.1 2.4zm-42.2 42.9c.6-2.5-1.5-3.4-2.8-4.7l-69.7-68.2c-.5-.5-1-1-1.5-1.4-.7-.5-1.5-1.3-2.3-.7-1.2 1-.2 1.9.4 2.6.8.9 1.7 1.7 2.6 2.6 11.9 12.6 24.9 24 37.2 36.1l31 30.6c1.5 1.3 2.5 3.6 5.1 3.1zm-17.4-178.7c1.6.2 2.1-.9 2.8-1.6l14.5-14.4c4.6-4.5 6.5-4.5 10.9-.2l11.6 11.3c1.4 1.3 2.7 3.8 5.1 1.4 2.1-2.1.6-3.8-.9-5.3L294 211.4c-5.5-5.3-10-5.6-15.6-.6-4.9 4.4-9.4 9.3-13.8 14.2-1.7 2-3.5 4.4-2.4 7.4zm-92.8 95.2c-5.1-1.4-7.5.1-9.4 2.1L145.7 345c-3.7 4.2-3.8 8.6 0 12.6 4.6 4.8 9.4 9.3 14.3 13.9 1.4 1.3 3.1 2.8 5 .9 2-2 .1-3.5-1.2-4.8l-12.9-13c-2.9-3-2.9-5.8.4-8.9 5.9-5.6 11.5-11.5 18.1-18.1zm64.7 164.2c-.4 2.1.9 3 1.8 3.9l64.5 64.3c1 1 2.2 3.1 3.8 1.7 1.9-1.7-.3-3-1.4-4.2-5.9-6.7-13-12.2-19.3-18.4l-44.7-44.2c-1.1-1.3-2.1-3.2-4.7-3.1zm132.7-169.5c.6-.6 1.2-1.2 1.9-1.8-24.5-25.5-50.2-49.8-76.5-73.5 23.7 26.3 50.2 49.7 74.6 75.3zM258 432.8c.2-3-1.6-3.8-2.7-4.9l-65.6-65.4c-1.1-1.1-2.1-2.3-3.4-3.3-1.2-1-2.6-3.5-4.2-1.7-1.7 2 .8 3.3 2.2 4.5 2.2 2 4.5 3.8 6.6 5.9l49.5 49c5.6 5.3 11.5 10.3 17.6 15.9zm310.6 291.7c2.6.5 4.3.9 6 1.1 3.1.3 5.9.5 2.8-3.8-1.4-1.9-.5-3.8.8-5.3 1.7-2 3.5-3.9 5.4-5.7 2.7-2.7 5.5-2.9 8.2 0l7.7 8.5c7 7.6 7 7.6 14.1-.2 3.1-3.4 2.7-4.7-1.8-5.8-8-1.9-16-3.6-23.7-6.3-1.9-.6-4.1-1.2-5.3.8-3.7 6.1-9.7 10.3-14.2 16.7zM428.6 420c1.8.1 3.4.3 4.9.4 4.3.3 6.1-1.6 5.6-6-.3-2.4-1.1-4.3-2.8-6l-49-48.6c-1-1-2.1-1.8-3.4-2.4-.9-.5-2.2-.3-2.8.7-.8 1.5.7 1.7 1.5 2.1 3.5 1.6 5.7 4.5 8.3 7.1l35.7 35.3c8.4 8.2 8.7 8.9 2 17.4zm-84 32.7l19.4 19.4c1 1 2 2 3.1 2.8.9.7 2 .6 2.8-.4.9-1.1.3-1.8-.6-2.6l-29.4-28.2c-6.8-6.5-13.4-13.2-20.1-19.8-.8-.8-.7-3.4-2.7-2.1-1.8 1.1-1 2.7.1 4 .9 1.1 1.6 2.3 2.7 3.2 8.6 7.2 15.9 15.7 24.7 23.7zm16.5-25.7l-20.4-20.4c-1.1-1.1-2.3-2.2-3.6-3s-2.4.1-3.1 1.1c-.9 1.3.3 1.6 1.1 2.3 16.9 15.4 33.5 31.1 49.6 47.4.9 1 1.4 3.5 3.5 1.8s.6-3.1-.8-4.2c-8.7-7.1-15.9-15.4-26.3-25zm20 127.1c-2.7-3-6.4-1.5-9.4-.5-2.8.9-.8 3.6-.2 5.4.7 2.3 1.5 4.8 2.9 6.7 3 4 6.4 7.6 11.6 9.1 2.3.6 3.6-.8 5-2.1.9-.9.9-1.7.1-2.8-3.7-4.9-7-10-10-15.8zm5.2-156.9c-.1 0-.1 0 0 0L367 378c-1.2-1.2-2.1-3.5-4.1-1.6-1.9 1.8.1 3.2 1.3 4.3l38.6 38.4c1.1 1.1 2.6 3.2 4.3 1.3 1.4-1.5-.6-2.8-1.6-3.9l-19.2-19.3zm1.4-45.8c-4.3 2.8-1.7 4.8.2 6.8 15.4 16.2 32.2 31 48.1 46.7 1.2 1.2 2.5 2.9 4.7 2.6.3-1.2-.2-1.9-.9-2.5L401 366.9c-4.7-4.7-11-8.1-13.3-15.5zm110.2 14.8c-1.4-4.9-66.7-68.6-71-69.1 24 22.6 46.8 46.5 71 69.1zm-166.3 76l-.8.8-15.5-15.5c-.9-.9-2.1-1.8-3.1-.5-.9 1.1.4 1.7 1.1 2.5l42 41.6 7.5 7.2c.8.8 1.7 1.4 2.7.5.9-.9.4-2-.3-2.8-.9-1-1.9-2-2.9-3l-30.7-30.8zm59.7 10c.9-2.2-.6-3.2-1.6-4.2l-48-48.1c-.7-.7-1.2-1.4-2.1-.6-.8.6-.9 1.6-.4 2.4.5.9 1.2 1.7 1.9 2.4l46.1 45.5c1.1 1 1.9 2.5 4.1 2.6zm-10.9-48.1l18.7 18.7c1 1 2.4 2 3.6.7 1.1-1.3-.4-2.2-1.2-3l-38.9-38c-.7-.7-1.5-1.4-2.4-2-1.1-.7-2 0-2.7.9-.9 1.1-.4 1.8.7 2.5 9 5.4 14.9 14.1 22.2 20.2zm288.8 239.5c.8 1 1.1 1.5 1.4 1.8 9.6 9.6 7 9 16.5 0 3.2-3 2.8-5.2-.1-8.2-3-3.1-5-2.6-7.8.1-2.6 2.8-4.4 7-10 6.3zm-.9-19.6c-3.2 3.6-2.9 7.7-1.6 11.8 1 3.2 3 3.7 5.4 1.3 2.5-2.4 5.1-4.8 7.3-7.5 1.6-1.8 5.2-3.1 3.5-6.1-1.4-2.6-4.7-2.6-7.6-2.5-2.7.2-5 1.1-7 3zm-85.4 104.5c2.5 4.4-.3 6.5-2.3 9-2.3 2.9-7.7 4.9-2.4 10 5.5 5.2 7-.9 9.9-2.9 1.9-1.4 3.5-3.4 5.1-5.2 1-1 1.4-2.3-.2-3-3.9-1.5-5.7-5.6-10.1-7.9zm-26.1-98.9l10 8.3c1.3 1.1 2.7 1.7 4.2.3 1.4-1.4 1.1-2.8 0-4.1l-13.1-14.8c-1.8-2-3.5-1.5-5.3.2-1.9 1.7-2.3 3.4-.4 5.3 1.1 1.4 2.5 2.7 4.6 4.8zm16 108.3c1.4-1.5 2.9-3 4.4-4.5 2.7-2.6 2.1-4.4-1.4-5.6-7-2.4-13.5 1.7-13.6 8.9 0 2.6-.2 5.7 2.6 6.9 2.6 1.1 3.8-1.8 5.4-3.2.9-.7 1.7-1.6 2.6-2.5zm-41.9-45.7l-14.5-2.1c-.5-.1-1-.1-1.6-.2-2.6-.1-4.1 1.7-5.3 3.6-1.3 2.2.4 3.5 1.7 4.9 6.3 6.9 6.4 6.9 13.2.1 1.9-1.7 3.7-3.5 6.5-6.3zm53.6-97c4.1-1.8 4.7-3.7 2.2-6.3l-12.6-12.6c-3.2-3.2-5.9-7.6-11.6-4.8-.3.2-1-.3-2-.7l17.1 17.1c1.3 1.2 2.4 3.5 4.7 1.9 1.5-1 2.8-1.6 4.1 0 1.5 2-.8 3-1.9 5.4zm54.8-22.2c-.7-.7-1-1.1-1.4-1.4-1.5-1.2-2.5-3.8-5.2-2.5-2.5 1.2-2.5 3.5-2.2 5.9.5 3.5.8 6.9 1.4 10.4.2 1.3.6 3.5 2.4 2.4 3.5-2 6.6-4.9 8.4-8.4 1.7-3.2-2.2-4.5-3.4-6.4zm-247.5 9.4c-1-1-2-1.9-2.9-2.9-2.1-2.2-4.2-3-6.7-.5-2.3 2.4-1.8 4.7.4 6.8 1.8 1.9 3.8 3.6 5.5 5.5 2.1 2.3 3.5 2.4 5.8-.2 2.1-2.3 3.5-3.8.5-6.1-.9-.8-1.7-1.8-2.6-2.6zm143.1 25.5l9.7 9.7c2 2 3.6 3.5 6.5.7 3-2.9 1.5-4.7-.7-6.8-1.6-1.5-3.1-3.3-4.8-4.8-2.2-2-4.3-6.4-7.2-.5-.5.9-2.2 1.1-3.5 1.7zm116.5 45.2c.2 6.5 3.3 10.8 4.1 15.7.3 1.8.4 4.4 2.2 4.9 1.9.5 3-2 4.3-3.3 1.2-1.2 4.3-2.3 1.8-4.9l-12.4-12.4zM425 478.2c-3 18.6 16.8 38.8 33.4 37.2-20-4.9-31-17.1-33.4-37.2zm163.4 247.1c-.4.3-.7.6-1.1.9 2.9 4.1 6.3 7.7 10.4 10.4 3.5 2.3 7.7-.8 7.4-4.9-.3-4.2-6.7-10.5-12.2-11.3l7.1 7.1c1.6 1.6 3 3.5 1.2 5.4-2 2.2-4.2.9-5.9-.7-2.4-2.2-4.6-4.6-6.9-6.9zM496 464.4c-2.8-15.3-28-27.1-37.7-21.4 17.6-.6 29.6 7.1 37.7 21.4zm-14.6-38c-1.2 1.4-2.9 2.6-2.8 4.8.1 2.6.1 5.8 2.8 6.7 2.4.7 2.7-2.5 3.7-4.1 1.2-1.9 2.2-3.9 3.2-5.9 1.3-2.6 0-3.5-2.4-3.5-1.8-.2-3.4.6-4.5 2zm82.7 194c4.9-.5 9.5-1.8 12.9 3.3 2.9 4.3 1.7 8.7.2 13.2 4.6-2.2 4.9-5.8 4.2-9.7-1.1-5.9-4.8-9.1-12-10.6-3.3-.7-3.9 2-5.3 3.8zM364.7 291.3l-2.3-2.3c-1.8-1.9-3.6-2.7-5.8-.4-2.1 2.3-.4 3.8 1 5.3 1.3 1.4 2.7 2.7 4.1 4 1 .9 2.1 1.2 3.3.3 1.1-.8 2.4-1.7 2.2-3.3-.1-1.9-1.8-2.8-2.5-3.6zm65.7 136.1c-.6.5-.8 1.2-.4 1.9s1.2.8 1.8.5c.9-.5 1.1-1.3.5-2.1-.5-.7-1.2-.7-1.9-.3zm3.7 132.2l-9.3 9.2c-2.1 2.1-4.5 3.6-7.3 1.2-2-1.7-3.5-.3-5.2.5-1.1.5-2.3 1.3-3.4.2-.9-.9-.6-2.1 0-2.9 2.5-4.1.4-6.8-2.6-9.4-2.1-1.8-4-3.9-6-5.9-2.9-2.8-5.5-6.9-10.3-2.6-.7.6-2 .4-2.9-.4-1.1-1-.9-2.3-.3-3.4 1.2-2.1 1.4-4 .2-6.3-1.3-2.7.2-5.1 2.1-7.1l18.4-18.6c2.7-2.6 5.5-2.8 8.3-.3 5 4.4 8.7 10.5 15.9 12.1.7.2 1.6 1.2 1.7 1.9.8 6.4 6.1 9.5 10 13.5 3 3 3 5.7.1 8.6-3 3.2-6.2 6.4-9.4 9.7zm-13.2 5.7c3.4-2.5 8-4.7 7.7-8.9s-1.5-6.6 4-4.1c.9.4 1.6-.1 2.4-.6 5.9-3.5 6.1-6.9 1.6-12-3.2-3.6-8.7-4.8-10.8-8.6-2.8-5-7.2-7.9-10.8-11.8-1.9-2-3.7-2.5-5.8-.4-1.9 2-6 2.9-3.9 7.1.6 1.2 1.1 2.3.1 3.4-1 1.2-2.1.9-3.2 0s-2.3-1.3-3.3-.2c-2.4 2.5-5.5 4.6-7.4 8.8l3.3-1.5c1.7-.9 3.6-2.2 5.3-.6 1.8 1.7.4 3.5-.5 5.2-.4.8-.9 1.6-1 2.4-.4 2.6 13 16 15.6 15.6 2.5-.3 4.8-3.5 7.2-1.4 2.6 2.3-2 4.6-.5 7.6zm88.9 3.4c-8.1 8.2-20.6 8.4-28.6.5-7.7-7.6-7.9-20.8-.5-28.4 7.3-7.5 21-7.3 28.9.4 7.4 7.1 7.5 20.1.2 27.5zm-.7-7.3c3.4-7.6 1.3-15.3-5.5-19.6-6.7-4.3-14.3-2.8-20.2 3.7-5.5 6.2-5.4 12 .3 19.1 8.3 8.1 17.3 7 25.4-3.2zm-101-64.3c3.2 3.6 3 9.1-.5 12.2-4.2 3.7-10.2 3.5-13.6-.5-3-3.5-2.5-9.9.9-12.9 3.7-3.2 9.7-2.7 13.2 1.2z"/><path d="M443.5 574c3.7 3.5 3.9 8.8.6 12.1-3.3 3.2-8.9 3.2-12.3 0-3.2-2.9-3.1-8.2.2-11.8 3.1-3.4 8-3.6 11.5-.3zm16.7 29.3c-4.2-4-4.4-9.5-.5-13.4 3.9-4 9.4-4 13.4-.1 3.5 3.4 3.4 10.1-.1 13.6-3.2 3.2-9.5 3.1-12.8-.1zm1-11.7c-2.6 2.7-2.6 7.6.2 10.4 2.6 2.6 7.6 2.4 10.3-.5 2.6-2.8 2.7-7.5.3-9.9-3-3-8-3-10.8 0zM183.8 250.1c2.8-4.7 5.2-3.2 8.5-.2 5 4.5.6 6.8-1.6 9.6-2.9 3.8-5.1 1.4-7.6-.8-4-3.4-3.6-6.2.7-8.6zM655 538.9l-2.6 2.6c-5.8 5.8-6.3 5.6-12.1.1-3.8-3.6-3.6-6.8-.3-10.3l8.8-8.9c2.4-2.4 4.6-2.4 7.2.1 8.1 7.3 8.2 7.3-1 16.4zm-9.9-9.4c-1.1 1.9-4.9 3.1-3.4 6.1 1.2 2.3 3.2 5.4 6 5.3 4.6-.3 6.8-4.6 9.2-7.8 1.8-2.4-1.2-3.9-2.6-5.5-4-5.1-6.3-.8-9.2 1.9z"/><path d="M342.6 463.1c4.1 1.5 5.9 4.9 8.6 7.1 2.3 1.9 4.1 4.3 6.3 6.2 2.8 2.5 2.6 5.1.6 7.8-.1.1-.2.3-.3.4-8.9 8.8-7.9 10.3-17.2.8-4.5-4.6-9.2-9-13.8-13.4-.7-.7-1.9-1.1-.7-3.7l12.2 12.2c2.3 2.3 4.9 4.5 7 7 2.9 3.5 5.4 2.5 7.7-.3 2.4-2.8 6.9-5.4 2.2-9.9-3.3-3.2-6.4-6.4-9.6-9.6-1.3-1.2-2.8-2.1-3-4.6zm137.5 251c-9.1 9.7-9.1 9.7-18.4.4-8.4-8.4-8.4-8.4-.3-16.7 2.4-2.5 5-4.9 7.3-7.5 2.6-2.8 5-3.3 7.9-.2 2.9 3.2 6.1 6.3 9.3 9.2 3.2 3 3.5 5.8.1 8.8-2 2-3.9 4.1-5.9 6zm-15.1-2.9c7.5 7.3 6.2 8.2 13.9.2 7.2-7.4 6.5-5.6-2-14.3-5.9-5.9-5.9-5.9-11.7.1-7.4 7.8-7.8 6.2-.2 14zm-34.5-112.8c3.4 1.4 5.2 4.5 7.3 7.3 2 2.6.4 4.5-2.4 4.6-4.7.2-9.4-.8-13.6-3-2.9-1.5-2.7-4.5.4-5.9 2.7-1.2 5.5-2 8.3-3zm98.6-97.1l4.9 4.7c4.8 4.3 5.8 9.6 2.8 15-2.6 4.8-8.2 7.2-13.3 5.7-5.4-1.5-9.5-7.1-9.2-12.5s4.5-10.2 10.1-11.1c1.7-.3 3.4-.6 4.7-1.8h0zm-20 60.1c-8.1 10.3-17.1 11.4-25.3 3.2-.8-2.5-2-4.9-2.4-7.4-.8-5.4 1.1-9.7 5.6-13.2 4.8-3.7 9.5-3.8 14.6-1 7.4 4.1 8.4 10.8 7.5 18.4zm-22.3-14.6c-4.8 4.8-5 12.3-.4 16.8 4.9 4.8 12.5 4.8 17.3-.1 5-5.1 4.9-11.5-.3-16.6-5.1-5.1-11.5-5.1-16.6-.1z"/><text transform="translate(131.5 864.5)" class="B C">4</text><text transform="translate(222.711 864.5)" class="B C">0</text><text transform="translate(313.922 864.5)" class="B C">L</text><path d="M131.5,874.3v-4.9h182.4v4.9z"/><path d="M313.9,874.3v-4.9h97.4v4.9z"/><text transform="translate(783.156 272.882)" class="B C">8</text><text transform="translate(760.443 469.239)" class="B D">+1</text><text transform="translate(760.535 869.689)" class="B D">-/2</text><text transform="matrix(.7071 .7071 -.7071 .7071 375.2323 219.9386)" font-size="96" class="B">A12</text><text transform="translate(122.535 214.689)" font-family="Archivo-Bold" class="D">F</text></svg>