<?xml version="1.0" encoding="utf-8"?>
<!-- Generator: Adobe Illustrator 26.0.2, SVG Export Plug-In . SVG Version: 6.00 Build 0)  -->
<svg version="1.2" baseProfile="tiny" xmlns="http://www.w3.org/2000/svg" xmlns:xlink="http://www.w3.org/1999/xlink" x="0px"
	 y="0px" viewBox="0 0 800 800" overflow="visible" xml:space="preserve">
<g id="fill">
</g>
<g id="bg" display="none">
</g>
<g id="counters_00000155831629897369998050000010902328751353074356_">
	<g id="art105">
		<rect id="_x31__x2F_2_x22__800x800_00000114044745096398881380000016283944661380156083_" fill="none" width="800" height="800"/>
		<g id="_x31_05">
			<g id="text_00000175304396683190686310000001787831730485685437_">
				<g>
					<rect x="299.9" y="100.1" fill="none" width="400" height="600"/>
					<path d="M488.7,264.8v-79.7c-4.9,2.3-14,4.2-19.3,4.6v-17.3c10.1-1.9,20.3-7.6,26.4-14.3h16.4v106.7H488.7z"/>
					<path d="M607.3,210.9c0,29.3-9.3,55.9-41,55.9c-31.3,0-40.9-25.7-40.9-55.2c0-29.2,10.7-55.2,41.4-55.2
						C596.5,156.3,607.3,180.6,607.3,210.9z M549.3,211.3c0,19.6,2.2,37,17.3,37c14.7,0,16.7-16.3,16.7-37.3
						c0-20.7-2.5-36.2-16.4-36.2C553.2,174.8,549.3,188.2,549.3,211.3z"/>
					<path d="M687.4,177.2h-42.7c-0.7,5.7-2.5,15.9-3.2,20.3c4-3.3,10-5.7,19.2-5.7c21,0,32.9,15.2,32.9,35.5
						c0,20.6-11.3,39.6-40.1,39.6c-21.1,0-36.6-10.8-38.9-29.9h23.1c2,7.3,7.2,12.1,16.3,12.1c11,0,16.3-8.1,16.3-19.9
						c0-11.1-4.1-19-16.3-19c-9.9,0-13.9,4.3-16.3,10.6l-20.9-2.7c2.8-13.5,7.4-45.2,9.2-59.8h64.9L687.4,177.2z"/>
					<path d="M651.2,390.8h35v19.6h-35l24.8,24.7L662.2,449l-24.8-24.9v35.1h-19.5v-35.1L593.2,449l-13.9-13.9l24.8-24.7h-35v-19.5
						h35l-24.8-24.7l13.9-13.9l24.7,24.7l0.1-34.9h19.4v35l24.8-24.8l13.8,13.9L651.2,390.8z"/>
					<path d="M367.4,562.2V598h35v19.4h-35v36.3h-19.5v-36.3h-35.4V598h35.4v-35.7H367.4z"/>
					<path d="M405.8,653.6v-1.5c0-18.6,8.3-33.7,31.4-50.5c15-11,19.6-14.8,19.6-24.1c0-9.2-4.5-14.4-13.5-14.4
						c-10.4,0-14.2,6.4-15.7,15.7h-22.4c1.5-18.4,13.6-33.7,38.1-33.7c27.4,0,36.8,16.3,36.8,32.3c0,15.5-6.7,23-26.3,36.8
						c-13.1,9.2-18.4,15.3-20.2,20.1h50.5l-2.9,19.3H405.8z"/>
				</g>
				<g>
					<rect x="100" y="400" fill="none" width="200" height="300"/>
					<path d="M106.6,660.5v-48.8c0-27,14.1-37.2,28.6-37.2c12.6,0,20.8,6.7,24.2,14.2c2.8-7.5,10.8-17.4,25.5-17.4
						c19.1,0,33.4,15,33.4,38.8v50.4H106.6z M150.6,614.5c0-11.5-5.2-16.2-13-16.2c-8.2,0-12.4,6.2-12.4,15.5v23h25.4V614.5z
						 M199.6,636.8V615c0-13.1-5.5-19-15.6-19c-9,0-14.7,5.8-14.7,19.1v21.7H199.6z"/>
					<path d="M218.3,546.3h-79.7c2.3,4.9,4.2,14,4.6,19.3h-17.3c-1.9-10.1-7.6-20.3-14.3-26.4v-16.4h106.7V546.3z"/>
					<path d="M218.3,509.1h-1.5c-18.6,0-33.7-8.3-50.5-31.4c-11-15-14.8-19.6-24.1-19.6c-9.2,0-14.4,4.5-14.4,13.5
						c0,10.4,6.4,14.2,15.7,15.7v22.4c-18.4-1.5-33.7-13.6-33.7-38.1c0-27.4,16.3-36.8,32.3-36.8c15.5,0,23,6.7,36.8,26.3
						c9.2,13.1,15.3,18.4,20.1,20.2v-50.5l19.3,2.9V509.1z"/>
				</g>
				<circle fill="none" stroke="#000000" stroke-width="10" stroke-miterlimit="10" cx="600" cy="600" r="100"/>
				<g>
					<rect x="500" y="500" fill="none" width="200" height="200"/>
					<path d="M561.9,659.1v-1.5c0-18.6,8.3-33.7,31.4-50.5c15-11,19.6-14.8,19.6-24.1c0-9.2-4.5-14.4-13.5-14.4
						c-10.4,0-14.2,6.4-15.7,15.7h-22.4c1.5-18.4,13.6-33.7,38.1-33.7c27.4,0,36.8,16.3,36.8,32.3c0,15.5-6.7,23-26.3,36.8
						c-13.1,9.2-18.4,15.3-20.2,20.1h50.5l-2.9,19.3H561.9z"/>
				</g>
				<line fill="none" stroke="#000000" stroke-width="10" stroke-miterlimit="10" x1="465" y1="138" x2="700" y2="138"/>
			</g>
			<g>
				<path d="M220.6,176.5c2.5,2.1,4.5,4.1,6.9,5.6c5.3,3.3,8.1,2.3,9.2-3.9c0.8-4.3,3.6-2.2,5.6-2.8c1.8-0.5,4.5,0,5-2.4
					c0.5-2.5-1.6-3.7-3.6-5c-4.3-2.8-8.9-2.1-13.5-1.7c-1,0.1-2.3,0.7-2.9-0.7c-0.5-1.3,0.5-2,1.3-2.8c2.9-2.9,6.3-3.8,10.4-3.1
					c2.3,0.4,4.7,0.6,6.2-2.4c1.7-3.6-1.8-3.5-3.1-4.7c-3.4-3.4-7.5-6.1-10.8-9.6c-6.6-7-4.3-14.9,5.1-18.6
					c-0.9-1.3-2.8,0.5-3.1-0.3c-1-1.5-0.4-1.8,0.1-2.3c8.1-7.3,18-3.6,23.8,4.3c0.8,1.1,1.2,2.5,2.6,2.5c6.6,0.1,10.6,6.2,16.8,7.4
					c2,0.4,3.7,2.4,4.5,5.2c1.1,3.4,2.8,7,6.5,8.8c1.5,0.7,2.5,1.8,2.7,3.5c0.6,6,3.8,10.2,9,13.1c1.2,0.7,1.8,2.1,1.7,4
					c-0.3,9.2-6.9,13.7-13.4,18c-2.1,1.4-5.2,1-7.6-1.8c-3.8-4.3-5-2.5-8.5,1.8c-3.7,4.6-4,9.5-2.3,13.2
					c5.4,11.7,12.5,22.3,27.4,23.2c4.4,0.3,8.1,0.5,8.8,6.2c0.4,3.4,4.2,2.6,6.5,3.7c7.9,4,16.6,6.8,23.3,13c1.1,1,2.7,2,4.1,2.1
					c10.7,1,17.3,9.9,26.6,13.7c6.7,2.7,12.9,6.9,19.8,8.9c5.5,1.6,6.7,7.6,12.6,8.7c10.3,1.9,19,8.7,30.3,8.6
					c4.6,0,9.9,3.7,15.1,5.3c3.4,1.1,5.5,0.6,7.4-2.1c0.1-0.2,0.4-0.3,0.4-0.5c1.6-3.3,5.3-2.4,5.6-0.7c0.8,4.5,15.1,0.9,6.3,10.5
					c-2.5,2.7-4.9,17.2-2.7,19.2c5.2,4.5,11.3,7.9,18.6,7c2.9-0.3,5.5,0.1,7.2,2.3c2.2,2.8-1.1,4.8-1.6,7.3c-0.4,2-2.6,2.4-4.3,2.4
					c-2.1,0.1-3.5-1.2-3.3-3.3c0.3-2.6-1.6-2.9-3.2-3.5c-7.8-2.8-15.1-7.3-24.2-2.9c-2.5,1.2-7.6-1.7-10.8-3.7
					c-0.7-0.4-0.1-4.6-1.1-7.4c-1.9-5.1-5.6-6.6-9.9-7.7c-4.2-1-8.2-1.9-10-6.4c-1.3-3-4.4-1.4-6.5-2.5c-18-9-36.9-16.4-54.8-25.4
					c-10.5-5.3-22.8-7.1-32-13.7c-11.9-8.6-26.6-10.5-38.2-19.2c-3.5-2.7-9.3-3.4-15.9-3.3c9.6,9.3,16.7,18.7,25.4,26.6
					c5.3,4.8,0.8,9.2-2.4,13.1c-2.8,3.4-5.8,4.8-10.2,1.6c-8-5.7-14-13.6-22.5-18.7c-2.2-1.3-3.8-4.7-6.1-1.8
					c-2.3,2.8-1.9,7.1,0.1,10.1c5.2,7.7,9.9,15.4,14.1,23.7c3,5.9,6.4,12.3,10.1,18.1c5.2,8.1,11.4,15.9,14.9,25.4
					c2.3,6.2,7.1,11.6,11.1,17.1c1.3,1.7,1.6,2.9,0.8,5.3c-8.5-5.9-11.3-15.3-16.5-23c-5.4-8.1-8.6-17.9-16.5-24.4
					c-1.1-0.9-1.4-1.6-1.2-3.2c0.3-3.4-1.5-5.8-4-8.4c-3.9-4.1-4.2-10.4-7.6-15.1c-3.4-4.7-6.4-9.9-9.6-14.6
					c-3.8-5.4-11.1-8.9-18.9-8.1c-0.4,2.8,3.9,2.9,2.5,5.3c-1.6,2.6-4.5,1-6,0.1c-4.4-2.7-9.6-2.6-14.2-4.7c-4.5-2-9.5-2.2-15.1-0.1
					c4.1,3.9,6.1,7.9,3.9,13.8c-2.2,6-6.5,8.2-11.7,9.9c-4.4,1.4-8.4,0.9-11.1-3.4c-1.6-2.6-4.1-4.3-7-4.7
					c-9.6-1.2-14.5-9.2-21.4-14.3c-4.2-3.1-9-6.7-7.1-13.4c-5.4-1.3-5.3-7.2-8.4-10.3c-4.1-4-5.8-9.5-3.7-14.1
					c3.2-7.1,11.4-10.1,17.7-7.6c4.6,1.9,7.8,5.8,10.9,9.7c2.8,3.6,6.1,7,12.6,4.5c-4.1-3.2-6.3-6.5-4.6-11.1c0.8-2-0.8-2.7-2.2-3.5
					c-4.5-2.8-2.9-8-0.9-9.7c3.6-3.2,6-9.2,12.7-8.2c2,0.3,4.2-0.5,4.4-3.1c0.2-3.1-0.2-5.9-2.9-8.3c-16.7-14.9-33.9-29.4-50-45.1
					c-1.3-1.3-1.1-1.7-0.1-3.1c2.7-3.8,0.9-6.5-2.8-8.4c-5.2-2.6-8.8-6.7-11.8-11.6c-3-4.7-8.1-7.2-11.8-11.2
					c-2.6-2.8-6-5.2-3.5-9.3c2.5-4,8.1-3.9,12.1-0.6c5.4,4.4,10.8,9.1,16.6,12.9c2.7,1.7,3.7,4.6,4.9,6.6c4.4,7.1,12.6,3.9,18,8
					c2.9,2.2,5.4,5.9,10,5.6c0.6,0,2,1.2,1.9,1.5c-2.5,6.7,4.2,5.7,6.8,8c2.7,2.4,5.7,3.9,7.3,8c1,2.4,5.2,5.1,8.2,7.3
					c4.2,3.1,8.7,5.9,12.1,10c2.4,2.9,16.5,3.5,21,1.6c2.1-0.9,3.9-5.8,6.3-2.3C227.7,172.9,223,174,220.6,176.5z M383.3,283.1
					c-5.4-2.4-2.5-8-6.4-9.7c-12.2-5.4-24.9-9.7-35.9-17.6c-5.5-4-13.3-2.8-18.4-7.9c-7.4-7.4-16.9-11-26.6-14.4
					c-2.1-0.7-4.1-2-6.1-3.6c-5-4.1-10.8-7-18.7-6c2.1,2.5,4.5,3.9,4.7,5.7c0.6,4.9,3.6,6.5,7.7,7.9c4.9,1.7,9.5,4.6,13.6,7.4
					c7.9,5.5,15.9,9.5,25.7,9.5c1.1,0,2.2-1.1,3.1,1.1c2.3,5.6,7.4,8.1,12.6,10.1c10.1,3.7,20.4,6.7,29.1,13.6
					C371.4,281.9,376.1,283.8,383.3,283.1z M199.7,180.5c-11.6-1.9-16.4-12.1-24.6-18.1c-5.5-4-9.5-9.8-15.3-13.7
					c-2.8-1.9-5.4-2.2-7.9,0c-2.3,2.1-1.3,3.6,0.5,6.1c2.3,3.3,4.6,5.8,8.4,7.7c4.8,2.4,7.3,7.8,11.1,11.4
					c5.2,4.8,11.6,8.3,16.4,13.9c2.4,2.9,5.7,1.9,8-1C197.5,185.1,198.3,183,199.7,180.5z M287.7,265.6c-5.4-1.6-7.2-6.8-10.9-10.1
					c-3.3-2.9-8.9-4.3-10-8.9c-0.9-4-4-3.6-6.2-4.7c-3.6-1.8-4.8,2.1-6.6,3.9c-2.6,2.6,0.8,2.9,2,4.1c5.8,5.7,11,11.9,17.6,16.8
					c1,0.7,1.9,1.5,2.6,2.8c1.8,3.5,4.6,2.8,7.1,0.8C284.9,269,286,267.4,287.7,265.6z M220.5,214.3c3.6,0.3,6.4-1.7,7.8-4.3
					c1.4-2.7-2.6-2.8-3.9-4.4c-2.5-3.3-6.2-5.4-8.9-8.7c-2.8-3.3-7.6-5.1-11.8-7.2c-2.8-1.4-5.2,0.7-7.2,2.4c-1.4,1.2-0.8,2.9,0.7,4
					c5.4,3.9,9.1,9.5,14.3,13.5C214.1,211.6,216.4,215,220.5,214.3z M260,182.2c-7.7-0.1-9.1,1.2-8.5,7.9c0.2,1.9-0.9,2.5-2.2,3.5
					c-2.8,2-1.6,4.4,0,6.6c1.7,2.3,4.6,3.2,6.1,1c2.5-3.5,6.4-5.2,8.9-8.4c1.7-2.2,4.7-5.2,3.8-6.9
					C266.8,183.2,263.3,181.5,260,182.2z M187.9,236.6c-3.4-7.4-2.3-9.6,5.2-10.7c1.7-0.3,3.8,0.1,4.1-2.4c0.3-2.5-2.3-2.1-3.5-3.2
					c-5-4.6-7.9-3.4-12.9,1.3c-4.1,3.8-5.9,7.8-4.2,11.5C178.1,236.1,182.7,238.8,187.9,236.6z M146.3,237.4
					c6.3,3.2,6.7,10.8,12.2,15.1c2.9,2.2,8.6,3.5,8.8,7.1c0.4,7.6,6.7,6.7,10.7,9.1c1.9,1.1,3.9,2.4,5.9,0.1
					c0.5-0.6,1.4-1.3,0.6-2.3c-1.3-1.6-3-2.7-5.2-2.4c-3.6,0.5-5.5-1.1-5.8-4.5c-0.2-2.1-1.6-3.8-3-4c-6.8-1.3-8.7-7.7-13-11.6
					C154.5,241.1,152.2,236,146.3,237.4z M216.1,243.3c0.4-2.3-1.2-4-3-5.3c-2.4-1.8-3.3,1-4.9,1.8c-4.5,2.1-6.1,6.8-9.2,10.1
					c-1.2,1.3-3,2.2-1.4,4.3c1.2,1.7,2.5,2.9,4.9,2.9C206.5,257.1,216.2,247.7,216.1,243.3z M105.3,106.1
					c3.8,6.9,9.8,11.2,14.6,16.5c2.6,2.8,5.3,5.6,8.2,8c1.8,1.5,4.5,1.8,6.2,0.2c2.4-2.3-0.9-3.5-2-4.5
					c-6.8-6.7-13.8-13.1-20.8-19.5C110.1,105.4,108,105.1,105.3,106.1z M457.2,302.2c0.2-1.9-0.1-3-1.2-3.6
					c-1.5-0.8-2.9,0.1-4.4,0.6c-2.7,0.9-2.2,3.9-3.8,5.8c-3.1,3.6-5.3,8-6.5,12.8c-0.5,2.3,0.2,4,2.5,4.6c2.3,0.7,5.1,0.1,5.1-2.3
					c0-2.9,1.8-4.3,2.9-6.4C453.9,309.7,453,304.5,457.2,302.2z M252.8,231.5c-0.4-2.9-2.3-3.9-4.6-3.9c-5,0-6.9,5.7-11.4,6.7
					c-0.1,0-0.2,1.9,0.3,2.3c2.3,2,5,4.5,8.2,3.2C248.9,238.3,251.8,235.5,252.8,231.5z M259,145.7c-2.4-2-4.8-3-5.7-4.8
					c-2.3-4.7-7.1-5.7-10.7-8.5c-1.3-1-2.7-0.9-3.3,0.5c-0.5,1.3,0.9,1.9,1.9,2.1c2.9,0.6,3.8,2.8,5.3,5.1
					C249,143.8,252.2,148.1,259,145.7z M236.4,219.6c-3.8-0.1-6.5,1.1-6.6,5c-0.1,3.3,2.8,3,4.8,3c3.7-0.1,6.6-2.4,6.8-5.8
					C241.5,219,238,220.1,236.4,219.6z M274.9,164.3c1.1,1.5,2.1,2.6,2.8,3.9c0.8,1.5,0.8,3.6,3.4,3.4c1-0.1,1.9-0.8,1.6-1.6
					c-0.8-2-0.6-4.6-2.8-5.6C278.3,163.6,276.4,163.4,274.9,164.3z M141.9,144c2.5,2.5,5,3.4,7.9,1.6c0.7-0.4,1.8-1.3,1-2.1
					c-2.1-2.2-4.8-1.1-7.4-0.8C143.1,142.7,142.8,143.2,141.9,144z M224.2,237.7c1.4,3.8,3.5,5.7,7.2,4.6c0.9-0.3,1.8-1.1,1.1-1.9
					C230.4,237.9,228.1,235.8,224.2,237.7z"/>
				<path d="M322.6,437.6c4.1-3.3,4.1-7.5,1.2-10.1c-3.9-3.4-2.9-9.9-8.9-12c-2.1-0.7-0.7-4.3,1.6-6.4c2.6-2.3,6.1-0.8,8.5-2.8
					c-0.7-2-2.2-2.5-3.8-2.3c-2.1,0.2-3.9,4.5-5.4,2.2c-2.1-3.1-5.9-5.2-5.9-9.8c0-2.7-1-5.3-4.1-6.9c-4.2-2.2-3.2-7.5-5.5-10.8
					c-3.7-5.4-7.9-10.4-12.6-16.6c7.1,1.5,13.4,3.3,19.8,1.6c1.7-0.5,2.3,1.4,2.9,3c1.3,3.6-2.4,2.9-4,4.9c6.1,0.4,9.7,2.8,11.7,8.7
					c1.4,4.1,7.4,6.9,8,10.9c1.7,9.7,10.3,15,13,23.8c0.9,3,3.7,4.6,7.3,4.8c4.9,0.2,12.1,9.7,11.1,14.4c-0.2,0.9-1.5,1.5-2.2,2.4
					c-5.8,7.4-14.8,10.4-22.1,15.6c-4.1,3-12.7-1.5-14.4-6.8c-0.2-0.5-0.1-1.5,0.3-1.8c1-1.1,2.1-0.6,2.8,0.4c2.6,3.6,6.4,2,8.2,0.3
					c5.2-5.3,12.6-7.1,18.1-11.8c1.7-1.5,2.7-3.1,2.4-5.1c-0.2-1.8-2-2.3-3.6-2.5c-1.9-0.2-4.4-0.9-5.4,1.4
					C337.9,434.2,329.5,434.2,322.6,437.6z M322.5,393.4c-1.1-2.8-2.4-5.4-4.7-5.9c-3.4-0.7-7-0.2-7.7-5.1c-0.2-1.3-2.8-1.9-4.1-0.8
					c-2.2,1.8,0.6,2.3,1.2,3.4c2.3,4.1,7.4,6.7,7.1,12.4c0,0.9,0.8,2.6,2.5,2.7c1.2,0.1,2.1-0.3,2.9-1.3
					C321,397.1,316.7,393,322.5,393.4z"/>
				<path d="M252.7,307.1c-2.7-2.2-1.5-7.5-5.8-8.9c-6.8-2.3-5.9-8.8-8.3-13.4c-0.4-0.8,0.1-1.9,1.2-2c0.8-0.1,2.1,0,2.4,0.5
					c4.9,8.1,11.2,15.4,14.1,24.7c0.2,0.8,0.1,2.2,0.5,2.3c7.2,3.1,8.4,10.2,11.6,16.2c4.5,8.3,9.4,16.4,15.2,24
					c1.6,2.1,2.9,4.4,5.1,5.9c0.9,0.6,2,1.3,1.2,2.6c-0.7,1.2-1.9,0.7-3,0.5c-3.1-0.9-4.6-3.3-5.6-6.1c-1.6-4.5-4.1-8.3-8.5-10.6
					c-0.7-0.4-1.9-1.1-1.9-1.6c0.6-7.3-5.6-11-8.1-16.4c-2.4-5.2-5.9-8.9-9.2-13.1C252.6,310.5,251.3,309.7,252.7,307.1z"/>
			</g>
		</g>
	</g>
</g>
<g id="text">
</g>
<g id="guides">
</g>
<g id="scratch">
</g>
</svg>
