<?xml version="1.0" encoding="utf-8"?>
<!-- Generator: Adobe Illustrator 26.0.2, SVG Export Plug-In . SVG Version: 6.00 Build 0)  -->
<svg version="1.2" baseProfile="tiny" xmlns="http://www.w3.org/2000/svg" xmlns:xlink="http://www.w3.org/1999/xlink" x="0px"
	 y="0px" viewBox="0 0 800 800" overflow="visible" xml:space="preserve">
<g id="fill">
</g>
<g id="bg" display="none">
</g>
<g id="counters_00000155831629897369998050000010902328751353074356_">
</g>
<g id="text">
	<g>
		<path d="M291.7,486.3c0.8-3.3,3.5-4.2,5.8-5.4c4.2-2.1,5.4-5.6,4.3-9.6c-1.1-4.3-4.6-1.4-6.9-1.4c-5.5,0-10.8-1.5-16.3-1.8
			c-6.2-0.3-5.8,2.6-4.7,6.6c1.2,4.5,4.3,7.8,8.2,10c1.8,1,2.7,2,3.2,3.8c-8.7,1.6-16.1-0.9-23.2-5.8c-2.7-1.8-3.1-3.8-2.5-6.2
			c0.6-2.3,1.6-6.1,4.2-5.2c4.6,1.5,4.1-1.9,4.9-4c3.1-7.4,10-9.7,16.6-4.9c2.5,1.8,4.6,2.9,7.9,2.9c7.7,0,10.6-3.7,7-10.5
			c-2.8-5.2-2.1-13-10-14.8c-0.4-0.1-0.8-1.2-0.7-1.8c0.9-8.8-6.4-9.2-11.8-11.5c-3.3-1.4-7.5-2-8.9-5.8c-1-2.7-2.3-0.7-2.9-0.5
			c-7.6,3-15.2,0.9-22.7-0.2c-7.8-1.1-15.4-1.8-23.4-0.4c-4.3,0.8-9.4,3-14,0.7c-1.6-0.8-2.2-0.8-3.2,0.5c-1.1,1.4-2.6,3.5-4.2,1.6
			c-1.4-1.6-0.3-3.9,1.4-5.4c0.7-0.6,1.5-1.1,2-1.8c1-1.5,0.9-3-0.1-4.5c-0.9-1.4-2.6-3-3.9-2.1c-4.2,3-9.5,1-13.9,3.3
			c-2.6,1.3-4.2,2.7-3.6,5.6c0.6,3.1,3,3.8,5.7,3.4c1.3-0.2,2.6-0.7,3.8-1.3c2.8-1.2,4.2,1,5.8,2.5c2.3,2.2-0.3,3.5-1.3,5
			c-3.7,5.6-7.8,8.3-13.6,2.4c-1.7-1.7-3.1,0.2-4.8,0.6c-3.2,0.9-7.9,3.1-9.7-0.5c-1.5-3-6.9-5.1-3.9-9.9c2.3-3.5,2.9-9,9-8.2
			c1.5,0.2,1.8-0.8,2.7-1.2c5-2.4,9.4-6.8,16-3.9c1.4,0.6,5.1-0.9,5.8-2.3c3.2-6.2,9.3-3,13.4-4.8c9.1-4.1,19.3,1.4,27.9-4.4
			c1.4-0.9,2.7-0.1,3.9,0.3c5.3,1.8,10.4,0.4,15.6-0.7c1.1-0.2,2.2-2.3,3.3-0.2c0.6,1,0.4,2.1-0.4,3.2c-3.7,4.9-0.9,6.4,3.4,8.9
			c5.2,3,9.8,6.4,16.2,6c1.6-0.1,4,1.4,3.7-1.9c-0.6-5.4,3.4-4.6,5.5-3.2c2.7,1.8,7.6,0,8.4,5.2c0.2,1.6,1.7,0.1,2.6-0.3
			c4.7-1.7,9.1-3.5,12.9,2.2c1.3,2,4.6,2.8,7,3.9c1.6,0.7,3.3,0.1,4.3-1.2c1-1.2,0.2-2.7-0.7-3.7c-3.4-3.5-1.6-7.8-2.1-11.7
			c-0.2-1.6-0.3-3.5-2.1-3.8c-2-0.4-3.1,1.5-3.2,2.9c-0.3,3.6-2.6,5.1-5.4,4.2c-6.4-2.1-13.4-0.1-19.5-2.9c-1.9-0.9-6-0.1-5.2-3.8
			c0.7-3.6,4.6-2.6,7-2.4c4.9,0.4,8.1-2.8,5.7-7.3c-1.7-3.3-2-6.5-1.8-9.8c0.2-4.1-0.8-7.6-3.8-10.5c-2.9-2.8-2.8-5.9-1.2-9.3
			c5.2-11.2,14.4-16,27.4-7.9c6.3,3.9,12.4,6.5,14.9,13.9c0.2,0.6,0.9,1.2,1.4,1.3c9.8,1.8,8.2,9.5,8,16.1c-0.1,7.1,2.1,13.4,7.8,17
			c3.3,2.1,8,2.5,11.9,4.4c5.5,2.8,11.1,5.3,16.4,8.5c10.7,6.5,11.2,17.3,10.3,28c-0.9,10,0.9,19.4,3.5,28.8c1,3.5,3.1,5.4,6.9,5.1
			c1.5-0.1,2.6,0.3,2.8,2.1c0.2,1.9-0.7,2.2-2.3,2.4c-3.2,0.2-5.4,3.1-9.4,2.4c-5.4-0.9-9.8-1.4-9.2-9.4c-4.3,4.6-4.3,8.3-2.1,12.5
			c3.6,6.6,4.9,16.6,13.4,17.6c11.9,1.5,20,8.5,29.1,14.5c2.9,1.9,10-3.1,10.5-7.3c7.5,0.4,9.1,7,12.2,11.9c0.8,1.2,0.3,2.2-0.6,3
			c-1.8,1.5-2.2-0.3-2.9-1.3c-0.9-1.2-1.2-3.1-3.3-3c-1.5,1.2-0.7,2.8,0,3.6c5.6,6.5,0.5,12.3-1,18.3c-0.5,1.8-1.3,2.4-3.5,1.6
			c-5.5-2-7.5-0.6-6.8,5.1c0.6,4.2,0,8.1-1.6,12c-1.3,3.2-1.6,5.5,3.2,4.5c3.9-0.8,4.5,1.9,4.8,4.9c0.2,1.9,1,3.7,3.1,3.9
			c2.3,0.3,1.8-2.2,2.7-3.3c4.2-5.4,3.1-12.6,6-18.5c2.7-5.4,3.2-11,0.8-16.8c-0.9-2.2-1.2-5,1.7-5.6c2.8-0.6,3.5,2.3,4.2,4.4
			c2.9,8.3,0.1,16.6-0.5,24.9c-0.2,2.9-1.1,5.7-1,8.7c0.1,9.7-3.7,17.6-10.6,24.6c-3.5,3.5-6.1,8.5-7.6,13.2c-1.3,4,2.9,6.8,5.8,8.3
			c8.4,4.2,18,5.8,25.9,11.4c2.1,1.5,7.2,10.5,6.1,12.8c-2,4.2-5.9,6.5-10.2,6.7c-9.7,0.4-19.4-0.2-28.8-3.3
			c-1.3-0.4-3.2-0.5-3.7-1.4c-3.4-5.5-10.1-6-14.7-9.8c-2-1.6-6.8-1.8-10.3-2.6c-6-1.4-8.7-7.4-6.6-13.3c2.6-7.5,10.5-12.6,9.5-21.7
			c-0.2-1.5,0.8-4,0.1-4.6c-5.1-4-3.8-10.3-5.9-15.3c-1.7-3.9-0.5-7.5,0.8-11.1c0.4-1,1.4-1.7,1.8-2.7c5.2-11.9,1.7-18.3-12.4-22.7
			c-2.8-0.9-5.5-1.6-8.1-3c-2.8-1.4-5.8-0.5-8.6,3c-7.6,9.3-6.9,19.8-6.4,30.5c0.1,1.6,0,3.2-0.3,4.8c-1,6.9,0.5,8.4,7.2,6.6
			c4.4-1.1,8.7-3.1,11,3c0.3,0.7,0.7,1.2,1.4,0.6c1.6-1.3,3.6-4.5,5-0.9c1.3,3.2,4.3,7.7,0.4,10.7c-5.9,4.5-9,11-13.2,16.6
			c-2.9,3.8-4.8,9.6-11.6,7.1c-1.1,4.8-6.2,7.9-5.5,13.4c1.1,9.2-6.9,15.8-15.8,13.2c-11.9-3.5-14.7-8.7-10.9-22.2
			c1.8-6.2,2-11.9-0.7-17.8c-0.1-0.2-0.2-0.5-0.2-0.7c1.5-7.8-2.6-12.2-8.8-15.9c-2.4-1.4-2.6-5-2.6-7.5c-0.1-8.1-1.4-16,0.7-24.3
			c1.7-6.8,0-14.4-0.2-21.6c0-1.8-0.6-4.1,0.3-5.3c4.8-6.6,1.1-9.9-4.4-12.8c-1.5-0.8-1.2-2.2-1.6-3.5c-1.2-4.9-1.2-9.9-0.9-14.9
			c0.5-7.8-1.4-9-8.9-6.6c-1.4,0.5-2.8,2.5-4.4-1C300.2,483.2,295.3,487.7,291.7,486.3z M344.3,549.8c1.5,1.5-2.1,7.7,1.6,6.8
			c5-1.2,4.4,0.8,5.2,3.6c0.9,3,3.5,4.3,6.3,4.1c3.2-0.2,1.7-3.1,2-4.8c3.5-18.4-0.4-37,2.1-55.5c0.7-5.3,1.8-8.5,7.9-8.1
			c3.8,0.2,7.3-1.1,7-6c-0.5-10.6-7.8-14.5-16.6-17.1c-4.6-1.3-7.7,1.9-10.7,4c-2.7,1.9-6.7,3-6.9,8.1c-0.3,10.1,3.4,20,0.4,30.1
			c-0.6,1.9,0.7,3.5,2.1,4.7c5,4.6,6.5,10.8,2.7,16.3C344.5,540.1,343.6,544.2,344.3,549.8z M334.6,412.8c1.3-5.7-1.8-10.5,0.8-15
			c2.9-4.9,1.8-10.9,4.3-16c0.8-1.5-0.2-5.3-1.6-6.3c-4.8-3.3-6.4-8.7-9.4-13.1c-3.9-5.6-10.4-5.2-15.9-7.1
			c-1.3-0.4-2.2,1.4-2.2,2.1c0.4,4.7-0.9,9.8,1.6,14.1c0.9,1.6,3.9,2.7,2.8,4.7c-1.1,1.9-3.5,1.8-5.8,0.5c-1.7-1-4.4-1-5.7,0.5
			c-1.7,1.8-0.4,4.4,0.2,6.5c0.9,2.8,2.9,1,4.5,0.8c2.8-0.3,5,0.6,6,3.4c1.5,4.1,4.7,7.2,8,9C328.7,400.3,330.5,406.6,334.6,412.8z
			 M378.1,424.9c-0.6-7.6-5.6-10-10.9-12.7c-2.7-1.4-4.1,0.1-4.9,1.2c-1.1,1.7,0.7,2.5,2.3,3.2c4.7,1.9,4,4.2,0.2,6.2
			c-1.4,0.7-2.3,2.1-3.3,2.8c-8.5,5.8-4.1,14.6-5.3,22c-0.2,1.5,0.7,6.3,4.9,6.1c4-0.2,2.8-3.4,2.8-5.6c0-3.4,0.2-6.2,4.9-4
			c2.1,1,3.5-0.2,4-2.3C374.3,435.9,375.1,429.9,378.1,424.9z M329.7,466.6c4.1-0.2,6.7-3.6,10.7-3.6c0.8,0,2.7-4.6-1-5.3
			c-2.2-0.4-4.3-1.9-7.5-0.4c-2.7,1.3-6.2,4.1-10.6,1.9c-2.4-1.2-2.7,2.5-3,4.4c-0.2,1.6,0.3,4.3,2.6,3.2
			C324.1,465.5,326.9,465.6,329.7,466.6z M347.4,425.8c1.7-1.2,2.8-3,2.3-4.7c-1.6-6.3,2-7.3,6.9-7.1c1.2,0.1,2.3,0.2,2.4-1.4
			c0.1-2.3-0.8-6.3-1.8-5.8c-4.1,2.4-7.4-3.8-11.1-0.6c-0.2,0.1-0.3,0.4-0.3,0.6C346.6,413.1,341.1,419.9,347.4,425.8z M229.2,406
			c-0.2-3.4-0.4-5.8-4.8-6c-4.7-0.3-9.8,3.3-9.6,4.9c0.5,4.3,5.6,6.2,9.5,7.2C229.2,413.3,227.2,407.7,229.2,406z M340.2,438.3
			c0.6-5.5-2.4-5.6-4.6-5.5c-3,0.1-5.7,1.4-5.3,5.2c0.3,3,1.6,6.5,4.8,6.2C338.5,443.7,339.6,439.8,340.2,438.3z M239.4,399.4
			c-2-0.3-4-0.8-3.6,2.7c0.2,2.3-0.4,4.7,2.9,4.9c2.8,0.2,4.9-0.7,5.1-4C244.1,399.8,242.1,399.2,239.4,399.4z"/>
		<path d="M607.5,502.2c-1.6,8.7,0.9,17.7-4.3,25.3c-0.7,1.1-0.7,2.6-1.9,3.5c-7.6,5.5-7.5,12.2-3.7,20.1c2.8,6,5.2,11.9,0,18.8
			c-3.9,5.2-5,12.5-7.8,18.6c-3.9,8.5-5.1,9.2-15.4,11.8c0.5-1.8,1.5-3.5,1.4-5.1c-0.1-2.6,4.4-5.7-0.2-7.3
			c-0.9-0.3-5.4,0.2-7.3,4.3c-1.4,2.9-3.9,6.7-7.4,9.1c-2.4,1.6-4.4,4.9-1.7,7.6c2.4,2.4,5.8,4,7.5-1.5c0.5-1.5,0.8-5,3.8-3.2
			c2.3,1.4,0.4,3.6-0.6,5.3c-1.1,1.7-2.7,3.4-3.1,5.2c-1.6,9.2-9.6,9.5-16.1,11.4c-3.1,0.9-3-3.1-2.9-4.2c0.4-6.7,1.4-13.4,2.4-20.1
			c0.1-1,1.5-2.6,2-2.5c5.6,1,6.2-4.7,9.5-6.8c0.8-0.5,1.9-1.2,1.9-1.9c0.4-9.2,6.1-16.8,7.6-25.5c0.9-5.3-1.6-6.2-6.4-3.7
			c-3.8,1.9-7.1,3.7-12.4,2.6c-5.8-1.3-12.4,1.7-18.7,0.1c-5.6-1.4-12.1,0.5-16.3-5.4c-4.1,7.8-0.6,23,6.4,27.8
			c1.7,1.2,1.1,2.8,1.8,4.2c3.4,7.7,2.8,16.4,6.3,24.1c1.6,3.5,4.3,5.7,6.9,7.8c3.7,3.1,2.3,5.4-0.9,6.5c-5.8,2-10,6.5-15.9,8.3
			c-2.2,0.7-3.5,2.6-4.8,4.5c-1,1.5-2.1,3-3.4,4.1c-3.1,2.6-6.7,6.3-10.6,3.3c-3.8-3-0.1-7.1,0.8-10.6c0.1-0.4,0.4-0.8,0.7-1.1
			c8.8-9.2,6-17.7,0.3-27.8c-4.8-8.4-6.3-18.7-9.1-28.2c-0.8-2.7-1.6-4.7-4.4-6.3c-4.7-2.6-6.1-8.5-7.8-12.7
			c-3.8-9.5-8.9-18.5-12-28.4c-2.4-7.8,2.3-13.3,3.5-19.7c0.4-2.1,6.5-3.6,10.2-4.3c6.3-1.3,11.9-4.1,18.4-5.1
			c7.4-1.2,15.1-2.3,22.5-4.3c2.6-0.7,5-0.1,7.3,0.6c6,1.7,9.2-1.7,11.4-6.2c2.1-4.4,4.3-2.9,7.4-1.2c5.1,2.8,9.1,6.6,12.7,11.2
			c2.2,2.8,6.2,2.5,8.2-1.5c2.8-5.5,3.7-11.7,11.3-14.6c4.2-1.6,6.2-8.9,9.3-13.5c3.4-5.1,9.3-5,12.5,0.4c1.5,2.5,3.3,4.9,5.7,5.6
			c6.2,1.8,9.8,6.1,12.7,11.4c0.8,1.4,1.6,2,3,2.3c4.9,0.9,5.6,4.7,5.7,8.8c0.1,2,0.1,4.6-2.5,4.9c-4.3,0.6-9.7,3.9-12.7-0.3
			C615.3,504.3,611.3,504.4,607.5,502.2z M549.3,528.5c-1,4-0.5,6.5,2.5,7.9c3.8,1.9,3.8-1.7,5.1-3.5c1.6-2.2,3.3-3.2,5.1-0.1
			c0.5,1,1.3,2.3,2.2,2.4c6.3,0.8,10.7,3.8,12.9,9.9c0.2,0.6,1.6,1.3,2.2,1.1c0.7-0.2,1.6-1.3,1.5-2c-0.6-4.3-0.5-8.9-2.3-12.6
			c-3.4-7.5-13.9-9-15.8-18.1c-0.1-0.2-0.9-0.6-1.2-0.5c-4.9,1.9-8.7-2.4-13.6-2.4c-3.8,0-3.7,0.4-2.8,3.3
			C546.6,519.1,548.1,524.3,549.3,528.5z M515.3,507.6c-3.6,4.1-9.4,3-13.4,4.2c-4.1,1.2-8.8,3-13.5,3.6c-4.1,0.6-8.6,3-7.8,8.2
			c0.9,5.4,4.3,7.1,10.3,5.7c5-1.2,10.3-0.2,11.9-7.1c0.4-1.7,3.2-2,5.1-2.8C512.8,517.3,515.1,513.2,515.3,507.6z M517.2,623.4
			c0,2.7-0.1,5,0,7.2c0.1,1.5,2.2,2.8,2.4,1.7c1-4.1,5.4-5.4,6.5-9.2c0.7-2.4,1.5-5.1-0.2-7c-1.5-1.6-3.8,0-5.7,0.2
			C513.7,616.7,518.6,621.5,517.2,623.4z"/>
		<path d="M155.3,590c2.9,2.4,1.9,5.6,3.8,7.9c-1.5-6,0.3-10.8,3.8-15.6c2.9-4,6-5.4,11-5.8c7-0.6,13.4-0.7,20.1,2.1
			c9.4,3.8,14.1,11.1,16.1,20c1,4.6,3.4,8.3,4.9,12.5c0.7,1.9,1.9,3.8,0.2,5.7c-1.5,1.7-3.6-0.1-4.7,0.2c-5.6,1.6-13.4-1.7-16.2,6.7
			c-0.7,2.2-2.5,3.1-4.6,3.5c-8.7,1.7-17.4,4.9-26,4.5c-4.1-0.2-8.3,2.4-13.1-0.2c-2.9-1.5-3.5-2.7-2.6-4.4c4.8-9.3,4-19.4,4.7-29.3
			C153,595.2,152.7,592.3,155.3,590z"/>
		<path d="M304.5,533.5c-0.9,2.2-0.8,4.3-4.5,5.5c-6.2,2-12.6,1.5-18.7,3.2c-2.2,0.6-7-1.1-6.5-4.3c1.1-7.2-6.2-7.6-8.3-12
			c-0.2-0.3-1.4-0.6-1.7-0.4c-6.1,5.5-10.8-2-12.6-3.8c-4.9-4.8-9.8-1.7-14.5-2.9c-0.6-0.1-8.1,7.8-8.5,8.7
			c-1.4,2.9-4.1,3.8-6.9,3.1c-3.4-0.8-7.6-1.5-7.6-6.2c-0.1-9.7-7.9-12-13.6-17.4c-5.9-5.6-11-4.6-14.7-2c-6.6,4.7-15,1.9-21.1,6.7
			c-2.3,1.8-4.1,2-5.2-1c-0.8-2.3-1.9-5.3,1.7-6.1c4.5-1.1,7.8-4.9,13.1-4.7c2.8,0.1,7.4-2.6,8.1-5c1.2-3.6-2.3-6.8-6-7.9
			c-8.2-2.5-13.5-10.7-23-10.8c-3.3-0.1-4.2-3.9-3.2-7c1.2-4.1,3.1,0.1,4-0.2c10.4-3.5,13.4,7.5,20.5,10.4
			c6.1,2.5,11.5,6.7,18.7,4.2c0.6-0.2,1.4-0.1,1.9,0.1c10.6,5,21.7,9.3,31.6,15.5c6,3.7,12.1,7.9,17.9,11.8
			c5.2,3.5,13.6,4.4,19.7,7.5c6.4,3.2,13.1,4.5,19.5,7c4.7,1.8,8.6,4.6,14.1,2.7C302.2,527.1,304.2,529.8,304.5,533.5z"/>
		<path d="M410.2,494.1c-2.9-1.7-3.1-5.2-4.5-7.8c-0.7-1.4-2.2-3.1-0.6-4.9c0.1-0.2,0.3-0.4,0.5-0.4c3.6,0.1,3.6,3.5,4.5,5.6
			c0.9,2.2,3.2,4.6,0.9,7.3C410.9,494,410.6,494,410.2,494.1z"/>
		<path d="M319.4,362.6c1.8,0.9,5.5-0.9,5.2,2.5c-0.2,2.5-3.7,2.7-5.8,3.1c-1.3,0.2-4.3-1.2-3.7-3.8
			C315.5,362.7,317.1,361.4,319.4,362.6z"/>
	</g>
	<g>
		<rect x="100.2" y="100.2" fill="none" width="600" height="200"/>
		<path d="M166.7,135.9h59.6c33,0,45.5,17.2,45.5,34.9c0,15.4-8.2,25.4-17.4,29.6c9.2,3.5,21.3,13.2,21.3,31.1
			c0,23.4-18.3,40.9-47.4,40.9h-61.7V135.9z M222.9,189.8c14,0,19.8-6.3,19.8-15.9c0-10-7.6-15.2-19-15.2h-28.1v31H222.9z
			 M195.6,249.6h26.6c16,0,23.2-6.7,23.2-19c0-11-7.1-18-23.3-18h-26.5V249.6z"/>
		<path d="M285.5,197.7c0-10.2,0-19.2-0.2-27.8h27.8c0.4,2.3,0.7,12.5,0.7,18c4.5-11.7,15.5-20.3,32.9-20.4v27.1
			c-20.6-0.5-32.9,5-32.9,33.1v44.7h-28.4V197.7z"/>
		<path d="M447.2,221c0,31-18.6,53.8-51,53.8c-31.8,0-50.3-22.7-50.3-53.3c0-31.6,19.1-54,51.7-54
			C427.7,167.6,447.2,188.9,447.2,221z M374.6,221.2c0,19.7,8.5,31.4,22.2,31.4c13.9,0,21.6-11.7,21.6-31.2c0-21.4-7.9-31.6-22-31.6
			C383.2,189.8,374.6,199.5,374.6,221.2z"/>
		<path d="M485.1,213.2c7.5-10.2,21.1-26.1,35.3-43.2H553l-35.7,38.7l39.1,63.8h-32.1l-25.9-45.6l-13.1,12.7v32.9h-28.4V127.9h28.4
			V213.2z"/>
		<path d="M577.2,227.3c0,12.8,6.4,25.3,20.6,25.3c11.8,0,15.2-4.7,17.9-10.9H644c-3.6,12.5-14.8,33.1-47,33.1
			c-33.8,0-48.4-25.2-48.4-52.1c0-32.1,16.5-55.1,49.4-55.1c35.2,0,47.2,25.5,47.2,51c0,3.5,0,5.7-0.4,8.6H577.2z M616.7,209.8
			c-0.2-11.9-5-22-18.8-22c-13.6,0-19.1,9.4-20.2,22H616.7z"/>
	</g>
	<g>
		<rect x="400.2" y="300.4" fill="none" width="200" height="200"/>
		<path d="M410.3,436.6c0-21.2,14.8-34.1,27.1-39.7c-12.7-7.9-20.5-17.8-20.5-34.6c0-28.2,20.6-46.8,57.9-46.8
			c34.1,0,56.5,17.8,56.5,46.3c0,19.1-9.8,28.4-21.1,33.3c11.9,4.4,27,18.4,27,40.4c0,34.2-27.3,51.9-65.1,51.9
			C438.3,487.4,410.3,469.4,410.3,436.6z M501.3,435c0-16.4-11.3-24-27.5-24c-18,0-27.3,9.8-27.3,23.8c0,14.7,11,24.5,27.9,24.5
			C490,459.3,501.3,451.9,501.3,435z M451.2,363.5c0,11.2,8,18.7,23.2,18.7c14.8,0,22.8-5.7,22.8-18.6c0-12.5-8.3-20.3-23.1-20.3
			C458.9,343.3,451.2,350.4,451.2,363.5z"/>
	</g>
</g>
<g id="guides" display="none">
</g>
<g id="scratch">
</g>
</svg>
