<?xml version="1.0" encoding="utf-8"?>
<!-- Generator: Adobe Illustrator 26.0.2, SVG Export Plug-In . SVG Version: 6.00 Build 0)  -->
<svg version="1.2" baseProfile="tiny" xmlns="http://www.w3.org/2000/svg" xmlns:xlink="http://www.w3.org/1999/xlink" x="0px"
	 y="0px" viewBox="0 0 800 800" overflow="visible" xml:space="preserve">
<g id="fill">
</g>
<g id="bg" display="none">
</g>
<g id="scans" display="none">
	<image display="inline" width="568" height="561" xlink:href="7F02FA93.jpg"  transform="matrix(1.4085 0 0 1.4085 0 10)">
	</image>
</g>
<g id="counters_00000155831629897369998050000010902328751353074356_">
	<g id="broke">
		<path d="M225.6,510.6c-1.3,3.7-2.1,6.7-3,10c-1.4,5.3-2.2,9.2-3,13c-1.7,8.2-2.5,12.3-2,15c0.3,1.9,1.3,7.3,6,11
			c4.8,3.8,10.6,3.2,13,3c2.2-0.2,5.8-0.5,9-3c4.4-3.4,3-6.9,7-11c5-5.2,12.5-5,13-5c1.9,0.1,4.1,0.5,15,8c12.2,8.4,13.5,10.7,14,13
			c0.5,2.3-0.4,4.8-2,10c-1.5,4.8-3,7.8-6,14c-0.9,1.9-3.8,8.1-6,13c-3.8,8.6-5.7,12.8-7,18c-0.8,3.2-2.7,11.5-2,22
			c0.5,7.4,0.8,11.7,4,16c4.4,5.9,11,7.5,13,8c9.8,2.3,18.1-2.5,19-3c7.2-4.2,8.8-10.2,14-10c2.3,0.1,4.6,1.3,6,3
			c1.8,2.2,1.3,4.2,2,9c0.9,5.7,1.3,8.6,3,10c1.6,1.3,3.8,1.3,20-4c8-2.6,9.5-3.2,11-4c3.5-1.8,8.1-4.1,12-9c2.4-3,5.3-6.5,5-11
			c-0.2-3.4-1.9-3.5-5-10c-1.4-2.9-3.4-7.3-4-13c-0.6-5.6,1-5.7,0-9c-2-6.5-8.5-7.1-9-12c-0.2-1.7,0.4-3.2,4-8
			c9.1-12.1,12.5-12,13-16c0.7-5.8-6.2-7-12-20c-2.8-6.3-1.3-6.3-4-12c-5.9-12.5-14.2-15-13-20c1.1-4.7,8.7-3.6,12-10
			c2.7-5.2,0.4-11.3-1-15c-4.4-11.6-14.1-17.6-23-23c-8.9-5.4-20.4-12.3-27-8c-4.6,3-3.8,9.3-9,11c-2.8,0.9-5.3-0.1-10-2
			c-3.5-1.4-7.8-3.1-11-7c-4.5-5.4-1.7-8.6-5-13c-12-16-27.2-9.8-30-8c-4.3,2.8-6.9,8.4-8,11c-2.6,6,6,12.2,4,20
			c-1.2,4.6-3.2,3.3-9,11C229.8,498.5,228,503.7,225.6,510.6z"/>
		<path fill="#FFFFFF" d="M352.6,552.6c-4.2-1-6.5-2.7-9-4c-1.5-0.8-2-0.9-13-4c-13.5-3.8-13.7-3.9-15-4c-0.8-0.1-14.5-1.3-16,3
			c-1.8,5.1,15.2,13.4,13,21c-0.6,2-1.9,2-3,5c-1.5,4.2-0.3,8.1,1,12c1.1,3.4,2.9,8.9,8,14c2.6,2.6,8.7,8.8,13,7
			c4.2-1.7,6-10.8,3-17c-4-8.3-14.6-7.7-15-13c-0.4-4.7,7.9-9.3,13-11c1.9-0.6,6-2,11-1c5.9,1.1,7.8,4.5,13,4c0.7-0.1,5.1-0.5,6-3
			c0.9-2.6-2.5-6.4-6-8C355.2,552.9,354.7,553.1,352.6,552.6z"/>
		<path fill="#FFFFFF" d="M322.6,488.6c2.5,0.5,4.1,2.1,6,4c3.6,3.6,2.9,5,5,6c3,1.4,4.7-1.5,10-1c2.9,0.3,5,1.4,8,3
			c3.1,1.7,5,2.7,5,4c-0.1,2.7-8.2,4.1-8,5c0.2,0.8,6,0.2,6,0c0-0.3-8.9,0.6-20-2c-4.8-1.1-6.7-2.1-8-3c-3.4-2.3-3.4-4-7-6
			c-3.4-1.9-5.3-1.4-6-3c-0.8-1.9,1-4.7,3-6C319.1,487.8,321.9,488.4,322.6,488.6z"/>
		<path fill="#FFFFFF" d="M282.6,494.6c1.3,1.1,1.2,1.9,2,2c1.2,0.2,2.3-1.1,4-3c1.3-1.5,1.9-2.2,2-3c0.2-2.1-2.4-3.9-4-5
			c-1.6-1.1-3.1-1.7-4-2c-1.6-0.6-5.8-1.7-10,0c-1.5,0.6-3.2,1.3-4,3c-0.8,1.6-0.1,2.9-1,4c-1.1,1.3-3.2,0-4,1c-0.9,1.2,0.4,4.5,3,6
			c1.8,1,4.6,1.3,6,0c1.2-1.2,0.5-2.7,2-4c1.1-0.9,2.4-1,3-1C280,492.5,281.9,494,282.6,494.6z"/>
		<path fill="#FFFFFF" d="M232.6,524.6c-0.5-1.5-2.7-8.2-5-8c-0.3,0-0.7,0.2-3,3c-1.7,2.2-2.6,3.3-3,4c-1.9,3.7-1.1,7.3-1,8
			c0.4,2,1.6,5,3,5c0.7,0,1.1-0.8,2-2c0.9-1.2,2.5-2.7,5-4"/>
		<path fill="#FFFFFF" d="M290.6,595.6c-2.1,0.3-2.5,2.9-5,6c-2.7,3.3-3.9,2.2-6,5c-2.2,2.9-2.6,6.3-3,11c-0.1,1.4-0.4,4.3,0,8
			c0.5,4.6,1.4,5.3,1,8c-0.5,3.6-2.4,3.7-3,7c-0.7,4,1.1,9.4,5,11c2.3,0.9,4.4,0.2,5,0c3.9-1.3,5.5-5.4,7-9c2.4-5.9,2.1-10.9,2-12
			c-0.2-3.1-1-5.8-2-9c-1.7-5.7-3.2-7.9-2-10c0.9-1.5,1.9-0.9,4-3c0.9-0.9,3-3,3-6c0-2.2-1-4.6-3-6
			C292.9,596.1,291.8,595.4,290.6,595.6z"/>
		<path fill="#FFFFFF" d="M277.6,503.6c0.1,0.6,0.4,1.4,1,2c2.6,2.7,8.6,0.2,9,0c0.9-0.4,3.2-1.5,5-4c0.9-1.3,3.1-4.7,2-6
			c-1.3-1.6-6.6,0.8-7,1c-3.1,1.4-3.6,2.8-6,3c-2,0.2-3.2-0.7-4,0C276.7,500.3,277.1,502.1,277.6,503.6z"/>
		<path fill="#FFFFFF" d="M249.6,481.6c-3.2,0.2-5.2,2.9-6,4c-1.4,2-1.8,3.9-2,5c-0.5,2.7,0.1,3.9,0,6c-0.1,1.9-0.6,4.7-3,8
			c1.3,1.7,2.7,3.3,4,5c2.3-0.9,6.3-2.9,9-7c1.2-1.9,1.8-4.9,3-11c1-5.3,0.9-6.8,0-8C252.9,481.4,249.8,481.6,249.6,481.6z"/>
	</g>
</g>
<g id="text">
	<g>
		<g>
			<path d="M101.3,200.4h59.6c33,0,45.5,17.2,45.5,34.9c0,15.4-8.2,25.4-17.4,29.6c9.2,3.5,21.3,13.2,21.3,31.1
				c0,23.4-18.3,40.9-47.4,40.9h-61.7V200.4z M157.6,254.2c14,0,19.8-6.3,19.8-15.9c0-10-7.6-15.2-19-15.2h-28.1v31H157.6z
				 M130.3,314.1h26.6c16,0,23.2-6.7,23.2-19c0-11-7.1-18-23.3-18h-26.5V314.1z"/>
			<path d="M220.2,262.2c0-10.2,0-19.2-0.2-27.8h27.8c0.4,2.3,0.7,12.5,0.7,18c4.5-11.7,15.5-20.3,32.9-20.4v27.1
				c-20.6-0.5-32.9,5-32.9,33.1v44.7h-28.4V262.2z"/>
			<path d="M381.8,285.4c0,31-18.6,53.8-51,53.8c-31.8,0-50.3-22.7-50.3-53.3c0-31.6,19.1-54,51.7-54
				C362.3,232,381.8,253.3,381.8,285.4z M309.3,285.6c0,19.7,8.5,31.4,22.2,31.4c13.9,0,21.6-11.7,21.6-31.2
				c0-21.4-7.9-31.6-22-31.6C317.9,254.2,309.3,264,309.3,285.6z"/>
			<path d="M419.8,277.6c7.5-10.2,21.1-26.1,35.3-43.2h32.5l-35.7,38.7l39.1,63.8h-32.1l-25.9-45.6L419.8,304v32.9h-28.4V192.4h28.4
				V277.6z"/>
			<path d="M511.8,291.7c0,12.8,6.4,25.3,20.6,25.3c11.8,0,15.2-4.7,17.9-10.9h28.4c-3.6,12.5-14.8,33.1-47,33.1
				c-33.8,0-48.4-25.2-48.4-52.1c0-32.1,16.5-55.1,49.4-55.1c35.2,0,47.2,25.5,47.2,51c0,3.5,0,5.7-0.4,8.6H511.8z M551.4,274.3
				c-0.2-11.9-5-22-18.8-22c-13.6,0-19.1,9.4-20.2,22H551.4z"/>
		</g>
	</g>
	<g>
		<g>
			<path d="M453.6,559.3v-97.4c-6,2.8-17,5.1-23.6,5.7v-21.2c12.3-2.3,24.8-9.3,32.3-17.5h20v130.4H453.6z"/>
			<path d="M598.5,493.4c0,35.8-11.4,68.3-50.1,68.3c-38.2,0-50-31.4-50-67.5c0-35.7,13.1-67.5,50.6-67.5
				C585.4,426.7,598.5,456.4,598.5,493.4z M527.6,493.8c0,23.9,2.7,45.3,21.2,45.3c18,0,20.3-19.9,20.3-45.6
				c0-25.3-3.1-44.3-20.1-44.3C532.4,449.2,527.6,465.6,527.6,493.8z"/>
		</g>
	</g>
</g>
<g id="guides" display="none">
</g>
<g id="scratch" display="none">
</g>
</svg>
