<?xml version="1.0" encoding="utf-8"?>
<!-- Generator: Adobe Illustrator 26.0.2, SVG Export Plug-In . SVG Version: 6.00 Build 0)  -->
<svg version="1.2" baseProfile="tiny" xmlns="http://www.w3.org/2000/svg" xmlns:xlink="http://www.w3.org/1999/xlink" x="0px"
	 y="0px" viewBox="0 0 800 800" overflow="visible" xml:space="preserve">
<g id="fill">
</g>
<g id="bg" display="none">
</g>
<g id="counters_00000155831629897369998050000010902328751353074356_">
	<g>
		<rect id="_x31__x2F_2_x22__800x800_00000000188417567878788230000014898342978320960902_" fill="none" width="800" height="800"/>
		<g>
			<path d="M205.2,385.4c-1-1.8-3.9,0.6-4.2-2c-0.2-1.7,1.2-2.6,2.5-3.5c7.8-5.2,15.1-10.7,23.8-14.9c9.6-4.7,17.8-13.5,20-25.2
				c2-10.4-2.9-16.6-11.4-22.6c-9.1-6.4-19.4-9.6-28.9-14.7c-12.3-6.7-12.1-20.2-1.2-28.6c8.7-6.7,18.5-6.4,28-6.4
				c11.7,0.1,24-1.6,35.1,2.7c14.3,5.5,30.4,5.2,43.7,13.2c10.5,6.4,21.9,12.1,30.1,21.4c6.5,7.4,11.7,16,17,24.2
				c1.8,2.8,2.2,8.5,2.3,13.1c0.3,10.2-1.3,20.1-4.1,29.8c-1.3,4.7-3.8,7.8-9.4,6.2c-1.1-0.3-2.5,0.1-3.8,0.9
				c2.8,0.7,5.7,1.3,9.8,2.3c-4,2.1-3,7-7.4,7.5c-0.4,0-0.8,0.3-1.2,0.4c5.8,6.4-3.1,10-3.2,15.8c-0.2,6.9-1.9,13.5-1.2,20.9
				c0.7,6.7,2.6,11.4,6.7,16c0.9,1.1,1.9,2.9,1.6,4.2c-1.7,7.3,1.4,15-1.7,22.2c-1,2.4,0.5,4.6,0.4,7.1c-0.6,12-0.6,23.9-2.2,36
				c-1.3,10.1,0.6,21,0.3,31.6c-0.3,10,1,20.1,0.5,30c-0.3,4.9-6.3,7.6-10.8,9.4c-4.8,1.9-9.9,2-15.3,1.2c-5.8-0.8-12,0.8-18,1.5
				c-4.2,0.5-8.4,0.9-12.2-1c-3.3-1.6-6.4-0.2-9.6,0c-9.4,0.6-18.8-0.3-28.1-1.5c-7.4-1-14.3-0.1-21.4,1.1
				c-5.1,0.9-11.5,1.5-14.6-1.2c-5.4-4.6-11.6-8.7-15.7-14.8c-7.4-11.1-4.9-23.4-4.4-35.6c0.5-11.7-0.4-23.5-1-35.2
				c-0.1-2.6-0.2-5.1-0.1-7.7c0.4-11.6,1-23.2,1.2-34.7c0.1-12.9-1.4-25.9-4-38.9c-1.7-8.5,0.9-19.4,5.8-28.2
				C200.4,384.4,203.1,386.4,205.2,385.4z M337.5,393c-9-1-10.7-3.4-5.3-10.6c3.5-4.7,7.5-9.6,9.3-14.5c3.6-10,4.7-20.7,2.3-31.7
				c-2.4-11.2-10.7-17.4-18-24.9c-4.1-4.2-11.1-3.6-14.3-8.5c-2.3-3.5-5-5.1-8.6-6.3c-4.3-1.5-8.4-3.5-12.7-5
				c-19.2-6.8-38.4-13.4-59.2-7.2c-1.7,0.5-3.5,0.7-3.8,2.9c-0.2,1.5,0.8,2.2,2.2,2.7c8.7,3,14.7,10,21.5,15.6
				c12.7,10.5,17.3,35,9.5,49.8c-1.4,2.7,1.3,5.6-2,7.5c-8.6,5.1-16,12.2-25.1,16.6c-7.4,3.5-15.3,6.7-18.6,14.8
				c-2.4,5.9-10.2,9.5-7.2,17.5c-4.8,3.1,2.1,3.9,1.3,6.4c-1.8,5.2,1.9,4.6,5,4.5c14.6-0.1,29.2,0.3,43.9,0.1
				c19.9-0.4,39.7-0.9,59.6,0.7c4.3,0.3,8.3,0.5,6.9-7C321.2,400.4,324.5,395.6,337.5,393z M342.7,452.2c-3.8-0.8-6-0.7-7.4-1.7
				c-9.7-7.5-17.1-7.6-27.4-0.1c-1.9,1.4-4,2-5.5-0.6c-2-3.6-4.4-3.2-6.6-0.4c-1.6,2.1-3.7,1.7-5.8,2.1c-5.4,1.1-8-3.1-12-5
				c-10.4-5.2-21.9-2.4-32.9-1.6c-3.7,0.3-9.2,1.2-8.4,8.2c0.2,1.8-2.7,5.5-5.7,6.5c-3.1,1-3.5-2.4-5-4.1c-0.6-0.6-2-0.7-3-0.8
				c-0.3,0-0.9,1.2-0.9,1.2c4.4,4.4,1.7,10.5,3.4,15.7c2.5,7.7-3.1,16.2,0,24.4c0.1,0.2-0.5,0.7-0.8,0.9c-2.8,1.7-0.8,3.5-0.5,5.6
				c0.7,4.6,5.1,3.1,7.4,5.1c4,3.7,8.9,2.2,11.9-2.4c2.5-3.9,0.7-7.4,0.3-11.2c-0.4-4.1,1.3-8-2.3-12c-2.1-2.3-2.1-7-2.2-10.6
				c0-1.6-0.8-4.7,2.6-5.1c3.3-0.4,3.2,2.3,3.8,4.2c2.4,7.3,3.3,7.7,9.9,4.7c1.9-0.9,4.3-3.1,5.7-0.5c1,1.9,1,5.2-1.3,7
				c-1.8,1.4-3.3,3.5-6.1,3.5c-3.8,0-5.2,3-4.9,5.7c0.7,6.4-0.3,12.6-1.5,18.7c-0.3,1.8,0.7,2.9,1.2,4.2c0.7,1.8,1.7,3.3,3.8,2.8
				c2.2-0.6,0.9-2.5,0.9-3.9c-0.3-4.6-0.6-9.1-0.8-13.7c0-1.5,0.3-3.2,1.9-3.9c1.6-0.7,2,1.6,3.2,1.7c4.5,0.8,1.2,4.9,3.4,7.3
				c6.5,7.3,14.3,5.9,22.1,4.9c7.1-0.9,13.9-0.3,20.8,1.1c3.7,0.7,9.3,2.3,10.2-3.3c0.9-6,0-12.2,1.1-18.3c0.3-1.7-0.3-3-1.6-4.1
				c-3.4-2.9-3.3-6.9-3.5-10.8c-0.3-5.8-0.2-11.6-0.7-17.3c-0.1-1.9,0-3.2,1.8-3.4c1.8-0.2,4,1,3.5,2.9c-1.1,4,0.8,7.7,0.1,11.6
				c-1.5,7.7,0.5,9.4,8.1,7.4c1.3-0.3,2.4-1.1,3.7-1.4c3.2-1,4.5-0.6,4.4,3.6c-0.1,3.9-2,7.1-2.9,10.4c-1.9,6.3,3.8,10.6,2.8,16.4
				c-0.4,2.1-1.4,4.7,2.5,5.4c3,0.6,5.3,0.3,6.1-2.8c1.3-5.2,3.6-10.4,3-15.8c-0.6-5.5-3-10.5-1.3-16.7c0.9-3.5-2.1-8.3,0.6-12.6
				c0.2-0.4-0.5-1.9-1.1-2.1C334.9,456.7,337.1,454.6,342.7,452.2z M312.7,532.8c2.3-6.1-1.3-7.4-7.1-7.9c-4.3-0.3-8.7-0.5-13-1.1
				c-9.3-1.2-18.1,2-27.2,1.4c-6.2-0.4-9,1.3-6.1,7.8c0.3,0.7,0.4,2.2,0.1,2.3c-6.5,3.2-1.2,8.4-2,12.5c-0.7,3.5,0.8,7.2-0.6,10.9
				c-2.5,6.4-0.3,10.3,6.5,11.9c13,3.1,26,2.4,39,0c5-0.9,8.3-2.6,11.1-8.1c3.6-7-2.5-14,2.3-20.1
				C310.1,540.9,313,536.7,312.7,532.8z M243.1,532.7c-1.4-1.6,3.2-7.2-3-7.5c-4.1-0.2-8-0.2-12-1.7c-2.4-0.9-9.1,0.2-7.8,3.1
				c2.6,5.8-2.3,11.4,1.9,17c3.2,4.2,0.8,10.4,1.8,15.7c1.9,9.5,3,11.6,12,12.1c4.3,0.3,8.7-3.6,8.6-7
				C244,554.2,243.6,544,243.1,532.7z M332.2,570.7c2.7-0.3,6.1,0.3,5.3-4.3c-1.5-9,2.1-18.1-0.3-27.3c-0.3-1.3-1.5-3-0.5-4.8
				c2.5-4.5-1.9-6.7-3.8-9.5c-1-1.4-3.8-0.5-5.5,0.3c-1.5,0.7-1.8,2.3-1.2,4c1.9,4.7-2.5,10.4,2.1,14.8c0.3,0.3-0.1,1.9-0.6,2.3
				c-4,3.1-2,7.1-1.6,10.8c0.3,3,2,6.1,1.4,8.8C326.4,570.5,328.5,571,332.2,570.7z M229.3,433c1.9,3,4.3,2.8,6.4,2.5
				c8.4-0.9,16.8-0.1,25.2,0.9c10.1,1.2,20,2,29.7-1.8c0.9-0.4,2.3,0,2.4-1.5c0.1-1.3-0.7-2.1-1.9-2.3c-1.7-0.3-3.5-0.5-5.2-0.5
				c-10.2-0.1-20.4-0.5-30.6-0.1C246.7,430.5,238,431,229.3,433z M248.3,565.6c-0.3,2.1-1,4.5,2.1,5.1c1.9,0.3,3.1-1,2.4-2.7
				c-0.8-2.1,1.3-5.9-2.7-6.3C247.6,561.5,248.2,563.9,248.3,565.6z M316,437.1c1-0.3,3.3,0.6,3.3-1.4c0-2.1-1.8-3.4-4.1-2.8
				c-1.3,0.4-3.7-0.5-3.7,1.5C311.4,436.8,313.5,437.4,316,437.1z"/>
			<path d="M286,561.7c-3.8,0.8-6.1-0.4-7-4.2c-0.4-1.7-0.8-3.7-1.9-4.8c-6.7-6.5-0.7-11.8,1.8-16.9c1.6-3.1,5-5.7,9.3-4.5
				c4,1.1,8.5,0.9,10.4,6.2c2.5,6.9,1.7,12.1-3.8,17.9C292.3,558.3,291.6,563.7,286,561.7z"/>
		</g>
		<g>
			<rect x="500" y="118" fill="none" stroke="#000000" stroke-width="10" stroke-miterlimit="10" width="200" height="200"/>
		</g>
		<g>
			<rect x="400.9" y="99.9" fill="none" width="400" height="600"/>
			<path d="M518.4,196.3c1.5-13.1,10.8-29.3,37.4-29.3c24.7,0,35.7,14,35.7,29c0,12.8-7.4,18.9-13.2,21.6v0.5
				c6.9,2.5,17.3,9.2,17.3,25.7c0,15.4-9.3,33.7-40,33.7c-28.6,0-38.3-17.2-39.4-31.3h22.5c1.5,7.3,6.5,13.6,17.5,13.6
				c10.7,0,16-6.9,16-16.3c0-9.9-5-15.8-17.5-15.8h-9.6v-17.9h8.4c10.6,0,14.9-3.5,14.9-12.5c0-7.3-4.4-12.3-13.5-12.3
				c-10.8,0-13.4,6-14.6,11.3H518.4z"/>
			<path d="M683.2,221.5c0,29.3-9.3,55.9-41,55.9c-31.3,0-40.9-25.7-40.9-55.2c0-29.2,10.7-55.2,41.4-55.2
				C672.4,166.9,683.2,191.2,683.2,221.5z M625.2,221.9c0,19.6,2.2,37,17.3,37c14.7,0,16.7-16.3,16.7-37.3
				c0-20.7-2.5-36.2-16.4-36.2C629.1,185.4,625.2,198.8,625.2,221.9z"/>
			<path stroke="#000000" stroke-width="6" stroke-miterlimit="10" d="M540.8,448.3l60-104.1L661,448.3H540.8z M552.8,441.3h96.1
				L600.8,358L552.8,441.3z"/>
			<path d="M579.4,616.9l-8.7,25.8h-23.7L584.9,531h30.3l39.6,111.7h-25.4l-9.2-25.8H579.4z M615,597.1c-7.9-23.6-13-38.6-15.7-48.7
				h-0.2c-2.8,11-8.3,28.5-14.7,48.7H615z"/>
		</g>
	</g>
</g>
<g id="text">
</g>
<g id="guides" display="none">
</g>
<g id="scratch">
</g>
</svg>
