<?xml version="1.0" encoding="utf-8"?>
<!-- Generator: Adobe Illustrator 26.0.2, SVG Export Plug-In . SVG Version: 6.00 Build 0)  -->
<svg version="1.2" baseProfile="tiny" xmlns="http://www.w3.org/2000/svg" xmlns:xlink="http://www.w3.org/1999/xlink" x="0px"
	 y="0px" viewBox="0 0 800 800" overflow="visible" xml:space="preserve">
<g id="fill">
</g>
<g id="bg" display="none">
</g>
<g id="counters_00000155831629897369998050000010902328751353074356_">
	<g>
		<rect id="_x31__x2F_2_x22__800x800_00000108990135689889659050000006628341923699034516_" fill="none" width="800" height="800"/>
		<g>
			<path d="M326,458.5c8-0.2,11.6,3.9,11.6,13.2c0,7.7,1.9,14.9,3.4,22.3c0.8,3.9-1.1,7.8,0,12.1c3.4,13.7,2.6,27.8,1.9,41.8
				c-0.4,8.8-2,17.9-5.7,25.5c-5.1,10.4-11.8,20.5-21.4,27.7c-5,3.8-11.6,4.7-17.5,4.9c-13.2,0.6-26.4,2.2-39.7,1.2
				c-4.3-0.3-9.6-0.1-12.6,5.1c-2.3,4-8,4.8-10.9,4.4c-6.5-0.7-13.8,1.2-19.2-6.5c-4.3-6.1-13.2-5.8-20.4-5
				c-9.1,1-12.1,0.1-15.2-8.6c-1.5-4.3-5.8-6.8-8.4-8.3c-5.5-3.1-6.6-7.6-7.1-12.2c-1-9.7-4.1-19.6-0.4-29.2
				c2.5-6.6,3.8-14.1,10.5-18.5c2.1-1.4,4.6-3.8,2.6-7.2c-0.3-0.5-0.7-1.3-0.5-1.7c1.6-4.5,3.2-15.6,1.7-19.5
				c-2.7-7.3-1.1-14.1,0.6-21.1c1.1-4.4,4.6-7.7,7.9-7.6c3.2,0.1,7.2,2.2,8.8,7.1c2.1,6.7,2.9,13.7,5.1,20.3
				c1.5,4.3,3.5,8.4,5.4,12.5c0.9,1.9,2.7,2.7,4.8,2.9c11.5,1.2,22.9,2.8,34.6,1c3.7-0.6,6.3-2.2,7.8-5.2c3.5-7.4,8-14.7,7.9-23.1
				c-0.1-5.3,2.9-8.4,6.3-10.6c4.1-2.7,7.1,1.4,10.4,3.5c7.8,5.1,8,13,5,19.6c-4,8.9-0.9,18.3-4.2,27c-1,2.8,2.2,2.9,3.6,3.8
				c3.2,2,7.5,3.1,5.5,8.5c-0.4,1,0.4,2,1.2,2.9c4.9,5.6,4.3,10.1,4.7,18.2c0.2,4.9-2.2,9.9,0.5,15.4c1.4,2.8-1.1,8.6-4.3,12.3
				c13.2,3.6,27.4-3.7,31.9-17.9c4.3-13.3,7.7-26.7,6.6-41.3c-0.5-7.3-0.9-15.1,0.1-22.6c0.5-3.7-2-6.7-2.5-10.3
				c-1.5-9.8-2.9-19.7-6.3-29c-3.3-9-11.9-13.9-23.6-13.5c-6.6,0.2-13.1-0.5-19.7-0.5c-10.6,0-14.4-8.4-20.1-14.4
				c-1-1,0.4-4.1-0.3-5.6c-2.2-4.3-1.7-9.3-8.6-11.8c-8.8-3.2-9.4-18.4-1.4-24.2c6.1-4.4,6.5-10,6.5-16c0.1-4.8,0-9.5,2.2-14
				c0.3-0.6,0.8-1.3,0.7-1.8c-4.3-11.5,0.8-23.2-0.6-34.8c-1.4-11.9-0.9-24-1.1-36c0-2.4,0.6-4.7-3.2-5.2
				c-12.1-1.4-13.6-3.8-10.6-16.2c0.9-3.9,2.7-7.2,5.5-10.3c3.6-4.1,5.8-8.4,3.5-14.7c-2.5-6.8-1.8-14.1,1.7-21.1
				c2.9-5.8-1.3-12.4,0.1-18.6c1.6-7,3.2-14,5.2-20.9c0.7-2.5,3.4-2.2,5.7-2.2c2.8,0,4.5,1.6,5.4,4c4.3,12.1,6.9,24.4,4.8,37.2
				c-0.5,3.2,1.4,5.4,2.7,7c3.3,4,3.4,8.7,2,12.6c-2,5.2-0.8,10-1.3,14.9c-0.6,5.4-0.9,11-1.9,16.4c-1.8,9.4-4.1,18.6-2.7,28.6
				c1.1,7.9,0.7,16.4-0.8,24.2c-1.1,5.7,3.2,10.9,0,16.4c-0.8,1.4-0.2,3.5-2.4,4.3c-0.8,0.3-1.8,0.9-1.2,1.9
				c7.9,12.9,5.7,27.3,6.9,41.3c0.9,9.5,0.6,18.4-1.6,27.7c-2.2,9.3,3.2,15.2,13.1,16c7.2,0.6,14.4,0.5,21.6,0.7
				c7.7,0.2,19.3,3.9,22.9,15.5C330.2,454.9,330.2,454.9,326,458.5z M260.7,557.5c1.7,0.1,3-1.5,1.9-2.7c-2.4-2.6-4.3-5.3-5.9-8.3
				c-0.6-1.1-2.3-0.9-3.6-0.5c-0.9,0.3-1.2,1-1.2,2C251.8,550.1,258.1,557.3,260.7,557.5z"/>
		</g>
		<g>
			<rect x="400.1" y="100.2" fill="none" width="400" height="600"/>
			<path d="M451.3,265v-1.5c0-18.6,8.3-33.7,31.4-50.5c15-11,19.6-14.8,19.6-24.1c0-9.2-4.5-14.4-13.5-14.4
				c-10.4,0-14.2,6.4-15.7,15.7h-22.4c1.5-18.4,13.6-33.7,38.1-33.7c27.4,0,36.8,16.3,36.8,32.3c0,15.5-6.7,23-26.3,36.8
				c-13.1,9.2-18.4,15.3-20.2,20.1h50.5l-2.9,19.3H451.3z"/>
			<path d="M615.8,211c0,29.3-9.3,55.9-41,55.9c-31.3,0-40.9-25.7-40.9-55.2c0-29.2,10.7-55.2,41.4-55.2
				C605.1,156.4,615.8,180.7,615.8,211z M557.8,211.4c0,19.6,2.2,37,17.3,37c14.7,0,16.7-16.3,16.7-37.3c0-20.7-2.5-36.2-16.4-36.2
				C561.8,174.9,557.8,188.3,557.8,211.4z"/>
			<path stroke="#000000" stroke-width="6" stroke-miterlimit="10" d="M625.1,265l60-104.1L745.2,265H625.1z M637.1,258h96.1
				l-48.1-83.2L637.1,258z"/>
			<path d="M444.6,285.2v-8.1h170.1v8.1H444.6z"/>
			<path d="M596.6,407.6v20.2h-45.1v-20.2H596.6z"/>
			<path d="M620.6,459.4v-79.7c-4.9,2.3-14,4.2-19.3,4.6V367c10.1-1.9,20.3-7.6,26.4-14.3h16.4v106.7H620.6z"/>
			<path d="M562,653.8v-1.5c0-18.6,8.3-33.7,31.4-50.5c15-11,19.6-14.8,19.6-24.1c0-9.2-4.5-14.4-13.5-14.4
				c-10.4,0-14.2,6.4-15.7,15.7h-22.4c1.5-18.4,13.6-33.7,38.1-33.7c27.4,0,36.8,16.3,36.8,32.3c0,15.5-6.7,23-26.3,36.8
				c-13.1,9.2-18.4,15.3-20.2,20.1h50.5l-2.9,19.3H562z"/>
		</g>
		<g>
			<rect x="500" y="500" fill="none" stroke="#000000" stroke-width="10" stroke-miterlimit="10" width="200" height="200"/>
		</g>
	</g>
</g>
<g id="text">
</g>
<g id="guides">
</g>
<g id="scratch">
</g>
</svg>
