<?xml version="1.0" encoding="utf-8"?>
<!-- Generator: Adobe Illustrator 26.0.2, SVG Export Plug-In . SVG Version: 6.00 Build 0)  -->
<svg version="1.2" baseProfile="tiny" xmlns="http://www.w3.org/2000/svg" xmlns:xlink="http://www.w3.org/1999/xlink" x="0px"
	 y="0px" viewBox="0 0 800 800" overflow="visible" xml:space="preserve">
<g id="fill">
</g>
<g id="bg" display="none">
</g>
<g id="counters_00000155831629897369998050000010902328751353074356_">
	<g id="text_00000145777697825664076430000015973681117174071961_">
		<g>
			<rect x="299.8" y="200.2" fill="none" width="400" height="599.8"/>
			<path d="M530,334.2c0-13.6,9.5-21.9,17.4-25.5c-8.2-5.1-13.2-11.5-13.2-22.3c0-18.1,13.2-30.1,37.2-30.1
				c21.9,0,36.3,11.4,36.3,29.8c0,12.3-6.3,18.3-13.6,21.4c7.7,2.9,17.4,11.8,17.4,25.9c0,22-17.6,33.4-41.9,33.4
				C548,366.8,530,355.3,530,334.2z M588.5,333.1c0-10.6-7.3-15.4-17.7-15.4c-11.6,0-17.5,6.3-17.5,15.3c0,9.5,7.1,15.8,18,15.8
				C581.3,348.8,588.5,344,588.5,333.1z M556.3,287.2c0,7.2,5.2,12,14.9,12c9.5,0,14.6-3.6,14.6-12c0-8.1-5.3-13.1-14.8-13.1
				C561.3,274.2,556.3,278.8,556.3,287.2z"/>
			<path d="M616.8,364.8v-1.5c0-18.6,8.3-33.6,31.4-50.5c15-11,19.6-14.8,19.6-24.1c0-9.2-4.5-14.4-13.5-14.4
				c-10.4,0-14.2,6.4-15.7,15.7h-22.4c1.5-18.4,13.6-33.7,38.1-33.7c27.4,0,36.8,16.3,36.8,32.3c0,15.5-6.7,23-26.3,36.8
				c-13.1,9.2-18.4,15.3-20.2,20.1h50.5l-2.9,19.3H616.8z"/>
			<path d="M465.4,447.5h48.8c27,0,37.2,14.1,37.2,28.6c0,12.6-6.7,20.8-14.2,24.2c7.5,2.8,17.4,10.8,17.4,25.5
				c0,19.1-15,33.4-38.8,33.4h-50.4V447.5z M511.4,491.6c11.5,0,16.2-5.1,16.2-13c0-8.2-6.2-12.4-15.5-12.4h-23v25.4H511.4z
				 M489.1,540.5h21.8c13,0,19-5.5,19-15.6c0-9-5.8-14.7-19.1-14.7h-21.7V540.5z"/>
			<path d="M579.6,559.2v-79.7c-4.9,2.3-14,4.2-19.3,4.6v-17.3c10.1-1.9,20.3-7.6,26.4-14.3h16.4v106.7H579.6z"/>
			<path d="M616.8,559.2v-1.5c0-18.6,8.3-33.6,31.4-50.5c15-11,19.6-14.8,19.6-24.1c0-9.2-4.5-14.4-13.5-14.4
				c-10.4,0-14.2,6.4-15.7,15.7h-22.4c1.5-18.4,13.6-33.7,38.1-33.7c27.4,0,36.8,16.3,36.8,32.3c0,15.5-6.7,23-26.3,36.8
				c-13.1,9.2-18.4,15.3-20.2,20.1h50.5l-2.9,19.3H616.8z"/>
		</g>
		<line fill="none" stroke="#000000" stroke-width="10" stroke-miterlimit="10" x1="530" y1="234" x2="697" y2="234"/>
	</g>
	<g>
		<path d="M321,329c2.3,0.1,5.3-1,6.5,2.2c1.5,3.9-1,7.5-1.6,11.2c-0.3,1.7-4.2,1.1-6.7,0.5c-2.8-0.7-5.7-1.1-8.5-1.1
			c-1.8,0-3.6,1.4-3.7,3.2c-0.2,2.5,2.3,2.4,3.9,2.6c2.4,0.3,4.9,0,7.3,0.3c5.4,0.6,8.1,4.3,5.3,8.5c-1.8,2.7-1.4,4.4-0.5,6.5
			c2.4,5.7-1.8,14-9.2,12.6c-8.2-1.6-7.9,4.1-7.5,8.1c1.4,15.7,0.7,31.4,0.5,47.1c-0.1,5.7,0,11.6,0.5,17.3
			c0.6,8.2-0.9,16.4,0.1,24.7c0.5,4.1,2.2,5.9,6.1,6.3c0.7,0.1,1.3,0.1,2,0.3c17.6,3.9,16.7,6.4,16.2,22.7c-0.3,8.2-0.5,16.5,0,24.7
			c0.2,3-2.4,6.1,0.5,9.4c1.3,1.5-1.5,3.2-3.2,4.2c-6.3,3.8-13.5,4.1-20.1,3.2c-16.2-2.3-32.7,1.5-48.7-3c-9.6-2.7-11.9-5.4-11-14.7
			c0.6-6.2,2.2-13-0.1-19.3c-0.6-1.7-0.3-2.8,0.2-4.3c1.2-3.2,2-6.5,1.7-10.1c-0.8-7.1,3.5-13,10.4-14.3c0.9-0.2,1.8,0,2.7-0.2
			c4.3-1,10.6,1.9,12.5-1.8c2.3-4.4,1.8-10.5,1.7-15.9c-0.3-13-0.2-26.1-0.2-39.1c0-0.9,0.1-1.9,0.5-2.6c3.4-6-0.6-11.9,0-17.6
			c0.9-8.3-1.4-16.4,0-24.6c0.6-3.5,1.3-6.8-4.1-6.3c-1.9,0.2-3.6-1.5-4.8-1.5c-2.6,0.2-8.3-5.9-7.6,3.2c0.2,2.4-10.6,5-12.4,3.1
			c-1.1-1.2-1-2.5,1-2.7c1.2-0.1,2.5,0,4.3-1.9c-4.7,0.7-8-0.3-7.4-4.9c0.6-4.2,2.5-7.6,7.8-7.1c3.4,0.3,5.8,0.2,5.6-4.7
			c-0.1-4.2,2.6-6.6,7.4-5.7c1.7,0.3,3.5,0,5.3-0.2c1.3-0.2,2.7-0.6,2.6-2.4c-0.1-1.9-1.4-1.9-2.8-1.9c-2.7,0-5.5-0.7-8-0.1
			c-5.2,1.3-5.8-3.1-7.7-5.7c-1.6-2.1,0.3-3.8,1.9-5c2.9-2.3,5.4-4.1,9.2-0.6c3,2.7,7.9,0.9,15.9-4.2c-2-2.3-3.9-0.8-6,0
			c-4.5,1.9-8.2,2-10.7-3.5c-1.4-2.9-4.4-5.2-7.1-7.4c-9-7.5-17.7-15.4-27.4-21.9c-7.1-4.8-14.8-8.6-21.7-13.8
			c-2-1.5-4.1-0.9-6.3-0.6c-5,0.7-9.6-1.5-11.2-5.8c-1.8-5-3.2-11.1,2.2-15.4c4-3.2,12-2,16.1,1.4c1.5,1.3,1.5,2.7,1.2,4.1
			c-1.7,8.2,4.9,10.2,9.6,14.3c6.1,5.4,13.7,7.6,20.1,11.8c4.5,3,6.9,9.4,13.5,9.3c7-0.1,14.1-0.8,21.1-1.3c2.2-0.2,4.4-0.5,6.5-0.9
			c2.1-0.4,5.1,0.7,4-3.8c-0.6-2.5,2.7-3.7,5.2-3.6c1.9,0.1,2.9,1,3.7,3.5c1.5,4.9,3.8,8.8,0.2,14.1c-1.7,2.6,0.2,6.9,4.9,7.4
			c8.6,1,16.1-0.5,23.2-6.5c4.6-3.9,8.9-8.3,13.6-12c3.6-2.9,6.7-7.7,10.9-9.7c4.8-2.3,8.4-5.3,12.2-8.9c4.3-4,10.1-5.7,9.6-13.8
			c-0.3-4.7,7.7-8.8,12.6-8.1c5.3,0.8,12.7,7.5,12,11.8c-1,6.7-7.5,9-12.3,8.8c-14.6-0.5-21.6,10.9-31.5,17.8
			c-5.4,3.8-10.5,8.3-14.6,12.9C332.2,314.2,320.7,317,321,329z M272.6,306.7c4.2,6.3,7.1,7.8,11.3,7.1c2.9-0.5,3.7-2.4,3.7-4.7
			c0-2.4-2.2-2.4-4-2.4C280.3,306.7,277,306.7,272.6,306.7z M310.5,332.3c1.4-0.4,4.2,1.6,4.7-1c0.6-2.9-2.5-2.9-4.6-3.4
			c-1-0.3-2-1.1-3-1.1c-2-0.1-4.9-2-5.5,1.1c-0.5,2.8,2.3,3.9,4.8,4.4C308,332.5,309.1,332.3,310.5,332.3z"/>
	</g>
</g>
<g id="text">
</g>
<g id="guides">
</g>
<g id="scratch">
</g>
</svg>
