<?xml version="1.0" encoding="utf-8"?>
<!-- Generator: Adobe Illustrator 26.0.2, SVG Export Plug-In . SVG Version: 6.00 Build 0)  -->
<svg version="1.2" baseProfile="tiny" xmlns="http://www.w3.org/2000/svg" xmlns:xlink="http://www.w3.org/1999/xlink" x="0px"
	 y="0px" viewBox="0 0 800 800" overflow="visible" xml:space="preserve">
<g id="fill">
</g>
<g id="bg" display="none">
	<rect x="-4100" y="-100" display="inline" fill="#9FC9EB" width="9000" height="1000"/>
</g>
<g id="counters_00000155831629897369998050000010902328751353074356_">
	<g>
		<path d="M239.5,345c8.6,2.7,8.1,4.1,8.4,12.1c0.2,5,0,8.3-3.8,11.2c-0.7,0.6-0.7,1.1,0,1.4c7.1,2.3,3,9,5.1,13.3
			c1.5,3-1.7,4.6-3.1,6.6c-4.7,6.8-4.6,7.1,2.4,11.2c0.6,0.3,1.2,0.2,1.2,1.6c0.4,6.2,0.4,12.2,5.3,17.8c2.2,2.6,3.2,8.5,4.6,13
			c2.4,7.7,7.3,14.5,9,22.4c0.3,1.6,1.8,2.3,2.9,3.3c2.9,2.9,5.7,6,5.4,10.6c-0.1,2.6,0.8,4.8,3,6c2,1.1,3.7,2,0.7,3.9
			c-1.7,1.1-1.4,2.5,0.1,3.7c4.8,3.7,6,9.2,6.7,14.8c0.5,3.8,3.7,5.5,5.7,8c1.7,2.1,1.9,4.7,2.9,6.7c3.5,7.2,2.8,16.5,10.4,21.6
			c1.1,0.7,2.6,1.2,2,2.8c-1.9,4.7,1.4,7.8,3.3,11.3c3.8,6.8,4.5,15.4,11,20.8c-3,6.2,6.1,10.2,2.8,16.8c-1,2.1,2.8,2.7,4.7,3.4
			c10.9,3.8,15.2,9.2,14.4,20.6c-0.6,9-9.7,7-15,9.7c-3.4,1.7-8.2,1.6-10-3.1c-2.7-7-8.8-13.2-3.5-22.1c2-3.3-3.4-7.1-4.7-11.2
			c-2.1-6.7-7.3-12.5-8.7-19.2c-1.7-8-7.6-13.7-9.6-21.4c-0.7-2.6-1.7-5.9-4.3-7c-5.4-2.3-4.3-6.6-4.7-10.9
			c-0.5-5.3-5.5-6.3-9.4-6.7c-6.4-0.7-13-0.2-19.5,0c-4.4,0.1-7,1.3-6.5,6.9c0.7,7.3-0.7,14.7-1.2,22.1c-0.2,3.1-2.4,3.1-3.2,4.3
			c-4.3,6-2.2,12.9-3.5,19.2c-0.3,1.6,0.4,3.4-0.8,4.9c-5.5,6.9-18.4,7.8-24.7,1.8c-1.4-1.4-3.2-2.7-2.2-5c3.2-6.8-1.1-4.9-4.7-4.3
			c-2.1,0.3-4.3,0.3-6.4-0.1c-6.7-1.1-7-1.9-3.1-7.6c3.8-5.5,3.7-22.4-0.1-28.2c-2.3-3.5-2-7.2,0.5-10.2c2.7-3.2,1.2-4.1-1.7-4.7
			c-9.1-2-18.3-1.4-26.9,1.2c-2.6,0.8-4.3,6.7-5.2,10.6c-0.7,3.2-1.8,5.7-4.3,7.6c-1.2,0.9-2.4,1.8-2.9,3.3
			c-3.9,10.4-9.7,20-14.1,30.1c-1.7,4-4.1,7.5-5.9,11.5c-1.9,4.4-3.1,7.8,0.1,12.2c1.7,2.4,0.2,5.9-1.3,8.6
			c-2.2,4.2-4.7,8.3-6.9,12.4c-1.3,2.4-3.3,2.4-5.6,2.4c-6.9-0.1-12.1-4.4-17.8-7.3c-2.2-1.1-2.1-3.7-0.8-5.7
			c0.5-0.9,1.8-1.5,2.1-2.5c2.7-8.2,5.5-15.7,14.8-19.3c3.3-1.3,1.7-7.8,4.7-11.5c4.1-5.1,9.1-10.5,5.8-18.2c-0.1-0.2,0.3-1,0.5-1
			c9.2-0.3,5.8-9.8,9.3-14.4c4.7-6.2,6.5-15.8,10.5-22.8c4-7.2,5-16.4,11.6-21.7c4.8-3.8,1.2-9.9,5.4-13.6c4.6-4,3.6-10.8,7.4-15.4
			c4.2-5.1,4-5.3-0.6-10.2c8.8-0.1,8.5-8,11.8-12.8c1.1-1.6,1.1-3.7,2.8-5.1c1.1-0.9,3.2-1.3,2.5-3.3c-0.7-2.1-2.8-1.7-4.5-1.4
			c-4.8,0.9-9.9,0.5-14.1,4c-2.1,1.8-5.2,2.1-8.1,2.1c-15.8-0.1-31.6,0-47.4-0.3c-18-0.3-18.3-0.9-17.3-18.7c0.2-3.4,0.2-3.4-4.1-5
			c0.6-0.4,1.2-0.7,1.4-1.1c4.3-7.7,11.7-7.1,18.9-7.6c11.5-0.7,22.9-0.7,34.4,0.1c8.4,0.6,16.6,1.3,24.9,2.5
			c8.2,1.2,17-1.8,25.4-3.4c3-0.6,5.4-2.8,4.9-6.7c-0.1-1-0.1-2.7,0.4-3.1c6.6-3.8,1.7-8.8,0.7-12.6c-0.9-3.4-0.6-7.2-2.8-10.3
			c-0.2-0.3-0.3-0.8-0.4-1.2c8.8-2.9-0.3-9.5,2.8-13.7c0.3-0.4,0.9-1.7-0.9-2.8c-3.5-2.2-1.4-4.6,1-6.5c1.9-1.4,4.5-1.5,6.2-4.1
			c-3.7-0.8-7.2-1.3-10.6-2.4c-3.1-1.1-4.2-3.3-1.1-5.7c2.9-2.2,3.3-5,3.5-8.5c0.5-7.8,1.1-15.6-0.8-23.2c-1.4-5.5,3.9-9.5,1.9-15.1
			c-1.6-4.3,0.9-9.3-2-13.8c-1-1.5,1.6-3.8,1.4-6.3c-0.3-4.6,1.9-8.9,1.2-13.8c-0.7-5.2,1.5-10.4,6-14c1.1-0.8,1.3-1.9,0.8-2.9
			c-3.5-6.9,3.2-12.9,1.8-20c-0.8-4,4.6-5.7,8.8-5.7c4.6,0,8.8,1,10,6.3c0.4,1.7,0,4.5,0.8,4.9c7.5,3.7,3.1,8.7,1.8,13.4
			c-1.2,4-0.8,7.7,3.7,9c4.5,1.2,2.5,5.4,2.3,6.7c-0.5,5.5,2.6,10.1,2.2,16c-0.5,6.5-5.5,15.3,2.7,21.1c0.2,0.2,0.2,0.6,0.4,1
			c-8.1,1.1-0.8,6.1-1.8,7.4c-2.6,3.3-1.5,6.1-1.8,9.5c-0.6,7.5,1.4,14.9,0.2,22.3c-0.1,0.9-0.4,1.5,0,2.3c4.1,7.6,4.1,7.6-4.3,11.4
			C242.4,343.5,241.5,344,239.5,345z M192.7,504.2c0,0,0,0.1,0,0.1c2.4,0,4.8,0,7.1,0c4.1-0.1,7.8-0.3,4.3-6
			c-1.2-1.9-2.2-4.8,1.2-5.9c2.7-0.9,3.2-1.8,0.8-3.6c-1.6-1.2-1.3-2.5-0.2-3.9c1.3-1.7,1.8-3.8,0.6-5.5c-3.2-4.4,2.4-9.7-1.6-14.1
			c-0.3-0.3,2.4-3.3-0.1-4.8c-2.2-1.3-4.1,0-6,1.1c-2.7,1.7-4.5,4.2-5.6,7c-3.1,7.7-6.7,15.3-10.4,22.7c-0.8,1.5-2.1,2.8-2.8,4.4
			c-3.1,6.8-2.8,7.3,4.4,8.1C187.1,504.1,189.9,504.1,192.7,504.2z M264.9,505.2c0-0.1,0-0.2,0-0.3c2.6-0.1,5.2-0.2,7.8-0.4
			c1.1-0.1,2.7-1.3,2.2-1.6c-5.2-2.8-1-8.7-3.4-11.4c-3.8-4-4.6-9.1-7.1-13.5c-1.1-2-1.9-4.1-4.8-3.3c-8.1,2.3-11.7,10.3-18.1,14.9
			c-3.8,2.7,4.3,3.6,4,7c0,0.2,0.2,0.4,0.1,0.6c-0.9,7.2,3.9,7.2,8.9,7.2C258,504.7,261.5,505,264.9,505.2z M252.2,452.6
			c0.3-2.6-0.8-4.8-3.6-5.7c-2-0.7-4.6-1.1-6.1,0.7c-1.6,2,0.6,3,2,3.9c2.8,1.7,1,3.9,0,4.8c-3.5,3-2.3,5.9-1.3,9.5
			c0.7,2.6,4.2,5.5,0.1,8.8c-1.1,0.9,1.3,2.5,2.8,2c5.3-1.6,8.1-5.6,10.4-10.6c1.9-4.1-0.7-5.5-2.7-7.5
			C252.2,456.9,250.8,455.4,252.2,452.6z"/>
		<path d="M197.8,323.8c-4,4-2.8,8.5-2.1,12.7c0.4,2.3,0.9,12.6,0.2,15.1c-0.7,2.8,2.4,3.2,3.5,5.5c-5.4,0.9-5.8,3.6-4,8.4
			c4,10.9-0.2,16.5-12,16.5c-5.4,0-10.8-0.3-16.2-0.7c-1.9-0.1-4.7-0.3-5.4-1.5c-3.7-6.1-8.4-3.7-13.5-2.9c-6.8,1-13.8,0.8-20.7,1.1
			c-2.7,0.1-5.3-1.1-5.4-3.7c-0.1-4.5-2.1-9.3-1.3-13.2c1.6-7.1-1.2-13.7-0.6-20.4c0.9-9.6-1.1-19.1,0.2-28.7
			c0.7-5.3,3.8-7.6,8.7-7.8c6.1-0.2,12.1-0.2,18.2-0.1c3.4,0.1,6.3,1.2,7.2,5.2c0.6,2.9,2.1,4,4.1,0.9c1.8-2.7,4.6-3,7.4-3.1
			c5.8-0.2,11.7-0.1,17.5-0.4c6.4-0.4,9.7,2,9.9,8.8C193.8,318.8,193.8,323,197.8,323.8z"/>
		<path d="M179,667.3c-10.4,0-20.8-0.2-31.1,0.1c-8,0.2-14.6-3.3-21.2-7c-3.8-2.2-3-4.5,0.7-6.7c14.1-8.3,29.5-9.2,45.2-8.9
			c14.9,0.3,29.9,0.8,44.7-0.7c7.4-0.7,14.6,0.5,21.9,0.7c13.6,0.5,27.1-2.5,40.7-1c6.6,0.8,12.7,4.5,19.6,3.7
			c2.2-0.2,2.9,1.7,2.6,3.6c-0.6,3.6,1,8.4-4.2,9.8c-4.4,1.2-8.9,2.4-13.3,2.6c-14.5,0.5-29,1.1-43.4,1
			C220.4,664.5,199.8,667.8,179,667.3z"/>
	</g>
</g>
<g id="text">
	<g>
		<rect x="300.4" y="99.9" fill="none" width="400" height="600"/>
		<path d="M344.7,152.9h24.2v43.6h44.9v-43.6H438v111.7h-24.2v-48.3h-44.9v48.3h-24.2V152.9z"/>
		<path d="M550.3,222.7c0-19.1,0.3-40.4,0.8-53h-0.8c-5.2,22.8-16.4,60-27.1,94.9h-20.6c-8.1-30.6-19.7-72.9-24.6-95.2h-0.8
			c1,13.1,1.4,36.1,1.4,55.2v40h-22V152.9h35.9c8.7,29.2,18.5,65.8,21.8,82.4h0.2c2.7-14.7,15-53.8,24.3-82.4h34.6v111.7h-23.3
			V222.7z"/>
		<path d="M689.3,264.6h-17.7c-0.9-3.4-1.5-7.3-1.8-11c-6.2,8.3-17.1,12.9-32.6,12.9c-32.4,0-50.5-24.5-50.5-56.3
			c0-33.6,19.5-58.9,54.7-58.9c28.7,0,45.7,16.2,48.4,35.3h-24.2c-2.3-7.5-8.2-16.3-24.5-16.3c-22.9,0-29.5,19.2-29.5,38.9
			c0,19.2,7.5,38.1,29.6,38.1c20.6,0,24.5-14.3,24.5-24.3v-1h-24.5v-19.8h48.2V264.6z"/>
		<path d="M475.6,378.3c-1.3-5.3-4.3-10.3-13.6-10.3c-14.3,0-18,13.4-18.6,27.7c4.5-5.5,12-9.9,24.1-9.9c19.5,0,33.4,14.4,33.4,35.4
			c0,22.8-14.6,39.7-39.1,39.7c-30.9,0-41.2-23.8-41.2-53.9c0-27.7,9.8-56.6,42.5-56.6c23.2,0,34,14.5,35,27.9H475.6z M477.7,423.2
			c0-10.1-3.8-19.2-16.6-19.2c-10.4,0-16.4,6.1-16.4,18.4c0,8.6,4.1,20.1,16.5,20.1C472.5,442.5,477.7,434,477.7,423.2z"/>
		<path d="M552.9,407.2v20.2h-45.1v-20.2H552.9z"/>
		<path d="M576.9,459v-79.7c-4.9,2.3-14,4.2-19.3,4.6v-17.3c10.1-1.9,20.3-7.6,26.4-14.3h16.4V459H576.9z"/>
		<path d="M668.9,378.3c-1.3-5.3-4.3-10.3-13.6-10.3c-14.3,0-18,13.4-18.6,27.7c4.5-5.5,12-9.9,24.1-9.9c19.5,0,33.4,14.4,33.4,35.4
			c0,22.8-14.6,39.7-39.1,39.7c-30.9,0-41.2-23.8-41.2-53.9c0-27.7,9.8-56.6,42.5-56.6c23.2,0,34,14.5,35,27.9H668.9z M671,423.2
			c0-10.1-3.8-19.2-16.6-19.2c-10.4,0-16.4,6.1-16.4,18.4c0,8.6,4.1,20.1,16.5,20.1C665.8,442.5,671,434,671,423.2z"/>
		<path d="M466.1,541.7h48.8c27,0,37.2,14.1,37.2,28.6c0,12.6-6.7,20.8-14.2,24.2c7.5,2.8,17.4,10.8,17.4,25.5
			c0,19.1-15,33.4-38.8,33.4h-50.4V541.7z M512.1,585.7c11.5,0,16.2-5.2,16.2-13c0-8.2-6.2-12.4-15.5-12.4h-23v25.4H512.1z
			 M489.8,634.7h21.8c13,0,19-5.5,19-15.6c0-9-5.8-14.7-19.1-14.7h-21.7V634.7z"/>
		<path d="M580.3,653.4v-79.7c-4.9,2.3-14,4.2-19.3,4.6V561c10.1-1.9,20.3-7.6,26.4-14.3h16.4v106.7H580.3z"/>
		<path d="M617.5,653.4v-1.5c0-18.6,8.3-33.7,31.4-50.5c15-11,19.6-14.8,19.6-24.1c0-9.2-4.5-14.4-13.5-14.4
			c-10.4,0-14.2,6.4-15.7,15.7H617c1.5-18.4,13.6-33.7,38.1-33.7c27.4,0,36.8,16.3,36.8,32.3c0,15.5-6.7,23-26.3,36.8
			c-13.1,9.2-18.4,15.3-20.2,20.1h50.5l-2.9,19.3H617.5z"/>
	</g>
</g>
<g id="guides">
</g>
<g id="scratch">
</g>
</svg>
