<?xml version="1.0" encoding="utf-8"?>
<!-- Generator: Adobe Illustrator 26.0.2, SVG Export Plug-In . SVG Version: 6.00 Build 0)  -->
<svg version="1.2" baseProfile="tiny" xmlns="http://www.w3.org/2000/svg" xmlns:xlink="http://www.w3.org/1999/xlink" x="0px"
	 y="0px" viewBox="0 0 800 800" overflow="visible" xml:space="preserve">
<g id="fill">
</g>
<g id="bg" display="none">
	<rect x="-8100" y="-100" display="inline" fill="#9FC9EB" width="10200" height="2000"/>
</g>
<g id="counters_00000155831629897369998050000010902328751353074356_">
	<g id="ge_x5F_ldr_x5F_blank">
		
			<rect id="_x31__x2F_2_x22__800x800_00000171697576171599272440000006293600593293890236_" x="0.1" y="0" fill="none" width="800" height="800"/>
		<g id="ge-ldr_00000068638645725079088290000000241337739193441977_">
			<path d="M234,278.4c0.1-0.2,0.3-0.4,0.2-0.5c-0.2-0.7-1.4-1.4,0-2.2c0.8-0.4,1.3-1.3,2.3-1.3c0.5,0,1-0.2,1.2-0.8
				c0.2-0.7-0.3-0.9-0.7-1.2c-0.8-0.8-1.9-1.3-1.7-2.6c-1.7-0.7-1.3-2.4-1.8-3.7c-0.6-1.5-0.2-3-0.4-4.4c-0.4-2.5,1-4.3,1.6-6.2
				c0.5-1.7,1.8-3.5,2.3-5.2c0.8-2.3,2.6-3.5,4.1-5c1.3-1.4,3.2-2.4,5.3-2.6c0.6-0.1,1.2-0.2,1.7-0.6c2-1.6,4.3-2.1,6.7-2.2
				c1.2-0.1,2.4-0.2,3.5-0.3c2.1-0.2,2.6,0.1,3.1,2c0.2,0.8,0.6,1.2,1.3,1.2c0.4,0,1.1,0.2,1.2-0.4c0.2-0.6-0.5-0.5-0.8-0.6
				c-0.4-0.2-0.5-0.5-0.2-0.9c0.3-0.4,0.8-0.6,1.1-0.2c1.5,1.8,3.9,1.4,5.7,2.7c0.8,0.5,1.9,0.5,2.8-0.6c0.7-1,2-1.5,3-2.2
				c1.3-1,2.9-1.7,4.4-2.5c1.6-0.9,3-2.2,4.2-3.5c1-1.1,1.2-3.1,1.7-4.7c0.3-1,0.7-1.8,1.9-2c1.5-0.2,2.4-2.3,1.9-3.7
				c-0.9-2.4-0.9-2.4-3.5-2.4c-2.3,0-4.6-0.1-6.9,0.3c-0.6,0.1-1.3,0.3-1.7-0.4c-0.4-0.7,0.2-1.2,0.4-1.6c2-3,3.1-6.4,4-9.8
				c0.5-1.8-0.7-3.6-0.9-5.4c-0.1-0.7-0.3-1.4-0.5-2.1c-0.3-0.9-0.2-1.4,1.1-1c-1.6-0.8-1.6-1.9-1.7-3.3c-0.2-2-0.5-4-0.4-6.1
				c0-1.2,1-2.2,0.4-3.4c-0.2-0.4,0.4-0.2,0.7-0.4c0.3-0.2,0.5-0.7,0.2-0.7c-1.6-0.1-0.5-1-0.4-1.4c0.4-1.4,0.6-2.9,1.1-4.3
				c0.7-2.3,2.3-3.9,3.9-5.6c0.7-0.8,1.2-1.8,3-1.4c-1.4-0.9-1.1-1.5-0.3-2c1.2-0.8,2.6-1.4,3.1-2.9c0.2-0.4,0.7-0.6,1.2-0.7
				c0.4,0,0.8-0.1,1.2-0.3c4-1.8,8.1-2.1,12.5-1.9c2.3,0.1,4.6,0.1,6.9,0.1c4.7,0,9.3,1.1,13.6,3.3c2.2,1.2,4,2.8,6,4.2
				c1.1,0.8,2,2.1,2.8,3.3c0.5,0.7,0.9,1.6-0.7,2.1c1.9,0,2.2,1.1,2.6,2.5c0.4,1.3,0.9,2.7,1.5,3.9c1.1,2.1,0.9,4.4,1.5,6.5
				c0.4,1.6,0.5,3.4,1.9,4.7c1,1,2.2,1.9,3.2,2.8c0.3,0.3,0.6,0.5,1,0.7c0.9,0.6,1.5,1.5,1.3,2.4c-0.3,1.1-1.6,0.9-2.5,1
				c-1.6,0.2-3.3,0.3-4.9,0.5c-1.3,0.2-2,0.6-2,2.3c0,1.2,0.5,2.7-0.8,3.8c-0.2,0.2,0,1.3,0.5,1.9c0.4,0.4,1,1.1,0.5,1.3
				c-0.7,0.3-1.7,0.6-2.4-0.2c-1.3-1.6-1.2-1.5-2.9-0.2c-0.9,0.6-1.7,1.7-3.1,1.5c-0.5-0.1-0.9,0.3-1.2,0.8c-0.2,0.3-0.6,1-1,0.7
				c-0.6-0.4,0-0.9,0.1-1.3c0.3-1.2,0.6-2.3,2.1-3c-1.9-0.4-2.4-0.1-2.9,1.6c-0.4,1.3-0.6,2.8-2.6,2.4c-0.2,0-0.5,0.1-0.5,0.2
				c-0.4,1.5-1.6,1.4-2.7,1.6c-2.3,0.5-3.5,2.3-3.7,4.9c-0.2,2.7,0.7,4.9,2.7,6.7c0.4,0.3,0.9,0.5,1,1.1c0.4,1.5,3,4.8,4.7,5.1
				c2.5,0.4,5,2.1,7.6,0.3c0.4,1.5-0.3,2.1-1.5,2.5c-1.7,0.5-3.5,0.4-5.2,0.5c-2.2,0.2-4.3,0.6-5.9,1.9c-1.2,1-2.6,2.3-3,4
				c-0.1,0.5-0.2,1.1,0.2,1.5c1.4,1.2,2.6,2.5,4.3,3.4c0.9,0.5,1.8,1,2.7,1.6c0.4,0.3,1.3,0.7,0.4,1.5c-0.2,0.2-0.1,0.3,0.8,0.4
				c0.5,0.1,1.3-0.1,0.6,0.8c-0.2,0.3,0,0.3,0.2,0.4c1.2,0.1,1.6,0.8,2.1,1.8c0.6,1.1,1.6,2,2.5,2.8c1.9,1.7,3.5,3.7,5.1,5.6
				c1.5,1.7,2.9,3.7,4.3,5.6c1.3,1.8,2.8,3.5,4.3,5.1c1,1.1,1.6,2.6,3.2,3.2c-0.3,1.3,0.8,1.9,1.5,2.5c1.3,1,1.8,2.6,3.3,3.5
				c1.1,0.7,2,0.6,3,0.1c1.3-0.6,2.6-0.9,4-0.7c0.9,0.1,1.5,0.6,1.8,1.5c0.5,2.1,2.3,3.3,3.5,4.9c0.7,0.9,5,0.6,6.3-1
				c1.8-2.1,4-2,5.7,0.1c0.5,0.6,1.3,1,1.5,2.1c-1.4-1-2.5-2.2-4.4-1.6c-0.7,0.2-1.2,1-2.1,0.8c-0.2,0-0.7,0.2,0,0.6
				c1,0.6,1.5,1.5,1.1,2.8c-0.6,1.9-0.1,2.7,1.5,3.2c0.9,0.3,2.6-0.5,2.7-1.3c0.1-1.3,1.2-2.2,1-3.9c3.2,2.5,3.5,6.2,5.4,9
				c-0.8-0.4-1.3-0.9-2.3-0.5c-0.7,0.3-0.8-0.6-0.6-0.9c0.7-1.6-0.3-2.9-0.7-4.2c-0.2-0.5-0.6-0.8-1.1-0.7c-0.5,0-0.6,0.4-0.7,0.8
				c-0.4,1.4-1.4,2.6-1.5,4.3c-0.1,1.9-0.5,3.9-0.8,5.8c0,0.2,0.1,0.5,0,0.8c-0.1,0.4-1,0.6-0.4,1.1c0.5,0.5,1.2,0.7,2,0.5
				c1-0.3,1.6-1,2.5-1.7c0,1-0.4,1.5-0.9,1.9c-0.7,0.7-1.2,1.6-0.9,2.6c0.3,1.3,2.1,1.7,3.4,0.8c0.7-0.5,1.3-1,2.1-1.6
				c0,0-0.1,0.2-0.2,0.4c-0.2,0.5-0.9,1-0.1,1.6c0.6,0.5,1.3,0.5,1.9,0.1c0.6-0.4,1.2-0.9,0.8-1.8c-0.2-0.5-0.2-1.1-0.2-1.7
				c-0.2-1.4-0.7-1.7-2.1-1.1c0-1.7,0-3.4,0-4.9c2.2,3,3,5.5,3,8.3c0,1.2-1,1.9-1.3,2.9c-0.6,2.1-1,4.2-2.3,6.1
				c-0.8,1.2-3.7,2.7-5.9,2.6c-0.1,0.3,0.1,0.4,0.3,0.4c1.6,0,1.2,0.9,0.4,1.4c-0.8,0.6-0.7,1.1-0.3,1.8c0.7,1.4,0.8,2.9,0.8,4.4
				c0,0.3-0.2,0.5-0.4,0.8c-1.6,2.3-3.8,3.7-6.1,5.2c-0.7,0.4-1.3,0.8-1.4,1.7c-0.2,1.5-1.3,2.5-1.9,3.8c-0.7,1.4-2.6,1.8-4.1,1.8
				c-2.1,0.1-3.8,1.4-5.8,1.8c-2.4,0.4-4.5,1.9-7.1,1.9c-0.9,0-1.9,0.4-2.3,1.4c-0.3,0.7-0.9,0.6-1.4,0.9c1.3,1.1,0.9,2.7,1.4,4
				c0.5,1.2,0.7,2.5,1.1,3.8c0.3,1.3,0.3,2.4-0.2,3.7c-0.8,2-0.2,4,0.2,6c0.5,2.3,1.3,4.6,0.9,7c-0.3,1.7-1.2,3.2-2,4.7
				c-0.5,1-1.1,1.8-0.3,2.9c0.3,0.5,0.4,1.3,0.2,1.9c-0.5,2.3-1.1,4.6-1.7,6.9c0,0.1-0.2,0.3-0.3,0.4c-1.4,0.6-1.8,1.4-1,2.9
				c0.7,1.4,1.2,3.1,1.5,4.5c0.4,1.7,1,3.2,1.7,4.8c0.5,1-0.9,0.8-0.9,1.3c3.6,1.7,7.5,0.5,11.3,1.2c1.9,0.4,3.9-0.2,5.8,0.2
				c3.2,0.7,6.4,0.1,9.7,0.6c1.2,0.2,2.6,0.2,3.6-0.9c0.4-0.5,1-0.9,0.9-1.8c-0.4-2.2,1.6-3.9,3.8-3.1c0.4,0.1,0.8,0.3,1.3,0.3
				c2,0.1,2.8,1,2.5,3c-0.1,0.3,0,0.8-0.1,1c-0.9,1.6-0.2,2.3,1.1,3.2c0.7,0.4,0.8,1.7,0.5,2.8c-0.4,1.7-1.2,2.5-3.1,2.3
				c-2.7-0.3-5.4-0.1-8.1-0.3c-2-0.2-3.5,1.1-5.3,1.8c-1.6,0.7-3.1,1.8-4.9,2c-1.3,0.1-3.2-1.1-3.4-2.3c-0.1-0.7-0.4-0.7-1-0.8
				c-3.9-0.3-7.8-0.4-11.7-0.1c1.2,2.2,1.3,4.5,0.1,6.6c-1.2,2.1-0.3,3.9,0.4,5.6c0.6,1.4,0.6,3,1.4,4.4c0.4,0.7-0.6,0.6-1,1.1
				c2.5,0.3,2.3,2.6,3.1,4.1c0.3,0.5,1.1,1.4,0.3,2.3c0.4,0.1-0.1,1,0.6,0.8c0.5-0.1,0.6,0.2,0.5,0.5c-0.3,1.7,1.9,2.8,1,4.7
				c1.7,0.9,1.2,2.8,1.9,4.1c1.7,2.9,2.2,6.2,3.2,9.3c0.6,2.1,0.7,4.4,1.6,6.4c1,2,1.2,4.1,1.7,6.1c1,4,2,8,2.9,12
				c0.4,1.5,0.6,3.1,1.7,4.4c0.3,0.4,0.6,0.8,0.1,1.4c-1.5-1.2-1.7-3-2.2-4.6c-0.3-0.8-0.5-1.7-1-2.4c-0.9-1.1-0.7-2.5-1.2-3.7
				c-1.1-2.6-0.4-5.8-2.6-8c-0.4-0.4-0.7-1-0.7-1.7c0-1-0.2-1.8-0.8-2.7c-0.4-0.5-0.5-1.2-0.3-2c0.4-1.5-0.2-3-1-4.2
				c-1.2-2-2.3-3.9-2.7-6.3c-0.4-2.2-1.7-4.4-2.9-6.4c-0.6-1-0.8-2-1-3c-0.3-1.9-1.5-2.6-3-1.5c-1.1,0.8-2.8,0.9-3.4,2.5
				c-0.3,0.7-0.9,0.5-0.9-0.3c0-1-0.3-2,1-2.5c0.2-0.1,0.5-0.3,0.5-0.5c0.1-2,2-3.3,2.4-5.2c0-0.2,0.2-0.6,0.1-0.7
				c-1.1-1-0.8-2.7-1.8-3.7c-0.5-0.5-1.1-0.6-1.4,0c-0.5,1-1.7,1.3-2.2,2.2c-0.2,0.3-0.5,0.4-0.8,0.3c-0.4-0.1-0.3-0.5-0.3-0.8
				c0.1-1.4-0.6-2.7-0.4-4.1c0.1-0.5-0.7-0.9-1.3-0.8c-0.6,0.1-0.8,0.6-0.7,1.2c0.1,0.8,0.3,1.8,0.7,2.4c0.8,1.5,0.8,2.8,0.3,4.4
				c-0.7,0-0.5-0.7-0.8-1c-0.2-0.3-0.4-0.4-0.8-0.4c-0.3,0-0.4,0.3-0.5,0.5c-0.1,0.5,1.3,3.5,1.7,3.6c0.4,0.1,0.8,0.1,1.1,0.1
				c0.1,0.5-0.3,0.5-0.5,0.7c-1.1,1-1.2,2.1-0.2,3.2c0.8,0.9,0.4,2.2,1.3,3.1c1.1,1.1,1.7,2.4,0.5,3.8c-0.1,0.1-0.1,0.2-0.3,0.7
				c-0.3-1.3-1.3-1.8-1.4-2.9c0-0.5-0.6-1.1-1.1-1.5c-0.7-0.6-1.5-0.6-1.7,0.6c-0.2,0.8-0.2,1.6-1.3,1.9c-0.3,0.1-0.5,0.5-0.3,0.9
				c0.3,0.5,0.7,0.8,1.3,0.7c1.5-0.4,2.2,0,2.1,1.7c-0.1,0.8,1,1,1.4,1.7c0.5,1.1,1.5,1.9,0.4,3.2c-0.5,0.6-0.2,1.6,0,2.4
				c0.5,1.8,0.5,1.8-1.3,1.9c1.7,1.7,2.7,3.8,3.9,5.7c0.6,1,0.5,2.3,1.2,3.3c0.4,0.5-0.3,0.9-0.8,1c-0.7,0.2-0.9,0.5-1.2,1.3
				c-0.6,1.7-0.7,3.6-1.8,5c-0.6,0.8-0.1,1,0.2,1.2c0.5,0.2,0.7,1.3,1.6,0.5c0.8-0.7,0.9-1.8,1.2-2.7c0.5,0.3,0.4,0.6,0.3,0.9
				c-0.8,2.6,0.1,4.9,1.4,7c0.3,0.5,0.6,1.1,1.4,1c0.1,0,0.3,0,0.3,0c1.3,2,3.5,1.6,5.5,2.1c0.3,0.1,0.7,0.2,0.7,0.5
				c0,0.4-0.4,0.4-0.6,0.6c-1.7,1.6-3.1,0.2-4.5-0.4c-1.6-0.6-3-1.2-4.5,0.3c-0.6,0.6-1.7,0.4-2.6,0.4c-0.4,0-0.8-0.2-1,0.1
				c-0.4,0.5-1.4,0.8-1.2,1.5c0.2,0.8,1.1,1.1,1.9,1c2.3-0.4,4.4,0.5,6.7,0.8c0.6,0.1,1.3,0.3,1.8,1c0.6,0.9,1.7,0.4,2.6,0.3
				c0.8-0.1,1.5,0.1,2.3,0.1c0.3,0,0.9,0.2,0.8,0.6c-0.1,1-0.6,2-1.3,2.5c-0.7,0.5-1.9,0.6-2.5-0.6c-0.5-1-1.4-1-2.2-0.8
				c-1.4,0.2-2.5,0-3.7-1c-2.7-2.2-5.9-2.1-8.1,0c-0.1,0.3,0.2,0.3,0.4,0.4c2,0.9,2,1,0.4,2.5c-0.5,0.4-0.4,0.6,0.1,0.8
				c0.9,0.4,2.6-0.2,3.2-1.2c0.7-1.3,1.6-1.6,2.9-0.6c0.5,0.4,0.9,0.4,1.5,0.4c1.5-0.1,2.9,0.6,4.3,0.8c0.3,0.1,0.8,0.3,0.7,0.7
				c-0.2,0.5-0.7,0.5-1.2,0.3c-2.2-0.6-4.4-1-6.7-0.8c-0.8,0.1-1.4,0.5-1.7,1.1c-0.2,0.5,0,1.4,0.4,1.5c1.1,0.2,2.1,0.8,3.3,0.6
				c2.1-0.3,4.3-0.6,6.3,0.4c1,0.5,1.8,0.6,2.9,0c1.2-0.7,2.7-0.8,3.9-1.6c0.5-0.3,1.5-0.6,2.2,0.3c0.2,0.2,0.8,0.1,1.2,0.2
				c0.3,0,0.6,0.1,0.9,0.2c-0.3,1.5,1.3,0.9,1.7,1.7c0.4,0.8,0.9,1.8,0.4,2.4c-1.4,1.7-0.9,4.1-2.1,5.8c0,0,0.3,0.9,0.4,1.5
				c0.1,0.5,0.4,0.8-0.3,1.1c-0.4,0.1-0.1,0.2,0.1,0.4c0.8,0.6,1.1,1.4,0.5,2.2c-0.5,0.7-0.7,1.2-0.4,2c0,0.1,0.1,0.4,0.1,0.4
				c-1.4,1.5,0.3,3.9-1.5,5.4c-0.5,0.4,0.5,0.4,0.7,0.7c0.1,0.3,0.3,0.6,0.2,0.8c-0.2,0.4-0.5,0.1-0.8,0c-1.2-0.5-1.7-2.3-0.9-3.4
				c0.3-0.4,0.5-0.8,0.7-1.2c0.4-0.6-0.2-1-0.6-0.9c-1,0.2-1.8,0.1-2.6,1.5c-1.7,2.7-1.9,6.2-4.6,8.4c-1.7,1.4-1.4,4-1.7,6.1
				c0,0.3,0.3,0.4,0.6,0.3c0.4,0,0.6-0.2,0.5-0.6c-0.1-0.7-0.2-1.8,0.6-1.7c0.8,0.1,0.5,1.3,0.4,2c-0.5,3.4-1.3,4.1-4.9,4.2
				c-1.1,0-2,0.4-2.9,0.9c-0.5,0.2-1.1,0.3-1.3-0.1c-0.3-0.5,0.2-1,0.6-1.2c1.5-1,2.4-2.6,3.9-3.7c0.8-0.6,0.6-1.9,0.5-2.9
				c-0.1-0.4-0.6-0.5-1.1-0.3c-0.6,0.3-1.1,0.5-1.6,0.9c-0.9,0.7-1.9,1.3-3.1,1.1c-1.5-0.2-2.3,1-3.1,1.8c-0.7,0.7-1.3,1-2.3,0.8
				c-2.3-0.5-5,1.1-5.9,3.8c-0.3,0.7,0,1,0.3,1.4c0.4,0.5,1,0.9,1.6,0.5c1.4-0.8,2.9-1.2,4.5-1.3c0.5,0,1-0.1,1-0.9
				c0.1-0.7,0.8-1.1,1.4-0.6c0.4,0.3,1.4,0.6,0.4,1.5c-0.4,0.3-0.3,1.1-0.6,1.7c-0.6,1.1-1.3,1.6-2.5,1.8c-2.1,0.3-2.7,3.2-1.7,4.6
				c0.5,0.7,1,1.2,1.5-0.1c0.2-0.6,0.4-1.3,1.4-0.4c0.5,0.4,1.6,0.4,2.3,1c0.4,0.4,0.9-0.3,1.2-0.9c0.5-1.2,3.2-2.5,4.3-2
				c0.8,0.3,0.3,1,0.2,1.5c-0.1,0.5-0.5,1.1,0.3,1.2c0.6,0.1,0.7-0.5,0.8-0.9c0.1-1.2,0.7-2.1,1.6-2.9c0.2-0.2,0.4-0.4,0.4-0.6
				c-0.1-1.4,0.9-1.3,1.8-1.4c1.1,0,1.5,0.4,1.6,1.5c0.1,0.7,0.4,1.5,0.5,2.2c0.1,1.6-1.3,2.2-2.2,3.1c-1.6,1.6-3.4,3-5.6,3.8
				c-0.3,0.1-0.5,0.4-0.4,0.7c0.2,0.5,0.3,1.1,0.9,1.1c0.5,0,1.3,0.3,1.5-0.5c0.4-1.7,1.4-2,2.8-1.3c0,0.1,0,0.2,0,0.2
				c-0.3,0.5-0.8,0.9-0.5,1.5c0.1,0.3,0.4,0.2,0.7,0.2c0.7-0.1,1.7-0.2,1.8-0.9c0.2-2.2,2.2-1.9,3.4-2.4c0.7-0.3,1.4-0.2,1.5-1.3
				c0.1-1.2,1.4-1.1,2.2-1.6c0.2-0.1,0.6,0.2,0.4,0.6c-0.1,0.4-0.3,0.8-0.5,1.1c-0.3,0.5-1.1,0.7-0.8,1.5c0.3,1,1.1,1.7,1.8,2.4
				c0.8,0.7,2.3-0.3,3-1.7c1.1-1.9,2-3.9,1.8-6.2c-0.1-1.3-1.4-2.2-2.5-1.4c-0.7,0.5-1.2,0.5-1.8,0.1c-1.2-0.7-2.5-0.1-3.9-0.3
				c0.3-1-0.1-2.4,1.4-2.8c0.2,0,0.3-0.3,0.3-0.5c0.7-2.7,2.6-4.5,4.9-5.7c1.5-0.8,2-2.3,3.3-3.7c-0.5,2.3-1.1,4.3-0.9,6.3
				c0.3,2.8-0.5,5.7,0.1,8.5c0.2,1.2-0.3,2.4-0.5,3.5c-0.4,2.3-0.3,4.5-0.2,6.7c0.1,1.5-1.2-0.1-1.4,0.7c2.5,1.2,0.1,2.5-0.4,2.7
				c-2.7,1.6-2.7,4.2-2.9,6.7c-0.1,1-0.4,1.3-1.4,1.2c1.2,0.2,1.7,0.7,1.1,1.8c-0.5,1.2,0.3,2.4,0.1,3.6c-0.3,2.1-0.5,4.3-0.2,6.4
				c0.2,1.4,0.4,2.9,0.4,4.2c-0.1,3.3-0.7,6.6-0.9,10c-0.1,1.6-0.2,3.2,0.2,4.9c0.4,1.8-0.3,3.4-1.8,4c0,0.5,1.3-0.1,0.8,1
				c-0.3,0.6,1.5,0.7,0.8,1.7c1.7,1.7,2.3,4.2,4.2,5.7c1.4,1.1,3,2,4.6,3c0.2,0.1,0.6,0.3,0.6,0.4c0.1,2.1,2.2,1.4,3.2,2.2
				c1.2,0.9,2.4,1.4,3.8,1.7c3.1,0.7,6.3,1,9.4,1.2c3.3,0.3,5.8,2.2,8.1,4.3c0.7,0.6,1.1,2.2,0.5,3.6c-0.2,0.6-0.6,1.4,0.3,2.1
				c0.6,0.5-0.3,2.8-1.4,3.2c-2.4,1-4.8,2-7.5,2.1c-2.3,0-4.3,1.1-6.5,1.7c-3.1,0.7-6.1,1.2-9.2,1.4c-3.3,0.2-6.4-0.3-9.5-0.6
				c-2-0.1-3.9-1.2-5.9-1.5c-1.9-0.3-3.8-0.1-5.8-0.4c-0.8-0.1-1.8,0.5-2,1.6c-0.2,1-0.7,1.4-1.8,1.5c-5.4,0.8-10.6-0.4-15.8-1.5
				c-1.1-0.2-2.2,0-3.3-0.4c-1.2-0.5-2-1-2.1-2.6c0-1.6-0.8-3.3,1.5-4c-0.7-0.5-1-0.1-1.4,0c-0.5,0.2-0.7-0.1-0.7-0.5
				c0.1-4,0-7.9-0.4-11.9c-0.1-1.1,0.6-2.1,1.2-2.9c0.4-0.5,0.5-0.7,0.4-1.2c-0.3-2.3,1.2-4.2,1.4-6.4c0.1-1.8,0.6-3.6,0.2-5.4
				c-0.3-1.4-0.1-2.9,0.1-4.4c0.1-0.9,0.2-2,0-2.8c-0.3-1,0.4-2-0.4-3c-0.3-0.3-0.2-1.9,1.4-1.5c-0.3-0.7-1.5-0.8-1-1.8
				c0.4-0.9,0.9,0.6,1.4-0.1c-0.1-0.6-0.6-0.4-1-0.4c-0.5-0.1-0.8-0.3-0.7-0.8c0.3-2.1-0.7-4.1-0.6-6.2c0.1-2.3,0.2-4.6,0-6.8
				c-0.3-3.2-0.2-6.7-2-9.7c-0.3-0.5-0.6-0.8-1.1-1c-1.7-0.8-2.8-2-3.1-4c-0.1-0.5-0.6-1.2,0.4-1.5c0.1,0,0.2-0.3,0.2-0.4
				c-0.7-2.9-0.1-5.8-0.6-8.7c-0.5-2.9-0.4-5.8-0.7-8.7c-0.2-1.6-0.5-3.4,0-5.1c0.4-1.4-0.8-2.9,0.3-4.3c-1.1-0.9,0-2-0.4-3
				c-0.4-1.1-0.2-2.2-0.3-3.4c0-1.1-1-1.8-1.3-2.7c-0.9-2.5-0.2-4.9,0.8-7.2c0.6-1.4,0.7-2.5-0.5-3.5c-2.6-2.1-2.4-5.2-0.2-7.7
				c0.5-0.5,0.4-2.3-0.2-2.6c-1.4-0.8-2.4-1.7-2.8-3.3c-0.3-1.3-1.6-2-2.3-3.2c-0.8-1.4-1.4-3-2.2-4.4c-0.3-0.5-0.4-1-0.9-1.4
				c-0.2-0.2-0.5-0.4-0.1-0.7c0.7-0.6,0.7-0.6-0.1-1.1c-0.9-0.6-1.5-1.1-1.6-2.5c-0.1-1.9-1.3-3.4-2.9-4.6c-0.6-0.5-1.1-0.2-1.4,0.4
				c-0.9,1.9-2.4,3.5-2.5,5.8c0,0.1-0.1,0.3-0.2,0.4c-1.4,0.9-1,2.6-1.6,3.9c-1.3,2.8-1.5,5.8-1.7,8.8c-0.1,1.3-1.1,2.4-1.4,3.5
				c-0.4,1.3-0.9,2.6-1.4,3.8c-0.7,1.8-1.3,3.8-2.8,5.1c-0.4,0.4-0.7,0.8-0.8,1.2c-0.2,1.7-1,3.1-1.5,4.7c-0.5,1.5-1.2,3-1.8,4.4
				c-0.8,2-2.5,3.5-3.4,5.2c-0.9,1.7-2.8,2.6-3.2,4.6c0,0.2-0.4,0.3-0.6,0.5c-2.2,1.5-3,3.8-3.3,6.3c-0.3,2.8-1.8,5.1-3.3,7.3
				c-0.4,0.6-1.4,1.2-2.1,1.4c-2.2,0.6-2.3,2.6-3.3,4.1c-0.9,1.4-1.9,2.9-2.7,4.3c-1.1,2-2.8,2.6-4.5,3.7c-1.5,0.9-3,1.2-4.5,1.8
				c-2.7,1-3.3,3.9-4.8,6c-1.9,2.8-3.3,5.9-5.4,8.7c-0.5,0.6-0.7,1.4-1.6,1.6c-0.1,0-0.2,0.1-0.2,0.1c0.3,2.4-1.5,4.1-2.1,6.3
				c-0.1,0.4-0.4,0.8-0.8,0.9c-0.6,0.2-0.8,0.3-0.3,0.8c0.2,0.2,0.1,0.5-0.2,0.7c-1.9,1.8-2.3,4.6-3.7,6.7c-1.3,1.9-1.5,4.7-4.3,5.6
				c-0.9,0.3-0.7,1.1-0.4,1.7c0.4,0.8,0.5,1.7,0.6,2.5c0.1,0.9,0.2,1.8-1.1,2.2c1.3-0.2,1.9,0.6,2.1,1.2c0.7,1.7,1.9,3.1,2.9,4.6
				c0.9,1.3-0.8,1-0.8,1.8c2.3-0.6,1.4,1.8,2.4,2.5c0.9,0.7,0.6,1.9,1.1,2.8c1.3,2.3,3.4,3.6,5.5,4.9c2.6,1.6,5.5,2.6,7.6,5.2
				c1.5,1.8,3,3.4,3.2,5.7c0.1,1.2,0.4,2.4-0.2,3.6c-0.4,0.8-0.3,1.8-0.5,2.8c-0.4,1.7-1.5,2-2.7,2.1c-3.4,0.2-6.7,0.3-10.1,0.1
				c-1.3-0.1-2.7-0.3-4,0.2c-0.8,0.4-1.3-0.4-2-0.6c-1.9-0.6-3.9-0.5-5.6-1.3c-1.5-0.7-3-1.5-4.1-2.7c-0.2-0.3-0.5-0.6-0.8-0.7
				c-3.1-0.6-4.8-3.2-7-5.1c-1.8-1.5-3.7-2.8-5.2-4.6c-1.3-1.6-3.4-2.3-4.9-3.8c-0.7-0.7-2-0.2-3-0.3c-2.4-0.2-4.4-0.6-6.4-2.4
				c-2-1.7-3.9-3.4-5.6-5.4c-1.3-1.5-2.8-2.9-3.3-5c-0.1-0.6-0.2-1.2,0-1.6c1-1.8,1.5-3.9,2.2-5.8c0.4-1.2,1.4-2.3,2-3.5
				c1-2.2,2.8-3.7,3.9-5.7c0.6-1.1,1.7-2,3-2.5c1-0.4,1.4-0.9,1.7-2.2c0.3-1.6,0.6-3.5,2-4.8c0.4-0.4,0.6-1,0.7-1.5
				c1.3-4.3,2.6-8.6,4.2-12.8c0.6-1.5,1.2-3.1,1.6-4.8c0.4-1.7,1.2-3.3,2-4.9c0.7-1.4,0.9-3,1.8-4.3c0.9-1.3,1.4-2.9,2.8-3.9
				c0.8-0.5,0.5-1.9,1.2-2.7c0.9-1.2,1.3-2.6,2.1-3.8c0.6-0.8,0.5-1.7,0.6-2.6c0-0.7,0.3-1.3-0.5-2.2c-1.2-1.4-1.3-3.7-1-5.8
				c0.2-1.7,0.9-3,2.4-4c0.1-0.1,0.2-0.1,0.2-0.2c1-3.1,3.9-5.5,3.9-9.1c-0.1-2.7,1.6-4.5,3-6.5c0.1-0.1,0.4-0.2,0.4-0.3
				c0.2-1.9,0.8-3.4,1.9-4.9c0.1-0.2,0.3-0.4,0.3-0.7c0.5-2.7,2.2-4.6,4.1-6.3c0.6-0.5,1.1-1.1,1.3-1.8c0.4-1.6,2-2.5,2.3-4.1
				c0.1-0.5,0.4-1,0.3-1.6c-0.4-2.2,0.5-4.1,1.4-6c0.7-1.5,0.3-2.6-1.3-3.2c-2.3-0.8-3.9-2.4-5.5-4.1c-2.6-2.7-5.3-5.3-6.8-8.9
				c-0.3-0.8-1.1-1.3-1.6-2c-0.4-0.6-1.2-1.3,0.3-1.9c-1.3,0-1.7-0.7-2.1-1.5c-1.4-2.8-2.8-5.7-4.2-8.5c-0.9-2-2.2-4-2.7-6
				c-0.8-3.1-2.6-5.7-3.3-8.8c-0.3-1.7-1.5-2.4-3.2-2.8c-3.7-0.9-6.5-4.4-6.1-7.8c0.1-1,0.4-1.9,1-2.7c0.9-1.2,1.7-2.6,2.9-3.5
				c2.3-1.8,2.3-4.1,2.1-6.6c-0.2-2.5-0.6-4.9-0.8-7.4c-0.2-1.9,0.1-3.9-0.3-5.9c-0.2-0.7,0.6-1,1.3-1.2c-0.7-0.4-1.4-0.8-1.4-1.6
				c0-1.1-1.5-1.5-1.1-2.8c0.3-0.9,0.6-1.4,1.6-0.9c1.2,0.6,2.1,0.3,3-0.6c1-0.9,2.6-0.9,3.4-2.3c0.3-0.6,0.9-0.9,1.1-1.7
				c0.2-1,1.4-1.3,2.4-1.7c1.1-0.5,1.6-1,0.4-1.9c-1.8-1.4-3.2-3.2-4.2-5.3c-0.5-1.2-1.6-2.2-1.6-3.5c0-1.8-0.9-3.7-0.4-5.4
				c0.4-1.4,0.6-3.2,2.4-4c0.5-0.2,1.3-1.3,1.4-2.3c0-0.5,0.2-1,0.6-1.2c1.3-0.8,1.7-2.4,2.4-3.6c0.4-0.6,0.6-1.2,1.3-1.5
				c0.2-0.1,0.4-0.3,0.4-0.4c-0.1-2.3,2.3-3.1,3-4.9c0.6-1.8,2.5-2.7,3.6-4.1c1-1.3,0.8-2.1,0.1-3c-1.2-1.4-2.3-3-3.7-4.3
				c-1.1-1.1-1.2-2.3-1.4-3.5c-0.3-2.3-1.3-4.3-2.6-6.3c-0.5-0.8-0.7-1.8-1.1-2.7c-0.9-2.1,0.3-4.2-0.4-6.1
				c-0.8-1.9-0.2-3.8-0.3-5.6c0-0.3,0-0.6,0.1-0.7c0.6-0.5,1.4-0.7,0.3-1.7c-0.5-0.5,1.1-0.2,1.2-1c-2.6-0.6-1.1-2.7-1.4-4.1
				c-0.5-1.8,0.4-3.9-0.1-5.9c-0.4-1.4,0.5-2.7,0.5-4.2c0-2.3,0.5-4.6,0.3-6.9c-0.2-2.8-0.6-5.6-0.5-8.4c0.1-1.6,0.8-3.1,1.1-4.6
				c0.3-1.2,0.9-2.3,1.1-3.5c0.2-1.7,0.6-3.3,1.4-4.9c0.7-1.2,1.4-2.4,2.1-3.7C232.7,277.3,233.4,278,234,278.4
				c0.4,0.4,0.7,0.9,1,1.3c0.2,0.3,0.6,0.4,1,0.2c0.2-0.1,0.4-0.2,0.4-0.4c0.1-0.5-0.4-0.5-0.7-0.7
				C235.1,278.6,234.6,278.3,234,278.4z M289.1,379.9c-0.8,0-1.6-0.1-1.8,1.1c-0.1,0.8-0.6,1.1-1.5,0.9c-0.2,0-0.4,0-0.5,0.2
				c-0.1,0.2-0.1,0.4,0.1,0.5c1.1,0.4,1.6,1.6,2.6,2.1c0.7,0.3,1.4,0.9,2,0c0.5-0.8,1.2-1.8-0.2-2.6
				C288.8,381.5,288.5,380.8,289.1,379.9c0.5-0.4,0.7,0.2,1.1,0.4c0.5,0.3,1.2,0.3,1.2-0.5c0-1.1-1.1-1-1.8-1.4
				c-0.5-0.2-1.1-0.4-1.3,0.2C287.9,379.3,289,379.3,289.1,379.9z M226.7,602.8c0.9,1,2.1,1.1,3.3,0.7c0.8-0.2,1.5-0.2,2.2,0.1
				c1.2,0.5,2.4,0.4,3.8-0.2c-1.1-0.4-0.9-1.8-1.9-1.9C231.5,601.2,228.9,601.3,226.7,602.8c0.1-0.4-0.1-0.7-0.4-1
				c-1.9-1.9-1.9-2.2-0.3-4.5c0.2-0.2,0.3-0.4,0.1-0.7c-0.6-0.8-1.4-1.1-2.3-0.9c-0.9,0.2-2.2,0.6-2,1.6c0.2,1.4-0.4,3.1,1.3,4.3
				C224.3,602.3,225.1,603.4,226.7,602.8z M349.5,514.3c0.5,0.3,1,0.3,1.5,0.3c0.3,0,0.7-0.2,1,0.2c0.2,0.4-0.1,0.9-0.3,1
				c-1.3,0.6-2,1.8-3,2.6c-1.1,0.8-1.9,1.8-2.6,3c-0.1,0.2,0,0.7-0.3,0.5c-1.2-0.5-1.3,0.8-1.9,1.1c-1.3,0.8-1.4,2.7-3.2,3.1
				c-0.7,0.2-0.7,1.2-0.6,1.9c0,0.4,0.2,0.8,0.6,0.8c0.7,0,0.7-0.8,1.1-1.2c0.1-0.1,0.2,0,0.4-0.1c0.1,0.4,0.1,0.9,0.3,1.3
				c0.2,0.6,0.8,0.7,1.1,0.2c0.4-0.8,0.7-2,0.6-2.7c-0.1-0.8,0.1-0.8,0.6-0.8c0.5,0,1-0.1,1.5-0.1c0.7,0,1.9-0.5,1.9-0.6
				c-0.3-1.6,0.8-1.3,1.7-1.4c0.8-0.1,1.3-0.1,1.5-1.1c0.2-0.9,0.8-1.8,2-2.1c1-0.2,2.1-0.9,2.2-2.1c0.2-1.3,0.9-2.1,1.9-2.8
				c1-0.7,1.1-2.1,0.9-3c-0.2-0.7-1.4,0.3-2.2,0.3c0,0-0.1,0-0.1,0.1c-0.7,0.3-1.3,0.5-0.9-0.7c0.3-0.9-0.3-1.5-1-1.2
				C352.3,511.7,350.1,511.9,349.5,514.3c-0.7,0.2-0.7,0.3-0.9-0.5c-0.1-0.6-0.3-0.8-0.6-0.1c-0.2,0.4-0.4,0.6-0.8,0.3
				c-0.2-0.2-0.7-0.5-0.5-0.7c0.8-0.7,0.3-1.1,0-1.7c-0.5-1.1,0.1-3,1.2-3.5c0.8-0.4,1.1-1.1,0.9-1.7c-0.1-0.7-0.9-0.8-1.6-0.9
				c-1.7-0.1-3.5,0.7-5-0.8c-0.4-0.4-1.1,0.2-1.3,0.7c-0.3,0.5,0.2,0.8,0.6,0.9c1.2,0.3,2.3,1.1,3.5,1.5c0.5,0.2,1.2,0.1,1.2,0.7
				c0,0.6-0.2,1.2-0.8,1.5c-1.1,0.7-2.2,1.4-3.2,2.1c-0.9,0.6-1.2,1.1-0.4,2.2c0.7,1.1,2.2,1.1,2.6,2.6c0.3,1.1,0.7,2.2,0.8,3.8
				c1.3-2.5,1.9-4.9,4.5-5.8C349.9,514.9,349.6,514.5,349.5,514.3z M311.2,437.1L311.2,437.1c0-0.2,0-0.4,0-0.6
				c0.6-1.6,0.9-3.2,1.1-4.9c0.2-1.3,0.1-2.7,2.1-2.7c0.6,0,0.4-0.7,0-0.9c-1.6-0.8-3.3-1-5-0.8c-0.8,0.1-1.5,0.9-1.3,1.5
				c0.3,1-0.3,1.7-0.5,2.6c-0.3,1.1-0.6,2.2-0.9,3.3c-0.5,2-0.8,3.9-1.9,6.2c0,0,0.1,0.1,0.1,0.2c0.4,1.4-0.1,2.8-0.5,3.9
				c-0.7,1.9-0.9,4-1.4,5.9c-0.7,2.7-1,5.4-2.7,7.7c-0.2,0.2-0.2,0.5,0,0.7c1,0.8,0.8,2,0.6,2.8c-0.4,1.2-0.5,2.6-1,3.8
				c-0.6,1.5,0.2,2.4,1.8,2.5c1.3,0,2.6-0.3,4,0c0.5,0.1,1.2-0.2,1.5-1.1c0.5-1.1,0.6-2.2,0.8-3.3c0.5-2.6,1.4-5.1,1.9-7.7
				c0.5-2.8,1.3-5.4,2-8.1c0.5-1.9,0.8-3.8,1.4-5.7c0.3-1.1-0.1-2.4,2-2c-1.4-1-1.2-1-0.8-3.8c0.2-1.5,1.3-0.4,1.8-0.9
				c-1.5-0.7-1.7-1.3-1-3.2c0.3-0.7,0.9-1.7,0.5-2c-0.8-0.7-1.4,0.5-2.1,0.8c1,0.5,1,0.5,0.5,1.3c-0.2,0.3-0.5,0.6-0.4,0.8
				c0.5,1.4-0.6,2.3-1,3.5C312.3,437.2,311.8,437.3,311.2,437.1z M298.3,316.9c-1.1,0.3-2.2-0.3-1.9-0.9c0.7-1.3-0.3-2.7,0.7-3.9
				c0.8-1-0.3-2.4,0.5-3.4c-1.6-0.7-0.4-1.5-0.2-2.4c0.6-1.9,1.3-3.9-0.3-5.7c-0.2-0.2,0.1-0.5,0.1-0.7c0.3-1.7,0.7-3.3,0.7-5
				c0-1.9-0.1-3.7-0.3-5.6c-0.3-2.2,0.3-4.6,0.1-6.9c-0.2-2.9-0.4-5.9-1.1-8.8c-0.4-1.6-0.4-3.6-2-4.8c-0.2-0.2-0.2-0.4-0.2-0.7
				c-0.2-4.1-0.4-4.7-3-7.6c-0.7-0.7-1.6-1.4-2.7-1.4c-1,0-2,0.5-2.8,1c-0.5,0.3,0,1.5,0.3,2.2c-0.8,0.4-1.5,0.1-2-0.4
				c-2.7-2-6.1-1.9-9.2-2.8c-1.3-0.4-1.9-1.2-2.5-2c-0.6-0.9,0.8-0.8,1-1.4c0-0.2,0.3-0.3,0.4-0.5c0.2-0.4,0.8-0.8,0.4-1.4
				c-0.4-0.4-0.8-0.6-1.4-0.6c-2-0.2-4,0.1-5.9,0.3c-2.1,0.2-3.4,1.7-4.9,2.8c-0.3,0.2-0.5,0.6-0.3,1c0.3,0.4,0.7,0.3,1.1,0.1
				c1.5-0.6,3.1-1,4.8-1c0.7,0,1.5-1.1,1.8-0.3c0.2,0.7-1.2,0.9-1.8,1.2c-0.1,0-0.2,0-0.3,0.1c-0.7,0.1-0.7,0.6-0.6,1.2
				c0.2,0.8,0.8,0.9,1.4,0.9c1.6,0,3.3,0,4.9,0.1c0.4,0,1.1,0,1,0.6c-0.1,0.5-0.7,0.4-1.1,0.3c-0.7-0.1-1.4,0-2.1,0.1
				c-1.9,0.2-3.1,1.8-4.9,2.1c-2.3,0.4-4.2,1.4-5.6,3.3c-0.3,0.4-0.7,0.3-1.1,0.4c-0.7,0.2-1.4,0.4-1.9,1c-1.2,1.5-0.5,3.8-2.3,5
				c0,0,0.1,0.3,0.2,0.4c0.4,0.5,0.1,1-0.1,1.5c-1.2,2.7-2.9,5.1-5.1,6.9c-1.5,1.2-2.3,2.9-3.7,4c-0.9,0.8-0.9,2.1-1.8,2.8
				c-0.7,0.6-1.4,1.1-1.1,2.2c0.1,0.4-0.2,0.7-0.5,0.9c-0.5,0.3-0.6,0.7-0.2,1.1c0.5,0.5,0.8-0.1,1-0.3c0.8-0.7,1.9-1,2.2-2.3
				c0.2-1,1.7-1.1,2.2-2c1.1-1.8,2.8-3.1,3.5-5.1c0.2-0.5,0.6-0.9,1.1-1.2c1.3-0.9,1.9-2.3,3-3.3c1.1-1,1.3-2.5,2.5-3.3
				c0.4-0.3,0.9-0.8,1.3-0.4c0.4,0.4-0.1,0.8-0.5,1.1c-0.3,0.2-0.1,0.6-0.3,0.8c-0.5,0.8-0.3,2.3-1.9,2.2c-0.4,0-0.5,0.3-0.3,0.7
				c1,2.2-0.6,3.7-1.8,5c-1.4,1.4-1.8,3.8-4.2,4.2c-0.1,0-0.1,0.4-0.3,0.5c-0.7,0.7-1.6,1.9-2.2,1.8c-1.2-0.1-1.5,0.5-1.9,1.3
				c-0.3,0.6-0.6,1.2-1.4,1.3c-0.2,0-0.6,0.1-0.5,0.4c0.1,0.3,0.3,0.4,0.6,0.4c1.2-0.1,1.7,0.9,2,1.6c0.3,0.5-0.8,1-1.4,1.3
				c-0.3,0.2-0.6,0.6-0.9,0.8c-1,0.6-1.5,1.8-2.6,2.3c-1.6,0.6-2.7,2-3.8,3.1c-2.7,2.6-2.9,6.4-5,9.4c-0.8,1.2-1,2.8-1.6,4.2
				c-0.5,1.3-0.6,2.3-0.2,3.6c0.3,1.1,0.2,2.3-0.3,3.5c-0.3,0.6-0.6,1.1-0.6,1.7c-0.1,1.4,0.5,1.9,1.9,1.5c0.7-0.2,1.4-0.5,2.1-0.6
				c0.6-0.2,1.3,0,1.6,0.6c0.3,0.6-0.4,0.8-0.8,1.1c-0.4,0.2-0.8,0.5-1.1,0.7c-1,0.7-2,1.4-2.9,2.1c-0.7,0.6,0.8,1.1,0.5,1.7
				c-0.7,1.6,0.3,2.1,1.4,2.6c0.3,0.2,0.7,0.4,0.8,0.7c0.8,3.1,3.8,3,5.9,4.2c1.4,0.8,2.9,0.5,4.5,0.4c2.1-0.1,4.2,0.1,6.3,0.2
				c1.3,0,2.7,0,3.8,1c0.8,0.7,0.8,0.7,1.1-0.3c0-0.1,0.2-0.3,0.3-0.3c0.5,0,1.2-0.4,1.6,0.1c0.5,0.6-0.3,0.8-0.5,1.2
				c-0.3,0.5-0.9,0.7-1.4,0.9c-1.9,0.6-3.8,0.8-5.7,1c-1.5,0.1-3,0.3-4.2,1.6c-0.7,0.7-1.8,1.4-2.6,0.3c-2.3-2.8-5.8-2.3-8.4-1.2
				c-0.3,0.1-0.5,0.4-0.4,0.7c0.6,1.6,0.9,3.3,2.9,3.9c1.3,0.4,2.7,0.7,3.9,1.4c2.4,1.4,4.4-0.6,6.6-0.8c0.5-1.5,2.1-1.2,3.2-1.6
				c0.5-0.2,1.3-0.5,1.4,0.2c0.1,0.6-0.3,1.2-1.1,1.4c-1.3,0.3-2.4,0.7-3.3,2c-1,1.5-2.3,3-4.4,3.3c-0.3,0-0.5,0.3-0.3,0.7
				c0.2,0.5,0.3,1,0.3,1.5c-0.1,0.7,0.9,0.8,0.9,0.7c1-0.9,2.2-0.4,3.2-0.5c0.4-0.1,0.8-0.2,0.8-0.8c0-0.4-0.2-1.1,0.5-1
				c0.7,0.1,0.3,0.7,0.4,1.1c0.1,0.5,0.2,0.9,0.8,1c1.3,0.3,3.8-1.2,4-2.6c0.1-0.8,0.4-1.4,1.1-1.7c0.7-0.3,1-0.4,0.9-1.2
				c-0.1-0.7,0.5-1,1.2-0.8c0.8,0.2,0.2,0.8,0.1,1.1c-0.8,2.4-1.8,4.6-4.2,5.9c-1,0.6-1.8,1.5-2.6,2.3c-1.3,1.5-1.3,1.9,0.2,3.2
				c1.3,1.2,4.2,1.1,4.9-0.2c1.3-2.3,2.6-2.8,5.1-1.9c0.4,0.1,0.8,0.2,1.2,0c0.2-0.1,0.5-0.2,0.7,0.1c0.2,0.2,0,0.5-0.1,0.7
				c-0.6,1-1.6,1-2.5,1.2c-0.9,0.3-2,0.5-2.2,1.4c-0.4,1.8-1.1,3.5-1.6,5.3c-0.2,0.7-0.1,1.8,0.8,2.5c0.8,0.6,1.4,0,2.1-0.3
				c1-0.5,1.8-1.3,2.7-2c0.2-0.2,0.5-0.4,0.8-0.2c0.3,0.2,0.4,0.5,0.3,0.8c-0.5,1.7,0.8,1.9,1.8,2.4c0.4,0.2,1,0.2,1.5,0.3
				c0.4,0.1,0.8,0.2,0.8,0.7c0,0.5,0.2,1-0.3,1.2c-1.3,0.6-1.7,2.2-3.1,2.7c-0.4,0.2-0.4,2.7-0.1,2.8c0.8,0.4,2.7-0.8,2.7-1.7
				c0-0.4-0.1-0.8-0.1-1.2c0-0.4-0.1-0.9,0.4-1c0.6-0.1,0.6,0.4,0.6,0.9c0.1,0.8,0.2,1.6,0.3,2.3c0.7-0.1,0.8-0.5,0.8-0.8
				c0.1-1.3,0.5-1.9,1.9-1.5c0.7,0.2,1.4-0.1,2.1-0.3c3.3-1,6.2-3.1,9.9-2.9c1.2,0,1.3-0.7,0.8-1.7c-0.4-0.8-0.9-1.5-1.2-2.3
				c-0.9-2.8-2.1-5.5-4.6-7.3c-0.2-0.2-0.5-0.4-0.6-0.7c-0.7-1.8-1.6-3.4-2.9-4.8c-0.5-0.6-1.2-1.5,0.5-2c-1.2-0.1-1.8-0.4-2.2-1.5
				c-0.4-1-0.3-2.3-1.3-3.2c-0.6-0.5-0.9-1.5-1.7-1.6c-1.1-0.1-1.8-0.7-2.4-1.5c-0.5-0.6-0.7-0.6-1.2-0.2c-0.8,0.6-1.3,0.4-1.8-0.5
				c-0.8-1.2,0.2-2.1,0.2-3.2c0-0.3-0.2-0.8,0.4-0.9c0.5-0.1,0.9,0,1.3,0.3c0.2,0.3,0.4,0.6,0.6,0.9c0.4,0.5,1,0.4,1.6,0.2
				c0.6-0.2,0.3-0.8,0.2-1.2c-0.4-1.8-2.3-3.5-4.2-3.6c-0.5,0-0.8,0-0.8-0.7c0-1.5-0.9-2-2.3-1.5c-0.3,0.1-0.5,0.2-0.6-0.1
				c-0.4-1.7-1.5-1-2.4-0.8c-1.3,0.3-2.4-0.1-3.7-0.2c0.9-0.4,1.2-0.9,1.1-1.9c-0.2-1,0.3-1.7,1.4-2.1c1.2-0.4,2.3-1,3.6-1.5
				c-0.9-1.1-1.2-2.5-2.6-3.2c-0.5-0.2-0.4-0.8-0.1-1.4c0.4-0.6,0.1-1.1-0.4-1.5c-1.7-1-3.5-1.3-5.3-0.2c-1.7,1.1-3.7,1.5-5.6,2
				c-1.1,0.2-2.3-0.2-2.7-1.2c-0.4-0.8,0-1.9,0.7-2.6c2-2,4.3-3.4,7.2-4.1c1.9-0.4,3.9-0.7,5.7-1.5c-0.8-0.6-1.5-0.4-2.3-0.4
				c-2.1-0.1-4.3,0.2-6.4-0.5c-0.5-0.2-0.8-0.5-0.9-0.9c-0.1-0.6,0.5-0.5,0.8-0.7c0.4-0.3,1.1-0.4,1.3-0.8c0.9-1.8,2.7-1.8,4.2-2.2
				c1.7-0.4,2.4,0.1,3.5,1.9c0.1,0.1,0.3,0.1,0.4,0.1c1.4,0.1,2.7,0.8,4.1,1.2c0.7,0.2,1.3,0.5,1.7,1.3c0.4,0.7,1.6,0.5,2.4,0.3
				c0.9-0.3,0.7-0.9,0.5-1.5c-0.5-1.2-1-2.1-2.6-1.8c-1.6,0.3-1.6-1.3-2.3-2.1c-0.3-0.3-0.3-0.7,0.1-0.9c0.8-0.6,1.5-0.1,2.3,0.2
				c1.5,0.5,2.6,1.7,4.3,1.8c0.9,0,2.5,0.9,1.8,2.7c-0.2,0.4,0,1,0.7,0.9c1.3-0.4,2.8-0.7,3.4-2.1c0.8-1.7,1.4-3.4,2.7-4.9
				c1.4-1.7,2.5-3.8,3.9-5.6c0.4-0.5,0.9-0.9,1.1-1.7c0.4-1.4,0.1-2.8,0.4-4.1c0.2-0.6,1.6-3,2-3.4c1.1-1.1,2.8-1.8,2.8-3.7
				c0-0.5,0-0.9,0.2-1.4c1.2-2.4,2.6-4.8,2.8-7.6c0.1-0.7,0.3-1.1,1.1-1.3c0.5-0.1,1-0.2,1-0.9c0-1.1-1-1.2-1.6-1.7
				c-0.4-0.3-0.8-0.1-1.2,0.3c-0.6,0.5-0.5,1.1-0.8,1.7c-0.2,0.5-0.7,0.9-0.9,1.5c-0.4,1.4-0.8,3.2-1.6,4.2c-2.2,3-3.4,6.5-5.5,9.5
				c-0.9,1.2-2.2,2.4-1.8,4.3c0.1,0.4-0.5,0.7-0.9,0.7c-1.8,0-2,1.4-1.6,2.4c0.5,1.2-0.1,1.6-0.7,2.1c-0.9,0.7-1.5,1.6-2.1,2.6
				c-0.5,0.8-1.7,0.9-2.1,2c-0.4,1.1-1.5,1.2-2.5,0.5c-1.3-0.9-2.4-2-4-2.4c-0.6-0.1-1.5-0.2-1.9-0.6c-2.1-2.4-4.5-1.5-6.9-0.9
				c-1.6,0.4-3.3,0.6-5,0.5c-1.2-0.1-1.4-0.8-1.2-1.8c0.2-1.1,0.7-1.9,1.9-2.5c0.8-0.4,1.6-0.9,2.1-1.7c0.9-1.7,2.1-3.1,4.1-3.7
				c1.1-0.4,2.3-0.1,3.4-0.7c0.3-0.2,0.6-0.4,1-0.1c0.3,0.4,0,0.7-0.1,1c-0.5,1.2-1.4,2.2-1.6,3.6c-0.1,0.5-0.3,0.9,0.3,1.2
				c0.5,0.3,1.3,0.3,1.4,0c0.6-1.4,1.8-0.9,2.7-0.9c0.3,0,0.8-0.6,0.6-0.9c-0.2-0.3,0-0.5,0.2-0.7c0.3-0.5,0.4-0.9-0.2-1.2
				c-0.3-0.2-0.4-0.5-0.1-0.6c0.8-0.4,1.6-0.7,2.4-0.9c0.5-0.1,0.5,0.3,0.3,0.7c-0.4,0.8-0.2,1.5,0.2,2.3c0.2,0.6,0.5,1.1,1.1,1.1
				c0.8,0,0.7-0.7,0.7-1.3c0.1-1,0.5-1.5,1.5-0.9c0.8,0.4,1.7,0.7,2.2-0.1c0.6-0.9,0.8-2.3-0.2-3c-1.8-1.3,0-1.5,0.5-2.1
				c0.2-0.3,0.8,0.1,1.1-0.4c-0.6-0.8-0.6-0.8,0-1.3c2.4-1.8,3.9-3.9,3.6-7.1c-0.1-1.3,1-1.9,2.1-1.3c0.9,0.5,2.9-0.2,3-1.1
				c0.1-1.3,1.2-1.8,1.8-2.7c1-1.3,1.8-2.8,1.6-4.6c-0.3-2.2-0.9-4.2-2.6-5.7c-0.4-0.4-0.4-0.8,0-1.2c0.5-0.4,0.8,0.1,1,0.4
				c0.2,0.2,0.3,0.5,0.4,0.8c0.7,1.2,1.3,2.5,2.4,3.4c0.3,0.3,0.6,0.4,0.9,0.3c0.4-0.2,0.3-0.5,0.3-0.8c0.2-1.3-0.3-2.4-0.9-3.4
				c-0.2-0.4-0.4-0.7-0.5-1.1c0-0.3,0-0.5,0.3-0.6c0.3-0.1,0.5,0.1,0.5,0.4c0.1,0.9,0.7,0.9,1.3,0.9c1.3,0,2.1,1,2.3,2
				c0.5,2.2,0.6,4.5,0.4,6.7c-0.1,1.9-0.6,3.8,0.6,5.5c0.4,0.6,0.4,1.4,0.2,2.2c-0.7-0.6,0-1.5-0.7-1.9c-0.5-0.3-1-0.3-1.5-0.1
				c-0.8,0.2-0.9,0.9-0.9,1.6c0,2.1,0.5,4.1-0.1,6.2c-0.2,0.5-0.4,1.2-0.1,1.8c0.7,1.1-0.6,1.7-0.7,2.4c-0.1,0.7,0.8,1.6,0.1,2.3
				c-0.8,0.8-0.3,1.5-0.2,2.3c0.2,0.8,0.8,1.2,1.6,1c0.9-0.2,0.7-0.8,0.6-1.4c-0.1-0.5-0.1-1.1,0.2-1.6c0.1-0.2,0.4-0.2,0.5,0
				c0.4,0.5,0.6,1.1,0.4,1.7c-0.1,0.2-0.2,0.4-0.2,0.6c0.3,1.7-1.5,3.1-0.9,4.9c0.1,0.2,0,0.5-0.1,0.6c-1.3,0.5-0.6,1.3-0.2,1.9
				c0.6,1,0.8,2,0,3c-0.3,0.4-0.3,0.9-0.1,1.3c0.3,0.4,0.1,0.7,0,1.2c-0.5,1.8-2.5,2.8-2.7,4.6c-0.1,1.4-1.7,2.8,0,4.2
				c0.4,0.3,0,0.5-0.2,0.8c-0.5,0.8-1,1.7-1.8,2.3c-0.6,0.5-0.9,1.3-0.5,1.7c0.5,0.6,0.9-0.2,1.4-0.5c1.6-1,2.6-2.8,4.7-3.2
				c0.7-0.1,1.5-0.1,2.4-0.5c-0.5-0.2-0.9-0.2-1-0.4c-0.2-0.4,0.3-0.6,0.6-0.7c1-0.5,1.8-1.6,1.9-2.2
				C296.2,317.7,296.8,317.1,298.3,316.9z M254.4,455.4c-1.5,0.1-1.6-0.5-0.9-1.3c0.6-0.7,0.5-1.7,0.2-2.1c-0.5-0.7-0.2-1.3-0.3-2
				c-0.3-2.3,1-4.6-0.1-6.9c-0.5-1-0.9-2.5-1.6-3c-2.1-1.6-4.5-3.1-7-3.6c-3.4-0.7-4.4-3-5.4-5.7c-0.3-0.9-0.6-1.7-1.6-1.9
				c-1.1-0.2-1.6,0.6-2.1,1.2c-1.7,2.4-3.5,4.7-6.1,6.2c-0.5,0.3-0.6,0.8-0.7,1.3c-0.7,2.6-1.5,5.2-4.3,6.4c-1,0.4-1.2,1-0.7,2.1
				c0.8,2,1.4,4,2.2,6.4c-1.2-0.9-1.6-0.4-1.8,0.4c0.5,0.2,0.9-0.1,1.4-0.2c0.4-0.1,0.8,0,0.8,0.5c0,1,1,1.6,1,2.5
				c0,1.2,1.9,1.9,0.9,3.3c1.8,1,2,2.8,2.6,4.5c0.8,2.4,2.9,4.3,3.4,6.9c0.1,0.4,0.4,0.5,0.6,0.8c1.3,1.6,2.6,3.1,3.6,4.9
				c1.1,2,2.5,3.6,3.9,5.3c0.8,0.9,1.9,1.5,2.8,2.2c0.8,0.7,1.5,0.5,2.4,0.2c0.9-0.4,1.2-1.4,2-1.8c1.3-0.9,1.8-2,1.6-3.6
				c-0.3-2,0-3.9,1.1-5.7c0.1-0.2,0.3-0.3,0.2-0.5c-0.4-1.7,0.4-3.3,0.4-4.9c0-0.8,0.6-1.1,1.1-1.6c0.6-0.7-1-0.6-0.9-1.6
				c0.2-1.9-0.3-3.9-0.2-5.8C252.8,457.4,252.8,456,254.4,455.4z M269.3,515c-1.8-0.5-3.9-1.8-5-3c-0.3-0.3-0.5-0.6-0.5-1.1
				c0-1.3-0.7-1.6-1.9-1.4c-0.9,0.1-1.7,0.2-2.2,1.1c-0.3,0.5-0.8,0.6-1.2,0.2c-0.5-0.4,0-0.7,0.3-1c0.4-0.3,0.4-0.7,0.2-1.1
				c-0.3-0.4-0.7-0.4-1.1-0.2c-0.8,0.4-1.6,0.7-1.9,1.7c-0.2,0.8-0.7,1.1-1.5,1c-0.5-0.1-1,0-1.5,0.2c-1,0.5-1.6,0.2-1.8-0.8
				c-0.2-0.8-0.6-1.1-1.3-1.3c-0.8-0.2-1.7-0.5-2.5-0.8c-2-0.7-3.6,0-5.2,1.3c-0.8,0.6-0.7,1.4-1.3,2.1c-1.1,1.3-2.5,2.4-3,4.2
				c-0.5,1.7-0.7,3.3,0,5c0.9,2.4,2.3,4.4,4.7,5.4c0.4,0.2,0.9,0.3,0.8,0.8c-0.1,0.5-0.8,0.5-1,0.3c-1.3-1.2-3.1-0.6-4.5-1.4
				c-0.4-0.2-0.8-0.1-1.1,0.3c-0.3,0.4,0.2,0.5,0.3,0.7c0.7,1,1.4,1.9,2.1,2.9c0.3,0.4,0.8,0.9,1.3,0.7c1.2-0.5,2.1,0.2,3.2,0.2
				c1.5,0,1.9,0.9,1.6,1.9c-0.5,1.7,0.6,1.3,1.3,1.2c1.4-0.3,1.6,0.4,1.6,1.5c0,0.5-0.2,0.8-0.5,1.1c-0.2,0.3-0.8,0.5-0.3,1
				c0.4,0.4,0.8,0.6,1.3,0.2c0.3-0.2,0.4-0.6,0.9-0.6c0.2,0,0.4,0.1,0.5,0.2c0,0-0.1,0.4-0.1,0.4c-1.3,0-1.2,1.4-1.9,1.9
				c-1.4,1-4.7,0.7-6.2-0.7c-0.9-0.9-1.9-1.8-3.3-0.9c-0.3,0.2-0.7,0.1-0.8-0.2c-0.4-0.7-1.1-1.1-1.7-1.6c-0.2-0.2-0.5-0.5-0.3-0.6
				c1.1-0.9,0-0.6-0.4-0.7c-0.2-0.1-0.4-0.3-0.6-0.5c-0.6-0.8-1.4-0.9-2.2-0.6c-0.4,0.2-0.9,0.4-0.7,1.2c0.2,0.9,0,1.8,1.3,2.1
				c1.1,0.2,2.5,2.8,2.6,3.8c0,1.1,0.4,2,1.7,2.4c1.6,0.5,3,1.5,4.7,0.8c0.1,0,0.3,0.1,0.4,0.2c2.2,1.3,4.5,1.3,6.9,0.8
				c0.8-0.2,1.6-0.2,2.4-0.3c0.5-0.1,0.9,0,1,0.5c0.5,2.1,1.9,2.8,4,2.6c0.8-0.1,1.5-0.1,1.5,1.1c0,0.6,0.4,0.7,1.1,0.4
				c1-0.5,1.8-1.4,2.7-1.8c1.3-0.5,1.9-1.3,2.4-2.3c0.8-1.5,0.6-1.5-1-1.5c-1.9,0-3.8,0.2-5.7,0.3c-0.2,0-0.5,0-0.7-0.2
				c-0.1-0.2,0-0.4,0.2-0.5c1.7-1.6,3.5-3.1,5.8-2.8c2.3,0.2,3.4-1.6,5.3-2.1c-1.4-0.6-2.8-0.8-3.9-1.8c-1.4-1.2-1.5-1.9-0.2-3.2
				c0.2-0.2,0.4-0.6,0.6-0.1c0.2,0.5,0.4,0.3,0.7,0c0.4-0.6,1.2-0.6,1.7-0.9c1.6-0.9,3.2-0.9,5-0.8c-0.1-0.6-1-0.7-0.5-1.4
				c0.7-1.1,0.4-1.5-0.8-1.5c-0.7,0-1.1,0-1.6-0.6c-1-1.3-0.9-2.6-0.2-3.8c0.7-1.2,1.8-1.5,3.1-1.5c2.7,0.1,3.2-0.3,3.6-2.9
				c0.1-0.4,0.1-0.9,0.6-0.9c0.4,0,0.5,0.4,0.7,0.7c0.2,0.5-0.1,1.4,0.8,1.1c0.6-0.2,1.6-0.3,1.2-1.5c-0.2-0.5,0-1,0.6-1.5
				c0.8-0.6,0.7-2.4-0.3-2.6c-2.7-0.7-5.3-1.8-8.1-1.9c-1.2,0-1.9,1-1.2,1.9c0.9,1.3,1.3,2.8,2.7,3.7c0.3,0.2,0.8,0.4,0.4,0.8
				c-0.3,0.3-0.6,0.2-0.9-0.1c-0.6-0.7-1.4-1.2-2.2-1.6C269.2,517.4,268.7,515.8,269.3,515z M316.6,313.3c-0.6-1.7-0.1-3.4-0.2-5.1
				c-0.1-1.4-0.2-2.8,0.9-3.9c0.3-0.3,0.3-0.8,0.1-1.2c-0.3-0.4-0.7-0.4-1.1-0.4c-1.6,0-2.4,1.3-3.2,2.3c-0.6,0.8-1.6,1.7-1.5,2.7
				c0.1,1.5-0.9,2.9-0.6,4.3c0.2,1.3-1.2,2.3-0.4,3.6c0.1,0.1-0.3,0.6-0.6,0.6c-1.3-0.3-1.5,0.8-2,1.5c-0.2,0.3-0.4,0.7-0.8,0.8
				c-1.5,0.6-1.7,1.3-1.1,2.8c0.3,0.6,1.3,1.3-0.2,1.8c-0.4,0.1,0,0.4,0.3,0.4c0.3,0.1,0.6,0.2,0.3,0.5c-1.1,0.9-0.7,2.1-0.8,3.2
				c-0.1,2.7-0.6,5.3-0.8,7.9c-0.1,1.3,1.7,4,2.9,4.3c0.8,0.2,1.4-0.2,1.2-1.1c-0.5-2.8,0.5-5.5,0.3-8.3c0-0.5,0-1.1,0.5-1.1
				c0.5,0,0.8,0.6,0.8,1.1c-0.2,1.5-0.3,3.1-0.8,4.5c-0.4,1.3-0.2,2.5,0.4,3.6c0.5,0.9,1.5,1.5,2.3,0.4c0.9-1.2,1.3-0.7,1.9,0.2
				c0.1,0.2,0.4,0.3,0.6,0.4c0.5,0.5,0.8,1.1,0.3,1.9c-1.3,1.8-1.1,2.9,0.9,4.1c0.9,0.5,1.6,1,1.7,2.1c0.1,0.9,0.4,0.7,0.9,0.2
				c0.9-0.9,3-5.6,3.4-7c0.6-2.6,1.1-5.3,1.5-7.9c0.1-0.5,0.2-1.1-0.3-1.4c-0.7-0.3-1.1,0.2-1.2,0.8c-0.1,0.6-0.9,0.9-0.7,1.6
				c0.1,0.3-0.2,0.5-0.5,0.5c-0.4-0.1-0.1-0.4-0.2-0.6c-0.5-1.2-0.1-1.9,1.1-2.4c-0.7-0.5-1.4,0-1.9-0.3c0.6-2.1,0.7-2.1,1.9-3.5
				c0.1-0.1,0.1-0.4,0.1-0.5c-0.3-0.6,0.2-0.8,0.6-1c0.9-0.5,1.6-1.3,2.3-2c0.3-0.3,0.5-1.1,1-0.6c0.4,0.3,0.4,0.9-0.1,1.5
				c-1.1,1.5-0.2,3.8,1.3,4.1c-0.8,2-2.7,3.4-2.7,5.9c0,0.7,0.2,1.3,0.3,1.9c0.3,1,1.1,2.2-0.3,3.1c-0.1,0-0.1,0.4-0.1,0.4
				c1.4,0.6,0.2,1.1-0.1,1.7c-0.4,1-0.6,1.9-0.4,3c0.3,1.6,1.5,2,2.7,1c1.7-1.4,2.2-3.6,1.6-5.8c-0.3-0.9-0.4-1.9,0.4-2.8
				c1.3-1.5,2-3.2,1.9-5.3c-0.1-1.2-0.2-2.5-0.1-3.6c0.4-2.2,0.5-4.4,0.7-6.7c0.1-1.5,0.3-3,0.5-4.5c0.2-1.3-0.3-2.9,1-4
				c0,0-0.1-0.2-0.1-0.2c-1.2-0.6-0.5-1.6-0.4-2.5c0-1.2,0.6-2.4,0.2-3.6c-0.8-2.2-1.5-4.3-1.4-6.7c0-1.7,0.4-3.3,0.2-5
				c-0.4-2.3-1.5-4.4-1.6-6.7c0-0.4-0.1-1.5-1.1-1.6c-0.6-0.1-1.2,0-1.5,0.4c-0.9,1.2-1.7,2.3-2.4,3.6c-0.5,0.9-0.7,1.7,0.8,2
				c1.6,0.4,1.8,0.9,1.2,2.3c-1-1.3-2.1-1.7-3.3-1.3c-1.3,0.4-2.9,2.6-2.6,4.3c0.2,1.1-0.2,1.3-1.1,1.5c0.9,0.5,1.2,1.2,1.3,2
				c0,0.2-0.3,0.5,0.3,0.6c2,0.5,4.9-1.5,5.1-3.6c0.1-0.9,0.2-1.9,0.4-2.8c0.3,0.8,0.2,1.6,0.3,2.4c0.1,1.6,0.4,3.3,0,4.9
				c-0.2,0.9-0.5,1.4-1.3,0.4c-0.2-0.3-0.5-0.7-1-0.7c-1.4,0-2.8,0.2-4,0.9c-0.4,0.2-1.1,0.5-0.9,1.3c0.3,1.9-0.6,3.8,0.1,5.7
				c0.1,0.3,0.1,0.7-0.4,0.6C317.3,311,317,312.1,316.6,313.3z M266.8,490.4c-0.6-1-0.7-1.9,0.2-2.6c2.1-1.6,4.8-1.9,7.1-3.1
				c1.2-0.6,2.7-1,4.1-1.5c0.7-0.2,1-0.8,0.9-1.5c-0.1-0.7-0.7-0.7-1.2-0.6c-2,0.4-4.1-0.3-6.1,0c-1.1,0.2-1.3-0.5-0.9-1.1
				c0.8-1,1.9-1.7,2.9-2.6c0.4,0.7-0.4,1.7,0.7,1.8c1,0.1,0.9-0.9,1.1-1.6c0.1-0.5,0.2-1,0.4-1.5c0.2-0.8,0.7-0.8,1.3-0.3
				c1.2,1.1,1.4,1.1,2-0.4c0.3-0.9,0.5-1.7,1.5-2.1c0.7-0.3,1-4,0.5-4.5c-0.1-0.1-0.3-0.3-0.5-0.3c-1.3,0.1-2-0.9-3.1-1.2
				c-0.2-0.1-0.5-0.2-0.5-0.5c0-0.4,0.3-0.5,0.6-0.5c1,0,1.1-0.6,1.4-1.4c0.5-1.1-0.3-2.6,0.7-3.3c2.2-1.7,2.6-4,3.1-6.4
				c0.3-1.9,0.1-2.5-1.7-3.3c-0.6-0.3-1.4-0.4-1.3-1.1c0.1-2-1-1.8-2.2-1.4c-0.4,0.1-0.8-0.1-1.2,0c-1.3,0.2-2.8-0.7-3.8,0.8
				c-0.2,0.2-0.3,0.2-0.5-0.1c-0.9-1.2-1.7-0.7-2.6,0c-0.6,0.5-0.9,0-1.3-0.3c-0.4-0.2-0.5-0.7-0.2-0.9c0.9-0.7,0.4-1.5,0.4-2.5
				c-0.8,0.8-1.7-0.3-2.4,0.6c-0.7,0.9-1.8,1.3-2.8,1.8c-2.6,1.3-4.8,2.9-5.7,5.9c-0.2,0.6-0.7,0.9-1.4,1c-0.4,0.1-1.2-0.3-1.1,0.6
				c0.1,0.8,0.8,0.9,1.4,0.7c1-0.2,1.5,0.2,1.4,1c0,0.7,0.5,0.8,0.8,1.3c0.3,0.6,0.7,0.9,0.5,1.8c-0.2,0.8-0.4,2.4,1.3,2.8
				c0.3,0.1,0.9,1-0.1,1.4c-0.1,0.1-0.5,0-0.4,0.2c0.9,1.6-0.6,1.3-1.3,1.6c-0.7,0.3-1.2,0.7-1.6,1.5c-0.9,1.7-1.9,3.4-3,4.9
				c-0.4,0.5-0.9,0.6-0.3,1.3c0.4,0.5,0,1.4,0.7,1.8c1.8,1.1,1.9,1.4,0.9,3.1c0.5,0.5,1,0.4,1.6,0c0.4-0.3,0.9-0.4,1.2,0.1
				c0.2,0.4,0.5,0.9,0,1.4c-0.7,0.7-1.3,1.6-2.2,2c-1.2,0.5-1.2,1.6-1.2,2.5c-0.1,0.8,0.5,1.9,1.4,1.8c0.9,0,1.9,0,2.8-0.5
				c0.3-0.2,0.9-0.6,1.2-0.1c0.2,0.4,0.5,1,0.2,1.6c-0.3,0.4-0.5,0.9-0.9,1.2c-0.5,0.4-0.5,0.9-0.2,1.5c0.3,0.6,0.8,0.5,1.3,0.4
				c1.4-0.2,2.4-1.1,3.3-2c0.3-0.3,0.7-0.7,1-0.2C265.1,490.5,265.9,490.2,266.8,490.4z M308.9,200.6c0.1,0.9,0.3,1.6,1.5,1.5
				c0.7,0,1.1,0.6,1,1.1c-0.1,0.5-0.3,1.1-1.2,1.3c-2.9,0.5-5.4,2.3-8.3,2.9c-0.3,0.1-0.7,0.3-0.6,0.6c0.4,1.8-0.9,1.7-2.1,2
				c-0.6,0.1-1.2,0.5-1.8,0.8c-0.9,0.5,0.3,0.9,0.1,1.5c0,0.1,0.7,0.2,0.7,0c0-1.5,1.3-0.8,1.9-1.2c0.2-0.1,0.5-0.1,0.7,0.1
				c0.2,0.3,0.2,0.6-0.1,0.9c-0.2,0.2-0.8,0.3-0.5,0.8c0.3,0.4,0.7,0.3,1.1,0.3c1.2,0,2.4-0.5,3.8-0.2c-0.7,0.9-1.6,0.9-2.5,1
				c-0.8,0.1-2,0.2-2,1c0,0.9,1,0.7,1.7,0.7c0.3,0,0.7,0.1,0.7,0.4c0,0.3-0.3,0.6-0.6,0.6c-0.6,0.1-1.2,0.1-1.8,0.1
				c-0.3,0-0.7,0-0.8,0.4c-0.1,0.4,0.2,0.6,0.6,0.8c0.6,0.4,1.1,0,1.7,0c1,0,2.4-0.7,2.9,0c1.1,1.5,2.3,1.1,3.6,0.8
				c2.5-0.5,5-1.3,7.5-1.9c1.3-0.3,2.3-1.1,2.8-2.4c0.7-1.9,2.2-3.3,3.6-4.6c1.5-1.3,0.9-3.1,1.7-4.5c0.1-0.1-0.1-0.4-0.2-0.6
				c-1.1-1.8-2.1-2.1-4-1c-0.6,0.4-1,0.5-1.5-0.1c-0.5-0.6-1.2-0.7-2-0.5c-2.3,0.8-3.1,0.5-4.1-1.6c-0.3-0.8-0.4-1.3,0.8-1.5
				c-0.3-0.1-0.4-0.2-0.5-0.3c-0.4-0.2-0.8-0.4-0.8-0.8c0-0.8,0.6-0.3,0.9-0.4c0.6-0.2,0.6-0.7,0.5-1.3c-0.5-1.8-0.2-3.7-0.9-5.5
				c-0.1-0.4,0.1-0.9,0.4-1.1c0.4-0.2,0.6,0.3,0.8,0.5c0.5,0.6,1,1,1.4-0.1c0.1-0.3,0.5-0.4,0.6-0.7c0.7-1.4,2.8-1.1,3.2-2.8
				c0.1-0.2,0.8-0.2,0.8,0.1c-0.1,0.9,0.8,1.1,0.8,1.8c0,0.5,0.1,0.8,0.6,0.6c0.5-0.1,0.9-0.4,0.7-1c-1.3-2.7-1-6-2.8-8.6
				c-0.3-0.5-0.5-1.1-0.1-1.7c0.8,0.4,0.2,1.5,1.2,1.7c0.8,0.1,1.6,0.4,1.9,1.4c0.1,0.4,0.5,0.4,0.8,0.3c0.4-0.2,0.3-0.7,0-0.9
				c-0.8-0.4-0.6-1.2-1-1.8c-0.4-0.6,0-1.4-0.6-1.8c-0.7-0.4-1-1-1.1-1.7c-0.1-0.5-0.4-0.7-0.8-0.7c-0.5-0.1-0.9,0.1-1,0.6
				c-0.2,1.2-0.8,1.2-1.8,0.8c-0.5-0.2-1.1-0.2-1.7-0.1c-0.8,0-1.4-0.1-1.8-1c-0.5-1.1-1.6-1.5-2.7-1c-1.7,0.7-3.6,0.8-4.8,2.4
				c-0.3,0.4-0.9,0.5-1.4,0.5c-2.1,0.1-4.1,0.4-5.9,1.3c-0.4,0.2-0.7,0.1-1.1-0.1c-1.6-1-3.9-0.9-5.3,0.2c-0.1,0.1-0.3,0.3-0.2,0.3
				c0.6,1.3-0.3,2.4-0.3,3.7c0,0.6,0.1,1.2,0.5,1.5c1.2,0.8,1.4,1.1,1,2.5c-0.2,0.5-0.3,1.6,0,1.6c1.9,0.1,2.6,1.3,3.2,2.9
				c1.8-0.2,1.4,1,1.4,2.1c0,0.9,0.7,1.5,1.4,1.9c0.3,0.2,0.7,0.3,0.8,0.6c0.3,1.2,0.8,1.1,1.8,0.5c1-0.6,1.9,0,1.8,1.2
				c-0.1,0.9,0.4,1.6,1,2.2c0.3,0.3,0.6,0.3,0.6-0.1c0-1.5,1.2-0.9,1.8-0.9c0.8,0,0.6,0.9,0.6,1.5c0.3,3,0.3,3,3,3.2
				C308,202.9,308.9,201.6,308.9,200.6z M272.3,400.4c0.5,1.4,0.7,2.6,1.3,3.4c0.8,1,0.9,2.1,0.7,3.1c-0.1,1.1,0.2,1.8,1.2,2
				c1,0.2,2-0.2,2.1-1.3c0.1-1,0.7-0.8,1.2-0.8c0.7,0,0.8,0.5,0.7,1.1c0,0.3-0.3,0.6,0,0.9c0.9,1.3,3.7,1.3,4.3-0.3
				c0.6-1.4,1.5-2.2,2.7-2.9c0.8-0.5,1.2-1.2,0.6-2c-0.5-0.6-0.3-1.1,0-1.5c0.4-0.6,0.6-1.3,0.6-2c-0.1-2.3,2.2-3.7,3.8-3.6
				c0.6,0.1,0.9,0.3,1.3,0.8c0.9,1.2,2.1,2.2,3.8,2.3c0.5,0,0.8-0.2,1-0.6c0.2-0.5,0-0.9-0.4-1c-0.7-0.2-0.9-0.8-1.1-1.4
				c-0.7-1.4-1.9-2.1-3.4-2.2c-0.5,0-1.1-0.1-1.2-0.5c-0.1-1.1-1-1.3-1.7-1.5c-2-0.6-3.5-1.9-5-3.2c-0.4-0.4-0.9-1-0.9-1.5
				c0-1.6-1.1-2-2.2-2.6c-0.5-0.3-1-0.4-0.9-1.1c0.2-1.5-0.7-1.2-1.7-1.1c-1,0.1-0.5-1.7-1.7-1.5c-0.1,0-0.2,0.1-0.3,0.2
				c-0.5,0.7-1.4,1-1.5,1.9c0,0.3,0,0.6-0.5,0.6c-2.2-0.2-4,0.5-4.8,2.8c0,0.1-0.1,0.1-0.2,0.2c-1.6,1-1.6,2.9-2.1,4.4
				c-0.2,0.4,0,0.9,0.5,0.9c1.1,0.1,0.9,0.7,0.7,1.4c-0.1,0.5-0.3,1.1-0.2,1.5c0.4,1.1,0,1.8-0.7,2.6c-0.5,0.6-1.2,1.4-0.6,2
				c1,1.2,0.6,1.9-0.4,2.5c-0.3,0.2-0.6,0.3-0.5,0.7c0.1,0.4,0.4,0.4,0.7,0.4c1.5-0.2,1.7,0.9,1.8,1.9c0.1,0.6-0.1,1.2-0.1,1.8
				c0,0.7,0.3,1.2,1,1.4c0.5,0.1,0.9,0.7,1.4,0.3c1.2-0.8,2-4,1.2-5.2C272.2,402.8,272.2,401.9,272.3,400.4z M310.9,373
				c0.6,1.2,0.5,2.3,0,3.3c-1.2,2.4-0.1,5.2-1.3,7.5c0,0.1,0,0.2,0.1,0.3c0.9,2.2,0.6,4.4,0.3,6.7c-0.2,1-0.7,0.9-1.4,0.7
				c-0.5-0.2-0.7-0.7-1-1.1c-0.2-0.2-0.2-0.6-0.6-0.5c-0.4,0.1-0.6,0.3-0.6,0.7c0.1,0.7-0.3,1.1-0.7,1.5c-1.2,0.9-1.9,2.4-3.1,3.4
				c-0.4,0.3-0.6,0.6-1.1,0.7c-0.6,0-1.6-0.3-1.6,0.7c0,1.1-0.1,2.6,1,3.2c1.5,0.8,3.3,0.9,5,0.3c1.3-0.4,1.7-1.2,1.3-2.5
				c-0.3-0.9,0.9-2.1,2.2-2.1c1,0,1.2,1.1,1,1.9c-0.6,3-0.5,3.5,3.3,3.2c0.2,0,0.3,0,0.5,0c0.8,0,1.4-0.2,1.9-1.2
				c1.2-2.7,1.6-2.7,4-1.9c0.9,0.3,0.9,0.7,0.5,1.4c-1,1.7-1,1.7,1,2c0.3,0,0.5,0.1,0.8,0.1c1.9,0,2.6-0.8,2.5-2.6
				c0-0.7-0.4-1-0.7-1.5c-0.3-0.6-0.9-1.3-0.6-1.7c0.9-1,0-1.5-0.3-2.3c-0.3-0.6-0.6-1.1-0.6-1.7c0.1-1.9-0.9-3.5-1.2-5.3
				c0.2-0.2,0.8,0.3,0.9-0.4c-0.3-0.3-1.1,0.1-1-0.6c0.1-0.5,0.7-0.3,1-0.4c0.5-0.1,1.3-0.4,0.8-0.9c-0.7-0.8-0.8-1.9-1.3-2.7
				c-1.2-2-0.8-3,1.4-3.4c0.2,0,0.4-0.1,0.4-0.5c-1.2,0.3-0.9-0.5-1-1.2c-0.1-0.6,0.5-1.4-0.2-1.7c-1.5-0.7-0.9-1.9-0.6-2.7
				c0.3-0.9,0.3-1.8,0.7-2.7c0.4-0.8,0.2-1.6-0.9-1.9c-0.7-0.1-1.3-0.5-1.9-0.9c-0.9-0.6-2.1-0.6-3,0.2c-0.7,0.6-0.9,1.4-0.4,2.3
				c0.4,0.6,0.1,1.2-0.1,1.8c-0.3,0.7-0.8,1.5-0.6,2.2c0.2,1.1-0.5,1.7-0.9,2.6c-0.5-0.4-0.3-0.7-0.2-1.1c0.1-0.9-0.1-1.8-0.6-2.4
				c-0.3-0.3-1.1-0.9-1.2,0.1C312.6,372.9,311.9,373.1,310.9,373z M328.4,398.1c1.3,0.7,1.9,1.1,2.4-0.5c0.2-0.8,0.4-2.3,1.4-2.3
				c0.8,0,0.3,1.4,0.6,2.1c0.5,1.2,0.7,2.5-0.6,3.4c1,1.1,2.2,1.3,3.4,1.4c0.6,0.1,1.1,0.3,1.4,0.8c0.3,0.7,0.7,1.8,1.6,1
				c0.8-0.8,1.7,0.3,2.4-0.4c0.1-0.1,0.2-0.4,0.1-0.5c-0.5-1.5,0.3-1.5,1.4-1.4c1.5,0.1,1.9-0.3,1.6-1.8c-0.1-0.2-0.3-0.5-0.1-0.7
				c0.8-1.7,0.1-3.4-0.4-5c-0.6-1.8-1.2-2-2.9-1.1c0.2,0.2,0.6,0.3,0.6,0.5c-0.2,1.3-0.4,2.6-0.7,3.9c-0.1,0.4-0.6,0.5-0.9,0.2
				c-0.5-0.7-1.3-0.7-2-1c-0.5-0.2-0.8-0.5-0.6-1c0.4-1-0.1-1.9-0.3-2.9c-0.4-1.8-0.2-3.7-0.3-5.5c0-0.6,0.3-0.8,0.7-0.8
				c0.7,0,0.6,0.4,0.4,0.9c-0.2,0.4-0.1,0.6,0.1,1c0.6,1.3,1,2.5,0.3,3.9c-0.2,0.5,0.2,0.9,0.6,1c0.4,0.2,1,0.3,1.2-0.2
				c0.3-0.9,0.3-1.8,0.4-2.7c0.2-1.8-0.8-3.6,0.2-5.4c0.1-0.2,0.1-0.5-0.1-0.5c-1.1-0.5-1-1.5-1.2-2.3c-0.2-1.1-1-1.4-1.8-1.2
				c-1.1,0.2-1.7,0.1-1.6-1.2c0-0.3-0.2-0.7-0.7-0.7c-0.4,0-0.8,0.3-0.9,0.7c-0.1,0.4,0.3,1.2-0.5,1.2c-0.7,0-0.9-0.6-1-1.2
				c-0.2-0.6-0.4-1.1-0.5-1.7c-0.4-1.5-0.2-3.1-1.1-4.4c-0.7-1.2,0.4-2.2,0.1-3.3c-0.1-0.3,0.6,0.1,0.7-0.3
				c-1.1-0.1-1.7-0.8-2.1-1.7c-0.4-1-1-1.2-2-0.9c0.7,0.5,0.7,1.1,0.4,1.7c-1,1.8-0.6,3.8-0.8,5.7c0,0.4-0.1,0.8,0.4,1
				c0.3,0.1,0.7,0.2,0.3,0.6c-0.2,0.2-0.6,0.3-0.8,0c-0.5-0.5-1-0.8-1.6-0.2c-0.7,0.7,0.1,1.2,0.3,1.8c0.1,0.5,0.6,0.7,1.2,0.9
				c1,0.3,1.1,1.6,0.2,2.1c-1,0.5-0.8,0.9-0.2,1.5c1,1.2,0.9,2-0.5,2.8c0.8,0.7,1.3,1.5-0.2,2.3c1.3,0.2,2.3,0.7,1.7,1.8
				c-0.6,1.2-0.3,2.1,0,3.2c0.4,1.1,0.9,2.2,1.4,3.3C329.6,396.7,330.2,397.7,328.4,398.1z M249.6,505.2c1.3,0.3,2.1,1.4,3.3,2
				c2.5,1.2,4.6,1.3,6.9-0.2c0.3-0.2,0.7-0.3,0.8,0c0.6,1.1,1.7,1,2.6,1.2c1.2,0.3,3.2-0.4,3.7-1.5c0.7-1.4-0.4-2-1.4-2.6
				c-0.3-0.1-0.4-0.3-0.4-0.6c0.1-0.4,0.4-0.4,0.7-0.4c0.4,0,0.8,0.1,1.2,0.3c1.1,0.4,1.9,0.3,2.5-0.7c0.2-0.4,0.5-1,0.9-0.8
				c1.4,0.5,2.3-0.5,3.4-0.8c0.8-0.2,1.3-0.8,0.8-1.8c-0.5-1,0.2-1.1,0.9-1c0.5,0.1,1.1,0.2,1.4,0.6c0.9,1.3,2,0.9,3.2,0.5
				c1.1-0.4,1.6-1.9,0.7-2.7c-0.6-0.5-0.8-1.2-1.3-1.7c-0.8-1-0.1-1.2,0.6-1.4c0.3-0.1,0.7,0,1.1-0.1c1-0.1,1.3-0.6,1.3-1.6
				c-0.1-0.8,0-1.6-1.2-1.5c-0.7,0-1.2-0.2-1.5-1c-0.4-1.1-1.4-1.3-2.4-0.9c-1.4,0.5-2.5,1.6-3.4,2.7c-0.2,0.2-0.3,0.4-0.6,0.4
				c-0.2-0.1-0.3-0.2-0.3-0.5c0.2-1.1-0.5-1-1.2-0.9c-0.7,0.1-1.3,0.3-1.9,0.6c-1.9,0.9-4.1,0.9-5.9,2.4c-1.3,1.1-3,1.1-4.7,0.7
				c-2-0.5-3.7,0.3-5.3,1.4c-0.5,0.4-0.5,0.7-0.3,1.1c1,1.7,2.1,3.2,4.4,2.6c0.5-0.1,1-0.1,1.5-0.2c0.5-0.1,0.9-0.2,0.8,0.6
				c-0.1,0.3,0.2,0.6,0.6,0.5c0.2-0.1,0.5-0.5,0.4-0.5c-0.9-1.3,0.4-1.1,0.9-1.4c1.1-0.6,2.4-0.9,3.2-1.9c0.4-0.5,0.9-0.6,1.4,0
				c0.4,0.5,0.6,1,0,1.6c-0.3,0.3-0.6,0.5-0.9,0.8c-1,1-2.7,1.2-2.8,3c0,0.2-0.4,0.6-0.6,0.7c-2,0.5-3.7,1.6-5.7,2.1
				c-1.1,0.3-2.2,0.4-3.5,0C252.3,503.8,251.3,506,249.6,505.2z M317.2,276.5c0.4-0.2,0.7-0.5,0.3-0.8c-0.9-0.7-0.7-1.7-0.9-2.5
				c-0.2-1,0.2-1.6,1.3-1.6c0.4,0,0.8,0,1.2-0.1c1.1-0.2,1.4-1.1,0.6-1.9c-2.4-2.4-3.7-5.7-6.4-7.9c-1.1-0.9-1.2-2.5-2.5-3.2
				c-0.5-0.3-1.2-0.6-1.3-1c-0.4-2.6-3.1-3.2-4.6-4.8c-1.6-1.7-3.7-3.3-6.1-4.1c-1.4-0.5-2.6-1.4-4.1-1.6c-0.3-0.1-0.6-0.3-1,0
				c-0.8,0.8-1.4,3.1-0.8,4c0.4,0.7,0.8,1.4,1.2,2.1c0.9,1.5,2.3,2.2,3.5,3.2c1.1,0.9,1.1,2.6,2.6,3.1c0.7,0.2,0.9,1,1.1,1.6
				c1.3,2.7,1.3,2.7,4.2,2.3c0.5-0.1,1.1-0.1,1.2,0.6c0.2,1.7,1.5,2.7,2.2,4.1c0.9,1.9,1.7,3.9,2.6,5.8c0.5,1.1,1,1.5,2.1,1.4
				c1.1,0,2.4-0.6,3,1C316.9,276.4,317.1,276.4,317.2,276.5z M338.6,276c-0.6,0.3-1.4-0.8-1.9,0.3c-0.2,0.4,0.4,1.2-0.3,1.3
				c-0.6,0.1-0.6-0.9-1.1-1.1c-0.4-0.2-0.2-0.6-0.3-0.8c-0.2-0.4-0.7-0.5-0.9-0.2c-0.3,0.6-1.3,0.1-1.3,0.9c0,0.4,0.3,1.1,0.9,0.8
				c0.9-0.4,0.7,0.1,0.7,0.6c0,1.5,0.9,2.2,2.1,1.5c0.8-0.4,1-0.1,1.1,0.6c0.1,0.6,0.3,1.3,0.1,1.8c-0.4,1.7-0.8,3.3-0.5,5.1
				c0.1,0.6,1,1.5-0.1,2.2c0.4,0.2,0.3,0.9,0.9,0.9c0.3,0,0.8-0.2,0.7-0.4c-0.3-1,0.7-1.2,0.9-1.9c0.2-0.7,1-1.5-0.5-1.6
				c-0.5-0.1-0.6-0.5-0.4-0.8c0.3-0.6,0.1-1.1,0.1-1.6c0-0.3-0.1-0.8,0.4-0.9c0.4-0.1,0.7,0.1,0.9,0.4c0.6,0.7,0.1,1.2-0.4,1.7
				c0.5,0.2,1.1-0.2,1.1,0.3c-0.1,1.2,1.3,1.9,1.1,3.1c-0.1,0.5,0.1,1,0.2,1.5c0.5,2.4,1.5,4.7,0.2,7.2c-0.7,1.4,0.6,2.6,1.7,3.4
				c1.2,1,2.4,0.1,3-0.8c0.5-0.7,2-0.6,1.8-1.8c-0.1-0.8,0.3-1,0.8-1.3c0.8-0.5,1.7-1,2.5-1.4c0.5-0.3,1-0.8,0.9-1.3
				c-0.5-1.9-0.4-4-1.6-5.6c-1.3-1.9-2.4-3.8-3.6-5.7c-1.8-2.9-4.3-5.1-6.4-7.6c-0.3-0.4-0.9-0.6-1.2-1c-1.3-2.4-3.4-4-5.3-5.9
				c-0.3-0.3-0.8-0.6-1.2-0.2c-0.4,0.3-0.3,0.8-0.1,1.1c0.7,1.2,0.7,2.7,1.8,3.7c0.6,0.5,0.2,1,0,1.5C336.9,273.2,338,274,338.6,276
				z M240.3,384.6c0.7,0.8,0.4,1.2-0.3,1.9c-0.9,0.8-2,1.6-2.4,2.9c-0.3,0.9-1.3,1.3-2.1,1.6c-0.6,0.2-0.9-0.5-1-0.7
				c-0.2-1.1,0.4-2.1,0.9-2.8c1.2-1.6,2.3-3.4,3.4-5.1c1.5-2,3-4,4.4-6.1c0.5-0.8,1.2-1.4,1.2-2.4c0-0.4,0.7-0.8,0.2-1.2
				c-0.5-0.4-1-0.5-1.6-0.3c-0.9,0.4-1.8,0.8-2.2,1.8c-0.1,0.4-0.4,0.8-0.7,1c-1.8,1.4-2.7,3.5-4.2,5.2c-0.5,0.6-1.7,0.8-1.1,2
				c0,0.1-0.2,0.3-0.4,0.4c-1.2,0.6-1.7,1.7-2.3,2.7c-0.5,0.9-1.3,1.4-2.1,1c-0.8-0.4-0.8-1.3-0.3-2.2c1-1.7,1.8-3.5,3-5.2
				c1.5-2.2,3.3-4,4.7-6.2c1.3-2,2.9-3.8,3.7-6.1c0.2-0.5,0.1-0.8-0.2-1.1c-0.4-0.4-0.9-0.3-1.3-0.1c-0.7,0.5-1.4,1-2,1.9
				c-1.3,2-2.8,3.8-4.3,5.7c-0.5,0.7-1.7,0.9-1.2,2.1c0.1,0.3-0.3,0.5-0.6,0.6c-1,0.2-1.5,1-1.7,1.8c-0.3,1-1.1,1.7-1.7,2.5
				c-0.7,0.9-1.3,1.2-2.3,0.5c-0.9-0.7-1.4-0.3-1.3,0.7c0.3,2.5,0.9,4.9,3.2,6.4c0.5,0.3,0.9,0.5,0.8,1.1c-0.2,0.9-0.3,0.9,0.8,0.9
				c0.3,0,0.6,0.2,0.8,0.4c1.4,1,3,1.8,4.4,2.8c2.2,1.5,5.1,2.1,8,1.7c0.7-0.1,1.2-0.4,1.4-1.4c0.1-0.8,0.4-1.8,1.9-1.5
				c-1.3-1.3-1.6-1.3-2.5-0.6c-0.6,0.4,0.3,0.7-0.2,1.2c-0.8,0.7-1.6,0.9-2.5,0.5c-0.7-0.3-0.7-2-0.1-2.8c1-1.3,2-2.6,3.1-3.8
				c1.2-1.4,2.2-2.9,2.8-4.6c0.5-1.2,1.7-2.1,1.3-3.6c-0.2-0.5-0.3-0.9-0.9-0.5c-2,1.4-3.3,3.4-4.7,5.3
				C241.6,383.9,241.3,384.4,240.3,384.6z M301.9,227.5c-0.1-1,0-1.9-0.8-2.1c-1-0.2-1,0.9-1.2,1.5c-0.3,1-0.9,1.2-1.7,0.9
				c-0.5-0.2-0.9-0.2-1.3,0c-1.2,0.5-2.5-0.8-3.7,0.1c0,0-0.2-0.2-0.2-0.3c-0.1-1-0.9-1-1.3-0.5c-0.5,0.7-1.5,1.6-0.8,2.4
				c0.9,1,2.1,1.7,3,2.6c1.1,1.1,2.5,1.6,3.8,2.2c2.2,1.1,3.9,3.1,6.3,3.8c1.6,0.4,2.5,1.8,4.1,2.3c0.9,0.3,2.1,0,2.4,1.4
				c0.1,0.4,1.2,0.2,1.3-0.3c0.1-0.7,0.6-1.4,0.4-2.2c-0.4-1.7-0.9-3.3-0.9-5c0-1-0.3-1.7-1.6-1c-0.8,0.5-1.3-0.2-1.3-0.9
				c0-0.2,0.4-0.5,0.7-0.7c0.6-0.4,0.6-0.9,0.2-1.4c-0.4-0.6-0.6,0-0.9,0.1c-0.8,0.4-0.8-0.3-0.6-0.7c0.7-1.7-0.6-1.7-1.5-1.7
				c-1.5,0.1-2-0.2-1.3-1.7c0.3-0.7-0.1-1.3-0.8-1.6c-0.9-0.4-0.9,0.5-1.2,0.8C302.6,226.1,302.4,226.7,301.9,227.5z M277.9,252
				c1.2,1,1.2,1.4,0.1,2.8c-0.5,0.6-1.6,1.1-1.4,1.8c0.2,0.9,1.5,0.7,2.3,0.9c1.7,0.4,3.1,1.6,4.9,1.6c0.7,0,1.6,0.1,2-0.8
				c1.3-3.2,3.9-5.7,5.7-8.6c0.7-1.2,2.1-2.3,1.6-3.8c-0.6-1.6-2.3-2.6-4-2.8c-1.8-0.2-3.5,0.2-4.4,2.1c1,0.6,1.7-0.6,2.7-0.2
				c-1.2,0-1.7,1.9-3.4,1c1,0.7,1,1.1,0.2,1.8c-0.9,0.7-1.7,1.5-2.6,2.3C280.5,251,280.4,253.6,277.9,252z M314.9,352.3
				c-1.4-0.2-2.4-0.8-2.9-2.1c-0.2-0.5-4-0.2-4.3,0.2c-0.1,0.1-0.1,0.2-0.1,0.3c0.1,3-2.8,5.1-2.5,8.2c0,0.1,0,0.3-0.1,0.3
				c-1.1,0.3-1.5,0.9-1.4,2.1c0.1,1.1-0.4,2.1-0.4,3.2c0,0.9,0.3,1.9-0.4,2.8c-0.8,1.1,0.6,1.3,0.9,2c0.2,0.6,0.9,0.2,1.2,0
				c0.7-0.5,0.3-1-0.1-1.6c-0.3-0.4-0.4-1,0.3-1.3c0.7-0.4,1.7-1.6,2.2-1c1.4,1.6,2.7,0.6,4.1,0.3c0.2,0,0.6-0.1,0.4-0.3
				c-0.6-0.8,0.4-1.4,0.3-1.7c-0.6-1.1,1.2-1.4,0.7-2.1c-0.9-1.2-0.1-2.3,0.4-2.9c0.9-1,2.4-1.5,0.7-3c0.9-1.3,0-2.1-1-2.8
				C313.3,352.3,314,352.2,314.9,352.3z M315.3,257.8c-0.7-0.3-1.7,0.1-2-1c-0.1-0.4-0.5-0.9-1-0.6c-0.8,0.5,0.1,0.7,0.2,1
				c1.1,1.9,2.6,3.4,4.2,4.9c0.2,0.2,0.6,0.4,0.9,0.5c0.3,0.1,0.8,0,0.9-0.4c0.2-0.3-0.2-0.5-0.4-0.7c-0.8-0.7-1.1-1.7-1.7-2.6
				c0.7,0,1,0.4,1.3,0.7c0.4,0.6,0.9,1,1.5,0.6c0.7-0.4,0.8-1,0.4-1.7c-0.3-0.5-0.4-1.1,0.4-1.4c0.8-0.3,0.8-0.3,0.3-1
				c-0.1-0.1-0.1-0.3-0.1-0.4c0.5-1.1-0.2-1.8-0.7-2.8c-1.6-2.7-3.8-4.6-6.5-6c-1-0.5-1.8-0.9-1.9-2.1c-0.1-1.1-1.1-1.3-1.8-1.2
				c-0.8,0.1-1.3,0.9-1.2,1.7c0.1,0.9,0.3,1.9,1.4,2.1c0.3,0.1,0.6,0.3,0.5,0.7c-0.1,0.4-0.4,0.1-0.6,0.1c-2.4,0.2-4.3-0.7-5.8-2.5
				c-0.5-0.6-1.3-0.7-1.9-1c-0.2-0.1-0.4,0-0.5,0.2c-0.1,0.2,0,0.5,0.2,0.5c1,0.2,1.4,1.3,2.2,1.6c2.5,1,4.1,3.2,6.2,4.7
				c1,0.7,1.4,2.2,2.4,2.7C313.7,255.5,314.3,256.8,315.3,257.8z M313.4,415.5c-0.3-0.6-0.6-0.5-1-0.6c-0.8-0.1-1.6-0.1-2.4-0.3
				c-0.4-0.1-1.1-0.3-1.1-0.9c0-0.5,0.6-0.6,1.1-0.6c3,0.1,6.1,0.1,9.1,0.2c0.9,0,1.5,0.9,1.1,1.4c-0.8,0.8-0.6,1.7-1,2.5
				c-0.3,0.5-0.4,1-1,0.9c-2.2-0.1-4.4,0.2-6.6-0.5c-1.1-0.3-2.4-0.3-3.6-0.3c-1,0-0.7,0.8-0.8,1.4c0,0.2-0.1,0.4-0.2,0.6
				c0,0,0.2,0,0.2,0.1c2,0.9,2.5,2.5,1.6,4.5c-0.3,0.8-0.5,2,0.6,2.1c2.4,0.2,4.9,0.7,7.4,0.5c0.5,0,1.2-0.2,1.2-0.8
				c0.2-2.1,1.9-3.8,2-5.9c0.1-2.6,1.3-4.4,2.9-6.2c1-1.1,1-1.4-0.5-1.6c-4-0.6-8.1-0.4-12.1-0.2c-1,0-2.1,0.8-2.8,1.7
				c-0.4,0.5-0.5,1,0.4,1.5C309.5,416.1,311.4,415.9,313.4,415.5z M344.4,612.5c0.4,1.9,1.7,2.4,3.1,2.8c1.6,0.4,2.8,2,4.7,1.7
				c2.4-0.3,4.6-0.7,6.4-2.7c1-1.1,2.8-1.7,2-3.8c-2.9,2-6.1,3-9.6,3.3c-0.7,0-1.5,0.3-1.7-0.4c-0.2-0.8,0.8-1,1.4-1.4
				c0.4-0.2,0.7-0.2,1.1,0.1c0.3,0.2,0.8,0.4,0.9-0.3c0.1-0.6,0.6-0.6,1-0.8c2-1.3,4.4-2.1,5.9-4.2c0.2-0.3,0.7-0.4,0.5-0.9
				c-0.2-0.4-0.5-0.5-0.9-0.5c-1.6,0.1-3.5-0.1-4.7,1.1c-1.7,1.6-3.8,2.3-5.7,3.4c-0.9,0.5-2.1,1-2.6,1.9
				C345.8,613,345.4,613.2,344.4,612.5z M357.2,574.9c0.5,0.4,1.5-0.2,1.3,0.9c-0.1,1-0.3,2-0.3,3c-0.1,1.9-0.8,3.8-0.3,5.9
				c0.4,1.4-0.2,3.1-0.3,4.6c-0.1,1.4,0,2.9-1.1,4c-0.1,0.1,0,0.3,0.1,0.4c1.1,1,0.2,1.8-0.4,2.3c-1,0.9-1.2,2-1.5,3.2
				c-0.1,0.5-0.5,1.2,0.1,1.5c0.6,0.3,1.3-0.3,1.7-0.8c0.3-0.4,0.2-0.9,0.9-1.1c0.9-0.2,1.8-0.6,1.7-1.9c0-0.3,0.3-1.1,0.9-1.2
				c0.7-0.1,0.3-0.4,0.4-0.8c0.2-1.6,0-3.1,0.1-4.7c0.2-1.8,0.3-3.6,0.4-5.4c0.2-2.7-0.1-5.5-0.3-8.2c-0.1-1.2-0.1-2.4,0.3-3.6
				c0.2-0.5,0.3-1.3-0.5-1.6c-0.7-0.2-0.9,0.5-1.2,1c-0.2,0.2-0.5,0.4-0.4,0.8C359.1,574.7,358.5,575.1,357.2,574.9z M282.4,319.5
				c0.4-0.1,0.6,0,0.8,0.2c0.5,0.7,1.2,0.9,1.9,0.3c0.8-0.7,2.3-1.1,2.1-2.3c-0.3-1.3,0.4-1.7,1.1-2.4c1-0.9,1.8-1.8,0.7-3.3
				c-0.4-0.5-0.4-1.1,0.2-1.7c0.6-0.5,1-1.5,0.9-2.3c-0.1-0.7-1.1-0.1-1.6-0.4c-0.3-0.1-0.7-0.3-1-0.4c-0.3-0.1-0.7-0.1-0.8,0.2
				c-0.6,1.4-1.8,2.6-1.5,4.3c0.1,0.5,0.1,1.1-0.6,1.2c-0.3,0.1-0.5,0.3-0.6,0.6c-0.2,1.7-1.6,2.9-2.2,4.5c-0.3,0.7-0.4,1.8-1.2,2.4
				c-1.2,0.9-1.9,2-1.7,3.6c0.1,0.5,0,1,0.6,1.2c0.6,0.2,1.1-0.1,1.5-0.5c1.2-1.4,2.4-2.9,1.3-4.9
				C282.3,319.9,282.4,319.7,282.4,319.5z M307.9,378.7c-0.3-0.7-2.4,0.2-1.4-1.6c0,0-0.3-0.3-0.5-0.3c-0.7-0.1-1.3-0.2-2-0.1
				c-2,0.3-3.1,0-4-1.8c-0.4-0.7-0.7-1.3-1.5-1.2c-1,0.2-0.7,1.1-0.8,1.8c-0.1,0.3,0.1,0.7,0,1.1c-0.1,1.5,0.5,3.2-0.1,4.6
				c-0.6,1.4,0.4,1.6,1.1,2.1c1,0.6,2.4,0.8,3,1.6c0.9,1.3,1.7,0.6,2.5,0.3c0.8-0.3,0.7-0.8,0-1.2c-1-0.5-1.8-1.3-2.8-2
				c0.7-0.3,1.2-0.3,1.9-0.1c1.1,0.4,2.6,1.8,2.6-0.9c0-0.1,0.3-0.2,0.5-0.3c0.7-0.4,0.6-0.9,0-1.3c-0.1-0.1,0-0.3-0.1-0.5
				C307,378.9,307.5,379.1,307.9,378.7z M311.7,294.7c0.3,0.5,0.4,0.7,0.5,0.9c0.1,0.2,0,0.5,0.1,0.7c0.3,0.8,1.2,1,1.7,0.5
				c0.3-0.3,0.8-4,0.5-4.3c-0.7-0.8-1.2-1.8-1.8-2.6c-0.6-0.8-1.1-0.9-1.7-0.6c-0.6,0.3-1,0.1-1.5-0.1c-1.6-0.6-3,0.6-3.1,2.3
				c-0.1,1,0.6,2.1,0,3c-0.5,0.6,0.3,1.6-0.7,2c0.9,0.2,1.6,0.9,2.6,0.7c0.8-0.1,1.4,0.4,2,0.6c0.9,0.3,1.4,0.1,1.2-1
				C311.5,296.2,311.4,295.6,311.7,294.7z M303.5,280.2c0.8,1.1,1.4-0.2,2.2,0.3c0.9,0.6,1.9,0.8,3.1,0.8c0.9,0,1.7,0.4,1.8,1.7
				c0.1,1.1,0.9,1.9,1.8,2.6c0.9,0.7,1.9,0.3,2.2-0.8c0.2-0.7,0.4-1.3,0.2-2.1c-0.4-1.5,0.6-2.5,2.1-2c0.6,0.2,1.2,0.4,1.8,0.6
				c0.7,0.2,1-0.2,1.1-0.7c0.2-0.6-0.4-0.6-0.7-0.8c-0.7-0.4-1.6,0.1-2.4-0.5c-0.9-0.8-2-0.8-3.2-0.7c-1.1,0.2-2.2,0.3-3.2-0.7
				c-0.9-0.9-3.5-0.4-4.1,0.7C305.6,279.6,304.7,280,303.5,280.2z M226.7,567.5c-0.5-0.5-1.1-0.8-0.9-1.1c1-1.1,0-2.6,1-3.7
				c0.3-0.3,0-0.8-0.3-1c-0.4-0.3-0.7,0-0.9,0.3c-0.5,0.8-1.2,1.3-1.4,2.3c-0.4,1.5-1.1,3.1-1.9,4.5c-1.3,2.3-2.9,4.4-3.4,7.1
				c-0.3,1.5-1.2,2.8-1.3,4.5c-0.1,1.4-1,2.5-0.4,4.2c0.5,1.6,0.5,1.9,2.1,1c-1.3-1.3-0.3-2.9-0.5-4.3c-0.4-2.1,1.4-3.6,2.4-5.1
				c1.7-2.5,2.5-5.5,4.1-8.1C225.6,567.3,225.9,567.6,226.7,567.5z M282.4,426.4c0-0.3,0-0.4,0-0.5c-1.8-2.3-4.5-2.9-7.1-3.6
				c-1-0.3-2.3-0.3-3.2-0.8c-2.5-1.4-5.1-1-7.7-0.9c-0.5,0-1.2,0.4-0.9,1c0.3,0.7,0.5,1.4,0.9,2.1c0.6,1.1,1.6,0.2,2.1,0.7
				c1.4,1.2,2.8,0.7,4.3,0.2c0.7-0.2,1.8-0.8,2.2-0.1c0.8,1.1,1.6,0.9,2.6,0.7C278,424.5,280.1,425.6,282.4,426.4z M280.1,350.4
				c-0.5,0.1-0.9,0-1.2,0.7c-0.3,0.8-0.9,1.6-1.4,2.3c-0.2,0.4-0.6,0.8-0.4,1.3c0.1,0.3,0.5,0.4,0.8,0.3c0.6-0.1,1-0.4,0.9-1.1
				c-0.1-0.7,0.2-0.8,0.8-0.8c0.9,0,2.8,1.8,2.8,2.7c0.1,1.4,1.2,2,2.4,1.3c0.7-0.4,1.7-3.1,1.3-3.6c-0.7-0.9-0.4-1.4,0.3-1.9
				c0.5-0.3,0.6-0.8,0.1-1.1c-1.8-0.9-3.6-1.8-5.5-2.5c-0.6-0.2-1.4,0-1.4,0.8c-0.1,0.6,0.5,0.9,1.2,1c0.4,0,1.1,0,0.9,0.6
				c-0.1,0.5-0.7,0.3-1.1,0.2C280.5,350.5,280.3,350.4,280.1,350.4z M278.7,444.6c1.1,1.5,3.1,0.4,4.3,1.4c0.1,0.1,0.6-0.1,0.8-0.3
				c1.3-1.1,2.7-1.6,4.4-1.7c1.4-0.1,1.9-1.1,1.4-2.2c-0.2-0.5-0.5-0.6-1-0.6c-1.8,0-2.8-1.7-4.5-2c-0.3,0-0.1-0.6,0.2-0.7
				c0.7-0.2,0.4-0.6,0.1-0.9c-1-1.1-1.7-0.4-2.7,0.3c-1.1,0.9,0,1.4,0.2,2c0.2,0.5,1,0,1.3,0.4C281.9,442,279.5,442.4,278.7,444.6z
				 M283.5,433.2c-0.9-1.5-3.8-2-4.7-0.6c-1.3,1.9-3.3,3-4.8,4.6c-1.3,1.3-2.9,2.3-2.7,4.5c0.1,1.4,0.8,1.9,2,1.4
				c0.6-0.2,1.1-0.4,1.8-0.2c1.2,0.4,1.2-1.1,1.8-1.7c0.4-0.4,0-0.6-0.4-0.8c-1.3-0.7-1.4-1.2-0.2-2c0.8-0.5,1.9-0.8,2.2-1.5
				C279.7,434.7,281.7,434.1,283.5,433.2z M330.4,349.1c0.9,0.7,1.9,1.2,2.7,2c0.8,0.8,3.6,0.7,3.8-0.2c0.3-1.4,1.6-2.1,2.1-3.3
				c0.4-0.8,0.9-1.8,0.1-2.7c-1-1-4.4-1-5.3,0c-0.5,0.5-1.1,0.9-2,0.6C332.8,346.7,332.5,347.2,330.4,349.1z M280.1,246.5
				c0.7,0.1,1.3-0.1,1.8-0.7c1.5-1.6,2.3-3.8,3.9-5.4c0.4-0.4,0-1-0.5-1.1c-0.7-0.1-1.9-0.8-1.9,0.8c0,0.5-0.4,0.6-0.8,0.7
				c-0.9,0.3-1.6,0-2.4-0.3c-0.4-0.2-1.1-0.5-1.2,0c-0.4,1.2-1.4,1.5-2.2,2c-1.1,0.8-1.4,2.6-3.2,2.5c-0.3,0-0.5,0.3-0.4,0.7
				c0.1,0.4,0.5,0.4,0.8,0.4C276,245.9,278,246,280.1,246.5z M350.5,321.9c0,0.1,0.1-0.2,0-0.3c-0.9-0.9-1.2-2.1-1.6-3.3
				c-0.1-0.5-0.7-0.1-0.8,0.2c-0.4,0.9-0.9,1.8-0.6,2.8c0.1,0.3,0,0.8,0.5,0.9c0.4,0.1,0.6-0.1,0.7-0.4c0.1-0.2,0.3-0.5,0.6-0.3
				c0.2,0.2,0.3,0.5,0.1,0.7c-0.1,0.3-0.3,0.5-0.5,0.8c-0.9,1-1.2,2.4-1.5,3.7c-0.2,0.9,1.1,1,1.3,1.7c0,0.1,0.2,0.1,0.2,0.2
				c0.7,1.7,2.1,1.7,3.6,1.3c1.3-0.4,0.6-2.3,2.1-2.6c-0.9-0.6-0.6-2.1-1.9-2.5C351.6,324.4,350.3,323.9,350.5,321.9z M349.3,415
				c-0.6-0.9-1.5-0.9-2.4-0.8c-0.4,0.1-0.8,0.1-1.2,0.1c-3.2-0.6-5.8,1.1-8.6,1.9c-0.4,0.1-0.7,0.5-1.1,0.9c-0.6,0.5-0.5,0.9,0.3,1
				c0.9,0,1.2,0.4,1.2,1.2c0,0.5,0,1,0.5,1.1c0.5,0.1,0.7-0.4,0.9-0.7c0.8-0.8,1.4-1.9,2.8-0.8c0.3,0.2,0.7-0.1,0.9-0.4
				c0.3-0.4,0.7-0.5,1.2-0.4c1.2,0.1,2.1-0.5,2.5-1.6c0.3-0.7,0.7-0.9,1.4-1C348.3,415.6,348.8,415.5,349.3,415z M324.6,355.7
				c0.9-0.4-0.1-1.8,1-2.2c1-0.3,1,0.7,1.3,1.3c0.1,0.1,0.2,0.3,0.3,0.3c0.8,0.2,1,1.8,2,1.1c0.5-0.3-0.2-1.3-0.2-1.9
				c0.1-1.5-0.8-1.9-2.1-1.9c-2.4,0-4.8-0.1-7.1,0.3c-1.1,0.2-1.3,0.6-1.4,1.8c-0.2,1.8,2.6,1.2,2.1,3c0,0,0.1,0.1,0.1,0.1
				c1-0.4,1.7,0.3,2.5,0.8c0.4,0.2,0.8,0,1.1-0.3C325,357.5,325.1,356.8,324.6,355.7z M237.8,362.2c0-0.4-0.1-0.6-0.3-0.7
				c-0.7-0.3-1.5,0-1.9,0.4c-1.4,1.7-3,3.3-3.9,5.2c-0.9,2.1-2.4,3.8-3.7,5.6c-1.1,1.5-1.8,3.3-3.3,4.6c-0.3,0.3-0.3,0.7,0,1
				c0.3,0.2,0.6,0.3,0.9,0.1c0.8-0.5,2.2-1.2,2.4-1.6c0.6-1.9,1.8-3.3,2.9-4.8c0.7-1.1,1.4-2.1,2.4-2.9c0.3-0.2,0.7-0.2,0.7-0.7
				c0-1.3,0.9-1.9,1.7-2.8C236.6,364.6,237.1,363.2,237.8,362.2z M254.9,246c0.3,0.1,0.4,0.1,0.5,0.1c2.3,0.3,4-0.3,4.7-2.8
				c0.3-0.9,0.2-1.1-0.5-1.2c-0.6-0.1-1.5,0-1.7-0.8c-0.3-1.2-1.2-1.1-2-1.1c-1.6,0-3.2,0.3-4.6,0.9c-0.9,0.4-2.8,1-2.3,2.3
				c0.5,1.5,2.1,0.7,3.2,0.3c1-0.3,1.9-0.7,3-0.7c0.8,0,1.3,0.3,0.6,1.1C255.2,244.7,255.1,245.4,254.9,246z M292.3,401.9
				c0.8,1,1.6,1.8,3,1.6c0.7-0.1,1.5,0,1.9,0.7c0.3,0.5,0.8,0.5,1.2,0.5c0.7-0.1,1.2,0.1,1.7,0.5c0.7,0.6,1.5,0.5,2.3,0.1
				c2-0.9,3.9-2.1,6.2-1.5c0.2,0.1,0.5-0.1,0.7-0.2c0.3-0.1,0.6-0.3,0.5-0.7c-0.1-0.4-0.4-0.4-0.7-0.3c-0.6,0.1-1.1,0-1.7-0.1
				c-3.7-0.6-7.5-0.7-11.3-0.7C294.9,401.8,293.6,402.2,292.3,401.9z M274.7,507.1c1-0.1,1.7-0.2,2.2-0.7c0.6-0.7,1.3-1.1,2.3-1
				c0.9,0.1,1.8-0.1,2-1.1c0.2-0.9-0.3-1.7-1.2-1.9c-1.7-0.4-3.3-1.8-5.1,0.1c-1,1-2.4,1.5-3.8,1.8c-0.4,0.1-1.2,0.6-0.5,1
				C272,506,273.5,506.5,274.7,507.1z M275.3,298.7c-0.4,0.6-0.1,0.9,0.3,0.9c0.6,0.1,1.2-0.2,1.5-0.8c0.5-0.9,0.8-2,1.5-2.8
				c1.6-1.8,2.2-4.1,3.6-6c0.3-0.5,0.7-1.3-0.2-1.7c-0.8-0.4-1.3,0.1-1.6,0.7c-0.6,1-1.4,1.7-2.4,2.2c-1.4,0.7-2.1,2.3-3.4,3.2
				c-0.2,0.2-0.3,0.5-0.1,0.7C275.8,296.1,275.1,297.6,275.3,298.7z M270.9,434.3c0-0.8-0.3-1.2-1.2-0.9c-0.8,0.2-1.5,0.6-2.1,1.2
				c-1.1,1.4-2.2,2.8-4.1,3.1c-0.4,0.1-0.7,0.3-0.7,0.7c-0.2,1.2,2,3.7,3.3,3.7c0.3,0,0.7-0.1,0.8-0.4c0.3-1.6,0.7-3,2.7-3.1
				C269.9,437.3,270.6,435.9,270.9,434.3z M245.5,625.6c-1,0.3-2.1,0.6-3.2,0.9c-0.5,0.1-0.8,0.6-0.8,1c-0.1,0.6,0.6,0.4,0.9,0.5
				c1.2,0.4,2.7,0.5,3.5,1.4c1.5,1.5,2.4,0.7,3.7-0.1c0.7-0.5,1.5-0.7,1.7,0.6c0.3,1.3,1.6,2,2.7,1.7c0.6-0.2,1-0.8,0.6-1.1
				c-1-0.9-1.5-2.4-3.2-2.7c-1.8-0.4-3.7-0.8-5.3-1.9C246,625.7,245.7,625.7,245.5,625.6z M334.8,406.8c-0.3-0.1-0.8,0.6-1.1-0.1
				c-0.2-0.5-0.1-1,0.3-1.5c0.3-0.3,0.8-0.7,0.4-1.2c-0.5-0.5-1.3-0.4-1.7,0c-0.7,0.7-1.6,1.4-1.9,2.3c-0.7,2-0.1,4,0.8,5.9
				c0.3,0.6,1.1,0.8,1.4,0.4c0.7-0.9,1.5-0.4,2.2-0.5c0.5,0,1.1,0.1,1.4-0.4c0.1-0.2,0.2-0.5,0-0.7c-0.5-0.3-1.1-0.3-1.5-0.1
				c-1.9,1.1-1.7-0.3-1.8-1.4c0-0.4-0.3-1,0.2-1.3c0.6-0.4,0.8,0.2,1.1,0.5c0.7,0.5,1.1,0.1,1.7-0.2c0.4-0.2,0.7-0.5,0.6-0.9
				c-0.2-0.7-0.8-0.6-1.4-0.7C335.3,406.9,335.1,406.9,334.8,406.8z M318.2,285.8c-0.7,0-1.3-0.1-1.8-0.1c-0.9,0-1.5,0.5-1.7,1.2
				c-0.7,2.3,1,4.3,3.4,4.2c2.8-0.1,3.8-2.1,2.6-4.6C319.9,285,318.9,286.1,318.2,285.8z M222.2,436.4c-0.5-1.6-1.7-2-3-2
				c-0.7,0-1.4,0.2-2.1,0.1c-1.3-0.2-1.7,0.7-2.1,1.6c-0.1,0.2,0.1,0.6-0.2,0.7c-1.7,0.4-0.4,1.5-0.4,2.1c0,0.9,1,0.7,1.6,0.7
				c1.1,0.1,2.2-0.1,3.2-0.1c0.4,0,0.9-0.2,0.8-0.5c-0.4-0.7-0.8-1.3,0.3-1.6c-0.6-1.3,0.5-0.8,1-0.9
				C221.6,436.4,221.8,436.4,222.2,436.4z M342.1,336.1c-0.4-1,0-2.6-1.5-2.7c-1.2-0.1-2,0.4-2.4,1.9c-0.4,1.4-0.1,2.5,0,3.8
				c0,0.8,0.4,1.5,1.3,1.5c0.9,0,1.6-0.2,2.1-1.1C342.3,338.4,341.2,337.1,342.1,336.1z M246.7,253.3c0.1,0,0.4,0.1,0.6,0
				c0.7-0.1,1.8,0.1,1.8-1c0-1-1-1-1.9-1.1c-2.1-0.1-4-0.1-5.4,2c-1.1,1.6-1.7,3.4-2.7,5c-0.2,0.3,0,0.6,0.2,0.8
				c0.2,0.1,0.4,0.3,0.5,0.1c0.7-1.5,2.9-1.9,3.2-3.8C243.4,253.2,244.9,253.2,246.7,253.3z M298.7,388.1c1.3-0.4,2.3,0,3.3,0.6
				c0.5,0.3,1.1,0.7,1.5-0.2c0.4-0.9-0.3-0.9-0.8-1.1c-0.9-0.4-1.7-0.8-2.5-1.4c-1-0.8-2.1-0.8-3.3,0.3c-1.3,1.2-0.1,1.4,0.5,1.9
				c0.1,0.1,0,0.2,0.1,0.3c1,1.1,1.4,2.9,3.4,2.9c0.7,0,1.7,0.6,2-0.3c0.3-0.8-0.6-1.3-1.3-1.7c-0.4-0.3-0.9-0.2-1.3-0.2
				C299.6,389,299.1,388.9,298.7,388.1z M246.4,265.3c0-0.4-0.4-0.6-0.7-0.8c-0.9-0.9-1.9-1.5-2-3c0-1,0.6-1.7,0.8-2.6
				c0.1-0.5,0.1-0.9-0.3-1.2c-0.5-0.3-0.8,0-1.2,0.3c-0.4,0.4-0.9,0.7-1.2,1.1c-0.6,0.6-1.2,1.3-0.7,2.3c0.3,0.5,0.4,1.1,0.6,1.7
				c0.3,1.1,0.9,2.1,1.7,2.9c1.2,1.2,1.7-0.7,2.6-0.4C246.1,265.7,246.4,265.5,246.4,265.3z M321.8,282.3c1.1,0.3,1.8,1.5,2.6,0.5
				c0.8-1,1.4-2.3,1.7-3.5c0.1-0.7-0.7-1.5-1.2-2.3c-0.8-1.4-2.3-2.2-2.8-3.7c-0.1-0.4-0.4-0.6-0.8-0.5c-0.4,0.1-0.5,0.5-0.6,0.8
				c-0.4,1.8,0.6,3.9,2.4,4.7c1.2,0.6,1.3,1.7,1.3,2.7c0,0.9-1,1-1.8,1C322.5,282,322.4,282.1,321.8,282.3z M295.6,327.2
				c0-0.3,0.1-0.6-0.2-0.8c-0.6-0.5-3.4,0.2-3.3,0.9c0.2,1.8-1.8,1.8-2.4,2.9c-0.2,0.4-1.3,0.2-0.7,1.1c0.6,0.8,1.1,0.6,1.6,0.1
				c0.7-0.8,1.3-1.4,1.8,0.2c0.2,0.7,1,0.9,1.7,0.7c0.5-0.2,0.9-0.5,1.3-0.7C294.2,330.1,295.2,328.7,295.6,327.2z M295.7,348.9
				c1.6,1.5,3,3.2,5.8,2.5c-1.4-0.8-1.6-1.8-0.6-2.9c0.4-0.4,0.8-0.9,0.1-1.3c-1.3-0.9-2.7-1.7-4.4-1.8c-0.3,0-0.5,0.1-0.6,0.3
				c-0.2,0.3,0.1,0.4,0.3,0.6c0.9,0.6,1.1,1.5,1.1,2.4C296.9,349,296.3,348.4,295.7,348.9z M302,265.4c0.7,1,0.3,2.2,0.9,3.3
				c0.7,1,1.8,1.6,2.3,2.7c0.1,0.2,0.6,0.4,1,0.3c0.4-0.2,0.3-0.6,0.2-1c-0.1-0.4-0.2-0.9-0.3-1.3c-0.2-0.9-1.1-1.6-1-2.6
				c0.8-0.2,1.2,1.1,2,0.1c0.4-0.5,0.3-0.9,0.1-1.3c-0.3-0.8-1.1-0.9-1.5-0.6c-1.2,0.8-2.3,0.4-3.4,0.1
				C302.3,265.2,302.2,265.3,302,265.4z M331.8,310.9c2.2,0.5,2.8,0.1,3.7-1.5c0.7-1.2,0.2-2.4,0.5-3.5c0.3-1-0.1-1.8-0.5-2.6
				c-0.3-0.7-1.1-1.1-1.6-0.6c-0.6,0.7-1.4,1.6-0.7,2.6c0.9,1.3,0.5,2.5,0.3,3.8C333.5,310.2,333.3,311,331.8,310.9z M294.4,431.1
				c-1.2-0.4-1.9,0.5-2.7,1.1c-0.5,0.4-0.7,1.2-0.2,1.8c0.9,1.1,4.6,1.7,5.9,1c0.5-0.2,0.7-0.7,0-0.8c-1-0.2-1.1-1.1-1.2-1.7
				C296.2,431.2,295.6,430.9,294.4,431.1z M309.1,287.3c0.9,0.1,1.8-0.2,2.7-0.3c0.2,0,0.5,0.1,0.1-0.3c-0.8-1-1.4-2.1-2.2-3.1
				c-0.8-1-3.1-1.3-3.2-0.5c-0.2,1.2-0.6,2.4,0,3.6C307.2,287.7,308.3,287.2,309.1,287.3z M227.2,423.4c0.9-0.4,1.4-0.1,2-0.1
				c0.3,0,0.8,0.2,0.9-0.3c0-0.4-0.4-0.4-0.7-0.5c-1.8-0.7-3.2-0.4-4.6,1c-1,1.1-1.2,0.9-0.1,1.7c0.1,0.1,0.2,0.1,0.2,0.2
				c0.6,2,2.3,1.1,3.5,1.3c-0.8-0.4-1.6-0.9-2.8-1.5c1.4,0,2.3-0.2,3.3,0.3c0.6,0.3,1.2,0.5,1.5-0.3c0.3-0.7-0.4-0.8-0.9-0.9
				C228.9,424,228.2,423.8,227.2,423.4z M385.9,624c-0.4,0-0.7,0-1.1,0c-0.4,0-0.8,0-0.8,0.5c0,0.4,0.1,0.8,0.6,1
				c2.1,0.7,4.1,1.5,5.8,3c0.5,0.5,1.1,0.4,1.7,0c0.7-0.5,0.2-1-0.1-1.4C390.5,625,387.9,625.1,385.9,624z M304.9,339.2
				c-1.5,0.4-2.4-0.2-3.4-1.4c-1.1-1.4-2.7-1.5-4-0.8c-0.8,0.4-0.9,1.1-0.9,1.8c0,0.7,0.6,0.9,1.1,1
				C300.2,340.7,302.5,339.4,304.9,339.2z M360,616.9c1.5,0.3,2.8-0.3,4.2-0.9c0.6-0.3,0.8-0.9,0.8-1.5c-0.1-0.7-0.7-1.2-1.3-1.5
				c-0.4-0.2-0.9-0.3-1.2,0.2c-0.9,1.2-2.6,1.3-3.5,2.5c-0.3,0.4-1.1,0.4-0.9,1c0.2,0.7,0.9,0.3,1.3,0.3
				C359.5,617,359.7,616.9,360,616.9z M341.2,306.5c1.1,0.1,1.5,0.9,1.3,1.6c-0.4,1.6,0.3,1.5,1.4,1.3c0.5-0.1,1.1-0.1,1.7-0.2
				c0.4,0,0.9-0.1,0.9-0.6c0.1-0.4,0-0.8-0.3-1.2c-0.6-1-1.6-1.7-1.9-2.9c-0.1-0.4-0.3-0.7-0.7-0.6c-0.4,0.1-0.9,0.2-0.8,0.7
				C343.1,305.7,342.3,306.1,341.2,306.5z M294.6,426.6c0.3,0.4,0.6,0.3,0.8,0.3c1.6-0.4,3.1-0.4,4.8,0.1c1.4,0.5,2.8,0,4-1
				c0.2-0.2,0.6-0.3,0.4-0.7c-0.1-0.3-0.2-0.8-0.6-0.8c-1.7,0.1-3.5,0-5.1,0.7c-0.9,0.4-1.6,0.7-2.4,0.2c-0.5-0.4-0.9-0.4-1.1,0.4
				C295.4,426,295,426.3,294.6,426.6z M338.9,613.5c-0.8-1.4-1.9-0.7-2.8-0.7c-1.5,0-2.9,0.4-4.1,1.5c-0.9,0.9-0.3,1.4,0.3,2
				c0.3,0.2,0.3,0.2,0.9-0.6c0.2-0.2,0.4-0.3,0.7-0.3c1.1,0,2.3-0.4,3.4,0.7C337.1,614.5,338,614,338.9,613.5z M338.1,354.8
				c0,0.2,0,0.3,0,0.5c-0.1,1,0.2,2.1,1.1,2.1c1,0.1,1.9-0.8,1.7-2c-0.1-0.5,0.2-0.8,0.4-1.1c0.6-0.7,0.4-1.5,0.4-2.3
				c0-0.4-0.3-0.8-0.6-0.6c-1,0.6-1.9,1.2-2.8,1.9C337.8,353.6,338.1,354.2,338.1,354.8z M226,392.7c1.3,0,1.9-1.2,1.6-2.4
				c-0.5-1.7-2.1-2.2-3.3-3.1c-0.2-0.2-0.7-0.1-1,0.2c-0.3,0.2-0.3,0.5-0.2,0.8c0.5,1.2,1.3,2.2,1.6,3.5
				C224.8,392.2,225.3,392.7,226,392.7z M250.7,276.8c-1.5-0.9-0.3-1.1,0.3-1.6c0.4-0.2,1.4-0.1,1-0.7c-0.3-0.6-0.3-0.8,0-1.3
				c0.2-0.3,0.4-0.7-0.1-1c-0.3-0.2-0.9-0.2-1,0c-0.8,1.3-2.3,1.6-3.2,2.7c-0.5,0.7-0.8,1.7-0.5,2.3c0.4,0.8,1.4,0.2,2.1,0
				C249.8,277.2,250.2,277,250.7,276.8z M262.7,409.7c-1.8,0-3.4,1.1-4,2.7c-0.1,0.3-0.4,0.7,0,1c0.4,0.4,0.7,0.1,0.9-0.1
				c0.3-0.3,0.7-0.6,1.1-0.3c1.5,1,2.5,0.9,2.8-1.1c0,0,0.1-0.1,0.1-0.1c0.4-0.3,0.9-0.5,0.5-1.2
				C263.8,409.8,263.3,409.6,262.7,409.7z M251.8,428.8c-1.1,0.4-2.9,0.2-4.5,0.9c-0.4,0.2-0.9,0.4-0.8,0.9c0.1,0.4,0.5,0.7,0.9,0.7
				c1.8,0.1,3.6,0.3,5.3-0.1c0.4-0.1,1.3-0.4,0.9-1.1C253.4,429.6,253.5,428.5,251.8,428.8z M334.7,294.9c-0.1-1.2,0.2-2.3-0.6-3.1
				c-0.2-0.2-0.4-0.5-0.7-0.3c-0.3,0.2-0.8,0.3-0.7,0.7c0.2,0.6,0,1.2,0.5,1.7c0.6,0.5,0.6,1.2,0.4,2c-0.4,1.8-0.8,3.6-0.5,5.5
				c0,0.3,0,0.6,0.4,0.7c0.2,0.1,0.5-0.1,0.5-0.3c-0.1-0.8,0.6-1.3,0.7-2C335.2,298.1,334.2,296.3,334.7,294.9z M250.4,410.1
				c-0.7-0.1-1,0.3-1.4,0.7c-0.5,0.6-0.2,1.6,0.3,1.4c1.2-0.6,1.6,0.3,2.3,0.8c0.6,0.4,1.3,0.2,1.8-0.4c0.3-0.4,0.4-0.9,0.7-1.2
				c1.2-0.8,0.3-1.2-0.2-1.7c-0.7-0.6-1.5-0.4-2.1,0C251.3,410.2,250.9,410.5,250.4,410.1z M285.5,371.2c0,0,0.4-0.6-0.4-0.7
				c-0.5-0.1-1.2-0.3-1.6,0.2c-0.4,0.6-0.6,1.4-0.7,2.2c0,0.2,0.4,0.7,0.8,0.1c0.2-0.3,0.4-0.3,0.6-0.1c1.4,1.8,3.8,1.6,5.5,2.7
				c0.3,0.2,0.6,0.3,1,0.4c0.4,0.1,0.9,0,1-0.5c0.1-0.5-0.3-0.5-0.7-0.6c-1.3-0.4-2.5-1-3.9-1.2C286,373.5,285.5,372.7,285.5,371.2z
				 M326.4,273c0,0.1,0,0.4,0.2,0.6c0.3,0.4,0,1.3,0.8,1.3c0.9,0,0.6-0.8,0.8-1.3c0.6-1.5,0.2-3.1,0.4-4.6c0.1-0.5-0.9-1.4-1.7-1.4
				c-0.8,0-0.6,0.8-0.6,1.4C326.1,270.3,326.9,271.6,326.4,273z M254.5,256.2c-0.3,0.7,0.3,1.1,0.7,1.5c0.3,0.3,0.6,0.1,0.8-0.2
				c0.4-0.4,0.8-0.8,0.5-1.6c-0.6-1.6-2-2.7-2.8-4.1c-0.5-0.8-1.1-0.9-1.8-0.8c-0.3,0-0.5,0.2-0.4,0.5c0.1,0.7,0.1,1.3,1,1.6
				C253.5,253.8,254.8,254.5,254.5,256.2z M229.1,609.1c1.1-0.2,2.2-0.4,3.3-0.8c0.5-0.1,1.2-0.3,1.1-0.9c-0.1-0.7-0.9-0.6-1.4-0.5
				c-1.7,0.4-3.3,0.7-4.9-0.6c-0.3-0.3-1.1-0.1-1.3,0.6c-0.1,0.6-0.1,1.3,0.6,1.5C227.4,608.8,228.3,608.9,229.1,609.1z M235.5,260
				c0,0.1-0.3,0.9,0.7,1c1.1,0.1,0.7-0.8,0.8-1.3c0.3-1.8,0.4-3.7,1.6-5.2c0.4-0.5-0.1-0.8-0.5-0.8c-0.7,0-1.4,0.1-1.7,1
				C235.8,256.3,235.5,257.9,235.5,260z M219.5,419c0,0.9,0.6,1.4,0.4,2.1c-0.2,0.6,0,1.2,0.8,1.2c0.7,0,1.4-0.4,1.5-1
				c0.3-1.2,0-2.5-0.5-3.6c-0.3-0.7-0.9-0.7-1.4-0.4c-0.2,0.1-0.8-0.4-0.7,0.1C219.8,418.1,219.5,418.7,219.5,419z M339.8,548.5
				c-0.4,0.1-0.9,0.3-1.3,0.3c-1,0-1.8-0.1-1.7,1.3c0,0.2-0.3,0.5-0.5,0.7c-0.3,0.4-0.7,0.7-0.3,1.2c0.4,0.4,1,0.5,1.4,0.3
				c1.1-0.6,2.1-1.4,3.1-2.1c0.4-0.3,0.3-0.6,0.2-0.9C340.6,548.8,340.4,548.5,339.8,548.5z M329.5,623.6c0.1,0.3-0.4,0.9,0.2,1.1
				c0.5,0.2,0.9-0.1,1.2-0.4c0.3-0.5,0.7-0.8,0.7-1.6c0.1-0.9,0-1.8,0.2-2.6c0.1-0.5,0.5-1-0.2-1.2c-0.6-0.2-1.2-0.2-1.4,0.6
				C329.8,620.8,329,622,329.5,623.6z M288.8,345.5c0-0.1-0.2-0.4-0.2-0.7c-0.2-0.9-0.2-1.9-1.6-0.9c-0.6,0.4-1.8-0.2-2.3-1
				c-0.2-0.3,0-1-0.6-0.8c-0.4,0.1-0.7,0.6-0.9,0.9c-0.2,0.5,0.4,0.6,0.6,0.9c0.5,0.6,1.6,0.5,1.9,1.2c0.5,1.3,1.7,0.9,2.6,1.2
				C288.5,346.6,288.9,346.2,288.8,345.5z M286.6,411.7c-0.1-0.8,2.1-1.8-0.2-2.4c-0.3-0.1-0.2-0.5-0.1-0.8c0.1-0.4,0.5-0.8,0-1
				c-0.5-0.2-0.9,0.1-1.1,0.8c-0.3,1.5-1.6,2-2.6,2.8c-0.1,0.1-0.6-0.1-0.7,0.3c0,0.4,0.4,0.5,0.6,0.6c0.7,0.5,1.5,0.3,1.7-0.3
				C285.1,409.6,285.8,410.9,286.6,411.7z M290,302.3c0.1-0.6-0.2-1.1-0.6-1.3c-0.7-0.3-0.6,0.5-0.8,0.8c-0.3,0.5-0.6,1-1,1.4
				c-1,1-0.7,2.4,0.7,2.9c0.6,0.2,1.9-0.7,1.7-1.2C289.4,304,289.8,303.2,290,302.3z M345.8,384.7c0.2,0.8-0.7,1.3,0,1.8
				c0.5,0.3,1.2,0,1.6-0.3c0.9-0.7,1-1.8,1.3-2.8c0.1-0.5-0.4-1.4-0.9-1.7c-0.8-0.4-1,0.6-1.5,1C345.4,383.3,345.2,384,345.8,384.7z
				 M310.7,368.4c0.3-0.8-0.2-1.2-1-1.3c-0.8-0.1-1.5,0.6-1.4,1.1c0.4,1.3-0.5,1.2-1.1,1.4c-0.4,0.2-0.9,0.4-0.9,1
				c0.1,0.5,0.6,0.6,1,0.5c0.9-0.2,2.7,1.2,2.5-1.3c0-0.1,0.2-0.2,0.4-0.2C310.7,369.4,310.9,369.1,310.7,368.4z M343.8,380.7
				c0.2,0.6,0.3,1.3,0.8,1.8c0.3,0.2,0.6,0,0.8-0.2c1.2-1.1,1.9-2.5,2.4-4c0.1-0.4-0.1-0.6-0.4-0.7c-0.3-0.1-0.6-0.1-0.7,0.1
				c-0.4,1-1.4,1.1-2.1,1.6C344.2,379.7,343.8,380,343.8,380.7z M245.4,424.6c0.8,0.1,1.5-0.2,1.3-1.2c-0.2-0.9,0.3-2.3-1.3-2.3
				c-1.1,0-2,0.7-2.3,1.6C242.8,423.6,244,424.6,245.4,424.6z M339.4,517.8c-0.1,0.8,0.2,1.4,1,1.4c1.1-0.1,2.3,0,3.3-0.7
				c0,0,0-0.2,0-0.3c-0.3-0.6,0-1.7-1.1-1.8c-1.1-0.1-2.2,0-3.1,0.8C339.3,517.3,339.4,517.6,339.4,517.8z M257.4,336.7
				c1.4,0.3,2.7,0.4,4,0.4c0.7,0,1.6,0.1,1.5-0.8c-0.1-0.7-0.6-1.4-1.6-1.5C259.6,334.6,258.4,335.3,257.4,336.7z M344.2,459.8
				c-0.6-0.3-1-0.5-1.4-0.6c-0.9-0.3-1.9-0.4-0.9-1.7c0.3-0.4,0-0.7-0.4-0.7c-1-0.1-1.6,0.1-1.6,1.2c0,1.1-0.1,2.1-0.5,3.1
				c-0.2,0.5,0,0.7,0.3,0.8c0.3,0.2,0.6,0.1,0.8-0.2c0.2-0.4,0.4-0.7,0.4-1.1c-0.2-1.4,0.7-1.1,1.4-0.7
				C342.8,460.2,343.3,460.2,344.2,459.8z M245.7,268.9c2.5,0,4.9-1.6,5.7-3.8c0.1-0.3,0.4-0.8-0.2-1c-0.6-0.2-0.4,0.3-0.6,0.6
				c-0.9,1.4-1.9,2.8-3.9,2.7c-0.4,0-0.8,0-1.2,0.1c-0.4,0.1-0.8,0.5-0.7,0.9C244.8,268.9,245.4,268.8,245.7,268.9z M249.3,254.2
				c-0.8-0.1-1.3,0.6-1.4,1.5c-0.1,1,0.8,0.6,1.3,0.8c0.8,0.3,1.9,0.1,2.2,1.3c0,0.1,0.5,0.5,0.9,0.4c0.2-0.1,0.3-0.2,0.3-0.5
				C252.8,256.6,250.7,254.3,249.3,254.2z M234,398.9c-0.5,1.2-0.7,1.9,1,1.8c1.1-0.1,2.2,0.2,3.3,0.4c0.9,0.1,2.3,0.6,2.6-0.6
				c0.1-0.5-1.6-0.8-2.6-0.9C236.9,399.5,235.3,400.1,234,398.9z M250.6,248.8c-1.1-1.3-2.1-1.2-3.4-0.4c-1.1,0.6-2.5,1.4-3.9,0.8
				c-0.3-0.1-1-0.2-0.9,0.4c0,0.4,0.4,0.7,0.9,0.6C245.7,249.9,248.3,250.2,250.6,248.8z M349.2,428.3c-0.1-0.5-0.6-1.1-1.1-1.4
				c-0.7-0.4-1.4-0.8-1.6,0.7c-0.1,0.9,0.3,1.8-0.2,2.7c-0.2,0.5,0.6,1.3,1,0.8C347.9,430.2,349,429.7,349.2,428.3z M326.3,361.4
				c-0.2,0.6-0.5,1.2,0.4,1.3c0.7,0.1,1.4,0.1,1.8-0.8c0.4-0.8,0.3-1.7,0.7-2.4c0.3-0.4,0.7-0.9-0.1-1.1c-0.6-0.2-1.1-0.2-1.2,0.6
				c-0.1,0.6-0.3,1.2-0.9,1.3C326.3,360.5,326,360.8,326.3,361.4z M318.4,403.3c1-0.1,1.7-0.2,2.5-0.2c0.3,0,0.8,0,0.8-0.5
				c0-0.5-0.3-0.8-0.9-0.8c-0.9,0-1.9,0.2-2.7-0.2c-1-0.5-1.6,0.2-2.2,0.5c-0.7,0.4,0.3,0.9,0.1,1.5c0,0.1,0.4,0.3,0.5,0.2
				C316.9,402.6,317.8,403.3,318.4,403.3z M338.9,350.8c-0.3,0.3-0.4,0.7,0.1,0.8c0.6,0.1,3.1-1.7,3-2.3c-0.1-0.8-0.8-1.6-1.5-1.5
				C339.1,348.1,338.4,349.2,338.9,350.8z M245.6,390.5c0.8-0.3,1.5-1,1.9-2c0.5-1,1.1-1.8,2.2-1.8c1,0-0.5-0.9,0.4-1.1
				c0.4-0.1-0.3-0.5-0.5-0.7c-0.3-0.3-0.5,0-0.7,0.2c-1.3,1.6-2.7,3.1-4.1,4.7c-0.1,0.1-0.3,0.2-0.2,0.5
				C244.7,390.5,245,390.6,245.6,390.5z M339,407.8c0.2,0.5-0.1,0.7-0.3,1c-0.6,0.8-1,1.6,0.1,2.4c0.3,0.2,0.4,0.8,1,0.7
				c0.7-0.1,0.3-0.7,0.4-1.1c0.4-1.1-0.6-2.3,0.2-3.4c0.2-0.3,0.4-0.7,0.1-1c-0.3-0.3-0.7,0.1-1,0.2
				C339,406.9,338.7,407.3,339,407.8z M208.1,600.6c1.9,0.1,1-1.7,1.8-2.3c-0.5-0.3-0.1-1.4-1.1-1.3c-1.1,0.1-2,1.1-2,2.7
				C206.9,600.9,207.8,600.4,208.1,600.6z M214.6,596.6c-0.3-0.4,0-1.1-0.3-1.6c-0.4-0.8-1.2-1.7-2.1-1.4c-1.1,0.4-0.3,1.3-0.1,2.1
				c0.2,0.6,0.5,1.1,0.9,1.6c0.3,0.3,0.7,0.4,1.1,0.2C214.4,597.3,214.6,597.1,214.6,596.6z M254.2,397.1c1.1-0.2,1.9-0.8,2.6-1.6
				c-0.9-0.1-0.7-1.5-1.8-1.4c-1,0.1-2.2,1.3-2.1,2.2C253,397,253.5,397.1,254.2,397.1z M325,423.2c0.6,0,0.8-0.4,0.9-0.9
				c0.1-0.6,0.2-1.2,0.6-1.7c0.3-0.5,0.4-1.1,0-1.6c-0.4-0.4-0.8-0.1-1.1,0c-0.6,0.3-1.1,0.7-0.8,1.4c0.1,0.5,0.2,0.9-0.3,1.2
				c-0.3,0.2-0.6,0.6-0.4,0.9C324,422.9,324.6,423,325,423.2z M344,466.3c-0.5,0-0.7,0.3-0.8,0.9c0,0.5,0.4,0.8,0.2,1.3
				c-0.2,0.6,1.5,2.2,2.1,2c0.4-0.2,0.4-0.5,0.3-0.9c-0.3-0.9-0.4-1.8-0.7-2.7C345,466.4,344.7,466.3,344,466.3z M291.1,424.8
				c-1.1-0.3-1.7,0.6-2.4,1.1c-0.3,0.2-0.3,0.8-0.1,1.1c0.2,0.3,0.6,0.3,1,0.2c0.6-0.2,1.2-0.4,1.9-0.6c0.7-0.2,1.9,0.1,1.7-0.9
				C293.1,424.7,291.8,425.1,291.1,424.8z M376.7,409.6c-0.4-0.8-1.1-0.7-1.7-0.6c-1.2,0.3-2.3,0-3.4-0.4c-0.7-0.2-1.4,0-2.1-0.1
				c-0.4-0.1-0.6,0.3-0.7,0.7c-0.1,0.3,0.1,0.5,0.4,0.5C371.7,409.6,374.1,410.1,376.7,409.6z M321.7,363.3c-0.5-0.6-0.9-1-1.2-1.4
				c-0.3-0.6-0.4-1.4-1.3-1.3c-1,0.1-0.8,1.1-1,1.7c-0.4,1,0.1,1.4,1.1,1.4C320.1,363.7,320.9,363.5,321.7,363.3z M313.9,196.9
				c0,1.4,0.7,2.9,0.6,4.4c0,0.4,0.3,1,0.9,0.8c0.5-0.1,0.5-0.5,0.5-1c-0.1-1.9-1.4-3.5-1.4-5.4c0-0.1-0.2-0.3-0.3-0.2
				c-0.2,0.1-0.4,0.2-0.4,0.3C313.8,196.1,314.2,196.4,313.9,196.9z M260.3,435.3c-0.1,0-0.3,0-0.4,0.2c-0.3,0.6,0.9,3.3,1.6,3.5
				c0.3,0.1,0.5,0,0.7-0.2c0.4-0.9-0.4-1.9,0.4-2.7C261.8,435.7,261.2,435.3,260.3,435.3z M247.3,244.8c0-0.4-0.3-0.5-0.7-0.6
				c-0.9-0.4-2.9,0.7-3.2,1.6c-0.1,0.4,0.1,0.7,0.3,0.9c0.2,0.2,0.6,0.3,0.8,0c0.6-0.5,1.2-0.7,1.9-0.9
				C247.1,245.7,247.1,245.2,247.3,244.8z M344.7,369.2c1,0.3,1.4-0.7,1.9-1.4c0.2-0.4,0.5-1.1-0.2-1.3c-0.6-0.2-1.4-0.5-1.8,0.5
				c-0.1,0.4,0,0.8-0.5,1c-0.3,0.1-1,0-0.7,0.7C343.5,369.2,344,369.3,344.7,369.2z M259,250.4c-0.6-0.5-1.2-1.1-1.8-1.5
				c-0.5-0.4-1.3-0.8-1.6,0c-0.1,0.4-1.1,1.1,0.4,1.7C257,251.1,257.8,250.8,259,250.4z M324.5,187.9c0.2,0.8,0.4,1.8,0.6,2.9
				c0.1,0.3,0.3,0.6,0.7,0.4c0.2-0.1,0.6-0.3,0.6-0.4c-0.3-0.7,0.1-1.7-0.2-2.2c-0.4-0.7-0.8-1.2-0.7-2c0-0.6-0.3-0.6-0.7-0.5
				c-0.4,0-0.6,0.3-0.3,0.6C324.6,187.1,324.6,187.4,324.5,187.9z M283.2,345.9c-0.8,0-1.3,0-1.3,0.5c-0.1,0.5,0.4,0.6,0.8,0.8
				c1.3,0.8,3.2,0.5,4.1,2.1c0.1,0.2,0.5,0.3,0.7,0c0.2-0.2,0.1-0.4-0.1-0.6C286.2,347.2,284.5,346.5,283.2,345.9z M286,464.6
				c0.4,0.3,0.8,0.4,1.3,0.5c0.7,0.1,0.3,0.8,0.6,1.1c0.1,0.1,0.4,0.2,0.6,0.1c0.9-0.3,2.5,1.1,2.5-1.1c0-0.2,0.4-0.4,0.6-0.6
				c0.5-0.4,0.8-0.9,0.9-1.5c-0.8,0.2-0.8,0.2-1.2,0.9c-0.8,1.4-1.9,1.7-3.3,1C287.4,464.6,286.8,464.1,286,464.6z M326.5,176.5
				c-1.1,0.4-2,0.3-2.7-0.7c-0.2-0.3-0.7-0.3-0.8,0.3c-0.1,0.6,1.9,2.8,2.5,2.8c0.4,0,1.2-0.6,1-0.7
				C325.4,177.7,326.6,177.1,326.5,176.5z M280.8,439c0-0.5-0.4-0.8-1.1-0.8c-1.2,0-2,0.9-2.1,2.1c0,0.4,0.1,0.5,0.5,0.5
				C279.3,440.9,280.8,439.9,280.8,439z M283.8,359c-1.3-1.5-3-0.7-4.5-0.6c-0.3,0-0.5,0.1-0.6,0.4c0,0.3,0.2,0.4,0.5,0.5
				C280.8,359.5,282.4,360.1,283.8,359z M325.8,370.3c0.8-0.3,1.3-1,1.3-1.7c0-0.6-0.1-1.6-1-1.4c-1,0.2-1.4,1.3-1.6,2.1
				C324.3,369.9,325.3,370,325.8,370.3z M333.5,592.2c0.4,0.8,1.1,0.9,1.5,1.3c1.3,1.3,3.2-1.3,4.3,0.9c0.1,0.1,0.6,0,0.7-0.4
				c0.1-0.3,0.3-0.5,0.4-0.7c-1.5-1.3-3.2,0.2-4.8-0.6C335,592.5,334.4,592.1,333.5,592.2z M323.7,389.3c0,0.3-0.3,0.7,0.2,1.1
				c0.4,0.3,0.8,0,1.1-0.2c0.4-0.2,0.2-1,0.1-1.1c-0.5-0.9-0.7-2-1.1-2.9c-0.2-0.4-0.6-0.4-0.9-0.2c-0.4,0.2-0.3,0.6,0,0.9
				C323.8,387.5,323.9,388.3,323.7,389.3z M321.6,408.7c-1.4-0.4-2.6-0.9-3.1,0.7c-0.2,0.6,0.2,1.3,0.8,1.5
				C321.4,411.4,320.3,409.1,321.6,408.7z M246.1,260.6c-0.2,0.7,0.2,1.1,0.7,1.4c0.4,0.2,0.8,0.2,1.1-0.1c0.5-0.6-0.1-0.9-0.3-1.3
				c-0.3-0.5-0.2-1,0-1.4c0.2-0.3,0.4-0.7-0.1-0.9c-0.4-0.2-0.8,0.1-1.1,0.4C246,259.1,246.3,259.9,246.1,260.6z M246.1,550.2
				c1.3,0.1,1.5-0.8,1.6-1.6c0.1-0.9-0.8-0.9-1.3-0.9c-0.9-0.1-1.3,0.6-1.4,1.5C245,549.8,245.5,550.2,246.1,550.2z M323.4,179.2
				c0,0.9-0.4,1.3,0.2,1.8c0.5,0.5,0.8,1.2,0.8,1.9c0.1,0.6,0.4,1.2,1.1,0.9c0.6-0.2,0.6-0.9,0.3-1.5
				C325.4,181.2,324.5,180.4,323.4,179.2z M228.8,421.8c0.6-0.5,1.8,0.8,2.2-0.4c0.1-0.4-1.4-1-2.1-1c-0.9,0.1-2.5,0.1-2.5,0.9
				c0,1.1,1.4,0,2.2,0.5C228.5,421.8,228.6,421.8,228.8,421.8z M343.6,482c0.3-0.3,1.8,0.1,0.6-1.2c-0.2-0.2-0.2-0.6,0-0.8
				c0.7-0.6-0.1-0.6-0.4-0.7c-0.8-0.4-0.9,0.5-1.3,0.7c-0.3,0.2-0.7,0.7-0.3,1.2C342.5,481.7,342.9,482,343.6,482z M352.7,507.6
				c0.1-0.7-0.2-1-0.6-1.1c-0.4-0.2-0.8-0.3-1.1,0.1c-0.5,0.7-0.2,1.8-0.9,2.5c-0.1,0.2,0.2,0.4,0.5,0.4
				C350.9,509.5,352.7,507.7,352.7,507.6z M253.7,282c-0.6,0.3-1.6,0.3-1.3,1.5c0.1,0.6,0,1.3,0.9,1.2c1.2-0.1,1-1.4,1.3-2.1
				C254.7,282.1,254.2,282,253.7,282z M323,328.7c0.8,0,1.2-0.6,1.5-1.1c0.4-0.6,0.4-1.4-0.2-1.8c-0.8-0.5-1,0.2-1.2,0.9
				c-0.1,0.4-0.5,0.8-0.7,1.2C321.9,328.5,322.3,328.8,323,328.7z M295.6,413.2c0.8-0.1,1.4-0.4,2-0.1c0.5,0.2,1.3-0.2,1.3-0.9
				c0-0.4-0.4-0.9-1.2-0.9C296.5,411.4,295.9,411.8,295.6,413.2z M249.4,422.5c-0.5,0.1-1.1,0-1,0.6c0.2,0.5,0.2,1.6,1.1,1.4
				c0.8-0.1,2.1-0.1,2-1.2C251.4,421.9,249.9,423.5,249.4,422.5z M341.6,478.4c-0.4-0.5-0.2-1.4-1-1.8c-0.6-0.3-1.1,0-1.6,0.3
				c-0.1,0.1-0.6,0.3-0.2,0.5c0.8,0.3,1.1,1,1.6,1.5c0.2,0.2,0.5,0.4,0.8,0.2C341.5,479,341.6,478.8,341.6,478.4z M325.8,426.4
				c0-0.6-1.2-2-1.7-2.1c-0.6,0-0.5,0.7-0.9,0.9c-0.1,0.1,1.9,1.8,2.1,1.8C325.7,427,325.8,426.8,325.8,426.4z M261.2,557.5
				c-1-0.4-2-1-3.1-0.9c-0.4,0.1-0.8,0.2-0.7,0.6c0.1,0.4,0.3,0.9,0.5,1.2c0.2,0.2,0.5,0.1,0.7-0.1
				C259.2,557.4,260.2,557.5,261.2,557.5z M296.6,352.4c0.7,0.8,0.3,2.3,1.9,2.2c0.5,0,0.9-0.4,0.7-0.9
				C298.9,352.6,298.1,352.1,296.6,352.4z M349.1,376.5c0.1,0.5-0.4,1.1,0.3,1.2c0.6,0.1,1-0.4,1.1-1.1c0-0.2,0.1-0.4,0.1-0.6
				c0-0.4,0.9,0,0.5-0.5c-0.4-0.5-0.9-0.7-1.5-0.2C349.2,375.6,348.6,375.9,349.1,376.5z M265.4,244.6c-0.5,0.5-1.5,0.4-1.4,1.5
				c0,0.5-0.1,1,0.7,1c0.9,0,1.4-0.5,1.4-1.3C266.2,245.3,266.1,244.8,265.4,244.6z M325.1,358.6c0.9-0.1,1.5,0.4,1.9-0.4
				c0.4-0.7,0.3-1.4-0.1-2c-0.2-0.3-0.5-0.6-0.9-0.5c-0.4,0.1-0.3,0.5-0.2,0.8C325.9,357.2,326,357.9,325.1,358.6z M267.1,404.7
				c-0.6,0.1-0.8,0.6-0.8,1.2c0,0.8,0.4,1.1,1.2,1c0.4-0.1,1.1-0.1,0.9-0.7C268.2,405.6,268.2,404.7,267.1,404.7z M333.8,330.2
				c0-0.7,0-1.3-0.7-1.4c-0.7-0.1-0.6,0.5-0.6,0.9c0,0.3-0.3,0.6-0.3,1c-0.1,0.4-0.6,0.8,0,1.2c0.7,0.4,0.8-0.3,1.1-0.7
				C333.5,330.9,333.8,330.5,333.8,330.2z M350.8,372.1c0.1-0.5-0.2-0.6-0.5-0.5c-0.8,0.1-1.5,0.3-1.6,1.3c0,0.6,0.4,1.2,0.7,1.1
				C350.4,374,350.4,372.9,350.8,372.1z M262.9,422c-0.1-0.7-0.5-1.1-1.2-1.1c-0.4,0-1-0.1-0.8,0.6c0.2,0.7,0.2,1.7,1.1,1.8
				C262.9,423.4,262.4,422.3,262.9,422z M236.1,547.2c0.4,0.5,0.9,0.9,1.6,1.1c0.7,0.2,1.1-0.1,1.3-0.7c0.2-0.8-0.4-0.7-0.9-0.8
				C237.4,546.6,236.7,546.4,236.1,547.2z M226,411.3c-0.1-0.5-0.3-1-0.8-0.9c-0.6,0.1-1.5,0-1.6,1c-0.1,0.6,0.4,0.8,0.9,0.8
				C225.1,412.2,225.7,412.1,226,411.3z M250.1,395c0.2,0.3-0.7,1.2,0.5,1.1c0.8-0.1,1.2-0.5,1.3-1.3c0.1-0.9-0.8-0.7-1.2-0.8
				C249.8,393.8,250,394.5,250.1,395z M320.3,405.2c0.7,0.4,1,1.2,1.8,1.2c0.6,0,1-0.1,1.1-0.8c0.1-0.7-0.4-0.7-0.8-0.9
				C321.7,404.6,321.1,404.9,320.3,405.2z M345.4,376.4c0.1-0.3,0.1-0.6-0.1-0.6c-0.2-0.1-0.5,0-0.7,0.1c-0.4,0.3-0.8,0.7-1.1,1
				c-0.3,0.3-1,0.3-0.7,0.8c0.3,0.5,0.9,0.4,1.4,0.2C344.7,377.5,345.1,377,345.4,376.4z M329.1,418.2c0.5,0.8,0.7,1.9,2.1,1.4
				c0.5-0.2,0.5-0.7,0.3-1C330.8,417.6,330,417.5,329.1,418.2z M344.4,405.6c0.5-0.3,1.4,0.1,1.6-0.8c0.1-0.5-0.4-1-1-0.9
				c-0.6,0.1-1.4,0.3-1.6,1C343.3,405.5,344,405.5,344.4,405.6z M276.9,512.5c1.1,1.2,2,0.4,3-0.1c0.4-0.2,0.6-0.4,0.4-0.8
				c-0.2-0.4-0.6-0.3-0.9-0.1C278.6,511.8,277.9,512.4,276.9,512.5z M259.7,254.4c0-0.6-0.3-0.8-0.9-0.8c-0.8-0.1-0.9,0.7-1,1.1
				c-0.1,0.6,0.4,1.2,1,1.1C259.8,255.8,259.2,254.8,259.7,254.4z M261.8,374.6c0-1-0.2-1.6-1-1.7c-0.5-0.1-0.6,0.5-0.5,0.7
				c0.3,0.6-0.2,1.7,0.8,1.9C261.8,375.7,261.8,374.9,261.8,374.6z M286.6,462c-0.3,0-0.6,0-0.5,0.4c0.1,0.2-0.2,0.5,0.3,0.5
				c0.8,0,1.4,0.4,2.1,0.8c0.3,0.2,0.8,0.1,1.1-0.3c0.2-0.3-0.1-0.5-0.3-0.6C288.3,462.8,287.5,462.3,286.6,462z M291.3,334.4
				c0-0.6-0.4-0.7-0.9-0.7c-0.7,0.1-0.9,0.5-1,1.1c0,0.6,0.3,0.8,0.8,0.8C291,335.6,291.3,335,291.3,334.4z M287.8,422
				c0-1-0.7-1.4-1.4-1.7c-0.3-0.2-0.8-0.4-1.1,0.1c-0.2,0.4,0,0.8,0.3,1.1C286.3,422,287,421.9,287.8,422z M253.4,249.9
				c0.4,0,1,0.1,1-0.5c0-0.7-0.6-0.9-1.2-1c-0.5-0.1-1.3,0.2-1.2,0.7C252,249.8,252.9,249.6,253.4,249.9z M276,446.5
				c0.7,0,1.4,0.1,1.5-0.7c0.1-0.7-0.6-0.7-1-0.7c-0.6,0-1.4,0.3-1.5,0.8C274.9,446.7,275.7,446.4,276,446.5z M329.3,410.9
				c-0.5-0.3,0.1-1.2-0.5-1.3c-0.6-0.1-1.1,0.4-1.3,1c-0.1,0.5,0.3,0.8,0.8,0.9C328.7,411.5,329.2,411.5,329.3,410.9z M280.2,318.5
				c0.3-0.3,0.9-0.6,1-1c0.1-0.5-0.5-0.9-1-0.8c-0.6,0.1-0.8,0.6-0.9,1.1C279.3,318.1,279.6,318.4,280.2,318.5z M287.3,385.5
				c-0.7-0.8-1.4-1.1-2.3-0.7c-0.3,0.2-0.7,0.3-0.7,0.7c0.1,0.5,0.6,0.3,0.9,0.3C285.8,385.8,286.5,385.7,287.3,385.5z M340.5,481
				c-0.8-0.4-1.5-0.5-2.1,0.2c-0.2,0.3-0.1,1,0.3,1.1C339.8,482.6,339.8,481.3,340.5,481z M282.1,357c-0.3-0.6-0.9-0.6-1-1.1
				c-0.1-0.4-0.3-0.7-0.7-0.6c-0.3,0.1-0.6,0.4-0.6,0.8c0,0.4,0.2,0.6,0.6,0.8C280.9,357.2,281.4,357.2,282.1,357z M292.8,364.3
				c-0.4,0-0.8,0.1-0.7,0.4c0.3,0.7,1,0.9,1.6,1.2c0.4,0.2,0.7-0.3,0.6-0.7C294.1,364.4,293.3,364.5,292.8,364.3z M275.8,510.7
				c0.5-0.3,1.6,0.1,1.4-1c-0.1-0.3-0.1-1-0.6-0.9C275.5,508.9,276.2,510,275.8,510.7z M357.9,522.8c0.9-0.3,0.7-1.2,1.1-1.9
				c0.1-0.2-0.1-0.5-0.4-0.5c-0.3-0.1-0.8,0-0.8,0.2C358.2,521.4,357.2,522.1,357.9,522.8z M345.1,332c0.1-0.4,0.2-1-0.6-0.9
				c-0.5,0-0.8,0.5-0.7,0.8c0.1,0.5,0.3,1.2,0.9,1.2C345.3,333.1,345.2,332.5,345.1,332z M282.2,461.8c0.6-0.7,1.7-0.1,1.8-1.2
				c0.1-0.4-0.2-0.4-0.6-0.4C282.7,460.3,281.9,460.3,282.2,461.8z M307.4,388.6c0.4-0.3,1.2,0.2,1.3-0.6c0-0.4-0.4-0.8-0.9-0.8
				c-0.7,0-0.8,0.6-1,1C306.6,388.6,307.1,388.6,307.4,388.6z M336.2,636.7c-0.5-1.6-2-0.8-3-1.3
				C333.8,636.6,335.6,635.4,336.2,636.7z M229.9,394.8c-0.4-0.5-0.7-0.9-1-1.2c-0.3-0.3-0.7-0.3-1-0.1c-0.2,0.1-0.3,0.3-0.2,0.5
				c0.1,0.3,0.3,0.5,0.6,0.6C228.8,394.7,229.3,394.7,229.9,394.8z M225.6,430.2c0.3-0.2,1.2,0.3,1.1-0.5c0-0.7-0.9-0.6-1.4-0.6
				c-0.4,0-1-0.3-1,0.4C224.3,430.3,225,430.2,225.6,430.2z M292.8,439.6c0.1,0.6,0.5,0.9,0.8,1.2c0.3,0.3,0.7,0.8,1.1,0.3
				c0.5-0.7-0.4-0.6-0.7-0.8C293.7,440,293.4,439.6,292.8,439.6z M271.2,509.7c-0.5,0.1-0.8,0.5-0.8,0.8c0,0.6,0.6,0.7,1.1,0.8
				c0.3,0,0.6-0.2,0.6-0.5C272,510.3,271.8,509.9,271.2,509.7z M297.3,361.2c-0.2-0.4-0.6-0.7-1.1-0.5c-0.4,0.1-1,0.2-0.8,0.7
				c0.1,0.2,0.5,0.8,1.1,0.7C296.9,361.9,297.2,361.8,297.3,361.2z M336.3,404.2c-0.4,0.1-0.8,0.2-0.8,0.7c0,0.6,0.5,0.6,0.9,0.6
				c0.4,0,0.9,0.1,0.9-0.5C337.2,404.5,336.8,404.3,336.3,404.2z M383.5,404.9c0.3-0.2,0.9,0,1-0.5c0-0.6-0.5-0.7-1-0.7
				c-0.4,0-0.9,0.2-0.9,0.7C382.6,404.9,383.1,404.9,383.5,404.9z M301.6,312.3c-0.3,0-0.8-0.1-0.7,0.5c0.1,0.5,0.5,0.9,1,0.9
				c0.4,0,0.4-0.4,0.4-0.7C302.5,312.5,302.2,312.2,301.6,312.3z M283.9,451.4c0.1-0.3,0.9,0,0.7-0.6c-0.1-0.4-0.2-0.9-0.8-1
				c-0.5-0.1-0.5,0.4-0.5,0.7C283.3,450.9,283.2,451.4,283.9,451.4z M373.2,303.5c1.1,0,1.5,1.5,2.6,0.4
				C375,303.5,374.6,302.5,373.2,303.5z M360.1,559.5c-0.2-0.4-0.2-1-0.8-1c-0.5,0-0.8,0.5-0.8,0.9c0,0.5,0.6,0.6,1.1,0.6
				C360,560.1,360.1,559.9,360.1,559.5z M236.2,281.2c1-0.1,1.7-0.2,2.2-1.2C237.5,280,236.7,280.1,236.2,281.2z M294.3,350.6
				c0.8,0,1.4,0.8,2.2,0.2c0.2-0.1,0.2-0.4,0-0.5c-0.7-0.4-1.4-0.5-2.1,0C294.3,350.3,294.3,350.3,294.3,350.6z M223.5,431.6
				c0.3-0.1,0.9-0.2,0.9-0.7c0.1-0.4-0.3-0.5-0.6-0.5c-0.4,0-1,0-1,0.6C222.8,431.5,223,431.7,223.5,431.6z M307.9,311.2
				c0.6,0,0.5,1.4,1.4,0.7c0.3-0.2,0.3-0.7,0.1-1C308.8,310.3,308.4,311,307.9,311.2z M254,304.8c0.4-0.1,0.6-0.6,0.7-1.1
				c0-0.3-0.3-0.4-0.6-0.3c-0.5,0.1-0.9,0.3-0.9,0.9C253.2,304.8,253.4,304.9,254,304.8z M323.5,259.1c1-0.1,1.9,0.2,2.7-0.5
				c0,0,0-0.2,0-0.3c-0.8-0.3-1.6,0.1-2.4,0.2C323.7,258.6,323.7,258.8,323.5,259.1z M276.8,350.2c-1-0.2-1.6-0.7-2.1-0.1
				c-0.2,0.3,0.1,0.6,0.3,0.8C275.9,351.5,276,350.6,276.8,350.2z"/>
			<path d="M363.8,528c0.5,0.6-0.1,1.6,0.8,1.6c0.8,0,0.7-0.9,1-1.4c0.2-0.4,0.1-0.9,0.6-1.2c0.6,1.5,0,3.9-1.1,4.9
				c-0.9,0.9-2.1,1.7-2.7,2.9c-0.3,0.6-0.6,1.4-1.5,1.3c-0.4,0-0.5-0.4-0.5-0.7c0-0.9,0-1.9,0.9-2.2c1.2-0.4,1.6-1.2,1.5-2.3
				C362.8,529.9,363.5,529.1,363.8,528z"/>
			<path d="M334.6,218.6c-0.3,1.8-0.1,2,1.5,1.7c0.4-0.1,1-0.3,1.3-0.1c1.3,0.6,2.5,0.3,3.8-0.5c-0.5,2.5-1.1,3-3.4,2.9
				c-0.9,0-1.5,0.2-1.7,1.4c-0.6-1-1-1.6-1.7-2.1C332.8,220.8,332.9,219.9,334.6,218.6z"/>
			<path d="M373,512.5c0,2.3,0,4.6,0,6.9c0,1,0.4,2,0.2,3c-0.1,0.4-0.2,0.9-0.6,1c-0.6,0-0.5-0.6-0.5-0.9c-0.1-2.3-0.2-4.5-0.1-6.8
				c0-1,0.3-2.1,0.5-3.1C372.6,512.6,372.8,512.5,373,512.5z"/>
			<path d="M373.8,508.2c-0.8-2.7,0.4-5.2-0.7-7.6c-0.2-0.6,0.2-0.8,0.7-0.9c0.4-0.1,1.1-0.1,0.9,0.4
				C374,502.6,375.2,505.4,373.8,508.2z"/>
			<path d="M372.8,490c0.7,2.2,1.5,4.4,2.1,6.7c0.2,0.8-0.9,1.4-0.7,2.3c0,0-0.4,0.1-0.5,0.1c-0.3,0-0.2-0.3-0.2-0.5
				c0.2-2,0-3.9-0.9-5.9c-0.3-0.6-0.2-1.7-0.2-2.6C372.5,490.1,372.6,490,372.8,490z"/>
			<path d="M331.4,230.3c0.8-1,3.3-1.6,4.2-1.1c0.1,0.1,0.3,0.3,0.3,0.3c-0.6,0.8-1.2,1.6-1.8,2.4c0,0-0.4-0.1-0.4-0.1
				C333.6,230.4,332.5,230.4,331.4,230.3z"/>
			<path d="M336.1,225c-0.2,1.3-0.8,1.8-1.6,1.9c-1.2,0.1-2.3,0-3.4,0.5c-0.3,0.1-0.8-0.1-0.9-0.4c-0.1-0.5,0.4-0.6,0.8-0.7
				c0.8,0,1.6,0,2.4,0C334.4,226.4,335.2,226,336.1,225z"/>
			<path d="M359,497.6c0.5-0.6,1-1.2,1.4-1.7c0.3-0.4,0.7-0.3,1.1-0.2c0.3,0.1,0.5,0.3,0.5,0.7c0,0.5-0.5,0.8-0.8,0.8
				C360.6,497.3,359.9,497.9,359,497.6z"/>
			<path d="M372.7,527.4c0.2,2,0.5,4.1-0.3,6.1C372.4,531.5,372.6,529.4,372.7,527.4z"/>
			<path d="M232.3,258c-0.4-1,0-1.9,0.3-2.8c0.1-0.3,0.4-0.5,0.7-0.3c0.3,0.1,0.2,0.4,0.1,0.6C233,256.3,233.7,257.4,232.3,258z"/>
			<path d="M348,458c-0.5,0-0.6-0.3-0.6-0.7c0-0.6,0.4-1,0.9-1.1c0.4-0.1,0.4,0.5,0.5,0.8C348.9,457.6,348.5,457.9,348,458z"/>
			<path d="M238.6,330.9c2.8,0.6,5.7,0.8,8.6,0.7c1.1,0,2.1-0.4,3.1-0.8c0.7-0.3,1.3-0.6,2-0.8c1.6-0.3,2.7,0.3,3.1,1.9
				c0,0.2,0.1,0.5,0,0.6c-1.1,1.1-2,2.6-3.7,2.9c-0.6,0.1-0.9,0.1-1.2,0.7c-0.6,1-1.8,1.2-2.8,1.4c-1,0.3-2.2,0.2-3.2,0.4
				c-0.9,0.2-1-0.9-1.6-0.8c-2.2,0.2-3.5-1.7-5.3-2.3c-0.5-0.2-1-0.2-1.5-0.4c-0.5-0.2-1.4-0.2-1.4-0.8c0-0.7,0.3-1.5,1-1.9
				C236.5,331.1,237.5,330.8,238.6,330.9z"/>
			<path d="M240.6,317.6c2.5,0.1,4.1,0.7,5.7,1.1c0.4,0.1,0.7,0.5,0.7,0.9c0,0.7-0.5,1.3-1.2,1.5c-1.6,0.6-3.3,1.2-4.9,1.6
				c-2.1,0.5-4.2,0.8-6,2.1c-0.3,0.2-0.6,0.2-0.8,0c-0.3-0.3-0.2-0.6,0.1-0.8c0.4-0.4,0.6-0.9,0.4-1.5c-0.5-1.2,0.1-2,1.1-2.8
				C237.4,318.4,239.1,317.3,240.6,317.6z"/>
			<path d="M241.3,309.9c-1.2,0.8-2,1.8-3.2,2.1c-0.4,0.1-0.7,0.1-0.9-0.3c-0.1-0.3,0-0.6,0.2-0.8
				C238.3,309.5,239.6,309.6,241.3,309.9z"/>
			<path d="M255.3,518.7c0.1-0.2,0.2-0.4,0.3-0.6c0.2-0.5,0.8-0.6,1.2-0.2c0.8,0.6,1.5,0.2,1.8-0.5c0.4-1.1,1.2-1.1,1.8-0.7
				c2,1.6,4.5,1.5,6.7,2.5c0.4,0.2,0.9,0.2,0.7,0.8c-0.2,0.6-0.7,0.4-1,0.2c-0.5-0.2-0.9-0.4-1.4-0.6c-1-0.5-1.9-0.5-2.9,0.1
				c-1.5,0.9-3.1,1.3-4.7-0.1C257.1,519.1,256.2,519,255.3,518.7z"/>
			<path d="M248.8,528.4c-0.5-0.1-1.6,0.4-1.6-0.6c0-1,1.1-0.8,1.8-0.8c0.3,0,0.5,0,0.8,0c0.5-0.1,0.9-0.6,1.4-0.1
				c0.3,0.2,0.1,0.4-0.1,0.6c-0.4,0.5-0.7,1.2-1.5,0.9C249.4,528.4,249.2,528.5,248.8,528.4z"/>
			<path d="M253.8,518.9c-0.4,0-0.8,0-1.2-0.1c-0.5-0.1-1-0.4-1-1c0-0.2-0.1-0.6,0.2-0.6c0.5-0.1,0.9,0.2,1.2,0.5
				c0.3,0.3,0.7,0.6,1.1,0.8C254,518.6,253.9,518.8,253.8,518.9z"/>
			<path d="M318.1,314.5c0,3.7-0.7,7.2-1.7,10.8c-1.1-1.2-1.5-2.4-0.6-3.6c0.8-1.2,0.7-2.4,0.8-3.7
				C316.6,316.7,317.4,315.6,318.1,314.5z"/>
			<path d="M324.1,317.8c1.7,0.1,1.8,1.2,1.8,2.2c0,0.3-0.1,0.9-0.6,0.9c-0.5,0-0.7-0.5-0.7-0.9
				C324.4,319.4,324.6,318.7,324.1,317.8z"/>
			<path d="M316.2,325.9c0.5,1.1,0.6,2.1-0.1,3c-0.2,0.2-0.3,0.6-0.7,0.4c-0.3-0.2-0.1-0.4,0-0.7
				C315.7,327.7,315.9,326.8,316.2,325.9z"/>
			<path d="M324.9,312.2c-0.2-1,0.6-1.7,0.5-2.6c0-0.2,0.4-0.3,0.6-0.2c0.2,0.1,0.4,0.4,0.3,0.6C326,310.8,325.8,311.7,324.9,312.2z
				"/>
			<path d="M266.2,452.3c1,0.5,2.3,0.7,3.5,0.8c0.2,0,0.6,0.2,0.4,0.5c-0.2,0.4,0.1,1-0.5,1.2c-0.4,0.1-0.9,0.2-1.2-0.2
				c-0.9-1.4-1.9-1.8-3.4-0.9c-0.4,0.2-0.5-0.3-0.4-0.6C264.9,452.6,265.4,452.4,266.2,452.3z"/>
			<path d="M263.1,483.8c0.8-0.5,1.7-0.5,2.5-0.7c0.3-0.1,0.7-0.1,0.8,0.2c0.1,0.4-0.1,0.7-0.5,0.8
				C264.9,484.5,263.9,484.8,263.1,483.8z"/>
			<path d="M308,194.6c0.2-0.6-0.3-1.4,0.7-1.5c0.9-0.1,1.2,0.5,1.3,1.3c0,0.5,0.1,1,0.2,1.5c0.1,0.7-0.1,1-0.9,1.1
				c-0.7,0.1-1.1-0.1-1.1-0.8C308.1,195.7,308,195.1,308,194.6z"/>
			<path d="M314.8,179c0.3,0,0.6,0.2,0.7,0.5c0.1,0.3,0.1,0.7,0.1,1.1c0,0.5,1.1,0.9,0.2,1.3c-0.5,0.2-0.6-0.8-0.9-1.2
				c-0.2-0.3-0.3-0.8-0.4-1.2C314.3,179.2,314.5,179.1,314.8,179z"/>
			<path d="M302.9,457.3c-0.1-3.5,1.1-6.5,2-9.6c0.9-3,1.4-6.1,2.4-9.1c0.8-2.3,1.2-4.7,1.6-7.1c0.1-0.5,0.9-0.7,0.7-1.5
				c-0.1-0.3,0.5-0.7,1-0.4c0.5,0.3,0.9,1,0.6,1.2c-1.3,0.8-0.7,2.1-1.1,3.2c-1.5,4.6-2.3,9.4-3.4,14.1c-0.7,3-1.3,6-2,9
				c-0.1,0.2-0.2,0.5-0.2,0.7c-0.1,0.7-0.5,1.3-1.2,1.2c-0.7-0.1-0.2-1-0.3-1.5C302.8,457.4,302.9,457.3,302.9,457.3z"/>
			<path d="M311.2,437.1c1.8,0.7,1.1,2.1,0.8,3.2c-0.6,2.4-1.8,4.8-2,7.2c-0.3,3.8-2,7.3-2.2,11.2c-0.1,1.8-1.2,3.5-1.3,5.4
				c0,0.5-0.4,0.7-0.8,0.8c-0.4,0.1-0.8,0-1-0.3c-0.4-0.6,0.4-0.6,0.5-0.9c0.1-0.9,0.5-1.6,0.6-2.4c0.4-2.6,1.3-5,2-7.5
				c0.3-1.2,0.6-2.4,0.8-3.6c0.4-3.1,1.4-6.1,2.1-9.2C310.8,439.7,310.6,438.3,311.2,437.1C311.2,437.1,311.2,437.1,311.2,437.1z"/>
			<path d="M301.7,463.4c0.2-0.8,0.2-1.8,1.4-1.8c0.6,0,0.6,0.5,0.5,0.9c-0.3,0.8-0.1,2-1.4,2.1C301.6,464.6,301.6,464,301.7,463.4z
				"/>
			<path d="M310.4,419.9c2.1-1.1,4.2-0.7,6.3-0.2c0.2,0.1,0.8,0.1,0.6,0.7c-0.1,0.4-0.3,1-0.8,0.8
				C314.6,420.5,312.4,420.7,310.4,419.9z"/>
			<path d="M313.2,422.5c1.1-0.2,2.2,0.2,3.3,0.3c0.3,0,0.6,0.2,0.6,0.6c0,0.4-0.3,0.7-0.7,0.6c-1.6-0.3-3.4,0.3-5-0.4
				c-0.3-0.1-0.8-0.1-0.8-0.6c0.1-0.5,0.6-0.6,1-0.6C312.1,422.4,312.6,422.5,313.2,422.5z"/>
		</g>
	</g>
</g>
<g id="text">
</g>
<g id="guides" display="none">
</g>
<g id="scratch">
</g>
</svg>
