<?xml version="1.0" encoding="utf-8"?>
<!-- Generator: Adobe Illustrator 26.0.2, SVG Export Plug-In . SVG Version: 6.00 Build 0)  -->
<svg version="1.2" baseProfile="tiny" xmlns="http://www.w3.org/2000/svg" xmlns:xlink="http://www.w3.org/1999/xlink" x="0px"
	 y="0px" viewBox="0 0 800 800" overflow="visible" xml:space="preserve">
<g id="fill">
</g>
<g id="bg" display="none">
	<rect x="-4100" y="-100" display="inline" fill="#9FC9EB" width="10200" height="2000"/>
</g>
<g id="counters_00000155831629897369998050000010902328751353074356_">
	<g>
		<path d="M214.7,549.9c2.9-8.5,0.3-16.7,3.3-24.2c-7.2-0.9-9.4-3.8-8.6-13.6c0.3-3.2,0.1-6.5,0.9-9.8c1.3-5-1.2-8-6.5-8.3
			c-0.2,0-0.4,0-0.7,0c-9.9-1.2-17.8-0.7-21.8,11.4c-3.6,11.2-9.3,22-15.8,31.9c-3.6,5.5-3.7,12.3-9.1,17.4
			c-2.8,2.7-5.1,10-2.6,16.2c1.8,4.4-0.5,7.5-4.4,10.5c-3.8,3-6.9,2.2-10.4,0.9c-2.6-1-6.2-11.4-4.2-13c5.2-4,7-11.1,13.7-13.8
			c4-1.6,3.2-6.6,5.1-9.9c4.1-7.2,6.9-15.1,11.6-22c1.6-2.3,3.1-5.1,3.8-7.6c2.9-9.5,9.6-17.1,13.2-26c4.3-10.6,11.3-19.9,13.9-31.2
			c0.5-2.3,1.4-4.4,3.5-5.3c4.5-1.8,3-6.1,3.2-9c0.2-2.7-3.9-2.7-6.4-3.3c-8.2-1.9-16.1-1.5-24.6,0.4c-11,2.4-22.5,1-33.7-1.5
			c-6.3-1.4-12.9-1.2-19.4-1.3c-10.8-0.1-10.8,0-11.1-10.9c-0.3-10.3-0.3-10.5,10.2-11.1c14.5-0.9,29.1,1.4,43.7,0
			c3.1-0.3,6.5,0.8,9.5,2.5c10.2,5.7,21.4,3.3,32.2,3.4c2.5,0,6.4-1.9,7.5-7.3c0.8-4.1,4.4-9.7,9.7-12c-0.5-1.9-5-0.3-3.5-3.3
			c2.7-5.2-2.5-13.5,7.7-16.3c-6-1.1-7.1-4.4-6.7-8.6c1.2-14.3-1.1-28.6-0.2-42.8c0.7-12.7-2-25.5,0.9-38.4c0.6,0.4,1.2,0.6,1.5,1.1
			c1.1,1.5,0.1,5.3,3.6,4.1c2.8-0.9,2.4-4,2.3-6.4c0-3.1-2.4-2.8-4.3-2.3c-8.4,2.3-4.1-3.7-3.7-6.2c0.6-4.5,4.6-1.9,7-2.4
			c2.2-0.5,4.2,0.7,4.3,3c0.3,7.7,1.3,15.6,0.2,23.1c-1.1,8.1-0.1,15.9,0,23.9c0.1,3.9-0.2,8.2-1,12.3c-1.2,6.7-0.1,13.5-0.9,20.2
			c-0.6,5.6,3.4,11.4-0.6,17c-0.5,0.8,1.7,3,1.7,4.6c0.1,6.9-1.7,13.8,0.9,20.6c0.1,0.3-0.5,1-0.3,1.2c7.6,11.4-1,8.1-6.7,7.3
			c-0.2,0-0.4,0-0.7,0.1c-3.4,0.5-7.4-0.1-9.5,3.5c-0.8,1.4-0.3,3.1,1,4.2c3.3,2.7,7.7,2.8,10.7,0.9c7.5-4.7,6.9,0.5,6.8,5
			c-0.2,6.8,3.3,12.5,6.3,17.8c6.9,12.3,11.9,25.5,17,38.5c4,10.1,9.2,19.5,13.3,29.5c3.8,9,7.8,18,11.6,26.9
			c0.5,1.1,2.1,2.2,0.6,3.4c-1.3,1-3.1,2.1-4.8,0.6c-1-0.9-3.4-1.7-2-3.5c2.1-2.8-0.4-3.8-1.3-5.6c-5.7-11.4-12.2-22.4-16.8-34.3
			c-2.4-6.4-7.2-8.5-16.4-6.8c-4.9,0.9-6.1,4.1-7.4,9.1c-1.6,6.7,2.1,13.7-1.7,20.1c-0.7,1.1-0.9,3.2-2.1,3.7
			c-7.4,3.1-5.6,7.8-2.6,13c1.4,2.4-1.1,7.3-3.8,7.6C219.4,549.1,217.7,549.4,214.7,549.9z M220.8,429c-2.6,1-7.5,0.4-6.2,5.9
			c1.4,6,1.6,12.4,0.6,18c-1.4,7.9,0.7,15.7-1,23.5c-0.8,3.7,5.8,7,9.3,4.8c2.9-1.9,6-2.7,4-8.5c-3.6-10.8,2.4-22.8-2.7-33.8
			c-0.3-0.6,0.5-1.6,0.8-2.4C227.9,431.8,226.3,429.1,220.8,429z M209.7,466.8c-0.2-0.9,1.7-4.9-2.8-4.9c-4.1-0.1-7.7,2.7-8,6.9
			c-0.3,3.4-1.4,5.7-3.6,8c-2.3,2.5-5,5.9-4.2,8.9c0.7,2.4,5.1,1,7.8,1.6c1.7,0.4,3.5,0.4,5.2,0.2c3.8-0.5,5.9-2.1,6.6-6.6
			C211.5,476.3,209.3,472.6,209.7,466.8z M220.1,493.2c-2,0.3-4.4,0.5-4,3.2c0.4,2.5,2,4.4,4.9,4.2c2.2-0.2,5.4-0.5,5.3-2.8
			C226.1,494.8,223,493.6,220.1,493.2z M237.1,476.9c1.6-1.1,5.6,1.2,5.6-2.8c0-2.4-2.2-4.3-5.1-4c-2.3,0.3-5.2,0.1-5.4,3.5
			C232.1,476.6,234.3,477,237.1,476.9z"/>
		<path d="M293.4,570.1c1.9,3.1,6.6,0.8,6.1,4.1c-0.4,3.3-0.8,7.2-3.5,9.6c-2.2,2-5.1,2.9-7.3-0.5c-0.2-0.4-0.2-1.1-0.5-1.2
			c-8.3-3.3-5.4-11.1-6.3-17c-0.6-4-3.9-7.7-2-12c0.5-1.2-1.7-3.3,1-3.7c1.7-0.3,3.3,0.8,3.5,2.4c0.8,6.5,5.3,9.3,10.4,12.1
			C298.5,565.9,299.5,568.9,293.4,570.1z"/>
		<path d="M213.3,554.6c4.1-1.3,6.4,1.2,8.7-0.6c1.1-0.8,2.4-2.4,3.8-0.3c1,1.4-0.1,2.4-0.9,3.5c-1.7,2.4-2.1,6.2-6.3,5.6
			C213.5,562,217.1,556.7,213.3,554.6z"/>
	</g>
</g>
<g id="text">
	<g>
		<rect x="300.4" y="99.9" fill="none" width="400" height="600"/>
		<path d="M414.7,222.7c0-19.1,0.3-40.4,0.8-53h-0.8c-5.2,22.8-16.4,60-27.1,94.9H367c-8.1-30.6-19.7-72.9-24.6-95.2h-0.8
			c1,13.1,1.4,36.1,1.4,55.2v40h-22V152.9H357c8.7,29.2,18.5,65.8,21.8,82.4h0.2c2.7-14.7,15-53.8,24.3-82.4H438v111.7h-23.3V222.7z
			"/>
		<path d="M550.3,222.7c0-19.1,0.3-40.4,0.8-53h-0.8c-5.2,22.8-16.4,60-27.1,94.9h-20.6c-8.1-30.6-19.7-72.9-24.6-95.2h-0.8
			c1,13.1,1.4,36.1,1.4,55.2v40h-22V152.9h35.9c8.7,29.2,18.5,65.8,21.8,82.4h0.2c2.7-14.7,15-53.8,24.3-82.4h34.6v111.7h-23.3
			V222.7z"/>
		<path d="M689.3,264.6h-17.7c-0.9-3.4-1.5-7.3-1.8-11c-6.2,8.3-17.1,12.9-32.6,12.9c-32.4,0-50.5-24.5-50.5-56.3
			c0-33.6,19.5-58.9,54.7-58.9c28.7,0,45.7,16.2,48.4,35.3h-24.2c-2.3-7.5-8.2-16.3-24.5-16.3c-22.9,0-29.5,19.2-29.5,38.9
			c0,19.2,7.5,38.1,29.6,38.1c20.6,0,24.5-14.3,24.5-24.3v-1h-24.5v-19.8h48.2V264.6z"/>
		<path d="M470.3,459v-24h-48.2v-20.2l44.5-62.4h25.3v63.9h12.8l-2.1,18.8h-10.7v24H470.3z M470.3,397.3c0-11.6,0-18,0.5-24.7
			c-4.2,8.9-18.1,29.2-28.1,43.7h27.7V397.3z"/>
		<path d="M556.3,407.2v20.2h-45.1v-20.2H556.3z"/>
		<path d="M580.3,459v-79.7c-4.9,2.3-14,4.2-19.3,4.6v-17.3c10.1-1.9,20.3-7.6,26.4-14.3h16.4V459H580.3z"/>
		<path d="M617.5,459v-1.5c0-18.6,8.3-33.7,31.4-50.5c15-11,19.6-14.8,19.6-24.1c0-9.2-4.5-14.4-13.5-14.4
			c-10.4,0-14.2,6.4-15.7,15.7H617c1.5-18.4,13.6-33.7,38.1-33.7c27.4,0,36.8,16.3,36.8,32.3c0,15.5-6.7,23-26.3,36.8
			c-13.1,9.2-18.4,15.3-20.2,20.1h50.5l-2.9,19.3H617.5z"/>
		<path d="M466.1,541.7h48.8c27,0,37.2,14.1,37.2,28.6c0,12.6-6.7,20.8-14.2,24.2c7.5,2.8,17.4,10.8,17.4,25.5
			c0,19.1-15,33.4-38.8,33.4h-50.4V541.7z M512.1,585.7c11.5,0,16.2-5.2,16.2-13c0-8.2-6.2-12.4-15.5-12.4h-23v25.4H512.1z
			 M489.8,634.7h21.8c13,0,19-5.5,19-15.6c0-9-5.8-14.7-19.1-14.7h-21.7V634.7z"/>
		<path d="M580.3,653.4v-79.7c-4.9,2.3-14,4.2-19.3,4.6V561c10.1-1.9,20.3-7.6,26.4-14.3h16.4v106.7H580.3z"/>
		<path d="M617.5,653.4v-1.5c0-18.6,8.3-33.7,31.4-50.5c15-11,19.6-14.8,19.6-24.1c0-9.2-4.5-14.4-13.5-14.4
			c-10.4,0-14.2,6.4-15.7,15.7H617c1.5-18.4,13.6-33.7,38.1-33.7c27.4,0,36.8,16.3,36.8,32.3c0,15.5-6.7,23-26.3,36.8
			c-13.1,9.2-18.4,15.3-20.2,20.1h50.5l-2.9,19.3H617.5z"/>
	</g>
</g>
<g id="guides" display="none">
</g>
<g id="scratch">
</g>
</svg>
