<?xml version="1.0" encoding="utf-8"?>
<!-- Generator: Adobe Illustrator 26.0.2, SVG Export Plug-In . SVG Version: 6.00 Build 0)  -->
<svg version="1.2" baseProfile="tiny" xmlns="http://www.w3.org/2000/svg" xmlns:xlink="http://www.w3.org/1999/xlink" x="0px"
	 y="0px" viewBox="0 0 800 800" overflow="visible" xml:space="preserve">
<g id="bg">
</g>
<g id="scans" display="none">
	<image display="inline" width="605" height="623" xlink:href="354EF4F1.jpg"  transform="matrix(1.2841 0 0 1.2841 11.557 0)">
	</image>
</g>
<g id="counters_00000155831629897369998050000010902328751353074356_">
	<g id="ge-ldr_00000157303995029779989790000010708257118571629452_">
		<path d="M234.2,278c0.1-0.2,0.3-0.4,0.2-0.5c-0.2-0.7-1.4-1.4,0-2.2c0.8-0.4,1.3-1.3,2.3-1.3c0.5,0,1-0.2,1.2-0.8
			c0.2-0.7-0.3-0.9-0.7-1.2c-0.8-0.8-1.9-1.3-1.7-2.6c-1.7-0.7-1.3-2.4-1.8-3.7c-0.6-1.5-0.2-3-0.4-4.4c-0.4-2.5,1-4.3,1.6-6.2
			c0.5-1.7,1.8-3.5,2.3-5.2c0.8-2.3,2.6-3.5,4.1-5c1.3-1.4,3.2-2.4,5.3-2.6c0.6-0.1,1.2-0.2,1.7-0.6c2-1.6,4.3-2.1,6.7-2.2
			c1.2-0.1,2.4-0.2,3.5-0.3c2.1-0.2,2.6,0.1,3.1,2c0.2,0.8,0.6,1.2,1.3,1.2c0.4,0,1.1,0.2,1.2-0.4c0.2-0.6-0.5-0.5-0.8-0.6
			c-0.4-0.2-0.5-0.5-0.2-0.9c0.3-0.4,0.8-0.6,1.1-0.2c1.5,1.8,3.9,1.4,5.7,2.7c0.8,0.5,1.9,0.5,2.8-0.6c0.7-1,2-1.5,3-2.2
			c1.3-1,2.9-1.7,4.4-2.5c1.6-0.9,3-2.2,4.2-3.5c1-1.1,1.2-3.1,1.7-4.7c0.3-1,0.7-1.8,1.9-2c1.5-0.2,2.4-2.3,1.9-3.7
			c-0.9-2.4-0.9-2.4-3.5-2.4c-2.3,0-4.6-0.1-6.9,0.3c-0.6,0.1-1.3,0.3-1.7-0.4c-0.4-0.7,0.2-1.2,0.4-1.6c2-3,3.1-6.4,4-9.8
			c0.5-1.8-0.7-3.6-0.9-5.4c-0.1-0.7-0.3-1.4-0.5-2.1c-0.3-0.9-0.2-1.4,1.1-1c-1.6-0.8-1.6-1.9-1.7-3.3c-0.2-2-0.5-4-0.4-6.1
			c0-1.2,1-2.2,0.4-3.4c-0.2-0.4,0.4-0.2,0.7-0.4c0.3-0.2,0.5-0.7,0.2-0.7c-1.6-0.1-0.5-1-0.4-1.4c0.4-1.4,0.6-2.9,1.1-4.3
			c0.7-2.3,2.3-3.9,3.9-5.6c0.7-0.8,1.2-1.8,3-1.4c-1.4-0.9-1.1-1.5-0.3-2c1.2-0.8,2.6-1.4,3.1-2.9c0.2-0.4,0.7-0.6,1.2-0.7
			c0.4,0,0.8-0.1,1.2-0.3c4-1.8,8.1-2.1,12.5-1.9c2.3,0.1,4.6,0.1,6.9,0.1c4.7,0,9.3,1.1,13.6,3.3c2.2,1.2,4,2.8,6,4.2
			c1.1,0.8,2,2.1,2.8,3.3c0.5,0.7,0.9,1.6-0.7,2.1c1.9,0,2.2,1.1,2.6,2.5c0.4,1.3,0.9,2.7,1.5,3.9c1.1,2.1,0.9,4.4,1.5,6.5
			c0.4,1.6,0.5,3.4,1.9,4.7c1,1,2.2,1.9,3.2,2.8c0.3,0.3,0.6,0.5,1,0.7c0.9,0.6,1.5,1.5,1.3,2.4c-0.3,1.1-1.6,0.9-2.5,1
			c-1.6,0.2-3.3,0.3-4.9,0.5c-1.3,0.2-2,0.6-2,2.3c0,1.2,0.5,2.7-0.8,3.8c-0.2,0.2,0,1.3,0.5,1.9c0.4,0.4,1,1.1,0.5,1.3
			c-0.7,0.3-1.7,0.6-2.4-0.2c-1.3-1.6-1.2-1.5-2.9-0.2c-0.9,0.6-1.7,1.7-3.1,1.5c-0.5-0.1-0.9,0.3-1.2,0.8c-0.2,0.3-0.6,1-1,0.7
			c-0.6-0.4,0-0.9,0.1-1.3c0.3-1.2,0.6-2.3,2.1-3c-1.9-0.4-2.4-0.1-2.9,1.6c-0.4,1.3-0.6,2.8-2.6,2.4c-0.2,0-0.5,0.1-0.5,0.2
			c-0.4,1.5-1.6,1.4-2.7,1.6c-2.3,0.5-3.5,2.3-3.7,4.9c-0.2,2.7,0.7,4.9,2.7,6.7c0.4,0.3,0.9,0.5,1,1.1c0.4,1.5,3,4.8,4.7,5.1
			c2.5,0.4,5,2.1,7.6,0.3c0.4,1.5-0.3,2.1-1.5,2.5c-1.7,0.5-3.5,0.4-5.2,0.5c-2.2,0.2-4.3,0.6-5.9,1.9c-1.2,1-2.6,2.3-3,4
			c-0.1,0.5-0.2,1.1,0.2,1.5c1.4,1.2,2.6,2.5,4.3,3.4c0.9,0.5,1.8,1,2.7,1.6c0.4,0.3,1.3,0.7,0.4,1.5c-0.2,0.2-0.1,0.3,0.8,0.4
			c0.5,0.1,1.3-0.1,0.6,0.8c-0.2,0.3,0,0.3,0.2,0.4c1.2,0.1,1.6,0.8,2.1,1.8c0.6,1.1,1.6,2,2.5,2.8c1.9,1.7,3.5,3.7,5.1,5.6
			c1.5,1.7,2.9,3.7,4.3,5.6c1.3,1.8,2.8,3.5,4.3,5.1c1,1.1,1.6,2.6,3.2,3.2c-0.3,1.3,0.8,1.9,1.5,2.5c1.3,1,1.8,2.6,3.3,3.5
			c1.1,0.7,2,0.6,3,0.1c1.3-0.6,2.6-0.9,4-0.7c0.9,0.1,1.5,0.6,1.8,1.5c0.5,2.1,2.3,3.3,3.5,4.9c0.7,0.9,5,0.6,6.3-1
			c1.8-2.1,4-2,5.7,0.1c0.5,0.6,1.3,1,1.5,2.1c-1.4-1-2.5-2.2-4.4-1.6c-0.7,0.2-1.2,1-2.1,0.8c-0.2,0-0.7,0.2,0,0.6
			c1,0.6,1.5,1.5,1.1,2.8c-0.6,1.9-0.1,2.7,1.5,3.2c0.9,0.3,2.6-0.5,2.7-1.3c0.1-1.3,1.2-2.2,1-3.9c3.2,2.5,3.5,6.2,5.4,9
			c-0.8-0.4-1.3-0.9-2.3-0.5c-0.7,0.3-0.8-0.6-0.6-0.9c0.7-1.6-0.3-2.9-0.7-4.2c-0.2-0.5-0.6-0.8-1.1-0.7c-0.5,0-0.6,0.4-0.7,0.8
			c-0.4,1.4-1.4,2.6-1.5,4.3c-0.1,1.9-0.5,3.9-0.8,5.8c0,0.2,0.1,0.5,0,0.8c-0.1,0.4-1,0.6-0.4,1.1c0.5,0.5,1.2,0.7,2,0.5
			c1-0.3,1.6-1,2.5-1.7c0,1-0.4,1.5-0.9,1.9c-0.7,0.7-1.2,1.6-0.9,2.6c0.3,1.3,2.1,1.7,3.4,0.8c0.7-0.5,1.3-1,2.1-1.6
			c0,0-0.1,0.2-0.2,0.4c-0.2,0.5-0.9,1-0.1,1.6c0.6,0.5,1.3,0.5,1.9,0.1c0.6-0.4,1.2-0.9,0.8-1.8c-0.2-0.5-0.2-1.1-0.2-1.7
			c-0.2-1.4-0.7-1.7-2.1-1.1c0-1.7,0-3.4,0-4.9c2.2,3,3,5.5,3,8.3c0,1.2-1,1.9-1.3,2.9c-0.6,2.1-1,4.2-2.3,6.1
			c-0.8,1.2-3.7,2.7-5.9,2.6c-0.1,0.3,0.1,0.4,0.3,0.4c1.6,0,1.2,0.9,0.4,1.4c-0.8,0.6-0.7,1.1-0.3,1.8c0.7,1.4,0.8,2.9,0.8,4.4
			c0,0.3-0.2,0.5-0.4,0.8c-1.6,2.3-3.8,3.7-6.1,5.2c-0.7,0.4-1.3,0.8-1.4,1.7c-0.2,1.5-1.3,2.5-1.9,3.8c-0.7,1.4-2.6,1.8-4.1,1.8
			c-2.1,0.1-3.8,1.4-5.8,1.8c-2.4,0.4-4.5,1.9-7.1,1.9c-0.9,0-1.9,0.4-2.3,1.4c-0.3,0.7-0.9,0.6-1.4,0.9c1.3,1.1,0.9,2.7,1.4,4
			c0.5,1.2,0.7,2.5,1.1,3.8c0.3,1.3,0.3,2.4-0.2,3.7c-0.8,2-0.2,4,0.2,6c0.5,2.3,1.3,4.6,0.9,7c-0.3,1.7-1.2,3.2-2,4.7
			c-0.5,1-1.1,1.8-0.3,2.9c0.3,0.5,0.4,1.3,0.2,1.9c-0.5,2.3-1.1,4.6-1.7,6.9c0,0.1-0.2,0.3-0.3,0.4c-1.4,0.6-1.8,1.4-1,2.9
			c0.7,1.4,1.2,3.1,1.5,4.5c0.4,1.7,1,3.2,1.7,4.8c0.5,1-0.9,0.8-0.9,1.3c3.6,1.7,7.5,0.5,11.3,1.2c1.9,0.4,3.9-0.2,5.8,0.2
			c3.2,0.7,6.4,0.1,9.7,0.6c1.2,0.2,2.6,0.2,3.6-0.9c0.4-0.5,1-0.9,0.9-1.8c-0.4-2.2,1.6-3.9,3.8-3.1c0.4,0.1,0.8,0.3,1.3,0.3
			c2,0.1,2.8,1,2.5,3c-0.1,0.3,0,0.8-0.1,1c-0.9,1.6-0.2,2.3,1.1,3.2c0.7,0.4,0.8,1.7,0.5,2.8c-0.4,1.7-1.2,2.5-3.1,2.3
			c-2.7-0.3-5.4-0.1-8.1-0.3c-2-0.2-3.5,1.1-5.3,1.8c-1.6,0.7-3.1,1.8-4.9,2c-1.3,0.1-3.2-1.1-3.4-2.3c-0.1-0.7-0.4-0.7-1-0.8
			c-3.9-0.3-7.8-0.4-11.7-0.1c1.2,2.2,1.3,4.5,0.1,6.6c-1.2,2.1-0.3,3.9,0.4,5.6c0.6,1.4,0.6,3,1.4,4.4c0.4,0.7-0.6,0.6-1,1.1
			c2.5,0.3,2.3,2.6,3.1,4.1c0.3,0.5,1.1,1.4,0.3,2.3c0.4,0.1-0.1,1,0.6,0.8c0.5-0.1,0.6,0.2,0.5,0.5c-0.3,1.7,1.9,2.8,1,4.7
			c1.7,0.9,1.2,2.8,1.9,4.1c1.7,2.9,2.2,6.2,3.2,9.3c0.6,2.1,0.7,4.4,1.6,6.4c1,2,1.2,4.1,1.7,6.1c1,4,2,8,2.9,12
			c0.4,1.5,0.6,3.1,1.7,4.4c0.3,0.4,0.6,0.8,0.1,1.4c-1.5-1.2-1.7-3-2.2-4.6c-0.3-0.8-0.5-1.7-1-2.4c-0.9-1.1-0.7-2.5-1.2-3.7
			c-1.1-2.6-0.4-5.8-2.6-8c-0.4-0.4-0.7-1-0.7-1.7c0-1-0.2-1.8-0.8-2.7c-0.4-0.5-0.5-1.2-0.3-2c0.4-1.5-0.2-3-1-4.2
			c-1.2-2-2.3-3.9-2.7-6.3c-0.4-2.2-1.7-4.4-2.9-6.4c-0.6-1-0.8-2-1-3c-0.3-1.9-1.5-2.6-3-1.5c-1.1,0.8-2.8,0.9-3.4,2.5
			c-0.3,0.7-0.9,0.5-0.9-0.3c0-1-0.3-2,1-2.5c0.2-0.1,0.5-0.3,0.5-0.5c0.1-2,2-3.3,2.4-5.2c0-0.2,0.2-0.6,0.1-0.7
			c-1.1-1-0.8-2.7-1.8-3.7c-0.5-0.5-1.1-0.6-1.4,0c-0.5,1-1.7,1.3-2.2,2.2c-0.2,0.3-0.5,0.4-0.8,0.3c-0.4-0.1-0.3-0.5-0.3-0.8
			c0.1-1.4-0.6-2.7-0.4-4.1c0.1-0.5-0.7-0.9-1.3-0.8c-0.6,0.1-0.8,0.6-0.7,1.2c0.1,0.8,0.3,1.8,0.7,2.4c0.8,1.5,0.8,2.8,0.3,4.4
			c-0.7,0-0.5-0.7-0.8-1c-0.2-0.3-0.4-0.4-0.8-0.4c-0.3,0-0.4,0.3-0.5,0.5c-0.1,0.5,1.3,3.5,1.7,3.6c0.4,0.1,0.8,0.1,1.1,0.1
			c0.1,0.5-0.3,0.5-0.5,0.7c-1.1,1-1.2,2.1-0.2,3.2c0.8,0.9,0.4,2.2,1.3,3.1c1.1,1.1,1.7,2.4,0.5,3.8c-0.1,0.1-0.1,0.2-0.3,0.7
			c-0.3-1.3-1.3-1.8-1.4-2.9c0-0.5-0.6-1.1-1.1-1.5c-0.7-0.6-1.5-0.6-1.7,0.6c-0.2,0.8-0.2,1.6-1.3,1.9c-0.3,0.1-0.5,0.5-0.3,0.9
			c0.3,0.5,0.7,0.8,1.3,0.7c1.5-0.4,2.2,0,2.1,1.7c-0.1,0.8,1,1,1.4,1.7c0.5,1.1,1.5,1.9,0.4,3.2c-0.5,0.6-0.2,1.6,0,2.4
			c0.5,1.8,0.5,1.8-1.3,1.9c1.7,1.7,2.7,3.8,3.9,5.7c0.6,1,0.5,2.3,1.2,3.3c0.4,0.5-0.3,0.9-0.8,1c-0.7,0.2-0.9,0.5-1.2,1.3
			c-0.6,1.7-0.7,3.6-1.8,5c-0.6,0.8-0.1,1,0.2,1.2c0.5,0.2,0.7,1.3,1.6,0.5c0.8-0.7,0.9-1.8,1.2-2.7c0.5,0.3,0.4,0.6,0.3,0.9
			c-0.8,2.6,0.1,4.9,1.4,7c0.3,0.5,0.6,1.1,1.4,1c0.1,0,0.3,0,0.3,0c1.3,2,3.5,1.6,5.5,2.1c0.3,0.1,0.7,0.2,0.7,0.5
			c0,0.4-0.4,0.4-0.6,0.6c-1.7,1.6-3.1,0.2-4.5-0.4c-1.6-0.6-3-1.2-4.5,0.3c-0.6,0.6-1.7,0.4-2.6,0.4c-0.4,0-0.8-0.2-1,0.1
			c-0.4,0.5-1.4,0.8-1.2,1.5c0.2,0.8,1.1,1.1,1.9,1c2.3-0.4,4.4,0.5,6.7,0.8c0.6,0.1,1.3,0.3,1.8,1c0.6,0.9,1.7,0.4,2.6,0.3
			c0.8-0.1,1.5,0.1,2.3,0.1c0.3,0,0.9,0.2,0.8,0.6c-0.1,1-0.6,2-1.3,2.5c-0.7,0.5-1.9,0.6-2.5-0.6c-0.5-1-1.4-1-2.2-0.8
			c-1.4,0.2-2.5,0-3.7-1c-2.7-2.2-5.9-2.1-8.1,0c-0.1,0.3,0.2,0.3,0.4,0.4c2,0.9,2,1,0.4,2.5c-0.5,0.4-0.4,0.6,0.1,0.8
			c0.9,0.4,2.6-0.2,3.2-1.2c0.7-1.3,1.6-1.6,2.9-0.6c0.5,0.4,0.9,0.4,1.5,0.4c1.5-0.1,2.9,0.6,4.3,0.8c0.3,0.1,0.8,0.3,0.7,0.7
			c-0.2,0.5-0.7,0.5-1.2,0.3c-2.2-0.6-4.4-1-6.7-0.8c-0.8,0.1-1.4,0.5-1.7,1.1c-0.2,0.5,0,1.4,0.4,1.5c1.1,0.2,2.1,0.8,3.3,0.6
			c2.1-0.3,4.3-0.6,6.3,0.4c1,0.5,1.8,0.6,2.9,0c1.2-0.7,2.7-0.8,3.9-1.6c0.5-0.3,1.5-0.6,2.2,0.3c0.2,0.2,0.8,0.1,1.2,0.2
			c0.3,0,0.6,0.1,0.9,0.2c-0.3,1.5,1.3,0.9,1.7,1.7c0.4,0.8,0.9,1.8,0.4,2.4c-1.4,1.7-0.9,4.1-2.1,5.8c0,0,0.3,0.9,0.4,1.5
			c0.1,0.5,0.4,0.8-0.3,1.1c-0.4,0.1-0.1,0.2,0.1,0.4c0.8,0.6,1.1,1.4,0.5,2.2c-0.5,0.7-0.7,1.2-0.4,2c0,0.1,0.1,0.4,0.1,0.4
			c-1.4,1.5,0.3,3.9-1.5,5.4c-0.5,0.4,0.5,0.4,0.7,0.7c0.1,0.3,0.3,0.6,0.2,0.8c-0.2,0.4-0.5,0.1-0.8,0c-1.2-0.5-1.7-2.3-0.9-3.4
			c0.3-0.4,0.5-0.8,0.7-1.2c0.4-0.6-0.2-1-0.6-0.9c-1,0.2-1.8,0.1-2.6,1.5c-1.7,2.7-1.9,6.2-4.6,8.4c-1.7,1.4-1.4,4-1.7,6.1
			c0,0.3,0.3,0.4,0.6,0.3c0.4,0,0.6-0.2,0.5-0.6c-0.1-0.7-0.2-1.8,0.6-1.7c0.8,0.1,0.5,1.3,0.4,2c-0.5,3.4-1.3,4.1-4.9,4.2
			c-1.1,0-2,0.4-2.9,0.9c-0.5,0.2-1.1,0.3-1.3-0.1c-0.3-0.5,0.2-1,0.6-1.2c1.5-1,2.4-2.6,3.9-3.7c0.8-0.6,0.6-1.9,0.5-2.9
			c-0.1-0.4-0.6-0.5-1.1-0.3c-0.6,0.3-1.1,0.5-1.6,0.9c-0.9,0.7-1.9,1.3-3.1,1.1c-1.5-0.2-2.3,1-3.1,1.8c-0.7,0.7-1.3,1-2.3,0.8
			c-2.3-0.5-5,1.1-5.9,3.8c-0.3,0.7,0,1,0.3,1.4c0.4,0.5,1,0.9,1.6,0.5c1.4-0.8,2.9-1.2,4.5-1.3c0.5,0,1-0.1,1-0.9
			c0.1-0.7,0.8-1.1,1.4-0.6c0.4,0.3,1.4,0.6,0.4,1.5c-0.4,0.3-0.3,1.1-0.6,1.7c-0.6,1.1-1.3,1.6-2.5,1.8c-2.1,0.3-2.7,3.2-1.7,4.6
			c0.5,0.7,1,1.2,1.5-0.1c0.2-0.6,0.4-1.3,1.4-0.4c0.5,0.4,1.6,0.4,2.3,1c0.4,0.4,0.9-0.3,1.2-0.9c0.5-1.2,3.2-2.5,4.3-2
			c0.8,0.3,0.3,1,0.2,1.5c-0.1,0.5-0.5,1.1,0.3,1.2c0.6,0.1,0.7-0.5,0.8-0.9c0.1-1.2,0.7-2.1,1.6-2.9c0.2-0.2,0.4-0.4,0.4-0.6
			c-0.1-1.4,0.9-1.3,1.8-1.4c1.1,0,1.5,0.4,1.6,1.5c0.1,0.7,0.4,1.5,0.5,2.2c0.1,1.6-1.3,2.2-2.2,3.1c-1.6,1.6-3.4,3-5.6,3.8
			c-0.3,0.1-0.5,0.4-0.4,0.7c0.2,0.5,0.3,1.1,0.9,1.1c0.5,0,1.3,0.3,1.5-0.5c0.4-1.7,1.4-2,2.8-1.3c0,0.1,0,0.2,0,0.2
			c-0.3,0.5-0.8,0.9-0.5,1.5c0.1,0.3,0.4,0.2,0.7,0.2c0.7-0.1,1.7-0.2,1.8-0.9c0.2-2.2,2.2-1.9,3.4-2.4c0.7-0.3,1.4-0.2,1.5-1.3
			c0.1-1.2,1.4-1.1,2.2-1.6c0.2-0.1,0.6,0.2,0.4,0.6c-0.1,0.4-0.3,0.8-0.5,1.1c-0.3,0.5-1.1,0.7-0.8,1.5c0.3,1,1.1,1.7,1.8,2.4
			c0.8,0.7,2.3-0.3,3-1.7c1.1-1.9,2-3.9,1.8-6.2c-0.1-1.3-1.4-2.2-2.5-1.4c-0.7,0.5-1.2,0.5-1.8,0.1c-1.2-0.7-2.5-0.1-3.9-0.3
			c0.3-1-0.1-2.4,1.4-2.8c0.2,0,0.3-0.3,0.3-0.5c0.7-2.7,2.6-4.5,4.9-5.7c1.5-0.8,2-2.3,3.3-3.7c-0.5,2.3-1.1,4.3-0.9,6.3
			c0.3,2.8-0.5,5.7,0.1,8.5c0.2,1.2-0.3,2.4-0.5,3.5c-0.4,2.3-0.3,4.5-0.2,6.7c0.1,1.5-1.2-0.1-1.4,0.7c2.5,1.2,0.1,2.5-0.4,2.7
			c-2.7,1.6-2.7,4.2-2.9,6.7c-0.1,1-0.4,1.3-1.4,1.2c1.2,0.2,1.7,0.7,1.1,1.8c-0.5,1.2,0.3,2.4,0.1,3.6c-0.3,2.1-0.5,4.3-0.2,6.4
			c0.2,1.4,0.4,2.9,0.4,4.2c-0.1,3.3-0.7,6.6-0.9,10c-0.1,1.6-0.2,3.2,0.2,4.9c0.4,1.8-0.3,3.4-1.8,4c0,0.5,1.3-0.1,0.8,1
			c-0.3,0.6,1.5,0.7,0.8,1.7c1.7,1.7,2.3,4.2,4.2,5.7c1.4,1.1,3,2,4.6,3c0.2,0.1,0.6,0.3,0.6,0.4c0.1,2.1,2.2,1.4,3.2,2.2
			c1.2,0.9,2.4,1.4,3.8,1.7c3.1,0.7,6.3,1,9.4,1.2c3.3,0.3,5.8,2.2,8.1,4.3c0.7,0.6,1.1,2.2,0.5,3.6c-0.2,0.6-0.6,1.4,0.3,2.1
			c0.6,0.5-0.3,2.8-1.4,3.2c-2.4,1-4.8,2-7.5,2.1c-2.3,0-4.3,1.1-6.5,1.7c-3.1,0.7-6.1,1.2-9.2,1.4c-3.3,0.2-6.4-0.3-9.5-0.6
			c-2-0.1-3.9-1.2-5.9-1.5c-1.9-0.3-3.8-0.1-5.8-0.4c-0.8-0.1-1.8,0.5-2,1.6c-0.2,1-0.7,1.4-1.8,1.5c-5.4,0.8-10.6-0.4-15.8-1.5
			c-1.1-0.2-2.2,0-3.3-0.4c-1.2-0.5-2-1-2.1-2.6c0-1.6-0.8-3.3,1.5-4c-0.7-0.5-1-0.1-1.4,0c-0.5,0.2-0.7-0.1-0.7-0.5
			c0.1-4,0-7.9-0.4-11.9c-0.1-1.1,0.6-2.1,1.2-2.9c0.4-0.5,0.5-0.7,0.4-1.2c-0.3-2.3,1.2-4.2,1.4-6.4c0.1-1.8,0.6-3.6,0.2-5.4
			c-0.3-1.4-0.1-2.9,0.1-4.4c0.1-0.9,0.2-2,0-2.8c-0.3-1,0.4-2-0.4-3c-0.3-0.3-0.2-1.9,1.4-1.5c-0.3-0.7-1.5-0.8-1-1.8
			c0.4-0.9,0.9,0.6,1.4-0.1c-0.1-0.6-0.6-0.4-1-0.4c-0.5-0.1-0.8-0.3-0.7-0.8c0.3-2.1-0.7-4.1-0.6-6.2c0.1-2.3,0.2-4.6,0-6.8
			c-0.3-3.2-0.2-6.7-2-9.7c-0.3-0.5-0.6-0.8-1.1-1c-1.7-0.8-2.8-2-3.1-4c-0.1-0.5-0.6-1.2,0.4-1.5c0.1,0,0.2-0.3,0.2-0.4
			c-0.7-2.9-0.1-5.8-0.6-8.7c-0.5-2.9-0.4-5.8-0.7-8.7c-0.2-1.6-0.5-3.4,0-5.1c0.4-1.4-0.8-2.9,0.3-4.3c-1.1-0.9,0-2-0.4-3
			c-0.4-1.1-0.2-2.2-0.3-3.4c0-1.1-1-1.8-1.3-2.7c-0.9-2.5-0.2-4.9,0.8-7.2c0.6-1.4,0.7-2.5-0.5-3.5c-2.6-2.1-2.4-5.2-0.2-7.7
			c0.5-0.5,0.4-2.3-0.2-2.6c-1.4-0.8-2.4-1.7-2.8-3.3c-0.3-1.3-1.6-2-2.3-3.2c-0.8-1.4-1.4-3-2.2-4.4c-0.3-0.5-0.4-1-0.9-1.4
			c-0.2-0.2-0.5-0.4-0.1-0.7c0.7-0.6,0.7-0.6-0.1-1.1c-0.9-0.6-1.5-1.1-1.6-2.5c-0.1-1.9-1.3-3.4-2.9-4.6c-0.6-0.5-1.1-0.2-1.4,0.4
			c-0.9,1.9-2.4,3.5-2.5,5.8c0,0.1-0.1,0.3-0.2,0.4c-1.4,0.9-1,2.6-1.6,3.9c-1.3,2.8-1.5,5.8-1.7,8.8c-0.1,1.3-1.1,2.4-1.4,3.5
			c-0.4,1.3-0.9,2.6-1.4,3.8c-0.7,1.8-1.3,3.8-2.8,5.1c-0.4,0.4-0.7,0.8-0.8,1.2c-0.2,1.7-1,3.1-1.5,4.7c-0.5,1.5-1.2,3-1.8,4.4
			c-0.8,2-2.5,3.5-3.4,5.2c-0.9,1.7-2.8,2.6-3.2,4.6c0,0.2-0.4,0.3-0.6,0.5c-2.2,1.5-3,3.8-3.3,6.3c-0.3,2.8-1.8,5.1-3.3,7.3
			c-0.4,0.6-1.4,1.2-2.1,1.4c-2.2,0.6-2.3,2.6-3.3,4.1c-0.9,1.4-1.9,2.9-2.7,4.3c-1.1,2-2.8,2.6-4.5,3.7c-1.5,0.9-3,1.2-4.5,1.8
			c-2.7,1-3.3,3.9-4.8,6c-1.9,2.8-3.3,5.9-5.4,8.7c-0.5,0.6-0.7,1.4-1.6,1.6c-0.1,0-0.2,0.1-0.2,0.1c0.3,2.4-1.5,4.1-2.1,6.3
			c-0.1,0.4-0.4,0.8-0.8,0.9c-0.6,0.2-0.8,0.3-0.3,0.8c0.2,0.2,0.1,0.5-0.2,0.7c-1.9,1.8-2.3,4.6-3.7,6.7c-1.3,1.9-1.5,4.7-4.3,5.6
			c-0.9,0.3-0.7,1.1-0.4,1.7c0.4,0.8,0.5,1.7,0.6,2.5c0.1,0.9,0.2,1.8-1.1,2.2c1.3-0.2,1.9,0.6,2.1,1.2c0.7,1.7,1.9,3.1,2.9,4.6
			c0.9,1.3-0.8,1-0.8,1.8c2.3-0.6,1.4,1.8,2.4,2.5c0.9,0.7,0.6,1.9,1.1,2.8c1.3,2.3,3.4,3.6,5.5,4.9c2.6,1.6,5.5,2.6,7.6,5.2
			c1.5,1.8,3,3.4,3.2,5.7c0.1,1.2,0.4,2.4-0.2,3.6c-0.4,0.8-0.3,1.8-0.5,2.8c-0.4,1.7-1.5,2-2.7,2.1c-3.4,0.2-6.7,0.3-10.1,0.1
			c-1.3-0.1-2.7-0.3-4,0.2c-0.8,0.4-1.3-0.4-2-0.6c-1.9-0.6-3.9-0.5-5.6-1.3c-1.5-0.7-3-1.5-4.1-2.7c-0.2-0.3-0.5-0.6-0.8-0.7
			c-3.1-0.6-4.8-3.2-7-5.1c-1.8-1.5-3.7-2.8-5.2-4.6c-1.3-1.6-3.4-2.3-4.9-3.8c-0.7-0.7-2-0.2-3-0.3c-2.4-0.2-4.4-0.6-6.4-2.4
			c-2-1.7-3.9-3.4-5.6-5.4c-1.3-1.5-2.8-2.9-3.3-5c-0.1-0.6-0.2-1.2,0-1.6c1-1.8,1.5-3.9,2.2-5.8c0.4-1.2,1.4-2.3,2-3.5
			c1-2.2,2.8-3.7,3.9-5.7c0.6-1.1,1.7-2,3-2.5c1-0.4,1.4-0.9,1.7-2.2c0.3-1.6,0.6-3.5,2-4.8c0.4-0.4,0.6-1,0.7-1.5
			c1.3-4.3,2.6-8.6,4.2-12.8c0.6-1.5,1.2-3.1,1.6-4.8c0.4-1.7,1.2-3.3,2-4.9c0.7-1.4,0.9-3,1.8-4.3c0.9-1.3,1.4-2.9,2.8-3.9
			c0.8-0.5,0.5-1.9,1.2-2.7c0.9-1.2,1.3-2.6,2.1-3.8c0.6-0.8,0.5-1.7,0.6-2.6c0-0.7,0.3-1.3-0.5-2.2c-1.2-1.4-1.3-3.7-1-5.8
			c0.2-1.7,0.9-3,2.4-4c0.1-0.1,0.2-0.1,0.2-0.2c1-3.1,3.9-5.5,3.9-9.1c-0.1-2.7,1.6-4.5,3-6.5c0.1-0.1,0.4-0.2,0.4-0.3
			c0.2-1.9,0.8-3.4,1.9-4.9c0.1-0.2,0.3-0.4,0.3-0.7c0.5-2.7,2.2-4.6,4.1-6.3c0.6-0.5,1.1-1.1,1.3-1.8c0.4-1.6,2-2.5,2.3-4.1
			c0.1-0.5,0.4-1,0.3-1.6c-0.4-2.2,0.5-4.1,1.4-6c0.7-1.5,0.3-2.6-1.3-3.2c-2.3-0.8-3.9-2.4-5.5-4.1c-2.6-2.7-5.3-5.3-6.8-8.9
			c-0.3-0.8-1.1-1.3-1.6-2c-0.4-0.6-1.2-1.3,0.3-1.9c-1.3,0-1.7-0.7-2.1-1.5c-1.4-2.8-2.8-5.7-4.2-8.5c-0.9-2-2.2-4-2.7-6
			c-0.8-3.1-2.6-5.7-3.3-8.8c-0.3-1.7-1.5-2.4-3.2-2.8c-3.7-0.9-6.5-4.4-6.1-7.8c0.1-1,0.4-1.9,1-2.7c0.9-1.2,1.7-2.6,2.9-3.5
			c2.3-1.8,2.3-4.1,2.1-6.6c-0.2-2.5-0.6-4.9-0.8-7.4c-0.2-1.9,0.1-3.9-0.3-5.9c-0.2-0.7,0.6-1,1.3-1.2c-0.7-0.4-1.4-0.8-1.4-1.6
			c0-1.1-1.5-1.5-1.1-2.8c0.3-0.9,0.6-1.4,1.6-0.9c1.2,0.6,2.1,0.3,3-0.6c1-0.9,2.6-0.9,3.4-2.3c0.3-0.6,0.9-0.9,1.1-1.7
			c0.2-1,1.4-1.3,2.4-1.7c1.1-0.5,1.6-1,0.4-1.9c-1.8-1.4-3.2-3.2-4.2-5.3c-0.5-1.2-1.6-2.2-1.6-3.5c0-1.8-0.9-3.7-0.4-5.4
			c0.4-1.4,0.6-3.2,2.4-4c0.5-0.2,1.3-1.3,1.4-2.3c0-0.5,0.2-1,0.6-1.2c1.3-0.8,1.7-2.4,2.4-3.6c0.4-0.6,0.6-1.2,1.3-1.5
			c0.2-0.1,0.4-0.3,0.4-0.4c-0.1-2.3,2.3-3.1,3-4.9c0.6-1.8,2.5-2.7,3.6-4.1c1-1.3,0.8-2.1,0.1-3c-1.2-1.4-2.3-3-3.7-4.3
			c-1.1-1.1-1.2-2.3-1.4-3.5c-0.3-2.3-1.3-4.3-2.6-6.3c-0.5-0.8-0.7-1.8-1.1-2.7c-0.9-2.1,0.3-4.2-0.4-6.1c-0.8-1.9-0.2-3.8-0.3-5.6
			c0-0.3,0-0.6,0.1-0.7c0.6-0.5,1.4-0.7,0.3-1.7c-0.5-0.5,1.1-0.2,1.2-1c-2.6-0.6-1.1-2.7-1.4-4.1c-0.5-1.8,0.4-3.9-0.1-5.9
			c-0.4-1.4,0.5-2.7,0.5-4.2c0-2.3,0.5-4.6,0.3-6.9c-0.2-2.8-0.6-5.6-0.5-8.4c0.1-1.6,0.8-3.1,1.1-4.6c0.3-1.2,0.9-2.3,1.1-3.5
			c0.2-1.7,0.6-3.3,1.4-4.9c0.7-1.2,1.4-2.4,2.1-3.7C233,276.9,233.7,277.5,234.2,278c0.4,0.4,0.7,0.9,1,1.3c0.2,0.3,0.6,0.4,1,0.2
			c0.2-0.1,0.4-0.2,0.4-0.4c0.1-0.5-0.4-0.5-0.7-0.7C235.4,278.2,234.9,277.8,234.2,278z M289.3,379.4c-0.8,0-1.6-0.1-1.8,1.1
			c-0.1,0.8-0.6,1.1-1.5,0.9c-0.2,0-0.4,0-0.5,0.2c-0.1,0.2-0.1,0.4,0.1,0.5c1.1,0.4,1.6,1.6,2.6,2.1c0.7,0.3,1.4,0.9,2,0
			c0.5-0.8,1.2-1.8-0.2-2.6C289,381.1,288.8,380.3,289.3,379.4c0.5-0.4,0.7,0.2,1.1,0.4c0.5,0.3,1.2,0.3,1.2-0.5
			c0-1.1-1.1-1-1.8-1.4c-0.5-0.2-1.1-0.4-1.3,0.2C288.2,378.8,289.2,378.9,289.3,379.4z M226.9,602.3c0.9,1,2.1,1.1,3.3,0.7
			c0.8-0.2,1.5-0.2,2.2,0.1c1.2,0.5,2.4,0.4,3.8-0.2c-1.1-0.4-0.9-1.8-1.9-1.9C231.7,600.7,229.2,600.9,226.9,602.3
			c0.1-0.4-0.1-0.7-0.4-1c-1.9-1.9-1.9-2.2-0.3-4.5c0.2-0.2,0.3-0.4,0.1-0.7c-0.6-0.8-1.4-1.1-2.3-0.9c-0.9,0.2-2.2,0.6-2,1.6
			c0.2,1.4-0.4,3.1,1.3,4.3C224.5,601.8,225.3,602.9,226.9,602.3z M349.8,513.8c0.5,0.3,1,0.3,1.5,0.3c0.3,0,0.7-0.2,1,0.2
			c0.2,0.4-0.1,0.9-0.3,1c-1.3,0.6-2,1.8-3,2.6c-1.1,0.8-1.9,1.8-2.6,3c-0.1,0.2,0,0.7-0.3,0.5c-1.2-0.5-1.3,0.8-1.9,1.1
			c-1.3,0.8-1.4,2.7-3.2,3.1c-0.7,0.2-0.7,1.2-0.6,1.9c0,0.4,0.2,0.8,0.6,0.8c0.7,0,0.7-0.8,1.1-1.2c0.1-0.1,0.2,0,0.4-0.1
			c0.1,0.4,0.1,0.9,0.3,1.3c0.2,0.6,0.8,0.7,1.1,0.2c0.4-0.8,0.7-2,0.6-2.7c-0.1-0.8,0.1-0.8,0.6-0.8c0.5,0,1-0.1,1.5-0.1
			c0.7,0,1.9-0.5,1.9-0.6c-0.3-1.6,0.8-1.3,1.7-1.4c0.8-0.1,1.3-0.1,1.5-1.1c0.2-0.9,0.8-1.8,2-2.1c1-0.2,2.1-0.9,2.2-2.1
			c0.2-1.3,0.9-2.1,1.9-2.8c1-0.7,1.1-2.1,0.9-3c-0.2-0.7-1.4,0.3-2.2,0.3c0,0-0.1,0-0.1,0.1c-0.7,0.3-1.3,0.5-0.9-0.7
			c0.3-0.9-0.3-1.5-1-1.2C352.5,511.2,350.3,511.5,349.8,513.8c-0.7,0.2-0.7,0.3-0.9-0.5c-0.1-0.6-0.3-0.8-0.6-0.1
			c-0.2,0.4-0.4,0.6-0.8,0.3c-0.2-0.2-0.7-0.5-0.5-0.7c0.8-0.7,0.3-1.1,0-1.7c-0.5-1.1,0.1-3,1.2-3.5c0.8-0.4,1.1-1.1,0.9-1.7
			c-0.1-0.7-0.9-0.8-1.6-0.9c-1.7-0.1-3.5,0.7-5-0.8c-0.4-0.4-1.1,0.2-1.3,0.7c-0.3,0.5,0.2,0.8,0.6,0.9c1.2,0.3,2.3,1.1,3.5,1.5
			c0.5,0.2,1.2,0.1,1.2,0.7c0,0.6-0.2,1.2-0.8,1.5c-1.1,0.7-2.2,1.4-3.2,2.1c-0.9,0.6-1.2,1.1-0.4,2.2c0.7,1.1,2.2,1.1,2.6,2.6
			c0.3,1.1,0.7,2.2,0.8,3.8c1.3-2.5,1.9-4.9,4.5-5.8C350.2,514.4,349.9,514.1,349.8,513.8z M311.4,436.6L311.4,436.6
			c0-0.2,0-0.4,0-0.6c0.6-1.6,0.9-3.2,1.1-4.9c0.2-1.3,0.1-2.7,2.1-2.7c0.6,0,0.4-0.7,0-0.9c-1.6-0.8-3.3-1-5-0.8
			c-0.8,0.1-1.5,0.9-1.3,1.5c0.3,1-0.3,1.7-0.5,2.6c-0.3,1.1-0.6,2.2-0.9,3.3c-0.5,2-0.8,3.9-1.9,6.2c0,0,0.1,0.1,0.1,0.2
			c0.4,1.4-0.1,2.8-0.5,3.9c-0.7,1.9-0.9,4-1.4,5.9c-0.7,2.7-1,5.4-2.7,7.7c-0.2,0.2-0.2,0.5,0,0.7c1,0.8,0.8,2,0.6,2.8
			c-0.4,1.2-0.5,2.6-1,3.8c-0.6,1.5,0.2,2.4,1.8,2.5c1.3,0,2.6-0.3,4,0c0.5,0.1,1.2-0.2,1.5-1.1c0.5-1.1,0.6-2.2,0.8-3.3
			c0.5-2.6,1.4-5.1,1.9-7.7c0.5-2.8,1.3-5.4,2-8.1c0.5-1.9,0.8-3.8,1.4-5.7c0.3-1.1-0.1-2.4,2-2c-1.4-1-1.2-1-0.8-3.8
			c0.2-1.5,1.3-0.4,1.8-0.9c-1.5-0.7-1.7-1.3-1-3.2c0.3-0.7,0.9-1.7,0.5-2c-0.8-0.7-1.4,0.5-2.1,0.8c1,0.5,1,0.5,0.5,1.3
			c-0.2,0.3-0.5,0.6-0.4,0.8c0.5,1.4-0.6,2.3-1,3.5C312.6,436.8,312.1,436.8,311.4,436.6z M298.6,316.4c-1.1,0.3-2.2-0.3-1.9-0.9
			c0.7-1.3-0.3-2.7,0.7-3.9c0.8-1-0.3-2.4,0.5-3.4c-1.6-0.7-0.4-1.5-0.2-2.4c0.6-1.9,1.3-3.9-0.3-5.7c-0.2-0.2,0.1-0.5,0.1-0.7
			c0.3-1.7,0.7-3.3,0.7-5c0-1.9-0.1-3.7-0.3-5.6c-0.3-2.2,0.3-4.6,0.1-6.9c-0.2-2.9-0.4-5.9-1.1-8.8c-0.4-1.6-0.4-3.6-2-4.8
			c-0.2-0.2-0.2-0.4-0.2-0.7c-0.2-4.1-0.4-4.7-3-7.6c-0.7-0.7-1.6-1.4-2.7-1.4c-1,0-2,0.5-2.8,1c-0.5,0.3,0,1.5,0.3,2.2
			c-0.8,0.4-1.5,0.1-2-0.4c-2.7-2-6.1-1.9-9.2-2.8c-1.3-0.4-1.9-1.2-2.5-2c-0.6-0.9,0.8-0.8,1-1.4c0-0.2,0.3-0.3,0.4-0.5
			c0.2-0.4,0.8-0.8,0.4-1.4c-0.4-0.4-0.8-0.6-1.4-0.6c-2-0.2-4,0.1-5.9,0.3c-2.1,0.2-3.4,1.7-4.9,2.8c-0.3,0.2-0.5,0.6-0.3,1
			c0.3,0.4,0.7,0.3,1.1,0.1c1.5-0.6,3.1-1,4.8-1c0.7,0,1.5-1.1,1.8-0.3c0.2,0.7-1.2,0.9-1.8,1.2c-0.1,0-0.2,0-0.3,0.1
			c-0.7,0.1-0.7,0.6-0.6,1.2c0.2,0.8,0.8,0.9,1.4,0.9c1.6,0,3.3,0,4.9,0.1c0.4,0,1.1,0,1,0.6c-0.1,0.5-0.7,0.4-1.1,0.3
			c-0.7-0.1-1.4,0-2.1,0.1c-1.9,0.2-3.1,1.8-4.9,2.1c-2.3,0.4-4.2,1.4-5.6,3.3c-0.3,0.4-0.7,0.3-1.1,0.4c-0.7,0.2-1.4,0.4-1.9,1
			c-1.2,1.5-0.5,3.8-2.3,5c0,0,0.1,0.3,0.2,0.4c0.4,0.5,0.1,1-0.1,1.5c-1.2,2.7-2.9,5.1-5.1,6.9c-1.5,1.2-2.3,2.9-3.7,4
			c-0.9,0.8-0.9,2.1-1.8,2.8c-0.7,0.6-1.4,1.1-1.1,2.2c0.1,0.4-0.2,0.7-0.5,0.9c-0.5,0.3-0.6,0.7-0.2,1.1c0.5,0.5,0.8-0.1,1-0.3
			c0.8-0.7,1.9-1,2.2-2.3c0.2-1,1.7-1.1,2.2-2c1.1-1.8,2.8-3.1,3.5-5.1c0.2-0.5,0.6-0.9,1.1-1.2c1.3-0.9,1.9-2.3,3-3.3
			c1.1-1,1.3-2.5,2.5-3.3c0.4-0.3,0.9-0.8,1.3-0.4c0.4,0.4-0.1,0.8-0.5,1.1c-0.3,0.2-0.1,0.6-0.3,0.8c-0.5,0.8-0.3,2.3-1.9,2.2
			c-0.4,0-0.5,0.3-0.3,0.7c1,2.2-0.6,3.7-1.8,5c-1.4,1.4-1.8,3.8-4.2,4.2c-0.1,0-0.1,0.4-0.3,0.5c-0.7,0.7-1.6,1.9-2.2,1.8
			c-1.2-0.1-1.5,0.5-1.9,1.3c-0.3,0.6-0.6,1.2-1.4,1.3c-0.2,0-0.6,0.1-0.5,0.4c0.1,0.3,0.3,0.4,0.6,0.4c1.2-0.1,1.7,0.9,2,1.6
			c0.3,0.5-0.8,1-1.4,1.3c-0.3,0.2-0.6,0.6-0.9,0.8c-1,0.6-1.5,1.8-2.6,2.3c-1.6,0.6-2.7,2-3.8,3.1c-2.7,2.6-2.9,6.4-5,9.4
			c-0.8,1.2-1,2.8-1.6,4.2c-0.5,1.3-0.6,2.3-0.2,3.6c0.3,1.1,0.2,2.3-0.3,3.5c-0.3,0.6-0.6,1.1-0.6,1.7c-0.1,1.4,0.5,1.9,1.9,1.5
			c0.7-0.2,1.4-0.5,2.1-0.6c0.6-0.2,1.3,0,1.6,0.6c0.3,0.6-0.4,0.8-0.8,1.1c-0.4,0.2-0.8,0.5-1.1,0.7c-1,0.7-2,1.4-2.9,2.1
			c-0.7,0.6,0.8,1.1,0.5,1.7c-0.7,1.6,0.3,2.1,1.4,2.6c0.3,0.2,0.7,0.4,0.8,0.7c0.8,3.1,3.8,3,5.9,4.2c1.4,0.8,2.9,0.5,4.5,0.4
			c2.1-0.1,4.2,0.1,6.3,0.2c1.3,0,2.7,0,3.8,1c0.8,0.7,0.8,0.7,1.1-0.3c0-0.1,0.2-0.3,0.3-0.3c0.5,0,1.2-0.4,1.6,0.1
			c0.5,0.6-0.3,0.8-0.5,1.2c-0.3,0.5-0.9,0.7-1.4,0.9c-1.9,0.6-3.8,0.8-5.7,1c-1.5,0.1-3,0.3-4.2,1.6c-0.7,0.7-1.8,1.4-2.6,0.3
			c-2.3-2.8-5.8-2.3-8.4-1.2c-0.3,0.1-0.5,0.4-0.4,0.7c0.6,1.6,0.9,3.3,2.9,3.9c1.3,0.4,2.7,0.7,3.9,1.4c2.4,1.4,4.4-0.6,6.6-0.8
			c0.5-1.5,2.1-1.2,3.2-1.6c0.5-0.2,1.3-0.5,1.4,0.2c0.1,0.6-0.3,1.2-1.1,1.4c-1.3,0.3-2.4,0.7-3.3,2c-1,1.5-2.3,3-4.4,3.3
			c-0.3,0-0.5,0.3-0.3,0.7c0.2,0.5,0.3,1,0.3,1.5c-0.1,0.7,0.9,0.8,0.9,0.7c1-0.9,2.2-0.4,3.2-0.5c0.4-0.1,0.8-0.2,0.8-0.8
			c0-0.4-0.2-1.1,0.5-1c0.7,0.1,0.3,0.7,0.4,1.1c0.1,0.5,0.2,0.9,0.8,1c1.3,0.3,3.8-1.2,4-2.6c0.1-0.8,0.4-1.4,1.1-1.7
			c0.7-0.3,1-0.4,0.9-1.2c-0.1-0.7,0.5-1,1.2-0.8c0.8,0.2,0.2,0.8,0.1,1.1c-0.8,2.4-1.8,4.6-4.2,5.9c-1,0.6-1.8,1.5-2.6,2.3
			c-1.3,1.5-1.3,1.9,0.2,3.2c1.3,1.2,4.2,1.1,4.9-0.2c1.3-2.3,2.6-2.8,5.1-1.9c0.4,0.1,0.8,0.2,1.2,0c0.2-0.1,0.5-0.2,0.7,0.1
			c0.2,0.2,0,0.5-0.1,0.7c-0.6,1-1.6,1-2.5,1.2c-0.9,0.3-2,0.5-2.2,1.4c-0.4,1.8-1.1,3.5-1.6,5.3c-0.2,0.7-0.1,1.8,0.8,2.5
			c0.8,0.6,1.4,0,2.1-0.3c1-0.5,1.8-1.3,2.7-2c0.2-0.2,0.5-0.4,0.8-0.2c0.3,0.2,0.4,0.5,0.3,0.8c-0.5,1.7,0.8,1.9,1.8,2.4
			c0.4,0.2,1,0.2,1.5,0.3c0.4,0.1,0.8,0.2,0.8,0.7c0,0.5,0.2,1-0.3,1.2c-1.3,0.6-1.7,2.2-3.1,2.7c-0.4,0.2-0.4,2.7-0.1,2.8
			c0.8,0.4,2.7-0.8,2.7-1.7c0-0.4-0.1-0.8-0.1-1.2c0-0.4-0.1-0.9,0.4-1c0.6-0.1,0.6,0.4,0.6,0.9c0.1,0.8,0.2,1.6,0.3,2.3
			c0.7-0.1,0.8-0.5,0.8-0.8c0.1-1.3,0.5-1.9,1.9-1.5c0.7,0.2,1.4-0.1,2.1-0.3c3.3-1,6.2-3.1,9.9-2.9c1.2,0,1.3-0.7,0.8-1.7
			c-0.4-0.8-0.9-1.5-1.2-2.3c-0.9-2.8-2.1-5.5-4.6-7.3c-0.2-0.2-0.5-0.4-0.6-0.7c-0.7-1.8-1.6-3.4-2.9-4.8c-0.5-0.6-1.2-1.5,0.5-2
			c-1.2-0.1-1.8-0.4-2.2-1.5c-0.4-1-0.3-2.3-1.3-3.2c-0.6-0.5-0.9-1.5-1.7-1.6c-1.1-0.1-1.8-0.7-2.4-1.5c-0.5-0.6-0.7-0.6-1.2-0.2
			c-0.8,0.6-1.3,0.4-1.8-0.5c-0.8-1.2,0.2-2.1,0.2-3.2c0-0.3-0.2-0.8,0.4-0.9c0.5-0.1,0.9,0,1.3,0.3c0.2,0.3,0.4,0.6,0.6,0.9
			c0.4,0.5,1,0.4,1.6,0.2c0.6-0.2,0.3-0.8,0.2-1.2c-0.4-1.8-2.3-3.5-4.2-3.6c-0.5,0-0.8,0-0.8-0.7c0-1.5-0.9-2-2.3-1.5
			c-0.3,0.1-0.5,0.2-0.6-0.1c-0.4-1.7-1.5-1-2.4-0.8c-1.3,0.3-2.4-0.1-3.7-0.2c0.9-0.4,1.2-0.9,1.1-1.9c-0.2-1,0.3-1.7,1.4-2.1
			c1.2-0.4,2.3-1,3.6-1.5c-0.9-1.1-1.2-2.5-2.6-3.2c-0.5-0.2-0.4-0.8-0.1-1.4c0.4-0.6,0.1-1.1-0.4-1.5c-1.7-1-3.5-1.3-5.3-0.2
			c-1.7,1.1-3.7,1.5-5.6,2c-1.1,0.2-2.3-0.2-2.7-1.2c-0.4-0.8,0-1.9,0.7-2.6c2-2,4.3-3.4,7.2-4.1c1.9-0.4,3.9-0.7,5.7-1.5
			c-0.8-0.6-1.5-0.4-2.3-0.4c-2.1-0.1-4.3,0.2-6.4-0.5c-0.5-0.2-0.8-0.5-0.9-0.9c-0.1-0.6,0.5-0.5,0.8-0.7c0.4-0.3,1.1-0.4,1.3-0.8
			c0.9-1.8,2.7-1.8,4.2-2.2c1.7-0.4,2.4,0.1,3.5,1.9c0.1,0.1,0.3,0.1,0.4,0.1c1.4,0.1,2.7,0.8,4.1,1.2c0.7,0.2,1.3,0.5,1.7,1.3
			c0.4,0.7,1.6,0.5,2.4,0.3c0.9-0.3,0.7-0.9,0.5-1.5c-0.5-1.2-1-2.1-2.6-1.8c-1.6,0.3-1.6-1.3-2.3-2.1c-0.3-0.3-0.3-0.7,0.1-0.9
			c0.8-0.6,1.5-0.1,2.3,0.2c1.5,0.5,2.6,1.7,4.3,1.8c0.9,0,2.5,0.9,1.8,2.7c-0.2,0.4,0,1,0.7,0.9c1.3-0.4,2.8-0.7,3.4-2.1
			c0.8-1.7,1.4-3.4,2.7-4.9c1.4-1.7,2.5-3.8,3.9-5.6c0.4-0.5,0.9-0.9,1.1-1.7c0.4-1.4,0.1-2.8,0.4-4.1c0.2-0.6,1.6-3,2-3.4
			c1.1-1.1,2.8-1.8,2.8-3.7c0-0.5,0-0.9,0.2-1.4c1.2-2.4,2.6-4.8,2.8-7.6c0.1-0.7,0.3-1.1,1.1-1.3c0.5-0.1,1-0.2,1-0.9
			c0-1.1-1-1.2-1.6-1.7c-0.4-0.3-0.8-0.1-1.2,0.3c-0.6,0.5-0.5,1.1-0.8,1.7c-0.2,0.5-0.7,0.9-0.9,1.5c-0.4,1.4-0.8,3.2-1.6,4.2
			c-2.2,3-3.4,6.5-5.5,9.5c-0.9,1.2-2.2,2.4-1.8,4.3c0.1,0.4-0.5,0.7-0.9,0.7c-1.8,0-2,1.4-1.6,2.4c0.5,1.2-0.1,1.6-0.7,2.1
			c-0.9,0.7-1.5,1.6-2.1,2.6c-0.5,0.8-1.7,0.9-2.1,2c-0.4,1.1-1.5,1.2-2.5,0.5c-1.3-0.9-2.4-2-4-2.4c-0.6-0.1-1.5-0.2-1.9-0.6
			c-2.1-2.4-4.5-1.5-6.9-0.9c-1.6,0.4-3.3,0.6-5,0.5c-1.2-0.1-1.4-0.8-1.2-1.8c0.2-1.1,0.7-1.9,1.9-2.5c0.8-0.4,1.6-0.9,2.1-1.7
			c0.9-1.7,2.1-3.1,4.1-3.7c1.1-0.4,2.3-0.1,3.4-0.7c0.3-0.2,0.6-0.4,1-0.1c0.3,0.4,0,0.7-0.1,1c-0.5,1.2-1.4,2.2-1.6,3.6
			c-0.1,0.5-0.3,0.9,0.3,1.2c0.5,0.3,1.3,0.3,1.4,0c0.6-1.4,1.8-0.9,2.7-0.9c0.3,0,0.8-0.6,0.6-0.9c-0.2-0.3,0-0.5,0.2-0.7
			c0.3-0.5,0.4-0.9-0.2-1.2c-0.3-0.2-0.4-0.5-0.1-0.6c0.8-0.4,1.6-0.7,2.4-0.9c0.5-0.1,0.5,0.3,0.3,0.7c-0.4,0.8-0.2,1.5,0.2,2.3
			c0.2,0.6,0.5,1.1,1.1,1.1c0.8,0,0.7-0.7,0.7-1.3c0.1-1,0.5-1.5,1.5-0.9c0.8,0.4,1.7,0.7,2.2-0.1c0.6-0.9,0.8-2.3-0.2-3
			c-1.8-1.3,0-1.5,0.5-2.1c0.2-0.3,0.8,0.1,1.1-0.4c-0.6-0.8-0.6-0.8,0-1.3c2.4-1.8,3.9-3.9,3.6-7.1c-0.1-1.3,1-1.9,2.1-1.3
			c0.9,0.5,2.9-0.2,3-1.1c0.1-1.3,1.2-1.8,1.8-2.7c1-1.3,1.8-2.8,1.6-4.6c-0.3-2.2-0.9-4.2-2.6-5.7c-0.4-0.4-0.4-0.8,0-1.2
			c0.5-0.4,0.8,0.1,1,0.4c0.2,0.2,0.3,0.5,0.4,0.8c0.7,1.2,1.3,2.5,2.4,3.4c0.3,0.3,0.6,0.4,0.9,0.3c0.4-0.2,0.3-0.5,0.3-0.8
			c0.2-1.3-0.3-2.4-0.9-3.4c-0.2-0.4-0.4-0.7-0.5-1.1c0-0.3,0-0.5,0.3-0.6c0.3-0.1,0.5,0.1,0.5,0.4c0.1,0.9,0.7,0.9,1.3,0.9
			c1.3,0,2.1,1,2.3,2c0.5,2.2,0.6,4.5,0.4,6.7c-0.1,1.9-0.6,3.8,0.6,5.5c0.4,0.6,0.4,1.4,0.2,2.2c-0.7-0.6,0-1.5-0.7-1.9
			c-0.5-0.3-1-0.3-1.5-0.1c-0.8,0.2-0.9,0.9-0.9,1.6c0,2.1,0.5,4.1-0.1,6.2c-0.2,0.5-0.4,1.2-0.1,1.8c0.7,1.1-0.6,1.7-0.7,2.4
			c-0.1,0.7,0.8,1.6,0.1,2.3c-0.8,0.8-0.3,1.5-0.2,2.3c0.2,0.8,0.8,1.2,1.6,1c0.9-0.2,0.7-0.8,0.6-1.4c-0.1-0.5-0.1-1.1,0.2-1.6
			c0.1-0.2,0.4-0.2,0.5,0c0.4,0.5,0.6,1.1,0.4,1.7c-0.1,0.2-0.2,0.4-0.2,0.6c0.3,1.7-1.5,3.1-0.9,4.9c0.1,0.2,0,0.5-0.1,0.6
			c-1.3,0.5-0.6,1.3-0.2,1.9c0.6,1,0.8,2,0,3c-0.3,0.4-0.3,0.9-0.1,1.3c0.3,0.4,0.1,0.7,0,1.2c-0.5,1.8-2.5,2.8-2.7,4.6
			c-0.1,1.4-1.7,2.8,0,4.2c0.4,0.3,0,0.5-0.2,0.8c-0.5,0.8-1,1.7-1.8,2.3c-0.6,0.5-0.9,1.3-0.5,1.7c0.5,0.6,0.9-0.2,1.4-0.5
			c1.6-1,2.6-2.8,4.7-3.2c0.7-0.1,1.5-0.1,2.4-0.5c-0.5-0.2-0.9-0.2-1-0.4c-0.2-0.4,0.3-0.6,0.6-0.7c1-0.5,1.8-1.6,1.9-2.2
			C296.4,317.2,297.1,316.6,298.6,316.4z M254.7,454.9c-1.5,0.1-1.6-0.5-0.9-1.3c0.6-0.7,0.5-1.7,0.2-2.1c-0.5-0.7-0.2-1.3-0.3-2
			c-0.3-2.3,1-4.6-0.1-6.9c-0.5-1-0.9-2.5-1.6-3c-2.1-1.6-4.5-3.1-7-3.6c-3.4-0.7-4.4-3-5.4-5.7c-0.3-0.9-0.6-1.7-1.6-1.9
			c-1.1-0.2-1.6,0.6-2.1,1.2c-1.7,2.4-3.5,4.7-6.1,6.2c-0.5,0.3-0.6,0.8-0.7,1.3c-0.7,2.6-1.5,5.2-4.3,6.4c-1,0.4-1.2,1-0.7,2.1
			c0.8,2,1.4,4,2.2,6.4c-1.2-0.9-1.6-0.4-1.8,0.4c0.5,0.2,0.9-0.1,1.4-0.2c0.4-0.1,0.8,0,0.8,0.5c0,1,1,1.6,1,2.5
			c0,1.2,1.9,1.9,0.9,3.3c1.8,1,2,2.8,2.6,4.5c0.8,2.4,2.9,4.3,3.4,6.9c0.1,0.4,0.4,0.5,0.6,0.8c1.3,1.6,2.6,3.1,3.6,4.9
			c1.1,2,2.5,3.6,3.9,5.3c0.8,0.9,1.9,1.5,2.8,2.2c0.8,0.7,1.5,0.5,2.4,0.2c0.9-0.4,1.2-1.4,2-1.8c1.3-0.9,1.8-2,1.6-3.6
			c-0.3-2,0-3.9,1.1-5.7c0.1-0.2,0.3-0.3,0.2-0.5c-0.4-1.7,0.4-3.3,0.4-4.9c0-0.8,0.6-1.1,1.1-1.6c0.6-0.7-1-0.6-0.9-1.6
			c0.2-1.9-0.3-3.9-0.2-5.8C253.1,456.9,253.1,455.6,254.7,454.9z M269.6,514.5c-1.8-0.5-3.9-1.8-5-3c-0.3-0.3-0.5-0.6-0.5-1.1
			c0-1.3-0.7-1.6-1.9-1.4c-0.9,0.1-1.7,0.2-2.2,1.1c-0.3,0.5-0.8,0.6-1.2,0.2c-0.5-0.4,0-0.7,0.3-1c0.4-0.3,0.4-0.7,0.2-1.1
			c-0.3-0.4-0.7-0.4-1.1-0.2c-0.8,0.4-1.6,0.7-1.9,1.7c-0.2,0.8-0.7,1.1-1.5,1c-0.5-0.1-1,0-1.5,0.2c-1,0.5-1.6,0.2-1.8-0.8
			c-0.2-0.8-0.6-1.1-1.3-1.3c-0.8-0.2-1.7-0.5-2.5-0.8c-2-0.7-3.6,0-5.2,1.3c-0.8,0.6-0.7,1.4-1.3,2.1c-1.1,1.3-2.5,2.4-3,4.2
			c-0.5,1.7-0.7,3.3,0,5c0.9,2.4,2.3,4.4,4.7,5.4c0.4,0.2,0.9,0.3,0.8,0.8c-0.1,0.5-0.8,0.5-1,0.3c-1.3-1.2-3.1-0.6-4.5-1.4
			c-0.4-0.2-0.8-0.1-1.1,0.3c-0.3,0.4,0.2,0.5,0.3,0.7c0.7,1,1.4,1.9,2.1,2.9c0.3,0.4,0.8,0.9,1.3,0.7c1.2-0.5,2.1,0.2,3.2,0.2
			c1.5,0,1.9,0.9,1.6,1.9c-0.5,1.7,0.6,1.3,1.3,1.2c1.4-0.3,1.6,0.4,1.6,1.5c0,0.5-0.2,0.8-0.5,1.1c-0.2,0.3-0.8,0.5-0.3,1
			c0.4,0.4,0.8,0.6,1.3,0.2c0.3-0.2,0.4-0.6,0.9-0.6c0.2,0,0.4,0.1,0.5,0.2c0,0-0.1,0.4-0.1,0.4c-1.3,0-1.2,1.4-1.9,1.9
			c-1.4,1-4.7,0.7-6.2-0.7c-0.9-0.9-1.9-1.8-3.3-0.9c-0.3,0.2-0.7,0.1-0.8-0.2c-0.4-0.7-1.1-1.1-1.7-1.6c-0.2-0.2-0.5-0.5-0.3-0.6
			c1.1-0.9,0-0.6-0.4-0.7c-0.2-0.1-0.4-0.3-0.6-0.5c-0.6-0.8-1.4-0.9-2.2-0.6c-0.4,0.2-0.9,0.4-0.7,1.2c0.2,0.9,0,1.8,1.3,2.1
			c1.1,0.2,2.5,2.8,2.6,3.8c0,1.1,0.4,2,1.7,2.4c1.6,0.5,3,1.5,4.7,0.8c0.1,0,0.3,0.1,0.4,0.2c2.2,1.3,4.5,1.3,6.9,0.8
			c0.8-0.2,1.6-0.2,2.4-0.3c0.5-0.1,0.9,0,1,0.5c0.5,2.1,1.9,2.8,4,2.6c0.8-0.1,1.5-0.1,1.5,1.1c0,0.6,0.4,0.7,1.1,0.4
			c1-0.5,1.8-1.4,2.7-1.8c1.3-0.5,1.9-1.3,2.4-2.3c0.8-1.5,0.6-1.5-1-1.5c-1.9,0-3.8,0.2-5.7,0.3c-0.2,0-0.5,0-0.7-0.2
			c-0.1-0.2,0-0.4,0.2-0.5c1.7-1.6,3.5-3.1,5.8-2.8c2.3,0.2,3.4-1.6,5.3-2.1c-1.4-0.6-2.8-0.8-3.9-1.8c-1.4-1.2-1.5-1.9-0.2-3.2
			c0.2-0.2,0.4-0.6,0.6-0.1c0.2,0.5,0.4,0.3,0.7,0c0.4-0.6,1.2-0.6,1.7-0.9c1.6-0.9,3.2-0.9,5-0.8c-0.1-0.6-1-0.7-0.5-1.4
			c0.7-1.1,0.4-1.5-0.8-1.5c-0.7,0-1.1,0-1.6-0.6c-1-1.3-0.9-2.6-0.2-3.8c0.7-1.2,1.8-1.5,3.1-1.5c2.7,0.1,3.2-0.3,3.6-2.9
			c0.1-0.4,0.1-0.9,0.6-0.9c0.4,0,0.5,0.4,0.7,0.7c0.2,0.5-0.1,1.4,0.8,1.1c0.6-0.2,1.6-0.3,1.2-1.5c-0.2-0.5,0-1,0.6-1.5
			c0.8-0.6,0.7-2.4-0.3-2.6c-2.7-0.7-5.3-1.8-8.1-1.9c-1.2,0-1.9,1-1.2,1.9c0.9,1.3,1.3,2.8,2.7,3.7c0.3,0.2,0.8,0.4,0.4,0.8
			c-0.3,0.3-0.6,0.2-0.9-0.1c-0.6-0.7-1.4-1.2-2.2-1.6C269.4,517,268.9,515.3,269.6,514.5z M316.9,312.8c-0.6-1.7-0.1-3.4-0.2-5.1
			c-0.1-1.4-0.2-2.8,0.9-3.9c0.3-0.3,0.3-0.8,0.1-1.2c-0.3-0.4-0.7-0.4-1.1-0.4c-1.6,0-2.4,1.3-3.2,2.3c-0.6,0.8-1.6,1.7-1.5,2.7
			c0.1,1.5-0.9,2.9-0.6,4.3c0.2,1.3-1.2,2.3-0.4,3.6c0.1,0.1-0.3,0.6-0.6,0.6c-1.3-0.3-1.5,0.8-2,1.5c-0.2,0.3-0.4,0.7-0.8,0.8
			c-1.5,0.6-1.7,1.3-1.1,2.8c0.3,0.6,1.3,1.3-0.2,1.8c-0.4,0.1,0,0.4,0.3,0.4c0.3,0.1,0.6,0.2,0.3,0.5c-1.1,0.9-0.7,2.1-0.8,3.2
			c-0.1,2.7-0.6,5.3-0.8,7.9c-0.1,1.3,1.7,4,2.9,4.3c0.8,0.2,1.4-0.2,1.2-1.1c-0.5-2.8,0.5-5.5,0.3-8.3c0-0.5,0-1.1,0.5-1.1
			c0.5,0,0.8,0.6,0.8,1.1c-0.2,1.5-0.3,3.1-0.8,4.5c-0.4,1.3-0.2,2.5,0.4,3.6c0.5,0.9,1.5,1.5,2.3,0.4c0.9-1.2,1.3-0.7,1.9,0.2
			c0.1,0.2,0.4,0.3,0.6,0.4c0.5,0.5,0.8,1.1,0.3,1.9c-1.3,1.8-1.1,2.9,0.9,4.1c0.9,0.5,1.6,1,1.7,2.1c0.1,0.9,0.4,0.7,0.9,0.2
			c0.9-0.9,3-5.6,3.4-7c0.6-2.6,1.1-5.3,1.5-7.9c0.1-0.5,0.2-1.1-0.3-1.4c-0.7-0.3-1.1,0.2-1.2,0.8c-0.1,0.6-0.9,0.9-0.7,1.6
			c0.1,0.3-0.2,0.5-0.5,0.5c-0.4-0.1-0.1-0.4-0.2-0.6c-0.5-1.2-0.1-1.9,1.1-2.4c-0.7-0.5-1.4,0-1.9-0.3c0.6-2.1,0.7-2.1,1.9-3.5
			c0.1-0.1,0.1-0.4,0.1-0.5c-0.3-0.6,0.2-0.8,0.6-1c0.9-0.5,1.6-1.3,2.3-2c0.3-0.3,0.5-1.1,1-0.6c0.4,0.3,0.4,0.9-0.1,1.5
			c-1.1,1.5-0.2,3.8,1.3,4.1c-0.8,2-2.7,3.4-2.7,5.9c0,0.7,0.2,1.3,0.3,1.9c0.3,1,1.1,2.2-0.3,3.1c-0.1,0-0.1,0.4-0.1,0.4
			c1.4,0.6,0.2,1.1-0.1,1.7c-0.4,1-0.6,1.9-0.4,3c0.3,1.6,1.5,2,2.7,1c1.7-1.4,2.2-3.6,1.6-5.8c-0.3-0.9-0.4-1.9,0.4-2.8
			c1.3-1.5,2-3.2,1.9-5.3c-0.1-1.2-0.2-2.5-0.1-3.6c0.4-2.2,0.5-4.4,0.7-6.7c0.1-1.5,0.3-3,0.5-4.5c0.2-1.3-0.3-2.9,1-4
			c0,0-0.1-0.2-0.1-0.2c-1.2-0.6-0.5-1.6-0.4-2.5c0-1.2,0.6-2.4,0.2-3.6c-0.8-2.2-1.5-4.3-1.4-6.7c0-1.7,0.4-3.3,0.2-5
			c-0.4-2.3-1.5-4.4-1.6-6.7c0-0.4-0.1-1.5-1.1-1.6c-0.6-0.1-1.2,0-1.5,0.4c-0.9,1.2-1.7,2.3-2.4,3.6c-0.5,0.9-0.7,1.7,0.8,2
			c1.6,0.4,1.8,0.9,1.2,2.3c-1-1.3-2.1-1.7-3.3-1.3c-1.3,0.4-2.9,2.6-2.6,4.3c0.2,1.1-0.2,1.3-1.1,1.5c0.9,0.5,1.2,1.2,1.3,2
			c0,0.2-0.3,0.5,0.3,0.6c2,0.5,4.9-1.5,5.1-3.6c0.1-0.9,0.2-1.9,0.4-2.8c0.3,0.8,0.2,1.6,0.3,2.4c0.1,1.6,0.4,3.3,0,4.9
			c-0.2,0.9-0.5,1.4-1.3,0.4c-0.2-0.3-0.5-0.7-1-0.7c-1.4,0-2.8,0.2-4,0.9c-0.4,0.2-1.1,0.5-0.9,1.3c0.3,1.9-0.6,3.8,0.1,5.7
			c0.1,0.3,0.1,0.7-0.4,0.6C317.6,310.6,317.3,311.7,316.9,312.8z M267,489.9c-0.6-1-0.7-1.9,0.2-2.6c2.1-1.6,4.8-1.9,7.1-3.1
			c1.2-0.6,2.7-1,4.1-1.5c0.7-0.2,1-0.8,0.9-1.5c-0.1-0.7-0.7-0.7-1.2-0.6c-2,0.4-4.1-0.3-6.1,0c-1.1,0.2-1.3-0.5-0.9-1.1
			c0.8-1,1.9-1.7,2.9-2.6c0.4,0.7-0.4,1.7,0.7,1.8c1,0.1,0.9-0.9,1.1-1.6c0.1-0.5,0.2-1,0.4-1.5c0.2-0.8,0.7-0.8,1.3-0.3
			c1.2,1.1,1.4,1.1,2-0.4c0.3-0.9,0.5-1.7,1.5-2.1c0.7-0.3,1-4,0.5-4.5c-0.1-0.1-0.3-0.3-0.5-0.3c-1.3,0.1-2-0.9-3.1-1.2
			c-0.2-0.1-0.5-0.2-0.5-0.5c0-0.4,0.3-0.5,0.6-0.5c1,0,1.1-0.6,1.4-1.4c0.5-1.1-0.3-2.6,0.7-3.3c2.2-1.7,2.6-4,3.1-6.4
			c0.3-1.9,0.1-2.5-1.7-3.3c-0.6-0.3-1.4-0.4-1.3-1.1c0.1-2-1-1.8-2.2-1.4c-0.4,0.1-0.8-0.1-1.2,0c-1.3,0.2-2.8-0.7-3.8,0.8
			c-0.2,0.2-0.3,0.2-0.5-0.1c-0.9-1.2-1.7-0.7-2.6,0c-0.6,0.5-0.9,0-1.3-0.3c-0.4-0.2-0.5-0.7-0.2-0.9c0.9-0.7,0.4-1.5,0.4-2.5
			c-0.8,0.8-1.7-0.3-2.4,0.6c-0.7,0.9-1.8,1.3-2.8,1.8c-2.6,1.3-4.8,2.9-5.7,5.9c-0.2,0.6-0.7,0.9-1.4,1c-0.4,0.1-1.2-0.3-1.1,0.6
			c0.1,0.8,0.8,0.9,1.4,0.7c1-0.2,1.5,0.2,1.4,1c0,0.7,0.5,0.8,0.8,1.3c0.3,0.6,0.7,0.9,0.5,1.8c-0.2,0.8-0.4,2.4,1.3,2.8
			c0.3,0.1,0.9,1-0.1,1.4c-0.1,0.1-0.5,0-0.4,0.2c0.9,1.6-0.6,1.3-1.3,1.6c-0.7,0.3-1.2,0.7-1.6,1.5c-0.9,1.7-1.9,3.4-3,4.9
			c-0.4,0.5-0.9,0.6-0.3,1.3c0.4,0.5,0,1.4,0.7,1.8c1.8,1.1,1.9,1.4,0.9,3.1c0.5,0.5,1,0.4,1.6,0c0.4-0.3,0.9-0.4,1.2,0.1
			c0.2,0.4,0.5,0.9,0,1.4c-0.7,0.7-1.3,1.6-2.2,2c-1.2,0.5-1.2,1.6-1.2,2.5c-0.1,0.8,0.5,1.9,1.4,1.8c0.9,0,1.9,0,2.8-0.5
			c0.3-0.2,0.9-0.6,1.2-0.1c0.2,0.4,0.5,1,0.2,1.6c-0.3,0.4-0.5,0.9-0.9,1.2c-0.5,0.4-0.5,0.9-0.2,1.5c0.3,0.6,0.8,0.5,1.3,0.4
			c1.4-0.2,2.4-1.1,3.3-2c0.3-0.3,0.7-0.7,1-0.2C265.4,490,266.1,489.7,267,489.9z M309.1,200.1c0.1,0.9,0.3,1.6,1.5,1.5
			c0.7,0,1.1,0.6,1,1.1c-0.1,0.5-0.3,1.1-1.2,1.3c-2.9,0.5-5.4,2.3-8.3,2.9c-0.3,0.1-0.7,0.3-0.6,0.6c0.4,1.8-0.9,1.7-2.1,2
			c-0.6,0.1-1.2,0.5-1.8,0.8c-0.9,0.5,0.3,0.9,0.1,1.5c0,0.1,0.7,0.2,0.7,0c0-1.5,1.3-0.8,1.9-1.2c0.2-0.1,0.5-0.1,0.7,0.1
			c0.2,0.3,0.2,0.6-0.1,0.9c-0.2,0.2-0.8,0.3-0.5,0.8c0.3,0.4,0.7,0.3,1.1,0.3c1.2,0,2.4-0.5,3.8-0.2c-0.7,0.9-1.6,0.9-2.5,1
			c-0.8,0.1-2,0.2-2,1c0,0.9,1,0.7,1.7,0.7c0.3,0,0.7,0.1,0.7,0.4c0,0.3-0.3,0.6-0.6,0.6c-0.6,0.1-1.2,0.1-1.8,0.1
			c-0.3,0-0.7,0-0.8,0.4c-0.1,0.4,0.2,0.6,0.6,0.8c0.6,0.4,1.1,0,1.7,0c1,0,2.4-0.7,2.9,0c1.1,1.5,2.3,1.1,3.6,0.8
			c2.5-0.5,5-1.3,7.5-1.9c1.3-0.3,2.3-1.1,2.8-2.4c0.7-1.9,2.2-3.3,3.6-4.6c1.5-1.3,0.9-3.1,1.7-4.5c0.1-0.1-0.1-0.4-0.2-0.6
			c-1.1-1.8-2.1-2.1-4-1c-0.6,0.4-1,0.5-1.5-0.1c-0.5-0.6-1.2-0.7-2-0.5c-2.3,0.8-3.1,0.5-4.1-1.6c-0.3-0.8-0.4-1.3,0.8-1.5
			c-0.3-0.1-0.4-0.2-0.5-0.3c-0.4-0.2-0.8-0.4-0.8-0.8c0-0.8,0.6-0.3,0.9-0.4c0.6-0.2,0.6-0.7,0.5-1.3c-0.5-1.8-0.2-3.7-0.9-5.5
			c-0.1-0.4,0.1-0.9,0.4-1.1c0.4-0.2,0.6,0.3,0.8,0.5c0.5,0.6,1,1,1.4-0.1c0.1-0.3,0.5-0.4,0.6-0.7c0.7-1.4,2.8-1.1,3.2-2.8
			c0.1-0.2,0.8-0.2,0.8,0.1c-0.1,0.9,0.8,1.1,0.8,1.8c0,0.5,0.1,0.8,0.6,0.6c0.5-0.1,0.9-0.4,0.7-1c-1.3-2.7-1-6-2.8-8.6
			c-0.3-0.5-0.5-1.1-0.1-1.7c0.8,0.4,0.2,1.5,1.2,1.7c0.8,0.1,1.6,0.4,1.9,1.4c0.1,0.4,0.5,0.4,0.8,0.3c0.4-0.2,0.3-0.7,0-0.9
			c-0.8-0.4-0.6-1.2-1-1.8c-0.4-0.6,0-1.4-0.6-1.8c-0.7-0.4-1-1-1.1-1.7c-0.1-0.5-0.4-0.7-0.8-0.7c-0.5-0.1-0.9,0.1-1,0.6
			c-0.2,1.2-0.8,1.2-1.8,0.8c-0.5-0.2-1.1-0.2-1.7-0.1c-0.8,0-1.4-0.1-1.8-1c-0.5-1.1-1.6-1.5-2.7-1c-1.7,0.7-3.6,0.8-4.8,2.4
			c-0.3,0.4-0.9,0.5-1.4,0.5c-2.1,0.1-4.1,0.4-5.9,1.3c-0.4,0.2-0.7,0.1-1.1-0.1c-1.6-1-3.9-0.9-5.3,0.2c-0.1,0.1-0.3,0.3-0.2,0.3
			c0.6,1.3-0.3,2.4-0.3,3.7c0,0.6,0.1,1.2,0.5,1.5c1.2,0.8,1.4,1.1,1,2.5c-0.2,0.5-0.3,1.6,0,1.6c1.9,0.1,2.6,1.3,3.2,2.9
			c1.8-0.2,1.4,1,1.4,2.1c0,0.9,0.7,1.5,1.4,1.9c0.3,0.2,0.7,0.3,0.8,0.6c0.3,1.2,0.8,1.1,1.8,0.5c1-0.6,1.9,0,1.8,1.2
			c-0.1,0.9,0.4,1.6,1,2.2c0.3,0.3,0.6,0.3,0.6-0.1c0-1.5,1.2-0.9,1.8-0.9c0.8,0,0.6,0.9,0.6,1.5c0.3,3,0.3,3,3,3.2
			C308.3,202.4,309.2,201.2,309.1,200.1z M272.5,399.9c0.5,1.4,0.7,2.6,1.3,3.4c0.8,1,0.9,2.1,0.7,3.1c-0.1,1.1,0.2,1.8,1.2,2
			c1,0.2,2-0.2,2.1-1.3c0.1-1,0.7-0.8,1.2-0.8c0.7,0,0.8,0.5,0.7,1.1c0,0.3-0.3,0.6,0,0.9c0.9,1.3,3.7,1.3,4.3-0.3
			c0.6-1.4,1.5-2.2,2.7-2.9c0.8-0.5,1.2-1.2,0.6-2c-0.5-0.6-0.3-1.1,0-1.5c0.4-0.6,0.6-1.3,0.6-2c-0.1-2.3,2.2-3.7,3.8-3.6
			c0.6,0.1,0.9,0.3,1.3,0.8c0.9,1.2,2.1,2.2,3.8,2.3c0.5,0,0.8-0.2,1-0.6c0.2-0.5,0-0.9-0.4-1c-0.7-0.2-0.9-0.8-1.1-1.4
			c-0.7-1.4-1.9-2.1-3.4-2.2c-0.5,0-1.1-0.1-1.2-0.5c-0.1-1.1-1-1.3-1.7-1.5c-2-0.6-3.5-1.9-5-3.2c-0.4-0.4-0.9-1-0.9-1.5
			c0-1.6-1.1-2-2.2-2.6c-0.5-0.3-1-0.4-0.9-1.1c0.2-1.5-0.7-1.2-1.7-1.1c-1,0.1-0.5-1.7-1.7-1.5c-0.1,0-0.2,0.1-0.3,0.2
			c-0.5,0.7-1.4,1-1.5,1.9c0,0.3,0,0.6-0.5,0.6c-2.2-0.2-4,0.5-4.8,2.8c0,0.1-0.1,0.1-0.2,0.2c-1.6,1-1.6,2.9-2.1,4.4
			c-0.2,0.4,0,0.9,0.5,0.9c1.1,0.1,0.9,0.7,0.7,1.4c-0.1,0.5-0.3,1.1-0.2,1.5c0.4,1.1,0,1.8-0.7,2.6c-0.5,0.6-1.2,1.4-0.6,2
			c1,1.2,0.6,1.9-0.4,2.5c-0.3,0.2-0.6,0.3-0.5,0.7c0.1,0.4,0.4,0.4,0.7,0.4c1.5-0.2,1.7,0.9,1.8,1.9c0.1,0.6-0.1,1.2-0.1,1.8
			c0,0.7,0.3,1.2,1,1.4c0.5,0.1,0.9,0.7,1.4,0.3c1.2-0.8,2-4,1.2-5.2C272.4,402.3,272.4,401.4,272.5,399.9z M311.2,372.5
			c0.6,1.2,0.5,2.3,0,3.3c-1.2,2.4-0.1,5.2-1.3,7.5c0,0.1,0,0.2,0.1,0.3c0.9,2.2,0.6,4.4,0.3,6.7c-0.2,1-0.7,0.9-1.4,0.7
			c-0.5-0.2-0.7-0.7-1-1.1c-0.2-0.2-0.2-0.6-0.6-0.5c-0.4,0.1-0.6,0.3-0.6,0.7c0.1,0.7-0.3,1.1-0.7,1.5c-1.2,0.9-1.9,2.4-3.1,3.4
			c-0.4,0.3-0.6,0.6-1.1,0.7c-0.6,0-1.6-0.3-1.6,0.7c0,1.1-0.1,2.6,1,3.2c1.5,0.8,3.3,0.9,5,0.3c1.3-0.4,1.7-1.2,1.3-2.5
			c-0.3-0.9,0.9-2.1,2.2-2.1c1,0,1.2,1.1,1,1.9c-0.6,3-0.5,3.5,3.3,3.2c0.2,0,0.3,0,0.5,0c0.8,0,1.4-0.2,1.9-1.2
			c1.2-2.7,1.6-2.7,4-1.9c0.9,0.3,0.9,0.7,0.5,1.4c-1,1.7-1,1.7,1,2c0.3,0,0.5,0.1,0.8,0.1c1.9,0,2.6-0.8,2.5-2.6
			c0-0.7-0.4-1-0.7-1.5c-0.3-0.6-0.9-1.3-0.6-1.7c0.9-1,0-1.5-0.3-2.3c-0.3-0.6-0.6-1.1-0.6-1.7c0.1-1.9-0.9-3.5-1.2-5.3
			c0.2-0.2,0.8,0.3,0.9-0.4c-0.3-0.3-1.1,0.1-1-0.6c0.1-0.5,0.7-0.3,1-0.4c0.5-0.1,1.3-0.4,0.8-0.9c-0.7-0.8-0.8-1.9-1.3-2.7
			c-1.2-2-0.8-3,1.4-3.4c0.2,0,0.4-0.1,0.4-0.5c-1.2,0.3-0.9-0.5-1-1.2c-0.1-0.6,0.5-1.4-0.2-1.7c-1.5-0.7-0.9-1.9-0.6-2.7
			c0.3-0.9,0.3-1.8,0.7-2.7c0.4-0.8,0.2-1.6-0.9-1.9c-0.7-0.1-1.3-0.5-1.9-0.9c-0.9-0.6-2.1-0.6-3,0.2c-0.7,0.6-0.9,1.4-0.4,2.3
			c0.4,0.6,0.1,1.2-0.1,1.8c-0.3,0.7-0.8,1.5-0.6,2.2c0.2,1.1-0.5,1.7-0.9,2.6c-0.5-0.4-0.3-0.7-0.2-1.1c0.1-0.9-0.1-1.8-0.6-2.4
			c-0.3-0.3-1.1-0.9-1.2,0.1C312.8,372.4,312.1,372.6,311.2,372.5z M328.6,397.6c1.3,0.7,1.9,1.1,2.4-0.5c0.2-0.8,0.4-2.3,1.4-2.3
			c0.8,0,0.3,1.4,0.6,2.1c0.5,1.2,0.7,2.5-0.6,3.4c1,1.1,2.2,1.3,3.4,1.4c0.6,0.1,1.1,0.3,1.4,0.8c0.3,0.7,0.7,1.8,1.6,1
			c0.8-0.8,1.7,0.3,2.4-0.4c0.1-0.1,0.2-0.4,0.1-0.5c-0.5-1.5,0.3-1.5,1.4-1.4c1.5,0.1,1.9-0.3,1.6-1.8c-0.1-0.2-0.3-0.5-0.1-0.7
			c0.8-1.7,0.1-3.4-0.4-5c-0.6-1.8-1.2-2-2.9-1.1c0.2,0.2,0.6,0.3,0.6,0.5c-0.2,1.3-0.4,2.6-0.7,3.9c-0.1,0.4-0.6,0.5-0.9,0.2
			c-0.5-0.7-1.3-0.7-2-1c-0.5-0.2-0.8-0.5-0.6-1c0.4-1-0.1-1.9-0.3-2.9c-0.4-1.8-0.2-3.7-0.3-5.5c0-0.6,0.3-0.8,0.7-0.8
			c0.7,0,0.6,0.4,0.4,0.9c-0.2,0.4-0.1,0.6,0.1,1c0.6,1.3,1,2.5,0.3,3.9c-0.2,0.5,0.2,0.9,0.6,1c0.4,0.2,1,0.3,1.2-0.2
			c0.3-0.9,0.3-1.8,0.4-2.7c0.2-1.8-0.8-3.6,0.2-5.4c0.1-0.2,0.1-0.5-0.1-0.5c-1.1-0.5-1-1.5-1.2-2.3c-0.2-1.1-1-1.4-1.8-1.2
			c-1.1,0.2-1.7,0.1-1.6-1.2c0-0.3-0.2-0.7-0.7-0.7c-0.4,0-0.8,0.3-0.9,0.7c-0.1,0.4,0.3,1.2-0.5,1.2c-0.7,0-0.9-0.6-1-1.2
			c-0.2-0.6-0.4-1.1-0.5-1.7c-0.4-1.5-0.2-3.1-1.1-4.4c-0.7-1.2,0.4-2.2,0.1-3.3c-0.1-0.3,0.6,0.1,0.7-0.3c-1.1-0.1-1.7-0.8-2.1-1.7
			c-0.4-1-1-1.2-2-0.9c0.7,0.5,0.7,1.1,0.4,1.7c-1,1.8-0.6,3.8-0.8,5.7c0,0.4-0.1,0.8,0.4,1c0.3,0.1,0.7,0.2,0.3,0.6
			c-0.2,0.2-0.6,0.3-0.8,0c-0.5-0.5-1-0.8-1.6-0.2c-0.7,0.7,0.1,1.2,0.3,1.8c0.1,0.5,0.6,0.7,1.2,0.9c1,0.3,1.1,1.6,0.2,2.1
			c-1,0.5-0.8,0.9-0.2,1.5c1,1.2,0.9,2-0.5,2.8c0.8,0.7,1.3,1.5-0.2,2.3c1.3,0.2,2.3,0.7,1.7,1.8c-0.6,1.2-0.3,2.1,0,3.2
			c0.4,1.1,0.9,2.2,1.4,3.3C329.9,396.2,330.4,397.2,328.6,397.6z M249.8,504.7c1.3,0.3,2.1,1.4,3.3,2c2.5,1.2,4.6,1.3,6.9-0.2
			c0.3-0.2,0.7-0.3,0.8,0c0.6,1.1,1.7,1,2.6,1.2c1.2,0.3,3.2-0.4,3.7-1.5c0.7-1.4-0.4-2-1.4-2.6c-0.3-0.1-0.4-0.3-0.4-0.6
			c0.1-0.4,0.4-0.4,0.7-0.4c0.4,0,0.8,0.1,1.2,0.3c1.1,0.4,1.9,0.3,2.5-0.7c0.2-0.4,0.5-1,0.9-0.8c1.4,0.5,2.3-0.5,3.4-0.8
			c0.8-0.2,1.3-0.8,0.8-1.8c-0.5-1,0.2-1.1,0.9-1c0.5,0.1,1.1,0.2,1.4,0.6c0.9,1.3,2,0.9,3.2,0.5c1.1-0.4,1.6-1.9,0.7-2.7
			c-0.6-0.5-0.8-1.2-1.3-1.7c-0.8-1-0.1-1.2,0.6-1.4c0.3-0.1,0.7,0,1.1-0.1c1-0.1,1.3-0.6,1.3-1.6c-0.1-0.8,0-1.6-1.2-1.5
			c-0.7,0-1.2-0.2-1.5-1c-0.4-1.1-1.4-1.3-2.4-0.9c-1.4,0.5-2.5,1.6-3.4,2.7c-0.2,0.2-0.3,0.4-0.6,0.4c-0.2-0.1-0.3-0.2-0.3-0.5
			c0.2-1.1-0.5-1-1.2-0.9c-0.7,0.1-1.3,0.3-1.9,0.6c-1.9,0.9-4.1,0.9-5.9,2.4c-1.3,1.1-3,1.1-4.7,0.7c-2-0.5-3.7,0.3-5.3,1.4
			c-0.5,0.4-0.5,0.7-0.3,1.1c1,1.7,2.1,3.2,4.4,2.6c0.5-0.1,1-0.1,1.5-0.2c0.5-0.1,0.9-0.2,0.8,0.6c-0.1,0.3,0.2,0.6,0.6,0.5
			c0.2-0.1,0.5-0.5,0.4-0.5c-0.9-1.3,0.4-1.1,0.9-1.4c1.1-0.6,2.4-0.9,3.2-1.9c0.4-0.5,0.9-0.6,1.4,0c0.4,0.5,0.6,1,0,1.6
			c-0.3,0.3-0.6,0.5-0.9,0.8c-1,1-2.7,1.2-2.8,3c0,0.2-0.4,0.6-0.6,0.7c-2,0.5-3.7,1.6-5.7,2.1c-1.1,0.3-2.2,0.4-3.5,0
			C252.5,503.3,251.5,505.5,249.8,504.7z M317.5,276c0.4-0.2,0.7-0.5,0.3-0.8c-0.9-0.7-0.7-1.7-0.9-2.5c-0.2-1,0.2-1.6,1.3-1.6
			c0.4,0,0.8,0,1.2-0.1c1.1-0.2,1.4-1.1,0.6-1.9c-2.4-2.4-3.7-5.7-6.4-7.9c-1.1-0.9-1.2-2.5-2.5-3.2c-0.5-0.3-1.2-0.6-1.3-1
			c-0.4-2.6-3.1-3.2-4.6-4.8c-1.6-1.7-3.7-3.3-6.1-4.1c-1.4-0.5-2.6-1.4-4.1-1.6c-0.3-0.1-0.6-0.3-1,0c-0.8,0.8-1.4,3.1-0.8,4
			c0.4,0.7,0.8,1.4,1.2,2.1c0.9,1.5,2.3,2.2,3.5,3.2c1.1,0.9,1.1,2.6,2.6,3.1c0.7,0.2,0.9,1,1.1,1.6c1.3,2.7,1.3,2.7,4.2,2.3
			c0.5-0.1,1.1-0.1,1.2,0.6c0.2,1.7,1.5,2.7,2.2,4.1c0.9,1.9,1.7,3.9,2.6,5.8c0.5,1.1,1,1.5,2.1,1.4c1.1,0,2.4-0.6,3,1
			C317.1,275.9,317.3,275.9,317.5,276z M338.8,275.5c-0.6,0.3-1.4-0.8-1.9,0.3c-0.2,0.4,0.4,1.2-0.3,1.3c-0.6,0.1-0.6-0.9-1.1-1.1
			c-0.4-0.2-0.2-0.6-0.3-0.8c-0.2-0.4-0.7-0.5-0.9-0.2c-0.3,0.6-1.3,0.1-1.3,0.9c0,0.4,0.3,1.1,0.9,0.8c0.9-0.4,0.7,0.1,0.7,0.6
			c0,1.5,0.9,2.2,2.1,1.5c0.8-0.4,1-0.1,1.1,0.6c0.1,0.6,0.3,1.3,0.1,1.8c-0.4,1.7-0.8,3.3-0.5,5.1c0.1,0.6,1,1.5-0.1,2.2
			c0.4,0.2,0.3,0.9,0.9,0.9c0.3,0,0.8-0.2,0.7-0.4c-0.3-1,0.7-1.2,0.9-1.9c0.2-0.7,1-1.5-0.5-1.6c-0.5-0.1-0.6-0.5-0.4-0.8
			c0.3-0.6,0.1-1.1,0.1-1.6c0-0.3-0.1-0.8,0.4-0.9c0.4-0.1,0.7,0.1,0.9,0.4c0.6,0.7,0.1,1.2-0.4,1.7c0.5,0.2,1.1-0.2,1.1,0.3
			c-0.1,1.2,1.3,1.9,1.1,3.1c-0.1,0.5,0.1,1,0.2,1.5c0.5,2.4,1.5,4.7,0.2,7.2c-0.7,1.4,0.6,2.6,1.7,3.4c1.2,1,2.4,0.1,3-0.8
			c0.5-0.7,2-0.6,1.8-1.8c-0.1-0.8,0.3-1,0.8-1.3c0.8-0.5,1.7-1,2.5-1.4c0.5-0.3,1-0.8,0.9-1.3c-0.5-1.9-0.4-4-1.6-5.6
			c-1.3-1.9-2.4-3.8-3.6-5.7c-1.8-2.9-4.3-5.1-6.4-7.6c-0.3-0.4-0.9-0.6-1.2-1c-1.3-2.4-3.4-4-5.3-5.9c-0.3-0.3-0.8-0.6-1.2-0.2
			c-0.4,0.3-0.3,0.8-0.1,1.1c0.7,1.2,0.7,2.7,1.8,3.7c0.6,0.5,0.2,1,0,1.5C337.2,272.8,338.2,273.5,338.8,275.5z M240.5,384.1
			c0.7,0.8,0.4,1.2-0.3,1.9c-0.9,0.8-2,1.6-2.4,2.9c-0.3,0.9-1.3,1.3-2.1,1.6c-0.6,0.2-0.9-0.5-1-0.7c-0.2-1.1,0.4-2.1,0.9-2.8
			c1.2-1.6,2.3-3.4,3.4-5.1c1.5-2,3-4,4.4-6.1c0.5-0.8,1.2-1.4,1.2-2.4c0-0.4,0.7-0.8,0.2-1.2c-0.5-0.4-1-0.5-1.6-0.3
			c-0.9,0.4-1.8,0.8-2.2,1.8c-0.1,0.4-0.4,0.8-0.7,1c-1.8,1.4-2.7,3.5-4.2,5.2c-0.5,0.6-1.7,0.8-1.1,2c0,0.1-0.2,0.3-0.4,0.4
			c-1.2,0.6-1.7,1.7-2.3,2.7c-0.5,0.9-1.3,1.4-2.1,1c-0.8-0.4-0.8-1.3-0.3-2.2c1-1.7,1.8-3.5,3-5.2c1.5-2.2,3.3-4,4.7-6.2
			c1.3-2,2.9-3.8,3.7-6.1c0.2-0.5,0.1-0.8-0.2-1.1c-0.4-0.4-0.9-0.3-1.3-0.1c-0.7,0.5-1.4,1-2,1.9c-1.3,2-2.8,3.8-4.3,5.7
			c-0.5,0.7-1.7,0.9-1.2,2.1c0.1,0.3-0.3,0.5-0.6,0.6c-1,0.2-1.5,1-1.7,1.8c-0.3,1-1.1,1.7-1.7,2.5c-0.7,0.9-1.3,1.2-2.3,0.5
			c-0.9-0.7-1.4-0.3-1.3,0.7c0.3,2.5,0.9,4.9,3.2,6.4c0.5,0.3,0.9,0.5,0.8,1.1c-0.2,0.9-0.3,0.9,0.8,0.9c0.3,0,0.6,0.2,0.8,0.4
			c1.4,1,3,1.8,4.4,2.8c2.2,1.5,5.1,2.1,8,1.7c0.7-0.1,1.2-0.4,1.4-1.4c0.1-0.8,0.4-1.8,1.9-1.5c-1.3-1.3-1.6-1.3-2.5-0.6
			c-0.6,0.4,0.3,0.7-0.2,1.2c-0.8,0.7-1.6,0.9-2.5,0.5c-0.7-0.3-0.7-2-0.1-2.8c1-1.3,2-2.6,3.1-3.8c1.2-1.4,2.2-2.9,2.8-4.6
			c0.5-1.2,1.7-2.1,1.3-3.6c-0.2-0.5-0.3-0.9-0.9-0.5c-2,1.4-3.3,3.4-4.7,5.3C241.8,383.4,241.5,384,240.5,384.1z M302.2,227
			c-0.1-1,0-1.9-0.8-2.1c-1-0.2-1,0.9-1.2,1.5c-0.3,1-0.9,1.2-1.7,0.9c-0.5-0.2-0.9-0.2-1.3,0c-1.2,0.5-2.5-0.8-3.7,0.1
			c0,0-0.2-0.2-0.2-0.3c-0.1-1-0.9-1-1.3-0.5c-0.5,0.7-1.5,1.6-0.8,2.4c0.9,1,2.1,1.7,3,2.6c1.1,1.1,2.5,1.6,3.8,2.2
			c2.2,1.1,3.9,3.1,6.3,3.8c1.6,0.4,2.5,1.8,4.1,2.3c0.9,0.3,2.1,0,2.4,1.4c0.1,0.4,1.2,0.2,1.3-0.3c0.1-0.7,0.6-1.4,0.4-2.2
			c-0.4-1.7-0.9-3.3-0.9-5c0-1-0.3-1.7-1.6-1c-0.8,0.5-1.3-0.2-1.3-0.9c0-0.2,0.4-0.5,0.7-0.7c0.6-0.4,0.6-0.9,0.2-1.4
			c-0.4-0.6-0.6,0-0.9,0.1c-0.8,0.4-0.8-0.3-0.6-0.7c0.7-1.7-0.6-1.7-1.5-1.7c-1.5,0.1-2-0.2-1.3-1.7c0.3-0.7-0.1-1.3-0.8-1.6
			c-0.9-0.4-0.9,0.5-1.2,0.8C302.8,225.6,302.6,226.2,302.2,227z M278.2,251.5c1.2,1,1.2,1.4,0.1,2.8c-0.5,0.6-1.6,1.1-1.4,1.8
			c0.2,0.9,1.5,0.7,2.3,0.9c1.7,0.4,3.1,1.6,4.9,1.6c0.7,0,1.6,0.1,2-0.8c1.3-3.2,3.9-5.7,5.7-8.6c0.7-1.2,2.1-2.3,1.6-3.8
			c-0.6-1.6-2.3-2.6-4-2.8c-1.8-0.2-3.5,0.2-4.4,2.1c1,0.6,1.7-0.6,2.7-0.2c-1.2,0-1.7,1.9-3.4,1c1,0.7,1,1.1,0.2,1.8
			c-0.9,0.7-1.7,1.5-2.6,2.3C280.7,250.5,280.6,253.2,278.2,251.5z M315.1,351.8c-1.4-0.2-2.4-0.8-2.9-2.1c-0.2-0.5-4-0.2-4.3,0.2
			c-0.1,0.1-0.1,0.2-0.1,0.3c0.1,3-2.8,5.1-2.5,8.2c0,0.1,0,0.3-0.1,0.3c-1.1,0.3-1.5,0.9-1.4,2.1c0.1,1.1-0.4,2.1-0.4,3.2
			c0,0.9,0.3,1.9-0.4,2.8c-0.8,1.1,0.6,1.3,0.9,2c0.2,0.6,0.9,0.2,1.2,0c0.7-0.5,0.3-1-0.1-1.6c-0.3-0.4-0.4-1,0.3-1.3
			c0.7-0.4,1.7-1.6,2.2-1c1.4,1.6,2.7,0.6,4.1,0.3c0.2,0,0.6-0.1,0.4-0.3c-0.6-0.8,0.4-1.4,0.3-1.7c-0.6-1.1,1.2-1.4,0.7-2.1
			c-0.9-1.2-0.1-2.3,0.4-2.9c0.9-1,2.4-1.5,0.7-3c0.9-1.3,0-2.1-1-2.8C313.6,351.9,314.3,351.7,315.1,351.8z M315.6,257.3
			c-0.7-0.3-1.7,0.1-2-1c-0.1-0.4-0.5-0.9-1-0.6c-0.8,0.5,0.1,0.7,0.2,1c1.1,1.9,2.6,3.4,4.2,4.9c0.2,0.2,0.6,0.4,0.9,0.5
			c0.3,0.1,0.8,0,0.9-0.4c0.2-0.3-0.2-0.5-0.4-0.7c-0.8-0.7-1.1-1.7-1.7-2.6c0.7,0,1,0.4,1.3,0.7c0.4,0.6,0.9,1,1.5,0.6
			c0.7-0.4,0.8-1,0.4-1.7c-0.3-0.5-0.4-1.1,0.4-1.4c0.8-0.3,0.8-0.3,0.3-1c-0.1-0.1-0.1-0.3-0.1-0.4c0.5-1.1-0.2-1.8-0.7-2.8
			c-1.6-2.7-3.8-4.6-6.5-6c-1-0.5-1.8-0.9-1.9-2.1c-0.1-1.1-1.1-1.3-1.8-1.2c-0.8,0.1-1.3,0.9-1.2,1.7c0.1,0.9,0.3,1.9,1.4,2.1
			c0.3,0.1,0.6,0.3,0.5,0.7c-0.1,0.4-0.4,0.1-0.6,0.1c-2.4,0.2-4.3-0.7-5.8-2.5c-0.5-0.6-1.3-0.7-1.9-1c-0.2-0.1-0.4,0-0.5,0.2
			c-0.1,0.2,0,0.5,0.2,0.5c1,0.2,1.4,1.3,2.2,1.6c2.5,1,4.1,3.2,6.2,4.7c1,0.7,1.4,2.2,2.4,2.7C313.9,255,314.5,256.3,315.6,257.3z
			 M313.6,415.1c-0.3-0.6-0.6-0.5-1-0.6c-0.8-0.1-1.6-0.1-2.4-0.3c-0.4-0.1-1.1-0.3-1.1-0.9c0-0.5,0.6-0.6,1.1-0.6
			c3,0.1,6.1,0.1,9.1,0.2c0.9,0,1.5,0.9,1.1,1.4c-0.8,0.8-0.6,1.7-1,2.5c-0.3,0.5-0.4,1-1,0.9c-2.2-0.1-4.4,0.2-6.6-0.5
			c-1.1-0.3-2.4-0.3-3.6-0.3c-1,0-0.7,0.8-0.8,1.4c0,0.2-0.1,0.4-0.2,0.6c0,0,0.2,0,0.2,0.1c2,0.9,2.5,2.5,1.6,4.5
			c-0.3,0.8-0.5,2,0.6,2.1c2.4,0.2,4.9,0.7,7.4,0.5c0.5,0,1.2-0.2,1.2-0.8c0.2-2.1,1.9-3.8,2-5.9c0.1-2.6,1.3-4.4,2.9-6.2
			c1-1.1,1-1.4-0.5-1.6c-4-0.6-8.1-0.4-12.1-0.2c-1,0-2.1,0.8-2.8,1.7c-0.4,0.5-0.5,1,0.4,1.5C309.8,415.6,311.6,415.4,313.6,415.1z
			 M344.7,612.1c0.4,1.9,1.7,2.4,3.1,2.8c1.6,0.4,2.8,2,4.7,1.7c2.4-0.3,4.6-0.7,6.4-2.7c1-1.1,2.8-1.7,2-3.8c-2.9,2-6.1,3-9.6,3.3
			c-0.7,0-1.5,0.3-1.7-0.4c-0.2-0.8,0.8-1,1.4-1.4c0.4-0.2,0.7-0.2,1.1,0.1c0.3,0.2,0.8,0.4,0.9-0.3c0.1-0.6,0.6-0.6,1-0.8
			c2-1.3,4.4-2.1,5.9-4.2c0.2-0.3,0.7-0.4,0.5-0.9c-0.2-0.4-0.5-0.5-0.9-0.5c-1.6,0.1-3.5-0.1-4.7,1.1c-1.7,1.6-3.8,2.3-5.7,3.4
			c-0.9,0.5-2.1,1-2.6,1.9C346.1,612.5,345.6,612.8,344.7,612.1z M357.5,574.4c0.5,0.4,1.5-0.2,1.3,0.9c-0.1,1-0.3,2-0.3,3
			c-0.1,1.9-0.8,3.8-0.3,5.9c0.4,1.4-0.2,3.1-0.3,4.6c-0.1,1.4,0,2.9-1.1,4c-0.1,0.1,0,0.3,0.1,0.4c1.1,1,0.2,1.8-0.4,2.3
			c-1,0.9-1.2,2-1.5,3.2c-0.1,0.5-0.5,1.2,0.1,1.5c0.6,0.3,1.3-0.3,1.7-0.8c0.3-0.4,0.2-0.9,0.9-1.1c0.9-0.2,1.8-0.6,1.7-1.9
			c0-0.3,0.3-1.1,0.9-1.2c0.7-0.1,0.3-0.4,0.4-0.8c0.2-1.6,0-3.1,0.1-4.7c0.2-1.8,0.3-3.6,0.4-5.4c0.2-2.7-0.1-5.5-0.3-8.2
			c-0.1-1.2-0.1-2.4,0.3-3.6c0.2-0.5,0.3-1.3-0.5-1.6c-0.7-0.2-0.9,0.5-1.2,1c-0.2,0.2-0.5,0.4-0.4,0.8
			C359.4,574.2,358.8,574.6,357.5,574.4z M282.7,319.1c0.4-0.1,0.6,0,0.8,0.2c0.5,0.7,1.2,0.9,1.9,0.3c0.8-0.7,2.3-1.1,2.1-2.3
			c-0.3-1.3,0.4-1.7,1.1-2.4c1-0.9,1.8-1.8,0.7-3.3c-0.4-0.5-0.4-1.1,0.2-1.7c0.6-0.5,1-1.5,0.9-2.3c-0.1-0.7-1.1-0.1-1.6-0.4
			c-0.3-0.1-0.7-0.3-1-0.4c-0.3-0.1-0.7-0.1-0.8,0.2c-0.6,1.4-1.8,2.6-1.5,4.3c0.1,0.5,0.1,1.1-0.6,1.2c-0.3,0.1-0.5,0.3-0.6,0.6
			c-0.2,1.7-1.6,2.9-2.2,4.5c-0.3,0.7-0.4,1.8-1.2,2.4c-1.2,0.9-1.9,2-1.7,3.6c0.1,0.5,0,1,0.6,1.2c0.6,0.2,1.1-0.1,1.5-0.5
			c1.2-1.4,2.4-2.9,1.3-4.9C282.6,319.5,282.7,319.2,282.7,319.1z M308.1,378.2c-0.3-0.7-2.4,0.2-1.4-1.6c0,0-0.3-0.3-0.5-0.3
			c-0.7-0.1-1.3-0.2-2-0.1c-2,0.3-3.1,0-4-1.8c-0.4-0.7-0.7-1.3-1.5-1.2c-1,0.2-0.7,1.1-0.8,1.8c-0.1,0.3,0.1,0.7,0,1.1
			c-0.1,1.5,0.5,3.2-0.1,4.6c-0.6,1.4,0.4,1.6,1.1,2.1c1,0.6,2.4,0.8,3,1.6c0.9,1.3,1.7,0.6,2.5,0.3c0.8-0.3,0.7-0.8,0-1.2
			c-1-0.5-1.8-1.3-2.8-2c0.7-0.3,1.2-0.3,1.9-0.1c1.1,0.4,2.6,1.8,2.6-0.9c0-0.1,0.3-0.2,0.5-0.3c0.7-0.4,0.6-0.9,0-1.3
			c-0.1-0.1,0-0.3-0.1-0.5C307.3,378.4,307.7,378.6,308.1,378.2z M311.9,294.2c0.3,0.5,0.4,0.7,0.5,0.9c0.1,0.2,0,0.5,0.1,0.7
			c0.3,0.8,1.2,1,1.7,0.5c0.3-0.3,0.8-4,0.5-4.3c-0.7-0.8-1.2-1.8-1.8-2.6c-0.6-0.8-1.1-0.9-1.7-0.6c-0.6,0.3-1,0.1-1.5-0.1
			c-1.6-0.6-3,0.6-3.1,2.3c-0.1,1,0.6,2.1,0,3c-0.5,0.6,0.3,1.6-0.7,2c0.9,0.2,1.6,0.9,2.6,0.7c0.8-0.1,1.4,0.4,2,0.6
			c0.9,0.3,1.4,0.1,1.2-1C311.8,295.8,311.7,295.2,311.9,294.2z M303.8,279.7c0.8,1.1,1.4-0.2,2.2,0.3c0.9,0.6,1.9,0.8,3.1,0.8
			c0.9,0,1.7,0.4,1.8,1.7c0.1,1.1,0.9,1.9,1.8,2.6c0.9,0.7,1.9,0.3,2.2-0.8c0.2-0.7,0.4-1.3,0.2-2.1c-0.4-1.5,0.6-2.5,2.1-2
			c0.6,0.2,1.2,0.4,1.8,0.6c0.7,0.2,1-0.2,1.1-0.7c0.2-0.6-0.4-0.6-0.7-0.8c-0.7-0.4-1.6,0.1-2.4-0.5c-0.9-0.8-2-0.8-3.2-0.7
			c-1.1,0.2-2.2,0.3-3.2-0.7c-0.9-0.9-3.5-0.4-4.1,0.7C305.8,279.1,305,279.6,303.8,279.7z M226.9,567.1c-0.5-0.5-1.1-0.8-0.9-1.1
			c1-1.1,0-2.6,1-3.7c0.3-0.3,0-0.8-0.3-1c-0.4-0.3-0.7,0-0.9,0.3c-0.5,0.8-1.2,1.3-1.4,2.3c-0.4,1.5-1.1,3.1-1.9,4.5
			c-1.3,2.3-2.9,4.4-3.4,7.1c-0.3,1.5-1.2,2.8-1.3,4.5c-0.1,1.4-1,2.5-0.4,4.2c0.5,1.6,0.5,1.9,2.1,1c-1.3-1.3-0.3-2.9-0.5-4.3
			c-0.4-2.1,1.4-3.6,2.4-5.1c1.7-2.5,2.5-5.5,4.1-8.1C225.9,566.8,226.2,567.1,226.9,567.1z M282.6,426c0-0.3,0-0.4,0-0.5
			c-1.8-2.3-4.5-2.9-7.1-3.6c-1-0.3-2.3-0.3-3.2-0.8c-2.5-1.4-5.1-1-7.7-0.9c-0.5,0-1.2,0.4-0.9,1c0.3,0.7,0.5,1.4,0.9,2.1
			c0.6,1.1,1.6,0.2,2.1,0.7c1.4,1.2,2.8,0.7,4.3,0.2c0.7-0.2,1.8-0.8,2.2-0.1c0.8,1.1,1.6,0.9,2.6,0.7
			C278.3,424,280.3,425.1,282.6,426z M280.4,349.9c-0.5,0.1-0.9,0-1.2,0.7c-0.3,0.8-0.9,1.6-1.4,2.3c-0.2,0.4-0.6,0.8-0.4,1.3
			c0.1,0.3,0.5,0.4,0.8,0.3c0.6-0.1,1-0.4,0.9-1.1c-0.1-0.7,0.2-0.8,0.8-0.8c0.9,0,2.8,1.8,2.8,2.7c0.1,1.4,1.2,2,2.4,1.3
			c0.7-0.4,1.7-3.1,1.3-3.6c-0.7-0.9-0.4-1.4,0.3-1.9c0.5-0.3,0.6-0.8,0.1-1.1c-1.8-0.9-3.6-1.8-5.5-2.5c-0.6-0.2-1.4,0-1.4,0.8
			c-0.1,0.6,0.5,0.9,1.2,1c0.4,0,1.1,0,0.9,0.6c-0.1,0.5-0.7,0.3-1.1,0.2C280.7,350,280.5,350,280.4,349.9z M279,444.1
			c1.1,1.5,3.1,0.4,4.3,1.4c0.1,0.1,0.6-0.1,0.8-0.3c1.3-1.1,2.7-1.6,4.4-1.7c1.4-0.1,1.9-1.1,1.4-2.2c-0.2-0.5-0.5-0.6-1-0.6
			c-1.8,0-2.8-1.7-4.5-2c-0.3,0-0.1-0.6,0.2-0.7c0.7-0.2,0.4-0.6,0.1-0.9c-1-1.1-1.7-0.4-2.7,0.3c-1.1,0.9,0,1.4,0.2,2
			c0.2,0.5,1,0,1.3,0.4C282.1,441.5,279.8,441.9,279,444.1z M283.7,432.7c-0.9-1.5-3.8-2-4.7-0.6c-1.3,1.9-3.3,3-4.8,4.6
			c-1.3,1.3-2.9,2.3-2.7,4.5c0.1,1.4,0.8,1.9,2,1.4c0.6-0.2,1.1-0.4,1.8-0.2c1.2,0.4,1.2-1.1,1.8-1.7c0.4-0.4,0-0.6-0.4-0.8
			c-1.3-0.7-1.4-1.2-0.2-2c0.8-0.5,1.9-0.8,2.2-1.5C280,434.2,281.9,433.6,283.7,432.7z M330.7,348.6c0.9,0.7,1.9,1.2,2.7,2
			c0.8,0.8,3.6,0.7,3.8-0.2c0.3-1.4,1.6-2.1,2.1-3.3c0.4-0.8,0.9-1.8,0.1-2.7c-1-1-4.4-1-5.3,0c-0.5,0.5-1.1,0.9-2,0.6
			C333,346.2,332.8,346.7,330.7,348.6z M280.3,246c0.7,0.1,1.3-0.1,1.8-0.7c1.5-1.6,2.3-3.8,3.9-5.4c0.4-0.4,0-1-0.5-1.1
			c-0.7-0.1-1.9-0.8-1.9,0.8c0,0.5-0.4,0.6-0.8,0.7c-0.9,0.3-1.6,0-2.4-0.3c-0.4-0.2-1.1-0.5-1.2,0c-0.4,1.2-1.4,1.5-2.2,2
			c-1.1,0.8-1.4,2.6-3.2,2.5c-0.3,0-0.5,0.3-0.4,0.7c0.1,0.4,0.5,0.4,0.8,0.4C276.2,245.4,278.3,245.6,280.3,246z M350.8,321.4
			c0,0.1,0.1-0.2,0-0.3c-0.9-0.9-1.2-2.1-1.6-3.3c-0.1-0.5-0.7-0.1-0.8,0.2c-0.4,0.9-0.9,1.8-0.6,2.8c0.1,0.3,0,0.8,0.5,0.9
			c0.4,0.1,0.6-0.1,0.7-0.4c0.1-0.2,0.3-0.5,0.6-0.3c0.2,0.2,0.3,0.5,0.1,0.7c-0.1,0.3-0.3,0.5-0.5,0.8c-0.9,1-1.2,2.4-1.5,3.7
			c-0.2,0.9,1.1,1,1.3,1.7c0,0.1,0.2,0.1,0.2,0.2c0.7,1.7,2.1,1.7,3.6,1.3c1.3-0.4,0.6-2.3,2.1-2.6c-0.9-0.6-0.6-2.1-1.9-2.5
			C351.9,323.9,350.6,323.4,350.8,321.4z M349.5,414.5c-0.6-0.9-1.5-0.9-2.4-0.8c-0.4,0.1-0.8,0.1-1.2,0.1c-3.2-0.6-5.8,1.1-8.6,1.9
			c-0.4,0.1-0.7,0.5-1.1,0.9c-0.6,0.5-0.5,0.9,0.3,1c0.9,0,1.2,0.4,1.2,1.2c0,0.5,0,1,0.5,1.1c0.5,0.1,0.7-0.4,0.9-0.7
			c0.8-0.8,1.4-1.9,2.8-0.8c0.3,0.2,0.7-0.1,0.9-0.4c0.3-0.4,0.7-0.5,1.2-0.4c1.2,0.1,2.1-0.5,2.5-1.6c0.3-0.7,0.7-0.9,1.4-1
			C348.5,415.1,349,415,349.5,414.5z M324.8,355.3c0.9-0.4-0.1-1.8,1-2.2c1-0.3,1,0.7,1.3,1.3c0.1,0.1,0.2,0.3,0.3,0.3
			c0.8,0.2,1,1.8,2,1.1c0.5-0.3-0.2-1.3-0.2-1.9c0.1-1.5-0.8-1.9-2.1-1.9c-2.4,0-4.8-0.1-7.1,0.3c-1.1,0.2-1.3,0.6-1.4,1.8
			c-0.2,1.8,2.6,1.2,2.1,3c0,0,0.1,0.1,0.1,0.1c1-0.4,1.7,0.3,2.5,0.8c0.4,0.2,0.8,0,1.1-0.3C325.3,357,325.3,356.3,324.8,355.3z
			 M238,361.7c0-0.4-0.1-0.6-0.3-0.7c-0.7-0.3-1.5,0-1.9,0.4c-1.4,1.7-3,3.3-3.9,5.2c-0.9,2.1-2.4,3.8-3.7,5.6
			c-1.1,1.5-1.8,3.3-3.3,4.6c-0.3,0.3-0.3,0.7,0,1c0.3,0.2,0.6,0.3,0.9,0.1c0.8-0.5,2.2-1.2,2.4-1.6c0.6-1.9,1.8-3.3,2.9-4.8
			c0.7-1.1,1.4-2.1,2.4-2.9c0.3-0.2,0.7-0.2,0.7-0.7c0-1.3,0.9-1.9,1.7-2.8C236.9,364.1,237.4,362.8,238,361.7z M255.2,245.6
			c0.3,0.1,0.4,0.1,0.5,0.1c2.3,0.3,4-0.3,4.7-2.8c0.3-0.9,0.2-1.1-0.5-1.2c-0.6-0.1-1.5,0-1.7-0.8c-0.3-1.2-1.2-1.1-2-1.1
			c-1.6,0-3.2,0.3-4.6,0.9c-0.9,0.4-2.8,1-2.3,2.3c0.5,1.5,2.1,0.7,3.2,0.3c1-0.3,1.9-0.7,3-0.7c0.8,0,1.3,0.3,0.6,1.1
			C255.4,244.3,255.4,244.9,255.2,245.6z M292.5,401.5c0.8,1,1.6,1.8,3,1.6c0.7-0.1,1.5,0,1.9,0.7c0.3,0.5,0.8,0.5,1.2,0.5
			c0.7-0.1,1.2,0.1,1.7,0.5c0.7,0.6,1.5,0.5,2.3,0.1c2-0.9,3.9-2.1,6.2-1.5c0.2,0.1,0.5-0.1,0.7-0.2c0.3-0.1,0.6-0.3,0.5-0.7
			c-0.1-0.4-0.4-0.4-0.7-0.3c-0.6,0.1-1.1,0-1.7-0.1c-3.7-0.6-7.5-0.7-11.3-0.7C295.2,401.3,293.9,401.8,292.5,401.5z M275,506.6
			c1-0.1,1.7-0.2,2.2-0.7c0.6-0.7,1.3-1.1,2.3-1c0.9,0.1,1.8-0.1,2-1.1c0.2-0.9-0.3-1.7-1.2-1.9c-1.7-0.4-3.3-1.8-5.1,0.1
			c-1,1-2.4,1.5-3.8,1.8c-0.4,0.1-1.2,0.6-0.5,1C272.2,505.5,273.8,506.1,275,506.6z M275.6,298.2c-0.4,0.6-0.1,0.9,0.3,0.9
			c0.6,0.1,1.2-0.2,1.5-0.8c0.5-0.9,0.8-2,1.5-2.8c1.6-1.8,2.2-4.1,3.6-6c0.3-0.5,0.7-1.3-0.2-1.7c-0.8-0.4-1.3,0.1-1.6,0.7
			c-0.6,1-1.4,1.7-2.4,2.2c-1.4,0.7-2.1,2.3-3.4,3.2c-0.2,0.2-0.3,0.5-0.1,0.7C276.1,295.7,275.4,297.1,275.6,298.2z M271.2,433.9
			c0-0.8-0.3-1.2-1.2-0.9c-0.8,0.2-1.5,0.6-2.1,1.2c-1.1,1.4-2.2,2.8-4.1,3.1c-0.4,0.1-0.7,0.3-0.7,0.7c-0.2,1.2,2,3.7,3.3,3.7
			c0.3,0,0.7-0.1,0.8-0.4c0.3-1.6,0.7-3,2.7-3.1C270.2,436.8,270.9,435.5,271.2,433.9z M245.7,625.2c-1,0.3-2.1,0.6-3.2,0.9
			c-0.5,0.1-0.8,0.6-0.8,1c-0.1,0.6,0.6,0.4,0.9,0.5c1.2,0.4,2.7,0.5,3.5,1.4c1.5,1.5,2.4,0.7,3.7-0.1c0.7-0.5,1.5-0.7,1.7,0.6
			c0.3,1.3,1.6,2,2.7,1.7c0.6-0.2,1-0.8,0.6-1.1c-1-0.9-1.5-2.4-3.2-2.7c-1.8-0.4-3.7-0.8-5.3-1.9
			C246.2,625.2,246,625.2,245.7,625.2z M335,406.3c-0.3-0.1-0.8,0.6-1.1-0.1c-0.2-0.5-0.1-1,0.3-1.5c0.3-0.3,0.8-0.7,0.4-1.2
			c-0.5-0.5-1.3-0.4-1.7,0c-0.7,0.7-1.6,1.4-1.9,2.3c-0.7,2-0.1,4,0.8,5.9c0.3,0.6,1.1,0.8,1.4,0.4c0.7-0.9,1.5-0.4,2.2-0.5
			c0.5,0,1.1,0.1,1.4-0.4c0.1-0.2,0.2-0.5,0-0.7c-0.5-0.3-1.1-0.3-1.5-0.1c-1.9,1.1-1.7-0.3-1.8-1.4c0-0.4-0.3-1,0.2-1.3
			c0.6-0.4,0.8,0.2,1.1,0.5c0.7,0.5,1.1,0.1,1.7-0.2c0.4-0.2,0.7-0.5,0.6-0.9c-0.2-0.7-0.8-0.6-1.4-0.7
			C335.5,406.4,335.3,406.4,335,406.3z M318.5,285.3c-0.7,0-1.3-0.1-1.8-0.1c-0.9,0-1.5,0.5-1.7,1.2c-0.7,2.3,1,4.3,3.4,4.2
			c2.8-0.1,3.8-2.1,2.6-4.6C320.2,284.5,319.1,285.7,318.5,285.3z M222.5,435.9c-0.5-1.6-1.7-2-3-2c-0.7,0-1.4,0.2-2.1,0.1
			c-1.3-0.2-1.7,0.7-2.1,1.6c-0.1,0.2,0.1,0.6-0.2,0.7c-1.7,0.4-0.4,1.5-0.4,2.1c0,0.9,1,0.7,1.6,0.7c1.1,0.1,2.2-0.1,3.2-0.1
			c0.4,0,0.9-0.2,0.8-0.5c-0.4-0.7-0.8-1.3,0.3-1.6c-0.6-1.3,0.5-0.8,1-0.9C221.8,435.9,222.1,435.9,222.5,435.9z M342.4,335.7
			c-0.4-1,0-2.6-1.5-2.7c-1.2-0.1-2,0.4-2.4,1.9c-0.4,1.4-0.1,2.5,0,3.8c0,0.8,0.4,1.5,1.3,1.5c0.9,0,1.6-0.2,2.1-1.1
			C342.5,338,341.5,336.7,342.4,335.7z M247,252.8c0.1,0,0.4,0.1,0.6,0c0.7-0.1,1.8,0.1,1.8-1c0-1-1-1-1.9-1.1c-2.1-0.1-4-0.1-5.4,2
			c-1.1,1.6-1.7,3.4-2.7,5c-0.2,0.3,0,0.6,0.2,0.8c0.2,0.1,0.4,0.3,0.5,0.1c0.7-1.5,2.9-1.9,3.2-3.8
			C243.6,252.8,245.2,252.7,247,252.8z M298.9,387.7c1.3-0.4,2.3,0,3.3,0.6c0.5,0.3,1.1,0.7,1.5-0.2c0.4-0.9-0.3-0.9-0.8-1.1
			c-0.9-0.4-1.7-0.8-2.5-1.4c-1-0.8-2.1-0.8-3.3,0.3c-1.3,1.2-0.1,1.4,0.5,1.9c0.1,0.1,0,0.2,0.1,0.3c1,1.1,1.4,2.9,3.4,2.9
			c0.7,0,1.7,0.6,2-0.3c0.3-0.8-0.6-1.3-1.3-1.7c-0.4-0.3-0.9-0.2-1.3-0.2C299.9,388.6,299.3,388.4,298.9,387.7z M246.6,264.8
			c0-0.4-0.4-0.6-0.7-0.8c-0.9-0.9-1.9-1.5-2-3c0-1,0.6-1.7,0.8-2.6c0.1-0.5,0.1-0.9-0.3-1.2c-0.5-0.3-0.8,0-1.2,0.3
			c-0.4,0.4-0.9,0.7-1.2,1.1c-0.6,0.6-1.2,1.3-0.7,2.3c0.3,0.5,0.4,1.1,0.6,1.7c0.3,1.1,0.9,2.1,1.7,2.9c1.2,1.2,1.7-0.7,2.6-0.4
			C246.4,265.2,246.6,265.1,246.6,264.8z M322.1,281.8c1.1,0.3,1.8,1.5,2.6,0.5c0.8-1,1.4-2.3,1.7-3.5c0.1-0.7-0.7-1.5-1.2-2.3
			c-0.8-1.4-2.3-2.2-2.8-3.7c-0.1-0.4-0.4-0.6-0.8-0.5c-0.4,0.1-0.5,0.5-0.6,0.8c-0.4,1.8,0.6,3.9,2.4,4.7c1.2,0.6,1.3,1.7,1.3,2.7
			c0,0.9-1,1-1.8,1C322.8,281.5,322.6,281.6,322.1,281.8z M295.8,326.7c0-0.3,0.1-0.6-0.2-0.8c-0.6-0.5-3.4,0.2-3.3,0.9
			c0.2,1.8-1.8,1.8-2.4,2.9c-0.2,0.4-1.3,0.2-0.7,1.1c0.6,0.8,1.1,0.6,1.6,0.1c0.7-0.8,1.3-1.4,1.8,0.2c0.2,0.7,1,0.9,1.7,0.7
			c0.5-0.2,0.9-0.5,1.3-0.7C294.4,329.6,295.4,328.2,295.8,326.7z M295.9,348.4c1.6,1.5,3,3.2,5.8,2.5c-1.4-0.8-1.6-1.8-0.6-2.9
			c0.4-0.4,0.8-0.9,0.1-1.3c-1.3-0.9-2.7-1.7-4.4-1.8c-0.3,0-0.5,0.1-0.6,0.3c-0.2,0.3,0.1,0.4,0.3,0.6c0.9,0.6,1.1,1.5,1.1,2.4
			C297.2,348.5,296.6,347.9,295.9,348.4z M302.3,264.9c0.7,1,0.3,2.2,0.9,3.3c0.7,1,1.8,1.6,2.3,2.7c0.1,0.2,0.6,0.4,1,0.3
			c0.4-0.2,0.3-0.6,0.2-1c-0.1-0.4-0.2-0.9-0.3-1.3c-0.2-0.9-1.1-1.6-1-2.6c0.8-0.2,1.2,1.1,2,0.1c0.4-0.5,0.3-0.9,0.1-1.3
			c-0.3-0.8-1.1-0.9-1.5-0.6c-1.2,0.8-2.3,0.4-3.4,0.1C302.6,264.7,302.4,264.8,302.3,264.9z M332.1,310.4c2.2,0.5,2.8,0.1,3.7-1.5
			c0.7-1.2,0.2-2.4,0.5-3.5c0.3-1-0.1-1.8-0.5-2.6c-0.3-0.7-1.1-1.1-1.6-0.6c-0.6,0.7-1.4,1.6-0.7,2.6c0.9,1.3,0.5,2.5,0.3,3.8
			C333.8,309.7,333.5,310.5,332.1,310.4z M294.7,430.6c-1.2-0.4-1.9,0.5-2.7,1.1c-0.5,0.4-0.7,1.2-0.2,1.8c0.9,1.1,4.6,1.7,5.9,1
			c0.5-0.2,0.7-0.7,0-0.8c-1-0.2-1.1-1.1-1.2-1.7C296.4,430.7,295.8,430.4,294.7,430.6z M309.4,286.8c0.9,0.1,1.8-0.2,2.7-0.3
			c0.2,0,0.5,0.1,0.1-0.3c-0.8-1-1.4-2.1-2.2-3.1c-0.8-1-3.1-1.3-3.2-0.5c-0.2,1.2-0.6,2.4,0,3.6
			C307.5,287.3,308.5,286.8,309.4,286.8z M227.5,422.9c0.9-0.4,1.4-0.1,2-0.1c0.3,0,0.8,0.2,0.9-0.3c0-0.4-0.4-0.4-0.7-0.5
			c-1.8-0.7-3.2-0.4-4.6,1c-1,1.1-1.2,0.9-0.1,1.7c0.1,0.1,0.2,0.1,0.2,0.2c0.6,2,2.3,1.1,3.5,1.3c-0.8-0.4-1.6-0.9-2.8-1.5
			c1.4,0,2.3-0.2,3.3,0.3c0.6,0.3,1.2,0.5,1.5-0.3c0.3-0.7-0.4-0.8-0.9-0.9C229.1,423.6,228.4,423.3,227.5,422.9z M386.1,623.6
			c-0.4,0-0.7,0-1.1,0c-0.4,0-0.8,0-0.8,0.5c0,0.4,0.1,0.8,0.6,1c2.1,0.7,4.1,1.5,5.8,3c0.5,0.5,1.1,0.4,1.7,0
			c0.7-0.5,0.2-1-0.1-1.4C390.8,624.5,388.2,624.6,386.1,623.6z M305.1,338.7c-1.5,0.4-2.4-0.2-3.4-1.4c-1.1-1.4-2.7-1.5-4-0.8
			c-0.8,0.4-0.9,1.1-0.9,1.8c0,0.7,0.6,0.9,1.1,1C300.5,340.2,302.7,338.9,305.1,338.7z M360.2,616.4c1.5,0.3,2.8-0.3,4.2-0.9
			c0.6-0.3,0.8-0.9,0.8-1.5c-0.1-0.7-0.7-1.2-1.3-1.5c-0.4-0.2-0.9-0.3-1.2,0.2c-0.9,1.2-2.6,1.3-3.5,2.5c-0.3,0.4-1.1,0.4-0.9,1
			c0.2,0.7,0.9,0.3,1.3,0.3C359.7,616.5,359.9,616.5,360.2,616.4z M341.4,306c1.1,0.1,1.5,0.9,1.3,1.6c-0.4,1.6,0.3,1.5,1.4,1.3
			c0.5-0.1,1.1-0.1,1.7-0.2c0.4,0,0.9-0.1,0.9-0.6c0.1-0.4,0-0.8-0.3-1.2c-0.6-1-1.6-1.7-1.9-2.9c-0.1-0.4-0.3-0.7-0.7-0.6
			c-0.4,0.1-0.9,0.2-0.8,0.7C343.3,305.3,342.5,305.7,341.4,306z M294.9,426.1c0.3,0.4,0.6,0.3,0.8,0.3c1.6-0.4,3.1-0.4,4.8,0.1
			c1.4,0.5,2.8,0,4-1c0.2-0.2,0.6-0.3,0.4-0.7c-0.1-0.3-0.2-0.8-0.6-0.8c-1.7,0.1-3.5,0-5.1,0.7c-0.9,0.4-1.6,0.7-2.4,0.2
			c-0.5-0.4-0.9-0.4-1.1,0.4C295.7,425.6,295.2,425.8,294.9,426.1z M339.1,613c-0.8-1.4-1.9-0.7-2.8-0.7c-1.5,0-2.9,0.4-4.1,1.5
			c-0.9,0.9-0.3,1.4,0.3,2c0.3,0.2,0.3,0.2,0.9-0.6c0.2-0.2,0.4-0.3,0.7-0.3c1.1,0,2.3-0.4,3.4,0.7
			C337.3,614.1,338.3,613.5,339.1,613z M338.3,354.3c0,0.2,0,0.3,0,0.5c-0.1,1,0.2,2.1,1.1,2.1c1,0.1,1.9-0.8,1.7-2
			c-0.1-0.5,0.2-0.8,0.4-1.1c0.6-0.7,0.4-1.5,0.4-2.3c0-0.4-0.3-0.8-0.6-0.6c-1,0.6-1.9,1.2-2.8,1.9
			C338,353.1,338.4,353.8,338.3,354.3z M226.2,392.2c1.3,0,1.9-1.2,1.6-2.4c-0.5-1.7-2.1-2.2-3.3-3.1c-0.2-0.2-0.7-0.1-1,0.2
			c-0.3,0.2-0.3,0.5-0.2,0.8c0.5,1.2,1.3,2.2,1.6,3.5C225.1,391.7,225.6,392.2,226.2,392.2z M251,276.4c-1.5-0.9-0.3-1.1,0.3-1.6
			c0.4-0.2,1.4-0.1,1-0.7c-0.3-0.6-0.3-0.8,0-1.3c0.2-0.3,0.4-0.7-0.1-1c-0.3-0.2-0.9-0.2-1,0c-0.8,1.3-2.3,1.6-3.2,2.7
			c-0.5,0.7-0.8,1.7-0.5,2.3c0.4,0.8,1.4,0.2,2.1,0C250.1,276.8,250.5,276.6,251,276.4z M262.9,409.2c-1.8,0-3.4,1.1-4,2.7
			c-0.1,0.3-0.4,0.7,0,1c0.4,0.4,0.7,0.1,0.9-0.1c0.3-0.3,0.7-0.6,1.1-0.3c1.5,1,2.5,0.9,2.8-1.1c0,0,0.1-0.1,0.1-0.1
			c0.4-0.3,0.9-0.5,0.5-1.2C264,409.3,263.5,409.2,262.9,409.2z M252.1,428.4c-1.1,0.4-2.9,0.2-4.5,0.9c-0.4,0.2-0.9,0.4-0.8,0.9
			c0.1,0.4,0.5,0.7,0.9,0.7c1.8,0.1,3.6,0.3,5.3-0.1c0.4-0.1,1.3-0.4,0.9-1.1C253.6,429.1,253.8,428,252.1,428.4z M335,294.4
			c-0.1-1.2,0.2-2.3-0.6-3.1c-0.2-0.2-0.4-0.5-0.7-0.3c-0.3,0.2-0.8,0.3-0.7,0.7c0.2,0.6,0,1.2,0.5,1.7c0.6,0.5,0.6,1.2,0.4,2
			c-0.4,1.8-0.8,3.6-0.5,5.5c0,0.3,0,0.6,0.4,0.7c0.2,0.1,0.5-0.1,0.5-0.3c-0.1-0.8,0.6-1.3,0.7-2
			C335.4,297.6,334.5,295.9,335,294.4z M250.7,409.7c-0.7-0.1-1,0.3-1.4,0.7c-0.5,0.6-0.2,1.6,0.3,1.4c1.2-0.6,1.6,0.3,2.3,0.8
			c0.6,0.4,1.3,0.2,1.8-0.4c0.3-0.4,0.4-0.9,0.7-1.2c1.2-0.8,0.3-1.2-0.2-1.7c-0.7-0.6-1.5-0.4-2.1,0
			C251.5,409.7,251.2,410,250.7,409.7z M285.8,370.7c0,0,0.4-0.6-0.4-0.7c-0.5-0.1-1.2-0.3-1.6,0.2c-0.4,0.6-0.6,1.4-0.7,2.2
			c0,0.2,0.4,0.7,0.8,0.1c0.2-0.3,0.4-0.3,0.6-0.1c1.4,1.8,3.8,1.6,5.5,2.7c0.3,0.2,0.6,0.3,1,0.4c0.4,0.1,0.9,0,1-0.5
			c0.1-0.5-0.3-0.5-0.7-0.6c-1.3-0.4-2.5-1-3.9-1.2C286.2,373,285.7,372.3,285.8,370.7z M326.6,272.5c0,0.1,0,0.4,0.2,0.6
			c0.3,0.4,0,1.3,0.8,1.3c0.9,0,0.6-0.8,0.8-1.3c0.6-1.5,0.2-3.1,0.4-4.6c0.1-0.5-0.9-1.4-1.7-1.4c-0.8,0-0.6,0.8-0.6,1.4
			C326.3,269.8,327.2,271.1,326.6,272.5z M254.7,255.7c-0.3,0.7,0.3,1.1,0.7,1.5c0.3,0.3,0.6,0.1,0.8-0.2c0.4-0.4,0.8-0.8,0.5-1.6
			c-0.6-1.6-2-2.7-2.8-4.1c-0.5-0.8-1.1-0.9-1.8-0.8c-0.3,0-0.5,0.2-0.4,0.5c0.1,0.7,0.1,1.3,1,1.6C253.8,253.3,255,254,254.7,255.7
			z M229.4,608.6c1.1-0.2,2.2-0.4,3.3-0.8c0.5-0.1,1.2-0.3,1.1-0.9c-0.1-0.7-0.9-0.6-1.4-0.5c-1.7,0.4-3.3,0.7-4.9-0.6
			c-0.3-0.3-1.1-0.1-1.3,0.6c-0.1,0.6-0.1,1.3,0.6,1.5C227.7,608.3,228.5,608.4,229.4,608.6z M235.8,259.6c0,0.1-0.3,0.9,0.7,1
			c1.1,0.1,0.7-0.8,0.8-1.3c0.3-1.8,0.4-3.7,1.6-5.2c0.4-0.5-0.1-0.8-0.5-0.8c-0.7,0-1.4,0.1-1.7,1
			C236.1,255.8,235.8,257.4,235.8,259.6z M219.8,418.6c0,0.9,0.6,1.4,0.4,2.1c-0.2,0.6,0,1.2,0.8,1.2c0.7,0,1.4-0.4,1.5-1
			c0.3-1.2,0-2.5-0.5-3.6c-0.3-0.7-0.9-0.7-1.4-0.4c-0.2,0.1-0.8-0.4-0.7,0.1C220.1,417.6,219.8,418.2,219.8,418.6z M340.1,548.1
			c-0.4,0.1-0.9,0.3-1.3,0.3c-1,0-1.8-0.1-1.7,1.3c0,0.2-0.3,0.5-0.5,0.7c-0.3,0.4-0.7,0.7-0.3,1.2c0.4,0.4,1,0.5,1.4,0.3
			c1.1-0.6,2.1-1.4,3.1-2.1c0.4-0.3,0.3-0.6,0.2-0.9C340.8,548.4,340.6,548,340.1,548.1z M329.7,623.1c0.1,0.3-0.4,0.9,0.2,1.1
			c0.5,0.2,0.9-0.1,1.2-0.4c0.3-0.5,0.7-0.8,0.7-1.6c0.1-0.9,0-1.8,0.2-2.6c0.1-0.5,0.5-1-0.2-1.2c-0.6-0.2-1.2-0.2-1.4,0.6
			C330,620.3,329.2,621.6,329.7,623.1z M289,345c0-0.1-0.2-0.4-0.2-0.7c-0.2-0.9-0.2-1.9-1.6-0.9c-0.6,0.4-1.8-0.2-2.3-1
			c-0.2-0.3,0-1-0.6-0.8c-0.4,0.1-0.7,0.6-0.9,0.9c-0.2,0.5,0.4,0.6,0.6,0.9c0.5,0.6,1.6,0.5,1.9,1.2c0.5,1.3,1.7,0.9,2.6,1.2
			C288.8,346.2,289.1,345.8,289,345z M286.8,411.2c-0.1-0.8,2.1-1.8-0.2-2.4c-0.3-0.1-0.2-0.5-0.1-0.8c0.1-0.4,0.5-0.8,0-1
			c-0.5-0.2-0.9,0.1-1.1,0.8c-0.3,1.5-1.6,2-2.6,2.8c-0.1,0.1-0.6-0.1-0.7,0.3c0,0.4,0.4,0.5,0.6,0.6c0.7,0.5,1.5,0.3,1.7-0.3
			C285.4,409.2,286,410.4,286.8,411.2z M290.3,301.9c0.1-0.6-0.2-1.1-0.6-1.3c-0.7-0.3-0.6,0.5-0.8,0.8c-0.3,0.5-0.6,1-1,1.4
			c-1,1-0.7,2.4,0.7,2.9c0.6,0.2,1.9-0.7,1.7-1.2C289.7,303.5,290,302.7,290.3,301.9z M346,384.2c0.2,0.8-0.7,1.3,0,1.8
			c0.5,0.3,1.2,0,1.6-0.3c0.9-0.7,1-1.8,1.3-2.8c0.1-0.5-0.4-1.4-0.9-1.7c-0.8-0.4-1,0.6-1.5,1C345.6,382.9,345.5,383.6,346,384.2z
			 M310.9,367.9c0.3-0.8-0.2-1.2-1-1.3c-0.8-0.1-1.5,0.6-1.4,1.1c0.4,1.3-0.5,1.2-1.1,1.4c-0.4,0.2-0.9,0.4-0.9,1
			c0.1,0.5,0.6,0.6,1,0.5c0.9-0.2,2.7,1.2,2.5-1.3c0-0.1,0.2-0.2,0.4-0.2C311,369,311.1,368.6,310.9,367.9z M344,380.2
			c0.2,0.6,0.3,1.3,0.8,1.8c0.3,0.2,0.6,0,0.8-0.2c1.2-1.1,1.9-2.5,2.4-4c0.1-0.4-0.1-0.6-0.4-0.7c-0.3-0.1-0.6-0.1-0.7,0.1
			c-0.4,1-1.4,1.1-2.1,1.6C344.4,379.2,344,379.6,344,380.2z M245.6,424.1c0.8,0.1,1.5-0.2,1.3-1.2c-0.2-0.9,0.3-2.3-1.3-2.3
			c-1.1,0-2,0.7-2.3,1.6C243,423.1,244.3,424.1,245.6,424.1z M339.6,517.3c-0.1,0.8,0.2,1.4,1,1.4c1.1-0.1,2.3,0,3.3-0.7
			c0,0,0-0.2,0-0.3c-0.3-0.6,0-1.7-1.1-1.8c-1.1-0.1-2.2,0-3.1,0.8C339.6,516.9,339.6,517.1,339.6,517.3z M257.6,336.3
			c1.4,0.3,2.7,0.4,4,0.4c0.7,0,1.6,0.1,1.5-0.8c-0.1-0.7-0.6-1.4-1.6-1.5C259.8,334.1,258.6,334.8,257.6,336.3z M344.5,459.4
			c-0.6-0.3-1-0.5-1.4-0.6c-0.9-0.3-1.9-0.4-0.9-1.7c0.3-0.4,0-0.7-0.4-0.7c-1-0.1-1.6,0.1-1.6,1.2c0,1.1-0.1,2.1-0.5,3.1
			c-0.2,0.5,0,0.7,0.3,0.8c0.3,0.2,0.6,0.1,0.8-0.2c0.2-0.4,0.4-0.7,0.4-1.1c-0.2-1.4,0.7-1.1,1.4-0.7
			C343,459.7,343.5,459.8,344.5,459.4z M246,268.4c2.5,0,4.9-1.6,5.7-3.8c0.1-0.3,0.4-0.8-0.2-1c-0.6-0.2-0.4,0.3-0.6,0.6
			c-0.9,1.4-1.9,2.8-3.9,2.7c-0.4,0-0.8,0-1.2,0.1c-0.4,0.1-0.8,0.5-0.7,0.9C245.1,268.5,245.7,268.3,246,268.4z M249.6,253.7
			c-0.8-0.1-1.3,0.6-1.4,1.5c-0.1,1,0.8,0.6,1.3,0.8c0.8,0.3,1.9,0.1,2.2,1.3c0,0.1,0.5,0.5,0.9,0.4c0.2-0.1,0.3-0.2,0.3-0.5
			C253,256.1,251,253.8,249.6,253.7z M234.2,398.4c-0.5,1.2-0.7,1.9,1,1.8c1.1-0.1,2.2,0.2,3.3,0.4c0.9,0.1,2.3,0.6,2.6-0.6
			c0.1-0.5-1.6-0.8-2.6-0.9C237.1,399,235.5,399.7,234.2,398.4z M250.9,248.4c-1.1-1.3-2.1-1.2-3.4-0.4c-1.1,0.6-2.5,1.4-3.9,0.8
			c-0.3-0.1-1-0.2-0.9,0.4c0,0.4,0.4,0.7,0.9,0.6C245.9,249.4,248.6,249.7,250.9,248.4z M349.4,427.9c-0.1-0.5-0.6-1.1-1.1-1.4
			c-0.7-0.4-1.4-0.8-1.6,0.7c-0.1,0.9,0.3,1.8-0.2,2.7c-0.2,0.5,0.6,1.3,1,0.8C348.1,429.8,349.2,429.2,349.4,427.9z M326.5,360.9
			c-0.2,0.6-0.5,1.2,0.4,1.3c0.7,0.1,1.4,0.1,1.8-0.8c0.4-0.8,0.3-1.7,0.7-2.4c0.3-0.4,0.7-0.9-0.1-1.1c-0.6-0.2-1.1-0.2-1.2,0.6
			c-0.1,0.6-0.3,1.2-0.9,1.3C326.5,360,326.2,360.3,326.5,360.9z M318.6,402.8c1-0.1,1.7-0.2,2.5-0.2c0.3,0,0.8,0,0.8-0.5
			c0-0.5-0.3-0.8-0.9-0.8c-0.9,0-1.9,0.2-2.7-0.2c-1-0.5-1.6,0.2-2.2,0.5c-0.7,0.4,0.3,0.9,0.1,1.5c0,0.1,0.4,0.3,0.5,0.2
			C317.1,402.1,318.1,402.8,318.6,402.8z M339.2,350.3c-0.3,0.3-0.4,0.7,0.1,0.8c0.6,0.1,3.1-1.7,3-2.3c-0.1-0.8-0.8-1.6-1.5-1.5
			C339.4,347.6,338.6,348.7,339.2,350.3z M245.8,390c0.8-0.3,1.5-1,1.9-2c0.5-1,1.1-1.8,2.2-1.8c1,0-0.5-0.9,0.4-1.1
			c0.4-0.1-0.3-0.5-0.5-0.7c-0.3-0.3-0.5,0-0.7,0.2c-1.3,1.6-2.7,3.1-4.1,4.7c-0.1,0.1-0.3,0.2-0.2,0.5
			C245,390.1,245.2,390.1,245.8,390z M339.3,407.4c0.2,0.5-0.1,0.7-0.3,1c-0.6,0.8-1,1.6,0.1,2.4c0.3,0.2,0.4,0.8,1,0.7
			c0.7-0.1,0.3-0.7,0.4-1.1c0.4-1.1-0.6-2.3,0.2-3.4c0.2-0.3,0.4-0.7,0.1-1c-0.3-0.3-0.7,0.1-1,0.2
			C339.3,406.4,338.9,406.8,339.3,407.4z M208.4,600.2c1.9,0.1,1-1.7,1.8-2.3c-0.5-0.3-0.1-1.4-1.1-1.3c-1.1,0.1-2,1.1-2,2.7
			C207.1,600.4,208,600,208.4,600.2z M214.8,596.1c-0.3-0.4,0-1.1-0.3-1.6c-0.4-0.8-1.2-1.7-2.1-1.4c-1.1,0.4-0.3,1.3-0.1,2.1
			c0.2,0.6,0.5,1.1,0.9,1.6c0.3,0.3,0.7,0.4,1.1,0.2C214.6,596.8,214.9,596.7,214.8,596.1z M254.4,396.6c1.1-0.2,1.9-0.8,2.6-1.6
			c-0.9-0.1-0.7-1.5-1.8-1.4c-1,0.1-2.2,1.3-2.1,2.2C253.2,396.5,253.8,396.6,254.4,396.6z M325.2,422.7c0.6,0,0.8-0.4,0.9-0.9
			c0.1-0.6,0.2-1.2,0.6-1.7c0.3-0.5,0.4-1.1,0-1.6c-0.4-0.4-0.8-0.1-1.1,0c-0.6,0.3-1.1,0.7-0.8,1.4c0.1,0.5,0.2,0.9-0.3,1.2
			c-0.3,0.2-0.6,0.6-0.4,0.9C324.3,422.5,324.8,422.6,325.2,422.7z M344.3,465.8c-0.5,0-0.7,0.3-0.8,0.9c0,0.5,0.4,0.8,0.2,1.3
			c-0.2,0.6,1.5,2.2,2.1,2c0.4-0.2,0.4-0.5,0.3-0.9c-0.3-0.9-0.4-1.8-0.7-2.7C345.2,465.9,344.9,465.9,344.3,465.8z M291.4,424.3
			c-1.1-0.3-1.7,0.6-2.4,1.1c-0.3,0.2-0.3,0.8-0.1,1.1c0.2,0.3,0.6,0.3,1,0.2c0.6-0.2,1.2-0.4,1.9-0.6c0.7-0.2,1.9,0.1,1.7-0.9
			C293.3,424.3,292,424.6,291.4,424.3z M377,409.1c-0.4-0.8-1.1-0.7-1.7-0.6c-1.2,0.3-2.3,0-3.4-0.4c-0.7-0.2-1.4,0-2.1-0.1
			c-0.4-0.1-0.6,0.3-0.7,0.7c-0.1,0.3,0.1,0.5,0.4,0.5C371.9,409.2,374.4,409.6,377,409.1z M322,362.8c-0.5-0.6-0.9-1-1.2-1.4
			c-0.3-0.6-0.4-1.4-1.3-1.3c-1,0.1-0.8,1.1-1,1.7c-0.4,1,0.1,1.4,1.1,1.4C320.4,363.2,321.1,363,322,362.8z M314.2,196.4
			c0,1.4,0.7,2.9,0.6,4.4c0,0.4,0.3,1,0.9,0.8c0.5-0.1,0.5-0.5,0.5-1c-0.1-1.9-1.4-3.5-1.4-5.4c0-0.1-0.2-0.3-0.3-0.2
			c-0.2,0.1-0.4,0.2-0.4,0.3C314,195.7,314.4,195.9,314.2,196.4z M260.5,434.8c-0.1,0-0.3,0-0.4,0.2c-0.3,0.6,0.9,3.3,1.6,3.5
			c0.3,0.1,0.5,0,0.7-0.2c0.4-0.9-0.4-1.9,0.4-2.7C262.1,435.3,261.4,434.9,260.5,434.8z M247.6,244.3c0-0.4-0.3-0.5-0.7-0.6
			c-0.9-0.4-2.9,0.7-3.2,1.6c-0.1,0.4,0.1,0.7,0.3,0.9c0.2,0.2,0.6,0.3,0.8,0c0.6-0.5,1.2-0.7,1.9-0.9
			C247.3,245.2,247.3,244.7,247.6,244.3z M344.9,368.7c1,0.3,1.4-0.7,1.9-1.4c0.2-0.4,0.5-1.1-0.2-1.3c-0.6-0.2-1.4-0.5-1.8,0.5
			c-0.1,0.4,0,0.8-0.5,1c-0.3,0.1-1,0-0.7,0.7C343.8,368.7,344.2,368.8,344.9,368.7z M259.2,249.9c-0.6-0.5-1.2-1.1-1.8-1.5
			c-0.5-0.4-1.3-0.8-1.6,0c-0.1,0.4-1.1,1.1,0.4,1.7C257.3,250.6,258.1,250.3,259.2,249.9z M324.7,187.5c0.2,0.8,0.4,1.8,0.6,2.9
			c0.1,0.3,0.3,0.6,0.7,0.4c0.2-0.1,0.6-0.3,0.6-0.4c-0.3-0.7,0.1-1.7-0.2-2.2c-0.4-0.7-0.8-1.2-0.7-2c0-0.6-0.3-0.6-0.7-0.5
			c-0.4,0-0.6,0.3-0.3,0.6C324.9,186.6,324.8,186.9,324.7,187.5z M283.4,345.4c-0.8,0-1.3,0-1.3,0.5c-0.1,0.5,0.4,0.6,0.8,0.8
			c1.3,0.8,3.2,0.5,4.1,2.1c0.1,0.2,0.5,0.3,0.7,0c0.2-0.2,0.1-0.4-0.1-0.6C286.4,346.7,284.8,346,283.4,345.4z M286.3,464.1
			c0.4,0.3,0.8,0.4,1.3,0.5c0.7,0.1,0.3,0.8,0.6,1.1c0.1,0.1,0.4,0.2,0.6,0.1c0.9-0.3,2.5,1.1,2.5-1.1c0-0.2,0.4-0.4,0.6-0.6
			c0.5-0.4,0.8-0.9,0.9-1.5c-0.8,0.2-0.8,0.2-1.2,0.9c-0.8,1.4-1.9,1.7-3.3,1C287.6,464.1,287,463.6,286.3,464.1z M326.8,176
			c-1.1,0.4-2,0.3-2.7-0.7c-0.2-0.3-0.7-0.3-0.8,0.3c-0.1,0.6,1.9,2.8,2.5,2.8c0.4,0,1.2-0.6,1-0.7
			C325.7,177.2,326.9,176.7,326.8,176z M281.1,438.6c0-0.5-0.4-0.8-1.1-0.8c-1.2,0-2,0.9-2.1,2.1c0,0.4,0.1,0.5,0.5,0.5
			C279.6,440.4,281.1,439.4,281.1,438.6z M284.1,358.5c-1.3-1.5-3-0.7-4.5-0.6c-0.3,0-0.5,0.1-0.6,0.4c0,0.3,0.2,0.4,0.5,0.5
			C281.1,359.1,282.7,359.7,284.1,358.5z M326,369.9c0.8-0.3,1.3-1,1.3-1.7c0-0.6-0.1-1.6-1-1.4c-1,0.2-1.4,1.3-1.6,2.1
			C324.6,369.4,325.5,369.6,326,369.9z M333.7,591.8c0.4,0.8,1.1,0.9,1.5,1.3c1.3,1.3,3.2-1.3,4.3,0.9c0.1,0.1,0.6,0,0.7-0.4
			c0.1-0.3,0.3-0.5,0.4-0.7c-1.5-1.3-3.2,0.2-4.8-0.6C335.3,592,334.7,591.6,333.7,591.8z M324,388.8c0,0.3-0.3,0.7,0.2,1.1
			c0.4,0.3,0.8,0,1.1-0.2c0.4-0.2,0.2-1,0.1-1.1c-0.5-0.9-0.7-2-1.1-2.9c-0.2-0.4-0.6-0.4-0.9-0.2c-0.4,0.2-0.3,0.6,0,0.9
			C324,387.1,324.1,387.8,324,388.8z M321.9,408.2c-1.4-0.4-2.6-0.9-3.1,0.7c-0.2,0.6,0.2,1.3,0.8,1.5
			C321.6,411,320.6,408.6,321.9,408.2z M246.4,260.1c-0.2,0.7,0.2,1.1,0.7,1.4c0.4,0.2,0.8,0.2,1.1-0.1c0.5-0.6-0.1-0.9-0.3-1.3
			c-0.3-0.5-0.2-1,0-1.4c0.2-0.3,0.4-0.7-0.1-0.9c-0.4-0.2-0.8,0.1-1.1,0.4C246.3,258.6,246.6,259.4,246.4,260.1z M246.3,549.8
			c1.3,0.1,1.5-0.8,1.6-1.6c0.1-0.9-0.8-0.9-1.3-0.9c-0.9-0.1-1.3,0.6-1.4,1.5C245.2,549.4,245.7,549.7,246.3,549.8z M323.7,178.8
			c0,0.9-0.4,1.3,0.2,1.8c0.5,0.5,0.8,1.2,0.8,1.9c0.1,0.6,0.4,1.2,1.1,0.9c0.6-0.2,0.6-0.9,0.3-1.5
			C325.6,180.8,324.7,180,323.7,178.8z M229.1,421.3c0.6-0.5,1.8,0.8,2.2-0.4c0.1-0.4-1.4-1-2.1-1c-0.9,0.1-2.5,0.1-2.5,0.9
			c0,1.1,1.4,0,2.2,0.5C228.8,421.3,228.8,421.3,229.1,421.3z M343.8,481.5c0.3-0.3,1.8,0.1,0.6-1.2c-0.2-0.2-0.2-0.6,0-0.8
			c0.7-0.6-0.1-0.6-0.4-0.7c-0.8-0.4-0.9,0.5-1.3,0.7c-0.3,0.2-0.7,0.7-0.3,1.2C342.8,481.2,343.1,481.6,343.8,481.5z M353,507.1
			c0.1-0.7-0.2-1-0.6-1.1c-0.4-0.2-0.8-0.3-1.1,0.1c-0.5,0.7-0.2,1.8-0.9,2.5c-0.1,0.2,0.2,0.4,0.5,0.4
			C351.2,509,353,507.2,353,507.1z M253.9,281.5c-0.6,0.3-1.6,0.3-1.3,1.5c0.1,0.6,0,1.3,0.9,1.2c1.2-0.1,1-1.4,1.3-2.1
			C255,281.7,254.4,281.5,253.9,281.5z M323.2,328.3c0.8,0,1.2-0.6,1.5-1.1c0.4-0.6,0.4-1.4-0.2-1.8c-0.8-0.5-1,0.2-1.2,0.9
			c-0.1,0.4-0.5,0.8-0.7,1.2C322.2,328.1,322.5,328.3,323.2,328.3z M295.8,412.7c0.8-0.1,1.4-0.4,2-0.1c0.5,0.2,1.3-0.2,1.3-0.9
			c0-0.4-0.4-0.9-1.2-0.9C296.8,410.9,296.1,411.4,295.8,412.7z M249.6,422.1c-0.5,0.1-1.1,0-1,0.6c0.2,0.5,0.2,1.6,1.1,1.4
			c0.8-0.1,2.1-0.1,2-1.2C251.6,421.4,250.1,423,249.6,422.1z M341.8,478c-0.4-0.5-0.2-1.4-1-1.8c-0.6-0.3-1.1,0-1.6,0.3
			c-0.1,0.1-0.6,0.3-0.2,0.5c0.8,0.3,1.1,1,1.6,1.5c0.2,0.2,0.5,0.4,0.8,0.2C341.8,478.5,341.8,478.3,341.8,478z M326,426
			c0-0.6-1.2-2-1.7-2.1c-0.6,0-0.5,0.7-0.9,0.9c-0.1,0.1,1.9,1.8,2.1,1.8C325.9,426.5,326.1,426.4,326,426z M261.5,557
			c-1-0.4-2-1-3.1-0.9c-0.4,0.1-0.8,0.2-0.7,0.6c0.1,0.4,0.3,0.9,0.5,1.2c0.2,0.2,0.5,0.1,0.7-0.1
			C259.5,556.9,260.5,557.1,261.5,557z M296.8,352c0.7,0.8,0.3,2.3,1.9,2.2c0.5,0,0.9-0.4,0.7-0.9
			C299.1,352.2,298.3,351.7,296.8,352z M349.3,376c0.1,0.5-0.4,1.1,0.3,1.2c0.6,0.1,1-0.4,1.1-1.1c0-0.2,0.1-0.4,0.1-0.6
			c0-0.4,0.9,0,0.5-0.5c-0.4-0.5-0.9-0.7-1.5-0.2C349.4,375.1,348.8,375.4,349.3,376z M265.7,244.1c-0.5,0.5-1.5,0.4-1.4,1.5
			c0,0.5-0.1,1,0.7,1c0.9,0,1.4-0.5,1.4-1.3C266.5,244.9,266.3,244.3,265.7,244.1z M325.3,358.1c0.9-0.1,1.5,0.4,1.9-0.4
			c0.4-0.7,0.3-1.4-0.1-2c-0.2-0.3-0.5-0.6-0.9-0.5c-0.4,0.1-0.3,0.5-0.2,0.8C326.1,356.8,326.2,357.5,325.3,358.1z M267.4,404.2
			c-0.6,0.1-0.8,0.6-0.8,1.2c0,0.8,0.4,1.1,1.2,1c0.4-0.1,1.1-0.1,0.9-0.7C268.4,405.2,268.4,404.2,267.4,404.2z M334,329.7
			c0-0.7,0-1.3-0.7-1.4c-0.7-0.1-0.6,0.5-0.6,0.9c0,0.3-0.3,0.6-0.3,1c-0.1,0.4-0.6,0.8,0,1.2c0.7,0.4,0.8-0.3,1.1-0.7
			C333.8,330.4,334,330.1,334,329.7z M351,371.7c0.1-0.5-0.2-0.6-0.5-0.5c-0.8,0.1-1.5,0.3-1.6,1.3c0,0.6,0.4,1.2,0.7,1.1
			C350.6,373.5,350.7,372.4,351,371.7z M263.2,421.5c-0.1-0.7-0.5-1.1-1.2-1.1c-0.4,0-1-0.1-0.8,0.6c0.2,0.7,0.2,1.7,1.1,1.8
			C263.1,423,262.7,421.8,263.2,421.5z M236.4,546.7c0.4,0.5,0.9,0.9,1.6,1.1c0.7,0.2,1.1-0.1,1.3-0.7c0.2-0.8-0.4-0.7-0.9-0.8
			C237.6,546.1,236.9,546,236.4,546.7z M226.2,410.9c-0.1-0.5-0.3-1-0.8-0.9c-0.6,0.1-1.5,0-1.6,1c-0.1,0.6,0.4,0.8,0.9,0.8
			C225.3,411.8,225.9,411.6,226.2,410.9z M250.3,394.5c0.2,0.3-0.7,1.2,0.5,1.1c0.8-0.1,1.2-0.5,1.3-1.3c0.1-0.9-0.8-0.7-1.2-0.8
			C250.1,393.4,250.2,394,250.3,394.5z M320.6,404.8c0.7,0.4,1,1.2,1.8,1.2c0.6,0,1-0.1,1.1-0.8c0.1-0.7-0.4-0.7-0.8-0.9
			C321.9,404.1,321.3,404.5,320.6,404.8z M345.6,375.9c0.1-0.3,0.1-0.6-0.1-0.6c-0.2-0.1-0.5,0-0.7,0.1c-0.4,0.3-0.8,0.7-1.1,1
			c-0.3,0.3-1,0.3-0.7,0.8c0.3,0.5,0.9,0.4,1.4,0.2C344.9,377,345.4,376.5,345.6,375.9z M329.3,417.8c0.5,0.8,0.7,1.9,2.1,1.4
			c0.5-0.2,0.5-0.7,0.3-1C331.1,417.2,330.3,417.1,329.3,417.8z M344.7,405.1c0.5-0.3,1.4,0.1,1.6-0.8c0.1-0.5-0.4-1-1-0.9
			c-0.6,0.1-1.4,0.3-1.6,1C343.5,405,344.2,405,344.7,405.1z M277.2,512c1.1,1.2,2,0.4,3-0.1c0.4-0.2,0.6-0.4,0.4-0.8
			c-0.2-0.4-0.6-0.3-0.9-0.1C278.9,511.4,278.1,511.9,277.2,512z M259.9,253.9c0-0.6-0.3-0.8-0.9-0.8c-0.8-0.1-0.9,0.7-1,1.1
			c-0.1,0.6,0.4,1.2,1,1.1C260,255.3,259.5,254.3,259.9,253.9z M262.1,374.1c0-1-0.2-1.6-1-1.7c-0.5-0.1-0.6,0.5-0.5,0.7
			c0.3,0.6-0.2,1.7,0.8,1.9C262,375.2,262,374.4,262.1,374.1z M286.9,461.5c-0.3,0-0.6,0-0.5,0.4c0.1,0.2-0.2,0.5,0.3,0.5
			c0.8,0,1.4,0.4,2.1,0.8c0.3,0.2,0.8,0.1,1.1-0.3c0.2-0.3-0.1-0.5-0.3-0.6C288.5,462.3,287.7,461.9,286.9,461.5z M291.6,333.9
			c0-0.6-0.4-0.7-0.9-0.7c-0.7,0.1-0.9,0.5-1,1.1c0,0.6,0.3,0.8,0.8,0.8C291.3,335.1,291.5,334.6,291.6,333.9z M288.1,421.5
			c0-1-0.7-1.4-1.4-1.7c-0.3-0.2-0.8-0.4-1.1,0.1c-0.2,0.4,0,0.8,0.3,1.1C286.6,421.5,287.3,421.4,288.1,421.5z M253.6,249.5
			c0.4,0,1,0.1,1-0.5c0-0.7-0.6-0.9-1.2-1c-0.5-0.1-1.3,0.2-1.2,0.7C252.3,249.4,253.2,249.2,253.6,249.5z M276.2,446
			c0.7,0,1.4,0.1,1.5-0.7c0.1-0.7-0.6-0.7-1-0.7c-0.6,0-1.4,0.3-1.5,0.8C275.1,446.2,276,446,276.2,446z M329.5,410.4
			c-0.5-0.3,0.1-1.2-0.5-1.3c-0.6-0.1-1.1,0.4-1.3,1c-0.1,0.5,0.3,0.8,0.8,0.9C328.9,411,329.4,411,329.5,410.4z M280.5,318
			c0.3-0.3,0.9-0.6,1-1c0.1-0.5-0.5-0.9-1-0.8c-0.6,0.1-0.8,0.6-0.9,1.1C279.5,317.7,279.9,318,280.5,318z M287.5,385.1
			c-0.7-0.8-1.4-1.1-2.3-0.7c-0.3,0.2-0.7,0.3-0.7,0.7c0.1,0.5,0.6,0.3,0.9,0.3C286.1,385.3,286.7,385.2,287.5,385.1z M340.8,480.5
			c-0.8-0.4-1.5-0.5-2.1,0.2c-0.2,0.3-0.1,1,0.3,1.1C340,482.2,340,480.8,340.8,480.5z M282.3,356.5c-0.3-0.6-0.9-0.6-1-1.1
			c-0.1-0.4-0.3-0.7-0.7-0.6c-0.3,0.1-0.6,0.4-0.6,0.8c0,0.4,0.2,0.6,0.6,0.8C281.1,356.7,281.7,356.7,282.3,356.5z M293,363.8
			c-0.4,0-0.8,0.1-0.7,0.4c0.3,0.7,1,0.9,1.6,1.2c0.4,0.2,0.7-0.3,0.6-0.7C294.4,363.9,293.6,364,293,363.8z M276,510.2
			c0.5-0.3,1.6,0.1,1.4-1c-0.1-0.3-0.1-1-0.6-0.9C275.8,508.4,276.4,509.5,276,510.2z M358.2,522.3c0.9-0.3,0.7-1.2,1.1-1.9
			c0.1-0.2-0.1-0.5-0.4-0.5c-0.3-0.1-0.8,0-0.8,0.2C358.4,520.9,357.5,521.6,358.2,522.3z M345.4,331.5c0.1-0.4,0.2-1-0.6-0.9
			c-0.5,0-0.8,0.5-0.7,0.8c0.1,0.5,0.3,1.2,0.9,1.2C345.6,332.6,345.5,332.1,345.4,331.5z M282.5,461.3c0.6-0.7,1.7-0.1,1.8-1.2
			c0.1-0.4-0.2-0.4-0.6-0.4C282.9,459.8,282.1,459.8,282.5,461.3z M307.6,388.1c0.4-0.3,1.2,0.2,1.3-0.6c0-0.4-0.4-0.8-0.9-0.8
			c-0.7,0-0.8,0.6-1,1C306.9,388.1,307.3,388.1,307.6,388.1z M336.4,636.2c-0.5-1.6-2-0.8-3-1.3
			C334.1,636.1,335.8,634.9,336.4,636.2z M230.2,394.4c-0.4-0.5-0.7-0.9-1-1.2c-0.3-0.3-0.7-0.3-1-0.1c-0.2,0.1-0.3,0.3-0.2,0.5
			c0.1,0.3,0.3,0.5,0.6,0.6C229.1,394.2,229.6,394.3,230.2,394.4z M225.8,429.8c0.3-0.2,1.2,0.3,1.1-0.5c0-0.7-0.9-0.6-1.4-0.6
			c-0.4,0-1-0.3-1,0.4C224.6,429.8,225.2,429.8,225.8,429.8z M293,439.2c0.1,0.6,0.5,0.9,0.8,1.2c0.3,0.3,0.7,0.8,1.1,0.3
			c0.5-0.7-0.4-0.6-0.7-0.8C293.9,439.5,293.7,439.1,293,439.2z M271.5,509.3c-0.5,0.1-0.8,0.5-0.8,0.8c0,0.6,0.6,0.7,1.1,0.8
			c0.3,0,0.6-0.2,0.6-0.5C272.3,509.9,272,509.4,271.5,509.3z M297.5,360.7c-0.2-0.4-0.6-0.7-1.1-0.5c-0.4,0.1-1,0.2-0.8,0.7
			c0.1,0.2,0.5,0.8,1.1,0.7C297.1,361.4,297.4,361.3,297.5,360.7z M336.5,403.7c-0.4,0.1-0.8,0.2-0.8,0.7c0,0.6,0.5,0.6,0.9,0.6
			c0.4,0,0.9,0.1,0.9-0.5C337.5,404,337,403.8,336.5,403.7z M383.8,404.5c0.3-0.2,0.9,0,1-0.5c0-0.6-0.5-0.7-1-0.7
			c-0.4,0-0.9,0.2-0.9,0.7C382.9,404.4,383.3,404.5,383.8,404.5z M301.9,311.8c-0.3,0-0.8-0.1-0.7,0.5c0.1,0.5,0.5,0.9,1,0.9
			c0.4,0,0.4-0.4,0.4-0.7C302.7,312,302.5,311.8,301.9,311.8z M284.2,450.9c0.1-0.3,0.9,0,0.7-0.6c-0.1-0.4-0.2-0.9-0.8-1
			c-0.5-0.1-0.5,0.4-0.5,0.7C283.6,450.4,283.4,450.9,284.2,450.9z M373.4,303c1.1,0,1.5,1.5,2.6,0.4C375.3,303,374.8,302,373.4,303
			z M360.3,559c-0.2-0.4-0.2-1-0.8-1c-0.5,0-0.8,0.5-0.8,0.9c0,0.5,0.6,0.6,1.1,0.6C360.2,559.7,360.4,559.4,360.3,559z
			 M236.5,280.7c1-0.1,1.7-0.2,2.2-1.2C237.7,279.6,236.9,279.7,236.5,280.7z M294.5,350.2c0.8,0,1.4,0.8,2.2,0.2
			c0.2-0.1,0.2-0.4,0-0.5c-0.7-0.4-1.4-0.5-2.1,0C294.6,349.8,294.6,349.9,294.5,350.2z M223.7,431.2c0.3-0.1,0.9-0.2,0.9-0.7
			c0.1-0.4-0.3-0.5-0.6-0.5c-0.4,0-1,0-1,0.6C223,431,223.2,431.2,223.7,431.2z M308.1,310.7c0.6,0,0.5,1.4,1.4,0.7
			c0.3-0.2,0.3-0.7,0.1-1C309.1,309.9,308.6,310.5,308.1,310.7z M254.2,304.4c0.4-0.1,0.6-0.6,0.7-1.1c0-0.3-0.3-0.4-0.6-0.3
			c-0.5,0.1-0.9,0.3-0.9,0.9C253.5,304.3,253.6,304.4,254.2,304.4z M323.8,258.6c1-0.1,1.9,0.2,2.7-0.5c0,0,0-0.2,0-0.3
			c-0.8-0.3-1.6,0.1-2.4,0.2C324,258.2,323.9,258.3,323.8,258.6z M277.1,349.8c-1-0.2-1.6-0.7-2.1-0.1c-0.2,0.3,0.1,0.6,0.3,0.8
			C276.1,351,276.3,350.1,277.1,349.8z"/>
		<path d="M364,527.5c0.5,0.6-0.1,1.6,0.8,1.6c0.8,0,0.7-0.9,1-1.4c0.2-0.4,0.1-0.9,0.6-1.2c0.6,1.5,0,3.9-1.1,4.9
			c-0.9,0.9-2.1,1.7-2.7,2.9c-0.3,0.6-0.6,1.4-1.5,1.3c-0.4,0-0.5-0.4-0.5-0.7c0-0.9,0-1.9,0.9-2.2c1.2-0.4,1.6-1.2,1.5-2.3
			C363.1,529.4,363.8,528.7,364,527.5z"/>
		<path d="M334.8,218.1c-0.3,1.8-0.1,2,1.5,1.7c0.4-0.1,1-0.3,1.3-0.1c1.3,0.6,2.5,0.3,3.8-0.5c-0.5,2.5-1.1,3-3.4,2.9
			c-0.9,0-1.5,0.2-1.7,1.4c-0.6-1-1-1.6-1.7-2.1C333,220.4,333.1,219.5,334.8,218.1z"/>
		<path d="M373.2,512.1c0,2.3,0,4.6,0,6.9c0,1,0.4,2,0.2,3c-0.1,0.4-0.2,0.9-0.6,1c-0.6,0-0.5-0.6-0.5-0.9c-0.1-2.3-0.2-4.5-0.1-6.8
			c0-1,0.3-2.1,0.5-3.1C372.9,512.1,373,512.1,373.2,512.1z"/>
		<path d="M374.1,507.7c-0.8-2.7,0.4-5.2-0.7-7.6c-0.2-0.6,0.2-0.8,0.7-0.9c0.4-0.1,1.1-0.1,0.9,0.4
			C374.2,502.1,375.5,505,374.1,507.7z"/>
		<path d="M373,489.5c0.7,2.2,1.5,4.4,2.1,6.7c0.2,0.8-0.9,1.4-0.7,2.3c0,0-0.4,0.1-0.5,0.1c-0.3,0-0.2-0.3-0.2-0.5
			c0.2-2,0-3.9-0.9-5.9c-0.3-0.6-0.2-1.7-0.2-2.6C372.8,489.6,372.9,489.6,373,489.5z"/>
		<path d="M331.7,229.8c0.8-1,3.3-1.6,4.2-1.1c0.1,0.1,0.3,0.3,0.3,0.3c-0.6,0.8-1.2,1.6-1.8,2.4c0,0-0.4-0.1-0.4-0.1
			C333.8,230,332.7,230,331.7,229.8z"/>
		<path d="M336.3,224.5c-0.2,1.3-0.8,1.8-1.6,1.9c-1.2,0.1-2.3,0-3.4,0.5c-0.3,0.1-0.8-0.1-0.9-0.4c-0.1-0.5,0.4-0.6,0.8-0.7
			c0.8,0,1.6,0,2.4,0C334.7,225.9,335.5,225.5,336.3,224.5z"/>
		<path d="M359.2,497.2c0.5-0.6,1-1.2,1.4-1.7c0.3-0.4,0.7-0.3,1.1-0.2c0.3,0.1,0.5,0.3,0.5,0.7c0,0.5-0.5,0.8-0.8,0.8
			C360.8,496.9,360.2,497.5,359.2,497.2z"/>
		<path d="M373,527c0.2,2,0.5,4.1-0.3,6.1C372.6,531,372.8,529,373,527z"/>
		<path d="M232.6,257.5c-0.4-1,0-1.9,0.3-2.8c0.1-0.3,0.4-0.5,0.7-0.3c0.3,0.1,0.2,0.4,0.1,0.6C233.3,255.8,233.9,257,232.6,257.5z"
			/>
		<path d="M348.3,457.6c-0.5,0-0.6-0.3-0.6-0.7c0-0.6,0.4-1,0.9-1.1c0.4-0.1,0.4,0.5,0.5,0.8C349.1,457.2,348.8,457.4,348.3,457.6z"
			/>
		<path d="M238.8,330.4c2.8,0.6,5.7,0.8,8.6,0.7c1.1,0,2.1-0.4,3.1-0.8c0.7-0.3,1.3-0.6,2-0.8c1.6-0.3,2.7,0.3,3.1,1.9
			c0,0.2,0.1,0.5,0,0.6c-1.1,1.1-2,2.6-3.7,2.9c-0.6,0.1-0.9,0.1-1.2,0.7c-0.6,1-1.8,1.2-2.8,1.4c-1,0.3-2.2,0.2-3.2,0.4
			c-0.9,0.2-1-0.9-1.6-0.8c-2.2,0.2-3.5-1.7-5.3-2.3c-0.5-0.2-1-0.2-1.5-0.4c-0.5-0.2-1.4-0.2-1.4-0.8c0-0.7,0.3-1.5,1-1.9
			C236.8,330.7,237.7,330.3,238.8,330.4z"/>
		<path d="M240.9,317.1c2.5,0.1,4.1,0.7,5.7,1.1c0.4,0.1,0.7,0.5,0.7,0.9c0,0.7-0.5,1.3-1.2,1.5c-1.6,0.6-3.3,1.2-4.9,1.6
			c-2.1,0.5-4.2,0.8-6,2.1c-0.3,0.2-0.6,0.2-0.8,0c-0.3-0.3-0.2-0.6,0.1-0.8c0.4-0.4,0.6-0.9,0.4-1.5c-0.5-1.2,0.1-2,1.1-2.8
			C237.6,317.9,239.4,316.8,240.9,317.1z"/>
		<path d="M241.6,309.4c-1.2,0.8-2,1.8-3.2,2.1c-0.4,0.1-0.7,0.1-0.9-0.3c-0.1-0.3,0-0.6,0.2-0.8C238.6,309,239.9,309.2,241.6,309.4
			z"/>
		<path d="M255.6,518.3c0.1-0.2,0.2-0.4,0.3-0.6c0.2-0.5,0.8-0.6,1.2-0.2c0.8,0.6,1.5,0.2,1.8-0.5c0.4-1.1,1.2-1.1,1.8-0.7
			c2,1.6,4.5,1.5,6.7,2.5c0.4,0.2,0.9,0.2,0.7,0.8c-0.2,0.6-0.7,0.4-1,0.2c-0.5-0.2-0.9-0.4-1.4-0.6c-1-0.5-1.9-0.5-2.9,0.1
			c-1.5,0.9-3.1,1.3-4.7-0.1C257.4,518.7,256.5,518.5,255.6,518.3z"/>
		<path d="M249.1,528c-0.5-0.1-1.6,0.4-1.6-0.6c0-1,1.1-0.8,1.8-0.8c0.3,0,0.5,0,0.8,0c0.5-0.1,0.9-0.6,1.4-0.1
			c0.3,0.2,0.1,0.4-0.1,0.6c-0.4,0.5-0.7,1.2-1.5,0.9C249.6,528,249.4,528,249.1,528z"/>
		<path d="M254.1,518.4c-0.4,0-0.8,0-1.2-0.1c-0.5-0.1-1-0.4-1-1c0-0.2-0.1-0.6,0.2-0.6c0.5-0.1,0.9,0.2,1.2,0.5
			c0.3,0.3,0.7,0.6,1.1,0.8C254.2,518.2,254.2,518.3,254.1,518.4z"/>
		<path d="M318.4,314c0,3.7-0.7,7.2-1.7,10.8c-1.1-1.2-1.5-2.4-0.6-3.6c0.8-1.2,0.7-2.4,0.8-3.7C316.9,316.2,317.6,315.1,318.4,314z
			"/>
		<path d="M324.3,317.3c1.7,0.1,1.8,1.2,1.8,2.2c0,0.3-0.1,0.9-0.6,0.9c-0.5,0-0.7-0.5-0.7-0.9C324.7,318.9,324.8,318.2,324.3,317.3
			z"/>
		<path d="M316.5,325.4c0.5,1.1,0.6,2.1-0.1,3c-0.2,0.2-0.3,0.6-0.7,0.4c-0.3-0.2-0.1-0.4,0-0.7
			C315.9,327.2,316.2,326.3,316.5,325.4z"/>
		<path d="M325.1,311.7c-0.2-1,0.6-1.7,0.5-2.6c0-0.2,0.4-0.3,0.6-0.2c0.2,0.1,0.4,0.4,0.3,0.6C326.2,310.4,326,311.2,325.1,311.7z"
			/>
		<path d="M266.4,451.9c1,0.5,2.3,0.7,3.5,0.8c0.2,0,0.6,0.2,0.4,0.5c-0.2,0.4,0.1,1-0.5,1.2c-0.4,0.1-0.9,0.2-1.2-0.2
			c-0.9-1.4-1.9-1.8-3.4-0.9c-0.4,0.2-0.5-0.3-0.4-0.6C265.1,452.1,265.6,451.9,266.4,451.9z"/>
		<path d="M263.3,483.3c0.8-0.5,1.7-0.5,2.5-0.7c0.3-0.1,0.7-0.1,0.8,0.2c0.1,0.4-0.1,0.7-0.5,0.8
			C265.1,484.1,264.2,484.3,263.3,483.3z"/>
		<path d="M308.2,194.2c0.2-0.6-0.3-1.4,0.7-1.5c0.9-0.1,1.2,0.5,1.3,1.3c0,0.5,0.1,1,0.2,1.5c0.1,0.7-0.1,1-0.9,1.1
			c-0.7,0.1-1.1-0.1-1.1-0.8C308.4,195.2,308.3,194.7,308.2,194.2z"/>
		<path d="M315,178.5c0.3,0,0.6,0.2,0.7,0.5c0.1,0.3,0.1,0.7,0.1,1.1c0,0.5,1.1,0.9,0.2,1.3c-0.5,0.2-0.6-0.8-0.9-1.2
			c-0.2-0.3-0.3-0.8-0.4-1.2C314.6,178.8,314.7,178.6,315,178.5z"/>
		<path d="M303.2,456.8c-0.1-3.5,1.1-6.5,2-9.6c0.9-3,1.4-6.1,2.4-9.1c0.8-2.3,1.2-4.7,1.6-7.1c0.1-0.5,0.9-0.7,0.7-1.5
			c-0.1-0.3,0.5-0.7,1-0.4c0.5,0.3,0.9,1,0.6,1.2c-1.3,0.8-0.7,2.1-1.1,3.2c-1.5,4.6-2.3,9.4-3.4,14.1c-0.7,3-1.3,6-2,9
			c-0.1,0.2-0.2,0.5-0.2,0.7c-0.1,0.7-0.5,1.3-1.2,1.2c-0.7-0.1-0.2-1-0.3-1.5C303.1,457,303.2,456.8,303.2,456.8z"/>
		<path d="M311.4,436.6c1.8,0.7,1.1,2.1,0.8,3.2c-0.6,2.4-1.8,4.8-2,7.2c-0.3,3.8-2,7.3-2.2,11.2c-0.1,1.8-1.2,3.5-1.3,5.4
			c0,0.5-0.4,0.7-0.8,0.8c-0.4,0.1-0.8,0-1-0.3c-0.4-0.6,0.4-0.6,0.5-0.9c0.1-0.9,0.5-1.6,0.6-2.4c0.4-2.6,1.3-5,2-7.5
			c0.3-1.2,0.6-2.4,0.8-3.6c0.4-3.1,1.4-6.1,2.1-9.2C311,439.2,310.9,437.8,311.4,436.6C311.5,436.6,311.4,436.6,311.4,436.6z"/>
		<path d="M302,463c0.2-0.8,0.2-1.8,1.4-1.8c0.6,0,0.6,0.5,0.5,0.9c-0.3,0.8-0.1,2-1.4,2.1C301.9,464.1,301.9,463.5,302,463z"/>
		<path d="M310.7,419.5c2.1-1.1,4.2-0.7,6.3-0.2c0.2,0.1,0.8,0.1,0.6,0.7c-0.1,0.4-0.3,1-0.8,0.8C314.8,420,312.7,420.2,310.7,419.5
			z"/>
		<path d="M313.4,422.1c1.1-0.2,2.2,0.2,3.3,0.3c0.3,0,0.6,0.2,0.6,0.6c0,0.4-0.3,0.7-0.7,0.6c-1.6-0.3-3.4,0.3-5-0.4
			c-0.3-0.1-0.8-0.1-0.8-0.6c0.1-0.5,0.6-0.6,1-0.6C312.4,421.9,312.9,422,313.4,422.1z"/>
	</g>
</g>
<g id="text">
	<g>
		<g>
			<path d="M662.7,521.1c8.3-2.7,13.7-7.7,13.7-19.7c0-20.1-24.4-22.3-40.2-23.1c8.2,6,11.9,17.3,11.9,29.7
				c0,29.4-20.1,46.1-45.7,46.1c-27.9,0-49.1-19.4-49.1-52.3c0-40.2,31-53.9,66.2-53.9c40,0,80.9,10.3,80.9,54.9
				c0,33.1-20.2,46.6-37.7,49.2V521.1z M600.9,522.9c14.5,0,23.3-8.4,23.3-21.8c0-13.7-7-21.1-22.7-21.1c-9.5,0-24.2,3.9-24.2,21.6
				C577.3,515.8,587.6,522.9,600.9,522.9z"/>
			<path d="M628.8,366.5h26.9v60.1h-26.9V366.5z"/>
			<path d="M697.8,323.7H591.5c3.1,6.6,5.6,18.6,6.2,25.7h-23.1c-2.5-13.5-10.1-27.1-19.1-35.2v-21.8h142.3V323.7z"/>
		</g>
	</g>
	<g>
		<g>
			<path d="M486.6,564.1c5-1.1,7.2-4.7,7.2-10.5c0-5.7-2.3-8.2-5.9-8.2c-4,0-5.8,2.4-7.8,10.9c-3.2,13.5-8.1,16.9-14.8,16.9
				c-8.7,0-14.5-6.5-14.5-18.2c0-13.2,7.1-18.4,14.3-19.1v10.8c-3.1,0.5-6.4,2.2-6.4,8.6c0,4.4,1.8,7,5.3,7c3.5,0,4.9-2.1,6.7-10.1
				c3.4-14.4,8.8-17.6,15.8-17.6c9.1,0,15.3,6.9,15.3,20c0,12.6-6.2,19.2-15.3,20.4V564.1z"/>
			<path d="M496.6,493.3c12,0,19.5,4.4,19.5,18.5c0,13.6-7.6,16.3-11.8,16.6V518c2.6-0.7,4.3-2.6,4.3-6.6c0-6.7-4.1-8-11.4-8h-1.8
				c3.2,1.9,5.2,5,5.2,10.5c0,9.8-8,15.4-18.1,15.4c-11.7,0-19.6-7-19.6-16.3c0-6.4,3-9.1,4.8-9.6c-1-0.1-3.3-0.3-3.9-0.4v-9.8
				c3.3,0.1,7.1,0.1,10.7,0.1H496.6z M482.2,518.7c6.4,0,10.2-3.2,10.2-7.8c0-6.2-4.3-7.9-10.5-7.9c-6.3,0-10.6,1.1-10.6,7.7
				C471.3,515.2,474.7,518.7,482.2,518.7z"/>
			<path d="M463.9,488.2v-5.7h-10.1v-10.3h10.1v-7.3h7.8v7.3H490c2.8,0,3.9-0.9,3.9-3.9c0-0.6,0-1.6-0.1-2.3h7.1
				c0.7,2,0.7,4.9,0.7,6.9c0,7.3-3.9,9.7-10.4,9.7h-19.6v5.7H463.9z"/>
			<path d="M451.5,439.7v-10.6h22.2c-3.8-3.3-15-13.5-22.2-19.8v-12.9l20.6,19.9l29-20.7v12.9l-22.1,15.2l5,5.2h17v10.6H451.5z"/>
			<path d="M484.7,384.8c4.7,0,9.2-2.3,9.2-7.5c0-4.3-1.7-5.5-4-6.5v-10.3c4.6,1.3,12.1,5.4,12.1,17.1c0,12.3-9.2,17.6-19,17.6
				c-11.7,0-20-6-20-18c0-12.8,9.3-17.2,18.6-17.2c1.3,0,2.1,0,3.1,0.1V384.8z M478.4,370.4c-4.3,0.1-8,1.8-8,6.8
				c0,4.9,3.4,6.9,8,7.3V370.4z"/>
			<path d="M501.2,353h-52.6v-10.3h52.6V353z"/>
			<path d="M490,326.2c3-0.8,4.6-3.2,4.6-7.1c0-3.8-1.4-5.2-3.6-5.2c-2.4,0-3.3,1.6-4.6,6.9c-3,12.1-6.8,14.1-12,14.1
				c-5.5,0-11.3-3.9-11.3-15.1c0-11.3,6.2-15.1,11.2-15.5v9.8c-1.4,0.3-4,1.2-4,6.1c0,3.4,1.5,4.5,3.2,4.5c1.9,0,2.7-1.2,4.2-7.2
				c2.9-12.4,7.2-14.2,12.6-14.2c6.2,0,11.8,4.7,11.8,16.1c0,11.3-5.5,16-12.1,16.8V326.2z"/>
			<path d="M482.4,261.7c11.3,0,19.6,6.7,19.6,18.6c0,11.6-8.2,18.3-19.4,18.3c-11.5,0-19.6-7-19.6-18.8
				C463,268.8,470.8,261.7,482.4,261.7z M482.5,288.1c7.2,0,11.4-3.1,11.4-8.1c0-5.1-4.3-7.9-11.4-7.9c-7.8,0-11.5,2.9-11.5,8
				C471.1,285,474.6,288.1,482.5,288.1z"/>
		</g>
	</g>
</g>
<g id="guides">
</g>
</svg>
