<?xml version="1.0" encoding="utf-8"?>
<!-- Generator: Adobe Illustrator 26.0.2, SVG Export Plug-In . SVG Version: 6.00 Build 0)  -->
<svg version="1.2" baseProfile="tiny" xmlns="http://www.w3.org/2000/svg" xmlns:xlink="http://www.w3.org/1999/xlink" x="0px"
	 y="0px" viewBox="0 0 800 800" overflow="visible" xml:space="preserve">
<g id="fill">
</g>
<g id="bg" display="none">
	<rect x="-6100" y="-100" display="inline" fill="#9FC9EB" width="9000" height="1000"/>
</g>
<g id="counters_00000155831629897369998050000010902328751353074356_">
	<g>
		<g>
			<path d="M255.1,518.3c0-26.9,0-53.9,0.1-80.8c0-3.1-0.1-5.3-4.2-4.4c-2.4,0.6-3.4-0.7-2.9-3c1.4-5.9,0.1-11.9,0.3-17.9
				c0.4-13.4,0.2-26.8,0.2-40.2c0-1.8-0.9-3.7-1.1-5.3c-0.6-3.8,0.4-7.9,0.7-11.9c7.8-2.5,5.4-9.1,5.5-14.4
				c0.3-13.8,0.3-27.6,0.4-41.4c0-1,0.9-2.2-1.1-2.3c-0.3,0-0.9-0.6-0.9-0.7c2.2-4.9-2.2-8.3-2.8-12.6c-0.7-4.7-2.8-9.1-4.1-13.7
				c-2.2-7.4-4.1-15-6.6-22.4c-1-3-2-5.5-1-9c0.8-2.8,0.2-5.9,4.6-5.3c1.5,0.2,1.7-1,1.7-2.2c-0.1-9.6,6.9-16.1,10.5-24
				c0.5-1.1,1.6-1.3,2.8-1.3c1.5,0,3.1,0.3,4.5-0.1c9.2-2.3,14,2,17,10.3c1.9,5,6,9.2,5,15.2c-0.4,2.1,1.3,2.1,2.7,1.9
				c2.3-0.2,3.1,0.6,3,3c-0.1,1.9-0.8,4.1,1,5.8c0.3,0.2,0.2,1.1,0,1.5c-6.5,14.3-9,29.9-14.3,44.5c-4,10.8-2,21.5-2.4,32.2
				c-0.6,18.8-0.7,37.7,0.1,56.5c0.3,8.1-0.1,16.1,0,24.1c0.1,5.1,0.2,10.2,0.4,15.2c1.8,58.3,0.2,116.7,1.3,175
				c0.1,3.4,0.2,6.8,0.4,10.2c0.2,2.1-0.5,3-2.7,3c-4.4,0-8.7,0.2-13.1,0.4c-3.6,0.2-5-1.1-5-5C255.2,572.4,255.1,545.4,255.1,518.3
				C255.1,518.3,255.1,518.3,255.1,518.3z M281.3,244.1c-11.3,0-22.2,0-33.1,0c-1.9,0-2.5,0.5-1.5,2.4c4.4,8.5,8.6,17,13.1,25.4
				c2,3.7,5.5,3.6,7.4-0.1C272,262.7,276.5,253.6,281.3,244.1z M264.7,381.6c-1.6,0-3.2,0-4.9,0c-1.2,0-2.2,0.1-2.1,1.7
				c0.1,1.2,0.4,2.2,1.8,2.2c3.4,0,6.8-0.1,10.1-0.2c1.4,0,1.7-1,1.7-2.2c0-1.3-0.8-1.5-1.9-1.5
				C267.9,381.6,266.3,381.6,264.7,381.6z M254.4,407.6c1.5-13,0.4-25.9,0-38.9C254.4,381.7,254.4,394.7,254.4,407.6z M264.6,424.9
				c0-0.1,0-0.2,0-0.3c1.8,0,3.5,0,5.3,0c0.9,0,1.6-0.3,1.5-1.4c-0.1-0.8-0.7-1.1-1.4-1.1c-3.4,0-6.8,0.1-10.2,0.1
				c-1,0-1.5,0.5-1.4,1.5c0.1,0.8,0.6,1.2,1.4,1.2C261.4,424.9,263,424.9,264.6,424.9z M262.8,322.2
				C262.8,322.2,262.8,322.2,262.8,322.2c0,1.9-0.1,3.8,0,5.7c0.2,2.1,1.8,1.3,2.7,1c2.1-0.8-0.5-0.6-0.4-1.3
				c0.2-0.9-0.1-1.9-0.1-2.8c0-2.3,0.2-4.6,0.1-6.9c0-0.9,0.3-2.5-1.4-2.4c-1.3,0.1-0.9,1.4-1,2.3
				C262.7,319.2,262.8,320.7,262.8,322.2z M263.9,334c1.9,0,3.8,0,5.7,0c0.8,0,1.4-0.3,1.3-1.1c0-0.6-0.5-1-1.1-1
				c-3.8,0-7.6,0-11.4,0.1c-0.7,0-1.4,0.4-1.4,1.2c0,1,0.9,0.8,1.5,0.9C260.3,334,262.1,334,263.9,334z M280.6,242.6
				c0-0.1,0-0.2,0-0.2c-11.1,0-22.2,0-33.3,0c0,0.1,0,0.2,0,0.2C258.4,242.6,269.5,242.6,280.6,242.6z M264.8,386.8
				C264.8,386.8,264.8,386.8,264.8,386.8c-2,0-4.1,0.1-6.1,0c-1.2,0-1.5,0.7-1.2,1.6c0.5,1.7,1,0,1.6,0c3.8-0.5,7.6-0.7,11.3-0.2
				c0.5,0.1,0.9,1.3,1.4,0.1c0.4-0.9-0.2-1.5-1.2-1.5C268.6,386.8,266.7,386.8,264.8,386.8z M242.2,239c-0.8-1.1,1-3.7-1.3-3.8
				c-2.6-0.1-1.4,2.7-1.6,4.1c-0.2,1.2-1.1,3.5,1.1,3.6C243.1,243,241.4,240.4,242.2,239z M288,239c-0.6-1.5,1-3.9-1.4-4.2
				c-2.4-0.3-1.4,2.2-1.3,3.4c0.1,1.5-1.2,4.2,1.3,4.4C289.6,242.8,286.9,240,288,239z M255.3,422.2c0-2.8,0-5.7,0-8.5
				C254.7,416.6,254.1,419.4,255.3,422.2z"/>
		</g>
		<g>
			<rect x="401" y="301" fill="none" stroke="#000000" stroke-width="10" stroke-miterlimit="10" width="200" height="200"/>
		</g>
		<g>
			<rect x="400" y="300" fill="none" width="200" height="200"/>
			<path d="M461.6,379.9c1.5-13.1,10.8-29.3,37.4-29.3c24.7,0,35.7,14,35.7,29c0,12.8-7.4,18.9-13.2,21.6v0.5
				c6.9,2.5,17.3,9.2,17.3,25.7c0,15.4-9.3,33.7-40,33.7c-28.6,0-38.3-17.2-39.4-31.3H482c1.5,7.3,6.5,13.6,17.5,13.6
				c10.7,0,16-6.9,16-16.3c0-9.9-5-15.8-17.5-15.8h-9.6v-17.9h8.4c10.6,0,14.9-3.5,14.9-12.5c0-7.3-4.4-12.3-13.5-12.3
				c-10.8,0-13.4,6-14.6,11.3H461.6z"/>
		</g>
	</g>
</g>
<g id="text">
</g>
<g id="guides" display="none">
</g>
<g id="scratch">
</g>
</svg>
