<?xml version="1.0" encoding="utf-8"?>
<!-- Generator: Adobe Illustrator 26.0.2, SVG Export Plug-In . SVG Version: 6.00 Build 0)  -->
<svg version="1.2" baseProfile="tiny" xmlns="http://www.w3.org/2000/svg" xmlns:xlink="http://www.w3.org/1999/xlink" x="0px"
	 y="0px" viewBox="0 0 800 800" overflow="visible" xml:space="preserve">
<g id="fill">
</g>
<g id="bg" display="none">
	<rect x="-5100" y="-100" display="inline" fill="#9FC9EB" width="9000" height="1000"/>
</g>
<g id="scans" display="none">
	
		<image display="inline" width="843" height="1701" xlink:href="816EE209.jpg"  transform="matrix(0.3527 0 0 0.3527 251.3228 100)">
	</image>
</g>
<g id="counters_00000155831629897369998050000010902328751353074356_">
	<g id="ge-ldr">
		<path d="M315,264.1c0.1-0.2,0.3-0.4,0.3-0.6c-0.2-0.8-1.6-1.6,0.1-2.5c0.9-0.5,1.5-1.5,2.7-1.5c0.6,0,1.1-0.2,1.4-0.9
			c0.3-0.8-0.4-1-0.8-1.4c-0.9-0.9-2.2-1.4-2-3c-2-0.8-1.5-2.8-2-4.3c-0.6-1.7-0.2-3.5-0.5-5.1c-0.4-2.8,1.2-4.9,1.8-7.1
			c0.6-1.9,2-4,2.7-6c0.9-2.6,3-4,4.6-5.7c1.5-1.6,3.7-2.7,6-2.9c0.7-0.1,1.4-0.2,2-0.7c2.2-1.8,4.9-2.4,7.7-2.6
			c1.3-0.1,2.7-0.2,4-0.4c2.3-0.2,2.9,0.1,3.5,2.3c0.2,0.9,0.7,1.3,1.5,1.3c0.5,0,1.2,0.2,1.4-0.4c0.3-0.7-0.5-0.5-0.9-0.7
			c-0.5-0.2-0.6-0.6-0.3-1c0.3-0.4,0.9-0.6,1.2-0.3c1.7,2.1,4.5,1.6,6.5,3c0.9,0.6,2.2,0.6,3.2-0.7c0.8-1.1,2.3-1.7,3.5-2.5
			c1.5-1.1,3.3-2,5-2.9c1.8-1,3.4-2.5,4.8-4c1.2-1.3,1.4-3.5,1.9-5.3c0.4-1.2,0.8-2.1,2.2-2.3c1.7-0.3,2.8-2.6,2.2-4.2
			c-1-2.8-1-2.8-4-2.7c-2.6,0-5.3-0.1-7.9,0.3c-0.7,0.1-1.5,0.3-1.9-0.5c-0.4-0.7,0.2-1.4,0.5-1.9c2.2-3.4,3.5-7.3,4.5-11.2
			c0.5-2-0.8-4.1-1-6.1c-0.1-0.8-0.4-1.6-0.6-2.4c-0.3-1-0.3-1.6,1.3-1.2c-1.8-0.9-1.8-2.2-2-3.7c-0.2-2.3-0.5-4.6-0.5-7
			c0-1.3,1.1-2.5,0.5-3.9c-0.2-0.5,0.5-0.3,0.8-0.4c0.4-0.2,0.5-0.8,0.2-0.8c-1.8-0.1-0.6-1.1-0.4-1.5c0.5-1.6,0.7-3.3,1.2-4.9
			c0.9-2.6,2.7-4.4,4.4-6.3c0.8-0.9,1.4-2.1,3.4-1.5c-1.6-1.1-1.2-1.7-0.3-2.3c1.4-0.9,2.9-1.6,3.6-3.4c0.2-0.5,0.7-0.7,1.3-0.8
			c0.5,0,0.9-0.1,1.4-0.3c4.5-2,9.3-2.4,14.2-2.2c2.6,0.1,5.3,0.2,7.9,0.2c5.4,0,10.6,1.2,15.5,3.8c2.5,1.3,4.6,3.2,6.9,4.8
			c1.3,0.9,2.2,2.4,3.2,3.8c0.6,0.8,1,1.9-0.8,2.4c2.1,0.1,2.6,1.2,3,2.9c0.4,1.5,1,3.1,1.7,4.5c1.3,2.4,1,5,1.7,7.5
			c0.5,1.9,0.6,3.9,2.1,5.3c1.2,1.1,2.5,2.2,3.7,3.2c0.4,0.3,0.7,0.6,1.1,0.8c1,0.7,1.7,1.7,1.5,2.8c-0.3,1.3-1.8,1.1-2.8,1.2
			c-1.8,0.2-3.7,0.3-5.6,0.6c-1.5,0.2-2.3,0.7-2.3,2.6c0,1.4,0.6,3.1-1,4.3c-0.3,0.2,0.1,1.5,0.6,2.2c0.4,0.5,1.1,1.3,0.5,1.5
			c-0.8,0.4-2,0.7-2.8-0.3c-1.5-1.8-1.4-1.7-3.3-0.2c-1,0.7-1.9,1.9-3.5,1.7c-0.6-0.1-1,0.4-1.4,0.9c-0.3,0.4-0.6,1.1-1.2,0.8
			c-0.7-0.4,0-1,0.1-1.5c0.3-1.4,0.7-2.7,2.4-3.4c-2.2-0.5-2.8-0.1-3.3,1.8c-0.4,1.5-0.6,3.2-2.9,2.8c-0.2,0-0.6,0.1-0.6,0.3
			c-0.4,1.7-1.8,1.5-3.1,1.8c-2.6,0.5-4,2.7-4.2,5.6c-0.2,3.1,0.8,5.6,3.1,7.6c0.4,0.4,1,0.6,1.2,1.2c0.4,1.8,3.5,5.5,5.3,5.8
			c2.8,0.4,5.7,2.4,8.7,0.3c0.4,1.7-0.4,2.4-1.7,2.8c-1.9,0.6-4,0.5-5.9,0.6c-2.5,0.2-4.9,0.7-6.7,2.1c-1.4,1.1-2.9,2.6-3.5,4.6
			c-0.2,0.6-0.2,1.3,0.2,1.7c1.6,1.3,3,2.9,4.9,3.9c1,0.5,2.1,1.1,3,1.8c0.5,0.3,1.5,0.8,0.4,1.7c-0.3,0.2-0.1,0.4,0.9,0.5
			c0.6,0.1,1.4-0.1,0.7,0.9c-0.2,0.3,0,0.4,0.2,0.4c1.3,0.1,1.8,1,2.4,2.1c0.7,1.2,1.9,2.3,2.9,3.2c2.2,1.9,3.9,4.3,5.9,6.4
			c1.8,1.9,3.3,4.2,4.9,6.4c1.5,2,3.2,3.9,4.9,5.8c1.2,1.2,1.9,3,3.6,3.7c-0.3,1.4,0.9,2.2,1.7,2.8c1.4,1.2,2.1,3,3.7,4
			c1.3,0.8,2.3,0.6,3.5,0.1c1.5-0.7,3-1,4.6-0.8c1.1,0.1,1.8,0.6,2,1.7c0.5,2.4,2.6,3.8,4,5.6c0.8,1,5.7,0.7,7.2-1.1
			c2.1-2.4,4.5-2.3,6.5,0.2c0.6,0.7,1.5,1.2,1.7,2.4c-1.6-1.2-2.9-2.5-5-1.8c-0.8,0.3-1.4,1.1-2.4,0.9c-0.2,0-0.8,0.2,0,0.7
			c1.1,0.7,1.7,1.7,1.2,3.2c-0.7,2.2-0.1,3.1,1.7,3.7c1,0.3,3-0.5,3.1-1.5c0.1-1.4,1.3-2.5,1.1-4.4c3.6,2.9,4,7.1,6.2,10.3
			c-0.9-0.5-1.5-1.1-2.6-0.5c-0.8,0.4-0.9-0.6-0.7-1.1c0.8-1.8-0.3-3.3-0.8-4.8c-0.2-0.6-0.6-0.9-1.2-0.8c-0.5,0-0.7,0.4-0.8,0.9
			c-0.5,1.6-1.6,3-1.7,4.9c-0.1,2.2-0.6,4.4-0.9,6.6c0,0.3,0.1,0.6,0,0.9c-0.1,0.4-1.1,0.6-0.5,1.2c0.6,0.6,1.4,0.8,2.3,0.6
			c1.1-0.3,1.8-1.2,2.9-2c0,1.1-0.5,1.7-1,2.2c-0.8,0.8-1.3,1.8-1,2.9c0.4,1.5,2.4,1.9,3.9,0.9c0.8-0.6,1.5-1.2,2.3-1.8
			c-0.1,0-0.1,0.2-0.2,0.4c-0.2,0.6-1,1.2-0.2,1.8c0.7,0.5,1.5,0.5,2.2,0.1c0.7-0.4,1.3-1.1,0.9-2c-0.3-0.6-0.2-1.3-0.3-1.9
			c-0.2-1.6-0.8-1.9-2.4-1.2c0-2,0-3.9,0-5.6c2.5,3.4,3.4,6.2,3.4,9.5c0,1.4-1.1,2.1-1.4,3.3c-0.7,2.4-1.1,4.8-2.6,7
			c-1,1.4-4.3,3.1-6.7,2.9c-0.1,0.3,0.1,0.5,0.3,0.5c1.8,0.1,1.3,1,0.5,1.7c-0.9,0.7-0.9,1.2-0.4,2.1c0.8,1.6,0.9,3.3,0.9,5
			c0,0.4-0.3,0.6-0.5,0.9c-1.8,2.6-4.4,4.3-6.9,6c-0.8,0.5-1.5,1-1.6,1.9c-0.3,1.7-1.5,2.9-2.2,4.3c-0.8,1.6-3,2-4.7,2.1
			c-2.5,0.1-4.3,1.6-6.6,2c-2.7,0.5-5.2,2.1-8.1,2.1c-1,0-2.1,0.5-2.6,1.6c-0.3,0.7-1.1,0.6-1.6,1c1.4,1.2,1.1,3.1,1.6,4.6
			c0.5,1.4,0.8,2.9,1.2,4.3c0.4,1.4,0.4,2.8-0.2,4.2c-1,2.3-0.3,4.5,0.2,6.9c0.5,2.6,1.5,5.3,1,8c-0.4,1.9-1.4,3.7-2.3,5.4
			c-0.6,1.1-1.3,2-0.4,3.3c0.4,0.5,0.4,1.5,0.3,2.2c-0.6,2.6-1.2,5.2-1.9,7.8c0,0.2-0.2,0.3-0.3,0.4c-1.5,0.7-2.1,1.6-1.2,3.3
			c0.8,1.6,1.3,3.5,1.8,5.2c0.5,1.9,1.1,3.7,1.9,5.5c0.5,1.1-1,1-1,1.4c4.2,1.9,8.6,0.6,12.9,1.4c2.1,0.4,4.4-0.2,6.6,0.3
			c3.6,0.8,7.3,0.1,11,0.6c1.3,0.2,3,0.2,4.1-1c0.5-0.6,1.2-1,1-2.1c-0.5-2.5,1.9-4.4,4.4-3.6c0.5,0.2,1,0.4,1.5,0.4
			c2.3,0.1,3.2,1.2,2.8,3.4c-0.1,0.4,0,0.9-0.1,1.1c-1,1.8-0.2,2.6,1.3,3.6c0.8,0.5,0.9,2,0.6,3.2c-0.5,1.9-1.4,2.9-3.6,2.6
			c-3.1-0.4-6.2-0.1-9.3-0.4c-2.2-0.2-4,1.3-6,2.1c-1.9,0.8-3.5,2.1-5.6,2.3c-1.5,0.1-3.6-1.2-3.9-2.6c-0.2-0.8-0.4-0.9-1.1-0.9
			c-4.4-0.3-8.9-0.4-13.3-0.2c1.3,2.5,1.4,5.1,0.1,7.5c-1.4,2.4-0.3,4.4,0.4,6.4c0.6,1.6,0.7,3.4,1.6,5c0.4,0.9-0.7,0.6-1.1,1.2
			c2.9,0.4,2.6,3,3.5,4.7c0.3,0.6,1.2,1.6,0.3,2.6c0.5,0.1-0.2,1.1,0.7,0.9c0.6-0.1,0.6,0.2,0.6,0.6c-0.3,1.9,2.2,3.2,1.1,5.3
			c1.9,1,1.3,3.2,2.2,4.7c1.9,3.3,2.5,7.1,3.6,10.6c0.7,2.4,0.8,5.1,1.9,7.3c1.1,2.2,1.4,4.7,2,7c1.1,4.6,2.3,9.1,3.4,13.7
			c0.4,1.7,0.7,3.6,1.9,5c0.4,0.5,0.7,1,0.1,1.6c-1.7-1.3-1.9-3.5-2.5-5.3c-0.3-1-0.6-2-1.2-2.7c-1-1.3-0.9-2.9-1.4-4.2
			c-1.3-3-0.5-6.6-3-9.2c-0.5-0.5-0.8-1.2-0.8-1.9c0-1.1-0.2-2.1-0.9-3c-0.4-0.6-0.6-1.4-0.3-2.3c0.4-1.7-0.3-3.4-1.1-4.8
			c-1.4-2.3-2.6-4.4-3.1-7.2c-0.4-2.5-1.9-5-3.3-7.3c-0.6-1.1-0.9-2.2-1.1-3.4c-0.4-2.2-1.7-3-3.5-1.7c-1.3,0.9-3.1,1-3.8,2.8
			c-0.3,0.8-1,0.6-1.1-0.3c-0.1-1.1-0.3-2.3,1.2-2.9c0.2-0.1,0.6-0.4,0.6-0.6c0.2-2.3,2.3-3.8,2.7-6c0.1-0.3,0.3-0.7,0.1-0.8
			c-1.2-1.2-0.9-3-2-4.2c-0.6-0.6-1.3-0.7-1.6,0c-0.6,1.2-1.9,1.4-2.6,2.5c-0.2,0.3-0.6,0.5-0.9,0.3c-0.4-0.2-0.4-0.5-0.3-0.9
			c0.2-1.6-0.7-3-0.5-4.7c0.1-0.6-0.8-1-1.5-0.9c-0.7,0.1-0.9,0.6-0.8,1.3c0.2,1,0.4,2.1,0.7,2.8c0.9,1.7,0.9,3.2,0.4,5
			c-0.7,0-0.6-0.8-0.9-1.2c-0.2-0.3-0.5-0.5-0.9-0.4c-0.3,0.1-0.5,0.3-0.5,0.6c-0.1,0.6,1.5,4,2,4.1c0.4,0.1,0.9,0.1,1.3,0.2
			c0.1,0.6-0.3,0.6-0.6,0.8c-1.2,1.1-1.3,2.4-0.3,3.6c0.9,1,0.5,2.5,1.4,3.5c1.2,1.3,2,2.7,0.5,4.3c-0.1,0.1-0.1,0.3-0.3,0.8
			c-0.3-1.4-1.5-2-1.6-3.3c0-0.6-0.7-1.2-1.2-1.7c-0.8-0.7-1.7-0.6-1.9,0.6c-0.2,0.9-0.3,1.9-1.4,2.2c-0.4,0.1-0.6,0.5-0.4,1
			c0.3,0.6,0.8,0.9,1.4,0.8c1.7-0.4,2.5,0,2.3,2c-0.1,0.9,1.2,1.1,1.6,1.9c0.6,1.2,1.7,2.2,0.4,3.7c-0.6,0.7-0.3,1.9,0,2.7
			c0.5,2,0.6,2-1.5,2.2c2,1.9,3.1,4.3,4.5,6.5c0.7,1.2,0.6,2.6,1.4,3.8c0.4,0.6-0.4,1-0.9,1.2c-0.8,0.3-1,0.6-1.3,1.5
			c-0.7,1.9-0.8,4.2-2.1,5.7c-0.7,0.9-0.2,1.2,0.2,1.4c0.5,0.3,0.8,1.5,1.8,0.5c1-0.8,1-2,1.4-3c0.5,0.3,0.4,0.6,0.3,1
			c-0.9,3,0.2,5.5,1.6,8c0.4,0.6,0.7,1.2,1.6,1.1c0.1,0,0.3,0,0.3,0c1.5,2.3,4,1.9,6.2,2.4c0.3,0.1,0.8,0.2,0.8,0.6
			c0,0.4-0.4,0.5-0.7,0.7c-1.9,1.9-3.5,0.2-5.2-0.5c-1.8-0.7-3.4-1.4-5.1,0.4c-0.6,0.6-2,0.5-3,0.4c-0.4,0-0.9-0.2-1.2,0.1
			c-0.4,0.6-1.6,0.9-1.4,1.7c0.2,0.9,1.3,1.3,2.2,1.1c2.6-0.4,5.1,0.6,7.6,0.9c0.7,0.1,1.5,0.4,2.1,1.2c0.7,1,2,0.5,2.9,0.3
			c0.9-0.1,1.7,0.1,2.6,0.1c0.4,0,1,0.2,0.9,0.6c-0.2,1.1-0.7,2.3-1.5,2.9c-0.8,0.5-2.2,0.7-2.9-0.7c-0.5-1.2-1.6-1.1-2.5-1
			c-1.6,0.2-2.9,0-4.2-1.1c-3.1-2.6-6.7-2.4-9.2,0c-0.1,0.3,0.2,0.4,0.4,0.5c2.3,1.1,2.3,1.2,0.4,2.9c-0.5,0.5-0.5,0.7,0.2,1
			c1,0.5,3-0.2,3.6-1.4c0.8-1.5,1.9-1.8,3.3-0.7c0.6,0.4,1.1,0.5,1.7,0.5c1.7-0.1,3.3,0.6,5,1c0.3,0.1,0.9,0.4,0.8,0.8
			c-0.2,0.6-0.8,0.5-1.4,0.4c-2.5-0.7-5-1.2-7.6-0.9c-0.9,0.1-1.6,0.6-2,1.3c-0.2,0.5,0,1.6,0.5,1.7c1.2,0.3,2.4,0.9,3.8,0.7
			c2.4-0.3,4.9-0.7,7.2,0.4c1.1,0.5,2.1,0.7,3.3,0c1.4-0.8,3.1-0.9,4.5-1.9c0.6-0.4,1.8-0.7,2.5,0.4c0.2,0.3,0.9,0.2,1.3,0.2
			c0.3,0.1,0.7,0.1,1,0.2c-0.4,1.7,1.5,1.1,2,1.9c0.5,0.9,1.1,2,0.4,2.8c-1.6,2-1.1,4.6-2.4,6.7c0,0,0.4,1.1,0.5,1.7
			c0.1,0.5,0.5,0.9-0.4,1.2c-0.4,0.1-0.1,0.3,0.1,0.5c0.9,0.6,1.2,1.6,0.6,2.5c-0.6,0.7-0.8,1.4-0.5,2.3c0.1,0.2,0.1,0.4,0.1,0.5
			c-1.6,1.8,0.3,4.4-1.7,6.2c-0.5,0.5,0.6,0.4,0.7,0.8c0.1,0.3,0.4,0.7,0.3,1c-0.2,0.4-0.6,0.2-0.9,0c-1.4-0.6-2-2.7-1-3.9
			c0.3-0.4,0.5-0.9,0.8-1.4c0.4-0.7-0.2-1.2-0.6-1.1c-1.1,0.3-2,0.2-2.9,1.7c-1.9,3.1-2.1,7.1-5.2,9.6c-1.9,1.6-1.6,4.5-2,6.9
			c-0.1,0.4,0.3,0.4,0.7,0.4c0.4,0,0.7-0.2,0.6-0.6c-0.1-0.8-0.2-2.1,0.7-1.9c0.9,0.1,0.6,1.5,0.5,2.3c-0.5,3.9-1.5,4.7-5.6,4.8
			c-1.2,0-2.3,0.5-3.3,1c-0.5,0.3-1.2,0.4-1.5-0.1c-0.3-0.6,0.2-1.1,0.7-1.4c1.8-1.1,2.7-3,4.4-4.2c0.9-0.6,0.7-2.1,0.5-3.3
			c-0.1-0.4-0.7-0.6-1.2-0.4c-0.6,0.3-1.3,0.6-1.8,1c-1,0.8-2.2,1.5-3.5,1.3c-1.8-0.3-2.6,1.1-3.6,2.1c-0.8,0.8-1.5,1.1-2.6,0.9
			c-2.6-0.6-5.7,1.3-6.7,4.3c-0.3,0.9,0,1.1,0.4,1.6c0.5,0.5,1.1,1,1.8,0.6c1.6-0.9,3.3-1.4,5.2-1.4c0.5,0,1.1-0.1,1.2-1
			c0.1-0.8,0.9-1.2,1.6-0.7c0.4,0.3,1.6,0.7,0.4,1.7c-0.4,0.4-0.4,1.3-0.7,1.9c-0.7,1.2-1.5,1.8-2.8,2c-2.4,0.4-3.1,3.6-1.9,5.3
			c0.5,0.7,1.1,1.3,1.7-0.1c0.3-0.7,0.5-1.5,1.6-0.5c0.5,0.4,1.8,0.4,2.6,1.2c0.5,0.4,1.1-0.4,1.3-1c0.5-1.4,3.6-2.8,4.9-2.3
			c0.9,0.4,0.4,1.1,0.3,1.7c-0.1,0.6-0.6,1.2,0.4,1.4c0.7,0.1,0.8-0.6,0.9-1.1c0.2-1.4,0.8-2.4,1.8-3.3c0.2-0.2,0.5-0.5,0.5-0.7
			c-0.1-1.6,1-1.5,2.1-1.6c1.3-0.1,1.7,0.5,1.8,1.7c0.1,0.8,0.5,1.7,0.6,2.6c0.1,1.9-1.5,2.5-2.5,3.5c-1.9,1.8-3.9,3.4-6.4,4.3
			c-0.4,0.1-0.6,0.4-0.4,0.8c0.2,0.5,0.4,1.2,1.1,1.2c0.6,0,1.5,0.4,1.7-0.5c0.4-1.9,1.5-2.3,3.2-1.5c0,0.1,0,0.2,0,0.3
			c-0.4,0.5-0.9,1-0.6,1.7c0.1,0.3,0.5,0.2,0.8,0.2c0.8-0.2,1.9-0.2,2-1c0.3-2.5,2.5-2.2,3.9-2.8c0.8-0.4,1.6-0.3,1.7-1.5
			c0.2-1.3,1.6-1.2,2.5-1.8c0.2-0.1,0.6,0.3,0.5,0.7c-0.1,0.4-0.3,0.9-0.6,1.3c-0.4,0.6-1.2,0.8-0.9,1.7c0.4,1.1,1.2,2,2.1,2.7
			c0.9,0.8,2.6-0.4,3.4-1.9c1.2-2.2,2.3-4.4,2-7c-0.1-1.5-1.7-2.5-2.9-1.6c-0.8,0.5-1.4,0.6-2.1,0.1c-1.4-0.8-2.9-0.1-4.4-0.3
			c0.3-1.2-0.2-2.7,1.6-3.2c0.2-0.1,0.3-0.3,0.4-0.6c0.8-3.1,2.9-5.1,5.5-6.5c1.7-0.9,2.3-2.6,3.7-4.2c-0.5,2.6-1.2,4.9-1,7.2
			c0.3,3.2-0.5,6.5,0.1,9.7c0.3,1.4-0.4,2.7-0.6,4c-0.4,2.6-0.4,5.1-0.2,7.7c0.1,1.7-1.3-0.2-1.6,0.8c2.9,1.3,0.1,2.8-0.4,3.1
			c-3.1,1.8-3,4.8-3.3,7.7c-0.1,1.1-0.5,1.4-1.6,1.4c1.3,0.2,1.9,0.8,1.3,2.1c-0.6,1.3,0.3,2.7,0.1,4.1c-0.3,2.4-0.5,4.9-0.3,7.3
			c0.2,1.6,0.5,3.3,0.4,4.8c-0.1,3.8-0.8,7.6-1,11.4c-0.1,1.8-0.2,3.7,0.2,5.5c0.5,2.1-0.4,3.9-2,4.6c0,0.5,1.5-0.1,0.9,1.1
			c-0.3,0.7,1.7,0.8,0.9,2c1.9,2,2.6,4.8,4.8,6.5c1.6,1.2,3.5,2.3,5.2,3.4c0.2,0.2,0.7,0.3,0.7,0.5c0.2,2.4,2.5,1.6,3.6,2.5
			c1.3,1.1,2.7,1.6,4.4,2c3.5,0.8,7.1,1.1,10.7,1.4c3.8,0.3,6.6,2.5,9.2,4.9c0.8,0.7,1.2,2.5,0.6,4.1c-0.3,0.7-0.7,1.6,0.3,2.4
			c0.7,0.5-0.4,3.1-1.6,3.6c-2.8,1.1-5.5,2.3-8.5,2.3c-2.6,0-4.9,1.3-7.4,1.9c-3.5,0.8-6.9,1.4-10.5,1.6c-3.7,0.2-7.3-0.4-10.9-0.6
			c-2.3-0.2-4.4-1.3-6.7-1.7c-2.2-0.4-4.4-0.1-6.6-0.4c-0.9-0.1-2,0.6-2.2,1.9c-0.2,1.2-0.8,1.5-2,1.7c-6.2,0.9-12.1-0.5-18-1.7
			c-1.3-0.3-2.6,0-3.8-0.5c-1.4-0.6-2.3-1.2-2.4-2.9c0-1.8-0.9-3.8,1.7-4.6c-0.8-0.6-1.2-0.1-1.6,0c-0.6,0.2-0.8-0.1-0.8-0.6
			c0.2-4.5-0.1-9-0.5-13.6c-0.1-1.3,0.7-2.4,1.4-3.3c0.4-0.5,0.5-0.8,0.4-1.4c-0.4-2.6,1.4-4.8,1.6-7.2c0.2-2,0.7-4.1,0.2-6.2
			c-0.4-1.6-0.1-3.3,0.1-5c0.1-1.1,0.2-2.2,0-3.2c-0.3-1.1,0.5-2.3-0.5-3.4c-0.3-0.4-0.3-2.2,1.6-1.7c-0.3-0.8-1.7-0.9-1.2-2
			c0.5-1,1.1,0.7,1.6-0.1c-0.1-0.7-0.7-0.4-1.1-0.5c-0.5-0.1-0.9-0.4-0.8-0.9c0.3-2.4-0.8-4.6-0.7-7.1c0.1-2.6,0.3-5.3,0-7.8
			c-0.3-3.7-0.2-7.6-2.3-11c-0.3-0.5-0.7-0.9-1.3-1.1c-1.9-0.9-3.2-2.3-3.5-4.5c-0.1-0.6-0.7-1.4,0.5-1.7c0.1,0,0.2-0.3,0.2-0.4
			c-0.8-3.3-0.2-6.6-0.7-9.9c-0.5-3.3-0.5-6.7-0.8-10c-0.2-1.9-0.5-3.9,0-5.8c0.5-1.6-0.9-3.4,0.4-4.9c-1.3-1,0-2.3-0.5-3.4
			c-0.5-1.2-0.3-2.5-0.3-3.8c0-1.2-1.1-2-1.5-3.1c-1-2.9-0.2-5.6,0.9-8.2c0.7-1.6,0.8-2.9-0.6-4c-2.9-2.5-2.8-6-0.2-8.7
			c0.5-0.6,0.4-2.6-0.2-3c-1.5-0.9-2.7-1.9-3.2-3.8c-0.4-1.5-1.8-2.3-2.6-3.6c-0.9-1.6-1.5-3.4-2.5-5c-0.3-0.5-0.5-1.2-1-1.6
			c-0.2-0.2-0.6-0.5-0.1-0.9c0.8-0.7,0.8-0.7-0.1-1.3c-1-0.7-1.8-1.2-1.8-2.8c-0.1-2.1-1.5-3.9-3.3-5.2c-0.7-0.5-1.3-0.2-1.6,0.5
			c-1,2.2-2.8,4-2.8,6.6c0,0.2-0.1,0.4-0.2,0.5c-1.6,1.1-1.1,3-1.8,4.5c-1.5,3.2-1.7,6.6-1.9,10c-0.1,1.5-1.2,2.8-1.6,4
			c-0.4,1.5-1,2.9-1.6,4.3c-0.8,2.1-1.5,4.3-3.2,5.8c-0.5,0.4-0.8,0.9-0.9,1.4c-0.2,1.9-1.2,3.6-1.7,5.4c-0.5,1.7-1.3,3.4-2,5.1
			c-1,2.2-2.8,3.9-3.9,6c-1,2-3.2,3-3.7,5.2c-0.1,0.2-0.4,0.4-0.7,0.5c-2.5,1.8-3.4,4.4-3.7,7.2c-0.4,3.2-2.1,5.8-3.8,8.4
			c-0.5,0.7-1.6,1.4-2.4,1.6c-2.5,0.7-2.7,3-3.8,4.7c-1,1.6-2.1,3.3-3,5c-1.3,2.3-3.2,3-5.1,4.2c-1.7,1-3.4,1.4-5.1,2
			c-3.1,1.2-3.8,4.4-5.5,6.8c-2.2,3.2-3.8,6.7-6.1,9.9c-0.5,0.7-0.8,1.6-1.8,1.9c-0.1,0-0.3,0.1-0.3,0.1c0.4,2.8-1.7,4.7-2.3,7.2
			c-0.1,0.5-0.5,0.9-0.9,1c-0.7,0.2-0.9,0.4-0.3,1c0.2,0.2,0.1,0.5-0.2,0.8c-2.2,2.1-2.6,5.2-4.2,7.6c-1.5,2.2-1.7,5.4-4.9,6.3
			c-1,0.3-0.8,1.3-0.5,1.9c0.4,0.9,0.6,1.9,0.6,2.9c0.1,1,0.3,2-1.3,2.5c1.5-0.3,2.1,0.7,2.4,1.4c0.8,2,2.1,3.6,3.3,5.3
			c1,1.5-0.9,1.2-0.9,2c2.6-0.7,1.5,2,2.7,2.8c1.1,0.7,0.7,2.2,1.3,3.2c1.4,2.7,3.9,4.1,6.3,5.6c3,1.8,6.3,3,8.7,6
			c1.7,2,3.4,3.9,3.7,6.5c0.1,1.3,0.4,2.8-0.2,4.2c-0.5,1-0.4,2.1-0.6,3.2c-0.5,1.9-1.7,2.3-3.1,2.3c-3.8,0.2-7.7,0.4-11.5,0.1
			c-1.5-0.1-3.1-0.4-4.6,0.3c-1,0.4-1.5-0.4-2.2-0.7c-2.1-0.7-4.4-0.5-6.4-1.5c-1.7-0.8-3.4-1.7-4.7-3.1c-0.3-0.3-0.6-0.7-0.9-0.8
			c-3.6-0.7-5.5-3.7-8-5.8c-2-1.7-4.3-3.2-5.9-5.3c-1.5-1.9-3.9-2.7-5.6-4.4c-0.9-0.8-2.3-0.2-3.4-0.3c-2.7-0.2-5-0.7-7.3-2.7
			c-2.2-2-4.5-3.9-6.4-6.2c-1.5-1.7-3.2-3.3-3.7-5.7c-0.2-0.7-0.3-1.3,0-1.9c1.2-2.1,1.8-4.4,2.6-6.7c0.5-1.4,1.6-2.7,2.2-4
			c1.1-2.5,3.2-4.2,4.5-6.5c0.7-1.3,2-2.2,3.4-2.8c1.1-0.4,1.6-1,1.9-2.5c0.3-1.8,0.7-4,2.2-5.4c0.5-0.5,0.6-1.1,0.8-1.7
			c1.4-4.9,3-9.8,4.8-14.6c0.7-1.7,1.3-3.6,1.8-5.5c0.5-1.9,1.4-3.8,2.3-5.6c0.8-1.6,1-3.5,2-4.9c1-1.5,1.5-3.3,3.2-4.4
			c0.9-0.6,0.6-2.1,1.3-3.1c1-1.3,1.5-3,2.4-4.3c0.6-0.9,0.6-2,0.6-2.9c0-0.7,0.3-1.5-0.6-2.5c-1.4-1.6-1.5-4.2-1.2-6.6
			c0.3-2,1-3.5,2.7-4.5c0.1-0.1,0.2-0.2,0.2-0.3c1.2-3.6,4.5-6.3,4.4-10.4c-0.1-3,1.9-5.1,3.4-7.4c0.1-0.2,0.5-0.2,0.5-0.4
			c0.3-2.2,0.9-3.9,2.2-5.6c0.2-0.2,0.3-0.5,0.4-0.8c0.6-3,2.5-5.3,4.7-7.2c0.7-0.6,1.3-1.2,1.5-2.1c0.4-1.8,2.2-2.9,2.6-4.7
			c0.1-0.6,0.4-1.2,0.3-1.9c-0.5-2.5,0.6-4.7,1.6-6.8c0.8-1.7,0.3-3-1.5-3.6c-2.6-0.9-4.4-2.8-6.2-4.6c-3-3.1-6.1-6-7.7-10.2
			c-0.3-0.9-1.3-1.5-1.9-2.3c-0.5-0.7-1.3-1.5,0.4-2.1c-1.5,0-1.9-0.8-2.4-1.7c-1.6-3.2-3.2-6.4-4.8-9.7c-1.1-2.3-2.6-4.5-3.1-6.8
			c-0.9-3.5-3-6.5-3.7-10c-0.4-1.9-1.7-2.8-3.6-3.2c-4.3-1-7.4-5.1-7-8.9c0.1-1.1,0.5-2.2,1.1-3.1c1-1.4,2-3,3.3-4
			c2.6-2.1,2.7-4.7,2.4-7.5c-0.3-2.8-0.7-5.6-0.9-8.4c-0.2-2.2,0.1-4.5-0.3-6.7c-0.2-0.8,0.6-1.1,1.5-1.4c-0.8-0.4-1.6-0.9-1.6-1.9
			c0-1.2-1.7-1.8-1.2-3.2c0.3-1.1,0.6-1.6,1.8-1.1c1.3,0.6,2.4,0.4,3.5-0.7c1.1-1.1,3-1,3.8-2.6c0.4-0.6,1-1,1.2-1.9
			c0.2-1.1,1.7-1.5,2.7-2c1.3-0.5,1.8-1.1,0.4-2.2c-2-1.6-3.7-3.6-4.8-6c-0.6-1.3-1.8-2.5-1.8-4c-0.1-2.1-1-4.2-0.5-6.2
			c0.4-1.6,0.7-3.6,2.7-4.6c0.5-0.3,1.5-1.5,1.5-2.6c0-0.5,0.2-1.1,0.7-1.4c1.5-1,1.9-2.7,2.8-4.1c0.4-0.7,0.7-1.3,1.5-1.7
			c0.2-0.1,0.5-0.3,0.5-0.4c-0.1-2.6,2.6-3.5,3.4-5.6c0.7-2,2.8-3,4.1-4.7c1.2-1.4,0.9-2.4,0.1-3.4c-1.4-1.6-2.7-3.5-4.2-4.9
			c-1.3-1.2-1.4-2.6-1.6-4c-0.4-2.6-1.5-4.9-2.9-7.2c-0.6-0.9-0.8-2.1-1.3-3.1c-1-2.4,0.4-4.8-0.5-7c-0.9-2.2-0.2-4.3-0.3-6.4
			c0-0.3,0-0.7,0.1-0.8c0.7-0.6,1.6-0.7,0.3-1.9c-0.6-0.5,1.2-0.2,1.4-1.1c-2.9-0.6-1.2-3.1-1.6-4.7c-0.6-2.1,0.4-4.5-0.1-6.7
			c-0.4-1.7,0.6-3.1,0.6-4.8c0-2.6,0.6-5.3,0.4-7.9c-0.3-3.2-0.7-6.4-0.6-9.6c0.1-1.9,0.9-3.5,1.3-5.3c0.3-1.4,1-2.6,1.2-4
			c0.2-1.9,0.7-3.8,1.6-5.6c0.8-1.4,1.6-2.8,2.4-4.2C313.6,262.9,314.4,263.6,315,264.1c0.4,0.5,0.8,1,1.2,1.5
			c0.3,0.4,0.7,0.4,1.1,0.3c0.2-0.1,0.4-0.3,0.4-0.4c0.1-0.6-0.4-0.6-0.8-0.8C316.3,264.4,315.7,263.9,315,264.1z M377.8,379.8
			c-0.9,0-1.9-0.1-2.1,1.2c-0.1,0.9-0.7,1.3-1.7,1c-0.2,0-0.5,0.1-0.6,0.2c-0.2,0.2-0.1,0.5,0.2,0.6c1.2,0.5,1.8,1.8,2.9,2.4
			c0.8,0.4,1.6,1.1,2.3,0c0.5-1,1.3-2.1-0.3-2.9C377.5,381.7,377.2,380.9,377.8,379.8c0.6-0.4,0.8,0.3,1.2,0.5
			c0.6,0.3,1.4,0.3,1.4-0.6c0-1.2-1.3-1.2-2-1.6c-0.5-0.3-1.2-0.5-1.5,0.2C376.6,379.2,377.7,379.2,377.8,379.8z M306.7,634.1
			c1,1.1,2.4,1.2,3.7,0.8c0.9-0.2,1.7-0.3,2.6,0.1c1.4,0.5,2.7,0.4,4.3-0.2c-1.2-0.4-1.1-2-2.2-2.2
			C312.1,632.3,309.3,632.5,306.7,634.1c0.1-0.4-0.1-0.7-0.5-1.1c-2.2-2.2-2.2-2.6-0.4-5.1c0.2-0.3,0.4-0.5,0.2-0.8
			c-0.6-0.9-1.5-1.3-2.6-1c-1.1,0.2-2.5,0.7-2.3,1.8c0.3,1.6-0.5,3.5,1.5,4.8C303.9,633.5,304.9,634.8,306.7,634.1z M446.8,533.2
			c0.5,0.4,1.1,0.3,1.7,0.3c0.4,0,0.9-0.2,1.1,0.3c0.2,0.4-0.1,1-0.3,1.1c-1.5,0.6-2.2,2-3.4,2.9c-1.3,0.9-2.2,2-2.9,3.4
			c-0.1,0.2,0,0.8-0.4,0.6c-1.4-0.6-1.5,0.9-2.2,1.3c-1.5,0.9-1.6,3.1-3.6,3.6c-0.8,0.2-0.8,1.3-0.7,2.2c0,0.4,0.3,0.9,0.6,1
			c0.8,0,0.8-0.9,1.2-1.3c0.1-0.1,0.2-0.1,0.4-0.1c0.1,0.5,0.1,1,0.3,1.5c0.2,0.6,1,0.8,1.2,0.3c0.5-1,0.8-2.2,0.7-3.1
			c-0.1-1,0.1-0.9,0.7-0.9c0.6,0,1.2-0.1,1.7-0.1c0.8,0,2.1-0.6,2.1-0.7c-0.3-1.8,1-1.5,1.9-1.6c0.9-0.1,1.5-0.2,1.7-1.3
			c0.2-1.1,0.9-2,2.3-2.3c1.2-0.3,2.4-1,2.5-2.4c0.2-1.5,1.1-2.4,2.2-3.2c1.2-0.8,1.2-2.5,1-3.4c-0.2-0.8-1.6,0.4-2.5,0.3
			c0,0-0.1,0.1-0.2,0.1c-0.8,0.3-1.5,0.6-1-0.8c0.4-1-0.4-1.7-1.1-1.4C449.9,530.2,447.4,530.5,446.8,533.2c-0.8,0.3-0.8,0.3-1-0.6
			c-0.2-0.7-0.4-0.9-0.7-0.1c-0.2,0.4-0.4,0.7-0.9,0.4c-0.3-0.2-0.8-0.6-0.6-0.8c0.9-0.8,0.3-1.2,0-2c-0.6-1.3,0.1-3.4,1.3-3.9
			c1-0.4,1.2-1.3,1.1-2c-0.1-0.8-1-0.9-1.9-1c-1.9-0.2-3.9,0.8-5.7-0.9c-0.5-0.5-1.2,0.2-1.5,0.8c-0.3,0.6,0.3,0.9,0.7,1
			c1.4,0.4,2.6,1.3,4,1.7c0.6,0.2,1.3,0.2,1.4,0.8c0,0.6-0.3,1.3-0.9,1.8c-1.2,0.8-2.5,1.6-3.7,2.4c-1,0.7-1.3,1.3-0.5,2.5
			c0.8,1.2,2.5,1.3,3,3c0.3,1.3,0.8,2.5,0.9,4.3c1.5-2.8,2.2-5.6,5.1-6.6C447.3,533.8,446.9,533.4,446.8,533.2z M403.1,445.1
			L403.1,445.1c0-0.2,0-0.5,0-0.7c0.7-1.8,1-3.7,1.3-5.5c0.2-1.5,0.1-3.1,2.4-3.1c0.6,0,0.4-0.7,0-1c-1.8-1-3.8-1.1-5.8-0.9
			c-0.9,0.1-1.7,1-1.5,1.7c0.3,1.2-0.3,2-0.6,2.9c-0.3,1.3-0.7,2.5-1,3.8c-0.5,2.3-0.9,4.4-2.2,7.1c0,0,0.1,0.1,0.1,0.2
			c0.4,1.5-0.1,3.2-0.6,4.4c-0.8,2.2-1.1,4.5-1.6,6.7c-0.8,3.1-1.1,6.1-3.1,8.7c-0.2,0.3-0.3,0.5,0,0.7c1.1,0.9,1,2.3,0.6,3.2
			c-0.5,1.4-0.6,2.9-1.1,4.3c-0.7,1.7,0.2,2.8,2,2.8c1.5,0,3-0.4,4.6,0c0.6,0.1,1.3-0.2,1.8-1.2c0.5-1.3,0.6-2.5,0.9-3.8
			c0.6-3,1.6-5.8,2.1-8.8c0.5-3.2,1.5-6.2,2.3-9.3c0.6-2.1,0.9-4.3,1.5-6.5c0.4-1.3-0.1-2.8,2.3-2.3c-1.6-1.1-1.4-1.1-0.9-4.3
			c0.3-1.7,1.5-0.5,2.1-1.1c-1.7-0.8-1.9-1.5-1.1-3.7c0.3-0.8,1-1.9,0.5-2.3c-0.9-0.8-1.6,0.5-2.4,0.9c1.1,0.6,1.1,0.6,0.5,1.5
			c-0.2,0.3-0.6,0.7-0.5,0.9c0.6,1.6-0.6,2.7-1.1,3.9C404.4,445.3,403.8,445.3,403.1,445.1z M388.4,308c-1.3,0.4-2.5-0.4-2.2-1
			c0.7-1.5-0.3-3.1,0.8-4.5c0.9-1.1-0.3-2.7,0.6-3.9c-1.8-0.8-0.5-1.8-0.2-2.7c0.7-2.2,1.5-4.4-0.4-6.5c-0.2-0.3,0.1-0.5,0.1-0.8
			c0.3-1.9,0.8-3.8,0.9-5.7c0-2.1-0.1-4.2-0.4-6.4c-0.4-2.6,0.3-5.3,0.2-7.9c-0.2-3.4-0.5-6.8-1.2-10c-0.4-1.9-0.5-4.1-2.3-5.5
			c-0.3-0.2-0.2-0.5-0.2-0.8c-0.3-4.7-0.5-5.4-3.4-8.7c-0.8-0.9-1.8-1.5-3-1.6c-1.2,0-2.3,0.6-3.2,1.2c-0.6,0.4,0,1.7,0.3,2.6
			c-0.9,0.4-1.7,0.1-2.3-0.4c-3.1-2.3-7-2.1-10.4-3.2c-1.5-0.4-2.1-1.4-2.8-2.3c-0.7-1,0.9-0.9,1.1-1.6c0-0.2,0.3-0.3,0.4-0.6
			c0.2-0.5,0.9-0.9,0.4-1.6c-0.4-0.5-0.9-0.6-1.7-0.7c-2.3-0.2-4.5,0.1-6.8,0.3c-2.4,0.3-3.9,1.9-5.6,3.2c-0.3,0.2-0.6,0.7-0.3,1.1
			c0.3,0.5,0.8,0.3,1.2,0.1c1.7-0.7,3.6-1.1,5.4-1.1c0.8,0,1.7-1.3,2.1-0.3c0.3,0.8-1.3,1-2.1,1.4c-0.1,0.1-0.2,0-0.3,0.1
			c-0.8,0.1-0.8,0.7-0.7,1.3c0.2,0.9,0.9,1,1.6,1c1.9,0,3.7,0.1,5.6,0.2c0.4,0,1.3,0,1.2,0.7c-0.1,0.6-0.8,0.4-1.2,0.4
			c-0.8-0.1-1.6,0-2.4,0.1c-2.1,0.3-3.6,2.1-5.6,2.4c-2.6,0.5-4.8,1.5-6.4,3.8c-0.3,0.5-0.8,0.4-1.3,0.5c-0.8,0.2-1.6,0.4-2.1,1.1
			c-1.4,1.7-0.6,4.4-2.6,5.7c0,0,0.1,0.3,0.2,0.5c0.5,0.6,0.1,1.2-0.1,1.7c-1.4,3-3.3,5.8-5.9,7.9c-1.7,1.4-2.7,3.3-4.2,4.6
			c-1,0.9-1,2.3-2,3.2c-0.8,0.7-1.6,1.3-1.3,2.5c0.1,0.5-0.2,0.8-0.6,1c-0.6,0.4-0.6,0.9-0.2,1.3c0.5,0.5,0.9-0.1,1.1-0.4
			c0.9-0.8,2.2-1.1,2.5-2.7c0.2-1.2,1.9-1.3,2.5-2.3c1.2-2,3.2-3.5,4-5.8c0.2-0.6,0.7-1,1.3-1.4c1.4-1,2.2-2.7,3.5-3.8
			c1.2-1.1,1.5-2.8,2.8-3.8c0.4-0.3,1-1,1.5-0.4c0.4,0.5-0.1,1-0.6,1.3c-0.3,0.2-0.2,0.7-0.3,0.9c-0.6,0.9-0.4,2.6-2.1,2.6
			c-0.5,0-0.5,0.4-0.4,0.8c1.1,2.5-0.7,4.3-2,5.7c-1.5,1.6-2.1,4.3-4.8,4.8c-0.1,0-0.2,0.4-0.3,0.6c-0.8,0.8-1.8,2.2-2.6,2.1
			c-1.4-0.1-1.7,0.6-2.2,1.4c-0.4,0.6-0.7,1.4-1.6,1.4c-0.3,0-0.6,0.1-0.5,0.5c0.1,0.3,0.3,0.5,0.7,0.4c1.3-0.2,1.9,1.1,2.3,1.8
			c0.3,0.5-0.9,1.1-1.7,1.5c-0.4,0.2-0.6,0.7-1,0.9c-1.1,0.7-1.7,2.1-3,2.6c-1.8,0.7-3,2.3-4.4,3.6c-3,2.9-3.3,7.4-5.7,10.7
			c-0.9,1.3-1.2,3.2-1.8,4.8c-0.5,1.5-0.7,2.7-0.3,4.1c0.4,1.3,0.3,2.7-0.3,4c-0.3,0.6-0.6,1.2-0.7,2c-0.1,1.6,0.6,2.2,2.1,1.7
			c0.8-0.2,1.6-0.5,2.3-0.7c0.7-0.2,1.5,0,1.8,0.7c0.3,0.7-0.5,0.9-0.9,1.2c-0.4,0.3-0.9,0.6-1.3,0.8c-1.1,0.8-2.3,1.5-3.4,2.4
			c-0.9,0.7,0.9,1.2,0.6,1.9c-0.8,1.8,0.4,2.3,1.6,3c0.3,0.2,0.8,0.5,0.9,0.8c0.9,3.5,4.4,3.4,6.7,4.8c1.6,1,3.3,0.6,5.1,0.5
			c2.4-0.1,4.8,0.1,7.1,0.2c1.5,0,3,0,4.3,1.1c0.9,0.8,0.9,0.8,1.2-0.3c0-0.1,0.2-0.3,0.3-0.3c0.6-0.1,1.4-0.5,1.8,0.1
			c0.6,0.7-0.3,1-0.6,1.4c-0.3,0.6-1,0.8-1.6,1c-2.1,0.7-4.3,1-6.5,1.1c-1.7,0.1-3.4,0.4-4.8,1.8c-0.7,0.8-2,1.5-3,0.3
			c-2.6-3.2-6.6-2.7-9.5-1.4c-0.4,0.2-0.6,0.5-0.4,0.9c0.7,1.8,1.1,3.7,3.3,4.4c1.5,0.5,3,0.8,4.4,1.6c2.7,1.6,5-0.7,7.5-0.9
			c0.6-1.7,2.4-1.4,3.6-1.9c0.5-0.2,1.4-0.6,1.6,0.3c0.2,0.7-0.3,1.3-1.3,1.5c-1.5,0.3-2.8,0.8-3.8,2.3c-1.1,1.8-2.7,3.4-5.1,3.7
			c-0.4,0-0.6,0.3-0.4,0.8c0.3,0.5,0.4,1.1,0.3,1.7c-0.1,0.8,1,0.9,1,0.8c1.1-1,2.5-0.4,3.7-0.6c0.5-0.1,0.9-0.3,0.9-0.9
			c0-0.5-0.2-1.2,0.6-1.2c0.8,0.1,0.3,0.9,0.5,1.3c0.2,0.5,0.3,1,0.9,1.2c1.5,0.4,4.3-1.4,4.5-3c0.1-0.9,0.5-1.6,1.3-1.9
			c0.7-0.3,1.1-0.5,1-1.4c-0.1-0.8,0.6-1.1,1.4-0.9c1,0.2,0.3,0.9,0.2,1.3c-0.9,2.7-2,5.2-4.7,6.7c-1.1,0.6-2,1.7-2.9,2.7
			c-1.5,1.7-1.4,2.2,0.2,3.7c1.5,1.4,4.8,1.2,5.6-0.2c1.4-2.6,3-3.2,5.8-2.2c0.5,0.2,0.9,0.2,1.4,0c0.3-0.1,0.6-0.2,0.8,0.1
			c0.2,0.3,0,0.5-0.1,0.8c-0.6,1.1-1.8,1.1-2.9,1.4c-1,0.3-2.3,0.5-2.5,1.6c-0.4,2.1-1.3,4-1.9,6.1c-0.2,0.8-0.1,2.1,0.9,2.8
			c0.9,0.6,1.6,0,2.4-0.3c1.2-0.6,2-1.5,3.1-2.3c0.3-0.2,0.5-0.5,0.9-0.3c0.4,0.2,0.5,0.6,0.4,0.9c-0.6,1.9,0.9,2.2,2.1,2.7
			c0.5,0.2,1.1,0.2,1.7,0.3c0.5,0.1,0.9,0.2,0.9,0.8c0,0.5,0.2,1.1-0.4,1.4c-1.5,0.7-2,2.5-3.5,3.1c-0.4,0.2-0.4,3.1-0.1,3.2
			c0.9,0.4,3-0.9,3.1-1.9c0-0.5-0.1-0.9-0.1-1.4c0-0.5-0.2-1.1,0.5-1.1c0.7-0.1,0.6,0.5,0.7,1c0.1,0.9,0.2,1.8,0.3,2.7
			c0.8-0.1,0.9-0.5,0.9-0.9c0.1-1.5,0.6-2.2,2.2-1.7c0.8,0.3,1.6-0.1,2.4-0.3c3.7-1.1,7.1-3.5,11.3-3.3c1.3,0.1,1.5-0.8,0.9-1.9
			c-0.5-0.9-1.1-1.7-1.4-2.6c-1-3.2-2.3-6.3-5.2-8.3c-0.3-0.2-0.6-0.5-0.7-0.8c-0.8-2-1.9-3.8-3.3-5.5c-0.6-0.7-1.4-1.7,0.5-2.3
			c-1.4-0.2-2-0.5-2.5-1.7c-0.4-1.2-0.4-2.6-1.4-3.6c-0.7-0.6-1-1.7-2-1.8c-1.3-0.1-2.1-0.9-2.7-1.7c-0.5-0.7-0.8-0.7-1.4-0.2
			c-0.9,0.7-1.5,0.4-2.1-0.5c-0.9-1.4,0.2-2.4,0.2-3.7c0-0.4-0.2-0.9,0.4-1c0.5-0.1,1.1,0,1.5,0.4c0.3,0.3,0.5,0.7,0.7,1
			c0.5,0.6,1.2,0.5,1.8,0.3c0.7-0.3,0.3-0.9,0.2-1.4c-0.4-2.1-2.6-4-4.8-4.1c-0.6,0-0.9,0-0.9-0.8c0-1.7-1-2.3-2.6-1.7
			c-0.3,0.1-0.6,0.3-0.7-0.1c-0.4-1.9-1.7-1.2-2.8-0.9c-1.4,0.4-2.7-0.1-4.2-0.2c1-0.5,1.4-1.1,1.2-2.1c-0.2-1.2,0.3-2,1.6-2.3
			c1.4-0.4,2.7-1.1,4.1-1.7c-1.1-1.2-1.4-2.9-3-3.6c-0.6-0.3-0.5-1-0.1-1.6c0.4-0.7,0.2-1.3-0.5-1.7c-2-1.2-3.9-1.5-6.1-0.2
			c-2,1.2-4.2,1.7-6.4,2.2c-1.3,0.3-2.6-0.2-3.1-1.4c-0.4-0.9,0-2.2,0.7-3c2.3-2.3,4.9-3.9,8.2-4.7c2.1-0.5,4.4-0.8,6.6-1.7
			c-0.9-0.6-1.8-0.4-2.6-0.5c-2.4-0.1-4.9,0.3-7.3-0.5c-0.6-0.2-1-0.5-1.1-1c-0.2-0.7,0.6-0.6,0.9-0.8c0.5-0.3,1.2-0.5,1.4-1
			c1-2.1,3-2,4.8-2.5c1.9-0.5,2.7,0.1,4,2.2c0.1,0.1,0.3,0.2,0.5,0.2c1.7,0.1,3.1,0.9,4.6,1.4c0.8,0.2,1.5,0.6,1.9,1.5
			c0.5,0.9,1.8,0.6,2.8,0.3c1-0.3,0.8-1,0.6-1.7c-0.5-1.3-1.1-2.4-3-2c-1.8,0.4-1.8-1.5-2.6-2.4c-0.3-0.4-0.4-0.8,0.1-1.1
			c0.9-0.6,1.7-0.1,2.6,0.2c1.7,0.6,2.9,1.9,5,2c1,0,2.9,1,2.1,3.1c-0.2,0.5,0,1.2,0.8,1c1.5-0.4,3.2-0.8,3.9-2.4
			c0.9-1.9,1.6-3.8,3-5.6c1.6-2,2.9-4.3,4.4-6.4c0.4-0.6,1-1,1.3-1.9c0.4-1.6,0.1-3.2,0.5-4.7c0.2-0.7,1.8-3.4,2.3-3.9
			c1.2-1.3,3.2-2,3.1-4.3c0-0.5,0-1.1,0.3-1.6c1.4-2.8,3-5.5,3.2-8.7c0.1-0.8,0.3-1.3,1.2-1.4c0.5-0.1,1.2-0.2,1.2-1
			c0-1.2-1.1-1.4-1.8-1.9c-0.5-0.4-0.9-0.1-1.4,0.3c-0.7,0.6-0.6,1.3-0.9,2c-0.3,0.6-0.8,1-1,1.8c-0.5,1.6-0.9,3.6-1.8,4.8
			c-2.5,3.4-3.8,7.4-6.2,10.8c-1,1.4-2.5,2.7-2.1,4.9c0.1,0.5-0.5,0.8-1,0.8c-2,0-2.3,1.6-1.8,2.8c0.6,1.3-0.1,1.8-0.8,2.3
			c-1.1,0.8-1.7,1.9-2.4,2.9c-0.6,0.9-1.9,1-2.4,2.2c-0.5,1.3-1.7,1.3-2.8,0.5c-1.4-1-2.7-2.3-4.6-2.7c-0.7-0.2-1.7-0.2-2.1-0.7
			c-2.4-2.8-5.1-1.7-7.9-1c-1.9,0.5-3.8,0.7-5.7,0.6c-1.4-0.1-1.6-0.9-1.3-2c0.3-1.2,0.8-2.2,2.1-2.8c0.9-0.4,1.8-1,2.4-2
			c1.1-2,2.3-3.5,4.7-4.3c1.3-0.4,2.7-0.1,3.8-0.8c0.3-0.2,0.7-0.5,1.1-0.1c0.4,0.4,0,0.8-0.1,1.1c-0.5,1.4-1.6,2.6-1.8,4.1
			c-0.1,0.6-0.3,1,0.3,1.4c0.5,0.3,1.5,0.3,1.6,0c0.7-1.6,2-1,3.1-1.1c0.4,0,0.9-0.7,0.7-1c-0.2-0.3,0-0.6,0.2-0.8
			c0.3-0.5,0.4-1-0.2-1.3c-0.3-0.2-0.4-0.5-0.1-0.7c0.9-0.4,1.8-0.8,2.8-1c0.6-0.1,0.6,0.3,0.4,0.8c-0.4,0.9-0.2,1.7,0.2,2.6
			c0.3,0.7,0.6,1.2,1.3,1.2c0.9,0,0.8-0.8,0.8-1.5c0.1-1.1,0.5-1.7,1.7-1.1c0.9,0.5,1.9,0.8,2.5-0.1c0.7-1.1,0.9-2.6-0.2-3.4
			c-2-1.5,0-1.7,0.5-2.4c0.3-0.4,0.9,0.1,1.2-0.4c-0.7-0.9-0.7-0.9,0-1.5c2.7-2,4.5-4.5,4.1-8.1c-0.1-1.5,1.1-2.2,2.4-1.5
			c1,0.5,3.3-0.2,3.4-1.3c0.2-1.5,1.4-2.1,2.1-3c1.1-1.5,2.1-3.1,1.8-5.2c-0.3-2.5-1.1-4.7-3-6.5c-0.5-0.4-0.5-1,0-1.4
			c0.5-0.4,0.9,0.1,1.2,0.4c0.2,0.2,0.3,0.6,0.5,0.9c0.8,1.4,1.5,2.8,2.8,3.9c0.3,0.3,0.6,0.5,1.1,0.3c0.4-0.2,0.3-0.5,0.4-0.9
			c0.2-1.5-0.3-2.7-1.1-3.9c-0.3-0.4-0.4-0.8-0.5-1.3c-0.1-0.3,0-0.6,0.3-0.7c0.4-0.1,0.6,0.1,0.6,0.4c0.1,1,0.8,1.1,1.5,1.1
			c1.5,0,2.4,1.2,2.6,2.2c0.5,2.5,0.6,5.1,0.5,7.6c-0.1,2.2-0.7,4.3,0.7,6.3c0.5,0.7,0.4,1.6,0.2,2.5c-0.8-0.7,0-1.7-0.8-2.2
			c-0.5-0.4-1.1-0.3-1.7-0.2c-0.9,0.3-1,1.1-1,1.8c0,2.3,0.6,4.7-0.1,7c-0.2,0.6-0.5,1.4-0.1,2.1c0.8,1.3-0.6,1.9-0.8,2.8
			c-0.1,0.7,0.9,1.8,0.1,2.6c-0.9,0.9-0.4,1.7-0.2,2.6c0.2,1,0.9,1.3,1.9,1.2c1-0.2,0.8-0.9,0.7-1.7c-0.1-0.6-0.1-1.3,0.2-1.9
			c0.1-0.2,0.4-0.2,0.6,0c0.4,0.6,0.6,1.2,0.4,2c-0.1,0.2-0.2,0.5-0.2,0.7c0.3,2-1.7,3.5-1.1,5.6c0.1,0.2,0,0.6-0.2,0.6
			c-1.5,0.5-0.7,1.4-0.3,2.2c0.7,1.2,0.9,2.2,0,3.4c-0.3,0.4-0.4,1-0.1,1.5c0.3,0.5,0.1,0.8,0,1.4c-0.6,2.1-2.9,3.2-3,5.3
			c-0.1,1.6-1.9,3.2,0,4.8c0.4,0.3,0,0.6-0.2,0.9c-0.6,0.9-1.2,1.9-2,2.6c-0.6,0.5-1,1.5-0.5,2c0.5,0.6,1-0.3,1.5-0.6
			c1.8-1.2,3-3.2,5.4-3.6c0.8-0.2,1.8-0.1,2.8-0.5c-0.5-0.2-1.1-0.2-1.1-0.4c-0.2-0.5,0.4-0.7,0.7-0.8c1.1-0.6,2-1.8,2.2-2.5
			C386,308.9,386.7,308.2,388.4,308z M338.3,466c-1.7,0.1-1.8-0.6-1-1.5c0.7-0.8,0.5-1.9,0.2-2.4c-0.6-0.8-0.2-1.5-0.3-2.3
			c-0.3-2.6,1.2-5.2-0.1-7.8c-0.6-1.2-1.1-2.9-1.8-3.5c-2.4-1.9-5.1-3.5-8-4.1c-3.9-0.7-5-3.4-6.1-6.4c-0.4-1-0.7-1.9-1.8-2.2
			c-1.2-0.3-1.9,0.6-2.4,1.4c-2,2.7-4,5.4-7,7.1c-0.6,0.3-0.6,1-0.8,1.5c-0.8,3-1.7,5.9-4.9,7.3c-1.1,0.5-1.3,1.2-0.8,2.4
			c0.9,2.2,1.6,4.6,2.5,7.3c-1.3-1-1.8-0.4-2.1,0.5c0.6,0.3,1.1-0.1,1.6-0.2c0.5-0.1,0.9,0,0.9,0.5c0,1.1,1.1,1.8,1.1,2.8
			c0,1.4,2.2,2.1,1,3.8c2,1.1,2.3,3.2,3,5.1c1,2.8,3.3,4.9,3.9,7.9c0.1,0.4,0.5,0.6,0.7,0.9c1.4,1.8,3,3.6,4.1,5.6
			c1.2,2.3,2.9,4.1,4.5,6c0.9,1,2.1,1.7,3.2,2.6c0.9,0.8,1.8,0.6,2.7,0.2c1.1-0.4,1.4-1.5,2.3-2.1c1.5-1,2-2.2,1.8-4.1
			c-0.3-2.2,0-4.5,1.3-6.5c0.1-0.2,0.3-0.4,0.2-0.6c-0.5-1.9,0.4-3.7,0.4-5.6c0-0.9,0.7-1.3,1.2-1.9c0.7-0.8-1.1-0.7-1-1.9
			c0.2-2.2-0.4-4.4-0.3-6.6C336.5,468.3,336.5,466.7,338.3,466z M355.3,533.9c-2-0.6-4.4-2.1-5.7-3.4c-0.3-0.3-0.6-0.7-0.6-1.2
			c0-1.5-0.8-1.8-2.2-1.6c-1,0.2-1.9,0.2-2.5,1.2c-0.3,0.5-0.9,0.7-1.4,0.3c-0.5-0.5,0-0.8,0.3-1.1c0.5-0.4,0.5-0.8,0.2-1.2
			c-0.3-0.5-0.8-0.5-1.2-0.2c-0.9,0.5-1.9,0.8-2.1,1.9c-0.2,0.9-0.8,1.3-1.7,1.1c-0.6-0.1-1.2,0-1.7,0.3c-1.1,0.6-1.9,0.2-2.1-0.9
			c-0.2-0.9-0.7-1.3-1.5-1.5c-1-0.3-1.9-0.6-2.9-0.9c-2.3-0.8-4.1,0-5.9,1.4c-0.9,0.7-0.8,1.6-1.4,2.4c-1.3,1.5-2.9,2.8-3.4,4.8
			c-0.5,1.9-0.8,3.8,0,5.7c1.1,2.7,2.6,5,5.4,6.2c0.5,0.2,1,0.3,0.9,0.9c-0.2,0.6-0.9,0.6-1.2,0.3c-1.4-1.4-3.5-0.7-5.1-1.7
			c-0.5-0.3-0.9-0.1-1.3,0.3c-0.3,0.4,0.2,0.6,0.4,0.9c0.8,1.1,1.6,2.2,2.4,3.3c0.4,0.5,0.9,1,1.5,0.8c1.3-0.6,2.4,0.3,3.6,0.2
			c1.7,0,2.1,1.1,1.8,2.2c-0.6,1.9,0.7,1.5,1.4,1.3c1.6-0.3,1.8,0.4,1.8,1.7c0,0.5-0.3,0.9-0.6,1.3c-0.3,0.3-0.9,0.5-0.3,1.1
			c0.5,0.5,0.9,0.7,1.5,0.2c0.3-0.3,0.5-0.7,1-0.7c0.2,0,0.4,0.1,0.6,0.3c0,0-0.1,0.4-0.1,0.4c-1.4,0-1.4,1.5-2.2,2.2
			c-1.6,1.2-5.3,0.8-7.1-0.8c-1.1-1-2.1-2-3.8-1.1c-0.3,0.2-0.8,0.1-1-0.2c-0.5-0.8-1.3-1.3-2-1.8c-0.2-0.2-0.6-0.5-0.4-0.7
			c1.2-1,0-0.6-0.4-0.8c-0.3-0.1-0.5-0.3-0.7-0.5c-0.7-0.9-1.6-1-2.5-0.6c-0.5,0.2-1,0.5-0.8,1.3c0.2,1,0,2.1,1.5,2.4
			c1.2,0.3,2.9,3.2,2.9,4.4c0,1.3,0.4,2.3,2,2.7c1.8,0.5,3.4,1.7,5.4,0.9c0.1,0,0.3,0.1,0.5,0.2c2.5,1.4,5.1,1.5,7.9,1
			c0.9-0.2,1.9-0.2,2.8-0.3c0.5-0.1,1,0.1,1.1,0.6c0.6,2.4,2.2,3.2,4.6,2.9c0.9-0.1,1.8-0.1,1.7,1.3c0,0.7,0.5,0.9,1.2,0.5
			c1.2-0.5,2.1-1.7,3.1-2c1.5-0.5,2.1-1.5,2.7-2.6c0.9-1.7,0.7-1.7-1.2-1.8c-2.2,0-4.3,0.2-6.4,0.3c-0.3,0-0.6,0.1-0.8-0.3
			c-0.1-0.3,0-0.4,0.2-0.6c1.9-1.8,4-3.5,6.7-3.2c2.6,0.3,3.9-1.9,6-2.4c-1.6-0.6-3.2-0.9-4.5-2c-1.6-1.4-1.8-2.2-0.2-3.7
			c0.2-0.2,0.4-0.7,0.7-0.1c0.3,0.5,0.5,0.4,0.7,0c0.5-0.7,1.4-0.6,2-1c1.8-1,3.7-1.1,5.7-0.9c-0.2-0.7-1.1-0.8-0.6-1.6
			c0.8-1.2,0.5-1.7-0.9-1.7c-0.7,0-1.3,0-1.8-0.7c-1.1-1.5-1-2.9-0.2-4.4c0.8-1.3,2.1-1.7,3.6-1.7c3.1,0.1,3.7-0.3,4.1-3.3
			c0.1-0.5,0.1-1,0.7-1c0.5,0,0.6,0.4,0.7,0.8c0.2,0.5-0.1,1.6,0.9,1.2c0.7-0.2,1.8-0.4,1.4-1.8c-0.2-0.6,0-1.2,0.6-1.7
			c0.9-0.7,0.7-2.7-0.3-3c-3.1-0.8-6-2.1-9.3-2.2c-1.4,0-2.1,1.1-1.4,2.2c1,1.4,1.5,3.2,3.1,4.2c0.3,0.2,0.9,0.4,0.4,0.9
			c-0.3,0.3-0.7,0.2-1.1-0.2c-0.7-0.8-1.6-1.3-2.5-1.8C355.2,536.8,354.6,534.8,355.3,533.9z M409.3,303.9c-0.6-2-0.1-3.9-0.2-5.8
			c-0.1-1.6-0.2-3.2,1-4.5c0.3-0.3,0.4-0.9,0.1-1.3c-0.3-0.5-0.8-0.4-1.3-0.4c-1.8,0-2.7,1.5-3.6,2.7c-0.7,0.9-1.8,1.9-1.8,3.1
			c0.1,1.7-1,3.3-0.7,4.9c0.2,1.5-1.4,2.6-0.4,4.1c0.1,0.1-0.3,0.7-0.7,0.6c-1.5-0.4-1.8,0.9-2.3,1.7c-0.3,0.4-0.5,0.8-0.9,1
			c-1.7,0.7-2,1.5-1.2,3.2c0.3,0.7,1.5,1.5-0.2,2c-0.4,0.1,0,0.4,0.3,0.5c0.3,0.1,0.6,0.3,0.3,0.6c-1.3,1-0.8,2.3-0.9,3.7
			c-0.1,3-0.6,6-0.9,9.1c-0.2,1.5,1.9,4.5,3.3,4.9c0.9,0.2,1.6-0.3,1.4-1.2c-0.6-3.2,0.6-6.3,0.3-9.4c-0.1-0.5,0.1-1.3,0.6-1.3
			c0.6,0,1,0.6,0.9,1.3c-0.2,1.7-0.4,3.5-0.9,5.2c-0.5,1.5-0.2,2.9,0.5,4.1c0.6,1.1,1.7,1.7,2.6,0.4c1-1.4,1.5-0.8,2.2,0.2
			c0.1,0.2,0.5,0.3,0.7,0.5c0.6,0.6,1,1.2,0.3,2.1c-1.5,2.1-1.2,3.3,1,4.6c1,0.6,1.8,1.1,1.9,2.4c0.1,1,0.5,0.8,1.1,0.2
			c1-1,3.5-6.3,3.8-8c0.7-3,1.3-6,1.7-9.1c0.1-0.6,0.3-1.3-0.4-1.5c-0.8-0.3-1.3,0.3-1.4,0.9c-0.2,0.7-1,1-0.8,1.9
			c0.1,0.3-0.2,0.6-0.5,0.5c-0.4-0.1-0.1-0.5-0.2-0.7c-0.6-1.3-0.1-2.2,1.3-2.8c-0.8-0.5-1.6,0-2.2-0.3c0.7-2.4,0.7-2.4,2.2-4
			c0.1-0.1,0.2-0.5,0.1-0.6c-0.3-0.7,0.2-0.9,0.7-1.2c1-0.6,1.8-1.5,2.6-2.3c0.3-0.3,0.5-1.2,1.1-0.7c0.4,0.4,0.4,1-0.1,1.7
			c-1.2,1.7-0.2,4.4,1.4,4.7c-0.9,2.2-3,3.9-3.1,6.7c0,0.8,0.2,1.5,0.4,2.2c0.3,1.2,1.3,2.5-0.4,3.5c-0.1,0.1-0.1,0.4-0.1,0.4
			c1.6,0.7,0.2,1.3-0.1,1.9c-0.5,1.1-0.7,2.2-0.5,3.4c0.4,1.8,1.7,2.3,3.1,1.2c1.9-1.5,2.6-4.1,1.8-6.7c-0.3-1-0.4-2.1,0.4-3.2
			c1.4-1.7,2.2-3.7,2.1-6.1c-0.1-1.4-0.3-2.8-0.1-4.1c0.4-2.5,0.6-5,0.8-7.6c0.1-1.7,0.3-3.4,0.5-5.1c0.2-1.5-0.4-3.3,1.1-4.5
			c0,0-0.1-0.2-0.1-0.2c-1.4-0.7-0.5-1.9-0.5-2.8c0-1.4,0.7-2.8,0.2-4.1c-0.9-2.5-1.7-4.9-1.6-7.6c0.1-1.9,0.5-3.8,0.2-5.7
			c-0.4-2.6-1.7-5-1.8-7.6c0-0.5-0.1-1.7-1.3-1.8c-0.7-0.1-1.4,0-1.8,0.5c-1,1.3-2,2.6-2.8,4.1c-0.6,1-0.7,1.9,0.9,2.3
			c1.9,0.4,2,1,1.4,2.6c-1.2-1.5-2.4-2-3.7-1.5c-1.5,0.5-3.3,3-2.9,4.9c0.2,1.2-0.3,1.5-1.2,1.8c1,0.5,1.3,1.4,1.5,2.3
			c0.1,0.3-0.3,0.5,0.3,0.7c2.3,0.6,5.6-1.7,5.8-4.1c0.1-1.1,0.3-2.2,0.4-3.2c0.4,0.9,0.3,1.8,0.3,2.7c0.1,1.9,0.4,3.8,0,5.6
			c-0.2,1-0.6,1.6-1.5,0.4c-0.3-0.4-0.5-0.8-1.1-0.8c-1.6,0-3.2,0.3-4.6,1c-0.5,0.2-1.2,0.6-1.1,1.4c0.4,2.2-0.6,4.4,0.1,6.6
			c0.1,0.4,0.1,0.8-0.4,0.7C410.1,301.3,409.7,302.6,409.3,303.9z M352.5,505.9c-0.7-1.2-0.8-2.2,0.2-3c2.4-1.8,5.5-2.2,8.1-3.5
			c1.4-0.7,3.1-1.2,4.7-1.7c0.8-0.2,1.1-0.9,1-1.7c-0.1-0.8-0.8-0.8-1.4-0.7c-2.3,0.4-4.7-0.4-7,0c-1.2,0.2-1.5-0.6-1-1.2
			c0.9-1.1,2.2-2,3.3-3c0.4,0.8-0.4,2,0.8,2.1c1.1,0.1,1.1-1,1.2-1.8c0.1-0.6,0.2-1.2,0.4-1.7c0.3-0.9,0.9-0.9,1.5-0.4
			c1.4,1.3,1.6,1.3,2.2-0.5c0.3-1,0.6-1.9,1.7-2.4c0.8-0.4,1.2-4.5,0.6-5.1c-0.1-0.2-0.4-0.4-0.6-0.3c-1.4,0.2-2.3-1-3.5-1.4
			c-0.3-0.1-0.6-0.2-0.6-0.6c0-0.5,0.4-0.6,0.7-0.6c1.1,0,1.2-0.7,1.6-1.6c0.5-1.3-0.3-2.9,0.8-3.8c2.5-1.9,3-4.5,3.5-7.3
			c0.4-2.2,0.1-2.9-1.9-3.8c-0.6-0.3-1.6-0.4-1.5-1.2c0.1-2.2-1.1-2-2.6-1.6c-0.5,0.1-0.9-0.1-1.4,0c-1.5,0.2-3.2-0.8-4.4,0.9
			c-0.2,0.3-0.4,0.2-0.5-0.1c-1-1.3-2-0.8-3,0c-0.7,0.5-1.1,0-1.5-0.4c-0.4-0.3-0.6-0.7-0.2-1c1-0.7,0.5-1.7,0.5-2.8
			c-0.9,0.9-2-0.4-2.8,0.7c-0.8,1.1-2,1.5-3.2,2c-3,1.4-5.5,3.3-6.5,6.8c-0.2,0.7-0.8,1.1-1.6,1.2c-0.5,0.1-1.4-0.3-1.3,0.7
			c0.1,1,0.9,1,1.6,0.8c1.1-0.3,1.7,0.3,1.7,1.2c0,0.8,0.6,0.9,0.9,1.4c0.3,0.7,0.8,1,0.6,2.1c-0.2,0.9-0.5,2.7,1.5,3.2
			c0.4,0.1,1,1.1-0.1,1.6c-0.2,0.1-0.6,0-0.5,0.3c1,1.8-0.7,1.5-1.5,1.8c-0.8,0.3-1.4,0.8-1.9,1.7c-1,1.9-2.2,3.8-3.4,5.6
			c-0.4,0.6-1.1,0.7-0.4,1.5c0.5,0.5,0,1.5,0.8,2c2.1,1.2,2.2,1.6,1,3.6c0.6,0.5,1.2,0.4,1.8,0c0.5-0.3,1-0.5,1.3,0.2
			c0.2,0.5,0.6,1,0,1.6c-0.8,0.8-1.5,1.8-2.5,2.3c-1.3,0.6-1.3,1.9-1.4,2.9c-0.1,0.9,0.5,2.1,1.6,2.1c1,0,2.2,0.1,3.2-0.6
			c0.4-0.2,1.1-0.7,1.4-0.1c0.3,0.5,0.6,1.1,0.2,1.8c-0.3,0.5-0.6,1-1.1,1.4c-0.6,0.4-0.6,1.1-0.2,1.7c0.4,0.7,0.9,0.6,1.5,0.5
			c1.6-0.3,2.7-1.3,3.8-2.3c0.4-0.3,0.7-0.8,1.1-0.3C350.5,506,351.4,505.7,352.5,505.9z M400.5,175.4c0.1,1.1,0.4,1.8,1.7,1.8
			c0.8,0,1.3,0.7,1.2,1.2c-0.1,0.6-0.3,1.3-1.4,1.5c-3.3,0.6-6.1,2.6-9.4,3.3c-0.4,0.1-0.8,0.3-0.7,0.7c0.4,2.1-1.1,2-2.4,2.3
			c-0.7,0.2-1.4,0.5-2.1,0.9c-1,0.5,0.3,1.1,0.1,1.7c-0.1,0.1,0.8,0.2,0.8,0c0-1.7,1.4-0.9,2.2-1.4c0.3-0.2,0.6-0.2,0.8,0.1
			c0.2,0.3,0.2,0.7-0.1,1c-0.3,0.3-0.9,0.3-0.5,0.9c0.3,0.5,0.8,0.3,1.3,0.3c1.4,0,2.7-0.6,4.4-0.2c-0.8,1.1-1.8,1.1-2.9,1.1
			c-0.9,0.1-2.2,0.2-2.3,1.2c-0.1,1.1,1.2,0.8,2,0.8c0.4,0,0.8,0.1,0.8,0.5c0,0.4-0.3,0.7-0.7,0.7c-0.7,0.1-1.4,0.1-2.1,0.1
			c-0.4,0-0.8,0-0.9,0.4c-0.1,0.5,0.3,0.7,0.6,0.9c0.6,0.4,1.3,0,1.9,0c1.2,0,2.8-0.8,3.4,0c1.2,1.7,2.7,1.3,4.1,1
			c2.9-0.6,5.7-1.4,8.5-2.2c1.5-0.4,2.6-1.2,3.2-2.7c0.8-2.2,2.5-3.8,4.1-5.2c1.7-1.5,1.1-3.5,2-5.1c0.1-0.1-0.1-0.4-0.3-0.6
			c-1.2-2.1-2.4-2.4-4.5-1.1c-0.7,0.4-1.1,0.6-1.7-0.2c-0.5-0.7-1.4-0.8-2.2-0.5c-2.6,0.9-3.5,0.5-4.6-1.8c-0.4-0.9-0.4-1.5,0.9-1.7
			c-0.3-0.2-0.4-0.2-0.6-0.3c-0.4-0.2-0.9-0.4-0.9-1c0-0.9,0.6-0.4,1-0.5c0.7-0.3,0.7-0.8,0.6-1.4c-0.6-2-0.2-4.2-1-6.3
			c-0.2-0.4,0.1-1,0.5-1.2c0.5-0.3,0.7,0.3,0.9,0.6c0.6,0.7,1.1,1.1,1.5-0.2c0.1-0.3,0.5-0.5,0.7-0.8c0.7-1.6,3.2-1.2,3.7-3.1
			c0.1-0.2,0.9-0.2,0.9,0.1c-0.2,1,1,1.3,0.9,2.1c0,0.5,0.1,0.9,0.7,0.7c0.5-0.1,1.1-0.5,0.8-1.2c-1.4-3.1-1.2-6.8-3.2-9.8
			c-0.4-0.6-0.6-1.2-0.2-1.9c0.9,0.4,0.3,1.7,1.4,1.9c0.9,0.1,1.8,0.5,2.1,1.6c0.1,0.4,0.6,0.5,0.9,0.3c0.4-0.3,0.3-0.8,0-1
			c-0.9-0.5-0.7-1.4-1.2-2.1c-0.4-0.6,0-1.6-0.7-2.1c-0.7-0.5-1.1-1.1-1.2-1.9c-0.1-0.6-0.4-0.8-0.9-0.8c-0.5-0.1-1,0.1-1.1,0.6
			c-0.2,1.4-0.9,1.3-2,0.9c-0.6-0.2-1.3-0.2-1.9-0.2c-0.9,0-1.6-0.1-2.1-1.1c-0.6-1.3-1.8-1.7-3.1-1.2c-1.9,0.8-4.1,0.9-5.5,2.8
			c-0.3,0.4-1,0.6-1.6,0.6c-2.3,0.1-4.6,0.5-6.8,1.5c-0.5,0.2-0.8,0.1-1.3-0.2c-1.8-1.1-4.5-1-6,0.2c-0.1,0.1-0.3,0.3-0.3,0.4
			c0.6,1.5-0.3,2.8-0.3,4.2c0,0.7,0.1,1.4,0.6,1.8c1.4,1,1.6,1.3,1.2,2.9c-0.2,0.6-0.4,1.8,0,1.8c2.2,0.1,3,1.5,3.6,3.3
			c2.1-0.2,1.6,1.2,1.6,2.4c0,1,0.8,1.7,1.6,2.2c0.3,0.2,0.8,0.3,0.9,0.7c0.4,1.4,1,1.2,2,0.6c1.1-0.7,2.1,0,2,1.4
			c-0.1,1.1,0.4,1.9,1.2,2.5c0.3,0.3,0.7,0.4,0.7-0.1c0-1.7,1.3-1.1,2-1c1,0,0.7,1,0.7,1.7c0.3,3.4,0.3,3.4,3.5,3.6
			C399.5,178,400.5,176.5,400.5,175.4z M358.7,403.3c0.6,1.6,0.8,3,1.5,3.9c0.9,1.2,1,2.4,0.8,3.6c-0.1,1.3,0.3,2,1.3,2.3
			c1.1,0.2,2.2-0.2,2.4-1.4c0.1-1.2,0.8-0.9,1.4-0.9c0.8,0,0.9,0.6,0.8,1.3c0,0.3-0.3,0.6-0.1,1c1.1,1.5,4.2,1.5,4.9-0.3
			c0.7-1.6,1.7-2.5,3.1-3.3c0.9-0.5,1.4-1.4,0.6-2.3c-0.6-0.7-0.3-1.3,0-1.7c0.5-0.7,0.7-1.5,0.6-2.3c-0.1-2.6,2.5-4.3,4.3-4.1
			c0.7,0.1,1,0.3,1.5,0.9c1.1,1.3,2.4,2.5,4.3,2.6c0.5,0,0.9-0.2,1.1-0.7c0.3-0.5,0-1-0.4-1.2c-0.8-0.3-1-0.9-1.3-1.5
			c-0.8-1.6-2.1-2.4-3.9-2.6c-0.5-0.1-1.3-0.1-1.3-0.6c-0.1-1.3-1.2-1.5-2-1.7c-2.3-0.7-4-2.2-5.7-3.7c-0.5-0.4-1-1.2-1-1.8
			c0-1.8-1.3-2.3-2.5-3c-0.5-0.3-1.1-0.5-1-1.2c0.2-1.7-0.8-1.4-1.9-1.3c-1.2,0.2-0.6-2-2-1.7c-0.1,0-0.2,0.1-0.3,0.2
			c-0.5,0.7-1.6,1.1-1.7,2.2c0,0.4,0,0.7-0.5,0.7c-2.6-0.2-4.5,0.6-5.5,3.2c0,0.1-0.2,0.2-0.3,0.2c-1.8,1.2-1.8,3.3-2.4,5
			c-0.2,0.5,0,1,0.6,1c1.2,0.1,1,0.8,0.8,1.6c-0.2,0.5-0.4,1.2-0.2,1.7c0.5,1.2,0,2.1-0.7,2.9c-0.6,0.7-1.3,1.6-0.7,2.3
			c1.2,1.4,0.7,2.1-0.5,2.9c-0.3,0.2-0.7,0.4-0.6,0.8c0.1,0.4,0.5,0.5,0.8,0.5c1.7-0.2,1.9,1,2.1,2.2c0.1,0.7-0.2,1.4-0.2,2.1
			c0,0.8,0.3,1.3,1.1,1.6c0.5,0.2,1,0.8,1.6,0.4c1.4-0.9,2.3-4.6,1.4-5.9C358.6,406,358.6,404.9,358.7,403.3z M402.8,372
			c0.7,1.3,0.5,2.6,0,3.8c-1.3,2.7-0.1,5.9-1.5,8.6c0,0.1,0.1,0.2,0.1,0.3c1,2.5,0.7,5.1,0.3,7.6c-0.2,1.2-0.8,1.1-1.6,0.8
			c-0.6-0.2-0.8-0.8-1.1-1.3c-0.2-0.3-0.2-0.7-0.7-0.6c-0.5,0.1-0.7,0.4-0.7,0.9c0.1,0.7-0.3,1.3-0.8,1.7c-1.4,1.1-2.2,2.7-3.5,3.9
			c-0.4,0.4-0.7,0.7-1.3,0.8c-0.7,0.1-1.9-0.3-1.8,0.8c0,1.3-0.1,3,1.1,3.6c1.7,0.9,3.8,1,5.8,0.4c1.5-0.5,1.9-1.4,1.5-2.9
			c-0.3-1.1,1.1-2.4,2.6-2.4c1.2,0,1.3,1.2,1.2,2.2c-0.6,3.5-0.6,4,3.8,3.7c0.2,0,0.3,0,0.5-0.1c1-0.1,1.6-0.2,2.1-1.4
			c1.4-3.1,1.8-3.1,4.6-2.2c1.1,0.4,1,0.8,0.6,1.7c-1.1,2-1.1,2,1.2,2.3c0.3,0,0.6,0.1,0.9,0.1c2.1,0.1,2.9-0.9,2.8-2.9
			c0-0.7-0.5-1.1-0.8-1.7c-0.3-0.6-1-1.4-0.6-1.9c1-1.1,0-1.8-0.3-2.6c-0.3-0.6-0.7-1.2-0.7-2c0.1-2.1-1-3.9-1.4-6
			c0.2-0.3,0.9,0.4,1.1-0.4c-0.3-0.3-1.2,0.1-1.1-0.7c0.1-0.6,0.7-0.4,1.2-0.5c0.5-0.1,1.4-0.4,0.9-1.1c-0.8-0.9-0.9-2.1-1.5-3.1
			c-1.4-2.3-0.9-3.5,1.6-3.8c0.2,0,0.5-0.1,0.4-0.6c-1.4,0.4-1.1-0.6-1.1-1.4c-0.1-0.7,0.5-1.6-0.2-2c-1.7-0.8-1-2.2-0.7-3.1
			c0.3-1,0.3-2.1,0.8-3c0.5-0.9,0.2-1.8-1.1-2.1c-0.8-0.2-1.5-0.6-2.2-1c-1-0.7-2.4-0.6-3.5,0.2c-0.9,0.7-1.1,1.6-0.4,2.6
			c0.4,0.7,0.2,1.4-0.1,2c-0.4,0.8-0.9,1.7-0.7,2.5c0.2,1.3-0.5,2-1,2.9c-0.5-0.5-0.3-0.8-0.3-1.2c0.1-1-0.1-2-0.7-2.8
			c-0.3-0.4-1.3-1-1.4,0.1C404.6,371.9,403.9,372.1,402.8,372z M422.7,400.6c1.4,0.8,2.2,1.3,2.8-0.5c0.3-0.9,0.4-2.6,1.6-2.6
			c0.9,0,0.3,1.6,0.7,2.4c0.6,1.3,0.8,2.8-0.7,3.8c1.1,1.2,2.5,1.5,3.9,1.6c0.7,0.1,1.2,0.3,1.5,1c0.4,0.8,0.8,2,1.9,1.1
			c1-0.9,2,0.3,2.7-0.5c0.1-0.1,0.2-0.4,0.2-0.6c-0.6-1.7,0.3-1.8,1.6-1.6c1.7,0.2,2.1-0.4,1.8-2c-0.1-0.3-0.3-0.5-0.1-0.8
			c1-2,0.2-3.8-0.5-5.7c-0.7-2-1.4-2.3-3.3-1.3c0.2,0.2,0.6,0.4,0.6,0.5c-0.2,1.5-0.4,3-0.8,4.5c-0.1,0.5-0.7,0.6-1,0.2
			c-0.6-0.9-1.5-0.8-2.3-1.1c-0.6-0.2-0.9-0.6-0.7-1.2c0.4-1.2-0.1-2.2-0.4-3.3c-0.4-2.1-0.2-4.2-0.3-6.3c0-0.7,0.3-0.9,0.8-0.9
			c0.7,0,0.6,0.5,0.4,1c-0.2,0.4-0.1,0.7,0.1,1.1c0.7,1.4,1.1,2.9,0.4,4.5c-0.3,0.6,0.2,1,0.7,1.2c0.5,0.2,1.2,0.4,1.4-0.2
			c0.4-1,0.3-2.1,0.4-3.1c0.2-2-0.9-4.1,0.2-6.2c0.1-0.2,0.1-0.5-0.1-0.6c-1.2-0.5-1.2-1.7-1.4-2.7c-0.3-1.2-1.1-1.6-2-1.4
			c-1.2,0.2-2,0.1-1.9-1.4c0-0.4-0.2-0.9-0.7-0.8c-0.5,0-0.9,0.3-1,0.9c-0.1,0.5,0.4,1.3-0.6,1.3c-0.8,0-1-0.7-1.2-1.3
			c-0.2-0.7-0.4-1.3-0.6-2c-0.4-1.7-0.2-3.5-1.2-5c-0.8-1.3,0.5-2.5,0.1-3.8c-0.1-0.3,0.7,0.1,0.8-0.4c-1.2-0.1-2-0.9-2.4-1.9
			c-0.5-1.2-1.2-1.4-2.3-1c0.8,0.6,0.8,1.2,0.4,2c-1.1,2.1-0.7,4.3-0.9,6.5c0,0.5-0.1,0.9,0.5,1.2c0.3,0.1,0.8,0.3,0.4,0.7
			c-0.3,0.3-0.7,0.3-1,0c-0.6-0.6-1.2-0.9-1.8-0.3c-0.8,0.8,0.2,1.4,0.3,2c0.2,0.6,0.7,0.8,1.3,1c1.1,0.3,1.3,1.9,0.3,2.4
			c-1.1,0.5-0.9,1-0.3,1.7c1.2,1.3,1,2.3-0.6,3.2c0.9,0.8,1.5,1.7-0.3,2.6c1.5,0.2,2.6,0.8,1.9,2.1c-0.7,1.3-0.4,2.4,0,3.6
			c0.4,1.3,1,2.5,1.6,3.7C424.1,399,424.8,400.1,422.7,400.6z M332.8,522.8c1.5,0.3,2.4,1.6,3.8,2.2c2.9,1.3,5.3,1.5,7.8-0.2
			c0.3-0.2,0.8-0.3,1,0c0.7,1.3,1.9,1.1,3,1.4c1.4,0.3,3.7-0.5,4.3-1.7c0.8-1.7-0.5-2.3-1.6-2.9c-0.3-0.2-0.5-0.3-0.4-0.7
			c0.1-0.5,0.5-0.5,0.8-0.5c0.5,0,0.9,0.1,1.4,0.3c1.2,0.5,2.2,0.4,2.9-0.8c0.3-0.5,0.5-1.1,1.1-1c1.5,0.5,2.6-0.6,3.9-0.9
			c0.9-0.3,1.5-0.9,1-2c-0.6-1.1,0.2-1.2,1-1.1c0.6,0.1,1.2,0.2,1.6,0.7c1,1.5,2.3,1.1,3.6,0.6c1.3-0.5,1.8-2.2,0.8-3
			c-0.7-0.6-1-1.3-1.5-2c-0.9-1.2-0.1-1.4,0.7-1.6c0.4-0.1,0.8,0,1.2-0.1c1.1-0.1,1.5-0.7,1.4-1.8c-0.1-0.9,0-1.8-1.4-1.7
			c-0.8,0-1.3-0.2-1.7-1.2c-0.4-1.2-1.6-1.5-2.8-1c-1.6,0.6-2.8,1.8-3.8,3.1c-0.2,0.2-0.3,0.5-0.7,0.4c-0.3-0.1-0.4-0.3-0.3-0.5
			c0.2-1.3-0.5-1.1-1.4-1.1c-0.8,0.1-1.5,0.4-2.2,0.7c-2.2,1-4.7,1.1-6.7,2.7c-1.5,1.2-3.4,1.3-5.4,0.8c-2.3-0.5-4.2,0.3-6.1,1.6
			c-0.6,0.4-0.6,0.8-0.3,1.3c1.1,1.9,2.4,3.7,5,3c0.6-0.1,1.2-0.1,1.7-0.2c0.6-0.1,1.1-0.2,0.9,0.7c-0.1,0.4,0.2,0.7,0.6,0.5
			c0.2-0.1,0.6-0.6,0.5-0.6c-1.1-1.5,0.5-1.2,1-1.6c1.2-0.7,2.7-1,3.7-2.2c0.5-0.6,1.1-0.7,1.6,0c0.5,0.6,0.7,1.1,0,1.8
			c-0.3,0.3-0.7,0.6-1,0.9c-1.1,1.1-3.1,1.4-3.2,3.4c0,0.3-0.4,0.7-0.7,0.8c-2.3,0.5-4.3,1.8-6.5,2.4c-1.3,0.3-2.6,0.4-3.9,0
			C335.9,521.2,334.7,523.7,332.8,522.8z M410,261.9c0.4-0.2,0.8-0.6,0.3-0.9c-1.1-0.8-0.8-1.9-1-2.9c-0.3-1.1,0.2-1.8,1.5-1.9
			c0.5,0,0.9,0,1.4-0.1c1.2-0.2,1.6-1.3,0.7-2.2c-2.8-2.7-4.2-6.5-7.3-9c-1.3-1-1.4-2.8-2.8-3.7c-0.5-0.3-1.4-0.7-1.5-1.1
			c-0.5-3-3.5-3.7-5.2-5.5c-1.8-2-4.2-3.8-7-4.7c-1.6-0.5-3-1.5-4.7-1.8c-0.4-0.1-0.7-0.4-1.1,0c-0.9,0.9-1.6,3.5-0.9,4.6
			c0.5,0.8,0.9,1.6,1.4,2.3c1,1.7,2.6,2.5,4,3.6c1.3,1,1.2,2.9,2.9,3.5c0.8,0.3,1,1.1,1.3,1.8c1.5,3,1.5,3,4.8,2.7
			c0.6-0.1,1.3-0.1,1.4,0.6c0.2,1.9,1.8,3.1,2.5,4.7c1.1,2.2,2,4.4,2.9,6.6c0.6,1.3,1.2,1.7,2.4,1.6c1.2,0,2.8-0.6,3.4,1.2
			C409.6,261.8,409.8,261.8,410,261.9z M434.3,261.3c-0.7,0.3-1.6-0.9-2.1,0.3c-0.2,0.5,0.5,1.3-0.4,1.5c-0.7,0.1-0.7-1-1.3-1.3
			c-0.4-0.2-0.2-0.6-0.3-0.9c-0.2-0.5-0.8-0.5-1-0.2c-0.3,0.7-1.5,0.2-1.5,1.1c0,0.4,0.3,1.2,1,0.9c1-0.4,0.8,0.1,0.8,0.7
			c0,1.7,1.1,2.5,2.4,1.8c0.9-0.5,1.1-0.2,1.2,0.7c0.1,0.7,0.3,1.4,0.2,2.1c-0.4,1.9-0.9,3.8-0.5,5.8c0.1,0.7,1.2,1.7-0.1,2.5
			c0.4,0.3,0.4,1,1,1.1c0.4,0,0.9-0.2,0.8-0.5c-0.3-1.1,0.8-1.4,1.1-2.2c0.2-0.7,1.1-1.7-0.6-1.8c-0.5-0.1-0.7-0.6-0.5-0.9
			c0.4-0.6,0.2-1.2,0.1-1.9c0-0.4-0.1-0.9,0.4-1c0.4-0.1,0.8,0.1,1.1,0.4c0.7,0.8,0.2,1.4-0.5,1.9c0.5,0.2,1.3-0.2,1.2,0.4
			c-0.1,1.4,1.5,2.2,1.3,3.5c-0.1,0.6,0.1,1.1,0.2,1.7c0.6,2.7,1.7,5.3,0.3,8.2c-0.8,1.6,0.7,3,1.9,3.9c1.4,1.1,2.7,0.2,3.5-0.9
			c0.6-0.8,2.2-0.7,2-2.1c-0.1-0.9,0.4-1.1,0.9-1.5c0.9-0.6,1.9-1.1,2.9-1.6c0.6-0.3,1.2-0.9,1-1.5c-0.6-2.1-0.5-4.5-1.8-6.4
			c-1.5-2.1-2.8-4.4-4.1-6.5c-2.1-3.3-4.9-5.8-7.3-8.7c-0.4-0.4-1.1-0.6-1.3-1.1c-1.4-2.8-3.9-4.6-6.1-6.7c-0.4-0.4-0.9-0.7-1.4-0.3
			c-0.4,0.4-0.4,0.9-0.1,1.3c0.8,1.3,0.8,3.1,2,4.2c0.7,0.6,0.2,1.1,0,1.7C432.4,258.2,433.6,259.1,434.3,261.3z M322.2,385.2
			c0.8,0.9,0.5,1.4-0.3,2.2c-1,0.9-2.3,1.8-2.8,3.3c-0.4,1-1.5,1.5-2.4,1.9c-0.7,0.3-1.1-0.5-1.1-0.8c-0.2-1.2,0.4-2.4,1.1-3.2
			c1.4-1.9,2.6-3.9,3.9-5.8c1.7-2.3,3.4-4.6,5-6.9c0.6-0.9,1.3-1.6,1.4-2.8c0-0.5,0.8-0.9,0.2-1.4c-0.5-0.4-1.2-0.6-1.8-0.3
			c-1,0.4-2,0.9-2.5,2.1c-0.2,0.4-0.4,0.9-0.8,1.2c-2,1.6-3.1,4-4.8,6c-0.5,0.6-1.9,1-1.2,2.3c0,0.1-0.2,0.4-0.4,0.5
			c-1.4,0.6-1.9,2-2.6,3.1c-0.6,1-1.5,1.7-2.4,1.2c-0.9-0.4-1-1.5-0.4-2.5c1.1-2,2.1-4,3.4-5.9c1.7-2.5,3.8-4.6,5.4-7.1
			c1.5-2.3,3.3-4.3,4.2-7c0.2-0.5,0.1-0.9-0.2-1.3c-0.4-0.5-1.1-0.4-1.4-0.1c-0.8,0.6-1.6,1.2-2.2,2.1c-1.5,2.3-3.2,4.3-4.9,6.5
			c-0.6,0.7-1.9,1-1.4,2.4c0.1,0.3-0.3,0.6-0.7,0.7c-1.1,0.3-1.7,1.2-2,2.1c-0.4,1.2-1.2,1.9-1.9,2.8c-0.8,1-1.5,1.4-2.7,0.5
			c-1-0.7-1.6-0.3-1.4,0.8c0.3,2.9,1.1,5.6,3.7,7.3c0.5,0.4,1.1,0.6,0.9,1.3c-0.3,1-0.3,1,0.9,1c0.4,0,0.6,0.2,0.9,0.4
			c1.7,1.1,3.4,2.1,5,3.2c2.5,1.7,5.8,2.4,9.1,2c0.8-0.1,1.4-0.5,1.6-1.5c0.2-0.9,0.5-2,2.1-1.7c-1.5-1.5-1.8-1.5-2.9-0.7
			c-0.6,0.5,0.3,0.8-0.2,1.3c-0.9,0.8-1.8,1-2.9,0.6c-0.8-0.3-0.8-2.3-0.1-3.2c1.2-1.4,2.3-2.9,3.5-4.3c1.4-1.6,2.5-3.3,3.2-5.2
			c0.5-1.3,2-2.4,1.5-4.1c-0.2-0.6-0.4-1.1-1.1-0.6c-2.3,1.6-3.8,3.9-5.3,6.1C323.7,384.4,323.3,385,322.2,385.2z M392.5,206
			c-0.1-1.1-0.1-2.2-0.9-2.4c-1.1-0.2-1.2,1-1.4,1.7c-0.3,1.2-1.1,1.3-1.9,1c-0.6-0.2-1-0.2-1.5,0c-1.4,0.5-2.9-0.9-4.2,0.2
			c0,0-0.3-0.2-0.3-0.3c-0.2-1.1-1-1.1-1.5-0.6c-0.6,0.7-1.7,1.8-1,2.7c1,1.1,2.4,1.9,3.4,3c1.2,1.2,2.8,1.8,4.3,2.5
			c2.5,1.2,4.4,3.6,7.2,4.3c1.8,0.5,2.9,2.1,4.6,2.7c1,0.3,2.4,0,2.7,1.6c0.1,0.4,1.4,0.2,1.4-0.3c0.1-0.8,0.7-1.6,0.5-2.5
			c-0.5-1.9-1-3.8-1.1-5.7c0-1.2-0.4-2-1.8-1.1c-0.9,0.6-1.4-0.2-1.5-1c0-0.3,0.5-0.6,0.8-0.8c0.7-0.5,0.6-1.1,0.3-1.6
			c-0.4-0.7-0.7,0-1.1,0.2c-0.9,0.5-0.9-0.3-0.7-0.8c0.8-1.9-0.7-1.9-1.7-1.9c-1.7,0.1-2.3-0.2-1.4-2c0.4-0.7-0.1-1.5-0.9-1.9
			c-1-0.5-1,0.5-1.3,0.9C393.3,204.4,393,205.1,392.5,206z M365.1,234c1.3,1.2,1.3,1.6,0.1,3.2c-0.6,0.7-1.9,1.3-1.7,2.1
			c0.3,1,1.7,0.8,2.6,1c1.9,0.5,3.5,1.9,5.6,1.8c0.8,0,1.8,0.2,2.2-0.9c1.5-3.7,4.4-6.5,6.5-9.8c0.8-1.4,2.5-2.6,1.8-4.3
			c-0.7-1.9-2.6-2.9-4.6-3.2c-2-0.3-4,0.2-5,2.4c1.1,0.7,2-0.7,3-0.3c-1.4,0-2,2.2-3.9,1.2c1.1,0.8,1.2,1.3,0.2,2.1
			c-1,0.8-2,1.8-2.9,2.6C368.1,232.8,367.9,235.8,365.1,234z M407.3,348.4c-1.6-0.3-2.8-0.9-3.4-2.4c-0.2-0.5-4.6-0.3-4.9,0.2
			c-0.1,0.1-0.2,0.2-0.2,0.3c0.1,3.4-3.2,5.9-2.8,9.4c0,0.1,0,0.3-0.1,0.3c-1.2,0.4-1.7,1-1.5,2.4c0.1,1.2-0.5,2.4-0.4,3.7
			c0,1,0.3,2.2-0.4,3.2c-0.9,1.2,0.7,1.5,1,2.3c0.2,0.6,1,0.3,1.4,0c0.8-0.6,0.3-1.2-0.1-1.8c-0.3-0.5-0.4-1.1,0.3-1.5
			c0.8-0.4,1.9-1.8,2.5-1.1c1.6,1.9,3.1,0.7,4.7,0.4c0.2,0,0.6-0.1,0.5-0.3c-0.7-0.9,0.4-1.6,0.3-1.9c-0.6-1.2,1.4-1.6,0.7-2.4
			c-1.1-1.4-0.1-2.7,0.5-3.3c1-1.1,2.7-1.7,0.9-3.5c1-1.5,0-2.4-1.1-3.2C405.5,348.4,406.3,348.2,407.3,348.4z M407.8,240.6
			c-0.8-0.4-1.9,0.2-2.3-1.1c-0.2-0.5-0.6-1-1.2-0.7c-1,0.6,0.1,0.8,0.3,1.1c1.2,2.2,3,3.9,4.7,5.6c0.3,0.3,0.7,0.5,1,0.6
			c0.4,0.1,0.9,0,1.1-0.4c0.2-0.4-0.2-0.6-0.4-0.8c-0.9-0.8-1.3-1.9-1.9-3c0.8,0,1.2,0.4,1.4,0.8c0.5,0.7,1,1.1,1.7,0.7
			c0.8-0.4,0.9-1.1,0.5-2c-0.3-0.6-0.5-1.2,0.5-1.6c1-0.3,0.9-0.4,0.4-1.1c-0.1-0.1-0.2-0.3-0.1-0.5c0.6-1.3-0.2-2.1-0.8-3.2
			c-1.8-3.1-4.4-5.2-7.4-6.9c-1.1-0.6-2-1-2.1-2.4c-0.1-1.3-1.2-1.4-2.1-1.4c-0.9,0.1-1.5,1-1.4,1.9c0.1,1.1,0.3,2.1,1.6,2.4
			c0.4,0.1,0.7,0.4,0.6,0.8c-0.1,0.4-0.5,0.1-0.7,0.2c-2.7,0.3-4.9-0.8-6.6-2.9c-0.6-0.7-1.4-0.8-2.2-1.1c-0.2-0.1-0.5,0-0.6,0.2
			c-0.1,0.2,0,0.5,0.2,0.6c1.1,0.3,1.6,1.5,2.5,1.8c2.9,1.1,4.6,3.7,7.1,5.4c1.2,0.8,1.6,2.5,2.8,3.1
			C405.9,237.9,406.6,239.4,407.8,240.6z M405.6,420.5c-0.3-0.7-0.7-0.6-1.1-0.7c-0.9-0.1-1.9-0.1-2.8-0.3c-0.5-0.1-1.3-0.4-1.2-1
			c0-0.6,0.7-0.7,1.3-0.7c3.5,0.1,6.9,0.1,10.4,0.2c1,0,1.7,1,1.2,1.6c-0.9,0.9-0.7,1.9-1.2,2.8c-0.3,0.5-0.5,1.1-1.2,1.1
			c-2.5-0.1-5.1,0.2-7.6-0.6c-1.3-0.4-2.7-0.3-4.1-0.4c-1.1,0-0.9,0.9-0.9,1.5c0,0.2-0.1,0.4-0.2,0.7c0,0,0.2,0,0.3,0.1
			c2.3,1,2.9,2.8,1.8,5.2c-0.4,0.9-0.5,2.3,0.6,2.4c2.8,0.2,5.6,0.8,8.4,0.6c0.6-0.1,1.3-0.2,1.4-0.9c0.3-2.4,2.2-4.3,2.3-6.7
			c0.1-2.9,1.5-5,3.3-7c1.2-1.3,1.1-1.6-0.6-1.8c-4.6-0.7-9.2-0.4-13.9-0.2c-1.1,0.1-2.4,0.9-3.2,1.9c-0.5,0.6-0.6,1.1,0.5,1.7
			C401.2,421.2,403.3,420.9,405.6,420.5z M441,645.2c0.5,2.1,2,2.8,3.5,3.2c1.8,0.5,3.2,2.3,5.3,2c2.7-0.3,5.3-0.8,7.2-3.1
			c1.1-1.3,3.2-2,2.3-4.3c-3.3,2.2-7,3.5-10.9,3.7c-0.8,0.1-1.7,0.3-1.9-0.5c-0.2-0.9,0.9-1.2,1.6-1.6c0.5-0.3,0.8-0.2,1.3,0.1
			c0.4,0.2,1,0.4,1.1-0.3c0.1-0.7,0.7-0.6,1.1-0.9c2.3-1.5,5-2.4,6.7-4.8c0.2-0.3,0.8-0.5,0.5-1c-0.2-0.4-0.6-0.6-1-0.6
			c-1.8,0.1-3.9-0.2-5.3,1.2c-1.9,1.9-4.3,2.6-6.4,3.9c-1,0.6-2.4,1.1-2.9,2.2C442.6,645.7,442.1,646,441,645.2z M455.6,602.3
			c0.5,0.5,1.7-0.2,1.5,1.1c-0.1,1.1-0.3,2.3-0.4,3.4c-0.1,2.2-0.9,4.3-0.4,6.7c0.4,1.6-0.2,3.5-0.3,5.3c-0.1,1.6,0,3.3-1.2,4.6
			c-0.1,0.1,0,0.4,0.1,0.5c1.3,1.1,0.2,2.1-0.4,2.6c-1.2,1-1.4,2.3-1.7,3.7c-0.1,0.6-0.6,1.4,0.1,1.7c0.7,0.3,1.4-0.3,1.9-0.9
			c0.3-0.4,0.2-1,1-1.2c1-0.2,2.1-0.7,1.9-2.2c0-0.4,0.4-1.2,1-1.3c0.8-0.1,0.4-0.4,0.4-0.9c0.2-1.8,0-3.6,0.1-5.3
			c0.2-2.1,0.3-4.1,0.4-6.2c0.2-3.1-0.1-6.2-0.4-9.3c-0.1-1.4-0.1-2.8,0.4-4.1c0.2-0.6,0.4-1.5-0.5-1.8c-0.8-0.3-1,0.6-1.4,1.1
			c-0.2,0.3-0.5,0.5-0.4,0.9C457.7,602,457.1,602.5,455.6,602.3z M370.3,311c0.4-0.1,0.7,0,0.9,0.3c0.6,0.8,1.4,1,2.2,0.4
			c0.9-0.8,2.6-1.3,2.4-2.6c-0.3-1.5,0.4-2,1.3-2.7c1.2-1,2-2.1,0.8-3.7c-0.4-0.6-0.5-1.3,0.3-2c0.6-0.6,1.1-1.8,1.1-2.6
			c-0.1-0.8-1.2-0.1-1.9-0.4c-0.4-0.2-0.8-0.3-1.1-0.4c-0.4-0.1-0.8-0.1-0.9,0.2c-0.7,1.6-2,3-1.7,4.9c0.1,0.5,0.1,1.2-0.7,1.4
			c-0.4,0.1-0.6,0.3-0.7,0.7c-0.2,2-1.8,3.3-2.5,5.1c-0.3,0.8-0.4,2-1.4,2.7c-1.4,1-2.2,2.3-1.9,4.1c0.1,0.6,0,1.2,0.7,1.4
			c0.7,0.2,1.3-0.1,1.7-0.6c1.4-1.6,2.8-3.3,1.5-5.6C370.1,311.4,370.3,311.2,370.3,311z M399.3,378.5c-0.3-0.8-2.7,0.3-1.6-1.8
			c0,0-0.3-0.4-0.5-0.4c-0.8-0.1-1.5-0.2-2.3-0.1c-2.3,0.4-3.5,0-4.5-2c-0.4-0.8-0.8-1.5-1.7-1.3c-1.2,0.2-0.8,1.3-0.9,2
			c-0.1,0.4,0.1,0.8,0,1.2c-0.1,1.7,0.6,3.6-0.1,5.2c-0.7,1.6,0.4,1.9,1.2,2.3c1.1,0.7,2.8,0.9,3.5,1.9c1,1.4,1.9,0.7,2.9,0.4
			c0.9-0.3,0.8-0.9,0-1.3c-1.2-0.6-2.1-1.5-3.2-2.3c0.8-0.3,1.4-0.3,2.1-0.1c1.2,0.5,2.9,2,3-1c0-0.1,0.4-0.3,0.6-0.4
			c0.8-0.5,0.7-1,0-1.5c-0.1-0.1,0-0.3-0.1-0.6C398.3,378.7,398.8,378.9,399.3,378.5z M403.6,282.6c0.3,0.6,0.5,0.8,0.6,1
			c0.1,0.3,0,0.6,0.1,0.9c0.3,0.9,1.4,1.2,2,0.6c0.4-0.4,1-4.5,0.6-5c-0.7-1-1.3-2-2-3c-0.6-0.9-1.2-1.1-1.9-0.7
			c-0.7,0.3-1.1,0.1-1.7-0.1c-1.9-0.7-3.4,0.7-3.6,2.7c-0.1,1.2,0.7,2.4,0,3.4c-0.5,0.7,0.4,1.9-0.8,2.2c1,0.2,1.9,1,3,0.8
			c0.9-0.1,1.5,0.5,2.3,0.7c1,0.3,1.6,0.1,1.4-1.1C403.4,284.4,403.4,283.7,403.6,282.6z M394.3,266.1c0.9,1.3,1.6-0.3,2.5,0.3
			c1,0.7,2.2,0.9,3.5,0.9c1.1,0,1.9,0.4,2,1.9c0.1,1.2,1.1,2.2,2.1,2.9c1,0.7,2.2,0.3,2.5-0.9c0.2-0.8,0.5-1.5,0.2-2.4
			c-0.5-1.7,0.7-2.8,2.4-2.3c0.7,0.2,1.3,0.4,2,0.6c0.8,0.3,1.1-0.3,1.3-0.8c0.3-0.7-0.4-0.7-0.8-0.9c-0.8-0.4-1.9,0.1-2.7-0.6
			c-1.1-0.9-2.3-1-3.7-0.8c-1.3,0.2-2.5,0.4-3.7-0.9c-1-1.1-4-0.5-4.7,0.8C396.7,265.4,395.7,265.9,394.3,266.1z M306.7,593.9
			c-0.6-0.5-1.3-0.9-1-1.2c1.1-1.2,0-3,1.1-4.2c0.4-0.4,0-0.9-0.4-1.2c-0.4-0.3-0.7,0-1,0.4c-0.5,0.9-1.3,1.5-1.6,2.6
			c-0.5,1.8-1.2,3.5-2.1,5.1c-1.5,2.6-3.3,5.1-3.9,8.1c-0.3,1.7-1.4,3.2-1.5,5.1c-0.1,1.6-1.2,2.9-0.5,4.7c0.6,1.8,0.5,2.2,2.4,1.2
			c-1.5-1.5-0.3-3.3-0.6-4.9c-0.4-2.4,1.6-4.1,2.7-5.8c2-2.9,2.9-6.3,4.6-9.2C305.5,593.6,305.8,593.9,306.7,593.9z M370.2,432.9
			c0-0.3,0-0.5,0-0.6c-2-2.7-5.2-3.3-8.1-4.1c-1.2-0.3-2.6-0.3-3.6-0.9c-2.8-1.6-5.8-1.1-8.7-1c-0.6,0-1.3,0.4-1,1.1
			c0.4,0.8,0.5,1.6,1,2.4c0.7,1.3,1.8,0.3,2.4,0.7c1.7,1.4,3.2,0.8,4.9,0.2c0.8-0.3,2-0.9,2.6-0.1c0.9,1.2,1.9,1,3,0.8
			C365.2,430.7,367.6,432,370.2,432.9z M367.6,346.2c-0.6,0.1-1.1,0-1.3,0.8c-0.3,1-1,1.8-1.6,2.7c-0.3,0.4-0.7,0.9-0.4,1.4
			c0.1,0.3,0.6,0.4,0.9,0.3c0.6-0.1,1.1-0.5,1-1.2c-0.1-0.7,0.2-0.9,0.9-0.9c1,0,3.2,2.1,3.2,3.1c0.1,1.6,1.3,2.2,2.7,1.5
			c0.7-0.4,2-3.5,1.5-4.2c-0.7-1-0.5-1.6,0.4-2.2c0.5-0.4,0.7-0.9,0.1-1.2c-2.1-1-4.1-2-6.3-2.9c-0.7-0.3-1.5,0.1-1.6,0.9
			c-0.1,0.7,0.6,1,1.3,1.1c0.5,0.1,1.2,0,1.1,0.7c-0.1,0.6-0.8,0.3-1.2,0.2C368.1,346.3,367.8,346.2,367.6,346.2z M366,453.6
			c1.2,1.7,3.5,0.5,4.9,1.6c0.1,0.1,0.7-0.1,0.9-0.3c1.5-1.2,3.1-1.8,5-2c1.5-0.1,2.1-1.2,1.6-2.5c-0.2-0.6-0.6-0.6-1.1-0.6
			c-2,0-3.2-2-5.1-2.3c-0.3-0.1-0.1-0.7,0.3-0.8c0.8-0.2,0.5-0.6,0.2-1c-1.2-1.2-2-0.5-3,0.4c-1.3,1.1,0,1.6,0.2,2.3
			c0.2,0.6,1.1,0,1.5,0.5C369.6,450.7,367,451.2,366,453.6z M371.5,440.6c-1.1-1.8-4.3-2.3-5.3-0.7c-1.5,2.2-3.7,3.4-5.5,5.2
			c-1.5,1.5-3.3,2.6-3,5.1c0.2,1.6,0.9,2.2,2.3,1.6c0.7-0.3,1.2-0.5,2.1-0.2c1.4,0.4,1.4-1.3,2-2c0.4-0.4-0.1-0.7-0.4-0.9
			c-1.5-0.8-1.6-1.4-0.2-2.3c0.9-0.6,2.1-0.9,2.6-1.8C367.2,442.4,369.4,441.6,371.5,440.6z M425,344.7c1,0.8,2.1,1.4,3.1,2.3
			c0.9,0.9,4.1,0.7,4.3-0.2c0.3-1.6,1.8-2.4,2.4-3.7c0.5-1,1-2.1,0.1-3c-1.1-1.1-5-1.1-6.1,0c-0.6,0.6-1.2,1-2.3,0.7
			C427.7,341.9,427.4,342.6,425,344.7z M367.6,227.7c0.8,0.1,1.4-0.1,2-0.8c1.7-1.9,2.6-4.3,4.4-6.1c0.5-0.5,0-1.2-0.5-1.2
			c-0.8-0.1-2.1-0.9-2.2,0.9c0,0.6-0.5,0.7-1,0.8c-1,0.3-1.8,0-2.7-0.3c-0.5-0.2-1.2-0.6-1.4,0c-0.4,1.3-1.6,1.7-2.5,2.3
			c-1.2,0.9-1.6,2.9-3.6,2.9c-0.3,0-0.6,0.4-0.5,0.8c0.1,0.4,0.5,0.5,0.9,0.4C362.9,227,365.3,227.2,367.6,227.7z M448,313.7
			c0,0.1,0.1-0.2,0-0.3c-1.1-1-1.4-2.4-1.8-3.7c-0.2-0.5-0.8-0.1-0.9,0.2c-0.4,1-1,2-0.7,3.2c0.1,0.4,0,0.9,0.5,1
			c0.4,0.1,0.6-0.2,0.8-0.5c0.1-0.3,0.3-0.5,0.7-0.3c0.3,0.2,0.3,0.5,0.2,0.8c-0.2,0.3-0.4,0.6-0.6,0.9c-1.1,1.2-1.4,2.7-1.7,4.2
			c-0.2,1,1.2,1.1,1.5,2c0,0.1,0.2,0.1,0.3,0.2c0.8,1.9,2.4,2,4.1,1.5c1.5-0.4,0.7-2.6,2.4-2.9c-1.1-0.7-0.6-2.4-2.1-2.9
			C449.2,316.5,447.7,316,448,313.7z M446.5,419.9c-0.7-1-1.7-1.1-2.8-0.9c-0.5,0.1-0.9,0.2-1.4,0.1c-3.6-0.7-6.6,1.3-9.8,2.2
			c-0.5,0.1-0.8,0.6-1.2,1c-0.6,0.6-0.6,1.1,0.3,1.1c1,0,1.4,0.5,1.3,1.4c0,0.6,0.1,1.1,0.6,1.3c0.5,0.2,0.7-0.5,1.1-0.8
			c0.9-0.9,1.6-2.2,3.1-0.9c0.3,0.3,0.8-0.1,1-0.4c0.4-0.5,0.8-0.5,1.4-0.5c1.3,0.1,2.4-0.6,2.9-1.8c0.3-0.8,0.8-1.1,1.6-1.1
			C445.4,420.5,446,420.5,446.5,419.9z M418.4,352.3c1-0.5-0.1-2.1,1.2-2.5c1.1-0.4,1.1,0.8,1.5,1.5c0.1,0.1,0.2,0.3,0.4,0.3
			c0.9,0.3,1.1,2,2.3,1.3c0.5-0.3-0.2-1.4-0.2-2.2c0.1-1.7-0.9-2.2-2.4-2.2c-2.7,0-5.4-0.1-8.1,0.4c-1.3,0.3-1.5,0.7-1.6,2
			c-0.2,2.1,3,1.4,2.4,3.4c0,0,0.1,0.1,0.2,0.1c1.2-0.4,2,0.4,2.9,0.9c0.4,0.3,0.9,0,1.3-0.3C418.9,354.3,418.9,353.5,418.4,352.3z
			 M319.3,359.7c0-0.5-0.1-0.7-0.4-0.9c-0.8-0.3-1.7,0-2.1,0.5c-1.6,1.9-3.4,3.7-4.4,5.9c-1.1,2.4-2.8,4.3-4.2,6.4
			c-1.2,1.7-2.1,3.8-3.7,5.2c-0.3,0.3-0.3,0.8,0,1.1c0.3,0.3,0.6,0.3,1,0.1c1-0.6,2.6-1.4,2.7-1.8c0.7-2.1,2-3.7,3.3-5.5
			c0.8-1.2,1.7-2.4,2.8-3.3c0.3-0.2,0.8-0.2,0.8-0.8c0-1.5,1-2.2,2-3.2C318,362.4,318.6,360.9,319.3,359.7z M338.9,227.2
			c0.3,0.1,0.4,0.1,0.5,0.1c2.6,0.3,4.5-0.3,5.4-3.2c0.3-1,0.2-1.2-0.6-1.4c-0.7-0.2-1.7,0-2-0.9c-0.4-1.4-1.3-1.3-2.3-1.3
			c-1.8,0-3.7,0.4-5.3,1c-1.1,0.4-3.2,1.1-2.7,2.7c0.6,1.7,2.4,0.8,3.7,0.4c1.1-0.3,2.2-0.8,3.4-0.8c0.9,0,1.5,0.3,0.7,1.2
			C339.2,225.7,339.1,226.4,338.9,227.2z M381.5,405c0.9,1.2,1.9,2.1,3.5,1.8c0.8-0.1,1.7,0,2.2,0.8c0.4,0.5,0.9,0.6,1.4,0.5
			c0.8-0.1,1.4,0.1,2,0.5c0.8,0.6,1.7,0.5,2.6,0.1c2.2-1,4.4-2.4,7.1-1.8c0.2,0.1,0.6-0.1,0.8-0.2c0.4-0.1,0.6-0.4,0.6-0.8
			c-0.1-0.5-0.5-0.4-0.8-0.3c-0.7,0.1-1.3,0-1.9-0.1c-4.3-0.6-8.6-0.8-12.9-0.8C384.6,404.8,383.1,405.3,381.5,405z M361.5,524.9
			c1.2-0.1,1.9-0.2,2.5-0.8c0.7-0.8,1.5-1.3,2.6-1.2c1,0.1,2-0.1,2.2-1.2c0.2-1-0.4-2-1.3-2.2c-1.9-0.5-3.8-2-5.8,0.1
			c-1.1,1.1-2.7,1.7-4.3,2.1c-0.5,0.1-1.4,0.6-0.6,1.1C358.3,523.7,360.1,524.3,361.5,524.9z M362.2,287.2c-0.4,0.7-0.1,1,0.3,1
			c0.7,0.1,1.3-0.3,1.7-0.9c0.6-1.1,0.9-2.3,1.7-3.1c1.8-2,2.5-4.7,4.1-6.8c0.4-0.5,0.8-1.5-0.2-1.9c-0.9-0.4-1.4,0.2-1.9,0.8
			c-0.7,1.1-1.6,1.9-2.7,2.5c-1.6,0.8-2.4,2.6-3.9,3.6c-0.2,0.2-0.4,0.6-0.1,0.8C362.8,284.3,361.9,285.9,362.2,287.2z M357.2,441.9
			c0-0.9-0.4-1.3-1.4-1c-0.9,0.3-1.7,0.6-2.3,1.4c-1.3,1.5-2.5,3.2-4.7,3.6c-0.4,0.1-0.8,0.3-0.8,0.8c-0.2,1.3,2.3,4.2,3.7,4.2
			c0.4,0,0.8-0.1,0.9-0.4c0.3-1.8,0.8-3.4,3-3.5C356,445.3,356.8,443.8,357.2,441.9z M328.1,660.2c-1.2,0.3-2.4,0.7-3.6,1
			c-0.6,0.2-0.9,0.7-0.9,1.2c-0.1,0.7,0.7,0.4,1,0.6c1.4,0.5,3.1,0.6,4,1.5c1.7,1.7,2.8,0.8,4.2-0.1c0.8-0.6,1.7-0.8,2,0.7
			c0.3,1.5,1.9,2.3,3.1,1.9c0.7-0.2,1.1-0.9,0.7-1.2c-1.2-1-1.7-2.7-3.6-3.1c-2.1-0.5-4.2-0.9-6-2.2
			C328.7,660.2,328.4,660.2,328.1,660.2z M430,410.6c-0.3-0.1-1,0.7-1.2-0.1c-0.2-0.5-0.1-1.1,0.3-1.7c0.3-0.4,1-0.8,0.4-1.3
			c-0.6-0.6-1.4-0.5-2,0c-0.8,0.8-1.8,1.6-2.2,2.6c-0.8,2.3-0.1,4.6,0.9,6.7c0.4,0.7,1.2,0.9,1.6,0.4c0.8-1,1.7-0.5,2.6-0.5
			c0.6,0,1.2,0.1,1.6-0.5c0.1-0.2,0.3-0.6,0-0.8c-0.5-0.3-1.2-0.4-1.7-0.1c-2.2,1.3-2-0.3-2-1.6c0-0.5-0.3-1.1,0.2-1.5
			c0.6-0.4,0.9,0.3,1.3,0.6c0.7,0.6,1.3,0.1,1.9-0.3c0.4-0.3,0.8-0.5,0.7-1.1c-0.2-0.8-0.9-0.7-1.6-0.8
			C430.6,410.6,430.3,410.6,430,410.6z M411.1,272.5c-0.8,0-1.4-0.1-2.1-0.1c-1,0-1.7,0.6-2,1.4c-0.8,2.6,1.1,4.9,3.9,4.8
			c3.2-0.1,4.3-2.4,3-5.2C413.1,271.6,411.9,272.9,411.1,272.5z M301.6,444.3c-0.6-1.9-1.9-2.3-3.4-2.3c-0.8,0-1.7,0.2-2.4,0.1
			c-1.4-0.2-1.9,0.9-2.4,1.8c-0.1,0.2,0.1,0.7-0.2,0.8c-2,0.5-0.5,1.7-0.4,2.4c0.1,1,1.2,0.8,1.8,0.8c1.2,0.1,2.5-0.1,3.7-0.1
			c0.4,0,1.1-0.2,0.9-0.6c-0.5-0.8-0.9-1.5,0.4-1.8c-0.6-1.5,0.6-0.9,1.2-1C300.9,444.3,301.2,444.3,301.6,444.3z M438.4,329.9
			c-0.5-1.2,0-2.9-1.8-3.1c-1.3-0.1-2.3,0.5-2.7,2.2c-0.4,1.6-0.1,2.9,0,4.3c0,0.9,0.4,1.7,1.5,1.7c1,0.1,1.8-0.2,2.4-1.2
			C438.6,332.5,437.3,331.1,438.4,329.9z M329.5,235.4c0.1,0,0.4,0.1,0.7,0c0.8-0.1,2.1,0.1,2-1.1c0-1.1-1.1-1.2-2.1-1.2
			c-2.4-0.1-4.5-0.1-6.2,2.3c-1.2,1.8-2,3.8-3.1,5.7c-0.2,0.3-0.1,0.7,0.2,0.9c0.2,0.2,0.5,0.3,0.6,0.1c0.9-1.7,3.3-2.2,3.6-4.3
			C325.7,235.4,327.5,235.3,329.5,235.4z M388.8,389.3c1.5-0.4,2.6,0,3.8,0.6c0.5,0.3,1.3,0.8,1.7-0.3c0.4-1-0.3-1.1-0.9-1.3
			c-1-0.4-2-0.9-2.9-1.6c-1.2-0.9-2.4-0.9-3.8,0.3c-1.5,1.4-0.1,1.6,0.5,2.2c0.1,0.1,0,0.3,0.1,0.3c1.2,1.2,1.6,3.3,3.9,3.3
			c0.8,0,1.9,0.7,2.3-0.4c0.3-1-0.7-1.5-1.5-1.9c-0.5-0.3-1-0.3-1.5-0.3C389.9,390.3,389.3,390.1,388.8,389.3z M329.2,249.1
			c0-0.5-0.5-0.6-0.7-0.9c-1-1-2.2-1.7-2.3-3.4c-0.1-1.2,0.7-1.9,0.9-2.9c0.1-0.6,0.2-1.1-0.3-1.4c-0.5-0.4-1,0-1.4,0.4
			c-0.4,0.5-1,0.8-1.4,1.3c-0.7,0.7-1.4,1.5-0.8,2.6c0.3,0.6,0.4,1.3,0.6,1.9c0.4,1.2,1.1,2.3,2,3.3c1.3,1.4,1.9-0.9,3-0.5
			C328.9,249.5,329.1,249.4,329.2,249.1z M415.2,268.5c1.3,0.3,2.1,1.8,3,0.6c0.9-1.2,1.6-2.6,1.9-4c0.1-0.8-0.8-1.8-1.3-2.6
			c-0.9-1.6-2.6-2.5-3.2-4.2c-0.2-0.4-0.4-0.7-0.9-0.6c-0.5,0.1-0.6,0.5-0.6,1c-0.5,2.1,0.7,4.4,2.7,5.4c1.4,0.6,1.4,2,1.5,3.1
			c0,1-1.1,1.1-2,1.1C416,268.2,415.8,268.3,415.2,268.5z M385.3,319.7c0-0.3,0.2-0.6-0.2-0.9c-0.7-0.6-3.8,0.2-3.8,1
			c0.2,2.1-2.1,2-2.7,3.4c-0.2,0.4-1.5,0.2-0.7,1.3c0.6,0.9,1.3,0.7,1.9,0.1c0.9-0.9,1.5-1.6,2,0.3c0.2,0.8,1.1,1,1.9,0.8
			c0.5-0.2,1-0.5,1.5-0.8C383.7,323.1,384.8,321.4,385.3,319.7z M385.4,344.5c1.8,1.7,3.4,3.6,6.6,2.8c-1.6-1-1.8-2-0.7-3.3
			c0.4-0.5,0.9-1,0.2-1.5c-1.5-1-3.1-2-5-2c-0.3,0-0.6,0.1-0.7,0.4c-0.2,0.4,0.1,0.5,0.4,0.6c1.1,0.6,1.2,1.7,1.3,2.8
			C386.8,344.6,386.2,343.9,385.4,344.5z M392.6,249.3c0.8,1.1,0.3,2.5,1.1,3.8c0.7,1.2,2,1.8,2.6,3.1c0.1,0.3,0.7,0.5,1.1,0.3
			c0.4-0.2,0.4-0.7,0.2-1.1c-0.2-0.5-0.2-1-0.3-1.5c-0.2-1.1-1.3-1.8-1.1-2.9c0.9-0.3,1.4,1.2,2.3,0.1c0.5-0.5,0.3-1,0.1-1.4
			c-0.3-0.9-1.3-1-1.8-0.7c-1.3,1-2.6,0.5-3.9,0.1C393,249,392.8,249.2,392.6,249.3z M426.6,301.1c2.5,0.6,3.2,0.1,4.2-1.7
			c0.8-1.3,0.2-2.7,0.6-4c0.4-1.2-0.1-2.1-0.5-3c-0.3-0.8-1.2-1.3-1.8-0.6c-0.7,0.7-1.6,1.9-0.8,3c1,1.4,0.5,2.8,0.4,4.3
			C428.6,300.3,428.3,301.3,426.6,301.1z M384,438.2c-1.3-0.4-2.2,0.6-3,1.3c-0.6,0.4-0.8,1.4-0.2,2.1c1,1.2,5.3,2,6.8,1.2
			c0.5-0.3,0.8-0.8,0-1c-1.2-0.3-1.3-1.3-1.4-2C386,438.4,385.2,438,384,438.2z M400.7,274.2c1.1,0.1,2.1-0.3,3.1-0.4
			c0.2,0,0.6,0.1,0.2-0.4c-0.9-1.1-1.6-2.4-2.5-3.5c-0.9-1.1-3.5-1.5-3.7-0.6c-0.2,1.3-0.7,2.7,0.1,4.1
			C398.6,274.7,399.7,274.2,400.7,274.2z M307.3,429.5c1-0.5,1.6-0.1,2.2-0.1c0.4,0,0.9,0.2,1-0.4c0.1-0.4-0.4-0.4-0.7-0.6
			c-2-0.8-3.6-0.5-5.2,1.2c-1.2,1.2-1.3,1.1-0.1,1.9c0.1,0.1,0.2,0.1,0.2,0.2c0.7,2.2,2.6,1.2,4,1.5c-0.9-0.5-1.8-1-3.2-1.7
			c1.6-0.1,2.7-0.2,3.7,0.3c0.7,0.4,1.4,0.6,1.7-0.3c0.3-0.8-0.5-0.9-1-1.1C309.2,430.2,308.4,429.9,307.3,429.5z M488.3,658.3
			c-0.4,0-0.8,0-1.2,0c-0.4,0-0.9,0.1-0.9,0.6c0,0.4,0.1,0.9,0.7,1.1c2.4,0.9,4.7,1.7,6.6,3.4c0.6,0.5,1.3,0.5,1.9,0
			c0.8-0.6,0.3-1.1-0.1-1.6C493.6,659.4,490.6,659.5,488.3,658.3z M395.9,333.4c-1.7,0.4-2.8-0.2-3.8-1.6c-1.3-1.6-3.1-1.7-4.6-0.9
			c-0.9,0.5-1,1.3-1,2.1c0,0.8,0.7,1,1.3,1.2C390.6,335.1,393.2,333.6,395.9,333.4z M458.8,650.2c1.7,0.4,3.2-0.3,4.7-1.1
			c0.7-0.4,0.9-1.1,0.9-1.7c-0.1-0.8-0.8-1.4-1.5-1.7c-0.4-0.2-1-0.3-1.4,0.2c-1,1.4-2.9,1.5-4,2.8c-0.3,0.4-1.2,0.5-1,1.2
			c0.2,0.7,1,0.3,1.5,0.3C458.2,650.3,458.4,650.2,458.8,650.2z M437.3,296.1c1.3,0.1,1.7,1.1,1.5,1.8c-0.5,1.8,0.4,1.7,1.6,1.5
			c0.6-0.1,1.3-0.2,1.9-0.2c0.5-0.1,1-0.2,1.1-0.7c0.1-0.5-0.1-0.9-0.4-1.4c-0.7-1.1-1.9-2-2.2-3.3c-0.1-0.5-0.3-0.8-0.8-0.7
			c-0.5,0.1-1,0.2-0.9,0.8C439.4,295.3,438.6,295.7,437.3,296.1z M384.2,433.1c0.4,0.4,0.7,0.4,0.9,0.3c1.8-0.5,3.6-0.5,5.4,0.1
			c1.6,0.5,3.2,0,4.6-1.1c0.3-0.2,0.6-0.3,0.5-0.8c-0.1-0.4-0.2-1-0.7-0.9c-2,0.1-4,0-5.8,0.8c-1,0.5-1.8,0.8-2.8,0.2
			c-0.6-0.4-1-0.5-1.2,0.4C385.1,432.5,384.6,432.7,384.2,433.1z M434.7,646.3c-0.9-1.6-2.1-0.8-3.2-0.8c-1.7,0-3.3,0.5-4.7,1.7
			c-1.1,1-0.3,1.6,0.4,2.2c0.3,0.3,0.3,0.3,1-0.6c0.2-0.3,0.5-0.3,0.8-0.3c1.3,0,2.7-0.4,3.9,0.7
			C432.6,647.5,433.7,646.9,434.7,646.3z M433.8,351.2c0,0.2,0,0.3,0,0.5c-0.1,1.1,0.3,2.4,1.2,2.4c1.2,0.1,2.2-0.9,2-2.3
			c-0.1-0.6,0.2-0.9,0.5-1.2c0.7-0.8,0.5-1.8,0.5-2.7c0-0.5-0.3-0.9-0.7-0.7c-1.1,0.6-2.1,1.4-3.2,2.2
			C433.4,349.9,433.8,350.6,433.8,351.2z M305.9,394.5c1.4,0,2.2-1.4,1.8-2.8c-0.6-2-2.4-2.5-3.7-3.5c-0.3-0.2-0.8-0.1-1.1,0.2
			c-0.3,0.3-0.4,0.5-0.2,0.9c0.6,1.3,1.5,2.6,1.9,4C304.6,393.8,305.2,394.4,305.9,394.5z M334.1,262.3c-1.7-1-0.4-1.3,0.3-1.8
			c0.4-0.3,1.6-0.1,1.2-0.8c-0.4-0.7-0.3-1,0-1.5c0.2-0.3,0.4-0.8-0.1-1.1c-0.4-0.3-1-0.2-1.2,0c-0.9,1.4-2.7,1.8-3.7,3.1
			c-0.6,0.8-1,1.9-0.6,2.6c0.5,0.9,1.6,0.2,2.4,0C333.1,262.8,333.6,262.5,334.1,262.3z M347.7,413.9c-2.1,0-3.8,1.2-4.5,3
			c-0.2,0.4-0.4,0.8,0,1.1c0.4,0.4,0.8,0.1,1.1-0.2c0.4-0.3,0.8-0.7,1.2-0.4c1.7,1.1,2.8,1,3.2-1.2c0-0.1,0.1-0.1,0.1-0.1
			c0.4-0.4,1-0.6,0.6-1.4C349,414,348.4,413.8,347.7,413.9z M335.4,435.7c-1.2,0.4-3.3,0.2-5.1,1c-0.5,0.2-1.1,0.5-0.9,1.1
			c0.1,0.4,0.5,0.8,1.1,0.8c2,0.1,4.1,0.4,6-0.2c0.5-0.1,1.4-0.4,1-1.3C337.1,436.5,337.3,435.3,335.4,435.7z M430,282.9
			c-0.1-1.4,0.2-2.6-0.7-3.5c-0.3-0.3-0.4-0.6-0.9-0.3c-0.3,0.2-1,0.3-0.8,0.8c0.3,0.6,0,1.4,0.6,1.9c0.7,0.6,0.7,1.3,0.5,2.3
			c-0.5,2-1,4.1-0.6,6.2c0.1,0.4,0,0.7,0.5,0.8c0.3,0.1,0.5-0.1,0.5-0.3c-0.1-0.9,0.6-1.4,0.8-2.2
			C430.4,286.5,429.4,284.5,430,282.9z M333.8,414.4c-0.8-0.1-1.2,0.3-1.6,0.9c-0.6,0.7-0.2,1.8,0.3,1.6c1.4-0.7,1.8,0.3,2.6,0.9
			c0.6,0.5,1.5,0.3,2-0.4c0.3-0.4,0.4-1.1,0.8-1.3c1.4-0.9,0.3-1.4-0.2-1.9c-0.8-0.7-1.7-0.4-2.4,0
			C334.7,414.4,334.4,414.7,333.8,414.4z M373.8,369.9c0,0,0.5-0.6-0.4-0.8c-0.6-0.1-1.4-0.4-1.8,0.2c-0.4,0.7-0.7,1.6-0.8,2.5
			c0,0.2,0.5,0.7,0.9,0.2c0.2-0.3,0.5-0.4,0.7-0.1c1.6,2.1,4.3,1.8,6.3,3.1c0.3,0.2,0.7,0.4,1.1,0.4c0.5,0.1,1,0,1.1-0.6
			c0.1-0.5-0.4-0.6-0.8-0.7c-1.5-0.5-2.9-1.2-4.5-1.4C374.4,372.5,373.8,371.7,373.8,369.9z M420.4,257.9c0,0.1,0.1,0.4,0.2,0.7
			c0.3,0.5,0,1.4,1,1.5c1,0,0.7-0.9,0.9-1.4c0.7-1.7,0.3-3.5,0.5-5.3c0.1-0.6-1.1-1.6-2-1.6c-0.9,0-0.7,0.9-0.7,1.6
			C420.1,254.8,421,256.3,420.4,257.9z M338.4,238.8c-0.4,0.8,0.3,1.2,0.8,1.7c0.3,0.4,0.6,0.1,0.9-0.2c0.5-0.5,0.9-0.9,0.6-1.8
			c-0.7-1.9-2.3-3.1-3.2-4.7c-0.5-0.9-1.2-1-2.1-0.9c-0.3,0-0.6,0.2-0.5,0.6c0.1,0.8,0.2,1.5,1.1,1.9
			C337.3,236,338.8,236.8,338.4,238.8z M309.5,641.3c1.3-0.3,2.5-0.5,3.8-0.9c0.5-0.2,1.4-0.4,1.3-1c-0.1-0.8-1-0.7-1.6-0.6
			c-2,0.5-3.8,0.8-5.6-0.7c-0.4-0.3-1.3-0.1-1.5,0.7c-0.2,0.7-0.2,1.5,0.7,1.7C307.5,640.9,308.5,641.1,309.5,641.3z M316.8,243.1
			c0,0.2-0.4,1.1,0.8,1.1c1.2,0.1,0.8-0.9,0.9-1.5c0.4-2.1,0.4-4.2,1.8-6c0.5-0.6-0.1-1-0.5-0.9c-0.8,0-1.6,0.2-2,1.1
			C317.1,238.8,316.8,240.7,316.8,243.1z M298.5,424.5c-0.1,1.1,0.6,1.6,0.4,2.4c-0.2,0.7,0,1.4,0.9,1.3c0.8,0,1.6-0.4,1.8-1.2
			c0.3-1.4,0-2.8-0.6-4.1c-0.4-0.7-1-0.8-1.6-0.4c-0.3,0.2-0.9-0.4-0.7,0.2C298.9,423.4,298.5,424.1,298.5,424.5z M435.8,572.2
			c-0.5,0.1-1,0.3-1.5,0.3c-1.1-0.1-2-0.1-2,1.4c0,0.3-0.4,0.6-0.6,0.8c-0.3,0.4-0.8,0.9-0.3,1.4c0.4,0.5,1.1,0.6,1.6,0.3
			c1.2-0.7,2.4-1.6,3.6-2.4c0.5-0.3,0.3-0.7,0.2-1.1C436.6,572.6,436.4,572.2,435.8,572.2z M423.9,657.8c0.1,0.4-0.4,1,0.2,1.2
			c0.5,0.2,1.1-0.1,1.4-0.5c0.4-0.5,0.8-1,0.8-1.8c0.1-1,0-2.1,0.3-3c0.2-0.6,0.6-1.1-0.3-1.4c-0.7-0.2-1.4-0.2-1.6,0.7
			C424.3,654.6,423.4,656.1,423.9,657.8z M377.5,340.6c0-0.1-0.2-0.4-0.3-0.8c-0.3-1-0.2-2.1-1.8-1c-0.7,0.5-2-0.3-2.7-1.2
			c-0.2-0.3,0-1.1-0.7-0.9c-0.4,0.1-0.9,0.6-1.1,1.1c-0.3,0.6,0.4,0.7,0.7,1c0.6,0.6,1.8,0.5,2.1,1.4c0.6,1.5,2,1,2.9,1.4
			C377.3,341.9,377.7,341.4,377.5,340.6z M375,416.1c-0.2-0.9,2.3-2-0.3-2.7c-0.4-0.1-0.2-0.6-0.1-0.9c0.2-0.4,0.6-1,0-1.2
			c-0.6-0.2-1.1,0.2-1.2,0.9c-0.3,1.7-1.8,2.3-2.9,3.2c-0.2,0.1-0.7-0.2-0.8,0.3c0,0.4,0.4,0.5,0.7,0.7c0.8,0.5,1.7,0.3,2-0.4
			C373.4,413.8,374.1,415.2,375,416.1z M378.9,291.4c0.2-0.7-0.2-1.2-0.7-1.4c-0.8-0.3-0.6,0.6-0.9,1c-0.3,0.6-0.7,1.1-1.1,1.6
			c-1.1,1.1-0.8,2.8,0.7,3.3c0.7,0.3,2.2-0.8,1.9-1.4C378.3,293.3,378.7,292.4,378.9,291.4z M442.5,385.3c0.2,0.9-0.8,1.5,0,2
			c0.6,0.4,1.3,0,1.8-0.4c1-0.7,1.1-2.1,1.4-3.1c0.2-0.5-0.5-1.6-1-1.9c-0.9-0.5-1.1,0.7-1.7,1.1
			C442.1,383.8,441.9,384.6,442.5,385.3z M402.5,366.7c0.4-0.9-0.2-1.4-1.1-1.5c-0.9-0.1-1.7,0.6-1.5,1.3c0.4,1.4-0.5,1.3-1.3,1.6
			c-0.5,0.2-1.1,0.5-1,1.1c0.1,0.5,0.7,0.6,1.1,0.6c1.1-0.2,3.1,1.3,2.8-1.5c0-0.1,0.3-0.2,0.4-0.3
			C402.6,367.9,402.7,367.5,402.5,366.7z M440.3,380.7c0.2,0.7,0.3,1.5,0.9,2.1c0.3,0.3,0.7,0,0.9-0.2c1.4-1.3,2.2-2.9,2.8-4.6
			c0.1-0.4-0.1-0.7-0.4-0.9c-0.3-0.2-0.7-0.1-0.8,0.2c-0.4,1.1-1.6,1.2-2.4,1.9C440.7,379.6,440.2,380,440.3,380.7z M328,430.8
			c0.9,0.1,1.7-0.3,1.5-1.4c-0.2-1,0.4-2.6-1.5-2.7c-1.2,0-2.3,0.9-2.6,1.8C325.1,429.7,326.5,430.8,328,430.8z M435.2,537.2
			c-0.1,0.9,0.2,1.6,1.1,1.6c1.3-0.1,2.6,0,3.8-0.8c0.1,0,0-0.2,0-0.3c-0.3-0.7,0-1.9-1.3-2c-1.3-0.1-2.6,0-3.6,1
			C435.2,536.6,435.3,536.9,435.2,537.2z M341.7,330.6c1.6,0.4,3.1,0.4,4.6,0.4c0.8,0,1.8,0.1,1.7-0.9c-0.1-0.8-0.6-1.6-1.8-1.8
			C344.2,328.2,342.9,328.9,341.7,330.6z M440.8,471.1c-0.7-0.3-1.1-0.6-1.5-0.7c-1.1-0.3-2.2-0.5-1.1-2c0.3-0.4,0-0.8-0.5-0.8
			c-1.1-0.2-1.9,0.1-1.9,1.4c0,1.2-0.1,2.4-0.5,3.5c-0.2,0.6,0.1,0.7,0.4,0.9c0.3,0.2,0.7,0.1,0.9-0.3c0.2-0.4,0.5-0.8,0.4-1.3
			c-0.3-1.6,0.8-1.3,1.5-0.8C439.1,471.4,439.7,471.5,440.8,471.1z M328.4,253.3c2.8,0,5.6-1.8,6.5-4.3c0.1-0.3,0.5-1-0.3-1.2
			c-0.6-0.2-0.5,0.4-0.7,0.7c-1,1.7-2.2,3.2-4.4,3c-0.5,0-0.9,0-1.4,0.2c-0.5,0.1-0.9,0.6-0.8,1
			C327.4,253.3,328.1,253.1,328.4,253.3z M332.5,236.5c-0.9-0.1-1.5,0.7-1.6,1.7c-0.1,1.1,0.9,0.7,1.5,0.9c0.9,0.3,2.2,0.1,2.5,1.5
			c0,0.2,0.6,0.6,1.1,0.4c0.3-0.1,0.3-0.3,0.4-0.5C336.4,239.2,334.1,236.5,332.5,236.5z M315,401.5c-0.6,1.3-0.8,2.1,1.1,2
			c1.2-0.1,2.5,0.2,3.8,0.4c1,0.2,2.7,0.7,3-0.7c0.1-0.5-1.8-0.9-3-1C318.3,402.2,316.5,402.9,315,401.5z M334,230.4
			c-1.3-1.4-2.4-1.3-3.9-0.4c-1.3,0.7-2.8,1.6-4.5,0.9c-0.4-0.1-1.1-0.2-1.1,0.4c0,0.4,0.5,0.7,1,0.7
			C328.4,231.5,331.4,231.9,334,230.4z M446.4,435.1c-0.2-0.6-0.7-1.2-1.3-1.6c-0.8-0.5-1.6-0.9-1.9,0.8c-0.1,1,0.3,2-0.2,3
			c-0.3,0.6,0.7,1.5,1.1,0.9C444.9,437.3,446.2,436.7,446.4,435.1z M420.3,358.8c-0.2,0.7-0.6,1.4,0.5,1.5c0.8,0.1,1.6,0.1,2-0.9
			c0.5-0.9,0.3-1.9,0.8-2.8c0.3-0.5,0.9-1-0.2-1.3c-0.7-0.2-1.3-0.2-1.4,0.7c-0.1,0.7-0.3,1.3-1,1.5
			C420.3,357.7,420,358.1,420.3,358.8z M411.3,406.5c1.1-0.1,2-0.2,2.9-0.3c0.4,0,1,0.1,0.9-0.5c0-0.6-0.4-0.9-1.1-0.9
			c-1,0-2.2,0.2-3-0.2c-1.2-0.6-1.8,0.2-2.5,0.6c-0.8,0.4,0.3,1.1,0.1,1.7c-0.1,0.2,0.5,0.4,0.5,0.3
			C409.6,405.8,410.7,406.6,411.3,406.5z M434.7,346.6c-0.4,0.4-0.5,0.8,0.2,0.9c0.7,0.1,3.5-1.9,3.4-2.6c-0.1-0.9-0.9-1.9-1.7-1.7
			C434.9,343.6,434.1,344.8,434.7,346.6z M328.2,391.9c0.9-0.3,1.7-1.2,2.2-2.3c0.5-1.2,1.2-2,2.6-2.1c1.1-0.1-0.6-1,0.4-1.3
			c0.4-0.1-0.3-0.6-0.6-0.8c-0.3-0.4-0.5,0-0.8,0.3c-1.5,1.8-3.1,3.6-4.7,5.3c-0.2,0.2-0.4,0.3-0.3,0.6
			C327.3,392,327.5,392.1,328.2,391.9z M434.8,411.7c0.2,0.6-0.2,0.8-0.4,1.2c-0.7,1-1.1,1.8,0.1,2.8c0.4,0.3,0.5,0.9,1.1,0.8
			c0.9-0.1,0.4-0.8,0.5-1.3c0.4-1.3-0.7-2.6,0.2-3.9c0.3-0.4,0.5-0.8,0.1-1.1c-0.4-0.4-0.8,0.1-1.1,0.2
			C434.8,410.7,434.4,411.1,434.8,411.7z M285.5,631.7c2.2,0.1,1.2-1.9,2.1-2.6c-0.6-0.3-0.1-1.6-1.3-1.5c-1.3,0.1-2.3,1.3-2.3,3.1
			C284.1,631.9,285.1,631.4,285.5,631.7z M292.9,627c-0.3-0.5,0-1.3-0.3-1.9c-0.5-0.9-1.3-2-2.4-1.6c-1.2,0.5-0.4,1.5-0.1,2.4
			c0.2,0.7,0.5,1.3,1,1.8c0.4,0.4,0.8,0.4,1.3,0.2C292.7,627.8,292.9,627.6,292.9,627z M338,399.5c1.2-0.2,2.1-0.9,2.9-1.8
			c-1-0.1-0.8-1.7-2-1.6c-1.1,0.1-2.6,1.4-2.4,2.5C336.7,399.3,337.3,399.4,338,399.5z M418.8,429.3c0.7,0,0.9-0.4,1-1
			c0.2-0.7,0.2-1.3,0.6-1.9c0.4-0.5,0.5-1.2,0-1.8c-0.4-0.5-0.9-0.1-1.3,0c-0.7,0.3-1.2,0.7-0.9,1.6c0.2,0.5,0.3,1-0.3,1.4
			c-0.4,0.2-0.7,0.7-0.5,1C417.7,428.9,418.3,429,418.8,429.3z M440.6,478.4c-0.6,0-0.8,0.4-0.9,1.1c0,0.5,0.4,0.9,0.2,1.5
			c-0.2,0.6,1.7,2.5,2.3,2.2c0.5-0.2,0.5-0.6,0.4-1c-0.3-1-0.4-2-0.8-3C441.6,478.5,441.3,478.4,440.6,478.4z M380.2,431.1
			c-1.3-0.3-1.9,0.7-2.8,1.2c-0.4,0.2-0.3,0.9-0.1,1.3c0.2,0.4,0.7,0.3,1.1,0.2c0.7-0.2,1.4-0.5,2.1-0.7c0.7-0.3,2.1,0.1,2-1.1
			C382.4,431,381,431.4,380.2,431.1z M477.8,413.7c-0.5-1-1.3-0.9-1.9-0.7c-1.4,0.3-2.6,0-3.9-0.4c-0.8-0.3-1.6,0-2.4-0.1
			c-0.4-0.1-0.7,0.4-0.8,0.8c-0.1,0.4,0.1,0.6,0.4,0.6C472.1,413.8,474.9,414.3,477.8,413.7z M415.1,360.9c-0.6-0.7-1-1.1-1.3-1.6
			c-0.4-0.7-0.4-1.6-1.5-1.4c-1.2,0.1-0.9,1.2-1.1,1.9c-0.4,1.1,0.1,1.6,1.3,1.6C413.3,361.3,414.1,361.2,415.1,360.9z M406.2,171.1
			c0,1.6,0.8,3.3,0.7,5c0,0.5,0.3,1.1,1,1c0.6-0.1,0.6-0.5,0.6-1.2c-0.1-2.2-1.7-4-1.6-6.2c0-0.1-0.3-0.3-0.3-0.3
			c-0.2,0.1-0.5,0.3-0.5,0.4C406.1,170.2,406.5,170.5,406.2,171.1z M345,443c-0.1,0-0.3,0-0.4,0.2c-0.3,0.7,1,3.8,1.8,4
			c0.3,0.1,0.6,0,0.7-0.3c0.5-1-0.5-2.1,0.4-3.1C346.8,443.6,346.1,443.1,345,443z M330.3,225.7c0-0.5-0.4-0.6-0.8-0.7
			c-1.1-0.4-3.3,0.7-3.6,1.8c-0.1,0.5,0.1,0.8,0.4,1.1c0.3,0.3,0.6,0.3,1,0c0.6-0.6,1.4-0.8,2.2-1
			C329.9,226.8,330,226.2,330.3,225.7z M441.3,367.7c1.2,0.4,1.6-0.8,2.1-1.6c0.3-0.4,0.5-1.3-0.2-1.5c-0.7-0.2-1.7-0.5-2.1,0.5
			c-0.2,0.4-0.1,0.9-0.6,1.2c-0.3,0.1-1.1,0-0.8,0.8C440,367.6,440.5,367.8,441.3,367.7z M343.6,232.1c-0.7-0.6-1.4-1.2-2.1-1.8
			c-0.6-0.5-1.4-0.9-1.8,0.1c-0.2,0.4-1.2,1.3,0.4,2C341.3,232.9,342.2,232.6,343.6,232.1z M418.2,160.9c0.2,0.9,0.5,2.1,0.7,3.3
			c0.1,0.4,0.3,0.7,0.8,0.5c0.3-0.1,0.7-0.4,0.7-0.4c-0.3-0.8,0.1-1.9-0.2-2.5c-0.5-0.8-0.9-1.4-0.8-2.3c0.1-0.7-0.3-0.7-0.7-0.6
			c-0.4,0-0.6,0.3-0.4,0.7C418.4,159.9,418.4,160.2,418.2,160.9z M371.1,341c-0.9,0-1.4,0-1.5,0.6c-0.1,0.6,0.5,0.7,0.9,0.9
			c1.5,0.9,3.6,0.5,4.7,2.4c0.1,0.2,0.5,0.3,0.8,0c0.2-0.2,0.1-0.4-0.1-0.6C374.5,342.6,372.7,341.8,371.1,341z M374.4,476.5
			c0.4,0.4,0.9,0.5,1.4,0.6c0.8,0.1,0.4,0.9,0.6,1.2c0.1,0.1,0.5,0.2,0.6,0.1c1-0.4,2.9,1.2,2.9-1.3c0-0.2,0.4-0.5,0.7-0.7
			c0.5-0.5,0.9-1,1-1.7c-0.9,0.2-0.9,0.2-1.4,1c-0.9,1.6-2.2,1.9-3.8,1.1C376,476.4,375.3,475.9,374.4,476.5z M420.6,147.8
			c-1.3,0.5-2.3,0.4-3.1-0.8c-0.2-0.3-0.8-0.3-0.9,0.3c-0.1,0.7,2.1,3.2,2.8,3.2c0.5,0,1.3-0.7,1.2-0.8
			C419.3,149.2,420.7,148.6,420.6,147.8z M368.4,447.3c0-0.6-0.4-0.9-1.2-0.9c-1.4,0-2.3,1-2.4,2.4c0,0.5,0.1,0.6,0.6,0.6
			C366.7,449.4,368.4,448.3,368.4,447.3z M371.9,356c-1.5-1.7-3.4-0.8-5.2-0.6c-0.3,0-0.6,0.2-0.6,0.5c0,0.4,0.3,0.5,0.6,0.5
			C368.5,356.6,370.3,357.3,371.9,356z M419.8,369c0.9-0.4,1.5-1.1,1.4-2c0-0.7-0.1-1.8-1.1-1.6c-1.2,0.2-1.6,1.5-1.9,2.4
			C418,368.4,419.2,368.6,419.8,369z M428.5,622.1c0.5,0.9,1.3,1,1.7,1.4c1.4,1.5,3.7-1.5,4.9,1c0.1,0.2,0.6,0,0.8-0.4
			c0.1-0.3,0.4-0.6,0.5-0.7c-1.7-1.4-3.7,0.2-5.5-0.6C430.3,622.4,429.6,621.9,428.5,622.1z M417.4,390.6c0,0.3-0.4,0.8,0.2,1.2
			c0.5,0.3,1,0,1.3-0.2c0.5-0.3,0.3-1.1,0.1-1.3c-0.6-1.1-0.8-2.2-1.3-3.4c-0.2-0.5-0.7-0.5-1-0.2c-0.4,0.3-0.3,0.7,0,1.1
			C417.4,388.6,417.5,389.5,417.4,390.6z M415,412.7c-1.6-0.4-3-1-3.6,0.9c-0.2,0.7,0.3,1.5,0.9,1.7
			C414.7,415.8,413.5,413.1,415,412.7z M328.9,243.7c-0.2,0.7,0.2,1.2,0.8,1.5c0.4,0.2,0.9,0.2,1.3-0.2c0.6-0.6-0.1-1.1-0.4-1.5
			c-0.4-0.6-0.2-1.1,0-1.6c0.2-0.4,0.4-0.8-0.1-1c-0.5-0.2-0.9,0.1-1.2,0.5C328.8,242.1,329.1,243,328.9,243.7z M328.8,574.2
			c1.5,0.2,1.7-0.9,1.8-1.9c0.1-1-0.9-1-1.5-1.1c-1.1-0.1-1.5,0.7-1.6,1.7C327.5,573.7,328.1,574.1,328.8,574.2z M417.1,151
			c0,1-0.4,1.5,0.2,2.1c0.6,0.6,0.9,1.3,1,2.2c0.1,0.7,0.4,1.4,1.2,1c0.6-0.3,0.7-1,0.4-1.7C419.3,153.2,418.2,152.3,417.1,151z
			 M309.1,427.6c0.7-0.6,2.1,0.9,2.5-0.5c0.1-0.5-1.6-1.2-2.5-1.1c-1,0.1-2.9,0.1-2.9,1c0,1.2,1.7,0,2.5,0.5
			C308.8,427.6,308.8,427.6,309.1,427.6z M440,496.3c0.4-0.3,2,0.1,0.7-1.3c-0.2-0.2-0.3-0.7,0.1-1c0.8-0.7-0.1-0.6-0.4-0.8
			c-0.9-0.5-1,0.6-1.5,0.8c-0.4,0.2-0.8,0.8-0.4,1.3C438.8,496,439.2,496.4,440,496.3z M450.5,525.5c0.1-0.8-0.3-1.1-0.7-1.3
			c-0.5-0.2-0.9-0.4-1.3,0.1c-0.6,0.8-0.3,2-1,2.9c-0.2,0.2,0.2,0.5,0.6,0.5C448.4,527.7,450.5,525.6,450.5,525.5z M337.5,268.2
			c-0.7,0.3-1.8,0.3-1.5,1.8c0.1,0.7,0,1.5,1,1.4c1.4-0.2,1.2-1.6,1.5-2.4C338.7,268.4,338,268.2,337.5,268.2z M416.5,321.5
			c0.9,0,1.3-0.7,1.8-1.3c0.5-0.7,0.5-1.6-0.2-2c-0.9-0.5-1.2,0.3-1.4,1c-0.2,0.5-0.6,0.9-0.8,1.3
			C415.3,321.3,415.7,321.5,416.5,321.5z M385.3,417.8c0.9-0.1,1.5-0.4,2.3-0.1c0.6,0.2,1.5-0.2,1.5-1c0-0.4-0.5-1-1.3-1
			C386.4,415.7,385.6,416.3,385.3,417.8z M332.6,428.5c-0.5,0.1-1.3,0-1.1,0.6c0.2,0.6,0.3,1.8,1.3,1.6c0.9-0.2,2.4-0.1,2.3-1.4
			C334.8,427.7,333.1,429.6,332.6,428.5z M437.8,492.3c-0.5-0.6-0.3-1.6-1.1-2c-0.7-0.4-1.2,0-1.8,0.3c-0.1,0.1-0.7,0.3-0.2,0.5
			c0.9,0.3,1.2,1.1,1.8,1.8c0.2,0.2,0.5,0.5,0.9,0.2C437.7,492.9,437.8,492.6,437.8,492.3z M419.7,432.9c0-0.7-1.3-2.3-2-2.4
			c-0.7-0.1-0.6,0.8-1,1c-0.1,0.1,2.1,2,2.4,2C419.6,433.6,419.8,433.4,419.7,432.9z M346.1,582.4c-1.2-0.5-2.2-1.2-3.6-1
			c-0.4,0.1-0.9,0.2-0.8,0.7c0.1,0.5,0.3,1,0.6,1.4c0.2,0.3,0.6,0.2,0.8-0.1C343.8,582.4,345,582.5,346.1,582.4z M386.4,348.5
			c0.8,0.9,0.4,2.7,2.2,2.6c0.5,0,1-0.5,0.9-1.1C389,348.8,388.1,348.2,386.4,348.5z M446.3,375.9c0.1,0.5-0.5,1.3,0.3,1.4
			c0.7,0.1,1.1-0.5,1.2-1.2c0-0.2,0.1-0.5,0.1-0.7c0-0.4,1,0,0.5-0.6c-0.4-0.5-1-0.8-1.7-0.2C446.4,375,445.7,375.3,446.3,375.9z
			 M350.9,225.5c-0.5,0.5-1.7,0.5-1.6,1.7c0,0.6-0.1,1.2,0.8,1.2c1,0,1.5-0.6,1.7-1.4C351.8,226.4,351.6,225.7,350.9,225.5z
			 M418.9,355.6c1-0.1,1.7,0.4,2.2-0.5c0.5-0.8,0.4-1.6-0.1-2.3c-0.2-0.3-0.5-0.7-1-0.5c-0.4,0.2-0.3,0.6-0.2,0.9
			C419.9,354,420,354.8,418.9,355.6z M352.8,408.1c-0.7,0.1-0.9,0.7-0.9,1.4c0,0.9,0.5,1.3,1.3,1.1c0.5-0.1,1.3-0.2,1-0.8
			C354,409.2,354,408.1,352.8,408.1z M428.8,323.2c0-0.8,0-1.5-0.8-1.6c-0.7-0.1-0.7,0.5-0.7,1.1c0,0.4-0.3,0.7-0.4,1.1
			c-0.1,0.4-0.7,0.9,0,1.3c0.8,0.4,0.9-0.3,1.2-0.8C428.6,324,428.9,323.6,428.8,323.2z M448.2,371c0.1-0.5-0.3-0.6-0.6-0.6
			c-0.9,0.2-1.7,0.3-1.8,1.5c0,0.7,0.4,1.4,0.8,1.3C447.8,373.1,447.8,371.9,448.2,371z M348,427.9c-0.1-0.9-0.6-1.2-1.3-1.2
			c-0.4,0-1.2-0.1-0.9,0.6c0.3,0.8,0.2,2,1.2,2.1C348,429.5,347.5,428.2,348,427.9z M317.5,570.7c0.5,0.6,1.1,1,1.8,1.2
			c0.8,0.2,1.3-0.1,1.4-0.8c0.2-0.9-0.5-0.8-1-0.9C318.9,570,318.1,569.8,317.5,570.7z M305.9,415.7c-0.1-0.6-0.3-1.2-0.9-1.1
			c-0.7,0.1-1.7,0-1.9,1.1c-0.1,0.7,0.4,0.9,1,0.9C304.9,416.7,305.6,416.6,305.9,415.7z M333.4,397.1c0.3,0.4-0.8,1.3,0.6,1.2
			c1-0.1,1.4-0.6,1.4-1.4c0.1-1-0.9-0.8-1.4-0.9C333.1,395.8,333.3,396.5,333.4,397.1z M413.5,408.8c0.8,0.5,1.1,1.3,2,1.4
			c0.7,0,1.2-0.2,1.3-0.9c0.1-0.7-0.5-0.8-1-1C415.1,408,414.4,408.4,413.5,408.8z M442.1,375.9c0.1-0.4,0.1-0.7-0.2-0.7
			c-0.3-0.1-0.6-0.1-0.8,0.1c-0.5,0.3-0.9,0.7-1.3,1.2c-0.3,0.3-1.1,0.3-0.8,0.9c0.3,0.6,1,0.4,1.5,0.2
			C441.3,377.1,441.8,376.5,442.1,375.9z M423.5,423.6c0.6,0.9,0.8,2.2,2.4,1.6c0.6-0.2,0.5-0.8,0.3-1.2
			C425.5,422.9,424.6,422.8,423.5,423.6z M441,409.1c0.6-0.3,1.6,0.1,1.8-0.9c0.1-0.6-0.5-1.1-1.1-1c-0.7,0.1-1.6,0.3-1.8,1.1
			C439.7,409.1,440.5,409,441,409.1z M364,531.1c1.2,1.4,2.3,0.5,3.5-0.1c0.4-0.2,0.7-0.5,0.5-1c-0.2-0.5-0.7-0.4-1.1-0.2
			C365.9,530.4,365.1,531,364,531.1z M344.3,236.7c0-0.7-0.3-0.9-1-1c-1-0.1-1,0.8-1.1,1.3c-0.2,0.7,0.4,1.3,1.1,1.3
			C344.4,238.3,343.8,237.1,344.3,236.7z M346.8,373.8c0-1.1-0.3-1.8-1.2-1.9c-0.6-0.1-0.7,0.6-0.5,0.8c0.3,0.7-0.3,2,0.9,2.2
			C346.8,375.1,346.7,374.1,346.8,373.8z M375.1,473.5c-0.3,0-0.7,0-0.5,0.4c0.1,0.2-0.2,0.6,0.3,0.6c0.9,0,1.6,0.4,2.3,0.9
			c0.4,0.2,0.9,0.1,1.2-0.3c0.2-0.3-0.1-0.6-0.3-0.6C377,474.4,376,473.9,375.1,473.5z M380.4,327.9c0-0.7-0.5-0.9-1.1-0.8
			c-0.8,0.1-1.1,0.6-1.1,1.3c-0.1,0.7,0.4,0.9,1,0.9C380.1,329.3,380.4,328.7,380.4,327.9z M376.5,427.9c0-1.2-0.8-1.6-1.6-2
			c-0.3-0.2-0.9-0.5-1.2,0.1c-0.2,0.5,0,0.9,0.4,1.2C374.7,427.9,375.5,427.7,376.5,427.9z M337.2,231.6c0.5,0,1.1,0.1,1.1-0.5
			c0-0.8-0.7-1.1-1.3-1.2c-0.6-0.1-1.4,0.2-1.4,0.7C335.6,231.5,336.6,231.3,337.2,231.6z M362.9,455.8c0.8,0,1.6,0.1,1.7-0.8
			c0.1-0.7-0.7-0.8-1.1-0.8c-0.7,0-1.6,0.3-1.7,0.9C361.7,456,362.6,455.7,362.9,455.8z M423.7,415.2c-0.5-0.4,0.1-1.4-0.6-1.5
			c-0.6-0.1-1.3,0.5-1.4,1.2c-0.1,0.6,0.4,1,1,1C423.1,415.9,423.6,415.9,423.7,415.2z M367.8,309.8c0.4-0.3,1.1-0.7,1.2-1.2
			c0.1-0.6-0.6-1-1.2-0.9c-0.7,0.1-1,0.7-1,1.2C366.7,309.4,367.1,309.7,367.8,309.8z M375.8,386.3c-0.8-0.9-1.6-1.3-2.7-0.8
			c-0.3,0.2-0.8,0.4-0.8,0.8c0.1,0.6,0.6,0.4,1,0.3C374.1,386.6,374.9,386.4,375.8,386.3z M436.5,495.2c-0.9-0.5-1.8-0.5-2.4,0.2
			c-0.3,0.3-0.1,1.1,0.3,1.2C435.7,497.1,435.7,495.5,436.5,495.2z M369.9,353.8c-0.3-0.6-1-0.7-1.1-1.3c-0.1-0.4-0.3-0.8-0.8-0.6
			c-0.4,0.1-0.7,0.4-0.7,0.9c0,0.5,0.2,0.7,0.6,0.9C368.5,354,369.1,353.9,369.9,353.8z M382.1,362c-0.4,0-0.9,0.1-0.8,0.5
			c0.3,0.8,1.2,1,1.9,1.3c0.4,0.2,0.8-0.3,0.7-0.8C383.6,362.2,382.7,362.3,382.1,362z M362.7,529c0.6-0.4,1.9,0.2,1.7-1.1
			c-0.1-0.4-0.1-1.1-0.7-1C362.4,527,363.1,528.3,362.7,529z M456.4,542.8c1-0.3,0.8-1.4,1.3-2.1c0.2-0.3-0.1-0.5-0.4-0.6
			c-0.3-0.1-1,0-0.9,0.3C456.7,541.2,455.6,542.1,456.4,542.8z M441.8,325.2c0.1-0.4,0.2-1.1-0.7-1.1c-0.5,0-0.9,0.5-0.8,1
			c0.1,0.6,0.4,1.3,1.1,1.3C442,326.5,441.9,325.8,441.8,325.2z M370,473.2c0.7-0.8,1.9-0.2,2.1-1.4c0.1-0.4-0.2-0.5-0.7-0.4
			C370.6,471.5,369.6,471.5,370,473.2z M398.8,389.8c0.4-0.4,1.4,0.2,1.5-0.7c0-0.5-0.4-0.9-1-0.9c-0.8,0-0.9,0.6-1.1,1.1
			C397.9,389.8,398.4,389.7,398.8,389.8z M431.6,672.7c-0.6-1.9-2.3-0.9-3.4-1.5C428.9,672.6,430.9,671.3,431.6,672.7z M310.4,396.9
			c-0.4-0.5-0.8-1-1.2-1.4c-0.3-0.3-0.8-0.3-1.1-0.1c-0.2,0.1-0.3,0.3-0.2,0.6c0.1,0.4,0.3,0.6,0.7,0.7
			C309.1,396.7,309.7,396.8,310.4,396.9z M305.5,437.3c0.4-0.2,1.3,0.3,1.3-0.5c0-0.8-1-0.6-1.6-0.6c-0.4,0-1.1-0.3-1.1,0.4
			C304,437.3,304.7,437.3,305.5,437.3z M382.1,448c0.1,0.7,0.6,1,1,1.3c0.4,0.3,0.8,0.9,1.3,0.3c0.5-0.8-0.4-0.7-0.8-0.9
			C383.1,448.4,382.8,447.9,382.1,448z M357.5,528c-0.6,0.1-0.9,0.5-0.9,1c0,0.7,0.7,0.8,1.2,0.9c0.4,0,0.7-0.2,0.7-0.6
			C358.4,528.6,358.1,528.1,357.5,528z M387.2,358.5c-0.3-0.4-0.6-0.8-1.3-0.6c-0.4,0.1-1.1,0.2-0.9,0.8c0.1,0.3,0.6,0.9,1.2,0.7
			C386.7,359.3,387.1,359.2,387.2,358.5z M431.7,407.6c-0.5,0.1-0.9,0.3-0.9,0.8c0,0.6,0.6,0.7,1,0.7c0.4,0,1.1,0.1,1-0.6
			C432.8,407.9,432.3,407.6,431.7,407.6z M485.6,408.4c0.4-0.2,1.1,0,1.1-0.6c0-0.7-0.5-0.8-1.1-0.8c-0.5,0-1,0.2-1,0.7
			C484.6,408.3,485.1,408.4,485.6,408.4z M392.2,302.8c-0.4,0-0.9-0.1-0.8,0.6c0.1,0.6,0.6,1,1.2,1.1c0.4,0,0.4-0.4,0.5-0.8
			C393.2,303,392.9,302.7,392.2,302.8z M372,461.4c0.2-0.3,1,0,0.8-0.7c-0.1-0.5-0.3-1.1-0.9-1.1c-0.6-0.1-0.6,0.4-0.6,0.8
			C371.3,460.8,371.1,461.4,372,461.4z M473.8,292.7c1.3,0,1.7,1.7,3,0.4C475.9,292.7,475.4,291.5,473.8,292.7z M458.8,584.7
			c-0.2-0.5-0.2-1.1-0.9-1.2c-0.6,0-0.9,0.6-0.9,1.1c0,0.6,0.7,0.7,1.2,0.7C458.7,585.4,458.9,585.2,458.8,584.7z M317.6,267.3
			c1.1-0.1,2-0.2,2.6-1.3C319,266,318.1,266.1,317.6,267.3z M383.8,346.5c0.9,0,1.5,0.9,2.5,0.2c0.2-0.1,0.2-0.5,0-0.6
			c-0.8-0.5-1.6-0.5-2.4-0.1C383.9,346,383.9,346.1,383.8,346.5z M303,438.9c0.4-0.1,1-0.2,1.1-0.8c0.1-0.5-0.3-0.6-0.7-0.6
			c-0.5,0.1-1.1,0-1.2,0.7C302.2,438.7,302.4,438.9,303,438.9z M399.3,301.5c0.7,0,0.6,1.6,1.6,0.8c0.4-0.3,0.3-0.8,0.1-1.1
			C400.4,300.5,399.9,301.2,399.3,301.5z M337.8,294.3c0.5-0.1,0.7-0.6,0.8-1.2c0.1-0.3-0.4-0.4-0.7-0.4c-0.6,0.1-1,0.4-1,1
			C336.9,294.1,337.2,294.3,337.8,294.3z M417.2,242.1c1.2-0.2,2.2,0.2,3.1-0.5c0,0,0-0.3-0.1-0.3c-1-0.3-1.8,0.1-2.8,0.3
			C417.4,241.5,417.3,241.7,417.2,242.1z M363.9,346c-1.1-0.2-1.8-0.8-2.4-0.1c-0.3,0.3,0.1,0.7,0.4,0.9
			C362.8,347.5,363,346.4,363.9,346z"/>
		<path d="M463.1,548.8c0.6,0.7-0.1,1.9,1,1.9c0.9,0,0.9-1,1.1-1.6c0.2-0.4,0.1-1,0.7-1.3c0.7,1.7,0,4.4-1.2,5.6
			c-1.1,1.1-2.4,1.9-3.1,3.3c-0.3,0.7-0.7,1.6-1.7,1.5c-0.5-0.1-0.6-0.4-0.5-0.8c0-1,0.1-2.2,1.1-2.5c1.4-0.5,1.8-1.4,1.7-2.6
			C462,551,462.8,550.1,463.1,548.8z"/>
		<path d="M429.7,195.8c-0.4,2-0.1,2.3,1.7,1.9c0.5-0.1,1.1-0.3,1.5-0.1c1.5,0.7,2.9,0.3,4.3-0.6c-0.5,2.9-1.2,3.5-3.9,3.3
			c-1-0.1-1.7,0.2-2,1.6c-0.7-1.1-1.1-1.9-1.9-2.4C427.7,198.4,427.8,197.4,429.7,195.8z"/>
		<path d="M473.5,531.2c0,2.6,0,5.3,0,7.9c0,1.2,0.5,2.3,0.2,3.5c-0.1,0.5-0.3,1.1-0.7,1.1c-0.6,0-0.5-0.7-0.5-1.1
			c-0.1-2.6-0.2-5.2-0.2-7.8c0-1.2,0.4-2.4,0.6-3.6C473.1,531.2,473.3,531.2,473.5,531.2z"/>
		<path d="M474.6,526.2c-0.9-3,0.4-6-0.8-8.7c-0.3-0.6,0.2-0.9,0.8-1.1c0.5-0.1,1.2-0.1,1,0.4C474.7,519.8,476.1,523.1,474.6,526.2z
			"/>
		<path d="M473.3,505.5c0.8,2.5,1.7,5.1,2.4,7.6c0.3,0.9-1,1.6-0.8,2.6c0,0-0.4,0.2-0.6,0.1c-0.3,0-0.2-0.3-0.2-0.5
			c0.3-2.3,0-4.5-1-6.7c-0.4-0.7-0.2-2-0.2-3C473,505.5,473.2,505.5,473.3,505.5z"/>
		<path d="M426.2,209.2c0.9-1.2,3.7-1.9,4.7-1.2c0.1,0.1,0.3,0.3,0.3,0.4c-0.7,0.9-1.3,1.8-2,2.7c0,0-0.4-0.1-0.4-0.1
			C428.6,209.4,427.4,209.4,426.2,209.2z"/>
		<path d="M431.5,203.2c-0.2,1.5-0.9,2.1-1.9,2.2c-1.3,0.2-2.7,0-3.9,0.6c-0.4,0.2-0.9-0.1-1-0.5c-0.1-0.6,0.5-0.7,1-0.7
			c0.9,0,1.9,0,2.8,0C429.6,204.8,430.5,204.3,431.5,203.2z"/>
		<path d="M457.6,514.2c0.6-0.7,1.1-1.3,1.6-1.9c0.4-0.4,0.8-0.4,1.3-0.2c0.3,0.1,0.6,0.4,0.6,0.8c0,0.6-0.5,0.9-0.9,0.9
			C459.4,513.8,458.7,514.5,457.6,514.2z"/>
		<path d="M473.3,548.1c0.2,2.3,0.6,4.7-0.4,6.9C472.9,552.7,473.1,550.4,473.3,548.1z"/>
		<path d="M313.1,240.8c-0.4-1.2,0-2.2,0.3-3.2c0.1-0.3,0.5-0.5,0.8-0.4c0.4,0.2,0.2,0.5,0.1,0.7
			C313.9,238.8,314.6,240.2,313.1,240.8z"/>
		<path d="M445.1,469c-0.6,0-0.7-0.3-0.7-0.8c0-0.7,0.5-1.1,1-1.2c0.5-0.1,0.5,0.6,0.5,0.9C446.1,468.5,445.7,468.8,445.1,469z"/>
		<path d="M320.2,323.9c3.2,0.6,6.5,0.9,9.8,0.8c1.3,0,2.4-0.4,3.5-0.9c0.8-0.3,1.5-0.7,2.3-0.9c1.9-0.4,3,0.4,3.5,2.2
			c0.1,0.2,0.1,0.6,0,0.7c-1.3,1.2-2.2,3-4.2,3.3c-0.7,0.1-1,0.1-1.4,0.8c-0.7,1.2-2,1.3-3.2,1.6c-1.2,0.3-2.5,0.2-3.7,0.5
			c-1,0.2-1.1-1-1.9-1c-2.5,0.3-4-1.9-6-2.7c-0.5-0.2-1.2-0.2-1.7-0.4c-0.6-0.2-1.6-0.2-1.6-0.9c0-0.8,0.3-1.7,1.2-2.2
			C317.9,324.2,319,323.8,320.2,323.9z"/>
		<path d="M322.6,308.8c2.9,0.1,4.7,0.8,6.5,1.3c0.5,0.1,0.8,0.6,0.8,1c0,0.8-0.6,1.4-1.3,1.7c-1.9,0.7-3.7,1.4-5.6,1.9
			c-2.4,0.6-4.8,1-6.8,2.4c-0.3,0.2-0.6,0.3-0.9,0c-0.3-0.3-0.2-0.7,0.1-0.9c0.5-0.5,0.7-1,0.4-1.7c-0.6-1.4,0.1-2.3,1.2-3.2
			C318.9,309.7,320.9,308.4,322.6,308.8z"/>
		<path d="M323.4,300c-1.4,0.9-2.3,2.1-3.7,2.4c-0.4,0.1-0.9,0.1-1-0.4c-0.1-0.3,0-0.6,0.2-0.9C320,299.5,321.5,299.7,323.4,300z"/>
		<path d="M339.4,538.2c0.1-0.3,0.2-0.5,0.3-0.7c0.2-0.6,0.9-0.7,1.4-0.3c0.9,0.7,1.8,0.2,2-0.6c0.5-1.3,1.4-1.3,2-0.7
			c2.3,1.8,5.2,1.7,7.6,2.9c0.4,0.2,1,0.2,0.8,0.9c-0.2,0.7-0.7,0.4-1.1,0.3c-0.6-0.2-1.1-0.5-1.6-0.7c-1.1-0.5-2.1-0.5-3.3,0.2
			c-1.7,1-3.6,1.5-5.3-0.1C341.4,538.7,340.4,538.5,339.4,538.2z"/>
		<path d="M331.9,549.3c-0.6-0.1-1.8,0.4-1.9-0.7c0-1.1,1.2-0.9,2.1-0.9c0.3,0,0.6,0,0.9,0c0.5-0.1,1.1-0.6,1.6-0.1
			c0.3,0.3,0.1,0.5-0.1,0.7c-0.5,0.6-0.8,1.3-1.7,1.1C332.6,549.3,332.3,549.3,331.9,549.3z"/>
		<path d="M337.7,538.4c-0.5,0-0.9,0-1.4-0.1c-0.6-0.1-1.1-0.4-1.2-1.1c0-0.3-0.2-0.7,0.2-0.7c0.5-0.1,1,0.3,1.4,0.6
			c0.4,0.3,0.8,0.6,1.2,0.9C337.8,538.1,337.8,538.2,337.7,538.4z"/>
		<path d="M411,305.3c0,4.2-0.8,8.2-2,12.3c-1.3-1.3-1.7-2.7-0.7-4.1c1-1.4,0.8-2.8,0.9-4.2C409.3,307.7,410.2,306.5,411,305.3z"/>
		<path d="M417.8,309c1.9,0.2,2,1.4,2.1,2.5c0,0.4-0.1,1-0.7,1c-0.5,0-0.8-0.5-0.8-1C418.2,310.8,418.3,310,417.8,309z"/>
		<path d="M408.8,318.2c0.6,1.2,0.7,2.4-0.1,3.5c-0.2,0.3-0.4,0.7-0.8,0.4c-0.3-0.2-0.1-0.5-0.1-0.8
			C408.2,320.3,408.5,319.3,408.8,318.2z"/>
		<path d="M418.7,302.6c-0.2-1.2,0.7-2,0.6-3c0-0.2,0.4-0.4,0.7-0.2c0.3,0.1,0.4,0.4,0.3,0.7C420,301.1,419.7,302,418.7,302.6z"/>
		<path d="M351.7,462.5c1.2,0.6,2.6,0.8,4,0.9c0.2,0,0.7,0.2,0.5,0.6c-0.2,0.4,0.1,1.1-0.6,1.4c-0.4,0.1-1.1,0.2-1.3-0.2
			c-1-1.6-2.2-2-3.9-1c-0.4,0.2-0.6-0.3-0.5-0.6C350.3,462.8,350.8,462.5,351.7,462.5z"/>
		<path d="M348.2,498.4c0.9-0.6,1.9-0.5,2.8-0.8c0.3-0.1,0.8-0.2,0.9,0.3c0.1,0.4-0.1,0.8-0.6,0.9
			C350.2,499.2,349.2,499.5,348.2,498.4z"/>
		<path d="M399.4,168.5c0.2-0.7-0.3-1.6,0.8-1.7c1-0.1,1.4,0.6,1.5,1.5c0,0.6,0.1,1.1,0.2,1.7c0.1,0.8-0.1,1.2-1,1.2
			c-0.8,0.1-1.2-0.1-1.3-0.9C399.6,169.7,399.5,169.1,399.4,168.5z"/>
		<path d="M407.1,150.7c0.4,0.1,0.7,0.2,0.7,0.6c0.1,0.4,0.1,0.8,0.1,1.2c0,0.5,1.3,1.1,0.2,1.5c-0.5,0.2-0.7-0.9-1-1.4
			c-0.2-0.4-0.3-0.9-0.5-1.3C406.6,151,406.8,150.8,407.1,150.7z"/>
		<path d="M393.6,468.1c-0.1-3.9,1.2-7.4,2.2-10.9c1-3.4,1.6-7,2.8-10.4c0.9-2.7,1.4-5.3,1.8-8.1c0.1-0.6,1-0.8,0.8-1.7
			c-0.1-0.3,0.5-0.8,1.1-0.5c0.6,0.3,1.1,1.1,0.7,1.4c-1.5,0.9-0.8,2.4-1.2,3.6c-1.8,5.2-2.6,10.7-3.9,16.1
			c-0.9,3.4-1.5,6.9-2.3,10.3c-0.1,0.3-0.2,0.6-0.2,0.8c-0.1,0.8-0.6,1.5-1.3,1.3c-0.9-0.2-0.2-1.1-0.4-1.7
			C393.5,468.3,393.7,468.1,393.6,468.1z"/>
		<path d="M403.1,445.1c2,0.8,1.2,2.4,0.9,3.7c-0.6,2.8-2,5.4-2.3,8.2c-0.4,4.4-2.3,8.3-2.5,12.7c-0.1,2-1.4,4-1.5,6.1
			c0,0.5-0.5,0.8-1,0.9c-0.4,0.1-0.9,0-1.1-0.3c-0.5-0.6,0.5-0.7,0.5-1c0.1-1,0.5-1.8,0.7-2.8c0.5-2.9,1.5-5.7,2.2-8.6
			c0.4-1.3,0.7-2.7,0.9-4.1c0.5-3.6,1.6-7,2.4-10.5C402.6,448.1,402.4,446.5,403.1,445.1C403.1,445.1,403.1,445.1,403.1,445.1z"/>
		<path d="M392.3,475.1c0.2-0.9,0.3-2,1.6-2.1c0.7,0,0.7,0.6,0.6,1c-0.4,0.9-0.1,2.3-1.6,2.4C392.2,476.5,392.2,475.8,392.3,475.1z"
			/>
		<path d="M402.2,425.5c2.4-1.2,4.8-0.8,7.2-0.3c0.3,0.1,0.9,0.1,0.7,0.8c-0.2,0.4-0.3,1.1-0.9,0.9
			C407,426.2,404.5,426.4,402.2,425.5z"/>
		<path d="M405.4,428.5c1.2-0.3,2.5,0.3,3.8,0.3c0.4,0,0.7,0.2,0.7,0.6c0,0.5-0.3,0.8-0.8,0.7c-1.9-0.4-3.8,0.3-5.7-0.5
			c-0.3-0.1-0.9-0.1-0.9-0.6c0.1-0.5,0.7-0.6,1.1-0.7C404.2,428.4,404.7,428.4,405.4,428.5z"/>
	</g>
</g>
<g id="text">
</g>
<g id="guides" display="none">
</g>
<g id="scratch" display="none">
</g>
</svg>
