<?xml version="1.0" encoding="utf-8"?>
<!-- Generator: Adobe Illustrator 26.0.2, SVG Export Plug-In . SVG Version: 6.00 Build 0)  -->
<svg version="1.2" baseProfile="tiny" xmlns="http://www.w3.org/2000/svg" xmlns:xlink="http://www.w3.org/1999/xlink" x="0px"
	 y="0px" viewBox="0 0 800 800" overflow="visible" xml:space="preserve">
<g id="bg">
</g>
<g id="scans" display="none">
	<image display="inline" width="609" height="623" xlink:href="A2D9F6B0.jpg"  transform="matrix(1.2841 0 0 1.2841 8.9888 0)">
	</image>
</g>
<g id="counters_00000155831629897369998050000010902328751353074356_">
	<g id="GE_LMG_MG42">
		<path d="M105.6,439.8c-4.5-2.1-7.2-3.4-6.5-8c0.9-5.2,4.4-3.3,7.3-3.8c17.1-3.5,34.5-0.1,51.7-2.1c2.7-0.3,6.1-0.4,7.7,2.1
			c2.9,4.4,6.1,2.7,10,2c6.9-1.2,13.7-2.9,20.5-4.6c3.3-0.9,5.4-3,4.8-5.7c-2.1-8.8,7-15.2,4.3-24.4c2.4,2.6,3.4,6.9,7.8,3.7
			c1.1-0.8,2.1-1.6,1.7-3.1c-1.9-7.3,0.6-14.6-0.6-22c-0.8-4.6,3-9.9-1.7-14.2c-0.4-0.3-0.5-1.3-0.3-1.8c4.7-10.6-1.8-21.7,1.5-32.6
			c0.8-2.7-1.8-6.5-3-9.7c-0.4-1-1.4-1.6-2.7-1.2c-1.2,0.4-1.8,1.3-1.5,2.5c2.7,13.1,1.1,26.2,1.2,39.4c0.1,7,2.1,13.9-0.3,21.2
			c-0.9,2.7,2.5,6.5,2.3,10.3c-0.1,2.2-0.5,4.3-2.7,4.4c-2.9,0.2-2.1-2.7-2.1-4.3c-0.3-10,0.7-20.1-1.4-30.1
			c-0.9-4.1-0.6-8.8,0.3-12.9c1.6-7.5-0.6-14.8-1.3-22c-0.4-4.2,1.6-8,0.6-12.2c-1-4.2-2.4-6.7-7.1-6.3c-7.5,0.7-14.9-0.8-22.3-1.2
			c-1.9-0.1-3.4-0.1-4.8-2.1c-1.1-1.5-3.7-3.3-4.8,1.2c-0.9,3.3-4.2,3.5-7.5,2.7c-3.9-1-2.4-3.5-2.2-6.1c1-9,1.7-9.6,9.7-5.7
			c7,3.4,14.6,2.1,21.9,3.2c2.3,0.3,4.8-1.1,7.4,0c2.8,1.1,6.3-1,6.5-2.6c0.3-2.4,3.6-4.2,0.7-7.8c-3.2-4,2-8,2.9-12.1
			c0.6-2.7,4.2-1.2,6.7-1c6.2,0.3,8.2,2.3,5.8,8.5c-0.8,2.2-0.2,5.1,0.2,7.6c0.9,5.1,3.7,7.5,9.3,7.3c7.2-0.3,14.2-2.9,21.6-1.8
			c1.4,0.2,3.1-1.3,4.5-2.1c1.6-0.9,2.9-3,5-1.1c2.5,2.3,3.6,5.4,3.1,8.7c-0.5,3.2-3.3,2-5.2,2.1c-9.4,0.5-18.8,0.9-28.2,1.3
			c-8.4,0.3-8.2,1.5-8.7,9.9c-0.4,6.4,1.3,12.7,0.4,18.8c-1.7,11.3,0.3,22.3,0.7,33.5c0.4,12.2-0.2,24.5,1.2,36.7
			c0.2,1.9,0.1,3.8,1.4,5.4c3.3,4.3,3.1,8.6,2.6,14c-0.4,3.8,1.6,8.6,1.6,13.1c0,1.9,0.2,3.7,0,5.6c-0.3,4.2-1.4,9.8,6.3,8.6
			c0.7-0.1,2.2,0.9,2.4,1.7c0.4,1.6-0.6,3.5-2,3.6c-9.5,1.2-6.3,8.4-6.5,13.7c-0.6,19.2,0,38.4-2.6,57.5c-0.6,4.3,3.2,9.2-1.9,12.8
			c5.5,4.9,1.3,11.7,3.2,17c3,8.3-1.5,15.6-1.2,23.5c0.2,4.7-5.2,6.7-9.2,6.9c-3.4,0.2-5.7-3.1-6.4-6.6c-1.8-8.6-1.7-17.3-1.6-26
			c0.1-13.1-0.8-26.2-0.8-39.2c-0.1-12.5-5-24.5-2.3-37c0.9-4.1-0.4-8.1-1.3-11.7c-0.8-3.1-0.8-5.8-0.4-8.6c1.1-6.4-1-8.8-7.4-10.2
			c-7.3-1.6-14.4,0.6-21.6-0.2c-0.7-0.1-1.8,0.4-2.3,0.9c-7.6,8.6-17.8,7.1-27.5,6.6c-5.8-0.3-11.4,0.6-17.1,0.9
			c-6.4,0.3-12.9-0.7-19.5-0.2c-2,0.1-5.2-0.8-4.6-4C102.2,446.5,97.1,441.5,105.6,439.8z M218.3,458.4c0.2-1.7,0.6-3.4,0.5-5
			c-0.2-2.6,0.4-6.7-3.3-6.6c-3.1,0.1-5.8,2.7-4.9,6.8c0.7,3.1-0.2,6-1.5,8.7c-3.1,6.9,2.5,13.4,0.2,20.8c-0.9,2.8,1.9,8.5,1.4,13.2
			c-0.4,3.1,0.9,5.9,2,8.6c0.6,1.5,2,2.3,3.6,2c2-0.3,1.7-1.8,1.9-3.4c1.2-7.7-0.1-15.6,0.7-23C219.8,472.8,216.8,465.7,218.3,458.4
			z M222.6,559.1c-0.9-5.2-0.5-9.7-2.3-13.9c-1.2-2.7-1.2-6.3-5.8-4.5c-3.4,1.3-6.5,2.7-4.6,7.3c0.6,1.3,0.9,2.7,0.4,4.3
			c-2.1,6.9-0.5,13.8,0.6,20.7c0.5,3,2.2,4.5,5.2,4.6c3.2,0,4.6-2.2,5-4.9C221.8,568,222.2,563.1,222.6,559.1z M214.4,509.8
			c-2.5,0.5-4.5,1-4.2,4c0.3,3.6,0.8,7.5,0.3,10.6c-1.2,6.6,3.6,5.6,6.3,5.5c3.8-0.1,4-3.8,3.5-6.9c-0.4-2.3-2.2-4.6-1.1-6.8
			C222.6,510,216.7,511.4,214.4,509.8z M208.3,428c4.1,0.9,4.1,3.5,3,6.3c-1.5,4,0.2,4.3,3.6,3.7c3.1-0.6,4.3-1.8,4-5.1
			C218.4,426.2,218.2,426,208.3,428z M127.7,431.9c-4.4-1.5-8.1-2.5-12.1-0.7c-0.9,0.4-2.2,0.5-2.1,1.9c0,1.3,1.2,1.8,2.2,1.9
			C119.7,435.4,124,436.4,127.7,431.9z M210.2,421c3.2-0.4,4.2-2.4,4.3-5.4c0-1.9-0.5-2.9-2.5-2.5c-3.3,0.6-3.2,3.6-4,5.9
			C207.4,421.1,209,420.9,210.2,421z"/>
	</g>
</g>
<g id="text">
	<g>
		<g>
			<path d="M452,585.2h48.8c27,0,37.2,14.1,37.2,28.6c0,12.6-6.7,20.8-14.2,24.2c7.5,2.8,17.4,10.8,17.4,25.5
				c0,19.1-15,33.4-38.8,33.4H452V585.2z M498,629.3c11.5,0,16.2-5.2,16.2-13c0-8.2-6.2-12.4-15.5-12.4h-23v25.4H498z M475.7,678.3
				h21.8c13.1,0,19-5.5,19-15.6c0-9-5.8-14.7-19.1-14.7h-21.7V678.3z"/>
			<path d="M574.3,696.9v-79.7c-4.9,2.3-14,4.2-19.3,4.6v-17.3c10.1-1.9,20.3-7.6,26.4-14.3h16.4v106.7H574.3z"/>
			<path d="M619.5,696.9v-1.5c0-18.6,8.3-33.7,31.4-50.5c15-11,19.6-14.8,19.6-24.1c0-9.2-4.5-14.4-13.5-14.4
				c-10.4,0-14.2,6.4-15.7,15.7h-22.4c1.5-18.4,13.6-33.7,38.1-33.7c27.4,0,36.8,16.3,36.8,32.3c0,15.5-6.7,23-26.3,36.8
				c-13.1,9.2-18.4,15.3-20.2,20.1h50.5l-2.9,19.3H619.5z"/>
		</g>
	</g>
	<g>
		<g>
			<path d="M463.4,449.5V448c0-18.6,8.3-33.7,31.4-50.5c15-11,19.6-14.8,19.6-24.1c0-9.2-4.5-14.4-13.5-14.4
				c-10.4,0-14.2,6.4-15.7,15.7h-22.4c1.5-18.4,13.6-33.7,38.1-33.7c27.4,0,36.8,16.3,36.8,32.3c0,15.5-6.7,23-26.3,36.8
				c-13.1,9.2-18.4,15.3-20.2,20.1h50.5l-2.9,19.3H463.4z"/>
			<path d="M597,397.7v20.2h-45.1v-20.2H597z"/>
			<path d="M612.2,418.9c0-13.6,9.5-22,17.4-25.5c-8.2-5.1-13.2-11.5-13.2-22.3c0-18.1,13.2-30.1,37.2-30.1
				c21.9,0,36.3,11.4,36.3,29.8c0,12.3-6.3,18.3-13.6,21.4c7.7,2.9,17.4,11.8,17.4,25.9c0,22-17.6,33.4-41.9,33.4
				C630.2,451.5,612.2,439.9,612.2,418.9z M670.7,417.8c0-10.6-7.3-15.4-17.7-15.4c-11.6,0-17.5,6.3-17.5,15.3
				c0,9.5,7.1,15.8,18,15.8C663.4,433.4,670.7,428.7,670.7,417.8z M638.5,371.9c0,7.2,5.2,12,14.9,12c9.5,0,14.6-3.6,14.6-12
				c0-8.1-5.3-13.1-14.8-13.1C643.5,358.9,638.5,363.4,638.5,371.9z"/>
		</g>
	</g>
	<g>
		<g>
			<path d="M397.9,107.1h22.6v92.4h49.6l-2.5,18.6h-69.7V107.1z"/>
			<path d="M564.2,176.7c0-18.9,0.3-41.4,0.8-53.9h-0.9c-4.9,23-16.3,63.9-26,95.4h-19.5c-7.2-26.5-18.7-73.1-23.3-95.7h-0.9
				c1,13,1.4,37,1.4,56.1v39.5h-20.8v-111h33.8c8,25.9,17.9,64.6,21,81.5h0.2c2.4-14.4,15.1-55.2,23.4-81.5H586v111h-21.8V176.7z"/>
			<path d="M690.5,218.1h-16.6c-0.8-3.6-1.4-8.7-1.7-12.9c-5.7,11.1-16.8,14.5-30.8,14.5c-29,0-44.3-24.2-44.3-56.5
				c0-31.9,18-57.6,50.8-57.6c26.4,0,40.1,14.8,42.9,33.3h-22.2c-2.1-7-6.9-15.2-22-15.2c-19.3,0-26.2,18.4-26.2,39.6
				c0,21.1,7.4,38.3,26.2,38.3c16.7,0,21.6-11.7,21.6-25.9v-0.5h-23.2v-19.2h45.7C690.5,197.1,690.5,214.6,690.5,218.1z"/>
		</g>
	</g>
</g>
<g id="guides">
</g>
</svg>
