<svg xmlns="http://www.w3.org/2000/svg" baseProfile="tiny" viewBox="0 0 800 800" overflow="visible"><path d="M234.2 278c.1-.2.3-.4.2-.5-.2-.7-1.4-1.4 0-2.2.8-.4 1.3-1.3 2.3-1.3.5 0 1-.2 1.2-.8.2-.7-.3-.9-.7-1.2-.8-.8-1.9-1.3-1.7-2.6-1.7-.7-1.3-2.4-1.8-3.7-.6-1.5-.2-3-.4-4.4-.4-2.5 1-4.3 1.6-6.2.5-1.7 1.8-3.5 2.3-5.2.8-2.3 2.6-3.5 4.1-5a8.39 8.39 0 0 1 5.3-2.6c.6-.1 1.2-.2 1.7-.6 2-1.6 4.3-2.1 6.7-2.2l3.5-.3c2.1-.2 2.6.1 3.1 2 .2.8.6 1.2 1.3 1.2.4 0 1.1.2 1.2-.4.2-.6-.5-.5-.8-.6-.4-.2-.5-.5-.2-.9s.8-.6 1.1-.2c1.5 1.8 3.9 1.4 5.7 2.7.8.5 1.9.5 2.8-.6.7-1 2-1.5 3-2.2 1.3-1 2.9-1.7 4.4-2.5 1.6-.9 3-2.2 4.2-3.5 1-1.1 1.2-3.1 1.7-4.7.3-1 .7-1.8 1.9-2 1.5-.2 2.4-2.3 1.9-3.7-.9-2.4-.9-2.4-3.5-2.4-2.3 0-4.6-.1-6.9.3-.6.1-1.3.3-1.7-.4s.2-1.2.4-1.6c2-3 3.1-6.4 4-9.8.5-1.8-.7-3.6-.9-5.4-.1-.7-.3-1.4-.5-2.1-.3-.9-.2-1.4 1.1-1-1.6-.8-1.6-1.9-1.7-3.3-.2-2-.5-4-.4-6.1 0-1.2 1-2.2.4-3.4-.2-.4.4-.2.7-.4s.5-.7.2-.7c-1.6-.1-.5-1-.4-1.4.4-1.4.6-2.9 1.1-4.3.7-2.3 2.3-3.9 3.9-5.6.7-.8 1.2-1.8 3-1.4-1.4-.9-1.1-1.5-.3-2 1.2-.8 2.6-1.4 3.1-2.9.2-.4.7-.6 1.2-.7.4 0 .8-.1 1.2-.3 4-1.8 8.1-2.1 12.5-1.9 2.3.1 4.6.1 6.9.1 4.7 0 9.3 1.1 13.6 3.3 2.2 1.2 4 2.8 6 4.2 1.1.8 2 2.1 2.8 3.3.5.7.9 1.6-.7 2.1 1.9 0 2.2 1.1 2.6 2.5.4 1.3.9 2.7 1.5 3.9 1.1 2.1.9 4.4 1.5 6.5.4 1.6.5 3.4 1.9 4.7 1 1 2.2 1.9 3.2 2.8.3.3.6.5 1 .7.9.6 1.5 1.5 1.3 2.4-.3 1.1-1.6.9-2.5 1-1.6.2-3.3.3-4.9.5-1.3.2-2 .6-2 2.3 0 1.2.5 2.7-.8 3.8-.2.2 0 1.3.5 1.9.4.4 1 1.1.5 1.3-.7.3-1.7.6-2.4-.2-1.3-1.6-1.2-1.5-2.9-.2-.9.6-1.7 1.7-3.1 1.5-.5-.1-.9.3-1.2.8-.2.3-.6 1-1 .7-.6-.4 0-.9.1-1.3.3-1.2.6-2.3 2.1-3-1.9-.4-2.4-.1-2.9 1.6-.4 1.3-.6 2.8-2.6 2.4-.2 0-.5.1-.5.2-.4 1.5-1.6 1.4-2.7 1.6-2.3.5-3.5 2.3-3.7 4.9-.2 2.7.7 4.9 2.7 6.7.4.3.9.5 1 1.1.4 1.5 3 4.8 4.7 5.1 2.5.4 5 2.1 7.6.3.4 1.5-.3 2.1-1.5 2.5-1.7.5-3.5.4-5.2.5-2.2.2-4.3.6-5.9 1.9-1.2 1-2.6 2.3-3 4-.1.5-.2 1.1.2 1.5 1.4 1.2 2.6 2.5 4.3 3.4.9.5 1.8 1 2.7 1.6.4.3 1.3.7.4 1.5-.2.2-.1.3.8.4.5.1 1.3-.1.6.8-.2.3 0 .3.2.4 1.2.1 1.6.8 2.1 1.8.6 1.1 1.6 2 2.5 2.8 1.9 1.7 3.5 3.7 5.1 5.6 1.5 1.7 2.9 3.7 4.3 5.6 1.3 1.8 2.8 3.5 4.3 5.1 1 1.1 1.6 2.6 3.2 3.2-.3 1.3.8 1.9 1.5 2.5 1.3 1 1.8 2.6 3.3 3.5 1.1.7 2 .6 3 .1 1.3-.6 2.6-.9 4-.7.9.1 1.5.6 1.8 1.5.5 2.1 2.3 3.3 3.5 4.9.7.9 5 .6 6.3-1 1.8-2.1 4-2 5.7.1.5.6 1.3 1 1.5 2.1-1.4-1-2.5-2.2-4.4-1.6-.7.2-1.2 1-2.1.8-.2 0-.7.2 0 .6 1 .6 1.5 1.5 1.1 2.8-.6 1.9-.1 2.7 1.5 3.2.9.3 2.6-.5 2.7-1.3.1-1.3 1.2-2.2 1-3.9 3.2 2.5 3.5 6.2 5.4 9-.8-.4-1.3-.9-2.3-.5-.7.3-.8-.6-.6-.9.7-1.6-.3-2.9-.7-4.2-.2-.5-.6-.8-1.1-.7-.5 0-.6.4-.7.8-.4 1.4-1.4 2.6-1.5 4.3-.1 1.9-.5 3.9-.8 5.8 0 .2.1.5 0 .8-.1.4-1 .6-.4 1.1.5.5 1.2.7 2 .5 1-.3 1.6-1 2.5-1.7 0 1-.4 1.5-.9 1.9-.7.7-1.2 1.6-.9 2.6.3 1.3 2.1 1.7 3.4.8.7-.5 1.3-1 2.1-1.6l-.2.4c-.2.5-.9 1-.1 1.6.6.5 1.3.5 1.9.1s1.2-.9.8-1.8c-.2-.5-.2-1.1-.2-1.7-.2-1.4-.7-1.7-2.1-1.1v-4.9c2.2 3 3 5.5 3 8.3 0 1.2-1 1.9-1.3 2.9-.6 2.1-1 4.2-2.3 6.1-.8 1.2-3.7 2.7-5.9 2.6-.1.3.1.4.3.4 1.6 0 1.2.9.4 1.4-.8.6-.7 1.1-.3 1.8.7 1.4.8 2.9.8 4.4 0 .3-.2.5-.4.8-1.6 2.3-3.8 3.7-6.1 5.2-.7.4-1.3.8-1.4 1.7-.2 1.5-1.3 2.5-1.9 3.8-.7 1.4-2.6 1.8-4.1 1.8-2.1.1-3.8 1.4-5.8 1.8-2.4.4-4.5 1.9-7.1 1.9-.9 0-1.9.4-2.3 1.4-.3.7-.9.6-1.4.9 1.3 1.1.9 2.7 1.4 4 .5 1.2.7 2.5 1.1 3.8.3 1.3.3 2.4-.2 3.7-.8 2-.2 4 .2 6 .5 2.3 1.3 4.6.9 7-.3 1.7-1.2 3.2-2 4.7-.5 1-1.1 1.8-.3 2.9.3.5.4 1.3.2 1.9-.5 2.3-1.1 4.6-1.7 6.9 0 .1-.2.3-.3.4-1.4.6-1.8 1.4-1 2.9.7 1.4 1.2 3.1 1.5 4.5.4 1.7 1 3.2 1.7 4.8.5 1-.9.8-.9 1.3 3.6 1.7 7.5.5 11.3 1.2 1.9.4 3.9-.2 5.8.2 3.2.7 6.4.1 9.7.6 1.2.2 2.6.2 3.6-.9.4-.5 1-.9.9-1.8-.4-2.2 1.6-3.9 3.8-3.1.4.1.8.3 1.3.3 2 .1 2.8 1 2.5 3-.1.3 0 .8-.1 1-.9 1.6-.2 2.3 1.1 3.2.7.4.8 1.7.5 2.8-.4 1.7-1.2 2.5-3.1 2.3-2.7-.3-5.4-.1-8.1-.3-2-.2-3.5 1.1-5.3 1.8-1.6.7-3.1 1.8-4.9 2-1.3.1-3.2-1.1-3.4-2.3-.1-.7-.4-.7-1-.8-3.9-.3-7.8-.4-11.7-.1 1.2 2.2 1.3 4.5.1 6.6s-.3 3.9.4 5.6c.6 1.4.6 3 1.4 4.4.4.7-.6.6-1 1.1 2.5.3 2.3 2.6 3.1 4.1.3.5 1.1 1.4.3 2.3.4.1-.1 1 .6.8.5-.1.6.2.5.5-.3 1.7 1.9 2.8 1 4.7 1.7.9 1.2 2.8 1.9 4.1 1.7 2.9 2.2 6.2 3.2 9.3.6 2.1.7 4.4 1.6 6.4 1 2 1.2 4.1 1.7 6.1l2.9 12c.4 1.5.6 3.1 1.7 4.4.3.4.6.8.1 1.4-1.5-1.2-1.7-3-2.2-4.6-.3-.8-.5-1.7-1-2.4-.9-1.1-.7-2.5-1.2-3.7-1.1-2.6-.4-5.8-2.6-8-.4-.4-.7-1-.7-1.7 0-1-.2-1.8-.8-2.7-.4-.5-.5-1.2-.3-2 .4-1.5-.2-3-1-4.2-1.2-2-2.3-3.9-2.7-6.3-.4-2.2-1.7-4.4-2.9-6.4-.6-1-.8-2-1-3-.3-1.9-1.5-2.6-3-1.5-1.1.8-2.8.9-3.4 2.5-.3.7-.9.5-.9-.3 0-1-.3-2 1-2.5.2-.1.5-.3.5-.5.1-2 2-3.3 2.4-5.2 0-.2.2-.6.1-.7-1.1-1-.8-2.7-1.8-3.7-.5-.5-1.1-.6-1.4 0-.5 1-1.7 1.3-2.2 2.2-.2.3-.5.4-.8.3-.4-.1-.3-.5-.3-.8.1-1.4-.6-2.7-.4-4.1.1-.5-.7-.9-1.3-.8s-.8.6-.7 1.2c.1.8.3 1.8.7 2.4.8 1.5.8 2.8.3 4.4-.7 0-.5-.7-.8-1-.2-.3-.4-.4-.8-.4-.3 0-.4.3-.5.5-.1.5 1.3 3.5 1.7 3.6s.8.1 1.1.1c.1.5-.3.5-.5.7-1.1 1-1.2 2.1-.2 3.2.8.9.4 2.2 1.3 3.1 1.1 1.1 1.7 2.4.5 3.8-.1.1-.1.2-.3.7-.3-1.3-1.3-1.8-1.4-2.9 0-.5-.6-1.1-1.1-1.5-.7-.6-1.5-.6-1.7.6-.2.8-.2 1.6-1.3 1.9-.3.1-.5.5-.3.9.3.5.7.8 1.3.7 1.5-.4 2.2 0 2.1 1.7-.1.8 1 1 1.4 1.7.5 1.1 1.5 1.9.4 3.2-.5.6-.2 1.6 0 2.4.5 1.8.5 1.8-1.3 1.9 1.7 1.7 2.7 3.8 3.9 5.7.6 1 .5 2.3 1.2 3.3.4.5-.3.9-.8 1-.7.2-.9.5-1.2 1.3-.6 1.7-.7 3.6-1.8 5-.6.8-.1 1 .2 1.2.5.2.7 1.3 1.6.5.8-.7.9-1.8 1.2-2.7.5.3.4.6.3.9-.8 2.6.1 4.9 1.4 7 .3.5.6 1.1 1.4 1h.3c1.3 2 3.5 1.6 5.5 2.1.3.1.7.2.7.5 0 .4-.4.4-.6.6-1.7 1.6-3.1.2-4.5-.4-1.6-.6-3-1.2-4.5.3-.6.6-1.7.4-2.6.4-.4 0-.8-.2-1 .1-.4.5-1.4.8-1.2 1.5.2.8 1.1 1.1 1.9 1 2.3-.4 4.4.5 6.7.8.6.1 1.3.3 1.8 1 .6.9 1.7.4 2.6.3.8-.1 1.5.1 2.3.1.3 0 .9.2.8.6-.1 1-.6 2-1.3 2.5s-1.9.6-2.5-.6c-.5-1-1.4-1-2.2-.8-1.4.2-2.5 0-3.7-1-2.7-2.2-5.9-2.1-8.1 0-.1.3.2.3.4.4 2 .9 2 1 .4 2.5-.5.4-.4.6.1.8.9.4 2.6-.2 3.2-1.2.7-1.3 1.6-1.6 2.9-.6.5.4.9.4 1.5.4 1.5-.1 2.9.6 4.3.8.3.1.8.3.7.7-.2.5-.7.5-1.2.3-2.2-.6-4.4-1-6.7-.8-.8.1-1.4.5-1.7 1.1-.2.5 0 1.4.4 1.5 1.1.2 2.1.8 3.3.6 2.1-.3 4.3-.6 6.3.4 1 .5 1.8.6 2.9 0 1.2-.7 2.7-.8 3.9-1.6.5-.3 1.5-.6 2.2.3.2.2.8.1 1.2.2.3 0 .6.1.9.2-.3 1.5 1.3.9 1.7 1.7s.9 1.8.4 2.4c-1.4 1.7-.9 4.1-2.1 5.8 0 0 .3.9.4 1.5.1.5.4.8-.3 1.1-.4.1-.1.2.1.4.8.6 1.1 1.4.5 2.2-.5.7-.7 1.2-.4 2a2.27 2.27 0 0 0 .1.4c-1.4 1.5.3 3.9-1.5 5.4-.5.4.5.4.7.7.1.3.3.6.2.8-.2.4-.5.1-.8 0-1.2-.5-1.7-2.3-.9-3.4.3-.4.5-.8.7-1.2.4-.6-.2-1-.6-.9-1 .2-1.8.1-2.6 1.5-1.7 2.7-1.9 6.2-4.6 8.4-1.7 1.4-1.4 4-1.7 6.1 0 .3.3.4.6.3.4 0 .6-.2.5-.6-.1-.7-.2-1.8.6-1.7s.5 1.3.4 2c-.5 3.4-1.3 4.1-4.9 4.2-1.1 0-2 .4-2.9.9-.5.2-1.1.3-1.3-.1-.3-.5.2-1 .6-1.2 1.5-1 2.4-2.6 3.9-3.7.8-.6.6-1.9.5-2.9-.1-.4-.6-.5-1.1-.3-.6.3-1.1.5-1.6.9-.9.7-1.9 1.3-3.1 1.1-1.5-.2-2.3 1-3.1 1.8-.7.7-1.3 1-2.3.8-2.3-.5-5 1.1-5.9 3.8-.3.7 0 1 .3 1.4.4.5 1 .9 1.6.5 1.4-.8 2.9-1.2 4.5-1.3.5 0 1-.1 1-.9.1-.7.8-1.1 1.4-.6.4.3 1.4.6.4 1.5-.4.3-.3 1.1-.6 1.7-.6 1.1-1.3 1.6-2.5 1.8-2.1.3-2.7 3.2-1.7 4.6.5.7 1 1.2 1.5-.1.2-.6.4-1.3 1.4-.4.5.4 1.6.4 2.3 1 .4.4.9-.3 1.2-.9.5-1.2 3.2-2.5 4.3-2 .8.3.3 1 .2 1.5s-.5 1.1.3 1.2c.6.1.7-.5.8-.9.1-1.2.7-2.1 1.6-2.9.2-.2.4-.4.4-.6-.1-1.4.9-1.3 1.8-1.4 1.1 0 1.5.4 1.6 1.5.1.7.4 1.5.5 2.2.1 1.6-1.3 2.2-2.2 3.1-1.6 1.6-3.4 3-5.6 3.8-.3.1-.5.4-.4.7.2.5.3 1.1.9 1.1.5 0 1.3.3 1.5-.5.4-1.7 1.4-2 2.8-1.3v.2c-.3.5-.8.9-.5 1.5.1.3.4.2.7.2.7-.1 1.7-.2 1.8-.9.2-2.2 2.2-1.9 3.4-2.4.7-.3 1.4-.2 1.5-1.3.1-1.2 1.4-1.1 2.2-1.6.2-.1.6.2.4.6-.1.4-.3.8-.5 1.1-.3.5-1.1.7-.8 1.5.3 1 1.1 1.7 1.8 2.4.8.7 2.3-.3 3-1.7 1.1-1.9 2-3.9 1.8-6.2-.1-1.3-1.4-2.2-2.5-1.4-.7.5-1.2.5-1.8.1-1.2-.7-2.5-.1-3.9-.3.3-1-.1-2.4 1.4-2.8.2 0 .3-.3.3-.5.7-2.7 2.6-4.5 4.9-5.7 1.5-.8 2-2.3 3.3-3.7-.5 2.3-1.1 4.3-.9 6.3.3 2.8-.5 5.7.1 8.5.2 1.2-.3 2.4-.5 3.5-.4 2.3-.3 4.5-.2 6.7.1 1.5-1.2-.1-1.4.7 2.5 1.2.1 2.5-.4 2.7-2.7 1.6-2.7 4.2-2.9 6.7-.1 1-.4 1.3-1.4 1.2 1.2.2 1.7.7 1.1 1.8-.5 1.2.3 2.4.1 3.6-.3 2.1-.5 4.3-.2 6.4.2 1.4.4 2.9.4 4.2-.1 3.3-.7 6.6-.9 10-.1 1.6-.2 3.2.2 4.9.4 1.8-.3 3.4-1.8 4 0 .5 1.3-.1.8 1-.3.6 1.5.7.8 1.7 1.7 1.7 2.3 4.2 4.2 5.7 1.4 1.1 3 2 4.6 3 .2.1.6.3.6.4.1 2.1 2.2 1.4 3.2 2.2 1.2.9 2.4 1.4 3.8 1.7 3.1.7 6.3 1 9.4 1.2 3.3.3 5.8 2.2 8.1 4.3.7.6 1.1 2.2.5 3.6-.2.6-.6 1.4.3 2.1.6.5-.3 2.8-1.4 3.2-2.4 1-4.8 2-7.5 2.1-2.3 0-4.3 1.1-6.5 1.7-3.1.7-6.1 1.2-9.2 1.4-3.3.2-6.4-.3-9.5-.6-2-.1-3.9-1.2-5.9-1.5-1.9-.3-3.8-.1-5.8-.4-.8-.1-1.8.5-2 1.6-.2 1-.7 1.4-1.8 1.5-5.4.8-10.6-.4-15.8-1.5-1.1-.2-2.2 0-3.3-.4-1.2-.5-2-1-2.1-2.6 0-1.6-.8-3.3 1.5-4-.7-.5-1-.1-1.4 0-.5.2-.7-.1-.7-.5.1-4 0-7.9-.4-11.9-.1-1.1.6-2.1 1.2-2.9.4-.5.5-.7.4-1.2-.3-2.3 1.2-4.2 1.4-6.4.1-1.8.6-3.6.2-5.4-.3-1.4-.1-2.9.1-4.4.1-.9.2-2 0-2.8-.3-1 .4-2-.4-3-.3-.3-.2-1.9 1.4-1.5-.3-.7-1.5-.8-1-1.8.4-.9.9.6 1.4-.1-.1-.6-.6-.4-1-.4-.5-.1-.8-.3-.7-.8.3-2.1-.7-4.1-.6-6.2.1-2.3.2-4.6 0-6.8-.3-3.2-.2-6.7-2-9.7-.3-.5-.6-.8-1.1-1-1.7-.8-2.8-2-3.1-4-.1-.5-.6-1.2.4-1.5.1 0 .2-.3.2-.4-.7-2.9-.1-5.8-.6-8.7s-.4-5.8-.7-8.7c-.2-1.6-.5-3.4 0-5.1.4-1.4-.8-2.9.3-4.3-1.1-.9 0-2-.4-3-.4-1.1-.2-2.2-.3-3.4 0-1.1-1-1.8-1.3-2.7-.9-2.5-.2-4.9.8-7.2.6-1.4.7-2.5-.5-3.5-2.6-2.1-2.4-5.2-.2-7.7.5-.5.4-2.3-.2-2.6-1.4-.8-2.4-1.7-2.8-3.3-.3-1.3-1.6-2-2.3-3.2-.8-1.4-1.4-3-2.2-4.4-.3-.5-.4-1-.9-1.4-.2-.2-.5-.4-.1-.7.7-.6.7-.6-.1-1.1-.9-.6-1.5-1.1-1.6-2.5-.1-1.9-1.3-3.4-2.9-4.6-.6-.5-1.1-.2-1.4.4-.9 1.9-2.4 3.5-2.5 5.8a.76.76 0 0 1-.2.4c-1.4.9-1 2.6-1.6 3.9-1.3 2.8-1.5 5.8-1.7 8.8-.1 1.3-1.1 2.4-1.4 3.5-.4 1.3-.9 2.6-1.4 3.8-.7 1.8-1.3 3.8-2.8 5.1-.4.4-.7.8-.8 1.2-.2 1.7-1 3.1-1.5 4.7-.5 1.5-1.2 3-1.8 4.4-.8 2-2.5 3.5-3.4 5.2s-2.8 2.6-3.2 4.6c0 .2-.4.3-.6.5-2.2 1.5-3 3.8-3.3 6.3-.3 2.8-1.8 5.1-3.3 7.3-.4.6-1.4 1.2-2.1 1.4-2.2.6-2.3 2.6-3.3 4.1-.9 1.4-1.9 2.9-2.7 4.3-1.1 2-2.8 2.6-4.5 3.7-1.5.9-3 1.2-4.5 1.8-2.7 1-3.3 3.9-4.8 6-1.9 2.8-3.3 5.9-5.4 8.7-.5.6-.7 1.4-1.6 1.6-.1 0-.2.1-.2.1.3 2.4-1.5 4.1-2.1 6.3-.1.4-.4.8-.8.9-.6.2-.8.3-.3.8.2.2.1.5-.2.7-1.9 1.8-2.3 4.6-3.7 6.7-1.3 1.9-1.5 4.7-4.3 5.6-.9.3-.7 1.1-.4 1.7.4.8.5 1.7.6 2.5.1.9.2 1.8-1.1 2.2 1.3-.2 1.9.6 2.1 1.2.7 1.7 1.9 3.1 2.9 4.6.9 1.3-.8 1-.8 1.8 2.3-.6 1.4 1.8 2.4 2.5.9.7.6 1.9 1.1 2.8 1.3 2.3 3.4 3.6 5.5 4.9 2.6 1.6 5.5 2.6 7.6 5.2 1.5 1.8 3 3.4 3.2 5.7.1 1.2.4 2.4-.2 3.6-.4.8-.3 1.8-.5 2.8-.4 1.7-1.5 2-2.7 2.1-3.4.2-6.7.3-10.1.1-1.3-.1-2.7-.3-4 .2-.8.4-1.3-.4-2-.6-1.9-.6-3.9-.5-5.6-1.3-1.5-.7-3-1.5-4.1-2.7-.2-.3-.5-.6-.8-.7-3.1-.6-4.8-3.2-7-5.1-1.8-1.5-3.7-2.8-5.2-4.6-1.3-1.6-3.4-2.3-4.9-3.8-.7-.7-2-.2-3-.3-2.4-.2-4.4-.6-6.4-2.4-2-1.7-3.9-3.4-5.6-5.4-1.3-1.5-2.8-2.9-3.3-5-.1-.6-.2-1.2 0-1.6 1-1.8 1.5-3.9 2.2-5.8.4-1.2 1.4-2.3 2-3.5 1-2.2 2.8-3.7 3.9-5.7.6-1.1 1.7-2 3-2.5 1-.4 1.4-.9 1.7-2.2.3-1.6.6-3.5 2-4.8.4-.4.6-1 .7-1.5 1.3-4.3 2.6-8.6 4.2-12.8.6-1.5 1.2-3.1 1.6-4.8s1.2-3.3 2-4.9c.7-1.4.9-3 1.8-4.3s1.4-2.9 2.8-3.9c.8-.5.5-1.9 1.2-2.7.9-1.2 1.3-2.6 2.1-3.8.6-.8.5-1.7.6-2.6 0-.7.3-1.3-.5-2.2-1.2-1.4-1.3-3.7-1-5.8.2-1.7.9-3 2.4-4 .1-.1.2-.1.2-.2 1-3.1 3.9-5.5 3.9-9.1-.1-2.7 1.6-4.5 3-6.5.1-.1.4-.2.4-.3a9.54 9.54 0 0 1 1.9-4.9c.1-.2.3-.4.3-.7.5-2.7 2.2-4.6 4.1-6.3.6-.5 1.1-1.1 1.3-1.8.4-1.6 2-2.5 2.3-4.1.1-.5.4-1 .3-1.6-.4-2.2.5-4.1 1.4-6 .7-1.5.3-2.6-1.3-3.2-2.3-.8-3.9-2.4-5.5-4.1-2.6-2.7-5.3-5.3-6.8-8.9-.3-.8-1.1-1.3-1.6-2-.4-.6-1.2-1.3.3-1.9-1.3 0-1.7-.7-2.1-1.5l-4.2-8.5c-.9-2-2.2-4-2.7-6-.8-3.1-2.6-5.7-3.3-8.8-.3-1.7-1.5-2.4-3.2-2.8-3.7-.9-6.5-4.4-6.1-7.8.1-1 .4-1.9 1-2.7.9-1.2 1.7-2.6 2.9-3.5 2.3-1.8 2.3-4.1 2.1-6.6s-.6-4.9-.8-7.4c-.2-1.9.1-3.9-.3-5.9-.2-.7.6-1 1.3-1.2-.7-.4-1.4-.8-1.4-1.6 0-1.1-1.5-1.5-1.1-2.8.3-.9.6-1.4 1.6-.9 1.2.6 2.1.3 3-.6 1-.9 2.6-.9 3.4-2.3.3-.6.9-.9 1.1-1.7.2-1 1.4-1.3 2.4-1.7 1.1-.5 1.6-1 .4-1.9-1.8-1.4-3.2-3.2-4.2-5.3-.5-1.2-1.6-2.2-1.6-3.5 0-1.8-.9-3.7-.4-5.4.4-1.4.6-3.2 2.4-4 .5-.2 1.3-1.3 1.4-2.3 0-.5.2-1 .6-1.2 1.3-.8 1.7-2.4 2.4-3.6.4-.6.6-1.2 1.3-1.5.2-.1.4-.3.4-.4-.1-2.3 2.3-3.1 3-4.9.6-1.8 2.5-2.7 3.6-4.1 1-1.3.8-2.1.1-3-1.2-1.4-2.3-3-3.7-4.3-1.1-1.1-1.2-2.3-1.4-3.5-.3-2.3-1.3-4.3-2.6-6.3-.5-.8-.7-1.8-1.1-2.7-.9-2.1.3-4.2-.4-6.1-.8-1.9-.2-3.8-.3-5.6 0-.3 0-.6.1-.7.6-.5 1.4-.7.3-1.7-.5-.5 1.1-.2 1.2-1-2.6-.6-1.1-2.7-1.4-4.1-.5-1.8.4-3.9-.1-5.9-.4-1.4.5-2.7.5-4.2 0-2.3.5-4.6.3-6.9-.2-2.8-.6-5.6-.5-8.4.1-1.6.8-3.1 1.1-4.6.3-1.2.9-2.3 1.1-3.5.2-1.7.6-3.3 1.4-4.9l2.1-3.7c.6-.3 1.3.3 1.8.8.4.4.7.9 1 1.3.2.3.6.4 1 .2.2-.1.4-.2.4-.4.1-.5-.4-.5-.7-.7-.5-.2-1-.6-1.7-.4zm55.1 101.4c-.8 0-1.6-.1-1.8 1.1-.1.8-.6 1.1-1.5.9-.2 0-.4 0-.5.2s-.1.4.1.5c1.1.4 1.6 1.6 2.6 2.1.7.3 1.4.9 2 0 .5-.8 1.2-1.8-.2-2.6-1-.5-1.2-1.3-.7-2.2.5-.4.7.2 1.1.4.5.3 1.2.3 1.2-.5 0-1.1-1.1-1-1.8-1.4-.5-.2-1.1-.4-1.3.2-.3.7.7.8.8 1.3zm-62.4 222.9c.9 1 2.1 1.1 3.3.7.8-.2 1.5-.2 2.2.1 1.2.5 2.4.4 3.8-.2-1.1-.4-.9-1.8-1.9-1.9-2.6-.3-5.1-.1-7.4 1.3.1-.4-.1-.7-.4-1-1.9-1.9-1.9-2.2-.3-4.5.2-.2.3-.4.1-.7-.6-.8-1.4-1.1-2.3-.9s-2.2.6-2 1.6c.2 1.4-.4 3.1 1.3 4.3 1.2.7 2 1.8 3.6 1.2zm122.9-88.5c.5.3 1 .3 1.5.3.3 0 .7-.2 1 .2.2.4-.1.9-.3 1-1.3.6-2 1.8-3 2.6-1.1.8-1.9 1.8-2.6 3-.1.2 0 .7-.3.5-1.2-.5-1.3.8-1.9 1.1-1.3.8-1.4 2.7-3.2 3.1-.7.2-.7 1.2-.6 1.9 0 .4.2.8.6.8.7 0 .7-.8 1.1-1.2.1-.1.2 0 .4-.1.1.4.1.9.3 1.3.2.6.8.7 1.1.2.4-.8.7-2 .6-2.7-.1-.8.1-.8.6-.8s1-.1 1.5-.1c.7 0 1.9-.5 1.9-.6-.3-1.6.8-1.3 1.7-1.4.8-.1 1.3-.1 1.5-1.1.2-.9.8-1.8 2-2.1 1-.2 2.1-.9 2.2-2.1.2-1.3.9-2.1 1.9-2.8s1.1-2.1.9-3c-.2-.7-1.4.3-2.2.3 0 0-.1 0-.1.1-.7.3-1.3.5-.9-.7.3-.9-.3-1.5-1-1.2-2 .9-4.2 1.2-4.7 3.5-.7.2-.7.3-.9-.5-.1-.6-.3-.8-.6-.1-.2.4-.4.6-.8.3-.2-.2-.7-.5-.5-.7.8-.7.3-1.1 0-1.7-.5-1.1.1-3 1.2-3.5.8-.4 1.1-1.1.9-1.7-.1-.7-.9-.8-1.6-.9-1.7-.1-3.5.7-5-.8-.4-.4-1.1.2-1.3.7-.3.5.2.8.6.9 1.2.3 2.3 1.1 3.5 1.5.5.2 1.2.1 1.2.7s-.2 1.2-.8 1.5l-3.2 2.1c-.9.6-1.2 1.1-.4 2.2.7 1.1 2.2 1.1 2.6 2.6.3 1.1.7 2.2.8 3.8 1.3-2.5 1.9-4.9 4.5-5.8.2 0-.1-.3-.2-.6zm-38.4-77.2h0v-.6c.6-1.6.9-3.2 1.1-4.9.2-1.3.1-2.7 2.1-2.7.6 0 .4-.7 0-.9-1.6-.8-3.3-1-5-.8-.8.1-1.5.9-1.3 1.5.3 1-.3 1.7-.5 2.6l-.9 3.3c-.5 2-.8 3.9-1.9 6.2 0 0 .1.1.1.2.4 1.4-.1 2.8-.5 3.9-.7 1.9-.9 4-1.4 5.9-.7 2.7-1 5.4-2.7 7.7-.2.2-.2.5 0 .7 1 .8.8 2 .6 2.8-.4 1.2-.5 2.6-1 3.8-.6 1.5.2 2.4 1.8 2.5 1.3 0 2.6-.3 4 0 .5.1 1.2-.2 1.5-1.1.5-1.1.6-2.2.8-3.3.5-2.6 1.4-5.1 1.9-7.7.5-2.8 1.3-5.4 2-8.1.5-1.9.8-3.8 1.4-5.7.3-1.1-.1-2.4 2-2-1.4-1-1.2-1-.8-3.8.2-1.5 1.3-.4 1.8-.9-1.5-.7-1.7-1.3-1-3.2.3-.7.9-1.7.5-2-.8-.7-1.4.5-2.1.8 1 .5 1 .5.5 1.3-.2.3-.5.6-.4.8.5 1.4-.6 2.3-1 3.5-.4.4-.9.4-1.6.2zm-12.8-120.2c-1.1.3-2.2-.3-1.9-.9.7-1.3-.3-2.7.7-3.9.8-1-.3-2.4.5-3.4-1.6-.7-.4-1.5-.2-2.4.6-1.9 1.3-3.9-.3-5.7-.2-.2.1-.5.1-.7.3-1.7.7-3.3.7-5a52.53 52.53 0 0 0-.3-5.6c-.3-2.2.3-4.6.1-6.9-.2-2.9-.4-5.9-1.1-8.8-.4-1.6-.4-3.6-2-4.8-.2-.2-.2-.4-.2-.7-.2-4.1-.4-4.7-3-7.6-.7-.7-1.6-1.4-2.7-1.4-1 0-2 .5-2.8 1-.5.3 0 1.5.3 2.2-.8.4-1.5.1-2-.4-2.7-2-6.1-1.9-9.2-2.8-1.3-.4-1.9-1.2-2.5-2-.6-.9.8-.8 1-1.4 0-.2.3-.3.4-.5.2-.4.8-.8.4-1.4-.4-.4-.8-.6-1.4-.6-2-.2-4 .1-5.9.3-2.1.2-3.4 1.7-4.9 2.8-.3.2-.5.6-.3 1 .3.4.7.3 1.1.1 1.5-.6 3.1-1 4.8-1 .7 0 1.5-1.1 1.8-.3.2.7-1.2.9-1.8 1.2-.1 0-.2 0-.3.1-.7.1-.7.6-.6 1.2.2.8.8.9 1.4.9 1.6 0 3.3 0 4.9.1.4 0 1.1 0 1 .6-.1.5-.7.4-1.1.3-.7-.1-1.4 0-2.1.1-1.9.2-3.1 1.8-4.9 2.1-2.3.4-4.2 1.4-5.6 3.3-.3.4-.7.3-1.1.4-.7.2-1.4.4-1.9 1-1.2 1.5-.5 3.8-2.3 5 0 0 .1.3.2.4.4.5.1 1-.1 1.5-1.2 2.7-2.9 5.1-5.1 6.9-1.5 1.2-2.3 2.9-3.7 4-.9.8-.9 2.1-1.8 2.8-.7.6-1.4 1.1-1.1 2.2.1.4-.2.7-.5.9-.5.3-.6.7-.2 1.1.5.5.8-.1 1-.3.8-.7 1.9-1 2.2-2.3.2-1 1.7-1.1 2.2-2 1.1-1.8 2.8-3.1 3.5-5.1.2-.5.6-.9 1.1-1.2 1.3-.9 1.9-2.3 3-3.3s1.3-2.5 2.5-3.3c.4-.3.9-.8 1.3-.4s-.1.8-.5 1.1c-.3.2-.1.6-.3.8-.5.8-.3 2.3-1.9 2.2-.4 0-.5.3-.3.7 1 2.2-.6 3.7-1.8 5-1.4 1.4-1.8 3.8-4.2 4.2-.1 0-.1.4-.3.5-.7.7-1.6 1.9-2.2 1.8-1.2-.1-1.5.5-1.9 1.3-.3.6-.6 1.2-1.4 1.3-.2 0-.6.1-.5.4s.3.4.6.4c1.2-.1 1.7.9 2 1.6.3.5-.8 1-1.4 1.3-.3.2-.6.6-.9.8-1 .6-1.5 1.8-2.6 2.3-1.6.6-2.7 2-3.8 3.1-2.7 2.6-2.9 6.4-5 9.4-.8 1.2-1 2.8-1.6 4.2-.5 1.3-.6 2.3-.2 3.6.3 1.1.2 2.3-.3 3.5-.3.6-.6 1.1-.6 1.7-.1 1.4.5 1.9 1.9 1.5.7-.2 1.4-.5 2.1-.6.6-.2 1.3 0 1.6.6s-.4.8-.8 1.1c-.4.2-.8.5-1.1.7-1 .7-2 1.4-2.9 2.1-.7.6.8 1.1.5 1.7-.7 1.6.3 2.1 1.4 2.6.3.2.7.4.8.7.8 3.1 3.8 3 5.9 4.2 1.4.8 2.9.5 4.5.4 2.1-.1 4.2.1 6.3.2 1.3 0 2.7 0 3.8 1 .8.7.8.7 1.1-.3 0-.1.2-.3.3-.3.5 0 1.2-.4 1.6.1.5.6-.3.8-.5 1.2-.3.5-.9.7-1.4.9-1.9.6-3.8.8-5.7 1-1.5.1-3 .3-4.2 1.6-.7.7-1.8 1.4-2.6.3-2.3-2.8-5.8-2.3-8.4-1.2-.3.1-.5.4-.4.7.6 1.6.9 3.3 2.9 3.9 1.3.4 2.7.7 3.9 1.4 2.4 1.4 4.4-.6 6.6-.8.5-1.5 2.1-1.2 3.2-1.6.5-.2 1.3-.5 1.4.2.1.6-.3 1.2-1.1 1.4-1.3.3-2.4.7-3.3 2-1 1.5-2.3 3-4.4 3.3-.3 0-.5.3-.3.7.2.5.3 1 .3 1.5-.1.7.9.8.9.7 1-.9 2.2-.4 3.2-.5.4-.1.8-.2.8-.8 0-.4-.2-1.1.5-1s.3.7.4 1.1c.1.5.2.9.8 1 1.3.3 3.8-1.2 4-2.6.1-.8.4-1.4 1.1-1.7s1-.4.9-1.2c-.1-.7.5-1 1.2-.8.8.2.2.8.1 1.1-.8 2.4-1.8 4.6-4.2 5.9-1 .6-1.8 1.5-2.6 2.3-1.3 1.5-1.3 1.9.2 3.2 1.3 1.2 4.2 1.1 4.9-.2 1.3-2.3 2.6-2.8 5.1-1.9.4.1.8.2 1.2 0 .2-.1.5-.2.7.1.2.2 0 .5-.1.7-.6 1-1.6 1-2.5 1.2-.9.3-2 .5-2.2 1.4-.4 1.8-1.1 3.5-1.6 5.3-.2.7-.1 1.8.8 2.5.8.6 1.4 0 2.1-.3 1-.5 1.8-1.3 2.7-2 .2-.2.5-.4.8-.2s.4.5.3.8c-.5 1.7.8 1.9 1.8 2.4.4.2 1 .2 1.5.3.4.1.8.2.8.7s.2 1-.3 1.2c-1.3.6-1.7 2.2-3.1 2.7-.4.2-.4 2.7-.1 2.8.8.4 2.7-.8 2.7-1.7 0-.4-.1-.8-.1-1.2s-.1-.9.4-1c.6-.1.6.4.6.9l.3 2.3c.7-.1.8-.5.8-.8.1-1.3.5-1.9 1.9-1.5.7.2 1.4-.1 2.1-.3 3.3-1 6.2-3.1 9.9-2.9 1.2 0 1.3-.7.8-1.7-.4-.8-.9-1.5-1.2-2.3-.9-2.8-2.1-5.5-4.6-7.3-.2-.2-.5-.4-.6-.7-.7-1.8-1.6-3.4-2.9-4.8-.5-.6-1.2-1.5.5-2-1.2-.1-1.8-.4-2.2-1.5-.4-1-.3-2.3-1.3-3.2-.6-.5-.9-1.5-1.7-1.6-1.1-.1-1.8-.7-2.4-1.5-.5-.6-.7-.6-1.2-.2-.8.6-1.3.4-1.8-.5-.8-1.2.2-2.1.2-3.2 0-.3-.2-.8.4-.9.5-.1.9 0 1.3.3l.6.9c.4.5 1 .4 1.6.2s.3-.8.2-1.2c-.4-1.8-2.3-3.5-4.2-3.6-.5 0-.8 0-.8-.7 0-1.5-.9-2-2.3-1.5-.3.1-.5.2-.6-.1-.4-1.7-1.5-1-2.4-.8-1.3.3-2.4-.1-3.7-.2.9-.4 1.2-.9 1.1-1.9-.2-1 .3-1.7 1.4-2.1 1.2-.4 2.3-1 3.6-1.5-.9-1.1-1.2-2.5-2.6-3.2-.5-.2-.4-.8-.1-1.4.4-.6.1-1.1-.4-1.5-1.7-1-3.5-1.3-5.3-.2-1.7 1.1-3.7 1.5-5.6 2-1.1.2-2.3-.2-2.7-1.2-.4-.8 0-1.9.7-2.6 2-2 4.3-3.4 7.2-4.1 1.9-.4 3.9-.7 5.7-1.5-.8-.6-1.5-.4-2.3-.4-2.1-.1-4.3.2-6.4-.5-.5-.2-.8-.5-.9-.9-.1-.6.5-.5.8-.7.4-.3 1.1-.4 1.3-.8.9-1.8 2.7-1.8 4.2-2.2 1.7-.4 2.4.1 3.5 1.9.1.1.3.1.4.1 1.4.1 2.7.8 4.1 1.2.7.2 1.3.5 1.7 1.3.4.7 1.6.5 2.4.3.9-.3.7-.9.5-1.5-.5-1.2-1-2.1-2.6-1.8s-1.6-1.3-2.3-2.1c-.3-.3-.3-.7.1-.9.8-.6 1.5-.1 2.3.2 1.5.5 2.6 1.7 4.3 1.8.9 0 2.5.9 1.8 2.7-.2.4 0 1 .7.9 1.3-.4 2.8-.7 3.4-2.1.8-1.7 1.4-3.4 2.7-4.9 1.4-1.7 2.5-3.8 3.9-5.6.4-.5.9-.9 1.1-1.7.4-1.4.1-2.8.4-4.1.2-.6 1.6-3 2-3.4 1.1-1.1 2.8-1.8 2.8-3.7 0-.5 0-.9.2-1.4 1.2-2.4 2.6-4.8 2.8-7.6.1-.7.3-1.1 1.1-1.3.5-.1 1-.2 1-.9 0-1.1-1-1.2-1.6-1.7-.4-.3-.8-.1-1.2.3-.6.5-.5 1.1-.8 1.7-.2.5-.7.9-.9 1.5-.4 1.4-.8 3.2-1.6 4.2-2.2 3-3.4 6.5-5.5 9.5-.9 1.2-2.2 2.4-1.8 4.3.1.4-.5.7-.9.7-1.8 0-2 1.4-1.6 2.4.5 1.2-.1 1.6-.7 2.1-.9.7-1.5 1.6-2.1 2.6-.5.8-1.7.9-2.1 2s-1.5 1.2-2.5.5c-1.3-.9-2.4-2-4-2.4-.6-.1-1.5-.2-1.9-.6-2.1-2.4-4.5-1.5-6.9-.9-1.6.4-3.3.6-5 .5-1.2-.1-1.4-.8-1.2-1.8.2-1.1.7-1.9 1.9-2.5.8-.4 1.6-.9 2.1-1.7.9-1.7 2.1-3.1 4.1-3.7 1.1-.4 2.3-.1 3.4-.7.3-.2.6-.4 1-.1.3.4 0 .7-.1 1-.5 1.2-1.4 2.2-1.6 3.6-.1.5-.3.9.3 1.2.5.3 1.3.3 1.4 0 .6-1.4 1.8-.9 2.7-.9.3 0 .8-.6.6-.9s0-.5.2-.7c.3-.5.4-.9-.2-1.2-.3-.2-.4-.5-.1-.6.8-.4 1.6-.7 2.4-.9.5-.1.5.3.3.7-.4.8-.2 1.5.2 2.3.2.6.5 1.1 1.1 1.1.8 0 .7-.7.7-1.3.1-1 .5-1.5 1.5-.9.8.4 1.7.7 2.2-.1.6-.9.8-2.3-.2-3-1.8-1.3 0-1.5.5-2.1.2-.3.8.1 1.1-.4-.6-.8-.6-.8 0-1.3 2.4-1.8 3.9-3.9 3.6-7.1-.1-1.3 1-1.9 2.1-1.3.9.5 2.9-.2 3-1.1.1-1.3 1.2-1.8 1.8-2.7 1-1.3 1.8-2.8 1.6-4.6-.3-2.2-.9-4.2-2.6-5.7-.4-.4-.4-.8 0-1.2.5-.4.8.1 1 .4.2.2.3.5.4.8.7 1.2 1.3 2.5 2.4 3.4.3.3.6.4.9.3.4-.2.3-.5.3-.8.2-1.3-.3-2.4-.9-3.4-.2-.4-.4-.7-.5-1.1 0-.3 0-.5.3-.6s.5.1.5.4c.1.9.7.9 1.3.9 1.3 0 2.1 1 2.3 2 .5 2.2.6 4.5.4 6.7-.1 1.9-.6 3.8.6 5.5.4.6.4 1.4.2 2.2-.7-.6 0-1.5-.7-1.9-.5-.3-1-.3-1.5-.1-.8.2-.9.9-.9 1.6 0 2.1.5 4.1-.1 6.2-.2.5-.4 1.2-.1 1.8.7 1.1-.6 1.7-.7 2.4s.8 1.6.1 2.3c-.8.8-.3 1.5-.2 2.3.2.8.8 1.2 1.6 1 .9-.2.7-.8.6-1.4-.1-.5-.1-1.1.2-1.6.1-.2.4-.2.5 0 .4.5.6 1.1.4 1.7-.1.2-.2.4-.2.6.3 1.7-1.5 3.1-.9 4.9.1.2 0 .5-.1.6-1.3.5-.6 1.3-.2 1.9.6 1 .8 2 0 3-.3.4-.3.9-.1 1.3.3.4.1.7 0 1.2-.5 1.8-2.5 2.8-2.7 4.6-.1 1.4-1.7 2.8 0 4.2.4.3 0 .5-.2.8-.5.8-1 1.7-1.8 2.3-.6.5-.9 1.3-.5 1.7.5.6.9-.2 1.4-.5 1.6-1 2.6-2.8 4.7-3.2.7-.1 1.5-.1 2.4-.5-.5-.2-.9-.2-1-.4-.2-.4.3-.6.6-.7 1-.5 1.8-1.6 1.9-2.2-.2-1.3.5-1.9 2-2.1zm-43.9 138.5c-1.5.1-1.6-.5-.9-1.3.6-.7.5-1.7.2-2.1-.5-.7-.2-1.3-.3-2-.3-2.3 1-4.6-.1-6.9-.5-1-.9-2.5-1.6-3-2.1-1.6-4.5-3.1-7-3.6-3.4-.7-4.4-3-5.4-5.7-.3-.9-.6-1.7-1.6-1.9-1.1-.2-1.6.6-2.1 1.2-1.7 2.4-3.5 4.7-6.1 6.2-.5.3-.6.8-.7 1.3-.7 2.6-1.5 5.2-4.3 6.4-1 .4-1.2 1-.7 2.1.8 2 1.4 4 2.2 6.4-1.2-.9-1.6-.4-1.8.4.5.2.9-.1 1.4-.2.4-.1.8 0 .8.5 0 1 1 1.6 1 2.5 0 1.2 1.9 1.9.9 3.3 1.8 1 2 2.8 2.6 4.5.8 2.4 2.9 4.3 3.4 6.9.1.4.4.5.6.8 1.3 1.6 2.6 3.1 3.6 4.9 1.1 2 2.5 3.6 3.9 5.3.8.9 1.9 1.5 2.8 2.2.8.7 1.5.5 2.4.2.9-.4 1.2-1.4 2-1.8 1.3-.9 1.8-2 1.6-3.6-.3-2 0-3.9 1.1-5.7.1-.2.3-.3.2-.5-.4-1.7.4-3.3.4-4.9 0-.8.6-1.1 1.1-1.6.6-.7-1-.6-.9-1.6.2-1.9-.3-3.9-.2-5.8-.1-.9-.1-2.2 1.5-2.9zm14.9 59.6c-1.8-.5-3.9-1.8-5-3-.3-.3-.5-.6-.5-1.1 0-1.3-.7-1.6-1.9-1.4-.9.1-1.7.2-2.2 1.1-.3.5-.8.6-1.2.2-.5-.4 0-.7.3-1 .4-.3.4-.7.2-1.1-.3-.4-.7-.4-1.1-.2-.8.4-1.6.7-1.9 1.7-.2.8-.7 1.1-1.5 1-.5-.1-1 0-1.5.2-1 .5-1.6.2-1.8-.8-.2-.8-.6-1.1-1.3-1.3a24.13 24.13 0 0 1-2.5-.8c-2-.7-3.6 0-5.2 1.3-.8.6-.7 1.4-1.3 2.1-1.1 1.3-2.5 2.4-3 4.2-.5 1.7-.7 3.3 0 5 .9 2.4 2.3 4.4 4.7 5.4.4.2.9.3.8.8s-.8.5-1 .3c-1.3-1.2-3.1-.6-4.5-1.4-.4-.2-.8-.1-1.1.3s.2.5.3.7c.7 1 1.4 1.9 2.1 2.9.3.4.8.9 1.3.7 1.2-.5 2.1.2 3.2.2 1.5 0 1.9.9 1.6 1.9-.5 1.7.6 1.3 1.3 1.2 1.4-.3 1.6.4 1.6 1.5 0 .5-.2.8-.5 1.1-.2.3-.8.5-.3 1 .4.4.8.6 1.3.2.3-.2.4-.6.9-.6.2 0 .4.1.5.2l-.1.4c-1.3 0-1.2 1.4-1.9 1.9-1.4 1-4.7.7-6.2-.7-.9-.9-1.9-1.8-3.3-.9-.3.2-.7.1-.8-.2-.4-.7-1.1-1.1-1.7-1.6-.2-.2-.5-.5-.3-.6 1.1-.9 0-.6-.4-.7-.2-.1-.4-.3-.6-.5-.6-.8-1.4-.9-2.2-.6-.4.2-.9.4-.7 1.2.2.9 0 1.8 1.3 2.1 1.1.2 2.5 2.8 2.6 3.8 0 1.1.4 2 1.7 2.4 1.6.5 3 1.5 4.7.8a.76.76 0 0 1 .4.2c2.2 1.3 4.5 1.3 6.9.8.8-.2 1.6-.2 2.4-.3.5-.1.9 0 1 .5.5 2.1 1.9 2.8 4 2.6.8-.1 1.5-.1 1.5 1.1 0 .6.4.7 1.1.4 1-.5 1.8-1.4 2.7-1.8 1.3-.5 1.9-1.3 2.4-2.3.8-1.5.6-1.5-1-1.5-1.9 0-3.8.2-5.7.3-.2 0-.5 0-.7-.2-.1-.2 0-.4.2-.5 1.7-1.6 3.5-3.1 5.8-2.8 2.3.2 3.4-1.6 5.3-2.1-1.4-.6-2.8-.8-3.9-1.8-1.4-1.2-1.5-1.9-.2-3.2.2-.2.4-.6.6-.1s.4.3.7 0c.4-.6 1.2-.6 1.7-.9 1.6-.9 3.2-.9 5-.8-.1-.6-1-.7-.5-1.4.7-1.1.4-1.5-.8-1.5-.7 0-1.1 0-1.6-.6-1-1.3-.9-2.6-.2-3.8s1.8-1.5 3.1-1.5c2.7.1 3.2-.3 3.6-2.9.1-.4.1-.9.6-.9.4 0 .5.4.7.7.2.5-.1 1.4.8 1.1.6-.2 1.6-.3 1.2-1.5-.2-.5 0-1 .6-1.5.8-.6.7-2.4-.3-2.6-2.7-.7-5.3-1.8-8.1-1.9-1.2 0-1.9 1-1.2 1.9.9 1.3 1.3 2.8 2.7 3.7.3.2.8.4.4.8-.3.3-.6.2-.9-.1-.6-.7-1.4-1.2-2.2-1.6-1.2-.8-1.7-2.5-1-3.3zm47.3-201.7c-.6-1.7-.1-3.4-.2-5.1-.1-1.4-.2-2.8.9-3.9.3-.3.3-.8.1-1.2-.3-.4-.7-.4-1.1-.4-1.6 0-2.4 1.3-3.2 2.3-.6.8-1.6 1.7-1.5 2.7.1 1.5-.9 2.9-.6 4.3.2 1.3-1.2 2.3-.4 3.6.1.1-.3.6-.6.6-1.3-.3-1.5.8-2 1.5-.2.3-.4.7-.8.8-1.5.6-1.7 1.3-1.1 2.8.3.6 1.3 1.3-.2 1.8-.4.1 0 .4.3.4.3.1.6.2.3.5-1.1.9-.7 2.1-.8 3.2-.1 2.7-.6 5.3-.8 7.9-.1 1.3 1.7 4 2.9 4.3.8.2 1.4-.2 1.2-1.1-.5-2.8.5-5.5.3-8.3 0-.5 0-1.1.5-1.1s.8.6.8 1.1c-.2 1.5-.3 3.1-.8 4.5-.4 1.3-.2 2.5.4 3.6.5.9 1.5 1.5 2.3.4.9-1.2 1.3-.7 1.9.2.1.2.4.3.6.4.5.5.8 1.1.3 1.9-1.3 1.8-1.1 2.9.9 4.1.9.5 1.6 1 1.7 2.1.1.9.4.7.9.2.9-.9 3-5.6 3.4-7 .6-2.6 1.1-5.3 1.5-7.9.1-.5.2-1.1-.3-1.4-.7-.3-1.1.2-1.2.8s-.9.9-.7 1.6c.1.3-.2.5-.5.5-.4-.1-.1-.4-.2-.6-.5-1.2-.1-1.9 1.1-2.4-.7-.5-1.4 0-1.9-.3.6-2.1.7-2.1 1.9-3.5.1-.1.1-.4.1-.5-.3-.6.2-.8.6-1 .9-.5 1.6-1.3 2.3-2 .3-.3.5-1.1 1-.6.4.3.4.9-.1 1.5-1.1 1.5-.2 3.8 1.3 4.1-.8 2-2.7 3.4-2.7 5.9 0 .7.2 1.3.3 1.9.3 1 1.1 2.2-.3 3.1-.1 0-.1.4-.1.4 1.4.6.2 1.1-.1 1.7-.4 1-.6 1.9-.4 3 .3 1.6 1.5 2 2.7 1 1.7-1.4 2.2-3.6 1.6-5.8-.3-.9-.4-1.9.4-2.8 1.3-1.5 2-3.2 1.9-5.3-.1-1.2-.2-2.5-.1-3.6.4-2.2.5-4.4.7-6.7.1-1.5.3-3 .5-4.5.2-1.3-.3-2.9 1-4l-.1-.2c-1.2-.6-.5-1.6-.4-2.5 0-1.2.6-2.4.2-3.6-.8-2.2-1.5-4.3-1.4-6.7 0-1.7.4-3.3.2-5-.4-2.3-1.5-4.4-1.6-6.7 0-.4-.1-1.5-1.1-1.6-.6-.1-1.2 0-1.5.4-.9 1.2-1.7 2.3-2.4 3.6-.5.9-.7 1.7.8 2 1.6.4 1.8.9 1.2 2.3-1-1.3-2.1-1.7-3.3-1.3-1.3.4-2.9 2.6-2.6 4.3.2 1.1-.2 1.3-1.1 1.5.9.5 1.2 1.2 1.3 2 0 .2-.3.5.3.6 2 .5 4.9-1.5 5.1-3.6.1-.9.2-1.9.4-2.8.3.8.2 1.6.3 2.4.1 1.6.4 3.3 0 4.9-.2.9-.5 1.4-1.3.4-.2-.3-.5-.7-1-.7-1.4 0-2.8.2-4 .9-.4.2-1.1.5-.9 1.3.3 1.9-.6 3.8.1 5.7.1.3.1.7-.4.6-2-.1-2.3 1-2.7 2.1zM267 489.9c-.6-1-.7-1.9.2-2.6 2.1-1.6 4.8-1.9 7.1-3.1 1.2-.6 2.7-1 4.1-1.5.7-.2 1-.8.9-1.5s-.7-.7-1.2-.6c-2 .4-4.1-.3-6.1 0-1.1.2-1.3-.5-.9-1.1.8-1 1.9-1.7 2.9-2.6.4.7-.4 1.7.7 1.8 1 .1.9-.9 1.1-1.6.1-.5.2-1 .4-1.5.2-.8.7-.8 1.3-.3 1.2 1.1 1.4 1.1 2-.4.3-.9.5-1.7 1.5-2.1.7-.3 1-4 .5-4.5-.1-.1-.3-.3-.5-.3-1.3.1-2-.9-3.1-1.2-.2-.1-.5-.2-.5-.5 0-.4.3-.5.6-.5 1 0 1.1-.6 1.4-1.4.5-1.1-.3-2.6.7-3.3 2.2-1.7 2.6-4 3.1-6.4.3-1.9.1-2.5-1.7-3.3-.6-.3-1.4-.4-1.3-1.1.1-2-1-1.8-2.2-1.4-.4.1-.8-.1-1.2 0-1.3.2-2.8-.7-3.8.8-.2.2-.3.2-.5-.1-.9-1.2-1.7-.7-2.6 0-.6.5-.9 0-1.3-.3-.4-.2-.5-.7-.2-.9.9-.7.4-1.5.4-2.5-.8.8-1.7-.3-2.4.6s-1.8 1.3-2.8 1.8c-2.6 1.3-4.8 2.9-5.7 5.9-.2.6-.7.9-1.4 1-.4.1-1.2-.3-1.1.6.1.8.8.9 1.4.7 1-.2 1.5.2 1.4 1 0 .7.5.8.8 1.3.3.6.7.9.5 1.8-.2.8-.4 2.4 1.3 2.8.3.1.9 1-.1 1.4-.1.1-.5 0-.4.2.9 1.6-.6 1.3-1.3 1.6s-1.2.7-1.6 1.5c-.9 1.7-1.9 3.4-3 4.9-.4.5-.9.6-.3 1.3.4.5 0 1.4.7 1.8 1.8 1.1 1.9 1.4.9 3.1.5.5 1 .4 1.6 0 .4-.3.9-.4 1.2.1.2.4.5.9 0 1.4-.7.7-1.3 1.6-2.2 2-1.2.5-1.2 1.6-1.2 2.5-.1.8.5 1.9 1.4 1.8.9 0 1.9 0 2.8-.5.3-.2.9-.6 1.2-.1.2.4.5 1 .2 1.6-.3.4-.5.9-.9 1.2-.5.4-.5.9-.2 1.5s.8.5 1.3.4c1.4-.2 2.4-1.1 3.3-2 .3-.3.7-.7 1-.2.2 1.1.9.8 1.8 1zm42.1-289.8c.1.9.3 1.6 1.5 1.5.7 0 1.1.6 1 1.1s-.3 1.1-1.2 1.3c-2.9.5-5.4 2.3-8.3 2.9-.3.1-.7.3-.6.6.4 1.8-.9 1.7-2.1 2-.6.1-1.2.5-1.8.8-.9.5.3.9.1 1.5 0 .1.7.2.7 0 0-1.5 1.3-.8 1.9-1.2.2-.1.5-.1.7.1.2.3.2.6-.1.9-.2.2-.8.3-.5.8.3.4.7.3 1.1.3 1.2 0 2.4-.5 3.8-.2-.7.9-1.6.9-2.5 1-.8.1-2 .2-2 1 0 .9 1 .7 1.7.7.3 0 .7.1.7.4a.65.65 0 0 1-.6.6c-.6.1-1.2.1-1.8.1-.3 0-.7 0-.8.4s.2.6.6.8c.6.4 1.1 0 1.7 0 1 0 2.4-.7 2.9 0 1.1 1.5 2.3 1.1 3.6.8 2.5-.5 5-1.3 7.5-1.9 1.3-.3 2.3-1.1 2.8-2.4.7-1.9 2.2-3.3 3.6-4.6 1.5-1.3.9-3.1 1.7-4.5.1-.1-.1-.4-.2-.6-1.1-1.8-2.1-2.1-4-1-.6.4-1 .5-1.5-.1s-1.2-.7-2-.5c-2.3.8-3.1.5-4.1-1.6-.3-.8-.4-1.3.8-1.5-.3-.1-.4-.2-.5-.3-.4-.2-.8-.4-.8-.8 0-.8.6-.3.9-.4.6-.2.6-.7.5-1.3-.5-1.8-.2-3.7-.9-5.5-.1-.4.1-.9.4-1.1.4-.2.6.3.8.5.5.6 1 1 1.4-.1.1-.3.5-.4.6-.7.7-1.4 2.8-1.1 3.2-2.8.1-.2.8-.2.8.1-.1.9.8 1.1.8 1.8 0 .5.1.8.6.6.5-.1.9-.4.7-1-1.3-2.7-1-6-2.8-8.6-.3-.5-.5-1.1-.1-1.7.8.4.2 1.5 1.2 1.7.8.1 1.6.4 1.9 1.4.1.4.5.4.8.3.4-.2.3-.7 0-.9-.8-.4-.6-1.2-1-1.8s0-1.4-.6-1.8c-.7-.4-1-1-1.1-1.7-.1-.5-.4-.7-.8-.7-.5-.1-.9.1-1 .6-.2 1.2-.8 1.2-1.8.8-.5-.2-1.1-.2-1.7-.1-.8 0-1.4-.1-1.8-1-.5-1.1-1.6-1.5-2.7-1-1.7.7-3.6.8-4.8 2.4-.3.4-.9.5-1.4.5-2.1.1-4.1.4-5.9 1.3-.4.2-.7.1-1.1-.1-1.6-1-3.9-.9-5.3.2-.1.1-.3.3-.2.3.6 1.3-.3 2.4-.3 3.7 0 .6.1 1.2.5 1.5 1.2.8 1.4 1.1 1 2.5-.2.5-.3 1.6 0 1.6 1.9.1 2.6 1.3 3.2 2.9 1.8-.2 1.4 1 1.4 2.1 0 .9.7 1.5 1.4 1.9.3.2.7.3.8.6.3 1.2.8 1.1 1.8.5s1.9 0 1.8 1.2c-.1.9.4 1.6 1 2.2.3.3.6.3.6-.1 0-1.5 1.2-.9 1.8-.9.8 0 .6.9.6 1.5.3 3 .3 3 3 3.2-2-.7-1.1-1.9-1.2-3zm-36.6 199.8c.5 1.4.7 2.6 1.3 3.4.8 1 .9 2.1.7 3.1-.1 1.1.2 1.8 1.2 2s2-.2 2.1-1.3c.1-1 .7-.8 1.2-.8.7 0 .8.5.7 1.1 0 .3-.3.6 0 .9.9 1.3 3.7 1.3 4.3-.3.6-1.4 1.5-2.2 2.7-2.9.8-.5 1.2-1.2.6-2-.5-.6-.3-1.1 0-1.5.4-.6.6-1.3.6-2-.1-2.3 2.2-3.7 3.8-3.6.6.1.9.3 1.3.8.9 1.2 2.1 2.2 3.8 2.3a1 1 0 0 0 1-.6c.2-.5 0-.9-.4-1-.7-.2-.9-.8-1.1-1.4-.7-1.4-1.9-2.1-3.4-2.2-.5 0-1.1-.1-1.2-.5-.1-1.1-1-1.3-1.7-1.5-2-.6-3.5-1.9-5-3.2-.4-.4-.9-1-.9-1.5 0-1.6-1.1-2-2.2-2.6-.5-.3-1-.4-.9-1.1.2-1.5-.7-1.2-1.7-1.1s-.5-1.7-1.7-1.5c-.1 0-.2.1-.3.2-.5.7-1.4 1-1.5 1.9 0 .3 0 .6-.5.6-2.2-.2-4 .5-4.8 2.8 0 .1-.1.1-.2.2-1.6 1-1.6 2.9-2.1 4.4-.2.4 0 .9.5.9 1.1.1.9.7.7 1.4-.1.5-.3 1.1-.2 1.5.4 1.1 0 1.8-.7 2.6-.5.6-1.2 1.4-.6 2 1 1.2.6 1.9-.4 2.5-.3.2-.6.3-.5.7s.4.4.7.4c1.5-.2 1.7.9 1.8 1.9.1.6-.1 1.2-.1 1.8 0 .7.3 1.2 1 1.4.5.1.9.7 1.4.3 1.2-.8 2-4 1.2-5.2-.6-.9-.6-1.8-.5-3.3zm38.7-27.4c.6 1.2.5 2.3 0 3.3-1.2 2.4-.1 5.2-1.3 7.5 0 .1 0 .2.1.3.9 2.2.6 4.4.3 6.7-.2 1-.7.9-1.4.7-.5-.2-.7-.7-1-1.1-.2-.2-.2-.6-.6-.5s-.6.3-.6.7c.1.7-.3 1.1-.7 1.5-1.2.9-1.9 2.4-3.1 3.4-.4.3-.6.6-1.1.7-.6 0-1.6-.3-1.6.7 0 1.1-.1 2.6 1 3.2 1.5.8 3.3.9 5 .3 1.3-.4 1.7-1.2 1.3-2.5-.3-.9.9-2.1 2.2-2.1 1 0 1.2 1.1 1 1.9-.6 3-.5 3.5 3.3 3.2h.5c.8 0 1.4-.2 1.9-1.2 1.2-2.7 1.6-2.7 4-1.9.9.3.9.7.5 1.4-1 1.7-1 1.7 1 2 .3 0 .5.1.8.1 1.9 0 2.6-.8 2.5-2.6 0-.7-.4-1-.7-1.5-.3-.6-.9-1.3-.6-1.7.9-1 0-1.5-.3-2.3-.3-.6-.6-1.1-.6-1.7.1-1.9-.9-3.5-1.2-5.3.2-.2.8.3.9-.4-.3-.3-1.1.1-1-.6.1-.5.7-.3 1-.4.5-.1 1.3-.4.8-.9-.7-.8-.8-1.9-1.3-2.7-1.2-2-.8-3 1.4-3.4.2 0 .4-.1.4-.5-1.2.3-.9-.5-1-1.2-.1-.6.5-1.4-.2-1.7-1.5-.7-.9-1.9-.6-2.7.3-.9.3-1.8.7-2.7.4-.8.2-1.6-.9-1.9-.7-.1-1.3-.5-1.9-.9-.9-.6-2.1-.6-3 .2-.7.6-.9 1.4-.4 2.3.4.6.1 1.2-.1 1.8-.3.7-.8 1.5-.6 2.2.2 1.1-.5 1.7-.9 2.6-.5-.4-.3-.7-.2-1.1.1-.9-.1-1.8-.6-2.4-.3-.3-1.1-.9-1.2.1-.3 1-1 1.2-1.9 1.1zm17.4 25.1c1.3.7 1.9 1.1 2.4-.5.2-.8.4-2.3 1.4-2.3.8 0 .3 1.4.6 2.1.5 1.2.7 2.5-.6 3.4 1 1.1 2.2 1.3 3.4 1.4.6.1 1.1.3 1.4.8.3.7.7 1.8 1.6 1 .8-.8 1.7.3 2.4-.4.1-.1.2-.4.1-.5-.5-1.5.3-1.5 1.4-1.4 1.5.1 1.9-.3 1.6-1.8-.1-.2-.3-.5-.1-.7.8-1.7.1-3.4-.4-5-.6-1.8-1.2-2-2.9-1.1.2.2.6.3.6.5-.2 1.3-.4 2.6-.7 3.9-.1.4-.6.5-.9.2-.5-.7-1.3-.7-2-1-.5-.2-.8-.5-.6-1 .4-1-.1-1.9-.3-2.9-.4-1.8-.2-3.7-.3-5.5 0-.6.3-.8.7-.8.7 0 .6.4.4.9-.2.4-.1.6.1 1 .6 1.3 1 2.5.3 3.9-.2.5.2.9.6 1 .4.2 1 .3 1.2-.2.3-.9.3-1.8.4-2.7.2-1.8-.8-3.6.2-5.4.1-.2.1-.5-.1-.5-1.1-.5-1-1.5-1.2-2.3-.2-1.1-1-1.4-1.8-1.2-1.1.2-1.7.1-1.6-1.2 0-.3-.2-.7-.7-.7-.4 0-.8.3-.9.7s.3 1.2-.5 1.2c-.7 0-.9-.6-1-1.2-.2-.6-.4-1.1-.5-1.7-.4-1.5-.2-3.1-1.1-4.4-.7-1.2.4-2.2.1-3.3-.1-.3.6.1.7-.3-1.1-.1-1.7-.8-2.1-1.7-.4-1-1-1.2-2-.9.7.5.7 1.1.4 1.7-1 1.8-.6 3.8-.8 5.7 0 .4-.1.8.4 1 .3.1.7.2.3.6-.2.2-.6.3-.8 0-.5-.5-1-.8-1.6-.2-.7.7.1 1.2.3 1.8.1.5.6.7 1.2.9 1 .3 1.1 1.6.2 2.1-1 .5-.8.9-.2 1.5 1 1.2.9 2-.5 2.8.8.7 1.3 1.5-.2 2.3 1.3.2 2.3.7 1.7 1.8-.6 1.2-.3 2.1 0 3.2.4 1.1.9 2.2 1.4 3.3.2.7.7 1.7-1.1 2.1zm-78.8 107.1c1.3.3 2.1 1.4 3.3 2 2.5 1.2 4.6 1.3 6.9-.2.3-.2.7-.3.8 0 .6 1.1 1.7 1 2.6 1.2 1.2.3 3.2-.4 3.7-1.5.7-1.4-.4-2-1.4-2.6-.3-.1-.4-.3-.4-.6.1-.4.4-.4.7-.4.4 0 .8.1 1.2.3 1.1.4 1.9.3 2.5-.7.2-.4.5-1 .9-.8 1.4.5 2.3-.5 3.4-.8.8-.2 1.3-.8.8-1.8s.2-1.1.9-1c.5.1 1.1.2 1.4.6.9 1.3 2 .9 3.2.5 1.1-.4 1.6-1.9.7-2.7-.6-.5-.8-1.2-1.3-1.7-.8-1-.1-1.2.6-1.4.3-.1.7 0 1.1-.1 1-.1 1.3-.6 1.3-1.6-.1-.8 0-1.6-1.2-1.5-.7 0-1.2-.2-1.5-1-.4-1.1-1.4-1.3-2.4-.9-1.4.5-2.5 1.6-3.4 2.7-.2.2-.3.4-.6.4-.2-.1-.3-.2-.3-.5.2-1.1-.5-1-1.2-.9s-1.3.3-1.9.6c-1.9.9-4.1.9-5.9 2.4-1.3 1.1-3 1.1-4.7.7-2-.5-3.7.3-5.3 1.4-.5.4-.5.7-.3 1.1 1 1.7 2.1 3.2 4.4 2.6.5-.1 1-.1 1.5-.2s.9-.2.8.6c-.1.3.2.6.6.5.2-.1.5-.5.4-.5-.9-1.3.4-1.1.9-1.4 1.1-.6 2.4-.9 3.2-1.9.4-.5.9-.6 1.4 0 .4.5.6 1 0 1.6-.3.3-.6.5-.9.8-1 1-2.7 1.2-2.8 3 0 .2-.4.6-.6.7-2 .5-3.7 1.6-5.7 2.1-1.1.3-2.2.4-3.5 0-1.2-.5-2.2 1.7-3.9.9zM317.5 276c.4-.2.7-.5.3-.8-.9-.7-.7-1.7-.9-2.5-.2-1 .2-1.6 1.3-1.6.4 0 .8 0 1.2-.1 1.1-.2 1.4-1.1.6-1.9-2.4-2.4-3.7-5.7-6.4-7.9-1.1-.9-1.2-2.5-2.5-3.2-.5-.3-1.2-.6-1.3-1-.4-2.6-3.1-3.2-4.6-4.8-1.6-1.7-3.7-3.3-6.1-4.1-1.4-.5-2.6-1.4-4.1-1.6-.3-.1-.6-.3-1 0-.8.8-1.4 3.1-.8 4l1.2 2.1c.9 1.5 2.3 2.2 3.5 3.2 1.1.9 1.1 2.6 2.6 3.1.7.2.9 1 1.1 1.6 1.3 2.7 1.3 2.7 4.2 2.3.5-.1 1.1-.1 1.2.6.2 1.7 1.5 2.7 2.2 4.1.9 1.9 1.7 3.9 2.6 5.8.5 1.1 1 1.5 2.1 1.4 1.1 0 2.4-.6 3 1 .2.2.4.2.6.3zm21.3-.5c-.6.3-1.4-.8-1.9.3-.2.4.4 1.2-.3 1.3-.6.1-.6-.9-1.1-1.1-.4-.2-.2-.6-.3-.8-.2-.4-.7-.5-.9-.2-.3.6-1.3.1-1.3.9 0 .4.3 1.1.9.8.9-.4.7.1.7.6 0 1.5.9 2.2 2.1 1.5.8-.4 1-.1 1.1.6.1.6.3 1.3.1 1.8-.4 1.7-.8 3.3-.5 5.1.1.6 1 1.5-.1 2.2.4.2.3.9.9.9.3 0 .8-.2.7-.4-.3-1 .7-1.2.9-1.9s1-1.5-.5-1.6c-.5-.1-.6-.5-.4-.8.3-.6.1-1.1.1-1.6 0-.3-.1-.8.4-.9.4-.1.7.1.9.4.6.7.1 1.2-.4 1.7.5.2 1.1-.2 1.1.3-.1 1.2 1.3 1.9 1.1 3.1-.1.5.1 1 .2 1.5.5 2.4 1.5 4.7.2 7.2-.7 1.4.6 2.6 1.7 3.4 1.2 1 2.4.1 3-.8.5-.7 2-.6 1.8-1.8-.1-.8.3-1 .8-1.3.8-.5 1.7-1 2.5-1.4.5-.3 1-.8.9-1.3-.5-1.9-.4-4-1.6-5.6-1.3-1.9-2.4-3.8-3.6-5.7-1.8-2.9-4.3-5.1-6.4-7.6-.3-.4-.9-.6-1.2-1-1.3-2.4-3.4-4-5.3-5.9-.3-.3-.8-.6-1.2-.2-.4.3-.3.8-.1 1.1.7 1.2.7 2.7 1.8 3.7.6.5.2 1 0 1.5 1.6-.7 2.6 0 3.2 2zm-98.3 108.6c.7.8.4 1.2-.3 1.9-.9.8-2 1.6-2.4 2.9-.3.9-1.3 1.3-2.1 1.6-.6.2-.9-.5-1-.7-.2-1.1.4-2.1.9-2.8 1.2-1.6 2.3-3.4 3.4-5.1 1.5-2 3-4 4.4-6.1.5-.8 1.2-1.4 1.2-2.4 0-.4.7-.8.2-1.2s-1-.5-1.6-.3c-.9.4-1.8.8-2.2 1.8-.1.4-.4.8-.7 1-1.8 1.4-2.7 3.5-4.2 5.2-.5.6-1.7.8-1.1 2 0 .1-.2.3-.4.4-1.2.6-1.7 1.7-2.3 2.7-.5.9-1.3 1.4-2.1 1s-.8-1.3-.3-2.2c1-1.7 1.8-3.5 3-5.2 1.5-2.2 3.3-4 4.7-6.2 1.3-2 2.9-3.8 3.7-6.1.2-.5.1-.8-.2-1.1-.4-.4-.9-.3-1.3-.1-.7.5-1.4 1-2 1.9-1.3 2-2.8 3.8-4.3 5.7-.5.7-1.7.9-1.2 2.1.1.3-.3.5-.6.6-1 .2-1.5 1-1.7 1.8-.3 1-1.1 1.7-1.7 2.5-.7.9-1.3 1.2-2.3.5-.9-.7-1.4-.3-1.3.7.3 2.5.9 4.9 3.2 6.4.5.3.9.5.8 1.1-.2.9-.3.9.8.9.3 0 .6.2.8.4 1.4 1 3 1.8 4.4 2.8 2.2 1.5 5.1 2.1 8 1.7.7-.1 1.2-.4 1.4-1.4.1-.8.4-1.8 1.9-1.5-1.3-1.3-1.6-1.3-2.5-.6-.6.4.3.7-.2 1.2-.8.7-1.6.9-2.5.5-.7-.3-.7-2-.1-2.8 1-1.3 2-2.6 3.1-3.8 1.2-1.4 2.2-2.9 2.8-4.6.5-1.2 1.7-2.1 1.3-3.6-.2-.5-.3-.9-.9-.5-2 1.4-3.3 3.4-4.7 5.3-.5 1-.8 1.6-1.8 1.7zM302.2 227c-.1-1 0-1.9-.8-2.1-1-.2-1 .9-1.2 1.5-.3 1-.9 1.2-1.7.9-.5-.2-.9-.2-1.3 0-1.2.5-2.5-.8-3.7.1 0 0-.2-.2-.2-.3-.1-1-.9-1-1.3-.5-.5.7-1.5 1.6-.8 2.4.9 1 2.1 1.7 3 2.6 1.1 1.1 2.5 1.6 3.8 2.2 2.2 1.1 3.9 3.1 6.3 3.8 1.6.4 2.5 1.8 4.1 2.3.9.3 2.1 0 2.4 1.4.1.4 1.2.2 1.3-.3.1-.7.6-1.4.4-2.2-.4-1.7-.9-3.3-.9-5 0-1-.3-1.7-1.6-1-.8.5-1.3-.2-1.3-.9 0-.2.4-.5.7-.7.6-.4.6-.9.2-1.4-.4-.6-.6 0-.9.1-.8.4-.8-.3-.6-.7.7-1.7-.6-1.7-1.5-1.7-1.5.1-2-.2-1.3-1.7.3-.7-.1-1.3-.8-1.6-.9-.4-.9.5-1.2.8-.5.6-.7 1.2-1.1 2zm-24 24.5c1.2 1 1.2 1.4.1 2.8-.5.6-1.6 1.1-1.4 1.8.2.9 1.5.7 2.3.9 1.7.4 3.1 1.6 4.9 1.6.7 0 1.6.1 2-.8 1.3-3.2 3.9-5.7 5.7-8.6.7-1.2 2.1-2.3 1.6-3.8-.6-1.6-2.3-2.6-4-2.8-1.8-.2-3.5.2-4.4 2.1 1 .6 1.7-.6 2.7-.2-1.2 0-1.7 1.9-3.4 1 1 .7 1 1.1.2 1.8-.9.7-1.7 1.5-2.6 2.3-1.2.9-1.3 3.6-3.7 1.9zm36.9 100.3c-1.4-.2-2.4-.8-2.9-2.1-.2-.5-4-.2-4.3.2-.1.1-.1.2-.1.3.1 3-2.8 5.1-2.5 8.2 0 .1 0 .3-.1.3-1.1.3-1.5.9-1.4 2.1.1 1.1-.4 2.1-.4 3.2 0 .9.3 1.9-.4 2.8-.8 1.1.6 1.3.9 2 .2.6.9.2 1.2 0 .7-.5.3-1-.1-1.6-.3-.4-.4-1 .3-1.3.7-.4 1.7-1.6 2.2-1 1.4 1.6 2.7.6 4.1.3.2 0 .6-.1.4-.3-.6-.8.4-1.4.3-1.7-.6-1.1 1.2-1.4.7-2.1-.9-1.2-.1-2.3.4-2.9.9-1 2.4-1.5.7-3 .9-1.3 0-2.1-1-2.8.5-.5 1.2-.7 2-.6zm.5-94.5c-.7-.3-1.7.1-2-1-.1-.4-.5-.9-1-.6-.8.5.1.7.2 1 1.1 1.9 2.6 3.4 4.2 4.9.2.2.6.4.9.5s.8 0 .9-.4c.2-.3-.2-.5-.4-.7-.8-.7-1.1-1.7-1.7-2.6.7 0 1 .4 1.3.7.4.6.9 1 1.5.6.7-.4.8-1 .4-1.7-.3-.5-.4-1.1.4-1.4s.8-.3.3-1c-.1-.1-.1-.3-.1-.4.5-1.1-.2-1.8-.7-2.8-1.6-2.7-3.8-4.6-6.5-6-1-.5-1.8-.9-1.9-2.1-.1-1.1-1.1-1.3-1.8-1.2-.8.1-1.3.9-1.2 1.7.1.9.3 1.9 1.4 2.1.3.1.6.3.5.7s-.4.1-.6.1c-2.4.2-4.3-.7-5.8-2.5-.5-.6-1.3-.7-1.9-1-.2-.1-.4 0-.5.2s0 .5.2.5c1 .2 1.4 1.3 2.2 1.6 2.5 1 4.1 3.2 6.2 4.7 1 .7 1.4 2.2 2.4 2.7 1.4 1.1 2 2.4 3.1 3.4zm-2 157.8c-.3-.6-.6-.5-1-.6-.8-.1-1.6-.1-2.4-.3-.4-.1-1.1-.3-1.1-.9 0-.5.6-.6 1.1-.6l9.1.2c.9 0 1.5.9 1.1 1.4-.8.8-.6 1.7-1 2.5-.3.5-.4 1-1 .9-2.2-.1-4.4.2-6.6-.5-1.1-.3-2.4-.3-3.6-.3-1 0-.7.8-.8 1.4 0 .2-.1.4-.2.6 0 0 .2 0 .2.1 2 .9 2.5 2.5 1.6 4.5-.3.8-.5 2 .6 2.1 2.4.2 4.9.7 7.4.5.5 0 1.2-.2 1.2-.8.2-2.1 1.9-3.8 2-5.9.1-2.6 1.3-4.4 2.9-6.2 1-1.1 1-1.4-.5-1.6-4-.6-8.1-.4-12.1-.2-1 0-2.1.8-2.8 1.7-.4.5-.5 1 .4 1.5 1.7 1 3.5.8 5.5.5zm31.1 197c.4 1.9 1.7 2.4 3.1 2.8 1.6.4 2.8 2 4.7 1.7 2.4-.3 4.6-.7 6.4-2.7 1-1.1 2.8-1.7 2-3.8-2.9 2-6.1 3-9.6 3.3-.7 0-1.5.3-1.7-.4-.2-.8.8-1 1.4-1.4.4-.2.7-.2 1.1.1.3.2.8.4.9-.3.1-.6.6-.6 1-.8 2-1.3 4.4-2.1 5.9-4.2.2-.3.7-.4.5-.9-.2-.4-.5-.5-.9-.5-1.6.1-3.5-.1-4.7 1.1-1.7 1.6-3.8 2.3-5.7 3.4-.9.5-2.1 1-2.6 1.9-.4 1.1-.9 1.4-1.8.7zm12.8-37.7c.5.4 1.5-.2 1.3.9-.1 1-.3 2-.3 3-.1 1.9-.8 3.8-.3 5.9.4 1.4-.2 3.1-.3 4.6-.1 1.4 0 2.9-1.1 4-.1.1 0 .3.1.4 1.1 1 .2 1.8-.4 2.3-1 .9-1.2 2-1.5 3.2-.1.5-.5 1.2.1 1.5s1.3-.3 1.7-.8c.3-.4.2-.9.9-1.1.9-.2 1.8-.6 1.7-1.9 0-.3.3-1.1.9-1.2.7-.1.3-.4.4-.8.2-1.6 0-3.1.1-4.7.2-1.8.3-3.6.4-5.4.2-2.7-.1-5.5-.3-8.2-.1-1.2-.1-2.4.3-3.6.2-.5.3-1.3-.5-1.6-.7-.2-.9.5-1.2 1-.2.2-.5.4-.4.8.3 1.5-.3 1.9-1.6 1.7zm-74.8-255.3c.4-.1.6 0 .8.2.5.7 1.2.9 1.9.3.8-.7 2.3-1.1 2.1-2.3-.3-1.3.4-1.7 1.1-2.4 1-.9 1.8-1.8.7-3.3-.4-.5-.4-1.1.2-1.7.6-.5 1-1.5.9-2.3-.1-.7-1.1-.1-1.6-.4-.3-.1-.7-.3-1-.4s-.7-.1-.8.2c-.6 1.4-1.8 2.6-1.5 4.3.1.5.1 1.1-.6 1.2a.9.9 0 0 0-.6.6c-.2 1.7-1.6 2.9-2.2 4.5-.3.7-.4 1.8-1.2 2.4-1.2.9-1.9 2-1.7 3.6.1.5 0 1 .6 1.2s1.1-.1 1.5-.5c1.2-1.4 2.4-2.9 1.3-4.9 0 .1.1-.2.1-.3zm25.4 59.1c-.3-.7-2.4.2-1.4-1.6 0 0-.3-.3-.5-.3-.7-.1-1.3-.2-2-.1-2 .3-3.1 0-4-1.8-.4-.7-.7-1.3-1.5-1.2-1 .2-.7 1.1-.8 1.8-.1.3.1.7 0 1.1-.1 1.5.5 3.2-.1 4.6s.4 1.6 1.1 2.1c1 .6 2.4.8 3 1.6.9 1.3 1.7.6 2.5.3s.7-.8 0-1.2c-1-.5-1.8-1.3-2.8-2 .7-.3 1.2-.3 1.9-.1 1.1.4 2.6 1.8 2.6-.9 0-.1.3-.2.5-.3.7-.4.6-.9 0-1.3-.1-.1 0-.3-.1-.5.8 0 1.2.2 1.6-.2zm3.8-84c.3.5.4.7.5.9s0 .5.1.7c.3.8 1.2 1 1.7.5.3-.3.8-4 .5-4.3-.7-.8-1.2-1.8-1.8-2.6s-1.1-.9-1.7-.6-1 .1-1.5-.1c-1.6-.6-3 .6-3.1 2.3-.1 1 .6 2.1 0 3-.5.6.3 1.6-.7 2 .9.2 1.6.9 2.6.7.8-.1 1.4.4 2 .6.9.3 1.4.1 1.2-1 .1-.5 0-1.1.2-2.1zm-8.1-14.5c.8 1.1 1.4-.2 2.2.3.9.6 1.9.8 3.1.8.9 0 1.7.4 1.8 1.7.1 1.1.9 1.9 1.8 2.6s1.9.3 2.2-.8c.2-.7.4-1.3.2-2.1-.4-1.5.6-2.5 2.1-2l1.8.6c.7.2 1-.2 1.1-.7.2-.6-.4-.6-.7-.8-.7-.4-1.6.1-2.4-.5-.9-.8-2-.8-3.2-.7-1.1.2-2.2.3-3.2-.7-.9-.9-3.5-.4-4.1.7-.7 1-1.5 1.5-2.7 1.6zm-76.9 287.4c-.5-.5-1.1-.8-.9-1.1 1-1.1 0-2.6 1-3.7.3-.3 0-.8-.3-1-.4-.3-.7 0-.9.3-.5.8-1.2 1.3-1.4 2.3-.4 1.5-1.1 3.1-1.9 4.5-1.3 2.3-2.9 4.4-3.4 7.1-.3 1.5-1.2 2.8-1.3 4.5-.1 1.4-1 2.5-.4 4.2.5 1.6.5 1.9 2.1 1-1.3-1.3-.3-2.9-.5-4.3-.4-2.1 1.4-3.6 2.4-5.1 1.7-2.5 2.5-5.5 4.1-8.1.4-.9.7-.6 1.4-.6zM282.6 426v-.5c-1.8-2.3-4.5-2.9-7.1-3.6-1-.3-2.3-.3-3.2-.8-2.5-1.4-5.1-1-7.7-.9-.5 0-1.2.4-.9 1 .3.7.5 1.4.9 2.1.6 1.1 1.6.2 2.1.7 1.4 1.2 2.8.7 4.3.2.7-.2 1.8-.8 2.2-.1.8 1.1 1.6.9 2.6.7 2.5-.8 4.5.3 6.8 1.2zm-2.2-76.1c-.5.1-.9 0-1.2.7-.3.8-.9 1.6-1.4 2.3-.2.4-.6.8-.4 1.3.1.3.5.4.8.3.6-.1 1-.4.9-1.1s.2-.8.8-.8c.9 0 2.8 1.8 2.8 2.7.1 1.4 1.2 2 2.4 1.3.7-.4 1.7-3.1 1.3-3.6-.7-.9-.4-1.4.3-1.9.5-.3.6-.8.1-1.1-1.8-.9-3.6-1.8-5.5-2.5-.6-.2-1.4 0-1.4.8-.1.6.5.9 1.2 1 .4 0 1.1 0 .9.6-.1.5-.7.3-1.1.2-.2-.1-.4-.1-.5-.2zm-1.4 94.2c1.1 1.5 3.1.4 4.3 1.4.1.1.6-.1.8-.3 1.3-1.1 2.7-1.6 4.4-1.7 1.4-.1 1.9-1.1 1.4-2.2-.2-.5-.5-.6-1-.6-1.8 0-2.8-1.7-4.5-2-.3 0-.1-.6.2-.7.7-.2.4-.6.1-.9-1-1.1-1.7-.4-2.7.3-1.1.9 0 1.4.2 2 .2.5 1 0 1.3.4-1.4 1.7-3.7 2.1-4.5 4.3zm4.7-11.4c-.9-1.5-3.8-2-4.7-.6-1.3 1.9-3.3 3-4.8 4.6-1.3 1.3-2.9 2.3-2.7 4.5.1 1.4.8 1.9 2 1.4.6-.2 1.1-.4 1.8-.2 1.2.4 1.2-1.1 1.8-1.7.4-.4 0-.6-.4-.8-1.3-.7-1.4-1.2-.2-2 .8-.5 1.9-.8 2.2-1.5 1.3-2.2 3.2-2.8 5-3.7zm47-84.1c.9.7 1.9 1.2 2.7 2s3.6.7 3.8-.2c.3-1.4 1.6-2.1 2.1-3.3.4-.8.9-1.8.1-2.7-1-1-4.4-1-5.3 0-.5.5-1.1.9-2 .6.9 1.2.7 1.7-1.4 3.6zM280.3 246c.7.1 1.3-.1 1.8-.7 1.5-1.6 2.3-3.8 3.9-5.4.4-.4 0-1-.5-1.1-.7-.1-1.9-.8-1.9.8 0 .5-.4.6-.8.7-.9.3-1.6 0-2.4-.3-.4-.2-1.1-.5-1.2 0-.4 1.2-1.4 1.5-2.2 2-1.1.8-1.4 2.6-3.2 2.5-.3 0-.5.3-.4.7s.5.4.8.4c2-.2 4.1 0 6.1.4zm70.5 75.4c0 .1.1-.2 0-.3-.9-.9-1.2-2.1-1.6-3.3-.1-.5-.7-.1-.8.2-.4.9-.9 1.8-.6 2.8.1.3 0 .8.5.9.4.1.6-.1.7-.4.1-.2.3-.5.6-.3.2.2.3.5.1.7-.1.3-.3.5-.5.8-.9 1-1.2 2.4-1.5 3.7-.2.9 1.1 1 1.3 1.7 0 .1.2.1.2.2.7 1.7 2.1 1.7 3.6 1.3 1.3-.4.6-2.3 2.1-2.6-.9-.6-.6-2.1-1.9-2.5-1.1-.4-2.4-.9-2.2-2.9zm-1.3 93.1c-.6-.9-1.5-.9-2.4-.8-.4.1-.8.1-1.2.1-3.2-.6-5.8 1.1-8.6 1.9-.4.1-.7.5-1.1.9-.6.5-.5.9.3 1 .9 0 1.2.4 1.2 1.2 0 .5 0 1 .5 1.1s.7-.4.9-.7c.8-.8 1.4-1.9 2.8-.8.3.2.7-.1.9-.4.3-.4.7-.5 1.2-.4 1.2.1 2.1-.5 2.5-1.6.3-.7.7-.9 1.4-1 .6.1 1.1 0 1.6-.5zm-24.7-59.2c.9-.4-.1-1.8 1-2.2 1-.3 1 .7 1.3 1.3.1.1.2.3.3.3.8.2 1 1.8 2 1.1.5-.3-.2-1.3-.2-1.9.1-1.5-.8-1.9-2.1-1.9-2.4 0-4.8-.1-7.1.3-1.1.2-1.3.6-1.4 1.8-.2 1.8 2.6 1.2 2.1 3l.1.1c1-.4 1.7.3 2.5.8.4.2.8 0 1.1-.3.9-.7.9-1.4.4-2.4zm-86.8 6.4c0-.4-.1-.6-.3-.7-.7-.3-1.5 0-1.9.4-1.4 1.7-3 3.3-3.9 5.2-.9 2.1-2.4 3.8-3.7 5.6-1.1 1.5-1.8 3.3-3.3 4.6-.3.3-.3.7 0 1 .3.2.6.3.9.1.8-.5 2.2-1.2 2.4-1.6.6-1.9 1.8-3.3 2.9-4.8.7-1.1 1.4-2.1 2.4-2.9.3-.2.7-.2.7-.7 0-1.3.9-1.9 1.7-2.8 1-1 1.5-2.3 2.1-3.4zm17.2-116.1c.3.1.4.1.5.1 2.3.3 4-.3 4.7-2.8.3-.9.2-1.1-.5-1.2-.6-.1-1.5 0-1.7-.8-.3-1.2-1.2-1.1-2-1.1-1.6 0-3.2.3-4.6.9-.9.4-2.8 1-2.3 2.3.5 1.5 2.1.7 3.2.3 1-.3 1.9-.7 3-.7.8 0 1.3.3.6 1.1-.7.6-.7 1.2-.9 1.9zm37.3 155.9c.8 1 1.6 1.8 3 1.6.7-.1 1.5 0 1.9.7.3.5.8.5 1.2.5.7-.1 1.2.1 1.7.5.7.6 1.5.5 2.3.1 2-.9 3.9-2.1 6.2-1.5.2.1.5-.1.7-.2.3-.1.6-.3.5-.7s-.4-.4-.7-.3c-.6.1-1.1 0-1.7-.1-3.7-.6-7.5-.7-11.3-.7-1.1-.1-2.4.4-3.8.1zM275 506.6c1-.1 1.7-.2 2.2-.7.6-.7 1.3-1.1 2.3-1 .9.1 1.8-.1 2-1.1.2-.9-.3-1.7-1.2-1.9-1.7-.4-3.3-1.8-5.1.1-1 1-2.4 1.5-3.8 1.8-.4.1-1.2.6-.5 1 1.3.7 2.9 1.3 4.1 1.8zm.6-208.4c-.4.6-.1.9.3.9.6.1 1.2-.2 1.5-.8.5-.9.8-2 1.5-2.8 1.6-1.8 2.2-4.1 3.6-6 .3-.5.7-1.3-.2-1.7-.8-.4-1.3.1-1.6.7-.6 1-1.4 1.7-2.4 2.2-1.4.7-2.1 2.3-3.4 3.2-.2.2-.3.5-.1.7 1.3 1.1.6 2.5.8 3.6zm-4.4 135.7c0-.8-.3-1.2-1.2-.9a4.45 4.45 0 0 0-2.1 1.2c-1.1 1.4-2.2 2.8-4.1 3.1-.4.1-.7.3-.7.7-.2 1.2 2 3.7 3.3 3.7.3 0 .7-.1.8-.4.3-1.6.7-3 2.7-3.1.3-1.4 1-2.7 1.3-4.3zm-25.5 191.3c-1 .3-2.1.6-3.2.9-.5.1-.8.6-.8 1-.1.6.6.4.9.5 1.2.4 2.7.5 3.5 1.4 1.5 1.5 2.4.7 3.7-.1.7-.5 1.5-.7 1.7.6.3 1.3 1.6 2 2.7 1.7.6-.2 1-.8.6-1.1-1-.9-1.5-2.4-3.2-2.7-1.8-.4-3.7-.8-5.3-1.9-.1-.3-.3-.3-.6-.3zM335 406.3c-.3-.1-.8.6-1.1-.1-.2-.5-.1-1 .3-1.5.3-.3.8-.7.4-1.2-.5-.5-1.3-.4-1.7 0-.7.7-1.6 1.4-1.9 2.3-.7 2-.1 4 .8 5.9.3.6 1.1.8 1.4.4.7-.9 1.5-.4 2.2-.5.5 0 1.1.1 1.4-.4.1-.2.2-.5 0-.7-.5-.3-1.1-.3-1.5-.1-1.9 1.1-1.7-.3-1.8-1.4 0-.4-.3-1 .2-1.3.6-.4.8.2 1.1.5.7.5 1.1.1 1.7-.2.4-.2.7-.5.6-.9-.2-.7-.8-.6-1.4-.7-.2 0-.4 0-.7-.1zm-16.5-121c-.7 0-1.3-.1-1.8-.1-.9 0-1.5.5-1.7 1.2-.7 2.3 1 4.3 3.4 4.2 2.8-.1 3.8-2.1 2.6-4.6-.8-1.5-1.9-.3-2.5-.7zm-96 150.6c-.5-1.6-1.7-2-3-2-.7 0-1.4.2-2.1.1-1.3-.2-1.7.7-2.1 1.6-.1.2.1.6-.2.7-1.7.4-.4 1.5-.4 2.1 0 .9 1 .7 1.6.7 1.1.1 2.2-.1 3.2-.1.4 0 .9-.2.8-.5-.4-.7-.8-1.3.3-1.6-.6-1.3.5-.8 1-.9.2-.1.5-.1.9-.1zm119.9-100.2c-.4-1 0-2.6-1.5-2.7-1.2-.1-2 .4-2.4 1.9-.4 1.4-.1 2.5 0 3.8 0 .8.4 1.5 1.3 1.5s1.6-.2 2.1-1.1c.6-1.1-.4-2.4.5-3.4zM247 252.8c.1 0 .4.1.6 0 .7-.1 1.8.1 1.8-1 0-1-1-1-1.9-1.1-2.1-.1-4-.1-5.4 2-1.1 1.6-1.7 3.4-2.7 5-.2.3 0 .6.2.8.2.1.4.3.5.1.7-1.5 2.9-1.9 3.2-3.8.3-2 1.9-2.1 3.7-2zm51.9 134.9c1.3-.4 2.3 0 3.3.6.5.3 1.1.7 1.5-.2s-.3-.9-.8-1.1c-.9-.4-1.7-.8-2.5-1.4-1-.8-2.1-.8-3.3.3-1.3 1.2-.1 1.4.5 1.9.1.1 0 .2.1.3 1 1.1 1.4 2.9 3.4 2.9.7 0 1.7.6 2-.3.3-.8-.6-1.3-1.3-1.7-.4-.3-.9-.2-1.3-.2-.6-.2-1.2-.4-1.6-1.1zm-52.3-122.9c0-.4-.4-.6-.7-.8-.9-.9-1.9-1.5-2-3 0-1 .6-1.7.8-2.6.1-.5.1-.9-.3-1.2-.5-.3-.8 0-1.2.3-.4.4-.9.7-1.2 1.1-.6.6-1.2 1.3-.7 2.3.3.5.4 1.1.6 1.7a6.57 6.57 0 0 0 1.7 2.9c1.2 1.2 1.7-.7 2.6-.4.2.1.4 0 .4-.3zm75.5 17c1.1.3 1.8 1.5 2.6.5s1.4-2.3 1.7-3.5c.1-.7-.7-1.5-1.2-2.3-.8-1.4-2.3-2.2-2.8-3.7-.1-.4-.4-.6-.8-.5s-.5.5-.6.8c-.4 1.8.6 3.9 2.4 4.7 1.2.6 1.3 1.7 1.3 2.7 0 .9-1 1-1.8 1-.1 0-.3.1-.8.3zm-26.3 44.9c0-.3.1-.6-.2-.8-.6-.5-3.4.2-3.3.9.2 1.8-1.8 1.8-2.4 2.9-.2.4-1.3.2-.7 1.1.6.8 1.1.6 1.6.1.7-.8 1.3-1.4 1.8.2.2.7 1 .9 1.7.7.5-.2.9-.5 1.3-.7-1.2-1.5-.2-2.9.2-4.4zm.1 21.7c1.6 1.5 3 3.2 5.8 2.5-1.4-.8-1.6-1.8-.6-2.9.4-.4.8-.9.1-1.3-1.3-.9-2.7-1.7-4.4-1.8-.3 0-.5.1-.6.3-.2.3.1.4.3.6.9.6 1.1 1.5 1.1 2.4-.4.3-1-.3-1.7.2zm6.4-83.5c.7 1 .3 2.2.9 3.3.7 1 1.8 1.6 2.3 2.7.1.2.6.4 1 .3.4-.2.3-.6.2-1s-.2-.9-.3-1.3c-.2-.9-1.1-1.6-1-2.6.8-.2 1.2 1.1 2 .1.4-.5.3-.9.1-1.3-.3-.8-1.1-.9-1.5-.6-1.2.8-2.3.4-3.4.1 0 .1-.2.2-.3.3zm29.8 45.5c2.2.5 2.8.1 3.7-1.5.7-1.2.2-2.4.5-3.5.3-1-.1-1.8-.5-2.6-.3-.7-1.1-1.1-1.6-.6-.6.7-1.4 1.6-.7 2.6.9 1.3.5 2.5.3 3.8 0 1.1-.3 1.9-1.7 1.8zm-37.4 120.2c-1.2-.4-1.9.5-2.7 1.1-.5.4-.7 1.2-.2 1.8.9 1.1 4.6 1.7 5.9 1 .5-.2.7-.7 0-.8-1-.2-1.1-1.1-1.2-1.7-.1-1.3-.7-1.6-1.8-1.4zm14.7-143.8c.9.1 1.8-.2 2.7-.3.2 0 .5.1.1-.3-.8-1-1.4-2.1-2.2-3.1s-3.1-1.3-3.2-.5c-.2 1.2-.6 2.4 0 3.6.7 1.1 1.7.6 2.6.6zm-81.9 136.1c.9-.4 1.4-.1 2-.1.3 0 .8.2.9-.3 0-.4-.4-.4-.7-.5-1.8-.7-3.2-.4-4.6 1-1 1.1-1.2.9-.1 1.7.1.1.2.1.2.2.6 2 2.3 1.1 3.5 1.3-.8-.4-1.6-.9-2.8-1.5 1.4 0 2.3-.2 3.3.3.6.3 1.2.5 1.5-.3.3-.7-.4-.8-.9-.9-.7-.2-1.4-.5-2.3-.9zm158.6 200.7H385c-.4 0-.8 0-.8.5 0 .4.1.8.6 1 2.1.7 4.1 1.5 5.8 3 .5.5 1.1.4 1.7 0 .7-.5.2-1-.1-1.4-1.4-2.2-4-2.1-6.1-3.1zm-81-284.9c-1.5.4-2.4-.2-3.4-1.4-1.1-1.4-2.7-1.5-4-.8-.8.4-.9 1.1-.9 1.8s.6.9 1.1 1c2.6.9 4.8-.4 7.2-.6zm55.1 277.7c1.5.3 2.8-.3 4.2-.9.6-.3.8-.9.8-1.5-.1-.7-.7-1.2-1.3-1.5-.4-.2-.9-.3-1.2.2-.9 1.2-2.6 1.3-3.5 2.5-.3.4-1.1.4-.9 1 .2.7.9.3 1.3.3.1 0 .3 0 .6-.1zM341.4 306c1.1.1 1.5.9 1.3 1.6-.4 1.6.3 1.5 1.4 1.3.5-.1 1.1-.1 1.7-.2.4 0 .9-.1.9-.6.1-.4 0-.8-.3-1.2-.6-1-1.6-1.7-1.9-2.9-.1-.4-.3-.7-.7-.6s-.9.2-.8.7c.3 1.2-.5 1.6-1.6 1.9zm-46.5 120.1c.3.4.6.3.8.3a8.72 8.72 0 0 1 4.8.1c1.4.5 2.8 0 4-1 .2-.2.6-.3.4-.7-.1-.3-.2-.8-.6-.8-1.7.1-3.5 0-5.1.7-.9.4-1.6.7-2.4.2-.5-.4-.9-.4-1.1.4 0 .3-.5.5-.8.8zM339.1 613c-.8-1.4-1.9-.7-2.8-.7-1.5 0-2.9.4-4.1 1.5-.9.9-.3 1.4.3 2 .3.2.3.2.9-.6.2-.2.4-.3.7-.3 1.1 0 2.3-.4 3.4.7-.2-1.5.8-2.1 1.6-2.6zm-.8-258.7v.5c-.1 1 .2 2.1 1.1 2.1 1 .1 1.9-.8 1.7-2-.1-.5.2-.8.4-1.1.6-.7.4-1.5.4-2.3 0-.4-.3-.8-.6-.6-1 .6-1.9 1.2-2.8 1.9-.5.3-.1 1-.2 1.5zm-112.1 37.9c1.3 0 1.9-1.2 1.6-2.4-.5-1.7-2.1-2.2-3.3-3.1-.2-.2-.7-.1-1 .2-.3.2-.3.5-.2.8.5 1.2 1.3 2.2 1.6 3.5.2.5.7 1 1.3 1zM251 276.4c-1.5-.9-.3-1.1.3-1.6.4-.2 1.4-.1 1-.7-.3-.6-.3-.8 0-1.3.2-.3.4-.7-.1-1-.3-.2-.9-.2-1 0-.8 1.3-2.3 1.6-3.2 2.7-.5.7-.8 1.7-.5 2.3.4.8 1.4.2 2.1 0 .5 0 .9-.2 1.4-.4zm11.9 132.8c-1.8 0-3.4 1.1-4 2.7-.1.3-.4.7 0 1 .4.4.7.1.9-.1.3-.3.7-.6 1.1-.3 1.5 1 2.5.9 2.8-1.1l.1-.1c.4-.3.9-.5.5-1.2-.3-.8-.8-.9-1.4-.9zm-10.8 19.2c-1.1.4-2.9.2-4.5.9-.4.2-.9.4-.8.9.1.4.5.7.9.7 1.8.1 3.6.3 5.3-.1.4-.1 1.3-.4.9-1.1-.3-.6-.1-1.7-1.8-1.3zm82.9-134c-.1-1.2.2-2.3-.6-3.1-.2-.2-.4-.5-.7-.3s-.8.3-.7.7c.2.6 0 1.2.5 1.7.6.5.6 1.2.4 2-.4 1.8-.8 3.6-.5 5.5 0 .3 0 .6.4.7.2.1.5-.1.5-.3-.1-.8.6-1.3.7-2 .4-1.7-.5-3.4 0-4.9zm-84.3 115.3c-.7-.1-1 .3-1.4.7-.5.6-.2 1.6.3 1.4 1.2-.6 1.6.3 2.3.8.6.4 1.3.2 1.8-.4.3-.4.4-.9.7-1.2 1.2-.8.3-1.2-.2-1.7-.7-.6-1.5-.4-2.1 0s-.9.7-1.4.4zm35.1-39s.4-.6-.4-.7c-.5-.1-1.2-.3-1.6.2-.4.6-.6 1.4-.7 2.2 0 .2.4.7.8.1.2-.3.4-.3.6-.1 1.4 1.8 3.8 1.6 5.5 2.7.3.2.6.3 1 .4s.9 0 1-.5-.3-.5-.7-.6c-1.3-.4-2.5-1-3.9-1.2-1.2-.2-1.7-.9-1.6-2.5zm40.8-98.2c0 .1 0 .4.2.6.3.4 0 1.3.8 1.3.9 0 .6-.8.8-1.3.6-1.5.2-3.1.4-4.6.1-.5-.9-1.4-1.7-1.4s-.6.8-.6 1.4c-.2 1.3.7 2.6.1 4zm-71.9-16.8c-.3.7.3 1.1.7 1.5.3.3.6.1.8-.2.4-.4.8-.8.5-1.6-.6-1.6-2-2.7-2.8-4.1-.5-.8-1.1-.9-1.8-.8-.3 0-.5.2-.4.5.1.7.1 1.3 1 1.6 1.1.7 2.3 1.4 2 3.1zm-25.3 352.9c1.1-.2 2.2-.4 3.3-.8.5-.1 1.2-.3 1.1-.9-.1-.7-.9-.6-1.4-.5-1.7.4-3.3.7-4.9-.6-.3-.3-1.1-.1-1.3.6-.1.6-.1 1.3.6 1.5.9.4 1.7.5 2.6.7zm6.4-349c0 .1-.3.9.7 1 1.1.1.7-.8.8-1.3.3-1.8.4-3.7 1.6-5.2.4-.5-.1-.8-.5-.8-.7 0-1.4.1-1.7 1-.6 1.5-.9 3.1-.9 5.3zm-16 159c0 .9.6 1.4.4 2.1-.2.6 0 1.2.8 1.2.7 0 1.4-.4 1.5-1 .3-1.2 0-2.5-.5-3.6-.3-.7-.9-.7-1.4-.4-.2.1-.8-.4-.7.1.2.6-.1 1.2-.1 1.6zm120.3 129.5c-.4.1-.9.3-1.3.3-1 0-1.8-.1-1.7 1.3 0 .2-.3.5-.5.7-.3.4-.7.7-.3 1.2.4.4 1 .5 1.4.3 1.1-.6 2.1-1.4 3.1-2.1.4-.3.3-.6.2-.9-.2-.5-.4-.9-.9-.8zm-10.4 75c.1.3-.4.9.2 1.1.5.2.9-.1 1.2-.4.3-.5.7-.8.7-1.6.1-.9 0-1.8.2-2.6.1-.5.5-1-.2-1.2-.6-.2-1.2-.2-1.4.6-.4 1.3-1.2 2.6-.7 4.1zM289 345c0-.1-.2-.4-.2-.7-.2-.9-.2-1.9-1.6-.9-.6.4-1.8-.2-2.3-1-.2-.3 0-1-.6-.8-.4.1-.7.6-.9.9-.2.5.4.6.6.9.5.6 1.6.5 1.9 1.2.5 1.3 1.7.9 2.6 1.2.3.4.6 0 .5-.8zm-2.2 66.2c-.1-.8 2.1-1.8-.2-2.4-.3-.1-.2-.5-.1-.8.1-.4.5-.8 0-1s-.9.1-1.1.8c-.3 1.5-1.6 2-2.6 2.8-.1.1-.6-.1-.7.3 0 .4.4.5.6.6.7.5 1.5.3 1.7-.3 1-2 1.6-.8 2.4 0zm3.5-109.3c.1-.6-.2-1.1-.6-1.3-.7-.3-.6.5-.8.8-.3.5-.6 1-1 1.4-1 1-.7 2.4.7 2.9.6.2 1.9-.7 1.7-1.2-.6-1-.3-1.8 0-2.6zm55.7 82.3c.2.8-.7 1.3 0 1.8.5.3 1.2 0 1.6-.3.9-.7 1-1.8 1.3-2.8.1-.5-.4-1.4-.9-1.7-.8-.4-1 .6-1.5 1-.9.7-1 1.4-.5 2zm-35.1-16.3c.3-.8-.2-1.2-1-1.3s-1.5.6-1.4 1.1c.4 1.3-.5 1.2-1.1 1.4-.4.2-.9.4-.9 1 .1.5.6.6 1 .5.9-.2 2.7 1.2 2.5-1.3 0-.1.2-.2.4-.2.6-.1.7-.5.5-1.2zm33.1 12.3c.2.6.3 1.3.8 1.8.3.2.6 0 .8-.2 1.2-1.1 1.9-2.5 2.4-4 .1-.4-.1-.6-.4-.7s-.6-.1-.7.1c-.4 1-1.4 1.1-2.1 1.6-.4.4-.8.8-.8 1.4zm-98.4 43.9c.8.1 1.5-.2 1.3-1.2-.2-.9.3-2.3-1.3-2.3-1.1 0-2 .7-2.3 1.6s1 1.9 2.3 1.9zm94 93.2c-.1.8.2 1.4 1 1.4 1.1-.1 2.3 0 3.3-.7v-.3c-.3-.6 0-1.7-1.1-1.8s-2.2 0-3.1.8c-.1.2-.1.4-.1.6zm-82-181c1.4.3 2.7.4 4 .4.7 0 1.6.1 1.5-.8-.1-.7-.6-1.4-1.6-1.5-1.7-.3-2.9.4-3.9 1.9zm86.9 123.1c-.6-.3-1-.5-1.4-.6-.9-.3-1.9-.4-.9-1.7.3-.4 0-.7-.4-.7-1-.1-1.6.1-1.6 1.2s-.1 2.1-.5 3.1c-.2.5 0 .7.3.8.3.2.6.1.8-.2.2-.4.4-.7.4-1.1-.2-1.4.7-1.1 1.4-.7.4.2.9.3 1.9-.1zm-98.5-191c2.5 0 4.9-1.6 5.7-3.8.1-.3.4-.8-.2-1s-.4.3-.6.6c-.9 1.4-1.9 2.8-3.9 2.7-.4 0-.8 0-1.2.1s-.8.5-.7.9c0 .6.6.4.9.5zm3.6-14.7c-.8-.1-1.3.6-1.4 1.5-.1 1 .8.6 1.3.8.8.3 1.9.1 2.2 1.3 0 .1.5.5.9.4.2-.1.3-.2.3-.5.1-1.1-1.9-3.4-3.3-3.5zm-15.4 144.7c-.5 1.2-.7 1.9 1 1.8 1.1-.1 2.2.2 3.3.4.9.1 2.3.6 2.6-.6.1-.5-1.6-.8-2.6-.9-1.4-.1-3 .6-4.3-.7zm16.7-150c-1.1-1.3-2.1-1.2-3.4-.4-1.1.6-2.5 1.4-3.9.8-.3-.1-1-.2-.9.4 0 .4.4.7.9.6 2.3-.4 5-.1 7.3-1.4zm98.5 179.5c-.1-.5-.6-1.1-1.1-1.4-.7-.4-1.4-.8-1.6.7-.1.9.3 1.8-.2 2.7-.2.5.6 1.3 1 .8.6-.9 1.7-1.5 1.9-2.8zm-22.9-67c-.2.6-.5 1.2.4 1.3.7.1 1.4.1 1.8-.8.4-.8.3-1.7.7-2.4.3-.4.7-.9-.1-1.1-.6-.2-1.1-.2-1.2.6-.1.6-.3 1.2-.9 1.3-.7.2-1 .5-.7 1.1zm-7.9 41.9c1-.1 1.7-.2 2.5-.2.3 0 .8 0 .8-.5s-.3-.8-.9-.8c-.9 0-1.9.2-2.7-.2-1-.5-1.6.2-2.2.5-.7.4.3.9.1 1.5 0 .1.4.3.5.2.4-1.2 1.4-.5 1.9-.5zm20.6-52.5c-.3.3-.4.7.1.8.6.1 3.1-1.7 3-2.3-.1-.8-.8-1.6-1.5-1.5-1.4.3-2.2 1.4-1.6 3zM245.8 390c.8-.3 1.5-1 1.9-2 .5-1 1.1-1.8 2.2-1.8 1 0-.5-.9.4-1.1.4-.1-.3-.5-.5-.7-.3-.3-.5 0-.7.2-1.3 1.6-2.7 3.1-4.1 4.7-.1.1-.3.2-.2.5.2.3.4.3 1 .2zm93.5 17.4c.2.5-.1.7-.3 1-.6.8-1 1.6.1 2.4.3.2.4.8 1 .7.7-.1.3-.7.4-1.1.4-1.1-.6-2.3.2-3.4.2-.3.4-.7.1-1s-.7.1-1 .2c-.5.2-.9.6-.5 1.2zM208.4 600.2c1.9.1 1-1.7 1.8-2.3-.5-.3-.1-1.4-1.1-1.3-1.1.1-2 1.1-2 2.7 0 1.1.9.7 1.3.9zm6.4-4.1c-.3-.4 0-1.1-.3-1.6-.4-.8-1.2-1.7-2.1-1.4-1.1.4-.3 1.3-.1 2.1.2.6.5 1.1.9 1.6.3.3.7.4 1.1.2.3-.2.6-.3.5-.9zm39.6-199.5c1.1-.2 1.9-.8 2.6-1.6-.9-.1-.7-1.5-1.8-1.4-1 .1-2.2 1.3-2.1 2.2.1.7.7.8 1.3.8zm70.8 26.1c.6 0 .8-.4.9-.9.1-.6.2-1.2.6-1.7.3-.5.4-1.1 0-1.6-.4-.4-.8-.1-1.1 0-.6.3-1.1.7-.8 1.4.1.5.2.9-.3 1.2-.3.2-.6.6-.4.9.2.5.7.6 1.1.7zm19.1 43.1c-.5 0-.7.3-.8.9 0 .5.4.8.2 1.3-.2.6 1.5 2.2 2.1 2 .4-.2.4-.5.3-.9-.3-.9-.4-1.8-.7-2.7-.2-.5-.5-.5-1.1-.6zm-52.9-41.5c-1.1-.3-1.7.6-2.4 1.1-.3.2-.3.8-.1 1.1s.6.3 1 .2c.6-.2 1.2-.4 1.9-.6s1.9.1 1.7-.9c-.2-.9-1.5-.6-2.1-.9zm85.6-15.2c-.4-.8-1.1-.7-1.7-.6-1.2.3-2.3 0-3.4-.4-.7-.2-1.4 0-2.1-.1-.4-.1-.6.3-.7.7-.1.3.1.5.4.5 2.4 0 4.9.4 7.5-.1zm-55-46.3c-.5-.6-.9-1-1.2-1.4-.3-.6-.4-1.4-1.3-1.3-1 .1-.8 1.1-1 1.7-.4 1 .1 1.4 1.1 1.4.8 0 1.5-.2 2.4-.4zm-7.8-166.4c0 1.4.7 2.9.6 4.4 0 .4.3 1 .9.8.5-.1.5-.5.5-1-.1-1.9-1.4-3.5-1.4-5.4 0-.1-.2-.3-.3-.2-.2.1-.4.2-.4.3-.1.4.3.6.1 1.1zm-53.7 238.4c-.1 0-.3 0-.4.2-.3.6.9 3.3 1.6 3.5.3.1.5 0 .7-.2.4-.9-.4-1.9.4-2.7-.7-.3-1.4-.7-2.3-.8zm-12.9-190.5c0-.4-.3-.5-.7-.6-.9-.4-2.9.7-3.2 1.6-.1.4.1.7.3.9s.6.3.8 0c.6-.5 1.2-.7 1.9-.9.6-.1.6-.6.9-1zm97.3 124.4c1 .3 1.4-.7 1.9-1.4.2-.4.5-1.1-.2-1.3-.6-.2-1.4-.5-1.8.5-.1.4 0 .8-.5 1-.3.1-1 0-.7.7.2.5.6.6 1.3.5zm-85.7-118.8c-.6-.5-1.2-1.1-1.8-1.5-.5-.4-1.3-.8-1.6 0-.1.4-1.1 1.1.4 1.7 1.1.5 1.9.2 3-.2zm65.5-62.4c.2.8.4 1.8.6 2.9.1.3.3.6.7.4.2-.1.6-.3.6-.4-.3-.7.1-1.7-.2-2.2-.4-.7-.8-1.2-.7-2 0-.6-.3-.6-.7-.5-.4 0-.6.3-.3.6.2.3.1.6 0 1.2zm-41.3 157.9c-.8 0-1.3 0-1.3.5-.1.5.4.6.8.8 1.3.8 3.2.5 4.1 2.1a.42.42 0 0 0 .7 0c.2-.2.1-.4-.1-.6-1.2-1.5-2.8-2.2-4.2-2.8zm2.9 118.7c.4.3.8.4 1.3.5.7.1.3.8.6 1.1.1.1.4.2.6.1.9-.3 2.5 1.1 2.5-1.1 0-.2.4-.4.6-.6a2.37 2.37 0 0 0 .9-1.5c-.8.2-.8.2-1.2.9-.8 1.4-1.9 1.7-3.3 1-.7-.4-1.3-.9-2-.4zM326.8 176c-1.1.4-2 .3-2.7-.7-.2-.3-.7-.3-.8.3s1.9 2.8 2.5 2.8c.4 0 1.2-.6 1-.7-1.1-.5.1-1 0-1.7zm-45.7 262.6c0-.5-.4-.8-1.1-.8-1.2 0-2 .9-2.1 2.1 0 .4.1.5.5.5 1.2 0 2.7-1 2.7-1.8zm3-80.1c-1.3-1.5-3-.7-4.5-.6-.3 0-.5.1-.6.4 0 .3.2.4.5.5 1.6.3 3.2.9 4.6-.3zm41.9 11.4c.8-.3 1.3-1 1.3-1.7 0-.6-.1-1.6-1-1.4-1 .2-1.4 1.3-1.6 2.1-.1.5.8.7 1.3 1zm7.7 221.9c.4.8 1.1.9 1.5 1.3 1.3 1.3 3.2-1.3 4.3.9.1.1.6 0 .7-.4.1-.3.3-.5.4-.7-1.5-1.3-3.2.2-4.8-.6-.5-.3-1.1-.7-2.1-.5zm-9.7-203c0 .3-.3.7.2 1.1.4.3.8 0 1.1-.2.4-.2.2-1 .1-1.1-.5-.9-.7-2-1.1-2.9-.2-.4-.6-.4-.9-.2-.4.2-.3.6 0 .9.6.7.7 1.4.6 2.4zm-2.1 19.4c-1.4-.4-2.6-.9-3.1.7-.2.6.2 1.3.8 1.5 2 .6 1-1.8 2.3-2.2zm-75.5-148.1c-.2.7.2 1.1.7 1.4.4.2.8.2 1.1-.1.5-.6-.1-.9-.3-1.3-.3-.5-.2-1 0-1.4.2-.3.4-.7-.1-.9-.4-.2-.8.1-1.1.4-.4.4-.1 1.2-.3 1.9zm-.1 289.7c1.3.1 1.5-.8 1.6-1.6.1-.9-.8-.9-1.3-.9-.9-.1-1.3.6-1.4 1.5 0 .6.5.9 1.1 1zm77.4-371c0 .9-.4 1.3.2 1.8.5.5.8 1.2.8 1.9.1.6.4 1.2 1.1.9.6-.2.6-.9.3-1.5-.5-1.1-1.4-1.9-2.4-3.1zm-94.6 242.5c.6-.5 1.8.8 2.2-.4.1-.4-1.4-1-2.1-1-.9.1-2.5.1-2.5.9 0 1.1 1.4 0 2.2.5-.1 0-.1 0 .2 0zm114.7 60.2c.3-.3 1.8.1.6-1.2a.61.61 0 0 1 0-.8c.7-.6-.1-.6-.4-.7-.8-.4-.9.5-1.3.7-.3.2-.7.7-.3 1.2s.7.9 1.4.8zm9.2 25.6c.1-.7-.2-1-.6-1.1-.4-.2-.8-.3-1.1.1-.5.7-.2 1.8-.9 2.5-.1.2.2.4.5.4s2.1-1.8 2.1-1.9zm-99.1-225.6c-.6.3-1.6.3-1.3 1.5.1.6 0 1.3.9 1.2 1.2-.1 1-1.4 1.3-2.1.2-.4-.4-.6-.9-.6zm69.3 46.8c.8 0 1.2-.6 1.5-1.1.4-.6.4-1.4-.2-1.8-.8-.5-1 .2-1.2.9-.1.4-.5.8-.7 1.2-.4.6-.1.8.6.8zm-27.4 84.4c.8-.1 1.4-.4 2-.1.5.2 1.3-.2 1.3-.9 0-.4-.4-.9-1.2-.9-1.1.1-1.8.6-2.1 1.9zm-46.2 9.4c-.5.1-1.1 0-1 .6.2.5.2 1.6 1.1 1.4.8-.1 2.1-.1 2-1.2-.1-1.5-1.6.1-2.1-.8zm92.2 55.9c-.4-.5-.2-1.4-1-1.8-.6-.3-1.1 0-1.6.3-.1.1-.6.3-.2.5.8.3 1.1 1 1.6 1.5.2.2.5.4.8.2.4-.2.4-.4.4-.7zM326 426c0-.6-1.2-2-1.7-2.1-.6 0-.5.7-.9.9-.1.1 1.9 1.8 2.1 1.8.4-.1.6-.2.5-.6zm-64.5 131c-1-.4-2-1-3.1-.9-.4.1-.8.2-.7.6s.3.9.5 1.2c.2.2.5.1.7-.1.6-.9 1.6-.7 2.6-.8zm35.3-205c.7.8.3 2.3 1.9 2.2.5 0 .9-.4.7-.9-.3-1.1-1.1-1.6-2.6-1.3zm52.5 24c.1.5-.4 1.1.3 1.2.6.1 1-.4 1.1-1.1 0-.2.1-.4.1-.6 0-.4.9 0 .5-.5s-.9-.7-1.5-.2c-.4.3-1 .6-.5 1.2zm-83.6-131.9c-.5.5-1.5.4-1.4 1.5 0 .5-.1 1 .7 1 .9 0 1.4-.5 1.4-1.3a1.04 1.04 0 0 0-.7-1.2zm59.6 114c.9-.1 1.5.4 1.9-.4.4-.7.3-1.4-.1-2-.2-.3-.5-.6-.9-.5s-.3.5-.2.8c.1.8.2 1.5-.7 2.1zm-57.9 46.1c-.6.1-.8.6-.8 1.2 0 .8.4 1.1 1.2 1 .4-.1 1.1-.1.9-.7-.3-.5-.3-1.5-1.3-1.5zm66.6-74.5c0-.7 0-1.3-.7-1.4s-.6.5-.6.9c0 .3-.3.6-.3 1-.1.4-.6.8 0 1.2.7.4.8-.3 1.1-.7.3-.3.5-.6.5-1zm17 42c.1-.5-.2-.6-.5-.5-.8.1-1.5.3-1.6 1.3 0 .6.4 1.2.7 1.1 1-.1 1.1-1.2 1.4-1.9zm-87.8 49.8c-.1-.7-.5-1.1-1.2-1.1-.4 0-1-.1-.8.6s.2 1.7 1.1 1.8c.8.2.4-1 .9-1.3zm-26.8 125.2c.4.5.9.9 1.6 1.1s1.1-.1 1.3-.7c.2-.8-.4-.7-.9-.8-.8-.2-1.5-.3-2 .4zm-10.2-135.8c-.1-.5-.3-1-.8-.9-.6.1-1.5 0-1.6 1-.1.6.4.8.9.8.6 0 1.2-.2 1.5-.9zm24.1-16.4c.2.3-.7 1.2.5 1.1.8-.1 1.2-.5 1.3-1.3.1-.9-.8-.7-1.2-.8-.8-.1-.7.5-.6 1zm70.3 10.3c.7.4 1 1.2 1.8 1.2.6 0 1-.1 1.1-.8s-.4-.7-.8-.9c-.8-.2-1.4.2-2.1.5zm25-28.9c.1-.3.1-.6-.1-.6-.2-.1-.5 0-.7.1-.4.3-.8.7-1.1 1s-1 .3-.7.8.9.4 1.4.2c.5-.4 1-.9 1.2-1.5zm-16.3 41.9c.5.8.7 1.9 2.1 1.4.5-.2.5-.7.3-1-.6-1-1.4-1.1-2.4-.4zm15.4-12.7c.5-.3 1.4.1 1.6-.8.1-.5-.4-1-1-.9s-1.4.3-1.6 1c-.2.6.5.6 1 .7zM277.2 512c1.1 1.2 2 .4 3-.1.4-.2.6-.4.4-.8s-.6-.3-.9-.1c-.8.4-1.6.9-2.5 1zm-17.3-258.1c0-.6-.3-.8-.9-.8-.8-.1-.9.7-1 1.1-.1.6.4 1.2 1 1.1 1 0 .5-1 .9-1.4zm2.2 120.2c0-1-.2-1.6-1-1.7-.5-.1-.6.5-.5.7.3.6-.2 1.7.8 1.9.6.2.6-.6.7-.9zm24.8 87.4c-.3 0-.6 0-.5.4.1.2-.2.5.3.5.8 0 1.4.4 2.1.8.3.2.8.1 1.1-.3.2-.3-.1-.5-.3-.6-1.1 0-1.9-.4-2.7-.8zm4.7-127.6c0-.6-.4-.7-.9-.7-.7.1-.9.5-1 1.1 0 .6.3.8.8.8.8 0 1-.5 1.1-1.2zm-3.5 87.6c0-1-.7-1.4-1.4-1.7-.3-.2-.8-.4-1.1.1-.2.4 0 .8.3 1.1.7.5 1.4.4 2.2.5zm-34.5-172c.4 0 1 .1 1-.5 0-.7-.6-.9-1.2-1-.5-.1-1.3.2-1.2.7.1.7 1 .5 1.4.8zM276.2 446c.7 0 1.4.1 1.5-.7.1-.7-.6-.7-1-.7-.6 0-1.4.3-1.5.8-.1.8.8.6 1 .6zm53.3-35.6c-.5-.3.1-1.2-.5-1.3s-1.1.4-1.3 1c-.1.5.3.8.8.9.4 0 .9 0 1-.6zm-49-92.4c.3-.3.9-.6 1-1 .1-.5-.5-.9-1-.8-.6.1-.8.6-.9 1.1-.1.4.3.7.9.7zm7 67.1c-.7-.8-1.4-1.1-2.3-.7-.3.2-.7.3-.7.7.1.5.6.3.9.3l2.1-.3zm53.3 95.4c-.8-.4-1.5-.5-2.1.2-.2.3-.1 1 .3 1.1 1 .4 1-1 1.8-1.3zm-58.5-124c-.3-.6-.9-.6-1-1.1-.1-.4-.3-.7-.7-.6-.3.1-.6.4-.6.8s.2.6.6.8c.5.3 1.1.3 1.7.1zm10.7 7.3c-.4 0-.8.1-.7.4.3.7 1 .9 1.6 1.2.4.2.7-.3.6-.7-.1-.8-.9-.7-1.5-.9zm-17 146.4c.5-.3 1.6.1 1.4-1-.1-.3-.1-1-.6-.9-1 .1-.4 1.2-.8 1.9zm82.2 12.1c.9-.3.7-1.2 1.1-1.9.1-.2-.1-.5-.4-.5-.3-.1-.8 0-.8.2.3.8-.6 1.5.1 2.2zm-12.8-190.8c.1-.4.2-1-.6-.9-.5 0-.8.5-.7.8.1.5.3 1.2.9 1.2s.5-.5.4-1.1zm-62.9 129.8c.6-.7 1.7-.1 1.8-1.2.1-.4-.2-.4-.6-.4-.8.1-1.6.1-1.2 1.6zm25.1-73.2c.4-.3 1.2.2 1.3-.6 0-.4-.4-.8-.9-.8-.7 0-.8.6-1 1-.1.4.3.4.6.4zm28.8 248.1c-.5-1.6-2-.8-3-1.3.7 1.2 2.4 0 3 1.3zM230.2 394.4c-.4-.5-.7-.9-1-1.2s-.7-.3-1-.1c-.2.1-.3.3-.2.5a.9.9 0 0 0 .6.6c.5 0 1 .1 1.6.2zm-4.4 35.4c.3-.2 1.2.3 1.1-.5 0-.7-.9-.6-1.4-.6-.4 0-1-.3-1 .4.1.7.7.7 1.3.7zm67.2 9.4c.1.6.5.9.8 1.2s.7.8 1.1.3c.5-.7-.4-.6-.7-.8-.3-.4-.5-.8-1.2-.7zm-21.5 70.1c-.5.1-.8.5-.8.8 0 .6.6.7 1.1.8.3 0 .6-.2.6-.5-.1-.5-.4-1-.9-1.1zm26-148.6c-.2-.4-.6-.7-1.1-.5-.4.1-1 .2-.8.7.1.2.5.8 1.1.7.4-.2.7-.3.8-.9zm39 43c-.4.1-.8.2-.8.7 0 .6.5.6.9.6s.9.1.9-.5c0-.5-.5-.7-1-.8zm47.3.8c.3-.2.9 0 1-.5 0-.6-.5-.7-1-.7-.4 0-.9.2-.9.7 0 .4.4.5.9.5zm-81.9-92.7c-.3 0-.8-.1-.7.5.1.5.5.9 1 .9.4 0 .4-.4.4-.7.1-.5-.1-.7-.7-.7zm-17.7 139.1c.1-.3.9 0 .7-.6-.1-.4-.2-.9-.8-1-.5-.1-.5.4-.5.7 0 .4-.2.9.6.9zM373.4 303c1.1 0 1.5 1.5 2.6.4-.7-.4-1.2-1.4-2.6-.4zm-13.1 256c-.2-.4-.2-1-.8-1-.5 0-.8.5-.8.9 0 .5.6.6 1.1.6.4.2.6-.1.5-.5zM236.5 280.7c1-.1 1.7-.2 2.2-1.2-1 .1-1.8.2-2.2 1.2zm58 69.5c.8 0 1.4.8 2.2.2.2-.1.2-.4 0-.5-.7-.4-1.4-.5-2.1 0 0-.1 0 0-.1.3zm-70.8 81c.3-.1.9-.2.9-.7.1-.4-.3-.5-.6-.5-.4 0-1 0-1 .6 0 .4.2.6.7.6zm84.4-120.5c.6 0 .5 1.4 1.4.7.3-.2.3-.7.1-1-.5-.5-1 .1-1.5.3zm-53.9-6.3c.4-.1.6-.6.7-1.1 0-.3-.3-.4-.6-.3-.5.1-.9.3-.9.9.1.4.2.5.8.5zm69.6-45.8c1-.1 1.9.2 2.7-.5v-.3c-.8-.3-1.6.1-2.4.2-.1.2-.2.3-.3.6zm-46.7 91.2c-1-.2-1.6-.7-2.1-.1-.2.3.1.6.3.8.8.5 1-.4 1.8-.7z"/><path d="M364 527.5c.5.6-.1 1.6.8 1.6.8 0 .7-.9 1-1.4.2-.4.1-.9.6-1.2.6 1.5 0 3.9-1.1 4.9-.9.9-2.1 1.7-2.7 2.9-.3.6-.6 1.4-1.5 1.3-.4 0-.5-.4-.5-.7 0-.9 0-1.9.9-2.2 1.2-.4 1.6-1.2 1.5-2.3.1-1 .8-1.7 1-2.9zm-29.2-309.4c-.3 1.8-.1 2 1.5 1.7.4-.1 1-.3 1.3-.1 1.3.6 2.5.3 3.8-.5-.5 2.5-1.1 3-3.4 2.9-.9 0-1.5.2-1.7 1.4-.6-1-1-1.6-1.7-2.1-1.6-1-1.5-1.9.2-3.3zm38.4 294v6.9c0 1 .4 2 .2 3-.1.4-.2.9-.6 1-.6 0-.5-.6-.5-.9l-.1-6.8c0-1 .3-2.1.5-3.1.2-.1.3-.1.5-.1zm.9-4.4c-.8-2.7.4-5.2-.7-7.6-.2-.6.2-.8.7-.9.4-.1 1.1-.1.9.4-.8 2.5.5 5.4-.9 8.1zm-1.1-18.2l2.1 6.7c.2.8-.9 1.4-.7 2.3l-.5.1c-.3 0-.2-.3-.2-.5.2-2 0-3.9-.9-5.9-.3-.6-.2-1.7-.2-2.6.2 0 .3 0 .4-.1zm-41.3-259.7c.8-1 3.3-1.6 4.2-1.1l.3.3-1.8 2.4-.4-.1c-.2-1.3-1.3-1.3-2.3-1.5zm4.6-5.3c-.2 1.3-.8 1.8-1.6 1.9-1.2.1-2.3 0-3.4.5-.3.1-.8-.1-.9-.4-.1-.5.4-.6.8-.7h2.4c1.1.1 1.9-.3 2.7-1.3zm22.9 272.7l1.4-1.7c.3-.4.7-.3 1.1-.2.3.1.5.3.5.7 0 .5-.5.8-.8.8-.6.1-1.2.7-2.2.4z"/><path d="M373 527c.2 2 .5 4.1-.3 6.1-.1-2.1.1-4.1.3-6.1zM232.6 257.5c-.4-1 0-1.9.3-2.8.1-.3.4-.5.7-.3.3.1.2.4.1.6-.4.8.2 2-1.1 2.5zm115.7 200.1c-.5 0-.6-.3-.6-.7 0-.6.4-1 .9-1.1.4-.1.4.5.5.8 0 .6-.3.8-.8 1zM238.8 330.4c2.8.6 5.7.8 8.6.7 1.1 0 2.1-.4 3.1-.8.7-.3 1.3-.6 2-.8 1.6-.3 2.7.3 3.1 1.9 0 .2.1.5 0 .6-1.1 1.1-2 2.6-3.7 2.9-.6.1-.9.1-1.2.7-.6 1-1.8 1.2-2.8 1.4-1 .3-2.2.2-3.2.4-.9.2-1-.9-1.6-.8-2.2.2-3.5-1.7-5.3-2.3-.5-.2-1-.2-1.5-.4s-1.4-.2-1.4-.8c0-.7.3-1.5 1-1.9.9-.5 1.8-.9 2.9-.8zm2.1-13.3c2.5.1 4.1.7 5.7 1.1.4.1.7.5.7.9 0 .7-.5 1.3-1.2 1.5l-4.9 1.6c-2.1.5-4.2.8-6 2.1-.3.2-.6.2-.8 0-.3-.3-.2-.6.1-.8.4-.4.6-.9.4-1.5-.5-1.2.1-2 1.1-2.8 1.6-1.3 3.4-2.4 4.9-2.1zm.7-7.7c-1.2.8-2 1.8-3.2 2.1-.4.1-.7.1-.9-.3-.1-.3 0-.6.2-.8.9-1.4 2.2-1.2 3.9-1zm14 208.9l.3-.6c.2-.5.8-.6 1.2-.2.8.6 1.5.2 1.8-.5.4-1.1 1.2-1.1 1.8-.7 2 1.6 4.5 1.5 6.7 2.5.4.2.9.2.7.8s-.7.4-1 .2l-1.4-.6c-1-.5-1.9-.5-2.9.1-1.5.9-3.1 1.3-4.7-.1-.7-.5-1.6-.7-2.5-.9zm-6.5 9.7c-.5-.1-1.6.4-1.6-.6s1.1-.8 1.8-.8h.8c.5-.1.9-.6 1.4-.1.3.2.1.4-.1.6-.4.5-.7 1.2-1.5.9h-.8z"/><path d="M254.1 518.4c-.4 0-.8 0-1.2-.1-.5-.1-1-.4-1-1 0-.2-.1-.6.2-.6.5-.1.9.2 1.2.5a4.44 4.44 0 0 0 1.1.8c-.2.2-.2.3-.3.4zM318.4 314c0 3.7-.7 7.2-1.7 10.8-1.1-1.2-1.5-2.4-.6-3.6.8-1.2.7-2.4.8-3.7 0-1.3.7-2.4 1.5-3.5z"/><path d="M324.3 317.3c1.7.1 1.8 1.2 1.8 2.2 0 .3-.1.9-.6.9s-.7-.5-.7-.9c-.1-.6 0-1.3-.5-2.2zm-7.8 8.1c.5 1.1.6 2.1-.1 3-.2.2-.3.6-.7.4-.3-.2-.1-.4 0-.7.2-.9.5-1.8.8-2.7zm8.6-13.7c-.2-1 .6-1.7.5-2.6 0-.2.4-.3.6-.2s.4.4.3.6c-.3.9-.5 1.7-1.4 2.2zm-58.7 140.2c1 .5 2.3.7 3.5.8.2 0 .6.2.4.5-.2.4.1 1-.5 1.2-.4.1-.9.2-1.2-.2-.9-1.4-1.9-1.8-3.4-.9-.4.2-.5-.3-.4-.6.3-.6.8-.8 1.6-.8zm-3.1 31.4c.8-.5 1.7-.5 2.5-.7.3-.1.7-.1.8.2.1.4-.1.7-.5.8-1 .5-1.9.7-2.8-.3zm44.9-289.1c.2-.6-.3-1.4.7-1.5.9-.1 1.2.5 1.3 1.3 0 .5.1 1 .2 1.5.1.7-.1 1-.9 1.1-.7.1-1.1-.1-1.1-.8 0-.6-.1-1.1-.2-1.6zm6.8-15.7c.3 0 .6.2.7.5s.1.7.1 1.1c0 .5 1.1.9.2 1.3-.5.2-.6-.8-.9-1.2-.2-.3-.3-.8-.4-1.2-.1-.2 0-.4.3-.5zm-11.8 278.3c-.1-3.5 1.1-6.5 2-9.6l2.4-9.1c.8-2.3 1.2-4.7 1.6-7.1.1-.5.9-.7.7-1.5-.1-.3.5-.7 1-.4s.9 1 .6 1.2c-1.3.8-.7 2.1-1.1 3.2-1.5 4.6-2.3 9.4-3.4 14.1l-2 9c-.1.2-.2.5-.2.7-.1.7-.5 1.3-1.2 1.2s-.2-1-.3-1.5c-.2 0-.1-.2-.1-.2zm8.2-20.2c1.8.7 1.1 2.1.8 3.2-.6 2.4-1.8 4.8-2 7.2-.3 3.8-2 7.3-2.2 11.2-.1 1.8-1.2 3.5-1.3 5.4 0 .5-.4.7-.8.8s-.8 0-1-.3c-.4-.6.4-.6.5-.9.1-.9.5-1.6.6-2.4.4-2.6 1.3-5 2-7.5.3-1.2.6-2.4.8-3.6.4-3.1 1.4-6.1 2.1-9.2.1-1.3 0-2.7.5-3.9h0zM302 463c.2-.8.2-1.8 1.4-1.8.6 0 .6.5.5.9-.3.8-.1 2-1.4 2.1-.6-.1-.6-.7-.5-1.2zm8.7-43.5c2.1-1.1 4.2-.7 6.3-.2.2.1.8.1.6.7-.1.4-.3 1-.8.8-2-.8-4.1-.6-6.1-1.3zm2.7 2.6c1.1-.2 2.2.2 3.3.3.3 0 .6.2.6.6s-.3.7-.7.6c-1.6-.3-3.4.3-5-.4-.3-.1-.8-.1-.8-.6.1-.5.6-.6 1-.6.6-.1 1.1 0 1.6.1zm349.3 99c8.3-2.7 13.7-7.7 13.7-19.7 0-20.1-24.4-22.3-40.2-23.1 8.2 6 11.9 17.3 11.9 29.7 0 29.4-20.1 46.1-45.7 46.1-27.9 0-49.1-19.4-49.1-52.3 0-40.2 31-53.9 66.2-53.9 40 0 80.9 10.3 80.9 54.9 0 33.1-20.2 46.6-37.7 49.2v-30.9zm-61.8 1.8c14.5 0 23.3-8.4 23.3-21.8 0-13.7-7-21.1-22.7-21.1-9.5 0-24.2 3.9-24.2 21.6 0 14.2 10.3 21.3 23.6 21.3zm27.9-156.4h26.9v60.1h-26.9v-60.1zm69-42.8H591.5c3.1 6.6 5.6 18.6 6.2 25.7h-23.1c-2.5-13.5-10.1-27.1-19.1-35.2v-21.8h142.3v31.3zM486.6 564.1c5-1.1 7.2-4.7 7.2-10.5 0-5.7-2.3-8.2-5.9-8.2-4 0-5.8 2.4-7.8 10.9-3.2 13.5-8.1 16.9-14.8 16.9-8.7 0-14.5-6.5-14.5-18.2 0-13.2 7.1-18.4 14.3-19.1v10.8c-3.1.5-6.4 2.2-6.4 8.6 0 4.4 1.8 7 5.3 7s4.9-2.1 6.7-10.1c3.4-14.4 8.8-17.6 15.8-17.6 9.1 0 15.3 6.9 15.3 20 0 12.6-6.2 19.2-15.3 20.4v-10.9zm10-70.8c12 0 19.5 4.4 19.5 18.5 0 13.6-7.6 16.3-11.8 16.6V518c2.6-.7 4.3-2.6 4.3-6.6 0-6.7-4.1-8-11.4-8h-1.8c3.2 1.9 5.2 5 5.2 10.5 0 9.8-8 15.4-18.1 15.4-11.7 0-19.6-7-19.6-16.3 0-6.4 3-9.1 4.8-9.6l-3.9-.4v-9.8c3.3.1 7.1.1 10.7.1h22.1zm-14.4 25.4c6.4 0 10.2-3.2 10.2-7.8 0-6.2-4.3-7.9-10.5-7.9-6.3 0-10.6 1.1-10.6 7.7 0 4.5 3.4 8 10.9 8zm-18.3-30.5v-5.7h-10.1v-10.3h10.1v-7.3h7.8v7.3H490c2.8 0 3.9-.9 3.9-3.9l-.1-2.3h7.1c.7 2 .7 4.9.7 6.9 0 7.3-3.9 9.7-10.4 9.7h-19.6v5.7h-7.7zm-12.4-48.5v-10.6h22.2l-22.2-19.8v-12.9l20.6 19.9 29-20.7v12.9L479 423.7l5 5.2h17v10.6h-49.5zm33.2-54.9c4.7 0 9.2-2.3 9.2-7.5 0-4.3-1.7-5.5-4-6.5v-10.3c4.6 1.3 12.1 5.4 12.1 17.1 0 12.3-9.2 17.6-19 17.6-11.7 0-20-6-20-18 0-12.8 9.3-17.2 18.6-17.2 1.3 0 2.1 0 3.1.1v24.7zm-6.3-14.4c-4.3.1-8 1.8-8 6.8 0 4.9 3.4 6.9 8 7.3v-14.1zm22.8-17.4h-52.6v-10.3h52.6V353zM490 326.2c3-.8 4.6-3.2 4.6-7.1 0-3.8-1.4-5.2-3.6-5.2-2.4 0-3.3 1.6-4.6 6.9-3 12.1-6.8 14.1-12 14.1-5.5 0-11.3-3.9-11.3-15.1 0-11.3 6.2-15.1 11.2-15.5v9.8c-1.4.3-4 1.2-4 6.1 0 3.4 1.5 4.5 3.2 4.5 1.9 0 2.7-1.2 4.2-7.2 2.9-12.4 7.2-14.2 12.6-14.2 6.2 0 11.8 4.7 11.8 16.1 0 11.3-5.5 16-12.1 16.8v-10zm-7.6-64.5c11.3 0 19.6 6.7 19.6 18.6 0 11.6-8.2 18.3-19.4 18.3-11.5 0-19.6-7-19.6-18.8 0-11 7.8-18.1 19.4-18.1zm.1 26.4c7.2 0 11.4-3.1 11.4-8.1 0-5.1-4.3-7.9-11.4-7.9-7.8 0-11.5 2.9-11.5 8 .1 4.9 3.6 8 11.5 8z"/></svg>