<?xml version="1.0" encoding="utf-8"?>
<!-- Generator: Adobe Illustrator 26.0.2, SVG Export Plug-In . SVG Version: 6.00 Build 0)  -->
<svg version="1.2" baseProfile="tiny" xmlns="http://www.w3.org/2000/svg" xmlns:xlink="http://www.w3.org/1999/xlink" x="0px"
	 y="0px" viewBox="0 0 800 800" overflow="visible" xml:space="preserve">
<g id="fill">
</g>
<g id="bg" display="none">
	<rect x="-100" y="-100" display="inline" fill="#9FC9EB" width="9000" height="1000"/>
</g>
<g id="counters_00000155831629897369998050000010902328751353074356_">
	<g id="Sgt_Kelso">
		<rect id="_x31__x2F_2_x22__800x800_00000049923236075219152280000003668602826681124019_" fill="none" width="800" height="800"/>
		<g id="ge-ldr_00000127029500988392247650000000647023034862295700_">
			<path d="M233.9,278.4c0.1-0.2,0.3-0.4,0.2-0.5c-0.2-0.7-1.4-1.4,0-2.2c0.8-0.4,1.3-1.3,2.3-1.3c0.5,0,1-0.2,1.2-0.8
				c0.2-0.7-0.3-0.9-0.7-1.2c-0.8-0.8-1.9-1.3-1.7-2.6c-1.7-0.7-1.3-2.4-1.8-3.7c-0.6-1.5-0.2-3-0.4-4.4c-0.4-2.5,1-4.3,1.6-6.2
				c0.5-1.7,1.8-3.5,2.3-5.2c0.8-2.3,2.6-3.5,4.1-5c1.3-1.4,3.2-2.4,5.3-2.6c0.6-0.1,1.2-0.2,1.7-0.6c2-1.6,4.3-2.1,6.7-2.2
				c1.2-0.1,2.4-0.2,3.5-0.3c2.1-0.2,2.6,0.1,3.1,2c0.2,0.8,0.6,1.2,1.3,1.2c0.4,0,1.1,0.2,1.2-0.4c0.2-0.6-0.5-0.5-0.8-0.6
				c-0.4-0.2-0.5-0.5-0.2-0.9c0.3-0.4,0.8-0.6,1.1-0.2c1.5,1.8,3.9,1.4,5.7,2.7c0.8,0.5,1.9,0.5,2.8-0.6c0.7-1,2-1.5,3-2.2
				c1.3-1,2.9-1.7,4.4-2.5c1.6-0.9,3-2.2,4.2-3.5c1-1.1,1.2-3.1,1.7-4.7c0.3-1,0.7-1.8,1.9-2c1.5-0.2,2.4-2.3,1.9-3.7
				c-0.9-2.4-0.9-2.4-3.5-2.4c-2.3,0-4.6-0.1-6.9,0.3c-0.6,0.1-1.3,0.3-1.7-0.4c-0.4-0.7,0.2-1.2,0.4-1.6c2-3,3.1-6.4,4-9.8
				c0.5-1.8-0.7-3.6-0.9-5.4c-0.1-0.7-0.3-1.4-0.5-2.1c-0.3-0.9-0.2-1.4,1.1-1c-1.6-0.8-1.6-1.9-1.7-3.3c-0.2-2-0.5-4-0.4-6.1
				c0-1.2,1-2.2,0.4-3.4c-0.2-0.4,0.4-0.2,0.7-0.4c0.3-0.2,0.5-0.7,0.2-0.7c-1.6-0.1-0.5-1-0.4-1.4c0.4-1.4,0.6-2.9,1.1-4.3
				c0.7-2.3,2.3-3.9,3.9-5.6c0.7-0.8,1.2-1.8,3-1.4c-1.4-0.9-1.1-1.5-0.3-2c1.2-0.8,2.6-1.4,3.1-2.9c0.2-0.4,0.7-0.6,1.2-0.7
				c0.4,0,0.8-0.1,1.2-0.3c4-1.8,8.1-2.1,12.5-1.9c2.3,0.1,4.6,0.1,6.9,0.1c4.7,0,9.3,1.1,13.6,3.3c2.2,1.2,4,2.8,6,4.2
				c1.1,0.8,2,2.1,2.8,3.3c0.5,0.7,0.9,1.6-0.7,2.1c1.9,0,2.2,1.1,2.6,2.5c0.4,1.3,0.9,2.7,1.5,3.9c1.1,2.1,0.9,4.4,1.5,6.5
				c0.4,1.6,0.5,3.4,1.9,4.7c1,1,2.2,1.9,3.2,2.8c0.3,0.3,0.6,0.5,1,0.7c0.9,0.6,1.5,1.5,1.3,2.4c-0.3,1.1-1.6,0.9-2.5,1
				c-1.6,0.2-3.3,0.3-4.9,0.5c-1.3,0.2-2,0.6-2,2.3c0,1.2,0.5,2.7-0.8,3.8c-0.2,0.2,0,1.3,0.5,1.9c0.4,0.4,1,1.1,0.5,1.3
				c-0.7,0.3-1.7,0.6-2.4-0.2c-1.3-1.6-1.2-1.5-2.9-0.2c-0.9,0.6-1.7,1.7-3.1,1.5c-0.5-0.1-0.9,0.3-1.2,0.8c-0.2,0.3-0.6,1-1,0.7
				c-0.6-0.4,0-0.9,0.1-1.3c0.3-1.2,0.6-2.3,2.1-3c-1.9-0.4-2.4-0.1-2.9,1.6c-0.4,1.3-0.6,2.8-2.6,2.4c-0.2,0-0.5,0.1-0.5,0.2
				c-0.4,1.5-1.6,1.4-2.7,1.6c-2.3,0.5-3.5,2.3-3.7,4.9c-0.2,2.7,0.7,4.9,2.7,6.7c0.4,0.3,0.9,0.5,1,1.1c0.4,1.5,3,4.8,4.7,5.1
				c2.5,0.4,5,2.1,7.6,0.3c0.4,1.5-0.3,2.1-1.5,2.5c-1.7,0.5-3.5,0.4-5.2,0.5c-2.2,0.2-4.3,0.6-5.9,1.9c-1.2,1-2.6,2.3-3,4
				c-0.1,0.5-0.2,1.1,0.2,1.5c1.4,1.2,2.6,2.5,4.3,3.4c0.9,0.5,1.8,1,2.7,1.6c0.4,0.3,1.3,0.7,0.4,1.5c-0.2,0.2-0.1,0.3,0.8,0.4
				c0.5,0.1,1.3-0.1,0.6,0.8c-0.2,0.3,0,0.3,0.2,0.4c1.2,0.1,1.6,0.8,2.1,1.8c0.6,1.1,1.6,2,2.5,2.8c1.9,1.7,3.5,3.7,5.1,5.6
				c1.5,1.7,2.9,3.7,4.3,5.6c1.3,1.8,2.8,3.5,4.3,5.1c1,1.1,1.6,2.6,3.2,3.2c-0.3,1.3,0.8,1.9,1.5,2.5c1.3,1,1.8,2.6,3.3,3.5
				c1.1,0.7,2,0.6,3,0.1c1.3-0.6,2.6-0.9,4-0.7c0.9,0.1,1.5,0.6,1.8,1.5c0.5,2.1,2.3,3.3,3.5,4.9c0.7,0.9,5,0.6,6.3-1
				c1.8-2.1,4-2,5.7,0.1c0.5,0.6,1.3,1,1.5,2.1c-1.4-1-2.5-2.2-4.4-1.6c-0.7,0.2-1.2,1-2.1,0.8c-0.2,0-0.7,0.2,0,0.6
				c1,0.6,1.5,1.5,1.1,2.8c-0.6,1.9-0.1,2.7,1.5,3.2c0.9,0.3,2.6-0.5,2.7-1.3c0.1-1.3,1.2-2.2,1-3.9c3.2,2.5,3.5,6.2,5.4,9
				c-0.8-0.4-1.3-0.9-2.3-0.5c-0.7,0.3-0.8-0.6-0.6-0.9c0.7-1.6-0.3-2.9-0.7-4.2c-0.2-0.5-0.6-0.8-1.1-0.7c-0.5,0-0.6,0.4-0.7,0.8
				c-0.4,1.4-1.4,2.6-1.5,4.3c-0.1,1.9-0.5,3.9-0.8,5.8c0,0.2,0.1,0.5,0,0.8c-0.1,0.4-1,0.6-0.4,1.1c0.5,0.5,1.2,0.7,2,0.5
				c1-0.3,1.6-1,2.5-1.7c0,1-0.4,1.5-0.9,1.9c-0.7,0.7-1.2,1.6-0.9,2.6c0.3,1.3,2.1,1.7,3.4,0.8c0.7-0.5,1.3-1,2.1-1.6
				c0,0-0.1,0.2-0.2,0.4c-0.2,0.5-0.9,1-0.1,1.6c0.6,0.5,1.3,0.5,1.9,0.1c0.6-0.4,1.2-0.9,0.8-1.8c-0.2-0.5-0.2-1.1-0.2-1.7
				c-0.2-1.4-0.7-1.7-2.1-1.1c0-1.7,0-3.4,0-4.9c2.2,3,3,5.5,3,8.3c0,1.2-1,1.9-1.3,2.9c-0.6,2.1-1,4.2-2.3,6.1
				c-0.8,1.2-3.7,2.7-5.9,2.6c-0.1,0.3,0.1,0.4,0.3,0.4c1.6,0,1.2,0.9,0.4,1.4c-0.8,0.6-0.7,1.1-0.3,1.8c0.7,1.4,0.8,2.9,0.8,4.4
				c0,0.3-0.2,0.5-0.4,0.8c-1.6,2.3-3.8,3.7-6.1,5.2c-0.7,0.4-1.3,0.8-1.4,1.7c-0.2,1.5-1.3,2.5-1.9,3.8c-0.7,1.4-2.6,1.8-4.1,1.8
				c-2.1,0.1-3.8,1.4-5.8,1.8c-2.4,0.4-4.5,1.9-7.1,1.9c-0.9,0-1.9,0.4-2.3,1.4c-0.3,0.7-0.9,0.6-1.4,0.9c1.3,1.1,0.9,2.7,1.4,4
				c0.5,1.2,0.7,2.5,1.1,3.8c0.3,1.3,0.3,2.4-0.2,3.7c-0.8,2-0.2,4,0.2,6c0.5,2.3,1.3,4.6,0.9,7c-0.3,1.7-1.2,3.2-2,4.7
				c-0.5,1-1.1,1.8-0.3,2.9c0.3,0.5,0.4,1.3,0.2,1.9c-0.5,2.3-1.1,4.6-1.7,6.9c0,0.1-0.2,0.3-0.3,0.4c-1.4,0.6-1.8,1.4-1,2.9
				c0.7,1.4,1.2,3.1,1.5,4.5c0.4,1.7,1,3.2,1.7,4.8c0.5,1-0.9,0.8-0.9,1.3c3.6,1.7,7.5,0.5,11.3,1.2c1.9,0.4,3.9-0.2,5.8,0.2
				c3.2,0.7,6.4,0.1,9.7,0.6c1.2,0.2,2.6,0.2,3.6-0.9c0.4-0.5,1-0.9,0.9-1.8c-0.4-2.2,1.6-3.9,3.8-3.1c0.4,0.1,0.8,0.3,1.3,0.3
				c2,0.1,2.8,1,2.5,3c-0.1,0.3,0,0.8-0.1,1c-0.9,1.6-0.2,2.3,1.1,3.2c0.7,0.4,0.8,1.7,0.5,2.8c-0.4,1.7-1.2,2.5-3.1,2.3
				c-2.7-0.3-5.4-0.1-8.1-0.3c-2-0.2-3.5,1.1-5.3,1.8c-1.6,0.7-3.1,1.8-4.9,2c-1.3,0.1-3.2-1.1-3.4-2.3c-0.1-0.7-0.4-0.7-1-0.8
				c-3.9-0.3-7.8-0.4-11.7-0.1c1.2,2.2,1.3,4.5,0.1,6.6c-1.2,2.1-0.3,3.9,0.4,5.6c0.6,1.4,0.6,3,1.4,4.4c0.4,0.7-0.6,0.6-1,1.1
				c2.5,0.3,2.3,2.6,3.1,4.1c0.3,0.5,1.1,1.4,0.3,2.3c0.4,0.1-0.1,1,0.6,0.8c0.5-0.1,0.6,0.2,0.5,0.5c-0.3,1.7,1.9,2.8,1,4.7
				c1.7,0.9,1.2,2.8,1.9,4.1c1.7,2.9,2.2,6.2,3.2,9.3c0.6,2.1,0.7,4.4,1.6,6.4c1,2,1.2,4.1,1.7,6.1c1,4,2,8,2.9,12
				c0.4,1.5,0.6,3.1,1.7,4.4c0.3,0.4,0.6,0.8,0.1,1.4c-1.5-1.2-1.7-3-2.2-4.6c-0.3-0.8-0.5-1.7-1-2.4c-0.9-1.1-0.7-2.5-1.2-3.7
				c-1.1-2.6-0.4-5.8-2.6-8c-0.4-0.4-0.7-1-0.7-1.7c0-1-0.2-1.8-0.8-2.7c-0.4-0.5-0.5-1.2-0.3-2c0.4-1.5-0.2-3-1-4.2
				c-1.2-2-2.3-3.9-2.7-6.3c-0.4-2.2-1.7-4.4-2.9-6.4c-0.6-1-0.8-2-1-3c-0.3-1.9-1.5-2.6-3-1.5c-1.1,0.8-2.8,0.9-3.4,2.5
				c-0.3,0.7-0.9,0.5-0.9-0.3c0-1-0.3-2,1-2.5c0.2-0.1,0.5-0.3,0.5-0.5c0.1-2,2-3.3,2.4-5.2c0-0.2,0.2-0.6,0.1-0.7
				c-1.1-1-0.8-2.7-1.8-3.7c-0.5-0.5-1.1-0.6-1.4,0c-0.5,1-1.7,1.3-2.2,2.2c-0.2,0.3-0.5,0.4-0.8,0.3c-0.4-0.1-0.3-0.5-0.3-0.8
				c0.1-1.4-0.6-2.7-0.4-4.1c0.1-0.5-0.7-0.9-1.3-0.8c-0.6,0.1-0.8,0.6-0.7,1.2c0.1,0.8,0.3,1.8,0.7,2.4c0.8,1.5,0.8,2.8,0.3,4.4
				c-0.7,0-0.5-0.7-0.8-1c-0.2-0.3-0.4-0.4-0.8-0.4c-0.3,0-0.4,0.3-0.5,0.5c-0.1,0.5,1.3,3.5,1.7,3.6c0.4,0.1,0.8,0.1,1.1,0.1
				c0.1,0.5-0.3,0.5-0.5,0.7c-1.1,1-1.2,2.1-0.2,3.2c0.8,0.9,0.4,2.2,1.3,3.1c1.1,1.1,1.7,2.4,0.5,3.8c-0.1,0.1-0.1,0.2-0.3,0.7
				c-0.3-1.3-1.3-1.8-1.4-2.9c0-0.5-0.6-1.1-1.1-1.5c-0.7-0.6-1.5-0.6-1.7,0.6c-0.2,0.8-0.2,1.6-1.3,1.9c-0.3,0.1-0.5,0.5-0.3,0.9
				c0.3,0.5,0.7,0.8,1.3,0.7c1.5-0.4,2.2,0,2.1,1.7c-0.1,0.8,1,1,1.4,1.7c0.5,1.1,1.5,1.9,0.4,3.2c-0.5,0.6-0.2,1.6,0,2.4
				c0.5,1.8,0.5,1.8-1.3,1.9c1.7,1.7,2.7,3.8,3.9,5.7c0.6,1,0.5,2.3,1.2,3.3c0.4,0.5-0.3,0.9-0.8,1c-0.7,0.2-0.9,0.5-1.2,1.3
				c-0.6,1.7-0.7,3.6-1.8,5c-0.6,0.8-0.1,1,0.2,1.2c0.5,0.2,0.7,1.3,1.6,0.5c0.8-0.7,0.9-1.8,1.2-2.7c0.5,0.3,0.4,0.6,0.3,0.9
				c-0.8,2.6,0.1,4.9,1.4,7c0.3,0.5,0.6,1.1,1.4,1c0.1,0,0.3,0,0.3,0c1.3,2,3.5,1.6,5.5,2.1c0.3,0.1,0.7,0.2,0.7,0.5
				c0,0.4-0.4,0.4-0.6,0.6c-1.7,1.6-3.1,0.2-4.5-0.4c-1.6-0.6-3-1.2-4.5,0.3c-0.6,0.6-1.7,0.4-2.6,0.4c-0.4,0-0.8-0.2-1,0.1
				c-0.4,0.5-1.4,0.8-1.2,1.5c0.2,0.8,1.1,1.1,1.9,1c2.3-0.4,4.4,0.5,6.7,0.8c0.6,0.1,1.3,0.3,1.8,1c0.6,0.9,1.7,0.4,2.6,0.3
				c0.8-0.1,1.5,0.1,2.3,0.1c0.3,0,0.9,0.2,0.8,0.6c-0.1,1-0.6,2-1.3,2.5c-0.7,0.5-1.9,0.6-2.5-0.6c-0.5-1-1.4-1-2.2-0.8
				c-1.4,0.2-2.5,0-3.7-1c-2.7-2.2-5.9-2.1-8.1,0c-0.1,0.3,0.2,0.3,0.4,0.4c2,0.9,2,1,0.4,2.5c-0.5,0.4-0.4,0.6,0.1,0.8
				c0.9,0.4,2.6-0.2,3.2-1.2c0.7-1.3,1.6-1.6,2.9-0.6c0.5,0.4,0.9,0.4,1.5,0.4c1.5-0.1,2.9,0.6,4.3,0.8c0.3,0.1,0.8,0.3,0.7,0.7
				c-0.2,0.5-0.7,0.5-1.2,0.3c-2.2-0.6-4.4-1-6.7-0.8c-0.8,0.1-1.4,0.5-1.7,1.1c-0.2,0.5,0,1.4,0.4,1.5c1.1,0.2,2.1,0.8,3.3,0.6
				c2.1-0.3,4.3-0.6,6.3,0.4c1,0.5,1.8,0.6,2.9,0c1.2-0.7,2.7-0.8,3.9-1.6c0.5-0.3,1.5-0.6,2.2,0.3c0.2,0.2,0.8,0.1,1.2,0.2
				c0.3,0,0.6,0.1,0.9,0.2c-0.3,1.5,1.3,0.9,1.7,1.7c0.4,0.8,0.9,1.8,0.4,2.4c-1.4,1.7-0.9,4.1-2.1,5.8c0,0,0.3,0.9,0.4,1.5
				c0.1,0.5,0.4,0.8-0.3,1.1c-0.4,0.1-0.1,0.2,0.1,0.4c0.8,0.6,1.1,1.4,0.5,2.2c-0.5,0.7-0.7,1.2-0.4,2c0,0.1,0.1,0.4,0.1,0.4
				c-1.4,1.5,0.3,3.9-1.5,5.4c-0.5,0.4,0.5,0.4,0.7,0.7c0.1,0.3,0.3,0.6,0.2,0.8c-0.2,0.4-0.5,0.1-0.8,0c-1.2-0.5-1.7-2.3-0.9-3.4
				c0.3-0.4,0.5-0.8,0.7-1.2c0.4-0.6-0.2-1-0.6-0.9c-1,0.2-1.8,0.1-2.6,1.5c-1.7,2.7-1.9,6.2-4.6,8.4c-1.7,1.4-1.4,4-1.7,6.1
				c0,0.3,0.3,0.4,0.6,0.3c0.4,0,0.6-0.2,0.5-0.6c-0.1-0.7-0.2-1.8,0.6-1.7c0.8,0.1,0.5,1.3,0.4,2c-0.5,3.4-1.3,4.1-4.9,4.2
				c-1.1,0-2,0.4-2.9,0.9c-0.5,0.2-1.1,0.3-1.3-0.1c-0.3-0.5,0.2-1,0.6-1.2c1.5-1,2.4-2.6,3.9-3.7c0.8-0.6,0.6-1.9,0.5-2.9
				c-0.1-0.4-0.6-0.5-1.1-0.3c-0.6,0.3-1.1,0.5-1.6,0.9c-0.9,0.7-1.9,1.3-3.1,1.1c-1.5-0.2-2.3,1-3.1,1.8c-0.7,0.7-1.3,1-2.3,0.8
				c-2.3-0.5-5,1.1-5.9,3.8c-0.3,0.7,0,1,0.3,1.4c0.4,0.5,1,0.9,1.6,0.5c1.4-0.8,2.9-1.2,4.5-1.3c0.5,0,1-0.1,1-0.9
				c0.1-0.7,0.8-1.1,1.4-0.6c0.4,0.3,1.4,0.6,0.4,1.5c-0.4,0.3-0.3,1.1-0.6,1.7c-0.6,1.1-1.3,1.6-2.5,1.8c-2.1,0.3-2.7,3.2-1.7,4.6
				c0.5,0.7,1,1.2,1.5-0.1c0.2-0.6,0.4-1.3,1.4-0.4c0.5,0.4,1.6,0.4,2.3,1c0.4,0.4,0.9-0.3,1.2-0.9c0.5-1.2,3.2-2.5,4.3-2
				c0.8,0.3,0.3,1,0.2,1.5c-0.1,0.5-0.5,1.1,0.3,1.2c0.6,0.1,0.7-0.5,0.8-0.9c0.1-1.2,0.7-2.1,1.6-2.9c0.2-0.2,0.4-0.4,0.4-0.6
				c-0.1-1.4,0.9-1.3,1.8-1.4c1.1,0,1.5,0.4,1.6,1.5c0.1,0.7,0.4,1.5,0.5,2.2c0.1,1.6-1.3,2.2-2.2,3.1c-1.6,1.6-3.4,3-5.6,3.8
				c-0.3,0.1-0.5,0.4-0.4,0.7c0.2,0.5,0.3,1.1,0.9,1.1c0.5,0,1.3,0.3,1.5-0.5c0.4-1.7,1.4-2,2.8-1.3c0,0.1,0,0.2,0,0.2
				c-0.3,0.5-0.8,0.9-0.5,1.5c0.1,0.3,0.4,0.2,0.7,0.2c0.7-0.1,1.7-0.2,1.8-0.9c0.2-2.2,2.2-1.9,3.4-2.4c0.7-0.3,1.4-0.2,1.5-1.3
				c0.1-1.2,1.4-1.1,2.2-1.6c0.2-0.1,0.6,0.2,0.4,0.6c-0.1,0.4-0.3,0.8-0.5,1.1c-0.3,0.5-1.1,0.7-0.8,1.5c0.3,1,1.1,1.7,1.8,2.4
				c0.8,0.7,2.3-0.3,3-1.7c1.1-1.9,2-3.9,1.8-6.2c-0.1-1.3-1.4-2.2-2.5-1.4c-0.7,0.5-1.2,0.5-1.8,0.1c-1.2-0.7-2.5-0.1-3.9-0.3
				c0.3-1-0.1-2.4,1.4-2.8c0.2,0,0.3-0.3,0.3-0.5c0.7-2.7,2.6-4.5,4.9-5.7c1.5-0.8,2-2.3,3.3-3.7c-0.5,2.3-1.1,4.3-0.9,6.3
				c0.3,2.8-0.5,5.7,0.1,8.5c0.2,1.2-0.3,2.4-0.5,3.5c-0.4,2.3-0.3,4.5-0.2,6.7c0.1,1.5-1.2-0.1-1.4,0.7c2.5,1.2,0.1,2.5-0.4,2.7
				c-2.7,1.6-2.7,4.2-2.9,6.7c-0.1,1-0.4,1.3-1.4,1.2c1.2,0.2,1.7,0.7,1.1,1.8c-0.5,1.2,0.3,2.4,0.1,3.6c-0.3,2.1-0.5,4.3-0.2,6.4
				c0.2,1.4,0.4,2.9,0.4,4.2c-0.1,3.3-0.7,6.6-0.9,10c-0.1,1.6-0.2,3.2,0.2,4.9c0.4,1.8-0.3,3.4-1.8,4c0,0.5,1.3-0.1,0.8,1
				c-0.3,0.6,1.5,0.7,0.8,1.7c1.7,1.7,2.3,4.2,4.2,5.7c1.4,1.1,3,2,4.6,3c0.2,0.1,0.6,0.3,0.6,0.4c0.1,2.1,2.2,1.4,3.2,2.2
				c1.2,0.9,2.4,1.4,3.8,1.7c3.1,0.7,6.3,1,9.4,1.2c3.3,0.3,5.8,2.2,8.1,4.3c0.7,0.6,1.1,2.2,0.5,3.6c-0.2,0.6-0.6,1.4,0.3,2.1
				c0.6,0.5-0.3,2.8-1.4,3.2c-2.4,1-4.8,2-7.5,2.1c-2.3,0-4.3,1.1-6.5,1.7c-3.1,0.7-6.1,1.2-9.2,1.4c-3.3,0.2-6.4-0.3-9.5-0.6
				c-2-0.1-3.9-1.2-5.9-1.5c-1.9-0.3-3.8-0.1-5.8-0.4c-0.8-0.1-1.8,0.5-2,1.6c-0.2,1-0.7,1.4-1.8,1.5c-5.4,0.8-10.6-0.4-15.8-1.5
				c-1.1-0.2-2.2,0-3.3-0.4c-1.2-0.5-2-1-2.1-2.6c0-1.6-0.8-3.3,1.5-4c-0.7-0.5-1-0.1-1.4,0c-0.5,0.2-0.7-0.1-0.7-0.5
				c0.1-4,0-7.9-0.4-11.9c-0.1-1.1,0.6-2.1,1.2-2.9c0.4-0.5,0.5-0.7,0.4-1.2c-0.3-2.3,1.2-4.2,1.4-6.4c0.1-1.8,0.6-3.6,0.2-5.4
				c-0.3-1.4-0.1-2.9,0.1-4.4c0.1-0.9,0.2-2,0-2.8c-0.3-1,0.4-2-0.4-3c-0.3-0.3-0.2-1.9,1.4-1.5c-0.3-0.7-1.5-0.8-1-1.8
				c0.4-0.9,0.9,0.6,1.4-0.1c-0.1-0.6-0.6-0.4-1-0.4c-0.5-0.1-0.8-0.3-0.7-0.8c0.3-2.1-0.7-4.1-0.6-6.2c0.1-2.3,0.2-4.6,0-6.8
				c-0.3-3.2-0.2-6.7-2-9.7c-0.3-0.5-0.6-0.8-1.1-1c-1.7-0.8-2.8-2-3.1-4c-0.1-0.5-0.6-1.2,0.4-1.5c0.1,0,0.2-0.3,0.2-0.4
				c-0.7-2.9-0.1-5.8-0.6-8.7c-0.5-2.9-0.4-5.8-0.7-8.7c-0.2-1.6-0.5-3.4,0-5.1c0.4-1.4-0.8-2.9,0.3-4.3c-1.1-0.9,0-2-0.4-3
				c-0.4-1.1-0.2-2.2-0.3-3.4c0-1.1-1-1.8-1.3-2.7c-0.9-2.5-0.2-4.9,0.8-7.2c0.6-1.4,0.7-2.5-0.5-3.5c-2.6-2.1-2.4-5.2-0.2-7.7
				c0.5-0.5,0.4-2.3-0.2-2.6c-1.4-0.8-2.4-1.7-2.8-3.3c-0.3-1.3-1.6-2-2.3-3.2c-0.8-1.4-1.4-3-2.2-4.4c-0.3-0.5-0.4-1-0.9-1.4
				c-0.2-0.2-0.5-0.4-0.1-0.7c0.7-0.6,0.7-0.6-0.1-1.1c-0.9-0.6-1.5-1.1-1.6-2.5c-0.1-1.9-1.3-3.4-2.9-4.6c-0.6-0.5-1.1-0.2-1.4,0.4
				c-0.9,1.9-2.4,3.5-2.5,5.8c0,0.1-0.1,0.3-0.2,0.4c-1.4,0.9-1,2.6-1.6,3.9c-1.3,2.8-1.5,5.8-1.7,8.8c-0.1,1.3-1.1,2.4-1.4,3.5
				c-0.4,1.3-0.9,2.6-1.4,3.8c-0.7,1.8-1.3,3.8-2.8,5.1c-0.4,0.4-0.7,0.8-0.8,1.2c-0.2,1.7-1,3.1-1.5,4.7c-0.5,1.5-1.2,3-1.8,4.4
				c-0.8,2-2.5,3.5-3.4,5.2c-0.9,1.7-2.8,2.6-3.2,4.6c0,0.2-0.4,0.3-0.6,0.5c-2.2,1.5-3,3.8-3.3,6.3c-0.3,2.8-1.8,5.1-3.3,7.3
				c-0.4,0.6-1.4,1.2-2.1,1.4c-2.2,0.6-2.3,2.6-3.3,4.1c-0.9,1.4-1.9,2.9-2.7,4.3c-1.1,2-2.8,2.6-4.5,3.7c-1.5,0.9-3,1.2-4.5,1.8
				c-2.7,1-3.3,3.9-4.8,6c-1.9,2.8-3.3,5.9-5.4,8.7c-0.5,0.6-0.7,1.4-1.6,1.6c-0.1,0-0.2,0.1-0.2,0.1c0.3,2.4-1.5,4.1-2.1,6.3
				c-0.1,0.4-0.4,0.8-0.8,0.9c-0.6,0.2-0.8,0.3-0.3,0.8c0.2,0.2,0.1,0.5-0.2,0.7c-1.9,1.8-2.3,4.6-3.7,6.7c-1.3,1.9-1.5,4.7-4.3,5.6
				c-0.9,0.3-0.7,1.1-0.4,1.7c0.4,0.8,0.5,1.7,0.6,2.5c0.1,0.9,0.2,1.8-1.1,2.2c1.3-0.2,1.9,0.6,2.1,1.2c0.7,1.7,1.9,3.1,2.9,4.6
				c0.9,1.3-0.8,1-0.8,1.8c2.3-0.6,1.4,1.8,2.4,2.5c0.9,0.7,0.6,1.9,1.1,2.8c1.3,2.3,3.4,3.6,5.5,4.9c2.6,1.6,5.5,2.6,7.6,5.2
				c1.5,1.8,3,3.4,3.2,5.7c0.1,1.2,0.4,2.4-0.2,3.6c-0.4,0.8-0.3,1.8-0.5,2.8c-0.4,1.7-1.5,2-2.7,2.1c-3.4,0.2-6.7,0.3-10.1,0.1
				c-1.3-0.1-2.7-0.3-4,0.2c-0.8,0.4-1.3-0.4-2-0.6c-1.9-0.6-3.9-0.5-5.6-1.3c-1.5-0.7-3-1.5-4.1-2.7c-0.2-0.3-0.5-0.6-0.8-0.7
				c-3.1-0.6-4.8-3.2-7-5.1c-1.8-1.5-3.7-2.8-5.2-4.6c-1.3-1.6-3.4-2.3-4.9-3.8c-0.7-0.7-2-0.2-3-0.3c-2.4-0.2-4.4-0.6-6.4-2.4
				c-2-1.7-3.9-3.4-5.6-5.4c-1.3-1.5-2.8-2.9-3.3-5c-0.1-0.6-0.2-1.2,0-1.6c1-1.8,1.5-3.9,2.2-5.8c0.4-1.2,1.4-2.3,2-3.5
				c1-2.2,2.8-3.7,3.9-5.7c0.6-1.1,1.7-2,3-2.5c1-0.4,1.4-0.9,1.7-2.2c0.3-1.6,0.6-3.5,2-4.8c0.4-0.4,0.6-1,0.7-1.5
				c1.3-4.3,2.6-8.6,4.2-12.8c0.6-1.5,1.2-3.1,1.6-4.8c0.4-1.7,1.2-3.3,2-4.9c0.7-1.4,0.9-3,1.8-4.3c0.9-1.3,1.4-2.9,2.8-3.9
				c0.8-0.5,0.5-1.9,1.2-2.7c0.9-1.2,1.3-2.6,2.1-3.8c0.6-0.8,0.5-1.7,0.6-2.6c0-0.7,0.3-1.3-0.5-2.2c-1.2-1.4-1.3-3.7-1-5.8
				c0.2-1.7,0.9-3,2.4-4c0.1-0.1,0.2-0.1,0.2-0.2c1-3.1,3.9-5.5,3.9-9.1c-0.1-2.7,1.6-4.5,3-6.5c0.1-0.1,0.4-0.2,0.4-0.3
				c0.2-1.9,0.8-3.4,1.9-4.9c0.1-0.2,0.3-0.4,0.3-0.7c0.5-2.7,2.2-4.6,4.1-6.3c0.6-0.5,1.1-1.1,1.3-1.8c0.4-1.6,2-2.5,2.3-4.1
				c0.1-0.5,0.4-1,0.3-1.6c-0.4-2.2,0.5-4.1,1.4-6c0.7-1.5,0.3-2.6-1.3-3.2c-2.3-0.8-3.9-2.4-5.5-4.1c-2.6-2.7-5.3-5.3-6.8-8.9
				c-0.3-0.8-1.1-1.3-1.6-2c-0.4-0.6-1.2-1.3,0.3-1.9c-1.3,0-1.7-0.7-2.1-1.5c-1.4-2.8-2.8-5.7-4.2-8.5c-0.9-2-2.2-4-2.7-6
				c-0.8-3.1-2.6-5.7-3.3-8.8c-0.3-1.7-1.5-2.4-3.2-2.8c-3.7-0.9-6.5-4.4-6.1-7.8c0.1-1,0.4-1.9,1-2.7c0.9-1.2,1.7-2.6,2.9-3.5
				c2.3-1.8,2.3-4.1,2.1-6.6c-0.2-2.5-0.6-4.9-0.8-7.4c-0.2-1.9,0.1-3.9-0.3-5.9c-0.2-0.7,0.6-1,1.3-1.2c-0.7-0.4-1.4-0.8-1.4-1.6
				c0-1.1-1.5-1.5-1.1-2.8c0.3-0.9,0.6-1.4,1.6-0.9c1.2,0.6,2.1,0.3,3-0.6c1-0.9,2.6-0.9,3.4-2.3c0.3-0.6,0.9-0.9,1.1-1.7
				c0.2-1,1.4-1.3,2.4-1.7c1.1-0.5,1.6-1,0.4-1.9c-1.8-1.4-3.2-3.2-4.2-5.3c-0.5-1.2-1.6-2.2-1.6-3.5c0-1.8-0.9-3.7-0.4-5.4
				c0.4-1.4,0.6-3.2,2.4-4c0.5-0.2,1.3-1.3,1.4-2.3c0-0.5,0.2-1,0.6-1.2c1.3-0.8,1.7-2.4,2.4-3.6c0.4-0.6,0.6-1.2,1.3-1.5
				c0.2-0.1,0.4-0.3,0.4-0.4c-0.1-2.3,2.3-3.1,3-4.9c0.6-1.8,2.5-2.7,3.6-4.1c1-1.3,0.8-2.1,0.1-3c-1.2-1.4-2.3-3-3.7-4.3
				c-1.1-1.1-1.2-2.3-1.4-3.5c-0.3-2.3-1.3-4.3-2.6-6.3c-0.5-0.8-0.7-1.8-1.1-2.7c-0.9-2.1,0.3-4.2-0.4-6.1
				c-0.8-1.9-0.2-3.8-0.3-5.6c0-0.3,0-0.6,0.1-0.7c0.6-0.5,1.4-0.7,0.3-1.7c-0.5-0.5,1.1-0.2,1.2-1c-2.6-0.6-1.1-2.7-1.4-4.1
				c-0.5-1.8,0.4-3.9-0.1-5.9c-0.4-1.4,0.5-2.7,0.5-4.2c0-2.3,0.5-4.6,0.3-6.9c-0.2-2.8-0.6-5.6-0.5-8.4c0.1-1.6,0.8-3.1,1.1-4.6
				c0.3-1.2,0.9-2.3,1.1-3.5c0.2-1.7,0.6-3.3,1.4-4.9c0.7-1.2,1.4-2.4,2.1-3.7C232.7,277.3,233.4,277.9,233.9,278.4
				c0.4,0.4,0.7,0.9,1,1.3c0.2,0.3,0.6,0.4,1,0.2c0.2-0.1,0.4-0.2,0.4-0.4c0.1-0.5-0.4-0.5-0.7-0.7
				C235.1,278.6,234.6,278.2,233.9,278.4z M289,379.8c-0.8,0-1.6-0.1-1.8,1.1c-0.1,0.8-0.6,1.1-1.5,0.9c-0.2,0-0.4,0-0.5,0.2
				c-0.1,0.2-0.1,0.4,0.1,0.5c1.1,0.4,1.6,1.6,2.6,2.1c0.7,0.3,1.4,0.9,2,0c0.5-0.8,1.2-1.8-0.2-2.6
				C288.7,381.5,288.5,380.7,289,379.8c0.5-0.4,0.7,0.2,1.1,0.4c0.5,0.3,1.2,0.3,1.2-0.5c0-1.1-1.1-1-1.8-1.4
				c-0.5-0.2-1.1-0.4-1.3,0.2C287.9,379.2,288.9,379.3,289,379.8z M226.6,602.7c0.9,1,2.1,1.1,3.3,0.7c0.8-0.2,1.5-0.2,2.2,0.1
				c1.2,0.5,2.4,0.4,3.8-0.2c-1.1-0.4-0.9-1.8-1.9-1.9C231.4,601.1,228.9,601.3,226.6,602.7c0.1-0.4-0.1-0.7-0.4-1
				c-1.9-1.9-1.9-2.2-0.3-4.5c0.2-0.2,0.3-0.4,0.1-0.7c-0.6-0.8-1.4-1.1-2.3-0.9c-0.9,0.2-2.2,0.6-2,1.6c0.2,1.4-0.4,3.1,1.3,4.3
				C224.2,602.3,225.1,603.3,226.6,602.7z M349.5,514.3c0.5,0.3,1,0.3,1.5,0.3c0.3,0,0.7-0.2,1,0.2c0.2,0.4-0.1,0.9-0.3,1
				c-1.3,0.6-2,1.8-3,2.6c-1.1,0.8-1.9,1.8-2.6,3c-0.1,0.2,0,0.7-0.3,0.5c-1.2-0.5-1.3,0.8-1.9,1.1c-1.3,0.8-1.4,2.7-3.2,3.2
				c-0.7,0.2-0.7,1.2-0.6,1.9c0,0.4,0.2,0.8,0.6,0.8c0.7,0,0.7-0.8,1.1-1.2c0.1-0.1,0.2,0,0.4-0.1c0.1,0.4,0.1,0.9,0.3,1.3
				c0.2,0.6,0.8,0.7,1.1,0.2c0.4-0.8,0.7-2,0.6-2.7c-0.1-0.8,0.1-0.8,0.6-0.8c0.5,0,1-0.1,1.5-0.1c0.7,0,1.9-0.5,1.9-0.6
				c-0.3-1.6,0.8-1.3,1.7-1.4c0.8-0.1,1.3-0.1,1.5-1.1c0.2-0.9,0.8-1.8,2-2.1c1-0.2,2.1-0.9,2.2-2.1c0.2-1.3,0.9-2.1,1.9-2.8
				c1-0.7,1.1-2.1,0.9-3c-0.2-0.7-1.4,0.3-2.2,0.3c0,0-0.1,0-0.1,0.1c-0.7,0.3-1.3,0.5-0.9-0.7c0.3-0.9-0.3-1.5-1-1.2
				C352.2,511.6,350,511.9,349.5,514.3c-0.7,0.2-0.7,0.3-0.9-0.5c-0.1-0.6-0.3-0.8-0.6-0.1c-0.2,0.4-0.4,0.6-0.8,0.3
				c-0.2-0.2-0.7-0.5-0.5-0.7c0.8-0.7,0.3-1.1,0-1.7c-0.5-1.1,0.1-3,1.2-3.5c0.8-0.4,1.1-1.1,0.9-1.7c-0.1-0.7-0.9-0.8-1.6-0.9
				c-1.7-0.1-3.5,0.7-5-0.8c-0.4-0.4-1.1,0.2-1.3,0.7c-0.3,0.5,0.2,0.8,0.6,0.9c1.2,0.3,2.3,1.1,3.5,1.5c0.5,0.2,1.2,0.1,1.2,0.7
				c0,0.6-0.2,1.2-0.8,1.5c-1.1,0.7-2.2,1.4-3.2,2.1c-0.9,0.6-1.2,1.1-0.4,2.2c0.7,1.1,2.2,1.1,2.6,2.6c0.3,1.1,0.7,2.2,0.8,3.8
				c1.3-2.5,1.9-4.9,4.5-5.8C349.9,514.8,349.6,514.5,349.5,514.3z M311.1,437L311.1,437c0-0.2,0-0.4,0-0.6c0.6-1.6,0.9-3.2,1.1-4.9
				c0.2-1.3,0.1-2.7,2.1-2.7c0.6,0,0.4-0.7,0-0.9c-1.6-0.8-3.3-1-5-0.8c-0.8,0.1-1.5,0.9-1.3,1.5c0.3,1-0.3,1.7-0.5,2.6
				c-0.3,1.1-0.6,2.2-0.9,3.3c-0.5,2-0.8,3.9-1.9,6.2c0,0,0.1,0.1,0.1,0.2c0.4,1.4-0.1,2.8-0.5,3.9c-0.7,1.9-0.9,4-1.4,5.9
				c-0.7,2.7-1,5.4-2.7,7.7c-0.2,0.2-0.2,0.5,0,0.7c1,0.8,0.8,2,0.6,2.8c-0.4,1.2-0.5,2.6-1,3.8c-0.6,1.5,0.2,2.4,1.8,2.5
				c1.3,0,2.6-0.3,4,0c0.5,0.1,1.2-0.2,1.5-1.1c0.5-1.1,0.6-2.2,0.8-3.3c0.5-2.6,1.4-5.1,1.9-7.7c0.5-2.8,1.3-5.4,2-8.1
				c0.5-1.9,0.8-3.8,1.4-5.7c0.3-1.1-0.1-2.4,2-2c-1.4-1-1.2-1-0.8-3.8c0.2-1.5,1.3-0.4,1.8-0.9c-1.5-0.7-1.7-1.3-1-3.2
				c0.3-0.7,0.9-1.7,0.5-2c-0.8-0.7-1.4,0.5-2.1,0.8c1,0.5,1,0.5,0.5,1.3c-0.2,0.3-0.5,0.6-0.4,0.8c0.5,1.4-0.6,2.3-1,3.5
				C312.3,437.2,311.8,437.2,311.1,437z M298.3,316.9c-1.1,0.3-2.2-0.3-1.9-0.9c0.7-1.3-0.3-2.7,0.7-3.9c0.8-1-0.3-2.4,0.5-3.4
				c-1.6-0.7-0.4-1.5-0.2-2.4c0.6-1.9,1.3-3.9-0.3-5.7c-0.2-0.2,0.1-0.5,0.1-0.7c0.3-1.7,0.7-3.3,0.7-5c0-1.9-0.1-3.7-0.3-5.6
				c-0.3-2.2,0.3-4.6,0.1-6.9c-0.2-2.9-0.4-5.9-1.1-8.8c-0.4-1.6-0.4-3.6-2-4.8c-0.2-0.2-0.2-0.4-0.2-0.7c-0.2-4.1-0.4-4.7-3-7.6
				c-0.7-0.7-1.6-1.4-2.7-1.4c-1,0-2,0.5-2.8,1c-0.5,0.3,0,1.5,0.3,2.2c-0.8,0.4-1.5,0.1-2-0.4c-2.7-2-6.1-1.9-9.2-2.8
				c-1.3-0.4-1.9-1.2-2.5-2c-0.6-0.9,0.8-0.8,1-1.4c0-0.2,0.3-0.3,0.4-0.5c0.2-0.4,0.8-0.8,0.4-1.4c-0.4-0.4-0.8-0.6-1.4-0.6
				c-2-0.2-4,0.1-5.9,0.3c-2.1,0.2-3.4,1.7-4.9,2.8c-0.3,0.2-0.5,0.6-0.3,1c0.3,0.4,0.7,0.3,1.1,0.1c1.5-0.6,3.1-1,4.8-1
				c0.7,0,1.5-1.1,1.8-0.3c0.2,0.7-1.2,0.9-1.8,1.2c-0.1,0-0.2,0-0.3,0.1c-0.7,0.1-0.7,0.6-0.6,1.2c0.2,0.8,0.8,0.9,1.4,0.9
				c1.6,0,3.3,0,4.9,0.1c0.4,0,1.1,0,1,0.6c-0.1,0.5-0.7,0.4-1.1,0.3c-0.7-0.1-1.4,0-2.1,0.1c-1.9,0.2-3.1,1.8-4.9,2.1
				c-2.3,0.4-4.2,1.4-5.6,3.3c-0.3,0.4-0.7,0.3-1.1,0.4c-0.7,0.2-1.4,0.4-1.9,1c-1.2,1.5-0.5,3.8-2.3,5c0,0,0.1,0.3,0.2,0.4
				c0.4,0.5,0.1,1-0.1,1.5c-1.2,2.7-2.9,5.1-5.1,6.9c-1.5,1.2-2.3,2.9-3.7,4c-0.9,0.8-0.9,2.1-1.8,2.8c-0.7,0.6-1.4,1.1-1.1,2.2
				c0.1,0.4-0.2,0.7-0.5,0.9c-0.5,0.3-0.6,0.7-0.2,1.1c0.5,0.5,0.8-0.1,1-0.3c0.8-0.7,1.9-1,2.2-2.3c0.2-1,1.7-1.1,2.2-2
				c1.1-1.8,2.8-3.1,3.5-5.1c0.2-0.5,0.6-0.9,1.1-1.2c1.3-0.9,1.9-2.3,3-3.3c1.1-1,1.3-2.5,2.5-3.3c0.4-0.3,0.9-0.8,1.3-0.4
				c0.4,0.4-0.1,0.8-0.5,1.1c-0.3,0.2-0.1,0.6-0.3,0.8c-0.5,0.8-0.3,2.3-1.9,2.2c-0.4,0-0.5,0.3-0.3,0.7c1,2.2-0.6,3.7-1.8,5
				c-1.4,1.4-1.8,3.8-4.2,4.2c-0.1,0-0.1,0.4-0.3,0.5c-0.7,0.7-1.6,1.9-2.2,1.8c-1.2-0.1-1.5,0.5-1.9,1.3c-0.3,0.6-0.6,1.2-1.4,1.3
				c-0.2,0-0.6,0.1-0.5,0.4c0.1,0.3,0.3,0.4,0.6,0.4c1.2-0.1,1.7,0.9,2,1.6c0.3,0.5-0.8,1-1.4,1.3c-0.3,0.2-0.6,0.6-0.9,0.8
				c-1,0.6-1.5,1.8-2.6,2.3c-1.6,0.6-2.7,2-3.8,3.1c-2.7,2.6-2.9,6.4-5,9.4c-0.8,1.2-1,2.8-1.6,4.2c-0.5,1.3-0.6,2.3-0.2,3.6
				c0.3,1.1,0.2,2.3-0.3,3.5c-0.3,0.6-0.6,1.1-0.6,1.7c-0.1,1.4,0.5,1.9,1.9,1.5c0.7-0.2,1.4-0.5,2.1-0.6c0.6-0.2,1.3,0,1.6,0.6
				c0.3,0.6-0.4,0.8-0.8,1.1c-0.4,0.2-0.8,0.5-1.1,0.7c-1,0.7-2,1.4-2.9,2.1c-0.7,0.6,0.8,1.1,0.5,1.7c-0.7,1.6,0.3,2.1,1.4,2.6
				c0.3,0.2,0.7,0.4,0.8,0.7c0.8,3.1,3.8,3,5.9,4.2c1.4,0.8,2.9,0.5,4.5,0.4c2.1-0.1,4.2,0.1,6.3,0.2c1.3,0,2.7,0,3.8,1
				c0.8,0.7,0.8,0.7,1.1-0.3c0-0.1,0.2-0.3,0.3-0.3c0.5,0,1.2-0.4,1.6,0.1c0.5,0.6-0.3,0.8-0.5,1.2c-0.3,0.5-0.9,0.7-1.4,0.9
				c-1.9,0.6-3.8,0.8-5.7,1c-1.5,0.1-3,0.3-4.2,1.6c-0.7,0.7-1.8,1.4-2.6,0.3c-2.3-2.8-5.8-2.3-8.4-1.2c-0.3,0.1-0.5,0.4-0.4,0.7
				c0.6,1.6,0.9,3.3,2.9,3.9c1.3,0.4,2.7,0.7,3.9,1.4c2.4,1.4,4.4-0.6,6.6-0.8c0.5-1.5,2.1-1.2,3.2-1.6c0.5-0.2,1.3-0.5,1.4,0.2
				c0.1,0.6-0.3,1.2-1.1,1.4c-1.3,0.3-2.4,0.7-3.3,2c-1,1.5-2.3,3-4.4,3.3c-0.3,0-0.5,0.3-0.3,0.7c0.2,0.5,0.3,1,0.3,1.5
				c-0.1,0.7,0.9,0.8,0.9,0.7c1-0.9,2.2-0.4,3.2-0.5c0.4-0.1,0.8-0.2,0.8-0.8c0-0.4-0.2-1.1,0.5-1c0.7,0.1,0.3,0.7,0.4,1.1
				c0.1,0.5,0.2,0.9,0.8,1c1.3,0.3,3.8-1.2,4-2.6c0.1-0.8,0.4-1.4,1.1-1.7c0.7-0.3,1-0.4,0.9-1.2c-0.1-0.7,0.5-1,1.2-0.8
				c0.8,0.2,0.2,0.8,0.1,1.1c-0.8,2.4-1.8,4.6-4.2,5.9c-1,0.6-1.8,1.5-2.6,2.3c-1.3,1.5-1.3,1.9,0.2,3.2c1.3,1.2,4.2,1.1,4.9-0.2
				c1.3-2.3,2.6-2.8,5.1-1.9c0.4,0.1,0.8,0.2,1.2,0c0.2-0.1,0.5-0.2,0.7,0.1c0.2,0.2,0,0.5-0.1,0.7c-0.6,1-1.6,1-2.5,1.2
				c-0.9,0.3-2,0.5-2.2,1.4c-0.4,1.8-1.1,3.5-1.6,5.3c-0.2,0.7-0.1,1.8,0.8,2.5c0.8,0.6,1.4,0,2.1-0.3c1-0.5,1.8-1.3,2.7-2
				c0.2-0.2,0.5-0.4,0.8-0.2c0.3,0.2,0.4,0.5,0.3,0.8c-0.5,1.7,0.8,1.9,1.8,2.4c0.4,0.2,1,0.2,1.5,0.3c0.4,0.1,0.8,0.2,0.8,0.7
				c0,0.5,0.2,1-0.3,1.2c-1.3,0.6-1.7,2.2-3.1,2.7c-0.4,0.2-0.4,2.7-0.1,2.8c0.8,0.4,2.7-0.8,2.7-1.7c0-0.4-0.1-0.8-0.1-1.2
				c0-0.4-0.1-0.9,0.4-1c0.6-0.1,0.6,0.4,0.6,0.9c0.1,0.8,0.2,1.6,0.3,2.3c0.7-0.1,0.8-0.5,0.8-0.8c0.1-1.3,0.5-1.9,1.9-1.5
				c0.7,0.2,1.4-0.1,2.1-0.3c3.3-1,6.2-3.1,9.9-2.9c1.2,0,1.3-0.7,0.8-1.7c-0.4-0.8-0.9-1.5-1.2-2.3c-0.9-2.8-2.1-5.5-4.6-7.3
				c-0.2-0.2-0.5-0.4-0.6-0.7c-0.7-1.8-1.6-3.4-2.9-4.8c-0.5-0.6-1.2-1.5,0.5-2c-1.2-0.1-1.8-0.4-2.2-1.5c-0.4-1-0.3-2.3-1.3-3.2
				c-0.6-0.5-0.9-1.5-1.7-1.6c-1.1-0.1-1.8-0.7-2.4-1.5c-0.5-0.6-0.7-0.6-1.2-0.2c-0.8,0.6-1.3,0.4-1.8-0.5
				c-0.8-1.2,0.2-2.1,0.2-3.2c0-0.3-0.2-0.8,0.4-0.9c0.5-0.1,0.9,0,1.3,0.3c0.2,0.3,0.4,0.6,0.6,0.9c0.4,0.5,1,0.4,1.6,0.2
				c0.6-0.2,0.3-0.8,0.2-1.2c-0.4-1.8-2.3-3.5-4.2-3.6c-0.5,0-0.8,0-0.8-0.7c0-1.5-0.9-2-2.3-1.5c-0.3,0.1-0.5,0.2-0.6-0.1
				c-0.4-1.7-1.5-1-2.4-0.8c-1.3,0.3-2.4-0.1-3.7-0.2c0.9-0.4,1.2-0.9,1.1-1.9c-0.2-1,0.3-1.7,1.4-2.1c1.2-0.4,2.3-1,3.6-1.5
				c-0.9-1.1-1.2-2.5-2.6-3.2c-0.5-0.2-0.4-0.8-0.1-1.4c0.4-0.6,0.1-1.1-0.4-1.5c-1.7-1-3.5-1.3-5.3-0.2c-1.7,1.1-3.7,1.5-5.6,2
				c-1.1,0.2-2.3-0.2-2.7-1.2c-0.4-0.8,0-1.9,0.7-2.6c2-2,4.3-3.4,7.2-4.1c1.9-0.4,3.9-0.7,5.7-1.5c-0.8-0.6-1.5-0.4-2.3-0.4
				c-2.1-0.1-4.3,0.2-6.4-0.5c-0.5-0.2-0.8-0.5-0.9-0.9c-0.1-0.6,0.5-0.5,0.8-0.7c0.4-0.3,1.1-0.4,1.3-0.8c0.9-1.8,2.7-1.8,4.2-2.2
				c1.7-0.4,2.4,0.1,3.5,1.9c0.1,0.1,0.3,0.1,0.4,0.1c1.4,0.1,2.7,0.8,4.1,1.2c0.7,0.2,1.3,0.5,1.7,1.3c0.4,0.7,1.6,0.5,2.4,0.3
				c0.9-0.3,0.7-0.9,0.5-1.5c-0.5-1.2-1-2.1-2.6-1.8c-1.6,0.3-1.6-1.3-2.3-2.1c-0.3-0.3-0.3-0.7,0.1-0.9c0.8-0.6,1.5-0.1,2.3,0.2
				c1.5,0.5,2.6,1.7,4.3,1.8c0.9,0,2.5,0.9,1.8,2.7c-0.2,0.4,0,1,0.7,0.9c1.3-0.4,2.8-0.7,3.4-2.1c0.8-1.7,1.4-3.4,2.7-4.9
				c1.4-1.7,2.5-3.8,3.9-5.6c0.4-0.5,0.9-0.9,1.1-1.7c0.4-1.4,0.1-2.8,0.4-4.1c0.2-0.6,1.6-3,2-3.4c1.1-1.1,2.8-1.8,2.8-3.7
				c0-0.5,0-0.9,0.2-1.4c1.2-2.4,2.6-4.8,2.8-7.6c0.1-0.7,0.3-1.1,1.1-1.3c0.5-0.1,1-0.2,1-0.9c0-1.1-1-1.2-1.6-1.7
				c-0.4-0.3-0.8-0.1-1.2,0.3c-0.6,0.5-0.5,1.1-0.8,1.7c-0.2,0.5-0.7,0.9-0.9,1.5c-0.4,1.4-0.8,3.2-1.6,4.2c-2.2,3-3.4,6.5-5.5,9.5
				c-0.9,1.2-2.2,2.4-1.8,4.3c0.1,0.4-0.5,0.7-0.9,0.7c-1.8,0-2,1.4-1.6,2.4c0.5,1.2-0.1,1.6-0.7,2.1c-0.9,0.7-1.5,1.6-2.1,2.6
				c-0.5,0.8-1.7,0.9-2.1,2c-0.4,1.1-1.5,1.2-2.5,0.5c-1.3-0.9-2.4-2-4-2.4c-0.6-0.1-1.5-0.2-1.9-0.6c-2.1-2.4-4.5-1.5-6.9-0.9
				c-1.6,0.4-3.3,0.6-5,0.5c-1.2-0.1-1.4-0.8-1.2-1.8c0.2-1.1,0.7-1.9,1.9-2.5c0.8-0.4,1.6-0.9,2.1-1.7c0.9-1.7,2.1-3.1,4.1-3.7
				c1.1-0.4,2.3-0.1,3.4-0.7c0.3-0.2,0.6-0.4,1-0.1c0.3,0.4,0,0.7-0.1,1c-0.5,1.2-1.4,2.2-1.6,3.6c-0.1,0.5-0.3,0.9,0.3,1.2
				c0.5,0.3,1.3,0.3,1.4,0c0.6-1.4,1.8-0.9,2.7-0.9c0.3,0,0.8-0.6,0.6-0.9c-0.2-0.3,0-0.5,0.2-0.7c0.3-0.5,0.4-0.9-0.2-1.2
				c-0.3-0.2-0.4-0.5-0.1-0.6c0.8-0.4,1.6-0.7,2.4-0.9c0.5-0.1,0.5,0.3,0.3,0.7c-0.4,0.8-0.2,1.5,0.2,2.3c0.2,0.6,0.5,1.1,1.1,1.1
				c0.8,0,0.7-0.7,0.7-1.3c0.1-1,0.5-1.5,1.5-0.9c0.8,0.4,1.7,0.7,2.2-0.1c0.6-0.9,0.8-2.3-0.2-3c-1.8-1.3,0-1.5,0.5-2.1
				c0.2-0.3,0.8,0.1,1.1-0.4c-0.6-0.8-0.6-0.8,0-1.3c2.4-1.8,3.9-3.9,3.6-7.1c-0.1-1.3,1-1.9,2.1-1.3c0.9,0.5,2.9-0.2,3-1.1
				c0.1-1.3,1.2-1.8,1.8-2.7c1-1.3,1.8-2.8,1.6-4.6c-0.3-2.2-0.9-4.2-2.6-5.7c-0.4-0.4-0.4-0.8,0-1.2c0.5-0.4,0.8,0.1,1,0.4
				c0.2,0.2,0.3,0.5,0.4,0.8c0.7,1.2,1.3,2.5,2.4,3.4c0.3,0.3,0.6,0.4,0.9,0.3c0.4-0.2,0.3-0.5,0.3-0.8c0.2-1.3-0.3-2.4-0.9-3.4
				c-0.2-0.4-0.4-0.7-0.5-1.1c0-0.3,0-0.5,0.3-0.6c0.3-0.1,0.5,0.1,0.5,0.4c0.1,0.9,0.7,0.9,1.3,0.9c1.3,0,2.1,1,2.3,2
				c0.5,2.2,0.6,4.5,0.4,6.7c-0.1,1.9-0.6,3.8,0.6,5.5c0.4,0.6,0.4,1.4,0.2,2.2c-0.7-0.6,0-1.5-0.7-1.9c-0.5-0.3-1-0.3-1.5-0.1
				c-0.8,0.2-0.9,0.9-0.9,1.6c0,2.1,0.5,4.1-0.1,6.2c-0.2,0.5-0.4,1.2-0.1,1.8c0.7,1.1-0.6,1.7-0.7,2.4c-0.1,0.7,0.8,1.6,0.1,2.3
				c-0.8,0.8-0.3,1.5-0.2,2.3c0.2,0.8,0.8,1.2,1.6,1c0.9-0.2,0.7-0.8,0.6-1.4c-0.1-0.5-0.1-1.1,0.2-1.6c0.1-0.2,0.4-0.2,0.5,0
				c0.4,0.5,0.6,1.1,0.4,1.7c-0.1,0.2-0.2,0.4-0.2,0.6c0.3,1.7-1.5,3.1-0.9,4.9c0.1,0.2,0,0.5-0.1,0.6c-1.3,0.5-0.6,1.3-0.2,1.9
				c0.6,1,0.8,2,0,3c-0.3,0.4-0.3,0.9-0.1,1.3c0.3,0.4,0.1,0.7,0,1.2c-0.5,1.8-2.5,2.8-2.7,4.6c-0.1,1.4-1.7,2.8,0,4.2
				c0.4,0.3,0,0.5-0.2,0.8c-0.5,0.8-1,1.7-1.8,2.3c-0.6,0.5-0.9,1.3-0.5,1.7c0.5,0.6,0.9-0.2,1.4-0.5c1.6-1,2.6-2.8,4.7-3.2
				c0.7-0.1,1.5-0.1,2.4-0.5c-0.5-0.2-0.9-0.2-1-0.4c-0.2-0.4,0.3-0.6,0.6-0.7c1-0.5,1.8-1.6,1.9-2.2
				C296.2,317.6,296.8,317,298.3,316.9z M254.4,455.3c-1.5,0.1-1.6-0.5-0.9-1.3c0.6-0.7,0.5-1.7,0.2-2.1c-0.5-0.7-0.2-1.3-0.3-2
				c-0.3-2.3,1-4.6-0.1-6.9c-0.5-1-0.9-2.5-1.6-3c-2.1-1.6-4.5-3.1-7-3.6c-3.4-0.7-4.4-3-5.4-5.7c-0.3-0.9-0.6-1.7-1.6-1.9
				c-1.1-0.2-1.6,0.6-2.1,1.2c-1.7,2.4-3.5,4.7-6.1,6.2c-0.5,0.3-0.6,0.8-0.7,1.3c-0.7,2.6-1.5,5.2-4.3,6.4c-1,0.4-1.2,1-0.7,2.1
				c0.8,2,1.4,4,2.2,6.4c-1.2-0.9-1.6-0.4-1.8,0.4c0.5,0.2,0.9-0.1,1.4-0.2c0.4-0.1,0.8,0,0.8,0.5c0,1,1,1.6,1,2.5
				c0,1.2,1.9,1.9,0.9,3.3c1.8,1,2,2.8,2.6,4.5c0.8,2.4,2.9,4.3,3.4,6.9c0.1,0.4,0.4,0.5,0.6,0.8c1.3,1.6,2.6,3.1,3.6,4.9
				c1.1,2,2.5,3.6,3.9,5.3c0.8,0.9,1.9,1.5,2.8,2.2c0.8,0.7,1.5,0.5,2.4,0.2c0.9-0.4,1.2-1.4,2-1.8c1.3-0.9,1.8-2,1.6-3.6
				c-0.3-2,0-3.9,1.1-5.7c0.1-0.2,0.3-0.3,0.2-0.5c-0.4-1.7,0.4-3.3,0.4-4.9c0-0.8,0.6-1.1,1.1-1.6c0.6-0.7-1-0.6-0.9-1.6
				c0.2-1.9-0.3-3.9-0.2-5.8C252.8,457.4,252.8,456,254.4,455.3z M269.3,514.9c-1.8-0.5-3.9-1.8-5-3c-0.3-0.3-0.5-0.6-0.5-1.1
				c0-1.3-0.7-1.6-1.9-1.4c-0.9,0.1-1.7,0.2-2.2,1.1c-0.3,0.5-0.8,0.6-1.2,0.2c-0.5-0.4,0-0.7,0.3-1c0.4-0.3,0.4-0.7,0.2-1.1
				c-0.3-0.4-0.7-0.4-1.1-0.2c-0.8,0.4-1.6,0.7-1.9,1.7c-0.2,0.8-0.7,1.1-1.5,1c-0.5-0.1-1,0-1.5,0.2c-1,0.5-1.6,0.2-1.8-0.8
				c-0.2-0.8-0.6-1.1-1.3-1.3c-0.8-0.2-1.7-0.5-2.5-0.8c-2-0.7-3.6,0-5.2,1.3c-0.8,0.6-0.7,1.4-1.3,2.1c-1.1,1.3-2.5,2.4-3,4.2
				c-0.5,1.7-0.7,3.3,0,5c0.9,2.4,2.3,4.4,4.7,5.4c0.4,0.2,0.9,0.3,0.8,0.8c-0.1,0.5-0.8,0.5-1,0.3c-1.3-1.2-3.1-0.6-4.5-1.4
				c-0.4-0.2-0.8-0.1-1.1,0.3c-0.3,0.4,0.2,0.5,0.3,0.7c0.7,1,1.4,1.9,2.1,2.9c0.3,0.4,0.8,0.9,1.3,0.7c1.2-0.5,2.1,0.2,3.2,0.2
				c1.5,0,1.9,0.9,1.6,1.9c-0.5,1.7,0.6,1.3,1.3,1.2c1.4-0.3,1.6,0.4,1.6,1.5c0,0.5-0.2,0.8-0.5,1.1c-0.2,0.3-0.8,0.5-0.3,1
				c0.4,0.4,0.8,0.6,1.3,0.2c0.3-0.2,0.4-0.6,0.9-0.6c0.2,0,0.4,0.1,0.5,0.2c0,0-0.1,0.4-0.1,0.4c-1.3,0-1.2,1.4-1.9,1.9
				c-1.4,1-4.7,0.7-6.2-0.7c-0.9-0.9-1.9-1.8-3.3-0.9c-0.3,0.2-0.7,0.1-0.8-0.2c-0.4-0.7-1.1-1.1-1.7-1.6c-0.2-0.2-0.5-0.5-0.3-0.6
				c1.1-0.9,0-0.6-0.4-0.7c-0.2-0.1-0.4-0.3-0.6-0.5c-0.6-0.8-1.4-0.9-2.2-0.6c-0.4,0.2-0.9,0.4-0.7,1.2c0.2,0.9,0,1.8,1.3,2.1
				c1.1,0.2,2.5,2.8,2.6,3.8c0,1.1,0.4,2,1.7,2.4c1.6,0.5,3,1.5,4.7,0.8c0.1,0,0.3,0.1,0.4,0.2c2.2,1.3,4.5,1.3,6.9,0.8
				c0.8-0.2,1.6-0.2,2.4-0.3c0.5-0.1,0.9,0,1,0.5c0.5,2.1,1.9,2.8,4,2.6c0.8-0.1,1.5-0.1,1.5,1.1c0,0.6,0.4,0.7,1.1,0.4
				c1-0.5,1.8-1.4,2.7-1.8c1.3-0.5,1.9-1.3,2.4-2.3c0.8-1.5,0.6-1.5-1-1.5c-1.9,0-3.8,0.2-5.7,0.3c-0.2,0-0.5,0-0.7-0.2
				c-0.1-0.2,0-0.4,0.2-0.5c1.7-1.6,3.5-3.1,5.8-2.8c2.3,0.2,3.4-1.6,5.3-2.1c-1.4-0.6-2.8-0.8-3.9-1.8c-1.4-1.2-1.5-1.9-0.2-3.2
				c0.2-0.2,0.4-0.6,0.6-0.1c0.2,0.5,0.4,0.3,0.7,0c0.4-0.6,1.2-0.6,1.7-0.9c1.6-0.9,3.2-0.9,5-0.8c-0.1-0.6-1-0.7-0.5-1.4
				c0.7-1.1,0.4-1.5-0.8-1.5c-0.7,0-1.1,0-1.6-0.6c-1-1.3-0.9-2.6-0.2-3.8c0.7-1.2,1.8-1.5,3.1-1.5c2.7,0.1,3.2-0.3,3.6-2.9
				c0.1-0.4,0.1-0.9,0.6-0.9c0.4,0,0.5,0.4,0.7,0.7c0.2,0.5-0.1,1.4,0.8,1.1c0.6-0.2,1.6-0.3,1.2-1.5c-0.2-0.5,0-1,0.6-1.5
				c0.8-0.6,0.7-2.4-0.3-2.6c-2.7-0.7-5.3-1.8-8.1-1.9c-1.2,0-1.9,1-1.2,1.9c0.9,1.3,1.3,2.8,2.7,3.7c0.3,0.2,0.8,0.4,0.4,0.8
				c-0.3,0.3-0.6,0.2-0.9-0.1c-0.6-0.7-1.4-1.2-2.2-1.6C269.1,517.4,268.6,515.7,269.3,514.9z M316.6,313.2
				c-0.6-1.7-0.1-3.4-0.2-5.1c-0.1-1.4-0.2-2.8,0.9-3.9c0.3-0.3,0.3-0.8,0.1-1.2c-0.3-0.4-0.7-0.4-1.1-0.4c-1.6,0-2.4,1.3-3.2,2.3
				c-0.6,0.8-1.6,1.7-1.5,2.7c0.1,1.5-0.9,2.9-0.6,4.3c0.2,1.3-1.2,2.3-0.4,3.6c0.1,0.1-0.3,0.6-0.6,0.6c-1.3-0.3-1.5,0.8-2,1.5
				c-0.2,0.3-0.4,0.7-0.8,0.8c-1.5,0.6-1.7,1.3-1.1,2.8c0.3,0.6,1.3,1.3-0.2,1.8c-0.4,0.1,0,0.4,0.3,0.4c0.3,0.1,0.6,0.2,0.3,0.5
				c-1.1,0.9-0.7,2.1-0.8,3.2c-0.1,2.7-0.6,5.3-0.8,7.9c-0.1,1.3,1.7,4,2.9,4.3c0.8,0.2,1.4-0.2,1.2-1.1c-0.5-2.8,0.5-5.5,0.3-8.3
				c0-0.5,0-1.1,0.5-1.1c0.5,0,0.8,0.6,0.8,1.1c-0.2,1.5-0.3,3.1-0.8,4.5c-0.4,1.3-0.2,2.5,0.4,3.6c0.5,0.9,1.5,1.5,2.3,0.4
				c0.9-1.2,1.3-0.7,1.9,0.2c0.1,0.2,0.4,0.3,0.6,0.4c0.5,0.5,0.8,1.1,0.3,1.9c-1.3,1.8-1.1,2.9,0.9,4.1c0.9,0.5,1.6,1,1.7,2.1
				c0.1,0.9,0.4,0.7,0.9,0.2c0.9-0.9,3-5.6,3.4-7c0.6-2.6,1.1-5.3,1.5-7.9c0.1-0.5,0.2-1.1-0.3-1.4c-0.7-0.3-1.1,0.2-1.2,0.8
				c-0.1,0.6-0.9,0.9-0.7,1.6c0.1,0.3-0.2,0.5-0.5,0.5c-0.4-0.1-0.1-0.4-0.2-0.6c-0.5-1.2-0.1-1.9,1.1-2.4c-0.7-0.5-1.4,0-1.9-0.3
				c0.6-2.1,0.7-2.1,1.9-3.5c0.1-0.1,0.1-0.4,0.1-0.5c-0.3-0.6,0.2-0.8,0.6-1c0.9-0.5,1.6-1.3,2.3-2c0.3-0.3,0.5-1.1,1-0.6
				c0.4,0.3,0.4,0.9-0.1,1.5c-1.1,1.5-0.2,3.8,1.3,4.1c-0.8,2-2.7,3.4-2.7,5.9c0,0.7,0.2,1.3,0.3,1.9c0.3,1,1.1,2.2-0.3,3.1
				c-0.1,0-0.1,0.4-0.1,0.4c1.4,0.6,0.2,1.1-0.1,1.7c-0.4,1-0.6,1.9-0.4,3c0.3,1.6,1.5,2,2.7,1c1.7-1.4,2.2-3.6,1.6-5.8
				c-0.3-0.9-0.4-1.9,0.4-2.8c1.3-1.5,2-3.2,1.9-5.3c-0.1-1.2-0.2-2.5-0.1-3.6c0.4-2.2,0.5-4.4,0.7-6.7c0.1-1.5,0.3-3,0.5-4.5
				c0.2-1.3-0.3-2.9,1-4c0,0-0.1-0.2-0.1-0.2c-1.2-0.6-0.5-1.6-0.4-2.5c0-1.2,0.6-2.4,0.2-3.6c-0.8-2.2-1.5-4.3-1.4-6.7
				c0-1.7,0.4-3.3,0.2-5c-0.4-2.3-1.5-4.4-1.6-6.7c0-0.4-0.1-1.5-1.1-1.6c-0.6-0.1-1.2,0-1.5,0.4c-0.9,1.2-1.7,2.3-2.4,3.6
				c-0.5,0.9-0.7,1.7,0.8,2c1.6,0.4,1.8,0.9,1.2,2.3c-1-1.3-2.1-1.7-3.3-1.3c-1.3,0.4-2.9,2.6-2.6,4.3c0.2,1.1-0.2,1.3-1.1,1.5
				c0.9,0.5,1.2,1.2,1.3,2c0,0.2-0.3,0.5,0.3,0.6c2,0.5,4.9-1.5,5.1-3.6c0.1-0.9,0.2-1.9,0.4-2.8c0.3,0.8,0.2,1.6,0.3,2.4
				c0.1,1.6,0.4,3.3,0,4.9c-0.2,0.9-0.5,1.4-1.3,0.4c-0.2-0.3-0.5-0.7-1-0.7c-1.4,0-2.8,0.2-4,0.9c-0.4,0.2-1.1,0.5-0.9,1.3
				c0.3,1.9-0.6,3.8,0.1,5.7c0.1,0.3,0.1,0.7-0.4,0.6C317.3,311,317,312.1,316.6,313.2z M266.8,490.3c-0.6-1-0.7-1.9,0.2-2.6
				c2.1-1.6,4.8-1.9,7.1-3.1c1.2-0.6,2.7-1,4.1-1.5c0.7-0.2,1-0.8,0.9-1.5c-0.1-0.7-0.7-0.7-1.2-0.6c-2,0.4-4.1-0.3-6.1,0
				c-1.1,0.2-1.3-0.5-0.9-1.1c0.8-1,1.9-1.7,2.9-2.6c0.4,0.7-0.4,1.7,0.7,1.8c1,0.1,0.9-0.9,1.1-1.6c0.1-0.5,0.2-1,0.4-1.5
				c0.2-0.8,0.7-0.8,1.3-0.3c1.2,1.1,1.4,1.1,2-0.4c0.3-0.9,0.5-1.7,1.5-2.1c0.7-0.3,1-4,0.5-4.5c-0.1-0.1-0.3-0.3-0.5-0.3
				c-1.3,0.1-2-0.9-3.1-1.2c-0.2-0.1-0.5-0.2-0.5-0.5c0-0.4,0.3-0.5,0.6-0.5c1,0,1.1-0.6,1.4-1.4c0.5-1.1-0.3-2.6,0.7-3.3
				c2.2-1.7,2.6-4,3.1-6.4c0.3-1.9,0.1-2.5-1.7-3.3c-0.6-0.3-1.4-0.4-1.3-1.1c0.1-2-1-1.8-2.2-1.4c-0.4,0.1-0.8-0.1-1.2,0
				c-1.3,0.2-2.8-0.7-3.8,0.8c-0.2,0.2-0.3,0.2-0.5-0.1c-0.9-1.2-1.7-0.7-2.6,0c-0.6,0.5-0.9,0-1.3-0.3c-0.4-0.2-0.5-0.7-0.2-0.9
				c0.9-0.7,0.4-1.5,0.4-2.5c-0.8,0.8-1.7-0.3-2.4,0.6c-0.7,0.9-1.8,1.3-2.8,1.8c-2.6,1.3-4.8,2.9-5.7,5.9c-0.2,0.6-0.7,0.9-1.4,1
				c-0.4,0.1-1.2-0.3-1.1,0.6c0.1,0.8,0.8,0.9,1.4,0.7c1-0.2,1.5,0.2,1.4,1c0,0.7,0.5,0.8,0.8,1.3c0.3,0.6,0.7,0.9,0.5,1.8
				c-0.2,0.8-0.4,2.4,1.3,2.8c0.3,0.1,0.9,1-0.1,1.4c-0.1,0.1-0.5,0-0.4,0.2c0.9,1.6-0.6,1.3-1.3,1.6c-0.7,0.3-1.2,0.7-1.6,1.5
				c-0.9,1.7-1.9,3.4-3,4.9c-0.4,0.5-0.9,0.6-0.3,1.3c0.4,0.5,0,1.4,0.7,1.8c1.8,1.1,1.9,1.4,0.9,3.1c0.5,0.5,1,0.4,1.6,0
				c0.4-0.3,0.9-0.4,1.2,0.1c0.2,0.4,0.5,0.9,0,1.4c-0.7,0.7-1.3,1.6-2.2,2c-1.2,0.5-1.2,1.6-1.2,2.5c-0.1,0.8,0.5,1.9,1.4,1.8
				c0.9,0,1.9,0,2.8-0.5c0.3-0.2,0.9-0.6,1.2-0.1c0.2,0.4,0.5,1,0.2,1.6c-0.3,0.4-0.5,0.9-0.9,1.2c-0.5,0.4-0.5,0.9-0.2,1.5
				c0.3,0.6,0.8,0.5,1.3,0.4c1.4-0.2,2.4-1.1,3.3-2c0.3-0.3,0.7-0.7,1-0.2C265.1,490.4,265.8,490.1,266.8,490.3z M308.8,200.6
				c0.1,0.9,0.3,1.6,1.5,1.5c0.7,0,1.1,0.6,1,1.1c-0.1,0.5-0.3,1.1-1.2,1.3c-2.9,0.5-5.4,2.3-8.3,2.9c-0.3,0.1-0.7,0.3-0.6,0.6
				c0.4,1.8-0.9,1.7-2.1,2c-0.6,0.1-1.2,0.5-1.8,0.8c-0.9,0.5,0.3,0.9,0.1,1.5c0,0.1,0.7,0.2,0.7,0c0-1.5,1.3-0.8,1.9-1.2
				c0.2-0.1,0.5-0.1,0.7,0.1c0.2,0.3,0.2,0.6-0.1,0.9c-0.2,0.2-0.8,0.3-0.5,0.8c0.3,0.4,0.7,0.3,1.1,0.3c1.2,0,2.4-0.5,3.8-0.2
				c-0.7,0.9-1.6,0.9-2.5,1c-0.8,0.1-2,0.2-2,1c0,0.9,1,0.7,1.7,0.7c0.3,0,0.7,0.1,0.7,0.4c0,0.3-0.3,0.6-0.6,0.6
				c-0.6,0.1-1.2,0.1-1.8,0.1c-0.3,0-0.7,0-0.8,0.4c-0.1,0.4,0.2,0.6,0.6,0.8c0.6,0.4,1.1,0,1.7,0c1,0,2.4-0.7,2.9,0
				c1.1,1.5,2.3,1.1,3.6,0.8c2.5-0.5,5-1.3,7.5-1.9c1.3-0.3,2.3-1.1,2.8-2.4c0.7-1.9,2.2-3.3,3.6-4.6c1.5-1.3,0.9-3.1,1.7-4.5
				c0.1-0.1-0.1-0.4-0.2-0.6c-1.1-1.8-2.1-2.1-4-1c-0.6,0.4-1,0.5-1.5-0.1c-0.5-0.6-1.2-0.7-2-0.5c-2.3,0.8-3.1,0.5-4.1-1.6
				c-0.3-0.8-0.4-1.3,0.8-1.5c-0.3-0.1-0.4-0.2-0.5-0.3c-0.4-0.2-0.8-0.4-0.8-0.8c0-0.8,0.6-0.3,0.9-0.4c0.6-0.2,0.6-0.7,0.5-1.3
				c-0.5-1.8-0.2-3.7-0.9-5.5c-0.1-0.4,0.1-0.9,0.4-1.1c0.4-0.2,0.6,0.3,0.8,0.5c0.5,0.6,1,1,1.4-0.1c0.1-0.3,0.5-0.4,0.6-0.7
				c0.7-1.4,2.8-1.1,3.2-2.8c0.1-0.2,0.8-0.2,0.8,0.1c-0.1,0.9,0.8,1.1,0.8,1.8c0,0.5,0.1,0.8,0.6,0.6c0.5-0.1,0.9-0.4,0.7-1
				c-1.3-2.7-1-6-2.8-8.6c-0.3-0.5-0.5-1.1-0.1-1.7c0.8,0.4,0.2,1.5,1.2,1.7c0.8,0.1,1.6,0.4,1.9,1.4c0.1,0.4,0.5,0.4,0.8,0.3
				c0.4-0.2,0.3-0.7,0-0.9c-0.8-0.4-0.6-1.2-1-1.8c-0.4-0.6,0-1.4-0.6-1.8c-0.7-0.4-1-1-1.1-1.7c-0.1-0.5-0.4-0.7-0.8-0.7
				c-0.5-0.1-0.9,0.1-1,0.6c-0.2,1.2-0.8,1.2-1.8,0.8c-0.5-0.2-1.1-0.2-1.7-0.1c-0.8,0-1.4-0.1-1.8-1c-0.5-1.1-1.6-1.5-2.7-1
				c-1.7,0.7-3.6,0.8-4.8,2.4c-0.3,0.4-0.9,0.5-1.4,0.5c-2.1,0.1-4.1,0.4-5.9,1.3c-0.4,0.2-0.7,0.1-1.1-0.1c-1.6-1-3.9-0.9-5.3,0.2
				c-0.1,0.1-0.3,0.3-0.2,0.3c0.6,1.3-0.3,2.4-0.3,3.7c0,0.6,0.1,1.2,0.5,1.5c1.2,0.8,1.4,1.1,1,2.5c-0.2,0.5-0.3,1.6,0,1.6
				c1.9,0.1,2.6,1.3,3.2,2.9c1.8-0.2,1.4,1,1.4,2.1c0,0.9,0.7,1.5,1.4,1.9c0.3,0.2,0.7,0.3,0.8,0.6c0.3,1.2,0.8,1.1,1.8,0.5
				c1-0.6,1.9,0,1.8,1.2c-0.1,0.9,0.4,1.6,1,2.2c0.3,0.3,0.6,0.3,0.6-0.1c0-1.5,1.2-0.9,1.8-0.9c0.8,0,0.6,0.9,0.6,1.5
				c0.3,3,0.3,3,3,3.2C308,202.9,308.9,201.6,308.8,200.6z M272.2,400.4c0.5,1.4,0.7,2.6,1.3,3.4c0.8,1,0.9,2.1,0.7,3.1
				c-0.1,1.1,0.2,1.8,1.2,2c1,0.2,2-0.2,2.1-1.3c0.1-1,0.7-0.8,1.2-0.8c0.7,0,0.8,0.5,0.7,1.1c0,0.3-0.3,0.6,0,0.9
				c0.9,1.3,3.7,1.3,4.3-0.3c0.6-1.4,1.5-2.2,2.7-2.9c0.8-0.5,1.2-1.2,0.6-2c-0.5-0.6-0.3-1.1,0-1.5c0.4-0.6,0.6-1.3,0.6-2
				c-0.1-2.3,2.2-3.7,3.8-3.6c0.6,0.1,0.9,0.3,1.3,0.8c0.9,1.2,2.1,2.2,3.8,2.3c0.5,0,0.8-0.2,1-0.6c0.2-0.5,0-0.9-0.4-1
				c-0.7-0.2-0.9-0.8-1.1-1.4c-0.7-1.4-1.9-2.1-3.4-2.2c-0.5,0-1.1-0.1-1.2-0.5c-0.1-1.1-1-1.3-1.7-1.5c-2-0.6-3.5-1.9-5-3.2
				c-0.4-0.4-0.9-1-0.9-1.5c0-1.6-1.1-2-2.2-2.6c-0.5-0.3-1-0.4-0.9-1.1c0.2-1.5-0.7-1.2-1.7-1.1c-1,0.1-0.5-1.7-1.7-1.5
				c-0.1,0-0.2,0.1-0.3,0.2c-0.5,0.7-1.4,1-1.5,1.9c0,0.3,0,0.6-0.5,0.6c-2.2-0.2-4,0.5-4.8,2.8c0,0.1-0.1,0.1-0.2,0.2
				c-1.6,1-1.6,2.9-2.1,4.4c-0.2,0.4,0,0.9,0.5,0.9c1.1,0.1,0.9,0.7,0.7,1.4c-0.1,0.5-0.3,1.1-0.2,1.5c0.4,1.1,0,1.8-0.7,2.6
				c-0.5,0.6-1.2,1.4-0.6,2c1,1.2,0.6,1.9-0.4,2.5c-0.3,0.2-0.6,0.3-0.5,0.7c0.1,0.4,0.4,0.4,0.7,0.4c1.5-0.2,1.7,0.9,1.8,1.9
				c0.1,0.6-0.1,1.2-0.1,1.8c0,0.7,0.3,1.2,1,1.4c0.5,0.1,0.9,0.7,1.4,0.3c1.2-0.8,2-4,1.2-5.2C272.1,402.8,272.1,401.8,272.2,400.4
				z M310.9,372.9c0.6,1.2,0.5,2.3,0,3.3c-1.2,2.4-0.1,5.2-1.3,7.5c0,0.1,0,0.2,0.1,0.3c0.9,2.2,0.6,4.4,0.3,6.7
				c-0.2,1-0.7,0.9-1.4,0.7c-0.5-0.2-0.7-0.7-1-1.1c-0.2-0.2-0.2-0.6-0.6-0.5c-0.4,0.1-0.6,0.3-0.6,0.7c0.1,0.7-0.3,1.1-0.7,1.5
				c-1.2,0.9-1.9,2.4-3.1,3.4c-0.4,0.3-0.6,0.6-1.1,0.7c-0.6,0-1.6-0.3-1.6,0.7c0,1.1-0.1,2.6,1,3.2c1.5,0.8,3.3,0.9,5,0.3
				c1.3-0.4,1.7-1.2,1.3-2.5c-0.3-0.9,0.9-2.1,2.2-2.1c1,0,1.2,1.1,1,1.9c-0.6,3-0.5,3.5,3.3,3.2c0.2,0,0.3,0,0.5,0
				c0.8,0,1.4-0.2,1.9-1.2c1.2-2.7,1.6-2.7,4-1.9c0.9,0.3,0.9,0.7,0.5,1.4c-1,1.7-1,1.7,1,2c0.3,0,0.5,0.1,0.8,0.1
				c1.9,0,2.6-0.8,2.5-2.6c0-0.7-0.4-1-0.7-1.5c-0.3-0.6-0.9-1.3-0.6-1.7c0.9-1,0-1.5-0.3-2.3c-0.3-0.6-0.6-1.1-0.6-1.7
				c0.1-1.9-0.9-3.5-1.2-5.3c0.2-0.2,0.8,0.3,0.9-0.4c-0.3-0.3-1.1,0.1-1-0.6c0.1-0.5,0.7-0.3,1-0.4c0.5-0.1,1.3-0.4,0.8-0.9
				c-0.7-0.8-0.8-1.9-1.3-2.7c-1.2-2-0.8-3,1.4-3.4c0.2,0,0.4-0.1,0.4-0.5c-1.2,0.3-0.9-0.5-1-1.2c-0.1-0.6,0.5-1.4-0.2-1.7
				c-1.5-0.7-0.9-1.9-0.6-2.7c0.3-0.9,0.3-1.8,0.7-2.7c0.4-0.8,0.2-1.6-0.9-1.9c-0.7-0.1-1.3-0.5-1.9-0.9c-0.9-0.6-2.1-0.6-3,0.2
				c-0.7,0.6-0.9,1.4-0.4,2.3c0.4,0.6,0.1,1.2-0.1,1.8c-0.3,0.7-0.8,1.5-0.6,2.2c0.2,1.1-0.5,1.7-0.9,2.6c-0.5-0.4-0.3-0.7-0.2-1.1
				c0.1-0.9-0.1-1.8-0.6-2.4c-0.3-0.3-1.1-0.9-1.2,0.1C312.5,372.9,311.8,373,310.9,372.9z M328.3,398.1c1.3,0.7,1.9,1.1,2.4-0.5
				c0.2-0.8,0.4-2.3,1.4-2.3c0.8,0,0.3,1.4,0.6,2.1c0.5,1.2,0.7,2.5-0.6,3.4c1,1.1,2.2,1.3,3.4,1.4c0.6,0.1,1.1,0.3,1.4,0.8
				c0.3,0.7,0.7,1.8,1.6,1c0.8-0.8,1.7,0.3,2.4-0.4c0.1-0.1,0.2-0.4,0.1-0.5c-0.5-1.5,0.3-1.5,1.4-1.4c1.5,0.1,1.9-0.3,1.6-1.8
				c-0.1-0.2-0.3-0.5-0.1-0.7c0.8-1.7,0.1-3.4-0.4-5c-0.6-1.8-1.2-2-2.9-1.1c0.2,0.2,0.6,0.3,0.6,0.5c-0.2,1.3-0.4,2.6-0.7,3.9
				c-0.1,0.4-0.6,0.5-0.9,0.2c-0.5-0.7-1.3-0.7-2-1c-0.5-0.2-0.8-0.5-0.6-1c0.4-1-0.1-1.9-0.3-2.9c-0.4-1.8-0.2-3.7-0.3-5.5
				c0-0.6,0.3-0.8,0.7-0.8c0.7,0,0.6,0.4,0.4,0.9c-0.2,0.4-0.1,0.6,0.1,1c0.6,1.3,1,2.5,0.3,3.9c-0.2,0.5,0.2,0.9,0.6,1
				c0.4,0.2,1,0.3,1.2-0.2c0.3-0.9,0.3-1.8,0.4-2.7c0.2-1.8-0.8-3.6,0.2-5.4c0.1-0.2,0.1-0.5-0.1-0.5c-1.1-0.5-1-1.5-1.2-2.3
				c-0.2-1.1-1-1.4-1.8-1.2c-1.1,0.2-1.7,0.1-1.6-1.2c0-0.3-0.2-0.7-0.7-0.7c-0.4,0-0.8,0.3-0.9,0.7c-0.1,0.4,0.3,1.2-0.5,1.2
				c-0.7,0-0.9-0.6-1-1.2c-0.2-0.6-0.4-1.1-0.5-1.7c-0.4-1.5-0.2-3.1-1.1-4.4c-0.7-1.2,0.4-2.2,0.1-3.3c-0.1-0.3,0.6,0.1,0.7-0.3
				c-1.1-0.1-1.7-0.8-2.1-1.7c-0.4-1-1-1.2-2-0.9c0.7,0.5,0.7,1.1,0.4,1.7c-1,1.8-0.6,3.8-0.8,5.7c0,0.4-0.1,0.8,0.4,1
				c0.3,0.1,0.7,0.2,0.3,0.6c-0.2,0.2-0.6,0.3-0.8,0c-0.5-0.5-1-0.8-1.6-0.2c-0.7,0.7,0.1,1.2,0.3,1.8c0.1,0.5,0.6,0.7,1.2,0.9
				c1,0.3,1.1,1.6,0.2,2.1c-1,0.5-0.8,0.9-0.2,1.5c1,1.2,0.9,2-0.5,2.8c0.8,0.7,1.3,1.5-0.2,2.3c1.3,0.2,2.3,0.7,1.7,1.8
				c-0.6,1.2-0.3,2.1,0,3.2c0.4,1.1,0.9,2.2,1.4,3.3C329.6,396.6,330.1,397.6,328.3,398.1z M249.5,505.2c1.3,0.3,2.1,1.4,3.3,2
				c2.5,1.2,4.6,1.3,6.9-0.2c0.3-0.2,0.7-0.3,0.8,0c0.6,1.1,1.7,1,2.6,1.2c1.2,0.3,3.2-0.4,3.7-1.5c0.7-1.4-0.4-2-1.4-2.6
				c-0.3-0.1-0.4-0.3-0.4-0.6c0.1-0.4,0.4-0.4,0.7-0.4c0.4,0,0.8,0.1,1.2,0.3c1.1,0.4,1.9,0.3,2.5-0.7c0.2-0.4,0.5-1,0.9-0.8
				c1.4,0.5,2.3-0.5,3.4-0.8c0.8-0.2,1.3-0.8,0.8-1.8c-0.5-1,0.2-1.1,0.9-1c0.5,0.1,1.1,0.2,1.4,0.6c0.9,1.3,2,0.9,3.2,0.5
				c1.1-0.4,1.6-1.9,0.7-2.7c-0.6-0.5-0.8-1.2-1.3-1.7c-0.8-1-0.1-1.2,0.6-1.4c0.3-0.1,0.7,0,1.1-0.1c1-0.1,1.3-0.6,1.3-1.6
				c-0.1-0.8,0-1.6-1.2-1.5c-0.7,0-1.2-0.2-1.5-1c-0.4-1.1-1.4-1.3-2.4-0.9c-1.4,0.5-2.5,1.6-3.4,2.7c-0.2,0.2-0.3,0.4-0.6,0.4
				c-0.2-0.1-0.3-0.2-0.3-0.5c0.2-1.1-0.5-1-1.2-0.9c-0.7,0.1-1.3,0.3-1.9,0.6c-1.9,0.9-4.1,0.9-5.9,2.4c-1.3,1.1-3,1.1-4.7,0.7
				c-2-0.5-3.7,0.3-5.3,1.4c-0.5,0.4-0.5,0.7-0.3,1.1c1,1.7,2.1,3.2,4.4,2.6c0.5-0.1,1-0.1,1.5-0.2c0.5-0.1,0.9-0.2,0.8,0.6
				c-0.1,0.3,0.2,0.6,0.6,0.5c0.2-0.1,0.5-0.5,0.4-0.5c-0.9-1.3,0.4-1.1,0.9-1.4c1.1-0.6,2.4-0.9,3.2-1.9c0.4-0.5,0.9-0.6,1.4,0
				c0.4,0.5,0.6,1,0,1.6c-0.3,0.3-0.6,0.5-0.9,0.8c-1,1-2.7,1.2-2.8,3c0,0.2-0.4,0.6-0.6,0.7c-2,0.5-3.7,1.6-5.7,2.1
				c-1.1,0.3-2.2,0.4-3.5,0C252.2,503.7,251.2,505.9,249.5,505.2z M317.2,276.5c0.4-0.2,0.7-0.5,0.3-0.8c-0.9-0.7-0.7-1.7-0.9-2.5
				c-0.2-1,0.2-1.6,1.3-1.6c0.4,0,0.8,0,1.2-0.1c1.1-0.2,1.4-1.1,0.6-1.9c-2.4-2.4-3.7-5.7-6.4-7.9c-1.1-0.9-1.2-2.5-2.5-3.2
				c-0.5-0.3-1.2-0.6-1.3-1c-0.4-2.6-3.1-3.2-4.6-4.8c-1.6-1.7-3.7-3.3-6.1-4.1c-1.4-0.5-2.6-1.4-4.1-1.6c-0.3-0.1-0.6-0.3-1,0
				c-0.8,0.8-1.4,3.1-0.8,4c0.4,0.7,0.8,1.4,1.2,2.1c0.9,1.5,2.3,2.2,3.5,3.2c1.1,0.9,1.1,2.6,2.6,3.1c0.7,0.2,0.9,1,1.1,1.6
				c1.3,2.7,1.3,2.7,4.2,2.3c0.5-0.1,1.1-0.1,1.2,0.6c0.2,1.7,1.5,2.7,2.2,4.1c0.9,1.9,1.7,3.9,2.6,5.8c0.5,1.1,1,1.5,2.1,1.4
				c1.1,0,2.4-0.6,3,1C316.8,276.3,317,276.4,317.2,276.5z M338.5,275.9c-0.6,0.3-1.4-0.8-1.9,0.3c-0.2,0.4,0.4,1.2-0.3,1.3
				c-0.6,0.1-0.6-0.9-1.1-1.1c-0.4-0.2-0.2-0.6-0.3-0.8c-0.2-0.4-0.7-0.5-0.9-0.2c-0.3,0.6-1.3,0.1-1.3,0.9c0,0.4,0.3,1.1,0.9,0.8
				c0.9-0.4,0.7,0.1,0.7,0.6c0,1.5,0.9,2.2,2.1,1.5c0.8-0.4,1-0.1,1.1,0.6c0.1,0.6,0.3,1.3,0.1,1.8c-0.4,1.7-0.8,3.3-0.5,5.1
				c0.1,0.6,1,1.5-0.1,2.2c0.4,0.2,0.3,0.9,0.9,0.9c0.3,0,0.8-0.2,0.7-0.4c-0.3-1,0.7-1.2,0.9-1.9c0.2-0.7,1-1.5-0.5-1.6
				c-0.5-0.1-0.6-0.5-0.4-0.8c0.3-0.6,0.1-1.1,0.1-1.6c0-0.3-0.1-0.8,0.4-0.9c0.4-0.1,0.7,0.1,0.9,0.4c0.6,0.7,0.1,1.2-0.4,1.7
				c0.5,0.2,1.1-0.2,1.1,0.3c-0.1,1.2,1.3,1.9,1.1,3.1c-0.1,0.5,0.1,1,0.2,1.5c0.5,2.4,1.5,4.7,0.2,7.2c-0.7,1.4,0.6,2.6,1.7,3.4
				c1.2,1,2.4,0.1,3-0.8c0.5-0.7,2-0.6,1.8-1.8c-0.1-0.8,0.3-1,0.8-1.3c0.8-0.5,1.7-1,2.5-1.4c0.5-0.3,1-0.8,0.9-1.3
				c-0.5-1.9-0.4-4-1.6-5.6c-1.3-1.9-2.4-3.8-3.6-5.7c-1.8-2.9-4.3-5.1-6.4-7.6c-0.3-0.4-0.9-0.6-1.2-1c-1.3-2.4-3.4-4-5.3-5.9
				c-0.3-0.3-0.8-0.6-1.2-0.2c-0.4,0.3-0.3,0.8-0.1,1.1c0.7,1.2,0.7,2.7,1.8,3.7c0.6,0.5,0.2,1,0,1.5
				C336.9,273.2,337.9,273.9,338.5,275.9z M240.2,384.5c0.7,0.8,0.4,1.2-0.3,1.9c-0.9,0.8-2,1.6-2.4,2.9c-0.3,0.9-1.3,1.3-2.1,1.6
				c-0.6,0.2-0.9-0.5-1-0.7c-0.2-1.1,0.4-2.1,0.9-2.8c1.2-1.6,2.3-3.4,3.4-5.1c1.5-2,3-4,4.4-6.1c0.5-0.8,1.2-1.4,1.2-2.4
				c0-0.4,0.7-0.8,0.2-1.2c-0.5-0.4-1-0.5-1.6-0.3c-0.9,0.4-1.8,0.8-2.2,1.8c-0.1,0.4-0.4,0.8-0.7,1c-1.8,1.4-2.7,3.5-4.2,5.2
				c-0.5,0.6-1.7,0.8-1.1,2c0,0.1-0.2,0.3-0.4,0.4c-1.2,0.6-1.7,1.7-2.3,2.7c-0.5,0.9-1.3,1.4-2.1,1c-0.8-0.4-0.8-1.3-0.3-2.2
				c1-1.7,1.8-3.5,3-5.2c1.5-2.2,3.3-4,4.7-6.2c1.3-2,2.9-3.8,3.7-6.1c0.2-0.5,0.1-0.8-0.2-1.1c-0.4-0.4-0.9-0.3-1.3-0.1
				c-0.7,0.5-1.4,1-2,1.9c-1.3,2-2.8,3.8-4.3,5.7c-0.5,0.7-1.7,0.9-1.2,2.1c0.1,0.3-0.3,0.5-0.6,0.6c-1,0.2-1.5,1-1.7,1.8
				c-0.3,1-1.1,1.7-1.7,2.5c-0.7,0.9-1.3,1.2-2.3,0.5c-0.9-0.7-1.4-0.3-1.3,0.7c0.3,2.5,0.9,4.9,3.2,6.4c0.5,0.3,0.9,0.5,0.8,1.1
				c-0.2,0.9-0.3,0.9,0.8,0.9c0.3,0,0.6,0.2,0.8,0.4c1.4,1,3,1.8,4.4,2.8c2.2,1.5,5.1,2.1,8,1.7c0.7-0.1,1.2-0.4,1.4-1.4
				c0.1-0.8,0.4-1.8,1.9-1.5c-1.3-1.3-1.6-1.3-2.5-0.6c-0.6,0.4,0.3,0.7-0.2,1.2c-0.8,0.7-1.6,0.9-2.5,0.5c-0.7-0.3-0.7-2-0.1-2.8
				c1-1.3,2-2.6,3.1-3.8c1.2-1.4,2.2-2.9,2.8-4.6c0.5-1.2,1.7-2.1,1.3-3.6c-0.2-0.5-0.3-0.9-0.9-0.5c-2,1.4-3.3,3.4-4.7,5.3
				C241.5,383.8,241.2,384.4,240.2,384.5z M301.9,227.4c-0.1-1,0-1.9-0.8-2.1c-1-0.2-1,0.9-1.2,1.5c-0.3,1-0.9,1.2-1.7,0.9
				c-0.5-0.2-0.9-0.2-1.3,0c-1.2,0.5-2.5-0.8-3.7,0.1c0,0-0.2-0.2-0.2-0.3c-0.1-1-0.9-1-1.3-0.5c-0.5,0.7-1.5,1.6-0.8,2.4
				c0.9,1,2.1,1.7,3,2.6c1.1,1.1,2.5,1.6,3.8,2.2c2.2,1.1,3.9,3.1,6.3,3.8c1.6,0.4,2.5,1.8,4.1,2.3c0.9,0.3,2.1,0,2.4,1.4
				c0.1,0.4,1.2,0.2,1.3-0.3c0.1-0.7,0.6-1.4,0.4-2.2c-0.4-1.7-0.9-3.3-0.9-5c0-1-0.3-1.7-1.6-1c-0.8,0.5-1.3-0.2-1.3-0.9
				c0-0.2,0.4-0.5,0.7-0.7c0.6-0.4,0.6-0.9,0.2-1.4c-0.4-0.6-0.6,0-0.9,0.1c-0.8,0.4-0.8-0.3-0.6-0.7c0.7-1.7-0.6-1.7-1.5-1.7
				c-1.5,0.1-2-0.2-1.3-1.7c0.3-0.7-0.1-1.3-0.8-1.6c-0.9-0.4-0.9,0.5-1.2,0.8C302.6,226,302.3,226.6,301.9,227.4z M277.9,252
				c1.2,1,1.2,1.4,0.1,2.8c-0.5,0.6-1.6,1.1-1.4,1.8c0.2,0.9,1.5,0.7,2.3,0.9c1.7,0.4,3.1,1.6,4.9,1.6c0.7,0,1.6,0.1,2-0.8
				c1.3-3.2,3.9-5.7,5.7-8.6c0.7-1.2,2.1-2.3,1.6-3.8c-0.6-1.6-2.3-2.6-4-2.8c-1.8-0.2-3.5,0.2-4.4,2.1c1,0.6,1.7-0.6,2.7-0.2
				c-1.2,0-1.7,1.9-3.4,1c1,0.7,1,1.1,0.2,1.8c-0.9,0.7-1.7,1.5-2.6,2.3C280.4,250.9,280.3,253.6,277.9,252z M314.8,352.3
				c-1.4-0.2-2.4-0.8-2.9-2.1c-0.2-0.5-4-0.2-4.3,0.2c-0.1,0.1-0.1,0.2-0.1,0.3c0.1,3-2.8,5.1-2.5,8.2c0,0.1,0,0.3-0.1,0.3
				c-1.1,0.3-1.5,0.9-1.4,2.1c0.1,1.1-0.4,2.1-0.4,3.2c0,0.9,0.3,1.9-0.4,2.8c-0.8,1.1,0.6,1.3,0.9,2c0.2,0.6,0.9,0.2,1.2,0
				c0.7-0.5,0.3-1-0.1-1.6c-0.3-0.4-0.4-1,0.3-1.3c0.7-0.4,1.7-1.6,2.2-1c1.4,1.6,2.7,0.6,4.1,0.3c0.2,0,0.6-0.1,0.4-0.3
				c-0.6-0.8,0.4-1.4,0.3-1.7c-0.6-1.1,1.2-1.4,0.7-2.1c-0.9-1.2-0.1-2.3,0.4-2.9c0.9-1,2.4-1.5,0.7-3c0.9-1.3,0-2.1-1-2.8
				C313.3,352.3,314,352.1,314.8,352.3z M315.3,257.8c-0.7-0.3-1.7,0.1-2-1c-0.1-0.4-0.5-0.9-1-0.6c-0.8,0.5,0.1,0.7,0.2,1
				c1.1,1.9,2.6,3.4,4.2,4.9c0.2,0.2,0.6,0.4,0.9,0.5c0.3,0.1,0.8,0,0.9-0.4c0.2-0.3-0.2-0.5-0.4-0.7c-0.8-0.7-1.1-1.7-1.7-2.6
				c0.7,0,1,0.4,1.3,0.7c0.4,0.6,0.9,1,1.5,0.6c0.7-0.4,0.8-1,0.4-1.7c-0.3-0.5-0.4-1.1,0.4-1.4c0.8-0.3,0.8-0.3,0.3-1
				c-0.1-0.1-0.1-0.3-0.1-0.4c0.5-1.1-0.2-1.8-0.7-2.8c-1.6-2.7-3.8-4.6-6.5-6c-1-0.5-1.8-0.9-1.9-2.1c-0.1-1.1-1.1-1.3-1.8-1.2
				c-0.8,0.1-1.3,0.9-1.2,1.7c0.1,0.9,0.3,1.9,1.4,2.1c0.3,0.1,0.6,0.3,0.5,0.7c-0.1,0.4-0.4,0.1-0.6,0.1c-2.4,0.2-4.3-0.7-5.8-2.5
				c-0.5-0.6-1.3-0.7-1.9-1c-0.2-0.1-0.4,0-0.5,0.2c-0.1,0.2,0,0.5,0.2,0.5c1,0.2,1.4,1.3,2.2,1.6c2.5,1,4.1,3.2,6.2,4.7
				c1,0.7,1.4,2.2,2.4,2.7C313.6,255.4,314.2,256.7,315.3,257.8z M313.4,415.5c-0.3-0.6-0.6-0.5-1-0.6c-0.8-0.1-1.6-0.1-2.4-0.3
				c-0.4-0.1-1.1-0.3-1.1-0.9c0-0.5,0.6-0.6,1.1-0.6c3,0.1,6.1,0.1,9.1,0.2c0.9,0,1.5,0.9,1.1,1.4c-0.8,0.8-0.6,1.7-1,2.5
				c-0.3,0.5-0.4,1-1,0.9c-2.2-0.1-4.4,0.2-6.6-0.5c-1.1-0.3-2.4-0.3-3.6-0.3c-1,0-0.7,0.8-0.8,1.4c0,0.2-0.1,0.4-0.2,0.6
				c0,0,0.2,0,0.2,0.1c2,0.9,2.5,2.5,1.6,4.5c-0.3,0.8-0.5,2,0.6,2.1c2.4,0.2,4.9,0.7,7.4,0.5c0.5,0,1.2-0.2,1.2-0.8
				c0.2-2.1,1.9-3.8,2-5.9c0.1-2.6,1.3-4.4,2.9-6.2c1-1.1,1-1.4-0.5-1.6c-4-0.6-8.1-0.4-12.1-0.2c-1,0-2.1,0.8-2.8,1.7
				c-0.4,0.5-0.5,1,0.4,1.5C309.5,416.1,311.3,415.8,313.4,415.5z M344.4,612.5c0.4,1.9,1.7,2.4,3.1,2.8c1.6,0.4,2.8,2,4.7,1.7
				c2.4-0.3,4.6-0.7,6.4-2.7c1-1.1,2.8-1.7,2-3.8c-2.9,2-6.1,3-9.6,3.3c-0.7,0-1.5,0.3-1.7-0.4c-0.2-0.8,0.8-1,1.4-1.4
				c0.4-0.2,0.7-0.2,1.1,0.1c0.3,0.2,0.8,0.4,0.9-0.3c0.1-0.6,0.6-0.6,1-0.8c2-1.3,4.4-2.1,5.9-4.2c0.2-0.3,0.7-0.4,0.5-0.9
				c-0.2-0.4-0.5-0.5-0.9-0.5c-1.6,0.1-3.5-0.1-4.7,1.1c-1.7,1.6-3.8,2.3-5.7,3.4c-0.9,0.5-2.1,1-2.6,1.9
				C345.8,612.9,345.3,613.2,344.4,612.5z M357.2,574.9c0.5,0.4,1.5-0.2,1.3,0.9c-0.1,1-0.3,2-0.3,3c-0.1,1.9-0.8,3.8-0.3,5.9
				c0.4,1.4-0.2,3.1-0.3,4.6c-0.1,1.4,0,2.9-1.1,4c-0.1,0.1,0,0.3,0.1,0.4c1.1,1,0.2,1.8-0.4,2.3c-1,0.9-1.2,2-1.5,3.2
				c-0.1,0.5-0.5,1.2,0.1,1.5c0.6,0.3,1.3-0.3,1.7-0.8c0.3-0.4,0.2-0.9,0.9-1.1c0.9-0.2,1.8-0.6,1.7-1.9c0-0.3,0.3-1.1,0.9-1.2
				c0.7-0.1,0.3-0.4,0.4-0.8c0.2-1.6,0-3.1,0.1-4.7c0.2-1.8,0.3-3.6,0.4-5.4c0.2-2.7-0.1-5.5-0.3-8.2c-0.1-1.2-0.1-2.4,0.3-3.6
				c0.2-0.5,0.3-1.3-0.5-1.6c-0.7-0.2-0.9,0.5-1.2,1c-0.2,0.2-0.5,0.4-0.4,0.8C359.1,574.6,358.5,575,357.2,574.9z M282.4,319.5
				c0.4-0.1,0.6,0,0.8,0.2c0.5,0.7,1.2,0.9,1.9,0.3c0.8-0.7,2.3-1.1,2.1-2.3c-0.3-1.3,0.4-1.7,1.1-2.4c1-0.9,1.8-1.8,0.7-3.3
				c-0.4-0.5-0.4-1.1,0.2-1.7c0.6-0.5,1-1.5,0.9-2.3c-0.1-0.7-1.1-0.1-1.6-0.4c-0.3-0.1-0.7-0.3-1-0.4c-0.3-0.1-0.7-0.1-0.8,0.2
				c-0.6,1.4-1.8,2.6-1.5,4.3c0.1,0.5,0.1,1.1-0.6,1.2c-0.3,0.1-0.5,0.3-0.6,0.6c-0.2,1.7-1.6,2.9-2.2,4.5c-0.3,0.7-0.4,1.8-1.2,2.4
				c-1.2,0.9-1.9,2-1.7,3.6c0.1,0.5,0,1,0.6,1.2c0.6,0.2,1.1-0.1,1.5-0.5c1.2-1.4,2.4-2.9,1.3-4.9
				C282.3,319.9,282.4,319.6,282.4,319.5z M307.8,378.7c-0.3-0.7-2.4,0.2-1.4-1.6c0,0-0.3-0.3-0.5-0.3c-0.7-0.1-1.3-0.2-2-0.1
				c-2,0.3-3.1,0-4-1.8c-0.4-0.7-0.7-1.3-1.5-1.2c-1,0.2-0.7,1.1-0.8,1.8c-0.1,0.3,0.1,0.7,0,1.1c-0.1,1.5,0.5,3.2-0.1,4.6
				c-0.6,1.4,0.4,1.6,1.1,2.1c1,0.6,2.4,0.8,3,1.6c0.9,1.3,1.7,0.6,2.5,0.3c0.8-0.3,0.7-0.8,0-1.2c-1-0.5-1.8-1.3-2.8-2
				c0.7-0.3,1.2-0.3,1.9-0.1c1.1,0.4,2.6,1.8,2.6-0.9c0-0.1,0.3-0.2,0.5-0.3c0.7-0.4,0.6-0.9,0-1.3c-0.1-0.1,0-0.3-0.1-0.5
				C307,378.8,307.4,379,307.8,378.7z M311.6,294.6c0.3,0.5,0.4,0.7,0.5,0.9c0.1,0.2,0,0.5,0.1,0.7c0.3,0.8,1.2,1,1.7,0.5
				c0.3-0.3,0.8-4,0.5-4.3c-0.7-0.8-1.2-1.8-1.8-2.6c-0.6-0.8-1.1-0.9-1.7-0.6c-0.6,0.3-1,0.1-1.5-0.1c-1.6-0.6-3,0.6-3.1,2.3
				c-0.1,1,0.6,2.1,0,3c-0.5,0.6,0.3,1.6-0.7,2c0.9,0.2,1.6,0.9,2.6,0.7c0.8-0.1,1.4,0.4,2,0.6c0.9,0.3,1.4,0.1,1.2-1
				C311.5,296.2,311.4,295.6,311.6,294.6z M303.5,280.1c0.8,1.1,1.4-0.2,2.2,0.3c0.9,0.6,1.9,0.8,3.1,0.8c0.9,0,1.7,0.4,1.8,1.7
				c0.1,1.1,0.9,1.9,1.8,2.6c0.9,0.7,1.9,0.3,2.2-0.8c0.2-0.7,0.4-1.3,0.2-2.1c-0.4-1.5,0.6-2.5,2.1-2c0.6,0.2,1.2,0.4,1.8,0.6
				c0.7,0.2,1-0.2,1.1-0.7c0.2-0.6-0.4-0.6-0.7-0.8c-0.7-0.4-1.6,0.1-2.4-0.5c-0.9-0.8-2-0.8-3.2-0.7c-1.1,0.2-2.2,0.3-3.2-0.7
				c-0.9-0.9-3.5-0.4-4.1,0.7C305.5,279.5,304.7,280,303.5,280.1z M226.6,567.5c-0.5-0.5-1.1-0.8-0.9-1.1c1-1.1,0-2.6,1-3.7
				c0.3-0.3,0-0.8-0.3-1c-0.4-0.3-0.7,0-0.9,0.3c-0.5,0.8-1.2,1.3-1.4,2.3c-0.4,1.5-1.1,3.1-1.9,4.5c-1.3,2.3-2.9,4.4-3.4,7.1
				c-0.3,1.5-1.2,2.8-1.3,4.5c-0.1,1.4-1,2.5-0.4,4.2c0.5,1.6,0.5,1.9,2.1,1c-1.3-1.3-0.3-2.9-0.5-4.3c-0.4-2.1,1.4-3.6,2.4-5.1
				c1.7-2.5,2.5-5.5,4.1-8.1C225.6,567.2,225.9,567.5,226.6,567.5z M282.3,426.4c0-0.3,0-0.4,0-0.5c-1.8-2.3-4.5-2.9-7.1-3.6
				c-1-0.3-2.3-0.3-3.2-0.8c-2.5-1.4-5.1-1-7.7-0.9c-0.5,0-1.2,0.4-0.9,1c0.3,0.7,0.5,1.4,0.9,2.1c0.6,1.1,1.6,0.2,2.1,0.7
				c1.4,1.2,2.8,0.7,4.3,0.2c0.7-0.2,1.8-0.8,2.2-0.1c0.8,1.1,1.6,0.9,2.6,0.7C278,424.5,280,425.6,282.3,426.4z M280.1,350.4
				c-0.5,0.1-0.9,0-1.2,0.7c-0.3,0.8-0.9,1.6-1.4,2.3c-0.2,0.4-0.6,0.8-0.4,1.3c0.1,0.3,0.5,0.4,0.8,0.3c0.6-0.1,1-0.4,0.9-1.1
				c-0.1-0.7,0.2-0.8,0.8-0.8c0.9,0,2.8,1.8,2.8,2.7c0.1,1.4,1.2,2,2.4,1.3c0.7-0.4,1.7-3.1,1.3-3.6c-0.7-0.9-0.4-1.4,0.3-1.9
				c0.5-0.3,0.6-0.8,0.1-1.1c-1.8-0.9-3.6-1.8-5.5-2.5c-0.6-0.2-1.4,0-1.4,0.8c-0.1,0.6,0.5,0.9,1.2,1c0.4,0,1.1,0,0.9,0.6
				c-0.1,0.5-0.7,0.3-1.1,0.2C280.4,350.4,280.2,350.4,280.1,350.4z M278.7,444.5c1.1,1.5,3.1,0.4,4.3,1.4c0.1,0.1,0.6-0.1,0.8-0.3
				c1.3-1.1,2.7-1.6,4.4-1.7c1.4-0.1,1.9-1.1,1.4-2.2c-0.2-0.5-0.5-0.6-1-0.6c-1.8,0-2.8-1.7-4.5-2c-0.3,0-0.1-0.6,0.2-0.7
				c0.7-0.2,0.4-0.6,0.1-0.9c-1-1.1-1.7-0.4-2.7,0.3c-1.1,0.9,0,1.4,0.2,2c0.2,0.5,1,0,1.3,0.4C281.8,442,279.5,442.4,278.7,444.5z
				 M283.4,433.1c-0.9-1.5-3.8-2-4.7-0.6c-1.3,1.9-3.3,3-4.8,4.6c-1.3,1.3-2.9,2.3-2.7,4.5c0.1,1.4,0.8,1.9,2,1.4
				c0.6-0.2,1.1-0.4,1.8-0.2c1.2,0.4,1.2-1.1,1.8-1.7c0.4-0.4,0-0.6-0.4-0.8c-1.3-0.7-1.4-1.2-0.2-2c0.8-0.5,1.9-0.8,2.2-1.5
				C279.7,434.6,281.6,434,283.4,433.1z M330.4,349c0.9,0.7,1.9,1.2,2.7,2c0.8,0.8,3.6,0.7,3.8-0.2c0.3-1.4,1.6-2.1,2.1-3.3
				c0.4-0.8,0.9-1.8,0.1-2.7c-1-1-4.4-1-5.3,0c-0.5,0.5-1.1,0.9-2,0.6C332.7,346.6,332.5,347.2,330.4,349z M280,246.5
				c0.7,0.1,1.3-0.1,1.8-0.7c1.5-1.6,2.3-3.8,3.9-5.4c0.4-0.4,0-1-0.5-1.1c-0.7-0.1-1.9-0.8-1.9,0.8c0,0.5-0.4,0.6-0.8,0.7
				c-0.9,0.3-1.6,0-2.4-0.3c-0.4-0.2-1.1-0.5-1.2,0c-0.4,1.2-1.4,1.5-2.2,2c-1.1,0.8-1.4,2.6-3.2,2.5c-0.3,0-0.5,0.3-0.4,0.7
				c0.1,0.4,0.5,0.4,0.8,0.4C275.9,245.9,278,246,280,246.5z M350.5,321.8c0,0.1,0.1-0.2,0-0.3c-0.9-0.9-1.2-2.1-1.6-3.3
				c-0.1-0.5-0.7-0.1-0.8,0.2c-0.4,0.9-0.9,1.8-0.6,2.8c0.1,0.3,0,0.8,0.5,0.9c0.4,0.1,0.6-0.1,0.7-0.4c0.1-0.2,0.3-0.5,0.6-0.3
				c0.2,0.2,0.3,0.5,0.1,0.7c-0.1,0.3-0.3,0.5-0.5,0.8c-0.9,1-1.2,2.4-1.5,3.7c-0.2,0.9,1.1,1,1.3,1.7c0,0.1,0.2,0.1,0.2,0.2
				c0.7,1.7,2.1,1.7,3.6,1.3c1.3-0.4,0.6-2.3,2.1-2.6c-0.9-0.6-0.6-2.1-1.9-2.5C351.6,324.3,350.3,323.8,350.5,321.8z M349.2,415
				c-0.6-0.9-1.5-0.9-2.4-0.8c-0.4,0.1-0.8,0.1-1.2,0.1c-3.2-0.6-5.8,1.1-8.6,1.9c-0.4,0.1-0.7,0.5-1.1,0.9c-0.6,0.5-0.5,0.9,0.3,1
				c0.9,0,1.2,0.4,1.2,1.2c0,0.5,0,1,0.5,1.1c0.5,0.1,0.7-0.4,0.9-0.7c0.8-0.8,1.4-1.9,2.8-0.8c0.3,0.2,0.7-0.1,0.9-0.4
				c0.3-0.4,0.7-0.5,1.2-0.4c1.2,0.1,2.1-0.5,2.5-1.6c0.3-0.7,0.7-0.9,1.4-1C348.2,415.5,348.7,415.4,349.2,415z M324.5,355.7
				c0.9-0.4-0.1-1.8,1-2.2c1-0.3,1,0.7,1.3,1.3c0.1,0.1,0.2,0.3,0.3,0.3c0.8,0.2,1,1.8,2,1.1c0.5-0.3-0.2-1.3-0.2-1.9
				c0.1-1.5-0.8-1.9-2.1-1.9c-2.4,0-4.8-0.1-7.1,0.3c-1.1,0.2-1.3,0.6-1.4,1.8c-0.2,1.8,2.6,1.2,2.1,3c0,0,0.1,0.1,0.1,0.1
				c1-0.4,1.7,0.3,2.5,0.8c0.4,0.2,0.8,0,1.1-0.3C325,357.5,325,356.7,324.5,355.7z M237.7,362.1c0-0.4-0.1-0.6-0.3-0.7
				c-0.7-0.3-1.5,0-1.9,0.4c-1.4,1.7-3,3.3-3.9,5.2c-0.9,2.1-2.4,3.8-3.7,5.6c-1.1,1.5-1.8,3.3-3.3,4.6c-0.3,0.3-0.3,0.7,0,1
				c0.3,0.2,0.6,0.3,0.9,0.1c0.8-0.5,2.2-1.2,2.4-1.6c0.6-1.9,1.8-3.3,2.9-4.8c0.7-1.1,1.4-2.1,2.4-2.9c0.3-0.2,0.7-0.2,0.7-0.7
				c0-1.3,0.9-1.9,1.7-2.8C236.6,364.5,237.1,363.2,237.7,362.1z M254.9,246c0.3,0.1,0.4,0.1,0.5,0.1c2.3,0.3,4-0.3,4.7-2.8
				c0.3-0.9,0.2-1.1-0.5-1.2c-0.6-0.1-1.5,0-1.7-0.8c-0.3-1.2-1.2-1.1-2-1.1c-1.6,0-3.2,0.3-4.6,0.9c-0.9,0.4-2.8,1-2.3,2.3
				c0.5,1.5,2.1,0.7,3.2,0.3c1-0.3,1.9-0.7,3-0.7c0.8,0,1.3,0.3,0.6,1.1C255.1,244.7,255.1,245.3,254.9,246z M292.2,401.9
				c0.8,1,1.6,1.8,3,1.6c0.7-0.1,1.5,0,1.9,0.7c0.3,0.5,0.8,0.5,1.2,0.5c0.7-0.1,1.2,0.1,1.7,0.5c0.7,0.6,1.5,0.5,2.3,0.1
				c2-0.9,3.9-2.1,6.2-1.5c0.2,0.1,0.5-0.1,0.7-0.2c0.3-0.1,0.6-0.3,0.5-0.7c-0.1-0.4-0.4-0.4-0.7-0.3c-0.6,0.1-1.1,0-1.7-0.1
				c-3.7-0.6-7.5-0.7-11.3-0.7C294.9,401.7,293.6,402.2,292.2,401.9z M274.7,507c1-0.1,1.7-0.2,2.2-0.7c0.6-0.7,1.3-1.1,2.3-1
				c0.9,0.1,1.8-0.1,2-1.1c0.2-0.9-0.3-1.7-1.2-1.9c-1.7-0.4-3.3-1.8-5.1,0.1c-1,1-2.4,1.5-3.8,1.8c-0.4,0.1-1.2,0.6-0.5,1
				C271.9,505.9,273.5,506.5,274.7,507z M275.3,298.6c-0.4,0.6-0.1,0.9,0.3,0.9c0.6,0.1,1.2-0.2,1.5-0.8c0.5-0.9,0.8-2,1.5-2.8
				c1.6-1.8,2.2-4.1,3.6-6c0.3-0.5,0.7-1.3-0.2-1.7c-0.8-0.4-1.3,0.1-1.6,0.7c-0.6,1-1.4,1.7-2.4,2.2c-1.4,0.7-2.1,2.3-3.4,3.2
				c-0.2,0.2-0.3,0.5-0.1,0.7C275.8,296.1,275.1,297.5,275.3,298.6z M270.9,434.3c0-0.8-0.3-1.2-1.2-0.9c-0.8,0.2-1.5,0.6-2.1,1.2
				c-1.1,1.4-2.2,2.8-4.1,3.1c-0.4,0.1-0.7,0.3-0.7,0.7c-0.2,1.2,2,3.7,3.3,3.7c0.3,0,0.7-0.1,0.8-0.4c0.3-1.6,0.7-3,2.7-3.1
				C269.9,437.3,270.6,435.9,270.9,434.3z M245.4,625.6c-1,0.3-2.1,0.6-3.2,0.9c-0.5,0.1-0.8,0.6-0.8,1c-0.1,0.6,0.6,0.4,0.9,0.5
				c1.2,0.4,2.7,0.5,3.5,1.4c1.5,1.5,2.4,0.7,3.7-0.1c0.7-0.5,1.5-0.7,1.7,0.6c0.3,1.3,1.6,2,2.7,1.7c0.6-0.2,1-0.8,0.6-1.1
				c-1-0.9-1.5-2.4-3.2-2.7c-1.8-0.4-3.7-0.8-5.3-1.9C245.9,625.6,245.7,625.6,245.4,625.6z M334.7,406.8c-0.3-0.1-0.8,0.6-1.1-0.1
				c-0.2-0.5-0.1-1,0.3-1.5c0.3-0.3,0.8-0.7,0.4-1.2c-0.5-0.5-1.3-0.4-1.7,0c-0.7,0.7-1.6,1.4-1.9,2.3c-0.7,2-0.1,4,0.8,5.9
				c0.3,0.6,1.1,0.8,1.4,0.4c0.7-0.9,1.5-0.4,2.2-0.5c0.5,0,1.1,0.1,1.4-0.4c0.1-0.2,0.2-0.5,0-0.7c-0.5-0.3-1.1-0.3-1.5-0.1
				c-1.9,1.1-1.7-0.3-1.8-1.4c0-0.4-0.3-1,0.2-1.3c0.6-0.4,0.8,0.2,1.1,0.5c0.7,0.5,1.1,0.1,1.7-0.2c0.4-0.2,0.7-0.5,0.6-0.9
				c-0.2-0.7-0.8-0.6-1.4-0.7C335.2,406.8,335,406.8,334.7,406.8z M318.2,285.7c-0.7,0-1.3-0.1-1.8-0.1c-0.9,0-1.5,0.5-1.7,1.2
				c-0.7,2.3,1,4.3,3.4,4.2c2.8-0.1,3.8-2.1,2.6-4.6C319.9,285,318.8,286.1,318.2,285.7z M222.2,436.3c-0.5-1.6-1.7-2-3-2
				c-0.7,0-1.4,0.2-2.1,0.1c-1.3-0.2-1.7,0.7-2.1,1.6c-0.1,0.2,0.1,0.6-0.2,0.7c-1.7,0.4-0.4,1.5-0.4,2.1c0,0.9,1,0.7,1.6,0.7
				c1.1,0.1,2.2-0.1,3.2-0.1c0.4,0,0.9-0.2,0.8-0.5c-0.4-0.7-0.8-1.3,0.3-1.6c-0.6-1.3,0.5-0.8,1-0.9
				C221.5,436.3,221.8,436.3,222.2,436.3z M342.1,336.1c-0.4-1,0-2.6-1.5-2.7c-1.2-0.1-2,0.4-2.4,1.9c-0.4,1.4-0.1,2.5,0,3.8
				c0,0.8,0.4,1.5,1.3,1.5c0.9,0,1.6-0.2,2.1-1.1C342.2,338.4,341.2,337.1,342.1,336.1z M246.7,253.2c0.1,0,0.4,0.1,0.6,0
				c0.7-0.1,1.8,0.1,1.8-1c0-1-1-1-1.9-1.1c-2.1-0.1-4-0.1-5.4,2c-1.1,1.6-1.7,3.4-2.7,5c-0.2,0.3,0,0.6,0.2,0.8
				c0.2,0.1,0.4,0.3,0.5,0.1c0.7-1.5,2.9-1.9,3.2-3.8C243.3,253.2,244.9,253.2,246.7,253.2z M298.7,388.1c1.3-0.4,2.3,0,3.3,0.6
				c0.5,0.3,1.1,0.7,1.5-0.2c0.4-0.9-0.3-0.9-0.8-1.1c-0.9-0.4-1.7-0.8-2.5-1.4c-1-0.8-2.1-0.8-3.3,0.3c-1.3,1.2-0.1,1.4,0.5,1.9
				c0.1,0.1,0,0.2,0.1,0.3c1,1.1,1.4,2.9,3.4,2.9c0.7,0,1.7,0.6,2-0.3c0.3-0.8-0.6-1.3-1.3-1.7c-0.4-0.3-0.9-0.2-1.3-0.2
				C299.6,389,299,388.9,298.7,388.1z M246.4,265.2c0-0.4-0.4-0.6-0.7-0.8c-0.9-0.9-1.9-1.5-2-3c0-1,0.6-1.7,0.8-2.6
				c0.1-0.5,0.1-0.9-0.3-1.2c-0.5-0.3-0.8,0-1.2,0.3c-0.4,0.4-0.9,0.7-1.2,1.1c-0.6,0.6-1.2,1.3-0.7,2.3c0.3,0.5,0.4,1.1,0.6,1.7
				c0.3,1.1,0.9,2.1,1.7,2.9c1.2,1.2,1.7-0.7,2.6-0.4C246.1,265.6,246.3,265.5,246.4,265.2z M321.8,282.2c1.1,0.3,1.8,1.5,2.6,0.5
				c0.8-1,1.4-2.3,1.7-3.5c0.1-0.7-0.7-1.5-1.2-2.3c-0.8-1.4-2.3-2.2-2.8-3.7c-0.1-0.4-0.4-0.6-0.8-0.5c-0.4,0.1-0.5,0.5-0.6,0.8
				c-0.4,1.8,0.6,3.9,2.4,4.7c1.2,0.6,1.3,1.7,1.3,2.7c0,0.9-1,1-1.8,1C322.5,281.9,322.3,282,321.8,282.2z M295.5,327.1
				c0-0.3,0.1-0.6-0.2-0.8c-0.6-0.5-3.4,0.2-3.3,0.9c0.2,1.8-1.8,1.8-2.4,2.9c-0.2,0.4-1.3,0.2-0.7,1.1c0.6,0.8,1.1,0.6,1.6,0.1
				c0.7-0.8,1.3-1.4,1.8,0.2c0.2,0.7,1,0.9,1.7,0.7c0.5-0.2,0.9-0.5,1.3-0.7C294.1,330.1,295.1,328.6,295.5,327.1z M295.7,348.8
				c1.6,1.5,3,3.2,5.8,2.5c-1.4-0.8-1.6-1.8-0.6-2.9c0.4-0.4,0.8-0.9,0.1-1.3c-1.3-0.9-2.7-1.7-4.4-1.8c-0.3,0-0.5,0.1-0.6,0.3
				c-0.2,0.3,0.1,0.4,0.3,0.6c0.9,0.6,1.1,1.5,1.1,2.4C296.9,348.9,296.3,348.3,295.7,348.8z M302,265.4c0.7,1,0.3,2.2,0.9,3.3
				c0.7,1,1.8,1.6,2.3,2.7c0.1,0.2,0.6,0.4,1,0.3c0.4-0.2,0.3-0.6,0.2-1c-0.1-0.4-0.2-0.9-0.3-1.3c-0.2-0.9-1.1-1.6-1-2.6
				c0.8-0.2,1.2,1.1,2,0.1c0.4-0.5,0.3-0.9,0.1-1.3c-0.3-0.8-1.1-0.9-1.5-0.6c-1.2,0.8-2.3,0.4-3.4,0.1
				C302.3,265.2,302.2,265.3,302,265.4z M331.8,310.8c2.2,0.5,2.8,0.1,3.7-1.5c0.7-1.2,0.2-2.4,0.5-3.5c0.3-1-0.1-1.8-0.5-2.6
				c-0.3-0.7-1.1-1.1-1.6-0.6c-0.6,0.7-1.4,1.6-0.7,2.6c0.9,1.3,0.5,2.5,0.3,3.8C333.5,310.1,333.2,311,331.8,310.8z M294.4,431
				c-1.2-0.4-1.9,0.5-2.7,1.1c-0.5,0.4-0.7,1.2-0.2,1.8c0.9,1.1,4.6,1.7,5.9,1c0.5-0.2,0.7-0.7,0-0.8c-1-0.2-1.1-1.1-1.2-1.7
				C296.1,431.1,295.5,430.8,294.4,431z M309.1,287.3c0.9,0.1,1.8-0.2,2.7-0.3c0.2,0,0.5,0.1,0.1-0.3c-0.8-1-1.4-2.1-2.2-3.1
				c-0.8-1-3.1-1.3-3.2-0.5c-0.2,1.2-0.6,2.4,0,3.6C307.2,287.7,308.2,287.2,309.1,287.3z M227.2,423.4c0.9-0.4,1.4-0.1,2-0.1
				c0.3,0,0.8,0.2,0.9-0.3c0-0.4-0.4-0.4-0.7-0.5c-1.8-0.7-3.2-0.4-4.6,1c-1,1.1-1.2,0.9-0.1,1.7c0.1,0.1,0.2,0.1,0.2,0.2
				c0.6,2,2.3,1.1,3.5,1.3c-0.8-0.4-1.6-0.9-2.8-1.5c1.4,0,2.3-0.2,3.3,0.3c0.6,0.3,1.2,0.5,1.5-0.3c0.3-0.7-0.4-0.8-0.9-0.9
				C228.8,424,228.2,423.7,227.2,423.4z M385.8,624c-0.4,0-0.7,0-1.1,0c-0.4,0-0.8,0-0.8,0.5c0,0.4,0.1,0.8,0.6,1
				c2.1,0.7,4.1,1.5,5.8,3c0.5,0.5,1.1,0.4,1.7,0c0.7-0.5,0.2-1-0.1-1.4C390.5,624.9,387.9,625,385.8,624z M304.8,339.2
				c-1.5,0.4-2.4-0.2-3.4-1.4c-1.1-1.4-2.7-1.5-4-0.8c-0.8,0.4-0.9,1.1-0.9,1.8c0,0.7,0.6,0.9,1.1,1
				C300.2,340.6,302.4,339.3,304.8,339.2z M360,616.9c1.5,0.3,2.8-0.3,4.2-0.9c0.6-0.3,0.8-0.9,0.8-1.5c-0.1-0.7-0.7-1.2-1.3-1.5
				c-0.4-0.2-0.9-0.3-1.2,0.2c-0.9,1.2-2.6,1.3-3.5,2.5c-0.3,0.4-1.1,0.4-0.9,1c0.2,0.7,0.9,0.3,1.3,0.3
				C359.4,616.9,359.7,616.9,360,616.9z M341.1,306.4c1.1,0.1,1.5,0.9,1.3,1.6c-0.4,1.6,0.3,1.5,1.4,1.3c0.5-0.1,1.1-0.1,1.7-0.2
				c0.4,0,0.9-0.1,0.9-0.6c0.1-0.4,0-0.8-0.3-1.2c-0.6-1-1.6-1.7-1.9-2.9c-0.1-0.4-0.3-0.7-0.7-0.6c-0.4,0.1-0.9,0.2-0.8,0.7
				C343,305.7,342.2,306.1,341.1,306.4z M294.6,426.5c0.3,0.4,0.6,0.3,0.8,0.3c1.6-0.4,3.1-0.4,4.8,0.1c1.4,0.5,2.8,0,4-1
				c0.2-0.2,0.6-0.3,0.4-0.7c-0.1-0.3-0.2-0.8-0.6-0.8c-1.7,0.1-3.5,0-5.1,0.7c-0.9,0.4-1.6,0.7-2.4,0.2c-0.5-0.4-0.9-0.4-1.1,0.4
				C295.4,426,294.9,426.2,294.6,426.5z M338.8,613.4c-0.8-1.4-1.9-0.7-2.8-0.7c-1.5,0-2.9,0.4-4.1,1.5c-0.9,0.9-0.3,1.4,0.3,2
				c0.3,0.2,0.3,0.2,0.9-0.6c0.2-0.2,0.4-0.3,0.7-0.3c1.1,0,2.3-0.4,3.4,0.7C337,614.5,338,614,338.8,613.4z M338,354.7
				c0,0.2,0,0.3,0,0.5c-0.1,1,0.2,2.1,1.1,2.1c1,0.1,1.9-0.8,1.7-2c-0.1-0.5,0.2-0.8,0.4-1.1c0.6-0.7,0.4-1.5,0.4-2.3
				c0-0.4-0.3-0.8-0.6-0.6c-1,0.6-1.9,1.2-2.8,1.9C337.7,353.6,338.1,354.2,338,354.7z M225.9,392.7c1.3,0,1.9-1.2,1.6-2.4
				c-0.5-1.7-2.1-2.2-3.3-3.1c-0.2-0.2-0.7-0.1-1,0.2c-0.3,0.2-0.3,0.5-0.2,0.8c0.5,1.2,1.3,2.2,1.6,3.5
				C224.8,392.1,225.3,392.6,225.9,392.7z M250.7,276.8c-1.5-0.9-0.3-1.1,0.3-1.6c0.4-0.2,1.4-0.1,1-0.7c-0.3-0.6-0.3-0.8,0-1.3
				c0.2-0.3,0.4-0.7-0.1-1c-0.3-0.2-0.9-0.2-1,0c-0.8,1.3-2.3,1.6-3.2,2.7c-0.5,0.7-0.8,1.7-0.5,2.3c0.4,0.8,1.4,0.2,2.1,0
				C249.8,277.2,250.2,277,250.7,276.8z M262.6,409.7c-1.8,0-3.4,1.1-4,2.7c-0.1,0.3-0.4,0.7,0,1c0.4,0.4,0.7,0.1,0.9-0.1
				c0.3-0.3,0.7-0.6,1.1-0.3c1.5,1,2.5,0.9,2.8-1.1c0,0,0.1-0.1,0.1-0.1c0.4-0.3,0.9-0.5,0.5-1.2
				C263.7,409.8,263.2,409.6,262.6,409.7z M251.8,428.8c-1.1,0.4-2.9,0.2-4.5,0.9c-0.4,0.2-0.9,0.4-0.8,0.9c0.1,0.4,0.5,0.7,0.9,0.7
				c1.8,0.1,3.6,0.3,5.3-0.1c0.4-0.1,1.3-0.4,0.9-1.1C253.3,429.5,253.5,428.5,251.8,428.8z M334.7,294.8c-0.1-1.2,0.2-2.3-0.6-3.1
				c-0.2-0.2-0.4-0.5-0.7-0.3c-0.3,0.2-0.8,0.3-0.7,0.7c0.2,0.6,0,1.2,0.5,1.7c0.6,0.5,0.6,1.2,0.4,2c-0.4,1.8-0.8,3.6-0.5,5.5
				c0,0.3,0,0.6,0.4,0.7c0.2,0.1,0.5-0.1,0.5-0.3c-0.1-0.8,0.6-1.3,0.7-2C335.1,298,334.2,296.3,334.7,294.8z M250.4,410.1
				c-0.7-0.1-1,0.3-1.4,0.7c-0.5,0.6-0.2,1.6,0.3,1.4c1.2-0.6,1.6,0.3,2.3,0.8c0.6,0.4,1.3,0.2,1.8-0.4c0.3-0.4,0.4-0.9,0.7-1.2
				c1.2-0.8,0.3-1.2-0.2-1.7c-0.7-0.6-1.5-0.4-2.1,0C251.2,410.1,250.9,410.4,250.4,410.1z M285.5,371.1c0,0,0.4-0.6-0.4-0.7
				c-0.5-0.1-1.2-0.3-1.6,0.2c-0.4,0.6-0.6,1.4-0.7,2.2c0,0.2,0.4,0.7,0.8,0.1c0.2-0.3,0.4-0.3,0.6-0.1c1.4,1.8,3.8,1.6,5.5,2.7
				c0.3,0.2,0.6,0.3,1,0.4c0.4,0.1,0.9,0,1-0.5c0.1-0.5-0.3-0.5-0.7-0.6c-1.3-0.4-2.5-1-3.9-1.2C286,373.4,285.4,372.7,285.5,371.1z
				 M326.3,273c0,0.1,0,0.4,0.2,0.6c0.3,0.4,0,1.3,0.8,1.3c0.9,0,0.6-0.8,0.8-1.3c0.6-1.5,0.2-3.1,0.4-4.6c0.1-0.5-0.9-1.4-1.7-1.4
				c-0.8,0-0.6,0.8-0.6,1.4C326,270.3,326.9,271.5,326.3,273z M254.4,256.2c-0.3,0.7,0.3,1.1,0.7,1.5c0.3,0.3,0.6,0.1,0.8-0.2
				c0.4-0.4,0.8-0.8,0.5-1.6c-0.6-1.6-2-2.7-2.8-4.1c-0.5-0.8-1.1-0.9-1.8-0.8c-0.3,0-0.5,0.2-0.4,0.5c0.1,0.7,0.1,1.3,1,1.6
				C253.5,253.7,254.8,254.4,254.4,256.2z M229.1,609.1c1.1-0.2,2.2-0.4,3.3-0.8c0.5-0.1,1.2-0.3,1.1-0.9c-0.1-0.7-0.9-0.6-1.4-0.5
				c-1.7,0.4-3.3,0.7-4.9-0.6c-0.3-0.3-1.1-0.1-1.3,0.6c-0.1,0.6-0.1,1.3,0.6,1.5C227.4,608.7,228.2,608.9,229.1,609.1z M235.5,260
				c0,0.1-0.3,0.9,0.7,1c1.1,0.1,0.7-0.8,0.8-1.3c0.3-1.8,0.4-3.7,1.6-5.2c0.4-0.5-0.1-0.8-0.5-0.8c-0.7,0-1.4,0.1-1.7,1
				C235.8,256.2,235.5,257.9,235.5,260z M219.5,419c0,0.9,0.6,1.4,0.4,2.1c-0.2,0.6,0,1.2,0.8,1.2c0.7,0,1.4-0.4,1.5-1
				c0.3-1.2,0-2.5-0.5-3.6c-0.3-0.7-0.9-0.7-1.4-0.4c-0.2,0.1-0.8-0.4-0.7,0.1C219.8,418.1,219.5,418.7,219.5,419z M339.8,548.5
				c-0.4,0.1-0.9,0.3-1.3,0.3c-1,0-1.8-0.1-1.7,1.3c0,0.2-0.3,0.5-0.5,0.7c-0.3,0.4-0.7,0.7-0.3,1.2c0.4,0.4,1,0.5,1.4,0.3
				c1.1-0.6,2.1-1.4,3.1-2.1c0.4-0.3,0.3-0.6,0.2-0.9C340.5,548.8,340.3,548.5,339.8,548.5z M329.4,623.5c0.1,0.3-0.4,0.9,0.2,1.1
				c0.5,0.2,0.9-0.1,1.2-0.4c0.3-0.5,0.7-0.8,0.7-1.6c0.1-0.9,0-1.8,0.2-2.6c0.1-0.5,0.5-1-0.2-1.2c-0.6-0.2-1.2-0.2-1.4,0.6
				C329.8,620.7,328.9,622,329.4,623.5z M288.7,345.4c0-0.1-0.2-0.4-0.2-0.7c-0.2-0.9-0.2-1.9-1.6-0.9c-0.6,0.4-1.8-0.2-2.3-1
				c-0.2-0.3,0-1-0.6-0.8c-0.4,0.1-0.7,0.6-0.9,0.9c-0.2,0.5,0.4,0.6,0.6,0.9c0.5,0.6,1.6,0.5,1.9,1.2c0.5,1.3,1.7,0.9,2.6,1.2
				C288.5,346.6,288.8,346.2,288.7,345.4z M286.6,411.6c-0.1-0.8,2.1-1.8-0.2-2.4c-0.3-0.1-0.2-0.5-0.1-0.8c0.1-0.4,0.5-0.8,0-1
				c-0.5-0.2-0.9,0.1-1.1,0.8c-0.3,1.5-1.6,2-2.6,2.8c-0.1,0.1-0.6-0.1-0.7,0.3c0,0.4,0.4,0.5,0.6,0.6c0.7,0.5,1.5,0.3,1.7-0.3
				C285.1,409.6,285.7,410.9,286.6,411.6z M290,302.3c0.1-0.6-0.2-1.1-0.6-1.3c-0.7-0.3-0.6,0.5-0.8,0.8c-0.3,0.5-0.6,1-1,1.4
				c-1,1-0.7,2.4,0.7,2.9c0.6,0.2,1.9-0.7,1.7-1.2C289.4,304,289.8,303.2,290,302.3z M345.7,384.6c0.2,0.8-0.7,1.3,0,1.8
				c0.5,0.3,1.2,0,1.6-0.3c0.9-0.7,1-1.8,1.3-2.8c0.1-0.5-0.4-1.4-0.9-1.7c-0.8-0.4-1,0.6-1.5,1C345.3,383.3,345.2,384,345.7,384.6z
				 M310.6,368.3c0.3-0.8-0.2-1.2-1-1.3c-0.8-0.1-1.5,0.6-1.4,1.1c0.4,1.3-0.5,1.2-1.1,1.4c-0.4,0.2-0.9,0.4-0.9,1
				c0.1,0.5,0.6,0.6,1,0.5c0.9-0.2,2.7,1.2,2.5-1.3c0-0.1,0.2-0.2,0.4-0.2C310.7,369.4,310.8,369,310.6,368.3z M343.7,380.6
				c0.2,0.6,0.3,1.3,0.8,1.8c0.3,0.2,0.6,0,0.8-0.2c1.2-1.1,1.9-2.5,2.4-4c0.1-0.4-0.1-0.6-0.4-0.7c-0.3-0.1-0.6-0.1-0.7,0.1
				c-0.4,1-1.4,1.1-2.1,1.6C344.2,379.6,343.7,380,343.7,380.6z M245.3,424.5c0.8,0.1,1.5-0.2,1.3-1.2c-0.2-0.9,0.3-2.3-1.3-2.3
				c-1.1,0-2,0.7-2.3,1.6C242.8,423.5,244,424.5,245.3,424.5z M339.3,517.8c-0.1,0.8,0.2,1.4,1,1.4c1.1-0.1,2.3,0,3.3-0.7
				c0,0,0-0.2,0-0.3c-0.3-0.6,0-1.7-1.1-1.8c-1.1-0.1-2.2,0-3.1,0.8C339.3,517.3,339.3,517.6,339.3,517.8z M257.3,336.7
				c1.4,0.3,2.7,0.4,4,0.4c0.7,0,1.6,0.1,1.5-0.8c-0.1-0.7-0.6-1.4-1.6-1.5C259.5,334.6,258.4,335.2,257.3,336.7z M344.2,459.8
				c-0.6-0.3-1-0.5-1.4-0.6c-0.9-0.3-1.9-0.4-0.9-1.7c0.3-0.4,0-0.7-0.4-0.7c-1-0.1-1.6,0.1-1.6,1.2c0,1.1-0.1,2.1-0.5,3.1
				c-0.2,0.5,0,0.7,0.3,0.8c0.3,0.2,0.6,0.1,0.8-0.2c0.2-0.4,0.4-0.7,0.4-1.1c-0.2-1.4,0.7-1.1,1.4-0.7
				C342.7,460.1,343.2,460.2,344.2,459.8z M245.7,268.9c2.5,0,4.9-1.6,5.7-3.8c0.1-0.3,0.4-0.8-0.2-1c-0.6-0.2-0.4,0.3-0.6,0.6
				c-0.9,1.4-1.9,2.8-3.9,2.7c-0.4,0-0.8,0-1.2,0.1c-0.4,0.1-0.8,0.5-0.7,0.9C244.8,268.9,245.4,268.7,245.7,268.9z M249.3,254.2
				c-0.8-0.1-1.3,0.6-1.4,1.5c-0.1,1,0.8,0.6,1.3,0.8c0.8,0.3,1.9,0.1,2.2,1.3c0,0.1,0.5,0.5,0.9,0.4c0.2-0.1,0.3-0.2,0.3-0.5
				C252.7,256.5,250.7,254.2,249.3,254.2z M234,398.9c-0.5,1.2-0.7,1.9,1,1.8c1.1-0.1,2.2,0.2,3.3,0.4c0.9,0.1,2.3,0.6,2.6-0.6
				c0.1-0.5-1.6-0.8-2.6-0.9C236.8,399.5,235.2,400.1,234,398.9z M250.6,248.8c-1.1-1.3-2.1-1.2-3.4-0.4c-1.1,0.6-2.5,1.4-3.9,0.8
				c-0.3-0.1-1-0.2-0.9,0.4c0,0.4,0.4,0.7,0.9,0.6C245.7,249.8,248.3,250.2,250.6,248.8z M349.1,428.3c-0.1-0.5-0.6-1.1-1.1-1.4
				c-0.7-0.4-1.4-0.8-1.6,0.7c-0.1,0.9,0.3,1.8-0.2,2.7c-0.2,0.5,0.6,1.3,1,0.8C347.8,430.2,348.9,429.6,349.1,428.3z M326.2,361.4
				c-0.2,0.6-0.5,1.2,0.4,1.3c0.7,0.1,1.4,0.1,1.8-0.8c0.4-0.8,0.3-1.7,0.7-2.4c0.3-0.4,0.7-0.9-0.1-1.1c-0.6-0.2-1.1-0.2-1.2,0.6
				c-0.1,0.6-0.3,1.2-0.9,1.3C326.2,360.5,325.9,360.7,326.2,361.4z M318.3,403.2c1-0.1,1.7-0.2,2.5-0.2c0.3,0,0.8,0,0.8-0.5
				c0-0.5-0.3-0.8-0.9-0.8c-0.9,0-1.9,0.2-2.7-0.2c-1-0.5-1.6,0.2-2.2,0.5c-0.7,0.4,0.3,0.9,0.1,1.5c0,0.1,0.4,0.3,0.5,0.2
				C316.8,402.6,317.8,403.3,318.3,403.2z M338.9,350.7c-0.3,0.3-0.4,0.7,0.1,0.8c0.6,0.1,3.1-1.7,3-2.3c-0.1-0.8-0.8-1.6-1.5-1.5
				C339.1,348.1,338.3,349.1,338.9,350.7z M245.5,390.4c0.8-0.3,1.5-1,1.9-2c0.5-1,1.1-1.8,2.2-1.8c1,0-0.5-0.9,0.4-1.1
				c0.4-0.1-0.3-0.5-0.5-0.7c-0.3-0.3-0.5,0-0.7,0.2c-1.3,1.6-2.7,3.1-4.1,4.7c-0.1,0.1-0.3,0.2-0.2,0.5
				C244.7,390.5,244.9,390.5,245.5,390.4z M339,407.8c0.2,0.5-0.1,0.7-0.3,1c-0.6,0.8-1,1.6,0.1,2.4c0.3,0.2,0.4,0.8,1,0.7
				c0.7-0.1,0.3-0.7,0.4-1.1c0.4-1.1-0.6-2.3,0.2-3.4c0.2-0.3,0.4-0.7,0.1-1c-0.3-0.3-0.7,0.1-1,0.2
				C339,406.9,338.6,407.2,339,407.8z M208.1,600.6c1.9,0.1,1-1.7,1.8-2.3c-0.5-0.3-0.1-1.4-1.1-1.3c-1.1,0.1-2,1.1-2,2.7
				C206.8,600.8,207.7,600.4,208.1,600.6z M214.5,596.5c-0.3-0.4,0-1.1-0.3-1.6c-0.4-0.8-1.2-1.7-2.1-1.4c-1.1,0.4-0.3,1.3-0.1,2.1
				c0.2,0.6,0.5,1.1,0.9,1.6c0.3,0.3,0.7,0.4,1.1,0.2C214.3,597.2,214.6,597.1,214.5,596.5z M254.1,397c1.1-0.2,1.9-0.8,2.6-1.6
				c-0.9-0.1-0.7-1.5-1.8-1.4c-1,0.1-2.2,1.3-2.1,2.2C252.9,396.9,253.5,397,254.1,397z M324.9,423.2c0.6,0,0.8-0.4,0.9-0.9
				c0.1-0.6,0.2-1.2,0.6-1.7c0.3-0.5,0.4-1.1,0-1.6c-0.4-0.4-0.8-0.1-1.1,0c-0.6,0.3-1.1,0.7-0.8,1.4c0.1,0.5,0.2,0.9-0.3,1.2
				c-0.3,0.2-0.6,0.6-0.4,0.9C324,422.9,324.5,423,324.9,423.2z M344,466.3c-0.5,0-0.7,0.3-0.8,0.9c0,0.5,0.4,0.8,0.2,1.3
				c-0.2,0.6,1.5,2.2,2.1,2c0.4-0.2,0.4-0.5,0.3-0.9c-0.3-0.9-0.4-1.8-0.7-2.7C344.9,466.3,344.6,466.3,344,466.3z M291.1,424.7
				c-1.1-0.3-1.7,0.6-2.4,1.1c-0.3,0.2-0.3,0.8-0.1,1.1c0.2,0.3,0.6,0.3,1,0.2c0.6-0.2,1.2-0.4,1.9-0.6c0.7-0.2,1.9,0.1,1.7-0.9
				C293,424.7,291.7,425,291.1,424.7z M376.7,409.6c-0.4-0.8-1.1-0.7-1.7-0.6c-1.2,0.3-2.3,0-3.4-0.4c-0.7-0.2-1.4,0-2.1-0.1
				c-0.4-0.1-0.6,0.3-0.7,0.7c-0.1,0.3,0.1,0.5,0.4,0.5C371.6,409.6,374.1,410,376.7,409.6z M321.7,363.2c-0.5-0.6-0.9-1-1.2-1.4
				c-0.3-0.6-0.4-1.4-1.3-1.3c-1,0.1-0.8,1.1-1,1.7c-0.4,1,0.1,1.4,1.1,1.4C320.1,363.6,320.8,363.5,321.7,363.2z M313.9,196.8
				c0,1.4,0.7,2.9,0.6,4.4c0,0.4,0.3,1,0.9,0.8c0.5-0.1,0.5-0.5,0.5-1c-0.1-1.9-1.4-3.5-1.4-5.4c0-0.1-0.2-0.3-0.3-0.2
				c-0.2,0.1-0.4,0.2-0.4,0.3C313.7,196.1,314.1,196.3,313.9,196.8z M260.2,435.2c-0.1,0-0.3,0-0.4,0.2c-0.3,0.6,0.9,3.3,1.6,3.5
				c0.3,0.1,0.5,0,0.7-0.2c0.4-0.9-0.4-1.9,0.4-2.7C261.8,435.7,261.1,435.3,260.2,435.2z M247.3,244.7c0-0.4-0.3-0.5-0.7-0.6
				c-0.9-0.4-2.9,0.7-3.2,1.6c-0.1,0.4,0.1,0.7,0.3,0.9c0.2,0.2,0.6,0.3,0.8,0c0.6-0.5,1.2-0.7,1.9-0.9
				C247,245.7,247,245.1,247.3,244.7z M344.6,369.2c1,0.3,1.4-0.7,1.9-1.4c0.2-0.4,0.5-1.1-0.2-1.3c-0.6-0.2-1.4-0.5-1.8,0.5
				c-0.1,0.4,0,0.8-0.5,1c-0.3,0.1-1,0-0.7,0.7C343.5,369.1,343.9,369.3,344.6,369.2z M259,250.3c-0.6-0.5-1.2-1.1-1.8-1.5
				c-0.5-0.4-1.3-0.8-1.6,0c-0.1,0.4-1.1,1.1,0.4,1.7C257,251,257.8,250.7,259,250.3z M324.4,187.9c0.2,0.8,0.4,1.8,0.6,2.9
				c0.1,0.3,0.3,0.6,0.7,0.4c0.2-0.1,0.6-0.3,0.6-0.4c-0.3-0.7,0.1-1.7-0.2-2.2c-0.4-0.7-0.8-1.2-0.7-2c0-0.6-0.3-0.6-0.7-0.5
				c-0.4,0-0.6,0.3-0.3,0.6C324.6,187,324.5,187.3,324.4,187.9z M283.1,345.8c-0.8,0-1.3,0-1.3,0.5c-0.1,0.5,0.4,0.6,0.8,0.8
				c1.3,0.8,3.2,0.5,4.1,2.1c0.1,0.2,0.5,0.3,0.7,0c0.2-0.2,0.1-0.4-0.1-0.6C286.1,347.2,284.5,346.5,283.1,345.8z M286,464.5
				c0.4,0.3,0.8,0.4,1.3,0.5c0.7,0.1,0.3,0.8,0.6,1.1c0.1,0.1,0.4,0.2,0.6,0.1c0.9-0.3,2.5,1.1,2.5-1.1c0-0.2,0.4-0.4,0.6-0.6
				c0.5-0.4,0.8-0.9,0.9-1.5c-0.8,0.2-0.8,0.2-1.2,0.9c-0.8,1.4-1.9,1.7-3.3,1C287.4,464.5,286.7,464,286,464.5z M326.5,176.4
				c-1.1,0.4-2,0.3-2.7-0.7c-0.2-0.3-0.7-0.3-0.8,0.3c-0.1,0.6,1.9,2.8,2.5,2.8c0.4,0,1.2-0.6,1-0.7
				C325.4,177.7,326.6,177.1,326.5,176.4z M280.8,439c0-0.5-0.4-0.8-1.1-0.8c-1.2,0-2,0.9-2.1,2.1c0,0.4,0.1,0.5,0.5,0.5
				C279.3,440.8,280.8,439.8,280.8,439z M283.8,358.9c-1.3-1.5-3-0.7-4.5-0.6c-0.3,0-0.5,0.1-0.6,0.4c0,0.3,0.2,0.4,0.5,0.5
				C280.8,359.5,282.4,360.1,283.8,358.9z M325.8,370.3c0.8-0.3,1.3-1,1.3-1.7c0-0.6-0.1-1.6-1-1.4c-1,0.2-1.4,1.3-1.6,2.1
				C324.3,369.8,325.2,370,325.8,370.3z M333.4,592.2c0.4,0.8,1.1,0.9,1.5,1.3c1.3,1.3,3.2-1.3,4.3,0.9c0.1,0.1,0.6,0,0.7-0.4
				c0.1-0.3,0.3-0.5,0.4-0.7c-1.5-1.3-3.2,0.2-4.8-0.6C335,592.5,334.4,592.1,333.4,592.2z M323.7,389.3c0,0.3-0.3,0.7,0.2,1.1
				c0.4,0.3,0.8,0,1.1-0.2c0.4-0.2,0.2-1,0.1-1.1c-0.5-0.9-0.7-2-1.1-2.9c-0.2-0.4-0.6-0.4-0.9-0.2c-0.4,0.2-0.3,0.6,0,0.9
				C323.7,387.5,323.8,388.3,323.7,389.3z M321.6,408.6c-1.4-0.4-2.6-0.9-3.1,0.7c-0.2,0.6,0.2,1.3,0.8,1.5
				C321.3,411.4,320.3,409,321.6,408.6z M246.1,260.5c-0.2,0.7,0.2,1.1,0.7,1.4c0.4,0.2,0.8,0.2,1.1-0.1c0.5-0.6-0.1-0.9-0.3-1.3
				c-0.3-0.5-0.2-1,0-1.4c0.2-0.3,0.4-0.7-0.1-0.9c-0.4-0.2-0.8,0.1-1.1,0.4C246,259.1,246.3,259.9,246.1,260.5z M246,550.2
				c1.3,0.1,1.5-0.8,1.6-1.6c0.1-0.9-0.8-0.9-1.3-0.9c-0.9-0.1-1.3,0.6-1.4,1.5C244.9,549.8,245.4,550.1,246,550.2z M323.4,179.2
				c0,0.9-0.4,1.3,0.2,1.8c0.5,0.5,0.8,1.2,0.8,1.9c0.1,0.6,0.4,1.2,1.1,0.9c0.6-0.2,0.6-0.9,0.3-1.5
				C325.3,181.2,324.4,180.4,323.4,179.2z M228.8,421.7c0.6-0.5,1.8,0.8,2.2-0.4c0.1-0.4-1.4-1-2.1-1c-0.9,0.1-2.5,0.1-2.5,0.9
				c0,1.1,1.4,0,2.2,0.5C228.5,421.7,228.5,421.7,228.8,421.7z M343.5,482c0.3-0.3,1.8,0.1,0.6-1.2c-0.2-0.2-0.2-0.6,0-0.8
				c0.7-0.6-0.1-0.6-0.4-0.7c-0.8-0.4-0.9,0.5-1.3,0.7c-0.3,0.2-0.7,0.7-0.3,1.2C342.5,481.6,342.8,482,343.5,482z M352.7,507.5
				c0.1-0.7-0.2-1-0.6-1.1c-0.4-0.2-0.8-0.3-1.1,0.1c-0.5,0.7-0.2,1.8-0.9,2.5c-0.1,0.2,0.2,0.4,0.5,0.4
				C350.9,509.4,352.7,507.6,352.7,507.5z M253.6,281.9c-0.6,0.3-1.6,0.3-1.3,1.5c0.1,0.6,0,1.3,0.9,1.2c1.2-0.1,1-1.4,1.3-2.1
				C254.7,282.1,254.1,282,253.6,281.9z M322.9,328.7c0.8,0,1.2-0.6,1.5-1.1c0.4-0.6,0.4-1.4-0.2-1.8c-0.8-0.5-1,0.2-1.2,0.9
				c-0.1,0.4-0.5,0.8-0.7,1.2C321.9,328.5,322.2,328.7,322.9,328.7z M295.5,413.1c0.8-0.1,1.4-0.4,2-0.1c0.5,0.2,1.3-0.2,1.3-0.9
				c0-0.4-0.4-0.9-1.2-0.9C296.5,411.3,295.8,411.8,295.5,413.1z M249.3,422.5c-0.5,0.1-1.1,0-1,0.6c0.2,0.5,0.2,1.6,1.1,1.4
				c0.8-0.1,2.1-0.1,2-1.2C251.3,421.8,249.8,423.4,249.3,422.5z M341.6,478.4c-0.4-0.5-0.2-1.4-1-1.8c-0.6-0.3-1.1,0-1.6,0.3
				c-0.1,0.1-0.6,0.3-0.2,0.5c0.8,0.3,1.1,1,1.6,1.5c0.2,0.2,0.5,0.4,0.8,0.2C341.5,479,341.5,478.7,341.6,478.4z M325.7,426.4
				c0-0.6-1.2-2-1.7-2.1c-0.6,0-0.5,0.7-0.9,0.9c-0.1,0.1,1.9,1.8,2.1,1.8C325.6,427,325.8,426.8,325.7,426.4z M261.2,557.4
				c-1-0.4-2-1-3.1-0.9c-0.4,0.1-0.8,0.2-0.7,0.6c0.1,0.4,0.3,0.9,0.5,1.2c0.2,0.2,0.5,0.1,0.7-0.1
				C259.2,557.4,260.2,557.5,261.2,557.4z M296.5,352.4c0.7,0.8,0.3,2.3,1.9,2.2c0.5,0,0.9-0.4,0.7-0.9
				C298.8,352.6,298,352.1,296.5,352.4z M349,376.4c0.1,0.5-0.4,1.1,0.3,1.2c0.6,0.1,1-0.4,1.1-1.1c0-0.2,0.1-0.4,0.1-0.6
				c0-0.4,0.9,0,0.5-0.5c-0.4-0.5-0.9-0.7-1.5-0.2C349.1,375.6,348.5,375.8,349,376.4z M265.4,244.5c-0.5,0.5-1.5,0.4-1.4,1.5
				c0,0.5-0.1,1,0.7,1c0.9,0,1.4-0.5,1.4-1.3C266.2,245.3,266,244.7,265.4,244.5z M325,358.6c0.9-0.1,1.5,0.4,1.9-0.4
				c0.4-0.7,0.3-1.4-0.1-2c-0.2-0.3-0.5-0.6-0.9-0.5c-0.4,0.1-0.3,0.5-0.2,0.8C325.9,357.2,325.9,357.9,325,358.6z M267.1,404.6
				c-0.6,0.1-0.8,0.6-0.8,1.2c0,0.8,0.4,1.1,1.2,1c0.4-0.1,1.1-0.1,0.9-0.7C268.1,405.6,268.2,404.6,267.1,404.6z M333.7,330.2
				c0-0.7,0-1.3-0.7-1.4c-0.7-0.1-0.6,0.5-0.6,0.9c0,0.3-0.3,0.6-0.3,1c-0.1,0.4-0.6,0.8,0,1.2c0.7,0.4,0.8-0.3,1.1-0.7
				C333.5,330.9,333.8,330.5,333.7,330.2z M350.7,372.1c0.1-0.5-0.2-0.6-0.5-0.5c-0.8,0.1-1.5,0.3-1.6,1.3c0,0.6,0.4,1.2,0.7,1.1
				C350.3,373.9,350.4,372.9,350.7,372.1z M262.9,422c-0.1-0.7-0.5-1.1-1.2-1.1c-0.4,0-1-0.1-0.8,0.6c0.2,0.7,0.2,1.7,1.1,1.8
				C262.8,423.4,262.4,422.3,262.9,422z M236.1,547.1c0.4,0.5,0.9,0.9,1.6,1.1c0.7,0.2,1.1-0.1,1.3-0.7c0.2-0.8-0.4-0.7-0.9-0.8
				C237.3,546.5,236.6,546.4,236.1,547.1z M225.9,411.3c-0.1-0.5-0.3-1-0.8-0.9c-0.6,0.1-1.5,0-1.6,1c-0.1,0.6,0.4,0.8,0.9,0.8
				C225,412.2,225.7,412,225.9,411.3z M250,395c0.2,0.3-0.7,1.2,0.5,1.1c0.8-0.1,1.2-0.5,1.3-1.3c0.1-0.9-0.8-0.7-1.2-0.8
				C249.8,393.8,249.9,394.4,250,395z M320.3,405.2c0.7,0.4,1,1.2,1.8,1.2c0.6,0,1-0.1,1.1-0.8c0.1-0.7-0.4-0.7-0.8-0.9
				C321.6,404.5,321,404.9,320.3,405.2z M345.3,376.3c0.1-0.3,0.1-0.6-0.1-0.6c-0.2-0.1-0.5,0-0.7,0.1c-0.4,0.3-0.8,0.7-1.1,1
				c-0.3,0.3-1,0.3-0.7,0.8c0.3,0.5,0.9,0.4,1.4,0.2C344.6,377.4,345.1,376.9,345.3,376.3z M329,418.2c0.5,0.8,0.7,1.9,2.1,1.4
				c0.5-0.2,0.5-0.7,0.3-1C330.8,417.6,330,417.5,329,418.2z M344.4,405.5c0.5-0.3,1.4,0.1,1.6-0.8c0.1-0.5-0.4-1-1-0.9
				c-0.6,0.1-1.4,0.3-1.6,1C343.2,405.5,343.9,405.4,344.4,405.5z M276.9,512.4c1.1,1.2,2,0.4,3-0.1c0.4-0.2,0.6-0.4,0.4-0.8
				c-0.2-0.4-0.6-0.3-0.9-0.1C278.6,511.8,277.8,512.4,276.9,512.4z M259.6,254.3c0-0.6-0.3-0.8-0.9-0.8c-0.8-0.1-0.9,0.7-1,1.1
				c-0.1,0.6,0.4,1.2,1,1.1C259.7,255.7,259.2,254.7,259.6,254.3z M261.8,374.6c0-1-0.2-1.6-1-1.7c-0.5-0.1-0.6,0.5-0.5,0.7
				c0.3,0.6-0.2,1.7,0.8,1.9C261.8,375.7,261.7,374.8,261.8,374.6z M286.6,461.9c-0.3,0-0.6,0-0.5,0.4c0.1,0.2-0.2,0.5,0.3,0.5
				c0.8,0,1.4,0.4,2.1,0.8c0.3,0.2,0.8,0.1,1.1-0.3c0.2-0.3-0.1-0.5-0.3-0.6C288.3,462.8,287.4,462.3,286.6,461.9z M291.3,334.3
				c0-0.6-0.4-0.7-0.9-0.7c-0.7,0.1-0.9,0.5-1,1.1c0,0.6,0.3,0.8,0.8,0.8C291,335.5,291.2,335,291.3,334.3z M287.8,421.9
				c0-1-0.7-1.4-1.4-1.7c-0.3-0.2-0.8-0.4-1.1,0.1c-0.2,0.4,0,0.8,0.3,1.1C286.3,421.9,287,421.8,287.8,421.9z M253.4,249.9
				c0.4,0,1,0.1,1-0.5c0-0.7-0.6-0.9-1.2-1c-0.5-0.1-1.3,0.2-1.2,0.7C252,249.8,252.9,249.6,253.4,249.9z M276,446.4
				c0.7,0,1.4,0.1,1.5-0.7c0.1-0.7-0.6-0.7-1-0.7c-0.6,0-1.4,0.3-1.5,0.8C274.8,446.6,275.7,446.4,276,446.4z M329.2,410.8
				c-0.5-0.3,0.1-1.2-0.5-1.3c-0.6-0.1-1.1,0.4-1.3,1c-0.1,0.5,0.3,0.8,0.8,0.9C328.7,411.4,329.1,411.5,329.2,410.8z M280.2,318.4
				c0.3-0.3,0.9-0.6,1-1c0.1-0.5-0.5-0.9-1-0.8c-0.6,0.1-0.8,0.6-0.9,1.1C279.2,318.1,279.6,318.4,280.2,318.4z M287.2,385.5
				c-0.7-0.8-1.4-1.1-2.3-0.7c-0.3,0.2-0.7,0.3-0.7,0.7c0.1,0.5,0.6,0.3,0.9,0.3C285.8,385.7,286.4,385.6,287.2,385.5z M340.5,480.9
				c-0.8-0.4-1.5-0.5-2.1,0.2c-0.2,0.3-0.1,1,0.3,1.1C339.7,482.6,339.7,481.2,340.5,480.9z M282,357c-0.3-0.6-0.9-0.6-1-1.1
				c-0.1-0.4-0.3-0.7-0.7-0.6c-0.3,0.1-0.6,0.4-0.6,0.8c0,0.4,0.2,0.6,0.6,0.8C280.9,357.1,281.4,357.1,282,357z M292.7,364.2
				c-0.4,0-0.8,0.1-0.7,0.4c0.3,0.7,1,0.9,1.6,1.2c0.4,0.2,0.7-0.3,0.6-0.7C294.1,364.3,293.3,364.4,292.7,364.2z M275.7,510.6
				c0.5-0.3,1.6,0.1,1.4-1c-0.1-0.3-0.1-1-0.6-0.9C275.5,508.9,276.1,510,275.7,510.6z M357.9,522.7c0.9-0.3,0.7-1.2,1.1-1.9
				c0.1-0.2-0.1-0.5-0.4-0.5c-0.3-0.1-0.8,0-0.8,0.2C358.1,521.3,357.2,522,357.9,522.7z M345.1,331.9c0.1-0.4,0.2-1-0.6-0.9
				c-0.5,0-0.8,0.5-0.7,0.8c0.1,0.5,0.3,1.2,0.9,1.2C345.3,333,345.2,332.5,345.1,331.9z M282.2,461.7c0.6-0.7,1.7-0.1,1.8-1.2
				c0.1-0.4-0.2-0.4-0.6-0.4C282.6,460.2,281.8,460.2,282.2,461.7z M307.3,388.5c0.4-0.3,1.2,0.2,1.3-0.6c0-0.4-0.4-0.8-0.9-0.8
				c-0.7,0-0.8,0.6-1,1C306.6,388.6,307,388.5,307.3,388.5z M336.1,636.6c-0.5-1.6-2-0.8-3-1.3C333.8,636.5,335.5,635.3,336.1,636.6
				z M229.9,394.8c-0.4-0.5-0.7-0.9-1-1.2c-0.3-0.3-0.7-0.3-1-0.1c-0.2,0.1-0.3,0.3-0.2,0.5c0.1,0.3,0.3,0.5,0.6,0.6
				C228.8,394.6,229.3,394.7,229.9,394.8z M225.6,430.2c0.3-0.2,1.2,0.3,1.1-0.5c0-0.7-0.9-0.6-1.4-0.6c-0.4,0-1-0.3-1,0.4
				C224.3,430.2,224.9,430.2,225.6,430.2z M292.7,439.6c0.1,0.6,0.5,0.9,0.8,1.2c0.3,0.3,0.7,0.8,1.1,0.3c0.5-0.7-0.4-0.6-0.7-0.8
				C293.6,439.9,293.4,439.5,292.7,439.6z M271.2,509.7c-0.5,0.1-0.8,0.5-0.8,0.8c0,0.6,0.6,0.7,1.1,0.8c0.3,0,0.6-0.2,0.6-0.5
				C272,510.3,271.7,509.8,271.2,509.7z M297.2,361.1c-0.2-0.4-0.6-0.7-1.1-0.5c-0.4,0.1-1,0.2-0.8,0.7c0.1,0.2,0.5,0.8,1.1,0.7
				C296.8,361.8,297.2,361.7,297.2,361.1z M336.2,404.1c-0.4,0.1-0.8,0.2-0.8,0.7c0,0.6,0.5,0.6,0.9,0.6c0.4,0,0.9,0.1,0.9-0.5
				C337.2,404.5,336.7,404.2,336.2,404.1z M383.5,404.9c0.3-0.2,0.9,0,1-0.5c0-0.6-0.5-0.7-1-0.7c-0.4,0-0.9,0.2-0.9,0.7
				C382.6,404.8,383,404.9,383.5,404.9z M301.6,312.3c-0.3,0-0.8-0.1-0.7,0.5c0.1,0.5,0.5,0.9,1,0.9c0.4,0,0.4-0.4,0.4-0.7
				C302.4,312.4,302.2,312.2,301.6,312.3z M283.9,451.4c0.1-0.3,0.9,0,0.7-0.6c-0.1-0.4-0.2-0.9-0.8-1c-0.5-0.1-0.5,0.4-0.5,0.7
				C283.3,450.8,283.1,451.3,283.9,451.4z M373.1,303.4c1.1,0,1.5,1.5,2.6,0.4C375,303.4,374.5,302.4,373.1,303.4z M360,559.5
				c-0.2-0.4-0.2-1-0.8-1c-0.5,0-0.8,0.5-0.8,0.9c0,0.5,0.6,0.6,1.1,0.6C359.9,560.1,360.1,559.8,360,559.5z M236.2,281.1
				c1-0.1,1.7-0.2,2.2-1.2C237.4,280,236.6,280.1,236.2,281.1z M294.2,350.6c0.8,0,1.4,0.8,2.2,0.2c0.2-0.1,0.2-0.4,0-0.5
				c-0.7-0.4-1.4-0.5-2.1,0C294.3,350.2,294.3,350.3,294.2,350.6z M223.4,431.6c0.3-0.1,0.9-0.2,0.9-0.7c0.1-0.4-0.3-0.5-0.6-0.5
				c-0.4,0-1,0-1,0.6C222.7,431.4,222.9,431.6,223.4,431.6z M307.8,311.1c0.6,0,0.5,1.4,1.4,0.7c0.3-0.2,0.3-0.7,0.1-1
				C308.8,310.3,308.3,310.9,307.8,311.1z M253.9,304.8c0.4-0.1,0.6-0.6,0.7-1.1c0-0.3-0.3-0.4-0.6-0.3c-0.5,0.1-0.9,0.3-0.9,0.9
				C253.2,304.7,253.3,304.9,253.9,304.8z M323.5,259c1-0.1,1.9,0.2,2.7-0.5c0,0,0-0.2,0-0.3c-0.8-0.3-1.6,0.1-2.4,0.2
				C323.7,258.6,323.6,258.7,323.5,259z M276.8,350.2c-1-0.2-1.6-0.7-2.1-0.1c-0.2,0.3,0.1,0.6,0.3,0.8
				C275.8,351.5,276,350.6,276.8,350.2z"/>
			<path d="M363.7,527.9c0.5,0.6-0.1,1.6,0.8,1.6c0.8,0,0.7-0.9,1-1.4c0.2-0.4,0.1-0.9,0.6-1.2c0.6,1.5,0,3.9-1.1,4.9
				c-0.9,0.9-2.1,1.7-2.7,2.9c-0.3,0.6-0.6,1.4-1.5,1.3c-0.4,0-0.5-0.4-0.5-0.7c0-0.9,0-1.9,0.9-2.2c1.2-0.4,1.6-1.2,1.5-2.3
				C362.8,529.9,363.5,529.1,363.7,527.9z"/>
			<path d="M334.5,218.5c-0.3,1.8-0.1,2,1.5,1.7c0.4-0.1,1-0.3,1.3-0.1c1.3,0.6,2.5,0.3,3.8-0.5c-0.5,2.5-1.1,3-3.4,2.9
				c-0.9,0-1.5,0.2-1.7,1.4c-0.6-1-1-1.6-1.7-2.1C332.8,220.8,332.8,219.9,334.5,218.5z"/>
			<path d="M372.9,512.5c0,2.3,0,4.6,0,6.9c0,1,0.4,2,0.2,3c-0.1,0.4-0.2,0.9-0.6,1c-0.6,0-0.5-0.6-0.5-0.9
				c-0.1-2.3-0.2-4.5-0.1-6.8c0-1,0.3-2.1,0.5-3.1C372.6,512.5,372.7,512.5,372.9,512.5z"/>
			<path d="M373.8,508.1c-0.8-2.7,0.4-5.2-0.7-7.6c-0.2-0.6,0.2-0.8,0.7-0.9c0.4-0.1,1.1-0.1,0.9,0.4
				C373.9,502.6,375.2,505.4,373.8,508.1z"/>
			<path d="M372.7,490c0.7,2.2,1.5,4.4,2.1,6.7c0.2,0.8-0.9,1.4-0.7,2.3c0,0-0.4,0.1-0.5,0.1c-0.3,0-0.2-0.3-0.2-0.5
				c0.2-2,0-3.9-0.9-5.9c-0.3-0.6-0.2-1.7-0.2-2.6C372.5,490,372.6,490,372.7,490z"/>
			<path d="M331.4,230.3c0.8-1,3.3-1.6,4.2-1.1c0.1,0.1,0.3,0.3,0.3,0.3c-0.6,0.8-1.2,1.6-1.8,2.4c0,0-0.4-0.1-0.4-0.1
				C333.5,230.4,332.4,230.4,331.4,230.3z"/>
			<path d="M336,224.9c-0.2,1.3-0.8,1.8-1.6,1.9c-1.2,0.1-2.3,0-3.4,0.5c-0.3,0.1-0.8-0.1-0.9-0.4c-0.1-0.5,0.4-0.6,0.8-0.7
				c0.8,0,1.6,0,2.4,0C334.4,226.4,335.2,225.9,336,224.9z"/>
			<path d="M358.9,497.6c0.5-0.6,1-1.2,1.4-1.7c0.3-0.4,0.7-0.3,1.1-0.2c0.3,0.1,0.5,0.3,0.5,0.7c0,0.5-0.5,0.8-0.8,0.8
				C360.5,497.3,359.9,497.9,358.9,497.6z"/>
			<path d="M372.7,527.4c0.2,2,0.5,4.1-0.3,6.1C372.3,531.4,372.6,529.4,372.7,527.4z"/>
			<path d="M232.3,257.9c-0.4-1,0-1.9,0.3-2.8c0.1-0.3,0.4-0.5,0.7-0.3c0.3,0.1,0.2,0.4,0.1,0.6C233,256.2,233.6,257.4,232.3,257.9z
				"/>
			<path d="M348,458c-0.5,0-0.6-0.3-0.6-0.7c0-0.6,0.4-1,0.9-1.1c0.4-0.1,0.4,0.5,0.5,0.8C348.8,457.6,348.5,457.9,348,458z"/>
			<path d="M238.5,330.8c2.8,0.6,5.7,0.8,8.6,0.7c1.1,0,2.1-0.4,3.1-0.8c0.7-0.3,1.3-0.6,2-0.8c1.6-0.3,2.7,0.3,3.1,1.9
				c0,0.2,0.1,0.5,0,0.6c-1.1,1.1-2,2.6-3.7,2.9c-0.6,0.1-0.9,0.1-1.2,0.7c-0.6,1-1.8,1.2-2.8,1.4c-1,0.3-2.2,0.2-3.2,0.4
				c-0.9,0.2-1-0.9-1.6-0.8c-2.2,0.2-3.5-1.7-5.3-2.3c-0.5-0.2-1-0.2-1.5-0.4c-0.5-0.2-1.4-0.2-1.4-0.8c0-0.7,0.3-1.5,1-1.9
				C236.5,331.1,237.4,330.7,238.5,330.8z"/>
			<path d="M240.6,317.5c2.5,0.1,4.1,0.7,5.7,1.1c0.4,0.1,0.7,0.5,0.7,0.9c0,0.7-0.5,1.3-1.2,1.5c-1.6,0.6-3.3,1.2-4.9,1.6
				c-2.1,0.5-4.2,0.8-6,2.1c-0.3,0.2-0.6,0.2-0.8,0c-0.3-0.3-0.2-0.6,0.1-0.8c0.4-0.4,0.6-0.9,0.4-1.5c-0.5-1.2,0.1-2,1.1-2.8
				C237.3,318.4,239.1,317.2,240.6,317.5z"/>
			<path d="M241.3,309.8c-1.2,0.8-2,1.8-3.2,2.1c-0.4,0.1-0.7,0.1-0.9-0.3c-0.1-0.3,0-0.6,0.2-0.8
				C238.3,309.4,239.6,309.6,241.3,309.8z"/>
			<path d="M255.3,518.7c0.1-0.2,0.2-0.4,0.3-0.6c0.2-0.5,0.8-0.6,1.2-0.2c0.8,0.6,1.5,0.2,1.8-0.5c0.4-1.1,1.2-1.1,1.8-0.7
				c2,1.6,4.5,1.5,6.7,2.5c0.4,0.2,0.9,0.2,0.7,0.8c-0.2,0.6-0.7,0.4-1,0.2c-0.5-0.2-0.9-0.4-1.4-0.6c-1-0.5-1.9-0.5-2.9,0.1
				c-1.5,0.9-3.1,1.3-4.7-0.1C257.1,519.1,256.2,518.9,255.3,518.7z"/>
			<path d="M248.8,528.4c-0.5-0.1-1.6,0.4-1.6-0.6c0-1,1.1-0.8,1.8-0.8c0.3,0,0.5,0,0.8,0c0.5-0.1,0.9-0.6,1.4-0.1
				c0.3,0.2,0.1,0.4-0.1,0.6c-0.4,0.5-0.7,1.2-1.5,0.9C249.3,528.4,249.1,528.4,248.8,528.4z"/>
			<path d="M253.8,518.8c-0.4,0-0.8,0-1.2-0.1c-0.5-0.1-1-0.4-1-1c0-0.2-0.1-0.6,0.2-0.6c0.5-0.1,0.9,0.2,1.2,0.5
				c0.3,0.3,0.7,0.6,1.1,0.8C254,518.6,253.9,518.7,253.8,518.8z"/>
			<path d="M318.1,314.5c0,3.7-0.7,7.2-1.7,10.8c-1.1-1.2-1.5-2.4-0.6-3.6c0.8-1.2,0.7-2.4,0.8-3.7
				C316.6,316.6,317.3,315.5,318.1,314.5z"/>
			<path d="M324,317.8c1.7,0.1,1.8,1.2,1.8,2.2c0,0.3-0.1,0.9-0.6,0.9c-0.5,0-0.7-0.5-0.7-0.9C324.4,319.3,324.5,318.6,324,317.8z"
				/>
			<path d="M316.2,325.8c0.5,1.1,0.6,2.1-0.1,3c-0.2,0.2-0.3,0.6-0.7,0.4c-0.3-0.2-0.1-0.4,0-0.7
				C315.6,327.7,315.9,326.7,316.2,325.8z"/>
			<path d="M324.8,312.2c-0.2-1,0.6-1.7,0.5-2.6c0-0.2,0.4-0.3,0.6-0.2c0.2,0.1,0.4,0.4,0.3,0.6
				C325.9,310.8,325.7,311.6,324.8,312.2z"/>
			<path d="M266.1,452.3c1,0.5,2.3,0.7,3.5,0.8c0.2,0,0.6,0.2,0.4,0.5c-0.2,0.4,0.1,1-0.5,1.2c-0.4,0.1-0.9,0.2-1.2-0.2
				c-0.9-1.4-1.9-1.8-3.4-0.9c-0.4,0.2-0.5-0.3-0.4-0.6C264.8,452.6,265.3,452.3,266.1,452.3z"/>
			<path d="M263,483.8c0.8-0.5,1.7-0.5,2.5-0.7c0.3-0.1,0.7-0.1,0.8,0.2c0.1,0.4-0.1,0.7-0.5,0.8C264.8,484.5,263.9,484.7,263,483.8
				z"/>
			<path d="M307.9,194.6c0.2-0.6-0.3-1.4,0.7-1.5c0.9-0.1,1.2,0.5,1.3,1.3c0,0.5,0.1,1,0.2,1.5c0.1,0.7-0.1,1-0.9,1.1
				c-0.7,0.1-1.1-0.1-1.1-0.8C308.1,195.6,308,195.1,307.9,194.6z"/>
			<path d="M314.7,179c0.3,0,0.6,0.2,0.7,0.5c0.1,0.3,0.1,0.7,0.1,1.1c0,0.5,1.1,0.9,0.2,1.3c-0.5,0.2-0.6-0.8-0.9-1.2
				c-0.2-0.3-0.3-0.8-0.4-1.2C314.3,179.2,314.4,179,314.7,179z"/>
			<path d="M302.9,457.2c-0.1-3.5,1.1-6.5,2-9.6c0.9-3,1.4-6.1,2.4-9.1c0.8-2.3,1.2-4.7,1.6-7.1c0.1-0.5,0.9-0.7,0.7-1.5
				c-0.1-0.3,0.5-0.7,1-0.4c0.5,0.3,0.9,1,0.6,1.2c-1.3,0.8-0.7,2.1-1.1,3.2c-1.5,4.6-2.3,9.4-3.4,14.1c-0.7,3-1.3,6-2,9
				c-0.1,0.2-0.2,0.5-0.2,0.7c-0.1,0.7-0.5,1.3-1.2,1.2c-0.7-0.1-0.2-1-0.3-1.5C302.8,457.4,302.9,457.2,302.9,457.2z"/>
			<path d="M311.1,437c1.8,0.7,1.1,2.1,0.8,3.2c-0.6,2.4-1.8,4.8-2,7.2c-0.3,3.8-2,7.3-2.2,11.2c-0.1,1.8-1.2,3.5-1.3,5.4
				c0,0.5-0.4,0.7-0.8,0.8c-0.4,0.1-0.8,0-1-0.3c-0.4-0.6,0.4-0.6,0.5-0.9c0.1-0.9,0.5-1.6,0.6-2.4c0.4-2.6,1.3-5,2-7.5
				c0.3-1.2,0.6-2.4,0.8-3.6c0.4-3.1,1.4-6.1,2.1-9.2C310.8,439.6,310.6,438.3,311.1,437C311.2,437,311.1,437,311.1,437z"/>
			<path d="M301.7,463.4c0.2-0.8,0.2-1.8,1.4-1.8c0.6,0,0.6,0.5,0.5,0.9c-0.3,0.8-0.1,2-1.4,2.1
				C301.6,464.5,301.6,463.9,301.7,463.4z"/>
			<path d="M310.4,419.9c2.1-1.1,4.2-0.7,6.3-0.2c0.2,0.1,0.8,0.1,0.6,0.7c-0.1,0.4-0.3,1-0.8,0.8
				C314.5,420.4,312.4,420.6,310.4,419.9z"/>
			<path d="M313.2,422.5c1.1-0.2,2.2,0.2,3.3,0.3c0.3,0,0.6,0.2,0.6,0.6c0,0.4-0.3,0.7-0.7,0.6c-1.6-0.3-3.4,0.3-5-0.4
				c-0.3-0.1-0.8-0.1-0.8-0.6c0.1-0.5,0.6-0.6,1-0.6C312.1,422.4,312.6,422.5,313.2,422.5z"/>
		</g>
		<g>
			<rect x="400" fill="none" width="100" height="800"/>
			<path d="M485.4,545.8c5-1.1,7.2-4.7,7.2-10.5c0-5.7-2.3-8.2-5.9-8.2c-4,0-5.8,2.4-7.8,10.9c-3.2,13.5-8.1,16.9-14.8,16.9
				c-8.7,0-14.5-6.5-14.5-18.2c0-13.2,7.1-18.4,14.3-19.1v10.8c-3.1,0.5-6.4,2.2-6.4,8.6c0,4.4,1.8,7,5.3,7c3.5,0,4.9-2.1,6.7-10.1
				c3.4-14.4,8.8-17.6,15.8-17.6c9.1,0,15.3,6.9,15.3,20c0,12.6-6.2,19.2-15.3,20.4V545.8z"/>
			<path d="M495.4,475c12,0,19.5,4.4,19.5,18.5c0,13.6-7.6,16.3-11.8,16.6v-10.5c2.6-0.7,4.3-2.6,4.3-6.6c0-6.7-4.1-8-11.4-8h-1.8
				c3.2,1.9,5.2,5,5.2,10.5c0,9.8-8,15.4-18.1,15.4c-11.7,0-19.6-7-19.6-16.3c0-6.4,3-9.1,4.8-9.6c-1-0.1-3.3-0.3-3.9-0.4V475
				c3.3,0.1,7.1,0.1,10.7,0.1H495.4z M481,500.5c6.4,0,10.2-3.2,10.2-7.8c0-6.2-4.3-7.9-10.5-7.9c-6.3,0-10.6,1.1-10.6,7.7
				C470.1,497,473.5,500.5,481,500.5z"/>
			<path d="M462.7,469.9v-5.7h-10.1v-10.3h10.1v-7.3h7.8v7.3h18.4c2.8,0,3.9-0.9,3.9-3.9c0-0.6,0-1.6-0.1-2.3h7.1
				c0.7,2,0.7,4.9,0.7,6.9c0,7.3-3.9,9.7-10.4,9.7h-19.6v5.7H462.7z"/>
			<path d="M450.3,421.5v-10.6h22.2c-3.8-3.3-15-13.5-22.2-19.8v-12.9l20.6,19.9l29-20.7v12.9l-22.1,15.2l5,5.2h17v10.6H450.3z"/>
			<path d="M483.5,366.5c4.7,0,9.2-2.3,9.2-7.5c0-4.3-1.7-5.5-4-6.5v-10.3c4.6,1.3,12.1,5.4,12.1,17.1c0,12.3-9.2,17.6-19,17.6
				c-11.7,0-20-6-20-18c0-12.8,9.3-17.2,18.6-17.2c1.3,0,2.1,0,3.1,0.1V366.5z M477.2,352.1c-4.3,0.1-8,1.8-8,6.8
				c0,4.9,3.4,6.9,8,7.3V352.1z"/>
			<path d="M499.9,334.8h-52.6v-10.3h52.6V334.8z"/>
			<path d="M488.7,307.9c3-0.8,4.6-3.2,4.6-7.1c0-3.8-1.4-5.2-3.6-5.2c-2.4,0-3.3,1.6-4.6,6.9c-3,12.1-6.8,14.1-12,14.1
				c-5.5,0-11.3-3.9-11.3-15.1c0-11.3,6.2-15.1,11.2-15.5v9.8c-1.4,0.3-4,1.2-4,6.1c0,3.4,1.5,4.5,3.2,4.5c1.9,0,2.7-1.2,4.2-7.2
				c2.9-12.4,7.2-14.2,12.6-14.2c6.2,0,11.8,4.7,11.8,16.1c0,11.3-5.5,16-12.1,16.8V307.9z"/>
			<path d="M481.2,243.4c11.3,0,19.6,6.7,19.6,18.6c0,11.6-8.2,18.3-19.4,18.3c-11.5,0-19.6-7-19.6-18.8
				C461.8,250.5,469.6,243.4,481.2,243.4z M481.3,269.8c7.2,0,11.4-3.1,11.4-8.1c0-5.1-4.3-7.9-11.4-7.9c-7.8,0-11.5,2.9-11.5,8
				C469.9,266.7,473.4,269.8,481.3,269.8z"/>
		</g>
		<g>
			<rect x="500.5" y="100.3" fill="none" width="200" height="600"/>
			<path d="M665.2,503.2c8.3-2.7,13.7-7.7,13.7-19.7c0-20.1-24.4-22.3-40.2-23.1c8.2,6,11.9,17.3,11.9,29.7
				c0,29.4-20.1,46.1-45.7,46.1c-27.9,0-49.1-19.4-49.1-52.3c0-40.2,31-53.9,66.2-53.9c40,0,80.9,10.3,80.9,54.9
				c0,33.1-20.2,46.6-37.7,49.2V503.2z M603.5,504.9c14.5,0,23.3-8.4,23.3-21.8c0-13.7-7-21.1-22.7-21.1c-9.5,0-24.2,3.9-24.2,21.6
				C579.9,497.9,590.2,504.9,603.5,504.9z"/>
			<path d="M631.4,348.5h26.9v60.1h-26.9V348.5z"/>
			<path d="M700.4,305.8H594.1c3.1,6.6,5.6,18.6,6.2,25.7h-23.1c-2.5-13.5-10.1-27.1-19.1-35.2v-21.8h142.3V305.8z"/>
		</g>
	</g>
</g>
<g id="text">
</g>
<g id="guides">
</g>
<g id="scratch">
</g>
</svg>
