<?xml version="1.0" encoding="utf-8"?>
<!-- Generator: Adobe Illustrator 26.0.2, SVG Export Plug-In . SVG Version: 6.00 Build 0)  -->
<svg version="1.2" baseProfile="tiny" xmlns="http://www.w3.org/2000/svg" xmlns:xlink="http://www.w3.org/1999/xlink" x="0px"
	 y="0px" viewBox="0 0 800 800" overflow="visible" xml:space="preserve">
<g id="fill">
</g>
<g id="bg" display="none">
	<rect x="-2100" y="-100" display="inline" fill="#9FC9EB" width="9000" height="1000"/>
</g>
<g id="counters_00000155831629897369998050000010902328751353074356_">
	<g id="GE_LMG_MG42">
		<path d="M105.6,439.8c-4.5-2.1-7.2-3.4-6.5-8c0.9-5.2,4.4-3.3,7.3-3.8c17.1-3.5,34.5-0.1,51.7-2.1c2.7-0.3,6.1-0.4,7.7,2.1
			c2.9,4.4,6.1,2.7,10,2c6.9-1.2,13.7-2.9,20.5-4.6c3.3-0.9,5.4-3,4.8-5.7c-2.1-8.8,7-15.2,4.3-24.4c2.4,2.6,3.4,6.9,7.8,3.7
			c1.1-0.8,2.1-1.6,1.7-3.1c-1.9-7.3,0.6-14.6-0.6-22c-0.8-4.6,3-9.9-1.7-14.2c-0.4-0.3-0.5-1.3-0.3-1.8c4.7-10.6-1.8-21.7,1.5-32.6
			c0.8-2.7-1.8-6.5-3-9.7c-0.4-1-1.4-1.6-2.7-1.2c-1.2,0.4-1.8,1.3-1.5,2.5c2.7,13.1,1.1,26.2,1.2,39.4c0.1,7,2.1,13.9-0.3,21.2
			c-0.9,2.7,2.5,6.5,2.3,10.3c-0.1,2.2-0.5,4.3-2.7,4.4c-2.9,0.2-2.1-2.7-2.1-4.3c-0.3-10,0.7-20.1-1.4-30.1
			c-0.9-4.1-0.6-8.8,0.3-12.9c1.6-7.5-0.6-14.8-1.3-22c-0.4-4.2,1.6-8,0.6-12.2c-1-4.2-2.4-6.7-7.1-6.3c-7.5,0.7-14.9-0.8-22.3-1.2
			c-1.9-0.1-3.4-0.1-4.8-2.1c-1.1-1.5-3.7-3.3-4.8,1.2c-0.9,3.3-4.2,3.5-7.5,2.7c-3.9-1-2.4-3.5-2.2-6.1c1-9,1.7-9.6,9.7-5.7
			c7,3.4,14.6,2.1,21.9,3.2c2.3,0.3,4.8-1.1,7.4,0c2.8,1.1,6.3-1,6.5-2.6c0.3-2.4,3.6-4.2,0.7-7.8c-3.2-4,2-8,2.9-12.1
			c0.6-2.7,4.2-1.2,6.7-1c6.2,0.3,8.2,2.3,5.8,8.5c-0.8,2.2-0.2,5.1,0.2,7.6c0.9,5.1,3.7,7.5,9.3,7.3c7.2-0.3,14.2-2.9,21.6-1.8
			c1.4,0.2,3.1-1.3,4.5-2.1c1.6-0.9,2.9-3,5-1.1c2.5,2.3,3.6,5.4,3.1,8.7c-0.5,3.2-3.3,2-5.2,2.1c-9.4,0.5-18.8,0.9-28.2,1.3
			c-8.4,0.3-8.2,1.5-8.7,9.9c-0.4,6.4,1.3,12.7,0.4,18.8c-1.7,11.3,0.3,22.3,0.7,33.5c0.4,12.2-0.2,24.5,1.2,36.7
			c0.2,1.9,0.1,3.8,1.4,5.4c3.3,4.3,3.1,8.6,2.6,14c-0.4,3.8,1.6,8.6,1.6,13.1c0,1.9,0.2,3.7,0,5.6c-0.3,4.2-1.4,9.8,6.3,8.6
			c0.7-0.1,2.2,0.9,2.4,1.7c0.4,1.6-0.6,3.5-2,3.6c-9.5,1.2-6.3,8.4-6.5,13.7c-0.6,19.2,0,38.4-2.6,57.5c-0.6,4.3,3.2,9.2-1.9,12.8
			c5.5,4.9,1.3,11.7,3.2,17c3,8.3-1.5,15.6-1.2,23.5c0.2,4.7-5.2,6.7-9.2,6.9c-3.4,0.2-5.7-3.1-6.4-6.6c-1.8-8.6-1.7-17.3-1.6-26
			c0.1-13.1-0.8-26.2-0.8-39.2c-0.1-12.5-5-24.5-2.3-37c0.9-4.1-0.4-8.1-1.3-11.7c-0.8-3.1-0.8-5.8-0.4-8.6c1.1-6.4-1-8.8-7.4-10.2
			c-7.3-1.6-14.4,0.6-21.6-0.2c-0.7-0.1-1.8,0.4-2.3,0.9c-7.6,8.6-17.8,7.1-27.5,6.6c-5.8-0.3-11.4,0.6-17.1,0.9
			c-6.4,0.3-12.9-0.7-19.5-0.2c-2,0.1-5.2-0.8-4.6-4C102.2,446.5,97.1,441.5,105.6,439.8z M218.3,458.4c0.2-1.7,0.6-3.4,0.5-5
			c-0.2-2.6,0.4-6.7-3.3-6.6c-3.1,0.1-5.8,2.7-4.9,6.8c0.7,3.1-0.2,6-1.5,8.7c-3.1,6.9,2.5,13.4,0.2,20.8c-0.9,2.8,1.9,8.5,1.4,13.2
			c-0.4,3.1,0.9,5.9,2,8.6c0.6,1.5,2,2.3,3.6,2c2-0.3,1.7-1.8,1.9-3.4c1.2-7.7-0.1-15.6,0.7-23C219.8,472.8,216.8,465.7,218.3,458.4
			z M222.6,559.1c-0.9-5.2-0.5-9.7-2.3-13.9c-1.2-2.7-1.2-6.3-5.8-4.5c-3.4,1.3-6.5,2.7-4.6,7.3c0.6,1.3,0.9,2.7,0.4,4.3
			c-2.1,6.9-0.5,13.8,0.6,20.7c0.5,3,2.2,4.5,5.2,4.6c3.2,0,4.6-2.2,5-4.9C221.8,568,222.2,563.1,222.6,559.1z M214.4,509.8
			c-2.5,0.5-4.5,1-4.2,4c0.3,3.6,0.8,7.5,0.3,10.6c-1.2,6.6,3.6,5.6,6.3,5.5c3.8-0.1,4-3.8,3.5-6.9c-0.4-2.3-2.2-4.6-1.1-6.8
			C222.6,510,216.7,511.4,214.4,509.8z M208.3,428c4.1,0.9,4.1,3.5,3,6.3c-1.5,4,0.2,4.3,3.6,3.7c3.1-0.6,4.3-1.8,4-5.1
			C218.4,426.2,218.2,426,208.3,428z M127.7,431.9c-4.4-1.5-8.1-2.5-12.1-0.7c-0.9,0.4-2.2,0.5-2.1,1.9c0,1.3,1.2,1.8,2.2,1.9
			C119.7,435.4,124,436.4,127.7,431.9z M210.2,421c3.2-0.4,4.2-2.4,4.3-5.4c0-1.9-0.5-2.9-2.5-2.5c-3.3,0.6-3.2,3.6-4,5.9
			C207.4,421.1,209,420.9,210.2,421z"/>
	</g>
</g>
<g id="text">
	<g>
		<rect x="300" y="100" fill="none" width="400" height="600"/>
		<path d="M370.5,153h24.2v91.9h55.6l-2.8,19.8h-77V153z"/>
		<path d="M549.8,222.8c0-19.1,0.3-40.4,0.8-53h-0.8c-5.2,22.8-16.4,60-27.1,94.9h-20.6c-8.1-30.6-19.7-72.9-24.6-95.2h-0.8
			c1,13.1,1.4,36.1,1.4,55.2v40h-22V153h35.9c8.7,29.2,18.5,65.8,21.8,82.4h0.2c2.7-14.7,15-53.8,24.3-82.4h34.6v111.7h-23.3V222.8z
			"/>
		<path d="M688.8,264.7h-17.7c-0.9-3.4-1.5-7.3-1.8-11c-6.2,8.3-17.1,12.9-32.6,12.9c-32.4,0-50.5-24.5-50.5-56.3
			c0-33.6,19.5-58.9,54.7-58.9c28.7,0,45.7,16.2,48.4,35.3h-24.2c-2.3-7.5-8.2-16.3-24.5-16.3c-22.9,0-29.5,19.2-29.5,38.9
			c0,19.2,7.5,38.1,29.6,38.1c20.6,0,24.5-14.3,24.5-24.3v-1h-24.5v-19.8h48.2V264.7z"/>
		<path d="M479.3,459.1v-1.5c0-18.6,8.3-33.7,31.4-50.5c15-11,19.6-14.8,19.6-24.1c0-9.2-4.5-14.4-13.5-14.4
			c-10.4,0-14.2,6.4-15.7,15.7h-22.4c1.5-18.4,13.6-33.7,38.1-33.7c27.4,0,36.8,16.3,36.8,32.3c0,15.5-6.7,23-26.3,36.8
			c-13.1,9.2-18.4,15.3-20.2,20.1h50.5l-2.9,19.3H479.3z"/>
		<path d="M604.8,407.3v20.2h-45.1v-20.2H604.8z"/>
		<path d="M611.9,428.5c0-13.6,9.5-22,17.4-25.5c-8.2-5.1-13.2-11.5-13.2-22.3c0-18.1,13.2-30.1,37.2-30.1
			c21.9,0,36.3,11.4,36.3,29.8c0,12.3-6.3,18.3-13.6,21.4c7.7,2.9,17.4,11.8,17.4,25.9c0,22-17.6,33.4-41.9,33.4
			C629.9,461.1,611.9,449.6,611.9,428.5z M670.4,427.4c0-10.6-7.3-15.4-17.7-15.4c-11.6,0-17.5,6.3-17.5,15.3
			c0,9.5,7.1,15.8,18,15.8C663.1,443,670.4,438.3,670.4,427.4z M638.2,381.5c0,7.2,5.2,12,14.9,12c9.5,0,14.6-3.6,14.6-12
			c0-8.1-5.3-13.1-14.8-13.1C643.2,368.5,638.2,373,638.2,381.5z"/>
		<path d="M465.6,541.8h48.8c27,0,37.2,14.1,37.2,28.6c0,12.6-6.7,20.8-14.2,24.2c7.5,2.8,17.4,10.8,17.4,25.5
			c0,19.1-15,33.4-38.8,33.4h-50.4V541.8z M511.6,585.9c11.5,0,16.2-5.2,16.2-13c0-8.2-6.2-12.4-15.5-12.4h-23v25.4H511.6z
			 M489.3,634.9h21.8c13.1,0,19-5.5,19-15.6c0-9-5.8-14.7-19.1-14.7h-21.7V634.9z"/>
		<path d="M579.8,653.5v-79.7c-4.9,2.3-14,4.2-19.3,4.6v-17.3c10.1-1.9,20.3-7.6,26.4-14.3h16.4v106.7H579.8z"/>
		<path d="M617,653.5V652c0-18.6,8.3-33.7,31.4-50.5c15-11,19.6-14.8,19.6-24.1c0-9.2-4.5-14.4-13.5-14.4
			c-10.4,0-14.2,6.4-15.7,15.7h-22.4c1.5-18.4,13.6-33.7,38.1-33.7c27.4,0,36.8,16.3,36.8,32.3c0,15.5-6.7,23-26.3,36.8
			c-13.1,9.2-18.4,15.3-20.2,20.1h50.5l-2.9,19.3H617z"/>
	</g>
</g>
<g id="guides">
</g>
<g id="scratch">
</g>
</svg>
