<svg xmlns="http://www.w3.org/2000/svg" baseProfile="tiny" viewBox="0 0 800 800" overflow="visible"><path d="M315 264.1c.1-.2.3-.4.3-.6-.2-.8-1.6-1.6.1-2.5.9-.5 1.5-1.5 2.7-1.5.6 0 1.1-.2 1.4-.9.3-.8-.4-1-.8-1.4-.9-.9-2.2-1.4-2-3-2-.8-1.5-2.8-2-4.3-.6-1.7-.2-3.5-.5-5.1-.4-2.8 1.2-4.9 1.8-7.1.6-1.9 2-4 2.7-6 .9-2.6 3-4 4.6-5.7 1.5-1.6 3.7-2.7 6-2.9.7-.1 1.4-.2 2-.7 2.2-1.8 4.9-2.4 7.7-2.6l4-.4c2.3-.2 2.9.1 3.5 2.3.2.9.7 1.3 1.5 1.3.5 0 1.2.2 1.4-.4.3-.7-.5-.5-.9-.7-.5-.2-.6-.6-.3-1s.9-.6 1.2-.3c1.7 2.1 4.5 1.6 6.5 3 .9.6 2.2.6 3.2-.7.8-1.1 2.3-1.7 3.5-2.5 1.5-1.1 3.3-2 5-2.9 1.8-1 3.4-2.5 4.8-4 1.2-1.3 1.4-3.5 1.9-5.3.4-1.2.8-2.1 2.2-2.3 1.7-.3 2.8-2.6 2.2-4.2-1-2.8-1-2.8-4-2.7-2.6 0-5.3-.1-7.9.3-.7.1-1.5.3-1.9-.5-.4-.7.2-1.4.5-1.9 2.2-3.4 3.5-7.3 4.5-11.2.5-2-.8-4.1-1-6.1-.1-.8-.4-1.6-.6-2.4-.3-1-.3-1.6 1.3-1.2-1.8-.9-1.8-2.2-2-3.7-.2-2.3-.5-4.6-.5-7 0-1.3 1.1-2.5.5-3.9-.2-.5.5-.3.8-.4.4-.2.5-.8.2-.8-1.8-.1-.6-1.1-.4-1.5.5-1.6.7-3.3 1.2-4.9.9-2.6 2.7-4.4 4.4-6.3.8-.9 1.4-2.1 3.4-1.5-1.6-1.1-1.2-1.7-.3-2.3 1.4-.9 2.9-1.6 3.6-3.4.2-.5.7-.7 1.3-.8.5 0 .9-.1 1.4-.3 4.5-2 9.3-2.4 14.2-2.2l7.9.2c5.4 0 10.6 1.2 15.5 3.8 2.5 1.3 4.6 3.2 6.9 4.8 1.3.9 2.2 2.4 3.2 3.8.6.8 1 1.9-.8 2.4 2.1.1 2.6 1.2 3 2.9a24.47 24.47 0 0 0 1.7 4.5c1.3 2.4 1 5 1.7 7.5.5 1.9.6 3.9 2.1 5.3 1.2 1.1 2.5 2.2 3.7 3.2.4.3.7.6 1.1.8 1 .7 1.7 1.7 1.5 2.8-.3 1.3-1.8 1.1-2.8 1.2-1.8.2-3.7.3-5.6.6-1.5.2-2.3.7-2.3 2.6 0 1.4.6 3.1-1 4.3-.3.2.1 1.5.6 2.2.4.5 1.1 1.3.5 1.5-.8.4-2 .7-2.8-.3-1.5-1.8-1.4-1.7-3.3-.2-1 .7-1.9 1.9-3.5 1.7-.6-.1-1 .4-1.4.9-.3.4-.6 1.1-1.2.8-.7-.4 0-1 .1-1.5.3-1.4.7-2.7 2.4-3.4-2.2-.5-2.8-.1-3.3 1.8-.4 1.5-.6 3.2-2.9 2.8-.2 0-.6.1-.6.3-.4 1.7-1.8 1.5-3.1 1.8-2.6.5-4 2.7-4.2 5.6-.2 3.1.8 5.6 3.1 7.6.4.4 1 .6 1.2 1.2.4 1.8 3.5 5.5 5.3 5.8 2.8.4 5.7 2.4 8.7.3.4 1.7-.4 2.4-1.7 2.8-1.9.6-4 .5-5.9.6-2.5.2-4.9.7-6.7 2.1-1.4 1.1-2.9 2.6-3.5 4.6-.2.6-.2 1.3.2 1.7 1.6 1.3 3 2.9 4.9 3.9 1 .5 2.1 1.1 3 1.8.5.3 1.5.8.4 1.7-.3.2-.1.4.9.5.6.1 1.4-.1.7.9-.2.3 0 .4.2.4 1.3.1 1.8 1 2.4 2.1.7 1.2 1.9 2.3 2.9 3.2 2.2 1.9 3.9 4.3 5.9 6.4 1.8 1.9 3.3 4.2 4.9 6.4 1.5 2 3.2 3.9 4.9 5.8 1.2 1.2 1.9 3 3.6 3.7-.3 1.4.9 2.2 1.7 2.8 1.4 1.2 2.1 3 3.7 4 1.3.8 2.3.6 3.5.1 1.5-.7 3-1 4.6-.8 1.1.1 1.8.6 2 1.7.5 2.4 2.6 3.8 4 5.6.8 1 5.7.7 7.2-1.1 2.1-2.4 4.5-2.3 6.5.2.6.7 1.5 1.2 1.7 2.4-1.6-1.2-2.9-2.5-5-1.8-.8.3-1.4 1.1-2.4.9-.2 0-.8.2 0 .7 1.1.7 1.7 1.7 1.2 3.2-.7 2.2-.1 3.1 1.7 3.7 1 .3 3-.5 3.1-1.5.1-1.4 1.3-2.5 1.1-4.4 3.6 2.9 4 7.1 6.2 10.3-.9-.5-1.5-1.1-2.6-.5-.8.4-.9-.6-.7-1.1.8-1.8-.3-3.3-.8-4.8-.2-.6-.6-.9-1.2-.8-.5 0-.7.4-.8.9-.5 1.6-1.6 3-1.7 4.9-.1 2.2-.6 4.4-.9 6.6 0 .3.1.6 0 .9-.1.4-1.1.6-.5 1.2s1.4.8 2.3.6c1.1-.3 1.8-1.2 2.9-2 0 1.1-.5 1.7-1 2.2-.8.8-1.3 1.8-1 2.9.4 1.5 2.4 1.9 3.9.9.8-.6 1.5-1.2 2.3-1.8-.1 0-.1.2-.2.4-.2.6-1 1.2-.2 1.8.7.5 1.5.5 2.2.1s1.3-1.1.9-2c-.3-.6-.2-1.3-.3-1.9-.2-1.6-.8-1.9-2.4-1.2v-5.6c2.5 3.4 3.4 6.2 3.4 9.5 0 1.4-1.1 2.1-1.4 3.3-.7 2.4-1.1 4.8-2.6 7-1 1.4-4.3 3.1-6.7 2.9-.1.3.1.5.3.5 1.8.1 1.3 1 .5 1.7-.9.7-.9 1.2-.4 2.1.8 1.6.9 3.3.9 5 0 .4-.3.6-.5.9-1.8 2.6-4.4 4.3-6.9 6-.8.5-1.5 1-1.6 1.9-.3 1.7-1.5 2.9-2.2 4.3-.8 1.6-3 2-4.7 2.1-2.5.1-4.3 1.6-6.6 2-2.7.5-5.2 2.1-8.1 2.1-1 0-2.1.5-2.6 1.6-.3.7-1.1.6-1.6 1 1.4 1.2 1.1 3.1 1.6 4.6.5 1.4.8 2.9 1.2 4.3s.4 2.8-.2 4.2c-1 2.3-.3 4.5.2 6.9.5 2.6 1.5 5.3 1 8-.4 1.9-1.4 3.7-2.3 5.4-.6 1.1-1.3 2-.4 3.3.4.5.4 1.5.3 2.2l-1.9 7.8c0 .2-.2.3-.3.4-1.5.7-2.1 1.6-1.2 3.3.8 1.6 1.3 3.5 1.8 5.2.5 1.9 1.1 3.7 1.9 5.5.5 1.1-1 1-1 1.4 4.2 1.9 8.6.6 12.9 1.4 2.1.4 4.4-.2 6.6.3 3.6.8 7.3.1 11 .6 1.3.2 3 .2 4.1-1 .5-.6 1.2-1 1-2.1-.5-2.5 1.9-4.4 4.4-3.6.5.2 1 .4 1.5.4 2.3.1 3.2 1.2 2.8 3.4-.1.4 0 .9-.1 1.1-1 1.8-.2 2.6 1.3 3.6.8.5.9 2 .6 3.2-.5 1.9-1.4 2.9-3.6 2.6-3.1-.4-6.2-.1-9.3-.4-2.2-.2-4 1.3-6 2.1-1.9.8-3.5 2.1-5.6 2.3-1.5.1-3.6-1.2-3.9-2.6-.2-.8-.4-.9-1.1-.9-4.4-.3-8.9-.4-13.3-.2 1.3 2.5 1.4 5.1.1 7.5-1.4 2.4-.3 4.4.4 6.4.6 1.6.7 3.4 1.6 5 .4.9-.7.6-1.1 1.2 2.9.4 2.6 3 3.5 4.7.3.6 1.2 1.6.3 2.6.5.1-.2 1.1.7.9.6-.1.6.2.6.6-.3 1.9 2.2 3.2 1.1 5.3 1.9 1 1.3 3.2 2.2 4.7 1.9 3.3 2.5 7.1 3.6 10.6.7 2.4.8 5.1 1.9 7.3s1.4 4.7 2 7l3.4 13.7c.4 1.7.7 3.6 1.9 5 .4.5.7 1 .1 1.6-1.7-1.3-1.9-3.5-2.5-5.3-.3-1-.6-2-1.2-2.7-1-1.3-.9-2.9-1.4-4.2-1.3-3-.5-6.6-3-9.2-.5-.5-.8-1.2-.8-1.9 0-1.1-.2-2.1-.9-3-.4-.6-.6-1.4-.3-2.3.4-1.7-.3-3.4-1.1-4.8-1.4-2.3-2.6-4.4-3.1-7.2-.4-2.5-1.9-5-3.3-7.3-.6-1.1-.9-2.2-1.1-3.4-.4-2.2-1.7-3-3.5-1.7-1.3.9-3.1 1-3.8 2.8-.3.8-1 .6-1.1-.3-.1-1.1-.3-2.3 1.2-2.9.2-.1.6-.4.6-.6.2-2.3 2.3-3.8 2.7-6 .1-.3.3-.7.1-.8-1.2-1.2-.9-3-2-4.2-.6-.6-1.3-.7-1.6 0-.6 1.2-1.9 1.4-2.6 2.5-.2.3-.6.5-.9.3-.4-.2-.4-.5-.3-.9.2-1.6-.7-3-.5-4.7.1-.6-.8-1-1.5-.9s-.9.6-.8 1.3c.2 1 .4 2.1.7 2.8.9 1.7.9 3.2.4 5-.7 0-.6-.8-.9-1.2-.2-.3-.5-.5-.9-.4-.3.1-.5.3-.5.6-.1.6 1.5 4 2 4.1.4.1.9.1 1.3.2.1.6-.3.6-.6.8-1.2 1.1-1.3 2.4-.3 3.6.9 1 .5 2.5 1.4 3.5 1.2 1.3 2 2.7.5 4.3-.1.1-.1.3-.3.8-.3-1.4-1.5-2-1.6-3.3 0-.6-.7-1.2-1.2-1.7-.8-.7-1.7-.6-1.9.6-.2.9-.3 1.9-1.4 2.2-.4.1-.6.5-.4 1 .3.6.8.9 1.4.8 1.7-.4 2.5 0 2.3 2-.1.9 1.2 1.1 1.6 1.9.6 1.2 1.7 2.2.4 3.7-.6.7-.3 1.9 0 2.7.5 2 .6 2-1.5 2.2 2 1.9 3.1 4.3 4.5 6.5.7 1.2.6 2.6 1.4 3.8.4.6-.4 1-.9 1.2-.8.3-1 .6-1.3 1.5-.7 1.9-.8 4.2-2.1 5.7-.7.9-.2 1.2.2 1.4.5.3.8 1.5 1.8.5 1-.8 1-2 1.4-3 .5.3.4.6.3 1-.9 3 .2 5.5 1.6 8 .4.6.7 1.2 1.6 1.1h.3c1.5 2.3 4 1.9 6.2 2.4.3.1.8.2.8.6s-.4.5-.7.7c-1.9 1.9-3.5.2-5.2-.5-1.8-.7-3.4-1.4-5.1.4-.6.6-2 .5-3 .4-.4 0-.9-.2-1.2.1-.4.6-1.6.9-1.4 1.7.2.9 1.3 1.3 2.2 1.1 2.6-.4 5.1.6 7.6.9.7.1 1.5.4 2.1 1.2.7 1 2 .5 2.9.3.9-.1 1.7.1 2.6.1.4 0 1 .2.9.6-.2 1.1-.7 2.3-1.5 2.9-.8.5-2.2.7-2.9-.7-.5-1.2-1.6-1.1-2.5-1-1.6.2-2.9 0-4.2-1.1-3.1-2.6-6.7-2.4-9.2 0-.1.3.2.4.4.5 2.3 1.1 2.3 1.2.4 2.9-.5.5-.5.7.2 1 1 .5 3-.2 3.6-1.4.8-1.5 1.9-1.8 3.3-.7a2.79 2.79 0 0 0 1.7.5c1.7-.1 3.3.6 5 1 .3.1.9.4.8.8-.2.6-.8.5-1.4.4-2.5-.7-5-1.2-7.6-.9-.9.1-1.6.6-2 1.3-.2.5 0 1.6.5 1.7 1.2.3 2.4.9 3.8.7 2.4-.3 4.9-.7 7.2.4 1.1.5 2.1.7 3.3 0 1.4-.8 3.1-.9 4.5-1.9.6-.4 1.8-.7 2.5.4.2.3.9.2 1.3.2.3.1.7.1 1 .2-.4 1.7 1.5 1.1 2 1.9.5.9 1.1 2 .4 2.8-1.6 2-1.1 4.6-2.4 6.7 0 0 .4 1.1.5 1.7.1.5.5.9-.4 1.2-.4.1-.1.3.1.5.9.6 1.2 1.6.6 2.5-.6.7-.8 1.4-.5 2.3.1.2.1.4.1.5-1.6 1.8.3 4.4-1.7 6.2-.5.5.6.4.7.8.1.3.4.7.3 1-.2.4-.6.2-.9 0-1.4-.6-2-2.7-1-3.9.3-.4.5-.9.8-1.4.4-.7-.2-1.2-.6-1.1-1.1.3-2 .2-2.9 1.7-1.9 3.1-2.1 7.1-5.2 9.6-1.9 1.6-1.6 4.5-2 6.9-.1.4.3.4.7.4s.7-.2.6-.6c-.1-.8-.2-2.1.7-1.9.9.1.6 1.5.5 2.3-.5 3.9-1.5 4.7-5.6 4.8-1.2 0-2.3.5-3.3 1-.5.3-1.2.4-1.5-.1-.3-.6.2-1.1.7-1.4 1.8-1.1 2.7-3 4.4-4.2.9-.6.7-2.1.5-3.3-.1-.4-.7-.6-1.2-.4-.6.3-1.3.6-1.8 1-1 .8-2.2 1.5-3.5 1.3-1.8-.3-2.6 1.1-3.6 2.1-.8.8-1.5 1.1-2.6.9-2.6-.6-5.7 1.3-6.7 4.3-.3.9 0 1.1.4 1.6.5.5 1.1 1 1.8.6 1.6-.9 3.3-1.4 5.2-1.4.5 0 1.1-.1 1.2-1 .1-.8.9-1.2 1.6-.7.4.3 1.6.7.4 1.7-.4.4-.4 1.3-.7 1.9-.7 1.2-1.5 1.8-2.8 2-2.4.4-3.1 3.6-1.9 5.3.5.7 1.1 1.3 1.7-.1.3-.7.5-1.5 1.6-.5.5.4 1.8.4 2.6 1.2.5.4 1.1-.4 1.3-1 .5-1.4 3.6-2.8 4.9-2.3.9.4.4 1.1.3 1.7s-.6 1.2.4 1.4c.7.1.8-.6.9-1.1.2-1.4.8-2.4 1.8-3.3.2-.2.5-.5.5-.7-.1-1.6 1-1.5 2.1-1.6 1.3-.1 1.7.5 1.8 1.7.1.8.5 1.7.6 2.6.1 1.9-1.5 2.5-2.5 3.5-1.9 1.8-3.9 3.4-6.4 4.3-.4.1-.6.4-.4.8.2.5.4 1.2 1.1 1.2.6 0 1.5.4 1.7-.5.4-1.9 1.5-2.3 3.2-1.5v.3c-.4.5-.9 1-.6 1.7.1.3.5.2.8.2.8-.2 1.9-.2 2-1 .3-2.5 2.5-2.2 3.9-2.8.8-.4 1.6-.3 1.7-1.5.2-1.3 1.6-1.2 2.5-1.8.2-.1.6.3.5.7a3.79 3.79 0 0 1-.6 1.3c-.4.6-1.2.8-.9 1.7.4 1.1 1.2 2 2.1 2.7.9.8 2.6-.4 3.4-1.9 1.2-2.2 2.3-4.4 2-7-.1-1.5-1.7-2.5-2.9-1.6-.8.5-1.4.6-2.1.1-1.4-.8-2.9-.1-4.4-.3.3-1.2-.2-2.7 1.6-3.2.2-.1.3-.3.4-.6.8-3.1 2.9-5.1 5.5-6.5 1.7-.9 2.3-2.6 3.7-4.2-.5 2.6-1.2 4.9-1 7.2.3 3.2-.5 6.5.1 9.7.3 1.4-.4 2.7-.6 4-.4 2.6-.4 5.1-.2 7.7.1 1.7-1.3-.2-1.6.8 2.9 1.3.1 2.8-.4 3.1-3.1 1.8-3 4.8-3.3 7.7-.1 1.1-.5 1.4-1.6 1.4 1.3.2 1.9.8 1.3 2.1s.3 2.7.1 4.1c-.3 2.4-.5 4.9-.3 7.3.2 1.6.5 3.3.4 4.8-.1 3.8-.8 7.6-1 11.4-.1 1.8-.2 3.7.2 5.5.5 2.1-.4 3.9-2 4.6 0 .5 1.5-.1.9 1.1-.3.7 1.7.8.9 2 1.9 2 2.6 4.8 4.8 6.5 1.6 1.2 3.5 2.3 5.2 3.4.2.2.7.3.7.5.2 2.4 2.5 1.6 3.6 2.5 1.3 1.1 2.7 1.6 4.4 2 3.5.8 7.1 1.1 10.7 1.4 3.8.3 6.6 2.5 9.2 4.9.8.7 1.2 2.5.6 4.1-.3.7-.7 1.6.3 2.4.7.5-.4 3.1-1.6 3.6-2.8 1.1-5.5 2.3-8.5 2.3-2.6 0-4.9 1.3-7.4 1.9-3.5.8-6.9 1.4-10.5 1.6-3.7.2-7.3-.4-10.9-.6-2.3-.2-4.4-1.3-6.7-1.7-2.2-.4-4.4-.1-6.6-.4-.9-.1-2 .6-2.2 1.9-.2 1.2-.8 1.5-2 1.7-6.2.9-12.1-.5-18-1.7-1.3-.3-2.6 0-3.8-.5-1.4-.6-2.3-1.2-2.4-2.9 0-1.8-.9-3.8 1.7-4.6-.8-.6-1.2-.1-1.6 0-.6.2-.8-.1-.8-.6.2-4.5-.1-9-.5-13.6-.1-1.3.7-2.4 1.4-3.3.4-.5.5-.8.4-1.4-.4-2.6 1.4-4.8 1.6-7.2.2-2 .7-4.1.2-6.2-.4-1.6-.1-3.3.1-5 .1-1.1.2-2.2 0-3.2-.3-1.1.5-2.3-.5-3.4-.3-.4-.3-2.2 1.6-1.7-.3-.8-1.7-.9-1.2-2 .5-1 1.1.7 1.6-.1-.1-.7-.7-.4-1.1-.5-.5-.1-.9-.4-.8-.9.3-2.4-.8-4.6-.7-7.1.1-2.6.3-5.3 0-7.8-.3-3.7-.2-7.6-2.3-11-.3-.5-.7-.9-1.3-1.1-1.9-.9-3.2-2.3-3.5-4.5-.1-.6-.7-1.4.5-1.7.1 0 .2-.3.2-.4-.8-3.3-.2-6.6-.7-9.9s-.5-6.7-.8-10c-.2-1.9-.5-3.9 0-5.8.5-1.6-.9-3.4.4-4.9-1.3-1 0-2.3-.5-3.4-.5-1.2-.3-2.5-.3-3.8 0-1.2-1.1-2-1.5-3.1-1-2.9-.2-5.6.9-8.2.7-1.6.8-2.9-.6-4-2.9-2.5-2.8-6-.2-8.7.5-.6.4-2.6-.2-3-1.5-.9-2.7-1.9-3.2-3.8-.4-1.5-1.8-2.3-2.6-3.6-.9-1.6-1.5-3.4-2.5-5-.3-.5-.5-1.2-1-1.6-.2-.2-.6-.5-.1-.9.8-.7.8-.7-.1-1.3-1-.7-1.8-1.2-1.8-2.8-.1-2.1-1.5-3.9-3.3-5.2-.7-.5-1.3-.2-1.6.5-1 2.2-2.8 4-2.8 6.6 0 .2-.1.4-.2.5-1.6 1.1-1.1 3-1.8 4.5-1.5 3.2-1.7 6.6-1.9 10-.1 1.5-1.2 2.8-1.6 4-.4 1.5-1 2.9-1.6 4.3-.8 2.1-1.5 4.3-3.2 5.8-.5.4-.8.9-.9 1.4-.2 1.9-1.2 3.6-1.7 5.4-.5 1.7-1.3 3.4-2 5.1-1 2.2-2.8 3.9-3.9 6-1 2-3.2 3-3.7 5.2-.1.2-.4.4-.7.5-2.5 1.8-3.4 4.4-3.7 7.2-.4 3.2-2.1 5.8-3.8 8.4-.5.7-1.6 1.4-2.4 1.6-2.5.7-2.7 3-3.8 4.7-1 1.6-2.1 3.3-3 5-1.3 2.3-3.2 3-5.1 4.2-1.7 1-3.4 1.4-5.1 2-3.1 1.2-3.8 4.4-5.5 6.8-2.2 3.2-3.8 6.7-6.1 9.9-.5.7-.8 1.6-1.8 1.9-.1 0-.3.1-.3.1.4 2.8-1.7 4.7-2.3 7.2-.1.5-.5.9-.9 1-.7.2-.9.4-.3 1 .2.2.1.5-.2.8-2.2 2.1-2.6 5.2-4.2 7.6-1.5 2.2-1.7 5.4-4.9 6.3-1 .3-.8 1.3-.5 1.9.4.9.6 1.9.6 2.9.1 1 .3 2-1.3 2.5 1.5-.3 2.1.7 2.4 1.4.8 2 2.1 3.6 3.3 5.3 1 1.5-.9 1.2-.9 2 2.6-.7 1.5 2 2.7 2.8 1.1.7.7 2.2 1.3 3.2 1.4 2.7 3.9 4.1 6.3 5.6 3 1.8 6.3 3 8.7 6 1.7 2 3.4 3.9 3.7 6.5.1 1.3.4 2.8-.2 4.2-.5 1-.4 2.1-.6 3.2-.5 1.9-1.7 2.3-3.1 2.3-3.8.2-7.7.4-11.5.1-1.5-.1-3.1-.4-4.6.3-1 .4-1.5-.4-2.2-.7-2.1-.7-4.4-.5-6.4-1.5-1.7-.8-3.4-1.7-4.7-3.1-.3-.3-.6-.7-.9-.8-3.6-.7-5.5-3.7-8-5.8-2-1.7-4.3-3.2-5.9-5.3-1.5-1.9-3.9-2.7-5.6-4.4-.9-.8-2.3-.2-3.4-.3-2.7-.2-5-.7-7.3-2.7-2.2-2-4.5-3.9-6.4-6.2-1.5-1.7-3.2-3.3-3.7-5.7-.2-.7-.3-1.3 0-1.9 1.2-2.1 1.8-4.4 2.6-6.7.5-1.4 1.6-2.7 2.2-4 1.1-2.5 3.2-4.2 4.5-6.5.7-1.3 2-2.2 3.4-2.8 1.1-.4 1.6-1 1.9-2.5.3-1.8.7-4 2.2-5.4.5-.5.6-1.1.8-1.7 1.4-4.9 3-9.8 4.8-14.6.7-1.7 1.3-3.6 1.8-5.5s1.4-3.8 2.3-5.6c.8-1.6 1-3.5 2-4.9 1-1.5 1.5-3.3 3.2-4.4.9-.6.6-2.1 1.3-3.1 1-1.3 1.5-3 2.4-4.3.6-.9.6-2 .6-2.9 0-.7.3-1.5-.6-2.5-1.4-1.6-1.5-4.2-1.2-6.6.3-2 1-3.5 2.7-4.5.1-.1.2-.2.2-.3 1.2-3.6 4.5-6.3 4.4-10.4-.1-3 1.9-5.1 3.4-7.4.1-.2.5-.2.5-.4.3-2.2.9-3.9 2.2-5.6.2-.2.3-.5.4-.8.6-3 2.5-5.3 4.7-7.2.7-.6 1.3-1.2 1.5-2.1.4-1.8 2.2-2.9 2.6-4.7.1-.6.4-1.2.3-1.9-.5-2.5.6-4.7 1.6-6.8.8-1.7.3-3-1.5-3.6-2.6-.9-4.4-2.8-6.2-4.6-3-3.1-6.1-6-7.7-10.2-.3-.9-1.3-1.5-1.9-2.3-.5-.7-1.3-1.5.4-2.1-1.5 0-1.9-.8-2.4-1.7l-4.8-9.7c-1.1-2.3-2.6-4.5-3.1-6.8-.9-3.5-3-6.5-3.7-10-.4-1.9-1.7-2.8-3.6-3.2-4.3-1-7.4-5.1-7-8.9.1-1.1.5-2.2 1.1-3.1 1-1.4 2-3 3.3-4 2.6-2.1 2.7-4.7 2.4-7.5s-.7-5.6-.9-8.4c-.2-2.2.1-4.5-.3-6.7-.2-.8.6-1.1 1.5-1.4-.8-.4-1.6-.9-1.6-1.9 0-1.2-1.7-1.8-1.2-3.2.3-1.1.6-1.6 1.8-1.1 1.3.6 2.4.4 3.5-.7s3-1 3.8-2.6c.4-.6 1-1 1.2-1.9.2-1.1 1.7-1.5 2.7-2 1.3-.5 1.8-1.1.4-2.2-2-1.6-3.7-3.6-4.8-6-.6-1.3-1.8-2.5-1.8-4-.1-2.1-1-4.2-.5-6.2.4-1.6.7-3.6 2.7-4.6.5-.3 1.5-1.5 1.5-2.6 0-.5.2-1.1.7-1.4 1.5-1 1.9-2.7 2.8-4.1.4-.7.7-1.3 1.5-1.7.2-.1.5-.3.5-.4-.1-2.6 2.6-3.5 3.4-5.6.7-2 2.8-3 4.1-4.7 1.2-1.4.9-2.4.1-3.4-1.4-1.6-2.7-3.5-4.2-4.9-1.3-1.2-1.4-2.6-1.6-4-.4-2.6-1.5-4.9-2.9-7.2-.6-.9-.8-2.1-1.3-3.1-1-2.4.4-4.8-.5-7s-.2-4.3-.3-6.4c0-.3 0-.7.1-.8.7-.6 1.6-.7.3-1.9-.6-.5 1.2-.2 1.4-1.1-2.9-.6-1.2-3.1-1.6-4.7-.6-2.1.4-4.5-.1-6.7-.4-1.7.6-3.1.6-4.8 0-2.6.6-5.3.4-7.9-.3-3.2-.7-6.4-.6-9.6.1-1.9.9-3.5 1.3-5.3.3-1.4 1-2.6 1.2-4 .2-1.9.7-3.8 1.6-5.6l2.4-4.2c.7-1.2 1.5-.5 2.1 0l1.2 1.5c.3.4.7.4 1.1.3.2-.1.4-.3.4-.4.1-.6-.4-.6-.8-.8-.6-.3-1.2-.8-1.9-.6zm62.8 115.7c-.9 0-1.9-.1-2.1 1.2-.1.9-.7 1.3-1.7 1-.2 0-.5.1-.6.2-.2.2-.1.5.2.6 1.2.5 1.8 1.8 2.9 2.4.8.4 1.6 1.1 2.3 0 .5-1 1.3-2.1-.3-2.9-1-.6-1.3-1.4-.7-2.5.6-.4.8.3 1.2.5.6.3 1.4.3 1.4-.6 0-1.2-1.3-1.2-2-1.6-.5-.3-1.2-.5-1.5.2-.3.9.8.9.9 1.5zm-71.1 254.3c1 1.1 2.4 1.2 3.7.8.9-.2 1.7-.3 2.6.1 1.4.5 2.7.4 4.3-.2-1.2-.4-1.1-2-2.2-2.2-3-.3-5.8-.1-8.4 1.5.1-.4-.1-.7-.5-1.1-2.2-2.2-2.2-2.6-.4-5.1.2-.3.4-.5.2-.8-.6-.9-1.5-1.3-2.6-1-1.1.2-2.5.7-2.3 1.8.3 1.6-.5 3.5 1.5 4.8 1.3.8 2.3 2.1 4.1 1.4zm140.1-100.9c.5.4 1.1.3 1.7.3.4 0 .9-.2 1.1.3.2.4-.1 1-.3 1.1-1.5.6-2.2 2-3.4 2.9-1.3.9-2.2 2-2.9 3.4-.1.2 0 .8-.4.6-1.4-.6-1.5.9-2.2 1.3-1.5.9-1.6 3.1-3.6 3.6-.8.2-.8 1.3-.7 2.2 0 .4.3.9.6 1 .8 0 .8-.9 1.2-1.3.1-.1.2-.1.4-.1.1.5.1 1 .3 1.5.2.6 1 .8 1.2.3.5-1 .8-2.2.7-3.1-.1-1 .1-.9.7-.9s1.2-.1 1.7-.1c.8 0 2.1-.6 2.1-.7-.3-1.8 1-1.5 1.9-1.6s1.5-.2 1.7-1.3.9-2 2.3-2.3c1.2-.3 2.4-1 2.5-2.4.2-1.5 1.1-2.4 2.2-3.2 1.2-.8 1.2-2.5 1-3.4-.2-.8-1.6.4-2.5.3 0 0-.1.1-.2.1-.8.3-1.5.6-1-.8.4-1-.4-1.7-1.1-1.4-1.9.7-4.4 1-5 3.7-.8.3-.8.3-1-.6-.2-.7-.4-.9-.7-.1-.2.4-.4.7-.9.4-.3-.2-.8-.6-.6-.8.9-.8.3-1.2 0-2-.6-1.3.1-3.4 1.3-3.9 1-.4 1.2-1.3 1.1-2-.1-.8-1-.9-1.9-1-1.9-.2-3.9.8-5.7-.9-.5-.5-1.2.2-1.5.8s.3.9.7 1c1.4.4 2.6 1.3 4 1.7.6.2 1.3.2 1.4.8 0 .6-.3 1.3-.9 1.8l-3.7 2.4c-1 .7-1.3 1.3-.5 2.5s2.5 1.3 3 3c.3 1.3.8 2.5.9 4.3 1.5-2.8 2.2-5.6 5.1-6.6.4-.2 0-.6-.1-.8zm-43.7-88.1h0v-.7c.7-1.8 1-3.7 1.3-5.5.2-1.5.1-3.1 2.4-3.1.6 0 .4-.7 0-1-1.8-1-3.8-1.1-5.8-.9-.9.1-1.7 1-1.5 1.7.3 1.2-.3 2-.6 2.9-.3 1.3-.7 2.5-1 3.8-.5 2.3-.9 4.4-2.2 7.1 0 0 .1.1.1.2.4 1.5-.1 3.2-.6 4.4-.8 2.2-1.1 4.5-1.6 6.7-.8 3.1-1.1 6.1-3.1 8.7-.2.3-.3.5 0 .7 1.1.9 1 2.3.6 3.2-.5 1.4-.6 2.9-1.1 4.3-.7 1.7.2 2.8 2 2.8 1.5 0 3-.4 4.6 0 .6.1 1.3-.2 1.8-1.2.5-1.3.6-2.5.9-3.8.6-3 1.6-5.8 2.1-8.8.5-3.2 1.5-6.2 2.3-9.3.6-2.1.9-4.3 1.5-6.5.4-1.3-.1-2.8 2.3-2.3-1.6-1.1-1.4-1.1-.9-4.3.3-1.7 1.5-.5 2.1-1.1-1.7-.8-1.9-1.5-1.1-3.7.3-.8 1-1.9.5-2.3-.9-.8-1.6.5-2.4.9 1.1.6 1.1.6.5 1.5-.2.3-.6.7-.5.9.6 1.6-.6 2.7-1.1 3.9-.2 1-.8 1-1.5.8zM388.4 308c-1.3.4-2.5-.4-2.2-1 .7-1.5-.3-3.1.8-4.5.9-1.1-.3-2.7.6-3.9-1.8-.8-.5-1.8-.2-2.7.7-2.2 1.5-4.4-.4-6.5-.2-.3.1-.5.1-.8.3-1.9.8-3.8.9-5.7 0-2.1-.1-4.2-.4-6.4-.4-2.6.3-5.3.2-7.9-.2-3.4-.5-6.8-1.2-10-.4-1.9-.5-4.1-2.3-5.5-.3-.2-.2-.5-.2-.8-.3-4.7-.5-5.4-3.4-8.7-.8-.9-1.8-1.5-3-1.6-1.2 0-2.3.6-3.2 1.2-.6.4 0 1.7.3 2.6-.9.4-1.7.1-2.3-.4-3.1-2.3-7-2.1-10.4-3.2-1.5-.4-2.1-1.4-2.8-2.3-.7-1 .9-.9 1.1-1.6 0-.2.3-.3.4-.6.2-.5.9-.9.4-1.6-.4-.5-.9-.6-1.7-.7-2.3-.2-4.5.1-6.8.3-2.4.3-3.9 1.9-5.6 3.2-.3.2-.6.7-.3 1.1.3.5.8.3 1.2.1 1.7-.7 3.6-1.1 5.4-1.1.8 0 1.7-1.3 2.1-.3.3.8-1.3 1-2.1 1.4-.1.1-.2 0-.3.1-.8.1-.8.7-.7 1.3.2.9.9 1 1.6 1 1.9 0 3.7.1 5.6.2.4 0 1.3 0 1.2.7-.1.6-.8.4-1.2.4-.8-.1-1.6 0-2.4.1-2.1.3-3.6 2.1-5.6 2.4-2.6.5-4.8 1.5-6.4 3.8-.3.5-.8.4-1.3.5-.8.2-1.6.4-2.1 1.1-1.4 1.7-.6 4.4-2.6 5.7a4.71 4.71 0 0 0 .2.5c.5.6.1 1.2-.1 1.7-1.4 3-3.3 5.8-5.9 7.9-1.7 1.4-2.7 3.3-4.2 4.6-1 .9-1 2.3-2 3.2-.8.7-1.6 1.3-1.3 2.5.1.5-.2.8-.6 1-.6.4-.6.9-.2 1.3.5.5.9-.1 1.1-.4.9-.8 2.2-1.1 2.5-2.7.2-1.2 1.9-1.3 2.5-2.3 1.2-2 3.2-3.5 4-5.8.2-.6.7-1 1.3-1.4 1.4-1 2.2-2.7 3.5-3.8 1.2-1.1 1.5-2.8 2.8-3.8.4-.3 1-1 1.5-.4.4.5-.1 1-.6 1.3-.3.2-.2.7-.3.9-.6.9-.4 2.6-2.1 2.6-.5 0-.5.4-.4.8 1.1 2.5-.7 4.3-2 5.7-1.5 1.6-2.1 4.3-4.8 4.8-.1 0-.2.4-.3.6-.8.8-1.8 2.2-2.6 2.1-1.4-.1-1.7.6-2.2 1.4-.4.6-.7 1.4-1.6 1.4-.3 0-.6.1-.5.5.1.3.3.5.7.4 1.3-.2 1.9 1.1 2.3 1.8.3.5-.9 1.1-1.7 1.5-.4.2-.6.7-1 .9-1.1.7-1.7 2.1-3 2.6-1.8.7-3 2.3-4.4 3.6-3 2.9-3.3 7.4-5.7 10.7-.9 1.3-1.2 3.2-1.8 4.8-.5 1.5-.7 2.7-.3 4.1.4 1.3.3 2.7-.3 4-.3.6-.6 1.2-.7 2-.1 1.6.6 2.2 2.1 1.7.8-.2 1.6-.5 2.3-.7s1.5 0 1.8.7-.5.9-.9 1.2a9.13 9.13 0 0 1-1.3.8c-1.1.8-2.3 1.5-3.4 2.4-.9.7.9 1.2.6 1.9-.8 1.8.4 2.3 1.6 3 .3.2.8.5.9.8.9 3.5 4.4 3.4 6.7 4.8 1.6 1 3.3.6 5.1.5 2.4-.1 4.8.1 7.1.2 1.5 0 3 0 4.3 1.1.9.8.9.8 1.2-.3 0-.1.2-.3.3-.3.6-.1 1.4-.5 1.8.1.6.7-.3 1-.6 1.4-.3.6-1 .8-1.6 1-2.1.7-4.3 1-6.5 1.1-1.7.1-3.4.4-4.8 1.8-.7.8-2 1.5-3 .3-2.6-3.2-6.6-2.7-9.5-1.4-.4.2-.6.5-.4.9.7 1.8 1.1 3.7 3.3 4.4 1.5.5 3 .8 4.4 1.6 2.7 1.6 5-.7 7.5-.9.6-1.7 2.4-1.4 3.6-1.9.5-.2 1.4-.6 1.6.3.2.7-.3 1.3-1.3 1.5-1.5.3-2.8.8-3.8 2.3-1.1 1.8-2.7 3.4-5.1 3.7-.4 0-.6.3-.4.8.3.5.4 1.1.3 1.7-.1.8 1 .9 1 .8 1.1-1 2.5-.4 3.7-.6.5-.1.9-.3.9-.9 0-.5-.2-1.2.6-1.2.8.1.3.9.5 1.3.2.5.3 1 .9 1.2 1.5.4 4.3-1.4 4.5-3 .1-.9.5-1.6 1.3-1.9.7-.3 1.1-.5 1-1.4-.1-.8.6-1.1 1.4-.9 1 .2.3.9.2 1.3-.9 2.7-2 5.2-4.7 6.7-1.1.6-2 1.7-2.9 2.7-1.5 1.7-1.4 2.2.2 3.7 1.5 1.4 4.8 1.2 5.6-.2 1.4-2.6 3-3.2 5.8-2.2.5.2.9.2 1.4 0 .3-.1.6-.2.8.1s0 .5-.1.8c-.6 1.1-1.8 1.1-2.9 1.4-1 .3-2.3.5-2.5 1.6-.4 2.1-1.3 4-1.9 6.1-.2.8-.1 2.1.9 2.8.9.6 1.6 0 2.4-.3 1.2-.6 2-1.5 3.1-2.3.3-.2.5-.5.9-.3s.5.6.4.9c-.6 1.9.9 2.2 2.1 2.7.5.2 1.1.2 1.7.3.5.1.9.2.9.8 0 .5.2 1.1-.4 1.4-1.5.7-2 2.5-3.5 3.1-.4.2-.4 3.1-.1 3.2.9.4 3-.9 3.1-1.9 0-.5-.1-.9-.1-1.4s-.2-1.1.5-1.1c.7-.1.6.5.7 1l.3 2.7c.8-.1.9-.5.9-.9.1-1.5.6-2.2 2.2-1.7.8.3 1.6-.1 2.4-.3 3.7-1.1 7.1-3.5 11.3-3.3 1.3.1 1.5-.8.9-1.9-.5-.9-1.1-1.7-1.4-2.6-1-3.2-2.3-6.3-5.2-8.3-.3-.2-.6-.5-.7-.8-.8-2-1.9-3.8-3.3-5.5-.6-.7-1.4-1.7.5-2.3-1.4-.2-2-.5-2.5-1.7-.4-1.2-.4-2.6-1.4-3.6-.7-.6-1-1.7-2-1.8-1.3-.1-2.1-.9-2.7-1.7-.5-.7-.8-.7-1.4-.2-.9.7-1.5.4-2.1-.5-.9-1.4.2-2.4.2-3.7 0-.4-.2-.9.4-1 .5-.1 1.1 0 1.5.4.3.3.5.7.7 1 .5.6 1.2.5 1.8.3.7-.3.3-.9.2-1.4-.4-2.1-2.6-4-4.8-4.1-.6 0-.9 0-.9-.8 0-1.7-1-2.3-2.6-1.7-.3.1-.6.3-.7-.1-.4-1.9-1.7-1.2-2.8-.9-1.4.4-2.7-.1-4.2-.2 1-.5 1.4-1.1 1.2-2.1-.2-1.2.3-2 1.6-2.3 1.4-.4 2.7-1.1 4.1-1.7-1.1-1.2-1.4-2.9-3-3.6-.6-.3-.5-1-.1-1.6.4-.7.2-1.3-.5-1.7-2-1.2-3.9-1.5-6.1-.2-2 1.2-4.2 1.7-6.4 2.2-1.3.3-2.6-.2-3.1-1.4-.4-.9 0-2.2.7-3 2.3-2.3 4.9-3.9 8.2-4.7 2.1-.5 4.4-.8 6.6-1.7-.9-.6-1.8-.4-2.6-.5-2.4-.1-4.9.3-7.3-.5-.6-.2-1-.5-1.1-1-.2-.7.6-.6.9-.8.5-.3 1.2-.5 1.4-1 1-2.1 3-2 4.8-2.5 1.9-.5 2.7.1 4 2.2.1.1.3.2.5.2 1.7.1 3.1.9 4.6 1.4.8.2 1.5.6 1.9 1.5.5.9 1.8.6 2.8.3s.8-1 .6-1.7c-.5-1.3-1.1-2.4-3-2-1.8.4-1.8-1.5-2.6-2.4-.3-.4-.4-.8.1-1.1.9-.6 1.7-.1 2.6.2 1.7.6 2.9 1.9 5 2 1 0 2.9 1 2.1 3.1-.2.5 0 1.2.8 1 1.5-.4 3.2-.8 3.9-2.4.9-1.9 1.6-3.8 3-5.6 1.6-2 2.9-4.3 4.4-6.4.4-.6 1-1 1.3-1.9.4-1.6.1-3.2.5-4.7.2-.7 1.8-3.4 2.3-3.9 1.2-1.3 3.2-2 3.1-4.3 0-.5 0-1.1.3-1.6 1.4-2.8 3-5.5 3.2-8.7.1-.8.3-1.3 1.2-1.4.5-.1 1.2-.2 1.2-1 0-1.2-1.1-1.4-1.8-1.9-.5-.4-.9-.1-1.4.3-.7.6-.6 1.3-.9 2-.3.6-.8 1-1 1.8-.5 1.6-.9 3.6-1.8 4.8-2.5 3.4-3.8 7.4-6.2 10.8-1 1.4-2.5 2.7-2.1 4.9.1.5-.5.8-1 .8-2 0-2.3 1.6-1.8 2.8.6 1.3-.1 1.8-.8 2.3-1.1.8-1.7 1.9-2.4 2.9-.6.9-1.9 1-2.4 2.2-.5 1.3-1.7 1.3-2.8.5-1.4-1-2.7-2.3-4.6-2.7-.7-.2-1.7-.2-2.1-.7-2.4-2.8-5.1-1.7-7.9-1-1.9.5-3.8.7-5.7.6-1.4-.1-1.6-.9-1.3-2 .3-1.2.8-2.2 2.1-2.8.9-.4 1.8-1 2.4-2 1.1-2 2.3-3.5 4.7-4.3 1.3-.4 2.7-.1 3.8-.8.3-.2.7-.5 1.1-.1s0 .8-.1 1.1c-.5 1.4-1.6 2.6-1.8 4.1-.1.6-.3 1 .3 1.4.5.3 1.5.3 1.6 0 .7-1.6 2-1 3.1-1.1.4 0 .9-.7.7-1s0-.6.2-.8c.3-.5.4-1-.2-1.3-.3-.2-.4-.5-.1-.7.9-.4 1.8-.8 2.8-1 .6-.1.6.3.4.8-.4.9-.2 1.7.2 2.6.3.7.6 1.2 1.3 1.2.9 0 .8-.8.8-1.5.1-1.1.5-1.7 1.7-1.1.9.5 1.9.8 2.5-.1.7-1.1.9-2.6-.2-3.4-2-1.5 0-1.7.5-2.4.3-.4.9.1 1.2-.4-.7-.9-.7-.9 0-1.5 2.7-2 4.5-4.5 4.1-8.1-.1-1.5 1.1-2.2 2.4-1.5 1 .5 3.3-.2 3.4-1.3.2-1.5 1.4-2.1 2.1-3 1.1-1.5 2.1-3.1 1.8-5.2-.3-2.5-1.1-4.7-3-6.5-.5-.4-.5-1 0-1.4s.9.1 1.2.4c.2.2.3.6.5.9.8 1.4 1.5 2.8 2.8 3.9.3.3.6.5 1.1.3.4-.2.3-.5.4-.9.2-1.5-.3-2.7-1.1-3.9-.3-.4-.4-.8-.5-1.3-.1-.3 0-.6.3-.7.4-.1.6.1.6.4.1 1 .8 1.1 1.5 1.1 1.5 0 2.4 1.2 2.6 2.2.5 2.5.6 5.1.5 7.6-.1 2.2-.7 4.3.7 6.3.5.7.4 1.6.2 2.5-.8-.7 0-1.7-.8-2.2-.5-.4-1.1-.3-1.7-.2-.9.3-1 1.1-1 1.8 0 2.3.6 4.7-.1 7-.2.6-.5 1.4-.1 2.1.8 1.3-.6 1.9-.8 2.8-.1.7.9 1.8.1 2.6-.9.9-.4 1.7-.2 2.6.2 1 .9 1.3 1.9 1.2 1-.2.8-.9.7-1.7-.1-.6-.1-1.3.2-1.9.1-.2.4-.2.6 0 .4.6.6 1.2.4 2-.1.2-.2.5-.2.7.3 2-1.7 3.5-1.1 5.6.1.2 0 .6-.2.6-1.5.5-.7 1.4-.3 2.2.7 1.2.9 2.2 0 3.4-.3.4-.4 1-.1 1.5s.1.8 0 1.4c-.6 2.1-2.9 3.2-3 5.3-.1 1.6-1.9 3.2 0 4.8.4.3 0 .6-.2.9-.6.9-1.2 1.9-2 2.6-.6.5-1 1.5-.5 2 .5.6 1-.3 1.5-.6 1.8-1.2 3-3.2 5.4-3.6.8-.2 1.8-.1 2.8-.5-.5-.2-1.1-.2-1.1-.4-.2-.5.4-.7.7-.8 1.1-.6 2-1.8 2.2-2.5.3-1.8 1-2.5 2.7-2.7zm-50.1 158c-1.7.1-1.8-.6-1-1.5.7-.8.5-1.9.2-2.4-.6-.8-.2-1.5-.3-2.3-.3-2.6 1.2-5.2-.1-7.8-.6-1.2-1.1-2.9-1.8-3.5-2.4-1.9-5.1-3.5-8-4.1-3.9-.7-5-3.4-6.1-6.4-.4-1-.7-1.9-1.8-2.2-1.2-.3-1.9.6-2.4 1.4-2 2.7-4 5.4-7 7.1-.6.3-.6 1-.8 1.5-.8 3-1.7 5.9-4.9 7.3-1.1.5-1.3 1.2-.8 2.4.9 2.2 1.6 4.6 2.5 7.3-1.3-1-1.8-.4-2.1.5.6.3 1.1-.1 1.6-.2s.9 0 .9.5c0 1.1 1.1 1.8 1.1 2.8 0 1.4 2.2 2.1 1 3.8 2 1.1 2.3 3.2 3 5.1 1 2.8 3.3 4.9 3.9 7.9.1.4.5.6.7.9 1.4 1.8 3 3.6 4.1 5.6 1.2 2.3 2.9 4.1 4.5 6 .9 1 2.1 1.7 3.2 2.6.9.8 1.8.6 2.7.2 1.1-.4 1.4-1.5 2.3-2.1 1.5-1 2-2.2 1.8-4.1-.3-2.2 0-4.5 1.3-6.5.1-.2.3-.4.2-.6-.5-1.9.4-3.7.4-5.6 0-.9.7-1.3 1.2-1.9.7-.8-1.1-.7-1-1.9.2-2.2-.4-4.4-.3-6.6 0-.9 0-2.5 1.8-3.2zm17 67.9c-2-.6-4.4-2.1-5.7-3.4-.3-.3-.6-.7-.6-1.2 0-1.5-.8-1.8-2.2-1.6-1 .2-1.9.2-2.5 1.2-.3.5-.9.7-1.4.3-.5-.5 0-.8.3-1.1.5-.4.5-.8.2-1.2-.3-.5-.8-.5-1.2-.2-.9.5-1.9.8-2.1 1.9-.2.9-.8 1.3-1.7 1.1-.6-.1-1.2 0-1.7.3-1.1.6-1.9.2-2.1-.9-.2-.9-.7-1.3-1.5-1.5l-2.9-.9c-2.3-.8-4.1 0-5.9 1.4-.9.7-.8 1.6-1.4 2.4-1.3 1.5-2.9 2.8-3.4 4.8-.5 1.9-.8 3.8 0 5.7 1.1 2.7 2.6 5 5.4 6.2.5.2 1 .3.9.9-.2.6-.9.6-1.2.3-1.4-1.4-3.5-.7-5.1-1.7-.5-.3-.9-.1-1.3.3-.3.4.2.6.4.9l2.4 3.3c.4.5.9 1 1.5.8 1.3-.6 2.4.3 3.6.2 1.7 0 2.1 1.1 1.8 2.2-.6 1.9.7 1.5 1.4 1.3 1.6-.3 1.8.4 1.8 1.7 0 .5-.3.9-.6 1.3-.3.3-.9.5-.3 1.1.5.5.9.7 1.5.2.3-.3.5-.7 1-.7.2 0 .4.1.6.3l-.1.4c-1.4 0-1.4 1.5-2.2 2.2-1.6 1.2-5.3.8-7.1-.8-1.1-1-2.1-2-3.8-1.1a.78.78 0 0 1-1-.2c-.5-.8-1.3-1.3-2-1.8-.2-.2-.6-.5-.4-.7 1.2-1 0-.6-.4-.8-.3-.1-.5-.3-.7-.5-.7-.9-1.6-1-2.5-.6-.5.2-1 .5-.8 1.3.2 1 0 2.1 1.5 2.4 1.2.3 2.9 3.2 2.9 4.4 0 1.3.4 2.3 2 2.7 1.8.5 3.4 1.7 5.4.9.1 0 .3.1.5.2 2.5 1.4 5.1 1.5 7.9 1 .9-.2 1.9-.2 2.8-.3.5-.1 1 .1 1.1.6.6 2.4 2.2 3.2 4.6 2.9.9-.1 1.8-.1 1.7 1.3 0 .7.5.9 1.2.5 1.2-.5 2.1-1.7 3.1-2 1.5-.5 2.1-1.5 2.7-2.6.9-1.7.7-1.7-1.2-1.8-2.2 0-4.3.2-6.4.3-.3 0-.6.1-.8-.3-.1-.3 0-.4.2-.6 1.9-1.8 4-3.5 6.7-3.2 2.6.3 3.9-1.9 6-2.4-1.6-.6-3.2-.9-4.5-2-1.6-1.4-1.8-2.2-.2-3.7.2-.2.4-.7.7-.1.3.5.5.4.7 0 .5-.7 1.4-.6 2-1 1.8-1 3.7-1.1 5.7-.9-.2-.7-1.1-.8-.6-1.6.8-1.2.5-1.7-.9-1.7-.7 0-1.3 0-1.8-.7-1.1-1.5-1-2.9-.2-4.4.8-1.3 2.1-1.7 3.6-1.7 3.1.1 3.7-.3 4.1-3.3.1-.5.1-1 .7-1 .5 0 .6.4.7.8.2.5-.1 1.6.9 1.2.7-.2 1.8-.4 1.4-1.8-.2-.6 0-1.2.6-1.7.9-.7.7-2.7-.3-3-3.1-.8-6-2.1-9.3-2.2-1.4 0-2.1 1.1-1.4 2.2 1 1.4 1.5 3.2 3.1 4.2.3.2.9.4.4.9-.3.3-.7.2-1.1-.2-.7-.8-1.6-1.3-2.5-1.8-.8-.7-1.4-2.7-.7-3.6zm54-230c-.6-2-.1-3.9-.2-5.8-.1-1.6-.2-3.2 1-4.5.3-.3.4-.9.1-1.3-.3-.5-.8-.4-1.3-.4-1.8 0-2.7 1.5-3.6 2.7-.7.9-1.8 1.9-1.8 3.1.1 1.7-1 3.3-.7 4.9.2 1.5-1.4 2.6-.4 4.1.1.1-.3.7-.7.6-1.5-.4-1.8.9-2.3 1.7-.3.4-.5.8-.9 1-1.7.7-2 1.5-1.2 3.2.3.7 1.5 1.5-.2 2-.4.1 0 .4.3.5s.6.3.3.6c-1.3 1-.8 2.3-.9 3.7-.1 3-.6 6-.9 9.1-.2 1.5 1.9 4.5 3.3 4.9.9.2 1.6-.3 1.4-1.2-.6-3.2.6-6.3.3-9.4-.1-.5.1-1.3.6-1.3.6 0 1 .6.9 1.3-.2 1.7-.4 3.5-.9 5.2-.5 1.5-.2 2.9.5 4.1.6 1.1 1.7 1.7 2.6.4 1-1.4 1.5-.8 2.2.2.1.2.5.3.7.5.6.6 1 1.2.3 2.1-1.5 2.1-1.2 3.3 1 4.6 1 .6 1.8 1.1 1.9 2.4.1 1 .5.8 1.1.2 1-1 3.5-6.3 3.8-8 .7-3 1.3-6 1.7-9.1.1-.6.3-1.3-.4-1.5-.8-.3-1.3.3-1.4.9-.2.7-1 1-.8 1.9.1.3-.2.6-.5.5-.4-.1-.1-.5-.2-.7-.6-1.3-.1-2.2 1.3-2.8-.8-.5-1.6 0-2.2-.3.7-2.4.7-2.4 2.2-4 .1-.1.2-.5.1-.6-.3-.7.2-.9.7-1.2 1-.6 1.8-1.5 2.6-2.3.3-.3.5-1.2 1.1-.7.4.4.4 1-.1 1.7-1.2 1.7-.2 4.4 1.4 4.7-.9 2.2-3 3.9-3.1 6.7 0 .8.2 1.5.4 2.2.3 1.2 1.3 2.5-.4 3.5-.1.1-.1.4-.1.4 1.6.7.2 1.3-.1 1.9-.5 1.1-.7 2.2-.5 3.4.4 1.8 1.7 2.3 3.1 1.2 1.9-1.5 2.6-4.1 1.8-6.7-.3-1-.4-2.1.4-3.2 1.4-1.7 2.2-3.7 2.1-6.1-.1-1.4-.3-2.8-.1-4.1.4-2.5.6-5 .8-7.6.1-1.7.3-3.4.5-5.1.2-1.5-.4-3.3 1.1-4.5l-.1-.2c-1.4-.7-.5-1.9-.5-2.8 0-1.4.7-2.8.2-4.1-.9-2.5-1.7-4.9-1.6-7.6.1-1.9.5-3.8.2-5.7-.4-2.6-1.7-5-1.8-7.6 0-.5-.1-1.7-1.3-1.8-.7-.1-1.4 0-1.8.5-1 1.3-2 2.6-2.8 4.1-.6 1-.7 1.9.9 2.3 1.9.4 2 1 1.4 2.6-1.2-1.5-2.4-2-3.7-1.5-1.5.5-3.3 3-2.9 4.9.2 1.2-.3 1.5-1.2 1.8 1 .5 1.3 1.4 1.5 2.3.1.3-.3.5.3.7 2.3.6 5.6-1.7 5.8-4.1.1-1.1.3-2.2.4-3.2.4.9.3 1.8.3 2.7.1 1.9.4 3.8 0 5.6-.2 1-.6 1.6-1.5.4-.3-.4-.5-.8-1.1-.8-1.6 0-3.2.3-4.6 1-.5.2-1.2.6-1.1 1.4.4 2.2-.6 4.4.1 6.6.1.4.1.8-.4.7-1.6-.5-2 .8-2.4 2.1zm-56.8 202c-.7-1.2-.8-2.2.2-3 2.4-1.8 5.5-2.2 8.1-3.5 1.4-.7 3.1-1.2 4.7-1.7.8-.2 1.1-.9 1-1.7s-.8-.8-1.4-.7c-2.3.4-4.7-.4-7 0-1.2.2-1.5-.6-1-1.2.9-1.1 2.2-2 3.3-3 .4.8-.4 2 .8 2.1 1.1.1 1.1-1 1.2-1.8.1-.6.2-1.2.4-1.7.3-.9.9-.9 1.5-.4 1.4 1.3 1.6 1.3 2.2-.5.3-1 .6-1.9 1.7-2.4.8-.4 1.2-4.5.6-5.1-.1-.2-.4-.4-.6-.3-1.4.2-2.3-1-3.5-1.4-.3-.1-.6-.2-.6-.6 0-.5.4-.6.7-.6 1.1 0 1.2-.7 1.6-1.6.5-1.3-.3-2.9.8-3.8 2.5-1.9 3-4.5 3.5-7.3.4-2.2.1-2.9-1.9-3.8-.6-.3-1.6-.4-1.5-1.2.1-2.2-1.1-2-2.6-1.6-.5.1-.9-.1-1.4 0-1.5.2-3.2-.8-4.4.9-.2.3-.4.2-.5-.1-1-1.3-2-.8-3 0-.7.5-1.1 0-1.5-.4-.4-.3-.6-.7-.2-1 1-.7.5-1.7.5-2.8-.9.9-2-.4-2.8.7s-2 1.5-3.2 2c-3 1.4-5.5 3.3-6.5 6.8-.2.7-.8 1.1-1.6 1.2-.5.1-1.4-.3-1.3.7s.9 1 1.6.8c1.1-.3 1.7.3 1.7 1.2 0 .8.6.9.9 1.4.3.7.8 1 .6 2.1-.2.9-.5 2.7 1.5 3.2.4.1 1 1.1-.1 1.6-.2.1-.6 0-.5.3 1 1.8-.7 1.5-1.5 1.8s-1.4.8-1.9 1.7c-1 1.9-2.2 3.8-3.4 5.6-.4.6-1.1.7-.4 1.5.5.5 0 1.5.8 2 2.1 1.2 2.2 1.6 1 3.6.6.5 1.2.4 1.8 0 .5-.3 1-.5 1.3.2.2.5.6 1 0 1.6-.8.8-1.5 1.8-2.5 2.3-1.3.6-1.3 1.9-1.4 2.9-.1.9.5 2.1 1.6 2.1 1 0 2.2.1 3.2-.6.4-.2 1.1-.7 1.4-.1.3.5.6 1.1.2 1.8-.3.5-.6 1-1.1 1.4-.6.4-.6 1.1-.2 1.7.4.7.9.6 1.5.5 1.6-.3 2.7-1.3 3.8-2.3.4-.3.7-.8 1.1-.3.7.9 1.6.6 2.7.8zm48-330.5c.1 1.1.4 1.8 1.7 1.8.8 0 1.3.7 1.2 1.2-.1.6-.3 1.3-1.4 1.5-3.3.6-6.1 2.6-9.4 3.3-.4.1-.8.3-.7.7.4 2.1-1.1 2-2.4 2.3-.7.2-1.4.5-2.1.9-1 .5.3 1.1.1 1.7-.1.1.8.2.8 0 0-1.7 1.4-.9 2.2-1.4.3-.2.6-.2.8.1s.2.7-.1 1-.9.3-.5.9c.3.5.8.3 1.3.3 1.4 0 2.7-.6 4.4-.2-.8 1.1-1.8 1.1-2.9 1.1-.9.1-2.2.2-2.3 1.2-.1 1.1 1.2.8 2 .8.4 0 .8.1.8.5a.68.68 0 0 1-.7.7c-.7.1-1.4.1-2.1.1-.4 0-.8 0-.9.4-.1.5.3.7.6.9.6.4 1.3 0 1.9 0 1.2 0 2.8-.8 3.4 0 1.2 1.7 2.7 1.3 4.1 1 2.9-.6 5.7-1.4 8.5-2.2 1.5-.4 2.6-1.2 3.2-2.7.8-2.2 2.5-3.8 4.1-5.2 1.7-1.5 1.1-3.5 2-5.1.1-.1-.1-.4-.3-.6-1.2-2.1-2.4-2.4-4.5-1.1-.7.4-1.1.6-1.7-.2-.5-.7-1.4-.8-2.2-.5-2.6.9-3.5.5-4.6-1.8-.4-.9-.4-1.5.9-1.7-.3-.2-.4-.2-.6-.3-.4-.2-.9-.4-.9-1 0-.9.6-.4 1-.5.7-.3.7-.8.6-1.4-.6-2-.2-4.2-1-6.3-.2-.4.1-1 .5-1.2.5-.3.7.3.9.6.6.7 1.1 1.1 1.5-.2.1-.3.5-.5.7-.8.7-1.6 3.2-1.2 3.7-3.1.1-.2.9-.2.9.1-.2 1 1 1.3.9 2.1 0 .5.1.9.7.7.5-.1 1.1-.5.8-1.2-1.4-3.1-1.2-6.8-3.2-9.8-.4-.6-.6-1.2-.2-1.9.9.4.3 1.7 1.4 1.9.9.1 1.8.5 2.1 1.6.1.4.6.5.9.3.4-.3.3-.8 0-1-.9-.5-.7-1.4-1.2-2.1-.4-.6 0-1.6-.7-2.1s-1.1-1.1-1.2-1.9c-.1-.6-.4-.8-.9-.8-.5-.1-1 .1-1.1.6-.2 1.4-.9 1.3-2 .9-.6-.2-1.3-.2-1.9-.2-.9 0-1.6-.1-2.1-1.1-.6-1.3-1.8-1.7-3.1-1.2-1.9.8-4.1.9-5.5 2.8-.3.4-1 .6-1.6.6-2.3.1-4.6.5-6.8 1.5-.5.2-.8.1-1.3-.2-1.8-1.1-4.5-1-6 .2-.1.1-.3.3-.3.4.6 1.5-.3 2.8-.3 4.2 0 .7.1 1.4.6 1.8 1.4 1 1.6 1.3 1.2 2.9-.2.6-.4 1.8 0 1.8 2.2.1 3 1.5 3.6 3.3 2.1-.2 1.6 1.2 1.6 2.4 0 1 .8 1.7 1.6 2.2.3.2.8.3.9.7.4 1.4 1 1.2 2 .6 1.1-.7 2.1 0 2 1.4-.1 1.1.4 1.9 1.2 2.5.3.3.7.4.7-.1 0-1.7 1.3-1.1 2-1 1 0 .7 1 .7 1.7.3 3.4.3 3.4 3.5 3.6-2.5-1.1-1.5-2.6-1.5-3.7zm-41.8 227.9c.6 1.6.8 3 1.5 3.9.9 1.2 1 2.4.8 3.6-.1 1.3.3 2 1.3 2.3 1.1.2 2.2-.2 2.4-1.4.1-1.2.8-.9 1.4-.9.8 0 .9.6.8 1.3 0 .3-.3.6-.1 1 1.1 1.5 4.2 1.5 4.9-.3.7-1.6 1.7-2.5 3.1-3.3.9-.5 1.4-1.4.6-2.3-.6-.7-.3-1.3 0-1.7.5-.7.7-1.5.6-2.3-.1-2.6 2.5-4.3 4.3-4.1.7.1 1 .3 1.5.9 1.1 1.3 2.4 2.5 4.3 2.6.5 0 .9-.2 1.1-.7.3-.5 0-1-.4-1.2-.8-.3-1-.9-1.3-1.5-.8-1.6-2.1-2.4-3.9-2.6-.5-.1-1.3-.1-1.3-.6-.1-1.3-1.2-1.5-2-1.7-2.3-.7-4-2.2-5.7-3.7-.5-.4-1-1.2-1-1.8 0-1.8-1.3-2.3-2.5-3-.5-.3-1.1-.5-1-1.2.2-1.7-.8-1.4-1.9-1.3-1.2.2-.6-2-2-1.7-.1 0-.2.1-.3.2-.5.7-1.6 1.1-1.7 2.2 0 .4 0 .7-.5.7-2.6-.2-4.5.6-5.5 3.2 0 .1-.2.2-.3.2-1.8 1.2-1.8 3.3-2.4 5-.2.5 0 1 .6 1 1.2.1 1 .8.8 1.6-.2.5-.4 1.2-.2 1.7.5 1.2 0 2.1-.7 2.9-.6.7-1.3 1.6-.7 2.3 1.2 1.4.7 2.1-.5 2.9-.3.2-.7.4-.6.8s.5.5.8.5c1.7-.2 1.9 1 2.1 2.2.1.7-.2 1.4-.2 2.1 0 .8.3 1.3 1.1 1.6.5.2 1 .8 1.6.4 1.4-.9 2.3-4.6 1.4-5.9-.4-1.2-.4-2.3-.3-3.9zm44.1-31.3c.7 1.3.5 2.6 0 3.8-1.3 2.7-.1 5.9-1.5 8.6 0 .1.1.2.1.3 1 2.5.7 5.1.3 7.6-.2 1.2-.8 1.1-1.6.8-.6-.2-.8-.8-1.1-1.3-.2-.3-.2-.7-.7-.6s-.7.4-.7.9c.1.7-.3 1.3-.8 1.7-1.4 1.1-2.2 2.7-3.5 3.9-.4.4-.7.7-1.3.8-.7.1-1.9-.3-1.8.8 0 1.3-.1 3 1.1 3.6 1.7.9 3.8 1 5.8.4 1.5-.5 1.9-1.4 1.5-2.9-.3-1.1 1.1-2.4 2.6-2.4 1.2 0 1.3 1.2 1.2 2.2-.6 3.5-.6 4 3.8 3.7.2 0 .3 0 .5-.1 1-.1 1.6-.2 2.1-1.4 1.4-3.1 1.8-3.1 4.6-2.2 1.1.4 1 .8.6 1.7-1.1 2-1.1 2 1.2 2.3.3 0 .6.1.9.1 2.1.1 2.9-.9 2.8-2.9 0-.7-.5-1.1-.8-1.7s-1-1.4-.6-1.9c1-1.1 0-1.8-.3-2.6-.3-.6-.7-1.2-.7-2 .1-2.1-1-3.9-1.4-6 .2-.3.9.4 1.1-.4-.3-.3-1.2.1-1.1-.7.1-.6.7-.4 1.2-.5s1.4-.4.9-1.1c-.8-.9-.9-2.1-1.5-3.1-1.4-2.3-.9-3.5 1.6-3.8.2 0 .5-.1.4-.6-1.4.4-1.1-.6-1.1-1.4-.1-.7.5-1.6-.2-2-1.7-.8-1-2.2-.7-3.1.3-1 .3-2.1.8-3s.2-1.8-1.1-2.1c-.8-.2-1.5-.6-2.2-1-1-.7-2.4-.6-3.5.2-.9.7-1.1 1.6-.4 2.6.4.7.2 1.4-.1 2-.4.8-.9 1.7-.7 2.5.2 1.3-.5 2-1 2.9-.5-.5-.3-.8-.3-1.2.1-1-.1-2-.7-2.8-.3-.4-1.3-1-1.4.1-.5 1.2-1.2 1.4-2.3 1.3zm19.9 28.6c1.4.8 2.2 1.3 2.8-.5.3-.9.4-2.6 1.6-2.6.9 0 .3 1.6.7 2.4.6 1.3.8 2.8-.7 3.8 1.1 1.2 2.5 1.5 3.9 1.6.7.1 1.2.3 1.5 1 .4.8.8 2 1.9 1.1 1-.9 2 .3 2.7-.5.1-.1.2-.4.2-.6-.6-1.7.3-1.8 1.6-1.6 1.7.2 2.1-.4 1.8-2-.1-.3-.3-.5-.1-.8 1-2 .2-3.8-.5-5.7-.7-2-1.4-2.3-3.3-1.3.2.2.6.4.6.5-.2 1.5-.4 3-.8 4.5-.1.5-.7.6-1 .2-.6-.9-1.5-.8-2.3-1.1-.6-.2-.9-.6-.7-1.2.4-1.2-.1-2.2-.4-3.3-.4-2.1-.2-4.2-.3-6.3 0-.7.3-.9.8-.9.7 0 .6.5.4 1-.2.4-.1.7.1 1.1.7 1.4 1.1 2.9.4 4.5-.3.6.2 1 .7 1.2s1.2.4 1.4-.2c.4-1 .3-2.1.4-3.1.2-2-.9-4.1.2-6.2.1-.2.1-.5-.1-.6-1.2-.5-1.2-1.7-1.4-2.7-.3-1.2-1.1-1.6-2-1.4-1.2.2-2 .1-1.9-1.4 0-.4-.2-.9-.7-.8-.5 0-.9.3-1 .9-.1.5.4 1.3-.6 1.3-.8 0-1-.7-1.2-1.3l-.6-2c-.4-1.7-.2-3.5-1.2-5-.8-1.3.5-2.5.1-3.8-.1-.3.7.1.8-.4-1.2-.1-2-.9-2.4-1.9-.5-1.2-1.2-1.4-2.3-1 .8.6.8 1.2.4 2-1.1 2.1-.7 4.3-.9 6.5 0 .5-.1.9.5 1.2.3.1.8.3.4.7-.3.3-.7.3-1 0-.6-.6-1.2-.9-1.8-.3-.8.8.2 1.4.3 2 .2.6.7.8 1.3 1 1.1.3 1.3 1.9.3 2.4-1.1.5-.9 1-.3 1.7 1.2 1.3 1 2.3-.6 3.2.9.8 1.5 1.7-.3 2.6 1.5.2 2.6.8 1.9 2.1s-.4 2.4 0 3.6c.4 1.3 1 2.5 1.6 3.7.5 1.1 1.2 2.2-.9 2.7zm-89.9 122.2c1.5.3 2.4 1.6 3.8 2.2 2.9 1.3 5.3 1.5 7.8-.2.3-.2.8-.3 1 0 .7 1.3 1.9 1.1 3 1.4 1.4.3 3.7-.5 4.3-1.7.8-1.7-.5-2.3-1.6-2.9-.3-.2-.5-.3-.4-.7.1-.5.5-.5.8-.5.5 0 .9.1 1.4.3 1.2.5 2.2.4 2.9-.8.3-.5.5-1.1 1.1-1 1.5.5 2.6-.6 3.9-.9.9-.3 1.5-.9 1-2-.6-1.1.2-1.2 1-1.1.6.1 1.2.2 1.6.7 1 1.5 2.3 1.1 3.6.6s1.8-2.2.8-3c-.7-.6-1-1.3-1.5-2-.9-1.2-.1-1.4.7-1.6.4-.1.8 0 1.2-.1 1.1-.1 1.5-.7 1.4-1.8-.1-.9 0-1.8-1.4-1.7-.8 0-1.3-.2-1.7-1.2-.4-1.2-1.6-1.5-2.8-1-1.6.6-2.8 1.8-3.8 3.1-.2.2-.3.5-.7.4-.3-.1-.4-.3-.3-.5.2-1.3-.5-1.1-1.4-1.1-.8.1-1.5.4-2.2.7-2.2 1-4.7 1.1-6.7 2.7-1.5 1.2-3.4 1.3-5.4.8-2.3-.5-4.2.3-6.1 1.6-.6.4-.6.8-.3 1.3 1.1 1.9 2.4 3.7 5 3 .6-.1 1.2-.1 1.7-.2.6-.1 1.1-.2.9.7-.1.4.2.7.6.5.2-.1.6-.6.5-.6-1.1-1.5.5-1.2 1-1.6 1.2-.7 2.7-1 3.7-2.2.5-.6 1.1-.7 1.6 0 .5.6.7 1.1 0 1.8-.3.3-.7.6-1 .9-1.1 1.1-3.1 1.4-3.2 3.4 0 .3-.4.7-.7.8-2.3.5-4.3 1.8-6.5 2.4-1.3.3-2.6.4-3.9 0-1.6-.5-2.8 2-4.7 1.1zM410 261.9c.4-.2.8-.6.3-.9-1.1-.8-.8-1.9-1-2.9-.3-1.1.2-1.8 1.5-1.9.5 0 .9 0 1.4-.1 1.2-.2 1.6-1.3.7-2.2-2.8-2.7-4.2-6.5-7.3-9-1.3-1-1.4-2.8-2.8-3.7-.5-.3-1.4-.7-1.5-1.1-.5-3-3.5-3.7-5.2-5.5-1.8-2-4.2-3.8-7-4.7-1.6-.5-3-1.5-4.7-1.8-.4-.1-.7-.4-1.1 0-.9.9-1.6 3.5-.9 4.6.5.8.9 1.6 1.4 2.3 1 1.7 2.6 2.5 4 3.6 1.3 1 1.2 2.9 2.9 3.5.8.3 1 1.1 1.3 1.8 1.5 3 1.5 3 4.8 2.7.6-.1 1.3-.1 1.4.6.2 1.9 1.8 3.1 2.5 4.7 1.1 2.2 2 4.4 2.9 6.6.6 1.3 1.2 1.7 2.4 1.6 1.2 0 2.8-.6 3.4 1.2.2.5.4.5.6.6zm24.3-.6c-.7.3-1.6-.9-2.1.3-.2.5.5 1.3-.4 1.5-.7.1-.7-1-1.3-1.3-.4-.2-.2-.6-.3-.9-.2-.5-.8-.5-1-.2-.3.7-1.5.2-1.5 1.1 0 .4.3 1.2 1 .9 1-.4.8.1.8.7 0 1.7 1.1 2.5 2.4 1.8.9-.5 1.1-.2 1.2.7.1.7.3 1.4.2 2.1-.4 1.9-.9 3.8-.5 5.8.1.7 1.2 1.7-.1 2.5.4.3.4 1 1 1.1.4 0 .9-.2.8-.5-.3-1.1.8-1.4 1.1-2.2.2-.7 1.1-1.7-.6-1.8-.5-.1-.7-.6-.5-.9.4-.6.2-1.2.1-1.9 0-.4-.1-.9.4-1 .4-.1.8.1 1.1.4.7.8.2 1.4-.5 1.9.5.2 1.3-.2 1.2.4-.1 1.4 1.5 2.2 1.3 3.5-.1.6.1 1.1.2 1.7.6 2.7 1.7 5.3.3 8.2-.8 1.6.7 3 1.9 3.9 1.4 1.1 2.7.2 3.5-.9.6-.8 2.2-.7 2-2.1-.1-.9.4-1.1.9-1.5.9-.6 1.9-1.1 2.9-1.6.6-.3 1.2-.9 1-1.5-.6-2.1-.5-4.5-1.8-6.4-1.5-2.1-2.8-4.4-4.1-6.5-2.1-3.3-4.9-5.8-7.3-8.7-.4-.4-1.1-.6-1.3-1.1-1.4-2.8-3.9-4.6-6.1-6.7-.4-.4-.9-.7-1.4-.3a.94.94 0 0 0-.1 1.3c.8 1.3.8 3.1 2 4.2.7.6.2 1.1 0 1.7 1.7-.8 2.9.1 3.6 2.3zM322.2 385.2c.8.9.5 1.4-.3 2.2-1 .9-2.3 1.8-2.8 3.3-.4 1-1.5 1.5-2.4 1.9-.7.3-1.1-.5-1.1-.8-.2-1.2.4-2.4 1.1-3.2 1.4-1.9 2.6-3.9 3.9-5.8l5-6.9c.6-.9 1.3-1.6 1.4-2.8 0-.5.8-.9.2-1.4-.5-.4-1.2-.6-1.8-.3-1 .4-2 .9-2.5 2.1-.2.4-.4.9-.8 1.2-2 1.6-3.1 4-4.8 6-.5.6-1.9 1-1.2 2.3 0 .1-.2.4-.4.5-1.4.6-1.9 2-2.6 3.1-.6 1-1.5 1.7-2.4 1.2-.9-.4-1-1.5-.4-2.5 1.1-2 2.1-4 3.4-5.9 1.7-2.5 3.8-4.6 5.4-7.1 1.5-2.3 3.3-4.3 4.2-7 .2-.5.1-.9-.2-1.3-.4-.5-1.1-.4-1.4-.1-.8.6-1.6 1.2-2.2 2.1-1.5 2.3-3.2 4.3-4.9 6.5-.6.7-1.9 1-1.4 2.4.1.3-.3.6-.7.7-1.1.3-1.7 1.2-2 2.1-.4 1.2-1.2 1.9-1.9 2.8-.8 1-1.5 1.4-2.7.5-1-.7-1.6-.3-1.4.8.3 2.9 1.1 5.6 3.7 7.3.5.4 1.1.6.9 1.3-.3 1-.3 1 .9 1 .4 0 .6.2.9.4 1.7 1.1 3.4 2.1 5 3.2 2.5 1.7 5.8 2.4 9.1 2 .8-.1 1.4-.5 1.6-1.5.2-.9.5-2 2.1-1.7-1.5-1.5-1.8-1.5-2.9-.7-.6.5.3.8-.2 1.3-.9.8-1.8 1-2.9.6-.8-.3-.8-2.3-.1-3.2 1.2-1.4 2.3-2.9 3.5-4.3 1.4-1.6 2.5-3.3 3.2-5.2.5-1.3 2-2.4 1.5-4.1-.2-.6-.4-1.1-1.1-.6-2.3 1.6-3.8 3.9-5.3 6.1-.7.7-1.1 1.3-2.2 1.5zM392.5 206c-.1-1.1-.1-2.2-.9-2.4-1.1-.2-1.2 1-1.4 1.7-.3 1.2-1.1 1.3-1.9 1-.6-.2-1-.2-1.5 0-1.4.5-2.9-.9-4.2.2 0 0-.3-.2-.3-.3-.2-1.1-1-1.1-1.5-.6-.6.7-1.7 1.8-1 2.7 1 1.1 2.4 1.9 3.4 3 1.2 1.2 2.8 1.8 4.3 2.5 2.5 1.2 4.4 3.6 7.2 4.3 1.8.5 2.9 2.1 4.6 2.7 1 .3 2.4 0 2.7 1.6.1.4 1.4.2 1.4-.3.1-.8.7-1.6.5-2.5-.5-1.9-1-3.8-1.1-5.7 0-1.2-.4-2-1.8-1.1-.9.6-1.4-.2-1.5-1 0-.3.5-.6.8-.8.7-.5.6-1.1.3-1.6-.4-.7-.7 0-1.1.2-.9.5-.9-.3-.7-.8.8-1.9-.7-1.9-1.7-1.9-1.7.1-2.3-.2-1.4-2 .4-.7-.1-1.5-.9-1.9-1-.5-1 .5-1.3.9a17.8 17.8 0 0 1-1 2.1zm-27.4 28c1.3 1.2 1.3 1.6.1 3.2-.6.7-1.9 1.3-1.7 2.1.3 1 1.7.8 2.6 1 1.9.5 3.5 1.9 5.6 1.8.8 0 1.8.2 2.2-.9 1.5-3.7 4.4-6.5 6.5-9.8.8-1.4 2.5-2.6 1.8-4.3-.7-1.9-2.6-2.9-4.6-3.2s-4 .2-5 2.4c1.1.7 2-.7 3-.3-1.4 0-2 2.2-3.9 1.2 1.1.8 1.2 1.3.2 2.1s-2 1.8-2.9 2.6c-.9.9-1.1 3.9-3.9 2.1zm42.2 114.4c-1.6-.3-2.8-.9-3.4-2.4-.2-.5-4.6-.3-4.9.2-.1.1-.2.2-.2.3.1 3.4-3.2 5.9-2.8 9.4 0 .1 0 .3-.1.3-1.2.4-1.7 1-1.5 2.4.1 1.2-.5 2.4-.4 3.7 0 1 .3 2.2-.4 3.2-.9 1.2.7 1.5 1 2.3.2.6 1 .3 1.4 0 .8-.6.3-1.2-.1-1.8-.3-.5-.4-1.1.3-1.5.8-.4 1.9-1.8 2.5-1.1 1.6 1.9 3.1.7 4.7.4.2 0 .6-.1.5-.3-.7-.9.4-1.6.3-1.9-.6-1.2 1.4-1.6.7-2.4-1.1-1.4-.1-2.7.5-3.3 1-1.1 2.7-1.7.9-3.5 1-1.5 0-2.4-1.1-3.2.3-.8 1.1-1 2.1-.8zm.5-107.8c-.8-.4-1.9.2-2.3-1.1-.2-.5-.6-1-1.2-.7-1 .6.1.8.3 1.1 1.2 2.2 3 3.9 4.7 5.6.3.3.7.5 1 .6.4.1.9 0 1.1-.4s-.2-.6-.4-.8c-.9-.8-1.3-1.9-1.9-3 .8 0 1.2.4 1.4.8.5.7 1 1.1 1.7.7.8-.4.9-1.1.5-2-.3-.6-.5-1.2.5-1.6 1-.3.9-.4.4-1.1-.1-.1-.2-.3-.1-.5.6-1.3-.2-2.1-.8-3.2-1.8-3.1-4.4-5.2-7.4-6.9-1.1-.6-2-1-2.1-2.4-.1-1.3-1.2-1.4-2.1-1.4-.9.1-1.5 1-1.4 1.9.1 1.1.3 2.1 1.6 2.4.4.1.7.4.6.8s-.5.1-.7.2c-2.7.3-4.9-.8-6.6-2.9-.6-.7-1.4-.8-2.2-1.1-.2-.1-.5 0-.6.2s0 .5.2.6c1.1.3 1.6 1.5 2.5 1.8 2.9 1.1 4.6 3.7 7.1 5.4 1.2.8 1.6 2.5 2.8 3.1 1.5 1.2 2.2 2.7 3.4 3.9zm-2.2 179.9c-.3-.7-.7-.6-1.1-.7-.9-.1-1.9-.1-2.8-.3-.5-.1-1.3-.4-1.2-1 0-.6.7-.7 1.3-.7l10.4.2c1 0 1.7 1 1.2 1.6-.9.9-.7 1.9-1.2 2.8-.3.5-.5 1.1-1.2 1.1-2.5-.1-5.1.2-7.6-.6-1.3-.4-2.7-.3-4.1-.4-1.1 0-.9.9-.9 1.5 0 .2-.1.4-.2.7 0 0 .2 0 .3.1 2.3 1 2.9 2.8 1.8 5.2-.4.9-.5 2.3.6 2.4 2.8.2 5.6.8 8.4.6.6-.1 1.3-.2 1.4-.9.3-2.4 2.2-4.3 2.3-6.7.1-2.9 1.5-5 3.3-7 1.2-1.3 1.1-1.6-.6-1.8-4.6-.7-9.2-.4-13.9-.2-1.1.1-2.4.9-3.2 1.9-.5.6-.6 1.1.5 1.7 2.1 1.2 4.2.9 6.5.5zM441 645.2c.5 2.1 2 2.8 3.5 3.2 1.8.5 3.2 2.3 5.3 2 2.7-.3 5.3-.8 7.2-3.1 1.1-1.3 3.2-2 2.3-4.3-3.3 2.2-7 3.5-10.9 3.7-.8.1-1.7.3-1.9-.5-.2-.9.9-1.2 1.6-1.6.5-.3.8-.2 1.3.1.4.2 1 .4 1.1-.3s.7-.6 1.1-.9c2.3-1.5 5-2.4 6.7-4.8.2-.3.8-.5.5-1a1.1 1.1 0 0 0-1-.6c-1.8.1-3.9-.2-5.3 1.2-1.9 1.9-4.3 2.6-6.4 3.9-1 .6-2.4 1.1-2.9 2.2-.6 1.3-1.1 1.6-2.2.8zm14.6-42.9c.5.5 1.7-.2 1.5 1.1-.1 1.1-.3 2.3-.4 3.4-.1 2.2-.9 4.3-.4 6.7.4 1.6-.2 3.5-.3 5.3-.1 1.6 0 3.3-1.2 4.6-.1.1 0 .4.1.5 1.3 1.1.2 2.1-.4 2.6-1.2 1-1.4 2.3-1.7 3.7-.1.6-.6 1.4.1 1.7s1.4-.3 1.9-.9c.3-.4.2-1 1-1.2 1-.2 2.1-.7 1.9-2.2 0-.4.4-1.2 1-1.3.8-.1.4-.4.4-.9.2-1.8 0-3.6.1-5.3.2-2.1.3-4.1.4-6.2.2-3.1-.1-6.2-.4-9.3-.1-1.4-.1-2.8.4-4.1.2-.6.4-1.5-.5-1.8-.8-.3-1 .6-1.4 1.1-.2.3-.5.5-.4.9.4 1.3-.2 1.8-1.7 1.6zM370.3 311c.4-.1.7 0 .9.3.6.8 1.4 1 2.2.4.9-.8 2.6-1.3 2.4-2.6-.3-1.5.4-2 1.3-2.7 1.2-1 2-2.1.8-3.7-.4-.6-.5-1.3.3-2 .6-.6 1.1-1.8 1.1-2.6-.1-.8-1.2-.1-1.9-.4-.4-.2-.8-.3-1.1-.4-.4-.1-.8-.1-.9.2-.7 1.6-2 3-1.7 4.9.1.5.1 1.2-.7 1.4-.4.1-.6.3-.7.7-.2 2-1.8 3.3-2.5 5.1-.3.8-.4 2-1.4 2.7-1.4 1-2.2 2.3-1.9 4.1.1.6 0 1.2.7 1.4s1.3-.1 1.7-.6c1.4-1.6 2.8-3.3 1.5-5.6-.3-.2-.1-.4-.1-.6zm29 67.5c-.3-.8-2.7.3-1.6-1.8 0 0-.3-.4-.5-.4-.8-.1-1.5-.2-2.3-.1-2.3.4-3.5 0-4.5-2-.4-.8-.8-1.5-1.7-1.3-1.2.2-.8 1.3-.9 2-.1.4.1.8 0 1.2-.1 1.7.6 3.6-.1 5.2s.4 1.9 1.2 2.3c1.1.7 2.8.9 3.5 1.9 1 1.4 1.9.7 2.9.4.9-.3.8-.9 0-1.3-1.2-.6-2.1-1.5-3.2-2.3.8-.3 1.4-.3 2.1-.1 1.2.5 2.9 2 3-1 0-.1.4-.3.6-.4.8-.5.7-1 0-1.5-.1-.1 0-.3-.1-.6.6 0 1.1.2 1.6-.2zm4.3-95.9c.3.6.5.8.6 1 .1.3 0 .6.1.9.3.9 1.4 1.2 2 .6.4-.4 1-4.5.6-5-.7-1-1.3-2-2-3-.6-.9-1.2-1.1-1.9-.7-.7.3-1.1.1-1.7-.1-1.9-.7-3.4.7-3.6 2.7-.1 1.2.7 2.4 0 3.4-.5.7.4 1.9-.8 2.2 1 .2 1.9 1 3 .8.9-.1 1.5.5 2.3.7 1 .3 1.6.1 1.4-1.1-.2-.6-.2-1.3 0-2.4zm-9.3-16.5c.9 1.3 1.6-.3 2.5.3 1 .7 2.2.9 3.5.9 1.1 0 1.9.4 2 1.9.1 1.2 1.1 2.2 2.1 2.9s2.2.3 2.5-.9c.2-.8.5-1.5.2-2.4-.5-1.7.7-2.8 2.4-2.3l2 .6c.8.3 1.1-.3 1.3-.8.3-.7-.4-.7-.8-.9-.8-.4-1.9.1-2.7-.6-1.1-.9-2.3-1-3.7-.8-1.3.2-2.5.4-3.7-.9-1-1.1-4-.5-4.7.8-.5 1.5-1.5 2-2.9 2.2zm-87.6 327.8c-.6-.5-1.3-.9-1-1.2 1.1-1.2 0-3 1.1-4.2.4-.4 0-.9-.4-1.2s-.7 0-1 .4c-.5.9-1.3 1.5-1.6 2.6-.5 1.8-1.2 3.5-2.1 5.1-1.5 2.6-3.3 5.1-3.9 8.1-.3 1.7-1.4 3.2-1.5 5.1-.1 1.6-1.2 2.9-.5 4.7.6 1.8.5 2.2 2.4 1.2-1.5-1.5-.3-3.3-.6-4.9-.4-2.4 1.6-4.1 2.7-5.8 2-2.9 2.9-6.3 4.6-9.2.6-1 .9-.7 1.8-.7zm63.5-161v-.6c-2-2.7-5.2-3.3-8.1-4.1-1.2-.3-2.6-.3-3.6-.9-2.8-1.6-5.8-1.1-8.7-1-.6 0-1.3.4-1 1.1.4.8.5 1.6 1 2.4.7 1.3 1.8.3 2.4.7 1.7 1.4 3.2.8 4.9.2.8-.3 2-.9 2.6-.1.9 1.2 1.9 1 3 .8 2.5-.7 4.9.6 7.5 1.5zm-2.6-86.7c-.6.1-1.1 0-1.3.8-.3 1-1 1.8-1.6 2.7-.3.4-.7.9-.4 1.4.1.3.6.4.9.3.6-.1 1.1-.5 1-1.2s.2-.9.9-.9c1 0 3.2 2.1 3.2 3.1.1 1.6 1.3 2.2 2.7 1.5.7-.4 2-3.5 1.5-4.2-.7-1-.5-1.6.4-2.2.5-.4.7-.9.1-1.2-2.1-1-4.1-2-6.3-2.9-.7-.3-1.5.1-1.6.9-.1.7.6 1 1.3 1.1.5.1 1.2 0 1.1.7-.1.6-.8.3-1.2.2-.2 0-.5-.1-.7-.1zM366 453.6c1.2 1.7 3.5.5 4.9 1.6.1.1.7-.1.9-.3 1.5-1.2 3.1-1.8 5-2 1.5-.1 2.1-1.2 1.6-2.5-.2-.6-.6-.6-1.1-.6-2 0-3.2-2-5.1-2.3-.3-.1-.1-.7.3-.8.8-.2.5-.6.2-1-1.2-1.2-2-.5-3 .4-1.3 1.1 0 1.6.2 2.3.2.6 1.1 0 1.5.5-1.8 1.8-4.4 2.3-5.4 4.7zm5.5-13c-1.1-1.8-4.3-2.3-5.3-.7-1.5 2.2-3.7 3.4-5.5 5.2-1.5 1.5-3.3 2.6-3 5.1.2 1.6.9 2.2 2.3 1.6.7-.3 1.2-.5 2.1-.2 1.4.4 1.4-1.3 2-2 .4-.4-.1-.7-.4-.9-1.5-.8-1.6-1.4-.2-2.3.9-.6 2.1-.9 2.6-1.8 1.1-2.2 3.3-3 5.4-4zm53.5-95.9c1 .8 2.1 1.4 3.1 2.3.9.9 4.1.7 4.3-.2.3-1.6 1.8-2.4 2.4-3.7.5-1 1-2.1.1-3-1.1-1.1-5-1.1-6.1 0-.6.6-1.2 1-2.3.7 1.2 1.1.9 1.8-1.5 3.9zm-57.4-117c.8.1 1.4-.1 2-.8 1.7-1.9 2.6-4.3 4.4-6.1.5-.5 0-1.2-.5-1.2-.8-.1-2.1-.9-2.2.9 0 .6-.5.7-1 .8-1 .3-1.8 0-2.7-.3-.5-.2-1.2-.6-1.4 0-.4 1.3-1.6 1.7-2.5 2.3-1.2.9-1.6 2.9-3.6 2.9-.3 0-.6.4-.5.8s.5.5.9.4c2.4-.4 4.8-.2 7.1.3zm80.4 86c0 .1.1-.2 0-.3-1.1-1-1.4-2.4-1.8-3.7-.2-.5-.8-.1-.9.2-.4 1-1 2-.7 3.2.1.4 0 .9.5 1 .4.1.6-.2.8-.5.1-.3.3-.5.7-.3.3.2.3.5.2.8l-.6.9c-1.1 1.2-1.4 2.7-1.7 4.2-.2 1 1.2 1.1 1.5 2 0 .1.2.1.3.2.8 1.9 2.4 2 4.1 1.5 1.5-.4.7-2.6 2.4-2.9-1.1-.7-.6-2.4-2.1-2.9-1.5-.6-3-1.1-2.7-3.4zm-1.5 106.2c-.7-1-1.7-1.1-2.8-.9-.5.1-.9.2-1.4.1-3.6-.7-6.6 1.3-9.8 2.2-.5.1-.8.6-1.2 1-.6.6-.6 1.1.3 1.1 1 0 1.4.5 1.3 1.4 0 .6.1 1.1.6 1.3s.7-.5 1.1-.8c.9-.9 1.6-2.2 3.1-.9.3.3.8-.1 1-.4.4-.5.8-.5 1.4-.5 1.3.1 2.4-.6 2.9-1.8.3-.8.8-1.1 1.6-1.1.8-.1 1.4-.1 1.9-.7zm-28.1-67.6c1-.5-.1-2.1 1.2-2.5 1.1-.4 1.1.8 1.5 1.5.1.1.2.3.4.3.9.3 1.1 2 2.3 1.3.5-.3-.2-1.4-.2-2.2.1-1.7-.9-2.2-2.4-2.2-2.7 0-5.4-.1-8.1.4-1.3.3-1.5.7-1.6 2-.2 2.1 3 1.4 2.4 3.4 0 0 .1.1.2.1 1.2-.4 2 .4 2.9.9.4.3.9 0 1.3-.3.6-.7.6-1.5.1-2.7zm-99.1 7.4c0-.5-.1-.7-.4-.9-.8-.3-1.7 0-2.1.5-1.6 1.9-3.4 3.7-4.4 5.9-1.1 2.4-2.8 4.3-4.2 6.4-1.2 1.7-2.1 3.8-3.7 5.2-.3.3-.3.8 0 1.1s.6.3 1 .1c1-.6 2.6-1.4 2.7-1.8.7-2.1 2-3.7 3.3-5.5.8-1.2 1.7-2.4 2.8-3.3.3-.2.8-.2.8-.8 0-1.5 1-2.2 2-3.2.9-1 1.5-2.5 2.2-3.7zm19.6-132.5c.3.1.4.1.5.1 2.6.3 4.5-.3 5.4-3.2.3-1 .2-1.2-.6-1.4-.7-.2-1.7 0-2-.9-.4-1.4-1.3-1.3-2.3-1.3-1.8 0-3.7.4-5.3 1-1.1.4-3.2 1.1-2.7 2.7.6 1.7 2.4.8 3.7.4 1.1-.3 2.2-.8 3.4-.8.9 0 1.5.3.7 1.2-.5.7-.6 1.4-.8 2.2zM381.5 405c.9 1.2 1.9 2.1 3.5 1.8.8-.1 1.7 0 2.2.8.4.5.9.6 1.4.5.8-.1 1.4.1 2 .5.8.6 1.7.5 2.6.1 2.2-1 4.4-2.4 7.1-1.8.2.1.6-.1.8-.2.4-.1.6-.4.6-.8-.1-.5-.5-.4-.8-.3-.7.1-1.3 0-1.9-.1-4.3-.6-8.6-.8-12.9-.8-1.5.1-3 .6-4.6.3zm-20 119.9c1.2-.1 1.9-.2 2.5-.8.7-.8 1.5-1.3 2.6-1.2 1 .1 2-.1 2.2-1.2.2-1-.4-2-1.3-2.2-1.9-.5-3.8-2-5.8.1-1.1 1.1-2.7 1.7-4.3 2.1-.5.1-1.4.6-.6 1.1 1.5.9 3.3 1.5 4.7 2.1zm.7-237.7c-.4.7-.1 1 .3 1 .7.1 1.3-.3 1.7-.9.6-1.1.9-2.3 1.7-3.1 1.8-2 2.5-4.7 4.1-6.8.4-.5.8-1.5-.2-1.9-.9-.4-1.4.2-1.9.8-.7 1.1-1.6 1.9-2.7 2.5-1.6.8-2.4 2.6-3.9 3.6-.2.2-.4.6-.1.8 1.6 1.1.7 2.7 1 4zm-5 154.7c0-.9-.4-1.3-1.4-1-.9.3-1.7.6-2.3 1.4-1.3 1.5-2.5 3.2-4.7 3.6-.4.1-.8.3-.8.8-.2 1.3 2.3 4.2 3.7 4.2.4 0 .8-.1.9-.4.3-1.8.8-3.4 3-3.5.4-1.7 1.2-3.2 1.6-5.1zm-29.1 218.3c-1.2.3-2.4.7-3.6 1-.6.2-.9.7-.9 1.2-.1.7.7.4 1 .6 1.4.5 3.1.6 4 1.5 1.7 1.7 2.8.8 4.2-.1.8-.6 1.7-.8 2 .7s1.9 2.3 3.1 1.9c.7-.2 1.1-.9.7-1.2-1.2-1-1.7-2.7-3.6-3.1-2.1-.5-4.2-.9-6-2.2-.3-.3-.6-.3-.9-.3zM430 410.6c-.3-.1-1 .7-1.2-.1-.2-.5-.1-1.1.3-1.7.3-.4 1-.8.4-1.3-.6-.6-1.4-.5-2 0-.8.8-1.8 1.6-2.2 2.6-.8 2.3-.1 4.6.9 6.7.4.7 1.2.9 1.6.4.8-1 1.7-.5 2.6-.5.6 0 1.2.1 1.6-.5.1-.2.3-.6 0-.8-.5-.3-1.2-.4-1.7-.1-2.2 1.3-2-.3-2-1.6 0-.5-.3-1.1.2-1.5.6-.4.9.3 1.3.6.7.6 1.3.1 1.9-.3.4-.3.8-.5.7-1.1-.2-.8-.9-.7-1.6-.8h-.8zm-18.9-138.1c-.8 0-1.4-.1-2.1-.1-1 0-1.7.6-2 1.4-.8 2.6 1.1 4.9 3.9 4.8 3.2-.1 4.3-2.4 3-5.2-.8-1.8-2-.5-2.8-.9zM301.6 444.3c-.6-1.9-1.9-2.3-3.4-2.3-.8 0-1.7.2-2.4.1-1.4-.2-1.9.9-2.4 1.8-.1.2.1.7-.2.8-2 .5-.5 1.7-.4 2.4.1 1 1.2.8 1.8.8 1.2.1 2.5-.1 3.7-.1.4 0 1.1-.2.9-.6-.5-.8-.9-1.5.4-1.8-.6-1.5.6-.9 1.2-1 .1-.1.4-.1.8-.1zm136.8-114.4c-.5-1.2 0-2.9-1.8-3.1-1.3-.1-2.3.5-2.7 2.2-.4 1.6-.1 2.9 0 4.3 0 .9.4 1.7 1.5 1.7 1 .1 1.8-.2 2.4-1.2.8-1.3-.5-2.7.6-3.9zm-108.9-94.5c.1 0 .4.1.7 0 .8-.1 2.1.1 2-1.1 0-1.1-1.1-1.2-2.1-1.2-2.4-.1-4.5-.1-6.2 2.3-1.2 1.8-2 3.8-3.1 5.7-.2.3-.1.7.2.9.2.2.5.3.6.1.9-1.7 3.3-2.2 3.6-4.3.5-2.4 2.3-2.5 4.3-2.4zm59.3 153.9c1.5-.4 2.6 0 3.8.6.5.3 1.3.8 1.7-.3.4-1-.3-1.1-.9-1.3-1-.4-2-.9-2.9-1.6-1.2-.9-2.4-.9-3.8.3-1.5 1.4-.1 1.6.5 2.2.1.1 0 .3.1.3 1.2 1.2 1.6 3.3 3.9 3.3.8 0 1.9.7 2.3-.4.3-1-.7-1.5-1.5-1.9-.5-.3-1-.3-1.5-.3-.6.1-1.2-.1-1.7-.9zm-59.6-140.2c0-.5-.5-.6-.7-.9-1-1-2.2-1.7-2.3-3.4-.1-1.2.7-1.9.9-2.9.1-.6.2-1.1-.3-1.4-.5-.4-1 0-1.4.4-.4.5-1 .8-1.4 1.3-.7.7-1.4 1.5-.8 2.6.3.6.4 1.3.6 1.9.4 1.2 1.1 2.3 2 3.3 1.3 1.4 1.9-.9 3-.5.1 0 .3-.1.4-.4zm86 19.4c1.3.3 2.1 1.8 3 .6s1.6-2.6 1.9-4c.1-.8-.8-1.8-1.3-2.6-.9-1.6-2.6-2.5-3.2-4.2-.2-.4-.4-.7-.9-.6s-.6.5-.6 1c-.5 2.1.7 4.4 2.7 5.4 1.4.6 1.4 2 1.5 3.1 0 1-1.1 1.1-2 1.1-.3-.1-.5 0-1.1.2zm-29.9 51.2c0-.3.2-.6-.2-.9-.7-.6-3.8.2-3.8 1 .2 2.1-2.1 2-2.7 3.4-.2.4-1.5.2-.7 1.3.6.9 1.3.7 1.9.1.9-.9 1.5-1.6 2 .3.2.8 1.1 1 1.9.8.5-.2 1-.5 1.5-.8-1.5-1.8-.4-3.5.1-5.2zm.1 24.8c1.8 1.7 3.4 3.6 6.6 2.8-1.6-1-1.8-2-.7-3.3.4-.5.9-1 .2-1.5-1.5-1-3.1-2-5-2-.3 0-.6.1-.7.4-.2.4.1.5.4.6 1.1.6 1.2 1.7 1.3 2.8-.7.3-1.3-.4-2.1.2zm7.2-95.2c.8 1.1.3 2.5 1.1 3.8.7 1.2 2 1.8 2.6 3.1.1.3.7.5 1.1.3s.4-.7.2-1.1c-.2-.5-.2-1-.3-1.5-.2-1.1-1.3-1.8-1.1-2.9.9-.3 1.4 1.2 2.3.1.5-.5.3-1 .1-1.4-.3-.9-1.3-1-1.8-.7-1.3 1-2.6.5-3.9.1.1-.1-.1.1-.3.2zm34 51.8c2.5.6 3.2.1 4.2-1.7.8-1.3.2-2.7.6-4 .4-1.2-.1-2.1-.5-3-.3-.8-1.2-1.3-1.8-.6-.7.7-1.6 1.9-.8 3 1 1.4.5 2.8.4 4.3-.1 1.2-.4 2.2-2.1 2zM384 438.2c-1.3-.4-2.2.6-3 1.3-.6.4-.8 1.4-.2 2.1 1 1.2 5.3 2 6.8 1.2.5-.3.8-.8 0-1-1.2-.3-1.3-1.3-1.4-2-.2-1.4-1-1.8-2.2-1.6zm16.7-164c1.1.1 2.1-.3 3.1-.4.2 0 .6.1.2-.4-.9-1.1-1.6-2.4-2.5-3.5s-3.5-1.5-3.7-.6c-.2 1.3-.7 2.7.1 4.1.7 1.3 1.8.8 2.8.8zm-93.4 155.3c1-.5 1.6-.1 2.2-.1.4 0 .9.2 1-.4.1-.4-.4-.4-.7-.6-2-.8-3.6-.5-5.2 1.2-1.2 1.2-1.3 1.1-.1 1.9.1.1.2.1.2.2.7 2.2 2.6 1.2 4 1.5-.9-.5-1.8-1-3.2-1.7 1.6-.1 2.7-.2 3.7.3.7.4 1.4.6 1.7-.3.3-.8-.5-.9-1-1.1-.7-.2-1.5-.5-2.6-.9zm181 228.8h-1.2c-.4 0-.9.1-.9.6 0 .4.1.9.7 1.1 2.4.9 4.7 1.7 6.6 3.4.6.5 1.3.5 1.9 0 .8-.6.3-1.1-.1-1.6-1.7-2.4-4.7-2.3-7-3.5zm-92.4-324.9c-1.7.4-2.8-.2-3.8-1.6-1.3-1.6-3.1-1.7-4.6-.9-.9.5-1 1.3-1 2.1s.7 1 1.3 1.2c2.8.9 5.4-.6 8.1-.8zm62.9 316.8c1.7.4 3.2-.3 4.7-1.1.7-.4.9-1.1.9-1.7-.1-.8-.8-1.4-1.5-1.7-.4-.2-1-.3-1.4.2-1 1.4-2.9 1.5-4 2.8-.3.4-1.2.5-1 1.2s1 .3 1.5.3c.2.1.4 0 .8 0zm-21.5-354.1c1.3.1 1.7 1.1 1.5 1.8-.5 1.8.4 1.7 1.6 1.5.6-.1 1.3-.2 1.9-.2.5-.1 1-.2 1.1-.7s-.1-.9-.4-1.4c-.7-1.1-1.9-2-2.2-3.3-.1-.5-.3-.8-.8-.7s-1 .2-.9.8c.3 1.4-.5 1.8-1.8 2.2zm-53.1 137c.4.4.7.4.9.3 1.8-.5 3.6-.5 5.4.1 1.6.5 3.2 0 4.6-1.1.3-.2.6-.3.5-.8-.1-.4-.2-1-.7-.9-2 .1-4 0-5.8.8-1 .5-1.8.8-2.8.2-.6-.4-1-.5-1.2.4 0 .4-.5.6-.9 1zm50.5 213.2c-.9-1.6-2.1-.8-3.2-.8-1.7 0-3.3.5-4.7 1.7-1.1 1-.3 1.6.4 2.2.3.3.3.3 1-.6.2-.3.5-.3.8-.3 1.3 0 2.7-.4 3.9.7-.3-1.7.8-2.3 1.8-2.9zm-.9-295.1v.5c-.1 1.1.3 2.4 1.2 2.4 1.2.1 2.2-.9 2-2.3-.1-.6.2-.9.5-1.2.7-.8.5-1.8.5-2.7 0-.5-.3-.9-.7-.7-1.1.6-2.1 1.4-3.2 2.2-.7.5-.3 1.2-.3 1.8zm-127.9 43.3c1.4 0 2.2-1.4 1.8-2.8-.6-2-2.4-2.5-3.7-3.5-.3-.2-.8-.1-1.1.2s-.4.5-.2.9c.6 1.3 1.5 2.6 1.9 4 0 .5.6 1.1 1.3 1.2zm28.2-132.2c-1.7-1-.4-1.3.3-1.8.4-.3 1.6-.1 1.2-.8s-.3-1 0-1.5c.2-.3.4-.8-.1-1.1-.4-.3-1-.2-1.2 0-.9 1.4-2.7 1.8-3.7 3.1-.6.8-1 1.9-.6 2.6.5.9 1.6.2 2.4 0 .7 0 1.2-.3 1.7-.5zm13.6 151.6c-2.1 0-3.8 1.2-4.5 3-.2.4-.4.8 0 1.1.4.4.8.1 1.1-.2.4-.3.8-.7 1.2-.4 1.7 1.1 2.8 1 3.2-1.2 0-.1.1-.1.1-.1.4-.4 1-.6.6-1.4-.4-.7-1-.9-1.7-.8zm-12.3 21.8c-1.2.4-3.3.2-5.1 1-.5.2-1.1.5-.9 1.1.1.4.5.8 1.1.8 2 .1 4.1.4 6-.2.5-.1 1.4-.4 1-1.3-.4-.6-.2-1.8-2.1-1.4zM430 282.9c-.1-1.4.2-2.6-.7-3.5-.3-.3-.4-.6-.9-.3-.3.2-1 .3-.8.8.3.6 0 1.4.6 1.9.7.6.7 1.3.5 2.3-.5 2-1 4.1-.6 6.2.1.4 0 .7.5.8.3.1.5-.1.5-.3-.1-.9.6-1.4.8-2.2.5-2.1-.5-4.1.1-5.7zm-96.2 131.5c-.8-.1-1.2.3-1.6.9-.6.7-.2 1.8.3 1.6 1.4-.7 1.8.3 2.6.9.6.5 1.5.3 2-.4.3-.4.4-1.1.8-1.3 1.4-.9.3-1.4-.2-1.9-.8-.7-1.7-.4-2.4 0-.6.2-.9.5-1.5.2zm40-44.5s.5-.6-.4-.8c-.6-.1-1.4-.4-1.8.2-.4.7-.7 1.6-.8 2.5 0 .2.5.7.9.2.2-.3.5-.4.7-.1 1.6 2.1 4.3 1.8 6.3 3.1.3.2.7.4 1.1.4.5.1 1 0 1.1-.6.1-.5-.4-.6-.8-.7-1.5-.5-2.9-1.2-4.5-1.4-1.2-.2-1.8-1-1.8-2.8zm46.6-112c0 .1.1.4.2.7.3.5 0 1.4 1 1.5 1 0 .7-.9.9-1.4.7-1.7.3-3.5.5-5.3.1-.6-1.1-1.6-2-1.6s-.7.9-.7 1.6c-.2 1.4.7 2.9.1 4.5zm-82-19.1c-.4.8.3 1.2.8 1.7.3.4.6.1.9-.2.5-.5.9-.9.6-1.8-.7-1.9-2.3-3.1-3.2-4.7-.5-.9-1.2-1-2.1-.9-.3 0-.6.2-.5.6.1.8.2 1.5 1.1 1.9 1.3.6 2.8 1.4 2.4 3.4zm-28.9 402.5c1.3-.3 2.5-.5 3.8-.9.5-.2 1.4-.4 1.3-1-.1-.8-1-.7-1.6-.6-2 .5-3.8.8-5.6-.7-.4-.3-1.3-.1-1.5.7-.2.7-.2 1.5.7 1.7.9.4 1.9.6 2.9.8zm7.3-398.2c0 .2-.4 1.1.8 1.1 1.2.1.8-.9.9-1.5.4-2.1.4-4.2 1.8-6 .5-.6-.1-1-.5-.9-.8 0-1.6.2-2 1.1-.7 1.9-1 3.8-1 6.2zm-18.3 181.4c-.1 1.1.6 1.6.4 2.4-.2.7 0 1.4.9 1.3.8 0 1.6-.4 1.8-1.2.3-1.4 0-2.8-.6-4.1-.4-.7-1-.8-1.6-.4-.3.2-.9-.4-.7.2.2.7-.2 1.4-.2 1.8zm137.3 147.7c-.5.1-1 .3-1.5.3-1.1-.1-2-.1-2 1.4 0 .3-.4.6-.6.8-.3.4-.8.9-.3 1.4a1.25 1.25 0 0 0 1.6.3c1.2-.7 2.4-1.6 3.6-2.4.5-.3.3-.7.2-1.1-.2-.3-.4-.7-1-.7zm-11.9 85.6c.1.4-.4 1 .2 1.2.5.2 1.1-.1 1.4-.5.4-.5.8-1 .8-1.8.1-1 0-2.1.3-3 .2-.6.6-1.1-.3-1.4-.7-.2-1.4-.2-1.6.7-.4 1.6-1.3 3.1-.8 4.8zm-46.4-317.2c0-.1-.2-.4-.3-.8-.3-1-.2-2.1-1.8-1-.7.5-2-.3-2.7-1.2-.2-.3 0-1.1-.7-.9-.4.1-.9.6-1.1 1.1-.3.6.4.7.7 1 .6.6 1.8.5 2.1 1.4.6 1.5 2 1 2.9 1.4.7.3 1.1-.2.9-1zm-2.5 75.5c-.2-.9 2.3-2-.3-2.7-.4-.1-.2-.6-.1-.9.2-.4.6-1 0-1.2s-1.1.2-1.2.9c-.3 1.7-1.8 2.3-2.9 3.2-.2.1-.7-.2-.8.3 0 .4.4.5.7.7.8.5 1.7.3 2-.4 1-2.2 1.7-.8 2.6.1zm3.9-124.7c.2-.7-.2-1.2-.7-1.4-.8-.3-.6.6-.9 1-.3.6-.7 1.1-1.1 1.6-1.1 1.1-.8 2.8.7 3.3.7.3 2.2-.8 1.9-1.4-.5-1.2-.1-2.1.1-3.1zm63.6 93.9c.2.9-.8 1.5 0 2 .6.4 1.3 0 1.8-.4 1-.7 1.1-2.1 1.4-3.1.2-.5-.5-1.6-1-1.9-.9-.5-1.1.7-1.7 1.1-.9.8-1.1 1.6-.5 2.3zm-40-18.6c.4-.9-.2-1.4-1.1-1.5s-1.7.6-1.5 1.3c.4 1.4-.5 1.3-1.3 1.6-.5.2-1.1.5-1 1.1.1.5.7.6 1.1.6 1.1-.2 3.1 1.3 2.8-1.5 0-.1.3-.2.4-.3.7-.1.8-.5.6-1.3zm37.8 14c.2.7.3 1.5.9 2.1.3.3.7 0 .9-.2 1.4-1.3 2.2-2.9 2.8-4.6.1-.4-.1-.7-.4-.9s-.7-.1-.8.2c-.4 1.1-1.6 1.2-2.4 1.9-.6.4-1.1.8-1 1.5zM328 430.8c.9.1 1.7-.3 1.5-1.4-.2-1 .4-2.6-1.5-2.7-1.2 0-2.3.9-2.6 1.8-.3 1.2 1.1 2.3 2.6 2.3zm107.2 106.4c-.1.9.2 1.6 1.1 1.6 1.3-.1 2.6 0 3.8-.8.1 0 0-.2 0-.3-.3-.7 0-1.9-1.3-2s-2.6 0-3.6 1c0-.1.1.2 0 .5zm-93.5-206.6c1.6.4 3.1.4 4.6.4.8 0 1.8.1 1.7-.9-.1-.8-.6-1.6-1.8-1.8-2-.1-3.3.6-4.5 2.3zm99.1 140.5c-.7-.3-1.1-.6-1.5-.7-1.1-.3-2.2-.5-1.1-2 .3-.4 0-.8-.5-.8-1.1-.2-1.9.1-1.9 1.4 0 1.2-.1 2.4-.5 3.5-.2.6.1.7.4.9s.7.1.9-.3.5-.8.4-1.3c-.3-1.6.8-1.3 1.5-.8.6.4 1.2.5 2.3.1zM328.4 253.3c2.8 0 5.6-1.8 6.5-4.3.1-.3.5-1-.3-1.2-.6-.2-.5.4-.7.7-1 1.7-2.2 3.2-4.4 3-.5 0-.9 0-1.4.2-.5.1-.9.6-.8 1 .1.6.8.4 1.1.6zm4.1-16.8c-.9-.1-1.5.7-1.6 1.7-.1 1.1.9.7 1.5.9.9.3 2.2.1 2.5 1.5 0 .2.6.6 1.1.4.3-.1.3-.3.4-.5 0-1.3-2.3-4-3.9-4zm-17.5 165c-.6 1.3-.8 2.1 1.1 2 1.2-.1 2.5.2 3.8.4 1 .2 2.7.7 3-.7.1-.5-1.8-.9-3-1-1.6 0-3.4.7-4.9-.7zm19-171.1c-1.3-1.4-2.4-1.3-3.9-.4-1.3.7-2.8 1.6-4.5.9-.4-.1-1.1-.2-1.1.4 0 .4.5.7 1 .7 2.9-.5 5.9-.1 8.5-1.6zm112.4 204.7c-.2-.6-.7-1.2-1.3-1.6-.8-.5-1.6-.9-1.9.8-.1 1 .3 2-.2 3-.3.6.7 1.5 1.1.9.8-.9 2.1-1.5 2.3-3.1zm-26.1-76.3c-.2.7-.6 1.4.5 1.5.8.1 1.6.1 2-.9.5-.9.3-1.9.8-2.8.3-.5.9-1-.2-1.3-.7-.2-1.3-.2-1.4.7-.1.7-.3 1.3-1 1.5s-1 .6-.7 1.3zm-9 47.7l2.9-.3c.4 0 1 .1.9-.5 0-.6-.4-.9-1.1-.9-1 0-2.2.2-3-.2-1.2-.6-1.8.2-2.5.6-.8.4.3 1.1.1 1.7-.1.2.5.4.5.3.5-1.4 1.6-.6 2.2-.7zm23.4-59.9c-.4.4-.5.8.2.9s3.5-1.9 3.4-2.6c-.1-.9-.9-1.9-1.7-1.7-1.7.4-2.5 1.6-1.9 3.4zm-106.5 45.3c.9-.3 1.7-1.2 2.2-2.3.5-1.2 1.2-2 2.6-2.1 1.1-.1-.6-1 .4-1.3.4-.1-.3-.6-.6-.8-.3-.4-.5 0-.8.3-1.5 1.8-3.1 3.6-4.7 5.3-.2.2-.4.3-.3.6.3.4.5.5 1.2.3zm106.6 19.8c.2.6-.2.8-.4 1.2-.7 1-1.1 1.8.1 2.8.4.3.5.9 1.1.8.9-.1.4-.8.5-1.3.4-1.3-.7-2.6.2-3.9.3-.4.5-.8.1-1.1-.4-.4-.8.1-1.1.2-.5.3-.9.7-.5 1.3zm-149.3 220c2.2.1 1.2-1.9 2.1-2.6-.6-.3-.1-1.6-1.3-1.5-1.3.1-2.3 1.3-2.3 3.1.1 1.2 1.1.7 1.5 1zm7.4-4.7c-.3-.5 0-1.3-.3-1.9-.5-.9-1.3-2-2.4-1.6-1.2.5-.4 1.5-.1 2.4.2.7.5 1.3 1 1.8.4.4.8.4 1.3.2.3-.1.5-.3.5-.9zM338 399.5c1.2-.2 2.1-.9 2.9-1.8-1-.1-.8-1.7-2-1.6-1.1.1-2.6 1.4-2.4 2.5.2.7.8.8 1.5.9zm80.8 29.8c.7 0 .9-.4 1-1 .2-.7.2-1.3.6-1.9.4-.5.5-1.2 0-1.8-.4-.5-.9-.1-1.3 0-.7.3-1.2.7-.9 1.6.2.5.3 1-.3 1.4-.4.2-.7.7-.5 1 .3.3.9.4 1.4.7zm21.8 49.1c-.6 0-.8.4-.9 1.1 0 .5.4.9.2 1.5s1.7 2.5 2.3 2.2c.5-.2.5-.6.4-1-.3-1-.4-2-.8-3-.2-.7-.5-.8-1.2-.8zm-60.4-47.3c-1.3-.3-1.9.7-2.8 1.2-.4.2-.3.9-.1 1.3s.7.3 1.1.2c.7-.2 1.4-.5 2.1-.7.7-.3 2.1.1 2-1.1-.1-1-1.5-.6-2.3-.9zm97.6-17.4c-.5-1-1.3-.9-1.9-.7-1.4.3-2.6 0-3.9-.4-.8-.3-1.6 0-2.4-.1-.4-.1-.7.4-.8.8s.1.6.4.6c2.9-.1 5.7.4 8.6-.2zm-62.7-52.8c-.6-.7-1-1.1-1.3-1.6-.4-.7-.4-1.6-1.5-1.4-1.2.1-.9 1.2-1.1 1.9-.4 1.1.1 1.6 1.3 1.6.8-.1 1.6-.2 2.6-.5zm-8.9-189.8c0 1.6.8 3.3.7 5 0 .5.3 1.1 1 1 .6-.1.6-.5.6-1.2-.1-2.2-1.7-4-1.6-6.2 0-.1-.3-.3-.3-.3-.2.1-.5.3-.5.4 0 .4.4.7.1 1.3zM345 443c-.1 0-.3 0-.4.2-.3.7 1 3.8 1.8 4 .3.1.6 0 .7-.3.5-1-.5-2.1.4-3.1-.7-.2-1.4-.7-2.5-.8zm-14.7-217.3c0-.5-.4-.6-.8-.7-1.1-.4-3.3.7-3.6 1.8-.1.5.1.8.4 1.1s.6.3 1 0c.6-.6 1.4-.8 2.2-1 .4-.1.5-.7.8-1.2zm111 142c1.2.4 1.6-.8 2.1-1.6.3-.4.5-1.3-.2-1.5s-1.7-.5-2.1.5c-.2.4-.1.9-.6 1.2-.3.1-1.1 0-.8.8.3.5.8.7 1.6.6zm-97.7-135.6l-2.1-1.8c-.6-.5-1.4-.9-1.8.1-.2.4-1.2 1.3.4 2 1.2.5 2.1.2 3.5-.3zm74.6-71.2c.2.9.5 2.1.7 3.3.1.4.3.7.8.5.3-.1.7-.4.7-.4-.3-.8.1-1.9-.2-2.5-.5-.8-.9-1.4-.8-2.3.1-.7-.3-.7-.7-.6-.4 0-.6.3-.4.7.1.3.1.6-.1 1.3zM371.1 341c-.9 0-1.4 0-1.5.6s.5.7.9.9c1.5.9 3.6.5 4.7 2.4.1.2.5.3.8 0 .2-.2.1-.4-.1-.6-1.4-1.7-3.2-2.5-4.8-3.3zm3.3 135.5c.4.4.9.5 1.4.6.8.1.4.9.6 1.2.1.1.5.2.6.1 1-.4 2.9 1.2 2.9-1.3 0-.2.4-.5.7-.7.5-.5.9-1 1-1.7-.9.2-.9.2-1.4 1-.9 1.6-2.2 1.9-3.8 1.1-.4-.4-1.1-.9-2-.3zm46.2-328.7c-1.3.5-2.3.4-3.1-.8-.2-.3-.8-.3-.9.3-.1.7 2.1 3.2 2.8 3.2.5 0 1.3-.7 1.2-.8-1.3-.5.1-1.1 0-1.9zm-52.2 299.5c0-.6-.4-.9-1.2-.9-1.4 0-2.3 1-2.4 2.4 0 .5.1.6.6.6 1.3 0 3-1.1 3-2.1zm3.5-91.3c-1.5-1.7-3.4-.8-5.2-.6-.3 0-.6.2-.6.5 0 .4.3.5.6.5 1.8.2 3.6.9 5.2-.4zm47.9 13c.9-.4 1.5-1.1 1.4-2 0-.7-.1-1.8-1.1-1.6-1.2.2-1.6 1.5-1.9 2.4-.2.6 1 .8 1.6 1.2zm8.7 253.1c.5.9 1.3 1 1.7 1.4 1.4 1.5 3.7-1.5 4.9 1 .1.2.6 0 .8-.4.1-.3.4-.6.5-.7-1.7-1.4-3.7.2-5.5-.6-.6-.4-1.3-.9-2.4-.7zm-11.1-231.5c0 .3-.4.8.2 1.2.5.3 1 0 1.3-.2.5-.3.3-1.1.1-1.3-.6-1.1-.8-2.2-1.3-3.4-.2-.5-.7-.5-1-.2-.4.3-.3.7 0 1.1.7.8.8 1.7.7 2.8zm-2.4 22.1c-1.6-.4-3-1-3.6.9-.2.7.3 1.5.9 1.7 2.4.5 1.2-2.2 2.7-2.6zm-86.1-169c-.2.7.2 1.2.8 1.5.4.2.9.2 1.3-.2.6-.6-.1-1.1-.4-1.5-.4-.6-.2-1.1 0-1.6.2-.4.4-.8-.1-1s-.9.1-1.2.5c-.5.7-.2 1.6-.4 2.3zm-.1 330.5c1.5.2 1.7-.9 1.8-1.9s-.9-1-1.5-1.1c-1.1-.1-1.5.7-1.6 1.7 0 .8.6 1.2 1.3 1.3zM417.1 151c0 1-.4 1.5.2 2.1s.9 1.3 1 2.2c.1.7.4 1.4 1.2 1 .6-.3.7-1 .4-1.7-.6-1.4-1.7-2.3-2.8-3.6zm-108 276.6c.7-.6 2.1.9 2.5-.5.1-.5-1.6-1.2-2.5-1.1-1 .1-2.9.1-2.9 1 0 1.2 1.7 0 2.5.5.1.1.1.1.4.1zM440 496.3c.4-.3 2 .1.7-1.3a.68.68 0 0 1 .1-1c.8-.7-.1-.6-.4-.8-.9-.5-1 .6-1.5.8-.4.2-.8.8-.4 1.3.3.7.7 1.1 1.5 1zm10.5 29.2c.1-.8-.3-1.1-.7-1.3-.5-.2-.9-.4-1.3.1-.6.8-.3 2-1 2.9-.2.2.2.5.6.5.3 0 2.4-2.1 2.4-2.2zm-113-257.3c-.7.3-1.8.3-1.5 1.8.1.7 0 1.5 1 1.4 1.4-.2 1.2-1.6 1.5-2.4.2-.6-.5-.8-1-.8zm79 53.3c.9 0 1.3-.7 1.8-1.3.5-.7.5-1.6-.2-2-.9-.5-1.2.3-1.4 1-.2.5-.6.9-.8 1.3-.6.8-.2 1 .6 1zm-31.2 96.3c.9-.1 1.5-.4 2.3-.1.6.2 1.5-.2 1.5-1 0-.4-.5-1-1.3-1-1.4 0-2.2.6-2.5 2.1zm-52.7 10.7c-.5.1-1.3 0-1.1.6s.3 1.8 1.3 1.6c.9-.2 2.4-.1 2.3-1.4-.3-1.6-2 .3-2.5-.8zm105.2 63.8c-.5-.6-.3-1.6-1.1-2-.7-.4-1.2 0-1.8.3-.1.1-.7.3-.2.5.9.3 1.2 1.1 1.8 1.8.2.2.5.5.9.2.3-.2.4-.5.4-.8zm-18.1-59.4c0-.7-1.3-2.3-2-2.4s-.6.8-1 1c-.1.1 2.1 2 2.4 2 .5.1.7-.1.6-.6zm-73.6 149.5c-1.2-.5-2.2-1.2-3.6-1-.4.1-.9.2-.8.7s.3 1 .6 1.4c.2.3.6.2.8-.1.7-1 1.9-.9 3-1zm40.3-233.9c.8.9.4 2.7 2.2 2.6.5 0 1-.5.9-1.1-.5-1.2-1.4-1.8-3.1-1.5zm59.9 27.4c.1.5-.5 1.3.3 1.4.7.1 1.1-.5 1.2-1.2 0-.2.1-.5.1-.7 0-.4 1 0 .5-.6-.4-.5-1-.8-1.7-.2-.3.4-1 .7-.4 1.3zm-95.4-150.4c-.5.5-1.7.5-1.6 1.7 0 .6-.1 1.2.8 1.2 1 0 1.5-.6 1.7-1.4 0-.6-.2-1.3-.9-1.5zm68 130.1c1-.1 1.7.4 2.2-.5.5-.8.4-1.6-.1-2.3-.2-.3-.5-.7-1-.5-.4.2-.3.6-.2.9.1.8.2 1.6-.9 2.4zm-66.1 52.5c-.7.1-.9.7-.9 1.4 0 .9.5 1.3 1.3 1.1.5-.1 1.3-.2 1-.8-.2-.6-.2-1.7-1.4-1.7zm76-84.9c0-.8 0-1.5-.8-1.6-.7-.1-.7.5-.7 1.1 0 .4-.3.7-.4 1.1s-.7.9 0 1.3c.8.4.9-.3 1.2-.8.5-.3.8-.7.7-1.1zm19.4 47.8c.1-.5-.3-.6-.6-.6-.9.2-1.7.3-1.8 1.5 0 .7.4 1.4.8 1.3 1.2-.1 1.2-1.3 1.6-2.2zM348 427.9c-.1-.9-.6-1.2-1.3-1.2-.4 0-1.2-.1-.9.6.3.8.2 2 1.2 2.1s.5-1.2 1-1.5zm-30.5 142.8c.5.6 1.1 1 1.8 1.2.8.2 1.3-.1 1.4-.8.2-.9-.5-.8-1-.9-.8-.2-1.6-.4-2.2.5zm-11.6-155c-.1-.6-.3-1.2-.9-1.1-.7.1-1.7 0-1.9 1.1-.1.7.4.9 1 .9.8.1 1.5 0 1.8-.9zm27.5-18.6c.3.4-.8 1.3.6 1.2 1-.1 1.4-.6 1.4-1.4.1-1-.9-.8-1.4-.9-.9-.2-.7.5-.6 1.1zm80.1 11.7c.8.5 1.1 1.3 2 1.4.7 0 1.2-.2 1.3-.9s-.5-.8-1-1c-.7-.3-1.4.1-2.3.5zm28.6-32.9c.1-.4.1-.7-.2-.7-.3-.1-.6-.1-.8.1-.5.3-.9.7-1.3 1.2-.3.3-1.1.3-.8.9s1 .4 1.5.2c.8-.5 1.3-1.1 1.6-1.7zm-18.6 47.7c.6.9.8 2.2 2.4 1.6.6-.2.5-.8.3-1.2-.7-1.1-1.6-1.2-2.7-.4zm17.5-14.5c.6-.3 1.6.1 1.8-.9.1-.6-.5-1.1-1.1-1-.7.1-1.6.3-1.8 1.1s.6.7 1.1.8zm-77 122c1.2 1.4 2.3.5 3.5-.1.4-.2.7-.5.5-1s-.7-.4-1.1-.2c-1 .6-1.8 1.2-2.9 1.3zm-19.7-294.4c0-.7-.3-.9-1-1-1-.1-1 .8-1.1 1.3-.2.7.4 1.3 1.1 1.3 1.1 0 .5-1.2 1-1.6zm2.5 137.1c0-1.1-.3-1.8-1.2-1.9-.6-.1-.7.6-.5.8.3.7-.3 2 .9 2.2.8.2.7-.8.8-1.1zm28.3 99.7c-.3 0-.7 0-.5.4.1.2-.2.6.3.6.9 0 1.6.4 2.3.9.4.2.9.1 1.2-.3.2-.3-.1-.6-.3-.6-1.1-.1-2.1-.6-3-1zm5.3-145.6c0-.7-.5-.9-1.1-.8-.8.1-1.1.6-1.1 1.3-.1.7.4.9 1 .9.9 0 1.2-.6 1.2-1.4zm-3.9 100c0-1.2-.8-1.6-1.6-2-.3-.2-.9-.5-1.2.1-.2.5 0 .9.4 1.2.6.7 1.4.5 2.4.7zm-39.3-196.3c.5 0 1.1.1 1.1-.5 0-.8-.7-1.1-1.3-1.2s-1.4.2-1.4.7c0 .9 1 .7 1.6 1zm25.7 224.2c.8 0 1.6.1 1.7-.8.1-.7-.7-.8-1.1-.8-.7 0-1.6.3-1.7.9-.1.9.8.6 1.1.7zm60.8-40.6c-.5-.4.1-1.4-.6-1.5-.6-.1-1.3.5-1.4 1.2-.1.6.4 1 1 1 .4 0 .9 0 1-.7zm-55.9-105.4c.4-.3 1.1-.7 1.2-1.2.1-.6-.6-1-1.2-.9-.7.1-1 .7-1 1.2-.1.5.3.8 1 .9zm8 76.5c-.8-.9-1.6-1.3-2.7-.8-.3.2-.8.4-.8.8.1.6.6.4 1 .3.8 0 1.6-.2 2.5-.3zm60.7 108.9c-.9-.5-1.8-.5-2.4.2-.3.3-.1 1.1.3 1.2 1.3.5 1.3-1.1 2.1-1.4zm-66.6-141.4c-.3-.6-1-.7-1.1-1.3-.1-.4-.3-.8-.8-.6-.4.1-.7.4-.7.9s.2.7.6.9c.6.3 1.2.2 2 .1zm12.2 8.2c-.4 0-.9.1-.8.5.3.8 1.2 1 1.9 1.3.4.2.8-.3.7-.8-.3-.8-1.2-.7-1.8-1zm-19.4 167c.6-.4 1.9.2 1.7-1.1-.1-.4-.1-1.1-.7-1-1.3.1-.6 1.4-1 2.1zm93.7 13.8c1-.3.8-1.4 1.3-2.1.2-.3-.1-.5-.4-.6s-1 0-.9.3c.3.8-.8 1.7 0 2.4zm-14.6-217.6c.1-.4.2-1.1-.7-1.1-.5 0-.9.5-.8 1 .1.6.4 1.3 1.1 1.3.6.1.5-.6.4-1.2zm-71.8 148c.7-.8 1.9-.2 2.1-1.4.1-.4-.2-.5-.7-.4-.8.1-1.8.1-1.4 1.8zm28.8-83.4c.4-.4 1.4.2 1.5-.7 0-.5-.4-.9-1-.9-.8 0-.9.6-1.1 1.1-.3.5.2.4.6.5zm32.8 282.9c-.6-1.9-2.3-.9-3.4-1.5.7 1.4 2.7.1 3.4 1.5zM310.4 396.9c-.4-.5-.8-1-1.2-1.4-.3-.3-.8-.3-1.1-.1-.2.1-.3.3-.2.6.1.4.3.6.7.7.5 0 1.1.1 1.8.2zm-4.9 40.4c.4-.2 1.3.3 1.3-.5s-1-.6-1.6-.6c-.4 0-1.1-.3-1.1.4-.1.7.6.7 1.4.7zm76.6 10.7c.1.7.6 1 1 1.3s.8.9 1.3.3c.5-.8-.4-.7-.8-.9-.5-.3-.8-.8-1.5-.7zm-24.6 80c-.6.1-.9.5-.9 1 0 .7.7.8 1.2.9.4 0 .7-.2.7-.6-.1-.7-.4-1.2-1-1.3zm29.7-169.5c-.3-.4-.6-.8-1.3-.6-.4.1-1.1.2-.9.8.1.3.6.9 1.2.7.5-.1.9-.2 1-.9zm44.5 49.1c-.5.1-.9.3-.9.8 0 .6.6.7 1 .7s1.1.1 1-.6c0-.6-.5-.9-1.1-.9zm53.9.8c.4-.2 1.1 0 1.1-.6 0-.7-.5-.8-1.1-.8-.5 0-1 .2-1 .7 0 .6.5.7 1 .7zm-93.4-105.6c-.4 0-.9-.1-.8.6.1.6.6 1 1.2 1.1.4 0 .4-.4.5-.8.1-.7-.2-1-.9-.9zM372 461.4c.2-.3 1 0 .8-.7-.1-.5-.3-1.1-.9-1.1-.6-.1-.6.4-.6.8s-.2 1 .7 1zm101.8-168.7c1.3 0 1.7 1.7 3 .4-.9-.4-1.4-1.6-3-.4zm-15 292c-.2-.5-.2-1.1-.9-1.2-.6 0-.9.6-.9 1.1 0 .6.7.7 1.2.7.5.1.7-.1.6-.6zM317.6 267.3c1.1-.1 2-.2 2.6-1.3-1.2 0-2.1.1-2.6 1.3zm66.2 79.2c.9 0 1.5.9 2.5.2a.38.38 0 0 0 0-.6c-.8-.5-1.6-.5-2.4-.1 0 0 0 .1-.1.5zM303 438.9c.4-.1 1-.2 1.1-.8.1-.5-.3-.6-.7-.6-.5.1-1.1 0-1.2.7 0 .5.2.7.8.7zm96.3-137.4c.7 0 .6 1.6 1.6.8.4-.3.3-.8.1-1.1-.6-.7-1.1 0-1.7.3zm-61.5-7.2c.5-.1.7-.6.8-1.2.1-.3-.4-.4-.7-.4-.6.1-1 .4-1 1 0 .4.3.6.9.6zm79.4-52.2c1.2-.2 2.2.2 3.1-.5 0 0 0-.3-.1-.3-1-.3-1.8.1-2.8.3 0-.1-.1.1-.2.5zM363.9 346c-1.1-.2-1.8-.8-2.4-.1-.3.3.1.7.4.9.9.7 1.1-.4 2-.8z"/><path d="M463.1 548.8c.6.7-.1 1.9 1 1.9.9 0 .9-1 1.1-1.6.2-.4.1-1 .7-1.3.7 1.7 0 4.4-1.2 5.6-1.1 1.1-2.4 1.9-3.1 3.3-.3.7-.7 1.6-1.7 1.5-.5-.1-.6-.4-.5-.8 0-1 .1-2.2 1.1-2.5 1.4-.5 1.8-1.4 1.7-2.6-.2-1.3.6-2.2.9-3.5zm-33.4-353c-.4 2-.1 2.3 1.7 1.9.5-.1 1.1-.3 1.5-.1 1.5.7 2.9.3 4.3-.6-.5 2.9-1.2 3.5-3.9 3.3-1-.1-1.7.2-2 1.6-.7-1.1-1.1-1.9-1.9-2.4-1.7-1.1-1.6-2.1.3-3.7zm43.8 335.4v7.9c0 1.2.5 2.3.2 3.5-.1.5-.3 1.1-.7 1.1-.6 0-.5-.7-.5-1.1l-.2-7.8c0-1.2.4-2.4.6-3.6h.6zm1.1-5c-.9-3 .4-6-.8-8.7-.3-.6.2-.9.8-1.1.5-.1 1.2-.1 1 .4-.9 3 .5 6.3-1 9.4zm-1.3-20.7l2.4 7.6c.3.9-1 1.6-.8 2.6 0 0-.4.2-.6.1-.3 0-.2-.3-.2-.5.3-2.3 0-4.5-1-6.7-.4-.7-.2-2-.2-3 .1-.1.3-.1.4-.1zm-47.1-296.3c.9-1.2 3.7-1.9 4.7-1.2.1.1.3.3.3.4l-2 2.7-.4-.1c-.2-1.6-1.4-1.6-2.6-1.8zm5.3-6c-.2 1.5-.9 2.1-1.9 2.2-1.3.2-2.7 0-3.9.6-.4.2-.9-.1-1-.5-.1-.6.5-.7 1-.7h2.8c1.1 0 2-.5 3-1.6zm26.1 311l1.6-1.9c.4-.4.8-.4 1.3-.2.3.1.6.4.6.8 0 .6-.5.9-.9.9-.8 0-1.5.7-2.6.4z"/><path d="M473.3 548.1c.2 2.3.6 4.7-.4 6.9 0-2.3.2-4.6.4-6.9zM313.1 240.8c-.4-1.2 0-2.2.3-3.2.1-.3.5-.5.8-.4.4.2.2.5.1.7-.4.9.3 2.3-1.2 2.9zm132 228.2c-.6 0-.7-.3-.7-.8 0-.7.5-1.1 1-1.2s.5.6.5.9c.2.6-.2.9-.8 1.1zM320.2 323.9c3.2.6 6.5.9 9.8.8 1.3 0 2.4-.4 3.5-.9.8-.3 1.5-.7 2.3-.9 1.9-.4 3 .4 3.5 2.2.1.2.1.6 0 .7-1.3 1.2-2.2 3-4.2 3.3-.7.1-1 .1-1.4.8-.7 1.2-2 1.3-3.2 1.6s-2.5.2-3.7.5c-1 .2-1.1-1-1.9-1-2.5.3-4-1.9-6-2.7-.5-.2-1.2-.2-1.7-.4-.6-.2-1.6-.2-1.6-.9 0-.8.3-1.7 1.2-2.2 1.1-.6 2.2-1 3.4-.9zm2.4-15.1c2.9.1 4.7.8 6.5 1.3.5.1.8.6.8 1 0 .8-.6 1.4-1.3 1.7l-5.6 1.9c-2.4.6-4.8 1-6.8 2.4-.3.2-.6.3-.9 0s-.2-.7.1-.9c.5-.5.7-1 .4-1.7-.6-1.4.1-2.3 1.2-3.2 1.9-1.6 3.9-2.9 5.6-2.5zm.8-8.8c-1.4.9-2.3 2.1-3.7 2.4-.4.1-.9.1-1-.4-.1-.3 0-.6.2-.9 1.1-1.6 2.6-1.4 4.5-1.1zm16 238.2c.1-.3.2-.5.3-.7.2-.6.9-.7 1.4-.3.9.7 1.8.2 2-.6.5-1.3 1.4-1.3 2-.7 2.3 1.8 5.2 1.7 7.6 2.9.4.2 1 .2.8.9s-.7.4-1.1.3c-.6-.2-1.1-.5-1.6-.7-1.1-.5-2.1-.5-3.3.2-1.7 1-3.6 1.5-5.3-.1-.8-.7-1.8-.9-2.8-1.2zm-7.5 11.1c-.6-.1-1.8.4-1.9-.7 0-1.1 1.2-.9 2.1-.9h.9c.5-.1 1.1-.6 1.6-.1.3.3.1.5-.1.7-.5.6-.8 1.3-1.7 1.1-.2-.1-.5-.1-.9-.1z"/><path d="M337.7 538.4c-.5 0-.9 0-1.4-.1-.6-.1-1.1-.4-1.2-1.1 0-.3-.2-.7.2-.7.5-.1 1 .3 1.4.6l1.2.9c-.1.1-.1.2-.2.4zM411 305.3c0 4.2-.8 8.2-2 12.3-1.3-1.3-1.7-2.7-.7-4.1s.8-2.8.9-4.2c.1-1.6 1-2.8 1.8-4zm6.8 3.7c1.9.2 2 1.4 2.1 2.5 0 .4-.1 1-.7 1-.5 0-.8-.5-.8-1-.2-.7-.1-1.5-.6-2.5zm-9 9.2c.6 1.2.7 2.4-.1 3.5-.2.3-.4.7-.8.4-.3-.2-.1-.5-.1-.8.4-1 .7-2 1-3.1zm9.9-15.6c-.2-1.2.7-2 .6-3 0-.2.4-.4.7-.2.3.1.4.4.3.7-.3 1-.6 1.9-1.6 2.5zm-67 159.9c1.2.6 2.6.8 4 .9.2 0 .7.2.5.6s.1 1.1-.6 1.4c-.4.1-1.1.2-1.3-.2-1-1.6-2.2-2-3.9-1-.4.2-.6-.3-.5-.6.4-.8.9-1.1 1.8-1.1zm-3.5 35.9c.9-.6 1.9-.5 2.8-.8.3-.1.8-.2.9.3.1.4-.1.8-.6.9-1.1.4-2.1.7-3.1-.4zm51.2-329.9c.2-.7-.3-1.6.8-1.7 1-.1 1.4.6 1.5 1.5 0 .6.1 1.1.2 1.7.1.8-.1 1.2-1 1.2-.8.1-1.2-.1-1.3-.9 0-.6-.1-1.2-.2-1.8zm7.7-17.8c.4.1.7.2.7.6.1.4.1.8.1 1.2 0 .5 1.3 1.1.2 1.5-.5.2-.7-.9-1-1.4-.2-.4-.3-.9-.5-1.3 0-.3.2-.5.5-.6zm-13.5 317.4c-.1-3.9 1.2-7.4 2.2-10.9 1-3.4 1.6-7 2.8-10.4.9-2.7 1.4-5.3 1.8-8.1.1-.6 1-.8.8-1.7-.1-.3.5-.8 1.1-.5s1.1 1.1.7 1.4c-1.5.9-.8 2.4-1.2 3.6-1.8 5.2-2.6 10.7-3.9 16.1-.9 3.4-1.5 6.9-2.3 10.3-.1.3-.2.6-.2.8-.1.8-.6 1.5-1.3 1.3-.9-.2-.2-1.1-.4-1.7-.2 0 0-.2-.1-.2z"/><path d="M403.1 445.1c2 .8 1.2 2.4.9 3.7-.6 2.8-2 5.4-2.3 8.2-.4 4.4-2.3 8.3-2.5 12.7-.1 2-1.4 4-1.5 6.1 0 .5-.5.8-1 .9-.4.1-.9 0-1.1-.3-.5-.6.5-.7.5-1 .1-1 .5-1.8.7-2.8.5-2.9 1.5-5.7 2.2-8.6a27.13 27.13 0 0 0 .9-4.1c.5-3.6 1.6-7 2.4-10.5.3-1.3.1-2.9.8-4.3zm-10.8 30c.2-.9.3-2 1.6-2.1.7 0 .7.6.6 1-.4.9-.1 2.3-1.6 2.4-.7.1-.7-.6-.6-1.3zm9.9-49.6c2.4-1.2 4.8-.8 7.2-.3.3.1.9.1.7.8-.2.4-.3 1.1-.9.9-2.2-.7-4.7-.5-7-1.4zm3.2 3c1.2-.3 2.5.3 3.8.3.4 0 .7.2.7.6 0 .5-.3.8-.8.7-1.9-.4-3.8.3-5.7-.5-.3-.1-.9-.1-.9-.6.1-.5.7-.6 1.1-.7.6.1 1.1.1 1.8.2z"/></svg>