<svg xmlns="http://www.w3.org/2000/svg" baseProfile="tiny" viewBox="0 0 800 800" overflow="visible"><path d="M105.6 439.8c-4.5-2.1-7.2-3.4-6.5-8 .9-5.2 4.4-3.3 7.3-3.8 17.1-3.5 34.5-.1 51.7-2.1 2.7-.3 6.1-.4 7.7 2.1 2.9 4.4 6.1 2.7 10 2 6.9-1.2 13.7-2.9 20.5-4.6 3.3-.9 5.4-3 4.8-5.7-2.1-8.8 7-15.2 4.3-24.4 2.4 2.6 3.4 6.9 7.8 3.7 1.1-.8 2.1-1.6 1.7-3.1-1.9-7.3.6-14.6-.6-22-.8-4.6 3-9.9-1.7-14.2-.4-.3-.5-1.3-.3-1.8 4.7-10.6-1.8-21.7 1.5-32.6.8-2.7-1.8-6.5-3-9.7-.4-1-1.4-1.6-2.7-1.2-1.2.4-1.8 1.3-1.5 2.5 2.7 13.1 1.1 26.2 1.2 39.4.1 7 2.1 13.9-.3 21.2-.9 2.7 2.5 6.5 2.3 10.3-.1 2.2-.5 4.3-2.7 4.4-2.9.2-2.1-2.7-2.1-4.3-.3-10 .7-20.1-1.4-30.1-.9-4.1-.6-8.8.3-12.9 1.6-7.5-.6-14.8-1.3-22-.4-4.2 1.6-8 .6-12.2s-2.4-6.7-7.1-6.3c-7.5.7-14.9-.8-22.3-1.2-1.9-.1-3.4-.1-4.8-2.1-1.1-1.5-3.7-3.3-4.8 1.2-.9 3.3-4.2 3.5-7.5 2.7-3.9-1-2.4-3.5-2.2-6.1 1-9 1.7-9.6 9.7-5.7 7 3.4 14.6 2.1 21.9 3.2 2.3.3 4.8-1.1 7.4 0 2.8 1.1 6.3-1 6.5-2.6.3-2.4 3.6-4.2.7-7.8-3.2-4 2-8 2.9-12.1.6-2.7 4.2-1.2 6.7-1 6.2.3 8.2 2.3 5.8 8.5-.8 2.2-.2 5.1.2 7.6.9 5.1 3.7 7.5 9.3 7.3 7.2-.3 14.2-2.9 21.6-1.8 1.4.2 3.1-1.3 4.5-2.1 1.6-.9 2.9-3 5-1.1 2.5 2.3 3.6 5.4 3.1 8.7-.5 3.2-3.3 2-5.2 2.1l-28.2 1.3c-8.4.3-8.2 1.5-8.7 9.9-.4 6.4 1.3 12.7.4 18.8-1.7 11.3.3 22.3.7 33.5.4 12.2-.2 24.5 1.2 36.7.2 1.9.1 3.8 1.4 5.4 3.3 4.3 3.1 8.6 2.6 14-.4 3.8 1.6 8.6 1.6 13.1 0 1.9.2 3.7 0 5.6-.3 4.2-1.4 9.8 6.3 8.6.7-.1 2.2.9 2.4 1.7.4 1.6-.6 3.5-2 3.6-9.5 1.2-6.3 8.4-6.5 13.7-.6 19.2 0 38.4-2.6 57.5-.6 4.3 3.2 9.2-1.9 12.8 5.5 4.9 1.3 11.7 3.2 17 3 8.3-1.5 15.6-1.2 23.5.2 4.7-5.2 6.7-9.2 6.9-3.4.2-5.7-3.1-6.4-6.6-1.8-8.6-1.7-17.3-1.6-26 .1-13.1-.8-26.2-.8-39.2-.1-12.5-5-24.5-2.3-37 .9-4.1-.4-8.1-1.3-11.7-.8-3.1-.8-5.8-.4-8.6 1.1-6.4-1-8.8-7.4-10.2-7.3-1.6-14.4.6-21.6-.2-.7-.1-1.8.4-2.3.9-7.6 8.6-17.8 7.1-27.5 6.6-5.8-.3-11.4.6-17.1.9-6.4.3-12.9-.7-19.5-.2-2 .1-5.2-.8-4.6-4 .9-3.9-4.2-8.9 4.3-10.6zm112.7 18.6c.2-1.7.6-3.4.5-5-.2-2.6.4-6.7-3.3-6.6-3.1.1-5.8 2.7-4.9 6.8.7 3.1-.2 6-1.5 8.7-3.1 6.9 2.5 13.4.2 20.8-.9 2.8 1.9 8.5 1.4 13.2-.4 3.1.9 5.9 2 8.6.6 1.5 2 2.3 3.6 2 2-.3 1.7-1.8 1.9-3.4 1.2-7.7-.1-15.6.7-23 .9-7.7-2.1-14.8-.6-22.1zm4.3 100.7c-.9-5.2-.5-9.7-2.3-13.9-1.2-2.7-1.2-6.3-5.8-4.5-3.4 1.3-6.5 2.7-4.6 7.3.6 1.3.9 2.7.4 4.3-2.1 6.9-.5 13.8.6 20.7.5 3 2.2 4.5 5.2 4.6 3.2 0 4.6-2.2 5-4.9.7-4.7 1.1-9.6 1.5-13.6zm-8.2-49.3c-2.5.5-4.5 1-4.2 4 .3 3.6.8 7.5.3 10.6-1.2 6.6 3.6 5.6 6.3 5.5 3.8-.1 4-3.8 3.5-6.9-.4-2.3-2.2-4.6-1.1-6.8 3.4-6.2-2.5-4.8-4.8-6.4zm-6.1-81.8c4.1.9 4.1 3.5 3 6.3-1.5 4 .2 4.3 3.6 3.7 3.1-.6 4.3-1.8 4-5.1-.5-6.7-.7-6.9-10.6-4.9zm-80.6 3.9c-4.4-1.5-8.1-2.5-12.1-.7-.9.4-2.2.5-2.1 1.9 0 1.3 1.2 1.8 2.2 1.9 4 .4 8.3 1.4 12-3.1zm82.5-10.9c3.2-.4 4.2-2.4 4.3-5.4 0-1.9-.5-2.9-2.5-2.5-3.3.6-3.2 3.6-4 5.9-.6 2.1 1 1.9 2.2 2zM452 585.2h48.8c27 0 37.2 14.1 37.2 28.6 0 12.6-6.7 20.8-14.2 24.2 7.5 2.8 17.4 10.8 17.4 25.5 0 19.1-15 33.4-38.8 33.4H452V585.2zm46 44.1c11.5 0 16.2-5.2 16.2-13 0-8.2-6.2-12.4-15.5-12.4h-23v25.4H498zm-22.3 49h21.8c13.1 0 19-5.5 19-15.6 0-9-5.8-14.7-19.1-14.7h-21.7v30.3zm98.6 18.6v-79.7c-4.9 2.3-14 4.2-19.3 4.6v-17.3c10.1-1.9 20.3-7.6 26.4-14.3h16.4v106.7h-23.5zm45.2 0v-1.5c0-18.6 8.3-33.7 31.4-50.5 15-11 19.6-14.8 19.6-24.1 0-9.2-4.5-14.4-13.5-14.4-10.4 0-14.2 6.4-15.7 15.7h-22.4c1.5-18.4 13.6-33.7 38.1-33.7 27.4 0 36.8 16.3 36.8 32.3 0 15.5-6.7 23-26.3 36.8-13.1 9.2-18.4 15.3-20.2 20.1h50.5l-2.9 19.3h-75.4zM463.4 449.5V448c0-18.6 8.3-33.7 31.4-50.5 15-11 19.6-14.8 19.6-24.1 0-9.2-4.5-14.4-13.5-14.4-10.4 0-14.2 6.4-15.7 15.7h-22.4c1.5-18.4 13.6-33.7 38.1-33.7 27.4 0 36.8 16.3 36.8 32.3 0 15.5-6.7 23-26.3 36.8-13.1 9.2-18.4 15.3-20.2 20.1h50.5l-2.9 19.3h-75.4zM597 397.7v20.2h-45.1v-20.2H597zm15.2 21.2c0-13.6 9.5-22 17.4-25.5-8.2-5.1-13.2-11.5-13.2-22.3 0-18.1 13.2-30.1 37.2-30.1 21.9 0 36.3 11.4 36.3 29.8 0 12.3-6.3 18.3-13.6 21.4 7.7 2.9 17.4 11.8 17.4 25.9 0 22-17.6 33.4-41.9 33.4-21.6 0-39.6-11.6-39.6-32.6zm58.5-1.1c0-10.6-7.3-15.4-17.7-15.4-11.6 0-17.5 6.3-17.5 15.3 0 9.5 7.1 15.8 18 15.8 9.9-.1 17.2-4.8 17.2-15.7zm-32.2-45.9c0 7.2 5.2 12 14.9 12 9.5 0 14.6-3.6 14.6-12 0-8.1-5.3-13.1-14.8-13.1-9.7.1-14.7 4.6-14.7 13.1zM397.9 107.1h22.6v92.4h49.6l-2.5 18.6h-69.7v-111zm166.3 69.6l.8-53.9h-.9c-4.9 23-16.3 63.9-26 95.4h-19.5c-7.2-26.5-18.7-73.1-23.3-95.7h-.9c1 13 1.4 37 1.4 56.1v39.5H475v-111h33.8c8 25.9 17.9 64.6 21 81.5h.2c2.4-14.4 15.1-55.2 23.4-81.5H586v111h-21.8v-41.4zm126.3 41.4h-16.6c-.8-3.6-1.4-8.7-1.7-12.9-5.7 11.1-16.8 14.5-30.8 14.5-29 0-44.3-24.2-44.3-56.5 0-31.9 18-57.6 50.8-57.6 26.4 0 40.1 14.8 42.9 33.3h-22.2c-2.1-7-6.9-15.2-22-15.2-19.3 0-26.2 18.4-26.2 39.6 0 21.1 7.4 38.3 26.2 38.3 16.7 0 21.6-11.7 21.6-25.9v-.5H645V156h45.7l-.2 62.1z"/></svg>