<?xml version="1.0" encoding="utf-8"?>
<!-- Generator: Adobe Illustrator 26.0.2, SVG Export Plug-In . SVG Version: 6.00 Build 0)  -->
<svg version="1.2" baseProfile="tiny" xmlns="http://www.w3.org/2000/svg" xmlns:xlink="http://www.w3.org/1999/xlink" x="0px"
	 y="0px" viewBox="0 0 1000 1000" overflow="visible" xml:space="preserve">
<g id="bg">
</g>
<g id="counters">
	<g id="mkr_x5F_hex_x5F_dice">
		
			<rect id="_x35__x2F_8_x22__1000x1000_00000113326326983796682740000004959814346985390471_" fill="none" width="1000" height="1000"/>
		<g>
			<rect x="100" y="200" fill="none" width="300" height="100"/>
			<path d="M107.1,204h20.4v27.6h20.5V204h20.5V278h-20.5v-30.5h-20.5V278h-20.4V204z"/>
			<path d="M197.6,253.7c0,6.4,2,11.9,8.3,11.9c5,0,6.5-3,7.3-5.5h19c-2.3,8.6-8.5,19-26.7,19c-20.3,0-27.7-13.3-27.7-29.4
				c0-14.3,7.2-29.6,28.3-29.6c20.6,0,26.8,14.1,26.8,28.9c0,0.6-0.1,4.1-0.1,4.7H197.6z M213.2,242.8c-0.1-5.4-1.7-9.7-7.6-9.7
				c-6.1,0-7.7,4.7-7.9,9.7H213.2z"/>
			<path d="M255.9,221.3c3.5,7.3,5.6,13.7,6.7,17h0.4c1.6-4.1,4.2-10.7,7.2-17H291L274.7,248l16.2,30h-21.6c-3.3-8-5.6-14-6.9-17.5
				h-0.3c-0.9,2.3-4.1,11.1-6.9,17.5h-21.1l15.6-27.7l-15.6-28.9H255.9z"/>
		</g>
		<g>
			<rect x="600.9" y="199.2" fill="none" width="299.1" height="200"/>
			<path d="M678.5,203.2h28.6c24,0,35.6,14,35.6,35.7c0,23.7-12.8,38.3-36,38.3h-28.2V203.2z M699,262.5h6.8
				c10.7,0,15.8-7.2,15.8-23.3c0-13.9-4.2-21.2-15.5-21.2h-7V262.5z"/>
			<path d="M752.8,199.2h19.8v14.3h-19.8V199.2z M752.8,220.5h19.8v56.7h-19.8V220.5z"/>
			<path d="M835.3,256.5c-1.5,12.4-8.9,21.8-26.5,21.8c-19.7,0-27.1-11.9-27.1-29.2c0-19.2,10.9-29.8,28-29.8
				c20.6,0,25.4,13.8,25.6,22.1h-19.2c-0.2-4.9-1.7-8.8-6.5-8.8c-5.5,0-7.7,5-7.7,16c0,12.4,2.6,16.6,7.4,16.6
				c4.9,0,6.1-3.7,6.9-8.6H835.3z"/>
			<path d="M861.7,252.9c0,6.4,2,11.9,8.3,11.9c5,0,6.5-3,7.3-5.5h19c-2.3,8.6-8.5,19-26.7,19c-20.3,0-27.7-13.3-27.7-29.4
				c0-14.3,7.2-29.6,28.3-29.6c20.6,0,26.8,14.1,26.8,28.9c0,0.6-0.1,4.1-0.1,4.7H861.7z M877.3,242c-0.1-5.4-1.7-9.7-7.6-9.7
				c-6.1,0-7.7,4.7-7.9,9.7H877.3z"/>
		</g>
		<g>
			<rect x="99.9" y="300.2" fill="none" width="300" height="399.8"/>
			<path d="M117.1,409.5L101,335.6h21.5c2.1,14.5,5.3,36.5,6.6,51.9h0.4c2.8-15.4,7-34.6,10.4-51.9H158c2.9,14.4,7.3,35.3,9.7,51.1
				h0.4c1.7-15.2,6.2-40.2,7.7-51.1h19.6l-17.3,73.9h-20.9c-2.9-15-6.8-31.9-9.2-46.4h-0.3c-2.5,14.2-6.8,32.5-9.7,46.4H117.1z"/>
			<path d="M203.3,335.6h28.6c24,0,35.6,14,35.6,35.7c0,23.7-12.8,38.3-36,38.3h-28.2V335.6z M223.8,394.8h6.8
				c10.7,0,15.8-7.2,15.8-23.3c0-13.9-4.2-21.2-15.5-21.2h-7V394.8z"/>
			<path d="M278.9,409.5v-73.9h24.7c15.6,37.4,18.8,45.9,19.7,49.1h0.4c-0.8-8.6-1-21.3-1-32.8v-16.3h18.7v73.9h-23.8
				c-17-41.8-19.5-48.5-20.4-51.3h-0.2c0.7,9.3,0.7,22,0.7,34.7v16.5H278.9z"/>
			<path d="M122.3,516.5c0.8,6,4.3,9.7,11,9.7c6.8,0,9-2.8,9-6.9c0-5.3-3.5-7.8-13.6-10.5c-18.4-5-23.9-12-23.9-22.3
				c0-14.9,12.1-22.6,27.6-22.6c18.3,0,27.8,8.8,28.6,22.5h-19.3c-0.6-4.6-2.7-8.4-9.3-8.4c-5,0-7.7,2.3-7.7,6.3
				c0,4.6,3.3,5.9,13.2,8.7c19.5,5.5,24.9,12.9,24.9,24.2c0,14.1-10.5,23.4-30.1,23.4c-18.3,0-29-9.2-29.9-23.9H122.3z"/>
			<path d="M167.2,482.4h7.4v-14.6h19.6v14.6h9.1v13.9h-9.1v24.9c0,3.5,0.9,4.9,5.2,4.9c1.1,0,1.4,0,2.8-0.2v12.6
				c-3.4,1.1-8.5,1.3-11.1,1.3c-12.9,0-16.5-4.8-16.5-15.9v-27.6h-7.4V482.4z"/>
			<path d="M210.4,500.2c0-11.7-0.1-15.2-0.2-17.7h19.3c0.2,1,0.5,4.2,0.5,6.3c2.5-3.9,7.6-7.5,15.4-7.5c11.7,0,17.5,7.9,17.5,20.2
				v37.7h-19.8v-34.4c0-5.4-1.2-8.6-6.1-8.6c-4.5,0-6.9,2.4-6.9,10.3v32.6h-19.8V500.2z"/>
			<path d="M107,594.8h28.6c24,0,35.6,14,35.6,35.7c0,23.7-12.8,38.3-36,38.3H107V594.8z M127.4,654h6.8c10.7,0,15.8-7.2,15.8-23.3
				c0-13.9-4.2-21.2-15.5-21.2h-7V654z"/>
			<path d="M181.2,590.7H201V605h-19.8V590.7z M181.2,612H201v56.7h-19.8V612z"/>
			<path d="M215,668.7V626h-7V612h7v-3.4c0-12.3,6-18.6,18.9-18.6c3.7,0,6.5,0.5,8,0.9v13.2c-0.9-0.2-2.2-0.3-3.1-0.3
				c-3.2,0-4.1,2-4.1,4.9v3.3h8.2V626h-8.2v42.7H215z"/>
		</g>
		<line fill="none" stroke="#000000" stroke-width="5" stroke-miterlimit="10" x1="100" y1="300" x2="899.5" y2="300"/>
		<g>
			<rect x="680" y="299.9" fill="none" width="199.8" height="400.1"/>
			<path d="M683.8,388.3c0-8.9,5.5-14.3,10.9-16.8c-5.7-2.9-8.5-8.6-8.5-15.1c0-10.6,7.3-20,25.6-20c17,0,25.5,8.6,25.5,19.8
				c0,7.5-3.7,12.2-8.9,14.5c5.5,2.2,11.1,8,11.1,17.3c0,12.9-7.9,22.7-28.8,22.7C691.7,410.6,683.8,399.8,683.8,388.3z M719.8,388
				c0-6.4-2.7-10-8.2-10c-5.9,0-8.1,4-8.1,10.1c0,6.2,3,9.8,8.4,9.8C717.3,397.9,719.8,394.3,719.8,388z M704.6,357
				c0,5.2,2.3,8.3,7.1,8.3c4.9,0,7.1-3,7.1-8.1c0-5.2-2.1-8.2-7.1-8.2C707.1,349,704.6,351.6,704.6,357z"/>
			<path d="M776.7,373.5v15.3h-29.5v-15.3H776.7z"/>
			<path d="M703.8,521.2c0.7,3.4,2.5,5.8,6.8,5.8c6.7,0,7.8-9.4,8.1-17.7c-2.8,3.4-8.1,4.5-12.7,4.5c-12.9,0-22.6-8.5-22.6-22.3
				c0-15.5,10.8-25.5,26.9-25.5c20.7,0,28.1,14.4,28.1,34.4c0,23.2-7.1,39.7-28.6,39.7c-18.4,0-24-9.9-25.1-18.9H703.8z
				 M703.2,489.6c0,7.4,3.1,10.7,7.7,10.7c4.4,0,7.5-2.2,7.5-9.6c0-7.2-2-11.7-7.7-11.7C705.9,479.1,703.2,482.6,703.2,489.6z"/>
			<path d="M781.3,484.4v20h19.4v13.9h-19.4v20.2h-14.2v-20.2h-19.7v-13.9h19.7v-20H781.3z"/>
			<path d="M690.6,668.5v-51.8c-2.4-0.1-6.7-0.4-8.1-0.7v-12.8c5.7-0.4,10.9-3.1,13.9-6.4h13.9v71.6H690.6z"/>
			<path d="M777.3,631.3c0,22.1-7.2,38.5-27.9,38.5c-20.2,0-27.8-15.8-27.8-37.9c0-21.5,8.6-36.3,28.1-36.3
				C768.7,595.6,777.3,609.1,777.3,631.3z M741.4,632c0,17.1,1.8,24.5,8.1,24.5c6.7,0,8-7.7,8-24.7c0-16.3-1.8-22.9-7.9-22.9
				C743.8,608.9,741.4,614.7,741.4,632z"/>
			<path d="M820.2,614v20h19.4v13.9h-19.4v20.2h-14.1v-20.2h-19.7V634h19.7v-20H820.2z"/>
		</g>
	</g>
</g>
<g id="text">
</g>
<g id="scratch">
</g>
<g id="guides" display="none">
</g>
</svg>
