<?xml version="1.0" encoding="utf-8"?>
<!-- Generator: Adobe Illustrator 26.0.2, SVG Export Plug-In . SVG Version: 6.00 Build 0)  -->
<svg version="1.2" baseProfile="tiny" xmlns="http://www.w3.org/2000/svg" xmlns:xlink="http://www.w3.org/1999/xlink" x="0px"
	 y="0px" viewBox="0 0 1000 1000" overflow="visible" xml:space="preserve">
<g id="bg">
</g>
<g id="counters">
	<g id="mkr_x5F_bunker_x5F_1-3-5_00000080906617125196358520000012320956860174163105_">
		
			<rect id="_x35__x2F_8_x22__1000x1000_00000073694667491219480920000000000527245609685177_" x="0.3" y="-0.1" fill="none" width="1000" height="1000"/>
		<polyline fill="#A67C52" points="0.3,401.9 200.3,399.9 297.2,496.2 393.7,537.1 619.2,540.4 692.3,512.9 719.2,476.4 
			800.3,399.9 1000.3,401.9 1001.3,998.9 0.3,999.9 		"/>
		<g>
			<path d="M725.4,498.1c-1.6-1.7-1.9-5.9-4.8-4.6c-3.3,1.4-6.6,4.2-7,8.4c-0.3,3,0.2,5.6,3.5,7.4c3.1,1.6,6.6,0.4,9.8,1.6
				c-6.1,9.2-15.8,13.9-22.8,21.4c-0.6,0.7-1.8,1.1-1.9,1.8c-1.8,10-10.7,10.6-17.8,13.8c-5.9,2.7-11.6,6-14.5,12.9
				c-2.6-2.2-1.3-4.2-0.1-6.3c1.7-3.2,1.1-4.9-2.8-6.3c-6.6-2.4-12.9-1.2-19.2,0c-10.7,2.1-22,2.8-30.5,11c-1.4,1.4-3,2.2-3.4,4.6
				c-0.4,2.6-2.7,4.8-5.3,3.8c-3.4-1.3-0.3-4.2-0.6-6.4c-0.1-0.5,0.7-1.1,1-1.7c1.1-2.3,6-2.8,4-5.9c-1.6-2.4-5.6-3.3-8.6-2.8
				c-11.4,1.6-23.5,0.9-33.1,9.6c-2.6,2.4-7.1,2.6-9.8,5.6c-0.7,0.8-2.1,1-3,0c-0.9-1-0.4-2,0.3-3c2.8-4,5.1-8.5,10-10.3
				c3-1.1,4.7-2.9,4.2-5.9c-0.6-2.9-3.6-2.8-5.6-2.6c-6.4,0.8-13-0.5-19.2,2.5c-4.2,2.1-9-0.5-13.3,0.8c-1.5,0.4-4.2-1.2-4.2,1.7
				c0,2,2.2,2.6,4,3c0.9,0.2,1.8,0.3,2.6,0.6c1.5,0.5,4.5,0,3.7,2.5c-0.7,2.4-3.1,2.8-5.6,1.6c-3.4-1.6-6.7-3.4-10.5-4.5
				c-5.9-1.7-10.8-2.4-16.9,1.2c-6.9,4.1-15.3,4-22.8-0.4c-1.3-0.7-2.3-1.5-3.6-0.8c-4.5,2.4-6.5,1.8-5-3.7c0.1-0.4,0-0.9-0.2-1.2
				c-0.7-1.4-17.6-6.1-19.1-5.3c-6.2,3.2-12.2,7.3-19.4,2.4c-1-0.6-2.1-0.7-3.2,0c-11.2,6.5-24,3.2-35.9,5.8
				c-10.5,2.3-21.3,1.2-31.9,2.3c-7.3,0.7-14.6,1.3-21.9,1.6c-1.6,0.1-5,0.5-4.6-2.3c0.3-2.2,1.3-5.7,5.2-4.6c1.8,0.5,3,0.7,3.6-1.4
				c0.7-2.3-1.3-3-2.5-3.3c-4.4-1.1-8.8-2.2-13.5-2.7c-9.1-0.9-18.1-1.3-27.2-0.8c-1,0-1.5-0.4-1.6-1.6c-0.3-6-4.9-9.5-11.2-8.7
				c-4.9,0.6-9.8-0.5-14.7,1c-0.1-3.3,1.9-4,3.2-4.9c1.8-1.2,4.9-1.4,4.7-4c-0.2-1.9-3.2-2-4.8-3c-9-5.6-18.6-7.9-29.1-6.2
				c-5.6,0.9-9.2-2.1-12.9-5.7c-6.1-5.9-12.8-11-20.7-14.1c-9.1-3.6-18.5-6.4-28.5-5.4c-3,0.3-6.3-0.1-6.6-3.9
				c-0.3-4.6,4.3-3.9,6.4-3.7c7.7,0.7,16-1.2,22.4,5.9c1.9,2.2,6.6,1.6,9.3,3.3c4.7,2.9,12.5,1.1,14.2,8.9c0.1,0.6,1.4,1.2,2.2,1.3
				c6.4,1.2,12.5,3.2,18.4,5.8c2.8,1.2,5.3,0.4,6.2-2c0.7-2-1.7-3.2-3.5-4.1c-1.2-0.5-3-1.1-3.3-2c-3.6-10.9-13.4-9.6-21.6-10.8
				c-3.6-0.5-5.8-1.6-6.8-5.2c-1.5-5.1-4.4-8.1-10.4-8.5c-8.2-0.5-15-5.6-20.6-10.9c-5.9-5.5-12.4-4.8-19-4.3
				c-5.2,0.4-9.8,4.5-13.8-3.6c-2-4.2-9.8-4.1-14.8-3.7c-3.7,0.3-7-0.8-10.5-0.5c-2.5,0.2-4.1-1.8-3.7-4.5c0.4-2.5,1.3-4.7,4.7-4.6
				c2.1,0.1,5.7,1.9,6-1.9c0.2-3.7-2.5-5.4-6.4-5.1c-1.4,0.1-2.9-0.1-3-1.8c0-0.5,1.3-1.7,1.8-1.6c10.4,2.4,15.2-5.4,21.1-11.3
				c0.4-0.4,1-0.6,1.5-1.3c-6.5,0.2-13.1-0.3-19.5,1.2c-1.4,0.3-2.8,0.8-3.5-0.8c-0.7-1.6,0.8-2.2,1.7-3.1c3.7-3.9,8.6-3.5,12.4-2.1
				c14.3,5,29,2.7,43.6,2.9c4.5,0.1,9.3-1,8.6-7.7c-0.1-1,1.9-2.1,2-3.2c0.3-2.8,5-5.6,0.9-8c-3.6-2.1-8-4.8-12.4-1.6
				c-2.8,2.1-6.6,3.2-8,7c-0.6,1.7-2.1,2.6-3.8,2c-6.5-2.4-13.3-0.2-19.9-1.3c-1.3-0.2-3.1-0.6-3.9,0.1c-6.7,5.1-12.9,1.2-19.4-2.1
				c5.2-0.9,10.4-2.6,15.6-2.5c4.4,0.1,5.6-3,8-5c0.9-0.7,1-2.6-0.4-2.6c-1.7,0-1.9-2.8-4.4-1.3c-4.3,2.6-8.8,2.8-14,1.2
				c-6.2-2-8.9-5.4-8.7-11.9c5.6-0.1,10.7-1.7,15.6-4c2.4-1.1,5.1-1.3,7.3-0.6c8.8,2.7,17,0.7,25.4-1.8c8-2.4,16.2-2.1,24.3,0.6
				c7.4,2.5,14.9-1.3,22.5-0.7c11.2,0.9,22.6,2.6,33.5,2.8c11.7,0.2,25.2,2.2,35.7-9.2c7-7.6,14.9-16,27.9-14.6
				c7.3,0.8,14.9-0.5,22.5,0.1c15.4,1.2,30.9-0.3,46.3-0.5c18.9-0.3,37.8-0.7,56.6,1.2c5.1,0.5,10.2,0.5,15.1-1.5
				c1.4-0.6,3.1-0.5,4.6-0.4c16.8,1.4,33.7,0.4,50.5,0.3c16.7,0,33.6-0.8,50.3-1.9c17.3-1.1,34.7-2.1,52.2,0.7
				c6.4,1,13.8,0.4,20.7-0.1c2.8-0.2,5.9-0.8,8.2,1.7c0.5,0.6,2,1.2,2.3,0.9c7-5.9,14.8-0.4,22.2-1.7c1.7-0.3,3.5,0.7,4.7,2.2
				c0.8,1,1.5,2.6,2.6,2.9c7.7,2.1,13,7.4,17.9,13.2c1.7,1.9,4.5,2.5,6.9,2c12.3-2.2,24.8-1,36.7,0.8c11.1,1.6,23,0.9,33.5,7.7
				c4.9,3.2,11.8,0.5,17.7,1.2c2.8,0.3,7.3-1.6,6.7,3.7c-0.6,5.3,3.6,12.5-5,15.2c-3,0.9-6,1.8-9,2.6c-3.5,1-3.9,3.5-3.9,6.8
				c0,3.8,2,4.5,5,4.9c1.5,0.2,3,1.1,4.5,1.4c2.8,0.7,7.1-1.8,7.9,2.3c0.4,2.2-0.1,5.2-0.3,7.5c-0.3,3-5.5,4.3-9,5.3
				c-2.6,0.8-5.6,0.2-8.8,0.3c0.3-3.5,3.3-3.2,4.8-4.5c0.1-2.5-4.1-1.8-3.4-5.1c0.6-2.6,2.3-6.5-2.1-7.7c-4.3-1.1-8.3,0.2-11.8,2.8
				c-1.6,1.2-2.8,2.8-4.2,4.3c-3,3-6.5,3-9.7,0.7c-2.7-2-4.6-0.5-6.8,0.6c-2.7,1.5-2.4,4.4-2.3,6.6c0.2,2.9,3.6,2.2,5.5,2.9
				c2.8,1,6.1,0.3,8.2-1.7c2.7-2.5,5.8-2.2,8.8-2.5c2.1-0.2,4.1,0.4,4.9,2.7c0.9,2.4-0.5,4.2-2.5,4.8c-4.4,1.4-3,5.3-2.7,7.6
				c0.3,2.2,3.5,1.8,5.8,1.6c7.5-0.9,15-1.7,22.6-1.4c4.6,0.2,5.7,2.4,5.2,6.6c-0.5,4.5-2.7,5.1-6.5,4c-6.3-1.9-11.9-2.2-14.8,5.5
				c-1.1,2.9-4.2,3.4-6.8,3.4c-7.6-0.1-13.4,4.4-19.9,7.2c-1.9,0.8-3.9,1.8-3.6,4.3c0.4,2.9,3.2,1.9,4.9,2.3c1.9,0.4,4,0.4,6,0.4
				c4.2,0.1,6.9,3.8,5,7.5c-1.6,3.3-3.7,1.1-5.3-0.4c-7-6.5-7.9-6.6-14.8,0c-0.7,0.7-1.9,1.3-2.9,1.3c-10.8,0.3-19.2,4.6-23.8,14.8
				L725.4,498.1z M336.8,361.5C323,361,323,361,326,370.7c0.1,0.2,0.2,0.4,0.2,0.6c0.7,13.3,8.2,24.6,11.7,37.1
				c0.9,3.3-0.1,9.5,6,10.5c5.1,0.9,5.6,2.9,1.5,6.3c-4.6,3.8-7.3,8.8-5.8,14.7c0.8,3.4,0.7,6.6,1,9.9c0.7,7.7-1,15.5-0.4,22.8
				c0.9,10.4,0.7,20.7,0.4,31c-0.2,5.9-0.7,10.8,6.9,11.8c1.6,0.2,2.8,1.5,3.4,3c1.4,3.5,4.4,3.6,7.7,4.1c15.4,2.3,30.7-4,46.4,0.2
				c8.7,2.3,18,0.9,27.1-0.5c6.6-1,14.6-0.4,19.5,3.2c8.3,5.9,16.4,5.8,25.1,4c4.9-1,9.3-0.7,13.7,1.5c4,2,7.9,2.5,12.3,0.9
				c3.5-1.3,7.5-2.6,11-2.2c10.8,1.3,21.5,3.9,32.3,5.3c10.1,1.3,20.6,0.3,29.5-4.3c6.9-3.5,13.4-4.6,20.4-3.9
				c13.3,1.4,26-3.8,39.2-2.6c1,0.1,2-1,3.1-1.2c9.5-2.3,18.1-7.1,27.4-9.9c8.3-2.5,11.8-5.2,11.9-13.1c0.1-9.9-1.6-19.9-0.3-29.6
				c1.6-11.5-2.6-22.4-1.3-33.8c0.4-4,2.8-8.8,0-12.7c-4.8-6.7-7.4-13.6-5.8-22c0.8-4.3,0.5-8.9,1.1-13.3c0.7-5.4-2.1-11.6,2.5-16
				c3.9-3.7,1.1-7.3,0.6-10.6c-0.3-2.3-4-1.9-6.2-1.9c-6,0-12.1,1.2-17.9,0.4c-8.9-1.1-17.5-2.1-26.6-1.4c-5.8,0.4-12.5,1.9-18-2.5
				c-1-0.8-5.9,0.3-7.7,1.1c-0.7,0.3-1.7-0.1-2.6-0.1c-8.2,0.9-16.6-1.7-24.3-1c-16,1.3-31.9-0.7-47.9,0.8
				c-15.8,1.5-31.8,0.2-47.7,0.3c-5.1,0-10.3,0.3-15.4,1.1c-15.3,2.2-30.7,1.6-46,2.4c-13.2,0.7-26.6,1.3-39.8-0.4
				C360.7,359,347.4,361.6,336.8,361.5z M687.5,425c4.9,1.8,8-4,13-4.4c8.6-0.6,14.6-7.1,22-10.6c5.9-2.8,5.4-5.8,0-9.7
				c-2.5-1.8-5.7-3.2-7.4-5.6c-6.1-8.6-15-14.2-22.3-21.4c-5.4-5.3-9.4-3.3-11.3,3.9c-1.4,5.5,0.3,10.9-0.6,16.4
				c-1.3,7.9-2.2,16-2.7,24C677.9,423.6,680.9,425.9,687.5,425z M314.8,370.6c-3.6,5.7-8.3,8.1-13.3,10.1c-0.9,0.4-2.4-0.4-2.5,1.4
				c-0.7,7.1-6.7,10.4-11,14.9c-6,6.3-4.3,10.1,4,13.4c8.1,3.2,18,0.8,24.6,8.3c0.5,0.6,2.2,0.4,3.3,0.2c3.8-0.6,7.1-0.2,9.7,3.5
				C325.9,405.1,321.4,388.3,314.8,370.6z M319.4,504.7c2.2-2.6,4.6-4.2,5.1-7.3c1.1-6.7,0.3-13.4-0.3-20.1c-0.1-1.2-1.2-2.3,0-3.7
				c5.5-5.8,2.3-11.9,0.7-18c-0.3-1.2,0-3-1.9-3.1c-2.1-0.2-2.2,1.9-3.1,3c-1.5,1.9-0.7,3.9-0.5,5.8c0.4,2.9,0,5.2-3.5,6.7
				c0.5-7,0.9-13.7,1.6-20.4c0.3-3.1,0.6-6.4-3.2-6.8c-3.6-0.4-4.3,2.8-5.1,5.8c-1.6,6.2-1.4,12.4-0.3,18.6c0.3,2,1.3,3.9-0.4,5.6
				c-0.3,0.3-1.4,0.4-1.7,0.2c-1.5-1.4-0.7-3.3-0.8-5.1c-0.3-4.7-1-9.3-1.5-14c-0.6,0-1.1,0.1-1.7,0.1c1,15-6.2,30.1,1.4,45.2
				c1.8-0.6,1.4-1.6,1.5-2.4c0.1-1.8-1.8-4.4,0.9-5.3c2.5-0.8,2.2,2.2,3.1,3.5c0.7,1,1.3,1.9,2.6,1.6c2.1-0.4,1.9-2.2,1.9-3.7
				c0.2-5.2-0.7-10.6,3.2-16.6C319.4,485.1,312.4,495,319.4,504.7z M196.5,441c-3.7-1.7-2.5-9.6-8-8.3c-11.8,2.9-24.2,0-35.7,4.5
				c-1.5,0.6-4.1-0.2-3.9,2.6c0.2,2.3,2,3.5,4.3,3.5c5.1,0,9.1,2.6,13.1,5.2c3.7,2.3,8.7,3.7,12,2.1c5.1-2.4,9.7-5.3,15.5-5.6
				C195.5,444.9,196.3,443.3,196.5,441z M358.8,541c-0.2,0-2.1-0.6-2.5,1.6c-0.3,1.7,1.6,2,2.7,2.4c4.1,1.7,7.9,3.7,12.5,0.5
				c2.9-2,6.7-2.2,10.3-2.5c6.2-0.5,12.7-0.3,18.5-2.2c7.7-2.6,15.2,0,22.8-1.1c1-0.1,3,1,3.5-0.5c0.5-1.3-1.4-2.3-2.5-2.6
				c-7.8-2.1-15.6-4-23.5-0.7c-2.4,1-4.4,1.1-7,1c-5.6-0.3-12.1-2.9-16.8,0.5C371.4,541.6,366.2,542.2,358.8,541z M299,445
				c-0.5-2.5,1.3-5.3-2-6.2c-2.3-0.6-3.5,1.8-3.5,3.2c0.4,7.2-1.6,14.1-2.4,21.1c-1,9.2-1.9,19,1.2,28.4c0.6,1.8-0.5,4,1.8,5.3
				c1.2,0.6,2.2,0.5,3-0.5c1.5-1.8,2.5-4.6,1.3-6.2c-4.1-5-2.4-11.6-1.2-15.5C300.2,464.4,297,454.4,299,445z M164,421.1
				c2.2,1,3.5,2.1,4.1,1.8c8.4-4.4,14.4,2.1,21.3,4.4c2,0.7,4.6,0.9,6.6,0.3c4.6-1.4,8.8-0.1,13.2,0.5c4.6,0.7,9.2,1.6,13.8,1.8
				c3.5,0.2,6.7-0.7,4.4-6.2c-7.8,7.1-15.5-2.5-23.4,0.1c-3.9-6-10.1-3.7-15.3-3.9C180.9,419.5,172.8,417.1,164,421.1z M712.4,452.9
				c0-0.7,0-1.3,0-2c0-1.4,0.9-3.6-1.5-3.7c-2.4-0.1-1.8,1.9-1.9,3.5c-0.1,1.5-0.3,3.2-0.9,4.6c-3.8,9.5-3.2,19.3-1.2,29
				c0.4,2.2,1.9,4.3,4.3,4.7c1.9,0.3,3.3-1.7,4.1-3.1c1-1.7,2.1-3.9-0.3-5.9c-2-1.6-2.5-4.3-2.5-6.8
				C712.4,466.5,713.1,459.7,712.4,452.9z M695.4,497.9c4.9-16.7,3.4-33.9,4.8-50.8c0.1-1.1-0.5-2.8-2.3-2.7c-1.8,0.1-1.7,1.5-2,2.9
				c-2.3,10.3-3.3,20.7-1.6,31C695.2,484.9,692.2,491.5,695.4,497.9z M772.1,449.2c-2-3.1-3.6-6.6-6.2-9.1
				c-3.5-3.4-7.5-1.5-10.9,0.8c-2.9,2-5.9,3.9-3.1,8.5c2.5,4.1,9.5,5.6,14.1,1.6C768,449.3,769.4,448,772.1,449.2z M718.9,444.5
				c-2,0.7-4,1.8-3.7,4c0.9,8.1,0.2,16.1,0.4,24.2c0.1,1.9,0.7,4.4,3.6,3.7c2.2-0.5,2.3-2.5,1.9-4.4c-0.4-2-2.7-4.1,0.2-5.9
				c2.7-1.7,4.1,1.5,6.4,2.1c1.9-5-1.2-9.2-1.2-13.7c0-1.5,1-4.5-1.7-4.1c-2.8,0.4-2.8,3.2-1.8,5.5c1.2,2.9,2.7,5.6-0.6,9.6
				C719.7,458.2,720.5,451.2,718.9,444.5z M619.2,540.4c-1.7,0.1-5.1,0.2-8.4,0.7c-2.1,0.3-4,1.4-2,4.1c3.8,5.2,13.6,7.1,18.9,3.5
				c2.4-1.7,4.7-4.8,4.3-7c-0.4-2.8-4.2-1.1-6.6-1.4C624.1,540.1,622.5,540.3,619.2,540.4z M291.5,513c-2.1,0.4-5.4-1.3-6,1.3
				c-0.8,3.4,3.1,2,4.8,3c0.9,0.6,1.8,1.4,2.7,1.9c4.8,2.7,9.6,5.3,13,10c0.8,1.1,2.4,1.4,3.7,0.6c1.9-1.1-0.1-2.2-0.2-3.3
				c-0.4-5.3-6.5-5.3-8.3-9C299,513.1,295.6,512.6,291.5,513z M506.9,546.4c-3-1.2-5-2.6-7-2.6c-3.1,0.1-6.5,1.9-6-3.7
				c0.1-1-1.3-0.7-2.1-0.9c-4.3-1-6.7,0.5-7.5,4.9c-0.8,4.4,3.2,6.5,5.3,6.1C495,549.2,500.9,550.7,506.9,546.4z M646.6,542.5
				c8.9-1,18.4,1.9,26.9-5C663.6,535.8,654.5,535.6,646.6,542.5z M246.2,402.2c-2.3,0.9-6.1,0-5.3,4.4c0.5,2.9,2,5.3,5.3,4.6
				c2.7-0.5,6.3-1.1,5.8-5.1C251.7,403,249,402.2,246.2,402.2z M777.5,400.4c3.5-0.8,9.5,0.9,9.4-3.9c-0.1-3.9-6-1-9.2-2.1
				c-2.7-0.9-7.5,0.9-7.4,3.7C770.3,401.8,774.8,400.1,777.5,400.4z M235.1,449.4c-2.3-1.9-4.3-3.9-6.7-5.2
				c-2.6-1.4-4.7,0.6-6.5,2.1c-1.4,1.2-0.4,2.4,0.6,3.3c1.5,1.4,3.4,4.6,5.2,2.7C229.8,450.1,232.7,451.8,235.1,449.4z M235.5,417.5
				c2.3-0.2,5.9,1.4,6.1-2.8c0.1-2.5-2.6-2.9-4.6-2.9c-3,0.1-7.7,0.8-7.9,3.1C228.6,418.6,232.9,417.2,235.5,417.5z M322.9,509.2
				c-1.9,0.4-3.6,0.9-3,2.5c1.2,3.1,4.4,3.6,7.2,4.2c1.3,0.3,3.2-1.5,2.4-2.3C327.5,511.6,324.9,510.4,322.9,509.2z M705.2,488.3
				c-0.4-2-0.2-5.2-2.3-5c-3.7,0.3-1.1,4.3-2.4,6.4c-1.2,2,0.9,2,2,2.1C705.3,492,705.1,489.9,705.2,488.3z"/>
			<path d="M367.6,576.4c-1.4-5.7-7.2-6.9-11.3-10.4c4.7-2.8,8.6-0.6,12.1,1.4c2.9,1.7,5.4,2.5,8.8,1.1c4.5-1.9,8.9,0.6,12.9,2
				c3.6,1.2,7.5,2.1,10.4,0.9c13.3-5.3,27.3-4.4,41-5.9c0.9-0.1,1.7-0.2,2.7-0.3c-3.2-4.1-12.8-5.4-26.6-3.7
				c4.9-6.7,14.8-9.3,21.8-5.3c5.4,3.1,10.4,2.9,15.6,0.1c5.2-2.9,11-0.3,16.4-1.8c0.8-0.2,1.9,0.3,2,1.4c0.1,1.4-1.1,1.9-2.1,2.1
				c-3,0.7-8.1,0.1-7.5,4.2c0.5,3.5,5.4,1.1,8.3,1.5c6.2,0.9,12.5,0.5,16.2,7.7c1.5,3,5.6,5.6,8.9,6.5c7.3,2,9.6,8.7,15.3,12.8
				c-1.3,0.6-2.1,1.2-2.4,1c-8.4-5.1-16.9-10.2-25.2-15.5c-1.3-0.8-2.4-2.1-4.1-2c-9.6,0.7-18.9-3.7-28.1-2.2
				c-3.6,0.6-6.9-2.6-10.3,0.4c-2.6,2.3-3.2,3.1,0.5,4.8c5,2.3,10.2,1.5,15.3,1.6c2.7,0,5.4-0.3,8.7,2.5c-8.5,0.6-15.8,3.5-23.5-0.2
				c-2.7-1.3-6.3-1.3-8.9,0.4c-2.6,1.8,1.6,4,0.7,6.5c-0.4,1.1,2.8,2.8-0.1,4.2c-2.3,1.1-4.2,0-5.2-1.9c-2-3.7-6.5-8.1,2.4-9.9
				c2-0.4,6.2-3.2,5.3-6.5c-0.9-3.3-4.6-1.8-7.4-2.1c-6.1-0.6-11.3,3.8-17.5,2.8c-2-0.3-3.6,1.8-4.3,3.8c-0.9,2.4,1.7,2.1,2.7,3
				c2.9,2.9,4.9,6.6,4.3,10.5c-0.4,2.7-9.8,3.6-13.1,1.7c2-2,4.6-1.6,6.9-1.8c4.7-0.4,4-2.2,1.9-5c-4.7-6.5-11.8-9-18.8-8.2
				c-6.5,0.8-12.3,0.2-18.2-1.9c-2.2-0.8-4.3-1.1-6.6-0.5L367.6,576.4z"/>
			<path d="M722.1,589.8c11.4,4.6,21.5,0.9,32.1-3.7c4.6-2,12-2.4,16.8,0.5c5.3,3.3,11.2,5.2,16.4,8.6c4.9,3.2,10.7,2.1,16.1,0.5
				c1.8-0.5,3.9-1.7,4.4,0.8c0.5,2.3-2,2.8-3.7,2.8c-5,0-9.8,0.5-14.6,1.7l0.2,0.2c-8.4-1.2-13.2-9-21.1-11.5
				c-4.7-1.5-8.6-1.4-12.9,0.1c-9.2,3.1-17.6,9.2-28.3,5.8c-2.1-0.7-5.1,0.7-6.4,2.9c-2.6,4.2-6.6,4.6-10.9,4.6
				c-0.9,0-1.8,0-2.7,0.2c-2.4,0.6-6.5-0.6-6.9,2.2c-0.5,3.6,2.5,6.1,6.3,6.4c2.1,0.1,3.4,1.2,4.3,2.6c4.2,6.4,10.4,9.5,17.7,11.1
				c1.9,0.4,3.8,2.2,2.8,5.1c-1.4,4-3.5,0.5-4.6,0.1c-11-4.4-21.7-2.2-32.4,0.9c-1.8,0.5-3.3,1.3-5.2,0.5c0.5-2.4,2.4-5,4.2-4.6
				c7.9,1.8,8.4-5.8,12.3-9c0.9-0.8,1.8-2.9,0.3-3.4c-8.8-3-15.8-10.7-26-10.2c-7.5,0.4-14.1-3.5-21.5-4.1c1.2-4,4.2-2.7,6.4-3.3
				c1.1-0.3,2.6-0.4,2.5-1.6c0-0.9-1.1-2-2-2.4c-3.5-1.5-7.1-2.6-10.6-4c-2.3-0.9-3,0.9-4.4,2.1c-3.1,2.7,0.3,4.7,1,8.4
				c-6.1-2.9-11.9-3.6-17.7-2.6l0.2,0.1c0.3-4.4,3.4-4.6,6.7-4.5c2.9,0.1,4.7-1.4,5.2-4.2c0.7-4.1-2.9-2.2-4.5-3.1
				c-5.6-3-10.6,1.3-16.2,1.1c3.2-3.6,6.6-5.9,12-5.6c14.1,0.8,26.4,6.4,37.2,14.9c4.8,3.7,11,3,15.7,6.5c1.2,0.9,3.8,0.1,4.9-1.3
				c4.1-5.1,9.4-6,15.5-5.2c5.3,0.7,10,0,11.4-6.4L722.1,589.8z"/>
			<path d="M237,551.9c-4.4-1.6-9.2-0.9-14.9-3.6c6.9,0,9.5-6.1,15.2-6.3c1.3,0,2.3-1.6,3.3-3c5.3-7.9,12.4-8.4,20-3
				c10.2,7.3,21.3,12.8,34.6,9.7c1.5-0.4,3.1-0.6,4.6-0.5c1.1,0.1,2.2,0.8,2.2,2.2c0,1.6-1.4,1.6-2.4,1.6c-3.1-0.2-8.7-1.2-8.6,1.3
				c0.1,5.2,5.8,1.6,8.8,3c2.5,1.2,5.3,0.9,8,0.8c2.6-0.1,5.5-0.1,5.5-4.2c-0.1-2.8,2.3-3.8,4.5-4.1c2.5-0.4,3.7,1.6,4,3.7
				c0.4,2.8,1.9,3.3,4.4,3.7c4.1,0.6,7.7,3.4,13,3.2c-2.2,3.8-5.2,5.7-6.1,9.3c-0.5,2-4.2,4.1-7.4,1.8c-8.2-6-18.3-6.3-27.6-8.9
				c-3.3-0.9-8.1-2.1-10.6,2.8c-1.2,2.3-3.7,1.2-5.5,1.4c-2.8,0.4-1.3-2.2-1.5-3.4c-1.2-5.3-1.6-11.1-9.5-10.3
				c-0.6,0.1-1.9-0.8-2-1.4c-0.7-3-2.4-4.5-5.5-4.9c-7.4-0.9-14.6-5.2-22.2-0.7c-1.4,0.8-3,1.4-3.1,3.2c0,2.2,1.8,3,3.4,3.7
				c1.7,0.7,3.5,1,5.2,1.5c1.3,0.4,3.7,0.7,3.7,1.2c0.5,7.4,8,7,11.7,10.6c0.9,0.8,1.7,1.7,1,2.8c-0.4,0.5-1.7,0.8-2.4,0.6
				c-7.6-2-15.8-1.1-23.3-4.1c-2.4-0.9-3.9-2.3-3.9-4.8C233.5,554.6,233.6,552.1,237,551.9z"/>
			<path d="M594.6,611.9c-6.8,0.1-15.1-2.6-23.7,0c-2.1,0.7-5.8-0.7-7.5-2.3c-3.8-3.8-7.5-2.7-11.6-1.2c-7.6,2.7-15.6,3.4-23.1,6.6
				c-3.8,1.6-8.5,1.3-11.9-2.4c-2.6-2.9-5.6-3-9.5-3.1c-6.1-0.1-10.3-0.3-14.5,5.7c-3.1,4.4-10.4,1.5-15.9,1.4
				c-2.4,0-1.3-2.2-0.9-3.6c0.7-2.2,2.4-3.3,4-1.7c6.9,6.6,10.9-0.3,13.9-3.8c5.1-6.1,11.5-4.4,17.6-5.3c0.5-0.1,1.3,0.4,1.5,0.9
				c2.4,4.7,3.1,4.8,8.4,4.1c7.9-1,14.6-5.5,22.4-6.7c7.5-1.2,14.8-0.8,21.9,1.3c12,3.5,21.6,0.6,28.1-10c3.3-5.4,9.4-5.6,13.6-9.1
				c0.7-0.6,2.4-0.4,2.9,0.8c0.6,1.2-0.2,2.3-1.3,2.7c-8.6,2.5-12.7,10.6-19.6,15.2c-1.4,0.9-3.9,1.1-3.2,3.5
				c0.7,2.5,3.1,3.3,5.5,2.9c5.1-0.8,10.1-1.7,15.1-2.9c3-0.8,6.1-1.9,8.7-3.5c2.5-1.6,4.6-2.8,5.9,0.5c1.2,3.1-1.4,4.7-3.7,5.3
				C610.6,609.2,603.7,611.7,594.6,611.9z"/>
			<path d="M736.7,533.2c-1.5-10.1,3.9-13.9,9.7-17.6c1.3-0.9,4.2-0.3,3.6-3c-0.5-2.2-2.2-3.7-4.8-4.2c-4.3-0.7-8.5-0.3-12.7,0.4
				c-1.5,0.2-4,1.9-4.1-1.2c0-1.8-0.9-5.5,2.4-5.2c8.5,0.6,17.3-2,25.6,2c4.6,2.2,8.5,1.7,12.2-2.9c4.1-5.2,7-10.6,9.7-16.6
				c1.9-4.3,8.8-6.6,13.9-9c3.6-1.7,7.7-2.2,11.7-3c1.8-0.4,4.3,1.9,3.3,2.1c-4.7,0.9-4.9,7.9-11,7.1c-4.8-0.6-10,0-13.7,4.1
				c-1.7,1.9-5,3.5-2.8,6.6c2,2.8,5.1,2.4,7.8,0.4c4.4-3.3,9.7-3.2,14.7-4.3c1.2-0.3,2.9-0.9,3.6,0.7c0.9,2.3-1.4,2.4-2.7,3
				c-3.9,1.6-7.7,4-11.8,4.3c-8.4,0.7-14.8,4.1-18.9,11.3c-0.9,1.6-1.9,3.2-3.3,2.3c-5.6-3.7-9.1,0.7-13.1,2.9
				c-4.1,2.3-8,4.9-12.1,7.2C739.9,523,740.4,528.4,736.7,533.2z"/>
			<path d="M719.9,555.9c2.7-9.3,11-13.8,14.1-23c2.7,4.9-1,6.7-1.4,9.3c-0.3,1.7-2.2,3.3-1.1,5c1.4,2,3.7,0.9,5.6,0.7
				c5.8-0.6,10.3-4,15.1-6.8c8.7-5,18-7,27.8-6.2c6.9,0.6,13.4-0.8,19.8-2.6c2.8-0.8,5.4-1.4,8.3-0.4c-7.1,4.3-13.9,9-22.8,8.7
				c-8-0.2-15.9,0.9-23.6,3.3c-10.4,3.2-20.8,6.3-31,10C727.2,555.5,723.7,554.5,719.9,555.9z"/>
			<path d="M307.1,588.1c0.1-2.8-3.8-3.7-1.4-5.9c2-1.8,3.1,0.9,4.6,1.5c4.8,2,9.4,3.5,14.9,2.8c7.8-0.9,9.3,0.8,10.6,8.6
				c0.7,4.2,4.3,2.9,7,3.4c2,0.4,5.3-0.8,5,2.5c-0.2,2.1-3.3,1.8-5.2,1.5c-4.6-0.9-9.3-1.7-13.7-3.3c-9-3.4-18.2-4.6-27.8-5.2
				c-4.9-0.3-9.4-2.5-14.7-1.4c-3,0.6-5.5,0.6-7.3,3.4c-1,1.6-3.1,3.5-4.9,1c-1.3-1.8-0.2-3.6,1.8-5c3.1-2,6.2-3.5,10-3.5
				C293,588.4,300,588.2,307.1,588.1z"/>
			<path d="M343.9,642.9c0.6-4.1,3.2-3.9,5.2-3.8c7.9,0.4,14.6-3,21.4-6.1c0.8-0.4,1.6-0.7,2.4-1.2c2-1.2,5.9,1.1,6.3-2
				c0.4-3.3-3.5-2.4-5.6-3.3c-0.9-0.4-1.6-0.9-1.6-1.9c0-1.1,1-1.4,1.8-1.6c3.1-0.9,5.3-0.8,7.1,2.8c2.4,4.7,5.8,4.6,7.9-0.1
				c0.7-1.5,1-2.2,2.6-2.1c4,0.2,8,0.4,12.1,0.6c1.2,0.1,3-0.6,3.3,1.2c0.3,1.6-0.8,3-2.4,3.7c-1.2,0.5-2.6,1.3-3.8,1.2
				c-11.2-1.4-19.8,5.6-29.5,8.9C362.6,642.2,353.3,641.6,343.9,642.9z"/>
			<path d="M183.8,556.7c10.7,3.6,20.8,4.7,30.8,5.5c6.9,0.5,12.1,3.1,17.2,7.8c5.3,4.8,12.2,7.6,19.3,9.6c1.3,0.4,3.5-1.3,3.8,1.2
				c0.3,2.3-2.2,3.1-3.5,4.6c-1.4,1.7-3.1,1.2-3.9-0.3c-3.8-7.2-12-7.7-17.5-12.1c-11.1-8.9-24.8-8-37.7-9.8
				C188.2,562.6,185.7,561,183.8,556.7z"/>
			<path d="M192.8,511.5c-0.8-4.3,1.8-5.1,5.1-5.4c2.4-0.2,6.1,0.8,4.7-4c-0.4-1.6,1-1.9,2-1.9c2.1,0,3.9,1,5.2,2.7
				c1,1.2,1.4,2.9,0.1,3.5c-5.8,2.9-6,8.1-6.3,13.5c-0.1,2.1-2.6,2.5-3.5,1.5C197.4,518.3,193.4,516,192.8,511.5z"/>
			<path d="M460.8,610.8c8-1.5,11.7-7.4,16-13.1c3.1-4.1,8.7-2,13.2-1.7c1.6,0.1,2.8,2.4,2.5,4.3c-0.2,2-2.2,2.4-3.6,2.3
				c-7.5-0.3-13.8,2.1-19.2,7.5C467.4,612.4,464.3,612.8,460.8,610.8z"/>
			<path d="M793.8,572.4c-1.8,0.5-3.5,0.7-3.7-1c-0.9-6-5.1-7-10.1-7.2c-1.3,0-2.9-0.4-2.9-2.1c0.1-1.2,1.5-1.4,2.6-1.7
				c7.2-2,13.3,1.6,19.6,4c1.6,0.6,3.5,2.7,2.8,4.1C800.3,571.8,796.7,572.2,793.8,572.4z"/>
			<path d="M169.2,493.9c-6.3,0.7-12,2.1-17.8,0.5c-1.7-0.5-3.9-0.5-3.9-2.9c0-2.8,2.6-2,4.1-2.2c4.4-0.5,8.9,0.4,13-2.4
				c0.9-0.6,2.8-0.6,3.9-0.1c2.8,1.3,7,2.3,6.7,5.7C174.7,497.1,170.5,491.9,169.2,493.9z"/>
			<path d="M787.6,470c-2.7,0.2-5.4,0.2-7.9,0.8c-1.7,0.4-3.3,1-3.8-1.1c-0.4-2,1.6-2.2,3.1-2.7c4.9-1.6,10.3-1.6,15-4.5
				c2-1.2,5.2-1.2,7.7,0.5c1.3,0.8,1.7,2,1.8,3.4c0.1,1.9-1.3,2-2.6,2.2C796.4,469.3,792.2,471.2,787.6,470z"/>
			<path d="M621.3,700.9c5.6-5.6,5.5-13.9,12.7-16.3c5.8-2,10.4-6,15.5-9.1c3.5-2.1,7.3-2.9,10.9-4.6c1.2-0.6,2.1-0.8,2.5,0.7
				c0.3,1.1-0.5,1.8-1.5,1.8c-11.3,0.2-16.5,11.8-26.7,14.2c-2.9,0.7-4.6,3.8-5.9,6.8C627.7,697.3,626.3,700.3,621.3,700.9z"/>
			<path d="M367.4,576.2c-2.3,6.6-14,8.7-18.6,3.1c-2.5-3-6.6-6.1-2.6-11c0.9-1.1,0.7-3.3,3-2.2c1.4,0.7,2.1,1.9,1.1,3.3
				c-3.6,5.2,2.2,5.8,4.1,8.1c2,2.6,4.3,1.5,6.2-0.7c2.2-2.4,4.6-0.6,6.9-0.4C367.6,576.4,367.4,576.2,367.4,576.2z"/>
			<path d="M581.8,647.5c-6,1-11.1,6.4-18.2,3.5c-2.7-1.1-6.8,1.4-6.7,4.1c0.4,6.8-4.2,2.6-6.2,3.1c-2,0.5-3.5-1.1-3.7-3.7
				c-0.4-4.4,3.1-3.9,5.4-4.1C562.2,649.4,572,649.3,581.8,647.5z"/>
			<path d="M722.3,589.6c-6.8-5.5-15.3-3.8-23.9-5.3c4.2-5.2,9.1-3.2,13.2-2.7c4.1,0.5,7.2,0.6,10.1-2.9c2.1-2.6,5.6-3.4,9.6-2.1
				c-3.3,4.5-14.1,3.7-9.2,13.2C722.1,589.8,722.3,589.6,722.3,589.6z"/>
			<path d="M163.6,464.3c6.5-0.4,12.6,1.2,18.6,2.7c2.1,0.5,4.2,1.7,4.1,3.7c-0.1,3-3,1.8-4.8,1.9
				C174.1,473.3,169.5,467.4,163.6,464.3z"/>
			<path d="M291.9,628.3c-8-1.4-16.1-2.2-23.4-6.3c-1-0.5-2-1.3-1.5-2.6c0.5-1.3,1.8-1.1,2.8-0.8C277.4,621.3,286.1,621,291.9,628.3
				z"/>
			<path d="M710.7,548.5c0.3,0.1,1.4,0.3,1.7,0.8c0.3,0.6,0.1,2.1-0.4,2.4c-4,2.5-8.1,5.1-12.4,7.2c-1.5,0.7-3.5-0.8-4.2-2.6
				c-0.8-2,1-2.7,2.2-3.6C701.1,549.7,705.9,550.2,710.7,548.5z"/>
			<path d="M369.4,686.3c-10,0.7-19,1.3-28.6,2C345.4,682.8,361,681.7,369.4,686.3z"/>
			<path d="M634.2,597.2c-1.1,0.7-1.7,2.4-3.3,2c-5.4-1.5-10.9-2-16.4-2.3c-2.6-0.2-5.4-1.7-4.5-4.6c0.9-3,4.1-2.3,6.3-1.3
				c5.9,2.6,11.6,5.5,18.1,6.3C634.4,597.4,634.2,597.2,634.2,597.2z"/>
			<path d="M725.2,498c0.4,1.3,0.9,2.5,1.2,3.8c0.7,3,0.7,6.3-3.2,6.6c-2.9,0.2-6.2-1.8-6.4-4.7c-0.2-2.3,0.1-7,5.4-4.8
				c0.8,0.3,2.1-0.5,3.2-0.7C725.4,498.1,725.2,498,725.2,498z"/>
			<path d="M186.9,596.1c10.1-0.1,17.2,9.7,27.6,8.7C203,609.2,195.5,600.8,186.9,596.1z"/>
			<path d="M487.8,636.6c-5.9,4.8-12.8,5.8-19.8,6.4c-1.4,0.1-3.5,0.6-3.6-1.7c-0.1-1.8,1.8-1.5,3-1.7
				C474.3,638.6,481,637.6,487.8,636.6z"/>
			<path d="M423.2,627.7c4.1-1.6,8.1-2.5,10.3,2.7c0.6,1.5,2.6,4.4-0.1,5.1C427.3,637.3,424.8,633,423.2,627.7z"/>
			<path d="M211.1,590.6c-0.1,1.7-1.4,2.1-2.4,1.7c-2.6-1-6.8-1.2-5.7-5.5c0.6-2.4-0.9-7.3,2.7-6.9
				C211.9,580.5,207.3,588,211.1,590.6z"/>
			<path d="M294.6,626.7c5.6-0.9,9.7,1.5,14,2.3c1.9,0.4,5.4,0.1,4.1,3.7c-1.1,2.8-4.1,2.7-6.4,1.7c-1.9-0.9-3.3-2.9-5.1-4.2
				C299.5,629,297.4,628.1,294.6,626.7z"/>
			<path d="M151.1,506.6c-0.2,1.7-1.4,2.1-2.4,1.6c-3.5-1.8-7.3-2.2-11-2.8c-1.6-0.3-2.4-1.3-1.1-2.8c1.3-1.5,3-2.3,4.8-1
				C144.4,503.6,148.7,503.3,151.1,506.6z"/>
			<path d="M414.1,599c6.7-4.4,13.8-3.7,20.9-2c0.7,0.2,1.6,1.1,1.6,1.7c0,1.4-1.4,2-2.4,1.6C427.7,597.4,421,598,414.1,599z"/>
			<path d="M366.9,589.1c0.2-2.6,2.1-2.1,3.5-1.8c3.2,0.8,7.3,0.9,7.8,5.1c0.2,2.1-2.8,1.7-4.4,1.6
				C370.5,593.8,367.5,593,366.9,589.1z"/>
			<path d="M263.2,619.7c-6.1,0.8-9.4-2.9-13.6-3.1c-1-0.1-1.9-1.3-1-2.5c0.8-1.2,2.4-1.9,3.5-1.3
				C255.6,614.6,259.4,616.1,263.2,619.7z"/>
			<path d="M394.4,661.1c3.5-2,5.3-4.7,8.8-4.3c1.5,0.2,3.6-0.2,3.9,1.6c0.3,1.8-1.3,3.4-3.1,3.8C401.3,663,398.5,662.8,394.4,661.1
				z"/>
			<path d="M573.3,575.3c5.1,1.7,6.9,5.5,11.5,6.4c-2.6,1.8-4.4,3-6.3,4.2C577,582.8,575.5,579.8,573.3,575.3z"/>
			<path d="M622.7,662c3.4,1,6.3-0.1,10.5-1.9c-2.3,4-3.1,7.8-6.3,8.2C624.1,668.7,623.8,664.7,622.7,662z"/>
			<path d="M298.6,569.4c4.5,0.9,8.3,1.6,12,2.5c0.5,0.1,1.1,1.4,1.1,2.1c0,1.2-1.1,1.3-2,1C306,574,301.5,574.9,298.6,569.4z"/>
			<path d="M789.5,601c-1.4,2,2.6,5.4-1.6,6.6c-1.4,0.4-3.1,0.4-4.2-1.1c-0.8-1.2-1.3-2.5-0.5-3.7c1.6-2.7,4.2-1.7,6.6-1.5
				C789.7,601.2,789.5,601,789.5,601z"/>
			<path d="M319.5,684.6c5.6,1,9.7,1.7,14.4,2.5C328.9,689.9,326,689.4,319.5,684.6z"/>
			<path d="M475.5,470.5c18.2-4.4,36.6-0.9,54.8-1.3c5.3-0.1,11.4,1,16.8,3c3.7,1.4,5.6,5,3.5,8.1c-3.2,4.6-2.5,9.4-2.9,14.3
				c-0.4,5.6-3.1,7.5-8.9,8.3c-19.1,2.5-37.9-2.8-57-1.1c-4.1,0.4-7.7,2.6-12.2,2c-8.4-1.1-8.4-1.5-10.2-10.9
				c-1.3-7,3.7-13.1,2.9-20.1c-0.2-1.6,2-2,3.7-2C469.2,470.6,472.4,470.5,475.5,470.5z"/>
			<path d="M628.8,499c-3.8-0.4-7.6-1.3-11.3-1c-6.5,0.4-7.6-3.3-7.4-8.3c0.2-5.3,2-10.4,2.1-15.9c0-2.5,1.2-4.7,5.1-4.6
				c11.6,0.2,23.3-0.2,34.9-0.6c2.3-0.1,4.4,0.2,6.6,0.9c1.3,0.4,2.6,1,2.8,2.5c0.2,1.7-0.5,3.2-2.2,3.7c-5.3,1.6-5.7,5.2-4.9,10
				c1.2,7.6-1.9,11.2-9.7,12.1C639.4,498.4,634.2,499.9,628.8,499z"/>
			<path d="M383.1,466.2c5.8-0.5,12.1,1.2,18.7,0.6c4.3-0.4,7.6,3.8,7.3,9.1c-0.2,4.1-1,8.1,0.5,12.4c1.7,4.9-3.7,9.9-9.1,9.1
				c-6.1-1-12.1-2.5-18.1-3.8c-2.5-0.6-4.9-1.2-7.6-0.8c-3.5,0.4-5.2-0.9-4.6-5.2c0.7-5.7,2.4-11.1,2.4-17
				C372.6,463.6,378.8,467.2,383.1,466.2z"/>
			<path d="M457.7,421.1c7.7,6.9,17.8-1.1,26.4,3.5c2,1.1,3.9-0.1,5.8-0.9c2.5-1.2,5.1-1.5,7.8-1.2c13.6,1.7,27.2,3,41.1,0.8
				c7.7-1.2,15.8,0.1,23.5-0.9c16.6-2.2,33.2,0.8,49.8-0.4c2.1-0.2,4.2-0.4,5.2,1.9c0.7,1.6-0.7,1.8-1.7,2.2
				c-1.6,0.6-2.3,4.1-5.2,0.9c-2.3-2.4-6.4-2.2-9.6-0.8c-4.9,2.1-9.6,1.7-14.3-0.1c-2.1-0.8-4.2-1.3-6.5-0.3
				c-8.3,3.6-17.1,0.4-25.7,1.5c-6.2,0.8-12.7,0.1-19.2,0.8c-8,0.9-16.2,0.6-24.2-1.1c-4.1-0.9-7.9-1.3-11.7,1.1
				c-3.9,2.5-8.2,1.5-12.4,1.2c-10.1-0.6-20.2-1.3-30.3-2c-2-0.1-4.2,0.1-4.1-3.1C452.7,420.9,455.4,422.2,457.7,421.1z"/>
			<path d="M434.5,428.9c-12.4,3.6-26.8-1.7-41,0.7c-1.9,0.3-4.8,0.1-5.7-1c-5.7-7-13.1-4.1-19.9-3.4c-3.8,0.4-7.5,0.8-11.3,0.8
				c-1.3,0-3,0.4-3-1.6c-0.1-1.3,1.2-2,2.3-2c4,0.2,7.7-2.5,11.8-0.7c3.2,1.3,6.9,0.3,8.7-1.9c3.2-3.9,6.4-3.7,10.1-1.8
				c4.9,2.6,10.3,1.4,15.1,1.4c12.7,0.1,25,4.1,37.8,2.7c2.6-0.3,4.8,0.6,4.3,3.6C442.9,430,439.4,429.4,434.5,428.9z"/>
			<path d="M645.6,429.9c-5.6,1.3-10.4-3-16-1.9c-1,0.2-2.2-0.7-2.2-2c0-1.4,1.1-1.8,2.3-1.8c5.6-0.1,11.2-0.1,16.9-0.2
				c2.2,0,3.4,1.4,3.4,3.4C650,430.4,647.2,429.6,645.6,429.9z"/>
		</g>
		<g>
			<rect x="100.3" y="99.6" fill="none" width="800" height="200"/>
			<path d="M206.6,269.7v-1.2c0-21,6.8-45.5,46.9-76.2c18.9-14.5,25.7-21.4,25.7-34.9c0-12.5-6.7-20.7-19.8-20.7
				c-14.6,0-20.8,9.7-22.2,25.4h-30.3c1-26.2,16.4-49.9,53.6-49.9c33.6,0,51,20.1,51,45.2c0,20.1-7.8,32.3-36.1,52.8
				c-15.1,11.1-26.5,22.6-30.5,33.4h70.7l-3.9,26.2H206.6z"/>
			<path fill="#FF0000" d="M389.3,153.2v45.3h44.3v24.1h-44.3v45.9h-24.1v-45.9h-44.7v-24.1h44.7v-45.3H389.3z"/>
			<path fill="#FF0000" d="M443.3,156.9c2.2-21.9,15.5-44.7,51.8-44.7c36.2,0,50.4,20.1,50.4,41.3c0,17.7-11.3,27.3-20.5,31v0.5
				c12.5,4.3,26.8,14.7,26.8,38.5c0,23-15.2,48.5-56.9,48.5c-36.9,0-52.9-21-54.6-45.1h31c2.1,11.3,8.5,20.6,24.9,20.6
				c16,0,23.3-9.2,23.3-23.7c0-16.8-9.4-24-27.2-24h-11.9v-25h9.6c16.1,0,23.7-4.5,23.7-19.1c0-12.5-6.6-19.5-19.9-19.5
				c-13.4,0-20,7.3-21.7,20.7H443.3z"/>
			<path d="M629.4,153.2v45.3h44.3v24.1h-44.3v45.9h-24.1v-45.9h-44.7v-24.1h44.7v-45.3H629.4z"/>
			<path d="M783.9,140.7h-62.3c-1,9.9-2.9,25.7-4,32.8c5.3-4.7,13.8-8.8,28.3-8.8c31.1,0,47,22.9,47,50.8
				c0,32.7-18.2,56.6-56.8,56.6c-29.6,0-50.7-14.3-53.2-43.9h30.9c2.5,12.1,9.3,19.4,23,19.4c17.9,0,23.9-11.9,23.9-29.8
				c0-16.2-6.9-28.3-24-28.3c-13.9,0-20.9,6.4-24.6,16.3l-26.3-4.2c3.5-18.7,9.4-68.6,11.1-87h90.7L783.9,140.7z"/>
		</g>
		<g>
			<polygon fill="#FF0000" points="350.3,799.9 500.3,899.9 650.3,799.9 			"/>
			<rect x="400.3" y="749.9" fill="#FF0000" width="200" height="50"/>
		</g>
	</g>
</g>
<g id="text">
</g>
<g id="scratch">
</g>
<g id="guides" display="none">
</g>
</svg>
