<?xml version="1.0" encoding="utf-8"?>
<!-- Generator: Adobe Illustrator 26.0.2, SVG Export Plug-In . SVG Version: 6.00 Build 0)  -->
<svg version="1.2" baseProfile="tiny" xmlns="http://www.w3.org/2000/svg" xmlns:xlink="http://www.w3.org/1999/xlink" x="0px"
	 y="0px" viewBox="0 0 1000 1000" overflow="visible" xml:space="preserve">
<g id="bg">
</g>
<g id="counters">
	<g id="mkr_x5F_entrench5">
		
			<rect id="_x35__x2F_8_x22__1000x1000_00000151513432652119077530000012427229845724198562_" fill="none" width="1000" height="1000"/>
		<g>
			<rect x="100.2" y="300.4" fill="none" width="199.8" height="200"/>
			<path d="M210,341.5h-62.3c-1,9.9-2.9,25.7-4,32.8c5.3-4.7,13.8-8.8,28.3-8.8c31.1,0,47,22.9,47,50.8c0,32.7-18.2,56.6-56.8,56.6
				c-29.6,0-50.7-14.3-53.2-43.9h30.9c2.5,12.1,9.3,19.4,23,19.4c17.9,0,23.9-11.9,23.9-29.8c0-16.2-6.9-28.3-24-28.3
				c-13.9,0-20.9,6.4-24.6,16.3l-26.3-4.2c3.5-18.7,9.4-68.6,11.1-87h90.7L210,341.5z"/>
		</g>
		<path fill="#A67C52" d="M0,600l175-43l147-56l78-1l201-6l100,37l3-2c0.4-0.7,18.4,25.4,19,26l93,8l183.4,39.7l0.8,396.6l-1001,1"
			/>
		<g>
			<path d="M667.6,558.1c-8.1-9.3-18.5-1.8-29.5-2.9c4.7-3.6,9.5-6.2,2.3-10.6c5.6-0.2,10.3-3,15.5-0.3c2.3,1.2,5.3,2.3,7-0.7
				c1.4-2.4-0.5-4-2.4-6c-3.6-3.7,0.4-8.8-1.2-13.2c-0.3-0.9,2.1-1,3.2-0.2c2.2,1.5,4.4,2.9,7,3.5c1.4,0.3,2.6,1.6,1.9,2.9
				c-4.5,8.2,3.7,13.9,4,21.2c0.1,1.8,3.3,2.1,4.3,0.8c2-2.5,5-2.2,8.5-3.2c-6-2.8-7.4-7.2-4.8-11.7c2.2-3.9,5.7-7.1,11-7
				c1.5,0,3.6,0.3,4.5-0.5c3.8-3.5,8-4.3,10.3,0.4c1.7,3.6,6.5,3.4,7,8.9c1.1,12.7,15.5,20.2,27.7,15.3c4.9-1.9,10.2-2.3,14.6-6.6
				c3.2-3.2,9.6-2.1,14.6-2.2c2.6-0.1,4.3,3.2,5.2,5.3c1.3,2.8-2.9,2.5-4.5,5.7c8.7-1.2,16.3,3.2,24.4,1.5
				c6.2-1.3,12.2-0.4,18.3,0.7c1.3,0.3,2.8,0.8,2.9,2.3c0.1,1.8-1.6,1.8-2.8,2.1c-2.3,0.5-4.6,1.4-7.1,0.6c-2.1-0.7-2.5,0-3.4,2.6
				c-3,8.3,2.1,7.3,7.1,7.7c5.9,0.5,11.6-1.2,18.7-1.7c-3.5,4.2-7.5,7.6-0.8,10.7c2.1,0.9,1,2.4-0.6,3.3c-3.6,1.9-7.6,3.5-11.4,2.4
				c-7.6-2.3-15.3,0-22.8-1.1c-2.3-0.3-5-0.3-5.4,2.3c-0.5,3.1,2.9,2.6,4.7,3.4c3.5,1.6,7.3,1.2,11.1,1.3c2.9,0.1,6.3,0.5,6.3,4.3
				c0,3.5-3,4.7-6,4.8c-4.7,0.1-9.9,0.6-12-5.3c-0.4-1.1-1.2-1.7-2.2-2.2c-7-3.6-23.2-1.4-29.4,4.2c-1,0.9-2,1.9-3.4,1.7
				c-9.7-1.2-19.1,2-28.7,1.4c-2.5-0.2-7.1-2.4-5.4,4.3c0.6,2.2-2.8,1.9-4.4,0.3c-5.4-5.7-12.3-6.1-19.4-5.4
				c-1.8,0.2-3.5,0.3-5.2-0.3c-2.3-0.8-5.5-1.9-6.6,0.6c-1.5,3.6,4,1.4,4.4,4.2c-1.8,2.1-3.8,0.2-5.6-0.3c-9.9-2.7-15-1-20.6,7.6
				c-2.4,3.6-6.6,4.6-9.6,7.7c2.2-4.5,5-8.6,5.6-13.8c0.3-2.8,4.8-1.3,6.8-3.2c1.2-1.2,4.5-3.1,1.3-4c-3.9-1.2-6.9-3.2-10.3-5.1
				c-3.7-2-7.7,1.4-8.6,6.8c-0.2,1.5-0.3,2.8-2,2.4c-1.3-0.3-0.9-1.5-0.9-2.7c-0.3-10.2-0.8-10.5-10.9-7.5c-4.9,1.4-10.8,0-14.1,5.9
				c-2-2.6-0.8-4.2,0.6-5.5c4.1-3.8,1.1-5.3-2.2-6.1c-16.6-4.1-33-4.9-49.1,2.9c-6.4,3.1-13.9,2.4-20.8,1.9
				c-6.4-0.4-12.7,0-19.1-0.6c-2.2-0.2-5.7,1.3-6.3-1.7c-0.6-3.3,3.8-1.9,6.2-4.9c-11.3-2.3-21.9-4.6-32.9-6.8
				c1.9-3.2,4.3-2.7,6.3-2.5c7.7,0.8,14.7-2.7,22-3.6c1-0.1,2.4-0.3,2.4-1.7c0-1.6-1.4-2.2-2.6-2.5c-4.8-1.4-9.7-0.1-14.4,0.4
				c-6.1,0.6-12.3,0.8-18.4,1c-5.7,0.1-9.9,1.6-11.5,8.2c-1.8,7-12.4,8.8-18.7,5.3c-11.5-6.4-23.1-14-36.9-13.1
				c-5.2,0.3-12.6,0.4-15.4,7.6c-0.2,0.4-0.5,1.1-0.7,1c-4.7-0.3-10.5-1.9-7.6,6.7c0.2,0.5-2.3,0.3-3.6,0c-3.5-0.8-6.6-2.4-9.6-4.3
				c-4.4-2.8-7.6,0.3-10.6,2.6c-2.2,1.7,3,7.8,7.5,8.5c2.4,0.3,4.8,0.2,7.2,0.4c2.6,0.2,5.9,0,5.4,4c-0.5,3.9-3.4,2.5-6.1,2.7
				c-7.7,0.5-12.7-4.3-17.1-9c-3.5-3.6-6.7-4.2-10.9-3.9c-2.8,0.2-5.8-0.4-8.6,0c-2.1,0.3-8.4-1.4-3.1,4.4c0.7,0.7,0.7,1.6-0.1,2.3
				c-0.9,0.8-2.2,0.8-3.1,0.2c-2.5-1.4-5-2.8-7.2-4.6c-3.6-3.1-7.9-2.9-11.9-2.4c-5.8,0.7-3.2,5.3-2.7,8.5c-1.9,0.9-3.2,0.1-3.9-0.9
				c-6.8-8.6-16.7-9-23.6-1c-4,4.7-5.9,4.6-10.5-0.6c-2.9-3.3-11.4-3.9-15.7-1.3c0.5,2.1,2.3,1.6,3.7,2c2.5,0.7,3.6,2.4,3.7,4.8
				c0.1,2.6-1.9,2.8-3.7,3.7c-7.5,3.7-14.7,8-23.6,4.8c-2.2-0.8-4.8-1-6.1-4c2.6-1.7,5-0.5,7.2,0.4c6.3,2.7,11.4,1,16-3.8
				c3.3-3.4,2.1-5.7-1.7-6.5c-4.2-0.9-8.7-0.8-13-1.1c-0.5-1.3,0.6-1.5,1.2-1.9c1.7-1,4.1-1.7,4-3.9c-0.2-2.8-3.1-2.6-5.1-3.3
				c-0.6-0.2-1.4-0.2-1.9-0.6c-8.1-5.6-15.1-6.4-20.7,3.6c-1.3,2.3-4.4,3.8-8,1.7c2.3-3.1,6.7-4.1,7.9-8c0.3-0.9,1.9-1.5,1.2-2.7
				c-0.8-1.3-2.3-1.3-3.5-1c-3,0.8-5.9,1.7-8.8,2.7c-1.4,0.5-2.8,2.1-4.2,0.6c-1.7-2,0.7-3,1.5-4.3c0.3-0.5,0.4-1.1,0.7-1.9
				c-7.2-2-13.2,3.3-20,2.6c2.6-5.5,1.9-6.5-4.3-5.8c-1.9,0.2-3.8,1.4-5.7,1.3c-2.8,0-6.1-1.1-3.4-4.7c4.3-5.7-0.5-5.3-3.5-5.3
				c-5.9,0.1-11-2.7-16.5-3.9c-1.4-0.3-3.8-0.9-3.6-3.2c0.2-1.8,2-2.1,3.5-2.6c8.7-2.8,17.3-6.5,26.3-8.1c9.8-1.8,20-1.6,30.1-2.2
				c3.2-0.2,7.9,1.9,6.1-4.8c-0.4-1.4,0.9-1.9,2-2c11.3-0.9,22.2-4.2,33.4-5.9c8.6-1.3,17-1.8,25.6-2.1c10.1-0.3,11.7,1.5,13.4,11.4
				c0.6,3.5,3.2,2.9,5,2.3c2.2-0.7,6.2-1.5,4.2-5c-2.1-3.6,0.2-3.3,2.1-4.2c4.9-2.4,8.3-8.5,15.2-5.3c-0.4,1.7-4.7,1.6-2.7,4.5
				c1.4,1.9,3.6,0.8,5.5,0.3c1.3-0.3,2.5-0.7,3.8-1.1c2.5-0.6,6.6,0.8,7.1-1.9c0.8-3.8-3.8-2.1-5.8-3.3c-2.2-1.3-1.1-3.1-0.7-4.6
				c0.5-2.1,2.3-3,4.1-2.3c2.9,1.2,0.1,2.2-0.4,3.3c-0.9,2.2,0.9,2.5,2.3,3.2c3.5,1.9,7.6,2.8,8.3,8.2c0.4,3.2,11.8,4.9,14.4,2.6
				c1.8-1.5,0.9-2.8-0.6-3.6c-4.9-2.6-2.8-5,0.5-6.4c4.9-2,8.6-4.9,11.5-9.3c1.5-2.2,4-2.9,6.4-1.4c4.4,2.7,8.5,1.5,12.4-0.9
				c1.7-1.1,5.4-2,3-5.2c-1.9-2.4-6.1-3.2-7.5-1c-3.1,4.8-6.2,3.8-10,1.8c-1.7-0.9-3.4-0.3-5,0.7c-1.9,1.2-4.2,2.1-6.1,0.2
				c-2.2-2.3,1.4-3.7,1.4-6.7c-8-0.4-15.1,1.1-21.3,8.7c0-4.6,0.6-7.2,3.9-8.5c1.4-0.6,3-1.6,2.2-3.4c-0.6-1.3-2.3-1.3-3.6-0.9
				c-5.8,1.5-12,0.4-17.6,2.2c-8,2.5-15.7,0.7-23.5,0.6c-1.3,0-3,0-3.2-1.6c-0.3-2,1.6-2.6,3.1-2.8c9.3-1.4,17.8-5,25.5-9.9
				c8.6-5.4,18.4-4.5,27.5-6.6c8.8-2,16.8-7.6,26.5-5.7c5.6,1.1,11.2,1.6,17,0.3c8.4-1.9,17-3.3,25.4-5.1c1.6-0.3,3-0.5,4.5,0.3
				c3.4,1.7,7.1,1.3,10.3,0c9.4-3.9,15.8,0.3,21.7,6.9c0.7,0.8,1.5,2.4,2.1,2.3c6.2-0.8,12.7-0.9,18.4-3.1c3.9-1.5-1.6-3.2-1.8-5.3
				c1.2-1.7,2.3-0.2,3.4,0.1c6.3,1.9,12.1,4.9,19.5,4.1c7.7-0.9,15.5,1.3,23.3,2.7c13.1,2.5,26.7,5.5,40,4.3
				c5.6-0.5,10.8,1.3,15.9,0.4c6.9-1.1,8.2,3.4,9.6,7.8c1.1,3.3-2.3,2.8-4.2,3.6c-2.5,1.2-9.5-0.9-4.3,6.2c1.5,2-1.8,2.2-3.3,2.2
				c-7.7,0.2-15.4,0.3-23.1,0.2c-3.3,0-6.6-0.4-9.4,2.1c-2.2,2-4.1-0.1-6.1-0.6c-3.6-0.9-6.6-0.7-8.3,3.2c-1.6,3.5-0.2,5.3,3.2,6.4
				c1.1,0.3,2,1.5,1.4,2.6c-0.8,1.4-2.3,1.2-3.5,0.5c-1.5-0.8-2.8-2.1-4.3-3c-2.1-1.4-6-2.4-6.7-1c-3.3,6.3-6.6,2.4-10.3,1
				c-2-0.8-5-0.7-5.4,2c-0.4,2.2-3.6,4.7-0.1,7c1,0.7,2.8,1.4,1.6,2.8c-0.9,1-2.8,1.9-4.1,1.7c-9.7-1.5-20-1.3-28.1-8.2
				c-2-1.7-4.1-2.9-6.6-2.3c-3.3,0.7-5.6,1.4-8.1-2.4c-2-3.1-7.5-0.3-8.8,4.2c-2.1,6.8-6,9.2-13.9,8.4c0.1-0.4,0-0.9,0.2-1.2
				c1.7-2.4,6.6-4.3,5.2-6.7c-2-3.3-6.6-4.7-10.9-4.9c-5.2-0.3-9.7,2.6-14.7,3.5c-2.7,0.5-5.2,2.2-4.7-3.4c0.4-5-5.2-4.5-8-3.1
				c-4.2,2.1-8.2,2.8-12.6,2.5c-1.8-0.1-4.2,0.3-4.6,1.9c-1.7,6.5-5.1,4.9-9.3,2.7c-4.6-2.3-9-2.1-11.7,3.3
				c-0.5,0.9-1.3,1.7-2.2,2.3c-1.9,1.2-5.7,0.4-5.3,3.7c0.3,2.8,4.1,1.9,5.9,3.5c6.4,5.5,14.8,7.2,21.9,11.2
				c6.2,3.5,16-0.5,18.6-7.9c1.9,6,7.2,5.5,11,7.8c8.7,5.2,18.7,7.8,26.5,14.6c1.9,1.7,19,4.8,19.9,3.1c4.4-8.4,11.7-1.7,17.3-3.6
				c6.9-2.4,12.7,1.1,17.9,5.7c0.6,0.6,1.8,1.3,2.3,1c9.5-3.6,20.4,2.5,29.3-4.2c4.1-3.1,8.8-2.2,13.3-2.7c4-0.5,8.5,0.5,11.8-3.1
				c0.4-0.4,1.3-0.8,1.8-0.7c12.9,3,26.1,2.8,39.2,3.6c3.3,0.2,6.5,0.1,9.8-0.6c1.8-0.4,4.1-0.3,5.8,0.5c12.5,5.9,25.2,6.2,38.2,1.9
				C665.6,558.5,666.8,559.2,667.6,558.1z M427.4,549.1c-4.1-0.1-7.9-1-8.4,3.3c-0.4,4.2,3.2,4.3,6.3,4.9c3.4,0.7,6.8,1.7,10.1,2.7
				c3.7,1.1,7.3,1.1,11,0.4c1.2-0.2,2.8-0.7,2.4-2.5c-0.3-1.3-1.7-1.2-2.7-1.2c-3.3,0-6.6-0.4-8.8-3.3
				C434.5,549.9,430.7,548.9,427.4,549.1z M791.6,574.2c3-0.8,7.4,0.6,7.7-3.8c0.1-1.7-1.1-6.2-5.4-5c-5,1.4-9.8,2.9-15,1.1
				c-1.1-0.4-2.9,0.1-3.3,1.6c-0.6,2,1.2,2.9,2.5,3.2C782.7,572.4,787.2,573.3,791.6,574.2z M252.5,537.3c-1.9-0.2-3.2-0.5-4.5-0.5
				c-2.8,0.1-5.6,1-5.5,4.2c0.1,3.9,3.3,2.1,5.4,2.2c1.1,0.1,2.2,0.1,3.3-0.1c3.1-0.4,7.6,0.1,7.4-4.3
				C258.3,533.6,254,538.5,252.5,537.3z M485.1,572.3c0.6-0.2,4.2,1.2,3.9-2.5c-0.3-2.9-3.2-4.4-6.3-4.6c-2.4-0.2-4.5,0.3-4.3,3.3
				C478.6,571.8,480.5,573,485.1,572.3z M512.7,511.6c-2,0.8-5.7-0.2-5.5,3.7c0.1,2.5,2.7,3.2,5,3c2.7-0.2,5.9-0.9,6.1-3.7
				C518.7,511,515,512.4,512.7,511.6z M507.1,524c1.7-0.2,4.3,0.5,3.9-2.1c-0.4-2.7-3.3-3.1-5.7-3.4c-1.8-0.2-4.2,0-4.1,2.1
				C501.3,524.3,504.8,523.4,507.1,524z M739.6,559.5c-4.3-0.5-8.4-1.1-12.2,1.1c-0.8,0.5-0.3,1.9,0.6,2c3.9,0.6,7.8,1.1,11.2-1.6
				C739.3,561,739.3,560.7,739.6,559.5z M357,547.1c2.3,2.7,4.9,3.8,8.1,2.6c0.9-0.3,1.3-1.5,0.6-2.1c-2.3-1.7-5-2.3-7.8-1.5
				C357.7,546.2,357.6,546.4,357,547.1z"/>
			<path d="M254.7,693.9c-6.5-3.9-11.5,2.3-18.8,4.4c1.6-2.2,2-2.7,2.3-3.2c1.2-1.4,4.5-1.1,3.6-3.8c-0.7-2-3.1-1.1-4.7-1.2
				c-5.9-0.3-11.8-1.8-17.7-0.9c-1.5,0.2-3.2,0-3.6-2c-0.3-1.2,0.5-1.9,1.6-2.5c1.8-0.9,5.3-0.1,4.8-3.3c-0.5-3.4-3.9-2.8-6.4-3.3
				c-0.6-0.1-1.2-0.3-1.8-0.5c0.1-0.5,0.1-1,0.4-1.3c1.4-1.6,5.6-0.4,4.8-3.8c-0.8-3.5-3.8-5.3-7.6-4.8c-4.2,0.6-8.3,0.9-12.5,0.3
				c-2.3-0.3-6.5,0-5.7-3.4c0.6-2.6,3.7-5.7,7.7-4.4c10.4,3.6,20.9,1.4,31.3,0.8c1.9-0.1,3.8-1,5.5-1.9c1.4-0.7,2.2-2.2,2-3.9
				c-0.2-1.8-1.6-2.5-3.1-3c-2.4-0.7-5.4,0.1-7.5-3c4.5-3.1,9.8-0.2,14.4-1.9c1-0.4,0.8,1.9,0.2,3.2c-2.7,5.8-0.3,8,5.6,7.8
				c2.6-0.1,5.3,0.2,7.9,0.5c3.9,0.6,7.1-0.3,8.7-4.2c1.4-3.4,3.9-4.3,7.4-4.3c8.1,0.1,16.1,0.5,24.2-1.6c4.7-1.2,10.3,0.7,15.5,1.1
				c2.4,0.2,4.8,0.1,7.2-0.1c2.7-0.3,6.7,0.7,4-4.9c-0.9-1.8,0.7-6.3,3.3-6.4c6.8-0.3,12.4-5.6,20.2-3c7.1,2.3,15.6,2,22.5-0.4
				c6.8-2.3,10,0.7,13.1,4.7c3.5,4.3,6.6,6.1,11.5,2.3c1.1-0.8,3-1.2,4.4-1c7.6,1.3,12.6-4.8,19.1-6.7c2.1-0.6,3.9-5.2,4.1-8.1
				c0.2-3.2-3.7-2-5.8-2.6c-2.2-0.6-4.9,0-7-2.4c3.2-2.5,6.8-1.9,9.8-0.8c4.9,1.8,9.9,2,14.9,2c4.5,0,9.2-0.8,12.9,3.1
				c1.4,1.4,3.9,1.3,5.7,0.3c6-3.4,13.1-2.3,19.3-5.6c6.3-3.4,15.9,0.3,21.6,7.6c2.8,3.6,5.1,5.5,8.8,1.6c1.9-1.9,3.4-1.3,4.9,0.5
				c2.7,3.1,6.4,3.3,9.7,1.7c3.5-1.7,3.4-5.9,4.2-9.2c0.6-2.4-1.6-3.3-3.7-3.6c-3.6-0.6-7.3-1.1-10.9-2.9c2.5-3.3,4.4-6,8.4-2.3
				c1.7,1.6,4.4,1.6,5.4-1.2c2.5-7.5,7.5-5.4,12.1-3c4.6,2.4,9,4.6,14.4,3c1.2-0.3,2.8-0.4,3.3,1.3c0.4,1.2-0.7,1.9-1.5,2.6
				c-2.7,2.3-5.4,4.7-9.4,2.9c-1-0.4-2.2-0.3-3.3-0.4c-3.8-0.2-7.9,0.8-8.2,4.8c-0.3,4,3.8,6,7.3,5.8c5.1-0.3,8.2,3.3,9.8,6.3
				c2.6,5,6.3,4.2,10,4.1c3.2-0.1,4.8-2,4.9-5.7c0.1-2.7,13.3-9.7,17-9.5c5.5,0.3,10.9,1.4,16.3-0.7c1.2-0.5,2.7-0.5,3.4,1
				c0.7,1.4-0.2,2.6-1,3.6c-2.3,2.8-5.3,4.5-9,4.8c-4.2,0.3-7.9,1.9-12,5c4.1,1.2,6.8,2.7,9.1,5.5c1.7,2.2,5.3,4,8,4
				c15.1-0.2,29.4,6.4,44.6,5.3c5.9-0.4,11.9-2,17.6-3.1c8.2-1.6,13,3,17.3,6.5c4.9,4.1,9.8,4.3,15,4.4c7.1,0,13.9,0.3,20.7,3
				c4.6,1.8,9.9,1.9,14.5-1.6c2.3-1.8,4-2.9,4.2,1.8c0.1,2.9,3,3.2,5.7,2.6c4.9-1.2,9.1-0.8,11.1,5c0.7,2.2,2.8,2.5,4.9,2.5
				c2.8,0,5.6,0,9.1,2c-8.6,4.3-17.5,0.9-25.5,3.2c0.7,3.6,3.4,3.3,5.2,4.3c1.8,1,2.4,2.4,2.5,4.3c0.2,2.5-1.8,3.3-3.4,3.3
				c-5.3,0-12.2,5.3-15-4.7c-0.6-2-6.5-2.8-10.1-3.5c-12-2.4-24-4.6-36.1-6.8c-1.7-0.3-4-0.5-5.2,0.4c-8.2,6.1-14.9,0.6-21.8-2.5
				c-4.8-2.2-9.2-1.4-14.4,0.2c6.1,6,13.9,5,20.6,7.2c5.7,1.9,11.3,3.1,15,8.5c2.2,3.2,6.4,2.6,9.3,4.6c1.5,1.1,4.2,1.8,3.1,4.3
				c-0.9,2.1-3.1,0.9-4.7,0.4c-4.2-1.2-8.4-2.6-13-4c1-2.2,4.4-0.2,4.2-2.7c-0.1-1.7-2.2-1.8-3.5-2.6c-9.2-5.8-19.8-7-30.1-8.6
				c-7.8-1.2-15.4-3.3-23.3-3.8c-1.7-0.1-3.5-0.5-5.2-0.6c-2.1-0.1-4.3,0.6-4.5,2.9c-0.2,2.4,2.2,2.3,3.8,2.6
				c2.4,0.4,4.8,0.6,7.2,1.1c2.2,0.4,4.7,1.3,5.4,3.3c1,2.5-3.2,1.8-3.4,4.2c1.8,3,6.2,1.3,9.2,4.9c-6.5,0.5-12.3,1.2-17.5-1.5
				c-6.1-3.1-11.3-5.8-17.2,0.7c-2.3,2.6-6.2,4.4-11.2,5.2c5.4,4.9,11.1,7,16.7,9c4,1.5,7.5,3.6,10.8,6.2c1.2,1,1.9,2.5,1.4,4.1
				c-0.7,2.1-2.3,1.5-3.8,1.3c-1.5-0.2-3.8-0.9-4.2,0.7c-2.3,7.4-4.8,1.9-7.6,0.5c-4.5-2.3-5.9-7.2-9.6-10.3
				c-6-5.1-11.6-6.6-17.1-1.7c-4.5,4.1-9.1,4.3-13.9,2.3c-3.9-1.6-7.3-1-10.9,0c-2.8,0.8-5.8,1.5-3.9,5.8c0.5,1.2,0.8,3.4-1.3,3.8
				c-1.8,0.3-3.1-1.5-3-2.9c0.3-6.5-3.6-7.1-8.5-6.8c-1.1,0.1-2.4,0-3.2-0.6c-3.2-2.5-7.3-3.4-9.4-0.3c-2.1,3.2-0.3,7.5,1.9,11
				c1.4,2.2,3.1,4.2,4.4,6.5c0.7,1.3,1.4,3.2-0.8,3.8c-1.8,0.5-1.7-1.4-2.2-2.5c-2.3-5.3-6.7-9.1-10.5-13.2c-2.3-2.5-6-2.5-9.4-2.1
				c-3.5,0.4-4.3,2.2-3.1,5.5c0.6,1.6,0.8,3.7-1.4,4.5c-1.6,0.6-3.6,0.9-5.1-0.2c-1.9-1.3-0.7-3-0.2-4.7c1.4-4.4,0.4-7.8-4.6-9.2
				c-3.2-0.9-6.2-2.2-9.4-3c-1.8-0.5-4.2-0.8-4.2,2.4c-0.1,4.2-6.1,2.2-6.6,6.3c-0.1,0.8-0.9-0.7-1.3-1.2c-3.3-4.5-7.7-6-13.2-5.2
				c-3.4,0.5-7.1-0.2-10.5,0.5c-4.4,0.9-9.3,1.2-11.2,6.7c-0.7,1.9-2.7,3.1-4.6,3.4c-5,0.8-10,1.5-14.5,4.6c1.6-2.2,3.1-4.5,4.7-6.7
				c3.1-4.1,2.2-6.5-3-6.8c-3.1-0.2-4.1-0.9-5.4-4.5c-1.7-4.9-8.2-4.8-13-4.8c-6.1,0-10.4,6.2-16.8,5.9c1,3.7-3.5,5.7-2.7,9.2
				c0.9,3.9-1.4,5.5-4.3,7.1c-2.9,1.5-5.6,3.4-8.5,5c-1.1,0.7-2.6,1.3-3.4-0.2c-0.7-1.4,0.6-2.5,1.8-3.1c2.6-1.2,5.3-2.1,7.9-3.4
				c3.7-1.9,5-5.2,1.4-7.7c-4.6-3.3-2.2-4.6,0.5-7.2c2.5-2.4,5.7-3.2,8.4-5.1c1.3-0.9,2.6-2,2.4-3.7c-0.2-2-2.1-2.2-3.5-2.4
				c-4.5-0.6-8.2-2.4-11.6-5.4c-2.9-2.6-6.2-2.3-10.3-0.6c-6.7,2.9-14.5,2.4-21.6,5c-5.5,2-11.3,2.9-16.2,6.5
				c-7.6,5.5-12.8-0.7-19-4.3c7.3-5.5,15.4-4.7,23.1-5.3c3.8-0.3,8.5,0.7,6.2-6.2c-0.9-2.7,1.7-3.6,4.2-3.6c2.6,0,5.3,0.3,7.9,0.3
				c1.6,0,4,0.5,3.9-2.2c-0.1-1.9-2-2.1-3.5-2.3c-7-0.8-13.3,1.6-19.3,5.2c0.5-4.9-3.1-5.4-6.1-5.2c-7.1,0.5-13.4,3.7-20.1,5.8
				c-0.4,0.1-1.1,0.4-1.1,0.6c-0.4,10.8-9,7-14.1,6.9c-5.8-0.1-11.1,0.8-16.4,2.6c-0.1,0-0.5-0.2-0.5-0.3
				C254.5,694.6,254.6,694.2,254.7,693.9c0.1-3.1,2.9-1.5,4.3-2.5c2-1.3,3.1-2.9,3.2-5.3c0.1-1.2-0.5-2.1-1.7-2.4
				c-2.3-0.6-4.4,0-6,1.6C251.8,688.1,252,691.1,254.7,693.9z M592.8,655.6c-1.6,0.2-4.2-0.4-4.3,2.4c-0.1,2.5,2,3.9,4.5,3.8
				c2.1-0.1,5.1,0.2,5.2-2.7C598.2,656.5,595.2,656.4,592.8,655.6z M362.1,646.7c-4.1-2.6-8.1-3.4-9.8-2c-0.8,0.7-1.1,1.6-0.4,2.2
				c2.6,2.1,5.7,1.5,8.7,1C361,647.8,361.3,647.4,362.1,646.7z"/>
			<path d="M619.2,500.1c8.6-1.5,15,5.4,23,6.1c1,0.1,1.9,1.1,1.6,2.4c-0.3,1.3-1.5,1.6-2.6,1.4c-3.2-0.6-6.9-0.5-9.4-2.2
				c-4.1-2.6-8.2-3.7-13-3.6c-1.9,0.1-5.3,1-5-2.3C614,499.3,617.1,499.9,619.2,500.1z"/>
			<path d="M174.8,650.2c6.6-8.6,14.3-6.2,23.8-2.9C190,651,182,647.5,174.8,650.2z"/>
			<path d="M653.7,692.4c-9.8,2.9-19.3,0.4-28.8-1.8c-1.2-0.3-2.8-1-2.3-2.6c0.6-2,2.8-1.8,3.9-1.2
				C635,691.6,644.6,690.6,653.7,692.4z"/>
			<path d="M428.7,524.4c-0.6,2.5-1.2,5.2-4.5,5.5c-1.8,0.1-3.9-0.8-3.8-2.7c0.2-3.2,3.3-4.4,5.7-5.5
				C427.9,520.8,428.7,522.6,428.7,524.4z"/>
			<path d="M335.6,605.9c-1.8-0.4-4.5,0.7-4.6-1.6c-0.1-2.2,2.1-3.9,4.5-3.7c2.1,0.2,5.1,0.8,4.9,3.3
				C340.2,606.4,337.1,605.2,335.6,605.9z"/>
			<path d="M321.3,516.1c-1.8,1.8-3.9,3.4-6.6,3.3c-1.6,0-2-1.6-1.7-2.9c0.8-3,3.3-3,5.7-2.9C320.1,513.7,321.4,514.2,321.3,516.1z"
				/>
			<path d="M551.3,472.9c-1.4,0.4-2.2,0.9-2.9,0.8c-2.5-0.3-5.4,1-7.2-1.7c-0.5-0.8,0.4-1.7,1.2-1.9
				C545.7,469.2,548.7,469.2,551.3,472.9z"/>
			<path d="M362.7,602.8c-0.4,2-1.4,2.9-2.4,2.1c-1.5-1.2-5-0.2-4.7-3.3c0.1-1.3,0.9-4.2,3.2-3.1
				C360.5,599.3,361.6,601.6,362.7,602.8z"/>
		</g>
		<g id="SR_00000062879608290045591900000005189689922703528360_">
			<rect x="100" y="31.9" fill="none" width="800" height="268.1"/>
			<path d="M200.6,178.7h-59v36.5h65.1l-3.3,22.7h-88.7V102.3h88.4v22.9h-61.4v30.7h59V178.7z"/>
			<path d="M213.5,167.4c0-21.1-0.2-27.5-0.4-32h26.2c0.4,1.8,0.9,8.4,0.9,13.2c4.2-8,13.9-15.2,28.6-15.2
				c21.5,0,32.4,13.7,32.4,37.3v67.2h-26.9v-62c0-11.6-2.8-20.3-15.6-20.3c-12.2,0-18.2,7.1-18.2,25.1v57.2h-26.9V167.4z"/>
			<path d="M304.8,135.4h14.4v-27.8H346v27.8h18.3v20.9H346v52.6c0,7,1.7,10,10,10c2.4,0,3.3,0,6.1-0.4V237
				c-5.2,1.7-12.8,1.9-16.5,1.9c-19.8,0-26.4-8-26.4-27v-55.6h-14.4V135.4z"/>
			<path d="M369.1,170.1c0-16.8,0-27.7-0.4-34.7h26.2c0.5,4.4,0.7,10.9,0.7,18c3.5-8.6,12.4-19.6,31-19.6V161
				c-21.1-0.3-30.6,6.8-30.6,30.3v46.6h-26.9V170.1z"/>
			<path d="M453.5,192.8c0,12.6,4.8,25.9,20,25.9c12.2,0,16-7.6,17.5-12.1h26.4c-5,17-16.9,33.2-44.7,33.2
				c-32.8,0-46.4-22.3-46.4-52.9c0-25.4,12.7-53.3,47.5-53.3c34.4,0,44.8,24.6,44.8,50.9c0,1.4-0.2,6.8-0.3,8.3H453.5z M492.4,175.2
				c-0.4-11.6-5.1-21.5-18.9-21.5c-15.3,0-19.1,12.4-19.6,21.5H492.4z"/>
			<path d="M527.9,167.4c0-21.1-0.2-27.5-0.4-32h26.2c0.4,1.8,0.9,8.4,0.9,13.2c4.2-8,13.9-15.2,28.6-15.2
				c21.5,0,32.4,13.7,32.4,37.3v67.2h-26.9v-62c0-11.6-2.8-20.3-15.6-20.3c-12.2,0-18.2,7.1-18.2,25.1v57.2h-26.9V167.4z"/>
			<path d="M716,202.1c-3,20.6-16,37.6-44.7,37.6c-31.4,0-46.1-19.4-46.1-52.9c0-32.5,18-53.3,47.7-53.3c33.5,0,42.5,24.1,43.1,38.3
				h-26.8c-1-9.2-5.2-17.7-16.8-17.7c-14.2,0-19.9,13-19.9,31.8c0,24,7.2,33.6,19.3,33.6c11.6,0,15.3-7.6,17.6-17.2H716z"/>
			<path d="M750.8,93.9v53.9c4.8-8.4,13.9-14.3,28.4-14.3c18.4,0,32.3,10.1,32.3,37.2v67.3H785v-63.2c0-11.1-3.5-19.1-16.1-19.1
				c-13,0-18.1,8.8-18.1,25.2v57.1h-26.9v-144H750.8z"/>
		</g>
	</g>
</g>
<g id="text">
</g>
<g id="scratch">
</g>
<g id="guides" display="none">
</g>
</svg>
