<?xml version="1.0" encoding="utf-8"?>
<!-- Generator: Adobe Illustrator 26.0.2, SVG Export Plug-In . SVG Version: 6.00 Build 0)  -->
<svg version="1.2" baseProfile="tiny" xmlns="http://www.w3.org/2000/svg" xmlns:xlink="http://www.w3.org/1999/xlink" x="0px"
	 y="0px" viewBox="0 0 1000 1000" overflow="visible" xml:space="preserve">
<g id="bg">
</g>
<g id="counters">
	<g id="mkr_x5F_roadblock">
		
			<rect id="_x35__x2F_8_x22__1000x1000_00000177468339052381053290000001528033517691446916_" fill="none" width="1000" height="1000"/>
		<g>
			<path d="M659,528.9c-3.7-5.4-6.8-2.7-9.6,0.5c-2.3,2.6-4.6,2.8-7.2,0.9c-2-1.5-2.4-3.2,0.3-4.6c-6.5,0.9-10.9,5.5-11.2,11.7
				c-0.2,4.2,3.8,4.4,6.1,5.1c16.6,4.4,33.1,10,50,12c10,1.2,19.6,3.9,29.6,4.9c1.3,0.1,2.8,0.5,3.8,1.3c7.2,5.2,14.7,4.8,22.6,1.9
				c3.2-1.2,6.6-1.8,10-2.1c3.8-0.3,7.3,0,7.2-5.7c0-3.5,3.2-3,5.2-2c3.8,2,7,0.8,10.2-1.1c-4.3-8.2-4.3-8.2-11.7-1.6
				c-1.4,1.2-2.4,0.8-3.6-0.2c-1.1-0.9-2.6-2.4-1.3-3.3c7.8-5.7,3.3-15,6.9-22.6c1.9,2.8,1.4,7.2,6.1,7c4-0.1,5.4-3.1,7.5-5.3
				c1.7-1.8,3.5-2.6,6.8-3.3c-3.7,9.3,2.4,8.1,7.2,7.8c4.1-0.3,8.1-1.3,12.2-1.9c4-0.6,7.2,1.1,7.6,5c0.7,5.9,5,8.9,8.8,12.3
				c1.7,1.5,3.6,2.2,1.2,4.6c-3.8,3.8-1.4,6.3,1.9,8.7c1.8,1.3,3.6,2.8,5.2,4.4c1,1,3.4,1.8,1.5,3.7c-1.2,1.2-3,0.5-4.5-0.3
				c-10.9-6-10.9-6-16,5.5c-1.4,3.2-3.4,4.8-7.2,5c-6.6,0.4-13.1,1.4-19.6,3.4c-5.9,1.8-13.3-0.4-20.1,0.5c-6.7,0.9-7.8,2.5-4.4,8.5
				c1.7,3,0.2,3.4-2,4.1c-3.5,1.1-7.1,0.8-10.8,0.1c2.4,2.3,6,5.7,4.9,7.4c-2.1,3.2-5.8,6.4-10.7,4.3c-4.7-2-10.4,1.2-14.6-3.1
				c-0.2-0.2-1.1-0.3-1.3-0.1c-4.5,5.5-9.1,1.4-13.5,0c-4.1-1.2-6.9,0.7-9.5,2.9c-2.7,2.3-4.7,3.4-5.8-1c-0.8-3-3.4-3.4-5.6-4.4
				c-15.5-7-32-7.7-48.7-7.7c-3.6,0-6.9,0.9-9.7-2.9c-1.3-1.8-4.8-2.1-7.5-2.8c-14.3-3.4-28.6-7.1-42.3-12.8c-7-2.9-9.7,3.6-13,7.3
				c-2.7,3-5.1,4.5-9.1,4.9c-4.3,0.4-8.1,1.6-12.2,4.4c-4.7,3.2-12,1.2-17.9-0.1c-9.3-2-17.7-9.4-28.9-3.8c5.5-4.5,2.5-7.8-0.2-10.7
				c-2.5-2.8-6.4-2-8.9-0.6c-8.2,4.3-17.4,4.8-26,8c-9,3.3-14.9,0.4-18-8.4c-2.1-5.7-6.6-8.6-10.9-11.6c-3.1-2.1-2.8-4.5-2.7-7
				c0.1-2.8,2.6-3.5,5-3.7c2.8-0.2,6-0.9,6.4-3.8c0.2-1.6-0.3-5.6-3.9-5.3c-2.9,0.2-7.4-2.6-7.9,3.3c-0.1,1.4-1.4,2.4-2.3,1.6
				c-1.5-1.2-2.8-2.9-3.7-4.6c-0.9-1.6,0.5-2.5,1.9-2.9c8.5-2.3,3.6-5.7,0.6-8.5c-5.2-5-10.6-5.9-14.5-2.6
				c-4.4,3.8-4.9,9.5-1.1,14.4c1.1,1.4,2.9,2.5,2,4.6c-0.6,1.2-2,0.6-3.1,0.8c-2.8,0.4-4.5-2.2-4.1-3.5c1-3.9-2.4-4.4-3.7-6.5
				c-1.6-2.5-6.2-5.7,0.1-9.7c3-1.9,3.3-8.1,4.4-12.5c0.8-3.1,2.1-5.5,4.6-7.6c3.1-2.6,3.8-5.5-0.7-7.6c-0.6-0.3-1.3-0.5-1.9-0.8
				c-7.7-4.7-7.8-4.7-8.7,4c-0.2,2.3-1.6,3.2-3.7,3c-3.6-0.4-8.3-2.5-7.4-5.6c1.7-6.1-2.9-4.9-5.3-6.5c-1.8-1.2-5.2-0.7-5.4-3.5
				c-0.3-3.7,3.8-0.8,5.2-2.7c0.6-0.8,1.8-1.1,3-2.2c-4.6,0.9-5.8-1.2-6.8-5.1c-2.2-8.4-10.4-12.1-18.9-10c-3.9,1-8-0.3-12-0.8
				c-9.4-1.4-18.7-1.4-27-7.9c-2.9-2.3-9.2-0.4-14.2-0.4c0.1-4.2,2.7-4.4,5.1-4.9c3.5-0.7,3.8-3.3,3.5-6.1c-0.4-3.2-3-1.8-4.8-2
				c-10.1-1-17.8,5.7-28.5,7.4c7.1,4.9,13.3,2.3,19.3,3.1c-12.2,4.6-16.7,16.5-24.9,24.7c-1.2,1.2-2.5,1.9-4,2.3
				c-7.6,2.3-14.6,6.3-22.7,7.1c-2,0.2-3.8,1.4-4.4,2.9c-1.7,4.9-6,7.2-9.5,10.3c-1.8,1.6-3.4,3.4-3.7,5.6c-0.3,2.9-0.4,7,2.9,7.6
				c2.9,0.5,6-2.3,6-5.7c0-7.8,5.3-11.2,11.2-12.7c7.2-1.8,13.7-5,20.5-7.5c3-1.1,6.1-2,7.7,1.5c1.4,3.1-1.9,4.4-3.9,5.3
				c-3.9,1.8-6.2,4.3-8.3,8.3c-2.4,4.8-5.7,9.4-9.6,13.7c6.3-3.2,14-2.6,18.8-9.1c1.9-2.5,5.2-4.2,8.2-5.7c1.8-0.9,4.8-0.3,4.9,1.9
				c0.1,1.7,0.7,4.7-2.4,5.7c-14.3,4.5-24.1,14.1-30.9,27.1c-0.5,1,0.1,2.5,0.1,3.7c0.2,6.1-1.7,7.6-7.3,4.9c-2.8-1.3-5-1.7-7.6-0.2
				c-2.9,1.6-5.8,1.1-8.6-0.2c-3.9-1.8-7.6-3.4-11.1,0.5c-0.9,1-2,1.1-2.9,0c-1.9-2.4,0.2-4,1.6-5.2c2.1-1.8,3.6-3.6,2.1-6.4
				c-1.3-2.5-3-4.6-6.4-4c-2.2,0.4-4.4-0.5-6.7,0.5c-4.5,1.9-8.9-0.4-13.3-0.8c-1.6-0.2-2.4-0.5-1.4-3.1c1.6-4.6-3.4-10.3-9.7-11.2
				c-3.9-0.5-8.2,0.9-8.9,5.6c-0.5,3.3-6.1,6.4-0.5,10.4c1.5,1.1-0.7,3.1-2.4,3.9c-3.5,1.7-7.1,3.3-5.2,8.4c0.4,1-0.1,1.9-1,2.2
				c-1.4,0.5-1.9-0.8-2.6-1.7c-5.7-7.8-4.4-14.7,4.2-20.8c11.3-8,16.5-25.4,11.4-38.7c-0.4-1.1-1-2.3,0.1-3.1
				c6-4.7,8.6-13.1,16.6-15.5c7.4-2.2,12.7-8.4,20.6-9.9c3.6-0.7,5.9-4.8,4.7-9.4c-0.5-2-0.3-3.7,2.4-3.7c3.2,0,6.5-0.4,9.6,0.1
				c7.9,1.3,12.8-0.7,16.7-7.5c0.9-1.6,1.5-3.4,2.6-4.8c1.7-2.2,3.6-4.3,5,0.3c0.4,1.4,1.5,2.1,3,2.4c3.1,0.5,3.3,2.5,2.2,5.1
				c-3.6,8.9-1,12.3,8.2,11.3c1.8-0.2,3.6,0,5.8,0c1.3-2.7-3-5.7,0.5-8.6c2.8-2.3,6-1.7,8.8-2.7c9.4-3.2,18.5-3.4,27.8,0
				c3,1.1,5.7-1.9,8-2.5c8.3-2,13-8.7,19.9-12.4c1.8-0.9,4.4-1.4,3.9-4c-0.7-3.5-3.8-1.2-5.7-1.8c-0.8-0.2-1.8,0-2.7,0.1
				c-2.6,0.2-5.9,0-6.4-2.6c-0.6-2.8,1.6-5.8,1.6-9c0-0.6,2.6-0.6,3.8,0.1c1.8,1,3.4,2.1,5.7,1.7c4-0.7,6,0.9,5.7,5.3
				c-0.3,4.1,1.2,4.9,5.7,4.5c9.5-0.8,18.3-5.4,28.3-4c9.3,1.3,18.5,2.3,27.1,6.5c1.5,0.7,2.7,1.7,3.7,3
				c6.4,8.1,14.9,12.8,26.3,14.8c-4.9,2.5-9.7,3.4-9.7,9.5c0,1.8-2.5,0.7-2.8-1.3c-1.2-7.4-6-5.5-10.3-3.8c-8.3,3.3-14,9.8-19.1,17
				c-1.1,1.5-3.6,2-5.1,3.3c-2.4,2.1-6.4,2.8-5.1,7.9c1.1,4.6,3.7,7.3,7.5,9.3c2.4,1.2,5,1.8,7.4,3.3c9.4,6.1,18.1,2.4,21.3-8.5
				c0.5-1.7,1-3.6,2-5.1c2.7-4.3,0.1-5.1-3.3-5.7c-1.5-0.2-4.8,1.1-3.8-1.6c0.5-1.4,0.2-6.4,4.6-5.1c2.8,0.8,4.2-0.9,5.7-2.7
				c1-1.3,1.8-3.8,4.2-2c1.9,1.4,3.7,2.5,3.5,5.9c-0.3,3.8-3,5.9-4.5,8.4c-3.2,5.1-2.9,11.7-7.8,16.1c-3.5,3.1-1.1,8.1,4.6,9.3
				c7.3,1.6,14.7,3.5,22.1,3.6c12.2,0.2,23.5,4.5,35.3,6.7c1.7,0.3,3.3,1,5.2,1c5.8,0.1,8.7-0.6,3.4-6.3c-2.8-3-0.5-6.5-0.2-9.6
				c0.9-8.8,0.2-10.5-8.5-11.3c-3-0.3-3-2.5-3.9-4c-1.5-2.4,0.7-3.1,2.4-3.8c0.6-0.3,1.7-0.2,1.9-0.7c2.8-5.4,5.4-8.4,8.9-0.2
				c0.7,1.6,3.9,0.9,5.8,0.2c8.3-2.9,11.8-10.1,15.1-17.4c0.7-1.5-0.2-2.7-1.4-3.5c-6.8-4.8-27.4-4.3-34.1,0.8
				c0.1,1.6,1.6,1.3,2.4,1.8c1.5,1,3.8,2.4,2.8,4.1c-1.6,2.6-3.9,0.2-5.2-0.8c-3.2-2.4-6.1-4.7-10.4-2.8c-2.2,1-3.7,2.7-3.2,4.7
				c1.4,5.7-1,6.5-6.1,7.4c-3.4,0.6-7.9,3.5-7.5,9.2c0.2,2.8-1.1,5.7-1.7,8.6c0.8,1,1.9,1,3.1,0.8c2.5-0.3,5.1,1.7,4.8,2.9
				c-0.7,2.7-2.4,5.5-4.5,7.3c-1.9,1.5-3.5,0.1-4.1-2.6c-0.5-2.3-2-0.8-3.1-0.1c-1.8,1.1-3.9,2.3-5.7,0.7c-2.2-2,1-3.5,1.1-5.5
				c0-1,0.6-2.7,1.3-3c6.7-2.7,3.5-10.6,7.8-14.4c0.4-0.4,0.8-1.6,0.5-1.9c-7.3-9.5,4.7-8.8,7-13.2c0.7-1.3,4-0.8,3.6-3.3
				c-0.3-2.2-2.1-3.3-4.3-3.9c-6-1.6-12-3.4-18-5.2c0.6-2,2.1-2,2.9-1.6c7.7,3.7,16.9,0.6,24.1,5.5c1.6,1.1,2.4-0.2,3.6-0.4
				c9.9-1.9,19.9-3.7,29.8-5.5c2.9-0.5,5.1,0.2,7.5,2c6,4.5,13.2,2.9,18.7-2.4c5.9-5.6,12.2-10.9,21.5-9.9
				c5.5,0.6,11.1-3.2,16.9,1.6c1.1,0.9,7.5-3,11.5-4.5c6.1-2.3,12.1-4.7,17.9-7.7c1.6-0.8,3.9-0.9,4.9-4.3c1.2-4,6.3-1.7,8.4,0.5
				c5.3,5.6,12.4,6.1,18.9,8.2c3.1,1,6.5,2.1,8.5,4.2c9.1,9.4,19.7,8.6,30.9,5.9c2.4-0.6,4.9-1.2,7.4-1.3c3.2-0.1,5.4-0.7,4.9-4.6
				c-0.1-0.5,0.5-1.3,1-1.7c7.4-5.7,8.5-15.9,15.8-21.7c3.1-2.5,1.6-7,4.9-10c4.4-3.8,9.4-4,14.4-4.8c4.3-0.8,8.2-2,11.2-5.4
				c1.9-2.3,13.4-2.5,15.5-0.4c3.7,3.7,3.7,7.1,0.4,11.9c-6.9,10-11.2,21.8-20.7,30c-0.3,0.3-0.9,0.6-0.9,0.9
				c-0.1,2.1,1.2,4.4-1.6,5.9c-2.3,1.3-4.4-1.6-7,0.3c2,2.1,5.2,3.1,5.5,6.7c0.1,1.4,3.4,2.6,4.8,1.6c5.8-4.3,13.2-0.4,19-4.4
				c1.8-1.2,4.6-1.1,6.3,0.9c2.5,2.8,1.4,7.2,0.2,8.8c-2.6,3.8-1.2,7.2-1,10.7c0.2,3.1-0.1,5.6-2.7,7.9c-4,3.6-4,9.4-6.2,14.1
				c-1.6,3.3,2.4,3.5,4.5,4.6c9.3,4.8,19.2,5.6,29.4,5.1c0.9,0,2,0.8,2.9,1.5c5.6,4.2,6.7,3.5,9.6-2.4c2.2-4.6,7.6-2.1,11.6-2.8
				c1.5-0.3,3.4-0.1,3,2.4c-0.4,3.3-0.9,6.4-5.3,6.6c-1.6,0.1-3.1,0.7-4.7,1c-1.8,0.3-3.1,1.3-3.2,3.1c-0.1,1.9,1.9,1.5,3.1,1.8
				c6,1.7,11.5,5.7,18.3,2.1c2.2-1.2,4.7,0.4,6.2,3c1.6,2.8,4.1,4.6,7.4,3.5c2.8-0.9,4.9-2.2,2.3-5.8c-0.6-0.9,2-1.9,3.1-1.8
				c9.1,0.4,16.3-3.1,22.4-9.6c1.5-1.6,4.3-3.6,5.8-1.4c1.5,2.1-0.5,4.7-2.8,6.1c-4.5,2.7-11.8,4.3-13.1,8c-2.4,6.9-7.9,5.9-12,8.1
				c-3.8,2.1-8.1,0.4-12.2,1.3c-10.7,2.3-20.8-1-31.1-3c-3.1-0.6-4.9-2.1-4.4-4.9c0.7-3.7-1.6-4.4-4.1-4.9c-5.6-1-11.3-1.9-17-0.2
				c-4.6,1.4-7.9,0.2-9.9-4.6c-1.9-4.7-4.4-7.4-10.9-6.4c-5.2,0.8-11.3-0.3-16-4.5c-3.9-3.6-7.2,0.3-10.7,1.3
				c-15.9,4.6-16.2,5.4-14.7,22c0.5,5.1,5.7,9.5,2.2,15.2c-0.7,1.1-0.4,2.8-1.8,3.5c-2.9,1.5-3,8-7.2,5.7c-3.2-1.8,1.7-4.7,1.8-7.5
				c0.1-3.2,2.3-6.9-3-8c-1.5-0.3-2.9-2-1.4-2.9c6.9-3.8,0.3-12,5.5-16.4c1.4-1.2-1-2.5-2.6-2.8c-3.3-0.5-7.9,3.7-7.9,7.1
				c0,4.9-5.6,8.7-10.3,6.9c-1.9-0.7-2.8-0.6-3.5,1.5c-1.5,4.3-5.2,7.2-6.6,12.2c-1,3.4-8.5,5.3-13.3,7.1c-1.7,0.6-2.5-1.6-0.7-3.1
				C655.7,530.8,657.4,530,659,528.9z M565.5,460.8c-3.6-7-2.7-12.5,3.8-16.6c2.9-1.8,2.1-3.2-0.2-4.3c-4.9-2.3-25.3,2.5-29.5,6.2
				c-5.9,5.1-7.4,14.1-15.5,17.2c-1.6,0.6-0.9,2.6-1.7,3.4c-3.8,4,1.1,8.2-0.5,12.2c-2.4,6.1-5.6,11.7-3,19.2
				c1.5,4.4,4.1,7.3,6.6,10.4c2.1,2.5,0.3,3.2-0.8,4.3c-1.5,1.5-2.9,0.8-3.8-1c-0.7-1.4-1.3-3-2.3-4.2c-2.6-3.5-7-3.4-9,0.2
				c-1.9,3.5,2.4,10.1,6.9,9.8c7.1-0.6,15.2,1.5,20.5-5.8c1.2-1.7,3.3-1.3,5-1.8c7.6-2.1,15.2-4.3,21.7-9.1c-2.1-2.9-5-2.9-7.7-2.9
				c-2.3,0-4.9,0.6-5.4-2.6c-0.4-2.7,1.4-4.1,3.9-4.7c4.3-1,4.2-3.5,2-6.5c-3.2-4.4-6.5-8.2-12.8-7.3c-2.8,0.4-5.4-1.7-2.5-3.7
				c4.3-3,1.1-3.9-0.4-5.9c-0.9-1.2-2.4-2.6-1.2-4.2c1.3-1.7,2.9-0.1,4.4,0.2c1.5,0.2,2.1,1.7,3.1,2.3c5.8,3.7,7.1,10.6,11,15.4
				c3.5,4.2,7.2,8.4,8.1,13.5c1.3,7.4,6.5,6.4,9.8,4.3c3.7-2.4,7.5-2.2,11.8-2.9c-8.8-7-17-13.6-25.3-20.2c2.5-2.2,3.4-5.4,1.8-9.3
				c-0.5-1.2-1.5-2.8,0.1-3.6c1.5-0.7,3.5-0.1,4.3,1.3c1.7,3.1,7.4,5.4,6,7.8c-3,5.1,0.4,8.5,2.4,10.8c7.2,8.3,20.8,10.1,31.7,6.1
				c6.2-2.3,9.5-6.5,9.9-12.5c0.4-6.3-3.7-9.7-9.6-11.1c-2.5-0.6-3.9-2.6-1.4-4.4c3.8-2.6,1.6-3.4-0.8-4.6c-1.2-0.6-2.4-1.5-0.8-3.5
				c4.1,2.2,7.7,5.5,12.2,7c1.1,0.4,2.7,2.2,2.5,2.9c-1.5,4.5,7,8.1,1.2,13c-0.1,0.1,0.5,1.2,1,1.6c3.2,3.1,15.4,1.3,16.4-2.9
				c1.6-7.2,6.5-12.3,9.7-18.5c1.2-2.4,7.5-7.6-1.4-9.3c-0.6-0.1-1.6-1.4-1.4-2c1.1-4.2-1.9-3.7-4.5-4.8c-5.1-2.2-10.1-3.6-15.7-2.6
				c-2.1,0.4-4.1-0.6-1.9-3c4.3-4.8,1.1-5.6-2.8-5.3c-9.5,0.7-19,1.9-28.6,2.9c-3.1,0.3-4.1,2.5-4.7,5.2c-0.8,3.5,2,3.4,4,4.3
				c3.7,1.7,8.1,1.9,10.9,5.3c0.8,1,2.4,1.9,1.2,3.4c-1.3,1.7-2.3,0.2-3.2-0.7c-2.6-2.4-5.3-2.1-8.7-1.8
				C581.7,448,574,454.9,565.5,460.8z M363.6,470.5c1.2-2.7-1.7-4.4,0.6-5.8c1-0.6,2.4-1,3.1,0.1c4.1,6,11.4,4.8,16.8,7.7
				c3.8,2,4.6,1.3,5.2-2.4c0.9-4.7,2.9-8.4,8.8-7.9c1.2,0.1,2.3-1.3,3.6-1.7c8.9-2.6,13.4-12.5,23-14c0.5-0.1,2.1-1,1.4-2.4
				c-2.1-1.1-5.9,1.2-6-3.6c-0.1-8.5-3.9-10.2-12.4-10c-6.8,0.2-14.4,2.7-20.8-3c-1.8-1.6-4.9-2.5-7.6-0.1c-2.7,2.4-4.5,8.9-9.7,2.7
				c-0.5-0.6-1.1,0.3-1.7,1.2c-1.8,2.9-4.5,5.3-2.5,9.3c-2.9-0.1-4.1-2.2-4.5-3.3c-1.4-3.7-4.5-4.3-7.1-3.1c-3.1,1.4-8,2.7-7.5,7
				c0.5,4.2-1.6,5.9-4.3,7.5c-4.1,2.5-3.4,6.3-2.7,9.6c0.5,2.8,1.5,5.1,5.5,6.8C351,467.6,358.1,465.1,363.6,470.5z M225.3,478.3
				c-2.6-2.8-5.9-1.5-8.7-2.4c-10.6-3.2-16,1-15.2,11.8c0.2,2.2-1.2,3.3-2.4,4.6c-2.5,2.8-4.2,6.3-6.4,8.9c-3.2,3.9-0.1,5.4,1.2,7.4
				c1.6,2.5,3.6,1.6,5.5-0.5c1.5-1.6,3.5-1.4,5.7-0.5c9.3,4.2,18.8-1.1,28.2,0c1.5,0.2,3.7-3.1,2.2-3.4c-5.9-1.1-4.9-7.2-8.4-9.9
				C220.6,489.3,220.4,485.5,225.3,478.3z M517,580.2c3.4,2.2,6.8,4.1,9.9,1.9c3.6-2.6,7.2-2.4,10.3-0.6c12.3,7,21.2-1.1,30.8-6.4
				c2.6-1.5,2.6-3.6,0.1-4.5c-11.4-4.3-22.7-8.1-35.3-8.2c-7.6-0.1-11.8,6.3-19.3,6.3C518.2,571.7,525,573.9,517,580.2z
				 M700.3,454.8c-3-2.4-8.4-2.2-7.6-6.3c0.6-3.4,4.2-5.5,8.5-5c1.3,0.1,4-1,3.5-2.4c-0.8-2.1-1.9-4.9-4.6-5.2
				c-1.9-0.3-4.3-0.1-6,0.7c-5.9,3.2-10.1,8.4-14.6,13.2c-1.6,1.7-1.5,4.9-5,3.5c-3.7-1.4-1.3-3.5-0.4-5.4c1.2-2.8,0.6-4.5-2.9-4.1
				c-1.7,0.2-3.9-0.4-4.8,1.7c-1.5,3.4,1.5,5.4,2.5,8c0.7,1.8,4.2,2.6,2.1,5.6c-1.5,2.2-4,2.7-6.1,2.3c-2.3-0.4-4.5-1.6-4.5-5
				c0-3.9-2.4-3.4-4.9-1.9c-5.8,3.4-4.5,10.4-7.9,15.2c-1.2,1.6,1.7,3.5,3.4,2.7c5.6-2.7,12.6-1.2,17.6-5.1c4.8-3.7,10-4.7,15.6-5.8
				C689.6,460.3,695.5,459.6,700.3,454.8z M244.9,546.3c3.1,1.3,4.6-0.2,6.2-0.8c8.5-3.5,10.1-7.5,6.3-15.5
				c-0.7-1.5-0.1-2.7,0.6-3.9c2.6-4.7,5.1-9.5,7.8-14.1c1.2-2,1.5-3.8-1.3-3.8c-4.2,0-8.5,0.6-9.9,5.5c-2,7-5.6,11.3-13.5,12.4
				c-9,1.3-11.6,6.7-7.6,14.4C236,545.1,241.5,545.3,244.9,546.3z M788.2,537c-2.1-0.1-4,0.1-6,1c-2.7,1.3-6.8,1.3-5.8,5.8
				c0.9,4.1,4,7.4,8,7.3c7.5-0.2,14.8-3.1,22.6-2.1c2.7,0.3,6.8-2.5,6.7-6.2c0-3.1-3.3-5.4-6.5-4.8
				C800.7,539.5,794.5,537.4,788.2,537z M791.9,570.7c4.8-1,9.8-1.7,14.5-3c3.9-1.1,7-3.5,5.4-8.4c-0.9-2.8-10.5-5.6-12.7-3.5
				c-3.6,3.5-7.9,4.9-12.7,5.7c-1.6,0.3-3.2,0.9-3.3,2.9c-0.1,1.5,0.6,2.5,1.9,3.4C787.2,569.2,789.1,570.9,791.9,570.7z M230,522.5
				c-5.5-5.4-13.7,1.1-18.4-5.5c-0.5-0.7-1.5,0.4-2.3,0.9c-6.9,5.1-7,5.2,0.8,9.1c1.9,0.9,3.3,1.9,4.6,3.6c2.8,3.5,7.2,2.7,10.8,2.4
				c3.6-0.3,0.9-3.7,1.2-5.6C227.2,525.1,229.1,524.2,230,522.5z M760.9,567.4c6.2,3,13.4,1.7,17.2,8.3c1,1.7,4.4,1.8,5.7-0.8
				c1.3-2.5-0.2-4.5-2.5-5.3c-2.1-0.7-4.4-1-6.6-1.2c-1.7-0.1-3,0.6-4.3-1.7C767.7,561.8,764.4,563.3,760.9,567.4z M513.4,490.6
				c0.7-4.3,1.1-8.3-3.1-9.1c-4-0.8-3.2,5.2-6.4,6.4c1.7,3,2,7.6,6.1,8.1C514.3,496.5,513.7,492.7,513.4,490.6z M629.9,523.4
				c0.4-1.8,0.6-4.2-1.6-3.6c-3.2,0.9-9.4,1.4-9.1,3.1c0.6,3.7,3.9,9.5,6.5,9.7C632.1,533.1,627.1,525.9,629.9,523.4z M614,536.8
				c0.3-3.5-2.2-5-3.2-7.2c-1.2-2.5-4-1.1-6.1-0.8c-1.3,0.2-2.3,1.9-2,3.2c0.5,2,2.6,2.8,4.2,2.5C609.7,533.9,611,536.9,614,536.8z
				 M253.6,454.9c2.9-1,4.2,2,6.8,1.5c2-0.5,3.8-1.9,3.5-3.7c-0.5-3-3.6-2.2-5.7-2.5C255.6,450,254.8,452.2,253.6,454.9z
				 M709.6,446.3c-1,1.6-4.3-1.6-4.5,1.9c-0.1,2.2,1.8,4,4.5,4.2c2.8,0.2,4.4-1.3,4.5-3.9C714.2,445.1,711.4,447.1,709.6,446.3z
				 M573.2,444.2c3.2,1.7,5.6,5.2,9.2,1.7c1-1,1.6-2.5,0.3-3.5C579.5,439.8,576.6,441.2,573.2,444.2z M665.9,511.5
				c-1.7,1-4.7,1-4.3,4.6c0.2,2,1.2,3.2,2.9,2.7c2-0.6,4.3-1.7,4.5-4.4C669.2,512.6,668.3,511.5,665.9,511.5z M334.9,456.4
				c-3.4-1.7-6.4-1.7-9.2,0.7c-1.1,0.9-1,2.2-0.2,3c3.5,3.1,5.3-1.7,8.2-1.9C334,458.2,334.3,457.3,334.9,456.4z"/>
			<path d="M219.7,568.7c6.5,2.1,7.2-3.9,9.7-6.2c4.5-4.1,8.5-6.1,14.2-3.2c3.9,2,7.8,3.5,12.5,2.6c3-0.6,5.6,2.1,6.9,4.8
				c1.8,3.6-2.5,4.7-4.3,7.5c3.9,0.7,6.4,0.3,9-2.1c5.1-4.9,10.1-10.6,15.8-14c11.9-7.2,17.3-19.8,27.3-28.3
				c2.8-2.4,5.2-5.2,7.7-7.8c1.2-1.3,2.8-1.9,4.3-1c2,1.2,0.1,2.7,0.1,4c-0.3,7.7-5.7,9.5-11.7,10.9c-5.2,1.2-9,4.9-11,9.1
				c-4.1,8.6-7.6,17-17.3,21.3c-3.9,1.7-5.7,6.5-7.9,10.2c-4,7-10.4,10.7-17.6,13.2c-1.7,0.6-5.4,1.2-6.7-1.6
				c-1.4-2.8,2.2-3.2,3.4-4.5c-1.1-2.1-2.2-1.7-3.5-0.9c-5.6,3.5-12,5.2-18.3,6.9c-2.7,0.8-7.1,2.6-6.7-3.5c0.2-2.6-1.9-2.2-3.3-1.9
				c-2.1,0.5-3.7,1.7-3.5,4.2c0.5,5.4,4.7,8.9,10.4,9.5c7.6,0.8,15.4-1.2,22.8,1.3c3.3,1.1,8.4,2.3,7.5,5.9c-0.6,2.5-6,0-8.3-1.2
				c-7.7-3.9-15.6-0.6-23.3-1.8c-7-1.1-13.9-9.3-12.2-16.2c1.1-4.2-1.6-7.6-2-11.4c-0.5-4.2,4.4-17,8.1-18.7c2.3-1,2.8-0.1,2.6,2.1
				C224,561.8,221.4,564.8,219.7,568.7z"/>
			<path d="M305.7,401.5c-2.1,1.4-4,2-4.1,4.2c0,3.4-2.4,3.4-4.8,3.2c-10.4-1-18.3,3.7-23.9,11.8c-1.3,2-6.4,2.7-4.2,7.2
				c0.1,0.2-5,1.8-5,0.4c0.1-3.6-3.5-6.7,1.2-11.4c5.3-5.3,12.3-7.4,17.3-13C288.3,397.3,296.9,399.3,305.7,401.5z"/>
			<path d="M335.7,543c1.9,2.9,0.4,4.3-0.9,6.1c-3.4,4.5-2.5,6.8,3.2,8.4c3.5,1,7.2,1.1,10.5,3c1.2,0.7,2.4,1.6,2.3,3.2
				c-0.2,2.1-2,1.3-3.2,1.5c-4.2,0.6-8.3,0.4-11.2-3.1c-4-4.9-7.8-4.8-13.1-1.6c-4,2.4-8.9,3.2-13.5,4.5c-1.3,0.4-2.9,0-3.7-1.3
				c-1-1.7,1.4-1.4,1.6-2.1c2.1-6.6,7.9-7.1,13.3-8.6C326.8,551.3,333,550,335.7,543z"/>
			<path d="M777.9,482.2c0.1-6.7,13-17.2,20.2-15.6c5,1.1,11.9-2.2,14.9,5.1c0.7,1.8,2.8,4,0.6,5.5c-2.2,1.5-3.1-1-4.3-2.7
				c-3.9-5.7-9.4-2.2-14.4-2c-4.6,0.2-2.1,4-3.2,5.5c-3,4-6.7,8.6-11.2,10.2C776.5,489.5,780,483.7,777.9,482.2z"/>
			<path d="M167.9,564.3c2.4-4,4.1-9,9.2-9.7c4.6-0.7,8.3,2.1,9,6.7c1.1,7.4,5.7,10.9,12,13.1c1.8,0.6,4,1.1,2.9,3.4
				c-0.9,1.8-3.8,1.5-4.9,0.6c-2.8-2.4-6.4-3.4-9-5.6c-4.5-3.8-9.5-5.8-15.2-5.8C169.5,566.9,168.4,566.3,167.9,564.3z"/>
			<path d="M347.3,579c-2,2.4-5.4-0.8-6.9,2.2c-0.5,1.1,0,2.4,1.1,3c2.4,1.3,4.8,2.5,7.1-0.6c1.3-1.7,2.1-0.3,2.7,1.2
				c0.7,1.7,1.5,3.3,2.5,4.8c1.4,2,4.9,4.3,3,5.9c-2.3,1.9-6.5,2.1-9.4-0.6c-1.7-1.6-3.3-2.6-5.8-2.8c-5.3-0.5-7.2-6.3-4.1-13.4
				c0.9-2.1,1-5.7,4.9-5.7C346.7,573.2,346.3,576.7,347.3,579z"/>
			<path d="M309.6,584.9c-6.2-0.9-10.9,4-16.7,3.2c-3.2-0.4-2,2.4-2,3.9c0,2.6-0.8,4.6-3.7,4.7c-3.7,0.1-7.6-0.9-9.9-3.4
				c-1.2-1.3,1.7-4.5,3.9-5.6c6.4-3.2,12.9-6.5,19.6-9C305.6,576.9,306.4,582.8,309.6,584.9z"/>
			<path d="M395.3,528.4c-0.2,1.4-0.3,2.7-0.5,4.1c-0.3,1.7,0.1,4.1-2.3,4.4c-2.5,0.3-2.3-2.4-3.1-3.9c-2-3.7-5.3-6.8-2.6-12.1
				c0.5-1-5.1-5.1-8-7.7c-1.2-1-2.8-1.5-3.9-2.6c-1-0.9-1.6-2.4-0.7-3.7c0.8-1.1,2.1-0.7,3.1-0.2c4.7,2.6,9.9,3.3,12.5,10
				C391.2,520.3,395.8,523.2,395.3,528.4z"/>
			<path d="M316.5,507.9c-3.4,6.7-6.4,13.6-14.7,15.6c-3.3,0.8-4.2,7.3-6,7.9c-5.3,1.9-7.8,6.6-12,9.3c-0.8,0.5-1.3,1.4-2.1,1.8
				c-1.4,0.7-2,4.1-4.2,2.2c-2.4-2.1-0.3-4,1.4-5.6c8.4-7.4,15.2-16.6,26-21.3C309.4,515.8,312.7,511.2,316.5,507.9z"/>
			<path d="M360.5,487.9c-6.5-3.5-13.3,3.3-20.7-0.3c-3.8-1.8-3.8-5.1-6-7.3c-1-0.9,1.6-2.1,2.7-1.4c7.8,5.3,15.7,3.1,23.8,0.9
				c3.1-0.8,7,0,7.2,4.2C367.6,488.2,363.7,487.6,360.5,487.9z"/>
			<path d="M373.3,559.9c0.6-3.9-2.5-5.8-5.4-7.2c-3.5-1.6-5.9-2.4-3.3-7.3c1.5-2.8,0.8-7.6-5.1-7c-1.5,0.2-3.2,0.1-4.5-1
				c-1-0.8-1.6-2.5-0.8-2.9c3.8-1.9,7.8,0.5,11.7,0.2c1.4-0.1,3.3,1.1,2.6,3.1c-1.9,6.4,2.3,10.5,6,14.2c2.9,2.8,3.1,5.7,2.9,9
				c-0.1,2.1-1.6,3.4-3.8,2.9C371,563.2,372,561.7,373.3,559.9z"/>
			<path d="M337.9,413c-6.6-2.5-12.1-3.2-17.8-2.3c-3.2,0.5-4.9-1.5-5.4-4.8c-0.5-3.3,1.6-4,3.8-4.5
				C325.7,399.7,334.5,404.6,337.9,413z"/>
			<path d="M365.4,585.3c5.1,0.1,9.5,3.2,14.7,1.8c2-0.5,3.9,1.8,4.4,4.3c0.3,1.6,0.6,3.3-1,4.3c-2.1,1.3-3.2-0.8-4.7-1.6
				c-1.4-0.7-3.4-2.1-4.2-1.7C366.1,597.2,366.3,591,365.4,585.3z"/>
			<path d="M437,584.4c-5.1,12.7-15.1,16.5-28,15.8c2.1-3.6,5.3-3.9,8.6-3.7c6.1,0.3,8.1-3.9,10.2-8.6
				C429.6,584.1,433.2,583.5,437,584.4z"/>
			<path d="M304.2,492.1c-1.3-0.2-3.6-1.5-2.9-1.9c3.9-2.7,0.9-9.6,6.6-10.6c1.8-0.3,4.8,0.3,5.3,3
				C313.8,485.7,307.5,492,304.2,492.1z"/>
			<path d="M679.4,542.6c0.8-3.3-0.1-7.7,5.1-7.9c2.1-0.1,4.9,0,5.8,2.5c0.8,2.1-1.4,3-2.7,4.2c-1,0.9-2.3,1.7-2.8,2.8
				c-0.8,1.7-2,2.5-3.7,2.2C678.9,546,679.9,543.9,679.4,542.6z"/>
			<path d="M403.9,579.7c-5.7-2.3-3.1-10.2-8.7-12c-0.4-0.1,1.1-2.3,2.5-2.4c2.1-0.2,5.3-1.7,5.5,1.6
				C403.5,571,405.3,575.1,403.9,579.7z"/>
			<path d="M683.2,523c-6.5,0.9-3.3,7.5-6.9,10.2c-1.1,0.8-2.5,1-3.8,0.2c-1.1-0.7-1.9-2.4-1.3-2.8c3.6-2.2,2.7-7,5.7-9.4
				c1.2-0.9,2.5-2.3,4.2-0.8C681.7,521,682.2,521.8,683.2,523z"/>
			<path d="M431.7,566.6c5.1,2.1,7,6.3,7.7,11.1c0.2,1.4-0.1,3.3-2.2,3.5c-1.6,0.2-2-0.9-2.7-2.2
				C432.2,575.1,433.8,570.5,431.7,566.6z"/>
			<path d="M340.2,526.6c-0.2,4.8-3.3,7.2-7.9,8c-1.4,0.2-2.1-1.4-1.4-2.3c2.4-3.1,3.3-7.7,7.8-8.6
				C340.5,523.3,340.8,524.8,340.2,526.6z"/>
			<path d="M368.1,493.1c-5.7,4.8-11.5,3.4-16.1,6.1c-1.8,1.1-2.3-0.8-2.9-1.9c-0.6-1.1-0.1-2.8,1-2.7
				C355.7,495.4,361.1,492.6,368.1,493.1z"/>
			<path d="M376.3,612.2c6.3-2.3,12.3-2.7,16.6-6.9c0.7-0.7,1.8-0.1,2.1,0.9c0.4,1.2,0,2.6-1.1,3
				C388.7,611.2,383.8,615.6,376.3,612.2z"/>
			<path d="M736.1,502.8c-5,1.5-9.1-1.4-13.6-2.4c-2.2-0.5-1.8-3.3-0.9-4.6c1.4-2.3,2.5-0.3,3.5,0.9
				C727.9,500.2,732.6,500.1,736.1,502.8z"/>
			<path d="M766.8,521.9c-1.2-0.3-1.5-0.3-1.6-0.4c-2-3.7-7.5-5.8-5.1-11.4c0.3-0.6-0.1-2.6,1.2-1.3
				C764.8,512.2,765.5,517,766.8,521.9z"/>
			<path d="M287.1,611.6c-5.5,1.7-10.9,4.4-17.2,0C276.4,611.6,281.8,611.6,287.1,611.6z"/>
			<path d="M373.1,534.3c5.8-1.4,7.8,2.6,10.5,5.2c0.3,0.3,0,1.9-0.4,2.3c-0.7,0.7-1.6-0.1-2.2-0.7C378.7,539,376.3,537,373.1,534.3
				z"/>
		</g>
		<g id="SR_00000120518373296782346010000015014661886257151630_">
			<rect x="99.8" y="101" fill="none" width="800" height="268.1"/>
			<path d="M137.8,249.5v50.9h-24.7V177.2h50.2c23.3,0,39.9,11.5,39.9,33.4c0,16.8-8.9,24.9-19.2,28.8c12.2,4.7,16.6,14.4,16.6,29.7
				v3.2c0,10.9,0.6,21.3,1.6,28.2h-24.2c-1.8-5.2-2.3-13.5-2.3-28.6v-3.2c0-14.1-5.1-19.1-21.2-19.1H137.8z M137.8,229.6h18.8
				c11.9,0,21.8-3.2,21.8-16.8c0-11.4-8.3-15.6-18.3-15.6h-22.2V229.6z"/>
			<path d="M296.1,252.6c0,27.2-13,49.6-44.7,49.6c-32.5,0-43.8-23.9-43.8-49.1c0-23.2,13.1-47.6,45.1-47.6
				C282.7,205.5,296.1,227.3,296.1,252.6z M232.5,252.5c0,19.9,6.9,30.6,19.9,30.6c12.3,0,19-10.6,19-30.3
				c0-18.5-6.4-28.1-19.7-28.1C239.3,224.7,232.5,235.5,232.5,252.5z"/>
			<path d="M377.3,276.4c0,6.3,0.4,17.5,1.3,24.1h-21.4c-0.7-2.8-1.3-8.4-1.4-11.3c-3.9,7.6-12.6,12.9-26.1,12.9
				c-23,0-31.2-14.4-31.2-28.4c0-16.8,11.6-30.6,43.9-30.6c2.9,0,6.6,0,10.9,0v-6.8c0-7.6-2.4-13.5-13.3-13.5
				c-10.8,0-13.4,5.5-14.3,12.4h-23.7c1-14.7,9.8-29.6,38.4-29.6c22,0,36.9,7.6,36.9,30.6V276.4z M354.2,258.7c-3.3,0-6.8,0-11.3,0
				c-16.7,0-19.8,6.8-19.8,13c0,6.3,3.8,11.8,13.1,11.8c14.6,0,18.1-9.7,18.1-22.9V258.7z"/>
			<path d="M471.8,169.6v104.9c0,10.9,0.2,20.5,0.4,26h-23.8c-0.3-2.5-0.8-8-0.8-11c-4.4,8.1-11.4,12.8-26.2,12.8
				c-23.7,0-36-19.4-36-48.2c0-28.1,15-48.6,40.1-48.6c13.9,0,19.8,4.8,21.9,8.5v-44.4H471.8z M410.4,253.2
				c0,17.5,5.9,29.2,19.1,29.2c16,0,19.1-10.8,19.1-29c0-19.9-4-27.9-18.3-27.9C418.2,225.5,410.4,234.7,410.4,253.2z"/>
			<path d="M486.6,169.6H511v47.9c4-5.9,11.2-11.9,25.7-11.9c24,0,36,20.7,36,45.4c0,29.9-13.3,51.2-39.4,51.2
				c-13.4,0-19.5-5.7-22.6-10.7c-0.1,3-0.3,6-0.7,9h-23.8c0.2-6.2,0.4-19,0.4-28.4V169.6z M548.1,251.9c0-15.3-5.7-26.4-19.1-26.4
				c-14.6,0-19.2,9.8-19.2,27.7c0,19.2,4.9,29.2,19.1,29.2C542,282.4,548.1,270.7,548.1,251.9z"/>
			<path d="M581.5,300.5V169.6h24.5v130.9H581.5z"/>
			<path d="M702.9,252.6c0,27.2-13,49.6-44.7,49.6c-32.5,0-43.8-23.9-43.8-49.1c0-23.2,13.1-47.6,45.1-47.6
				C689.5,205.5,702.9,227.3,702.9,252.6z M639.3,252.5c0,19.9,6.9,30.6,19.9,30.6c12.3,0,19-10.6,19-30.3
				c0-18.5-6.4-28.1-19.7-28.1C646.1,224.7,639.3,235.5,639.3,252.5z"/>
			<path d="M789.1,268c-2.7,18.7-14.5,34.2-40.7,34.2c-28.5,0-41.9-17.7-41.9-48.1c0-29.5,16.4-48.5,43.4-48.5
				c30.5,0,38.6,21.9,39.2,34.8h-24.3c-0.9-8.4-4.8-16.1-15.3-16.1c-12.9,0-18.1,11.8-18.1,28.9c0,21.8,6.6,30.5,17.6,30.5
				c10.6,0,13.9-6.9,16-15.6H789.1z"/>
			<path d="M820.8,246.2c6.7-8.5,18.9-24.4,29.7-38.8h27.7c-9.1,10.9-20.9,24.4-30.8,36.2c10.4,16.9,22.8,38.4,33.5,57h-28.1
				c-6.2-11.6-15-28.4-21.5-40.7c-0.5,0.5-10,10.9-10.5,11.4v29.3h-24.5V169.6h24.5V246.2z"/>
		</g>
		<g>
			<polygon points="350,749 500,849 650,749 			"/>
			<rect x="400" y="699" width="200" height="50"/>
		</g>
	</g>
</g>
<g id="text">
</g>
<g id="scratch">
</g>
<g id="guides" display="none">
</g>
</svg>
