<?xml version="1.0" encoding="utf-8"?>
<!-- Generator: Adobe Illustrator 26.0.2, SVG Export Plug-In . SVG Version: 6.00 Build 0)  -->
<svg version="1.2" baseProfile="tiny" xmlns="http://www.w3.org/2000/svg" xmlns:xlink="http://www.w3.org/1999/xlink" x="0px"
	 y="0px" viewBox="0 0 1000 1000" overflow="visible" xml:space="preserve">
<g id="bg">
</g>
<g id="counters">
	<g id="wire">
		
			<rect id="_x35__x2F_8_x22__1000x1000_00000027604135198292265930000005362619537426653321_" x="0" y="0" fill="none" width="1000" height="1000"/>
		<g>
			<path d="M365.4,759.4c1.2-0.1,2.4-0.3,3.4-0.1c1.8,0.4,4.8-0.4,4.5,2.5c-0.2,2.3-2.5,4.3-5.1,3.8c-14.5-3.1-29.1-0.5-43.6-0.3
				c-4.9,0.1-9.8,1.4-14.7,2.2c-1.7,0.3-3.4,0.8-4.5-1c-1-1.6-0.4-3.4,0.7-4.6c6.5-6.8,2.8-15.3-4.1-19.2c-1.7-1-2.5-2.5-3.4-4.2
				c-4-8.3-5.5-17.7-9.5-25.8c-2-4.1-5.3-8.9-10-11.6c-0.4-0.3-1.6-0.2-1.8,0.1c-2.9,5.2-7.9,9.4-7.2,16.2c0.3,3.1-0.6,6-2.3,8.5
				c-5.1,7.2-11.2,13.5-18.1,19c-5.1,4.1-11.7,3.4-15.7-1.6c-1.8-2.3-3.1-2.1-4.7-0.1c-1.7,2.1-3.7,3.7-6,5.2
				c-4.6,3.2-3.8,8.4,1.5,10.5c6,2.5,6.2,3.5,2.1,8.4c-1.2,1.4-3,3.2-1.9,5.3c1.1,2.2,3.4,1.7,5.4,1.4c3-0.6,6-0.4,8.9,0.1
				c1.7,0.3,2.9,0.9,2.8,2.8c0,2-1.2,2.5-3,2.5c-5.9-0.1-11.8-0.3-17.7-0.4c-7.1-0.2-14-2.8-21.4-0.7c-3.3,1-7.8-2-11.6-1.2
				c-7.5,1.5-15.1-1.4-22.5,1.6c-4,1.6-8.5,1.2-12.1-2.3c-0.8-0.8-2-1.4-1.7-2.8c0.3-1.4,1.3-1.8,2.5-2.1c4.7-1.2,9.3-2.6,14-3.4
				c2.9-0.5,4.7-1.7,6.3-4.2c1.5-2.3,2-6,6-5.8c0.2,0,0.6-0.5,0.6-0.7c-0.7-5.8,3.7-10.7,2.8-16.5c-0.2-1.6-1.1-2.1-2.4-2.7
				c-5.4-2.3-10-5.5-13.2-10.7c-1.6-2.6-2-5.1-1.9-8c0.1-1.6,0.3-3.5-1.5-4.4c-2.2-1.1-3.2,1-4.6,2.1c-0.4,0.3-0.7,0.7-1,1.1
				c-0.8,0.9-1.4,2.8-3,1.6c-1.3-0.9-0.8-2.5,0-3.6c3.7-5.1,5.4-10.9,7.1-16.9c1.3-4.4,1.3-8.9,2.1-13.3c0.2-1.3,0.4-2.6,0.7-3.9
				c0.5-1.8,1.8-3,3.6-2.8c2.3,0.2,2.2,2.2,2.1,3.9c-0.2,6.3-0.5,12.6-0.9,18.9c-0.2,3.5,0.7,6.9,2.9,9.3c2.8,3.1,3.1,6.3,3,10.1
				c-0.1,5.9,1.9,7.6,10.1,9c3.8,0.7,10.1-2.3,10.6-5.7c0.6-3.8,2.8-6.8,4.5-9.9c5.5-10.3,7.7-21.8,12.2-32.4
				c1.1-2.6,1.2-5.4-0.4-8.2c-1.2-2-1.7-4.3-2.5-6.5c-2-6.2-1.8-12.3,2.5-17.3c2.8-3.2,3.6-6.6,3.5-10.5c-0.2-6,0.9-12.1-2.3-17.9
				c-1.5-2.8-0.9-6.8-1.2-10.3c-0.1-0.8,0.3-2.1-0.1-2.4c-4.9-4.2-2.9-10.7-5.4-15.7c-0.4-0.9-0.9-2-0.7-2.8
				c1.7-6.6,0-12.8-1.1-19.2c-0.6-3.3-1.3-6.4-3-9.3c-3.9-6.5-5.4-13.9-8.2-20.8c-0.6-1.5-1.2-3.1-2.6-4.2c-2.7-2.1-5.9-1.2-5.7,2.1
				c0.5,9.3-5.3,16.6-7.5,25c-0.3,1.3-0.8,2.6-0.9,3.9c-0.6,11.5-3.3,22.7-4.4,34.1c-0.8,7.9-2.6,16.3,1.3,24.1
				c0.6,1.2,0.4,2.2,0,3.4c-0.4,1.1-0.9,2.3-0.7,3.4c2.2,11.5-2.9,22.5-2.3,33.9c0.1,2.6-0.2,5.8-3.9,5.8c-3.5,0-4-3-4.4-5.7
				c-0.2-1.3-0.5-3.1,0.2-3.9c3.7-4.9,2.3-9.9,1.1-15.1c-0.3-1.4-0.5-3.1,0-4.5c1.5-4.6,1.9-8.9-1.1-13.1c-0.9-1.3-1.1-3.3,0.3-4.7
				c7.2-7.2,4-16.3,4-24.5c0-3.8-1.4-7.8-2-11.7c-0.7-4.4-2.1-9,4.4-10.6c1.9-0.5,2.8-2.7,3-4.9c0.7-7.3,1.4-14.6,2.1-21.9
				c0.3-2.9,0.1-5.7-2.9-7.4c-1-0.6-1.9-1.5-1.5-2.9c0.3-1.5,1.6-1.4,2.8-1.5c2.9-0.1,4.5-1.7,4.9-4.7c0.2-2.2,1.3-4.1,2.4-6
				c5.2-9.6,1.5-19.1-8.8-23c-2.3-0.9-4.4-2.4-6.5-3.6c-3.2-1.8-6.4-2.9-9.6,0.1c-0.9,0.8-1.9,1.6-3.1,0.6c-1-0.9-0.6-2.1-0.3-3.3
				c1.2-4.3,3.6-7.5,8.3-8.3c1.2-0.2,2.4-0.3,2.9-1.5c3.9-7.8,12.2-9.7,18.8-13.7c2.3-1.4,5,0.8,5.8,3.4c1.4,4.7,6.3,5.7,8.9,9.1
				c0.6,0.7,1.6,0.6,2.3,0.1c7.2-4.5,13.4-0.7,19.7,2.4c5.9,2.9,11.1,5.7,10.8,13.8c-0.2,4.3,4.3,3.8,7.4,3.6c2.4-0.1,4.5-1.6,7-1.8
				c1.7-0.1,3.7-2.2,3.3-4.9c-0.6-4.3,1.1-6.2,5.5-6.1c2.1,0.1,3.8-1.3,5.3-2.6c6.4-5.8,14-7.7,22.4-6.8c5.3,0.6,10.4,5.7,10.5,10.8
				c0.1,3.8,0.8,7.6,4.9,8.1c4.6,0.6,6.8-3.5,8.1-6.9c2.5-6.3,6.3-9.6,13.3-10.3c7.7-0.8,14.1-0.3,19.7,6.2c4.1,4.8,20,6.4,24.2,2.4
				c3.3-3.2,7.1-4.7,10.9-6.5c3.7-1.8,6.9-1.9,10.3,2.3c5.5,6.7,8.7,14.7,13.6,21.7c1.1,1.6,2.1,3.4,4.3,4c1.9,0.5,3.8,0.7,4.9-1.2
				c1.1-1.8-0.2-3.2-1.6-4.2c-1.4-1.1-2.8-2.1-2-4.1c0.7-1.8,2.2-2.5,3.9-2.6c4.8-0.2,6.7-3.1,7.2-7.4c0.2-2,0.8-3.3,3.2-2.2
				c1.9,0.9,4,0.7,5.9,0.5c8.6-0.9,14.3,4,19.6,9.7c2.1,2.3,3,4.2,6.8,1.1c6.6-5.2,14.7-6.7,23.2-4.6c2.3,0.6,3.5,2.4,5.1,3.9
				c5.3,5.2,9,4.8,13-1.4c0.9-1.4,1.7-2.9,2.6-4.3c1.4-2,1.2-5.9,3.7-6c2.7,0,5.7,1.7,8,3.4c3,2.2,6.2,3.7,9.8,4.4
				c3.6,0.7,6.2,3.2,8.2,6.1c2,3.1,4.4,5.4,7.9,6.5c0.6,0.2,1.3,0.5,1.7,0.9c3.7,3.2,5.1,3.2,5.9-1.7c1.1-7.3,6.3-11.5,10.8-16.3
				c5.8-6.1,12.7-3.6,19.6-2.2c7.7,1.6,9,8.1,11.5,13.6c1.6,3.4,3.2,7.7,6.7,7.9c3.4,0.2,6.7-2.5,9.2-5.9c3.7-5,6.6-11,13.4-12.8
				c0.3-0.1,0.5-0.4,0.8-0.6c6.5-5.5,6.7-5.6,9.8,2.3c2.5,6.4,8.7,9.8,11.5,15.8c2.6,5.6,8.2,8.2,13.7,7.7c6.4-0.6,11.5-5,14.3-11
				c3.1-6.6,11.2-12,18.4-11.5c1.3,0.1,2.3,0.6,2.9,1.7c3.1,5.1,7.1,9.5,11.1,13.9c1.3,1.5,1,3.5,1.7,5.1c1.3,3,3.3,4.7,6.7,2.9
				c1.8-0.9,2.6-2.6,2.2-4.6c-0.4-2.1-2-2.5-3.8-2.3c-2.1,0.2-4.5,0.5-4.3-2.4c0.2-2.6,2.7-2.4,4.7-2.5c3.8-0.1,7.7-0.2,11-2.6
				c0.6-0.4,1.6-0.9,2.3-0.7c8.8,2.6,18.4,2.9,25.7,9.9c3.8,3.6,6.9,2.9,10.2-0.9c2.2-2.6,3.9-7,8.3-2.5c0.2,0.2,0.7,0.1,1,0
				c6.2-1.2,10,1.9,13.2,6.8c3.3,5.2,5.9,5.1,9.2-0.1c1.3-2,2.4-4,3.3-6.1c4.8-11.3,15-16.3,24.5-14.7c3.3,0.6,5.3,1.9,4.5,5.6
				c-1.6,7.3-1.2,8.3,5.3,12.1c0.4,0.3,0.9,0.4,1.3,0.7c2.7,2.3,9.4-0.4,8.6,6c-0.4,3.9,2.8,7.8-0.5,11.6c-0.7,0.9-0.4,2,0.7,2.5
				c1.5,0.6,3.6,0.8,4-0.7c1.7-5.8,9.7-4.6,11.2-10.4c0.2-0.8,1.5-0.8,2.2-0.2c1.1,0.8,1.4,2.2,0.8,3.1c-2.5,3.8-3.1,9.1-9.1,10.3
				c-4.6,0.9-4.5,5.8-4.4,9.1c0.2,9.7-0.6,19.5,1.6,29.2c4.5,20,2.5,40.2,2.3,60.4c-0.2,13.9-0.5,27.8-0.2,41.7
				c0.4,16-3.2,31.3-8,46.4c-1.6,4.9-5.8,8.2-8.7,12.3c-6.1,8.3-3.6,15.3,6.6,17.2c4.7,0.9,8,5.2,13.2,5.2c1.2,0,0.7,2.4-0.8,2.9
				c-3.7,1.3-7.3,2.6-11.6,1.6c-8.1-2-16.5-2.5-24.9-1.8c-7,0.6-13-2.7-19.4-4.7c-1.1-0.3-1.5-1.3-1.2-2.4c0.3-1.1,1.2-1.7,2.2-1.7
				c3.7-0.1,5.8-1.8,4.9-5.7c-1-4.3-4.8-7-8.5-6.1c-1.4,0.3-2.9,0.7-4.2,1.4c-4.2,2.2-6.5,1.4-7.6-3.5c-0.6-2.7-1.4-5.1-4-6.5
				c-2.1-1.1-1.9-3.2-2.2-5.2c-0.6-5.3-5.8-10.4-8.9-8.4c-2.9,1.8-6.5,2.6-8.6,5.6c-1.8,2.6-4.6,4.3-7.1,6.3c-4.8,4-9.7,3.7-14,0
				c-4.7-3.9-9.8-1.9-14.8-2.1c-1.1,0-1.9,0.9-2,2c-0.4,5.1-4.3,6.6-8.1,8.3c-2.7,1.2-8.1,10.7-7.6,13.3c0.3,2,1.7,2.3,3.4,1.7
				c2.8-1,3.2,0.6,3.2,2.7c0,2,0,4-0.2,6c-0.2,2.3-1.6,3.7-4,3.5c-12.1-1.2-24.2-0.7-36.1,1.4c-6.5,1.1-12.4-0.7-18.5-0.4
				c-2.4,0.1-5.1-0.5-5.4-3.3c-0.3-2.6,2.5-3.6,4.5-3.8c4.1-0.3,6.9-2.6,9.3-5.3c6.7-7.5,14.1-14.5,16.4-25
				c1.1-4.7-0.6-12.7-4.3-15.7c-1.6-1.3-3.3-1.2-4.4,0.4c-2.7,3.9-6.8,6.7-9.2,11.1c-2.7,4.9-8.5,5.9-13.5,6.1
				c-4.8,0.1-8.6-3.2-11-7.4c-2.5-4.4-4.1-9.3-7.5-13.3c-3.7-4.3-6.4-5-9.5-0.5c-3.8,5.5-8.5,10-13,14.8c-6.6,7.2-14.7,8.3-19.5,1.4
				c-1-1.4-1.4-2.9-1.6-4.6c-0.3-2.7-1-5.2-2.1-7.7c-0.9-1.8-1.5-3.9-4-4c-2.8-0.2-3.3,2.3-4.4,4.1c-2.4,3.8-3,8.3-5.6,12.1
				c-1.8,2.7-4,3.8-6.9,4.2c-2.5,0.3-16.3-5.5-16.3-7.2c0-5.1-2.9-9.1-4.7-13.5c-1.2-3.1-2.5-6.2-3.7-9.3c-0.5-1.1-1.1-2.2-2.5-2.2
				c-1.5,0-2.6,1-2.9,2.3c-1.9,8.5-6.1,16.4-7,25.2c-0.4,3.2-5.6,7.2-8.9,7.2c-1.6,0-3.3,0.6-4.9,0.7c-3,0.1-5.2-0.5-6.8-3.7
				c-2.1-4.1-4.9-7.8-7.7-11.4c-2.9-3.7-5.1-3.4-7.9,0.5c-2.4,3.3-4.7,6.7-7.1,10.1c-4.2,6-11.1,8-17.9,5c-1.7-0.7-3.2-1.8-4.9-2.5
				c-3.9-1.5-7.7-2.1-12.1-2.2c-8.6-0.1-16.2,4-24.6,3.7c-2.3-0.1-3.8-0.8-5.1-2.4c-4.7-5.8-9.4-11.7-10.4-19.3
				c-1.1-8.1-5.5-15.2-6.5-23.3c-0.2-1.6-1.3-2.8-3-2.8c-2.4,0-3.7,1.5-4.1,3.7c-2.2,11.8-8,22.5-11.3,33.9
				c-1.6,5.8-9.1,7.4-14.4,4.5c-7.3-3.9-9.5-11.1-13-17.5c-1-1.8-1.4-3.8-3.9-3.9c-2.7-0.1-3.1,2.1-3.7,4c-2.1,6-2,11.5,2.3,16.9
				c3.5,4.4,5.6,9.7,8.3,14.6c4.3,7.7,11.7,8.4,18.8,10.3c1.1,0.3,2.3,0,3.5,0C365.4,759.2,365.4,759.3,365.4,759.4z M430,641.8
				c-0.5,1.8,0.3,4.8,1.9,7.7c1.2,2,1.5,4.3,1.6,6.7c0.6,10.3,0.2,20.6-2.5,30.7c-0.4,1.6-0.8,3.4,0.2,4.9c1.7,2.8,1.4,5.8,1,8.7
				c-0.3,2-0.4,3.9,0.7,5.8c4.7,7.5,4.4,17.2,11.6,24c5,4.7,12.4,7.9,17.3,3.1c4.7-4.5,8.5-10.1,8.2-17c-0.2-5-1.4-9.6-0.8-14.9
				c0.5-4.2-0.7-9.2-0.2-14c1-8.4-3.6-16.2-3.2-24.6c0.2-4.1-0.2-8.3-0.7-12.4c-0.6-5.6,0.6-11.9-6.4-15c-2.1-0.9-0.8-2.9-0.1-4.4
				c1.5-2.8,1.9-5.6,0.1-8.5c-1.5-2.2-0.5-3.8,0.9-5.8c1.9-2.8,3.8-5.2,3.4-9.6c-0.5-5.9-1.1-12.6,0.6-18.3
				c4.3-13.9,1.4-25.9-7.1-37c-0.9-1.2-1-2.3-0.3-3.7c1.7-3.2,0.6-6.3-0.3-9.6c-1.2-4.3-4.9-6.6-6.8-10.2c-1.6-3-4-3.1-5.3-0.4
				c-2.5,5.5-7,9.8-8.6,15.9c-2.4,9.4-3.5,19-5.5,28.4c-2.2,10.4-5.3,20.5-4.5,31.4c0.3,4.2,1.1,7.8,4.1,10.8
				c1.3,1.3,2.4,2.7,1.2,4.3c-2.2,2.9-1.3,5.9-1.2,9C429.5,632.1,430.9,636.2,430,641.8z M584.7,725.8c1.8,0.2,4-0.2,5.2-1.9
				c3.7-5.3,8.8-9.6,10.5-16.2c0.9-3.5,2.5-6.9,3.6-10.3c1.4-4.2,2-8.4-0.3-12.5c-1.1-1.8-0.8-3.3,0.5-5c2.5-3.1,5-6.3,2.4-10.7
				c-0.7-1.2-0.2-2.7,0.9-3.6c2.7-2.1,2.6-5.1,2.9-8.1c0.8-7.6,1.4-15.2-1.1-22.7c-0.8-2.3-1.2-5-0.8-7.4c1.2-7.8-1.6-15.1-2.2-22.7
				c-0.8-11.2-5.8-21.6-7.3-32.7c-0.2-1.7-1-4-2.3-4.8c-4-2.6-4.2-6-3-10c0.5-1.7,0.3-3.4-1.4-4.4c-1.6-0.9-3.2-0.5-4.6,0.6
				c-1.8,1.4-2.5,3.2-3.3,5.3c-2.9,7.9-3.3,16.6-7.3,24.3c-1.7,3.3-2.4,7.2-3.7,10.8c-3.3,9.7-0.4,20.4-4.1,30
				c-3.1,8.1,4.2,16.6-1.8,24.3c-0.2,0.2-0.2,0.8,0,1c4.1,4.6,2,8.8-0.7,13.1c-0.6,1-0.2,2.6-0.2,3.9c0.1,9.7,0.8,19.4,3,29
				c1.8,8.1,3,16.3,5.9,24.1C577.1,723.2,579.7,725.9,584.7,725.8z M346.2,704.9c0.2,2.5-0.2,5.1,1.9,7.1c2.6,2.5,4.1,5.3,5,8.9
				c1.2,4.6,5.2,5.1,8.2,1.3c2-2.6,4.1-5.2,5.7-8.1c2.2-3.9,4.5-7.9,2-12.7c-0.9-1.6-0.6-3.4,0.8-4.6c7.1-6,7.2-15,8-22.8
				c1.3-13.5,0.7-27.2,0.1-40.8c-0.2-5.2,0.3-11.8-7.1-13.9c-1-0.3-1.5-1.4-1.5-2.4c0.2-3.3-0.8-6.2-2-9.2c-0.7-1.7,0-3.5,2.1-3.7
				c5.5-0.3,5.4-3.9,3.9-7.3c-1.6-3.5-2.3-7.2-3.3-10.9c-2.7-10.3-5.7-20.4-7.1-31c-0.3-2.5-1.1-4.9-2.8-6.9
				c-2.1-2.5-3.4-5.2-3.2-8.6c0.1-2.4-1.1-4.4-3.5-4.8c-2.9-0.4-3.4,2.1-3.9,4.2c-1.2,5.5-1.5,11.2-4.1,16.4
				c-1.6,3.2-3.9,7.4-2.9,10.2c1.5,4.3-0.2,7.4-1.2,10.9c-1.1,3.7-0.8,6.9,1.8,9.8c1.7,1.9,2.3,3.7,0.2,5.6
				c-2.9,2.7-3.9,6.1-4.2,9.8c-0.6,7.5-1.2,14.9-1.6,22.4c-1.1,18.5,3.2,36.6,3.4,55.1c0.1,5.5,0.4,11.8,5.6,16c1.3,1,1,2.7,0.6,4.2
				C346.8,701,346.6,703,346.2,704.9z M656.4,594.9c0.1-1.2,0.4-2.4,0.1-3.5c-2.9-9.5-6.2-18.9-11.7-27.2c-1.2-1.8-2.4-1.8-3.3,0.1
				c-0.8,1.8-1.4,3.7-1.9,5.6c-1,3.5-0.5,7.6-2.8,10.5c-3.6,4.4-4.9,9.5-6.3,14.8c-3.2,11.7-6.4,23.4-9.2,35.2
				c-2.2,9.2-3.1,18.6-3,28c0.1,8.8,0.8,17.6,0.9,26.4c0.1,11.3,2.6,22,4.1,32.9c0.8,5.9,5.8,6.3,9.4,7.3c3.4,0.9,5.3-2.8,6.1-6
				c0.7-2.7,1.9-4.2,4.8-3.6c2.7,0.5,4.8-1,5.9-3c1.7-3.2,3-6.7,3.7-10.2c2.8-14.1,5.3-28.3,8-42.5c0.5-2.6,0-4.2-2.8-4.8
				c-1.2-0.2-3-1-2.3-2c3-4.5,1.8-9.1,0.9-13.8c-0.1-0.6,1-1.7,1.7-2.3c3.4-2.6,3.9-5.7,2.6-9.7c-0.9-2.8-1.5-5.8-1.6-8.8
				C659.4,610.5,657.5,602.7,656.4,594.9z M508.7,603.3c-0.4-21.1-5.6-41-13.4-60.4c-0.4-0.9-0.9-1.8-1.4-2.6
				c-2.2-3.8-4.3-4-5.8-0.1c-2.1,5.5-7.7,9.6-6.4,16.4c0.1,0.4-0.3,1-0.6,1.3c-3.2,2.6-3.4,6.5-4,10c-1.7,9.3-1.6,18.3,7.3,24.6
				c1,0.7,1.8,1.7,1.4,3c-2.8,9.6,0.7,19.1,0.1,28.8c-0.5,8.4,1.3,16.9,0.6,25.3c-1.1,14-0.9,28.2-4.3,41.9c-0.7,2.9-0.6,5.6,2,7.7
				c2.3,1.8,2.3,3.7,0.2,5.9c-2.7,2.7-2.5,5.5-0.9,9c2.3,5,5.8,4.3,10.2,4.3c10.9,0,16.2-4.8,20.1-13.7c4.7-10.9,2.9-22.3,2.7-33.3
				c-0.3-12.9,0.2-26-1.7-38.9c-0.9-5.9-0.2-11.9-7.7-14.4c-3.5-1.2-3.8-4.8-1.3-7.9C507.3,607.9,508.7,605.9,508.7,603.3z
				 M525.8,690.3c1.2,5.8,2.4,11.7,3.6,17.5c1,5.1,3.9,8.8,8,11.9c1.5,1.2,2.9,2.4,4.1,0.3c2.2-3.8,3.7-2.1,5.9,0
				c3.4,3.2,6.7,2.5,9-1.6c2.1-3.8,3.3-7.9,4-12.2c1.1-6.6,0.9-13.2,1.4-19.8c0.9-11.8,0.9-23.6-1.8-35.1c-0.9-3.7-0.9-7-0.9-10.7
				c0.1-9.3,2.1-19-4.1-27.5c-1.5-2-2-4.6-1.2-7.2c0.8-2.9-0.5-4.7-2.8-6.3c-1.6-1.1-3.6-2.2-2.8-4.7c3.3-9.5-1.9-17.9-3.3-26.7
				c-0.4-2.5-3.2-4.6-5.3-4.7c-2.6-0.1-1.6,3.4-2.4,5.3c-0.9,2.3-0.3,4.5,0.7,6.7c1.4,3.3,1.3,6.5-1.5,9.2c-2.3,2.2-3,5.2-3.5,8.1
				c-1.2,7-1.8,14.2-3.3,21.1c-1.8,8.5-1.3,17.2-2.4,25.8c-0.9,7.3-3.2,15.9,3.1,22.7c0.9,0.9,0.6,2.3,0.1,3.3
				C526,673.3,525.7,681.7,525.8,690.3z M419.1,707.4c0.1-2.6-0.2-4.9-1.9-7.1c-1.3-1.7-1.4-3.8,1.2-4.2c5.6-0.9,5.6-5,5.2-9
				c-1.4-13.3-5.7-26.2-4.8-39.9c0.2-3.6-0.6-8.2-4.1-10.8c-3.6-2.6-3.5-5.6-1.4-8.6c1.7-2.5,2-4.5,0.5-7.3c-1.5-2.9-1.7-6.2,2-8.2
				c4.5-2.4,5-5.6,2.8-10c-3.1-6.1-4.4-12.8-5.5-19.6c-1-5.8-3.9-11.1-6.5-16.3c-1.3-2.7-3.2-4.5-0.3-7.2c1.2-1.1,1.2-2.7,0.2-4.1
				c-0.7-1-1.6-1.8-2.9-1.4c-1.5,0.5-1.6,1.9-2,3.2c-3.3,13.1-6.7,26.3-8.2,39.8c-1.8,16.3-2.8,32.8-2.9,49.3c0,2.3,0.9,4,2.1,5.9
				c3.3,5.2,7.1,10.2,1.5,16.5c-1.9,2.1-1.5,5.7-1.6,8.7c-0.1,7,1.8,13.9,1.5,20.8c-0.7,13.3,6.7,23.6,11.7,34.7
				c0.8,1.8,2.5,1.9,4.3,1.5c1.6-0.4,3.8-0.5,3.9-2.5C414.2,723.2,418.3,715.6,419.1,707.4z M833.2,627.3c1.1-11.9-2.9-23-2-34.3
				c0.4-4.9-1.3-9.5-2.1-14.3c-0.2-1.4-0.9-2.6-2.3-2.9c-1.4-0.3-2,0.9-2.6,1.9c-1.8,3-3.2,6.1-6.3,8.1c-1.2,0.8-1.9,2.9-2,4.4
				c-0.5,5.2-2.7,10-4.4,14.7c-6.4,17.1-7.3,34.6-4.7,52.4c0.1,0.8,0.4,1.7,0.9,2.3c2.6,3.3,2.9,7.1,3.3,11.1
				c0.3,3.9-1.6,6.7-2.5,10c-2.3,8.5-2.3,17.6-4.7,26c-2.5,8.8-0.6,16.3,2.6,24c1,2.3,1.3,5.3,5.1,5.2c3.7-0.1,5.2-2.2,6.4-5.2
				c4.4-10.4,5.5-21.5,7.2-32.5c0.4-2.7-0.8-5.7-0.2-8.3c2-8,3.6-16.3,4.6-24.3C831.2,652.6,834.3,639.8,833.2,627.3z M247.6,525.6
				c0.4,1.5,1,2.7,1.2,4c1,6.9,5.9,12.3,7.3,18.9c1.6,7.7,6.4,14.3,6.7,22.4c0,0.6,0.5,1.3,1,1.6c4.3,3.1,4.9,7.6,4.8,12.4
				c0,2,0.3,4,0.7,5.9c0.5,2.7,1.9,3.3,4.2,1.5c1.3-1.1,2.6-2.1,2.9-3.9c1-5.7,6.9-9.4,6.5-15.7c0-0.1,0.1-0.3,0.2-0.4
				c4.3-6,5.5-13,6.3-20.2c0.8-6.7,1.5-13.6,4.1-19.9c4-9.8,2-20.4-5.9-27.7c-0.5-0.4-1.1-0.9-1.6-0.9c-4.2,0-5.1-3-5.6-6.1
				c-0.5-3.5-2.6-4.5-5.6-4.1c-3.8,0.4-7,1.8-10.1,4.5c-5.2,4.4-5.1,13.3-13.1,15c-0.1,0-0.2,0.3-0.2,0.4
				C249.4,517.3,249.8,521.9,247.6,525.6z M705.6,648.8c0.1-12.1-0.5-25.2-3.9-38c-1.5-5.8-2.7-11.7-4.4-17.4
				c-0.9-2.9-2.5-6.7-6.3-5c-2.8,1.2-5.9,3.8-6.6,7.2c-1.9,9.4-6.1,18.2-6.8,27.9c-0.5,7.9,0.9,16.3-0.7,23.7c-3.5,16-2.3,32-3.1,48
				c-0.2,4.4,0.2,8.3-2.7,12.2c-1.8,2.4-2.9,6.8,0.3,8.5c2.8,1.5,4.9-2.4,6.8-4.5c0.2-0.2,0.3-0.6,0.4-0.9
				c5.8-9.3,11.8-18.4,17.3-27.9C701.9,672.5,707.5,662.2,705.6,648.8z M584.1,530.2c-1.1-1.8-0.3-4.6-2.3-6.2
				c-5-4.2-6.7-11.8-14-13.7c-1.2-0.3-1.4-1.7-1.6-2.9c-1.2-5.3-6.3-7.6-10.7-4.6c-4.8,3.3-8.2,8.3-11,13.1
				c-2.4,4.2-3.1,9.6-3.2,14.9c-0.1,6.2,2.6,11.3,4.8,16.8c2.9,7.6,3.4,16,5.5,24c1.6,6,0.1,13.8,8.3,16.8c1.2,0.4,1.7,1.9,1.1,3
				c-3,5,1.7,9.6,0.6,14.5c-0.2,0.8,0.4,1.8,1.3,1.9c1.2,0.2,1.8-0.8,2.2-1.7c0.4-1.1,0.7-2.2,1-3.3c4.9-17.5,7.3-35.7,12.9-53
				C581,543.5,582.4,537,584.1,530.2z M791.4,585.1c0.9-3.7-1-6.8-5.2-9.2c-4.1-2.4-6-2-7.8,2.5c-1.5,3.7-2.1,7.8-3.8,11.3
				c-3.3,6.6-4.5,13.6-6.3,20.7c-1.8,7.1,5.2,14,0.1,21c0.7,12.4-3.5,25.2,4.8,36.9c3.3,4.7,6,10.3,7.3,16.3
				c0.8,3.4,4.4,3.8,6.7,4.3c2.6,0.5,2.1-3,2.1-4.7c0-9.6,4.2-18.3,5.8-27.5c3-17.5,3-34.9,0.4-52.4
				C794.8,598.1,790.5,592.7,791.4,585.1z M401.2,536.3c-0.4-8.3-3.2-15.6-9-21.5c-1.7-1.7-3.1-3.2-4.1-5.4
				c-1.3-2.8-2.3-6.2-6.8-3.7c-1.3,0.8-2.8-0.5-4.1-1.3c-4.3-2.7-8.7-1.6-10.3,2.9c-1.4,3.8-3.3,7.2-5.4,10.7
				c-1.2,1.9-2.2,3.9-1.2,6.5c2.7,6.6,4.1,13.6,5.5,20.6c1.2,6.3,3,12.5,4.8,18.7c2.1,7.3,6.2,13.8,7.4,21.5
				c0.7,4.9,1.7,9.8,2.8,14.7c0.5,2.2,1.2,4.8,4.2,4.7c3-0.1,2.8-2.7,3.3-4.7c2.3-10,3.7-20.3,5.5-30.4c1-5.4,0.2-11.3,3-16.1
				C400.1,548,400.3,542.1,401.2,536.3z M324.9,654.7c0.2,0,0.3,0,0.5,0c-0.2-3.5,0.5-7.4-0.8-10.4c-3.1-7.2-4.8-14.7-5.3-22.4
				c-0.1-2.1-0.7-3.9-3-4.8c-3.3-1.2-2.9-3.1-1-5.3c1.3-1.4,2.6-3.5,1.5-4.9c-3.4-4.3-2.7-8.9-1.6-13.6c0.2-1.1,0-2.3-0.4-3.4
				c-0.4-1.3-1.3-2.3-2.8-2.4c-1.3-0.1-2.4,0.6-2.8,1.7c-1.2,3.5-4,6-5.4,9.5c-2.1,5.4-3.6,11.7-8,15.3c-3.8,3.1-3.8,6.2-3,9.5
				c1.1,4.5,0.6,10,6.1,12.6c1.2,0.6,1.8,2,1.2,3.5c-1.3,3.4-1.9,7.2-5,9.6c-1.7,1.3-1.7,2.7-1.7,4.7c0.1,8,5.2,14.2,7.7,21.3
				c2.2,6.1,7.6,9.8,10.3,15.7c1.7,3.7,2,7.7,4,11.1c1.3,2.1,2.9,3.1,5.3,2.9c2.7-0.3,2.9-2.5,3.1-4.4c0.5-4.1,0.8-8.3,1.1-12.4
				c0.2-2.4-0.2-4.7-2.6-6c-1.7-0.9-2.8-2.4-0.7-3.8c4.7-3.1,4.6-7.6,4-12.4C325.3,662,325.2,658.4,324.9,654.7z M624,565.6
				c1.6,1.2,2.7,0.4,3.3-1.3c2.1-6.1,6.3-11.4,6.7-18.1c0.2-2.3,0.6-4.6,2.7-6.2c0.7-0.5,1.7-1.7,0.1-2.3c-3.6-1.6-5.2-5.3-6.2-8.1
				c-3-8.3-8.7-13.5-16-17.6c-4.5-2.5-7.2-2.2-10.4,1.7c-8.6,10.4-12.2,21.8-5.5,34.5c2.4,4.5,2.9,9.9,6.2,13.8
				c1.8,2.2,2.3,3.7,0.9,6.1c-1.1,1.8-2.1,3.7-1,6.1c2.6,5.5,3.1,11.5,4,17.4c1.2,7.9,2.7,15.7,4.1,23.6c0.2,1.1,0.6,2.5,2,2.6
				c1.4,0.1,1.2-1.3,1.3-2.2c1.3-10.4,5.5-20.2,5.8-30.6c0.1-4.5,1.6-9.3-1.5-13.5c-0.9-1.2-2.3-2.2-1-3.8
				C620.5,566.2,622,565.3,624,565.6z M534.2,542.4c0.3-6.3,0.6-12.2-6.1-15.2c-1-0.5-1.6-1.6-1.8-2.9c-0.7-4.6-3.7-8.1-6.2-11.7
				c-3.2-4.6-8.5-4.9-12.5-3.6c-8.5,2.7-15.6,11.6-11,21.3c1.8,3.8,3.2,7.6,5.5,11.2c5.9,8.9,4.5,21,12.2,29.3
				c0.2,0.2,0.2,0.6,0.2,1c0.9,7.9,2.7,15.6,5,23.2c0.3,0.9,0.2,2.2,1.6,2c1.1-0.1,1.7-1.1,1.9-2.1c0.5-2.6,1.3-5.2,1.4-7.8
				c0.3-5.9,1.5-11.9-4-16.5c-1.4-1.1-2.8-2.8-1.4-4.7c1.6-2.2,3.3-1,5.2,0c4,2.2,7.4,1.1,7.7-2.5
				C532.3,556.2,534.7,549.3,534.2,542.4z M797.2,580.4c0.4,6.3,2.3,12.3,2.6,18.6c0.1,1.5,0.7,3.4,2.8,3.7c2.1,0.3,3.2-1.1,4.6-2.4
				c2.7-2.5,2.3-6.1,3.5-9.2c3-8,6.9-15.8,6.7-24.7c0-1.9,0.4-4.2,2.8-3.9c4.8,0.5,5.5-3.2,6.6-6.1c1.4-3.7,0.1-7.5-1.5-11.1
				c-1.4-3.1-4.3-1.9-6.6-2.2c-3.8-0.4-3.1-2.3-2.1-4.8c1.3-3.2-1.4-9.7-4.5-10.5c-3.6-0.9-6.8,0.4-8.7,4c-1.5,3-2.8,6.1-4.9,8.7
				c-6.2,7.6-6.9,13.8-1.9,21.8c0.6,0.9,1.1,2.3,0.9,3.3C796.3,570.5,796.5,575.4,797.2,580.4z M753.6,688.8c1-2-2.1-3.3-3.1-5.4
				c-2.7-5.7-4.5-11.8-8.2-17c-2.7-3.7-5.3-3.7-8.4-0.4c-10.9,11.5-10.9,25.7-10.3,40.1c0.1,1.9,1.2,2.6,3,2.2
				c1.4-0.3,2.8-0.1,3.4,1.3c0.7,1.7-0.4,2.9-1.6,3.9c-2.3,1.9-3.6,4.3-4.4,7.1c-1.8,6.7,2.1,10.9,8.9,9.5c8.5-1.7,11-4.1,11.8-13.3
				c0.7-7.4,5.2-13.7,5.4-21.1c0-0.5,0.6-1.4,1-1.5C754.1,693.7,752.9,691.4,753.6,688.8z M659.2,562.2c0.3,3.6,0.2,7.3,0.8,10.9
				c1.9,11.6,7.3,22.4,7.6,34.4c0,1.4,0.4,2.8,2.1,2.9c1.4,0,2-1.2,2.3-2.3c0.7-3.5,2.7-6.5,3.4-9.8c0.8-3.7,3.9-8.2-1.5-11.6
				c-1.6-1-0.6-3.4,0.9-4.8c1.8-1.6,3.2-3.5,3.2-6c0-3.1,1.3-5.5,3.5-7.5c4-3.8,2.8-8.7,1.5-12.6c-1.8-5.4-6.2-10-7.9-15.4
				c-2-6.6-9.9-5.4-12.5-11c-1-2.2-3.4-0.9-5,0.7c-1.4,1.4-2.7,2-0.6,4.2c2.1,2.3,0.8,5-0.7,7.3c-1.2,1.9-2.7,4.2-0.7,5.8
				C660.9,551.5,659.3,557,659.2,562.2z M443,517.3c0.1-7.4-10.8-14.6-17.6-11.9c-3.2,1.3-4.9,3.3-6.7,6.2
				c-2.9,4.8-4.1,10.2-6.9,14.9c-3.5,5.9-3.8,12.1-1.1,18.5c1.9,4.4,2.9,9.2,4.4,13.8c0.6,1.9,1.5,3.7,3.2,4.9
				c1.8,1.3,4,1.8,5.2-0.4c2.6-5.1,5.5-10.2,6.5-16c1.8-9.8,4.2-19.2,11.5-26.5C442.7,519.9,443.1,518.7,443,517.3z M742,537.9
				c0.2-8.5-11-16.3-18.9-13.7c-5.5,1.8-11.8,3.2-12.9,10.6c-0.1,0.4-0.4,1-0.8,1.2c-4.2,2.8-2.3,6.3-1,9.7
				c2.8,7.9,8,14.5,10.9,22.4c1.4,4,5.9,4.8,9.5,5c3.2,0.2,3.5-3.4,4.3-5.9c2.1-6.3,4.4-12.5,6.3-18.9
				C740.6,544.6,741.3,540.7,742,537.9z M464.4,509.2c-6.6,0.5-7.5,7.2-11.6,10.4c-2.4,1.9,3.2,1.4,3.6,3.6c0.1,0.5,0.3,0.9,0.4,1.4
				c1.6,8.6,8.6,14.5,11.2,22.6c0.3,1,1.1,2.1,2.5,2.2c1.7,0.1,2.1-1.4,2.7-2.5c0.4-0.9,0.7-1.9,1-2.8c1.6-6.5,4.5-12.7,5.3-19.6
				c0.4-3.2,1.4-5.8-0.8-8.4C474.9,511.6,469.6,510.3,464.4,509.2z M204.6,502.9c-0.1,1.3,0.1,3.5,1.7,4c4.5,1.2,4.9,5.4,6.8,8.5
				c3,5,6,9.9,7.9,15.4c0.9,2.6,3.5,4.7,4.6,7.5c0.5,1.3,1.8,2.4,3.6,2.2c4.3-0.5,8.9-9.5,7-13.5c-1.9-3.9-4.3-7.6-5.6-11.6
				c-1-3.2-2-5.5-5.8-5.6c-2.2-0.1-3.6-1.5-4.1-3.8c-1-4.8-4.2-7.3-8.6-8.8C207.9,495.8,204.5,498,204.6,502.9z M244.2,733.9
				c6.8-0.4,10.7-5.8,15.1-9.7c3-2.6,3.4-8,1.8-12.3c-1.3-3.4-2-6.5-0.3-10c0.7-1.5,0.7-3.9-1.7-4.5c-2-0.5-4.1-2-6.1,0.9
				c-3,4.3-5.7,8.9-8.9,13c-3.7,4.8-4.9,10.1-6,15.6C237.2,731.6,239.5,733.9,244.2,733.9z M469.2,642.4c0.2,0,0.4,0,0.5,0
				c0,5.1-0.4,10.3,0.1,15.4c0.6,5.9,1.9,11.8,3.1,17.6c0.2,1.3,0.9,2.7,2.5,2.8c1.6,0.1,2.2-1.2,2.8-2.5c0.4-0.9,0.8-1.9,0.9-2.8
				c0.9-10.7,2.5-21.4-0.6-32.1c-0.2-0.8-0.4-1.7-0.2-2.4c1.5-5.7,1.7-11-2.7-15.7c-1-1-0.6-3.6-3-3.2c-2,0.4-2.3,2.4-2.4,4
				C469.7,629.8,469.5,636.1,469.2,642.4z M235,659.5c3.2-3.3,3.9-7.9,6.3-11.7c1.7-2.7,4.9-5.5,4-8.7c-2-6.8-3.5-13.8-7.7-19.7
				c-1-1.4-1.2-4-3.5-3.7c-2.5,0.3-3,2.8-3.5,4.9c-1.8,7-0.7,14.2-1.9,21.2C227.4,649,228.1,655.6,235,659.5z M753.8,563.8
				c0-1.8,0.3-3.7-0.1-5.4c-0.7-3.2-1.9-7.4-5.3-7.6c-4-0.2-5.6,3.5-6.8,7.3c-3.1,10.5-2.5,21.7-5.9,32.2c-0.3,1-0.1,2.3,0.3,3.4
				c0.6,1.5,1.6,2,3,0.7C748.1,586.2,753.6,576.3,753.8,563.8z M340.9,538.5c-4.2,1.9-4.9,6.3-7.4,9.2c-6.6,7.4-11.5,15.2-8.1,26
				c0.9,2.9,2,5.2,4.9,5.2c2.9,0,3.2-3,3.7-5.1c1.4-5.2,2.9-10.5,3.9-15.8C339.1,551.7,341.9,545.6,340.9,538.5z M765.4,551.4
				c1.3-2.9,2.3-5.8,3.9-8.5c1.8-3,2.6-5.6-0.1-8.6c-3.3-3.5-6.6-6.7-12-5.3c-2.5,0.7-3.3,2.6-3.5,4.9c-0.3,2.3-0.2,4.4,2.8,4.8
				c0.6,0.1,1.5,0.7,1.5,1C757.3,545.4,763.8,546.8,765.4,551.4z M251.1,572.7c-2.1-6.8-4.3-14.7-6.9-22.6c-0.8-2.5-2.6-1.9-3.5,0
				c-1.5,3.5-2.4,7-2,11c0.6,5.4,3.9,9.4,5.8,14.1c0.7,1.8,1.4,3.6,3.7,3.1C250.6,577.9,251.3,576.1,251.1,572.7z M311.2,519
				c2.5-1,1.9-4.2,3.9-4.7c7-1.5,6.1-8.2,8.6-12.6c0.8-1.4,0.3-3.1-1.5-3.6c-1.7-0.4-2.2,1-2.7,2.3c-0.3,0.7-0.2,1.6-1.1,2
				C312,505.9,309.5,511.4,311.2,519z M429.7,732.8c2.6-0.2,5.1-0.6,5.2-4c0.1-3.1-3.9-9.2-5.9-8.9c-4.9,0.8-3.9,5.4-4.6,8.4
				C423.7,731.5,426.9,732.4,429.7,732.8z M503.9,723.2c-4.4-0.1-10.4,3.1-10.2,5.5c0.2,2.3,1.4,4.2,4,4.3c4.7,0.2,9.4-3.3,9.4-7
				C507.2,723.8,505.9,723.2,503.9,723.2z"/>
		</g>
		<g id="SR_00000088123406140556466750000012979344536103820959_">
			<rect x="200.2" y="100.2" fill="none" width="600" height="200"/>
			<path d="M285.2,300.2l-32.1-147.9H296c4.2,28.9,10.6,73.1,13.2,103.8h0.7c5.6-30.9,14.1-69.3,20.9-103.8H367
				c5.9,28.7,14.7,70.6,19.4,102.2h0.7c3.5-30.3,12.5-80.3,15.4-102.2h39.2l-34.6,147.9h-41.8c-5.8-30-13.6-63.9-18.4-92.7h-0.6
				c-5,28.4-13.6,65-19.3,92.7H285.2z"/>
			<path d="M487.6,152.3v147.9h-40.8V152.3H487.6z"/>
			<path d="M545.5,243.4v56.8h-39.7V152.3h67.5c32.5,0,50.2,17.1,50.2,40.5c0,19.9-10.1,29.8-22.8,34.9c15.4,5.9,20,18.4,20,35.4
				v4.6c0,12.4,0.5,25.3,1.7,32.5h-39.1c-2.2-6.1-2.9-15.6-2.9-32.5v-4.2c0-15.5-5.1-20.1-20.8-20.1H545.5z M545.5,214.3h17.1
				c12.1,0,20.7-4.6,20.7-17.1c0-11.6-7.7-16.1-18.1-16.1h-19.7V214.3z"/>
			<path d="M736.9,239.4h-62v30.2h69.1l-4.6,30.6H635.6V152.3h103.8v30.8h-64.5v25.5h62V239.4z"/>
		</g>
	</g>
</g>
<g id="text">
</g>
<g id="scratch">
</g>
<g id="guides" display="none">
</g>
</svg>
