<?xml version="1.0" encoding="utf-8"?>
<!-- Generator: Adobe Illustrator 26.0.2, SVG Export Plug-In . SVG Version: 6.00 Build 0)  -->
<svg version="1.2" baseProfile="tiny" xmlns="http://www.w3.org/2000/svg" xmlns:xlink="http://www.w3.org/1999/xlink" x="0px"
	 y="0px" viewBox="0 0 1000 1000" overflow="visible" xml:space="preserve">
<g id="fill">
</g>
<g id="bg" display="none">
	<rect x="-2100" y="-1000" display="inline" fill="#B5BD00" width="8000" height="2059"/>
</g>
<g id="scans" display="none">
</g>
<g id="counters_00000155831629897369998050000010902328751353074356_">
	<g id="M3">
		<g>
			<path d="M594.6,590.5c0.1,7,0.2,13.9,0.3,20.9c0,2.5-1.2,4.4-3,6.1c-15.9,15.6-30.3,32.8-46.5,48.1c-8.5,8-17.4,15.4-25.3,24.1
				c-1.7,1.9-3.7,2.5-6.2,2.5c-8.7,0-17.4-0.1-26.1,0.2c-2.8,0.1-4.8-0.7-6.7-2.6c-6.2-6.4-12.5-12.8-19-18.9c-3-2.9-2.6-5,0.2-7.7
				c5.9-5.6,11.6-11.4,17.3-17.3c1.2-1.3,4.3-2.4,1.6-5c-2.3-2.3-3.4,0.3-4.6,1.4c-1.8,1.7-3.7,3-6.2,2.1c-3.1-1.1-1.1-4-2.2-7.1
				c-3.3,4.3-6.7,7.7-5.1,12.7c1,3.2,0.3,5.2-1.7,7.3c-1.9,1.9-3.8,3.9-5.8,5.7c-0.8,0.7-2.3,1.9-2.8,1.6c-5.6-3-12.8-0.9-17.6-6.2
				c-3.7-4-7.4-8.1-11.6-11.4c-11.2-8.7-19.5-20.3-29.8-29.9c-10.5-9.8-20.1-20.5-30.6-30.3c-24.9-23.1-48.3-47.7-72.2-71.8
				c-3.3-3.3-6.4-4.8-10.7-3c-5.1,2.1-8.5-0.1-12.1-3.8c-26.1-26.3-52.3-52.4-78.6-78.5c-28.2-28-56.5-55.9-84.9-83.6
				c-4.1-4-5-6.8-0.2-10.5c1.3-1,3.4-2.9,3.2-3.9c-1.5-5.8,3.3-7.2,6.2-10.1c9-8.8,18-17.7,26.8-26.8c5.8-6.1,14.4-8.4,19.5-15.4
				c1.7-2.4,3.7-4,0.8-6.7c-1.2-1.2-1.4-2.9-0.8-4.3c1.1-2.5,0.8-4.3-1.2-6.2c-2.4-2.3-0.5-4.8,1.4-4.7c3.9,0.2,6.2-2.7,9.4-3.6
				c1.3-0.4,3.1-1.4,3.8-0.9c3.9,2.9,7.5-2.8,11.8,0.1c1.4,1,3.2-2.9,4.8-5.6c-3,0.2-3.6,3.2-6,3c-0.4-2.5,1.6-4.2,3.1-4.9
				c8.5-4,13.6-11.8,20.2-17.8c5.7-5.2,12-10.3,16-16.8c2.6-4.2,5-3.8,8.5-4.5c2.3-0.5,4.1-3.3,6.1-5.2c1.8-1.7,3.2-2,5.3,0.1
				c14.3,14.2,28.4,28.6,42.8,42.8c12.9,12.8,25.8,25.5,39.2,37.8c6,5.6,11.6,12,17.2,18.1c2.7,3,4.8,3,7.5-0.1
				c3.8-4.2,7.9-8,11.9-12c1.4-1.4,3.1-2.9,5-1.1c1.9,1.8,0.5,3.5-1,5c-4,4-7.8,8.2-12,11.9c-2.9,2.6-2.5,4.3,0.1,6.9
				c18.1,17.9,35.9,36,54.1,53.7c4.7,4.5,7.2,8.7,4.6,15.1c-1.2,3-0.6,5.6,2.1,8.3c33.5,33.1,66.9,66.4,100.4,99.7
				c6.9,6.8,13.3,14.3,21.1,20c9.2,6.7,14.5,16.8,23.3,23.6c5.5,4.2,5,11.4,7.8,17c1.3,2.6-2.4,4-4.1,5.7c-3.1,3.2-5.2,8-11.9,5.4
				c-2.3-0.9-6.5,2.6-9.8,4.2c-0.3,0.2-0.6,1.3-0.5,1.4c0.5,0.5,1.4,1.1,1.9,0.9c1.8-0.5,3.6-1.1,4.3,1.2c0.6,2-0.3,3.8-1.8,5.2
				c-0.4,0.4-0.8,0.9-1.1,1.3c-1.2,1.4-3.2,2.6-1.1,4.8c2.2,2.4,3.4,0,4.7-1.2c5.7-5.6,11.6-11,16.7-17c3.8-4.4,6.6-4.1,10.2-0.2
				c5.8,6.2,11.8,12.3,17.9,18.2c3.8,3.8,2.1,8.2,2,12.5c-1.9-1.2-1.4-3-1.3-4.7c0.2-2.3-0.3-4.2-2.5-5.4c0.1-0.4,0.4-0.9,0.3-1
				c-6-7.4-13.2-13.6-19.8-20.4c-1.8-1.8-3.1-0.3-4.4,0.9c-6.1,6.2-12.3,12.4-18.4,18.6c-1.1,1.1-3.3,2.2-1.4,4.2
				c2.2,2.3,3.4-0.2,4.7-1.4c5.1-5,10.2-10,15-15.3c2-2.2,3.2-2.2,5.1-0.2c3.9,4.1,7.9,7.9,11.8,12c1.7,1.8,3.4,3,5.9,2.6
				c-2.1,3.5,1.2,7.9-1.9,11.2c-5.1,5.1-10.2,10.2-15.6,15.6c3.9,1.6,8.3-0.7,11.2,3.1c0.6,0.8,1.5,2,2.8,1.4
				c1.5-0.7,1.4-2.2,1.4-3.5c0.1-5.6,0.1-11.2,0.1-16.8c2.3,3.3,0.6,7.1,1.3,10.5c-0.6,3.1,0.5,6.4-1,9.5c-1.1,2.4,2.4,2,2.5,3.7
				c1.4-0.2,2.1-1.3,2.1-2.3c0-3.6,1.8-7.5-1.1-10.8c1.8-1.3,1.1-3.3,1.5-5.1C593.7,594.9,592.1,592.3,594.6,590.5z M311.1,430.7
				c-2.6,3.3-8,2.8-10.2,7.7c5.6-2.9,10.6-5.5,15.7-8.1c2.2-0.2,4.4-0.4,6.6-0.6c-0.4,2-2.1,2-3.5,2.4c-3.3,0.8-8.4,1-9.2,3.8
				c-0.8,2.8,3.9,5.1,6.3,7.4c1.4,1.3,2.7,2.1,0.9,4.1c-1.2,1.2-3.8,2.3-1.9,4.7c2.2,2.7,4.6,5.3,8.3,5.9c1.6,0.3,3.1-1.8,2.5-2.3
				c-2.1-2.1,0.4-5.7-2.9-7.3c-2.9-1.4-2.3-3.5-0.3-5.6c3-3.1,5.8-6.3,8.8-9.3c1.5-1.5,1.3-2.2-0.8-2.4c4.6-2,8.6,0.3,12.8,1.4
				c4.6,1.3,8.5,4.2,12.9,6.1c-1.5-1.6-3.3-2.6-4.9-3.9c-6.6-4.9-14.9-4.8-22.2-7.7c2.3,0.1,4.5,0.1,6.8,0.3
				c1.3,0.1,2.6,0.1,2.9-1.1c0.6-2.4-1.7-1.2-2.6-1.8c-0.6-0.4-1.4-0.6-2.1-0.9c0.6-0.7,1.3-1.4,1.9-2.1c5.3-0.3,10.4,3.6,15.8,0.3
				c1.7-1,3.6-2.2,3.9-4c0.3-1.8-1.7-2.9-3.1-3.9c-2.1-1.7-2.9,1-4.3,1.6c-1.2,0.6-1.9,3.4-4,0.6c-6.9-9.5-16.2-16.6-24-25.2
				c-2.4-2.6-4.2-1.7-6.3,0.5c-7.1,7.4-14.3,14.7-21.5,22.1c-1.3,1.3-3.6,2.6-1.8,4.8c1.6,1.8,2.8,5.1,6.4,3.3
				c1.7-0.8,4-1.1,4.9,0.2c2.8,3.9,5.9,2.1,9.1,1.2c2.6-0.7,5.1-2,7.9-1.5c0.7,0.8,1.4,1.6,2,2.4c-5.5,1.6-11.6,1.6-16.1,5.9
				C307.9,432.2,309.6,429.4,311.1,430.7L311.1,430.7z M494.7,686.6c-2.3-0.1-4.5-0.2-6.8-0.2c-1.1,0-1.7,0.8-1.6,1.9
				c0,1,0.5,2.3,1.5,2.1c2.6-0.6,5.7,1.9,7.8-1.4c2.8,2.9,6.1,1.4,9.3,0.8c7.5,1.8,13.4,0.1,19.1-5.8c14.5-15.1,29.8-29.4,44.5-44.2
				c6.8-6.9,13.2-14.3,20-21.8c-4.4-1.4-8.2,0.5-12.7-1.3c1.7,2.9,5.4,3.7,1.9,7.4c-17.5,18.1-34.4,36.8-53.4,53.3
				c-2.2,1.9-4.5,3.6-3.7,7.2c0.4,1.6-1.9,3.8-2.3,3.2c-2.9-4.1-6.8-0.2-9.9-1.5c7-2.6,7-2.6,3.8-7.7c4-3.2,4-3.2,6,1.6
				c1.4-4.7-0.4-8.7-3.7-9.2c-3.3-0.5-0.9,3.9-1.8,6c-0.2,0.5-0.4,1.1-0.6,1.6c-2.1-2.3,0.4-5.8-2-8.3c-4.7,4.7-9.2,9.2-14,14
				c1.4,0.7,2.5,1.3,3.7,1.9C498,686.3,496.4,686.5,494.7,686.6z M402.5,449.4c1.2-0.9,2.5-1.6,3.7-2.6c5-4.4,11.3-8,10.3-16.2
				c0.3-0.6,2.2-1.4,0.6-1.7c-1.6-0.3-3.7,0.8-5.4,1.7c-7.9,4.1-12.6,10.9-15.8,18.9c-3.5,0.4-6.2-0.9-8.6-3.6
				c-4.2-4.6-8.6-8.9-13.1-13.2c-1.2-1.1-2.3-3.9-4.5-1.4c-2.1,2.3,0.4,3.5,1.6,4.7c5.7,5.8,11.4,11.6,17.2,17.2
				c2,1.9,3.4,4.6,6.7,5.1c0.7-3.2-1.7-6.4,0.7-9.1c1.3,1.8-0.6,4.3,1.7,6.7C397,451.6,403.1,453.6,402.5,449.4z M282.3,498.3
				c-0.7,0.8-3.6-0.4-2.4,1.1c2.1,2.8,4.2,6.1,8.1,7.3c0.8-5.1-4.5-5.3-5.9-8.4c1.6-0.5,1.4-1,0.3-2.2c-6.8-6.8-13.6-13.6-20.4-20.4
				c-1.1-1.1-2.3-3.6-4.1-2.1c-2,1.8-0.5,4.1,1.1,5.4C266.9,485.4,272.1,494.9,282.3,498.3z M109,341.7c2,2.5-0.6,6.2,2.6,8.5
				c6.5,4.6,11.2,11.1,17.1,16.4c18.2,16.3,34.6,34.3,52.3,51.1c2.9,2.7,4.4,2.3,7-0.1c3.3-3.1,0.2-4.3-1.3-5.9
				c-13.6-13.7-27.3-27.4-41-41.1c-11.3-11.3-22.7-22.7-34.2-34.2c-1,2.1-1.7,3.6-2.4,5.1c-0.1-2-0.1-4.1-0.2-6.2
				c-2.4,0.2-3.4,2-4.7,3.2c-1,1-2.7,2.1-1.1,3.7c1.3,1.3,2.4,3.6,4.3,3.4C109.2,345.4,108.2,342.9,109,341.7z M258.5,320.4
				c6.5,7.2,12.8,14.5,20.4,20.6c1.7,1.4,3.4,3.6,5.9,1.1c5-5.1,10-10.2,15.1-15.3c1.7-1.7,1.8-2.9-0.1-4.7
				c-6.3-6-12.5-12.2-18.5-18.5c-2.3-2.4-3.9-2.2-6.1,0c-5.5,5.7-11.1,11.3-16.7,17c-1.7-2.8-2.4-7.1-8-5.1
				C253.4,317.3,253.7,322.4,258.5,320.4z M243.6,208.2c1.3-1,3.8-1.2,1.3-3.9c-3.8-4.2-6-3.5-10,3.8c3,0.9,6-1.2,9,0.1
				c-1.9,2-5,0.3-7.2,2.6c0.5,0.6,0.9,1.2,1.4,1.7c19,18.8,38,37.7,57,56.5c5.9,5.8,12.1,11.5,17.9,17.4c2.1,2.1,3.4,2.1,5.7,0.1
				c3.4-3,1.7-4.7-0.6-6.9c-22.6-22.4-45.1-44.8-67.6-67.3C248.5,210.2,246.3,208.9,243.6,208.2z M199.7,248.7
				c10.4-7.9,18.9-17.8,27.9-27.1c3.9-4,5.8-3.6,9.5,0.1c29.3,29.4,58.8,58.5,88.2,87.9c2.8,2.8,4.9,3.3,7.6-0.1
				c-6.1-6.9-12.6-13.5-20.2-18.9c0.8,0.4,1.6,0.8,3.1,1.6c-3.6-3.1-6.4-5.7-9.1-8.6c-11.9-12.5-24.3-24.4-36.5-36.6
				c-6.3-6.3-13-12.3-19-18.8c-2.1-2.2-6.2-1.5-6.6-3.6c-1.1-6.1-6.5-8.3-9.8-12.4c-1.8-2.1-3.3-2-5.2,0c-10.9,11-21.8,22-32.7,33
				c-1.4,1.5-2.6,3.1,0.8,3.5c-2-0.7-3.5,0.7-5.5,0.9c5.2,6.6,5.2,6.6,10.3,1.4c2.9-2.9,5.8-5.8,8.7-8.7c-2.1,0.8-3.5,2.5-5.1,3.8
				C204.1,247.6,202.8,250.8,199.7,248.7z M453.4,468.9c-4.8,1.5-5.8,6.5-8.9,9.6c-16.7,16.5-33.3,32.9-50,49.5
				c-1.3,1.3-3.4,2.4-3.1,6.4c12.9-12.9,24.9-24.9,36.9-36.9c-10.3,12.2-21.6,23.4-32.8,34.6c-1.5,1.5-3.3,2.9-0.7,5.2
				c2.2,2,3.4,0.5,4.8-0.9c20.1-20.2,40.2-40.4,60.5-60.5c2.2-2.2,2.9-3.8,0.7-6.2c-2.8-3-4,0.1-5.5,1.4c-7,6.4-13.7,13.2-19.9,20.5
				c-0.4-0.4-0.7-0.7-1.1-1.1c7.5-7.5,14.9-14.9,23.5-23.5c-3,0.4-3.8,1.1-4.3,2.1c5.1-5,1.8-9-1.4-13c-1.1-1.3-2-2.9-2.7-4.4
				c-1.4-3-2.7-3.5-5.3-0.8c-19.1,19.5-38.3,38.9-57.5,58.3c-9,9.1-8.9,9-0.4,18.7c3.4,3.9,5.8,3.1,8.1-0.4c2-3.1,4.7-5.5,7.2-8
				c2.2-2.3,3.9-4.3,0.4-6.9c-1.4-1-2-2.5,0-3.7c6.2-3.8,10.3-9.8,15.5-14.6c1-0.9,1.8-2.4,3.2-0.8c1.1,1.4-0.5,1.8-1.2,2.6
				c-3.8,3.9-7.6,7.7-11.3,11.7c-1.1,1.2-3.4,2.4-1.5,4.2c1.9,1.7,3-0.8,4-1.8c11.3-11.2,22.5-22.4,33.8-33.7
				C446.8,473.5,449.7,470.6,453.4,468.9z M451.1,528.1c3.3,3.3,6,7.9,9.9,9.5c6.2,2.6,8.9,6.9,12.4,12.2c4.5,7,11.7,12.3,17.8,18.2
				c1,1,1.6,2.5,3.7,2c4.5-1.1,6.5,1.1,5.7,5.4c-0.4,2.4,1,3.2,2.3,4.1c1.5,1.2,2.5-0.3,3.4-1.2c3.2-3.1,6.1-6.5,9.5-9.4
				c3.6-3,4.1-5.6,1.4-9.7c-15.8-24.8-31.3-49.8-47.1-74.6c-2.1-3.3-3.5-9.2-6.9-9.1c-3,0.1-6,4.9-8.9,7.8
				c-13.4,13.4-26.8,26.8-40.2,40.2c-1.3,1.3-3.9,4.3-1.2,4.4c7.5,0.3,8.8,4.7,9.4,10.4c0,0.2,0.3,0.3,0.4,0.4
				c3.4,3.5,6.3,7.6,10.3,10.2c5.2,3.3,7.4,11.1,15.5,10c1-0.1,3.5,2.7,3.3,3.5c-1.7,5.3,2.8,7,5.4,9.8c4.1,4.4,8.4,8.6,12.7,12.8
				c2,2,3.4,4.8,7.6,3.6c1.7-0.5,5.6,1.9,4.1,5.8c-0.7,1.8,0.2,2.5,1.5,3.1c1.3,0.6,2.5,1.4,4-0.2c4.2-4.5,8.7-8.8,13.1-13.2
				c1.2-1.2,2.1-2.5,0.8-4.1c-0.9-1.1-1.8-2.4-3.8-1.5c-4,1.9-6.2-2.5-5.8-3.9c1.5-4.5-1.8-5.9-3.9-8.1c-4.7-4.9-9.5-9.7-14.4-14.4
				c-1.9-1.8-3.2-4.5-7.2-3.1c-2.2,0.8-5.4-2.9-4.7-4.5c1.8-4-1.2-5.2-2.9-7.2C455.9,534.5,452.5,532.3,451.1,528.1z M238.3,350.3
				c-2.3,2.6-6,5.1-6.2,8.3c-0.3,4.2,5.4,4.8,7.6,7.8c6.9,9.4,15.7,16.9,23.8,25.2c2.7,2.7,5,2.9,7.9-0.1
				c7.1-7.4,14.5-14.6,21.8-21.8c3.2-3.2,4.2-6,0.1-9.4c-12.1-9.7-19.8-24.3-34.7-30.9c-1.9-6.4-8-9-12.1-13.3
				c-5.7-5.9-11.7-11.5-17.3-17.5c-2.8-3.1-4.8-2.9-7.4,0.1c-2.8,3.2-5.6,6.6-9,9.1c-4.3,3.3-3,5.4,0.2,8.5
				c10,9.6,19.6,19.5,29.4,29.3c-9.6-7.7-18.2-16.4-26.9-24.9c-9.5-9.2-5.8-9.2-16,0.3c-2.5,2.3-2.6,4,0.1,6.6
				c7.5,7.2,14.7,14.8,22.1,22.2C229.7,357.8,229.7,357.8,238.3,350.3z M397,581.8c-1.1-3.1-3.7-3.9-5.9-4.7c-3-1.2-2.9-3.8-4-5.9
				c-0.2-0.3-1.1-0.6-1.5-0.5c-3.8,1.3-5.6-0.8-6.8-3.9c-0.7-1.9-2.3-3.2-4-2c-1.7,1.1-4.9,2.4-3,5.2c2.1,3.2,0.5,4.9-1.5,6.9
				c-7.5,7.9-7.5,8,0.4,15.4c1.2,1.1,2.1,2.5,4.3,2.5c2.2,0,4.4,2.2,4.5,3.8c0.2,3.7,2.9,5.3,4.9,7.4c10.9,11.6,23.4,21.5,34,33.4
				c4.9,5.5,10.2,10.6,15.6,15.6c6.1,5.6,13.9,5.3,19.4,0.3c4.2-3.8,6.2-8.2,7.8-13.5c1.5-5.2,3-9.3-1.7-13.5
				c-2.1-1.8-1.7-2.2,1.4-2.7c2.5-0.4,5.1-1.5,5.6-3.9c0.4-1.7-1.6-3.6-3.7-3.7c-6.1-0.2-9.5-6.2-15.5-6.7c-1.2-0.1-2.1-1.7-2.3-3.1
				c-0.2-1.5-1-2.3-2.3-3.1c-14.3-8.8-28.6-17.6-42.9-26.5c-0.9-0.5-1.8-1.2-2.6-0.5C396.1,579,398.8,579.8,397,581.8z M550.6,556.5
				c3.6-4.2,8.4-6.5,9.8-12.3c1-4.3,1.6-7.8-1.8-11.1c-3.5-3.4-7.5-6.4-10.2-10.3c-5.1-7.5-13.7-10.9-19.2-18.3
				c-7.3-9.8-17.2-17.8-26.4-26.2c-1.7-1.5-5.7-1.9-6.2-4.3c-1-4.5-4.7-6.4-7.1-9.5c-2.6-3.4-4.6-3.5-7.6-0.1c-2.7,3-4.9,8-10.2,5.7
				c-0.2,2.4-0.6,4.9-0.5,7.4c0.1,2,2.1,3.4,0.9,6.3c-0.9,2.4,4.4,1,5.6,3.7c1.2,2.6,3,4.8,4.6,7.2c-2.7,1.2-2.7,2.6-0.9,4.8
				c11.4,14.1,16.5,32.7,31.7,44.3c3.7,2.8,2.3,10,7.4,12.9c0.8,0.5,0.2,1.7-0.2,2.6c-0.8,2.1,0.9,3.1,2.3,4c2,1.2,2.4-0.8,3.5-1.7
				c1.9-1.7,1.3-4.2,2.4-6.2c9.6,6.2,15,5.5,24-3.3C552.5,553.8,550.2,554.1,550.6,556.5z M411.1,553.5c0.1-0.1,0.1-0.1,0.2-0.2
				c3.2,3.2,6.4,6.2,9.4,9.5c1.1,1.2,4,2.2,1.9,4.6c-2.2,2.5-3.7,0.1-5.2-1.3c-6.7-6.6-13.5-13.3-20.1-20c-1.7-1.7-3-1.9-4.8-0.1
				c-4.3,4.5-8.6,8.9-13,13.3c-1.9,1.9-2.4,3,0.5,4.7c5.1,2.8,9.8,6.2,14.8,9.3c22.7,14,45.5,28,68.1,42.1c2.9,1.8,5,2.2,7.5-0.7
				c3.3-3.8,7.1-7.2,10.6-10.8c1.1-1.2,3.1-2.3,1.4-4.3c-1.1-1.3-2-2.2-4.4-1.4c-3.9,1.3-6.2-1.8-5.4-4.9c0.6-2.7-0.2-3.9-1.7-5.4
				c-5.9-5.9-11.8-11.8-17.7-17.7c-1.4-1.4-2.5-2.7-5.4-1.8c-3.1,1-5.8-2.2-5.1-4.9c0.7-2.6-0.2-3.5-1.5-4.8
				c-5.3-5.4-10.5-10.9-16.2-15.9c-2.3-2-3.8-6.9-8.7-4c-0.8,0.5-1.7-1.1-0.9-2.5c0.6-1,0.5-1.6-1.1-1.5c-2.5,0-2.9-0.4-2.1-2.1
				c0.9-1.8,0.1-2.5-0.9-3.4c-1.2-0.9-2.1,0-3,0.7c-10.8,7.9-10.9,9.6-1.6,19.1C408,550.5,409.6,552,411.1,553.5z M171.5,270.5
				c0.1,0.1,0.1,0.1,0.2,0.2c-5.2,5.2-10.3,10.4-15.6,15.6c-1.7,1.7-3.9,3-1.5,5.6c2,2.2,4.4,4.9,7.3,2.5c3-2.5,4-0.9,5.9,1
				c7.8,8,15.9,15.8,23.6,24c3.1,3.3,5.3,3.5,8.4,0.2c7.3-7.7,14.8-15.2,22.2-22.7c2-2,1.9-3.6-0.3-5.7
				c-7.5-7.1-14.8-14.4-22.2-21.7c-1.1-1.1-2.1-2.7-3.4-3.1c-3.7-1.2-3.5-2.4-1.2-5.2c2.9-3.5-0.6-5.4-2.7-7.6
				c-2.6-2.8-3.7,0.1-5,1.3C181.9,260.1,176.8,265.3,171.5,270.5z M302.2,401.6C302.3,401.6,302.3,401.6,302.2,401.6
				c5.1-5,10.2-10,15.3-15.1c3.3-3.4,3-8.1-1.2-9.3c-5.8-1.6-9.6-5.4-13.4-9.4c-2.6-2.8-4.6-1.9-6.7,0.3c-8.8,9-17.6,17.9-26.4,26.8
				c-2.3,2.3-2.7,4.2-0.4,6.9c3.6,4.1,7.8,7.7,9.8,13.3c1.5,4.3,5.3,4.3,8.7,0.9C292.7,411.2,297.5,406.3,302.2,401.6z M166.9,380.5
				c-4.4-4.4-8.7-8.8-13.2-13.2c-10.9-10.7-21.7-21.5-32.7-32.1c-2.5-2.4-2.4-3.8,0-6c4.7-4.4,9.1-9,13.6-13.5
				c1-1.1,3.2-2.4,2.2-3.7c-3-3.8-0.1-5.5,2.1-7.5c2.2-2.1,3.8-5,7-5.8c1.1-0.3,2.9,1,2.6-1.5c-0.1-0.5-0.3-1.3-0.7-1.4
				c-1.4-0.5-2,0.9-2.7,1.6c-10.7,10.7-21.4,21.4-32.1,32.1c-1.1,1.1-2.9,2.7-1.4,3.8c4.6,3.4,6,11,13.6,10.4
				c1.3-0.1,2.5,1.2,1.8,2.3c-2.2,3.3,1,4.2,2.4,5.5c16,16,32.1,32.1,48.4,47.9c5,4.8,8.9,11,16.1,13.2c1.1,0.3,2.5,2,2.4,2.9
				c-0.3,2.7,1.6,3.9,3.1,5.2c9.2,8,15.7,19,27.2,24.3c3.1,1.4,1.9,5.1,4,7.1c6.6,6.3,13,12.8,19.4,19.3c1.6,1.7,3.1,2.9,5.2,0.5
				c2.2-2.5-0.3-3.4-1.5-4.6c-6.7-6.8-13.2-13.7-20.3-20.1c-2.9-2.7-4.7-8.8-10.9-5.2c-0.3,0.2-1.3-0.7-1.8-1.2
				c-2.4-2.3-4.7-4.6-7-7c-0.9-0.9-2.5-2-1.2-3.4c2.6-2.7,0.3-4-1.3-5.6C196.5,410.1,181.7,395.3,166.9,380.5z M381.7,437
				C381.7,437,381.7,437,381.7,437c2.7,2.8,5.6,5.4,8.1,8.3c2.6,3,5,2.1,6.4-0.5c4-7.4,9.7-12.8,17-16.9c2.5-1.4,4-3.9,0.6-6.9
				c-5.7-5.2-11.1-10.8-16.4-16.4c-2.3-2.4-4-2.2-6.2,0.1c-5.8,6-11.7,11.9-17.6,17.6c-2.5,2.4-2.9,4.1,0,6.6
				C376.4,431.4,378.9,434.3,381.7,437z M265.7,400.5c-3.1-3.2-6.2-6.3-9.7-9c-2.6-2-4.1-2-6.3,0.3c-5.2,5.5-10.5,10.8-15.8,16.2
				c-2,2-1,3.1,0.8,4.6c3.9,3.4,7.8,7,11.4,10.7c10.2,10.3,12.1,10.3,21.6-0.9C277.3,410.9,277.3,410.9,265.7,400.5z M331.8,394.4
				c3.4,3.1,6.9,6.2,10.3,9.3c1.6,1.4,3.3,2.2,5,0.1c4.6-5.7,10.7-10,15.3-15.7c2.1-2.6,2-4-0.3-6.1c-4-3.7-7.7-7.6-11.5-11.4
				c-9.3-9.4-9.3-9.4-18.8,0C320,382.4,320,382.4,331.8,394.4z M158.7,346.1c-0.1,0.1-0.2,0.2-0.2,0.2c-3.4-3.4-6.8-6.8-10.2-10.2
				c-3.5-3.6-7-7.2-10.6-10.8c-5.2-5.1-6.7-5-11.1,0.8c-0.7,0.9-1.9,1.9-0.9,3c1.2,1.3,2.4,0.3,3.4-0.7c5.8-5.6,8.5,0.8,11.9,3.4
				c3.5,2.7,0,4.7-0.9,7.2c-1.2,3.4-6.1,6.6-2.1,10.7c10.5,10.8,21.3,21.4,32,32.1c1,1,1.8,2.7,3.6,0.5c2.3-2.8,5-5.4,7.6-7.9
				c2.4-2.3,2.1-3.9-0.2-6.1C173.4,360.9,166.1,353.4,158.7,346.1z M259.9,282.4c-0.1,0.1-0.2,0.2-0.2,0.2c-3.1-3.1-6.4-6.2-9.4-9.5
				c-2.1-2.3-3.5-2.2-5.6,0c-4.7,4.9-9.5,9.7-14.4,14.4c-1.8,1.7-1.7,3-0.2,4.9c5.6,6.9,12,13.1,18.8,18.8c2,1.7,3.5,1.9,5.4-0.2
				c4.6-4.9,9.4-9.7,14.3-14.4c2.2-2.1,2.1-3.6-0.1-5.6C265.6,288.3,262.8,285.3,259.9,282.4z M183.7,358.7c0,0-0.1,0.1-0.1,0.1
				c2.9,2.9,5.9,5.6,8.6,8.7c2.2,2.6,3.9,2.4,6.1,0.1c4.7-4.9,9.4-9.7,14.3-14.5c1.9-1.9,1.2-3.3-0.2-5c-4.3-5-8.8-9.8-13.7-14.2
				c-7.3-6.5-7.2-6.5-14.2-0.1c-1,0.9-2,1.8-3,2.7c-10.2,9.8-10.2,9.8-0.3,19.7C182,357.1,182.8,357.9,183.7,358.7z M214.4,389.2
				c0.1-0.1,0.1-0.1,0.2-0.2c2.9,2.9,6,5.5,8.5,8.7c2.1,2.6,3.9,2.7,6,0.5c4.9-4.9,9.9-9.8,14.8-14.6c1.4-1.4,0.8-2.7-0.2-4.1
				c-5.9-7.5-12.5-14.3-20.1-20c-1.5-1.1-2.8-1.4-4,0.1c-4.4,5.4-10.3,9.3-14.5,14.9c-2,2.6-1.5,4,0.4,5.8
				C208.4,383.2,211.4,386.2,214.4,389.2z M246,256.7C246,256.8,245.9,256.8,246,256.7c5.8,6,11.7,11.9,17.6,17.7
				c8.6,8.5,8.5,8.3,17-0.6c2.4-2.5,2.9-3.7,0.2-6.3c-9.4-9-18.8-17.9-27.6-27.5c-4.5-4.9-8.1-5.2-13.1-1.1
				c-1.8,1.5-4.3,3.7-7.3,1.3c-5.8-4.5-6.3-6.1-3.4-13.2c0.5-1.2,1.1-3.1-1.3-2.5c-3,0.7-4.6,3.5-6.3,5.7c-1.6,2.3,1.1,3.3,2.3,4.5
				C231.4,242.3,238.7,249.5,246,256.7z M226.3,249.7c-1.6-2.8-4.9-4.3-6.7-6.9c-2.3-3.2-3.8-2.2-5.8-0.1
				c-4.7,4.8-9.5,9.6-14.4,14.2c-1.9,1.8-1.7,3.1-0.2,4.9c5.7,6.9,12,13.1,18.9,18.8c1.4,1.2,2.9,1.8,4.6,0.2
				c5-5.1,10.1-10.2,15.1-15.3c1.7-1.7,1.7-2.9-0.3-4.7C233.7,257.4,230.1,253.5,226.3,249.7z M276.2,501.7
				c-0.2-0.7-0.2-1.2-0.4-1.4c-26.6-26.6-53.3-53.1-79.9-79.6c-2.6-2.5-3.6-0.2-5.1,1.1c-1.9,1.6-2.6,3-0.4,5.2
				c23.9,23.8,47.8,47.6,71.5,71.6C266.1,502.8,270.4,503.9,276.2,501.7z M151.7,327.1C151.7,327.1,151.7,327.1,151.7,327.1
				c3.1,3,6.2,5.8,9,9c2.5,2.8,4.7,2.9,7.2,0.2c4.6-4.7,9.2-9.3,13.8-14c2.2-2.2,0.8-3.7-0.8-5.3c-5.4-5.8-10.7-11.6-16.8-16.7
				c-1.6-1.3-3.4-4.1-5.2-2.2c-2.6,2.6-7.1,4.3-7,8.6c0.2,8.9,0.4,9-8.1,8.2c-1.1-0.1-1.9,0-2.4,1c-0.6,1.2,0.6,1.6,1.2,2.3
				C145.6,321.1,148.7,324.1,151.7,327.1z M337.5,462.5C337.4,462.6,337.4,462.6,337.5,462.5c0.9,1,1.9,2,2.8,2.9
				c9.2,9.6,6.6,8.2,15.7,0.1c13.5-12,12.9-16.2-2.3-26.6c-8.6-5.9-8.8-5.9-16.1,1.5c-1,1-1.9,1.9-2.9,2.9
				c-8.3,8.3-8.3,8.3,0.3,16.8C335.8,460.9,336.6,461.7,337.5,462.5z M331.2,332c-3.9,2.2-3.8,4.2-0.8,7.1
				c12.6,12.3,25,24.9,37.5,37.4c1.2,1.2,2.4,3.9,4.6,2.2c3.6-2.7,6.9-5.9,10.2-9c0.1-0.1-0.6-1.3-1.2-1.8c-5-5.1-10-10.1-15.2-15.3
				c-0.5,1-0.8,1.5-1.1,2c-2,3-4,5.8-8.2,5.2c-2.8-0.4-4.6-2.3-5.4-4.6c-1.5-4.1,1.8-5.7,4.4-7.6c1.8-1.3,2.7-2.6,0.7-4.6
				c-5.1-5-10.2-10.1-15.2-15.2c-1.9-1.9-3.8-1.8-4,1c-0.4,4.6-4.4,5-6.7,7.4C329,334.2,331.6,333.6,331.2,332z M560.3,595.6
				c0.5,0.5,1.1,1.1,1.6,1.6c9,8.9,8.6,8.5,18-0.4c11.8-11.2,8.8-12.4-0.7-21.7c-9.4-9.3-9.4-9.4-18.7,0
				C550.2,585.4,550.2,585.4,560.3,595.6z M431.4,445.4c-1.4-0.2-1.8-0.4-2-0.2c-8.3,8.2-16.6,16.3-24.8,24.5
				c-0.9,0.9-1.7,1.9-0.6,3c3,2.8,0.5,4.4-1.3,6.1c-9.6,9.6-19.2,19.2-29,28.6c-2.1,2.1-2.4,3.6-0.2,5.7c2.1,2,3.8,3.1,6.2,0.3
				c2.7-3.1,5.7-5.8,8.6-8.7c18.2-18.3,36.5-36.5,54.7-54.8c2.5-2.5-0.5-12.4-4-13.3c-0.3-0.1-0.9-0.1-1.1,0.1
				c-2.2,2.1-1.4,5.7-4.2,7.8c-1.5,1.2,0.8,2.6,1.8,3.6c2.3,2.4,1.9,3.7-0.7,5.9c-5,4.2-9.7,8.9-14,13.9c-1.9,2.2-2.4,5-5.8,1.9
				c-2.8-2.5-4.4-4.3-0.6-7.7C420.2,457.1,425.5,451.4,431.4,445.4z M498.4,657.8c-2.5-2.5-5-4.9-7.4-7.4c-1.8-2-3.3-2.1-5.3-0.1
				c-4.5,4.6-9,9.1-13.6,13.5c-2.1,2.1-2.1,3.7,0.1,5.8c4.5,4.3,8.8,8.7,13.2,13.1c3.1,3.1,6.1,2.8,9.1,0c1.4-1.3,2.8-2.7,4.1-4.1
				C508.9,668.1,508.9,668.1,498.4,657.8z M311.7,331.4c-3.8,1.6-17.9,15.2-20.2,18.1c-1.5,1.9-0.6,3.2,0.6,4.6
				c5.6,6.9,12.5,12.7,18.9,18.8c1.9,1.8,3.5,1.7,5.4-0.3c4.8-5.1,9.7-10.1,14.7-14.9c2.6-2.5,2.6-4.1-0.1-6.5
				c-13.1-11.8-7.8-11.6-19.4,0.5c-4,4.2-6.1,2.3-9,0.8c-3.5-1.9-3.5-6.8-0.9-9.6C305.2,339.2,309.5,336.1,311.7,331.4z
				 M246.3,457.5c1.7-0.8,1.2-1.8,1.6-2.3c2-2.6,4.1-5.9,7.8-4.7c2.7,0.9,5.5,3,6,6.4c0.5,3.4-1.6,5.5-4.3,6.9
				c-1.1,0.6-3.7-0.5-2.3,2.2c0.9,1.7,2.6,3.8,5.1,1.5c2-1.8,3.7-4,5.8-5.7c3.2-2.6,2.8-4.6-0.1-7.4c-11.5-11.2-22.8-22.8-34.3-34
				c-2.2-2.1-3.6-4.1-1.2-8.4c-5.5,5.5-9.8,9.8-14.2,14.2c1.6,0.8,2.5,0.9,3.6,0.2c2.6-1.7,5.3-2.6,7.9,0c2.4,2.5,2.2,5.1,0.3,7.9
				c-1.7,2.6-0.4,4.7,1.6,6.7C235.4,446.5,241,452.1,246.3,457.5z M403,376.1c0.1-5.6,2.6-9.5-0.9-13.1c-17-17-34-34-51-51
				c-1.2-1.2-2.4-2.9-4.3-1c-1.4,1.4-3.5,2.6-2,5.3c0.7,1.3,1.2,2.8,2.3,3.9C365.3,338.4,383.5,356.6,403,376.1z M326.7,493.8
				c-0.7-2.4,1.4-3.7,2.5-5.3c0.7-1,2.3-1.6,1.1-3.3c-1.9-2.8-3.6-5.7-5.4-8.6c-1.5-2.4-3-2.5-5-0.4c-3.6,3.8-7.2,7.6-10.9,11.2
				c-1.9,1.8-1.4,3.3,0.2,4.9c3.2,3.1,6.4,6.2,9.5,9.3c11.7,12,11.7,12,22.7-0.5c0.3-0.3,0.5-0.6,0.8-0.8c1.3-1.3,1.6-2.7,0.2-4
				c-2.4-2.5-4.3-5.9-7.7-6.8c-2.6-0.7-3.8,2.8-5.8,4.2C328.2,494.1,327.6,494.4,326.7,493.8z M414.8,449.1
				c-0.1-0.1-0.1-0.1-0.2-0.2c4.7-4.7,9.2-9.5,14-13.9c2.5-2.3,3-4.2,1.2-7.4c-5.2-9.1-9.9-18.4-14.9-27.6
				c-3.6-6.6-7.3-13.2-11.2-19.7c-0.7-1.1-1.9-3.6-4-1.3c-1.1,1.2-2,2.2-0.7,4.4c7.6,13.3,14.4,27,22.4,40c3.5,5.7,2.4,8.8-2.1,13
				c-7.9,7.4-15.3,15.4-22.8,23.2c-1.3,1.4-3.1,2.5-0.9,4.7c2.3,2.2,3.4,0.3,4.7-1C405.3,458.7,410,453.9,414.8,449.1z M287.5,439.6
				c-0.1-0.1-0.1-0.1-0.2-0.2c2.2-1.9,4.3-4,6.5-5.8c2.7-2.2,1.6-4.2-0.6-5.5c-3.8-2.3-6.4-9.8-11.1-6.7c-6.6,4.4-11.4,11.3-17,17.1
				c-1.3,1.3-1,2.3,0.1,3.4c1.5,1.5,3,3.1,4.5,4.6c5.9,5.9,5.9,5.9,11.2-0.3C282.9,443.9,285.3,441.8,287.5,439.6z M350,545.5
				c3.3,2.2,5.6,3.9,8.1,5.4c7.8,4.7,7.8,4.7,14.1-1.7c3.8-3.8,7.7-7.6,11.5-11.5c0.9-0.9,2.1-1.9,0.9-3.4c-0.7-0.9-1.7-2.1-2.8-0.9
				c-4.2,4.2-9.3,7.6-11.3,13.6c-0.4,1.1,0.3,2.9-1.3,3.2c-2,0.3-3.1-1.4-4-2.9c-1-1.6,0.7-2.2,1.6-3.1c3.6-3.2,7.2-6.4,10.6-9.9
				c1.2-1.3,5-2.6,1.4-5.2c-2.7-2-4.7-7.4-9.3-3C363,532.3,356.8,538.7,350,545.5z M320.6,461.9c-2.5-6.6-7.7-11.3-13-14.1
				c-3.5-1.8-6.2,5.1-9.5,7.8c-1.2,1-2.1,2.3-3.3,3.3c-2.3,1.9-2.5,3.6-0.3,5.7c3.2,3.1,6.4,6.2,9.4,9.5c2.1,2.2,3.5,0.9,5.8,0.1
				c4.2-1.5-1.2-10.3,6.7-7.9c-0.1-0.4-0.1-0.7-0.3-1.1C314.2,459.7,317.8,461.6,320.6,461.9z M546.9,592.7
				c-4.5-2.1-7.3-1.9-10.8,1.8c-12.9,13.6-26.3,26.7-39.5,40c-1.6,1.6-4.1,3.3-1.6,5.7c2.3,2.3,4,0.2,5.6-1.6
				c10.4-11.4,22.1-21.5,32.7-32.7C537.6,601.5,541,596,546.9,592.7z M338.2,514c-2.1,2.1-3,3.4-6.8,1.2
				c-7.9-4.6-13.4-11.6-19.7-17.6c-3.3-3.2-5.6-3.5-8.4,0.2c-0.7,0.9-1.5,1.8-2.4,2.5c-3.4,2.6-2.3,3.9,1,5.5
				c7.9,4,15.7,8.3,23.4,12.7C332,522.3,334.3,521.7,338.2,514z M347.7,324.8c-1.5-1.5-2.7-2.7-3.7-3.7c-3,2.9-2.4,5,0.3,7.7
				c11.5,11.2,22.8,22.7,34.2,34.1c1.4,1.4,2.6,3.8,5.2,1.3c2.5-2.4,0.2-3.7-1.2-5.1c-9.8-9.9-19.7-19.8-29.6-29.6
				c-0.9-0.9-1.4-2.4-3.2-2.1c-3.3,0.7-3.6-2.2-4.6-4.3C345.9,323.5,346.6,324,347.7,324.8z M355.6,397.4c-1.9,1.9-3.8,3.8-5.7,5.7
				c-1.2,1.2-1.7,2.2-0.6,4c5.6,8.7,9,9.2,16.1,2.2c1.7-1.6,3.2-3.3,5-4.8c2.6-2.1,2.9-3.8,0.3-6.5
				C363.3,390.5,363.4,390.3,355.6,397.4z M282.2,493c-2.5-7.4-3.7-13.7-2.7-20c1-6.4-3.7-9.3-7.5-11.7c-2.7-1.7-4.5,3.2-6.9,4.8
				c-0.6,0.4-1,1.2-1.7,1.6c-2.7,2-3,3.8-0.3,6.3C269.3,479.8,275.1,485.9,282.2,493z M344.4,362.2c0.1-0.1,0.1-0.1,0.2-0.2
				c6.4,6.4,12.8,12.9,19.4,19.3c1.2,1.1,2.2,3.9,4.6,1.6c2.2-2.2-0.1-3.5-1.4-4.7c-12.5-12.7-25.1-25.4-37.7-38
				c-1.3-1.3-2.7-4.1-5.1-1.7c-2.5,2.5,0.4,3.8,1.7,5.1C332,349.9,338.2,356,344.4,362.2z M137.3,317.3c17.8,19.8,36.3,38.7,56.5,56
				C176.2,353.3,157.3,334.7,137.3,317.3z M318.6,313c-7.5,3.9-7.4,3.8-13.7-1.2c-1.5-1.2-1.9-2.9-3.1-4.1c-8.5-8.1-8.8-8.2-4-18.5
				c1.8-3.8-0.3-5.2-2.5-7.2c-2.6-2.3-3.7-0.1-5.2,1.4c-1.8,1.8-3.5,3.7-5.4,5.3c-2.7,2.3-2.7,4.1,0,6.5
				c7.9,7.4,15.8,14.9,23.3,22.6c3,3.1,5.2,2.9,7.3-0.4C316.2,316,318.3,315.7,318.6,313z M417.1,421.6c0.3-0.2,0.5-0.3,0.8-0.5
				c-0.9-2-1.7-4.1-2.8-6c-3.8-6.7-7.9-13.2-11.4-20.1c-4.6-9.1-4.4-9.2-11.2-2.3c-1.9,2-4.1,3.8-1.5,6.6c1.9,2.1,4.7,1.7,7.1,1.2
				c1-0.2,1.6-2,3.2-1.6c-2.8,3.6-3,3.8-0.8,6C405.9,410.5,411.5,416,417.1,421.6z M215.8,416.2c8.4-7.1,7.8-5.2,0.9-12.1
				c-5-5.1-10.1-10.2-15.3-15.1c-8.7-8.3-8.8-8.3-17.1,0.5c-1.3,1.4-4,2.7-1.5,5.1c1.9,1.9,3.4,5.1,7.1,2.7c2.3-1.5,4.6-2.9,6.9-4.2
				c2.3-1.2,5.1-2.3,6.8,0.2c2.9,4.3,6.8,8.2,10.6,11C220.1,408.6,218.8,411.8,215.8,416.2z M250.8,436.8
				c5.7,5.7,11.5,11.5,17.3,17.2c1.2,1.1,2.4,2.9,4.4,1.2c1.9-1.7,0.7-3.1-0.6-4.4c-12-11.5-23-24-35.8-34.7c-1.4-1.2-3-2.5-4.5-0.7
				c-1.4,1.7,0.6,2.8,1.6,3.8C239,425,244.9,430.9,250.8,436.8z M432.6,407.6c-0.4,0.3-0.8,0.7-1.3,1c5.9,11.4,14.2,21.2,20.8,32.2
				c1.4,2.3,3.5,1.9,4.6-0.1c1.1-2.1,5.7-3.4,2-7C450,425,441.3,416.3,432.6,407.6z M359.3,493.3c5.1,5,4.8,4.8,12.3-2
				c4-3.6,1.4-5.4-1-7.6c-7.4-6.8-5.4-8-12.2-1.1C353.5,487.5,353.5,487.5,359.3,493.3z M482.7,688.2c2-2.7,1.1-4.4-0.8-6.3
				c-3.9-3.7-7.5-7.8-11.5-11.4c-3-2.7-2.4-4.5,0.2-7c4.9-4.7,9.5-9.6,14.2-14.5c1-1.1,3.3-2.1,1.1-4.1c-1.8-1.5-2.8,0-3.8,1.1
				c-6.2,6.4-12.3,12.8-18.5,19.1c-1.4,1.4-1.4,2.5,0,3.9C469.9,675.3,476.3,681.7,482.7,688.2z M372.5,504.3
				c9.1-9.1,17.7-17.6,26.2-26.3c1.1-1.1,3.4-2.3,1.1-4.7c-2.4-2.5-3.7-0.6-5.2,0.9c-6.6,6.5-13.2,13.1-19.6,19.7
				C372.3,496.6,370.9,499.8,372.5,504.3z M287.9,494.3c2.1-2.1,4-4,5.9-5.9c6.7-6.7,6.1-6.2,0-13.4c-3.5-4-6.5-1.4-9.3-1.1
				c-2.1,0.2-0.7,3.9-0.5,5.9C284.4,484.5,285.1,489.3,287.9,494.3z M504.6,602.7c6.8-6.8,13.7-13.6,20.5-20.5c1-1,2.9-2.1,1.4-3.8
				c-1.3-1.4-2.4,0.1-3.3,1c-13.6,13.7-27.2,27.5-40.8,41.2c-0.9,0.9-2.2,2.1-0.6,3.3c1.3,1,2-0.5,2.7-1.2
				C491.2,616.1,497.9,609.4,504.6,602.7z M560.3,620c-3.2-5.8-8.6-9.1-12.5-13.7c-1.8-2.1-3.6-1.4-5.4,0.4
				c-1.8,1.8-1.2,3.1,0.2,4.9c3.3,4.3,7.2,7.9,11.4,11.3c0.5,0.4,3.8,0.8,0.6,2.1c-1.6,0.7-1.7,1.1-0.7,2.3c1,1.3,2,1.6,3.3,0.3
				c2.1-2.2,4.4-4.4,6.5-6.6c0.8-0.9,1.7-2.4,0.4-2.8c-3.1-1-3.8-4.6-6.7-6.1C556.3,615.7,561.4,616,560.3,620z M335.2,296.2
				c0,0-0.1,0.1-0.1,0.1c-2.6-2.6-5.2-5.2-7.8-7.8c-1.5-1.5-3.1-1.7-4.4,0.1c-1,1.4-4.2,2.7-2.5,4.5c5.5,5.6,10,12.3,17.3,16
				c2.9,1.4,3.9-1,5.1-2.4c1.8-2-0.4-3.1-1.5-4.3C339.4,300.2,337.3,298.2,335.2,296.2z M273.5,293.3c0.4-0.4,0.8-0.9,1.3-1.3
				c-18.7-18.7-37.4-37.4-56.2-56.2c-0.5,0.5-0.9,0.9-1.4,1.4C235.5,256.4,254.2,275.2,273.5,293.3z M173.2,266.3
				C173.2,266.3,173.1,266.3,173.2,266.3c2.2-2.2,4.4-4.3,6.5-6.6c1.8-1.9,1.6-3.4-1.1-4.2c-4.7-1.4-8.8-0.9-12.8,2.4
				c-4.2,3.4-3.7,8.3-3.9,12.5c-0.1,2.6,2.6,4.8,5.6,1.6C169.3,270.1,171.3,268.2,173.2,266.3z M540.1,654.5
				c4.7-4.7,9.3-9.3,13.9-14c1-1,2.8-2,1.1-3.8c-1.6-1.7-2.8-0.1-3.8,0.9c-8.9,8.9-17.7,17.8-26.5,26.8c-1.1,1.2-3.3,2.5-1.6,4.2
				c2.1,2.1,3.4-0.7,4.6-1.8C531.9,662.8,535.9,658.6,540.1,654.5z M318.6,540.3c6.2,6.2,12,12.7,18.6,18.3c2.6,2.2,3.8-2.3,5.7-3.6
				c1.2-0.8,3.1-2,0.9-4c-3.1-2.9-6.3-6.1-10.6-6.5C328.1,544,323.2,543.1,318.6,540.3z M529.1,569.3c0.3,1.1,0.3,1.8,0.6,2.2
				c11.9,12,23.8,23.9,35.7,35.9c0.8,0.8,1.7,2.1,2.8,1.1c1.5-1.4-0.1-2.5-0.9-3.3c-6.4-6.5-12.6-13.1-19.3-19.3
				c-3.6-3.3-6-7.7-11.4-9.5C534.5,575.6,533.5,570.3,529.1,569.3z M286.4,463c0.4,0.3,0.9,0.6,1.3,0.8c6-6,11.9-12,18-17.9
				c1.6-1.6,1.3-3-0.1-4.5c-1.1-1.2-2.2-2.6-3.9-1.1C294.6,446.5,287.9,453,286.4,463z M473.8,626.7c-0.3,6.3,5.4,7.9,8.4,11.8
				c7.5,10,17.3,18.2,26.1,27.1c0.8,0.8,1.8,1.8,2.9,0.5c0.7-0.8,0-1.8-0.7-2.5c-3.1-3.2-6.2-6.4-9.3-9.6
				C492,644.9,482.9,635.8,473.8,626.7z M521.5,565.6c-1,0.3-1.5,0.4-1.7,0.6c-16.4,16.4-32.9,32.8-49.3,49.2
				c-0.8,0.8-2.7,1.9-1,3.2c1.4,1.1,2.3-0.7,3.2-1.6c14.6-14.7,29.2-29.4,43.8-44.1C518.4,570.9,520.8,569,521.5,565.6z
				 M530.6,582.3c-2.3-1.6-3.1-0.8-3.7-0.1c-13.8,13.9-27.6,27.8-41.4,41.7c-0.7,0.8-2.2,1.6-1,2.8c1.4,1.5,2.4,0,3.3-0.9
				c6.5-6.6,12.8-13.4,19.3-20C514.8,598,522.6,590.3,530.6,582.3z M371.9,481.9c0.5-1.4,0.8-2.3,1.1-3.2c1-2.8-0.4-12.8-1.9-12.7
				c-3.5,0.2-4.8,4-7.4,5.8c-0.5,0.3-0.8,0.9-1.2,1.3c-8.4,8.7-8.4,8.7-17.4,0.3c-0.7-0.6-1.4-1.2-3.2-2.6c1.5,1.8,2.1,2.5,2.8,3.2
				c2.3,2.3,4.8,4.5,6.9,7c2.3,2.7,4,2.6,6.5,0c5.6-5.7,5.7-5.5,11.9-0.2C370.5,481.1,371,481.3,371.9,481.9z M379.8,547.9
				C379.8,547.9,379.8,548,379.8,547.9c-2.3,2.4-4.7,4.6-6.9,7.1c-1,1.1-3.3,2-1.1,4.1c1.9,1.7,3.5,2.2,5.3,0
				c4.4-5.2,10.6-8.7,13.6-15.3c0.6-1.2,2.7-1.4,0.7-3.3c-1.6-1.5-2.8-1.7-4.3,0C384.8,543.1,382.3,545.5,379.8,547.9z M359,465.2
				c0,0-0.1-0.1-0.1-0.1c-2.6,2.6-5.2,5.2-7.8,7.8c-1.5,1.5-1.9,2.7-0.1,4.3c1.6,1.3,2.9,1.6,4.4,0c4.6-4.7,9.3-9.3,13.9-14
				c2.1-2.1,0.7-4.3-0.6-5.6c-1.7-1.7-2.6,0.7-3.5,1.6C363,461,361.1,463.1,359,465.2z M241.6,397.2c0.1,0.1,0.2,0.2,0.3,0.3
				c2-2,4.1-4.1,6.1-6.1c1.9-1.9,0.7-3.3-0.7-4.9c-1.6-1.8-2.8-1.4-4.2,0.1c-3.6,3.8-7.2,7.5-11,11.2c-1.7,1.6-1.6,3,0,4.3
				c1.5,1.2,3,2.6,4.9,0.4C238.4,400.6,240,398.9,241.6,397.2z M520.9,573.1c-0.5-0.5-1-1-1.5-1.5c-14.9,15-30.2,29.7-44.4,45.4
				c0.3,0.3,0.7,0.7,1,1C490.9,603,505.9,588.1,520.9,573.1z M486.8,629.1c0.5,0.5,0.9,0.9,1.4,1.4c15.3-14.6,30.4-29.4,44.8-44.9
				c-0.4-0.4-0.9-0.9-1.3-1.3C516.7,599.2,501.8,614.1,486.8,629.1z M523.9,576.3c-0.3-0.3-0.6-0.6-0.9-1c-15,15-30,30-44.9,44.9
				c0.3,0.3,0.6,0.6,1,0.9C493.9,606.2,508.9,591.2,523.9,576.3z M175.4,331.3c-1.2,2-3.1,3.6-5.1,5.1c-1.6,1.2-2.2,2.5-0.3,4.2
				c1.5,1.4,2.6,2.7,4.7,0.6c3.6-3.8,7.3-7.4,11-11c1.6-1.6,2-3,0.2-4.8c-2-1.9-3.5-1.8-5.2,0.2C179,327.5,177.3,329.3,175.4,331.3z
				 M513.7,614.9c6.9-6.9,13.4-13.4,19.8-19.9c1.1-1.1,4-2.2,1.7-4.5c-2.2-2-3.8-0.1-5.3,1.5c-4.6,4.6-9.2,9.3-13.9,13.9
				C513.5,608.3,512.9,611,513.7,614.9z M542.8,642.2c0,0-0.1-0.1-0.1-0.1c1.9-1.9,4-3.7,5.7-5.8c1-1.3,4.1-2.4,1.9-4.5
				c-1.4-1.4-4-0.9-5.7,0.7c-4.4,4.1-8.6,8.3-13,12.5c-1.8,1.7-0.8,3.1,0.3,4.5c1.4,1.7,2.6,1,3.9-0.2
				C538.2,646.9,540.5,644.6,542.8,642.2z M266.7,310.2c0,0-0.1-0.1-0.1-0.1c1.9-1.9,3.7-3.9,5.7-5.7c1.8-1.6,1.2-3-0.2-4.4
				c-1.2-1.2-2.3-2-3.9-0.4c-3.8,3.9-7.6,7.6-11.5,11.4c-1.7,1.7-1.1,2.9,0.3,4.4c1.5,1.5,2.7,1.8,4.3,0.1
				C263.1,313.7,264.9,312,266.7,310.2z M328.7,371.9c0,0-0.1-0.1-0.1-0.1c2-2,4.1-4.1,6.1-6.1c1.5-1.5,1-2.7-0.3-3.9
				c-1.1-1-2.1-2.3-3.8-0.7c-3.8,3.8-7.8,7.5-11.7,11.2c-1.6,1.5-1.4,2.9,0.1,4.5c1.7,1.8,3.1,1.9,4.8,0.1
				C325.3,375.1,327,373.5,328.7,371.9z M235.7,279.8c-0.1-0.1-0.2-0.2-0.3-0.3c2-1.8,3.9-3.6,6-5.3c2-1.6,1.2-2.9-0.2-4.2
				c-1.3-1.2-2.2-2.7-4.2-0.7c-3.5,3.6-7.1,7.1-10.7,10.6c-1.7,1.6-2,2.9-0.2,4.8c2.1,2.1,3.5,1.7,5.2-0.3
				C232.6,282.7,234.2,281.3,235.7,279.8z M345.2,487.8c-1.6-1.6-3.3-3.3-4.9-4.9c-1.1-1.1-2.2-2.3-3.9-0.7
				c-1.6,1.5-0.7,2.7,0.5,3.9c2.2,2.1,4.4,4.2,6.5,6.5c2,2.3,4.2,4.4,5.9,7c1.2,1.9,4,4.7,6.6,2.4c2.8-2.6-0.4-5.6-2-6.5
				C350.3,493.4,348.2,490.2,345.2,487.8z M369.1,521.4c-5.2,3.6-8.7,8.4-12.9,12.6c-1.6,1.6-2.7,3.2-5.1,1c-4.3-4-5.2,1.8-7.6,3
				c-1.8,0.8-1.5,2.3,0.3,3.5c2.5,1.5,4.3,4.6,7.7,0.9c5.4-5.8,11.2-11.2,16.7-16.8C369,524.6,370.4,523.8,369.1,521.4z
				 M293.5,335.7c0,0-0.1-0.1-0.1-0.1c-2.1,2.1-4.1,4.1-6.2,6.1c-1.7,1.7-0.9,3,0.5,4.4c1.3,1.3,2.4,1.9,3.9,0.4
				c3.8-3.9,7.6-7.7,11.5-11.5c1.9-1.8,0.7-3.1-0.5-4.4c-1.5-1.6-2.8-1.7-4.3,0.2C296.9,332.6,295.1,334.1,293.5,335.7z
				 M206.6,361.9C206.7,361.9,206.7,362,206.6,361.9c-1.7,1.8-3.4,3.7-5.2,5.3c-1.6,1.4-2.2,2.4-0.4,4.2c1.7,1.8,3.1,1.8,4.8,0
				c3.6-3.7,7.3-7.4,11-11c1.4-1.4,1.8-2.6,0.1-4.3c-1.7-1.7-3.2-2-4.8-0.2C210.2,357.9,208.4,359.9,206.6,361.9z M272.7,427.9
				c0,0,0.1,0.1,0.1,0.1c1.9-1.9,3.8-3.8,5.7-5.7c1.6-1.6,1.8-3.1-0.1-4.8c-1.9-1.7-3-0.9-4.4,0.5c-3.5,3.6-7,7.3-10.6,10.8
				c-1.5,1.4-2.1,2.6-0.5,4.3c1.8,2,3.2,1.6,4.8-0.2C269.4,431.1,271.1,429.6,272.7,427.9z M369.7,383.8c5.3-1.7,6.9,0.8,7.5,4.9
				c2.4-2.4,4.8-4.7,7.1-7.1c2-2.1,2.5-4.7,0.5-6.7c-2.1-2-4.7-1.4-6.7,0.6C375.4,378.1,372.8,380.7,369.7,383.8z M226.8,407.2
				c-2-6.5-25.1-29.3-31.3-30.4C205.9,387.7,215.5,397.5,226.8,407.2z M522.4,621.1C522.4,621.1,522.4,621.1,522.4,621.1
				c-2.1,2.2-4.3,4.4-6.5,6.6c-1.4,1.4-3.6,2.6-0.9,5c2.5,2.2,3.9,0.5,5.2-1.2c3.2-4.3,7-8.2,10.9-11.9c1.1-1,1.6-2.1,1.7-3.5
				c0.1-1.2,0.3-2.4-1-3c-1.1-0.5-1.8,0.4-2.4,1C527,616.4,524.7,618.7,522.4,621.1z M561.1,638.7c-0.4-0.4-0.9-0.9-1.3-1.3
				c-11.9,11.9-23.8,23.8-35.7,35.7C537.7,663,549,650.5,561.1,638.7z M309.1,527.2c5.8,4.3,10.4,10.2,17.3,12.9
				c1,0.4,3.3,1.7,2.9-0.6c-0.3-1.8,3.3-3.7-0.2-5.2C322.6,531.4,316.4,527.8,309.1,527.2z M292.1,494.1c2.8,2.9,5.6,4,9.2,3
				c2.6-0.8,4.9-2.2,4.5-4.9c-0.3-1.8,1.5-4.2-1.9-5.7c-3.4-1.5-4.5,0.5-6.2,2.1C295.9,490.2,294.2,492,292.1,494.1z M509.2,612.8
				c-5.3,5.3-10.4,10.4-15.5,15.6c-1.6,1.6-1,3.3,0.3,4.6c1.5,1.5,2.3-0.4,3.2-1.2c3.7-3.6,7.4-7.3,11-11
				C510.1,618.6,511.6,616.2,509.2,612.8z M386.6,388.2C386.7,388.2,386.7,388.2,386.6,388.2c2-1.8,3.9-3.7,5.8-5.6
				c2.1-2.1,0.4-3.4-1-4.7c-0.9-0.8-2.6-2.6-3.1-0.8c-1.7,6-7.1,8.9-10.7,13.4c-1.1,1.3-1.1,2.3,0.2,3.4c1.3,1.1,2.4,0.8,3.5-0.3
				C383.1,391.7,384.9,389.9,386.6,388.2z M111.7,325.7c12.7-10.2,24.1-21.7,34.3-34.3C134.6,302.8,123.1,314.2,111.7,325.7z
				 M278.8,295.4c-0.5,0.5-1,0.9-1.5,1.4c9.3,9.7,18.4,19.7,28.8,28.3c0.4-0.4,0.8-0.8,1.2-1.2C297.8,314.4,288.3,304.9,278.8,295.4
				z M377.4,408.5c0.1,0.1,0.1,0.1,0.2,0.2c-2.9,2.9-5.8,5.7-8.6,8.7c-0.8,0.8-2,1.7-0.8,2.9c0.7,0.7,1.9,0.4,2.6-0.3
				c6.2-5.6,12.3-11.2,17.5-17.8c0.6-0.7,1.1-1.8,0.2-2.6c-1.2-1.1-2.1,0-2.9,0.8C382.9,403,380.1,405.8,377.4,408.5z M377.7,486.2
				c5.1-5.1,10.2-10.2,15.3-15.3c1.2-1.2,2.1-2.4,0.5-3.9c-0.9-0.8-1.9-1.8-3-0.8c-3.1,3-7.2,5.3-8.4,9.8c-0.4,1.4,0.1,3.2-2.1,3.5
				C376.1,480.3,377.4,483.4,377.7,486.2z M469.9,455.8c0.2-0.1,0.5-0.2,0.7-0.3c-0.5-0.5-1.1-1-1.6-1.6c-1.9-2.7-6.2-4.1-4.2-9
				c0.5-1.2-0.5-5.3-3.8-4.3c-3.2,0.9-5.7,3.6-6.4,6.8c-0.4,1.8,2.1,1.9,3.6,2.8c4.1,2.3,2.5-1.4,3.4-2.8
				C464.5,450.4,467.2,453.1,469.9,455.8z M382.5,527.5c-0.3,0.4-0.7,0.7-1,1.1c11.1,11.8,23.3,22.5,35.3,33.2
				C405.4,550.4,394,538.9,382.5,527.5z M298,470C298.1,470,298.1,470,298,470c-1.5-1.5-2.9-3.1-4.5-4.5c-1-0.9-1.8-3.1-3.7-1.7
				c-2,1.5-0.4,3.4,0.6,4.5c3.3,3.8,6.8,7.3,10.2,11c1.2,1.2,2.3,1,3.5-0.1c1.3-1.3,0.7-2.4-0.4-3.4C301.9,473.8,300,471.9,298,470z
				 M350.9,488.1c0.4-0.4,0.9-0.9,1.3-1.3c-2.5-2.5-4.9-5-7.5-7.4c-4-3.9-8-7.8-12.1-11.6c-1-0.9-2.2-1.9-3.5-0.5
				c-1.2,1.4,0,2.5,0.9,3.5c0.9,1,1.9,2.4,3,2.5c3.8,0.6,5.7,3.4,8.1,5.9C344.2,482.3,347.2,485.7,350.9,488.1z M185.8,371.1
				c0.2-0.1,0.4-0.1,0.6-0.2c-16.9-16.9-33.7-33.7-50.6-50.6c-0.1,0.1-0.3,0.3-0.4,0.4C152.2,337.5,169,354.3,185.8,371.1z
				 M331.1,326.7c-1-1.5,4-1.2,1.1-4.1c-2.2-2.2-3.9-1.7-5.6,0.2c-2.1,2.3-4.1,4.6-6.2,6.8c-1.5,1.5-1,2.7,0.3,3.9
				c0.9,0.8,2.5,1.7,2.8,0.3C324.5,329.7,328.8,329.7,331.1,326.7z M359.1,517.9c-8.5,0.1-12.2,5.2-16.5,9.3
				c-1.7,1.6-1.4,2.8,0.1,4.3c1.9,1.8,2.7,0.1,3.7-0.9C350.2,526.8,354,523,359.1,517.9z M270.9,284.5c0.1-0.1,0.2-0.2,0.3-0.3
				c-15.7-15.7-31.5-31.5-47.2-47.2c-0.1,0.1-0.2,0.2-0.3,0.3C239.4,253,255.2,268.7,270.9,284.5z M442,432.9
				c0.5-0.4,0.9-0.8,1.4-1.2c-7.8-11.5-15.7-23-23.5-34.4C425.9,410.1,434.2,421.3,442,432.9z M324,312.3c-4.1,1.1-6.1,4.6-8.6,7.3
				c-3.2,3.4-5.4,3.1-8.5-0.2c-8.7-9.1-17.7-17.8-26.6-26.7c8.8,10.5,18.5,20.2,28.2,29.9c1.6,1.6,3.1,2.2,5,0.3
				C317,319.4,320.5,315.9,324,312.3z M213.6,421.4c0.2,0.2,0.5,0.5,0.7,0.7c3.2-3.2,6.4-6.5,9.7-9.7c1.8-1.8,1.3-3.1-0.3-4.8
				c-9.8-9.6-19.4-19.4-29.1-29.1c0.3,1.3,1,2.1,1.8,2.9c8.5,8.5,16.9,17.1,25.5,25.4c2.6,2.5,2.5,4.3-0.1,6.6
				C218.8,415.9,216.3,418.8,213.6,421.4z M281.8,448.8c-0.7,0.7-1.5,1.3-2,2.1c-0.7,1.2-3,1.9-1.7,3.8c0.8,1.2,2,2.7,3.3,3
				c2.5,0.6,2-2.2,2.9-3.5c1.3-1.7,2.3-3.5,3.3-5.4c0.7-1.2,0.2-2.3-0.8-3c-1-0.7-1.8-0.2-2.5,0.5
				C283.4,447.1,282.6,447.9,281.8,448.8z M330.2,438.1C330.2,438.1,330.2,438,330.2,438.1c-1.7,1.6-3.4,3.2-4.9,4.9
				c-0.8,0.9-2.6,1.9-1.2,3.2c1.1,1,2.6,0,3.6-0.9c3.5-3.3,7-6.6,10.4-9.9c0.7-0.7,2.1-1.6,0.5-2.7c-0.9-0.6-2.1-0.9-3.1,0.2
				C333.8,434.6,332,436.3,330.2,438.1z M517.4,667.2c0.3-0.3,0.6-0.6,0.9-0.9c-6.7-6.7-13.4-13.4-20.2-20.2
				c-0.3,0.3-0.6,0.6-0.8,0.9C504,653.7,510.7,660.4,517.4,667.2z M430.4,450.2c-5.5,2.8-9,7.7-13.3,11.6c-0.8,0.7-1.1,1.7-0.3,2.4
				c0.6,0.5,1.4,0.5,2.1-0.2C423.2,459.8,428.3,456.3,430.4,450.2z M353.5,559.2c-1.6-2-0.2-7-4.7-5.8c-2.7,0.7-6.1,3.5-6.1,6.9
				c0,3.9,4.2,2.3,6.1,3.9c1.2-2-2.2-3,0-4.9C350.7,557.8,351.4,561,353.5,559.2z M564.9,629.1c2-2,4.1-4.1,6.1-6.2
				c0.7-0.7,1.1-1.6,0.4-2.6c-0.7-1-1.6-0.8-2.4-0.1c-4.1,4.1-8.3,8.1-12.4,12.2c-1,1-0.8,2.2,0.3,3c0.9,0.7,1.8,0.4,2.5-0.4
				C561.3,633.1,563.1,631.1,564.9,629.1z M319.3,471.8c-1-0.2-1.9-0.7-2.4-0.5c-5.5,2.4-8.7,7.4-12.8,11.4
				c-0.6,0.6-0.2,1.4,0.6,1.9c0.8,0.5,1.6,0.2,2.1-0.4C310.9,480.2,315.8,477.1,319.3,471.8z M209.2,414.8c3.2-0.4,5.4-0.8,6.2-3.6
				c0.3-1,0.6-2.5-0.3-2.3c-3.6,0.7-4.2-0.8-4.2-4c0-1.6-1.5-0.9-2.6-0.4c-2.2,1-3,2.7-3.3,5.3C208.9,409.3,211.5,410,209.2,414.8z
				 M367.9,388.9c-0.7-0.9-0.9-2.4-2.5-1.2c-1.4,1.1-1.3,2.2,0,3.3c2.1,2,4.1,4.2,6.2,6.2c1.4,1.4,2.9,3.9,5,1c2-2.7-1-3.7-2.3-4.9
				C372.3,391.6,368.7,392.2,367.9,388.9z M364.1,428.8c1.2,0.8,2.7,3.9,4.7,1.1c1.4-2,1-5.2-0.6-7.2c-1.3-1.6-3.3-2-5.3,0.2
				C360.4,425.6,362,426.9,364.1,428.8z M387.8,537.5c-0.4-0.4-0.9-0.9-1.3-1.3c-5.3,6.5-12.4,11.3-16.3,19
				C376,549.3,381.9,543.4,387.8,537.5z M306.9,298.3c-4.4,0.3-4.7,0.1-5.5-1.7c-0.4-0.9,2.3-2.9-0.8-2.7c-2,0.1-4.1,1.3-4.4,3.3
				c-0.6,3.6,7.1,1.7,4.9,6.8c0.7,0,1.5,0.1,2.1-0.1C305.7,303,306.2,300.9,306.9,298.3z M139.9,333.4c-2.3-0.2-6.6,2.1-4.9-3.5
				c0.5-1.7-1.2-1.4-2.3-1c-2.6,1.1-3.7,3.1-3.4,6.1c2.2-0.9,5.1-1.4,4.6,1.8c-0.6,3.9,1.3,2,2.7,1.8
				C139.1,338,139.5,336,139.9,333.4z M227,211.5c-0.2-0.2-0.4-0.3-0.7-0.5c-10.2,10.2-20.3,20.3-30.5,30.5c0.2,0.2,0.4,0.4,0.6,0.6
				C206.6,231.9,216.8,221.7,227,211.5z M200.7,405.4c2.8-0.3,5.2-1.5,5.5-4.3c0.3-3.3-2.5-0.9-3.7-1.6c-1.6-0.9-1.1-2-0.8-3.4
				c0.2-1-0.6-1.7-1.8-1.3c-1.9,0.6-3.7,1.1-3.7,3.7c0,0.8-1,2.2,0.7,1.9C201.5,399.5,200.3,403.1,200.7,405.4z M234.4,238.1
				c3.1,0.2,4.8-1.3,5.1-4.2c0.3-3-2.4-0.4-3.4-1.5c-0.8-0.9-1.5-1.7-1.3-3c0.2-1.6-0.1-1.7-1.8-1.4c-2.5,0.5-2.8,2.2-3.5,4
				c-0.5,1.3,0.3,2.1,1.3,1.7C236.5,231.6,233.2,236.7,234.4,238.1z M311.2,302.6c-2.8,1.1-5.6,1.4-5.8,4.7
				c-0.2,3.6,2.7,0.5,3.7,1.6c0.5,0.5,0.9,1.2,1,1.9c0.2,1-1.5,3,1,2.9c1.9-0.1,3.4-1.3,4-3.6c0.7-2.5-0.9-1.7-2.1-2
				C310.2,307.5,310.7,305.2,311.2,302.6z M290.2,510c3.8,3.8,7.5,7.6,11.3,11.3c0.7,0.7,1.5,2.2,2.7,0.7c0.8-1,0.9-2.3-0.3-3
				C299.1,516.4,295.4,512.3,290.2,510z M361.5,418.5c0.3,0.3,0.6,0.5,0.9,0.8c4.8-4.8,9.6-9.6,14.4-14.4c-0.3-0.3-0.6-0.5-0.8-0.8
				C371.1,408.9,366.3,413.7,361.5,418.5z M140.7,304.7c-0.5,0.8-1.7,2-2,3.4c-0.2,1.3-0.6,3.5,1.3,4c2.7,0.6,1.8-1.8,1.9-3.1
				c0.2-2.3,0.9-3.9,3.6-4c1.2,0,2.9,0.6,3.6-1c0.2-0.5-0.5-1.8-0.8-1.8c-1.4-0.2-3-0.3-4.4,0.1C142.8,302.5,142,303.6,140.7,304.7z
				 M189.6,320.3c0.1-0.1,0.3-0.1,0.4-0.2c-8.1-8.1-16.2-16.2-24.3-24.3c-0.1,0.1-0.2,0.2-0.3,0.3
				C173.5,304.2,181.6,312.3,189.6,320.3z M150.5,291.5c-0.3,3.6-1,7,0.7,10.5C157.9,296.5,157.9,295.7,150.5,291.5z M525.9,574.8
				c1.8,0.3,2.6,5.4,5.2,2.7c2.3-2.4-2-3.8-3.3-5.7c-0.5-0.8-1.3-1.4-2-2.1c-1-0.9-2-2.2-3.4-1c-1.6,1.4,0,2.3,0.8,3.3
				C523.9,572.8,524.7,573.6,525.9,574.8z M474.9,625.5c1.8,0.6,2.9,5.2,5.3,3c2.8-2.7-1.7-4-3-5.9c-0.2-0.3-0.5-0.6-0.8-0.8
				c-1.5-1.1-2.7-4.4-4.8-2.2c-2.3,2.2,1.3,3.3,2.2,4.9C474,624.7,474.3,625,474.9,625.5z M228.4,358.9c0-0.2,0.1-0.3,0.1-0.5
				c-7.3-7.3-14.5-14.5-21.8-21.8c-0.1,0.1-0.2,0.2-0.3,0.3C213.7,344.2,221,351.5,228.4,358.9z M505.2,643.2
				c2.3,0.4,3.8,5.9,6.1,3.5c2.5-2.6-2.8-4.4-3.9-7.2c-0.7-1.8-2-1.4-3.2-0.2C502.8,640.7,503,642,505.2,643.2z M248.1,316.1
				c0.1-0.1,0.3-0.3,0.4-0.4c-7.6-7.6-15.2-15.2-22.7-22.7c-0.1,0.1-0.3,0.3-0.4,0.4C232.9,301,240.5,308.6,248.1,316.1z
				 M299.2,508.4c5.1,6.2,10.7,9.2,18.4,10.2C310.7,514.8,305,511.6,299.2,508.4z M279.7,465.2c3.3-4.3,0.3-6.1-1.8-8.1
				c-1-1-2.1-1.5-3.4-0.3c-1.3,1.3-0.9,2.3,0.2,3.3C276.3,461.8,277.8,463.4,279.7,465.2z M337.5,519.2c4.7-0.4,7.3-1.6,9.8-2.9
				c1.3-0.7,3.2-1.3,1-3.7c-1.5-1.6-2.2-2.1-3.8-0.4C342.6,514.2,340.6,516.2,337.5,519.2z M520.5,663.7c-2.7-6.5-4-7.9-11.4-11.7
				C512.6,657.4,516.4,660.6,520.5,663.7z M370.8,448.6c-5.8-5.8-11.6-11.6-17.4-17.4c-0.4,0.4-0.8,0.8-1.1,1.2
				C359.3,436.8,365.2,442.6,370.8,448.6z M371.9,439.3c-0.1,0.1-0.3,0.3-0.4,0.4c6.5,6.5,12.9,12.9,19.4,19.4
				c0.1-0.1,0.3-0.3,0.4-0.4C384.8,452.3,378.3,445.8,371.9,439.3z M561.9,636.2c4.6-2.3,7.8-5.7,9.6-10.5
				C567.6,628.6,564.1,631.7,561.9,636.2z M192.4,325.3c-2.5-2.5-4.9-4.9-7.4-7.4C185.3,324.5,186.9,326.1,192.4,325.3z
				 M289.7,279.1c-3.8,2.8-8,5.4-9.6,10.3C284.2,286.9,287.2,283.3,289.7,279.1z M516.4,648.1c-1-1.4-2.1-2.1-3.7-0.6
				c-1.4,1.3-1.6,2.5-0.2,3.9c1.4,1.3,2.6,2.3,4.4,0.5C518.3,650.3,518,649.1,516.4,648.1z M549.3,594.9c-0.2,0.2-0.4,0.4-0.6,0.6
				c6.7,6.7,13.3,13.3,20,20c0.2-0.2,0.4-0.4,0.6-0.6C562.6,608.2,555.9,601.5,549.3,594.9z M299.7,513.4c7.4,6.2,13.1,8.6,19.1,8.1
				C311.4,519.7,305.6,516.3,299.7,513.4z M227.7,411.3c6.8-5.6,6.8-6.6-0.4-10C230.1,405,227.2,407.9,227.7,411.3z M302.1,326.7
				c3,5.3,5.6,5.7,8.6,1.8c0.4-0.5,0.4-1.4,0.3-2c-0.1-0.3-1.2-0.7-1.4-0.6C307.4,328.1,304.5,325.8,302.1,326.7z M493.2,642.8
				c-2.7-6.6-7.2-9.1-11.6-11.6C485,634.7,488.5,638.1,493.2,642.8z M511.4,633.4c0.4,3.9-1.7,7.6,2.5,10
				C515.3,639.7,517.8,636,511.4,633.4z M581.6,614.9c-0.8-1.8-3.5-0.3-3.5-2.6c0-0.9,3.2-2.7-0.6-2.4c-1.6,0.1-3.7-1.2-4.6,1
				c-0.5,1.5,1.3,2.1,2.3,2.9C577,615.3,578.8,616.8,581.6,614.9z M366.3,287.1c-4.5,1.8-7,3.9-8.2,8.6
				C362.5,294.3,365.1,292.2,366.3,287.1z M181,389.1c3.5-2.9,7.6-5.3,9.6-9.7C186.3,381.5,183.1,384.8,181,389.1z M552.5,606.9
				c-2.3-3.4-5.2-4.9-8.4-5c-2.2-0.1-5.8,5.9-5.4,8C541.6,603.7,541.6,603.7,552.5,606.9z M306.7,438c1.2,3.2,1.8,5.6,2.9,7.7
				c0.6,1.2,1.8,3,3.5,2c1.7-1.1,0.6-2.7-0.5-3.8C310.8,442.1,309.1,440.4,306.7,438z M390.9,369c-1.7-1.5-2.9-0.6-4,0.6
				c-0.9,1.1-3.4,1.9-1.4,4c1,1.1,2.2,1.6,3.3,0.2C390.1,372.4,391.8,371.1,390.9,369z M216,349c0.1,5.3,2.2,7.4,7.7,7.7
				C220.7,353.8,218.6,351.6,216,349z M225.8,290.4c0.4-0.4,0.7-0.7,1.1-1.1c-1.1-2.8-2.3-5.6-7.4-5.2
				C221.9,286.6,223.9,288.5,225.8,290.4z M334.4,477.2c-0.9-1-1.9-2.1-3.6-0.5c-1.4,1.2-1,2.3,0.1,3.3c1.3,1.2,2.4,2.7,4.3,0.8
				C336.5,479.4,335.7,478.4,334.4,477.2z M376.8,450.4c-1.3-1.5-2.3-0.7-3.4,0.3c-1.4,1.2-1.6,2.6-0.4,4c1.2,1.5,2.3,0.6,3.4-0.4
				C377.6,453,378.2,451.8,376.8,450.4z M358.1,428.6c3.5,2.8,7,5.7,10.5,8.5C365.7,433.6,363.6,429.1,358.1,428.6z M500.8,643.5
				c1.3,2.9,3.3,5.1,6.3,7C507.8,645,503.7,644.8,500.8,643.5z M200.2,267.6c-0.1,0.1-0.1,0.1-0.2,0.2c4.2,4.2,8.4,8.4,12.5,12.5
				c0.1-0.1,0.1-0.1,0.2-0.2C208.5,276,204.3,271.8,200.2,267.6z M284.6,349.5c1.2,0.2,2,3,3.5,1.5c1.5-1.5-0.4-3-1.6-4.2
				c-1.1-1.1-2.5-2.6-3.8-1.1C281.3,347.3,283.8,348,284.6,349.5z"/>
			<path d="M334.9,423.5c-4.3,0.1-8.5,0.2-12.8,0.3c-0.7-0.8-1.4-1.6-2-2.4c5.6-1.5,11.1-1.5,16.7,0
				C336.1,422.1,335.5,422.8,334.9,423.5z"/>
			<path d="M329.7,426.9c-1.1,1.8-3.8,0.6-4.7,2.7c-0.6,0-1.2,0-1.8,0c-2.2,0.2-4.4,0.4-6.6,0.6c-1.8,0.2-3.6,0.3-5.4,0.5
				c0,0,0-0.1,0-0.1C316.8,426.9,323.2,426.4,329.7,426.9z"/>
			<path d="M432.6,517.6c-3.7-2.5-1.6-4.9,0.2-6.8c2-2,4.1-1.8,6.5,0.5c2.6,2.5,1.5,4.9-0.2,6.5
				C437.2,519.4,434.4,521.1,432.6,517.6z"/>
			<path d="M438.7,472.6c1.9-2.7,6.4-4.6,7.8-9.1c0.3-0.9,1.2-1.3,2.4-0.8c1.5,0.6,0.9,2.7,2.7,3.1c0.5,0.1-0.3,1.6-1,1.7
				c-8.1,1.5-11.4,8.9-16.8,13.8c-1,0.9-1.3,2.6-2.9,1.3c-1.4-1.2-0.5-2,0.8-3.1C434,477.6,435.9,475.4,438.7,472.6z"/>
			<path d="M399.6,448.4c-0.5-6.6,4.2-10.2,8.4-13.8c2.4-2.1,5.3-3.6,8.6-4C409.6,435.2,402.9,440.1,399.6,448.4z"/>
		</g>
	</g>
	<g>
		<g>
			<path d="M117.5,750.6h61.6c31.6,0,53.1,17.8,53.1,46.1c0,32.4-24.5,47.2-53.9,47.2h-28.6v55.6h-32.2V750.6z M149.7,818.3h24.6
				c14.9,0,25.4-5.7,25.4-20.9c0-15.4-11.1-21.1-24.8-21.1h-25.2V818.3z"/>
			<path d="M347.3,782.6h-56.9c-0.9,7.6-3.4,21.2-4.3,27.1c5.3-4.4,13.4-7.6,25.6-7.6c28,0,43.8,20.2,43.8,47.3
				c0,27.5-15,52.7-53.4,52.7c-28.1,0-48.8-14.4-51.9-39.8H281c2.7,9.8,9.6,16.1,21.7,16.1c14.7,0,21.7-10.8,21.7-26.5
				c0-14.8-5.5-25.4-21.8-25.4c-13.2,0-18.6,5.7-21.8,14.2l-27.9-3.6c3.8-18.1,9.9-60.2,12.2-79.8h86.6L347.3,782.6z"/>
		</g>
	</g>
	<g>
		<g>
			<path d="M724.6,357.6V251.3c-6.6,3.1-18.6,5.6-25.7,6.2v-23.1c13.5-2.5,27.1-10.1,35.2-19.1H756v142.3H724.6z"/>
			<path d="M858.1,250c-1.7-7-5.8-13.7-18.2-13.7c-19,0-24,17.9-24.8,37c6-7.3,16.1-13.2,32.2-13.2c26,0,44.5,19.2,44.5,47.1
				c0,30.3-19.4,52.9-52.2,52.9c-41.2,0-55-31.8-55-71.9c0-37,13.1-75.4,56.7-75.4c30.9,0,45.3,19.3,46.7,37.2H858.1z M860.9,309.8
				c0-13.5-5-25.6-22.1-25.6c-13.8,0-21.9,8.1-21.9,24.5c0,11.5,5.5,26.8,22,26.8C853.9,335.6,860.9,324.2,860.9,309.8z"/>
		</g>
	</g>
	<g>
		<g>
			<path d="M459.6,316.9c8.2-8.2,19-18.6,25.5-24.6l-0.4-0.4c-13.5,9.1-32.6,21.2-51.8,32.6l-12.3-12.3c11.8-17.9,24-37,33.7-50.7
				l-0.5-0.5c-5.8,6.6-15.7,17.2-24.8,26.2l-16.7,16.7l-13.7-13.7l52.6-52.6l22.2,22.2c-8,13.2-20.4,31.7-27,40.6l0.3,0.3
				c9.8-7.1,27.3-17.6,41.8-25.9l21.6,21.6l-52.6,52.6l-14.8-14.8L459.6,316.9z"/>
			<path d="M513.5,353.8l-11.6,11.6L479.4,343l11.6-11.6L513.5,353.8z"/>
			<path d="M530.8,349.1c7.1-5.7,19.5-9.8,34,4.7c12.6,12.6,12,25,4.5,32.5c-5.9,5.9-12.2,5.3-16.7,3.5l-0.3,0.3
				c2,4.3,4.4,12.5-3.4,20.4c-8,8-21.5,10.7-36.5-4.3c-15.9-15.9-10.5-29.1-4.9-35.5l13.9,13.9c-2.4,3.3-3.3,7.4,0.7,11.5
				c3.8,3.8,8.1,3,12-0.8c4.1-4.1,4.7-8.2-0.6-13.5l-4.5-4.5l9.9-9.9l4.2,4.2c4.7,4.7,7.5,4.5,11,1.1c2.9-2.9,3.3-6.2,0.1-9.5
				c-3.8-3.8-7-2.7-9.9-0.6L530.8,349.1z"/>
		</g>
	</g>
</g>
<g id="text">
	<path id="dir_00000107580020609307279750000015481781800484497288_" d="M609.9,679.2l35.5,66l-66-35.5c0,0,16.3-6.1,20.3-10.1
		S609.9,679.2,609.9,679.2z"/>
</g>
<g id="guides" display="none">
</g>
<g id="scratch" display="none">
</g>
</svg>
