<?xml version="1.0" encoding="utf-8"?>
<!-- Generator: Adobe Illustrator 26.0.2, SVG Export Plug-In . SVG Version: 6.00 Build 0)  -->
<svg version="1.2" baseProfile="tiny" xmlns="http://www.w3.org/2000/svg" xmlns:xlink="http://www.w3.org/1999/xlink" x="0px"
	 y="0px" viewBox="0 0 800 800" overflow="visible" xml:space="preserve">
<g id="fill">
</g>
<g id="bg" display="none">
</g>
<g id="counters_00000155831629897369998050000010902328751353074356_">
	<g>
		<path d="M107.1,667.7c0.2-20.9,0.6-41.9,0.2-62.8c-0.4-19.6,0-39.2-0.5-58.8c-0.4-15.3,0.9-30.6,0.7-45.9
			c-0.1-6.9-0.6-13.8-0.6-20.7c-0.1-19.5,0.3-38.9,0.4-58.4c0-11.8-0.9-23.6-0.3-35.4c0.7-14.4-0.1-28.7,0.1-43.1
			c0.1-5.8-0.7-11.6-0.3-17.4c1.1-14.7-0.1-29.4,0.2-44.2c0.4-16.6-0.3-33.3,0.2-49.9c0.4-12.7,0.1-25.5-0.1-38.2
			c-0.1-10.9,0.9-21.9-0.4-32.9c-1.2-9.9,0.1-20.2,0.3-30.3c0.1-6.2-0.5-12.3,0-18.5c0.2-2.5,0.7-3.7,3.3-4.1
			c4.3-0.5,8.4-1.3,12.8-0.9c7.4,0.7,14.6-1.1,21.9-1.9c4.9-0.5,9.7-0.2,14.4,0.4c15,1.8,29.9,2.3,45,1.6c1.4-0.1,2.2,0.1,2.5,1.5
			c0.2,0.7,0.7,1.9,1.1,1.4c4.7-7.1,11.5-2.2,17.1-2.7c12.7-1.2,25.6-1,38.4,0c10.5,0.8,21.2,0.7,31.5,0.1
			c14.2-0.8,28.4,0.2,42.6-0.1c12.1-0.3,24.4-0.1,36.6,0.3c10.2,0.3,20.4,0.5,30.6-0.5c5.4-0.5,10.9,0.7,16.5,0.4
			c11.9-0.6,23.8-0.6,35.7,0.1c14.8,0.8,29.6-0.5,44.5,0.4c11.8,0.7,23.6-0.2,35.5-0.3c3.5,0,7-0.3,10.5,0.1
			c10.3,1.2,20.7-1.2,30.8-0.3c13.2,1.1,26.3,0.1,39.4,0.9c7,0.4,14.1-1,21.1-0.5c14.7,1,29.2-0.6,43.8-0.4c2,0,3.5-0.6,5.2-1.5
			c5-2.7,8.1-1.1,7.2,4.4c-2.2,13.1-0.9,26.3-1.2,39.4c-0.5,25.6-0.7,51.2-0.3,76.9c0.3,20.2-0.7,40.5-0.2,60.7
			c0.3,11.8-0.3,23.5-0.4,35.2c-0.2,14.9-0.2,29.9-0.5,44.8c-0.1,6.5,0.3,13,0.1,19.6c-0.5,17.5,0.1,35.1-0.5,52.6
			c-0.7,19.9-0.4,39.7-0.6,59.6c-0.3,17.2-0.2,34.4-0.3,51.6c-0.1,18.5,0.2,37.1-0.5,55.6c-0.7,18.9,0.4,37.8-0.7,56.7
			c-0.6,10,0,20.2-0.1,30.3c0,8.3-0.1,7.9-8.4,7.4c-8.7-0.5-17.5-0.4-26.3,0c-10.9,0.5-21.7,0.2-32.6-0.2c-7.3-0.3-14.8,0.1-22.1,0
			c-17.5-0.1-35-1.1-52.4-0.4c-10.8,0.5-21.5-0.4-32.3,0.2c-10.4,0.6-21-0.5-31.6-0.3c-6.9,0.1-13.8-1.4-20.9,0.4
			c-3.9,1-8.8-0.2-13.3-0.4c-16.4-0.7-32.8,0.6-49.1,0.1c-9.6-0.3-19.5,0.7-28.8-0.2c-12.6-1.2-25.1,0.1-37.6-0.6
			c-6.4-0.3-13.4-2.7-20.2,0.8c-3.6,1.9-8.5-0.2-12.7-0.4c-8.5-0.4-17,1-25.6-0.2c-5.4-0.8-11-0.6-16.4,1c-0.4,0.1-0.8,0.3-1.1,0.2
			c-9.4-4.4-19.1-0.4-28.6-1.2c-10.7-0.9-21.6,0.2-32.3,0.3c-9.1,0.1-18.4-0.2-27.6-0.7c-14.6-0.8-29.2-0.8-43.8,0.3
			c-3.1,0.2-5.9,0.4-8-2.6c-1.3-1.8-4.1-1.8-5.7-1.4c-5.1,1.2-5.3-2-5.4-5.3C106.9,682.3,107,675,107.1,667.7z M116.9,583.9
			c-2.1,4-3.1,8-3.8,12.6c-1,6.6,1.2,12.8,0.3,19.3c-0.4,2.8-3,5.3-1.7,8c3.8,8-0.1,16.2,1.4,24.6c1.8,10.5-0.8,21.8-1.5,32.8
			c-0.4,5.2,3.1,12.1,6.4,12.8c13.1,2.4,15.9,0.2,16.1-13.2c0-0.7,0-1.5,0-2.2c-0.2-16.6-0.5-33.3-0.6-49.9
			c-0.1-11.4,0.2-22.8,0.2-34.2c0-7.6-0.6-8.3-8.1-8.8c-3-0.2-6-0.3-8.7-1.6c1.1-4.8,5.1-2.7,7.7-2.8c6.8-0.3,8.4-1,8.8-7.9
			c0.5-9.7,0.5-19.5,0.5-29.2c-0.1-18.9-0.9-37.9-0.6-56.8c0.3-16.4,1-32.9,0.5-49.3c-0.7-25.6,0-51.3-0.3-76.9
			c-0.2-20.2,0.6-40.5,0.5-60.7c-0.1-22.9-0.6-45.7-0.9-68.6c0-1.7-0.3-5.1,2-4c2,1,7.6-0.6,6,5c-1.8,6.3-2.2,12.6-2.1,19.2
			c0.3,16.6-1.4,33.3-0.8,49.9c0.3,8-0.8,16.2-0.2,24c0.8,10.4,0.8,20.9,0.5,31c-0.4,12.8,0.7,25.5-0.1,38.3
			c-1,15.4,0.1,31,0.2,46.4c0.1,12.3-0.7,24.6,0,36.9c0.6,11.2,0.9,22.4,0.2,33.5c-0.3,4.8,4.5,8.6,1.9,13.4
			c-4.6,8.3-1.9,17.4-1.8,25.8c0.1,10.7-1.1,21.5,0.7,32.3c1.5,9.5-2.7,19-1.5,28.8c0.5,3.8,1.1,7.7,0.7,11.7
			c-0.7,6.6-0.7,13.4-0.1,20.1c1,12.5-3,24.8-0.4,37.3c0.2,0.8-0.3,1.8-0.5,2.7c-1.5,6.5,1.7,10.2,8.5,9.9c3.9-0.2,7.8-0.6,11.7-0.5
			c9,0.4,10.2-0.3,10.3-9.3c0.3-19.1,0.7-38.2,0.2-57.3c-0.5-18.5-0.4-37-0.5-55.5c-0.1-13.1,1.2-26.2-0.1-39.3
			c-0.6-6.4-2.2-7.9-8.6-7.2c-5.1,0.5-10.1,0.9-14.6-3.5c5.1-0.4,9.9-0.4,14.7-1.3c1.7-0.3,3.6,0.8,5.4,1.2c3.3,0.8,3.2-1.6,3.3-3.7
			c1.3-16.3,0-32.7,0.5-49.1c0.3-10.6,0.4-21.3,0.2-31.9c-0.2-11.1-0.2-22.4-0.9-33.5c-0.6-10.4,2.2-20.8,0.8-31.2
			c-1.3-10,0-20.1-0.4-30.2c-0.4-11.9-0.7-23.9-0.2-35.9c0.6-13.4-1-26.7,0.4-40.1c0.2-1.4,0.2-2.6,1.7-3.1c1.7-0.5,2.4,0.7,3.1,1.8
			c1.5,2.3,5.8,4.4,0.2,7c-1.5,0.7-0.8,2.7-0.8,4.2c-0.2,8,0.5,16.2,0.1,24.1c-0.6,14.2,0,28.4-0.3,42.6
			c-0.5,21.3,0.4,42.5,0.4,63.8c0,15.8-0.4,31.7-0.5,47.5c-0.2,26.4,0.5,52.7,0,79.1c-0.4,20.6,0.2,41.2,0.5,61.8
			c0.1,5.7,2,7.5,7.5,6.8c2-0.3,3.7,0.3,5.5,0.5c4.3,0.6,6.3-0.9,6.5-5.3c0.3-6.9,0-13.7-0.2-20.5c-0.5-13.3,0.5-26.6,0.3-39.9
			c-0.2-13.4-0.6-27-0.2-40.3c0.6-19.4-0.1-38.8,0.3-58.2c0.3-13-0.6-26-0.8-39.1c-0.1-6.2,1.3-12.1,1.3-18.2
			c-0.1-15.8-0.9-31.7-0.6-47.5c0.3-13.8,0.2-27.7,0.3-41.5c0-1.3-1-3.5,1-3.8c2.3-0.3,2.3,2,2.3,3.6c0.2,16.3,0.4,32.6,0.4,48.8
			c0,13.8-0.2,27.7-0.2,41.6c0,3.3,0.9,5.9,5.3,5c3.5-0.7,7,0,10.6,0.2c9.1,0.6,10-0.1,10.3-9.4c0.4-12.9,0.4-25.8-0.1-38.8
			c-0.2-5.4,0.1-10.8-0.1-16.2c0-1.3,0-3.1,1.6-3.2c2-0.1,2.1,2.1,2.1,3.4c-0.1,4.8,1.3,9.6,0.2,14.5c-0.7,3.1-1.5,6.7,1,9.7
			c1.1,1.3,0.3,2.5-0.6,3.5c-1.3,1.6-1.2,3.3-0.7,5.3c1.4,5.8,1.9,12.4,1.1,17.5c-1.3,8.4,1.6,16.6-0.6,24.8
			c-1.7,6.4,0.5,13,0.2,19.3c-0.3,7,0.3,14-0.6,21c-0.8,6.7,2.6,13.4,0.8,20.3c-0.6,2.5-0.8,5.2-0.5,7.8c1,9.7,0.4,19.4,0,29.2
			c-0.2,6.3-0.5,12.6-0.8,18.9c-0.4,10.6,1.5,21.3,0.6,31.9c-1.4,16.3,0.6,32.6-0.2,48.8c-0.2,3.3,0.3,6.7,0.7,10.1
			c0.4,3.3,1.3,5.8,5.7,4.6c2.4-0.7,5.2-0.3,7.7,0c9.7,1.2,10.3,0.7,10.3-9.4c0.1-13.9-0.8-27.9-0.6-41.8
			c0.1-13.1,1.5-26.3,0.8-39.2c-1.1-22.4,0.2-44.8-0.3-67.3c-0.5-20.7,0.4-41.5,0.3-62.2c0-5.7,0.9-11.4-0.1-17.3
			c-1.1-6.3-0.2-13-0.1-19.6c0-2,0.8-3.8,3.3-3.6c3,0.2,2.3,2.2,2.2,4.1c-0.1,1.9-0.3,3.7-0.1,5.6c1,11.7,0.9,23.7,0.4,35.2
			c-0.9,17.4,2.9,35.1-2.7,52.2c-0.1,0.3,0.5,0.9,0.9,1.1c2,1.3,1.4,3.3,1.4,5.1c0,12.5,0.4,25,0.4,37.5c0,19-1.1,38.1,0.6,57.2
			c0.5,5.4,1.9,7.5,7.2,7.7c1.4,0,3.3-1.2,3.7,1.1c0.4,2.3-1.9,2.4-3.4,2.9c-4.9,1.4-7.6,4.4-7.6,9.7c0,5.4-0.5,10.8-0.5,16.3
			c0.2,17.4,0.6,34.8,0.7,52.2c0.2,16.7,0.3,33.3,0.1,50c-0.1,5.3,2.3,6.3,7,6.9c5.1,0.8,9.9-0.7,14.9-0.6c3.4,0.1,4.4-1.8,4.5-5
			c0-15.3,0.1-30.7,0.3-46c0.3-23.4-1.6-46.8,0.9-70.2c0.4-3.7,0.4-7.5-0.6-11.2c-0.6-2-1.5-3.6-3.9-1.6c-2.7,2.3-5.8,0.2-8.7,0.5
			c-1.6,0.2-2.4-1.1-2.1-2.6c0.3-1.5,1-3,3-2.7c1.8,0.2,3.7,0.7,5.5,1.1c4,0.9,5.3-0.5,5.7-4.8c0.6-5.8,0.8-11.6,0.9-17.3
			c0.6-30.9,0.6-61.7,0.4-92.6c-0.1-18.6-0.4-37.1,0-55.6c0-1.6-0.1-3.3,1.7-4.4c1.7,2,2.1,4.1,2.1,6.4c-0.3,20.7-0.6,41.5-0.8,62.2
			c-0.1,9.6,1.1,10.7,10.5,10.8c5.6,0.1,7.9-2.2,7.8-7.5c-0.1-9.1,0.5-18.2-0.2-27.3c-0.4-5.8,0.2-11.6,0.4-17.4
			c0.1-1.4,0.5-3.3,2.5-3c1.7,0.3,1.2,2.1,1.3,3.3c0.1,5.3,0,10.5,0,15.8c0,19.7,0.1,39.3,0.1,59c0,6,0,12-0.1,17.9
			c-0.2,22.1-0.7,44.2-0.5,66.3c0.2,17.2,0.4,34.4-0.3,51.5c-0.1,2.8,0.7,4.3,3.8,4c5.3-0.6,10.7-1.8,16-1.4c7.3,0.6,7.9-3.8,8-8.9
			c0.1-8.1-0.3-16.1-0.2-24.2c0.3-16.1,1-32.2,1.1-48.2c0.2-23.4,0-46.8,0.1-70.2c0-9.9,0.3-19.9,0.4-29.8c0-1.3-0.1-2.9,1.3-3.4
			c1.7-0.5,1.9,1.4,2.7,2.3c3.2,3.9,2.4,8.6,2.1,13c-1.1,12.9,0,25.8-0.2,38.8c-0.4,27.9-0.8,55.8-0.4,83.7
			c0.3,20.2-0.2,40.4-0.4,60.6c-0.1,8.8,1.1,17.8-1.9,26.6c-1.6,4.7,2.1,7.7,7.2,7.2c2.9-0.3,6.2-1.2,8.8,0.4
			c5.9,3.5,6.4-0.5,6.5-4.5c0.4-13.3,0.6-26.6,0.7-39.9c0.1-16.8-0.3-33.6-0.1-50.4c0.1-14.6,0.4-29.2,1.2-43.8
			c0.2-4.1-2.7-7.5-1.5-11.4c2.5-8.1,1.6-16.6,2.3-24.8c0.7-8.5,0.1-17,0.1-25.5c0-1.5-0.1-3.3,2-3.4c1.5-0.1,2.3,1.2,2.5,2.6
			c0.1,0.9,0,1.9,0,2.8c-0.3,10.1-1,20.1-0.7,30.2c0.1,5.4-1.5,10.8,0.6,16.2c1.1,2.8,2.1,4,4.6,1.4c1.4-1.4,3.2-2.4,5.1-1.5
			c4.9,2.2,9.8,0,14.6,0.3c5.7,0.4,6-3.3,6.3-7.4c0.5-5.3-1.4-10.6,0.1-16.3c3.4,3,5.3,5.8,5.4,10.3c0.2,10.7-0.6,21.3-0.5,31.9
			c0,5.5-2.7,11-1.4,16.1c2.4,9.3-0.3,18.4-0.2,27.5c0.1,10.1-0.7,20.5-0.8,30.6c-0.1,13.9-0.6,27.8-0.1,41.7
			c0.4,11.7,0.5,23.6-0.7,35.4c-0.3,2.7,1,4.3,3.3,5.9c3.7,2.6,7.5,0.2,11.1,1.1c4.7,1.1,7.7-1.2,7.8-5.8
			c0.7-22.6,0.5-45.2,1.2-67.8c0.7-19.5-1-38.9,0.2-58.5c0.7-10.3,1-20.9,0.6-31.3c0-1.5-0.9-3.9,1.7-4c2-0.1,2.6,2.1,2.7,3.8
			c0.2,4.8,1,9.7,0.3,14.5c-0.9,6.5,0.2,13,0.6,19.6c0.1,1.7,1,3.1,2.5,4.2c1.3,0.9,4.3,1.1,2.4,3.9c-1.3,1.9-2.9,3.5-5.6,1.8
			c-2-1.3-2.7,0.7-2.2,1.6c4,6.2,1.4,13.1,1.3,19.2c-0.3,15.8,2,31.7-0.7,47.4c-0.9,5.3,1.7,10.6,0.9,15.4
			c-1.8,10.8-1,21.4,0.4,32.1c0.3,2.2,1.4,3,3.5,3.7c4.5,1.6,9.2,0.3,13.8,0.7c2.7,0.3,8.1,0.1,7.4-5.6c-1-8.2,1.7-16,1.5-24.3
			c-0.4-14,0.2-28.3,0.8-42.4c0.6-14.1-0.6-28.1,0.1-42.1c0.2-5.2-2.3-6.7-6.8-6.3c-3.2,0.3-6.3,0.8-9.5,1.1c-1.5,0.2-3.3,0.2-3.2-2
			c0.1-1.6,1-3,2.8-2.9c1.4,0,2.8,0.1,4.3,0.4c7.5,1.7,11.9-1.2,12.5-8c0.1-1.4-0.6-3.7,1.5-3.6c2.2,0,2.7,2.4,2.8,4.3
			c0.1,6.2,0.1,12.3,0.1,18.5c-0.1,10.5-0.4,21-0.5,31.4c-0.1,4.4,1.3,7.7,6.6,8c1.4,0.1,4.1-1.3,4.1,1.3c0,2-2.2,2.2-4.4,2
			c-4.7-0.5-7.2,2.5-6.3,7.3c0.6,3.6,0.4,7.1,0.4,10.7c-0.1,15.4-0.1,30.8-0.3,46.1c-0.1,6.2,4.1,6,8.4,6.2c4.4,0.1,8.3,0.2,8.1-6
			c-0.2-6.7,0.5-13.5,0.2-20.2c-0.8-14.7,2.5-29.6-1.5-44.2c-0.3-1,0.1-2.3,0.6-3.2c1.4-2.6,1.4-5.4,1.3-8.2
			c-0.4-9.6,0.8-19.1-0.1-28.7c-0.1-1.1-0.2-2.5,1.1-2.9c1.4-0.4,1.7,1.1,2.4,1.8c3.9,3.9,2.4,8.8,2.4,13.3
			c-0.2,17.7,0.9,35.5-0.4,53.2c-0.4,4.8-0.1,9.8,0.1,14.6c0.1,3.4,1.5,5.4,5.6,5.2c4.9-0.2,10-0.4,14.8,0.6
			c4.3,0.9,5.7-0.6,5.8-4.3c0.4-12,0.2-24,1.1-35.9c0.5-6.4-2.5-13.8,4-19.1c1.2,0.7,2.6,1.9,1.9,3c-4.1,6.6-2.4,13.8-2.5,20.8
			c-0.1,17.6-0.1,35.3-0.2,52.9c0,3.6,0.9,5.9,5,7.5c5.8,2.3,9.9-2.3,15-2.1c0.8,0,1-1.6,0.5-2.5c-3-5.9,0.4-11.9-0.1-18
			c-0.9-9.6-0.1-19.4,0-29.1c0-2.3-1.5-6.2,1-6.4c3.2-0.3,3.3,3.7,3.6,6.4c0.1,0.6,0,1.1,0,1.7c0.4,14.4,0.2,28.8-0.4,43.3
			c-0.2,4.1,0.4,6.4,5.7,6.6c5.2,0.2,10.7-1.2,15.3,0c5.6,1.5,5.5-1.7,7.2-4.7c2.4-4.3,0.8-8.8,1.2-13.2c0.2-2.1,0.5-4.8,2.8-4.8
			c2.4,0,3.6,2.5,3.5,5c-0.1,3.5,0,7.1-0.6,10.7c-0.9,5,2.3,7.7,7.1,6.8c1.1-0.2,2.2-0.4,3.3-0.2c6,0.6,8.4-2.5,8.6-8.1
			c0.1-1.9,0.4-3.9-0.1-5.6c-2-6.6,1-12.9,0.8-19.4c0-1.7,0.9-4.3,3-4.2c2.9,0.1,1.6,2.9,1.6,4.5c0,9.4-0.2,18.7-0.2,28.1
			c0,4.4,1.7,6.4,6.6,5.8c3.2-0.4,6.4-1.6,10.2,0.3c2,1,6.8-0.8,7.7-4.7c0.9-4.2,1.2-8.5,1.3-12.8c0.1-10.3-0.4-20.6,0.1-30.9
			c0.3-6.1-1.2-12.4,0.9-18.4c0.4-1.1,0.6-2.3,2-2.2c1.6,0.2,1.2,1.5,1.3,2.6c0.1,5.6,0.3,11.2,0.2,16.8
			c-0.2,14.1-0.5,28.1-0.7,42.2c-0.1,5.7,2.3,7.5,8,6.7c2.8-0.4,5.6-0.5,8.3-0.2c4.9,0.7,5.9-1.9,6.6-6.1c1.2-6.9-0.1-13.8,0.2-20.6
			c0.6-12.5,0.6-25.1,0.6-37.6c0-3.7-2.1-5.7-6.2-5.5c-3.7,0.2-7.4,0-11.1-0.1c-1.1,0-2.4-0.5-2.7-1.7c-0.3-1.2,0.7-1.9,1.5-2.7
			c3.5-3.5,7.7-2.4,11.6-1.8c4.6,0.7,6.1-1.6,6.4-5.6c0.1-1.5-0.1-3,0-4.5c0.6-8.2,10.3-17.1,17.1-16c11.1,1.9,13.6-0.1,14.3-11.3
			c0-0.6,0-1.1,0-1.7c0.2-17.4,0.2-34.8,0.6-52.1c0.2-12.6-1-25.3,0.2-37.9c0.3-3.2-1.8-6.6,0.1-9.3c2.5-3.5,1.6-7,1.4-10.7
			c-0.4-8.9-1-17.7-0.2-26.6c0.2-2.4,3.4-4.5,1.9-6.1c-3.4-3.5-1.8-7.3-1.3-10.7c0.5-3.5-1.9-6.3-1.1-9.5c2.1-8.8,0.8-17.7,1.1-26.5
			c0.3-9.9,0.6-19.9,0.3-29.9c-0.2-8.8-0.7-17.6,0.4-26.5c1-8.8-0.7-17.8,0.2-26.6c1-9.3,0.5-18.6,0.6-27.9c0.1-6.1-3.5-8.8-9.4-7.8
			c-3.1,0.5-6.2,1.1-9.4,0.6c-3.7-0.5-5.6,1.1-6.1,5.2c-1.7,11.8-1.2,23.9-0.4,35.4c0.8,11.6-4.7,22.9-0.4,34.3
			c-3.1,16.1,0.1,32.4-1.8,48.6c-0.8,6.7,0.6,14.2-0.3,20.7c-1,6.8,0.3,13.4-0.6,20.2c-1,7.2,0.6,15.1,0.2,22.5
			c-0.9,17.1-0.9,34.2-0.8,51.4c0,12.1-0.6,24.3-0.8,36.5c-0.2,8.8-0.1,17.5-0.3,26.3c0,1.3,0.2,3.5-1.9,3.5c-2.2,0-2.4-2.1-2.3-3.8
			c0.1-4.9,0.3-9.7,0.4-14.6c0.1-20,0.2-40,0.4-60.1c0.1-13.1,0.5-26.1,0.4-39.2c0-6-0.6-11.9,0.7-17.9c0.7-3.4,1.3-7.1,0.9-10.6
			c-1.2-10.4-1.8-20.9-0.6-31.3c0.7-5.9-1.5-11.7-0.4-17.3c1.8-9.8-0.8-12.4-11.9-10.3c-3.8,0.7-8.3,1.2-8.7,6.9
			c-0.5,8.1-1.4,16.1-1.2,24.2c0.1,4.3,0.6,8.7-0.1,12.9c-2.2,13-1.1,26.1-1.4,39.2c-0.3,12.2,0,24.3-0.2,36.5
			c-0.2,14.2-1,28.4-0.4,42.7c0.2,5.3,0.6,10.7-1.1,16.5c-3.3-2.6-3.8-5.2-3.6-8.4c0.4-9,1.5-18,0.5-26.8c-1.2-10.4,0.2-20.7-0.2-31
			c-0.4-9.9,1.1-20.2,1-30.2c-0.1-21.7,0-43.3,0.9-64.9c0.3-8.1-1.2-16-0.3-24.3c1.7-15,0.7-30.3,0.6-45.5c0-4.4-2.9-6.2-7-5.8
			c-1.4,0.1-2.5,0-3.8-0.5c-10-3.4-13.5-1.5-14.1,8.6c-0.7,10.1-0.8,20.2-0.9,30.3c-0.2,14.8,0,29.6-0.2,44.4
			c-0.3,19.7-0.8,39.3-1,59c-0.2,19.6,0,39.3-0.1,58.9c0,1.1,0,2.3-1.5,2.9c-4.4-3.2-2.9-8-3-12.3c-0.1-7.6-1.2-8.8-8.6-9.1
			c-2.2-0.1-4.5-0.2-6.7-0.4c-6.1-0.7-9.2-4.3-9.1-10.4c0.1-7.5,0.3-15,0.3-22.5c0.1-16.9,0.2-33.8,0.2-50.6c0-8.6-0.3-8.7-8.9-8.2
			c-4.8,0.3-9.6,0.2-14.4,0.5c-4.1,0.2-7.3,1.6-7.4,6.4c-0.2,12.9-0.3,25.8-0.6,38.7c-0.1,2.5,1.8,6.8-1.9,7.1
			c-2.6,0.2-1.4-4.3-1.9-6.7c-0.9-4.1-1.2-8.5-7.5-6.9c-2.3,0.6-4.9-0.1-6.6-2.3c-0.6-0.8-0.7-1.8-0.2-2.6c0.6-0.9,1.4-0.8,2.5-0.5
			c8.5,3,11.6,0.8,11.7-8.8c0.4-23.6,1.2-47.3,0.8-70.9c-0.3-23.4-0.1-46.8,0.7-70.2c0.7-20.8,0.4-41.6,0.8-62.4
			c0.3-13.1-0.2-12.4-13-14.7c-6.4-1.1-6.2,1.5-6.5,5.8c-1.6,21.6-0.4,43.3-1.1,65c-0.6,19.6,0.1,39.2-1.1,58.7
			c-0.9,14,0.2,27.9-0.5,41.8c-0.3,5.5-2.6,11.5,1.8,16.7c0.6,0.7-0.3,2.8-0.8,4.2c-0.5,1.6-1,3.1-1,4.9c0.2,7.5-1.2,14.9-0.4,22.4
			c0.1,1.1-0.1,2.5-1.5,2.6c-1.3,0.1-2-1.1-2.2-2.2c-0.3-1.4-0.2-3-0.3-4.5c-0.2-6.6-0.3-13.1-0.5-19.7c-0.1-3.5-2.7-6.7-5.5-5.8
			c-6.4,1.9-13.1-2.3-19.1,1.9c-1.3,0.9-2-0.4-2.8-1.1c-2.3-2.1-2.6-4.7-2.5-7.7c0.2-7.1,0.2-14.1,0.5-21.2
			c0.7-14.7,0.1-29.4,0.3-44.1c0.1-9.3-0.3-9.7-9.6-8.5c-1.7,0.2-3.3,0.5-5,0.7c-2.8,0.3-4.5,1.9-4.9,4.6c-0.5,3.1-1.3,6.4-1,9.5
			c1.5,13.7-0.1,27.4,0.5,41.1c0.1,1.4,0.4,3.1-1.7,3.8c-1.7-1.3-1.7-3.1-1.7-5c-0.4-26.4-0.2-52.8,0.6-79.1
			c0.3-8.8-0.4-17.6-0.6-26.4c-0.1-1.9,0-3.9-2.8-4c-5.8-0.1-11.6-0.2-17.3-0.3c-3.7-0.1-5.6,1.7-6,5.3c-0.4,4.1-1.2,8.2-1.1,12.3
			c0.2,20.2,0.5,40.4-0.3,60.6c-0.1,1.5,1.9,4.2-1.4,4.4c-2.9,0.1-2.4-2.5-2.8-4.6c-2-9.8-0.3-19.8,0.6-29.2
			c0.9-9.2-1.7-18.1-0.3-27.3c0.6-4.5,1.2-9.5,1.3-14.3c0.2-9.9-1.4-19.7-0.6-29.5c0.4-5.2,1.3-10.4,1.1-15.6
			c-0.3-8.4-13.2-15-20.1-10.5c-1.3,0.8-1.3,2.2-1.4,3.5c0,3.7,0.1,7.5,0.1,11.2c-0.1,28.1-1.7,56.2-1.2,84.3
			c0.1,2.8,1.5,7.9-2.2,8.1c-4.9,0.3-3-4.8-3.4-7.9c-0.6-4.8-1-9.1-8.1-8.5c-3.2,0.3-8.2,1.8-10.3-3.3c-0.5-1.3-2.5-2.3-1.2-3.9
			c1.1-1.3,2.4,0.1,3.6,0.4c4.3,1.1,8.6,1.6,13.1,0.7c1.6-0.4,2.9-0.6,2.8-2.7c-0.4-7.5,2-15.1,1.4-22.3
			c-1.1-12.3,0.8-24.6-0.4-36.8c-0.5-5.4-0.3-10.8-0.2-16.3c0.1-3.4,2.4-5.8,2.2-9.5c-0.3-5.7-2-11.2-0.8-17.4
			c0.9-4.8,2.4-10.8,1.1-15.9c-2.9-10.9,1.1-21.4,0.5-32.2c-0.5-9.2,0.2-18.6,0.3-27.9c0-4.5-5.4-8-9.6-7.5
			c-5.1,0.7-10.4,0.2-15.5-0.2c-7.4-0.6-8.4-0.1-8.5,7c-0.4,25.1-1.3,50.3-0.8,75.3c0.7,29.8,0.1,59.5-0.4,89.3
			c0,1.6,0.5,4.1-1.5,4.3c-2.3,0.3-1.6-2.4-2.2-3.8c-0.4-0.8-0.4-1.8-0.3-2.8c1.5-17.5,0.9-35,1-52.5c0.2-33.9,0-67.8,0.1-101.8
			c0-13.8,2-16-14.2-14.8c-0.6,0-1.1-0.1-1.7-0.1c-4.6-0.2-7,2-7,6.6c0,6.7-0.1,13.5-0.4,20.1c-0.7,17.1-1,34.2-0.7,51.3
			c0.4,21.9,0.2,43.8-0.7,65.7c-0.1,1.5,1.2,3.9-1.3,4.1c-2.6,0.2-3.3-2.1-3.1-4.3c0.5-7.4-0.1-14.9,0.2-22.4c0.3-6.3,0-12.9,0-19.3
			c0-6.4-1.7-13.1-0.5-19.2c2.9-14.1,0-28.3,1.3-42.4c0.8-9.2-1-18.6,0.4-28c1-6.9-3.8-14.1-9.1-12.9c-3.4,0.8-6.6,0.3-9.9,0.5
			c-10.3,0.7-10.3,0.6-11.5,10.9c0,0.2-0.1,0.4-0.1,0.5c0,9.7-2.8,19.7,2.2,29c0.6,1-0.1,1.8-0.6,2.5c-2,2.6-1.8,5.6-1.8,8.6
			c-0.2,19.5-0.5,38.9-0.7,58.4c0,1.6,0.5,3.5-1.7,4.1c-1.8-1.1-1.6-3-1.6-4.6c-0.1-12.7-0.4-25.4-0.1-38.2
			c0.1-7.3,0.4-14.6-0.7-21.8c-0.3-1.7-0.6-3.3-2.5-4.1c-6.3-2.6-13.2,1.3-13.5,8c-0.3,6.5,0.1,13.1-0.5,19.6
			c-0.4,4.6-1.4,9.1,0.1,13.7c0.7,2,0.7,3.9-1.7,4.5c-2.6,0.6-2.3-1.6-2.6-3.3c-1.4-6.9,0.1-13.8,0-20.7c-0.3-13.7-0.8-27.4,0.2-41
			c0.4-5.8-0.3-11.5,0.1-17.4c0.4-6.8-2.1-8.8-8.9-9.1c-3.9-0.2-7.7,0.2-11.6,0.3c-8.3,0.2-11.1,2.9-10.5,9.4
			c1.4,14.7-0.5,29.5,1.2,44.2c0.2,1.7,0.9,4-1.2,5.1c-1.4,0.8-3,0.2-4.2-0.8c-1.8-1.6-2.9-3.5-1.7-6c0.9-1.9,1.3-3.8,1.3-6
			c0-6.7,0-13.4,0.4-20c0.5-7.7-0.6-15.2-0.6-22.9c0-1.7-0.8-2.3-2.4-3.1c-3.8-1.8-7.3,1-11.2,0.2c-3.3-0.7-7.6-1.4-8.4,4.5
			c-0.3,2.4-3.1,1.4-3.5-0.3c-1.4-5.4-5.1-4.7-9.2-4.6c-2.1,0.1-4.4,1.6-5.9,0.6c-3.4-2.4-7.2-0.5-10.4-0.8c-6-0.5-0.1,6-2.6,8.6
			c-0.1,0.1,0,0.4-0.1,0.5c-0.3,1.1-0.8,2.4-2.1,2.3c-1.5-0.1-1.3-1.6-1.4-2.6c-0.2-1.7-0.2-3.4-0.4-5c-0.2-2-1.5-3.3-3.2-3.3
			c-3.7,0-7.4,0.4-11.1,0.9c-3.8,0.5-5.4,2.8-5.3,6.6c0,6.5-0.8,13,0.3,19.6c0.4,2.2,0.4,4.9-0.8,7.2c-0.5,1-1,2.2-2.3,2
			c-1.2-0.2-1-1.4-1.1-2.3c-0.3-5.9-0.8-11.8-0.8-17.7c0-4.7,0.1-9.3-0.9-13.8c-0.4-1.8-0.9-2.9-3.3-2.7c-6.4,0.6-13,1.8-19.2,0.8
			c-6.5-1-6.4,2.5-5.6,6c2.4,11-1.5,21.8,0,32.9c1.1,7.9-0.1,16.3-0.3,24.5c-0.1,2.2-0.7,4.4-1.1,6.6c-0.3,1.4-1.2,2.5-2.7,2.4
			c-1.9-0.1-1.5-1.9-1.5-3.1c-0.1-4.1-0.4-8.3-0.2-12.4c0.6-11.3-2.7-11.6-14-12.1c-3.5-0.2-4.5,1.6-5.1,4.5
			c-0.8,4.1,0.7,8.9-0.8,12.2c-3.4,7.6,1,14.5-0.1,21.6c-1.4,9.5-0.2,19,0.1,28.4c0.6,18.9,0,37.7,0.1,56.6
			c0.2,19.6,0.4,39.2-0.3,58.8c-0.5,15.1,0.2,30.3,0.2,45.4c0.1,16.9,0.4,33.9-0.3,50.8c-0.5,11.3,0.2,22.6,0.5,33.9
			c0.5,15.9-0.2,31.8-0.2,47.6c0,15-0.6,30-0.7,45.1C112.6,570.1,113.6,577.2,116.9,583.9z M576.7,197.4c0.1-9.9,0.1-18.3,0.1-26.8
			c0-5.2-2.5-7.3-7.7-7.2c-4.6,0.1-9.1,0.7-13.8-0.1c-5.6-1-7.3,1.1-7.4,7c-0.3,9.7-0.6,19.5-0.7,29.2c-0.1,8,0.9,16.1,0.1,24
			c-1.5,14.9-0.2,29.9-1.6,44.7c-0.5,5.6,1.1,11.4-0.5,16.4c-2.8,8.2-0.7,16.5-1.6,24.6c-0.5,4,2.2,8.8,1.4,13.2
			c-1,5.1-0.8,10.2-1.2,15.4c-1.3,17.9-0.2,35.8-0.4,53.7c-0.1,5.9,3,7.6,7.6,7.9c5.7,0.4,11.5-0.1,17.2,0.3
			c4.1,0.3,5.5-1.6,5.6-5.1c0.2-4.3,0-8.6,0.1-12.9c0.2-18.9,0.9-37.8,0.4-56.6c-0.3-10-0.2-20.2,0.9-29.8
			c2.3-20.5-1.3-40.9,0.9-61.4C577.5,221.5,577.9,208.6,576.7,197.4z M196.6,633.6c-0.5,9.2,0,15.5,0.8,21.9
			c0.5,3.9,2.1,4.9,5.9,4.5c4.5-0.5,8.9-2.4,13.6-1c2,0.6,3.4-0.7,4.2-2.8c1-2.7,1.1-5.5,1.2-8.3c0.8-26.6-0.5-53.2,0.1-79.8
			c0.6-27.9,0.2-55.8,0.1-83.7c-0.1-15.5,1-31.1,0.1-46.6c-0.7-13.6-0.3-27.2-0.7-40.8c-0.1-2.9,0-7-5.3-4c-1.1,0.6-3,0.2-4.4-0.2
			c-4.5-1.3-8.6,1.2-12.9,1.5c-2.7,0.2-4,3.3-3.3,5.7c2.5,8.6,0.2,17.1,0.4,25.6c0.4,19.5-1.1,38.9,0.3,58.4
			c1,14.1-1.2,28.1-0.6,42.1c0.4,9.5,0.2,19,0.2,28.5c-0.1,8.6-1.1,17.3-0.4,25.8C197.5,599,195.1,617.7,196.6,633.6z M515.3,168.4
			c0.5,0,0.9,0,1.4,0c0-5.4,0.2-10.9,0.1-16.3c-0.1-4.2-0.7-7.9-6.7-7c-2.4,0.4-5.1-0.7-7.7-1.3c-9.7-2.4-12.2-0.5-12.3,9.5
			c-0.2,24.7-0.5,49.4-0.7,74.1c-0.4,37.8-0.5,75.6-1.2,113.3c-0.3,15.2-0.1,30.3,0,45.4c0.1,7.6,1.3,9.5,7.6,9.5
			c3.7,0,7.3,1.2,11.2,0.6c4.5-0.7,6-2.2,6.4-6.5c1.3-13.2,0.8-26.5,1.1-39.7c0.4-20.4,0-40.7,0.4-61.1c0.5-23.7,0-47.5,0-71.2
			C515.1,201.3,515.2,184.9,515.3,168.4z M656.4,314c0-1.7,0-3.4,0-5c0.2-7.6,0.7-15.3,0.5-22.9c-0.3-7.5-1.8-14.8,0.2-22.5
			c1.6-6.1,0.5-12.6,0.4-19c-0.3-20.6,1.7-41.3,0.6-61.9c-0.1-2.4-0.1-5.1,0.9-7.1c2-4.2,1.4-8.2,1-12.5c-0.7-6.5-1.2-13-0.8-19.5
			c0.4-7.4,1.3-14.8,1.5-22.2c0.1-4.9-2.6-7.4-6-7.9c-3.1-0.4-6.3-1.2-9.7-1.1c-4.7,0.2-6.5,1.5-6.7,6.5
			c-0.8,24.8,1.1,49.6-1.9,74.4c-1.2,10.1,0.3,20.4,0.3,30.7c0,21.1-0.7,42.2-0.4,63.4c0.3,23.2-1.9,46.5-0.9,69.7
			c0.5,11.6,0.2,11.6,11.8,11.4c7.9-0.2,8.2-0.8,9-8.8C657.4,344.3,656,329.1,656.4,314z M369.8,587.7c0.1,0,0.3,0,0.4,0
			c-0.1,15.8,0,31.5-0.3,47.3c-0.3,13.5,1,26.9-1.1,40.4c-0.9,5.8,0.1,11.6,1.4,17.3c0.3,1.1,0.1,3.1,2.2,2.2
			c6.1-2.5,12.5-0.2,18.7-0.8c7.7-0.7,8.5-0.3,8.7-7.8c0.3-13.5,0.2-26.9,0.4-40.4c0.2-10.8,0.7-21.6,0.7-32.4c0-18-0.4-36,0-53.9
			c0.2-10.7,1.1-21.4-0.6-32c-0.6-3.9-2.4-5.5-6.4-5.2c-3.9,0.3-7.7,0.5-11.7,0.2c-10.4-0.9-12.4,1.6-12.3,11.8
			C370.2,552.1,369.9,569.9,369.8,587.7z M632.7,127.4c0-2.1,0.2-4.1,0-6.2c-0.6-8.7-2.2-10-11-8.5c-1.4,0.3-2.5-0.4-3.8-0.7
			c-7.4-1.6-11.3,0.7-10.8,7.5c0.6,8-1.3,15.7-1.1,23.5c0.9,24.1-1.6,48.1-1.1,72.2c0.5,26-1.2,52-0.5,78c0.2,9.6,0.1,9.5,9,12.8
			c0.8,0.3,1.4,1.2,2.2,1.6c7.3,3.8,13,0.6,13.7-7.2c1.3-14.4,1.1-28.7,1.3-43.1c0.3-24.2-0.7-48.4,0.9-72.5
			C632.9,165.7,630,146.5,632.7,127.4z M592,246.9c-9.6-0.2-11.1,1.2-11.7,11.1c-1.3,23,0.2,46.1-0.5,69.1
			c-0.7,23.4-0.5,46.8-0.3,70.2c0.1,8-1.4,16.1-1,23.9c0.9,19.6-0.7,39.3,0.5,58.9c0.2,3,0.2,7.9,2.8,7.7c4.8-0.3,9.8,4.3,14.3-0.2
			c0.6-0.6,1.2-1.6,1.3-2.4c0.5-4.3,1.2-8.6,1.3-12.8c0.2-11,0.5-22,0.1-33c-0.4-12.5,0.9-25,0.7-37.6c-0.5-27,0.7-53.9,0.2-80.9
			c-0.4-21.6,0.7-43.2,1-64.8C600.8,248.3,599.3,247,592,246.9z M465.6,286c-0.1,0-0.2,0-0.4,0c0,8.2,0,16.5-0.2,24.7
			c-0.1,3.4,1.1,6.2,4.6,5c2.9-1,5.8-0.9,8.6-0.9c5.2,0,6.4-2.7,6.2-6.9c-0.3-8.2-0.3-16.5,0.3-24.6c1.7-22.6-0.6-45.3,0.7-67.9
			c0.9-15.3,1.2-30.7,0.9-46.1c-0.3-16.3,1.2-32.6-0.2-48.9c-0.7-7.7-2.1-8.7-11.9-8.2c-5.3,0.3-6.4,4.8-6.3,9
			c0.2,25-2.5,49.8-2,74.9C466.6,226.2,465.8,256.1,465.6,286z M305.8,479.6c0.5-5.4-0.1-9.3-2.6-12.5c-2.6-3.2-5.8-0.9-8.7-0.2
			c-0.2,0-0.4-0.1-0.5-0.1c-4.1-1.1-5.6,1.2-5.7,4.7c-0.2,16.3-0.4,32.6-0.4,48.8c-0.1,15.7,0,31.5,0,47.2c-0.1,24.3,0,48.6-0.3,73
			c-0.2,14.2,1.3,28.4-0.6,42.5c-0.4,3.3-1,8.1,1.9,9.9c3,1.9,7.6,2.5,11.3,0.8c3.2-1.5,3.7-5,3.6-8.3c-0.3-6.3,0.8-12.6,0.4-19
			c-0.4-6.2-0.2-12.6,0-18.8c0.2-7.1-1.2-14.3,0.3-21.5c0.6-2.6,1.3-5.7,1.1-8.7c-0.5-6.5-1.3-13.2,0-19.6c0.8-4.2,0.4-8.2-0.4-12.2
			c-1-5.5-1.8-10.9-1.3-16.5c0.8-8.9,2.3-17.8,2.2-26.8C305.9,520.9,305.9,499.6,305.8,479.6z M462.5,157c0.1,0,0.2,0,0.3,0
			c0.1-12.6,0.3-25.1,0.1-37.7c0-3,0.2-7.9-4.8-7.1c-4.7,0.8-9.2-0.5-13.9,0c-6.6,0.7-9.3,3.1-8.1,9.7c0.6,3.2,0.9,6.3,0.7,9.5
			c-0.6,14.2-1.2,28.4-1.5,42.6c-0.2,14.9,0.7,29.9,0.1,44.8c-0.4,10.6,0.3,21.3-0.6,31.9c-0.3,3.2,0.3,6.5,4.4,7.5
			c5.3,1.2,10.6,2.2,16.1,2.2c4.8,0,6.8-2.1,6.6-6.9c-1-20,1.4-40,0.5-60C461.8,181.4,462.4,169.2,462.5,157z M662.7,240.7
			c0.1,0,0.3,0,0.4,0c0,6.9-0.1,13.9-0.1,20.8c0,3.6,1.2,5.9,5.6,6.1c3.9,0.1,7.8,0.4,11.7-0.1c7.2-0.8,8.1-1.6,8.1-8.9
			c0-13-0.3-26.1,0.2-39.1c0.7-17.5,0.8-35.1,0.9-52.6c0.1-15.6-0.2-31.1-0.5-46.7c-0.1-2.7-1.5-4.6-3.8-6.8
			c-3.7-3.4-7-1.3-10.5-1.6c-8.6-0.8-9.8,0.6-9.7,10.9c0.1,9.5,0.8,19.2-0.2,28.6c-1.6,15.6-0.5,31.2-1.7,46.8
			C662,212.3,662.8,226.6,662.7,240.7z M603.3,126.5c0-1.1,0-2.3,0-3.4c-0.1-10.5-0.7-11-10.7-10.6c-9.6,0.4-10.1,1.1-9.2,10.7
			c0.3,3.5,1.3,7.5,0,10.4c-4.1,8.9-0.6,18.2-1.5,27.2c-0.6,6.5-0.4,13.5-0.9,20.3c-0.5,8.5,0.6,16.9-0.5,25.5
			c-1.1,8.5,0.9,17.4,0.3,26c-0.4,6.6,1.9,10.2,9.6,10c1.3,0,2.6-0.3,3.8,0.2c4,1.7,5.6-0.5,6.3-3.9c0.5-2.4,0.7-4.8,0.7-7.3
			c0.3-17.9,0.4-35.7,0.7-53.6C602.5,160.9,601.7,143.7,603.3,126.5z M684,628.1c0-7.3,0.2-14.6,0.1-21.9c-0.1-8.7-0.8-9.3-9.6-8.7
			c-3.4,0.3-6.7,0.8-10.1,0.9c-5,0.3-7.2,2.5-7,7.8c0.4,10.7,0.3,21.3,0.2,32c-0.1,17-0.5,34-0.5,51c0,6,2.3,7.8,8.2,7
			c4-0.5,8.1-0.8,11.6,0.6c5.1,2.1,6.5-0.7,6.6-4.3c0.2-6.5,0.9-13.2,0.4-19.6C682.7,657.9,683.7,643,684,628.1z M410.4,198.7
			c-1.2,5.5-1.1,9.3,3.3,10.4c3.9,1,8,1.1,12.1,1.6c3.1,0.4,4.2-0.9,4.8-4c2.1-11.1,0.8-22.3,0.6-33.4c-0.3-15.5,1-31,1.5-46.4
			c0.4-12.4-1-15.1-12.9-14.2c-0.9,0.1-1.9,0.4-2.8,0.2c-3.7-0.7-5.4,1.3-5.7,4.5c-0.6,6.3-1.1,12.6-1.1,19
			c-0.1,7.8,0.4,15.6,0.4,23.4C410.6,173.2,410.4,186.8,410.4,198.7z M521.4,185.8c-0.1,0-0.2,0-0.3,0c0,4.3-0.1,8.6,0,12.9
			c0.2,6.6,2.9,8.9,9.5,8c1.3-0.2,2.7-0.9,3.8-0.6c6.4,1.6,6.9-2.1,6.7-6.9c-0.8-18.3,1.8-36.6,0.7-54.9c-0.5-8.8,1.5-17.7,0.7-26.6
			c-0.1-1.5-0.5-2.7-1.5-4c-3-3.9-6.5-1.8-10.1-1.7c-8.7,0.3-9.2,0.9-9.2,9.2C521.8,142.8,521.5,164.3,521.4,185.8z M336.1,695.4
			c0.2-0.4,0.6-0.7,0.6-1c0.2-20.4,0.4-40.9,0.5-61.3c0-5.5-2.5-8-8-7.5c-3.7,0.3-7.3,1.8-10.9,1.9c-7.1,0.3-8.4,1.4-8.6,8.4
			c-0.3,12.3-0.7,24.6-0.8,37c0,4.7-0.9,9.3-0.1,14c0.9,5,3.5,6.9,8.8,7.3C323.8,694.8,330.1,692.1,336.1,695.4z M226.7,682.1
			c-0.3,7.1,0.5,9.3,3.7,11.4c2.7,1.7,5.4-0.1,8.2,0.4c8.5,1.5,11.6-1,11.6-9.4c0.1-21.5,0-43,0-64.6c0-2.8-0.7-4.9-4.1-4.7
			c-4.8,0.2-9.5,0.3-14.3,0.8c-2.9,0.3-5.4,1.5-5.5,5.2c0,3.9-0.3,7.8-0.3,11.8C226.5,649.5,225.1,666.1,226.7,682.1z M192.6,637.1
			c-0.1,0-0.3,0-0.4,0c0-6.4,0.4-12.7,0-19.1c-0.6-9.5-0.8-9.5-9.7-10.6c-0.2,0-0.4,0-0.6-0.1c-6.7-1.3-9.8,1.5-9.8,8.8
			c0.1,22.2,0.3,44.5,0.5,66.7c0.1,10.2,0.1,10.2,10,10.7c0.6,0,1.2-0.2,1.7,0.1c5.4,3.3,6.7-0.4,8.6-4.4c1.2-2.5-0.9-4-0.8-6.2
			C192.6,667.8,192.5,652.4,192.6,637.1z M547.8,136.2c0.1,0,0.1,0,0.2,0c0,6-0.2,12,0,18c0.1,3.3,0.1,6.1,5.7,5.4
			c4.6-0.5,9.7-0.5,14.5,0.1c7.1,0.9,10.3-2.1,9.9-9.4c-0.3-6.3-3.1-12.8-0.9-18.7c2-5.4-1-10.1-0.1-15.2c0.4-2.5-2-4-4.9-4.3
			c-6-0.5-12,0.6-18.1-0.1c-3.7-0.4-6.4,1.5-6.2,6.2C548.2,124.2,547.9,130.2,547.8,136.2z M114.5,154.1c3.4-1.4,6.6-1.7,10.5-1.1
			c6.6,1,7.7,0.4,7.7-6.4c0-8.8,0.9-17.6,0.3-26.4c-0.4-5.3-2.3-7.7-7.4-8.3c-8.1-0.9-12.7,2.5-12.5,10.1
			C113.3,132.6,113,143.1,114.5,154.1z M196.2,679.8c-0.1,5.3,1.1,11.7,2.6,12.8c2.7,1.9,5.9,0.2,8.6,0.9c3.6,0.9,7-0.2,10.5,0.3
			c2.4,0.3,3.8-0.8,4.2-3.3c1.4-8.6,0-17.2-0.4-25.7c-0.1-1.9-1-2-3.1-2.5c-5.1-1.1-8.7,2.5-13.2,2.8c-8.2,0.5-8.1,0.4-8.7,8.5
			C196.7,675.8,196.4,678.3,196.2,679.8z M516.6,126.7c0-3,0.2-6,0-9c-0.1-2.4-1.6-5.1-3.7-5c-5.9,0.3-11.8-0.2-17.6-0.1
			c-2.1,0-5.1,1.4-4.4,5.2c0.4,1.9-0.3,4.1-0.4,6.1c-0.7,13-0.6,13.3,12.3,15.1C516,141,516.7,140.4,516.6,126.7z M290.6,139.2
			c0.1,3.2-1,7.1,2.3,9.3c3.4,2.1,7.9,0.3,11.5,2.7c1.1,0.7,1.5-1.6,1.5-2.9c0.5-10.4,1-20.9,1.4-31.3c0.1-1.7,0.1-3.3-1.9-4.3
			c-6.3-3-14.1,1.4-14.7,8.3C290.2,127,288.8,133.1,290.6,139.2z M512.7,683.8c-0.9-3,1.7-6.7-2.8-8.4c-7.1-2.8-14.6-0.5-21.3,0.3
			c-7,0.8-1.8,8.9-2.9,13.6c-0.6,2.6,0.3,5.4,3.1,5.8c6.8,0.8,13.6-0.3,20.4-0.9c1.6-0.1,2.4-1.8,2.6-3.3
			C512.2,688.4,512.5,686,512.7,683.8z M364.3,684.1c-1-3.9,1.1-8.8-3.1-10c-5.7-1.7-12.1-1.7-16.8,2.9c-3.1,3.1-3.3,7.5-2.2,11.5
			c0.9,3.5,3.6,5.3,7.5,5.5c3.1,0.1,6.2-0.4,9.3,0.6c2.2,0.7,3.9-1.2,4.4-3.4C363.9,688.7,364.1,686.1,364.3,684.1z"/>
		<path d="M228.8,134.9c0,3.2,0,5.2-0.1,7.2c-0.1,1.4-0.5,2.6-2.2,2.5c-1.4-0.1-2.5-0.8-2.7-2.3c-0.5-5-1.3-10-0.4-14.9
			c0.2-1.4,0.7-3.1,2.6-3c2,0.1,2,1.8,2.1,3.3C228.4,130.4,228.7,133.2,228.8,134.9z"/>
	</g>
	<g>
		
			<rect x="346" y="108" transform="matrix(0.7071 -0.7071 0.7071 0.7071 -172.5139 399.5147)" fill="none" width="100" height="600"/>
		<path d="M198.1,250.1l1.3-1.3c10.4-10.4,21.9-12.3,38.2-9.6c12.5,2.1,16,2.4,19.7-1.4c3.5-3.5,3.9-6.9,0.7-10.1
			c-3.9-3.9-7.7-2.5-12.2,1.2L232,215.2c8.4-7.4,22-11.8,36.7,2.9c14.2,14.2,11.4,26.8,3.3,34.9c-6.8,6.8-13.4,7.8-28.8,4.6
			c-8.8-1.7-13.5-1.8-16.2-0.9l22.2,22.2l-12.8,9.3L198.1,250.1z"/>
		<path d="M273.7,266.4c3.5-3.5,7.2-7.2,10.3-10.5l14.5,14.5c-0.8,1.2-2.8,3.6-4,4.9c3.8-0.8,10.2-0.5,16.8,6c8,8,7.7,18.5-2.1,28.3
			l-25.8,25.8l-14.9-14.9l24.1-24.1c3.9-3.9,4.9-7.1,1.5-10.6c-3.1-3.1-6.7-3.4-12.3,2.2L259,310.9L244.1,296L273.7,266.4z"/>
		<path d="M387.2,328.5L344,371.8c-4,4-8.7,8.6-12,12.2l-14.4-14.4c0.9-1.4,2.4-3.3,3.3-4.3c-4.9,0.9-9.9-0.4-15.7-6.1
			c-10.5-10.5-7.2-25.2,4.6-36.9c12.2-12.2,27.8-14.7,39-3.4c4.7,4.7,6.6,9.6,5.9,12.5l17.6-17.6L387.2,328.5z M325.4,337.1
			c-7,7-8.6,12.7-4.4,16.9c5.6,5.6,11.2,1,16.7-4.5c6.7-6.7,10-11.2,4.6-16.5C338.1,328.8,332.5,330,325.4,337.1z"/>
		<path d="M411,357.8l15.5,15.5l-41.2,41.2l24.8,24.8L397,449l-38.6-38.6L411,357.8z"/>
		<path d="M434.4,452.2c-4,4-6.5,9.6-2.1,14c3.5,3.5,6,3,8.9,1.7l14.6,14.6c-6.8,3.9-19.6,7.6-33.7-6.6c-15.1-15.1-10.5-30.9,0-41.3
			c12.1-12.1,27.7-14.9,42.3-0.4c15.5,15.5,9.7,30.7-0.2,40.7c-1.3,1.3-2.4,2.3-3.6,3.3L434.4,452.2z M453.5,455.8
			c3.7-3.8,5.8-8,1.5-12.3c-4-4-8.4-2.6-12.7,1.1L453.5,455.8z"/>
		<path d="M501.7,473.6c-7.3,12.2-16.6,26.4-21.9,33.2l0.3,0.3c8.6-6.5,22.1-14.4,33.6-21.5l14.8,14.8l-53.2,26.8l-16.7-16.7
			l27.1-52.9L501.7,473.6z"/>
		<path d="M522.2,540c-4,4-6.5,9.6-2.1,14c3.5,3.5,6,3,8.9,1.7l14.6,14.6c-6.8,3.9-19.6,7.6-33.7-6.6c-15.1-15.1-10.5-30.9,0-41.3
			c12.1-12.1,27.7-14.9,42.3-0.4c15.5,15.5,9.7,30.7-0.2,40.7c-1.3,1.3-2.4,2.3-3.6,3.3L522.2,540z M541.2,543.5
			c3.7-3.8,5.8-8,1.5-12.3c-4-4-8.4-2.6-12.7,1.1L541.2,543.5z"/>
		<path d="M537.9,589.9l55.3-55.3l14.9,14.9l-55.3,55.3L537.9,589.9z"/>
	</g>
</g>
<g id="text">
</g>
<g id="guides">
</g>
<g id="scratch">
</g>
</svg>
