<?xml version="1.0" encoding="utf-8"?>
<!-- Generator: Adobe Illustrator 26.0.2, SVG Export Plug-In . SVG Version: 6.00 Build 0)  -->
<svg version="1.2" baseProfile="tiny" xmlns="http://www.w3.org/2000/svg" xmlns:xlink="http://www.w3.org/1999/xlink" x="0px"
	 y="0px" viewBox="0 0 800 800" overflow="visible" xml:space="preserve">
<g id="fill">
</g>
<g id="bg" display="none">
</g>
<g id="counters_00000155831629897369998050000010902328751353074356_">
</g>
<g id="text">
	<g>
		<rect fill="none" width="800" height="800"/>
		<g>
			<path d="M363.7,256.6c13.8-8.9,30.8-13.4,51-13.4c26.5,0,48.5,6.3,66,19c17.5,12.7,26.3,31.4,26.3,56.2
				c0,15.2-3.8,28.1-11.4,38.5c-4.4,6.3-13,14.4-25.6,24.3l-12.4,9.7c-6.8,5.3-11.3,11.4-13.5,18.5c-1.4,4.5-2.2,11.4-2.3,20.7
				h-47.6c0.7-19.8,2.6-33.5,5.6-41c3-7.6,10.9-16.3,23.5-26.1l12.8-10c4.2-3.2,7.6-6.6,10.2-10.4c4.7-6.4,7-13.5,7-21.3
				c0-8.9-2.6-17-7.8-24.3c-5.2-7.3-14.7-11-28.5-11c-13.6,0-23.2,4.5-28.8,13.5c-5.7,9-8.5,18.4-8.5,28.1h-50.8
				C330.1,294.2,341.8,270.6,363.7,256.6z M392.9,454.2h52.6V505h-52.6V454.2z"/>
		</g>
	</g>
</g>
<g id="guides" display="none">
</g>
<g id="scratch">
</g>
</svg>
