<?xml version="1.0" encoding="utf-8"?>
<!-- Generator: Adobe Illustrator 26.0.2, SVG Export Plug-In . SVG Version: 6.00 Build 0)  -->
<svg version="1.2" baseProfile="tiny" xmlns="http://www.w3.org/2000/svg" xmlns:xlink="http://www.w3.org/1999/xlink" x="0px"
	 y="0px" viewBox="0 0 1000 1000" overflow="visible" xml:space="preserve">
<g id="fill">
</g>
<g id="bg" display="none">
</g>
<g id="scans" display="none">
</g>
<g id="counters_00000155831629897369998050000010902328751353074356_">
	<g id="smoke">
		<g>
			<path d="M333.7,197c4.8-2.1,9.8,0,14.3-2.7c-1.8-3.4-5.2-6-8.2-5.5c-11.6,1.8-23.4-4.3-34.8,1c-11.6,5.4-24.9,5.4-36.3,11.4
				c-6.6,3.5-8.8,11.3-15.1,14.7c-7.4,4-10.4,11.7-10.8,18.1c-0.7,12.3-5.8,24.2-2.1,37.2c2,7.1,2.4,14.6,5.9,21.7
				c2,4.1-1.2,10.1-3.1,14.9c-0.6,1.4-1.5,2.5-1.1,4.2c2.2,10.2-3.8,17.6-8.8,25.3c-0.3,0.4-1.3,0.8-1.3,0.9
				c5.3,8.9-4.5,14.1-5.7,21.6c-1.1,6.9-3.7,14-4.7,21.1c-1.7,11.6-5.3,22.9-5.2,34.7c0.1,10.8-0.9,22.1,8.7,30.3
				c1.1,0.9,0.5,1.9,0.1,2.9c-0.9,2.3-0.1,4.1,2.4,4.4c2.1,0.3,4.1-0.3,4.4-2.9c0.1-1.4,0.4-2.9,1.6-3.5c8.1-4.2,5.1-9.6,3.2-16.3
				c-1.9-6.9,0.3-14.8-1-22c-0.8-4.5,0.3-8.2,0.8-12.2c0.1-0.6-0.3-1.5-0.1-1.7c8.1-5.6,6.6-15.1,7.4-22.6
				c0.9-9.1,4.7-17.2,6.4-25.9c0.9-4.6,4.8-8,5.3-12.9c0.2-1.5,1.3-2.4,2.7-2.4c1.8,0,1.9,1.5,2.1,2.8c0.4,2.9,0.9,5.9,1.3,8.8
				c0.1,1,0.5,1.8,1.5,1.8c1,0.1,1.7-0.6,1.9-1.6c0.8-6.6,6-11.5,6.8-18.1c0.4-3.1,2.7-5.7,5-6.6c5.1-1.9,8.2-6.8,12.2-8.9
				c7.3-3.9,7.9-11.3,12.6-16.1c7-7.3,4.7-17.3,8.7-25.3c5.9-11.8,12.5-22.4,25.7-28.2c6.4-2.8,11.8-7.4,19.3-7.5
				c3.8,0,5.1,1.8,6.9,4.7c2.2,3.6-0.7,3.8-2,5.2c-6.1,6.4-14.3,9.8-21.5,14.7c-3.2,2.2-7,3.4-6.7,8.4c0.3,3.6-3.3,3.6-5.3,5.2
				c-3.2,2.5-9.4,5.6-6.8,9.1c3,4,6.3-2.4,9.1-4.4c2.2-1.6,4.2-2.7,6.9-3.3c4-0.9,8.3-1.5,10.2-6.3c0.8-1.9,3.2-3.2,5.5-3.2
				c12.7,0.2,20.4-8.3,29.3-15.6c7.7-6.3,10.9-16.3,19.8-21.2c1.6-0.9,3.4-3.6,4.4-1.6c1.2,2.2,6.5,3.4,3.1,7.4
				c-2.7,3.1,0.9,7.5-2.7,10.7c-1.1,1.1,3.3,0.5,4.2,2.7c2,5.2,5.7,5.8,9,0.8c3.5-5.1,9.2-6.6,13.8-9.9c1.5-1,4.1-1.6,5.4,0.4
				c1.4,2.1,0.2,3.9-1.2,5.9c-4.9,7-13,10-19.5,14.7c-3.4,2.4-6,5.6-7.4,8.4c-2.2,4.5-6.9,4.4-9.5,7.6c-0.9,1.1-3,1.1-4.2-0.4
				c-1.1-1.4,0.1-2.1,1.2-3.1c1.3-1.1,1.8-3,3-4.2c3-3,0.8-5.2-1.4-6.4c-3.6-2-7.2-0.6-10.8,1c-3.5,1.6-0.7,4-1.2,5.8
				c-1.6,5.9,1.6,12.7-3.4,18c-1,1.1-1.2,2.9-3.1,2.6c-2.9-0.4-0.7-2.3-1-3.4c-0.5-1.9-1.3-3.7-0.6-5.8c1.7-4.8-0.5-6.8-5.1-7.1
				c-2.1-0.1-4-0.1-2.9-3.4c0.6-1.9-1.2-3.1-3.3-3.3c-1.8-0.1-4.1-0.6-4.6,1.5c-1.8,7.3-9.5,7.4-13.6,11.9c-2.5,2.8-6.9,3.5-8.1,8.1
				c-0.8,3-4.4,2.4-7,2.7c-7.8,0.9-13.5,4.7-16.5,11.9c-1.7,4.2-5.1,0.8-7.6,2.3c2.6,2.5,5.3,4.2,8.2,5.7
				c12,5.9,17.6,17.3,14.7,30.5c-0.7,3.3,0.5,7.1-2.5,10c-1.3,1.3-2,4-4.5,2.7c-1.8-1-3.8-2-3.4-5c1-6.4-0.1-12.8-0.2-19.2
				c-0.1-4.2-2.3-5.3-5.7-5.6c-7.4-0.7-15.3,3.8-17.8,11.5c-1.9,5.7-3,10.6-10.3,5.7c-0.7-0.5-2.7-0.4-3.2,0.2
				c-5,6.2-16.1,7.3-16.6,16.6c-0.3,6.8-6.8,11.4-4.5,18.9c0.7,2.4-4.2,3.8-6.9,3.6c3.4,2.3,6.5,3.3,5.1,10.4
				c-2.3,11.3-8.1,21.9-7.5,33.9c0.1,1.6-1.3,4.2-2.8,6.3c-2.5,3.4-3.1,7.4,0.7,11.2c3.4,3.4,2.5,7.4,1.3,12.1
				c-1.2,4.8-7.2,7.4-5.2,13.2c0.5,1.5-1.6,1.7-2.8,2.1c-2.1,0.6-3.7-0.3-4.1-2.3c-0.5-2.7-1.4-4.6-4.6-4.4
				c-3.4,0.2-2.7,1.9-2.4,4.5c0.3,2.4-3.7,0.7-4.5,2.9c3.3,5,5,11.2,6,16.6c0.5,3.1,0.1,10.5-5.1,13.9c-2.2,1.4-3.7,4.3-1.6,6
				c1.9,1.6,4.9,0,6-2.4c2.1-4.6,5.3-6.1,10.1-5.5c1.9,0.2,4.3-0.1,3.7-3.2c-1.1-5.4,0.8-10.6,1.4-15.9c0.4-3.3,1.9-5.9,4.4-8.4
				c5.1-5,10.3-10.6,11.5-17.7c1.7-10.1,5.9-19.9,4.9-30.5c-1.9-19.9,7.4-35.4,19.9-49.6c3-3.4,7.3-0.7,11.1-3
				c-2.7-3.5-6.3-7-2.4-11.8c0.6-0.8-1.2-2.8,1.1-3.1c1.7-0.3,2.8,0.5,3.7,2.1c4.1,6.8,17,7.3,22.4,1c4-4.7,9.1-5.6,12.4-2.3
				c3.1,3.1,3.2,5.6-1,7.7c-4.7,2.3-9.3,5.4-14.3,6.7c-5.2,1.3-7,6.3-11.5,8.3c-2,0.9-1.9,3.4,1,4.3c4.2,1.3,8.4,2.8,12.7,3.7
				c4.2,0.8,5.7,3.4,5.1,7.1c-0.7,4.3-4.4,2.9-7,2.8c-7.3-0.4-14.3-3-21.8-2.7c-5.5,0.2-8.6,2.4-9,8.2c-0.7,11.4-0.2,22.8,1.3,34
				c0.8,6,4.4,7.2,9.4,3.3c4.1-3.2,7.1-7.4,11.7-10.1c1.6-0.9,2.9-2.3,4.7-1.2c2,1.3-0.1,2.7-0.1,4c-0.5,10.9-7.8,16.8-16.1,21.8
				c-2.3,1.4-4.4,3.7-3.7,5.6c1.1,2.9,4.6,3.1,7.5,2.2c2-0.6,4.5-3.2,5.7-0.4c1,2.3,1.7,6.4-0.6,8.1c-6.5,4.7-7.5,13.6-13.6,17.9
				c-6,4.2-8.5,10.7-13.4,15.5c-4,3.9-8,4.5-12.4,1c-2.3-1.8-4.5-3.5-7.6-3.7c-3.9-0.3-6.7,0.6-6.1,5.2c0.2,1.7-0.1,3.3-1,4.4
				c-3.1,3.8-2.7,7.7-0.5,11.5c3.6,6.1-1.9,8.9-4.3,12.8c-0.7,1.1-2.6,2.1-2.5,2.9c1.1,7.5-5.8,12-6.7,18.9c-0.4,3.1-4,5.8-6,8.7
				c-2.8,4.1-5.2,8.2-2.4,13.4c1.5,2.9,0,6-0.5,8.9c-0.5,2.9-3.4,2.8-6,2.5c-3.3-0.3-4-2.6-4-5.1c0-5.3,1.4-11-4-14.9
				c-0.3-0.2-0.7-0.9-0.5-1.1c2.2-3.7,0.9-6.4-3.1-5.9c-4,0.5-7.7,2.4-8.4,7.8c-1.6,13.4-1.6,27.1-7.7,39.7c-0.9,1.9-1.4,5-0.2,7.6
				c1.6,3.5,2.6,6.8,0.5,11.1c-1.3,2.6,2.1,6.5,3.3,9.5c2.3,6.1,1.3,12.5,3.5,18.4c1,2.6,1,5.5,3.3,7.5c1,0.8,2.5,1.5,1.8,3.1
				c-0.7,1.7-2.4,1.8-4,1.7c-0.9,0-1.8-0.2-2.6-0.3c-3.6-0.3-8.2-2.6-9.9,2.3c-1.4,4.2-1.1,8.3,1.9,13c4,6.4,7.6,12.4,14.3,16.3
				c3,1.8,6.8,1.7,9.4,4.7c2.1,2.5,6,2.6,8.5,5c2.9,2.7-2.8,5.3,0.7,8.5c2.1,1.9-1.5,3.6-3.7,3.6c-4.9-0.2-9.7-0.7-14.6-1.2
				c-0.6-0.1-1.7-0.4-1.7-0.8c-1.4-8.6-10.7-10.6-14.5-17.2c-0.7-1.3-2.1-2.3-3.3-3.1c-8.3-5.8-9.9-9.6-5.4-18.5
				c1.6-3.2-1.1-7.9,3.6-10c0.6-0.3-0.7-2.7-2.7-2.7c-2.1,0-4.3,0-6.2,0c0.7-8.4,1.3-16,1.4-23.8c0.1-7.1-1.9-15,3-21.5
				c1.7-2.3,2.5-4.8,2.3-7.4c-0.8-8.7,3.6-16.2,6.4-23.8c1.4-3.8-2.8-7.6,1.4-10.5c3.3-2.4,3.1-6,3.8-9.8c1.1-6.7-2.6-5-6-4.8
				c-2.2,0.1-3.2,2.4-4.9,3.1c-3.2,1.2-6.8,6.5-9.8-0.7c-1-2.3-7.2,0.8-8.8,3.9c-3.6,6.9-5.8,14.3-7.6,21.8
				c-0.1,0.4-0.6,0.9-0.5,1.2c1.9,6.3-0.9,12.6-0.3,18.8c1.1,10-0.3,20.4,1.6,29.9c1.5,7.8,1.8,15.9,4.6,23.7
				c2.3,6.3,0.9,13.8,1.4,20.8c0.5,5.3-2.4,10.6,0.2,15.9c0.5,1,1,3.9-1.4,4.4c-2.7,0.6-2.6-1.9-2.9-3.4c-1.6-9.9-1.4-19.9-5.4-29.7
				c-2.1-5.1,0-12.2-1.1-18.4c-1.5-8.1-1.7-16.3-2.6-24.4c-0.9-7.9-0.3-15.7-0.9-23.5c-0.6-9,2.1-17.1,3-25.6
				c0.8-7.8,4.4-15.8,10-21.4c7-7,9.9-15,9.7-24c-0.1-6.7,2.6-12.5,3.4-18.9c0.9-7.3,6.1-13.6,6.1-21.3c0-5.1,2-9.9,0.1-15.3
				c-2.2-6.3-0.3-13.2-0.9-19.8c-0.4-4.9-3.9-11.2-9-11.2c-1.3,0-2.7,0-4,0c-2.4,0.1-3.9-1.4-4.4-3.3c-0.3-1.3,0.1-3.2,1.5-4.1
				c1.6-1,3.4-0.8,5.1,0c2,0.9,3.3,5.2,5.6,2.5c1.5-1.7,1.5-5.6,0.9-8.3c-2-8.2-1.5-16.2,1.3-24.1c0.7-1.9,1.6-3.7,3.5-4.7
				c5.1-2.6,8.2-5.8,7.3-12.5c-0.4-3.4,2.2-8.3,4.4-10.3c7.1-6.7,8.6-17.2,16.9-22.8c3-2,0.3-5.5,1.7-8.1c6-11.5,6.9-25.1,13.8-36.2
				c1.5-2.4,0.1-3.2-1.5-4c-0.7-0.4-1.8-0.8-2.6-0.6c-9.4,2.2-19.7,2.6-27.4,9.2c-7.8,6.7-11.4,15.5-11.3,26.2
				c0.1,8.6-2.5,17.2-0.8,25.9c0.4,1.9-1.7,2-2.8,1.7c-2-0.5-4-1.7-3.2-4.1c2.3-6.4,0.3-13.1,0.3-19.4c0-7.7,1.4-14.6,3.7-21.6
				c2.6-7.8,8.2-12.8,14.2-18c7.2-6.2,15.4-9,24.3-10.5c3.8-0.7,5-3.5,4.5-6.3c-2.1-10.6-2.4-21.3-3.1-32
				c-0.6-9.4-1.1-18.5,2.6-28.1c2.2-5.8,4.6-12.3,6.7-18.4c2.9-8.4,7.6-17.3,16.8-21.5c3.7-1.7,4.3-6,8.4-8c6-2.9,12.3-4.6,18.5-6.9
				c2.5-0.9,5.6-1.4,7.1-3.3c4.6-5.7,11.1-5.7,17-5.7c12.1,0,24.7-0.7,36.3,2c8.8,2.1,18.3,5.1,25.7,11.9c2.9,2.6,7.1,4.8,10.9,5.8
				c2.9,0.8,6.8-1.5,9.5-3.9c3.8-3.5,8.3-4.6,13.5-5.4c14.1-2.1,27.7-6.4,41-12.1c11.1-4.7,23.3-7.9,35.4-7.6
				c10.6,0.2,21.1,3.3,31.6,5.2c1.5,0.3,3.5,0.6,3.3,2.5c-0.2,2.1-2.4,1.6-3.8,1.6c-12.6,0-25.2,1.2-37.7,2.7
				c-8.7,1-16.1,6.6-25,7.5c-8.4,0.9-15.3,6.8-23.7,7.8c-2.2,0.3-3.3,2.1-4.8,3.2c-2.8,2.1-5.5,3.5-9.2,4.2
				c-6.9,1.4-13.2,5-17.7,10.9c-1.7,2.2-3.7,3.9-6.5,4.4c-2.8,0.4-5.3,1-5.9,4.2c-0.4,1.8-1.7,2-3,1.7c-2-0.4-1.8-2.2-2.2-3.7
				c-0.5-2.1,3.8-3.7,1-5.8c-3.1-2.3-6.1-4.8-10.4-5.6c-9.7-1.8-19-5.9-29.2-5.2C335.4,198.8,334.8,197.9,333.7,197z M214.5,460.9
				c-1.8-6.3-1.5-13-2.9-19.4c-0.6-2.4-2.9-2.9-5.4-2c-3.2,1.1-1.5,2.7-1,4.6c0.9,3.7,1.7,7.3,0.2,11.3c-1.4,3.7-3.3,9.8-1.6,11.6
				c7.4,7.7-0.7,5.4-3.5,6.2c-1.7,0.5-2,1.6-2.4,2.8c-0.6,1.5,0.7,2,1.7,2.1c6.3,0.5,2.5,4.3,2.6,7.1c0,1.6-2.3,0.7-1.8,3
				c2.1,10.2,2.5,20.4,2.6,30.9c0.1,11.1-4.6,19.1-10.6,27.2c-0.9,1.2-1.7,9-0.6,9.1c4.8,0.6,9.6,1.1,14.1,3.1
				c1.7,0.7,2.4-1.1,3.4-2.3c7.9-9.1,5.2-20.4,3.7-29.9c-1.6-9.9-0.1-17.7,5.5-24.8c6.2-7.9,2.4-15.7,1.1-23.4
				C218.5,472.2,216.2,466.6,214.5,460.9z M282.6,494.6c1.2-0.2,3.3,0.7,3.6-1.5c1.3-7.5,7.5-12.3,10.3-19c0.8-1.8,3.7-2.9,1.2-5.5
				c-2.3-2.3-3.7-5.9-7.9-4.6c-3,0.9-5.9,2-8.9,2.8c-7.6,2.1-9.6,9.1-12,15.1c-1.4,3.5,3.2,5.3,6.3,6.8c0.5,0.2,0.8,1.1,0.9,1.7
				C276.4,494.5,279.3,494.7,282.6,494.6z M248.6,531.4c0.8-2.6-0.8-4.3-2.7-5.3c-3.6-1.9-8-0.8-9.6,2c-4.3,7.2-11.3,13-11.7,22.4
				c-0.2,4.3,2.1,6.5,4.9,7.6c3.1,1.1,7.8-2.3,7.7-3.6c-0.6-5.4,3.8-7.2,6.2-9.6C247.5,541,247.8,536.3,248.6,531.4z M280.8,448.8
				c4.3,0,6.1-3.4,7.3-6.7c0.6-1.7-1.2-2.6-3-2.4c-4.2,0.4-5.4,3.7-6.4,6.9C278.3,447.9,278.6,449.3,280.8,448.8z M251.1,394.3
				c-2.2-0.9-3.9-1-5.6-0.4c-2.5,0.9-3.5,3.3-3.3,5.6c0.1,1.2,1.6,3.6,3.6,3.1c2.3-0.6,2.2-2.4,1.7-4.6
				C247,395.7,249.8,395.9,251.1,394.3z"/>
			<path d="M439.9,743.2c5.1,6.5,12.5,8.6,19,12.2c6.2,3.5,13.8,4.1,19.1,9.6c1.2,1.2,3.7,1.3,5.6,1.9c2.4,0.6,5.3,1.5,6.9-0.7
				c1.6-2.3-0.5-4.4-2.3-6.2c-1.1-1.2-2.9-2.7-1.4-4.6c1.5-1.8,3.3-0.1,4.9,0.2c2,0.3,3.2,1.5,3.7,3.4c2.4,8,8.5,9.5,16,9.9
				c7.8,0.4,14.9,3.1,21.2,8.3c7.3,6.1,16.4,3.8,24.9,3.6c1.5,0,2.9-0.9,4.6-0.3c0.2,3.9-1.7,5.8-5.5,6.7
				c-14.5,3.5-28.1,2.7-41.6-4.6c-9.1-4.9-18.9-5.7-28.2,1c-6.2,4.5-12.5,0.2-18.5-0.9c-5.2-0.9-10.3-2.2-15.5-2.8
				c-1.5-0.2-3.7,0.2-3.7-1.8c0-2.1,2.3-2.3,4-2.6c0.2,0,0.4,0,0.7,0c2.4-0.3,6.6,1.7,6.8-1.7c0.2-4.8-4.6-2.5-7.3-3
				c-4.3-0.8-8.7-1.3-13.1-1.8c-1.2-0.1-2.9-0.4-3.2,1.4c-0.2,1.2,1,1.8,2,2.4c1.4,0.8,4.2,0.2,3.5,3c-0.7,2.8-3.2,2.7-5.4,2.5
				c-10.3-0.9-20.7-1.9-31-2.9c-7.7-0.7-15.5-0.6-23-2.3c-12.3-2.8-25.5-4.4-35.1-17.4c15.2,3.5,26.5,14.7,41.7,11.9
				c-2-6.7-9.4-8.9-12.2-15.2c-3.3-7.4-11.8-12.3-10.3-22.1c0.3-1.9-2-2-3.4-2.5c-7.6-2.7-14.8-5.7-19.6-13.2
				c-1.8-2.9-6.6-3-9.9-1.7c-9.4,3.5-15.3,0.2-21.6-7.2c-4.5-5.3-11.4-8.7-13.7-16.1c-2.5-7.8-9.1-14.5-6.6-23.6
				c0.6-2.3-1.7-2.8-2.3-4.4c-0.9-2.7-2.1-4.2,0.8-6.8c3.2-2.9,0.5-7.7,1.3-11.6c0.7-3.6-0.6-7.4,1.1-11c0.6-1.3,0.9-2.7,2.6-2.5
				c2,0.3,2.2,1.8,2,3.5c-0.4,3.3-1,6.6,0.1,9.9c0.5,1.4,0.9,3.3,2.9,3c1.6-0.2,2.6-1.2,2.7-3.2c0.3-7,5.8-12.2,6.5-19.3
				c0.3-2.8,17.2-6.7,20.7-4.7c-11.7,6.3-15.5,16.8-16.6,28.9c-0.5,5.4-1.8,10.7-3.8,15.9c-1.1,2.9-3.6,7.8,0.6,10.1
				c3.6,1.9,8.5,2.1,12.2-0.2c7.5-4.6,15.7-6.4,24.3-6.2c10.8,0.1,21.5,2.4,32.4,1.4c3.2-0.3,5.9-1.7,9-2c1.4-0.1,3.2-0.5,4.1,1.3
				c0.7,1.5-0.7,2.3-1.4,3.4c-1,1.9-4.9,3.2-2.5,5.8c2.1,2.2,5.4,1.3,8.2,0.4c6-1.9,7.7-8.2,12.3-11.8c4.5-3.5,9.3-4.7,14.2-5.7
				c10.1-2.1,20.8-0.2,30.8-3.9c2.1-0.8,4.9-0.8,5.4,2.1c0.5,2.8-2.8,2.7-4.2,3c-7.5,1.5-15.1,2.5-22.7,3.6
				c-4.6,0.7-9.3,0.8-13.8,1.9c-6.4,1.6-10.5,6.4-11.4,12.6c-0.4,2.8-1.8,2.5-3,3.1c-7.6,3.8-10.2,10.7-11.5,18.3
				c-0.3,1.6-0.9,2.8-1.5,4.2c-3.3,6.9-3,13.5,2.5,19.2c0.6,0.6,2.1,0.9,3,0.7c7.6-1.3,12.8,2.1,17.4,7.9c2.6,3.4,6.4,3.4,8.5-0.8
				c2.6-5.3,7.4-9.7,6.8-16.5c-0.2-2.8,3.4-4.2,5-6.1c3.2-3.9,4.1-10.1,9.6-11.8c4.8-1.4,3.8-6.2,6.2-9c8.6-10.4,17.4-20.3,30.7-25
				c3.8-1.3,8-2.6,10.5-6.5c0.6-1,2.4-1.6,3.5-0.5c1.5,1.6,0,2.5-1,3.7c-4.3,5.5-10.5,7.8-16.7,9.9c-2,0.7-4.2,1.6-4.1,3.7
				c0.1,3,3,2,4.7,2c4.3,0,7.2,3.3,11,4.2c10.5,2.6,21,1.8,31.6,0.7c10.1-1.1,13.5-9.1,18.1-16c1-1.5-0.5-3.3-1.4-4.8
				c-4.9-7.7-3.4-15.8,4.4-20.7c4.7-3,9.2-6.3,14.9-7.7c5.7-1.4,6-3.7,2-8c-0.9-1-2-2.1-1.3-3.5c0.8-1.5,2.3-0.9,3.5-0.6
				c11.1,2.8,11.2,2.7,14.6-8.3c0.4-1.2,1.1-1.9,2.3-2.1c1.2-0.2,2.2,0.2,2.9,1.2c1,1.4,1.3,2.8-0.1,4.2c-4.1,3.9-1.2,4.9,2.3,5.8
				c9.3,2.4,17.5,7.3,25.5,12.3c1.8,1.2,3.6,2.3,5.4,1c2.1-1.5,1.1-3.7,0.6-5.8c-3.9-15.1-5.5-30.3-1.6-45.6c0.3-1.1,0.8-2.1,1.3-3
				c0.2-0.3,0.7-0.3,1.4-0.6c3.1,6.3-1.4,12.1-1.2,18.1c0,1.4-1,3.2,0.2,4.2c6.9,5.7,3.7,14,4.6,20.9c1.1,8.8,3.7,17.4,3.6,26.4
				c0,4.3,1,8.7,1.1,13c0,2.2,0,3.8,2.3,4.8c2.8,1.2,3.5-1.4,4.7-2.6c4.1-4.3,4.6-10.8,4.9-15.7c0.4-7.5,3.1-14.3,4.7-21.2
				c2.2-9.3-0.4-17.8-1.4-26.5c-0.4-3.8-4.6-2.4-7.3-3c-2.8-0.7-7.5,1.5-7.9-2.3c-0.5-4.1,3.5-6,7.7-6.6c3.1-0.4,6.4-6.7,5.7-10.7
				c-0.2-1.2-1.5-2.4-0.2-3.6c5.7-5.6,4.1-13.7,7.3-20.3c3.9-8.1,9.9-14.7,14.7-22.2c0.7-1.1,2.3-1.4,3.5-0.3c1.1,1,0.4,1.7-0.4,2.7
				c-9.6,12.3-16.1,25.9-16.7,41.8c-0.1,1.8,0.4,2.3,1.7,2.8c4.3,1.8,8.7,3.7,13.5,2.5c8.2-2,16.8-1,24.7-4c1.2-0.5,2.1-0.2,2.9,0.7
				c1,1.2,0.5,2.1,0.1,3.5c-1.9,6.3-7,8.6-12.6,8.7c-7.4,0.2-14.1,3-21.3,3.6c-6.6,0.5-6.9,4.1-8.5,10.5c-1.7,6.8,3.7,13.2-0.8,19.7
				c-1.4,2,3.3,5.3,0,8.4c-0.4,0.4,1.3,2.6,3.2,2.6c2.5,0,3.7-1.4,3.8-3.7c0.8-9.9,2.3-11.5,12.4-13.2c1.8-0.3,4.2-0.3,4.6-2
				c1.1-4.1,4.7-4,7.5-5c0.8-1.5-0.6-2.1-1-2.9c-0.9-1.6-4.1-2.3-2.8-4.6c1.2-2.1,3.9-1.8,6.1-1.5c5.7,0.7,9.2,3.7,8.3,9.7
				c-0.7,4.8,2.2,9,0.4,14.4c-2.4,7-7.4,9-12.9,11.3c-2,0.8-4.4,0.9-6.1,3.2c2.5,2.5,4.9,1.2,7.5,0.2c2.1-0.8,4.4-1.9,6.3,1.2
				c1.7,2.8,1.5,4.8-0.6,7.1c-1.4,1.6-2.6,3-3,5.5c-0.6,3.7-4,2.5-6.4,1.5c-2.5-1.1-4.1-0.7-5.4,1.9c-1.7,3.4,1.4,4,2.9,4.8
				c2.2,1,4.4,1.8,5.8,4c-7.4,3.4-11,8.7-10.4,16.5c0.5,6.4-1.9,12.9,0.3,19.2c4.3,12.1-6.5,16.8-11.3,24.5
				c-7.2,11.5-18.9,17.2-30.6,22c-6.5,2.7-14.3,3.2-21.6,0.8c-2.3-0.8-3.7-0.5-5.9,0.8c-4.3,2.4-9.1,4.4-12.5-1.8
				c-1.6-2.9-4.4-2.5-6.3-1c-3.4,2.6-7.6,3-9.1,9.5c-2.6,10.8-18.8,12-25.2,2.8c-1.3-1.9,0-2.4,1.3-3.6c5.9-5.6,5.4-7.8-2.3-10.7
				c-1.9-0.7-3.8-1.2-5.5-2.2c-4.1-2.3-6.9-1.5-10,2.4c-5,6.4-11.5,10.8-20.2,10.5c-2.4-0.1-4.7-0.7-5-3.4c-0.2-2.5,2.5-2.5,3.8-3.6
				c8.3-7.4,18.9-10.9,28-17c2.7-1.8,5.5-2.1,5.7,0.7c0.6,7.6,7.2,6.9,11.4,8.9c4.4,2.1,7.8-2.2,6.2-7.3c-1.5-5-1.4-9.9-0.6-14.9
				c0.2-1.2-0.6-2.9,1.2-3.3c1.8-0.4,2.3,1.2,2.5,2.4c1,5.8,4.6,11.2,2.4,17.4c-0.6,1.7,0.7,2.4,1.9,2.9c1.3,0.5,2.7,0.5,3.8-0.5
				c1.4-1.2,0.8-2.4-0.5-3.2c-2.5-1.5-0.8-1.9,0.1-3.6c2-3.8,1.9-8.5,0.9-12.6c-0.5-2.2,0.3-3.7,0.4-5.5c0.2-3.1,2.1-3.1,4.1-2.6
				c2.1,0.5,2.8,2,2,4.1c-1.1,2.8-3.1,5.7,0.8,8.1c0.7,0.4,0.9,1.8,0,2.3c-4.9,2.6-0.5,7.5-2.6,11.1c-1,1.8,3,4.1,5.8,3.8
				c2.9-0.4,6.3,0.5,7.9-4c2.5-7.1-2.4-12.9-1.9-19.4c0.3-4.4-1.3-8.8,0.9-13.1c1.3-2.5,3.5-3.1,4.2-0.7c1.3,4.1,4.8,7.4,3.9,12.4
				c-0.7,3.9-1,8.2,3.1,11.2c1.8,1.3,1.3,3.5,1,5.6c-0.5,4.1,1.7,6.2,5.6,6.6c7.3,0.8,13-3.1,14-10.4c1.4-9.5,4-19,1.4-28.6
				c-0.9-3.3,3.1-5.1,1.4-8.4c-0.4-0.7,2.2-1.9,3.8-1.1c1.2,0.5,2.5,1.2,1.9,2.9c-3.5,9.9-0.5,20.3-2.2,30.5
				c-1.2,7.1,3.8,9,11.2,6.9c11.5-3.3,16.7-11.5,19.1-22.3c2-8.9,1.9-10-2.9-16.3c-1.7-2.2-3.4-3.8-2-7c1.5-3.4,4.1-1.5,6.3-1.9
				c1.5-0.2,3.5,0.3,4.2-1.4c0.9-2.1-0.5-4.1-1.9-5.2c-5.6-4.5-8.8-9.3-5.3-16.9c1.5-3.2-4.8-7.5,0.8-10.7c-1.4-1.8-3-3.2-5.4-3.5
				c-2.9-0.4-4.6,1.4-4.5,3.7c0.3,7.5-6,12.4-7.1,19.4c-0.3,1.8-3.7,2.7-4.3,2.1c-3.8-3.5-7.7-1.9-11.8-1.4
				c-3.2,0.4-5.2-1.5-5.6-5.2c-0.8-6.5-4.3-12.6-5.3-18.8c-1.8-11.7-11.2-12.2-18.8-15.5c-8.8-3.8-17.4-2-25.4,2.3
				c-8.4,4.6-17.9,7.2-24.5,14.9c-1.6,1.8-3.8,2.8-2.2,6c1.7,3.2,3.9,3.2,6.6,2.2c1.9-0.7,3.6-1.6,5.5-2.3c3.9-1.4,6,0.7,5,4.1
				c-1.1,3.8,1,4.5,3.1,6.7c5,5,6.8,12.1,9.4,18.5c0.1,0.4-0.2,0.9-0.2,1.3c0.1,2.4,4.9,5.9-1,7c-4.3,0.8-4.8-1.8-4.3-5.8
				c0.1-1.1-2.4-6.3-6.5-5.8c-4.7,0.5-3,4.7-2.7,6.8c0.5,3.9-0.9,6.9-2.4,10.1c-0.9,2.1-2.9,1.8-4.6,1.3c-2.2-0.7-2.8-2.8-1.6-4.2
				c3.4-3.9,0.7-9.3,3.7-13.1c0.7-0.9,0.4-1.7-0.6-2.1c-2.2-0.8-4.2-1-6.2,0.8c-2.9,2.7-6.6,4.9-9.1,7.4c-5,5.2-11,5-16.9,6.1
				c-2.2,0.4-4.4,0.8-6.5,1.2c-2.4,0.4-2.8,1.3-1.8,3.6c3.3,7.7,8.2,14.3,13.4,20.7c1,1.3,3.5,2.1,1.5,4.1c-1.8,1.9-4.1,1.7-5.7-0.5
				c-3.7-5.1-8.5-9.8-10.6-15.5c-4.5-11.9-14.5-19.1-27.7-18c-1.5,0.1-3.1,0.4-4.6,0.4c-7.8-0.4-10.3,2.3-9.9,9.8
				c0.5,11.2,3.7,21.2,8.3,31.6c3.1,6.9,7.1,12,11.8,17.2c1.4,1.6,1.7,3.3,0.4,4.8c-1.5,1.7-3.5,0.8-4.7-0.5c-3.7-4-7-8.4-10.7-12.3
				c-3.5-3.7-6.1-7.9-7.9-12.6c-1-2.7-2.7-3.4-5.1-2.9c-2.7,0.6-2.2,2.8-2.1,4.8c0,3.6,1.7,8.3-4.9,7.8
				C448.2,740.2,443.7,741.1,439.9,743.2z M356.3,678.5c-10.9,1.3-21.4,1.6-31.5,4.4c-2.9,0.8-7.7,1.5-7.3,5.3
				c0.4,3.8,4.9,3.9,8.2,3.7c6.6-0.5,13.2-1.2,19.7-2c2.6-0.3,5.1-0.9,6-4.2c1.2-4.8,3-3,5-0.3c3.1,4.1,2,8.7,1.9,13.2
				c-0.2,5.5-0.5,11.1,6.3,13.3c2.4,0.8,3.5,3.1,5,5.1c2.6,3.5,7.1,4.3,9.8,1.5c2.5-2.7,4.9-7.6,4.2-10.9
				c-1.5-7.2,2.5-11.6,5.9-16.4c1.7-2.4,0.5-5.3,2.4-7.3c-5.1-0.2-9.2-4.6-13.7-4.5C370.6,679.5,363.2,680.4,356.3,678.5z
				 M393.6,757.4c-1.7-15.8-6.9-20.3-18.7-16.8C382.1,744.9,384.2,755.1,393.6,757.4z M416,742.5c5.6,1,9.2,7.1,16.7,5.6
				C427.1,744.6,423.2,739.4,416,742.5z M404.7,751.8c3,2.2,5.2,4,7.6,5.5c0.8,0.5,2.2,0.9,3-0.2c0.3-0.4,0.4-1.6,0.2-1.8
				C412.6,753.4,410.6,748.7,404.7,751.8z"/>
			<path d="M235,799.7c-1.6-6.2-6.9-9.8-10.6-14.5c-1.3-1.7-3.5-3.3-4.7-5.3c-7.1-11.3-15-22.4-20.9-34.3
				c-4.3-8.7-6.1-18.7-8.9-28.1c-0.5-1.8,0.3-3.3,1.8-3.8c2.4-0.7,1.9,1.2,2.3,2.8c1.4,5.7,7.4,8.7,8.8,14.7c0.8,3.2,1.7,7,6,8.2
				c1.1,0.3,3.2,1.7,1.6,4.1c-0.7,1-1,2.7,0.9,3.1c6.2,1.4,7.5,7.6,10.4,11.7c5,7.1,8.8,14.9,15,21.3c2.4,2.4,3.4,6.4,4.3,9.9
				c0.9,3.5,2.8,5.3,6,4.7c8.8-1.5,17.6,0,26.3,0.1c2.9,0,4.3-0.8,5.2-4.3c1.9-6.7,4.7-13.2,8.5-19.4c3-4.8,4.6-10.5,6.3-16
				c0.8-2.5-1.7-4.1-3.5-5.8c-6.9-6.3-13.9-12.6-19.1-20.6c-3.6-5.7-7.4-11.7-16.1-10.1c-4.8,0.9-5.3-3-5.8-6.7
				c-0.5-3.5-0.3-6.4,3.9-7c5.3-0.8,2.9-3.7,1.6-5.9c-5.2-8.3-9.1-17.2-11.3-26.8c-1-4.5-4.2-8-7-10.9c-5.5-5.7-8.6-12.3-10.6-19.4
				c-1.2-4.3-1.8-9.1-2.3-13.7c-0.5-3.8,0.4-7.7-2.3-11.3c-0.8-1.1-1.5-3.6,0.7-4.6c2.1-0.9,2.8,1,4,2.2c5,4.8,6.6,11.8,11.2,16.8
				c2.6,2.8,0.1,4.5-2.6,4.6c-4.3,0.2-4.1,2.5-3,5.4c2.3,6,5.9,10.5,13.2,9.6c4.3-0.5,6.8,1.3,7.8,5.4c0.3,1.3,0.6,2.6,1.9,3.3
				c4.7,2.7,3.1,9.1,7.2,12.3c2.1,1.6,0,2.9-1.6,3.9c-1.6,0.9-6-0.2-4.1,3.2c1.9,3.6-1.3,9.8,5.8,11c7.3,1.2,14.6,2.8,21,6.7
				c1.1,0.7,2.4,1.3,3.3,2.2c3.5,3.1,3.1,7.8-0.7,10.3c-0.7,0.5-1.3,1.1-2.1,1.6c-12.5,6.7-12.7,7.8-3.6,19
				c5.8,7.2,12.7,12.1,22.1,14.5c5.1,1.3,2.3,8.1,4.5,12c0.5,0.9-0.5,3.1,0.7,4.8c2.3,3.3-0.3,3.2-2.4,3c-5.7-0.8-13.3,3.8-13.4,9.7
				c-0.2,7.3-3.9,13.4-5.9,20c-1,3.3-0.8,5,1.8,7.2c4.8,4.1,10.3,6.7,15.6,9.8c7.6,4.5,16.3,5.8,24,10.4c7.6,4.5,15.5,1.3,22.8-3.5
				c10-6.7,19.6-13.6,31.3-18c8.3-3.1,15.6-5.1,24.5-3.8c8,1.2,16.4,0.1,24.6,0.4c5.3,0.2,8.5-4.3,13.6-4.9c3.6-0.4,6.6-1.4,9.5,2.1
				c2.7,3.3,7.4,2.9,11.2,3.4c11.9,1.8,22.2,8.2,33.8,11.2c13.1,3.5,26,3.4,38.7,0c5.2-1.4,8.7-7.1,14.3-8.5
				c8.4-2.1,14.3-9,22.4-11.7c3.9-1.3,1.9-3.7,0.4-5.7c-4.2-5.5-3.6-7.7,3.1-9.3c3.6-0.9,6.5-2.5,9.7-4.5c6.8-4.2,14.6-6.7,22.1-9.6
				c1.9-0.7,4.1-0.4,5,1.9c0.9,2.3,1.9,4.7-1,6.4c-0.9,0.5-2.2,1.1-1.8,2.4c0.5,1.4,2,1.9,3.3,1.7c7.6-1.1,15.5-1.1,22.8-3.6
				c2.7-0.9,3.8-2.1,1.4-5.2c-1.3-1.7-2.8-6.1,1.6-7.4c7.6-2.3,12.3-8.4,18.2-12.8c1.9-1.4,4-1.8,6-2.5c3.2-1.1,6.3-1.9,4.5-6.8
				c-1.3-3.7,2.3-6.3,3.8-9.4c2-4.3,6.2-8.6-0.4-12.6c2.7-2.4-1.5-5,0.2-7.1c2.8-3.7,3.1-8.4,5.1-12.5c2.2-4.4,3.8-4,5.8-1
				c2.4,3.6,5,6.6,4,12.4c-1.6,9.7-5.3,18.4-8.3,27.4c-0.4,1.3,0.1,3,0.4,4.5c0.3,1.4,1.5,2.9-0.2,4.2c-4.5,3.4-4.2,9.3-7.4,13.5
				c-2.5,3.3-3.5,7.6-8.7,7.8c-0.7,0-1.8,1-1.9,1.6c-1.4,6.5-7.1,7.1-12,8.8c-4.4,1.6-8.6,3.5-11.4,7.5c-1.5,2.2-3.6,3-6.1,3.6
				c-3.8,0.9-7.6,0.7-11.2-0.4c-13.2-3.8-21.3,2.2-27.1,13.8c6.7,1.8,13,4.7,20.3,4.3c-0.4,1.2-0.4,1.9-0.6,1.9
				c-12.4,2.2-20.8,12-32,16.7c-3.7,1.6-6.8,7-10.8,10.3c-13.5,11.2-29.1,15-45.5,11.3c-8-1.8-15.3-7.3-23.5-9.8
				c-7-2.2-14-3.8-21.3-4.3c-9.4-0.7-19-1.3-28-5c-0.4-0.2-0.9-0.5-1.2-0.4c-17.1,2.5-32-7.6-48.4-8.5c-14.1-0.8-29-2.3-41.4,7
				c-3.7,2.8-7,6.2-10.7,9.1c-5.6,4.3-11.6,6-18.7,4.5c-10.2-2.2-20.6-4.6-29.2-10.2c-5.7-3.7-10.8-7.9-17.4-10
				c-5.3-1.7-10.2-2-14.3,1.9c-5.3,5-11.5,4.9-17.8,4c-5.8-0.8-10.8-0.7-13.4,5.7c-2.1,5.2-7.6,6-11.5,9c-3.6,2.7-5.8-1.9-8.6-3
				c-1.4-0.6-2.2-2.5-1.4-4c1.4-2.9,4.3-3.2,6.9-2.4c5.5,1.6,7-3.2,9.2-6c1-1.2,1.3-5-2.3-6.3c-10.4-3.5-19.6-9.9-27.4-16.9
				c-6.8-6.1-17.1-9.5-19.4-20.3c-0.8-3.5-5.2-4.7-6.4-8.6c-4.3-13.8-10.9-27.1-6.5-42.2c0.5-1.6-0.1-4,2.7-3.7
				c2.8,0.2,2.1,2.8,2,4.1c-0.7,6.8,4.1,11.8,5.6,17.8c2.2,8.6,7.7,16.2,12.9,22.2c5.4,6.2,7.7,16.9,18.6,17.8
				c1.5,0.1,2.2,1.8,3,3.3c2.4,4.5,14.6,14,19.1,15.1c-2.6,1.3-2.2,3-0.6,4.7c4.6,5,19.5,7.6,26.5,4.1c-8.6,0.5-14.8-4.8-21.9-8.1
				C238,799.7,236.6,798.7,235,799.7z M582.4,810.7c-2.9-2-5-1.9-6.9-1.7c-10.4,1.4-19.6,6.8-28,12.1c-5.7,3.6-11.1,5.4-17.2,6.6
				c-1,0.2-2.4-0.2-2.6,1.3c-0.2,1.7,1.3,2.4,2.5,2.5c1.9,0.3,4,0.3,5.9,0c11.2-1.9,22.8-2,31.3-11.8
				C570.9,815.5,576.4,813.2,582.4,810.7z M429.2,808.7c6.6,2.1,14,2.2,20.4,0.7C441.4,807.5,437.1,807.2,429.2,808.7z"/>
			<path d="M495.6,220.6c-9.2-3.1-14.9,2.8-21,6c-5.8,3.1-12,6.1-15.3,12.9c-1.6,3.3-6.3,1.3-8.3,0c-3.5-2.3,1.2-3.2,2-4.7
				c2.5-4.7,7.5-7.3,11.2-11.1c5.1-5.4,2.1-8.7-0.2-12.9c-0.9-1.7-3.1-2.9-2.5-5.1c0.4-1.3,2-1.6,3.4-1.5c2.8,0.2,2.4,2.4,3.1,4.2
				c2.1,5.9,5.3,6.4,11.4,5.4c9.9-1.6,19.9-3.7,30.1-1.5c3.5,0.8,7,0.2,10.6,0c5.5-0.3,4.7-5.1,4.9-7.7c0.2-2.7-3.4-1.4-5.4-1.3
				c-11.6,0.5-22.9-1.5-34.1-3.7c-1.3-0.2-3.4-0.1-3.7-2.2c-0.3-2.1,1-3,2.7-4.1c7.5-5,16-4.9,24.4-4.4c3.8,0.2,7.5,0.4,11.3-0.1
				c4.7-0.5,8.3,1.3,10.6,5.8c1.4,2.7,4.2,4.3,2.7,8.6c-0.9,2.6,4,2.9,6.3,3.2c2.8,0.4,8.1,1.6,8.3-1.2c0.3-5.1,3.5-4.6,6.1-4.5
				c7.2,0.3,12.6-1.6,18.2-7c4-3.9,11.3-1.1,16.9,0.9c1.5,0.5,2.7,1.3,4.4,1.1c2-0.2,2.7-1.8,3-3.1c0.5-2.1-1.4-2.5-3-2.5
				c-4.4-0.3-8.9-0.7-13.3-0.6c-6.3,0.2-11.8-1.4-16.3-6.5c2.2-2.6,5.4-2.4,8.3-2.6c9.1-0.6,18.1-0.4,26.7,3.6
				c2.2,1,4.7,1.2,7.1,1.6c1.7,0.3,4.1,1,4.7-1c0.9-2.9-2-2.8-3.8-3.2c-3.9-0.9-5.4-4.9-8.9-6.8c-11.4-6.3-23.6-10.3-35.9-13.9
				c-1-0.3-2.7-0.2-3.1,0.3c-4.3,5.8-12.9,5.9-16.4,12.7c-1.6,3.1-4.2,2.9-6.6,0.9c-2.7-2.2-0.4-3.7,0.8-5.5
				c5.9-8.3,13.4-13.9,23.7-14.6c7.4-0.6,14.5,1.7,21.2,4.2c12.9,4.8,24.6,11.7,34.5,21.6c2.9,2.9,7.9,2.8,11.2-1
				c1.7-1.9,3.1-4.7,5.7-2.5c2.5,2.2-0.1,3.8-2,4.9c-1,0.6-1.7,1.4-1.2,2.7c0.5,1.2,1.8,1.2,2.8,1.3c3.8,0.1,7.5,0,11.3,0
				c3.6,0,7.2,1.1,7.3,5c0.1,3.7-3.7,2.9-6.2,3.1c-1.8,0.2-3.9,0.4-3.9,2.7c0,2.4,2.5,2.9,3.9,2.5c12.4-3.6,18.8,5,26,12.3
				c3.4,3.3,7.8,5.6,10.8,9.4c-0.5,0.6-0.9,1.2-1,1.1c-10.4-3.8-20.8-0.3-31.3-0.2c-1.7,0-3.9-0.1-5.1,0.8c-5.1,4-11.3,4.9-17.2,6.8
				c-3.2,1-6.2,1.3-4.7,7c1.2,4.3,0.5,11.2,3.1,13.1c5.5,3.9,11,9.2,18.4,9.5c6.1,0.3,10.2,5.1,15.9,6.3c2.1,0.5,3.7,4.4,1.6,7.3
				c-2.1,2.8-4.2,5.8-7.1,7.6c-3.9,2.5-7.4,4.4-8.4,9.8c-0.6,3.5-4.7,3.5-7.1,1.8c-3.1-2.1-6.3-3-9.8-3.4c-1.6-0.2-4-0.2-3.7-2.7
				c0.2-2,1.3-4.1,3.8-3.8c7.9,1,11.9-7.2,19.4-8c4.4-0.5,2.3-4.4-0.4-6.1c-6-3.8-12.6-5.2-19.7-4.6c-2.6,0.2-4.5,0.6-6.4-2.7
				c-2.4-4.3-15.9-3.4-16,0.5c-0.1,4.7-1.9,8.9-2.2,13.3c-0.4,4.7-3,5.4-6.9,3.8c-3.3-1.3-3.9-3.3-0.7-5c5.3-2.9,5.3-9.1,3.6-11.7
				c-2.7-4.3-4-12-12.8-10.2c-4.5,0.9-9.5,2.2-14.2,0.1c-0.5-0.2-1.7-0.2-1.9,0.1c-4.1,6.5-12.1,5.9-19.1,10.2
				c14.3,3.5,27.1,7,39.4,11.8c0,1.6-0.9,2.2-1.6,2.1c-10.1-1.2-20.4,0.6-30.5-1.5c-11.4-2.3-23.2-2.3-34.6-5.7
				c-4.4-1.3-10.7,1.8-15.7,3.5c-8.5,2.8-17.5,4.2-25.8,7.9c-3.9,1.7-6.6,5.8-11.4,5.9c-1.7,0-3.8,0.8-4.6-1.3
				c-0.6-1.7,0.3-3.3,1.8-4.6c2.1-1.8,5-2.7,6.4-5.3c-0.5-0.5-0.8-1.2-1-1.1c-9.1,1.4-17.9-2-26.9-1.3c-2.6,0.2-4.4,1.8-3.3,3.6
				c2.2,3.6,0.4,8,2.4,11.2c3.5,5.5,1.1,10.1-2.2,13.7c-2.9,3.2-5.8,6.4-8.5,9.9c-8.7,11-20.1,14.8-33.8,12.4
				c-6.1-1.1-13.8-1.5-16.3,4.2c-3.1,7.1-9.7,10.5-13.4,16.7c-2.6,4.5-6.9,8.4-14.6,4.9c4.1-1.5,5.6-3.8,7.3-6.6
				c2.6-4.2,6.8-7.3,10.5-10.7c1.5-1.4,2.7-2.8,3.3-4.8c3.2-9.3,10.5-15.5,17.5-21.7c2.6-2.3,5.7-4,7.4-7.2c1.9-3.6,5-5.7,8.1-8.2
				c7.8-6.3,15.3-13,22.3-20.2c3.2-3.3,6.4-5.9,10.7-7.3c6.1-2,12.3-4.1,16.6-9.3c2.2-2.7,5.4-1.1,8.1-1.8c7.1-1.8,14.2-4,21.4-4.8
				c14-1.5,27.5-1.1,37.7,11.2c4,4.8,16.2,2.5,19.4-3c1.8-3.1,4.9-2.4,7.4-3.2c8.9-2.9,18.3-2.8,27.5-3.8c5.5-0.6,9.6-5.1,15.3-4.5
				c-4.6-1-11.2-8.1-11.9-12.8c-1.5-10.1-10.1-16.7-21.4-15.4c3.8,3.9,5.6,8.2,7.5,12.6c2,4.5,0.6,7.9,0.3,11.9
				c-0.1,1.2-0.5,2.4-1.9,2.2c-1.6-0.2-2.6-1.5-2-2.8c2.8-6.3-2.1-10.9-3.7-16.1c-0.8-2.9-5.6-3.9-9-4.9c-9-2.6-17.7-0.1-25.8,3.4
				c-3.7,1.6-3,5.4,0,8c2.1,1.8,4.9,3.8,2.5,6.2c-2.9,3-5.1-0.4-6.8-2.6c-6.5-8.3-10.9-9.3-20.2-4.4c-8.1,4.2-16.9,6-26,6.5
				c-1.5,0.1-3.5,0.8-4-1.1c-0.5-1.8,1.4-2.6,2.8-3.1C484.8,227.7,490.1,224.9,495.6,220.6z M591.1,206.3c15.9,10.1,26,10,34,0
				C614,201.5,602.7,200.4,591.1,206.3z M415.4,315.3c6.3,0.1,11.2-5,13.2-13.4c0.4-1.7,1.8-4-1.1-5c-2.2-0.7-3.5,0.5-4.8,2.4
				c-2,2.7-3.4,6.4-7.9,6.2c-2.8-0.1-6.4-0.4-5.8,4.1C409.5,313.3,412.4,315.1,415.4,315.3z M614.2,240.3c-2.3,1.1-7.4,0.3-7.1,4.5
				c0.2,4.2,5.1,4,8.5,4.4c3.3,0.4,5.1-1.9,5-4.7C620.5,241.1,617.6,240.5,614.2,240.3z M618,219.3c-4.6-0.4-4.6-0.4-17.5,10.6
				C608.6,229.3,613.8,225.4,618,219.3z"/>
			<path d="M756.3,332.6c1.4,7.9,0.3,15.3-1,22.9c-1.1,5.8-3.9,11.8-4.1,16.7c-0.3,11.4-1.2,23.2,2.7,34.6
				c2.1,6.1,3.8,12.3,6.9,18.2c1.3,2.5-1.8,5.4-0.9,8.7c2.6,8.6,4.5,17.3,7.2,25.9c2,6.6-0.4,13.1,0.3,19.6c0.1,0.7-1.6,1.5-0.3,2.7
				c3.5,3.3,2,5.5-1.5,7.6c-2.3,1.4-3.3,3.5-2,6.2c0.9,1.9,2.9,2.1,4.6,2c2-0.1,1.5-1.8,1.2-3.1c-0.5-2.3,0.4-2.8,2.5-2.3
				c2.2,0.5,1.4,1.5,0.9,2.8c-3.5,9.8-5.7,19.9-11.6,29.1c-3.4,5.3-10.3,8.3-10.7,15.6c0,0.9-2.2,2-3.6,2.5
				c-6.3,2.3-9.3,7.4-11.3,13.2c-0.5,1.3-1.1,1.9-2.3,1.7c-1.3-0.2-2.1-1.2-1.7-2.3c0.7-1.8-0.3-3.8,1.1-5.7c2.9-3.6,5.3-7.6,6-12.4
				c0.1-0.6,0.5-1.3,1-1.7c9.9-7.1,7.6-18.8,9.1-28.2c1.1-6.7,2.7-14.2,2.2-21.6c-0.3-4.2-4.1-7.3-2.1-12.2
				c4.1-10.6,0.4-20.6-4.7-30c-1-1.8-3-3.3,0.4-4.4c1.9-0.6,1.4-1.8,1.1-3.1c-0.6-2.5-1.7-5,1.3-7.1c1.5-1.1,0.1-2.9-0.5-4.2
				c-0.5-1.2-2-2.4-1.8-3.4c1.9-7.9-2.3-15.6-1.1-23.3c1-5.8,2.5-11.7,1-17.3c-1-3.5-0.4-8.1-4.3-10.6c-1.2-0.8-1.5-1.6-1.1-3.3
				c0.7-3.5-3.8-7.4-7.1-6.3c-2,0.7-3.6,2.1-1.8,4.5c1.1,1.4,1.1,4.1,1.4,4.4c4.3,6.2-0.2,12.5,0.7,18.6c0.6,4.3,3.3,8.2,0.6,12.8
				c-1,1.8-2.4,3.9-3.8,3.9c-2.2,0-4.1-2.1-4-4.5c0.5-9.4-4.2-16.4-10.2-22.8c-1.3-1.4-0.4-2.7-0.3-4.2c0.3-3.2,0.8-6.4-2.4-9.4
				c-3.4-3.3-3.9-9.1-7.9-12.2c-6.1-4.7-7.1-13.2-13.7-17.6c-1.6-1.1-2.5-3.4-0.6-5.2c2.4-2.3,3.3,0.3,4.6,1.7
				c1.8,1.9,4,3.6,5.7,5.6c6.4,7.8,7.7,7.9,17.2,3.4c2.5-1.2,3.3-1.2,0.9-3.3c-1.2-1.1-1-2.9-0.6-4.9c2.9-13.2-0.2-25.5-9.3-34.9
				c-7.7-8-18.3-11.9-29.5-13.3c-2-0.3-3.7,0-2.4,2.9c0.6,1.3,0.6,3,0.8,4.5c0.2,1.4,0,2.7-1.6,3.2c-1.9,0.5-2.9-0.3-3.4-2.1
				c-1.4-4.8-2.9-9.5-4.3-14.2c-0.3-1.2-0.9-1.9-1.9-2.5c-2.8-1.5-2.6-3.1-0.3-5c2.4-2,3.2-5.1,5.4-7.3c3.3-3.2,0.6-9.2-3.8-10.4
				c-3.3-0.9-8.6,0.7-9.6-2.6c-1-3.3,3.2-6.3,6.2-8.4c2.2-1.5,1.3-5.9,4.4-5.7c3.9,0.3,8.1,1,11.5,2.9c6.1,3.5,12.8,4.8,19.4,6.5
				c2.9,0.8,6.9,2.6,8.2-3.4c0.6-2.8,3.6-2.6,5.2,0.2c1.2,2,1.8,4.3,2.9,6.4c0.8,1.6,2.3,2.4,3.9,1.6c2.8-1.5,0.2-2-0.6-3
				c-0.7-0.8-0.4-1.7,0.4-2.3c1.5-1.4,3.7-1.6,5-0.6c4.4,3.6,9,5.4,14.9,5.5c5.2,0.1,6.5,6.2,7.5,9.9c0.9,3.3,2.6,4.1,4.7,5.2
				c11.1,5.9,14.6,14.1,12.2,26.5c-0.5,2.8-2.2,6.2,0.1,9.3c1.3,1.7,1,3.2-1,4.3c-1.3,0.7-1.2,3.2-3.3,2.7c-2.1-0.6-1.3-2.6-1.3-4
				c-0.3-6-3.5-10.4-7.4-14.7c-1.9-2.1-2.7-5.2-4.1-7.7c-1.8-3.5-4.4-5.8-8.4-3.8c-5.2,2.6,1.4,4.8,0.5,7.6
				c-0.5,1.7,1.7,2.3,2.7,3.4c1.3,1.5,4.6,1.8,2.9,4.9c-1.4,2.7-3.4,0.7-5.2,0.4c-1.6-0.3-15.4,14.3-14.8,15.8
				c3,7.4,4.2,15.4,6.8,22.9c1,2.8,0.5,7.4-0.2,11.1c-0.7,3.6,1.2,4.8,4,5.7c5.7,1.7,10.6-0.9,14.3-6.1
				C751.5,339.1,754.8,336.6,756.3,332.6z M722.1,292c3.2-0.5,9.1,1.6,5.7-5.8c-0.2-0.5,0.5-1.7,1-2.2c3-2.8,1-5.5,0.1-8.4
				c-0.9-2.8-3.6-4.3-4.4-7.3c-1.5-5.2-7.9-8-12.6-5.7c-3.5,1.8-6.8,4.7-4.1-2.7c0.5-1.3-1.5-1.9-2.3-2.8c-4.7-5.3-11.6-3-17.3-5.1
				c-3.2-1.2-6.8-1.6-9.5,0.9c-3.3,3.1-2.2,8.1-2.1,11.6c0.2,5.8,19.6,11.6,24.5,8c1.1-0.8,2.2-1.5,2.4-3c0.4-2.7,1.8-5.3,4.6-3.9
				c2.9,1.4-0.2,3.7-0.3,5.7c-0.1,1.8-1.4,2.7-2.5,3.7c-2,1.7-2.3,4.4-1,6C708.7,286.9,713.2,293.1,722.1,292z M754.1,519.1
				c4.3-2,6.4-6.4,9.6-9.6c1.3-1.4,2-4-0.4-5.1c-1.8-0.8-4.5-1.3-5.9,1.1c-1.7,2.7-3,5.6-5.4,8C750.6,515,750.2,518.3,754.1,519.1z"
				/>
			<path d="M820.3,306.7c-0.2,4.4,3.7,7.9,2.9,12.5c-1,5.2,0.6,10.9-2.8,15.8c5.3,3.6-0.6,7.5,0.2,11.3c0.5,2.5-1.2,4.3-4,4
				c-3.3-0.3-1.6-2.5-1.6-4.4c0.2-10.2-1.5-19.6-5.7-29.5c-4.4-10.5-11-20.7-11.4-33c-0.1-2.9-2.5-6.1-4.5-8.6
				c-4.7-5.6-8.8-11.5-15.6-15.2c-3.8-2.1-6.8-6.4-9.8-9.7c-6.3-6.9-15.2-8.6-22.1-13.8c-6.2-4.7-14.2-6.6-19.6-12.5
				c-2.1-2.3-5.3-2.1-7.9-3.4c-13.4-6.7-26.1-14.8-40.3-20.1c-1.1-0.4-2.3-0.8-2.3-2.1c-0.2-4.2-2-6.5-6.4-7.7c-3-0.8-3.4-4.1-0.1-6
				c2.3-1.3,5.4-2.3,6.2-4.7c1.5-4.8,1.9-9.5,9.1-7.2c4.2,1.4,8.7-1.5,13.2,2.1c8.5,6.8,19.2,11.3,26.4,19.1
				c3.6,3.9,8.5,7.3,11.4,12.3c2.3,4.1,6.6,6.6,11,9c5.6,3,13.3,4.3,15.1,12.2c0.3,1.3,1.3,1.7,2.3,2.1c8.9,3.5,14.7,11.5,22.7,16.3
				c3.9,2.4,7.5,5.3,8.5,10.3c0.2,0.8,0.4,2.2,0.9,2.4c10.8,3.6,10.1,15.3,15.3,22.8C816.4,288.3,821.5,296.9,820.3,306.7z
				 M727.5,202.4c-3,0.7-4.9-0.5-7.1-2.3c-5.6-4.4-10.6-9.3-16.6-13.4c-8.3-5.7-15.6-1.8-23.2-1.2c-3,0.3-4.3,2.2-0.7,5.8
				c10,10,23,9.2,35.2,11.6C718.9,203.7,723.2,205,727.5,202.4z"/>
			<path d="M727.7,681.4c-1.9-5,0.1-7.1,1.5-9.5c0.7-1.1,1-2.5,1.8-3.5c1.8-2.1,0.5-5.1-0.7-4.9c-7.5,1.3-0.9-19-14-8.9
				c-2.8,2.2,0.1,4.9-2.9,6.9c-5.1,3.4,1.3,4.1,2.2,6.3c1.8,4.2,0.2,8.6-2,11.8c-5,7.4-5.8,7.9-8.8,18.4c-0.5,1.9-2.2,1.9-3.7,2.2
				c-1.7,0.4-2.7-0.6-2.9-2c-1.1-9.2-7.5-16.7-8.5-26c-1-8.7-0.5-17.2,5.9-23.8c1.8-1.8,2.4-3.5,2.6-5.6c0.3-3.6,0.9-6.7,3.8-9.8
				c3.3-3.5,0.6-9.7,3.5-13.9c3.3-4.7-0.9-8.6-1-12.8c-0.2-8-0.3-16,0-24c0.1-2.6-2.3-4.9-0.7-7.7c0.8-1.3,0.7-3.1,2.6-3.4
				c1.8-0.3,2.8,0.9,3.7,2.3c0.7,1.2-0.1,3.8,2.2,3.3c1.8-0.4,3.3-2,3.7-4.2c0.5-2.8,1.8-4.2,4.8-3.2c2.9,1,2.9,2.9,1.9,5.3
				c-2.3,5.3-2.7,11.2-5.9,16.2c-0.3,0.5-1.2,1.4-1.1,1.5c6.8,7.7-2.5,16.2,1.2,24.3c0.9,2,1,4.8,3.2,5.6c4.1,1.5,4.2-3.7,6.8-4.9
				c3.6-1.6,0.1-2.9-0.4-3.9c-2.1-4,1.2-6.9,2.4-9.5c2.8-5.9,1.8-12.7,5.2-18.2c0.4-0.6-0.4-2,0-2.5c7.4-7.5,7.2-19.6,16.1-26.3
				c1.7-1.2,1.8-4.4,3-6.4c1.1-1.8,3.3-2.1,4.6-0.7c1.4,1.4-0.8,1.9-1.5,2.8c-3.6,5-4,11.1-5,16.9c-1.4,8.7-4.4,17.2-3.5,26.1
				c0.6,5.5-4.6,7.6-6.4,11.9c-1.3,3.2-1.1,5.7-1.7,8.5c-1.4,6.9,3.5,16-6,20.7c-2.2,1.1-4.1,14.4-2.9,16.4c1.3,2.2,3.6,2.3,5.8,2.7
				c3.5,0.7,5.4,3.7,3.6,6.3C736.3,668.1,731.8,673.8,727.7,681.4z M701.6,650.4c-0.9,0.4-3.4,0-3.1,2.5c0.2,2.3,2.4,3.1,4.4,3.1
				c1.6,0,3-1.1,3-2.9C705.9,650.9,704.4,650.2,701.6,650.4z"/>
			<path d="M270.3,630.1c-4.7-1-10.5,1.4-12.2-5.5c-0.4-1.4-0.9-2.4,0.2-3.6c0.4-0.4,8.4-21.3,8.5-21.8c1.2-5.7-4.6-7.8-6.5-12
				c-1-2.4-1.7-4.8-2.6-7.2c-0.7-1.7-1.2-3.7,1.5-4.1c2-0.4,3.4,0.6,3.6,2.9c0.1,1.3,0.5,2.6,0.8,3.9c0.4,1.4,1.5,2.2,3,2.1
				c1.8-0.1,1.5-1.4,1.8-2.8c1.9-8.1,4.2-9.8,12.7-9.9c7.3-0.1,12.4-7.5,9.2-13.9c-1.7-3.4,3.6-6.5-0.3-9.5c4.6-6.6-1.2-5.7-4.6-6.6
				c-0.8-0.2-1.6-0.7-4.1-1.8c7.2-1.5,9.7-6.9,14.5-9.6c7.6-4.3,11.2-12.7,17.4-18.6c9.9-9.5,27.7-11.1,38.5-2.8
				c1.3,1,3,2.5,1.8,4.3c-1.3,1.9-3.5,1.7-5.4,0.6c-7.6-4.3-15.6-3.7-23.9-2.2c-4.2,0.8-6.9,3.1-9.5,5.6c-6.3,6-12.2,12.5-18,18.9
				c-1.2,1.3-3,3.4-1.9,5.3c1.3,2.3,4,1.3,6.1,0.9c8.6-1.4,15.1-6.9,22-11.7c3.6-2.5,7-5.3,10.6-7.7c1.2-0.8,3.3-1.4,4.2,0.1
				c1,1.5-0.4,2.7-1.7,3.8c-10.2,8.7-20.4,17.5-33.2,22.1c-4,1.4-3.1,4.9-4.5,7.2c-1.2,2,2.5,2.9,4.4,3.7c5.2,2.2,3.5,6.8,2.9,10.2
				c-0.2,1.3-0.4,3.2-0.9,4.3c-4.7,9.5-1.3,20-4.3,29.7c-0.7,2.1-1.4,4.1-4,3.4c-2.4-0.6-2.7-3-2.2-4.9c0.8-3.2,2.9-6.1,2.6-9.4
				c-0.1-1.6,1.2-3.8-1-4.8c-2-0.9-4.4-0.7-5.5,1.2c-4.7,8-11.9,14-15,23.4c-3.3,9.9-1.7,19.4-0.7,28.8c0.6,5.1,3.3,10.4,3.7,15.9
				c0.1,1.7,2.1,4.8-2,4.9c-2.9,0.1-2.5-2.2-3-4.2c-1.5-6.2-4-12.2-5.1-18.4C267.9,637.1,269.5,633.7,270.3,630.1z"/>
			<path d="M376.1,378.5c11.6,1.3,19.4-3.7,25.2-11.4c3.5-4.7,7.8-9.6,6.8-16.6c-0.1-1,2.1-2.7,3.5-3.6c1.3-0.7,2.5-1.2,1.8-2.8
				c-2.4-5.1,3-6.2,4.7-9.2c1.5-2.6,3.8-1.5,5.6-0.1c2.1,1.7,2,3.3-0.6,4.4c-3.5,1.6-0.2,4.8-1.7,6.9c-5.4,7.4-7.8,16.6-14.2,23.5
				c-2.9,3.1-3.2,7.9-7.4,10.6c-1.7,1.1-2.7,2.9-5.2,3.1c-1.7,0.1-4.2,0.7-3.1,3.8c0.5,1.3-0.7,2.1-1.8,2.3c-10,2.1-18.4,9.7-29,9.1
				c-7-0.4-5.8,5.7-7.7,8.9c-1.8,3,2.5,3.9,4.5,5.3c5.7,3.9,11.5,8.3,14.9,14c3,5.1,6.9,6.6,11.8,7.9c1.3,0.4,4.1,0.5,3.5,2.9
				c-0.5,2.4-2.9,3-4.9,2.2c-5.9-2.4-13.7-0.5-16.5-9.6c-1.4-4.4-7.6-3.9-12-3.4c-3,0.4-6.2,1.2-5.1,5.8c0.3,1.4-1.5,2.4-2.6,2.6
				c-6.5,1-6.6,6.5-8.1,11c-0.8,2.4-1.7,5.3-4.7,4.2c-3.9-1.4-0.2-3.4,0.3-5.1c1-3.4,3.7-6.3,2.1-10.3c-0.5-1.2-0.6-2.7,0.6-3.7
				c6-5.5,3.8-14.5,8.9-20.5c1.5-1.8,2-4.9,2.2-7.4c0.8-11,7.2-19.4,12-28.7c2.1-4,5.5-7.4,6.5-12.3c1.3-6.6,7.5-2.9,11-3.3
				c3.1-0.3,5.8,3.6,2.9,7.5C377.6,370.2,381,375.1,376.1,378.5z"/>
			<path d="M809.1,414.9c-3.1-5.5-0.7-11.5-5-15.5c-6.6-6.2-8.2-13.1-2.8-21c0.4-0.6-0.6-2.2-0.4-3.1c1.1-3.8-0.7-9.6,7.1-8.9
				c4.9,0.4,7.4-3.3,6.1-8.4c-0.3-1.2-1.7-2.6,0.6-2.9c2.4-0.3,1.8,1.6,2,3.1c1.6,10.2,1.3,20.5,3.5,30.7c1.2,5.8,5.5,9,8.3,13
				c3,4.2,6.9,7.2,4.8,13c-0.6,1.6,0.9,0.8,1.3,1.1c5.2,2.7,6.5,7.6,5.4,12.4c-1.9,8.3,0,16.8-1.7,24.9c-1.1,5.3,1.2,11.2-3,16.3
				c-0.7,0.9,1.9,6.2,0.3,9.6c-0.8,1.7-0.4,4.8-2.8,4.6c-2.6-0.2-2.9-3.6-2.7-5.3c0.8-7-2.5-7.2-7.8-5.7c-2,0.6-3.9,0.5-3-3
				c1.1-4.5,1.4-9.1,0.2-14c-0.7-2.9,1.1-6.9,2.6-9.9c1.5-2.8,1-5-0.1-7.5c-2.2-5.3-2.8-10.2-0.7-16.2c1.2-3.3-1-8.4-1.6-12.8
				c-0.1-0.8-0.9-3.6-3.1-3.7c-2.2-0.1-2.6,2-3.6,3.5C812.2,411,810.8,412.6,809.1,414.9z"/>
			<path d="M366.1,229.5c-5,0-8.7-3.2-12.9-5c-4.4-1.9-6.4-5.1-12.4,1.1c-8.1,8.3-18.4,15.5-28.9,21.5c-1.9,1.1-3.2,2.5-4.7,4.2
				c-5.6,6.1-8.3,14.5-15.9,19.2c-3.5,2.1-5.5,7.7-5.7,10.9c-0.3,5.7-4.2,10.2-3.3,16.2c0.4,2.7-3.3,6-6.8,5.2c-3-0.7-3.6-3-0.8-5.9
				c1.7-1.8-1.4-2.6-2.9-3.1c-2.5-0.8-3.4-2.4-2-4.5c3.4-5.2,5-11.7,9.8-15.9c6-5.3,8.9-12.2,10.9-19.6c0.6-2.2,1.8-3.5,3.9-4.8
				c5.4-3.6,10.4-7.7,15.5-11.8c1.2-1,3.4-2.3,1.9-4.3c-1.3-1.7-3.3-0.5-4.9,0.1c-3.1,1.1-4.9,3.8-6,6.6c-0.7,1.8-1.1,3.3-3.3,3.3
				c-1.5,0-3.1,1.5-4.4,0.1c-1.5-1.6,0.5-2.7,1-4c2.5-6.3,7.2-10.2,13.7-11.9c1.6-0.4,2.7-1.2,3.9-2.3c8-7.1,17.7-9.4,28.1-9.1
				c0.9,0,1.9,0.3,2.6,0c12.4-6.2,21.5,4.4,32.3,6.3c1.2,0.2,2,1.1,2,2.3c0.1,1.7-0.6,3.3-2.2,3.7
				C371.8,228.6,368.9,228.9,366.1,229.5z"/>
			<path d="M525.6,317.9c5.6,0.2,9.7,5.4,14.8,4.5c13-2.3,21.6,6.9,32.2,11c1.5,0.6,4.3,1.5,2.9,4.3c-1.4,2.9-3.6,1.8-5.6,0.6
				c-3.4-2-6.6-4.3-10.2-6c-7.8-3.8-13.1-0.6-13.5,8c-0.4,7.1-6,12.8-5.6,20.2c0.1,1.1-1.5,2.2-3.1,1.6c-1.2-0.5-1.6-1.6-1.3-2.8
				c1.6-5.4,3.1-10.8,5.2-16c1.1-2.7,1.4-5.2,1.8-8c1.2-7.9-4.6-9-9.2-9.8c-12.7-2-23.6-7.9-34.4-14.2c-5.1-3-10.1-4.2-15.6-2.1
				c-0.8,0.3-2.2,0.4-2.4,0.9c-2.7,8.6-11.1,10.1-17.6,13.3c-5.7,2.7-6.1,7.3-5.3,11.6c0.5,2.6-0.2,3.6-1.5,4.9
				c-1.2,1.1-2.7,1.5-4.2,0.3c-1.9-1.5-2.6-2.8-0.2-4.7c1.1-0.9,0.1-1.8-0.9-2.5c-2-1.3-3.6-3.2-6.1-3.7c-2.5-0.5-5.1-1.4-5.3-4.2
				c-0.2-2.9,2.8-4.7,4.6-5.3c4.2-1.5,5.6-4.2,6.8-8c1.3-4.1,8.8-6,11.7-3c2.9,2.9,4.8,0.4,7-0.5c2.4-0.9,3.1-2.4,1.4-4.5
				c-1.3-1.6-0.5-2.6,0.9-2.9c5-0.8,8.1-5.3,12.9-6.3c3.3-0.7,7.6-3.9,7.4,3.4c0,0.7,1.8,2,3,2.2c6.4,1.5,11.7,6.1,18.6,6.2
				c5.1,0.1,9.1,4.5,14.4,4.5c1.2,0,1.9,0.9,1.8,2.3C530.6,316.4,527.5,316.2,525.6,317.9z"/>
			<path d="M569.4,289.2c13.3-1.3,26.3,1.7,38.5,5.8c7.2,2.5,13.6,7.4,21.6,8.4c2.4,0.3,4.8,1.1,7.2,0.6c9.7-2,18.1,2.1,26.3,6.2
				c3.6,1.8,4.9,6.2,6.2,9.6c2.2,5.5,5.3,10.4,7.7,15.7c0.5,1.1,2,2.2,0.2,3.2c-1.2,0.6-2.8,0.1-3.2-1.5
				c-2.2-7.5-9.5-11.2-14.3-16.2c-4.1-4.3-10.8-9.1-18.3-9.4c-12.7-0.5-25.5-2.2-38.1,1c-2.1,0.5-4.4,0.3-6.5,0.1
				c-1.7-0.2-4.1-0.3-4.3-2.3c-0.2-1.8,1.7-2.8,3.4-3.4c1.2-0.3,3.1,0,2.8-1.9c-0.3-2.2-2.2-2.3-4.1-2.5c-8.1-0.7-16.3-1.4-24.4-2.2
				c-2.4-0.2-4.3-0.3-5.1-3.8c-0.8-3.3-5-2.8-8-3.1c-1.5-0.2-3.6,0.1-3.6-2c-0.1-2.7,2.4-2.2,3.9-2.2
				C561.4,289.1,565.4,289.2,569.4,289.2z"/>
			<path d="M783.7,538.1c-0.4-5-4.7-4.4-7.9-4.8c-5.2-0.6-4.2,0-3.1-4.5c1.9-7.8,8.1-13.4,9.8-21.1c0.4-2,1.5-3.2,3.7-2.7
				c2.4,0.6,2,2.4,1.9,4.2c-0.1,1.4-0.7,2.3-1.8,3.3c-3.4,3-5,6.6-4.5,11.4c0.5,5,3.1,7.3,7.8,5.1c1.8-0.9,3.5-2.1,5.5-1.9
				c2.4,0.2,5.7,0.7,2.3,4.1c-1.1,1.1-1.6,2.4-1.4,3.5c1.2,6.9-1.8,11.7-7.1,15.7c-3.8,2.9-1.4,6.9-0.1,9.7
				c3.4,7.2,2.2,14.2,0.7,21.4c-0.5,2.5-1.7,5.1,0.4,8c1.7,2.3-2.1,4.4-2.4,7.6c-1,10.2-4,20.2-9.6,29.1c-1.3,2.1-2.5,5.1-5.3,3.5
				c-2.3-1.3-1.2-3.9,0-5.9c0.3-0.6,1.2-1.2,1.1-1.6c-2.5-9.1,1.5-17.7,2.8-26.4c1-7.1-0.6-14.6,3.2-21.8c2.2-4.1-0.9-10.1,1-15.2
				C783.1,552.3,781.3,545,783.7,538.1z"/>
			<path d="M659.3,827.7c-3.7-2.8-5.8-3.3-7.9-1.9c-5.5,3.4-11.7,2.2-17.5,2.1c-5-0.1-10.4-0.7-10.9-7.9c-0.1-1.5-1.8-2.8-3.1-4.7
				c5.9-2.7,11.6-5.4,16.9-9.3c4.6-3.4,12.2-2.9,18.6-3.6c3.1-0.4,6.1-0.6,8.8-2.4c1.3-0.9,3.2-2.2,4.8-0.4c1.8,1.9-1.3,2.3-1.4,3.8
				c-0.1,0.9-0.1,2-0.6,2.5c-2.6,2.3-4.6,5.1-0.7,7.2c3.2,1.7,7-0.4,8.4-3.5c1.7-3.8,5.1-6,7.2-9.3c0.9-1.4,2.5-2.2,4-1.4
				c2.6,1.3,0,2.5-0.4,3.7c-1.7,6.4-7.1,10.7-10,16c-4.9,9-15.3,11.8-19.8,20.8c-1.8,3.7-6.8,4.5-10.6,6.1c-1.8,0.8-3.1-0.5-3.5-2.1
				c-0.4-1.5-0.2-3.8,1.2-4C650.2,838,651,828.9,659.3,827.7z M632.4,812.8c8.4,5.4,14.5,3.2,21.2-2.4
				C646,809.6,639.8,810.7,632.4,812.8z"/>
			<path d="M704.8,497.8c2.9-0.2,4.6,1.1,6.2,2.9c0.6,0.6,1.1,1.3,1.7,1.9c3.6,3.4,12.1,3.2,8.5,11.7c1.8,0.7,3.7,1.4,5.5,2
				c0.5-2.7,1.5-5.3,0.3-8.2c-2.7-6.6-7.4-11.8-11.8-17.2c-4.3-5.2-3.6-6.8,2.2-10.5c3-1.9,5-5.2,8.4-6.9c1.6-0.8,1-2.9,0.1-4.2
				c-2.4-3.4-0.8-7.4-1.3-11c-0.5-3.7,3.6-2.9,6-2.8c1.4,0.1,3.2-0.7,2.9,3.1c-0.4,6,2.5,12,2.1,18.3c-0.4,6.3-1.3,13-0.8,18.7
				c0.6,7.1-0.7,13.5-2.6,19.5c-2.2,6.7-0.4,15.1-7.6,19.9c-1.5,1-0.6,2.3,0,3.5c1,2.3,0,3.3-2.3,3.3c-2.2,0-3.4-0.7-2.9-3.2
				c0.2-0.9,0.1-1.8,0.4-2.6c3.8-10.5-2.3-17.6-8.3-24.7C707.9,507.7,705.1,503.5,704.8,497.8z"/>
			<path d="M270.8,232.3c-5.1-0.7-7.5,0.4-9.4,4c-1.6,2.9-4.8,5-7.5,7.3c-1.2,1-3.1,1-4.4,0c-1.7-1.3-0.8-2.7,0.2-4
				c8.7-11.1,17-22.2,29-30.6c8.1-5.7,16.6-7,25.5-8.8c1.6-0.3,3.9-1,4.9,0.8c1.2,2.1-1.5,2.8-2.4,4.2c-2.3,3.5-6.1,4.8-9.4,6.8
				c-6.7,4.1-13.8,8.1-17.8,15.2C277,231.4,274,232.9,270.8,232.3z"/>
			<path d="M743.2,724.4c-2.5-0.3-2.3-2.2-1.7-3.4c4.2-8.6,8.7-17.2,17.8-21.6c2.9-1.4,1.7-4.8,4.3-6.2c2.7-1.5,1.7-6.6,6.2-6.5
				c-4.1-4.2,2.1-8.7-0.6-13c-4.3-7,1.1-14.3-0.4-21.4c-0.2-0.9,0.7-1.7,1.7-1.6c1.6,0.1,2.2,1.4,2.4,2.7c0.8,3.8,1.3,7.6,2.1,11.4
				c1.2,5.7,2.7,11.3,2.7,17.3c0,7.5-3.4,12.9-7.3,19.1c-6,9.6-18.3,11.1-23.5,20.8C746.4,723.1,744.5,723.6,743.2,724.4z"/>
			<path d="M572.7,317c7.3,4.9,14.4,7.3,21.7,8.5c12.1,2,24.2,4.5,36.4,5.2c15.9,0.9,27.9,8.2,38.1,19.5c1.2,1.3,2.6,3.1,1.5,4.6
				c-1.3,1.7-3.4,0.8-4.6-0.6c-3.6-4.1-9.3-5.4-12.4-10.3c-1.4-2.2-4.6-3.6-8.3-4c-9.1-0.9-17.6-5.1-27-5.5
				c-10.3-0.4-20.6-2.3-30.9-3.3c-3.4-0.4-6.6-0.6-7.6-4.8C578.7,322.8,573.2,323.2,572.7,317z"/>
			<path d="M690.4,377.9c-4.2,6-3.2,13.2-7.4,19.9c-6.2,9.8-13.5,20-15.3,32c-1.5,10.4,0.9,20.8,3.9,30.9c1.7,5.5,6.1,9.9,5.9,16.2
				c-0.1,1.9,0.5,3.7-2.2,3.7c-2.1,0-1.6-1.8-2.2-2.9c-5.3-9.1-7.1-19.3-10.1-29.2c-2.6-8.4-1.4-16.1,0.4-24
				c2.9-12.1,10.6-21.7,17.3-31.9c1.6-2.5,3.7-6,3.4-10.1C683.9,379.5,687.2,378.5,690.4,377.9z"/>
			<path d="M730.4,748c-0.9,6.8-0.9,14-3.2,20.4c-1.5,4.3-6.3,7.5-9.5,11.2c-3.8,4.4-10.2,6.4-13.5,11.9c-0.7,1.1-2.4,2.4-4,1.1
				c-1.5-1.2-0.6-3.1,0.1-4.3c3.5-6.3,5.2-13.2,12.3-18c7.2-4.8,10.6-14,13.9-22.3c0.6-1.5,1-3.1,3.1-2.5
				C730.9,745.7,731.1,746.8,730.4,748z"/>
			<path d="M176.6,617.4c-1.1-1.1-6.4,0.5-2.3-4c2-2.2,0.1-4.2-0.4-6.2c-0.8-3.4-1.2-6.5,1.4-9.3c0.6-0.6,1.6-1.6,1.4-2.1
				c-2.1-8.5,7-13.4,6.7-21.2c-0.1-1.4,0.9-2.6,2.5-2.5c1.9,0.1,1.8,2.2,1.7,3c-0.3,4.7-0.7,9.3-1.6,13.9c-1.3,6.5-3,12.8-5.9,18.8
				c-0.8,1.6-0.6,4-0.2,5.8C180.5,616.6,179.1,617.2,176.6,617.4z"/>
			<path d="M697.3,426.6c2.2,0.7,1.9,1.7,1.4,3.2c-2.5,6.9-5.2,13.8-7.1,20.9c-1.3,4.8,0.7,10.2-3.6,14.8c-1.9,2.1-3.4,4.5-6,3.6
				c-3.3-1,0.7-3.1,0-4.8c-3.8-9.2,1.3-16.3,6.3-22.9c3.1-4.1,2-10.5,7.6-13.1C696.5,427.9,696.9,427,697.3,426.6z"/>
			<path d="M439.1,341.2c-0.2,14.2-0.8,28.2-7.4,41.2c-1.7,3.2-1.1,6.9-1.4,10.4c-0.2,1.7,0,4.1-2.4,4c-2.9-0.1-2.7-3-2.3-4.6
				c1.3-5.8,2.7-11.8,4.8-17.3c3.2-8.2,4.3-16.2,3.8-25.1c-0.3-5.6,0.7-11.3-1.2-16.9c-0.4-1.3,0.9-1.9,2-2c1.6-0.2,3.7,0,3.4,2
				C438,335.8,439.2,338.5,439.1,341.2z"/>
			<path d="M813.4,561.6c4-13,5.5-25.8,3.4-38.7c-0.4-2.7-0.1-4,1.9-4.4c2.9-0.6,2.2,2.7,2.3,3.8c0.9,10.6,3.7,21.1-0.6,31.9
				C817.6,561.3,818.6,561.7,813.4,561.6z"/>
			<path d="M799.8,445.2c-1.5,0.1-3.4-1.2-3-1.8c4-5.2-4.7-10.9,0.8-15.9c0.6-0.5,1-1.3,0.4-2.3c-0.6-1.1-3.2-2.2-0.8-3.5
				c2.4-1.3,3.4,1,4.2,2.9c0.4,1,0.8,2.4,1.5,2.8c10.1,5,1.8,10.6,0.6,15.9C803.1,445.1,801.3,445,799.8,445.2z"/>
			<path d="M719.8,435.5c-1.8,6.7-1.7,14.2-5.6,20.8c-1.2,2-2.5,4.1-5,2.6c-2.5-1.5-0.3-3.2,0.8-4.2c1.8-1.5,0.2-2.6,0.1-3.9
				c-0.2-2.6-1.3-5.4,2.3-7.2c3.4-1.7,1.2-6.2,2.8-9c0.9-1.5,0.1-4.6,3.1-3.9C720.6,431.1,719.1,433.6,719.8,435.5z"/>
			<path d="M547.3,318.8c-2-9.7-7.4-17.1-14.6-23.5c-1-0.9-2.4-1.6-1.4-3.1c1.1-1.6,2.9-1.3,4.1-0.3c5.8,4.5,11.9,9.1,13.2,16.9
				C549.1,312,552.9,316.1,547.3,318.8z"/>
			<path d="M418.7,678.4c4.9,0.8,10.1,1.4,15.2,2.4c2.2,0.4,4.3,1.5,3.4,4.5c-0.8,2.9-2.9,2.2-4.8,1.6c-5-1.6-10.7-0.3-15.3-3.5
				c-1.7-1.2-5.4-0.6-4.8-3.4C413,677.4,416.3,678.9,418.7,678.4z"/>
			<path d="M773.9,372.3c-1.5-3,1.5-5.3,2.2-8.2c0.6-2.5,1.9-3.6,4.2-2.2c1.7,1,4.2,1.1,3.1,5.1c-0.8,3-3.4,5.8-2.5,9.5
				c0.4,1.6-2.2,2.6-4.1,2.4C772.8,378.5,773.8,375.4,773.9,372.3z"/>
			<path d="M818.3,481.2c1.1,1.9,0.8,3.1,0.1,3.8c-3.6,3.2-1.1,12-6.5,11.1c-3.9-0.6-3.4-9.1-6.2-13.5c-0.9-1.4-0.6-3.6,1.5-4.3
				c0.9-0.3,2.5,0.1,2.6,1.4C810.3,490.3,814.4,485.4,818.3,481.2z"/>
			<path d="M616.9,561.2c0.5-7.1-2.9-12-8.9-15.4c-1.3-0.7-3.2-1.5-2.4-3.3c0.8-1.8,2.7-0.8,4.1-0.5c5.5,1.3,8.6,4.8,10,10.3
				c0.7,3-0.3,6.1,1.4,9c1,1.7-0.8,3.6-2.7,3.6C616.2,564.9,616.7,562.8,616.9,561.2z"/>
			<path d="M667.1,171c-7.9-2.7-15.8-0.5-23.5,3c-1.7,0.7-3.9,0.7-4.4-1.5c-0.4-1.7,1.6-1.7,2.8-2c8.7-2,17.1-6,26.4-3.5
				c1.4,0.4,3.4,0.8,2.7,2.9C670.7,171.4,669.1,171.1,667.1,171z"/>
			<path d="M617.9,279c-0.4-0.2-1.5-0.3-1.8-0.9c-0.3-0.6,0.1-2,0.6-2.3c3-1.9,5.2-3.8,3.6-8c-0.5-1.3,1-2.4,2.4-2.5
				c1.4-0.1,3,0.3,3.4,1.5c1.3,3.7-2.9,6-2.7,9.7C623.5,277.8,620.5,278.9,617.9,279z"/>
			<path d="M804.3,469.3c-1.9-0.4-1.1-1.8-1-3.4c0.3-4.4,5.4-6.9,4.4-11.9c-0.3-1.5,2.3-1.3,3.8-1c1.1,0.3,2.5,1.2,1.7,2.1
				c-3.1,3.7-4.5,8.1-6,12.5C806.9,468.6,806,469.5,804.3,469.3z"/>
			<path d="M784.7,284c-0.4,1.2-0.6,2.8-1.4,4c-0.5,0.8-2.2,1.8-2.6,1.6c-3.9-2.6,1-8.5-3.9-11.1c-0.6-0.3,1-2.5,2.3-2.4
				c3.3,0.3,5,2.3,4.9,5.8C784,282.4,784.4,283,784.7,284z"/>
			<path d="M820.8,514.7c5.2-4.4,2-13.8,9.9-16.6C830.7,504,827.4,510,820.8,514.7z"/>
			<path d="M782,312.7c-1.3,2.1,1.3,6.6-1.9,6.7c-3.5,0.1-1-4.4-2.1-6.6c-0.4-0.8-0.5-1.7-0.6-2.6c-0.3-2.3-0.4-5,2.6-5.1
				c3.1-0.1,1.7,2.9,2.1,4.7C782.2,310.8,782,311.7,782,312.7z"/>
			<path d="M434.9,216.1c-6.2,2.8-10.5,0.3-14.9-0.4c-1-0.1-2.2-0.8-1.9-2.2c0.2-1.4,1.5-1.3,2.6-1.5
				C425.6,211.4,429.4,214.1,434.9,216.1z"/>
			<path d="M666.9,504c-0.2,1.9,1.3,5.5-2.2,4.7c-2.9-0.6-2.5-4.7-2.9-7.2c-0.4-2.2,1.8-2.8,3.7-2.5
				C669.3,499.7,667.5,502.1,666.9,504z"/>
			<path d="M692.4,370.3c-0.1,2.8,0,5.4-2.7,5.3c-3.4-0.1-1.6-2.8-1.6-4.6c0-0.9,0.3-1.8,0.2-2.6c-0.1-1.1-3.1-2.3,0.1-3.3
				c1.9-0.6,2.8,0.3,3.2,2.2C691.7,368.6,692.3,369.8,692.4,370.3z"/>
			<path d="M667.2,522.4c-1.2,2.3-0.9,6-4.6,6.8c-1.3,0.3-2.4-1.2-1.8-1.9c1.8-2.4-0.5-7.2,4.4-7.7
				C666.8,519.4,667.5,520.5,667.2,522.4z"/>
			<path d="M778.5,270.9c0.1,1.4-0.1,2.9-2,2.6c-1.7-0.3-4.4,0.1-4.1-2.9c0.1-1.3,0.1-3.4,2.2-3.5
				C777.1,267.1,778,268.8,778.5,270.9z"/>
			<path d="M297.8,620.3c-0.2,1.8-0.1,3.9-2.8,4.2c-1.8,0.2-2.5-0.9-2.1-2.3c0.5-1.8,0.8-4,3-4.5
				C297.8,617.2,297.8,618.7,297.8,620.3z"/>
		</g>
		<g>
			<g>
				<path d="M393.1,621c6.5,4.1,12.6,2.6,18.7-3.5c6.1-6.1,6.3-11.1,2.4-14.9c-4.3-4.3-8.7-3.6-19.8,3.3c-17.7,11-26.4,9.3-33.6,2.2
					c-9.2-9.2-8.5-22.3,3.9-34.7c14-14,27.1-12,35.5-5.1l-11.5,11.5c-3.8-2.7-9.1-4.4-15.9,2.4c-4.6,4.6-5.5,9.3-1.8,13.1
					c3.7,3.7,7.4,2.9,17.9-3.6c18.9-11.7,28-9.4,35.4-1.9c9.6,9.6,8.9,23.5-5,37.4c-13.4,13.4-27,13.8-37.8,5.5L393.1,621z"/>
				<path d="M469.2,536.2c-9-9-18.9-19.2-24.6-25.4l-0.4,0.4c8.3,13.2,20.5,36,32,57.5l-9.7,9.7c-18.2-10.6-43.7-25.1-56.5-33.3
					l-0.4,0.4c6.6,5.7,17.7,16.3,26.7,25.4l18.9,18.9l-10.4,10.4l-52.7-52.7l16.9-16.9c17.9,9.7,39.7,22.3,49.2,28.6l0.1-0.1
					c-5.6-8.2-18.3-32.4-27.4-50.3l16.3-16.3L500,545l-11,11L469.2,536.2z"/>
				<path d="M530.7,461.3c14.7,14.7,18.5,36.1,1.4,53.2c-16.5,16.5-37.2,13.2-52.3-1.9c-15.3-15.3-17.5-36.6-1.2-53
					C494,444.2,514.5,445.2,530.7,461.3z M491.3,500.6c10.3,10.3,22.6,13.5,31.9,4.2c10.1-10.1,5.2-22.2-4.2-31.6
					c-10-10-21.9-13.7-31.7-3.9C477.9,478.8,481,490.3,491.3,500.6z"/>
				<path d="M510.6,429l11.3-11.3l23.5,23.5c-0.6-7.5-1.6-30.2-2.5-44.5l13.6-13.6l0.7,43l52.7,8.8l-13.7,13.7l-39.5-7.2l-0.2,10.9
					l18.1,18.1l-11.3,11.3L510.6,429z"/>
				<path d="M625.2,374.4L600,399.6l13.4,13.4l27.8-27.8l8,10.7l-37.5,37.5L559,380.7l37.3-37.3l9.3,9.3L579.4,379l11.3,11.3
					l25.2-25.2L625.2,374.4z"/>
			</g>
		</g>
	</g>
</g>
<g id="text">
</g>
<g id="guides" display="none">
</g>
<g id="scratch" display="none">
</g>
</svg>
