<?xml version="1.0" encoding="utf-8"?>
<!-- Generator: Adobe Illustrator 26.0.2, SVG Export Plug-In . SVG Version: 6.00 Build 0)  -->
<svg version="1.2" baseProfile="tiny" xmlns="http://www.w3.org/2000/svg" xmlns:xlink="http://www.w3.org/1999/xlink" x="0px"
	 y="0px" viewBox="0 0 800 800" overflow="visible" xml:space="preserve">
<g id="fill">
</g>
<g id="bg" display="none">
</g>
<g id="counters_00000155831629897369998050000010902328751353074356_">
	<g id="berki_00000161602238266222448020000016964625985242941333_">
		
			<rect id="_x31__x2F_2_x22__800x800_00000158727512872129856770000017202818039418343572_" x="-0.2" y="1" fill="none" width="800" height="800"/>
		<g id="su_ldr_sm_00000070819259337379758160000009407064187344008349_">
			<path d="M296.1,514.9c-1.5,0.7-1.7-0.1-1.8-1.1c-0.2-1.2-0.4-2.4-0.7-3.6c-0.4-1.2-0.7-2.3,1.5-2.3c-1.3-0.4-1.4-1.2-1.3-2
				c0.1-1.3,0-2.7,0.5-4c0.4-1.1-0.7-2.3-0.4-3.5c0.3-0.9-1.1-2.2,0.6-2.8c0.3-0.1,0-0.2-0.1-0.3c-1.1-0.7-0.9-2.1-0.7-2.9
				c0.6-2.9-1.1-4.7-2.6-6.7c-0.7-0.9-1.3-1.7-1.5-2.9c0-0.1-0.1-0.3-0.2-0.4c-1-0.6-1.1-1.7-1.6-2.6c-1.4-2.4-2.9-4.6-4.2-7.1
				c-0.2-0.5-0.7-1-1.2-0.8c-0.6,0.1-1,0.6-1.1,1.3c-0.2,0.6-0.1,1.4-1,1.4c-0.1,0-0.2,0.2-0.2,0.3c0.6,2.9-0.9,5.5-1.6,8.1
				c0,0.1-0.1,0.1-0.1,0.1c-0.2,3.3-2.4,3.6-5,3.4c-0.1,0-0.3,0.1-0.5,0.2c1,0.5,1.8,0.1,2.6,0.1c1.7,0,2.2,0.6,1.5,2.2
				c-1,2.4-1.1,4.9-1.6,7.4c-0.6,2.9-0.6,5.9-2,8.6c-1.1,2.2-2.6,4.1-3.9,6.2c-0.4,0.6-1.2-0.3-1.6,0.6c1.4,0.1,1.2,0.7,0.9,1.8
				c-0.4,1.3,0.6,2.9-0.1,4.2c-1.2,2.1-0.7,5-3.1,6.5c0.5,1.7-1.4,2.1-1.8,3.2c-0.2,0.6-1.8,0.8-0.7,1.9c-0.1,0.1-0.3,0.3-0.4,0.4
				c-2.2,1.1-2.3,3.7-3.6,5.4c0,0.1,0,0.2,0,0.3c-0.1,1-1.8,1.1-1.6,1.2c1.2,0.7,0.3,1.2-0.1,1.7c-0.4,0.6,0.1,1.8-0.8,2.1
				c-0.9,0.3-0.2,1.6-1.2,1.6c0.2,1.8-1.1,3-1.7,4.5c-0.3,0.8-0.9,1.3-1.7,1.7c-1.7,0.8-3.2,1.8-4.6,3.1c-0.4,0.4-0.8,0.8-1.3,0.9
				c-3.3,0.6-3.6,3.6-4.7,5.8c-0.5,0.9-0.1,2.3-0.4,3.4c-0.3,1.1-0.7,2.1-1.4,3.1c-0.3,0.4-0.1,1.4-0.4,2.3
				c-0.5,1.1-1.1,2.2-1.6,3.4c-1.7,3.6-2.9,7.3-4.5,10.9c-1,2.1-2,4.2-2.5,6.4c-0.4,1.6-1.6,2.9-1.7,4.6c-0.1,1.4-1.3,1.3-2.6,1.2
				c1.8,0.4,1.4,1.4,1,2.5c-1.1,3.1-2.6,6-5.1,8.2c-0.5,0.4-0.2,0.7-0.2,1.2c0.2,2.3,2.4,3.4,2.6,5.7c0.1,1.3,0.6,2.7,1.4,3.7
				c1.3,1.6,0.6,3.6,1.8,5.2c0.8,0.9-0.9,0.3-1,1c2.8-0.2,2.3,2.9,3.8,4.2c0.2,0.1,0.3,0.7,0.6,1c0.7,0.8-0.3,0.6-0.6,1
				c2-0.5,2.4,1.4,3.5,2.2c2.1,1.4,4,3,5.9,4.6c1.8,1.5,3.8,3,5,5.4c1.3,2.6,1.5,5.2,1.6,7.9c0,0.3,0.2,0.6-0.1,0.7
				c-1.5,0.6-2.7,1.9-4.2,2.3c-2.4,0.6-4.9,0.6-7.3,0.7c-1,0-2,0-2.7-1c-0.4-0.5-0.9-0.4-1.2,0.1c-0.5,0.8-1.2,0.9-1.9,0.9
				c-2.8,0.1-5.4-0.2-7.9-1.7c-0.4-0.2-0.9-0.3-1.4-0.2c-2.4,0.4-4-1-5.8-2.1c-1-0.7-2.3-0.7-3.3-1.5c-0.9-0.7-2.1-1-2.3-2.4
				c-0.1-0.4-0.5-1-0.9-1.1c-1.8-0.3-2.9-1.6-4.1-2.7c-1.4-1.3-2.9-2.5-3.9-4.1c-1.4-2.3-2.9-4.1-6.2-3.7c-2,0.3-4.3-0.2-5.7-2.3
				c-0.7-1.2-2.2-1.6-3.2-2.7c-1.7-2-3-4.4-5-6.2c-0.8-0.7-0.9-2.3-0.6-3.5c0.7-3.1,1.3-6.4,2.8-9.2c1.3-2.4,1.8-5.2,3.8-7.2
				c0.2-0.2-0.1-0.9,0.2-1.6c0.5-1.2,1.2-2.4,1.9-3.2c1.6-1.6,3-3.6,5.5-4.4c-1.7-0.6-1.1-2.2-1.4-3.4c-0.3-1.2-0.3-2.8,0.8-3.9
				c0.1-0.1,0.4-0.1,0.3-0.4c-0.4-3,1.4-5.6,1.4-8.5c0-0.9,0.8-1.6,1.2-2.4c1.1-2,0.7-4.4,1.6-6.4c1.3-2.9,1.9-6.1,3-9.2
				c1.5-4.2,3.7-8,4.9-12.3c0.4-1.3,1.1-2.6,1.9-3.8c1-1.5,1.6-3.1,2.4-4.7c0.2-0.3,0.4-0.8,0.3-1c-1.6-2.6,0.4-5,0.3-7.5
				c0-0.1,0.1-0.2,0.1-0.3c0.5-0.7-0.4-1.4,0-2.2c0.4-0.8,1.5,0.3,1.9-0.7c-2.1-0.5-2.1-0.5-0.8-2.3c0.1-0.1,0.1-0.3,0.1-0.4
				c-0.3-1.8,0.6-3.2,1.3-4.8c0.6-1.4,0.7-3,1.1-4.5c0.2-0.6,0.1-1.1,0.7-1.5c0.6-0.4,0.8-1.2,0.8-1.7c-0.1-1.9,1.2-3.4,1.4-5.2
				c0.1-0.7-0.5-0.8-0.4-1.6c0.2-1.7,0.7-3.6,0.3-5.2c-0.6-2.3-0.5-4.5-0.6-6.8c-0.1-2.1,0.1-4.2,1.3-5.9c0.3-0.5,0.3-0.7,0.1-1.1
				c-0.1-0.3-0.5-0.7-0.3-0.8c1.2-0.8,0.4-2.1,0.8-3.1c0.5-1.1,1.4-2,1.9-3.1c0.6-1.5,0.9-3.2,0.4-4.8c-0.3-1-1-2,0.2-2.9
				c-0.4-0.5-0.7-1,0.1-1.4c-0.9-1.3,0.4-1,1.1-1.2c-2-0.2-1.3-1.9-1.4-2.6c-0.1-3.3-0.3-6.7,0.2-10c0.1-0.7,0.5-1.5-0.2-2.2
				c-0.2-0.2,0-0.5,0.1-0.7c0.5-0.8,0.2-1.9-0.8-2.2c-1.8-0.6-3.2-1.9-4.9-2.6c-1.6-0.6-3.1-3.4-2.8-5c0.1-0.8-0.6-2,0.9-2.4
				c-1.1-1.1,0.1-2.2,0.1-3.3c0-1.6,0.6-3,1-4.5c0.5-1.8,0.1-3.7,0.8-5.4c0.3-0.8,0.3-1.9,0.3-2.8c0-1.2,0.9-2.1,0.7-3.3
				c-0.1-0.4,0.2-0.7,0.7-0.7c0.3,0,0.7-0.2,0.4-0.4c-1.3-1.1,0-2.4-0.3-3.6c-0.2-0.6-0.7-2,0.8-2.4c0.4-0.1,0.1-0.4-0.1-0.6
				c-0.5-0.6-0.3-0.9,0.1-1.5c0.6-0.7-0.2-1.7,0.4-2.6c0.4-0.6,0.2-1.5,0.7-2.2c0.5-0.7,0-1.2-0.9-1.4c-2.1-0.3-4.2,0.2-6.3,0
				c0-0.8,0.8-0.4,1.3-0.9c-3.2,0.5-5.3-1.2-7.3-3.2c-1.3-1.4-2.1-3.1-2.9-4.7c-0.9-1.7-1.6-3.4-1.9-5.3c-0.4-1.9-0.5-3.8-0.6-5.7
				c0-0.8-0.4-1.7,0.1-2.6c0.5-1.1-1-2.4-2.4-2c-2.8,0.8-5.7,0.6-8.5,1.2c-2.9,0.7-5.9,0.8-8.7,1.9c-1.7,0.7-3.7-1.2-3.6-3.3
				c0-0.6,0.1-1.2-0.2-1.7c-0.4-1.1,0.9-1,0.9-1.5c0.1-0.6-1.5,0-1.2-1.1c0.2-0.6-0.2-1.3,0.2-1.9c0.1-0.2,0.1-0.7,0-0.9
				c-1-1.7-0.4-3.5-0.2-5.1c0.2-1.8,0.4-3.6,0.7-5.4c0.2-1.6,0.3-3.3,0.4-4.9c0-0.4-0.1-0.9,0.5-0.9c0.6,0,1.1-0.5,1.7-0.1
				c0.3,0.2,0.3,0.4,0.1,0.6c-0.3,0.3-0.6,0.6-0.8,1c-0.3,0.5-0.8,1-0.5,1.6c0.3,0.6,0.9,0,1.3,0c0.4,0,0.8-0.1,0.9,0.5
				c0,0.4-0.4,0.5-0.7,0.5c-0.4,0.1-0.9,0.1-1.1,0.5c-0.2,0.3-0.4,0.7-0.3,1c0.1,0.5,0.6,0.3,1,0.2c2.1-0.4,4.3-0.3,6.2-1.6
				c0.8-0.5,1.9,0.6,2.7-0.3c0.6-0.7,1.5-0.7,2.3-0.9c2-0.4,4-0.7,6-0.8c1.3-0.1,1.2-1.1,1.3-1.8c0-0.9-0.8-0.5-1.4-0.5
				c-2.4-0.3-4.8-0.7-7.2-0.1c-0.4,0.1-0.9-0.2-1-0.7c0-0.5,0.5-0.5,0.8-0.6c1.5-0.2,2.2-1.8,3.7-2c0.3,0,0.5-0.4,0.4-0.7
				c-0.1-0.3-0.4-0.3-0.7-0.3c-0.8,0-1.6,0-2.4,0c-0.7,0-1.4,0.2-1.6-0.9c-0.1-0.6-0.8-0.6-1.2-0.6c-2.4,0.2-4.9,0.4-7.3,0.8
				c-1.9,0.3-0.9,2.1-1.1,3.2c-0.1,0.5,0,1.1-0.5,1.3c-0.3,0.1-0.8,0.3-1.1,0.2c-0.5-0.2-0.2-0.6-0.1-1c0.7-3.4,2.2-6.4,5.4-7.8
				c2.2-1,4.9-1.7,7.3-0.1c0.2,0.1,0.5,0.2,0.6,0c1.1-2.2,3-0.6,4.5-1.1c0.4-0.1,0.8,0.1,1.3,0.1c0.4,0,0.9-0.2,0.8-0.6
				c-0.3-1.4,1-2.5,1-3.7c0-3.2,1.5-6.4-0.1-9.6c-0.3-0.6-0.3-1.4,0.2-2c1.4-1.5,1.6-3.3,1.3-5.2c-0.1-0.5-0.1-1.1,0.2-1.4
				c1.5-2.1,0.9-4.7,1.9-6.9c0.4-0.9,1.3-1.6,1.4-2.7c0.1-2.2,0.2-4.5,0.4-6.7c0.2-2.5,0.9-4.8,2.5-6.7c0.3-0.3,0.5-0.5,0.4-1
				c-0.2-2.4,1.1-4.3,2.4-6.1c0.7-0.9,0.8-1.9,0.6-2.8c-0.4-1.9-1.1-3.6-2.2-5.2c-0.9-1.3-1.8-2.8-1.7-4.5c0.1-2.7,0.1-5.3,0.5-8
				c0.3-1.7,0.5-2.9,2.8-2.3c-0.6-0.9-1.7-0.3-2.1-1.1c-0.4-0.8,0.1-1.6,0.2-2.3c0.4-2.3,0.9-4.6,1.4-6.9c0.2-1.1,1.5-2,0.9-3.3
				c0,0,0.3-0.3,0.5-0.3c3-0.9,3.6-3.5,4.3-6.1c1-3.7,2.3-7.3,5.8-9.5c0.5-0.3,1-0.8,1.6-0.4c0.5,0.3,0.6,0.1,0.7-0.4
				c0.1-0.2,0.4-0.5,0.4-0.4c1.6,1.2,2-1,3.2-1.1c1.4-0.1,2.7-0.5,4.1-0.7c1.7-0.3,3.3-1.1,5.1-1c1.7,0.1,3.3-0.2,4.9,0.6
				c0.9,0.5,2,0.3,3.1-0.2c2.5-1.1,3.9-3.5,6.2-4.7c0.7-2.9,3.3-2.5,5.3-3.1c0.9-0.3,1.3-0.6,1.6-1.6c0.1-0.5-0.2-1.6,0.9-1.5
				c0.1,0,0.2-0.1,0.2-0.2c0.1-2.1,0.2-2,1.5-3.5c0.8-0.8,0.8-2,0.8-3.1c0-1.2-0.1-2.3,1.7-2c0.9,0.2,0.5-0.6,0.5-0.9
				c-0.1-1,0.2-1.5,1.4-1.1c0.6,0.3,1.1,0.3,1.5-0.5c-0.9,0-1.6-0.6-2.5-0.4c-0.4,0.1-0.5-0.1-0.6-0.5c-0.5-1.8-1.6-3.3-1.7-5.2
				c0-0.7-0.5-0.7-1-0.8c-1.4-0.3-2.8-0.2-4.2-0.1c-1.1,0-1.8-0.4-2.6-1.1c-0.4-0.3-0.9-0.9-0.6-1.2c1.3-1.1-0.3-2.6,0.6-3.9
				c0.7,0.4,1,1.9,2,1.1c0.7-0.6,1.7-0.3,2.5-1.2c-1.5-0.2-2.8-0.4-3.9-1.1c-0.3-0.2-0.6-0.3-0.5-0.7c1.2-3.5,0.5-7.2,1-10.8
				c0.4-2.7-0.1-5.4,0.3-8c0.4-2.5,0.9-5,2.2-7.3c0.8-1.5,1.5-3,2.3-4.5c0.5-1,1.4-1.4,2.1-2.1c2.7-2.7,5.9-4.8,9.3-6.7
				c1.5-0.8,3.3-1.3,4.8-2.4c0.9-0.7,1.8,0.3,2.9,0.1c-0.5-0.6-0.7-1.2,0.4-1.3c4.1-0.3,8.2-0.6,12.3-0.4c1.9,0.1,3.6,1,5.4,1.4
				c3.8,0.8,6.8,3.4,9.9,5.4c1.8,1.1,3.2,3.1,4.5,4.8c1.1,1.5,1.7,3.3,2.7,4.9c0.5,0.9,1,2.1,1.3,3.3c0.2,0.9,0.8,1.7,1.1,2.6
				c0,0,0.1,0.1,0.1,0.1c0,2,1.5,3.6,1.8,5.5c0.3,1.8,0.7,3.5,1.3,5.1c0.7,1.7,1.2,3.6,2.6,4.9c0.7,0.6,0.1,1-0.5,1.4
				c1.6,0.9,3,2,4.2,3.2c0.9,1,0.8,1.6-0.4,2.2c-0.4,0.2-0.8,0.3-1.2,0.4c-1.1,0.2-1.9,0.5-2.9,1.1c-1.2,0.8-2.8,0.9-4.2,1.3
				c-0.7,0.2-1.4,0.3-2,0.4c-1.7,0.4-2.2,1.2-1.6,2.8c0.3,0.8,0.1,1.7,0.5,2.5c0.3,0.6-1.4,2-2.6,2c-0.9,0-2,0.2-1.8-1.3
				c0.1-0.5,0-1-0.7-1.1c-0.6-0.1-0.9,0.3-1.1,0.7c-0.2,0.3-0.3,0.7-0.5,1c-0.1,0.2-0.2,0.4-0.3,0.6c-1.1-0.6-2.3,0.3-3.5-0.2
				c-0.8-0.3-1-1-0.9-1.9c0.1-0.4,0-0.8-0.4-1c-0.4-0.2-0.7,0-1,0.3c-0.3,0.5-0.9,1-1.3,0.5c-1.1-1.4-1.1-0.6-1.2,0.4
				c-0.2,1.9-1.7,2.2-3.3,2.6c0.2-0.8,0.4-1.5,0.6-2.1c0.2-0.3,0.8-0.6,0.3-1c-0.4-0.4-1.1-0.1-1.4,0.4c-1.1,1.7-2.7,3.1-3,5.3
				c-0.2,1.6-1,3.1-1.8,4.5c-0.6,1,0.3,1.8,0.2,2.6c-0.1,1.1,0.2,1.6,1.3,1.8c0.5,0.1,0.8,0.4,1,1c0.5,2.1,1.5,4,2.2,6
				c0.1,0.3,0.1,0.6,0.5,0.7c1.1,0.3,2.5,0.3,2.1,2.2c0,0.1,0.6,0.6,0.9,0.5c1.4-0.2,1.7,0.7,2.2,1.8c0.6,1.4,2.2,1.5,3.3,1.2
				c1.3-0.4,2.7-0.8,4-1.5c0.7-0.4,1.1-1,0.9-1.7c-0.6-1.5-0.4-3.4-2.1-4.4c-0.4-0.2-0.7-0.6-1-1c-0.6-0.6-0.5-1.1,0.2-1.4
				c1-0.4,2.2-0.3,3.1,0.1c0.7,0.3,0.2,1.4-0.1,2.2c-0.3,0.6-0.4,1,0,1.7c1.6,2.8,0.5,5.7-2.4,7.1c-1.4,0.7-2.9,1-4.4,1.4
				c-0.7,0.2-1.6-0.3-2.4-0.4c-0.7-0.1-1.4-0.1-2,0.3c-1.1,0.8-1,1.5,0.2,2c1,0.4,1.8,1.2,2.9,1.2c0.2,0,0.5,0.2,0.5,0.3
				c0.3,1.6,1.7,1.7,2.8,2.2c3.9,1.9,6.4,5,8.2,8.8c0.1,0.1,0.2,0.3,0.3,0.4c2.9,1.7,4.2,4.6,5.7,7.4c1,1.9,2.1,3.8,2.3,5.8
				c0.1,1.6,1.8,2.8,1.1,4.6c2.3,1.6,1.8,4.3,2.5,6.5c0.3,0.9,1,1.9,0.3,2.9c-0.1,0.1,0.1,0.6,0.1,0.6c1.7-0.2,2.1,2.1,3.6,2
				c1,0,1.9,0.7,2.1,1.3c0.4,1.3,1.4,1.7,2.3,2.3c2,1.1,3.3,3.1,5.4,4.1c2.6,1.2,5.1,2.8,7.9,3.8c0.5,0.2,1.1,0.1,1.6,0.2
				c0.7,0,0.8-0.5,1-1c0.3-0.7-0.2-0.8-0.6-1c-1.9-1.1-2-2.2-0.5-3.8c0.8-0.8,0.9-2.1,2.3-2.3c0.2,0,0.3-0.4,0.2-0.7
				c-0.8-2,0.8-2.9,1.9-3.9c0.8-0.8,1.7-1.4,2.4-2.4c0.8-1.1,2.3-1.8,3.7-1.6c1.5,0.1,2,1.3,2.3,2.7c0.2,1,0.3,1.9,0.4,2.9
				c0.2,2.2,1.8,2.9,3.7,1.7c0.4-0.3,0.9-0.5,1.4-0.8c2.3-1.7,4.3-1.1,5.5,1.6c0.1,0.1,0.2,0.3,0.2,0.4c0.1,0.6-1,1.2,0.4,1.7
				c0.7,0.2,1.1,1.2,1.9,1.6c0.5,0.2,0.8,0.5,1,1.1c0.3,1.3,0.8,2.6,2.4,2.8c0.1,0,0.2,0.1,0.2,0.2c0.4,0.7,1.7,0.9,1.5,1.7
				c-0.2,0.8-1.3,0.4-2,0.5c-0.9,0.2-1.4,0.3-1.4,1.4c0,0.7-0.3,1.6-0.7,2.3c-0.3,0.5-0.4,0.9,0.2,1.1c0.6,0.3,0.8,1.5,1.4,1.1
				c0.6-0.5,1.4-1,1.8-1.9c0.2-0.4,0.1-0.7-0.2-1c-0.7-0.6-0.9-1.5-0.5-2.1c0.5-0.7,1.5-0.6,2.2-0.1c0.2,0.7-1.1,0.7-0.6,0.9
				c0.7,0.3,0.1,1.3,1.3,1.4c1.8,0.1,3.4,2.5,3,4.3c-0.4,2,0.7,3.5,1.6,5.1c0.8,1.3,0.7,2.4-0.4,3.4c-0.2,0.2-0.5,0.3-0.4,0.6
				c0.6,1.4-0.5,1.9-1.4,2.1c-1.6,0.5-2,1.6-1.8,2.9c0.2,1.9-0.5,3.1-1.7,4.5c-0.8,1-1.4,2.3-2.6,3.1c-1,0.8-2.1,1.6-3,2.5
				c-1.5,1.5-3.9,1.7-5.9,2.5c-0.9,0.4-2.5-0.8-3.4-1.8c-0.4-0.4-0.2-1.5-1.2-1.1c-0.7,0.3-1,1.2-0.8,1.9c0.2,0.8,0.1,1.4-0.4,2
				c-0.8-0.2-0.7-1-1.3-1.6c-0.3,1.8-0.1,3.4-0.4,5c-0.3,1.2,0.4,1.4,1.8,0.4c-1,2.5-0.8,5-3.1,6.3c0.8,1.6,2.5,1.8,4.2,1.9
				c5.6,0.4,11.2,0.5,16.7,1.4c4,0.7,8.1,0.9,12.1,1.2c5,0.5,9.9,1.5,14.9,1.3c0.5,0,1.2,0,1.6,0.3c1.5,1.2,3.2,1,4.9,0.9
				c2.8-0.1,4.6-1.6,5.3-4.2c0.6-2.3,3.9-3.3,5.7-1.8c0.6,0.5,0.3,1.2,0.3,1.8c0.2,3.7,1.8,5.5,5.4,5.8c3.8,0.3,7.4,1.1,11.2,1.2
				c2,0,2.8,2.1,1.5,3.8c-1.6,2-2.6,4.2-3.6,6.5c-0.3,0.6-1,0.8-1.8,0.8c-3.6-0.1-7.2-0.4-10.8-1.2c-2.1-0.5-4.3-0.1-6.5-0.3
				c-4.3-0.5-8.6-0.7-12.9-1.3c-0.9-0.1-1.8,0-2.7-0.1c-7.2-1.2-14.4-1.7-21.7-2.1c-2.2-0.1-4.4-0.1-6.5-0.4
				c-0.8-0.1-1.4-0.6-2.3-0.7c-2.1-0.2-3.6,1.1-5.3,1.8c-2.2,1-4.3,0.3-6.4,0.2c-1.9-0.1-3.7-0.3-5.6-0.2c-0.7,0-1,0.3-1.2,1
				c-0.7,2.5-1.2,5.1-2.8,7.3c-0.4,0.6,0.4,1.2,0.3,1.6c-0.8,4-0.5,8.1-1.1,12.2c-0.1,1-0.3,1.5-1.7,1.6c0.8,0.4,1.4,0.1,1.1,1.1
				c-0.3,1.3-0.6,2.7-0.3,4.1c0.2,0.7-0.2,1.5-0.4,2.1c-0.8,3.2-1.2,6.5-2.4,9.6c-0.2,0.7-0.4,1.6-1.3,0.5c-0.3-0.4-0.8-0.3-1.1,0
				c-0.2,0.2-0.4,0.4-0.2,0.7c0.3,0.5,0.6,0.2,1,0.1c1.1-0.3,1.4,0.2,1.1,1.2c-0.3,1-0.6,1.9-0.8,2.9c-0.3,1.4-1.2,2.1-2.8,1.9
				c-2.4-0.3-4.9-0.4-7.4-0.5c-0.7,0-1.4,0-2.1,0.2c-0.5,0.1-0.9,0.2-0.4,1.2c0.7,1.6,1.2,3.4,1.6,5.1c0.4,1.9,1.2,3.5,1.7,5.3
				c0.2,0.9,0.7,1.7,0.4,2.7c0,0.1-0.1,0.2-0.1,0.3c1.4,2.3,1.8,3.7,2.1,5.9c0.3,2.1,1.6,3.9,1.8,6.1c0.2,2.2,0.9,4.4,0.9,6.7
				c0,1.5-1.3,1.8-1.8,2.8c-0.4,1-1,1.7-0.3,2.9c0.3,0.6,0.3,1.7,0.4,2.6c0.2,1.2,0.5,2.4,0.7,3.7c0.1,0.6-0.2,1.1,0.4,1.8
				c1.1,1.3,0.1,3.2,0.3,4.8c0.1,0.5-0.9,0-0.9,0.8c1.2,0,2.2,0.2,1.4,1.8c-0.2,0.4,0.3,0.3,0.5,0.4c1.6,0.6,2.7,2.5,2.1,4.2
				c-0.4,1.1,0.1,1.9,0.2,2.7c0.4,1.7,0,3.5,0.8,5.1c1.1,2,1.2,4.3,1.7,6.5c0.3,1.3,0.6,2.7-0.2,4.1c-0.1,0.2,0.8,0,0.7,0.7
				c-0.1,0.9,0.7,1.7,0,2.6c0.9,0.6-0.4,1.8,0.7,2.5c0.4,0.2,0.5,1.8,0.2,2c-1.1,0.8-0.4,1.1,0.2,1.5c0.9,0.7,0.4,1.6,0.2,2.2
				c-0.8,2.6-1.1,5-0.1,7.7c0.4,1,1.3,2,1.1,3.4c-0.3,1.4-0.3,2.9-0.2,4.3c0.2,2.7-0.3,5.3-0.3,8c0,2.7,0.3,5.4-0.6,7.9
				c-0.4,1,0.7,3-1.5,3.3c1.4,0.3,1.4,1,1.3,2.1c-0.1,1.1-0.1,2-0.7,3.1c-0.6,1.2-1.2,0.6-1.8,0.7c-0.7,0.2-1-0.4-0.8-1.2
				c0.1-0.3-0.1-0.5-0.4-0.6c-0.3-0.1-0.7,0.1-0.8,0.4c-0.7,1-0.6,2.3-1,3.4c-0.2,0.5,1,0.8,1.1,0.3c0.4-1.3,2.1-0.5,2.6-1.6
				c0.1-0.2,0.7-0.2,1,0.1c0.4,0.3,0,0.5,0,0.8c-0.3,1-0.4,1.9-0.3,3c0.1,0.8,0.2,1.7-0.3,2.5c-0.7,1.2-0.7,2.6-0.7,4
				c0,1.4-0.4,2.7-0.9,4c-0.5,1.3-1.1,2.5,0,3.8c0.5,0.5,0,1.1-0.2,1.5c-0.5,1.4,0.7,2.8-0.1,4.2c-0.8,1.5,0.1,3,0,4.6
				c-0.1,1.6-0.3,2.5-2.1,2.1c0,0.6,0.3,0.6,0.7,0.6c1.4-0.2,1.8,0.9,1.5,1.6c-0.3,0.9,0,2.1-0.9,2.8c-0.1,0.1-0.2,0.2-0.1,0.4
				c1,2.9,0,5.7-0.2,8.6c-0.2,2.8-0.8,5.6-0.5,8.4c0.1,0.8-0.2,1.5-0.2,2.2c0,0.8-0.2,1.6-1.6,1.2c1.4,0.5,1.3,1.5,1.2,2.4
				c-0.2,1.8,0.3,3.7-0.2,5.5c-0.3,1.2-0.4,2.4-0.1,3.6c0.2,1-0.7,0.9-1.2,1.2c0.1,0.7,1.3,0.4,1.1,1.3c-0.2,0.7-0.6,1.1-1.2,1.4
				c-0.8,0.4-0.9,1.8-2.2,1.6c0.7,0.8,1.5,1,2.5,1.1c0.5,0.1,1.1,0,1.3,0.5c0.3,0.9-1,0.2-0.9,1c0.8,0.1,2.2-0.4,1.3,1.4
				c-0.2,0.4,0.4,0.6,0.8,0.9c2.4,1.8,4.8,3.4,6.7,5.8c0.4,0.5,1,0.7,1.5,1.1c1.3,1.2,2.6,2.7,4.2,3.1c1.7,0.5,3.1,1.5,5,1.6
				c1.9,0.2,4,0.6,5.9,1.1c3,0.8,5.5,2.7,8,4.6c0.8,0.7,1.3,1.4-0.5,1.7c2.1,0.4,2.7,1.2,2.9,3.5c0.2,1.6-0.5,3.3,0.3,4.9
				c0.2,0.4-0.3,0.8-0.7,0.9c-3.2,1.5-6.6,2.9-10.1,3.3c-4.1,0.4-8.2,0.7-12.3,0.4c-2.1-0.2-4.1,0.4-6.1,0.8c-1,0.2-1.9,0.2-2.9-0.3
				c-1.4-0.7-3-0.8-4.6-0.7c-1.6,0.1-3,0.1-4.3-1.4c-1.1-1.3-3.1-0.6-4.7-0.9c-0.5-0.1-1,0.1-1.6-0.1c-1.7-0.7-3.5-0.3-5,0.5
				c-4.7,2.7-9.8,2.9-15,2.3c-0.8-0.1-1.9,0.6-2.4-0.7c-0.1-0.2-0.2-0.1-0.4,0c-1.8,1.2-3.4,0.5-3.7-1.5c-0.1-1.1-0.7-2.2,0.1-3.3
				c0,0,0-0.1,0-0.2c-1.7-1.5-0.2-2.1,1.2-2.8c-2.6-0.1-1.6-2.1-1.9-3.1c-0.3-1.1,0.3-2.5,0.3-3.7c0-0.9,0.5-0.9,1.4-0.9
				c-0.8-0.2-1.9-0.1-0.9-1.1c0.6-0.6,0.8-1.7,0.7-2.2c-0.6-2.9,1.7-4.6,2.9-6.7c0.6-1.1,0.7-3.7-0.2-4.7c-0.6-0.7-0.9-1.4-1-2.3
				c0-0.7-0.2-1.5,1.2-1.5c-1.2-0.2-1.2-0.8-1.2-1.7c-0.1-1.9-0.4-3.9-0.7-5.8c-0.3-2.5,0.5-4.9,0.4-7.4c-0.1-1.8-0.1-3.6-0.2-5.4
				c-0.1-1.2,0.1-2.5-0.3-3.7c-0.1-0.4-0.2-1.3,0.7-0.5c0.1,0.1,0.3,0,0.4-0.2c0.1-0.3-0.1-0.5-0.4-0.6c-1.2-0.5-0.6-1.6-0.8-2.4
				c-0.2-0.7,0.8-0.3,1.1-0.9c-1-0.1-1.1-0.7-1.1-1.6c0-3.7,0.4-7.3,0.4-10.9c0-4.6-0.3-9.3,0.1-13.9c0.1-1.1,0-2.3,0.2-3.5
				c0.2-1-0.7-1.4-1-2.1c-0.2-0.4-0.5-0.7-0.1-1.2c0.4-0.4,0.7-0.2,1.1,0c0.7,0.5,1.7,0.7,2.2,1.5c0.1,0.2,0.5,0.3,0.7,0
				c0.1-0.1,0-0.4-0.1-0.6c-1.2-1.2-2.3-2.6-4.3-1.7c-0.6,0.3-0.9-0.3-0.9-0.8c0-1.1-0.3-2.3-0.4-3.3c-0.1-1.5-0.6-2.9-0.5-4.5
				c0.1-1.8,1.1,0,1.5-0.4c0-0.1,0.1-0.2,0.1-0.3c-3-1.9-2.8-5.3-3.6-8.2c-0.7-2.5-1.9-5-1.9-7.7c0-1.7-1-3.1-1-4.9
				c0-1-0.7-2.1-1.2-3.2C295.1,516.8,294.5,515.8,296.1,514.9z M333.7,473.9c-1.5-0.7-2.6,0.6-4,0.7c-0.7,0.1-0.3,1.1-0.6,1.7
				c-0.2,0.4,0.4,0.5,0.8,0.6c0.5,0.1,1-0.1,1-0.8c0-0.4,0.3-0.8,0.5-0.7C333,476,333.1,474.6,333.7,473.9c0.4-0.3,0.9-0.5,1.4-0.7
				c1.2-0.7,0.6-1.7,0.3-2.5c-0.4-1.1-1.1-0.3-1.7,0C332.2,471.7,333.3,472.8,333.7,473.9z M240,505.2c0,0.2-0.1,0.3-0.1,0.5
				c0.1,0.6,0.3,1.2,1,1.3c0.6,0.1,1-0.5,1.2-0.9c0.2-0.6,0.1-1.4-0.4-1.8c-0.6-0.4-0.7,0.6-1.2,0.8
				C240.4,505.2,240.2,505.2,240,505.2c-0.4-1-1.2-1.6-2.1-2.2c-0.6-0.3-1.3-0.1-2-0.5c-0.9-0.6-2-0.4-2.8,0.3
				c-0.2,0.2-0.9,0.2-0.7,0.7c0.2,0.6,0.7,0.3,1.1,0.2c1.4-0.6,1.2,0.2,0.9,1c-0.1,0.3-0.4,0.6-0.1,0.9c0.3,0.4,0.7,0.1,1,0
				c0.5-0.1,0.9-0.4,1-1c0.1-0.5,0.1-1.1,0.8-0.9c0.6,0.2,1.6,0.2,1.7,1.2c0,0.4-0.4,0.9,0.2,1.1C239.6,506.3,239.6,505.5,240,505.2
				z M236.5,310.6c-0.3,0.4,0,0.8,0,1.2c0.3,1.6,1.3,3.2-0.3,4.7c-0.4,0.3,0.2,0.8,0.4,1.1c0.2,0.3,0.7,0.2,0.8,0
				c0.5-0.7,1.2-1.1,1.2-2.2c0-0.9-0.8-1.6-0.5-2.4C238.5,311.4,237.7,310.9,236.5,310.6c0.6-0.7,0.5-1.7,1.1-2.5
				c0.3-0.4,0.3-1.3-0.4-1.5c-1.1-0.2-1.7-1-2.4-1.7c-1-0.9-1.4-0.7-1.7,0.7c-0.3,1.4-1.7,2-2.9,1.2c-0.6-0.4-1.3-0.6-1.6-0.2
				c-1.2,1.5-3.3,1.2-4.7,2.4c-0.6,0.5-1.6,1-2.1-0.3c-0.5-1.5-1.2-1.7-2.5-1c-0.6,0.4-1.1,1.4-1.8,1.1c-2.2-0.9-3.4,0.8-4.9,1.7
				c-1.1,0.6-1,1.9-0.8,2.8c0.2,0.8,1.3,0.4,2,0.2c1.9-0.5,3.9-0.4,5.9-0.8c0.6-0.1,1.9-0.1,2.7,0.4c0.3,0.1,0.6,0.4,0.7,0.6
				c0.1,0.4-0.3,0.6-0.5,0.7c-1.5,0.4-2,1.6-2.8,2.8c1.5-0.2,3.5,0.6,4.4-0.7c1-1.4,2.2-1.7,3.5-1.9c1.5-0.1,2.8-0.6,4.1-1.2
				c0.4-0.2,1-0.3,1-1.1c-0.1-1.6,0.8-2,2.2-1.9C235.5,310.6,236,310.6,236.5,310.6z M267.2,432.3c1.3-0.1,2.5-0.6,3.7-0.9
				c0.9-0.2,1.7-0.3,2.1,1c0.3,0.9,0.4,1.8,0.6,2.6c0.2,0.7,0.6,1.3,1.4,1c0.9-0.3,0.3-0.9,0.1-1.4c-0.4-0.8-0.3-1.6,0.7-1.6
				c0.9-0.1,1.9,0.7,2.2,1.2c0.7,1.3,1,2.9,1.3,4.3c0.1,0.4-0.2,1,0.5,1.2c0.5,0.1,0.9-0.1,1.1-0.6c0.3-0.6,1.1-0.6,1.1-0.1
				c-0.1,1.7,1.1,1.4,2.1,1.5c0.5,0.1,0.8,0.2,0.9,0.7c0.2,0.8,0.5,0.7,1.1,0.2c1.2-1,2.6-1.6,4.3-1.3c1.3,0.2,1.6-0.5,1.4-1.6
				c-0.2-0.8-0.4-1.5-0.6-2.2c-0.1-0.4-0.1-0.8,0.3-1c0.5-0.2,0.9,0.1,1,0.5c0.2,0.8,0.5,1.6,0.1,2.3c-0.3,0.6-0.1,1,0.3,1.4
				c0.8,0.6,1.7,0.3,2.5,0.1c0.7-0.2,0.5-0.8,0.4-1.4c-0.4-2.4-0.9-4.8-0.5-7.2c0-0.2,0-0.4-0.1-0.6c-0.3-1.9-1-3.9-0.6-5.9
				c0.2-0.9-1.1-1.6-0.6-2.6c-1-0.4-2-1.1-2.7,0.7c-0.1-1.1-0.3-1.9,0.4-2.9c-0.7,0.1-1.7,0.5-1.8-0.5c-0.1-1.2-0.9-1.9-1.3-2.9
				c-0.3-0.6-0.5-1.2-0.2-1.9c0.5-1.2,0-1.9-1.3-2.1c-2-0.2-2.7-1.3-2.5-3.3c0.1-0.9,0.1-1.9,0.1-2.8c0-0.9-1-1.2-1.5-1.4
				c-0.7-0.3-0.6,0.8-0.9,1.2c-0.2,0.4,0.1,1.1-0.7,1.3c-0.4-1-0.8-2.1-1.3-3.1c-0.2-0.6-0.7-0.8-1.3-0.7c-0.6,0.1-1.3,0.6-1.2,0.9
				c0.2,1.4-0.5,2.7-0.6,4c-0.1,1.3,0.4,2.5,0.2,3.8c-0.2,1-0.4,1.5-1.5,1.3c-0.4-0.1-0.8-0.2-1.1,0.1c-1.2,0.8-1.2-0.1-1.3-0.9
				c0-0.5,0.2-1,0.3-1.6c-1.7,0.6-3.3,1.1-4.1-1.1c-0.1-0.1-0.5-0.2-0.7-0.2c-1.2-0.1-1.5-0.8-1.3-1.9c0.1-0.6,0-1.1-0.6-1
				c-0.9,0.2-1.9,0.4-2.5,1c-1.1,1.1-2.4,2.4-1.8,4.3c0,0.1-0.2,0.2-0.3,0.3c-0.1-0.1-0.2-0.2-0.3-0.2c-0.1-0.4-0.2-0.7-0.3-1.1
				c-0.5-2.8-0.6-2.6-3.3-3.4c-0.9-0.2-2,0.2-2.8-0.8c-0.2-0.3-1.1-0.1-1.3,0.5c-0.6,1.2-1.7,1.1-2.6,0.7c-1.1-0.5-1.1,0.1-1.2,0.8
				c-0.1,0.4,0.1,1.1-0.8,0.7c-1.3-0.6-2.2-1.5-1.9-3.1c0.1-0.4,0.2-0.9-0.1-1.2c-0.2-0.3-0.2-0.9-0.9-0.7c-0.4,0.2-1.1,0.6-0.8,1
				c0.5,0.9-0.8,1.6,0.1,2.6c0.5,0.5-1.1,2.2-1.9,2.1c-1-0.1-1.4,0.2-1.3,1.2c0,1.5,0.4,3,0.3,4.6c-0.1,1.3-0.6,3.1-1.8,3.5
				c-0.7,0.2-1.3,0.1-1.4,1.2c-0.1,0.7-0.1,1.6,0.2,1.9c0.8,0.8,0.5,1.5,0.4,2.4c-0.1,1-0.8,2-0.1,3.1c0.1,0.2,0,0.4-0.3,0.5
				c-0.2,0.1-0.5,0-0.4-0.3c0.1-1-1.2-1.7-0.7-2.9c0.2-0.5-0.2-0.8-1-1c0.3,1.9-1.6,3.6,0.1,5.4c0.1,0.1,0,0.3,0,0.5
				c0.1,2-0.9,3.9-0.4,6c0.1,0.4-0.2,1-0.6,1.5c-1.3,1.4-1.4,3.9-0.2,5.3c0.3,0.4,0.6,0.4,1,0.3c0.3-0.1,0.8,0,0.7-0.4
				c-0.3-0.8,0.4-1.3,0.5-1.9c0.1-0.4-0.1-1,0.5-1c0.6,0,0.4,0.6,0.5,1c0.1,0.4,0.2,0.9,0.7,0.9c0.5,0,0.8-0.3,0.9-0.8
				c0.1-0.8,0.6-1.3,1-2.1c0.4,0.8,0.5,1.6,0.1,2c-0.9,0.9,0.4,1.6,0.1,2.4c0.9,0.2,1.2-0.3,1.5-1c0.1-0.3,0.4-0.3,0.7-0.3
				c0.7,0,0.8-0.4,0.8-1.1c0-1.1,0.1-2.2,0.2-3.3c0.1-0.7,0.2-1.2,1.3-0.8c0.9,0.4,2.1,0.9,3.1,0.5c1.2-0.5,1.9-0.5,2.4,0.8
				c0.1,0.3,0.3,0.5,0.6,0.4c0.1,0,0.3-0.2,0.3-0.3c-0.3-1.6,0.7-3.2,0.4-4.8c-0.1-0.6-0.1-1.3,0.8-2c-0.1,1.2,0.3,2.1-0.2,3
				c-0.2,0.5,0.1,1,0.5,1.4c0.2,0.2,0.5,0.1,0.7-0.1c0.5-0.4,0.3-0.9,0.2-1.3c-0.1-0.4-0.4-0.8-0.4-1c0.6-2,0.1-3.9,0-5.9
				c-0.1-1.4,1.2-2.1,2-3c0.3-0.3,0.8-0.3,1,0.3c0.5,1.8,1.3,3.6,0.9,5.6c0,0.3-0.1,0.5,0.1,0.7c0.8,1.4,0.8,1.4,0.2,2.7
				c-0.1,0.3,0,0.3,0.2,0.4c0.5,0.2,0.8,1,1.6,0.6c0.3-0.2,0.3-0.3,0.2-0.6c-1-2.1-0.5-4.4-1.2-6.6c-0.4-1.2,0.1-2.4,1.2-3.2
				c0.8-0.6,1.4-0.6,1.5,0.5c0.2,1.8,0.8,3.6,0.7,5.5c0,0.8,0,1.8,0.5,2.2C266,433.6,266.6,432.5,267.2,432.3L267.2,432.3z
				 M229.3,328.4c-0.2-0.3-0.7-0.5-0.8-0.9c-0.4-1.2-1.1-1.1-2.1-0.9c-1,0.1-1.4,1-2.4,1.1c-4.4,0.4-7.7,2.7-10.3,6.2
				c-0.4,0.6-1.1,1.2-1.9,0.6c-0.8-0.6-0.1-1.1,0.2-1.6c0.2-0.3,0.3-0.6,0.3-1c0.2-1,0.7-1.6,1.5-2.3c0.8-0.7,2.2-0.8,2.6-1.7
				c0.7-1.5,2.1-2,3.4-2.6c1.2-0.5,2.3-0.9,2.9-2.3c0.2-0.5,0.8-1,0.2-1.5c-0.5-0.4-1.2-0.6-1.8-0.1c-0.7,0.5-1.5,0.8-2.4,0.8
				c-1.5,0-1.7-0.3-1.2-1.7c0.1-0.3,0.1-0.7,0.2-1.1c0.4-1.3-0.1-1.2-1.1-0.9c-1.5,0.4-2.6,1.5-3.8,2.3c-2.2,1.4-5.2,1.4-7.1,3.7
				c-1.3,1.6-3.5,2.2-4.6,4.3c-0.7,1.3-0.7,2.5-0.3,3.7c0.2,0.8,1.1,1,1.8,0.3c1-1,2.2-1.8,2.9-3.2c0.5-0.9,1.8-1.4,1.8-2.8
				c0-0.1,0.6-0.2,0.9-0.3c0.9-0.3,2,0.2,2.9-0.7c0.2-0.2,1.4-0.1,1.7,0.5c0.2,0.6,0,1.3-0.4,1.8c-0.3,0.4-0.8,0.7-1,1.2
				c-1.1,1.9-2.1,3.9-3.6,5.4c-1.5,1.4-2.1,3.1-3.1,4.7c-0.4,0.7-0.2,1.2,0.4,1.8c0.7,0.7,1,0.2,1.4-0.2c1.1-1.4,2.7-2.4,4.2-3.3
				c2.1-1.3,4.4-2.4,6.3-4c0.5-0.5,1.3-0.9,1.8-0.1c0.5,0.8-0.3,1.2-1,1.5c-1.3,0.5-2.1,1.5-2.1,2.8c0.1,1-0.3,1.9-0.8,2.3
				c-1.8,1.1-2.1,3.2-3.4,4.6c-0.5,0.5-0.6,1.3-0.1,1.7c0.6,0.5,1.2,1.2,2.1,0.8c0.5-0.2,0.8-0.6,0.2-1.2c-0.8-0.8-0.8-1.9,0-2.6
				c1-0.7,2.4-0.5,3.5-0.8c0.7-0.1,0.7,0.5,1,0.8c0.3,0.4,0.8,0.6,1.1,0.3c1.1-1.1,2.4-0.9,3.7-0.9c1,0,1.2-0.5,0.8-1.3
				c-0.3-0.4,0.1-0.5,0.2-0.8c1.1-1.4,2.2-1.3,3.7-0.5c1.2,0.6,1,1.2,0.3,1.7c-1,0.8-1.8,1.6-2.1,2.9c-0.2,0.6-0.7,0.4-1.2,0.4
				c-2.2,0-3.4,1.1-3.5,3.2c0,0.2-0.2,0.4-0.3,0.5c-0.1,0.3-0.8,0.4-0.4,0.8c0.3,0.3,0.7,0.2,1.1,0.1c0.3-0.1,0.7-0.4,1.1-0.1
				c-0.2,0.3-0.4,0.5-0.5,0.8c-0.2,0.4-1,0.7-0.3,1.3c0.6,0.6,1,0.4,1.4-0.2c0.2-0.2,0.5-0.5,0.7-0.3c0.8,1,1.5,0.6,2.3-0.1
				c0.2-0.2,0.6-0.2,0.9,0.1c1.8,1.2,2.9,1.1,4.4-0.2c0.6-0.6,1.5-0.7,2.4-0.6c0.3,0,0.5,0.3,0.4,0.6c-0.1,0.7,0,1.5,0,2.2
				c-0.2,1.7-0.2,1.8,1.6,1.5c0.4-0.1,0.9-0.3,0.9,0.4c0,0.6,0.3,0.9,0.9,0.9c0.9-0.1,0.3-0.7,0.3-1.1c0.1-2.1,0.6-2.5,2.6-2.1
				c0.2,0,0.5,0.2,0.6,0.1c1.1-1.3,1.3,0.1,1.7,0.6c0.3,0.3,0.6,0.6,0.8,1c0.4,0.7,0.9,1.3,0,2.1c-1,1,0.3,2.2,0,3.4
				c-0.1,0.3,0.6,0.2,1,0.1c1-0.3,2-0.7,3.1-1c0.5-0.2,1.2,0,1.4-0.8c0.2-1.3,1.4-1.9,2.4-2.1c1.2-0.3,1.6-0.9,1.6-2
				c1.2,0.6,1.3,0.6,1.8-0.4c0.4-0.8,1.1-1.1,1.9-1.3c0.3-0.1,0.8-0.3,0.9,0.3c0.4,1.9,0.1,3.6-0.7,5.4c-0.5,1-1.2,0.4-1.8,0.6
				c-0.5,0.2-0.9,0.5-1.1,0.9c-0.9,1.4-1.9,2.6-3.2,3.8c1,0.3,1.7,0.4,2.6,0.3c2.6-0.3,4.7-1.5,6.5-3.3c0.4-0.4,1-1.4,1.6-0.3
				c0.4,0.8-0.2,1.7-0.8,1.9c-2.3,0.7-3.5,2.4-4.4,4.6c2.6-0.2,5.2,1,7.7,0c0.2-0.1,0.6,0,0.9,0.2c0.8,0.4,1.6,0.6,2.3-0.2
				c0.5-0.5,1.1-0.3,1.7-0.3c0.4,0,0.9-0.3,1.1,0.2c0.2,0.4-0.2,0.8-0.6,1c-0.8,0.6-0.1,1.3,0.2,1.7c0.4,0.6,0.8,0.1,1.3-0.2
				c1.5-1.3,3.1-2.6,4.9-3.5c0.4-0.2,0.8-0.4,0.9,0.1c0.4,1.4,1.2,0.6,1.7,0.2c0.6-0.5,1.2-1.1,1.6-1.9c0.3-0.5,0.4-1.4,1.5-1.4
				c-0.9,0.6-0.6,1.4-0.6,2.2c0.1,0.5-0.3,1.1,0.6,1.2c0.7,0,1.5,0,1.6-0.9c0.1-1.1,0.3-1.9,1.6-1.6c0.4,0.1,0.7-0.2,0.8-0.6
				c0.8-2.2,1.5-4.5,2.3-6.7c0.4-1-0.3-2.4,1.3-3.2c-2.7-0.5-3-2.7-3.7-4.4c-0.3-0.8-0.6-1.4-1.6-1c-0.7,0.2-1.1-0.1-1.3-0.8
				c-0.2-0.6-0.7-0.9-1.4-0.9c-0.5,0-0.9-0.1-1.3-0.5c-1.4-1.8-4-1.8-5.6-3.3c-0.1-0.1-0.4,0-0.6-0.1c-1.6-0.4-2.9,0.3-4.3,0.8
				c-0.7,0.3-1.1,0.6-1,1.5c0.1,1.7-0.8,2.7-2.4,3c-0.2,0-0.4,0.1-0.6,0.2c-2.8,1.4-4.3,0.9-6-2.1c1.1-0.2,1.6,0.8,2.4,1
				c0.5,0.1,1.1,0.5,1.5-0.1c0.4-0.6-0.2-0.9-0.6-1.2c-0.3-0.2-0.8-0.3-0.7-0.8c0.1-0.5,0.6-0.3,1-0.4c0.4-0.1,1.1,0.3,1.2-0.4
				c0.1-0.5,0-1.1-0.6-1.4c-0.6-0.3-0.5-0.8-0.6-1.3c-0.2-1.3-0.2-2.8-1.7-3.2c-0.9-0.3-1.9-0.7-2.6-1.2c-1.4-1-2.3-0.3-3.2,0.4
				c-0.6,0.4-1,1.1-1.7,1.3c-0.3,0.1-0.5,0.3-0.3,0.6c0.9,2-0.7,2.8-1.6,4c-0.6-0.9-0.1-2-0.6-2.5c-0.7-0.8-0.4-0.8,0.2-1.2
				c0.5-0.3,0.9-1.1,0.7-1.3c-1.2-0.7-0.9-2.4-2.1-3c-0.4-0.2-0.9,0.3-1.2,0.7c-0.4,0.4-0.6,1-1.2,1.8c0.1-1.6-0.3-2.6-1.7-2.5
				c-1.2,0-2.4,0.7-2.5,1.8c-0.6,3.2-2.2,6.2-2.6,9.4c-0.1,0.6-0.4,0.8-0.9,1c-0.5,0.2-0.9,0-1.2-0.5c-0.2-0.4-0.5-0.8-0.8-1.2
				c-0.6-0.7-0.6-1.3,0.3-1.8c0.8-0.5,1.8-3.5,1.4-4.3c-0.1-0.3-0.4-0.6-0.9-0.5c-1.5,0.3-2.6-0.5-2.2-1.9c0.4-1.5,0.6-3.1,1.9-4.2
				c0.5-0.4,0.8-1,0.5-1.4c-0.3-0.4-1-0.5-1.6-0.1c-0.3,0.2-0.6,0.4-0.9,0.6c-1.4,1.4-2.4,3.2-4.3,4.1c-0.4,0.2-0.8,0.7-1.1,1.2
				c-0.6,1.4-1.7,1.6-3.1,1.4c0.2-1.6,1.7-2.4,2.4-3.7c0.2-0.5,0.5-0.8,0.2-1.3c-0.3-0.5-0.9-0.2-1.1,0.1c-0.8,0.9-1.8,1.1-2.9,1.3
				c-0.8,0.1-1.5,0.7-2.2,1.2c-0.8,0.5-0.5,1.7-1.5,1.9c-1.2,0.2-2.3,0.4-3.6,0.7c0.8-1.8,2.4-2.6,3.8-3.6c0.5-0.3,0.7-0.4,0.2-1
				c-1-1.3-0.7-2.2,0.8-2.9c0.5-0.2,1.2-0.2,1.3-0.8C226.6,328.7,228.2,328.9,229.3,328.4z M236.1,251.2c1.8,0.6,0.9,1.8,0.9,2.8
				c0,0.5-0.3,0.7-0.7,0.6c-0.6-0.1-0.5-0.5-0.3-0.9c0.6-1.4-0.3-2-1.3-2.4c-1.1-0.4-2-0.5-3,0.7c-0.9,1.1-1.3,3-3.1,3.2
				c-0.3,0-0.1,0.2-0.1,0.3c-0.3,1-0.5,2.3-1.2,2.8c-1.5,1.1-2.7,2.5-4.1,3.5c-1,0.7-0.3,1.5-0.1,1.8c0.5,0.6,1.1,0.1,1.4-0.4
				c0.4-0.6,0.8-1,1.5-1.1c0.6-0.1,1,0.2,0.8,0.8c-0.3,0.8-0.6,1.6-1,2.4c-0.1,0.3-0.7,0.4-0.3,0.9c0.3,0.4,0.7,0.1,1,0
				c2-0.5,2.5-0.1,2.6,1.9c0,0.4-0.3,0.9,0.3,1.1c0.5,0.2,0.9-0.1,1.2-0.5c0.2-0.3,0.2-0.8,0.7-0.6c0.1,0.1,0.3,0.3,0.3,0.5
				c0.1,0.4-0.1,0.7-0.5,0.8c-0.8,0.2-1.4,0.8-2.3,0.9c-0.8,0-1.9,0.4-1.7,1.8c0.1,1.3-0.9,2.5-2.4,2.9c0.2-1,1.2-1.4,1.5-2.2
				c0.1-0.4,0.5-0.9-0.1-1.2c-0.5-0.2-0.7,0.2-0.9,0.6c-1.3,2.1-2.6,4-1.2,6.7c0.4,0.8,0.4,1.8,1.6,2c0.5,0.1,0.9,0.5,0.5,0.9
				c-0.9,1.1-1.1,2.5-2.4,3.3c-2,1.3-4,2.5-5.7,4.2c-0.5,0.5-1.4,0.6-1.1,1.7c0.1,0.4-0.5,0.6-0.9,0.7c-0.8,0.2-1.7,0.3-2.5,0.6
				c-0.7,0.2-1,0.7-0.9,1.5c0.1,0.6,0.6,0.9,1.3,1.1c0.6,0.2,1.3-0.3,2,0.1c-0.3,0.5-0.7,0.5-1.1,0.7c-0.9,0.5-1.2,1.4-1.3,2.3
				c-0.1,0.9,0.2,1.5,1.3,1.5c0.7,0,0.5,0.6,0.2,1c-0.4,0.5-0.9,0.9-1.3,1.4c-0.6,0.7-0.2,1.7,0.6,1.9c1.7,0.4,3.2-1,2.9-2.7
				c0-0.1,0.1-0.2,0.2-0.4c0.9,1.6,0.9,1.6,2.6,1.2c0.5-0.1,0.8,0,1.2,0.2c1.5,0.7,1.9,0.4,2.6-1.1c0.3-0.7,0.6-2.2,1.8-0.7
				c0.4,0.5,0.6,0,0.9-0.4c0.6-0.6,1.5-0.8,2.2-0.5c0.6,0.3,0.1,1.1-0.1,1.7c-0.2,0.4-0.4,0.9-0.4,1.3c0,0.6-1.2,0.7-0.5,1.4
				c0.5,0.6,1.2,0.2,1.8,0.2c0.5,0,0.8-0.3,1.2-0.7c0.5-0.4,0.6-1.4,1.3-1.4c1.7,0.1,2.2-1.2,3-2.2c0.6-0.6,0.8-1.1,0.3-1.9
				c-0.2-0.3-0.7-1-0.1-1.3c1.8-0.7,2.2-2.1,2.2-3.8c0.1-1.1,0.9-1.2,1.6-0.7c1,0.6,1.6,0.2,2-0.7c0.2-0.3,0.5-1,0.6-0.8
				c0.9,0.9,1.8,0,2.7,0.1c0.6,0.1,1.3,0.5,1.6-0.5c0.3-0.8,0.6-1.8-0.2-2.2c-1.5-0.8-1.5-2.2-2.1-3.4c-0.1-0.3-0.3-0.7-0.5-0.8
				c-1.9-0.4-1.4-2.3-2-3.4c-0.8-1.3-0.3-3.3-0.3-5.1c0-0.2,0-0.5,0.3-0.5c0.1,0,0.4,0.2,0.4,0.2c-0.4,0.8,0.6,1.5,0.3,2.3
				c-0.1,0.5-0.8,1.1-0.1,1.4c1,0.3,2.2,1.3,3,0.6c1.8-1.9,3.2-0.7,4.8,0c0.8,0.3,1.7,0.8,2.2,0c0.5-0.7,1-1.7-0.2-2.5
				c-0.5-0.3-0.9-1-1.3-1.6c-0.6-1-0.1-1.9,1-2.1c0.7-0.1,1.1-0.2,0.7-1.1c-0.4-0.9-0.8-1.7-1.5-2.4c-0.3-0.3-0.5-0.5-0.2-1
				c0.8,0.2,1.4,0.8,2,1.4c0.5,0.6,1.3,0.6,1.9,0.3c0.5-0.3,0.4-0.9,0.1-1.4c-2-3.3-3.5-6.9-6.2-9.8c-0.3-0.3-0.5-0.8-0.1-1.1
				c0.3-0.3,0.8,0,1,0.2c0.6,0.8,1.8,1,2.4,1.9c0.5,0.7,1.2,0.6,1.5,0c0.3-0.5,0.9-0.6,1.3-1c-2-1-2-1-0.1-2.3
				c0.2-0.1,0.4-0.2,0.5-0.3c0.4-0.2,0.9-0.5,0.7-1c-0.2-0.5-0.8-0.6-1.3-0.3c-1.4,0.6-2.3-0.1-2.7-1.3c-0.7-2.2-2.3-3.2-4.4-3.7
				c-0.3-0.1-1.2,0.3-1-0.6c0.2-0.6,0.8-0.5,1.3-0.4c0.4,0.1,0.8,0.3,1.2,0.5c0.9,0.6,1.9,0.7,2.9,0.9c0.3,0.1,0.8,0,1-0.2
				c0.3-0.4-0.1-0.7-0.4-0.9c-1.2-1.1-2.3-2.2-3.6-3.1c-1-0.7-2.6-0.3-3.3,0.8c-0.3,0.5-0.6,0.8-1.1,0.8c-1.8,0.1-3.4,0.9-5.1,1.1
				c-0.4,0-0.8,0.1-0.6,0.6C238.1,251.3,237.1,251.2,236.1,251.2z M323.1,412.2c-0.7,0-1.2-0.9-1.9-0.3c-1.5,1.3-1.9,0.1-2.2-1
				c-0.6-2.1-2-3.7-2.8-5.7c-0.2-0.5-0.7-1.1-1.2-1.2c-1.6-0.3-2.1-1.4-2.7-2.6c-0.2-0.3-0.4-0.6-0.7-0.9c-0.2-0.2-0.5-0.4-0.9-0.2
				c-0.3,0.3,0.1,0.4,0.1,0.6c0.2,2.2,0.3,4.3,0.4,6.5c0,0.3-0.1,0.4-0.3,0.5c-0.3,0.1-0.4-0.2-0.4-0.4c-0.1-0.5-0.2-0.9-0.3-1.4
				c-0.2-1.8-0.5-3.5-0.7-5.3c-0.1-0.4,0-1-0.6-1c-0.5,0-0.4,0.5-0.5,0.9c-0.9,2.5,0.6,4.9,0.7,7.4c0.1,1.6,1.4,3,1.1,4.8
				c-0.1,0.8,0.3,1.6,0.3,2.5c0,1.6,0.2,3.2,0.1,4.8c-0.2,1.5,1.2,3.1-0.4,4.4c0,0,0.1,0.3,0.2,0.3c0.9,0.2,0.5,0.8,0.5,1.3
				c0.1,1.7-0.2,3.5,1.2,4.9c0.3,0.3,0.2,0.7,0.1,1.1c-0.5,1.2-0.7,2.4,1.1,2.8c-1.2,0.9-1.2,0.9-1.1,1.8c0.1,0.8-0.5,1.4-0.3,2.2
				c0.1,0.5,0.8,0.5,0.9,0.2c0.1-0.5,1.1,0.2,0.9-0.7c-0.1-0.5,0-1.1-0.1-1.7c0-0.3,0-0.6,0.3-0.7c0.3-0.1,0.5,0.1,0.7,0.3
				c0.5,0.6,1,0.9,1.8,0.8c2.1-0.1,4.1,0.1,6.2-0.3c1.4-0.3,3-0.7,4.2-0.3c1.9,0.6,2.9-0.6,4.2-1.3c1.1-0.6,2.3-1.5,0.9-3.1
				c-0.2-0.2-0.2-0.7-0.2-1.1c-0.1-1.2-1.5-2.1-0.7-3.4c-1.2-0.5-0.9-2.8-2.8-2.5c-0.6,0.1-0.5-0.6-0.5-1c-0.3-1.5,0.1-3.1-0.2-4.6
				c-0.4-2.5-1.5-4.9-1.8-7.4c-0.3-2-1.6-3.6-2.1-5.5c-0.2-0.8-0.6-1.1-1.3-1c-1.1,0.1-0.8,0.9-0.6,1.4
				C322.2,408.9,322.8,410.4,323.1,412.2z M299.2,311.4c-0.5-0.5,0-1,0-1.4c0.1-2.4-0.5-3.7-2.9-3.3c-0.7,0.1-0.8-0.3-0.9-0.8
				c-0.3-1.6,0-3.3-0.2-4.9c-0.1-0.4,0.1-1.1-0.7-1.1c-0.5,0-0.6,0.5-0.8,1c-0.5,1.1,0.3,2.1-0.1,3.1c-0.6,1.5-1.5,3-2.4,4.4
				c-0.4,0.6-0.9,0.9-0.6,1.8c0.2,0.5-1.5,3-1.8,2.8c-0.7-0.4-0.5-1.4-0.8-2c-0.1-0.2,0-0.5-0.5-0.5c-0.1,0.2-0.1,0.5-0.3,0.7
				c-0.2,0.4,0.4,0.9-0.2,1.1c-0.5,0.1-0.5-0.4-0.7-0.7c-0.3-0.6-0.6-0.2-0.8,0c-1,1-2.6,1.5-2.6,3.3c0,0.3-0.4,0.7-0.7,0.9
				c-1.8,0.8-0.9,1.9-0.2,2.8c0.5,0.7,0.9,1.3,0.6,2.2c-0.1,0.2-0.3,0.3-0.1,0.7c0.6,1,0,2.2-1.1,2.6c-0.7,0.2-1.1,0.1-0.9-0.7
				c0.3-1.1,0.1-2.2,0.2-3.3c0-0.4,0.4-1.1-0.4-1.1c-0.7,0-1,0.6-0.9,1.3c0.5,1.8-0.4,3.6,0,5.4c0.1,0.4-0.2,0.6-0.5,0.7
				c-1.2,0.3-2.1,1.3-3.3,1.6c-0.7,0.2-1.3,0.6-1.5,1.5c-0.1,0.7-0.6,1.2-0.9,1.8c-0.4-0.2-0.3-0.4-0.2-0.7c0.2-0.4,0.6-0.8-0.1-1
				c-0.4-0.1-0.9,0-1.1,0.7c-0.3,1.3-0.1,2.7-0.8,4c-0.2,0.3,0.1,0.5,0.3,0.6c1.3,0.6,3.9-0.2,4.7-1.5c0.6-1,2.8-1.7,3.7-1
				c1.1,0.9,1.7,0.4,2.3-0.6c0.2-0.3,0.1-1,0.8-0.8c0.5,0.1,0.6,0.6,0.7,1c0.1,0.4-0.1,1.2,0.8,1.2c0.9,0,1.8,0.3,2.7,0.4
				c1,0,2.2,0.7,3-0.7c0.3-0.5,0.8,0,0.8,0.2c0.2,1.3,1.2,1.3,2.1,1.5c1,0.1,2,0.1,3,0.3c2.1,0.3,4.2-1.4,4-3.5
				c-0.1-1.3,0.2-2,1.8-2.5c-1.9-0.2-1.4-1.2-1.4-2c0-2,0.8-3.9,0.9-5.9c0-1.3-0.4-2.7-0.4-4c0-1.9,0.4-3.8,0.5-5.7
				c0-0.7-0.6-1.7,0.3-2.3c-0.7-0.4,0.1-1.7-1-1.8c-1.1-0.1-0.6,0.9-0.8,1.5C299.4,309.3,299.9,310.4,299.2,311.4z M302.3,366.8
				c-0.4,0.4-0.9,0.7-1.3,1.1c-0.3,0.2-1,0.1-0.8,0.7c0.2,0.6,0.7,0.6,1.2,0.6c2.1,0,4.2,0.3,5.9-1.3c0.9-0.8,1.1-0.3,1.5,0.5
				c0.6,1.2,2.8,1.5,3.8,0.7c0.3-0.3,0.2-0.5-0.1-0.8c-0.9-1-1.5-2.2-2.6-3c-0.9-0.6-0.6-1.7,0-2.3c0.6-0.5,1.6-0.5,2.1,0.4
				c0.5,0.8,1.1,0.9,1.9,1c2,0.4,4.6-0.5,5.5,2.5c0.2,0.7,1.6,1,2.4,0c0.5-0.7,1.1-0.9,1.9-1c1.5-0.2,3-0.3,4.4-0.6
				c0.4-0.1,1.1-0.1,1.1-0.7c0-0.7-0.8-0.6-1.1-1c-0.3-0.3-0.6-0.1-0.9,0.1c-0.9,0.6-1.9,0.2-2.3-0.4c-0.8-1.2-2.2-1.5-3.2-2.5
				c-2.2-2.1-5.2-3.4-7.4-5.6c-1.3-1.3-2.3-2.3-3.1-4.1c-1.1-2.7,0.9-4.7,0.5-7c0-0.1,0.2-0.2,0.3-0.3c2.5-1.7,2.4-5.8,0.7-7.7
				c-0.4-0.4-0.9-0.6-1.5-0.4c-0.5,0.2-0.9,0.6-0.8,1.1c0.4,1.4-0.3,2.2-1.5,2.7c-0.4,0.2-0.4,0.6-0.5,1c-0.5,1.7-0.3,3.7-2.5,4.3
				c0,0-0.1,0.1-0.1,0.1c-0.6,1.9-2,3-3.8,3.7c-0.5,0.2-0.1,0.2,0,0.3c0.5,1.5,0,2.1-1.6,1.7c-0.6-0.1-1.2-0.4-1.8,0.2
				c-1.2,1.1-2.6,1.8-4.2,1.7c-2.5-0.1-4,1-4.6,3.4c0,0.1-0.1,0.2-0.2,0.3c-0.7,0.7-0.3,1.3,0.1,1.8c0.5,0.7,1.2,0.9,2.1,0.9
				c1.6-0.1,3,0.9,2.8,1.8c-0.3,1,0,1.2,0.9,1.4c0.6,0.2,1.4,0.3,1.4,1.3c-0.1,2.3,1.2,3.4,3.4,3.1
				C301.1,366.5,301.7,366.1,302.3,366.8z M284.3,183.7c-0.6,0.3-0.9,0.5-1.2,0.6c-0.3,0.2-0.8,0.2-0.7,0.7c0.1,0.4,0.5,0.4,0.8,0.4
				c0.8-0.1,1.6,0.1,1.6,1.1c0.1,1.1-0.9,0.8-1.5,1.1c-0.1,0.1-0.2,0-0.3,0.1c-0.4,0.3-1.2,0.1-1.1,0.7c0.1,0.6,0.8,0.6,1.3,0.5
				c1.3-0.2,2.6-0.3,4-0.4c1-0.1,2.7,0.1,2.6-1.9c0-0.4,0.5-0.5,0.8-0.6c1.2-0.2,2.4-0.4,3.6-0.7c1.1-0.3,2.5-0.6,3-1.6
				c0.5-1,0.9-2.2,0.5-3.5c-0.3-0.9,0-1.2,0.9-1c0.7,0.2,1.4-0.2,1.1-0.8c-0.3-0.6,0.1-1.9-1.3-1.9c-0.3,0-0.5-0.3-0.5-0.8
				c0.1-0.9,0.1-1.9,0.4-2.8c0.4-1.3,0.1-1.8-1.3-1.9c-1.4-0.1-2.1-1.3-1.5-2.3c0.7-1,0.4-2-0.7-2c-1.6,0-2.2-1.6-2.1-2.1
				c0.3-0.9,0.1-2.6,1.8-2.8c0.3,0,0.9-0.5,0.3-0.7c-1.2-0.4-2.1-1.4-3.2-1.9c-0.5-0.2-1,0.1-1.1,0.6c-0.1,0.4-0.5,1-0.8,0.8
				c-0.9-0.6-1.6-0.2-2.4,0.2c-0.2,0.1-0.5-0.1-0.7-0.3c-0.8-1-0.8-1-1.8-0.3c-0.4,0.3-0.8,0.8-1.4,0.1c-0.3-0.3-0.7-0.4-1-0.1
				c-0.4,0.3-0.5,0.7-0.3,1.1c0.1,0.3,0.3,0.7-0.2,1c-0.1-0.1-0.3-0.1-0.3-0.3c-0.3-1-1.1-0.8-1.7-0.6c-0.8,0.4-0.1,0.8,0.1,1.3
				c0.4,0.9,0.1,1.5-0.9,1.7c-1.3,0.2-1.1,1.1-0.7,1.7c1,1.2,0.4,2.1-0.3,3.1c-0.4,0.6-0.7,1-0.1,1.8c0.3,0.3,1.6,2.1-0.7,2.1
				c-0.7,0-0.6,1-1.1,1.4c-0.2,0.1,0.2,0.6,0.4,0.6c1.3-0.2,2.6,0.8,3.9,0.2c0.5-0.2,0.8-0.3,1,0.2c0.3,0.7-0.1,0.8-0.6,1
				c-0.9,0.3-1.9,0.3-2.6,1.2c0.6,0.6,1.3,0.4,2,0.3c0.7-0.1,1.7-0.2,1.7,0.6c0,1.1,1.1,2.1,0.4,3.3c-0.3,0.4-1.4,0.4-0.9,1.2
				c0.3,0.6,1.1,0.1,1.6,0.1C283.5,183.5,283.7,183.6,284.3,183.7z M273.5,272.7c0.6,0.3,1.5,0.1,1.7,0.7c1,3.2,1.1,0,1.5-0.2
				c0.2-0.1,0.2-0.5,0.6-0.4c-0.2,1.9-0.5,3.9-1.4,5.6c-0.6,1.1-0.1,1.4,0.7,1.5c1,0.1,1.3,0.8,1.5,1.4c0.3,1.1,0.6,1.5,1.6,0.6
				c0.3-0.3,0.8-0.1,0.8,0.1c0.1,1.1,1.3,1.9,1,3.2c-0.3,1.8,0.7,3.1,1.8,4.4c0.7,0.7,1.6,0.6,1.7-0.3c0.2-0.9,1.1-1.4,0.9-2.4
				c-0.1-0.3-0.3-1.5,0.7-1.5c0.8,0,0.9,0.7,1.1,1.3c0.1,0.2,0.4,0.4,0.4,0.7c0.3,1,0.6,0.7,1.3,0.1c1.7-1.5,2.1-3.6,2.8-5.6
				c0.2-0.7,0.1-1-0.3-1.4c-0.3-0.3-0.7-0.5-1-0.1c-0.4,0.4-0.2,0.8,0.1,1.3c0.7,1.1-0.2,1.1-0.8,1c-1.5-0.1-1.3-1.4-1.1-2.2
				c0.3-1.3,0-2.5-0.4-3.8c-0.1-0.3-0.2-0.8-0.6-0.9c-0.5-0.1-0.5,0.4-0.6,0.8c-0.1,0.3-0.2,0.5-0.5,0.5c-0.5-0.1-0.3-0.5-0.3-0.8
				c-0.1-0.5,0-1.4-0.2-1.5c-1.6-0.6-1.5-2.7-3.3-3.4c-1-0.4-1.1,0.2-1.6,0.4c-0.2-0.6-0.6-1.1-0.4-1.8c0.2-0.7,0.9-0.8,1.1-1.9
				c-1.7,1.3-1.7,0.2-1.9-0.8c0-0.4-0.2-0.7-0.2-1.1c-0.1-0.6-0.3-1.3-0.9-1.3c-0.8,0-0.2,0.9-0.5,1.3c-0.1,0.1-0.2,0.1-0.3,0.1
				c-0.5-0.6-0.6-1.4-0.8-2.2c-0.1-0.4-0.3-0.6-0.7-0.5c-0.4,0-0.8,0.2-0.8,0.6c0.1,1.3-0.9,2-1.6,3.1c2.9,0.4,1,2.4,1.1,3.6
				C275.8,272.1,275,273,273.5,272.7z M204.2,368.3c0.6-1.9,1.5-3.2,3.5-3.1c0.5,0,0.9-0.2,1.4-0.3c0.5-0.1,1-0.2,1.1-0.8
				c0-0.3-0.2-0.8-0.5-1c-0.4-0.3-1-0.3-1.3,0.1c-0.5,0.6-1.1,0.5-1.7,0.6c-1.2,0.2-2.5,0.5-3.7,0.7c-2.5,0.4-5,0.9-7.6,1.3
				c-0.3,0-0.6,0-0.7-0.3c-0.1-0.3,0.1-0.5,0.3-0.6c0.4-0.2,0.7-0.6,1.1-0.6c2.2-0.2,4-1.5,6-2.4c0.3-0.1,0.7-0.2,0.6-0.6
				c-0.1-0.5-0.5-0.3-0.9-0.3c-1.6,0.1-3.1,0.2-4.6,0.6c-0.6,0.2-1.1,0.2-1.7-0.4c-1.5-1.5-3.6-1.3-5.2-0.8c-2.4,0.7-5,1-7.4,1.6
				c-1.6,0.4-3.3,0.8-5.1,0.8c-0.5,0-1.5,0.4-1.1,1c0.6,0.9,1.4,2.3,2.4,2.2c2.6-0.2,5.3-0.1,7.8-1.2c1.5-0.7,3.2-1.2,4.9-1.2
				c0.6,0,1,0.2,1.1,0.9c0.1,0.9-0.6,0.7-1.1,0.7c-2.6,0.3-5.2,0.7-7.7,1.5c-0.9,0.3-1.9,0.3-2.8,0.6c-0.3,0.1-1.1,0.3-0.8,0.9
				c0.2,0.5,0.9,0.6,1.4,0.3c0.9-0.5,1.8-0.7,2.7-0.9c1.1-0.2,1.7,0.7,2.7,0.7c1.9,0,3.8-0.5,5.5-0.2c3,0.6,5.9,0.1,8.7-0.6
				c0.6-0.1,1.1,0,1.4,0.6c-0.7,0.6-1.5,1.1-2.2,1c-1.2-0.2-2.3,0.3-3.4,0.5c-0.8,0.2-1.3,0.3-1.2,1.3c0.1,0.9,0.5,1.3,1.5,1.3
				c1.9,0,3.7-0.3,5.6-0.5c1.2-0.1,2.1,0,2.3-1.5c0.1-0.6,0.7-0.6,1.1-0.7c3-0.5,6.1-1.3,9.2-1.4c1,0,2-0.2,2.9-1
				c-0.8-0.6-1.5-0.8-2.4-0.5c-1.2,0.3-2.5,0.8-3.7,0.5c-1.7-0.3-3.3,0-4.8,0.5C206.7,368.3,205.6,368.1,204.2,368.3z M262.3,226.9
				c0,1.6,2.3,4.5,4.2,5c0.6,0.1,1.1,0.4,1.6,0.7c1.6,0.9,2.5,2.6,4,3.7c0.6,0.5,1,1.9,1.3,2c2.4,1.3,3.5,3.7,5.4,5.4
				c1.9,1.6,3.9,3.1,5.1,5.2c0.7,1.3,2.4,1.8,2.6,3.4c0.1,0.8,0.9,0.8,1.4,0.6c0.7-0.2,0.1-0.7,0.1-1.2c-0.1-1.3-1.1-2.1-1.6-3.2
				c-0.8-1.9-2.5-2.8-3.8-4.1c-0.4-0.4-1.3-0.3-1.3-1c0-0.7,0.9-0.5,1.4-0.9c1.1-0.8,1.3-0.1,1.3,0.8c0,0.8,0.4,1.4,0.8,1.8
				c0.9,1,1.9,2,2.4,3.3c0.2,0.5,0.8,0.7,1.4,0.5c0.6-0.2,0.6-0.7,0.5-1.2c-0.2-1-0.5-1.8-1.5-2.3c-0.6-0.3-1.4-0.9-1-1.4
				c1.1-1.4,0-1.3-0.9-1.5c-0.4-0.1-0.8-0.3-0.8-0.7c-0.1-1.6-1.5-2-2.5-2.7c-0.4-0.3-1-0.4-1.4-0.8c-3-2.4-5.8-5.1-9.2-7
				c-0.3-0.2-0.6-0.4-0.7-0.8c-0.3-1.1-1.1-1.7-1.9-2.2c-0.5-0.3-0.7-0.6-0.9-1.2c-0.4-1.2-3.2-2.7-4.4-2.5
				C262.8,224.9,262.1,225.5,262.3,226.9z M337.9,320.4c-0.5,1.6-0.6,1.7-1,1.4c-1.2-0.9-1.6,0.7-2.5,0.7c-0.3,0,0.9,0.3,0.7,0.9
				c0,0.1,0,0.2,0,0.3c-0.1,0.3-0.2,0.7,0.3,0.8c0.4,0.1,0.6-0.2,0.8-0.4c0.3-0.3,0.2-0.9,0.7-1c0.9,1.1,1.3,1.1,1.8-0.1
				c0.3-0.7,0.6-1.4,0.8-2.1c0.2-0.8,0.7-1.2,1.3-1.6c0.4-0.3,1-0.2,0.9,0.3c-0.2,0.9,0.6,1.5,0.2,2.3c-0.2,0.4,0.3,1.2-0.8,1
				c-0.5-0.1-0.6,0.8-0.6,1.3c0,0.4,0.4,0.5,0.7,0.3c1.4-0.7,1.3,0.5,1.3,1.1c-0.1,1.4,0.3,2.7,1,3.9c0.2,0.3-0.1,1.1,0.6,0.9
				c0.5-0.2,0.8-0.9,0.6-1.4c-0.6-1.2-0.2-1.9,1.1-2.3c-0.6-0.3-1.3,0.2-1.4-0.7c-0.2-1.5-0.4-3.1-0.5-4.6c-0.1-0.7,0.7-1.5,0.8-1.3
				c0.8,1,2.1,0.3,3,0.8c-0.4,1-2,0.2-2,1.6c0,0.9,1,0.5,1.2,1.1c-0.3,0.2-0.6,0.4-0.9,0.6c-0.3,0.2-0.5,0.4-0.3,0.8
				c0.2,0.3,0.5,0.4,0.8,0.3c1.5-0.7,3.3-0.8,4.3-2.5c0.3-0.5,0.7-0.8,1.1,0.1c0.5,1.1,2,1.3,3.2,0.3c0.8-0.7,0.7-1.6,0-2.3
				c-1.6-1.5-2.2-3.6-3.3-5.4c-0.6-1-1.6-1.5-2-2.6c-0.8-1.9-1.8,0.1-2.7,0.1c-0.2,0-0.4-0.2-0.6,0.1c0.9,0.6,1.6,1.7,1.5,2.6
				c-0.1,0.9-1.4,0.2-2.1,0.6c-0.6,0.3-0.9-0.1-1.1-0.6c-0.2-0.8-0.8-1-1.4-1c-1.4,0-2.8,0.1-3.6,1.6c-0.2,0.4-0.5,0.6-0.9,0.5
				c-1.5-0.3-1.8,1.1-2.4,1.9c-0.3,0.4-0.4,1.1,0,1.7C336.9,320.9,337.4,320.3,337.9,320.4z M276.3,227.3c-0.4-0.2-0.3-0.5-0.4-0.8
				c-0.1-0.7,0.3-1.8-0.4-2c-0.9-0.2-1.4-1.6-2.7-1c-0.4,0.2-0.6-0.3-0.8-0.7c-1-2-3.2-2.9-5.3-2.1c-0.7,0.2-1,0.9-1.4,1.4
				c1.2,0.2,1,1.7,1.7,2.2c1.7,1.1,2.5,3,4.2,4.1c1.7,1.1,2.7,3,4.7,4c2,1,3.3,3.3,5.6,4.1c0.6,0.2,1.1,0.8,1.6,1.2
				c0.8,0.7,1.7,1.5,2.9,1.6c1.2,0.2,2-0.5,2.3-1.5c0.2-0.8-0.1-1.7-1.3-1.7c-0.3,0-0.6-0.2-0.7-0.5c-0.3-1.1-0.5-2.2-1.9-2.4
				c-0.3-0.1-0.1-0.6-0.1-0.8c-0.2-1-0.3-2.6-0.9-3c-1.4-0.7-2.2-2.1-3.5-2.8c-0.5-0.3-1.2,0.1-1.4-0.5c-0.2-0.6-0.4-1.4-1.2-1.1
				c-0.8,0.3-0.6,1.1-0.6,1.8C276.6,227,276.4,227.1,276.3,227.3z M348.3,354.1c0.3,0.6-0.2,1.1,0,1.3c1.3,1.1,0.5,2.3,0.3,3.5
				c-0.1,0.7-0.1,1.5,0.4,1.9c0.5,0.5,1.3,0.4,2,0c0.6-0.4,0.9-0.9,0.7-1.7c-0.1-0.5-0.1-1,0.5-1.2c1.2-0.3,0.4-0.8,0.3-1.3
				c-0.3-1-2.1-2.1,0-3.1c0.5-0.2,1.3-0.5,1-1.2c-0.2-0.5-1.1-0.5-1.6-0.4c-2.3,0.6-4.7,0-6.5-0.9c-2.2-1.1-4.3-1.3-6.5-1.6
				c-2-0.4-4-0.6-6-0.8c-1.3-0.1-3,1.1-2.5,1.5c1.2,1.2-1.1,2.3,0.1,3.4c-0.5,0.4-0.5,1-0.7,1.6c-0.2,0.6-0.2,1.3,0.4,1.7
				c0.9,0.5,1.8,0.5,2.8,0.1c0.7-0.3,1.1-1,0.8-1.6c-0.8-1.9,0.6-1.8,1.7-1.9c0.9-0.1,1.9-0.1,2.9,0.2
				C341.6,354.5,344.9,354.8,348.3,354.1z M241.7,243.1c0.8,0.1,1.5,0.3,2.2,0.4c2.4,0.2,4.9-0.1,7.1,1.3c0.9,0.5,1.6,0.9,0.7,1.9
				c-0.4,0.5-0.2,0.8,0.1,1.2c1.2,1.9,2.4,3.9,3.6,5.7c0.4,0.6,1.1,1.5,1.9,0.9c0.9-0.7,1-0.2,1.3,0.5c0.4,0.8,1.1,1.5,1.1,2.6
				c0,0.5,0.5,1,1,1.1c0.5,0.2,0.9,0.4,1.1,0.9c0.4,1.6,1.8,2.7,1.9,4.3c0.1,1.1,1.3,1,1.6,1.9c0,0.1,0.8,0.3,0.8-0.6
				c-0.1-1.4-0.3-2.9-1-4c-0.4-0.6,0.1-1.6-0.8-1.9c-0.9-0.4-0.9-1.2-1.3-2.1c0.7,0,1.3,0.2,1.8-0.2c0.4-0.3,0.7-0.5,0.2-1
				c-2-2-3.2-4.7-6-5.8c-0.4-0.2-0.7-0.5-1-0.8c-0.3-0.2-0.4-0.6-0.1-0.8c1-0.8-0.1-1-0.4-1.5c-0.6-0.9-2.1-0.7-2.6-1.5
				c-0.8-1.3-2-1.8-3.4-2c-0.6-0.1-1-0.2-1.5-0.7c-1-1.1-2.5-1.6-3.9-1.4c-1.3,0.1-3.2-1-3.8,1.3
				C242.3,242.7,241.8,242.5,241.7,243.1z M310.6,327.3c0-0.8,0.1-1.5,0-2.1c-0.1-0.6,0.2-1.9-1.3-1c-0.5,0.3-1.5-0.2-1.6-1.2
				c-0.1-1.5-0.2-3.1,0.1-4.6c-0.2,0-0.3,0-0.4,0c-0.6,0.3-1,1.3-1.7,0.8c-0.6-0.4,0-1.3,0.2-1.9c0.1-0.5,0.3-1-0.4-1.2
				c-0.6-0.1-0.5,0.5-0.7,0.8c-1.1,1.3-1.1,2.9-1.3,4.4c-0.4,2.4-0.2,4.7-0.4,7.1c-0.2,2.2,0,4.4-0.6,6.5c2.3,0.8,1.5-1.9,2.7-2.4
				c-0.3,0.6,0,1.2,0.1,1.7c0.1,0.4-0.3,1,0.4,1.3c1.7,0.7,3.9-0.5,4.2-2.3c0.1-0.5,0.1-1,0.1-1.6c-0.1-1.3,0.1-2.5,1.2-3.7
				c0,1.4,0.5,2.5,0.1,3.7c-0.2,0.6,0,1.2,0.5,1.4c0.8,0.3,0.4-0.5,0.6-0.8c0.6-0.6,0.4-2,1.8-2.1c-1.4-0.3-1.2-1.5-1.5-2.4
				C312.2,326.3,311.6,326.4,310.6,327.3z M221.1,382.3c-0.7-0.4-1.6-0.3-1.6-1.4c0-1,0.7-1.3,1.4-1.7c0.5-0.3,0.9-0.5,0.6-1.1
				c-0.8-1.2,0.2-1.8,0.9-2.4c0.3-0.3,1-0.4,0.7-1c-0.3-0.6-0.8-0.4-1.3-0.3c-1.7,0.4-3.3,1.2-5.3,0.9c-1-0.1-2.6,0.4-2.4,2.6
				c0.1,1.3-0.1,3.1-1.2,4.3c-0.6,0.6-0.8,1.2-0.8,2c-0.1,1-0.3,2.1-1,2.8c-1.3,1.4-0.8,2.9-0.4,4.4c0.3,1,2.2,1.8,2.3,1.3
				c0.2-1.5,1.8-2.3,1.9-3.9c0.1-1.4,0.5-2.8,0.8-4.2c0.1-0.3,0.3-0.7,0.7-0.5c0.2,0.1,0.4,0.5,0.2,0.6c-1.2,0.7-0.2,1.6-0.3,2.4
				c-0.2,2.1,1.3-0.2,1.8,0.6c0.2,0.3,0.6,0.4,0.9,0.6c1.2,0.6,2.3,1.2,3.9,0.9c-1.1-1.1-2.8-0.6-3.7-1.7c0.6-0.4,1.2-0.8,2-1.3
				c-0.5-0.1-0.7-0.2-0.9-0.2c-0.6,0.1-1.2,0.2-1.4-0.4c-0.3-0.6,0.1-1.1,0.5-1.6C219.7,383.5,220.4,383,221.1,382.3z M339.5,310
				c1.9-0.1,3.7-0.6,5.4-1.4c1.1-0.5,1.4-2,1.4-3c0-0.7-1.4-0.8-2.2-1c-2.2-0.5-4.4-0.6-6.6-1.6c-1.4-0.7-3.1-0.7-4.7-0.8
				c-0.8-0.1-1.4,0.2-0.7,1.2c0.3,0.5,1,1,0.8,1.8c-0.3,1.5,1.7,4.4,3.2,4.4C337.3,309.6,338.4,310,339.5,310z M359.4,346.7
				c-2.4-0.1-4.4-0.3-6.5-0.3c-1,0-1.2-1.2-2.3-0.9c-3.1,0.8-6.1-0.1-9.2-0.1c-0.6,0-1.5,0-1.1-1.1c0.1-0.4-0.2-0.5-0.5-0.6
				c-2-0.3-4-0.7-6-0.7c-1.2,0-2.9-1.1-3.8,0.9c-0.1,0.2-0.4,0.2-0.5,0c-0.5-0.6-1.2-0.7-1.3,0.1c-0.1,0.6,0.4,1.6,1.2,1.4
				c1-0.2,1.8,0.3,2.7,0.4c2,0.1,4,0.5,6.1,0.4c3.4-0.1,6.8,0.8,10.3,1.1c2.9,0.2,5.7,1.1,8.6,1.2c2.1,0.1,4.3,0.3,6.4,0
				c0.4-0.1,0.9-0.1,1-0.6c0.1-0.5-0.5-0.4-0.7-0.7c-0.5-0.6-1.4-0.3-1.9-0.8c-0.9-0.9-2.9-1.1-4.1-0.4
				C358.1,346.6,358.8,346.2,359.4,346.7z M322.8,385.7c1.8,0.1,1.6,1.4,1.8,2.4c0.4,2,0.9,4,1.9,5.8c0.2,0.4,0.9,1,1,0.5
				c0.1-0.8,1.3-1.1,0.8-2.4c-0.4-0.9-0.5-2.4-0.4-3.6c0.2-2.6,0.8-5.2,1-7.8c0.1-2.2,0.9-4.4,0.6-6.7c0-0.4,0.3-1-0.3-1.1
				c-0.6-0.2-1,0.4-1.1,0.9c-0.2,0.7-0.3,1.4-0.9,1.9c-0.5,0.5-0.6,1.1-0.8,1.8c-0.3,1.2,0,2.6-1.4,3.5c-0.6,0.4-1.6,1.4-1.1,2.6
				C324.2,384.7,323.9,385.2,322.8,385.7z M312.3,264.4c-0.3,2.3,1.2,4.2,0.9,6.4c0,0.4,0.4,0.9,0.7,1.2c1.2,1.4,3.2,2.2,3.7,4.3
				c0.2,0.7,0.9,0.6,1.2-0.1c0.4-0.8,0.3-1.7-0.3-2.3c-0.3-0.3-0.8-0.6-0.6-1c0.6-1.1-0.3-1.6-0.9-2.1c-0.4-0.4-0.7-0.8-0.5-1.2
				c0.8-2-2.4-2.8-1.4-4.8c-1.2-0.6-1.1-1.9-1.5-2.9c-0.2-0.6-0.6-1.2-1.1-1.5c-1.1-0.6-2-1.3-2.4-2.5c-0.2-0.4-0.4-0.9-1-0.7
				c-0.6,0.2-0.3,0.7-0.3,1.1c0.2,1.7,1.2,3.1,1.3,4.8C310,264.4,310.6,265.4,312.3,264.4z M321.7,304.2c0.7,0.2,1.2,0.7,1.6,0.6
				c1.8-0.4,1.6,1,1.8,1.9c0.1,0.4-0.3,0.9,0.3,1c0.4,0.1,0.8-0.2,1.2-0.4c1-0.7,0.8-2,1.6-2.9c0.3-0.4,0.4-0.7-0.2-0.8
				c-0.4-0.1-0.9-0.1-1,0.5c-0.1,0.4-0.1,0.7-0.2,1.1c-0.1,0.3-0.4,0.4-0.7,0.2c-0.3-0.1-0.4-0.5-0.2-0.7c1-0.5,0.5-1.6,1.1-2.4
				c0.8-1-0.2-3.2-1.3-3.8c-0.8-0.4-1.5-0.9-1.9-1.8c-0.5-1.1-1.5-0.4-2.2-0.4c-0.6,0-0.7,0.3-0.8,1c-0.5,2.1,1.1,3.4,1.8,5
				c0.1,0.2,0.1,0.3,0.1,0.4c-0.3,0.3-0.9-0.3-1.2,0.4C321.5,303.4,323.4,303.2,321.7,304.2z M335.8,376.3c0.6,0.1,1,0.3,1.3,0.5
				c0.9,0.7,2,0.5,2.9,0.1c0.8-0.3,0.2-1.3,0.4-1.6c0.8-1.1-0.1-2.7,1.1-3.7c0.3-0.2,0.2-0.5,0.2-0.8c-0.3-1-0.1-2.1-0.2-3.2
				c-0.1-0.8,0.9-0.6,0.7-0.9c-0.3-0.5-0.9-0.9-1.4-1.1c-0.5-0.2-1.4-0.2-1.6,0.4c-0.4,1.4-1.5,2.3-2,3.5c-0.5,1.5-1.4,3.2-0.6,4.6
				C337.4,375.4,337,375.8,335.8,376.3z M256.3,232.4c0.1-0.2,0.1-0.3,0.2-0.4c0.7-0.3,1.5-0.6,1.2-1.6c-0.2-0.7-1-1.1-1.7-0.8
				c-0.8,0.2-1.5,0.6-1,1.7c0.3,0.7-0.4,0.8-0.8,0.7c-1-0.2-2-0.1-2.9,0.5c-0.3,0.2-1.1-0.1-0.9,0.9c0.2,1,0.7,0.6,1.3,0.6
				c1.4,0.2,3.1-0.9,4.2,0.9c0.2,0.3,0.7,0.1,1,0c0.6-0.3,1.3-0.6,2-0.9c-0.1,1.8,1.6,3.1,3.3,2.6c0.8-0.2,3,0.7,3.2,1.4
				c0.4,2.1,2.2,2.3,3.7,3c0.3,0.1,0.6,0.2,0.8-0.2c0.2-0.5-0.1-0.6-0.4-0.9c-0.6-0.5-1.4-0.7-1.9-1.4c-1.1-1.8-2.9-2.7-4.6-3.7
				c-0.9-0.6-1.9-1.7-3-1.4C258.2,234,257.4,232.9,256.3,232.4z M374,318.8c-0.4-0.3-0.9-0.5-1-0.9c-1.2-2.2-3.1-3.8-4.3-5.9
				c-0.5-0.8-0.8-1.8-1.6-2.6c-0.8-0.8-2-1.5-2.4-2.6c-0.6-2-2.3-3.1-3.2-4.9c-0.1-0.3-0.5-0.4-0.9-0.2c-0.2,0.1-0.4,0.4-0.3,0.5
				c0.5,0.6,0.5,1.6,1,2.1c1.9,2,3.2,4.2,4.1,6.8c1.1,3.3,3.2,6.1,6.3,8C372.3,319.5,373.2,319.5,374,318.8z M324.5,287.7
				c-0.2-0.5-0.7-0.2-0.7-0.3c-0.9-1.9-3.1-2.5-4.2-4.2c-0.3-0.5-0.9-0.8-1.5-0.6c-0.7,0.2-0.6,0.9-0.5,1.3c0.2,0.7,0,1.2-0.2,1.8
				c-0.3,0.9-0.6,2.4,0.1,2.7c2,0.7,2.8,2.9,4.8,3.5c0.6,0.1,1.2,0.7,1.6,0.2c0.4-0.5,0.7-1.4,0.2-2
				C323.3,289,323.8,288.3,324.5,287.7z M344.2,489.3c0.1-1,0.2-2.3-0.4-3.5c-0.2-0.3,0.3-1-0.5-0.9c-0.5,0-0.5,0.5-0.7,0.9
				c-0.7,1.6,0.6,3,0.3,4.6c-0.3,1.6,0.3,3.3-1.4,4.6c-0.5,0.4-1.5,1.3-1.2,2.2c0.2,0.8,0.4,1.4-0.1,2.1c-0.3,0.4,0,0.8,0.4,1.1
				c0.5,0.3,0.8,0.1,1-0.4c0.2-0.5,0.4-0.9,1.1-1c2-0.2,3.8-3.4,2.6-4.9C344.2,492.7,344.3,491.2,344.2,489.3z M274.9,293
				c2.7-0.1,3.3-1.4,3.4-3.2c0-1.1-1.4-2.4,0.2-3.4c0,0,0-0.2-0.1-0.2c-0.8-0.2-0.8-1-1.1-1.6c-0.3-0.7-1-0.3-1,0.2
				c-0.2,1.4-1,2-2.3,2.2c-0.3,0-0.3,0.4-0.4,0.6c-1.1,1.5-2.1,3,0,4.4c0.1,0.1,0.1,0.3,0.2,0.4C273.9,293,274.4,293,274.9,293z
				 M286,209.1c-1-0.5-1.8-0.2-2.5-0.1c-1.5,0.4-3.1,0.4-4.3-0.6c-1-0.7-1.9-0.8-3-0.8c-0.4,0-0.9,0.1-1.3,0c-3-1-6-2.1-9-3.1
				c-1.5-0.5-3-0.9-4.8-0.9c1,1,7.7,3.7,8.7,3.8c2.6,0.1,4.9,1.4,7.4,2C280.1,210.3,283,210.6,286,209.1z M291.6,455.9
				c0.8-0.8,2.5-0.8,3-2.2c0.6-1.5,1.4-2.5,3.1-2.8c0.6-0.1,1-0.4,0.6-1.1c-0.5-0.9,0.3-2.4-1.3-2.7c-0.6-0.1-1,0.4-0.9,0.9
				c0.2,1.5-0.8,1.7-1.9,1.9c-0.5,0.1-0.9,0.4-1.2,0.7c-0.3,0.3-0.5,1-1.1,0.8c-0.6-0.2-0.3-0.8-0.4-1.3c-0.1-0.4-0.2-0.9-0.8-0.7
				c-0.5,0.2-0.9,0.6-0.6,1.1c0.8,1.5,0.8,3,0.5,4.6C290.6,455.7,290.9,455.9,291.6,455.9z M299.6,438.2c0.1,0.1,0.1,0.3,0.2,0.4
				c0.7-0.3,1.3-0.5,2-0.8c0.9-0.3-0.6-1.7,0.8-1.9l-1-4.4c-0.1-0.3,0-0.5,0.1-0.8c0.9-1.6-0.1-2.9-0.7-4.3
				c-0.2-0.4-0.5-0.5-0.9-0.1c-0.3,0.3-0.7,0.5-1.1,0.6c-0.7,0.2-1.3,0.7-1.2,1.3c0.3,1.1-0.2,2.5,0.8,3.5c0.1,0.1,0.2,0.1,0.3,0.1
				c2-1,1,0.7,1,1.2c0,1-0.1,2,0.4,2.8C300.9,436.9,300.5,437.6,299.6,438.2z M219.6,635c0.6,2.1,2.7,2.8,3.8,4.6
				c1.1,1.9,4,2.5,6.5,2.4c0.4,0,0.9-0.2,1.2-0.4c0.4-0.3,0.7-0.7,0-1.1c-1.6-1-3.2-2.1-5.1-2.8c-1-0.3-2-0.9-3-1.3
				C221.9,635.9,221.2,634.3,219.6,635z M349.1,374.5c-0.5-0.7-1.4,0.1-1.4-0.8c0-1,0.1-1.9,0.4-2.8c0.2-0.5,1.5,0.1,1.3-1.1
				c-0.2-1-1-0.6-1.6-0.8c-0.2-0.1-0.3-0.3-0.4-0.5c-0.7-0.8-1.3-0.7-1.6,0.3c-0.9,2.4-1.4,5-1.7,7.5c0,0.4,0.2,0.8,0.5,0.9
				c0.5,0.2,2.9-1,2.8-1.4C347.3,374.5,348.2,374.6,349.1,374.5z M287.1,407.9c0.5,0.6,0.1,1.9,1.3,1.7c0.9-0.2,0.6-1.1,0.8-1.8
				c0.2-1.2-0.4-2.5,0.1-3.7c0.2-0.4,0.3-1.5-0.4-1.7c-0.9-0.4-1.1-1-1.3-1.8c-0.2-0.7-0.8-0.9-1.4-0.3c-0.7,0.8,0.2,2.1-0.7,2.9
				c1.5,1.4,0.5,3,0.5,4.5c0,0.4-0.7,0.9-0.1,1.3C286.5,409.2,286.6,408.2,287.1,407.9z M302.3,279c-0.5,0.1-1.2-0.2-1.5,0.3
				c-0.4,0.6,0,1.1,0.4,1.6c0.3,0.4,0.5,0.8,0.8,1.1c0.8,1.2,2.4,1.9,2.7,3.4c0.2,0.9,0.4,1.5,1.3,1.2c0.7-0.3,1.7-0.7,0.9-2
				c-0.7-1.1-0.2-2.9-1.9-3.5c-0.1,0-0.1-0.3-0.1-0.4C304.6,279.3,303.5,279,302.3,279z M334.5,369.2c-0.1-0.7,0.5-1.6-0.5-1.9
				c-1.1-0.3-1.8,0.6-2,1.5c-0.4,1.8-0.6,3.7-0.8,5.6c-0.1,0.7-0.1,1.4,0.2,2c0.1,0.3,0.2,0.8,0.6,0.8c0.5,0,0.8-0.3,0.9-0.7
				C333.4,373.9,334.9,371.8,334.5,369.2z M345.6,389c0-0.3,0-0.5,0-0.8c0-0.8,0.1-1.9-1-2c-1-0.1-1.4,0.8-1.5,1.7
				c0,0.4,0,0.7-0.1,1.1c-0.3,1.9,0.7,3.9-0.5,5.7c-0.2,0.4-0.3,1.6,0.5,2c0.9,0.4,1-0.6,1.5-1c1-0.8-0.1-1.8,0.4-2.5
				C345.7,391.9,345.5,390.4,345.6,389z M337.3,296.8c-0.1-0.6-0.6-0.8-1-0.9c-1.6-0.5-2.9-1.3-4.2-2.3c-1.1-0.9-2.4-1.5-3.7-2.1
				c-0.4-0.2-1-0.3-1.3,0.3c-0.2,0.5-0.1,0.9,0.3,1.4c1.4,1.9,3.7,2.1,5.4,3.4c0.3,0.2,0.8,0.3,1.2,0.3c0.7,0,1.4-0.1,2.1,0.5
				C336.6,297.8,337.1,297.4,337.3,296.8z M431.3,355.1c-1.3,0-3,1.1-3.1,2.3c0,1.1,1.1,1.6,1.9,2.1c1.5,0.8,3.3,0.5,3.8-0.5
				C434.6,357.6,433.1,355.2,431.3,355.1z M367.2,297.2c1.2,0.6,2.2,1,3.1,1.7c1.2,0.9,1.7,0.3,1.8-0.8c0.1-1.6,0.5-3.3-1-4.6
				c-0.5-0.4-0.2-1.5-1.3-1.3c-1,0.2-0.5,1.2-0.9,1.7C368.1,294.9,368.9,296.6,367.2,297.2z M287.5,258.3c-1.6,0.2-2.6-0.4-3.6-1.3
				c-0.7-0.7,0-1.4-0.5-2.1c-1.2-1.7-2.7-3.1-3.7-4.9c-0.4-0.8-1.5-1.1-2.1-0.5c-0.6,0.6,0.4,1.1,0.9,1.5c1.6,1.5,2.2,2.6,2.3,4.7
				c0,0.3,0.3,0.4,0.6,0.5c0.5,0.1,1.1,0.2,1.3,0.6c0.5,1.2,1.9,1.5,2.3,2.8c0.3,0.9,1,0.9,1.7,0.1
				C286.8,259.3,287.1,258.9,287.5,258.3z M312.1,348.6c1-0.3,1.9,0.3,2,0.9c0.4,1.6,1.7,1.4,2.6,1.5c1,0.2,2.1,0.2,3.1,0.5
				c0.6,0.2,1.7,0.5,1.8-0.3c0.1-0.8-1-0.5-1.5-0.6c-0.1,0-0.2,0-0.3,0c-0.4-0.1-0.8-0.3-0.8-0.7c0-0.5,0.5-0.5,0.9-0.5
				c0.5,0,1,0.2,1.3-0.5C318.1,347.8,315.2,347.2,312.1,348.6z M206.9,377.2c-0.6,0.2-1.4,0-2.1,0.4c-0.6,0.3-1.3,0.6-1.1,1.4
				c0.5,1.5-1.2,2.9-0.2,4.4c0.2,0.2-1.1,0.7,0.1,1c0.8,0.2,1.4,0.1,1.8-0.7c0.3-0.7,0.6-1.5,0.5-2.1c-0.3-1.4,0.7-1.9,1.5-2.5
				c0.6-0.4,1.5-0.5,1.2-1.4C208.5,376.9,207.7,377.3,206.9,377.2z M365,290.8c0.1,0.3,0.1,0.5,0.2,0.8c0.3,0.6,0,1.6,1.3,1.6
				c1.4,0,1.4-1.2,1.8-1.9c0.3-0.6-0.2-1.4-1.1-1.6c-0.6-0.1-0.9-0.6-1-1.1c-0.6-1.9-0.9-2-2.9-1.4c0.4,0.6,0.9,1.3,0.7,2
				c-0.2,0.9-1.4,0-1.8,0.7c0.1,0.6,0.9,0.2,1,0.7C363.4,293.5,364.3,290.9,365,290.8z M366.9,635.6c0.7-1.8,0.6-1.8-1.2-2.6
				c-2.3-1-4.1,0.7-6.2,1c1.2-0.1,1.2,0.8,1.4,1.5c0.1,0.5-0.4,1.2,0.4,1.3c0.7,0.1,1.4,0.2,2-0.5
				C364.2,635.3,365.4,634.9,366.9,635.6z M245.6,500.5c1.4,0.7,0.8,2,0.7,3c-0.1,0.6-0.8,1.3-0.3,1.9c0.5,0.5,1.3,0.1,2.3,0.1
				c-1.2-0.9-1.7-1.7-0.4-2.4c0.5-0.3,0.3-0.6,0.3-0.9c-0.2-1.3,0.2-2.3,1.7-2.7c-1-0.2-0.8-1-1.1-1.5c-0.3-0.7-1.4-0.1-2-0.6
				c-0.1-0.1-0.1-0.2-0.2-0.3c-0.2-1-1.5-0.9-1.8-1.8c-0.1-0.2-0.4-0.3-0.5-0.1c-0.1,0.1-0.2,0.5-0.2,0.6c0.5,0.8,0.9,1.8,1.7,2.3
				c0.6,0.4,1,0.7,1.1,1.4C246.9,500.5,245.9,499.9,245.6,500.5z M287.2,207.2c2.1,0.9,3.4-0.3,4.8-0.7c2.9-1,5.3-2.9,8.3-3.8
				c0.9-0.3,1.8-0.5,2.8-1.3C296.9,201.2,292.7,205.3,287.2,207.2z M312.1,605.7c-1-0.5-1.9,0.2-2.9,0.4c-1.2,0.4-1.1,1.5-1,2.4
				c0,0.7,0.8,1,1.4,0.7c1.7-0.8,3.6-0.8,5.2-2c0.2-0.2,0.7-0.2,0.5-0.6c-0.1-0.3-0.3-0.6-0.6-0.7
				C313.8,605.9,313,605.5,312.1,605.7z M415.1,353.1c-1.8-1.5-3.9-1.3-5.8-1.4c-0.3,0-0.7,0-0.7,0.4c0,0.4,0.2,0.9,0.5,0.9
				c1.6,0.2,1.3,1.2,1,2.3c-0.1,0.6,0.3,0.9,0.6,1.2c0.4,0.4,1,0.5,1.5,0.2c0.7-0.4,0.2-0.7-0.1-1.1c-0.5-0.6,0-0.9,0.4-1.1
				C413.5,354.3,414.1,353.6,415.1,353.1z M178.7,378.6c0.2,0,0.5,0,0.7-0.1c1.2-0.7,2-1.8,3.4-2.1c0.3-0.1,0.4-0.6,0.4-1
				c-0.1-0.5-0.6-0.3-0.9-0.4c-0.7-0.2-1.5,0.2-2.1-0.1c-1.1-0.6-2.4-0.5-3,0.5c-0.7,1.1,0.5,1.8,0.5,2.8
				C177.7,378.6,178.3,378.6,178.7,378.6z M323.5,615.8c0.6,0.2,1,0.3,1.4,0.4c2.5,0.8,4,0.2,5.2-2.1c0.1-0.3,0.5-0.4,0.7-0.6
				c0.2-0.2,0.8-0.2,0.6-0.7c-0.2-0.4-0.6-0.4-1-0.4c-0.7,0.1-1.4,0.1-1.8,0.8c-0.2,0.4-0.5,0.7-1,0.7
				C325.9,613.7,324.9,614.9,323.5,615.8z M270.2,315.3c2.1,0.5,2.1,0.5,2-1.3c0-0.5,0.3-0.7,0.7-0.9c1.4-0.6,1.2-1.9,1.3-3.1
				c0-0.5-0.3-0.7-0.8-0.7c-1.2,0.2-3.5,2-3.8,3.2c-0.1,0.4,0,0.7,0.4,0.7c0.6,0,1.2,0,1.3,0.8C271.5,314.9,270.4,314.5,270.2,315.3
				z M296.5,258.9c0.2-0.6,0.3-1.2-0.4-1.7c-0.7-0.4-1.1,0.4-1.8,0.5c-1,0.1,0-1.3-0.9-1.2c-0.6,0.1-1.3-0.2-1.8,0.4
				c-0.5,0.7,0.1,1.1,0.5,1.5c0.2,0.3,0,0.5,0.1,0.7c0.1,0.8,0.5,1.4,1.1,1.8c0.5,0.3,1.6,1.1,1.3-0.6c-0.1-0.4,0.2-0.7,0.6-0.4
				C296.8,261.3,296.7,260.2,296.5,258.9z M379.8,304.9c-0.3-0.7-0.5-1.4-0.8-2c-0.2-0.5-0.6-0.9-1.2-0.8c-0.5,0.1-0.8,0.4-1.1,1
				c-0.7,1.5,0.1,2.9,0.2,4.3c0,0.6,0.8,1,1.5,1.1c0.4,0,0.9-0.2,0.9-0.5C379,306.8,378.8,305.7,379.8,304.9z M341.1,489.5
				c-1.1,0.3,0,1.8-1.2,2c-1.8,0.4-1.9,2.6-3.5,3.2c-0.2,0.1-0.3,0.6-0.1,0.9c0.2,0.3,0.6,0.3,0.8,0c0.5-0.9,1.3-0.7,2.1-0.8
				c1.9-0.2,2.9-1.5,2.4-3.2C341.4,490.9,341.4,490.1,341.1,489.5z M218.3,242.8c-0.4,0-0.9-0.1-1.1,0.4c-0.8,1.7-2.3,3.1-2.5,5
				c0,0.3-0.3,0.6,0,0.8c0.3,0.2,0.6,0.2,0.9,0.1c0.5-0.2,0.9-0.5,1.1-1.1c0.5-1.4,1.1-2.7,2.3-3.6c0.4-0.3,0.8-0.6,0.7-1.2
				C219.4,242.4,218.7,243.1,218.3,242.8z M197.8,596.5c0,1.1,2,3.9,3.1,4.2c0.5,0.1,0.9,0.1,1.3-0.3c0.5-0.4,0-0.8-0.1-1.1
				c-0.6-1-1.2-2-2-3c-0.4-0.5-0.7-1.3-1.6-1C198,595.5,197.8,596,197.8,596.5z M281.4,293.5c-0.8,0.4-1.6,0.7-1.5,1.9
				c0.1,0.7,0.5,1.4-0.3,2c-0.5,0.4,0.4,0.8,0,1.4c-0.3,0.5,0.7,0.8,1,0.5c0.8-0.6,2-1.1,1.6-2.6c-0.1-0.6-0.3-1.2,0.1-1.9
				C282.9,293.8,282,293.8,281.4,293.5z M303.4,272.5c0,0.2-0.1,0.4,0,0.5c0.4,0.5-0.1,1.8,1.1,1.6c1-0.1,0.8-1.1,0.8-1.7
				c0-1.7,0.2-3.4-0.2-5c-0.1-0.5-0.4-0.6-0.8-0.6c-0.2,0-0.5-0.1-0.6,0.3C303.6,269.2,303.3,270.8,303.4,272.5z M211.7,555.6
				c-1.1-0.4-2.1-1.7-2.9,0.7c-0.6,1.7-1.7,3.3-1.8,5.3c0,0.4-0.2,0.8,0.2,1c0.4,0.1,0.7-0.2,0.8-0.5c0.6-1.7,1.5-3.2,2-4.9
				C210.5,556.1,210.8,555.7,211.7,555.6z M256.5,265.4c-1.3-0.9-0.8-2.1-0.8-3.3c0-0.6-0.2-1.6-1-1.3c-0.8,0.2-2.3,0.4-1.9,1.5
				c0.3,0.9,0.6,2,1.2,2.8C254.7,266.1,255.4,266.5,256.5,265.4z M208.7,609.1c1.3,0.5,2.3,0.6,2.7-1c0.1-0.5,0.3-0.8,1-0.3
				c0.3,0.3,1.1,0.3,1.4-0.3c0.2-0.3,0.4-0.8,0.2-1c-0.7-1-1.9-0.8-2.9-0.9c-0.9-0.1-1.4,0.4-1.5,1
				C209.5,607.5,209,608.2,208.7,609.1z M212.8,257c-0.2,2.8-2.7,5.1-0.1,7.5C214.3,262.9,214.4,260,212.8,257z M291.9,359.9
				c-1,0.2-1,0.2-2,2.5c-0.2,0.5-0.9,1.1,0,1.6c0.8,0.5,1.7,1.4,2.7,0.4c0.6-0.5,1.1-1.2,1.5-1.8C292,362,290.7,361.6,291.9,359.9z
				 M296.3,415.3c1-1.2,1.3-2,1.1-3.4c-0.2-1.3,0-2.6-0.6-3.9c-0.2-0.5-0.3-1-0.9-0.8c-0.6,0.2-0.7,0.8-0.1,1.2
				c0.2,0.2,0.1,0.4,0,0.6C295.2,411.1,296,413,296.3,415.3z M244.9,399c0,0.3-0.1,0.7,0.1,1c0.2,0.6,0.3,1.4,1.1,1.4
				c0.8,0.1,0.9-0.7,1.2-1.3c0.5-1.4-0.5-2.6-0.1-4c0.1-0.5-1-0.6-1-0.3C246.1,397,244.7,397.6,244.9,399z M351.4,628.3
				c-0.2-0.4,0.2-1-0.4-1.3c-1.7-0.8-3.2-2-5.2-2.1c-0.3,0-0.6,0-0.7,0.3c-0.2,0.5,0.3,0.6,0.5,0.6c1.4,0.2,2,1.3,2.9,2.1
				c0.6,0.5,1.1,1.1,1.9,1.2C351,629.2,351.6,629.2,351.4,628.3z M208.8,273.3C208.8,273.3,208.8,273.3,208.8,273.3
				c-0.1,0.3-0.1,0.6-0.1,1c0,0.5,0,1.1,0.6,1.4c0.7,0.3,0.9-0.3,1.3-0.6c1-0.7,0.7-1.9,1-2.9c0.1-0.3-0.9-1.3-1.5-1.3
				c-0.7,0-1.5,0.4-1.4,1.4C208.7,272.6,208.8,273,208.8,273.3z M195.7,598.1c-1.1-0.2-1.7-0.5-1.7-1.7c0-0.7-0.8-1.4-1.6-1.9
				c-0.7-0.5-1.4-0.1-1.8,0.4c-0.6,0.7,0.1,1.2,0.6,1.3c1.1,0.4,1.2,1.8,2.3,2.3c-0.6,0.1-0.9,0.2-1.2,0.2
				C193.4,598.7,194.6,599.4,195.7,598.1z M313.1,621c-0.4,0.2-1.3,0.2-1.6,0.6c-0.6,1-1.6,1.2-2.6,1.5c-0.5,0.1-1.1,0.3-0.8,0.9
				c0.2,0.6,0.8,0.3,1.3,0.2c1.5-0.5,2.9-0.9,4.4-1.4c0.4-0.1,1.1,0,1-0.7C314.5,621.4,314,620.9,313.1,621z M435.2,356.4
				c-0.4,0.7-0.3,1.3,0.6,1.3c1.4,0,3.6-1.1,3.5-1.8c-0.3-1.8-1.8-1.1-2.8-1.3C435.1,354.4,434.6,355.2,435.2,356.4z M426.3,357.3
				c1,0,2.4-1.3,2.1-2.3c-0.2-0.8-1.4-1-2.2-1c-0.7,0-1.7-0.1-2,0.9C424,355.5,425.7,357.3,426.3,357.3z M228.9,378
				c0,0-0.1-0.1-0.2-0.1c-0.9-0.4-1.1-1.1-1.1-2.1c0-0.5-0.5-0.5-0.9-0.5c-0.5-0.1-0.6,0.2-0.8,0.6c-0.4,1,0,2.1-0.9,2.9
				c-0.2,0.2,0,0.5,0.3,0.6c0.5,0.2,1.1,0.6,1.7,0.2C227.8,379.3,228.3,378.6,228.9,378z M338.9,500.6c-0.4-0.5-0.9-0.7-1.4-0.2
				c-0.6,0.5-0.9,1.2-1.7,1.7c-0.4,0.2-0.3,0.7,0,1c0.5,0.6,0.9,1.1,0.7,2c-0.1,0.6,0.4,1,1,1.1c0.8,0,0.6-0.7,0.8-1.2
				c0.1-0.2-0.1-0.5-0.2-0.7c-0.3-1-1-2,0.5-2.7C338.7,501.3,338.7,500.9,338.9,500.6z M238.4,524c-1.6,1.1-1.6-0.5-2.3-0.7
				c-0.5,0.5-0.3,1.3-0.9,1.5c-1.3,0.5,0.3,1.6-0.5,2.2c0.4,0.5,1,0.8,1.5,0.5c0.6-0.3,1.7-0.3,1.3-1.6
				C237.3,525.5,237.8,525,238.4,524z M329.9,548.2c0.3-0.4,1-0.8,1-1.3c0-0.8,0.7-1.7,0.1-2.4c-0.6-0.6-1,0-1.3,0.6
				c-0.2,0.4-0.7,0-1,0.2c-0.6,0.4-1.7,0.8-1.2,1.7C327.9,547.6,328.9,547.8,329.9,548.2z M335.9,477.3c0-0.6,0-1.3-0.4-1.9
				c-0.2-0.4-0.5-0.5-0.9-0.4c-0.4,0.1-0.5,0.4-0.4,0.7c0.2,0.9-0.4,0.9-1,0.9c-0.4,0-0.7,0.2-0.8,0.6c-0.1,0.4,0.3,0.5,0.5,0.7
				c0.3,0.2,0.6,0.4,0.9,0.7c0.5,0.6,1.1,0.5,1.7,0.2C336,478.6,336.1,478.1,335.9,477.3z M341.4,521c2-0.5,1.9-2.2,2.7-3.3
				c0.3-0.4,0.8-1.1,0.2-1.6c-0.6-0.5-1.3-0.1-1.9,0.3c-0.5,0.4-0.6,0.8-0.7,1.4C341.6,518.8,341.9,519.9,341.4,521z M334.2,481.7
				c-0.8-0.7-3.3-1.7-4.1-1.6c-0.5,0.1-1.2,0.3-1.2,0.7c0,0.6-0.3,1.4,0.3,1.9c0.5,0.4,1,0.1,1.3-0.4c0.4-0.5,1-0.3,1.5-0.2
				C332.7,482.2,333.5,482.4,334.2,481.7z M331.2,540.9c0.4,0.5,0.9,0.9,1.3,1.5c0.2,0.4,0.7,1,1.3,0.7c0.7-0.3,1.1-1,1.2-1.8
				c0.1-0.7-0.3-1.4-0.9-1.8c-0.6-0.4-1.3-0.2-1.6,0.4C332.1,540.5,331.5,540.4,331.2,540.9z M274.7,405.9c-0.2,0.1-0.5,0-0.8,0.6
				c-0.4,0.8,0.1,1.1,0.1,1.6c0,0.6-0.2,1.1-0.5,1.6c0.5,0.2,1,0.5,1.5,0.5c0.5,0,0.4-0.6,0.5-0.9c0.3-0.7,0.3-1.5,0.5-2.3
				C276.2,406.1,275.9,405.6,274.7,405.9z M325.6,350.5c0.9,1.1,0.8,2.3,0.9,3.4c0,0.4-0.5,1,0.3,1.1c0.8,0.1,0.6-0.6,0.8-1.1
				c0.2-0.6,0-1.3,0.5-1.8c0.2-0.2,0.3-1,0.1-1.5c-0.2-0.7-0.8-0.6-1.1-0.4C326.6,350.5,326.2,350.3,325.6,350.5z M290.6,306.7
				c-0.7-0.3-1.5-0.1-1.7-1.1c-0.1-0.4-0.7-0.5-0.9-0.2c-0.5,0.6-1,1.3-1.1,2c-0.1,0.5,0,1.5,1.1,1.2c0.6-0.2,1.1,0.1,1.9,0.1
				C288.8,307.7,289.3,307,290.6,306.7z M253.4,529.4c0.1-0.4,0-0.5-0.2-0.6c-0.8-0.3-4,0.9-4.5,1.7c-0.2,0.3-0.6,0.6-0.2,1
				c0.3,0.4,0.7,0.4,1.2,0.2c1-0.4,1.9-1.4,3.1-1.4C253,530.2,253.2,529.6,253.4,529.4z M325.7,546.9c0.1-0.3-0.3-0.4-0.4-0.6
				c-0.5-0.5-1.2-0.6-1.6-0.3c-0.8,0.5-1.4,1.3-2,2c-0.2,0.3,0.2,0.4,0.4,0.4c0.4,0,0.8,0.1,1.2,0.3
				C324,549,325.7,547.7,325.7,546.9z M264.5,317.7c-0.5-0.4,0.2-1.7-1.1-1.6c-1.1,0.1-1,1-1,1.7c0,0.4,0.1,0.7-0.2,1.1
				c-0.7,0.8,0.2,1.3,0.6,1.6c0.6,0.4,0.7-0.4,0.9-0.7C264.2,319.2,264.2,318.5,264.5,317.7z M309.5,201.2c1.1-0.5,2.1-0.6,3.1-0.4
				c0.8,0.2,1.5-0.2,2.1-0.5c0.3-0.1,0.5-0.3,0.4-0.6c-0.1-0.3-0.3-0.4-0.6-0.4c-1.5,0-3-0.2-4.4,0.4
				C309.4,200,309.3,200.4,309.5,201.2z M248.6,521.7c0.7-0.2,0.8-1.1,1.5-1.3c0.1,0,0.9-1,0.2-1.6c-0.7-0.6-0.9,0.4-1.2,0.6
				c-0.7,0.6-1.2,1.4-2.3,0.5c-0.2-0.1-1,0.1-1,0.6c0,0.5,0.2,1,0.8,1C247.2,521.4,247.9,521.3,248.6,521.7z M297.9,260.1
				c0,0.8,0.1,1.3,0.1,1.8c0,0.4,0.1,0.6,0.5,0.6c0.4,0,0.6-0.2,0.6-0.6c0.2-1.2,0.3-2.3,0.4-3.5c0.1-0.5-0.1-0.9-0.5-1.3
				c-0.3-0.2-0.6-0.3-0.9-0.1c-0.2,0.1-0.4,0.3-0.3,0.5C298.5,258.6,298.1,259.5,297.9,260.1z M216.3,614.3c0-1-1-2.1-1.9-2
				c-0.5,0-0.9,0.2-0.9,0.7c-0.1,1.5,0.5,2.4,1.7,2.4C215.8,615.4,216.4,615.3,216.3,614.3z M293.7,347.6c-0.6-1.8-1.7-2.6-3.3-2.6
				c-0.4,0-0.8-0.1-0.9,0.4c-0.1,0.4,0.2,0.6,0.3,0.8C290.7,347.9,292.3,347.3,293.7,347.6z M339.5,466.4c0.8,0.2,0.9-0.2,0.7-0.7
				c-0.3-0.7-0.7-1.4-1-2.1c-0.2-0.4-0.4-0.8-0.9-0.7c-0.4,0.1-0.7,0.5-0.8,0.9C337.1,465.4,337.7,466.2,339.5,466.4z M319.2,295.6
				c0.2-0.4,0-0.5-0.2-0.6c-0.3-0.1-0.6-0.2-0.9,0.1c-0.8,0.7-1.6,1.4-1.8,2.5c-0.1,0.4-0.7,0.8,0.1,1.2c0.6,0.3,1.4,0.3,1.7-0.4
				C318.4,297.4,318.6,296.3,319.2,295.6z M237.3,431.9c0.6-0.8-0.1-1.1-0.6-1.3c-0.3-0.2-0.7,0-0.7,0.4c-0.1,1.1-0.4,2.3-0.1,3.4
				c0.1,0.5,0.4,0.8,0.9,0.7c0.4-0.1,0.5-0.4,0.5-0.8C237.4,433.4,237.5,432.7,237.3,431.9z M328.3,474.9c0-0.2,0.4-0.8-0.5-0.8
				c-1.2,0-1.6,0.9-1.7,1.9c0,0.8,0.1,1.8,1.2,1.7C329.2,477.5,328.1,476.1,328.3,474.9z M239.1,248.3c0.8,0.1,2-0.7,3.2-0.8
				c0.2,0,0.3-0.2,0.3-0.4c-0.1-0.7-1.3-1.5-2-1.1c-0.8,0.4-1.4,1.1-2.3,1.3c-0.3,0.1-0.5,0.4-0.4,0.8
				C238.1,248.4,238.4,248.3,239.1,248.3z M313.5,612.1c-0.5,0-0.7-0.1-0.9,0c-0.6,0.2-1.6,0.4-1.5,1.2c0,0.7,0.9,0.4,1.5,0.5
				c0.5,0.1,0.9,0.2,1.4,0.2c0.5,0,1.3,0.4,1.5-0.4c0.2-0.8-0.6-1-1.1-1.3C314,612.1,313.6,612.1,313.5,612.1z M252.5,371.9
				c-0.1-1-0.9-1.1-1.4-1c-0.8,0.1-2.1-0.1-2.2,1c-0.1,0.9,0.9,1.4,1.8,1.5C251.5,373.4,252.1,372.7,252.5,371.9z M331,537.5
				c-0.1,0.4-0.1,0.8,0.3,1c0.5,0.3,0.8-0.1,1.1-0.4c0.9-0.6,0.1-1.6,0.5-2.4c0.4-0.7-0.1-1.2-0.9-1.4c-0.8-0.1-1,0.5-1.1,1.1
				C331,536.2,331.4,536.8,331,537.5z M327.3,534.8c-0.4-0.7-0.2-2-1.6-2.2c-0.4,0-0.9,0-0.9,0.6c-0.1,1.2,0.9,2.9,1.7,2.9
				C327.2,536.1,327.3,535.6,327.3,534.8z M291.7,405.7c0.1,0.6-0.4,1.5,0.6,1.4c0.8-0.1,1.4-0.7,1.7-1.5c-1-0.3,0.4-2.1-1.2-2
				C291.1,403.7,292.2,405.1,291.7,405.7z M331,524.6c1.1-0.1,2.2-0.1,2.3-1.1c0.1-0.9,0.4-1.6,0.8-2.3c0.2-0.3,0.5-0.7,0.1-1
				c-0.2-0.2-0.6-0.1-0.9-0.1c-0.5,0-0.4,0.3-0.5,0.7C332.4,522.1,332.1,523.5,331,524.6z M249.8,477c0.2,0.8,0.3,1.9,1.3,1.9
				c1.2-0.1,0.6-1.6,1.1-2.4c0.3-0.4-0.7-0.9-1.2-0.8C250.4,475.7,249.7,476,249.8,477z M243.5,538.8c-0.7-0.4-1.3-0.2-1.9-0.3
				c-1.3-0.2-2.3,1.3-1.9,2.4c0.1,0.3,0.3,0.5,0.7,0.5c0.3,0,0.8-0.1,0.8-0.3C240.9,539.2,242.2,539.1,243.5,538.8z M349.1,337.4
				c-1.1-0.3-1.3-0.5-1.9-2.2c-0.2-0.5-0.4-0.8-0.9-0.5c-0.5,0.2-0.7,0.8-0.3,1.2c0.3,0.4,0.6,0.7,0.7,1.1
				C347.4,338.9,347.5,338.9,349.1,337.4z M232.6,522.4c0.2-0.9-0.5-1.2-1.1-1.3c-0.9-0.1-1.3,0.6-1.2,1.3c0.1,0.7,0,1.7,1,1.8
				C232.4,524.2,232.6,523.3,232.6,522.4z M320.3,505.2c0.9,0.2,1.4,0.9,2.4,0.8c1.1-0.1,0.8-1.3,1.6-1.6c0.2-0.1-0.2-0.4-0.4-0.5
				c-0.9-0.4-1.9-0.6-2.2,0.5C321.4,505.1,320.8,504.8,320.3,505.2z M334.7,458.6c-1-0.8-2-1.2-3-0.4c-0.2,0.2-0.2,1.6,0.6,2.2
				c0.2,0.1,0.4,0.3,0.7,0.3c0.3,0,0.4-0.3,0.3-0.6C333,459.1,333.9,459,334.7,458.6z M331.4,463.6c1.5,0.1,1.2,2.4,2.9,2.2
				c-0.7-0.9,0.9-1.8-0.1-2.7C333.3,462.3,332.5,463.6,331.4,463.6z M229,512.7c-0.9-0.1-1.7,0.1-1.6-1.1c0-0.5-0.8-0.4-0.8-0.1
				c-0.2,1.2-1.5,2.1-0.6,3.8C226.4,513.7,227.3,512.8,229,512.7z M395.2,350.4c-0.5,0-0.9-0.1-1.2,0.4c1.1,0.2,0.4,1.8,1.3,1.9
				c0.9,0.1,2.1-0.7,2.1-1.4C397.3,350,395.9,350.8,395.2,350.4z M329,525c-0.5,0.4-1.4,0.3-1.3,1.3c0.1,0.7,0.2,1.3,1.3,1.3
				c1.1-0.1,1.3-0.9,1.4-1.6C330.4,525.3,329.6,525.2,329,525z M352.2,342.9c-0.4-1.6-1.1-3-1.4-4.6c0-0.3-0.4-0.3-0.7-0.1
				c-0.2,0.2-0.2,0.4-0.2,0.7c0.2,1.3,1.2,2.4,0.9,3.8c-0.1,0.4,0.6,0.5,1,0.6C352.1,343.3,352.2,343,352.2,342.9z M242.2,451.9
				c1.2,0.9,2.4,0.7,3.4,1.4c1.8,1.4,1.9,1.3,2.9,0.6C246.6,452.9,244.8,451.6,242.2,451.9z M342.6,513.5c0,0.3-0.3,0.8,0.4,0.8
				c0.6,0,1.1-0.3,1.1-1.1c0-0.6-0.4-1.1-0.2-1.7c0.1-0.5-0.1-1.1-0.6-1c-0.6,0.1-1.1,0.7-0.8,1.3
				C342.8,512.4,342.9,512.9,342.6,513.5z M224,384.9c0-0.6,0-1.3-0.8-1.3c-1.5,0-1.1,1.4-1.5,2.2c-0.2,0.4,0.1,0.8,0.5,0.8
				C223.1,386.5,223.9,386.1,224,384.9z M343,376.4c0-0.2,0-0.7-0.6-0.8c-0.5-0.1-0.6,0.3-0.8,0.6c-0.4,0.8,0,1.7-0.2,2.6
				c-0.1,0.3,0.4,0.6,0.8,0.6c0.4,0,0.8-0.2,0.7-0.7C342.7,378.1,343,377.4,343,376.4z M381.9,349.6c-1.2-1.5-2.8-0.7-4.1-1.2
				c-0.3-0.1-0.4,0.2-0.3,0.6c0.1,0.3-0.1,0.5,0.4,0.7C379.2,350.1,380.5,349.9,381.9,349.6z M270,295.6c0.5,0.1,2.9-2.7,2.7-3.2
				c-0.1-0.3-0.4-0.6-0.7-0.3c-0.7,0.9-1.9,1.3-2.4,2.4C269.4,295.1,269.4,295.4,270,295.6z M255.1,501.2c-1.3,0.2-2.1,0.9-2.9,1.6
				c-0.3,0.2-0.9,0.3-0.7,0.9c0.1,0.4,0.6,0.4,0.9,0.5c0.5,0.1,1,0.1,1.1-0.4C253.6,502.7,254.5,502.2,255.1,501.2z M226.6,507.9
				c-1.2,0.3-2.5,0.4-2.1,2.3c0.1,0.3-0.8,0.7,0,0.9c0.6,0.2,0.8-0.2,1.1-0.7C226.1,509.6,226,508.6,226.6,507.9z M341.9,472.9
				c-0.6-1.1-0.6-2.2-0.6-3.3c0-0.6-0.6-0.8-0.8-0.4c-0.3,0.6-1.1,0.4-1.4,1.3c1.7-0.6,1.3,0.6,1.3,1.3
				C340.4,472.8,340.9,473,341.9,472.9z M291,348.5c0.7,1.4,2,1.5,3.3,1.4c0.7,0,1-0.4,1-1.2C293.9,348.6,292.5,348.5,291,348.5z
				 M331.7,503c1.1,0.6,1.1,1.4,1.3,2.1c0.1,0.5,0.2,1,0.9,0.5c0.7-0.6,0.5-1.5,0.6-2.3c0.1-0.5-0.9-0.6-1.6-0.5
				C332.6,502.9,332.4,502.9,331.7,503z M203.4,573.2c-0.9,0.1-2.2,2.7-1.8,3.5c0.1,0.2,0.3,0.3,0.5,0.2c0.5-0.1,1.9-2.9,1.7-3.4
				C203.8,573.3,203.6,573.2,203.4,573.2z M341.9,545.2c-0.9-2.3-0.9-2.3-3.4-1C339.2,545.9,340.6,545,341.9,545.2z M356,355
				c-0.3,0.9-0.6,1.6,0.4,1.6c0.7,0,1.3-0.6,1.2-1.2c-0.2-0.9-0.6-2.3-1.5-2.1C354.8,353.5,356.2,354.7,356,355z M285.8,216.2
				c2.1,0.4,1.5-0.9,1.8-1.7c0.2-0.7,0.3-1.3-0.2-1.9c-0.1-0.1-0.5-0.1-0.6,0c-0.5,0.5-0.4,1.2-0.4,1.9
				C286.4,215,287.1,215.8,285.8,216.2z M249.2,539.5c-1.1-0.6-1.8-1.1-2.8-0.6c-0.2,0.1-1.1,0.1-0.2,0.6c0.2,0.1,0.2,0.7,0.3,1
				c0,0.4,0.1,0.8,0.6,0.8c0.5,0,0.9-0.2,0.8-0.7C247.8,539.9,248.4,539.8,249.2,539.5z M321.1,342.7c-1.5-0.4-2.8-0.4-3.8-1.4
				c-0.5-0.5-0.8,0-1.1,0.1c-0.3,0.1-0.4,0.5-0.4,0.8c0.1,0.5,0.5,0.7,1,0.7C318.1,342.7,319.5,343.1,321.1,342.7z M296.2,437.2
				c0.5,0.4-0.1,1.6,1.1,1.7c0.6,0,1-0.6,0.9-1.1c-0.2-0.7,0-1.8-1-2C296.5,435.8,296.3,436.5,296.2,437.2z M335,548.9
				c-0.7,0.1-1.8-0.1-1.8,1c0,0.9,1.1,0.5,1.7,0.6c0.6,0.1,1.6-0.3,1.7-0.9C336.7,548.7,335.7,549.1,335,548.9z M325.9,492.6
				c0.4,0.2,0.8,0.4,1.2,0.7c0.6,0.4,1.3,0.4,1.4-0.3c0.1-0.4,0.9-1,0.1-1.5c-0.6-0.4-1.2-0.6-1.6,0.3
				C326.8,492.2,326.1,492,325.9,492.6z M343.6,373.8c-0.6-0.4,0.5-1.7-0.7-1.8c-1-0.1-0.9,1.1-1.1,1.9c-0.1,0.6,0,1.2,0.9,1.2
				C343.5,375,343.7,374.6,343.6,373.8z M297.7,406.2c-1.4-0.4-1.3-1.2-1-2.2c0.1-0.3,0.1-0.7-0.2-0.8c-0.1-0.1-0.5,0-0.5,0.1
				c-0.2,0.9-0.7,2-0.5,2.8C295.7,407.1,296.7,406.4,297.7,406.2z M232.8,532.3c0.2,0.4,1.5,0.4,0.6,1.3c0.7,0,0,1.1,0.7,0.9
				c0.7-0.2,1.4-0.7,1.4-1.5c0-0.8-0.7-0.9-1.2-0.9C233.9,532,233.3,531.7,232.8,532.3z M259,501.3c0-0.2,0-0.3-0.1-0.4
				c-0.8-0.8-1.4,0-2,0.3c-0.6,0.3-1,1-1.3,1.7c0,0,0.1,0.1,0.1,0.1c0.7,0.4,1.1-0.1,1.6-0.4C258,502.2,258.7,501.9,259,501.3z
				 M303.6,503.2c-0.1-0.7-0.2-1.4-1-1.6c-0.8-0.2-1.5,0.1-2.1,0.6c-0.2,0.2-0.4,0.4-0.3,0.7c0.1,0.3,0.4,0.5,0.8,0.4
				C301.9,502.8,302.7,503.2,303.6,503.2z M224.6,518.9c0-0.6-0.1-1.1-0.8-1c-0.8,0.1-1.3,0.6-1.2,1.5c0,0.6,0,1,0.8,1
				C224.4,520.4,224.6,519.8,224.6,518.9z M254.4,441.7c-0.2-0.6-0.1-1.4-0.7-2c-0.4-0.4-0.9-0.6-0.9,0.1c-0.1,0.8-0.5,1.7,0.2,2.4
				c0.3,0.3,0.4,1,1,0.9C254.6,442.8,254.1,442.1,254.4,441.7z M328.5,538.9c1.6,0.1,1.3-1.4,1.7-2.1c0.3-0.5-0.4-0.5-0.7-0.4
				c-1.2,0.1-1.4,1.1-1.7,2C327.7,538.8,328.2,538.9,328.5,538.9z M228.9,241.2c1.2,1.1,2.6,1,3.9,0.9c0.4,0,0.7-0.4,0.6-0.8
				c-0.1-0.4-0.4-0.4-0.8-0.4C231.4,241,230.1,241.1,228.9,241.2z M296,395c0.1,0.6,0.3,1.2,1.2,1.2c0.5,0,1,0,0.8-0.8
				c-0.2-0.7-0.1-1.7-1.1-1.8C296.2,393.5,296.1,394.3,296,395z M366.2,294.4c-0.7,0.1-1.8,0-1.9,0.8c-0.1,0.6,0.9,1.1,1.6,1.1
				c0.6,0,1.4-0.5,1.4-1.2C367.3,294.4,366.7,294.4,366.2,294.4z M319.2,310.2c1.4-0.4,2.8-0.7,3.6-2.1
				C320.8,307.3,320.3,309.3,319.2,310.2z M347.3,328.4c-0.3,0.3-1.3-0.1-1.2,0.9c0.1,0.5,0,1.3,0.9,1.2c1,0,1-1,1.3-1.6
				C348.5,328.4,347.8,328.5,347.3,328.4z M183.5,370c-0.7-0.2-1.3,0-1.5,0.8c-0.1,0.5,0.4,0.8,0.8,0.7c0.9-0.2,2.2,0.1,2.4-1
				C185.3,369.8,184.2,370,183.5,370z M246.4,476.6c-1.4,0.6-1,1.6-0.6,2.6c0.2,0.5,0.7,0.4,1,0
				C247.9,478.1,246.9,477.4,246.4,476.6z M341.2,526.8c1.1-0.3,1.1-1.3,1.3-2.1c0.1-0.5-0.2-0.6-0.5-0.5c-1,0.2-1.3,1-1.6,1.8
				C340.3,526.4,340.7,526.7,341.2,526.8z M233.7,319.3c0.9-0.1,0.9-0.9,1.3-1.3c0.3-0.3,0.8-0.5,0.3-0.9c-0.3-0.3-0.8-0.4-1.2-0.2
				c-0.6,0.4-1,1-1,1.8C233.1,319,233.4,319.3,233.7,319.3z M312.9,279c0,0.3-0.5,1.1,0.3,0.9c0.7-0.2,1.3-1.1,1.7-1.8
				c0.2-0.5-0.4-1.1-1-0.8C313.4,277.6,312.6,277.9,312.9,279z M294.9,248.8c0.6-0.2,1.4,0,1.4-0.8c0-0.7-0.1-1.4-0.7-1.9
				c-0.4-0.4-0.9-0.4-1.3,0c-0.5,0.5,0,0.7,0.3,1C295.4,247.5,295.4,248,294.9,248.8z M370.4,355.1c-0.7,0.1-1.5,0-1.6,0.9
				c0,0.6,0.7,0.8,1.2,0.8c0.6,0,1.4-0.2,1.4-1C371.5,355.2,371,355.1,370.4,355.1z M342.6,503.5c0.2-0.5,0-1-0.5-1
				c-1,0.1-1,0.9-1,1.7c0,0.5-0.5,1.3,0.4,1.3C342.8,505.4,342.4,504.2,342.6,503.5z M235,641.4c0.3-1.2,0.3-2.1-0.5-2.6
				c-0.4-0.2-0.9,0-1.1,0.7C232.7,641.4,234.7,640.3,235,641.4z M376.2,351.9c-1.7,0-3.2,0-4.7,0
				C373.1,352.9,374.8,352.9,376.2,351.9z M344.3,520.6c0.1,0.5-0.4,1.5,0.7,1.4c0.8-0.1,0.8-0.8,0.8-1.5c0-0.5,0.3-1.2-0.6-1.1
				C344.7,519.5,344.1,519.8,344.3,520.6z M232.3,372.8c-0.1-0.9-0.9-0.9-1.3-0.8c-0.9,0.1-0.5,1.1-0.9,1.7
				c-0.3,0.5,0.5,0.6,0.7,0.6C231.8,374.3,231.8,373.3,232.3,372.8z M343.7,507.6c0.1,0.4,0,1.2,0.8,1.1c0.8,0,0.4-0.7,0.4-1.1
				c0-0.4,0-0.9,0.1-1.2c0.1-0.3,0.3-0.6-0.2-0.7c-0.3,0-0.9-0.3-0.9,0.4C343.9,506.6,343.8,507.1,343.7,507.6z M255.9,516.2
				c-0.3-0.5-0.4-1.3-0.9-1c-0.6,0.2-1.5,0.3-1.6,1c-0.1,0.5,0.8,0.7,1.1,1.2C255,516.9,255.5,516.6,255.9,516.2z M339.3,483.3
				c-0.1-0.6-1-0.8-0.7-1.5c0.2-0.4-0.1-0.8-0.5-0.8c-0.4,0-0.9-0.1-1,0.5c-0.1,0.4-0.3,0.8,0.2,1.1
				C337.8,482.9,338.4,483.4,339.3,483.3z M207,273.8c0-0.6,0.2-1.5-0.8-1.5c-0.8,0-0.6,0.7-0.6,1.2c0,0.6-0.1,1.3,0.7,1.3
				C207,274.8,207.2,274.4,207,273.8z M290.1,389.9c-0.1,0.7-0.1,1.3-0.2,1.9c-0.1,0.5,0,0.8,0.5,1c0.3,0.1,0.5,0.1,0.7-0.2
				c0.3-0.3,0.5-0.7,0.3-1.1C291,390.9,290.7,390.4,290.1,389.9z M336.6,529.3c1.3,1.1,1.9,1.1,2.7-0.1c0.2-0.3,0.4-0.6,0.2-0.9
				c-0.3-0.4-0.7-0.3-1-0.1C337.9,528.5,337.3,528.9,336.6,529.3z M268.5,299.4c0.3,0.6-0.2,1.6,0.9,1.4c0.4-0.1,1.3,0.2,1-0.7
				c-0.2-0.5,0.1-1.6-1.1-1.4C268.9,298.7,268.4,298.8,268.5,299.4z M335.2,363.8c-0.2-0.5-0.7-0.6-1.1-0.7c-1-0.1-1,0.8-1.2,1.4
				c-0.2,0.5,0.4,0.5,0.8,0.5C334.5,365.1,334.8,364.5,335.2,363.8z M323.1,539.9c0-0.6-0.1-1.2-0.7-1.1c-1.1,0.1-0.6,1.4-1.2,2
				c-0.2,0.2,0.4,0.5,0.7,0.4C322.5,541,323.2,540.7,323.1,539.9z M335.7,533.1c-0.1-1.1-1-0.9-1.7-1.1c-0.4-0.1-0.9,0.1-0.7,0.5
				c0.3,0.7,0.8,1.4,1.7,1.4C335.6,534,335.7,533.6,335.7,533.1z M232.2,318.7c-0.2-0.5-0.5-0.6-0.9-0.6c-1,0.1-1.2,0.9-1.3,1.7
				c-0.1,0.5,0.5,0.4,0.8,0.5C232,320.3,231.5,319,232.2,318.7z M331.9,377.9c-0.5,0.1-0.9,0.4-0.9,1c0,0.6,0.2,1.2,0.9,1.3
				c0.6,0.1,0.9-0.2,1-0.8C333,378.6,332.6,378.1,331.9,377.9z M338.4,378.1c-0.6,0-1.3-0.4-1.3,0.6c0,0.8,0.6,0.6,1,0.7
				c0.7,0.1,1.5-0.1,1.6-0.7C339.8,377.8,338.9,378.3,338.4,378.1z M241.8,451.8c-1.1-0.8-1.7-1.4-1.6-2.4c0.1-0.4-0.2-0.7-0.7-0.7
				c-0.3,0-0.4,0.2-0.5,0.5C239,450.1,240.4,451.6,241.8,451.8z M302.1,253.1c0.5,0.2,0.8,0.7,1.1,1.1c0.3,0.3,0.8,0.5,0.9,0.1
				c0.2-0.4,0.2-1.1-0.1-1.5C303.5,252,302.8,252.7,302.1,253.1z M333.3,491.3c-0.3-0.6,0-1.7-1.1-1.9c-0.4-0.1-0.7,0.4-0.5,0.8
				c0.2,0.7,0,1.6,1,1.8C333.2,492.1,333.4,491.8,333.3,491.3z M261.4,223.1c-0.7,0.1-0.8,0.6-0.8,1.1c0,0.4-0.3,1.2,0.4,1.2
				c0.6,0,1.1-0.6,1.2-1.3C262.2,223.6,261.9,223.3,261.4,223.1z M354.4,294.3c-0.7-0.2-1.3,0.2-1.9,0c-0.3-0.1-0.7,0-0.8,0.4
				c-0.1,0.4,0.2,0.7,0.4,1c0.2,0.3,0.6,0.3,0.8,0.1C353.5,295.3,354,295,354.4,294.3z M339.1,363.9c0.7,1,1.4,1.1,2.2,1.1
				c0.5,0,0.9-0.3,0.8-0.8c0-0.5-0.5-0.5-0.9-0.5C340.6,363.8,340,363.8,339.1,363.9z M232.4,518c-0.3,0.2-1.1,0.7-1,0.8
				c0.2,0.6,0.8,1.1,1.4,1.2c0.6,0.1,0.8-0.5,0.8-1C233.6,518.5,233.3,518.1,232.4,518z M229.2,546.3c-0.2,0.5-0.4,1,0.2,0.9
				c1-0.1,0.9-1.3,1.3-1.9c0.2-0.4-0.1-0.7-0.4-0.6C229.4,544.9,228.4,545.2,229.2,546.3z M242,544.5c0.1-0.7,1.1-1.3,0.1-2
				c-0.5-0.4-1.4,0.2-2.6,1.7C240.8,543.1,241.4,543.7,242,544.5z M237,444.7c0.7,1,0.7,2.1,1.1,3.1c0.1,0.3,0.2,0.4,0.6,0.4
				c0.2,0,0.5-0.2,0.4-0.4C238.5,446.7,238.4,445.2,237,444.7z M246.6,291.9c0-0.3-0.1-0.5-0.6-0.6c-1-0.1-1.3,0.7-1.5,1.3
				c-0.1,0.4,0.3,0.7,0.7,0.7C246.1,293.3,246.3,292.5,246.6,291.9z M299.8,404.1c-0.7-0.1,0.4-1.3-0.6-1.1c-1,0.2-0.5,1.3-0.8,1.9
				c-0.2,0.4,0.1,0.4,0.3,0.4C299.4,405.4,299.7,404.8,299.8,404.1z M249.4,505c1.1,0,1.3-0.1,1.4-0.5c0-0.4,0.3-1.1-0.3-1.3
				c-0.9-0.4-0.2,0.8-0.7,0.8c-0.2,0-0.3,0-0.5,0.1c-0.4,0.1-0.8,0.1-0.8,0.6C248.6,505.3,249.1,505,249.4,505z M353.1,299.3
				c-0.9-1.1-1.7-1.1-2.4-0.1c-0.2,0.4-0.2,0.6,0.1,0.8c0.3,0.2,0.7,0.3,0.8,0C351.8,299.1,352.5,299.5,353.1,299.3z M337.3,324.1
				c-0.1,0.1-0.3,0.2-0.5,0.3c0.6,0.7-0.3,1.4,0,2.2c0.1,0.2,0.2,0.4,0.5,0.3c0.5-0.2,1-0.6,0.8-1
				C337.8,325.3,338.4,324.4,337.3,324.1z M306.3,313.4c-0.2-0.4,0-1.3-0.7-1.2c-0.7,0.1-0.7,1-0.8,1.6c-0.1,0.4,0.1,0.8,0.5,0.8
				C306,314.5,306.3,314.1,306.3,313.4z M332.7,450.5c0,0.4-0.1,1.1,0.6,1.1c0.7,0,0.6-0.6,0.7-1.1c0.1-0.5,0-1-0.6-1
				C332.5,449.4,332.8,450.1,332.7,450.5z M329.9,607.9c-0.6-0.1-1,0-1.1,0.6c-0.1,0.6,0.4,0.7,0.8,0.7c0.6-0.1,1.3-0.1,1.3-0.9
				C330.9,607.5,330.1,608.2,329.9,607.9z M322.2,619.4c-1.1-0.3-2-0.6-2.9-0.9c-0.3-0.1-0.6,0-0.7,0.2c-0.1,0.3,0.1,0.7,0.5,0.7
				C320,619.6,321,620,322.2,619.4z M316.9,619.1c-0.1-0.5-0.6-0.5-1-0.5c-0.5,0.1-1.3-0.2-1.4,0.6c0,0.5,0.6,0.6,1.1,0.6
				C316.2,619.9,316.7,619.7,316.9,619.1z M217.9,523.5c0.1-0.4,0.1-0.8-0.4-0.9c-0.6-0.1-0.7,0.4-0.6,0.8c0,0.3,0.1,0.6-0.1,0.9
				c-0.2,0.2-0.6,0.4-0.1,0.7c0.4,0.2,0.9,0.1,1-0.4C217.8,524.3,217.8,523.9,217.9,523.5z M177.2,372.1c0.6-0.8,1.3-0.6,2-0.7
				c0.2,0,0.5,0,0.5-0.3c0-0.1-0.1-0.3-0.2-0.4c-0.6-0.4-1.3-0.2-1.9-0.1C176.9,370.8,177.1,371.4,177.2,372.1z M245.9,482.6
				c1,0,0.7-0.8,0.8-1.3c0.2-0.5-0.4-0.5-0.7-0.5c-0.7,0-0.8,0.6-0.9,1.1C245,482.5,245.5,482.6,245.9,482.6z M333.5,467.3
				c0.9,0.3,1.9,0.4,2.8,0.9c0.2,0.1,0.5,0.1,0.7-0.2c0.2-0.4-0.1-0.5-0.5-0.6C335.5,467,334.5,467.1,333.5,467.3z M239.4,518.9
				c0.1-0.6-0.2-0.7-0.7-0.7c-0.5,0-1.1,0.1-1.1,0.8c0,0.6,0.5,0.9,1.1,0.9C239.3,519.8,239.3,519.3,239.4,518.9z M336.8,514.7
				c-0.1-0.7-0.4-1.1-1-1.1c-0.3,0-0.9-0.1-0.7,0.5c0.2,0.5,0.2,1.3,0.8,1.4C336.4,515.6,336.7,515.1,336.8,514.7z M274.2,337.4
				c-1.2-0.6-2.3-0.5-3.3-0.3c-0.1,0-0.3,0.2-0.3,0.3c0,0.2,0.2,0.5,0.4,0.4C272,337.5,273.1,338.1,274.2,337.4z M282.2,389.6
				c-0.3-0.4,0-1.3-0.8-1.3c-0.6,0-0.7,0.6-0.7,1c-0.1,0.8,0.7,0.6,1.1,0.9C282.2,390.4,282.3,390,282.2,389.6z M370,301.7
				c-0.4-0.5-0.9-0.8-1.6-0.7c-0.4,0.1-0.8,0.2-0.7,0.6c0.2,0.7,0.9,0.8,1.5,0.9C369.7,302.5,370,302.3,370,301.7z M242.6,493.1
				c-0.7,0.5-1,1.1-0.8,1.7c0.1,0.3,0.9,0.4,1.2,0.1C243.8,494.3,242.5,493.8,242.6,493.1z M227.9,518c0.6-0.2,1.3,0.9,1.7-0.3
				c0.1-0.4,0.3-1.1-0.1-1.1C228.5,516.4,228.3,517.3,227.9,518z M329.6,314c-1.1,0-1.6,0.6-1.9,1.3c-0.1,0.3,0.3,0.6,0.6,0.6
				C329.3,315.8,329.4,314.9,329.6,314z M418.9,357.5c1,0.2,2,0.3,3,0.5c0.3,0,0.7,0,0.8-0.4c0.1-0.4-0.3-0.5-0.6-0.5
				C420.9,356.8,420,357.2,418.9,357.5z M396.3,354.4c-0.2-0.5-0.5-0.8-1.1-0.7c-0.5,0.1-1,0.3-0.9,0.9c0,0.5,0.5,0.6,1,0.6
				C395.7,355.1,396.2,355.1,396.3,354.4z M393.1,358.5c0.3,0,0.4,0,0.6,0.1c1.5,0.7,1-1,1.5-1.4c0.2-0.1,0.2-0.4-0.1-0.5
				c-1-0.4-1,0.7-1.6,1C393.3,357.8,393.3,358.1,393.1,358.5z M250.5,391.8c-0.4-0.2-0.7-0.4-1-0.6c-0.4-0.4-0.9-0.4-1.3-0.3
				c-0.1,0-0.2,0.3-0.2,0.4c0.2,0.5,0.7,0.3,1.1,0.5C249.5,392,249.9,392.2,250.5,391.8z M298.7,254.1c-0.4,0.2-0.8,0.5-0.7,1
				c0.1,0.5,0,1.2,0.8,1.1c0.4,0,0.7-0.4,0.5-0.8C299.2,255,299.4,254.3,298.7,254.1z M344.9,528.4c0-0.4-0.1-0.7-0.5-0.7
				c-0.7,0.1-1,0.6-1,1.2c0,0.4,0,1.2,0.7,1C344.8,529.8,344.6,528.9,344.9,528.4z M259.4,480.1c1.3,0.3,2.4-0.1,3.6-0.6
				C261.6,478.9,260.6,479.7,259.4,480.1z M178.7,368.8c-0.1-0.5-0.4-0.9-0.9-0.8c-0.7,0.1-0.9,0.6-1,1.2c0,0.4,0.4,0.4,0.7,0.4
				C178,369.5,178.6,369.4,178.7,368.8z M286,396.2c0.7-0.5,0.6-1.2,0.4-1.9c-0.1-0.3-0.4-0.4-0.7-0.2c-0.7,0.5,0.2,1,0,1.6
				C285.6,395.8,285.7,396,286,396.2z M262.5,484.5c0.1,0.7,1.4,0.7,0.6,1.6c-0.2,0.2,0,0.4,0.2,0.4c0.2,0,0.4,0,0.6-0.1
				c0.2-0.2,0.6-0.4,0.4-0.8C263.8,485,263.5,484.3,262.5,484.5z M224.7,489.7c-0.4-0.6-1.1-0.5-1.7-0.8c-0.2-0.1-0.7,0-0.8,0.4
				c-0.1,0.2-0.1,0.4,0,0.6c0.2,0.3,0.5,0.2,0.7,0.1C223.5,489.6,224.2,490.3,224.7,489.7z M326.7,531.9c0.4-0.2,0.9-0.2,0.9-0.9
				c0-0.5-0.3-0.7-0.8-0.8c-0.6-0.1-0.8,0.4-0.9,0.9C325.8,531.6,326.1,531.9,326.7,531.9z M299.3,295.2c0-0.4-0.3-0.5-0.7-0.4
				c-0.5,0.1-1,0.2-0.9,0.8c0.1,0.5,0.7,0.6,1.1,0.8C298.9,296,299.1,295.6,299.3,295.2z M307.4,287.8c-0.6,0.2-1,0.6-1,1.2
				c0,0.4,0.3,0.5,0.7,0.5c0.6,0,1-0.3,1-1C308,288.1,307.9,287.8,307.4,287.8z M274.3,283.8c0.9,0.5,1.5,0.7,2-0.1
				c0.2-0.3,0.5-0.7,0-1C275.4,282.4,275.2,283.6,274.3,283.8z M277.2,248.4c0.6,0,0.7-0.4,0.8-0.7c0.1-0.6-0.4-0.8-0.9-0.9
				c-0.4,0-0.9-0.1-0.9,0.4C276.2,247.7,276.8,248,277.2,248.4z M226.7,250.8c-0.1-0.4-0.2-0.9-0.8-0.8c-0.5,0.1-0.8,0.6-0.9,1
				c-0.1,0.6,0.5,0.5,0.9,0.5C226.5,251.5,226.9,251.4,226.7,250.8z M218.6,357c0.1-0.5-0.2-1-0.3-1.2c-0.9-1.4-1.1-0.1-1.1,0.4
				C217.2,357.2,218,356.9,218.6,357z M226.9,535c-0.8-0.3-1.5-0.8-2.1,0.1c-0.3,0.4,0.3,0.5,0.5,0.6
				C226.2,536.5,226.3,535.5,226.9,535z M230.9,436.6c1,0.2,1.3,1.2,2.3,1.2C233.1,436.4,232.4,436.1,230.9,436.6z M352.2,305.8
				c0.4-0.1,1,0.1,1-0.5c0-0.6-0.6-0.4-1-0.4c-0.4,0-0.9,0.1-0.9,0.5C351.2,306,351.8,305.7,352.2,305.8z M339,558.7
				c0.4,0.4,0.7,0.3,0.9,0.2c0.6-0.3,0.9-0.8,1.3-1.3c0,0-0.1-0.2-0.2-0.2c-0.8-0.3-0.9,0.6-1.4,0.8
				C339.5,558.2,339.3,558.5,339,558.7z M249.5,440c-0.3-0.6-1.1-0.7-1.1-1.3c0-0.3-0.3-0.4-0.6-0.3c-0.4,0.1-0.3,0.4-0.3,0.6
				C247.5,440.7,248.7,439.8,249.5,440z"/>
			<path d="M300.3,226.5c0.5-1.6,1.5-2,2.9-1.8c1.3,0.2,2.4-0.5,3.4-1.1c0.7-0.5,0.5-1.2,0.4-1.7c-0.1-0.7-0.7-0.6-1.3-0.5
				c-0.5,0.2-1,0-1.4-0.2c-0.9-0.5-1.7-0.2-2.4,0.3c-0.4,0.3-0.8,0.8-1.4,0.3c-0.6-0.6,0.1-0.8,0.4-1.1c0.2-0.3,0.4-0.6,0.1-0.8
				c-0.9-1,0-1.5,0.6-1.8c1.7-0.7,2.9-1.5,2.4-3.6c-0.1-0.6,0.2-0.7,0.8-0.5c1,0.5,1.3,1.2,0.7,2.1c-0.3,0.5-0.3,0.8-0.1,1.2
				c0.3,0.5,0.7,0.3,1.1,0.2c0.5-0.1,1.1-0.2,1.6-0.1c1.9,0.6,3.4,0.3,4.4-1.7c0.6,1.4-0.2,3.1-1.6,3.4c-2.3,0.5-3.2,1.8-3.3,4.1
				c0,2.5-0.3,2.5-2.7,2.6C303.3,226,301.9,227,300.3,226.5z"/>
			<path d="M267.3,432.3c-0.8-0.5-1.5-2.8-1-3.5c0.2-0.3,0.6-0.4,0.7,0.1C267.2,430,268,431.1,267.3,432.3
				C267.2,432.3,267.3,432.3,267.3,432.3z"/>
			<path d="M283.9,434.8c0.1,0.4,0,0.5-0.2,0.6c-0.3,0.1-0.6,0-0.7-0.2c-0.2-0.9-0.3-1.8-0.3-2.6c0-0.1,0.3-0.3,0.5-0.4
				c0.2-0.1,0.5,0.1,0.4,0.3C283.2,433.4,283.9,434.1,283.9,434.8z"/>
			<path d="M279.3,408.8c-0.6-0.1-0.6-0.6-0.6-1.1c0-0.3,0.1-0.8,0.4-0.7c0.6,0.1,0.9,0.6,0.7,1.2
				C279.8,408.5,279.8,408.8,279.3,408.8z"/>
			<path d="M283,409.1c0.6-0.1,0.6,0.3,0.6,0.7c0,0.4,0.1,1.1-0.5,1.1c-0.7,0.1-0.7-0.6-0.8-1C282.1,409.4,282.6,409.3,283,409.1z"
				/>
			<path d="M256.7,250.7c-1.8-0.9-2.1-2.9-3.9-3.5C254.5,247.8,256.1,248.4,256.7,250.7z"/>
			<path d="M219,377.3c-0.4,1.7-0.9,3.1-0.9,4.6c0,0.3-0.4,0.5-0.8,0.4c-0.4-0.1-0.2-0.4-0.2-0.7c0.2-1.4,1.1-2.6,1-4.1
				c0-0.3,0.3-0.4,0.6-0.4C218.9,377.2,219,377.4,219,377.3z"/>
		</g>
		<g>
			<rect x="401.5" y="0.7" fill="none" width="100" height="800"/>
			<path d="M482.8,532.8c-8.5,0-18-0.1-23.6-0.4v0.3c10.1,2.3,26.7,7.3,42.2,12.1v9.1c-13.6,3.6-32.4,8.8-42.3,10.9v0.3
				c5.8-0.4,16-0.6,24.6-0.6h17.8v9.8h-49.6v-16c13-3.9,29.2-8.2,36.6-9.7v-0.1c-6.5-1.2-23.9-6.7-36.6-10.8v-15.4h49.6v10.4H482.8z
				"/>
			<path d="M491.8,482.4c3.5,0,8.7-0.3,9.6-0.5v9.9c-0.7,0.3-2.7,0.5-3.6,0.5c2.1,1.4,4.5,3.9,4.5,10.5c0,9-5.9,12.8-11.7,12.8
				c-8.5,0-12.4-6.8-12.4-17.7c0-1.8,0-4.1,0-5.3H476c-2.6,0-5.3,1-5.3,5.7c0,4.4,1.9,5.3,4.6,5.8v9.8c-6.6-0.6-12-4.7-11.9-16
				c0.1-10,4-15.4,12.8-15.4H491.8z M484.5,492.5c0,0.9,0,2.8,0,4.2c0,6.2,1.9,8.5,5.5,8.5c2.7,0,5-1.7,5-5.4c0-6.6-4.6-7.4-9.5-7.4
				H484.5z"/>
			<path d="M458.1,472.6h-9.2v-10.3h9.2V472.6z M464.2,462.2h36.5c10.7,0,15.8,2.1,15.8,12.4c0,0.9-0.1,2.3-0.1,3.2h-8.3
				c0-0.3,0-0.7,0-1c0-3.3-1.2-4.3-5.3-4.3h-38.6V462.2z"/>
			<path d="M451.8,434.3v-10.6H474c-3.8-3.3-15-13.5-22.2-19.8V391l20.6,19.9l29-20.7v12.9l-22.1,15.2l5,5.2h17v10.6H451.8z"/>
			<path d="M448.9,386.1v-10.3h9.2v10.3H448.9z M464.2,386.1v-10.3h37.3v10.3H464.2z"/>
			<path d="M474.3,366.5c-3.7,0-7,0-10.1,0.1v-10.1c0.8-0.1,4.5-0.3,6.5-0.3c-4.3-1.6-7.4-5.6-7.4-12h9.8c-0.2,7.5,1.8,12,12,12
				h16.2v10.3H474.3z"/>
			<path d="M479.9,328.1c-3.7-2.7-9.5-7.7-15.7-12.8v-11.8l14.1,13l23.2-14.2v11.7l-16.6,9.4l4.6,4.8h12v10.3h-52.6v-10.3H479.9z"/>
			<path d="M485,291c4.7,0,9.2-2.3,9.2-7.5c0-4.3-1.7-5.5-4-6.5v-10.3c4.6,1.3,12.1,5.4,12.1,17.1c0,12.3-9.2,17.6-19,17.6
				c-11.7,0-20-6-20-18c0-12.8,9.3-17.2,18.6-17.2c1.3,0,2.1,0,3.1,0.1V291z M478.7,276.7c-4.3,0.1-8,1.8-8,6.8c0,4.9,3.4,6.9,8,7.3
				V276.7z"/>
			<path d="M473.6,259c-3.2,0-6.6,0-9.4,0.1v-10c1-0.2,3.6-0.3,4.7-0.4c-2.3-1.3-5.6-4.3-5.6-10.8c0-7.5,5.1-12.4,14.4-12.4h23.7
				v10.3h-22.6c-4.2,0-7.2,1.4-7.2,5.9c0,4.4,2.4,6.9,9,6.9h20.8V259H473.6z"/>
		</g>
		<g>
			<rect x="499.7" y="100.7" fill="none" width="200" height="600"/>
			<path d="M664.4,521c8.3-2.7,13.7-7.7,13.7-19.7c0-20.1-24.4-22.3-40.2-23.1c8.2,6,11.9,17.3,11.9,29.7
				c0,29.4-20.1,46.1-45.7,46.1c-27.9,0-49.1-19.4-49.1-52.3c0-40.2,31-53.9,66.2-53.9c40,0,80.9,10.3,80.9,54.9
				c0,33.1-20.2,46.6-37.7,49.2V521z M602.7,522.8c14.5,0,23.3-8.4,23.3-21.8c0-13.7-7-21.1-22.7-21.1c-9.5,0-24.2,3.9-24.2,21.6
				C579.1,515.8,589.4,522.8,602.7,522.8z"/>
			<path d="M630.6,366.4h26.9v60.1h-26.9V366.4z"/>
			<path d="M699.6,350.1h-2c-24.7,0-44.9-11.1-67.3-41.9c-14.7-20.1-19.7-26.1-32.1-26.1c-12.3,0-19.2,6-19.2,17.9
				c0,13.9,8.5,18.9,20.9,20.9v29.8c-24.5-2-45-18.1-45-50.7c0-36.5,21.7-49,43-49c20.7,0,30.7,8.9,49.1,35.1
				c12.3,17.5,20.4,24.6,26.8,27v-67.3l25.8,3.8V350.1z"/>
		</g>
	</g>
</g>
<g id="text">
</g>
<g id="guides" display="none">
</g>
<g id="scratch">
</g>
</svg>
