<?xml version="1.0" encoding="utf-8"?>
<!-- Generator: Adobe Illustrator 26.0.2, SVG Export Plug-In . SVG Version: 6.00 Build 0)  -->
<svg version="1.2" baseProfile="tiny" xmlns="http://www.w3.org/2000/svg" xmlns:xlink="http://www.w3.org/1999/xlink" x="0px"
	 y="0px" viewBox="0 0 800 800" overflow="visible" xml:space="preserve">
<g id="fill">
</g>
<g id="bg" display="none">
</g>
<g id="counters_00000155831629897369998050000010902328751353074356_">
	<g id="berki_00000137105677812600480980000000070496394395867039_">
		
			<rect id="_x31__x2F_2_x22__800x800_00000182526664846916737190000001013778391216994442_" x="0.5" y="0.1" fill="none" width="800" height="800"/>
		<g id="su_ldr_sm_00000068663036199394034320000003357777729685004433_">
			<path d="M296.8,514c-1.5,0.7-1.7-0.1-1.8-1.1c-0.2-1.2-0.4-2.4-0.7-3.6c-0.4-1.2-0.7-2.3,1.5-2.3c-1.3-0.4-1.4-1.2-1.3-2
				c0.1-1.3,0-2.7,0.5-4c0.4-1.1-0.7-2.3-0.4-3.5c0.3-0.9-1.1-2.2,0.6-2.8c0.3-0.1,0-0.2-0.1-0.3c-1.1-0.7-0.9-2.1-0.7-2.9
				c0.6-2.9-1.1-4.7-2.6-6.7c-0.7-0.9-1.3-1.7-1.5-2.9c0-0.1-0.1-0.3-0.2-0.4c-1-0.6-1.1-1.7-1.6-2.6c-1.4-2.4-2.9-4.6-4.2-7.1
				c-0.2-0.5-0.7-1-1.2-0.8c-0.6,0.1-1,0.6-1.1,1.3c-0.2,0.6-0.1,1.4-1,1.4c-0.1,0-0.2,0.2-0.2,0.3c0.6,2.9-0.9,5.5-1.6,8.1
				c0,0.1-0.1,0.1-0.1,0.1c-0.2,3.3-2.4,3.6-5,3.4c-0.1,0-0.3,0.1-0.5,0.2c1,0.5,1.8,0.1,2.6,0.1c1.7,0,2.2,0.6,1.5,2.2
				c-1,2.4-1.1,4.9-1.6,7.4c-0.6,2.9-0.6,5.9-2,8.6c-1.1,2.2-2.6,4.1-3.9,6.2c-0.4,0.6-1.2-0.3-1.6,0.6c1.4,0.1,1.2,0.7,0.9,1.8
				c-0.4,1.3,0.6,2.9-0.1,4.2c-1.2,2.1-0.7,5-3.1,6.5c0.5,1.7-1.4,2.1-1.8,3.2c-0.2,0.6-1.8,0.8-0.7,1.9c-0.1,0.1-0.3,0.3-0.4,0.4
				c-2.2,1.1-2.3,3.7-3.6,5.4c0,0.1,0,0.2,0,0.3c-0.1,1-1.8,1.1-1.6,1.2c1.2,0.7,0.3,1.2-0.1,1.7c-0.4,0.6,0.1,1.8-0.8,2.1
				c-0.9,0.3-0.2,1.6-1.2,1.6c0.2,1.8-1.1,3-1.7,4.5c-0.3,0.8-0.9,1.3-1.7,1.7c-1.7,0.8-3.2,1.8-4.6,3.1c-0.4,0.4-0.8,0.8-1.3,0.9
				c-3.3,0.6-3.6,3.6-4.7,5.8c-0.5,0.9-0.1,2.3-0.4,3.4c-0.3,1.1-0.7,2.1-1.4,3.1c-0.3,0.4-0.1,1.4-0.4,2.3
				c-0.5,1.1-1.1,2.2-1.6,3.4c-1.7,3.6-2.9,7.3-4.5,10.9c-1,2.1-2,4.2-2.5,6.4c-0.4,1.6-1.6,2.9-1.7,4.6c-0.1,1.4-1.3,1.3-2.6,1.2
				c1.8,0.4,1.4,1.4,1,2.5c-1.1,3.1-2.6,6-5.1,8.2c-0.5,0.4-0.2,0.7-0.2,1.2c0.2,2.3,2.4,3.4,2.6,5.7c0.1,1.3,0.6,2.7,1.4,3.7
				c1.3,1.6,0.6,3.6,1.8,5.2c0.8,0.9-0.9,0.3-1,1c2.8-0.2,2.3,2.9,3.8,4.2c0.2,0.1,0.3,0.7,0.6,1c0.7,0.8-0.3,0.6-0.6,1
				c2-0.5,2.4,1.4,3.5,2.2c2.1,1.4,4,3,5.9,4.6c1.8,1.5,3.8,3,5,5.4c1.3,2.6,1.5,5.2,1.6,7.9c0,0.3,0.2,0.6-0.1,0.7
				c-1.5,0.6-2.7,1.9-4.2,2.3c-2.4,0.6-4.9,0.6-7.3,0.7c-1,0-2,0-2.7-1c-0.4-0.5-0.9-0.4-1.2,0.1c-0.5,0.8-1.2,0.9-1.9,0.9
				c-2.8,0.1-5.4-0.2-7.9-1.7c-0.4-0.2-0.9-0.3-1.4-0.2c-2.4,0.4-4-1-5.8-2.1c-1-0.7-2.3-0.7-3.3-1.5c-0.9-0.7-2.1-1-2.3-2.4
				c-0.1-0.4-0.5-1-0.9-1.1c-1.8-0.3-2.9-1.6-4.1-2.7c-1.4-1.3-2.9-2.5-3.9-4.1c-1.4-2.3-2.9-4.1-6.2-3.7c-2,0.3-4.3-0.2-5.7-2.3
				c-0.7-1.2-2.2-1.6-3.2-2.7c-1.7-2-3-4.4-5-6.2c-0.8-0.7-0.9-2.3-0.6-3.5c0.7-3.1,1.3-6.4,2.8-9.2c1.3-2.4,1.8-5.2,3.8-7.2
				c0.2-0.2-0.1-0.9,0.2-1.6c0.5-1.2,1.2-2.4,1.9-3.2c1.6-1.6,3-3.6,5.5-4.4c-1.7-0.6-1.1-2.2-1.4-3.4c-0.3-1.2-0.3-2.8,0.8-3.9
				c0.1-0.1,0.4-0.1,0.3-0.4c-0.4-3,1.4-5.6,1.4-8.5c0-0.9,0.8-1.6,1.2-2.4c1.1-2,0.7-4.4,1.6-6.4c1.3-2.9,1.9-6.1,3-9.2
				c1.5-4.2,3.7-8,4.9-12.3c0.4-1.3,1.1-2.6,1.9-3.8c1-1.5,1.6-3.1,2.4-4.7c0.2-0.3,0.4-0.8,0.3-1c-1.6-2.6,0.4-5,0.3-7.5
				c0-0.1,0.1-0.2,0.1-0.3c0.5-0.7-0.4-1.4,0-2.2c0.4-0.8,1.5,0.3,1.9-0.7c-2.1-0.5-2.1-0.5-0.8-2.3c0.1-0.1,0.1-0.3,0.1-0.4
				c-0.3-1.8,0.6-3.2,1.3-4.8c0.6-1.4,0.7-3,1.1-4.5c0.2-0.6,0.1-1.1,0.7-1.5c0.6-0.4,0.8-1.2,0.8-1.7c-0.1-1.9,1.2-3.4,1.4-5.2
				c0.1-0.7-0.5-0.8-0.4-1.6c0.2-1.7,0.7-3.6,0.3-5.2c-0.6-2.3-0.5-4.5-0.6-6.8c-0.1-2.1,0.1-4.2,1.3-5.9c0.3-0.5,0.3-0.7,0.1-1.1
				c-0.1-0.3-0.5-0.7-0.3-0.8c1.2-0.8,0.4-2.1,0.8-3.1c0.5-1.1,1.4-2,1.9-3.1c0.6-1.5,0.9-3.2,0.4-4.8c-0.3-1-1-2,0.2-2.9
				c-0.4-0.5-0.7-1,0.1-1.4c-0.9-1.3,0.4-1,1.1-1.2c-2-0.2-1.3-1.9-1.4-2.6c-0.1-3.3-0.3-6.7,0.2-10c0.1-0.7,0.5-1.5-0.2-2.2
				c-0.2-0.2,0-0.5,0.1-0.7c0.5-0.8,0.2-1.9-0.8-2.2c-1.8-0.6-3.2-1.9-4.9-2.6c-1.6-0.6-3.1-3.4-2.8-5c0.1-0.8-0.6-2,0.9-2.4
				c-1.1-1.1,0.1-2.2,0.1-3.3c0-1.6,0.6-3,1-4.5c0.5-1.8,0.1-3.7,0.8-5.4c0.3-0.8,0.3-1.9,0.3-2.8c0-1.2,0.9-2.1,0.7-3.3
				c-0.1-0.4,0.2-0.7,0.7-0.7c0.3,0,0.7-0.2,0.4-0.4c-1.3-1.1,0-2.4-0.3-3.6c-0.2-0.6-0.7-2,0.8-2.4c0.4-0.1,0.1-0.4-0.1-0.6
				c-0.5-0.6-0.3-0.9,0.1-1.5c0.6-0.7-0.2-1.7,0.4-2.6c0.4-0.6,0.2-1.5,0.7-2.2c0.5-0.7,0-1.2-0.9-1.4c-2.1-0.3-4.2,0.2-6.3,0
				c0-0.8,0.8-0.4,1.3-0.9c-3.2,0.5-5.3-1.2-7.3-3.2c-1.3-1.4-2.1-3.1-2.9-4.7c-0.9-1.7-1.6-3.4-1.9-5.3c-0.4-1.9-0.5-3.8-0.6-5.7
				c0-0.8-0.4-1.7,0.1-2.6c0.5-1.1-1-2.4-2.4-2c-2.8,0.8-5.7,0.6-8.5,1.2c-2.9,0.7-5.9,0.8-8.7,1.9c-1.7,0.7-3.7-1.2-3.6-3.3
				c0-0.6,0.1-1.2-0.2-1.7c-0.4-1.1,0.9-1,0.9-1.5c0.1-0.6-1.5,0-1.2-1.1c0.2-0.6-0.2-1.3,0.2-1.9c0.1-0.2,0.1-0.7,0-0.9
				c-1-1.7-0.4-3.5-0.2-5.1c0.2-1.8,0.4-3.6,0.7-5.4c0.2-1.6,0.3-3.3,0.4-4.9c0-0.4-0.1-0.9,0.5-0.9c0.6,0,1.1-0.5,1.7-0.1
				c0.3,0.2,0.3,0.4,0.1,0.6c-0.3,0.3-0.6,0.6-0.8,1c-0.3,0.5-0.8,1-0.5,1.6c0.3,0.6,0.9,0,1.3,0c0.4,0,0.8-0.1,0.9,0.5
				c0,0.4-0.4,0.5-0.7,0.5c-0.4,0.1-0.9,0.1-1.1,0.5c-0.2,0.3-0.4,0.7-0.3,1c0.1,0.5,0.6,0.3,1,0.2c2.1-0.4,4.3-0.3,6.2-1.6
				c0.8-0.5,1.9,0.6,2.7-0.3c0.6-0.7,1.5-0.7,2.3-0.9c2-0.4,4-0.7,6-0.8c1.3-0.1,1.2-1.1,1.3-1.8c0-0.9-0.8-0.5-1.4-0.5
				c-2.4-0.3-4.8-0.7-7.2-0.1c-0.4,0.1-0.9-0.2-1-0.7c0-0.5,0.5-0.5,0.8-0.6c1.5-0.2,2.2-1.8,3.7-2c0.3,0,0.5-0.4,0.4-0.7
				c-0.1-0.3-0.4-0.3-0.7-0.3c-0.8,0-1.6,0-2.4,0c-0.7,0-1.4,0.2-1.6-0.9c-0.1-0.6-0.8-0.6-1.2-0.6c-2.4,0.2-4.9,0.4-7.3,0.8
				c-1.9,0.3-0.9,2.1-1.1,3.2c-0.1,0.5,0,1.1-0.5,1.3c-0.3,0.1-0.8,0.3-1.1,0.2c-0.5-0.2-0.2-0.6-0.1-1c0.7-3.4,2.2-6.4,5.4-7.8
				c2.2-1,4.9-1.7,7.3-0.1c0.2,0.1,0.5,0.2,0.6,0c1.1-2.2,3-0.6,4.5-1.1c0.4-0.1,0.8,0.1,1.3,0.1c0.4,0,0.9-0.2,0.8-0.6
				c-0.3-1.4,1-2.5,1-3.7c0-3.2,1.5-6.4-0.1-9.6c-0.3-0.6-0.3-1.4,0.2-2c1.4-1.5,1.6-3.3,1.3-5.2c-0.1-0.5-0.1-1.1,0.2-1.4
				c1.5-2.1,0.9-4.7,1.9-6.9c0.4-0.9,1.3-1.6,1.4-2.7c0.1-2.2,0.2-4.5,0.4-6.7c0.2-2.5,0.9-4.8,2.5-6.7c0.3-0.3,0.5-0.5,0.4-1
				c-0.2-2.4,1.1-4.3,2.4-6.1c0.7-0.9,0.8-1.9,0.6-2.8c-0.4-1.9-1.1-3.6-2.2-5.2c-0.9-1.3-1.8-2.8-1.7-4.5c0.1-2.7,0.1-5.3,0.5-8
				c0.3-1.7,0.5-2.9,2.8-2.3c-0.6-0.9-1.7-0.3-2.1-1.1c-0.4-0.8,0.1-1.6,0.2-2.3c0.4-2.3,0.9-4.6,1.4-6.9c0.2-1.1,1.5-2,0.9-3.3
				c0,0,0.3-0.3,0.5-0.3c3-0.9,3.6-3.5,4.3-6.1c1-3.7,2.3-7.3,5.8-9.5c0.5-0.3,1-0.8,1.6-0.4c0.5,0.3,0.6,0.1,0.7-0.4
				c0.1-0.2,0.4-0.5,0.4-0.4c1.6,1.2,2-1,3.2-1.1c1.4-0.1,2.7-0.5,4.1-0.7c1.7-0.3,3.3-1.1,5.1-1c1.7,0.1,3.3-0.2,4.9,0.6
				c0.9,0.5,2,0.3,3.1-0.2c2.5-1.1,3.9-3.5,6.2-4.7c0.7-2.9,3.3-2.5,5.3-3.1c0.9-0.3,1.3-0.6,1.6-1.6c0.1-0.5-0.2-1.6,0.9-1.5
				c0.1,0,0.2-0.1,0.2-0.2c0.1-2.1,0.2-2,1.5-3.5c0.8-0.8,0.8-2,0.8-3.1c0-1.2-0.1-2.3,1.7-2c0.9,0.2,0.5-0.6,0.5-0.9
				c-0.1-1,0.2-1.5,1.4-1.1c0.6,0.3,1.1,0.3,1.5-0.5c-0.9,0-1.6-0.6-2.5-0.4c-0.4,0.1-0.5-0.1-0.6-0.5c-0.5-1.8-1.6-3.3-1.7-5.2
				c0-0.7-0.5-0.7-1-0.8c-1.4-0.3-2.8-0.2-4.2-0.1c-1.1,0-1.8-0.4-2.6-1.1c-0.4-0.3-0.9-0.9-0.6-1.2c1.3-1.1-0.3-2.6,0.6-3.9
				c0.7,0.4,1,1.9,2,1.1c0.7-0.6,1.7-0.3,2.5-1.2c-1.5-0.2-2.8-0.4-3.9-1.1c-0.3-0.2-0.6-0.3-0.5-0.7c1.2-3.5,0.5-7.2,1-10.8
				c0.4-2.7-0.1-5.4,0.3-8c0.4-2.5,0.9-5,2.2-7.3c0.8-1.5,1.5-3,2.3-4.5c0.5-1,1.4-1.4,2.1-2.1c2.7-2.7,5.9-4.8,9.3-6.7
				c1.5-0.8,3.3-1.3,4.8-2.4c0.9-0.7,1.8,0.3,2.9,0.1c-0.5-0.6-0.7-1.2,0.4-1.3c4.1-0.3,8.2-0.6,12.3-0.4c1.9,0.1,3.6,1,5.4,1.4
				c3.8,0.8,6.8,3.4,9.9,5.4c1.8,1.1,3.2,3.1,4.5,4.8c1.1,1.5,1.7,3.3,2.7,4.9c0.5,0.9,1,2.1,1.3,3.3c0.2,0.9,0.8,1.7,1.1,2.6
				c0,0,0.1,0.1,0.1,0.1c0,2,1.5,3.6,1.8,5.5c0.3,1.8,0.7,3.5,1.3,5.1c0.7,1.7,1.2,3.6,2.6,4.9c0.7,0.6,0.1,1-0.5,1.4
				c1.6,0.9,3,2,4.2,3.2c0.9,1,0.8,1.6-0.4,2.2c-0.4,0.2-0.8,0.3-1.2,0.4c-1.1,0.2-1.9,0.5-2.9,1.1c-1.2,0.8-2.8,0.9-4.2,1.3
				c-0.7,0.2-1.4,0.3-2,0.4c-1.7,0.4-2.2,1.2-1.6,2.8c0.3,0.8,0.1,1.7,0.5,2.5c0.3,0.6-1.4,2-2.6,2c-0.9,0-2,0.2-1.8-1.3
				c0.1-0.5,0-1-0.7-1.1c-0.6-0.1-0.9,0.3-1.1,0.7c-0.2,0.3-0.3,0.7-0.5,1c-0.1,0.2-0.2,0.4-0.3,0.6c-1.1-0.6-2.3,0.3-3.5-0.2
				c-0.8-0.3-1-1-0.9-1.9c0.1-0.4,0-0.8-0.4-1c-0.4-0.2-0.7,0-1,0.3c-0.3,0.5-0.9,1-1.3,0.5c-1.1-1.4-1.1-0.6-1.2,0.4
				c-0.2,1.9-1.7,2.2-3.3,2.6c0.2-0.8,0.4-1.5,0.6-2.1c0.2-0.3,0.8-0.6,0.3-1c-0.4-0.4-1.1-0.1-1.4,0.4c-1.1,1.7-2.7,3.1-3,5.3
				c-0.2,1.6-1,3.1-1.8,4.5c-0.6,1,0.3,1.8,0.2,2.6c-0.1,1.1,0.2,1.6,1.3,1.8c0.5,0.1,0.8,0.4,1,1c0.5,2.1,1.5,4,2.2,6
				c0.1,0.3,0.1,0.6,0.5,0.7c1.1,0.3,2.5,0.3,2.1,2.2c0,0.1,0.6,0.6,0.9,0.5c1.4-0.2,1.7,0.7,2.2,1.8c0.6,1.4,2.2,1.5,3.3,1.2
				c1.3-0.4,2.7-0.8,4-1.5c0.7-0.4,1.1-1,0.9-1.7c-0.6-1.5-0.4-3.4-2.1-4.4c-0.4-0.2-0.7-0.6-1-1c-0.6-0.6-0.5-1.1,0.2-1.4
				c1-0.4,2.2-0.3,3.1,0.1c0.7,0.3,0.2,1.4-0.1,2.2c-0.3,0.6-0.4,1,0,1.7c1.6,2.8,0.5,5.7-2.4,7.1c-1.4,0.7-2.9,1-4.4,1.4
				c-0.7,0.2-1.6-0.3-2.4-0.4c-0.7-0.1-1.4-0.1-2,0.3c-1.1,0.8-1,1.5,0.2,2c1,0.4,1.8,1.2,2.9,1.2c0.2,0,0.5,0.2,0.5,0.3
				c0.3,1.6,1.7,1.7,2.8,2.2c3.9,1.9,6.4,5,8.2,8.8c0.1,0.1,0.2,0.3,0.3,0.4c2.9,1.7,4.2,4.6,5.7,7.4c1,1.9,2.1,3.8,2.3,5.8
				c0.1,1.6,1.8,2.8,1.1,4.6c2.3,1.6,1.8,4.3,2.5,6.5c0.3,0.9,1,1.9,0.3,2.9c-0.1,0.1,0.1,0.6,0.1,0.6c1.7-0.2,2.1,2.1,3.6,2
				c1,0,1.9,0.7,2.1,1.3c0.4,1.3,1.4,1.7,2.3,2.3c2,1.1,3.3,3.1,5.4,4.1c2.6,1.2,5.1,2.8,7.9,3.8c0.5,0.2,1.1,0.1,1.6,0.2
				c0.7,0,0.8-0.5,1-1c0.3-0.7-0.2-0.8-0.6-1c-1.9-1.1-2-2.2-0.5-3.8c0.8-0.8,0.9-2.1,2.3-2.3c0.2,0,0.3-0.4,0.2-0.7
				c-0.8-2,0.8-2.9,1.9-3.9c0.8-0.8,1.7-1.4,2.4-2.4c0.8-1.1,2.3-1.8,3.7-1.6c1.5,0.1,2,1.3,2.3,2.7c0.2,1,0.3,1.9,0.4,2.9
				c0.2,2.2,1.8,2.9,3.7,1.7c0.4-0.3,0.9-0.5,1.4-0.8c2.3-1.7,4.3-1.1,5.5,1.6c0.1,0.1,0.2,0.3,0.2,0.4c0.1,0.6-1,1.2,0.4,1.7
				c0.7,0.2,1.1,1.2,1.9,1.6c0.5,0.2,0.8,0.5,1,1.1c0.3,1.3,0.8,2.6,2.4,2.8c0.1,0,0.2,0.1,0.2,0.2c0.4,0.7,1.7,0.9,1.5,1.7
				c-0.2,0.8-1.3,0.4-2,0.5c-0.9,0.2-1.4,0.3-1.4,1.4c0,0.7-0.3,1.6-0.7,2.3c-0.3,0.5-0.4,0.9,0.2,1.1c0.6,0.3,0.8,1.5,1.4,1.1
				c0.6-0.5,1.4-1,1.8-1.9c0.2-0.4,0.1-0.7-0.2-1c-0.7-0.6-0.9-1.5-0.5-2.1c0.5-0.7,1.5-0.6,2.2-0.1c0.2,0.7-1.1,0.7-0.6,0.9
				c0.7,0.3,0.1,1.3,1.3,1.4c1.8,0.1,3.4,2.5,3,4.3c-0.4,2,0.7,3.5,1.6,5.1c0.8,1.3,0.7,2.4-0.4,3.4c-0.2,0.2-0.5,0.3-0.4,0.6
				c0.6,1.4-0.5,1.9-1.4,2.1c-1.6,0.5-2,1.6-1.8,2.9c0.2,1.9-0.5,3.1-1.7,4.5c-0.8,1-1.4,2.3-2.6,3.1c-1,0.8-2.1,1.6-3,2.5
				c-1.5,1.5-3.9,1.7-5.9,2.5c-0.9,0.4-2.5-0.8-3.4-1.8c-0.4-0.4-0.2-1.5-1.2-1.1c-0.7,0.3-1,1.2-0.8,1.9c0.2,0.8,0.1,1.4-0.4,2
				c-0.8-0.2-0.7-1-1.3-1.6c-0.3,1.8-0.1,3.4-0.4,5c-0.3,1.2,0.4,1.4,1.8,0.4c-1,2.5-0.8,5-3.1,6.3c0.8,1.6,2.5,1.8,4.2,1.9
				c5.6,0.4,11.2,0.5,16.7,1.4c4,0.7,8.1,0.9,12.1,1.2c5,0.5,9.9,1.5,14.9,1.3c0.5,0,1.2,0,1.6,0.3c1.5,1.2,3.2,1,4.9,0.9
				c2.8-0.1,4.6-1.6,5.3-4.2c0.6-2.3,3.9-3.3,5.7-1.8c0.6,0.5,0.3,1.2,0.3,1.8c0.2,3.7,1.8,5.5,5.4,5.8c3.8,0.3,7.4,1.1,11.2,1.2
				c2,0,2.8,2.1,1.5,3.8c-1.6,2-2.6,4.2-3.6,6.5c-0.3,0.6-1,0.8-1.8,0.8c-3.6-0.1-7.2-0.4-10.8-1.2c-2.1-0.5-4.3-0.1-6.5-0.3
				c-4.3-0.5-8.6-0.7-12.9-1.3c-0.9-0.1-1.8,0-2.7-0.1c-7.2-1.2-14.4-1.7-21.7-2.1c-2.2-0.1-4.4-0.1-6.5-0.4
				c-0.8-0.1-1.4-0.6-2.3-0.7c-2.1-0.2-3.6,1.1-5.3,1.8c-2.2,1-4.3,0.3-6.4,0.2c-1.9-0.1-3.7-0.3-5.6-0.2c-0.7,0-1,0.3-1.2,1
				c-0.7,2.5-1.2,5.1-2.8,7.3c-0.4,0.6,0.4,1.2,0.3,1.6c-0.8,4-0.5,8.1-1.1,12.2c-0.1,1-0.3,1.5-1.7,1.6c0.8,0.4,1.4,0.1,1.1,1.1
				c-0.3,1.3-0.6,2.7-0.3,4.1c0.2,0.7-0.2,1.5-0.4,2.1c-0.8,3.2-1.2,6.5-2.4,9.6c-0.2,0.7-0.4,1.6-1.3,0.5c-0.3-0.4-0.8-0.3-1.1,0
				c-0.2,0.2-0.4,0.4-0.2,0.7c0.3,0.5,0.6,0.2,1,0.1c1.1-0.3,1.4,0.2,1.1,1.2c-0.3,1-0.6,1.9-0.8,2.9c-0.3,1.4-1.2,2.1-2.8,1.9
				c-2.4-0.3-4.9-0.4-7.4-0.5c-0.7,0-1.4,0-2.1,0.2c-0.5,0.1-0.9,0.2-0.4,1.2c0.7,1.6,1.2,3.4,1.6,5.1c0.4,1.9,1.2,3.5,1.7,5.3
				c0.2,0.9,0.7,1.7,0.4,2.7c0,0.1-0.1,0.2-0.1,0.3c1.4,2.3,1.8,3.7,2.1,5.9c0.3,2.1,1.6,3.9,1.8,6.1c0.2,2.2,0.9,4.4,0.9,6.7
				c0,1.5-1.3,1.8-1.8,2.8c-0.4,1-1,1.7-0.3,2.9c0.3,0.6,0.3,1.7,0.4,2.6c0.2,1.2,0.5,2.4,0.7,3.7c0.1,0.6-0.2,1.1,0.4,1.8
				c1.1,1.3,0.1,3.2,0.3,4.8c0.1,0.5-0.9,0-0.9,0.8c1.2,0,2.2,0.2,1.4,1.8c-0.2,0.4,0.3,0.3,0.5,0.4c1.6,0.6,2.7,2.5,2.1,4.2
				c-0.4,1.1,0.1,1.9,0.2,2.7c0.4,1.7,0,3.5,0.8,5.1c1.1,2,1.2,4.3,1.7,6.5c0.3,1.3,0.6,2.7-0.2,4.1c-0.1,0.2,0.8,0,0.7,0.7
				c-0.1,0.9,0.7,1.7,0,2.6c0.9,0.6-0.4,1.8,0.7,2.5c0.4,0.2,0.5,1.8,0.2,2c-1.1,0.8-0.4,1.1,0.2,1.5c0.9,0.7,0.4,1.6,0.2,2.2
				c-0.8,2.6-1.1,5-0.1,7.7c0.4,1,1.3,2,1.1,3.4c-0.3,1.4-0.3,2.9-0.2,4.3c0.2,2.7-0.3,5.3-0.3,8c0,2.7,0.3,5.4-0.6,7.9
				c-0.4,1,0.7,3-1.5,3.3c1.4,0.3,1.4,1,1.3,2.1c-0.1,1.1-0.1,2-0.7,3.1c-0.6,1.2-1.2,0.6-1.8,0.7c-0.7,0.2-1-0.4-0.8-1.2
				c0.1-0.3-0.1-0.5-0.4-0.6c-0.3-0.1-0.7,0.1-0.8,0.4c-0.7,1-0.6,2.3-1,3.4c-0.2,0.5,1,0.8,1.1,0.3c0.4-1.3,2.1-0.5,2.6-1.6
				c0.1-0.2,0.7-0.2,1,0.1c0.4,0.3,0,0.5,0,0.8c-0.3,1-0.4,1.9-0.3,3c0.1,0.8,0.2,1.7-0.3,2.5c-0.7,1.2-0.7,2.6-0.7,4
				c0,1.4-0.4,2.7-0.9,4c-0.5,1.3-1.1,2.5,0,3.8c0.5,0.5,0,1.1-0.2,1.5c-0.5,1.4,0.7,2.8-0.1,4.2c-0.8,1.5,0.1,3,0,4.6
				c-0.1,1.6-0.3,2.5-2.1,2.1c0,0.6,0.3,0.6,0.7,0.6c1.4-0.2,1.8,0.9,1.5,1.6c-0.3,0.9,0,2.1-0.9,2.8c-0.1,0.1-0.2,0.2-0.1,0.4
				c1,2.9,0,5.7-0.2,8.6c-0.2,2.8-0.8,5.6-0.5,8.4c0.1,0.8-0.2,1.5-0.2,2.2c0,0.8-0.2,1.6-1.6,1.2c1.4,0.5,1.3,1.5,1.2,2.4
				c-0.2,1.8,0.3,3.7-0.2,5.5c-0.3,1.2-0.4,2.4-0.1,3.6c0.2,1-0.7,0.9-1.2,1.2c0.1,0.7,1.3,0.4,1.1,1.3c-0.2,0.7-0.6,1.1-1.2,1.4
				c-0.8,0.4-0.9,1.8-2.2,1.6c0.7,0.8,1.5,1,2.5,1.1c0.5,0.1,1.1,0,1.3,0.5c0.3,0.9-1,0.2-0.9,1c0.8,0.1,2.2-0.4,1.3,1.4
				c-0.2,0.4,0.4,0.6,0.8,0.9c2.4,1.8,4.8,3.4,6.7,5.8c0.4,0.5,1,0.7,1.5,1.1c1.3,1.2,2.6,2.7,4.2,3.1c1.7,0.5,3.1,1.5,5,1.6
				c1.9,0.2,4,0.6,5.9,1.1c3,0.8,5.5,2.7,8,4.6c0.8,0.7,1.3,1.4-0.5,1.7c2.1,0.4,2.7,1.2,2.9,3.5c0.2,1.6-0.5,3.3,0.3,4.9
				c0.2,0.4-0.3,0.8-0.7,0.9c-3.2,1.5-6.6,2.9-10.1,3.3c-4.1,0.4-8.2,0.7-12.3,0.4c-2.1-0.2-4.1,0.4-6.1,0.8c-1,0.2-1.9,0.2-2.9-0.3
				c-1.4-0.7-3-0.8-4.6-0.7c-1.6,0.1-3,0.1-4.3-1.4c-1.1-1.3-3.1-0.6-4.7-0.9c-0.5-0.1-1,0.1-1.6-0.1c-1.7-0.7-3.5-0.3-5,0.5
				c-4.7,2.7-9.8,2.9-15,2.3c-0.8-0.1-1.9,0.6-2.4-0.7c-0.1-0.2-0.2-0.1-0.4,0c-1.8,1.2-3.4,0.5-3.7-1.5c-0.1-1.1-0.7-2.2,0.1-3.3
				c0,0,0-0.1,0-0.2c-1.7-1.5-0.2-2.1,1.2-2.8c-2.6-0.1-1.6-2.1-1.9-3.1c-0.3-1.1,0.3-2.5,0.3-3.7c0-0.9,0.5-0.9,1.4-0.9
				c-0.8-0.2-1.9-0.1-0.9-1.1c0.6-0.6,0.8-1.7,0.7-2.2c-0.6-2.9,1.7-4.6,2.9-6.7c0.6-1.1,0.7-3.7-0.2-4.7c-0.6-0.7-0.9-1.4-1-2.3
				c0-0.7-0.2-1.5,1.2-1.5c-1.2-0.2-1.2-0.8-1.2-1.7c-0.1-1.9-0.4-3.9-0.7-5.8c-0.3-2.5,0.5-4.9,0.4-7.4c-0.1-1.8-0.1-3.6-0.2-5.4
				c-0.1-1.2,0.1-2.5-0.3-3.7c-0.1-0.4-0.2-1.3,0.7-0.5c0.1,0.1,0.3,0,0.4-0.2c0.1-0.3-0.1-0.5-0.4-0.6c-1.2-0.5-0.6-1.6-0.8-2.4
				c-0.2-0.7,0.8-0.3,1.1-0.9c-1-0.1-1.1-0.7-1.1-1.6c0-3.7,0.4-7.3,0.4-10.9c0-4.6-0.3-9.3,0.1-13.9c0.1-1.1,0-2.3,0.2-3.5
				c0.2-1-0.7-1.4-1-2.1c-0.2-0.4-0.5-0.7-0.1-1.2c0.4-0.4,0.7-0.2,1.1,0c0.7,0.5,1.7,0.7,2.2,1.5c0.1,0.2,0.5,0.3,0.7,0
				c0.1-0.1,0-0.4-0.1-0.6c-1.2-1.2-2.3-2.6-4.3-1.7c-0.6,0.3-0.9-0.3-0.9-0.8c0-1.1-0.3-2.3-0.4-3.3c-0.1-1.5-0.6-2.9-0.5-4.5
				c0.1-1.8,1.1,0,1.5-0.4c0-0.1,0.1-0.2,0.1-0.3c-3-1.9-2.8-5.3-3.6-8.2c-0.7-2.5-1.9-5-1.9-7.7c0-1.7-1-3.1-1-4.9
				c0-1-0.7-2.1-1.2-3.2C295.8,515.9,295.2,515,296.8,514z M334.5,473c-1.5-0.7-2.6,0.6-4,0.7c-0.7,0.1-0.3,1.1-0.6,1.7
				c-0.2,0.4,0.4,0.5,0.8,0.6c0.5,0.1,1-0.1,1-0.8c0-0.4,0.3-0.8,0.5-0.7C333.8,475.2,333.9,473.8,334.5,473
				c0.4-0.3,0.9-0.5,1.4-0.7c1.2-0.7,0.6-1.7,0.3-2.5c-0.4-1.1-1.1-0.3-1.7,0C332.9,470.9,334.1,472,334.5,473z M240.8,504.3
				c0,0.2-0.1,0.3-0.1,0.5c0.1,0.6,0.3,1.2,1,1.3c0.6,0.1,1-0.5,1.2-0.9c0.2-0.6,0.1-1.4-0.4-1.8c-0.6-0.4-0.7,0.6-1.2,0.8
				C241.1,504.3,240.9,504.4,240.8,504.3c-0.4-1-1.2-1.6-2.1-2.2c-0.6-0.3-1.3-0.1-2-0.5c-0.9-0.6-2-0.4-2.8,0.3
				c-0.2,0.2-0.9,0.2-0.7,0.7c0.2,0.6,0.7,0.3,1.1,0.2c1.4-0.6,1.2,0.2,0.9,1c-0.1,0.3-0.4,0.6-0.1,0.9c0.3,0.4,0.7,0.1,1,0
				c0.5-0.1,0.9-0.4,1-1c0.1-0.5,0.1-1.1,0.8-0.9c0.6,0.2,1.6,0.2,1.7,1.2c0,0.4-0.4,0.9,0.2,1.1
				C240.3,505.5,240.4,504.6,240.8,504.3z M237.2,309.7c-0.3,0.4,0,0.8,0,1.2c0.3,1.6,1.3,3.2-0.3,4.7c-0.4,0.3,0.2,0.8,0.4,1.1
				c0.2,0.3,0.7,0.2,0.8,0c0.5-0.7,1.2-1.1,1.2-2.2c0-0.9-0.8-1.6-0.5-2.4C239.3,310.6,238.5,310,237.2,309.7
				c0.6-0.7,0.5-1.7,1.1-2.5c0.3-0.4,0.3-1.3-0.4-1.5c-1.1-0.2-1.7-1-2.4-1.7c-1-0.9-1.4-0.7-1.7,0.7c-0.3,1.4-1.7,2-2.9,1.2
				c-0.6-0.4-1.3-0.6-1.6-0.2c-1.2,1.5-3.3,1.2-4.7,2.4c-0.6,0.5-1.6,1-2.1-0.3c-0.5-1.5-1.2-1.7-2.5-1c-0.6,0.4-1.1,1.4-1.8,1.1
				c-2.2-0.9-3.4,0.8-4.9,1.7c-1.1,0.6-1,1.9-0.8,2.8c0.2,0.8,1.3,0.4,2,0.2c1.9-0.5,3.9-0.4,5.9-0.8c0.6-0.1,1.9-0.1,2.7,0.4
				c0.3,0.1,0.6,0.4,0.7,0.6c0.1,0.4-0.3,0.6-0.5,0.7c-1.5,0.4-2,1.6-2.8,2.8c1.5-0.2,3.5,0.6,4.4-0.7c1-1.4,2.2-1.7,3.5-1.9
				c1.5-0.1,2.8-0.6,4.1-1.2c0.4-0.2,1-0.3,1-1.1c-0.1-1.6,0.8-2,2.2-1.9C236.3,309.7,236.7,309.7,237.2,309.7z M267.9,431.5
				c1.3-0.1,2.5-0.6,3.7-0.9c0.9-0.2,1.7-0.3,2.1,1c0.3,0.9,0.4,1.8,0.6,2.6c0.2,0.7,0.6,1.3,1.4,1c0.9-0.3,0.3-0.9,0.1-1.4
				c-0.4-0.8-0.3-1.6,0.7-1.6c0.9-0.1,1.9,0.7,2.2,1.2c0.7,1.3,1,2.9,1.3,4.3c0.1,0.4-0.2,1,0.5,1.2c0.5,0.1,0.9-0.1,1.1-0.6
				c0.3-0.6,1.1-0.6,1.1-0.1c-0.1,1.7,1.1,1.4,2.1,1.5c0.5,0.1,0.8,0.2,0.9,0.7c0.2,0.8,0.5,0.7,1.1,0.2c1.2-1,2.6-1.6,4.3-1.3
				c1.3,0.2,1.6-0.5,1.4-1.6c-0.2-0.8-0.4-1.5-0.6-2.2c-0.1-0.4-0.1-0.8,0.3-1c0.5-0.2,0.9,0.1,1,0.5c0.2,0.8,0.5,1.6,0.1,2.3
				c-0.3,0.6-0.1,1,0.3,1.4c0.8,0.6,1.7,0.3,2.5,0.1c0.7-0.2,0.5-0.8,0.4-1.4c-0.4-2.4-0.9-4.8-0.5-7.2c0-0.2,0-0.4-0.1-0.6
				c-0.3-1.9-1-3.9-0.6-5.9c0.2-0.9-1.1-1.6-0.6-2.6c-1-0.4-2-1.1-2.7,0.7c-0.1-1.1-0.3-1.9,0.4-2.9c-0.7,0.1-1.7,0.5-1.8-0.5
				c-0.1-1.2-0.9-1.9-1.3-2.9c-0.3-0.6-0.5-1.2-0.2-1.9c0.5-1.2,0-1.9-1.3-2.1c-2-0.2-2.7-1.3-2.5-3.3c0.1-0.9,0.1-1.9,0.1-2.8
				c0-0.9-1-1.2-1.5-1.4c-0.7-0.3-0.6,0.8-0.9,1.2c-0.2,0.4,0.1,1.1-0.7,1.3c-0.4-1-0.8-2.1-1.3-3.1c-0.2-0.6-0.7-0.8-1.3-0.7
				c-0.6,0.1-1.3,0.6-1.2,0.9c0.2,1.4-0.5,2.7-0.6,4c-0.1,1.3,0.4,2.5,0.2,3.8c-0.2,1-0.4,1.5-1.5,1.3c-0.4-0.1-0.8-0.2-1.1,0.1
				c-1.2,0.8-1.2-0.1-1.3-0.9c0-0.5,0.2-1,0.3-1.6c-1.7,0.6-3.3,1.1-4.1-1.1c-0.1-0.1-0.5-0.2-0.7-0.2c-1.2-0.1-1.5-0.8-1.3-1.9
				c0.1-0.6,0-1.1-0.6-1c-0.9,0.2-1.9,0.4-2.5,1c-1.1,1.1-2.4,2.4-1.8,4.3c0,0.1-0.2,0.2-0.3,0.3c-0.1-0.1-0.2-0.2-0.3-0.2
				c-0.1-0.4-0.2-0.7-0.3-1.1c-0.5-2.8-0.6-2.6-3.3-3.4c-0.9-0.2-2,0.2-2.8-0.8c-0.2-0.3-1.1-0.1-1.3,0.5c-0.6,1.2-1.7,1.1-2.6,0.7
				c-1.1-0.5-1.1,0.1-1.2,0.8c-0.1,0.4,0.1,1.1-0.8,0.7c-1.3-0.6-2.2-1.5-1.9-3.1c0.1-0.4,0.2-0.9-0.1-1.2c-0.2-0.3-0.2-0.9-0.9-0.7
				c-0.4,0.2-1.1,0.6-0.8,1c0.5,0.9-0.8,1.6,0.1,2.6c0.5,0.5-1.1,2.2-1.9,2.1c-1-0.1-1.4,0.2-1.3,1.2c0,1.5,0.4,3,0.3,4.6
				c-0.1,1.3-0.6,3.1-1.8,3.5c-0.7,0.2-1.3,0.1-1.4,1.2c-0.1,0.7-0.1,1.6,0.2,1.9c0.8,0.8,0.5,1.5,0.4,2.4c-0.1,1-0.8,2-0.1,3.1
				c0.1,0.2,0,0.4-0.3,0.5c-0.2,0.1-0.5,0-0.4-0.3c0.1-1-1.2-1.7-0.7-2.9c0.2-0.5-0.2-0.8-1-1c0.3,1.9-1.6,3.6,0.1,5.4
				c0.1,0.1,0,0.3,0,0.5c0.1,2-0.9,3.9-0.4,6c0.1,0.4-0.2,1-0.6,1.5c-1.3,1.4-1.4,3.9-0.2,5.3c0.3,0.4,0.6,0.4,1,0.3
				c0.3-0.1,0.8,0,0.7-0.4c-0.3-0.8,0.4-1.3,0.5-1.9c0.1-0.4-0.1-1,0.5-1c0.6,0,0.4,0.6,0.5,1c0.1,0.4,0.2,0.9,0.7,0.9
				c0.5,0,0.8-0.3,0.9-0.8c0.1-0.8,0.6-1.3,1-2.1c0.4,0.8,0.5,1.6,0.1,2c-0.9,0.9,0.4,1.6,0.1,2.4c0.9,0.2,1.2-0.3,1.5-1
				c0.1-0.3,0.4-0.3,0.7-0.3c0.7,0,0.8-0.4,0.8-1.1c0-1.1,0.1-2.2,0.2-3.3c0.1-0.7,0.2-1.2,1.3-0.8c0.9,0.4,2.1,0.9,3.1,0.5
				c1.2-0.5,1.9-0.5,2.4,0.8c0.1,0.3,0.3,0.5,0.6,0.4c0.1,0,0.3-0.2,0.3-0.3c-0.3-1.6,0.7-3.2,0.4-4.8c-0.1-0.6-0.1-1.3,0.8-2
				c-0.1,1.2,0.3,2.1-0.2,3c-0.2,0.5,0.1,1,0.5,1.4c0.2,0.2,0.5,0.1,0.7-0.1c0.5-0.4,0.3-0.9,0.2-1.3c-0.1-0.4-0.4-0.8-0.4-1
				c0.6-2,0.1-3.9,0-5.9c-0.1-1.4,1.2-2.1,2-3c0.3-0.3,0.8-0.3,1,0.3c0.5,1.8,1.3,3.6,0.9,5.6c0,0.3-0.1,0.5,0.1,0.7
				c0.8,1.4,0.8,1.4,0.2,2.7c-0.1,0.3,0,0.3,0.2,0.4c0.5,0.2,0.8,1,1.6,0.6c0.3-0.2,0.3-0.3,0.2-0.6c-1-2.1-0.5-4.4-1.2-6.6
				c-0.4-1.2,0.1-2.4,1.2-3.2c0.8-0.6,1.4-0.6,1.5,0.5c0.2,1.8,0.8,3.6,0.7,5.5c0,0.8,0,1.8,0.5,2.2
				C266.8,432.8,267.3,431.6,267.9,431.5L267.9,431.5z M230.1,327.5c-0.2-0.3-0.7-0.5-0.8-0.9c-0.4-1.2-1.1-1.1-2.1-0.9
				c-1,0.1-1.4,1-2.4,1.1c-4.4,0.4-7.7,2.7-10.3,6.2c-0.4,0.6-1.1,1.2-1.9,0.6c-0.8-0.6-0.1-1.1,0.2-1.6c0.2-0.3,0.3-0.6,0.3-1
				c0.2-1,0.7-1.6,1.5-2.3c0.8-0.7,2.2-0.8,2.6-1.7c0.7-1.5,2.1-2,3.4-2.6c1.2-0.5,2.3-0.9,2.9-2.3c0.2-0.5,0.8-1,0.2-1.5
				c-0.5-0.4-1.2-0.6-1.8-0.1c-0.7,0.5-1.5,0.8-2.4,0.8c-1.5,0-1.7-0.3-1.2-1.7c0.1-0.3,0.1-0.7,0.2-1.1c0.4-1.3-0.1-1.2-1.1-0.9
				c-1.5,0.4-2.6,1.5-3.8,2.3c-2.2,1.4-5.2,1.4-7.1,3.7c-1.3,1.6-3.5,2.2-4.6,4.3c-0.7,1.3-0.7,2.5-0.3,3.7c0.2,0.8,1.1,1,1.8,0.3
				c1-1,2.2-1.8,2.9-3.2c0.5-0.9,1.8-1.4,1.8-2.8c0-0.1,0.6-0.2,0.9-0.3c0.9-0.3,2,0.2,2.9-0.7c0.2-0.2,1.4-0.1,1.7,0.5
				c0.2,0.6,0,1.3-0.4,1.8c-0.3,0.4-0.8,0.7-1,1.2c-1.1,1.9-2.1,3.9-3.6,5.4c-1.5,1.4-2.1,3.1-3.1,4.7c-0.4,0.7-0.2,1.2,0.4,1.8
				c0.7,0.7,1,0.2,1.4-0.2c1.1-1.4,2.7-2.4,4.2-3.3c2.1-1.3,4.4-2.4,6.3-4c0.5-0.5,1.3-0.9,1.8-0.1c0.5,0.8-0.3,1.2-1,1.5
				c-1.3,0.5-2.1,1.5-2.1,2.8c0.1,1-0.3,1.9-0.8,2.3c-1.8,1.1-2.1,3.2-3.4,4.6c-0.5,0.5-0.6,1.3-0.1,1.7c0.6,0.5,1.2,1.2,2.1,0.8
				c0.5-0.2,0.8-0.6,0.2-1.2c-0.8-0.8-0.8-1.9,0-2.6c1-0.7,2.4-0.5,3.5-0.8c0.7-0.1,0.7,0.5,1,0.8c0.3,0.4,0.8,0.6,1.1,0.3
				c1.1-1.1,2.4-0.9,3.7-0.9c1,0,1.2-0.5,0.8-1.3c-0.3-0.4,0.1-0.5,0.2-0.8c1.1-1.4,2.2-1.3,3.7-0.5c1.2,0.6,1,1.2,0.3,1.7
				c-1,0.8-1.8,1.6-2.1,2.9c-0.2,0.6-0.7,0.4-1.2,0.4c-2.2,0-3.4,1.1-3.5,3.2c0,0.2-0.2,0.4-0.3,0.5c-0.1,0.3-0.8,0.4-0.4,0.8
				c0.3,0.3,0.7,0.2,1.1,0.1c0.3-0.1,0.7-0.4,1.1-0.1c-0.2,0.3-0.4,0.5-0.5,0.8c-0.2,0.4-1,0.7-0.3,1.3c0.6,0.6,1,0.4,1.4-0.2
				c0.2-0.2,0.5-0.5,0.7-0.3c0.8,1,1.5,0.6,2.3-0.1c0.2-0.2,0.6-0.2,0.9,0.1c1.8,1.2,2.9,1.1,4.4-0.2c0.6-0.6,1.5-0.7,2.4-0.6
				c0.3,0,0.5,0.3,0.4,0.6c-0.1,0.7,0,1.5,0,2.2c-0.2,1.7-0.2,1.8,1.6,1.5c0.4-0.1,0.9-0.3,0.9,0.4c0,0.6,0.3,0.9,0.9,0.9
				c0.9-0.1,0.3-0.7,0.3-1.1c0.1-2.1,0.6-2.5,2.6-2.1c0.2,0,0.5,0.2,0.6,0.1c1.1-1.3,1.3,0.1,1.7,0.6c0.3,0.3,0.6,0.6,0.8,1
				c0.4,0.7,0.9,1.3,0,2.1c-1,1,0.3,2.2,0,3.4c-0.1,0.3,0.6,0.2,1,0.1c1-0.3,2-0.7,3.1-1c0.5-0.2,1.2,0,1.4-0.8
				c0.2-1.3,1.4-1.9,2.4-2.1c1.2-0.3,1.6-0.9,1.6-2c1.2,0.6,1.3,0.6,1.8-0.4c0.4-0.8,1.1-1.1,1.9-1.3c0.3-0.1,0.8-0.3,0.9,0.3
				c0.4,1.9,0.1,3.6-0.7,5.4c-0.5,1-1.2,0.4-1.8,0.6c-0.5,0.2-0.9,0.5-1.1,0.9c-0.9,1.4-1.9,2.6-3.2,3.8c1,0.3,1.7,0.4,2.6,0.3
				c2.6-0.3,4.7-1.5,6.5-3.3c0.4-0.4,1-1.4,1.6-0.3c0.4,0.8-0.2,1.7-0.8,1.9c-2.3,0.7-3.5,2.4-4.4,4.6c2.6-0.2,5.2,1,7.7,0
				c0.2-0.1,0.6,0,0.9,0.2c0.8,0.4,1.6,0.6,2.3-0.2c0.5-0.5,1.1-0.3,1.7-0.3c0.4,0,0.9-0.3,1.1,0.2c0.2,0.4-0.2,0.8-0.6,1
				c-0.8,0.6-0.1,1.3,0.2,1.7c0.4,0.6,0.8,0.1,1.3-0.2c1.5-1.3,3.1-2.6,4.9-3.5c0.4-0.2,0.8-0.4,0.9,0.1c0.4,1.4,1.2,0.6,1.7,0.2
				c0.6-0.5,1.2-1.1,1.6-1.9c0.3-0.5,0.4-1.4,1.5-1.4c-0.9,0.6-0.6,1.4-0.6,2.2c0.1,0.5-0.3,1.1,0.6,1.2c0.7,0,1.5,0,1.6-0.9
				c0.1-1.1,0.3-1.9,1.6-1.6c0.4,0.1,0.7-0.2,0.8-0.6c0.8-2.2,1.5-4.5,2.3-6.7c0.4-1-0.3-2.4,1.3-3.2c-2.7-0.5-3-2.7-3.7-4.4
				c-0.3-0.8-0.6-1.4-1.6-1c-0.7,0.2-1.1-0.1-1.3-0.8c-0.2-0.6-0.7-0.9-1.4-0.9c-0.5,0-0.9-0.1-1.3-0.5c-1.4-1.8-4-1.8-5.6-3.3
				c-0.1-0.1-0.4,0-0.6-0.1c-1.6-0.4-2.9,0.3-4.3,0.8c-0.7,0.3-1.1,0.6-1,1.5c0.1,1.7-0.8,2.7-2.4,3c-0.2,0-0.4,0.1-0.6,0.2
				c-2.8,1.4-4.3,0.9-6-2.1c1.1-0.2,1.6,0.8,2.4,1c0.5,0.1,1.1,0.5,1.5-0.1c0.4-0.6-0.2-0.9-0.6-1.2c-0.3-0.2-0.8-0.3-0.7-0.8
				c0.1-0.5,0.6-0.3,1-0.4c0.4-0.1,1.1,0.3,1.2-0.4c0.1-0.5,0-1.1-0.6-1.4c-0.6-0.3-0.5-0.8-0.6-1.3c-0.2-1.3-0.2-2.8-1.7-3.2
				c-0.9-0.3-1.9-0.7-2.6-1.2c-1.4-1-2.3-0.3-3.2,0.4c-0.6,0.4-1,1.1-1.7,1.3c-0.3,0.1-0.5,0.3-0.3,0.6c0.9,2-0.7,2.8-1.6,4
				c-0.6-0.9-0.1-2-0.6-2.5c-0.7-0.8-0.4-0.8,0.2-1.2c0.5-0.3,0.9-1.1,0.7-1.3c-1.2-0.7-0.9-2.4-2.1-3c-0.4-0.2-0.9,0.3-1.2,0.7
				c-0.4,0.4-0.6,1-1.2,1.8c0.1-1.6-0.3-2.6-1.7-2.5c-1.2,0-2.4,0.7-2.5,1.8c-0.6,3.2-2.2,6.2-2.6,9.4c-0.1,0.6-0.4,0.8-0.9,1
				c-0.5,0.2-0.9,0-1.2-0.5c-0.2-0.4-0.5-0.8-0.8-1.2c-0.6-0.7-0.6-1.3,0.3-1.8c0.8-0.5,1.8-3.5,1.4-4.3c-0.1-0.3-0.4-0.6-0.9-0.5
				c-1.5,0.3-2.6-0.5-2.2-1.9c0.4-1.5,0.6-3.1,1.9-4.2c0.5-0.4,0.8-1,0.5-1.4c-0.3-0.4-1-0.5-1.6-0.1c-0.3,0.2-0.6,0.4-0.9,0.6
				c-1.4,1.4-2.4,3.2-4.3,4.1c-0.4,0.2-0.8,0.7-1.1,1.2c-0.6,1.4-1.7,1.6-3.1,1.4c0.2-1.6,1.7-2.4,2.4-3.7c0.2-0.5,0.5-0.8,0.2-1.3
				c-0.3-0.5-0.9-0.2-1.1,0.1c-0.8,0.9-1.8,1.1-2.9,1.3c-0.8,0.1-1.5,0.7-2.2,1.2c-0.8,0.5-0.5,1.7-1.5,1.9
				c-1.2,0.2-2.3,0.4-3.6,0.7c0.8-1.8,2.4-2.6,3.8-3.6c0.5-0.3,0.7-0.4,0.2-1c-1-1.3-0.7-2.2,0.8-2.9c0.5-0.2,1.2-0.2,1.3-0.8
				C227.4,327.8,228.9,328,230.1,327.5z M236.8,250.4c1.8,0.6,0.9,1.8,0.9,2.8c0,0.5-0.3,0.7-0.7,0.6c-0.6-0.1-0.5-0.5-0.3-0.9
				c0.6-1.4-0.3-2-1.3-2.4c-1.1-0.4-2-0.5-3,0.7c-0.9,1.1-1.3,3-3.1,3.2c-0.3,0-0.1,0.2-0.1,0.3c-0.3,1-0.5,2.3-1.2,2.8
				c-1.5,1.1-2.7,2.5-4.1,3.5c-1,0.7-0.3,1.5-0.1,1.8c0.5,0.6,1.1,0.1,1.4-0.4c0.4-0.6,0.8-1,1.5-1.1c0.6-0.1,1,0.2,0.8,0.8
				c-0.3,0.8-0.6,1.6-1,2.4c-0.1,0.3-0.7,0.4-0.3,0.9c0.3,0.4,0.7,0.1,1,0c2-0.5,2.5-0.1,2.6,1.9c0,0.4-0.3,0.9,0.3,1.1
				c0.5,0.2,0.9-0.1,1.2-0.5c0.2-0.3,0.2-0.8,0.7-0.6c0.1,0.1,0.3,0.3,0.3,0.5c0.1,0.4-0.1,0.7-0.5,0.8c-0.8,0.2-1.4,0.8-2.3,0.9
				c-0.8,0-1.9,0.4-1.7,1.8c0.1,1.3-0.9,2.5-2.4,2.9c0.2-1,1.2-1.4,1.5-2.2c0.1-0.4,0.5-0.9-0.1-1.2c-0.5-0.2-0.7,0.2-0.9,0.6
				c-1.3,2.1-2.6,4-1.2,6.7c0.4,0.8,0.4,1.8,1.6,2c0.5,0.1,0.9,0.5,0.5,0.9c-0.9,1.1-1.1,2.5-2.4,3.3c-2,1.3-4,2.5-5.7,4.2
				c-0.5,0.5-1.4,0.6-1.1,1.7c0.1,0.4-0.5,0.6-0.9,0.7c-0.8,0.2-1.7,0.3-2.5,0.6c-0.7,0.2-1,0.7-0.9,1.5c0.1,0.6,0.6,0.9,1.3,1.1
				c0.6,0.2,1.3-0.3,2,0.1c-0.3,0.5-0.7,0.5-1.1,0.7c-0.9,0.5-1.2,1.4-1.3,2.3c-0.1,0.9,0.2,1.5,1.3,1.5c0.7,0,0.5,0.6,0.2,1
				c-0.4,0.5-0.9,0.9-1.3,1.4c-0.6,0.7-0.2,1.7,0.6,1.9c1.7,0.4,3.2-1,2.9-2.7c0-0.1,0.1-0.2,0.2-0.4c0.9,1.6,0.9,1.6,2.6,1.2
				c0.5-0.1,0.8,0,1.2,0.2c1.5,0.7,1.9,0.4,2.6-1.1c0.3-0.7,0.6-2.2,1.8-0.7c0.4,0.5,0.6,0,0.9-0.4c0.6-0.6,1.5-0.8,2.2-0.5
				c0.6,0.3,0.1,1.1-0.1,1.7c-0.2,0.4-0.4,0.9-0.4,1.3c0,0.6-1.2,0.7-0.5,1.4c0.5,0.6,1.2,0.2,1.8,0.2c0.5,0,0.8-0.3,1.2-0.7
				c0.5-0.4,0.6-1.4,1.3-1.4c1.7,0.1,2.2-1.2,3-2.2c0.6-0.6,0.8-1.1,0.3-1.9c-0.2-0.3-0.7-1-0.1-1.3c1.8-0.7,2.2-2.1,2.2-3.8
				c0.1-1.1,0.9-1.2,1.6-0.7c1,0.6,1.6,0.2,2-0.7c0.2-0.3,0.5-1,0.6-0.8c0.9,0.9,1.8,0,2.7,0.1c0.6,0.1,1.3,0.5,1.6-0.5
				c0.3-0.8,0.6-1.8-0.2-2.2c-1.5-0.8-1.5-2.2-2.1-3.4c-0.1-0.3-0.3-0.7-0.5-0.8c-1.9-0.4-1.4-2.3-2-3.4c-0.8-1.3-0.3-3.3-0.3-5.1
				c0-0.2,0-0.5,0.3-0.5c0.1,0,0.4,0.2,0.4,0.2c-0.4,0.8,0.6,1.5,0.3,2.3c-0.1,0.5-0.8,1.1-0.1,1.4c1,0.3,2.2,1.3,3,0.6
				c1.8-1.9,3.2-0.7,4.8,0c0.8,0.3,1.7,0.8,2.2,0c0.5-0.7,1-1.7-0.2-2.5c-0.5-0.3-0.9-1-1.3-1.6c-0.6-1-0.1-1.9,1-2.1
				c0.7-0.1,1.1-0.2,0.7-1.1c-0.4-0.9-0.8-1.7-1.5-2.4c-0.3-0.3-0.5-0.5-0.2-1c0.8,0.2,1.4,0.8,2,1.4c0.5,0.6,1.3,0.6,1.9,0.3
				c0.5-0.3,0.4-0.9,0.1-1.4c-2-3.3-3.5-6.9-6.2-9.8c-0.3-0.3-0.5-0.8-0.1-1.1c0.3-0.3,0.8,0,1,0.2c0.6,0.8,1.8,1,2.4,1.9
				c0.5,0.7,1.2,0.6,1.5,0c0.3-0.5,0.9-0.6,1.3-1c-2-1-2-1-0.1-2.3c0.2-0.1,0.4-0.2,0.5-0.3c0.4-0.2,0.9-0.5,0.7-1
				c-0.2-0.5-0.8-0.6-1.3-0.3c-1.4,0.6-2.3-0.1-2.7-1.3c-0.7-2.2-2.3-3.2-4.4-3.7c-0.3-0.1-1.2,0.3-1-0.6c0.2-0.6,0.8-0.5,1.3-0.4
				c0.4,0.1,0.8,0.3,1.2,0.5c0.9,0.6,1.9,0.7,2.9,0.9c0.3,0.1,0.8,0,1-0.2c0.3-0.4-0.1-0.7-0.4-0.9c-1.2-1.1-2.3-2.2-3.6-3.1
				c-1-0.7-2.6-0.3-3.3,0.8c-0.3,0.5-0.6,0.8-1.1,0.8c-1.8,0.1-3.4,0.9-5.1,1.1c-0.4,0-0.8,0.1-0.6,0.6
				C238.8,250.4,237.9,250.4,236.8,250.4z M323.9,411.4c-0.7,0-1.2-0.9-1.9-0.3c-1.5,1.3-1.9,0.1-2.2-1c-0.6-2.1-2-3.7-2.8-5.7
				c-0.2-0.5-0.7-1.1-1.2-1.2c-1.6-0.3-2.1-1.4-2.7-2.6c-0.2-0.3-0.4-0.6-0.7-0.9c-0.2-0.2-0.5-0.4-0.9-0.2
				c-0.3,0.3,0.1,0.4,0.1,0.7c0.2,2.2,0.3,4.3,0.4,6.5c0,0.3-0.1,0.4-0.3,0.5c-0.3,0.1-0.4-0.2-0.4-0.4c-0.1-0.5-0.2-0.9-0.3-1.4
				c-0.2-1.8-0.5-3.6-0.7-5.3c-0.1-0.4,0-1-0.6-1c-0.5,0-0.4,0.5-0.5,0.9c-0.9,2.5,0.6,4.9,0.7,7.4c0.1,1.6,1.4,3,1.1,4.8
				c-0.1,0.8,0.3,1.6,0.3,2.5c0,1.6,0.2,3.2,0.1,4.8c-0.2,1.5,1.2,3.1-0.4,4.4c0,0,0.1,0.3,0.2,0.3c0.9,0.2,0.5,0.8,0.5,1.3
				c0.1,1.7-0.2,3.5,1.2,4.9c0.3,0.3,0.2,0.7,0.1,1.1c-0.5,1.2-0.7,2.4,1.1,2.8c-1.2,0.9-1.2,0.9-1.1,1.8c0.1,0.8-0.5,1.4-0.3,2.2
				c0.1,0.5,0.8,0.5,0.9,0.2c0.1-0.5,1.1,0.2,0.9-0.7c-0.1-0.5,0-1.1-0.1-1.7c0-0.3,0-0.6,0.3-0.7c0.3-0.1,0.5,0.1,0.7,0.3
				c0.5,0.6,1,0.9,1.8,0.8c2.1-0.1,4.1,0.1,6.2-0.3c1.4-0.3,3-0.7,4.2-0.3c1.9,0.6,2.9-0.6,4.2-1.3c1.1-0.6,2.3-1.5,0.9-3.1
				c-0.2-0.2-0.2-0.7-0.2-1.1c-0.1-1.2-1.5-2.1-0.7-3.4c-1.2-0.5-0.9-2.8-2.8-2.5c-0.6,0.1-0.5-0.6-0.5-1c-0.3-1.5,0.1-3.1-0.2-4.6
				c-0.4-2.5-1.5-4.9-1.8-7.4c-0.3-2-1.6-3.6-2.1-5.5c-0.2-0.8-0.6-1.1-1.3-1c-1.1,0.1-0.8,0.9-0.6,1.4
				C322.9,408,323.5,409.6,323.9,411.4z M299.9,310.5c-0.5-0.5,0-1,0-1.4c0.1-2.4-0.5-3.7-2.9-3.3c-0.7,0.1-0.8-0.3-0.9-0.8
				c-0.3-1.6,0-3.3-0.2-4.9c-0.1-0.4,0.1-1.1-0.7-1.1c-0.5,0-0.6,0.5-0.8,1c-0.5,1.1,0.3,2.1-0.1,3.1c-0.6,1.5-1.5,3-2.4,4.4
				c-0.4,0.6-0.9,0.9-0.6,1.8c0.2,0.5-1.5,3-1.8,2.8c-0.7-0.4-0.5-1.4-0.8-2c-0.1-0.2,0-0.5-0.5-0.5c-0.1,0.2-0.1,0.5-0.3,0.7
				c-0.2,0.4,0.4,0.9-0.2,1.1c-0.5,0.1-0.5-0.4-0.7-0.7c-0.3-0.6-0.6-0.2-0.8,0c-1,1-2.6,1.5-2.6,3.3c0,0.3-0.4,0.7-0.7,0.9
				c-1.8,0.8-0.9,1.9-0.2,2.8c0.5,0.7,0.9,1.3,0.6,2.2c-0.1,0.2-0.3,0.3-0.1,0.7c0.6,1,0,2.2-1.1,2.6c-0.7,0.2-1.1,0.1-0.9-0.7
				c0.3-1.1,0.1-2.2,0.2-3.3c0-0.4,0.4-1.1-0.4-1.1c-0.7,0-1,0.6-0.9,1.3c0.5,1.8-0.4,3.6,0,5.4c0.1,0.4-0.2,0.6-0.5,0.7
				c-1.2,0.3-2.1,1.3-3.3,1.6c-0.7,0.2-1.3,0.6-1.5,1.5c-0.1,0.7-0.6,1.2-0.9,1.8c-0.4-0.2-0.3-0.4-0.2-0.7c0.2-0.4,0.6-0.8-0.1-1
				c-0.4-0.1-0.9,0-1.1,0.7c-0.3,1.3-0.1,2.7-0.8,4c-0.2,0.3,0.1,0.5,0.3,0.6c1.3,0.6,3.9-0.2,4.7-1.5c0.6-1,2.8-1.7,3.7-1
				c1.1,0.9,1.7,0.4,2.3-0.6c0.2-0.3,0.1-1,0.8-0.8c0.5,0.1,0.6,0.6,0.7,1c0.1,0.4-0.1,1.2,0.8,1.2c0.9,0,1.8,0.3,2.7,0.4
				c1,0,2.2,0.7,3-0.7c0.3-0.5,0.8,0,0.8,0.2c0.2,1.3,1.2,1.3,2.1,1.5c1,0.1,2,0.1,3,0.3c2.1,0.3,4.2-1.4,4-3.5
				c-0.1-1.3,0.2-2,1.8-2.5c-1.9-0.2-1.4-1.2-1.4-2c0-2,0.8-3.9,0.9-5.9c0-1.3-0.4-2.7-0.4-4c0-1.9,0.4-3.8,0.5-5.7
				c0-0.7-0.6-1.7,0.3-2.3c-0.7-0.4,0.1-1.7-1-1.8c-1.1-0.1-0.6,0.9-0.8,1.5C300.1,308.4,300.6,309.6,299.9,310.5z M303.1,366
				c-0.4,0.4-0.9,0.7-1.3,1.1c-0.3,0.2-1,0.1-0.8,0.7c0.2,0.6,0.7,0.6,1.2,0.6c2.1,0,4.2,0.3,5.9-1.3c0.9-0.8,1.1-0.3,1.5,0.5
				c0.6,1.2,2.8,1.5,3.8,0.7c0.3-0.3,0.2-0.5-0.1-0.8c-0.9-1-1.5-2.2-2.6-3c-0.9-0.6-0.6-1.7,0-2.3c0.6-0.5,1.6-0.5,2.1,0.4
				c0.5,0.8,1.1,0.9,1.9,1c2,0.4,4.6-0.5,5.5,2.5c0.2,0.7,1.6,1,2.4,0c0.5-0.7,1.1-0.9,1.9-1c1.5-0.2,3-0.3,4.4-0.6
				c0.4-0.1,1.1-0.1,1.1-0.7c0-0.7-0.8-0.6-1.1-1c-0.3-0.3-0.6-0.1-0.9,0.1c-0.9,0.6-1.9,0.2-2.3-0.4c-0.8-1.2-2.2-1.5-3.2-2.5
				c-2.2-2.1-5.2-3.4-7.4-5.6c-1.3-1.3-2.3-2.3-3.1-4.1c-1.1-2.7,0.9-4.7,0.5-7c0-0.1,0.2-0.2,0.3-0.3c2.5-1.7,2.4-5.8,0.7-7.7
				c-0.4-0.4-0.9-0.6-1.5-0.4c-0.5,0.2-0.9,0.6-0.8,1.1c0.4,1.4-0.3,2.2-1.5,2.7c-0.4,0.2-0.4,0.6-0.5,1c-0.5,1.7-0.3,3.7-2.5,4.3
				c0,0-0.1,0.1-0.1,0.1c-0.6,1.9-2,3-3.8,3.7c-0.5,0.2-0.1,0.2,0,0.3c0.5,1.5,0,2.1-1.6,1.7c-0.6-0.1-1.2-0.4-1.8,0.2
				c-1.2,1.1-2.6,1.8-4.2,1.7c-2.5-0.1-4,1-4.6,3.4c0,0.1-0.1,0.2-0.2,0.3c-0.7,0.7-0.3,1.3,0.1,1.8c0.5,0.7,1.2,0.9,2.1,0.9
				c1.6-0.1,3,0.9,2.8,1.8c-0.3,1,0,1.2,0.9,1.4c0.6,0.2,1.4,0.3,1.4,1.3c-0.1,2.3,1.2,3.4,3.4,3.1
				C301.8,365.6,302.5,365.2,303.1,366z M285,182.9c-0.6,0.3-0.9,0.5-1.2,0.6c-0.3,0.2-0.8,0.2-0.7,0.7c0.1,0.4,0.5,0.4,0.8,0.4
				c0.8-0.1,1.6,0.1,1.6,1.1c0.1,1.1-0.9,0.8-1.5,1.1c-0.1,0.1-0.2,0-0.3,0.1c-0.4,0.3-1.2,0.1-1.1,0.7c0.1,0.6,0.8,0.6,1.3,0.5
				c1.3-0.2,2.6-0.3,4-0.4c1-0.1,2.7,0.1,2.6-1.9c0-0.4,0.5-0.5,0.8-0.6c1.2-0.2,2.4-0.4,3.6-0.7c1.1-0.3,2.5-0.6,3-1.6
				c0.5-1,0.9-2.2,0.5-3.5c-0.3-0.9,0-1.2,0.9-1c0.7,0.2,1.4-0.2,1.1-0.8c-0.3-0.6,0.1-1.9-1.3-1.9c-0.3,0-0.5-0.3-0.5-0.8
				c0.1-0.9,0.1-1.9,0.4-2.8c0.4-1.3,0.1-1.8-1.3-1.9c-1.4-0.1-2.1-1.3-1.5-2.3c0.7-1,0.4-2-0.7-2c-1.6,0-2.2-1.6-2.1-2.1
				c0.3-0.9,0.1-2.6,1.8-2.8c0.3,0,0.9-0.5,0.3-0.7c-1.2-0.4-2.1-1.4-3.2-1.9c-0.5-0.2-1,0.1-1.1,0.6c-0.1,0.4-0.5,1-0.8,0.8
				c-0.9-0.6-1.6-0.2-2.4,0.2c-0.2,0.1-0.5-0.1-0.7-0.3c-0.8-1-0.8-1-1.8-0.3c-0.4,0.3-0.8,0.8-1.4,0.1c-0.3-0.3-0.7-0.4-1-0.1
				c-0.4,0.3-0.5,0.7-0.3,1.1c0.1,0.3,0.3,0.7-0.2,1c-0.1-0.1-0.3-0.1-0.3-0.3c-0.3-1-1.1-0.8-1.7-0.6c-0.8,0.4-0.1,0.8,0.1,1.3
				c0.4,0.9,0.1,1.5-0.9,1.7c-1.3,0.2-1.1,1.1-0.7,1.7c1,1.2,0.4,2.1-0.3,3.1c-0.4,0.6-0.7,1-0.1,1.8c0.3,0.3,1.6,2.1-0.7,2.1
				c-0.7,0-0.6,1-1.1,1.4c-0.2,0.1,0.2,0.6,0.4,0.6c1.3-0.2,2.6,0.8,3.9,0.2c0.5-0.2,0.8-0.3,1,0.2c0.3,0.7-0.1,0.8-0.6,1
				c-0.9,0.3-1.9,0.3-2.6,1.2c0.6,0.6,1.3,0.4,2,0.3c0.7-0.1,1.7-0.2,1.7,0.6c0,1.1,1.1,2.1,0.4,3.3c-0.3,0.4-1.4,0.4-0.9,1.2
				c0.3,0.6,1.1,0.1,1.6,0.1C284.2,182.7,284.4,182.7,285,182.9z M274.2,271.9c0.6,0.3,1.5,0.1,1.7,0.7c1,3.2,1.1,0,1.5-0.2
				c0.2-0.1,0.2-0.5,0.6-0.4c-0.2,1.9-0.5,3.9-1.4,5.6c-0.6,1.1-0.1,1.4,0.7,1.5c1,0.1,1.3,0.8,1.5,1.4c0.3,1.1,0.6,1.5,1.6,0.6
				c0.3-0.3,0.8-0.1,0.8,0.1c0.1,1.1,1.3,1.9,1,3.2c-0.3,1.8,0.7,3.1,1.8,4.4c0.7,0.7,1.6,0.6,1.7-0.3c0.2-0.9,1.1-1.4,0.9-2.4
				c-0.1-0.3-0.3-1.5,0.7-1.5c0.8,0,0.9,0.7,1.1,1.3c0.1,0.2,0.4,0.4,0.4,0.7c0.3,1,0.6,0.7,1.3,0.1c1.7-1.5,2.1-3.6,2.8-5.6
				c0.2-0.7,0.1-1-0.3-1.4c-0.3-0.3-0.7-0.5-1-0.1c-0.4,0.4-0.2,0.8,0.1,1.3c0.7,1.1-0.2,1.1-0.8,1c-1.5-0.1-1.3-1.4-1.1-2.2
				c0.3-1.3,0-2.5-0.4-3.8c-0.1-0.3-0.2-0.8-0.6-0.9c-0.5-0.1-0.5,0.4-0.6,0.8c-0.1,0.3-0.2,0.5-0.5,0.5c-0.5-0.1-0.3-0.5-0.3-0.8
				c-0.1-0.5,0-1.4-0.2-1.5c-1.6-0.6-1.5-2.7-3.3-3.4c-1-0.4-1.1,0.2-1.6,0.4c-0.2-0.6-0.6-1.1-0.4-1.8c0.2-0.7,0.9-0.8,1.1-1.9
				c-1.7,1.3-1.7,0.2-1.9-0.8c0-0.4-0.2-0.7-0.2-1.1c-0.1-0.6-0.3-1.3-0.9-1.3c-0.8,0-0.2,0.9-0.5,1.3c-0.1,0.1-0.2,0.1-0.3,0.1
				c-0.5-0.6-0.6-1.4-0.8-2.2c-0.1-0.4-0.3-0.6-0.7-0.5c-0.4,0-0.8,0.2-0.8,0.6c0.1,1.3-0.9,2-1.6,3.1c2.9,0.4,1,2.4,1.1,3.6
				C276.5,271.3,275.7,272.1,274.2,271.9z M205,367.5c0.6-1.9,1.5-3.2,3.5-3.1c0.5,0,0.9-0.2,1.4-0.3c0.5-0.1,1-0.2,1.1-0.8
				c0-0.3-0.2-0.8-0.5-1c-0.4-0.3-1-0.3-1.3,0.1c-0.5,0.6-1.1,0.5-1.7,0.6c-1.2,0.2-2.5,0.5-3.7,0.7c-2.5,0.4-5,0.9-7.6,1.3
				c-0.3,0-0.6,0-0.7-0.3c-0.1-0.3,0.1-0.5,0.3-0.6c0.4-0.2,0.7-0.6,1.1-0.6c2.2-0.2,4-1.5,6-2.4c0.3-0.1,0.7-0.2,0.6-0.6
				c-0.1-0.5-0.5-0.3-0.9-0.3c-1.6,0.1-3.1,0.2-4.6,0.6c-0.6,0.2-1.1,0.2-1.7-0.4c-1.5-1.5-3.6-1.3-5.2-0.8c-2.4,0.7-5,1-7.4,1.6
				c-1.6,0.4-3.3,0.8-5.1,0.8c-0.5,0-1.5,0.4-1.1,1c0.6,0.9,1.4,2.3,2.4,2.2c2.6-0.2,5.3-0.1,7.8-1.2c1.5-0.7,3.2-1.2,4.9-1.2
				c0.6,0,1,0.2,1.1,0.9c0.1,0.9-0.6,0.7-1.1,0.7c-2.6,0.3-5.2,0.7-7.7,1.5c-0.9,0.3-1.9,0.3-2.8,0.6c-0.3,0.1-1.1,0.3-0.8,0.9
				c0.2,0.5,0.9,0.6,1.4,0.3c0.9-0.5,1.8-0.7,2.7-0.9c1.1-0.2,1.7,0.7,2.7,0.7c1.9,0,3.8-0.5,5.5-0.2c3,0.6,5.9,0.1,8.7-0.6
				c0.6-0.1,1.1,0,1.4,0.6c-0.7,0.6-1.5,1.1-2.2,1c-1.2-0.2-2.3,0.3-3.4,0.5c-0.8,0.2-1.3,0.3-1.2,1.3c0.1,0.9,0.5,1.3,1.5,1.3
				c1.9,0,3.7-0.3,5.6-0.5c1.2-0.1,2.1,0,2.3-1.5c0.1-0.6,0.7-0.6,1.1-0.7c3-0.5,6.1-1.3,9.2-1.4c1,0,2-0.2,2.9-1
				c-0.8-0.6-1.5-0.8-2.4-0.5c-1.2,0.3-2.5,0.8-3.7,0.5c-1.7-0.3-3.3,0-4.8,0.5C207.4,367.4,206.3,367.3,205,367.5z M263,226
				c0,1.6,2.3,4.5,4.2,5c0.6,0.1,1.1,0.4,1.6,0.7c1.6,0.9,2.5,2.6,4,3.7c0.6,0.5,1,1.9,1.3,2c2.4,1.3,3.5,3.7,5.4,5.4
				c1.9,1.6,3.9,3.1,5.1,5.2c0.7,1.3,2.4,1.8,2.6,3.4c0.1,0.8,0.9,0.8,1.4,0.6c0.7-0.2,0.1-0.7,0.1-1.2c-0.1-1.3-1.1-2.1-1.6-3.2
				c-0.8-1.9-2.5-2.8-3.8-4.1c-0.4-0.4-1.3-0.3-1.3-1c0-0.7,0.9-0.5,1.4-0.9c1.1-0.8,1.3-0.1,1.3,0.8c0,0.8,0.4,1.4,0.8,1.8
				c0.9,1,1.9,2,2.4,3.3c0.2,0.5,0.8,0.7,1.4,0.5c0.6-0.2,0.6-0.7,0.5-1.2c-0.2-1-0.5-1.8-1.5-2.3c-0.6-0.3-1.4-0.9-1-1.4
				c1.1-1.4,0-1.3-0.9-1.5c-0.4-0.1-0.8-0.3-0.8-0.7c-0.1-1.6-1.5-2-2.5-2.7c-0.4-0.3-1-0.4-1.4-0.8c-3-2.4-5.8-5.1-9.2-7
				c-0.3-0.2-0.6-0.4-0.7-0.8c-0.3-1.1-1.1-1.7-1.9-2.2c-0.5-0.3-0.7-0.6-0.9-1.2c-0.4-1.2-3.2-2.7-4.4-2.5
				C263.5,224.1,262.9,224.6,263,226z M338.6,319.5c-0.5,1.6-0.6,1.7-1,1.4c-1.2-0.9-1.6,0.7-2.5,0.7c-0.3,0,0.9,0.3,0.7,0.9
				c0,0.1,0,0.2,0,0.3c-0.1,0.3-0.2,0.7,0.3,0.8c0.4,0.1,0.6-0.2,0.8-0.4c0.3-0.3,0.2-0.9,0.7-1c0.9,1.1,1.3,1.1,1.8-0.1
				c0.3-0.7,0.6-1.4,0.8-2.1c0.2-0.8,0.7-1.2,1.3-1.6c0.4-0.3,1-0.2,0.9,0.3c-0.2,0.9,0.6,1.5,0.2,2.3c-0.2,0.4,0.3,1.2-0.8,1
				c-0.5-0.1-0.6,0.8-0.6,1.3c0,0.4,0.4,0.5,0.7,0.3c1.4-0.7,1.3,0.5,1.3,1.1c-0.1,1.4,0.3,2.7,1,3.9c0.2,0.3-0.1,1.1,0.6,0.9
				c0.5-0.2,0.8-0.9,0.6-1.4c-0.6-1.2-0.2-1.9,1.1-2.3c-0.6-0.3-1.3,0.2-1.4-0.7c-0.2-1.5-0.4-3.1-0.5-4.6c-0.1-0.7,0.7-1.5,0.8-1.3
				c0.8,1,2.1,0.3,3,0.8c-0.4,1-2,0.2-2,1.6c0,0.9,1,0.5,1.2,1.1c-0.3,0.2-0.6,0.4-0.9,0.6c-0.3,0.2-0.5,0.4-0.3,0.8
				c0.2,0.3,0.5,0.4,0.8,0.3c1.5-0.7,3.3-0.8,4.3-2.5c0.3-0.5,0.7-0.8,1.1,0.1c0.5,1.1,2,1.3,3.2,0.3c0.8-0.7,0.7-1.6,0-2.3
				c-1.6-1.5-2.2-3.6-3.3-5.4c-0.6-1-1.6-1.5-2-2.6c-0.8-1.9-1.8,0.1-2.7,0.1c-0.2,0-0.4-0.2-0.6,0.1c0.9,0.6,1.6,1.7,1.5,2.6
				c-0.1,0.9-1.4,0.2-2.1,0.6c-0.6,0.3-0.9-0.1-1.1-0.6c-0.2-0.8-0.8-1-1.4-1c-1.4,0-2.8,0.1-3.6,1.6c-0.2,0.4-0.5,0.6-0.9,0.5
				c-1.5-0.3-1.8,1.1-2.4,1.9c-0.3,0.4-0.4,1.1,0,1.7C337.6,320,338.2,319.4,338.6,319.5z M277,226.5c-0.4-0.2-0.3-0.5-0.4-0.8
				c-0.1-0.7,0.3-1.8-0.4-2c-0.9-0.2-1.4-1.6-2.7-1c-0.4,0.2-0.6-0.3-0.8-0.7c-1-2-3.2-2.9-5.3-2.1c-0.7,0.2-1,0.9-1.4,1.4
				c1.2,0.2,1,1.7,1.7,2.2c1.7,1.1,2.5,3,4.2,4.1c1.7,1.1,2.7,3,4.7,4c2,1,3.3,3.3,5.6,4.1c0.6,0.2,1.1,0.8,1.6,1.2
				c0.8,0.7,1.7,1.5,2.9,1.6c1.2,0.2,2-0.5,2.3-1.5c0.2-0.8-0.1-1.7-1.3-1.7c-0.3,0-0.6-0.2-0.7-0.5c-0.3-1.1-0.5-2.2-1.9-2.4
				c-0.3-0.1-0.1-0.6-0.1-0.8c-0.2-1-0.3-2.6-0.9-3c-1.4-0.7-2.2-2.1-3.5-2.8c-0.5-0.3-1.2,0.1-1.4-0.5c-0.2-0.6-0.4-1.4-1.2-1.1
				c-0.8,0.3-0.6,1.1-0.6,1.8C277.3,226.1,277.1,226.2,277,226.5z M349.1,353.2c0.3,0.6-0.2,1.1,0,1.3c1.3,1.1,0.5,2.3,0.3,3.5
				c-0.1,0.7-0.1,1.5,0.4,1.9c0.5,0.5,1.3,0.4,2,0c0.6-0.4,0.9-0.9,0.7-1.7c-0.1-0.5-0.1-1,0.5-1.2c1.2-0.3,0.4-0.8,0.3-1.3
				c-0.3-1-2.1-2.1,0-3.1c0.5-0.2,1.3-0.5,1-1.2c-0.2-0.5-1.1-0.5-1.6-0.4c-2.3,0.6-4.7,0-6.5-0.9c-2.2-1.1-4.3-1.3-6.5-1.6
				c-2-0.4-4-0.6-6-0.8c-1.3-0.1-3,1.1-2.5,1.5c1.2,1.2-1.1,2.3,0.1,3.4c-0.5,0.4-0.5,1-0.7,1.6c-0.2,0.6-0.2,1.3,0.4,1.7
				c0.9,0.5,1.8,0.5,2.8,0.1c0.7-0.3,1.1-1,0.8-1.6c-0.8-1.9,0.6-1.8,1.7-1.9c0.9-0.1,1.9-0.1,2.9,0.2
				C342.3,353.6,345.7,353.9,349.1,353.2z M242.5,242.2c0.8,0.1,1.5,0.3,2.2,0.4c2.4,0.2,4.9-0.1,7.1,1.3c0.9,0.5,1.6,0.9,0.7,1.9
				c-0.4,0.5-0.2,0.8,0.1,1.2c1.2,1.9,2.4,3.9,3.6,5.7c0.4,0.6,1.1,1.5,1.9,0.9c0.9-0.7,1-0.2,1.3,0.5c0.4,0.8,1.1,1.5,1.1,2.6
				c0,0.5,0.5,1,1,1.1c0.5,0.2,0.9,0.4,1.1,0.9c0.4,1.6,1.8,2.7,1.9,4.3c0.1,1.1,1.3,1,1.6,1.9c0,0.1,0.8,0.3,0.8-0.6
				c-0.1-1.4-0.3-2.9-1-4c-0.4-0.6,0.1-1.6-0.8-1.9c-0.9-0.4-0.9-1.2-1.3-2.1c0.7,0,1.3,0.2,1.8-0.2c0.4-0.3,0.7-0.5,0.2-1
				c-2-2-3.2-4.7-6-5.8c-0.4-0.2-0.7-0.5-1-0.8c-0.3-0.2-0.4-0.6-0.1-0.8c1-0.8-0.1-1-0.4-1.5c-0.6-0.9-2.1-0.7-2.6-1.5
				c-0.8-1.3-2-1.8-3.4-2c-0.6-0.1-1-0.2-1.5-0.7c-1-1.1-2.5-1.6-3.9-1.4c-1.3,0.1-3.2-1-3.8,1.3
				C243.1,241.8,242.5,241.6,242.5,242.2z M311.4,326.4c0-0.8,0.1-1.5,0-2.1c-0.1-0.6,0.2-1.9-1.3-1c-0.5,0.3-1.5-0.2-1.6-1.2
				c-0.1-1.5-0.2-3.1,0.1-4.6c-0.2,0-0.3,0-0.4,0c-0.6,0.3-1,1.3-1.7,0.8c-0.6-0.4,0-1.3,0.2-1.9c0.1-0.5,0.3-1-0.4-1.2
				c-0.6-0.1-0.5,0.5-0.7,0.8c-1.1,1.3-1.1,2.9-1.3,4.4c-0.4,2.4-0.2,4.7-0.4,7.1c-0.2,2.2,0,4.4-0.6,6.5c2.3,0.8,1.5-1.9,2.7-2.4
				c-0.3,0.6,0,1.2,0.1,1.7c0.1,0.4-0.3,1,0.4,1.3c1.7,0.7,3.9-0.5,4.2-2.3c0.1-0.5,0.1-1,0.1-1.6c-0.1-1.3,0.1-2.5,1.2-3.7
				c0,1.4,0.5,2.5,0.1,3.7c-0.2,0.6,0,1.2,0.5,1.4c0.8,0.3,0.4-0.5,0.6-0.8c0.6-0.6,0.4-2,1.8-2.1c-1.4-0.3-1.2-1.5-1.5-2.4
				C312.9,325.5,312.3,325.6,311.4,326.4z M221.8,381.5c-0.7-0.4-1.6-0.3-1.6-1.4c0-1,0.7-1.3,1.4-1.7c0.5-0.3,0.9-0.5,0.6-1.1
				c-0.8-1.2,0.2-1.8,0.9-2.4c0.3-0.3,1-0.4,0.7-1c-0.3-0.6-0.8-0.4-1.3-0.3c-1.7,0.4-3.3,1.2-5.3,0.9c-1-0.1-2.6,0.4-2.4,2.6
				c0.1,1.3-0.1,3.1-1.2,4.3c-0.6,0.6-0.8,1.2-0.8,2c-0.1,1-0.3,2.1-1,2.8c-1.3,1.4-0.8,2.9-0.4,4.4c0.3,1,2.2,1.8,2.3,1.3
				c0.2-1.5,1.8-2.3,1.9-3.9c0.1-1.4,0.5-2.8,0.8-4.2c0.1-0.3,0.3-0.7,0.7-0.5c0.2,0.1,0.4,0.5,0.2,0.6c-1.2,0.7-0.2,1.6-0.3,2.4
				c-0.2,2.1,1.3-0.2,1.8,0.6c0.2,0.3,0.6,0.4,0.9,0.6c1.2,0.6,2.3,1.2,3.9,0.9c-1.1-1.1-2.8-0.6-3.7-1.7c0.6-0.4,1.2-0.8,2-1.3
				c-0.5-0.1-0.7-0.2-0.9-0.2c-0.6,0.1-1.2,0.2-1.4-0.4c-0.3-0.6,0.1-1.1,0.5-1.6C220.4,382.6,221.1,382.1,221.8,381.5z
				 M340.2,309.1c1.9-0.1,3.7-0.6,5.4-1.4c1.1-0.5,1.4-2,1.4-3c0-0.7-1.4-0.8-2.2-1c-2.2-0.5-4.4-0.6-6.6-1.6
				c-1.4-0.7-3.1-0.7-4.7-0.8c-0.8-0.1-1.4,0.2-0.7,1.2c0.3,0.5,1,1,0.8,1.8c-0.3,1.5,1.7,4.4,3.2,4.4
				C338.1,308.7,339.1,309.1,340.2,309.1z M360.1,345.9c-2.4-0.1-4.4-0.3-6.5-0.3c-1,0-1.2-1.2-2.3-0.9c-3.1,0.8-6.1-0.1-9.2-0.1
				c-0.6,0-1.5,0-1.1-1.1c0.1-0.4-0.2-0.5-0.5-0.6c-2-0.3-4-0.7-6-0.7c-1.2,0-2.9-1.1-3.8,0.9c-0.1,0.2-0.4,0.2-0.5,0
				c-0.5-0.6-1.2-0.7-1.3,0.1c-0.1,0.6,0.4,1.6,1.2,1.4c1-0.2,1.8,0.3,2.7,0.4c2,0.1,4,0.5,6.1,0.4c3.4-0.1,6.8,0.8,10.3,1.1
				c2.9,0.2,5.7,1.1,8.6,1.2c2.1,0.1,4.3,0.3,6.4,0c0.4-0.1,0.9-0.1,1-0.6c0.1-0.5-0.5-0.4-0.7-0.7c-0.5-0.6-1.4-0.3-1.9-0.8
				c-0.9-0.9-2.9-1.1-4.1-0.4C358.8,345.7,359.5,345.3,360.1,345.9z M323.5,384.8c1.8,0.1,1.6,1.4,1.8,2.4c0.4,2,0.9,4,1.9,5.8
				c0.2,0.4,0.9,1,1,0.5c0.1-0.8,1.3-1.1,0.8-2.4c-0.4-0.9-0.5-2.4-0.4-3.6c0.2-2.6,0.8-5.2,1-7.8c0.1-2.2,0.9-4.4,0.6-6.7
				c0-0.4,0.3-1-0.3-1.1c-0.6-0.2-1,0.4-1.1,0.9c-0.2,0.7-0.3,1.4-0.9,1.9c-0.5,0.5-0.6,1.1-0.8,1.8c-0.3,1.2,0,2.6-1.4,3.5
				c-0.6,0.4-1.6,1.4-1.1,2.6C324.9,383.8,324.6,384.4,323.5,384.8z M313.1,263.5c-0.3,2.3,1.2,4.2,0.9,6.4c0,0.4,0.4,0.9,0.7,1.2
				c1.2,1.4,3.2,2.2,3.7,4.3c0.2,0.7,0.9,0.6,1.2-0.1c0.4-0.8,0.3-1.7-0.3-2.3c-0.3-0.3-0.8-0.6-0.6-1c0.6-1.1-0.3-1.6-0.9-2.1
				c-0.4-0.4-0.7-0.8-0.5-1.2c0.8-2-2.4-2.8-1.4-4.8c-1.2-0.6-1.1-1.9-1.5-2.9c-0.2-0.6-0.6-1.2-1.1-1.5c-1.1-0.6-2-1.3-2.4-2.5
				c-0.2-0.4-0.4-0.9-1-0.7c-0.6,0.2-0.3,0.7-0.3,1.1c0.2,1.7,1.2,3.1,1.3,4.8C310.8,263.5,311.3,264.6,313.1,263.5z M322.4,303.3
				c0.7,0.2,1.2,0.7,1.6,0.6c1.8-0.4,1.6,1,1.8,1.9c0.1,0.4-0.3,0.9,0.3,1c0.4,0.1,0.8-0.2,1.2-0.4c1-0.7,0.8-2,1.6-2.9
				c0.3-0.4,0.4-0.7-0.2-0.8c-0.4-0.1-0.9-0.1-1,0.5c-0.1,0.4-0.1,0.7-0.2,1.1c-0.1,0.3-0.4,0.4-0.7,0.2c-0.3-0.1-0.4-0.5-0.2-0.7
				c1-0.5,0.5-1.6,1.1-2.4c0.8-1-0.2-3.2-1.3-3.8c-0.8-0.4-1.5-0.9-1.9-1.8c-0.5-1.1-1.5-0.4-2.2-0.4c-0.6,0-0.7,0.3-0.8,1
				c-0.5,2.1,1.1,3.4,1.8,5c0.1,0.2,0.1,0.3,0.1,0.4c-0.3,0.3-0.9-0.3-1.2,0.4C322.3,302.5,324.1,302.4,322.4,303.3z M336.5,375.4
				c0.6,0.1,1,0.3,1.3,0.5c0.9,0.7,2,0.5,2.9,0.1c0.8-0.3,0.2-1.3,0.4-1.6c0.8-1.1-0.1-2.7,1.1-3.7c0.3-0.2,0.2-0.5,0.2-0.8
				c-0.3-1-0.1-2.1-0.2-3.2c-0.1-0.8,0.9-0.6,0.7-0.9c-0.3-0.5-0.9-0.9-1.4-1.1c-0.5-0.2-1.4-0.2-1.6,0.4c-0.4,1.4-1.5,2.3-2,3.5
				c-0.5,1.5-1.4,3.2-0.6,4.6C338.1,374.5,337.7,374.9,336.5,375.4z M257.1,231.5c0.1-0.2,0.1-0.3,0.2-0.4c0.7-0.3,1.5-0.6,1.2-1.6
				c-0.2-0.7-1-1.1-1.7-0.8c-0.8,0.2-1.5,0.6-1,1.7c0.3,0.7-0.4,0.8-0.8,0.7c-1-0.2-2-0.1-2.9,0.5c-0.3,0.2-1.1-0.1-0.9,0.9
				c0.2,1,0.7,0.6,1.3,0.6c1.4,0.2,3.1-0.9,4.2,0.9c0.2,0.3,0.7,0.1,1,0c0.6-0.3,1.3-0.6,2-0.9c-0.1,1.8,1.6,3.1,3.3,2.6
				c0.8-0.2,3,0.7,3.2,1.4c0.4,2.1,2.2,2.3,3.7,3c0.3,0.1,0.6,0.2,0.8-0.2c0.2-0.5-0.1-0.6-0.4-0.9c-0.6-0.5-1.4-0.7-1.9-1.4
				c-1.1-1.8-2.9-2.7-4.6-3.7c-0.9-0.6-1.9-1.7-3-1.4C258.9,233.1,258.2,232.1,257.1,231.5z M374.7,317.9c-0.4-0.3-0.9-0.5-1-0.9
				c-1.2-2.2-3.1-3.8-4.3-5.9c-0.5-0.8-0.8-1.8-1.6-2.6c-0.8-0.8-2-1.5-2.4-2.6c-0.6-2-2.3-3.1-3.2-4.9c-0.1-0.3-0.5-0.4-0.9-0.2
				c-0.2,0.1-0.4,0.4-0.3,0.5c0.5,0.6,0.5,1.6,1,2.1c1.9,2,3.2,4.2,4.1,6.8c1.1,3.3,3.2,6.1,6.3,8
				C373.1,318.6,373.9,318.6,374.7,317.9z M325.2,286.8c-0.2-0.5-0.7-0.2-0.7-0.3c-0.9-1.9-3.1-2.5-4.2-4.2
				c-0.3-0.5-0.9-0.8-1.5-0.6c-0.7,0.2-0.6,0.9-0.5,1.3c0.2,0.7,0,1.2-0.2,1.8c-0.3,0.9-0.6,2.4,0.1,2.7c2,0.7,2.8,2.9,4.8,3.5
				c0.6,0.1,1.2,0.7,1.6,0.2c0.4-0.5,0.7-1.4,0.2-2C324.1,288.2,324.5,287.5,325.2,286.8z M345,488.5c0.1-1,0.2-2.3-0.4-3.5
				c-0.2-0.3,0.3-1-0.5-0.9c-0.5,0-0.5,0.5-0.7,0.9c-0.7,1.6,0.6,3,0.3,4.6c-0.3,1.6,0.3,3.3-1.4,4.6c-0.5,0.4-1.5,1.3-1.2,2.2
				c0.2,0.8,0.4,1.4-0.1,2.1c-0.3,0.4,0,0.8,0.4,1.1c0.5,0.3,0.8,0.1,1-0.4c0.2-0.5,0.4-0.9,1.1-1c2-0.2,3.8-3.4,2.6-4.9
				C345,491.8,345.1,490.3,345,488.5z M275.6,292.1c2.7-0.1,3.3-1.4,3.4-3.2c0-1.1-1.4-2.4,0.2-3.4c0,0,0-0.2-0.1-0.2
				c-0.8-0.2-0.8-1-1.1-1.6c-0.3-0.7-1-0.3-1,0.2c-0.2,1.4-1,2-2.3,2.2c-0.3,0-0.3,0.4-0.4,0.6c-1.1,1.5-2.1,3,0,4.4
				c0.1,0.1,0.1,0.3,0.2,0.4C274.6,292.1,275.1,292.2,275.6,292.1z M286.7,208.3c-1-0.5-1.8-0.2-2.5-0.1c-1.5,0.4-3.1,0.4-4.3-0.6
				c-1-0.7-1.9-0.8-3-0.8c-0.4,0-0.9,0.1-1.3,0c-3-1-6-2.1-9-3.1c-1.5-0.5-3-0.9-4.8-0.9c1,1,7.7,3.7,8.7,3.8c2.6,0.1,4.9,1.4,7.4,2
				C280.8,209.4,283.7,209.7,286.7,208.3z M292.3,455c0.8-0.8,2.5-0.8,3-2.2c0.6-1.5,1.4-2.5,3.1-2.8c0.6-0.1,1-0.4,0.6-1.1
				c-0.5-0.9,0.3-2.4-1.3-2.7c-0.6-0.1-1,0.4-0.9,0.9c0.2,1.5-0.8,1.7-1.9,1.9c-0.5,0.1-0.9,0.4-1.2,0.7c-0.3,0.3-0.5,1-1.1,0.8
				c-0.6-0.2-0.3-0.8-0.4-1.3c-0.1-0.4-0.2-0.9-0.8-0.7c-0.5,0.2-0.9,0.6-0.6,1.1c0.8,1.5,0.8,3,0.5,4.6
				C291.3,454.8,291.6,455,292.3,455z M300.3,437.4c0.1,0.1,0.1,0.3,0.2,0.4c0.7-0.3,1.3-0.5,2-0.8c0.9-0.3-0.6-1.7,0.8-1.9l-1-4.4
				c-0.1-0.3,0-0.5,0.1-0.8c0.9-1.6-0.1-2.9-0.7-4.3c-0.2-0.4-0.5-0.5-0.9-0.1c-0.3,0.3-0.7,0.5-1.1,0.6c-0.7,0.2-1.3,0.7-1.2,1.3
				c0.3,1.1-0.2,2.5,0.8,3.5c0.1,0.1,0.2,0.1,0.3,0.1c2-1,1,0.7,1,1.2c0,1-0.1,2,0.4,2.8C301.6,436,301.2,436.7,300.3,437.4z
				 M220.3,634.1c0.6,2.1,2.7,2.8,3.8,4.6c1.1,1.9,4,2.5,6.5,2.4c0.4,0,0.9-0.2,1.2-0.4c0.4-0.3,0.7-0.7,0-1.1
				c-1.6-1-3.2-2.1-5.1-2.8c-1-0.3-2-0.9-3-1.3C222.6,635.1,221.9,633.5,220.3,634.1z M349.9,373.7c-0.5-0.7-1.4,0.1-1.4-0.8
				c0-1,0.1-1.9,0.4-2.8c0.2-0.5,1.5,0.1,1.3-1.1c-0.2-1-1-0.6-1.6-0.8c-0.2-0.1-0.3-0.3-0.4-0.5c-0.7-0.8-1.3-0.7-1.6,0.3
				c-0.9,2.4-1.4,5-1.7,7.5c0,0.4,0.2,0.8,0.5,0.9c0.5,0.2,2.9-1,2.8-1.4C348,373.6,348.9,373.7,349.9,373.7z M287.8,407
				c0.5,0.6,0.1,1.9,1.3,1.7c0.9-0.2,0.6-1.1,0.8-1.8c0.2-1.2-0.4-2.5,0.1-3.7c0.2-0.4,0.3-1.5-0.4-1.7c-0.9-0.4-1.1-1-1.3-1.8
				c-0.2-0.7-0.8-0.9-1.4-0.3c-0.7,0.8,0.2,2.1-0.7,2.9c1.5,1.4,0.5,3,0.5,4.5c0,0.4-0.7,0.9-0.1,1.3
				C287.2,408.3,287.3,407.3,287.8,407z M303,278.2c-0.5,0.1-1.2-0.2-1.5,0.3c-0.4,0.6,0,1.1,0.4,1.6c0.3,0.4,0.5,0.8,0.8,1.1
				c0.8,1.2,2.4,1.9,2.7,3.4c0.2,0.9,0.4,1.5,1.3,1.2c0.7-0.3,1.7-0.7,0.9-2c-0.7-1.1-0.2-2.9-1.9-3.5c-0.1,0-0.1-0.3-0.1-0.4
				C305.3,278.4,304.3,278.1,303,278.2z M335.2,368.3c-0.1-0.7,0.5-1.6-0.5-1.9c-1.1-0.3-1.8,0.6-2,1.5c-0.4,1.8-0.6,3.7-0.8,5.6
				c-0.1,0.7-0.1,1.4,0.2,2c0.1,0.3,0.2,0.8,0.6,0.8c0.5,0,0.8-0.3,0.9-0.7C334.1,373.1,335.6,370.9,335.2,368.3z M346.3,388.1
				c0-0.3,0-0.5,0-0.8c0-0.8,0.1-1.9-1-2c-1-0.1-1.4,0.8-1.5,1.7c0,0.4,0,0.7-0.1,1.1c-0.3,1.9,0.7,3.9-0.5,5.7
				c-0.2,0.4-0.3,1.6,0.5,2c0.9,0.4,1-0.6,1.5-1c1-0.8-0.1-1.8,0.4-2.5C346.4,391,346.2,389.6,346.3,388.1z M338,295.9
				c-0.1-0.6-0.6-0.8-1-0.9c-1.6-0.5-2.9-1.3-4.2-2.3c-1.1-0.9-2.4-1.5-3.7-2.1c-0.4-0.2-1-0.3-1.3,0.3c-0.2,0.5-0.1,0.9,0.3,1.4
				c1.4,1.9,3.7,2.1,5.4,3.4c0.3,0.2,0.8,0.3,1.2,0.3c0.7,0,1.4-0.1,2.1,0.5C337.3,296.9,337.8,296.6,338,295.9z M432,354.3
				c-1.3,0-3,1.1-3.1,2.3c0,1.1,1.1,1.6,1.9,2.1c1.5,0.8,3.3,0.5,3.8-0.5C435.4,356.7,433.8,354.3,432,354.3z M367.9,296.3
				c1.2,0.6,2.2,1,3.1,1.7c1.2,0.9,1.7,0.3,1.8-0.8c0.1-1.6,0.5-3.3-1-4.6c-0.5-0.4-0.2-1.5-1.3-1.3c-1,0.2-0.5,1.2-0.9,1.7
				C368.8,294,369.6,295.7,367.9,296.3z M288.2,257.4c-1.6,0.2-2.6-0.4-3.6-1.3c-0.7-0.7,0-1.4-0.5-2.1c-1.2-1.7-2.7-3.1-3.7-4.9
				c-0.4-0.8-1.5-1.1-2.1-0.5c-0.6,0.6,0.4,1.1,0.9,1.5c1.6,1.5,2.2,2.6,2.3,4.7c0,0.3,0.3,0.4,0.6,0.5c0.5,0.1,1.1,0.2,1.3,0.6
				c0.5,1.2,1.9,1.5,2.3,2.8c0.3,0.9,1,0.9,1.7,0.1C287.6,258.4,287.8,258,288.2,257.4z M312.8,347.7c1-0.3,1.9,0.3,2,0.9
				c0.4,1.6,1.7,1.4,2.6,1.5c1,0.2,2.1,0.2,3.1,0.5c0.6,0.2,1.7,0.5,1.8-0.3c0.1-0.8-1-0.5-1.5-0.6c-0.1,0-0.2,0-0.3,0
				c-0.4-0.1-0.8-0.3-0.8-0.7c0-0.5,0.5-0.5,0.9-0.5c0.5,0,1,0.2,1.3-0.5C318.9,347,315.9,346.3,312.8,347.7z M207.7,376.3
				c-0.6,0.2-1.4,0-2.1,0.4c-0.6,0.3-1.3,0.6-1.1,1.4c0.5,1.5-1.2,2.9-0.2,4.4c0.2,0.2-1.1,0.7,0.1,1c0.8,0.2,1.4,0.1,1.8-0.7
				c0.3-0.7,0.6-1.5,0.5-2.1c-0.3-1.4,0.7-1.9,1.5-2.5c0.6-0.4,1.5-0.5,1.2-1.4C209.2,376,208.4,376.4,207.7,376.3z M365.8,289.9
				c0.1,0.3,0.1,0.5,0.2,0.8c0.3,0.6,0,1.6,1.3,1.6c1.4,0,1.4-1.2,1.8-1.9c0.3-0.6-0.2-1.4-1.1-1.6c-0.6-0.1-0.9-0.6-1-1.1
				c-0.6-1.9-0.9-2-2.9-1.4c0.4,0.6,0.9,1.3,0.7,2c-0.2,0.9-1.4,0-1.8,0.7c0.1,0.6,0.9,0.2,1,0.7C364.1,292.6,365,290.1,365.8,289.9
				z M367.6,634.7c0.7-1.8,0.6-1.8-1.2-2.6c-2.3-1-4.1,0.7-6.2,1c1.2-0.1,1.2,0.8,1.4,1.5c0.1,0.5-0.4,1.2,0.4,1.3
				c0.7,0.1,1.4,0.2,2-0.5C364.9,634.5,366.2,634,367.6,634.7z M246.3,499.6c1.4,0.7,0.8,2,0.7,3c-0.1,0.6-0.8,1.3-0.3,1.9
				c0.5,0.5,1.3,0.1,2.3,0.1c-1.2-0.9-1.7-1.7-0.4-2.4c0.5-0.3,0.3-0.6,0.3-0.9c-0.2-1.3,0.2-2.3,1.7-2.7c-1-0.2-0.8-1-1.1-1.5
				c-0.3-0.7-1.4-0.1-2-0.6c-0.1-0.1-0.1-0.2-0.2-0.3c-0.2-1-1.5-0.9-1.8-1.8c-0.1-0.2-0.4-0.3-0.5-0.1c-0.1,0.1-0.2,0.5-0.2,0.6
				c0.5,0.8,0.9,1.8,1.7,2.3c0.6,0.4,1,0.7,1.1,1.4C247.7,499.6,246.6,499.1,246.3,499.6z M287.9,206.3c2.1,0.9,3.4-0.3,4.8-0.7
				c2.9-1,5.3-2.9,8.3-3.8c0.9-0.3,1.8-0.5,2.8-1.3C297.6,200.3,293.4,204.4,287.9,206.3z M312.8,604.8c-1-0.5-1.9,0.2-2.9,0.4
				c-1.2,0.4-1.1,1.5-1,2.4c0,0.7,0.8,1,1.4,0.7c1.7-0.8,3.6-0.8,5.2-2c0.2-0.2,0.7-0.2,0.5-0.6c-0.1-0.3-0.3-0.6-0.6-0.7
				C314.6,605,313.7,604.7,312.8,604.8z M415.9,352.3c-1.8-1.5-3.9-1.3-5.8-1.4c-0.3,0-0.7,0-0.7,0.4c0,0.4,0.2,0.9,0.5,0.9
				c1.6,0.2,1.3,1.2,1,2.3c-0.1,0.6,0.3,0.9,0.6,1.2c0.4,0.4,1,0.5,1.5,0.2c0.7-0.4,0.2-0.7-0.1-1.1c-0.5-0.6,0-0.9,0.4-1.1
				C414.2,353.5,414.8,352.7,415.9,352.3z M179.4,377.7c0.2,0,0.5,0,0.7-0.1c1.2-0.7,2-1.8,3.4-2.1c0.3-0.1,0.4-0.6,0.4-1
				c-0.1-0.5-0.6-0.3-0.9-0.4c-0.7-0.2-1.5,0.2-2.1-0.1c-1.1-0.6-2.4-0.5-3,0.5c-0.7,1.1,0.5,1.8,0.5,2.8
				C178.4,377.8,179,377.7,179.4,377.7z M324.2,614.9c0.6,0.2,1,0.3,1.4,0.4c2.5,0.8,4,0.2,5.2-2.1c0.1-0.3,0.5-0.4,0.7-0.6
				c0.2-0.2,0.8-0.2,0.6-0.7c-0.2-0.4-0.6-0.4-1-0.4c-0.7,0.1-1.4,0.1-1.8,0.8c-0.2,0.4-0.5,0.7-1,0.7
				C326.6,612.8,325.6,614,324.2,614.9z M271,314.4c2.1,0.5,2.1,0.5,2-1.3c0-0.5,0.3-0.7,0.7-0.9c1.4-0.6,1.2-1.9,1.3-3.1
				c0-0.5-0.3-0.7-0.8-0.7c-1.2,0.2-3.5,2-3.8,3.2c-0.1,0.4,0,0.7,0.4,0.7c0.6,0,1.2,0,1.3,0.8C272.2,314,271.1,313.7,271,314.4z
				 M297.2,258.1c0.2-0.6,0.3-1.2-0.4-1.7c-0.7-0.4-1.1,0.4-1.8,0.5c-1,0.1,0-1.3-0.9-1.2c-0.6,0.1-1.3-0.2-1.8,0.4
				c-0.5,0.7,0.1,1.1,0.5,1.5c0.2,0.3,0,0.5,0.1,0.7c0.1,0.8,0.5,1.4,1.1,1.8c0.5,0.3,1.6,1.1,1.3-0.6c-0.1-0.4,0.2-0.7,0.6-0.4
				C297.5,260.4,297.4,259.3,297.2,258.1z M380.5,304c-0.3-0.7-0.5-1.4-0.8-2c-0.2-0.5-0.6-0.9-1.2-0.8c-0.5,0.1-0.8,0.4-1.1,1
				c-0.7,1.5,0.1,2.9,0.2,4.3c0,0.6,0.8,1,1.5,1.1c0.4,0,0.9-0.2,0.9-0.5C379.8,305.9,379.5,304.8,380.5,304z M341.8,488.6
				c-1.1,0.3,0,1.8-1.2,2c-1.8,0.4-1.9,2.6-3.5,3.2c-0.2,0.1-0.3,0.6-0.1,0.9c0.2,0.3,0.6,0.3,0.8,0c0.5-0.9,1.3-0.7,2.1-0.8
				c1.9-0.2,2.9-1.5,2.4-3.2C342.1,490,342.1,489.3,341.8,488.6z M219,241.9c-0.4,0-0.9-0.1-1.1,0.4c-0.8,1.7-2.3,3.1-2.5,5
				c0,0.3-0.3,0.6,0,0.8c0.3,0.2,0.6,0.2,0.9,0.1c0.5-0.2,0.9-0.5,1.1-1.1c0.5-1.4,1.1-2.7,2.3-3.6c0.4-0.3,0.8-0.6,0.7-1.2
				C220.2,241.6,219.4,242.2,219,241.9z M198.5,595.6c0,1.1,2,3.9,3.1,4.2c0.5,0.1,0.9,0.1,1.3-0.3c0.5-0.4,0-0.8-0.1-1.1
				c-0.6-1-1.2-2-2-3c-0.4-0.5-0.7-1.3-1.6-1C198.7,594.6,198.5,595.1,198.5,595.6z M282.1,292.6c-0.8,0.4-1.6,0.7-1.5,1.9
				c0.1,0.7,0.5,1.4-0.3,2c-0.5,0.4,0.4,0.8,0,1.4c-0.3,0.5,0.7,0.8,1,0.5c0.8-0.6,2-1.1,1.6-2.6c-0.1-0.6-0.3-1.2,0.1-1.9
				C283.6,292.9,282.8,292.9,282.1,292.6z M304.2,271.6c0,0.2-0.1,0.4,0,0.5c0.4,0.5-0.1,1.8,1.1,1.6c1-0.1,0.8-1.1,0.8-1.7
				c0-1.7,0.2-3.4-0.2-5c-0.1-0.5-0.4-0.6-0.8-0.6c-0.2,0-0.5-0.1-0.6,0.3C304.3,268.3,304.1,269.9,304.2,271.6z M212.4,554.7
				c-1.1-0.4-2.1-1.7-2.9,0.7c-0.6,1.7-1.7,3.3-1.8,5.3c0,0.4-0.2,0.8,0.2,1c0.4,0.1,0.7-0.2,0.8-0.5c0.6-1.7,1.5-3.2,2-4.9
				C211.2,555.2,211.5,554.9,212.4,554.7z M257.2,264.5c-1.3-0.9-0.8-2.1-0.8-3.3c0-0.6-0.2-1.6-1-1.3c-0.8,0.2-2.3,0.4-1.9,1.5
				c0.3,0.9,0.6,2,1.2,2.8C255.4,265.3,256.1,265.7,257.2,264.5z M209.4,608.2c1.3,0.5,2.3,0.6,2.7-1c0.1-0.5,0.3-0.8,1-0.3
				c0.3,0.3,1.1,0.3,1.4-0.3c0.2-0.3,0.4-0.8,0.2-1c-0.7-1-1.9-0.8-2.9-0.9c-0.9-0.1-1.4,0.4-1.5,1
				C210.2,606.6,209.7,607.4,209.4,608.2z M213.5,256.2c-0.2,2.8-2.7,5.1-0.1,7.5C215,262,215.1,259.1,213.5,256.2z M292.6,359
				c-1,0.2-1,0.2-2,2.5c-0.2,0.5-0.9,1.1,0,1.6c0.8,0.5,1.7,1.4,2.7,0.4c0.6-0.5,1.1-1.2,1.5-1.8C292.7,361.2,291.4,360.8,292.6,359
				z M297,414.5c1-1.2,1.3-2,1.1-3.4c-0.2-1.3,0-2.6-0.6-3.9c-0.2-0.5-0.3-1-0.9-0.8c-0.6,0.2-0.7,0.8-0.1,1.2
				c0.2,0.2,0.1,0.4,0,0.6C295.9,410.2,296.7,412.1,297,414.5z M245.7,398.1c0,0.3-0.1,0.7,0.1,1c0.2,0.6,0.3,1.4,1.1,1.4
				c0.8,0.1,0.9-0.7,1.2-1.3c0.5-1.4-0.5-2.6-0.1-4c0.1-0.5-1-0.6-1-0.3C246.8,396.1,245.4,396.7,245.7,398.1z M352.1,627.4
				c-0.2-0.4,0.2-1-0.4-1.3c-1.7-0.8-3.2-2-5.2-2.1c-0.3,0-0.6,0-0.7,0.3c-0.2,0.5,0.3,0.6,0.5,0.6c1.4,0.2,2,1.3,2.9,2.1
				c0.6,0.5,1.1,1.1,1.9,1.2C351.7,628.4,352.3,628.3,352.1,627.4z M209.6,272.5C209.5,272.5,209.5,272.5,209.6,272.5
				c-0.1,0.3-0.1,0.6-0.1,1c0,0.5,0,1.1,0.6,1.4c0.7,0.3,0.9-0.3,1.3-0.6c1-0.7,0.7-1.9,1-2.9c0.1-0.3-0.9-1.3-1.5-1.3
				c-0.7,0-1.5,0.4-1.4,1.4C209.5,271.7,209.5,272.1,209.6,272.5z M196.4,597.3c-1.1-0.2-1.7-0.5-1.7-1.7c0-0.7-0.8-1.4-1.6-1.9
				c-0.7-0.5-1.4-0.1-1.8,0.4c-0.6,0.7,0.1,1.2,0.6,1.3c1.1,0.4,1.2,1.8,2.3,2.3c-0.6,0.1-0.9,0.2-1.2,0.2
				C194.1,597.8,195.3,598.6,196.4,597.3z M313.8,620.1c-0.4,0.2-1.3,0.2-1.6,0.6c-0.6,1-1.6,1.2-2.6,1.5c-0.5,0.1-1.1,0.3-0.8,0.9
				c0.2,0.6,0.8,0.3,1.3,0.2c1.5-0.5,2.9-0.9,4.4-1.4c0.4-0.1,1.1,0,1-0.7C315.2,620.5,314.8,620,313.8,620.1z M435.9,355.5
				c-0.4,0.7-0.3,1.3,0.6,1.3c1.4,0,3.6-1.1,3.5-1.8c-0.3-1.8-1.8-1.1-2.8-1.3C435.8,353.5,435.3,354.3,435.9,355.5z M427,356.4
				c1,0,2.4-1.3,2.1-2.3c-0.2-0.8-1.4-1-2.2-1c-0.7,0-1.7-0.1-2,0.9C424.8,354.6,426.5,356.4,427,356.4z M229.7,377.2
				c0,0-0.1-0.1-0.2-0.1c-0.9-0.4-1.1-1.1-1.1-2.1c0-0.5-0.5-0.5-0.9-0.5c-0.5-0.1-0.6,0.2-0.8,0.6c-0.4,1,0,2.1-0.9,2.9
				c-0.2,0.2,0,0.5,0.3,0.6c0.5,0.2,1.1,0.6,1.7,0.2C228.5,378.4,229,377.8,229.7,377.2z M339.6,499.7c-0.4-0.5-0.9-0.7-1.4-0.2
				c-0.6,0.5-0.9,1.2-1.7,1.7c-0.4,0.2-0.3,0.7,0,1c0.5,0.6,0.9,1.1,0.7,2c-0.1,0.6,0.4,1,1,1.1c0.8,0,0.6-0.7,0.8-1.2
				c0.1-0.2-0.1-0.5-0.2-0.7c-0.3-1-1-2,0.5-2.7C339.4,500.5,339.4,500.1,339.6,499.7z M239.1,523.2c-1.6,1.1-1.6-0.5-2.3-0.7
				c-0.5,0.5-0.3,1.3-0.9,1.5c-1.3,0.5,0.3,1.6-0.5,2.2c0.4,0.5,1,0.8,1.5,0.5c0.6-0.3,1.7-0.3,1.3-1.6
				C238,524.6,238.5,524.2,239.1,523.2z M330.6,547.3c0.3-0.4,1-0.8,1-1.3c0-0.8,0.7-1.7,0.1-2.4c-0.6-0.6-1,0-1.3,0.6
				c-0.2,0.4-0.7,0-1,0.2c-0.6,0.4-1.7,0.8-1.2,1.7C328.6,546.8,329.7,546.9,330.6,547.3z M336.6,476.5c0-0.6,0-1.3-0.4-1.9
				c-0.2-0.4-0.5-0.5-0.9-0.4c-0.4,0.1-0.5,0.4-0.4,0.7c0.2,0.9-0.4,0.9-1,0.9c-0.4,0-0.7,0.2-0.8,0.6c-0.1,0.4,0.3,0.5,0.5,0.7
				c0.3,0.2,0.6,0.4,0.9,0.7c0.5,0.6,1.1,0.5,1.7,0.2C336.7,477.8,336.8,477.2,336.6,476.5z M342.2,520.1c2-0.5,1.9-2.2,2.7-3.3
				c0.3-0.4,0.8-1.1,0.2-1.6c-0.6-0.5-1.3-0.1-1.9,0.3c-0.5,0.4-0.6,0.8-0.7,1.4C342.3,518,342.7,519,342.2,520.1z M335,480.9
				c-0.8-0.7-3.3-1.7-4.1-1.6c-0.5,0.1-1.2,0.3-1.2,0.7c0,0.6-0.3,1.4,0.3,1.9c0.5,0.4,1,0.1,1.3-0.4c0.4-0.5,1-0.3,1.5-0.2
				C333.5,481.4,334.2,481.5,335,480.9z M332,540c0.4,0.5,0.9,0.9,1.3,1.5c0.2,0.4,0.7,1,1.3,0.7c0.7-0.3,1.1-1,1.2-1.8
				c0.1-0.7-0.3-1.4-0.9-1.8c-0.6-0.4-1.3-0.2-1.6,0.4C332.9,539.7,332.3,539.5,332,540z M275.4,405c-0.2,0.1-0.5,0-0.8,0.6
				c-0.4,0.8,0.1,1.1,0.1,1.6c0,0.6-0.2,1.1-0.5,1.6c0.5,0.2,1,0.5,1.5,0.5c0.5,0,0.4-0.6,0.5-0.9c0.3-0.7,0.3-1.5,0.5-2.3
				C276.9,405.3,276.6,404.7,275.4,405z M326.3,349.7c0.9,1.1,0.8,2.3,0.9,3.4c0,0.4-0.5,1,0.3,1.1c0.8,0.1,0.6-0.6,0.8-1.1
				c0.2-0.6,0-1.3,0.5-1.8c0.2-0.2,0.3-1,0.1-1.5c-0.2-0.7-0.8-0.6-1.1-0.4C327.3,349.6,326.9,349.4,326.3,349.7z M291.3,305.8
				c-0.7-0.3-1.5-0.1-1.7-1.1c-0.1-0.4-0.7-0.5-0.9-0.2c-0.5,0.6-1,1.3-1.1,2c-0.1,0.5,0,1.5,1.1,1.2c0.6-0.2,1.1,0.1,1.9,0.1
				C289.6,306.8,290,306.2,291.3,305.8z M254.1,528.5c0.1-0.4,0-0.5-0.2-0.6c-0.8-0.3-4,0.9-4.5,1.7c-0.2,0.3-0.6,0.6-0.2,1
				c0.3,0.4,0.7,0.4,1.2,0.2c1-0.4,1.9-1.4,3.1-1.4C253.7,529.4,253.9,528.8,254.1,528.5z M326.4,546c0.1-0.3-0.3-0.4-0.4-0.6
				c-0.5-0.5-1.2-0.6-1.6-0.3c-0.8,0.5-1.4,1.3-2,2c-0.2,0.3,0.2,0.4,0.4,0.4c0.4,0,0.8,0.1,1.2,0.3
				C324.7,548.1,326.4,546.8,326.4,546z M265.2,316.9c-0.5-0.4,0.2-1.7-1.1-1.6c-1.1,0.1-1,1-1,1.7c0,0.4,0.1,0.7-0.2,1.1
				c-0.7,0.8,0.2,1.3,0.6,1.6c0.6,0.4,0.7-0.4,0.9-0.7C264.9,318.3,264.9,317.6,265.2,316.9z M310.3,200.4c1.1-0.5,2.1-0.6,3.1-0.4
				c0.8,0.2,1.5-0.2,2.1-0.5c0.3-0.1,0.5-0.3,0.4-0.6c-0.1-0.3-0.3-0.4-0.6-0.4c-1.5,0-3-0.2-4.4,0.4
				C310.2,199.1,310.1,199.6,310.3,200.4z M249.3,520.9c0.7-0.2,0.8-1.1,1.5-1.3c0.1,0,0.9-1,0.2-1.6c-0.7-0.6-0.9,0.4-1.2,0.6
				c-0.7,0.6-1.2,1.4-2.3,0.5c-0.2-0.1-1,0.1-1,0.6c0,0.5,0.2,1,0.8,1C247.9,520.6,248.6,520.5,249.3,520.9z M298.6,259.3
				c0,0.8,0.1,1.3,0.1,1.8c0,0.4,0.1,0.6,0.5,0.6c0.4,0,0.6-0.2,0.6-0.6c0.2-1.2,0.3-2.3,0.4-3.5c0.1-0.5-0.1-0.9-0.5-1.3
				c-0.3-0.2-0.6-0.3-0.9-0.1c-0.2,0.1-0.4,0.3-0.3,0.5C299.2,257.7,298.8,258.6,298.6,259.3z M217,613.4c0-1-1-2.1-1.9-2
				c-0.5,0-0.9,0.2-0.9,0.7c-0.1,1.5,0.5,2.4,1.7,2.4C216.5,614.5,217.2,614.5,217,613.4z M294.5,346.7c-0.6-1.8-1.7-2.6-3.3-2.6
				c-0.4,0-0.8-0.1-0.9,0.4c-0.1,0.4,0.2,0.6,0.3,0.8C291.4,347.1,293,346.4,294.5,346.7z M340.3,465.5c0.8,0.2,0.9-0.2,0.7-0.7
				c-0.3-0.7-0.7-1.4-1-2.1c-0.2-0.4-0.4-0.8-0.9-0.7c-0.4,0.1-0.7,0.5-0.8,0.9C337.8,464.5,338.5,465.3,340.3,465.5z M320,294.8
				c0.2-0.4,0-0.5-0.2-0.6c-0.3-0.1-0.6-0.2-0.9,0.1c-0.8,0.7-1.6,1.4-1.8,2.5c-0.1,0.4-0.7,0.8,0.1,1.2c0.6,0.3,1.4,0.3,1.7-0.4
				C319.1,296.5,319.3,295.5,320,294.8z M238,431.1c0.6-0.8-0.1-1.1-0.6-1.3c-0.3-0.2-0.7,0-0.7,0.4c-0.1,1.1-0.4,2.3-0.1,3.4
				c0.1,0.5,0.4,0.8,0.9,0.7c0.4-0.1,0.5-0.4,0.5-0.8C238.2,432.6,238.2,431.8,238,431.1z M329,474c0-0.2,0.4-0.8-0.5-0.8
				c-1.2,0-1.6,0.9-1.7,1.9c0,0.8,0.1,1.8,1.2,1.7C329.9,476.6,328.8,475.2,329,474z M239.8,247.4c0.8,0.1,2-0.7,3.2-0.8
				c0.2,0,0.3-0.2,0.3-0.4c-0.1-0.7-1.3-1.5-2-1.1c-0.8,0.4-1.4,1.1-2.3,1.3c-0.3,0.1-0.5,0.4-0.4,0.8
				C238.8,247.5,239.1,247.5,239.8,247.4z M314.2,611.3c-0.5,0-0.7-0.1-0.9,0c-0.6,0.2-1.6,0.4-1.5,1.2c0,0.7,0.9,0.4,1.5,0.5
				c0.5,0.1,0.9,0.2,1.4,0.2c0.5,0,1.3,0.4,1.5-0.4c0.2-0.8-0.6-1-1.1-1.3C314.7,611.2,314.3,611.3,314.2,611.3z M253.2,371.1
				c-0.1-1-0.9-1.1-1.4-1c-0.8,0.1-2.1-0.1-2.2,1c-0.1,0.9,0.9,1.4,1.8,1.5C252.2,372.5,252.8,371.8,253.2,371.1z M331.7,536.6
				c-0.1,0.4-0.1,0.8,0.3,1c0.5,0.3,0.8-0.1,1.1-0.4c0.9-0.6,0.1-1.6,0.5-2.4c0.4-0.7-0.1-1.2-0.9-1.4c-0.8-0.1-1,0.5-1.1,1.1
				C331.7,535.3,332.1,536,331.7,536.6z M328,534c-0.4-0.7-0.2-2-1.6-2.2c-0.4,0-0.9,0-0.9,0.6c-0.1,1.2,0.9,2.9,1.7,2.9
				C327.9,535.2,328.1,534.8,328,534z M292.5,404.8c0.1,0.6-0.4,1.5,0.6,1.4c0.8-0.1,1.4-0.7,1.7-1.5c-1-0.3,0.4-2.1-1.2-2
				C291.9,402.8,292.9,404.3,292.5,404.8z M331.7,523.7c1.1-0.1,2.2-0.1,2.3-1.1c0.1-0.9,0.4-1.6,0.8-2.3c0.2-0.3,0.5-0.7,0.1-1
				c-0.2-0.2-0.6-0.1-0.9-0.1c-0.5,0-0.4,0.3-0.5,0.7C333.1,521.3,332.8,522.6,331.7,523.7z M250.6,476.1c0.2,0.8,0.3,1.9,1.3,1.9
				c1.2-0.1,0.6-1.6,1.1-2.4c0.3-0.4-0.7-0.9-1.2-0.8C251.1,474.9,250.4,475.2,250.6,476.1z M244.2,537.9c-0.7-0.4-1.3-0.2-1.9-0.3
				c-1.3-0.2-2.3,1.3-1.9,2.4c0.1,0.3,0.3,0.5,0.7,0.5c0.3,0,0.8-0.1,0.8-0.3C241.7,538.4,243,538.2,244.2,537.9z M349.8,336.6
				c-1.1-0.3-1.3-0.5-1.9-2.2c-0.2-0.5-0.4-0.8-0.9-0.5c-0.5,0.2-0.7,0.8-0.3,1.2c0.3,0.4,0.6,0.7,0.7,1.1
				C348.2,338.1,348.2,338.1,349.8,336.6z M233.3,521.5c0.2-0.9-0.5-1.2-1.1-1.3c-0.9-0.1-1.3,0.6-1.2,1.3c0.1,0.7,0,1.7,1,1.8
				C233.2,523.4,233.3,522.4,233.3,521.5z M321.1,504.4c0.9,0.2,1.4,0.9,2.4,0.8c1.1-0.1,0.8-1.3,1.6-1.6c0.2-0.1-0.2-0.4-0.4-0.5
				c-0.9-0.4-1.9-0.6-2.2,0.5C322.1,504.3,321.5,504,321.1,504.4z M335.4,457.8c-1-0.8-2-1.2-3-0.4c-0.2,0.2-0.2,1.6,0.6,2.2
				c0.2,0.1,0.4,0.3,0.7,0.3c0.3,0,0.4-0.3,0.3-0.6C333.8,458.3,334.7,458.1,335.4,457.8z M332.2,462.8c1.5,0.1,1.2,2.4,2.9,2.2
				c-0.7-0.9,0.9-1.8-0.1-2.7C334,461.4,333.2,462.7,332.2,462.8z M229.7,511.8c-0.9-0.1-1.7,0.1-1.6-1.1c0-0.5-0.8-0.4-0.8-0.1
				c-0.2,1.2-1.5,2.1-0.6,3.8C227.2,512.9,228,511.9,229.7,511.8z M395.9,349.6c-0.5,0-0.9-0.1-1.2,0.4c1.1,0.2,0.4,1.8,1.3,1.9
				c0.9,0.1,2.1-0.7,2.1-1.4C398.1,349.2,396.6,350,395.9,349.6z M329.7,524.2c-0.5,0.4-1.4,0.3-1.3,1.3c0.1,0.7,0.2,1.3,1.3,1.3
				c1.1-0.1,1.3-0.9,1.4-1.6C331.1,524.4,330.3,524.4,329.7,524.2z M352.9,342c-0.4-1.6-1.1-3-1.4-4.6c0-0.3-0.4-0.3-0.7-0.1
				c-0.2,0.2-0.2,0.4-0.2,0.7c0.2,1.3,1.2,2.4,0.9,3.8c-0.1,0.4,0.6,0.5,1,0.6C352.8,342.4,352.9,342.2,352.9,342z M242.9,451
				c1.2,0.9,2.4,0.7,3.4,1.4c1.8,1.4,1.9,1.3,2.9,0.6C247.4,452,245.5,450.7,242.9,451z M343.4,512.7c0,0.3-0.3,0.8,0.4,0.8
				c0.6,0,1.1-0.3,1.1-1.1c0-0.6-0.4-1.1-0.2-1.7c0.1-0.5-0.1-1.1-0.6-1c-0.6,0.1-1.1,0.7-0.8,1.3
				C343.5,511.5,343.6,512.1,343.4,512.7z M224.7,384c0-0.6,0-1.3-0.8-1.3c-1.5,0-1.1,1.4-1.5,2.2c-0.2,0.4,0.1,0.8,0.5,0.8
				C223.8,385.6,224.7,385.2,224.7,384z M343.8,375.6c0-0.2,0-0.7-0.6-0.8c-0.5-0.1-0.6,0.3-0.8,0.6c-0.4,0.8,0,1.7-0.2,2.6
				c-0.1,0.3,0.4,0.6,0.8,0.6c0.4,0,0.8-0.2,0.7-0.7C343.4,377.2,343.7,376.5,343.8,375.6z M382.7,348.7c-1.2-1.5-2.8-0.7-4.1-1.2
				c-0.3-0.1-0.4,0.2-0.3,0.6c0.1,0.3-0.1,0.5,0.4,0.7C380,349.2,381.2,349.1,382.7,348.7z M270.8,294.7c0.5,0.1,2.9-2.7,2.7-3.2
				c-0.1-0.3-0.4-0.6-0.7-0.3c-0.7,0.9-1.9,1.3-2.4,2.4C270.1,294.2,270.1,294.5,270.8,294.7z M255.8,500.3
				c-1.3,0.2-2.1,0.9-2.9,1.6c-0.3,0.2-0.9,0.3-0.7,0.9c0.1,0.4,0.6,0.4,0.9,0.5c0.5,0.1,1,0.1,1.1-0.4
				C254.3,501.9,255.3,501.4,255.8,500.3z M227.4,507c-1.2,0.3-2.5,0.4-2.1,2.3c0.1,0.3-0.8,0.7,0,0.9c0.6,0.2,0.8-0.2,1.1-0.7
				C226.8,508.8,226.7,507.7,227.4,507z M342.7,472.1c-0.6-1.1-0.6-2.2-0.6-3.3c0-0.6-0.6-0.8-0.8-0.4c-0.3,0.6-1.1,0.4-1.4,1.3
				c1.7-0.6,1.3,0.6,1.3,1.3C341.2,471.9,341.6,472.1,342.7,472.1z M291.8,347.6c0.7,1.4,2,1.5,3.3,1.4c0.7,0,1-0.4,1-1.2
				C294.6,347.8,293.2,347.7,291.8,347.6z M332.4,502.1c1.1,0.6,1.1,1.4,1.3,2.1c0.1,0.5,0.2,1,0.9,0.5c0.7-0.6,0.5-1.5,0.6-2.3
				c0.1-0.5-0.9-0.6-1.6-0.5C333.3,502,333.1,502,332.4,502.1z M204.1,572.4c-0.9,0.1-2.2,2.7-1.8,3.5c0.1,0.2,0.3,0.3,0.5,0.2
				c0.5-0.1,1.9-2.9,1.7-3.4C204.5,572.4,204.3,572.3,204.1,572.4z M342.6,544.4c-0.9-2.3-0.9-2.3-3.4-1
				C339.9,545,341.3,544.2,342.6,544.4z M356.7,354.2c-0.3,0.9-0.6,1.6,0.4,1.6c0.7,0,1.3-0.6,1.2-1.2c-0.2-0.9-0.6-2.3-1.5-2.1
				C355.5,352.6,356.9,353.8,356.7,354.2z M286.5,215.3c2.1,0.4,1.5-0.9,1.8-1.7c0.2-0.7,0.3-1.3-0.2-1.9c-0.1-0.1-0.5-0.1-0.6,0
				c-0.5,0.5-0.4,1.2-0.4,1.9C287.2,214.1,287.8,215,286.5,215.3z M249.9,538.7c-1.1-0.6-1.8-1.1-2.8-0.6c-0.2,0.1-1.1,0.1-0.2,0.6
				c0.2,0.1,0.2,0.7,0.3,1c0,0.4,0.1,0.8,0.6,0.8c0.5,0,0.9-0.2,0.8-0.7C248.5,539,249.1,538.9,249.9,538.7z M321.8,341.8
				c-1.5-0.4-2.8-0.4-3.8-1.4c-0.5-0.5-0.8,0-1.1,0.1c-0.3,0.1-0.4,0.5-0.4,0.8c0.1,0.5,0.5,0.7,1,0.7
				C318.8,341.8,320.2,342.2,321.8,341.8z M296.9,436.4c0.5,0.4-0.1,1.6,1.1,1.7c0.6,0,1-0.6,0.9-1.1c-0.2-0.7,0-1.8-1-2
				C297.2,434.9,297,435.6,296.9,436.4z M335.8,548c-0.7,0.1-1.8-0.1-1.8,1c0,0.9,1.1,0.5,1.7,0.6c0.6,0.1,1.6-0.3,1.7-0.9
				C337.4,547.9,336.4,548.3,335.8,548z M326.6,491.7c0.4,0.2,0.8,0.4,1.2,0.7c0.6,0.4,1.3,0.4,1.4-0.3c0.1-0.4,0.9-1,0.1-1.5
				c-0.6-0.4-1.2-0.6-1.6,0.3C327.5,491.3,326.8,491.1,326.6,491.7z M344.4,372.9c-0.6-0.4,0.5-1.7-0.7-1.8c-1-0.1-0.9,1.1-1.1,1.9
				c-0.1,0.6,0,1.2,0.9,1.2C344.2,374.1,344.4,373.7,344.4,372.9z M298.4,405.4c-1.4-0.4-1.3-1.2-1-2.2c0.1-0.3,0.1-0.7-0.2-0.8
				c-0.1-0.1-0.5,0-0.5,0.1c-0.2,0.9-0.7,2-0.5,2.8C296.4,406.3,297.4,405.5,298.4,405.4z M233.5,531.4c0.2,0.4,1.5,0.4,0.6,1.3
				c0.7,0,0,1.1,0.7,0.9c0.7-0.2,1.4-0.7,1.4-1.5c0-0.8-0.7-0.9-1.2-0.9C234.6,531.1,234,530.8,233.5,531.4z M259.7,500.4
				c0-0.2,0-0.3-0.1-0.4c-0.8-0.8-1.4,0-2,0.3c-0.6,0.3-1,1-1.3,1.7c0,0,0.1,0.1,0.1,0.1c0.7,0.4,1.1-0.1,1.6-0.4
				C258.7,501.4,259.4,501.1,259.7,500.4z M304.4,502.3c-0.1-0.7-0.2-1.4-1-1.6c-0.8-0.2-1.5,0.1-2.1,0.6c-0.2,0.2-0.4,0.4-0.3,0.7
				c0.1,0.3,0.4,0.5,0.8,0.4C302.6,502,303.5,502.3,304.4,502.3z M225.3,518.1c0-0.6-0.1-1.1-0.8-1c-0.8,0.1-1.3,0.6-1.2,1.5
				c0,0.6,0,1,0.8,1C225.1,519.5,225.3,518.9,225.3,518.1z M255.1,440.8c-0.2-0.6-0.1-1.4-0.7-2c-0.4-0.4-0.9-0.6-0.9,0.1
				c-0.1,0.8-0.5,1.7,0.2,2.4c0.3,0.3,0.4,1,1,0.9C255.3,442,254.8,441.3,255.1,440.8z M329.3,538c1.6,0.1,1.3-1.4,1.7-2.1
				c0.3-0.5-0.4-0.5-0.7-0.4c-1.2,0.1-1.4,1.1-1.7,2C328.4,538,328.9,538,329.3,538z M229.6,240.3c1.2,1.1,2.6,1,3.9,0.9
				c0.4,0,0.7-0.4,0.6-0.8c-0.1-0.4-0.4-0.4-0.8-0.4C232.1,240.1,230.9,240.2,229.6,240.3z M296.8,394.1c0.1,0.6,0.3,1.2,1.2,1.2
				c0.5,0,1,0,0.8-0.8c-0.2-0.7-0.1-1.7-1.1-1.8C296.9,392.6,296.9,393.4,296.8,394.1z M366.9,293.6c-0.7,0.1-1.8,0-1.9,0.8
				c-0.1,0.6,0.9,1.1,1.6,1.1c0.6,0,1.4-0.5,1.4-1.2C368.1,293.6,367.4,293.5,366.9,293.6z M320,309.4c1.4-0.4,2.8-0.7,3.6-2.1
				C321.5,306.4,321.1,308.4,320,309.4z M348,327.5c-0.3,0.3-1.3-0.1-1.2,0.9c0.1,0.5,0,1.3,0.9,1.2c1,0,1-1,1.3-1.6
				C349.3,327.5,348.5,327.6,348,327.5z M184.2,369.1c-0.7-0.2-1.3,0-1.5,0.8c-0.1,0.5,0.4,0.8,0.8,0.7c0.9-0.2,2.2,0.1,2.4-1
				C186,369,184.9,369.2,184.2,369.1z M247.1,475.7c-1.4,0.6-1,1.6-0.6,2.6c0.2,0.5,0.7,0.4,1,0
				C248.6,477.2,247.6,476.5,247.1,475.7z M341.9,525.9c1.1-0.3,1.1-1.3,1.3-2.1c0.1-0.5-0.2-0.6-0.5-0.5c-1,0.2-1.3,1-1.6,1.8
				C341,525.5,341.4,525.9,341.9,525.9z M234.4,318.5c0.9-0.1,0.9-0.9,1.3-1.3c0.3-0.3,0.8-0.5,0.3-0.9c-0.3-0.3-0.8-0.4-1.2-0.2
				c-0.6,0.4-1,1-1,1.8C233.9,318.2,234.1,318.4,234.4,318.5z M313.6,278.2c0,0.3-0.5,1.1,0.3,0.9c0.7-0.2,1.3-1.1,1.7-1.8
				c0.2-0.5-0.4-1.1-1-0.8C314.1,276.8,313.3,277.1,313.6,278.2z M295.7,247.9c0.6-0.2,1.4,0,1.4-0.8c0-0.7-0.1-1.4-0.7-1.9
				c-0.4-0.4-0.9-0.4-1.3,0c-0.5,0.5,0,0.7,0.3,1C296.2,246.6,296.1,247.2,295.7,247.9z M371.1,354.3c-0.7,0.1-1.5,0-1.6,0.9
				c0,0.6,0.7,0.8,1.2,0.8c0.6,0,1.4-0.2,1.4-1C372.2,354.4,371.7,354.2,371.1,354.3z M343.3,502.6c0.2-0.5,0-1-0.5-1
				c-1,0.1-1,0.9-1,1.7c0,0.5-0.5,1.3,0.4,1.3C343.5,504.6,343.1,503.4,343.3,502.6z M235.7,640.5c0.3-1.2,0.3-2.1-0.5-2.6
				c-0.4-0.2-0.9,0-1.1,0.7C233.5,640.6,235.5,639.5,235.7,640.5z M376.9,351.1c-1.7,0-3.2,0-4.7,0
				C373.8,352.1,375.6,352,376.9,351.1z M345,519.8c0.1,0.5-0.4,1.5,0.7,1.4c0.8-0.1,0.8-0.8,0.8-1.5c0-0.5,0.3-1.2-0.6-1.1
				C345.5,518.7,344.8,519,345,519.8z M233,372c-0.1-0.9-0.9-0.9-1.3-0.8c-0.9,0.1-0.5,1.1-0.9,1.7c-0.3,0.5,0.5,0.6,0.7,0.6
				C232.5,373.5,232.5,372.4,233,372z M344.5,506.7c0.1,0.4,0,1.2,0.8,1.1c0.8,0,0.4-0.7,0.4-1.1c0-0.4,0-0.9,0.1-1.2
				c0.1-0.3,0.3-0.6-0.2-0.7c-0.3,0-0.9-0.3-0.9,0.4C344.7,505.8,344.5,506.2,344.5,506.7z M256.6,515.3c-0.3-0.5-0.4-1.3-0.9-1
				c-0.6,0.2-1.5,0.3-1.6,1c-0.1,0.5,0.8,0.7,1.1,1.2C255.7,516.1,256.2,515.7,256.6,515.3z M340,482.5c-0.1-0.6-1-0.8-0.7-1.5
				c0.2-0.4-0.1-0.8-0.5-0.8c-0.4,0-0.9-0.1-1,0.5c-0.1,0.4-0.3,0.8,0.2,1.1C338.6,482.1,339.1,482.6,340,482.5z M207.7,272.9
				c0-0.6,0.2-1.5-0.8-1.5c-0.8,0-0.6,0.7-0.6,1.2c0,0.6-0.1,1.3,0.7,1.3C207.7,274,207.9,273.6,207.7,272.9z M290.8,389
				c-0.1,0.7-0.1,1.3-0.2,1.9c-0.1,0.5,0,0.8,0.5,1c0.3,0.1,0.5,0.1,0.7-0.2c0.3-0.3,0.5-0.7,0.3-1.1
				C291.8,390,291.4,389.5,290.8,389z M337.3,528.4c1.3,1.1,1.9,1.1,2.7-0.1c0.2-0.3,0.4-0.6,0.2-0.9c-0.3-0.4-0.7-0.3-1-0.1
				C338.6,527.7,338,528,337.3,528.4z M269.2,298.5c0.3,0.6-0.2,1.6,0.9,1.4c0.4-0.1,1.3,0.2,1-0.7c-0.2-0.5,0.1-1.6-1.1-1.4
				C269.7,297.8,269.1,297.9,269.2,298.5z M335.9,363c-0.2-0.5-0.7-0.6-1.1-0.7c-1-0.1-1,0.8-1.2,1.4c-0.2,0.5,0.4,0.5,0.8,0.5
				C335.2,364.3,335.5,363.6,335.9,363z M323.8,539c0-0.6-0.1-1.2-0.7-1.1c-1.1,0.1-0.6,1.4-1.2,2c-0.2,0.2,0.4,0.5,0.7,0.4
				C323.2,540.1,323.9,539.8,323.8,539z M336.4,532.3c-0.1-1.1-1-0.9-1.7-1.1c-0.4-0.1-0.9,0.1-0.7,0.5c0.3,0.7,0.8,1.4,1.7,1.4
				C336.3,533.2,336.4,532.7,336.4,532.3z M232.9,317.8c-0.2-0.5-0.5-0.6-0.9-0.6c-1,0.1-1.2,0.9-1.3,1.7c-0.1,0.5,0.5,0.4,0.8,0.5
				C232.7,319.5,232.3,318.2,232.9,317.8z M332.6,377c-0.5,0.1-0.9,0.4-0.9,1c0,0.6,0.2,1.2,0.9,1.3c0.6,0.1,0.9-0.2,1-0.8
				C333.7,377.7,333.3,377.3,332.6,377z M339.2,377.3c-0.6,0-1.3-0.4-1.3,0.6c0,0.8,0.6,0.6,1,0.7c0.7,0.1,1.5-0.1,1.6-0.7
				C340.5,376.9,339.6,377.4,339.2,377.3z M242.5,450.9c-1.1-0.8-1.7-1.4-1.6-2.4c0.1-0.4-0.2-0.7-0.7-0.7c-0.3,0-0.4,0.2-0.5,0.5
				C239.7,449.2,241.1,450.7,242.5,450.9z M302.8,252.2c0.5,0.2,0.8,0.7,1.1,1.1c0.3,0.3,0.8,0.5,0.9,0.1c0.2-0.4,0.2-1.1-0.1-1.5
				C304.2,251.2,303.5,251.9,302.8,252.2z M334.1,490.4c-0.3-0.6,0-1.7-1.1-1.9c-0.4-0.1-0.7,0.4-0.5,0.8c0.2,0.7,0,1.6,1,1.8
				C333.9,491.3,334.1,490.9,334.1,490.4z M262.1,222.2c-0.7,0.1-0.8,0.6-0.8,1.1c0,0.4-0.3,1.2,0.4,1.2c0.6,0,1.1-0.6,1.2-1.3
				C263,222.8,262.6,222.4,262.1,222.2z M355.1,293.4c-0.7-0.2-1.3,0.2-1.9,0c-0.3-0.1-0.7,0-0.8,0.4c-0.1,0.4,0.2,0.7,0.4,1
				c0.2,0.3,0.6,0.3,0.8,0.1C354.2,294.5,354.7,294.1,355.1,293.4z M339.8,363c0.7,1,1.4,1.1,2.2,1.1c0.5,0,0.9-0.3,0.8-0.8
				c0-0.5-0.5-0.5-0.9-0.5C341.3,362.9,340.7,362.9,339.8,363z M233.2,517.2c-0.3,0.2-1.1,0.7-1,0.8c0.2,0.6,0.8,1.1,1.4,1.2
				c0.6,0.1,0.8-0.5,0.8-1C234.3,517.6,234,517.3,233.2,517.2z M229.9,545.4c-0.2,0.5-0.4,1,0.2,0.9c1-0.1,0.9-1.3,1.3-1.9
				c0.2-0.4-0.1-0.7-0.4-0.6C230.1,544,229.1,544.3,229.9,545.4z M242.7,543.6c0.1-0.7,1.1-1.3,0.1-2c-0.5-0.4-1.4,0.2-2.6,1.7
				C241.5,542.2,242.1,542.8,242.7,543.6z M237.7,443.8c0.7,1,0.7,2.1,1.1,3.1c0.1,0.3,0.2,0.4,0.6,0.4c0.2,0,0.5-0.2,0.4-0.4
				C239.2,445.8,239.1,444.4,237.7,443.8z M247.3,291c0-0.3-0.1-0.5-0.6-0.6c-1-0.1-1.3,0.7-1.5,1.3c-0.1,0.4,0.3,0.7,0.7,0.7
				C246.8,292.4,247,291.7,247.3,291z M300.5,403.3c-0.7-0.1,0.4-1.3-0.6-1.1c-1,0.2-0.5,1.3-0.8,1.9c-0.2,0.4,0.1,0.4,0.3,0.4
				C300.2,404.5,300.4,404,300.5,403.3z M250.1,504.2c1.1,0,1.3-0.1,1.4-0.5c0-0.4,0.3-1.1-0.3-1.3c-0.9-0.4-0.2,0.8-0.7,0.8
				c-0.2,0-0.3,0-0.5,0.1c-0.4,0.1-0.8,0.1-0.8,0.6C249.3,504.4,249.9,504.1,250.1,504.2z M353.8,298.5c-0.9-1.1-1.7-1.1-2.4-0.1
				c-0.2,0.4-0.2,0.6,0.1,0.8c0.3,0.2,0.7,0.3,0.8,0C352.5,298.2,353.2,298.7,353.8,298.5z M338.1,323.2c-0.1,0.1-0.3,0.2-0.5,0.3
				c0.6,0.7-0.3,1.4,0,2.2c0.1,0.2,0.2,0.4,0.5,0.3c0.5-0.2,1-0.6,0.8-1C338.5,324.4,339.2,323.5,338.1,323.2z M307.1,312.5
				c-0.2-0.4,0-1.3-0.7-1.2c-0.7,0.1-0.7,1-0.8,1.6c-0.1,0.4,0.1,0.8,0.5,0.8C306.7,313.7,307.1,313.2,307.1,312.5z M333.4,449.6
				c0,0.4-0.1,1.1,0.6,1.1c0.7,0,0.6-0.6,0.7-1.1c0.1-0.5,0-1-0.6-1C333.2,448.5,333.5,449.2,333.4,449.6z M330.6,607.1
				c-0.6-0.1-1,0-1.1,0.6c-0.1,0.6,0.4,0.7,0.8,0.7c0.6-0.1,1.3-0.1,1.3-0.9C331.6,606.6,330.9,607.3,330.6,607.1z M322.9,618.5
				c-1.1-0.3-2-0.6-2.9-0.9c-0.3-0.1-0.6,0-0.7,0.2c-0.1,0.3,0.1,0.7,0.5,0.7C320.7,618.7,321.7,619.1,322.9,618.5z M317.6,618.2
				c-0.1-0.5-0.6-0.5-1-0.5c-0.5,0.1-1.3-0.2-1.4,0.6c0,0.5,0.6,0.6,1.1,0.6C316.9,619,317.4,618.9,317.6,618.2z M218.6,522.6
				c0.1-0.4,0.1-0.8-0.4-0.9c-0.6-0.1-0.7,0.4-0.6,0.8c0,0.3,0.1,0.6-0.1,0.9c-0.2,0.2-0.6,0.4-0.1,0.7c0.4,0.2,0.9,0.1,1-0.4
				C218.5,523.4,218.5,523,218.6,522.6z M177.9,371.3c0.6-0.8,1.3-0.6,2-0.7c0.2,0,0.5,0,0.5-0.3c0-0.1-0.1-0.3-0.2-0.4
				c-0.6-0.4-1.3-0.2-1.9-0.1C177.6,369.9,177.8,370.5,177.9,371.3z M246.7,481.8c1,0,0.7-0.8,0.8-1.3c0.2-0.5-0.4-0.5-0.7-0.5
				c-0.7,0-0.8,0.6-0.9,1.1C245.7,481.6,246.2,481.8,246.7,481.8z M334.3,466.5c0.9,0.3,1.9,0.4,2.8,0.9c0.2,0.1,0.5,0.1,0.7-0.2
				c0.2-0.4-0.1-0.5-0.5-0.6C336.2,466.1,335.3,466.3,334.3,466.5z M240.1,518c0.1-0.6-0.2-0.7-0.7-0.7c-0.5,0-1.1,0.1-1.1,0.8
				c0,0.6,0.5,0.9,1.1,0.9C240.1,519,240,518.5,240.1,518z M337.5,513.8c-0.1-0.7-0.4-1.1-1-1.1c-0.3,0-0.9-0.1-0.7,0.5
				c0.2,0.5,0.2,1.3,0.8,1.4C337.1,514.8,337.4,514.2,337.5,513.8z M275,336.5c-1.2-0.6-2.3-0.5-3.3-0.3c-0.1,0-0.3,0.2-0.3,0.3
				c0,0.2,0.2,0.5,0.4,0.4C272.7,336.7,273.8,337.2,275,336.5z M283,388.8c-0.3-0.4,0-1.3-0.8-1.3c-0.6,0-0.7,0.6-0.7,1
				c-0.1,0.8,0.7,0.6,1.1,0.9C282.9,389.5,283,389.2,283,388.8z M370.8,300.9c-0.4-0.5-0.9-0.8-1.6-0.7c-0.4,0.1-0.8,0.2-0.7,0.6
				c0.2,0.7,0.9,0.8,1.5,0.9C370.4,301.7,370.7,301.4,370.8,300.9z M243.4,492.3c-0.7,0.5-1,1.1-0.8,1.7c0.1,0.3,0.9,0.4,1.2,0.1
				C244.5,493.4,243.2,493,243.4,492.3z M228.6,517.1c0.6-0.2,1.3,0.9,1.7-0.3c0.1-0.4,0.3-1.1-0.1-1.1
				C229.3,515.5,229.1,516.5,228.6,517.1z M330.3,313.1c-1.1,0-1.6,0.6-1.9,1.3c-0.1,0.3,0.3,0.6,0.6,0.6
				C330.1,314.9,330.1,314.1,330.3,313.1z M419.6,356.7c1,0.2,2,0.3,3,0.5c0.3,0,0.7,0,0.8-0.4c0.1-0.4-0.3-0.5-0.6-0.5
				C421.6,355.9,420.7,356.3,419.6,356.7z M397,353.6c-0.2-0.5-0.5-0.8-1.1-0.7c-0.5,0.1-1,0.3-0.9,0.9c0,0.5,0.5,0.6,1,0.6
				C396.4,354.3,396.9,354.2,397,353.6z M393.8,357.7c0.3,0,0.4,0,0.6,0.1c1.5,0.7,1-1,1.5-1.4c0.2-0.1,0.2-0.4-0.1-0.5
				c-1-0.4-1,0.7-1.6,1C394,357,394,357.3,393.8,357.7z M251.2,390.9c-0.4-0.2-0.7-0.4-1-0.6c-0.4-0.4-0.9-0.4-1.3-0.3
				c-0.1,0-0.2,0.3-0.2,0.4c0.2,0.5,0.7,0.3,1.1,0.5C250.2,391.1,250.6,391.4,251.2,390.9z M299.4,253.3c-0.4,0.2-0.8,0.5-0.7,1
				c0.1,0.5,0,1.2,0.8,1.1c0.4,0,0.7-0.4,0.5-0.8C299.9,254.1,300.1,253.5,299.4,253.3z M345.6,527.5c0-0.4-0.1-0.7-0.5-0.7
				c-0.7,0.1-1,0.6-1,1.2c0,0.4,0,1.2,0.7,1C345.6,528.9,345.3,528,345.6,527.5z M260.2,479.3c1.3,0.3,2.4-0.1,3.6-0.6
				C262.4,478.1,261.3,478.9,260.2,479.3z M179.4,367.9c-0.1-0.5-0.4-0.9-0.9-0.8c-0.7,0.1-0.9,0.6-1,1.2c0,0.4,0.4,0.4,0.7,0.4
				C178.7,368.6,179.3,368.5,179.4,367.9z M286.7,395.3c0.7-0.5,0.6-1.2,0.4-1.9c-0.1-0.3-0.4-0.4-0.7-0.2c-0.7,0.5,0.2,1,0,1.6
				C286.3,395,286.4,395.2,286.7,395.3z M263.2,483.6c0.1,0.7,1.4,0.7,0.6,1.6c-0.2,0.2,0,0.4,0.2,0.4c0.2,0,0.4,0,0.6-0.1
				c0.2-0.2,0.6-0.4,0.4-0.8C264.5,484.2,264.2,483.5,263.2,483.6z M225.5,488.9c-0.4-0.6-1.1-0.5-1.7-0.8c-0.2-0.1-0.7,0-0.8,0.4
				c-0.1,0.2-0.1,0.4,0,0.6c0.2,0.3,0.5,0.2,0.7,0.1C224.3,488.7,224.9,489.5,225.5,488.9z M327.4,531c0.4-0.2,0.9-0.2,0.9-0.9
				c0-0.5-0.3-0.7-0.8-0.8c-0.6-0.1-0.8,0.4-0.9,0.9C326.5,530.8,326.9,531,327.4,531z M300,294.3c0-0.4-0.3-0.5-0.7-0.4
				c-0.5,0.1-1,0.2-0.9,0.8c0.1,0.5,0.7,0.6,1.1,0.8C299.7,295.1,299.8,294.7,300,294.3z M308.1,286.9c-0.6,0.2-1,0.6-1,1.2
				c0,0.4,0.3,0.5,0.7,0.5c0.6,0,1-0.3,1-1C308.8,287.3,308.6,287,308.1,286.9z M275.1,283c0.9,0.5,1.5,0.7,2-0.1
				c0.2-0.3,0.5-0.7,0-1C276.1,281.5,275.9,282.7,275.1,283z M277.9,247.5c0.6,0,0.7-0.4,0.8-0.7c0.1-0.6-0.4-0.8-0.9-0.9
				c-0.4,0-0.9-0.1-0.9,0.4C276.9,246.9,277.5,247.2,277.9,247.5z M227.5,249.9c-0.1-0.4-0.2-0.9-0.8-0.8c-0.5,0.1-0.8,0.6-0.9,1
				c-0.1,0.6,0.5,0.5,0.9,0.5C227.2,250.7,227.6,250.5,227.5,249.9z M219.4,356.1c0.1-0.5-0.2-1-0.3-1.2c-0.9-1.4-1.1-0.1-1.1,0.4
				C218,356.3,218.8,356.1,219.4,356.1z M227.6,534.2c-0.8-0.3-1.5-0.8-2.1,0.1c-0.3,0.4,0.3,0.5,0.5,0.6
				C226.9,535.6,227.1,534.7,227.6,534.2z M231.6,435.7c1,0.2,1.3,1.2,2.3,1.2C233.8,435.5,233.1,435.3,231.6,435.7z M352.9,304.9
				c0.4-0.1,1,0.1,1-0.5c0-0.6-0.6-0.4-1-0.4c-0.4,0-0.9,0.1-0.9,0.5C351.9,305.2,352.6,304.8,352.9,304.9z M339.8,557.8
				c0.4,0.4,0.7,0.3,0.9,0.2c0.6-0.3,0.9-0.8,1.3-1.3c0,0-0.1-0.2-0.2-0.2c-0.8-0.3-0.9,0.6-1.4,0.8
				C340.2,557.4,340,557.6,339.8,557.8z M250.2,439.2c-0.3-0.6-1.1-0.7-1.1-1.3c0-0.3-0.3-0.4-0.6-0.3c-0.4,0.1-0.3,0.4-0.3,0.6
				C248.2,439.9,249.4,438.9,250.2,439.2z"/>
			<path d="M301,225.7c0.5-1.6,1.5-2,2.9-1.8c1.3,0.2,2.4-0.5,3.4-1.1c0.7-0.5,0.5-1.2,0.4-1.7c-0.1-0.7-0.7-0.6-1.3-0.5
				c-0.5,0.2-1,0-1.4-0.2c-0.9-0.5-1.7-0.2-2.4,0.3c-0.4,0.3-0.8,0.8-1.4,0.3c-0.6-0.6,0.1-0.8,0.4-1.1c0.2-0.3,0.4-0.6,0.1-0.8
				c-0.9-1,0-1.5,0.6-1.8c1.7-0.7,2.9-1.5,2.4-3.6c-0.1-0.6,0.2-0.7,0.8-0.5c1,0.5,1.3,1.2,0.7,2.1c-0.3,0.5-0.3,0.8-0.1,1.2
				c0.3,0.5,0.7,0.3,1.1,0.2c0.5-0.1,1.1-0.2,1.6-0.1c1.9,0.6,3.4,0.3,4.4-1.7c0.6,1.4-0.2,3.1-1.6,3.4c-2.3,0.5-3.2,1.8-3.3,4.1
				c0,2.5-0.3,2.5-2.7,2.6C304.1,225.1,302.7,226.2,301,225.7z"/>
			<path d="M268,431.4c-0.8-0.5-1.5-2.8-1-3.5c0.2-0.3,0.6-0.4,0.7,0.1C267.9,429.1,268.7,430.3,268,431.4
				C267.9,431.5,268,431.4,268,431.4z"/>
			<path d="M284.6,434c0.1,0.4,0,0.5-0.2,0.6c-0.3,0.1-0.6,0-0.7-0.2c-0.2-0.9-0.3-1.8-0.3-2.6c0-0.1,0.3-0.3,0.5-0.4
				c0.2-0.1,0.5,0.1,0.4,0.3C283.9,432.6,284.6,433.3,284.6,434z"/>
			<path d="M280,407.9c-0.6-0.1-0.6-0.6-0.6-1.1c0-0.3,0.1-0.8,0.4-0.7c0.6,0.1,0.9,0.6,0.7,1.2C280.5,407.6,280.6,408,280,407.9z"
				/>
			<path d="M283.7,408.3c0.6-0.1,0.6,0.3,0.6,0.7c0,0.4,0.1,1.1-0.5,1.1c-0.7,0.1-0.7-0.6-0.8-1
				C282.8,408.5,283.4,408.5,283.7,408.3z"/>
			<path d="M257.4,249.8c-1.8-0.9-2.1-2.9-3.9-3.5C255.2,246.9,256.9,247.6,257.4,249.8z"/>
			<path d="M219.7,376.5c-0.4,1.7-0.9,3.1-0.9,4.6c0,0.3-0.4,0.5-0.8,0.4c-0.4-0.1-0.2-0.4-0.2-0.7c0.2-1.4,1.1-2.6,1-4.1
				c0-0.3,0.3-0.4,0.6-0.4C219.6,376.3,219.7,376.5,219.7,376.5z"/>
		</g>
		<g>
			<rect x="402.2" y="-0.2" fill="none" width="100" height="800"/>
			<path d="M486.9,557.9c9.3,2,16,9,16,21.4c0,15.7-11.1,23.2-25.3,23.2c-13.6,0-25.8-7.7-25.8-23.7c0-13.2,7.8-19.6,16.1-20.8v10.7
				c-3.8,1-7.6,3.7-7.6,10.4c0,8.9,8,12.3,17,12.3c8.4,0,17.2-3,17.2-12.6c0-7-4.7-9.2-7.6-10.2V557.9z"/>
			<path d="M483.5,515.8c11.3,0,19.6,6.7,19.6,18.6c0,11.6-8.2,18.3-19.4,18.3c-11.5,0-19.6-7-19.6-18.8
				C464.1,522.9,471.8,515.8,483.5,515.8z M483.6,542.2c7.2,0,11.4-3.1,11.4-8.1c0-5.1-4.3-7.9-11.4-7.9c-7.8,0-11.5,2.9-11.5,8
				C472.1,539,475.7,542.2,483.6,542.2z"/>
			<path d="M474.5,508.7c-3.2,0-6.4,0-9.6,0.1v-9.9c0.9-0.1,3-0.3,4.4-0.4c-2.8-1.9-5.3-4.9-5.3-10.4c0-5.4,2.8-8.3,5.7-9.6
				c-3-2.2-5.7-5.4-5.7-11.5c0-6.5,4-11.8,13.7-11.8h24.5v10.1H479c-3.4,0-6.7,1.2-6.7,5.4c0,4.4,2.8,6.1,8.5,6.1h21.3V487h-22.8
				c-3.9,0-7,1-7,5.4c0,4.2,2.6,6.2,9,6.2h20.8v10.2H474.5z"/>
			<path d="M452.5,427.3v-19.7c0-14.5,9.5-23.9,24.2-23.9c14.5,0,25.4,9.2,25.4,24.4v19.2H452.5z M493.5,416.6v-8
				c0-9.5-7.1-13.7-16.7-13.7c-8.1,0-15.6,3.9-15.6,13.7v8.1H493.5z"/>
			<path d="M483.5,341.3c11.3,0,19.6,6.8,19.6,18.6c0,11.6-8.2,18.3-19.4,18.3c-11.5,0-19.6-7-19.6-18.8
				C464.1,348.4,471.8,341.3,483.5,341.3z M483.6,367.7c7.2,0,11.4-3.1,11.4-8.1c0-5.1-4.3-7.9-11.4-7.9c-7.8,0-11.5,2.9-11.5,8
				C472.1,364.6,475.7,367.7,483.6,367.7z"/>
			<path d="M464.9,338.1v-5.7h-10.1V322h10.1v-7.3h7.8v7.3h18.4c2.8,0,3.9-0.9,3.9-3.9c0-0.6,0-1.6-0.1-2.3h7.1
				c0.7,2,0.7,4.9,0.7,6.9c0,7.3-3.9,9.7-10.4,9.7h-19.6v5.7H464.9z"/>
			<path d="M464.9,315.1v-5.7h-10.1V299h10.1v-7.3h7.8v7.3h18.4c2.8,0,3.9-0.9,3.9-3.9c0-0.6,0-1.6-0.1-2.3h7.1
				c0.7,2,0.7,4.9,0.7,6.9c0,7.3-3.9,9.7-10.4,9.7h-19.6v5.7H464.9z"/>
			<path d="M491,278c3-0.8,4.6-3.2,4.6-7.1c0-3.8-1.4-5.2-3.6-5.2c-2.4,0-3.3,1.6-4.6,6.9c-3,12.1-6.8,14.1-12,14.1
				c-5.5,0-11.3-3.9-11.3-15.1c0-11.3,6.2-15.1,11.2-15.5v9.8c-1.4,0.3-4,1.2-4,6.1c0,3.4,1.5,4.5,3.2,4.5c1.9,0,2.7-1.2,4.2-7.2
				c2.9-12.4,7.2-14.2,12.6-14.2c6.2,0,11.8,4.7,11.8,16.1c0,11.3-5.5,16-12.1,16.8V278z"/>
			<path d="M480.6,238.5c-3.7-2.7-9.5-7.7-15.7-12.8v-11.8l14.1,13l23.2-14.2v11.7l-16.6,9.4l4.6,4.8h12v10.3h-52.6v-10.3H480.6z"/>
			<path d="M449.6,208.6v-10.3h9.2v10.3H449.6z M464.9,208.6v-10.3h37.3v10.3H464.9z"/>
		</g>
		<g>
			<rect x="500.4" y="99.8" fill="none" width="200" height="600"/>
			<path d="M665.2,502.7c8.3-2.7,13.7-7.7,13.7-19.7c0-20.1-24.4-22.3-40.2-23.1c8.2,6,11.9,17.3,11.9,29.7
				c0,29.4-20.1,46.1-45.7,46.1c-27.9,0-49.1-19.4-49.1-52.3c0-40.2,31-53.9,66.2-53.9c40,0,80.9,10.3,80.9,54.9
				c0,33.1-20.2,46.6-37.7,49.2V502.7z M603.4,504.4c14.5,0,23.3-8.4,23.3-21.8c0-13.7-7-21.1-22.7-21.1c-9.5,0-24.2,3.9-24.2,21.6
				C579.9,497.4,590.1,504.4,603.4,504.4z"/>
			<path d="M631.3,348h26.9v60.1h-26.9V348z"/>
			<path d="M700.3,305.3H594.1c3.1,6.6,5.6,18.6,6.2,25.7h-23.1c-2.5-13.5-10.1-27.1-19.1-35.2v-21.8h142.3V305.3z"/>
		</g>
	</g>
</g>
<g id="text">
</g>
<g id="guides" display="none">
</g>
<g id="scratch">
</g>
</svg>
