<?xml version="1.0" encoding="utf-8"?>
<!-- Generator: Adobe Illustrator 26.0.2, SVG Export Plug-In . SVG Version: 6.00 Build 0)  -->
<svg version="1.2" baseProfile="tiny" xmlns="http://www.w3.org/2000/svg" xmlns:xlink="http://www.w3.org/1999/xlink" x="0px"
	 y="0px" viewBox="0 0 800 800" overflow="visible" xml:space="preserve">
<g id="fill">
</g>
<g id="bg" display="none">
	<rect x="-6100" y="-100" display="inline" fill="#EAAA00" width="8000" height="1000"/>
</g>
<g id="scans" display="none">
</g>
<g id="counters_00000155831629897369998050000010902328751353074356_">
	<g>
		<path d="M242.1,361.7c1.5,3.1-3.5,10,1.8,15.5c0.9,0.9-0.6,1.9-0.9,2.8c-1.8,5-0.2,8.5,4.3,11.4c11.7,7.6,16.2,24.1,8.1,35.1
			c-2,2.7-3.7,5.9-6.7,7.9c-3.9,2.6-6,4.9-4.9,10.9c0.9,5,1.3,11.4-0.6,16.7c-1.3,3.8,0,7.4-0.1,10.9c-0.2,6.4-1.9,11.8-5.4,16.8
			c-0.3,0.5-1.1,0.8,0,0.9c6.8,1,2.3,3.8,1.8,6.9c-0.8,4.8,0.6,10,1.1,15c0.7,7.7,2.8,15.7,1.9,23.2c-1.5,11.9,1.3,23.2,1.6,34.8
			c0.1,5.1-2.3,10.6-7.6,13.6c-3.4,1.9-13.3-3.3-12-6.6c1.5-3.9-1.2-6.2-1.5-9.3c-0.8-10.2,1-20.3,0.8-30.5
			c-0.1-5.6,0.5-11.2-0.6-16.7c-0.7-3.8,1.6-7.1,1.6-11.1c0-6.1,1.9-12.1,0-18.3c-0.4-1.1,0.8-2.8,1.4-4.2c0.3-0.6,1.6-1.3,1.5-1.4
			c-7.1-10.5-3.8-22.7-5.4-34.1c-0.2-1.5-0.2-3,0.9-4.3c1.9-2.3,1.1-5.5-0.9-8c-5.2-6.3-12.8-10.2-15.3-19.4
			c-2.6-9.8,2.8-25.2,12.5-28.4c3.5-1.2,4-4,4.7-7.1c1.5-6.3-0.1-12.6-0.4-18.8c-0.2-4.4,0-9.1,0.4-13.1c0.4-3.8-0.9-4-2.9-4.4
			c-5.5-1.1-11-3-16.7-1.5c-2.9,0.8-5.1-0.9-7.5-1.6c-4.6-1.4-9.2-2.3-14.1-2.4c-3.8-0.1-7-1.4-3.7-5.8c1.6-2.2-2.1-4.2,0.2-5.8
			c2.6-1.8,4.3-7.5,8.9-1.1c4.1,5.6,11.5,5.4,18,6.1c2.8,0.3,5.6,0.7,8.3,1.6c8.6,2.8,11.5,0.4,11.7-8.7c0.2-10.1,1-20.2,1.3-30.3
			c0.3-8.7,0-17.4-3.3-25.7c-0.8-2.1-0.6-4.6-0.7-6.8c-0.2-3.4-1.7-7.7,2.3-10.1c3.7-2.2,8.1-1.3,11.2,0.8c3.7,2.5,4,8,2.6,11.3
			c-5.1,11.7-3.5,24-4.3,36.1c-0.5,7.2,0.1,14.5,3.1,21.5c0.8,1.7,0.2,4.4-0.4,6.4c-1.3,4.3,1.9,5.9,4.2,8c2.4,2.2,4.5,1.3,6.7-1
			c1.6-1.7,4.2-0.6,6.3-1.1c5.8-1.5,11.6-2.5,16.9-6.2c6.7-4.7,10.9-1.9,11.6,6.1c0.4,4.9-2.5,5.1-6,5.6
			c-10.2,1.5-20.2,3.6-30.4,4.7C240.2,349.3,240.6,353.8,242.1,361.7z M229.9,559.3c0.8,1.9,0.1,4.9,2.3,5.1c2.9,0.2,2.5-3,2.9-5
			c0.5-2.4-0.9-4.1-3.1-4C229.9,555.5,230.3,557.9,229.9,559.3z M232.6,533.7c2.8-2.2,1.7-5,2.2-7.4c0.4-1.9-0.9-2.7-2.7-2.6
			c-2.8,0.1-1.8,1.4-1.1,3C232,528.7,230.6,531.2,232.6,533.7z"/>
	</g>
</g>
<g id="text">
	<g>
		<g>
			<path d="M370.1,153.5h24.2v91.9h55.6l-2.8,19.8h-77V153.5z"/>
			<path d="M549.4,223.3c0-19.1,0.3-40.4,0.8-53h-0.8c-5.2,22.8-16.4,60-27.1,94.9h-20.6c-8.1-30.6-19.7-72.9-24.6-95.2h-0.8
				c1,13.1,1.4,36.1,1.4,55.2v40h-22V153.5h35.9c8.7,29.2,18.5,65.8,21.8,82.4h0.2c2.7-14.7,15-53.8,24.3-82.4h34.6v111.7h-23.3
				V223.3z"/>
			<path d="M688.4,265.2h-17.7c-0.9-3.4-1.5-7.3-1.8-11c-6.2,8.3-17.1,12.9-32.6,12.9c-32.4,0-50.5-24.5-50.5-56.3
				c0-33.6,19.5-58.9,54.7-58.9c28.7,0,45.7,16.2,48.4,35.3h-24.2c-2.3-7.5-8.2-16.3-24.5-16.3c-22.9,0-29.5,19.2-29.5,38.9
				c0,19.2,7.5,38.1,29.6,38.1c20.6,0,24.5-14.3,24.5-24.3v-1h-24.5v-19.8h48.2V265.2z"/>
			<path d="M479.9,459.6v-1.5c0-18.6,8.3-33.7,31.4-50.5c15-11,19.6-14.8,19.6-24.1c0-9.2-4.5-14.4-13.5-14.4
				c-10.4,0-14.2,6.4-15.7,15.7h-22.4c1.5-18.4,13.6-33.7,38.1-33.7c27.4,0,36.8,16.3,36.8,32.3c0,15.5-6.7,23-26.3,36.8
				c-13.1,9.2-18.4,15.3-20.2,20.1h50.5l-2.9,19.3H479.9z"/>
			<path d="M605.4,407.8V428h-45.1v-20.2H605.4z"/>
			<path d="M668.1,379c-1.3-5.3-4.3-10.3-13.6-10.3c-14.3,0-18,13.4-18.6,27.7c4.5-5.5,12-9.9,24.1-9.9c19.5,0,33.4,14.4,33.4,35.4
				c0,22.8-14.6,39.7-39.1,39.7c-30.9,0-41.2-23.8-41.2-53.9c0-27.7,9.8-56.6,42.5-56.6c23.2,0,34,14.5,35,27.9H668.1z M670.2,423.8
				c0-10.1-3.8-19.2-16.6-19.2c-10.4,0-16.4,6.1-16.4,18.4c0,8.6,4.1,20.1,16.5,20.1C664.9,443.1,670.2,434.6,670.2,423.8z"/>
			<path d="M352.9,542.3h48.8c27,0,37.2,14.1,37.2,28.6c0,12.6-6.7,20.8-14.2,24.2c7.5,2.8,17.4,10.8,17.4,25.5
				c0,19.1-15,33.4-38.8,33.4h-50.4V542.3z M399,586.4c11.5,0,16.2-5.2,16.2-13c0-8.2-6.2-12.4-15.5-12.4h-23v25.4H399z
				 M376.6,635.4h21.8c13.1,0,19-5.5,19-15.6c0-9-5.8-14.7-19.1-14.7h-21.7V635.4z"/>
			<path d="M467.2,654v-79.7c-4.9,2.3-13.9,4.2-19.3,4.6v-17.3c10.1-1.9,20.3-7.6,26.4-14.3h16.4V654H467.2z"/>
			<path d="M585.7,600c0,29.3-9.3,55.9-41,55.9c-31.3,0-40.9-25.7-40.9-55.2c0-29.2,10.7-55.2,41.4-55.2
				C575,545.5,585.7,569.8,585.7,600z M527.7,600.4c0,19.6,2.2,37,17.3,37c14.7,0,16.7-16.3,16.7-37.3c0-20.7-2.5-36.2-16.4-36.2
				C531.7,563.9,527.7,577.4,527.7,600.4z"/>
			<path d="M652.1,562.6v35.7h35v19.4h-35V654h-19.5v-36.3h-35.4v-19.4h35.4v-35.7H652.1z"/>
		</g>
	</g>
</g>
<g id="guides" display="none">
</g>
<g id="scratch" display="none">
</g>
</svg>
