<?xml version="1.0" encoding="utf-8"?>
<!-- Generator: Adobe Illustrator 26.0.2, SVG Export Plug-In . SVG Version: 6.00 Build 0)  -->
<svg version="1.2" baseProfile="tiny" xmlns="http://www.w3.org/2000/svg" xmlns:xlink="http://www.w3.org/1999/xlink" x="0px"
	 y="0px" viewBox="0 0 800 800" overflow="visible" xml:space="preserve">
<g id="fill">
</g>
<g id="bg" display="none">
	<rect x="-100" y="-100" display="inline" fill="#EAAA00" width="7000" height="1000"/>
</g>
<g id="counters_00000155831629897369998050000010902328751353074356_">
	<g id="su_628">
		<path d="M622.8,498.6c0.2-2.2,4.4-2,6.6-2.7c5-1.4,7.7-4.8,7.7-9.3c0-4.5-4.6-5-8-5.5c-7.7-1.1-13.9-5.2-20-9.6
			c-1.2-0.9-3-1.6-2.7-3.5c1.5-9.7-0.6-19.2-1.1-28.7c-0.1-3-1.9-7.1-0.5-8.8c3.7-4.4,1.5-5.6-3.2-6.9c7.3,1.2,7.5-3.4,8.9-7.8
			c1.1-3.5-4.5-2.3-2.7-4.6c5.3-7.1,0.3-9.8-5.9-12.4c3-1.3,6.7-0.8,6.1-4.7c-0.8-5.2-0.8-10.8-3.8-15.1c-3.3-4.8-3.3-10.5-5.8-15.6
			c-2.4-5-7.8-11.4-2.7-18.4c0.3-0.4-0.9-1.9-1.3-2.9c-0.6-1.5-0.7-3.3,0.6-4.3c6.7-5.5,5.3-15.8,14.4-21.1c5.1-2.9,7.2-4,11.9-1.3
			c5.9,3.4,12.4,1.9,17.9-0.7c1.1-0.5,6.4-5.8,3.8-12.2c-2.1-5.2-0.3-11.6-5.3-16.8c-4.6-4.8,1.9-19.9,9.3-23.5
			c6.1-2.9,10.5-7.5,13.6-13.5c0.8-1.6,1.2-3.5-0.3-4.9c-1.2-1.2-2.8-1.6-4.3-0.9c-3.6,1.8-7.5,3.2-10.5,6.4c1.7,0,2.8,0.1,4,0
			c1.7-0.2,3.6,0.3,3.8,1.8c0.3,2.4-2.2,2.2-3.7,2.7c-1.7,0.5-3.6,1-5-0.6c-1.3-1.5-1.9-1.1-3,0.2c-6.5,7.8-16.9,9.9-23.8,17.8
			c-8.8,10.1-20.8,10.9-33.4,5.7c-4.5-1.9-6.3-3.6-6-8.9c0.3-4.6,1-9.3,0.2-14.3c-0.8-5-6.1-6.2-5.7-10.8c0.7-6.9-5.6-9.7-8.5-14.5
			c5.6-2.3,9.1-16.3,5.3-21.3c8.7-1.7,9.1-2.7,3.5-9.8c-0.7-0.8-1.3-1.9-1.4-2.9c-0.8-7.2-9-9.5-10.7-16.2c-0.1-0.6-1.9-1-3-1.1
			c-4-0.5-7.9-1.1-11.9-1.1c-3.2,0-7.6-0.5-9.2,2.5c-3.9,7.3-11.9,13.4-8.5,23.4c0.3,0.9,0.6,1.9,0,3.1c-2.1,4.3-1.3,7.6,3.8,9
			c1.3,0.3,2.9,0.5,3,2.1c0.1,1.8-1.4,3-2.9,3.2c-7.4,1.3-13.1,4.9-18.2,10.5c-2.8,3.1-5.5,5.9-6.2,9.8c-1.2,6.2-3.9,12.3-1.5,19
			c1.8,5.1-0.6,11.2,1,15.9c2.6,8,2.2,18.1,12.7,22.3c-6.2-0.1-8.4,2.3-10.4,7.6c-1.8,4.8-3.5,8.6-0.9,13.5c1.1,2,0.7,4.7,0.4,7.2
			c-0.9,7,0.9,13.1,7.6,16.6c3.8,1.9,4.1,5.5,3.3,8.5c-0.9,3.4-1.7,6.1,0.8,9.1c0.9,1,0,2.6-0.7,3.7c-4.4,6.7-2.7,14.5-4.2,21.8
			c-0.3,1.6,0.2,2.7,1.9,2.8c1.5,0.1,2.9-0.6,2.4-2.2c-1.8-5.5,1.8-10.5,1.4-16c-0.3-3.7,3.7-6.9,7.5-6.9c3,0,5.9,3.7,4.6,6.5
			c-2.4,5,0.7,9.5,0.1,14.4c-0.6,5.5-0.2,10.2-4.7,14.4c-1.8,1.7-3.8,4.8-3.4,6.9c0.9,5.4-3.2,7.8-5.5,11.2
			c-4.7,6.9-11.1,13.2-14.2,20.3c-3.4,7.7-8,13.9-13.4,19.3c-12.7,12.5-7.3,18.3,3.1,25.2c8.5,5.7,16.4,12.8,26.5,16.4
			c4.8,1.7,9.3,1.3,11.2-1.8c2.1-3.4,1.3-8.4-4.2-10.4c-1.6-0.6-4.6-1.7-4.6-1.8c-0.3-4.7-2.5-8-6.8-9.9c-0.1,0-0.1-0.9,0.2-1.2
			c3.3-4.5,3.1-10.1,4.9-15.1c1.4-4,3.7-8.1,6.7-11c7.4-7.2,15.1-14.2,23.4-20.3c5.6-4.2,7.1-11.1,12.2-15.4c4.5-3.7,8.5-2.8,10,2.7
			c2.5,9.1,2,18.8,5.5,27.7c2.8,7.2,2.1,14.8,3.3,22.1c1.3,8,0.3,15.3-1.5,22.6c-2.1,8.6-0.3,12,8.3,14c1.3,0.3,3.2,0.1,3.5,1.7
			C604.2,501.3,613.5,500,622.8,498.6z M558.8,251.3c-3.5,2.6-1,7.7,0,7.9c7,1.2,4,7.3,3.5,9.5c-1.4,6.7-4.4,13.1-7.4,19.3
			c-1.3,2.8-4,2.9-6.8,1c-3.3-2.2-5-4.9-3.2-8.8c0.5-1.1,1.8-1.9,2.7-2.9c5.1-4.9,4-9.1-2.9-11.2c-1-0.3-2-0.8-3.1-1.2
			c-0.2-0.1-0.2-0.3-0.6-1c5.2,0.7,8.2,0.3,6.4-6.5c-1.5-5.5,3.5-12.5,7.7-13c2.3-0.3,4.4,0.2,5.6,2.5
			C561.8,249.3,560.3,250.1,558.8,251.3z M550.7,239.2c0.3-2.7,2.8-3.1,5.1-3.2c2,0,4.5,0.1,4.6,2.6c0,3.4-3.3,2.6-5,3.4
			C553,241.7,550.3,242.2,550.7,239.2z M541.6,219.9c0.2-1.3,1.5-1.4,2.5-1.6c5.7-1.5,11.2-1.3,16.6,2.4c-5.7,5.5-11.4,3.4-17.1,1.5
			C542.6,221.7,541.4,221.2,541.6,219.9z M535.1,233.6c0.7-2.8,3.2-3.3,5.5-3.8c1.4-0.3,3.2,0.1,3,1.6c-0.6,3.8-5,1.8-6.4,4
			C535.4,235.6,534.8,234.9,535.1,233.6z M532.1,307.1c0-4.1,3.5-2,5.3-2.2c3.5-0.4,4.7,1.6,3.3,5.1c0.5,3.3-0.2,6.8-4.3,6
			C532.2,315.1,532.1,310.6,532.1,307.1z M532.9,343.7c-1.3-0.5-3.7-0.8-2.9-2.5c0.5-1.2,0.8-3.6,3.2-3.7c5.6-0.2,11.3-0.5,17.6,3
			C544.1,342.8,538.9,345.8,532.9,343.7z M553.1,302.3c-2.4,0.2-4-0.9-4.1-3.2c0-2.9,2.4-3.4,4.6-3.6c1.9-0.2,3.6,0.5,3.7,2.7
			C557.4,301,555.6,302.1,553.1,302.3z M576.8,304.2c-3.3,1.7-6.8,1.6-9.4,1.4c-2.6,0.2-4.1,0.4-5.7,0.4c-1.4,0-2.8-0.2-2.9-2
			c-0.1-1.5,1.4-1.3,2.1-2c3.7-3.5,9.2-2.5,13.2-5.3c1-0.7,3.6-0.1,3,0.9C575.7,300,580.3,302.4,576.8,304.2z M603.6,298.2
			c1.5,0.4,3.1,1,3.4,2.7c0.3,1.7-1.8,1.5-2.6,2.4c-3,2.9-6.7,2.2-11.1,2.5C596.5,301.8,597.4,296.4,603.6,298.2z"/>
		<path d="M205.4,236.3c-5.6-2-4-4.4-1.5-6.9c6.8-6.6,13.4-13.5,23.9-13.7c1,0,1.9-0.9,3.4-1.7c-2.6-1.5-4.8-2.8-7-3.9
			c-2.4-1.3-3.4-4.1-1.8-5.5c3.4-2.9,2.6-5.6,0.4-8.1c-3.3-3.7,0.6-6.6,1.3-9.3c1.6-5.7,6.1-12.4,10.9-13.5c7.7-1.7,16.4-3.2,24,4.7
			c5.6,5.9,6.5,14,12.7,19.4c2.5,2.1-1.3,6.7-3.2,9.5c-3.5,5.1-4.4,11.1-6.4,16.8c-2.6,7.3,1.9,11.6,6,16.7
			c3.4,4.3,3.9,10.1,4.3,15.5c0.3,3.1-3.3,1-4.6,2.7c5.3,0.9,4.8,5.1,3.8,8.1c-1.4,3.8,0,5.5,3,6.7c5.1,2,10.3,3.8,15.5,5.4
			c2.6,0.8,5.3,0.5,7.7-0.9c6.8-4,13.8-7.3,18.7-14.3c3.7-5.3,11.7-5.6,16.9-9.9c3.1-2.5,6.7-4.3,8.9-7.7c1.9-2.9,5.2-3.3,8.1-3.9
			c2.9-0.6,4.3,1.2,3.4,3.9c-1.5,4.2-2.4,8.5-7.5,10.9c-7.5,3.4-12.5,10.2-17.5,16.5c-3,3.8-1.9,7.9,1.8,11.3
			c4.9,4.5,5.6,24,1.1,28.4c-6.1,6-13.4,3.6-19.9,1.6c-8-2.4-15.1,0.2-18.1,8.6c-2.2,6.1-5.8,10.9-12,14c2.7,1.9,4.7,3.5,3.7,7.8
			c-1.3,5.6,1.8,11.1,3.1,16.6c3.1,12.4,7.1,24.3,7.6,37.6c0.5,12.7-1,24.4-4.2,36.4c-1,3.8,0.6,8.2,0.8,12.4
			c0.3,6.1-0.2,12.3,0.9,18.3c1,5.6,7,7.3,11.1,10.3c2.6,1.9,6.1,2.6,9.3,3.4c4.9,1.3,7,5.2,7.3,9.3c0.3,3.9-4.3,4.5-7.3,5.6
			c-4.2,1.6-8.7,1.2-13.2,1.2c-5.9,0.1-11.6,0.1-17.3,3.1c-4.5,2.4-9.9,0.9-13.8-3.3c-3.7-3.9-4.2-8.4-1.9-12.9
			c2.2-4.4,3.3-8.5,2.1-13.5c-1-4.2,3.2-2.3,5.2-3.5c-3.1-0.9-4.8-0.9-4.9-6c-0.1-7.5,1.5-15.9-3-23.2c-2.4-3.9,4-2.1,3.7-5.5
			c-7.9,2.8-5.7-2.5-6.1-7c-0.5-5.8-0.8-11.7-3.2-17.1c-1.6-3.6-5.3-2.2-6.7-1c-3,2.6-7.1,4.8-7.7,9.5c-0.5,3.4-2.6,5.5-5.4,7.1
			c-9.7,5.6-19.1,12.2-26.3,20.6c-5.1,6-10.2,13.7-8.9,22.5c0.9,6,5,11.4,8.7,16.3c1.1,1.4,2.7,2.8,3.5,4.4c2.7,5.9,0.1,9.7-6.3,9.6
			c-8.5-0.1-14.4-5.2-19.5-10.9c-3.9-4.4-7.6-8.6-12.8-11.7c-10.6-6.4-9.9-12-2.4-21.5c5.3-6.8,11.9-12.9,15.5-21.6
			c2.2-5.3,7-10.5,11.3-15c4.4-4.6,7.7-9,9.5-15.5c1.5-5.7,7.5-10,8.5-16.7c0.3-2.1,4.6-3.9-0.1-6.2c-0.6-0.3,0.2-4.1,0.9-6.2
			c1.2-3.9-0.1-7-2.3-9.9c-2.1-2.8-8.1-1.8-8.6,1.6c-0.8,6.1-5.1,11.6-3.3,18.2c0.7,2.6-1.5,2.2-2.9,2.3c-1.4,0.1-2.7-0.4-2-2.3
			c2.1-5.9,1.5-12.3,4-18.4c2.3-5.5,1.6-12.2,2.6-18.4c0.6-3.8-1.5-7.3-6-8.3c-3.4-0.7-4.3-3-4.5-6.3c-0.6-7.8,0.5-15.6-1.3-23.3
			c-0.9-4,1.1-8.6,3.2-10.3c6.5-5,3.2-10.5,0.8-14.6c-1.9-3.2-3.1-6.5-3.1-9.7c-0.1-10.1-1.9-20.1-0.7-30.3
			C199.5,237.5,200.5,235.4,205.4,236.3z M248.9,243c-2.1,0.1-3.2,1.2-4.5,1.9c-5.1,2.6-2,8.3-4.8,11.9c-1.9,2.4-1.3,5.2,1.7,7.4
			c3.4,2.5,3.3,5.8-0.2,8.2c-2.2,1.5-3,3.8-4.1,5.8c-1.4,2.6,0.2,5.1,1.8,7.3c1,1.5,2.6,1.4,4.2,1.2c3-0.3,1.8-3.7,3.7-5
			c9.7-6.3,8.5-15.1,5.2-24.1c-1.4-3.6-2.7-6.9-1-10.7C251.9,244.5,251.1,243,248.9,243z M274.8,298c-2.1-1.6-4.3-0.7-5.5-2.2
			c-2.9-3.6-5.6-2.3-8.2,0.4c-1.7,1.8-3.8,2.9-6.2,3.5c-2.4,0.7-2.7,2.7-0.4,3.5c3.6,1.3,7.6,2.9,11.2-0.2
			C268.2,300.9,271.1,299.5,274.8,298z M226.2,342.3c2.6-1.4,7.9,1.2,8.3-3.7c0.3-4.3-4-4.3-7.4-4.5c-3.4-0.2-6.6,0.8-6.9,4.4
			C219.9,342.2,223.4,341.9,226.2,342.3z M246.2,222.8c3,0.2,6.7,0.3,7.2-2.4c0.6-3-3.1-3.7-5.5-4.4c-3.7-1.1-7.4-0.5-10.9,1.2
			c-0.2,0.1-0.2,1.3,0,1.7C239.3,222.3,243,222.4,246.2,222.8z M227,302.6c-0.9,2.2-5.6-1.2-5.3,3.2c0.2,3.2,0,7.7,5.3,7.5
			c4.3-0.2,3.8-5.2,6.6-7.1C231.9,304.3,230.3,302.6,227,302.6z M245.9,294.9c0.7-2.8-0.3-4.7-3.6-4.3c-1.8,0.2-3.7,0.3-3.3,3.5
			c0.4,3.1,1.1,5.2,4.5,5.2C246.2,299.2,246.6,297.3,245.9,294.9z M291.6,298.1c-2.1,0.3-5,0.4-5,3.1c0,2.5,2.3,3.6,4.8,3.2
			c2-0.4,4.7-0.6,4.6-3.6C295.9,297.9,293.5,298.2,291.6,298.1z M248.5,239.5c2,0,3.5-1.1,3.8-3.3c0.3-2.2-1.4-2.5-2.9-2.3
			c-1.8,0.3-4.3,0.3-4.6,2.7C244.4,238.9,246.5,239.2,248.5,239.5z M239.6,228.2c-3.9-3.5-7.1-1.5-10.2-0.4
			c-0.9,0.3-1.3,1.5-0.5,2.1c2.6,1.9,5.1-0.1,7.6-0.4C237.2,229.5,237.7,229.1,239.6,228.2z"/>
	</g>
	<g>
		<rect x="100.5" y="499.9" fill="none" width="600" height="200"/>
		<path d="M218.9,550c-1.7-7-5.8-13.7-18.2-13.7c-19,0-24,17.9-24.8,37c6-7.3,16.1-13.2,32.2-13.2c26,0,44.5,19.2,44.5,47.1
			c0,30.3-19.4,52.9-52.2,52.9c-41.2,0-55-31.8-55-71.9c0-37,13.1-75.4,56.7-75.4c30.9,0,45.3,19.3,46.7,37.2H218.9z M221.7,609.8
			c0-13.5-5-25.6-22.1-25.6c-13.8,0-21.9,8.1-21.9,24.5c0,11.5,5.5,26.8,22,26.8C214.8,635.5,221.7,624.2,221.7,609.8z"/>
		<path d="M332.7,588.5v26.9h-60.1v-26.9H332.7z"/>
		<path d="M349,657.5v-2c0-24.7,11.1-44.9,41.9-67.3c20.1-14.7,26.1-19.7,26.1-32.1c0-12.3-6-19.2-17.9-19.2
			c-13.9,0-18.9,8.5-20.9,20.9h-29.8c2-24.5,18.1-45,50.7-45c36.5,0,49,21.7,49,43c0,20.7-8.9,30.7-35.1,49.1
			c-17.5,12.3-24.6,20.4-27,26.8h67.3l-3.8,25.8H349z"/>
		<path d="M527.1,588.5v26.9H467v-26.9H527.1z"/>
		<path d="M547.4,616.7c0-18.2,12.7-29.3,23.2-34c-10.9-6.8-17.6-15.3-17.6-29.7c0-24.1,17.7-40.1,49.6-40.1
			c29.2,0,48.5,15.2,48.5,39.7c0,16.4-8.4,24.4-18.1,28.5c10.2,3.8,23.2,15.8,23.2,34.6c0,29.3-23.4,44.5-55.8,44.5
			C571.4,660.1,547.4,644.8,547.4,616.7z M625.4,615.3c0-14.1-9.7-20.6-23.6-20.6c-15.5,0-23.4,8.4-23.4,20.4c0,12.6,9.5,21,23.9,21
			C615.7,636.1,625.4,629.8,625.4,615.3z M582.5,554c0,9.6,6.9,16.1,19.9,16.1c12.6,0,19.5-4.9,19.5-16c0-10.8-7.1-17.4-19.8-17.4
			C589.1,536.7,582.5,542.8,582.5,554z"/>
	</g>
</g>
<g id="text">
</g>
<g id="guides" display="none">
</g>
<g id="scratch">
</g>
</svg>
