<?xml version="1.0" encoding="utf-8"?>
<!-- Generator: Adobe Illustrator 26.0.2, SVG Export Plug-In . SVG Version: 6.00 Build 0)  -->
<svg version="1.2" baseProfile="tiny" xmlns="http://www.w3.org/2000/svg" xmlns:xlink="http://www.w3.org/1999/xlink" x="0px"
	 y="0px" viewBox="0 0 800 800" overflow="visible" xml:space="preserve">
<g id="fill">
</g>
<g id="bg" display="none">
</g>
<g id="counters_00000155831629897369998050000010902328751353074356_">
	<g id="su_x5F_ldr_x5F_blank">
		
			<rect id="_x31__x2F_2_x22__800x800_00000176745248013230485880000002082842372998299787_" x="-0.5" y="-0.1" fill="none" width="800" height="800"/>
		<g id="su_ldr_sm_00000119095210330123527330000001218990420089956736_">
			<path d="M295.8,513.8c-1.5,0.7-1.7-0.1-1.8-1.1c-0.2-1.2-0.4-2.4-0.7-3.6c-0.4-1.2-0.7-2.3,1.5-2.3c-1.3-0.4-1.4-1.2-1.3-2
				c0.1-1.3,0-2.7,0.5-4c0.4-1.1-0.7-2.3-0.4-3.5c0.3-0.9-1.1-2.2,0.6-2.8c0.3-0.1,0-0.2-0.1-0.3c-1.1-0.7-0.9-2.1-0.7-2.9
				c0.6-2.9-1.1-4.7-2.6-6.7c-0.7-0.9-1.3-1.7-1.5-2.9c0-0.1-0.1-0.3-0.2-0.4c-1-0.6-1.1-1.7-1.6-2.6c-1.4-2.4-2.9-4.6-4.2-7.1
				c-0.2-0.5-0.7-1-1.2-0.8c-0.6,0.1-1,0.6-1.1,1.3c-0.2,0.6-0.1,1.4-1,1.4c-0.1,0-0.2,0.2-0.2,0.3c0.6,2.9-0.9,5.5-1.6,8.1
				c0,0.1-0.1,0.1-0.1,0.1c-0.2,3.3-2.4,3.6-5,3.4c-0.1,0-0.3,0.1-0.5,0.2c1,0.5,1.8,0.1,2.6,0.1c1.7,0,2.2,0.6,1.5,2.2
				c-1,2.4-1.1,4.9-1.6,7.4c-0.6,2.9-0.6,5.9-2,8.6c-1.1,2.2-2.6,4.1-3.9,6.2c-0.4,0.6-1.2-0.3-1.6,0.6c1.4,0.1,1.2,0.7,0.9,1.8
				c-0.4,1.3,0.6,2.9-0.1,4.2c-1.2,2.1-0.7,5-3.1,6.5c0.5,1.7-1.4,2.1-1.8,3.2c-0.2,0.6-1.8,0.8-0.7,1.9c-0.1,0.1-0.3,0.3-0.4,0.4
				c-2.2,1.1-2.3,3.7-3.6,5.4c0,0.1,0,0.2,0,0.3c-0.1,1-1.8,1.1-1.6,1.2c1.2,0.7,0.3,1.2-0.1,1.7c-0.4,0.6,0.1,1.8-0.8,2.1
				c-0.9,0.3-0.2,1.6-1.2,1.6c0.2,1.8-1.1,3-1.7,4.5c-0.3,0.8-0.9,1.3-1.7,1.7c-1.7,0.8-3.2,1.8-4.6,3.1c-0.4,0.4-0.8,0.8-1.3,0.9
				c-3.3,0.6-3.6,3.6-4.7,5.8c-0.5,0.9-0.1,2.3-0.4,3.4c-0.3,1.1-0.7,2.1-1.4,3.1c-0.3,0.4-0.1,1.4-0.4,2.3
				c-0.5,1.1-1.1,2.2-1.6,3.4c-1.7,3.6-2.9,7.3-4.5,10.9c-1,2.1-2,4.2-2.5,6.4c-0.4,1.6-1.6,2.9-1.7,4.6c-0.1,1.4-1.3,1.3-2.6,1.2
				c1.8,0.4,1.4,1.4,1,2.5c-1.1,3.1-2.6,6-5.1,8.2c-0.5,0.4-0.2,0.7-0.2,1.2c0.2,2.3,2.4,3.4,2.6,5.7c0.1,1.3,0.6,2.7,1.4,3.7
				c1.3,1.6,0.6,3.6,1.8,5.2c0.8,0.9-0.9,0.3-1,1c2.8-0.2,2.3,2.9,3.8,4.2c0.2,0.1,0.3,0.7,0.6,1c0.7,0.8-0.3,0.6-0.6,1
				c2-0.5,2.4,1.4,3.5,2.2c2.1,1.4,4,3,5.9,4.6c1.8,1.5,3.8,3,5,5.4c1.3,2.6,1.5,5.2,1.6,7.9c0,0.3,0.2,0.6-0.1,0.7
				c-1.5,0.6-2.7,1.9-4.2,2.3c-2.4,0.6-4.9,0.6-7.3,0.7c-1,0-2,0-2.7-1c-0.4-0.5-0.9-0.4-1.2,0.1c-0.5,0.8-1.2,0.9-1.9,0.9
				c-2.8,0.1-5.4-0.2-7.9-1.7c-0.4-0.2-0.9-0.3-1.4-0.2c-2.4,0.4-4-1-5.8-2.1c-1-0.7-2.3-0.7-3.3-1.5c-0.9-0.7-2.1-1-2.3-2.4
				c-0.1-0.4-0.5-1-0.9-1.1c-1.8-0.3-2.9-1.6-4.1-2.7c-1.4-1.3-2.9-2.5-3.9-4.1c-1.4-2.3-2.9-4.1-6.2-3.7c-2,0.3-4.3-0.2-5.7-2.3
				c-0.7-1.2-2.2-1.6-3.2-2.7c-1.7-2-3-4.4-5-6.2c-0.8-0.7-0.9-2.3-0.6-3.5c0.7-3.1,1.3-6.4,2.8-9.2c1.3-2.4,1.8-5.2,3.8-7.2
				c0.2-0.2-0.1-0.9,0.2-1.6c0.5-1.2,1.2-2.4,1.9-3.2c1.6-1.6,3-3.6,5.5-4.4c-1.7-0.6-1.1-2.2-1.4-3.4c-0.3-1.2-0.3-2.8,0.8-3.9
				c0.1-0.1,0.4-0.1,0.3-0.4c-0.4-3,1.4-5.6,1.4-8.5c0-0.9,0.8-1.6,1.2-2.4c1.1-2,0.7-4.4,1.6-6.4c1.3-2.9,1.9-6.1,3-9.2
				c1.5-4.2,3.7-8,4.9-12.3c0.4-1.3,1.1-2.6,1.9-3.8c1-1.5,1.6-3.1,2.4-4.7c0.2-0.3,0.4-0.8,0.3-1c-1.6-2.6,0.4-5,0.3-7.5
				c0-0.1,0.1-0.2,0.1-0.3c0.5-0.7-0.4-1.4,0-2.2c0.4-0.8,1.5,0.3,1.9-0.7c-2.1-0.5-2.1-0.5-0.8-2.3c0.1-0.1,0.1-0.3,0.1-0.4
				c-0.3-1.8,0.6-3.2,1.3-4.8c0.6-1.4,0.7-3,1.1-4.5c0.2-0.6,0.1-1.1,0.7-1.5c0.6-0.4,0.8-1.2,0.8-1.7c-0.1-1.9,1.2-3.4,1.4-5.2
				c0.1-0.7-0.5-0.8-0.4-1.6c0.2-1.7,0.7-3.6,0.3-5.2c-0.6-2.3-0.5-4.5-0.6-6.8c-0.1-2.1,0.1-4.2,1.3-5.9c0.3-0.5,0.3-0.7,0.1-1.1
				c-0.1-0.3-0.5-0.7-0.3-0.8c1.2-0.8,0.4-2.1,0.8-3.1c0.5-1.1,1.4-2,1.9-3.1c0.6-1.5,0.9-3.2,0.4-4.8c-0.3-1-1-2,0.2-2.9
				c-0.4-0.5-0.7-1,0.1-1.4c-0.9-1.3,0.4-1,1.1-1.2c-2-0.2-1.3-1.9-1.4-2.6c-0.1-3.3-0.3-6.7,0.2-10c0.1-0.7,0.5-1.5-0.2-2.2
				c-0.2-0.2,0-0.5,0.1-0.7c0.5-0.8,0.2-1.9-0.8-2.2c-1.8-0.6-3.2-1.9-4.9-2.6c-1.6-0.6-3.1-3.4-2.8-5c0.1-0.8-0.6-2,0.9-2.4
				c-1.1-1.1,0.1-2.2,0.1-3.3c0-1.6,0.6-3,1-4.5c0.5-1.8,0.1-3.7,0.8-5.4c0.3-0.8,0.3-1.9,0.3-2.8c0-1.2,0.9-2.1,0.7-3.3
				c-0.1-0.4,0.2-0.7,0.7-0.7c0.3,0,0.7-0.2,0.4-0.4c-1.3-1.1,0-2.4-0.3-3.6c-0.2-0.6-0.7-2,0.8-2.4c0.4-0.1,0.1-0.4-0.1-0.6
				c-0.5-0.6-0.3-0.9,0.1-1.5c0.6-0.7-0.2-1.7,0.4-2.6c0.4-0.6,0.2-1.5,0.7-2.2c0.5-0.7,0-1.2-0.9-1.4c-2.1-0.3-4.2,0.2-6.3,0
				c0-0.8,0.8-0.4,1.3-0.9c-3.2,0.5-5.3-1.2-7.3-3.2c-1.3-1.4-2.1-3.1-2.9-4.7c-0.9-1.7-1.6-3.4-1.9-5.3c-0.4-1.9-0.5-3.8-0.6-5.7
				c0-0.8-0.4-1.7,0.1-2.6c0.5-1.1-1-2.4-2.4-2c-2.8,0.8-5.7,0.6-8.5,1.2c-2.9,0.7-5.9,0.8-8.7,1.9c-1.7,0.7-3.7-1.2-3.6-3.3
				c0-0.6,0.1-1.2-0.2-1.7c-0.4-1.1,0.9-1,0.9-1.5c0.1-0.6-1.5,0-1.2-1.1c0.2-0.6-0.2-1.3,0.2-1.9c0.1-0.2,0.1-0.7,0-0.9
				c-1-1.7-0.4-3.5-0.2-5.1c0.2-1.8,0.4-3.6,0.7-5.4c0.2-1.6,0.3-3.3,0.4-4.9c0-0.4-0.1-0.9,0.5-0.9c0.6,0,1.1-0.5,1.7-0.1
				c0.3,0.2,0.3,0.4,0.1,0.6c-0.3,0.3-0.6,0.6-0.8,1c-0.3,0.5-0.8,1-0.5,1.6c0.3,0.6,0.9,0,1.3,0c0.4,0,0.8-0.1,0.9,0.5
				c0,0.4-0.4,0.5-0.7,0.5c-0.4,0.1-0.9,0.1-1.1,0.5c-0.2,0.3-0.4,0.7-0.3,1c0.1,0.5,0.6,0.3,1,0.2c2.1-0.4,4.3-0.3,6.2-1.6
				c0.8-0.5,1.9,0.6,2.7-0.3c0.6-0.7,1.5-0.7,2.3-0.9c2-0.4,4-0.7,6-0.8c1.3-0.1,1.2-1.1,1.3-1.8c0-0.9-0.8-0.5-1.4-0.5
				c-2.4-0.3-4.8-0.7-7.2-0.1c-0.4,0.1-0.9-0.2-1-0.7c0-0.5,0.5-0.5,0.8-0.6c1.5-0.2,2.2-1.8,3.7-2c0.3,0,0.5-0.4,0.4-0.7
				c-0.1-0.3-0.4-0.3-0.7-0.3c-0.8,0-1.6,0-2.4,0c-0.7,0-1.4,0.2-1.6-0.9c-0.1-0.6-0.8-0.6-1.2-0.6c-2.4,0.2-4.9,0.4-7.3,0.8
				c-1.9,0.3-0.9,2.1-1.1,3.2c-0.1,0.5,0,1.1-0.5,1.3c-0.3,0.1-0.8,0.3-1.1,0.2c-0.5-0.2-0.2-0.6-0.1-1c0.7-3.4,2.2-6.4,5.4-7.8
				c2.2-1,4.9-1.7,7.3-0.1c0.2,0.1,0.5,0.2,0.6,0c1.1-2.2,3-0.6,4.5-1.1c0.4-0.1,0.8,0.1,1.3,0.1c0.4,0,0.9-0.2,0.8-0.6
				c-0.3-1.4,1-2.5,1-3.7c0-3.2,1.5-6.4-0.1-9.6c-0.3-0.6-0.3-1.4,0.2-2c1.4-1.5,1.6-3.3,1.3-5.2c-0.1-0.5-0.1-1.1,0.2-1.4
				c1.5-2.1,0.9-4.7,1.9-6.9c0.4-0.9,1.3-1.6,1.4-2.7c0.1-2.2,0.2-4.5,0.4-6.7c0.2-2.5,0.9-4.8,2.5-6.7c0.3-0.3,0.5-0.5,0.4-1
				c-0.2-2.4,1.1-4.3,2.4-6.1c0.7-0.9,0.8-1.9,0.6-2.8c-0.4-1.9-1.1-3.6-2.2-5.2c-0.9-1.3-1.8-2.8-1.7-4.5c0.1-2.7,0.1-5.3,0.5-8
				c0.3-1.7,0.5-2.9,2.8-2.3c-0.6-0.9-1.7-0.3-2.1-1.1c-0.4-0.8,0.1-1.6,0.2-2.3c0.4-2.3,0.9-4.6,1.4-6.9c0.2-1.1,1.5-2,0.9-3.3
				c0,0,0.3-0.3,0.5-0.3c3-0.9,3.6-3.5,4.3-6.1c1-3.7,2.3-7.3,5.8-9.5c0.5-0.3,1-0.8,1.6-0.4c0.5,0.3,0.6,0.1,0.7-0.4
				c0.1-0.2,0.4-0.5,0.4-0.4c1.6,1.2,2-1,3.2-1.1c1.4-0.1,2.7-0.5,4.1-0.7c1.7-0.3,3.3-1.1,5.1-1c1.7,0.1,3.3-0.2,4.9,0.6
				c0.9,0.5,2,0.3,3.1-0.2c2.5-1.1,3.9-3.5,6.2-4.7c0.7-2.9,3.3-2.5,5.3-3.1c0.9-0.3,1.3-0.6,1.6-1.6c0.1-0.5-0.2-1.6,0.9-1.5
				c0.1,0,0.2-0.1,0.2-0.2c0.1-2.1,0.2-2,1.5-3.5c0.8-0.8,0.8-2,0.8-3.1c0-1.2-0.1-2.3,1.7-2c0.9,0.2,0.5-0.6,0.5-0.9
				c-0.1-1,0.2-1.5,1.4-1.1c0.6,0.3,1.1,0.3,1.5-0.5c-0.9,0-1.6-0.6-2.5-0.4c-0.4,0.1-0.5-0.1-0.6-0.5c-0.5-1.8-1.6-3.3-1.7-5.2
				c0-0.7-0.5-0.7-1-0.8c-1.4-0.3-2.8-0.2-4.2-0.1c-1.1,0-1.8-0.4-2.6-1.1c-0.4-0.3-0.9-0.9-0.6-1.2c1.3-1.1-0.3-2.6,0.6-3.9
				c0.7,0.4,1,1.9,2,1.1c0.7-0.6,1.7-0.3,2.5-1.2c-1.5-0.2-2.8-0.4-3.9-1.1c-0.3-0.2-0.6-0.3-0.5-0.7c1.2-3.5,0.5-7.2,1-10.8
				c0.4-2.7-0.1-5.4,0.3-8c0.4-2.5,0.9-5,2.2-7.3c0.8-1.5,1.5-3,2.3-4.5c0.5-1,1.4-1.4,2.1-2.1c2.7-2.7,5.9-4.8,9.3-6.7
				c1.5-0.8,3.3-1.3,4.8-2.4c0.9-0.7,1.8,0.3,2.9,0.1c-0.5-0.6-0.7-1.2,0.4-1.3c4.1-0.3,8.2-0.6,12.3-0.4c1.9,0.1,3.6,1,5.4,1.4
				c3.8,0.8,6.8,3.4,9.9,5.4c1.8,1.1,3.2,3.1,4.5,4.8c1.1,1.5,1.7,3.3,2.7,4.9c0.5,0.9,1,2.1,1.3,3.3c0.2,0.9,0.8,1.7,1.1,2.6
				c0,0,0.1,0.1,0.1,0.1c0,2,1.5,3.6,1.8,5.5c0.3,1.8,0.7,3.5,1.3,5.1c0.7,1.7,1.2,3.6,2.6,4.9c0.7,0.6,0.1,1-0.5,1.4
				c1.6,0.9,3,2,4.2,3.2c0.9,1,0.8,1.6-0.4,2.2c-0.4,0.2-0.8,0.3-1.2,0.4c-1.1,0.2-1.9,0.5-2.9,1.1c-1.2,0.8-2.8,0.9-4.2,1.3
				c-0.7,0.2-1.4,0.3-2,0.4c-1.7,0.4-2.2,1.2-1.6,2.8c0.3,0.8,0.1,1.7,0.5,2.5c0.3,0.6-1.4,2-2.6,2c-0.9,0-2,0.2-1.8-1.3
				c0.1-0.5,0-1-0.7-1.1c-0.6-0.1-0.9,0.3-1.1,0.7c-0.2,0.3-0.3,0.7-0.5,1c-0.1,0.2-0.2,0.4-0.3,0.6c-1.1-0.6-2.3,0.3-3.5-0.2
				c-0.8-0.3-1-1-0.9-1.9c0.1-0.4,0-0.8-0.4-1c-0.4-0.2-0.7,0-1,0.3c-0.3,0.5-0.9,1-1.3,0.5c-1.1-1.4-1.1-0.6-1.2,0.4
				c-0.2,1.9-1.7,2.2-3.3,2.6c0.2-0.8,0.4-1.5,0.6-2.1c0.2-0.3,0.8-0.6,0.3-1c-0.4-0.4-1.1-0.1-1.4,0.4c-1.1,1.7-2.7,3.1-3,5.3
				c-0.2,1.6-1,3.1-1.8,4.5c-0.6,1,0.3,1.8,0.2,2.6c-0.1,1.1,0.2,1.6,1.3,1.8c0.5,0.1,0.8,0.4,1,1c0.5,2.1,1.5,4,2.2,6
				c0.1,0.3,0.1,0.6,0.5,0.7c1.1,0.3,2.5,0.3,2.1,2.2c0,0.1,0.6,0.6,0.9,0.5c1.4-0.2,1.7,0.7,2.2,1.8c0.6,1.4,2.2,1.5,3.3,1.2
				c1.3-0.4,2.7-0.8,4-1.5c0.7-0.4,1.1-1,0.9-1.7c-0.6-1.5-0.4-3.4-2.1-4.4c-0.4-0.2-0.7-0.6-1-1c-0.6-0.6-0.5-1.1,0.2-1.4
				c1-0.4,2.2-0.3,3.1,0.1c0.7,0.3,0.2,1.4-0.1,2.2c-0.3,0.6-0.4,1,0,1.7c1.6,2.8,0.5,5.7-2.4,7.1c-1.4,0.7-2.9,1-4.4,1.4
				c-0.7,0.2-1.6-0.3-2.4-0.4c-0.7-0.1-1.4-0.1-2,0.3c-1.1,0.8-1,1.5,0.2,2c1,0.4,1.8,1.2,2.9,1.2c0.2,0,0.5,0.2,0.5,0.3
				c0.3,1.6,1.7,1.7,2.8,2.2c3.9,1.9,6.4,5,8.2,8.8c0.1,0.1,0.2,0.3,0.3,0.4c2.9,1.7,4.2,4.6,5.7,7.4c1,1.9,2.1,3.8,2.3,5.8
				c0.1,1.6,1.8,2.8,1.1,4.6c2.3,1.6,1.8,4.3,2.5,6.5c0.3,0.9,1,1.9,0.3,2.9c-0.1,0.1,0.1,0.6,0.1,0.6c1.7-0.2,2.1,2.1,3.6,2
				c1,0,1.9,0.7,2.1,1.3c0.4,1.3,1.4,1.7,2.3,2.3c2,1.1,3.3,3.1,5.4,4.1c2.6,1.2,5.1,2.8,7.9,3.8c0.5,0.2,1.1,0.1,1.6,0.2
				c0.7,0,0.8-0.5,1-1c0.3-0.7-0.2-0.8-0.6-1c-1.9-1.1-2-2.2-0.5-3.8c0.8-0.8,0.9-2.1,2.3-2.3c0.2,0,0.3-0.4,0.2-0.7
				c-0.8-2,0.8-2.9,1.9-3.9c0.8-0.8,1.7-1.4,2.4-2.4c0.8-1.1,2.3-1.8,3.7-1.6c1.5,0.1,2,1.3,2.3,2.7c0.2,1,0.3,1.9,0.4,2.9
				c0.2,2.2,1.8,2.9,3.7,1.7c0.4-0.3,0.9-0.5,1.4-0.8c2.3-1.7,4.3-1.1,5.5,1.6c0.1,0.1,0.2,0.3,0.2,0.4c0.1,0.6-1,1.2,0.4,1.7
				c0.7,0.2,1.1,1.2,1.9,1.6c0.5,0.2,0.8,0.5,1,1.1c0.3,1.3,0.8,2.6,2.4,2.8c0.1,0,0.2,0.1,0.2,0.2c0.4,0.7,1.7,0.9,1.5,1.7
				c-0.2,0.8-1.3,0.4-2,0.5c-0.9,0.2-1.4,0.3-1.4,1.4c0,0.7-0.3,1.6-0.7,2.3c-0.3,0.5-0.4,0.9,0.2,1.1c0.6,0.3,0.8,1.5,1.4,1.1
				c0.6-0.5,1.4-1,1.8-1.9c0.2-0.4,0.1-0.7-0.2-1c-0.7-0.6-0.9-1.5-0.5-2.1c0.5-0.7,1.5-0.6,2.2-0.1c0.2,0.7-1.1,0.7-0.6,0.9
				c0.7,0.3,0.1,1.3,1.3,1.4c1.8,0.1,3.4,2.5,3,4.3c-0.4,2,0.7,3.5,1.6,5.1c0.8,1.3,0.7,2.4-0.4,3.4c-0.2,0.2-0.5,0.3-0.4,0.6
				c0.6,1.4-0.5,1.9-1.4,2.1c-1.6,0.5-2,1.6-1.8,2.9c0.2,1.9-0.5,3.1-1.7,4.5c-0.8,1-1.4,2.3-2.6,3.1c-1,0.8-2.1,1.6-3,2.5
				c-1.5,1.5-3.9,1.7-5.9,2.5c-0.9,0.4-2.5-0.8-3.4-1.8c-0.4-0.4-0.2-1.5-1.2-1.1c-0.7,0.3-1,1.2-0.8,1.9c0.2,0.8,0.1,1.4-0.4,2
				c-0.8-0.2-0.7-1-1.3-1.6c-0.3,1.8-0.1,3.4-0.4,5c-0.3,1.2,0.4,1.4,1.8,0.4c-1,2.5-0.8,5-3.1,6.3c0.8,1.6,2.5,1.8,4.2,1.9
				c5.6,0.4,11.2,0.5,16.7,1.4c4,0.7,8.1,0.9,12.1,1.2c5,0.5,9.9,1.5,14.9,1.3c0.5,0,1.2,0,1.6,0.3c1.5,1.2,3.2,1,4.9,0.9
				c2.8-0.1,4.6-1.6,5.3-4.2c0.6-2.3,3.9-3.3,5.7-1.8c0.6,0.5,0.3,1.2,0.3,1.8c0.2,3.7,1.8,5.5,5.4,5.8c3.8,0.3,7.4,1.1,11.2,1.2
				c2,0,2.8,2.1,1.5,3.8c-1.6,2-2.6,4.2-3.6,6.5c-0.3,0.6-1,0.8-1.8,0.8c-3.6-0.1-7.2-0.4-10.8-1.2c-2.1-0.5-4.3-0.1-6.5-0.3
				c-4.3-0.5-8.6-0.7-12.9-1.3c-0.9-0.1-1.8,0-2.7-0.1c-7.2-1.2-14.4-1.7-21.7-2.1c-2.2-0.1-4.4-0.1-6.5-0.4
				c-0.8-0.1-1.4-0.6-2.3-0.7c-2.1-0.2-3.6,1.1-5.3,1.8c-2.2,1-4.3,0.3-6.4,0.2c-1.9-0.1-3.7-0.3-5.6-0.2c-0.7,0-1,0.3-1.2,1
				c-0.7,2.5-1.2,5.1-2.8,7.3c-0.4,0.6,0.4,1.2,0.3,1.6c-0.8,4-0.5,8.1-1.1,12.2c-0.1,1-0.3,1.5-1.7,1.6c0.8,0.4,1.4,0.1,1.1,1.1
				c-0.3,1.3-0.6,2.7-0.3,4.1c0.2,0.7-0.2,1.5-0.4,2.1c-0.8,3.2-1.2,6.5-2.4,9.6c-0.2,0.7-0.4,1.6-1.3,0.5c-0.3-0.4-0.8-0.3-1.1,0
				c-0.2,0.2-0.4,0.4-0.2,0.7c0.3,0.5,0.6,0.2,1,0.1c1.1-0.3,1.4,0.2,1.1,1.2c-0.3,1-0.6,1.9-0.8,2.9c-0.3,1.4-1.2,2.1-2.8,1.9
				c-2.4-0.3-4.9-0.4-7.4-0.5c-0.7,0-1.4,0-2.1,0.2c-0.5,0.1-0.9,0.2-0.4,1.2c0.7,1.6,1.2,3.4,1.6,5.1c0.4,1.9,1.2,3.5,1.7,5.3
				c0.2,0.9,0.7,1.7,0.4,2.7c0,0.1-0.1,0.2-0.1,0.3c1.4,2.3,1.8,3.7,2.1,5.9c0.3,2.1,1.6,3.9,1.8,6.1c0.2,2.2,0.9,4.4,0.9,6.7
				c0,1.5-1.3,1.8-1.8,2.8c-0.4,1-1,1.7-0.3,2.9c0.3,0.6,0.3,1.7,0.4,2.6c0.2,1.2,0.5,2.4,0.7,3.7c0.1,0.6-0.2,1.1,0.4,1.8
				c1.1,1.3,0.1,3.2,0.3,4.8c0.1,0.5-0.9,0-0.9,0.8c1.2,0,2.2,0.2,1.4,1.8c-0.2,0.4,0.3,0.3,0.5,0.4c1.6,0.6,2.7,2.5,2.1,4.2
				c-0.4,1.1,0.1,1.9,0.2,2.7c0.4,1.7,0,3.5,0.8,5.1c1.1,2,1.2,4.3,1.7,6.5c0.3,1.3,0.6,2.7-0.2,4.1c-0.1,0.2,0.8,0,0.7,0.7
				c-0.1,0.9,0.7,1.7,0,2.6c0.9,0.6-0.4,1.8,0.7,2.5c0.4,0.2,0.5,1.8,0.2,2c-1.1,0.8-0.4,1.1,0.2,1.5c0.9,0.7,0.4,1.6,0.2,2.2
				c-0.8,2.6-1.1,5-0.1,7.7c0.4,1,1.3,2,1.1,3.4c-0.3,1.4-0.3,2.9-0.2,4.3c0.2,2.7-0.3,5.3-0.3,8c0,2.7,0.3,5.4-0.6,7.9
				c-0.4,1,0.7,3-1.5,3.3c1.4,0.3,1.4,1,1.3,2.1c-0.1,1.1-0.1,2-0.7,3.1c-0.6,1.2-1.2,0.6-1.8,0.7c-0.7,0.2-1-0.4-0.8-1.2
				c0.1-0.3-0.1-0.5-0.4-0.6c-0.3-0.1-0.7,0.1-0.8,0.4c-0.7,1-0.6,2.3-1,3.4c-0.2,0.5,1,0.8,1.1,0.3c0.4-1.3,2.1-0.5,2.6-1.6
				c0.1-0.2,0.7-0.2,1,0.1c0.4,0.3,0,0.5,0,0.8c-0.3,1-0.4,1.9-0.3,3c0.1,0.8,0.2,1.7-0.3,2.5c-0.7,1.2-0.7,2.6-0.7,4
				c0,1.4-0.4,2.7-0.9,4c-0.5,1.3-1.1,2.5,0,3.8c0.5,0.5,0,1.1-0.2,1.5c-0.5,1.4,0.7,2.8-0.1,4.2c-0.8,1.5,0.1,3,0,4.6
				c-0.1,1.6-0.3,2.5-2.1,2.1c0,0.6,0.3,0.6,0.7,0.6c1.4-0.2,1.8,0.9,1.5,1.6c-0.3,0.9,0,2.1-0.9,2.8c-0.1,0.1-0.2,0.2-0.1,0.4
				c1,2.9,0,5.7-0.2,8.6c-0.2,2.8-0.8,5.6-0.5,8.4c0.1,0.8-0.2,1.5-0.2,2.2c0,0.8-0.2,1.6-1.6,1.2c1.4,0.5,1.3,1.5,1.2,2.4
				c-0.2,1.8,0.3,3.7-0.2,5.5c-0.3,1.2-0.4,2.4-0.1,3.6c0.2,1-0.7,0.9-1.2,1.2c0.1,0.7,1.3,0.4,1.1,1.3c-0.2,0.7-0.6,1.1-1.2,1.4
				c-0.8,0.4-0.9,1.8-2.2,1.6c0.7,0.8,1.5,1,2.5,1.1c0.5,0.1,1.1,0,1.3,0.5c0.3,0.9-1,0.2-0.9,1c0.8,0.1,2.2-0.4,1.3,1.4
				c-0.2,0.4,0.4,0.6,0.8,0.9c2.4,1.8,4.8,3.4,6.7,5.8c0.4,0.5,1,0.7,1.5,1.1c1.3,1.2,2.6,2.7,4.2,3.1c1.7,0.5,3.1,1.5,5,1.6
				c1.9,0.2,4,0.6,5.9,1.1c3,0.8,5.5,2.7,8,4.6c0.8,0.7,1.3,1.4-0.5,1.7c2.1,0.4,2.7,1.2,2.9,3.5c0.2,1.6-0.5,3.3,0.3,4.9
				c0.2,0.4-0.3,0.8-0.7,0.9c-3.2,1.5-6.6,2.9-10.1,3.3c-4.1,0.4-8.2,0.7-12.3,0.4c-2.1-0.2-4.1,0.4-6.1,0.8c-1,0.2-1.9,0.2-2.9-0.3
				c-1.4-0.7-3-0.8-4.6-0.7c-1.6,0.1-3,0.1-4.3-1.4c-1.1-1.3-3.1-0.6-4.7-0.9c-0.5-0.1-1,0.1-1.6-0.1c-1.7-0.7-3.5-0.3-5,0.5
				c-4.7,2.7-9.8,2.9-15,2.3c-0.8-0.1-1.9,0.6-2.4-0.7c-0.1-0.2-0.2-0.1-0.4,0c-1.8,1.2-3.4,0.5-3.7-1.5c-0.1-1.1-0.7-2.2,0.1-3.3
				c0,0,0-0.1,0-0.2c-1.7-1.5-0.2-2.1,1.2-2.8c-2.6-0.1-1.6-2.1-1.9-3.1c-0.3-1.1,0.3-2.5,0.3-3.7c0-0.9,0.5-0.9,1.4-0.9
				c-0.8-0.2-1.9-0.1-0.9-1.1c0.6-0.6,0.8-1.7,0.7-2.2c-0.6-2.9,1.7-4.6,2.9-6.7c0.6-1.1,0.7-3.7-0.2-4.7c-0.6-0.7-0.9-1.4-1-2.3
				c0-0.7-0.2-1.5,1.2-1.5c-1.2-0.2-1.2-0.8-1.2-1.7c-0.1-1.9-0.4-3.9-0.7-5.8c-0.3-2.5,0.5-4.9,0.4-7.4c-0.1-1.8-0.1-3.6-0.2-5.4
				c-0.1-1.2,0.1-2.5-0.3-3.7c-0.1-0.4-0.2-1.3,0.7-0.5c0.1,0.1,0.3,0,0.4-0.2c0.1-0.3-0.1-0.5-0.4-0.6c-1.2-0.5-0.6-1.6-0.8-2.4
				c-0.2-0.7,0.8-0.3,1.1-0.9c-1-0.1-1.1-0.7-1.1-1.6c0-3.7,0.4-7.3,0.4-10.9c0-4.6-0.3-9.3,0.1-13.9c0.1-1.1,0-2.3,0.2-3.5
				c0.2-1-0.7-1.4-1-2.1c-0.2-0.4-0.5-0.7-0.1-1.2c0.4-0.4,0.7-0.2,1.1,0c0.7,0.5,1.7,0.7,2.2,1.5c0.1,0.2,0.5,0.3,0.7,0
				c0.1-0.1,0-0.4-0.1-0.6c-1.2-1.2-2.3-2.6-4.3-1.7c-0.6,0.3-0.9-0.3-0.9-0.8c0-1.1-0.3-2.3-0.4-3.3c-0.1-1.5-0.6-2.9-0.5-4.5
				c0.1-1.8,1.1,0,1.5-0.4c0-0.1,0.1-0.2,0.1-0.3c-3-1.9-2.8-5.3-3.6-8.2c-0.7-2.5-1.9-5-1.9-7.7c0-1.7-1-3.1-1-4.9
				c0-1-0.7-2.1-1.2-3.2C294.8,515.7,294.2,514.7,295.8,513.8z M333.5,472.8c-1.5-0.7-2.6,0.6-4,0.7c-0.7,0.1-0.3,1.1-0.6,1.7
				c-0.2,0.4,0.4,0.5,0.8,0.6c0.5,0.1,1-0.1,1-0.8c0-0.4,0.3-0.8,0.5-0.7C332.8,474.9,332.9,473.5,333.5,472.8
				c0.4-0.3,0.9-0.5,1.4-0.7c1.2-0.7,0.6-1.7,0.3-2.5c-0.4-1.1-1.1-0.3-1.7,0C331.9,470.6,333.1,471.7,333.5,472.8z M239.8,504.1
				c0,0.2-0.1,0.3-0.1,0.5c0.1,0.6,0.3,1.2,1,1.3c0.6,0.1,1-0.5,1.2-0.9c0.2-0.6,0.1-1.4-0.4-1.8c-0.6-0.4-0.7,0.6-1.2,0.8
				C240.1,504.1,239.9,504.1,239.8,504.1c-0.4-1-1.2-1.6-2.1-2.2c-0.6-0.3-1.3-0.1-2-0.5c-0.9-0.6-2-0.4-2.8,0.3
				c-0.2,0.2-0.9,0.2-0.7,0.7c0.2,0.6,0.7,0.3,1.1,0.2c1.4-0.6,1.2,0.2,0.9,1c-0.1,0.3-0.4,0.6-0.1,0.9c0.3,0.4,0.7,0.1,1,0
				c0.5-0.1,0.9-0.4,1-1c0.1-0.5,0.1-1.1,0.8-0.9c0.6,0.2,1.6,0.2,1.7,1.2c0,0.4-0.4,0.9,0.2,1.1
				C239.3,505.2,239.4,504.4,239.8,504.1z M236.2,309.5c-0.3,0.4,0,0.8,0,1.2c0.3,1.6,1.3,3.2-0.3,4.7c-0.4,0.3,0.2,0.8,0.4,1.1
				c0.2,0.3,0.7,0.2,0.8,0c0.5-0.7,1.2-1.1,1.2-2.2c0-0.9-0.8-1.6-0.5-2.4C238.3,310.3,237.5,309.8,236.2,309.5
				c0.6-0.7,0.5-1.7,1.1-2.5c0.3-0.4,0.3-1.3-0.4-1.5c-1.1-0.2-1.7-1-2.4-1.7c-1-0.9-1.4-0.7-1.7,0.7c-0.3,1.4-1.7,2-2.9,1.2
				c-0.6-0.4-1.3-0.6-1.6-0.2c-1.2,1.5-3.3,1.2-4.7,2.4c-0.6,0.5-1.6,1-2.1-0.3c-0.5-1.5-1.2-1.7-2.5-1c-0.6,0.4-1.1,1.4-1.8,1.1
				c-2.2-0.9-3.4,0.8-4.9,1.7c-1.1,0.6-1,1.9-0.8,2.8c0.2,0.8,1.3,0.4,2,0.2c1.9-0.5,3.9-0.4,5.9-0.8c0.6-0.1,1.9-0.1,2.7,0.4
				c0.3,0.1,0.6,0.4,0.7,0.6c0.1,0.4-0.3,0.6-0.5,0.7c-1.5,0.4-2,1.6-2.8,2.8c1.5-0.2,3.5,0.6,4.4-0.7c1-1.4,2.2-1.7,3.5-1.9
				c1.5-0.1,2.8-0.6,4.1-1.2c0.4-0.2,1-0.3,1-1.1c-0.1-1.6,0.8-2,2.2-1.9C235.3,309.5,235.7,309.5,236.2,309.5z M266.9,431.2
				c1.3-0.1,2.5-0.6,3.7-0.9c0.9-0.2,1.7-0.3,2.1,1c0.3,0.9,0.4,1.8,0.6,2.6c0.2,0.7,0.6,1.3,1.4,1c0.9-0.3,0.3-0.9,0.1-1.4
				c-0.4-0.8-0.3-1.6,0.7-1.6c0.9-0.1,1.9,0.7,2.2,1.2c0.7,1.3,1,2.9,1.3,4.3c0.1,0.4-0.2,1,0.5,1.2c0.5,0.1,0.9-0.1,1.1-0.6
				c0.3-0.6,1.1-0.6,1.1-0.1c-0.1,1.7,1.1,1.4,2.1,1.5c0.5,0.1,0.8,0.2,0.9,0.7c0.2,0.8,0.5,0.7,1.1,0.2c1.2-1,2.6-1.6,4.3-1.3
				c1.3,0.2,1.6-0.5,1.4-1.6c-0.2-0.8-0.4-1.5-0.6-2.2c-0.1-0.4-0.1-0.8,0.3-1c0.5-0.2,0.9,0.1,1,0.5c0.2,0.8,0.5,1.6,0.1,2.3
				c-0.3,0.6-0.1,1,0.3,1.4c0.8,0.6,1.7,0.3,2.5,0.1c0.7-0.2,0.5-0.8,0.4-1.4c-0.4-2.4-0.9-4.8-0.5-7.2c0-0.2,0-0.4-0.1-0.6
				c-0.3-1.9-1-3.9-0.6-5.9c0.2-0.9-1.1-1.6-0.6-2.6c-1-0.4-2-1.1-2.7,0.7c-0.1-1.1-0.3-1.9,0.4-2.9c-0.7,0.1-1.7,0.5-1.8-0.5
				c-0.1-1.2-0.9-1.9-1.3-2.9c-0.3-0.6-0.5-1.2-0.2-1.9c0.5-1.2,0-1.9-1.3-2.1c-2-0.2-2.7-1.3-2.5-3.3c0.1-0.9,0.1-1.9,0.1-2.8
				c0-0.9-1-1.2-1.5-1.4c-0.7-0.3-0.6,0.8-0.9,1.2c-0.2,0.4,0.1,1.1-0.7,1.3c-0.4-1-0.8-2.1-1.3-3.1c-0.2-0.6-0.7-0.8-1.3-0.7
				c-0.6,0.1-1.3,0.6-1.2,0.9c0.2,1.4-0.5,2.7-0.6,4c-0.1,1.3,0.4,2.5,0.2,3.8c-0.2,1-0.4,1.5-1.5,1.3c-0.4-0.1-0.8-0.2-1.1,0.1
				c-1.2,0.8-1.2-0.1-1.3-0.9c0-0.5,0.2-1,0.3-1.6c-1.7,0.6-3.3,1.1-4.1-1.1c-0.1-0.1-0.5-0.2-0.7-0.2c-1.2-0.1-1.5-0.8-1.3-1.9
				c0.1-0.6,0-1.1-0.6-1c-0.9,0.2-1.9,0.4-2.5,1c-1.1,1.1-2.4,2.4-1.8,4.3c0,0.1-0.2,0.2-0.3,0.3c-0.1-0.1-0.2-0.2-0.3-0.2
				c-0.1-0.4-0.2-0.7-0.3-1.1c-0.5-2.8-0.6-2.6-3.3-3.4c-0.9-0.2-2,0.2-2.8-0.8c-0.2-0.3-1.1-0.1-1.3,0.5c-0.6,1.2-1.7,1.1-2.6,0.7
				c-1.1-0.5-1.1,0.1-1.2,0.8c-0.1,0.4,0.1,1.1-0.8,0.7c-1.3-0.6-2.2-1.5-1.9-3.1c0.1-0.4,0.2-0.9-0.1-1.2c-0.2-0.3-0.2-0.9-0.9-0.7
				c-0.4,0.2-1.1,0.6-0.8,1c0.5,0.9-0.8,1.6,0.1,2.6c0.5,0.5-1.1,2.2-1.9,2.1c-1-0.1-1.4,0.2-1.3,1.2c0,1.5,0.4,3,0.3,4.6
				c-0.1,1.3-0.6,3.1-1.8,3.5c-0.7,0.2-1.3,0.1-1.4,1.2c-0.1,0.7-0.1,1.6,0.2,1.9c0.8,0.8,0.5,1.5,0.4,2.4c-0.1,1-0.8,2-0.1,3.1
				c0.1,0.2,0,0.4-0.3,0.5c-0.2,0.1-0.5,0-0.4-0.3c0.1-1-1.2-1.7-0.7-2.9c0.2-0.5-0.2-0.8-1-1c0.3,1.9-1.6,3.6,0.1,5.4
				c0.1,0.1,0,0.3,0,0.5c0.1,2-0.9,3.9-0.4,6c0.1,0.4-0.2,1-0.6,1.5c-1.3,1.4-1.4,3.9-0.2,5.3c0.3,0.4,0.6,0.4,1,0.3
				c0.3-0.1,0.8,0,0.7-0.4c-0.3-0.8,0.4-1.3,0.5-1.9c0.1-0.4-0.1-1,0.5-1c0.6,0,0.4,0.6,0.5,1c0.1,0.4,0.2,0.9,0.7,0.9
				c0.5,0,0.8-0.3,0.9-0.8c0.1-0.8,0.6-1.3,1-2.1c0.4,0.8,0.5,1.6,0.1,2c-0.9,0.9,0.4,1.6,0.1,2.4c0.9,0.2,1.2-0.3,1.5-1
				c0.1-0.3,0.4-0.3,0.7-0.3c0.7,0,0.8-0.4,0.8-1.1c0-1.1,0.1-2.2,0.2-3.3c0.1-0.7,0.2-1.2,1.3-0.8c0.9,0.4,2.1,0.9,3.1,0.5
				c1.2-0.5,1.9-0.5,2.4,0.8c0.1,0.3,0.3,0.5,0.6,0.4c0.1,0,0.3-0.2,0.3-0.3c-0.3-1.6,0.7-3.2,0.4-4.8c-0.1-0.6-0.1-1.3,0.8-2
				c-0.1,1.2,0.3,2.1-0.2,3c-0.2,0.5,0.1,1,0.5,1.4c0.2,0.2,0.5,0.1,0.7-0.1c0.5-0.4,0.3-0.9,0.2-1.3c-0.1-0.4-0.4-0.8-0.4-1
				c0.6-2,0.1-3.9,0-5.9c-0.1-1.4,1.2-2.1,2-3c0.3-0.3,0.8-0.3,1,0.3c0.5,1.8,1.3,3.6,0.9,5.6c0,0.3-0.1,0.5,0.1,0.7
				c0.8,1.4,0.8,1.4,0.2,2.7c-0.1,0.3,0,0.3,0.2,0.4c0.5,0.2,0.8,1,1.6,0.6c0.3-0.2,0.3-0.3,0.2-0.6c-1-2.1-0.5-4.4-1.2-6.6
				c-0.4-1.2,0.1-2.4,1.2-3.2c0.8-0.6,1.4-0.6,1.5,0.5c0.2,1.8,0.8,3.6,0.7,5.5c0,0.8,0,1.8,0.5,2.2
				C265.8,432.5,266.3,431.4,266.9,431.2L266.9,431.2z M229.1,327.3c-0.2-0.3-0.7-0.5-0.8-0.9c-0.4-1.2-1.1-1.1-2.1-0.9
				c-1,0.1-1.4,1-2.4,1.1c-4.4,0.4-7.7,2.7-10.3,6.2c-0.4,0.6-1.1,1.2-1.9,0.6c-0.8-0.6-0.1-1.1,0.2-1.6c0.2-0.3,0.3-0.6,0.3-1
				c0.2-1,0.7-1.6,1.5-2.3c0.8-0.7,2.2-0.8,2.6-1.7c0.7-1.5,2.1-2,3.4-2.6c1.2-0.5,2.3-0.9,2.9-2.3c0.2-0.5,0.8-1,0.2-1.5
				c-0.5-0.4-1.2-0.6-1.8-0.1c-0.7,0.5-1.5,0.8-2.4,0.8c-1.5,0-1.7-0.3-1.2-1.7c0.1-0.3,0.1-0.7,0.2-1.1c0.4-1.3-0.1-1.2-1.1-0.9
				c-1.5,0.4-2.6,1.5-3.8,2.3c-2.2,1.4-5.2,1.4-7.1,3.7c-1.3,1.6-3.5,2.2-4.6,4.3c-0.7,1.3-0.7,2.5-0.3,3.7c0.2,0.8,1.1,1,1.8,0.3
				c1-1,2.2-1.8,2.9-3.2c0.5-0.9,1.8-1.4,1.8-2.8c0-0.1,0.6-0.2,0.9-0.3c0.9-0.3,2,0.2,2.9-0.7c0.2-0.2,1.4-0.1,1.7,0.5
				c0.2,0.6,0,1.3-0.4,1.8c-0.3,0.4-0.8,0.7-1,1.2c-1.1,1.9-2.1,3.9-3.6,5.4c-1.5,1.4-2.1,3.1-3.1,4.7c-0.4,0.7-0.2,1.2,0.4,1.8
				c0.7,0.7,1,0.2,1.4-0.2c1.1-1.4,2.7-2.4,4.2-3.3c2.1-1.3,4.4-2.4,6.3-4c0.5-0.5,1.3-0.9,1.8-0.1c0.5,0.8-0.3,1.2-1,1.5
				c-1.3,0.5-2.1,1.5-2.1,2.8c0.1,1-0.3,1.9-0.8,2.3c-1.8,1.1-2.1,3.2-3.4,4.6c-0.5,0.5-0.6,1.3-0.1,1.7c0.6,0.5,1.2,1.2,2.1,0.8
				c0.5-0.2,0.8-0.6,0.2-1.2c-0.8-0.8-0.8-1.9,0-2.6c1-0.7,2.4-0.5,3.5-0.8c0.7-0.1,0.7,0.5,1,0.8c0.3,0.4,0.8,0.6,1.1,0.3
				c1.1-1.1,2.4-0.9,3.7-0.9c1,0,1.2-0.5,0.8-1.3c-0.3-0.4,0.1-0.5,0.2-0.8c1.1-1.4,2.2-1.3,3.7-0.5c1.2,0.6,1,1.2,0.3,1.7
				c-1,0.8-1.8,1.6-2.1,2.9c-0.2,0.6-0.7,0.4-1.2,0.4c-2.2,0-3.4,1.1-3.5,3.2c0,0.2-0.2,0.4-0.3,0.5c-0.1,0.3-0.8,0.4-0.4,0.8
				c0.3,0.3,0.7,0.2,1.1,0.1c0.3-0.1,0.7-0.4,1.1-0.1c-0.2,0.3-0.4,0.5-0.5,0.8c-0.2,0.4-1,0.7-0.3,1.3c0.6,0.6,1,0.4,1.4-0.2
				c0.2-0.2,0.5-0.5,0.7-0.3c0.8,1,1.5,0.6,2.3-0.1c0.2-0.2,0.6-0.2,0.9,0.1c1.8,1.2,2.9,1.1,4.4-0.2c0.6-0.6,1.5-0.7,2.4-0.6
				c0.3,0,0.5,0.3,0.4,0.6c-0.1,0.7,0,1.5,0,2.2c-0.2,1.7-0.2,1.8,1.6,1.5c0.4-0.1,0.9-0.3,0.9,0.4c0,0.6,0.3,0.9,0.9,0.9
				c0.9-0.1,0.3-0.7,0.3-1.1c0.1-2.1,0.6-2.5,2.6-2.1c0.2,0,0.5,0.2,0.6,0.1c1.1-1.3,1.3,0.1,1.7,0.6c0.3,0.3,0.6,0.6,0.8,1
				c0.4,0.7,0.9,1.3,0,2.1c-1,1,0.3,2.2,0,3.4c-0.1,0.3,0.6,0.2,1,0.1c1-0.3,2-0.7,3.1-1c0.5-0.2,1.2,0,1.4-0.8
				c0.2-1.3,1.4-1.9,2.4-2.1c1.2-0.3,1.6-0.9,1.6-2c1.2,0.6,1.3,0.6,1.8-0.4c0.4-0.8,1.1-1.1,1.9-1.3c0.3-0.1,0.8-0.3,0.9,0.3
				c0.4,1.9,0.1,3.6-0.7,5.4c-0.5,1-1.2,0.4-1.8,0.6c-0.5,0.2-0.9,0.5-1.1,0.9c-0.9,1.4-1.9,2.6-3.2,3.8c1,0.3,1.7,0.4,2.6,0.3
				c2.6-0.3,4.7-1.5,6.5-3.3c0.4-0.4,1-1.4,1.6-0.3c0.4,0.8-0.2,1.7-0.8,1.9c-2.3,0.7-3.5,2.4-4.4,4.6c2.6-0.2,5.2,1,7.7,0
				c0.2-0.1,0.6,0,0.9,0.2c0.8,0.4,1.6,0.6,2.3-0.2c0.5-0.5,1.1-0.3,1.7-0.3c0.4,0,0.9-0.3,1.1,0.2c0.2,0.4-0.2,0.8-0.6,1
				c-0.8,0.6-0.1,1.3,0.2,1.7c0.4,0.6,0.8,0.1,1.3-0.2c1.5-1.3,3.1-2.6,4.9-3.5c0.4-0.2,0.8-0.4,0.9,0.1c0.4,1.4,1.2,0.6,1.7,0.2
				c0.6-0.5,1.2-1.1,1.6-1.9c0.3-0.5,0.4-1.4,1.5-1.4c-0.9,0.6-0.6,1.4-0.6,2.2c0.1,0.5-0.3,1.1,0.6,1.2c0.7,0,1.5,0,1.6-0.9
				c0.1-1.1,0.3-1.9,1.6-1.6c0.4,0.1,0.7-0.2,0.8-0.6c0.8-2.2,1.5-4.5,2.3-6.7c0.4-1-0.3-2.4,1.3-3.2c-2.7-0.5-3-2.7-3.7-4.4
				c-0.3-0.8-0.6-1.4-1.6-1c-0.7,0.2-1.1-0.1-1.3-0.8c-0.2-0.6-0.7-0.9-1.4-0.9c-0.5,0-0.9-0.1-1.3-0.5c-1.4-1.8-4-1.8-5.6-3.3
				c-0.1-0.1-0.4,0-0.6-0.1c-1.6-0.4-2.9,0.3-4.3,0.8c-0.7,0.3-1.1,0.6-1,1.5c0.1,1.7-0.8,2.7-2.4,3c-0.2,0-0.4,0.1-0.6,0.2
				c-2.8,1.4-4.3,0.9-6-2.1c1.1-0.2,1.6,0.8,2.4,1c0.5,0.1,1.1,0.5,1.5-0.1c0.4-0.6-0.2-0.9-0.6-1.2c-0.3-0.2-0.8-0.3-0.7-0.8
				c0.1-0.5,0.6-0.3,1-0.4c0.4-0.1,1.1,0.3,1.2-0.4c0.1-0.5,0-1.1-0.6-1.4c-0.6-0.3-0.5-0.8-0.6-1.3c-0.2-1.3-0.2-2.8-1.7-3.2
				c-0.9-0.3-1.9-0.7-2.6-1.2c-1.4-1-2.3-0.3-3.2,0.4c-0.6,0.4-1,1.1-1.7,1.3c-0.3,0.1-0.5,0.3-0.3,0.6c0.9,2-0.7,2.8-1.6,4
				c-0.6-0.9-0.1-2-0.6-2.5c-0.7-0.8-0.4-0.8,0.2-1.2c0.5-0.3,0.9-1.1,0.7-1.3c-1.2-0.7-0.9-2.4-2.1-3c-0.4-0.2-0.9,0.3-1.2,0.7
				c-0.4,0.4-0.6,1-1.2,1.8c0.1-1.6-0.3-2.6-1.7-2.5c-1.2,0-2.4,0.7-2.5,1.8c-0.6,3.2-2.2,6.2-2.6,9.4c-0.1,0.6-0.4,0.8-0.9,1
				c-0.5,0.2-0.9,0-1.2-0.5c-0.2-0.4-0.5-0.8-0.8-1.2c-0.6-0.7-0.6-1.3,0.3-1.8c0.8-0.5,1.8-3.5,1.4-4.3c-0.1-0.3-0.4-0.6-0.9-0.5
				c-1.5,0.3-2.6-0.5-2.2-1.9c0.4-1.5,0.6-3.1,1.9-4.2c0.5-0.4,0.8-1,0.5-1.4c-0.3-0.4-1-0.5-1.6-0.1c-0.3,0.2-0.6,0.4-0.9,0.6
				c-1.4,1.4-2.4,3.2-4.3,4.1c-0.4,0.2-0.8,0.7-1.1,1.2c-0.6,1.4-1.7,1.6-3.1,1.4c0.2-1.6,1.7-2.4,2.4-3.7c0.2-0.5,0.5-0.8,0.2-1.3
				c-0.3-0.5-0.9-0.2-1.1,0.1c-0.8,0.9-1.8,1.1-2.9,1.3c-0.8,0.1-1.5,0.7-2.2,1.2c-0.8,0.5-0.5,1.7-1.5,1.9
				c-1.2,0.2-2.3,0.4-3.6,0.7c0.8-1.8,2.4-2.6,3.8-3.6c0.5-0.3,0.7-0.4,0.2-1c-1-1.3-0.7-2.2,0.8-2.9c0.5-0.2,1.2-0.2,1.3-0.8
				C226.4,327.6,227.9,327.8,229.1,327.3z M235.8,250.1c1.8,0.6,0.9,1.8,0.9,2.8c0,0.5-0.3,0.7-0.7,0.6c-0.6-0.1-0.5-0.5-0.3-0.9
				c0.6-1.4-0.3-2-1.3-2.4c-1.1-0.4-2-0.5-3,0.7c-0.9,1.1-1.3,3-3.1,3.2c-0.3,0-0.1,0.2-0.1,0.3c-0.3,1-0.5,2.3-1.2,2.8
				c-1.5,1.1-2.7,2.5-4.1,3.5c-1,0.7-0.3,1.5-0.1,1.8c0.5,0.6,1.1,0.1,1.4-0.4c0.4-0.6,0.8-1,1.5-1.1c0.6-0.1,1,0.2,0.8,0.8
				c-0.3,0.8-0.6,1.6-1,2.4c-0.1,0.3-0.7,0.4-0.3,0.9c0.3,0.4,0.7,0.1,1,0c2-0.5,2.5-0.1,2.6,1.9c0,0.4-0.3,0.9,0.3,1.1
				c0.5,0.2,0.9-0.1,1.2-0.5c0.2-0.3,0.2-0.8,0.7-0.6c0.1,0.1,0.3,0.3,0.3,0.5c0.1,0.4-0.1,0.7-0.5,0.8c-0.8,0.2-1.4,0.8-2.3,0.9
				c-0.8,0-1.9,0.4-1.7,1.8c0.1,1.3-0.9,2.5-2.4,2.9c0.2-1,1.2-1.4,1.5-2.2c0.1-0.4,0.5-0.9-0.1-1.2c-0.5-0.2-0.7,0.2-0.9,0.6
				c-1.3,2.1-2.6,4-1.2,6.7c0.4,0.8,0.4,1.8,1.6,2c0.5,0.1,0.9,0.5,0.5,0.9c-0.9,1.1-1.1,2.5-2.4,3.3c-2,1.3-4,2.5-5.7,4.2
				c-0.5,0.5-1.4,0.6-1.1,1.7c0.1,0.4-0.5,0.6-0.9,0.7c-0.8,0.2-1.7,0.3-2.5,0.6c-0.7,0.2-1,0.7-0.9,1.5c0.1,0.6,0.6,0.9,1.3,1.1
				c0.6,0.2,1.3-0.3,2,0.1c-0.3,0.5-0.7,0.5-1.1,0.7c-0.9,0.5-1.2,1.4-1.3,2.3c-0.1,0.9,0.2,1.5,1.3,1.5c0.7,0,0.5,0.6,0.2,1
				c-0.4,0.5-0.9,0.9-1.3,1.4c-0.6,0.7-0.2,1.7,0.6,1.9c1.7,0.4,3.2-1,2.9-2.7c0-0.1,0.1-0.2,0.2-0.4c0.9,1.6,0.9,1.6,2.6,1.2
				c0.5-0.1,0.8,0,1.2,0.2c1.5,0.7,1.9,0.4,2.6-1.1c0.3-0.7,0.6-2.2,1.8-0.7c0.4,0.5,0.6,0,0.9-0.4c0.6-0.6,1.5-0.8,2.2-0.5
				c0.6,0.3,0.1,1.1-0.1,1.7c-0.2,0.4-0.4,0.9-0.4,1.3c0,0.6-1.2,0.7-0.5,1.4c0.5,0.6,1.2,0.2,1.8,0.2c0.5,0,0.8-0.3,1.2-0.7
				c0.5-0.4,0.6-1.4,1.3-1.4c1.7,0.1,2.2-1.2,3-2.2c0.6-0.6,0.8-1.1,0.3-1.9c-0.2-0.3-0.7-1-0.1-1.3c1.8-0.7,2.2-2.1,2.2-3.8
				c0.1-1.1,0.9-1.2,1.6-0.7c1,0.6,1.6,0.2,2-0.7c0.2-0.3,0.5-1,0.6-0.8c0.9,0.9,1.8,0,2.7,0.1c0.6,0.1,1.3,0.5,1.6-0.5
				c0.3-0.8,0.6-1.8-0.2-2.2c-1.5-0.8-1.5-2.2-2.1-3.4c-0.1-0.3-0.3-0.7-0.5-0.8c-1.9-0.4-1.4-2.3-2-3.4c-0.8-1.3-0.3-3.3-0.3-5.1
				c0-0.2,0-0.5,0.3-0.5c0.1,0,0.4,0.2,0.4,0.2c-0.4,0.8,0.6,1.5,0.3,2.3c-0.1,0.5-0.8,1.1-0.1,1.4c1,0.3,2.2,1.3,3,0.6
				c1.8-1.9,3.2-0.7,4.8,0c0.8,0.3,1.7,0.8,2.2,0c0.5-0.7,1-1.7-0.2-2.5c-0.5-0.3-0.9-1-1.3-1.6c-0.6-1-0.1-1.9,1-2.1
				c0.7-0.1,1.1-0.2,0.7-1.1c-0.4-0.9-0.8-1.7-1.5-2.4c-0.3-0.3-0.5-0.5-0.2-1c0.8,0.2,1.4,0.8,2,1.4c0.5,0.6,1.3,0.6,1.9,0.3
				c0.5-0.3,0.4-0.9,0.1-1.4c-2-3.3-3.5-6.9-6.2-9.8c-0.3-0.3-0.5-0.8-0.1-1.1c0.3-0.3,0.8,0,1,0.2c0.6,0.8,1.8,1,2.4,1.9
				c0.5,0.7,1.2,0.6,1.5,0c0.3-0.5,0.9-0.6,1.3-1c-2-1-2-1-0.1-2.3c0.2-0.1,0.4-0.2,0.5-0.3c0.4-0.2,0.9-0.5,0.7-1
				c-0.2-0.5-0.8-0.6-1.3-0.3c-1.4,0.6-2.3-0.1-2.7-1.3c-0.7-2.2-2.3-3.2-4.4-3.7c-0.3-0.1-1.2,0.3-1-0.6c0.2-0.6,0.8-0.5,1.3-0.4
				c0.4,0.1,0.8,0.3,1.2,0.5c0.9,0.6,1.9,0.7,2.9,0.9c0.3,0.1,0.8,0,1-0.2c0.3-0.4-0.1-0.7-0.4-0.9c-1.2-1.1-2.3-2.2-3.6-3.1
				c-1-0.7-2.6-0.3-3.3,0.8c-0.3,0.5-0.6,0.8-1.1,0.8c-1.8,0.1-3.4,0.9-5.1,1.1c-0.4,0-0.8,0.1-0.6,0.6
				C237.8,250.2,236.9,250.1,235.8,250.1z M322.9,411.1c-0.7,0-1.2-0.9-1.9-0.3c-1.5,1.3-1.9,0.1-2.2-1c-0.6-2.1-2-3.7-2.8-5.7
				c-0.2-0.5-0.7-1.1-1.2-1.2c-1.6-0.3-2.1-1.4-2.7-2.6c-0.2-0.3-0.4-0.6-0.7-0.9c-0.2-0.2-0.5-0.4-0.9-0.2
				c-0.3,0.3,0.1,0.4,0.1,0.6c0.2,2.2,0.3,4.3,0.4,6.5c0,0.3-0.1,0.4-0.3,0.5c-0.3,0.1-0.4-0.2-0.4-0.4c-0.1-0.5-0.2-0.9-0.3-1.4
				c-0.2-1.8-0.5-3.5-0.7-5.3c-0.1-0.4,0-1-0.6-1c-0.5,0-0.4,0.5-0.5,0.9c-0.9,2.5,0.6,4.9,0.7,7.4c0.1,1.6,1.4,3,1.1,4.8
				c-0.1,0.8,0.3,1.6,0.3,2.5c0,1.6,0.2,3.2,0.1,4.8c-0.2,1.5,1.2,3.1-0.4,4.4c0,0,0.1,0.3,0.2,0.3c0.9,0.2,0.5,0.8,0.5,1.3
				c0.1,1.7-0.2,3.5,1.2,4.9c0.3,0.3,0.2,0.7,0.1,1.1c-0.5,1.2-0.7,2.4,1.1,2.8c-1.2,0.9-1.2,0.9-1.1,1.8c0.1,0.8-0.5,1.4-0.3,2.2
				c0.1,0.5,0.8,0.5,0.9,0.2c0.1-0.5,1.1,0.2,0.9-0.7c-0.1-0.5,0-1.1-0.1-1.7c0-0.3,0-0.6,0.3-0.7c0.3-0.1,0.5,0.1,0.7,0.3
				c0.5,0.6,1,0.9,1.8,0.8c2.1-0.1,4.1,0.1,6.2-0.3c1.4-0.3,3-0.7,4.2-0.3c1.9,0.6,2.9-0.6,4.2-1.3c1.1-0.6,2.3-1.5,0.9-3.1
				c-0.2-0.2-0.2-0.7-0.2-1.1c-0.1-1.2-1.5-2.1-0.7-3.4c-1.2-0.5-0.9-2.8-2.8-2.5c-0.6,0.1-0.5-0.6-0.5-1c-0.3-1.5,0.1-3.1-0.2-4.6
				c-0.4-2.5-1.5-4.9-1.8-7.4c-0.3-2-1.6-3.6-2.1-5.5c-0.2-0.8-0.6-1.1-1.3-1c-1.1,0.1-0.8,0.9-0.6,1.4
				C321.9,407.7,322.5,409.3,322.9,411.1z M298.9,310.3c-0.5-0.5,0-1,0-1.4c0.1-2.4-0.5-3.7-2.9-3.3c-0.7,0.1-0.8-0.3-0.9-0.8
				c-0.3-1.6,0-3.3-0.2-4.9c-0.1-0.4,0.1-1.1-0.7-1.1c-0.5,0-0.6,0.5-0.8,1c-0.5,1.1,0.3,2.1-0.1,3.1c-0.6,1.5-1.5,3-2.4,4.4
				c-0.4,0.6-0.9,0.9-0.6,1.8c0.2,0.5-1.5,3-1.8,2.8c-0.7-0.4-0.5-1.4-0.8-2c-0.1-0.2,0-0.5-0.5-0.5c-0.1,0.2-0.1,0.5-0.3,0.7
				c-0.2,0.4,0.4,0.9-0.2,1.1c-0.5,0.1-0.5-0.4-0.7-0.7c-0.3-0.6-0.6-0.2-0.8,0c-1,1-2.6,1.5-2.6,3.3c0,0.3-0.4,0.7-0.7,0.9
				c-1.8,0.8-0.9,1.9-0.2,2.8c0.5,0.7,0.9,1.3,0.6,2.2c-0.1,0.2-0.3,0.3-0.1,0.7c0.6,1,0,2.2-1.1,2.6c-0.7,0.2-1.1,0.1-0.9-0.7
				c0.3-1.1,0.1-2.2,0.2-3.3c0-0.4,0.4-1.1-0.4-1.1c-0.7,0-1,0.6-0.9,1.3c0.5,1.8-0.4,3.6,0,5.4c0.1,0.4-0.2,0.6-0.5,0.7
				c-1.2,0.3-2.1,1.3-3.3,1.6c-0.7,0.2-1.3,0.6-1.5,1.5c-0.1,0.7-0.6,1.2-0.9,1.8c-0.4-0.2-0.3-0.4-0.2-0.7c0.2-0.4,0.6-0.8-0.1-1
				c-0.4-0.1-0.9,0-1.1,0.7c-0.3,1.3-0.1,2.7-0.8,4c-0.2,0.3,0.1,0.5,0.3,0.6c1.3,0.6,3.9-0.2,4.7-1.5c0.6-1,2.8-1.7,3.7-1
				c1.1,0.9,1.7,0.4,2.3-0.6c0.2-0.3,0.1-1,0.8-0.8c0.5,0.1,0.6,0.6,0.7,1c0.1,0.4-0.1,1.2,0.8,1.2c0.9,0,1.8,0.3,2.7,0.4
				c1,0,2.2,0.7,3-0.7c0.3-0.5,0.8,0,0.8,0.2c0.2,1.3,1.2,1.3,2.1,1.5c1,0.1,2,0.1,3,0.3c2.1,0.3,4.2-1.4,4-3.5
				c-0.1-1.3,0.2-2,1.8-2.5c-1.9-0.2-1.4-1.2-1.4-2c0-2,0.8-3.9,0.9-5.9c0-1.3-0.4-2.7-0.4-4c0-1.9,0.4-3.8,0.5-5.7
				c0-0.7-0.6-1.7,0.3-2.3c-0.7-0.4,0.1-1.7-1-1.8c-1.1-0.1-0.6,0.9-0.8,1.5C299.1,308.2,299.6,309.3,298.9,310.3z M302.1,365.7
				c-0.4,0.4-0.9,0.7-1.3,1.1c-0.3,0.2-1,0.1-0.8,0.7c0.2,0.6,0.7,0.6,1.2,0.6c2.1,0,4.2,0.3,5.9-1.3c0.9-0.8,1.1-0.3,1.5,0.5
				c0.6,1.2,2.8,1.5,3.8,0.7c0.3-0.3,0.2-0.5-0.1-0.8c-0.9-1-1.5-2.2-2.6-3c-0.9-0.6-0.6-1.7,0-2.3c0.6-0.5,1.6-0.5,2.1,0.4
				c0.5,0.8,1.1,0.9,1.9,1c2,0.4,4.6-0.5,5.5,2.5c0.2,0.7,1.6,1,2.4,0c0.5-0.7,1.1-0.9,1.9-1c1.5-0.2,3-0.3,4.4-0.6
				c0.4-0.1,1.1-0.1,1.1-0.7c0-0.7-0.8-0.6-1.1-1c-0.3-0.3-0.6-0.1-0.9,0.1c-0.9,0.6-1.9,0.2-2.3-0.4c-0.8-1.2-2.2-1.5-3.2-2.5
				c-2.2-2.1-5.2-3.4-7.4-5.6c-1.3-1.3-2.3-2.3-3.1-4.1c-1.1-2.7,0.9-4.7,0.5-7c0-0.1,0.2-0.2,0.3-0.3c2.5-1.7,2.4-5.8,0.7-7.7
				c-0.4-0.4-0.9-0.6-1.5-0.4c-0.5,0.2-0.9,0.6-0.8,1.1c0.4,1.4-0.3,2.2-1.5,2.7c-0.4,0.2-0.4,0.6-0.5,1c-0.5,1.7-0.3,3.7-2.5,4.3
				c0,0-0.1,0.1-0.1,0.1c-0.6,1.9-2,3-3.8,3.7c-0.5,0.2-0.1,0.2,0,0.3c0.5,1.5,0,2.1-1.6,1.7c-0.6-0.1-1.2-0.4-1.8,0.2
				c-1.2,1.1-2.6,1.8-4.2,1.7c-2.5-0.1-4,1-4.6,3.4c0,0.1-0.1,0.2-0.2,0.3c-0.7,0.7-0.3,1.3,0.1,1.8c0.5,0.7,1.2,0.9,2.1,0.9
				c1.6-0.1,3,0.9,2.8,1.8c-0.3,1,0,1.2,0.9,1.4c0.6,0.2,1.4,0.3,1.4,1.3c-0.1,2.3,1.2,3.4,3.4,3.1
				C300.8,365.3,301.5,365,302.1,365.7z M284,182.6c-0.6,0.3-0.9,0.5-1.2,0.6c-0.3,0.2-0.8,0.2-0.7,0.7c0.1,0.4,0.5,0.4,0.8,0.4
				c0.8-0.1,1.6,0.1,1.6,1.1c0.1,1.1-0.9,0.8-1.5,1.1c-0.1,0.1-0.2,0-0.3,0.1c-0.4,0.3-1.2,0.1-1.1,0.7c0.1,0.6,0.8,0.6,1.3,0.5
				c1.3-0.2,2.6-0.3,4-0.4c1-0.1,2.7,0.1,2.6-1.9c0-0.4,0.5-0.5,0.8-0.6c1.2-0.2,2.4-0.4,3.6-0.7c1.1-0.3,2.5-0.6,3-1.6
				c0.5-1,0.9-2.2,0.5-3.5c-0.3-0.9,0-1.2,0.9-1c0.7,0.2,1.4-0.2,1.1-0.8c-0.3-0.6,0.1-1.9-1.3-1.9c-0.3,0-0.5-0.3-0.5-0.8
				c0.1-0.9,0.1-1.9,0.4-2.8c0.4-1.3,0.1-1.8-1.3-1.9c-1.4-0.1-2.1-1.3-1.5-2.3c0.7-1,0.4-2-0.7-2c-1.6,0-2.2-1.6-2.1-2.1
				c0.3-0.9,0.1-2.6,1.8-2.8c0.3,0,0.9-0.5,0.3-0.7c-1.2-0.4-2.1-1.4-3.2-1.9c-0.5-0.2-1,0.1-1.1,0.6c-0.1,0.4-0.5,1-0.8,0.8
				c-0.9-0.6-1.6-0.2-2.4,0.2c-0.2,0.1-0.5-0.1-0.7-0.3c-0.8-1-0.8-1-1.8-0.3c-0.4,0.3-0.8,0.8-1.4,0.1c-0.3-0.3-0.7-0.4-1-0.1
				c-0.4,0.3-0.5,0.7-0.3,1.1c0.1,0.3,0.3,0.7-0.2,1c-0.1-0.1-0.3-0.1-0.3-0.3c-0.3-1-1.1-0.8-1.7-0.6c-0.8,0.4-0.1,0.8,0.1,1.3
				c0.4,0.9,0.1,1.5-0.9,1.7c-1.3,0.2-1.1,1.1-0.7,1.7c1,1.2,0.4,2.1-0.3,3.1c-0.4,0.6-0.7,1-0.1,1.8c0.3,0.3,1.6,2.1-0.7,2.1
				c-0.7,0-0.6,1-1.1,1.4c-0.2,0.1,0.2,0.6,0.4,0.6c1.3-0.2,2.6,0.8,3.9,0.2c0.5-0.2,0.8-0.3,1,0.2c0.3,0.7-0.1,0.8-0.6,1
				c-0.9,0.3-1.9,0.3-2.6,1.2c0.6,0.6,1.3,0.4,2,0.3c0.7-0.1,1.7-0.2,1.7,0.6c0,1.1,1.1,2.1,0.4,3.3c-0.3,0.4-1.4,0.4-0.9,1.2
				c0.3,0.6,1.1,0.1,1.6,0.1C283.2,182.4,283.4,182.5,284,182.6z M273.2,271.6c0.6,0.3,1.5,0.1,1.7,0.7c1,3.2,1.1,0,1.5-0.2
				c0.2-0.1,0.2-0.5,0.6-0.4c-0.2,1.9-0.5,3.9-1.4,5.6c-0.6,1.1-0.1,1.4,0.7,1.5c1,0.1,1.3,0.8,1.5,1.4c0.3,1.1,0.6,1.5,1.6,0.6
				c0.3-0.3,0.8-0.1,0.8,0.1c0.1,1.1,1.3,1.9,1,3.2c-0.3,1.8,0.7,3.1,1.8,4.4c0.7,0.7,1.6,0.6,1.7-0.3c0.2-0.9,1.1-1.4,0.9-2.4
				c-0.1-0.3-0.3-1.5,0.7-1.5c0.8,0,0.9,0.7,1.1,1.3c0.1,0.2,0.4,0.4,0.4,0.7c0.3,1,0.6,0.7,1.3,0.1c1.7-1.5,2.1-3.6,2.8-5.6
				c0.2-0.7,0.1-1-0.3-1.4c-0.3-0.3-0.7-0.5-1-0.1c-0.4,0.4-0.2,0.8,0.1,1.3c0.7,1.1-0.2,1.1-0.8,1c-1.5-0.1-1.3-1.4-1.1-2.2
				c0.3-1.3,0-2.5-0.4-3.8c-0.1-0.3-0.2-0.8-0.6-0.9c-0.5-0.1-0.5,0.4-0.6,0.8c-0.1,0.3-0.2,0.5-0.5,0.5c-0.5-0.1-0.3-0.5-0.3-0.8
				c-0.1-0.5,0-1.4-0.2-1.5c-1.6-0.6-1.5-2.7-3.3-3.4c-1-0.4-1.1,0.2-1.6,0.4c-0.2-0.6-0.6-1.1-0.4-1.8c0.2-0.7,0.9-0.8,1.1-1.9
				c-1.7,1.3-1.7,0.2-1.9-0.8c0-0.4-0.2-0.7-0.2-1.1c-0.1-0.6-0.3-1.3-0.9-1.3c-0.8,0-0.2,0.9-0.5,1.3c-0.1,0.1-0.2,0.1-0.3,0.1
				c-0.5-0.6-0.6-1.4-0.8-2.2c-0.1-0.4-0.3-0.6-0.7-0.5c-0.4,0-0.8,0.2-0.8,0.6c0.1,1.3-0.9,2-1.6,3.1c2.9,0.4,1,2.4,1.1,3.6
				C275.5,271,274.7,271.9,273.2,271.6z M204,367.2c0.6-1.9,1.5-3.2,3.5-3.1c0.5,0,0.9-0.2,1.4-0.3c0.5-0.1,1-0.2,1.1-0.8
				c0-0.3-0.2-0.8-0.5-1c-0.4-0.3-1-0.3-1.3,0.1c-0.5,0.6-1.1,0.5-1.7,0.6c-1.2,0.2-2.5,0.5-3.7,0.7c-2.5,0.4-5,0.9-7.6,1.3
				c-0.3,0-0.6,0-0.7-0.3c-0.1-0.3,0.1-0.5,0.3-0.6c0.4-0.2,0.7-0.6,1.1-0.6c2.2-0.2,4-1.5,6-2.4c0.3-0.1,0.7-0.2,0.6-0.6
				c-0.1-0.5-0.5-0.3-0.9-0.3c-1.6,0.1-3.1,0.2-4.6,0.6c-0.6,0.2-1.1,0.2-1.7-0.4c-1.5-1.5-3.6-1.3-5.2-0.8c-2.4,0.7-5,1-7.4,1.6
				c-1.6,0.4-3.3,0.8-5.1,0.8c-0.5,0-1.5,0.4-1.1,1c0.6,0.9,1.4,2.3,2.4,2.2c2.6-0.2,5.3-0.1,7.8-1.2c1.5-0.7,3.2-1.2,4.9-1.2
				c0.6,0,1,0.2,1.1,0.9c0.1,0.9-0.6,0.7-1.1,0.7c-2.6,0.3-5.2,0.7-7.7,1.5c-0.9,0.3-1.9,0.3-2.8,0.6c-0.3,0.1-1.1,0.3-0.8,0.9
				c0.2,0.5,0.9,0.6,1.4,0.3c0.9-0.5,1.8-0.7,2.7-0.9c1.1-0.2,1.7,0.7,2.7,0.7c1.9,0,3.8-0.5,5.5-0.2c3,0.6,5.9,0.1,8.7-0.6
				c0.6-0.1,1.1,0,1.4,0.6c-0.7,0.6-1.5,1.1-2.2,1c-1.2-0.2-2.3,0.3-3.4,0.5c-0.8,0.2-1.3,0.3-1.2,1.3c0.1,0.9,0.5,1.3,1.5,1.3
				c1.9,0,3.7-0.3,5.6-0.5c1.2-0.1,2.1,0,2.3-1.5c0.1-0.6,0.7-0.6,1.1-0.7c3-0.5,6.1-1.3,9.2-1.4c1,0,2-0.2,2.9-1
				c-0.8-0.6-1.5-0.8-2.4-0.5c-1.2,0.3-2.5,0.8-3.7,0.5c-1.7-0.3-3.3,0-4.8,0.5C206.4,367.2,205.3,367,204,367.2z M262,225.8
				c0,1.6,2.3,4.5,4.2,5c0.6,0.1,1.1,0.4,1.6,0.7c1.6,0.9,2.5,2.6,4,3.7c0.6,0.5,1,1.9,1.3,2c2.4,1.3,3.5,3.7,5.4,5.4
				c1.9,1.6,3.9,3.1,5.1,5.2c0.7,1.3,2.4,1.8,2.6,3.4c0.1,0.8,0.9,0.8,1.4,0.6c0.7-0.2,0.1-0.7,0.1-1.2c-0.1-1.3-1.1-2.1-1.6-3.2
				c-0.8-1.9-2.5-2.8-3.8-4.1c-0.4-0.4-1.3-0.3-1.3-1c0-0.7,0.9-0.5,1.4-0.9c1.1-0.8,1.3-0.1,1.3,0.8c0,0.8,0.4,1.4,0.8,1.8
				c0.9,1,1.9,2,2.4,3.3c0.2,0.5,0.8,0.7,1.4,0.5c0.6-0.2,0.6-0.7,0.5-1.2c-0.2-1-0.5-1.8-1.5-2.3c-0.6-0.3-1.4-0.9-1-1.4
				c1.1-1.4,0-1.3-0.9-1.5c-0.4-0.1-0.8-0.3-0.8-0.7c-0.1-1.6-1.5-2-2.5-2.7c-0.4-0.3-1-0.4-1.4-0.8c-3-2.4-5.8-5.1-9.2-7
				c-0.3-0.2-0.6-0.4-0.7-0.8c-0.3-1.1-1.1-1.7-1.9-2.2c-0.5-0.3-0.7-0.6-0.9-1.2c-0.4-1.2-3.2-2.7-4.4-2.5
				C262.5,223.8,261.9,224.3,262,225.8z M337.6,319.2c-0.5,1.6-0.6,1.7-1,1.4c-1.2-0.9-1.6,0.7-2.5,0.7c-0.3,0,0.9,0.3,0.7,0.9
				c0,0.1,0,0.2,0,0.3c-0.1,0.3-0.2,0.7,0.3,0.8c0.4,0.1,0.6-0.2,0.8-0.4c0.3-0.3,0.2-0.9,0.7-1c0.9,1.1,1.3,1.1,1.8-0.1
				c0.3-0.7,0.6-1.4,0.8-2.1c0.2-0.8,0.7-1.2,1.3-1.6c0.4-0.3,1-0.2,0.9,0.3c-0.2,0.9,0.6,1.5,0.2,2.3c-0.2,0.4,0.3,1.2-0.8,1
				c-0.5-0.1-0.6,0.8-0.6,1.3c0,0.4,0.4,0.5,0.7,0.3c1.4-0.7,1.3,0.5,1.3,1.1c-0.1,1.4,0.3,2.7,1,3.9c0.2,0.3-0.1,1.1,0.6,0.9
				c0.5-0.2,0.8-0.9,0.6-1.4c-0.6-1.2-0.2-1.9,1.1-2.3c-0.6-0.3-1.3,0.2-1.4-0.7c-0.2-1.5-0.4-3.1-0.5-4.6c-0.1-0.7,0.7-1.5,0.8-1.3
				c0.8,1,2.1,0.3,3,0.8c-0.4,1-2,0.2-2,1.6c0,0.9,1,0.5,1.2,1.1c-0.3,0.2-0.6,0.4-0.9,0.6c-0.3,0.2-0.5,0.4-0.3,0.8
				c0.2,0.3,0.5,0.4,0.8,0.3c1.5-0.7,3.3-0.8,4.3-2.5c0.3-0.5,0.7-0.8,1.1,0.1c0.5,1.1,2,1.3,3.2,0.3c0.8-0.7,0.7-1.6,0-2.3
				c-1.6-1.5-2.2-3.6-3.3-5.4c-0.6-1-1.6-1.5-2-2.6c-0.8-1.9-1.8,0.1-2.7,0.1c-0.2,0-0.4-0.2-0.6,0.1c0.9,0.6,1.6,1.7,1.5,2.6
				c-0.1,0.9-1.4,0.2-2.1,0.6c-0.6,0.3-0.9-0.1-1.1-0.6c-0.2-0.8-0.8-1-1.4-1c-1.4,0-2.8,0.1-3.6,1.6c-0.2,0.4-0.5,0.6-0.9,0.5
				c-1.5-0.3-1.8,1.1-2.4,1.9c-0.3,0.4-0.4,1.1,0,1.7C336.6,319.8,337.2,319.2,337.6,319.2z M276,226.2c-0.4-0.2-0.3-0.5-0.4-0.8
				c-0.1-0.7,0.3-1.8-0.4-2c-0.9-0.2-1.4-1.6-2.7-1c-0.4,0.2-0.6-0.3-0.8-0.7c-1-2-3.2-2.9-5.3-2.1c-0.7,0.2-1,0.9-1.4,1.4
				c1.2,0.2,1,1.7,1.7,2.2c1.7,1.1,2.5,3,4.2,4.1c1.7,1.1,2.7,3,4.7,4c2,1,3.3,3.3,5.6,4.1c0.6,0.2,1.1,0.8,1.6,1.2
				c0.8,0.7,1.7,1.5,2.9,1.6c1.2,0.2,2-0.5,2.3-1.5c0.2-0.8-0.1-1.7-1.3-1.7c-0.3,0-0.6-0.2-0.7-0.5c-0.3-1.1-0.5-2.2-1.9-2.4
				c-0.3-0.1-0.1-0.6-0.1-0.8c-0.2-1-0.3-2.6-0.9-3c-1.4-0.7-2.2-2.1-3.5-2.8c-0.5-0.3-1.2,0.1-1.4-0.5c-0.2-0.6-0.4-1.4-1.2-1.1
				c-0.8,0.3-0.6,1.1-0.6,1.8C276.3,225.9,276.1,226,276,226.2z M348.1,353c0.3,0.6-0.2,1.1,0,1.3c1.3,1.1,0.5,2.3,0.3,3.5
				c-0.1,0.7-0.1,1.5,0.4,1.9c0.5,0.5,1.3,0.4,2,0c0.6-0.4,0.9-0.9,0.7-1.7c-0.1-0.5-0.1-1,0.5-1.2c1.2-0.3,0.4-0.8,0.3-1.3
				c-0.3-1-2.1-2.1,0-3.1c0.5-0.2,1.3-0.5,1-1.2c-0.2-0.5-1.1-0.5-1.6-0.4c-2.3,0.6-4.7,0-6.5-0.9c-2.2-1.1-4.3-1.3-6.5-1.6
				c-2-0.4-4-0.6-6-0.8c-1.3-0.1-3,1.1-2.5,1.5c1.2,1.2-1.1,2.3,0.1,3.4c-0.5,0.4-0.5,1-0.7,1.6c-0.2,0.6-0.2,1.3,0.4,1.7
				c0.9,0.5,1.8,0.5,2.8,0.1c0.7-0.3,1.1-1,0.8-1.6c-0.8-1.9,0.6-1.8,1.7-1.9c0.9-0.1,1.9-0.1,2.9,0.2
				C341.3,353.3,344.7,353.7,348.1,353z M241.5,241.9c0.8,0.1,1.5,0.3,2.2,0.4c2.4,0.2,4.9-0.1,7.1,1.3c0.9,0.5,1.6,0.9,0.7,1.9
				c-0.4,0.5-0.2,0.8,0.1,1.2c1.2,1.9,2.4,3.9,3.6,5.7c0.4,0.6,1.1,1.5,1.9,0.9c0.9-0.7,1-0.2,1.3,0.5c0.4,0.8,1.1,1.5,1.1,2.6
				c0,0.5,0.5,1,1,1.1c0.5,0.2,0.9,0.4,1.1,0.9c0.4,1.6,1.8,2.7,1.9,4.3c0.1,1.1,1.3,1,1.6,1.9c0,0.1,0.8,0.3,0.8-0.6
				c-0.1-1.4-0.3-2.9-1-4c-0.4-0.6,0.1-1.6-0.8-1.9c-0.9-0.4-0.9-1.2-1.3-2.1c0.7,0,1.3,0.2,1.8-0.2c0.4-0.3,0.7-0.5,0.2-1
				c-2-2-3.2-4.7-6-5.8c-0.4-0.2-0.7-0.5-1-0.8c-0.3-0.2-0.4-0.6-0.1-0.8c1-0.8-0.1-1-0.4-1.5c-0.6-0.9-2.1-0.7-2.6-1.5
				c-0.8-1.3-2-1.8-3.4-2c-0.6-0.1-1-0.2-1.5-0.7c-1-1.1-2.5-1.6-3.9-1.4c-1.3,0.1-3.2-1-3.8,1.3
				C242.1,241.6,241.5,241.3,241.5,241.9z M310.4,326.1c0-0.8,0.1-1.5,0-2.1c-0.1-0.6,0.2-1.9-1.3-1c-0.5,0.3-1.5-0.2-1.6-1.2
				c-0.1-1.5-0.2-3.1,0.1-4.6c-0.2,0-0.3,0-0.4,0c-0.6,0.3-1,1.3-1.7,0.8c-0.6-0.4,0-1.3,0.2-1.9c0.1-0.5,0.3-1-0.4-1.2
				c-0.6-0.1-0.5,0.5-0.7,0.8c-1.1,1.3-1.1,2.9-1.3,4.4c-0.4,2.4-0.2,4.7-0.4,7.1c-0.2,2.2,0,4.4-0.6,6.5c2.3,0.8,1.5-1.9,2.7-2.4
				c-0.3,0.6,0,1.2,0.1,1.7c0.1,0.4-0.3,1,0.4,1.3c1.7,0.7,3.9-0.5,4.2-2.3c0.1-0.5,0.1-1,0.1-1.6c-0.1-1.3,0.1-2.5,1.2-3.7
				c0,1.4,0.5,2.5,0.1,3.7c-0.2,0.6,0,1.2,0.5,1.4c0.8,0.3,0.4-0.5,0.6-0.8c0.6-0.6,0.4-2,1.8-2.1c-1.4-0.3-1.2-1.5-1.5-2.4
				C311.9,325.2,311.3,325.3,310.4,326.1z M220.8,381.2c-0.7-0.4-1.6-0.3-1.6-1.4c0-1,0.7-1.3,1.4-1.7c0.5-0.3,0.9-0.5,0.6-1.1
				c-0.8-1.2,0.2-1.8,0.9-2.4c0.3-0.3,1-0.4,0.7-1c-0.3-0.6-0.8-0.4-1.3-0.3c-1.7,0.4-3.3,1.2-5.3,0.9c-1-0.1-2.6,0.4-2.4,2.6
				c0.1,1.3-0.1,3.1-1.2,4.3c-0.6,0.6-0.8,1.2-0.8,2c-0.1,1-0.3,2.1-1,2.8c-1.3,1.4-0.8,2.9-0.4,4.4c0.3,1,2.2,1.8,2.3,1.3
				c0.2-1.5,1.8-2.3,1.9-3.9c0.1-1.4,0.5-2.8,0.8-4.2c0.1-0.3,0.3-0.7,0.7-0.5c0.2,0.1,0.4,0.5,0.2,0.6c-1.2,0.7-0.2,1.6-0.3,2.4
				c-0.2,2.1,1.3-0.2,1.8,0.6c0.2,0.3,0.6,0.4,0.9,0.6c1.2,0.6,2.3,1.2,3.9,0.9c-1.1-1.1-2.8-0.6-3.7-1.7c0.6-0.4,1.2-0.8,2-1.3
				c-0.5-0.1-0.7-0.2-0.9-0.2c-0.6,0.1-1.2,0.2-1.4-0.4c-0.3-0.6,0.1-1.1,0.5-1.6C219.4,382.3,220.1,381.8,220.8,381.2z
				 M339.2,308.8c1.9-0.1,3.7-0.6,5.4-1.4c1.1-0.5,1.4-2,1.4-3c0-0.7-1.4-0.8-2.2-1c-2.2-0.5-4.4-0.6-6.6-1.6
				c-1.4-0.7-3.1-0.7-4.7-0.8c-0.8-0.1-1.4,0.2-0.7,1.2c0.3,0.5,1,1,0.8,1.8c-0.3,1.5,1.7,4.4,3.2,4.4
				C337.1,308.5,338.1,308.9,339.2,308.8z M359.1,345.6c-2.4-0.1-4.4-0.3-6.5-0.3c-1,0-1.2-1.2-2.3-0.9c-3.1,0.8-6.1-0.1-9.2-0.1
				c-0.6,0-1.5,0-1.1-1.1c0.1-0.4-0.2-0.5-0.5-0.6c-2-0.3-4-0.7-6-0.7c-1.2,0-2.9-1.1-3.8,0.9c-0.1,0.2-0.4,0.2-0.5,0
				c-0.5-0.6-1.2-0.7-1.3,0.1c-0.1,0.6,0.4,1.6,1.2,1.4c1-0.2,1.8,0.3,2.7,0.4c2,0.1,4,0.5,6.1,0.4c3.4-0.1,6.8,0.8,10.3,1.1
				c2.9,0.2,5.7,1.1,8.6,1.2c2.1,0.1,4.3,0.3,6.4,0c0.4-0.1,0.9-0.1,1-0.6c0.1-0.5-0.5-0.4-0.7-0.7c-0.5-0.6-1.4-0.3-1.9-0.8
				c-0.9-0.9-2.9-1.1-4.1-0.4C357.8,345.5,358.5,345,359.1,345.6z M322.5,384.6c1.8,0.1,1.6,1.4,1.8,2.4c0.4,2,0.9,4,1.9,5.8
				c0.2,0.4,0.9,1,1,0.5c0.1-0.8,1.3-1.1,0.8-2.4c-0.4-0.9-0.5-2.4-0.4-3.6c0.2-2.6,0.8-5.2,1-7.8c0.1-2.2,0.9-4.4,0.6-6.7
				c0-0.4,0.3-1-0.3-1.1c-0.6-0.2-1,0.4-1.1,0.9c-0.2,0.7-0.3,1.4-0.9,1.9c-0.5,0.5-0.6,1.1-0.8,1.8c-0.3,1.2,0,2.6-1.4,3.5
				c-0.6,0.4-1.6,1.4-1.1,2.6C323.9,383.5,323.6,384.1,322.5,384.6z M312.1,263.3c-0.3,2.3,1.2,4.2,0.9,6.4c0,0.4,0.4,0.9,0.7,1.2
				c1.2,1.4,3.2,2.2,3.7,4.3c0.2,0.7,0.9,0.6,1.2-0.1c0.4-0.8,0.3-1.7-0.3-2.3c-0.3-0.3-0.8-0.6-0.6-1c0.6-1.1-0.3-1.6-0.9-2.1
				c-0.4-0.4-0.7-0.8-0.5-1.2c0.8-2-2.4-2.8-1.4-4.8c-1.2-0.6-1.1-1.9-1.5-2.9c-0.2-0.6-0.6-1.2-1.1-1.5c-1.1-0.6-2-1.3-2.4-2.5
				c-0.2-0.4-0.4-0.9-1-0.7c-0.6,0.2-0.3,0.7-0.3,1.1c0.2,1.7,1.2,3.1,1.3,4.8C309.8,263.3,310.3,264.3,312.1,263.3z M321.4,303.1
				c0.7,0.2,1.2,0.7,1.6,0.6c1.8-0.4,1.6,1,1.8,1.9c0.1,0.4-0.3,0.9,0.3,1c0.4,0.1,0.8-0.2,1.2-0.4c1-0.7,0.8-2,1.6-2.9
				c0.3-0.4,0.4-0.7-0.2-0.8c-0.4-0.1-0.9-0.1-1,0.5c-0.1,0.4-0.1,0.7-0.2,1.1c-0.1,0.3-0.4,0.4-0.7,0.2c-0.3-0.1-0.4-0.5-0.2-0.7
				c1-0.5,0.5-1.6,1.1-2.4c0.8-1-0.2-3.2-1.3-3.8c-0.8-0.4-1.5-0.9-1.9-1.8c-0.5-1.1-1.5-0.4-2.2-0.4c-0.6,0-0.7,0.3-0.8,1
				c-0.5,2.1,1.1,3.4,1.8,5c0.1,0.2,0.1,0.3,0.1,0.4c-0.3,0.3-0.9-0.3-1.2,0.4C321.3,302.3,323.1,302.1,321.4,303.1z M335.5,375.1
				c0.6,0.1,1,0.3,1.3,0.5c0.9,0.7,2,0.5,2.9,0.1c0.8-0.3,0.2-1.3,0.4-1.6c0.8-1.1-0.1-2.7,1.1-3.7c0.3-0.2,0.2-0.5,0.2-0.8
				c-0.3-1-0.1-2.1-0.2-3.2c-0.1-0.8,0.9-0.6,0.7-0.9c-0.3-0.5-0.9-0.9-1.4-1.1c-0.5-0.2-1.4-0.2-1.6,0.4c-0.4,1.4-1.5,2.3-2,3.5
				c-0.5,1.5-1.4,3.2-0.6,4.6C337.1,374.3,336.7,374.6,335.5,375.1z M256.1,231.3c0.1-0.2,0.1-0.3,0.2-0.4c0.7-0.3,1.5-0.6,1.2-1.6
				c-0.2-0.7-1-1.1-1.7-0.8c-0.8,0.2-1.5,0.6-1,1.7c0.3,0.7-0.4,0.8-0.8,0.7c-1-0.2-2-0.1-2.9,0.5c-0.3,0.2-1.1-0.1-0.9,0.9
				c0.2,1,0.7,0.6,1.3,0.6c1.4,0.2,3.1-0.9,4.2,0.9c0.2,0.3,0.7,0.1,1,0c0.6-0.3,1.3-0.6,2-0.9c-0.1,1.8,1.6,3.1,3.3,2.6
				c0.8-0.2,3,0.7,3.2,1.4c0.4,2.1,2.2,2.3,3.7,3c0.3,0.1,0.6,0.2,0.8-0.2c0.2-0.5-0.1-0.6-0.4-0.9c-0.6-0.5-1.4-0.7-1.9-1.4
				c-1.1-1.8-2.9-2.7-4.6-3.7c-0.9-0.6-1.9-1.7-3-1.4C257.9,232.9,257.2,231.8,256.1,231.3z M373.7,317.6c-0.4-0.3-0.9-0.5-1-0.9
				c-1.2-2.2-3.1-3.8-4.3-5.9c-0.5-0.8-0.8-1.8-1.6-2.6c-0.8-0.8-2-1.5-2.4-2.6c-0.6-2-2.3-3.1-3.2-4.9c-0.1-0.3-0.5-0.4-0.9-0.2
				c-0.2,0.1-0.4,0.4-0.3,0.5c0.5,0.6,0.5,1.6,1,2.1c1.9,2,3.2,4.2,4.1,6.8c1.1,3.3,3.2,6.1,6.3,8
				C372.1,318.3,372.9,318.4,373.7,317.6z M324.2,286.5c-0.2-0.5-0.7-0.2-0.7-0.3c-0.9-1.9-3.1-2.5-4.2-4.2
				c-0.3-0.5-0.9-0.8-1.5-0.6c-0.7,0.2-0.6,0.9-0.5,1.3c0.2,0.7,0,1.2-0.2,1.8c-0.3,0.9-0.6,2.4,0.1,2.7c2,0.7,2.8,2.9,4.8,3.5
				c0.6,0.1,1.2,0.7,1.6,0.2c0.4-0.5,0.7-1.4,0.2-2C323.1,287.9,323.5,287.2,324.2,286.5z M344,488.2c0.1-1,0.2-2.3-0.4-3.5
				c-0.2-0.3,0.3-1-0.5-0.9c-0.5,0-0.5,0.5-0.7,0.9c-0.7,1.6,0.6,3,0.3,4.6c-0.3,1.6,0.3,3.3-1.4,4.6c-0.5,0.4-1.5,1.3-1.2,2.2
				c0.2,0.8,0.4,1.4-0.1,2.1c-0.3,0.4,0,0.8,0.4,1.1c0.5,0.3,0.8,0.1,1-0.4c0.2-0.5,0.4-0.9,1.1-1c2-0.2,3.8-3.4,2.6-4.9
				C344,491.6,344.1,490.1,344,488.2z M274.6,291.9c2.7-0.1,3.3-1.4,3.4-3.2c0-1.1-1.4-2.4,0.2-3.4c0,0,0-0.2-0.1-0.2
				c-0.8-0.2-0.8-1-1.1-1.6c-0.3-0.7-1-0.3-1,0.2c-0.2,1.4-1,2-2.3,2.2c-0.3,0-0.3,0.4-0.4,0.6c-1.1,1.5-2.1,3,0,4.4
				c0.1,0.1,0.1,0.3,0.2,0.4C273.6,291.9,274.1,291.9,274.6,291.9z M285.7,208c-1-0.5-1.8-0.2-2.5-0.1c-1.5,0.4-3.1,0.4-4.3-0.6
				c-1-0.7-1.9-0.8-3-0.8c-0.4,0-0.9,0.1-1.3,0c-3-1-6-2.1-9-3.1c-1.5-0.5-3-0.9-4.8-0.9c1,1,7.7,3.7,8.7,3.8c2.6,0.1,4.9,1.4,7.4,2
				C279.8,209.1,282.7,209.5,285.7,208z M291.3,454.7c0.8-0.8,2.5-0.8,3-2.2c0.6-1.5,1.4-2.5,3.1-2.8c0.6-0.1,1-0.4,0.6-1.1
				c-0.5-0.9,0.3-2.4-1.3-2.7c-0.6-0.1-1,0.4-0.9,0.9c0.2,1.5-0.8,1.7-1.9,1.9c-0.5,0.1-0.9,0.4-1.2,0.7c-0.3,0.3-0.5,1-1.1,0.8
				c-0.6-0.2-0.3-0.8-0.4-1.3c-0.1-0.4-0.2-0.9-0.8-0.7c-0.5,0.2-0.9,0.6-0.6,1.1c0.8,1.5,0.8,3,0.5,4.6
				C290.3,454.5,290.6,454.8,291.3,454.7z M299.3,437.1c0.1,0.1,0.1,0.3,0.2,0.4c0.7-0.3,1.3-0.5,2-0.8c0.9-0.3-0.6-1.7,0.8-1.9
				l-1-4.4c-0.1-0.3,0-0.5,0.1-0.8c0.9-1.6-0.1-2.9-0.7-4.3c-0.2-0.4-0.5-0.5-0.9-0.1c-0.3,0.3-0.7,0.5-1.1,0.6
				c-0.7,0.2-1.3,0.7-1.2,1.3c0.3,1.1-0.2,2.5,0.8,3.5c0.1,0.1,0.2,0.1,0.3,0.1c2-1,1,0.7,1,1.2c0,1-0.1,2,0.4,2.8
				C300.6,435.8,300.2,436.5,299.3,437.1z M219.3,633.9c0.6,2.1,2.7,2.8,3.8,4.6c1.1,1.9,4,2.5,6.5,2.4c0.4,0,0.9-0.2,1.2-0.4
				c0.4-0.3,0.7-0.7,0-1.1c-1.6-1-3.2-2.1-5.1-2.8c-1-0.3-2-0.9-3-1.3C221.6,634.8,220.9,633.2,219.3,633.9z M348.9,373.4
				c-0.5-0.7-1.4,0.1-1.4-0.8c0-1,0.1-1.9,0.4-2.8c0.2-0.5,1.5,0.1,1.3-1.1c-0.2-1-1-0.6-1.6-0.8c-0.2-0.1-0.3-0.3-0.4-0.5
				c-0.7-0.8-1.3-0.7-1.6,0.3c-0.9,2.4-1.4,5-1.7,7.5c0,0.4,0.2,0.8,0.5,0.9c0.5,0.2,2.9-1,2.8-1.4
				C347,373.3,347.9,373.4,348.9,373.4z M286.8,406.8c0.5,0.6,0.1,1.9,1.3,1.7c0.9-0.2,0.6-1.1,0.8-1.8c0.2-1.2-0.4-2.5,0.1-3.7
				c0.2-0.4,0.3-1.5-0.4-1.7c-0.9-0.4-1.1-1-1.3-1.8c-0.2-0.7-0.8-0.9-1.4-0.3c-0.7,0.8,0.2,2.1-0.7,2.9c1.5,1.4,0.5,3,0.5,4.5
				c0,0.4-0.7,0.9-0.1,1.3C286.2,408.1,286.3,407.1,286.8,406.8z M302,277.9c-0.5,0.1-1.2-0.2-1.5,0.3c-0.4,0.6,0,1.1,0.4,1.6
				c0.3,0.4,0.5,0.8,0.8,1.1c0.8,1.2,2.4,1.9,2.7,3.4c0.2,0.9,0.4,1.5,1.3,1.2c0.7-0.3,1.7-0.7,0.9-2c-0.7-1.1-0.2-2.9-1.9-3.5
				c-0.1,0-0.1-0.3-0.1-0.4C304.3,278.2,303.3,277.8,302,277.9z M334.2,368.1c-0.1-0.7,0.5-1.6-0.5-1.9c-1.1-0.3-1.8,0.6-2,1.5
				c-0.4,1.8-0.6,3.7-0.8,5.6c-0.1,0.7-0.1,1.4,0.2,2c0.1,0.3,0.2,0.8,0.6,0.8c0.5,0,0.8-0.3,0.9-0.7
				C333.1,372.8,334.6,370.6,334.2,368.1z M345.3,387.9c0-0.3,0-0.5,0-0.8c0-0.8,0.1-1.9-1-2c-1-0.1-1.4,0.8-1.5,1.7
				c0,0.4,0,0.7-0.1,1.1c-0.3,1.9,0.7,3.9-0.5,5.7c-0.2,0.4-0.3,1.6,0.5,2c0.9,0.4,1-0.6,1.5-1c1-0.8-0.1-1.8,0.4-2.5
				C345.4,390.8,345.2,389.3,345.3,387.9z M337,295.7c-0.1-0.6-0.6-0.8-1-0.9c-1.6-0.5-2.9-1.3-4.2-2.3c-1.1-0.9-2.4-1.5-3.7-2.1
				c-0.4-0.2-1-0.3-1.3,0.3c-0.2,0.5-0.1,0.9,0.3,1.4c1.4,1.9,3.7,2.1,5.4,3.4c0.3,0.2,0.8,0.3,1.2,0.3c0.7,0,1.4-0.1,2.1,0.5
				C336.3,296.6,336.8,296.3,337,295.7z M431,354c-1.3,0-3,1.1-3.1,2.3c0,1.1,1.1,1.6,1.9,2.1c1.5,0.8,3.3,0.5,3.8-0.5
				C434.4,356.4,432.8,354.1,431,354z M366.9,296c1.2,0.6,2.2,1,3.1,1.7c1.2,0.9,1.7,0.3,1.8-0.8c0.1-1.6,0.5-3.3-1-4.6
				c-0.5-0.4-0.2-1.5-1.3-1.3c-1,0.2-0.5,1.2-0.9,1.7C367.8,293.8,368.6,295.4,366.9,296z M287.2,257.2c-1.6,0.2-2.6-0.4-3.6-1.3
				c-0.7-0.7,0-1.4-0.5-2.1c-1.2-1.7-2.7-3.1-3.7-4.9c-0.4-0.8-1.5-1.1-2.1-0.5c-0.6,0.6,0.4,1.1,0.9,1.5c1.6,1.5,2.2,2.6,2.3,4.7
				c0,0.3,0.3,0.4,0.6,0.5c0.5,0.1,1.1,0.2,1.3,0.6c0.5,1.2,1.9,1.5,2.3,2.8c0.3,0.9,1,0.9,1.7,0.1
				C286.6,258.1,286.8,257.8,287.2,257.2z M311.8,347.4c1-0.3,1.9,0.3,2,0.9c0.4,1.6,1.7,1.4,2.6,1.5c1,0.2,2.1,0.2,3.1,0.5
				c0.6,0.2,1.7,0.5,1.8-0.3c0.1-0.8-1-0.5-1.5-0.6c-0.1,0-0.2,0-0.3,0c-0.4-0.1-0.8-0.3-0.8-0.7c0-0.5,0.5-0.5,0.9-0.5
				c0.5,0,1,0.2,1.3-0.5C317.9,346.7,314.9,346.1,311.8,347.4z M206.7,376.1c-0.6,0.2-1.4,0-2.1,0.4c-0.6,0.3-1.3,0.6-1.1,1.4
				c0.5,1.5-1.2,2.9-0.2,4.4c0.2,0.2-1.1,0.7,0.1,1c0.8,0.2,1.4,0.1,1.8-0.7c0.3-0.7,0.6-1.5,0.5-2.1c-0.3-1.4,0.7-1.9,1.5-2.5
				c0.6-0.4,1.5-0.5,1.2-1.4C208.2,375.7,207.4,376.2,206.7,376.1z M364.8,289.7c0.1,0.3,0.1,0.5,0.2,0.8c0.3,0.6,0,1.6,1.3,1.6
				c1.4,0,1.4-1.2,1.8-1.9c0.3-0.6-0.2-1.4-1.1-1.6c-0.6-0.1-0.9-0.6-1-1.1c-0.6-1.9-0.9-2-2.9-1.4c0.4,0.6,0.9,1.3,0.7,2
				c-0.2,0.9-1.4,0-1.8,0.7c0.1,0.6,0.9,0.2,1,0.7C363.1,292.4,364,289.8,364.8,289.7z M366.6,634.5c0.7-1.8,0.6-1.8-1.2-2.6
				c-2.3-1-4.1,0.7-6.2,1c1.2-0.1,1.2,0.8,1.4,1.5c0.1,0.5-0.4,1.2,0.4,1.3c0.7,0.1,1.4,0.2,2-0.5
				C363.9,634.2,365.2,633.8,366.6,634.5z M245.3,499.4c1.4,0.7,0.8,2,0.7,3c-0.1,0.6-0.8,1.3-0.3,1.9c0.5,0.5,1.3,0.1,2.3,0.1
				c-1.2-0.9-1.7-1.7-0.4-2.4c0.5-0.3,0.3-0.6,0.3-0.9c-0.2-1.3,0.2-2.3,1.7-2.7c-1-0.2-0.8-1-1.1-1.5c-0.3-0.7-1.4-0.1-2-0.6
				c-0.1-0.1-0.1-0.2-0.2-0.3c-0.2-1-1.5-0.9-1.8-1.8c-0.1-0.2-0.4-0.3-0.5-0.1c-0.1,0.1-0.2,0.5-0.2,0.6c0.5,0.8,0.9,1.8,1.7,2.3
				c0.6,0.4,1,0.7,1.1,1.4C246.7,499.3,245.6,498.8,245.3,499.4z M286.9,206c2.1,0.9,3.4-0.3,4.8-0.7c2.9-1,5.3-2.9,8.3-3.8
				c0.9-0.3,1.8-0.5,2.8-1.3C296.6,200,292.4,204.1,286.9,206z M311.8,604.6c-1-0.5-1.9,0.2-2.9,0.4c-1.2,0.4-1.1,1.5-1,2.4
				c0,0.7,0.8,1,1.4,0.7c1.7-0.8,3.6-0.8,5.2-2c0.2-0.2,0.7-0.2,0.5-0.6c-0.1-0.3-0.3-0.6-0.6-0.7
				C313.6,604.7,312.7,604.4,311.8,604.6z M414.9,352c-1.8-1.5-3.9-1.3-5.8-1.4c-0.3,0-0.7,0-0.7,0.4c0,0.4,0.2,0.9,0.5,0.9
				c1.6,0.2,1.3,1.2,1,2.3c-0.1,0.6,0.3,0.9,0.6,1.2c0.4,0.4,1,0.5,1.5,0.2c0.7-0.4,0.2-0.7-0.1-1.1c-0.5-0.6,0-0.9,0.4-1.1
				C413.2,353.2,413.8,352.4,414.9,352z M178.4,377.5c0.2,0,0.5,0,0.7-0.1c1.2-0.7,2-1.8,3.4-2.1c0.3-0.1,0.4-0.6,0.4-1
				c-0.1-0.5-0.6-0.3-0.9-0.4c-0.7-0.2-1.5,0.2-2.1-0.1c-1.1-0.6-2.4-0.5-3,0.5c-0.7,1.1,0.5,1.8,0.5,2.8
				C177.4,377.5,178,377.4,178.4,377.5z M323.2,614.7c0.6,0.2,1,0.3,1.4,0.4c2.5,0.8,4,0.2,5.2-2.1c0.1-0.3,0.5-0.4,0.7-0.6
				c0.2-0.2,0.8-0.2,0.6-0.7c-0.2-0.4-0.6-0.4-1-0.4c-0.7,0.1-1.4,0.1-1.8,0.8c-0.2,0.4-0.5,0.7-1,0.7
				C325.6,612.6,324.6,613.7,323.2,614.7z M270,314.1c2.1,0.5,2.1,0.5,2-1.3c0-0.5,0.3-0.7,0.7-0.9c1.4-0.6,1.2-1.9,1.3-3.1
				c0-0.5-0.3-0.7-0.8-0.7c-1.2,0.2-3.5,2-3.8,3.2c-0.1,0.4,0,0.7,0.4,0.7c0.6,0,1.2,0,1.3,0.8C271.2,313.8,270.1,313.4,270,314.1z
				 M296.2,257.8c0.2-0.6,0.3-1.2-0.4-1.7c-0.7-0.4-1.1,0.4-1.8,0.5c-1,0.1,0-1.3-0.9-1.2c-0.6,0.1-1.3-0.2-1.8,0.4
				c-0.5,0.7,0.1,1.1,0.5,1.5c0.2,0.3,0,0.5,0.1,0.7c0.1,0.8,0.5,1.4,1.1,1.8c0.5,0.3,1.6,1.1,1.3-0.6c-0.1-0.4,0.2-0.7,0.6-0.4
				C296.5,260.1,296.4,259.1,296.2,257.8z M379.5,303.8c-0.3-0.7-0.5-1.4-0.8-2c-0.2-0.5-0.6-0.9-1.2-0.8c-0.5,0.1-0.8,0.4-1.1,1
				c-0.7,1.5,0.1,2.9,0.2,4.3c0,0.6,0.8,1,1.5,1.1c0.4,0,0.9-0.2,0.9-0.5C378.8,305.7,378.5,304.6,379.5,303.8z M340.8,488.4
				c-1.1,0.3,0,1.8-1.2,2c-1.8,0.4-1.9,2.6-3.5,3.2c-0.2,0.1-0.3,0.6-0.1,0.9c0.2,0.3,0.6,0.3,0.8,0c0.5-0.9,1.3-0.7,2.1-0.8
				c1.9-0.2,2.9-1.5,2.4-3.2C341.1,489.8,341.1,489,340.8,488.4z M218,241.7c-0.4,0-0.9-0.1-1.1,0.4c-0.8,1.7-2.3,3.1-2.5,5
				c0,0.3-0.3,0.6,0,0.8c0.3,0.2,0.6,0.2,0.9,0.1c0.5-0.2,0.9-0.5,1.1-1.1c0.5-1.4,1.1-2.7,2.3-3.6c0.4-0.3,0.8-0.6,0.7-1.2
				C219.2,241.3,218.4,242,218,241.7z M197.5,595.4c0,1.1,2,3.9,3.1,4.2c0.5,0.1,0.9,0.1,1.3-0.3c0.5-0.4,0-0.8-0.1-1.1
				c-0.6-1-1.2-2-2-3c-0.4-0.5-0.7-1.3-1.6-1C197.7,594.4,197.5,594.8,197.5,595.4z M281.1,292.4c-0.8,0.4-1.6,0.7-1.5,1.9
				c0.1,0.7,0.5,1.4-0.3,2c-0.5,0.4,0.4,0.8,0,1.4c-0.3,0.5,0.7,0.8,1,0.5c0.8-0.6,2-1.1,1.6-2.6c-0.1-0.6-0.3-1.2,0.1-1.9
				C282.6,292.7,281.8,292.6,281.1,292.4z M303.2,271.3c0,0.2-0.1,0.4,0,0.5c0.4,0.5-0.1,1.8,1.1,1.6c1-0.1,0.8-1.1,0.8-1.7
				c0-1.7,0.2-3.4-0.2-5c-0.1-0.5-0.4-0.6-0.8-0.6c-0.2,0-0.5-0.1-0.6,0.3C303.3,268.1,303.1,269.7,303.2,271.3z M211.4,554.5
				c-1.1-0.4-2.1-1.7-2.9,0.7c-0.6,1.7-1.7,3.3-1.8,5.3c0,0.4-0.2,0.8,0.2,1c0.4,0.1,0.7-0.2,0.8-0.5c0.6-1.7,1.5-3.2,2-4.9
				C210.2,555,210.5,554.6,211.4,554.5z M256.2,264.3c-1.3-0.9-0.8-2.1-0.8-3.3c0-0.6-0.2-1.6-1-1.3c-0.8,0.2-2.3,0.4-1.9,1.5
				c0.3,0.9,0.6,2,1.2,2.8C254.4,265,255.1,265.4,256.2,264.3z M208.4,608c1.3,0.5,2.3,0.6,2.7-1c0.1-0.5,0.3-0.8,1-0.3
				c0.3,0.3,1.1,0.3,1.4-0.3c0.2-0.3,0.4-0.8,0.2-1c-0.7-1-1.9-0.8-2.9-0.9c-0.9-0.1-1.4,0.4-1.5,1
				C209.2,606.4,208.7,607.1,208.4,608z M212.5,255.9c-0.2,2.8-2.7,5.1-0.1,7.5C214,261.7,214.1,258.9,212.5,255.9z M291.6,358.7
				c-1,0.2-1,0.2-2,2.5c-0.2,0.5-0.9,1.1,0,1.6c0.8,0.5,1.7,1.4,2.7,0.4c0.6-0.5,1.1-1.2,1.5-1.8
				C291.7,360.9,290.4,360.5,291.6,358.7z M296,414.2c1-1.2,1.3-2,1.1-3.4c-0.2-1.3,0-2.6-0.6-3.9c-0.2-0.5-0.3-1-0.9-0.8
				c-0.6,0.2-0.7,0.8-0.1,1.2c0.2,0.2,0.1,0.4,0,0.6C294.9,410,295.7,411.9,296,414.2z M244.7,397.9c0,0.3-0.1,0.7,0.1,1
				c0.2,0.6,0.3,1.4,1.1,1.4c0.8,0.1,0.9-0.7,1.2-1.3c0.5-1.4-0.5-2.6-0.1-4c0.1-0.5-1-0.6-1-0.3
				C245.8,395.9,244.4,396.5,244.7,397.9z M351.1,627.2c-0.2-0.4,0.2-1-0.4-1.3c-1.7-0.8-3.2-2-5.2-2.1c-0.3,0-0.6,0-0.7,0.3
				c-0.2,0.5,0.3,0.6,0.5,0.6c1.4,0.2,2,1.3,2.9,2.1c0.6,0.5,1.1,1.1,1.9,1.2C350.7,628.1,351.3,628.1,351.1,627.2z M208.6,272.2
				C208.5,272.2,208.5,272.2,208.6,272.2c-0.1,0.3-0.1,0.6-0.1,1c0,0.5,0,1.1,0.6,1.4c0.7,0.3,0.9-0.3,1.3-0.6c1-0.7,0.7-1.9,1-2.9
				c0.1-0.3-0.9-1.3-1.5-1.3c-0.7,0-1.5,0.4-1.4,1.4C208.5,271.5,208.5,271.8,208.6,272.2z M195.4,597c-1.1-0.2-1.7-0.5-1.7-1.7
				c0-0.7-0.8-1.4-1.6-1.9c-0.7-0.5-1.4-0.1-1.8,0.4c-0.6,0.7,0.1,1.2,0.6,1.3c1.1,0.4,1.2,1.8,2.3,2.3c-0.6,0.1-0.9,0.2-1.2,0.2
				C193.1,597.6,194.3,598.3,195.4,597z M312.8,619.8c-0.4,0.2-1.3,0.2-1.6,0.6c-0.6,1-1.6,1.2-2.6,1.5c-0.5,0.1-1.1,0.3-0.8,0.9
				c0.2,0.6,0.8,0.3,1.3,0.2c1.5-0.5,2.9-0.9,4.4-1.4c0.4-0.1,1.1,0,1-0.7C314.2,620.3,313.8,619.8,312.8,619.8z M434.9,355.3
				c-0.4,0.7-0.3,1.3,0.6,1.3c1.4,0,3.6-1.1,3.5-1.8c-0.3-1.8-1.8-1.1-2.8-1.3C434.8,353.3,434.3,354,434.9,355.3z M426,356.1
				c1,0,2.4-1.3,2.1-2.3c-0.2-0.8-1.4-1-2.2-1c-0.7,0-1.7-0.1-2,0.9C423.8,354.3,425.5,356.2,426,356.1z M228.7,376.9
				c0,0-0.1-0.1-0.2-0.1c-0.9-0.4-1.1-1.1-1.1-2.1c0-0.5-0.5-0.5-0.9-0.5c-0.5-0.1-0.6,0.2-0.8,0.6c-0.4,1,0,2.1-0.9,2.9
				c-0.2,0.2,0,0.5,0.3,0.6c0.5,0.2,1.1,0.6,1.7,0.2C227.5,378.2,228,377.5,228.7,376.9z M338.6,499.5c-0.4-0.5-0.9-0.7-1.4-0.2
				c-0.6,0.5-0.9,1.2-1.7,1.7c-0.4,0.2-0.3,0.7,0,1c0.5,0.6,0.9,1.1,0.7,2c-0.1,0.6,0.4,1,1,1.1c0.8,0,0.6-0.7,0.8-1.2
				c0.1-0.2-0.1-0.5-0.2-0.7c-0.3-1-1-2,0.5-2.7C338.4,500.2,338.4,499.8,338.6,499.5z M238.1,522.9c-1.6,1.1-1.6-0.5-2.3-0.7
				c-0.5,0.5-0.3,1.3-0.9,1.5c-1.3,0.5,0.3,1.6-0.5,2.2c0.4,0.5,1,0.8,1.5,0.5c0.6-0.3,1.7-0.3,1.3-1.6
				C237,524.4,237.5,523.9,238.1,522.9z M329.6,547.1c0.3-0.4,1-0.8,1-1.3c0-0.8,0.7-1.7,0.1-2.4c-0.6-0.6-1,0-1.3,0.6
				c-0.2,0.4-0.7,0-1,0.2c-0.6,0.4-1.7,0.8-1.2,1.7C327.6,546.5,328.7,546.7,329.6,547.1z M335.6,476.2c0-0.6,0-1.3-0.4-1.9
				c-0.2-0.4-0.5-0.5-0.9-0.4c-0.4,0.1-0.5,0.4-0.4,0.7c0.2,0.9-0.4,0.9-1,0.9c-0.4,0-0.7,0.2-0.8,0.6c-0.1,0.4,0.3,0.5,0.5,0.7
				c0.3,0.2,0.6,0.4,0.9,0.7c0.5,0.6,1.1,0.5,1.7,0.2C335.7,477.5,335.8,476.9,335.6,476.2z M341.2,519.9c2-0.5,1.9-2.2,2.7-3.3
				c0.3-0.4,0.8-1.1,0.2-1.6c-0.6-0.5-1.3-0.1-1.9,0.3c-0.5,0.4-0.6,0.8-0.7,1.4C341.3,517.7,341.7,518.7,341.2,519.9z M334,480.6
				c-0.8-0.7-3.3-1.7-4.1-1.6c-0.5,0.1-1.2,0.3-1.2,0.7c0,0.6-0.3,1.4,0.3,1.9c0.5,0.4,1,0.1,1.3-0.4c0.4-0.5,1-0.3,1.5-0.2
				C332.5,481.1,333.2,481.2,334,480.6z M331,539.8c0.4,0.5,0.9,0.9,1.3,1.5c0.2,0.4,0.7,1,1.3,0.7c0.7-0.3,1.1-1,1.2-1.8
				c0.1-0.7-0.3-1.4-0.9-1.8c-0.6-0.4-1.3-0.2-1.6,0.4C331.9,539.4,331.3,539.3,331,539.8z M274.4,404.8c-0.2,0.1-0.5,0-0.8,0.6
				c-0.4,0.8,0.1,1.1,0.1,1.6c0,0.6-0.2,1.1-0.5,1.6c0.5,0.2,1,0.5,1.5,0.5c0.5,0,0.4-0.6,0.5-0.9c0.3-0.7,0.3-1.5,0.5-2.3
				C275.9,405,275.6,404.5,274.4,404.8z M325.3,349.4c0.9,1.1,0.8,2.3,0.9,3.4c0,0.4-0.5,1,0.3,1.1c0.8,0.1,0.6-0.6,0.8-1.1
				c0.2-0.6,0-1.3,0.5-1.8c0.2-0.2,0.3-1,0.1-1.5c-0.2-0.7-0.8-0.6-1.1-0.4C326.3,349.3,325.9,349.2,325.3,349.4z M290.3,305.6
				c-0.7-0.3-1.5-0.1-1.7-1.1c-0.1-0.4-0.7-0.5-0.9-0.2c-0.5,0.6-1,1.3-1.1,2c-0.1,0.5,0,1.5,1.1,1.2c0.6-0.2,1.1,0.1,1.9,0.1
				C288.6,306.5,289,305.9,290.3,305.6z M253.1,528.3c0.1-0.4,0-0.5-0.2-0.6c-0.8-0.3-4,0.9-4.5,1.7c-0.2,0.3-0.6,0.6-0.2,1
				c0.3,0.4,0.7,0.4,1.2,0.2c1-0.4,1.9-1.4,3.1-1.4C252.7,529.1,252.9,528.5,253.1,528.3z M325.4,545.7c0.1-0.3-0.3-0.4-0.4-0.6
				c-0.5-0.5-1.2-0.6-1.6-0.3c-0.8,0.5-1.4,1.3-2,2c-0.2,0.3,0.2,0.4,0.4,0.4c0.4,0,0.8,0.1,1.2,0.3
				C323.7,547.8,325.4,546.5,325.4,545.7z M264.2,316.6c-0.5-0.4,0.2-1.7-1.1-1.6c-1.1,0.1-1,1-1,1.7c0,0.4,0.1,0.7-0.2,1.1
				c-0.7,0.8,0.2,1.3,0.6,1.6c0.6,0.4,0.7-0.4,0.9-0.7C263.9,318.1,263.9,317.3,264.2,316.6z M309.3,200.1c1.1-0.5,2.1-0.6,3.1-0.4
				c0.8,0.2,1.5-0.2,2.1-0.5c0.3-0.1,0.5-0.3,0.4-0.6c-0.1-0.3-0.3-0.4-0.6-0.4c-1.5,0-3-0.2-4.4,0.4
				C309.2,198.9,309.1,199.3,309.3,200.1z M248.3,520.6c0.7-0.2,0.8-1.1,1.5-1.3c0.1,0,0.9-1,0.2-1.6c-0.7-0.6-0.9,0.4-1.2,0.6
				c-0.7,0.6-1.2,1.4-2.3,0.5c-0.2-0.1-1,0.1-1,0.6c0,0.5,0.2,1,0.8,1C246.9,520.3,247.6,520.2,248.3,520.6z M297.6,259
				c0,0.8,0.1,1.3,0.1,1.8c0,0.4,0.1,0.6,0.5,0.6c0.4,0,0.6-0.2,0.6-0.6c0.2-1.2,0.3-2.3,0.4-3.5c0.1-0.5-0.1-0.9-0.5-1.3
				c-0.3-0.2-0.6-0.3-0.9-0.1c-0.2,0.1-0.4,0.3-0.3,0.5C298.2,257.4,297.8,258.4,297.6,259z M216,613.1c0-1-1-2.1-1.9-2
				c-0.5,0-0.9,0.2-0.9,0.7c-0.1,1.5,0.5,2.4,1.7,2.4C215.5,614.3,216.2,614.2,216,613.1z M293.5,346.5c-0.6-1.8-1.7-2.6-3.3-2.6
				c-0.4,0-0.8-0.1-0.9,0.4c-0.1,0.4,0.2,0.6,0.3,0.8C290.4,346.8,292,346.2,293.5,346.5z M339.3,465.3c0.8,0.2,0.9-0.2,0.7-0.7
				c-0.3-0.7-0.7-1.4-1-2.1c-0.2-0.4-0.4-0.8-0.9-0.7c-0.4,0.1-0.7,0.5-0.8,0.9C336.8,464.3,337.5,465.1,339.3,465.3z M319,294.5
				c0.2-0.4,0-0.5-0.2-0.6c-0.3-0.1-0.6-0.2-0.9,0.1c-0.8,0.7-1.6,1.4-1.8,2.5c-0.1,0.4-0.7,0.8,0.1,1.2c0.6,0.3,1.4,0.3,1.7-0.4
				C318.1,296.2,318.3,295.2,319,294.5z M237,430.8c0.6-0.8-0.1-1.1-0.6-1.3c-0.3-0.2-0.7,0-0.7,0.4c-0.1,1.1-0.4,2.3-0.1,3.4
				c0.1,0.5,0.4,0.8,0.9,0.7c0.4-0.1,0.5-0.4,0.5-0.8C237.2,432.3,237.2,431.6,237,430.8z M328,473.8c0-0.2,0.4-0.8-0.5-0.8
				c-1.2,0-1.6,0.9-1.7,1.9c0,0.8,0.1,1.8,1.2,1.7C328.9,476.4,327.8,475,328,473.8z M238.8,247.2c0.8,0.1,2-0.7,3.2-0.8
				c0.2,0,0.3-0.2,0.3-0.4c-0.1-0.7-1.3-1.5-2-1.1c-0.8,0.4-1.4,1.1-2.3,1.3c-0.3,0.1-0.5,0.4-0.4,0.8
				C237.8,247.3,238.1,247.2,238.8,247.2z M313.2,611c-0.5,0-0.7-0.1-0.9,0c-0.6,0.2-1.6,0.4-1.5,1.2c0,0.7,0.9,0.4,1.5,0.5
				c0.5,0.1,0.9,0.2,1.4,0.2c0.5,0,1.3,0.4,1.5-0.4c0.2-0.8-0.6-1-1.1-1.3C313.7,611,313.3,611,313.2,611z M252.2,370.8
				c-0.1-1-0.9-1.1-1.4-1c-0.8,0.1-2.1-0.1-2.2,1c-0.1,0.9,0.9,1.4,1.8,1.5C251.2,372.3,251.8,371.6,252.2,370.8z M330.7,536.4
				c-0.1,0.4-0.1,0.8,0.3,1c0.5,0.3,0.8-0.1,1.1-0.4c0.9-0.6,0.1-1.6,0.5-2.4c0.4-0.7-0.1-1.2-0.9-1.4c-0.8-0.1-1,0.5-1.1,1.1
				C330.7,535,331.1,535.7,330.7,536.4z M327,533.7c-0.4-0.7-0.2-2-1.6-2.2c-0.4,0-0.9,0-0.9,0.6c-0.1,1.2,0.9,2.9,1.7,2.9
				C326.9,535,327.1,534.5,327,533.7z M291.5,404.6c0.1,0.6-0.4,1.5,0.6,1.4c0.8-0.1,1.4-0.7,1.7-1.5c-1-0.3,0.4-2.1-1.2-2
				C290.9,402.5,291.9,404,291.5,404.6z M330.7,523.5c1.1-0.1,2.2-0.1,2.3-1.1c0.1-0.9,0.4-1.6,0.8-2.3c0.2-0.3,0.5-0.7,0.1-1
				c-0.2-0.2-0.6-0.1-0.9-0.1c-0.5,0-0.4,0.3-0.5,0.7C332.1,521,331.8,522.3,330.7,523.5z M249.6,475.9c0.2,0.8,0.3,1.9,1.3,1.9
				c1.2-0.1,0.6-1.6,1.1-2.4c0.3-0.4-0.7-0.9-1.2-0.8C250.1,474.6,249.4,474.9,249.6,475.9z M243.2,537.7c-0.7-0.4-1.3-0.2-1.9-0.3
				c-1.3-0.2-2.3,1.3-1.9,2.4c0.1,0.3,0.3,0.5,0.7,0.5c0.3,0,0.8-0.1,0.8-0.3C240.7,538.1,242,538,243.2,537.7z M348.8,336.3
				c-1.1-0.3-1.3-0.5-1.9-2.2c-0.2-0.5-0.4-0.8-0.9-0.5c-0.5,0.2-0.7,0.8-0.3,1.2c0.3,0.4,0.6,0.7,0.7,1.1
				C347.2,337.8,347.2,337.8,348.8,336.3z M232.3,521.3c0.2-0.9-0.5-1.2-1.1-1.3c-0.9-0.1-1.3,0.6-1.2,1.3c0.1,0.7,0,1.7,1,1.8
				C232.2,523.1,232.3,522.2,232.3,521.3z M320.1,504.1c0.9,0.2,1.4,0.9,2.4,0.8c1.1-0.1,0.8-1.3,1.6-1.6c0.2-0.1-0.2-0.4-0.4-0.5
				c-0.9-0.4-1.9-0.6-2.2,0.5C321.1,504,320.5,503.7,320.1,504.1z M334.4,457.5c-1-0.8-2-1.2-3-0.4c-0.2,0.2-0.2,1.6,0.6,2.2
				c0.2,0.1,0.4,0.3,0.7,0.3c0.3,0,0.4-0.3,0.3-0.6C332.8,458,333.7,457.9,334.4,457.5z M331.2,462.5c1.5,0.1,1.2,2.4,2.9,2.2
				c-0.7-0.9,0.9-1.8-0.1-2.7C333,461.1,332.2,462.5,331.2,462.5z M228.7,511.6c-0.9-0.1-1.7,0.1-1.6-1.1c0-0.5-0.8-0.4-0.8-0.1
				c-0.2,1.2-1.5,2.1-0.6,3.8C226.2,512.6,227,511.7,228.7,511.6z M394.9,349.3c-0.5,0-0.9-0.1-1.2,0.4c1.1,0.2,0.4,1.8,1.3,1.9
				c0.9,0.1,2.1-0.7,2.1-1.4C397.1,348.9,395.6,349.7,394.9,349.3z M328.7,523.9c-0.5,0.4-1.4,0.3-1.3,1.3c0.1,0.7,0.2,1.3,1.3,1.3
				c1.1-0.1,1.3-0.9,1.4-1.6C330.1,524.1,329.3,524.1,328.7,523.9z M351.9,341.8c-0.4-1.6-1.1-3-1.4-4.6c0-0.3-0.4-0.3-0.7-0.1
				c-0.2,0.2-0.2,0.4-0.2,0.7c0.2,1.3,1.2,2.4,0.9,3.8c-0.1,0.4,0.6,0.5,1,0.6C351.8,342.2,351.9,341.9,351.9,341.8z M241.9,450.8
				c1.2,0.9,2.4,0.7,3.4,1.4c1.8,1.4,1.9,1.3,2.9,0.6C246.4,451.7,244.5,450.4,241.9,450.8z M342.4,512.4c0,0.3-0.3,0.8,0.4,0.8
				c0.6,0,1.1-0.3,1.1-1.1c0-0.6-0.4-1.1-0.2-1.7c0.1-0.5-0.1-1.1-0.6-1c-0.6,0.1-1.1,0.7-0.8,1.3
				C342.5,511.3,342.6,511.8,342.4,512.4z M223.7,383.8c0-0.6,0-1.3-0.8-1.3c-1.5,0-1.1,1.4-1.5,2.2c-0.2,0.4,0.1,0.8,0.5,0.8
				C222.8,385.4,223.7,384.9,223.7,383.8z M342.8,375.3c0-0.2,0-0.7-0.6-0.8c-0.5-0.1-0.6,0.3-0.8,0.6c-0.4,0.8,0,1.7-0.2,2.6
				c-0.1,0.3,0.4,0.6,0.8,0.6c0.4,0,0.8-0.2,0.7-0.7C342.4,376.9,342.7,376.2,342.8,375.3z M381.7,348.5c-1.2-1.5-2.8-0.7-4.1-1.2
				c-0.3-0.1-0.4,0.2-0.3,0.6c0.1,0.3-0.1,0.5,0.4,0.7C379,348.9,380.2,348.8,381.7,348.5z M269.8,294.4c0.5,0.1,2.9-2.7,2.7-3.2
				c-0.1-0.3-0.4-0.6-0.7-0.3c-0.7,0.9-1.9,1.3-2.4,2.4C269.1,294,269.1,294.3,269.8,294.4z M254.8,500.1c-1.3,0.2-2.1,0.9-2.9,1.6
				c-0.3,0.2-0.9,0.3-0.7,0.9c0.1,0.4,0.6,0.4,0.9,0.5c0.5,0.1,1,0.1,1.1-0.4C253.3,501.6,254.3,501.1,254.8,500.1z M226.4,506.8
				c-1.2,0.3-2.5,0.4-2.1,2.3c0.1,0.3-0.8,0.7,0,0.9c0.6,0.2,0.8-0.2,1.1-0.7C225.8,508.5,225.7,507.5,226.4,506.8z M341.7,471.8
				c-0.6-1.1-0.6-2.2-0.6-3.3c0-0.6-0.6-0.8-0.8-0.4c-0.3,0.6-1.1,0.4-1.4,1.3c1.7-0.6,1.3,0.6,1.3,1.3
				C340.2,471.7,340.6,471.9,341.7,471.8z M290.8,347.3c0.7,1.4,2,1.5,3.3,1.4c0.7,0,1-0.4,1-1.2
				C293.6,347.5,292.2,347.4,290.8,347.3z M331.4,501.9c1.1,0.6,1.1,1.4,1.3,2.1c0.1,0.5,0.2,1,0.9,0.5c0.7-0.6,0.5-1.5,0.6-2.3
				c0.1-0.5-0.9-0.6-1.6-0.5C332.3,501.8,332.1,501.8,331.4,501.9z M203.1,572.1c-0.9,0.1-2.2,2.7-1.8,3.5c0.1,0.2,0.3,0.3,0.5,0.2
				c0.5-0.1,1.9-2.9,1.7-3.4C203.5,572.2,203.3,572.1,203.1,572.1z M341.6,544.1c-0.9-2.3-0.9-2.3-3.4-1
				C338.9,544.8,340.3,543.9,341.6,544.1z M355.7,353.9c-0.3,0.9-0.6,1.6,0.4,1.6c0.7,0,1.3-0.6,1.2-1.2c-0.2-0.9-0.6-2.3-1.5-2.1
				C354.5,352.4,355.9,353.6,355.7,353.9z M285.5,215.1c2.1,0.4,1.5-0.9,1.8-1.7c0.2-0.7,0.3-1.3-0.2-1.9c-0.1-0.1-0.5-0.1-0.6,0
				c-0.5,0.5-0.4,1.2-0.4,1.9C286.2,213.9,286.8,214.7,285.5,215.1z M248.9,538.4c-1.1-0.6-1.8-1.1-2.8-0.6
				c-0.2,0.1-1.1,0.1-0.2,0.6c0.2,0.1,0.2,0.7,0.3,1c0,0.4,0.1,0.8,0.6,0.8c0.5,0,0.9-0.2,0.8-0.7
				C247.5,538.8,248.1,538.7,248.9,538.4z M320.8,341.5c-1.5-0.4-2.8-0.4-3.8-1.4c-0.5-0.5-0.8,0-1.1,0.1c-0.3,0.1-0.4,0.5-0.4,0.8
				c0.1,0.5,0.5,0.7,1,0.7C317.8,341.6,319.2,342,320.8,341.5z M295.9,436.1c0.5,0.4-0.1,1.6,1.1,1.7c0.6,0,1-0.6,0.9-1.1
				c-0.2-0.7,0-1.8-1-2C296.2,434.6,296,435.4,295.9,436.1z M334.8,547.8c-0.7,0.1-1.8-0.1-1.8,1c0,0.9,1.1,0.5,1.7,0.6
				c0.6,0.1,1.6-0.3,1.7-0.9C336.4,547.6,335.4,548,334.8,547.8z M325.6,491.5c0.4,0.2,0.8,0.4,1.2,0.7c0.6,0.4,1.3,0.4,1.4-0.3
				c0.1-0.4,0.9-1,0.1-1.5c-0.6-0.4-1.2-0.6-1.6,0.3C326.5,491.1,325.8,490.9,325.6,491.5z M343.4,372.6c-0.6-0.4,0.5-1.7-0.7-1.8
				c-1-0.1-0.9,1.1-1.1,1.9c-0.1,0.6,0,1.2,0.9,1.2C343.2,373.8,343.4,373.4,343.4,372.6z M297.4,405.1c-1.4-0.4-1.3-1.2-1-2.2
				c0.1-0.3,0.1-0.7-0.2-0.8c-0.1-0.1-0.5,0-0.5,0.1c-0.2,0.9-0.7,2-0.5,2.8C295.4,406,296.4,405.3,297.4,405.1z M232.5,531.1
				c0.2,0.4,1.5,0.4,0.6,1.3c0.7,0,0,1.1,0.7,0.9c0.7-0.2,1.4-0.7,1.4-1.5c0-0.8-0.7-0.9-1.2-0.9C233.6,530.9,233,530.6,232.5,531.1
				z M258.7,500.1c0-0.2,0-0.3-0.1-0.4c-0.8-0.8-1.4,0-2,0.3c-0.6,0.3-1,1-1.3,1.7c0,0,0.1,0.1,0.1,0.1c0.7,0.4,1.1-0.1,1.6-0.4
				C257.7,501.1,258.4,500.8,258.7,500.1z M303.4,502c-0.1-0.7-0.2-1.4-1-1.6c-0.8-0.2-1.5,0.1-2.1,0.6c-0.2,0.2-0.4,0.4-0.3,0.7
				c0.1,0.3,0.4,0.5,0.8,0.4C301.6,501.7,302.5,502.1,303.4,502z M224.3,517.8c0-0.6-0.1-1.1-0.8-1c-0.8,0.1-1.3,0.6-1.2,1.5
				c0,0.6,0,1,0.8,1C224.1,519.3,224.3,518.6,224.3,517.8z M254.1,440.5c-0.2-0.6-0.1-1.4-0.7-2c-0.4-0.4-0.9-0.6-0.9,0.1
				c-0.1,0.8-0.5,1.7,0.2,2.4c0.3,0.3,0.4,1,1,0.9C254.3,441.7,253.8,441,254.1,440.5z M328.3,537.8c1.6,0.1,1.3-1.4,1.7-2.1
				c0.3-0.5-0.4-0.5-0.7-0.4c-1.2,0.1-1.4,1.1-1.7,2C327.4,537.7,327.9,537.8,328.3,537.8z M228.6,240.1c1.2,1.1,2.6,1,3.9,0.9
				c0.4,0,0.7-0.4,0.6-0.8c-0.1-0.4-0.4-0.4-0.8-0.4C231.1,239.8,229.9,239.9,228.6,240.1z M295.8,393.9c0.1,0.6,0.3,1.2,1.2,1.2
				c0.5,0,1,0,0.8-0.8c-0.2-0.7-0.1-1.7-1.1-1.8C295.9,392.4,295.9,393.2,295.8,393.9z M365.9,293.3c-0.7,0.1-1.8,0-1.9,0.8
				c-0.1,0.6,0.9,1.1,1.6,1.1c0.6,0,1.4-0.5,1.4-1.2C367.1,293.3,366.4,293.3,365.9,293.3z M319,309.1c1.4-0.4,2.8-0.7,3.6-2.1
				C320.5,306.2,320.1,308.2,319,309.1z M347,327.3c-0.3,0.3-1.3-0.1-1.2,0.9c0.1,0.5,0,1.3,0.9,1.2c1,0,1-1,1.3-1.6
				C348.3,327.2,347.5,327.4,347,327.3z M183.2,368.9c-0.7-0.2-1.3,0-1.5,0.8c-0.1,0.5,0.4,0.8,0.8,0.7c0.9-0.2,2.2,0.1,2.4-1
				C185,368.7,183.9,368.9,183.2,368.9z M246.1,475.5c-1.4,0.6-1,1.6-0.6,2.6c0.2,0.5,0.7,0.4,1,0
				C247.6,477,246.6,476.3,246.1,475.5z M340.9,525.6c1.1-0.3,1.1-1.3,1.3-2.1c0.1-0.5-0.2-0.6-0.5-0.5c-1,0.2-1.3,1-1.6,1.8
				C340,525.3,340.4,525.6,340.9,525.6z M233.4,318.2c0.9-0.1,0.9-0.9,1.3-1.3c0.3-0.3,0.8-0.5,0.3-0.9c-0.3-0.3-0.8-0.4-1.2-0.2
				c-0.6,0.4-1,1-1,1.8C232.9,317.9,233.1,318.2,233.4,318.2z M312.6,277.9c0,0.3-0.5,1.1,0.3,0.9c0.7-0.2,1.3-1.1,1.7-1.8
				c0.2-0.5-0.4-1.1-1-0.8C313.1,276.5,312.3,276.8,312.6,277.9z M294.7,247.6c0.6-0.2,1.4,0,1.4-0.8c0-0.7-0.1-1.4-0.7-1.9
				c-0.4-0.4-0.9-0.4-1.3,0c-0.5,0.5,0,0.7,0.3,1C295.2,246.4,295.1,246.9,294.7,247.6z M370.1,354c-0.7,0.1-1.5,0-1.6,0.9
				c0,0.6,0.7,0.8,1.2,0.8c0.6,0,1.4-0.2,1.4-1C371.2,354.1,370.7,354,370.1,354z M342.3,502.4c0.2-0.5,0-1-0.5-1
				c-1,0.1-1,0.9-1,1.7c0,0.5-0.5,1.3,0.4,1.3C342.5,504.3,342.1,503.1,342.3,502.4z M234.7,640.3c0.3-1.2,0.3-2.1-0.5-2.6
				c-0.4-0.2-0.9,0-1.1,0.7C232.5,640.3,234.5,639.2,234.7,640.3z M375.9,350.8c-1.7,0-3.2,0-4.7,0
				C372.8,351.8,374.6,351.7,375.9,350.8z M344,519.5c0.1,0.5-0.4,1.5,0.7,1.4c0.8-0.1,0.8-0.8,0.8-1.5c0-0.5,0.3-1.2-0.6-1.1
				C344.5,518.4,343.8,518.7,344,519.5z M232,371.7c-0.1-0.9-0.9-0.9-1.3-0.8c-0.9,0.1-0.5,1.1-0.9,1.7c-0.3,0.5,0.5,0.6,0.7,0.6
				C231.5,373.2,231.5,372.2,232,371.7z M343.5,506.5c0.1,0.4,0,1.2,0.8,1.1c0.8,0,0.4-0.7,0.4-1.1c0-0.4,0-0.9,0.1-1.2
				c0.1-0.3,0.3-0.6-0.2-0.7c-0.3,0-0.9-0.3-0.9,0.4C343.7,505.5,343.5,506,343.5,506.5z M255.6,515.1c-0.3-0.5-0.4-1.3-0.9-1
				c-0.6,0.2-1.5,0.3-1.6,1c-0.1,0.5,0.8,0.7,1.1,1.2C254.7,515.8,255.2,515.4,255.6,515.1z M339,482.2c-0.1-0.6-1-0.8-0.7-1.5
				c0.2-0.4-0.1-0.8-0.5-0.8c-0.4,0-0.9-0.1-1,0.5c-0.1,0.4-0.3,0.8,0.2,1.1C337.6,481.8,338.1,482.3,339,482.2z M206.7,272.7
				c0-0.6,0.2-1.5-0.8-1.5c-0.8,0-0.6,0.7-0.6,1.2c0,0.6-0.1,1.3,0.7,1.3C206.7,273.7,206.9,273.3,206.7,272.7z M289.8,388.8
				c-0.1,0.7-0.1,1.3-0.2,1.9c-0.1,0.5,0,0.8,0.5,1c0.3,0.1,0.5,0.1,0.7-0.2c0.3-0.3,0.5-0.7,0.3-1.1
				C290.8,389.8,290.4,389.2,289.8,388.8z M336.3,528.2c1.3,1.1,1.9,1.1,2.7-0.1c0.2-0.3,0.4-0.6,0.2-0.9c-0.3-0.4-0.7-0.3-1-0.1
				C337.6,527.4,337,527.8,336.3,528.2z M268.2,298.3c0.3,0.6-0.2,1.6,0.9,1.4c0.4-0.1,1.3,0.2,1-0.7c-0.2-0.5,0.1-1.6-1.1-1.4
				C268.7,297.6,268.1,297.7,268.2,298.3z M334.9,362.7c-0.2-0.5-0.7-0.6-1.1-0.7c-1-0.1-1,0.8-1.2,1.4c-0.2,0.5,0.4,0.5,0.8,0.5
				C334.2,364,334.5,363.4,334.9,362.7z M322.8,538.8c0-0.6-0.1-1.2-0.7-1.1c-1.1,0.1-0.6,1.4-1.2,2c-0.2,0.2,0.4,0.5,0.7,0.4
				C322.2,539.8,322.9,539.6,322.8,538.8z M335.4,532c-0.1-1.1-1-0.9-1.7-1.1c-0.4-0.1-0.9,0.1-0.7,0.5c0.3,0.7,0.8,1.4,1.7,1.4
				C335.3,532.9,335.4,532.5,335.4,532z M231.9,317.6c-0.2-0.5-0.5-0.6-0.9-0.6c-1,0.1-1.2,0.9-1.3,1.7c-0.1,0.5,0.5,0.4,0.8,0.5
				C231.7,319.2,231.3,317.9,231.9,317.6z M331.6,376.7c-0.5,0.1-0.9,0.4-0.9,1c0,0.6,0.2,1.2,0.9,1.3c0.6,0.1,0.9-0.2,1-0.8
				C332.7,377.5,332.3,377,331.6,376.7z M338.2,377c-0.6,0-1.3-0.4-1.3,0.6c0,0.8,0.6,0.6,1,0.7c0.7,0.1,1.5-0.1,1.6-0.7
				C339.5,376.7,338.6,377.1,338.2,377z M241.5,450.7c-1.1-0.8-1.7-1.4-1.6-2.4c0.1-0.4-0.2-0.7-0.7-0.7c-0.3,0-0.4,0.2-0.5,0.5
				C238.7,448.9,240.1,450.5,241.5,450.7z M301.8,252c0.5,0.2,0.8,0.7,1.1,1.1c0.3,0.3,0.8,0.5,0.9,0.1c0.2-0.4,0.2-1.1-0.1-1.5
				C303.2,250.9,302.5,251.6,301.8,252z M333.1,490.2c-0.3-0.6,0-1.7-1.1-1.9c-0.4-0.1-0.7,0.4-0.5,0.8c0.2,0.7,0,1.6,1,1.8
				C332.9,491,333.1,490.7,333.1,490.2z M261.1,222c-0.7,0.1-0.8,0.6-0.8,1.1c0,0.4-0.3,1.2,0.4,1.2c0.6,0,1.1-0.6,1.2-1.3
				C262,222.5,261.6,222.1,261.1,222z M354.1,293.2c-0.7-0.2-1.3,0.2-1.9,0c-0.3-0.1-0.7,0-0.8,0.4c-0.1,0.4,0.2,0.7,0.4,1
				c0.2,0.3,0.6,0.3,0.8,0.1C353.2,294.2,353.7,293.9,354.1,293.2z M338.8,362.7c0.7,1,1.4,1.1,2.2,1.1c0.5,0,0.9-0.3,0.8-0.8
				c0-0.5-0.5-0.5-0.9-0.5C340.3,362.6,339.7,362.7,338.8,362.7z M232.2,516.9c-0.3,0.2-1.1,0.7-1,0.8c0.2,0.6,0.8,1.1,1.4,1.2
				c0.6,0.1,0.8-0.5,0.8-1C233.3,517.4,233,517,232.2,516.9z M228.9,545.1c-0.2,0.5-0.4,1,0.2,0.9c1-0.1,0.9-1.3,1.3-1.9
				c0.2-0.4-0.1-0.7-0.4-0.6C229.1,543.8,228.1,544,228.9,545.1z M241.7,543.3c0.1-0.7,1.1-1.3,0.1-2c-0.5-0.4-1.4,0.2-2.6,1.7
				C240.5,542,241.1,542.6,241.7,543.3z M236.7,443.5c0.7,1,0.7,2.1,1.1,3.1c0.1,0.3,0.2,0.4,0.6,0.4c0.2,0,0.5-0.2,0.4-0.4
				C238.2,445.5,238.1,444.1,236.7,443.5z M246.3,290.7c0-0.3-0.1-0.5-0.6-0.6c-1-0.1-1.3,0.7-1.5,1.3c-0.1,0.4,0.3,0.7,0.7,0.7
				C245.8,292.2,246,291.4,246.3,290.7z M299.5,403c-0.7-0.1,0.4-1.3-0.6-1.1c-1,0.2-0.5,1.3-0.8,1.9c-0.2,0.4,0.1,0.4,0.3,0.4
				C299.2,404.2,299.4,403.7,299.5,403z M249.1,503.9c1.1,0,1.3-0.1,1.4-0.5c0-0.4,0.3-1.1-0.3-1.3c-0.9-0.4-0.2,0.8-0.7,0.8
				c-0.2,0-0.3,0-0.5,0.1c-0.4,0.1-0.8,0.1-0.8,0.6C248.3,504.2,248.9,503.9,249.1,503.9z M352.8,298.2c-0.9-1.1-1.7-1.1-2.4-0.1
				c-0.2,0.4-0.2,0.6,0.1,0.8c0.3,0.2,0.7,0.3,0.8,0C351.5,298,352.2,298.4,352.8,298.2z M337.1,323c-0.1,0.1-0.3,0.2-0.5,0.3
				c0.6,0.7-0.3,1.4,0,2.2c0.1,0.2,0.2,0.4,0.5,0.3c0.5-0.2,1-0.6,0.8-1C337.5,324.2,338.2,323.3,337.1,323z M306.1,312.3
				c-0.2-0.4,0-1.3-0.7-1.2c-0.7,0.1-0.7,1-0.8,1.6c-0.1,0.4,0.1,0.8,0.5,0.8C305.7,313.4,306.1,313,306.1,312.3z M332.4,449.4
				c0,0.4-0.1,1.1,0.6,1.1c0.7,0,0.6-0.6,0.7-1.1c0.1-0.5,0-1-0.6-1C332.2,448.3,332.5,448.9,332.4,449.4z M329.6,606.8
				c-0.6-0.1-1,0-1.1,0.6c-0.1,0.6,0.4,0.7,0.8,0.7c0.6-0.1,1.3-0.1,1.3-0.9C330.6,606.4,329.9,607,329.6,606.8z M321.9,618.3
				c-1.1-0.3-2-0.6-2.9-0.9c-0.3-0.1-0.6,0-0.7,0.2c-0.1,0.3,0.1,0.7,0.5,0.7C319.7,618.5,320.7,618.9,321.9,618.3z M316.6,617.9
				c-0.1-0.5-0.6-0.5-1-0.5c-0.5,0.1-1.3-0.2-1.4,0.6c0,0.5,0.6,0.6,1.1,0.6C315.9,618.8,316.4,618.6,316.6,617.9z M217.6,522.4
				c0.1-0.4,0.1-0.8-0.4-0.9c-0.6-0.1-0.7,0.4-0.6,0.8c0,0.3,0.1,0.6-0.1,0.9c-0.2,0.2-0.6,0.4-0.1,0.7c0.4,0.2,0.9,0.1,1-0.4
				C217.5,523.2,217.5,522.8,217.6,522.4z M176.9,371c0.6-0.8,1.3-0.6,2-0.7c0.2,0,0.5,0,0.5-0.3c0-0.1-0.1-0.3-0.2-0.4
				c-0.6-0.4-1.3-0.2-1.9-0.1C176.6,369.7,176.8,370.3,176.9,371z M245.7,481.5c1,0,0.7-0.8,0.8-1.3c0.2-0.5-0.4-0.5-0.7-0.5
				c-0.7,0-0.8,0.6-0.9,1.1C244.7,481.4,245.2,481.5,245.7,481.5z M333.3,466.2c0.9,0.3,1.9,0.4,2.8,0.9c0.2,0.1,0.5,0.1,0.7-0.2
				c0.2-0.4-0.1-0.5-0.5-0.6C335.2,465.9,334.3,466,333.3,466.2z M239.1,517.7c0.1-0.6-0.2-0.7-0.7-0.7c-0.5,0-1.1,0.1-1.1,0.8
				c0,0.6,0.5,0.9,1.1,0.9C239.1,518.7,239,518.2,239.1,517.7z M336.5,513.6c-0.1-0.7-0.4-1.1-1-1.1c-0.3,0-0.9-0.1-0.7,0.5
				c0.2,0.5,0.2,1.3,0.8,1.4C336.1,514.5,336.4,514,336.5,513.6z M274,336.3c-1.2-0.6-2.3-0.5-3.3-0.3c-0.1,0-0.3,0.2-0.3,0.3
				c0,0.2,0.2,0.5,0.4,0.4C271.7,336.4,272.8,337,274,336.3z M282,388.5c-0.3-0.4,0-1.3-0.8-1.3c-0.6,0-0.7,0.6-0.7,1
				c-0.1,0.8,0.7,0.6,1.1,0.9C281.9,389.2,282,388.9,282,388.5z M369.8,300.6c-0.4-0.5-0.9-0.8-1.6-0.7c-0.4,0.1-0.8,0.2-0.7,0.6
				c0.2,0.7,0.9,0.8,1.5,0.9C369.4,301.4,369.7,301.1,369.8,300.6z M242.4,492c-0.7,0.5-1,1.1-0.8,1.7c0.1,0.3,0.9,0.4,1.2,0.1
				C243.5,493.1,242.2,492.7,242.4,492z M227.6,516.9c0.6-0.2,1.3,0.9,1.7-0.3c0.1-0.4,0.3-1.1-0.1-1.1
				C228.3,515.2,228.1,516.2,227.6,516.9z M329.3,312.9c-1.1,0-1.6,0.6-1.9,1.3c-0.1,0.3,0.3,0.6,0.6,0.6
				C329.1,314.7,329.1,313.8,329.3,312.9z M418.6,356.4c1,0.2,2,0.3,3,0.5c0.3,0,0.7,0,0.8-0.4c0.1-0.4-0.3-0.5-0.6-0.5
				C420.6,355.7,419.7,356.1,418.6,356.4z M396,353.3c-0.2-0.5-0.5-0.8-1.1-0.7c-0.5,0.1-1,0.3-0.9,0.9c0,0.5,0.5,0.6,1,0.6
				C395.4,354,395.9,354,396,353.3z M392.8,357.4c0.3,0,0.4,0,0.6,0.1c1.5,0.7,1-1,1.5-1.4c0.2-0.1,0.2-0.4-0.1-0.5
				c-1-0.4-1,0.7-1.6,1C393,356.7,393,357,392.8,357.4z M250.2,390.7c-0.4-0.2-0.7-0.4-1-0.6c-0.4-0.4-0.9-0.4-1.3-0.3
				c-0.1,0-0.2,0.3-0.2,0.4c0.2,0.5,0.7,0.3,1.1,0.5C249.2,390.9,249.6,391.1,250.2,390.7z M298.4,253c-0.4,0.2-0.8,0.5-0.7,1
				c0.1,0.5,0,1.2,0.8,1.1c0.4,0,0.7-0.4,0.5-0.8C298.9,253.9,299.1,253.2,298.4,253z M344.6,527.3c0-0.4-0.1-0.7-0.5-0.7
				c-0.7,0.1-1,0.6-1,1.2c0,0.4,0,1.2,0.7,1C344.6,528.7,344.3,527.7,344.6,527.3z M259.2,479c1.3,0.3,2.4-0.1,3.6-0.6
				C261.4,477.8,260.3,478.6,259.2,479z M178.4,367.7c-0.1-0.5-0.4-0.9-0.9-0.8c-0.7,0.1-0.9,0.6-1,1.2c0,0.4,0.4,0.4,0.7,0.4
				C177.7,368.3,178.3,368.3,178.4,367.7z M285.7,395c0.7-0.5,0.6-1.2,0.4-1.9c-0.1-0.3-0.4-0.4-0.7-0.2c-0.7,0.5,0.2,1,0,1.6
				C285.3,394.7,285.4,394.9,285.7,395z M262.2,483.4c0.1,0.7,1.4,0.7,0.6,1.6c-0.2,0.2,0,0.4,0.2,0.4c0.2,0,0.4,0,0.6-0.1
				c0.2-0.2,0.6-0.4,0.4-0.8C263.5,483.9,263.2,483.2,262.2,483.4z M224.5,488.6c-0.4-0.6-1.1-0.5-1.7-0.8c-0.2-0.1-0.7,0-0.8,0.4
				c-0.1,0.2-0.1,0.4,0,0.6c0.2,0.3,0.5,0.2,0.7,0.1C223.3,488.4,223.9,489.2,224.5,488.6z M326.4,530.8c0.4-0.2,0.9-0.2,0.9-0.9
				c0-0.5-0.3-0.7-0.8-0.8c-0.6-0.1-0.8,0.4-0.9,0.9C325.5,530.5,325.9,530.7,326.4,530.8z M299,294c0-0.4-0.3-0.5-0.7-0.4
				c-0.5,0.1-1,0.2-0.9,0.8c0.1,0.5,0.7,0.6,1.1,0.8C298.7,294.9,298.8,294.5,299,294z M307.1,286.7c-0.6,0.2-1,0.6-1,1.2
				c0,0.4,0.3,0.5,0.7,0.5c0.6,0,1-0.3,1-1C307.8,287,307.6,286.7,307.1,286.7z M274.1,282.7c0.9,0.5,1.5,0.7,2-0.1
				c0.2-0.3,0.5-0.7,0-1C275.1,281.2,274.9,282.4,274.1,282.7z M276.9,247.3c0.6,0,0.7-0.4,0.8-0.7c0.1-0.6-0.4-0.8-0.9-0.9
				c-0.4,0-0.9-0.1-0.9,0.4C275.9,246.6,276.5,246.9,276.9,247.3z M226.5,249.7c-0.1-0.4-0.2-0.9-0.8-0.8c-0.5,0.1-0.8,0.6-0.9,1
				c-0.1,0.6,0.5,0.5,0.9,0.5C226.2,250.4,226.6,250.3,226.5,249.7z M218.4,355.8c0.1-0.5-0.2-1-0.3-1.2c-0.9-1.4-1.1-0.1-1.1,0.4
				C217,356,217.8,355.8,218.4,355.8z M226.6,533.9c-0.8-0.3-1.5-0.8-2.1,0.1c-0.3,0.4,0.3,0.5,0.5,0.6
				C225.9,535.4,226.1,534.4,226.6,533.9z M230.6,435.5c1,0.2,1.3,1.2,2.3,1.2C232.8,435.3,232.1,435,230.6,435.5z M351.9,304.7
				c0.4-0.1,1,0.1,1-0.5c0-0.6-0.6-0.4-1-0.4c-0.4,0-0.9,0.1-0.9,0.5C350.9,304.9,351.6,304.6,351.9,304.7z M338.8,557.6
				c0.4,0.4,0.7,0.3,0.9,0.2c0.6-0.3,0.9-0.8,1.3-1.3c0,0-0.1-0.2-0.2-0.2c-0.8-0.3-0.9,0.6-1.4,0.8
				C339.2,557.1,339,557.3,338.8,557.6z M249.2,438.9c-0.3-0.6-1.1-0.7-1.1-1.3c0-0.3-0.3-0.4-0.6-0.3c-0.4,0.1-0.3,0.4-0.3,0.6
				C247.2,439.6,248.4,438.7,249.2,438.9z"/>
			<path d="M300,225.4c0.5-1.6,1.5-2,2.9-1.8c1.3,0.2,2.4-0.5,3.4-1.1c0.7-0.5,0.5-1.2,0.4-1.7c-0.1-0.7-0.7-0.6-1.3-0.5
				c-0.5,0.2-1,0-1.4-0.2c-0.9-0.5-1.7-0.2-2.4,0.3c-0.4,0.3-0.8,0.8-1.4,0.3c-0.6-0.6,0.1-0.8,0.4-1.1c0.2-0.3,0.4-0.6,0.1-0.8
				c-0.9-1,0-1.5,0.6-1.8c1.7-0.7,2.9-1.5,2.4-3.6c-0.1-0.6,0.2-0.7,0.8-0.5c1,0.5,1.3,1.2,0.7,2.1c-0.3,0.5-0.3,0.8-0.1,1.2
				c0.3,0.5,0.7,0.3,1.1,0.2c0.5-0.1,1.1-0.2,1.6-0.1c1.9,0.6,3.4,0.3,4.4-1.7c0.6,1.4-0.2,3.1-1.6,3.4c-2.3,0.5-3.2,1.8-3.3,4.1
				c0,2.5-0.3,2.5-2.7,2.6C303.1,224.9,301.7,225.9,300,225.4z"/>
			<path d="M267,431.2c-0.8-0.5-1.5-2.8-1-3.5c0.2-0.3,0.6-0.4,0.7,0.1C266.9,428.9,267.7,430,267,431.2
				C266.9,431.2,267,431.2,267,431.2z"/>
			<path d="M283.6,433.7c0.1,0.4,0,0.5-0.2,0.6c-0.3,0.1-0.6,0-0.7-0.2c-0.2-0.9-0.3-1.8-0.3-2.6c0-0.1,0.3-0.3,0.5-0.4
				c0.2-0.1,0.5,0.1,0.4,0.3C282.9,432.3,283.6,433,283.6,433.7z"/>
			<path d="M279,407.6c-0.6-0.1-0.6-0.6-0.6-1.1c0-0.3,0.1-0.8,0.4-0.7c0.6,0.1,0.9,0.6,0.7,1.2C279.5,407.3,279.6,407.7,279,407.6z
				"/>
			<path d="M282.7,408c0.6-0.1,0.6,0.3,0.6,0.7c0,0.4,0.1,1.1-0.5,1.1c-0.7,0.1-0.7-0.6-0.8-1C281.8,408.3,282.4,408.2,282.7,408z"
				/>
			<path d="M256.4,249.6c-1.8-0.9-2.1-2.9-3.9-3.5C254.2,246.7,255.9,247.3,256.4,249.6z"/>
			<path d="M218.7,376.2c-0.4,1.7-0.9,3.1-0.9,4.6c0,0.3-0.4,0.5-0.8,0.4c-0.4-0.1-0.2-0.4-0.2-0.7c0.2-1.4,1.1-2.6,1-4.1
				c0-0.3,0.3-0.4,0.6-0.4C218.6,376.1,218.7,376.2,218.7,376.2z"/>
		</g>
	</g>
</g>
<g id="text">
</g>
<g id="guides" display="none">
</g>
<g id="scratch">
</g>
</svg>
