<?xml version="1.0" encoding="utf-8"?>
<!-- Generator: Adobe Illustrator 26.0.2, SVG Export Plug-In . SVG Version: 6.00 Build 0)  -->
<svg version="1.2" baseProfile="tiny" xmlns="http://www.w3.org/2000/svg" xmlns:xlink="http://www.w3.org/1999/xlink" x="0px"
	 y="0px" viewBox="0 0 800 800" overflow="visible" xml:space="preserve">
<g id="fill">
</g>
<g id="bg" display="none">
	<rect x="-4100" y="-1100" display="inline" fill="#EAAA00" width="10200" height="2000"/>
</g>
<g id="counters_00000155831629897369998050000010902328751353074356_">
	<g id="berki_00000139984420069563031480000009736041649818055320_">
		
			<rect id="_x31__x2F_2_x22__800x800_00000151533062096765361270000016188141031391860111_" x="0.6" y="-2" fill="none" width="800" height="800"/>
		<g id="su_ldr_sm_00000092433276839683990770000011693497077061929384_">
			<path d="M296.9,511.9c-1.5,0.7-1.7-0.1-1.8-1.1c-0.2-1.2-0.4-2.4-0.7-3.6c-0.4-1.2-0.7-2.3,1.5-2.3c-1.3-0.4-1.4-1.2-1.3-2
				c0.1-1.3,0-2.7,0.5-4c0.4-1.1-0.7-2.3-0.4-3.5c0.3-0.9-1.1-2.2,0.6-2.8c0.3-0.1,0-0.2-0.1-0.3c-1.1-0.7-0.9-2.1-0.7-2.9
				c0.6-2.9-1.1-4.7-2.6-6.7c-0.7-0.9-1.3-1.7-1.5-2.9c0-0.1-0.1-0.3-0.2-0.4c-1-0.6-1.1-1.7-1.6-2.6c-1.4-2.4-2.9-4.6-4.2-7.1
				c-0.2-0.5-0.7-1-1.2-0.8c-0.6,0.1-1,0.6-1.1,1.3c-0.2,0.6-0.1,1.4-1,1.4c-0.1,0-0.2,0.2-0.2,0.3c0.6,2.9-0.9,5.5-1.6,8.1
				c0,0.1-0.1,0.1-0.1,0.1c-0.2,3.3-2.4,3.6-5,3.4c-0.1,0-0.3,0.1-0.5,0.2c1,0.5,1.8,0.1,2.6,0.1c1.7,0,2.2,0.6,1.5,2.2
				c-1,2.4-1.1,4.9-1.6,7.4c-0.6,2.9-0.6,5.9-2,8.6c-1.1,2.2-2.6,4.1-3.9,6.2c-0.4,0.6-1.2-0.3-1.6,0.6c1.4,0.1,1.2,0.7,0.9,1.8
				c-0.4,1.3,0.6,2.9-0.1,4.2c-1.2,2.1-0.7,5-3.1,6.5c0.5,1.7-1.4,2.1-1.8,3.2c-0.2,0.6-1.8,0.8-0.7,1.9c-0.1,0.1-0.3,0.3-0.4,0.4
				c-2.2,1.1-2.3,3.7-3.6,5.4c0,0.1,0,0.2,0,0.3c-0.1,1-1.8,1.1-1.6,1.2c1.2,0.7,0.3,1.2-0.1,1.7c-0.4,0.6,0.1,1.8-0.8,2.1
				c-0.9,0.3-0.2,1.6-1.2,1.6c0.2,1.8-1.1,3-1.7,4.5c-0.3,0.8-0.9,1.3-1.7,1.7c-1.7,0.8-3.2,1.8-4.6,3.1c-0.4,0.4-0.8,0.8-1.3,0.9
				c-3.3,0.6-3.6,3.6-4.7,5.8c-0.5,0.9-0.1,2.3-0.4,3.4c-0.3,1.1-0.7,2.1-1.4,3.1c-0.3,0.4-0.1,1.4-0.4,2.3
				c-0.5,1.1-1.1,2.2-1.6,3.4c-1.7,3.6-2.9,7.3-4.5,10.9c-1,2.1-2,4.2-2.5,6.4c-0.4,1.6-1.6,2.9-1.7,4.6c-0.1,1.4-1.3,1.3-2.6,1.2
				c1.8,0.4,1.4,1.4,1,2.5c-1.1,3.1-2.6,6-5.1,8.2c-0.5,0.4-0.2,0.7-0.2,1.2c0.2,2.3,2.4,3.4,2.6,5.7c0.1,1.3,0.6,2.7,1.4,3.7
				c1.3,1.6,0.6,3.6,1.8,5.2c0.8,0.9-0.9,0.3-1,1c2.8-0.2,2.3,2.9,3.8,4.2c0.2,0.1,0.3,0.7,0.6,1c0.7,0.8-0.3,0.6-0.6,1
				c2-0.5,2.4,1.4,3.5,2.2c2.1,1.4,4,3,5.9,4.6c1.8,1.5,3.8,3,5,5.4c1.3,2.6,1.5,5.2,1.6,7.9c0,0.3,0.2,0.6-0.1,0.7
				c-1.5,0.6-2.7,1.9-4.2,2.3c-2.4,0.6-4.9,0.6-7.3,0.7c-1,0-2,0-2.7-1c-0.4-0.5-0.9-0.4-1.2,0.1c-0.5,0.8-1.2,0.9-1.9,0.9
				c-2.8,0.1-5.4-0.2-7.9-1.7c-0.4-0.2-0.9-0.3-1.4-0.2c-2.4,0.4-4-1-5.8-2.1c-1-0.7-2.3-0.7-3.3-1.5c-0.9-0.7-2.1-1-2.3-2.4
				c-0.1-0.4-0.5-1-0.9-1.1c-1.8-0.3-2.9-1.6-4.1-2.7c-1.4-1.3-2.9-2.5-3.9-4.1c-1.4-2.3-2.9-4.1-6.2-3.7c-2,0.3-4.3-0.2-5.7-2.3
				c-0.7-1.2-2.2-1.6-3.2-2.7c-1.7-2-3-4.4-5-6.2c-0.8-0.7-0.9-2.3-0.6-3.5c0.7-3.1,1.3-6.4,2.8-9.2c1.3-2.4,1.8-5.2,3.8-7.2
				c0.2-0.2-0.1-0.9,0.2-1.6c0.5-1.2,1.2-2.4,1.9-3.2c1.6-1.6,3-3.6,5.5-4.4c-1.7-0.6-1.1-2.2-1.4-3.4c-0.3-1.2-0.3-2.8,0.8-3.9
				c0.1-0.1,0.4-0.1,0.3-0.4c-0.4-3,1.4-5.6,1.4-8.5c0-0.9,0.8-1.6,1.2-2.4c1.1-2,0.7-4.4,1.6-6.4c1.3-2.9,1.9-6.1,3-9.2
				c1.5-4.2,3.7-8,4.9-12.3c0.4-1.3,1.1-2.6,1.9-3.8c1-1.5,1.6-3.1,2.4-4.7c0.2-0.3,0.4-0.8,0.3-1c-1.6-2.6,0.4-5,0.3-7.5
				c0-0.1,0.1-0.2,0.1-0.3c0.5-0.7-0.4-1.4,0-2.2c0.4-0.8,1.5,0.3,1.9-0.7c-2.1-0.5-2.1-0.5-0.8-2.3c0.1-0.1,0.1-0.3,0.1-0.4
				c-0.3-1.8,0.6-3.2,1.3-4.8c0.6-1.4,0.7-3,1.1-4.5c0.2-0.6,0.1-1.1,0.7-1.5c0.6-0.4,0.8-1.2,0.8-1.7c-0.1-1.9,1.2-3.4,1.4-5.2
				c0.1-0.7-0.5-0.8-0.4-1.6c0.2-1.7,0.7-3.6,0.3-5.2c-0.6-2.3-0.5-4.5-0.6-6.8c-0.1-2.1,0.1-4.2,1.3-5.9c0.3-0.5,0.3-0.7,0.1-1.1
				c-0.1-0.3-0.5-0.7-0.3-0.8c1.2-0.8,0.4-2.1,0.8-3.1c0.5-1.1,1.4-2,1.9-3.1c0.6-1.5,0.9-3.2,0.4-4.8c-0.3-1-1-2,0.2-2.9
				c-0.4-0.5-0.7-1,0.1-1.4c-0.9-1.3,0.4-1,1.1-1.2c-2-0.2-1.3-1.9-1.4-2.6c-0.1-3.3-0.3-6.7,0.2-10c0.1-0.7,0.5-1.5-0.2-2.2
				c-0.2-0.2,0-0.5,0.1-0.7c0.5-0.8,0.2-1.9-0.8-2.2c-1.8-0.6-3.2-1.9-4.9-2.6c-1.6-0.6-3.1-3.4-2.8-5c0.1-0.8-0.6-2,0.9-2.4
				c-1.1-1.1,0.1-2.2,0.1-3.3c0-1.6,0.6-3,1-4.5c0.5-1.8,0.1-3.7,0.8-5.4c0.3-0.8,0.3-1.9,0.3-2.8c0-1.2,0.9-2.1,0.7-3.3
				c-0.1-0.4,0.2-0.7,0.7-0.7c0.3,0,0.7-0.2,0.4-0.4c-1.3-1.1,0-2.4-0.3-3.6c-0.2-0.6-0.7-2,0.8-2.4c0.4-0.1,0.1-0.4-0.1-0.6
				c-0.5-0.6-0.3-0.9,0.1-1.5c0.6-0.7-0.2-1.7,0.4-2.6c0.4-0.6,0.2-1.5,0.7-2.2c0.5-0.7,0-1.2-0.9-1.4c-2.1-0.3-4.2,0.2-6.3,0
				c0-0.8,0.8-0.4,1.3-0.9c-3.2,0.5-5.3-1.2-7.3-3.2c-1.3-1.4-2.1-3.1-2.9-4.7c-0.9-1.7-1.6-3.4-1.9-5.3c-0.4-1.9-0.5-3.8-0.6-5.7
				c0-0.8-0.4-1.7,0.1-2.6c0.5-1.1-1-2.4-2.4-2c-2.8,0.8-5.7,0.6-8.5,1.2c-2.9,0.7-5.9,0.8-8.7,1.9c-1.7,0.7-3.7-1.2-3.6-3.3
				c0-0.6,0.1-1.2-0.2-1.7c-0.4-1.1,0.9-1,0.9-1.5c0.1-0.6-1.5,0-1.2-1.1c0.2-0.6-0.2-1.3,0.2-1.9c0.1-0.2,0.1-0.7,0-0.9
				c-1-1.7-0.4-3.5-0.2-5.1c0.2-1.8,0.4-3.6,0.7-5.4c0.2-1.6,0.3-3.3,0.4-4.9c0-0.4-0.1-0.9,0.5-0.9c0.6,0,1.1-0.5,1.7-0.1
				c0.3,0.2,0.3,0.4,0.1,0.6c-0.3,0.3-0.6,0.6-0.8,1c-0.3,0.5-0.8,1-0.5,1.6c0.3,0.6,0.9,0,1.3,0c0.4,0,0.8-0.1,0.9,0.5
				c0,0.4-0.4,0.5-0.7,0.5c-0.4,0.1-0.9,0.1-1.1,0.5c-0.2,0.3-0.4,0.7-0.3,1c0.1,0.5,0.6,0.3,1,0.2c2.1-0.4,4.3-0.3,6.2-1.6
				c0.8-0.5,1.9,0.6,2.7-0.3c0.6-0.7,1.5-0.7,2.3-0.9c2-0.4,4-0.7,6-0.8c1.3-0.1,1.2-1.1,1.3-1.8c0-0.9-0.8-0.5-1.4-0.5
				c-2.4-0.3-4.8-0.7-7.2-0.1c-0.4,0.1-0.9-0.2-1-0.7c0-0.5,0.5-0.5,0.8-0.6c1.5-0.2,2.2-1.8,3.7-2c0.3,0,0.5-0.4,0.4-0.7
				c-0.1-0.3-0.4-0.3-0.7-0.3c-0.8,0-1.6,0-2.4,0c-0.7,0-1.4,0.2-1.6-0.9c-0.1-0.6-0.8-0.6-1.2-0.6c-2.4,0.2-4.9,0.4-7.3,0.8
				c-1.9,0.3-0.9,2.1-1.1,3.2c-0.1,0.5,0,1.1-0.5,1.3c-0.3,0.1-0.8,0.3-1.1,0.2c-0.5-0.2-0.2-0.6-0.1-1c0.7-3.4,2.2-6.4,5.4-7.8
				c2.2-1,4.9-1.7,7.3-0.1c0.2,0.1,0.5,0.2,0.6,0c1.1-2.2,3-0.6,4.5-1.1c0.4-0.1,0.8,0.1,1.3,0.1c0.4,0,0.9-0.2,0.8-0.6
				c-0.3-1.4,1-2.5,1-3.7c0-3.2,1.5-6.4-0.1-9.6c-0.3-0.6-0.3-1.4,0.2-2c1.4-1.5,1.6-3.3,1.3-5.2c-0.1-0.5-0.1-1.1,0.2-1.4
				c1.5-2.1,0.9-4.7,1.9-6.9c0.4-0.9,1.3-1.6,1.4-2.7c0.1-2.2,0.2-4.5,0.4-6.7c0.2-2.5,0.9-4.8,2.5-6.7c0.3-0.3,0.5-0.5,0.4-1
				c-0.2-2.4,1.1-4.3,2.4-6.1c0.7-0.9,0.8-1.9,0.6-2.8c-0.4-1.9-1.1-3.6-2.2-5.2c-0.9-1.3-1.8-2.8-1.7-4.5c0.1-2.7,0.1-5.3,0.5-8
				c0.3-1.7,0.5-2.9,2.8-2.3c-0.6-0.9-1.7-0.3-2.1-1.1c-0.4-0.8,0.1-1.6,0.2-2.3c0.4-2.3,0.9-4.6,1.4-6.9c0.2-1.1,1.5-2,0.9-3.3
				c0,0,0.3-0.3,0.5-0.3c3-0.9,3.6-3.5,4.3-6.1c1-3.7,2.3-7.3,5.8-9.5c0.5-0.3,1-0.8,1.6-0.4c0.5,0.3,0.6,0.1,0.7-0.4
				c0.1-0.2,0.4-0.5,0.4-0.4c1.6,1.2,2-1,3.2-1.1c1.4-0.1,2.7-0.5,4.1-0.7c1.7-0.3,3.3-1.1,5.1-1c1.7,0.1,3.3-0.2,4.9,0.6
				c0.9,0.5,2,0.3,3.1-0.2c2.5-1.1,3.9-3.5,6.2-4.7c0.7-2.9,3.3-2.5,5.3-3.1c0.9-0.3,1.3-0.6,1.6-1.6c0.1-0.5-0.2-1.6,0.9-1.5
				c0.1,0,0.2-0.1,0.2-0.2c0.1-2.1,0.2-2,1.5-3.5c0.8-0.8,0.8-2,0.8-3.1c0-1.2-0.1-2.3,1.7-2c0.9,0.2,0.5-0.6,0.5-0.9
				c-0.1-1,0.2-1.5,1.4-1.1c0.6,0.3,1.1,0.3,1.5-0.5c-0.9,0-1.6-0.6-2.5-0.4c-0.4,0.1-0.5-0.1-0.6-0.5c-0.5-1.8-1.6-3.3-1.7-5.2
				c0-0.7-0.5-0.7-1-0.8c-1.4-0.3-2.8-0.2-4.2-0.1c-1.1,0-1.8-0.4-2.6-1.1c-0.4-0.3-0.9-0.9-0.6-1.2c1.3-1.1-0.3-2.6,0.6-3.9
				c0.7,0.4,1,1.9,2,1.1c0.7-0.6,1.7-0.3,2.5-1.2c-1.5-0.2-2.8-0.4-3.9-1.1c-0.3-0.2-0.6-0.3-0.5-0.7c1.2-3.5,0.5-7.2,1-10.8
				c0.4-2.7-0.1-5.4,0.3-8c0.4-2.5,0.9-5,2.2-7.3c0.8-1.5,1.5-3,2.3-4.5c0.5-1,1.4-1.4,2.1-2.1c2.7-2.7,5.9-4.8,9.3-6.7
				c1.5-0.8,3.3-1.3,4.8-2.4c0.9-0.7,1.8,0.3,2.9,0.1c-0.5-0.6-0.7-1.2,0.4-1.3c4.1-0.3,8.2-0.6,12.3-0.4c1.9,0.1,3.6,1,5.4,1.4
				c3.8,0.8,6.8,3.4,9.9,5.4c1.8,1.1,3.2,3.1,4.5,4.8c1.1,1.5,1.7,3.3,2.7,4.9c0.5,0.9,1,2.1,1.3,3.3c0.2,0.9,0.8,1.7,1.1,2.6
				c0,0,0.1,0.1,0.1,0.1c0,2,1.5,3.6,1.8,5.5c0.3,1.8,0.7,3.5,1.3,5.1c0.7,1.7,1.2,3.6,2.6,4.9c0.7,0.6,0.1,1-0.5,1.4
				c1.6,0.9,3,2,4.2,3.2c0.9,1,0.8,1.6-0.4,2.2c-0.4,0.2-0.8,0.3-1.2,0.4c-1.1,0.2-1.9,0.5-2.9,1.1c-1.2,0.8-2.8,0.9-4.2,1.3
				c-0.7,0.2-1.4,0.3-2,0.4c-1.7,0.4-2.2,1.2-1.6,2.8c0.3,0.8,0.1,1.7,0.5,2.5c0.3,0.6-1.4,2-2.6,2c-0.9,0-2,0.2-1.8-1.3
				c0.1-0.5,0-1-0.7-1.1c-0.6-0.1-0.9,0.3-1.1,0.7c-0.2,0.3-0.3,0.7-0.5,1c-0.1,0.2-0.2,0.4-0.3,0.6c-1.1-0.6-2.3,0.3-3.5-0.2
				c-0.8-0.3-1-1-0.9-1.9c0.1-0.4,0-0.8-0.4-1c-0.4-0.2-0.7,0-1,0.3c-0.3,0.5-0.9,1-1.3,0.5c-1.1-1.4-1.1-0.6-1.2,0.4
				c-0.2,1.9-1.7,2.2-3.3,2.6c0.2-0.8,0.4-1.5,0.6-2.1c0.2-0.3,0.8-0.6,0.3-1c-0.4-0.4-1.1-0.1-1.4,0.4c-1.1,1.7-2.7,3.1-3,5.3
				c-0.2,1.6-1,3.1-1.8,4.5c-0.6,1,0.3,1.8,0.2,2.6c-0.1,1.1,0.2,1.6,1.3,1.8c0.5,0.1,0.8,0.4,1,1c0.5,2.1,1.5,4,2.2,6
				c0.1,0.3,0.1,0.6,0.5,0.7c1.1,0.3,2.5,0.3,2.1,2.2c0,0.1,0.6,0.6,0.9,0.5c1.4-0.2,1.7,0.7,2.2,1.8c0.6,1.4,2.2,1.5,3.3,1.2
				c1.3-0.4,2.7-0.8,4-1.5c0.7-0.4,1.1-1,0.9-1.7c-0.6-1.5-0.4-3.4-2.1-4.4c-0.4-0.2-0.7-0.6-1-1c-0.6-0.6-0.5-1.1,0.2-1.4
				c1-0.4,2.2-0.3,3.1,0.1c0.7,0.3,0.2,1.4-0.1,2.2c-0.3,0.6-0.4,1,0,1.7c1.6,2.8,0.5,5.7-2.4,7.1c-1.4,0.7-2.9,1-4.4,1.4
				c-0.7,0.2-1.6-0.3-2.4-0.4c-0.7-0.1-1.4-0.1-2,0.3c-1.1,0.8-1,1.5,0.2,2c1,0.4,1.8,1.2,2.9,1.2c0.2,0,0.5,0.2,0.5,0.3
				c0.3,1.6,1.7,1.7,2.8,2.2c3.9,1.9,6.4,5,8.2,8.8c0.1,0.1,0.2,0.3,0.3,0.4c2.9,1.7,4.2,4.6,5.7,7.4c1,1.9,2.1,3.8,2.3,5.8
				c0.1,1.6,1.8,2.8,1.1,4.6c2.3,1.6,1.8,4.3,2.5,6.5c0.3,0.9,1,1.9,0.3,2.9c-0.1,0.1,0.1,0.6,0.1,0.6c1.7-0.2,2.1,2.1,3.6,2
				c1,0,1.9,0.7,2.1,1.3c0.4,1.3,1.4,1.7,2.3,2.3c2,1.1,3.3,3.1,5.4,4.1c2.6,1.2,5.1,2.8,7.9,3.8c0.5,0.2,1.1,0.1,1.6,0.2
				c0.7,0,0.8-0.5,1-1c0.3-0.7-0.2-0.8-0.6-1c-1.9-1.1-2-2.2-0.5-3.8c0.8-0.8,0.9-2.1,2.3-2.3c0.2,0,0.3-0.4,0.2-0.7
				c-0.8-2,0.8-2.9,1.9-3.9c0.8-0.8,1.7-1.4,2.4-2.4c0.8-1.1,2.3-1.8,3.7-1.6c1.5,0.1,2,1.3,2.3,2.7c0.2,1,0.3,1.9,0.4,2.9
				c0.2,2.2,1.8,2.9,3.7,1.7c0.4-0.3,0.9-0.5,1.4-0.8c2.3-1.7,4.3-1.1,5.5,1.6c0.1,0.1,0.2,0.3,0.2,0.4c0.1,0.6-1,1.2,0.4,1.7
				c0.7,0.2,1.1,1.2,1.9,1.6c0.5,0.2,0.8,0.5,1,1.1c0.3,1.3,0.8,2.6,2.4,2.8c0.1,0,0.2,0.1,0.2,0.2c0.4,0.7,1.7,0.9,1.5,1.7
				c-0.2,0.8-1.3,0.4-2,0.5c-0.9,0.2-1.4,0.3-1.4,1.4c0,0.7-0.3,1.6-0.7,2.3c-0.3,0.5-0.4,0.9,0.2,1.1c0.6,0.3,0.8,1.5,1.4,1.1
				c0.6-0.5,1.4-1,1.8-1.9c0.2-0.4,0.1-0.7-0.2-1c-0.7-0.6-0.9-1.5-0.5-2.1c0.5-0.7,1.5-0.6,2.2-0.1c0.2,0.7-1.1,0.7-0.6,0.9
				c0.7,0.3,0.1,1.3,1.3,1.4c1.8,0.1,3.4,2.5,3,4.3c-0.4,2,0.7,3.5,1.6,5.1c0.8,1.3,0.7,2.4-0.4,3.4c-0.2,0.2-0.5,0.3-0.4,0.6
				c0.6,1.4-0.5,1.9-1.4,2.1c-1.6,0.5-2,1.6-1.8,2.9c0.2,1.9-0.5,3.1-1.7,4.5c-0.8,1-1.4,2.3-2.6,3.1c-1,0.8-2.1,1.6-3,2.5
				c-1.5,1.5-3.9,1.7-5.9,2.5c-0.9,0.4-2.5-0.8-3.4-1.8c-0.4-0.4-0.2-1.5-1.2-1.1c-0.7,0.3-1,1.2-0.8,1.9c0.2,0.8,0.1,1.4-0.4,2
				c-0.8-0.2-0.7-1-1.3-1.6c-0.3,1.8-0.1,3.4-0.4,5c-0.3,1.2,0.4,1.4,1.8,0.4c-1,2.5-0.8,5-3.1,6.3c0.8,1.6,2.5,1.8,4.2,1.9
				c5.6,0.4,11.2,0.5,16.7,1.4c4,0.7,8.1,0.9,12.1,1.2c5,0.5,9.9,1.5,14.9,1.3c0.5,0,1.2,0,1.6,0.3c1.5,1.2,3.2,1,4.9,0.9
				c2.8-0.1,4.6-1.6,5.3-4.2c0.6-2.3,3.9-3.3,5.7-1.8c0.6,0.5,0.3,1.2,0.3,1.8c0.2,3.7,1.8,5.5,5.4,5.8c3.8,0.3,7.4,1.1,11.2,1.2
				c2,0,2.8,2.1,1.5,3.8c-1.6,2-2.6,4.2-3.6,6.5c-0.3,0.6-1,0.8-1.8,0.8c-3.6-0.1-7.2-0.4-10.8-1.2c-2.1-0.5-4.3-0.1-6.5-0.3
				c-4.3-0.5-8.6-0.7-12.9-1.3c-0.9-0.1-1.8,0-2.7-0.1c-7.2-1.2-14.4-1.7-21.7-2.1c-2.2-0.1-4.4-0.1-6.5-0.4
				c-0.8-0.1-1.4-0.6-2.3-0.7c-2.1-0.2-3.6,1.1-5.3,1.8c-2.2,1-4.3,0.3-6.4,0.2c-1.9-0.1-3.7-0.3-5.6-0.2c-0.7,0-1,0.3-1.2,1
				c-0.7,2.5-1.2,5.1-2.8,7.3c-0.4,0.6,0.4,1.2,0.3,1.6c-0.8,4-0.5,8.1-1.1,12.2c-0.1,1-0.3,1.5-1.7,1.6c0.8,0.4,1.4,0.1,1.1,1.1
				c-0.3,1.3-0.6,2.7-0.3,4.1c0.2,0.7-0.2,1.5-0.4,2.1c-0.8,3.2-1.2,6.5-2.4,9.6c-0.2,0.7-0.4,1.6-1.3,0.5c-0.3-0.4-0.8-0.3-1.1,0
				c-0.2,0.2-0.4,0.4-0.2,0.7c0.3,0.5,0.6,0.2,1,0.1c1.1-0.3,1.4,0.2,1.1,1.2c-0.3,1-0.6,1.9-0.8,2.9c-0.3,1.4-1.2,2.1-2.8,1.9
				c-2.4-0.3-4.9-0.4-7.4-0.5c-0.7,0-1.4,0-2.1,0.2c-0.5,0.1-0.9,0.2-0.4,1.2c0.7,1.6,1.2,3.4,1.6,5.1c0.4,1.9,1.2,3.5,1.7,5.3
				c0.2,0.9,0.7,1.7,0.4,2.7c0,0.1-0.1,0.2-0.1,0.3c1.4,2.3,1.8,3.7,2.1,5.9c0.3,2.1,1.6,3.9,1.8,6.1c0.2,2.2,0.9,4.4,0.9,6.7
				c0,1.5-1.3,1.8-1.8,2.8c-0.4,1-1,1.7-0.3,2.9c0.3,0.6,0.3,1.7,0.4,2.6c0.2,1.2,0.5,2.4,0.7,3.7c0.1,0.6-0.2,1.1,0.4,1.8
				c1.1,1.3,0.1,3.2,0.3,4.8c0.1,0.5-0.9,0-0.9,0.8c1.2,0,2.2,0.2,1.4,1.8c-0.2,0.4,0.3,0.3,0.5,0.4c1.6,0.6,2.7,2.5,2.1,4.2
				c-0.4,1.1,0.1,1.9,0.2,2.7c0.4,1.7,0,3.5,0.8,5.1c1.1,2,1.2,4.3,1.7,6.5c0.3,1.3,0.6,2.7-0.2,4.1c-0.1,0.2,0.8,0,0.7,0.7
				c-0.1,0.9,0.7,1.7,0,2.6c0.9,0.6-0.4,1.8,0.7,2.5c0.4,0.2,0.5,1.8,0.2,2c-1.1,0.8-0.4,1.1,0.2,1.5c0.9,0.7,0.4,1.6,0.2,2.2
				c-0.8,2.6-1.1,5-0.1,7.7c0.4,1,1.3,2,1.1,3.4c-0.3,1.4-0.3,2.9-0.2,4.3c0.2,2.7-0.3,5.3-0.3,8c0,2.7,0.3,5.4-0.6,7.9
				c-0.4,1,0.7,3-1.5,3.3c1.4,0.3,1.4,1,1.3,2.1c-0.1,1.1-0.1,2-0.7,3.1c-0.6,1.2-1.2,0.6-1.8,0.7c-0.7,0.2-1-0.4-0.8-1.2
				c0.1-0.3-0.1-0.5-0.4-0.6c-0.3-0.1-0.7,0.1-0.8,0.4c-0.7,1-0.6,2.3-1,3.4c-0.2,0.5,1,0.8,1.1,0.3c0.4-1.3,2.1-0.5,2.6-1.6
				c0.1-0.2,0.7-0.2,1,0.1c0.4,0.3,0,0.5,0,0.8c-0.3,1-0.4,1.9-0.3,3c0.1,0.8,0.2,1.7-0.3,2.5c-0.7,1.2-0.7,2.6-0.7,4
				c0,1.4-0.4,2.7-0.9,4c-0.5,1.3-1.1,2.5,0,3.8c0.5,0.5,0,1.1-0.2,1.5c-0.5,1.4,0.7,2.8-0.1,4.2c-0.8,1.5,0.1,3,0,4.6
				c-0.1,1.6-0.3,2.5-2.1,2.1c0,0.6,0.3,0.6,0.7,0.6c1.4-0.2,1.8,0.9,1.5,1.6c-0.3,0.9,0,2.1-0.9,2.8c-0.1,0.1-0.2,0.2-0.1,0.4
				c1,2.9,0,5.7-0.2,8.6c-0.2,2.8-0.8,5.6-0.5,8.4c0.1,0.8-0.2,1.5-0.2,2.2c0,0.8-0.2,1.6-1.6,1.2c1.4,0.5,1.3,1.5,1.2,2.4
				c-0.2,1.8,0.3,3.7-0.2,5.5c-0.3,1.2-0.4,2.4-0.1,3.6c0.2,1-0.7,0.9-1.2,1.2c0.1,0.7,1.3,0.4,1.1,1.3c-0.2,0.7-0.6,1.1-1.2,1.4
				c-0.8,0.4-0.9,1.8-2.2,1.6c0.7,0.8,1.5,1,2.5,1.1c0.5,0.1,1.1,0,1.3,0.5c0.3,0.9-1,0.2-0.9,1c0.8,0.1,2.2-0.4,1.3,1.4
				c-0.2,0.4,0.4,0.6,0.8,0.9c2.4,1.8,4.8,3.4,6.7,5.8c0.4,0.5,1,0.7,1.5,1.1c1.3,1.2,2.6,2.7,4.2,3.1c1.7,0.5,3.1,1.5,5,1.6
				c1.9,0.2,4,0.6,5.9,1.1c3,0.8,5.5,2.7,8,4.6c0.8,0.7,1.3,1.4-0.5,1.7c2.1,0.4,2.7,1.2,2.9,3.5c0.2,1.6-0.5,3.3,0.3,4.9
				c0.2,0.4-0.3,0.8-0.7,0.9c-3.2,1.5-6.6,2.9-10.1,3.3c-4.1,0.4-8.2,0.7-12.3,0.4c-2.1-0.2-4.1,0.4-6.1,0.8c-1,0.2-1.9,0.2-2.9-0.3
				c-1.4-0.7-3-0.8-4.6-0.7c-1.6,0.1-3,0.1-4.3-1.4c-1.1-1.3-3.1-0.6-4.7-0.9c-0.5-0.1-1,0.1-1.6-0.1c-1.7-0.7-3.5-0.3-5,0.5
				c-4.7,2.7-9.8,2.9-15,2.3c-0.8-0.1-1.9,0.6-2.4-0.7c-0.1-0.2-0.2-0.1-0.4,0c-1.8,1.2-3.4,0.5-3.7-1.5c-0.1-1.1-0.7-2.2,0.1-3.3
				c0,0,0-0.1,0-0.2c-1.7-1.5-0.2-2.1,1.2-2.8c-2.6-0.1-1.6-2.1-1.9-3.1c-0.3-1.1,0.3-2.5,0.3-3.7c0-0.9,0.5-0.9,1.4-0.9
				c-0.8-0.2-1.9-0.1-0.9-1.1c0.6-0.6,0.8-1.7,0.7-2.2c-0.6-2.9,1.7-4.6,2.9-6.7c0.6-1.1,0.7-3.7-0.2-4.7c-0.6-0.7-0.9-1.4-1-2.3
				c0-0.7-0.2-1.5,1.2-1.5c-1.2-0.2-1.2-0.8-1.2-1.7c-0.1-1.9-0.4-3.9-0.7-5.8c-0.3-2.5,0.5-4.9,0.4-7.4c-0.1-1.8-0.1-3.6-0.2-5.4
				c-0.1-1.2,0.1-2.5-0.3-3.7c-0.1-0.4-0.2-1.3,0.7-0.5c0.1,0.1,0.3,0,0.4-0.2c0.1-0.3-0.1-0.5-0.4-0.6c-1.2-0.5-0.6-1.6-0.8-2.4
				c-0.2-0.7,0.8-0.3,1.1-0.9c-1-0.1-1.1-0.7-1.1-1.6c0-3.7,0.4-7.3,0.4-10.9c0-4.6-0.3-9.3,0.1-13.9c0.1-1.1,0-2.3,0.2-3.5
				c0.2-1-0.7-1.4-1-2.1c-0.2-0.4-0.5-0.7-0.1-1.2c0.4-0.4,0.7-0.2,1.1,0c0.7,0.5,1.7,0.7,2.2,1.5c0.1,0.2,0.5,0.3,0.7,0
				c0.1-0.1,0-0.4-0.1-0.6c-1.2-1.2-2.3-2.6-4.3-1.7c-0.6,0.3-0.9-0.3-0.9-0.8c0-1.1-0.3-2.3-0.4-3.3c-0.1-1.5-0.6-2.9-0.5-4.5
				c0.1-1.8,1.1,0,1.5-0.4c0-0.1,0.1-0.2,0.1-0.3c-3-1.9-2.8-5.3-3.6-8.2c-0.7-2.5-1.9-5-1.9-7.7c0-1.7-1-3.1-1-4.9
				c0-1-0.7-2.1-1.2-3.2C295.9,513.8,295.3,512.8,296.9,511.9z M334.6,470.9c-1.5-0.7-2.6,0.6-4,0.7c-0.7,0.1-0.3,1.1-0.6,1.7
				c-0.2,0.4,0.4,0.5,0.8,0.6c0.5,0.1,1-0.1,1-0.8c0-0.4,0.3-0.8,0.5-0.7C333.9,473,334,471.6,334.6,470.9c0.4-0.3,0.9-0.5,1.4-0.7
				c1.2-0.7,0.6-1.7,0.3-2.5c-0.4-1.1-1.1-0.3-1.7,0C333.1,468.7,334.2,469.8,334.6,470.9z M240.9,502.2c0,0.2-0.1,0.3-0.1,0.5
				c0.1,0.6,0.3,1.2,1,1.3c0.6,0.1,1-0.5,1.2-0.9c0.2-0.6,0.1-1.4-0.4-1.8c-0.6-0.4-0.7,0.6-1.2,0.8
				C241.3,502.2,241,502.2,240.9,502.2c-0.4-1-1.2-1.6-2.1-2.2c-0.6-0.3-1.3-0.1-2-0.5c-0.9-0.6-2-0.4-2.8,0.3
				c-0.2,0.2-0.9,0.2-0.7,0.7c0.2,0.6,0.7,0.3,1.1,0.2c1.4-0.6,1.2,0.2,0.9,1c-0.1,0.3-0.4,0.6-0.1,0.9c0.3,0.4,0.7,0.1,1,0
				c0.5-0.1,0.9-0.4,1-1c0.1-0.5,0.1-1.1,0.8-0.9c0.6,0.2,1.6,0.2,1.7,1.2c0,0.4-0.4,0.9,0.2,1.1
				C240.5,503.3,240.5,502.5,240.9,502.2z M237.3,307.6c-0.3,0.4,0,0.8,0,1.2c0.3,1.6,1.3,3.2-0.3,4.7c-0.4,0.3,0.2,0.8,0.4,1.1
				c0.2,0.3,0.7,0.2,0.8,0c0.5-0.7,1.2-1.1,1.2-2.2c0-0.9-0.8-1.6-0.5-2.4C239.4,308.4,238.6,307.9,237.3,307.6
				c0.6-0.7,0.5-1.7,1.1-2.5c0.3-0.4,0.3-1.3-0.4-1.5c-1.1-0.2-1.7-1-2.4-1.7c-1-0.9-1.4-0.7-1.7,0.7c-0.3,1.4-1.7,2-2.9,1.2
				c-0.6-0.4-1.3-0.6-1.6-0.2c-1.2,1.5-3.3,1.2-4.7,2.4c-0.6,0.5-1.6,1-2.1-0.3c-0.5-1.5-1.2-1.7-2.5-1c-0.6,0.4-1.1,1.4-1.8,1.1
				c-2.2-0.9-3.4,0.8-4.9,1.7c-1.1,0.6-1,1.9-0.8,2.8c0.2,0.8,1.3,0.4,2,0.2c1.9-0.5,3.9-0.4,5.9-0.8c0.6-0.1,1.9-0.1,2.7,0.4
				c0.3,0.1,0.6,0.4,0.7,0.6c0.1,0.4-0.3,0.6-0.5,0.7c-1.5,0.4-2,1.6-2.8,2.8c1.5-0.2,3.5,0.6,4.4-0.7c1-1.4,2.2-1.7,3.5-1.9
				c1.5-0.1,2.8-0.6,4.1-1.2c0.4-0.2,1-0.3,1-1.1c-0.1-1.6,0.8-2,2.2-1.9C236.4,307.6,236.9,307.6,237.3,307.6z M268.1,429.3
				c1.3-0.1,2.5-0.6,3.7-0.9c0.9-0.2,1.7-0.3,2.1,1c0.3,0.9,0.4,1.8,0.6,2.6c0.2,0.7,0.6,1.3,1.4,1c0.9-0.3,0.3-0.9,0.1-1.4
				c-0.4-0.8-0.3-1.6,0.7-1.6c0.9-0.1,1.9,0.7,2.2,1.2c0.7,1.3,1,2.9,1.3,4.3c0.1,0.4-0.2,1,0.5,1.2c0.5,0.1,0.9-0.1,1.1-0.6
				c0.3-0.6,1.1-0.6,1.1-0.1c-0.1,1.7,1.1,1.4,2.1,1.5c0.5,0.1,0.8,0.2,0.9,0.7c0.2,0.8,0.5,0.7,1.1,0.2c1.2-1,2.6-1.6,4.3-1.3
				c1.3,0.2,1.6-0.5,1.4-1.6c-0.2-0.8-0.4-1.5-0.6-2.2c-0.1-0.4-0.1-0.8,0.3-1c0.5-0.2,0.9,0.1,1,0.5c0.2,0.8,0.5,1.6,0.1,2.3
				c-0.3,0.6-0.1,1,0.3,1.4c0.8,0.6,1.7,0.3,2.5,0.1c0.7-0.2,0.5-0.8,0.4-1.4c-0.4-2.4-0.9-4.8-0.5-7.2c0-0.2,0-0.4-0.1-0.6
				c-0.3-1.9-1-3.9-0.6-5.9c0.2-0.9-1.1-1.6-0.6-2.6c-1-0.4-2-1.1-2.7,0.7c-0.1-1.1-0.3-1.9,0.4-2.9c-0.7,0.1-1.7,0.5-1.8-0.5
				c-0.1-1.2-0.9-1.9-1.3-2.9c-0.3-0.6-0.5-1.2-0.2-1.9c0.5-1.2,0-1.9-1.3-2.1c-2-0.2-2.7-1.3-2.5-3.3c0.1-0.9,0.1-1.9,0.1-2.8
				c0-0.9-1-1.2-1.5-1.4c-0.7-0.3-0.6,0.8-0.9,1.2c-0.2,0.4,0.1,1.1-0.7,1.3c-0.4-1-0.8-2.1-1.3-3.1c-0.2-0.6-0.7-0.8-1.3-0.7
				c-0.6,0.1-1.3,0.6-1.2,0.9c0.2,1.4-0.5,2.7-0.6,4c-0.1,1.3,0.4,2.5,0.2,3.8c-0.2,1-0.4,1.5-1.5,1.3c-0.4-0.1-0.8-0.2-1.1,0.1
				c-1.2,0.8-1.2-0.1-1.3-0.9c0-0.5,0.2-1,0.3-1.6c-1.7,0.6-3.3,1.1-4.1-1.1c-0.1-0.1-0.5-0.2-0.7-0.2c-1.2-0.1-1.5-0.8-1.3-1.9
				c0.1-0.6,0-1.1-0.6-1c-0.9,0.2-1.9,0.4-2.5,1c-1.1,1.1-2.4,2.4-1.8,4.3c0,0.1-0.2,0.2-0.3,0.3c-0.1-0.1-0.2-0.2-0.3-0.2
				c-0.1-0.4-0.2-0.7-0.3-1.1c-0.5-2.8-0.6-2.6-3.3-3.4c-0.9-0.2-2,0.2-2.8-0.8c-0.2-0.3-1.1-0.1-1.3,0.5c-0.6,1.2-1.7,1.1-2.6,0.7
				c-1.1-0.5-1.1,0.1-1.2,0.8c-0.1,0.4,0.1,1.1-0.8,0.7c-1.3-0.6-2.2-1.5-1.9-3.1c0.1-0.4,0.2-0.9-0.1-1.2c-0.2-0.3-0.2-0.9-0.9-0.7
				c-0.4,0.2-1.1,0.6-0.8,1c0.5,0.9-0.8,1.6,0.1,2.6c0.5,0.5-1.1,2.2-1.9,2.1c-1-0.1-1.4,0.2-1.3,1.2c0,1.5,0.4,3,0.3,4.6
				c-0.1,1.3-0.6,3.1-1.8,3.5c-0.7,0.2-1.3,0.1-1.4,1.2c-0.1,0.7-0.1,1.6,0.2,1.9c0.8,0.8,0.5,1.5,0.4,2.4c-0.1,1-0.8,2-0.1,3.1
				c0.1,0.2,0,0.4-0.3,0.5c-0.2,0.1-0.5,0-0.4-0.3c0.1-1-1.2-1.7-0.7-2.9c0.2-0.5-0.2-0.8-1-1c0.3,1.9-1.6,3.6,0.1,5.4
				c0.1,0.1,0,0.3,0,0.5c0.1,2-0.9,3.9-0.4,6c0.1,0.4-0.2,1-0.6,1.5c-1.3,1.4-1.4,3.9-0.2,5.3c0.3,0.4,0.6,0.4,1,0.3
				c0.3-0.1,0.8,0,0.7-0.4c-0.3-0.8,0.4-1.3,0.5-1.9c0.1-0.4-0.1-1,0.5-1c0.6,0,0.4,0.6,0.5,1c0.1,0.4,0.2,0.9,0.7,0.9
				c0.5,0,0.8-0.3,0.9-0.8c0.1-0.8,0.6-1.3,1-2.1c0.4,0.8,0.5,1.6,0.1,2c-0.9,0.9,0.4,1.6,0.1,2.4c0.9,0.2,1.2-0.3,1.5-1
				c0.1-0.3,0.4-0.3,0.7-0.3c0.7,0,0.8-0.4,0.8-1.1c0-1.1,0.1-2.2,0.2-3.3c0.1-0.7,0.2-1.2,1.3-0.8c0.9,0.4,2.1,0.9,3.1,0.5
				c1.2-0.5,1.9-0.5,2.4,0.8c0.1,0.3,0.3,0.5,0.6,0.4c0.1,0,0.3-0.2,0.3-0.3c-0.3-1.6,0.7-3.2,0.4-4.8c-0.1-0.6-0.1-1.3,0.8-2
				c-0.1,1.2,0.3,2.1-0.2,3c-0.2,0.5,0.1,1,0.5,1.4c0.2,0.2,0.5,0.1,0.7-0.1c0.5-0.4,0.3-0.9,0.2-1.3c-0.1-0.4-0.4-0.8-0.4-1
				c0.6-2,0.1-3.9,0-5.9c-0.1-1.4,1.2-2.1,2-3c0.3-0.3,0.8-0.3,1,0.3c0.5,1.8,1.3,3.6,0.9,5.6c0,0.3-0.1,0.5,0.1,0.7
				c0.8,1.4,0.8,1.4,0.2,2.7c-0.1,0.3,0,0.3,0.2,0.4c0.5,0.2,0.8,1,1.6,0.6c0.3-0.2,0.3-0.3,0.2-0.6c-1-2.1-0.5-4.4-1.2-6.6
				c-0.4-1.2,0.1-2.4,1.2-3.2c0.8-0.6,1.4-0.6,1.5,0.5c0.2,1.8,0.8,3.6,0.7,5.5c0,0.8,0,1.8,0.5,2.2
				C266.9,430.6,267.4,429.5,268.1,429.3L268.1,429.3z M230.2,325.4c-0.2-0.3-0.7-0.5-0.8-0.9c-0.4-1.2-1.1-1.1-2.1-0.9
				c-1,0.1-1.4,1-2.4,1.1c-4.4,0.4-7.7,2.7-10.3,6.2c-0.4,0.6-1.1,1.2-1.9,0.6c-0.8-0.6-0.1-1.1,0.2-1.6c0.2-0.3,0.3-0.6,0.3-1
				c0.2-1,0.7-1.6,1.5-2.3c0.8-0.7,2.2-0.8,2.6-1.7c0.7-1.5,2.1-2,3.4-2.6c1.2-0.5,2.3-0.9,2.9-2.3c0.2-0.5,0.8-1,0.2-1.5
				c-0.5-0.4-1.2-0.6-1.8-0.1c-0.7,0.5-1.5,0.8-2.4,0.8c-1.5,0-1.7-0.3-1.2-1.7c0.1-0.3,0.1-0.7,0.2-1.1c0.4-1.3-0.1-1.2-1.1-0.9
				c-1.5,0.4-2.6,1.5-3.8,2.3c-2.2,1.4-5.2,1.4-7.1,3.7c-1.3,1.6-3.5,2.2-4.6,4.3c-0.7,1.3-0.7,2.5-0.3,3.7c0.2,0.8,1.1,1,1.8,0.3
				c1-1,2.2-1.8,2.9-3.2c0.5-0.9,1.8-1.4,1.8-2.8c0-0.1,0.6-0.2,0.9-0.3c0.9-0.3,2,0.2,2.9-0.7c0.2-0.2,1.4-0.1,1.7,0.5
				c0.2,0.6,0,1.3-0.4,1.8c-0.3,0.4-0.8,0.7-1,1.2c-1.1,1.9-2.1,3.9-3.6,5.4c-1.5,1.4-2.1,3.1-3.1,4.7c-0.4,0.7-0.2,1.2,0.4,1.8
				c0.7,0.7,1,0.2,1.4-0.2c1.1-1.4,2.7-2.4,4.2-3.3c2.1-1.3,4.4-2.4,6.3-4c0.5-0.5,1.3-0.9,1.8-0.1c0.5,0.8-0.3,1.2-1,1.5
				c-1.3,0.5-2.1,1.5-2.1,2.8c0.1,1-0.3,1.9-0.8,2.3c-1.8,1.1-2.1,3.2-3.4,4.6c-0.5,0.5-0.6,1.3-0.1,1.7c0.6,0.5,1.2,1.2,2.1,0.8
				c0.5-0.2,0.8-0.6,0.2-1.2c-0.8-0.8-0.8-1.9,0-2.6c1-0.7,2.4-0.5,3.5-0.8c0.7-0.1,0.7,0.5,1,0.8c0.3,0.4,0.8,0.6,1.1,0.3
				c1.1-1.1,2.4-0.9,3.7-0.9c1,0,1.2-0.5,0.8-1.3c-0.3-0.4,0.1-0.5,0.2-0.8c1.1-1.4,2.2-1.3,3.7-0.5c1.2,0.6,1,1.2,0.3,1.7
				c-1,0.8-1.8,1.6-2.1,2.9c-0.2,0.6-0.7,0.4-1.2,0.4c-2.2,0-3.4,1.1-3.5,3.2c0,0.2-0.2,0.4-0.3,0.5c-0.1,0.3-0.8,0.4-0.4,0.8
				c0.3,0.3,0.7,0.2,1.1,0.1c0.3-0.1,0.7-0.4,1.1-0.1c-0.2,0.3-0.4,0.5-0.5,0.8c-0.2,0.4-1,0.7-0.3,1.3c0.6,0.6,1,0.4,1.4-0.2
				c0.2-0.2,0.5-0.5,0.7-0.3c0.8,1,1.5,0.6,2.3-0.1c0.2-0.2,0.6-0.2,0.9,0.1c1.8,1.2,2.9,1.1,4.4-0.2c0.6-0.6,1.5-0.7,2.4-0.6
				c0.3,0,0.5,0.3,0.4,0.6c-0.1,0.7,0,1.5,0,2.2c-0.2,1.7-0.2,1.8,1.6,1.5c0.4-0.1,0.9-0.3,0.9,0.4c0,0.6,0.3,0.9,0.9,0.9
				c0.9-0.1,0.3-0.7,0.3-1.1c0.1-2.1,0.6-2.5,2.6-2.1c0.2,0,0.5,0.2,0.6,0.1c1.1-1.3,1.3,0.1,1.7,0.6c0.3,0.3,0.6,0.6,0.8,1
				c0.4,0.7,0.9,1.3,0,2.1c-1,1,0.3,2.2,0,3.4c-0.1,0.3,0.6,0.2,1,0.1c1-0.3,2-0.7,3.1-1c0.5-0.2,1.2,0,1.4-0.8
				c0.2-1.3,1.4-1.9,2.4-2.1c1.2-0.3,1.6-0.9,1.6-2c1.2,0.6,1.3,0.6,1.8-0.4c0.4-0.8,1.1-1.1,1.9-1.3c0.3-0.1,0.8-0.3,0.9,0.3
				c0.4,1.9,0.1,3.6-0.7,5.4c-0.5,1-1.2,0.4-1.8,0.6c-0.5,0.2-0.9,0.5-1.1,0.9c-0.9,1.4-1.9,2.6-3.2,3.8c1,0.3,1.7,0.4,2.6,0.3
				c2.6-0.3,4.7-1.5,6.5-3.3c0.4-0.4,1-1.4,1.6-0.3c0.4,0.8-0.2,1.7-0.8,1.9c-2.3,0.7-3.5,2.4-4.4,4.6c2.6-0.2,5.2,1,7.7,0
				c0.2-0.1,0.6,0,0.9,0.2c0.8,0.4,1.6,0.6,2.3-0.2c0.5-0.5,1.1-0.3,1.7-0.3c0.4,0,0.9-0.3,1.1,0.2c0.2,0.4-0.2,0.8-0.6,1
				c-0.8,0.6-0.1,1.3,0.2,1.7c0.4,0.6,0.8,0.1,1.3-0.2c1.5-1.3,3.1-2.6,4.9-3.5c0.4-0.2,0.8-0.4,0.9,0.1c0.4,1.4,1.2,0.6,1.7,0.2
				c0.6-0.5,1.2-1.1,1.6-1.9c0.3-0.5,0.4-1.4,1.5-1.4c-0.9,0.6-0.6,1.4-0.6,2.2c0.1,0.5-0.3,1.1,0.6,1.2c0.7,0,1.5,0,1.6-0.9
				c0.1-1.1,0.3-1.9,1.6-1.6c0.4,0.1,0.7-0.2,0.8-0.6c0.8-2.2,1.5-4.5,2.3-6.7c0.4-1-0.3-2.4,1.3-3.2c-2.7-0.5-3-2.7-3.7-4.4
				c-0.3-0.8-0.6-1.4-1.6-1c-0.7,0.2-1.1-0.1-1.3-0.8c-0.2-0.6-0.7-0.9-1.4-0.9c-0.5,0-0.9-0.1-1.3-0.5c-1.4-1.8-4-1.8-5.6-3.3
				c-0.1-0.1-0.4,0-0.6-0.1c-1.6-0.4-2.9,0.3-4.3,0.8c-0.7,0.3-1.1,0.6-1,1.5c0.1,1.7-0.8,2.7-2.4,3c-0.2,0-0.4,0.1-0.6,0.2
				c-2.8,1.4-4.3,0.9-6-2.1c1.1-0.2,1.6,0.8,2.4,1c0.5,0.1,1.1,0.5,1.5-0.1c0.4-0.6-0.2-0.9-0.6-1.2c-0.3-0.2-0.8-0.3-0.7-0.8
				c0.1-0.5,0.6-0.3,1-0.4c0.4-0.1,1.1,0.3,1.2-0.4c0.1-0.5,0-1.1-0.6-1.4c-0.6-0.3-0.5-0.8-0.6-1.3c-0.2-1.3-0.2-2.8-1.7-3.2
				c-0.9-0.3-1.9-0.7-2.6-1.2c-1.4-1-2.3-0.3-3.2,0.4c-0.6,0.4-1,1.1-1.7,1.3c-0.3,0.1-0.5,0.3-0.3,0.6c0.9,2-0.7,2.8-1.6,4
				c-0.6-0.9-0.1-2-0.6-2.5c-0.7-0.8-0.4-0.8,0.2-1.2c0.5-0.3,0.9-1.1,0.7-1.3c-1.2-0.7-0.9-2.4-2.1-3c-0.4-0.2-0.9,0.3-1.2,0.7
				c-0.4,0.4-0.6,1-1.2,1.8c0.1-1.6-0.3-2.6-1.7-2.5c-1.2,0-2.4,0.7-2.5,1.8c-0.6,3.2-2.2,6.2-2.6,9.4c-0.1,0.6-0.4,0.8-0.9,1
				c-0.5,0.2-0.9,0-1.2-0.5c-0.2-0.4-0.5-0.8-0.8-1.2c-0.6-0.7-0.6-1.3,0.3-1.8c0.8-0.5,1.8-3.5,1.4-4.3c-0.1-0.3-0.4-0.6-0.9-0.5
				c-1.5,0.3-2.6-0.5-2.2-1.9c0.4-1.5,0.6-3.1,1.9-4.2c0.5-0.4,0.8-1,0.5-1.4c-0.3-0.4-1-0.5-1.6-0.1c-0.3,0.2-0.6,0.4-0.9,0.6
				c-1.4,1.4-2.4,3.2-4.3,4.1c-0.4,0.2-0.8,0.7-1.1,1.2c-0.6,1.4-1.7,1.6-3.1,1.4c0.2-1.6,1.7-2.4,2.4-3.7c0.2-0.5,0.5-0.8,0.2-1.3
				c-0.3-0.5-0.9-0.2-1.1,0.1c-0.8,0.9-1.8,1.1-2.9,1.3c-0.8,0.1-1.5,0.7-2.2,1.2c-0.8,0.5-0.5,1.7-1.5,1.9
				c-1.2,0.2-2.3,0.4-3.6,0.7c0.8-1.8,2.4-2.6,3.8-3.6c0.5-0.3,0.7-0.4,0.2-1c-1-1.3-0.7-2.2,0.8-2.9c0.5-0.2,1.2-0.2,1.3-0.8
				C227.5,325.7,229,325.9,230.2,325.4z M236.9,248.2c1.8,0.6,0.9,1.8,0.9,2.8c0,0.5-0.3,0.7-0.7,0.6c-0.6-0.1-0.5-0.5-0.3-0.9
				c0.6-1.4-0.3-2-1.3-2.4c-1.1-0.4-2-0.5-3,0.7c-0.9,1.1-1.3,3-3.1,3.2c-0.3,0-0.1,0.2-0.1,0.3c-0.3,1-0.5,2.3-1.2,2.8
				c-1.5,1.1-2.7,2.5-4.1,3.5c-1,0.7-0.3,1.5-0.1,1.8c0.5,0.6,1.1,0.1,1.4-0.4c0.4-0.6,0.8-1,1.5-1.1c0.6-0.1,1,0.2,0.8,0.8
				c-0.3,0.8-0.6,1.6-1,2.4c-0.1,0.3-0.7,0.4-0.3,0.9c0.3,0.4,0.7,0.1,1,0c2-0.5,2.5-0.1,2.6,1.9c0,0.4-0.3,0.9,0.3,1.1
				c0.5,0.2,0.9-0.1,1.2-0.5c0.2-0.3,0.2-0.8,0.7-0.6c0.1,0.1,0.3,0.3,0.3,0.5c0.1,0.4-0.1,0.7-0.5,0.8c-0.8,0.2-1.4,0.8-2.3,0.9
				c-0.8,0-1.9,0.4-1.7,1.8c0.1,1.3-0.9,2.5-2.4,2.9c0.2-1,1.2-1.4,1.5-2.2c0.1-0.4,0.5-0.9-0.1-1.2c-0.5-0.2-0.7,0.2-0.9,0.6
				c-1.3,2.1-2.6,4-1.2,6.7c0.4,0.8,0.4,1.8,1.6,2c0.5,0.1,0.9,0.5,0.5,0.9c-0.9,1.1-1.1,2.5-2.4,3.3c-2,1.3-4,2.5-5.7,4.2
				c-0.5,0.5-1.4,0.6-1.1,1.7c0.1,0.4-0.5,0.6-0.9,0.7c-0.8,0.2-1.7,0.3-2.5,0.6c-0.7,0.2-1,0.7-0.9,1.5c0.1,0.6,0.6,0.9,1.3,1.1
				c0.6,0.2,1.3-0.3,2,0.1c-0.3,0.5-0.7,0.5-1.1,0.7c-0.9,0.5-1.2,1.4-1.3,2.3c-0.1,0.9,0.2,1.5,1.3,1.5c0.7,0,0.5,0.6,0.2,1
				c-0.4,0.5-0.9,0.9-1.3,1.4c-0.6,0.7-0.2,1.7,0.6,1.9c1.7,0.4,3.2-1,2.9-2.7c0-0.1,0.1-0.2,0.2-0.4c0.9,1.6,0.9,1.6,2.6,1.2
				c0.5-0.1,0.8,0,1.2,0.2c1.5,0.7,1.9,0.4,2.6-1.1c0.3-0.7,0.6-2.2,1.8-0.7c0.4,0.5,0.6,0,0.9-0.4c0.6-0.6,1.5-0.8,2.2-0.5
				c0.6,0.3,0.1,1.1-0.1,1.7c-0.2,0.4-0.4,0.9-0.4,1.3c0,0.6-1.2,0.7-0.5,1.4c0.5,0.6,1.2,0.2,1.8,0.2c0.5,0,0.8-0.3,1.2-0.7
				c0.5-0.4,0.6-1.4,1.3-1.4c1.7,0.1,2.2-1.2,3-2.2c0.6-0.6,0.8-1.1,0.3-1.9c-0.2-0.3-0.7-1-0.1-1.3c1.8-0.7,2.2-2.1,2.2-3.8
				c0.1-1.1,0.9-1.2,1.6-0.7c1,0.6,1.6,0.2,2-0.7c0.2-0.3,0.5-1,0.6-0.8c0.9,0.9,1.8,0,2.7,0.1c0.6,0.1,1.3,0.5,1.6-0.5
				c0.3-0.8,0.6-1.8-0.2-2.2c-1.5-0.8-1.5-2.2-2.1-3.4c-0.1-0.3-0.3-0.7-0.5-0.8c-1.9-0.4-1.4-2.3-2-3.4c-0.8-1.3-0.3-3.3-0.3-5.1
				c0-0.2,0-0.5,0.3-0.5c0.1,0,0.4,0.2,0.4,0.2c-0.4,0.8,0.6,1.5,0.3,2.3c-0.1,0.5-0.8,1.1-0.1,1.4c1,0.3,2.2,1.3,3,0.6
				c1.8-1.9,3.2-0.7,4.8,0c0.8,0.3,1.7,0.8,2.2,0c0.5-0.7,1-1.7-0.2-2.5c-0.5-0.3-0.9-1-1.3-1.6c-0.6-1-0.1-1.9,1-2.1
				c0.7-0.1,1.1-0.2,0.7-1.1c-0.4-0.9-0.8-1.7-1.5-2.4c-0.3-0.3-0.5-0.5-0.2-1c0.8,0.2,1.4,0.8,2,1.4c0.5,0.6,1.3,0.6,1.9,0.3
				c0.5-0.3,0.4-0.9,0.1-1.4c-2-3.3-3.5-6.9-6.2-9.8c-0.3-0.3-0.5-0.8-0.1-1.1c0.3-0.3,0.8,0,1,0.2c0.6,0.8,1.8,1,2.4,1.9
				c0.5,0.7,1.2,0.6,1.5,0c0.3-0.5,0.9-0.6,1.3-1c-2-1-2-1-0.1-2.3c0.2-0.1,0.4-0.2,0.5-0.3c0.4-0.2,0.9-0.5,0.7-1
				c-0.2-0.5-0.8-0.6-1.3-0.3c-1.4,0.6-2.3-0.1-2.7-1.3c-0.7-2.2-2.3-3.2-4.4-3.7c-0.3-0.1-1.2,0.3-1-0.6c0.2-0.6,0.8-0.5,1.3-0.4
				c0.4,0.1,0.8,0.3,1.2,0.5c0.9,0.6,1.9,0.7,2.9,0.9c0.3,0.1,0.8,0,1-0.2c0.3-0.4-0.1-0.7-0.4-0.9c-1.2-1.1-2.3-2.2-3.6-3.1
				c-1-0.7-2.6-0.3-3.3,0.8c-0.3,0.5-0.6,0.8-1.1,0.8c-1.8,0.1-3.4,0.9-5.1,1.1c-0.4,0-0.8,0.1-0.6,0.6
				C238.9,248.3,238,248.2,236.9,248.2z M324,409.2c-0.7,0-1.2-0.9-1.9-0.3c-1.5,1.3-1.9,0.1-2.2-1c-0.6-2.1-2-3.7-2.8-5.7
				c-0.2-0.5-0.7-1.1-1.2-1.2c-1.6-0.3-2.1-1.4-2.7-2.6c-0.2-0.3-0.4-0.6-0.7-0.9c-0.2-0.2-0.5-0.4-0.9-0.2
				c-0.3,0.3,0.1,0.4,0.1,0.6c0.2,2.2,0.3,4.3,0.4,6.5c0,0.3-0.1,0.4-0.3,0.5c-0.3,0.1-0.4-0.2-0.4-0.4c-0.1-0.5-0.2-0.9-0.3-1.4
				c-0.2-1.8-0.5-3.5-0.7-5.3c-0.1-0.4,0-1-0.6-1c-0.5,0-0.4,0.5-0.5,0.9c-0.9,2.5,0.6,4.9,0.7,7.4c0.1,1.6,1.4,3,1.1,4.8
				c-0.1,0.8,0.3,1.6,0.3,2.5c0,1.6,0.2,3.2,0.1,4.8c-0.2,1.5,1.2,3.1-0.4,4.4c0,0,0.1,0.3,0.2,0.3c0.9,0.2,0.5,0.8,0.5,1.3
				c0.1,1.7-0.2,3.5,1.2,4.9c0.3,0.3,0.2,0.7,0.1,1.1c-0.5,1.2-0.7,2.4,1.1,2.8c-1.2,0.9-1.2,0.9-1.1,1.8c0.1,0.8-0.5,1.4-0.3,2.2
				c0.1,0.5,0.8,0.5,0.9,0.2c0.1-0.5,1.1,0.2,0.9-0.7c-0.1-0.5,0-1.1-0.1-1.7c0-0.3,0-0.6,0.3-0.7c0.3-0.1,0.5,0.1,0.7,0.3
				c0.5,0.6,1,0.9,1.8,0.8c2.1-0.1,4.1,0.1,6.2-0.3c1.4-0.3,3-0.7,4.2-0.3c1.9,0.6,2.9-0.6,4.2-1.3c1.1-0.6,2.3-1.5,0.9-3.1
				c-0.2-0.2-0.2-0.7-0.2-1.1c-0.1-1.2-1.5-2.1-0.7-3.4c-1.2-0.5-0.9-2.8-2.8-2.5c-0.6,0.1-0.5-0.6-0.5-1c-0.3-1.5,0.1-3.1-0.2-4.6
				c-0.4-2.5-1.5-4.9-1.8-7.4c-0.3-2-1.6-3.6-2.1-5.5c-0.2-0.8-0.6-1.1-1.3-1c-1.1,0.1-0.8,0.9-0.6,1.4
				C323.1,405.9,323.6,407.4,324,409.2z M300,308.4c-0.5-0.5,0-1,0-1.4c0.1-2.4-0.5-3.7-2.9-3.3c-0.7,0.1-0.8-0.3-0.9-0.8
				c-0.3-1.6,0-3.3-0.2-4.9c-0.1-0.4,0.1-1.1-0.7-1.1c-0.5,0-0.6,0.5-0.8,1c-0.5,1.1,0.3,2.1-0.1,3.1c-0.6,1.5-1.5,3-2.4,4.4
				c-0.4,0.6-0.9,0.9-0.6,1.8c0.2,0.5-1.5,3-1.8,2.8c-0.7-0.4-0.5-1.4-0.8-2c-0.1-0.2,0-0.5-0.5-0.5c-0.1,0.2-0.1,0.5-0.3,0.7
				c-0.2,0.4,0.4,0.9-0.2,1.1c-0.5,0.1-0.5-0.4-0.7-0.7c-0.3-0.6-0.6-0.2-0.8,0c-1,1-2.6,1.5-2.6,3.3c0,0.3-0.4,0.7-0.7,0.9
				c-1.8,0.8-0.9,1.9-0.2,2.8c0.5,0.7,0.9,1.3,0.6,2.2c-0.1,0.2-0.3,0.3-0.1,0.7c0.6,1,0,2.2-1.1,2.6c-0.7,0.2-1.1,0.1-0.9-0.7
				c0.3-1.1,0.1-2.2,0.2-3.3c0-0.4,0.4-1.1-0.4-1.1c-0.7,0-1,0.6-0.9,1.3c0.5,1.8-0.4,3.6,0,5.4c0.1,0.4-0.2,0.6-0.5,0.7
				c-1.2,0.3-2.1,1.3-3.3,1.6c-0.7,0.2-1.3,0.6-1.5,1.5c-0.1,0.7-0.6,1.2-0.9,1.8c-0.4-0.2-0.3-0.4-0.2-0.7c0.2-0.4,0.6-0.8-0.1-1
				c-0.4-0.1-0.9,0-1.1,0.7c-0.3,1.3-0.1,2.7-0.8,4c-0.2,0.3,0.1,0.5,0.3,0.6c1.3,0.6,3.9-0.2,4.7-1.5c0.6-1,2.8-1.7,3.7-1
				c1.1,0.9,1.7,0.4,2.3-0.6c0.2-0.3,0.1-1,0.8-0.8c0.5,0.1,0.6,0.6,0.7,1c0.1,0.4-0.1,1.2,0.8,1.2c0.9,0,1.8,0.3,2.7,0.4
				c1,0,2.2,0.7,3-0.7c0.3-0.5,0.8,0,0.8,0.2c0.2,1.3,1.2,1.3,2.1,1.5c1,0.1,2,0.1,3,0.3c2.1,0.3,4.2-1.4,4-3.5
				c-0.1-1.3,0.2-2,1.8-2.5c-1.9-0.2-1.4-1.2-1.4-2c0-2,0.8-3.9,0.9-5.9c0-1.3-0.4-2.7-0.4-4c0-1.9,0.4-3.8,0.5-5.7
				c0-0.7-0.6-1.7,0.3-2.3c-0.7-0.4,0.1-1.7-1-1.8c-1.1-0.1-0.6,0.9-0.8,1.5C300.2,306.3,300.8,307.4,300,308.4z M303.2,363.8
				c-0.4,0.4-0.9,0.7-1.3,1.1c-0.3,0.2-1,0.1-0.8,0.7c0.2,0.6,0.7,0.6,1.2,0.6c2.1,0,4.2,0.3,5.9-1.3c0.9-0.8,1.1-0.3,1.5,0.5
				c0.6,1.2,2.8,1.5,3.8,0.7c0.3-0.3,0.2-0.5-0.1-0.8c-0.9-1-1.5-2.2-2.6-3c-0.9-0.6-0.6-1.7,0-2.3c0.6-0.5,1.6-0.5,2.1,0.4
				c0.5,0.8,1.1,0.9,1.9,1c2,0.4,4.6-0.5,5.5,2.5c0.2,0.7,1.6,1,2.4,0c0.5-0.7,1.1-0.9,1.9-1c1.5-0.2,3-0.3,4.4-0.6
				c0.4-0.1,1.1-0.1,1.1-0.7c0-0.7-0.8-0.6-1.1-1c-0.3-0.3-0.6-0.1-0.9,0.1c-0.9,0.6-1.9,0.2-2.3-0.4c-0.8-1.2-2.2-1.5-3.2-2.5
				c-2.2-2.1-5.2-3.4-7.4-5.6c-1.3-1.3-2.3-2.3-3.1-4.1c-1.1-2.7,0.9-4.7,0.5-7c0-0.1,0.2-0.2,0.3-0.3c2.5-1.7,2.4-5.8,0.7-7.7
				c-0.4-0.4-0.9-0.6-1.5-0.4c-0.5,0.2-0.9,0.6-0.8,1.1c0.4,1.4-0.3,2.2-1.5,2.7c-0.4,0.2-0.4,0.6-0.5,1c-0.5,1.7-0.3,3.7-2.5,4.3
				c0,0-0.1,0.1-0.1,0.1c-0.6,1.9-2,3-3.8,3.7c-0.5,0.2-0.1,0.2,0,0.3c0.5,1.5,0,2.1-1.6,1.7c-0.6-0.1-1.2-0.4-1.8,0.2
				c-1.2,1.1-2.6,1.8-4.2,1.7c-2.5-0.1-4,1-4.6,3.4c0,0.1-0.1,0.2-0.2,0.3c-0.7,0.7-0.3,1.3,0.1,1.8c0.5,0.7,1.2,0.9,2.1,0.9
				c1.6-0.1,3,0.9,2.8,1.8c-0.3,1,0,1.2,0.9,1.4c0.6,0.2,1.4,0.3,1.4,1.3c-0.1,2.3,1.2,3.4,3.4,3.1
				C301.9,363.5,302.6,363.1,303.2,363.8z M285.2,180.7c-0.6,0.3-0.9,0.5-1.2,0.6c-0.3,0.2-0.8,0.2-0.7,0.7c0.1,0.4,0.5,0.4,0.8,0.4
				c0.8-0.1,1.6,0.1,1.6,1.1c0.1,1.1-0.9,0.8-1.5,1.1c-0.1,0.1-0.2,0-0.3,0.1c-0.4,0.3-1.2,0.1-1.1,0.7c0.1,0.6,0.8,0.6,1.3,0.5
				c1.3-0.2,2.6-0.3,4-0.4c1-0.1,2.7,0.1,2.6-1.9c0-0.4,0.5-0.5,0.8-0.6c1.2-0.2,2.4-0.4,3.6-0.7c1.1-0.3,2.5-0.6,3-1.6
				c0.5-1,0.9-2.2,0.5-3.5c-0.3-0.9,0-1.2,0.9-1c0.7,0.2,1.4-0.2,1.1-0.8c-0.3-0.6,0.1-1.9-1.3-1.9c-0.3,0-0.5-0.3-0.5-0.8
				c0.1-0.9,0.1-1.9,0.4-2.8c0.4-1.3,0.1-1.8-1.3-1.9c-1.4-0.1-2.1-1.3-1.5-2.3c0.7-1,0.4-2-0.7-2c-1.6,0-2.2-1.6-2.1-2.1
				c0.3-0.9,0.1-2.6,1.8-2.8c0.3,0,0.9-0.5,0.3-0.7c-1.2-0.4-2.1-1.4-3.2-1.9c-0.5-0.2-1,0.1-1.1,0.6c-0.1,0.4-0.5,1-0.8,0.8
				c-0.9-0.6-1.6-0.2-2.4,0.2c-0.2,0.1-0.5-0.1-0.7-0.3c-0.8-1-0.8-1-1.8-0.3c-0.4,0.3-0.8,0.8-1.4,0.1c-0.3-0.3-0.7-0.4-1-0.1
				c-0.4,0.3-0.5,0.7-0.3,1.1c0.1,0.3,0.3,0.7-0.2,1c-0.1-0.1-0.3-0.1-0.3-0.3c-0.3-1-1.1-0.8-1.7-0.6c-0.8,0.4-0.1,0.8,0.1,1.3
				c0.4,0.9,0.1,1.5-0.9,1.7c-1.3,0.2-1.1,1.1-0.7,1.7c1,1.2,0.4,2.1-0.3,3.1c-0.4,0.6-0.7,1-0.1,1.8c0.3,0.3,1.6,2.1-0.7,2.1
				c-0.7,0-0.6,1-1.1,1.4c-0.2,0.1,0.2,0.6,0.4,0.6c1.3-0.2,2.6,0.8,3.9,0.2c0.5-0.2,0.8-0.3,1,0.2c0.3,0.7-0.1,0.8-0.6,1
				c-0.9,0.3-1.9,0.3-2.6,1.2c0.6,0.6,1.3,0.4,2,0.3c0.7-0.1,1.7-0.2,1.7,0.6c0,1.1,1.1,2.1,0.4,3.3c-0.3,0.4-1.4,0.4-0.9,1.2
				c0.3,0.6,1.1,0.1,1.6,0.1C284.3,180.5,284.5,180.6,285.2,180.7z M274.4,269.7c0.6,0.3,1.5,0.1,1.7,0.7c1,3.2,1.1,0,1.5-0.2
				c0.2-0.1,0.2-0.5,0.6-0.4c-0.2,1.9-0.5,3.9-1.4,5.6c-0.6,1.1-0.1,1.4,0.7,1.5c1,0.1,1.3,0.8,1.5,1.4c0.3,1.1,0.6,1.5,1.6,0.6
				c0.3-0.3,0.8-0.1,0.8,0.1c0.1,1.1,1.3,1.9,1,3.2c-0.3,1.8,0.7,3.1,1.8,4.4c0.7,0.7,1.6,0.6,1.7-0.3c0.2-0.9,1.1-1.4,0.9-2.4
				c-0.1-0.3-0.3-1.5,0.7-1.5c0.8,0,0.9,0.7,1.1,1.3c0.1,0.2,0.4,0.4,0.4,0.7c0.3,1,0.6,0.7,1.3,0.1c1.7-1.5,2.1-3.6,2.8-5.6
				c0.2-0.7,0.1-1-0.3-1.4c-0.3-0.3-0.7-0.5-1-0.1c-0.4,0.4-0.2,0.8,0.1,1.3c0.7,1.1-0.2,1.1-0.8,1c-1.5-0.1-1.3-1.4-1.1-2.2
				c0.3-1.3,0-2.5-0.4-3.8c-0.1-0.3-0.2-0.8-0.6-0.9c-0.5-0.1-0.5,0.4-0.6,0.8c-0.1,0.3-0.2,0.5-0.5,0.5c-0.5-0.1-0.3-0.5-0.3-0.8
				c-0.1-0.5,0-1.4-0.2-1.5c-1.6-0.6-1.5-2.7-3.3-3.4c-1-0.4-1.1,0.2-1.6,0.4c-0.2-0.6-0.6-1.1-0.4-1.8c0.2-0.7,0.9-0.8,1.1-1.9
				c-1.7,1.3-1.7,0.2-1.9-0.8c0-0.4-0.2-0.7-0.2-1.1c-0.1-0.6-0.3-1.3-0.9-1.3c-0.8,0-0.2,0.9-0.5,1.3c-0.1,0.1-0.2,0.1-0.3,0.1
				c-0.5-0.6-0.6-1.4-0.8-2.2c-0.1-0.4-0.3-0.6-0.7-0.5c-0.4,0-0.8,0.2-0.8,0.6c0.1,1.3-0.9,2-1.6,3.1c2.9,0.4,1,2.4,1.1,3.6
				C276.6,269.1,275.8,270,274.4,269.7z M205.1,365.3c0.6-1.9,1.5-3.2,3.5-3.1c0.5,0,0.9-0.2,1.4-0.3c0.5-0.1,1-0.2,1.1-0.8
				c0-0.3-0.2-0.8-0.5-1c-0.4-0.3-1-0.3-1.3,0.1c-0.5,0.6-1.1,0.5-1.7,0.6c-1.2,0.2-2.5,0.5-3.7,0.7c-2.5,0.4-5,0.9-7.6,1.3
				c-0.3,0-0.6,0-0.7-0.3c-0.1-0.3,0.1-0.5,0.3-0.6c0.4-0.2,0.7-0.6,1.1-0.6c2.2-0.2,4-1.5,6-2.4c0.3-0.1,0.7-0.2,0.6-0.6
				c-0.1-0.5-0.5-0.3-0.9-0.3c-1.6,0.1-3.1,0.2-4.6,0.6c-0.6,0.2-1.1,0.2-1.7-0.4c-1.5-1.5-3.6-1.3-5.2-0.8c-2.4,0.7-5,1-7.4,1.6
				c-1.6,0.4-3.3,0.8-5.1,0.8c-0.5,0-1.5,0.4-1.1,1c0.6,0.9,1.4,2.3,2.4,2.2c2.6-0.2,5.3-0.1,7.8-1.2c1.5-0.7,3.2-1.2,4.9-1.2
				c0.6,0,1,0.2,1.1,0.9c0.1,0.9-0.6,0.7-1.1,0.7c-2.6,0.3-5.2,0.7-7.7,1.5c-0.9,0.3-1.9,0.3-2.8,0.6c-0.3,0.1-1.1,0.3-0.8,0.9
				c0.2,0.5,0.9,0.6,1.4,0.3c0.9-0.5,1.8-0.7,2.7-0.9c1.1-0.2,1.7,0.7,2.7,0.7c1.9,0,3.8-0.5,5.5-0.2c3,0.6,5.9,0.1,8.7-0.6
				c0.6-0.1,1.1,0,1.4,0.6c-0.7,0.6-1.5,1.1-2.2,1c-1.2-0.2-2.3,0.3-3.4,0.5c-0.8,0.2-1.3,0.3-1.2,1.3c0.1,0.9,0.5,1.3,1.5,1.3
				c1.9,0,3.7-0.3,5.6-0.5c1.2-0.1,2.1,0,2.3-1.5c0.1-0.6,0.7-0.6,1.1-0.7c3-0.5,6.1-1.3,9.2-1.4c1,0,2-0.2,2.9-1
				c-0.8-0.6-1.5-0.8-2.4-0.5c-1.2,0.3-2.5,0.8-3.7,0.5c-1.7-0.3-3.3,0-4.8,0.5C207.5,365.3,206.4,365.1,205.1,365.3z M263.1,223.9
				c0,1.6,2.3,4.5,4.2,5c0.6,0.1,1.1,0.4,1.6,0.7c1.6,0.9,2.5,2.6,4,3.7c0.6,0.5,1,1.9,1.3,2c2.4,1.3,3.5,3.7,5.4,5.4
				c1.9,1.6,3.9,3.1,5.1,5.2c0.7,1.3,2.4,1.8,2.6,3.4c0.1,0.8,0.9,0.8,1.4,0.6c0.7-0.2,0.1-0.7,0.1-1.2c-0.1-1.3-1.1-2.1-1.6-3.2
				c-0.8-1.9-2.5-2.8-3.8-4.1c-0.4-0.4-1.3-0.3-1.3-1c0-0.7,0.9-0.5,1.4-0.9c1.1-0.8,1.3-0.1,1.3,0.8c0,0.8,0.4,1.4,0.8,1.8
				c0.9,1,1.9,2,2.4,3.3c0.2,0.5,0.8,0.7,1.4,0.5c0.6-0.2,0.6-0.7,0.5-1.2c-0.2-1-0.5-1.8-1.5-2.3c-0.6-0.3-1.4-0.9-1-1.4
				c1.1-1.4,0-1.3-0.9-1.5c-0.4-0.1-0.8-0.3-0.8-0.7c-0.1-1.6-1.5-2-2.5-2.7c-0.4-0.3-1-0.4-1.4-0.8c-3-2.4-5.8-5.1-9.2-7
				c-0.3-0.2-0.6-0.4-0.7-0.8c-0.3-1.1-1.1-1.7-1.9-2.2c-0.5-0.3-0.7-0.6-0.9-1.2c-0.4-1.2-3.2-2.7-4.4-2.5
				C263.6,221.9,263,222.5,263.1,223.9z M338.8,317.4c-0.5,1.6-0.6,1.7-1,1.4c-1.2-0.9-1.6,0.7-2.5,0.7c-0.3,0,0.9,0.3,0.7,0.9
				c0,0.1,0,0.2,0,0.3c-0.1,0.3-0.2,0.7,0.3,0.8c0.4,0.1,0.6-0.2,0.8-0.4c0.3-0.3,0.2-0.9,0.7-1c0.9,1.1,1.3,1.1,1.8-0.1
				c0.3-0.7,0.6-1.4,0.8-2.1c0.2-0.8,0.7-1.2,1.3-1.6c0.4-0.3,1-0.2,0.9,0.3c-0.2,0.9,0.6,1.5,0.2,2.3c-0.2,0.4,0.3,1.2-0.8,1
				c-0.5-0.1-0.6,0.8-0.6,1.3c0,0.4,0.4,0.5,0.7,0.3c1.4-0.7,1.3,0.5,1.3,1.1c-0.1,1.4,0.3,2.7,1,3.9c0.2,0.3-0.1,1.1,0.6,0.9
				c0.5-0.2,0.8-0.9,0.6-1.4c-0.6-1.2-0.2-1.9,1.1-2.3c-0.6-0.3-1.3,0.2-1.4-0.7c-0.2-1.5-0.4-3.1-0.5-4.6c-0.1-0.7,0.7-1.5,0.8-1.3
				c0.8,1,2.1,0.3,3,0.8c-0.4,1-2,0.2-2,1.6c0,0.9,1,0.5,1.2,1.1c-0.3,0.2-0.6,0.4-0.9,0.6c-0.3,0.2-0.5,0.4-0.3,0.8
				c0.2,0.3,0.5,0.4,0.8,0.3c1.5-0.7,3.3-0.8,4.3-2.5c0.3-0.5,0.7-0.8,1.1,0.1c0.5,1.1,2,1.3,3.2,0.3c0.8-0.7,0.7-1.6,0-2.3
				c-1.6-1.5-2.2-3.6-3.3-5.4c-0.6-1-1.6-1.5-2-2.6c-0.8-1.9-1.8,0.1-2.7,0.1c-0.2,0-0.4-0.2-0.6,0.1c0.9,0.6,1.6,1.7,1.5,2.6
				c-0.1,0.9-1.4,0.2-2.1,0.6c-0.6,0.3-0.9-0.1-1.1-0.6c-0.2-0.8-0.8-1-1.4-1c-1.4,0-2.8,0.1-3.6,1.6c-0.2,0.4-0.5,0.6-0.9,0.5
				c-1.5-0.3-1.8,1.1-2.4,1.9c-0.3,0.4-0.4,1.1,0,1.7C337.7,317.9,338.3,317.3,338.8,317.4z M277.1,224.3c-0.4-0.2-0.3-0.5-0.4-0.8
				c-0.1-0.7,0.3-1.8-0.4-2c-0.9-0.2-1.4-1.6-2.7-1c-0.4,0.2-0.6-0.3-0.8-0.7c-1-2-3.2-2.9-5.3-2.1c-0.7,0.2-1,0.9-1.4,1.4
				c1.2,0.2,1,1.7,1.7,2.2c1.7,1.1,2.5,3,4.2,4.1c1.7,1.1,2.7,3,4.7,4c2,1,3.3,3.3,5.6,4.1c0.6,0.2,1.1,0.8,1.6,1.2
				c0.8,0.7,1.7,1.5,2.9,1.6c1.2,0.2,2-0.5,2.3-1.5c0.2-0.8-0.1-1.7-1.3-1.7c-0.3,0-0.6-0.2-0.7-0.5c-0.3-1.1-0.5-2.2-1.9-2.4
				c-0.3-0.1-0.1-0.6-0.1-0.8c-0.2-1-0.3-2.6-0.9-3c-1.4-0.7-2.2-2.1-3.5-2.8c-0.5-0.3-1.2,0.1-1.4-0.5c-0.2-0.6-0.4-1.4-1.2-1.1
				c-0.8,0.3-0.6,1.1-0.6,1.8C277.4,224,277.3,224.1,277.1,224.3z M349.2,351.1c0.3,0.6-0.2,1.1,0,1.3c1.3,1.1,0.5,2.3,0.3,3.5
				c-0.1,0.7-0.1,1.5,0.4,1.9c0.5,0.5,1.3,0.4,2,0c0.6-0.4,0.9-0.9,0.7-1.7c-0.1-0.5-0.1-1,0.5-1.2c1.2-0.3,0.4-0.8,0.3-1.3
				c-0.3-1-2.1-2.1,0-3.1c0.5-0.2,1.3-0.5,1-1.2c-0.2-0.5-1.1-0.5-1.6-0.4c-2.3,0.6-4.7,0-6.5-0.9c-2.2-1.1-4.3-1.3-6.5-1.6
				c-2-0.4-4-0.6-6-0.8c-1.3-0.1-3,1.1-2.5,1.5c1.2,1.2-1.1,2.3,0.1,3.4c-0.5,0.4-0.5,1-0.7,1.6c-0.2,0.6-0.2,1.3,0.4,1.7
				c0.9,0.5,1.8,0.5,2.8,0.1c0.7-0.3,1.1-1,0.8-1.6c-0.8-1.9,0.6-1.8,1.7-1.9c0.9-0.1,1.9-0.1,2.9,0.2
				C342.4,351.5,345.8,351.8,349.2,351.1z M242.6,240.1c0.8,0.1,1.5,0.3,2.2,0.4c2.4,0.2,4.9-0.1,7.1,1.3c0.9,0.5,1.6,0.9,0.7,1.9
				c-0.4,0.5-0.2,0.8,0.1,1.2c1.2,1.9,2.4,3.9,3.6,5.7c0.4,0.6,1.1,1.5,1.9,0.9c0.9-0.7,1-0.2,1.3,0.5c0.4,0.8,1.1,1.5,1.1,2.6
				c0,0.5,0.5,1,1,1.1c0.5,0.2,0.9,0.4,1.1,0.9c0.4,1.6,1.8,2.7,1.9,4.3c0.1,1.1,1.3,1,1.6,1.9c0,0.1,0.8,0.3,0.8-0.6
				c-0.1-1.4-0.3-2.9-1-4c-0.4-0.6,0.1-1.6-0.8-1.9c-0.9-0.4-0.9-1.2-1.3-2.1c0.7,0,1.3,0.2,1.8-0.2c0.4-0.3,0.7-0.5,0.2-1
				c-2-2-3.2-4.7-6-5.8c-0.4-0.2-0.7-0.5-1-0.8c-0.3-0.2-0.4-0.6-0.1-0.8c1-0.8-0.1-1-0.4-1.5c-0.6-0.9-2.1-0.7-2.6-1.5
				c-0.8-1.3-2-1.8-3.4-2c-0.6-0.1-1-0.2-1.5-0.7c-1-1.1-2.5-1.6-3.9-1.4c-1.3,0.1-3.2-1-3.8,1.3
				C243.2,239.7,242.7,239.5,242.6,240.1z M311.5,324.3c0-0.8,0.1-1.5,0-2.1c-0.1-0.6,0.2-1.9-1.3-1c-0.5,0.3-1.5-0.2-1.6-1.2
				c-0.1-1.5-0.2-3.1,0.1-4.6c-0.2,0-0.3,0-0.4,0c-0.6,0.3-1,1.3-1.7,0.8c-0.6-0.4,0-1.3,0.2-1.9c0.1-0.5,0.3-1-0.4-1.2
				c-0.6-0.1-0.5,0.5-0.7,0.8c-1.1,1.3-1.1,2.9-1.3,4.4c-0.4,2.4-0.2,4.7-0.4,7.1c-0.2,2.2,0,4.4-0.6,6.5c2.3,0.8,1.5-1.9,2.7-2.4
				c-0.3,0.6,0,1.2,0.1,1.7c0.1,0.4-0.3,1,0.4,1.3c1.7,0.7,3.9-0.5,4.2-2.3c0.1-0.5,0.1-1,0.1-1.6c-0.1-1.3,0.1-2.5,1.2-3.7
				c0,1.4,0.5,2.5,0.1,3.7c-0.2,0.6,0,1.2,0.5,1.4c0.8,0.3,0.4-0.5,0.6-0.8c0.6-0.6,0.4-2,1.8-2.1c-1.4-0.3-1.2-1.5-1.5-2.4
				C313,323.3,312.5,323.4,311.5,324.3z M222,379.3c-0.7-0.4-1.6-0.3-1.6-1.4c0-1,0.7-1.3,1.4-1.7c0.5-0.3,0.9-0.5,0.6-1.1
				c-0.8-1.2,0.2-1.8,0.9-2.4c0.3-0.3,1-0.4,0.7-1c-0.3-0.6-0.8-0.4-1.3-0.3c-1.7,0.4-3.3,1.2-5.3,0.9c-1-0.1-2.6,0.4-2.4,2.6
				c0.1,1.3-0.1,3.1-1.2,4.3c-0.6,0.6-0.8,1.2-0.8,2c-0.1,1-0.3,2.1-1,2.8c-1.3,1.4-0.8,2.9-0.4,4.4c0.3,1,2.2,1.8,2.3,1.3
				c0.2-1.5,1.8-2.3,1.9-3.9c0.1-1.4,0.5-2.8,0.8-4.2c0.1-0.3,0.3-0.7,0.7-0.5c0.2,0.1,0.4,0.5,0.2,0.6c-1.2,0.7-0.2,1.6-0.3,2.4
				c-0.2,2.1,1.3-0.2,1.8,0.6c0.2,0.3,0.6,0.4,0.9,0.6c1.2,0.6,2.3,1.2,3.9,0.9c-1.1-1.1-2.8-0.6-3.7-1.7c0.6-0.4,1.2-0.8,2-1.3
				c-0.5-0.1-0.7-0.2-0.9-0.2c-0.6,0.1-1.2,0.2-1.4-0.4c-0.3-0.6,0.1-1.1,0.5-1.6C220.5,380.5,221.2,380,222,379.3z M340.4,307
				c1.9-0.1,3.7-0.6,5.4-1.4c1.1-0.5,1.4-2,1.4-3c0-0.7-1.4-0.8-2.2-1c-2.2-0.5-4.4-0.6-6.6-1.6c-1.4-0.7-3.1-0.7-4.7-0.8
				c-0.8-0.1-1.4,0.2-0.7,1.2c0.3,0.5,1,1,0.8,1.8c-0.3,1.5,1.7,4.4,3.2,4.4C338.2,306.6,339.2,307,340.4,307z M360.3,343.7
				c-2.4-0.1-4.4-0.3-6.5-0.3c-1,0-1.2-1.2-2.3-0.9c-3.1,0.8-6.1-0.1-9.2-0.1c-0.6,0-1.5,0-1.1-1.1c0.1-0.4-0.2-0.5-0.5-0.6
				c-2-0.3-4-0.7-6-0.7c-1.2,0-2.9-1.1-3.8,0.9c-0.1,0.2-0.4,0.2-0.5,0c-0.5-0.6-1.2-0.7-1.3,0.1c-0.1,0.6,0.4,1.6,1.2,1.4
				c1-0.2,1.8,0.3,2.7,0.4c2,0.1,4,0.5,6.1,0.4c3.4-0.1,6.8,0.8,10.3,1.1c2.9,0.2,5.7,1.1,8.6,1.2c2.1,0.1,4.3,0.3,6.4,0
				c0.4-0.1,0.9-0.1,1-0.6c0.1-0.5-0.5-0.4-0.7-0.7c-0.5-0.6-1.4-0.3-1.9-0.8c-0.9-0.9-2.9-1.1-4.1-0.4
				C359,343.6,359.7,343.2,360.3,343.7z M323.6,382.7c1.8,0.1,1.6,1.4,1.8,2.4c0.4,2,0.9,4,1.9,5.8c0.2,0.4,0.9,1,1,0.5
				c0.1-0.8,1.3-1.1,0.8-2.4c-0.4-0.9-0.5-2.4-0.4-3.6c0.2-2.6,0.8-5.2,1-7.8c0.1-2.2,0.9-4.4,0.6-6.7c0-0.4,0.3-1-0.3-1.1
				c-0.6-0.2-1,0.4-1.1,0.9c-0.2,0.7-0.3,1.4-0.9,1.9c-0.5,0.5-0.6,1.1-0.8,1.8c-0.3,1.2,0,2.6-1.4,3.5c-0.6,0.4-1.6,1.4-1.1,2.6
				C325,381.7,324.7,382.2,323.6,382.7z M313.2,261.4c-0.3,2.3,1.2,4.2,0.9,6.4c0,0.4,0.4,0.9,0.7,1.2c1.2,1.4,3.2,2.2,3.7,4.3
				c0.2,0.7,0.9,0.6,1.2-0.1c0.4-0.8,0.3-1.7-0.3-2.3c-0.3-0.3-0.8-0.6-0.6-1c0.6-1.1-0.3-1.6-0.9-2.1c-0.4-0.4-0.7-0.8-0.5-1.2
				c0.8-2-2.4-2.8-1.4-4.8c-1.2-0.6-1.1-1.9-1.5-2.9c-0.2-0.6-0.6-1.2-1.1-1.5c-1.1-0.6-2-1.3-2.4-2.5c-0.2-0.4-0.4-0.9-1-0.7
				c-0.6,0.2-0.3,0.7-0.3,1.1c0.2,1.7,1.2,3.1,1.3,4.8C310.9,261.4,311.4,262.4,313.2,261.4z M322.5,301.2c0.7,0.2,1.2,0.7,1.6,0.6
				c1.8-0.4,1.6,1,1.8,1.9c0.1,0.4-0.3,0.9,0.3,1c0.4,0.1,0.8-0.2,1.2-0.4c1-0.7,0.8-2,1.6-2.9c0.3-0.4,0.4-0.7-0.2-0.8
				c-0.4-0.1-0.9-0.1-1,0.5c-0.1,0.4-0.1,0.7-0.2,1.1c-0.1,0.3-0.4,0.4-0.7,0.2c-0.3-0.1-0.4-0.5-0.2-0.7c1-0.5,0.5-1.6,1.1-2.4
				c0.8-1-0.2-3.2-1.3-3.8c-0.8-0.4-1.5-0.9-1.9-1.8c-0.5-1.1-1.5-0.4-2.2-0.4c-0.6,0-0.7,0.3-0.8,1c-0.5,2.1,1.1,3.4,1.8,5
				c0.1,0.2,0.1,0.3,0.1,0.4c-0.3,0.3-0.9-0.3-1.2,0.4C322.4,300.4,324.2,300.2,322.5,301.2z M336.6,373.3c0.6,0.1,1,0.3,1.3,0.5
				c0.9,0.7,2,0.5,2.9,0.1c0.8-0.3,0.2-1.3,0.4-1.6c0.8-1.1-0.1-2.7,1.1-3.7c0.3-0.2,0.2-0.5,0.2-0.8c-0.3-1-0.1-2.1-0.2-3.2
				c-0.1-0.8,0.9-0.6,0.7-0.9c-0.3-0.5-0.9-0.9-1.4-1.1c-0.5-0.2-1.4-0.2-1.6,0.4c-0.4,1.4-1.5,2.3-2,3.5c-0.5,1.5-1.4,3.2-0.6,4.6
				C338.2,372.4,337.8,372.8,336.6,373.3z M257.2,229.4c0.1-0.2,0.1-0.3,0.2-0.4c0.7-0.3,1.5-0.6,1.2-1.6c-0.2-0.7-1-1.1-1.7-0.8
				c-0.8,0.2-1.5,0.6-1,1.7c0.3,0.7-0.4,0.8-0.8,0.7c-1-0.2-2-0.1-2.9,0.5c-0.3,0.2-1.1-0.1-0.9,0.9c0.2,1,0.7,0.6,1.3,0.6
				c1.4,0.2,3.1-0.9,4.2,0.9c0.2,0.3,0.7,0.1,1,0c0.6-0.3,1.3-0.6,2-0.9c-0.1,1.8,1.6,3.1,3.3,2.6c0.8-0.2,3,0.7,3.2,1.4
				c0.4,2.1,2.2,2.3,3.7,3c0.3,0.1,0.6,0.2,0.8-0.2c0.2-0.5-0.1-0.6-0.4-0.9c-0.6-0.5-1.4-0.7-1.9-1.4c-1.1-1.8-2.9-2.7-4.6-3.7
				c-0.9-0.6-1.9-1.7-3-1.4C259,231,258.3,229.9,257.2,229.4z M374.9,315.8c-0.4-0.3-0.9-0.5-1-0.9c-1.2-2.2-3.1-3.8-4.3-5.9
				c-0.5-0.8-0.8-1.8-1.6-2.6c-0.8-0.8-2-1.5-2.4-2.6c-0.6-2-2.3-3.1-3.2-4.9c-0.1-0.3-0.5-0.4-0.9-0.2c-0.2,0.1-0.4,0.4-0.3,0.5
				c0.5,0.6,0.5,1.6,1,2.1c1.9,2,3.2,4.2,4.1,6.8c1.1,3.3,3.2,6.1,6.3,8C373.2,316.5,374,316.5,374.9,315.8z M325.4,284.7
				c-0.2-0.5-0.7-0.2-0.7-0.3c-0.9-1.9-3.1-2.5-4.2-4.2c-0.3-0.5-0.9-0.8-1.5-0.6c-0.7,0.2-0.6,0.9-0.5,1.3c0.2,0.7,0,1.2-0.2,1.8
				c-0.3,0.9-0.6,2.4,0.1,2.7c2,0.7,2.8,2.9,4.8,3.5c0.6,0.1,1.2,0.7,1.6,0.2c0.4-0.5,0.7-1.4,0.2-2
				C324.2,286,324.6,285.3,325.4,284.7z M345.1,486.3c0.1-1,0.2-2.3-0.4-3.5c-0.2-0.3,0.3-1-0.5-0.9c-0.5,0-0.5,0.5-0.7,0.9
				c-0.7,1.6,0.6,3,0.3,4.6c-0.3,1.6,0.3,3.3-1.4,4.6c-0.5,0.4-1.5,1.3-1.2,2.2c0.2,0.8,0.4,1.4-0.1,2.1c-0.3,0.4,0,0.8,0.4,1.1
				c0.5,0.3,0.8,0.1,1-0.4c0.2-0.5,0.4-0.9,1.1-1c2-0.2,3.8-3.4,2.6-4.9C345.1,489.7,345.2,488.2,345.1,486.3z M275.7,290
				c2.7-0.1,3.3-1.4,3.4-3.2c0-1.1-1.4-2.4,0.2-3.4c0,0,0-0.2-0.1-0.2c-0.8-0.2-0.8-1-1.1-1.6c-0.3-0.7-1-0.3-1,0.2
				c-0.2,1.4-1,2-2.3,2.2c-0.3,0-0.3,0.4-0.4,0.6c-1.1,1.5-2.1,3,0,4.4c0.1,0.1,0.1,0.3,0.2,0.4C274.8,290,275.2,290,275.7,290z
				 M286.8,206.1c-1-0.5-1.8-0.2-2.5-0.1c-1.5,0.4-3.1,0.4-4.3-0.6c-1-0.7-1.9-0.8-3-0.8c-0.4,0-0.9,0.1-1.3,0c-3-1-6-2.1-9-3.1
				c-1.5-0.5-3-0.9-4.8-0.9c1,1,7.7,3.7,8.7,3.8c2.6,0.1,4.9,1.4,7.4,2C280.9,207.3,283.8,207.6,286.8,206.1z M292.4,452.9
				c0.8-0.8,2.5-0.8,3-2.2c0.6-1.5,1.4-2.5,3.1-2.8c0.6-0.1,1-0.4,0.6-1.1c-0.5-0.9,0.3-2.4-1.3-2.7c-0.6-0.1-1,0.4-0.9,0.9
				c0.2,1.5-0.8,1.7-1.9,1.9c-0.5,0.1-0.9,0.4-1.2,0.7c-0.3,0.3-0.5,1-1.1,0.8c-0.6-0.2-0.3-0.8-0.4-1.3c-0.1-0.4-0.2-0.9-0.8-0.7
				c-0.5,0.2-0.9,0.6-0.6,1.1c0.8,1.5,0.8,3,0.5,4.6C291.4,452.7,291.8,452.9,292.4,452.9z M300.5,435.2c0.1,0.1,0.1,0.3,0.2,0.4
				c0.7-0.3,1.3-0.5,2-0.8c0.9-0.3-0.6-1.7,0.8-1.9l-1-4.4c-0.1-0.3,0-0.5,0.1-0.8c0.9-1.6-0.1-2.9-0.7-4.3
				c-0.2-0.4-0.5-0.5-0.9-0.1c-0.3,0.3-0.7,0.5-1.1,0.6c-0.7,0.2-1.3,0.7-1.2,1.3c0.3,1.1-0.2,2.5,0.8,3.5c0.1,0.1,0.2,0.1,0.3,0.1
				c2-1,1,0.7,1,1.2c0,1-0.1,2,0.4,2.8C301.7,433.9,301.4,434.6,300.5,435.2z M220.4,632c0.6,2.1,2.7,2.8,3.8,4.6
				c1.1,1.9,4,2.5,6.5,2.4c0.4,0,0.9-0.2,1.2-0.4c0.4-0.3,0.7-0.7,0-1.1c-1.6-1-3.2-2.1-5.1-2.8c-1-0.3-2-0.9-3-1.3
				C222.7,632.9,222,631.3,220.4,632z M350,371.5c-0.5-0.7-1.4,0.1-1.4-0.8c0-1,0.1-1.9,0.4-2.8c0.2-0.5,1.5,0.1,1.3-1.1
				c-0.2-1-1-0.6-1.6-0.8c-0.2-0.1-0.3-0.3-0.4-0.5c-0.7-0.8-1.3-0.7-1.6,0.3c-0.9,2.4-1.4,5-1.7,7.5c0,0.4,0.2,0.8,0.5,0.9
				c0.5,0.2,2.9-1,2.8-1.4C348.1,371.5,349.1,371.6,350,371.5z M288,404.9c0.5,0.6,0.1,1.9,1.3,1.7c0.9-0.2,0.6-1.1,0.8-1.8
				c0.2-1.2-0.4-2.5,0.1-3.7c0.2-0.4,0.3-1.5-0.4-1.7c-0.9-0.4-1.1-1-1.3-1.8c-0.2-0.7-0.8-0.9-1.4-0.3c-0.7,0.8,0.2,2.1-0.7,2.9
				c1.5,1.4,0.5,3,0.5,4.5c0,0.4-0.7,0.9-0.1,1.3C287.3,406.2,287.4,405.2,288,404.9z M303.1,276c-0.5,0.1-1.2-0.2-1.5,0.3
				c-0.4,0.6,0,1.1,0.4,1.6c0.3,0.4,0.5,0.8,0.8,1.1c0.8,1.2,2.4,1.9,2.7,3.4c0.2,0.9,0.4,1.5,1.3,1.2c0.7-0.3,1.7-0.7,0.9-2
				c-0.7-1.1-0.2-2.9-1.9-3.5c-0.1,0-0.1-0.3-0.1-0.4C305.4,276.3,304.4,276,303.1,276z M335.4,366.2c-0.1-0.7,0.5-1.6-0.5-1.9
				c-1.1-0.3-1.8,0.6-2,1.5c-0.4,1.8-0.6,3.7-0.8,5.6c-0.1,0.7-0.1,1.4,0.2,2c0.1,0.3,0.2,0.8,0.6,0.8c0.5,0,0.8-0.3,0.9-0.7
				C334.2,370.9,335.7,368.8,335.4,366.2z M346.4,386c0-0.3,0-0.5,0-0.8c0-0.8,0.1-1.9-1-2c-1-0.1-1.4,0.8-1.5,1.7
				c0,0.4,0,0.7-0.1,1.1c-0.3,1.9,0.7,3.9-0.5,5.7c-0.2,0.4-0.3,1.6,0.5,2c0.9,0.4,1-0.6,1.5-1c1-0.8-0.1-1.8,0.4-2.5
				C346.5,388.9,346.3,387.4,346.4,386z M338.1,293.8c-0.1-0.6-0.6-0.8-1-0.9c-1.6-0.5-2.9-1.3-4.2-2.3c-1.1-0.9-2.4-1.5-3.7-2.1
				c-0.4-0.2-1-0.3-1.3,0.3c-0.2,0.5-0.1,0.9,0.3,1.4c1.4,1.9,3.7,2.1,5.4,3.4c0.3,0.2,0.8,0.3,1.2,0.3c0.7,0,1.4-0.1,2.1,0.5
				C337.4,294.8,337.9,294.4,338.1,293.8z M432.2,352.1c-1.3,0-3,1.1-3.1,2.3c0,1.1,1.1,1.6,1.9,2.1c1.5,0.8,3.3,0.5,3.8-0.5
				C435.5,354.6,433.9,352.2,432.2,352.1z M368,294.2c1.2,0.6,2.2,1,3.1,1.7c1.2,0.9,1.7,0.3,1.8-0.8c0.1-1.6,0.5-3.3-1-4.6
				c-0.5-0.4-0.2-1.5-1.3-1.3c-1,0.2-0.5,1.2-0.9,1.7C368.9,291.9,369.7,293.6,368,294.2z M288.4,255.3c-1.6,0.2-2.6-0.4-3.6-1.3
				c-0.7-0.7,0-1.4-0.5-2.1c-1.2-1.7-2.7-3.1-3.7-4.9c-0.4-0.8-1.5-1.1-2.1-0.5c-0.6,0.6,0.4,1.1,0.9,1.5c1.6,1.5,2.2,2.6,2.3,4.7
				c0,0.3,0.3,0.4,0.6,0.5c0.5,0.1,1.1,0.2,1.3,0.6c0.5,1.2,1.9,1.5,2.3,2.8c0.3,0.9,1,0.9,1.7,0.1
				C287.7,256.3,287.9,255.9,288.4,255.3z M312.9,345.6c1-0.3,1.9,0.3,2,0.9c0.4,1.6,1.7,1.4,2.6,1.5c1,0.2,2.1,0.2,3.1,0.5
				c0.6,0.2,1.7,0.5,1.8-0.3c0.1-0.8-1-0.5-1.5-0.6c-0.1,0-0.2,0-0.3,0c-0.4-0.1-0.8-0.3-0.8-0.7c0-0.5,0.5-0.5,0.9-0.5
				c0.5,0,1,0.2,1.3-0.5C319,344.8,316,344.2,312.9,345.6z M207.8,374.2c-0.6,0.2-1.4,0-2.1,0.4c-0.6,0.3-1.3,0.6-1.1,1.4
				c0.5,1.5-1.2,2.9-0.2,4.4c0.2,0.2-1.1,0.7,0.1,1c0.8,0.2,1.4,0.1,1.8-0.7c0.3-0.7,0.6-1.5,0.5-2.1c-0.3-1.4,0.7-1.9,1.5-2.5
				c0.6-0.4,1.5-0.5,1.2-1.4C209.4,373.9,208.5,374.3,207.8,374.2z M365.9,287.8c0.1,0.3,0.1,0.5,0.2,0.8c0.3,0.6,0,1.6,1.3,1.6
				c1.4,0,1.4-1.2,1.8-1.9c0.3-0.6-0.2-1.4-1.1-1.6c-0.6-0.1-0.9-0.6-1-1.1c-0.6-1.9-0.9-2-2.9-1.4c0.4,0.6,0.9,1.3,0.7,2
				c-0.2,0.9-1.4,0-1.8,0.7c0.1,0.6,0.9,0.2,1,0.7C364.2,290.5,365.1,287.9,365.9,287.8z M367.7,632.6c0.7-1.8,0.6-1.8-1.2-2.6
				c-2.3-1-4.1,0.7-6.2,1c1.2-0.1,1.2,0.8,1.4,1.5c0.1,0.5-0.4,1.2,0.4,1.3c0.7,0.1,1.4,0.2,2-0.5
				C365,632.3,366.3,631.9,367.7,632.6z M246.4,497.5c1.4,0.7,0.8,2,0.7,3c-0.1,0.6-0.8,1.3-0.3,1.9c0.5,0.5,1.3,0.1,2.3,0.1
				c-1.2-0.9-1.7-1.7-0.4-2.4c0.5-0.3,0.3-0.6,0.3-0.9c-0.2-1.3,0.2-2.3,1.7-2.7c-1-0.2-0.8-1-1.1-1.5c-0.3-0.7-1.4-0.1-2-0.6
				c-0.1-0.1-0.1-0.2-0.2-0.3c-0.2-1-1.5-0.9-1.8-1.8c-0.1-0.2-0.4-0.3-0.5-0.1c-0.1,0.1-0.2,0.5-0.2,0.6c0.5,0.8,0.9,1.8,1.7,2.3
				c0.6,0.4,1,0.7,1.1,1.4C247.8,497.5,246.7,496.9,246.4,497.5z M288,204.2c2.1,0.9,3.4-0.3,4.8-0.7c2.9-1,5.3-2.9,8.3-3.8
				c0.9-0.3,1.8-0.5,2.8-1.3C297.7,198.2,293.5,202.3,288,204.2z M312.9,602.7c-1-0.5-1.9,0.2-2.9,0.4c-1.2,0.4-1.1,1.5-1,2.4
				c0,0.7,0.8,1,1.4,0.7c1.7-0.8,3.6-0.8,5.2-2c0.2-0.2,0.7-0.2,0.5-0.6c-0.1-0.3-0.3-0.6-0.6-0.7
				C314.7,602.9,313.9,602.5,312.9,602.7z M416,350.1c-1.8-1.5-3.9-1.3-5.8-1.4c-0.3,0-0.7,0-0.7,0.4c0,0.4,0.2,0.9,0.5,0.9
				c1.6,0.2,1.3,1.2,1,2.3c-0.1,0.6,0.3,0.9,0.6,1.2c0.4,0.4,1,0.5,1.5,0.2c0.7-0.4,0.2-0.7-0.1-1.1c-0.5-0.6,0-0.9,0.4-1.1
				C414.3,351.3,414.9,350.6,416,350.1z M179.6,375.6c0.2,0,0.5,0,0.7-0.1c1.2-0.7,2-1.8,3.4-2.1c0.3-0.1,0.4-0.6,0.4-1
				c-0.1-0.5-0.6-0.3-0.9-0.4c-0.7-0.2-1.5,0.2-2.1-0.1c-1.1-0.6-2.4-0.5-3,0.5c-0.7,1.1,0.5,1.8,0.5,2.8
				C178.5,375.6,179.1,375.6,179.6,375.6z M324.3,612.8c0.6,0.2,1,0.3,1.4,0.4c2.5,0.8,4,0.2,5.2-2.1c0.1-0.3,0.5-0.4,0.7-0.6
				c0.2-0.2,0.8-0.2,0.6-0.7c-0.2-0.4-0.6-0.4-1-0.4c-0.7,0.1-1.4,0.1-1.8,0.8c-0.2,0.4-0.5,0.7-1,0.7
				C326.8,610.7,325.7,611.9,324.3,612.8z M271.1,312.3c2.1,0.5,2.1,0.5,2-1.3c0-0.5,0.3-0.7,0.7-0.9c1.4-0.6,1.2-1.9,1.3-3.1
				c0-0.5-0.3-0.7-0.8-0.7c-1.2,0.2-3.5,2-3.8,3.2c-0.1,0.4,0,0.7,0.4,0.7c0.6,0,1.2,0,1.3,0.8C272.4,311.9,271.3,311.5,271.1,312.3
				z M297.3,255.9c0.2-0.6,0.3-1.2-0.4-1.7c-0.7-0.4-1.1,0.4-1.8,0.5c-1,0.1,0-1.3-0.9-1.2c-0.6,0.1-1.3-0.2-1.8,0.4
				c-0.5,0.7,0.1,1.1,0.5,1.5c0.2,0.3,0,0.5,0.1,0.7c0.1,0.8,0.5,1.4,1.1,1.8c0.5,0.3,1.6,1.1,1.3-0.6c-0.1-0.4,0.2-0.7,0.6-0.4
				C297.7,258.3,297.5,257.2,297.3,255.9z M380.7,301.9c-0.3-0.7-0.5-1.4-0.8-2c-0.2-0.5-0.6-0.9-1.2-0.8c-0.5,0.1-0.8,0.4-1.1,1
				c-0.7,1.5,0.1,2.9,0.2,4.3c0,0.6,0.8,1,1.5,1.1c0.4,0,0.9-0.2,0.9-0.5C379.9,303.8,379.6,302.7,380.7,301.9z M341.9,486.5
				c-1.1,0.3,0,1.8-1.2,2c-1.8,0.4-1.9,2.6-3.5,3.2c-0.2,0.1-0.3,0.6-0.1,0.9c0.2,0.3,0.6,0.3,0.8,0c0.5-0.9,1.3-0.7,2.1-0.8
				c1.9-0.2,2.9-1.5,2.4-3.2C342.3,487.9,342.2,487.1,341.9,486.5z M219.1,239.8c-0.4,0-0.9-0.1-1.1,0.4c-0.8,1.7-2.3,3.1-2.5,5
				c0,0.3-0.3,0.6,0,0.8c0.3,0.2,0.6,0.2,0.9,0.1c0.5-0.2,0.9-0.5,1.1-1.1c0.5-1.4,1.1-2.7,2.3-3.6c0.4-0.3,0.8-0.6,0.7-1.2
				C220.3,239.4,219.5,240.1,219.1,239.8z M198.6,593.5c0,1.1,2,3.9,3.1,4.2c0.5,0.1,0.9,0.1,1.3-0.3c0.5-0.4,0-0.8-0.1-1.1
				c-0.6-1-1.2-2-2-3c-0.4-0.5-0.7-1.3-1.6-1C198.8,592.5,198.6,593,198.6,593.5z M282.2,290.5c-0.8,0.4-1.6,0.7-1.5,1.9
				c0.1,0.7,0.5,1.4-0.3,2c-0.5,0.4,0.4,0.8,0,1.4c-0.3,0.5,0.7,0.8,1,0.5c0.8-0.6,2-1.1,1.6-2.6c-0.1-0.6-0.3-1.2,0.1-1.9
				C283.8,290.8,282.9,290.8,282.2,290.5z M304.3,269.5c0,0.2-0.1,0.4,0,0.5c0.4,0.5-0.1,1.8,1.1,1.6c1-0.1,0.8-1.1,0.8-1.7
				c0-1.7,0.2-3.4-0.2-5c-0.1-0.5-0.4-0.6-0.8-0.6c-0.2,0-0.5-0.1-0.6,0.3C304.4,266.2,304.2,267.8,304.3,269.5z M212.5,552.6
				c-1.1-0.4-2.1-1.7-2.9,0.7c-0.6,1.7-1.7,3.3-1.8,5.3c0,0.4-0.2,0.8,0.2,1c0.4,0.1,0.7-0.2,0.8-0.5c0.6-1.7,1.5-3.2,2-4.9
				C211.3,553.1,211.6,552.7,212.5,552.6z M257.3,262.4c-1.3-0.9-0.8-2.1-0.8-3.3c0-0.6-0.2-1.6-1-1.3c-0.8,0.2-2.3,0.4-1.9,1.5
				c0.3,0.9,0.6,2,1.2,2.8C255.5,263.1,256.2,263.5,257.3,262.4z M209.6,606.1c1.3,0.5,2.3,0.6,2.7-1c0.1-0.5,0.3-0.8,1-0.3
				c0.3,0.3,1.1,0.3,1.4-0.3c0.2-0.3,0.4-0.8,0.2-1c-0.7-1-1.9-0.8-2.9-0.9c-0.9-0.1-1.4,0.4-1.5,1
				C210.4,604.5,209.8,605.2,209.6,606.1z M213.6,254c-0.2,2.8-2.7,5.1-0.1,7.5C215.1,259.9,215.2,257,213.6,254z M292.7,356.9
				c-1,0.2-1,0.2-2,2.5c-0.2,0.5-0.9,1.1,0,1.6c0.8,0.5,1.7,1.4,2.7,0.4c0.6-0.5,1.1-1.2,1.5-1.8C292.8,359,291.5,358.6,292.7,356.9
				z M297.2,412.3c1-1.2,1.3-2,1.1-3.4c-0.2-1.3,0-2.6-0.6-3.9c-0.2-0.5-0.3-1-0.9-0.8c-0.6,0.2-0.7,0.8-0.1,1.2
				c0.2,0.2,0.1,0.4,0,0.6C296,408.1,296.8,410,297.2,412.3z M245.8,396c0,0.3-0.1,0.7,0.1,1c0.2,0.6,0.3,1.4,1.1,1.4
				c0.8,0.1,0.9-0.7,1.2-1.3c0.5-1.4-0.5-2.6-0.1-4c0.1-0.5-1-0.6-1-0.3C246.9,394,245.6,394.6,245.8,396z M352.2,625.3
				c-0.2-0.4,0.2-1-0.4-1.3c-1.7-0.8-3.2-2-5.2-2.1c-0.3,0-0.6,0-0.7,0.3c-0.2,0.5,0.3,0.6,0.5,0.6c1.4,0.2,2,1.3,2.9,2.1
				c0.6,0.5,1.1,1.1,1.9,1.2C351.9,626.2,352.4,626.2,352.2,625.3z M209.7,270.3C209.7,270.3,209.6,270.3,209.7,270.3
				c-0.1,0.3-0.1,0.6-0.1,1c0,0.5,0,1.1,0.6,1.4c0.7,0.3,0.9-0.3,1.3-0.6c1-0.7,0.7-1.9,1-2.9c0.1-0.3-0.9-1.3-1.5-1.3
				c-0.7,0-1.5,0.4-1.4,1.4C209.6,269.6,209.6,270,209.7,270.3z M196.5,595.1c-1.1-0.2-1.7-0.5-1.7-1.7c0-0.7-0.8-1.4-1.6-1.9
				c-0.7-0.5-1.4-0.1-1.8,0.4c-0.6,0.7,0.1,1.2,0.6,1.3c1.1,0.4,1.2,1.8,2.3,2.3c-0.6,0.1-0.9,0.2-1.2,0.2
				C194.2,595.7,195.4,596.4,196.5,595.1z M313.9,618c-0.4,0.2-1.3,0.2-1.6,0.6c-0.6,1-1.6,1.2-2.6,1.5c-0.5,0.1-1.1,0.3-0.8,0.9
				c0.2,0.6,0.8,0.3,1.3,0.2c1.5-0.5,2.9-0.9,4.4-1.4c0.4-0.1,1.1,0,1-0.7C315.3,618.4,314.9,617.9,313.9,618z M436,353.4
				c-0.4,0.7-0.3,1.3,0.6,1.3c1.4,0,3.6-1.1,3.5-1.8c-0.3-1.8-1.8-1.1-2.8-1.3C436,351.4,435.4,352.2,436,353.4z M427.1,354.3
				c1,0,2.4-1.3,2.1-2.3c-0.2-0.8-1.4-1-2.2-1c-0.7,0-1.7-0.1-2,0.9C424.9,352.5,426.6,354.3,427.1,354.3z M229.8,375
				c0,0-0.1-0.1-0.2-0.1c-0.9-0.4-1.1-1.1-1.1-2.1c0-0.5-0.5-0.5-0.9-0.5c-0.5-0.1-0.6,0.2-0.8,0.6c-0.4,1,0,2.1-0.9,2.9
				c-0.2,0.2,0,0.5,0.3,0.6c0.5,0.2,1.1,0.6,1.7,0.2C228.6,376.3,229.2,375.6,229.8,375z M339.7,497.6c-0.4-0.5-0.9-0.7-1.4-0.2
				c-0.6,0.5-0.9,1.2-1.7,1.7c-0.4,0.2-0.3,0.7,0,1c0.5,0.6,0.9,1.1,0.7,2c-0.1,0.6,0.4,1,1,1.1c0.8,0,0.6-0.7,0.8-1.2
				c0.1-0.2-0.1-0.5-0.2-0.7c-0.3-1-1-2,0.5-2.7C339.5,498.3,339.6,497.9,339.7,497.6z M239.2,521c-1.6,1.1-1.6-0.5-2.3-0.7
				c-0.5,0.5-0.3,1.3-0.9,1.5c-1.3,0.5,0.3,1.6-0.5,2.2c0.4,0.5,1,0.8,1.5,0.5c0.6-0.3,1.7-0.3,1.3-1.6
				C238.1,522.5,238.6,522,239.2,521z M330.7,545.2c0.3-0.4,1-0.8,1-1.3c0-0.8,0.7-1.7,0.1-2.4c-0.6-0.6-1,0-1.3,0.6
				c-0.2,0.4-0.7,0-1,0.2c-0.6,0.4-1.7,0.8-1.2,1.7C328.7,544.6,329.8,544.8,330.7,545.2z M336.7,474.3c0-0.6,0-1.3-0.4-1.9
				c-0.2-0.4-0.5-0.5-0.9-0.4c-0.4,0.1-0.5,0.4-0.4,0.7c0.2,0.9-0.4,0.9-1,0.9c-0.4,0-0.7,0.2-0.8,0.6c-0.1,0.4,0.3,0.5,0.5,0.7
				c0.3,0.2,0.6,0.4,0.9,0.7c0.5,0.6,1.1,0.5,1.7,0.2C336.8,475.6,337,475.1,336.7,474.3z M342.3,518c2-0.5,1.9-2.2,2.7-3.3
				c0.3-0.4,0.8-1.1,0.2-1.6c-0.6-0.5-1.3-0.1-1.9,0.3c-0.5,0.4-0.6,0.8-0.7,1.4C342.5,515.8,342.8,516.9,342.3,518z M335.1,478.7
				c-0.8-0.7-3.3-1.7-4.1-1.6c-0.5,0.1-1.2,0.3-1.2,0.7c0,0.6-0.3,1.4,0.3,1.9c0.5,0.4,1,0.1,1.3-0.4c0.4-0.5,1-0.3,1.5-0.2
				C333.6,479.2,334.3,479.4,335.1,478.7z M332.1,537.9c0.4,0.5,0.9,0.9,1.3,1.5c0.2,0.4,0.7,1,1.3,0.7c0.7-0.3,1.1-1,1.2-1.8
				c0.1-0.7-0.3-1.4-0.9-1.8c-0.6-0.4-1.3-0.2-1.6,0.4C333,537.5,332.4,537.4,332.1,537.9z M275.5,402.9c-0.2,0.1-0.5,0-0.8,0.6
				c-0.4,0.8,0.1,1.1,0.1,1.6c0,0.6-0.2,1.1-0.5,1.6c0.5,0.2,1,0.5,1.5,0.5c0.5,0,0.4-0.6,0.5-0.9c0.3-0.7,0.3-1.5,0.5-2.3
				C277,403.1,276.7,402.6,275.5,402.9z M326.5,347.5c0.9,1.1,0.8,2.3,0.9,3.4c0,0.4-0.5,1,0.3,1.1c0.8,0.1,0.6-0.6,0.8-1.1
				c0.2-0.6,0-1.3,0.5-1.8c0.2-0.2,0.3-1,0.1-1.5c-0.2-0.7-0.8-0.6-1.1-0.4C327.4,347.5,327,347.3,326.5,347.5z M291.4,303.7
				c-0.7-0.3-1.5-0.1-1.7-1.1c-0.1-0.4-0.7-0.5-0.9-0.2c-0.5,0.6-1,1.3-1.1,2c-0.1,0.5,0,1.5,1.1,1.2c0.6-0.2,1.1,0.1,1.9,0.1
				C289.7,304.7,290.1,304,291.4,303.7z M254.2,526.4c0.1-0.4,0-0.5-0.2-0.6c-0.8-0.3-4,0.9-4.5,1.7c-0.2,0.3-0.6,0.6-0.2,1
				c0.3,0.4,0.7,0.4,1.2,0.2c1-0.4,1.9-1.4,3.1-1.4C253.8,527.2,254.1,526.6,254.2,526.4z M326.5,543.9c0.1-0.3-0.3-0.4-0.4-0.6
				c-0.5-0.5-1.2-0.6-1.6-0.3c-0.8,0.5-1.4,1.3-2,2c-0.2,0.3,0.2,0.4,0.4,0.4c0.4,0,0.8,0.1,1.2,0.3
				C324.8,546,326.5,544.7,326.5,543.9z M265.3,314.7c-0.5-0.4,0.2-1.7-1.1-1.6c-1.1,0.1-1,1-1,1.7c0,0.4,0.1,0.7-0.2,1.1
				c-0.7,0.8,0.2,1.3,0.6,1.6c0.6,0.4,0.7-0.4,0.9-0.7C265.1,316.2,265,315.5,265.3,314.7z M310.4,198.2c1.1-0.5,2.1-0.6,3.1-0.4
				c0.8,0.2,1.5-0.2,2.1-0.5c0.3-0.1,0.5-0.3,0.4-0.6c-0.1-0.3-0.3-0.4-0.6-0.4c-1.5,0-3-0.2-4.4,0.4
				C310.3,197,310.2,197.4,310.4,198.2z M249.4,518.7c0.7-0.2,0.8-1.1,1.5-1.3c0.1,0,0.9-1,0.2-1.6c-0.7-0.6-0.9,0.4-1.2,0.6
				c-0.7,0.6-1.2,1.4-2.3,0.5c-0.2-0.1-1,0.1-1,0.6c0,0.5,0.2,1,0.8,1C248,518.4,248.7,518.3,249.4,518.7z M298.7,257.1
				c0,0.8,0.1,1.3,0.1,1.8c0,0.4,0.1,0.6,0.5,0.6c0.4,0,0.6-0.2,0.6-0.6c0.2-1.2,0.3-2.3,0.4-3.5c0.1-0.5-0.1-0.9-0.5-1.3
				c-0.3-0.2-0.6-0.3-0.9-0.1c-0.2,0.1-0.4,0.3-0.3,0.5C299.3,255.6,298.9,256.5,298.7,257.1z M217.1,611.3c0-1-1-2.1-1.9-2
				c-0.5,0-0.9,0.2-0.9,0.7c-0.1,1.5,0.5,2.4,1.7,2.4C216.6,612.4,217.3,612.3,217.1,611.3z M294.6,344.6c-0.6-1.8-1.7-2.6-3.3-2.6
				c-0.4,0-0.8-0.1-0.9,0.4c-0.1,0.4,0.2,0.6,0.3,0.8C291.5,344.9,293.2,344.3,294.6,344.6z M340.4,463.4c0.8,0.2,0.9-0.2,0.7-0.7
				c-0.3-0.7-0.7-1.4-1-2.1c-0.2-0.4-0.4-0.8-0.9-0.7c-0.4,0.1-0.7,0.5-0.8,0.9C337.9,462.4,338.6,463.2,340.4,463.4z M320.1,292.6
				c0.2-0.4,0-0.5-0.2-0.6c-0.3-0.1-0.6-0.2-0.9,0.1c-0.8,0.7-1.6,1.4-1.8,2.5c-0.1,0.4-0.7,0.8,0.1,1.2c0.6,0.3,1.4,0.3,1.7-0.4
				C319.2,294.4,319.4,293.3,320.1,292.6z M238.1,428.9c0.6-0.8-0.1-1.1-0.6-1.3c-0.3-0.2-0.7,0-0.7,0.4c-0.1,1.1-0.4,2.3-0.1,3.4
				c0.1,0.5,0.4,0.8,0.9,0.7c0.4-0.1,0.5-0.4,0.5-0.8C238.3,430.4,238.4,429.7,238.1,428.9z M329.1,471.9c0-0.2,0.4-0.8-0.5-0.8
				c-1.2,0-1.6,0.9-1.7,1.9c0,0.8,0.1,1.8,1.2,1.7C330,474.5,328.9,473.1,329.1,471.9z M239.9,245.3c0.8,0.1,2-0.7,3.2-0.8
				c0.2,0,0.3-0.2,0.3-0.4c-0.1-0.7-1.3-1.5-2-1.1c-0.8,0.4-1.4,1.1-2.3,1.3c-0.3,0.1-0.5,0.4-0.4,0.8
				C238.9,245.4,239.2,245.3,239.9,245.3z M314.3,609.1c-0.5,0-0.7-0.1-0.9,0c-0.6,0.2-1.6,0.4-1.5,1.2c0,0.7,0.9,0.4,1.5,0.5
				c0.5,0.1,0.9,0.2,1.4,0.2c0.5,0,1.3,0.4,1.5-0.4c0.2-0.8-0.6-1-1.1-1.3C314.8,609.1,314.4,609.1,314.3,609.1z M253.4,368.9
				c-0.1-1-0.9-1.1-1.4-1c-0.8,0.1-2.1-0.1-2.2,1c-0.1,0.9,0.9,1.4,1.8,1.5C252.3,370.4,253,369.7,253.4,368.9z M331.8,534.5
				c-0.1,0.4-0.1,0.8,0.3,1c0.5,0.3,0.8-0.1,1.1-0.4c0.9-0.6,0.1-1.6,0.5-2.4c0.4-0.7-0.1-1.2-0.9-1.4c-0.8-0.1-1,0.5-1.1,1.1
				C331.8,533.2,332.2,533.8,331.8,534.5z M328.2,531.8c-0.4-0.7-0.2-2-1.6-2.2c-0.4,0-0.9,0-0.9,0.6c-0.1,1.2,0.9,2.9,1.7,2.9
				C328,533.1,328.2,532.6,328.2,531.8z M292.6,402.7c0.1,0.6-0.4,1.5,0.6,1.4c0.8-0.1,1.4-0.7,1.7-1.5c-1-0.3,0.4-2.1-1.2-2
				C292,400.7,293,402.1,292.6,402.7z M331.8,521.6c1.1-0.1,2.2-0.1,2.3-1.1c0.1-0.9,0.4-1.6,0.8-2.3c0.2-0.3,0.5-0.7,0.1-1
				c-0.2-0.2-0.6-0.1-0.9-0.1c-0.5,0-0.4,0.3-0.5,0.7C333.2,519.1,332.9,520.5,331.8,521.6z M250.7,474c0.2,0.8,0.3,1.9,1.3,1.9
				c1.2-0.1,0.6-1.6,1.1-2.4c0.3-0.4-0.7-0.9-1.2-0.8C251.2,472.7,250.6,473,250.7,474z M244.4,535.8c-0.7-0.4-1.3-0.2-1.9-0.3
				c-1.3-0.2-2.3,1.3-1.9,2.4c0.1,0.3,0.3,0.5,0.7,0.5c0.3,0,0.8-0.1,0.8-0.3C241.8,536.2,243.1,536.1,244.4,535.8z M349.9,334.4
				c-1.1-0.3-1.3-0.5-1.9-2.2c-0.2-0.5-0.4-0.8-0.9-0.5c-0.5,0.2-0.7,0.8-0.3,1.2c0.3,0.4,0.6,0.7,0.7,1.1
				C348.3,335.9,348.3,335.9,349.9,334.4z M233.5,519.4c0.2-0.9-0.5-1.2-1.1-1.3c-0.9-0.1-1.3,0.6-1.2,1.3c0.1,0.7,0,1.7,1,1.8
				C233.3,521.2,233.4,520.3,233.5,519.4z M321.2,502.2c0.9,0.2,1.4,0.9,2.4,0.8c1.1-0.1,0.8-1.3,1.6-1.6c0.2-0.1-0.2-0.4-0.4-0.5
				c-0.9-0.4-1.9-0.6-2.2,0.5C322.2,502.1,321.6,501.8,321.2,502.2z M335.6,455.6c-1-0.8-2-1.2-3-0.4c-0.2,0.2-0.2,1.6,0.6,2.2
				c0.2,0.1,0.4,0.3,0.7,0.3c0.3,0,0.4-0.3,0.3-0.6C333.9,456.1,334.8,456,335.6,455.6z M332.3,460.6c1.5,0.1,1.2,2.4,2.9,2.2
				c-0.7-0.9,0.9-1.8-0.1-2.7C334.1,459.3,333.3,460.6,332.3,460.6z M229.8,509.7c-0.9-0.1-1.7,0.1-1.6-1.1c0-0.5-0.8-0.4-0.8-0.1
				c-0.2,1.2-1.5,2.1-0.6,3.8C227.3,510.7,228.2,509.8,229.8,509.7z M396,347.4c-0.5,0-0.9-0.1-1.2,0.4c1.1,0.2,0.4,1.8,1.3,1.9
				c0.9,0.1,2.1-0.7,2.1-1.4C398.2,347,396.7,347.8,396,347.4z M329.8,522c-0.5,0.4-1.4,0.3-1.3,1.3c0.1,0.7,0.2,1.3,1.3,1.3
				c1.1-0.1,1.3-0.9,1.4-1.6C331.2,522.3,330.4,522.2,329.8,522z M353,339.9c-0.4-1.6-1.1-3-1.4-4.6c0-0.3-0.4-0.3-0.7-0.1
				c-0.2,0.2-0.2,0.4-0.2,0.7c0.2,1.3,1.2,2.4,0.9,3.8c-0.1,0.4,0.6,0.5,1,0.6C352.9,340.3,353,340,353,339.9z M243.1,448.9
				c1.2,0.9,2.4,0.7,3.4,1.4c1.8,1.4,1.9,1.3,2.9,0.6C247.5,449.9,245.7,448.6,243.1,448.9z M343.5,510.5c0,0.3-0.3,0.8,0.4,0.8
				c0.6,0,1.1-0.3,1.1-1.1c0-0.6-0.4-1.1-0.2-1.7c0.1-0.5-0.1-1.1-0.6-1c-0.6,0.1-1.1,0.7-0.8,1.3
				C343.6,509.4,343.7,509.9,343.5,510.5z M224.8,381.9c0-0.6,0-1.3-0.8-1.3c-1.5,0-1.1,1.4-1.5,2.2c-0.2,0.4,0.1,0.8,0.5,0.8
				C223.9,383.5,224.8,383.1,224.8,381.9z M343.9,373.4c0-0.2,0-0.7-0.6-0.8c-0.5-0.1-0.6,0.3-0.8,0.6c-0.4,0.8,0,1.7-0.2,2.6
				c-0.1,0.3,0.4,0.6,0.8,0.6c0.4,0,0.8-0.2,0.7-0.7C343.6,375.1,343.8,374.4,343.9,373.4z M382.8,346.6c-1.2-1.5-2.8-0.7-4.1-1.2
				c-0.3-0.1-0.4,0.2-0.3,0.6c0.1,0.3-0.1,0.5,0.4,0.7C380.1,347.1,381.3,346.9,382.8,346.6z M270.9,292.6c0.5,0.1,2.9-2.7,2.7-3.2
				c-0.1-0.3-0.4-0.6-0.7-0.3c-0.7,0.9-1.9,1.3-2.4,2.4C270.2,292.1,270.2,292.4,270.9,292.6z M255.9,498.2
				c-1.3,0.2-2.1,0.9-2.9,1.6c-0.3,0.2-0.9,0.3-0.7,0.9c0.1,0.4,0.6,0.4,0.9,0.5c0.5,0.1,1,0.1,1.1-0.4
				C254.5,499.7,255.4,499.2,255.9,498.2z M227.5,504.9c-1.2,0.3-2.5,0.4-2.1,2.3c0.1,0.3-0.8,0.7,0,0.9c0.6,0.2,0.8-0.2,1.1-0.7
				C227,506.6,226.8,505.6,227.5,504.9z M342.8,469.9c-0.6-1.1-0.6-2.2-0.6-3.3c0-0.6-0.6-0.8-0.8-0.4c-0.3,0.6-1.1,0.4-1.4,1.3
				c1.7-0.6,1.3,0.6,1.3,1.3C341.3,469.8,341.8,470,342.8,469.9z M291.9,345.5c0.7,1.4,2,1.5,3.3,1.4c0.7,0,1-0.4,1-1.2
				C294.8,345.6,293.4,345.5,291.9,345.5z M332.5,500c1.1,0.6,1.1,1.4,1.3,2.1c0.1,0.5,0.2,1,0.9,0.5c0.7-0.6,0.5-1.5,0.6-2.3
				c0.1-0.5-0.9-0.6-1.6-0.5C333.5,499.9,333.2,499.9,332.5,500z M204.2,570.2c-0.9,0.1-2.2,2.7-1.8,3.5c0.1,0.2,0.3,0.3,0.5,0.2
				c0.5-0.1,1.9-2.9,1.7-3.4C204.6,570.3,204.5,570.2,204.2,570.2z M342.8,542.2c-0.9-2.3-0.9-2.3-3.4-1
				C340,542.9,341.5,542,342.8,542.2z M356.8,352c-0.3,0.9-0.6,1.6,0.4,1.6c0.7,0,1.3-0.6,1.2-1.2c-0.2-0.9-0.6-2.3-1.5-2.1
				C355.6,350.5,357.1,351.7,356.8,352z M286.7,213.2c2.1,0.4,1.5-0.9,1.8-1.7c0.2-0.7,0.3-1.3-0.2-1.9c-0.1-0.1-0.5-0.1-0.6,0
				c-0.5,0.5-0.4,1.2-0.4,1.9C287.3,212,287.9,212.8,286.7,213.2z M250,536.5c-1.1-0.6-1.8-1.1-2.8-0.6c-0.2,0.1-1.1,0.1-0.2,0.6
				c0.2,0.1,0.2,0.7,0.3,1c0,0.4,0.1,0.8,0.6,0.8c0.5,0,0.9-0.2,0.8-0.7C248.7,536.9,249.2,536.8,250,536.5z M321.9,339.7
				c-1.5-0.4-2.8-0.4-3.8-1.4c-0.5-0.5-0.8,0-1.1,0.1c-0.3,0.1-0.4,0.5-0.4,0.8c0.1,0.5,0.5,0.7,1,0.7
				C319,339.7,320.3,340.1,321.9,339.7z M297,434.2c0.5,0.4-0.1,1.6,1.1,1.7c0.6,0,1-0.6,0.9-1.1c-0.2-0.7,0-1.8-1-2
				C297.4,432.8,297.1,433.5,297,434.2z M335.9,545.9c-0.7,0.1-1.8-0.1-1.8,1c0,0.9,1.1,0.5,1.7,0.6c0.6,0.1,1.6-0.3,1.7-0.9
				C337.5,545.7,336.5,546.1,335.9,545.9z M326.7,489.6c0.4,0.2,0.8,0.4,1.2,0.7c0.6,0.4,1.3,0.4,1.4-0.3c0.1-0.4,0.9-1,0.1-1.5
				c-0.6-0.4-1.2-0.6-1.6,0.3C327.6,489.2,326.9,489,326.7,489.6z M344.5,370.8c-0.6-0.4,0.5-1.7-0.7-1.8c-1-0.1-0.9,1.1-1.1,1.9
				c-0.1,0.6,0,1.2,0.9,1.2C344.3,372,344.5,371.6,344.5,370.8z M298.5,403.2c-1.4-0.4-1.3-1.2-1-2.2c0.1-0.3,0.1-0.7-0.2-0.8
				c-0.1-0.1-0.5,0-0.5,0.1c-0.2,0.9-0.7,2-0.5,2.8C296.5,404.1,297.6,403.4,298.5,403.2z M233.6,529.3c0.2,0.4,1.5,0.4,0.6,1.3
				c0.7,0,0,1.1,0.7,0.9c0.7-0.2,1.4-0.7,1.4-1.5c0-0.8-0.7-0.9-1.2-0.9C234.7,529,234.2,528.7,233.6,529.3z M259.8,498.3
				c0-0.2,0-0.3-0.1-0.4c-0.8-0.8-1.4,0-2,0.3c-0.6,0.3-1,1-1.3,1.7c0,0,0.1,0.1,0.1,0.1c0.7,0.4,1.1-0.1,1.6-0.4
				C258.8,499.2,259.5,498.9,259.8,498.3z M304.5,500.2c-0.1-0.7-0.2-1.4-1-1.6c-0.8-0.2-1.5,0.1-2.1,0.6c-0.2,0.2-0.4,0.4-0.3,0.7
				c0.1,0.3,0.4,0.5,0.8,0.4C302.7,499.8,303.6,500.2,304.5,500.2z M225.4,515.9c0-0.6-0.1-1.1-0.8-1c-0.8,0.1-1.3,0.6-1.2,1.5
				c0,0.6,0,1,0.8,1C225.2,517.4,225.4,516.8,225.4,515.9z M255.2,438.7c-0.2-0.6-0.1-1.4-0.7-2c-0.4-0.4-0.9-0.6-0.9,0.1
				c-0.1,0.8-0.5,1.7,0.2,2.4c0.3,0.3,0.4,1,1,0.9C255.4,439.8,254.9,439.1,255.2,438.7z M329.4,535.9c1.6,0.1,1.3-1.4,1.7-2.1
				c0.3-0.5-0.4-0.5-0.7-0.4c-1.2,0.1-1.4,1.1-1.7,2C328.6,535.8,329,535.9,329.4,535.9z M229.7,238.2c1.2,1.1,2.6,1,3.9,0.9
				c0.4,0,0.7-0.4,0.6-0.8c-0.1-0.4-0.4-0.4-0.8-0.4C232.2,238,231,238.1,229.7,238.2z M296.9,392c0.1,0.6,0.3,1.2,1.2,1.2
				c0.5,0,1,0,0.8-0.8c-0.2-0.7-0.1-1.7-1.1-1.8C297,390.5,297,391.3,296.9,392z M367.1,291.4c-0.7,0.1-1.8,0-1.9,0.8
				c-0.1,0.6,0.9,1.1,1.6,1.1c0.6,0,1.4-0.5,1.4-1.2C368.2,291.4,367.6,291.4,367.1,291.4z M320.1,307.2c1.4-0.4,2.8-0.7,3.6-2.1
				C321.7,304.3,321.2,306.3,320.1,307.2z M348.1,325.4c-0.3,0.3-1.3-0.1-1.2,0.9c0.1,0.5,0,1.3,0.9,1.2c1,0,1-1,1.3-1.6
				C349.4,325.4,348.7,325.5,348.1,325.4z M184.3,367c-0.7-0.2-1.3,0-1.5,0.8c-0.1,0.5,0.4,0.8,0.8,0.7c0.9-0.2,2.2,0.1,2.4-1
				C186.1,366.8,185,367,184.3,367z M247.3,473.6c-1.4,0.6-1,1.6-0.6,2.6c0.2,0.5,0.7,0.4,1,0C248.8,475.1,247.7,474.4,247.3,473.6z
				 M342,523.8c1.1-0.3,1.1-1.3,1.3-2.1c0.1-0.5-0.2-0.6-0.5-0.5c-1,0.2-1.3,1-1.6,1.8C341.2,523.4,341.5,523.7,342,523.8z
				 M234.6,316.3c0.9-0.1,0.9-0.9,1.3-1.3c0.3-0.3,0.8-0.5,0.3-0.9c-0.3-0.3-0.8-0.4-1.2-0.2c-0.6,0.4-1,1-1,1.8
				C234,316,234.3,316.3,234.6,316.3z M313.7,276c0,0.3-0.5,1.1,0.3,0.9c0.7-0.2,1.3-1.1,1.7-1.8c0.2-0.5-0.4-1.1-1-0.8
				C314.2,274.6,313.4,274.9,313.7,276z M295.8,245.8c0.6-0.2,1.4,0,1.4-0.8c0-0.7-0.1-1.4-0.7-1.9c-0.4-0.4-0.9-0.4-1.3,0
				c-0.5,0.5,0,0.7,0.3,1C296.3,244.5,296.3,245,295.8,245.8z M371.3,352.1c-0.7,0.1-1.5,0-1.6,0.9c0,0.6,0.7,0.8,1.2,0.8
				c0.6,0,1.4-0.2,1.4-1C372.3,352.2,371.8,352.1,371.3,352.1z M343.4,500.5c0.2-0.5,0-1-0.5-1c-1,0.1-1,0.9-1,1.7
				c0,0.5-0.5,1.3,0.4,1.3C343.7,502.4,343.2,501.2,343.4,500.5z M235.9,638.4c0.3-1.2,0.3-2.1-0.5-2.6c-0.4-0.2-0.9,0-1.1,0.7
				C233.6,638.4,235.6,637.3,235.9,638.4z M377,348.9c-1.7,0-3.2,0-4.7,0C373.9,349.9,375.7,349.9,377,348.9z M345.1,517.6
				c0.1,0.5-0.4,1.5,0.7,1.4c0.8-0.1,0.8-0.8,0.8-1.5c0-0.5,0.3-1.2-0.6-1.1C345.6,516.5,344.9,516.8,345.1,517.6z M233.2,369.8
				c-0.1-0.9-0.9-0.9-1.3-0.8c-0.9,0.1-0.5,1.1-0.9,1.7c-0.3,0.5,0.5,0.6,0.7,0.6C232.6,371.3,232.6,370.3,233.2,369.8z
				 M344.6,504.6c0.1,0.4,0,1.2,0.8,1.1c0.8,0,0.4-0.7,0.4-1.1c0-0.4,0-0.9,0.1-1.2c0.1-0.3,0.3-0.6-0.2-0.7c-0.3,0-0.9-0.3-0.9,0.4
				C344.8,503.6,344.7,504.1,344.6,504.6z M256.7,513.2c-0.3-0.5-0.4-1.3-0.9-1c-0.6,0.2-1.5,0.3-1.6,1c-0.1,0.5,0.8,0.7,1.1,1.2
				C255.8,513.9,256.3,513.6,256.7,513.2z M340.1,480.3c-0.1-0.6-1-0.8-0.7-1.5c0.2-0.4-0.1-0.8-0.5-0.8c-0.4,0-0.9-0.1-1,0.5
				c-0.1,0.4-0.3,0.8,0.2,1.1C338.7,479.9,339.2,480.4,340.1,480.3z M207.8,270.8c0-0.6,0.2-1.5-0.8-1.5c-0.8,0-0.6,0.7-0.6,1.2
				c0,0.6-0.1,1.3,0.7,1.3C207.8,271.8,208,271.4,207.8,270.8z M290.9,386.9c-0.1,0.7-0.1,1.3-0.2,1.9c-0.1,0.5,0,0.8,0.5,1
				c0.3,0.1,0.5,0.1,0.7-0.2c0.3-0.3,0.5-0.7,0.3-1.1C291.9,387.9,291.5,387.4,290.9,386.9z M337.4,526.3c1.3,1.1,1.9,1.1,2.7-0.1
				c0.2-0.3,0.4-0.6,0.2-0.9c-0.3-0.4-0.7-0.3-1-0.1C338.7,525.5,338.1,525.9,337.4,526.3z M269.4,296.4c0.3,0.6-0.2,1.6,0.9,1.4
				c0.4-0.1,1.3,0.2,1-0.7c-0.2-0.5,0.1-1.6-1.1-1.4C269.8,295.7,269.2,295.8,269.4,296.4z M336,360.8c-0.2-0.5-0.7-0.6-1.1-0.7
				c-1-0.1-1,0.8-1.2,1.4c-0.2,0.5,0.4,0.5,0.8,0.5C335.3,362.1,335.7,361.5,336,360.8z M323.9,536.9c0-0.6-0.1-1.2-0.7-1.1
				c-1.1,0.1-0.6,1.4-1.2,2c-0.2,0.2,0.4,0.5,0.7,0.4C323.4,538,324,537.7,323.9,536.9z M336.5,530.1c-0.1-1.1-1-0.9-1.7-1.1
				c-0.4-0.1-0.9,0.1-0.7,0.5c0.3,0.7,0.8,1.4,1.7,1.4C336.4,531,336.6,530.6,336.5,530.1z M233.1,315.7c-0.2-0.5-0.5-0.6-0.9-0.6
				c-1,0.1-1.2,0.9-1.3,1.7c-0.1,0.5,0.5,0.4,0.8,0.5C232.9,317.3,232.4,316,233.1,315.7z M332.8,374.9c-0.5,0.1-0.9,0.4-0.9,1
				c0,0.6,0.2,1.2,0.9,1.3c0.6,0.1,0.9-0.2,1-0.8C333.8,375.6,333.5,375.1,332.8,374.9z M339.3,375.1c-0.6,0-1.3-0.4-1.3,0.6
				c0,0.8,0.6,0.6,1,0.7c0.7,0.1,1.5-0.1,1.6-0.7C340.6,374.8,339.7,375.3,339.3,375.1z M242.7,448.8c-1.1-0.8-1.7-1.4-1.6-2.4
				c0.1-0.4-0.2-0.7-0.7-0.7c-0.3,0-0.4,0.2-0.5,0.5C239.9,447.1,241.2,448.6,242.7,448.8z M302.9,250.1c0.5,0.2,0.8,0.7,1.1,1.1
				c0.3,0.3,0.8,0.5,0.9,0.1c0.2-0.4,0.2-1.1-0.1-1.5C304.3,249,303.6,249.7,302.9,250.1z M334.2,488.3c-0.3-0.6,0-1.7-1.1-1.9
				c-0.4-0.1-0.7,0.4-0.5,0.8c0.2,0.7,0,1.6,1,1.8C334,489.1,334.2,488.8,334.2,488.3z M262.2,220.1c-0.7,0.1-0.8,0.6-0.8,1.1
				c0,0.4-0.3,1.2,0.4,1.2c0.6,0,1.1-0.6,1.2-1.3C263.1,220.6,262.7,220.3,262.2,220.1z M355.2,291.3c-0.7-0.2-1.3,0.2-1.9,0
				c-0.3-0.1-0.7,0-0.8,0.4c-0.1,0.4,0.2,0.7,0.4,1c0.2,0.3,0.6,0.3,0.8,0.1C354.3,292.3,354.9,292,355.2,291.3z M339.9,360.9
				c0.7,1,1.4,1.1,2.2,1.1c0.5,0,0.9-0.3,0.8-0.8c0-0.5-0.5-0.5-0.9-0.5C341.4,360.8,340.8,360.8,339.9,360.9z M233.3,515
				c-0.3,0.2-1.1,0.7-1,0.8c0.2,0.6,0.8,1.1,1.4,1.2c0.6,0.1,0.8-0.5,0.8-1C234.4,515.5,234.1,515.1,233.3,515z M230,543.3
				c-0.2,0.5-0.4,1,0.2,0.9c1-0.1,0.9-1.3,1.3-1.9c0.2-0.4-0.1-0.7-0.4-0.6C230.2,541.9,229.3,542.2,230,543.3z M242.9,541.5
				c0.1-0.7,1.1-1.3,0.1-2c-0.5-0.4-1.4,0.2-2.6,1.7C241.7,540.1,242.2,540.7,242.9,541.5z M237.9,441.7c0.7,1,0.7,2.1,1.1,3.1
				c0.1,0.3,0.2,0.4,0.6,0.4c0.2,0,0.5-0.2,0.4-0.4C239.3,443.7,239.3,442.2,237.9,441.7z M247.4,288.9c0-0.3-0.1-0.5-0.6-0.6
				c-1-0.1-1.3,0.7-1.5,1.3c-0.1,0.4,0.3,0.7,0.7,0.7C246.9,290.3,247.1,289.5,247.4,288.9z M300.6,401.1c-0.7-0.1,0.4-1.3-0.6-1.1
				c-1,0.2-0.5,1.3-0.8,1.9c-0.2,0.4,0.1,0.4,0.3,0.4C300.3,402.4,300.5,401.8,300.6,401.1z M250.3,502c1.1,0,1.3-0.1,1.4-0.5
				c0-0.4,0.3-1.1-0.3-1.3c-0.9-0.4-0.2,0.8-0.7,0.8c-0.2,0-0.3,0-0.5,0.1c-0.4,0.1-0.8,0.1-0.8,0.6C249.5,502.3,250,502,250.3,502z
				 M354,296.3c-0.9-1.1-1.7-1.1-2.4-0.1c-0.2,0.4-0.2,0.6,0.1,0.8c0.3,0.2,0.7,0.3,0.8,0C352.6,296.1,353.3,296.5,354,296.3z
				 M338.2,321.1c-0.1,0.1-0.3,0.2-0.5,0.3c0.6,0.7-0.3,1.4,0,2.2c0.1,0.2,0.2,0.4,0.5,0.3c0.5-0.2,1-0.6,0.8-1
				C338.7,322.3,339.3,321.4,338.2,321.1z M307.2,310.4c-0.2-0.4,0-1.3-0.7-1.2c-0.7,0.1-0.7,1-0.8,1.6c-0.1,0.4,0.1,0.8,0.5,0.8
				C306.8,311.5,307.2,311.1,307.2,310.4z M333.5,447.5c0,0.4-0.1,1.1,0.6,1.1c0.7,0,0.6-0.6,0.7-1.1c0.1-0.5,0-1-0.6-1
				C333.3,446.4,333.7,447.1,333.5,447.5z M330.7,604.9c-0.6-0.1-1,0-1.1,0.6c-0.1,0.6,0.4,0.7,0.8,0.7c0.6-0.1,1.3-0.1,1.3-0.9
				C331.8,604.5,331,605.2,330.7,604.9z M323,616.4c-1.1-0.3-2-0.6-2.9-0.9c-0.3-0.1-0.6,0-0.7,0.2c-0.1,0.3,0.1,0.7,0.5,0.7
				C320.8,616.6,321.8,617,323,616.4z M317.7,616.1c-0.1-0.5-0.6-0.5-1-0.5c-0.5,0.1-1.3-0.2-1.4,0.6c0,0.5,0.6,0.6,1.1,0.6
				C317,616.9,317.5,616.7,317.7,616.1z M218.7,520.5c0.1-0.4,0.1-0.8-0.4-0.9c-0.6-0.1-0.7,0.4-0.6,0.8c0,0.3,0.1,0.6-0.1,0.9
				c-0.2,0.2-0.6,0.4-0.1,0.7c0.4,0.2,0.9,0.1,1-0.4C218.6,521.3,218.6,520.9,218.7,520.5z M178,369.1c0.6-0.8,1.3-0.6,2-0.7
				c0.2,0,0.5,0,0.5-0.3c0-0.1-0.1-0.3-0.2-0.4c-0.6-0.4-1.3-0.2-1.9-0.1C177.7,367.8,177.9,368.4,178,369.1z M246.8,479.6
				c1,0,0.7-0.8,0.8-1.3c0.2-0.5-0.4-0.5-0.7-0.5c-0.7,0-0.8,0.6-0.9,1.1C245.9,479.5,246.3,479.6,246.8,479.6z M334.4,464.3
				c0.9,0.3,1.9,0.4,2.8,0.9c0.2,0.1,0.5,0.1,0.7-0.2c0.2-0.4-0.1-0.5-0.5-0.6C336.4,464,335.4,464.1,334.4,464.3z M240.2,515.9
				c0.1-0.6-0.2-0.7-0.7-0.7c-0.5,0-1.1,0.1-1.1,0.8c0,0.6,0.5,0.9,1.1,0.9C240.2,516.8,240.1,516.3,240.2,515.9z M337.6,511.7
				c-0.1-0.7-0.4-1.1-1-1.1c-0.3,0-0.9-0.1-0.7,0.5c0.2,0.5,0.2,1.3,0.8,1.4C337.2,512.6,337.5,512.1,337.6,511.7z M275.1,334.4
				c-1.2-0.6-2.3-0.5-3.3-0.3c-0.1,0-0.3,0.2-0.3,0.3c0,0.2,0.2,0.5,0.4,0.4C272.8,334.5,273.9,335.1,275.1,334.4z M283.1,386.6
				c-0.3-0.4,0-1.3-0.8-1.3c-0.6,0-0.7,0.6-0.7,1c-0.1,0.8,0.7,0.6,1.1,0.9C283,387.4,283.2,387,283.1,386.6z M370.9,298.7
				c-0.4-0.5-0.9-0.8-1.6-0.7c-0.4,0.1-0.8,0.2-0.7,0.6c0.2,0.7,0.9,0.8,1.5,0.9C370.5,299.5,370.8,299.3,370.9,298.7z M243.5,490.1
				c-0.7,0.5-1,1.1-0.8,1.7c0.1,0.3,0.9,0.4,1.2,0.1C244.7,491.3,243.3,490.8,243.5,490.1z M228.7,515c0.6-0.2,1.3,0.9,1.7-0.3
				c0.1-0.4,0.3-1.1-0.1-1.1C229.4,513.4,229.2,514.3,228.7,515z M330.4,311c-1.1,0-1.6,0.6-1.9,1.3c-0.1,0.3,0.3,0.6,0.6,0.6
				C330.2,312.8,330.3,311.9,330.4,311z M419.7,354.5c1,0.2,2,0.3,3,0.5c0.3,0,0.7,0,0.8-0.4c0.1-0.4-0.3-0.5-0.6-0.5
				C421.8,353.8,420.8,354.2,419.7,354.5z M397.1,351.4c-0.2-0.5-0.5-0.8-1.1-0.7c-0.5,0.1-1,0.3-0.9,0.9c0,0.5,0.5,0.6,1,0.6
				C396.5,352.1,397.1,352.1,397.1,351.4z M393.9,355.5c0.3,0,0.4,0,0.6,0.1c1.5,0.7,1-1,1.5-1.4c0.2-0.1,0.2-0.4-0.1-0.5
				c-1-0.4-1,0.7-1.6,1C394.2,354.8,394.1,355.1,393.9,355.5z M251.3,388.8c-0.4-0.2-0.7-0.4-1-0.6c-0.4-0.4-0.9-0.4-1.3-0.3
				c-0.1,0-0.2,0.3-0.2,0.4c0.2,0.5,0.7,0.3,1.1,0.5C250.3,389,250.7,389.2,251.3,388.8z M299.6,251.1c-0.4,0.2-0.8,0.5-0.7,1
				c0.1,0.5,0,1.2,0.8,1.1c0.4,0,0.7-0.4,0.5-0.8C300,252,300.2,251.3,299.6,251.1z M345.7,525.4c0-0.4-0.1-0.7-0.5-0.7
				c-0.7,0.1-1,0.6-1,1.2c0,0.4,0,1.2,0.7,1C345.7,526.8,345.4,525.9,345.7,525.4z M260.3,477.1c1.3,0.3,2.4-0.1,3.6-0.6
				C262.5,475.9,261.4,476.7,260.3,477.1z M179.5,365.8c-0.1-0.5-0.4-0.9-0.9-0.8c-0.7,0.1-0.9,0.6-1,1.2c0,0.4,0.4,0.4,0.7,0.4
				C178.9,366.5,179.4,366.4,179.5,365.8z M286.8,393.2c0.7-0.5,0.6-1.2,0.4-1.9c-0.1-0.3-0.4-0.4-0.7-0.2c-0.7,0.5,0.2,1,0,1.6
				C286.5,392.8,286.5,393,286.8,393.2z M263.3,481.5c0.1,0.7,1.4,0.7,0.6,1.6c-0.2,0.2,0,0.4,0.2,0.4c0.2,0,0.4,0,0.6-0.1
				c0.2-0.2,0.6-0.4,0.4-0.8C264.7,482,264.3,481.3,263.3,481.5z M225.6,486.7c-0.4-0.6-1.1-0.5-1.7-0.8c-0.2-0.1-0.7,0-0.8,0.4
				c-0.1,0.2-0.1,0.4,0,0.6c0.2,0.3,0.5,0.2,0.7,0.1C224.4,486.6,225,487.3,225.6,486.7z M327.5,528.9c0.4-0.2,0.9-0.2,0.9-0.9
				c0-0.5-0.3-0.7-0.8-0.8c-0.6-0.1-0.8,0.4-0.9,0.9C326.7,528.6,327,528.9,327.5,528.9z M300.1,292.2c0-0.4-0.3-0.5-0.7-0.4
				c-0.5,0.1-1,0.2-0.9,0.8c0.1,0.5,0.7,0.6,1.1,0.8C299.8,293,300,292.6,300.1,292.2z M308.2,284.8c-0.6,0.2-1,0.6-1,1.2
				c0,0.4,0.3,0.5,0.7,0.5c0.6,0,1-0.3,1-1C308.9,285.1,308.7,284.8,308.2,284.8z M275.2,280.8c0.9,0.5,1.5,0.7,2-0.1
				c0.2-0.3,0.5-0.7,0-1C276.2,279.4,276.1,280.6,275.2,280.8z M278,245.4c0.6,0,0.7-0.4,0.8-0.7c0.1-0.6-0.4-0.8-0.9-0.9
				c-0.4,0-0.9-0.1-0.9,0.4C277,244.7,277.6,245,278,245.4z M227.6,247.8c-0.1-0.4-0.2-0.9-0.8-0.8c-0.5,0.1-0.8,0.6-0.9,1
				c-0.1,0.6,0.5,0.5,0.9,0.5C227.3,248.5,227.7,248.4,227.6,247.8z M219.5,354c0.1-0.5-0.2-1-0.3-1.2c-0.9-1.4-1.1-0.1-1.1,0.4
				C218.1,354.2,218.9,353.9,219.5,354z M227.8,532c-0.8-0.3-1.5-0.8-2.1,0.1c-0.3,0.4,0.3,0.5,0.5,0.6
				C227,533.5,227.2,532.5,227.8,532z M231.7,433.6c1,0.2,1.3,1.2,2.3,1.2C233.9,433.4,233.2,433.1,231.7,433.6z M353,302.8
				c0.4-0.1,1,0.1,1-0.5c0-0.6-0.6-0.4-1-0.4c-0.4,0-0.9,0.1-0.9,0.5C352,303,352.7,302.7,353,302.8z M339.9,555.7
				c0.4,0.4,0.7,0.3,0.9,0.2c0.6-0.3,0.9-0.8,1.3-1.3c0,0-0.1-0.2-0.2-0.2c-0.8-0.3-0.9,0.6-1.4,0.8
				C340.3,555.2,340.1,555.5,339.9,555.7z M250.4,437c-0.3-0.6-1.1-0.7-1.1-1.3c0-0.3-0.3-0.4-0.6-0.3c-0.4,0.1-0.3,0.4-0.3,0.6
				C248.3,437.7,249.5,436.8,250.4,437z"/>
			<path d="M301.1,223.5c0.5-1.6,1.5-2,2.9-1.8c1.3,0.2,2.4-0.5,3.4-1.1c0.7-0.5,0.5-1.2,0.4-1.7c-0.1-0.7-0.7-0.6-1.3-0.5
				c-0.5,0.2-1,0-1.4-0.2c-0.9-0.5-1.7-0.2-2.4,0.3c-0.4,0.3-0.8,0.8-1.4,0.3c-0.6-0.6,0.1-0.8,0.4-1.1c0.2-0.3,0.4-0.6,0.1-0.8
				c-0.9-1,0-1.5,0.6-1.8c1.7-0.7,2.9-1.5,2.4-3.6c-0.1-0.6,0.2-0.7,0.8-0.5c1,0.5,1.3,1.2,0.7,2.1c-0.3,0.5-0.3,0.8-0.1,1.2
				c0.3,0.5,0.7,0.3,1.1,0.2c0.5-0.1,1.1-0.2,1.6-0.1c1.9,0.6,3.4,0.3,4.4-1.7c0.6,1.4-0.2,3.1-1.6,3.4c-2.3,0.5-3.2,1.8-3.3,4.1
				c0,2.5-0.3,2.5-2.7,2.6C304.2,223,302.8,224,301.1,223.5z"/>
			<path d="M268.1,429.3c-0.8-0.5-1.5-2.8-1-3.5c0.2-0.3,0.6-0.4,0.7,0.1C268,427,268.8,428.1,268.1,429.3
				C268.1,429.3,268.1,429.3,268.1,429.3z"/>
			<path d="M284.8,431.8c0.1,0.4,0,0.5-0.2,0.6c-0.3,0.1-0.6,0-0.7-0.2c-0.2-0.9-0.3-1.8-0.3-2.6c0-0.1,0.3-0.3,0.5-0.4
				c0.2-0.1,0.5,0.1,0.4,0.3C284,430.4,284.7,431.1,284.8,431.8z"/>
			<path d="M280.2,405.8c-0.6-0.1-0.6-0.6-0.6-1.1c0-0.3,0.1-0.8,0.4-0.7c0.6,0.1,0.9,0.6,0.7,1.2
				C280.7,405.5,280.7,405.8,280.2,405.8z"/>
			<path d="M283.8,406.1c0.6-0.1,0.6,0.3,0.6,0.7c0,0.4,0.1,1.1-0.5,1.1c-0.7,0.1-0.7-0.6-0.8-1
				C282.9,406.4,283.5,406.3,283.8,406.1z"/>
			<path d="M257.5,247.7c-1.8-0.9-2.1-2.9-3.9-3.5C255.3,244.8,257,245.4,257.5,247.7z"/>
			<path d="M219.9,374.3c-0.4,1.7-0.9,3.1-0.9,4.6c0,0.3-0.4,0.5-0.8,0.4c-0.4-0.1-0.2-0.4-0.2-0.7c0.2-1.4,1.1-2.6,1-4.1
				c0-0.3,0.3-0.4,0.6-0.4C219.8,374.2,219.9,374.4,219.9,374.3z"/>
		</g>
		<g>
			<rect x="402.4" y="-2.3" fill="none" width="100" height="800"/>
			<path d="M487,584.6c9.3,2,16,9,16,21.4c0,15.7-11.1,23.2-25.3,23.2c-13.6,0-25.8-7.7-25.8-23.7c0-13.2,7.8-19.6,16.1-20.8v10.7
				c-3.8,1-7.6,3.7-7.6,10.4c0,8.9,8,12.3,17,12.3c8.4,0,17.2-3,17.2-12.6c0-7-4.7-9.2-7.6-10.2V584.6z"/>
			<path d="M483.6,542.5c11.3,0,19.6,6.7,19.6,18.6c0,11.6-8.2,18.3-19.4,18.3c-11.5,0-19.6-7-19.6-18.8
				C464.2,549.6,471.9,542.5,483.6,542.5z M483.7,568.9c7.2,0,11.4-3.1,11.4-8.1c0-5.1-4.3-7.9-11.4-7.9c-7.8,0-11.5,2.9-11.5,8
				C472.2,565.7,475.8,568.9,483.7,568.9z"/>
			<path d="M474.6,535.4c-3.2,0-6.4,0-9.6,0.1v-9.9c0.9-0.1,3-0.3,4.4-0.4c-2.8-1.9-5.3-4.9-5.3-10.4c0-5.4,2.8-8.3,5.7-9.6
				c-3-2.2-5.7-5.4-5.7-11.5c0-6.5,4-11.8,13.7-11.8h24.5V492h-23.2c-3.4,0-6.7,1.2-6.7,5.4c0,4.4,2.8,6.1,8.5,6.1h21.3v10.1h-22.8
				c-3.9,0-7,1-7,5.4c0,4.2,2.6,6.2,9,6.2h20.8v10.2H474.6z"/>
			<path d="M487,411.8c9.3,2,16,9,16,21.4c0,15.7-11.1,23.2-25.3,23.2c-13.6,0-25.8-7.7-25.8-23.7c0-13.2,7.8-19.6,16.1-20.8v10.7
				c-3.8,1-7.6,3.7-7.6,10.4c0,8.9,8,12.3,17,12.3c8.4,0,17.2-3,17.2-12.6c0-7-4.7-9.2-7.6-10.2V411.8z"/>
			<path d="M483.6,369.7c11.3,0,19.6,6.7,19.6,18.6c0,11.6-8.2,18.3-19.4,18.3c-11.5,0-19.6-7-19.6-18.8
				C464.2,376.8,471.9,369.7,483.6,369.7z M483.7,396.1c7.2,0,11.4-3.1,11.4-8.1c0-5.1-4.3-7.9-11.4-7.9c-7.8,0-11.5,2.9-11.5,8
				C472.2,392.9,475.8,396.1,483.7,396.1z"/>
			<path d="M449.7,352.3h19.7c-2.4-1.6-5.3-4.7-5.3-10.7c0-7,4.1-12.5,14.2-12.5h23.9v10.3h-22.4c-4.8,0-7.4,1.7-7.4,6
				c0,5.7,4.3,6.9,10,6.9h19.8v10.3h-52.6V352.3z"/>
			<path d="M485.9,311.6c4.7,0,9.2-2.3,9.2-7.5c0-4.3-1.7-5.5-4-6.5v-10.3c4.6,1.3,12.1,5.4,12.1,17.1c0,12.3-9.2,17.6-19,17.6
				c-11.7,0-20-6-20-18c0-12.8,9.3-17.2,18.6-17.2c1.3,0,2.1,0,3.1,0.1V311.6z M479.5,297.2c-4.3,0.1-8,1.8-8,6.8
				c0,4.9,3.4,6.9,8,7.3V297.2z"/>
			<path d="M474.4,279.6c-3.2,0-6.6,0-9.4,0.1v-10c1-0.2,3.6-0.3,4.7-0.4c-2.3-1.3-5.6-4.3-5.6-10.8c0-7.5,5.1-12.4,14.4-12.4h23.7
				v10.3h-22.6c-4.2,0-7.2,1.4-7.2,5.9c0,4.4,2.4,6.9,9,6.9h20.8v10.3H474.4z"/>
			<path d="M483.6,202.3c11.3,0,19.6,6.7,19.6,18.6c0,11.6-8.2,18.3-19.4,18.3c-11.5,0-19.6-7-19.6-18.8
				C464.2,209.4,471.9,202.3,483.6,202.3z M483.7,228.7c7.2,0,11.4-3.1,11.4-8.1c0-5.1-4.3-7.9-11.4-7.9c-7.8,0-11.5,2.9-11.5,8
				C472.2,225.5,475.8,228.7,483.7,228.7z"/>
			<path d="M465,188.7c12.6-3.6,23.7-6.5,28.1-7.2v-0.1c-6.2-1-17.4-4.7-28.1-7.9v-10.3l37.3,13.2v10.8L465,199.8V188.7z"/>
		</g>
		<g>
			<rect x="500.5" y="97.7" fill="none" width="200" height="600"/>
			<path d="M659.6,556.6c-18.2,0-29.3-12.7-34-23.2c-6.8,10.9-15.3,17.6-29.7,17.6c-24.1,0-40.1-17.7-40.1-49.6
				c0-29.2,15.2-48.5,39.7-48.5c16.4,0,24.4,8.4,28.5,18.1c3.8-10.2,15.8-23.2,34.6-23.2c29.3,0,44.5,23.4,44.5,55.8
				C703,532.6,687.7,556.6,659.6,556.6z M596.9,521.6c9.6,0,16.1-6.9,16.1-19.9c0-12.6-4.9-19.5-16-19.5c-10.8,0-17.4,7.1-17.4,19.8
				C579.6,515,585.7,521.6,596.9,521.6z M658.2,478.6c-14.1,0-20.6,9.7-20.6,23.6c0,15.5,8.4,23.4,20.4,23.4c12.6,0,21-9.5,21-23.9
				C679,488.3,672.7,478.6,658.2,478.6z"/>
			<path d="M631.4,367.4h26.9v60.1h-26.9V367.4z"/>
			<path d="M628.5,239.3c39.1,0,74.5,12.4,74.5,54.6c0,41.7-34.3,54.6-73.7,54.6c-39,0-73.7-14.3-73.7-55.2
				C555.7,253.7,588.1,239.3,628.5,239.3z M629,316.7c26.1,0,49.4-3,49.4-23.1c0-19.6-21.7-22.2-49.7-22.2
				c-27.6,0-48.3,3.3-48.3,21.9C580.4,311.4,598.2,316.7,629,316.7z"/>
		</g>
	</g>
</g>
<g id="text">
</g>
<g id="guides" display="none">
</g>
<g id="scratch">
</g>
</svg>
