<?xml version="1.0" encoding="utf-8"?>
<!-- Generator: Adobe Illustrator 26.0.2, SVG Export Plug-In . SVG Version: 6.00 Build 0)  -->
<svg version="1.2" baseProfile="tiny" xmlns="http://www.w3.org/2000/svg" xmlns:xlink="http://www.w3.org/1999/xlink" x="0px"
	 y="0px" viewBox="0 0 800 800" overflow="visible" xml:space="preserve">
<g id="bg">
</g>
<g id="scans" display="none">
	<image display="inline" width="609" height="597" xlink:href="F809CAD.jpg"  transform="matrix(1.34 0 0 1.34 -8.0402 0)">
	</image>
</g>
<g id="counters_00000155831629897369998050000010902328751353074356_">
	<g id="su_447">
		<path d="M638.3,224.5c-2.8,1.6-4-4.7-6.1-0.5c-1.5,3.1-2.4,9.4-0.6,9.6c7,1,1.1,3.1,0.9,4.6c-0.6,5.7-1.7,11.4-3.2,17
			c-3.7,13.3-7.5,26.6-12.5,39.6c-1.3,3.3-3.3,6.6-1.7,10.2c1.8,3.9-3.1,4-3.6,7.1c-1.7,10-7.2,18.6-13.3,26.6
			c-4.5,5.9-11.7,5.9-18.3,6.7c-6.5,0.8-9.2,3.6-8.4,10.1c0.8,6.5,1.5,13.1,5.6,18.7c0.6,0.8,1.4,2.2,1.1,3
			c-2.5,6.5,3.3,10.9,4,16.5c0.3,2.4,2.9,6.1-2.1,7.3c-1.7,0.4-1,1.2,0.1,1.1c4-0.4,3.5,3.2,3,4.4c-2.5,5.4-1,11.5-4.2,16.9
			c-2.2,3.8-3,9.9-1.6,14c2.4,7.5,0.3,14.4-0.4,21.5c-0.6,6.4,2.4,11,8.8,11.6c4.5,0.4,7.7,3.7,12.2,4.5c3.2,0.5,3.6,4.9,3.2,8
			c-0.4,3.3-1.1,6.9-5,7.9c-13.6,3.5-27.4,2.6-41.1,1.1c-4-0.4-6.7-7.4-5.1-12.2c0.5-1.7,0.6-3.5,1.2-5.1c4.3-11.7,0-23.6,0.2-35.3
			c0.3-15.3-4.1-30.7-6.5-46c-0.6-3.7-2.8-6.2-5.6-7.9c-3.9-2.4-7.5-3-10.8,1.9c-3.6,5.3-5.9,11.2-8.8,16.8
			c-3.5,6.6-9.1,12.5-14.6,17.7c-3.8,3.6-7.7,6.6-10.1,11.7c-2.3,4.9-6.6,8.9-9.9,13.3c-4.3,5.6-1.6,18.2,3.9,22.9
			c1.7,1.5,7.7,1.7,4.1,7.1c-0.9,1.3,1.5,0.8,2.4,1.1c2.3,0.8,4,2.1,3.4,4.8c-0.7,2.8-2.1,5.3-5.4,4.9c-5.4-0.6-10.7-0.2-16-0.4
			c-4.5-0.1-6.3-5.4-8.4-8.6c-2.7-4.2-6-5.7-10.3-7.1c-9.7-3.1-12.5-7.1-11.7-15.6c0.1-1.1,0.3-2.4,1-3.1
			c8.2-8.4,12.1-19.7,19.2-28.6c4.4-5.5,5.2-12.8,10.7-17.3c0.4-0.4,0.8-1.3,0.7-1.8c-2.7-9.5,3.7-15.7,8.8-21.7
			c5.2-6.1,3.9-14.2,8.3-20.3c0.7-1-0.2-2.1-1.5-2.4c-1.6-0.4-3.4-0.4-4,1.4c-1.2,3.3-5.3,4.9-5.2,9c0,1.8-1.1,3.6-3.4,3
			c-2.3-0.6-1.6-2.4-1-3.8c3.1-7.2,6.4-14.3,9.3-21.5c3.2-7.8,9.4-15.3,2.7-24.2c-0.3-0.4-0.5-0.7-0.8-1.1c-2.6-3,3.5-6.9-1.6-10.6
			c-2.7-2-0.9-8,0.2-12.1c1.1-3.9,3-7.5,6.8-9.5c1.5-0.8,4.9-0.8,4.1-2.3c-1.6-2.8,0.9-6.5-1.2-8c-8-5.4-6.8-13.9-7.5-21.5
			c-0.4-4.4-4.7-9.6,1.4-13.5c-3.5-4-1-7.6,1.1-10.8c5.4-8.4,9.5-18,19.5-22.4c0.8-0.4,1.7-0.6,2.5-0.9c1.6-0.6,4.3,0.4,4.7-1.7
			c0.5-2.8-2.4-2.6-4.1-3.2c-2.6-1-2.9-3-2.9-5.4c0-2.8,1.2-4.1,4.1-3.8c1.4,0.1,1.8-0.6,1.6-1.9c-0.1-0.6,0.1-1.6-0.6-1.5
			c-8.3,0.8-5.2-6.9-5.2-9.2c0-5.9-0.2-12.5,5.3-17.4c6.3-5.7,13.6-5.5,20.4-3.6c5.3,1.5,12.4,2.3,13,11.1c0.2,2.9,5,5.3,8.8,6.4
			c3.5,1.1,4.5,4.7,2.4,6c-7.9,5.1-3.3,13.7-6.4,20.1c-0.9,1.8-0.9,4.5-1.5,6.8c-0.8,3-2.3,6.6,1.3,9.7c3.7,3.2,1.8,8.5,4.1,12.7
			c2.8,5.3,5.2,11.1,2.7,18.1c-0.9,2.5,2.1,7.5,6.5,8.9c4,1.2,6-0.6,7.6-4.3c2-4.4,6.7-7.4,10.4-9c6.1-2.4,8.8-8.8,15.4-10.4
			c6.1-1.5,10.2-7,14.6-11.3c8.4-8.2,19-13.7,26.7-22.6c1.7-2,3.9-2.5,6-1.1c2.6,1.7-0.3,3.5-0.4,5.2c-0.3,6.6-5.4,8.8-10.3,9.6
			C637.3,221,633.5,219.3,638.3,224.5z M613.2,255.4c0.1,5.1-11.6,26.1-17.1,30.8c-0.8,0.7-2.4,1.6-2.3,2c1.9,7.3-5,8.1-8.3,8.8
			c-12.4,2.6-15.1,13.5-20.7,22c-0.5,0.8-0.3,2.1-0.3,3.2c0.2,9,7.4,11,13.9,12.8c7.2,2,13.9-1.3,18.8-6.4
			c8.2-8.6,12.3-19.6,15.5-30.9c4.2-15.1,9-30.1,13.2-45.2c0.4-1.6,2.2-4.4-1.2-5.7C620,245.1,613.1,250.3,613.2,255.4z M531,231.5
			c-2.6-0.4-3.9,0.7-5.5,1.5c-4.4,2.2-1.6,8.5-6.3,10.4c0.4,0.8,0.7,1.8,1.3,2.3c3.2,2.3,5.1,5.1,5.3,9.2c0.1,2,1.8,3,3.8,3
			c1.6,0,4.1-0.3,4-1.7c-0.2-4.6,3.3-8.8,1.9-13.3c-0.8-2.6-1-4.2,1.8-5.3c1.3-0.5,2.5-1.2,2.1-2.9c-0.3-1.3-1.5-1.4-2.6-1.7
			C534.7,232.5,532.6,231.9,531,231.5z M546.1,290.1c-3.6-0.7-6.7,2.5-10.7,2c-1.7-0.2-4.8-0.6-4.9,2.1c-0.1,2.9,2.9,3,5,3.1
			c7.2,0.2,14-2,21-2.9c2.3-0.3,4.3-1.2,4.9-3.8c0.3-1.4-0.1-2.8-1.3-3.5c-2.4-1.5-4.8-0.9-6.8,0.8
			C551.4,289.8,549.4,291.7,546.1,290.1z M535.9,276.6c-0.3-0.9-0.9-2.4-1.2-3.9c-0.6-2.9-1.1-5.8-5-5.9c-4.1-0.1-4.2,1.9-2.8,5
			c0.1,0.1-1.4,0.9-1.3,1.2c0.9,3.8,2,7.5,3.2,11.2c0,0.2,1.7,0.1,2.4-0.3C533.9,282.4,535.8,280.4,535.9,276.6z M555.4,205.3
			c-0.4-3.5,0.3-7-4-6.2c-2.2,0.4-6.4-0.7-5.7,3.4c0.4,2.5-0.6,7,3.8,7.1C552.6,209.8,555.9,208.8,555.4,205.3z M569.6,287.7
			c3.5-1,6.2,0.6,9.2,1.2c3.2,0.7,5.3-1.5,5.8-4.2c0.6-3.3-2.4-3-4.6-3.3C575.3,280.9,571.7,282.3,569.6,287.7z M608.7,256.6
			c0.1-2.2-1.7-3-3.4-2.6c-6,1.2-2.9,7.5-5.6,10.7c-0.6,0.7,1.2,2.1,2.7,1.9C608.1,265.7,606.9,260.4,608.7,256.6z M526.1,337.6
			c-1.4-2.3-2.9-4-5.9-3.4c-2.2,0.5-3.7,1.4-3.3,3.9c0.4,3,2.8,3.2,5,2.8C523.8,340.7,525.8,340,526.1,337.6z"/>
		<path d="M270.6,206.3c1.2,4.4,3.6,8.9-1.4,12.7c-1.5,1.1-0.8,2.6,0.2,4.1c6.7,9.5,8.2,20.5,9.1,31.7c0.2,2.8-0.7,6.4,2.8,7.6
			c3.6,1.2,7.8,1.4,10.4-2.3c6-8.7,15.3-12.5,24.4-16.3c5.1-2.1,5.9-8.4,10.8-10.2c9.6-3.4,15.8-12.3,25.4-16
			c2.9-1.1,6.3-3.3,6.5-7.8c0.1-3.1,2.7-3.3,5-2.6c2.3,0.7,4.3,3.4,3.2,5c-1.6,2.5-2.1,5.8-5,7.7c-6.4,4.3-10.4,10.2-12.3,18
			c-2.2,9.5-7.5,17.9-10.2,27.3c-4.6,15.9-10,31.4-16,46.9c-2.6,6.9-4.8,13.6-9,19.9c-6.2,9.2-14.8,13.1-25.3,13.6
			c-4.9,0.2-7.3,2.3-7.6,7.1c-0.3,3.6-1.6,6.6-6,8c4.7,0,7.7,1.9,7.1,6.1c-0.6,4.2-4.9,1-8.7,3.7c11.5-3.4,13.1,4.5,13.9,10.6
			c0.6,4.2,2.2,7.5,3.2,11.2c1.5,5.3,1,11.6-0.3,17.2c-1.7,7.3-1.7,15.1-5.6,22c-1.3,2.3-0.2,5.9-0.1,8.9c0,0.8,0.6,2.3,0.5,2.4
			c-5.6,2.6-0.8,6.4-0.6,9.2c0.3,4.4-2.6,8.6-0.1,13.4c2.5,4.8,5,8.5,10.8,8.9c5.7,0.4,10.3,2.5,12.4,8.4c1,2.8,0.6,5.1-2.2,6.1
			c-8.1,2.9-16.1,5.1-25.3,3.1c-6.5-1.5-13.6-0.7-20.4-1.8c-4.6-0.7-5.2-2-4.5-7c1.1-8.1,7.9-15.9,2-24.8c-1.4-2.1,0.9-4.5,3.7-5.3
			c-2.9-1-4.7-3.2-4-6c2.4-9.2,0-17.9-1.1-26.9c-0.5-4-3.5-7.8-1.9-11.9c2.1-5.6-2.1-11-0.4-16.9c0.3-1-4.3-8-9.5-8.7
			c-4.7-0.6-7.6,2.2-9.3,5.9c-3.8,8.5-8.1,16.7-14.4,23.4c-3.6,3.9-7,7.9-12,10.9c-4.6,2.7-7.5,8.5-10.6,13.3
			c-4.3,6.6-6,14.6-11.1,20.7c-0.2,0.2-0.3,1-0.2,1c7.5,3.4,6.1,13.8,13.7,17.4c2.3,1.1,5.1,3.2,3.6,6.9c-1.5,3.6-3.6,5.5-8,5.6
			c-10.6,0.1-18.6-3.8-23.6-13.4c-2.9-5.5-9.7-5-14-9.1c-6.9-6.6-7.8-12.7-0.2-18.2c2.1-1.5,5.5-1.3,2.7-6.1
			c-1.3-2.2,3.4-6.7,5.9-9.8c4.5-5.6,9-11.2,11.2-18.3c0.5-1.4,1.1-3.3,2.2-4c5.4-3.1,8.6-6.2,5.2-13.2c-1.7-3.4,3.2-6.1,5.2-8.4
			c5.1-5.7,7.6-12.8,11.8-18.9c1.2-1.8,1.5-4.6-1.1-5.8c-2.9-1.3-4.4,0.4-5.2,3.3c-0.8,2.8-2,5.5-5.2,6.3c-0.5,0.1-1.9-0.7-2-1.3
			c-0.5-3.3-1.1-7.1,1.6-9.5c4.1-3.8,6.1-8.3,7.4-13.5c0.7-2.9,2.3-5.8,4.1-8.3c3.3-4.6,5-8.4,1.2-14.2c-2.1-3.1-3-8-2-12.5
			c0.3-1.7,0.8-3.7,0.2-5.2c-3.6-9.2,0.2-14.9,7.9-19.6c3.6-2.2,3-7.1-0.8-9.2c-4.2-2.3-5.1-6.5-4.6-10.3c1-7.2-0.2-14.4-1.1-21.3
			c-0.6-5.3,2.5-8.5,3.6-12.7c2.2-8.3,10.3-11.5,16-16.5c3-2.6,5.3-6,9-7.8c1.9-0.9,2-2.6,0.7-3.8c-4.9-4.4-4.6-9.6-3-15.3
			c0.4-1.5-0.3-3.4-0.5-5.5c10,1.1,17.4,6.8,24.6,12.7c1.4,1.7,2.8,3.4,4.3,5.2c-0.1,2.5,1.2,3.9,3.3,5.2c1.8,1.1,1.6,1.5-0.4,3.7
			c-0.7,0.8-0.3,1.7,0.2,2.4c2.3,2.7,5.3,1.7,7.7,0.8c3-1,0.5-3.1-0.2-4.1c-2.1-3.2,0.2-4.1,2.4-5.2L270.6,206.3z M273.4,316.2
			c4,1.8,5.1,3.9,2.9,7.4c-0.5,0.8,0,2.7,0.7,3.7c6.3,9.2,16.8,13,26.2,6c6.7-5,11-11.1,14.8-19c5.6-11.3,6.9-23.8,12.9-35
			c4.4-8.2,4.4-18.6,8-27.7c0.9-2.3,0.8-5.7-2.6-5.3c-4.1,0.5-9.3,4.1-9,7.2c0.6,6.4-4.9,10.4-4.3,16.3c0.1,1-0.5,2.8-2,3.2
			c-4.5,1.3-6.6,5.2-8.2,8.9c-2.4,5.5-6,9.5-10.9,12.9c-7.4,5.1-16,8.7-20.9,16.8C279.4,314.5,277,315.4,273.4,316.2z M250.9,260
			c-2-1.4-2.7-3.3-3.8-5.3c-2.5-4.7,3.1-7.1,2-10.8c-1-3.3-1-6,2.7-7.5c1.5-0.6,2.2-2.1,0.5-2.9c-5.2-2.4-10.5-2.8-16.1-0.9
			c-5.8,1.9,0,4.9-1.1,7.2c-0.3,0.6-0.2,1.3-0.3,2C233.5,250.5,241.2,259.7,250.9,260z M279.7,287.7c-6.7-0.6-12-3.6-16.2,2.6
			c-0.6,0.8-2.2,1.9-2.6,1.7c-5.1-3.3-9.8,2.4-14.9,0.5c-1.4-0.5-4.1,0.1-4.3,2.1c-0.2,2.1,2.3,2.3,3.9,2.9
			c4.4,1.8,7.6-3.3,11.3-2.4C265.3,297.1,271.8,293.7,279.7,287.7z M247.4,272.2c0.2-3.2-1.7-5.4-5.6-5.6c-2.2-0.1-5.9-0.6-5.4,2.8
			c0.6,4.4,3.2,8.9,7.8,9.7C247.7,279.8,246.5,275.4,247.4,272.2z M296.6,284.5c0.1-2.2-1.2-3.8-3.1-3.2c-3.1,1-6.9,0.3-9.4,3.1
			c2.5,2.1,2.4,6.8,6.7,6.9C295.4,291.4,295.5,287.5,296.6,284.5z M231.9,334.7c-1.4,0.2-3.5,0.2-3.1,1.7c0.8,3.2,3.8,3.8,6.7,4
			c1.2,0.1,3.3-0.1,2.6-1.8C237,336,234.6,334.9,231.9,334.7z M317.7,264.9c1.8-0.5,1.9-2.7,2.2-4.6c0.3-2.2-1.5-2.3-3.1-2.2
			c-2.6,0.2-2.3,2.1-2.3,3.9C314.4,263.9,314.9,265.1,317.7,264.9z"/>
		<path d="M257.9,203.7c-1.4-1.7-2.8-3.5-4.3-5.2c-0.6-1.6-1.1-3.3-1.7-4.9c0,0,0,0.2,0,0.2c1.2-2.5,0.5-4.1-2.2-5.1
			c-3.3-1.2-6.4-2.9-9.7-4.1c-12.3-4.5-13.2-5.9-7.1-16.8c2.2-4,7.2-6,12.4-6.3c11.4-0.7,18.3,5.9,24.3,14.3
			c0.8,1.1,1.5,2.3,2.6,3.1c5.8,4.4,10.7,8.8,1.5,14.7c-2.1,1.4-1,3.1-0.2,4.7c1.7,3.6,1.1,6.5-2.8,8.1c0,0,0.2,0.1,0.2,0.1
			c-2.5-1.2,0.6-7.9-5.4-5.6C262.9,201.7,260.4,202.7,257.9,203.7z"/>
	</g>
</g>
<g id="text">
	<g>
		<g>
			<path d="M212.1,643.8v-31.9h-64.3v-26.9l59.3-83.2h33.7v85.2h17.1l-2.8,25h-14.3v31.9H212.1z M212.1,561.5c0-15.4,0-24,0.6-32.9
				c-5.6,11.9-24.2,39-37.5,58.2h36.9V561.5z"/>
			<path d="M337.5,574.7v26.9h-60.1v-26.9H337.5z"/>
			<path d="M422.9,643.8v-31.9h-64.3v-26.9l59.3-83.2h33.7v85.2h17.1l-2.8,25h-14.3v31.9H422.9z M422.9,561.5c0-15.4,0-24,0.6-32.9
				c-5.6,11.9-24.2,39-37.5,58.2h36.9V561.5z"/>
			<path d="M548.3,574.7v26.9h-60.1v-26.9H548.3z"/>
			<path d="M655,501.6v22.9c-22.5,31.9-44.6,78-50.1,119.2h-31.8c5.6-41.8,31.1-91.9,50.4-116.7h-66.9v-25.4H655z"/>
		</g>
	</g>
</g>
<g id="guides">
</g>
</svg>
