<?xml version="1.0" encoding="utf-8"?>
<!-- Generator: Adobe Illustrator 26.0.2, SVG Export Plug-In . SVG Version: 6.00 Build 0)  -->
<svg version="1.2" baseProfile="tiny" xmlns="http://www.w3.org/2000/svg" xmlns:xlink="http://www.w3.org/1999/xlink" x="0px"
	 y="0px" viewBox="0 0 800 800" overflow="visible" xml:space="preserve">
<g id="fill">
</g>
<g id="bg" display="none">
	<rect x="-5100" y="-100" display="inline" fill="#B5BD00" width="8000" height="2059"/>
</g>
<g id="scans" display="none">
	<image display="inline" width="427" height="823" xlink:href="BBA75A07.jpg"  transform="matrix(0.729 0 0 0.729 244.3499 100)">
	</image>
</g>
<g id="counters_00000155831629897369998050000010902328751353074356_">
	<g id="us_ldr">
		<path d="M516.9,320.6c1.4,1.5,2.5,3.2,4.2,4.4c2.1,1.4,1.9,3.5,1,5.6c-1.6,3.7-3.7,7.1-6.5,10c-1.7,1.8-2.7,3.3-0.6,5.5
			c1.1,1.1,1.4,2.7,0.8,4.1c-2.4,5.4-4.7,10.9-9.7,14.7c-2.9,2.2-5.2,1.9-7.8-0.3c-5-4.2-10.1-8.3-15.2-12.4
			c-3.4-2.7-5.3-2.1-6.5,2.1c-1.1,4-1.6,8.1-2.1,12.2c0-2.6,0-5.3,0-7.9c0-1.7,0.1-3.6-2.2-3.9c-2.1-0.2-3.8,0.6-4.5,2.8
			c-1.7,4.8-2.6,9.8-3,14.9c-0.4,4.7-0.9,9.3-1.7,13.9c-0.6-8-0.1-15.9,1.8-23.8c1.5-5.9,0.7-6.6-5.1-4.9c-4.8,1.4-9.6,2.6-14.7,1.3
			c-1-0.3-2.3-0.4-3,0.7c-0.7,1.1,0.5,1.6,0.9,2.4c1.2,2.6,1.9,5.6,2.2,8.3c0.9,7,4.3,13.4,5.2,20.4c0.7,5.6,1.7,11.1-2.4,16
			c-0.9,1.1-0.7,2.5-0.7,3.9c0.1,2.8,0,5.6,0,8.8c-2.9-2.8-3.6-1.5-3.9,1.5c-0.3,3-1.7,6.6,2.7,7.3c2.7,0.4,6.2,1.8,8.5-1.6
			c0.3-0.5,0.8-1.1,1.3-1.2c6.9-1.9,6.6-7.3,6.4-12.8c-0.2-6.3,0-12.6,0.3-18.9c1.2,1.3,1,3,0.9,4.5c-0.3,6,0.6,11.8,1,17.8
			c0.1,1.2,0.1,2.8,1.4,3.1c1.7,0.3,2-1.6,2.5-2.7c2.8-6.5,3.6-13.5,4.5-20.5c1.1-8,0.1-16.2,1.8-24.2c0.2,17,0,34-6.4,50.2
			c-2.1,5.4-5,10.3-11.3,11.9c-0.7,0.2-1.5,0.7-2.1,0.5c-3.5-1.4-4.9,0.3-5.2,3.7c-1.8-0.7-2.1-2.3-2.8-3.4c-1-1.6-1.8-3.2-3.6-4
			c-1.7-0.8-3.6-2.8-5.4-0.3c-2,2.7-1.4,5.7,1.2,7.5c1.3,0.9,3.3,1.1,3.8,3.1c0.4,1.6,1.8,2.5,3.1,4.8c-2.1-1.6-3.4-2.6-4.8-3.5
			c-0.5-0.3-1.1-0.7-1.7-0.2c-0.6,0.5-0.3,1.1,0,1.7c1.1,2.3,2.8,4.3,4.9,5.8c0.4,0.3,1.2,0.6,1.3,0.5c2.6-4.1,5,1.9,7.5,0.2
			c0.1-0.1,1,0.5,1,0.8c0.2,4.2,3.7,6.3,6.4,10c-4.8-2.6-9-4.4-11.7-8.3c-0.4-0.6-1.3-1.2-2.3-0.8c-0.4,0.1-0.8,0.7-0.9,1
			c-0.1,1.2,0.8,1.3,1.7,1.4c0.9,0.2,1.6,0.7,1.9,1.5c1.9,7.1,8.2,10.6,12.8,15.5c1.7,1.8,3.6,3.6,5.3,5.4c0.9,1,1.8,2.3,3.3,0.9
			c1.2-1.2,0.6-2.5-0.3-3.6c-0.9-1.3-2-2.5-2.9-3.7c-2-2.6-3.9-5.1-6.1-8.1c4.7,2.7,11.7,10.5,13.4,15.1c1,2.7,3.5,4,5.4,5.8
			c11.9,11.2,23.9,22.3,35.9,33.5c1.2,1.2,2.3,1.8,4.2,1c2.7-1.2,4.4,0.2,4.3,3.1c0,0.8-0.4,1.7-0.4,2.5c0.1,2.2,0.6,4.7-2,5.7
			c-2.6,0.9-3.8-1.7-5.2-3.1c-10.8-10.6-22.6-20.2-33.6-30.6c-1.3-1.2-2.9-2-4.6-1.4c-3.6,1.2-6.7,0.5-9.3-2.2c-0.4-0.4-1-0.6-1.5-1
			c-2.3-1.5-4.8-3.3-5.9,2.5c-1.7-5.9-4.6-4.4-7.6-2.9c-6,2.9-7.2,7.1-4.1,14.3c-3.5-0.3-6.4,1.9-9.8,2.1c-3.2,0.2-4.4,3.1-6,5.4
			c-0.7,1-0.5,1.9,1,1.9c1.9-0.1,4,0.2,5.4-1.5c0.5-0.7,1-1.7,1.9-0.6c0.7,0.9-0.1,1.5-1,1.9c-2.9,1.5-5.7,3.1-8.3,5.2
			c-1.3,1-2.4,2.3-2.1,4c0.4,1.8,2.2,1.4,3.5,1.9c2.3,0.9,4.4,1.6,6.9,0.8c1.3-0.4,1.9,0.6,1.9,2c-0.1,2.7-0.6,5.1-3.2,6.9
			c-3.1,2.1-6.4,3.9-9.8,5.6c-4.7,2.4-4.9,3-3,7.3c-5.3-0.1-7.3,4.6-4.5,10.9c1.7-1.3,2-3.2,2.2-5.2c1.9,2.1,3.5,2.2,3.7-0.8
			c0.2-2.4,2-3.8,2.6-5.9c0-0.1,0.1-0.3,0.2-0.3c3,0.3,4.9-2.3,7.4-2.9c1.5-0.3,1.5,2.1,0.9,3.5c-0.7,1.7-2,3.3-3.7,3.8
			c-4.2,1.3-4.5,5.5-6.5,8.3c-4.9,6.9-10.9,13-15.7,20c-2.4,3.5-5.6,6.8-4.8,11.8c0.6,3.5,1.5,3.8,4.6,2.1c1.2-0.7,2.4-1.7,4-1.5
			c1.9,0.2,2.9-0.7,3.2-2.6c0.3-1.8,1.3-3.3,3.6-2.3c2.2,1,2.9-0.3,3.1-2.1c0.1-0.7,0.1-1.5,0.3-2.1c0.4-1.1,0.9-2.7,2.3-2.3
			c1.2,0.4,0.2,1.7,0.1,2.5c-0.1,0.7-0.3,1.5,0.6,1.9c0.8,0.4,1.3-0.3,1.8-0.9c0.7-0.8,1.2-1.9,2.7-2c-0.6,4.7-4,7.3-6.7,10.4
			c-3.4,3.9-6.7,7.9-10,11.9c-0.5,0.6-0.9,1.3-0.5,2c0.5,0.8,1.3,0.3,2,0.2c0.4-0.1,1.2-0.2,1.4,0c3.1,3.9,3.6,0.4,4.6-1.6
			c0.3-0.6,0.7-1.3,1.3-1.7c4.8-3.8,7.5-9.5,10-14.6c2.6-5.3,8.3-7.6,10.3-13c0.3-0.8,1.5-1.6,2.7-1.7c0.9,2.4,0.3,4.3-1.6,5.8
			c-2.2,1.7-3.4,3.7-2.6,6.6c0.2,0.9,0.3,2.1-0.8,2.6c-4.4,2.1-6.8,5.9-9.2,9.8c-0.6,1-1.6,1-2.5,1.2c-1.8,0.6-2.3,2.1-2.3,3.7
			c0,1.1,0.5,1.9,1.7,2c1.7,0.1,2.2-1.2,2.8-2.5c0.3-0.5,0.7-1.5,0.9-1.4c4,0.5,6.6-2.4,9.9-3.8c1.3-0.6,2.6-1.1,3.7-2.1
			c0.9-0.8,2.2-2.3,3.4-1.3c1.2,1,0.9,2.9,0.4,4.4c-0.3,0.9-1.7,1.1-1.4,2.3c3.4,0.2,3.4,0.2,10.8-10.4c0.7,3.8-0.1,7.1-1.2,10.4
			c-0.4,1.2-1.3,2.3-2.5,2.4c-4.1,0.4-5.4,3.2-5.3,6.6c0,2.8-1.3,4.1-3.6,4.6c-2.2,0.6-3.7,3.3-6.8,2.1c1-1.5,3.5-2.4,1.8-4.5
			c-1-1.2-6.7-1.3-7.9,0.2c-2.6,3.3-5.5,5.7-9.8,6.2c-0.6,0.1-1.2,0.7-1.8,1.2c-0.8,0.7-1.9,1.6-1.2,2.7c0.8,1.3,2.1,0.8,3.2,0.2
			c1.4-0.7,2.9-1.3,4.4-1.8c0.6-0.2,1.5-0.4,1.9,0.5c0.3,0.7-0.4,1-0.9,1.4c-2.8,2.7-5.8,5.1-9.6,6.5c-1.3,0.5-2.9,0.9-2.4,3
			c0.4,1.6,1.2,2.7,3,2.6c2.7-0.1,4.3,2,6.5,2.9c1.4,0.6,1.1,1.7,0.3,2.7c-1.6,1.9-3.3,3.5-5.8,4.2c-1.3,0.4-2.7,0.9-2.6,2.5
			c0,1.7,0.8,3.1,2.4,3.8c4.8,2.2,9.2,5.7,15,4.7c0.9-0.2,1.3,0.4,1.5,1.2c0.3,1.2,1.2,1.9,2.4,1.8c1.5-0.1,1.9-1.4,2.2-2.6
			c1-4.9,4.3-7.5,8.6-9.4c1.2-0.5,3.4-0.8,2.5-2.7c-0.7-1.5-2.7-1.7-4.2-0.8c-1.6,0.9-3,2.1-4.5,3.1c-0.6,0.4-1.1,1.2-1.9,0.6
			c-0.7-0.5-0.4-1.3-0.2-2c0.9-3.3,1.5-6.7,4.7-8.8c1.4-0.9,2.4-2.5,2.8-4.2c1.1-3.7-1-5.9-4.8-5.7c-2.8,0.1-5.8-0.7-8.5,1.5
			c0.5-1.6,1.5-2.3,5.7-5.7c2.2-1.8,5.6-1.3,7.3-4.5c1.5,3.5,0.8,6.6,1,9.7c0.7,8.3,5.1,14.6,11.4,19.5c6.8,5.4,14.6,8,23.7,7.5
			c7.4-0.5,14.2,8,13.3,15.2c-0.1,1-0.8,1.4-1.5,1.9c-2.4,1.4-4.8,2.7-7.7,3.2c-5.5,0.9-10.9,2.2-16.5,3.1c-6.6,1-13,0-19.4-1.7
			c-5.3-1.5-10.8-2.7-15,2.7c-0.4,0.5-1.3,0.9-1.9,0.9c-7.4,0.1-14.8,1.5-22.1-0.6c-1.7-0.5-2.5-1.4-2.9-3.2
			c-2.1-7.9-2.1-15.4,1.6-23c2.4-5,2.6-10.5,1.6-16.3c-1-6.1-1.5-12.4-2.2-18.6c-0.3-2.9-0.9-5.1-4-6.1c-2.8-0.8-4.1-3.1-5.3-5.6
			c-2.6-5.1-2.5-10.6-2.3-16c0.1-3,3.1-5,4.1-8c1.3-4.2,2.1-8.3,1.1-12.5c-1.2-5.2-0.5-10,2.2-14.4c6.7-11.2,2.5-21.3-2.9-31.1
			c-1.1-2-3.6-3.6-6.5-3.1c-1.6,0.2-3.1,0.2-4.7,0.2c-8.2,0-9.6,0.5-11.6,8.3c-1.5,5.7-4.8,9.7-8.7,13.5c-4.7,4.6-8.2,10-11.2,15.9
			c-3.8,7.5-7.5,15.3-13.8,21.2c-3.1,2.9-4,7.4-7.9,9.8c-2.8,1.8-5.8,2.7-8.9,2.4c-3.6-0.4-7.3-0.3-10.8-1.4c-1.5-0.5-2.8-0.4-4,0.8
			c-6.4,6.5-9.3,14.2-9.1,23.3c0.2,10,3.1,19.6,4.2,29.5c0.3,2.4,1.8,3.8,3.5,5.3c4.4,3.9,8.2,8.3,8.9,14.5c0.5,4.3-0.8,8-4.5,10.4
			c-3.3,2.2-6.7,1.3-10-0.4c-8.6-4.3-16.5-9.4-23.6-16.2c-5.3-5.1-7.8-11.6-10.5-18.1c-2.2-5.3-5.7-8.4-11.6-8.9
			c-4.6-0.4-6.6-4.7-9.1-7.8c-1.6-1.9-2.7-4.3-4-6.5c-1.5-2.8-1.1-5.5,0.9-7.8c4.3-5.2,8.7-10.4,14.7-14
			c7.4-4.5,12.7-11.1,16.5-18.9c0.3-0.5,0.5-1.1,1-1.5c5.2-5,6-11.2,5.8-18c-0.2-7,5.3-11.1,9.3-15.8c0.3-0.4,0.8-0.4,1.2,0.1
			c1.7,2.4,4.8,3.1,7,4.9c0.4,0.4,0.7,0.9,0.3,1.2c-1,0.7-2.6,2-3.4,0.6c-1.2-1.9-2.2-1.4-3.5-0.6c-0.9,0.5-1.8,1.3-2.5-0.5
			c-0.3-0.9-1.1-0.5-1.8,0c-3.5,2.6-4.4,6.8-2,10.6c0.9,1.5,2,2.5-0.7,3.6c-2.1,0.8-2.5,3-1.1,4.9c1.3,1.8,2.1,3.8,3,5.7
			c0.7,1.6,2,4.3,4.4,1.1c0.8-1,2.3-0.5,3.5-0.6c2.6-0.3,3.7-1.2,2-3.7c-0.6-1-1.8-2.1-0.8-3.2c0.9-1,2,0.4,2.9,0.8
			c3.4,1.5,6.8,2.6,10.5,2.1c3.1-0.4,5.3,1.4,6.5,3.8c1.4,2.7,2.8,2.3,4.4,0.7c3.7-3.8,8.6-5.9,12.5-9.4c0.2-0.1,0.5-0.3,0.6-0.2
			c4.9,3.8,3.8-3.8,6.8-3.6c0.3,0,0.5-1.1,0-1.6c-0.4-0.5-0.9-0.2-1.3,0c-3.9,1.7-8.1,2.1-12.3,2.2c-2.5,0.1-4.5-0.8-5.5-2.8
			c-1.1-2.1,0.5-3.5,2.2-4.8c1.1-0.9,2.2-1.9,3.1-3.1c4-5.7,10.1-6.8,16.2-7.7c-0.1,1.9,1,2.8,2.7,2.1c1.3-0.5,2.8-2,2-3.3
			c-0.9-1.7-2.2,0.2-3.3,0.5c-0.6,0.2-1,0.6-1.6,0.8c0.8-2.8,3.4-3.8,5.7-4.6c2.4-0.8,3.9-2.6,5.9-3.9c0.8-0.5,1.7-1.7,0.7-2.8
			c-0.8-0.9-1.8,0-2.6,0.5c-1.7,1-3.1,2.3-3.8,4.2c-0.4-0.1-0.7-0.1-0.8-0.3c-2-4.3-2.7-4.4-6.1-1c-3,3-6.3,3.8-10.4,2.3
			c-1.9-0.7-4.3-0.4-6.8-0.5c1.5-2.9,3.1-4.5,6.3-3.2c1.5,0.6,2.5,2.6,4.5,1.2c2.2-1.6,5.1-2.5,5.7-5.7c0.3-1.5,0.1-3.5,2.2-4.2
			c0.6-0.2,0.6-0.9,0.2-1.6c-0.4-0.8-2.8-0.7-1.2-2.2c0.9-0.9,2.1-2.1,3.9-1.5c0.2,0.1,0.5,0.2,0.7,0.1c1.3-0.3,3.5,0.4,3.8-1.3
			c0.3-2.1-1.9-1.9-3.4-2.4c-5-1.7-8.6-5.2-11.5-9.4c-2.7-3.8-6.5-6.4-10-9.4c-1.9-1.7-3.8-0.8-6.2,1.2c4.7-8.3,0.7-14.7-2.7-21.3
			c-8.7-16.9-18.6-33.2-25.8-50.9c-8-19.6-17.6-38.3-27-57.2c-3.5-7-7.7-13.7-8.6-21.8c-0.3-2.4-3.6-2.7-4.7-5.2
			c-1.6-3.7-2.8-8.1-7.7-9.4c-0.9-0.2-0.8-1.4-0.7-2.2c0.3-3.7,0.4-7.6,4-10c1-0.7,1-1.8,1.2-2.9c0.4-2.7,2.2-4.6,4-6.4
			c0.9-0.9,2.7-1.5,3.5-0.2c0.7,1.1,0.6,2.9-1.2,3.6c-1.7,0.7-3.2,1.8-2.9,3.7c0.3,2.2,2.4,3.2,4.3,3.4c4.4,0.5,7.2,3.7,9.9,6.2
			c1.3,1.2,3.3,2.9,4.2,4.9c0.2,0.4,0.7,1,1,1c3.2-0.7,5.7,2,9.2,2c-1.4-3-4.6-4.1-5.5-7.4c2.8,0.1,4.3,2.3,6.3,3.4
			c0.7,0.4,1.3,1.3,2.2,0.5c0.6-0.6,0-1.3-0.3-2c-1.5-3.1-2.1-6.1-1.8-9.7c0.4-4.9-3.7-7.9-6.9-11c-1-0.9-2.3-1.6-3-2.6
			c-2.3-3.6-5.6-4.4-9.5-3.6c-0.7,0.2-1.5,0.4-1.9-0.4c-0.6-1,0.4-1.6,1-2c2.5-1.8,4.9-2.2,7,0.5c1.8,2.2,3.6,4.2,6,5.8
			c0.9,0.6,1.8,1.7,2.9,1c1.1-0.7,0.7-1.9,0.5-3c-0.8-3.3-0.2-6.2,2.7-8.3l0-0.1c0,2,1.4,3.7,0.7,6c-0.5,1.6,1,2,2.3,1.1
			c0.7-0.5,1.1-1.3,1.7-1.9c0.7-0.7,1.6-1.4,2.5-0.6c0.8,0.8,0,1.6-0.5,2.2c-0.9,1.3-2,2.5-2.9,3.8c-0.7,1-1.4,2.3-0.3,3.3
			c1.2,1.1,2.2,0.2,3.1-0.8c0.4-0.5,0.8-0.9,1.3-1.3c0.7-0.5,1.4-0.4,2,0.1c0.6,0.5,0.2,1.1,0,1.6c-0.9,1.9-2.5,3.3-4.1,4.6
			c-2.6,2.1-1.6,4.1,0.2,5.8c1.5,1.4,2.9,4.4,5.6,1.1c1.4-1.6,4.1-1.5,5.4-3.6c0.4-0.7,1.4-0.5,1.9,0c0.5,0.5,0.2,1.2-0.2,1.6
			c-2.7,2.5-1.7,6.7-4.3,9.4c-0.9,0.9-0.5,3.4,0.9,4.7c1,0.9,2.3,1.2,3.7,0.6c1.3-0.5,2.8-2.5,3.7-1.2c1.1,1.6,2.6,3.6,2,6
			c-0.1,0.5-0.2,1-0.2,1.4c0.1,0.8-0.1,2,1,2.1c1.2,0.2,1-1.1,1.2-1.8c0.3-0.9-0.2-2.3,1.8-1.9c1.7,0.3,3,3.2,5.1,0.8
			c1.2-1.4,2.6-2.7,3.1-5.2c1.1,2,0.9,3.4,0.2,4.7c-2.6,4.7-2,8.9,1.2,13.6c1.2,1.8,1.4,3.6,4.3,2.7c1.2-0.4,1.6,1.1,0.8,2.3
			c-0.6,0.9-0.7,1.9,0.3,2.6c1,0.7,1.9-0.1,2.6-0.7c3.7-3.2,6.8-7.1,11.3-9.6c2.9-1.6,0.4-3.8-1.2-4.1c-4.6-1-4.8-4.2-3.6-7.4
			c1.8-4.8-1.3-8-3-11.7c-0.5-1.2-1.7-2.1-2.3-3.3c-2.7-5.4-11.2-5.9-16.1-4c-0.7,0.3-1.3,0.6-2,0.9c-0.6,0.2-1.3,0.3-1.6-0.3
			c-0.3-0.7,0.2-1.2,0.8-1.4c2.1-1,4.1-2.3,6.5-2.2c1.8,0.1,3.2-0.8,3.7-2.3c0.7-1.9-1.3-2.2-2.4-3c-4-2.8-8.4-1.6-12.7-1.4
			c-0.7,0-1.5,0.1-2.2,0.2c-2.5,0.3-5.1,0.3-6.3-2.3c-1-2,2.1-5.4,5.1-6.2c1.6-0.4,4.6,0.5,4.5-1.7c-0.1-2.6-3.3-1.9-5.1-2.2
			c-2.5-0.4-5-0.7-8,0.4c2.3-5.1,6.8-7.2,10.7-9.8c1.3-0.9,3-1,4.3-1.8c2.1-1.3,3.6-1.1,4.9,1c0.7,1.1,1.9,2,3,1
			c1.3-1.1,0.6-2.7-0.4-3.5c-4-2.9-6.1-8-11.4-9.3c2.4-3.2,4-3.3,6.9-1.5c2,1.3,4.3,2,6.5,3.1c0.7,0.4,1.5,0.8,2.1,1.4
			c0.8,0.8,1.3,2.4,2.8,1.7c1.6-0.7,1.4-2.3,1.1-3.8c-0.2-0.8-0.1-1.8,0.2-2.5c1-2,3.5-3.8-0.2-5.7c-0.2-0.1,0-1.4,0.2-2.1
			c0.5-1.8,1-3.3-0.2-5.2c-0.9-1.3,2-7.3,3.4-8c0.3-0.1,0.8-0.3,0.9-0.1c2.5,2.6,6.4,4.3,5.9,8.8c-0.1,0.9-0.8,2.1,0.5,2.5
			c1.3,0.4,2-0.7,2.7-1.5c1.3-1.6,2.5-3.3,3.7-4.9c0.5-0.7,1-1.7,0.2-2.2c-1.9-1.2-1-2,0.2-3c0.4-0.3,0.9-1.3,0.7-1.5
			c-2.5-3,0.9-4.5,1.6-6.6c0.2-0.6,0.6-1.5,1.4-1.4c0.9,0.1,1,1,1,1.7c0.5,4.4,3.9,8.5,1.1,13.3c-0.4,0.6,0,1.7,0.1,2.5
			c0.3,1.2-0.7,3.4,1,3.4c1.9,0,2.1-2.4,1.8-3.8c-0.8-3.8,1.7-6.5,2.6-10.3c0.6,0.9,0.9,1.2,0.9,1.5c0.4,1.6,1.2,3.4,2.8,3.4
			c1.6,0,1.6-2.2,2-3.5c1.2-3.8,2.6-7.6,2.1-11.7c-0.2-1.9-0.4-3.6-2.2-4.7c-0.9-0.6-1.4-1.6-1.1-2.5c0.9-3.5-1.4-6-2.4-8.8
			c-0.9-2.5-2.3-4-5.2-3.1c-0.9,0.3-1.7,0.2-2.2-0.7c-2.7-4.6-8.2-3.7-12.1-5.9c-1-0.6-2.1,0.2-2.6,1.4c-0.4,0.9-1,1.7-1.5,2.5
			c-2.6,3.7-2.5,4.1,1.9,5.7c1.6,0.6,4,0.7,1.8,3.4c-1.3,1.6,0.3,2.6,1.2,3.7c3.2,3.8,3.5,6.5,1,10.6c-1.6,2.7-3.8,5-7.3,4.6
			c-3.3-0.4-7.1-5-7-8.2c0-3.3-1.3-3.9-4.3-3.1c-6.6,1.8-13.8,9.3-14.8,15.9c-0.1,0.4-0.1,1,0.2,1.3c1.6,2.1,1.6,2.1-0.5,3.9
			c-3.1,2.7-5.4,5.9-7.7,9.2c-0.5,0.7-0.9,1.4-0.9,2.3c0.1,2.4,0.4,4.8-3.2,5.2c-0.8,0.1-1.5,1.8-2.5,3.1c0-2.2-0.3-4.1,0.1-5.8
			c1.5-7.3,0.2-14.5-1-21.7c-0.5-3.2,0.1-5.5,3.1-6.9c1.2-0.6,2.1-1.6,2.8-2.8c1.1-1.9,1.2-5.6,4.8-2c1,1,9-4.4,9.3-6.1
			c0-0.2,0.1-0.6,0-0.7c-4.4-3.5,0.7-3.6,1.9-4.5c1.7-1.3,4.4-1.4,4.6-4.4c0-0.6,0.8-0.8,1.4-0.9c2.7-0.6,4.8-1.5,5.6-4.7
			c0.7-2.9,3.6-1.7,5.3-1.1c3.2,1.1,5.4,0.2,7.8-1.9c4-3.4,8.8-5.5,13.3-8.1c3.2-1.8,6-3.9,7.9-7.3c1.6-2.9,4.8-4,7.4-5.8
			c1.7-1.2,3.6-2,5-3.6c2.4-2.6,1.3-6.8-2.2-7.8c-8.1-2.3-8-2.3-7.9-10.7c0.1-5.7-0.5-11.4-0.1-17.1c1.3-20.5,14.2-30.1,34-31.7
			c9.2-0.8,17.8,1.5,25,7.1c5.5,4.3,8.6,10.7,10.6,17.5c1.1,3.6,1.8,7.3,2.7,10.9c0.8,3.2,2.2,6.2,4.2,8.8c1.7,2.2,1,3.5-1.4,4.3
			c-0.3,0.1-0.7,0.4-1,0.4c-5.5-0.1-9,2.1-9.2,8.1c0,1-1,1.2-1.7,1.6c-1.6,0.9-3.2,1.9-4.5,3.1c-2.2,2.1-1.7,3.8,1.2,4.7
			c0.7,0.2,1.4,0.5,2,0.8c0.6,0.4,0.5,1.1,0.2,1.6c-0.3,0.6-0.6,0.8-1.4,0.6c-3.8-1-5.6-3.6-5.5-7.6c0-1.6-0.3-3.1-0.5-4.7
			c-0.1-0.6-0.7-1.6-0.9-1.3c-2.6,2.6-4.1-1-6.3-1.2c-6.9-0.6-13.6-0.1-20.3,0.8c-3.5,0.5-4.4,3.7-2.3,6.7c0.9,1.2,1.5,2.6,2.4,4.2
			c-2.3,0-3.9-0.4-5.5-1c-2.8-0.9-5,0.1-6.7,2.4c-1.7,2.4,0.3,4.2,1.7,5.3c6,4.8,11.1,11,19,13c2,0.5,2.2,1.9,2.5,3.5
			c0.3,1.4,0.7,3,2.4,3.3c1.9,0.3,1.9-1.4,2.3-2.7c0.3-1.3,1.4-2,2.3-2.7c2.1-1.7,3.4-1.2,3.8,1.4c0.1,0.9,0.8,1.5,1.4,2.1
			c3.2,3,4.5,7.3,7.7,10.7c4.2,4.4,5.1,11.3,8.7,16.6c0.5,0.7,0.6,1.7-0.1,2.4c-1.6,1.6-0.7,3.4-0.7,5.2c0,1-0.1,2.6,1.4,2.5
			c1.6-0.1,0.7-1.8,1.4-2.9c1.1,3.4,3.5,5.5,6.1,7.4c2.1,1.5,3.5,3.3,2,6.1c-0.3,0.5-0.7,1.2-0.6,1.7c1.4,6.6-0.3,13.3,0.7,19.9
			c0.3,1.9-1.2,3-1.1,4.3c0.5,5.8-0.9,11.8,1.1,17.5c0.7,2.1,2,1.6,2.8,0.4c1.3-2,1.8-1.2,2.6,0.3c2.4,4.7,5.1,8.7,11.3,9
			c3.4,0.2,6.8,1.8,9.7,3.9c0.8,0.6,1.8,1.3,2.6,0.4c1-1.2-0.5-1.6-1.1-2.2c-2.1-2-1.4-4.2-0.4-6.4c1.2-2.6,2.6-5,5.6-5.7
			c1.1-0.2,2.5,0.4,2.9,1.3c2.1,5,5.4,4.3,9.3,2.6c1.4-0.6,3.2-0.3,4.6,0.6c5.5,3.8,11.1,7.3,17.1,10.4
			C515.6,316.5,516.2,318.8,516.9,320.6c-0.9-0.9-1.9-2-2.9-3c-0.8-0.7-1.9-1.1-2.2,0.4c-0.2,1.5,0.1,3.2,1.8,4
			C515.1,322.7,516.4,322.5,516.9,320.6z M304.1,596.3c2.6-3.9,1.6-6.4-2.7-6.9c-1.2-0.2-2.2,0.2-2.7,1.4c-0.5,1.2-0.3,2.2,0.8,2.8
			C301,594.6,302.6,595.4,304.1,596.3c-0.6,1.3-1.6,1.7-2.9,1.2c-1.5-0.5-3.5-2-4.6-0.3c-0.9,1.5,1.2,2.9,2,4.3c0.1,0.2,0,0.4,0,0.7
			c-1.5,0.8-3,0.6-4.6,0.4c-1.5-0.1-3.7-0.8-4.2,1c-0.5,1.9-1.8,4.2-0.3,6.2c1.3,1.7,1.4,3.1,0.7,5c-0.7,1.9,0.1,2.8,2.1,3.7
			c3.4,1.5,6-0.2,8.9-1c1.6-0.5,1.7-1.2,0.6-2.6c-1.6-2-4.1-2.5-5.8-4.3c-0.6-0.7-1.9-1.2-1-2.3c0.6-0.9,1.5-0.3,2.3,0
			c3,1,5.9,2.1,9,3c1.1,0.3,2.3,0.2,2.8-1c0.4-1.1-0.4-1.9-1.3-2.4c-0.9-0.6-1.9-1.1-2.9-1.5c-1.8-0.6-3.2-1.6-4.3-3.6
			c0.8,0,1.3,0.2,1.7,0.1c2-0.5,6.6,3.8,5.5-2.9c0-0.2,0.5-0.5,0.8-0.6c2.3-1.3,0.6-2-0.4-2.7C306.9,595.7,305.5,596.1,304.1,596.3z
			 M418.8,310.8c0.1,3.9,2.1,5.5,3.6,7.7c1.5,2.2,3.5,2.9,5.1,2.7c2.2-0.3,4.1-2.3,4.9-4.5c0.7-2.1,1.3-5.2-1-6.3
			c-2.9-1.3-3.1-3-2.9-5.6c0.1-1.8-0.7-3.6-0.7-5.4c-0.2-4.4-2.9-8.2-2.9-12.5c0-0.6-0.3-1.3-1-1.3c-0.9-0.1-1.2,0.6-1.5,1.3
			c-1.4,3.1-2.2,6.4-2.2,9.9c0,0.9,0.6,2.3-0.6,2.5c-1.4,0.3-1.1-1.3-1.4-2.1c-0.4-1-0.4-2.3-1.4-2.9c-3.5-1.9-1.9-4.8-2.2-7.5
			c1.8,0.3,1,2.6,3,2.3c0.8-3.5,1.8-7.1,2.5-10.8c0.7-3.4,0-6.6-1.7-9.8c-3.6-6.8-5.8-14.1-10.8-20.4c-4.2-5.3-8.8-10.1-13-15.3
			c-0.8-1-2.3-2.7-4-1.8c-2.4,1.2-3.2,0-4-1.9c-0.5-1.1-1.3-2.4-2.7-1.9c-1.8,0.7-1,2.3-0.5,3.5c1.8,4.4,4.8,8.5,3.1,13.7
			c-0.1,0.4,0.4,0.9,0.5,1.3c0.9,3.1,0.6,6.8,4.1,8.8c0.4,0.2,0.2,1.4,0.5,2.1c1.4,3.5-1.1,6.6-0.8,9.9c0.3,4.2-0.9,8.2-1.7,12.2
			c-0.5,2.8,0.7,4.5,3.5,4.3c1.6-0.1,3-0.8,4.4-1.5c2.1-1.1,4.2-2.2,6.3-3.3c-3.3,4-7,6.7-12.6,6c-3-0.4-4.6,1.2-4.8,4.5
			c-0.2,6.2-0.7,12.4-1.1,18.5c-0.2,3,1.1,4.1,4.1,3.8c4.4-0.5,6.1-1.7,5.7-4.7c-0.3-2,0.3-3.5,2.2-5.5c-0.3,2.3-0.6,3.8-0.6,5.2
			c0.1,3.2,1,6.2-0.3,9.7c-0.9,2.2-2,5.1-1.1,7.8c0.8,2.3,0.7,4.5-0.1,6.7c-0.9,2.5,0.2,3,2.7,2.9c3.2-0.1,6.3-1.3,9.7-0.8
			c2.5,0.3,5-2.4,8.1-1.5c0.7,0.2,1.4-1.4,1.8-2.5c0.5-1.3,0.1-2.6,0-4C416.6,320.1,415.9,315.8,418.8,310.8z M382.4,463.7
			c1.6-2.7,7-6.6,9.7-7.4c1.5-0.4,2.4-1.2,2.6-2.6c0.1-1-0.5-1.7-1.5-1.7c-3.5,0.2-7.2,0-10.4,1.1c-5.6,1.8-5.5,2.1-9.7-2.1
			c-0.7-0.7-1.3-1.4-2-2.1c-4.7-4.5-4.7-5.8,0.2-9.9c5.1-4.3,5.3-6.9,2.4-12.5c-1.7-3.2-3.3-2.8-5.6-0.9c-2.7,2.2-5.2,4.4-8.7,5.6
			c-2.2,0.8-4.8,1.8-6.1,4.2c-2.1,3.9-5.2,7.4-5.5,12.3c-0.1,1.8-0.9,3,1.6,3.1c4.2,0.1,2.9,3.6,3.7,5.8c0.8,2.3-0.9,3.8-1.9,4.2
			c-4.3,1.3-5.5,5-7.5,8.2c-2,3.3-1.4,9.8,1.9,11.5c3.9,2.1,2.5,4.3,1,6.7c-0.8,1.3-1.8,2.3-1,4c3.1,6.5,8,11.2,14.6,14.1
			c3,1.3,8.9-0.9,10.7-3.7c2.5-3.9-1.9-4.1-3.3-5.9c-0.5-0.7-1.2-1.3-0.6-2.2c0.6-1,1.7-1.1,2.5-0.5c2.9,1.9,6,1.7,9.1,1.1
			c1.3-0.2,3.3,0.2,3.8-1.5c0.4-1.6-0.2-3.3-1.4-4.7c-0.5-0.6-2-1-1.3-1.9c2.8-3.4,2.5-9.2,7.8-10.5c-0.1,2-0.2,4.1-0.4,7
			c3.7-4.6,5.9-8.8,6.2-13.9c0-0.9-0.1-2.4,0.9-2.6c1.8-0.3,2.1-0.7,1-2.2c-0.9-1.3-2-2.5-3.5-1.4
			C388.8,464.5,385.4,462,382.4,463.7z M309.2,392.3c3.6,1.4,3.7,1.4,3.7,4.9c0,1.6,1.4,2.3,1.7,1.4c0.8-2,6.1-1.3,3.1-5.3
			c-0.2-0.3,0.4-1.3,0.9-1.9c1.8-2.1,1.9-4,0.3-6.5c-1.2-1.9-3.5-4.9,0.9-6.7c1.6-0.6,0.8-2.6,0.3-3.9c-0.5-1.5-1.2-2.7-3-2.7
			c-1.8,0.1-1.8,1.7-2.3,2.9c-1.6,3.3-2.7,6.9-5,9.9c-0.9,1.2-1.5,1.6-2.4-0.3c-2.9-5.7-3.7-11.7-1.8-17.6c1.4-4.3-0.3-6.4-3.5-8.3
			c-8.6-5.4-16.8-11.5-25.9-16.2c-1.2-0.6-2.4-1.9-3.6-0.9c-1.5,1.2-0.1,2.7,0.5,3.9c5,10.5,10.3,20.8,15.1,31.4
			c7.1,15.6,15.2,30.6,22,46.3c5.1,11.6,9.7,23.5,16.3,34.4c2.1,3.5,3.7,7.4,5.6,11c0.5,1,1.1,2.5,2.7,1.9c1.3-0.5,0.8-1.8,0.7-2.9
			c-0.6-4.9-2.8-9.9,0.3-14.8c0.2-0.3,0.1-1,0-1.4c-1.6-5.4,0.9-11.1-1.7-16.7c-1.7-3.7-1.4-8.3-2.1-12.5c-0.3-2.1-1.2-3.9-3.5-4.1
			c-3.5-0.4-4.9-2.6-5-5.6c-0.1-3.3-1.6-4.5-4.9-5c-3.4-0.5-7.2-0.9-8.6-5C309.3,398.9,308.5,395.8,309.2,392.3z M396.2,384.8
			c0.6-2.4-0.2-4.5,1.8-6.1c0.7-0.6,0.8-2.3,0.1-2.7c-1.9-1.1-1.9-2.7-2.3-4.4c-0.2-0.8-0.7-2.1-1.9-1.8c-0.9,0.2-0.8,1.4-0.9,2.2
			c-0.2,1,0.9,2.8-0.6,2.8c-3.4,0.1-4.9,3.1-6.9,4.8c-2.4,2-4.1,0.8-6.1,0.9c-2.4,0.1-4.3-0.1-5.9-2.4c-1.8-2.6-3.9-5.7-7.5-5.8
			c-6.4-0.1-13.3,6.6-12.2,13.7c0.4,2.6,1.9,5,1.4,8c-0.3,2.1,0.9,5.5,4.8,3.6c1.5-0.7,1.5,0.8,1.9,1.5c1.1,1.9,2.7,4,4.7,3.2
			c3.9-1.6,5.1,1,6.2,3.4c1.1,2.5,4.2,3.9,3.8,6.7c-0.3,2.3,0.8,3.6,1.9,5.2c0.9,1.2,2,2,3.4,1.3c1.6-0.9,1-2.3,0.3-3.5
			c-4-6.9-3.6-15-5.9-22.4c-0.5-1.7,0.3-3,1.8-4.3c2-1.8,4.9-1.7,6.5-3.1c1.6-1.5,2-0.8,3.4-0.3c3.7,1.2,2.9,4,2.8,6.6
			c-0.1,2.8,0.3,5.5,3.1,6.3c2.5,0.8,4.4,3.6,7.6,2.6c1-0.3,1.6,1,1.9,1.9c1.5,4,5.3,3.9,8.2,3.7c3-0.1,0.8-3.5,1.7-5.1
			c0.1-0.1,0-0.2,0.1-0.4c1.9-5.2,1.6-10.7,2.7-16.1c1.1-5.7-0.9-11.9-1.6-17.9c-0.1-0.8-1-1.7-1.4-1.1c-2.1,2.7-6,2-8.1,4.8
			c-0.9,1.2-1.8,3.1-4.4,2.2c-1.3-0.4-1.6,1.3-1,2.6C400.6,378.8,399.5,382.4,396.2,384.8z M426.1,148.8c0.6-3.7,1.5-7.1-2.8-9.2
			c-1.2-0.6-1.8-2.4-0.6-3.8c1.3-1.6,0.8-3.1-0.2-4.7c-0.9-1.4-2.7-3.3-2.3-4.3c2.1-5.1-1.7-5.2-4.6-5.6c-2.6-0.3-6.4-0.9-7.7,0.5
			c-3.3,3.3-5.8,7.3-10.8,8.2c-0.4,0.1-0.6,0.8-0.9,1.1c-2.6,2.5-0.7,6.3-2.7,9c-0.1,0.2,0,0.9,0.2,1c3.8,1.9,6.1,6.2,10.7,6.8
			c1.6,0.2,2.5,0.6,2.3,2.4c-0.3,2.9,1.6,2.5,3.3,2.1c2.7-0.6,5.2-1.9,8.6-2.1c-0.7,1.8-1.7,3.5,0.5,4.6c0.9,0.5,1.8,0.7,2.7,0.2
			c2.1-1.2,0.4-2.9,0.5-4.3c0-1.1-0.4-2.1,0.6-2.9C424.4,146.6,424.7,149,426.1,148.8z M398,214.5c1.6-3.8,0.5-6.4-2.7-7.1
			c-2.2-0.5-3.5-1.8-4.4-3.4c-1-1.7-2.2-2.9-3.8-3.7c-2.3-1.2-4.1-2.6-5.2-5.2c-1.4-3.3-4.3-2-6.7-1.3c-2.6,0.8-1.6,2.9-1.3,4.6
			c0.8,3.8,3.8,6.5,5.2,9.9c3,7.1,8.6,9,15.4,8.9c2.2,0,2.6,0.7,1.9,2.6c-0.4,1.1-0.5,2.3-1.1,3.4c-2.1,3.5-1.5,4,2.2,5.7
			c7,3.2,14.6,5.4,20.2,11.1c0.8,0.9,1.7,1.6,2.8,0.9c1.3-0.8,0.4-1.9,0.1-2.9c-2-7.1-6.5-13-10.1-19.2
			C407.7,213.7,402.8,212.2,398,214.5z M437.2,380c-1.2-0.1-1.5-1.9-2.7-1.4c-2.6,1.2-2.6-0.7-3.3-2.3c-1.3-2.8-1.3-5.9-2.1-8.8
			c-0.3-1.2-0.8-2.9-2.3-2.9c-1.2,0-1.2,1.6-1.6,2.6c-0.3,0.8-0.5,1.7-1.3,2.1c-0.7-0.3-0.7-1-0.9-1.5c-0.3-0.7,0.3-2-0.8-2.1
			c-1.3-0.1-1.8,1.3-2,2.3c-0.3,2.4-0.3,4.8-0.4,7.2c-0.1,1.8,0.5,2.9,2.3,3.6c2.1,0.8,4,2.3,5.6,4c1.1,1.1,0.8,3.8,0.7,3.7
			c-3.6-1.3-2.4,2.4-3.3,3.5c-1.5,1.8,1.4,7.3,3.4,7.2c5.1-0.3,10.2-1,15,1.6c1,0.6,2.4,0.3,3.3-0.9c1.2-1.7,0.3-7.4-1.1-9
			c-1-1.1-3.8-1.2-2.3-3.6c0.9-1.4,0.1-3.3,1.7-4.6c1.6-1.3,0.8-6.1-1-7.9c-2.5-2.5-5.1-0.8-7.3,0.5c-2.8,1.6-0.3,3.5,0.4,5.2
			C437.1,379,437.1,379.4,437.2,380z M399,341.6c-4.2-2.3-4.8,0.1-4.9,2.9c-0.1,2.3-0.5,4.6-0.3,6.9c0.2,2.3-0.3,5.8,4.1,4.2
			c0.3-0.1,0.8,0.3,1.2,0.6c2.7,1.8,8.6,1.4,10.5-1.1c1.6-2.2,2.4-2.5,3.5,0.2c0.4,0.9,1,1.8,2.2,1.5c0.9-0.3,1.2-1.2,1.1-2.1
			c-0.5-4.6,1.5-9.2,0.1-14c-0.7-2.2-1.4-3.4-3.8-3.5c-4.2-0.2-8.4-0.5-12.7-0.7c-1.7-0.1-3.9-0.6-4.5,1.3
			C394.6,339.9,397.7,339.4,399,341.6z M454.7,483.2c0.3-2.2-0.2-3-1-3.6c-4.7-3.9-8.4-9-13.4-12.7c-1.4-1-2.7-2.6-4.4-1.4
			c-1.8,1.2-3.3,3.3-2.6,5.2c1.6,4.4,0.4,8.2-1.5,12.1c-0.7,1.4-0.5,2.1,1.2,2.6c2.2,0.7,5.7,1.4,6.4,2.5c3.1,5.2,6,2.8,9.2,0.6
			c0.4-0.3,1-0.3,1.3-0.6C451.8,486.3,454.4,485,454.7,483.2z M384.7,370.8c1.3,0.3,2.3-0.3,3.3-1.1c3.1-2.6,1.8-6,1-8.7
			c-0.6-1.9-0.3-2.6,0.9-3.9c1.5-1.7,2.8-3.7,1-5.9c-2.4-2.9-10-1.9-11.2,1.7c-0.9,2.6-1.9,2.7-4,1.6c-2.4-1.2-3.6,0.1-3.2,2.5
			c0.5,3.6,1.3,7.1,2,10.7c0.2,0.8,0.8,1.3,1.5,1.4C378.9,369.1,381.8,370.4,384.7,370.8z M411.7,432.5c0.5,1.7,1.2,2.8,2.5,3
			c3.1,0.5,3.6,2.9,3.3,5.1c-0.3,2.2,0.4,3.5,2.1,4c3.2,0.8,4.6,3.6,6.7,5.5c5.3,5,10.3,10.3,17.1,13.2c1.6,0.7,3.6,2.5,4.8,0.7
			c1-1.6-1.5-2.9-2.4-4.4c-0.1-0.2-0.4-0.3-0.5-0.5c-5.6-5-11.2-10-16.8-14.9C423.3,439.7,418.8,434.6,411.7,432.5z M430.7,241.2
			c-1.3,8.1-3.5,15.8-5,23.7c-0.2,1.3,0.1,3.9,0.2,3.9c3.2,0.1,1.3,2.1,1.3,3.3c0,1.7-1.4,3.2-0.9,4.9c0.5,1.7,0.3,4.7,2.5,4.6
			c2,0,1.9-2.7,1.9-4.5c0-2.2,0.7-2,2.3-1c2.7,1.6,4.4,0.3,4.2-2.9c-0.1-1.6-0.6-3.1-0.6-4.7c0-4-0.4-4.4-4.3-3.6
			c-0.6,0.1-1.2,0.5-1.6-0.4c0.3-1.4,2.3-2.5,1.7-4.1c-1.3-3.7-0.2-7.4-0.2-11C432.3,246.7,431.3,244,430.7,241.2z M327.8,380.1
			c-1.7,0-5-1-4.6,3.7c0,0.4-0.5,0.8-0.7,1.2c-0.6,1.1,0.9,9.3,1.9,10c0.4,0.3,0.9,0.4,1.3,0.4c2.4,0.2,4.8,0.3,7.2,0.6
			c2.6,0.4,3.7-0.7,3.5-3.2c-0.2-2.3-0.2-4.6,0.2-6.9c0.5-3.5-1.3-5.2-4.6-5.6C330.9,380.3,329.8,380.2,327.8,380.1z M383.2,403.3
			c0.7,1.1,1.8,2.1,2,3.3c1.6,9,8.4,14.6,13.3,21.5c1.2,1.7,3.1,1.9,4.8,0.6c1.1-0.8,1.3-7.1,0.7-8.4c-1.5-3.1-4.7-4.4-7.1-6.6
			C392.7,409.8,388.7,405.7,383.2,403.3z M339,367c-0.1,1.3,0.5,1.8,1.3,2.2c4.9,2.6,8.7-0.6,12.4-2.7c3.5-1.9,2.5-7.1,6-9.4
			c0.6-0.4,0-1.4-0.4-1.9c-1.6-1.9-3.5-2.6-5.7-1c-2.1,1.5-4.3,2.6-6.6,3.7C342,359.7,341.2,364.1,339,367z M353.2,337.2
			c-0.3,2,1.9,4.6,2.4,7.7c0.1,0.9,7,0.8,7.6-0.1c0.5-0.8,0.1-1.3-0.5-1.9c-0.9-0.8-1.8-1.6-2.5-2.6c-0.8-1.2-1.8-2.9-0.5-3.9
			c1.3-1,3-0.1,4.1,1.1c0.5,0.6,1,1.4,1.2,2.2c0.2,0.7-1.2,2,0.7,2c1.1,0,1.4-1,1.6-2.1c0.7-3.5-0.1-6.6-1.5-9.7
			c-1.4-3-2.9-3.7-5.4-1.5c-1.7,1.4-2.2,1.1-3-0.7c-0.6-1.2-2.8-1.5-2.6,0C355.2,330.8,353.3,333.1,353.2,337.2z M390,337.7
			c0-0.5-0.1-1-0.1-1.5c0-2,0-4-1.5-5.5c-1.6-1.6-2.4,1-3.8,0.9c-0.6,0-1.2-0.1-1.8-0.2c-6.2-0.5-8.5,1-10,6.8
			c-0.5,1.9-0.5,4.4,0.9,5.4c1.7,1.2,2.8-1,3.7-2.4c0.3-0.5,0.8-0.9,1.3-1.3c3-2.1,5.6-1.2,6,1.8c0.1,1.1-1.2,2.6,0.5,3.2
			c1.4,0.4,2.2-1.2,3.3-1.9C390.5,341.6,390.1,339.6,390,337.7z M398.5,516.2c1.9-0.3,3.8-0.5,5.7-1c2.7-0.7,3.8-2.6,2.8-5.2
			c-1.3-3.6-2.2-7.5-4.4-10.7c-0.8-1.1-1-3.3-2.6-3.2c-1.9,0.2-1.7,2.4-2,3.8c-0.8,4.2-1,8.5-2.2,12.5
			C394.9,515.5,395.3,516.5,398.5,516.2z M374.7,308.4c0.1-0.8,0.2-1.8-0.6-2.2c-1-0.5-1.6,0.3-1.9,1.1c-0.4,1.3-1.2,0.6-1.9,0.6
			c-3.1,0.3-3.9,3.2-5.4,5.2c-1.1,1.5,0.3,2.5,1.1,3.8c1.4,2.2,2.7,4.5,3.4,6.9c0.5,1.7,1,3.7,2.6,3.8c1.5,0.2,1.7-2,2.2-3.3
			C376.1,319.1,374.7,313.7,374.7,308.4z M431.2,358.5c-0.3,2.3,1.6,4.3,0.9,6.7c-0.2,0.6,0.5,1.1,1.2,1c3.2-0.3,6.4-5.7,5-8.7
			c-2.6-5.7-4.5-11.5-1.4-17.7c0.7-1.4,0.1-2.7-1.1-3.5c-1.3-0.8-2,0.4-2.8,1c-1.5,1.3-2.3,3-2,4.8
			C431.9,347.7,433,353.1,431.2,358.5z M340.5,406.9c0,0.7,0.1,1.9,1.3,2.3c1.2,0.5,2.6,1,3.7-0.3c2.1-2.4,3.1-1.6,3.2,1.1
			c0.1,1.7,0.7,2.5,2.5,2c1.7-0.5,2.1-1.8,1.3-3.1c-0.9-1.5-1-2.9-0.8-4.5c0.2-2.1-0.8-3.9-2-5.3c-1.2-1.5-4.4-2.3-4.8-1.4
			C343.4,400.7,340.8,403,340.5,406.9z M456.7,322.1c1.7,0.1,3.4-0.4,4.4,0.7c1.1,1.2,1.7,3.1,3.8,2.7c2.3-0.5,1.4-2.8,2.3-4.1
			c0.3-0.5,0.6-1,1-1.5c1.1-1.9,1.1-3.6-1.2-4.4c-2.1-0.7-4.2-0.8-4.6,2.2c-0.1,0.9-0.1,2-1.3,1.3c-2.2-1.3-4.8,0-7-1.5
			c-0.7-0.5-1.7-0.5-2.3,0.2c-1,1.1-0.8,2.5-0.5,3.8c0.3,1,1.1,1.2,2,1.1C454.6,322.3,455.8,322.2,456.7,322.1z M436,288.6
			c-0.2-2.3-0.5-5.3-0.8-8.3c-0.1-1-0.4-2-1.6-2.1c-1-0.1-1.5,0.6-1.9,1.4c-2.4,5.3-2.3,10.5,0.2,15.7c0.4,0.8,0.7,1.6,1.8,1.5
			c1-0.1,1.2-1,1.5-1.8C435.9,293.3,435.8,291.3,436,288.6z M417,248.3c-1.4-2.6,0.5-7.1-4.2-8.6c-0.4-0.1-0.7-0.9-1-1.5
			c-1.3-2.6-4.4-1.6-6.3-3c-0.4-0.3-1.1,0.4-1.1,1.1c0.1,2.3,0.8,5.1,2.8,5.5c4.4,0.9,5.2,4.7,7.3,7.5c0.5,0.7,0.5,1.8,1.7,1.5
			C417.3,250.6,417,249.6,417,248.3z M384.5,318.5c0.4,2,0.7,4,1.1,6.1c0.3,1.5,1.1,1.7,2.3,0.8c2.6-1.9,4.9-8.2,4-11.4
			c-0.3-1-0.9-1.6-2.1-1.5C385.7,312.6,384.6,313.9,384.5,318.5z M345.2,433.4c1.8,3,3.2,2,5-0.1c1.3-1.5,1.8-3.1,2.4-4.8
			c0.4-1,0.1-2-0.7-2.6c-0.9-0.7-1.8-0.3-2.7,0.1c-2.8,1.5-4.7,4-6.9,6.2c-1.4,1.4-0.8,3.4,0.5,5c0.5,0.6,1.1,1.1,1.9,0.7
			C346.6,436.8,344.2,435.3,345.2,433.4z M422.9,240.6c0.2,1.2,0.3,2.1,0.5,3.1c0.1,0.6,0.6,1.1,1.2,1.1c0.7,0,1.3-0.5,1.2-1.1
			c-0.1-3.2,1.9-5.9,2.5-8.9c0.4-2.5-0.4-4.8-2.4-6.5c-0.7-0.6-1.4-1.5-2.5-1c-1.1,0.6-1.5,1.7-1.1,2.8
			C423.6,233.6,424.1,237.2,422.9,240.6z M464.7,479.1c-0.1-0.4-0.1-0.8-0.3-1.1c-3.7-3.6-7.5-7.2-11.3-10.7
			c-0.7-0.6-1.6-0.3-2.3,0.4c-0.8,0.8-0.8,1.9-0.1,2.6c3.5,3.4,6.9,6.7,10.6,9.9C462.6,481.3,464.1,480.9,464.7,479.1z M314.4,579.2
			c0.1,0.2,0.2,0.6,0.5,0.8c0.6,0.7,7.6,1.1,8.3,0.5c1.8-1.6,3.6-3.2,5.4-4.8c0.6-0.5,1.1-1.1,0.6-1.9c-0.5-0.7-1.3-0.5-1.9-0.2
			c-3.3,1.9-7,2.7-10.6,3.6C315.6,577.6,314.7,578,314.4,579.2z M286.3,605.9c-0.6-1.4-1-3.3-2.2-4.5c-1.2-1.2-3.1-2.4-4.9-1.3
			c-1.8,1.2-0.5,2.8,0,4.2c0.5,1.2,1.1,2.4,1.8,3.5c0.6,1.1,1.2,2.7,2.9,2.1C285.6,609.4,286,607.8,286.3,605.9z M304,584.1
			c1.7,2.4,3.3,4.6,4.7,6.9c1.4,2.4,3.7,3,6.1,3.4c0.8,0.2,1.8,0.3,2.3-0.6c0.6-1.2-0.3-1.9-1.1-2.4
			C312.2,589,309.4,584.9,304,584.1z M496.4,319c1.2-0.5,2.5-1.3,2.5-2.7c0-2.1-0.2-4.3-0.9-6.2c-0.6-1.6-2.1-3.1-4.3-2.2
			c-1.4,0.6-0.9,2-0.6,3.2c0.8,2.7,0.4,5.8,2.8,7.9C496,319,496.2,319,496.4,319z M397.1,442.5c-3.7,0.4-7.2,1.2-9.2,4.8
			c-0.5,0.8-1.1,1.8-0.2,2.6c0.9,0.8,1.8,0.3,2.5-0.5c1.3-1.5,2.9-2,4.8-2.3c1.3-0.2,2.6-0.7,3.5-1.8c0.5-0.6,0.7-1.3,0.4-2
			C398.5,442.5,397.8,442.3,397.1,442.5z M424.9,350.2c0.1,0.6-0.4,2,0.9,2.7c1.3,0.7,2.4,0,3.3-0.8c1.2-1,0.8-2.2,0.1-3.2
			c-1-1.4,0-2.5,0.3-3.7c0.6-1.9-0.6-2.6-2.1-3c-1.9-0.5-2,0.9-2.1,2.1C425.2,346,425.1,347.8,424.9,350.2z M434.7,500.8
			c2.7,0.2,4.9-1.4,6.3-4.1c0.4-0.9,0.5-2.2-1.1-1.7c-1.8,0.6-3.6,0.4-5.4,0.6c-1.9,0.3-2.9,1.8-2.9,3.6
			C431.6,501,433,500.9,434.7,500.8z M283.4,594.5c0.4,0.9,0.8,1.9,1.4,2.8c0.9,1.6,2.2,3,4.2,3c1.1,0,1.7-0.8,1.8-1.9
			c0.2-2.2-0.9-3.6-2.9-4.6c-0.8-0.4-1.4-0.9-2.2-1.2C284,592,283.6,593,283.4,594.5z M371.1,288.3c1.1-2.9-0.5-4.5-2.1-6.2
			c-1.1-1.1-2.3-0.9-3.2,0.1c-1.2,1.3-2.2,2.8-1.4,4.6c0.6,1.3,2,1.7,3,0.8C369.1,286.3,370,287.9,371.1,288.3z M322.9,656.6
			c-0.5-1.4-1.2-2.6-2.3-1.7c-0.8,0.7-2.4,0.8-2.4,2.4c0,1.5-0.4,1.9-1.5,0.5c-0.4-0.5-1.1-0.6-1.6-0.2c-0.4,0.3-0.6,0.9-0.2,1.3
			c1.3,1.2,2.5,2.6,4.1,3.3c1.5,0.7,3.5,0.2,3.6-1.8C322.5,659,320,657.5,322.9,656.6z M504.8,317c-0.5-1.7-0.8-3.2-1.3-4.6
			c-0.4-1.2-1.3-2.2-2.7-1.4c-1.2,0.7-0.9,1.9-0.2,2.8c0.8,0.9,1.3,1.8,1.3,3.1c0,1.6-0.6,4.4,1.7,4.3
			C505.1,321.2,503.8,318.2,504.8,317z M450.4,308.2c1.5,0,3.4,0.2,3.3-1.8c-0.1-2.4-2.5-2.8-4.3-3.1c-1.6-0.2-3,0.9-3.1,2.5
			C446.3,308.7,448.9,307.7,450.4,308.2z M376.9,296.8c0-0.6,0-1,0-1.4c-0.2-1.2,0.3-3.1-1.5-3.1c-1.5-0.1-1.4,1.7-1.7,2.8
			c-0.1,0.3-0.2,0.7-0.1,1.1c0.3,1.9-0.4,5.1,1.7,5.2C377.5,301.5,376.3,298.3,376.9,296.8z M368.3,538c1.6-0.2,5.7-7.6,4.9-8.8
			c-0.8-1.1-1.4-0.5-1.9,0.3c-1.2,2.2-2.4,4.4-3.5,6.7C367.4,536.8,367,537.8,368.3,538z M508.6,315.7c-1.7,0.2-1.6,1.5-1.7,2.5
			c-0.1,1.8,0.4,3.5,2.4,4c1,0.3,2.1-0.4,1.9-1.6C510.9,318.7,510.3,316.8,508.6,315.7z M360.7,213.6c-0.8-2.3-2.9-2.4-4.9-2.9
			c-0.8-0.2-2.2,0-1.9,0.9c0.8,2.1,3,2.9,5,3.6C359.8,215.5,360.6,214.8,360.7,213.6z M309.9,366.1c0.8,1.8,1.4,3.2,2,4.6
			c0.3,0.6,0.7,1.4,1.6,1.2c0.8-0.1,1.1-0.9,1.4-1.5C315.8,367.9,314.4,366.6,309.9,366.1z M287.5,586.4c0.6,2.8,2.7,3.6,4.1,5
			c0.6,0.5,1.3,0.6,2,0c0.8-0.8,0.4-1.6-0.3-2.2C291.8,587.7,290,586.9,287.5,586.4z M303.1,349.6c-1.1,0-2.2,0.2-1.9,1.3
			c0.6,2.2,2.8,1.8,4.5,2.3c0.6,0.2,1.9,0.2,1.7-0.6C306.9,350.2,304.6,350.4,303.1,349.6z M350.2,264.9c0-1-0.3-1.8-1.4-1.5
			c-1.7,0.5-2.4,1.9-2.5,3.6c-0.1,0.8,0.3,1.6,1.2,1.3C349.2,267.9,350.1,266.7,350.2,264.9z M419.1,332.9c1.6-2.2,2.2-4.2,2.5-6.3
			c0.1-0.6,0-1.2-0.7-1.5c-0.7-0.3-1.2,0.2-1.3,0.8C419,328,418.2,330.1,419.1,332.9z M369.7,510.7c1.1-0.1,2.4,0.1,2.5-1.6
			c0.1-1.1-0.7-1.9-1.8-1.7c-1.2,0.2-3,0-3.2,1.6C367.1,510.4,368.6,510.4,369.7,510.7z M360.8,207.8c-0.7,0.2-2.2-0.2-1.9,1.3
			c0.3,1.4,1.6,2.1,3,2.2c1,0,2-0.6,2-1.7C363.9,207.7,362.1,208.1,360.8,207.8z M368.1,521.8c-0.3-1-1.1-1.4-2.2-1.2
			c-1,0.2-2.4,0.2-2.5,1.6c-0.1,1.5,1.3,1.5,2.3,1.5C366.8,523.6,367.8,523.3,368.1,521.8z M432.2,323.9c-0.1-1.1-0.7-2-1.8-1.8
			c-1.3,0.2-1.5,1.4-1.6,2.5c-0.1,1.1,0.4,2.1,1.6,2C431.7,326.4,432.1,325.1,432.2,323.9z M497.1,343.6c1.3,3.3,3.5,5.1,6.5,4.6
			C500.9,346.9,499.7,344.5,497.1,343.6z M293.4,583.3c-0.9-0.1-1.3,0.2-1.2,1c0.2,1.5,1.4,2.3,2.6,2.6c1.1,0.3,1.6-0.6,1.5-1.5
			C296.1,583.8,294.4,583.9,293.4,583.3z M387.2,257.3c-1.3,0.4-2.4,1.1-2.5,2.6c0,0.8,0.4,1.5,1.3,1.4c1.6-0.2,1.9-1.6,2.2-2.8
			C388.3,257.8,387.9,257.4,387.2,257.3z"/>
		<path d="M320,526.2c-1.7-6,3.2-9.2,5.7-13.6c1-1.7,1.9-2.3,3.7-1.1c1.5,1,3.5,0.7,5.4,1.1c-0.6,1.6-2.1,2.3-2.9,2.9
			c-2.2,1.8-3.8,2.7-0.2,4.6c0.9,0.5,0.6,1.8-0.2,2.6c-1.1,1-1.7,0.3-2.2-0.7c-0.4-0.9-0.6-2.1-1.9-1.7c-1.3,0.4-0.6,1.6-0.6,2.5
			c-0.1,1.1-0.1,2.2-0.4,3.2c-0.5,1.6-1.3,3.4-2.9,0.7C322.1,524.7,320.8,525.6,320,526.2z"/>
		<path d="M464.1,509.9c1.1,1,0.7,2.3,1.2,3.2c1.2,2.1,1.2,3.3-1.7,3.2c-2.2-0.1-3.1,1.5-3.6,3.5c-0.3,1.6-1,3-2.6,3.7
			c-0.7,0.3-1.1,0.7-1.7-0.3c-2.7-4.2-5.9-4.9-10.1-2.5c-0.9,0.5-1.8,1.3-3.7,0.8c1.9-2.3,3.4-4.6,6.3-4.8c2.8-0.2,5.1-1.1,7.5-2.4
			c1.3-0.7,2.5-1.4,4.3-0.7C463.2,514.9,462.3,511,464.1,509.9z"/>
		<path d="M309.8,229.6c-1.7-4.9,0.5-8.2,3.4-11.3c3.3-3.5,7.2-5.7,12-5.9c0.7,0,1.6-0.4,2,0.4c0.4,0.9-0.3,1.7-1.1,2
			c-4.8,1.5-6.9,5.6-9.6,9.2C314.7,226.3,312.4,228,309.8,229.6z"/>
		<path d="M463.5,572.6c-0.2-0.2-0.4-0.3-0.4-0.5c-0.3-3.4-0.7-6.6-1.8-10c-1.3-4.2-3.1-9.6,1.1-14c1-1,0.1-1.7-1.1-1.9
			c-2-0.3-2.7-1.7-1.4-3.1c1.9-2.1,2-4.6,2.3-7.1c0.2-1.3,0.3-3.1,2.1-2.7c1.4,0.3,0.8,1.8,0.6,2.8c-2.2,11.5-1.6,23.1-1,34.7
			C463.9,571.5,464.2,572.2,463.5,572.6z"/>
		<path d="M293.3,295.3c-0.5-3.9-0.8-7.7,0.8-11.4c0.4-0.8,0.3-2.2,1.7-1.8c2.9,0.7,5.1-0.3,7.5-2c1.4-1.1,3.8-1.9,5.6,0.1
			c1.1,1.2,2.9-0.1,4.8,1.4c-4.2,0.7-7.7,2-11.2,2.9c-1.8,0.5-3.4,1.2-4.9,2.2c-0.8,0.6-1.6,1.3-1.3,2.4c0.3,1.3,1.5,0.8,2.4,0.8
			c0.7,0,1.4,0,2.8,0C298.7,292.5,294.4,291.6,293.3,295.3C293.2,295.3,293.3,295.3,293.3,295.3z"/>
		<path d="M444.2,633.1c-3.9-0.3-7.5,0.9-11.7,0.1c2.4-2.8,5.7-2.7,8.3-3.6c2-0.7,4.5,0,6.8,0.2c1.2,0.1,2,0.7,2.5,1.8
			c0.5,1.3-0.2,2.1-1,2.9c-2.8,2.8-6.7,3.3-10.1,4.7c-0.6,0.3-1.4-0.1-1.3-0.8c0.1-1.4,0.7-2.6,2.2-3
			C441.3,635,443.1,635.3,444.2,633.1z"/>
		<path d="M340.8,517.8c3.1-1.7,5.8-1.3,8.2,0c2.1,1.1,1.9,3.2,1.1,5.1c-0.4,0.9-1.5,1.3-2.5,1.2c-1.1-0.1-1.2-0.9-1.1-1.9
			c0.2-1.5-0.6-2.2-2-2.5C343.4,519.6,342.2,519.1,340.8,517.8z"/>
		<path d="M334.3,534.4c0.4,1.5-0.6,2.3-1.8,3.1c-1.5,1-2.2,0.3-1.9-1.1c0.6-2.7,0.3-4.9-2.1-6.7c-0.8-0.6-0.8-1.8,0.1-2.5
			c0.8-0.7,1.7-0.2,2.1,0.6C331.9,530,334.4,531.4,334.3,534.4z"/>
		<path d="M308.1,537.5c0.9-4.5,3.8-7.7,6.6-11c0.5-0.6,1.2-0.9,1.9-0.4c0.6,0.4,0.8,1.1,0.2,1.5
			C313.2,530.3,311.2,534.3,308.1,537.5z"/>
		<path d="M440,569.1c1.2,2.7,0.4,5.6,0.3,8.3c0,1.3-1.9,1.7-3.2,1.9c-0.5,0.1-0.9-0.2-1-0.8c-0.2-1.2,0.3-1.9,1.3-2.7
			C439.5,574.2,439.8,571.7,440,569.1z"/>
		<path d="M451,529.9c-1.6,3.4-3.2,6.9-4.9,10.3c-0.3-0.1-0.6-0.3-0.9-0.4c2.5-3.1,0.7-8,4.8-10.5
			C450.4,529.6,450.7,529.8,451,529.9z"/>
		<path d="M434.1,646.3c3.3-1.1,6.6-2.2,10.2-2.6C442.4,645.8,442.4,645.8,434.1,646.3z"/>
		<path d="M400.9,310.1c3.9-0.5,5.3-3.1,7.4-4.8C409.5,309.9,407.5,311.4,400.9,310.1z"/>
		<path d="M409.6,290.9c-0.6,2.2,4,2.3,2.2,4.9c-0.3,0.4-1.6,0.8-1.9,0.5C408.1,294.7,409.3,292.8,409.6,290.9z"/>
		<path d="M406.8,262c1.7,1.1,2.1,2.4,1.7,3.8c-0.2,0.6-1.1,0.4-1.6,0.1C405.3,264.6,406.4,263.5,406.8,262z"/>
	</g>
</g>
<g id="text">
</g>
<g id="guides" display="none">
</g>
<g id="scratch" display="none">
</g>
</svg>
