<?xml version="1.0" encoding="utf-8"?>
<!-- Generator: Adobe Illustrator 26.0.2, SVG Export Plug-In . SVG Version: 6.00 Build 0)  -->
<svg version="1.2" baseProfile="tiny" xmlns="http://www.w3.org/2000/svg" xmlns:xlink="http://www.w3.org/1999/xlink" x="0px"
	 y="0px" viewBox="0 0 800 800" overflow="visible" xml:space="preserve">
<g id="fill">
</g>
<g id="bg" display="none">
	<rect x="-1100" y="-100" display="inline" fill="#B5BD00" width="7000" height="2059"/>
</g>
<g id="counters_00000155831629897369998050000010902328751353074356_">
	<g>
		<path d="M261.8,215.7c3.3,0.8,5.7,2.2,7.9,3.9c1.5,1.2,3.1,2.3,0.2,4.3c-2.4,1.7,1.3,3.1,1.2,5.4c-1,12.4,2.6,24,7.8,35.1
			c4.9,10.4,6,10.9,16,6.3c1-0.4,2.2-0.3,3.1-0.8c9.8-6.7,21.8-8.7,31.9-14.5c9.6-5.5,20.3-7.7,29.9-12.7c3-1.5,6.7-2.1,7.1-6.5
			c0.1-1.2,1.2-1.7,2.4-1.7c3.7,0.1,7.2-0.6,10.5-2.5c1-0.6,2.7-0.7,3.2,1c0.4,1.3-0.5,2.1-1.5,2.5c-4.1,1.7-6.7,5.4-11.3,7.1
			c-5.6,2-7.1,8.3-7.6,14c-0.1,1.7-2,5.6,3,6c1.3,0.1,2.6,3.2,3.5,5.1c3.5,7.7,8.4,14.6,13.5,21.4c1.1,1.4,4,2.4,1.2,4.3
			c-1.6,1-3.6,1.1-5.2-1.7c-4.7-8.3-8.8-17.1-16.4-23.5c-1.8-1.5-2.7-4.2-5.5-3.9c-3.3,0.4-2.4,3.5-3.1,5.6
			c-2.8,7.8-4.1,15.9-4.4,24.1c-0.1,2.9-1.7,3.8-3.6,4.6c-1.7,0.8-3.4,0.3-4.4-1.5c-1.2-2.1-0.5-4,1.2-5.1c2.9-1.9,2.7-4.6,2.6-7.3
			c-0.3-7.1,4.8-12.5,5.3-19.5c0.3-3.7-0.7-4.2-3.4-4.2c-4.9,0-9.5,1.2-11.8,6.1c-1.5,3.2-4.6,3.6-6.9,5.5
			c-6.1,5-10.9,11.2-16.1,17.1c-2.1,2.4,0.4,4.8,0.1,7.3c-0.3,3.4-6.7,13.2-9.9,14.2c-2.2,0.7-3.3-0.3-3.5-2.4
			c-0.5-3.9-2.3-7.6-6.3-7.8c-3.9-0.2-7.4,0.7-10.6,4.9c-3.6,4.6-7.5,10.4-14.3,11.9c-2,0.4-2.4,1.5-1.6,4.2
			c1.6,5.7,4,10.9,7.4,15.6c1.1,1.6,0.9,3.3,1.3,4.9c0.4,1.6,0.3,3.2-1.8,3.4c-1.9,0.2-2.2-1.3-2.7-2.9c-1-3.2,0-9.1-6.7-5.8
			c-1,0.5-2.2,1.2-1.5,2.4c4.3,7.4,4.5,15.8,5.6,23.9c0.6,4,4.7,3.4,5.8,6.3c1.9,5.3,4,2.1,6.5,0.3c1.8-1.3,2.5,0,2.6,1.9
			c0.9,11.6,2,23.1,2.8,34.7c0.2,2.5,1.8,4.3,2.7,6.3c2.6,6.1-1.6,10.4-3.1,15.2c-2,6.4,2.1,8.4,6.1,10.7c5.7,3.3,12.1,4.3,18.4,5.5
			c5.5,1,8.3,5.3,5.4,9.9c-3,4.8-6.5,9.8-13.1,9.9c-10.6,0.1-20.6,4-31.1,4c-4.1,0-8.2,1.4-8.1-7.2c0.1-8.3,2-17-0.3-25.4
			c-0.8-2.7-2.1-5.6-4.2-6.5c-7.4-3.1-6-8.4-5.2-14.4c0.6-4.4-0.7-9-2.1-13.3c-2.4-7.3-1.3-15.1-2.8-22.6c-1.3-6.3-5.3-11-6.6-17.1
			c-0.9-4-8.8-3.6-10.8,0.9c-5,11.6-13.6,20.5-21.3,30c-1.6,2-2.9,4.3-3.8,6.7c-3.5,9.2-8.1,17.3-17.4,22.1
			c-5.9,3-9.3,13.3-8.7,19.9c0.5,5.4,5.3,5.5,8.2,7.7c2.8,2.2,5.1,4.6,6.5,7.6c2.6,5.7-1.1,10.4-7.3,10.8
			c-10.2,0.7-19.2-0.4-24.7-10.8c-1.1-2.1-4.5-1.3-6.5-2.3c-5.2-2.9-11.9-3.9-13.8-11.4c-0.5-2.2-0.3-3.2,0.5-5
			c3.3-7.2,10.1-11.5,14.3-18c3.7-5.8,6-11.5,4.7-18.6c-0.8-4.3,1.2-9.1,4.2-11.6c5.4-4.5,7.6-11,10.3-16.5c4-8,10.4-13.3,15.7-19.7
			c3.3-4,4.7-8.4,6.3-13.4c2.1-6.7-2-13.3,1.9-19.6c2.4-4-4.2-5.6-4.5-9.6c-0.1-1.4-2.3-2.9-1.4-4.6c3.4-6.2,1.2-12.6,0.7-18.8
			c-0.5-6.7,1.5-11.5,6.8-14.7c4.8-2.9,5.1-8.3,5.3-12.1c0.1-3-4.3-7.4-7.8-9c-2-0.9-5.5,3-7.4,6c-5.7,9.3-11.6,18.6-17.6,27.8
			c-0.7,1.1-1.1,3.3-3.1,2.6c-2.3-0.8-1.4-2.8-0.9-4.4c0.5-1.6,0.6-3.6,1.6-4.8c8.7-11.1,15.1-23.7,22.9-35.4
			c1.6-2.4,2.4-4.6,2.8-7.5c1.2-8.6,4.9-16,9.5-23.7c7.6-12.6,18.3-13.1,30.3-12.8c2.8,0.1,6.7,1.6,8.1-1.9c1.2-3-1.7-4.8-4.3-6.2
			c-1.7-0.9-2.3-3.4-1.2-4.5c2.5-2.6,1.3-5.7,0.9-8c-1.4-7.3,2.6-12.9,5.1-18.8c1.5-3.7,15.7-6.8,21-5.8
			c10.7,1.9,16.3,9.2,19.4,18.7c0.6,1.8,1.2,3.4,2.3,5.1c1,1.6,2.3,4.5,1,5.4c-6.8,5.1-2.7,14-7.7,20c-2.8,3.4-4.2,7.5-8.2,10.7
			C268.7,217.4,265.4,212.2,261.8,215.7z M167.2,398.2c0.2,1.7-0.6,3.7,1.6,4.5c3.9,1.6,8,2.3,11.8,0.1c2-1.2,3-2.7,4.9,0.2
			c1.2,1.8,3.5,1.5,5.2,0.3c0.8-0.5,1.1-1.7,1.6-2.6c-4.4-2.2-6.5-5.8-6.9-10.6c0-0.3-1.9-0.7-3-0.7c-3-0.2-3.4-1.6-1.7-3.7
			c4.1-5,5.9-12.9,15.1-11.9c1.8,0.2,3.8-1.8,5.7-2.8c1.4-0.7,2.7-1.7,2.2-3.5c-0.6-1.9-2.7-3.3-4-2.3c-5.4,4-16.7-2-17.2,10.3
			c-0.1,1.6-2,3.4-3.5,4.5c-5.4,4-6.9,10.7-11.2,15.4C167.1,396.1,166.9,397.1,167.2,398.2z M217.7,244.1c1.3,1.9,4,1.2,5.7,2.6
			c5.7,4.7,5,4.1,8.4-1.7c4.7-8.1,7.7-17.7,16.7-22.7c1.8-1,5-1.4,3.9-3.9c-1-2.2-3-4.5-6.3-4.7c-3.4-0.2-6.1,0.1-8.6,2.9
			c-3.7,4.2-6.8,9.1-12.1,11.8c-0.7,0.3-1.8,0.9-1.2,1.9C228.5,238,220.6,239.8,217.7,244.1z M221.1,308.3c1.7,1.9,2.9,4.3,4.9,5.2
			c1.8,0.8,5.1,1.9,6.4-0.7c2.5-4.9,5.8-3.7,9.5-2.3c1.1,0.4,2.5,2.8,3.7,0.5c0.7-1.4-0.2-2.9-2-3.3c-1-0.3-2.6-0.6-2.8-1.3
			c-1.5-4.3-4.1-4-8-3.2c-3.3,0.7-6.7,0.8-9.6,3C222.4,306.6,222,307.3,221.1,308.3z M266.2,297.7c-2.8-1.3-5-0.4-6.5,2.2
			c-1.2,2.2,0.4,3.8,1.6,5.1c2.2,2.4,5.8,2.7,7.5,0.8c2-2.2,6.5-3.8,5.5-7.2c-0.8-2.6-4.4-1.7-6.9-0.7
			C267.2,298.1,266.7,297.8,266.2,297.7z M234.4,268.8c-1.5,1.6-3.5,2.4-5,3.8c-1.8,1.7,1.3,2.6,1.7,4.1c1.1,3.7,6.3,1.2,7.5,5
			c0.7,2.4,2.6,3.2,4.4,1.9c1.9-1.3,0.3-3-0.5-4.5c-1.1-1.9-1.9-3.9-3.2-5.5C238.1,271.8,236.2,270.5,234.4,268.8z M275.4,191.2
			c-2.3,0.5-6.1-1.2-6.1,3.3c0,2.8,1.3,6,4.6,5.8c3.3-0.2,5.8-2.7,6.2-6.3C280.5,190.6,277.4,191.7,275.4,191.2z M223.4,264.4
			c-3-4.4-4.9-8.3-9.4-7c-3.3,0.9-3.2,5.6-2.2,7.1C215.1,269.3,218.5,263.3,223.4,264.4z M254.3,199.5c3.1,2.1,5.5,3.8,8,5.4
			c1.8,1.1,3.8,1.3,5-0.8c1.2-2.2-0.2-4-1.9-4.8C262.1,197.7,258.6,196.8,254.3,199.5z M278.3,413.6c-1.4-3.2-3.5-5.3-6.5-5.2
			c-2.5,0.1-4.3,1.7-3.7,4.8c0.5,2.4,0.8,5,4.2,4.2C274.8,416.7,277,415.6,278.3,413.6z M204.4,362.4c2.3-0.6,2.6-2.9,2.9-4.8
			c0.3-1.6-1-2.9-2.8-2.6c-2,0.4-3.6,2-3.4,3.9C201.2,360.2,201.9,362.3,204.4,362.4z"/>
		<path d="M589,277.7c-5.1-7.6-6.5-7.3-15.3-1.3c-7.1,4.9-13.3,10.6-18.7,17c-3.3,4-7.5,8-5.7,14.7c1.1,4.2-5.3,12-9.7,12.7
			c-3,0.5-4.7-1.5-6.2-4.1c-4.5-8.3-4.1-7.5-11.6-2.1c-5,3.7-9.2,8.4-14.5,11.6c-4.1,2.4-3.8,5.7-2.8,10c1.4,6.4,6.7,11.6,5.4,19.1
			c-1.9-2.3-3.5-4.3-4.2-6.8c-0.8-2.7-2.9-2.9-5.2-1.9c-2.8,1.3-1.5,2.5-0.4,4.7c1.4,2.8,3.7,6.4,0.4,9.8c-0.2,0.2-0.4,1-0.3,1.1
			c4.1,4,5.7,8.6,3.3,14.2c3.3,1,5.2,3.3,7.6,5.8c3.6,3.7,4.3-2.4,6.6-4.7c3.5,7.1,0.7,14.1,3,20.5c2.9,8.2-2.7,17.5,3.6,25.6
			c2.3,3,2.1,6.7-1.7,11c-4.8,5.5,3.4,17.8,11.4,18.7c3.6,0.4,7.3,0.5,10.8,1.3c2.5,0.6,6.2-0.4,6.9,3.3c0.7,3.9,1.9,7.4-2.3,11.3
			c-4.4,4-8.6,7-14.5,6.9c-8.5-0.2-16.6,1.9-24.7,3.8c-3.6,0.9-6.4-1-9.3-2.1c-4-1.5-1.2-4.9-1.1-7.7c0.1-7.1,0-14.1,0.4-21.2
			c0.2-2.8-1-9-6.2-10.8c-4.4-1.5-5.3-5.2-5.2-9.2c0.1-17.1-1.6-34-8-50c-0.6-1.6-1.4-3.2-2.3-4.6c-5.2-7.6-4.7-7.1-10.4-0.1
			c-6.2,7.7-9.3,17.2-17.7,23.9c-4.2,3.3-7.2,10.5-9.5,16.8c-2.8,7.4-9.2,12.9-15.9,17.2c-3.3,2.1-6.1,3.8-6.1,8
			c0,0.6,0.1,1.4-0.1,1.9c-4.3,8.4-2.9,13.1,5.9,19.4c4.1,2.9,8.2,5.3,7.2,12c-0.5,3.7-1.8,4.9-4.6,4.9c-5.6-0.1-11.2-0.6-16.7-1.2
			c-2.3-0.3-5.5-1.2-6.1-3.2c-2-6.9-8.2-6.9-13.2-8.9c-4-1.7-7.9-3.3-10.2-7.2c-2.5-4.3-0.9-13.3,4.6-18.2c7.1-6.2,9.5-15.6,16.1-22
			c0.2-0.2,0.3-0.9,0.1-1.1c-6.8-6.7-0.6-11.9,2.2-17.2c2.1-4.1,6.4-7.3,7.6-11.5c2-7.3,8.1-11.4,11.5-17.4c0.8-1.3,1.3-2.8,2.7-3.4
			c5.9-2.7,7.2-8.4,8-13.9c0.7-4.7,3.3-10.3,2.5-13.6c-1.3-5.2,4.6-11-2.3-15.6c-5.9-3.9-0.7-10.6-1.9-15.9
			c-0.9-3.9,0.4-8.3-0.2-12.6c-1-7.6,5.9-11.4,9.4-16.6c2.8-4,2.8-7.3,1.7-11.3c-1.2-4.4-6-3.5-8.9-5.5c-1.3-0.9-3.5,1.4-4.5,3
			c-2.6,4-5.8,7.8-7,12.2c-2,7.1-7.7,11.7-10.7,18c-0.7,1.5-2.3,3.1-4.1,2.3c-2.3-1.1-1.5-3.4-0.4-5c4.9-7,10.3-14.2,13.7-21.7
			c4.6-10.3,13.8-18.4,13.7-31.4c0-7.1,6.5-13.5,11.1-19.5c7.1-9.2,16.9-9.7,27.3-7.9c3.7,0.6,6.5-1.1,8.2-4.1
			c1.9-3.4-1.5-3.7-3.4-4.8c-1.2-0.6-1.3-2-1-2.8c2.5-7.4-0.1-15,0.9-22.4c0.1-0.6,0.2-1.3,0.5-1.9c4.3-10.3,22.1-16,31.2-9.8
			c4.4,3,8.1,6.9,10.2,12c1.8,4.4,3.5,8.8,5.2,13.2c0.7,1.6,1.4,3.4,0.1,4.9c-5.5,6.5-6.1,14.8-8.9,22.4c-1.3,3.6-6.7,3-8,7.2
			c-0.3,1-2,1.9-1.7,3.2c2.7,11.8-0.4,24.3,4.4,35.9c2.1,5.1,3.9,10.5,6.6,15.3c2.4,4.4,6,5.7,11.4,3.1c9.6-4.6,18.5-11,29.4-12.5
			c2.8-0.4,4.7-2.4,6.5-3.8c9-6.5,20.8-6.2,29.7-12.5c3.5-2.5,9.1-2.9,10.2-8.5c0.3-1.3,14-2.6,14.7-1.4c1.7,2.8-1.3,2.8-2.5,3.2
			c-7,2-11.5,6-15.2,12.5c-3.2,5.6-1.4,9.8,1.3,13.5c5.3,7.2,8.9,15.4,13.6,22.9c0.7,1.1,1.4,2.2,2.3,3.1c1.3,1.1,3.2,1.8,2.3,4
			c-0.5,1.3-1.7,1.9-3.1,2c-2.6,0.2-2.2-1.9-2.8-3.4c-4-8.9-10.1-16.4-16.1-24c-2.6-3.3-6.5-5-10.1-0.7L589,277.7z M419.5,388.2
			c-6.5,5.3-9.9,13.2-15.7,19.1c-0.8,0.8-0.9,1.9-0.3,2.9c2.7,4.6,9,6.1,13.5,3.3c3.7-2.3,4.2-2.2,7.1,1.6c0.7,1,2,1.4,2.7,0.5
			c1.2-1.5,2.5-3.2,2.8-4.9c0.4-2.1-1.9-1.7-3.2-2.1c-1-0.3-2.7-0.9-2.2-1.9c2.7-5.1-2-4.8-4.3-6.1c-1.8-0.9-4.3-2.2-2.2-3.9
			c3.7-2.8,1.2-5.9,1.6-8.8c3.1,1.9,6.9,0.1,8.3-1.3c4.6-4.9,10.4-4.2,16-4.9c0.8-0.1,1.8-0.1,2-1.8c-10-1.1-3.5-5.6-1.7-9.2
			c0.6-1.2,2.7-2.3,0.9-3.7c-1.7-1.3-3.8-2-6-1.1c-1.5,0.6-2.2,1.8-1.6,3.7c2.1,6.5-3.9,9.3-7,8.8
			C421.5,377.1,420.6,382.2,419.5,388.2z M455.8,263.8c4.4,0.4,6.3,0,8.5-1.4c6.5-4,5.3-12,10-17.1c3.5-3.8,5.5-9,11.2-10.5
			c1.7-0.4,3.7-1,3.9-2.8c0.2-1.9-0.9-3.7-2.8-4.7c-1.7-0.9-3.2-2.3-4.8-3.2c-2.6-1.5-4.4-1.8-5.8,1.9c-1.2,3.4-3.6,5.7-7.7,7.1
			c-7.2,2.4-7.8,4.8-5.4,11.9c0.3,0.9,0.8,2.7-0.3,2.9c-5.1,0.9-4.6,6-8,8.8c2.7,1,4.6,1.8,6.8,2.6
			C459.7,260.5,458.4,261.6,455.8,263.8z M470.6,280.5c-3.5-0.8-4.2,2.6-5.9,4.6c-1.6,1.8,1,2.3,1.5,2.5c3.8,1.5,7.1,3.7,10.1,6.5
			c1.3,1.2,3.2,0.9,3.9-0.5c0.6-1.2,1.8-2.9-0.6-4.2c-2.7-1.5-4.3-4.2-5.5-7C473.5,280.7,472.8,279.6,470.6,280.5z M511.5,308.9
			c-3.4-2.4-7.2-1.5-11-1.2c-2.6,0.2-3.4,1.7-3.4,3.8c-0.1,2.6-0.3,5.3,2.7,6.7c1.8,0.8,3.7,1.1,5.4-0.6
			C507.8,315.1,509.9,312.2,511.5,308.9z M476.5,318.1c-0.5-1.2-0.3-2.8-1.6-2.8c-4.6,0.2-9.5-0.9-13.7,2.2c-0.7,0.5-1.6,1.1-1.2,2
			c1.2,2.7,4.1,4.1,6.3,3.4C469.8,321.9,474.7,322.8,476.5,318.1z M459,272.8c-1.3-3-4.2-5.7-6.7-5.7c-3.8-0.1-3.4,4.7-4.5,7.4
			c-1.3,3.1,2,3.6,3.7,3.7C455,278.4,457.3,276.2,459,272.8z M512.8,202.8c-2.3,1.5-6.9,0-6.6,5.1c0.2,2.9,1.9,4.1,4.7,4.1
			c3.7,0,5.7-2.6,6.3-5.5C517.7,204,515.3,203,512.8,202.8z M497.5,208.8c-2.5-0.4-3.4,1-3.3,2.6c0.4,3.9,3.8,4.7,6.8,5.6
			c1.9,0.6,3.7-0.3,3.4-2.6C504,210.1,499.4,210.8,497.5,208.8z M513,422.6c-0.4-1.6-0.9-3.5-3.1-3.3c-2.6,0.3-3.9,2-4,4.9
			c-0.1,2.6,1.5,2.1,2.9,2.2C511.3,426.6,512.6,425.2,513,422.6z M400.4,451.8c2.4-0.7,5.2-0.8,5.6-3.7c0.3-2.1-2.1-2.4-3.5-2.8
			c-2.2-0.7-4,0.8-3.8,2.7C398.8,449,397.9,451.7,400.4,451.8z"/>
		<path d="M588.9,277.8c1.8,9.7-4,18.5-3.6,28.2c0.1,2.7-3.7,2.2-5.9,1.4c-2.8-1.1-1.3-2.8-0.5-4.6c2.2-5.5,5.5-10.7,4.8-16.9
			c-0.5-4.4,3.9-5.2,5.4-8.1C589,277.7,588.9,277.8,588.9,277.8z"/>
	</g>
	<g>
		<rect x="99.6" y="500.1" fill="none" width="600" height="200"/>
		<path d="M211.8,550.3c-1.7-7-5.8-13.7-18.2-13.7c-19,0-24,17.9-24.8,37c6-7.3,16.1-13.2,32.2-13.2c26,0,44.5,19.2,44.5,47.1
			c0,30.3-19.4,52.9-52.2,52.9c-41.2,0-55-31.8-55-71.9c0-37,13.1-75.4,56.7-75.4c30.9,0,45.3,19.3,46.7,37.2H211.8z M214.6,610.1
			c0-13.5-5-25.6-22.1-25.6c-13.8,0-21.9,8.1-21.9,24.5c0,11.5,5.5,26.8,22,26.8C207.7,635.8,214.6,624.4,214.6,610.1z"/>
		<path d="M325.6,588.7v26.9h-60.1v-26.9H325.6z"/>
		<path d="M420,550.3c-1.7-7-5.8-13.7-18.2-13.7c-19,0-24,17.9-24.8,37c6-7.3,16.1-13.2,32.2-13.2c26,0,44.5,19.2,44.5,47.1
			c0,30.3-19.4,52.9-52.2,52.9c-41.2,0-55-31.8-55-71.9c0-37,13.1-75.4,56.7-75.4c30.9,0,45.3,19.3,46.7,37.2H420z M422.8,610.1
			c0-13.5-5-25.6-22.1-25.6c-13.8,0-21.9,8.1-21.9,24.5c0,11.5,5.5,26.8,22,26.8C415.9,635.8,422.8,624.4,422.8,610.1z"/>
		<path d="M533.8,588.7v26.9h-60.1v-26.9H533.8z"/>
		<path d="M628.2,550.3c-1.7-7-5.8-13.7-18.2-13.7c-19,0-24,17.9-24.8,37c6-7.3,16.1-13.2,32.2-13.2c26,0,44.5,19.2,44.5,47.1
			c0,30.3-19.4,52.9-52.2,52.9c-41.2,0-55-31.8-55-71.9c0-37,13.1-75.4,56.7-75.4c30.9,0,45.3,19.3,46.7,37.2H628.2z M631,610.1
			c0-13.5-5-25.6-22.1-25.6c-13.8,0-21.9,8.1-21.9,24.5c0,11.5,5.5,26.8,22,26.8C624.1,635.8,631,624.4,631,610.1z"/>
	</g>
</g>
<g id="text">
</g>
<g id="guides" display="none">
</g>
<g id="scratch">
</g>
</svg>
