<?xml version="1.0" encoding="utf-8"?>
<!-- Generator: Adobe Illustrator 26.0.2, SVG Export Plug-In . SVG Version: 6.00 Build 0)  -->
<svg version="1.2" baseProfile="tiny" xmlns="http://www.w3.org/2000/svg" xmlns:xlink="http://www.w3.org/1999/xlink" x="0px"
	 y="0px" viewBox="0 0 800 800" overflow="visible" xml:space="preserve">
<g id="fill">
</g>
<g id="bg" display="none">
	<rect x="-3100" y="-100" display="inline" fill="#B5BD00" width="8000" height="2059"/>
</g>
<g id="scans" display="none">
</g>
<g id="counters_00000155831629897369998050000010902328751353074356_">
	<g>
		<path d="M257.1,461.4c-2.2-2.8-3.7-0.1-5.1-1.6c1.9-5.7,6.8-9.9,8.5-16c1.5-5.3,0.3-6.6-4.8-7.4c-11.3-1.8-22.3,1.6-33.5,1.4
			c-17.2-0.4-34.3-0.6-51.5-1c-2.6-0.1-4.5-1.7-4.6-4.5c-0.2-5.1,1.7-10,1.3-15.2c-0.2-2.5,2.4-1.7,4-2c8.3-1.6,16.7,0,25-0.1
			c8.4-0.1,16.8,0.3,25.1,0.5c5.1,0.1,9.9,0.8,13.7,4.6c1.7,1.7,3.5,1.5,5.4,1.5c6.7,0.2,13.4-0.3,20,0.5c4.5,0.5,6.2-1.6,6-4.9
			c-0.3-4.1,1.5-6.3,4.4-8.4c3.7-2.7,3.7-6.9,3.1-10.6c-1.3-7.5,2.2-14.6,0.9-22.4c-1.1-6.5-0.1-13.6-1-20.4
			c-0.6-4.6,0.2-9.4,1.4-13.3c0.9-2.8-0.2-3.8-0.9-5.5c-0.3-0.8-1.3-1.7-1.1-2.2c3.8-8.8-0.5-17.9,0.7-26.7
			c0.9-6.2-0.7-12.2,0.3-18.3c0.8-4.4,3-7.6,6.9-8c3.9-0.4,6.5,1.7,7.2,6.7c1.2,8.7,0.1,17.1-1.2,25.6c-0.3,1.6-1.6,3.2,1.1,4.1
			c1.1,0.4,1.4,2.4,0.4,2.5c-5.5,0.7-1.8,4.1-1.4,5.7c2,7.8,0.9,15.6,0.6,23.4c-0.4,10.8-0.1,21.5,0.1,32.2c0.1,7.8-1,15.7,0.7,23.3
			c2.5,10.6,1,21.5,2.6,32.1c0.3,1.9-0.1,4.1,1.4,5.5c4.7,4.2,5.1,10.6,7.6,15.9c2.3,4.7,4.4,9.7,6.7,14.4
			c2.7,5.4,4.7,11.1,6.6,16.6c2.2,6.2,5.1,12.3,7.8,17.8c6,12.3,10.2,25.4,17.2,37.2c1.5,2.5,5.3,5.8,0.1,8.8
			c5.8,2.2,11.3,4.8,14.3,10.3c1.9,3.5,2.9,8-0.8,11.4c-2.5,2.3-5.5,5.2-9.1,3.3c-4.3-2.3-9.3-5.8-8.4-11.1
			c1.7-9.9-5.1-17.2-6.5-25.6c-1.7-10.3-9.2-17-11.9-26.2c-2.7-9-7.1-17-13.3-24.1c-1.5-1.8-3.1-3.8-5.2-2.3c-2.4,1.7-7,1-6.7,6.2
			c0.3,4.7-0.9,9.5-0.2,14.1c0.8,5.3-0.8,9.7-4.2,12.7c-4.8,4.3-4.3,9.2-3.6,14.5c0.5,3.8,1.3,7.7,1.3,11.5c0,4.1-0.2,8.7-5.9,9
			c-4.4,0.2-9.1-5-7.8-9.7c1.5-5.3,0.6-10.8,2-15.6c1.9-6.4-0.9-9.9-4.4-14.3c-4.4-5.7-2.3-12.7-2-19.1c0.1-1.7,0.2-2.8-0.6-4.3
			c-3.2-6.1-9.2-5-14.3-5.3c-4.2-0.3-5.6,3.8-7.3,7.5c-3.6,7.9-8.8,15.1-12.1,23.1c-3.3,7.8-7.1,15.4-10.9,22.9
			c-2.3,4.5-4.4,9.3-7,13.7c-1.8,3.2-0.8,6.3,0.2,9.3c1.4,4,0.7,7.3-2.9,9.5c-5,3-10.4,3.1-15.3,0.3c-3.9-2.2-4.1-6.3-2.2-10.2
			c1.7-3.6,3.2-6.8,7.8-8.7c5.8-2.3,7-9.3,9.9-14.4c4.9-8.7,9-18,13.2-27.1c3.9-8.4,8.4-16.5,13.1-24.3c4.1-7,7.1-14.4,10.3-21.7
			C249.9,464.6,252,461.8,257.1,461.4z M269.7,437.5c2.2,2.1,6,2.2,5.2,6.5c-1.8,9.8-1.7,19.8-0.6,29.7c0.2,2-0.3,5.3,3.1,5.6
			c3.5,0.3,4.5-3.3,4.6-5.1c0.3-5.8,2-11.4,1.6-17.4c-0.6-8.4-0.1-16.9,0.3-25.4c0.1-2.5-0.3-4.2-2.6-5.2c-4.2-1.9-6.1-0.2-6.2,5.5
			C275.1,435.2,275.6,439,269.7,437.5z M267.6,465c0,0.1,0-1.2-0.3-2.4c-0.5-1.9,1.5-5-1.4-5.5c-2.8-0.6-4.5,2.3-5.4,4.6
			c-2.3,5.6-4.1,11.4-6.3,17.1c-0.9,2.4,0.3,3.1,2.1,3.6c6,1.7,9.1-0.5,10.4-6.7C267.4,472.6,267.4,469.5,267.6,465z M279,421.9
			c4.5,0.5,8.7-0.4,7.2-6.2c-1-3.6-5.4-2.2-8.1-2.2c-2.2,0-6.3-0.9-6,3.7C272.2,421.5,274.7,423.2,279,421.9z M278.8,288.5
			c0.1,4.2-3.1,9,2.6,10.3c3.5,0.8,2.3-3.5,3-5.3C286.5,288.2,280.7,290.7,278.8,288.5z M271.8,494.9c2.3,1.3,3.8-0.2,5.5-0.1
			c1.6,0.2,3.8,1,3.4-1.9c-0.3-1.8,0.9-4.4-0.9-5.2c-1.9-0.8-4.2,0.2-4.5,3C275.1,492.8,272.6,493,271.8,494.9z M275,547
			c0.2,2.2-0.4,5.2,2.6,5c3-0.2,2.4-3.7,2.9-5.8c0.3-1.5,0.2-4.1-2.7-4.1C273.6,542,276.1,545.6,275,547z"/>
	</g>
</g>
<g id="text">
	<g>
		<g>
			<path d="M371,152.7h24.2v91.9h55.6l-2.8,19.8h-77V152.7z"/>
			<path d="M550.3,222.5c0-19.1,0.3-40.4,0.8-53h-0.8c-5.2,22.8-16.4,60-27.1,94.9h-20.6c-8.1-30.6-19.7-72.9-24.6-95.2h-0.8
				c1,13.1,1.4,36.1,1.4,55.2v40h-22V152.7h35.9c8.7,29.2,18.5,65.8,21.8,82.4h0.2c2.7-14.7,15-53.8,24.3-82.4h34.6v111.7h-23.3
				V222.5z"/>
			<path d="M689.3,264.4h-17.7c-0.9-3.4-1.5-7.3-1.8-11c-6.2,8.3-17.1,12.9-32.6,12.9c-32.4,0-50.5-24.5-50.5-56.3
				c0-33.6,19.5-58.9,54.7-58.9c28.7,0,45.7,16.2,48.4,35.3h-24.2c-2.3-7.5-8.2-16.3-24.5-16.3c-22.9,0-29.5,19.2-29.5,38.9
				c0,19.2,7.5,38.1,29.6,38.1c20.6,0,24.5-14.3,24.5-24.3v-1h-24.5v-19.8h48.2V264.4z"/>
			<path d="M470.3,458.8v-24h-48.2v-20.2l44.5-62.4h25.3v63.9h12.8l-2.1,18.8h-10.7v24H470.3z M470.3,397.1c0-11.6,0-18,0.5-24.7
				c-4.2,8.9-18.1,29.2-28.1,43.7h27.7V397.1z"/>
			<path d="M556.3,407v20.2h-45.1V407H556.3z"/>
			<path d="M580.3,458.8v-79.7c-4.9,2.3-14,4.2-19.3,4.6v-17.3c10.1-1.9,20.3-7.6,26.4-14.3h16.4v106.7H580.3z"/>
			<path d="M617.5,458.8v-1.5c0-18.6,8.3-33.7,31.4-50.5c15-11,19.6-14.8,19.6-24.1c0-9.2-4.5-14.4-13.5-14.4
				c-10.4,0-14.2,6.4-15.7,15.7H617c1.5-18.4,13.6-33.7,38.1-33.7c27.4,0,36.8,16.3,36.8,32.3c0,15.5-6.7,23-26.3,36.8
				c-13.1,9.2-18.4,15.3-20.2,20.1h50.5l-2.9,19.3H617.5z"/>
			<path d="M466.1,541.5h48.8c27,0,37.2,14.1,37.2,28.6c0,12.6-6.7,20.8-14.2,24.2c7.5,2.8,17.4,10.8,17.4,25.5
				c0,19.1-15,33.4-38.8,33.4h-50.4V541.5z M512.1,585.6c11.5,0,16.2-5.2,16.2-13c0-8.2-6.2-12.4-15.5-12.4h-23v25.4H512.1z
				 M489.8,634.6h21.8c13.1,0,19-5.5,19-15.6c0-9-5.8-14.7-19.1-14.7h-21.7V634.6z"/>
			<path d="M580.3,653.2v-79.7c-4.9,2.3-14,4.2-19.3,4.6v-17.3c10.1-1.9,20.3-7.6,26.4-14.3h16.4v106.7H580.3z"/>
			<path d="M617.5,653.2v-1.5c0-18.6,8.3-33.7,31.4-50.5c15-11,19.6-14.8,19.6-24.1c0-9.2-4.5-14.4-13.5-14.4
				c-10.4,0-14.2,6.4-15.7,15.7H617c1.5-18.4,13.6-33.7,38.1-33.7c27.4,0,36.8,16.3,36.8,32.3c0,15.5-6.7,23-26.3,36.8
				c-13.1,9.2-18.4,15.3-20.2,20.1h50.5l-2.9,19.3H617.5z"/>
		</g>
	</g>
</g>
<g id="guides" display="none">
</g>
<g id="scratch" display="none">
</g>
</svg>
