<?xml version="1.0" encoding="utf-8"?>
<!-- Generator: Adobe Illustrator 26.0.2, SVG Export Plug-In . SVG Version: 6.00 Build 0)  -->
<svg version="1.2" baseProfile="tiny" xmlns="http://www.w3.org/2000/svg" xmlns:xlink="http://www.w3.org/1999/xlink" x="0px"
	 y="0px" viewBox="0 0 800 800" overflow="visible" xml:space="preserve">
<g id="fill">
</g>
<g id="bg" display="none">
	<rect x="-1100" y="-100" display="inline" fill="#B5BD00" width="8000" height="2059"/>
</g>
<g id="scans" display="none">
</g>
<g id="counters_00000155831629897369998050000010902328751353074356_">
	<g>
		<path d="M339.5,528.3c-1.7,0.1-4-0.6-4-1.7c-0.2-8-6.9-13.5-7.8-21.1c-0.8-6.7-4.6-10.5-11.6-11.1c-2.9-0.3-5.7-1-8.6-0.8
			c-4.4,0.2-8.4,1.1-7.1,7.4c0.7,3.2-0.1,7-2.4,9.4c-4.5,4.7-2.9,9.8-1.3,14.6c0.6,1.9,1.2,2.8-0.1,4.5c-1.2,1.5,0.2,5.3-3.3,4.6
			c-2.8-0.6-5.3-3.1-4.8-6.2c0.6-3.7-0.9-5.8-4-6.4c-3.9-0.7-2.8,3.1-3.5,5.1c-0.9,2.4-2.3,4.4-4.9,5.1c-2.9,0.8-5,0.5-4.2-3.4
			c0.6-3.5,0.7-7.2,1.5-10.4c1-3.9-0.5-6.5-2.6-7.9c-2.9-2-2-3.9-1.4-6.1c2.2-8.1-0.4-11.9-8.9-12.6c-3.1-0.2-6.3,0.3-8.8-2.2
			c-0.6-0.6-1.8-1.3-2.3-0.5c-3.9,5.9-12.7,7.7-13,16.7c-0.2,5.1-4.9,2.8-10.6,3.3c9.5,0.9,7.7,3.6,5,8c-6.6,11-12.9,22.3-15.1,35.1
			c-1,5.6-6.3,7.5-7.6,12.8c-1,4.4-3.2,9.2-7.7,12c2.3,3.1-1.4,7.9,0,9c5.8,4.6,2,10,1.5,14.4c-0.5,3.9-13.7,8.4-18,6.7
			c-1.3-0.5-7-0.4-3.3-5.1c-0.6-0.3-1.2-0.5-1.7-0.8c-5.3-3.3-6.6-10.8-2.3-14.9c1.9-1.8,3-3.9,3.6-6.2c0.9-3.3,3.4-5.2,6.1-5.1
			c4.5,0.1,6.4-2.7,7.8-5.8c2.8-6.1,7.5-11.3,8-18.5c0.2-2.8,3.9-3.4,5-6.6c4.5-12.3,10-24.1,17.1-35.3c3.6-5.8,6.1-12.5,9.3-18.7
			c5.3-10.5,10.2-21.1,15.7-31.4c5-9.5,8.8-19.4,12.6-29.3c1.4-3.7-1.2-5.1-3.9-5.3c-10.6-0.7-21-4.9-31.6-3.8
			c-6.7,0.7-13.2,2.5-20.2,2.4c-7.5-0.1-15-1.2-22.6-1.1c-13.3,0.1-26.5-0.5-39.8,0.7c-3.2,0.3-8.5,1.5-9.8-3.3
			c-1.7-6.3,2.8-9.4,9.8-11.1c-9.3-0.7-11-3.6-8.8-12.4c1-3.9,3-7.4-0.6-11.6c-2.3-2.7-0.6-5.9,3.8-6.1c5.8-0.3,11.6-1.5,17.3-0.9
			c19.2,2.2,38.5-0.9,57.7,1.3c3.3,0.4,6.4,1.6,8.9,4c3.9,3.8,8.4,5.7,13.9,3.7c1-0.4,2.4-0.6,3.2-0.2c7.7,4.1,15.1-0.5,22.7-0.6
			c4.9,0,10.1-8,9-13c-0.7-3.4,2.5-4.2,3.2-6.7c1.7-6,1.6-11.8,1-17.7c-0.1-0.7-0.2-1.3-0.4-2c-1.2-4.5,4.7-7.6,2.1-12.6
			c-2.2-4.2,0.1-8.9-0.4-13.5c-0.4-3.6,4.9-5.5,9.4-5.3c-4-1.1-12.7-9.7-11.8-13c0.9-3.4,3.6-6.4,5.3-9.8c3.3-6.5,3.2-13.1,3-19.6
			c-0.5-12.9,1.9-25.6,1.7-38.4c-0.1-5.2,1.5-10.4-1.2-15.6c-1.2-2.4,0.5-7.9,1.2-8.6c3.6-3.9,0.8-6.9,0-10.3
			c-0.6-2.3-1.2-5-0.7-7.2c2.2-9.1,1.1-17.8-0.5-26.9c-0.5-2.5-1-7.5,2.2-9c4-1.8,8.7-1.8,12.9,0.7c0.7,0.4,1.7,0.6,1.4,1.8
			c-2.8,10.2,0.8,20.4-0.2,30.6c-0.5,5.3-2.1,10.4-1.8,16.1c0.7,13,0.3,26.1-0.2,39.2c-0.4,7.8,0.4,15.6,0,23.4
			c-0.1,2.1-1.8,4.6-4.9,4.4c-1.5-0.1-3.1-0.6-3.9,1.4c1.1,2.7,2.4,0.3,3.6,0.2c3.5-0.1,6.6-0.7,4.9,5.3c-2.2,7.4,1.8,14.7,3.4,21.8
			c1.1,4.8-0.1,8.8-2.6,12.1c-1.8,2.4-1.7,4.2-0.8,6.5c5.3,13.2,2.7,27.1,3.4,40.7c0.5,8.1-2.3,17.2,3.4,24.8c2,2.7,0.9,8.1,0.6,8.5
			c-7.9,12.5-1.8,23.4,3.2,34.4c3.7,8.1,6.7,16.5,9.8,24.8c1.3,3.6,1.8,8.9,3.8,12.9c4.5,9,6.1,18.9,9.9,28c3.7,8.8,6.7,18,12.2,26
			c1.7,2.4,1.9,5.9,0.7,9C342.2,528,340.8,528.1,339.5,528.3z M283.6,439.9c-5.2-1.6-8.9,1.9-7.9,7.3c1.3,7.3-0.1,14.7,1.4,21.9
			c1.2,5.8,5.8,9,11.7,6.4c2.7-1.2,5.7-6.9,4.3-9.7c-2.9-5.7,0-11.2-0.7-16.8C291.3,440.2,292.7,439.7,283.6,439.9z M283.3,435.7
			c5.4-0.1,9.2-0.1,9.8-7.3c0.5-6.2-2.7-12.9,1.8-18.8c0.3-0.4-0.6-2.3-1.4-2.8c-4.2-2.9-9.1-4-13.7-1.9c-3.9,1.7-4.2,5.3-3.9,9.6
			c0.4,4.6,3.9,10.4-2.4,14.1c-0.8,0.5-0.4,1.4,0.1,1.5C277.6,430.9,278.2,437.7,283.3,435.7z M259.9,478.9c3-0.4,6,0.9,7.9-2.5
			c5.4-9.5,2.8-19.5,2-29.3c-0.1-0.8-1.4-1.6-2.3-2.1c-0.8-0.5-1.5-0.3-2,0.8c-4.6,9.3-9.3,18.7-13.9,28c-1.5,3,0,4.1,2.6,4.6
			C256.2,478.6,258.2,478.7,259.9,478.9z M293.4,387.4c2.7-8.3-4.9-6.3-8.6-7.1c-4.7-1-7.2,1.5-5.2,6.7c0.4,0.9,0,1.6-0.8,2.3
			c-6.4,5.4,0.2,6.2,3,6.8C292.5,398.4,292.5,398.1,293.4,387.4z M293.3,482.9c-3.6-0.5-5.8-1-7.9-1c-4.4,0.1-7.8,1.2-4.5,6.7
			c0.9,1.5,1.6,3.4-0.1,4.9c-2.3,2.1-2.3,4.9,0,6.1c1.9,1,4,4.2,6.2,2.6c1.2-0.9,0.2-5,0.7-6.4C289.2,491.7,285.8,485.6,293.3,482.9
			z M304.1,468.4c-1.7,0.6-5.3-1.7-5.5,2.2c-0.2,5.5,4.5,9,10.6,9.3c3.4,0.2,5.8-0.9,5.7-4.6C314.8,468,309.3,468.7,304.1,468.4z
			 M288.8,349.2c2.2,0,2.1-1.7,1.7-2.8c-1.8-5,5-10.3-0.7-15.2c-0.9-0.7,1.9-3.2-0.8-3.7c-1.1-0.2-2.4,0.8-3.5,1.6
			c-1.8,1.2-1.3,2.8-0.1,4c3.2,3.5,1.7,6.5-0.7,9.5c-0.9,1.1-2.9,1.9-0.9,3.7C285.2,347.6,286.6,349.1,288.8,349.2z M281.7,362.4
			c-2,2.9,0.6,2.8,2,3.1c5.6,1,5-4.3,6.8-7.1c0.9-1.4-0.6-3-1.8-2.6C285.5,356.9,281.8,357.9,281.7,362.4z"/>
		<path d="M339.5,528.3c1.3-0.1,2.7-0.2,4-0.4c1.9-0.5,2.8,0.4,3.5,2.1c2.4,6.1,5.4,11.9,6.8,18.4c2.6,11.9,10,22.1,12.6,34.1
			c0.3,1.5,2.6,1.6,4.1,1.6c8.1-0.3,10.2,6,11.7,11.6c1,3.6-3.4,3.4-7,3.7c2.2,2,5.7-0.2,6.2,3.2c0.5,3.2-2.9,2.9-3.9,4.6
			c-3,4.9-7.2,6.6-12.4,4.5c-5.9-2.4-8.7-9.9-9.6-15.9c-0.7-4.7,4.9-7.4,2.2-12.1c-0.3-0.5,2.2,0.6,3.8-0.1c-1.4-1.9-4-1.7-5.1-4.4
			c-2.9-7.3-6.7-14.3-10-21.5c-1.5-3.4-2.7-6.9,1.7-9.4c-5.5-3.6-9.2-7.7-8.4-14.3C339.9,532,334.3,530.3,339.5,528.3z"/>
	</g>
</g>
<g id="text">
	<g>
		<g>
			<path d="M344.7,152.7h24.2v43.6h44.9v-43.6H438v111.7h-24.2v-48.3h-44.9v48.3h-24.2V152.7z"/>
			<path d="M550.3,222.5c0-19.1,0.3-40.4,0.8-53h-0.8c-5.2,22.8-16.4,60-27.1,94.9h-20.6c-8.1-30.6-19.7-72.9-24.6-95.2h-0.8
				c1,13.1,1.4,36.1,1.4,55.2v40h-22V152.7h35.9c8.7,29.2,18.5,65.8,21.8,82.4h0.2c2.7-14.7,15-53.8,24.3-82.4h34.6v111.7h-23.3
				V222.5z"/>
			<path d="M689.3,264.4h-17.7c-0.9-3.4-1.5-7.3-1.8-11c-6.2,8.3-17.1,12.9-32.6,12.9c-32.4,0-50.5-24.5-50.5-56.3
				c0-33.6,19.5-58.9,54.7-58.9c28.7,0,45.7,16.2,48.4,35.3h-24.2c-2.3-7.5-8.2-16.3-24.5-16.3c-22.9,0-29.5,19.2-29.5,38.9
				c0,19.2,7.5,38.1,29.6,38.1c20.6,0,24.5-14.3,24.5-24.3v-1h-24.5v-19.8h48.2V264.4z"/>
			<path d="M391.1,428.2c0-13.6,9.5-22,17.4-25.5c-8.2-5.1-13.2-11.5-13.2-22.3c0-18.1,13.2-30.1,37.2-30.1
				c21.9,0,36.3,11.4,36.3,29.8c0,12.3-6.3,18.3-13.6,21.4c7.7,2.9,17.4,11.8,17.4,25.9c0,22-17.6,33.4-41.9,33.4
				C409.1,460.8,391.1,449.2,391.1,428.2z M449.6,427.1c0-10.6-7.3-15.4-17.7-15.4c-11.6,0-17.5,6.3-17.5,15.3
				c0,9.5,7.1,15.8,18,15.8C442.3,442.7,449.6,438,449.6,427.1z M417.3,381.2c0,7.2,5.2,12,14.9,12c9.5,0,14.6-3.6,14.6-12
				c0-8.1-5.3-13.1-14.8-13.1C422.3,368.2,417.3,372.7,417.3,381.2z"/>
			<path d="M524.9,407v20.2h-45.1V407H524.9z"/>
			<path d="M529,458.8v-1.5c0-18.6,8.3-33.7,31.4-50.5c15-11,19.6-14.8,19.6-24.1c0-9.2-4.5-14.4-13.5-14.4
				c-10.4,0-14.2,6.4-15.7,15.7h-22.4c1.5-18.4,13.6-33.7,38.1-33.7c27.4,0,36.8,16.3,36.8,32.3c0,15.5-6.7,23-26.3,36.8
				c-13.1,9.2-18.4,15.3-20.2,20.1h50.5l-2.9,19.3H529z"/>
			<path d="M693.5,404.8c0,29.3-9.3,55.9-41,55.9c-31.3,0-40.9-25.7-40.9-55.2c0-29.2,10.7-55.2,41.4-55.2
				C682.7,350.3,693.5,374.6,693.5,404.8z M635.5,405.3c0,19.6,2.2,37,17.3,37c14.7,0,16.7-16.3,16.7-37.3
				c0-20.7-2.5-36.2-16.4-36.2C639.4,368.7,635.5,382.2,635.5,405.3z"/>
			<path d="M466.1,541.5h48.8c27,0,37.2,14.1,37.2,28.6c0,12.6-6.7,20.8-14.2,24.2c7.5,2.8,17.4,10.8,17.4,25.5
				c0,19.1-15,33.4-38.8,33.4h-50.4V541.5z M512.1,585.6c11.5,0,16.2-5.2,16.2-13c0-8.2-6.2-12.4-15.5-12.4h-23v25.4H512.1z
				 M489.8,634.6h21.8c13,0,19-5.5,19-15.6c0-9-5.8-14.7-19.1-14.7h-21.7V634.6z"/>
			<path d="M580.3,653.2v-79.7c-4.9,2.3-14,4.2-19.3,4.6v-17.3c10.1-1.9,20.3-7.6,26.4-14.3h16.4v106.7H580.3z"/>
			<path d="M617.5,653.2v-1.5c0-18.6,8.3-33.7,31.4-50.5c15-11,19.6-14.8,19.6-24.1c0-9.2-4.5-14.4-13.5-14.4
				c-10.4,0-14.2,6.4-15.7,15.7H617c1.5-18.4,13.6-33.7,38.1-33.7c27.4,0,36.8,16.3,36.8,32.3c0,15.5-6.7,23-26.3,36.8
				c-13.1,9.2-18.4,15.3-20.2,20.1h50.5l-2.9,19.3H617.5z"/>
		</g>
	</g>
</g>
<g id="guides" display="none">
</g>
<g id="scratch" display="none">
</g>
</svg>
