<?xml version="1.0" encoding="utf-8"?>
<!-- Generator: Adobe Illustrator 26.0.2, SVG Export Plug-In . SVG Version: 6.00 Build 0)  -->
<svg version="1.2" baseProfile="tiny" xmlns="http://www.w3.org/2000/svg" xmlns:xlink="http://www.w3.org/1999/xlink" x="0px"
	 y="0px" viewBox="0 0 800 800" overflow="visible" xml:space="preserve">
<g id="fill">
</g>
<g id="bg" display="none">
	<rect x="-100" y="-100" display="inline" fill="#B5BD00" width="7000" height="2059"/>
</g>
<g id="counters_00000155831629897369998050000010902328751353074356_">
	<g>
		<path d="M516,276.8c-7.4-3.5-10.8-3-12.9,3.3c-2.3,7-8.6,12.3-8,20.6c0.1,1.6-2.2,3.8-3.9,5.1c-1.9,1.5-3.6,0.7-3.2-2
			c0.4-2.6-0.1-5.3,1.7-7.8c7.3-9.9,9.3-22.3,15.3-32.8c1.3-2.2-0.2-4.4-1.3-5.5c-4-4-1.7-7.1,0-11c1.9-4.1,3.6-8.7,3.7-13.2
			c0.2-6.4,4.9-10.6,6.5-16.4c1.1-4.1,7-6,12.1-5.6c3.7,0.3,6.5-0.1,9.4-3.5c2-2.3,5.3-4.4,8.9-5.5c6.3-1.9,7.6-8.2,2.3-11.9
			c-3.5-2.4-4.1-3.9-1.6-7.2c0.8-1.1,1.4-3.4,0.8-4.5c-3-5.8-0.6-10.1,3.1-14.5c2-2.3,2.9-6.3,4.8-7.9c3.1-2.8,8-3.8,12.7-3.4
			c4.6,0.3,8.4,2.6,12.6,3.9c8.5,2.7,8.4,10.6,11.3,16.3c1.3,2.7,1,6.1,3.9,8.6c2.2,1.9-0.5,3.4-1.9,4.7c-5,4.7-11.5,4.7-17.7,5.1
			c-2.2,0.1-4.4,0-6.7,0c0.5,1.8,0.9,3.5,1.4,5.1c1.3,4.2,0.5,5.2-3.6,2.8c-2.4-1.5-5.3-0.5-8-0.3c-1.6,0.1-3.2,0.6-3.4,2.6
			c-0.1,1.5,0.5,2.6,1.9,3.2c2.3,0.8,3.4,2.7,4.5,4.8c1.7,3,4.6,2.8,7.1,1.9c2.2-0.7,5.1-1.7,2.9-5.2c-0.8-1.3,0.2-2.5,1.3-2.2
			c6.5,1.5,8.4-3.4,11.1-7.4c0.8-1.2,2-3.9,3.9-2.7c2,1.3,1.3,3.6-0.4,5.2c-4.3,3.9-2.9,11.4-9.4,14c-1.3,0.5-1.3,2.9-0.1,4.3
			c5.9,7,6.8,15.7,8.2,24.4c-2,1.7-5-1.6-6.8,1.8c4,0,7.5-0.5,7,6c-0.4,5.2,4.2,3.1,8.3,2.8c9.8-0.9,19.5-2.8,29.3-3.7
			c7.9-0.7,15.6-2.3,23.6-1.2c2.4,0.3,4.7-1.1,6.8-2.5c5-3.2,8.8,1.4,13,2.6c2.1,0.6,0.6,3.2-1.5,3.7c-4.5,1.2-8.6,3.7-13.7,3.2
			c-2.2-0.2-7.6-2.8-4.8,4.5c1.1,3-3.6,6.5-5,10.4c-2.2,6.3-6.1,12-8.4,18.4c-0.6,1.7-1.2,3.4-3.2,4.1c-1.1,0.4-2.3,0.9-3.2,0
			c-0.8-0.9-0.4-1.9,0.6-2.9c4.4-4.1,4.7-10.3,7.8-15.1c0.6-0.9,2.2-2.1,0.1-3.2c-1.3-0.7-2.5-0.7-3.8,0.1
			c-8.3,5.5-15.5,12.2-22.2,19.6c-3.9,4.3-0.9,9.2-0.4,13.4c0.7,6.8-3.5,6.1-7.1,7c-4.3,1.1-6.5-0.7-6.1-5.1c0.3-3.1,0-5.9-3.1-7.5
			c-2-1-4.2-0.6-5.6,1c-2.1,2.5-3.8,4.7-2.6,8.9c1.7,5.8,4.4,11.8,0.7,18.1c-1.4,2.4,0.9,3.2,2.9,2.8c4.2-0.8,8.5-1.3,11.7-5.1
			c0.2,8.7-6.8,14.8-21.7,18.3c9.5,0.4,5.8,6.9,7.3,10.7c0.2,0.4-1.1,1.9-1.5,1.9c-2.4-0.5-5.3-0.7-5.2,2.2c0.1,3.1,1.9,6.2,2.1,9.5
			c0,0.4,2.1,1.1,2.9,0.8c1.1-0.4,2.6-1.6,1.3-3c-2.2-2.4-1.6-5.5,0.4-6.1c3.5-1,2.8,3.2,3.6,5.1c5.1,11.2,5.1,23,4.1,34.9
			c-0.3,4.3-3.6,7.1-3.1,12.3c0.9,8.5,0.4,17.3,2.6,25.7c0.8,3.3-0.7,5.9-2.1,8.3c-3.4,5.7-3.6,11.7-3,17.9
			c0.7,6.5,5.9,10.7,14.5,11.2c4.9,0.3,8.2,2.8,11.9,5.5c3.2,2.4,2.1,6,0.7,6.9c-3.5,2.1-6.2,6-10.7,6.2c-7.4,0.3-14.6,2.2-22.1,0.7
			c-4.1-0.8-8.6-0.7-12.7,0.2c-5.5,1.1-9.7-2.5-11.1-5.6c-1.5-3.6-2.9-9.7,0-13c4.7-5.4,3.9-11.2,3.9-17.2c0-1.1-0.6-2.4-0.3-3.3
			c1.7-4.4,0.8-6.8-4.3-7.8c-1.8-0.4-6.1-1.9-2.1-5.5c1.2-1.1,0.2-1.8-0.7-2.6c-1.6-1.3-2.3-3.1-1.3-4.8c5.3-8.6,2.4-18.3,4.3-27.4
			c0.6-3,0.6-6.3,3.9-8c0.3-0.1,2.5-0.1,0.5-1c-8.3-3.9-2.9-14.4-11.5-18.9c-5.3,0.9-7,7.4-8,12.8c-1.4,7.5-5.8,13.4-8,20.5
			c-1.3,4.1-7.7,3.9-11.2,6.7c-8.1,6.4-17.6,11.3-22.9,20.7c-1.9,3.3-5,4.2-8.5,4.1c-14.7-0.3-18.5,4.4-16.5,18.5
			c0.5,3.8,0.9,7.7,1.4,11.6c0.2,1.5,0.2,2.5,1.6,3c3,1.1,2.9,2.1,1.1,4.8c-2,3.2-1.9,8.3-7.4,7.5c-5.6-0.8-10.5-4.3-12.7-8.8
			c-1.5-3.1-2.3-5.8-5.8-7c-0.5-0.2-1.2-1-1.2-1.4c1.9-10.3-6.6-16.7-9.3-25.2c-1.3-4,0.7-8.8,3.3-11c3.2-2.6,6.2-5.9,10.8-7.3
			c6.2-1.8,9.6-7.6,12.7-12.8c2.6-4.4,4.7-8.9,9.2-12.1c8-5.7,14-13.6,21.4-20.1c4.2-3.7,8.8-9.6,7.8-17.1c-0.4-2.9,0.1-6.1,1.5-9.1
			c1.7-3.7,2.7-7.6,1.2-11.7c-0.6-1.8-1-3.7,1.4-4.4c2.8-0.8,2.1-2.5,0.9-4c-2.5-3.3-3.1-7.2-4-11c-0.4-1.6-1-2.5-2.2-3
			c-8.9-3.9-10-10.8-7.6-19.1c1.6-5.4,0.2-12.4,8.3-14.1c1.8-0.4,2.1-2.8,2.4-4.6C511.1,281.7,512.8,279.2,516,276.8z M525.7,343.1
			c-3.2,2.6-2.3,7.4-6.8,9c-4.1,1.5-3.8,4.5-0.3,6.2c3,1.6,3.1,3.4,2.2,6c-4,12.3-4.1,12,8.4,10.6c4.3-0.5,8.6-2.5,8.3-5.9
			c-0.3-4.2,1.6-9.6-1.8-12.6c-3.6-3.1-2.5-6.2-2-9.4c0.6-3.8,3.9-2.9,6.5-2.9c1.3,0,3,0.2,2.9-1.8c-0.1-1.6-1.6-2.6-2.9-2
			c-5.1,2.7-7.1,1.2-8.7-4.2c-0.7-2.4-5.4-4.4-8.1-0.6c-1.1,1.6-3.7,2-3.7,4.3C521,341.9,523.7,340.9,525.7,343.1z M521.6,262.2
			c5.1,0.1,17.8-11.1,18.3-16.1c0.1-0.6-0.1-1.2-0.3-1.8c-2.5-7.9-2.5-8,5.4-9c3.5-0.4,6.1-2.7,3.9-5.2c-2-2.3-1.3-3.2-0.2-4.9
			c1.9-2.8,0-4.6-1.9-6.3c-2-1.9-4.3-3.9-7.1-2.3c-2.2,1.2-3.3,3.4-2.8,6.2c0.7,4.2-0.2,7.4-5.3,8.4c-2,0.4-3.7,2.5-5.6,3.5
			c-2.6,1.3-2,2.2-0.3,3.8c5.6,5.2,5.8,6.8-0.5,11.2c-3.9,2.7-2.3,8.1-6.7,10.4C517.4,260.8,520,262.2,521.6,262.2z M564.7,404.8
			c6.2,3.6,6.8,4.5,5.3,7.7c-4.7,9.9-4.1,11.5,5.1,18.4c2.9,2.1,5.6,4.4,9,2.5c3.4-1.9-0.4-4.7-0.2-7.2c0.1-2.3,1.8-6.4-0.2-6.9
			c-7.8-2.1-4.1-7.1-2.3-10.1c2.6-4.1,0.8-5.4-2-7.7C572.8,396.4,569.5,403.4,564.7,404.8z M515.9,408.7c-4.4-0.6-7.7-1.1-10.9,0.1
			c-1.3,0.5-3.3,1.4-3.7,0.4c-3.5-8.8-5.3-3.8-8.3,0.4c-1.3,1.8-4.8,2-7.3,3c-2.1,0.8-4.3,1.4-6.4,2.2c-1.3,0.6-2.5,2.1-1.1,3.1
			c3.2,2.4,6.2,7,10.9,3.4c5-3.8,11.1-4.2,16.7-6.3C509.2,413.8,512.4,412.5,515.9,408.7z M535.5,394.5c-1-3.5-2.9-6.5-7-7
			c-4.6-0.5-3.5,3.2-3.2,5.6c0.6,5-3,3-5.2,3.5c-2,0.4-5.3-1.2-5.6,1.7c-0.3,2.5,1.3,5.1,4.8,5.2c2.1,0.1,4.2,0.7,3.8,3.5
			c-0.3,1.6-3.7,3.2-0.3,4.7c2.7,1.2,5.2-0.2,7-2.5C533,404.9,533.6,399.5,535.5,394.5z M543.9,275.2c-0.8,0.1-3.6-1.2-4.2,2.7
			c-0.6,3.3,1.8,3.4,3.6,4.5c4.3,2.7,9.9,1.6,14.1,5.6c2.1,2,5.7-1.6,7.2-4.4c2.1-3.9-2.1-2.8-3.5-3.8
			C556.3,276.8,551,275.3,543.9,275.2z M460.1,448.4c1.3-0.3,4.4-0.4,3.1-1.9c-3-3.6-0.1-3.9,1.9-5c1.9-1.1,3.8-2.2,5.9-3.1
			c3.2-1.5,3.2-3.3,0.9-5.6c-3-3.1-6.9-3.6-9.5-0.8c-3.1,3.3-5.3,7.6-6.8,11.9C454.9,445.7,457.1,448.3,460.1,448.4z M588.1,378.5
			c-0.2-3,0.4-5.7-3.4-6c-3.7-0.3-3.7,4-3.4,4.4c2.7,3.8-5.3,10.1,2.9,12.5c0.5,0.2,1,2.1,0.8,3c-0.7,2.8,0.4,3.8,3,3.7
			c2.3-0.1,2.2-1.9,2.8-3.7C592.7,386.9,582.9,383.7,588.1,378.5z M555.1,322.6c4.1,0.7,7.4-0.8,10.8-2c3-1,2.8-3.3,2.8-5.4
			c-0.1-2.5-2.3-2.3-4.1-2.3c-3.9,0-7.7,0.1-10.9,2.7c-1.8,1.5-5.1,2.5-4.6,5.1C549.7,324,553.3,321.7,555.1,322.6z M571.3,308.2
			c3.4,1.5,4.7,3.2,1.4,5.9c-1.5,1.2-1.3,2.6-0.1,4.1c2,2.6,4.9,1.8,7.5,1.8c1.5,0,2.1-0.7,2.4-2.4
			C583.7,311.3,581.5,309.2,571.3,308.2z M579.8,392.1c-1-3.3-3.7-4.4-6.7-4.6c-3.2-0.2-5.4,2.2-5,4.9c0.4,2.8,3.4,4,6.3,3.5
			C576.7,395.6,579.5,395.4,579.8,392.1z M527.2,280.9c2.2-0.3,5.3,0.7,5.1-2.2c-0.2-3.2-2.7-5-6.2-4.7c-3,0.2-7.9-0.3-7.6,3.4
			C518.9,281.9,524.5,279.3,527.2,280.9z M558.8,267.8c0-2.2-1.2-3.4-3.3-2.8c-2,0.5-4.7,0.8-4.5,3.9c0.2,2.1,1,4,3.6,4
			C557.8,272.8,558.3,270.3,558.8,267.8z"/>
		<path d="M365.8,283.2c2.1-4.1,4.1-7.8,6.1-11.5c1.1-2.1,2.4-4.6-0.1-5.9c-2.3-1.2-5.7,0.4-6.5,2.2c-2.9,6.6-9.8,8.4-14.6,12.3
			c-3.8,3-4.6,5.4-4.1,9.2c0.5,3.7-0.2,7.4,0.4,11.3c0.7,4.3-3.6,4.3-6.7,4.1c-3.1-0.2-7.7,0.7-6.5-4.8c0.6-2.9,0.4-4.9-2.1-6.3
			c-2.6-1.5-5.2-0.8-7.7,0.5c-3,1.5-2.4,4-2,6.5c0.8,5,3.6,9.6,2.7,14.9c-0.1,0.6,0.7,1.2,0.7,1.9c0.3,7.3,0.4,7.4,8,4.5
			c5.4-2,5.4-2,9.5-1.3c0.2,2.4-1.6,3.1-3.3,3.5c-6.7,1.8-9.6,9.1-16.2,11.3c-0.9,0.3-1.8,3.2-1.1,6.1c3.4,14.4,12,27.5,10.5,43
			c-0.5,5.5-1.8,10.8-3.8,16.1c-1.8,4.7-0.8,10.4,0.1,14.9c1.5,7.4,1.6,14.8,3.1,22.1c0.5,2.2-0.9,3.9-2.2,5.5
			c-6.9,8.7-2.4,23.3,10.7,24.7c5.5,0.6,9.1,4.7,13.5,7.3c1.2,0.7,2,2.7,0.9,3.4c-4.3,2.7-5.7,8.3-12.3,9.1
			c-13.3,1.7-26.3-0.3-39.4-0.3c-5.5,0-7.1-3.5-5.3-8.8c0.2-0.5,2.4-0.4,0.6-1.4c-6.1-3.7-1-8.9,0.4-10.6c5.6-6.7,1.3-13.7,2.3-20.5
			c0.2-1.3-1.2-2.9-2.8-3.6c-6.8-3.1-6.4-8.3-5.2-14.6c1.1-5.5,2.5-11.1,2.4-16.9c-0.1-3.2-0.6-8,6.2-7.3c-5-2.4-5.9-7.9-3-13.8
			c0.3-0.6,2.8-0.9,0.5-1.9c-5.2-2.1-5.6-6.7-6.8-11.2c-0.5-1.8,0.2-4.7-3.3-5c-3.3-0.3-4.6,2-5.4,4.1c-1.9,4.9-3.9,10-4.7,15.1
			c-2.1,13.2-10.1,21.1-21.9,25.6c-6.6,2.5-8.2,9.6-13.6,13.3c-5.9,4-10,10.5-18.8,9.2c-4.6-0.7-7.5,4.4-9.1,7.8
			c-2.2,4.8-2.5,10.6-0.6,15.8c0.9,2.6,4,4.7,0.2,7.4c-0.2,0.2-0.3,0.5-0.5,0.8c0.4,0.1,0.9,0.1,1.3,0.2c4,1.3,4.2,5.2,3.2,7.5
			c-1.3,2.9-2.4,7.1-6.8,7.4c-1.5,0.1-4.8,1.6-3.3-2.6c0.6-1.8-0.8-2.7-2-2.9c-8.5-1.8-11.2-9.3-13.8-15.7
			c-2.7-6.4-8.2-10.3-10.8-16.4c-1.6-3.7-3.7-7-3.4-11.3c0.6-7,6.7-7.6,11.2-10.1c8.3-4.6,16.6-8.9,19.6-19.2
			c1.3-4.5,5.4-7.6,9-10.4c3-2.4,7.2-3.5,7.9-8.2c0.1-0.7,1.2-1.2,1.9-1.7c1.4-0.9,3.3-2.4,4.1-2.8c7-3.6,7.5-12,12.8-16.5
			c1.4-1.2,1.1-2.8,1.4-4.4c2-10.9,2-22.2,4.8-33c0.1-0.4,0.5-1.2,0.5-1.2c-6.1-3.1-2.6-12.9-10.4-14.7c-2.7-0.7-3.5-3.4-5.3-5
			c-0.5-0.4-0.4-1.3-0.8-1.8c-2.9-3.2,7.9,0.2,2.2-4.8c-2.6-2.3,0.8-5.7,0.4-8.8c-0.2-1.6,1.5-2,2.9-2.1c-7-3.6-9.8-1.8-9.4,6.5
			c0.1,1.7-0.6,2.5-1.9,3.1c-1.2,0.6-3.1,1.1-3.7-0.2c-0.8-1.6-2.2-3.8-0.7-5.6c6.9-8.1,7.1-19.3,12.9-28.1c2-3,1.2-8,5.2-10.7
			c0.4-0.3,2.7-4.7-1.8-6.1c-3.4-1-3.5-5.3-0.5-7.8c1.6-1.3,0.2-4.9,3.7-4.6c-8.2-2,0.6-7.4-2-10.5c-0.3-0.4,0-1.4-0.2-2
			c-2-6.6,9.2-4.6,7.6-13c-0.8-4.3,8.3-6.8,14.7-7.8c7-1.1,13-5.7,19.5-8.4c4.9-2.1,4.3-8.7-0.9-11.3c-4.2-2.1-4-3.7-0.8-6.1
			c1.4-1,2.4-1.8,1.6-3.8c-5.8-14.1-2.2-21.7,13.1-26.7c2.5-0.8,4.4-4.6,7.1-2.7c5.2,3.6,13.2,3.7,16.1,9c3,5.3,5.3,11.3,7.8,17.1
			c2.3,5.5,4.3,9.5-3.4,11.4c-1.3,0.3-1.8,1.6-1.8,3.2c-0.2,7.6-1.5,14.8-8.7,19.4c-2.3,1.5-1.8,3.9-0.3,5.2c2.4,2.2,2.1,6.1,5,7.8
			c0.4,0.2,0.7,0.6,1,0.9c-7.7,5.3,6.3,9.1,0.9,14.2c3.7,3.2-0.6,6.7-0.1,10.4c0.9,6.8,4.9,3.7,6.7,3.4c10.3-1.3,20.3-4.6,30.8-5.3
			c7-0.5,13.9-1.1,20.9-0.9c3.9,0.1,7.5,0.3,11.3-2.6c3.2-2.4,8.7-1,12.4,1.4c3.5,2.3,0,3.8-1.8,4.5c-16.2,6.9-16.5,6.7-25,20.8
			c-2.4,4.1-2.4,9.5-5.9,13.3C369.8,281.7,369.4,284.1,365.8,283.2z M258,336.3c7.8,1.9,5.9,3.8,1,6.9c-5.1,3.1-4.7,8.6,0.4,10.8
			c2.9,1.2,1.2,2.1,0.5,3.8c-1.7,3.9-5.2,8.5-2.4,12.4c2.7,3.6,7.4,1,11.2-0.3c0.4-0.1,0.9-0.1,1.3-0.2c5.9-1.2,9.4-12.2,4.9-16.2
			c-2.5-2.2-2.5-4.4-2.8-7.1c-0.5-5.2-1-10.5-1.6-15.7c-0.4-3.9-3.5-3.5-6.1-3.6c-1.7-0.1-4.8,0.8-4.1,1.8
			C263.1,332.6,259,333.4,258,336.3z M284.9,217.6c-0.1-4.6-0.5-5.5-3.9-5.2c-3.2,0.2-7.3-0.8-7.6,5c-0.3,5.1-2.3,10.1-7.7,12.4
			c-2.8,1.2-2.2,2.8-0.8,4.7c2.2,3.2,3.3,6-1.1,8.8c-3.4,2.2-4.8,6.4-6.5,9.9c-1.6,3.1,0.1,5.1,4.1,4.2c3.3-0.7,14.6-12.9,14.9-16.3
			c0-0.4,0.1-1-0.1-1.3c-4.7-8.9,0.4-9.7,7.4-9.1c1.8,0.2,4.6-0.7,2.8-2.7C283.1,224.7,285.2,221.5,284.9,217.6z M327.1,427.4
			c-0.5-2-2.6-1.7-2.7-2.3c-1.1-5.7-3.6-10.6-7.1-15.3c-1.5-2.1,0.6-5.9,3.2-8.2c1-0.9,2.9-3.4,0.1-4.3c-4.2-1.3-8.6-2.9-13.1-0.5
			c-1.5,0.8-3.2,1.9-1,3.3c5.1,3.2,2,7.1,1,10.7c-0.6,2.1-2.4,3.9-1.8,6.2C308,426.2,317.6,430.9,327.1,427.4z M216.1,413.5
			c0.7,2.2,2.9,2.7,5.2,2.7c11,0.1,20.7-4.6,30.4-9.1c2.4-1.1,2.8-3.6-0.9-4.5c-2.9-0.7-6.9,0.4-6-5.4c0.4-2.6-7.1-3.5-8.2-0.6
			C233,406.4,222.7,406.9,216.1,413.5z M325,359c-2.1-1.4,0.9-4.3-2.3-5.1c-1.2-0.3-2.2-0.2-3.1,0.7c-1.5,1.6-2.1,3.4-1.3,5.5
			c0.2,0.6,0.6,1.2,0.8,1.8c1.7,5.1,1.3,10.9,0.7,15.5c-0.6,5.2,1.6,7.7,3.8,11c1,1.5,2.5,2.9,4.3,1.1c2-2,2.1-6.8,1.6-6.9
			c-8.1-1.7-4.5-5.7-2.3-9.6c1.1-1.9-0.3-3.5-0.9-5.1C325.3,365.1,322.2,362.6,325,359z M296.5,281.1c2-0.3,4.9,0.4,6.3-2.1
			c0.7-1.3-0.6-2.6-1.9-3.1c-5.2-2.3-10.4-4.6-15.8-6.6c-2.2-0.8-4.3,0.7-6.4,1.3c-2,0.6-1.6,2.4-2,3.7c-0.7,2.4,1.3,2.3,2.6,2.9
			C284.7,279.7,290.4,280.4,296.5,281.1z M259.5,404.7c5,2.3,8.9-0.2,10.7-3.4c2.1-3.8,5.4-8.2,3.1-13c-0.9-1.9-2.7-4.1-5.8-3.7
			c-3.1,0.5-3.3,3.1-3.1,5.1C265,395.4,262.5,400,259.5,404.7z M251.7,273.2c-0.1-1.6-1.4-2.2-2.6-2.8c-2.3-1.2-4.8-0.7-6.1,1.2
			c-2.4,3.7-4.5,7.6-5.9,11.7c-0.6,1.9,0,5.2,3.4,5.1C242.7,288.4,251.7,275.6,251.7,273.2z M308.2,204.5c-2-4.8-3.7-8.9-5.6-12.9
			c-0.1-0.3-2.2-0.3-2.4,0c-2.1,3.8-8.4,3.4-9,5.9c-1,4.3,5.3,4.2,7.6,7.1c0.6,0.7,1.2,1.6,2,1.8
			C304.1,207.3,306.6,205.7,308.2,204.5z M194.9,439.4c-1.1,2.9,0.7,4.3,3.1,4.9c3,0.9,3.2-1.3,3.4-3.5c0.4-4.3,2.5-7,7.2-7.4
			c1.7-0.1,4.3,0,4.3-2.1c0-2.4-2.2-3.7-4.6-4.3C202.7,425.7,195.7,432.2,194.9,439.4z M313.5,186.9c-3.2,0.2-8.5-0.1-7.6,3.1
			c0.9,3.2,0.3,9.7,6.9,9.8c3.8,0,8.5-5.4,7.7-10C319.9,185.7,316,187.2,313.5,186.9z M300.1,308.7c-3.6,0.8-8.2,1-12,4.3
			c-1.2,1-2.9,1.6-2.2,3.5c0.7,2.1,2.7,2.4,4.5,2c4.1-0.9,8.2-2.1,12.2-3.3c2.1-0.7,4.5-2,3.7-4.6
			C305.6,308.1,302.9,308.9,300.1,308.7z M255.2,274.7c3.2,0.6,5.7,1.2,8.3,1.6c2.1,0.3,5.1,1.1,5.9-1.3c0.6-1.7-0.5-4.4-1.7-6.1
			c-1.5-2.2-3.9-1.1-6-0.2C259.3,269.8,257.3,271.4,255.2,274.7z M315.1,304.4c-2.7-0.2-4,1.7-4.2,5c-0.3,3.9,2.5,4.7,5.1,4.8
			c2.3,0.1,5.7-0.5,5.1-3.6C320.7,308,320.7,303.7,315.1,304.4z M251.7,395.4c0.7,2.9,3.2,1.9,4.9,2.2c3.3,0.6,4.6-2.2,4.8-4.3
			c0.2-2.9-2.8-2.7-4.9-3C252.1,389.6,253.6,394,251.7,395.4z M298.6,218.6c3.7,1.3-0.6,7.2,4,7.8c3.4,0.5,2.7-3.6,3.3-5.5
			c1-3.1-1.4-4.2-4.3-4.2C300.4,216.7,298.9,216.1,298.6,218.6z M314.8,166.3c-3.2,0.6-6.8,0.6-7.8,4.5c-0.4,1.4,1.2,1.8,2.3,1.3
			c3.1-1.6,7.9-0.3,9.4-3.9C319.6,165.9,316.2,166.9,314.8,166.3z M318,386.7c-1.1-2.8-4-2.2-6.1-2.7c-1.8-0.4-3.8,0.4-3.3,2.8
			c0.5,2.5,2.5,3.6,5,3.2C315.3,389.7,317.5,389.4,318,386.7z M314.8,178.8c5.7,2.3,9-2.2,13-0.8
			C323.8,174.6,320.1,176.3,314.8,178.8z"/>
		<path d="M610.2,321.5c-4.4,0.1-3.9-2.4-2.7-4.4c1.4-2.4,3.4-4.6,5.4-6.6c3.9-4.1,8-8,9.5-13.8c0.3-1.1,2.3-2.6,3.9-1.4
			c1.5,1.1-0.2,2.3-0.4,3.5c-1.8,8.2-8.5,13.5-11.9,20.8C613.4,320.8,611.2,321,610.2,321.5z"/>
		<path d="M367.2,288.7c-4.2,5.2-7.3,12.4-11.4,18.9c-1.6,2.5-3,5.4-6.5,6.2c-1.6,0.3-3.2,1.3-4.1-0.5c-0.9-1.6,0.1-3.1,1.4-4
			c8.1-5.8,12.2-14.8,17.7-22.6c0.6-0.8,1-1.5,2.1-1.2C367.5,285.8,367.6,286.6,367.2,288.7z"/>
	</g>
	<g>
		<rect x="99.8" y="500.3" fill="none" width="600" height="200"/>
		<path d="M148.7,617.1c0-18.2,12.7-29.3,23.2-34c-10.9-6.8-17.6-15.3-17.6-29.7c0-24.1,17.7-40.1,49.6-40.1
			c29.2,0,48.5,15.2,48.5,39.7c0,16.4-8.4,24.4-18.1,28.5c10.2,3.8,23.2,15.8,23.2,34.6c0,29.3-23.4,44.5-55.8,44.5
			C172.7,660.6,148.7,645.2,148.7,617.1z M226.7,615.7c0-14.1-9.7-20.6-23.6-20.6c-15.5,0-23.4,8.4-23.4,20.4c0,12.6,9.5,21,23.9,21
			C217,636.5,226.7,630.2,226.7,615.7z M183.7,554.4c0,9.6,6.9,16.1,19.9,16.1c12.6,0,19.5-4.9,19.5-16c0-10.8-7.1-17.4-19.8-17.4
			C190.4,537.1,183.7,543.2,183.7,554.4z"/>
		<path d="M337.9,588.9v26.9h-60.1v-26.9H337.9z"/>
		<path d="M423.2,658V626h-64.3v-26.9l59.3-83.2h33.7V601h17.1l-2.8,25h-14.3V658H423.2z M423.2,575.7c0-15.4,0-24,0.6-32.9
			c-5.6,11.9-24.2,39-37.5,58.2h36.9V575.7z"/>
		<path d="M548.7,588.9v26.9h-60.1v-26.9H548.7z"/>
		<path d="M655.4,515.8v22.9c-22.5,31.9-44.6,78-50.1,119.2h-31.8c5.6-41.8,31.1-91.9,50.4-116.7H557v-25.4H655.4z"/>
	</g>
</g>
<g id="text">
</g>
<g id="guides" display="none">
</g>
<g id="scratch">
</g>
</svg>
