<?xml version="1.0" encoding="utf-8"?>
<!-- Generator: Adobe Illustrator 26.0.2, SVG Export Plug-In . SVG Version: 6.00 Build 0)  -->
<svg version="1.2" baseProfile="tiny" xmlns="http://www.w3.org/2000/svg" xmlns:xlink="http://www.w3.org/1999/xlink" x="0px"
	 y="0px" viewBox="0 0 1000 1000" overflow="visible" xml:space="preserve">
<g id="fill">
</g>
<g id="bg" display="none">
	<rect x="-1100" y="-1000" display="inline" fill="#B5BD00" width="7000" height="2059"/>
</g>
<g id="counters_00000155831629897369998050000010902328751353074356_">
	<g>
		<path stroke="#000000" stroke-width="3" stroke-miterlimit="10" d="M415.9,517.9c0.5,0.2,1,0.5,1.6,0.2c3-1.5,6-2.9,9-4.4
			c1.1-0.5,1.5-1.6,2.2-2.7c-0.7,2.3,1.5,2.2,2.4,3.1c2.9,2.9,5.8,5.8,8.7,8.7c0.7,0.7,1.5,1.4,2.9,2.6c-2-2.8-4-4.5-5.9-6.4
			c-1.1-1.1-1.4-1.8-0.2-3c2.7-2.6,5.3-5.2,7.9-7.9c1.1-1.2,1.8-0.9,2.8,0.2c1.7,1.9,3.6,3.6,5.5,5.3c-2.6-2.6-4.3-5.9-7.7-7.8
			c-0.7-0.4-0.6-3,0.6-4.3c0.7-0.8,1.4-1.5,2-2.4c-1.8,0.8-3,2.2-3.5,4.1c-0.2,0.6-0.3,1.3-1.2,1.3c-0.2,0-0.5-0.3-0.6-0.5
			c-0.4-0.7,0.2-1,0.6-1.4c4.9-4.6,9.4-9.6,15-13.5c3.2-2.2,5.2-5.5,7.7-8.4c5.2-6.1,10.5-12.1,16.9-16.9c1.8-1.4,3.1-3.3,4.5-5.2
			c3.2-4.4,7.2-8.1,11.4-12c2.8,4.9,5.5,9.8,8.4,14.6c0.5,0.9,0,1.3-0.5,1.6c-2.3,1.9-3.9,4.4-5,7.2c-1.2,3.1-3.1,0.2-4.7,0.7
			c0.5,0.3,0.9,0.7,1.4,1c0.6,0.4,1.6,0.5,1.2,1.6c-0.1,0.4-0.6,0.8-1,0.9c-0.9,0.2-1.2-0.7-1.6-1.3c-0.5-0.7-0.4-1.4,0.1-2.1
			c-1.4,1-1.5,1.2-0.5,2.7c0.9,1.4,1.5,2.6,0.4,4.3c1.2-1.1,2-1.3,3.1,0c1.6,1.7,3.6,3,6.2,3.5c-0.3-3.4-2.4-5.4-4.6-7.4
			c1.3,2,3.2,3.7,3.7,6.4c-2.5-0.7-4.1-2.5-5.9-3.9c-0.4-0.3-0.6-0.8-0.2-1.2c3.2-3.5,4-8.6,7.7-11.8c0.4-0.3,0.7-0.6,1.2-1
			c3.4,5.6,6.9,11.2,10.1,16.8c1.3,2.3,2.5,4.5,5.1,5.5l-0.1,0c-0.4-1,0.4-2.3-1.7-2.6c-1-0.1-0.6-2.7-1.6-4.1
			c-1.6-2.2-3.7-4.3-4.1-7.3c0-0.2-0.4-0.6-0.5-0.6c-2.7,1.4-2.6-1.4-3.3-2.5c-3.5-5.6-7-11.2-10.2-17.9
			c12.6,12.5,23.8,25.2,36.3,37c-0.2-1.2-1-1.7-1.6-2.2c-10.7-11-21.3-22-32-32.9c-1.8-1.8-1.9-2.9-0.1-4.6c3.1-2.9,6-5.9,8.9-8.9
			c-1.8-2.7-2.8,3.1-4.5,0c-0.1,1.1,1.2,1.3,0.6,2.4c-0.9,0.4-1.1-1.1-1.9-1c-0.9,1.2,1.1,1.6,0.7,2.8c-1.1,0.2-1.4-1.1-2.3-1.4
			c-0.9,1.4,1,1.7,0.9,2.7c-0.7,0.9-1.1-0.2-1.8-0.2c-0.7,0.7,1.4,1.1,0.2,1.7c-2.5-1.1-2.5-1.1-4.5,3.5c-0.8-4.4-3.2-7.2-5.1-10.2
			c-1.8-2.9-3.1-6.2-6.1-8.4c1.4-0.9,1.3,0.7,2.1,0.7c0.2-1.2-0.5-1.9-1.3-1.9c-3.2,0.2-1.9-3-3.1-4.3c-0.7-0.8,1.2,0,1.8-0.5
			c-1.2-2.2-4.4-1.3-5.6-3.5c0.8-0.4,1.1,1,1.8,0.2c-1-2-2-4.1-4.6-4.6c1.1-1.5,1.6,0.5,2.4-0.7c-1-1.5-2.8-1.1-4.1-1.7
			c-1.1-0.5-1.9-0.9-1.2-2.2c-0.5-0.5-1-1.1-1.8-1.3c-0.4-0.1-1-0.4-0.8-1c0.3-0.8,0.9,0.5,1.5-0.1c-0.3-0.9-1.1-2.1-1.5-2.4
			c-1.3-1-0.5-3.5-2-3.5c-2,0.1-1.9-1.4-2.7-2.3c-1,0.4-1.6,0.1-2.3-0.9c-1.9-2.8-2.5-6.2-4.3-9.2c3.4,1,3.4,1,4.9,4
			c0.3,0.7,0.5,1.7,1.2,1.8c2.5,0.4,3.4,2.4,4.4,4.4c1.2,0.4,2.5,0.3,3.5,1.6c2.8,3.7,6.9,6.3,8.6,10.8c1.2,1.2,2.1,2.8,4.5,1.8
			c-2.3-2.5-4.4-5-6.7-7.3c-4.4-4.4-8.8-8.7-13-13.3c-1.6-1.7-3.4-3.3-4.9-5.1c-0.5-0.6-1.2-1.3-1.9-0.4c-1.2,1.6-3,2.2-4.5,3.3
			c-0.2,0.2-0.5,0.5-0.6,0.5c-3.9-1.3-3.5,2.3-4.4,4.1c-0.9,1.9-2.7,2.8-4,4.3c-2.4,2.8-5.1,5.4-7.6,8.2c-0.9,1-1.6,1-2.5,0
			c-1.6-1.8-3.6-3.2-4.8-5.5c-2.3,2.3-4.9,4.9-7.5,7.4c-0.6,0.6-0.8,1.2-0.1,1.7c1.9,1.4,2.4,4.1,4.8,5.1c0.7,0.3,0.7,0.7,0.2,1.3
			c-1.4,1.6-2.8,3.1-4.2,4.7c-0.9,1-1.4-0.9-2.5,0c-0.5,0.5,1.2,0.8,0.4,1.7c-1.9-2.2-3.3-4.9-5.6-6.5c-0.2,2.2-1.3,3.7-4.6,3.5
			c2.4,1.5,3,3.7,5,4.5c-2.2-0.4-3.7-2.1-5.6-3.3c-0.1,0.2-0.3,0.5-0.4,0.7c2,1.3,3.9,2.6,5.9,3.9c1.4,0.9,1.6,1.6,0.3,2.8
			c-1.1,0.9-2,2.1-3.1,3c-1.6,1.5-2.9,4.4-4.7,4.2c-1.7-0.2-3-2.9-4.7-4.4c-1.3-1.1-0.9-1.8,0.1-2.8c1.7-1.6,3.4-3.4,5-5.2
			c-2.5,1.6-4.4,3.9-6.5,5.9c-1,0.9-0.7,1.5,0.2,2.3c1.8,1.7,3.6,3.5,5.1,5.5c-2.2-1-3.4-3-5.1-4.6c-0.5-0.5-0.9-1-1.4-1.4
			c-0.3-0.2-0.6,0.2-0.9,0.5c-0.5,0.7,0.2,0.5,0.4,0.7c1.6,1.5,3.1,3.1,4.7,4.6c0.7,0.7,1.4,1.2,0.3,2.3c-1.1,1.2-1.6,0.4-2.3-0.2
			c-1.4-1.4-2.8-2.8-4.3-4.3c-0.3-0.3-0.4-1.1-1-0.5c-0.5,0.5-0.2,0.9,0.3,1.4c7.7,6.4,6.3,4.1,0.9,10.4c-1.6,1.9-3.5,3.5-5.1,5.4
			c-1.2,1.4-2.7,2.5-4.6,2.3c-2.3-0.2-1.1,2.7-2.8,2.8c1.9,0.7,2.2-1.9,3.9-2c-2.7,5.1-2.7,5.2-5.6,5.5c1.5-0.6,1-1.7,0.8-2.6
			c-0.4-1.4,0.6-0.7,1.1-0.8c-1.5-0.9-2.4-1.8-2,1.2c0.2,1.9,0.4,4.6-1.9,6.3c-1.9,1.4-1.5,2.9,0.2,4.4c4.5,4.4,8.9,8.9,13.4,13.3
			c0.4,0.4,0.6,1.3,2,0.8c-1.8-1.2-1.4-4-4.2-4.1c-0.2,0-2.5-0.7-1-2.2c-4.5-2.5-7.2-6.7-10.8-10.1c0.9,0,1.6,1.1,2.4,0
			c0.9-1,0.1-2.1-0.2-3.2c2,0,1.2,1.5,1.7,2.2c1.4,1.9,0.5-1.7,1.5-0.7c0.1,0.1,0.2,0.1,0.2,0.2c0.1,1.6,2.1,1.5,2.4,2.9
			c0.9-0.1,2.1,0.3,2.3,0.8c1.1,3.8,4.1,5.7,7,7.9c1.7,1.2,4.4,1,5.1,3.6c1.5-1.3,2,0.1,2.4,1c0.3,0.6,0.6,1.2,1.2,1.5
			c1.5,0.6,3.9,3.4,4.2,4.8c0.1,0.6,3.2,2.3,3.6,1.9c0.3-0.3-0.8-0.8,0-1c0.6-0.2,0.9,0.5,1.2,1c0.3,0.5,0.9,1.2,1.4,1.4
			c3.1,0.9,4.6,3.6,6.9,5.4c4.7,2.4,6.7,4.5,7.1,7.7c-0.7-0.7-0.9-1.9-2.1-1.5c-0.3,0.9,1.4,1.2,0.5,1.9c-1,0.8-1.4-0.4-1.8-1.1
			c-0.1-0.2-0.4-0.4-0.6-0.6c-0.8,2.9-1.6-1-2.1-0.3c-0.7,0.9-0.4,1.2,0,1.5c0.9,0.8,0.9,2.6,0.4,2.6c-1.6,0-3.3,2.9-4.4,0.6
			c-1.3-2.5-4.4-2.9-5.6-5.7c-0.9-2-3.2-3.7-5.3-4.9c-1.7-1-2-3.3-3.4-3.9c-3-1.1-3.8-4.4-6.5-5.6c0.1-0.1,0.2-0.3,0.3-0.4
			c-0.9-1.2-2.6-1.1-3.8-2c4.6,4.6,9.2,9.2,13.8,13.8c2.7,2.7,5.3,5.4,8.1,8c1.7,1.7,1.9,2.9-0.5,4.1c-1.7,0.8-3.3,1.8-4.9,2.6
			c-1.1-0.9,0.5-1.9-0.3-2.8c-2.5,0.6-3.9,3.1-6.2,4.1c2.1,0.2,3.2-1.8,5.2-2.3C418.9,516.7,416.8,516.7,415.9,517.9z M433.6,512.4
			c-0.4,1.6,0.5,2.5,2,3c-1.7,1.1-2.4,0.1-2.9-0.9c-0.3-0.6-0.5-1.2-1.1-1.5c-2.6-1.3-0.8-1.7,0.5-2.2c0.9-0.9,1.8-2,2.6,0.1
			c0.5,1.3,1.5,0.5,2.2,0.2c-1.1-0.1-2.2-0.8-1.8-1.6c0.4-1,1.4-2.3,3-1.9c0.7-1.9,2-0.5,3-0.5c0.4,0,0.6,0.9,1.1,0.4
			c1.2-1.1,1.1-1.1,2.1-0.9c-1.1,1.1-2.3,2.1-3.2,3.2c-1,1.3-1.5,0.3-2.2-0.3c-0.8,0.8,1.2,1.4,0.3,2.1c-1,0.8-1.3-1-2.2-0.7
			c-0.1,0-0.1,0.1-0.2,0.2c0.3,0.9,1.9,1.7,0.2,2.9c-1,0.7-1.7,0.5-2.4-0.1C434.1,513.7,433.9,513,433.6,512.4z M445.6,407.1
			c3.7-3.7,7.1-7.1,10.5-10.5c2-2,4.8-2.3,6.3-0.6c3.5,4.2,7.1,8.4,10.3,12.9c8,11.2,15.7,22.6,23.7,33.9c1.2,1.8,1.1,2.7-0.3,4
			c-12.9,13.1-25.7,26.3-38.6,39.5c-5.2,5.4-10.4,10.8-15.6,16.2c-0.6,0.6-1.1,1.7-2.3,0.7c-3.2-2.5-6.6-4.8-9.7-7.4
			c-6.3-5.2-12.9-10.1-19.1-15.5c-5.1-4.4-10.5-8.6-15.7-12.8c-1-0.9-1.2-1.8-1.2-3.4c0-3.3,2-5.3,3.9-7.3
			C413.8,440.1,429.9,423.4,445.6,407.1z M437.5,407.8c0.7,0.8,1.1,1.2,1.4,1.7c0.7,0.9,2.3,1.4,0.6,3c-1.7,1.6-2.3,0.1-3.2-0.7
			c-1.2-1.1-2.2-2.3-3.1-3.6c-1-1.3,0.1-1.6,0.6-2.3c0.8-0.9,1.4-0.6,2,0.2C436.4,406.9,437.1,407.5,437.5,407.8z M420.9,422.9
			c0.6-0.4,1.1-1.9,2.1-0.6c1,1.4-0.9,1.8-1.3,2.7c-0.3,0.7-1.1,1.3-1.8,0.5C418.9,424.3,420.1,423.7,420.9,422.9z M434.8,413.6
			c-0.1-0.8-2.1-0.7-0.9-2.1c0.8-0.9,1.2,0.1,1.5,0.5c0.5,0.9,2.8,1.3,1.6,2.7C436,415.9,435.9,413.6,434.8,413.6z"/>
		<path stroke="#000000" stroke-width="3" stroke-miterlimit="10" d="M311.7,314c2.5-0.5,3.2-3.1,5-4.4c3.2-2.3,4.9-6.3,8.3-8.2
			c3.1-1.7,5.1-4.6,7.3-6.9c4.1-4.3,8.2-8.7,12.6-12.9c5-4.7,9.3-10.2,14.5-14.6c0.7-0.6,0.9-2.3,2.6-1.3c0.4,0.2,0.6-0.7-0.2-1.4
			c-1-0.8-2.6-1.2-2.7-3.4c7.2,7.2,14.1,14.1,21.4,21.4c-2.5-0.9-3-3.2-4.8-4c-0.2,0.2-0.4,0.4-0.6,0.6c7.6,7.6,15.3,15.3,23.4,23.4
			c-4.3-5.6-9.6-9.5-13.7-14.5c0.2-0.2,0.4-0.3,0.6-0.5c8.2,8.2,16.3,16.3,24.8,24.8c-2.8-0.1-3.3-2.7-5.7-3.6
			c4.5,4.5,8.5,8.7,12.7,12.6c6.3,5.9,12.3,12.2,18,18.8c1.3,1.4,2.5,3,4,4.1c2.3,1.7,1.5,3,0,4.5c-4.2,4.1-8.3,8.3-12.4,12.4
			c-0.9,0.9-1.8,1.9-2.3,3.1c5-5,10.2-10,15.1-15.2c1.9-2.1,2.9-1.7,4.6,0.1c4.8,5,9.8,10,14.8,14.8c2.4,2.3,5.5,3.9,6.8,7.2
			c-0.2,0-0.4,0.2-0.5,0.1c-1.4-0.9-2.5-3.5-3.8-2.9c-2,0.9-3.6,3.1-5.1,4.9c-0.9,1.1,0.4,1.8,1,2.2c2.4,1.7,1.7,3,0,4.7
			c-13.5,13.4-27.1,26.6-40.2,40.5c-9.3,9.9-19.2,19.2-28.4,29.1c-4.6,4.9-9.1,9.8-13.8,14.5c-0.6,0.6-1.6,1.3-0.4,2.3l-0.1,0
			c0.7-2,2.2-3.3,3.7-4.7c12.1-12.1,23.8-24.5,35.7-36.7c7.8-8,15.3-16.5,23.7-23.9c7.1-6.2,13.3-13.4,20.2-19.7
			c3.5-3.2,6-7.4,10-10.2c1.3-0.9,1-2.1,0-2.9c-7.1-6-13.1-13.3-19.9-19.7c-6.6-6.2-12.4-13.1-19.3-19c-0.2-0.2-0.4-0.3-1.1,0
			c11.7,11.7,23.4,23.4,35.1,35.1c-0.2,0.2-0.4,0.4-0.5,0.6c-1.9-1.6-4.2-2.8-5.6-4.7c-3-4.2-7.3-6.9-10.7-10.5
			c-5.8-6.1-11.7-12.2-17.4-18.3c-0.8-0.9-2.8-1.6-1.5-3.6c0.1-0.1-0.7-1.1-0.8-1c-1.9,0.8-1.4-2.8-3.3-1.8c-0.8-4-4.5-5.9-6.9-8.5
			c-6-6.4-12.2-12.4-18.4-18.6c-4.3-4.3-8.5-8.8-13.1-12.7c-2.4-2.1-4.2-4.7-6.5-6.9c-2.6-2.4-4.9-5.1-7.3-7.6
			c-2.4-2.4-4.9-4.7-7.4-7.1c-2.5-2.4-4.9-4.9-7.4-7.4c-0.4,0.7-0.2,2.6-1.7,0.8c-1.2-1.4-2.3-2.9-4.3-4c1.6,2.9,4.3,4.4,6.1,6.6
			l4.3,4.6c0.2,1.1-0.8,1.5-1.3,2c-15,15.1-30,30.1-44.9,45.1C313,312.3,312,312.9,311.7,314L311.7,314z M461.2,368.9
			c0.3,0.1,0.5,0.3,0.8,0.4c-1.2,0.7-2,2-1,2.8c1.2,1,1.2-0.8,1.8-1.4c0.3-0.3,0.7-0.2,1.1,0.1c-1.2,1.5-2.3,3-3.5,4.4
			c-0.6,0.7-1.5,0.9-2.2,0.1c-0.4-0.4-1.4-0.8-0.9-1.5C458.5,372.1,459.9,370.5,461.2,368.9z M421.1,323.2c-3.6-1.9-7.8-6-8.6-8.6
			C415.6,317.6,418.3,320.4,421.1,323.2z"/>
		<path stroke="#000000" stroke-width="3" stroke-miterlimit="10" d="M531.8,502.1c2.8,5.6,6.8,10.3,11,14.8c2.7,2.9,5.2,5.9,8,8.5
			c1.2,1.1-0.1,1.6-0.1,1.5c0.5,1.7,2-1.9,1.6,1.2c-0.1,1,0.7,1.3,1.2,1.8c0.5,0.4,0.8,0.9,0.2,1.4c-0.5,0.5-1,0.1-1.5-0.2
			c-1-0.6-1.2-2-2.5-2.3c0,1.5,1.4,2,2.1,2.9c0.9,1.1,0,1.5-0.6,2.1c-7,7.1-14.1,14.1-21.1,21.2c-1.4,1.4-2,0.5-3-0.3
			c-1.2-1.1-0.8-1.7,0.2-2.7c6.6-6.5,13.1-13.1,19.7-19.7c0.5-0.5,1.1-0.8,1.1-1.8c-4.6,4.6-9,9-13.5,13.4c-3.4,3.4-7,6.8-10.3,10.4
			c-1.6,1.7-2.5,1.3-3.9-0.1c-2.1-2-3.8-4.6-6.9-5.8c0.1,2,0.8,3.1,2.6,3.5c0.7,0.2,1.4,0.3,2,0.8c1.9,1.6,2.8,2.8,0.4,4.9
			c-3.1,2.7-5.9,5.8-8.7,8.7c-0.7,0.7-1.3,1.1-2.1,0.2c-1.1-1.2,0.5-1.2,0.8-1.4c1.5-0.9,0.7-2.8,2.2-3.9c1.1-0.8,1.4-2.4,3.3-2.7
			c1.4-0.2,1.3-2.2,1.7-3.3c0.4-1.1-0.9-1.2-1.6-1.5c-1.7-0.7-2.8-2.6-4.9-2.4c0.5,0.4,1.1,0.8,1.6,1.1c2,1.1,3.4,2.1,0.7,4.1
			c-1.4,1-2.5,2.4-3.7,3.6c-0.8,0.9-1.1,0.7-1.8-0.3c-1.5-2-2-4.5-3-6.7c-0.3,2.3,0.5,4.3,1.8,6.1c1.1,1.5,2.3,3.1,0.4,5
			c-1.5-0.6-2.2-2.3-3.8-2.9c1.7,1.7,3.5,3.5,5.2,5.3c0.5,0.5,1.6,1,0.7,2.1c-1.9,2.3-4.8,3.7-5.7,6.9c-0.2,0.5-1.4,0.8-2.2,1.2
			c2.7,0.2,4.1-0.8,10.5-7.5c-1.8,0.3-2.5,1.6-3.5,2.5c-1,0.9-1.9,1.9-2.9,2.9c-0.2-0.2-0.3-0.3-0.5-0.5c6-6,12-12,18-18
			c0.2,0.2,0.4,0.4,0.6,0.5c-3.7,3.7-7.4,7.4-11.1,11.1c4.4-2.9,7.7-7,11.7-10.5c0.7,3.4,0.1,6-2.6,8.3c-4.1,3.6-7.8,7.7-11.7,11.5
			c-1.3,1.2-1.2,1.9,0,3.2c4.9,5,4.9,5.1,9.9,0.1c20.3-20.3,40.6-40.6,61-60.9c2-2,2-3.1,0-5c-4.2-4-4.1-4.1-8.3,0.1
			c-2.7,2.7-5.6,5.3-8.1,8.2c-2.5,2.9-5.3,4.7-10.1,3.5c4.3-4.3,8.2-8.2,12.2-12.2c2.7-2.7,5.3-5.5,7.8-8.4c2.3-2.8,2.5-5.4,0.1-8.1
			c-0.6-0.7-1.3-1.3-2.2-2.3c-0.2,1.4,0.5,1.7,1.1,2.3c2.7,2.3,2.8,5.3,0.3,7.8c-0.9,1-1.9,1.9-2.8,2.9c-0.6,0.6-1,1.6-2.3,0.6
			c-1-0.7-1.6,0.7-2.2,1.3c-1.1,1.3-1.9,1.2-3,0c-1.7-1.8-3.5-3.5-5.6-4.8c1.7,1.7,3.4,3.6,5.3,5.2c1.2,1.1,1.1,1.9-0.1,3
			c-2.3,2.2-4.6,4.5-6.4,7.2c3.2-3.2,6.4-6.5,9.7-9.7c0.6-0.6,1.2-2.1,2.1-1.2c0.9,0.8-0.3,1.7-0.9,2.3c-4.4,4.5-8.9,8.9-13.5,13.5
			c-0.9-2.2,2.1-2.5,1.9-4.2c-1,0-1.2,0.9-1.7,1.3c-1.8,1.8-2.7,1.8-3.4-0.6c-0.7-2.1-1.2-4.1-4.1-3.6c-0.2,0-0.6-0.4-0.8-0.7
			c-3.5-4.1-7.2-8.1-10.2-12.7c-0.6-0.9-0.1-2.2-1.1-2.8C532.5,502,532.1,502,531.8,502.1z M525.2,560.8c0-0.3-0.1-0.5-0.1-0.8
			c-0.5-0.4-1-0.8-0.4-1.4c1.4-1.2,2-2.1-0.2-2.9c-0.5-0.2-0.3-0.4-0.2-0.6c0.3-0.3,0.8-1,1-0.9c1.2,0.4,2.8,2.1,2.5,2.3
			c-1.8,1.9,0.4,2.4,1,3.3c1.6,2.3,1.1,4-1.3,4.3c0.6,0.4,1.1,0.9,2,0.3c1.7-1.2,1.9-2.9,0.1-4.5c-1.6-1.4-1.6-2.3-0.1-3.8
			c7.8-7.6,15.5-15.4,23.2-23.1c1.4-1.4,2.1-1.5,3.5,0c2.1,2.2,3.9,1.8,5.3-0.9c1.2-2.3,0.7-4.3-1.8-6c3.8-3.8,7.6-7.6,11.4-11.4
			c3.4-3.4,3.3-3.3,6.8-0.1c2.2,2,1.7,3-0.1,4.9c-20.2,20.1-40.4,40.3-60.6,60.5c-4.2,4.2-4.1,4.1-8.3-0.2c-1.1-1.2-1.2-1.8,0-3
			c4.1-4,8.1-8.1,12.2-12.2c0.7-0.7,1.3-2.1,2.3,0.1c0.5,1.2,1.9,1.1,2.6-0.4C525.5,563.2,524.7,562.2,525.2,560.8z M555.1,528.3
			c1.2,2.4,3.4,3.1,5.6,4c-0.4,0.6-0.5,1.2-1.7,1c-1.8-0.3-2.8-1.5-4.1-2.5c-1.4-1.1-0.6-2.7-0.3-3.2c0.9-1.3,2.7-0.7,4-0.5
			c1.1,0.2,0.5,1.4,0.6,2.3C557.7,529.2,556.9,527.9,555.1,528.3z M508.4,561.8c-0.2-0.2-0.4-0.4-0.6-0.6c2.4-2.2,4.2-5,7.4-6.3
			C513,557.2,510.7,559.5,508.4,561.8z"/>
		<path stroke="#000000" stroke-width="3" stroke-miterlimit="10" d="M199.5,300.8c0.3-0.2,0.6-0.4,0.8-0.7c1-1.3,1.8-2,2.5,0.3
			c0.5,1.5,1.5,2.9,3,3.7c0.3-0.9-0.5-1.1-0.8-1.6c-2.7-3.9-2.6-4.8,0.7-8.2c9.8-9.8,19.5-19.6,29.3-29.3
			c10.9-10.9,21.8-21.7,32.7-32.6c9.4-9.4,18.7-18.8,28.1-28.2c2.6-2.7,3.2-2.4,5.7,0.2c2.3,2.3,5.2,3.9,7.4,6.4
			c0.8,1,2,1.7,2.9,3.7c-2.6-2.6-4.8-4.8-6.9-6.9c-0.2,0.2-0.4,0.4-0.6,0.6c3.2,3.2,6.4,6.4,9.7,9.7c1.5,1.5,2.8,3.1,4.4,4.4
			c1.4,1.2,1.2,1.9,0,3.1c-6.7,6.7-13.4,13.5-20.1,20.3c-0.9,0.9-1.7,1.7-2.8,2.8c1.7,0.3,2.5-0.9,3.2-1.7
			c6.5-6.8,12.9-13.7,19.6-20.4c1.5-1.5,2.7-3.1,4.8-0.7c-2.3-2.3-4.7-4.7-7-7c0.2-0.2,0.3-0.3,0.5-0.5c1.6,1.6,3.2,3.2,5,5
			c0-2-1.4-2.3-2.2-3.1c-5.9-5.9-12-11.8-17.9-17.8c-1.7-1.7-2.9-2.1-4.5-0.1c-0.8,1-1.6,1.7-3.4,1.6c-2-0.1-3.8,2.4-4.8,4.4
			c-0.5,1-1.2,1.9-2,2.7c-5.7,5.8-11.5,11.5-17.2,17.3c-1.4,1.5-3.4,2.1-4.7,3.7c-8.3,10.2-18.3,18.9-27.4,28.3
			c-1,1-2.2,1.7-3.3,2.5c-1.9,1.3-3.9,2.6-3.9,5.9c0,1.7-2.7,3.9-4.9,4.7c-0.9,0.3-1.6,0.7-2.2,1.3c-4.2,4.1-8.3,8.2-12.4,12.3
			c-1.1,1.1-2.4,1.9-3.5,2.9c-1.6,1.5-4.4,2.4-3.7,5.6c0.1,0.6-1.4,1.4-2,2.3C200.8,298.8,199.2,299.1,199.5,300.8L199.5,300.8z
			 M288.4,210.3c0.1,0.1,0.1,0.1,0.2,0.2c-6.8,6.8-13.6,13.6-20.3,20.3c-0.1-0.1-0.1-0.1-0.2-0.2
			C274.8,223.8,281.6,217.1,288.4,210.3z M223.7,275.3c-3.3,3.3-6.6,6.6-9.9,9.9C216.7,281.5,220.1,278.4,223.7,275.3z M262.6,236.1
			c0.1,0.1,0.1,0.1,0.2,0.2c-3.1,3.1-6.1,6.1-9.2,9.2c-0.1-0.1-0.1-0.1-0.2-0.2C256.5,242.2,259.6,239.1,262.6,236.1z"/>
		<path stroke="#000000" stroke-width="3" stroke-miterlimit="10" d="M374.5,466.3c-0.5-0.2-1.2-0.7-1.6-0.1
			c-1.4,1.9-2.7,2.1-4.3,0.1c-0.6-0.7-0.9,0-1.3,0.4c-1.1,1,1,0.9,0.5,1.9c-1-0.6-2.8-0.6-1.3-2.5c0.3-0.4,0.4-0.8-0.1-1.2
			c-4.7-4.7-8.7-10.2-14-14.6c1.2,3,3.3,5.1,5.6,6.9c2.3,1.9,3.7,4.8,6.3,6.3c0.6,0.3,1.3,1.2,0.6,1.9c-0.8,0.7-1.3-0.3-1.8-0.8
			c-1.7-1.7-3.5-3.5-5.7-4.8c3.8,3.8,7.5,7.6,11.4,11.3c1.3,1.2,2.9,1.7,4.4-0.3c0.9-1.3,2.9-1.8,2.9-3.8c0-0.1,0.2-0.3,0.4-0.4
			c4.8-2.3,6.2-3.4,10.7-8.8c1-1.2,2-2.3,3-3.4c0.7-0.8,1.8-1.4,0.6-2.6c-0.7-0.7,0-1.2,0.4-1.6c1-1,2-2,2.8-3.2
			c-6.1,6-12.6,11.7-18.1,18.2c-0.4,0.5-0.6,1.3-1.4,1.2C374.4,466.3,374.5,466.3,374.5,466.3z M384.2,459.5
			c-1.7,1.9-3.5,3.8-5.2,5.7c-0.5,0.6-0.9,1.3-1.8,0.6c-1.1-0.8,0-1.4,0.4-1.8c3.6-3.8,7.3-7.5,10.9-11.3c0.4-0.4,0.8-1.3,1.6-0.6
			c0.8,0.8,0.1,1.4-0.5,1.9C387.9,455.9,386.1,457.7,384.2,459.5z"/>
		<path stroke="#000000" stroke-width="3" stroke-miterlimit="10" d="M535.7,461c11.3,11.3,22.6,22.6,33.9,33.9
			c0.1-0.1,0.2-0.1,0.3-0.2c-1.9-1.9-3.6-3.8-5.6-5.6c-3.6-3.2-6.3-6.9-8.1-11.3c-0.2-0.5-0.7-0.7-0.3-1.4c1.4-2.4,0.6-4.7-1.6-6.2
			c-2-1.4-3.9-2.1-6-0.4c-2.4-2.1-6-2.2-8.1-4.8c-1.3-1.5-2.8-2.8-4.2-4.2C535.9,460.9,535.8,461,535.7,461z M548.7,472.1
			c0.4-0.9,0.5-2.4,1.9-1.1c1.4,1.3,2.7,2.6,4,4.1c1.1,1.2,0.7,1.8-0.9,1.7c-0.1,0-0.2-0.1-0.2-0.2c0,0.1,0,0.2,0,0.3
			c0.5,1.2,2.3,1.5,2.3,3.3c-3.7-3.7-7.2-7.2-10.9-10.9C547.2,469.2,547,471.8,548.7,472.1z"/>
		<path stroke="#000000" stroke-width="3" stroke-miterlimit="10" d="M302.9,399.8c1.9,1.9,3.8,3.8,5.8,5.8
			c-3.1-2.7-0.3-4.2,1.3-5.7c20.9-21.6,42.1-42.9,63.3-64.1c0.5-0.5,0.9-1,1-1.8c-3.9,3.9-7.8,7.8-11.7,11.7
			c-18.3,18.3-36.6,36.7-54.8,55.1c-1.3,1.3-2,1.3-3,0c-0.4-0.5-0.9-0.9-1.4-1.4C303.1,399.4,303,399.6,302.9,399.8z"/>
		<path stroke="#000000" stroke-width="3" stroke-miterlimit="10" d="M213.9,310.8c0.3,1.5-1.1,3,0.4,4.1c-1,0.6-1.2-0.5-2-0.6
			c9.2,9.2,18.2,18.2,27.2,27.2c0.2-0.2,0.4-0.4,0.5-0.5c-8.2-7.3-15.3-15.7-23.8-23.5c1.6-0.1,2.8-0.2,4.1-0.3
			C218.1,315.1,216,313,213.9,310.8z"/>
		<path stroke="#000000" stroke-width="3" stroke-miterlimit="10" d="M476.7,508.5c-0.6-2-1.8-3.5-3.3-4.8c-1.1-1-0.9-1.6,0.1-2.5
			c1.5-1.5,3.6-2.2,4.9-4.4c-1,0.6-1.7,0.9-2.3,1.4c-2.6,2.1-4.9,5.4-9.2,1.5c2.3,3.7,0.8,5.4-2,6.9c-1.4,0.7-2.7,2-3.4,3.4
			c-1.6,2.9-3.3,4-6,1.3c-0.2-0.2-0.9-0.4-1.3,0.5c3.8,2.2,7.6,4.4,11.8,6.8c-1-1.9-2.6-2.3-3.9-3c-1.7-1-2.3-1.7-1-3.8
			c1.8-2.8,4.1-4.7,6.8-6.4c0.9-0.6,1.5-0.5,2.3,0.5c1.5,1.8,3.3,3.3,5.8,3.4c-1.6-1-3.3-1.9-4.6-3.4c-0.5-0.6-1.6-1-0.6-2.1
			c0.9-0.9,1.5-0.3,2.2,0.3C474.5,505.3,475,507.4,476.7,508.5z"/>
		<path stroke="#000000" stroke-width="3" stroke-miterlimit="10" d="M266.9,362.8c-0.3-1.5,0.3-2.4,1.3-3.2
			c3.4-2.9,6.5-6.1,8.9-10.2c-3.7,2.8-6.3,6.3-9.2,9.6c-1.6,1.8-2.7,2-4.1,0c-1.1-1.7-1.1,0-1.4,0.5c-1-0.1-0.4-1.1-0.8-1.6
			c-0.5-0.5-0.1-1.8-1.1-1.7c-1.5,0.2-0.4,0.8-0.1,1.3c-1.3-0.4-2.7,1.1-4-0.3c-3.2-3.3-6.4-6.5-10-9.4c6,6,12,12,18.2,18.2
			c-0.3-1.6-1.8-1.9-2.3-3c-0.3-0.7-2-1.1-0.6-2.2c0.9-0.7,1.9-1.7,3.1-0.1C265.3,361.4,266.1,362.1,266.9,362.8z"/>
		<path stroke="#000000" stroke-width="3" stroke-miterlimit="10" d="M287.9,256.7c-12.3,12.2-24.3,24.7-36.4,37.1
			C264,281.8,276.4,269.7,287.9,256.7z"/>
		<path stroke="#000000" stroke-width="3" stroke-miterlimit="10" d="M240.2,337.4c0.7-1.3-0.7-1.7-1.2-2.2c-4-4.1-8-8.2-12.1-12.2
			c-1.7-1.6-1.7-2.7,0.1-4.4c5.4-5.2,10.5-10.7,16-15.8c2.5-2.3,4.4-5.1,6.7-7.6c-3,3-5.9,5.9-8.9,8.9c-5.1,5.1-10.1,10.1-15.3,15.1
			c-1.3,1.2-1.5,2-0.1,3.3c3.4,3.1,6.8,6.2,9.9,9.6c1.1,1.2,2.7,2.1,2.5,4.4C237.6,338,239.6,336.2,240.2,337.4L240.2,337.4z"/>
		<path stroke="#000000" stroke-width="3" stroke-miterlimit="10" d="M366.9,422.9c-6.7,5.6-12.1,12.6-18.3,18.7
			c-1.5,1.5-2.3,1.6-3.8,0c-3.7-3.9-7.6-7.7-11.9-11c5.6,5.6,11.2,11.2,17,17c0-0.5,0.1-0.7,0-0.8c-2.7-3-2.7-3,0.2-6
			c4.5-4.6,9.1-9.1,13.7-13.6C365,426,365.4,424.1,366.9,422.9z"/>
		<path stroke="#000000" stroke-width="3" stroke-miterlimit="10" d="M470.4,554.4c-0.2,3.1,3.4,2.2,3.8,4.6c-2.8-0.5-4-2.8-5.8-4.3
			c-0.4-0.3-0.2-1.6-1.2-1c-0.6,0.3-0.9,1-0.9,1.7c0,1.7,3.9,6,5.5,5.5c2.3-0.7,4.1,0.6,6.4,0.6C476,558.6,473.3,556.7,470.4,554.4z
			"/>
		<path stroke="#000000" stroke-width="3" stroke-miterlimit="10" d="M478.6,489.9c-1.2,0.8-2.4,1.5-3.4,2.4
			c-0.9,0.8-0.4,1.8,0.1,2.6c0.5,0.8,1.3,1.2,2.2,0.5c5.4-3.9,10.4-8.3,14.2-13.8c1.1-1.6,0.3-2.5-0.8-3.3c-1.3-0.9-1.7,0.3-2.4,1.1
			C485.5,483.1,482.5,487,478.6,489.9c1.2,0,2-0.9,2.8-1.7c2.8-2.4,4.9-5.5,7.4-8.3c0.4-0.5,0.9-1.4,1.8-0.6
			c0.9,0.8,0.5,1.3-0.1,2.1c-3.4,5.2-7.9,9.2-12.8,12.8c-0.6,0.4-1.2,0.9-1.7,0.3c-0.5-0.6-0.5-1.3,0.1-2
			C477,491.7,478.3,491.3,478.6,489.9z"/>
		<path stroke="#000000" stroke-width="3" stroke-miterlimit="10" d="M470.8,521.7c9.3,5.8,18.3,12,28.4,16.2
			C489.8,532.5,480.5,526.7,470.8,521.7z"/>
		<path stroke="#000000" stroke-width="3" stroke-miterlimit="10" d="M324.8,227.3c5.1,6.2,10.8,11.8,16.7,17.3
			c0.4,0.4,0.8,1.3,1.6,0.8c0.2-0.1,0.4-0.5,0.4-0.7c-0.4-0.6-0.7-1.4-1.6-1.2c-0.5,0.2-1.1,0.3-0.9-0.4c0.7-2.2-1.7-2.1-2.2-3.5
			c-0.4,0.7,0.8,0.9,0,1.8c-3.7-6.7-9.7-11.2-15.1-16.2c4,4,8,8,12,12c-0.2,0.2-0.3,0.3-0.5,0.5
			C331.8,234.2,328.3,230.8,324.8,227.3z"/>
		<path stroke="#000000" stroke-width="3" stroke-miterlimit="10" d="M500.8,565c-1.7-0.9-2.3,0.3-2.6,1.5c-0.8,3.2,1.7,3.8,3.8,4.6
			c2.1,0.9,2.6-1.2,3.4-2.2c1-1.2-1.8-3.9-4-4c2.5,2.7-1.5,2.7-1.5,4.8C498,567.3,499.1,566.1,500.8,565z"/>
		<path stroke="#000000" stroke-width="3" stroke-miterlimit="10" d="M292.2,375.9c-0.2-0.3-0.4-0.7-0.7-0.8c-1-0.4-5.3,2.6-6,4.5
			c-0.6,1.7,0.8,2.8,1.9,4c0.5,0.5,1.1,0.4,1.5-0.1c1.6-1.6,3.2-3.2,4.7-4.9c0.6-0.7-0.1-1.2-0.5-1.7c-1.1,2.3-2.5,4.5-4.5,5.8
			c-1.7,1.1-1.8-0.9-2.1-2.1c1.2,1.1,2,0.2,3.1-0.1c1.4-0.5,0.1-1,0.3-1.5c0.4-1.4-1.7,0.5-1.5-0.9c0.2-1.1,1.3-0.1,1.8-0.8
			c0.6-0.8-0.5-0.6-0.4-0.7C290.3,374.6,291.3,376,292.2,375.9z"/>
		<path stroke="#000000" stroke-width="3" stroke-miterlimit="10" d="M380.3,292c3.1-3.1,3-3,0.8-5.2c-0.8-0.8-1.5-0.9-2.2-0.1
			c-1.5,1.6-3.1,3-4.4,4.8c-1,1.3,0.9,1.8,1.5,2.6c0.6,0.8,1.3,1,2.1,0.2C378.8,293.4,379.6,292.7,380.3,292z M381.6,289
			c-1.1,1.2-2.1,2.5-3.2,3.7c-0.5,0.6-0.8,1.8-1.9,1c-0.6-0.5-1.5-0.9-1.5-1.9c1.6,0.6,0.8-2.4,2.6-1.7
			C379.2,290.7,380.4,289.8,381.6,289z"/>
		<path stroke="#000000" stroke-width="3" stroke-miterlimit="10" d="M246.8,336.2c-0.4,0.4-0.8,0.8-1.2,1.2
			c-1.3,1.2-2.2,2.2-0.3,3.8c1.6,1.4,2.7,2.4,4.3,0.3c0.6-0.7,1.3-1.3,2-2c2.3-2.5,2.1-3.9-0.9-5.8c-0.8-0.5-1.2-0.3-1.7,0.3
			C248.3,334.7,247.6,335.5,246.8,336.2z M248.7,338.3c-1.2-0.2-2,0.4-2.5,1.2c-0.3,0.5-0.6,0.8-1.1,0.4c-0.2-0.2-0.2-0.8,0-1
			c1.3-1.4,2.5-2.8,3.9-4.1c1.4-1.3,2.2,0.1,2.5,1c0.8,2.5-2.1,5.8-4.8,5.7C247.5,340.5,248.5,339.6,248.7,338.3z"/>
		<path stroke="#000000" stroke-width="3" stroke-miterlimit="10" d="M417.1,328.7c-0.1,0.2-0.2,0.2-0.2,0.3c-2.6,2.9-2.4,3.5,1,5.4
			c0.7,0.4,1,0.2,1.5-0.2c0.8-0.8,1.6-1.7,2.4-2.4c1.7-1.4,2.6-2.7,0.4-4.5c-2.1-1.7-3.3-1-4.6,0.9
			C417.5,328.4,417.3,328.5,417.1,328.7z M423,328.6c-1,1.4-1.8,2.7-2.7,3.8c-0.6,0.7-1.2,1.6-2.4,1c-1.2-0.6-1.1-2.1-0.9-2.8
			c0.4-1.4,1.6-2.4,2.9-3.2c0.2-0.1,0.6,0,0.8,0.1c0.3,0.3,0.3,0.8-0.1,0.9c-0.7,0.2-1.2,0.5-0.8,1.1c0.5,0.7,1,0,1.4-0.4
			C421.6,329,421.8,328.3,423,328.6z"/>
		<path stroke="#000000" stroke-width="3" stroke-miterlimit="10" d="M296.5,206.5c-0.5,0.6-0.9,1.4-1.5,1.9c-1.2,1-1.4,1.7-0.1,3
			c1.2,1.3,2.2,1.3,3.3,0.2c0.6-0.5,1.1-1.1,1.6-1.6c1.8-1.4,1.6-2.6,0.1-4.2C298.1,203.7,297.6,206,296.5,206.5z M299.5,206
			c-1.1,1.4-3.4,1.6-2.5,3.1c1.2,2,1.5-1.6,2.9-0.8c-1,1-1.6,2.4-3.4,2.1c0.3,0.7,0.6,1.6-0.7,1.1c-0.6-0.2-1.6-1.2-1.1-1.7
			C296.2,208.5,296.8,206.3,299.5,206z"/>
		<path stroke="#000000" stroke-width="3" stroke-miterlimit="10" d="M328.5,430.4c0.4-1.2-1.5-1.7-0.3-2.5c1.7-1.1,1.8,1.6,3.5,1.4
			c-2.4-2.4-4.6-4.6-6.9-6.8c-0.2-0.2-0.4-0.5-0.7-0.5c-3.1-0.2-3.1-0.2-5.6-1.9c2.1,2.1,4.2,4.2,6.4,6.4c-0.4-1-1-2-1.1-3.4
			C326.8,424.7,325.4,428.9,328.5,430.4z"/>
		<path stroke="#000000" stroke-width="3" stroke-miterlimit="10" d="M311.7,314.1c-3.6,2.8-6.5,6.3-9.7,9.5c-2.1,2.1-4.1,4.1-6,6.5
			c3.6-2.3,6.5-5.4,9.2-8.6C307.4,319.1,310.8,317.6,311.7,314.1C311.7,314,311.7,314.1,311.7,314.1z"/>
		<path stroke="#000000" stroke-width="3" stroke-miterlimit="10" d="M288.8,385.5c-1.3,0.1-1.3-0.9-1.8-1.5
			c-3.7-4.1-6.7-8.8-10.7-12.5c-1.1-1-2.1-2.1-3.4-3c2.6,2.9,5.2,5.8,7.6,8.9c1.2,1.5,3,2.5,3,5.1c0,1.1,2.3,2.7,3.4,4.2
			C287.3,387.3,288.1,386,288.8,385.5z"/>
		<path stroke="#000000" stroke-width="3" stroke-miterlimit="10" d="M240.2,337.4c0.7,1.6,4.1,2.8,0.4,4.8c1,0.5,1.2-0.6,2.1-0.7
			c-0.6,1-1.7,2.1,0,3c0.4-0.7-1-1.6,0.3-2.1c0.2-0.1,0.5-0.2,0.7-0.2c-0.3,0.9,1.1,1.4,0.3,2.6c-0.8,1.1,0.9,2,1.2,1.7
			c2-2.5,3.2-0.2,4.6,0.7C246.6,343.8,243.4,340.6,240.2,337.4C240.2,337.4,240.2,337.4,240.2,337.4z"/>
		<path stroke="#000000" stroke-width="3" stroke-miterlimit="10" d="M491.6,416.3c1.8,7.4,10.2,8.6,13.3,14.8
			c-0.3-1.9-3.7-5.8-6.5-8C495.9,421.1,493.6,418.9,491.6,416.3z"/>
		<path stroke="#000000" stroke-width="3" stroke-miterlimit="10" d="M332.8,250.9c1.8,0.1,2.3,2.7,3.7,1.7c1.9-1.2,3.5-3,4.8-4.8
			c0.6-0.8-1-1.9-1.6-2.7c-0.6-0.8-1.3,0.2-1.8,0.7C336.3,247.4,334.7,249,332.8,250.9z M340.6,247.3c-1.2,1.4-1.9,3-3.5,3.9
			c-0.5,0.3-0.9,1.1-1.6,0.5c-0.7-0.5-0.3-1.3,0-1.8C336.7,248.1,338.7,247.9,340.6,247.3z"/>
		<path stroke="#000000" stroke-width="3" stroke-miterlimit="10" d="M316.3,413.1c-5.8-0.7-9.1-4.8-13-8.3
			c4.4,4.4,8.8,8.8,13.2,13.2c-0.8-1.6-2.7-2.7-2.2-4.7C314.6,412.3,315.5,413.3,316.3,413.1z"/>
		<path stroke="#000000" stroke-width="3" stroke-miterlimit="10" d="M331.2,416.8c-1.2,1.2-2.1,2.2-3.1,3.1c-1.9,1.5-1.8,2.8,0,4.3
			c1.1,0.9,1.8,1.7,2.9,0c0.3-0.5,0.9-0.9,1.5-1.4c1.7-1.3,2.2-2.6,0.1-4C331.8,418.4,331.6,417.7,331.2,416.8z M328.3,420.9
			c1-0.9,1.2-2.9,3.1-2.5c0.8,0.2,2.2,1.4,1.6,2.4c-0.7,1.4-1.9,2.9-3.4,3.2c-1.1,0.3-1.9-1-2-2.6c0.7,2.4,1.6,1.5,2.4,0.5
			c0.4-0.5,1.6-0.9,0.7-1.8C329.5,419.1,329.5,421.2,328.3,420.9z"/>
		<path stroke="#000000" stroke-width="3" stroke-miterlimit="10" d="M465.5,547c-0.8,0.4-1.4,1.1-0.9,1.8c0.7,0.9,0.4-0.7,1-0.7
			c0.6,0,0.8,0.4,1.1,0.7c4.6,4.6,9.2,9.2,13.8,13.8c0.3,0.3,0.6,0.5,0.9,0.3C476,557.7,470.7,552.4,465.5,547L465.5,547z"/>
		<path stroke="#000000" stroke-width="3" stroke-miterlimit="10" d="M386.2,322.8c2.1-2.1,4.2-4.2,6.3-6.3c2.8-2.8,5.7-5.6,8.5-8.5
			c0.9-0.9,1.7-1.8,2.7,0.1c-1.1-3-1-3-3-1c-4.3,4.4-8.7,8.7-13,13c-0.7,0.7-1.3,1.5-2,2.2C385.8,322.5,386,322.6,386.2,322.8z"/>
		<path stroke="#000000" stroke-width="3" stroke-miterlimit="10" d="M555.9,512.1c-2,1.2-3.1,3.2-4.7,4.7c-0.9,0.9-1.3,1.5-2.4-0.1
			c-1.2-1.7-1.6-3.8-2.7-5.4c-0.4,3.4,2.4,5.5,3.5,8.4c0.4,1,1.9,0.1,2.6-0.7c1-1.2,1.8-2.5,2.5-4c-1.3,1.3-2.7,2.7-4,4
			C551.7,516.1,555.1,515.1,555.9,512.1z"/>
		<path stroke="#000000" stroke-width="3" stroke-miterlimit="10" d="M281.8,345.6c4.4-4.4,8.8-8.8,13.1-13.1
			c-0.2-0.2-0.3-0.3-0.5-0.5c-4.4,4.4-8.8,8.8-13.1,13.1C281.4,345.2,281.6,345.4,281.8,345.6z"/>
		<path stroke="#000000" stroke-width="3" stroke-miterlimit="10" d="M349.2,251.9c-1.3-1.3-2.7-2.7-4-4c3.3,2,5.6,5.2,8.9,7.3
			c-3.1-3.1-6.2-6.2-9.4-9.4c-0.4-0.4-0.9-0.2-1.2,0.2c-0.5,0.5-0.1,0.9,0.2,1.2c1.7,1.7,3.5,3.5,5.2,5.2
			C349,252.2,349.1,252,349.2,251.9z"/>
		<path stroke="#000000" stroke-width="3" stroke-miterlimit="10" d="M479.7,495.7c5.4-3.2,10.1-7.1,13-12.9
			C488.9,487.5,484.9,492.1,479.7,495.7z"/>
		<path stroke="#000000" stroke-width="3" stroke-miterlimit="10" d="M550,507.9c1.7,0.9,3.3,1.9,5,2.7c0.7,0.4,0.9,0.9,0.9,1.6
			c0.2,0.4,1.5-0.3,0.9,0.7c-0.5,0.8-0.9,1.5,0.2,1.7c1.1,0.2,1.7-1.1,2.2-1.9c0.4-0.7,0.1-2.3-0.5-2.1c-3,1.2-4.2-2-6.6-2.4
			C551.4,508.1,550.7,507.8,550,507.9z"/>
		<path stroke="#000000" stroke-width="3" stroke-miterlimit="10" d="M206.8,300.4c1-0.7,3-1,1.4-3c-0.5-0.6-0.4-1.2,0.6-1.3
			c0.3,0,0.8-0.2,0.5-0.7c-0.2-0.3-0.6-0.6-0.8-0.6c-1.4,0.1-3.8,3.7-3.5,5.2C205.5,300.2,206.1,300.3,206.8,300.4z"/>
		<path stroke="#000000" stroke-width="3" stroke-miterlimit="10" d="M522.9,484.5c-1.3,0.3-1.4,1-0.7,2c1.1,1.7,2.1,3.4,3.1,5.1
			c0.4,0.8,0.9,1.7,1.9,0.8c1.2-1.1-0.8-0.5-0.7-1.2c0.5-2.2-3-2.9-2.1-5.5c0.3-0.9-1.4-0.3-1.5-1.3
			C522.8,484.5,522.9,484.5,522.9,484.5z"/>
		<path stroke="#000000" stroke-width="3" stroke-miterlimit="10" d="M206.8,300.4c-0.6-0.1-1.2-0.2-1.9-0.3c1.5,3.2,1.7,3.2,3.9,1
			c0.6-0.6,1.2-1.2,1.8-1.8c0.7-0.7,1.9-1.8,1.8-2c-0.7-1.2-1.8-2.1-2.1-3.5c-0.1-0.3-0.5-0.2-0.6,0c-0.2,0.3-0.8,0.5-0.1,1.1
			c0.6,0.4,0.7,1.1,0.8,1.9c0,0.4,1.4,1.1,0.5,1.2C209,298.2,209.6,302.2,206.8,300.4z"/>
		<path stroke="#000000" stroke-width="3" stroke-miterlimit="10" d="M465.4,547c-4.5-4.6-8.7-9.4-14-13.2c3.5,3,6.6,6.5,9.9,9.7
			C462.7,544.8,463.1,547.1,465.4,547C465.5,547,465.4,547,465.4,547z"/>
		<path stroke="#000000" stroke-width="3" stroke-miterlimit="10" d="M199.5,300.8c1.7,3.2,4.4,5.5,6.9,8.1c1.5,1.6,3.1,3.1,4.8,4.4
			C207.1,309.3,204.2,304.2,199.5,300.8C199.5,300.8,199.5,300.8,199.5,300.8z"/>
		<path stroke="#000000" stroke-width="3" stroke-miterlimit="10" d="M262.4,240.6c-4.4,3.1-7.4,7.6-11,11.6
			C255.9,249,258.4,244.1,262.4,240.6z"/>
		<path stroke="#000000" stroke-width="3" stroke-miterlimit="10" d="M553.9,502.2c-4.3-4.3-8.7-8.7-13-13
			C544.7,494,549.1,498.4,553.9,502.2z"/>
		<path stroke="#000000" stroke-width="3" stroke-miterlimit="10" d="M382.1,407.4c-4.4,4.4-8.8,8.8-13.2,13.2
			c0.1,0.1,0.2,0.2,0.2,0.2c4.4-4.4,8.8-8.8,13.2-13.2C382.2,407.6,382.1,407.5,382.1,407.4z"/>
		<path stroke="#000000" stroke-width="3" stroke-miterlimit="10" d="M370.8,273.8c-2.3-2.3-4.6-4.6-6.9-6.9
			C365.6,269.8,368,272.1,370.8,273.8z"/>
		<path stroke="#000000" stroke-width="3" stroke-miterlimit="10" d="M269,369.8c4.3,4.3,8.5,8.5,12.8,12.8c0.1-0.1,0.2-0.2,0.2-0.2
			c-4.3-4.3-8.5-8.5-12.8-12.8C269.2,369.6,269.1,369.7,269,369.8z"/>
		<path stroke="#000000" stroke-width="3" stroke-miterlimit="10" d="M531.8,502.1c0.4,0,0.8,0,1.1,0c0.3-0.5,0.8-1-0.1-1.3
			c-0.4-0.2-1.3,0.5-1.1-0.5c0.5-2.3-2-2.7-2.6-4.4c-0.1-0.4-0.6-0.8-1.1-0.4c-0.5,0.4-0.1,0.8,0.2,1.2
			C529.4,498.4,530.6,500.2,531.8,502.1z"/>
		<path stroke="#000000" stroke-width="3" stroke-miterlimit="10" d="M288.6,255.8c3.1-1,4.2-4.4,7.3-5.4
			C291.9,250.1,291.1,254,288.6,255.8z"/>
		<path stroke="#000000" stroke-width="3" stroke-miterlimit="10" d="M294.5,207.1c-3.6,2.3-5.9,5.8-8.6,9
			C289.3,213.6,291.8,210.3,294.5,207.1z"/>
		<path stroke="#000000" stroke-width="3" stroke-miterlimit="10" d="M466.3,526.4c-3.3-3.3-6.5-6.5-9.8-9.8
			C459.3,520.4,462.4,523.7,466.3,526.4z"/>
		<path stroke="#000000" stroke-width="3" stroke-miterlimit="10" d="M375.4,461.8c-0.9,1-2.3,1.5-2.6,2.9c-1.2,0.2-0.2-3.3-2.2-1.1
			c-0.5,0.6-1.2,1.1-0.8,1.9c0.5,0.9,2,0.5,2.2,0.4C373.3,464.8,374.9,463.7,375.4,461.8z"/>
		<path stroke="#000000" stroke-width="3" stroke-miterlimit="10" d="M294.5,390.8c1.5,3.3,4.3,5.3,7.2,7.2
			C299.3,395.6,296.9,393.2,294.5,390.8z"/>
		<path stroke="#000000" stroke-width="3" stroke-miterlimit="10" d="M521.9,447.1c3.4,3.4,6.8,6.8,10.2,10.2
			c0.1-0.1,0.1-0.1,0.2-0.2c-3.4-3.4-6.8-6.8-10.2-10.2C522.1,447.1,522,447.1,521.9,447.1z"/>
		<path stroke="#000000" stroke-width="3" stroke-miterlimit="10" d="M295.8,222.7c2.8-2.7,5.6-5.3,7.2-9
			C300.8,217,297.6,219.2,295.8,222.7z"/>
		<path stroke="#000000" stroke-width="3" stroke-miterlimit="10" d="M374.2,460.7c-1.9-1.6-4.9,0.3-6.8,4.3
			C370.2,464.4,370.3,459.6,374.2,460.7z"/>
		<path stroke="#000000" stroke-width="3" stroke-miterlimit="10" d="M400.3,440.6c-2.1,1.3-3.9,2.8-5.1,5.1
			C396.9,444,398.6,442.3,400.3,440.6z"/>
		<path stroke="#000000" stroke-width="3" stroke-miterlimit="10" d="M258,354.2c-2.1-2.1-4.2-4.2-6.4-6.4c-0.1,0.1-0.2,0.2-0.3,0.3
			c2.1,2.1,4.2,4.2,6.4,6.4C257.8,354.4,257.9,354.3,258,354.2z"/>
		<path stroke="#000000" stroke-width="3" stroke-miterlimit="10" d="M455.4,366.3c-3-0.1-2.9,2.9-4.5,4.3
			C452.8,369.6,453.6,367.4,455.4,366.3z"/>
		<path stroke="#000000" stroke-width="3" stroke-miterlimit="10" d="M338.7,258.5c-2.1,1.9-4.6,3.4-7.3,5.3
			C334.8,263,336.9,261,338.7,258.5z"/>
		<path stroke="#000000" stroke-width="3" stroke-miterlimit="10" d="M408.8,380.3c-3.3,2.2-5,4.9-7.2,7.2
			C403.8,385.3,406.1,383,408.8,380.3z"/>
		<path stroke="#000000" stroke-width="3" stroke-miterlimit="10" d="M506.3,542c2.1,2.1,4.6,3.6,6.7,5.7
			C511.2,545.4,509.3,543.1,506.3,542z"/>
		<path stroke="#000000" stroke-width="3" stroke-miterlimit="10" d="M296.9,383.9c2.6-1.8,5-2.9,5.8-5.8
			C301.6,380.5,298.7,381.2,296.9,383.9z"/>
		<path stroke="#000000" stroke-width="3" stroke-miterlimit="10" d="M527.5,564.1c-1.2-0.8-1.8-2-2.3-3.4c-0.6,1.4,0.3,2.5,0.9,3.6
			C526.6,564.3,527,564.2,527.5,564.1z"/>
	</g>
	<g>
		<rect x="100.1" y="599.9" fill="none" width="300" height="300"/>
		<path d="M117.9,750.9h61.6c31.6,0,53.1,17.8,53.1,46.1c0,32.4-24.5,47.2-53.9,47.2h-28.6v55.6h-32.2V750.9z M150.1,818.6h24.6
			c14.9,0,25.4-5.7,25.4-20.9c0-15.4-11.1-21.1-24.8-21.1h-25.2V818.6z"/>
		<path d="M343.6,757.7v22.9c-22.5,31.9-44.6,78-50.1,119.2h-31.8c5.6-41.8,31.1-91.9,50.4-116.7h-66.9v-25.4H343.6z"/>
	</g>
	<g>
		<rect x="600.1" y="199.9" fill="none" width="300" height="300"/>
		<path d="M671.3,357.6v-2c0-24.7,11.1-44.9,41.9-67.3c20.1-14.7,26.1-19.7,26.1-32.1c0-12.3-6-19.2-17.9-19.2
			c-13.9,0-18.9,8.5-20.9,20.9h-29.8c2-24.5,18.1-45,50.7-45c36.5,0,49,21.7,49,43c0,20.7-8.9,30.7-35.1,49.1
			c-17.5,12.3-24.6,20.4-27,26.8h67.3l-3.8,25.8H671.3z"/>
		<path d="M851.6,357.6v-31.9h-64.3v-26.9l59.3-83.2h33.7v85.2h17.1l-2.8,25h-14.3v31.9H851.6z M851.6,275.3c0-15.4,0-24,0.6-32.9
			c-5.6,11.9-24.2,39-37.5,58.2h36.9V275.3z"/>
	</g>
	<g>
		
			<rect x="439" y="-11" transform="matrix(0.7071 -0.7071 0.7071 0.7071 -61.1291 430.4214)" fill="none" width="100" height="600"/>
		<path d="M418.6,176.2l-15-15l11.4-11.4l45.4,45.4l-11.4,11.4L434,191.7l-41.2,41.2l-15.4-15.4L418.6,176.2z"/>
		<path d="M438.4,221.3c3.8-3.8,7.9-8,11.4-11.6l14.6,14.6c-1.1,1.4-4.4,5.1-6.1,6.9c5.4-2.3,12.9-2,19.8,4.8l-13.6,13.6
			c-8.1-8.8-13.8-10.7-23.2-1.3l-16.4,16.4l-14.9-14.9L438.4,221.3z"/>
		<path d="M494.5,308.9c-3.5,3.5-9,9-12.7,12.9l-14.6-14.6c0.8-1.1,2.9-3.4,3.9-4.5c-6.4,1.2-11.2-0.8-16.3-5.8
			c-8.6-8.6-7.9-18.4,1.6-27.9l26.3-26.3l14.9,14.9l-23.8,23.8c-3.6,3.6-5.2,7.2-1.8,10.6c3.5,3.5,6.9,2.9,12.8-3l22.1-22.1
			l14.9,14.9L494.5,308.9z"/>
		<path d="M542.5,354.7c-8.4,6-20.7,9-34.5-4.8c-14.1-14.1-11-29.5,0.3-40.9c12-12,28.8-13.9,42.2-0.5c15.1,15.1,8.7,29.1,4.1,34.1
			l-14.2-14.2c2.4-3.2,3.4-6.7,0.1-9.9c-3.8-3.8-9.2-2.1-16.5,5.2c-8.2,8.2-9.2,13.4-5.7,16.9c3,3,6.7,2.1,10,0L542.5,354.7z"/>
		<path d="M574.1,364.6c6.2-1.5,15.5-3.1,25.7-4.9l16.7,16.7l-27.7,2.3c-1.6,4.3-9.8,34.5-11.3,38.7l-16.7-16.7
			c0.7-1.4,7.8-22,8.3-23l-8.4,0.1l-11.4,11.4l-14.9-14.9l55.3-55.3l14.9,14.9L574.1,364.6z"/>
	</g>
</g>
<g id="text">
	<path id="dir_00000083057222912329984350000010331175663128651438_" d="M611.5,582l35.5,66l-66-35.5c0,0,16.3-6.1,20.3-10.1
		S611.5,582,611.5,582z"/>
</g>
<g id="guides">
</g>
<g id="scratch">
</g>
</svg>
