<?xml version="1.0" encoding="utf-8"?>
<!-- Generator: Adobe Illustrator 26.0.2, SVG Export Plug-In . SVG Version: 6.00 Build 0)  -->
<svg version="1.2" baseProfile="tiny" xmlns="http://www.w3.org/2000/svg" xmlns:xlink="http://www.w3.org/1999/xlink" x="0px"
	 y="0px" viewBox="0 0 1000 1000" overflow="visible" xml:space="preserve">
<g id="bg">
</g>
<g id="counters">
	<g>
		<path d="M719.2,587.1c3.2-0.7,6.6-0.6,9.9-0.8c0.4,0,0.9,0.1,1.3-0.1c0.9-0.4,2.5-0.3,2.3-1.7c-0.1-1.5-1.6-1.2-2.6-1.1
			c-3.6,0.3-7.2,0.8-10.9,1.1c-3.3,0.3-6.6,0.8-9.9,0.9c-32.7,1.3-65.4,0.1-98.2,0.5c-39,0.4-77.9-0.1-116.9,0.1
			c-7.7,0-15.4-0.7-23.1-0.4c-24.2,1-48.5,0.2-72.7,0.3c-18.6,0.1-37.1-0.7-55.7-0.4c-26,0.5-51.9-0.1-77.9,0.6
			c-10,0.3-19.9-0.1-29.8-0.6c-9.2-0.4-18.5-1.7-27.8-2.5c-1.5-0.1-2.5-0.2-3,1.4c-0.6,2.2,1.1,1.6,2.1,1.7
			c6.8,0.8,13.5,1.8,20.4,1.9c8.2,0.1,16.5,1.4,24.7,1c11-0.5,22.1,0.6,33.1-0.7c1.3-0.2,2.6-0.1,3.9-0.1c25,0.2,50,0.3,75,0.5
			c8.7,0.1,17.3-0.4,26-0.5c5.7-0.1,11.3,1,17,0.6c11.4-0.9,22.7-0.8,34.1-0.4c14,0.5,28.1,0.5,42.1,0.2c27.8-0.5,55.7-0.5,83.5-0.3
			c9.6,0.1,19.1,0.7,28.6,0.3c31.9-1.2,63.7-0.2,95.6-0.2c6.7,0,13.5-1,20.2-0.1c-0.5,1.7,0.6,1.5,1.7,1.8
			c8.4,1.9,15.8,5.8,22.2,11.5c6.3,5.6,11.2,12.3,14.2,20.3c0.6,1.6,1.3,2.4,3.3,2c2.7-0.6,5.6-0.6,8.3-0.6c2.7,0,5.5-0.9,8.1,0.5
			c1.4,3.4,0.6,6.9,0.7,10.4c0.1,2.3,0.5,3.1,2.7,1.5c0.4-0.3,0.9-0.5,1.4-0.8c3.1-2.1,3.3-2.7,0.3-5.1c-2.1-1.7-2.8-4.5-5.2-6
			c-0.5-1.5-0.9-3.1-1.4-4.6c-1.8-5.6-2.4-11.2-1.1-17.1c1.6-8,5.7-14.2,12.1-19c1.3-1,1.4-2.2,1.2-3.4c-0.2-1.5-1.6-1-2.6-1
			c-1.1,0-2.3,0.4-3.6-0.9c5.7-0.8,10.6-4.7,16.5-2.4c-1.1,2-3.2,1.1-5.2,2.1c1.1,0.2,1.5,0.4,1.8,0.3c4.1-0.8,8.2-1.7,12.4-1.8
			c1.3,0,1.8-0.7,1.3-1.9c-0.7-1.4-0.2-2.1,1.1-2.7c1.9-0.9,7,2.2,8.3,5c-1.4,0-2.5-1.2-4.9-0.6c4.3,2.1,7.9,3.7,11.4,5.4
			c-1-2.4-3.5-2.7-4.9-4.5c3.9,0.9,7.7,2.3,11.4,3.6c0.2,0.1,0.5,0.5,0.5,0.8c-0.2,2.6,1.7,4.9,1.2,7.5c-1.6-0.9-1.4-3.3-3.1-4.2
			c-0.6,0.6-0.6,1.1-0.3,1.6c2.5,4.8,5.3,9.5,7.3,14.5c0.2,0.5,0.6,0.8,1.3,0.7c4-0.7,4.3-0.2,3.9,4c-0.3,3.6-1.4,7.1-2.1,10.6
			c-0.6,3-0.3,6.1-2.8,8.9c-4.2,4.6-9.2,8.6-12.4,14.1c-0.5,0.8-1.3,1.7-2.3,1.7c-2.7,0-4.4,2-6.7,3c-1.1,0.5-1.6,2.1-3.3,1.7
			c0.9-3.4,5.2-3,6.8-6.6c-3.4,1.5-6.1,2.6-8.9,3.9c-0.1-2.4,2.6-1.9,3.2-3.9c-6.3,2.4-12.2,0.8-18.3,0c2.1,1.7,3.7,3.6,5.3,5.6
			c0.7,0.9,1.6,1.4,2.8,0.9c1.3-0.6,2.2-0.5,3.2,0.9c1.1,1.5,1.1,2.6,0.3,4c-1.2,2.2-3.3,1.9-5.8,2.2c0.6-1.2,2-2,0.7-3.1
			c-1.2-1.1-1.9,0.2-2.8,0.5c-2.1,0.8-3.7,3.1-6.4,2.5c1.3-2.2,3.7-2.7,5.7-3.8c1.6-0.9,1.8-1.6,0.6-3.2c-3-4.3-7.3-6.4-12.1-7.9
			c-2.3-0.7-4,0.5-4.7,2.7c-1.5,4.5-1.3,9.1-0.1,13.6c0.6,2.3,2.3,2.5,4.3,1.4c2-1.2,3.8-2.8,6.3-2.9c-0.2,1.6-1.5,2.1-2.7,2.9
			c-2.1,1.3-4.7,1.9-6.6,4.5c4.3,0.4,6.3-4.1,10.2-3.3c-4.5,1.1-6.2,6.8-11.5,6.6c-1,0-1.6,2.3-2.6,1.2c-1.3-1.5-3-1.4-5-2.2
			c2-1.1,3.4-1.9,4.8-2.8c1-0.6,2.2-1.3,1.7-2.8c-1.7-5.6-1.8-11.3-0.4-18.1c-4.2,4.2-8.6,3-12.8,3.1c-1.3,0-2.6,0-3.9,0
			c-1.8-0.1-2.6,0.7-2.8,2.6c-0.6,5.7-1.7,11.2-4.2,16.4c-0.9,1.9-0.7,3.4,1,4.8c1.1,0.9,2.4,2,1.8,3.8c-5.3-3-5.4-3-9.1,2
			c-1.4,1.9-3.5,3.4-4.6,6.2c3-1.1,5.5-2.3,7.5-4.1c1.9-1.7,5.3-1.1,6.1-4.2c5.1-0.7,8.8-4.6,13.5-6.3c0.3,1-0.1,1.4-0.6,1.7
			c-1.9,1.2-3.8,2.3-5.8,3.5c-0.5,0.3-1.2,0.7-0.9,1.5c0.4,0.8,1.1,0.4,1.6,0.1c0.4-0.2,0.8-0.4,1.4,0.4c-2.1,1.4-3.1,4.1-5.9,4.8
			c-7.1,1.7-13.2,5.3-18.7,9.9c-2.3,1.9-4.9,2.3-7.7,2.5c0-1.5,1.8-1.4,1.5-2.9c-4.2,1.1-7.9,3.2-11.8,5c-0.5,0.2-1.3,1-0.8,1.5
			c2.5,2.5-0.5,2.4-1.4,3c-1.9,1.1-4.1,1-6.2,0.4c0.1-0.7,0.7-0.7,1.2-0.8c0.8-0.1,1.7-0.2,1.3-1.3c-0.3-0.8-1-1-1.8-0.8
			c-7.4,1.6-14.9,1.2-22.4,1.5c-25.4,0.8-50.8,0.2-76.2,0.2c-7.3,0-14.5-0.7-21.8-0.3c-20.5,1-41,0.2-61.5,0.5
			c-9.2,0.1-18.4-0.1-27.7,0.3c-8.5,0.4-17.1-0.6-25.6-0.8c-3.7-0.1-7.4,0.5-11.1,0.5c-24,0-48.1,0-72.1-0.1
			c-12.6,0-25.3,0.1-37.9-0.2c-6.6-0.2-13.3-0.1-19.9-0.3c-2.1-0.1-4,0.5-6,0.7c-0.8,0.1-1.6,0.2-1.5,1.2c0,1.1,0.9,1.6,1.7,1.4
			c3.3-0.8,6.6,0.6,9.9-0.2c2.3-0.6,4.7-0.5,7,0c3.4,0.8,6.8-0.3,10.2-0.3c17,0,33.9,0,50.9,0.1c9.6,0,19.1,0.2,28.7,0.1
			c33.5-0.6,67,0.5,100.4-0.2c26.7-0.6,53.4,0.7,80,0c26.2-0.7,52.3-0.3,78.5-0.4c5.2,0,10.5-0.4,15.7-0.7c-0.9,2.1-2.7,2.1-4.6,2.1
			c-17.8,0.3-35.6-0.4-53.4,0.5c-10.6,0.5-21.2,0.1-31.9,0c-14.5-0.1-29.1-0.7-43.6-0.2c-6.4,0.2-12.8,0.2-19.1,0.3
			c-21.5,0.3-43.1-0.1-64.6,0c-11.1,0.1-22.2-0.6-33.4,0c-13.2,0.7-26.4,0.2-39.6,0.1c-4,0-7.9,0.7-11.8,0.4c-5-0.3-10-0.3-14.9-0.4
			c-8.4-0.1-16.8,0.4-25.3,0.4c-6.9,0-13.7-0.3-20.6-0.4c-18.1-0.1-36.2,0-54.3-0.1c-4.7,0-9.4,0.5-14.1,0.6
			c-12.8,0.2-25.7-0.2-38.6,0c-4.5,0.1-7.6-2.8-11.6-3.6c-0.3-0.1-0.5-0.7-0.7-1c3.2,0,6.3,1.7,10.1,0.5c-6.2-1.9-11.9-3.6-17.7-5.4
			c-0.6-0.2-1.3-0.4-1.7,0.3c-0.5,0.9,0.2,1.4,1,1.7c0.5,0.2,1,0.4,1.2,1c-4.6,1.4-7.5-1.8-10.8-3.8c0.3-0.6,0.7-0.7,1.2-0.6
			c0.8,0.2,1.9,0.6,2.3-0.5c0.5-1.3-0.8-1.2-1.5-1.5c-0.4-0.2-0.8-0.6-1.2-1c2.9-2.7-1-2.7-1.7-3.4c-4.3-4.5-8.7-9-12.2-15
			c0.7,6.1,0.7,6.1-0.6,7.9c-0.4-2.4-0.7-4.6-1.1-6.7c-1.2-5.9-1.2-5.9-7.1-5.8c-0.1,0-0.3-0.2-0.7-0.6c1.4-1.4,2.9-2.2,4.8-1.8
			c2.3,0.5,2.2-0.6,1.5-2c-1-2.1-1.2-4.3-2-6.4c-0.9-2.5,1.4-6-1.7-7.3c-2.3-0.9-5.3-0.3-8-0.3c-1.7,0-3.5-0.4-4.9,1.1
			c-5.3,5.4-11.3,9.7-18.7,12c-1.8,0.6-2.4,2.7-5.5,1.6c-2.6-0.9-6.4-0.3-9.8,0.2c2.4,2,6.2,1.1,7.8,4.2l-0.1,0.1
			c-4.6,0.1-8.3-2.6-12.4-3.9c-1.5-0.5-3-1-2.7,1.4c0.4,3.4-2.3,3-3.4,2.2c-3.2-2.6-7.4-3.9-9.8-7.4c2.3,0,3.9,1.4,5.7,2.6
			c0.8,0.5,1.8,1.3,2.5,0.1c0.8-1.2-0.5-1.6-1.3-2.1c-3.3-2-6.6-4-9.9-5.9c-0.7-0.4-2-1.1-2.5,0.1c-0.4,1,0.9,1.2,1.5,1.8
			c1.2,1.3,3.4,1.4,4,3.4c-2.3,0.2-11.3-5.2-12-7.3c-0.1-0.2-0.2-0.4-0.2-0.6c0-4.5-2.5-8.1-4.3-11.9c-0.5-1-1.4-2-0.6-3.4
			c1.5,0.3,1.9,1.6,2.4,2.7c1.3,2.9,2.6,5.9,3.9,8.8c0.4,0.9,0.4,2.6,1.8,1.9c1-0.5,0.7-2,0.1-2.9c-2.4-4.4-4.5-9-6.2-13.7
			c-0.3-1-1.1-2.2-2.3-0.7c-0.6,0.8-1.1,1.5-2.3,0.7c-1.3-0.8-1.8-1.8-1.4-3.3c1.2-5.3,1.2-10.6,1.2-16c0-5,0.2-9.9,4.9-13.1
			c2.1-1.4,2.7-4.3,5.2-5.3c-0.9,2.7-2.8,4.8-4.5,6.9c-0.6,0.8-1.8,1.9-0.8,2.7c1.1,1,2.2-0.2,2.9-1.1c3.2-4.2,6.4-8.4,9.7-12.8
			c-0.9-0.2-1.9-0.5-2.1-0.3c-2.6,3.1-3.7,0.3-5.1-1.2c-0.5-0.5-1-0.9-1.4-1.3c-3.1-2.7-3.3-3.6,0.2-5.6c3.4-2,5.5-5.4,8.8-7.3
			c1.1-0.7,1.5-1.7,1.5-3c0-4.5,0-9,0-13.5c0-1.5-0.4-2.5-2-2.7c-1.8-0.2-2.5-1.4-2.5-3.1c0-1.2,0.2-2.6-1.2-3.1
			c-2.2-0.7-2-2.5-2-4.2c0-11.4,0.2-22.8,0-34.1c-0.1-6.9,1.1-13.7,0.6-20.5c-0.1-2.2,0.9-4.1,3.3-3.8c4.2,0.5,8.3-0.4,12.4-0.3
			c9.8,0.2,19.5,0.1,29.3,0.1c2,0,3.5-0.4,4.5-2.3c0.8-1.5,1.5-4,3.7-1c0.5,0.7,0.6-0.1,0.8-0.3c1.8-1.8,3.1-1,3.7,1
			c0.7,2.3,2.2,2.8,4.3,2.8c1.7,0,3.6-0.5,5.3,0.7c-0.9,1.2-1.9,0.9-2.8,0.8c-19.3-0.4-38.6,0.6-57.9,0.5c-0.8,0-1.5,0-2.3,0
			c-1.8-0.1-2.8,0.6-2.8,2.6c0.2,6.3-0.8,12.6-0.7,18.9c0.2,10.2,0,20.4,0,30.6c0,1.5,0,3,0,4.5c0,1.6,0.7,2.4,2.3,2.4
			c11.4,0,22.8,0,34.1,0.1c1.6,0,3.2-2.2,4-1.1c1.1,1.5-2.5,1.6-2,3.7c1.7,0,3.5,0,5.3,0c16.4,0.1,32.8,0.2,49.3,0.4
			c23.1,0.2,46.3,0.4,69.4-0.2c17.4-0.4,34.8-0.3,52.2,0.3c16.2,0.5,32.4-0.6,48.6-0.6c14.1,0,28.1,0,42.2,0.1c2.2,0,3.8-0.2,3.7-3
			c0-1.9,1.3-2.8,3.3-2.7c2.5,0,5,0.2,7.4-0.1c3.1-0.4,4.8,1,5.4,3.7c0.4,1.8,1.4,2.2,3,2.2c3.8,0.1,7.5,0.3,11.3,0.4
			c15.3,0.1,30.6,0.3,46,0c7-0.2,14-0.3,21-0.4c12.6-0.1,25.3,0.2,37.9,0c11.1-0.1,22.3,0.3,33.4,0.1c33.1-0.6,66.3,0,99.4-0.6
			c6.6-0.1,13.3,0.2,20,0.4c1.9,0,3.2-0.4,3.2-2.6c0-2.4-0.2-4.9,0-7.3c0.2-2.1-0.8-2.6-2.6-2.6c-4.1,0.1-8.2,0.1-12.2,0
			c-2.5-0.1-3.4,0.9-3,3.2c0.4,2.2-0.4,3.3-2.7,3.3c-2,0-4.2,0-4-2.8c0.3-3.5-1.6-3.6-4.3-3.7c-30.2-0.3-60.3,0.6-90.5-0.8
			c-2.6-0.1-4.7,0.3-4.3,3.8c0.3,2.7-1.4,3.5-3.8,3.5c-2.7,0-3.5-1.9-3.1-3.9c0.6-3-0.8-3.2-3.1-3.2c-6,0.1-12,0-18,0
			c-8.5,0-8.5,0-8.7,8.4c0,0.2,0,0.4,0,0.6c-0.2,1.1,0.4,2.8-1.3,2.7c-1.5,0-1.4-1.6-1.5-2.8c0-4.3,0.1-8.6-0.1-12.9
			c-0.1-3.1,1-4.2,4.1-4.1c8,0.3,16.1,0.5,24.1,0.4c4.6,0,9.2-0.2,13.8-0.1c15.9,0.4,31.9,0.7,47.8,0.9c14.2,0.2,28.3,0.1,42.5,0.2
			c1.3,0,2.8-0.4,4,1c-1.9,1.5-4,0.4-5.9,0.4c-29.4-0.1-58.8,0.5-88.1-1.1c-1.8-0.1-2.6,0.5-2.7,2.3c-0.1,1.9,0.9,2.5,2.6,2.4
			c8.4-0.5,16.7,0.8,25.1,0.7c17.1-0.2,34.1,0.1,51.2,0c5.7-0.1,11.3-0.3,17,0.1c1.8,0.1,3.2-0.3,3-2.6c-0.1-1.2-1.7-2.5,0.4-3.6
			c1.4-0.7,3-1.2,4.3-0.6c2.5,0.9,4.9,1.6,7.9,1.7c-0.9,0.9-1.6,0.9-2.2,0.9c-1.7,0.1-3.7-0.4-3.6,2.3c0.1,2.5,2.1,2.3,3.8,2.3
			c4.2,0,8.4,0,12.6,0.1c1.6,0,2.8-0.3,2.8-2.2c0-1.9-1-2.6-2.9-2.5c-2.8,0.1-5.7,0-8.5,0c3.5-1.4,1.7-2.2,0-3.2
			c-8.3-4.9-16.7-9.7-24.8-14.8c-2.9-1.8-6.5-2.6-8.5-5.8c0.2-0.2,0.3-0.3,0.5-0.5c2.1-0.9,4.1-1,5.9,0.8c0.6,0.6,1.6,0.8,2.4,0.6
			c3.9-1,7.9-0.2,11.9-0.8c3.2-0.5,6.2,0.4,8.8,2.2c0.7,0.4,1.3,1.1,0.9,1.9c-0.7,1.1-1.3,0-1.8-0.4c-1.4-1-2.8-2-4.7-1.9
			c-4.5,0.2-9,0.2-13.4,0.4c-0.9,0-1.9,0.4-1.7,1.5c0.1,0.8,1.1,1.3,1.8,1c2.5-1.3,4.2,0.5,6,1.5c3.7,2.1,7.3,4.5,11,6.6
			c1.4,0.8,3,2.1,4.3-0.3c0.4-0.7,1-0.7,1.6-0.2c1.7,1.4,3.4,2.8,4.7,4.6c-1.1,0.5-1.7,0.1-2.4-0.2c-0.9-0.4-2-0.6-2.5,0.6
			c-0.4,1.1,0.3,1.8,1.2,2.3c0.9,0.5,2,0.9,2.8,1.6c1.3,1,2.9,1.9,4,0.7c0.9-1-0.9-2.1-1.4-3.3c-0.1-0.1,0.1-0.4,0.1-0.6
			c1.8-0.1,2.8,0.8,3.2,2.5c0.2,1.1,1,1.7,1.8,2.4c5,4.1,11,6.6,16.2,10.2c2.6,1.7,3.6,0.2,5-1.2c1.5-1.6,0.7-3.2-0.3-4.5
			c-1.2-1.6-3.1-2.3-4.8-3.1c-2.2-1-3.9-2.6-5.1-4.7c-1.8-3.3-0.8-8,2-9.5c0.2,1-0.3,1.8-0.6,2.7c-1,2.7-0.9,5.5,1.2,7.5
			c4.2,3.9,9.4,5.9,15.1,6.1c1.3,0,1.5-1,1.5-2c0-6.3,0.1-12.7,0.1-19c0-0.8,0-1.9-1.2-1.9c-1.2,0-1.1,1.2-1.1,2
			c0,5.1,0,10.3-0.1,15.4c0,1.1,0.3,2.3-0.6,3.5c-1.3-0.9-0.9-2.2-0.9-3.2c0-4.8,0-9.7,0-14.5c0-3.4-0.5-3.6-3.5-2.4
			c-3.6,1.5-7,3.2-9.9,5.8c-1.3-0.9-2.6-1.3-4.2-1.4c-6.8-0.3-13.7-1.3-20.5-1c-1,0-2.5,0.5-3.5-1.7c2.6,0.6,4.7,0.6,6.8,0.6
			c6.7,0.3,13.5-0.7,20.2,0.8c1.4,0.3,2.3-0.5,3.2-1.1c4.2-2.8,8.9-4.2,13.7-5.3c2.1-0.4,3.6,0.3,4.5,2.2c2.8,6,3.5,12.3,1.5,18.7
			c-1.5,4.6-0.8,5.9,4.2,6c2.7,0,5.5-0.4,6.7,3c0.2,0.6,1,0.9,1.6,0.8c4.1-0.4,8.2,0.4,12.2-1c0.9-0.3,1.9-0.8,2.7,0.1
			c0.7,0.8,0.7,1.8,0.5,2.8c-0.4,2-2,1.9-3.3,1.6c-3.9-1-7.7,0.1-11.5,0.1c-0.9,0-1.6,0.2-2.3,1c-1.6,2-6.3,2.3-8.8,0.5
			c1.5-0.7,3-1.2,4.7-0.7c0.8,0.3,1.7,0.3,2.2-0.7c1.4-2.7-0.4-5.8-3.5-5.8c-2.2,0-4.3-0.1-6.2-1.2c-0.7-0.5-1.6-0.7-2.4-0.2
			c-1.7,0.9-3.5,0.6-5.3,0.2c-0.7-0.2-1.6-0.6-2.1,0c-0.4,0.5,0,1.3,0.3,1.8c0.6,0.9,1.5,1,2.2,0.4c1.4-1.2,1.7-0.3,2.1,0.8
			c0.4,1.1,0.7,2.2,0.8,3.4c0.3,2.4-0.1,5.7,4.1,3.9c0.3,0.9-0.1,1.2-0.4,1.6c-0.6,0.9-2.6,1.1-1.8,2.6c0.6,1.2,2.2,0.6,3.3,0.6
			c12.1,0.1,24.3,0.1,36.4,0.1c4.8,0,9.7-0.5,14.4-0.3c6.5,0.3,12.8,2.1,19,4.7c14.4,5.9,24.8,15.8,31.7,29.7
			c1.1,2.3,0.4,3.3-1.3,4.4c-6.2,4.1-12.5,8.1-18.6,12.4c-3.5,2.4-4,2.4-5.4-1.8c-0.3-0.9-0.8-1.8-0.5-2.8c0.7,0.3,1.3,0.8,1.5,1.6
			c0.6,2.8,1.9,2.6,4,1.2c5.5-3.8,11.2-7.4,16.8-11.1c1.3-0.9,1.9-1.8,1-3.7c-1.4-2.7-3.1-5.1-4.8-7.6c-11.2-16-27-23.3-46-23.8
			c-18.8-0.5-37.6,0-56.4-0.1c-6.5,0-13,0.4-19.5,0.3c-18-0.2-35.9-0.1-53.9-0.1c-6.3,0-12.6,0.3-19,0.5
			c-23.6,0.6-47.2-0.3-70.8,0.1c-32.9,0.4-65.8,0.2-98.7-0.2c-12.6-0.2-25.1,0.2-37.6,0.3c-40.5,0.5-81.1-0.9-121.6,0
			c-27.4,0.6-54.7-0.8-82.1,0.4c-7.4,0.3-14.8-0.9-22.1-1c-22-0.2-44-0.1-66-0.2c-3.2,0-5.9,1-8.2,3c-10.3,8.6-20.6,17.1-30.4,26.3
			c-0.7,0.6-2.4,0.9-1.6,2.3c0.7,1.2,1.6,2.5,2.7,3c1.3,0.6,1.3-1.3,2-2c0.5-0.6,1-1.5,1.5-1.6c3.1-0.2,5.2-2.3,7.6-3.9
			c0.5-0.3,1.2-0.5,1.8,0.5c-1.4,0.9-2.8,1.8-4.1,2.8c-0.5,0.4-1.2,0.8-0.8,1.5c0.3,0.7,1.2,0.6,1.7,0.4c3-1.4,5.9-2.9,8.9-4.4
			c0.9-0.5,1.6-1.3,0.4-2.2c-0.8-0.6-1.1-1.3-0.2-2.1c1.2-1.1,2.1-3.6,3.8-2.9c2,0.8,4.2,1.4,6.4,2.2c-1,1.2-2.1,0.8-3,1
			c-0.7,0.1-1.3,0.3-1.4,1.1c-0.1,1.1,0.8,1.1,1.6,1.1c5.2,0.4,10.4,0.9,15.7,1.3c0.5,0,1.1,0.1,1.3-0.9c-4-1.9-8.5-1.5-13.5-2.6
			c5.2-1.8,20.5-0.3,25,3.4c-1.9,0.6-3.7,0.4-5.4-0.1c-0.8-0.2-2-0.5-2.3,0.5c-0.3,1.4,1.1,0.9,1.8,1.1c2,0.5,4,0.8,6,1.2
			c1.2,0.2,2.5,0.3,3.3,2c-2.4-0.2-4.5-0.4-6.6-0.7c1.6,1.5,3.8,2.3,4.5,5c-10.8-7.8-22.6-10.1-35.2-6.3
			c-12.9,3.9-21.2,12.8-25.5,25.1c-5.2,14.8-0.5,35.5,18.1,46.4c11,6.4,29.8,5.1,36.6-1.1c-2.1,0.9-3.7,1.6-5.4,2.3
			c-6.9,2.8-14.1,3.2-21.2,1.6c-11.2-2.5-19.5-9.3-25-19.2c-3.1-5.6-4.5-11.8-4.4-18.2c0.2-7.3,2.5-14.1,6.5-20.2
			c4.4-6.7,10.1-11.8,17.8-14.5c0.6-0.2,1.5-1,1.9,0.1c0.3,0.8-0.5,1.4-1.2,1.6c-3.5,0.8-5.9,3.1-8.8,5c-7,4.7-10.3,11.5-13,18.9
			c-0.5,1.4-0.5,2.4,1.3,2.4c2.6,0,4.6,1.4,6.8,2.4c3.3,1.5,3.5,3.6,1.2,6.3c-2,2.4-4.7,3.4-7.8,2.9c-2.3-0.3-2.5,0.5-2.1,2.5
			c2.8,14.7,12.2,23.3,25.8,27.9c9.6,3.3,18.5,0.4,27.1-3.9c2.7-1.4,5-3.6,7.3-5.7c5.6-5.1,8.2-11.8,10.2-18.9
			c0.4-1.3-0.1-2.4-1.5-2.2c-5.4,1-7.1-4.4-11.3-5.5c1.1-1.9,2.8-0.5,3.8-1.5c-0.6-1.2-1.6-1.1-2.7-0.9c-3.1,0.6-5.7-0.5-7.9-2.6
			c-3-2.8-3.6-7.3-1.5-10.8c2-3.3,7.3-5.4,10.6-4.1c3.9,1.5,6.2,5.5,5.4,9.7c-0.3,1.4-0.8,2.7-1,4c-0.1,0.8-0.3,1.8,1.3,1
			c2.2-0.9,1.5-0.3,2.3,1.4c1.7,3.5,0.1,2.6-1.9,1.9c-0.9-0.3-1.4,0.2-1.9,0.9c-0.4,0.6-0.4,1.2,0,1.8c0.5,0.8,1.2,0.7,2,0.4
			c1-0.4,2-0.6,3.1-1c-0.3,1.6-1.1,2.7-2.2,3.8c2.4,0.6,3.6-0.1,3.6-2.6c-0.1-5-0.6-10-2.3-14.8c-0.2-0.5-0.8-1.3,0.2-1.5
			c0.6-0.2,0.9,0.4,1.1,1c2.3,6.4,3.5,13,2.7,19.8c-0.6,4.7-2.4,9.1-4,13.4c8.6-17.7,6.4-33.9-7.8-48.2c3.5,1,7.6,5.6,10.9,12.4
			c7,14.3,4.7,27.9-3.5,41.4c3.6,0,6.6-0.1,9.6,0c1.8,0.1,2.2-0.9,2.2-2.3c0-6.9,2.1-13.3,5-19.4c4.7-9.9,12-17.4,21.6-22.6
			c4.3-2.3,8.9-4,14.1-5.5c-1.2-0.3-1.8-0.6-2.5-0.7c-8.1-0.6-16.1-1.1-24.2-1.6c-1.5-0.1-3.4-0.1-4-1.4c-0.5-1.2,1.9-0.8,2.4-1.9
			c0.1-0.2,0.1-0.4,0.1-0.7c-3-0.5-6.2-0.4-8.9-2.3c6.3-0.3,12.6-0.6,18.8,0.2c11,1.5,22.1,1.9,33.2,2.4c11.3,0.5,22.7-0.3,34-0.4
			c18.6-0.1,37.3,0.4,55.9,0.4c10,0,20.1-0.6,30.1-0.5c29.2,0.1,58.4,0,87.6,0.5c23.7,0.4,47.3,0.2,71,0.2c7.7,0,15.4-0.5,23.1-0.5
			c10.4,0,20.8,0.4,31.2,0.4c15.3,0,30.7-0.1,46-0.4c28.5-0.6,57.1,0.5,85.6-0.2c5.6-0.1,11.3-0.5,16.8-1.8
			c6.3-1.5,12.5-0.4,19.2-0.3c-2.5,2-4.9,2.1-7.3,1.6c-0.9-0.2-1.1,0.1-1.3,0.8c-0.2,0.7-0.2,1.3,0.6,1.5c0.8,0.2,1.7-0.3,2.4,0.9
			c-2.4,1.1-1.9,2.8-1,4.7c1.5,3.5,3.8,6.5,6.6,9c2.4,2.2,4.7,2.1,7-0.2c3.4-3.4,4-7.9,4.8-12.3c0.4-2.6-0.6-3.5-3.2-3
			c-1.5,0.3-3.1,1.2-4.8-0.5c2.2-0.5,3.9-1,5.7-1.4c0.6-0.1,1.5-0.2,1.4-1c-0.1-1-1-0.9-1.8-0.7c-1.1,0.2-2.2,0.7-3.4-1
			c2.3,0.1,3.5-1.2,4.6-2.5c1.4-1.7,2.9,0,3.5,0.3c3,1.2,5.9-0.2,8.8,0.1c0.5,0.1,1.1,0,1.3,1.1c-2.5,0.9-5.5,0.4-7.9,2.2
			c5.4,0.5,10.8-0.9,16.2,0.1c-4.9,1.4-9.9,1.8-14.8,1.9c-3.2,0-4.2,1.3-4.2,4.1c-0.1,4.8-1.6,9.2-4.3,13.2c-2.3,3.3-6,4.1-9.2,1.5
			c-4-3.2-7.2-7.2-8.3-12.3c-0.4-2.1-1.5-2.4-3.1-2.3c-2.7,0.1-5.3,0.7-8,0.6c-5.2-0.2-10.4,1.2-15.7,0.3
			C713.5,586.7,716.5,587.7,719.2,587.1z M225.8,603.6c-3.2,2.3-6.8,4-9.9,6.5c-7.8,6.5-12.6,14.8-14,24.8
			c-2.6,18.2,6.8,36.7,24.9,43.1c14.3,5.1,27.8,2.8,39.5-7.4c12.9-11.3,16.2-25.4,12.4-41.5c-1.1-4.5-3.2-8.6-6.1-12.2
			c-0.8-0.9-1.3-2-1.4-3.2c0.3-2.7-1.8-3.9-3.5-5.2c-4.3-3.2-8.8-6.3-14-8c-5.3-2.1-10.8-2.2-16.3-1.7c-9.7,0.9-17.4,4.3-22.7,9.8
			c3.9-1.6,6.6-5,10.7-5.7C225.5,603.1,225.6,603.4,225.8,603.6z M802.6,637.4c12-2.3,22.6-12.8,23.9-27.5
			c1.1-11.7-5.8-24-16.5-28.8c-16.1-7.2-33.3-0.1-40.1,15.2c-3.9,8.8-4,17.8,1.3,26.3c3.5,5,7.2,9.7,13.2,11.9
			c0.6,0.2,1.1,0.7,1.6,1C791.3,638.2,796.8,638.5,802.6,637.4z M306.2,676.1c1-1.2,1.1-2.1,0-3.8c-5.7-8.2-9.9-17-9.9-27.3
			c0-1.5-0.1-2.9-2.1-2.9c-1.8,0-2,1.2-2.1,2.6c-1,12.6-6.5,23.1-15.2,32.1c-2.5,2.6-2.6,2.5-2.4,6.9c-2.4-3.8-4.2-1.4-6.2,0
			c-2.3,1.6-4.8,2.8-7.4,3.9c-1,0.4-1.7,1-1.5,2.1c0.2,1.2,1.1,1.5,2.1,1.5c4.9-0.3,9.8,0.7,14.7-0.5c1.9-0.4,3.9,0.6,6,0.5
			c3.8-0.2,7.7,0.1,11.6,0.2c3.5,0.1,7.3,0.7,7.8-4.4c1.1,4.5,1.8,5,6.5,4.1c2.1-0.4,4.4,0.3,6.4-0.2c6-1.5,11.8,0.7,17.6,0.4
			c0.5,0,1.1-0.1,1.6-0.1c0.1,0,0.1-0.2,0.3-0.5c-5.1-0.6-9.2-3.9-14.1-5c-1.6-0.4-2.2-3-4-3.8c-0.5-0.2-0.8-0.7-1.2-1.1
			c-1.7-1.4-3.3-3.5-5.3-4c-2.6-0.7-3,2.9-4.8,4c-0.4,0.2-0.7,0.4-1.1,0.6C303.6,679.2,305,677.7,306.2,676.1z M354.9,600.2
			c3.2,0.4,6.3,1.7,10.3,2.8c-12.5-6.7-29-5.4-39.8,2.4c5.7-1.8,10.6-5.6,16.8-4.7c-1.7,1.5-4,1.4-5.9,1.9
			c-14.1,3.8-26.7,18.9-28.3,33.7c-1.7,16.4,4.7,29.1,17.8,38.4c8.7,6.1,18.7,7.6,29.1,5.3c10.7-2.3,18.9-8.1,24.9-17.1
			c0.4-0.6,0.7-1.5,1.6-1.3c1,0.3,0.1,1.3,0.7,2.1c0.5-0.6,0.9-1.1,1.3-1.7c0.4-0.6,0.7-1.3,1.1-2.1c-3.1,0.8-2.4-1-1.6-2.3
			c2.5-4.7,3.4-9.8,3.7-15.1c0.7-14.3-4.6-25.6-16.2-33.9c-7-5-14.9-7.3-23.5-7.5c-1.5,0-3-0.2-4.5-0.3
			C346.5,599,350.8,599.7,354.9,600.2z M698.9,598.1c-23.7,1-41.3,19-41.4,41.7c-0.1,24.7,16.9,42.6,42.7,42.9
			c23.2,0.3,42.1-20.2,41.9-42.7C742.8,617.9,724.1,597,698.9,598.1z M487.5,665.1c-1.1-0.7,0-1.6,0.3-2.2c6.3-10.1,7.5-21,5.1-32.4
			c-1.7-8.1-6.5-14.3-12.5-19.8c-1.2-1.1-1.2-1-0.6-2.8c0.2-0.6-0.2-0.8-0.5-1c-0.5-0.4-1.2-1.2-1.6-0.6c-1.2,1.9-2.2,0.5-3.2-0.1
			c-15.2-8.1-30-6.8-43.7,3.2c-11,8-16.8,19.3-16.2,32.9c0.9,21.9,16.2,37,37,38.7c12.3,1,22.8-3.2,31.4-12.1c1.1-1.2,2-2.7,4.2-2.4
			c1.2,0.2,1.7-1,2.5-2.2C488.3,663.9,488.3,665.6,487.5,665.1z M542.5,639.8c0.1,24.8,16.2,40.5,39.8,40.9
			c21.3,0.3,39.8-17.2,39.9-40.6c0.1-22.5-19.9-40.2-39.7-39.2C560.6,600.5,542.4,619.1,542.5,639.8z M530.8,647.7
			c0-0.1,0-0.2,0-0.3c-0.7-5.3-0.7-5.3-6-5.4c-5.1,0-10.3,0-15.4-0.1c-2.4-0.1-3.2,0.9-3.5,3.3c-1.8,17.1-10.1,30.3-24.6,39.7
			c-3.7,2.4-7.8,3.8-11.8,6.3c16.4,0,32.8,0,49.1,0c16.5,0,32.9,0,49.4,0C548.3,685.5,533.5,668.5,530.8,647.7z M485,599.4
			c8.2,5.6,14,13.4,17.6,22.7c0.9,2.4,2.2,3.1,4.5,2.9c4.6-0.4,9.1-1.1,13.7-0.7c2.3,0.2,3.3,0.9,3.2,3.3c-0.1,2.7,0,5.4-0.1,8
			c0,1.7-0.5,3.3-2.5,3.6c-1.7,0.3-3.7,0.9-4.9-1.2c-0.6-1.1-1.4-1.5-2.7-1.3c-2,0.4-4,0.8-6,0.8c-0.8,0-1.6,0.2-1.6,1.2
			c0,1.1,0.9,1,1.6,1.1c6.9,0,13.7,0,20.6,0c2.4,0,2.1-1.9,2.2-3.2c0.1-5.7,1.9-11,4.2-16.1c6.9-15.2,18.3-25.2,34.5-30.2
			c-34.1,0-68.2,0-102.2,0C473.8,592.4,479.6,595.7,485,599.4z M685.5,690.7c-6-1.9-11.4-4.6-16.5-8.2c-11.9-8.4-18.9-19.9-21-34.3
			c0-0.3,0-0.7-0.1-0.9c-1.1-1.7,0.7-4.8-1.7-5.4c-3.5-1-7.3-0.5-10.8,0.6c-1,0.3-1.2,1.7-1.3,2.8c-1,10.6-5.1,19.9-11.8,28
			c-6.6,8-15,13.6-25,16.8c-0.4,0.1-0.8,0.3-1.2,0.4c-0.2,0.1-0.3,0.3-1.1,0.9C625.7,691.6,655.5,690.3,685.5,690.7z M595.3,590.3
			c6.1,2.3,11.7,4.5,16.7,7.8c7.9,5.3,13.9,12.4,17.6,21.1c1.4,3.3,2.7,5.2,6.9,4.7c3.5-0.5,7.3-0.7,10.9-0.1
			c2.2,0.4,3.2-0.6,4.1-2.5c2.2-4.9,4.7-9.7,8.3-13.6c7.1-7.7,15.2-14,25.4-17.3C655.4,590.3,625.7,590.3,595.3,590.3z M409.3,666.9
			c-3.9-6.6-5.9-13.9-6.6-21.6c-0.1-1.3,0.2-3.1-1.8-3.1c-2-0.1-2,1.8-2.2,3c-0.4,4.2-1.2,8.2-2.6,12.2
			c-6.1,16.8-18.1,27.4-34.7,33.2c-0.4,0.1-0.7,0.2-1,0.7c26.4,0,52.8,0,79.3,0C426.2,687.1,416.2,678.9,409.3,666.9z M382,602.5
			c5.8,5.5,10.3,11.6,13.3,19c0.8,2.1,1.9,3.8,4.4,3.2c2.5-0.6,5.4,0.7,7.1-3.3c6.6-15,18.1-24.8,33.7-29.9c0.7-0.2,1.4-0.4,2-0.9
			c-26.8,0-53.6,0-80.4,0C369.3,594,376.2,597.1,382,602.5z M276.5,603.1c5.4,5.4,10.1,11.3,12.5,18.8c0.5,1.6,1.4,2.6,3.2,2.6
			c1.5,0,3,0,4.5,0c1.5,0,2.4-0.7,2.9-2c3-7.3,7.6-13.6,13.2-19.1c6.4-6.3,14.2-9.7,22.6-12.4c-26-0.2-52-0.8-78.3,0.4
			C264.3,594.2,271,597.6,276.5,603.1z M738.3,546.6c-6.1-0.1-12.2-0.5-18.3-0.3c-32.7,0.9-65.4,0.1-98.2,0.7
			c-23.7,0.4-47.4-0.7-71.1,0c-23.1,0.7-46.1,0.6-69.2,0.3c-16.2-0.2-32.4-0.2-48.6-0.3c-14.7-0.1-29.5-0.3-44.2,0.2
			c-16.6,0.6-33.3-0.5-49.9-0.1c-32.5,0.9-64.9,0.1-97.4,0.5c-6.8,0.1-13.4-0.8-20.2-0.6c-9.5,0.2-19,0.9-28.6,0.7
			c-7.8-0.2-15.6,0-23.4,0.3c0.9,0,1.7,0,2.6,0c40.5,0.7,80.9,1,121.4,0.5c28.5-0.3,57.1,0.8,85.6-0.1c6.4-0.2,12.8,0.3,19.2,0.1
			c12.7-0.4,25.3-0.6,38-0.3c27.9,0.6,55.8,0.6,83.7,0.3c15.8-0.2,31.5-0.6,47.2-0.2c13.8,0.3,27.7,0.7,41.5,0.2
			c27.6-1,55.1-0.1,82.7-0.3c16.7-0.1,33.5-0.2,50.2-0.3c0.8,0,1.7,0.3,2.6-0.6C741.9,546,740.1,546.6,738.3,546.6z M588.7,530.4
			c1.4-0.5,1.2-3.5,0.1-4.9c-0.8-1-2.4-1-2.9,0.8c-0.2,0.8,0.1,1.7-0.8,2.5c-2.3-5.2-7.2-2.9-10.6-2.9c-4.9,0-9.8-0.2-14.6-0.3
			c-1.7,0-3.4,0.2-5.1,0.4c-1.1,0.1-1.8,0.6-1.8,1.8c0,1.4,0.7,2,1.9,2.1c2.2,0.1,4.5,0.1,6.7,0.1c3.7,0,7.4-0.2,11.2,0.6
			c2.9,0.6,6.2,0.1,9.2-0.4c3.4-0.6,4.1,0.9,3.8,3.8c-0.1,0.4,0,0.9,0,1.3C586.2,533.4,585.8,531.4,588.7,530.4z M729,537.8
			c-2.8-1.6-5.6-3.1-8.2-5c-1.8-1.3-2.8-0.9-2.9,1.3c-0.1,2.9-0.2,5.8-0.3,8.7c-0.1,1.1,0.4,1.6,1.5,1.6c6.5,0,13,0,19.5,0
			c0.1-0.2,0.1-0.4,0.2-0.6C735.4,541.8,732.3,539.7,729,537.8z M167.2,610.2c3.3,0,6.3-3.3,6.2-6.9c-0.1-2.7-3.2-5.6-6-5.6
			c-3.3,0-6.6,3.5-6.6,6.9C161,607.5,164.1,610.2,167.2,610.2z M132.3,553.9c-2.9,1-4.8-0.2-4.9-3.3c0-1.6,0.1-3.2-0.4-4.8
			c-0.2-0.5,0.1-1.2-0.7-1.3c-0.6-0.1-0.9,0.4-1.1,0.9c-2.1,5.8-2.4,11.7-2.3,17.8c0,1.2,0.6,1.8,1.5,1c4.7-3.7,9.6-7.2,13.7-11.6
			c-0.2-0.2-0.4-0.5-0.6-0.7C135.9,552.6,134.1,553.2,132.3,553.9z M141.7,546.8c0.3-1.9-0.4-2.4-2.1-2.7c-3-0.4-6,1.2-9.1,0.1
			c-0.8-0.3-1.3,0.5-1.5,1.3c-0.4,1.8-0.2,3.6,0.2,5.4c0.3,1.6,1.8,1.4,2.9,1.1c1.4-0.3,3.4-0.1,3.6-2.4c0-0.5,0-1,0-1.6
			C139.6,550.6,141.1,550.2,141.7,546.8z M761.7,629.9c-0.2,0.8,0.2,2-1.1,1.9c-1.2-0.1-0.5-1.2-0.6-1.8c-0.3-2.8-2-4.3-4.7-4.1
			c-2.7,0.2-4.2,2-4,4.7c0.1,1.7,1.1,2.8,2.6,3.2c2.6,0.8,5.2-0.4,7.7-0.7c2.5-0.4,1.8-5.3-1.4-7.9
			C760.5,627.3,762.1,628.3,761.7,629.9z M645,627c-0.6-2.3-2.4-1.1-3.7-1.4c-1.3-0.4-2.7-0.4-4.1,0.1c-2.4,0.8-3.7,2.7-3.3,4.8
			c0.4,1.9,1.9,3.5,4.4,3.6c2.5,0.1,3.7-1.3,4.2-3.5c0.1-0.5,0.1-1,0.1-1.6c0-0.6-0.2-1.4,0.7-1.5c1.1-0.1,1.1,0.8,1.1,1.6
			c0.1,1.4,0.1,2.7-0.2,4.1C646,631.2,645.6,629.1,645,627z M516.7,631c-0.2,0.9-0.2,2.3-1.4,2.2c-1.3,0-0.6-1.3-0.6-2.1
			c-0.2-2.5-1.4-4-4-4.1c-2.7-0.1-4.1,1.5-4.6,4c-0.4,2.3,1.2,4.1,3.5,4.3c2.4,0.2,4.4-1.4,6.9-1c0.8,0.1,1.2-1,1.4-1.9
			c0.2-1.7-1-4.7-2.9-6.4C514.9,628.1,517.1,629.2,516.7,631z M324.2,675.8c6.5,9.2,35.1,10.1,43.9,1.1
			C353,684.7,338.6,684.4,324.2,675.8z M314.8,693c-3.8,0-7.7,0-11.5,0c-0.6,0-1.4-0.2-1.6,0.7c-0.2,0.9,0.7,0.9,1.3,1
			c6.3,1,12.6,1.1,19.3-0.5C319.6,692.7,317.2,693.1,314.8,693z M445.9,682.1c13.2,4.5,29.5-2.5,36.2-9.9
			C471,680.9,459.2,684.4,445.9,682.1z M259.4,693.3c-0.6,0.1-1.2,0-1.1,0.7c0,0.3,0.4,1,0.6,1c5.8,0.1,11.5,0,17.3,0
			c0-0.4,0-0.8-0.1-1.2C270.6,693,265,692.6,259.4,693.3z M761.3,636.5c-0.6-1.2-7.9-0.5-8.7,0.7c-1,1.4,0.1,2.1,1.2,2.2
			c4.3,0.5,8.6,0.4,12.9-0.3C764.6,638.8,762.5,638.9,761.3,636.5z M102.6,619.3c0,0.9-0.1,1.9,1.1,1.8c1.1,0,0.8-1,0.9-1.7
			c0.2-3.7,0.5-7.4,0.4-11.2c0-1.2,2.4-3.5-0.5-3.7c-2-0.1-1.4,2.7-1.7,4.1c-0.4,1.7-0.1,3.6-0.1,5.4c0,0-0.1,0-0.1,0
			C102.7,615.9,102.7,617.6,102.6,619.3z M295.5,695.2c0.6,0,1.4-0.2,1.4-1c0-0.8-0.8-1-1.4-1c-4.3-0.1-8.5-0.1-12.8-0.1
			c-0.7,0-1.3,0.2-1.3,1.1c0,1.1,0.8,1.1,1.6,1.1c2,0,4,0,6.1,0c0,0,0,0,0,0C291.2,695.2,293.4,695.2,295.5,695.2z M753.1,672.3
			c-2.8-1-17.3,6.5-18.2,9.8C741.1,678.8,747.1,675.5,753.1,672.3z M643.9,638.9c-1.3-4.5-4.8-2.5-7.5-2.6c-1,0-2,0.3-2,1.6
			c0,1.2,0.8,1.9,2.1,2c3,0,6,0,9.1,0C644.9,639.4,644,639.3,643.9,638.9z"/>
		<path d="M413,422.4c3.4-2.4,5.2-6.1,6.8-9.6c2.6-5.8,6.4-7.4,12.7-7.3c41.5,0.5,83.1,0.5,124.6,0.9c9.4,0.1,18.7,1.8,28.1,2.3
			c7.8,0.4,15.6,1.2,23.4,1.9c14.1,1.3,28.2,1.6,42.1,3.9c3.1,0.5,6-1,9.1,0.1c0-0.7,0.1-0.9,0-1.1c-0.4-1-2.7-1.3-1.5-2.6
			c1.1-1.3,2.4,0.3,3.1,1.2c0.7,0.8,3,0.9,1.4,3c-0.5,0.6,0.8,1.1,1.3,1.5c16.1,11.5,18,36.9,4.7,50.2c-0.5,0.5-1.2,1-1.1,1.9
			c3.9-0.6,8.3-7.6,10.7-16.5c1.8-6.9,1.2-13.7-0.9-20.5c3.5,7.3,3.7,14.8,1.8,22.6c-1.7,6.9-5.3,12.5-9.9,17.7
			c-1.3,1.4-1.6,2.6-1.4,4.8c0.6,6.8,0.2,13.7,0,20.6c0,2-1.2,1.9-2.6,1c-2-1.2-3.8-2.9-6.3-2.9c3.1,4,7.5,5.7,12,7.3
			c0.2-0.2,0.3-0.3,0.5-0.5c-1.3-4.2-1-8.6-0.6-12.8c0.5-4.5,0.5-9,0.4-13.5c-0.1-2.8,0.8-3.7,3.7-3.7c13.3,0.1,26.6,0.1,39.9,0.1
			c1,0,1.9,0,2.9,0c0.9,0,2-0.2,1.8-1.3c-0.1-1.5-1.3-0.4-1.9-0.5c-14.2-0.2-28.3-0.3-42.5-0.5c-0.5,0-1.1,0-1.4-0.6
			c4.1-5.9,6.5-12.5,8-19.6c0.8,0.4,1.4,0.9,2.1,1c1.4,0.3,2.5-0.3,3.3-1.5c0.6-1,0.7-2,0.2-3.1c-0.7-1.2-1.9-1.5-3.1-1.2
			c-1.8,0.6-2.3,0-2.3-1.8c0.2-7.3-2.6-13.6-6.2-19.7c-1.4-2.4-0.5-2.4,1.4-2.4c8.6,0.1,17.1-0.2,25.7,0.4c1.5,0.1,2.6,0.7,3.4,2.1
			c2.8,4.5,5.8,9,8.6,13.5c0.6,1,1.3,1.8,2.7,2.5c-0.3-2.5-1.8-3.9-2.7-5.7c-0.6-1.2-0.7-1.6,1.1-2c4.1-0.9,8,0.6,12.1,0.6
			c26.9,0,53.9,0.1,80.8,0.2c6.4,0,12.8,0.8,19.2,0.5c8.8-0.4,17.5,0.1,26.2,0.3c13.6,0.3,27.2,0.1,40.9,0.4c1.6,0,2.2,0.6,2.4,2.3
			c0.5,5.9-0.4,6.9-6.2,6.9c-11.7,0-23.4,0.1-35.1,0.1c-12.9,0-25.8-0.5-38.6-0.2c-30.9,0.7-61.8-0.2-92.7,0.3c-3.1,0-5.1-1-6.9-3.3
			c0.6,3.7,0.6,3.4-3.2,3.6c-7.4,0.4-14.8,0.3-22.2-0.1c-2.7-0.2-4.6,0.3-4.1,3.8c0.2,1.6,0.4,3.2-0.5,5.5c2.4-1.3,1.9-2.7,1.9-3.8
			c-0.3-3.3,1.1-4.2,4.3-4.1c7.4,0.3,14.7,0.2,22.1,0.3c20.2,0.1,40.3,0.7,60.5,0.2c22.5-0.6,45-0.6,67.5-0.2
			c17.1,0.3,34.1-0.9,51.1-0.3c3.1,0.1,4.2-1.2,4.3-4.2c0.1-10.1,0.4-9-8.7-9c-21.8-0.1-43.6,0.2-65.4-0.2
			c-18.7-0.3-37.4-0.1-56-0.5c-17.7-0.4-35.5-0.7-53.2-0.6c-2.5,0-4.4-0.5-5.5-2.9c-2.6-5.8-6.8-8.2-13.4-7.7
			c-7.5,0.5-15-0.3-22.5-0.4c-2.2,0-2.7-1-2.7-3c0.1-19.6-0.2-39.3,0.4-58.9c0.5-17.2,0.6-34.3,0.9-51.5c0-1.5,0.8-4.1-1-4.1
			c-1.9,0-1,2.6-1,4.1c-0.1,6.2,0,12.5-0.1,18.7c-0.3,17.8-0.9,35.6-1.3,53.4c-0.2,10.2-0.2,20.4-0.5,30.5c0,0.9,0,1.7-0.1,2.6
			c-0.1,1.3-0.1,2.9-1.3,3.4c-1.2,0.4-2-1-2.8-1.8c-1.5-1.4-3-2.7-4.7-3.9c-2.3-1.7-4.7-1.1-5.5,1.6c-0.5,1.6-1.3,1.4-2.4,1.3
			c-10.3-0.8-20.7-1.7-31-2.5c-0.7-0.1-1.6,0.2-2.1-0.5c-0.6-0.9,0.4-1.2,0.9-1.8c2.5-3.2,2-6.8-1.1-9c-3.1-2.2-6.2-0.3-8.8,2.6
			c-0.1,0.1-0.2,0.6-0.2,0.6c3.1,1.4-0.6,3.9,0.9,5.6c0.5,0.5,0.5,1.2-0.2,1.6c-1.2,0.8-5.8-0.9-6.4-2.2c-2.1-5-2.9-4.9-8.3-5.7
			c-6.1-0.9-11.8,1.9-17.8,1.2c-2.6-0.3-4-0.4-3.6-3.5c0.2-1.8,0.3-3.8-0.4-6c-1.6,1.4-1.1,2.9-1.1,4.2c-0.1,3.3-2.2,5.6-5.5,5.5
			c-4.3-0.2-8.6,0.3-12.7,1.4c-1.8,0.5-3.4,0.5-3.6-2.1c-0.1-1.6-1.6-1.8-3-1.9c-1.8-0.1-3.6-0.3-5.4-0.4c-1.8-0.1-2.3-1.1-1.7-2.7
			c0.6-1.6,1.8-2,3-1c1.6,1.2,2.8,0.9,3.8-0.6c0.9-1.4,1.5-2.9,0.3-4.5c-1.1-1.5-2.5-1.4-4-0.7c-0.2,0.1-0.3,0.5-0.4,0.8
			c0.7,1,1.7,0.1,2.4,0.5c0.9,0.5,1.1,1.3,0.8,2.2c-0.3,0.9-0.9,0.9-1.8,0.5c-2.9-1.3-4.8-0.4-5.8,2.7c-0.2,0.6-0.4,1.2-0.6,1.8
			c-0.4,1.2-1.9,1.6-2.3,1.1c-2.4-3.3-5.8-1.2-8.6-1.6c-3.2-0.5-6.6-0.6-9.9-0.9c-10.2-1-20.4-2.1-30.6-3c-6.3-0.6-12.6-1-18.9-1.3
			c-1.4-0.1-2.9,0.6-4.1,1.5c22.7,0.9,45.1,4.3,68.6,6c-2.4,1.3-4.1,1.5-5.8,1.5c-14.1,0-28.1,0-42.2-0.1c-2.6,0-5.1-1-7.7-0.6
			c-0.7,0.1-1.7,0-1.7,1c0,0.7,0.9,0.9,1.5,0.9c0.7,0.1,1.5,0.1,2.2,0.1c20.5,0.1,41,0.1,61.5,0.1c1.1,0,2.1,0.5,3.1-1.3
			c0.9-1.6,1.7,0.9,2.7,1.5c-29.1,1.1-58.1-0.1-87.2-0.1c3.6-1.2,7.4,0.1,10.9-1.4c-2.5-0.2-5-0.5-7.5-0.7c-0.7-0.1-1.5,0.6-2-0.4
			c-0.4-0.8,0.4-1.4,0.8-2c0.5-0.8,1-1.6,1.8-2.8c-2.4,0.3-3.4,1.9-4,3.2c-2.7,5.9-7.5,6.2-12.9,5.3c-2.9-0.5-3.6-1.6-2-4.1
			c1.4-2.2,1.6-4.4,0.5-6.7c-0.3-0.6-0.7-1.2-1.4-0.9c-0.7,0.3-0.3,0.9-0.2,1.4c0.4,1.4,1.2,3.9-0.2,3.8c-2-0.1-5.3,1.2-6-3.4
			c-1.3,2.7-3.8,4.2-1,7.1c1.6,1.6-0.4,2.9-2,2.5c-2.7-0.5-5.3,0.1-8,0c-3,0-5,1.1-6.5,3.8c-2.2,3.9-4.6,7.7-6.9,11.6
			C413.4,420.3,412.7,421.2,413,422.4z"/>
		<path d="M656.7,495.3c-3.1-2.1-6.6-2.1-10.2-2.1c-17.8,0.1-35.6,0.1-53.4,0.1c-22.7,0.1-45.4,0.1-68.2,0.4
			c-33,0.4-65.9-0.3-98.9-0.1c-8.6,0.1-17.1,0.1-25.7,0.2c-13.6,0.1-27.2-0.1-40.8,0.3c-4.7,0.1-9.2-0.7-14-1.1
			c0.4-0.4,0.4-0.5,0.5-0.5c11.4-0.8,22.9-0.1,34.4-0.4c4.9-0.1,10,0.1,15,0c11.2-0.1,22.4-0.3,33.7-0.3c3.5,0,7.1,0.1,10.6,0
			c0.8,0,2.5,0.2,1.3-1.5c-3.7-5.3-7.4-10.5-14.9-10.8c-2.5-0.1-4.9,0.3-7.3,0.3c-18.9-0.2-37.8,0-56.7-0.3
			c-13.6-0.2-27.2-0.4-40.9-0.3c4.3,1.6,8.8,1.5,13.2,1.4c1.7,0,3.4-0.7,5.1-0.4c9.2,1.3,18.3,0.1,27.5,0.4
			c7.8,0.2,15.7-0.4,23.5-0.5c7.6-0.1,15.2,0,22.9,0c8.9,0.1,7.5-1,7.7,8.1c0,2.4-1,3.1-3.3,3.2c-6.5,0.1-13-0.2-19.5-0.2
			c-18.7,0.1-37.3-0.3-56-0.4c-18.1-0.1-36.3-0.1-54.4-0.1c-5.9,0-5.9,0-5.4-6c0-0.3,0.1-0.7,0-0.9c-1.5-3.3,0.5-3.7,3-3.6
			c8.9,0.1,17.8,0.1,26.7,0.1c1.1,0,2.3,0.4,3.5-0.6c-1.7-0.9-3.7,0.1-5.4-1.1c1.4-1.1,2.8-0.8,4.2-0.8c13.8,0.1,27.7,0.3,41.5,0.4
			c2.8,0,5.3-0.2,6.8-3.5c-0.4,3.6,1.7,3.4,4,3.5c4.6,0.1,9.2-1.2,13.8-0.6c3.2,0.4,6.4,1,9.6,0.5c2.8-0.5,5.6-0.7,8.3-0.4
			c8.9,1.2,17.7-0.7,26.6,0c1.4,0.1,2.6-0.2,2.9-1.8c2,3,6.1,3.4,7.9,6.4c3.9,6.3,9.9,7.3,16.6,6.9c1.6-0.1,3.2,0,4.8,0
			c15.3-0.3,30.6,0.1,46-0.4c18.5-0.7,37-0.2,55.5-0.6c6.5-0.1,13.1,0.2,19.6,0.4c18,0.5,36-0.7,54-0.6c4.3,0,8.6-0.1,12.9,0.1
			c2.8,0.2,4.6-0.4,4.2-3.6c0.1-0.1,0.2-0.2,0.4-0.3c1.8,1.5,1.7,3.6,1,5.3c-0.6,1.7-2.5,0.7-3.7,0.7c-23.8,0.6-47.6-0.9-71.4,0
			c-21.9,0.8-43.8,0-65.6,0.5c-20.8,0.5-41.6-0.2-62.5-0.3c-1.1,0-2.5-0.6-3.8,1.4c3.6,0.2,6.6,0.6,9.6,0.6
			c22.7-0.2,45.5,0.3,68.2-0.4c24.7-0.8,49.4,0.3,74.2-0.2c15.2-0.3,30.5,0,45.7,0c3.6,0,7.7,0.7,10.7-1c3.4-2,4.3-0.3,5.5,2
			c0.6,1,1,2.1,1.5,3.1C658.2,495.9,657.4,495.8,656.7,495.3z M291.7,488.5c0.3-1.6,1.5-1.2,2.3-1.2c2.5-0.1,4.9,0,7.4,0
			c0.9,0,2.4,0.3,2.3-1.4c0-1.4-1-2.1-2.3-2.1c-2.8,0-5.6,0-8.4-0.1c-2.6-0.1-5.2,0.5-7.8-0.8c5.7-1.3,11.5-0.4,17.2-1.1
			c-5.5,0-11,0-16.5,0c-0.8,0-1.8-0.2-1.8,1.2c0,1,0.4,1.6,1.5,1.6c0.7,0,2-0.7,2,0.7c0,0.9-1.1,0.8-1.8,0.9c-0.8,0.2-2.1-0.3-2,1.4
			c0.1,1.5,1.1,1.6,2.2,1.6c5.2,0,10.4,0,15.7,0C298.4,488.6,295.1,489.2,291.7,488.5z M348,487.4c-2.2-1.5-16.9-1.5-20.7-0.4
			C334.3,488.3,341.1,487.6,348,487.4z M352.4,489.7c1.8,0,3.5,0,5.3,0c3,0,6,0,9,0c2.6,0,2.6,0,3.5-2.9c-6.2,0-12.4,0-18.5,0
			c5.3,2,10.9,0.1,16.3,1.8C362.8,489.4,357.6,489.2,352.4,489.7z"/>
		<path d="M307.1,473c-0.1,0.1-0.2,0.2-0.2,0.2c0.1,5.5-3.9,4.3-7.1,4.3c-6.2,0-12.5,0-18.7-0.1c-2.5,0-5.1,0-4.7-3.8
			c-0.4,0.2-0.8,0.3-0.8,0.3c0,3.5-2.2,3.6-4.9,3.5c-6.5-0.2-13.1,0-19.6-0.1c-8.6-0.2-16.8,0.9-24.7,4.5c-1.7,0.8-3.4,1-4-1.4
			c-0.1-0.5-0.5-1-1.2-0.8c-0.5,0.2-0.6,0.6-0.4,1.1c0.2,0.8,1,2.1,0.1,2.3c-2.2,0.4-2.6,3.4-4.8,3.3c-3.9-0.1-6,3.3-9.3,4.4
			c-0.4,0.1-0.6,1.1-0.7,1.7c-0.9,3.5-4.3,5.3-8,4.4c-1.1-0.3-1.4-0.4-1.7-1.7c-0.5-2.7-3.1-3.9-5-5.5c-0.6-0.5-11.4-7.3-11.4-7.3
			c-0.5,0.6,9.2,8.9,9.8,9.3c3.7,2.4,5.6,6.4,8.5,9.4c1,1,1.5,1.4,2.5,0.5c1.6-1.4,3.5-2.6,4.8-4.2c2.3-2.8,5-3.5,8.5-3.4
			c13.3,0.3,26.6,0.8,39.9,0.4c26.9-0.7,53.8-0.2,80.7-0.4c2.4,0,4.8-0.6,7.2-0.9c0-0.3,0-0.6,0-0.9c-4,0-8,0.1-12,0
			c-8-0.3-16,0.2-24,0.2c-13.7,0-27.5-0.1-41.2-0.1c-5.8,0-11.6,0.1-17.4,0c-10.6-0.3-21.2,1.1-31.8,0.6c-1,0-2.5,0.5-3-0.6
			c-0.6-1.5,1.2-1.8,2-2.4c6.3-5.3,13.9-7.7,21.9-9.4c13.8-2.8,27.8-1,41.7-1.3c8.5-0.2,17,0,25.4,0c1.6,0,3.2-0.2,4.8-0.3
			c0.7-0.1,1-0.6,0.8-1.1c-0.3-1.1-0.1-3-1.1-3c-1.6,0-0.3-1.1-0.8-1.3C307.4,473.2,307.3,473.1,307.1,473z"/>
		<path d="M427.8,475.7c0.1-2.2,1.6-2.4,3.4-2.4c9.8,0.3,19.7,0.5,29.5,0.7c16.6,0.2,33.3,0.6,49.9,0.4c17.3-0.2,34.7,0.7,52,0.1
			c9.4-0.3,18.8-1.2,28.1-1.9c0.5,0,1.1-0.2,1.1-1.2c-5.9,0.3-11.8,0.6-17.7,0.9c-1.3,0.1-2.6,0.2-3.9,0.2
			c-38.8-0.1-77.5-0.1-116.3-0.3c-21.8-0.1-43.5-1.3-65.3-1.2c-3,0-3.2-0.6-1.8-3.2c0.8-1.4,2.1-2.5,1.7-4.4
			c-1.7,1.4-2.7,3.3-3.6,5.2c-1,1.9-0.4,3.3,1.7,4c1.5,0.5,2.9,0.5,4.4,0.6c9.8,0,19.5,0.1,29.3,0.1
			C423.2,473.3,425.8,473.3,427.8,475.7z"/>
		<path d="M418.6,500.4c-0.7,1.9-1.7,3.6,0.8,4.2c1.6,0.4,2.5-0.2,2.7-1.9c0.2-3.4-2-5.8-5.5-5.8c-11-0.1-22.1-0.1-33.1-0.1
			c-12.5,0-25.1-0.1-37.6,0c-4.1,0-8.2,0.2-12.3,0.6c-2.3,0.2-4.2,3.1-4,5.4c0.1,1.1,0.6,1.9,1.7,2c1.3,0.1,2.6-0.3,2.7-1.7
			c0.1-2.7,1.8-2.7,3.8-2.6c6.5,0.1,13.1,0.3,19.6,0.4c19.2,0.1,38.4-0.9,57.5-0.4C415.8,500.4,417,500.4,418.6,500.4z"/>
		<path d="M491.3,499.7c12.9,0,25.7-0.1,38.6,0.1c2,0,5.4-1.4,4.6,3.3c-0.2,1.1,1.3,1.2,2.3,1.1c1.2-0.2,1.9-0.7,1.9-2.1
			c-0.1-3.7-2.1-5.6-5.9-5.8c-5.3-0.3-10.5,0.6-15.7,0.6c-21.1,0-42.3,0-63.4-0.1c-1.8,0-3.6,0-5.4,0.1c-2.2,0-5,2.6-5.3,4.8
			c-0.1,1-0.2,2.1,1,2.4c1.1,0.4,2.4,0.1,2.7-1.1c0.7-3,2.6-3,5.1-2.6c5.2,0.8,10.4-0.4,15.7-0.4
			C475.2,499.8,483.3,500.8,491.3,499.7z"/>
		<path d="M598.1,499.3c16.3,0.9,32.6-0.9,48.8-0.2c2.6,0.1,5.9-0.6,5.3,3.9c-0.1,0.4,0.3,0.8,0.8,0.8c0.6,0,0.9-0.4,1.2-0.9
			c2-3.1,0-7.1-3.9-7.3c-5.4-0.2-10.9-0.5-16.3,0c-4,0.4-7.9,0.4-11.9,0.4c-9.5,0-19.1-0.4-28.6,0.1c-9.9,0.6-19.7,0.3-29.5,0.2
			c-4.4-0.1-6,1.5-6.3,5.5c-0.1,1.1-0.2,2.4,1.1,2.6c1.2,0.3,2.2-0.8,2.2-1.8c0.2-3,2-2.9,4.2-3
			C576.3,499.4,587.2,498.8,598.1,499.3z"/>
		<path d="M212.9,498.8c24.1,0,47.6,0,71,0c0,0.2,0,0.4,0,0.5c-3.4,0-6.7-0.1-10.1,0c-16.1,0.3-32.2-0.6-48.3,0.4
			c-3.7,0.2-7.7,0.2-11.4-0.3c-2.8-0.3-1.1,2.2-2.3,2.9c-0.7,0.4,0.2,1.6,1,1.9c1.5,0.6,2.6-0.3,3-1.6c0.5-1.7,1.6-1.8,3-1.7
			c4.5,0.1,9,0.4,13.5,0.3c19.6-0.2,39.3-0.4,58.9-0.6c2.2,0,4.5,0.2,6.7,0.2c1.6,0,3.2-0.3,3.2,2.3c0,1,1.1,1.7,2.1,1.4
			c1.4-0.4,2.2-1.3,2.2-2.8c-0.1-2.4-2.5-4.9-5-4.9c-4.3,0-8.6-0.3-12.8,0.3c-3.2,0.5-6.4,0.4-9.6-0.2c-4.3-0.9-8.5,0.3-12.8,0.3
			c-15.6,0-31.1,0-46.7,0C216.8,497.4,215.1,497.3,212.9,498.8z"/>
		<path d="M149.5,661.3c-0.2,0.9,1.5,1.6,0.5,2.6c-0.8,0.7-1.6-0.1-2.4-0.3c-2.5-0.8-5.1-1.7-7.6-2.5c-0.6-0.2-1.4-0.5-1.7,0.2
			c-0.5,1,0.5,1.3,1.1,1.5c2,0.7,4,1.4,6.1,2.1c1.9,0.7,4,1,5.2,2.9c0.4,0.6,1.3,0.7,2.1,0.7c7.2,0.9,13.6,4,20,7.1
			c1.6,0.8,3.4,0.5,5,1c4.4,1.3,8.4,3.8,12.9,4.6c0.9,0.2,1.1,0.9,1.7,1.4c1.3,1.1,3.4,1.4,3.9,0c1-2.5,2.5-2.6,4.8-2.2
			c-6-3.1-12-5.5-19.3-7.2c2.9,3.9,7.9,2.2,9.8,5.9c-0.7,1-1.6,0.3-2.3,0.1c-3.8-1.4-7.6-2.8-11.4-4.2c-0.8-0.3-2-0.3-1.5-1.6
			c0.5-1.2,1.4-0.3,2.2-0.3c0.8,0.1,1.5,1,2.7,0c-2.2-1.4-4.8-2.8-2.4-6.5c-3.2,4.1-6.2,2.6-9.5,1.3c-3.9-1.6-8.1-2.8-12.1-4.2
			c-0.6-0.2-1.5-0.3-1.7-0.7C154.2,659.8,151.7,661.2,149.5,661.3C149.6,661.2,149.5,661.3,149.5,661.3z"/>
		<path d="M228,469.4c0.5,1,1.3,0.6,2,0.7c-0.7,0.4-1.3,0.8-2,1.3c0,0.3,0,0.5,0.1,0.8c7.2-1.3,14.5-2.3,21.8-2.3
			c7.3,0,14.7,0.6,22.6-1.8c-1.1,1.4-2.2,0.7-2.7,2c2.1,0.9,4.7,0.5,6.6,1.9c0.5,0.3,1.4-0.4,1.5-1.3c0-1.3-0.5-2.3-1.7-2.8
			c-2.4-1.1-5.1-1.1-7.6-1.2c-11-0.6-22-0.8-33,0.4C232.8,467.4,230.5,468.6,228,469.4z"/>
		<path d="M307.1,473c1.5-6.1,2.2-6.3,7.5-6.3c8.9,0.1,17.8,0.3,26.7,0.4c4.7,0.1,9.4,0,14.2,0c2,0,3.8,0.5,5.5,1.4
			c1.8,1,1.9,3,1,4.2c-1.2,1.8-2-0.1-2.8-1c-1-1.2-2.5-1.1-3.9-1.2c-9.9-0.7-19.7-0.4-29.6-0.3c-6.2,0-12.8-1.5-18.2,3.2
			C307.4,473.2,307.3,473.1,307.1,473z M314.6,468.3c14,0.9,28,0.7,42,0.5C342.6,467.8,328.6,468.4,314.6,468.3z"/>
		<path d="M429.8,502.6c-5.7,0.1-5.7,0.2-7.4,5c-0.3,0.9-0.4,1.7,0.4,2.3c0.9,0.8,2,0.9,3,0.4c1-0.4,1.1-1.4,0.8-2.2
			c-1.2-2.4,0.7-2.3,1.9-2.2c2.1,0.2,4,0.2,6-0.3c1.7-0.4,3.1,0,2.6,2.3c-0.2,0.9,0.3,1.5,1.1,1.7c1,0.3,1.9-0.3,2.6-0.9
			c0.7-0.6,0.5-1.3,0.1-2c-1.2-2.2-2.4-4.2-5.6-3.8C433.5,503.3,431.6,502.8,429.8,502.6z"/>
		<path d="M388.5,463.5c2.4-1,3-3.5,4.2-5.4c5.2-8.5,10.1-17.2,15.2-25.8c1.3-2.2,3.8-3.9,3.2-7c-2.4,2.7-4.9,5.2-8.6,5.9
			c-1.3,0.3-1.4,1.4-0.9,2.6c1.4,0.3,1.5-1.9,2.9-1.5c0.1,0.2,0.3,0.4,0.3,0.5c-3.7,4.1-3.6,10-7.1,14.4c-3.3,4.2-5.7,9.2-8.6,13.8
			C388.6,461.8,388.3,462.6,388.5,463.5z"/>
		<path d="M505.6,506.1c2.3,0.2,5.1-1,5.6,2.9c0.1,1,1.3,1.5,2.3,1.2c1.1-0.3,1.4-1.2,1.4-2.2c0-3.4-1.2-4.7-4.6-4.7
			c-2.1,0-4.3,0.1-6.4,0c-3.3-0.1-5.3,1.3-6,4.6c-0.3,1.2,0,1.9,1,2.3c1.2,0.5,2.7-0.3,2.6-1.1C500.6,504.5,504.1,506.9,505.6,506.1
			z"/>
		<path d="M689.5,453.8c-1.3,1-1,2.1-1,3.1c-0.1,2.8,0.4,5.7-0.2,8.4c-0.6,3.4,0.8,3.7,3.5,3.6c7.6-0.1,15.2,0,22.9,0
			c0.9,0,1.8-0.2,2.6,0.1c3.5,1.5,3.4-0.7,3.2-3c-0.4-5.1,0.6-10,0.7-15.1c0-1-0.1-2.1-0.2-3.6c-1.7,1.4-1.5,2.7-1.5,4
			c0,4.2-0.1,8.4,0,12.6c0,2.1-0.6,3.2-2.8,3.4c-6.7,0.9-13.5,0.3-20.2,0.3c-0.5,0-1.1-0.1-1.6-0.2c-5.6-0.4-5.9-0.9-4.9-6.7
			C690.4,458.5,690.8,456.2,689.5,453.8z"/>
		<path d="M155.3,632.3c-1.1-0.2-1.8-0.9-2.1-1.8c-0.7-3.1-2.6-2.9-4.9-1.9c-1.9,0.8-3.7,0.6-5.7,0c-1.2-0.3-3.2-0.9-3.5,0.4
			c-1.2,3.9-5.1,6.7-3.9,11.5c0.8,3.2-1.2,5.3-4.2,5.2c-2.8-0.1-4.3-1.3-5.1-4.3c-0.7-2.5-1-3.2,1.6-3.7c0.8-0.1,1.2-0.6,1.8-0.8
			c3.8-1.4,4.9-5.2,7.3-7.8c1.6-1.8,1.5-3.1-0.1-4.6c-4.5-4.3-5.2-11.9,0.4-16.3c1.3-1,3.6-2.6,0.8-4.9c-0.8-0.7-0.7-2.3,0.3-4.4
			c1.2,4.8,3.8,6.4,8,5.2c0.8-0.2,2.8,0.3,2.6,1.3c-0.8,4.2,3.8,3.2,4.7,5.7c0.3-0.4,0.4-0.7,0.3-0.8c-0.1-0.2-0.2-0.4-0.3-0.5
			c-1.7-2-5.5-3.8-0.6-6.4c0.4-0.2,0.3-1,0.6-1.4c0.7-1,1.5-2,3.4-1.7c-1,1.7-1.9,3.1-2.7,4.6c-0.5,0.8-1.3,1.8-0.4,2.6
			c2,1.7,2.7,4,4,6.1c0.8,1.4,4.7,2.6,0.2,4.2c-0.2,4.5-6.6,7.8-2.4,13.1C155.6,631,155.4,631.7,155.3,632.3L155.3,632.3z
			 M138.2,616.2c-0.1,4.4,3.1,7.4,7.8,7.5c3.6,0.1,6.7-3.2,6.7-7.1c0.1-4.5-2.9-7.3-7.8-7.4C141.4,609.1,138.2,612.4,138.2,616.2z"
			/>
		<path d="M145.7,631.6c3.9,0,8.4,4.5,8.3,8.3c-0.2,4.9-4.3,9.2-8.7,9.2c-4.2,0-8.8-4.5-8.7-8.3
			C136.7,635.8,140.9,631.6,145.7,631.6z M143.3,643.3c2-0.7,3.7-2.1,6-2.1c2.2,0,2.3-1.5,1.8-3.1c-0.9-2.6-3.6-4.1-6.4-3.6
			c-3,0.5-5.3,3.4-5.2,6.4C139.5,643.8,140.3,644.2,143.3,643.3z"/>
		<path d="M124.9,636.5c-4,0-8.3-4.5-8.3-8.6c0-4.8,3.8-8.6,8.4-8.6c5.6,0,8.5,2.8,8.6,8.4C134.2,631.9,130.8,636.5,124.9,636.5z
			 M123.4,622.1c-0.4,0.2-0.9,0.4-0.7,0.8c0.1,0.3,0.5,0.7,0.9,0.8c4,1.4,4,4.5,3.4,7.8c-0.1,0.6-0.8,1.2,0,1.7
			c0.6,0.3,1.2-0.1,1.7-0.5c1.8-1.4,2.5-3.3,2.7-5.3C131.3,623.4,127,620.7,123.4,622.1z M121,625c-2,0.1-2,1.8-2.1,3
			c-0.2,1.9,2.8,5.8,4.3,5.4c2-0.5,2.2-2.5,2.5-3.8C125.6,626.7,123.6,624.9,121,625z"/>
		<path d="M134.8,603.4c-0.2,4.3-2.6,8.9-8.6,9c-4.5,0-8.7-4.1-8.8-8.5c-0.1-3.4,5-9.3,8.9-8.4C131.1,595.3,135,598.7,134.8,603.4z
			 M122.9,606.4c-0.6,0.2-1.7,0-1.7,1.1c0,0.8,0.8,1.1,1.5,1.5c3.2,1.8,6.5,1.3,8.3-1.2c1.9-2.6,1.7-6.2-0.4-8.2
			c-0.4-0.4-0.8-1.1-1.6-0.8c-0.7,0.3-0.8,0.9-0.7,1.6c0.3,1.3-0.2,2.3-1.4,2.9c-0.6-1-0.2-2.1-0.3-3.2c-0.1-0.9,0.1-2.1-1.1-2.4
			c-1-0.3-1.9,0.1-2.7,0.7c-0.6,0.5-1,1.1-1.5,1.7c-0.8,0.9-1.5,1.9-1.1,3.2c0.5,1.5,2,0.9,3.1,1c0.6,0.1,1.3,0.1,1.9,0.2
			C124.9,605.7,123.9,606.1,122.9,606.4z"/>
		<path d="M167.7,619.3c4.5,0,8.4,4,8.4,8.8c0,4.6-4.2,8.9-8.8,8.8c-4.2,0-8.6-4.5-8.6-8.8C158.7,623.7,163.2,619.4,167.7,619.3z
			 M161.3,628.3c0.1,3.3,3,5.9,6.5,5.8c3.6-0.1,5.5-2.4,5.4-6.5c-0.1-3-2.8-5.8-5.7-5.7C163.9,622,161.2,624.8,161.3,628.3z"/>
		<path d="M146.1,581.6c4.1,0,8,4.1,8.1,8.3c0.1,4.4-4.3,9-8.7,9c-5.1,0-8.4-3.5-8.4-8.8C137.1,585.3,141,581.6,146.1,581.6z
			 M144.8,596.5c3.1,0.7,6.2-1.5,6.8-4.8c0-0.2,0.1-0.4,0.2-0.6c0.3-2-2.5,0.5-2.2-1.4c0.1-1,1.8-1.5,0.9-3.1
			c-1.6-2.7-6.9-3.3-8.8-0.9c-1,1.3,0.2,2.2,0.5,3.2c0.3,1,2.3,2.1,1.1,2.8c-1.4,0.9-1.6-1.5-2.4-2.2c-0.2-0.2-0.5-0.3-0.8-0.4
			C139,592.8,140.8,595.6,144.8,596.5z"/>
		<path d="M155.3,632.3c-0.1,1.1,0.2,2.1,0.7,3.1c0.7,1.3,0.6,2.7-0.3,3.9c-1.7,2-1.5,4.1,0.3,5.7c1.9,1.6,4.3,1.5,6.2,0.1
			c1.8-1.3,2.9-3.5,2.3-5.9c-0.5-2.2-2.1-3-4.3-3c-1.3,0-2.2-0.7-2.7-1.9C157.1,633.2,156.6,632.4,155.3,632.3
			C155.4,632.2,155.3,632.3,155.3,632.3z"/>
		<path d="M127,589.5c0.2,1.5,0.6,2.7,2.1,3.3c1.8,0.6,3.1,1.8,4.3,3.2c0.3,0.4,0.6,1.3,1.4,0.6c0.6-0.5,1.3-1,0.6-1.8
			c-0.9-1.2-0.3-2.2,0.2-3.3c0.3-0.6,0.4-1.4,0.4-2.2c0-2.1-0.4-4.5-2.7-4.6C128.9,584.5,127,586.2,127,589.5z"/>
		<path d="M156.8,597.5c2.1-1.5,4.1-2.5,6.7-2.8c1.9-0.2,3.7-1.8,3-4.4c-1.2-4-3.7-5.6-6.9-4.4c-1.8,0.6-3.1,3.7-1.8,5.3
			c1.8,2.2,0.8,3.5-0.6,5.1C156.9,596.7,156.9,597.2,156.8,597.5z"/>
		<path d="M181,586.8c-0.7,3.9,0.9,7.3,2.1,10.9c0.9,2.7,4.3,3.7,6.6,2.1c4.5-3,7.5-7.1,9.3-12.2c0.2-0.6,0.6-1.4-0.3-1.6
			c-0.9-0.2-0.8,0.7-1.1,1.3c-1.6,4.3-4.2,7.8-8,10.5c-2.2,1.6-3.9,1.1-4.9-1.1c-1.9-4.2-4.4-8.4-1.5-13.2c0.4-0.7,0-1-0.6-1.1
			c-0.9-0.2-1.9-0.2-1.9,1C180.6,584.4,180.8,585.5,181,586.8z"/>
		<path d="M185.3,580.1c-3-2.5-5.1-4.3-8.6-2.9c-2,0.8-4.4-1.3-7.1-0.4c1.8,2.6,5.2,0.8,6.8,3c-0.1,1.3-1.7,0.7-2,1.7
			c0,0.1,0.1,0.4,0.2,0.5c1.6,0.6,4,1.7,4.8,0.4C180.7,579.9,182.6,580,185.3,580.1z"/>
		<path d="M768.4,613c-2.8-14.1,8.2-30.9,24-33.4c10.3-1.6,19.3,1.4,26.1,9.7c0.3,0.4,0.4,0.9,0.6,1.4c-0.2,0.2-0.4,0.3-0.5,0.5
			c-3.9-3-3.9-3-7.1,0.7c-0.5,0.6-0.9,1.2-1.4,1.7c-2.5,2.2-2.4,4.5-0.4,6.9c2,2.5,2.3,5.6,2.2,8.5c-0.1,2.2,0.7,2.8,2.4,3.3
			c1.7,0.5,3.6,0.4,4.9,2.1c-1.9,1.7-3.9,1.2-5.8,0.6c-1.8-0.6-3-0.3-4,1.5c-1.9,3.3-4.8,5.4-8.5,6.2c-2.3,0.5-3.2,1.8-3.1,4.1
			c0.1,1.4,0,2.8,0,4.2c-0.1,3.9,0.9,4.5,4.7,3.5c7.3-1.9,13.1-5.7,17-12.2c0.6-0.9,1-2.2,3-2.2c-1.6,3.8-3.8,6.9-6.7,9.5
			c-7.7,6.7-16.6,9-26.6,6.6c-1-0.2-2.1-0.4-3.2-0.6c-0.5-0.3-1-0.8-1.6-1c-6-2.2-9.7-6.9-13.2-11.9
			C770.5,619.3,769.1,616.3,768.4,613z M770.9,614.7c0.3,1.5,1.3,2.2,2.8,1.6c0.3-0.1,0.6-0.3,0.9-0.4c4.6-1.2,8.7-2.5,7.5-8.8
			c-0.5-2.7,0.8-5.4,2.8-7.6c1.7-1.9,0-3.1-1-4c-1.8-1.6-2-3.1-1-5.1c1.7,0.8,2.6,2.2,3.3,3.8c0.9,1.7,2,2,3.6,0.9
			c4.2-2.8,8.6-2.8,13.1-0.6c1.7,0.8,3.1,0.7,4.2-0.8c1.5-2,2.9-4,4.5-5.8c1.2-1.4,0.7-2.1-0.6-2.9c-8-5-16.3-4.8-24.7-1.3
			c-0.3,0.1-0.5,0.3-0.8,0.5c-4.2,2.2-4.2,2.2-2.6,6.3c-1,1.2-1.9,2.4-3.2,0.2c-0.7-1.2-1.9-1-2.9,0c-2.4,2.5-4.1,5.3-4.8,8.7
			l-0.1,0.1C769.3,604.4,769.8,609.6,770.9,614.7z M792.7,619.5c-0.7-0.8-2.8-0.4-2.2-1.8c0.7-1.6,2.2-0.3,3.3,0
			c4.3,0.9,8.4,0.4,11-3.2c2.4-3.3,3.3-7.4,1-11.4c-2.5-4.7-8.4-6.4-13.4-3.9c-5,2.5-7.1,8.1-4.8,12.9c0.3,0.6,0.7,1.1,0.9,1.7
			c0.3,0.8,1.8,1.3,1,2.4c-0.8,1.1-1.6-0.7-2.6-0.4c1,2.6,3.1,4.2,6.1,4.7C793.3,620.1,793,619.9,792.7,619.5z M782.1,620.1
			c2.4-0.7,5,0.5,5.9,2.7c1.3,3.3,0,5.4-4.8,8c2.6,2.6,6,3.2,9.3,3.8c1.4,0.3,2.3-0.2,2.5-1.8c0.4-2.5-0.3-5.1,0.7-7.6
			c0.4-1-1.1-2-2.3-2.3c-3.6-1.1-6.8-2.7-8.8-6c-0.7-1.1-1.7-0.8-2.6-0.5c-2.4,0.9-4.8,1.9-7.2,2.8c-1.8,0.7-2,1.6-0.9,3.2
			c1.2,1.7,2.5,3.2,4.5,4.8C777.8,624,779.5,620.9,782.1,620.1z"/>
		<path d="M225.8,603.6c3.7-1,7.4-1.9,11.3-2.4c12.6-1.5,23.1,2.6,32,11.2c0.6,0.6,1.2,1.2,2.1,1.3c0.3-2.7-1.8-3.9-3.5-5.2
			c-4.3-3.2-8.8-6.3-14-8c-2.1-0.3-4.2-0.8-6.3-1c-7.6-0.8-15.2-0.6-22.1,3.4C225.5,603.1,225.6,603.4,225.8,603.6z"/>
		<path d="M461.4,430.6c-11.3,0-22.5,0.1-33.8-0.1c-3,0-5.9,0.2-8.7,1.1c-2.7,0.8-1.6,3.4-1.8,5.3c-0.1,1.5,1.2,2,2.8,1.7
			c1.5-0.3,2.3-0.8,1.6-2.3c-1-2.1,0.3-2.2,1.8-2.2c4.4,0,8.8,0.1,13.2-0.1c1.8-0.1,4,1.1,5.4-1.2c0.1-0.2,1.2-0.3,1.5,0
			c2.6,2.3,5.6,1.1,8.5,1.2c9.4,0.2,18.9,0,28.3,0.4c5.6,0.2,11.3-0.7,17,0.1c1.7,0.2,3.8-0.4,3.5,2.7c-0.1,1.4,1.2,2,2.6,1.6
			c1.7-0.4,2.1-1.8,1.8-3.3c-0.5-2.6-2.9-4.4-5.9-4.4c-12.6,0-25.1,0-37.7,0C461.4,430.9,461.4,430.8,461.4,430.6z"/>
		<path d="M601.4,436.9c-8.7,0-17.3-0.7-25.7-2.3c-5-1-10.1-1.1-15.1-2c-2.3-0.4-4.8,3.1-4.1,5.4c0.3,1,1.1,1.2,1.9,1.4
			c1.1,0.2,1.8-0.4,1.8-1.3c0.1-2.4,1.7-2.2,3.1-2c8.5,0.8,17,1.6,25.5,2.5c9.7,1,19.3,2.1,29,3.1c7.1,0.7,14.3,1.3,21.4,2.2
			c1.2,0.2,4.6-0.4,2.5,3.1c-0.6,1,0.3,2,1.4,2c1.4,0.1,2.6-0.5,2.6-2.1c0.2-4-2-6.3-6-6.7c-10.4-1-20.8-2.1-31.2-3.1
			C606.2,436.7,603.8,436.9,601.4,436.9z"/>
		<path d="M649.6,483.9c0.3-3-1.4-5.9,0.1-9.4c-8.2,2.7-16.2,1.4-24,1.5c-7.8,0.2-15.7,0-24,0c3.1-1,6.2-0.1,9-2
			c-2.8-1.4-5.2-0.2-7.4,0.1c-13.1,1.7-26.2,2-39.4,1.4c-0.5,0-1.1,0-1.6,0c-0.6,0.1-1.5,0.1-1.5,0.8c0,0.9,0.9,1.1,1.6,1.2
			c0.5,0,1.1,0.1,1.6,0.1c11.1-0.2,22.3-0.5,33.3-0.3c15.8,0.3,31.7-0.2,47.5,0.2c1.7,0,2.6,0.8,2.9,2.4c0.3,1.5,0.5,3,1.6,4.1
			C649.4,484.1,649.5,484,649.6,483.9z"/>
		<path d="M666.9,464.8c6-3.7,11.2-19.4,7.7-29.7c-3.6-10.7-13.4-20.2-19.1-19.3c9.7,4.8,15.8,11.9,17.9,21.9
			C675.4,447.6,672.8,456.6,666.9,464.8z"/>
		<path d="M540.5,423.4c-3.4,0-6.8,0-10.2,0c-1.8,0-3.6,0.3-5.4-0.5c-0.5-0.2-1.1-0.5-1.4,0.2c-0.1,0.4,0.2,1.3,0.5,1.4
			c2,0.6,2.9,1.9,3.1,3.9c0,0.1,0.1,0.2,0.2,0.3c1.2,1.4,10.4,0.7,11-0.9c0.5-1.4,1.4-2.3,2.3-3.3
			C540.6,424,540.5,423.7,540.5,423.4z"/>
		<path d="M520.7,419.8c6.3,0,12.5,0,18.8,0c1,0,2.3-0.7,2.6,0.9c0.1,0.9-0.2,2.1,1,2.4c1.6,0.4,0.7-1.8,2-2.2
			c2.4,4.7,2.3,9.8,2.3,14.9c2.5-3.9,1.7-7.9,0.6-11.9c-1.7-5.9-3.1-6.6-9.3-6.1c-4.9,0.5-9.8,0.2-14.7,0.3c-1.1,0-2.3-0.3-3.2,0.5
			C520.6,419.1,520.7,419.4,520.7,419.8z"/>
		<path d="M534.8,465.3c-3-0.1-5.9-3.1-6-6.1c-0.1-2.6,2.6-5.9,4.8-5.9c4.7,0,6,0.9,6,4.2C539.5,461.8,537.4,465.4,534.8,465.3z
			 M534,462c2.2,0.1,3.6-1.1,3.8-3.4c0.2-2.6-1.5-3.3-3.7-3.3c-2.3,0-3.4,1.3-3.6,3C530.4,461.3,532,462,534,462z"/>
		<path d="M603.2,470.1c3.5,1.9,25.6-2.6,28.4-5.8C622.4,466.8,612.9,468.3,603.2,470.1z"/>
		<path d="M665,620.6c-10,11.4-9,35.6,5.9,49.6c19.2,17.9,47.4,13.8,61.6-4.9c14.9-19.6,11.2-46.7-11.4-60.4
			c-16.4-9.9-40-5.7-49,6.6c17.1-12,34.5-15.6,52.4-2.2c7.7,5.7,13,13.6,14.2,23c3.6,27.4-14.5,45.3-34.7,47.2
			c-15.5,1.4-28.8-3.8-37.5-17.6C658.1,648.6,658.6,634.8,665,620.6z"/>
		<path d="M713.2,647.2c-3,5.4-10,9.4-16.9,7.5c-1.6-0.5-3.2-1.1-4.4,1c-0.4,0.8-1.5,0.8-2.3,0.2c-0.9-0.6-1-1.4-0.3-2.2
			c1.3-1.3,0.4-2-0.4-3.1c-1.3-2-2.9-3.8-3.6-6.3c-2.6-9.4,5.9-19.6,15.2-18C710.3,624.4,718.5,637.8,713.2,647.2z M690,641.3
			c-0.1,4.8,4.8,9.3,10,9.4c5.3,0,9.7-4.7,9.9-10.5c0.2-5-4.8-10.4-9.7-9.6C694,630.5,690.1,634.7,690,641.3z"/>
		<path d="M439.7,640.8c0.2-8,6.2-14.1,14.8-14.4c7.2-0.2,14.8,5.7,14.8,14.4c-0.1,8.5-6.5,14.9-15,14.9
			C444.6,655.2,439.5,649,439.7,640.8z M454.4,631.2c-5.8,0-9.8,4.2-9.7,10c0.1,5.7,4.4,10.1,9.8,10.1c5.6,0,9.9-4.7,9.8-10.8
			C464.4,635,460.3,631.2,454.4,631.2z"/>
		<path d="M570.7,639.5c0-0.7,0.2-1.8-0.5-2.1c-2.8-1.1-1.1-2.7-0.6-4.1c1.1-2.7,3.3-4.2,5.8-5.3c8.6-3.9,15.1-1.8,19.4,4.9
			c3.3,5.1,3.2,11.2-0.7,16.3c-4,5.2-9.6,6.9-16,5.7c-1.6-0.3-3-1-4.2,0.8c-0.6,0.8-1.7,0.8-2.6,0.2c-0.6-0.4-0.8-1.4-0.3-1.7
			c3.5-2.1,0.4-3.3-0.7-4.5c-2.7-3.1-3.7-8.6-1.5-12.3c0.4,3.9,0.2,7.5,2.8,10.1C570.6,644.8,570.7,642.2,570.7,639.5z M582.5,630.6
			c-5.4,0-10,4.4-10.1,9.6c-0.1,5.9,4.1,10.5,9.7,10.5c5.7,0,9.9-4.3,9.9-10.3C592,634.6,588.1,630.5,582.5,630.6z"/>
		<path d="M342.3,654.8c-4.5-1.3-8-4.9-9.2-9.6c-1.3-5.2-0.4-10.1,3.8-14.1c1-1,3.5-1.9,0.5-3.6c-0.5-0.3-0.3-1.2,0.2-1.7
			c0.6-0.6,1.6-0.9,1.9-0.2c1.4,2.8,3.5,1.4,5.5,1c8.2-1.8,16.6,5,16.6,13.4C362,651.1,352.4,657.8,342.3,654.8z M335.8,647
			c0.2,0.4,0.6,1,0.8,0.7c2.2-2.3,3.1,0.4,4.3,1.2c7.1,4.8,14.8,1.3,16-7.3c0.1-0.8,0-2.1,1.1-2c1.3,0.1,1.2,1.4,0.9,2.3
			c-0.5,2-1.2,4-1.5,6.1c2-2.1,2.6-4.7,2.6-7.5c0-0.5-0.3-1.4-0.5-1.4c-3.1,0.1-3.1-2.9-4.4-4.5c-2.7-3.2-8.1-4.8-11.5-3.2
			c-4.8,2.2-7,6.3-6,11.1c0.1,0.5,0.2,1.1,0.3,1.6c0.1,0.6,0.4,1.4-0.5,1.6c-0.8,0.2-1.2-0.5-1.3-1.1c-0.3-1.4-0.5-2.8-0.9-5.1
			C334.1,642.7,334.9,644.8,335.8,647z"/>
		<path d="M240.8,625.7c7.9-0.4,15.1,6.7,14.9,14.9c-0.2,8.1-6.3,14.6-14.4,14.8c-7.9,0.2-14.5-6.3-14.5-14
			C226.5,631.9,233.4,626.1,240.8,625.7z M236.6,630.5c0.3,1.3-0.9,1.7-1.6,2.3c-3.4,2.7-4.1,6.5-3.3,10.4c0.8,4,3.5,6.7,7.6,7.3
			c6.2,0.8,10.3-2.2,11.5-9.2c0.9-5-3.7-10.1-9-10.3c-1.1-0.1-2.4,0.3-3.3-0.7c0.4-1.3,2.1-0.7,2.7-1.8c-3.5-1.1-7,0.4-9.9,4.6
			C233.5,632.3,234.4,630.2,236.6,630.5z"/>
		<path d="M810.4,619.4c-2.9,0-5,1.9-5,4.6c-0.1,2.6,2.3,4.8,4.9,4.8c3.4,0,4.9-1.5,4.8-4.9C815.1,620.9,813.6,619.4,810.4,619.4z"
			/>
		<path d="M811.9,601.2c0,2.8,2,4.8,4.9,4.8c2.6,0,4.8-2.2,4.9-4.9c0.1-2.8-1.9-4.7-4.9-4.8C814.1,596.3,811.9,598.4,811.9,601.2z"
			/>
		<path d="M818.6,591.3c3.2,5.5,5.3,11.3,4.9,17.9c-0.2,3-0.3,5.6-3.9,6.2c-0.3,0.1-0.6,0.6-1,1c0.5,0.3,0.9,0.4,1.2,0.6
			c3.8,1.9,4.3,1.3,5.1-3.2c1.4-8-0.2-15.2-4.7-21.9c-0.3-0.4-0.7-0.7-1.1-1.1C818.9,591,818.8,591.1,818.6,591.3z"/>
		<path d="M792.9,586.9c0,2.8,1.9,5.4,4.3,5.5c2.2,0.1,5.1-2.9,5-5.4c0-2.5-2.2-4.9-4.5-4.9C794.9,582,792.9,584,792.9,586.9z"/>
		<path d="M771.8,599.4c0,0.6,0.1,1.3,0.1,1.9c-0.2,2.6,1.1,4.3,3.5,5c2.5,0.9,4.4-0.4,5.7-2.4c1.1-1.7,0.9-3.5-0.4-5.1
			c-1.7-2.1-3.8-2.7-6.3-1.5c-0.9,0.5-1.7,1.2-2.6,1.9C771.9,599.3,771.8,599.4,771.8,599.4z"/>
	</g>
</g>
<g id="text">
</g>
<g id="scratch">
</g>
<g id="guides" display="none">
</g>
</svg>
