<?xml version="1.0" encoding="utf-8"?>
<!-- Generator: Adobe Illustrator 26.0.2, SVG Export Plug-In . SVG Version: 6.00 Build 0)  -->
<svg version="1.2" baseProfile="tiny" xmlns="http://www.w3.org/2000/svg" xmlns:xlink="http://www.w3.org/1999/xlink" x="0px"
	 y="0px" viewBox="0 0 1000 1000" overflow="visible" xml:space="preserve">
<g id="bg">
</g>
<g id="counters">
	<g>
		<path stroke="#000000" stroke-width="2" stroke-miterlimit="10" d="M287.2,610.4c3,5.9,3.5-0.4,4.9-1.5c2.8,6.3-3.5,9.4-4.8,14.3
			c0-1.4,0-2.7,0-4.1c0-2-0.6-1-2.5-2.1c-1.4-0.8-4.6-1.4-4.5-4.6c0.1-1.8-0.5-3.7-2.9-3.3c-2.9,0.4-7.8-1.7-8.4,1.5
			c-1.9,9.6-7.7,6.2-13.1,5.1c-0.6-0.1-1.1-0.2-1.7-0.3c-0.1,0-0.3,0.2-0.6,0.4c1,3.4,5.2,1.4,7,4.1c-5.3,1.2-8.5,4.9-10.8,9.1
			c-1.5,2.6-3.1,2.4-5.5,2.2c-3.2-0.2-2.1-2.3-2.7-4c-1.1-3.5-2.6-7-5-10c0.9,2.8,2,5.6,2.8,8.4c1.1,3.8-0.6,5.3-4.1,4
			c-3.6-1.3-6.8-3.6-10.6-4.4c-1.8-0.4-0.8-1.6-0.5-2.6c0.9-2.9,1.8-5.8,1.1-9.1c-2.5,7.2-4.7,14.6-9.1,21.1
			c-4.8,7.1-11.4,11.9-19,15.4c-7.4,3.4-15.5,6.1-23.4,3.8c-7.5-2.1-15.8-2.6-22.3-7.8c-0.2,3.4-2.3,3.2-4.7,2.4
			c0.9,2.7,4.2,4.1,3.9,7.7c-0.1,1.4,1.9,3.4,4.3,2c2.4-1.4,4.8-0.3,7.2-0.1c-2.5-2-0.5-2.6,1.1-3.3c-1.5-1.1-3.9,0.5-5.2-2.2
			c5.1-1.3,9,0.4,12.9,3.1c-2.9,2.1-5.7,3.1-8.9,2.3c1,1.9,3.8,1.5,4.5,4.4c0.6,2.4,3.2,2.9,5.6,0.9c3.9-3.2,7.2-0.9,9.6,2.2
			c2.1,2.8,3.6,3.6,6.9,1.5c3.6-2.4,7.2-1,9.5,2.6c1.9,3,3.4,4.5,6.6,1.4c2.5-2.4,8.3-0.7,9.9,2.6c1.2,2.6,2.8,3.9,5.2,1.7
			c4.7-4.3,8-0.6,10.6,2.4c2.3,2.6,3.3,3.6,6.8,1.4c3.6-2.3,7.8-1.9,10.1,3c1.1,2.3,3.7,3.9,5.5,1.7c4.7-5.5,7-0.8,9.1,2.1
			c1.8,2.4,3.2,3,5.6,1.3c3.8-2.8,7.1-1.6,10,1.3c2.4,2.4,4.1,3.1,6.2-0.5c1.8-3,7.9-3,10.3-0.1c2.1,2.6,4.2,2.2,6.1,0.2
			c3.1-3.2,2.9-2.8,4.6-2.4c2.7,0.6,5.7,0,6.2,3.6c3.1-0.4-0.6-2.9,1.7-3.4c1.8-0.4,2.4,0.4,2.5,2.1c0.1,1.2,0.9,1.1,1.4,0.4
			c3.3-4.7,6.7-2.2,10-0.1c0.4,0.3,1,1.1,1.1,0.6c1.3-6.8,6.7-0.4,9.8-3c1.9-1.6,5.7-0.6,7.3,3.3c0.9,2.2,3.5,4,4.8,0.3
			c2.2-5.7,6.5-5.7,9.7-1.1c0.8,1.1,1.5,2.9,3,1.7c1.3-1-1.7-1.8-0.7-3.7c2-0.6,4,2.5,6.7,0.2c2.8-2.4,5.9-1.2,7.6,2.3
			c0.7,1.4,1.6,2.9,3.5,2c1.7-0.8,1.5-1.5-0.4-1.6c-0.8-0.1-1.6-0.2-1.5-1.7c2.1-0.8,4.9,0.9,6.9-1.1c0.6-0.6,2.7,1.3,1.9-1.2
			c-0.2-0.7-0.7-1.9-2.1-0.9c-0.6,0.4-1.7,2.4-2.1-0.2c-0.2-1.5,0.1-2.9,1.9-2.9c3.2,0.1,6.5-1.1,9.6,1.5c-1.9,1.1-4.1,1.4-5.2,3.3
			c3.4,2.4,3.4,2.4,15.4-1.9c-1.2-2.8-4.1,0.9-5.5-1.7c3.1-3,6.6-2.1,10.2-1.1c-2.3,3-1.8,9.5,0.7,9.8c1.4,0.2,3.1,0.9,4.4-1.5
			c2.5-4.5,6.2-4.5,9.6-0.3c0.8,1,2.1,1.1,2.2,0.5c0.1-1.3-0.5-2.7,1.3-3.3c0.3-0.1,0.6,0.1,0.9,0.3c2.5,1.1-1,3.1,0.6,4.4
			c4.4-6.9,6.4-7,12.3-1.2c2.2,2.1,4.8,4.1,5.7-1.3c0.4-2.6,2.2-3.8,4.8-4.2c2.8-0.4,4,1.7,4.5,3.4c0.9,3.4,4,3.8,5.5,2.9
			c1.4-0.9,3.5-3.3,2.1-6.3c-1.1-2.4,1.6-3.4,7-2.6c-1.6,1.1-1.9,4.3-0.3,5.2c1.3,0.8,1.5,2.2,2.3,3.2c1.9,2.2,5.2,2,5.7,0
			c1-5.2,4.2-3.2,7.1-3.3c1.8,0,3.4,1.3,5.4,0.2c1.3-0.7,2.3,0.2,2.5,2.1c0.1,1.3-2.7,1-1.1,2.1c1,0.7,1.7-0.6,2.2-1.8
			c1.7-3.6,8.1-3.9,10.4-0.5c2.4,3.6,4,5,6.3-0.4c2.1-4.9,6.9-4.6,9.4,0.1c0.7,1.3,1,3,3.1,2.9c-1.6-3.4-1.6-3.3,2.7-3.2
			c0.8,0,1.5-1.1,2.4-1.3c2.3-0.4,5.3-1,6.5,0.9c3.5,5.6,5.3,4.9,8.6-0.4c1-1.7,6.1-2.4,8.6,1.2c2.6,3.8,4.7,3.7,7.2-0.4
			c1.2-2,3.6-3.7,6.4-3.7c3.4-0.1,1.4,3.1,2.7,4.4c1,1,1,3,3.2,2.7c1.3-0.2,2.4-0.1,3.2-1.7c2-3.8,7.7-4.2,10.4-0.5
			c2.1,2.9,3.6,2.8,5.9,0.5c3.4-3.4,6.9-2.8,10.4-0.2c0.6,0.5,1.1,2.1,1.4,0.1c0.3-1.9,1.2-2.6,2.6-1.6c2.4,1.8-1.5,2-1,3.9
			c3-1.6,5-4.5,9.1-4.6c4.5-0.2,3.4,4.6,6.8,5.1c4.1,0.5,2.2-5.8,6.6-4.8c2.9,0.6,5.9-0.2,7.7,3.6c1.1,2.4,3.8,2.2,5.4-0.1
			c2.6-3.6,6.8-3.7,9.6,0.1c2.2,2.9,4.2,2.8,6.3-0.1c2.6-3.5,7-3.5,9.8-0.1c2.5,3,4.8,4.6,6.9-0.5c1.2-3,8.5-3,10,0
			c2,3.9,3.6,4.4,6.1,0.4c2.1-3.4,6.6-3.5,8.9-0.2c2.9,4.1,5,3.1,7-0.6c1.5-2.7,2.9-5.6,6.8-4.4c-0.4,1.7-2.3,0.4-3.3,1.9
			c3,0.9,6,1.6,7.2,5.1c0.6,1.7,2.8,0.7,3.9-0.5c4.8-4.9,6.9-5,11.2-0.3c1.8,1.9,3.6,2.1,5.3-0.1c2.9-3.7,7.9-3.8,10.8-0.4
			c2,2.4,3.8,4.9,5.9-0.2c1.5-3.8,6.7-4.1,9.4-0.4c1.9,2.6,3.8,1.7,5.9,1.5c2.5-0.2,2.5-1.8,2.5-4c0.1-3.2,5.2-5.4,7.9-3.7
			c3,2,4.7,0.5,5.5-2.1c2.2-6.8,3.9-7.8,9.6-4.5c1.2,0.7,2.2,0.1,3.2-0.5c1.9-1.1,3-2.8,2.1-4.8c-0.9-1.9-1.1-3.2,1.2-4
			c2.1-0.7,4.2-2.7,6.4-0.7c4,3.7,5,1,6.7-2.4c1.4-2.9,3.3-6.2,7.8-3.9c3.6,1.8,5.6,0.1,6-3.6c0.5-3.9,5.9-6.9,8.9-4.5
			c3.3,2.7,4.1-0.1,4.9-1.9c1.9-4.4,4.2-6.5,9.1-4c2.1,1.1,4-0.9,4.6-2.5c1.8-5,3.6-9.3,10.2-6.4c0.8,0.4,1.7-0.1,1.9-0.8
			c1.1-3.9,4.6-6.3,6.1-9.7c0.8-1.9-0.1-3.4,3.1-3c3.9,0.6,4-2.8,2.9-5c-2.2-4.5-2.5-9-1.9-13.8c-0.4,0-0.7,0.1-1.1,0.1
			c-0.4,0.7-0.8,1.5-1.2,2.2c1.3,6.4-4.4,8.1-7.6,11.5c-1.2,1.3-2.2,3.7-4.5,2.2c-2.1-1.3,1.7-2.8,0.2-4.4c-0.5,0.4-0.9,0.7-1.4,1.1
			c-0.8,1.7-3.1,2.5-3,4.8c4.6,2.8,4.6,2.8,3.1,7.6c-2.3-0.1-4-2.1-6.5-0.1c-1.1,0.9-2.4,2.3-3.9,0.6c-1.7-2,1.7-2,1.5-3.5
			c-0.8,0-1.5,0-2.3,0c-1.2,1.2-2.5,1.9-4.3,1.2c-0.1,0.4-0.2,0.7-0.4,1.1c-0.7,2.1-3.2,1.7-4.6,3.2c3,1.4,4.3-1.8,6.5-1.9
			c2.2,3.1,4.3,6-2.4,5.8c-1.5,0-3.3,1.2-4.5,2.3c-2.4,2.3-4.5,3.5-7.8,1.4c-1.9-1.2-2.5-0.1-5.4,3.5c-0.6,0.8-3.6,0.3-5.5,0.7
			c-1.6,0.3-2.9-0.8-3.2-2.6c-0.1-0.9-0.1-2-0.5-2.8c-1.9-3.2-4.4-4.8-8-2.1c-3.7,2.8-5.7,2.2-6.5-2.1c-1.1-5.7-4.1-7.6-9.9-6.3
			c-2.9,0.6-3.9-0.9-2.7-3.1c2.6-5.2,0-8.9-4.2-10c-6.2-1.7-7.6-3.9-3.3-9.3c-5.6,2.2-4.1,6.1-3.1,10.1c-5.2,0.5-7.8-4.5-12.1-5.8
			c-0.5,1.7,2.9,1.9,1,3.9c-2.2,2.3-3.5-0.8-5.5-0.9c-0.1,2.9,2.7,3.4,3.4,5.7c-3.7-3.4-11.1-0.3-12.8-8.1c-1.4,1.3,0.2,3.2-1.1,4
			c-2.1,0-1.3-2.6-3.3-3.1c-1.8,7.2-9,1.9-12.5,5.4c-2.3,2.2-3.4-3.9-5.7-0.5c-0.5,0.8-2.3-2.5-2.7,0.6c-0.3,2.3,1,1.9,2.5,1.8
			c0.7-0.1,1.5,0.1,3.1,0.3c-3.4,3-6.8,2.5-9.2,1c-2.7-1.7-5.1-3.5-8.6-3.9c2.8-3.6,7.6-1.1,11.3-5.2c-5.5-0.1-10.1-0.1-13.8,2.6
			c-1.5,1.1-3.1,2.4-4.4,1.6c-4.6-2.8-8.5,1.3-12.8,1c2.7,2.6,5.8,0.8,8.8,1.5c-5.7,2.4-11.7,3.3-17.8,3.7c-2.2,1.1-4.2,0.7-6.3-0.3
			c-3.9-1.7-1.9-4.6-1.6-7.2c0.2-1.3,0.5-3-1.7-2.8c-1.7,0.2-1.2,1.6-1.1,2.7c0.1,2,0,4.1,0,6.7c-2.5-1.2-0.5-3.8-2.1-4.9
			c-6.3,0.7-10.9,6.4-17.7,5.6c1.4,2.9-1.1,9.1-3.9,10.4c-3.7,1.7-9.9,0.1-11.7-3.4c-2.2-4.4-5.9-4.1-10.1-3.7
			c1.2-1.4,3.9-0.1,3.5-2.4c-0.3-1.9-2.2-0.8-3.4-0.8c-6.5,0.3-13.1,0.7-19.7,0.1c-2-0.2-7-3.7-7.6,2.8c0,0.3-6.9,1.2-9.6-0.2
			c-4.2-2-3.8-2.7-9.7-1.5c1.8,1.9,4.1,0.3,5.9,1.2c-3.1,6.1-3.1,5.8-10.3,8.5c-8.3,3.1-5.2-7.3-10.8-7.2c0.2-0.5,0.5-1.1,0.7-1.6
			c3.9,0,7.7,0,13.2,0c-10-4.3-17.6,2.3-25.8,1c0.9-1.6,3.7,0.5,4.1-2.3c-0.5-1.5-2-1-2.9-0.8c-5.5,0.9-9.5,0.4-7.8-6.9
			c0.3-1.2-0.1-2.3-1.2-3c-0.3,3.4-3.9-0.4-4.4,2c-0.4,1.7-0.8,3.4-2.7,2.8c-6-2.1-9.5,2.6-14.1,4.1c-5.4,1.8-6.7,5.7-9.5,9.1
			c-2.7,3.4-9.7,3.3-12.2-0.3c-2.9-4.1-9.1-4.4-10.8-8c-2.8-5.8-8.8-4.4-12-7.6c-2.6-2.6-4-7.1-4.2-10.9c-0.3-4.9-3.2-3.4-5.5-3.4
			c-2.7-0.1-5.9-1-6.6,3.4c-0.6,3.9-1.8,7.7-2.8,11.6c-4.1-3.6,1.9-10-4.1-12.8c-3.1,4.5-8.1,5.3-11.7,1.9c-1.2-1.2-0.3-2,0-3
			c0.2-1.1,0-2.4,1.8-2.2c0.8,0.1,1.5,0,1.7,1c2.1,9,3.9,0.8,5.8-0.1c-1.1-2.8-3.7-2.6-5.8-2.6c-7.3-0.1-14.5-0.1-21.8,0.5
			c-4.3,0.3-7.4,3.7-8,7.7c-0.8,4.9-0.2,10,0,15c0.1,2.9,2.8,1.4,4,1.5c1.6,0,3.5-0.7,3.1-3.5c-0.5-3.5-2.3-7.7,1.3-10.1
			c4.4-3,9.9-3.2,15.2-3.1c0.3,0,0.7,0.4,1,0.5c10.3,3,10.9,3.9,9.2,14.1c1.5,1.2,1.4-0.2,1.6-1c0.3-1.8,1.8-1.5,2.7-1.2
			c1.6,0.6,0.6,1.7,0.2,2.8c-1.3,3.7-4.8,5.3-7.5,7.5c-1.8,1.5-1.4,4.8-5,4.7c-3.9,0-6.9-0.8-9.8-4.2c-1.8-2.1-3.8-1.7-6.2-1.2
			c-2.8,0.6-3.6-0.1-4.3-3c-0.3-1.3-1.3-1.3-2.3-1.1c-5.2,1.1-6.3-1.6-5.7-6c0.1-1-0.1-1.9-2.4-2.4c0,3.1,0,6.2,0,9.2
			c0,1.3,0.6,2.2,2.1,1.9c6.8-1.1,6.6,5.9,10,8.8c0.1,0.1-0.5,0.9-0.8,1.4c1.2,0.6,3.8,0.6,3.1,2.2c-1.2,2.7-3,5.6-6,6.6
			c-1.8,0.6-1.4-2.3-2.4-3.4c-2.8-3,1.8-2.7,2.1-4.4c-2.3-0.2-4.7,1.3-7,0c1.8,2.6-0.6,7.4,4.3,8.4c0.1,0-0.2,1.4-0.1,2.1
			c0.4,3.6-3.3,5-4,7.1c-0.9,2.5-1.8,3.7-3.9,4.4c-3,1-1.2-3.3-3.6-3.3c-1.3,1.4-0.4,3.2-0.9,4.8c4.5,0.9,9.1-1.9,13.6,0.2
			c-1.9-1.5-4.6-2.6-1.4-5.5c1-0.9,1.1-2.3,0.8-3.7c1.8-4.9,5.8-7.5,10.1-10.6c0,3.7,0.4,6.8-0.1,9.7c-0.4,2,0.5,5-1.4,5.8
			c-2.5,1.1-2.9-2.3-4.5-3.4c-1.2-0.8-2.7-1-4.1-1.5c2.7,1.9,4.6,4.5,6.4,7.1c0.6,0.9,0.7,1.7,0.1,2.5c-0.9,1.3-1.7,0.9-2.7,0.1
			c-0.9-0.7-2-1.1-3.2-0.7c0,1.9,3.4,1.3,2.8,3.7c-0.4,1.7-9.7,7.2-11,6.1c-2.7-2.3,0.7-4.4,0.8-6.7c0-0.3-0.3-0.6-0.5-1
			c-2.5,1.5-2.2,4.3-3.1,6.5c-0.8,1.9-2.8,2.4-3.1,0.8c-0.6-3-3.3-6.3-0.2-9.5c-0.6-2.2-2.5-1.2-3.9-1.5c0.3,1.7,0.8,3.4,0.7,5.1
			c-0.1,2.1,3.8,3.7,0.8,5.8c-2.6,1.9-4.1-1.8-6.5-1.8c-0.9,0-1.7-1.5-2.6-2c-4.1-2.3-4.2-4.6-0.1-7c-1.8-0.8-4,2.1-5.5-0.3
			c-1.4-2.2,0.8-3.2,2-4.3c-5.2-0.2-6.1-3.2-3.4-11.4c2.1,0.7,3,3.5,5.6,3.3c-1.1-1.3-2.1-2.7-3.3-3.8c-2.6-2.2-2.2-4.2,0-6.3
			c-0.8-5,5.9-5.5,6.3-10.2c0-0.6,3.4-6.4,7.9-3.3c-0.9,2-2,4.1-1.8,6.5c1.9-0.9,2.3-5.4,5.2-2.9c1.6,1.4,3.4,5.9,1.5,6.9
			c-4.4,2.3,0.4,4.2-0.8,6.2c1.3-1.8,1.9-4.4,4.9-3.1c-0.8-3.5-4.5-6.3-0.6-10.7c1.5-1.7,1.6-6.5-0.7-9.8c-2.7,2.2,0.3,5.1-1.7,7.3
			c-3-2.4-1.2-5.2-0.9-7.8c-10.3-1.4-15.2,0.8-19.8,8.9c-1.3,2.3-2.1,3.1-4.6,0.8c-2.5-2.4-6-1.6-9.5-1.2c1.6,3.6,4.7,1.2,6.9,2.5
			c0.5,1.9-1.7,4.1-2.1,3.8c-4-3-1.7,4.2-5.4,3c-2.9-0.9-5.2-1.4-6.8-4.2c-1.9-3.1-5-0.6-7.5-1.1c-1.4-0.2-3.5,0.5-3.6-1.7
			c0-0.7-0.1-2.3,1.2-2.9c2-0.9,2.1,1.1,3.1,1.7c3.5,2.1,7.3,0.7,11.1-0.6c-10.4,1.2-16.2-9.2-25.9-9.7c-3.3-0.2-3.2-3.9-3.7-6.4
			c-0.5-2.6-1-4.4-4.3-3.5c-3.1,0.8-7.6-2.1-8.5,3.8c-0.5,3-1.3,5.9-2.1,9c-4.8-3.1-1.4-7.5-2.7-11.2c-2.1-6.2-5.7-9.7-12.3-9.7
			c-5,0-10.1,0.6-15-0.2c-4.8-0.8-8.3,2.4-12.6,2.9c-1.5,0.2-0.6,1.9-0.9,2.9c-0.7,2.4,1.5,5.4-1.4,7.4L287.2,610.4z M465.8,646.2
			c1,5.2-4.2,5.6-6.4,5.9c-3.2,0.4-1.7-3.5-1.6-5.4c0-3.6,2.4-4.4,5.6-3.1c-1.5-2.2-6.1-3.7-1.6-7.2c1.7-5,5.8-7.3,10.1-9.4
			c2.9-1.4,3.3-0.3,3,2.4c-1.1,9.4-1.1,9.4-10.3,7.7c-0.9-0.2-1.9-0.4-2.8-0.6c0.5,1.9,2.3,1.8,3.6,2c4,0.8,4.9,2.5,2,5.7
			C466.8,644.7,466.3,645.5,465.8,646.2z M257.1,655.4c-3.6-2.1-3-5.9-3.3-9.1c-0.1-1.2,0.9-2.9,3-1.5c1.2,0.8,2.7,1.3,4.1,1.9
			c-0.3-1.6-1.6-1.9-2.7-2.6c-4.3-2.8-4.2-4.4,0.4-7.5c0.5-5.5,7-10.3,14.2-10.4c-0.2,0.5-0.4,1-0.6,1.6c-1.5,3.2-0.2,7.4-3.6,9.9
			c-3.7,2.7-6.6-1.9-10-1.1c1.5,0.6,3.1,1.1,4.5,2c1.3,0.8,3.2,1.7,1.7,3.9c-1.1,1.6,0,5.2-3.9,4.1c2.6,2.3,2.2,4.4-0.2,6.6
			c4.8-0.6,6.1,1.2,4.5,6c2.1,0,4.1,0.2,6,1.3c-1.9-1.9,1-7.1-4.6-6.3c0,0-0.1-0.3-0.2-0.5c-2.5-5.1-1.3-11.1,4-14.8
			c3.9-2.7,8.4-3,12.5,0.4c1.3,1.1,2.9,1.7,4.4,2.6c-0.1-1.9-1.2-3.5-2.8-4c-4.7-1.5-4.8-5.8-6.2-9.4c-0.9-2.6,0.3-2.8,2.6-2.6
			c8.5,0.7,12.2,7.3,16.5,13.1c0.6,0.9-0.1,1.8-0.7,2.6c3.3,1.6,3.6,4.5,2.7,7.5c-1,3.5-0.4,7-4.2,10.2c-2.9,2.4-1.4,4.2-5.5,3.5
			c2.7,2.2,3.3,4.1-0.5,5.7c-0.7,0.3-1.3,0.8-2,1.1c-3.5,2-5.6,1.6-4.7-3c0.4-2.2,0.4-4.2-1.6-5.6c1.5,3.2-1.1,5.8-1.2,8.8
			c0,1.2-1.3,2.3-2.9,2.2c-1.5-0.1-1.7-1.2-2.1-2.3c-2-5.4-1.3-6.5,4.5-7.4c0.6-0.1,1.1-0.8,1.7-1.3c1.4-0.1,2.7-0.2,4.1-0.3
			c-0.2-1.7-1.6-1.1-2.6-1.4c-4-1.3-7.7,1-11.5,1.1c0.1,0.8,0.2,1.5,0.3,2.3c0.4,3.1,4,7.3,1.4,8.7c-3,1.6-6.7-1.9-9.7-4.2
			c-2.3-1.8-5-3.3-2.3-6.7C256.8,660.4,255,659.3,257.1,655.4z M678.6,627c3.5,0,7.5,5.4,6,8.3c-0.8,1.5-2.1,1.5-3.5,1.3
			c-1.8-0.3-1.7-1.4-1.2-3C680.7,631.3,681.4,628.7,678.6,627c1.5,2.5-0.7,4.7-0.7,7.1c0,3.5-2.1,3.6-4.7,2.8c1,3.9-0.9,6-4.4,7
			c3.2,5.5-1.5,8.8-3.6,12.8c2.2,1.1,4.4-6.1,6.7,0.2c1.1,3.1-1.5,3.4-2.7,4.8c7.8-0.8,8.5,0,9.2,11c-3.5-0.5-6.5-2.2-9.3-4.3
			c-3.4-2.4-3.2-4.7,0.2-6.8c-2.2-0.6-8.1,3.5-5-3.9c-3,0.5-3.5-1.8-3.6-3.8c-0.1-3,0.2-6,0.3-9c0.2-3.9,1.8-5.2,5.4-3.2
			c-3.7-5.3-3.5-5.8,2.3-7c-2-2.4,0.4-3.5,1.7-4.2C673,629,675.9,628.1,678.6,627z M326.8,643c-1-2.4-3.4-5.5,2.4-3.8
			c1.9,0.6,4,0.3,6.1,0.5c-2.3-2.3-5.4-2.3-8.6-2.9c1.5-4.6,5.2-6.7,8.7-8.8c1.3-0.7,4-1.4,4,1.1c0.1,3.9,1.2,8.7-4.4,10.4
			c0,1-0.1,2-0.1,3c1.7,0.6,1.7-1,2.4-1.8c3.1-3.6,3.3-3.6,7.2-0.7c0.4,0.3,1,0.1,1.6,0.2c0.2-3.3,5.9-5.8,0.5-11.2
			c2.8,5.7-0.6,6-3.3,6.7c-1.4,0.4-3.2-0.1-2.5-1.9c0.9-2.3-1.4-7,4.2-6.1c1,0.1,2.5,0.4,2.3-1.8c-2.9-1.3-6.4,0.5-10.7-1.8
			c7.2,0,13,0,18.8,0c-0.4,2.1-2.9,0.4-3,2.6c4.6,0.9,8.1,3.7,10.9,7.5c-1.5,1.1-2.9,2-4.2,3c2.1,0.9,4.3-2.7,6.1-0.1
			c2.1,3-3,2.9-2.7,5.3c0,0.2-0.1,0.4-0.1,0.6c4.3-3,5.6-2.6,5.8,2.6c0.2,3.5,0.4,7.1-0.9,10.7c-1.1,3-2.7,2.4-4.7,1.6
			c0.2,1.6,3.1,2.4,1.6,4.3c-1.2,1.7-3,1.7-5.1,0.9c-2.4-1-5.1-1.5-7.6-2.2c2.2,2.9,5.6,3.5,9.1,4.5c-2.4,3.9-6.4,6.5-9.5,5.7
			c-3-0.8,0.3-5.2-0.3-8c-0.1-0.6,0.5-1.4,0.7-2.1c-1.3-1.6-1.9,0.5-2.9,0.5c1.6,3.2,0.2,6.2-0.6,9.2c-0.6,2.5-2.3,1.7-3.5,0.2
			c-1.5-1.9-0.9-4.7-3.1-6.2c0.4,2.1,0.9,4.1,1.2,6.2c0.1,1-0.8,1.1-1.6,1.1c-2.3,0.2-11.2-5.4-12-7.5c-0.4-1.2,0.2-1.8,0.9-2.4
			c4.7-4.1,9.4-2.9,11.6,2.8c0.3-4.1,4.8-0.6,5.9-3.3c-11.1-2.3-13.5-6-12.4-19c-2.6,4.5-5.6,0.2-8.4,0.5c3.3,3.1,9.3,5.4,3.6,11.4
			c2.1-1,3.9-1.4,4.7,1.6c0.4,1.4,1,2.9-0.9,3c-2.6,0.2-4.8,3.7-7.6,1.2c-2.5-2.3,1.4-2.8,1.5-4.5c-1,0-2.1,0.4-2.8-0.1
			c-1.7-1.1-2.5-11.1-0.9-12.5C324.6,642.5,325.9,642.9,326.8,643z M600,661.4c1.3,0,2.6,0,3.9-0.1c3.4-0.4,6.8-0.8,6,4.6
			c-0.1,1,0.8,2.1,0.9,3.2c0.1,0.9,1.8,2,0.1,2.9c-1,0.5-2.1,0.8-3.2,0.1c-3-1.7-5.6-3.8-8.3-6c-3-2.5-1.5-3.5,0.8-4.7
			c-6.6-0.6,1.3-4.2-1.2-5.7c-2.3-0.1-1.6,4.1-3.9,3.1c-2-0.9-1.7-3.6-1.8-5.6c-0.1-2.9,0-5.7,0-8.6c0-0.9-0.2-2,0.9-2.5
			c1.2-0.5,1.6,0.6,2.4,1.1c5.1,3.5,6.4,7.6,2.2,12.7c1.6-1.3,3.3-2.6,4.9-3.9c1.7-11.6,5.1-14.4,16.6-13.5
			c-1.1-2.8-2.4-5.6-3.4-8.4c-0.8-2.4,0.4-2.9,2.7-2.6c4.8,0.7,8.5,3.2,11.7,6.6c2,2.1,0.1,3.1-1.1,4c-3.3,2.7-6.8,1.2-10.2,0.2
			c0.8,1.4,1.2,3.6,2.4,4.2c5.4,2.4,4.7,6.6,3.7,11c-0.8,3.3-0.9,3.4-3.8,1.8c-0.6-0.3-0.9-0.4-1.3,0c-0.7,0.8-1,1.7-0.2,2.6
			c2,2.2,0,3.9-1.3,3.2c-3.3-1.7-6.2-2.4-9.9-1.1c-1,0.4-2.3-2.9-4.5-3.1C605.8,661,601.4,659.4,600,661.4z M628.4,655
			c1.4,1.3,2.8,2.5,4.1,3.9c0.8,0.9,2.2,1.7,1.2,3.3c-1,1.6-2.1,0.7-3.4,0.4c-6.9-1.8-7-1.8-1.8-7.6c-0.7-2.9,1.7-5.1,1.9-7.8
			c-4-0.5-2.4-4.4-4.5-6.3c3.2-0.9,5.9-1.7,9.1-2.6c-0.9,2.1-1.6,3.7-2.2,5.4c4.1-2.9,4.2,0.1,4.8,3.1c0.9,4.2,0.2,8.7-1.9,11.5
			c-1.8,2.5-3.3-3.4-6.2-3.1C629.1,655.3,628.8,655.1,628.4,655z M534.2,638.2c-5.4-3.2-5.3-4.9,0.7-8.5c1.6-1,3.2-2.2,4.9-2.7
			c2-0.6,4.4-0.3,3.5,2.5c-1.2,3.9-0.9,9-6.7,9.9c-0.9,2.5-1.9,5.1-2.9,8c-1-0.9-1.9-1.4-2.3-2.2c-1.3-2.3-5.8-3-4.1-6.5
			C528.9,635.2,531.9,639.1,534.2,638.2z M493.4,656.5c1.3,1.4,2.5,2.9,3.8,4.2c0.9,0.9,1.4,2,0.2,2.8c-2.8,1.9-4.8-1.2-7.4-1.3
			c-1.2,0-2.2-1.4-1.3-2.4c1.2-1.5,1.6-4.8,4.9-3.1c-1.9-6.1,0.1-11.1,4.7-15.2c-2.3,0.1-3.5,2.3-5.9,3.5c1.5-3-7.7-4.8,0.3-8.2
			c-8.7,1.3-8.5,1-11.3-7.1c-0.9-2.8,1.6-3,1.6-4.4c-0.1-1.8-0.7-4.1,1.9-2.9c1.4,0.7,3.8-1.1,4.2,1.4c0.4,2.6-3.4,0.1-3.3,2.7
			c0.2,0.2,0.4,0.5,0.7,0.6c5.9,2.9,12.2,5.5,12.7,13.5c4.4,2.8,3.7,7,2.8,11.1c-0.5,2.6,0.1,5.9-2.1,7.5
			C497,661.2,496.3,655.6,493.4,656.5z M560.7,654.1c-2.2-3.4,2.7-4.2,2.5-6.8c-2.4,0.8-2.9-1.8-4.6-2.7c0,2.3,0.1,4.4,0,6.4
			c-0.4,5.2-3.5,7.9-8.2,9.8c-2.4,1-1.2-3.2-3.5-1.5c-2.7,2-5.4,1.2-6.8-1.5c-0.4-0.8,0.2-1.8-1.3-2.6c-4.1-2.2-4.2-5.9-0.6-9.1
			c0.9-0.8,1.8-1.5,0.8-2.8c-2.2-2.9,1.2-3.3,2.2-4.4c1.2-1.3,3-1.6,3.8,1c0.3,1,1.8,1,2.5,0.4c0.6-0.6,0.9-1.7,0.9-2.5
			c0.1-1-0.5-1.9-1.7-1.8c-1.9,0.2-4.6,0.2-3.1-2.3c1.5-2.4-0.8-7.2,4.8-7.3c7.9-0.2,16.3,5.9,19.5,15.1c2.2,2.9,1.1,6.3,1.3,9.5
			c0.2,2.5,0.2,5.7-1.8,6.9c-2,1.3-2.9-2.3-4.8-3c-0.7-0.3-1.4-0.5-2.2-0.7c1.4,1.5,2.9,3.1,4.3,4.6c0.7,0.8,1.8,1.5,0.9,2.9
			c-3,4.5-6.2,8.8-11.9,10.3c-2,0.5-2.7,1.1-2.7-2C551.1,662.2,556.8,658.8,560.7,654.1z M702.5,640.1c-2.1,1.9-4.1,3.8-6.1,5.7
			c-6.9-6.1,0.8-6.8,3.4-9.4c-1.6-1.2-2.9,0.1-3.7,0.7c-2.4,1.6-4.8,2.6-7.2,0.7c-2.8-2.2-2.9-5.6-3.2-8.8c-0.2-1.9,1.3-1.4,2.3-1.4
			c5.7,0.1,13.4,6.9,14.4,12.6c4.5,4.6,4.9,11.9,0.8,17.3c-1.2-1.4-2.1-3.4-3.7-4.2c-5.2-2.8-2.9-5.4-0.2-8.2
			C700.7,643.7,702.7,642.6,702.5,640.1z M475.4,637.4c0.9,0,1.8,0,2.7,0c8.2-0.2,11.9,3.9,13.4,11.7c0.9,4.4-3.7,4-3.9,7.1
			c-0.2,3.8-1.8,4.3-5.3,2.4c-1.4-0.8-1.8-0.2-1.8,0.8c0.1,3.5-2.2,1.8-3.5,1.5c-6.2-1.1-3.8-7.7-6.8-11c-2.4-2.6-1.5-4.7,2.4-4.9
			C467.9,640.4,474.1,639.8,475.4,637.4c-0.4-4,1.1-7.4,2.7-11.3C482,633.7,481.9,633.9,475.4,637.4z M198.1,652.5
			c1-0.9,1.9-1.9,3.1-2.6c8.2-5.1,15.6-10.9,19.8-20c0.5-1.2,1.4-2.6,3.6-1.8c6.4,2.3,12.8,4.6,19.3,6.2c2.5,0.6,2.5,1,1.8,3.1
			c-2.4,7.5-2,15,0.5,22.4c1.1,3.3,1.4,5.8-3.5,4.1c-2.6-0.9-3.6,1-4.7,3c-0.6,1-1.4,2.5-3,2.4c-1.7-0.2-1.7-1.9-2.1-3.1
			c-1.6-5.5-3.3-6.3-8.3-3.6c-1.5,0.8-3,1.5-4.5,2.4c-1.8,1.1-2.3,0.2-2.7-1.4c-1.9-6.6-5.1-7.5-10.6-3.4c-2.3,1.7-5.4,3.8-5.3-1.8
			C201.5,655.6,199.5,654.4,198.1,652.5z M781.9,636.9c3.3,0,6.5-0.3,9.7,0.1c4.1,0.6,8.7-0.8,11.7,4.3c1.1,1.9,5,3.8,7.4-0.5
			c1.2-2.2,3.2-0.6,4.6-0.2c1.8,0.6,3.8,8.7,3.1,11.1c-7.8-4.3-11.3-3-12.8,5.1c-0.5,2.7-2.2,2.9-3.4,1.3c-3.9-5-6.5-1.4-9.9,0.7
			c-3.3,2,0.8,6.3-2.4,7.2c-2.4,0.7-4.2-4.3-7.7-2c-0.1,0.1-0.5-0.4-0.7-0.6C784.3,654.3,784.5,648.5,781.9,636.9z M739.7,650
			c-0.2-6,4.5-10.9,10.6-11.2c5.4-0.2,12.2,6.8,12.3,12.8c0.1,5.3-5.1,10.7-10.4,10.8C744.9,662.4,739.9,657.5,739.7,650z
			 M672.4,654c-1.7-8.5,0.3-12.9,6.9-15.6c4.3-1.7,11,1,13.8,5.7c1.3,2.2,2.6,4.4-1.1,5.7c-1.3,0.5-1.9,1.8-0.5,2.5
			c3,1.7,1.6,3.6,0.3,5.1c-2.9,3.3-6.7,4.4-11.1,4c-4.2-0.4,0.3-2.2-0.6-3.3c-0.8-1-1-1.9-2.5-1.1c-0.9,0.5,0.5,4.3-2.5,1.6
			c-1.8-1.6-2.3-2.9-0.1-4.6c1-0.8,0.8-2,0.2-3.1C673.1,650.9,673.7,653.1,672.4,654z M321.6,622.3c-7.9-5.3-15.5-9.5-24.3-2.9
			c-2.6,1.9-2.8,0-3.1-1.9c-1.1-6.8,0.2-8.1,6.7-10.9c4.4-2,8.7-1.4,12.8-0.7c4.3,0.7,9.8,1.8,8.9,8.1
			C322.3,616.6,322.6,619.3,321.6,622.3z M383.4,675.3c-1.3,2.3-1.2,5-4.6,5c-3.6,0-1.9-2.8-2.6-4.3c-1.2-2.7-3.6-3.3-6.8-3.5
			c8.7-11.9,10.9-24.1,6-37.7c3.5,0.1,8.3-2.8,6.1,5c-0.9,3.3-1.4,7.2-1,11.1c0.9,8.7,4.5,15.9,9.8,22.9c-7.4-0.7-9.3-0.1-10.4,4.6
			C381.2,676.7,381.4,675.2,383.4,675.3z M523,680.6c-1.3-0.7-1.5-1.6-1.5-2.6c-0.2-3.7-2.6-4.8-5.7-5.2c-3.1-0.4-5.5,0.5-7.2,3.5
			c-0.8,1.5,0.1,4.6-2.6,4.3c-2.2-0.3-1-3.4-2.1-4.8c-1.6-2.2-0.1-3.5,1-5c1.9-2.8,3.8-5.5,5.2-8.7c3.6-8.7,3-17.3,0.3-26
			c6.7-0.6,6.2-0.7,5,5.7c-2,10.6,0.1,20.6,7.2,28.9C525.4,674.2,526.5,677,523,680.6z M645.7,636.3c4.7-0.1,6.5,1.4,5.3,6.3
			c-2.3,9.6,0,18.5,5.2,26.7c1.8,2.8,5.2,5.7-1,7.5c-0.7,0.2-1.1,1.5-1.4,2.4c-0.4,1.1,0.1,3.2-1.9,2.9c-1-0.2-2.5-1.7-2.7-2.7
			c-0.5-4.2-3-4.6-6.5-4.2c-3.9,0.5-3-2-1.8-3.7C649.1,660.5,649.7,648.7,645.7,636.3z M444.7,665.9c6.3,0,12.1,4,14.5,9.2
			c0.9,1.8-0.1,3.3-0.7,4.2c-1.1,1.9-1.8-0.8-2.6-0.8c-3.2,0-6.4-3-9.8,0.6c-1.3,1.4-6,3.4-6.1-2.5c0-1.3-1.1-2.3-2.5-2.9
			c-1.5-0.7-1.9-1.7-0.6-3.1C439.2,668.1,440.8,664.5,444.7,665.9z M299,623.4c0.3-1.6,1-2.2,2.1-2.9c5.4-2.9,12.5-1.9,16.7,2.5
			c3.2,3.3,1.5,9.3-3,10.3c-2.5,0.6-5.9,1.7-7.6,0.6C303.4,631.4,304.4,624.8,299,623.4z M713.3,620.4c2.6,0.9,5.4,0.8,7.6,2.5
			c3,2.3,6.5,4,2.8,9c-2.6,3.5-6.7,1.5-9.5,4.1c-1.2,1-2.6-3.1-3.9-4.9c-1-1.4-1.9-2.9-3.2-4c-2.4-2.2-2.4-3.7,0.8-4.8
			C709.7,621.7,711.5,621.1,713.3,620.4z M458.9,657.6c4.7-0.5,8.4-9.3,10.8,1.2c0.1,0.5,1.4,0.6,2,1.1c3.3,2.5,3.4,6.6,4.4,10.1
			c0.6,2-0.7,2.9-2.7,1.8c-5.1-2.5-9.9-5.3-12-11.1c2.1-1.3,4.5,0.3,6.3-1.5C465.3,657.4,462.8,660.1,458.9,657.6z M706,675.3
			c3.4-4.7,16.6-6,21.2-2.2c2.2,1.8,4.9,2.9,6.4,5.5c0.8,1.4,0.1,2.4-0.5,2.9c-1,1.1-2.1,0.3-2.7-0.9c-0.8-1.6-0.8-3.5-3.1-4.4
			c-5.1-2.1-8.3-0.4-10.6,6.6C713.2,680,712.7,673.4,706,675.3z M580,669.4c8.3-0.4,9.2,0,11.1,2.8c2.9,4.4-2.1,5.8-3.6,7.6
			c-1.7,1.9-1.6-1.8-2.3-3c-2.6-4.2-9.9-4.2-12.5,0.1c-0.6,1.1,0.1,3.9-2.4,2.4c-1.8-1-1.9-3-0.3-4.9
			C572.9,671.1,575.7,667.6,580,669.4z M780.4,626c4.6,1.4,7.6,2.7,9.5,5.9c2.3,3.8,6.7-1,9.7,2.3c-5.7,1.8-11.3,0-16.8,0
			c-6,0-6.8-8-12.6-10.5c3.7-1.4,6.8,4.2,9-0.9c0.8-1.9,2.1-1.8,3.6-1.7c0.9,0.1,2.1,0.4,2.1,1.5C785.1,624.8,783.5,625.4,780.4,626
			z M536.2,659.1c4.8,0.1,9.8,7.3,8.7,11.7c-0.6,2.2-2,1.2-3.1,1.1c-5.3-0.7-8.6-4.7-12.1-8.1c-1.4-1.3-1.5-3.2,1.2-3.7
			C532.7,659.8,534.5,659.4,536.2,659.1z M322.3,672.5c-5-1.5-7.1,0.3-7.7,3.9c-0.2,1,0.3,2.6-1.4,2.6c-1.4,0-1.5-1.5-2-2.5
			c-1.2-2.7-2.3-5.3-6.1-4.6c-0.9,0.2-2.5,0.4-2.7-1.3c-0.1-1.3,0.9-2.1,1.8-2.8C308.2,664.8,319,666.9,322.3,672.5z M771.2,640.2
			c2.5,7.7,2.8,10.6,1.8,14.9c-0.2,1-0.5,2.4-1.3,2.3c-3.1-0.7-4.5-3.9-6.9-5.7c-1.2-0.9-1.5-3.8,0-5.4
			C766.7,644.2,767.9,641.3,771.2,640.2z M728.7,647.9c0.1-1.3-0.7-5.2,1.5-6.1c2.3-0.9,3.7,2.9,5.5,4.6c3.1,2.9,2,5.8,0,8.4
			c-1.2,1.5-2.6,4.5-4.7,3.4c-2.5-1.3-1.7-4.7-2.3-7.3C728.6,650.4,728.7,649.8,728.7,647.9z M734.6,664.8c3.4-1.2,6.4-4.6,9.9-2.5
			c3.7,2.2,3.5,6.9,4.4,10.9C740.5,671.8,739.7,671.3,734.6,664.8z M687.3,672.5c-0.7-3.9,0.1-7.8,2.4-10.5c2-2.4,5.3,0,7.9,0.9
			c2.4,0.8,2.9,2,0.8,3.9C695.3,669.7,691.9,672.1,687.3,672.5z M623.6,662.4c3,0.2,6,0.8,7.4,3.2c1.1,1.8-6.1,6.5-10.1,7
			c-1.4,0.2-2.9-0.6-2.1-1.4C621.2,668.5,617.5,662.5,623.6,662.4z M607.5,638c-2.8-1.7-7.7-2.4-7.3-4.6c0.8-4.1,5.7-4.8,9.4-6.1
			c2-0.7,2.6,1,2.2,2.1C610.5,632.3,610.5,635.9,607.5,638z M768.2,665.2c-3.9,4.4-7.4,8-13.6,7.5c1-3.6,1-8.4,3.1-9.5
			C759.9,661.9,764,664.2,768.2,665.2z M746,627.9c0.9,3.3,0,5.9-0.6,8.4c-0.6,2.3-1.3,3.3-3.9,1.6c-2-1.4-6.4-1.2-6.3-3.4
			c0.1-2.5,3.8-3.8,6.4-5C742.9,628.8,744.4,628.4,746,627.9z M524.9,654.9c0-3.6,0-6.9,0-10.1c0-1.2,0.4-2.9,1.8-1.9
			c2.6,1.9,5.6,3.9,6.8,6.6c0.8,1.7-3,2.8-4.7,4.1C527.8,654.3,526.4,654.4,524.9,654.9z M494.6,666.5c-2.4,2.3-4.7,4.9-8.4,5.2
			c-1.3,0.1-3.1,0.7-2.8-1.5c0.4-2.3,1.1-4.8,2.4-6.7c1.6-2.4,3.3,0.4,4.9,0.7C491.9,664.5,493.4,664.4,494.6,666.5z M753.2,627.3
			c3.5,1.1,5.9,1.8,8.2,2.6c0.7,0.2,1.3,0.9,1.9,1.2c1.7,0.9,2.3,1.9,0.6,3.4c-3.4,3-7.4,2.1-8.9-2
			C754.5,631.2,754.1,629.8,753.2,627.3z M602.1,645.8c-2.6-2.8-7.8-5-5.2-9.2c2.1-3.3,6.6,0.6,8,1.8
			C607.9,641,602.1,642.6,602.1,645.8z M764.4,654.3c1.8,2.7,5.5,2.9,6.1,6c0.4,2-1.3,3.9-2.8,3.2c-2.3-1.1-6.3-0.3-6.8-3.4
			C760.7,658.5,763.1,656.4,764.4,654.3z M484.4,662.8c-2.8,2.7-0.6,8.9-4.7,8.9c-3.2,0-2.3-5.9-3.7-9
			C478.6,662,481.2,662.3,484.4,662.8z M471.4,611c0.4-2.1-1.1-4.7,3.5-4.6c4.1,0.1,2.3,2.3,2.6,3.8c0.6,3.3-0.4,5.9-4.2,5.7
			C470,615.7,472.1,612.6,471.4,611z M758.7,638.9c2.6-1.2,4.8-2.1,6.9-3.3c1.1-0.7,1.8-1.1,2.9-0.1c1.3,1.2,0.8,2.3,0.1,3.5
			C765.2,644.8,763.9,644.9,758.7,638.9z M697,653.2c4.9,5.1,6.5,8,5,8.8c-2.7,1.3-5.6-0.2-7.1-1.9
			C692.3,657.3,695.7,655.4,697,653.2z M678.7,662.8c2.5,2.1,5.7-1.4,6.3,2.9c0.3,2.4,1.2,6.4-1.6,6.9c-3.5,0.7-2.7-3.6-3.7-5.8
			C679.3,666,679.3,665.1,678.7,662.8z M434.7,599.5c1.1,0.2,2.3,0.6,2.2,2.1c-0.1,1.3,1.9,3.1-0.6,3.8c-2.7,0.8-5.1,4-8.2,0.7
			c-0.8-0.8-2.2-1.1-1.3-2.6c0.8-1.3,1.6-1,2.7-0.1c2.4,1.8,4.5,1.6,3.5-2C432.5,599.2,433.8,599.9,434.7,599.5z M295.7,606.8
			c-2.5,0.4-2.9-2.1-4.5-2.6c0.2-0.5,0.3-1.1,0.6-1.4c1.5-1.5,2.3,0,3.3,0.8c2.9,2.2,3-1.1,2.9-2c-0.4-3.4,2.5-2.4,3.3-2.1
			c1.8,0.6,1.2,2.9,0.7,3.9C300.7,605.9,297.6,605.8,295.7,606.8z M617.9,667.5c-1.1,1.2,0,5.1-2.9,5c-2.9-0.1-2-4-2.8-6.2
			c-0.9-2.3,1.1-2.7,3-2.8C617.5,663.4,618.1,664.7,617.9,667.5z M314.5,603.6c0.6-1.8-0.4-3.5,1.6-3.9c1.2-0.3,2,0.1,2.5,1.6
			c0.8,2.7,2.3,3.9,4.8,1.4c0.6-0.6,1.6-0.6,2,0c0.4,0.5,0.8,1.9,0.6,2.1c-1.4,0.9-3.8,2.6-4.3,2.2
			C319.6,605.1,316,606.1,314.5,603.6z M547.4,672.9c-0.8-2.9-1.3-5.3-2-7.6c-0.6-2.1,0.2-2.9,2.2-2.9c1.5,0,3.3-0.3,2.9,2.2
			C550,667.4,550.5,670.4,547.4,672.9z M735.3,637.6c2.3,0.6,5,1.1,5.9,3.5c0.2,0.5-1.6,4.5-3.4,3.6c-2.1-1-3.7-3.6-5-5.8
			C732.3,638.3,733.9,637.2,735.3,637.6z M741.5,659.6c-3.7-0.2-6.4,5.2-9.1,2.4c-1.3-1.3,2.9-4.9,5.2-6.3
			C740.8,653.9,739.1,659.1,741.5,659.6z M614.7,626.7c0.7,2.1,1.6,3.9,1.6,5.6c0,1.1,2.6,2.6-0.4,3.6c-1.5,0.5-3,1.3-4.3,0.4
			c-1.6-1.1,0.1-2.6,0.5-3.4C613,631,612.4,628.6,614.7,626.7z M530.6,658.1c-1.9,0.6-4,1.2-3.8-0.6c0.4-3.6,4.6-3.1,6.9-4.9
			c1.1-0.8,1.6,1.5,1.7,2.8C535.5,660.2,531.6,657.1,530.6,658.1z M631.8,685.9c-0.1,0.3-0.2,0.5-0.3,0.8c-0.8,0-1.5-0.1-2.3,0
			c-2.3,0.2-5-0.7-5.1-2.7c-0.2-3,3.2-1.4,4.8-2.2c3.1-1.6,4,2.2,6.5,2.4c-2.4,1.3-5-1.8-7.6,0.9
			C629.5,685.5,630.7,685.7,631.8,685.9z M276,625c0.8,2.6,1.5,4.5,1.9,6.6c0.2,1,0.7,2.5-0.8,2.9c-1.2,0.3-2.7,0.3-3.9-0.1
			c-1.4-0.5-1.1-2.1-0.5-2.9C273.9,629.7,273.5,627,276,625z M809.3,661.5c0.9-8.4,2-9,10.9-7.8
			C817.9,658.3,812.1,656.3,809.3,661.5z M538.1,621.8c1.2,0,2.5-0.4,3.4,0.1c1.2,0.6,2.7-2.4,3.1,0.2c0.4,2.2-1.9,1.6-2.9,1.6
			c-2.5-0.1-4.9-0.4-6.4,2.3c-0.7,1.2-3,0.6-3,0.4c0-1.5-0.3-2.6-1.2-3.9c-0.4-0.5,1.8-0.5,2.9-0.6
			C535.4,621.8,536.8,621.8,538.1,621.8z M780,674.9c2.9-5.5,6.2-7.1,11.6-5.3C787.2,670,785.4,675.3,780,674.9z M190,661.5
			c4.1-2.6,7.5-0.5,10.9,1.1c0.7,0.3,1.8,1,1,2.3c-0.8,1.3-1.7-0.1-2.4,0C195.7,665.8,194.2,660.1,190,661.5z M751.6,674.9
			c-0.8-3.3-1.5-5.4-1.9-7.5c-0.2-0.9-1.8-2.1,0.1-2.7c1.2-0.4,2.7-1,3.9-0.7c1.1,0.3,0.9,2.1,0.6,3.1
			C753.8,669.3,752.9,671.5,751.6,674.9z M519.7,679.5c-4-2.8-8-4.8-10.5,3.7c0.3-6.1,1.6-8.9,6.5-8.4
			C518.6,675.1,520.6,675.8,519.7,679.5z M340.6,611.4c1.4,0.1,3.7-1.9,3.5,1.6c-0.2,2.3-1.7,2.5-3.5,2.7c-2.3,0.3-3.3-0.8-3.4-2.7
			C337.1,610,339.1,610.9,340.6,611.4z M765.9,683.3c1.7-5.2,7.6-5.6,10.3-11.5C776.5,680.9,768.5,679.2,765.9,683.3z M173.7,657.5
			c4.1-1.6,7.1-0.5,10-0.7c1.7-0.2,1.4,1.5,2.1,2.3c0.6,0.7,0.3,1.5-0.5,1.8c-0.9,0.3-1.8,0.1-2.5-0.8
			C180.6,657.8,177.4,659.1,173.7,657.5z M444.3,683.1c6.5-4.2,10.5-3.7,13.1,1.3C453.7,681.2,449.6,683.4,444.3,683.1z
			 M301.5,681.4c4-1.9,8.1-3.8,11.7,1C309.4,680.9,305.4,682.4,301.5,681.4z M603.2,683.9c-2.3,0.2-4.5,1.1-6.7-0.1
			c-1.3-0.7-3.1,3.2-3.9,0.4c-0.7-2.5,2.7-1.8,4.3-2.5C599.4,680.6,601.2,682.4,603.2,683.9z M804.8,661.8
			c-4.2,0.2-5.7,6.1-10.5,4.9C796.1,661.6,800.1,660.8,804.8,661.8z M413.9,683.7c3.7-3.4,7.9-3.2,12.2-1.5
			C422.2,684,418,682.7,413.9,683.7z M234.5,672.5c-4.6-1.1-8.3-2-12.1-2.9C226.8,668,231,667.2,234.5,672.5z M574,681.4
			c0.3-2.9-0.1-5.8,3.7-6.1c3.2-0.2,4,0.1,6.3,4.5C579.2,675.5,576.4,677.4,574,681.4z M252.5,677.9c4.8-2.9,7.9-0.6,11.2,0.1
			c0.8,0.2,1.5,0.2,1.4,1.2c-0.1,1.6-1,1.1-2,0.9C260,679.4,256.9,678.8,252.5,677.9z M748.7,627.6c3.1,1.8,3.8,4.3,3.6,7.3
			c-0.1,1.1-0.5,2.1-1.7,1.5c-0.9-0.4-3-1-2.6-1.3C751.3,632.7,746.8,630.2,748.7,627.6z M189,658.1c-0.4-3.3,2-4.7,4.1-4.5
			c2.4,0.2,5.5,0.3,6.8,3.3c0.3,0.8,0.4,1.4-0.2,2.1c-0.6,0.6-1.2,0.7-1.7-0.3C195.5,653.1,192.3,655.4,189,658.1z"/>
		<path stroke="#000000" stroke-width="2" stroke-miterlimit="10" d="M415.1,543.8c-2.3-2-5-0.1-7.4-0.7c-1.7-0.4-4.1,0.4-4.3-2.7
			c3-1,5.9,1.5,8.8-0.1c1.1-0.6,2.3-1.1,2.2-2.3c-0.1-1.5-1.7-1.3-2.7-1.4c-1.5-0.2-3.2,0.6-4.3-0.6c-3.4-3.6-6.1-7.2-9.3,0.5
			c-0.7,1.8-5.3,1.6-7.6-0.4c-3.9-3.4-4.5-3.5-7.1,0.7c-0.5,0.9-1,1.9-2,0.9c-2.2-2.2-0.9-5.1-1.1-7.7c-0.2-3,2.2-2,3.7-2
			c8.9,0,17.7,0.2,26.6,0c2.2,0,3.5,0.6,3.5,2.5c0,2.6-2.2,5.8,3.5,3.8c2.4-0.8,2.9,0.5,2.7-2.5c-0.1-1.9,0.9-4.2-1.3-5.7
			c-2.8,0.9-0.1,3.7-2.3,5.1c-1.4-1.7-0.3-3.9-1-5.8c-4.9,2.3-10.2,1-15.3,1.1c-13.5,0.4-27.1,0-40.6-0.2c-2.4,0-5.6,0.8-5.4-3.7
			c0.1-3.8,2.4-3.8,5.1-3.8c17.4,0,34.7-0.4,52,1.1c3.9,0.3,4.1-2.4,5.7-4.2c0,0,0,0.2,0,0.2c-2.8-2.1-0.1-5.6-1.9-7.9
			c-1.2,0.2-1.8,0.9-1.6,2c1.2,6.3-2.4,6.4-7.2,6.4c-8.1,0-16.2-1.1-24.2,0.7c-2,0.4-3.2-0.7-3.2-2.3c0.2-16.4,0.6-32.7,1.8-49.1
			c2.6,2.7,1.6,5.9,1.8,8.9c0.2,3.5,1.1,5.9,5.4,5.8c2.5-0.1,4-0.3,3.5-3.4c-0.5-2.8,1.2-5.5,0.4-8.7c-1-4,3.5-2,5-3.4
			c-0.8-3.4-4.3,0-5.7-2.4c-0.5-0.9-2.4-1.2-1.9-2.9c0.5-1.6,1.9-1,2.9-1c5.9,0,11.8,0,18.4,0c-3.2-8.5-8.9-14.2-13.5-20.7
			c-1.4-2-3.3-1.5-4.5,0.7c-2.7,4.8-6.2,9.3-7.8,14.6c-0.5,1.7-1.4,2.9-3.2,2.5c-1.6-0.4-1.5-2-1.5-3.4c0-4.9,0-9.9-0.4-14.8
			c-2.1,5.3,0.3,11-1.8,16.4c-0.5,1.3-0.1,2.3-1.9,2.3c-10.4-0.1-21.1,1.3-31.1-0.6c-7-1.3-13,1.9-19.7,0.6c-3-0.6-5.3-1.2-6.3-3.9
			c-1.5-3.9-5.4-6.4-6.2-11.6c11.8,2.6,23.3-1.1,34.8,1.3c4.6,1,9.7,0.7,14.4,0.1c6.1-0.7,8.3,2.2,8.8,7.6c0.1,1.1-0.2,2.3,1.2,2.8
			c0.3-0.1,0.5-0.2,0.5-0.2c-0.7-12.3-0.7-12.3-13-12.2c-2.7,0-5.6-0.6-8,0.1c-3.3,1-5.2-4.1-9.4-0.8c-2.5,2-7.9,0.7-11.9,0.3
			c-7.1-0.7-14.6,2.1-21.4-1.8c-5.1,3.9-11.1,0.4-17.1,2.3c4.5,1.9,8.7,0.2,13.3,1.5c-3.5,7.3-6.2,14.8-12.6,21.5
			c5.4-0.7,10.3-1,14.9-2.1c11.8-2.9,23.6-4.1,35.7-3.7c11.8,0.3,23.5,0,35.3,0.1c2.6,0,6.2-0.6,6.1,3.2c-0.1,3-3.2,3.7-6,3.6
			c-18.5-0.6-37.1,0.3-55.6-0.4c-9.1-0.4-18.4,2.5-27.6,3.9c-0.9,0.1-2,0.3-1.8,2c3.4,1.7,6.9-2,10.5-0.3c-3.7,2.4-8.3,2.8-12.4,6.3
			c7.6-0.8,13.5-3.8,19.4-6.6c5.1-2.4,10.3-3.7,15.9-3.7c12.9,0.1,25.9,0.1,38.8-0.2c4.7-0.1,6.7,1,6.7,6.3c0,12.3-0.9,24.7,0.8,37
			c0.4,3-0.9,4.3-4.1,4.1c-2.8-0.2-5.6,0-8.4,0.3c-3.8,0.4-5.6-1.1-5.3-5.1c2.9,0.3,5.3,2.9,9.4,2.2c-14.7-6.6-28.6-12.8-42.4-19.1
			c-0.2,0.4-0.4,0.8-0.6,1.2c10.4,4.7,20.7,9.4,31.6,14.4c-2.3,1.5-5.8,0.9-6,4.8c-0.1,2.4-2.8,1-4.3,1c-14.2,0.1-28.4,0.1-42.5,0.2
			c-1.8,0-3.7-0.5-6.8,1.7c18.8,0,36.1,0,52.9,0c0.8,1.8,0.1,2.1-0.4,2.1c-17.1,0.9-34.1,1.6-51.3,1.4c-2.4,0-4.2-0.1-3.8-3.3
			c0.2-1.2,0.1-2.7-1.5-3.4c-2,1.3,0.4,4.2-2,5.4c-3.1-1.6,0.8-4.1-0.6-6c-0.6,0.1-1.2,0.2-1.2,0.3c0.3,8.4-6.2,6.9-10.8,6.7
			c-8.8-0.3-17.6-1.2-26.5-1c-0.9,0-2,0.2-2.7-1.2c12.7-2.7,25.5,0.5,38.1-1.1c-2.7-2.6-5.8-1.7-8.6-1.7c-12.6-0.2-25.1,0.1-37.7,0
			c-1.1,0-3.1,0.8-3.2-1.3c-0.3-6.3-4.2-2.8-7-2.7c-0.4-7.1-0.6-14.2-1.1-21.3c-0.3-3.8,1-5.7,4.8-6.2c12.8-1.8,25.5-3.8,38.2-5.8
			c2.1-0.3,4-1.2,6.1-1.6c5.7-1.2,9.2,1.9,8.7,7.6c-0.4,5.2,0.1,7,2.1,6.5c3.1-0.7,5.9-2,4.6-6.3c-0.6-1.9,0.6-4.2-0.7-6.1
			c-3.7,1.2-0.1,5.4-3.9,7.3c2.2-5.7-2.1-8.1-4.6-11.4c-1.2-1.6-2.8-1.2-4.1-0.9c-18.8,3.2-37.6,6.8-56.5,9.4
			c-6.9,1-13.7,2.9-20.7,3.5c-1.4,0.1-3.1,1.3-3.6-1.1c-0.5-2.4,1.8-2.4,2.8-2.6c8.8-1.6,17.6-2.9,26.4-4.5
			c18.4-3.3,36.8-6.6,55.2-9.9c-4.3-5.3-8.4-10.5-12.5-15.6c-3.3-4.1-5.5-3.8-7.4,0.8c-1.7,4.2-4,8.4-4.7,12.8c-0.7,4-2.8,5.1-6,5.7
			c-15.1,2.7-30.3,5.3-45.5,8c-2.3,0.4-3.2-0.5-3.1-2.8c0.1-3.1,0-6.2,0-9.7c-2.8,4.6-2.8,4.6-14.3,5.7c3.9,0.8,4.3,3.2,3.1,7
			c-2.3-5.3-8.4-8-6.7-14.5c0.5-1.7-4.6-0.6-1.3-2.8c2-1.3,3.8,0.6,5.4,2.1c0.7-2.2-0.3-3.6-2-3.4c-5.1,0.6-4.3-2.8-4.3-5.7
			c0-6.4,0.2-12.8-0.1-19.1c-0.1-2.8,0.2-6.8-4.5-6.4c-4.1,0.3-6.3,2.3-5.2,6.9c0.5,2,0.3,4.1,0.5,6.1c-7-0.3-7.3-0.2-7.9-8.3
			c-0.3-3.7-2.6-3.3-4.7-3.1c-1.9,0.2-4.8-0.6-4.6,3.3c0.6,11.4,0.6,22.8,2.6,34.1c0.4,2.5-0.7,2.5-2.3,2.7
			c-2.3,0.2-3.8,1.6-3.3,3.8c1.1,4.9,0.4,9.9,0.8,15.1c4.5-3.3,1.6-7.6,1.8-11.1c0.3-3.9,1.4-6.1,5.8-6.6c-5,6.5-3.2,13.6-2.9,20.4
			c0.1,1.9,2.7,3.2,5.5,2.1c3.1-1.2,5.3-0.9,5.6,3.6c0.3,5.1,4,8.1,8.6,9.7c2,0.7,3.8,1.1,2.5,3.8c-1,2.2-1.7,4.6-5.1,4
			c-3-0.6-6-0.8-9-1c-5.1-0.4-11.9,2-10.8-7.3c0-0.3-0.8-0.8-1.4-1.3c-2.3,2.6,2.5,10.4-6,8.4c0-0.3,0-0.5,0.1-0.6
			c1.2-2.5,6.8-4.2,2.3-7.7c-4-3.2-7,0.6-9.5,3.3c-1.8,2-2.1,5.4-6.1,4.7c-1.7-0.3-1.6,2-1.7,3.1c-0.1,1.4,1.7,1.2,2.7,1.4
			c7.9,1.1,7.6,3.4,7,10.8c-0.9,11.1-8.8,14.1-16,18.8c-6.6,4.4-13,9.2-20.8,12.3c-0.1-1.3-0.2-2.2-0.4-3.1c-0.2-1,0.6-2.6-1.3-2.6
			c-1,0-2.2,0.4-3.1,1c-2.3,1.5-1,4.6-0.3,5c3.9,2.4-3.3,11.1,6,10.2c7.8-0.7,15.6-0.9,23.4-1.3c3.8-0.2,7.7,0,11.9,0
			c-1,3.8-2.9,6.9-7,6.8c-4.6-0.1-4.7,2.5-4.1,5.5c0.9,4.9,0.7,8.8-4.8,11.1c-2.1,0.9-3.8,3.8-1.2,6c4.4,3.8,3,8,0.5,11.6
			c-2.3,3.3-3.2,5.6,1.2,7.5c2.4,1,0.5,4.2,2.8,5.1c1.5-1.3,3-1.1,4.6-0.3c-2.7-7.4,0.7-14.9-0.6-22.5c-0.8-5,3.2-10.8,5-16.2
			c0.2-0.6,1.4-0.6,0.7-1.7c-2.1-3.2-1.9-5.4,1.1-6.7c2.9-1.2,4.7-2.8,5.6-5.8c0,1.7,0,3.4,0,5.1c1.5-4.5,5.7-6.4,8.8-10.5
			c0.2,3.3,0.2,5.4,0.3,7.4c0.3,0,0.5,0,0.8,0c0-3.4,0-6.8,0-10.1c-2.3,2.2-4.3,3.4-8,1.6c-3.7-1.7-7.7,1.7-11.9,1.9
			c-7.9,0.5-15.8,1.3-23.7-0.1c-1.9-0.4-2.9,0.6-4.1,1.4c-1.6,1-3.4,3.3-4.8,1.1c-1.2-2,1.6-3.1,3.1-4.1c7.9-5.1,15.8-10,23.7-15
			c6.1-3.9,12.1-8.1,18.1-12.1c1.2-0.8,2.9-1.4,2-3.8c-2.2,1.3-4.2,2.5-6.3,3.8c-0.9-12.5,8.2-19.1,21.6-15.9
			c-0.1,3.7-5.8,3.1-5.6,6.9c2.7,3.1,5.4-8,8.1,0.2c3.3,0.8,3.8-1.8,4.5-4c0.4-1.4,0.9-2.7,2.5-2.6c2.4,0.1,2,2.4,2.7,3.8
			c0.7,1.4,1,2.4-1,3c-4,1.1-7.5,3.9-12.3,4.2c1.5-1.8,2.7-3.2,3.9-4.6c-0.4,0.1-0.7,0.2-1.1,0.3c-2.8,1.2-6.9,2.8-5.8,5.8
			c1.3,3.2,5,0.1,7.4-0.5c3.3-0.9,6.8-4.4,9.6-3.1c2.8,1.3,1.2,6.3,2.7,9.2c0.8,1.5-0.9,4.1,2,4.7c0,0-0.1,0.1-0.1,0.1
			c-0.1-2.3-0.1-4.6-0.5-6.9c-1.3-8-1.4-7.9,6.9-7.9c10.8,0,21.6-0.1,32.4,0c12.1,0.2,24.2,1.2,36.3,0.7c5-0.2,10.3,1.4,15.2-0.8
			l-0.1,0.1c-2.4-2.9-5.7-1.1-8.4-1.2c-8.7-0.3-17.4-0.1-26.1,0c-2.7,0-4.8-0.1-4.7-3.9c0.1-3.6,2.3-3.6,4.6-3.4
			c13.7,1,27.4,0.1,41.1,0.5c2.2,0.1,4.6-0.6,5.3,2.9c0.3,1.2,2.8-1.7,4.4-0.1c3.8-5.7,9.6-2.6,14.3-2.9c12.7-0.6,25.4,0.2,38.1,0
			c4.2-0.1,6.1,0.9,5.5,5.4c-0.4,3.4,0.2,4.6,4.5,4.1c7.6-0.9,15.4-0.2,23.2-0.3c2.1,0,3.5,0.8,3.6,2.9c0.1,2.4,1.2,5.3-1,7.1
			c-1.7,1.3-2.8,0.1-3.9-1.7c-2-3.5-4.4-3.3-6.6,0.1c-2,3.1-6.6,2.7-9-0.2c-1.9-2.2-4.2-3.5-6.2,0.3c-2,3.9-6.5,4.1-9.1,0.5
			c-2.5-3.5-5.2-3.3-6.9,0.4c-0.4,0.9-0.5,1.7-1.5,2.2c-3.1,1.7-3.1,1.9,0.3,5.3c-3.7,0.6-7,1.5-10-1.7c1.5,0.3,2.9,0.6,4,0.9
			c1-0.4,1.1-0.7,0.5-1c-1.8-1-2.9-2.1-2.7-4.4c0.2-2.5-1.6-2.9-3.7-3.1c-1.9-0.2-2.9-0.4-3.4,2.1c-0.6,2.6-7.1,3.2-9.2,1.1
			c-3.9-3.9-5.5-3.8-8.1,0.5c-1.5,2.5-4.9,1.1-6.8,3.3c0.9,0.3,1.7,0.5,2.8,0.9c-1.2,1.7-3.4-0.3-4.6,1.7c3.2,0.8,6.2,0.5,10.2-1.9
			c-3,5.5-7.2,3.7-10.8,4.8c1.9,3.5,1,6.4-1.7,9.1c-1.2-2.6,0.1-5.8-2.2-7.8c-1.6,1.1-0.1,3-1.1,4.3c-0.5-0.9-1-2.4-1.6-2.5
			c-1.9-0.3-1.3,1.4-1.4,2.4c-0.2,2.3-0.2,4.6-0.2,6.9c0,0.8-0.1,2.4,1.4,1.7c2.2-1,3.6-0.4,3.8,1.8c0.2,2.4-1.1,4.4-3.4,5.2
			c-4.3,1.5-1.6,4.8-1.7,7.1c-0.2,3.3,2.8,1.1,3.9,1c4.2-0.4,0.8-4.1,2.4-6.2c2.7,5.6,6.9,9.8,13,11.5c6.6,1.8,12.2-0.6,16.5-5.4
			c5.1-5.8,7.3-12.7,3.1-20c-2.2-3.9-3.3-7.4,0.2-11.3c3.2,2.1,3.3,8.3,9.3,6.7c2.6-0.7,5-1.3,5.6-4c1.1-4.9,3.1-2.7,4.6-0.7
			c3.8,5.2,8.2,5.1,10.7-0.5c0.5-1.2,0.5-2.9,2.3-2.7c1.5,0.1,1.2,1.6,1.6,2.6c0.9,2.4,2.1,4.3,5.3,4.3c2.9,0,5.1-0.3,6.4-3.5
			c1.4-3.6,3.2-3.4,5.5-0.2c3.2,4.5,4.1,9.3,4.2,14.7c0.4,18.1,1,36.2,1.5,54.3c0,1.2,0,2.3,1.7,3.3c0-6.2,0.3-12.2-0.1-18.2
			c-1-15.5-1.9-31-1.7-46.6c0-4.8,4.9-6.3,6-10.4c0.2-0.9,2.9,0.4,3.4,2.4c0.8,2.9,2.9,3.7,5.8,3.7c2.7-0.1,4.4-0.6,5.3-3.8
			c0.9-3.3,3.5-4,5.4,0c0.7,1.5,1,3.2,3.5,3.1c3.3-0.2,1.3-2.7,1.5-3.8c0.5-2.3,2.3-1.6,3.3-2.5
			C415.3,543.7,415.1,543.8,415.1,543.8z M201.9,504.4c-5.7,2-11.7-0.8-17.4,1.3c-0.4,0.1-1.4-0.3-1.4-0.5
			c-0.8-4.6-0.8-9.2-0.1-13.7c0.5-3.5,3.5-1.8,5.4-2.6c3.8-1.6,7.7-1.3,11.7-1.9C200.8,492.9,199.6,498.9,201.9,504.4
			c0.8-4.8,0.9-9.7,0.3-14.5c-0.4-2.5-0.2-3.6,2.3-4.1c5.4-1,10.8-2.2,16.3-3.2c2.4-0.5,4-0.1,3.9,3c-0.2,7.9,0,15.8-0.1,23.7
			c0,1.2,0.6,3-1.5,3.1c-6.7,0.4-13-0.3-19.9,2.9c-4.2,2-11.9,1.2-17.8-1.3c-0.8-0.4-1.9-0.1-2.9-0.2c-1.1,0-1.6-0.3-1.2-1.7
			c0.7-2.8,1.5-4.9,5.1-4.9c4.7,0,9.4-0.5,14-0.8C201.9,506.5,202.9,506.2,201.9,504.4z M210.9,525.6
			C210.9,525.6,210.9,525.6,210.9,525.6c-4.8,0-9.6,0-14.4,0c-2.8,0-3.4-2-3.5-4.3c-0.1-1.9,0.6-2.9,2.6-2.9c9.8,0,19.6,0.1,29.3,0
			c3.7,0,2.1,3,2.7,4.6c0.9,2.5-1,2.7-3,2.7C220.1,525.6,215.5,525.6,210.9,525.6z M407.7,456.2c-6.8,0-12.7-0.1-18.6,0
			c-3.3,0-2.9-2-2-3.8c2-4.1,4.4-8,6.5-12.1c1.4-2.7,2.9-1.6,3.9-0.1C400.8,445.2,403.9,450.3,407.7,456.2z M167.2,483
			c1.6-3.2,2.5-5.2,3.5-7.2c1.8-3.6,2-9.4,6-10.1c5.6-1,6.8,5.8,10.1,9c0.4,0.4,0.6,1,0.9,1.4c1.3,2,0.8,3.2-1.5,3.6
			C180.3,480.7,174.4,481.7,167.2,483z M298.2,459.2c1.5-3,2.7-5.2,3.8-7.4c1.9-3.6,3.6-10.2,6.3-9.9c4.5,0.6,6.3,6.6,8.8,10.6
			c0.3,0.5,0.3,1.1,0.6,1.6c1,1.6,0.4,2.8-1.2,2.9C310.6,457.6,305,459.9,298.2,459.2z M277,463.9c-5.5,0.9-10.3,1.7-15.1,2.7
			c-3.2,0.7-3.9-0.3-3.6-3.6c0.4-4.8,3-8.5,4.8-12.6c1-2.3,2-2.2,3.5-0.3C269.8,454.5,273.1,458.8,277,463.9z M307.2,572.3
			c-4.2-0.1-7.8-3.8-7-8.6c0.6-3.8,2.7-7.1,7.7-6.8c4.5,0.3,7.8,3.3,7.9,7.5C315.8,569.2,312.4,572.4,307.2,572.3z M377,516.2
			c-0.8,0-1.6,0-2.3,0c-1-16.3-0.5-32.6-0.4-49c0-1.1,0.5-1.8,1.7-1.8c2.1,0,1.8,1.6,1.8,2.9c-0.1,7.8,0,15.6-0.6,23.5
			C376.5,499.9,377,508,377,516.2z M168.1,488.8c-1.9-0.4-4.3,1.4-4.6-1.3c-0.3-2.4,2.3-1.9,3.8-2.4c5.3-1.9,11.2-1.2,16.5-3.5
			c1.1-0.5,3.3-0.6,3.8,1.5c0.5,2.1-1,2.3-2.7,2.7C179.2,487.3,173.5,488.4,168.1,488.8z M173,491.9c1.5,1.7,3,2.9,5.5,2.4
			c2.1-0.4,3.1,1,3.4,3c0.2,2.2-0.6,4.2-2.6,5.1c-1.8,0.8-3.6-0.3-4.2-2C174,497.7,171.3,495.6,173,491.9z M384.5,467.9
			c-0.8-2.2-0.5-3.6,2.9-3.8c2.9-0.2,3.1,0.9,2.9,3.2c-0.2,2.2,1.6,4.9-2.7,5.3C383.4,472.9,384.9,470.2,384.5,467.9z M183.3,518.3
			c1.5,0.5,4.3-1.1,4.3,2.2c0,2.1-1.7,2.7-3.7,2.7c-2,0-4.1-0.1-4.4-2.6C179.3,517.5,181.8,518.7,183.3,518.3z M355.7,515.8
			c0-0.6,0.1-1.2,0.1-1.8c4.4,0.7,9-1.4,14.1,1.8C364.5,515.8,360.1,515.8,355.7,515.8z M348.7,522.3c0.5-1.1-1-3.3,1.6-3.4
			c2.1-0.1,3.4,1,2.9,3.2c-0.3,1.6-0.4,3.9-2.5,4C347.9,526.3,349,523.8,348.7,522.3z"/>
		<path stroke="#000000" stroke-width="2" stroke-miterlimit="10" d="M807.1,454.2c3-8.1,1.5-16.6,1.9-24.9c0.1-3.1-0.9-4.4-4.2-4.6
			c-10.3-0.8-20.4-3.3-30.9-3.7c-7.8-0.3-15.3-3.8-23.6-3.5c-15.9,0.6-31.9,0-47.9,0.4c-6.8,0.2-8.6-5.4-12.5-8.7l0.1-0.1
			c-0.6,0.9-0.8,1.9-0.1,2.6c5.6,5.2,8.2,11.5,7.9,19.2c-0.2,5,1.9,8.1,7.8,8c2.1-0.1,4.3,1.1,7,0.4c-1.4-3.9-5-2.3-7.1-2.6
			c-4.3-0.7-5.5-2.4-4.5-6.5c0.7-3.1-1.4-7.5,0.9-9.3c2.6-2.2,7-0.7,10.7-0.7c15.6-0.1,31.1,0.1,46.7-0.1c3.8-0.1,5.1,1.1,4.9,4.9
			c-0.3,5.3,0,10.6-0.1,16c0,1.2-0.2,2.8,1.1,2.9c1.8,0.2,1.8-1.6,1.8-3c0-4.4,0-8.8,0.1-13.1c0-1.3-0.8-3.7,1.6-3.5
			c1.4,0.1,2.1,2,2.1,3.7c0,4.1-0.1,8.1,0,12.2c0,1.8-0.8,4,2.2,5.5c-0.3-6.3-0.5-12.3-0.1-18.2c0.2-2.7,0.9-3.3,3.5-3.4
			c8.7-0.6,16.9,2.8,25.5,3.3c3.4,0.2,5,2.2,4.6,5.9c-0.3,2.9-0.1,5.8-0.1,8.7c0,7-4,10.5-10.9,9.4c-6-0.9-12-1.3-17.9-3
			c-3.4-1-7.3-1.8-7.1,4.1c0,1.4-1.7,1.4-2.8,2.3c-1.2-3.1,0.9-8.1-4.2-8.6c-3.7-0.4-7.3-2.2-11.4-0.9c1.6,2.7,4.5,2.5,6.2,2.5
			c5.1-0.1,6.3,2.2,6.5,6.6c0.2,3.6-0.5,5.5-4.5,5.4c-7.5-0.2-15.1,0-22.6-0.1c-4.7,0-9.2,1.2-14.1,0.3c-4-0.8-6.4-2.5-8-5.6
			c-2.1-4.1-4.7-7.8-7.4-11.4c-2.9-4-5.9-3.7-8.7,0.1c-2.2,3.1-4.4,6.2-6.6,9.4c-2.2-2.8-0.4-4.4,1-6.5c1.6-2.4,4.8-4.9,1.3-8.2
			l0.2-0.2c-1.6,3.1-2.4,8.6-6.8,2c-0.4-0.6-1.7-0.5-2.6-0.7l0.2-0.3c0.1,3.1,4.3,4,3.9,7.2c-0.1,1.3-0.4,2.8-1.2,3.6
			c-0.6,0.6-1-2.1-2.8-1.2c-0.3,3,5.7,4.1,2.9,7.5c-1.8,2.2-4.1-0.3-6.5-1c0.3,4.1-0.7,8,0.6,11.9c0.8-0.5,1.2-0.6,1.3-0.8
			c1.2-2.2-1.1-6.2,1.2-6.8c4-1.1,8.4-0.4,12.6-0.5c1.3,0,2,1.3,1.4,1.8c-4.3,3.7-2.6,9.8-6.2,14.8c-0.8-2.7-0.9-5-3.4-6.4
			c-0.3,6.2,5.9,12.1-0.6,17.8c-4-3.4-5.1-8.7-5.2-15.9c-2.7,7.3-2.5,9.9,0.9,13.9c2.8,3.3,4.1,6.8,1.9,11c-0.5,0.9-1.5,2.2,0.2,2.8
			c1.5,0.5,1.6-0.9,2-2c3.3-9.7,6.4-19.4,10.1-29c1.1-2.7,2.6-2.5,4.4-3.5c-0.2,14.1-11.5,25.2-10.5,39.4c-6.3-0.3-6.3-0.3-8.8,2
			c3.4,0.9,7.5-1.8,10.1,2.2c-1.7,1.7-4.4,0.2-6.9,2.2c3.7,1.9,7.6,1.8,10.4,0.5c3.2-1.5,0.8-4.7-0.6-6.3c-3.6-4.1-1.5-7.8-0.1-11.8
			c0.9-2.7,2.2-2.4,3.6-0.8c7.5,8.8,15,17.7,22.7,26.8c-11.4,2.5-22.5-1-33.3,1.8c-0.3,0.1-0.4,1-0.6,1.8
			c18.9-0.5,37.6-0.2,56.2,0.4c2,0.1,4.6-0.7,4.1,3c-0.4,2.9-1.2,3.7-4.7,3.7c-20.1-0.4-40.2-0.2-60.4-0.2c-1-1.9,0.7-4.7-1.7-7.2
			c-1.7,2.4-1,4.7-1,6.8c-0.1,4,0,3.9,3.2,2.3c1.1-0.5,2.7-0.2,4-0.2c15.6,0,31.3-0.2,46.9,0.1c5.8,0.1,11.7,1,17.5,1.6
			c5.4,0.6,10.6-1,15.9-1.5c11.3-1.1,21.6,1.5,31.9,5.5c1,0.4,2.5,0.2,2.3,1.9c-0.2,1.7-1.5,1.6-2.6,1.5c-3.3,0-7.1,1.2-8.6-3.7
			c-1.2,1.5-0.3,3.7-2.2,3.7c-2,0-0.8-1.5-0.8-2.4c-0.1-1-0.8-1.4-1.9-0.3c-4.5,4.3-6.3,4.1-10.3-0.3c-2-2.2-4.2-1.9-6.1,0.5
			c-3.1,4-7.7,4.2-10.5,0.2c-2.2-3.3-4.5-2.3-6.5-0.4c-3.4,3.4-6.3,6-9.6,0c-1.5-2.6-4.3-2.1-5.8-0.5c-3.8,4.2-6.9,3.7-10.3-0.4
			c-1.7-2-4-1.8-6,0.1c-3.9,3.8-5.9,3.6-9.4,0c-2-2-4.8-2.4-6.8,0.2c-3.2,3.9-6.2,3.7-9.6,0.3c-2.2-2.2-4.5-3-6.9,0.3
			c-1.5,1.9-3.6,3.5-6.5,3.3c-1-0.1-1.3,1.2-1.4,2.2c0,2.5,0,5,0,7.4c2.1,0.4,2.5-0.7,2.4-1.9c-0.1-1.9,1-2.6,2.4-1.9
			c1.9,0.9-0.7,1.7-0.4,2.5c2.6,8.2-2.7,18,5.3,25.3c5.6,5.2,11.9,6.9,19.4,4c5.4-2.1,9.5-8.5,9.5-15.3c0-2.7,0.6-5.5-0.6-8
			c-0.9-1.9,0-1.9,1.3-3.1c3.9-3.6,6.7-7.9,10.1,0.6c0.5,1.4,6.6,2.2,8.4-1.7c2.2-4.9,3.4-7.5,5.6-0.1c0.5,1.6,1.8,3.9,4.1,2.9
			c2.3-0.9,5.5,0.8,7-2.9c0.6-1.7,0.5-6.2,3.6-4.1c1.7,1.2,3.9,5.4,1.4,8.8c-0.8,1.1-1.9,1.9-1.6,3.5l-0.1-0.1
			c3.7-5.4,12.3-4.1,15-11c0.3-0.7,1.6-1.8,2.9-0.6c1.2,1.1,1.1,2.5,0,3.5c-0.9,0.9-2.2,1.5-3.3,2.1c-4.6,2.6-9.1,5.3-11,10.7
			l-0.2-0.1c2.2-0.2,3.1-2.2,4.4-3.5c6.2-6,7.5-6.6,16.8-7.1c-3.4-2.7,1.1-2.8,1.3-2.8c2.7-0.2,6-1.8,8.1,1.1c2.1,2.9,1.5,5.7-1.3,8
			c-1.9,1.6-4.2,1.1-6.1,0.7c-5-1.1-5.5,1.6-4.5,5c0.8,2.8,0,4.4-1.9,6c-4.4,3.5-6.3,8.1-6.2,13.6c0.1,4.2,0.2,8.3,0.2,12.5
			c0,2.6,1,4.2,4.7,5c-2.3-3.9-4.6-6.6,0.7-9.2c3.6-1.8,2.7-7.1-1-9.1c-0.9-0.5-2.5-0.4-2.1-2c0.4-1.4,0.8-2.7,2.6-3.4
			c6.7-2.3,7.6-4.3,5.6-11.5c-0.9-3.2-0.3-4.5,3.3-4.6c6.6-0.1,8.6-2.7,8.1-9.4c-0.2-2.7,0.9-5,3.9-2.8c3.5,2.4,6.2,1.5,8.7-1
			c1.4-1.5,2.7-1.6,4.5-1.6c2.8,0,5.9,0.4,7.7-2.7c-8.7,1.7-8.7,1.7-12.9-1.5c4.7-2.6,8.5,1.9,12.8,1.5c1,0.6,2.1,0.7,3.1,0.1
			c0,0-0.2,0.2-0.2,0.2c0.9-3.5,3.1-0.4,4.5-0.9c8.7-3,9.8,1.7,8,10c4-4.1,3.6-7.5,2.7-11c-0.9-3.6-3.9-2.1-6-2.4
			c-2.8-0.4-5.5,0-7.6-3c-1.5-2.2-4.1-1.9-5.2,0.8c-0.8,2-1.8,2-3.5,1.3c-6.4-2.7-13.5-3.6-20.3-7.3c13.2,0,25.7,0,38.3,0
			c-0.4-2.6-2.1-2.3-3.5-2.3c-15.5-0.1-31-0.1-46.5-0.2c-2.3,0-4.8,0-4.6-3.9c0.2-3.5,1.9-3.1,4.4-3.2c15.2-0.2,30.5,0.6,45.7,1.1
			c1.6,0.1,4.7,1.4,4.7-1.2c0-2.9-3.2-1.8-5.1-2c-1.7-0.2-3.4,0.5-5,0.8c-5.3,1-8.7-2.4-12.7-4.4c0.3,1.6-0.6,3.1-1.9,2.8
			c-7-1.3-14.1,2.1-21.8,0c4.8-4.4,9.2-8,15.8-6.3c2.9,0.8,4.9,3.8,8.2,3.7c-1.8-3.3-6.9-3.3-7.9-7.6c5-0.5,10-1.3,11.7-6.5
			c2.4-7.8,2-15-6.8-19.3c4.4,0.7,8.8,1,13,2.2c3.2,0.8,3.6-0.7,3.7-3c0.2-2.4,0.8-4.5-3.1-5.4c-6.5-1.5-13.3-1.6-19.8-3.2
			c-1.5-0.4-3.3-0.5-3.8-2c-0.6-1.8,1.3-2.6,2.4-3.6c2-1.9,3.4-4.1,4.7-6.4c2-3.6,4-3.7,5.7,0.4c1.5,3.6,3.2,7.2,5.8,10.5
			c-1.3-4.1-2.6-8.1-4-12.2c-0.2-0.7-1.2-1.4-1.1-2c1.3-6.8-3.5-4.1-6.5-4.3c0.6,1,0.8,2,0,3.1c-3.6,4.6-7.2,9.3-10.9,13.9
			c-1,1.3-2.2,0.8-3.6,0.6c-9.9-1.8-19.8-3.5-29.7-5.2c-6.1-1.1-12.2-2.3-19.6-3.7c10.6-2.8,20.7,1.6,29.4-6.5
			c4.8-4.5,13.2-0.5,20.1-2.5C796.7,452.5,802.2,453.8,807.1,454.2z M711.1,468.4c-0.4-0.7-0.8-0.6-1,0.2c0,0.2,0,0.4,0.1,0.5
			c1.3,2.2,3.8,3.4,4.6,6.3c-2.8,0.4-3.8-3.3-7.1-1.4c13.6,13.4,23.9,29.4,37.2,42.8c-6.6-10.7-15.9-19.5-22.8-30.5
			c5.9-1.2,11-0.2,16.2-0.5c2.7-0.1,3.1,1.1,4,3.5c2.7,7.5,2.4,15.9,7.5,22.8c2.5,3.5-0.4,6.1-4.7,7.1c-4.5,1.1-8.6-1.4-12.8,0
			c-3.4,1.1-5.6-0.9-7.7-3.4c-7.7-9.1-15.6-18-23.4-27c-0.7-0.8-2.2-1-1.6-2.6c2.6-6.5,4.9-13.1,7.9-19.3
			C708.5,464.9,710.9,465.2,711.1,468.4c2.1-1.9,4.9-2.2,6.6-0.6c1.6,1.6,1.7,4.5-0.6,6.6C715,472.3,713.9,469.5,711.1,468.4z
			 M738.3,470c-8.9-3.4-18.5-3.3-27.6-5.7c-2.9-0.7-4.7-2.1-5.8-5.7c11.2,1.7,21.8,3.1,32.3,4.9c27.8,4.8,55.6,9.8,83.5,14.8
			c1.8,0.3,4.7-0.3,4,3.1c-0.6,2.8-2.5,2.1-4.8,2c-7.1-0.5-13.8-4.4-21.2-2.9c0.9,2.1,3.6,0.1,5,2.5c-7.1-1.7-10.6,3.2-13,7.7
			c-2.4,4.5-1.7,9.7,3,13.7c1.7,1.5,4.4,4.5,1.9,7c-3.4,3.3-7.3,7.4-11.4,8.1c-7.6,1.3-15.6,0.4-23.5,0.4c-1.4,0-2.1-0.9-2.1-2.2
			c0-0.5,0.5-1.3,0.9-1.4c1.5-0.4,0,2.9,2.6,1.8c-2.2-11.9-4.4-23.9-6.5-35.9c-0.5-3-2.5-4.2-5-4.5c-7-0.6-13.2-5.1-20.5-4
			c-1.9,0.3-3.8-0.2-5.7-0.2c-2.1,0-3.3-1-3.1-3.1c0.2-2.5,1.9-1.6,3.4-1.6C729.2,468.8,733.6,470.8,738.3,470z M757.6,506.9
			c-2.1,0.3-3.9,0.2-5.4,1c-3.7,1.9-4.3-0.9-4.6-3.1c-0.8-7.1-3-13.9-4.5-20.9c-0.3-1.6-2-4,0-5.2c1.7-1,3.9-0.7,6,0.2
			c2.6,1.1,3.7,2.5,4.4,5.3C755.5,491.6,755.9,499.1,757.6,506.9z M706.3,568.4c-5.9,0.3-9.4-2.8-9.6-7.3c-0.1-4.3,3-7.8,7.3-8
			c4.6-0.3,8.4,3,8.3,7.5C712.2,565.2,709.6,567.9,706.3,568.4z M715.5,458.2c-7.8-2.7-15.1-1.2-22.6-2.7c2.8-3.9,5.5-7.1,7.7-10.6
			c1.7-2.6,2.6-3.6,5-0.4C708.8,448.8,712.3,452.7,715.5,458.2z M732.7,483c-3.5,1-7.5-0.3-11.4,0c-3.1,0.2-5.6-2-5.6-4.5
			c0-2.5,3.1-2.8,5.5-2.7c5.3,0.2,10.6,0.3,15.9,0.5c2.5,0.1,3.4,1.8,3.5,4.2c0.1,2.7-1.6,2.6-3.4,2.6
			C735.8,483,734.5,483,732.7,483z M768.5,522.1c2.3,0,4.6,0.2,6.9,0c2.9-0.3,3.5,1.1,3.6,3.6c0.1,2.7-1.2,3-3.4,3
			c-4.3-0.1-8.6-0.3-12.9,0.3c-3.4,0.4-3.7-0.9-4.1-3.6c-0.4-3.3,1.2-3.3,3.5-3.2C764.3,522.2,766.4,522.1,768.5,522.1z M794,492.7
			c0.5-4.7,5.1-8.1,9.5-6.8c1.3,0.3,2.1,0.9,2,2.3c-0.2,1.8,1,4.5-1,5.2c-2.4,0.8-6.1,1.8-7.7-0.9C794.3,488.4,795.4,494,794,492.7z
			 M801.9,498.9c1.8-0.1,3.9-0.2,3.7,3.1c-0.1,2.1-0.5,4.6-3,3.4c-1.8-0.8-5.7,1.7-5.6-3.3C797,498.4,799.1,499,801.9,498.9z
			 M811.3,497.2c0-2.1,0-4.1,0-6.2c0-1.1-0.1-2.5,1.5-2.6c0.6,0,1.5,0.4,1.9,0.9c0.6,0.9,1.7,2.1,0.5,3c-2.9,2.2-2,4.2-0.4,6.7
			c0.8,1.3,0.7,3.4-1,4.6c-0.4,0.3-1.2,0.6-1.5,0.4c-1.6-1-0.7-2.7-0.9-4.2C811.2,499.1,811.3,498.1,811.3,497.2z M756.9,515.3
			c-1.6,0.8,2.1,4.4-2.2,4.1c-1.3-0.1-4.6,0.2-3.4-2.1c1.4-2.6-1.4-7.2,2.9-7.7C757.8,509.3,756.4,512.9,756.9,515.3z M754.7,522
			c2.4,0,1.9,1.7,2.1,3.2c0.4,3.1-1.7,3.3-3.9,3.5c-1.6,0.2-2.5-1.2-1.9-1.9C752.3,525.2,751.3,521.8,754.7,522z M775.6,542.1
			c2.3-0.5,4.4-1,6.6-1.6c2.1-0.5,2.8,1.1,3.1,2.5c0.5,2-1.6,1.8-2.6,1.9C780.1,545.4,777.5,545.1,775.6,542.1z"/>
		<path stroke="#000000" stroke-width="2" stroke-miterlimit="10" d="M633.9,411.9c2.6,4.3,4.3,9.5,10.6,9.4c2.9,0,5.1-1.8,6.7-4
			c2.9-4.1,4.8-2.7,7.3,0.6c3.4,4.4,7.2,8.4,10.8,12.5c0.3,0.4,1,0.5,2,0.9c-0.7-5.4-5.3-7.6-7.9-11c-6.4-8.3-13.6-16-20.6-23.9
			c-3.5-4-7.7-7.5-5.9-14c13.8,16,27.5,32.1,42,49c-0.3-4.8-3.2-6.7-5.1-8.8c-3.5-3.8-6.8-7.8-10.2-11.8c-1.3-1.6-3.2-2.8-2-5.4
			c0.6-1.3-0.5-3.4-1.4-3.5c-9.3-0.7-11.4-9.6-16.6-14.8c-3.3-3.3-7.2-6.7-8.2-12.6c-0.6-3.6-6.8-5.2-11-5.8
			c-4-0.6-6.6-3.8-10.5-4.3c0.7,2,0.1,2.8-2.1,2.5c-7.9-1-15.8-1.9-23.7-2.8c-1.4-0.2-3.2-0.3-3-1.9c0.3-2.2,2.8-1.5,3.7-1
			c7.3,3.7,15.3,2.2,22.9,3.5c-3.1-2.6-6.9-2.1-10.5-2.7c-3.7-0.6-7.6-0.3-11.3-1.9c-1.7-0.8-4.1-0.9-6.1,0.4
			c-1.2,0.8-1.2,4.2-3.4,2.4c-0.8-0.6-0.5-3.9,0.3-5.2c3.9-5.7-0.1-5.7-4-6c-7.8-0.7-15.7-1.2-23.4-2.6c-3.9-0.7-3.8,0.5-3.4,3.3
			c0,0.2,0.1,0.4,0.1,0.6c0.9,8.9,0.3,9.8-7.8,6.5c-17.5-7.1-36-7.3-54.3-9c-1.5-0.1-4-0.4-4.5,0.3c-3.7,6.4-9.3,3.5-14.3,3.2
			c-4-0.3-7.9-0.9-12-0.6c-2,0.1-5,0.4-4.8-3.8c0.1-3.2-2.7-3.2-4.3-1.2c-1.7,2.1-3,2.2-5.4,1.2c-7.5-3.2-14.9-3.7-22.4,0.7
			c-4.3,2.5-6.5,0.3-7.1-5.6c-1.1-11.2,0.5-22.4,0-33.6c-0.1-1.8-0.2-3.6-0.3-5.4c-2.2,0.4-2.1,1.7-2,2.8c0.7,9.3-1.2,18.4-1.2,27.7
			c0,4.4-0.6,8.8-3,12.6c-2.6,4.4-1,8.8-0.4,13.3c0.7,5-6.5,18.8-11.3,20.8c-3.3,1.4-4.7,3.9-3.7,6.8c1.4,3.8-0.7,6.3-2.9,7.8
			c-2.3,1.6-3.6,3.5-5.3,5.5c-3.5,4.2-4.8,9-4.1,14.2c0.8,5.9-2.1,6.6-6.9,6.3c-7-0.4-14.1-0.5-21.1-0.1c-4.7,0.3-7,5.5-5.2,9.9
			c0.5,1.1,0.9,1.4,2,1.4c4.2-0.1,8.5,0,13.6,0c-2.6-4.4-6.1-1.6-8.5-2.7c-1.9-0.9-5.7,1.9-5.7-2.2c-0.1-3.7,2.7-5,6.3-4.9
			c6.7,0.1,13.3-0.1,20,0.2c2.6,0.1,5.4,0.9,6.4,4.7c-0.8-15.6,8.6-26.4,14.9-38.4c5.8-10.9,12-21.6,18.1-32.4
			c1.3-2.3,2.2-4.4,5.9-3.8c7.7,1.2,15.5,2.1,23.3,2.3c8.2,0.2,16.2,2.3,24.4,1.6c-1.8-3.4-6.2,0.5-8.6-3.3
			c9.9,0.5,19.2,0.8,28.5,2.7c-5.6,1.3-11.1-0.3-16.6,0.1c5.5,2.6,11.7,2.9,17.5,3.1c14.4,0.4,28.5,3.3,42.9,3.3
			c0.5,0,1,0.4,1.5,0.7c0,0,0,0,0,0c-0.2-2.7-2.2-2-3.8-2.1c-9.6-0.9-19.1-1.8-28.7-2.8c0-0.6,0.1-1.1,0.1-1.7
			c16.8,1.5,33.5,3.6,50.3,4.3c17.1,0.7,33.9,3.5,51.4,4.2c-1,3.6-3.4,2.9-5.9,2.7c-12.5-1.3-24.9-2.5-37.4-3.8c0,0.5-0.1,1-0.1,1.4
			c9.3,0.9,18.6,1.8,27.9,2.5c7.8,0.6,15.8,0.6,19.7,9.3c0.1,0.3,1.1,0.2,1.7,0.2c-0.7-1.8-1.6-3.4-3-4.8c-1.2-1.2-3.2-2.8-1.9-4.1
			c1-1.1,2.1-3,4.5-2.9c5.6,0.1,10.1,1.2,13.9,5.9c9.5,11.8,19.3,23.4,29.3,34.9c2.4,2.7,4,4.7,0.2,7.1c-3.1,1.9-5.6,7.2-10.4,2
			C638.1,415.7,636.9,412.8,633.9,411.9z M482.9,355c4.8-4.5,41-1,44,3.8C512.3,357,498,355.7,482.9,355z M570.2,360.6
			c-1-1.9-5,1.1-4.7-3.1c0.1-2.4,1.1-3.4,3.4-3.3c2.2,0.1,3.5,1,3.6,3.4C572.5,359.1,572.4,360.5,570.2,360.6z M624.1,369.5
			c3.7,2,6.2,3.2,8.5,4.6c1.8,1,2.1,3.1,1.2,4.4c-1.4,2.2-2.6-0.1-3.4-1C628.5,375.4,625.8,373.8,624.1,369.5z M425.7,350.4
			c6.3-2.2,10.9-2.8,16.1,1.4C436.2,351.3,431.7,350.9,425.7,350.4z"/>
		<path stroke="#000000" stroke-width="2" stroke-miterlimit="10" d="M420.6,563.8c2.1,2,2.1,2,1.7,5.3c2.7-1.4,2.7-1.4,1.9-5.5
			c3.2,1.2,4.7,3.8,5.4,11c-1-4-2.7-4.6-4.4-3.5c-2.9,1.8-0.1,4.5-0.3,6.7c-0.2,2,3.3,0.2,3.6-0.1c3.9-5,7.5-2.3,12-0.6
			c5.4,2,10.4-1,14.3-4.9c4.9-5,6.6-11,4.4-17.8c-1.1-3.5-1.5-6.1,3.5-5.6c2.6,0.2,2.8-2.1,3.6-3.8c0.4-0.8,0.4-2,1.7-1.9
			c1.4,0.1,1.2,1.3,1.4,2.1c0.8,4.4,4.9,3.6,7.6,4.6c3.1,1.1,3.4-2.4,4.8-4c0.7-0.8,0.7-2.6,2-2.5c1.3,0.1,2.5,1.3,2.7,2.7
			c0.5,3.7,3,3.9,5.9,4c3.2,0.1,4.8-1.5,6-4.2c0.5-1-0.3-3.1,1.9-2.9c1.4,0.1,1.8,1.3,2.4,2.2c4.2,6.9,7.5,6.8,11.7-0.4
			c1.8-3,2.4-1.4,3.4,0.3c4.2,7.1,8.9,7.1,13.1-0.1c0.5-0.9,1-1.6,2.1-1.7c1.4,0,1.2,1.4,1.5,2.1c1.1,2.9,2.5,5.4,6.2,4.6
			c6.6-1.5,5.8,1.7,3.9,5.8c0.4,0.4,0.8,0.8,1.1,1.1c6.5-2.6,7.2-4.5,4.2-11.6c-1.5,0.8,0,2.5-1.4,3.5c-1.1-1,0.3-3.7-1.9-3.8
			c-1.7-0.1-2.7-0.1-1.8-2c0.5-1.1,0.1-3.1,1.8-3.1c9.7,0.1,3.7-6.9,3.9-10c0.3-4.5-4.5-2.3-7.2-2.8c-0.1,0-0.3,0.2-1,0.7
			c5,1.3,2.5,4.2,2,7c-0.8,3.6-4.1,2.5-5.5,2.2c-3-0.8-6.2,0.3-9.3-0.6c1-3.2,3.7-0.4,5-2.5c-2.5-1-4.7-3.8-6.6,1.1
			c-1.2,3-6.5,2.5-9.3-0.6c-2.6-3-5.7-2.6-7.8,0.9c-1.4,2.4-6.2,2-8.1-0.7c-2.6-3.7-5.1-3.7-7.9,0.1c-2.5,3.3-5.9,2.9-8.5-0.5
			c-2-2.6-4.7-2.8-6.9,0c-3.1,3.8-6.3,3.5-9.3-0.5c-1.8-2.4-4.3-2.2-6.5,0.1c-3,3.2-6.9,3.2-9.6-0.2c-2.7-3.3-5.1-1.4-6.9,0.6
			c-2.9,3.1-6.1,3.5-8.1,0c-0.9-1.7-1.8-1.8-3-1.6c-4.8,0.6-8.5,3.2-12.2,6.6c2.9,1.9,5-0.7,7.9-0.2c-1.8,3.2-5,2.9-7.5,4
			c5.2,6.7,4.7,9.8-2.2,12.7c6.9,4-1,5.5-1.3,8.3L420.6,563.8z M450.7,559.1c0.1,4-3.6,8.2-7.2,8.4c-4.3,0.2-7.6-3.3-7.8-8.2
			c-0.2-4,3.3-7.8,7.3-8.1C446.6,551.1,450.6,555.1,450.7,559.1z M463.6,539.2c-3.8,4.6-8.5,4.6-11.9,0.7c1.9-0.8,3.6,0.3,5.3,0.6
			C458.8,540.7,460.7,539.8,463.6,539.2z"/>
		<path stroke="#000000" stroke-width="2" stroke-miterlimit="10" d="M662.3,544.5c2.1,1.7,1.2,6.1,6.9,4.5c6.3-1.8,6.5-0.5,6.8-8.9
			c0.1-1.8-1.3-3.9,1.3-5.4c-2.3-0.6-2.9,0.8-3.7,1.7c-2.4,2.8-6,2.7-8.4-0.1c-2.1-2.4-4.7-3.5-7.1-0.1c-2.1,2.9-7.9,3.3-9.6,0.4
			c-2.2-3.8-4.5-3-6.8-0.6c-3.4,3.4-6.4,3.6-9.6-0.3c-2.2-2.8-4.8-3.2-7.2-0.1c-2.6,3.4-5.7,3.7-8.3,0.5c-2.5-3.1-4.4-3.6-7.7-0.4
			c-2.6,2.6-6.5,2.9-9.4-0.5c-2.1-2.5-4.1-2.3-6.4-0.1c-3.1,2.9-6.2,3.5-9.5-0.1c-1.9-2.1-4.4-2.3-6.5-0.3
			c-3.9,3.7-6.8,3.6-10.6-0.6c-2-2.1-5-3.2-5.4,0.5c-0.3,3-5.1,1.7-3.4,3.8c3.4,4,0.5,5-1.9,7c-1.1,0.9-0.3,3.8,0.5,4.1
			c1.7,0.6,4,1.1,5.2-1.7c1-2.3,1.3-7,5.9-3.4c-5.9,9.5-5.9,9.5-12.4,10.9c2.3,1.2,7.5,0.1,4.2,5.1c-0.2,0.4,0.8,1.6,1.3,2.4
			c5.1,7.4,5.1,7.4,2.9,15.7c3-5.5,5.3-4.4,9.4-2.5c9.6,4.4,20.5-1.1,22.8-13.9c0.6-3.5,0.8-7.3-1.4-10.6c-2.6-3.9,3.2-5.2,1.5-9
			c2.8,0.8,3.3,2.3,3.4,3.4c0.4,3.3,2.1,4.7,5.3,4.7c3,0.1,5.8,0.2,6.6-3.8c0.2-1.1,0.7-2.7,2.4-2.8c1.6,0,2.8,0.9,2.9,2.3
			c0.4,3.8,3,4.6,6.1,4.7c3.4,0.1,5.3-1.7,6.2-4.9c0.2-0.7,0.8-1.3,1.2-1.9c2.7,1.2,2.3,5.2,6.1,5.6c3.4,0.3,6,0.6,6.8-3.4
			c0.8-3.7,2.9-3.4,4.7-1C653.9,553.9,656.5,553.8,662.3,544.5z M578.9,567.5c-3.9,0.1-8.7-4.2-8.7-7.7c0-3.6,4.8-9,8-8.4
			c3.7,0.7,7.6,2.1,7.9,6.9C586.4,564.1,583.5,567.5,578.9,567.5z"/>
		<path stroke="#000000" stroke-width="2" stroke-miterlimit="10" d="M183.1,541.7c-1.7,2.6-0.9,5.2-0.1,7.8
			c0.3,1.1,1.6,2.4-0.4,3.4c-1.3,0.6-2.2,0-3-0.9c-3.2-3-6.1-3-7.8,0.8c-1.1,2.5-6.2,0.8-4.8,5.2c-1.6,0.3-1.6-0.2-1.9-1.9
			c-0.9-4.5-2.4-5.2-7-4.1c3.6,0.9,5.3,1.7,2.1,5c-1.5,1.5-1.6,5.7,3.2,4.7c3.6-0.7,7.9,1.6,10.8-2.4c0.2-0.2,0.7-0.4,1.1-0.3
			c10.3,2.6,21.9,0.7,30.8,8.9c8.2,7.5,15.9,15.3,17.3,26.7c0.7,6.3,5.9,8.3,9,12.7c-0.1-7.8-4.7-13.9-7.1-20.7
			c-2.2-6.1-5.2-11.9-7.5-18c-1.4-3.7-3.1-5.3-7.3-3.8c-1.6,0.6-4,3.1-5.5,0.3c-1-1.9,2.1-2.1,2.8-3.6c0.5-1,1-2,1.4-3.1
			c0.8-2,1.8-2.2,3.3-0.6c6.7,6.5,10.3,5.7,13.7-3c2.1-0.2,2.4,1.7,3.2,2.8c1.2,1.8,1.7,4.4,4.9,3.7c3.1-0.7,6.4-0.7,7.4-4.7
			c0.3-1.3-0.2-3.4,2.2-3.3c1.5,0.1,2.3,1.1,2.8,2.5c0.8,2.4,2.3,3.9,5.2,3.5c2.7-0.4,5.3-0.8,6.1-4.2c0.8-3.3,1.8-4.1,4-0.4
			c3,5.1,9,4.4,11.4-1c1.1-2.6,2-4.1,4.7-1.6c1,1,1.2,0.7,3-1.7c-1.9-0.7-3.9-1.3-6.1-2.1c2.1-2,4.1,0.5,6-0.5
			c0.9-0.5,2.7,0.2,2.6-1.5c0-1-1.3-2.7-1.6-2.7c-3.6,0.9-4.6-2.6-6.9-3.7c-1.6-0.7-4.2-1.4-5.6,1.9c-1.8,4-4.7,3.9-7.9,1
			c-2.5-2.2-5.4-2.3-7.7,0.9c-2.6,3.7-5.9,4.2-8.7,0.7c-2.9-3.6-5.8-1.9-7.1,0.2c-3,5-5.8,4-9.4,1c-2.9-2.4-5.3-2.7-7.2,1.5
			c-1.7,3.7-6.5,3.6-9.2,0.1c-2.8-3.8-5.3-2-7.2,0.6c-2.5,3.6-6.9,4.3-9.8,1.1c-2.6-2.8-5.4-2.5-6.6,1c-0.4,1.2-0.8,2.6-1.8,2.5
			c-1.5-0.1-1.6-1.8-2-3.1c-0.9-2.6-0.1-5.6-2-7.9C182.9,541.8,183.1,541.7,183.1,541.7z M209.9,568.5c3.4-1.7,5.6-1.3,6.7,2.2
			c0.4,1.3,2.1,3.4,0,3.8c-2.1,0.4-3.7-1.8-4.9-3.7C211.3,570,210.7,569.4,209.9,568.5z M254.3,550.3c-3.1,3.7-6.9,2.2-10.5,1.9
			c-0.4,0-1.1-1.1-1.1-1.7c0-0.8,0.9-1.2,1.7-0.8C247.5,551.2,250.9,549.6,254.3,550.3z"/>
		<path stroke="#000000" stroke-width="2" stroke-miterlimit="10" d="M156.2,639.1c3.1,7.6,10.7,6.6,16.5,7.9
			c15.8,3.5,33.9-6.3,41.1-21c0.6-1.1,0.8-2,0.5-3.2c-5.5,0.8-10.2-1.7-15-3.5c-1-0.4-2.3-0.7-1.6-2.3c0.3-0.8,1-1.1,1.9-0.9
			c4.4,1.1,8.7,2.3,13.1,3.2c2.4,0.5,1.3,2.3,1.5,3.6c3-1.5,3.6-4.8,4.5-7.5c0.8-2.2,0.4-3.8-3.1-4.5c-6.6-1.3-13-3.6-19.4-5.8
			c-2.1-0.7-3.4-1.4-4.2,1.5c-0.5,1.7-3,1.5-3.9,0.8c-1.1-0.9-0.7-2.2,1.2-2.8c0.9-0.3,0.7-1.7-0.2-2.3c-1.1-0.6-2.3-0.3-3.2,0.5
			c-0.4,0.4-0.4,1.4-0.5,2.2c-0.9,8.5-1.7,9.2-10.6,9.8l0.1-0.2c1.6,1.1,0.3,3.8,2.5,4.7c1.7-3.5,1.7-3.5,3.5-3.8
			c3.6-0.7,4.3-1.4,5.6-4.7c0.2-0.6,0.9-1.1,1.4-1.5c2.6,2.3,2.6,4.4,0.3,6.5c-3.8,3.6-8.2,5.4-13.6,4.1c-3.8-0.9-5.3-2.8-3.4-6.5
			l0.2,0.2c-2-0.6-4,1.2-6,0l0.1-0.1C167.7,619.4,162.1,634.5,156.2,639.1z M188.7,635.1c-0.8-2.2-1.6-4.3-2.3-6.5
			c-0.4-1.3-1-2.8,0.8-3.4c1.3-0.5,2.1,0.7,2.6,1.8c1.2,2.6,2.4,5.3,3.4,8c0.5,1.2,1,2.9-0.8,3.4c-1.7,0.5-2.3-1-2.8-2.3
			c-0.3,0.7-0.8,1.4-0.8,2.1c0.3,7.2,0.3,7.2-7.4,7.2c-3.5,0-7,0.1-10.4-0.4c-3.6-0.5-6.7-1.5-3.4-6.4c2.3-3.4,3.2-7.7,5.2-11.3
			c1.1-2.1,1.1-5.4,5-5.4c3.7,0,3.8,3,5.3,5.1C185,629.6,184.7,633.8,188.7,635.1z M189.7,620.9c7.9-1.3,13.9,3.9,21,3.9
			c1.7,0,0.8,2,0.1,3.2c-2.3,4.1-5.7,7.1-9.3,10.1c-1.6,1.3-3.2,1.7-4.4-0.9C195,632,192.5,626.8,189.7,620.9z"/>
		<path stroke="#000000" stroke-width="2" stroke-miterlimit="10" d="M543.1,519.7c0-2.3-0.8-3.4-2.7-3.4c-1.4,0-2.7,0-4.1,0
			c-16.1-0.3-32.2-0.7-48.4-0.7c-3.2,0-3.1-2-3.2-3.4c-0.2-2.3-0.3-3.4-3.2-3.2c-2.6,0.2-4.1,0.6-4,3.3c0.1,3.1-1.1,3.3-4.2,3.3
			c-14.1,0.3-28.2,0-42.3-0.2c-2.4,0-5-0.5-7.6,2.5c6.1,1.8,12,0.8,17.6,1.2c10.8,0.7,21.6,0.5,32.4,0.6c2.3,0,4-0.2,3.5,3.3
			c-0.5,2.9-1.4,4-4.3,3.8c-14.4-1.2-28.7-0.6-43.1,0c-0.7,0-1.6-0.2-2.1,1.8c37.9,0.7,75.6,0.4,114.2,0.2c-1.7-2.7-3.4-1.9-4.7-1.9
			c-15.7,0-31.4,0.1-47.2-0.1c-1.9,0-5.2,1.4-5.4-2.4c-0.2-3.6,2-4.9,5.4-4.9c8.4,0.1,16.9,0.1,25.3,0.2
			C524.4,519.7,533.7,519.7,543.1,519.7z"/>
		<path stroke="#000000" stroke-width="2" stroke-miterlimit="10" d="M189.4,597c1.1,0.6,1.9,2.1,3.5,0.3c5.6-5.8,13.6-3.1,20.4-5.1
			c2.7-0.8,2.5,3.5,4.9,6.5c-2.5-13.9-9.5-22.8-20.4-28.7c-11.5-6.3-23.4-7.9-36.1-1c3.5,1.3,5.4-1.7,7.9-1.5c1.4,0.1,3.3-1.4,4,0.8
			c0.6,1.9-1.1,2.7-2.3,4c-3.2,3.2-5.8,7-8,11c2.7-2.8,7.2-2.1,9.1-5.9c2.8,4.5-0.8,6-2.8,8.1c-0.6,0.6-2,0.6-1.5,2
			c0.6,1.3,1.6,1.4,2.7,0.5c2.4-2.1,3.5,1.3,5.9,1.5c0-6.9,0.1-13.6,0-20.2c0-1.5-1.2-3.4,1.1-3.7c1.4-0.1,1.6,1.8,1.5,3.2
			c-0.6,8.4,1.2,16.9-0.5,25.2c-0.4,1.8,1.1,1.9,1.9,2.1c2.9,0.7,5.8,2,9,1.1c-0.8-2.8-6.5-2.5-5.2-3.9c3.6-4.1-1.1-5-1.7-7.3
			c-0.7-3.1-0.6-6.3-0.6-9.5c0-0.7,1.1-1.7,1.8-1.9c1.3-0.3,1.2,1,1.4,1.9c0.6,3.4,1.3,6.7,2,10.1c0.4,2.3-1.1,5.9,3.7,5.4
			c0.4,0-1,3,0.6,4.4C191.7,596.5,190.5,597.8,189.4,597z M204.4,577.1c-3,0.4-4.8,0.6-6.7,0.9c-7,1.3-7.4,1-7.8-5.9
			c-0.1-1.8-0.1-2.6,2.4-2.2C197.1,570.6,200.2,573.4,204.4,577.1z M193.3,588.6c-0.2-2.8-3.1-5.1-0.7-6.7c2.2-1.5,5.5-2,8.4-0.3
			C198.5,583.8,196.3,585.8,193.3,588.6z M208.8,577.9c-0.3,3.7-0.3,8.2-1.2,7.3c-3.4-3.5-3.5,0.9-5,1.4c-1.5,0.5-1.9,2.9-4.3,2.6
			C200.5,584.8,205.2,583.1,208.8,577.9z"/>
		<path stroke="#000000" stroke-width="2" stroke-miterlimit="10" d="M675.4,528.5c-8.7,0-17.5,0.1-26.2,0
			c-9.8-0.1-19.6-0.5-29.3-0.5c-3.7,0-3.2-2.2-3.3-4.5c-0.1-3.1,1.6-2.4,3.7-2.3c17.7,0.3,35.4,0.4,53.1,0.4c1.1,0,3.7,1,3.7-1.3
			c0.1-2.2-2.3-1.6-3.6-1.6c-14.4-0.1-28.7-0.3-43.1,0.1c-5.9,0.2-9.2-0.6-10.9-7.4c-3.7-15-8.9-29.6-13.2-44.4
			c-0.6-2.1-0.8-3.6-3.4-3.2c5.9,14.1,9.1,29,14.1,44c-6.1-0.7-8.5,1.9-7.7,7.6c0.3,1.9-0.4,2.5-3,2.7c-14.8,0.7-29.6-0.7-44.4-0.6
			c-2.3,0-4.6,0-7.2,0c0.6,4.1,3.4,3.3,5.7,3.3c14.6,0,29.2,0,43.8,0c1.8,0,4.2-0.9,4.9,1.8c0.8,3.3,0.5,5.5-4,5.3
			c-14.5-0.5-28.9-0.8-43.4-1c-1.7,0-3.8-0.9-5.5,0.8c1.1,1.7,2.7,1.1,4.1,1.2c15.3,0.2,30.7,0,46,0.6c23,1,46,0.3,68.9,0.7
			C675.2,529.7,675.3,529.1,675.4,528.5z M610.7,524.3c0.3-1.3-0.6-3.4,1.8-3.4c2.4,0,2.3,2.1,2.6,3.7c0.2,1.6-0.2,3.1-2.2,3.2
			C609.8,528.1,611,525.7,610.7,524.3z M610.7,514c0.3-1.2-0.6-3.5,1.9-3.1c2.6,0.4,1.5,2.7,1.5,4.2c0,1.2,0.9,3.7-1.6,3.3
			C610.4,518.1,610.7,515.9,610.7,514z"/>
		<path stroke="#000000" stroke-width="2" stroke-miterlimit="10" d="M860.6,619.5c0.5-0.4,0.9-0.7,1.4-1.1c2.4-1,3.2-5.2,4.8-4.8
			c4.5,1.1,5.2-2.3,7.1-4.4c0.4-0.7,0.8-1.5,1.2-2.2c0,0-0.3-0.3-0.3-0.3c-3-0.7-2.7,5.5-5.9,3.2c-1.9-1.4,0.9-4.3,0.2-6.5l0.2,0.1
			c-2.1,0-0.2,4.6-3.6,3.1c-0.6,0.7-1.5,1.3-1.8,2.1c-1.4,3.3-2.4,7.9-6,8.2c-3.4,0.3-4.7-4.4-6.5-7.2c-4.6-6.9-1.6-14.2,6.5-15.7
			c8.8-1.6,8.8-1.6,8.8,7.2c2.6-4.7,2-9.1-1.4-10.7c-3.4,0.3-6.9-0.2-9.9,1.9c-2.3,1.5-3.1,0.2-3.9-2c-0.8-2.4-0.5-4.8,1.4-5.6
			c3.3-1.4,7.1-2.6,10.6-2.3c1.1,0.1,3.2,4.8,1.8,8.1c2.8-2.9,1.1-6.5,1.6-9.8c-0.3-1-0.7-1.9-1-2.9c-1.9-2.4-2.1-5.8-4.5-8
			c-0.1,0.4-0.4,0.7-0.4,1.1c-0.2,2.7,4,5,1,7.7c-2.9,2.6-7.1,2.5-10.7,3.8c-2,0.7-3.2-0.9-4-2.6c-0.9-1.8-1.7-3.5-4.6-2.8
			c2.4,3.8,6.3,6.9,5.5,12c-1.3-0.4-2.2-3.5-3.8-0.8c-1.1,1.8,0.6,1.9,1.9,2.4c3.3,1.5,3.7,7.7,0.7,12.1c-1.7,2.4-4.1,4.2-5.9,6.7
			c-0.9,1.2-3.6,4-4.8-0.5c-0.2-0.8-1.2-1.1-1.9-0.6c-0.3,0.2-0.5,1-0.4,1.5c1.2,5.7-2.8,5.1-6.2,5.1c-3.2,0-5.6-2.2-8.4-3.4
			c-2.2-1-0.2-1.6,0.2-2.3c0.9-1.5-1-2.5-1.3-2.1c-4.5,5.7-4.3-1.9-6.7-2.3c-0.7-0.1-0.9-1.7-2.7-1.2c0.7,2.9,2.8,4.7,4.8,6.5
			c2.7,2.5,2.6,13.6-0.2,15.9c-1.2,1-2.8,1.1-3.8,0.3c-5.1-3.7-10.2-7.5-13.6-12.9c-2.3-3.7-0.6-5.5,3.1-6.4c2.2-0.5,4.3-1.1,7.5-2
			c-3.8-0.9-6.3,0-8.8,0.6c-6.2,1.6-7.3,4.8-2.8,9.3c4.5,4.5,5.1,11.6,10.9,15.3c0.8,0.5,0.5,2.8,0.8,4.3c2.7,0.2,2.8-2.3,3.8-3.7
			c6.2-2,5.7-7.8,6.5-12.4c1-5.6,3.2-4.3,6.7-2.4c3.7,2,1.2,4.5,0.6,6.3c-1.2,4.1-3.4,7.9-0.6,13.4c-5.3-2-9.3-3.5-13.4-5
			c0.8,2.6,3.1,3.2,5.3,3.7c2.9,0.7,4.5,2.4,4.9,5.3c4.1-3.7,9.6-3.7,14.1-0.3c2,1.5,2.4,0.5,2.3-1.5c-0.2-3.2,1.6-5.2,4.1-6.7
			c-2.8,0.4-5.7,0.6-8.4,1.3c-3.1,0.9-5.9,0.4-8.2-1.4c-2.4-1.9,0.2-4.2,0.5-6.3c0.2-1.7,1-3.2,1.5-4.9c0.8-2.3,2-3.4,4.8-3.8
			c3.9-0.6,7.5-1.1,11,1.2c-7-6.7,4.3-5.9,3.5-10.3c3.8,2.4,5,6,7.3,8.8C855.5,618.1,857.3,620,860.6,619.5z"/>
		<path stroke="#000000" stroke-width="2" stroke-miterlimit="10" d="M558.3,454c-1.3,1.8-3.2,2.4-5.3,2.5c0.2,2.4,1.9,1.5,3.1,1.8
			c1.8,0.5,2.7,1.4,1.2,3.3c-4.5,5.7-0.9,11.8-0.6,17.7c0.1,1.7,3,1,4.6,0.8c2.2-0.2,2.7-1.8,2.7-3.7c0-3.8-0.3-7.7,0.6-11.3
			c3,0,5.9,0,8.7,0c0.1-0.3,0.1-0.6,0.2-0.9c-2.5-0.5-5-0.9-7.4-1.7c-1-0.3-2.6-0.5-2.5-2.5c0.1-2.4,1.8-1.6,2.9-1.6
			c11.9-0.1,23.8,0,35.8-0.1c3.4,0,6.8,0,10.1-0.5c13.5-1.8,26.8,2,40.4,0.1c7.1-1,14.4-0.4,21.6-0.8c2.8-0.1,3.7,0.5,3.6,3.4
			c-0.1,2.9-1.5,2.6-3.7,2.6c-10.2-0.2-20.3-0.1-30.5,0.4c5.1,1.8,10.5,0.5,15.7,1c5.9,0.5,11.9,0.1,17.8,0.6c5.8,0.6,3.7-3.5,4-6.1
			c0.4-3.2-0.4-4.8-4.1-3.1c-3.5,1.6-3.5-2.4-5.2-3.7c-0.6,1.7-0.5,3.9-3.3,3.9c-5.9-0.1-11.7,0-18.1,0c2.2-4.4,3.1-8.5,5.4-12.1
			c4-6.4,4-6.6,9.2-1.9c0.2-3.1-1.9-4.7-4.2-5.5c-2.7-1-3.4,2.1-4.6,3.6c-2,2.5-4.1,5.4-4.7,8.5c-1.4,6.3-4.7,8-10.8,7.7
			c-11.5-0.5-23-0.3-34.6-0.1c-3.3,0.1-4.5-0.8-5.3-4.2c-1.2-4.8-2.1-10-5.5-15.6c0,6.7,2.9,11.3,3.8,16.4c0.4,2.2,0.7,3.8-2.3,3.3
			c-0.2,0-0.4,0-0.6,0c-10.4,1.7-18.8-0.5-22.5-11.7c-0.4-1.2-1.3-2.3-2.1-3.4c-3.2-4.6-5.8-4.5-8,0.6c-1.8,4.2-4.8,7.9-5.7,12.5
			c4-2.8,5.4-7.3,7.1-11.4c1.5-3.6,3.5-3.6,5.1-0.9c2.6,4.5,5.9,8.6,7.4,14.4c-5.5,0-10.4,0-15.4,0C560.4,456.4,558.9,456,558.3,454
			z M562.9,463.8c-2.1,9.6-2.1,9.8-3.2,9.5c-4-1.1-2.2-4.4-2.3-6.8C557.2,462.2,560.5,464.7,562.9,463.8z"/>
		<path stroke="#000000" stroke-width="2" stroke-miterlimit="10" d="M861.5,569.7c2.4,2.2,2.6,5.5,4.5,8c0.3-0.3,0.7-0.6,1-1
			c1.1-2.3-4.3-6.8,2.4-7.2l-0.1,0.2c-1.5-3.2-5-5.6-4.1-10.4c2.9,2.1,1.9,7,6.2,6.9c0.5-0.5,1-0.9,1.5-1.4c-1.7-4.9,0-10-1.1-14.9
			c-0.4-2,1.3-1.3,2.3-1.2l-0.1,0.1c0.5-1.6-1.2-2.4-1.4-3.5c-0.5-2.7-3.2-6.2,1.6-8c-1.4-6.4-1.6-6-9-8.3c-7-2.2-13.7-5.2-22.3-7.4
			c2.7,3.3,5.2,3.9,7.4,4.8c4.8,1.9,9.6,3.5,14.4,5.4c1.5,0.6,3.6,1.3,4.2,2.6c0.7,1.5,0.6,3.9-0.1,5.4c-1.1,2.1-3-1.4-4.9,0.3
			c3.4,1.9,7,3.6,5.8,8.9c-0.7,2.8-1.5,5.4-4.1,5c-2.4-0.4-6.1-1.5-5.8-5.2c0.6-6.9-2-7.1-7.7-5.3c-3.1,1-6.8-1.2-9.7-4.2
			c-2.4,6.9,3.7,5.9,6.6,7.6c-1.9,2.9-5.8-2.7-7.5,2c-1.5,4.3,2.2,4.3,4.5,6c-6.6,1.5-3.3,7.1-5.6,10.8c2.7-0.4,2.3-2.1,2.4-3.2
			c0.1-3,1.4-3.3,4.3-4.2c4.4-1.3,8.4,3.3,12.7-0.1c0.9-0.7,4.6,0.4,4.2,3.9c-0.2,2,3.3,5.4-2.1,5.3
			C861.6,567.7,861.5,569,861.5,569.7z M844,551.5c2.1-3,5.1-2.2,7.5-1.2c2.1,0.9,3.6,3.6,2.3,5.7c-1.2,2.1-3-0.2-4.2-1
			C847.8,553.9,845.2,553.9,844,551.5z"/>
		<path stroke="#000000" stroke-width="2" stroke-miterlimit="10" d="M695.3,437.6c0.2-2.4-0.7-3.2-3.2-3.4
			c-10.4-0.9-20.7-0.8-31.1-0.8c-11.2,0-22.6-0.3-33.9-0.5c-15.5-0.3-31,0.4-46.4-0.3c-13.9-0.6-27.7,1.1-41.5-0.1
			c-9.3-0.8-18.6,0.6-27.9-0.5c-1.9-0.2-4.3-0.9-6.3,2.4c6.7,0,12.7,0,18.8,0c4.5,0,8.9,0.2,13.4-0.1c4.6-0.3,8.6-0.1,7.6,6.3
			c3.8-0.5,0.9-4.4,3.2-5.3c1.7,0,1.5,1.3,1.2,2c-0.5,1.5-1,3.1,0.9,3.5c0.6,0.1,1.5-1.7,1.4-3.3c-0.3-4.3,3.4-3.3,5.6-3.1
			c16.1,0.8,32.3,0.4,48.4,0.5c21.4,0.1,42.7,0.1,64.1,0.2c5.8,0,8.8,2.7,8.8,8.3c0,1.6,0.2,2.8,1.7,3c2.3,0.3,1.4-1.8,1.5-2.9
			c0.2-2.4,0.1-4.9,1.2-7.4c0,3.8,0,7.7,0,12.3c4.3-3.1,0.4-7.8,3.6-10.2c0,0-0.2,0.3-0.2,0.3c0.3-1.1-1.7-3.7,1.9-2.7
			c2.4,0.7,5,0.9,7.5,1.3C695.5,437.4,695.3,437.6,695.3,437.6z"/>
		<path stroke="#000000" stroke-width="2" stroke-miterlimit="10" d="M866.9,576.7c-0.3,0.3-0.7,0.6-1,1c0.3,1,0.7,1.9,1,2.9
			c4.1,7.2,1.8,15.2,2.4,22.8l-0.2-0.1c1.8-0.6,0.5-5.2,4.3-3.1c2.3,1.2,2.6,2.7,1.4,4.8c-0.2,0.4-0.1,1.1-0.1,1.7
			c0,0,0.3,0.3,0.3,0.3c0.4,0,0.7-0.1,1.1-0.1c1.5,1.8,1.5,5.1,5.5,4c1.9-0.5,2.3-1.8,3.1-2.8c1.4-1.7-0.2-2.9-1.1-3.9
			c-4.1-4.5-3.9-8.3,0.7-12.2c0.3-0.2,0.5-0.5,0.7-0.8c-4.2-0.8-0.5-4.5-2.3-6.2c-0.5-0.5-1.4-0.9-1.6-1.5c-1-2.8-3.1-5.8-1.8-8.4
			c1.1-2.3,4.6-2.3,7.2-2.3c3,0,5.9,0.1,8.9,0.1c1.6,0,3.6,1,4.6-0.9c1.1-2.3-1.4-2.7-2.4-3.9c-0.5-0.6-1.1-1-1.7-1.5
			c-0.1,3.6-1.9,4.5-4.8,2.6c-1.5-1-2.6-2.8-3.9-4.2c-4.7-5.1-7.9-11.5-13.6-15.8c0,0,0.1-0.1,0.1-0.1c3.3,7.6,9.9,12.9,14.2,20
			c-5.8,0.6-11.4-0.9-15.4-3.9c-0.5,0.5-1,0.9-1.5,1.4c-0.6,1.6,2.2,2.5,0.9,3.9c-0.4,0.4-2-0.3-3.1-0.5l0.1-0.2
			c-0.4,2.1,3.1,2.5,2.2,4.8c-0.4,1.2,0.6,2.7-0.9,3.6C868.8,579.2,868.2,577,866.9,576.7z M870.2,589.6c1.3-1-1.7-4.2,1.8-4.5
			c1.5-0.1,3.6,1.7,2.8,3.5c-1.1,2.4,0.4,6.7-2.6,6.9C869.3,595.8,870.7,592.1,870.2,589.6z"/>
		<path stroke="#000000" stroke-width="2" stroke-miterlimit="10" d="M808.8,597.6c-2.7-15.1,3.7-21.8,25.3-26.5
			c0.6-1.4-0.6-1.5-1.4-1.9c-0.8-0.5-1.7-0.9-2.3-1.2c1.1-4.7,4.7-8.5,4.1-13.5c-0.2-1.5,1.3-3.7-2.4-5.1c-3.4-1.2,0.6-2.8,2.5-3.9
			c-3.8-0.5-7.2-0.1-10.4-1.5c0,0,0.2-0.2,0.2-0.2c-0.5,2.2,4.3,3.8,1.4,5.6c-2.1,1.3-5.7,1.7-8.2,0.3c-2.6-1.5-4.9-5.7-4.2,1.5
			c0.1,1.6-8.4,5-9.9,4.1c-1.1-0.7-2.1-1.3-3.1-0.5c-1.4,1.1,0.2,1.9,0.6,2.8c0.8,2.2-5.1,8.1-8,8.1c-3.2,0-3.5,0.3-2.2,3.1
			c0.6,1.4,1.1,2.4,0.1,3.7c-4.5,6-3.8,13.3-4.7,20.2c-0.3,2.3-2.6,2.1-2.8,3.8c5.9,3.1,15.1,1.8,20.7-2.9c-1.7-1-3,0.4-4.2,0.9
			c-7.5,3.6-10.4,1.9-9.3-7.5c0.2-1.5,0.5-2.6-0.7-4.1c-1.1-1.5-1.8-4.2,1.8-4.3c1.4,0,1.5-1.3,1.7-2c1.3-5.9,4.9-6.5,9.8-4.7
			c-1.7-3-3.8-5.4-8.2-3.9c1.5-2,3.1-3.4,4.7-4.7c2.5-2,3.7-6.2,8.2-5c12.5-7.4,16.5-8.5,23.3-6.6c-2.8,1.2-5.9-0.5-9.3,1.5
			c3.2,0.2,5.4,0.5,7.6,0.5c2,0,2.8,0.9,2.7,2.8c-0.3,4.5-1.6,10.8-4.2,11.9c-3.6,1.6-8.4,4.6-13.2,2.3c1.6,5.2-3.2,5.9-5.8,8.1
			c0.2,4.2-2.4,7.7-2.4,12c0,2.8-0.1,5,2.5,6.6L808.8,597.6z"/>
		<path stroke="#000000" stroke-width="2" stroke-miterlimit="10" d="M167.7,597.5c1.1-3.2-1.6-2.3-2.8-2.3c-4.3,0-7-2.3-8.9-5.9
			c-0.2-0.1-0.4-0.3-0.6-0.4c-3.1-1.8-5.8-4-8-6.8c1.8-1.8,5-1.8,5.4-4.9c0.1-0.8-0.9-1.8-1.4-1.4c-2,1.7-4.4,2.9-5.5,5.5
			c-2.6,6.2-7.1,11.6-7,19.1c0.6-0.4,0.9-0.6,1-0.8c1.2-3,0.8-7.9,4-8.6c3.9-0.9,2,5.8,5.5,6.8c-0.8-3.1-1.2-6.3,3.3-6.2
			c4.3,0.1,10.5,8.6,9.9,14.8c-0.6-3.6-0.8-6.4-3.6-6.4c-2.8,0.1-2.6,2.5-3,4.6c-0.2,1.5-1.4-0.4-2.1-0.2c-0.4,1.2,0.6,2.9-1.1,3.5
			c-4.5,1.7-8.9,3.4-14,1.8c-1.1,6.9,2.7,12.4,6.9,17.7c-0.5-1.4-0.7-3-1.5-4.2c-2-3-0.4-4.1,2.2-4.7c6.4-1.6,12.8-3.2,19.1-4.9
			c0,0-0.1,0.1-0.1,0.1c0.2-1.3-0.1-2.5-0.6-3.8c-1.7-4.4,1.4-2.2,3.1-2.1l-0.1,0.2c-0.1-0.7,0.1-1.8-0.3-2.1
			c-4.9-3.2-2.8-5.9,0.5-8.6L167.7,597.5z"/>
		<path stroke="#000000" stroke-width="2" stroke-miterlimit="10" d="M436.1,438c-3.7,2.7-4.2,7.1-6.2,10.7
			c-1.9,3.3-1.5,8.6-7.8,8.8c40.4,0.6,80.2,0.1,120.1,0.3c-6.5-3.1-7-10.1-10.5-14.9c-0.9-1.2-1.3-2.8-2.3-3.9
			c-2.4-2.9-4.8-3.8-7,0.4c-2.2,4-5,7.8-7,11.9c-1.8,3.7-4.1,5-8.3,5c-18,0.1-36-0.8-54,0.4c-2.5,0.2-4.4-0.7-5.6-3.4
			c-2.1-4.5-4.7-8.8-7.3-13c-0.8-1.4-1.2-4.7-4.3-2.2c4.8,5.2,7.7,11.4,10.9,18.1c-4.8,0-9.2-0.3-13.5,0.1c-5.3,0.4-4.6-1.8-3-5.2
			C432.5,446.8,434.2,442.4,436.1,438z M536.7,456c-7.6,0-14.3,0-21.8,0c2.9-5.2,5.6-10,8.2-14.7c2-3.6,4.1-3,5.8,0.1
			C531.6,445.9,533.9,450.6,536.7,456z"/>
		<path stroke="#000000" stroke-width="2" stroke-miterlimit="10" d="M595.3,603.7c1.2,4.7-3,2.9-5.2,4.3c1.9,1.3,1.9,5.6,6,2.6
			c0.9-0.6,1.7,0.5,1.8,1.6c0,1.1,0.3,2.6-1.4,2.6c-1.3,0-2.6-0.5-4.1-0.9c0,1.9,0,3.8,0,5.5c12.4,3.8,25,2.4,37.7,2
			c-0.2-0.7-0.2-1.3-0.4-1.3c-8-1.7-12.7-6.1-13.8-14.5c-0.7-5-5.2-3.1-8.3-3.4c-3.6-0.4-3.6,2.2-4.1,4.8c-0.6,3.4-2,6.6-3.9,9.7
			c-0.2-3.1-0.4-6.3-0.7-9.4c-0.2-2.1-0.4-4.5-3.7-3.5L595.3,603.7z M612.6,609.1c0.6,3.7,1.2,7-3.4,7.8c-2.4,0.4-2-1.6-2.3-3
			C605.8,608.4,610.2,610.2,612.6,609.1z"/>
		<path stroke="#000000" stroke-width="2" stroke-miterlimit="10" d="M694.4,615.7c2.1-0.7-0.4-4.6,3.1-4.3c3,0.3,0.5,3.5,3,4.6
			c0.2-4.6,2.6-7.2,7-8.1c4.2-0.9,8.3-0.7,12.4-0.1c1.8,0.3,3.5,1.9,5.5,0.8c-0.5-1.9-2.3-1.7-3.6-2.2c-1.7-0.7-0.9-2.3-0.9-3.5
			c0-0.6,0.8-1.6,1.4-1.6c1.4-0.1,1.9,1,2,2.2c0,0.2,0,0.4,0.1,0.6c1.6,4.3,3.7,0.1,5.5,0.3c3.7,0.4-2.3,4.7,2,4.6
			c2,0,3.4-1.2,2.1-2.8c-2.2-2.7-3.9-6.3-8.3-6.4c-6.5-0.2-13-0.6-19.5-0.7C697.8,599.1,690,608.3,694.4,615.7z"/>
		<path stroke="#000000" stroke-width="2" stroke-miterlimit="10" d="M595.2,603.8c-0.4-4.1-3.3-5.1-6.8-5.1c-5.7,0-11.4,0-17.1,0
			c-9,0-12.9,4.1-13.1,13.4c0,2.4,1,5.8-4,5.4c-2.6-0.2-1.8,3-0.6,3.7c2.5,1.6,5.7,0.9,8.4,0.5c2.2-0.4,2.7-2.9,2.5-5
			c-0.4-3.2,1-5.8,2.9-8.1c-0.9-1.5-2.9,1.4-3.6-1.2c-0.3-1.1-3.2-1.2-1.8-3.3c1.1-1.7,2.2-0.5,3.4,0.2c2,1.1,3.6,0.6,3.2-1.8
			c-0.2-1.5-1.1-2.4,1.3-2.5c1.9,0,2.8,0.3,2.7,2.5c-0.2,3.8,0.9,4.5,5.2,3.6c3.7-0.9,7.8,1.1,7.7-5.3c0-1.7,2.8-1,4-0.7
			c2.4,0.7-0.1,1.4-0.4,2.1c-0.5,1.4,0.2,2.3,1.1,3c1.2,1,2.1,0,2.7-1c0.6-1,1.5-1.1,2.4-0.5C595.3,603.7,595.2,603.8,595.2,603.8z"
			/>
		<path stroke="#000000" stroke-width="2" stroke-miterlimit="10" d="M760.3,558.1c-6,3.8-6.8,10.5-8.8,16.4c-3.2,9.7-1.8,19,3,27.9
			c-0.5-3-0.9-6-1.7-9c-0.5-1.8-1.9-4.2,0.4-4.9c3.7-1.2,2,2.5,2.8,4.1c0.8,1.5,1.6,2.9,1.9,4.7c0.6,3.2-0.4,4.8-3.7,4.9
			c0.6,4.8,5.5,0.5,7.4,3.9c-3.2,0.7-6.1,1.4-9.1,2c-0.8,0.2-1.7,0.1-1.6,1.1c0.1,1,1.2,1.8,2,1.4c3.6-2,8-0.6,11.3-2.8
			c-7.4-13.4-10.5-26.8-2.1-40.9c0.7-1.2,2-2.4,1.4-4.2c0,0,0.2,0.1,0.2,0.1c-1.2-0.1-2.3,0-2.5,1.5c-0.3,2.2-1.9,2.4-3.4,1.7
			c-2.6-1.1,0-2.5,0.2-3.7c0.2-1.6,2.8-2.2,2.1-4.4L760.3,558.1z"/>
		<path stroke="#000000" stroke-width="2" stroke-miterlimit="10" d="M681.8,476.7c1.3-2.7-3.3-4.8-3-8.5c0.1-1.1-1.6-0.9-2.8-0.7
			c-1.4,0.2-2.4,1.5-4.3,0.7c-4-1.6-5.9-0.5-4.5,4.2c0.8,2.5-1.4,3.4-3.1,4.6c-5.4,3.7-5.7,5.6-2.5,11.1c3.4,5.9,6.6,11.9,10.1,17.8
			c1.1,1.9,1.5,4.4,5.3,4c2.4-0.3,0.5,3,1.1,4.6c0.4,1.3-0.6,3.5,1.8,3.5c2.4-0.1,1.5-2.2,1.6-3.6c0.4-5-0.4-9.1-7-8.1
			c-1.3,0.2-1-0.8-1.3-1.3c-3.8-6.7-7.5-13.3-11.3-20c-1.2-2-0.8-3.7,1-5c3.4-2.5,7-4.6,11.4-5c2.5-0.3,4,0,3.8,3.1
			c-0.1,1.7-0.7,4.7,2,4.5C682.7,482.6,681,479.6,681.8,476.7z"/>
		<path stroke="#000000" stroke-width="2" stroke-miterlimit="10" d="M134,620.7c-1.6-0.8-3.2-1.1-4.6,0.3c0,1.9,0.2,3.7-0.6,5.6
			c-1.2,2.8,0.1,5.1,2.9,6.3c4,1.8,5.3,5,5.3,9.2c-0.1,3.3,0.1,7.2,5.1,4.7c2.6-1.3,2.8,2.5,4.8,1.7c2.4,0.8,4.5,1,4.7-2.4
			c-2.4-2.4-4.7-4.7-7.1-7.1c-0.3,1.2,0,4-2,1.6c-1.1-1.2-3.4-2.5-3.2-3.3c1-3-6-3.9-1.7-7.4C136.4,626.8,135.2,623.7,134,620.7z"/>
		<path stroke="#000000" stroke-width="2" stroke-miterlimit="10" d="M545.8,556.9c-0.4-0.4-0.8-0.8-1.1-1.1
			c-4.3-4.1-7.9-0.5-10.8,1.7c-2.6,1.9-4.2,5.3-6.2,8c-0.3,0.4-0.3,1.1-0.2,1.6c0.8,4.8,8.5,11.7,13.2,11.8c2.3,0,4.8,0.4,5.4-2.8
			c0.1-0.6,1.1-1,1.7-1.4c4.5-3.3,4.7-3.8,3-11c-2.6,1.9-0.6,4.8-2,7c-1.5-2.1,0.4-4.9-1.9-7.1c-2,2.8-1,5.9-1.3,8.7
			c-0.5,4.5-3.4,4.6-6.5,4.3c-3.8-0.4-6.3-2.8-6.9-6.5c-0.3-1.8,1-1.6,2.2-0.8c1.8,1.1,3.5,1.7,4.9-0.6c0.6-1,1.3-2.1,0.6-3.2
			c-1.2-2-3.1-2.2-5.1-1.4c-1,0.4-1.7,0.9-2.4-0.1c-0.7-0.9-0.3-1.7,0.3-2.6c2.4-3.9,5.4-5.8,9.9-3.5
			C544,558.5,545.6,560.4,545.8,556.9z"/>
		<ellipse stroke="#000000" stroke-width="2" stroke-miterlimit="10" cx="490.3" cy="463.8" rx="73" ry="0.6"/>
		<path stroke="#000000" stroke-width="2" stroke-miterlimit="10" d="M273.3,526.8c3.3,2.4,7.1,1,10.5,0.9c3.6-0.1,4.9,1.2,4.1,4.3
			c-0.6,2.3,1.1,4.9-1.6,8.1c0-3.6,0-6.3,0-8.9c-0.4,0-0.8,0-1.1,0c0,3.6,0,7.3,0,10.9c5.8-0.8,5.8-0.8,5.5-6.3
			c-0.1-1.9,0.3-3.9-0.2-5.7c-1-3.4,0.7-2.2,2.8-2.5c10.2-1.3,20.5,0.9,30.7-0.3l-0.1,0.1c-1.6-2.6-4.4-1.7-6.5-1.7
			c-13.5-0.3-27-0.2-40.4-0.3c-1.5,0-2.6,0.6-3.7,1.4C273.2,527,273.3,526.8,273.3,526.8z"/>
		<path stroke="#000000" stroke-width="2" stroke-miterlimit="10" d="M420.8,564.1c-3.3,2-5,0.4-6.1-2.8c-0.4-1.1-1.4-1-2.4-0.8
			c0,0,0.1-0.1,0.1-0.1c2.9,4.8,2.9,9.5-0.9,13.6c-3.6,3.8-7.9,2.9-12,0.5c-0.3-0.2-0.7,0-1.1-0.1l0.1-0.1c4,5.8,10.6,6.8,18.3,3
			c2.7-1.3,4.4-2.4,3.5-5.9c-0.6-2.3,0.1-5,0.2-7.5C420.6,563.8,420.8,564.1,420.8,564.1z"/>
		<path stroke="#000000" stroke-width="2" stroke-miterlimit="10" d="M413.1,556.2c-7.1-3.7-12-1.6-16.8,4.5
			c-4.9,6.2-2.2,9.7,2.3,13.5c0,0-0.1,0.1-0.1,0.1c1.1-1.6-2.1-2.8-0.5-4.6c2.9,0.2,7,1.6,7.3-2.7c0.3-5.3-5-2.5-7.7-3.6
			c4.7-7.8,7-8.2,15-3.2c0,0-0.1,0.1-0.1,0.1C413.3,559.1,413.1,557.6,413.1,556.2L413.1,556.2z"/>
		<path stroke="#000000" stroke-width="2" stroke-miterlimit="10" d="M837.8,570.1c-2.2,6.1,0.9,12.2-0.6,18.3
			c-0.4,1.8,0.7,4.1-1.7,5c-2.1,0.8-4,0.5-5.3-1.7c-0.9-1.5-2.3-1.4-3.5-0.6c-1.4,0.9-0.5,2.2-0.3,3.6c0.3,1.8,0.8,2.1,2.5,1.9
			c11-1.1,12.7-2.4,10.6-11.3C838.2,580.3,840.2,575,837.8,570.1z"/>
		<path stroke="#000000" stroke-width="2" stroke-miterlimit="10" d="M423.5,428.4c5.9,0.1,8.2-2.4,8.7-8.2c0.6-7.6-5-10.8-9.5-11.5
			c-4.6-0.7-9.2,5.5-9.2,11.8C413.6,426.3,416.1,428.2,423.5,428.4z M423.1,427.1c-5.2,0.1-8.2-2.5-8.3-7.3c-0.1-4.2,3.6-8.8,7.1-9
			c4.8-0.2,8.7,3.5,8.9,8.5C431,424.1,428.1,427,423.1,427.1z"/>
		<path stroke="#000000" stroke-width="2" stroke-miterlimit="10" d="M204.2,438.7c9.2,2.3,43.2,2.3,46.6,0.5
			C235.2,438.4,219.6,439.1,204.2,438.7z"/>
		<path stroke="#000000" stroke-width="2" stroke-miterlimit="10" d="M451.1,623.2c-0.7,0.3-1,0.5-1.3,0.7c-1.9,0.9-4.5-1.2-5.8,1.4
			c-0.2,0.3,0.2,1.2,1,1c2.9-0.6,6.3,1.3,8.8-2.3c1.9-2.8-0.4-3.4-1.5-4.5c-5.3-4.8-13.1-4.5-20.9,1.5
			C438.8,620.2,445.8,616.1,451.1,623.2z"/>
		<path stroke="#000000" stroke-width="2" stroke-miterlimit="10" d="M284.8,442.2c1.9-6.4,4.9-7.8,16.9-7.8
			c-3-3.6-12.1-3.4-23.8,1.1C283.4,435.6,284.9,438.2,284.8,442.2z"/>
		<path stroke="#000000" stroke-width="2" stroke-miterlimit="10" d="M690,409.2c-10.5-10.4-23.2-15.8-38-15.7
			c8.1,1.9,16.3,3.3,23.8,7.7c3.6,2.1,7.3,4.1,10.5,6.8c1.1,0.9,2,2.5,3.8,1.1C690.1,409.1,690,409.2,690,409.2z"/>
		<path stroke="#000000" stroke-width="2" stroke-miterlimit="10" d="M551.6,603c0-1.6,0.1-2.7,0-3.9c-0.1-1.2-0.3-2.6-1.5-3.3
			c0.1,3.3-4.9-0.2-4.3,3.2c0.2,1.3-1.1,2.1-0.8,3.2c0.7,2.6-1.5,7.2,1.4,7.6C548.5,610,553.3,607.6,551.6,603z"/>
		<path stroke="#000000" stroke-width="2" stroke-miterlimit="10" d="M681.5,623c2.1,1,4.2,1.3,6.3,0.3c0.4-0.4,0.7-1,1.2-1.2
			c1.1-0.6,3.3,0.8,3.2-1.9c-0.1-2.1-1.1-3.2-3.3-3c-4,0.4-6.2-1.3-5.7-5.9c-0.5,0.1-1.1,0.2-1.6,0.3
			C681.5,615.4,681.5,619.2,681.5,623z"/>
		<path stroke="#000000" stroke-width="2" stroke-miterlimit="10" d="M235,453.9c-4.3-5.2-11-5.1-16.3-8.4c-1,3.3,2.9,1.9,2.6,4.3
			c-2.8,1.5-6.7,1.1-10.3,5.2c8.8-1.5,16.4-5.7,24.1-1.3L235,453.9z"/>
		<path stroke="#000000" stroke-width="2" stroke-miterlimit="10" d="M413.1,556.1c3.5,1.7,7.6-0.2,7.4-3.5
			c-0.2-3.1-0.4-6.2-0.6-9.6c-2.6,1.2-1.1,3.4-2.4,4.6c-0.7-1.4,0.1-3.7-2.4-3.8c0,0,0.1-0.2,0.2-0.2
			C413,547.6,416.6,552.5,413.1,556.1C413.1,556.2,413.1,556.1,413.1,556.1z"/>
		<path stroke="#000000" stroke-width="2" stroke-miterlimit="10" d="M610.4,412c-2.7-0.2-4.3,0.7-4.4,3.8
			c-0.2,5.3,3.6,10.6,7.9,10.9c3.8,0.2,4.3-2.8,4.6-5.3C619.1,417.4,614.3,412.1,610.4,412z M607.5,416.6c-0.1-2.1,0.6-3.2,2.5-3.2
			c2.7,0,7,4.9,6.9,8.2c-0.1,1.7-0.7,3.5-3,3.1C609.3,424,609,419.7,607.5,416.6z"/>
		<path stroke="#000000" stroke-width="2" stroke-miterlimit="10" d="M683.2,594.1c0.9-4.4,1.6-8.6-3.2-11.3
			c-1.1-0.6-1.7-1.6-2.6,0.1c-1.6,2.8,0.2,7.7,3.2,8.8C681.8,592,681.1,594,683.2,594.1z"/>
		<path stroke="#000000" stroke-width="2" stroke-miterlimit="10" d="M420.8,587.8c-1-1.4,2-5-2.4-5.1c-6.5-0.2-3,5.4-4.1,8.2
			c-1,2.5,1.5,3,3.9,2.8C420.8,593.4,420.8,593.6,420.8,587.8z"/>
		<path stroke="#000000" stroke-width="2" stroke-miterlimit="10" d="M283.9,493.2c1.2,4.3-2.1,8.3,1.6,11.5
			c0.2,0.2,3.7,0.8,4.5-0.6c1.9-3.4,0.8-6.8-1.2-11.4c-0.4,3.2-0.6,4.9-0.8,6.9C285.7,498,287.5,494.8,283.9,493.2z"/>
		<path stroke="#000000" stroke-width="2" stroke-miterlimit="10" d="M629.3,406.1c-6.8-9.4-13.5-18.9-22.1-26.7
			c2.4,6.7,8.2,10.8,12.3,16.2C622.3,399.4,624.6,404,629.3,406.1z"/>
		<path stroke="#000000" stroke-width="2" stroke-miterlimit="10" d="M549.5,492.1c-0.2,2.6-0.3,5.2-0.5,8.4
			c-2.8-3.2,0.1-6.9-2.7-9.8c-2.2,4.2-1.1,8.3-1.3,12.2c0,0.9,1.1,2.3,1.7,1.3c1-1.7,4.2,0,4-2.9
			C550.4,498.2,551.1,494.9,549.5,492.1z"/>
		<path stroke="#000000" stroke-width="2" stroke-miterlimit="10" d="M290.2,581.8c-2.6,2.3-1.1,4.5-2.2,6.3
			c-1.9-1.2,0.5-4.1-2.5-5.2c-1.5,3.2-0.8,6.6-0.6,9.8c0.1,2.2,2.4,1.4,3.7,1.7c1.3,0.3,2.2-0.6,2.2-1.9
			C290.8,589.2,291.3,585.8,290.2,581.8z"/>
		<path stroke="#000000" stroke-width="2" stroke-miterlimit="10" d="M192.9,460.5c3.4-0.9,6.4-1.6,9.4-2.5c0.6-0.2,1.4-1.3,1.3-1.6
			c-2.5-5.4,0.2-11.3-2.7-16.7c0,3.4-0.2,6.9,0.1,10.3c0.4,4.1-0.7,6.7-5.2,7.4C194.7,457.6,193.1,457.8,192.9,460.5z"/>
		<path stroke="#000000" stroke-width="2" stroke-miterlimit="10" d="M568.4,620.4c6.4-0.4,12.8-2.7,18.9,1.6
			C583.5,615.2,575.9,614.6,568.4,620.4z"/>
		<path stroke="#000000" stroke-width="2" stroke-miterlimit="10" d="M551.6,582.2c-2.9-2-1.4,5.4-4.7,0.6c-0.4-0.5-1.1,0.6-1.1,1.4
			c0,1.3-0.4,2.9,0.1,4c0.8,1.9-2.8,4.6,0.3,5c1.3,0.1,6.1-1.6,5.4-6C551.4,585.3,551.6,583.3,551.6,582.2z"/>
		<path stroke="#000000" stroke-width="2" stroke-miterlimit="10" d="M230.1,504.8c8.5-4,17.1-7.9,25.6-11.9
			c-9.6,1.7-17.6,6.9-26.5,10.2C229.5,503.7,229.8,504.2,230.1,504.8z"/>
		<path stroke="#000000" stroke-width="2" stroke-miterlimit="10" d="M423.4,432c-2.9,0.5-7.5-1.2-7.3,4.7c0,0.8-0.2,1.6,0.8,1.8
			c0.7,0.1,2-0.2,2.1-0.3c0.4-5.7,4.7-3,7.5-3.7c1.5-0.4,4,1.7,4.2-0.9c0.2-2.6-2.6-1.2-4.1-1.5C425.7,431.8,424.7,432,423.4,432z"
			/>
		<path stroke="#000000" stroke-width="2" stroke-miterlimit="10" d="M406.4,432c-0.8,0-1.5-0.1-2.3,0c-1.2,0.1-3.2-0.5-3.1,1.5
			c0.2,2.2,2.1,0.7,3.2,0.9c3.2,0.6,8.1-1.9,8,4.5c0,0.3,0.9,0.8,1.3,0.8c0.9,0,1-0.8,1.1-1.6C415.5,433.6,413.3,431.9,406.4,432z"
			/>
		<path stroke="#000000" stroke-width="2" stroke-miterlimit="10" d="M418.6,440.1c-3.1,1.8-0.5,4.6-2.2,6.6
			c-2.2-0.2-0.3-3.3-2.5-3.6c-2.3,1-1,3.3-1.7,5c-0.4,0.9-1.2,2.7,0.8,3.2c1.4,0.3,2.2-0.5,2.2-1.9c0-0.9,0.3-1.9,1.1-1
			c3.1,3.2,2.9,0.3,2.9-1.5C419.4,444.7,419.9,442.4,418.6,440.1z"/>
		<path stroke="#000000" stroke-width="2" stroke-miterlimit="10" d="M547.7,481c-0.8-2.2,0.8-4.8-2-6.3c-1.6,2.7-0.5,5.9-1.2,8.7
			c-0.3,1.3,1.1,3.1,2.1,2c1.2-1.4,5,2.4,4-2.3c-0.4-2-0.1-4.2-0.1-6.5C548.3,477.5,550,479.9,547.7,481z"/>
		<path stroke="#000000" stroke-width="2" stroke-miterlimit="10" d="M767.5,607c6.4,1.1,10.9-1.1,16.2-2
			C778.2,602,775.6,602.3,767.5,607z"/>
		<path stroke="#000000" stroke-width="2" stroke-miterlimit="10" d="M268,438.3c3,1,6.1,1.8,8.9,3.2c1.5,0.8,2.7,1.2,4,0.2
			c0.3-0.2,0.4-1.1,0.2-1.5c-0.9-1.6-2.3-0.7-3.6-0.7c-0.8,0-1.5-0.1-2.2-0.1c-0.7-1.9,1.9-2.3,1.5-4
			C273.2,433.9,271,437.3,268,438.3z"/>
		<path stroke="#000000" stroke-width="2" stroke-miterlimit="10" d="M679,503.1c3.7-4.8,2.1-9.1,2.4-13.1c0.1-1.1-0.6-2-1.6-1.8
			c-0.9,0.1-1.7,1-1.7,2C677.9,494.1,677.7,498,679,503.1z"/>
		<path stroke="#000000" stroke-width="2" stroke-miterlimit="10" d="M504,432.7c-4.1-1.6-8.5-0.3-12.8-0.8
			c-0.5-0.1-1.5,0.7-1.6,1.2c-0.2,1.3,0.9,1.5,1.8,1.5c4.2,0.1,8.3,0,12.5,0C504,434.1,504,433.4,504,432.7z"/>
		<path stroke="#000000" stroke-width="2" stroke-miterlimit="10" d="M342.1,433.6c-5.1-2.2-10.1-1.6-15.2-0.4
			C331.9,435.1,337,434.2,342.1,433.6z"/>
		<path stroke="#000000" stroke-width="2" stroke-miterlimit="10" d="M610.1,390.6c-2.5-3.3-5.8-2.5-8.7-2.8
			c-1.5-0.2-2.5,1.2-2.5,2.7c-0.1,2,1.5,1.8,2.8,1.9C604.5,392.5,607,392,610.1,390.6z"/>
		<path stroke="#000000" stroke-width="2" stroke-miterlimit="10" d="M435.3,433c4.8,2.3,9.6,1.3,14.6,0.4
			C445.1,431.4,440.2,432.1,435.3,433z"/>
		<path stroke="#000000" stroke-width="2" stroke-miterlimit="10" d="M382.7,433.9c5,1.6,9.7,0.1,14.9,0.7
			C394.3,431.3,387.2,431.1,382.7,433.9z"/>
		<path stroke="#000000" stroke-width="2" stroke-miterlimit="10" d="M679.5,608.5c0-3.8,0-7.7,0-11.5
			C676.5,600.9,676.6,604.8,679.5,608.5z"/>
		<path stroke="#000000" stroke-width="2" stroke-miterlimit="10" d="M484.1,432.8c-4.8-1.6-9.5-0.4-14.3-0.9
			C472.4,434.9,479.8,435.3,484.1,432.8z"/>
		<path stroke="#000000" stroke-width="2" stroke-miterlimit="10" d="M678.7,579.2c2.6-4,1.2-7.9,1.6-11.5c0.1-0.8-0.5-1.5-1.4-1.3
			c-0.5,0.1-1.2,0.6-1.2,1C677,571.2,676.3,575,678.7,579.2z"/>
		<path stroke="#000000" stroke-width="2" stroke-miterlimit="10" d="M548,516.5c-0.1-0.7-0.2-1.5-0.2-2.2c-0.1-1.5,0.9-4.1-1.6-3.8
			c-2.4,0.3-0.2,2.4-0.5,3.7c-0.3,1.8-0.9,3.7-1,5.5c-0.1,2.1,0,4.7,3.3,2.2C548,520.1,548,518.3,548,516.5z"/>
		<path stroke="#000000" stroke-width="2" stroke-miterlimit="10" d="M732.6,612c5.7,2.2,9.8-0.8,14-0.4c0.3,0,1.1-0.8,1.1-1.1
			c-0.1-1.1-1-1.6-2.1-1.4C741.7,609.8,737.6,609.6,732.6,612z"/>
		<path stroke="#000000" stroke-width="2" stroke-miterlimit="10" d="M460.2,434.2c0.7,0.1,1.5,0.3,2.2,0.2c1.3-0.2,3.7,0.8,3.7-1.2
			c0-2.3-2.4-1.1-3.7-1.2c-1.7-0.1-3.5-0.3-5.2,0.1c-1.4,0.3-4.1-1.8-4.1,1.1c0,2.2,2.6,1.1,4.2,1.2c0.9,0,1.8,0.2,2.7,0.3
			C460.1,434.6,460.1,434.4,460.2,434.2z"/>
		<path stroke="#000000" stroke-width="2" stroke-miterlimit="10" d="M306,434.7c5.2,0,8.5,0,11.9,0c1.1,0,2.5,0.1,2.5-1.5
			c0-1-1.1-1.5-2.2-1.3C314.7,432.8,310.4,430.4,306,434.7z"/>
		<path stroke="#000000" stroke-width="2" stroke-miterlimit="10" d="M174.7,615c-5.9-8-6-8.9-1-16.1c-2.8,1.3-4.3-0.2-6-1.3
			c0,0,0.1-0.1,0.1-0.1c-0.5,3.5,2.6,7.2-0.2,10.7c0,0,0.1-0.2,0.1-0.2c1.2,2,2.3,4,3.5,5.9l-0.2-0.2c1.2,0.3,2.1,1.8,3.6,1.2
			L174.7,615z"/>
		<path stroke="#000000" stroke-width="2" stroke-miterlimit="10" d="M837.2,537.2c4.1-4.3,2.3-8.1,2.7-11.5
			c0.1-0.7-0.4-1.5-1.3-1.4c-0.9,0.1-1.3,0.8-1.3,1.6C837.2,529.2,837.2,532.5,837.2,537.2z"/>
		<path stroke="#000000" stroke-width="2" stroke-miterlimit="10" d="M212.4,604.6c3.8,3.8,9,2.5,12.9,4.7c0.3,0.1,1.4-0.6,1.7-1.2
			c0.5-1-0.3-1.2-1.2-1.3C221.4,606.3,217.5,603.5,212.4,604.6z"/>
		<path stroke="#000000" stroke-width="2" stroke-miterlimit="10" d="M641.7,463.2c-8,0-15.9,0-23.9,0
			C625.8,464.1,633.7,465.2,641.7,463.2z"/>
		<path stroke="#000000" stroke-width="2" stroke-miterlimit="10" d="M532.2,365.4c6.7,0.5,13.5,1,20.2,1.5
			C545.7,364.7,539.1,362.7,532.2,365.4C532.2,365.4,532.2,365.4,532.2,365.4z"/>
		<path stroke="#000000" stroke-width="2" stroke-miterlimit="10" d="M234.5,611.3c4.2,1.6,8,4.8,14.3,3.3
			C243.5,611.7,239.3,610.5,234.5,611.3z"/>
		<path stroke="#000000" stroke-width="2" stroke-miterlimit="10" d="M378.5,433.7c-4-2.6-8.1-1.4-12.2-0.8
			C370.2,435.9,374.5,433.6,378.5,433.7z"/>
		<path stroke="#000000" stroke-width="2" stroke-miterlimit="10" d="M232.3,449.2c6.1-1.2,10.9-1.5,14.5-5.2
			C242.6,445.8,237.1,444,232.3,449.2z"/>
		<path stroke="#000000" stroke-width="2" stroke-miterlimit="10" d="M287.2,465.5c0.3,2.6-0.9,5.4,2.2,6.1c1.5,0.4,1.7-1.5,1.3-2.4
			c-1.2-2.6,1-7-2.1-7.8C286.2,460.7,288.2,464.4,287.2,465.5z"/>
		<path stroke="#000000" stroke-width="2" stroke-miterlimit="10" d="M155.4,588.9c0.2,0.2,0.4,0.3,0.6,0.4c1.3-0.1,2.6-0.2,4.9-0.3
			c-5.4-3.1-2.2-8.6-4.9-13.1C154.1,580.7,155.1,584.8,155.4,588.9z"/>
		<path stroke="#000000" stroke-width="2" stroke-miterlimit="10" d="M553.7,572.6c5.2-1.9,4.7-5.3,4.5-8.1
			c-0.3-3.3-3.6-1.2-5.4-2.6C556.2,564.9,556.2,568.1,553.7,572.6z"/>
		<path stroke="#000000" stroke-width="2" stroke-miterlimit="10" d="M316.4,490.1c-5.6-4-11.2-8-18.4-8.6
			C304.2,484.3,310.3,487.2,316.4,490.1z"/>
		<path stroke="#000000" stroke-width="2" stroke-miterlimit="10" d="M417,370.2c0.1,0.5,0.5,2.8,1.7,1.9c2-1.4,6,0.5,6.1-2.7
			c0.1-2.7-3.3-1.9-5.3-2.4C417.6,366.6,416.8,367.6,417,370.2z"/>
		<path stroke="#000000" stroke-width="2" stroke-miterlimit="10" d="M491.3,375.2c-1.1,0.5-3.8-1.1-3.3,1.4
			c0.7,3.4,4.6,1.5,6.7,2.8c0.8,0.5,2.3-0.2,2-1.8C496.1,374.2,493.4,375.4,491.3,375.2z"/>
		<path stroke="#000000" stroke-width="2" stroke-miterlimit="10" d="M235.1,453.7c5.3,4,11.6,5.6,17.7,7.8
			c-5.8-2.9-11-7.2-17.8-7.7C235,453.9,235.1,453.7,235.1,453.7z"/>
		<path stroke="#000000" stroke-width="2" stroke-miterlimit="10" d="M417.8,475c-0.2,3.4-0.5,6.8-0.6,10.2c0,0.9,0.3,2.1,1.6,1.7
			c0.6-0.2,1.6-1.3,1.5-1.5C418.8,482,420.9,478.1,417.8,475z"/>
		<path stroke="#000000" stroke-width="2" stroke-miterlimit="10" d="M416.7,612.8c0-4.5,0-8.9,0-13.4c-0.6,0-1.1,0-1.7,0
			c-0.9,4.4-0.6,8.9,0,13.4C415.7,612.7,416.2,612.8,416.7,612.8z"/>
		<path stroke="#000000" stroke-width="2" stroke-miterlimit="10" d="M809,597.4c-0.3,2.7,1.5,2.5,3.3,2.5c2.1,0,3.9-1.7,6.1-0.9
			c1,0.3,1.9-0.4,2-1.5c0.1-1.4-1.1-1.3-2-1.3c-3.3-0.3-6.4,1-9.6,1.5C808.8,597.6,809,597.4,809,597.4z"/>
		<path stroke="#000000" stroke-width="2" stroke-miterlimit="10" d="M747.9,444.2c-3.9-1.5-7.9-2.4-12.3-2.1
			C739.4,445.3,741.7,445.8,747.9,444.2z"/>
		<path stroke="#000000" stroke-width="2" stroke-miterlimit="10" d="M788.7,602.6c4.7,0.4,9.5,0.3,13.8-2.4
			C797.7,599.3,793.2,600.7,788.7,602.6z"/>
		<path stroke="#000000" stroke-width="2" stroke-miterlimit="10" d="M414.4,472.4c-1.4,4.3-0.2,7.5-1.7,10.3
			c-0.5,0.9-0.2,2.4,1.4,2.5c1.1,0.1,1.8-0.6,1.8-1.7C415.7,480.3,416.6,476.9,414.4,472.4z"/>
		<path stroke="#000000" stroke-width="2" stroke-miterlimit="10" d="M517.9,624.2c-1.8-1.2-2.9-0.6-3.9-0.4c-2.4,0.4-5.2-1.2-7.3,1
			c-0.2,0.2-0.1,1,0,1c2.9,0.9,5.8,0.5,8.8,0.2C516.1,625.9,516.8,624.9,517.9,624.2z"/>
		<path stroke="#000000" stroke-width="2" stroke-miterlimit="10" d="M417.2,515.9c0,0,0-0.2,0-0.2c0.3,1.6,0.5,3.2,0.9,5.2
			c3.6-2.8,1.8-6.2,2-9.2c0-0.3-0.7-0.9-1.1-1c-0.9-0.2-1.3,0.4-1.4,1.3C417.4,513.3,417.3,514.6,417.2,515.9z"/>
		<path stroke="#000000" stroke-width="2" stroke-miterlimit="10" d="M548,516.5c0,1.8,0,3.6,0,5.4c1.1,0.6,2.8,1.8,3-0.3
			c0.4-3.6,0.1-7.3,0.1-12.2C548.2,512.3,550.6,515.2,548,516.5z"/>
		<path stroke="#000000" stroke-width="2" stroke-miterlimit="10" d="M683.3,485.5c-1,5.1-1,9.3,0,14.3
			C685.4,495.3,685.4,490.5,683.3,485.5z"/>
		<path stroke="#000000" stroke-width="2" stroke-miterlimit="10" d="M415.6,468.4c-0.2-3.8-0.3-6.6-0.5-9.4c0-0.8,0-1.6-1-1.6
			c-0.5,0-1.4,0.5-1.4,0.6C413.3,461.2,410.9,465.1,415.6,468.4z"/>
		<path stroke="#000000" stroke-width="2" stroke-miterlimit="10" d="M418.1,492.5c-0.4,3.6-0.6,6.1-0.9,8.6c-0.1,1,0.1,2,1.2,2
			c0.6,0,1.7-0.7,1.7-1.1C420,499.1,421.4,495.8,418.1,492.5z"/>
		<path stroke="#000000" stroke-width="2" stroke-miterlimit="10" d="M252.7,442.3c4.4,1.6,7.8,0.1,12.1-3.4
			C259.5,439.2,256,440.2,252.7,442.3z"/>
		<path stroke="#000000" stroke-width="2" stroke-miterlimit="10" d="M153.8,502.1c1.6-4,1.6-7.9,0.1-13.5
			C151.5,494.2,153,498.2,153.8,502.1z"/>
		<path stroke="#000000" stroke-width="2" stroke-miterlimit="10" d="M270.4,485.8c4.4-1.1,8.8-2.4,13-6.4
			C277.7,480.3,274.2,483.3,270.4,485.8z"/>
		<path stroke="#000000" stroke-width="2" stroke-miterlimit="10" d="M545.8,458.5c-0.9,3.6-2.8,7.3-0.2,11.7
			C548.4,465.8,546.5,462.1,545.8,458.5z"/>
		<path stroke="#000000" stroke-width="2" stroke-miterlimit="10" d="M419.5,598.9c-1.5,4.1-1.5,8.1-0.1,12.2
			C421.3,607.1,421,603,419.5,598.9z"/>
		<path stroke="#000000" stroke-width="2" stroke-miterlimit="10" d="M173.4,592.1c-3.6-1.2-7.2-2.5-10.8-3.7
			c2.7,3.7,6.2,5.1,10.3,5.2C173.1,593.1,173.3,592.6,173.4,592.1z"/>
		<path stroke="#000000" stroke-width="2" stroke-miterlimit="10" d="M640.7,623.6c3.9,2.1,7.8,2.3,11.8,0
			C648.6,623.6,644.7,623.6,640.7,623.6z"/>
		<path stroke="#000000" stroke-width="2" stroke-miterlimit="10" d="M565.9,386.6c1.5-0.6,4,0.9,3.9-1.3c-0.1-2.5-2.8-1.9-4.6-2
			c-1.4,0-3.7-0.4-3.4,1.7C562.1,387.6,564.7,385.8,565.9,386.6z"/>
		<path stroke="#000000" stroke-width="2" stroke-miterlimit="10" d="M155.4,534.5c0.9-4.6,0.5-9-0.7-13.4
			C154,525.6,153,530.1,155.4,534.5z"/>
		<path stroke="#000000" stroke-width="2" stroke-miterlimit="10" d="M717.5,439.5c3.9,1.8,7.9,2.8,12.9,2.6
			C726.2,438.5,721.7,439.9,717.5,439.5z"/>
		<path stroke="#000000" stroke-width="2" stroke-miterlimit="10" d="M323.9,527.4c5.4,0,10.8,0,16.3,0c-5.4-0.5-10.9-2.8-16.3,0.1
			C323.8,527.6,323.9,527.4,323.9,527.4z"/>
		<path stroke="#000000" stroke-width="2" stroke-miterlimit="10" d="M431,624.1c1.1,1.6,1.2,1.8,1.3,1.8c3.2,0.6,6.4,0.8,9.4-0.4
			c0.1,0-0.1-1.4-0.2-1.4C438.4,624.1,435.1,624.1,431,624.1z"/>
		<path stroke="#000000" stroke-width="2" stroke-miterlimit="10" d="M880.9,546.5c2.3,5.6,5.9,10.3,10.5,14.2
			C888.8,555.3,885.2,550.6,880.9,546.5z"/>
		<path stroke="#000000" stroke-width="2" stroke-miterlimit="10" d="M154.5,540.6c0,4.2,0,8.4,0,12.7c0.4,0,0.7,0,1.1-0.1
			c0-4.2,0-8.4,0-12.6C155.3,540.6,154.9,540.6,154.5,540.6z"/>
		<path stroke="#000000" stroke-width="2" stroke-miterlimit="10" d="M680.2,553.2c-1.3,0.8-1.8,1-1.8,1.2c-0.2,3-1.8,6.1,0,9.1
			c0.1,0.2,0.9,0.2,1,0C681.3,560.4,680,557.1,680.2,553.2z"/>
		<path stroke="#000000" stroke-width="2" stroke-miterlimit="10" d="M416,493.4c-3.4,2.1-1.5,5.1-3.2,7.5c-0.5,0.7,0.5,2.4,1.7,2.5
			c1.7,0.3,1.4-1.3,1.5-2.4C416,498.5,416,495.9,416,493.4z"/>
		<path stroke="#000000" stroke-width="2" stroke-miterlimit="10" d="M683.7,517.9c1.3-3.6,2-7.1-0.6-11.9
			C682.5,510.9,682.1,514.5,683.7,517.9z"/>
		<path stroke="#000000" stroke-width="2" stroke-miterlimit="10" d="M193.6,599c4.6,2.5,8.1,3.9,13.6,3.7
			C202.6,599.7,199,598.7,193.6,599z"/>
		<path stroke="#000000" stroke-width="2" stroke-miterlimit="10" d="M683,597.6c-2.2,3.5-1.3,7.1-1,10.6
			C685.1,604.9,683,601.1,683,597.6z"/>
		<path stroke="#000000" stroke-width="2" stroke-miterlimit="10" d="M287,610.6c0-3.8,0.8-7.6-1.2-11.2c-0.3,3.8-3.3,7.8,1.4,11
			C287.2,610.4,287,610.6,287,610.6z"/>
		<path stroke="#000000" stroke-width="2" stroke-miterlimit="10" d="M849.6,628.8c1.9-6.5-3.7-8.3-7-11.7c-0.2,1.9,1.1,3.3,2.3,4.3
			c3.5,2.8,2.4,5.6,0.5,8.6C847,630.7,848.4,630,849.6,628.8z"/>
		<path stroke="#000000" stroke-width="2" stroke-miterlimit="10" d="M189.6,636c0.5,1.3,1.1,2.8,2.8,2.3c1.8-0.5,1.2-2.2,0.8-3.4
			c-1-2.7-2.3-5.3-3.4-8c-0.5-1.1-1.2-2.2-2.6-1.8c-1.8,0.6-1.2,2.1-0.8,3.4c0.7,2.2,1.6,4.3,2.3,6.5
			C189,635.4,189.3,635.7,189.6,636z"/>
		<path stroke="#000000" stroke-width="2" stroke-miterlimit="10" d="M411.9,644.8c-1.9,0.3-4.1,1.7-3.8,3.5
			c0.3,1.8,1.3,4.6,3.9,4.6c2.3,0,3.8-1.6,3.9-4C416,646.4,414.6,645.1,411.9,644.8z"/>
		<path stroke="#000000" stroke-width="2" stroke-miterlimit="10" d="M360,644c-3.9-2-4.6-4.3-0.8-7.1c-2.3-0.7-4.1,1.9-7,0.4
			c1.6,3.7,4.5,5.9,4.8,9.9c0.3,4,0.1,6.6-4,8.3c2.7,2.6,7.5-2.3,9.7,2.4C359.4,653.7,358,649.2,360,644z"/>
		<path stroke="#000000" stroke-width="2" stroke-miterlimit="10" d="M342.1,648.2c-0.3,2.7,1.7,4.4,3.5,4.4c2.3,0.1,3.9-2,4-4.6
			c0.1-2.9-2-3.3-4.2-3.2C343.3,645,341.6,645.6,342.1,648.2z"/>
		<path stroke="#000000" stroke-width="2" stroke-miterlimit="10" d="M547.4,653.6c1.7-0.8,3.4-2.1,3.1-4.5
			c-0.3-1.9-1.3-3.4-3.8-3.1c-2.2,0.3-3.8,1.2-3.5,3.5C543.3,651.6,544.4,653.4,547.4,653.6z"/>
		<path stroke="#000000" stroke-width="2" stroke-miterlimit="10" d="M275.7,653.1c2.7-0.5,4.2-1.9,4.5-4.1c0.3-2.3-0.8-4-3.4-4.2
			c-2.4-0.2-4.2,0.6-4.5,3.1C271.9,650.8,274.2,651.7,275.7,653.1z"/>
		<path stroke="#000000" stroke-width="2" stroke-miterlimit="10" d="M291.8,645c-2.9,0.6-2.4-3.3-4.7-3.6c0.4,2.6,0.9,5.2,1.1,7.8
			c0.1,1-0.7,2.9-1.1,3c-7.2,0.6,0,3.9-1.2,5.5C290.3,654.6,289.1,648.9,291.8,645z"/>
		<path stroke="#000000" stroke-width="2" stroke-miterlimit="10" d="M747.4,649.9c-0.3,2.6,0.7,4.2,3.3,4.2c2.2,0,3.5-1.7,3.7-3.7
			c0.2-3-2.4-3.8-4.5-4.1C747.3,646,747.6,648.3,747.4,649.9z"/>
		<path stroke="#000000" stroke-width="2" stroke-miterlimit="10" d="M615.6,654.1c2.4-0.2,2.9-2.1,3.1-4.3c0.2-2.5-1-3.5-3.2-3.7
			c-2.1-0.1-3.8,0.4-3.8,3C611.8,651.6,612.6,653.5,615.6,654.1z"/>
		<path stroke="#000000" stroke-width="2" stroke-miterlimit="10" d="M682.3,654.2c2.8-0.3,4.2-2.1,4.5-4.4c0.3-2.5-2.4-3.1-3.9-3.3
			c-1.5-0.2-3.8,0.3-3.8,3C679.1,652,680.4,653.3,682.3,654.2z"/>
		<path stroke="#000000" stroke-width="2" stroke-miterlimit="10" d="M476.2,648.9c0.3,2.2,1.2,4.2,3.6,4.5c1.9,0.2,3.6-0.8,3.6-3.3
			c0-2.5-0.4-4.6-3.5-4.8C477.4,645.3,476.7,647,476.2,648.9z"/>
		<path stroke="#000000" stroke-width="2" stroke-miterlimit="10" d="M785.8,478.1c-10.9-3.8-22.3-4.9-33.7-5.9
			C763.1,475.7,774.5,476.8,785.8,478.1z"/>
	</g>
</g>
<g id="text">
</g>
<g id="scratch">
</g>
<g id="guides" display="none">
</g>
</svg>
