<?xml version="1.0" encoding="utf-8"?>
<!-- Generator: Adobe Illustrator 26.0.2, SVG Export Plug-In . SVG Version: 6.00 Build 0)  -->
<svg version="1.2" baseProfile="tiny" xmlns="http://www.w3.org/2000/svg" xmlns:xlink="http://www.w3.org/1999/xlink" x="0px"
	 y="0px" viewBox="0 0 1000 1000" overflow="visible" xml:space="preserve">
<g id="bg">
</g>
<g id="counters">
	<g id="M3_00000105412680983830360760000012675489283245120906_">
		<path d="M873.7,414.4c7.1,6.9,14.2,13.8,21.3,20.7c2.6,2.5,3.1,5.6,3.1,9.1c-0.3,31.8,2.5,63.5,1.6,95.3
			c-0.5,16.6-2,33.1-1.2,49.7c0.2,3.6-1.2,6.3-3.7,8.8c-8.8,8.7-17.6,17.4-26,26.5c-2.7,2.9-5.5,4.1-9.4,4
			c-12.7-0.1-25.4-0.3-38.1,0c-6,0.2-7.7-2.4-7.6-7.9c0.2-11.6,0.2-23.2,0-34.8c0-2.5,1.9-6.7-3.4-6.7c-4.7,0-3.2,3.7-3.2,6.1
			c-0.1,3.5-0.7,6.7-4.1,8.4c-4.2,2.1-5.1-2.9-9.3-5c1,7.6,1,14.5,7.6,17.9c4.2,2.2,5.6,4.9,5.6,9c0,3.9,0.1,7.7-0.1,11.6
			c-0.1,1.6-0.4,4.3-1.2,4.5c-8.6,2.6-13.8,12-24,11.6c-7.7-0.3-15.6-0.7-23.2,0.2c-20.1,2.5-40-0.8-60.1-0.1
			c-20.4,0.8-40.9-0.4-61.3,0.3c-48.3,1.8-96.6,0.7-145,0.4c-6.6,0-11.3,1.6-13.8,7.7c-3.1,7.2-8.7,8.4-16,8.4
			c-52.7-0.2-105.5-0.1-158.2,0.2c-56.6,0.3-113.1,0.6-169.7,1.3c-8.1,0.1-11.9-1.8-10.7-10.3c0.3-2.4,0.5-6.4-0.7-7.1
			c-7.3-4.3-4-10.6-3.9-16.4c0.2-18,0.4-35.9,0-53.9c-0.3-11.9,6-23,4.1-35.1c-0.6-4.1-0.3-7.7-5.9-7.6c-2.4,0.1-4.4-1.5-5.2-3.6
			c-1.4-3.6-3.6-5.1-7.4-5c-4.7,0.1-5.3-4.3-3.4-6.1c4.2-3.8,3.6-9,5.8-13.2c0.9-1.7,1.7-4.6,2.9-4.8c6.8-1,4.8-10.4,11.9-11.8
			c2.4-0.5,0.3-6.2-0.8-10.5c-2.9,3.2-0.3,6.9-3,9c-2.8-2.1-2.6-5.8-1.8-8.1c4.6-12.6,1.9-25.5,2.4-38.3c0.5-11,1.7-22.5-0.8-32.9
			c-1.6-6.9,1.2-8.9,4-13.1c1.8-2.8,0.7-7.5,0.9-11.3c0.1-3.6,1.2-5.2,5.4-5.2c28.7,0,57.4,0.2,86.1,0c25.8-0.2,51.7-0.3,77.5-1.3
			c11.7-0.4,23.7,0.4,35.5,0.9c5.8,0.2,7.8-1.9,7.5-7.7c-0.4-8-0.1-16-0.1-24c0-2.8,0.1-6,3.9-6.1c3.7-0.1,4,3,4,6
			c0,8,0.4,16-0.1,24c-0.3,5.6,1.8,6.9,7,6.8c36.2-0.2,72.4,0.2,108.6-0.4c9.2-0.1,15.9,1.5,19.8,10.6c1.8,4.3,5.1,6.2,10.5,6.2
			c67.1-0.4,134.3-0.5,201.4-0.7c13.8-0.1,27.8,1,41.3-1.1c16-2.5,31.5,2.3,47.3,0.3c9.8-1.3,16.6,6.5,25,9.3
			c3.9,1.3,1.6,6.5,1.7,9.9c0.1,6.4,2.9,13.3-6.5,17.4c-3.3,1.4-3.9,9.2-5.6,14.1c-0.2,0.5,0.6,1.9,0.9,1.9c1-0.1,2.5-0.3,2.8-0.9
			c1.3-2.3,2.5-4.8,5.6-3.2c2.6,1.4,3.5,4.1,3.5,7c0,0.8,0.1,1.7,0.2,2.5c0.2,2.6-0.6,5.9,3.7,6c4.6,0.1,3.5-3.4,3.5-5.9
			c0.1-11.3,0.6-22.7-0.2-33.9c-0.6-8.2,2.5-10.7,10.2-10.5c12.1,0.4,24.2,0.5,36.4,0.4c7.7-0.1,10.4,6.2,14.6,10.6
			c-3,0.7-4.5-1.6-6-3.4c-2.1-2.5-4.6-3.9-7.9-2.9c-0.2-0.5-0.4-1.3-0.7-1.4c-13.5-1.5-27-0.5-40.4-0.6c-3.6,0-3.5,2.8-3.5,5.3
			c0.1,12.4,0.1,24.8,0.3,37.2c0,2.2-1.1,5.6,2.8,5.6c4.5,0,3.2-3.7,3.2-6.1c0-10.2,0.2-20.4-0.4-30.5c-0.2-4.2,1-5.4,4.9-5.3
			c8,0.2,16,0,24,0.2c3.5,0.1,6.4-0.3,8.6-3.3c1.4,5.6,9.1,6.7,9.4,13.1c0,10.3,0,20.6,0,31.4c5.5-2.2,7.7-9.1,14.3-8.2
			c1.5,0.2,3.5,0.6,4.3-1.4c0.9-2.2-0.8-3.7-2.1-5c-5.5-5.7-11.1-11.4-16.7-17c5.6,0.9,7.7,6.5,11.9,9.2c2.5,3.8,6.9,5.9,8.6,10.5
			c1.3,3.5,4.4-0.4,6.3,1.2c1.2-1.6,0.8-3.4-0.2-4.5c-3.6-3.6-5.7-9.4-12-9.7c0.5-3.2-2.2-4.5-3.6-6.6
			C877.3,419.7,873,418.6,873.7,414.4z M427.4,538.9c0.6,5.9-5.2,10.8-2.6,18c2.7-8.5,5.1-16.2,7.6-24c2-2.4,4.1-4.8,6.1-7.3
			c1.7,2.4-0.1,4.1-1.2,6c-2.5,4.2-7.5,9.5-5.4,13c2.1,3.6,9,1.3,13.8,1c2.8-0.1,4.8-0.6,5,3.3c0.1,2.4-1.5,6.1,2.8,6.6
			c4.9,0.6,10,0.7,14.3-2.4c1.8-1.3,1.3-4.9,0.2-4.9c-4.2,0-5.3-6.2-10.3-4.4c-4.4,1.5-5.9-1.3-6-5.3c-0.1-6.1-0.5-12.1-0.5-18.2
			c0-3.1-0.9-3.5-3.2-1.6c2.6-6.6,9-8.4,14.4-11.5c5.9-3.3,12.8-4.4,19.1-6.8c-3.1-0.1-5.9,0.6-8.8,1.1
			c-11.6,1.7-19.9,10.1-30.1,14.6c2.4-2.2,4.6-4.5,7.2-6.5c1.4-1.1,2.6-2.5,1.7-4c-1.8-3-2.9,0.5-4.4,0.9c-1,0.3-2,0.8-3,1.2
			c-0.1-1.3-0.2-2.7-0.2-4c5-5.6,14.1-6.9,16.2-15.6c0.7-2.8,1.4-5.8-0.1-8c-1.4-2.1-4.6-1.1-7-0.9c-3.8,0.5-1.9,3.9-2.7,5.9
			c-0.7,1.9,1.5,5.4-3.4,4.6c-16.4-2.6-33-0.4-49.5-1.2c-5-0.2-5.9,2.5-5.8,6.8c0.3,14.6,0.3,29.2,0.6,43.8c0,2.6-1,6.3,3,6.6
			c3.4,0.3,7.9,2.3,9.8-3.1c0.9-2.5,2.9-5.1,5.2-4.8c6.8,1.1,8-3.8,10.4-8c1.9-3.3,3.1-7.1,6.4-9.5c1.5,0.1,3,0.3,4.5,0.4
			c-3.9,7.1-10.1,13.3-10.3,22.2C425.7,543.7,424.6,539.1,427.4,538.9L427.4,538.9z M869.9,611.7c-2.3,2.2-4.8,4.4-7,6.7
			c-1.1,1.1-0.9,2.5,0.3,3.6c1.1,1,2.8,1.8,3.6,0.6c2-3.2,7.7-3.9,6.5-9.2c5.8,0.1,7.5-4.8,10.1-8.5c9.3-5.8,13.7-13.4,13.4-25.1
			c-0.6-29.8,0.4-59.6,0.2-89.3c-0.1-13.8-1.2-27.7-1.9-42c-5.8,3-7.7,8.8-14.2,11.4c4.7,1.2,9.2-1.7,9.3,5.5
			c0.6,35.8,2.4,71.6-0.1,107.5c-0.3,4.1-0.9,8.1,3.5,10.9c2,1.2,2,5.7,0.9,5.5c-7.1-1.2-7,6.6-11.5,8.4c4.4-9.7,4.4-9.7-3.9-11.6
			c0.8-7.3,0.8-7.3,7.6-4.5c-3.3-6.1-9.2-8.3-12.9-5.5c-3.8,2.8,3,4.9,4.3,7.8c0.3,0.8,0.7,1.5,1,2.2c-4.4-0.3-5.4-6.2-10.4-6.3
			c0,9.4,0,18.6,0,28.2c2.1-0.7,3.9-1.3,5.7-1.8C873,608,871.4,609.9,869.9,611.7z M538.2,465.7c0.4-2.1,1-4.2,1.1-6.3
			c0.7-9.5,3.3-19.4-6-26.7c-0.3-0.9,0.8-3.6-1-2.3c-2,1.4-2.9,4.5-3.7,7.1c-3.8,12-1.7,23.6,3.1,34.9c-3.2,3.9-7.1,5.3-12.3,5.1
			c-8.8-0.4-17.6-0.2-26.5-0.1c-2.3,0-6.2-1.6-6,3.2c0.2,4.4,3.9,3,6.3,3.1c11.6,0.1,23.1,0.2,34.7,0c3.9-0.1,8.1,1.2,11.9-1.6
			c-2.5-4-8.1-4.7-8.5-9.9c3.2,0.5,3.7,4.9,8.5,5C535,473.4,543.2,469.3,538.2,465.7z M466.4,636c0.1,1.5-4.1,3.2-1.3,3.6
			c4.9,0.7,10.4,1.9,15.5-0.9c-4.3-6-9.8-0.8-14.4-2.6c1.1-2.2,0.4-2.5-1.9-2.5c-13.7,0.1-27.4-0.1-41.1,0c-2.2,0-5.9-1.4-6.2,2
			c-0.3,3.8,3.7,4.6,6.5,4.3C437.9,638.5,452.8,642.8,466.4,636z M134.4,652.8c4.5,0.5,5.7,6.9,11.2,5.9c11.2-2,22.5-0.1,33.7-0.7
			c34.7-1.9,69.4-0.3,104.1-1.2c5.7-0.2,6.8-2.1,6.9-7.2c0.2-6.4-4.1-4.6-7.2-4.6c-27.6-0.1-55.1-0.1-82.7-0.1
			c-22.8,0-45.6,0-68.8,0c1.1,3.1,1.9,5.3,2.7,7.6c-2.1-2-4.2-3.9-6.5-6c-2.2,2.6-1.3,5.4-1.4,8c-0.1,2-0.7,4.8,2.7,4.8
			c2.6,0,6,1.2,7.8-0.9C138.3,656.3,134.8,654.8,134.4,652.8z M263.4,480.8c13.8,0.7,27.5,1.7,41.3,0.3c3.2-0.3,7,0.3,7-4.8
			c-0.1-10.2-0.2-20.4-0.2-30.6c0-3.5-1.1-4.7-4.8-4.7c-12.4,0.3-24.8,0.3-37.2,0c-4.8-0.1-6.2,1.7-6.1,6.1
			c0.3,11.3,0.2,22.6,0.3,33.9c-4.6-1.1-9.6-4.6-13.1,2.9C255.2,482.8,260.6,487.6,263.4,480.8z M135.5,382.9c0.3-2.3,2.5-5-2.6-5.3
			c-8-0.4-9.5,2.6-6.3,13.8c4-2.1,4.9-7.3,9.2-8.9c0.1,3.9-4.7,5.3-4.6,9.8c1.1,0.1,2.1,0.3,3.1,0.3c38.1-0.2,76.2-0.3,114.2-0.5
			c11.8-0.1,23.7-0.6,35.5-0.6c4.3,0,5.5-1.3,5.8-5.6c0.4-6.4-3-6.4-7.6-6.4c-45.3,0.2-90.6,0.3-135.8,0.3
			C142.4,379.9,138.9,380.8,135.5,382.9z M132,467.9c2.5-18.4,1.1-36.9,0.8-55.4c-0.1-7.9,2.3-9.5,9.7-9.5
			c59.1,0.1,118.1-0.3,177.2-0.3c5.6,0,8.3-1.7,7.6-7.7c-13.1-0.8-26.3-1-39.4,1.4c1.2-0.4,2.4-0.7,4.8-1.5
			c-6.7,0.5-12.2,0.6-17.7,0.5c-24.5-0.6-49.1-0.2-73.6,0c-12.7,0.1-25.4,0.7-38.1,0.2c-4.3-0.2-7.7,4.7-10.3,3
			c-7.3-5-14.9-1.9-22.3-2.6c-3.9-0.4-5.3,1.3-5.3,5.2c0.2,22.1,0.2,44.1,0.3,66.2c0,2.9,0.5,5.7,4.3,2.7c-2.8,1.3-2.8,4.2-4.6,6.5
			c11.9,1.4,11.9,1.4,11.8-9c-0.1-5.8,0-11.6,0-17.4c-1.3,3-0.9,6-1.4,9C135.4,462.3,137.3,466.7,132,467.9z M609.1,434.1
			c-3.2,6.3,0.7,12.4,0.7,18.6c-0.2,33.4-0.4,66.7-0.5,100.1c0,2.6-0.9,5.8,3.3,9.6c0-26,0-50.1,0-74.2c1.8,22.6,1.8,45.2,1.9,67.8
			c0,3-0.4,6.2,4.5,5.9c4.3-0.2,3.9-2.9,3.9-5.7c0-40.6-0.2-81.2,0-121.8c0-4.4-0.9-6.8-5.6-7c-5.8-0.2-4,4.1-4.1,7
			c-0.6,13.5-0.6,27.1,0.6,40.6c-0.7,0-1.5,0-2.2,0c0-15,0-30.1,0-47.3c-2.7,3.4-2.7,4.9-2.2,6.5c0.1-10.1-7.2-10.9-14.6-11.7
			c-2.4-0.3-4.9-0.9-7.2-1.7c-4.5-1.6-6.3-0.8-6.2,4.5c0.4,38.9,0.6,77.8,0.8,116.7c0.1,18.3,0.1,18,18.4,19.3
			c7.3,0.5,9-2.8,7.8-8.5c-1-5.1-0.8-10.2-0.9-15.3c-0.1-4.6-0.3-8.3-6.5-7.3c-2.4,0.4-4.5-0.5-3.8-3.7c2.5-10.1,0.5-20.2,0.9-30.4
			c0.1-2-0.6-4.3,2.3-4c2.5,0.2,1.4,2.3,1.4,3.9c0,7.7,0.1,15.4,0.3,23.2c0.1,2.3-0.9,5.8,2.7,5.7c3.6-0.2,2.2-3.8,2.2-5.9
			c0.1-22.6,0.1-45.3,0.1-67.9C607.1,445.3,607.1,439.6,609.1,434.1z M666.4,496c6.6,0,13.9,1.9,19.5-0.4c8.8-3.7,15.9-2.1,24.8-0.2
			c11.6,2.5,24.2,0.6,36.3,0.4c1.9,0,4.2,0.9,5.8-1.7c3.4-5.6,7.7-5.4,11.2-0.3c2,2.8,4.2,2.1,6.5,1.9c2.7-0.3,2.2-2.8,2.2-4.6
			c0.1-6.4-0.4-12.7,0.2-19.1c0.6-6.7-1.5-9.7-8.4-11.2c-40.9-9-81.7-18.6-122.5-27.7c-5.5-1.2-12.7-5.8-16.1-2.2
			c-3,3.1-1.1,11-1.1,16.8c0,27,0,54,0,80.9c0,2.6,0.5,8.2,3.3,5.6c7.8-7.2,13.6-4.1,20,0.9c0.2,0.1,0.5,0,0.8,0
			c6.9,0,14.1,1.3,20.6-0.2c8.5-1.9,18.6,3.7,25.7-5.5c0.9-1.1,6.3-0.8,6.9,0.3c3.7,7,10,4.2,15.2,4.4c8.6,0.3,17.1,0.2,25.7,0
			c4-0.1,8.3,1.4,11.3-4c1.2-2.2,7.6-3.7,10,1.8c1.1,2.5,2.7,2.3,4.6,1.7c2-0.7,3.9-1,3.8-4.2c-0.3-8.8-0.1-17.7-0.1-26.5
			c0-2.3-0.4-4.6-3.3-4.9c-2.1-0.2-4.3-0.6-5.4,2.4c-2.1,6-8.7,3.8-9.7,1.9c-3-6-7.7-4.1-12-4.2c-9.7-0.2-19.3-0.2-29,0
			c-3.8,0.1-7.8-1.4-10.4,4.1c-1.4,3-8.4,2.6-9.3,0.2c-2.2-5.9-6.4-4-10.1-4.3C677.8,497.7,672,498.9,666.4,496z M273.2,531.3
			c0.3,5-0.9,11.2,2.1,14.6c4,4.5,10.3-0.6,15.4,0.2c16.4,2.5,32.9,1.2,49.3,1.4c5.4,0.1,7.9-2.2,7.8-8c-0.3-14.6-0.2-29.3,0-43.9
			c0.1-6.5-1.9-10.3-9.3-9.5c-21.9,2.3-44.4-4.6-66,3.8c-8.3-4.5-17-1-25.5-1.2c-11.7-0.3-23.4,0.2-35-0.2c-5.9-0.2-7.8,1.9-7.3,7.5
			c0.5,6,1,12.2,0.2,18.2c-1,7.7,2.4,8.4,8.7,8.3c19.7-0.4,39.4-0.1,59.1-0.1c-17.4,1.9-34.8,1.8-52.2,2
			c-18.8,0.2-15.1-3.5-15.8,16.4c-0.2,4.8,1.5,6.7,6.7,6.6c14.9-0.3,29.7,0.1,44.6,0.1C272.1,547.5,272.1,547.5,273.2,531.3z
			 M666,604.5c-4.2-2-7.6-0.2-10.7,1.2c-4.1,1.8-6.7-0.9-10-1.9c-0.5-0.2-1.7,0.5-1.9,1c-2.5,5.2-6.4,4.8-10.8,2.8
			c-2.6-1.2-5.4-0.9-6,2c-0.6,2.8-2.5,7.4,2.2,8.3c5.4,1.1,5.4,4.4,5.5,8.4c0.4,15.6,0.4,15.6,15.9,15.2c2.3-0.1,4.6,0.5,6.8-1.8
			c2.2-2.3,6.7-2.2,8.4-0.7c4,3.6,8.2,2.3,12.4,2.5c22.6,0.7,45.2-1.8,67.8-0.5c10.4,0.6,21,0.4,31.4-0.1
			c11.7-0.5,19.4-8.6,19.9-19.2c0.4-8-2-14.5-5.8-21.5c-3.7-6.7-6.3-12.5-15.3-11.9c-3.9,0.2-3.9-0.4-1.3-4.1
			c2.1-2.9,3.6-6.7,1.7-9.6c-1.4-2.1-5.3-2-7.5,0c-6.3,6-15.8,3.3-22.3,8.9c-1.3,1.1-3.8,0.4-5.5-0.8c-1.7-1.2-3.4-1.3-5.4-0.8
			c-23.3,5.6-46.6,11.1-69.9,16.6c-1.4,0.3-3,0.5-3.2,2.1C662.3,602.7,665.8,600.7,666,604.5z M795.2,424.5
			c-0.7-7.9,1.9-15-2.6-22.2c-3.3-5.4-6.2-9.5-13-9.4c-6.9,0.1-14,1.1-20.7-0.1c-12.7-2.3-24.8,2.8-37.8,0.9
			c-17.3-2.5-35.2-0.7-52.9,0.2c-3.3,0.2-7.7,3.8-10.5,2c-5.5-3.5-11.2-1.7-16.7-2.5c-6.1-0.8-8.1,1.2-7.8,7.6
			c0.3,5.7,3.1,12.9-4.5,15.9c2.3,2.6,4.3,5.6,7,7.9c2.2,1.9,5.5,1.3,7.3,5.4c1.5,3.3,5.4-3.4,9.4-2c3.8,1.3,7.9,1.8,11.9,2.7
			c-1.5,3.9,0,5.3,4,5.7c25.7,2.7,49.6,16.3,76.6,12.7c6.5-0.9,12.3,7.7,20.5,5.5c1.3-0.4,1.9,1.6,2.5,2.9c1.3,2.9,4.1,2.3,6.4,1.7
			c3.2-0.8,1.7-3.2,1.8-5.3c0.2-3.6-3-5.5-3.9-8.6c15.9-3.4,20.6-9.6,20.8-27.5C794.3,419.8,792.4,422.5,795.2,424.5z M651.7,561.9
			c0-0.1,0-0.2,0-0.3c6.4,0,12.7-0.2,19,0.1c2.3,0.1,6.2-1.7,6.5,2.7c0.3,4.8-3.6,3.9-6.5,3.9c-13.5,0.1-26.9,0.2-40.4,0.1
			c-3.5,0-5,1.1-4.9,4.8c0.2,8.8,0.3,17.7,0.3,26.5c0,3.8,0.7,5.5,5.2,4.2c7.9-2.3,16.1-3.6,24.2-5.5c37-8.7,74-17.6,111-26.2
			c4.7-1.1,7.2-2.8,6.9-8.2c-0.5-7.1-0.1-14.4-0.2-21.5c0-2.3,0.8-5.4-3-5.7c-2.4-0.2-4.3-0.1-5.8,3c-2.6,5.2-8,4.4-10.4,0.5
			c-2.1-3.4-4.2-3.7-7.2-3.7c-11.9,0-23.8,0-35.6,0c-2.9,0-5.3-0.2-7.3,3.6c-2.2,4.2-8.1,3.6-10,0.2c-1.9-3.3-3.7-3.4-6.3-3.4
			c-10.8,0-21.6-0.4-32.3,0.2c-4.4,0.3-10.7-3.1-12.9,4.7c-0.3,1.2-2.8,0.6-3.5-1.6c-0.5-1.6-1-2.1-2.6-0.4
			c-2.5,2.6-3.4,2.5-4.2-0.1c-0.9-2.7-2.4-2.7-4.3-2.4c-2.2,0.3-2.1,2.1-2.3,3.8c-2.9,18.8-1.3,20.7,17.6,20.8
			C645.6,561.9,648.7,561.9,651.7,561.9z M125.7,518.1c0.1,0,0.2,0,0.4,0c0,10.5,0.1,20.9-0.1,31.4c0,3.4-0.9,6.9,4.2,7.2
			c4.2,0.2,9.4,0.5,9.9-4.8c0.5-5.5,3.1-4.9,6.9-4.8c16,0.2,31.9-0.2,47.9,0.3c6.5,0.2,8.8-1.8,8.6-8.2c-0.4-15.1-0.4-30.2-0.6-45.2
			c0-4.1-1.8-5.5-6-5.4c-14.7,0.4-29.4,0.4-44.2,0.5c-2.2,0-4.8-0.7-6.5,0.2c-4.9,2.5-5.9,1-6.4-4c-0.7-6.4-6.1-4.8-10.3-4.9
			c-5.4-0.2-3.7,3.8-3.7,6.3C125.6,497.2,125.7,507.7,125.7,518.1z M389.2,518.5c0.1,0,0.1,0,0.2,0c0-10.2,0.1-20.4,0-30.6
			c-0.1-6.7-5.2-11.2-10.6-8.2c-7.5,4.2-15.1,4.2-23,4c-5.4-0.1-6.5,2.7-6.5,7.1c0.2,17.9,0.4,35.8,0.4,53.6c0,4.6,1.5,7,6.5,7.3
			c7.8,0.5,15.6-0.1,23.3,3.5c5.8,2.8,9.6-1,9.7-7.9C389.2,537.8,389.2,528.1,389.2,518.5z M231.7,633.6c-8.8,0-17.7,0-26.5,0
			c-21.8,0.1-43.5,0.2-65.3,0.6c-4.9,0.1-6.2-1.4-6.1-6.1c0.3-9.1,0.2-18.2,0.1-27.4c0-2.1,0.8-5.7-1.4-5.9
			c-6.8-0.8-5.7-5.5-5.5-9.6c0.2-4.3-1.2-8.9,1.3-12.9c0.9-1.4,3.9-1.9,1.1-4.1c-0.6-0.5-1.7-1-2.1-0.7c-1.9,0.9-1.2,2.9-1.2,4.4
			c0,21.5,0,43.1,0.1,64.6c0,2.1-0.2,5.7,2.4,5.3c8-1.1,17.1,5,24.2-3.3c1.2-1.5,3.7-1.3,4.1,0.5c1.1,5.5,5.2,3.2,7.9,3.2
			c32.3,0,64.6,0,96.9-0.5c9.8-0.2,20,2.1,29.5-2.9c1.4-0.7,4.6-0.5,5.4,0.5c2.4,3.1,5.6,2.3,8.4,2.1c17.3-1.2,34.9,3.4,51.9-2.9
			c4.6-1.7,7,3.2,11.2,3.1c13-0.3,26-0.1,39-0.1c3.3,0,6.1-0.3,5.8-4.8c-0.3-4.7-3.7-3.2-6.1-3.2c-13.5-0.1-27.1-0.4-40.6,0.2
			c-5.6,0.3-13.6-4.1-16.2,5.7c-0.1,0.5-2,0.6-3.1,0.7c-4.7,0.1-9.4,0.1-14.1,0c-1.8,0-4.5,0.5-4.6-2.2c-0.2-5.3-3.7-4.4-7-4.4
			C291.4,633.6,261.5,633.6,231.7,633.6z M504.8,474.2C504.8,474.2,504.8,474.3,504.8,474.2c5.5,0.1,11-0.2,16.5,0.1
			c5.6,0.4,7.2-2.8,5.9-7c-3.4-11.5-3.1-22.6,0.1-34.1c1.1-3.9,0.1-7.9-6.3-7.6c-11,0.5-22,0.3-33,0.1c-4.7-0.1-6.3,1.8-6.2,6.3
			c0.2,11.8,0.2,23.7,0,35.5c-0.1,4.9,1.3,7.1,6.6,6.7C493.8,473.9,499.3,474.2,504.8,474.2z M351.3,554.2
			c-6.3-0.1-12.6-0.1-18.9,0.7c-4.6,0.6-6.1,2.2-6,6.7c0.3,10.7,0.3,21.5,0.3,32.2c0,4.1,2.1,4.1,5.4,3.8c7.4-0.5,14.8-0.8,22.3-0.7
			c20.7,0.1,22.5-1.9,20.8-22.6C373.5,553,373.5,553,351.3,554.2z M411.7,481.5c6.6-0.3,13.2-0.7,19.8-1c3.1-0.2,5.6-1.2,5.2-4.9
			c-1.2-10.4,0.8-20.8-0.4-31.2c-0.5-4.8-2-6.1-6.5-5.9c-7.7,0.3-15.4,0.1-23.1,0.1c-18.9-0.1-18.9-0.1-18.8,18.9
			C387.8,481.4,387.8,481.4,411.7,481.5z M188.8,607.1c0,0.2,0,0.3,0,0.5c-6.9,0-13.7,0-20.6,0c-7.2,0-14.3-0.2-21.5-0.2
			c-10.4,0-11.8,1.7-10.4,11.9c0.2,1.6,0,3.8,2,3.9c2.5,0.1,2.7-2.1,2.7-4.1c0.2-11.5,9.3-7.8,15.4-8.6c6.3-0.8,4.7,4.8,6.3,8.2
			c2.2,4.5,0.5,12.7,8.6,12.9c21.5,0.3,43,0.2,64.5,0.2c1.9,0,4.5,0.9,4.1-3.1c-0.5-5.2-0.5-10.5-0.3-15.7c0.1-4.7-1.9-6-6.4-5.9
			C218.5,607.3,203.6,607.1,188.8,607.1z M226.7,441.2c0,0.2,0,0.3,0,0.5c-6.3,0-12.7,0.2-19-0.1c-4.4-0.2-5.8,1.3-5.7,5.6
			c0.3,9.6,0.2,19.3,0,28.9c-0.1,3.5,1.3,4.7,4.7,5.1c12.6,1.3,25.3,1.1,37.9,0c3.7-0.3,5.4-1.6,5.3-5.6c-0.3-9.6-0.3-19.3-0.1-28.9
			c0.1-4.3-1.5-5.8-5.8-5.6C238.2,441.4,232.5,441.2,226.7,441.2z M226.7,594.7c0,0.1,0,0.2,0,0.3c5.8,0,11.6-0.3,17.4,0.1
			c4.8,0.3,6.4-1.5,6.2-6.1c-0.3-9.6-0.3-19.3-0.2-29c0-3.8-2.1-4.6-5.2-4.8c-9.4-0.8-18.7-1.1-28.1-0.5
			c-13.8,0.8-13.8,0.8-14.4,14.1c-0.1,1.9-0.3,3.9-0.3,5.8c-0.4,20.2-0.4,20.2,19.6,20.1C223.3,594.7,225,594.7,226.7,594.7z
			 M288.3,594.4c0-0.1,0-0.3,0-0.4c5.8,0,11.6-0.5,17.3,0.1c4.8,0.5,6.6-1.2,6.6-5.6c0.1-9.9,0.1-19.8,0.1-29.6
			c0-2.9-1.9-3.6-4.3-3.9c-13.5-1.6-26.9-1.8-40.4,0.1c-2.6,0.4-4.3,1.4-4,4.1c0.9,9.8-1,19.7,0.3,29.6c0.6,4.5,2.5,5.5,6.2,5.5
			C276.3,594.4,282.3,594.4,288.3,594.4z M186.8,429.3c0,0,0,0.1,0,0.1c11.9,0,23.7,0.1,35.6,0c17.2-0.1,16.9-0.1,16.5-17.7
			c-0.1-4.9-0.8-6.7-6.1-6.6c-18.5,0.4-36.9,0.8-55.4,0.1c-9.5-0.4-13.4,3-14.3,12.1c-0.3,3.3-0.6,8-6,8.7
			c-10.4,1.3-12.5,0.1-16.7-9.9c-0.7-1.7-2-4.2-3.8-1.3c-2.2,3.7-1.2,8.2-0.6,12.1c0.6,3.9,4.5,2.2,6.9,2.2
			C157.5,429.4,172.1,429.3,186.8,429.3z M159.9,442.1c-4.4-1.3-9.2,0.6-13.7-0.2c-5.5-1-6,1.6-5.9,5.8c0.1,9.6,0.2,19.2-0.1,28.8
			c-0.1,3.6,1.3,4.9,4.7,5.2c12.7,1.2,25.3,1.1,38-0.2c2.6-0.3,4.8-1.1,4.8-4.4c-0.1-10.2-0.1-20.4-0.2-30.6c0-3.4-1.2-4.7-5-4.5
			C175,442.4,167.6,442.1,159.9,442.1z M463.7,645.4c-0.9-0.5-1.4-1-1.9-1c-53.5,0.1-107.1,0.2-160.6,0.3c-5.1,0-3.8,3.4-4,6.3
			c-0.3,3.6,0.5,5.6,4.8,5.6c48-0.1,96-0.2,144,0.1C454.7,656.8,460.2,653.6,463.7,645.4z M162.6,595.1c0,0,0-0.1,0-0.1
			c6.1,0,12.1-0.2,18.2,0.1c5.3,0.3,7.6-1.8,7.5-7.1c-0.2-9.3-0.1-18.7-0.1-28c0-4.4-2.9-4.5-6.2-4.6c-11.3-0.4-22.5-0.9-33.8,0.1
			c-2.9,0.3-7.5-0.7-7.5,3.1c0,5.2-2.9,11.4,1.6,15.7c9.2,8.8,9.5,8.7,0,16.4c-1.2,1-1.9,2-1.5,3.4c0.6,1.8,2.3,1,3.5,1
			C150.5,595.2,156.6,595.1,162.6,595.1z M486,544.4c0,0,0,0.1,0,0.1c1.9,0,3.8,0,5.8,0c18.9,0.4,14.9,1.5,15.9-15.8
			c1.5-25.7-3.4-29.3-29.1-24.5c-14.6,2.7-14.8,2.9-14.7,17.7c0,1.9,0,3.9,0,5.8c0,16.8,0,16.8,17.2,16.6
			C482.7,544.4,484.4,544.4,486,544.4z M348.3,419.3c-1.7,6.2,0.4,8,6.4,8c25.1-0.3,50.2,0,75.3-0.1c2.5,0,6.3,1.4,6.9-2.5
			c0.9-6.4,1-12.8,1.2-19.3c0-0.2-2-0.7-3-0.7c-10.1-0.1-20.2,0-30.7,0c0.5,1.5,0.8,2.3,0.9,3.1c1,5,1.9,9.9-3,13.5
			c-3.2,2.4-6.9,2.3-10.2,0.8c-5.6-2.6-3.9-7.6-3.2-12.1c0.5-3.1,0.2-5.4-3.9-5.3c-10.2,0.1-20.4,0-30.6,0c-3.8,0-5.6,2-3,5.1
			c4.2,5,0.6,9.5,0.8,14.2C348.3,423.7,350.4,420.5,348.3,419.3z M844.3,454.1c1.1,0,2.2,0,3.3,0c18-0.1,17.3-0.1,17.7-18.5
			c0.5-23.2-3.7-21.3-22.6-21.2c-18.9,0.1-18.9,0-18.8,18.8C823.9,453.9,823.9,453.9,844.3,454.1z M563.4,432.6
			c-1.5,1.2-2.2,1.5-2.2,1.8c-0.1,16.6-0.2,33.1-0.3,49.7c0,1.7,0.2,3.6,2.4,3.6c5.9-0.2,4.9,4,4.9,7.4c-0.1,19.3-0.1,38.7-0.3,58
			c-0.1,4.2,1.1,6,5.6,5.9c4.2-0.1,6.9-0.7,6.6-5.9c-0.4-5.8-0.1-11.6-0.1-17.4c0-36.7-0.1-73.5-0.1-110.2c0-5-13-12-17.4-9.4
			c-0.4,0.2-0.9,0.8-0.9,1.2c-0.1,4.3,4.3,7.2,3.6,12.1c-0.4,2.7,3.4,1.8,5.4,1.9c4.7,0,5.7,1.8,5.3,6.7c-0.8,9.3-0.8,18.8-0.1,28.1
			c0.3,4.1,2.6,7.5-4,7.8c-5.3,0.2-8.8,0.1-8.4-7.1C563.9,455.7,563.4,444.6,563.4,432.6z M844.5,578.9c-5,0-9.9,0.2-14.9,0
			c-3.8-0.2-5.5,1.2-5.4,5.2c0.1,9.1,0.1,18.2-0.1,27.3c-0.1,4.2,1.6,5.8,5.9,5.7c8.8-0.2,17.7-0.1,26.5,0c6.2,0.1,9-3.3,9.2-9.1
			c0.1-2.8,0-5.5,0-8.3C865.6,578.8,865.6,578.8,844.5,578.9z M328.1,438.3c-2.1,5.4-2.8,33.3-2.2,38.5c0.4,3.4,2.6,3.8,5.2,4
			c12.7,1.3,25.3,0.2,37.9-0.2c3.6-0.1,5.3-1.8,5.2-5.8c-0.3-9.9-0.4-19.9-0.1-29.8c0.1-5.1-1.5-6.7-6.6-6.4
			c-25,1.3-19.5-3.8-19.1,20c0.2,8.2-3.8,8.5-8.3,9.8c-5.4,1.6-10.4-3.3-10.5-8.7C329.4,452.6,330.6,445.3,328.1,438.3z
			 M389.1,631.1c0.9-2.5-0.6-3-0.7-3.9c-0.7-4.6-1.8-10,3.2-12.5c3.7-1.8,8.6-2.6,12.5,0.4c3.9,2.9,3.9,7.2,2.7,11.3
			c-0.5,1.7-4.3,3.2-0.1,4.5c2.7,0.8,6.5,1.2,6.7-3.6c0.2-3.9-0.2-7.8,0.2-11.6c0.6-5.9-1.8-7.4-7.5-7.4c-22.9,0.3-45.8,0-68.8,0.2
			c-4.3,0-7.8-0.5-9.7-7.3c0,11.1,0,19.7,0,28.6c2.4-0.7,3.5-1.6,3.8-3.5c0.9-4.4,2.8-8,8-7.9c4.9,0,7.3,2.9,8.3,7.6
			c0.9,4.4,4.4,5.1,8.3,5.1C367.1,631,378.4,631.1,389.1,631.1z M464.9,391.4c-5.5-5.7-7-12.2-14.1-12.2c-34.2-0.1-68.5,0-102.7,0
			c-2.4,0-5.4-0.5-5.4,3.3c0,2.9-1,6.1,3.4,7.3c2.1,0.6,3.9,1.6,6.2,1.6C389,391.4,425.7,391.4,464.9,391.4z M506.6,586.7
			c-3.1-1.7-2.3-5.1-2.8-7.9c-0.3-1.8,0.7-3.9-2.3-4.5c-4.7-0.9-9.4-2.1-14.1-3.2c-4-0.9-5.6,0.5-5.5,4.6c0.3,7.4,0.4,14.8,0.3,22.3
			c0,3.8,1.8,4.7,5.1,4.7c6.3-0.1,12.6-0.2,19-0.1c23.9,0.3,23.9,0.3,22.3-23.3c0-0.5,0-1.1,0-1.6c0-2.6-1.1-4.3-3.9-4.3
			c-4.9,0-10.3-1.6-14.6,0.9c-3.4,1.9-0.9,6.6-1.6,10C508.4,585.5,508.2,586.5,506.6,586.7z M550.4,453c-0.1,0-0.2,0-0.4,0
			c0-9.4-0.3-18.8,0.1-28.2c0.2-4.9-1.2-7.3-6.2-8.6c-14.3-3.9-28.5-8.6-42.7-12.8c-10.3-3-20.6-6-31.1-8.6
			c-1.8-0.4-5.5-1.6-5.3,2.7c0.1,2.4,0.2,4.2,3.7,5.2c21,5.7,41.7,12.6,62.8,17.7c9.3,2.3,11.3,6.5,11,15.2
			c-0.6,15.4,0.2,30.9,0.4,46.3c0,2.7-0.6,5.7,3.9,5.6c4.5-0.1,3.7-3.1,3.7-5.7C550.4,472.3,550.4,462.7,550.4,453z M412.6,571.7
			c-0.1,0-0.3,0-0.4,0c0.2-4.1,0.3-8.3,0.7-12.4c0.5-4.9-2.6-5.8-6.1-5c-6.2,1.5-16.3-3.4-17.9,4.4c-2.2,11-0.1,22.9,0.1,34.4
			c0,2.6,1.4,3.3,3.6,3.3c3,0,6.1,0.1,9.1,0.1c11.9,0,11.9,0,11-11.6C412.3,580.5,412.6,576.1,412.6,571.7z M582.2,615.2
			c5.6-1.1,9.6-1.7,13.5-2.7c12.5-3.1,12.5-3.2,12.5-15.9c0-7.7,0-15.4,0-23.1c0-1.9,0.2-4.1-2.5-4.4c-1.6-0.2-3.8-0.4-3.7,1.9
			c0,8.4-1.7,17.1,2.3,25c0.8,1.5,3.2,2.7,1.9,4.6c-1.6,2.3-4.6,1.7-6.9,1.1c-2.7-0.6-1.5-2.8-1.4-4.8c0.4-6.9,0.8-13.8,0.7-20.6
			c-0.1-2.5,2.4-7.7-3.8-6.7c-4.7,0.8-12.2-2.8-12.4,6.4C582,588.9,582.2,601.7,582.2,615.2z M468.4,560.7
			c-9.1-4.1-19.1-3.6-27.3-1.1c-5.4,1.7-1.2,11.3-1.8,17.4c-0.2,2.2,0.2,4.4-0.1,6.6c-0.4,4.1,1.1,6.2,5.5,6.1
			c6.3-0.1,12.7-0.1,19,0c4.3,0.1,4.4-2.6,5.9-5.8c2.7-5.7-11.5-9.2-1.2-14.7c-0.5-0.3-0.9-0.6-1.4-0.8
			C459.8,565,465.3,563.2,468.4,560.7z M827.9,464.7c-6.6,2.4-9.3,5.5-9.1,12.7c0.7,26.7,0.4,53.3,0.5,80c0,3.2-0.8,7.4,4.1,7.4
			c4.7,0,4.2-3.9,4.1-7.3c-0.9-21.9,0.5-43.9,0.1-65.9C827.4,482.8,825.3,473.8,827.9,464.7z M538.5,595.5c0,4.3,0.3,6.5-5.6,8
			c-12.6,3.3-25.1,1.8-37.6,2.1c-6.6,0.1-9.2,2.1-8.3,8.6c0.2,1.6,0.4,3.3,0.1,4.9c-0.9,6,1.5,6.2,6.6,4.6
			c12-3.9,24.2-7.4,36.4-10.8C540.7,610.1,542.3,607.1,538.5,595.5z M357.7,395.4c-3.1,0-5.5,0-7.5,0c-0.1,5.9,2.6,7.5,8.1,7.4
			c22.9-0.3,45.8-0.1,68.7-0.2c2.8,0,6.5,1.2,6.6-3.9c0.1-5-3.5-4-6.4-4c-19.9-0.1-39.8-0.1-59.6,0c-1.8,0-3.9-1-5.3,1.1
			c-2.6,3.9-5.8,1.4-8.9,0.3C354.5,396,355.8,395.7,357.7,395.4z M438.7,460.6c0,3.8,0,7.7,0,11.5c0,2.4,0.5,3.9,3.4,4.6
			c14.4,3.1,18.3,0.2,18.4-14c0-3.3-0.1-6.6,0.2-9.9c0.4-4.7-0.9-6.8-6.3-6.8C439.5,445.8,439.5,445.6,438.7,460.6z M461.1,630.7
			c-10-5-17.5-10.1-22.8-17.4c-5.5-7.5-13.1-5.6-19.4-4.2c-4.4,1-1.3,7.7-2.1,11.8c-0.2,1.1,0.1,2.2-0.1,3.3
			c-0.7,4.8,0.8,6.8,6.1,6.7C434.8,630.5,446.7,630.7,461.1,630.7z M392,436.5c0-0.1,0-0.3,0-0.4c13,0,25.9,0.1,38.9-0.1
			c2.3,0,6.2,1.7,6.3-2.9c0.1-4.4-3.6-3.3-6.1-3.4c-25.4-0.1-50.8-0.3-76.2-0.2c-2.6,0-6.8-1.4-6.8,3.5c0,5.1,4.2,3.3,6.8,3.4
			C367.2,436.6,379.6,436.5,392,436.5z M138.3,599.8c37.8,2,75.5,2.4,113.2-0.5C213.7,596.8,175.9,597,138.3,599.8z M316.5,412.8
			c-3.6,11.5-3.6,11.3-15,12.6c-2.7,0.3-4.8-1-7.2-1c-16.8,0.5-17.1,0.6-22.6-14.6c-2-5.6-5.5-4.9-9.8-4.7c-4.9,0.3-3.8,3.6-3.8,6.6
			c0,3.6,0.2,7.2-0.2,10.8c-0.4,5,1.4,6.8,6.5,6.6c15.4-0.5,30.9-0.9,46.3-0.7c6.2,0.1,8.1-2.3,6.9-7.8
			C317.1,418.3,318.9,415.9,316.5,412.8z M525,423.1c0.1-0.4,0.2-0.9,0.3-1.3c-3-1.1-5.9-2.4-8.9-3.2c-10.6-3-21.3-5.4-31.7-8.8
			c-13.8-4.5-13.7-4.8-13.6,9c0,3.9-0.3,7.9,5.1,8.1c4.1,0.1,6.4-3.1,8.3-5.9c0.8-1.2-0.5-3.6,1.7-4.8c0.8,6.5,0.8,6.8,5.2,6.9
			C502.6,423.2,513.8,423.1,525,423.1z M316.9,620.3c1.2-15.6,2.6-13.1-11.3-13.2c-10.2,0-20.4-0.1-30.6,0.2
			c-17.2,0.4-17.2,0.5-16.7,17.7c0.1,2.8-1.3,6.7,3.7,6.7c3.9,0,8.6,1.7,9.9-4.5c0.8-3.8,1.7-7.5,2.8-11.2c1.1-3.5,2.9-7.5,7.1-6.6
			c7.3,1.4,15.1,1.5,21.8,0.4C313.6,608.2,315.4,612.8,316.9,620.3z M372.8,605.8c11.6,0,23.1,0.1,34.7,0c2.3,0,5.4,0.5,5.6-3.2
			c0.2-3.6-2.4-3.9-5-3.8c-23.7,0.5-47.4-1-71,1.1c-2.7,0.2-5.5,0.5-5.2,3.8c0.3,3.1,3.4,2.2,5.4,2.2
			C349.1,605.8,361,605.8,372.8,605.8z M526.4,393.3c-0.1,0.8-0.2,1.5-0.3,2.3c17.4,5.5,35.7,7,53.4,11.5c3.8,0.9,5.5-1.7,4.5-4.7
			c-1-3.2,2.3-9.1-4.9-9.1C561.5,393.4,544,393.3,526.4,393.3z M538.9,553.4c10.2,0,9.7-0.1,10.4-14.4c0.4-7.7-4-6.8-8.6-6.6
			c-14.2,0.6-13.4-2.6-13.4,11.1C527.3,553.4,527.3,553.4,538.9,553.4z M859.4,625.3c-0.7-4.7-3.3-5.6-7.1-5.5
			c-7.7,0.2-15.4-0.3-23.1,0.1c-5.7,0.3-7-2.1-6.8-7.2c0.2-9.6-0.1-19.3-0.3-28.9c-0.1-2.1,1.2-5.5-3.1-5.2
			c-3.3,0.2-2.8,2.9-2.8,4.9c0.2,12.6,0.5,25.2,0.6,37.9c0,2.8,1.1,3.9,3.9,3.9C833.6,625.3,846.5,625.3,859.4,625.3z M563.3,551.2
			c0-18.2,0.1-35.5-0.1-52.8c0-2.2,1.1-5.8-3.6-5.9c-4.9-0.1-4.3,3.1-4.3,6.1c0,13.2-0.1,26.4,0,39.6
			C555.4,543.6,557.2,548.2,563.3,551.2z M468.1,626.2c0-4.3,0-8.1,0-11.8c0-13.5-0.1-12.4-13.5-13.5c-7.6-0.6-7.9,5.2-10.5,8.2
			c-2,2.3,3.2,4.6,5.4,6.5C454.7,620,460.2,624.1,468.1,626.2z M795.5,517.3c0-13.8,0-27.5,0-41.3c0-2,0.9-5-2.4-5.2
			c-2.7-0.1-2.3,2.6-2.3,4.4c0.1,27.5,0.2,55,0.4,82.6c0,1.9-0.1,4.3,2.8,3.9c2.3-0.3,1.5-2.5,1.5-4
			C795.4,544.3,795.4,530.8,795.5,517.3z M868.9,478.6c-9.1-2.6-17.7-0.5-26.3-1.2c-3.9-0.3-5,2.2-5.1,5.8c0,3.7,1.9,4.3,5.1,4.8
			c7.7,1,15.2,0.6,22.8-0.1c0.9-0.1,4.6-2.9,2.7,1.6c-1,2.3-0.6,2.8,1.6,3c2.4,0.3,3.6-0.4,3.6-3c-0.1-4.4,0-8.8,0-13.2
			c0-1.7-0.7-4.2-2.4-3.3c-4.1,2.1-8.5-0.9-12.9,0.6C860.6,478.3,865.9,473.4,868.9,478.6z M316.3,379.2c0,0.1,0,0.2,0,0.3
			c-5.2,0-10.5,0-15.7,0c-3,0-4.8,1.4-4.3,4.5c0.4,2.5-1.5,7,2,7c11.2,0,22.5,2.4,33.5-1.4c4.3-1.5,2.8-4.9,2.7-7.6
			c-0.2-3.8-3.5-2.7-5.8-2.8C324.6,379.1,320.5,379.2,316.3,379.2z M251.2,438.4c0-0.9,0-1.7,0-2.6c-37.7,0-75.4,0-113.1,0
			c0,0.9,0,1.8,0,2.7C175.8,439.6,213.5,439.6,251.2,438.4z M123.1,512.3C123.1,512.3,123,512.3,123.1,512.3c0-4.4,0-8.8-0.1-13.2
			c-0.1-3.7-1.8-5-5.3-3.1c-6.1,3.3-9.8,7.9-10.6,15.3c-0.8,7.7,4.6,12,8.7,16.5c2.5,2.8,7.4,2.3,7.2-4
			C123,520,123.1,516.1,123.1,512.3z M883.3,533.7c0-9.4,0-18.7,0-28.1c0-2,0.7-4.8-2.7-4.9c-3.4-0.1-2.9,2.6-2.9,4.7
			c0,17.9,0.1,35.8,0.2,53.6c0,2.3-0.8,5.9,2.6,5.9c4.3,0,2.7-4,2.8-6.5C883.4,550.3,883.2,542,883.3,533.7z M545.4,641.7
			c12.4,0,24.9,0.6,37.2-0.3c4.9-0.4,1.5-6.1,2.1-9.4c0.4-2.1,1.1-5.1-3.2-4.9c-6.1,0.2-12.5,0.2-17.2,4.1
			C558.6,635.9,552.8,639.9,545.4,641.7z M786.3,459c1.4,0.8,2.1,1.6,2.8,1.6c24,0.1,48,0.2,72,0.2c1.5,0,3.8,0.5,3.9-1.8
			c0.1-2.9-2.6-2.4-4.3-2.4c-12.9-0.1-25.9-0.6-38.8,0c-6.9,0.3-13.8-1.8-21,1.9C798.1,459.9,791.8,455.5,786.3,459z M435,596.3
			c0.7-0.2,1.4-0.3,2.2-0.5c0-12,0-24.1,0-36.1c0-3.2-1.7-4.4-4.6-4.5c-2.3-0.1-4.8-0.4-5,2.8C426.7,571.5,426.5,584.8,435,596.3z
			 M788.5,572.4c6.1,6.6,13.4,2.4,20.3,3.4c17.6,2.5,35.7,0.9,53.6,1c1.6,0,3.7,0,3.4-2.3c-0.2-1.5-1.8-1.8-3.3-1.8
			c-6.3-0.1-12.7-0.2-19-0.2C825.2,572.4,806.9,572.4,788.5,572.4z M775,462.8c-0.7,1.4-1.1,1.9-1.1,2.3c0,33.1-0.1,66.1,0,99.2
			c0,1.7-0.9,4.6,2.1,4.3c2.5-0.3,1.6-3,1.5-4.8c-0.1-29.5-0.1-59-0.3-88.5C777.2,471.3,777.8,467.1,775,462.8z M801,470.6
			c-3.9,0.7-3.9,2.3-3.9,3.6c0.1,27.9,0.2,55.8,0.3,83.7c0,1.5-0.5,3.8,1.8,3.9c2.9,0.1,2.5-2.5,2.4-4.3
			c-0.2-13.2-0.6-26.3-0.7-39.5C800.9,502.3,801,486.7,801,470.6z M540.2,529.3c-0.9-1.9-1.6-3.1-2.1-4.3
			c-1.8-3.9-13.3-12.5-14.7-10.9c-3.3,3.8-0.8,8.8-1.6,13.2c-0.2,0.8,0.1,1.6,0.1,2.5c0.3,17.2,0.3,17.2-17.2,17.7
			c-1.3,0-2.6,0.3-5.8,0.6c3.3,0.3,4.7,0.5,6,0.5c4.7,0,9.4-0.3,14,0.1c5.1,0.4,6.6-1.4,6.5-6.5c-0.1-11.3,0.2-11.3,11.7-12.2
			C537.9,529.8,538.7,529.6,540.2,529.3z M614.6,587.7C614.7,587.7,614.7,587.7,614.6,587.7c0.1,4.7-0.1,9.4,0.1,14.1
			c0.1,2.1-1.3,5.4,3,5.2c3.6-0.1,5.7-1.3,5.3-5.4c-0.8-9.7,1.8-19.4-1.7-29.1c-0.7-1.8,1.4-4.1-2.5-4c-3.1,0-4.5,1.1-4.4,4.4
			C614.8,577.8,614.6,582.8,614.6,587.7z M510.4,525.4c-0.1,0-0.2,0-0.3,0c0,5.2,0.1,10.5,0,15.7c-0.1,3,0.8,4.7,4.2,4.4
			c2.9-0.2,4.5-1.3,4.4-4.5c-0.1-9.4-0.1-18.7-0.1-28.1c0-4.2-3.5-5-6.3-5.1c-3.4-0.1-1.8,3.3-1.9,5.2
			C510.2,517.1,510.4,521.2,510.4,525.4z M323.7,575.1c0.2,0,0.4,0,0.6,0c0-4.1,0-8.2,0-12.4c0-3.9-2.6-4-5.6-4.2
			c-3.5-0.2-4.2,1.4-4.1,4.4c0.2,7.4,0.3,14.9,0.2,22.3c-0.1,3.3,1.3,4.6,4.4,4.3c2.7-0.3,5.7-0.4,5.3-4.5
			C324,581.7,323.9,578.4,323.7,575.1z M781.9,471.1c-1,0-2,0-3,0c0.1,30.1-0.5,60.3,1,90.4c0.7,0,1.4,0,2.1,0
			C781.9,531.4,781.9,501.2,781.9,471.1z M804,561.7c0.9,0,1.9,0,2.8,0c0.6-30.1,1-60.2-0.1-90.3c-0.9,0-1.8,0-2.6,0
			C804,501.5,804,531.6,804,561.7z M788.2,471.2c-0.6,0-1.3,0-1.9,0c0,30.2,0,60.3,0,90.5c0.6,0,1.3,0,1.9,0
			C788.2,531.5,788.2,501.4,788.2,471.2z M190.8,575.4c0.8,3.2,0.5,6.7,0,10.3c-0.4,2.9,0.4,4.7,3.9,4.5c2.9-0.1,5.4,0.1,5.3-4.1
			c-0.2-7.4-0.1-14.8,0-22.1c0-3.3-1-5.1-4.7-5c-3.9,0-5.4,1.7-5,5.5C190.6,568,190.7,571.6,190.8,575.4z M816.8,520.4
			c0-14,0.1-27-0.1-40c0-2.2,1.8-6.3-2.8-6.2c-4.2,0.1-3.9,3.8-3.9,6.8c0,9.3,0.1,18.7,0,28C809.9,513.9,812.1,517.2,816.8,520.4z
			 M873.7,518.6c-0.1,0-0.2,0-0.2,0c0-3.8,0.3-7.7-0.1-11.5c-0.3-2.3,1.7-6.5-2.6-6.5c-2.9,0.1-4.9,3.2-5,6.4
			c-0.3,8.5-0.3,17.1-0.5,25.6c-0.1,3.5,2.3,3.9,4.9,4.2c3.1,0.3,3.6-1.7,3.6-4.1C873.7,528,873.7,523.3,873.7,518.6z M261.4,462.4
			c-0.1,0-0.1,0-0.2,0c0-3.8-0.1-7.7,0-11.5c0.2-3.5-1.8-4.2-4.6-4.2c-2.4,0-4.3,0.4-4.3,3.5c0.1,7.7,0,15.4-0.1,23.1
			c0,3.4,1.9,4,4.8,4.1c3.1,0,4.6-0.9,4.4-4.2C261.3,469.5,261.4,465.9,261.4,462.4z M385.9,462c-0.1,0-0.1,0-0.2,0
			c0-4.1,0-8.2,0-12.3c0-3-1.7-3.7-4.2-3.6c-2.2,0.1-4.5-0.2-4.5,3.2c-0.1,7.7-0.3,15.3-0.5,23c-0.1,3.1,1.5,4.3,4.6,4.4
			c3.5,0.1,5.1-1.2,4.9-4.8C385.8,468.6,385.9,465.3,385.9,462z M199.6,462.8c-0.2,0-0.5,0-0.7,0c0.2-3.8,0.3-7.6,0.7-11.4
			c0.4-3.6-1.7-4.1-4.5-4c-2.4,0.1-5-0.5-4.9,3.5c0.2,7.1,0,14.3-0.1,21.4c-0.1,3.3,0.9,4.9,4.7,5c4.2,0.1,5.2-1.8,4.9-5.5
			C199.4,468.9,199.6,465.9,199.6,462.8z M519.3,562c-3.3,0-6.6,0-9.9,0c-2.2,0-4.6-0.1-4.6,3.2c0,3.1,2,3.4,4.4,3.4
			c4.3-0.1,8.7-0.2,13,0c4.3,0.2,8.6,0.2,13,1.1c3.1,0.6,8.8,0.8,9-4.2c0.2-5.4-6-5.3-8.6-4.5C530.1,562.5,524.7,561.5,519.3,562z
			 M577.1,571.8c-1.6,8.8-0.3,17.3-0.4,25.7c0,3.2,0.5,6-4.2,6.1c-8.4,0.3-3.3,7-4.7,10.7c-1,2.6,0.8,3.9,3.8,3.2c4-1,9,0.4,8.7-6.8
			c-0.5-11.2,0-22.5-0.1-33.8C580.2,575.1,580.8,572.9,577.1,571.8z M314.1,461c-0.1,0-0.2,0-0.3,0c0,4.1,0,8.3,0,12.4
			c0,3.5,2.2,3.9,5,3.9c2.6,0,4.3-0.5,4.3-3.5c0-7.7-0.1-15.5,0-23.2c0.1-3.7-2.4-3.8-5-3.9c-3.1-0.2-4.5,1.1-4.1,4.5
			C314.4,454.4,314.1,457.8,314.1,461z M253,574.8c0.1,0,0.1,0,0.2,0c0,3.6,0.2,7.1-0.1,10.7c-0.2,3,0.3,4.6,3.8,4.6
			c3.5,0,4.9-1.3,4.9-4.8c-0.1-7.4-0.1-14.8-0.1-22.2c0-2.9-0.8-4.5-4.2-4.4c-3.5,0-5.1,1.2-5,4.7C252.6,567.2,252.8,571,253,574.8z
			 M386,574.7c0.1,0,0.1,0,0.2,0c0-3.9,0-7.7,0-11.6c0-3.3-1.3-4.9-4.9-4.8c-3.6,0.1-3.9,2.2-3.9,4.9c0.1,7.2,0.3,14.3,0.2,21.5
			c0,3,0.4,4.7,3.8,4.9c3.8,0.2,4.8-1.6,4.6-5C385.9,581.4,386,578,386,574.7z M439.3,432.7c3.5-7,7.8-6.1,12.5-2.6
			c0-4.9,0.1-9.6,0-14.2c-0.1-4.1-2.2-7.2-6.3-7.2c-4.2,0-6.1,3.3-6.1,7.3C439.2,421.3,439.3,426.5,439.3,432.7z M318.9,600.2
			c-8.6-4.5-54.8-4.2-62.1,0.9C278.2,601.6,297.8,601.7,318.9,600.2z M831.7,517.9C831.7,517.9,831.8,517.9,831.7,517.9
			c0.1,4.4,0,8.8,0.1,13.1c0,2.9-1,6.2,4.1,6c4.7-0.3,4.5-3.5,4-6.4c-1.1-7.6-1.3-15.3-1-22.9c0.1-2.1-0.5-3.7-1.8-5.2
			c-1.1-1.3-2.1-2.7-4-2c-1.6,0.6-1.4,2.2-1.4,3.5C831.7,508.6,831.7,513.2,831.7,517.9z M888.5,496.7c-0.9,0-1.8,0-2.6,0
			c0,24,0,47.9,0,71.9C889.3,544.6,888.2,520.6,888.5,496.7z M522.6,638.1c10.2-1.5,20.7-0.2,30.4-4.5c1.4-0.6,5-1.6,2.3-3.5
			c-2.1-1.5-0.3-7-5.4-5.1C540.4,628.7,530.6,631.3,522.6,638.1z M472.1,621.8c5.8,0.1,9.7-1.6,12.3-6.3c1.9-3.4,2.8-7.2-0.5-9.5
			c-2.1-1.5-2.7-5.8-7.7-3.9c-5,1.9-4,5-4.1,8.3C472,614,472.1,617.6,472.1,621.8z M810.2,522.9c0,10.7,0,21,0,31.3
			c0,3.2,2.4,4.3,4.9,4.4c3,0,2-2.8,2-4.4c0.1-7.4,0.1-14.8,0-22.2C816.9,527.7,816,523.9,810.2,522.9z M460.7,420
			c0.1,0,0.1,0,0.2,0c0-3.8,0-7.7,0-11.5c0-4.2-3.1-3.9-5.8-3.7c-1.7,0.1-5.2,0-3.9,2.4c4.3,7.8,1.8,16.1,2.7,24.2
			c0.3,2.4,1.2,3.4,3.6,3.2c2.5-0.2,3.2-1.6,3.2-3.8C460.6,427.2,460.7,423.6,460.7,420z M121,633.9c2.6-23,2.4-46.1,0-69.1
			C121,587.8,121,610.9,121,633.9z M258.7,435.2c0,1,0,1.9-0.1,2.9c19.2,0.4,38.3,1.2,57.5-0.5c0-0.8,0-1.6,0-2.4
			C297,435.2,277.8,435.2,258.7,435.2z M471.9,449.8c0.1,0,0.2,0,0.3,0c0,5.8,0,11.6,0,17.4c0,1.6-0.3,3.7,2.1,3.7
			c1.5,0,2.3-1.5,2.4-2.9c0.7-11.9,1.1-23.7-0.3-35.6c-0.2-1.3-0.7-2.9-2.4-2.8c-2.4,0.1-2.1,2.2-2.1,3.7
			C471.8,438.8,471.9,444.3,471.9,449.8z M550.4,527.8c0-10.3,0-20.6,0-30.8c0-2.3-0.3-4.5-3.5-4.4c-1.7,0-3.7,0.1-3.7,2.2
			c-0.1,6.2-1.9,12.5,1.4,18.3c1.1,1.8,3.3,3.1,1.5,5.6C542.8,523.4,547.2,525.2,550.4,527.8z M612.6,404.3c0.1-0.3,0.3-0.7,0.4-1
			c-1.1,0-2.1,0.2-3.2,0c-4.6-0.8-10.4,2.1-13.4-4.8c-0.7-1.7-5.8-4.9-8.2-0.5c-2.3,4.2-2.1,9.4,0.4,13.4c1.4,2.3,4.1-0.2,6.4-0.8
			c6.4-1.8,1.1-4,0.6-6.2C601.6,404.3,607.1,404.3,612.6,404.3z M596.8,564.4c0,0.7,0,1.4,0,2.2c23,0.8,46-0.8,69-2.2
			C642.8,564.4,619.8,564.4,596.8,564.4z M453.8,591.6C453.8,591.6,453.8,591.6,453.8,591.6c-3,0-6.1-0.2-9.1,0
			c-1.9,0.1-4.9-1.2-5.4,2c-0.5,3.6,3,3.8,5.1,4c7.1,0.5,14.2,0.6,21.3,0.7c2.4,0.1,3.4-1.3,3.3-3.6c0-2.7-1.8-3.1-3.8-3.1
			C461.5,591.6,457.7,591.6,453.8,591.6z M525.3,556.7c0-0.9,0-1.8,0-2.7c-5,0-10-0.1-15,0c-8,0.1-15.9,0.3-23.9,0.5
			c-1.9,0.1-4.2,0.3-4,3c0.2,2.6,2.5,2.5,4.4,2.6c1.9,0.1,4.3,0.5,5.6-0.5c4.4-3.3,9.2-2.4,14.1-2.2
			C512.8,557.6,519.1,558,525.3,556.7z M241.3,605c0.1-0.3,0.3-0.5,0.4-0.8c-34,0-67.9,0-101.9,0c0,0.3,0,0.5,0,0.8
			C173.6,605,207.5,605,241.3,605z M342.9,414c-2.5-0.4,2.8-5.3-3-5.3c-4.5,0-5.6,2.2-5.4,5.9c0.2,4.4,0.5,8.7,0.6,13.1
			c0,3,1.7,3.7,4.2,3.6c1.7-0.1,4.2-0.8,3.1-2.5C339.2,423.8,343.5,419.4,342.9,414z M563.5,578.4c-8.5,8.7-7.1,17.5-7.3,25.9
			c-0.1,3.3,1.4,4.2,4.4,4.2c3.7,0,2.8-2.6,2.8-4.6C563.5,596.3,563.5,588.7,563.5,578.4z M239.7,432.2c0-0.2,0-0.4,0-0.7
			c-31.7,0-63.3,0-95,0c0,0.2,0,0.4,0,0.7C176.4,432.2,208.1,432.2,239.7,432.2z M561.4,409.4c0.1-0.9,0.2-1.7,0.2-2.6
			c-19.5-3.7-38.9-7.3-58.4-11C522.2,402.6,541.9,405.5,561.4,409.4z M321.3,406.7c-3,5.2-1.5,10.7-1.3,16c0.2,6.6-2.3,8.5-8.7,8.4
			c-17.9-0.4-35.8-0.1-53.7-0.1c19.5,1.7,38.9,1.7,58.4,1.7c3.2,0,5.4-0.9,5.3-4.6C321.3,420.9,321.3,413.8,321.3,406.7z M320,627.7
			c0.5,0,0.9,0,1.4,0c0-6.5-0.1-13,0-19.5c0-3.7-1.8-4.5-5.2-4.5c-19.5,0.1-39.1,0.1-58.6,0.1c1.5,1,3.1,1.1,4.7,1.1
			c17.1,0,34.2,0.2,51.2,0c5.1-0.1,6.8,1.7,6.5,6.7C319.7,616.9,320,622.3,320,627.7z M416.1,586.6c0,1.4-0.3,2.8,0.1,4.1
			c0.5,1.9-1.1,4.9,2,5.5c2.1,0.4,4.8,0.7,6.4-0.3c3.2-1.9-0.2-4.3-0.5-6.4c-0.4-3-1.3-5.9-2.1-8.8c-0.5-1.9-2.1-2.5-3.9-2.2
			c-1.7,0.3-2,1.6-2,3.1C416,583.3,416.1,585,416.1,586.6z M454.1,527.1c0,0-0.1,0-0.1,0c0,3.3-0.1,6.6,0,9.9
			c0.1,1.7-0.7,4.5,2.1,4.4c2.2-0.1,2.6-2.6,2.7-4.5c0.2-6.8,0.4-13.7,0.5-20.5c0-1.4,0.5-3.7-2.2-3.2c-1.5,0.3-3,1.2-3,3.3
			C454.2,520,454.1,523.5,454.1,527.1z M873.1,569.3c0-0.6,0-1.2,0-1.8c-13.5,0-27.1,0-40.6,0c0,0.6,0,1.2,0,1.8
			C846.1,569.3,859.6,569.3,873.1,569.3z M567.2,438.5c-2.7,8.3-1.3,16.7-1.7,25c-0.1,1.5,0.5,2.8,2.2,2.7c1.1-0.1,1.9-1,1.9-2.3
			C569.6,455.4,571.2,446.7,567.2,438.5z M599.5,625.6c-3.6-0.3-7.3-6.9-10.5-1.1c-2,3.5-2.6,9.6,0.8,13.1c4,4,6.5-1.9,10-2.3
			c-0.7-3.2-5.3-0.8-4.9-5C595.2,627,599.2,629.5,599.5,625.6z M882.6,483.2c0-4.1,0-8.3,0-12.4c0-1.5-0.5-2.7-2.2-3
			c-1.8-0.3-2.5,0.8-2.5,2.4c-0.1,8.2-0.2,16.5-0.2,24.7c0,2,1.4,3,3.3,2.8c1.6-0.2,2.3-1.4,2.2-2.9
			C883,490.8,882.8,487,882.6,483.2z M477.1,572c-1.3,0.8-2.6,1.2-2.9,2c-3.1,7.9-1.4,16.2-1.3,24.4c0,1.2,1.2,1.7,2.5,1.3
			c1.3-0.4,1.8-1.4,1.7-2.5C477,589,478.9,580.8,477.1,572z M308.9,625.5c2.8-3.6,4.5-6.2,2.6-9.8c-0.7-1.3-1.9-3.1-2.6-2.1
			c-2.9,4.3-5,3.4-8.2,0.2c-1.6-1.6-2.4,0.6-3.1,2.2c-1.2,3.2-0.3,5.7,2.1,8.7C303,620.2,306.3,618.3,308.9,625.5z M442.5,439.6
			c-1.6-0.2-3.3-1.5-3.7,1.4c-0.3,2.6,0.9,3.4,3.3,3.4c4.1-0.1,8.3,0.1,12.4,0c2.8-0.1,6.8,1.1,6-4c-0.7-4.8-4.7-2.7-7.3-2.6
			C449.7,437.9,446.7,442.2,442.5,439.6z M478.9,483.6c2-0.4,6.7,1.2,5.8-3.6c-0.6-3.5-4.3-6.2-7.9-6.6c-2.9-0.3-5.3,1.3-5.1,5.5
			C471.9,484.1,474.9,483.8,478.9,483.6z M612.2,569.3c-0.9,0-1.8,0-2.7,0c1.2,11.9-1.1,23.8,2.7,35.6
			C612.2,593,612.2,581.2,612.2,569.3z M289.9,409.8c-4.2,4.8-4.6,4.9-7.2,3.8c-1.3-0.6-0.6-5.2-3.5-2c-1.9,2.1-2.8,5.4-1.1,7.7
			c3,4.3,8.9-5.5,11.8,1.9c0.7-0.7,1.6-1.4,2-2.3C293.5,415.9,291.8,413.2,289.9,409.8z M157.1,613.2c-2.5,2.1-4.6,8.7-8.4,1.5
			c-1.2-2.2-2.7-0.2-3.3,1.4c-1.6,3.7-0.6,6.8,2.7,9.6c1.3-3.1,3.7-6.5,6.4-2.8c3.3,4.5,3.4,0.7,4.4-0.9
			C160.9,618.8,159.3,616.3,157.1,613.2z M122.1,402.9c-0.4,0.1-0.8,0.1-1.1,0.2c0,20.5,0,40.9,0,61.4c0.4,0,0.8,0,1.1,0
			C122.1,443.9,122.1,423.4,122.1,402.9z M290.8,624.6c2.5-3.2,3.8-6.7,1.2-9.9c-2.9-3.6-3.4,1.5-5.3,2.1c-2.6,0.8-3.1-0.9-4.2-2.6
			c-0.8-1.3-2.3-1.1-3.1,0.6c-1.3,2.5-2.6,4.9-0.1,7.4c0.8,0.8,1.2,3.3,2.6,1.2C285.7,617.8,288.1,622.7,290.8,624.6z M156.4,422.2
			c3.3-2.9,3.5-6.2,0.9-9.3c-2.8-3.3-2.8,2-4.9,1.9c-1.8-0.1-3.2-0.3-4.3-1.7c-1.3-1.8-1.8-1.6-3.2,0.4c-2,3-0.6,5.1,0.5,7.5
			c0.8,1.8,2.4,1.8,3,0.4C151.9,413.6,153.7,422.1,156.4,422.2z M298.6,409.8c-1.7,3.9-4.2,7.1-1.1,10.5c3.5,3.8,3.3-2.2,5.3-2.2
			c1,0,2.1,0.3,3,0.9c1.3,0.8,1.5,4.6,3.9,1.9c1.8-2.1,2.1-4.7,0.4-7.6c-1.9-3.3-2.6-0.9-4.1,0.1
			C302.5,415.8,300.8,412.9,298.6,409.8z M486.2,639.8c7.6,0,15.2,0,22.8,0c1.4,0,3.7,0.7,3.4-2c-0.2-1.8-1.5-3.2-3.4-2.7
			C501.6,637.3,493.7,636.8,486.2,639.8z M465.9,475.9c0.5,0,1.1-0.1,1.6-0.1c0-9.7,0-19.4,0-29.1c-0.5,0-1.1,0-1.6,0
			C465.9,456.5,465.9,466.2,465.9,475.9z M129,583.5c0.3,1.4,0.3,3.8,1.5,5.4c1.1,1.5,2.9,4.2,5.3,2.7c3.3-2.1,0-3.6-1.2-5
			c-2.2-2.5-3.1-4.8-0.3-7.7c1.2-1.2,3.5-2.3,2.5-4.6c-0.3-0.6-2.3-1.3-2.7-1c-1.7,1.2-3.3,2.7-4.3,4.5
			C128.9,579.2,129.2,581.1,129,583.5z M194,550.1c0.1-0.2,0.2-0.4,0.2-0.6c-16.3,0-32.7,0-49,0c0,0.2,0,0.4,0,0.6
			C161.5,550.1,177.8,550.1,194,550.1z M125.6,560.5c3.3,3.9,6,8.1,11.3,9.8C138.1,558,137.2,557.2,125.6,560.5z M788.6,467.7
			c2.2-1.5,8,2.8,7.9-2.5c-0.1-4.6-5.8-1.8-9-2.5c-1.3-0.3-2.7-0.1-4.1,0c-1.9,0.1-4.2-0.2-4.4,2.4c-0.3,3.1,2.3,2.4,4.1,2.5
			C784.7,467.8,786.4,467.7,788.6,467.7z M788.4,570.1c2.4-1.2,8.2,2.3,8.3-2.4c0.1-5.5-5.7-2.3-9-3c-0.5-0.1-1.1-0.1-1.6,0
			c-2.6,0.4-7.1-1.8-7.1,2.6c0,4.5,4.6,2.1,7.2,2.7C786.7,570.3,787.3,570.1,788.4,570.1z M271.8,549.9c-0.1-0.2-0.3-0.4-0.4-0.6
			c-14.6,0-29.3,0-43.9,0c0,0.2,0,0.4,0,0.6C242.3,549.9,257,549.9,271.8,549.9z M836.7,557.4c2.7-1.9,9.8,2.2,9.6-2.6
			c-0.2-5.2-7.3-1.6-11.1-3.3c-2.4-1.1-3.4,0.7-3.4,3C831.9,557.4,833.3,558.4,836.7,557.4z M248.7,487c0-0.3,0-0.5,0-0.8
			c-15.3,0-30.5,0-45.8,0c0,0.3,0,0.5,0,0.8C218.1,487,233.4,487,248.7,487z M493.6,629.1c11.4,1,20-1.5,28.8-8.2
			C511.7,624,502.7,626.5,493.6,629.1z M430.5,605.3c-1-7.6-5.8-6.4-10-6.3c-2,0-3.6,0.6-3.7,3.2c0,2.6,1.4,3.2,3.6,3.2
			C423.6,605.3,426.9,605.3,430.5,605.3z M543.2,601.4c4.3-5.2,5.7-8.9,6.9-12.8c0.6-2.1,2-4.6-2.7-4.7c-3.2-0.1-4.4,0.1-4.2,3.4
			C543.3,591.2,543.2,595.2,543.2,601.4z M872.8,562.7c-9.2-3.8-12-3.9-23.3-0.3C858.5,564.2,865.6,563.7,872.8,562.7z M505.6,496.8
			c-11.7,0-23.4,0-35.1,0c0,0.8,0,1.5,0,2.3C482.2,496.5,493.9,496.4,505.6,496.8z M497.3,486.4c0,0.3,0,0.6,0,0.8c13,0,26,0,39,0
			c0-0.3,0-0.6,0-0.8C523.3,486.4,510.3,486.4,497.3,486.4z M886.8,493.3c2.3-6.9,2.2-13.6-0.9-20.2
			C884.8,479.9,884.5,486.7,886.8,493.3z M201.8,552.3c-5,0-9.8,0-14.8,0C193.8,558.6,197.1,558.6,201.8,552.3z M253.3,407.9
			c-1.1,6.7-2.6,13.5,0.7,20.1C255.7,421.2,255,414.6,253.3,407.9z M852.9,551.1c-2.5-0.4-4.3,0-4.4,3.1c-0.1,2.7,0.9,4.1,3.7,4.1
			c2.7,0,4.9-0.3,4.9-3.9C857.1,551.4,855.6,550.6,852.9,551.1z M832.5,464.4c0,0.4,0,0.8,0,1.3c13.4,0,26.8,0,40.2,0
			c0-0.4,0-0.8,0-1.3C859.3,464.4,845.9,464.4,832.5,464.4z M499.1,633.7c13.7-1.3,21.9-4.5,27.4-11.1
			C517.3,628.2,508.1,630.7,499.1,633.7z M323.9,603.4c1.2-12.5,0.2-13.5-10.4-9.6C320,594.6,320,600.3,323.9,603.4z M313.6,443.2
			c8.3,2.3,11.4,0.1,10.5-6.9c-0.1-0.9-1-1.8-1.8-2.3c-0.4-0.2-2,0.5-2,0.8C320.4,439.3,315.2,439.9,313.6,443.2z M824.3,569.2
			c-9.3-3.9-16.4-1.9-23.4,0C807.9,569.2,814.9,569.2,824.3,569.2z M833.2,541.3c4.3,3.5,6,9.4,12.6,7.6
			C843.4,543.8,842.2,537.5,833.2,541.3z M885.3,452c-2.7-1-3.9,3.3-6.2,0.9c-0.9-0.9,0.6-5.9-3.1-1.8c-1.5,1.7-5,2.6-3.6,5.6
			c0.9,2,3.4,0.9,5.2,0.6C880.9,457.1,884.2,456.7,885.3,452z M338.5,338.8c-2.8,6.3-3.2,11,0.4,16.9
			C341.9,349.8,342.4,345.1,338.5,338.8z M254.6,628c0.6-6.5,2.3-13-0.1-19.5C252.3,615,252.3,621.5,254.6,628z M847.8,473.3
			c-5.7-1.1-10.2,0.2-13.5,3.4c-2.2,2.1,0.2,11.8,2.6,13.5C833.7,481,833.7,481,847.8,473.3z M430.3,550.7c4.5,2.1,7.4,3.8,10.7,4.8
			c1.8,0.6,4.9,1.2,5.5-1.5c0.6-2.8-2.1-3.3-4.4-3.3C438.6,550.7,435.2,550.7,430.3,550.7z M445.6,396.4c-3.2,0.2-3.6,2.4-3.4,4.6
			c0.2,2.1-1.5,5.3,2.7,5.4c2.2,0.1,3.8-0.6,3.6-3.2C448.2,400.7,448.7,397.7,445.6,396.4z M249.4,552.4c5.4,5.2,9.7,5.2,15.5,0
			C259,552.4,254.7,552.4,249.4,552.4z M200.3,483.6c0-0.7,0-1.5,0-2.2c-4-1.8-7.9-3.3-12.7,2.2
			C192.6,483.6,196.5,483.6,200.3,483.6z M497.8,562.3c-1.9-0.2-4-0.1-4.2,3.1c-0.1,2.6,1.2,3.3,3.5,3.3c2.5-0.1,5.2,0.3,5.1-3.5
			C502.1,562.4,500.2,562.2,497.8,562.3z M513.3,492.6c-2.7-0.2-3,1.6-3.1,3.7c-0.2,2.7,1.1,4.2,3.6,4.5c2.7,0.3,2.9-1.8,3-3.8
			C516.9,494.5,516.3,492.6,513.3,492.6z M472.6,489.4c6.4-0.7,12.8-1.4,19.1-2.1C485.3,486.8,478.7,484.5,472.6,489.4z
			 M832.6,562.2c4.2,1.6,8.4,1.8,13.4,0.8C841.2,556.7,836.8,560.5,832.6,562.2z M151.5,486.4c0,0.1,0,0.2,0,0.3
			c8.4,0,16.8,0,25.3,0c0-0.1,0-0.2,0-0.3C168.4,486.4,160,486.4,151.5,486.4z M319,483.9c1.4-1,5,1,5-2c0-3-3.4-2.6-5.9-2.6
			c-2.2,0-5.2-0.1-4.9,2.7C313.5,484.9,316.7,483.2,319,483.9z"/>
		<path d="M444.1,507.7c-4.2,4.4-8.4,8.8-12.6,13.1c-1.5-0.1-3-0.3-4.5-0.4c4.1-7.1,9.7-12.7,16.8-16.8
			C443.9,505,444,506.4,444.1,507.7z"/>
		<path d="M442.4,516.3c0.7,2.9-3.2,4.5-2.1,7.5c-0.6,0.6-1.2,1.2-1.8,1.9c-2,2.4-4.1,4.8-6.1,7.3c-1.7,2-3.3,4-5,5.9
			c0,0-0.1-0.1-0.1-0.1C429.4,529.3,435.3,522.5,442.4,516.3z"/>
		<path d="M637.1,504.1c-6.3,1.2-6.6-3.3-6.6-7c0-4.1,2.4-6,7-6c5.2-0.1,6.5,3.4,6.3,6.7C643.7,501.2,642.6,505.7,637.1,504.1z"/>
		<path d="M598.1,452.6c-0.8-4.6,1.8-11-1.3-17c-0.6-1.2,0-2.5,1.6-3.2c2-0.9,3.7,1.8,5.9,0.4c0.6-0.4,1.3,1.8,0.7,2.7
			c-6.6,9.7-2.5,20.5-3.1,30.8c-0.1,1.9,1.3,4-1.6,4.2c-2.7,0.2-2.5-1.6-2.3-3.9C598.4,462.4,598.1,458.3,598.1,452.6z"/>
		<path d="M534.4,467.6c-7.1-6.2-6-14.5-5.5-22.4c0.3-4.5,1.7-9,4.7-12.7C531.2,444.3,529.3,456,534.4,467.6z"/>
	</g>
</g>
<g id="text">
</g>
<g id="scratch">
</g>
<g id="guides" display="none">
</g>
</svg>
