<?xml version="1.0" encoding="utf-8"?>
<!-- Generator: Adobe Illustrator 26.0.2, SVG Export Plug-In . SVG Version: 6.00 Build 0)  -->
<svg version="1.2" baseProfile="tiny" xmlns="http://www.w3.org/2000/svg" xmlns:xlink="http://www.w3.org/1999/xlink" x="0px"
	 y="0px" viewBox="0 0 1000 1000" overflow="visible" xml:space="preserve">
<g id="bg">
</g>
<g id="counters">
	<g>
		<g>
			<path fill="none" d="M2.4,137.2c0.8,0,2.3,0,3,0c0,0.5,0,1.5,0,2h1v1c0.5,0,1.5,0,2,0c0,0.7,0,2.1,0,2.8c-2.2,0-3.8,1.4-6,1.3
				c0-1.4,0-2.8,0-4.1h1c0-0.5,0-1.5,0-2h-1V137.2z M3.5,142.4"/>
		</g>
		<path fill="none" d="M9.2,138.2c1.8,0.9,4.1,1.5,5.4,3l-1.2,0l0,1.2c-0.9-0.4-1.4-1.1-1.6-2.1C10.2,140.3,9.4,139.6,9.2,138.2z"/>
		<path fill="none" d="M12.6,147.3c1.4-1.2,2.9-2.2,4.4-3.3c1.1,1.8,2.2,3.6,3.6,5.2c-0.6,0-1.7-0.1-2.3-0.1l0,1c0.5,0,1.5,0,2,0
			v0.8c-3,0.4-6,1.5-9,1.4c0-0.6,0.1-1.9,0.2-2.6C11.8,149.2,12.3,147.9,12.6,147.3z"/>
		<path fill="none" d="M19.4,154.2c0.4-1.2,1.9-1.7,3.1-1.8C22.9,154.2,20.7,154.8,19.4,154.2z"/>
		<path fill="none" d="M24.5,155.4c2.4-0.6,0.2,3.4-0.4,0.8L24.5,155.4z"/>
	</g>
	<g>
		<path d="M101.1,370.4c-0.4,12.5,0,25.1,0.3,37.6c0.2,10.5,0,20.9,0,31.4c0,7.2-0.1,14.5-0.2,21.7c0,5.8,0.3,11.6,0.5,17.4
			c0.1,4-0.8,7.8-1.5,11.7c-0.3,1.8-0.6,3.5,0.9,5c0.8,0.8,0.4,2,0.4,3c0.1,17.5,0,34.9,0.2,52.4c0.1,11.6,0.2,23.2,0.4,34.7
			c0.3,17.2-0.1,34.5,0.1,51.7c0.1,11.9,0.2,23.8-0.1,35.7c-0.1,4,0.4,4.4,4.3,4.4c34.2-0.2,68.4-0.5,102.6-0.6
			c17.1-0.1,34.1,0,51.2-0.1c8.1,0,16.2-0.3,24.3-0.4c10.7-0.1,21.5-0.1,32.2-0.2c18.3-0.1,36.6-0.5,54.9-0.4
			c15.9,0.1,31.7,0.2,47.6,0.1c15.6-0.1,31.1-0.4,46.7-0.5c11.3-0.1,22.5,0,33.8,0c22.4-0.1,44.7-0.1,67.1-0.3
			c12.8-0.1,25.6-0.4,38.4-0.6c20.5-0.4,41-0.2,61.5-0.2c14.3,0,28.6-0.2,43-0.2c17.3,0,34.5,0.2,51.8-0.2c9-0.2,17.9-2.2,26-6.7
			c5.9-3.3,10.7-7.8,13.9-13.9c2.6-5,2-10.3,2-15.7c-0.1-10.3-0.1-20.6-0.2-30.9c0-5.5,0.1-11,0-16.4c0-3.6-0.7-4.1-4.2-4
			c-2.5,0.1-5.1-0.1-7.6,0c-1.9,0.1-2.4-0.7-2.6-2.4c-0.5-5.1-0.4-10.2-0.2-15.3c0.1-2.2-0.3-3.9-1.8-6c-3.8-5.1-6.7-10.8-10.3-16.1
			c-1.7-2.6-2.1-5.3-2-8.2c0-0.5,0.1-1.2-0.1-1.4c-2.8-1.7-1.7-4.5-1.8-6.8c-0.2-5.9-0.1-11.9,0-17.8c0-4.3,0.2-4.5,4.4-4.5
			c18.8-0.1,37.6-1,56.4-1.3c15.9-0.2,31.9-1.2,47.8-1.1c5.6,0,11.1-0.3,16.7,0c1.9,0.1,2.4-0.9,2.4-2.4c0-4.2-0.1-8.3-0.1-12.5
			c0-1.8-1-1.8-2.4-1.8c-16.5-0.2-32.9-0.5-49.4-0.8c-18.1-0.3-36.2-0.7-54.3-1.2c-5.7-0.2-11.3-0.1-17-0.2
			c-4.3-0.1-4.3-0.3-4.6-4.4c-0.3-5.1-0.2-10.2-0.2-15.3c0-3.5,1.1-4.4,4.5-3.7c2.9,0.6,5.3-0.6,6.8-3.3c1.4-2.8,1-6.4-1.4-8.2
			c-1.2-0.9-1.4-1.8-1.4-3.1c0.1-1.8,0-3.6-1.6-4.9c-0.9-0.7-0.4-1.4,0-2.2c1.4-2.6,3.3-4.8,5.2-7c2.4-2.7,3.3-5.6,3-9.3
			c-0.4-5.3-0.2-10.5,0.2-15.8c0.1-1.8,0.8-2.2,2.4-2.1c3,0.1,6,0,9.1,0c1.7,0,2.6-0.3,2.5-2.4c-0.7-17.5,0-35.1-0.5-52.6
			c-0.1-4.6-2.7-8.6-5.6-11.9c-10.1-11.4-22.8-17-38-16.9c-15.5,0.1-31.1-0.3-46.6-0.2c-14.3,0-28.6,0.4-42.8,0.6
			c-9,0.1-17.9,0-26.9,0.1c-21.8,0.2-43.6,0.2-65.5,0.8c-9,0.2-18.1-0.1-27.1,0.1c-21.6,0.5-43.3,0.1-64.9,0.3
			c-26.8,0.1-53.6,0.2-80.4,0.3c-28.5,0.1-57,0.2-85.5,0.2c-10.2,0-20.4-0.3-30.5,0.1c-21.1,0.8-42.1,0.5-63.2,1
			c-10.9,0.3-21.8,0.1-32.7,0.2c-10.1,0.1-20.2,0.2-30.2,0.3c-19.2,0.2-38.5,0.5-57.7,0.6c-2,0-2.4,0.7-2.3,2.5
			c0.2,8.9-0.1,17.9,0.4,26.8C101.2,361.3,101.1,365.9,101.1,370.4z M316.8,621.6c1.1-0.1,2.3,0.4,3.3-0.3c1-0.7,1.9-1.5,2.9-2.2
			c0.6-0.4,1.3-1.3,1.9-0.5c0.8,0.9-0.4,1.6-0.9,2c-1,0.9-2.3,1.3-3.3,2.1C318.7,624.4,317.5,623.9,316.8,621.6
			c-3.2-3.4-5.3-7.5-7.5-11.5c0.9,0.8,1.7,1.7,2.2,2.7C313.2,615.8,315.9,618.2,316.8,621.6z M245.4,381c0.3-1.8,0.7-3.4,2.9-1.6
			c0.1,0.1,0.3,0.2,0.5,0.2c4.1-0.5,4.1-0.5,6.2,2.2c-3.2-0.9-6.2-1.2-9.3-0.6c-2.2,1.1-2.7,0.9-6.9-2.4
			C241.3,379.1,243.6,379.4,245.4,381z M668.1,645.8L668.1,645.8c-0.1,0.7,0.6,0.8,1,1c5.6,3.4,11.5,6.3,17.2,9.6
			c7.5,4.3,14.8,8.9,22.4,13.1c0.5,0.3,1.5,0.4,1.2,1.3c-0.2,0.8-1,0.7-1.7,0.7c-3.2,0-6.4,0-9.6,0c-16.5,0.1-33,0.3-49.5,0.4
			c-34.1,0.2-68.2,0.2-102.3,0.4c-24.6,0.1-49.3,0.3-73.9,0.4c-10.8,0-21.5-0.4-32.3-0.1c-13.5,0.3-27,0.1-40.4,0.5
			c-13.6,0.4-27.2,0-40.8,0.3c-12.5,0.2-25-0.1-37.4-0.1c-13.8,0-27.7,0.2-41.5,0.3c-25.1,0.2-50.1-0.2-75.2,0.7
			c-10.9,0.4-21.7,0.1-32.6,0.1c-1.1,0-2.2,0.2-3.2-0.7c1-1.3,2.4-1.7,3.6-2.4c1.7-1,2.5-2.6,2.4-4.5c-0.2-1.8-1.1-3.2-2.9-3.8
			c-2.5-0.8-5.1-0.9-7.5-0.1c-2,0.7-3.6,2.1-3.9,4.5c-0.2,2.2,1.4,3.1,3,4c1.3,0.7,2.5,1.5,3.7,2.3c-18.5,1.2-36.9,1.4-55.4,0.9
			c0.2-1.7,0.8-2.5,1.4-3.3c5.5-7.2,11-14.4,16.6-21.6c4.8-6.2,9.8-12.4,14.5-18.7c1.1-1.5,2.1-2.1,3.9-2.1
			c13.6-0.1,27.3-0.1,40.9-0.5c11.9-0.3,23.9-0.1,35.8-0.6c9.6-0.4,19.2,0.1,28.8-0.2c12.4-0.4,24.7-0.5,37.1-0.5
			c11,0.1,22.1,0.4,33.1,0.4c13,0,26-0.2,39-0.3c1.3,0,2.2,0.4,2.7,1.5c0.9,2.1,2.5,2.5,4.6,2.5c7.9-0.1,15.9-0.3,23.8-0.2
			c11.3,0.1,22.6-0.4,33.9-1.5c1-0.1,1.9-0.3,2.6-1c1.2-1.1,2.6-1.3,4.2-1.3c12,0,24,0,36-0.3c16.9-0.4,33.8-0.5,50.8-0.5
			c5,0,10,0,15,0c0-0.3,0-0.6,0-1c-17.9,0-35.8,0-53.6,0c0-0.3,0-0.6,0-0.9c9.6-0.5,19.2,0.2,28.8-0.7c-5.5-0.8-11.1,0-17.2-0.8
			c3.3-2.1,6.5-2.2,9.3-3.5c6.9-3.1,13.8-6.1,20.3-9.9c4.6-2.7,9.5-4.7,13.6-8.2c2.2-1.9,3.8-4.6,6.2-5.9
			c10.3-5.7,20.9-10.9,31.4-16.3c0.8-0.4,1.5-0.3,2.4,0.1c2.2,0.9,4.7-0.5,5.5-2.8c0.4-1.2,1.4-2.1,2.6-2.1c1.7-0.1,1.1,1.5,1.2,2.3
			c0.2,2.3,0.2,4.7,0.3,7.1c0.1,2.6,1.5,4.1,4,4.8c3.1,0.8,6.3,1.1,9.5,1.5c2.7,0.3,5.8-0.8,8,0.9c2,1.5,3.9,1.7,6,1.6
			c4.5,0,9.1,0.1,13.6-0.2c3.7-0.2,6.9-1.5,7.9-5.5c0.4-1.4,1-2.4,2.7-2.5c0.1,1.1,0.3,2.3,0.4,3.4c1.3-2.1,0.4-4.4,1.6-6.5
			c0,2.3,0,4.5,0,6.8c0.3,0,0.5,0,0.8,0c-3.1-19.8-1.2-39.7-1.6-59.5c0.2,0,0.5,0,0.7,0c0,1.7,0,3.3,0,5.5c1.6-4.1-0.8-7.6,0.2-11.3
			c0.8-2.9,0.4-6.2,0.3-9.3c-0.1-2.1,0.7-2.8,2.7-2.9c17-0.4,34-0.9,51-1.4c2.4-0.1,3.7,0.1,3.7,3.1c-0.1,3.3,3.4,6.1,5.7,4.8
			c2.5-1.4,6.5-2,5.4-6.6c-0.1-0.4-0.1-1.1,0.8-1.2c1.1-0.2,1,0.6,1.1,1.2c0.2,0.9,0.2,1.9,0.3,2.8c0.2,3.3,0.3,6.6,0.5,9.9
			c0.3,0,0.5,0,0.8,0c0-3.5,0-6.9,0-10.4c1.3,4.3,0.3,8.7,1.6,13.3c-0.1-1.8,0.2-2.4,2-1.8c3.1,1.1,4.9-0.4,4.8-3.7c0-2,0-4,0-6
			c0.1-5.2,0.1-5.2,5.2-6c0.6-0.1,1.3-0.2,2-0.2c12.4-0.7,24.8-0.2,37.2-0.7c2.8-0.1,3.6,1,3.5,3.6c-0.1,8.4,0,16.7,0,25.1
			c0,2,0.3,3.9,1.4,5.7c3.8,6,7.6,12.1,11.3,18.1c1.3,2.1,2.9,4.2,2.9,6.9c0,5.3-0.1,10.6,0,15.9c0.1,2.5-1,3-3.3,3
			c-8-0.1-16,0-24,0.2c-2.4,0-3.4-0.7-3.3-3.2c0.2-4.6,0-9.2,0.1-13.8c0-1.5-0.6-3-2.2-2.5c-4.3,1.4-8.9,0.5-13.3,2
			c-4.1,1.4-6.3,3.6-6.7,7.7c-0.3,3.7,1.6,6.5,5.5,8.2c0.6,0.3,1.3,0.5,1.1,1.7c-3.6,0-7.3,0-11,0c-5.5,0-5.5,0-6.7-5.4
			c-0.1-0.4-0.2-0.7-0.3-1.1c-0.1-0.2-0.3-0.3-0.4-0.5c-0.9,2.5-2.5-0.1-3.8,0.5c-1.6,0.8-2.1-0.4-2-1.9c0.1-1.1,0-2.2,0-3.4
			c0-0.5,0.6-1.2,0.7-1c1.6,2.1,4.4-1.2,5.9,2.3c0-2.1,0-3.4,0-4.6c-0.1-2.4-2.3-4.2-4.4-3.2c-2.2,1-2.3-0.3-2.6-2.1
			c-0.7,4.5,0,8.7-1.4,12.7c0-3.4,0-6.8,0-10.1c-0.6,4.2-0.9,8.5-0.9,12.7c0,7.3,0,7.3,7.3,7.3c0.1,0,0.2,0,0.3,0
			c1.7-0.3,2.3,0.3,2.4,2.1c0.1,6.2,0.6,12.4,0.7,18.6c0.2,14.7-0.1,29.4,0.5,44.1c0.2,5.5,0,11,0,16.8c-1.5-0.4-2.4-0.5-3.1-0.9
			c-3.8-2.1-7.5-4.3-11.2-6.4c-10.6-6.1-21.2-12.4-32-18.4c-11.2-6.3-22.5-12.5-33.8-18.7c-1-0.6-1.3-1.3-1.3-2.5
			c0-1.5,0.4-3.3-0.9-4.8c-1.1,1.7,0.5,3.7-1.2,5.1c0.4-4.3,0.1-6.9-0.9-8.4c-0.6,7.6-0.6,7.7-8.5,7.4c-2-0.1-4.2,0.4-6.3-0.8
			c6.5-3.1,10.7-9.9,9.7-15.6c-1.1-6.1-7-12.2-13-12.5c-5.4-0.3-11.8,2.5-14.6,10c-1.3,3.6-0.9,7.2,0.7,10.7c1.6,3.4,4.3,5.7,8,7.8
			c-7.6,1.1-14.7,0.7-21.7,1.5c14.5,0.7,29-0.5,43.5,0.5c-9.7,1.3-19.5,0.4-29.2,1.1c3.7,0.3,7.4,0.2,11.1,0.4
			c4.1,0.2,8.3-1.1,12.2,1.1c4.3,2.4,8.6,4.8,12.9,7.2c1.2,0.6,2.4,1.6,3.7,0.3c-0.5-0.8-1.2-1.3-2.1-1.8c-3.4-1.7-6.7-3.4-9.7-6.3
			c3-0.8,5.4-0.2,7.8,1.2c7.8,4.5,15.6,9,23.4,13.4c12.1,6.9,24.2,13.8,36.3,20.7c5.3,3,10.6,6.2,16.2,9.5c-2.3,0.6-4.2,1.2-6,0.1
			c-6-3.4-12-6.9-18-10.3c-6.9-3.9-13.7-7.8-20.7-11.5C673.3,647.8,671.3,645.5,668.1,645.8z M633,566.1c4.4-3.9,5.1-9.3,2.2-15.7
			c-0.5-1.2-1.5-2.3,0.1-3.4c0.8-0.6,1.5-1.6,2.7-1c1.6,0.7,1.2,2.2,1.2,3.5c0,3.8,0,7.5,0,11.3c0,6.5,0,13,0,19.5
			c0,1.5-0.2,2.2-2.3,1.8c-2.3-0.5-2.6-2.2-3.7-3.5c-0.1,1.6-0.5,3-2.6,2.9c-2.4-0.1-4.7-0.2-7.1-0.3c-0.6,0-1.3,0-1.2-0.8
			c0.1-1.5-1.2-2.5-1.7-4.1c2.1,0.1,3.9,0.2,5.7,0.3c2.5,0.1,5.1-0.2,7,2c-0.3-1.8-1.5-2.8-3.3-2.8c-5.5-0.1-10.9-0.1-16.4-0.2
			c-2.3,0-3.3,1.2-3.8,3.3c-0.4,1.7,0.4,4-1.1,5c-1.5,1.1-3.7,0.1-5.5,0.1c-0.3,0-0.6,0-0.9,0c-8.3-0.8-10.4-5.1-9.5-12.2
			c0.1-0.6,0.1-1.1,0.8-1.3c3-0.9,5.4-3.1,8.5-3.7c4.5-0.8,8.6-1.1,12.7,2.1c4.2,3.3,9.2,3.4,13.9,0.4c-2.8,0.8-5.6,0.9-8.5,0.3
			c3.1,0,6.1-0.3,7.2-3.9c0.1-0.3,0.6-0.6,0.9-0.6c1.6,0.1,1.6-1,1.6-2c0-1.1,0.1-1.7,1.5-1.2c1.1,0.4,1.7-0.7,1.9-1.7
			c0.2-1.1-0.7-1.4-1.6-1.4c-0.8,0-1.8,0.4-1.8-1c0-1,0.5-1.1,1.4-1.2c1.1-0.1,1.7-1,1.6-2c0-0.9-0.4-1.8-1.4-1.8
			c-1.6-0.1-1.1-0.9-0.5-1.5c1.1-1.2,2.2-1.8,3.3,0.1c0.9,1.5,1.3,3,1.6,4.8C636.3,559.8,634.7,562.9,633,566.1z M623.4,482.6
			c0.8-0.2,1.7-0.3,2.4-0.7c2.1-1,2.9-0.6,3,1.9c0.2,4,0.1,7.9,0.2,11.9c0.1,5.5,0,11,0.1,16.5c0,1.9-0.7,2.4-2.4,1.6
			c-1.6-0.7-3.3-1.3-4.9-2c3.3,2.9,7,4.9,11.6,4.5c3.9-0.3,4.4,0.2,4.4,3.9c0,5.2-0.3,10.4,0.1,15.6c0.4,5.1-1.5,8.6-6,11.1
			c0.9-5.6-0.8-9.8-5.9-12.5c-0.6-0.3-1.1-1-1.6-0.2c-1.5,2.3-3.1,1.5-5,0.5c-2.4-1.2-3.1-0.7-2.7,2c0.4,3.7-0.4,7.4,0.9,11.2
			c1.2,3.4,1.7,4.7,5.5,5.1c0.7,0.1,1.5-0.4,2.2,0.6c-2.4,3.1-5.3,5.7-8.3,8.2c-1.3,1.1-2.1,2.8-4.3,2.8c-7-0.1-13.9-0.1-20.9,0
			c-0.9,0-1.6-0.2-1.6-1.1c-0.1-1.8,0-3.6,0-5.4c0-1.2,0.6-1.6,1.7-1.7c5.3-0.3,10.7,1,15.8-1.7c0.8-0.4,2.2,0.6,2.4-1.2
			c0.2-1.6,0.3-3.9-0.9-4.4c-2.3-1-4.5-2.5-7.4-2.1c-3.2,0.4-6.5,0.2-9.8,0.5c-1.5,0.1-2.1-0.3-2.1-1.8c-0.1-9.5-0.4-19-0.5-28.5
			c-0.1-7.5-0.1-15.1-0.1-22.6c-0.1-14.3-0.3-28.6-0.5-42.9c0-2.1,0.8-2.8,2.9-2.8c4.8,0,9.7,0.7,14.4-1c1.3-0.5,2.5-0.6,2.8-2.2
			c0.3-1.6-0.2-2.6-1.5-3.3c-2.9-1.5-5.5-3.5-9.2-2.6c-2,0.5-4.1,0.2-6.2,0.3c-1.8,0.1-3.5,0.3-3.1-2.5c0.3-2-0.7-4.4,3-4.3
			c6.9,0.2,13.8,0,20.7-0.1c1,0,1.6,0.3,2.2,1c1.5,1.6,3,3,4.6,4.5c2.9,2.7,5.5,5.7,8,9c-1.6,0.3-2.9,0.5-4.2,0.7
			c-1,0.2-1.7,0.8-1.4,1.7c0.3,1.1,1.4,1,2.1,0.4c2.2-1.7,4.2-1,5.9,0.4c1.9,1.6,2.9,3.8,2.6,6.5c-0.4,2.6-1.5,4.6-4.8,5.8
			c1.6,0.5,2.1,0.5,2.8,0.1c2.6-1.5,3.4-3.8,3.5-6.7c0-0.5-0.1-1.2,0.5-1.5c0.6-0.2,0.9,0.4,1.4,0.7c1,0.7,1.6,1.4,1.7,2.7
			c0.2,5.9,0.4,11.9,0.3,17.8c0,1.9-0.7,2.5-2.6,2.5C630.7,479,626.7,479.6,623.4,482.6z M714.8,452.5c0.3-0.9,0.7-1.9,1.1-3.1
			c1.2,1.9,2.9,1.7,4.3,0.9c1.5-0.8,1.6,0.1,1.8,1c0.1,0.9,0,1.8,0,2.7c0,1.9,0.1,4.1-2.6,1.6c-0.7-0.7-1.4,0-2.1,0.3
			c-1.3,0.6-1.9,0.4-2-1.2c0-0.7,0.1-1.5-0.5-2.1c0.3,1.4-0.2,2.7-0.7,3.8c-1.2,2.9-1.4,5.5,0.8,8c0.2-1.3,0.7-2,2.2-1.8
			c1,0.1,2.1,0.2,3-0.5c1.3-1.1,1.8-0.1,1.7,0.8c-0.1,2.4,0.4,4.8-0.6,7.4c-1-1.4-1.9-2.8-3.6-2.2c-2,0.7-2.4-0.5-2.8-1.9
			c-0.7,2.7-2.1,5.1-1.8,8.1c0.3,2.7,0.3,5.5-0.3,8.2c-0.2,0.8,0.3,1.8-0.9,2.1c-1,0.2-1.9-0.1-2.3-1.1c-0.8-2-2.6-2.9-4.2-4
			c-2.6-1.9-4.8-1.2-5.3,2c-0.5,2.9-1.9,3.3-4.4,3.2c-10.7-0.3-21.5-0.4-32.2-0.6c-6.2-0.1-12.4-0.1-18.6,0c-1.7,0-2.6-0.6-2.5-2.4
			c0.1-4.2-0.5-8.4-0.3-12.6c0.5-11.9-0.8-23.9-0.2-35.8c0.1-1.5-0.1-3-0.2-4.5c-0.1-0.7-1.3-0.4-1.3-1.8c0.2-5,0.1-10,0.1-14.9
			c-0.2-0.1-0.5-0.2-0.7-0.3c-0.2,1.5-0.6,2.6-1.8,0.9c-1-1.3-1.9-2.4-2.1-4.2c-0.6-3.6-3.2-5.6-6.9-5.6c-5,0-10,0-15,0.1
			c-1.4,0-3.1-0.3-4,0.9c-1.7,2.1-3.9,2-6.2,1.9c-2.7,0-5.5,0-8.2,0.1c-5.3,0.2-8,3-8.2,8.3c-0.1,2.2-0.1,4.3-0.2,6.5
			c0,0.6,0.3,1.4-0.8,1.5c-2.1,0.3-4.1-1.7-3.9-3.9c0.1-0.9,0.6-2-0.7-2.4c-1.2-0.4-3.1-1.4-3.7-0.2c-1.5,3-3.1,1.1-4.8,0.7
			c-3.5-0.8-6.6-2.8-9.8-4.2c-10.1-4.7-20-9.7-28.9-16.7c-6.4-5-13.7-8.5-21.2-11.5c-2.5-1-4.9-2.2-7.3-3.3
			c4.3-0.4,8.5-0.5,12.6-0.4c0.8,0,1.9-0.2,1.5,1.2c-0.5,2,1,2.8,2.1,4c1.1,1.3,2.5,1.2,3.5,0.2c1.1-1.1,1.2-2.5,0-3.8
			c-0.7-0.7-1.7-1.1-2.1-2.1c0.6-0.6,1.4-0.7,2.1-0.8c6-0.9,11.9-1.9,18-2.6c11-1.3,22-0.7,32.8,1.3c11.5,2.1,22.7,5.2,33.9,8.3
			c8.3,2.3,16.6,4.8,24.5,8.4c2.7,1.2,4.3,2.5,4.2,5.9c0,3-0.4,6.2,0.7,10.1c0-3.4-0.1-5.9,0-8.4c0-1.2-0.7-2.9,0.5-3.4
			c1.2-0.5,2.7,0.1,3.9,1c0.3,0.2,0.7,0.4,1,0.6c6.1,4.6,12.6,8.3,19.9,10.7c6.5,2.2,13,4.8,19.8,6.2c7.7,1.6,15.5,3.1,23.2,4.6
			c4.3,0.9,4.3,1,4.8,5.4c0.5,4.5-0.7,9.2,1.9,13.4c0.8-0.9,0.1-2.2,0.8-3.3c1.8,1.4,3.7,1.3,5.7-0.2c0.3,2.8,0.6,5.4,0,8.4
			c-1.9-2-3.9-2.5-6-0.6c-0.1-0.7,0-1.1-0.2-1.4c-0.2-0.3,0.5-1.4-0.6-0.9c-0.6,0.3-1-0.8-1.4-0.1c-0.2,0.4-0.5,1.2,0.7,1.2
			c0.5,0,0.5,1.1,0,1.4c-2.2,1.5-0.7,3.2-0.3,4.8C714,450.9,715.1,451.4,714.8,452.5z M136.9,633.5c1.9-0.8,2.5-3.2,4.7-3.9
			c-1.7,4.5-32,43-34.7,44.2c1.2-2.8,4-4.5,4.6-7.5c-2.4,1.6-3.3,4.8-6.4,6.1c-1-15.8-0.4-31.3-0.2-47.2c1.5,2.6,3.3,1,5,0.9
			c7-0.1,14-0.2,21-0.4c1.1,0,2.3,0,2.3-1.4c0.1-1.3-0.7-2-2.1-1.7c-5.9-0.4-11.8,0.9-17.7-0.6c2.8-0.4,5.6-0.5,7.7-2.7
			c0.5-0.5,1.4-0.5,1.6,0.4c0.7,2.7,2.8,2.1,4.5,2c1.4-0.1,2.8-0.4,3.9,1c0-1.7,2.7-1.1,2.5-3.3c-0.2-2.3,0.1-4.7,0.2-7
			c0.1-1.5-0.6-2.4-2-2.5c-2.4-0.1-4.9-0.1-7.4,0c-0.7,0-1.5,0.4-1.6,1.3c-0.4,2-1.7,1.8-2.6,0.7c-1.6-1.7-3.7-2.2-5.8-2.9
			c0.4-0.2,0.7-0.3,1.1-0.3c4.8,0,9.6,0.1,14.4,0.1c1.1,0,2.6,0.2,2.6-1.8c0-2.1-1.5-1.2-2.4-1.3c-7.6-0.3-15.3,0.5-22.9,0
			c-2.3-0.2-2.9-1-2.9-3.1c0-3.9,0-7.8-0.1-11.7c-0.1-5.3-0.2-10.5-0.2-15.8c0-0.8-0.4-2.7,1.3-2.1c2.1,0.7,3-0.1,3.8-1.7
			c0.4-0.8,1-1.3,2.1-1.1c0.1,0.9,0.3,1.8,0.6,2.7c1.3,4.4,4.4,8.4,5,12.8c0.5,3.9,1,6.5,4.5,8.8c1.6,1,3,1.9,4.5,1.3
			c3-1.1,5.9,1,8.8,0c0.6-0.2,0.6,0.5,0.9,0.8c0.7,1,1.8,1.2,2.7,0.4c1-0.8,0.9-2.2-0.1-3c-1-0.9-1.4-1.8-1.5-3.2
			c0-1.4-0.5-2.8-0.5-4.3c0-1.3-0.9-3-2.5-2.8c-2.1,0.2-1.7-1.1-1.8-2.3c-0.2-1.9,1.5-3.5,1-5.2c-1.4-5.1-0.7-10.3-0.8-15.4
			c-0.1-5.8-0.2-11.7-0.1-17.5c0-2-0.7-4.5,2.8-4.8c0.7,0,2.2-1.8,0.7-2.5c-3-1.4-1.3-2.7-0.4-4.1c1-1.5,1-3.1-0.9-3.2
			c-2.6-0.2-2.4-1.7-2.4-3.5c0-1.8-0.1-3.5-0.1-5.3c0-5.3-0.1-10.5,0-15.8c0-0.9-0.4-1.9,1.1-2.5c2.2-0.9,2.1-2.6,0-3.9
			c-0.6-0.3-0.9-0.7-0.9-1.3c0.2-2.6-1.1-5.5,1.7-7.6c0.4-0.3,0.6-1,0.6-1.5c-0.1-1.5,0.3-2.6,1.9-3.2c0.9-0.3,1.4-1.3,0.9-2.4
			c-0.4-0.8-0.9-1.5-1.9-1.3c-3.1,0.7-6.3-0.2-9.4,0.1c-3.2,0.3-6.6-1.4-9.9,0.6c-0.5-8.2,0.9-16.2,0.8-24.3
			c-1.5,5.8-1.3,11.9-1.9,17.8c-1.3,12.1-2.1,24.4-2.5,36.6c-0.3,10.2-1.7,20.4-1.9,30.6c0,0.8,0,2.3-1.1,2.3
			c-1.5-0.1-0.9-1.6-0.9-2.5c0.2-5.2,0.4-10.5,0.8-15.7c0.7-9.9,0.9-19.8,1.8-29.6c0.7-7,1-14,1.4-21c0.4-8.3,0.5-16.7,1.6-25
			c0.1-0.9-0.1-2.2,1.3-2.1c1.4,0.1,0.9,1.4,1,2.3c0.2,1.6-0.4,3.3,0.4,4.9c0.9-0.6,0.6-1.3,0.7-2c0.3-2.3,0.3-4.7,2.4-6.6
			c1.8-1.6,1.6-3.8-0.2-5.5c-0.8-0.7-0.7-1.4-0.7-2.2c-0.3-5.8,1-11.5,1.2-17.3c0.1-2.8,1.2-3.5,3.6-2.8c2.1,0.7,3.1-0.4,3.7-2.2
			c0.3-0.8-0.9-2.2,0.6-2.3c0.8,0,2,0.9,2.3,1.7c0.8,2.5,2.9,2.3,4.3,1.8c1.6-0.6,1.2-2.5,1.2-4.1c0.1-2.5-1.4-5.4,1.6-7.4
			c0.8-0.5,0.3-1.7-0.5-2.5c-0.9-0.8-1.4-0.2-2.1,0.4c-1.9,1.5-4.5,2.1-6.2,4.1c-0.4,0.5-1.4,0.1-2.2-0.1c-0.1-0.9,2-1.8,0-2.7
			c-1.5-0.6-3.7-1.2-4.3-0.2c-1.1,2-2.7,2.7-4.6,3.3c-1.6,0.5-3.4,1.4-2.8,3.3c0.7,2.2-0.2,4.1-0.2,6.1c0,1.5-0.6,2.7-2,3.5
			c-0.6-1.3-0.4-2.5-0.3-3.7c0.6-5,0.9-10.1,1.1-15.1c0.1-2-0.2-4.1,2.6-4.4c0.3,0,0.8-0.7,0.8-1.1c0-2,1.4-2,2.7-2
			c2.5-0.1,4.9-0.1,7.4-0.2c0.9,0,1.7-0.1,2.5-0.5c0.6-0.3,1.3-0.5,1.1-1.4c-0.2-0.8-0.8-1-1.5-1c-0.6,0-1.1,0.1-1.7,0.1
			c-4.3-0.2-8.7,0.5-13.5-0.4c2.1-1.5,3.8-2.8,5.6-3.9c1-0.6,1.8-0.5,2.5,0.7c1.4,2.6,3.9,2.9,8.6,2c3-0.6,1.9-2.8,2.3-4.4
			c0.1-0.5,0-1.1,0-1.7c0.1-5.5,0.1-5.5-5.3-5.1c-2.1,0.2-4.4-0.5-6.1,1.8c-0.5,0.7-2.9,0.8-3.9-0.4c-1.2-1.5-2.9-1.9-4.8-2.4
			c2.3-0.8,4.3-0.9,6.4-0.9c3.1,0,6.3-0.2,9.4-0.4c1-0.1,1.9-0.6,1.8-1.7c-0.2-1.1-1.1-1.1-2-1.1c-7.6,0.7-15.2,1-22.8,1
			c-2.4,0-2.8-0.5-2.8-2.6c0.2-7.3,0.3-14.6,0.3-21.9c0-5.8,0-11.6-0.1-17.4c0-0.8-0.2-2.1,1-1.6c1.8,0.8,2.6,2.9,3.9,4.4
			c0.8,1-0.6,1.9-1.1,2.9c-3,5.6-2.4,10,1.4,14.4c0.7,0.8,1.6,1.3,2.7,1.3c3.8-0.1,8.2,3.5,8.9,7.2c0.5,2.5,1.6,4.1,4.4,4.2
			c1.4,0,2.7,0.8,3.9,1.5c2.4,1.2,4.8,2.5,7.2,3.7c0.4,0.2,1,0,1.2,0.6c0.2,0.8-0.5,0.8-1,1.1c-0.9,0.6-1.7,1.5-1,2.6
			c0.5,0.9,1.6,0.8,2.6,0.5c0.5-0.2,1.1-0.4,1.8-0.6c1.1,10.4,0,20.7,0.8,30.9c1-0.2,0.1-1.2,0.8-1.2c0.6,0,0.7,0.5,0.7,1.1
			c0,3.9,0,7.8,0,11.7c0.3-3.9,1.1-7.8,1.1-11.8c0-1.9,0.7-2.5,2.5-2.5c5.5,0,10.9-0.2,16.4-0.3c7.2-0.1,14.4-0.3,21.6-0.4
			c10.8-0.2,21.6-0.4,32.4-0.6c1.4,0,1.9,0.4,1.9,2c0.5,10.2,0.6,20.4,0.6,30.5c0,7.5-0.1,15,0,22.5c0.1,17.8,0.2,35.5,0.2,53.3
			c0,20.5-0.1,41.1-0.2,61.6c0,6.6,0,13.1-0.1,19.7c-0.1,3.8-0.3,3.9-4,4.1c-2.5,0.1-5,0.2-7.5,0.3c-7,0.2-13.9,0.5-20.9,0.6
			c-0.9,0-2.7,0.6-2.5-1.5c0.1-1.1,0-2.1-1-2.7c-0.5-0.4-1.1-0.2-1.5,0.3c-0.8,1-0.9,2-0.3,3.2c0.1,0.2,0.1,0.5,0.2,0.9
			c-3.1,0.5-6.2,0.3-9.3,0.3c-6.9,0-13.7,0.2-20.6,0.2c-1.3,0-4.9,1.2-2.4-2.7c0.6-0.9-0.2-2.1-1.4-2.3c-1.3-0.3-1.9,0.6-1.8,1.9
			c0.1,0.9,0.1,1.8,0.1,2.7c-0.3,0-0.7,0-1,0c-1.6-16-1.2-32.1-1.8-48.1c-0.3,8.4,0.4,16.7-0.4,25.1c-0.3,0-0.6,0-0.9,0
			c0-3.3,0-6.6,0-10.4c-1,2.1-0.5,3.7-0.5,5.2c-0.3,8.9-0.6,17.9-0.3,26.8c0.2,6.6,0.7,13.3,0.7,19.9c0.1,5.6,1.4,11.6-3.3,16.4
			C136.8,632.6,136.9,633.1,136.9,633.5z M690.5,336.8c-2.2-0.4-3.3,1.3-4.5,2.6c-0.3,0.3-0.2,0.9-0.8,0.9c-2.2,0.2-4.2,1.5-6,2.4
			c-4,2-7.8,4.3-11.7,6.5c-9.8,5.6-19.4,11.8-29.1,17.5c-3.2,1.9-6.4,3.9-10.7,3.8c-6.9-0.2-13.9,0.2-20.8,0.2
			c-7.6-0.1-15.2,0.4-22.8,0.3c-10.3-0.2-20.5,0.2-30.7,0.4c-15.3,0.3-30.5,0-45.8,0.4c-6.1,0.2-12.4,0-18.6-0.4
			c-0.7,0-1.5-0.2-2.2-0.4c-6.2-1.6-12.2-3.5-18.7-3.8c-9.1-0.3-17.9,1.4-26.6,4c-3.3,1-6.6,2.3-10.1,0.5c-2.8-1.4-5.2-4.3-8.9-2.3
			c-0.2,0.1-0.5-0.1-0.8-0.2c-1.7-0.6-3.5-0.7-5.3-0.7c-16.3,0.2-32.6-0.7-48.9-1.1c-0.9,0-1.8,0.1-2.2,1c-1.1,2.3-3.2,2.3-5.3,2.3
			c-2.3-0.1-4.6-0.2-7-0.1c-17.6,0.4-35.1,0.8-52.7,0.8c-18.4,0-36.8-0.3-55.2,0.2c-10.8,0.3-21.6-0.2-32.4,0.5
			c-10.9,0.6-21.9,0.5-32.8,0.5c-11,0-22,0.1-33.1,0.2c-1.9,0-3.2-0.5-4.4-2.2c-2-3-4.6-5.6-6.9-8.5c-6.7-8.5-13.7-16.7-20.5-25.1
			c-1.9-2.4-3.7-5-5.9-8c6.2,0,11.5,0,16.9,0c10.8-0.1,21.6-0.2,32.4-0.3c1,0,2.3-0.3,2.8,0.7c0.4,0.9-0.7,1.6-1.2,2.4
			c-2.1,3-1.2,5.5,2.3,6.8c1.9,0.7,3.7,0.3,5.6,0.4c2.4,0.1,4.2-0.9,4.8-3.1c0.5-2,0.3-4.1-1.9-5.4c-1-0.6-1.6-1.3,0-1.9
			c0.6-0.2,1.3-0.2,1.9-0.2c14.2-0.2,28.4-0.5,42.6-0.7c11-0.1,22.1-0.1,33.1-0.1c4.2,0,8.3,0,12.5,0.1c0.5,0,1.2-0.1,1.5,0.6
			c0.2,0.7-0.5,1-0.9,1.3c-0.5,0.3-1.1,0.4-1.5,0.7c-1.4,0.9-1.7,2.4-1.8,3.9c-0.1,1.3,1,1.8,2,2.4c2.5,1.5,5.3,1.3,8,0.9
			c1.7-0.3,3.2-1.6,3.5-3.3c0.2-1.6,0-3.4-2-4.2c-0.8-0.3-1.4-1-1.5-1.9c0.5-0.5,1.1-0.4,1.6-0.4c19.9-0.6,39.8-0.1,59.7-0.3
			c1.3,0,3.3-0.7,3.9,0.6c0.5,1-1.2,2.3-2,3.3c-1.8,2.4-1,5.2,2,5.9c2.3,0.6,4.7,0.6,7-0.3c1.4-0.6,2.8-1.3,2.9-3.1
			c0.1-1.6,0-3.2-1.8-4.1c-0.8-0.4-1.8-1-1.7-2.6c2.4,0,4.7,0,7.1,0c28.3,0,56.5,0,84.8,0c1,0,2.3-0.4,2.8,0.7
			c0.5,1-0.7,1.6-1.4,2.2c-2.3,2.3-1.6,5.1,1.5,6.1c1.9,0.6,3.8,0.7,5.8,0.6c3.7-0.3,5.2-3.4,3.2-6.6c-0.3-0.5-0.8-0.8-1.1-1.3
			c-0.4-0.5-1.1-1-0.7-1.7c0.3-0.6,1-0.4,1.5-0.4c1.8-0.1,3.5-0.2,5.3-0.2c17.9-0.1,35.7-0.1,53.6-0.2c1.2,0,2.8-0.5,3.3,0.6
			c0.4,0.9-0.6,2.2-1.3,3.2c-1.9,2.6-1.5,3.5,1.3,5.3c2.2,1.3,4.5,1.1,6.8,1c2.4-0.1,3.6-1.5,4.3-3.4c0.7-1.9-0.8-2.7-2-3.6
			c-0.7-0.5-1.1-1-1-1.8c0.2-1,1.2-0.9,1.8-1c0.8-0.2,1.7-0.1,2.5-0.1c8-0.1,16-0.1,24-0.2c18.8-0.3,37.5-0.6,56.3-0.8
			c3.2,0,6.6-0.8,9.9,0.6c-1.3,1.3-1.8,2.8-3,3.9c-1.4,1.4-0.9,3.9,0.7,5.1c2.5,1.8,5.4,1.7,8.1,1c3.9-1,4.9-5.1,2-7.8
			c-0.8-0.7-1.9-1.3-1.5-2.4c0.4-1,1.7-0.5,2.6-0.5c18.8,0,37.6-0.1,56.4-0.1c10.2,0,20.4,0.1,30.6,0.2c0.8,0,2-0.3,2.2,0.6
			c0.3,1.1-0.9,1.1-1.6,1.6c-4.3,2.9-9,5.2-13.1,8.4c2.1,1.2,3.7,0,5.4-0.9c4.2-2.4,8.3-4.9,12.6-7c2.3-1.1,4.2-4,7.6-1.9
			c-2.4,2.3-5.7,3.4-8.4,5.5c1.1,0.4,1.7-0.2,2.5-0.6c2.2-1.1,3.9-2.8,6.3-3.6c3-1,3.2-0.9,3.3,2.2c0,0.2,0,0.4,0,0.6
			c0.2,15.2,0.7,30.3,0.4,45.5c0,2.1,0.4,4.2-0.2,6.8c-0.8-2.3-2.2-2.2-3.8-2.2c-8.7,0-17.5,0.1-26.2,0c-2.5,0-4.5-2.1-7.4-1.6
			c-2.2,0.4-2.4,1.5-2.5,3.2c-0.1,1.9,0.6,2.7,2.6,2.8c2.4,0.1,4.6-1.3,6.6-1.5c7.8-0.5,15.7-0.2,23.8-0.2c-2.1,3.8-2.8,4.4-4.6,3.4
			c-3.4-1.8-6.4-0.6-9.3,0.9c-2.9,1.4-3.5,4.2-2.6,7.3c1,3.4,3.7,4.6,6.9,5.7c-4.4,1-8.4,0.5-12.5,0.5c-0.9,0-2,0.4-2.7-0.3
			c-2-1.9-4.3-0.5-6.5-0.6c-1-0.1-1.3,0.8-1.3,1.7c-0.1,2.8,1.3,4,4.7,4.1c0.8,0,2-0.8,2.3,0.2c1,3.7,3.9,2.6,6.2,2.7
			c4.7,0.1,4.5,0,4.9,4.8c0.1,2.1-0.8,2.1-2.3,2c-2.6-0.1-5.1-1-7.6-1.7c-6.9-1.7-13.8-3.5-20.3-6.5c-5.2-2.4-10.5-4.8-15.8-8
			c2.2-0.7,3-2.4,4.4-3.3c1.7-1.1,3.2-3.2,2.1-4.7c-1.4-2-2-5-5-5.5c-3.1-0.5-4.7,1.2-5.8,5.2c-0.5,1.7,1,4.2-0.5,4.8
			c-1.7,0.7-2.7-2.2-4.7-2.6c-1.5-0.4-2.1-1.6-2.1-3.3c0-4.3,0.4-8.7-0.2-13c-0.7-5.2,2.1-7.5,6-9.5c0.2-0.1,0.4-0.1,0.5-0.2
			c2.3-1.9,5.4-2.5,7.5-4.7c-0.8-0.8-1.3-0.3-1.9,0.1c-3.8,2.2-7.5,4.5-11.3,6.7c-1.2,0.7-2.4,1.3-3.9,0.3
			c8.7-5.4,17.2-10.7,25.8-15.8c5.6-3.3,11.4-6.4,17-9.6c3.2-1.8,6.4-3.7,9.6-5.6C692,337.8,691.9,337.2,690.5,336.8z M528.6,563.3
			c1.5-1.4,2.1-2.6,3.3-2.9c4.8-1.5,9.6-2.9,14.5-4.3c3.8-1.1,7.6-2.1,11.4-3.1c0.9-0.2,1.3-0.7,1.3-1.5c0-0.9-0.7-1.2-1.5-1.3
			c-0.8-0.1-1.5,0-2.2,0.2c-7.2,2.1-14.4,4.3-21.6,6.4c-1.8,0.5-3.6,1.2-5.7,1.1c-2.5-0.1-5.6-1.8-7.7,1.7c-0.7,1.2-1.5,0-1.5-1.1
			c-0.1-2.3-0.2-4.7-0.2-7c-0.1-11.8-0.2-23.6-0.3-35.3c0-4.1-0.1-8.3,0-12.4c0-1.6,0.3-3.2,2.5-1.4c0.8,0.7,1.8,0.8,2.6,0.2
			c2.2-1.7,5-2,7.4-2c6.7-0.1,13.5-0.5,20.2,0c1.9,0.1,3.9-0.2,5.8-0.4c1.1-0.2,1.9-1,1.8-2.2c-0.1-1.3-1.2-1.5-2.3-1.6
			c-1.4,0-2.8,0-4.2,0c-10.1-0.5-20.5,2.2-30.4-2.2c-0.3-0.1-0.9-0.1-1.1,0.1c-3.2,2.9-2.4-0.3-2.4-1.6c-0.2-11.8-0.3-23.6-0.4-35.4
			c-0.1-5.8-0.1-11.5-0.1-17.3c0-0.9-0.3-2,0.8-2.5c1.1-0.4,1.7,0.5,2.3,1.2c0.6,0.7,1.2,1.5,2.3,1.2c3.7-1.1,7.4-1.1,11.1,0
			c6.8,2.1,13.7,4.1,20.5,6.2c1.7,0.5,3.1,0.3,4-1.6c-6.1-2.3-12.5-3.3-18.4-6.1c5.9-0.5,11.9-1.3,17.9-1.2
			c-0.9-0.3-1.8-0.3-2.6-0.3c-4.4,0-8.7,0.1-13.1-0.1c-1.3,0-2.9,0.5-3-2.3c-0.1-3.5-7.1-6.7-10.2-4.9c-1.1,0.6-2.9,0.3-3.2,1.9
			c-0.3,1.8-1.3,1.3-2.4,1c-3.6-0.8-7.3-1.7-10.7-3c-3.4-1.3-8.8,0-9.8-6.1c-0.4-2.6-6.1-4.6-8.9-3.9c-1.9,0.4-4,0.8-2.1,3.8
			c-4-0.3-7.4-1.6-10.8-2.5c-8.7-2.4-17.4-4.9-26.1-7.4c-8-2.3-16.1-4.4-24.1-6.8c-8.3-2.4-16.4-5.3-24.8-7.4
			c-9.4-2.3-18.7-5-28.1-7.5c-6.1-1.6-12.2-3.4-18.2-5.2c-1.3-0.4-2.6-0.8-1.6-2.7c2.4-4.4,4.6-8.8,7.6-12.8
			c0.4-0.6,0.7-1.1,1.7-1.1c9.2,0.2,18.4,0.3,27.6,0.4c1.2,0,2.3,0,2.9,1.5c0.5,1.4,2.1,1.6,3.4,1.2c1.8-0.6,3.1-0.3,4.3,1.3
			c0.8,1,2.2,1.2,3.4,0.7c1.5-0.5,0.7-1.7,0.5-2.6c-0.2-0.8-0.2-1.6,0.9-1.6c2.1,0,4.1,0.1,6.2,0.3c0.8,0.1,1.4,0.7,1.2,1.6
			c-0.7,2.7,0.9,3.9,2.9,5.2c4.4,2.9,8.6,2.1,11.4-2.4c0.6-1,1.2-0.5,1.9-0.3c4.9,1.2,9.8,2.5,14.7,3.7c8.9,2.2,17.9,4.3,26.7,6.7
			c7.3,2,14.6,4.3,21.9,6.3c1.2,0.3,1.8,0.6,1.9,1.9c0.1,1.9,1.5,2.6,3.2,2.4c1.8-0.2,3.2,0.2,4.6,1.3c1.3,1,3.6,2.9,4.2-0.9
			c0.1-0.8,0.8-0.4,1.1-0.3c1.2,0.2,2.3,0.6,3.5,0.8c2.6,0.6,2,1.8,0.9,3c-1.7,1.9-0.5,3.3,0.8,4.3c1.5,1.1,3.3,2,5.2,2.6
			c2.8,1,6.3-0.6,7.2-2.9c0.4-0.9-0.5-2.8,1.7-2.4c1.2,0.2,2.3,0.6,3.5,0.9c0.4,0.1,0.6,0.4,0.5,1c-0.5,2.6,0.3,3.5,2.8,3.2
			c2.4-0.2,4.4,0.1,6.1,1.9c0.6,0.6,1.8,1.4,2.4,0.1c1.2-2.8,2.8-1.2,4.2-0.6c5.4,2.4,10.8,4.8,16.1,7.5c3.1,1.6,7.7,2.1,7.3,7.3
			c0,0.2,0.2,0.3,0.3,0.5c0.9,1.4,0.4,2.7-0.5,3.8c-1.7,1.8-1.7,4.2-1.5,6.2c0.2,1.9,2.7,1.6,4.3,2c0.1,0,0.2,0.1,0.8,0.5
			c-4.1,0.2-7.7,0.4-11.2,0.6c1,0.4,2,0.4,2.9,0.4c4.6,0.2,9.3,0.3,13.9,0.5c1.8,0.1,2.9,0.5,2.9,2.9c0,11.5,0.4,23,0.5,34.5
			c0.2,19.6,0.4,39.3,0.6,58.9c0.1,7.7,0,15.3,0.1,23c0,1.9-0.4,2.9-2.9,3c-9.7,0.4-19.4,0.3-29.2,0.6c-7.6,0.2-15.4-0.9-22.8,1.6
			C532.1,562.4,530.8,562.7,528.6,563.3z M506.4,525.8c0.7,12.1,0.5,20.7,0.5,29.4c0,1.7-0.3,2.8-2.3,3.3
			c-7.3,1.9-14.6,4.1-21.9,6.1c-15.5,4.3-30.9,8.6-46.4,13c-8.3,2.4-8.6,2.2-8.1-6.4c0.4-6.6,0.4-6.6,7.4-5.9c1.3,0.1,2,0.1,1.8-1.5
			c-0.1-0.7-0.1-1.5-0.1-2.3c-0.2-5.4-0.2-5.5-5.7-5.5c-2.6,0-3.7-0.8-3.7-3.6c0.1-9.1,0.1-18.1,0.1-27.2c0-4.7,0.1-4.8,4.7-4.8
			c4.1,0,4.1,0,4-3.9c0-0.9-0.1-1.9,0-2.8c0.5-2.4-0.3-3-2.7-2.7c-6.2,0.6-6.4,0.3-6.1-5.9c0-0.2,0-0.4,0-0.6
			c-0.1-2,0.6-2.7,2.8-2.7c12.7-0.3,25.5-0.9,38.2-1.2c11.4-0.3,22.8-0.2,34.2-0.3c2.1,0,3.2,0.3,3.2,2.9
			C506.3,511.9,506.4,520.6,506.4,525.8z M506.1,472.4c0.1,0,0.3,0,0.4,0c0,7.1,0,14.1,0,21.2c0,1.7-0.3,2.5-2.3,2.6
			c-23.8,0.2-47.5,1.7-71.3,1.7c-4.9,0-4.9,0-5-4.7c-0.1-5.5-1.2-5.3,5.5-5.1c2.7,0.1,3.4-1.2,3.5-3.3c0.1-6.4,0.1-6.4-6.5-6.5
			c-0.1,0-0.2,0-0.3,0c-2.1,0.3-2.8-0.7-2.8-2.7c0.1-9.7,0.1-19.4,0-29.1c0-2.6,1-3.3,3.3-3.3c0.6,0,1.1,0.1,1.7,0.1
			c4.2-0.1,4.7-0.7,4.4-4.8c-0.3-4.1-0.3-4.1-4.6-4.3c-0.8,0-1.7-0.1-2.5-0.1c-1.6,0-2.3-0.8-2.2-2.5c0.1-2.3,0.1-4.5,0.1-6.8
			c-0.1-4.2,0.1-4.4,4.3-3.4c8.3,1.9,16.4,4.5,24.6,6.7c16,4.4,31.7,9.5,47.8,13.3c1.5,0.3,2,1.1,2,2.6
			C506.1,453.5,506.1,463,506.1,472.4z M400.5,498.8c-10.9,0.8-19.2,0.5-27.5,0.6c-4.5,0.1-6-1.3-6.1-5.4c-0.1-10.3,0-20.6,0-30.9
			c0-8.9-0.2-17.7-0.2-26.6c-0.1-10,0-19.9-0.1-29.9c0-1.7,0.1-2.8,2.5-2.1c6.4,1.9,12.8,3.5,19.3,5.2c11,2.9,22,5.8,32.9,8.7
			c2.4,0.6,4.5,1.7,4,4.9c-0.2,1.6,0,3.2,0.1,4.8c0.1,7.2,0,5.7-6,5.8c-3.7,0-4,0.3-4,3.9c-0.1,6.5-0.4,5.6,5.4,5.3
			c4.1-0.2,4.8,0.3,4.8,4.3c0.1,9.5,0.1,19,0.2,28.5c0,1.8-0.7,2.4-2.3,2.4c-1.9,0-3.8,0-5.7,0c-1.4,0-1.9,0.4-2,2
			c-0.1,1.7,0.4,3.4,0.1,5c-0.4,2.2,0.3,2.7,2.5,2.6c7.2-0.5,7.2-0.4,7.7,6.6c0,0.3,0,0.6,0,0.8c0.3,2.3-0.5,3.4-3.1,3.4
			C414.7,498.7,406.3,498.8,400.5,498.8z M368.1,548.4c-0.3,0-0.6,0-0.9,0c0-13.3,0-26.6,0-39.9c0-8.3-0.8-7.5,7.8-7.7
			c15.1-0.4,30.2-0.2,45.4-0.1c5.7,0,6-1.4,5.9,6c0,5,0.6,4.7-4.5,4.7c-1,0-2.1,0.2-3.1,0c-2.7-0.5-3,0.9-2.9,3.1c0.2,6,0.1,6,6.2,6
			c3.9,0,4.2,0.3,4.3,4.1c0.2,9.3,0.1,18.7,0.4,28c0.1,2.8-0.9,3.5-3.6,3.5c-7.3-0.1-7.3,0-6.8,7.3c0.1,1.6,0.8,1.8,2.1,1.7
			c2-0.1,4.1,0,6.1,0c1.3,0,1.8,0.5,1.8,1.8c0,3.3,0,6.6,0.3,9.9c0.2,2.5-1.1,3.4-3,3.9c-7.8,2.1-15.6,4.2-23.4,6.3
			c-9.3,2.5-18.7,5.1-28,7.7c-3.2,0.9-4.1,0.4-4.1-3C368.1,577.4,368.1,562.9,368.1,548.4z M513.2,603.3c-0.2-1.3,1.4-2.4,0.1-3.3
			c-1.1-0.7-2.7-0.3-3.3,0.7c-1.6,2.7-3.5,2.6-5.9,1.4c-0.9-0.5-1.9-0.1-2.5,0.7c-0.6,0.8,0,1.4,0.5,2c0.4,0.5,1.1,0.8,0.7,1.8
			c-11.6,3.1-23.4,6.3-35.1,9.4c-3.9,1-7.7,2.2-11.6,3.2c-6.1,1.7-12.1,3.4-18.2,4.9c-0.8,0.2-2.4,1.3-2.7-0.7
			c-0.2-1.5,0.1-2.2,2-2.5c3.1-0.5,6.6-0.8,8.8-3.8c0.5-0.8,1.3-1.6,0.4-2.5c-0.7-0.7-2.1-0.7-2.6-0.2c-2.5,2.6-5.6,2.9-8.9,2.4
			c-0.3,0-1,0-1.1,0.3c-0.9,1.9-2.6,1-4,1.1c-4.8,0.4-9.4,3.5-7.8,8.3c0.7,2-0.4,2.2-1.5,2.3c-2.4,0.2-4.8,0.2-7.2,0.3
			c-0.7,0-1.5,0.1-1.7-0.6c-0.2-0.6,0.3-1.1,0.9-1.6c0.6-0.5,1.4-1.1,0.6-2.1c-0.7-0.8-1.4-1.2-2.5-0.9c-0.7,0.2-1.2,0.5-1.6,1
			c-1.6,1.8-3.4,2.3-5.8,1.5c-1.6-0.6-3.3-0.6-3.8,1.6c-0.3,1.1-0.9,1.2-1.9,1.2c-8.9,0-17.7,0.4-26.6,0c-1.3-0.1-2.2-0.6-3.1-1.7
			c-3.2-4.1-5.6-8.7-8.4-13c-1.1-1.7,0.2-1.9,1.3-2.1c8.4-2,16.6-4.6,24.9-6.9c10.3-2.9,20.6-5.7,30.9-8.6
			c6.1-1.7,12.2-3.8,18.3-5.5c9.7-2.7,19.5-4.9,29.1-7.8c8.3-2.6,16.9-4.3,25.1-7.3c0.7-0.3,1.8-0.7,2.5-0.2c3.5,2.6,7,1.3,10.6,0.3
			c2-0.6,3.2-1.7,3.6-3.4c0.4-1.5,1.4-2.1,2.5-2.3c6.2-1.3,12-3.6,18-5.5c1-0.3,1.6-0.3,2.4,0.7c2,2.5,9.5,2,11.1-0.8
			c1.4-2.5,3.2-3.7,6.1-3.3c1,0.1,2.1-0.1,3.1-0.1c7.3-0.1,14.7-0.3,22-0.4c1.5,0,2.3,0.1,2.2,2.2c-0.1,2.5-0.1,5.5,3.4,7
			c-2.6,0.6-1.9,1.8-1.2,3.4c1.5,3.3,1.2,3.8-2.2,5.4c-2.7,1.3-5.3,2.8-7.9,4.1c-4.4,2.2-8.8,4.4-13.3,6.6c-0.7,0.4-1.7,1-2.2-0.1
			c-0.8-1.8-2.1-1.3-3-0.5c-2.2,1.7-4.3,2.9-7.2,1.7c-1-0.4-2.2,0.2-2.4,1.4c-0.3,1.2,0.4,1.9,1.7,2c0.6,0,1,0.5,1.2,1.3
			c-2,0.6-4.1,1.1-6,1.9c-2.1,0.9-2.8,0.2-2.5-1.9c0.4-2.5-0.8-4-2.8-5c-2.4-1.2-7.7,0.2-9.6,2.7c-1.9,2.5-1.2,4.9,0.7,7.2
			c0.2,0.2,0.2,0.5,0.3,0.8C518,602.1,515.8,603.1,513.2,603.3z M745.2,505.7c0,0.4,0,0.9,0,1.3c-11.6,0-23.3-0.1-34.9,0
			c-22,0.3-44.1,0.7-66.1,1.1c-1.9,0-2.5-0.8-2.5-2.5c0-5.7,0-11.5-0.1-17.2c0-1.7,0.7-2.1,2.2-2.1c4.5,0,9.1-0.3,13.6-0.2
			c23.8,0.3,47.7,0.7,71.5,1.1c23.9,0.4,47.9,0.7,71.8,1c8.5,0.1,16.9,0.3,25.4,0.4c11.4,0.2,22.8,0.5,34.1,0.8
			c11.3,0.3,22.6,0.5,33.9,0.9c4,0.1,4.7,1.2,4.7,5.1c0,1.3-0.1,2.6-0.2,3.8c-0.3,3.5-0.8,3.8-4.4,3.9c-14.4,0.3-28.8,0.6-43.1,1
			c-23.8,0.5-47.5,1.1-71.3,1.5C768.3,505.8,756.7,505.7,745.2,505.7z M182.6,625c0,0.1,0,0.2,0,0.3c-10.7,0-21.4,0-32,0
			c-1.9,0-2.7-0.6-2.8-2.5c-0.3-7.1-0.6-14.2-0.2-21.3c0.1-1.5,0.7-2,2.2-2.3c2.8-0.5,5.5,0.9,8,0.4c6.6-1.3,13.3-0.5,19.9-0.9
			c14.5-0.8,29,0,43.5-0.5c15.9-0.5,31.9,0,47.9,0.2c2.8,0,6.4,2.8,6.2,5.5c-0.2,3.2,0.6,6.3-0.2,9.5c-0.6,2.2,2.2,5.4,4,4.5
			c1.5-0.8,2.2,0,3,0.6c5.5,3.5,9.2,3.4,14.1-0.6c0.8-0.6,1.2-1,2.3-0.8c2.3,0.4,3.1-1.2,3.4-3.2c0.1-1,0.1-2-0.1-3
			c-0.3-1.8,0-3.8,1.7-4.2c1.5-0.3,2.8,1.1,2.6,3.1c0,0.1,0.3,0.3,0.4,0.4c2.7,3.9,5.3,7.7,8,11.6c0.4,0.6,1.1,1.3,0.7,2
			c-0.4,0.8-1.3,0.5-2.1,0.5c-6.5,0-13-0.2-19.5,0.1c-16.3,0.6-32.7,0-49,0.6c-9.7,0.4-19.5,0.1-29.2,0.1
			C204.5,625,193.6,625,182.6,625z M761.7,652.6c-0.2,2.3-1.4,3.1-3.4,2.9c-0.8-0.1-1.1,0.4-1.3,1.2c-0.8,3.5-0.4,7.1-0.2,10.6
			c0.1,1.3,0.9,2.2,2.5,2c0.7-0.1,1.8-0.2,1.8,0.8c0.1,1.4-1.2,0.9-1.9,0.9c-9.3,0.2-18.6,0.3-27.9,0.5c-2.3,0.1-3.1-0.7-3.1-3
			c0-9.1-0.1-18.3-0.3-27.4c-0.4-16.4-0.8-32.9-0.6-49.3c0.1-3.5,0.2-3.5,3.7-3.5c6.1,0,12.1-0.1,18.2-0.1c7.2-0.1,7.2-0.1,7.3,7
			c0,0.8,0.1,1.5,0,2.3c-0.2,1.6,0.5,2.9,1.9,3.4c2.2,0.7,2.4,2.3,2.5,4.2c0,1,0.1,2,0.1,3c0.5-1.7,0.8-3.4,0.9-5.1
			c0-1.3,0.5-1.9,1.8-1.9c3,0.1,3.3-1.7,3-4.1c-0.2-1.2-0.3-2.5-0.2-3.7c0.4-6.2-0.8-5.3,5.2-5.4c0.6,0,1.1,0.1,1.7,0
			c1.9-0.2,2.4,0.6,2.5,2.4c0.2,5.2,0.5,10.5,0.2,15.7c-0.3,5.7,0.3,11.4,0.2,17.1c-0.1,5.2-0.1,10.4,0.3,15.6
			c0.7,9.5,0.4,19,0.5,28.5c0,1.2-0.5,1.9-1.7,2.2c-3.4,0.7-6.8,1.7-10.3,1.3c-0.6-0.1-1.7,0.7-1.7-0.6c0-0.9,0.9-0.8,1.5-0.8
			c1.9,0.1,2.5-0.8,2.3-2.6c-0.3-2.6-0.3-5.2-0.1-7.8c0.1-1.4-0.4-3.4-2.2-3.4C762.4,655.7,762.3,654.4,761.7,652.6z M321.3,614.1
			c-5.4-1.9-9.9-5-14.5-7.8c-11.6-6.9-23.7-12.6-35.9-18.3c-9.4-4.4-18.9-8.6-28.5-12.6c-3.1-1.3-6.5-2.7-7.4-6.7
			c-0.7-2.9-1.5-5.8-2.3-8.7c-3.3-12.2-4.1-24.7-5.2-37.2c-0.4-4.7-0.2-9.4-0.3-14.1c0-2.1,0.9-3.1,3.1-3.1c4,0,7.9-0.2,11.9-0.2
			c1.4,0,2.5,0.2,2.3,2.3c-0.3,2.6-0.1,5.3,0.2,7.9c0.4,2.6,1.9,3.9,4.4,3.5c1.2-0.2,2.4-0.4,3.5-0.9c1.8-0.8,2.5,0,2.7,1.5
			c0.3,1.6,0.3,3.2,0.5,4.8c1.1,9.3,4.2,18.1,8.2,26.5c0.9,2,2.2,4.2-1.2,5.5c-0.6,0.2-2.1,1-1.2,2.4c0.8,1.2,1.8,1.9,3.3,0.8
			c1-0.8,1.8-0.5,2.6,0.6c2.6,3.9,5.7,7.4,8.9,10.8c0.6,0.6,1.5,1.3,1.5,1.9c0,4,3.1,6.2,4.8,9.2c1.4,2.4,3.2,2.9,5.7,2.3
			c1.3-0.3,2.2,0.1,2.9,1.4c1.3,2.3,3.2,4.2,5.4,5.6c1.5,0.9,3.3,1.3,4.8,2.3c7.2,4.5,14.4,9,21.7,13.5c1.2,0.7,1.6,1.2,0.4,2.2
			C322.3,610.5,321.4,612,321.3,614.1z M324.5,393c-1.4,2-3.4,2.7-5.2,3.8c-6.7,4.2-13.5,8.2-20.2,12.4c-3.6,2.3-8.3,3.4-9.6,8.4
			c-0.2,0.8-0.8,0.5-1.3,0.1c-1.9-1.3-3.3-0.3-4.2,1.3c-1.8,3.3-5.5,5.3-6,9.4c-0.1,0.5-0.6,1-1.1,1.2c-2.7,1.3-4.1,3.8-5.8,6
			c-1.5,2-2.9,4.2-4.3,6.2c-0.6,0.8-1,1.9-2.3,1.5c-0.9-0.3-1.7-1-2.3,0.5c-0.5,1.2-0.1,2.3,0.8,2.7c1.6,0.7,1.2,1.7,0.7,2.8
			c-0.4,0.9-0.9,1.7-1.2,2.6c-3,9.3-5.7,18.7-7.1,28.4c-0.7,5.1-0.8,5.3-5.8,4.1c-2.8-0.7-3.8,0.5-4.5,2.8c-0.8,2.5-0.4,5.1-0.3,7.6
			c0.1,1.9-0.7,2.3-2.2,2.3c-4.4,0.1-8.9,0.1-13.3,0.4c-1.4,0.1-1.6-0.7-1.8-1.6c-0.8-2.9-0.5-5.8-0.4-8.7c0.7-17,3.6-33.7,6.9-50.3
			c0.8-3.8,2.6-6.8,6.4-8.3c2.2-0.9,4.2-2.1,6.3-3c12.4-5.3,24.6-11,36.6-17.2c8.8-4.5,17.4-9.4,25.6-14.9c2.6-1.8,5.4-3.4,8.1-4.9
			c0.7-0.4,1.9-1.8,2.5-0.1C320.3,390.9,322.4,391.7,324.5,393z M365.6,548.1c0.2,0,0.3,0,0.5,0c0,5.2,0,10.4,0,15.7
			c0,9.4,0,18.8,0,28.3c0,0.6,0.3,1.5-0.5,1.8c-0.8,0.3-1.1-0.5-1.4-1c-3.1-5.2-6.2-10.3-9.2-15.5c-5.8-9.8-11.6-19.7-17.5-29.5
			c-8.4-14.1-16.9-28.2-25.3-42.3c-1.7-2.8-1.4-3.2,1.7-3.3c16.1-0.5,32.2-0.7,48.3-0.7c2.8,0,3.5,1,3.5,3.6
			C365.5,519.4,365.6,533.8,365.6,548.1z M364.2,405c0.8,2,0.8,3.4,0.8,4.7c-0.1,8.6,0,17.2,0.1,25.7c0.3,20,0,40,0.3,60.1
			c0,1.8-0.5,2.8-2.5,2.8c-4.1,0.1-8.3,0.3-12.4,0.4c-12,0.2-23.9,0.3-35.9,0.6c-3.1,0.1-3.5-0.4-2-3.2c0.5-0.9,0.8-1.9,1.3-2.8
			c5.3-9,10.5-18,15.6-27c7.2-12.7,14.3-25.5,21.5-38.3C355.2,420.5,359.6,413.1,364.2,405z M789.7,347.8c1.4-2.5,0.9-5.1,1.4-7.7
			c0.1-0.4-0.1-1,0.5-1.2c0.5-0.2,0.8,0,1.2,0.5c3.6,4.3,6.5,8.9,6.4,14.9c-0.1,5.7,0,11.5,0,17.2c0,10.1,0.1,20.1,0,30.2
			c0,0.9,0.4,2.4-0.6,2.9c-2.1,1.2-4.4,0.7-6.6,0.2c-1.5-0.3-1.2-2-1.2-3.1c0-5.4,0-10.8,0-16.2c-1.2,3.9-0.7,7.8-0.8,11.7
			c-0.3,8.3-0.2,8.3-8.7,8.2c-6.7,0-5.7,0.9-5.9-6.1c-0.5-12.8-0.5-25.6-0.1-38.5c0.2-4.5,0-9,0-13.5c-0.2,0-0.5,0-0.7,0
			c0,8.3,0.1,16.5,0,24.8c-0.1,9.1-0.3,18.3-0.5,27.4c-0.2,7.2,0.1,5.5-6.1,5.7c-1.5,0.1-2.5-0.5-2.4-2.3c0.1-2.2-0.3-4.3-0.2-6.5
			c0.1-2.2-0.7-3.5-3.1-3.3c-2,0.2-2.5-0.8-2.5-2.4c0-5.1-0.1-10.2-0.1-15.3c0-1.7,0.3-2.8,2.5-2.9c1.4-0.1,3.2-0.5,3.2-2.7
			c0-3.5,0-6.9,0-10.2c-1.1-0.7-2.4,0.8-2.2,0.2c0.7-2.2-1.1-1.5-1.7-1.5c-1.8,0-2.2-0.9-2.2-2.5c0.1-4.7,0.1-9.4,0-14.2
			c0-2.1,0.6-3.2,2.9-2.9c1.9,0.2,3-0.7,2.8-2.8c-0.1-1.7,0-3.4,0-5.1c0-1.9-0.4-5.2,0.4-5.3c2-0.3,4.2,0.7,6.3,1.2
			c1.7,0.4,2.4,1.5,2.4,3.3c0,2,0.3,4.1,0.4,6.1c0.7-2.7,0-5.4,1-8c4.9,1.7,9,4.6,13.1,7.3c0.9,0.6,1.2,1.2,1.2,2.3
			C789.7,341.1,789.7,344.5,789.7,347.8z M725.6,331.5c-0.6-0.9-0.4-1.8-0.5-2.7c-0.2-2.3,0.4-3.6,3.2-3.5c7.5,0.2,15.1,0.1,22.6,0
			c1.8,0,2.8,0.3,2.7,2.5c-0.1,2.8,0.2,5.6,0.3,8.4c0.1,1.5,0.5,3,2.3,3c1.8,0.1,1.9,1.2,1.9,2.5c0.1,5,0.2,10,0.3,15.1
			c0,1-0.6,1.8-1.4,1.8c-3-0.1-2.9,2-2.8,4c0,2.6,0.1,5.3,0,7.9c0,1.8,0.4,3,2.5,2.7c1.2-0.2,1.7,0.3,1.8,1.6
			c0,5.6,0.1,11.1,0.2,16.7c0,0.7-0.1,1.8-1,1.8c-3.5-0.1-3.2,2.3-3.2,4.6c0,1.5-0.1,3,0,4.4c0.2,2.5-0.9,3.3-3.3,3.2
			c-7.5-0.2-15.1-0.3-22.6-0.3c-1.6,0-2.4-0.6-2.2-2.1c0.3-3.4-0.4-6.8-0.4-10.2c-0.1-14.1-0.2-28.3-0.3-42.4
			c-0.1-5.7-0.5-11.4,0.2-17.2c1.4,0.3,2.8,1.5,3.9-0.2c0.4-0.7,0.3-1.5-0.3-2.1C727.8,329.2,726.9,331.1,725.6,331.5z M251.9,383.3
			c5.6,0,11.2,0,16.8,0c1.8,0,2.6,0.4,2.4,2.5c-0.2,3-0.6,6.1,1.3,8.8c0.4,0.5,0.4,1.1-0.1,1.5c-2.9,2.3-4.4,5.8-9.4,5.8
			c-16.3,0.1-32.6,0.1-48.9,0.2c-12,0.1-24,0.2-36,0.3c-3.4,0-6.8-0.1-10.2,0.2c-6.9,0.6-13.9,0.2-20.8,0.4c-1.8,0-2.2-0.8-2.3-2.4
			c-0.1-1.4,0.8-3.3-1.3-4.2c-0.2-0.1-0.2-0.9-0.1-1c1.7-1,0.9-2.5,0.9-3.8c0-2-0.2-4-0.6-6c-0.3-1.6,1.3-3.9,1.1-6.1
			c-0.3-2.8,1-3.7,3.6-3.6c3.5,0.1,7,0,10.5-0.1c2-0.1,2.3,0.4,1.2,2.2c-1.8,3.1-1.3,7.9,1.4,8.9c4.1,1.6,8.9,1.8,12.6-0.2
			c2.4-1.3,4.6-1.4,7-1.9c2.5-0.6,3.8,0.4,3.9,3.2c0.1,2.7,2.5,3.9,4.8,2.6c1.5-0.9,1.4-2.3,1.3-3.7c0-0.8-0.8-1.9,1-2
			c1.9-0.1,3.7-0.6,5.6-0.7c9-0.2,18.1-0.2,27.1-0.9C233.7,382.5,242.8,383.5,251.9,383.3z M723.5,455.5c-0.2,0-0.4,0-0.6,0
			c0-4.3,0-8.6,0-12.9c0-4.9-0.1-9.8,0-14.7c0-0.8-0.4-2.3,1.3-2.3c1.4,0,2.4,0.5,2.5,2.1c0,0.5,0.1,0.9,0.1,1.4
			c0.1,4.7,0.3,9.3,0.4,14c0,2,1.2,3.3,2.7,2c1.8-1.5,3.6-1.4,5.5-1.2c2.7,0.3,3.1-0.9,3-3.2c-0.2-3.1-0.1-6.2,0-9.2
			c0.1-1.7,1-2.5,2.6-1.6c4.2,2.3,8.5,4.3,12.4,7c5.4,3.7,10.5,7.8,15.7,11.8c1.2,0.9,1.9,1.9,1.8,3.6c-0.2,2.4-0.3,4.8-0.3,7.3
			c0,7.5,0,15.1,0,22.6c0,2.4-0.4,3.8-3.4,3.7c-13.5-0.5-26.9-0.8-40.4-1c-2.7,0-3.3-0.9-3.3-3.4
			C723.6,472.8,723.5,464.2,723.5,455.5z M721.9,416.1c0.8-3,1-5,0.9-6.9c-0.1-1.7,0.6-2.2,2.3-2.3c6.7-0.2,13.4-0.1,20.1-0.1
			c12.3,0.1,24.5,0,36.8,0c2.1,0,3,0.5,2.9,2.9c-0.1,6.2,0.2,12.4,0.2,18.5c0,1.1-0.1,2.3-0.8,3.3c-2.9,4-5.1,8.5-8.7,12.1
			c-1.2,1.2-1.8,1-3.1,0.4c-4.6-2.5-8.6-5.8-12.8-9c-8.8-6.8-18.9-10.9-29.6-13.7c-2.7-0.7-6.2-0.3-7.9-3.5
			c-0.1-0.2-0.1-0.7-0.5-0.2c-1.4,2.4-3.2,0.6-4.9,0.5c-1.5-0.1-1.4-1.2-1.4-2.3c0-1.3,0.8-1.5,1.9-1.4c0.7,0.1,1.8,0.2,2.2-0.2
			C721.2,412.5,721.8,413.1,721.9,416.1z M358.4,608.2c-2.1-2.7-3.5-5.7-6.9-7.5c-2.4-1.2-3.5-4.3-5-6.7c-5-8.2-9.9-16.6-14.7-24.9
			c-1.4-2.5-3.8-4.9-3.8-7.8c0.1-2.8-1.3-4.5-2.6-6.4c-1.3-1.8-1.4-5.1-4.9-4.6c-0.2,0-0.6-0.4-0.8-0.7c-2.2-4.1-5.1-7.9-7-12.2
			c-0.4-1-0.6-1.8,0.2-2.4c1.3-1,1-2,0.4-3.2c-1.2-2.3-1.9-5.1-5.6-4.3c-0.2,0-0.6-0.2-0.7-0.4c-1.5-2.6-3.6-5.1-4.1-7.9
			c-0.9-5-3.9-10.7-8.2-12.8c-1.2-0.6-1.9-1.8-1.9-2.9c0-1.1,1.5-0.8,2.4-0.9c1.5-0.2,3-0.1,4.5-0.2c5.1-0.3,9.9,0.2,11.6,6.2
			c0.1,0.2,0.2,0.3,0.3,0.5c6.2,10.2,12.4,20.5,18.6,30.7c6.7,11.2,13.3,22.4,20,33.6c4.5,7.6,8.9,15.2,13.4,22.9
			c0.7,1.2,1.5,2.4,0.6,4C362.6,603.1,361.1,605.9,358.4,608.2z M357.8,390c1.7,3.1,3.2,6,4.8,8.8c0.8,1.5,0.8,2.8-0.1,4.2
			c-5.6,9.8-11,19.6-16.6,29.4c-5.3,9.4-10.6,18.8-15.8,28.2c-6.6,11.8-13.1,23.6-19.8,35.3c-0.7,1.2-1.3,2.8-3.2,2.8
			c-4,0-7.9,0.2-11.9,0.2c-1.4,0-1.6-0.6-1.1-1.8c0.5-1,1-2,2.2-2c2.7,0.1,3.8-1.6,4.5-3.7c1.2-3.3,4.5-5.6,3.3-10.1
			c-0.5-1.9,2-4.5,3.4-6.6c1-1.4,1.9,0.1,2.9-0.2c2.7-0.8,2.9-3.5,4.1-5.4c0.5-0.9,0.9-2-0.6-2.8c-1.4-0.7-1.4-2.1-0.7-3.4
			c2.3-4,4.5-8,6.9-12c0.4-0.6,1-1.2,1.7-1.4c2-0.7,6.3-6.4,5.5-8.1c-1.1-2.3,0-3.8,1-5.5c6.8-12,13.6-24,20.4-36.1
			c0.8-1.4,1.5-2.2,3.1-1.6c0.7,0.3,1.5,0.5,2-0.4C355,395.6,356.3,393,357.8,390z M292.2,582.5c0.4-1.3,0.6-2.9,2.3-3.8
			c2.5-1.3,4.8-2.8,7.2-4.2c6.4-3.8,12.6-7.8,19.3-11c2.2-1.1,3.2-0.5,4.5,1.4c2.7,4,5,8.2,7.4,12.3c4.5,7.6,9.1,15.2,13.5,22.8
			c1.8,3,1.5,3.4-1.6,4.3c-3.6,1.1-7.3,1.9-10.8,3.3c-3.1,1.3-5.7,1.2-8.5-0.6c-4.5-2.8-9.1-5.4-13.6-8.3c-4.7-3.2-9.8-5.9-14.4-9.2
			C295.2,587.9,292.5,586.1,292.2,582.5z M330.6,392.5c4.8,1.2,10,2.4,15,3.9c1.3,0.4,1.3,1.4,0.5,2.7c-4.6,8-9.1,16.2-13.7,24.2
			c-2.6,4.6-5.3,9.1-7.9,13.7c-0.7,1.3-1.4,1.5-2.7,0.8c-3.7-2.1-7.5-4.1-11.3-6.1c-5-2.6-10-5.1-14.9-7.9c-1.5-0.9-3.6-1.2-4.2-3.4
			c-0.9-3.3,0.1-5.2,3.5-7.3c8.9-5.7,18.1-10.6,26.9-16.5C324.4,394.7,327,392.8,330.6,392.5z M286.8,403.1c0.1,0.2,0.1,0.4,0.2,0.5
			c-3.3,1.7-6.6,3.5-9.9,5.1c-5.1,2.5-10.5,4.7-15.5,7.3c-5.7,2.9-11.5,5.4-17.1,8.5c-4.2,2.3-8.8,4.2-10.8,9.2
			c-1.3,3.2-2.8,6.5-7.3,5.9c-1-0.1-1.4,0.5-1.8,1.4c-0.9,2.2-3,1.2-4.7,1.4c-0.7,0.1-1.3,0-1.3-1c-0.3-5.9-0.5-11.8-0.3-17.7
			c0-1,0.2-1.7,1.5-1.1c1.3,0.6,2.2,0.1,2.3-1.5c0.1-1.5-1.5-2.4-2.1-2c-2.2,1.3-1.6-0.6-1.8-1.4c-0.9-3.9,0.2-7.8-0.1-11.7
			c-0.1-1.8,0.7-3.1,2.8-3.1c7.4,0,14.9,0,22.3,0c6.4,0,12.8,0,19.1,0c0.7,0,2-0.6,1.7,1c-0.1,0.8-1.4,1.6,0.3,2.2
			c1.3,0.5,2.3,0.2,3.2-0.9c0.9-1,1.8-2.2,3.1-2.3C275.9,403,281.3,403.1,286.8,403.1z M256.8,481.2c0.4-2.3,0.9-6.2,1.8-10.1
			c1.7-7.2,3.3-14.5,6.9-21.1c0.7-1.3,1.2-1.7,2.8-0.8c4.5,2.5,9.1,4.8,13.7,7.2c7.6,4,15.6,7.3,22.1,13c1.1,1,1.5,1.7,0.8,3.1
			c-1.7,3.1-3.3,6.3-4.9,9.5c-0.8,1.6-2.2,1.5-3.6,1.6c-12,1-24,2-36,2.9C256.4,486.8,256.4,486.8,256.8,481.2z M283,517.5
			c3.4-0.3,7.7,0.4,12,0.6c1.4,0.1,2.9,0.1,3.8,1.8c1.4,2.7,3.1,5.3,4.6,8c0.6,1,0.5,2-0.2,2.9c-1.7,2-3.4,3.9-5.8,5.2
			c-6,3.4-11.8,7.2-17.8,10.6c-3.4,1.9-6.8,3.9-10.1,5.9c-1.8,1-3.3,0.9-4.4-1.2c-4.9-9.6-7.9-19.7-8.6-30.4
			c-0.3-4.4,0.3-4.8,4.8-4.6C268.3,516.7,275.2,517.1,283,517.5z M268,596.5c-1.6,0-3,0-4.4,0c-1.6,0.1-3.1,0.1-2.6-2.3
			c0.2-1.3-0.7-2.1-1.9-1.8c-1.2,0.2-2.4,1.4-2,2.5c1,2.3-0.8,1.6-1.6,1.7c-3.7,0.1-7.5,0.1-11.2,0c-7.9,0-15.7-0.1-23.6,0
			c-1.7,0-2.3-0.6-2.3-2.3c0.1-5.2,0-10.4,0-15.6c0-6.3,0.1-12.7,0-19c0-2.4,1-3.2,3.3-3c1.7,0.1,3.4,0.1,4,2.3
			c0.2,0.7,1,1.2,1.8,1.1c3.3-0.5,4.2,1.4,4.7,4.1c0.3,1.5,1.1,2.9,1.2,4.3c0.3,4.3,3.4,6.1,6.7,7.6c10.7,4.8,21.4,9.4,32.1,14.2
			c3.9,1.8,7.9,3.5,11.7,6.2c-5.2,0.5-9.9,1.2-13.4-3.5c-0.9-1.2-2.8-2.9-4.5-1.1C264.2,593.8,267.2,594.6,268,596.5z M777.4,615
			c-0.2,0-0.4,0-0.6,0c0-2.6,0-5.2,0-7.7c0-5.8-0.2-11.5,0.2-17.3c0.1-1-0.1-2.3,1.7-2.3c3.4,0.1,6.8,0.2,10.2,0.2
			c1.3,0,1.9,0.5,2.1,1.8c0.2,1.2,0.7,2.5,0.5,3.6c-1,6.4-0.1,12.8,0,19.2c0.2,15.6,0.1,31.1,0.3,46.7c0,1.4-0.5,2.4-1.6,3.4
			c-2.8,2.6-6.4,3.8-9.8,5.3c-1.7,0.8-2-0.5-2-1.9c-0.2-7-0.7-13.9-0.8-20.9C777.3,635.1,777.4,625.1,777.4,615z M281.2,429.6
			c1.6,0.4,3.8,0.5,5.6,1.4c9.9,4.9,19.6,10,29.2,15.6c2.1,1.2,1.8,2.4,0.9,3.9c-2.4,4.3-4.8,8.5-7.3,12.7c-0.4,0.7-1,1.9-1.9,1.3
			c-1.6-1.1-3.6-0.8-5.3-1.7c-6.5-3.3-13.1-6.4-19.5-9.7c-4.8-2.5-9.6-5.1-14.4-7.6c-1.3-0.7-1.6-1.2-0.6-2.5
			c2.1-2.9,3.8-6.1,6.1-8.7C275.8,432.3,277.6,429.8,281.2,429.6z M282.4,571.4c-1.1,0.2-2-0.3-2.8-1c-4.1-3.3-7-7.5-9.7-11.9
			c-0.5-0.9-0.4-1.6,0.4-2.2c3.1-1.9,6.1-4,9.3-5.6c4.9-2.5,9.7-5.2,14.6-7.8c3.1-1.6,5.9-4.1,9.5-4.7c2.2-0.4,4.7-2.2,6.4,0.9
			c2.3,4.2,4.7,8.3,7.1,12.5c0.8,1.4-0.3,2-1.3,2.6c-7.6,4.4-15.2,8.7-22.8,13.1C289.7,569.3,286.1,570.5,282.4,571.4z M503.8,438.8
			c-0.6-0.1-1.1-0.2-1.7-0.3c-10.2-2.7-20.3-5.4-30.4-8.2c-13.4-3.7-26.8-7.5-40.2-11c-3.5-0.9-5.4-2.5-6.1-5.9
			c-0.1-0.4-0.3-0.7-0.4-1c-0.4-1.7-2.2-3.9-1-5.1c1.2-1.2,3.5,0.2,5.3,0.7c9.6,2.6,19.2,5.1,28.8,7.8c8.2,2.3,16.4,4.7,24.6,6.9
			c9.2,2.5,18.4,4.8,27.5,7.1c1.5,0.4,1.8,1.2,0.8,2.3c-1.7,1.9-3.4,3.8-5.1,5.6C505.4,438.4,504.8,438.9,503.8,438.8z M633,429.4
			c-0.3-0.4-0.5-0.8-0.8-1.1c-5.7-6.4-15-5.1-20.2,0.4c-2.4,2.5-5.3,3.5-7.9,2.3c-3.3-1.5-6.7-3-9.9-4.6c-0.9-0.4-2-0.9-1.9-2.2
			c0.1-2.9-0.3-5.8,0.6-8.7c0.6-2,2-3.3,3.8-3.9c2-0.7,4.2-1.1,6.3-1.3c5.4-0.4,5.6-0.3,5.1,5.1c-0.2,2.6,0.8,3.8,3.3,3.7
			c5.3-0.1,10.7-0.3,16-0.4c2-0.1,3.3-1.2,4.1-2.9c0.8-1.8,2.1-3.4,4-3.3c2,0.1,2,2.4,2.4,4c0,0.2,0.1,0.4,0.1,0.5
			c0.8,10.8,0.8,21.6,0.7,32.4c0,1.6,1,4.1-0.7,4.6c-1.6,0.5-2.7-1.9-4.2-3c-1.8-1.3-2.1-2.3-0.4-4.2c2.9-3.2,3.7-7.1,2.5-11.3
			c-0.3,1.1-0.3,2.2-0.3,3.3c0.1,3.3-1.4,5.9-3.6,8.1c-0.7,0.7-1.2,0.9-2.1,0.1c-1.6-1.4-2-2.5,0.4-3.2c1.2-0.4,1.8-1,1.6-2.2
			c-0.2-1.1-0.9-1.2-1.9-1c-1.1,0.2-1.3-0.6-1.2-1.4c0.1-0.9-0.4-2.3,1.5-1.9c1,0.2,1.5-0.5,1.6-1.5c0.1-1-0.4-1.6-1.4-1.9
			c-0.6-0.2-1.8,0.2-1.6-0.6c0.4-2.5-1.6-3.5-2.6-5.2c-0.9-1.4-1.9-2-3.4-2c-1,0-2,0.1-3.5-0.8C625.2,424,629.1,426.3,633,429.4z
			 M516.4,562.4c-1.9-0.9-3.2-2.5-4.9-3.6c-1.2-0.8-1.7-1.6-1.7-3.1c-0.4-12.6-0.2-25.2-0.3-37.8c-0.2-24.1-0.4-48.2-0.8-72.3
			c-0.1-3.2,1-5.4,3.4-7.1c1.1-0.8,1.8-3.1,3.4-2.3c1.7,0.9,1.6,3.1,1.4,4.9c-1.1,14.2-0.1,28.5-0.4,42.7
			c-0.2,9.6,0.2,19.2,0.4,28.7c0.3,15.7,0.2,31.3,0.3,47C517,560.3,517,561.3,516.4,562.4z M512.4,567.3c-1.1,0.7-2.3,1.3-3.6,1.6
			c-9,2.2-17.9,5.1-26.9,7.5c-7.7,2.1-15.3,4.3-23,6.6c-6.1,1.9-12.2,3.7-18.3,5.5c-4.9,1.4-9.8,2.7-14.7,4.1
			c-1.7,0.5-2.3,0-1.5-1.8c1-2.3,1.8-4.7,2.6-7.1c0.4-1.2,1.2-1.8,2.4-2.1c11.7-3.3,23.3-6.7,34.9-9.9c11.5-3.2,23-6.1,34.5-9.2
			C505.1,560.7,508.5,561.9,512.4,567.3z M792.7,608.7c-0.2,0-0.5,0-0.7,0c0-5.9,0-11.7,0-17.6c0-1-0.3-2.4,0.8-2.8
			c2.2-0.8,4.7-0.9,6.9-0.2c1.7,0.5,1.2,2.5,1.3,3.9c0.6,18.2,0.5,36.4,0.1,54.6c-0.1,4.9-2.5,8.5-6,11.6c-0.5,0.5-0.9,1.8-1.9,1.2
			c-0.8-0.5-0.5-1.6-0.5-2.4C792.7,640.9,792.7,624.8,792.7,608.7z M341.4,373.9c0-0.2,0-0.3,0-0.5c5.9,0,11.9,0,17.8,0
			c0.9,0,2.3-0.6,2.3,1.1c0,1.2-0.9,1.6-2.2,1.6c-9.5,0.3-18.9,0.8-28.4,1c-11.2,0.2-22.3,0.1-33.5,0.2c-14.3,0-28.7,0-43,0
			c-11.9,0-23.9-0.1-35.8,0c-8.2,0.1-16.3,0.5-24.5,0.8c-1.1,0-2.6,0.2-2.6-1.4c0-1.6,1.6-1.1,2.4-1c12.3,0.2,24.7-0.9,37-0.9
			c23.8-0.1,47.6-0.2,71.4-0.7C315.4,373.7,328.4,373.9,341.4,373.9z M421.9,416.1c-2.7-0.2-4.8-0.8-7-1.4
			c-9.3-2.6-18.6-5.3-27.9-7.9c-4.8-1.3-9.6-2.6-14.4-3.9c-0.9-0.3-2.1-0.6-2.2-1.5c-0.4-2.2-0.9-4.8,0.3-6.6c1-1.5,3.3-0.3,5,0.2
			c12.7,3.6,25.4,7.1,38.1,11c2.1,0.6,5,0.4,6,2.9C420.7,411.1,421.1,413.5,421.9,416.1z M453.9,621.7c4.3-1.8,8-2.3,12.1-1.8
			c2.6,0.3,5.4,0.2,8.1-0.2c7.6-1,15.2-2.4,22.6-4.5c6.3-1.8,12.6-3.9,18.2-7.2c7.6-4.5,15.2-8.8,24-10.3c0.7-0.1,1.4-1,2.3,0
			c-1.2,1.1-2.2,2.3-3.5,3.2c-6.8,4.9-14.3,8.6-21.7,12.4c-8.3,4.4-17,7.8-26.3,9.5c-8.5,1.5-17.2,0.9-25.8,0.9
			C460.6,623.8,457.4,623.3,453.9,621.7z M588,374c5.1-0.4,10.2-0.6,15.3-0.6c10.7,0,21.5-0.4,32.2,0.3c1.4,0.1,2.6,0.2,2.7,1.8
			c0.2,4.5,0.1,9,0.2,13.5c0,1.1-0.5,1.3-1.4,0.9c-5.9-2.9-12-5.1-18.2-7.3C608.7,379,598.5,376,588,374z M422.9,584.4
			c-1.3,4.6-2.6,7.6-7.7,8.9c-14.1,3.8-28.2,7.9-42.4,11.7c-0.9,0.2-1.9,0.8-2.7,0.2c-1.2-1,0.1-6.5,1.5-7.2
			c4.2-1.9,8.8-2.6,13.2-3.9c8-2.3,16.1-4.4,24.2-6.5C413.5,586.5,418,585.5,422.9,584.4z M290.8,504.2c-12.5,0-24.9,0-37.3,0
			c-8.3,0-16.6-0.2-24.9,0c-1.8,0-2.4-0.3-2.4-2c0-1.9-0.3-4,2.8-3c0.3,0.1,0.7-0.1,1.1-0.1c18.7-0.1,37.5-0.3,56.2-0.4
			c2.2,0,4.8-0.5,3.8,3.3C290,502.7,290.6,503.6,290.8,504.2z M274.5,493.3c0,0.1,0,0.2,0,0.3c-7.4,0-14.8,0-22.3,0
			c-1,0-2,0.1-2-1.3c0-1.3-0.4-2.7,1.3-3.3c0.9-0.3,1.8-0.7,2.7-0.7c4.7-0.4,9.4-0.5,14-0.9c9.5-0.8,19.1-1.8,28.6-2.6
			c1.8-0.1,4.7-1,5.3,0.2c0.8,1.7-1.1,3.7-2.3,5.4c-0.9,1.3-1.3,3-3.6,2.9C289,493.2,281.7,493.3,274.5,493.3z M294.9,516.6
			c0,0.1,0,0.1,0,0.2c-14.4-0.8-28.7-1.7-43.1-2.5c-1.6-0.1-2.2-0.8-2.3-2.4c-0.1-1.7,0.3-3,2.3-3.1c7.3-0.6,14.6,0,21.9-0.1
			c5.9-0.1,11.9,0.4,17.8,0c3-0.2,4.7,1.1,6.4,3c1.1,1.2,2.6,3,2,4.4c-0.5,1.2-2.7,0.5-4.2,0.6C295.5,516.6,295.2,516.6,294.9,516.6
			z M113.3,549.2c-0.4-2.5-2.1-4.4-1.9-7.2c0.7-8.5,1.1-17.1,1.6-25.6c0.2-3.9,0.3-7.8,0.5-11.7c0.1-1-0.3-2.5,1.6-2.4
			c1.4,0.1,2.1-0.7,2.3-2c0.2-1.3-0.8-1.9-1.7-2.3c-0.7-0.3-1.5-0.3-1.5-1.4c0-3.6,0.5-7.2,1.3-10.8c0.7,3.4,3.1,6.2,3.1,9.8
			c-0.1,8.5-0.3,17.1-0.2,25.6c0,5.5-1.1,11-0.4,16.6C118.5,542.4,113.7,544.9,113.3,549.2z M538.4,399.8c-1.8,0.2-2.9,0-4.1-0.2
			c-2.9-0.6-4.8-2.6-7.3-3.9c-4.3-2.4-8.8-4.5-13.2-6.7c-6.5-3.2-13.2-6-20.2-7.9c-4.9-1.3-9.9-2.2-14.9-3.2
			c-7.1-1.4-14.3-2.1-21.6-1.3c-2.9,0.3-5.9,1.2-9-1.3c3.3-1,6.2-1.9,9.2-1.9c8.6,0,17.1-0.1,25.5,1.9c8.1,2,15.9,4.7,23.8,7.3
			c6.2,2,12.1,4.9,17.9,7.8C529.4,393,533.6,396.4,538.4,399.8z M752,582.7c-0.6,1.6-1.9,2.3-3.2,1.4c-1-0.6-1.6-0.2-2.4,0
			c-2.8,0.7-9.9-2.7-11.3-5.2c-1.9-3.4,0.8-7.6,5.5-8.9c3.2-0.8,6.5,0.1,9.6-0.8c0.7-0.2,1.3,0.5,1.9,0.9c0.6-0.8,0.2-2.3,1.6-2.4
			c1-0.1,0.9,0.8,0.9,1.4c0,4.4,0,8.9-0.1,13.3c0,0.8,0.2,1.9-0.9,2.2C752.3,584.9,753.1,583.2,752,582.7z M630.2,499.8
			c-0.4-5.2-0.3-10.5-0.1-15.8c0.1-1.7-0.1-3.5,2.6-3.3c2.3,0.2,4.3,0.1,4.4,3.3c0.1,9.7,0.4,19.4,0.7,29.1c0.1,1.9-1.3,2.8-2.6,2.4
			c-1.7-0.5-4.8,1.3-4.9-2.5C630.1,508.8,630.2,504.3,630.2,499.8z M300.7,605.7c-1.1,1.4-2.4,1.2-3.7,1.4c-0.7,0.2-1.9-0.3-1.9,0.6
			c-0.1,1.1,0.9,1.1,1.8,1c1.2-0.1,1.4,0.9,1.5,1.7c0.2,1.2-0.9,0.9-1.5,1c-0.8,0.2-1.9-0.5-2.5,0.7c1.5,1.3,3.2,0.8,4.8,0.7
			c0.6,0,1.2,0.2,1.2,0.9c0,0.9-0.8,0.6-1.2,0.7c-0.3,0.1-0.8-0.2-1.1-0.1c-1.6,0.4-4.5-1-3.8,2.7c0.1,0.6-0.6,1.2-1.3,1.3
			c-2.3,0.6-4.6,0.8-6.9,0.2c-0.5-0.1-1.3-0.4-1.1-1c0.7-2.1-1-1.8-2-2.1c-1.5-0.5-3-0.1-4.5,0c-0.4,0-1,0-1.1-0.6
			c-0.1-0.6,0.4-0.7,0.9-0.8c1,0,2.1,0,3.1-0.1c0.7,0,1.5,0,1.6-0.8c0.1-1-0.9-0.8-1.5-0.8c-1,0-1.7-0.1-1.7-1.3
			c0-1.2,0.7-1.4,1.6-1.5c0.5-0.1,1.2,0.1,1.5-0.8c-1.1-1-2.5-0.8-3.9-0.8c-0.9,0-1.9,0.1-1.8-1c0.1-1,1.2-0.7,1.8-0.7
			c2.2,0.2,4.1-0.4,6-1.3c-0.4-1.2-1.8-0.2-2.1-1.3c2.7-2.6,8.6-3.1,11.1-0.9c0.4,0.3,0.4,0.5,0.2,0.9c-1,2.1,0.6,1.9,1.8,2
			C297.7,605.8,299.2,605.7,300.7,605.7z M108,483.8c0,0-0.1,0-0.1,0c0-1-0.1-2.1,0-3.1c0.1-0.7-0.6-1.9,0.9-1.9
			c1.4,0,1.3,1.1,1.3,2c-0.2,5.5-0.5,11-0.8,16.5c-0.1,1.2-0.1,2.6-2.1,1.6c-0.8-0.4-2.1-0.3-2.3,0.9c-0.2,1,0.4,2.5,1.5,2.4
			c3.7-0.3,2.5,2.5,2.5,4c-0.1,4.8-0.6,9.5-0.9,14.3c-0.4,7.2-0.8,14.4-1.3,21.6c-0.1,0.9,0.4,2.6-1.4,2.6c-1.9,0-1.1-1.6-1.2-2.5
			c-0.1-4-0.2-8-0.3-12c-0.2-10.6-0.4-21.3-0.2-31.9c0-1.6,0.4-2.3,2-2.2c1.5,0.1,1.9-0.7,1.9-2.1
			C107.5,490.6,107.8,487.2,108,483.8z M298.5,427.3c0.8,0.4,1.4,0.7,2,0.9c5.1,2.4,9.9,5.4,14.9,8c2.9,1.5,6.1,2.7,8.8,4.8
			c1.1,0.9,1.5,1.5,0.6,2.7c-0.6,0.8-1,1.8-1.6,2.7c-0.7,1.1-1.4,1.6-2.9,0.7c-2.9-1.7-6-3-8.9-4.7c-4.9-2.9-10.1-5.3-15-8.2
			c-1.8-1.1-0.9-2.4-0.5-3.2C296.4,429.6,297.6,428.5,298.5,427.3z M104,459.7c-0.4,0-0.7-0.1-1.1-0.1c0-3.6-0.2-7.3,0-10.9
			c0.5-8.7-0.4-17.3-0.1-26c0.2-8-0.1-16-0.3-23.9c-0.1-2.6,1.4-2.9,3.6-2.9c2.4,0,2.6,1.4,2.5,3.1c-0.1,3-0.4,6-0.6,9
			c-0.3,7.9-0.9,15.9-1.9,23.8c-0.5,3.5-0.2,7.1-1.8,10.5c-0.5,1.1-0.1,2.3,0.2,3.6C105.5,450.5,104.6,455.1,104,459.7z
			 M518.9,394.2c-5.6-0.2-55.1-13.5-56.4-15.1C482.3,377.5,506.4,385.8,518.9,394.2z M291.5,391.1c1.6,1.1,3.3,0.3,4.8,0.5
			c0.9,0.1,1.5,0.5,1.3,1.4c-0.2,0.9-0.9,0.8-1.6,0.5c-0.4-0.2-0.9-0.3-1.4-0.2c-1.6,0.3-4.5-1.6-4.1,2.4c0,0.4-1,1.1-1.7,1.3
			c-1.7,0.6-3.5,0.8-5.3,0.6c-0.9-0.1-2.7-0.1-1.7-2.1c0.2-0.4-0.5-0.9-1.2-0.9c-1.6-0.2-3.1-0.7-4.7-0.5c-0.7,0.1-2,0.6-2.1-0.6
			c-0.1-1.2,0.9-1.5,2.1-1.6c1-0.1,2.4,0.6,3.3-1c-0.8-0.2-1.4-0.3-2-0.4c-0.6-0.1-1.2-0.4-1-1c0.1-0.4,0.5-0.8,0.9-1
			c0.8-0.4,2.6,0.6,2.3-0.9c-0.2-1.2-2-0.4-3-0.6c-0.4-0.1-0.8,0-1.1,0.1c-0.6,0.1-1.2,0.1-1.2-0.7c0-0.6,0.3-1.3,0.9-1.3
			c3,0,5.6-1.7,8.6-1.9c4.3-0.3,8.2,2.1,12.5,1.5c0.5-0.1,1.7-0.3,1.6,0.9c-0.1,1-0.8,1.2-1.8,1.3c-1.3,0.1-2.7-0.5-4,0.6
			c0.9,0.7,2.4-0.4,2.5,1.3C294.8,391.2,292.3,389.8,291.5,391.1z M319.9,383.5c-1.6,1.1-2.4,1.9-3.4,2.6
			c-6.8,4.4-14.1,8.2-20.7,12.9c-1.5,1.1-3,2.4-5,2.5c-5.7,0.2-11.5,0.2-17.2,0.2c-0.5,0-1.2,0-1-0.9c0.3-1.7,4.1-3.6,5.6-2.9
			c2.7,1.2,5.5,1.3,8.5,1.3c4.4,0,7-4.7,11.6-4.1c0.2,0,0.5-0.6,0.8-0.8c3.2-2.5,2.6-6,1.9-9c-0.5-2.1,0.4-1.9,1.6-2
			C308,383.2,313.6,383,319.9,383.5z M224.5,467.6c0,7.2,0,14.4,0,21.6c0,0.7,0.3,1.4-0.7,1.5c-0.6,0.1-1-0.5-1.2-1
			c-1.6-3.9-3.7-7.7-3.8-12c-0.3-10.3-0.4-20.5-0.5-30.8c0-1.9,0.4-3.2,2.9-3.1c2.1,0.1,3.2,0.3,3.3,2.8
			C224.9,453.6,224.7,460.6,224.5,467.6z M224.9,535.6c0.2,6.1,0.3,12,0.1,17.9c-0.1,2.6-2.1,1.9-3.6,1.9c-1.4,0-2.8,0-2.8-2.1
			c0.1-4,0.2-7.9,0-11.9c-0.6-10.8,0.2-21.4,4.7-31.5c0.4-0.8,0.2-1.9,1.7-2.3c0.6,6.5,0.2,12.9-0.3,19.3c-0.3-0.6-0.5-1.3-0.5-1.9
			c-0.1-1.3-0.4-2.3-1.9-2.2c-1.4,0.2-1.4,1.4-1.4,2.4c0,2.3,0,4.5,0,6.8c0,1.7,0.1,3.4,0.2,5.1c0.1,1.2,0.7,2.2,2.1,2.2
			c1.6-0.1,0.8-1.4,0.9-2.2C224.1,536.6,224.1,536.1,224.9,535.6z M521,603.1c-8,5.4-16.7,9.3-25.9,11.6c-9.3,2.3-18.7,4.4-28.4,3.6
			C484.6,612.6,502.7,607.5,521,603.1z M299.9,566c0-0.8,0.6-1.2,1.2-1.5c5.9-3.3,11.8-6.6,17.7-9.8c2-1.1,4-0.2,5.4,2.2
			c1.3,2.1-0.4,3.4-1.6,4.1c-6,3.6-12.2,7-18.4,10.4c-1.6,0.9-4-0.1-3.9-1.9C300.3,568.3,300.5,567.2,299.9,566z M724.6,369.9
			c0.1,0,0.2,0,0.3,0c0,5.8,0.1,11.7,0,17.5c-0.1,5.3,0.6,10.6-0.1,15.9c-0.1,0.6,0.3,1.4-0.8,1.4c-0.9,0-1.1-0.6-1.1-1.4
			c0-0.7,0-1.3-0.1-2c-0.4-6.4,0-12.9-0.1-19.3c-0.2-8-0.6-16.1-0.7-24.1c-0.2-9.9-0.2-19.9-0.3-29.8c0-0.8-0.4-2.2,0.9-2.3
			c1.4-0.1,1.5,1.2,1.5,2.2c0.2,3.6,0.5,7.2,0.5,10.7C724.6,349.2,724.6,359.5,724.6,369.9z M351.7,396.9c-0.1-0.1-0.2-0.1-0.3-0.1
			c-8.5-2.3-17-4.7-25.5-7c-0.4-0.1-0.9-0.1-0.9-0.8c0.1-1.4,4.2-4.4,5.5-3.9c2.3,1,4.8,1.5,7.2,2c5.1,1,10.1,2.2,15,4
			c0.7,0.3,2.3,0.1,1.8,1.5C354,394.3,353.5,396.1,351.7,396.9z M126.3,490.2c0.9,7.6,1,14.6,1,21.5c0,5.7,0.3,11.4-0.1,17.1
			c-0.1,1.6-0.9,2.1-2.4,2c-1.4-0.1-2.6-0.1-2.6-2.1c-0.3-8.3,0.5-16.6,0.5-24.9c0-1.1,0.3-1.9,1.6-2.3c2-0.6,2.5-2,0.6-3.2
			c-1.9-1.2-1.4-2.4-0.7-3.8C124.9,493.3,125.5,492,126.3,490.2z M331.5,615.7c-1.4-0.2-2.5-1.4-3.8-2.2c-1.1-0.7-1.2-1.4,0.2-2.2
			c2.4-1.2,5-1.7,7.5-2.5c5.3-1.7,10.7-3.5,16.2-4.6c2.6-0.5,3.2,1.4,3.6,3c0.4,1.7-1.5,1.7-2.6,2.1c-2.7,0.8-5.3,1.7-8,2.6
			C340.3,613.3,336.1,614.4,331.5,615.7z M726.5,670.5c-2.1-10.2-2.6-78.7-0.6-81.9C726.5,615.9,727.4,643.2,726.5,670.5z
			 M357.6,614.8c1.6,1.8,2.7,3.8,3.8,5.8c1.6,2.8,1.5,3-1.8,3c-11.5,0.2-22.9,0.3-34.4,0.4c-0.9,0-1.7,0-2.5-0.7
			c2.8-2.1,5.3-5.1,9.4-2.3c0.3,0.2,0.7,0.1,1.1,0.1c6.9,0,13.8,0,20.6,0c2.3,0,3.5-1.2,3.6-3.4C357.6,616.8,357,616,357.6,614.8z
			 M127.3,555.7c0.1,0,0.2,0,0.3,0c0,0.8,0,1.6,0,2.5c0,0.5-0.1,1.2-0.8,1.3c-0.6,0.1-1.1-0.5-1.1-1c0.2-3.1-1.8-4-4.3-4.6
			c-2-0.4-2.2-1.7-1.4-3.3c1.9-3.6,2.3-7.5,2.7-11.4c0.2-2.1,1.1-2.6,3-2.6c2.1,0,1.7,1.6,1.7,2.7
			C127.3,544.7,127.3,550.2,127.3,555.7z M219.3,485.2c0.9,1.9,1.9,3.8,2.6,5.7c0.6,1.5,2.7,1.6,2.8,3.4c0.1,2.9,0.3,5.8,0.1,8.7
			c-0.1,1.5-1.7,2.3-2,4.1c-0.7,3.8-2.1,7.4-4.1,10.8C218.6,507,218.2,496.1,219.3,485.2z M107.6,446.5c1.2,2.9,0.7,5.3,0.5,7.6
			c-0.5,9.6-1.8,19.1-1.9,28.6c0,2.9-0.3,5.8-0.5,8.7c0,0.7,0.1,1.8-0.8,1.9c-0.8,0.1-1.7-0.2-2.4-0.6c-0.8-0.5-0.6-1.4-0.4-2.3
			c1.2-9.7,2.4-19.4,3.5-29.1C106.1,456.6,106.5,451.8,107.6,446.5z M598.7,430.6c0,0.3-0.1,0.6-0.1,0.8c-2.8,0-5.6,0-8.3,0
			c-1.9,0-3.7,0.4-3.5,3c0.1,1.3-0.6,1.6-1.7,1.6c-4,0-5.2,1.1-3.5-4.2c0.1-0.4,0.4-1.1,0.2-1.4c-1.9-2.3,0.1-3.4,1.1-5.2
			c0.9-1.5,1.7-1.7,2.8-1.1C590.2,426.2,594.6,428.1,598.7,430.6z M139.3,372.4c-12.7-13.5-24-28.1-35.7-42.4c0.9-0.4,1.6-0.5,2.1,0
			C117.3,343.8,129.4,357.2,139.3,372.4z M107.4,433.4c0.6-9,1.1-17.5,1.7-26c0.2-3.4,0.7-6.7,1-10.1c0.1-0.7,0.3-1.3,1-1.5
			c0.6-0.1,0.9,0.4,1,0.8c0.2,1.5,0.6,3,0.4,4.4c-0.8,8.8-1.6,17.5-2.5,26.3c-0.4,3.5-0.8,7-0.7,10.6c0,0.6-0.2,1.7-1.3,1.5
			c-0.8-0.1-0.7-1-0.7-1.6C107.3,436.1,107.4,434.5,107.4,433.4z M620.4,595.2c5.8-0.4,9.5,2.4,12.3,6.7c0.6,0.9,1,2.3-0.9,2
			c-2.5-0.4-4.1-3.2-7.1-2.7c-0.1-0.6-0.2-1.1-0.2-1.7c0-0.9-0.5-1.1-1.3-1.1c-0.8,0-1.4,0.4-1.2,1.2c0.4,1.6-0.2,2-1.7,2
			c-1.3,0-2.4,0.2-2.1-1.8c0.1-0.5-0.2-1.3-1.1-1.4c-0.8,0-2,0.3-1.9,0.9c0.6,3.2-1.8,2.1-3.2,2.2c-0.6,0-1.4,0.5-1.7-0.4
			c-0.3-0.7,0.4-1.3,0.8-1.7C613.6,596.4,616.9,595.1,620.4,595.2z M599.6,407.2c0-0.1,0-0.1,0-0.2c2.2,0,4.3,0,6.5,0
			c0.7,0,1.7-0.3,1.7,0.9c0,0.9-0.9,1.1-1.7,1.2c-2.4,0.3-4.8,0.5-7.3,0.8c-4.6,0.5-7.1,2.8-7.6,7.5c-0.2,1.7-0.2,3.4-0.4,5
			c-0.1,0.6,0,1.5-0.9,1.5c-1,0.1-1.2-0.8-1.3-1.5c-0.3-3.5-0.6-7.1,0.2-10.6c0.7-2.9,2.5-4.5,5.6-4.6
			C596.2,407.1,597.9,407.2,599.6,407.2z M617.6,542.5c0-1.5,2.5-5.8,3.5-5.8c2.1-0.1,7.3,4.7,7.3,6.8c0,2.7-2,4.4-5.1,4.4
			C618.8,547.9,617.7,546.8,617.6,542.5z M119,584.5c-2.7-3.5-4.4-7.3-5.5-11.4c-0.5-1.7,0.4-2,1.6-2.1c1.9-0.3,4-0.2,5.8-0.8
			c2.3-0.7,2.5,0.4,2.3,2C122.6,576.5,121,580.5,119,584.5z M141.6,613c-0.1,0-0.2,0-0.2,0c0-3.5,0-6.9,0-10.4
			c0-1.2-0.3-2.8,1.9-2.7c2,0.1,1.6,1.5,1.6,2.6c0,2.8,0,5.7,0,8.5c0,4,0.2,8.1-0.4,12.1c-0.2,1.1-0.4,2.1-1.7,2.1
			c-1.5,0-1.2-1.2-1.2-2.1C141.6,619.8,141.6,616.4,141.6,613z M632.2,614.1c-1.4,3.1-3.3,4.7-5.9,5.6c-0.7,0.3-1.6,0.8-1.7-0.8
			c0-0.8-0.6-1.7-1.7-1.3c-0.8,0.3-1.1,1-0.8,1.9c0.1,0.5,1,1.2-0.2,1.5c-0.9,0.2-1.7,0.1-1.7-1.2c0-0.8-0.5-1.2-1.2-1.3
			c-0.6-0.2-1.2,0.1-1.3,0.7c-0.3,2.2-1.5,1.2-2.5,0.7c-1.1-0.6-2.1-1.2-2.8-2.3c0.7-0.5,2.5,0,1.8-1.7c-0.7-1.8,0.6-1.7,1.6-1.7
			c3-0.1,6,0,9.1-0.1c1.1,0,2.4-0.3,1.9,1.7c-0.2,0.7,0.4,1.2,1.2,1.2c0.7,0,1.5-0.4,1.4-1.1C628.5,612.9,630.6,614.5,632.2,614.1z
			 M620.1,611c0,0,0,0.1,0,0.1c-2.6,0-5.3,0.1-7.9-0.1c-1.3-0.1-2.5-0.8-2.4-2.5c0-1.8,1.3-1.5,2.4-1.6c4.8-0.1,9.5-0.1,14.3-0.2
			c1.9-0.1,2.5,0.8,2.4,2.5c-0.1,1.9-1.4,1.8-2.7,1.7C624.2,610.9,622.2,611,620.1,611z M589.3,578.3
			C589.3,578.3,589.3,578.3,589.3,578.3c0.1-1.2,0.1-2.5,0.1-3.7c0-1.2,0.3-2.6,1.6-2.5c1.2,0.1,0.4,1.6,0.4,2.4
			c0.3,5.9,3.3,11.4,10.9,11.1c1.7-0.1,3.4,0.1,5.1,0.4c0.8,0.1,2.1,0.5,1.8,1.7c-0.2,0.9-1.3,0.6-2.2,0.5c-4-0.4-8-0.9-12-1.2
			c-3.7-0.3-4.9-1.4-5.4-5.1C589.4,580.7,589.4,579.5,589.3,578.3z M523.5,499.6c-0.7,0-1,0.1-1.2,0c-1.3-0.3-3.7,1-3.6-1.6
			c0.1-2.3,2.4-0.9,3.6-1.3c3.4-1.1,6.5,1.2,10,0.7c7.6-1,15.3-0.5,23-0.6c0.9,0,2.2-0.1,2.1,1.2c-0.1,1.2-1.3,0.7-2.1,0.8
			C544.6,499.6,533.8,498.1,523.5,499.6z M596.6,566.8c-2.6,1.4-5.2,2.6-7.5,4.1c-2.8,1.8-4.9,1.8-5.9-1.2c-0.9-2.5-0.6-5.3-0.8-8
			c0-0.1,0.3-0.2,0.4-0.3c1.9-1.1,4.7,0.3,5.1,2.5c0.4,1.9,1.1,3.3,3.5,3C593.1,566.6,594.8,566.8,596.6,566.8z M720.4,403.9
			c0,0.2,0.1,0.4,0.1,0.7c-1.1,0-2.1,0-3.2,0c-3.9-0.1-4.9,0.7-4.9,4.5c0,1.4,0,2.8,0.1,4.2c0.2,3.9-0.4,4.4-4.1,2.8
			c-0.3-0.1-0.6-0.3-0.9-0.5c2.3-2.1,3-4.9,1.3-5.6c-1.9-0.8-3-2.5-4.5-3.7c-0.6-0.5-1.8-0.8-1.4-1.9c0.4-0.9,1.5-0.5,2.3-0.5
			C710.4,403.6,715.4,404.7,720.4,403.9z M110.5,447.5c1.1,1.1,1.4,2,1.4,3c0.2,7.3-1,14.6-1.1,21.9c0,0.7-0.2,1.3-1.1,1.3
			c-0.8-0.1-1.6-0.1-1.6-1.1c0-0.6-0.1-1.1,0-1.7c0.2-3.7,0.4-7.3,0.7-10.9C109.2,456,109.5,451.9,110.5,447.5z M614.5,404.2
			c5.2-0.5,10.2-0.4,15.1,0c2.7,0.2,4.1,1.9,4.9,4.3c0.2,0.6,0.4,1.2-0.1,1.6c-0.5,0.4-1.1-0.1-1.4-0.5c-1.5-1.6-3.3-2-5.4-1.9
			c-2.4,0.1-4.7-0.1-7.1,0.1C617.8,407.9,615.9,407,614.5,404.2z M639.5,481.8c0.3,1.3,0.6,2.5,0.7,3.7c0.6,8.9,0.3,17.8,0.2,26.8
			c0,0.7,0,1.4-0.9,1.4c-1.2,0-0.8-1.1-0.8-1.7c-0.7-9.3-0.1-18.6-0.3-27.9C638.4,483.3,638.1,482.4,639.5,481.8z M615.9,576.2
			c1.9-0.6,3.3,0.5,4.6,2.1c1.1,1.4,0.8,2.6-1,2.7c-1.7,0.2-2.7,0.9-3.6,2.2c-0.8,1.2-2.3,0.8-3.6,0.7c-1-0.1-1.2-0.7-1.4-1.5
			C609.9,578.8,611.8,576.3,615.9,576.2z M720.9,401c-0.5-1.2-1-2.2-2.1-3.1c-4.4-3.3-4-9.1,0.4-12.2c1.6-1.1,1.9-0.6,2,0.9
			C721.3,391.4,721.4,396.1,720.9,401z M129.7,537.4c1.4,12.1,1,24.2,0.2,36.3C129.1,561.6,128.5,549.5,129.7,537.4z M421.8,564.1
			c-4.3,0-4.1,0-4.3-3.4c-0.1-2.9,1-3.7,3.7-3.3c0.9,0.1,1.9,0,2.8,0c0.9,0,1.4,0.3,1.7,1.2C426.9,562.2,425.6,564,421.8,564.1z
			 M617,590.4c0.7-2.4,1.8-3.1,3.5-3.1c3.7,0.1,7.4,0,11,0.3c1.1,0.1,1.4-0.5,2-1c1.5-1.1,0.9-2.8,1.6-4.5c1.7,4.9-0.2,8.1-4.7,8.2
			C626.1,590.5,621.7,590.4,617,590.4z M421.4,486.6c-2.2,0-4.6,0.8-4.2-2.9c0.3-4,0.1-4,4.4-4.1c3.7,0,3.6,0.2,3.9,4
			C425.8,487.5,423.2,486.4,421.4,486.6z M609.5,413.7c0.3-1.9-0.5-3.6,1.4-3.6c1.4,0,3.3-0.6,3.7,1.8c0.2,1.3,1.5,1.8,2.6,2.3
			c0.6,0.3,1.7-0.1,1.6,1.1c-0.1,1-0.7,1.5-1.4,1.9C612.9,419.7,609.4,417.7,609.5,413.7z M167.5,386c0,0,0,0.1,0,0.1
			c-1.1,0-2.2,0.1-3.3,0c-2.5-0.2-4.2-2.2-3.9-4.8c0.2-2.2,1.4-3.9,3.9-4c2.8,0,5.5-0.5,8.3,0.7c1.7,0.7,2.9,1.2,2.7,3.4
			c-0.2,2.4-0.9,4.3-3.5,4.6C170.3,386.1,168.9,386,167.5,386z M421.4,519.5c-1.2-0.5-3.2,1-4.1-1c-1.5-3.3,0.3-5.6,4-5.6
			c0.9,0,1.9,0,2.8,0.1c0.6,0,1,0.3,1.3,0.9C426.7,517.2,425.3,519.5,421.4,519.5z M420.7,441.8c-3.7-0.1-3.7-0.1-4-0.9
			c-1.2-3.2,0.3-5.4,3.6-5.5c0.8,0,1.7,0,2.5,0c1.3-0.1,1.7,0.6,1.9,1.8C425.3,441.4,424.9,441.9,420.7,441.8z M117,569.3
			c-1.5,0-2.6,0-3.8-0.5c-1.4-0.6-1.3-1.7-1.2-2.8c0.1-1.4,1.2-1.3,2.1-1.2c2.4,0.2,4.7-0.6,7-0.6c0.7,0,2-0.9,2.2,0.7
			c0.2,1.2,0.2,2.3-1.1,3.2C120.4,569,118.7,569.4,117,569.3z M608.9,605.8c-0.1-0.7,0.5-0.9,0.8-0.9c6.6-0.1,13.3-0.2,19.9-0.2
			c1.3,0,2.2,0.9,2.3,2.3c0.1,1.2,0.1,2.4,0.1,3.7c0,1.8-0.8,2.5-2.6,2.5c-5.5,0-10.9,0.2-16.4,0.1c-1.3,0-2.6-0.3-3.9-0.6
			c-0.5-0.1-0.7-0.7-0.4-1.2c0.3-0.6,0.9-0.3,1.1,0c0.9,1.4,2.2,1.2,3.5,1.2c3.3-0.1,6.6-0.1,9.9-0.2c1.8-0.1,3.6,0,5.3-0.3
			c2.9-0.5,1.5-2.9,1.7-4.6c0.2-1.8-0.9-2-2.3-2c-1.9,0.1-3.8,0-5.7,0.1C617.9,605.9,613.4,605,608.9,605.8z M294.6,577
			c-1.2,0.1-4.1-3.6-3.8-5.5c0.3-2.4,3-2.6,4.8-3.6c1-0.6,3.1,3.4,2.9,6.2C298.3,576.3,295.4,575.5,294.6,577z M130,530.2
			c-0.3,0-0.7,0-1,0c0-13.1,0-26.2,0-39.3c0.3,0,0.7,0,1,0C130.5,503.9,130.4,517,130,530.2z M112.8,615.2c0.6-1.2-0.6-3,1-3.8
			c1.9-1,6.3,1.7,6,3.9c-0.4,2.8-1.7,4.3-4.4,4.3C111.7,619.7,113.5,616.8,112.8,615.2z M121.4,584.2c1-4.8,3.4-8.9,3.6-13.6
			c0-0.6,0.5-0.7,1-0.7c0.7,0,1.1,0.3,1.1,0.9c0,1,0.2,2.3-0.2,3c-1.2,1.8-0.8,3.2,0,4.9c1.4,3.1,0.5,4.4-2.8,4.8
			C123.4,583.6,122.6,583.9,121.4,584.2z M431.8,479.5c3.9,0,3.8,0.2,4,4.2c0.2,4-2.8,2.7-4.7,2.9c-3.5,0.2-1.8-2.7-2.2-4.3
			C428.3,479.7,430.1,479.4,431.8,479.5z M429.4,560.4c-0.8-3,1.1-3.3,3.6-3.1c3,0.2,3.3,0.6,3.2,4.4c-0.1,3.6-2.9,2.2-4.6,2.4
			C429,564.4,429.2,562.4,429.4,560.4z M721.4,473.9c0.6,2.8,0.2,5.3,0.2,7.7c0,0.4-0.1,1.3-0.5,1.1c-1.7-0.9-4-0.2-5.1-1
			c-1.5-1.1-0.8-3.7-0.5-5.6c0.2-1.8,1.6-0.5,2.4-0.6C719.1,475.4,720.2,474.9,721.4,473.9z M124.4,410.4c0,0,0-0.1,0-0.1
			c2.2,0,4.3,0,6.5,0c0.8,0,1.4,0.2,1.6,1.2c0.2,0.9-0.3,1.2-1,1.2c-4.6,0.2-9.2,0.4-13.8,0.5c-0.9,0-1.7-0.5-1.6-1.6
			c0.1-1.1,0.9-1.2,1.9-1.2C120,410.4,122.2,410.4,124.4,410.4z M431.8,435.1c3.6,0,3.7,0.1,3.8,4c0.2,3.5-2.5,2.5-4.3,2.7
			c-3.9,0.5-2.6-2.6-2.8-4.5C428.2,434.3,430.6,435.4,431.8,435.1z M141.1,402.7c-0.7-9-0.9-18.1,0-27.1
			C142,384.6,142.7,393.6,141.1,402.7z M623.5,439.9c-4.2-2.2-5.7-4.7-5.2-8.1c0.2-1.8,1.3-2.2,3-2.2c1.6,0,2.3,0.5,2.3,2.1
			C623.5,434.3,623.5,437,623.5,439.9z M600.8,550.5c0-0.1,0-0.1,0-0.2c2.2,0,4.4,0.1,6.6,0c1,0,1.2,0.2,0.9,1.1
			c-0.2,0.5,0.6,1.5-0.6,1.5c-4.6,0.1-9.3,0.8-13.9,0c-0.6-0.1-1.4-0.3-1.2-1.2c0.2-0.9,0.8-1.2,1.7-1.2
			C596.5,550.5,598.6,550.5,600.8,550.5z M367.9,401c-3-4.1-4.5-8.3-6.7-12.3c5.6,0.1,6.6,1,6.9,6
			C368.2,396.7,368.1,398.5,367.9,401z M432.2,512.9c1.4,0.2,3.9-1,3.4,2.2c-0.2,1.6,1.4,4.4-2.3,4.1c-1.7-0.1-4.4,1-4-2.5
			C429.6,515.1,428.1,511.9,432.2,512.9z M114.2,436.9c0.2-2.2,0.4-4.5,0.7-6.7c0.1-1.2,0.2-2.9,1.8-2.6c1.6,0.2,1.7,2.1,1.3,3.2
			c-0.6,2.1-0.4,4.3-0.9,6.4c-0.3,1.4,0.2,4-1.5,4C113.3,441,114.8,438.4,114.2,436.9z M626.9,412.9c0,0.1,0,0.1,0,0.2
			c-1,0-2.1,0-3.1,0c-0.7,0-1.7,0.5-1.6-0.7c0.1-1.1-0.6-3.1,0.7-3.3c2.7-0.3,5.5-0.8,8.1,0.5c1.1,0.5,1.1,1.5,1,2.4
			c-0.1,1.1-1.1,1-1.9,0.9C629.2,412.8,628,412.9,626.9,412.9z M120.6,498.8c1,10.6,0.2,21.1-0.3,31.6
			C119.7,519.9,119.6,509.4,120.6,498.8z M721.8,519.5c-1.6-1.9-3.5-2.2-5.7-1.6c0-1.6,0-3.1,0-4.6c0-0.8,0.3-1.7,1.3-1.3
			c1.7,0.7,2.7-0.7,4.1-1.5C722,513.5,722.3,516.3,721.8,519.5z M340.8,618.6c4-2.1,8.2-2.5,12-4c1.5-0.6,2.1,1.2,2.5,2.4
			c0.4,1.3-0.6,1.8-1.5,1.8C349.5,618.8,345.3,619,340.8,618.6z M732.9,435.2C732.9,435.2,732.9,435.2,732.9,435.2
			c0,1.6,0,3.2,0,4.8c0,0.8-0.1,1.5-1.2,1.6c-0.9,0-1.4-0.3-1.4-1.3c0-3.4-0.1-6.8-0.1-10.2c0-0.8,0.4-1.5,1.3-1.5
			c1,0,1.3,0.8,1.3,1.5C732.9,431.8,732.9,433.5,732.9,435.2z M621.5,418c-0.8,0-1.7,0.2-2.1-0.6c-0.3-0.6,0.3-1.2,0.6-1.8
			c0.5-1,1.2-1.4,2.2-1.4c2,0,4-0.2,5.9-0.1c0.8,0,2.1-0.6,2.3,0.8c0.2,1.2-1.1,1.7-1.9,2.1C626.3,418.2,623.7,417.4,621.5,418z
			 M367.4,600.8c1.5,6.9,0.9,9.5-6,8.9C362.9,606.5,364.9,603.7,367.4,600.8z M112.4,386.7c0.1-0.8,0.3-1.8,0.5-2.8
			c0.1-1-0.5-2.2,1.1-2.5c1.4-0.2,2.3,0.6,3,1.8c1.1,2,0.5,3.9-0.9,5.4c-0.6,0.7-1.6,1.5-2.7,1.1
			C111.9,389.1,112.6,387.9,112.4,386.7z M715.5,431.6c-0.2-2-0.3-3.8,0.2-5.6c1.3,0.6,2.6,1.1,3.7,0.4c2-1.3,2.3-0.2,2.4,1.4
			c0.1,1.4,0.4,2.9-0.4,4.7C719.6,430.5,717.6,431.2,715.5,431.6z M226,444.7c0.5-1-0.8-2.9,1.2-3.6c2.7-0.9,4.2,0.6,3.3,3.3
			c-0.4,1.3-0.1,3.1-1.6,3.7C226.6,449,226,448.2,226,444.7z M599.4,445.3C599.4,445.4,599.4,445.4,599.4,445.3
			c-1.9,0-3.8,0.1-5.6,0c-0.8,0-1.9,0.4-1.9-0.9c0-1.1,1-1.3,1.9-1.2c3.9,0.1,7.9,0.3,11.8,0.5c0.5,0,1.3,0,1.3,0.8
			c0,0.9-0.8,0.9-1.5,0.9C603.3,445.3,601.3,445.3,599.4,445.3z M278,598.3c4.6,0.1,8.6-0.3,12.6,1.1c-4.1-0.2-7.7,0.7-10.4,4.4
			C279.6,601.8,279.3,600.2,278,598.3z M111.9,427.2c0.4,1,1.8,1.3,1.6,2.5c-0.3,3.2-0.6,6.5-1,9.7c-0.1,0.6-0.4,1.2-1,1.1
			c-0.6-0.1-0.8-0.7-0.8-1.3C111,435.3,110.5,431.2,111.9,427.2z M262.4,378.6c2.5,0.5,5.1-0.5,7.4,1.2c0.4,0.3,1,0.5,1.1,0
			c0.1-0.6-0.3-1.4,0.8-1.1c0.6,0.2,1.4,0.6,1.1,1.4c-0.6,1.4,0.4,1.2,1.1,1.1c0.7-0.1,1.4-0.5,1.6,0.7c-2.7,0.6-5.3-0.1-8-0.1
			C265.8,381.8,262.6,382.4,262.4,378.6z M118.5,560.5c-0.8-0.2-1.8,0.3-2-0.9c-0.2-1.3,2.2-4.1,3.6-4c1.5,0.1,3.6,0,3.5,2.3
			C123.5,561.5,120.1,559.4,118.5,560.5z M628.6,586.3c-0.5,0-0.9,0.1-1.3,0c-1-0.2-2.6,0.7-2.6-1.5c0-2,1.1-2.2,2.7-2
			c1.3,0.1,2.6,0.1,3.9,0.2c0.8,0,1.6,0.1,1.8,1c0.2,0.9-0.5,1.3-1.1,1.8C630.9,586.6,629.6,586.2,628.6,586.3z M579.7,417.2
			c0.8,5-0.9,9.5-2.1,14.1c-0.1,0.3-0.6,0.5-1,0.3c-0.5-0.3-0.5-0.8-0.4-1.2C577.3,425.9,577.8,421.4,579.7,417.2z M104.4,385.3
			c0.1-1.6,0.2-3,0.3-4.4c0-0.7-0.5-1.7,0.7-1.7c1,0,1.1,0.9,1.1,1.6c0.3,3.4,0,6.7,0,10.1c0,0.7-0.2,1.1-0.8,1.2
			c-0.7,0-0.9-0.5-0.9-1.1C104.7,388.9,104.5,387,104.4,385.3z M581,574.8c0.3,1.2,0.3,1.8-0.3,2c-1.2,0.4-0.8-0.8-1-1.2
			c-1-3.1-1.9-6.2-2.4-9.5c-0.1-0.7-0.7-1.6,0.4-1.9c1.1-0.3,1.4,0.7,1.6,1.5C580.2,569,581,572.2,581,574.8z M289.6,428.8
			c-0.2-1.3,0.9-2.1,1.6-3.2c1.4-2.3,2.8-0.7,3.8,0.1c1.6,1.2-0.6,1.1-0.9,1.7c-0.3,0.6,0,1.3-0.3,1.6c-0.8,1-1.6,2.2-3,2.1
			C290.1,431,289.3,430.2,289.6,428.8z M108.3,550.9c1.2,5.5,0,10.9-0.8,16.2C106.4,561.6,107,556.2,108.3,550.9z M611.2,587.8
			c-0.4-3,1.2-3,2.6-3.1c1.4-0.1,3.2,0.1,3.2,1.9c0,1.9-1.5,3-3.3,3.2C611.8,589.9,611.4,588.4,611.2,587.8z M520.9,433.4
			c1.9,0.6,4.4,1.3,6.9,2.1c0.6,0.2,1.2,0.8,0.9,1.5c-0.3,0.8-1,0.9-1.9,0.7c-2.3-0.7-4.6-1.4-7-2.1c-0.7-0.2-1.2-0.5-0.9-1.4
			C519.1,433.7,519.4,433.2,520.9,433.4z M557.6,550.9c0.1,0.4,0.1,0.8,0.2,1.1c-6.8,1.8-13.7,3.7-20.5,5.5
			c-0.1-0.3-0.2-0.6-0.2-0.9C543.9,554.7,550.6,552.4,557.6,550.9z M515,373.7c-1.8,2.4-5.9,2.4-14.4,0
			C505.9,373.7,510.4,373.7,515,373.7z M530.4,596.4c-3.6-1.7-6.2-1.1-8.4,1.6c-0.4,0.6-1.3,0.2-1.8-0.2c-0.4-0.4-0.4-1.1-0.1-1.6
			c1.3-1.8,3.2-2.7,5.3-2.9C527.3,593.2,529.2,593.7,530.4,596.4z M623.3,558.4c0.2,2.6,0.7,4.2,0.3,6.1c-0.3,1.2-0.9,1.6-2,1.5
			c-1-0.1-1.8-0.2-2.2-1.6C618.8,561.3,621.5,560.7,623.3,558.4z M117,544.9c2.9,1.4,2,3.2,1.5,4.8c-0.5,1.7-1.8,3.2-1.7,5.1
			c0,0.4-0.3,1.2-1,1.1c-0.5,0-0.8-0.5-0.8-1c0-0.8-0.6-1.4-0.5-2.4c0-1.9,3.7-2.3,1.9-4.8c0.2-0.1,0.3-0.1,0.5-0.2
			C119.1,547.3,117.7,546.3,117,544.9z M697.4,407.4c-0.8-0.5-2.5,1.1-2.8-1.2c-0.3-2.4,1.2-2.4,2.8-2.2c1.5,0.1,4-0.6,4,1.7
			C701.4,407.7,699.1,407.2,697.4,407.4z M303.6,465.3c3.2-0.1,5.2,2.1,7.6,3.2c0.6,0.3,0.8,1.1,0.4,1.7c-0.3,0.5-0.8,0.9-1.4,0.6
			C307.8,469.3,304.5,469,303.6,465.3z M186,382.2c0.1-0.4,0.2-0.7,0.1-0.9c-0.3-1.4,0.1-2.1,1.7-2c1.8,0.1,1.9,0.9,1.5,2.4
			c-0.2,0.9-0.2,1.9-0.3,2.8c-0.1,0.7-0.4,1.2-1.2,1.3c-0.8,0.1-1.2-0.3-1.6-0.9C185.7,383.9,186.1,383,186,382.2z M289.9,577.5
			c0.6,1-0.2,1.4-0.9,1.6c-2.4,0.8-2.6-1.7-3.6-2.7c-0.9-0.9,0-2.1,0.8-2.9c0.1-0.2,0.7-0.2,0.7-0.1
			C287.5,575.1,290.5,575.1,289.9,577.5z M652.3,391.7c0.1-1.1,0-2.2,0.8-3.2c0.6-0.8,1.1-0.9,2-0.2c0.9,0.7,1.1,1,0.3,1.8
			c-1.5,1.4-1.1,3.1-0.4,4.7c0.2,0.5,0.6,1.1,0.1,1.5c-0.7,0.5-1.3-0.1-1.6-0.6C652.5,394.6,652.2,393.2,652.3,391.7z M526.9,559
			c0.9,0.2,1.9-0.1,2,0.8c0.1,0.7-0.5,1.3-1.3,1.5c-2.1,0.6-4.3,0.5-6.2,1.4c-0.5,0.2-1.1,0.1-1.5-0.5c-0.4-0.8,0.4-1,0.8-1.2
			C522.7,560.4,524.9,559.7,526.9,559z M612.2,408.7c-0.7-0.3-2.2,0.7-2.7-1.1c-0.2-0.7-0.3-1.5,0.3-2.1c0.9-0.9,1.9-0.4,2.9-0.1
			c1.4,0.4,3.2,0.9,3,2.4C615.4,409.2,613.6,408.6,612.2,408.7z M201.7,626.7c0,0.1,0.1,0.3,0.1,0.4c-10.1,0-20.2,0-30.3,0
			c0-0.1,0-0.3,0-0.4C181.6,626.7,191.6,626.7,201.7,626.7z M109.1,385.9c0-1.5,0-2.4,0-3.2c0-0.8-0.3-1.9,0.9-2
			c1.4-0.1,1.2,1.2,1.1,2.1c0,0.9-0.2,1.9-0.4,2.8c-0.2,1.6,0.2,3.2-0.9,4.7C108.6,388.8,109.2,386.9,109.1,385.9z M174.5,376.3
			c3.1-0.7,6-0.4,8.8-0.5c0.5,0,1,0.3,1,0.8c0.1,0.8-0.7,0.8-1.2,0.8c-1.6,0.1-3.3-0.3-4.7,0.2C176.8,378.3,175.8,377.9,174.5,376.3
			z M104.6,566.1c-0.9-5.1-0.5-10.3,0-15.5C105.9,555.8,104.8,560.9,104.6,566.1z M628.4,548.3c1.6-2.3,1.7-4.6,1-7.3
			c-0.7-2.6-3.4-3.4-4.9-6c3.6,1,5.4,3.2,6.1,6C631.2,543.6,630.7,546.4,628.4,548.3z M169,666.3c1.2,0.4,2.6-0.2,3.7,0.7
			c0.8,0.6,0.8,1.5,0.3,2.3c-0.3,0.5-0.9,0.2-1.1-0.2c-2.1-2.8-4.3-2.5-6.5-0.3c-0.7,0.6-1.2,0.9-1.8,0c-0.5-0.8,0.2-1.1,0.8-1.5
			C165.7,666.4,167.3,666.4,169,666.3z M338.7,625.9c-6.2,0.3-12.4,0.6-18.6-0.1C326.3,625.4,332.5,625.4,338.7,625.9z M180.1,381.1
			c-0.2-1.6,0.4-2.2,1.9-2.2c1.6,0,2.2,0.7,2.2,2.2c0,1.3-0.2,2.1-1.8,2.1C180.6,383.3,180,382.6,180.1,381.1z M607,330.7
			c3.5,1.2,3.6,1.2,7.1-0.6c0.5-0.3,0.9-0.8,1.3,0c0.3,0.5,0.3,1.2-0.2,1.5c-0.6,0.4-1.3,0.8-2,1.1
			C610.8,333.7,607.7,332.8,607,330.7z M627.5,603.3c-5.2,0.4-10.5,0.7-15.7-0.1C617,602.8,622.2,602.3,627.5,603.3z M227.1,554.9
			c0.2-0.8-0.1-2.3,1.3-1.9c2,0.6,1.5,2.9,2.1,4.4c0.4,0.9-0.3,1.2-1,1.1C227.3,558.2,227.4,556.5,227.1,554.9z M257.5,626.6
			c6.5-1,13-0.8,19.5-0.8c-0.2,0.8-0.6,0.8-1,0.8C269.9,626.6,263.7,626.6,257.5,626.6z M118.6,419.2c-0.2,0.8-0.5,1.8-0.9,2.7
			c-0.1,0.1-1.1,0-1.5-0.3c-0.8-0.4-0.8-5.1,0-5.4c0.6-0.3,1.5-0.2,1.9,0.6C118.4,417.5,118.4,418.3,118.6,419.2z M627.8,554.9
			c1.1,2.4,0.9,5,0.7,7.6c0,0.5-0.4,0.9-0.9,0.9c-0.7,0-0.7-0.6-0.7-1C626.9,559.8,626.6,557.3,627.8,554.9z M705.4,400.9
			c-0.1-0.3-0.1-0.6-0.2-0.9c1.4,0.1,2.7-0.2,3.6-1.1c0.9-1,1.9-0.5,2.9-0.5c1,0,1.6,0.7,1.6,1.6c0,1-1.1,0.9-1.7,0.9
			C709.5,401,707.5,400.9,705.4,400.9z M343.1,383.6c0-0.2,0.1-0.5,0.1-0.7c2.2,0,4.4-0.1,6.6,0c1.2,0,1.5,1,1.6,2
			c0,0.8-0.6,1-1.1,0.8C348,384.7,345.5,384.3,343.1,383.6z M119.7,490.7c1.8,2.1,2.5,0.3,3.3-0.7c0.8,0.4,0.5,0.9,0.4,1.3
			c-0.4,1.8-0.6,4.1-2.6,4.4C120.1,495.8,119.5,492.9,119.7,490.7z M505.6,331.1c2,0.9,3.9,1.8,6,0.8c0.8-0.4,1.2-1.6,2.3-1
			c0.4,0.2,0.4,0.5,0.3,0.9c-0.4,1.2-1.5,1.3-2.5,1.4c-1.4,0.2-2.8,0.4-4.2-0.1C506.5,333,505.4,332.9,505.6,331.1z M226.7,550.8
			c0-4,0-7.9,0-11.9C228.3,542.9,228,546.8,226.7,550.8z M431.8,620.5c-3.3,0.2-6.4,1-8.5,4.4C423.9,620.7,427.1,619.1,431.8,620.5z
			 M110.5,611.3c1.2,3.9,1.2,6.8,0.4,9.3C109.4,618.3,109.3,615.8,110.5,611.3z M316.1,625.6c-4.6,0.6-9.2,1-13.6,0
			C307,625.6,311.6,625.6,316.1,625.6z M111.6,350.9c0.4-1.3,0.6-2.8,1.6-2.8c1.1,0,1.5,1.7,1.7,2.7c0.1,0.8-0.5,2.3-1.3,2.4
			C112,353.4,112.8,351.2,111.6,350.9z M128.4,385.5c0.7,3.6-0.6,4.8-3.8,3.7c-0.5-0.2-1-0.4-1-0.9c0-0.5,0.5-0.7,1.1-0.7
			C126.3,387.7,127.9,387.6,128.4,385.5z M107,609.8c1.2,3.9,1.2,10.1,0,12C107,617.6,107,613.7,107,609.8z M283.8,455.7
			c0.1-0.2,0.3-0.4,0.4-0.6c3.3,1.7,6.6,3.5,10,5.2C290.3,459.7,287.2,457.5,283.8,455.7z M314,612.7c2.1,1.9,3.9,4,4.7,6.8
			C316.2,617.9,315.2,615.3,314,612.7z M288.5,422.5c0.4,0.2,1.2,0.4,0.8,0.8c-1.2,1.2-1.3,3.5-3.5,3.9c-0.5,0.1-1,0.2-1.2-0.3
			C284.5,426.2,287.8,422.5,288.5,422.5z M618.2,410.9c-0.3-0.8-0.5-1.9,1.1-1.8c1.2,0,2,0.6,2,1.9c0,1.4-1.2,1.9-2.3,2
			C617.8,413,617.9,412,618.2,410.9z M621.7,585.8c-0.9-0.1-1.9,0.2-1.7-1.4c0.1-1.2,0.3-2,1.8-1.9c1.2,0.1,2,0.7,2,1.9
			C623.7,585.6,622.8,586,621.7,585.8z M529.8,433.5c0.4-0.5,0.6-1,0.9-1.1c1.6-0.3,3.1,0.1,4.5,0.9c0.2,0.2,0.3,0.9,0.2,1.3
			c-0.3,0.8-0.9,0.3-1.4,0.2C532.6,434.4,531.3,434,529.8,433.5z M709.3,392.9c0-0.4-0.1-0.7,0-1c0.3-1-0.7-2.9,0.6-2.9
			c1.8,0-0.1,1.8,0.4,2.7c0.1,0.2,0.1,0.6,0,0.8c-0.3,1.2,1.8,3.2-0.4,3.5C708.5,396.1,710.1,393.8,709.3,392.9z M627.2,443.5
			c-1-8.7-1-9.4,0.2-11.4C627.4,436.1,627.8,439.8,627.2,443.5z M493.4,423.2c2.1-0.3,4.6-1.7,6,1.3
			C497.4,424.4,495.3,424.4,493.4,423.2z M425.2,626.6c-0.3-2.4,1.2-3.3,3.2-3.8c1.8-0.5,3.5-0.8,4.9,1.2
			C427.6,623,427.3,623.1,425.2,626.6z M127.9,589.4c1.4-1.3,3-0.9,4.2-1.3c0.4-0.2,1.1-0.7,1.4,0.2c0.2,0.5,0.1,1.1-0.1,1.7
			c-0.2,0.6-0.7,0.7-1.3,0.4C130.8,590,129.5,589.8,127.9,589.4z M600.2,372.3c-2.7,0.4-5.3,0.9-7.9-0.2
			C594.9,371.7,597.6,371.3,600.2,372.3z M631.4,372c-3,1-6.1,0.9-9.1,0.1C625.3,371.4,628.4,371.9,631.4,372z M776.5,459.9
			c3.7,0.3,4.6-2.1,5.4-4.7C781.6,460.3,779.8,462,776.5,459.9z M124.8,381.8c3.5-1.1,4.3-0.6,3.9,2.9
			C127.5,383.2,126,382.6,124.8,381.8z M163.7,337c2.2-0.6,4.5-0.1,6.8-0.6C168.4,338.5,166,337.3,163.7,337z M422.1,408.4
			c0.9,2.7,1.8,5.3,2.7,8C422.7,414.1,422,411.4,422.1,408.4z M760.5,335.5c0,0-0.1,0-0.1,0c0-0.6-0.1-1.1,0-1.7
			c0.2-1,0.9-0.7,1.5-0.5c0.6,0.1,1.5-0.2,1.6,0.7c0.1,0.9-0.8,0.4-1.2,0.5c-1.1,0.4-1.8,1-0.7,2.2c0.3,0.3,0.3,0.7-0.2,0.8
			c-0.4,0.1-0.8,0.1-0.9-0.3C760.4,336.6,760.5,336,760.5,335.5z M127.6,612.9c-0.7-0.5-2.3,0.8-2.2-0.8c0.1-1.4,1.6-0.5,2.5-0.7
			c0.6-0.1,1.7-0.3,1.6,0.9C129.4,614,128.2,612.5,127.6,612.9z M128.5,365.9c-0.9-0.5-1.6-1-2.4-1.4c-0.8-0.3-1.3-0.8-1.1-1.7
			c0.1-0.4,0.3-0.7,0.7-0.8c0.9-0.1,1.3,0.5,1.7,1.2C127.8,364.1,128.5,364.6,128.5,365.9z M434.4,331.6c2.5,2,5.1,2,7.7,0.1
			C439.7,334.3,436,334.2,434.4,331.6z M114.7,445.7c1-0.8,3.6,0.5,2.2-2.1c0,0,0.6-0.6,1-0.7c0.6-0.2,0.9,0.2,0.7,0.8
			c-0.2,0.8,0.6,1.6-0.4,2.3C117,446.8,116.1,446.1,114.7,445.7z M167.2,626.8c0,0.1,0,0.1,0,0.2c-3.7,0-7.4,0-11.1,0
			c0-0.1,0-0.1,0-0.2C159.8,626.8,163.5,626.8,167.2,626.8z M248.5,626.1c-3.6,0.8-7.2,0.5-10.9,0
			C241.2,626.1,244.8,626.1,248.5,626.1z M701.3,392.4c0,0.7,0.1,1.5-1.2,1.2c-0.9-0.2-1.8-0.2-1.9-1.2c-0.1-1,1.1-1.2,1.8-1.4
			C701,390.8,701.2,391.6,701.3,392.4z M120.3,536.9c0.7,2.5,0.9,4.3-0.7,6.6C119,540.8,119.6,539.2,120.3,536.9z M261,379.3
			c0.1,0.7-0.3,0.8-0.5,1.1c-1.4,1.8-2.5-0.2-3.7-0.3c-0.4,0-0.8-0.4-0.4-0.8c0.9-0.8,1.5,0.2,2.2,0.5c0.1,0.1,0.4,0,0.4-0.1
			C259.4,377.3,260.4,379.7,261,379.3z M318.7,615.2c1.7,0.5,2.9,0.9,3.3,2.3c0.1,0.2-0.6,1-0.9,0.9
			C319.4,618.3,319.5,616.7,318.7,615.2z M296.4,378.9c2.1,0,3.9,0.8,5.7,2.8C299.5,381.5,298,380.2,296.4,378.9z M129.6,618.5
			c-1.3,1.3-2.6,1.5-4,1.1c-0.4-0.1-0.6-0.5-0.3-0.9c0.9-1.2,2.2-0.6,3.4-0.6C128.9,618.1,129.1,618.3,129.6,618.5z M305.4,378.7
			c2.2-0.2,3.3,0.7,4.5,1.4c0.5,0.2,1.2,0.5,0.9,1.1c-0.3,0.7-1,0.3-1.5,0.1C308.2,380.6,307,379.8,305.4,378.7z M354.9,386.1
			c0-1.6-1.4-2.5-0.3-3.7c0.5-0.5,1.6-0.4,1.8,0C357.1,383.7,355.8,384.5,354.9,386.1z M762.3,328.6c0.8-0.4,1.4-0.4,1.4,0.6
			c0,0.6,0,1.6-0.9,1.3c-0.8-0.3-2.2,0.3-2.4-1C760.2,327.8,762,329.3,762.3,328.6z"/>
		<path d="M668.1,645.8c-1-2.1-5.6-4.7-7.9-4.6c0,0,0.1-0.1,0.1-0.1c-0.1,0.3-0.3,0.7-0.2,0.7C662.7,643.4,665,645.4,668.1,645.8
			C668.2,645.7,668.1,645.8,668.1,645.8z"/>
		<path d="M716.7,594.1c-2,3.1-3.6,3.7-6.3,1.8c-2.4-1.6-5,0.5-7.5,1.1c-3.1,0.7-4.9,3.4-4.4,6.5c0.5,2.8,2.1,5,4.8,6.2
			c0.7,0.3,1.5,0.6,2.2,1.5c-4.4,0-9.1,0.7-13.3-0.2c-3.4-0.8-6.9-0.9-10.3-1.8c-0.3-0.1-0.7-0.6-0.9-0.2c-0.6,1.4-0.2,2.9-0.1,4.4
			c0.1,1.1,0.6,1.9,1.7,1.9c2.4,0,4.7,1.1,7.1-0.7c1.6-1.1,3.7-0.5,5.5-0.5c7.4-0.2,14.9-0.1,22.3,0c1.5,0,3.2,0,3.6-1.4
			c0.5-1.6,0.8-3.5-0.8-4.9c-1.1-0.9-1.9-2-2.5-3.3c-1.3-3.1-1-5,1.5-7.3c0.5-0.4,1.1-0.8,1.5-1.3c0.8-1,1-2.2,0.7-3.5
			c-0.3-1.5-1.6-1.1-2.5-1.1c-3-0.1-6.1,0-9.1-0.2c-0.8,0-2.1,0.3-2.4-0.9c-0.3-1,0.6-1.5,1.2-2.1c3-3,2.6-5.7-1.1-8
			c-0.5-0.3-0.8-0.8-1.2-1.2c-2.3-2.3-5-1.7-6.1,1.3c-0.4,1.1-0.8,2.4-0.7,3.6c0.1,2.6-1.1,3.3-3.5,3c-1.3-0.1-2.6,0-4,0.1
			c-0.6,0-1.7,0.2-1.8,0.5c-1.2,3.4-4.3,2.4-6.6,2.5c-2.1,0.1-2.7,0.9-2.7,2.7c0,1.9,0.8,2.7,2.9,3c4.5,0.6,8.5-1.8,13-1.6
			C703.3,594.4,709.8,594.1,716.7,594.1z M707.2,610.6c1.9,0,3.3-0.6,4.3-2.3c0.5-0.9,1.8-0.8,2.5,0c0.6,0.7,1.9,1.1,1.7,2
			c-0.2,1.2-1.6,0.8-2.4,0.8C711.3,611,709.2,610.8,707.2,610.6z M697.1,591.1c-1,0-2.3,0.6-2.2-1.4c0.1-1.5,0.9-1.8,2.2-1.8
			c1.3,0.1,2.7,0.2,2.7,1.7C699.8,591.2,698.5,591.4,697.1,591.1z M701.9,588c-1.6-2.7-0.8-5.3,0.1-8c0.3-1,1-1.3,2.2-0.5
			C701.8,581.9,702.4,585,701.9,588z M711.8,599c0.3,0,0.5,0,0.8,0c-0.6,2.1-0.4,4.1,0,6.1c0.1,0.5-0.1,1-0.7,1
			c-0.8,0-0.8-0.6-0.8-1.2C711.3,602.9,711.5,601,711.8,599z M702.1,600.7c1.1,0,0.9,0.8,0.9,1.4c0,0.8,0.3,1.9-0.7,2.1
			c-1.1,0.2-1.5-1-1.7-1.8C700.5,601.4,701.6,601.2,702.1,600.7z M708.6,601.2c0.6,0.1,1.1,0.4,1.1,1.2c0,1-0.7,1.4-1.7,1.3
			c-0.9,0-1-0.5-1-1.3C707.1,601.6,707.6,601.2,708.6,601.2z M704.2,583.8c0.7,1.8,1.2,3.1,1.7,4.4c0.2,0.6,0.4,1.1-0.3,1.4
			c-0.8,0.3-0.9-0.5-1.1-0.9C703.9,587.2,703.9,585.8,704.2,583.8z"/>
		<path d="M681.2,633c2.2-0.2,4,0.2,5.9,1.5c2.5,1.6,5.3,1.1,6.9-0.9c1.5-1.9,1.5-4.6,0.1-6.3c-1.6-1.8-5.4-2.2-7.5-1.1
			c-3.1,1.6-6.4,1.3-9.5,0.2c-2.1-0.8-3.9-1.5-5.8,0c-1.9,1.5-2,3.6-1.2,5.7c0.8,2.3,3,2.2,4.9,2.7c0.3,0.1,0.9,0,1-0.2
			C677.1,632,679.4,633.3,681.2,633z M683,628.4C683,628.4,683,628.4,683,628.4c2.1,0,4.1,0,6.2,0c1.1,0,2.5-0.3,2.5,1.5
			c0,1.7-1.2,2-2.6,2.3c-1.4,0.3-2.5-0.5-4-0.3c-3.1,0.5-6.4,0.2-9.6,0.2c-1.4,0-2-1.3-2-2.4c0-1,1-1.3,2.1-1.3
			C678.1,628.5,680.6,628.4,683,628.4z"/>
		<path d="M513.1,660.8c-2.2,0.1-4.2,0.3-5.8,1.6c-2.8,2.3-2.1,5.5,1.1,7c2.4,1.1,4.5,2,7.1,1.1c2.8-0.9,4.6-3,4-5.6
			c-0.5-2.4-2-3.9-4.7-4C514.2,661,513.5,660.9,513.1,660.8z M513.8,664.2c1.6-0.1,2.6,1,3.6,1.9c0.4,0.4,0.2,0.9-0.1,1.3
			c-0.5,0.6-0.8,0.1-1-0.3C515.7,666,514.1,665.8,513.8,664.2z"/>
		<path d="M612.6,659.5c-1.2,0.1-3,0.9-4.3,2.2c-1.8,1.7-1.5,4,0.5,5.6c2.9,2.2,7.4,2.6,10.3,0.7c1.9-1.2,1.8-5.2-0.1-6.7
			C617.8,660.4,614.9,659.5,612.6,659.5z"/>
		<path d="M339.6,630.7c-4.2,0.2-6.9,2.5-6.7,5.3c0.1,1.3,0.6,2.1,1.9,2.8c3,1.6,5.4,2.8,8.8,0.2c1.8-1.4,2-2.7,2.2-4.4
			c0.2-1.7-1.2-2.3-2.5-3.1C342.1,630.8,340.7,630.9,339.6,630.7z"/>
		<path d="M261.7,667c0.2,1.2,0.5,2.3,1.8,3.1c2.4,1.5,4.7,2.9,7.5,1.3c4.7-2.5,5.6-5.4,2.8-8.1c-2.3-2.2-7-2.2-10.2,0
			C262.4,664.3,262,665.5,261.7,667z M264.1,668.2c0.4-2.7,2.3-2.5,3.7-2.8c2-0.5,3.8,0.1,5.1,1.6c0.6,0.7,0,1.3-0.6,1.8
			C271,665.5,267.2,665.7,264.1,668.2z"/>
		<path d="M340.4,661.8c-4,0-7.2,1.9-7.2,4.4c0,2.2,4.3,5.5,7,5.4c2.5-0.1,6-3.5,6-5.8C346.2,663.4,344,661.9,340.4,661.8z"/>
		<path d="M513,639.8c1.2-0.5,3.2-1,4.8-1.9c1.6-1,1.3-4.3-0.2-5.6c-2.3-2-8.6-1.9-10.8,0.1c-2.1,1.9-2.1,3.4,0,5.4
			C507.5,638.3,511.5,639.8,513,639.8z"/>
		<path d="M169,631.9c-0.9,0.1-1.5,0.2-2.1,0.3c-2.1,0.3-3.8,1.2-4.5,3.3c-0.4,1.5,0,3.1,1.3,4.1c1.8,1.3,3.6,2.8,6.1,1.8
			c0.9-0.4,1.9-0.6,2.5-1.3c1.4-1.4,3.3-2.8,2.4-5.2C173.7,632.1,171,632.5,169,631.9z"/>
		<path d="M267.7,631.4c-0.9,0.3-2.2,0.5-3.3,1.1c-1.9,1.1-3,2.5-1.4,4.8c1.4,2,3.1,3.8,5.6,3.5c2.7-0.4,5.5-1.2,6.6-4.3
			c0.5-1.4,0-2.6-1.2-3.4C272.2,631.8,270.2,631.7,267.7,631.4z"/>
		<path d="M440.5,661.3c-2.7,0.3-4.7,1.1-5.6,3.6c-0.7,2-0.3,3.4,1.9,4.5c2.8,1.5,5.3,2,8.1,0.2c1.5-1,2.4-2.2,2.4-3.9
			c0-1.7-1.2-2.7-2.7-3.2C443.1,662.1,441.6,661.7,440.5,661.3z"/>
		<path d="M434.1,635.2c0,2.3,3.9,5.3,6.9,5.4c2.3,0.1,6.1-3.7,6.1-6c0-2.4-2.9-4.7-6.1-4.6C437.7,630,434,632.7,434.1,635.2z
			 M444.6,636.7c-2.5-1.8-4.8-2.1-7,0.1c-0.4,0.4-0.9,0.5-1.1-0.1c-0.1-0.3-0.1-0.8,0.1-1c1.2-1.1,2.5-2,4.2-1.7
			C442.4,634.2,444.2,634.5,444.6,636.7z"/>
		<path d="M650.9,532.2c0.1,1.2,0.2,2.8,1,4.2c0.8,1.4,1.9,2.8,3.5,2.3c2.9-1,4.4-3.7,5.7-6.2c1-1.9-0.6-3.4-2-4.5
			c-1.1-0.9-1.2-2.8-3.2-2.8C652.5,525.1,650.8,527.2,650.9,532.2z M657.1,526.9c-3,4.1-3,4.2-0.3,8c0.4,0.6,0.5,1.1-0.1,1.4
			c-0.8,0.4-1.6,0-2-0.6c-0.7-1.3-1.2-2.8-1.1-4.3C653.8,529.3,654.2,527.5,657.1,526.9z"/>
		<path d="M651.5,605.8c0,3.1,1.5,5.3,3.6,5.6c1.7,0.2,6-2.8,6.7-4.8c0.7-2.2,0-3.8-1.9-5.4c-1.7-1.4-2.7-3.9-5.4-2.5
			C651.7,600.2,651.7,603.1,651.5,605.8z M654.5,605.4c0.5-1.6-0.1-3.5,1.4-4.7c0.4-0.3,0.7-0.8,1.2-0.5c0.6,0.4,0.4,1,0.1,1.4
			c-1.7,2.1-1.8,4.2-0.6,6.5c0.3,0.5,0.5,1.1-0.3,1.3c-0.7,0.2-1-0.2-1.1-0.8C654.9,607.5,654.7,606.4,654.5,605.4z"/>
		<path d="M614,629.3c-2.7,0-5,0.3-6.5,2.5c-0.7,1-0.8,2-0.5,2.9c1.4,3.7,8.4,5.1,11.4,2.5c1.6-1.4,2-3,1.4-5
			c-0.6-2-2.2-2.4-3.8-2.7C615.2,629.3,614.4,629.3,614,629.3z M610.1,635.3c1.2-2.3,5.6-3.2,7.3-1.7c0.5,0.4,0.9,1,0.6,1.7
			c-0.3,0.5-0.8,0.4-1.2,0C614.6,633,612.4,634,610.1,635.3z M608.4,633.8c1.4-3.2,4.6-4.2,7.8-2.2
			C612.9,630.8,610.6,631.9,608.4,633.8z"/>
		<path d="M715.6,562.5c0.3-1.5,1-1.7,2.2-0.9c1.4,0.9,3.2,0.6,4.2-0.4c1.3-1.3,1-3.4,0.3-4.8c-0.3-0.8-2.3-1.1-3.5-1.1
			c-3.3-0.1-3.7,0.4-3.5,3.9C715.4,560.3,715.5,561.4,715.6,562.5z"/>
		<path d="M715.6,549.7c0.8-1.1,1.6-0.9,2.5-0.3c1.5,1,3.1,0,4.1-0.7c1-0.8,0.9-2.7,0.2-4c-0.7-1.3-2-1.9-3.7-1.8
			c-2.7,0.2-3.7,1.2-3.3,3.9C715.5,547.6,715.5,548.6,715.6,549.7z"/>
		<path d="M715.4,528.2c0,2,0,4.1,0,6.1c0,2.5,2.5,1.7,3.6,2.9c1.1-1.2,3.7-0.4,3.6-3c0-2-2.2-4.4-4.2-3.7
			C715.6,531.5,716,529.8,715.4,528.2z"/>
		<path d="M660.3,641.2C660.3,641.2,660.2,641.2,660.3,641.2c-1.6-3-5-3.7-7.7-5c-1.4-0.7-2.4-2.3-4.2-2.2c-0.1,1.2,0.6,2.1,1.4,2.5
			C653.4,637.8,656.2,641,660.3,641.2z"/>
		<path d="M516,624.2c9.9,0,19.7,0,29.6,0c0-0.1,0-0.2,0-0.3c-9.9,0-19.7,0-29.6,0C516,624,516,624.1,516,624.2z"/>
		<ellipse cx="640.5" cy="603.8" rx="0.3" ry="11.9"/>
		<path d="M566.1,624c-2.2-0.8-4.4-0.9-6.6,0C561.7,624,563.9,624,566.1,624z"/>
		<path d="M575.6,346.5c0.2,3.4,0.3,6.8,0.7,10.1c0.6,5.3,5.1,9.3,11,10.5c3.9,0.8,10.2-3,12.3-7.3c2.4-4.8,2.1-9.9,1.8-15
			c-0.4-6.6,0.9-6.9-7-6.3c-5.4,0.4-10.9,0.2-16.3,0.1c-1.6,0-2.7-0.1-2.2,2.2c0.4,1.8,0.1,3.8,0.1,5.6
			C575.8,346.5,575.7,346.5,575.6,346.5z M587.9,339.5c0-0.1,0-0.1,0-0.2c3,0,6,0,9,0c1.3,0,2.2,0.3,2.2,1.9c-0.1,4,0,7.9-0.3,11.9
			c-0.3,4.5-4.6,10.3-11.4,10.4c-4.5,0.1-9.1-4.3-10.1-9.7c-0.8-4-0.6-8.1-0.5-12.1c0-1.5,0.5-2.2,2.1-2.2
			C582,339.6,585,339.5,587.9,339.5z"/>
		<path d="M265,368.9c2.3,0.3,4.1-0.8,6-1.7c1.6-0.7,2.4-4.3,1-5.5c-1.7-1.5-3.5-3-5.8-3.7c-0.6-0.2-1.4-0.5-2.1,0.1
			c-1.2,1.2-2.8,1.8-4.3,2.5c-2.3,1.2-2.3,5.2,0,6.7C261.3,368.5,263.1,369.2,265,368.9z"/>
		<path d="M610.8,356.4c-2.5,0.1-6.3,3.9-6.3,6.3c0,1,0.5,1.6,1.1,2.2c3,3.1,8.8,3,11.7-0.1c0.5-0.5,0.8-1.1,0.8-1.8
			C618,360.6,613.3,356.3,610.8,356.4z"/>
		<path d="M165.9,369.2c1.2-0.6,3,0.2,4.5-1c2.4-2,2.6-5.2,0.3-7.3c-0.8-0.7-1.6-1.6-2.6-2.2c-2.5-1.4-4.1-0.6-6.5,3
			c-1,1.5-2.4,3.2-1.5,5.1C161.2,368.9,163.4,369.1,165.9,369.2z"/>
		<path d="M336.6,368.8c3.5,0,6.8-2.4,6.8-4.8c0-1.8-4.9-6.9-7-6.6c-1.8,0.3-6.7,4.8-6.8,6.5C329.5,366.4,333,368.8,336.6,368.8z
			 M340.6,363.3c-1.5,1.6-6.5,2.2-8,1.2c-0.6-0.5-1.1-1.1-0.7-1.9c0.3-0.6,0.8-0.3,1.1,0C335.2,365.1,337.8,364.7,340.6,363.3z"/>
		<path d="M438.3,367.7c1.2-0.1,2.1-0.1,2.9-0.3c3.2-0.8,4.2-3.6,2.4-6.2c-1-1.5-2.1-3-3.8-3.7c-2.2-1-7.8,2.8-8,5.2
			c-0.2,2.6,0.9,4.1,3.7,4.7C436.5,367.6,437.6,367.7,438.3,367.7z M439.8,363.4c-2.1,1-3.8,1-5.4,0.1c-0.6-0.3-1.3-0.6-0.9-1.5
			c0.4-0.7,1.1-0.6,1.7-0.1C436.3,362.9,437.7,363.3,439.8,363.4z"/>
		<path d="M510,367.4c3.6,0,6.2-2.1,6.1-4.4c-0.2-2.6-3.5-5.8-6.5-5.8c-2.1,0-6.2,3.5-6.3,5.3C503.2,365.2,506.1,367.3,510,367.4z
			 M505.1,361.3c2.8,1.6,5.3,2.3,7.7,0.4c0.3-0.2,0.7-0.3,1,0.1c0.2,0.4,0.2,0.7-0.1,1C512.2,364.5,506.6,363.8,505.1,361.3z"/>
		<path d="M150.2,504.6c-0.7,1.6-1.5,2.4-3.3,2c-1.7-0.3-2-1.3-1.9-2.8c0.1-2.2-0.1-4.3-0.1-6.5c0-1.3,0-2.6,2-2.7
			c2-0.1,2.4,1.1,2.5,2.6c0.1,0.4,0.1,0.9,0.1,1.9c0.9-1.6,0.8-2.9,0.7-4c-0.3-4.2-0.2-8.3-0.1-12.5c0-1.8-0.6-3.1-2.2-2.7
			c-1.7,0.4-4.7-1-4.8,2.5c-0.1,3.5-0.1,7,0,10.5c0.3,8.5,0.3,17-0.2,25.5c-0.2,3.2,1.6,3.1,3.8,3.3c2.5,0.3,3.4-0.7,3.4-3
			C150.2,514,150.2,509.3,150.2,504.6z M144.9,488.8c0-0.1,0.1-0.9,0.1-1.8c0.1-1-0.3-2.2,1.4-2.2c1.4,0.1,2.5,0.2,2.6,2.1
			c0.1,1.7,0.2,3.4,0,5.2c-0.2,2-1.7,1.4-2.8,1.5c-1.4,0.1-1.5-0.7-1.4-1.8C144.9,491.1,144.9,490.3,144.9,488.8z M145,511.9
			c0,0,0.1,0,0.1,0c0-0.7,0.1-1.5,0-2.2c-0.3-1.6,0.7-1.7,1.8-1.8c1.1-0.1,2.2,0.1,2.2,1.5c0.1,2,0,4-0.1,6.1c0,1.1-0.7,1.7-1.9,1.6
			c-1-0.1-1.9-0.3-2-1.5C145.1,514.3,145.1,513.1,145,511.9z M146.7,520.3c-0.6-0.2-1.7,0.4-1.8-0.8c-0.1-1.7,1.4-1.1,2.3-1.3
			c0.8-0.2,1.5,0.4,1.4,1.3C148.6,520.9,147.4,520,146.7,520.3z"/>
		<path d="M141.4,478.1c-2.7,3.8-2.6,7.5-1.4,11.6c0.5,1.6-0.3,3.9-0.5,5.8c-0.8,7.5-0.1,15-0.6,22.5c-0.2,4.2,0,8.6,0.8,12.9
			c0-3.5,0-7,0-11c1.7,1.4,0.8,3.1,1.7,4.2C142.3,508.8,141.6,493.6,141.4,478.1z M140.7,515.1c-1.3-2.4-0.9-4.7,0-7
			C140.7,510.5,140.7,512.8,140.7,515.1z"/>
		<path d="M171.6,498.3c-1.3,0.2-2.5,0.7-2.6,2.2c0,1.2,0.8,1.9,2,1.8c1.4-0.1,2.3-0.8,2.3-2.3C173.3,498.9,172.6,498.4,171.6,498.3
			z"/>
		<path d="M191.3,502.4c1.2-0.1,1.7-0.7,1.7-1.9c0-1.4-0.8-2.3-1.9-2.4c-0.9-0.1-1.6,0.8-1.7,1.9C189.2,501.5,190.1,502,191.3,502.4
			z"/>
		<path d="M213.1,499.8c-0.1,1.1-0.2,2.2,1.4,2.2c1.3,0,1.7-1.1,1.8-2.1c0-1.1-0.3-2.1-1.7-2.2C213.1,497.6,213.2,498.8,213.1,499.8
			z"/>
		<path d="M212.6,542.8c0.1,1-0.1,2.2,1.4,2.1c1.2-0.1,1.7-1,1.8-2.2c0-1.2-0.7-2.1-1.8-2.1C212.3,540.6,212.7,542,212.6,542.8z"/>
		<path d="M135.3,556.3c1.1-0.3,2-0.9,2-2.3c0-1-0.9-1.5-1.7-1.5c-1.3,0-2,0.9-2,2.2C133.7,555.7,134.3,556.2,135.3,556.3z"/>
		<path d="M129.5,643.3c2.7-3.2,5.6-6.1,7.5-9.9C133.7,636.1,131.1,639.3,129.5,643.3z"/>
		<path d="M180.7,500c0.3,1,0.7,1.8,1.9,1.7c1.5-0.1,1.4-1.3,1.4-2.3c0-0.8-0.5-1.7-1.5-1.5C181.5,498.2,180.7,498.8,180.7,500z"/>
		<path d="M133,445.2c-0.2,1.4,0.9,1.9,1.8,2.1c0.7,0.2,1.7-0.5,1.6-1.5c-0.1-1-0.2-2.5-1.7-2.5C133.8,443.3,133,444,133,445.2z"/>
		<path d="M178,407.9c0.3,0.8,0.7,1.6,1.7,1.6c1.1,0.1,1.8-0.6,1.9-1.6c0.1-1.1-0.8-1.8-1.7-1.8C178.8,406,178.3,407,178,407.9z"/>
		<path d="M212.6,460c0,1.2,0.4,2.1,1.6,2c1-0.1,1.5-1.1,1.5-2c0-0.9-0.3-2-1.5-2C212.8,458,212.7,459.1,212.6,460z"/>
		<path d="M213.7,577.2c-1.2,0.1-1.6,1-1.7,2c-0.1,0.8,0.1,1.8,1.2,1.8c1.1,0,1.8-0.7,1.8-1.7C215.1,578.3,214.7,577.5,213.7,577.2z
			"/>
		<path d="M144.9,407.3c-0.8,0-1.2,0.7-1.2,1.6c0,1,0.4,1.8,1.6,1.8c1.2,0,1.7-0.6,1.7-1.7C147,407.9,146.3,407.4,144.9,407.3z"/>
		<path d="M133.2,519.1c0.1,1,0.2,1.9,1.5,1.8c1.2-0.1,1.6-0.8,1.7-1.8c0-0.9-0.3-1.7-1.5-1.6C134,517.6,133,517.8,133.2,519.1z"/>
		<path d="M213.7,423.1c1-0.1,1.7-0.6,1.5-1.6c-0.2-0.9-0.4-2.3-1.6-2.3c-0.8,0-1.9,0.7-1.8,1.7C211.9,422,212.6,422.8,213.7,423.1z
			"/>
		<path d="M212,594.3c0.2,1.1,0.9,1.3,1.9,1.3c1.1,0,1.7-0.4,1.7-1.4c-0.1-1-0.9-1.7-1.9-1.6C212.8,592.8,212.2,593.4,212,594.3z"/>
		<path d="M212.1,406.7c0.1,1,1.1,1.4,1.7,1.5c1,0.2,1.8-0.5,1.9-1.6c0.1-1.1-1-1.3-1.8-1.4C213,405.1,212.3,405.7,212.1,406.7z"/>
		<path d="M137.1,628.4c0.7-0.2,1.5-0.5,1.2-1.5c-0.2-0.9-0.6-1.9-1.8-1.9c-0.9,0-1.4,0.6-1.2,1.5
			C135.5,627.5,135.8,628.4,137.1,628.4z"/>
		<path d="M141.3,442.5c-0.8,3.3-0.3,6.7,0,10C141.3,449.1,141.3,445.8,141.3,442.5z"/>
		<path d="M510,421c-0.1,3.2,3.5,6,7.8,6c2.2,0,4.2-0.4,5.2-2.6c1.1-2.2-0.3-3.8-1.6-5.3c-1.4-1.7-2.9-3.3-5.5-2.4
			c-0.3,0.1-0.9,0.4-1,0.4c-1.6-2.4-4.2-3.6-6-5.7c-0.2-0.2-0.1-0.7,0-1.1c1.3-4.1,0.4-5.6-3.9-6.5c-1.8-0.4-3.4-1.3-5.5-0.3
			c-1.4,0.7-2.7,0.8-3.1,2.9c-0.2,1.4-1.7,2.1-3.7,1.6c-9.1-2.5-18.2-5.4-27.2-8.2c-10.8-3.4-21.8-6.5-32.6-10
			c-3.2-1.1-6.1-1.7-9,0.5c-0.8,0.6-1.6,0.1-2.4-0.2c-2.1-0.8-4.2-0.1-6,0.6c-1.3,0.4-2.5,1.7-2.4,3.5c0.1,2.1,1.3,3.5,3.1,4.5
			c4.1,2.2,6.8,1.7,10-1.9c1.6-1.8,6.8-2,8.5-0.1c1.1,1.2,2.2,1.8,3.7,1c0.7-0.4,1.5-0.2,2.2,0c6.3,1.7,12.9,2.7,18.8,5.6
			c3.3,1.6,6.9,0.8,10,2.6c0.9,0.5,1.9,0.8,2.7,1.5c0.9,0.8,1.8,1.6,3.2,0.7c0.4-0.3,1.3-0.1,1.9,0.1c9.9,3.8,20.2,6.3,30.3,9.5
			C509.7,417.9,510.4,419.2,510,421z M505.8,414.4c-24.3-6.5-48.3-13.8-71.9-22.2c5.9,1.3,11.9,2.6,17.6,4.6
			c7.9,2.8,15.9,5.1,23.9,7.5c9.9,3,19.7,6,29.6,9C505.4,413.5,505.8,413.8,505.8,414.4c4.4-0.5,6.2,0.4,6.7,4.6
			C510.7,415.8,508,415.5,505.8,414.4z M521.8,422.7c-3.1,1.8-5,0.8-7-0.6C516.8,422.8,518.9,422.7,521.8,422.7z"/>
		<path d="M536,412.9c-2.3,0-5.2,2.5-5.4,4.7c-0.2,1.6,2.2,3,4,2.1c2.1-1.1,3.4-0.7,4.6,1.3c0.8,1.4,3,2.5,3.7,1.5
			c0.9-1.4,3.3-2.7,2-5.1C543.5,414.9,539.8,412.9,536,412.9z"/>
		<path d="M397.6,380.9c-1.1,0.3-2.4,0.5-3.3,1.1c-1.2,0.8-0.6,1.9,0.4,2.4c0.6,0.3,1.5,0.3,2.2,0.2c2.2-0.3,4.2-0.6,5.3,2.1
			c0.5,1,2.1,1.4,3.2,0.5c1.1-0.8,0.3-1.6-0.1-2.6C403.9,380.6,400.3,381.9,397.6,380.9z"/>
		<path d="M471.3,391.7c1.3,0.4,3.1,0.2,4.2,2.2c0.5,1,1.9,1.3,2.7,0.8c1.1-0.6,0.2-1.6-0.2-2.4c-1-2.2-4.5-4.3-7.4-3.8
			c-1.5,0.2-4.4-0.6-4.2,1.9C466.6,393,469.3,391.6,471.3,391.7z"/>
		<path d="M435.5,381.8c2-0.4,4-0.9,5.3,1.8c0.3,0.7,1.8,0.9,2.9,0.6c0.6-0.1,0.5-0.7,0.5-1.2c-0.2-1.5-0.7-3.2-2.1-3.8
			c-2.6-1-5.4-1.6-8.2-0.9c-0.6,0.2-1.5,0.5-1.3,1.5C432.8,381.6,434,381.7,435.5,381.8z"/>
		<path d="M649.7,464.6c0.2,1.9,0.3,4.2,3,5.2c2.4,0.8,4.9-0.3,6.6-3.2c1.2-2.1,1.3-4.2-1.1-5.6c-1.5-0.8-1.1-3.3-3.6-3.1
			C651.5,458.1,649.6,460.4,649.7,464.6z"/>
		<path d="M511.7,576.3c0.3,3.2-0.7,4.5-4.7,5.9c-9.1,3-18.4,5.4-27.6,7.8c-1.1,0.3-2.1,0.5-3.3,0c-1.2-0.5-2.5,0-3.3,1
			c-0.8,0.9-1.8,1.4-2.9,1.6c-8.9,1.4-17.2,5.3-26,6.9c-3.4,0.6-6.5,2.1-9.8,2.9c-2,0.5-4.4,0.9-6.2-1.5c-1.4-1.8-4-2.3-6.3-1.6
			c-2.6,0.8-5.3,1.7-6.2,4.8c-0.4,1.4-0.2,2.7,1.2,3.4c2.2,1.2,4.3,2.9,7.1,1.4c0.2-0.1,0.6-0.3,0.8-0.2c6.6,2,12.3-2,18.3-3.3
			c8.7-1.9,17.2-4.6,25.8-7c8.8-2.4,17.5-4.9,26.3-7.3c1.6-0.4,3.6-1.6,3.3,1.9c-0.1,1.5,1.7,1.4,2.9,1.7c2.8,0.9,9.2-1.8,10.4-4.4
			c0.2-0.4,0.5-1.1,0.3-1.3c-2.2-2.3,0.3-2.5,1.5-3c2.1-0.8,4-1.6,4.3-4.3c0.1-0.9,1.1-0.8,1.7-1.2c2.4-1.3,4.8-2.6,5.7-5.4
			c1-3.1-0.2-5.3-3.4-5.7c-3.5-0.4-6.7,0.4-9.1,3.4C511.5,573.9,511.5,575.1,511.7,576.3z M514.2,579.6c1.5,2.7,0.9,4.2-1.7,4.5
			c-4.1,0.5-7.9,2.3-11.8,3.5c-8.7,2.7-17.6,4.9-26.3,7.5c-9.6,2.9-19.4,5.3-29.1,7.9c-4.6,1.2-9.3,2.4-13.9,3.5
			c2.5-2.2,5.5-2.8,8.4-3.7c9.3-2.7,18.8-5.2,28.1-7.9c7.7-2.1,15.3-4.4,23-6.5c6.1-1.7,12.3-3,18.4-4.7
			C511.3,583.3,513.7,582.9,514.2,579.6z M515,575.8c1.1-2.6,5.5-4,7.6-2.4c0.7,0.5,1.3,1.3,0.8,2.2c-0.7,1.1-1.3,0-1.8-0.4
			c-1.1-0.8-2.2-0.6-3.4-0.3C517.1,575.2,516.2,576.2,515,575.8z"/>
		<path d="M536.9,584.2c3.9,0.3,6.6-2,9.5-4c0.3-0.2,0.3-0.6,0.5-0.9c-1.9-0.8-1.2-2.6-1.6-3.9c-0.6-1.7-2.2-1-3-0.2
			c-2.1,1.9-4.2,2.8-7.1,2c-2.1-0.5-3.1,1.3-2.2,3.2c0.2,0.3,0.6,0.5,0.6,0.8C534.1,584,534.4,584.3,536.9,584.2z"/>
		<path d="M399.2,616.2c2.7-0.7,5.6-0.5,7.7-2.4c1-0.9,2.6-2.5,1.2-3.7c-1.1-0.9-3.3-0.5-4.2,1c-1.1,1.9-2.8,1.8-4.3,1.4
			c-1.3-0.4-2.4-0.3-3.4,0.4c-0.5,0.4-0.6,1-0.3,1.5C396.6,615.9,398.1,615.7,399.2,616.2z"/>
		<path d="M470.8,610.3c3.5-0.4,6.9-0.9,9.4-3.8c0.4-0.5,0.7-0.8,0.6-1.5c-0.2-0.8-0.8-1-1.5-1c-1.2,0-2.2,0.1-3,1.1
			c-1.3,1.7-3.2,2.1-5.3,1.6c-0.6-0.2-1.3-0.2-2-0.1c-1,0.1-1.9,0.3-1.9,1.6c0,1.3,0.6,1.6,1.7,1.7
			C469.6,610,470.2,610.2,470.8,610.3z"/>
		<path d="M621.8,511.9c-1.9-2.4-4.4-4.1-5.7-7c-2-4.6-2.7-9,0.2-13.5c0.6-0.9,1.1-1.9,1.7-2.9c-4.6,4.1-5.8,11.6-2.6,16.8
			c1.3,2.1,2.4,4.2,4.4,5.8C620.5,511.7,621.1,511.9,621.8,511.9z"/>
		<path d="M692.1,363.5c0.7-2.3-1.4-3-2.9-4c-1.5-0.9-2.8,0-3.7,1.1c-0.6,0.8-1.3,1-2.2,0.9c-3.1-0.3-6.3,1.1-9.3-1.3
			c-1.5-1.2-5.7,0.3-6.6,1.8c-1.3,2.3-0.8,4.4,1.5,6.2c2.5,2,3.8,2,6.3-0.4c0.6-0.6,1.1-0.6,1.7-0.6c3.2,0.2,6.3-1,9.5,1.1
			C689.2,370.3,692.1,367.6,692.1,363.5z M679.7,365.7c0,0.1,0,0.3,0,0.4c-2.3,0-4.5,0-6.8,0c-0.9,0-1.7-0.2-1.7-1.4
			c0-1.1,0.5-1.4,1.6-1.5c4.8-0.1,9.5-0.8,14.3-0.1c0.8,0.1,2.2-0.3,2.1,1.2c-0.1,1.2-1.2,1.4-2.1,1.4
			C684.6,365.8,682.1,365.7,679.7,365.7z"/>
		<path d="M680.2,392.8c-0.7,1-0.4,3.4-2.4,1.7c-0.5-0.4-1.5,0.3-1.9,0.9c-0.3,0.6-0.3,1.3,0.4,1.8c0.6,0.4,1.2,0.8,0.6,1.5
			c-0.7,0.9-1.8,1.4-3,1.4c-1,0-0.9-0.6-0.8-1.4c0.1-0.8-0.3-1.5-1.2-1.6c-0.8-0.1-1.5,0.4-1.8,1.1c-0.3,0.7-0.5,1.6-1.5,0.7
			c-0.6-0.5-1.3-0.9-0.4-2c1.1-1.4,0.5-2.5-1.4-2.6c-1,0-1.3-0.5-1.4-1.4c-0.1-0.9,0.2-1.4,1.3-1.4c1.2,0,2.1-0.6,2.3-1.7
			c0.2-0.9-0.8-1.1-1.5-1.4c-1.4-0.5-1.8,0.7-2.2,1.6c-1.7,3.4-1.2,6.1,1.3,8.7c2.3,2.4,5.8,3.2,8.7,2
			C678.6,399.5,680.4,396.7,680.2,392.8z"/>
		<path d="M680,347.5c-6.4,3-12.2,6.8-17.9,10.7C668.5,355.3,674.5,351.7,680,347.5z"/>
		<path d="M675.5,385.4c0.2,0.5-0.1,1.1,0.4,1.5c1.3,0.9,3.2,1.7,0.2,2.9c-0.5,0.2-0.4,1-0.2,1.5c0.3,0.6,0.8,0.7,1.4,0.6
			c0.9-0.2,1.7-0.4,2.7-0.7C679.5,388.6,677.8,386.8,675.5,385.4L675.5,385.4z"/>
		<path d="M675.5,385.4c-2.2-0.6-4.4-0.9-6.4,1c0.9,0.4,1.5,1.1,1.9,2c0.2,0.5,1,0.9,1.7,0.5c0.4-0.2,1-0.9,0.9-0.9
			C671.8,385.3,675.1,386.4,675.5,385.4C675.5,385.4,675.5,385.4,675.5,385.4z"/>
		<path d="M761.3,617.8c-0.6,0.9-0.1,1.6-0.1,2.3c-0.2,1.4-0.4,2.9-2.5,2.5c-2.1-0.4-2.4,0.8-2.3,2.4c0.1,2.8,0.1,5.6,0,8.5
			c0,1.3,0.3,2.3,1.8,2.3c2,0.1,2.4,1.4,2.5,3.1c0.2,3.5,0.5,7,1.2,10.5c0-3.4,0.1-6.9,0-10.3c-0.1-2.1,0.6-3.3,2.8-3.2
			c1.7,0.1,2.3-0.5,2-2.3c-0.3-2.3,0.1-4.7-0.2-7c-0.2-1.6-0.7-3.6-3-3.7c-1.2,0-1.7-0.7-1.7-1.8
			C761.9,619.9,761.9,618.9,761.3,617.8z"/>
		<path d="M729.9,594.5c-1,0-1.4,0.6-1.4,1.4c0,0.9,0.1,2,1.3,2.1c1.1,0.2,1.8-0.5,2-1.5C731.9,595.2,730.5,595.1,729.9,594.5z"/>
		<path d="M728.6,641.3c0.5,1.1,1.1,1.7,2.2,1.7c1,0,1.3-0.7,1.3-1.5c-0.1-1-0.6-1.8-1.8-1.7C729.4,639.8,729.1,640.8,728.6,641.3z"
			/>
		<path d="M729.8,664c0.2,1.1,1.1,1.4,1.9,1.4c0.8,0,1.3-0.6,1.2-1.5c-0.1-0.8-0.5-1.5-1.4-1.4C730.7,662.5,730.1,663.2,729.8,664z"
			/>
		<path d="M729.6,619.3c0.1,0.8,0.5,1.3,1.4,1.4c0.9,0.1,1.5-0.4,1.5-1.2c0-0.9-0.8-1.4-1.7-1.4C730,618.1,729.6,618.5,729.6,619.3z
			"/>
		<path d="M790.1,359.8c0,4.4,0,8.7,0,13.8C790.8,368.6,790.6,364.2,790.1,359.8z"/>
		<path d="M727.1,398.6c0.4,0.9,0.9,1.9,2.2,1.8c0.7-0.1,1.5-0.5,1.3-1.5c-0.2-1-0.5-1.8-1.7-1.9C727.8,397,727.4,397.7,727.1,398.6
			z"/>
		<path d="M727,355c-0.1,1,0.8,1.1,1.4,1.2c1,0.2,1.5-0.4,1.6-1.4c0-0.9-0.3-1.4-1.3-1.4C727.8,353.4,727.3,354,727,355z"/>
		<path d="M322.3,544.2c-0.2,0.8,0.3,1.4,0.6,2.1c2.7,5.6,6.1,10.8,9.5,16c0.8,1.3,1.9,1.4,3.2,0.7c1.3-0.7,1.3-1.6,0.7-2.8
			c-2-4.5-5-8.3-7.3-12.6c-1-1.8-1.9-3.6-3.4-5c-0.7-0.7-1.4-0.8-2.3-0.5C322.1,542.5,322.3,543.4,322.3,544.2z"/>
		<path d="M323.3,454.7c-0.1,0.9,0.5,1.4,1.3,1.6c0.9,0.3,1.8,0.4,2.5-0.6c3.6-5.8,7.2-11.6,10.7-17.5c0.6-1,0.4-2.2-0.7-3
			c-1.3-0.9-2.3-0.2-2.9,0.8c-3.6,6-7.2,12.1-10.8,18.2C323.3,454.3,323.3,454.5,323.3,454.7z"/>
		<path d="M218.8,406.9c0.2,0.8,0.4,1.6,1.5,1.6c0.8,0,1.6-0.2,1.5-1.2c0-0.9-0.1-2.1-1.4-2.1C219.7,405.2,219,405.9,218.8,406.9z"
			/>
		<path d="M255.6,405.9c0,0.8,0.4,1.3,1.3,1.3c1.2,0,1.7-0.9,1.7-1.8c0-0.9-0.9-1.4-1.8-1.4C255.8,404.1,255.5,404.9,255.6,405.9z"
			/>
		<path d="M223.6,591.9c-1,0.3-1.6,1.2-1.8,2.2c-0.2,1.1,0.7,1.8,1.6,1.9c1.3,0.1,1.7-1,1.9-2C225.4,592.8,224.6,592.3,223.6,591.9z
			"/>
		<path d="M222.5,581.3c0.9,0.1,1.5-0.6,1.6-1.5c0.2-1-0.7-1.2-1.5-1.3c-1.2-0.1-1.4,0.7-1.5,1.6C221,581,221.6,581.3,222.5,581.3z"
			/>
		<path d="M480.7,429.7c1.4,0.1,2.3-0.7,2.5-1.8c0.2-1.2-0.4-2.1-1.8-2.4c-4.9-1.3-9.8-2.6-14.7-3.9c-1.5-0.4-2.9-0.7-4.4-1.1
			c-1.3-0.3-2.8-0.7-3.2,1.1c-0.4,1.7,0.8,2.6,2.3,3c2.2,0.7,4.5,1.3,6.7,1.9C472.3,427.6,476.5,428.6,480.7,429.7z"/>
		<path d="M511.7,544.8c0,3,0,6,0,9.1c0,1.1-0.1,2.3,1.6,2.4c1.7,0.1,2.2-1,2.2-2.3c0-6.2,0-12.4-0.1-18.6c0-1.1-0.1-2.7-1.9-2.5
			c-1.7,0.2-1.9,1.5-1.9,2.9c0,3,0,6,0,9.1C511.6,544.8,511.6,544.8,511.7,544.8z"/>
		<path d="M514.5,453.2c-0.3-3.2,0.2-6.4-0.4-9.6c-0.2-1.2-0.3-2.3-1.9-2.1c-1.4,0.2-1.9,1.1-2,2.4c0,0.7,0.1,1.5,0.1,2.2
			c0.4,5,0.6,10.1,0.2,15.1c-0.1,0.8,0.1,1.7,0.3,2.5c0.2,0.8,0.8,1.5,1.8,1.4c0.8-0.1,1.1-0.7,1.5-1.5c0.7-1.7,0.4-3.3,0.4-5
			C514.5,456.7,514.5,454.9,514.5,453.2z"/>
		<path d="M462.5,580.1c3.6-1,7.4-1.9,11.1-3.1c1.8-0.6,3.6-1,5.5-1.3c0.9-0.2,1.8-0.5,2.6-1c1.1-0.7,2.1-1.4,1.3-2.9
			c-0.7-1.4-1.8-1.6-3.1-1.1c-6,2.3-12.2,3.7-18.3,5.6c-0.8,0.3-2.6,0.3-2.3,1.8C459.6,579.6,460.8,580.1,462.5,580.1z"/>
		<path d="M220.2,471.2c0,2.3,0,4.6,0,6.9c0,1.3,0.2,2.6,2,2.5c1.6-0.1,1.2-1.4,1.2-2.4c0-4,0-7.9,0-11.9c0-0.5,0-1-0.2-1.4
			c-0.4-1-0.3-2.5-1.8-2.4c-1.5,0.1-1.3,1.6-1.3,2.6c0,2,0,4,0,6C220.2,471.2,220.2,471.2,220.2,471.2z"/>
		<path d="M220.1,502.6c0.2,0.9,1,1.6,1.8,1.6c0.8,0,1.2-1,1.1-1.8c0-0.9-0.6-1.7-1.6-1.6C220.5,500.9,220.2,501.8,220.1,502.6z"/>
		<path d="M220,496.5c0.2,0.8,0.7,1.4,1.4,1.5c0.9,0.1,1.5-0.5,1.5-1.3c0.1-1-0.6-1.6-1.5-1.7C220.7,495.1,220.2,495.8,220,496.5z"
			/>
		<path d="M167.9,378.5c-1.4,0.1-2.8,0.2-4.2,0.4c-1.4,0.3-1.9,1.4-2,2.7c0,1.4,0.6,2.4,2,2.6c2.2,0.3,4.5,0.4,6.7,0.5
			c2,0,3.5-1.1,3.3-3c-0.2-2-1.6-3.4-3.9-3.3C169.2,378.5,168.6,378.6,167.9,378.5C167.9,378.6,167.9,378.6,167.9,378.5z
			 M167.8,380.3c1.3,0.4,4.1-0.8,3.9,1.6c-0.2,2.2-2.7,1.1-4.3,1c-1.4-0.1-4,0.1-3.9-1.3C163.7,379.7,166.1,380.5,167.8,380.3z"/>
		<path d="M587.8,340.7c-1.4,0.1-2.9,0.5-4.1,0.2c-3.4-0.8-3.8,1-3.8,3.6c0,2.9-0.2,5.9,0,8.8c0.2,4.6,3.5,8.9,9.9,8.3
			c3.9-0.4,7.8-5.1,7.4-9.5c-0.3-3-0.5-6-0.4-9c0.1-1.9-0.7-2.5-2.5-2.4C592.1,340.7,589.9,340.6,587.8,340.7
			C587.8,340.6,587.8,340.7,587.8,340.7z M588.5,354.2c3-0.9,5.1-4.1,4.1-6.5c-1.1-2.7-4.3-3.2-8.5-1.3c0.8-2.2,3.4-3.5,5.7-2.9
			c3.3,0.8,4.5,2.6,4.1,6C593.6,353,592.2,354.3,588.5,354.2z M589.1,358.5c-0.8,0.1-1.5-0.1-2.1-0.7c-0.4-0.4-1.6-0.1-1.3-1.1
			c0.2-1,1.1-0.4,1.7-0.4c1,0,2.1-0.1,3.1-0.2c0.6-0.1,1.3-0.6,1.7,0.3c0.4,0.9-0.5,1-1,1.5C590.5,358.4,589.8,358.5,589.1,358.5z"
			/>
	</g>
</g>
<g id="text">
</g>
<g id="scratch">
</g>
<g id="guides" display="none">
</g>
</svg>
