<?xml version="1.0" encoding="utf-8"?>
<!-- Generator: Adobe Illustrator 26.0.2, SVG Export Plug-In . SVG Version: 6.00 Build 0)  -->
<svg version="1.2" baseProfile="tiny" xmlns="http://www.w3.org/2000/svg" xmlns:xlink="http://www.w3.org/1999/xlink" x="0px"
	 y="0px" viewBox="0 0 1000 1000" overflow="visible" xml:space="preserve">
<g id="bg">
</g>
<g id="counters">
	<g>
		<path d="M880.6,381.8c17.9-1.9,17.9-1.9,17.6-19.2c-0.2-13.8-0.7-27.7-0.4-41.5c0.2-8.4-3-11.1-11.3-11.1
			c-93.8,0.2-187.7,0.1-281.5,0.1c-57.2,0-114.5,0-171.7-0.1c-4.7,0-9.6,1.1-12.6-4.6c-1.4-2.8-5.1-2.2-8-2.3
			c-6.7-0.2-13.5-0.4-20.2-0.5c-4.2-0.1-8.1-0.2-10.9,4.3c-3.1,5.1-8.7,3.2-13.3,3.2c-74.2-0.4-148.4-1-222.6-1.5
			c-11.6-0.1-23.2,0.2-34.7-0.2c-8.1-0.3-10.7,3.1-10.6,10.9c0.3,18.3,0.3,36.7,0,55c-0.2,8.1,3.3,10.7,11,10.5
			c15.8-0.3,31.5-0.1,47.3,0.1c3.1,0,8.2-1.7,8.4,3.6c0.2,4.1-4.5,3.7-7.5,4.5c-3.4,1-6.9,1.5-10.2,2.7c-3.4,1.2-7.6,3.8-7.1,7.1
			c1.6,13.2-10.5,25.3-4.9,37.4c9.1,19.6,3.5,39.5,4.7,59.2c0.6,10.1,0.7,20.8-1.1,30.5c-1.4,7.5-5.8,14.5-5.5,23
			c0.2,7.2,2,10.7,10.1,9.8c8-0.8,16.1-0.4,24.1-0.3c2.2,0,5,0,5.3,2.9c0.3,3.2-2.5,3.5-4.7,3.4c-8-0.2-9.7,4.6-9.4,11.3
			c0.4,10.6,0.9,21.2,1.1,31.8c0.1,3.8,1.5,6.7,4.7,11c-18.6,0-36.1,0.8-53.5-0.3c-10-0.6-12.3,3.3-12.2,12
			c0.3,15.8,0,31.5,0.1,47.3c0.1,14.6,1,15.4,15.3,15.4c78.5,0,156.9,0.1,235.4-0.4c17.9-0.1,35.5,4.3,53.5,2.6
			c24.5-2.2,49.1-2.1,73.7-3c23.8-0.9,47.6-1,71.3-1.1c41.5-0.2,82.9,0.2,124.4,0.2c70.1,0,140.2-0.1,210.3-0.1
			c14,0,15.2-0.7,14.8-14.6c-0.4-15.7-1.8-31.3-2.3-47c-0.2-6.7-1.6-11.4-9.6-10.7c-2.1,0.2-5.2,0.1-5-3.1c0.2-2.8,2.6-4,5.5-4.2
			c7.5-0.6,10.6-5.5,7.7-12c-0.8-1.7-2.9-2.9-1.4-5c4.5-6.4-1.4-7.6-4.9-8.2c-10.8-1.8-12.1-7.9-11.8-17.9c1.1-31.8,0.9-63.6,0-95.5
			c-0.5-17.3,0.5-34.7,0.8-52c0.1-4.3,1.2-7,6.6-7.5c6.1-0.6,10.5-4.2,9.8-11.3c-0.2-2-0.1-3.8,1.2-5.4c3.9-4.8,1.1-7.7-3-9.9
			C889,388.6,884.9,386.2,880.6,381.8z M400,366.7L400,366.7c-0.6,0-1.2-0.1-1.8-0.1c-4.3,0.4-9.6,6.4-12,2.9
			c-3.9-5.7-2.3-13.7-1.9-20.6c0.3-4.9,6.3-3.2,9.8-3.2c63,0,125.9,0.2,188.9,0.4c5.4,0,11,0,16.3,1.1
			c43.6,9.6,87.1,19.7,130.6,29.3c7.5,1.7,9.6,5.5,9.6,12.8c-0.3,32.4-0.2,64.9-0.3,97.4c0,2.8,0.9,6.2-2.3,7.8
			c-3.5,1.8-6.2-0.8-8.4-3c-8.3-8.1-16.2-16.5-24.6-24.5c-5.2-5-3.8-7.3,2.4-8.7c5.6-1.2,10.5-2.8,10.4-10.2
			c-0.2-20.2-0.2-40.5,0-60.7c0-5.6-2.8-7.7-7.7-9.2c-19.2-5.7-38.8-3.9-58.4-4c-3.5,0-5.9,1.6-4.5,5.4c5.8,16.7,0.8,33.7,1.9,50.8
			c-7.3-14.6-17.6-26-31.5-33.8c-3.6-2-8.3-2.9-10.9-5.7c-14-15-32.4-24.1-48.2-36.6c-4.8-3.8-10-5.2-16.1-5.2
			c-37.3,0.1-74.5,0.2-111.8-0.1c-9.8-0.1-16.8,3.1-20.8,12.3c-0.2,0.4-0.5,0.7-0.9,1c-0.8,0.2-1.6,0.4-2.4,0.7
			c-0.5,0.5-1,1-1.5,1.5c-0.7,0.2-1.4,0.3-2.1,0.5C401.3,365.4,400.6,366.1,400,366.7z M438.6,604.1L438.6,604.1
			c-1.2,2.5-2.7,4.2-5.7,2.7c-1.2-0.6-1.7-2.1-0.9-3.2C434.3,600.6,436.3,604.2,438.6,604.1z M419.3,580.9c0.5,2.1,2.3,5.4-0.8,5.6
			c-12.1,1.1-9.2,11-9.9,17.6c-0.7,6.6,6.5,10.3,11.4,11.3c22.1,4.5,42.6,16.6,66.2,14.1c2-0.2,4,0,4.1,2.7c0,2.5-0.7,4.6-3.6,4.6
			c-2.6,0-5.2-0.1-7.7-0.7c-25.8-6.5-51.6-13.1-77.3-19.8c-2.7-0.7-5.9-1.3-6.7-4.7c-1.8-7.4,0.7-14.7,1.7-21.9
			c0.8-6.6,6.1,1.4,8.4-1.9c0.5-0.7,2.3-0.9,2.4-1.5C408.2,577.8,414.9,581.9,419.3,580.9c-2.3-4-6.3-3.9-10.1-4.4
			c-12.3-1.5-17.8-8.1-17.7-20.9c28.6,11,54.1,6.3,69.3-15.4c15-21.4,17.4-40.6,2.5-63.7c-7.8-12-20.2-18.7-33.4-21
			c-13.1-2.2-27.2-2.6-40.4,6.1c5.8-16.7,23.1-27.5,36.4-24.5c9.1,2.1,18.1,5.2,27.1-2.1c3.5-2.8,9.5-6.4,14.8-0.8
			c0.5,0.5,2.5,0.5,2.6,0.2c3-7.9,12.1-6.5,17-11.3c2-1.9,3.3-5.8,6.7-4.3c3.6,1.6,2.2,5.7,2.2,8.7c-0.4,41.4-0.9,82.9-1.5,124.3
			c0,0.7-1,1.3-1.5,2c-12.8-8.6-21.7-9-29.9-1.7c-11,9.8-11,10.5,0.2,31.6c-6.5,0.1-12.3-1-17.4-4.6c-1.7-1.1-1.8-4.6-4.9-3.5
			C434,578.2,425.7,575.5,419.3,580.9z M571,600.8c0-1.1,0.1-2.2,0.1-3.3c-3-2-6.6-1.3-10-1.2c-17.3,0.4-34.7,0.6-52,1.4
			c-7.8,0.4-10.8-2-10.9-10.2c-0.4-54.3,0.9-108.6,2.3-162.9c0.2-6.2,2.3-8.3,8.7-8c28.2,1.1,56.5,1.9,84.7,2.4
			c7.4,0.1,10.3,2.5,10.3,10c-0.2,52.4-0.2,104.8,0,157.2c0,7.7-2.9,10.1-10.3,10.1c-5.1,0-11-1.7-18,3.6c9.2,0,15.9,0.5,22.5-0.1
			c6.2-0.6,6.7,3.9,8.1,7.6c1.7,4.4-1.9,5.2-5,6.4c-6.3,2.4-12.8,4.5-18.7,7.6c-22.8,12-47.2,15.8-72.6,15.4
			c-11.3-0.2-16.6-6.2-14.8-17.1c0.5-2.9,1.3-5.7,1.5-8.5c0.5-8,4.3-10.7,12.5-10.4C530,601.2,550.5,600.8,571,600.8z M265.9,313.8
			c33.1,3.6,73.8-3.5,114.5,1c0.2,1.8-0.7,2.5-1.9,3.2c-2.2,1.2-3.8,3-2.2,5.4c2.5,3.6,6.2,2.6,9.7,1.7c2.4-0.6,4.8-2.6,3.2-4.8
			c-6.4-8.9,1.3-6.6,5.3-6.9c4.8-0.3,9.6-0.2,14.5,0c3.8,0.1,8.6-0.4,5.2,6.2c-1.1,2.2-0.3,4.5,2.3,5.5c2.8,1.1,5.7,1.1,8.3-0.5
			c1.9-1.2,2.6-3.5,1.2-5c-7.1-7.6,0.6-6,3.9-6c20.6,0.1,41.1,0.8,61.7,0.7c51.4-0.1,102.7,0,154.1-0.8c29.2-0.5,58.4,2.1,87.7,0.9
			c25.7-1.1,51.4,0.2,77.1,0.3c5.1,0,10,0.2,9.9,7.3c-0.2,15.1-0.2,30.2-0.5,45.3c-0.1,4.4-1.4,8.6-7,8.6
			c-22.1-0.2-44.3,1.1-66.5-1.3c-5.1-0.5-7.8-7.6-11.1-5.8c-8.3,4.3-13.9-1.4-20.6-3.1c-14.1-3.5-28-6.4-42.8-7.5
			c-22.8-1.8-45.2-9.3-67.7-14.6c-3.6-0.8-7.8-1.6-7.6-7c0.1-2.5-1.4-4.2-4-4.6c-3-0.4-5.2,0.8-5.7,3.8c-1.1,6.3-5.8,5.7-10.3,6
			c-30.5,1.5-61,0-91.5-0.3c-36-0.4-71.9-0.2-107.9-0.2c-29.8,0-59.7,0.2-89.5,0.3c-5.1,0-6.8-2.3-9.6-6.8
			C273.3,327,274.9,311.4,265.9,313.8z M256.4,692.2c-0.1-0.7-0.2-1.5-0.3-2.2c1.8-0.3,3.5-0.7,5.3-0.8c5.8-0.4,11.6,0.6,10.2-9.2
			c-0.9-6.4,12.4-16,19.4-16c99,0,198,0.1,297,0c6.3,0,11.9,0.8,16.9,5.3c3.4,3,8,5,12.6,3.4c7.5-2.6,13.5-7,23.3-5
			c8.6,1.8,18.6-3.3,28-5.6c3-0.7,7.9-1.7,6.7-5.4c-3.1-10.1,4.5-7.7,9.3-8.8c4.7-1.1,9.4-2.9,14.1-3.2c12-0.5,21.3-15.1,35-6.7
			c0.4,0.3,2.1-1.1,2.9-2c6.2-7.5,14.9-8.6,23.6-8.5c13.1,0.1,26.3,1.1,39.4,1.6c5.3,0.2,6.6,2.3,4.9,7.4c-2.1,6.2-2.4,13.4,5.3,15
			c7.8,1.7,8.9,5.7,8.5,12.2c-0.3,5.4-0.3,10.9,0,16.4c0.5,7.6-2,10.5-10.3,11c-40.4,2.2-80.8,0.4-121.3,1
			c-81.3,1.1-162.7,0.5-244,0.6c-5.1,0-10.3,0.3-15.4,0c-4.2-0.3-7.4-2.1-3.4-6.6c2.2-2.5,3.6-5.1,1-7.4c-2.9-2.6-6.9-1.7-10-0.1
			c-3.7,1.8-2.4,4.5-0.3,7.1c3.4,4.3,1.5,6.6-3.2,6.8c-7.7,0.3-15.4,0.4-23.1,0c-4.7-0.2-6.6-2.8-2.7-6.8c1.9-2,4.1-4,1.6-6.4
			c-2.8-2.6-6.7-2.5-10-1.1c-3.1,1.3-2.6,4.1-1.2,6.5c4.6,7.8-1,7.9-6.1,8c-5.8,0.1-11.6-0.4-17.3-0.4
			C320.6,692.2,288.5,692.2,256.4,692.2z M376.7,637.5c-2.7-5.1-7.1-7.1-12.5-7.1c-5.5,0.1-11-0.4-16.4,0.2
			c-9.2,1.1-12.1-3-11.2-11.6c0.9-8.9,1.2-17.9,1.6-26.9c0.2-5.4,3.2-6.8,8.1-7.3c16.7-1.8,31.5-0.4,36.8,19.4c0.7,2.7,3,5,4.1,7.6
			c2.1,4.9,5.7,7.1,10.9,8.4c25.6,6.2,51.1,12.8,76.7,19.1c4.3,1.1,7.8,2.2,7.8,7.9c0,5.1,3,6.8,6.6,2.6c5.7-6.7,13.2-7,21-7.4
			c21.8-1.2,43.8-1.7,63.7-12.7c1.1-0.6,2.9-2.5,4.5-0.3c-8.3,4.3-16.7,8.5-24.8,13c-3.8,2.1-9.1,4-6.1,10c3.2,6.4,7.7,2.3,11.4,0.4
			c19.2-9.7,37.9-20.7,57.6-29.2c15.6-6.7,24.1-18,29.2-33.2c4.4-13.1,8.9-26.2,12.8-39.4c1.9-6.3,6-10.3,11.8-11.5
			c8-1.6,16.1,0.2,24,2.6c-7.2,1-14.4,1.3-21.6,0.9c-7.5-0.4-10.7,3.1-10.7,10.2c0,7.4-0.2,14.8,0.1,22.2
			c0.5,12.5,2.1,25.7,0.1,37.3c-2.4,14,5,11.2,11.4,10.7c15.8-1.2,31.8,0.5,47.1-6.5c5.7-2.6,8.1-4.5,8.1-10.6
			c-0.1-17.7-0.9-35.4,1.2-53c1.1-9.1-2-13.7-11.3-15c-6.6-0.9-12.9-3.3-20.7-5.4c11.2-3.5,21.5-5.9,31.2-9.9
			c9.2-3.8,10.2-0.6,10.5,7.9c1.2,29.2-4.3,58.4-0.7,87.6c0.8,6.3-2.9,8.3-8.2,9.6c-33.7,7.9-67.4,16-101.2,23.9
			c-14.1,3.3-28,7.4-42.6,7.4c-51.4,0.1-102.9,0.3-154.3,0.2c-4.5,0-13.3,3.7-9.2-7.6c0.7-1.8-1.3-3.5-2.9-4.7
			c-16.6-12.2-33.2-24.3-49.7-36.6c-3.7-2.8-9.5,1-12.5-5.1c-2.6-5.3-7.7-8.2-13.6-4c-4.4,3.1-7.9,7.3-5.2,13.1
			c3.1,6.6,9,8.7,15.3,5.6c5.1-2.4,8.5-1,12.2,1.9c5.3,4,10.3,8.3,17.9,8.3c2.8,0,8,3.7,8.1,5.8c0.3,7.5,6.3,9,10.4,12.6
			c3.5,3,7.3,5.9,12.7,10.2c-9.8,0-17.1,0-24.4,0c-2.6,0-6.1,0-6.3-3.1c-0.4-8.2-3.4-7.8-9.6-4.8c-3.4,1.7-8.2,0.7-12.4,0.7
			c-24.1-0.1-48.2-0.4-72.3-0.5c-5.3,0-11.1,2.1-13.5-5.5c-0.7-2.4-3.7-2.3-4.3-0.1c-2.2,7.7-8.1,5.9-13.3,6
			c-13.2,0.1-26.4-0.2-39.5,0c-6.6,0.1-12.5,0.5-15.7-7.4c-0.9-2.2-4.8-3.6-3.6-6.9c1.4-3.4,5-2.3,7.7-2.2
			c32.4,1.1,64.8-3.6,97.3-0.8c10.2,0.9,20.6,0.5,30.8-0.2C350.2,633.6,363.6,631.2,376.7,637.5z M770.2,501.2
			c-4.3-3.7-3.2-7.5-3.2-10.8c-0.1-17-0.1-34.1,0.1-51.1c0.1-4.1-2.4-10.2,3.4-11.7c5.3-1.4,11.5-2,15.4,4.3
			c3.2,5.2,8.6,6.2,14.4,6.2c14.1,0,28.3,0,42.4,0c22,0,28.8-6.9,28.1-28.5c-0.2-4.9,1-10.3-4-14.1c-6.8-5.1-13.8-8.6-22.9-8
			c-13.1,0.8-26.4,0.2-39.5,0.2c-16.7,0.1-19.8,3.1-20.5,19.3c-0.2,3.9,1.1,9.2-5.7,8.8c-5.9-0.4-11.9-0.6-11.2-9.4
			c0.5-6.4,0.3-12.9,0-19.3c-0.3-6.3,2.6-8.4,8.6-8.4c29.3,0.2,58.5,0.2,87.8,0.1c7.6,0,10.6,2.9,10.7,10.9
			c0.2,36.9-1.2,73.8-0.1,110.7c1.2,37,0,73.9-1.2,110.9c-0.4,12.5-0.2,12.5-12.7,11.2c-1.2-0.1-2.4,0.4-3.7,0.7
			c-12.7,3.1-25.4,2.7-38,0.1c-2.5-0.5-4.7-1.1-7.4-0.3c-11.6,3.6-23.5,2-35.3,1.2c-6.7-0.5-9-3.8-9.4-10.6
			c-1-18.7,2.5-37.1,2.4-55.7c-0.1-10.7-1.5-21.6,1-32.8c5,2.1,7.3,9.4,12.2,7.3c9.4-3.9,19-1,28-0.8c14.7,0.3,29.9-4.7,44.5,1.5
			c1.6,0.7,2.6-1.7,3.8-2.3c13.6-5.9,8.5-19.3,8.4-27.9c-0.1-14.2-1.1-28.8-0.3-42.9c0.4-7.8-2.8-10-6.6-14.4
			c-4.2-4.8-7.4,0.6-11.1-0.4c-10.5-2.8-21.2-0.1-31.9-0.9c-10.7-0.8-21.8,0.6-32.8-0.3c-8-0.6-14.1,5.3-13.9,13.5
			C770.4,471.7,770.2,485.9,770.2,501.2z M286,503c-1-13.6,5.3-29.8,13.2-45.9c7.2-14.6,15.7-23.8,33.9-21.2
			c12.5,1.8,16.8,7.5,9.9,18.6c-2.3,3.7-2.1,6.3-0.4,9.7c5.8,11.7,3.6,23.8,0.2,35.4c-1.4,4.6-2,7.9-0.6,12.6
			c3.5,11.8,3.3,24.2-0.1,36c-1.3,4.6-2.1,7.8,0.1,12.5c2.8,6,4.5,13.6-1.3,18.7c-5.4,4.7-28-0.3-32.5-6.2
			C293.8,553.8,286.3,532,286,503z M836.2,447.9c6.4,0.5,11.8,0.9,17.2,1.5c7.2,0.8,9.2,5.5,9.1,12.2c-0.1,17.6,0.1,35.2,0.2,52.9
			c0.1,5.2-0.4,9.3-7.1,10.2c-25.1,3.4-50.1,2.6-75.2,0.5c-5.1-0.4-5.5-3.7-5.6-7.3c-0.2-20.4-0.3-40.8-0.4-61.2
			c0-4.3,1.4-5.9,6.6-6.9C799.8,446,818.5,451.7,836.2,447.9z M333.5,631.5c-4.1-7-11.6-9.4-16-4.7c-3.8,4-7.7,4-12.1,4
			c-27.6-0.5-55.1,0-82.7,1.1c-2,0.1-4.3,0.4-4.8-1.9c-1.1-5.3-5-5.5-8.9-5.1c-7.5,0.8-7.7-3.2-8-9.3c-1.1-20.5,1.2-41-0.7-61.5
			c-1.1-11.7-1.1-23.7,0.7-35.6c0.9-6.5,4.8-7.2,8.4-3.3c5.7,6.1,9.3,4.8,15.1-0.1c5.9-4.9,14.4-4.4,21.3-2.3
			c6.7,2.1,3.1,9.4,3.8,14.5c0.5,3.5,0.9,7.1,0.4,10.6c-1,8.5,3.3,10.7,10.8,10.4c7.1-0.3,14.1-0.1,21.2,0c2.7,0.1,7-0.6,7,3.1
			c0.1,4-4.5,2.9-6.9,2.9c-8.9,0.2-17.9-0.4-26.9-0.2c-11.1,0.2-13.3,2.4-13.4,12.8c-0.2,10.6-0.1,21.2-0.2,31.8
			c0,2.9-0.4,6.5,2.4,7.9c13.5,6.9,25.4,17.7,41.9,17.5c13.2-0.1,26.3-0.2,39.5-0.2C329.4,623.9,334.4,623.1,333.5,631.5z
			 M273.5,384.8c-5.5,1.1-13.4-0.4-13.7,8.2c-0.5,14.1-0.3,28.2-0.4,42.4c0,6.7,3.6,10.1,10.2,10.2c6.7,0.2,13.5,0,20.2,0.3
			c2.5,0.1,6.7-1.7,7,2.6c0.2,3.1-2.2,6.4-5.3,7.4c-2.9,1-6.3,0.5-9.5,1c-7,1.2-16.6-4.8-19.9,7c-0.1,0.5-1.7,0.6-2.7,0.8
			c-10.3,2.4-50-1.8-58.1-6.1c-2.2-1.2-1.7-3.3-1.7-5.1c0-21.9,0.1-43.7,0.2-65.6c0-2.2-0.2-4.9,2.3-5.9c2.6-1.1,4.1,1.2,5.4,3
			c5.3,7.1,10.4,6.4,15.5-0.1c1.4-1.8,3-3.4,5.5-3.4c12.8-0.3,25.7-0.5,38.5-0.7C269.8,380.7,272.6,380.8,273.5,384.8z M105.3,346.3
			c0-8.7,0.1-17.3,0-26c-0.1-4.8,2.1-7,6.9-7c14.4,0.1,28.9-0.4,43.3,0.4c4.9,0.3,11.3,0.6,13.8,6.7c2.5,6.2,4.7,12.4,4.4,19.4
			c-0.5,11-0.3,21.9-2.7,33c-1.2,5.9-1.5,6.9-6.6,6.7c-17-0.5-34-1-51-1.1c-6.4-0.1-8.4-3.1-8.2-9
			C105.4,361.7,105.2,354,105.3,346.3z M139.3,627c0,0,0,0.1,0,0.1c9,0,18-0.1,27,0.1c2,0,5.7-0.6,4.9,2.7
			c-1.9,8.2,3.4,15.3,2.5,23.6c-1.1,10.7,0.1,21.5-2.7,32.3c-0.9,3.5-1.3,4.4-4.7,5c-17.6,3.2-35.2,1-52.8,1.5
			c-5.8,0.2-6.9-3.5-6.9-8.2c0-16.4,0.2-32.8-0.1-49.2c-0.1-6.6,2.7-8.2,8.7-7.9C123.2,627.4,131.3,627,139.3,627z M329.1,353.7
			c14.1,0,28.2,0.1,42.3-0.1c5.8-0.1,8.7,1.7,8.8,8.2c0.3,13.7-0.4,14.7-14.4,14.4c-4.2-0.1-8.2,0.1-11-4.3
			c-2.3-3.6-7.4-3.4-9.5-1.4c-9.9,9.1-21.8,5.3-32.9,6c-9,0.6-18.4,2-26.2-5.6c-2.1-2.1-6.2-0.2-9.7,1.5c-16.5,8-34.1,4.8-51.4,4.1
			c-1,0-1.9-1.6-2.8-2.5c-5-5.1-9.4-5.6-14.2,0.7c-3.3,4.3-6.5,3.5-7.9-2.1c-2.8-10.6,3-18.3,14.2-18.5c15.4-0.3,30.8-0.4,46.2-0.5
			c4.3,0,9.1-1,11.6,4.4c1.4,2.9,3.9,2.1,5.3-0.1c2.9-4.9,7.7-4.2,12-4.2C302.8,353.6,316,353.7,329.1,353.7z M369.2,580.2
			c-4.2,0-8.4,0.1-12.5,0c-3.5-0.1-7.5,0.6-8.1-4.5c-0.4-3.7,0.2-6.8,4.5-8.4c6.8-2.7,6.8-6.9,1.7-11.6c-2.8-2.5-4.6-6-4.8-9.2
			c-0.5-8.9-4.6-19.3,3-26.1c5.3-4.7,6-6.6,1.9-12c-8.1-10.8-7.5-39.8,1.2-50.1c4.5-5.3,3.9-8.3-1.7-11c-3.2-1.6-4-3.9-3.5-7.1
			c0.6-3.2,3.1-3.8,5.8-3.9c9-0.1,18-0.1,27,0c3.3,0,6.3,1.3,4.4,5.2c-4.3,8.6-6.1,18.2-11.3,26.5c-12.3,19.6-19.2,40.3-7.9,62.7
			c4.9,9.8,9.2,19.7,13.3,29.9C390.1,580.3,390.3,580.3,369.2,580.2z M254.3,469c0-0.2,0-0.3,0-0.5c8.7,0,17.3,0.1,26-0.1
			c4.5-0.1,7,1,5.4,6c-2.7,8.6-3.8,17.5-4,26.5c-0.1,4.3-2.3,6.1-6.5,6.6c-15,1.9-30.1,1.4-45.1,1.2c-2.7,0-4.9-0.8-6.5-3.3
			c-4.4-6.6-9.1-7.3-13.9-0.3c-1.6,2.3-4,3.7-6.6,3.1c-3.4-0.8-2.5-4.2-2.6-6.5c-0.3-9-0.3-17.9-0.4-26.9c0-1.9,0-4.1,2.2-4.8
			c2.9-0.8,2.5,1.8,3.4,3.4c2.6,4.5,15.5,6,16.2,2c1.4-8.9,7.5-6.1,12.3-6.3C240.8,468.8,247.6,469,254.3,469z M866.7,313.7
			c-3.6,7.4-5.1,12.7,1,19.1c5.4,5.6,5,15.8,0.8,20.5c-6.8,7.6-6.1,13.8-1.2,22.3c-13.9,0-26.6,0-39.3,0c-3,0-4.9-1.8-4.9-4.8
			c0-16.3-1.3-32.7,0.7-49c0.4-3.2,1.5-6.8,5.6-6.7C841.7,315.7,853.6,311.9,866.7,313.7z M868.3,628.8c-6.7,7.7-7.2,14-1.1,21.7
			c3.6,4.6,3.4,12.6,0,17.4c-5.2,7.5-4.7,14,0.5,22.6c-14.1,0-26.7,0.1-39.4-0.1c-5.2-0.1-5.8-4.2-5.8-8.2
			c0.1-15.7,0.4-31.4,0.5-47.1c0-4.8,1.6-6.7,6.8-6.5C841.9,629,854.1,628.8,868.3,628.8z M447.6,361.1c13,0,21.6,0.2,30.3-0.1
			c5.9-0.1,8.3,4.1,9,8.3c0.9,5.2-4.5,4.1-7.3,4.8c-20.1,5.6-40,12.6-60.5,15.8c-21.1,3.3-34.6,12.7-40.6,33.1
			c-0.9,3.2-2.3,8-6.3,7.4c-5-0.7-4-6.3-3.9-9.6c0.3-9.3-4.5-19.9,7.2-26.5c7-3.9,13.5-8.7,19.6-14C411.5,366.3,429,356,447.6,361.1
			z M145.9,485c0-18,0-35.3,0-52.6c0-21.7,0-21.5,21.7-20.6c5.7,0.3,8.3,2.3,8.3,8c0,26.6,0,53.3,0,79.9c0,2.9-0.2,6.5-3.7,7
			c-8.6,1.2-17.4,1.7-26.1-1.7c9.6,1.8,13.8-5.2,18.9-10.6c3.6-3.8,4-8,0.5-12.1c-3.5-4.2-8-5.5-12.9-3
			C150.4,480.5,148.6,482.8,145.9,485z M526.8,414.9c-28.8-0.6-27.1,0.1-28.4-27.8c-0.4-7.9,3.5-10.4,10.2-10.4
			c33.4-0.1,64.2,10.7,94.3,23.7c6.2,2.7,5,6.4,2.3,10.7c-2.7,4.3-7.1,3.7-11.2,3.7C571.6,414.9,549.2,414.9,526.8,414.9z
			 M664.6,580.2c0.1,0,0.1,0,0.2,0c0-8,0-16,0-24.1c0-6.4,3-9.4,9.4-9.4c11.2,0.1,22.5-0.1,33.7,0c3.7,0,8.8-1,9.2,4.3
			c0.4,5.3-4.8,3.7-8,4.3c-2.5,0.4-5.7,0.3-5.7,3.8c0,3.4,3.1,3.9,5.7,3.7c7.7-0.6,9.3,3.9,9,10.2c-0.2,3.2-0.3,6.4,0,9.6
			c0.8,7.9,0.2,14.4-10.4,13.6c-1.9-0.1-4.1,0.8-4.4,3c-0.4,2.9,2,3.8,4.3,4.2c1.6,0.3,3.2,0.3,4.8,0.5c2,0.2,4.2,0.6,4.4,2.9
			c0.3,2.8-1.9,4-4.3,4.1c-5.4,0.2-10.9-0.1-16.3,0.4c-6.6,0.6-9.4-1.8-8.8-8.6c0.3-2.7,0.4-6.2-3.1-7.3c-2.4-0.8-4.3,1.1-5.8,2.7
			c-2.1,2.4-4.2,4.9-1.8,8.5c1.1,1.6,4.7,3,1.6,5.3c-1.5,1.1-4.3,1.1-6.4,0.8c-5.6-0.6-7.2-4.6-7.2-9.6
			C664.7,595.6,664.6,587.9,664.6,580.2z M652.8,418.5c0.1,0,0.2,0,0.2,0c0-8.3-0.1-16.7,0-25c0.1-6,4.1-7.5,9.1-7.1
			c7.4,0.6,1.2,4.3,1.3,6.5c0.3,5.3,4.2,7.4,8.2,8.1c4.5,0.8,4.8-3.6,4.7-6.7c-0.3-6.4,2.8-8.5,8.7-8.4c3.5,0.1,7-0.5,10.5-0.8
			c4-0.3,9,0,9.5,4.4c0.6,5.6-5,3-7.9,3.6c-3,0.6-6.1,0.9-6.1,4.7c0,3.3,2.8,4.3,5.5,4c8.8-1.1,10.3,3.9,9.8,11
			c-0.3,4.5-0.3,9-0.1,13.5c0.3,6.1-1.3,10.1-8.5,9.4c-2.8-0.3-6.7-0.5-6.9,3.4c-0.2,4.3,3.9,3.2,6.5,3.6c2.7,0.4,6.6-0.5,6.5,3.8
			c-0.1,4.3-3.9,4.5-7.2,4.5c-11.2,0.1-22.5,0.1-33.7,0.2c-7.2,0.1-10.6-3-10.3-10.5C653,433.2,652.8,425.8,652.8,418.5z
			 M790.7,415.5c-7.2-15.1-2.5-23.5,12.7-23.7c9.3-0.1,18.6-0.2,27.9,0c7.8,0.2,15.7-0.9,24,1c-8.7,9.6-8.2,30.9,1.6,41.1
			c-8.4,0-15.4,0-22.4,0c-12.8-0.1-25.7-0.2-38.5-0.3c-0.6,0-1.3-0.1-1.9-0.3c-2.1-0.7-4.6-1.6-4.2-4.4c0.4-2.5,3-2.2,4.8-2
			c7,0.8,13-3.1,19.5-4.4c7-1.4,9.9-7,7.9-14c-2.2-7.9-12.8-11.3-25.9-9c-9.3,1.6-1.8,7.6-3.1,11.2
			C792.6,412.2,793,413.9,790.7,415.5z M441.7,510c-2.5,2.5-8.2,3.5-2,7.5c5.1,3.3,5.8,8.9,0,12.6c-3.9,2.5-7.1,12.2-14,2.3
			c-2.9-4.2-8.9-2.3-13.5-1.4c-0.9,0.2-2.2,1.9-2.1,2.8c0.7,4.7,5.3,2.3,7.7,3.9c0.2,0.2,0,1,0,1.6c-4.5,0.8-8.2,0-10-4.9
			c-0.7-1.8-1.8-4.3-3.8-3.5c-12.2,4.7-12.6-5.9-15.9-12.3c-3-5.6-0.7-8.6,5.5-8.6C409.3,510,425,510,441.7,510z M417.3,503.6
			c0,0.1,0,0.1,0,0.2c-8,0-16.1,0-24.1,0c-2.2,0-5.3,0.6-6-1.8c-2-6.5,2.3-11.1,6.2-15.2c2.5-2.6,4-8,10.7-3.8
			c6.5,4.1,17.1,3.8,21.4-1.5c5.3-6.6,8.1-2.5,11.4-0.4c5,3.1,8.1,8.2,10.3,13.6c2.4,5.8,1.6,9.2-5.7,9
			C433.4,503.4,425.4,503.6,417.3,503.6z M223.7,315.3c-0.9,0.2-1.8,0.6-2.7,0.5c-7.4-0.1-14-0.9-16,10.1
			c-0.8,4.3-1.9,13.1-8.5,14.7c-6.9,1.7-8.2,6.5-9.6,11.7c-2.4,8.7-5.7,17.2-6.4,28.1c-2.2-2.8-3.3-3.5-3.3-4.2
			c-0.3-18-0.4-35.9-0.5-53.9c0-4,2.7-5.1,6-6.3C196.1,311.3,209.9,314.3,223.7,315.3z M410.3,436c4.8-10.1-2.8-11.3-7.2-10.5
			c-5.7,1-6-1.4-6.3-5.2c-0.3-3.5-0.1-7.1-1-10.5c-1.6-6.3,1.4-8.5,7-10c25.3-6.7,50.6-13.9,75.9-20.7c15.2-4.1,15.4-3.8,15.5,12.2
			c0,0.8-0.4,1.6-0.7,2.6c-5.4-7.6-11.9-10.3-20.8-7.8c-16,4.5-32.2,8.4-48.3,12.9c-7.1,2-11.9,6.7-10.5,14.8
			c1.1,6.4,1.9,13.4,10.8,17.2C419,433,415.4,434.3,410.3,436z M893.2,659.9c0.1,0,0.1,0,0.2,0c0,3.5,0,7,0,10.6
			c0,3.8-0.1,7.7-0.1,11.5c-0.1,4.3-0.1,8.8-6.2,8.6c-6-0.2-9.8-3-9.3-9.5c0.2-3.6,0-6.9-2.1-10c-4.6-6.7-3.9-14.4-1.2-21.1
			c2.3-5.8,3.1-10.9,1.2-16.5c-0.6-1.8-1.9-3.4,0.4-5c6-4.1,16.9,1.1,17.2,8.4C893.5,644.5,893.2,652.2,893.2,659.9z M192.7,568.2
			c-5.6-3.8-4.7-7.5-4.7-10.8c-0.1-27.3-0.3-54.6-0.2-81.9c0.1-13.1-1-26.3,3.5-39c1.7-4.8,2.4-10.7-0.2-15.1
			c-4.1-7-3.5-14.2-3.4-21.5c0-7.1,0-14-1.3-21.1c-1.5-8.1,0.6-15.9,6.3-22.8C192.7,426.1,192.7,496.2,192.7,568.2z M226,691.8
			c-16.7,1.3-30.7,0.9-44.5-1.7c-4.1-0.8-4.7-3.8-4.7-7.3c0-10.9,0.1-21.8,0.1-32.7c0-4.3,1.4-7.4,6.5-8.3
			c3.3,9.2,1.3,22.3,16.1,23.7c0.5,0,1.3,1.6,1.2,2.4c-1.1,7.4,7.7,10.8,7.2,18.2c-0.2,2.9,3.5,3.1,6.1,3.3
			C217,689.7,220.3,688.7,226,691.8z M893.1,348.5c0,6.7,0,13.5,0,20.2c0,2.9,0.1,6.1-3.5,7c-4.4,1.1-9.3,1.9-13.2-0.3
			c-4.1-2.3,1.4-4.4,1.6-7c0.3-3.9,1.3-8-1.3-11.1c-3.5-4.2-2.6-8.8-3.3-13.5c-1.4-8.9,5.7-15.3,5.9-23.6c0.1-3.5,4-4.8,7.3-4.9
			c4.4-0.1,4.8,3.1,5.4,6.5C893.7,330.6,892.4,339.6,893.1,348.5z M176.1,538.7c0,15.4,0,15.4-14.1,16.4c-13.4,1-16.3-1.8-16.3-15.6
			c0-18.9,0.1-18.4,19.1-18.6c9.1-0.1,12.2,3.5,11.3,12C175.9,534.8,176.1,536.8,176.1,538.7z M581.4,388.4
			c-23.8-14.6-48.8-13.9-73.2-16.5c-6.3-0.7-10.7-3.2-13.4-9.9C526.9,358.6,557.3,358.5,581.4,388.4z M649.3,477.4
			c4.1,0.9,10.7-2.7,13.5,2.6c3.2,5.9,1.9,13.3,0.5,19.7c-0.5,2.1-7.7,0.1-9.8,1.1c-4.5,2.2-8.8-0.1-13.2,1.8
			c-5.2,2.2-8.6-0.9-8.8-7.4C631.3,479.8,633.2,477.5,649.3,477.4z M668.2,505.7c0,0,0.1,0,0.1,0c0-7.4,0-14.8,0-22.2
			c0-5.3,3.3-6.5,7.7-6.2c4,0.3,6.3,1.8,6.3,6.6c-0.1,14.1,0.3,28.1,0.5,42.2c0.1,5.2-2.9,7.5-7.8,7.9c-5.2,0.4-6.8-2.6-6.8-7.1
			C668.1,519.9,668.2,512.8,668.2,505.7z M649.4,534.5c-15.8,0-17.7-1.9-17.2-17.6c0.1-3.6-0.9-8.6,6.1-4.7
			c0.8,0.4,7.9,0.6,12.4-1.3c2.9-1.2,11-1.9,13,3C668.9,527.1,663.3,534.5,649.4,534.5z M680.6,463.4c13-1.8,18.4,8.5,24.9,16.5
			c2.2,2.8,2.5,8.2-0.3,10.9c-3.4,3.4-8.6,1.1-12.9,0.7c-4.3-0.4-4.1-4-4.4-7.3c-0.9-9-5.7-12.6-15.1-11.6c-3.2,0.3-6.2,2-9.5,0.7
			c-1.5-0.6-3-1.6-2.9-3.4c0-0.7,1.1-2,1.6-2C668.6,467.9,673.6,461.9,680.6,463.4z M747.9,440c2.9,3.8,10.7-1.2,10.8,6
			c0.2,15.1,0.3,30.1,0.3,45.2c0,3.6-1.5,6.2-5.8,6c-4.4-0.1-5.2-2.8-5.2-6.5C747.9,473.8,747.9,456.9,747.9,440z M620.2,607.8
			c-1.5-2.9-0.3-5.1,0.4-7c3.7-10.1,5.3-20.1,3.8-31c-1.3-8.9-0.4-17.7,11.1-20.2c1.4-0.3,2.4-2.8,3.2-4.5c1.2-2.3,0.8-7.1,4.9-5.2
			c3.1,1.4,0.6,5.2-0.3,7.8c-5.7,16.4-11.3,32.8-17.2,49.1C624.8,600.4,625.6,605.3,620.2,607.8z M378.9,346.4c0,1.1,0,2.2,0,3.3
			c-32.8,0-65.6,0-98.4,0c0-0.9,0-1.7,0-2.6C313.3,345.8,346.1,345.5,378.9,346.4z M284.8,593.1c-0.2-9.6,0.3-19.2,1.1-28.8
			c0.2-2.4-1-5.8,3-5.9c4-0.1,4.3,3.1,4.4,6.1c0.2,6.1,0.3,12.2,0.3,18.3c0,9.9-0.2,19.9-0.4,29.8c0,3.5-0.8,7-4.8,7
			c-5.1,0-3.5-4.5-3.6-7.3C284.7,606,284.8,599.5,284.8,593.1z M625.6,498.6C625.6,498.6,625.6,498.6,625.6,498.6
			c0.1-13.2,0-26.3,0.1-39.5c0-3.3,0.6-6.9,5.1-6.6c4.7,0.3,3.9,4,4.1,7.2c0.6,8.2-4.6,15.7-4.7,22.7c-0.4,18.2-5.9,37.1,3.5,54.8
			c1.3,2.5,1.6,5.2-1.7,6.3c-2.9,1-5.1-0.5-5.7-3.5c-0.5-2.5-0.5-5.1-0.5-7.7C625.6,521.1,625.6,509.8,625.6,498.6z M276.1,588.2
			c-0.1,0-0.1,0-0.2,0c0,7.4,0.2,14.8-0.1,22.2c-0.1,2.7,1.9,7.5-3.5,7.2c-5-0.3-6.1-4.3-5-8.5c2-7.3,1-14.5,0.1-21.8
			c-0.9-7.5,0.2-15.2,0.7-22.9c0.2-2.6-0.4-6.6,4.1-6c3.8,0.5,3.7,3.9,3.7,6.8C276.2,572.8,276.1,580.5,276.1,588.2z M178.3,595
			C178.3,595,178.3,595,178.3,595c0-5.4-0.1-10.8,0-16.3c0.1-3.7,1.8-6.1,5.7-6.3c4.3-0.2,5.5,2.4,5.4,6.1c0,10.8,0,21.7-0.1,32.5
			c0,3.2-1.2,5.6-4.9,5.9c-4,0.3-6-1.9-6.1-5.7C178.2,605.8,178.3,600.4,178.3,595z M748.1,582.1c9.1,2,11.7,7.5,10.7,16
			c-0.7,5.9-0.9,12.1,0.9,18.1c1.1,3.7-0.3,6.2-4.5,6.6c-4.1,0.4-6.8-0.6-7-5.4C747.5,605.7,747,593.9,748.1,582.1z M377.5,659
			c-32.1,0-64.2,0-98.2,0C287.2,655.4,367.1,654.9,377.5,659z M258.7,583.9c0,6.4,0.2,12.8-0.1,19.2c-0.1,2.2,1.4,6-2.6,6
			c-3.2,0.1-5.1-2.6-5-5.9c0.1-12.8,0.3-25.6,0.6-38.4c0.1-2.5,0-5.7,3.5-5.9c3.6-0.1,3.5,3.1,3.6,5.6
			C258.8,571,258.7,577.4,258.7,583.9z M288.2,395.2c-1.4-1.9-2.2-4.1,0.2-5c2.6-1,4.4,0.7,5.1,3c0.8,2.7,1.6,5.6,1.7,8.4
			c0.2,10.6,0.3,21.2,0.1,31.7c0,2.9,1.1,7.5-3.8,7.2c-3.7-0.2-3.2-4.3-3.2-7.1C288.1,420.8,288.2,408,288.2,395.2z M259.4,528.9
			c-1-14.8,11.1-7.4,17-9.4c7-2.4,6.4,5.3,6.2,8.8c-0.5,11-11,6.6-16.7,9.1C260,540,259.4,533.6,259.4,528.9z M173.5,595.4
			C173.6,595.4,173.6,595.4,173.5,595.4c0,4.5,0.2,9,0,13.5c-0.1,2.6,1.3,6.5-3.3,6.5c-3.5,0-4.9-2.8-5-6
			c-0.2-9.9-0.2-19.9-0.2-29.8c0-2.7,0.4-5.5,3.8-5.6c3.8-0.1,4.6,3,4.6,6C173.6,585.1,173.5,590.3,173.5,595.4z M365,408.3
			c-0.2,0-0.4,0-0.6,0c0,6.1,0.1,12.1,0,18.2c0,2-0.7,4-3,4.3c-2.5,0.3-3.4-1.6-3.5-3.6c-0.6-13.7-1.2-27.3-1.7-41
			c-0.1-2.4,1.2-4.6,3.9-4.6c3,0,3.3,2.7,3.5,4.9C364.1,393.7,364.5,401,365,408.3z M277.4,420.9c0,0,0.1,0,0.1,0
			c0,4.8,0.1,9.6,0,14.4c-0.1,2.4,0.6,5.8-3.2,5.7c-3.4-0.1-3.5-3.3-3.6-5.8c-0.3-13.5-0.5-27-0.8-40.4c-0.1-3.1,1.3-5,4.3-5.3
			c3.5-0.3,3.1,2.8,3.2,4.7C277.5,403.1,277.4,412,277.4,420.9z M273.5,347.3c-12.2,5.5-61.1,4.1-65.4-1.4
			C229.5,346.8,250.2,344.6,273.5,347.3z M180.5,388.3c0.4,0,0.7,0,1.1,0c0,59.2,0,118.3,0,177.5c-0.4,0-0.7,0-1.1,0
			C180.5,506.7,180.5,447.5,180.5,388.3z M688.1,507.1c-0.2-5.9-0.4-11.7,7.5-10.3c3.8,0.7,10.9-2.1,9.4,6.5
			c-0.9,5.6,2.3,13.5-8.5,13.5C688.6,516.7,687.4,512.8,688.1,507.1z M329.6,409.2c0,0-0.1,0-0.1,0c0,5.8,0.1,11.5-0.1,17.3
			c-0.1,2-1.2,3.9-3.5,3.9c-2.6,0-2.9-2.2-2.9-4.1c-0.5-10.9-0.9-21.7-1.3-32.6c-0.1-2.4,0.6-4.6,3.5-4.8c3.5-0.3,4.4,2.1,4.4,5
			C329.7,399,329.6,404.1,329.6,409.2z M302.4,576.5c5.3,3.5,8.3,6.1,7.6,11.1c-1.2,8.3-1.2,16.6,0.1,24.9c0.4,2.8,0.7,6.3-3.7,6.4
			c-3.5,0.1-4-2.8-4-5.4C302.3,601.7,302.4,589.9,302.4,576.5z M437.9,413.3c-1.6,0.2-2.2-0.4-2.1-1.5c0.1-0.5,0.7-1.4,1-1.4
			c0.8,0.1,1.5,0.6,2.2,0.9C438.6,412,438.1,412.8,437.9,413.3z"/>
		<path d="M521.9,626.1c8.3-0.7,16.5-1.4,24.8-2.2c3.8-0.4,7-1.8,6.8-6.3c-0.2-4-1.2-7.5-6.2-8.2c-12.1-1.8-24.2-1.4-36.1,1.4
			c-5.2,1.2-7.9,3.9-6.9,9.5c1,5.8,5.1,6.7,10,6.3c2.5-0.2,5.1-0.5,7.6-0.7C521.9,625.9,521.9,626,521.9,626.1z"/>
		<path d="M515.5,463.4c0,10.5,8.6,19.1,18.9,19c10.3-0.1,20.2-9.8,19.9-19.6c-0.3-9.9-9.4-19-19.3-19.1
			C524.7,443.5,515.4,452.9,515.5,463.4z M520.9,464.4c0-8.7,6.7-16.3,14.2-16.3c6.7,0,15.5,7.3,15.5,13
			c-0.1,9.1-7.1,16.9-15.4,17.1C527.9,478.3,520.8,471.6,520.9,464.4z"/>
		<path d="M768.7,638.7c-8.6-3.5-18.8,2.7-29.6,2.6c-4.2,0-5.3,2.9-5.3,6.5c0,3.7,1.9,5.1,5.4,6.7c15.7,7.3,32.4,0.8,48.5,3.7
			c4.1,0.7,10.3-1.3,12.9-6.6c1.2-2.4,1.1-5.6-1.2-7c-4.3-2.6-8.2-6.2-13.8-5.9C780.7,638.9,775.9,638.7,768.7,638.7z"/>
		<path d="M822.8,616.4c7.7,0,15.4,0,23.1,0c16.6,0,23.7-7.2,23.5-23.7c-0.2-20.3-5.6-25.5-26.7-25.6c-14.7,0-29.5-0.1-44.2,0.1
			c-10.9,0.2-14.3,3.6-14.8,14.5c-0.3,7.4-0.2,14.7-0.3,22.1c-0.1,8.4,4.4,12.3,12.4,12.4c9,0.1,17.9,0,26.9,0
			C822.8,616.3,822.8,616.3,822.8,616.4z M857.2,571.6c-11.2,10-10.9,30.6-0.5,38.6c-1.1,0.8-2.1,1.9-3.1,2
			c-19.9,1.6-39.8,0.9-59.7,0.4c-4.4-0.1-6.9-3.3-6.8-7.9c0.2-8.3,0.6-16.7,0.9-25c0.1-4.4,1.9-8,6.5-8
			C815,571.5,835.4,571.6,857.2,571.6z"/>
		<path d="M513,386.2c-3.1-0.1-6.6,1.3-7,6.7c-0.4,5,2,7.5,6.8,8.7c10.8,2.8,21.4,5.8,32.8,2.4c4.8-1.4,7.3-2.9,7.4-8
			c0.1-5.5-2.9-6.9-7.8-7.2C534.9,388.3,524.7,387.2,513,386.2z"/>
		<path d="M698.8,591c6.1,0.6,10.2-2.5,12.7-8c2.3-5.1,0.4-9.4-2.9-13.3c-4-4.7-9.2-6.1-14.8-4.1c-5,1.8-9.3,5.4-14.8,6.6
			c-3.9,0.8-3.4,4.9-3.4,8.1c0,2.7,0.6,6.1,3.4,6.1C686,586.6,691.6,592,698.8,591z M697.3,588c-5.4-1-11.5-4.8-10.9-9.5
			c0.6-4.4,5.2-10.8,12.2-10.1c5.7,0.6,9.4,4.3,9.1,10.3C707.6,584.9,703.6,587.7,697.3,588z"/>
		<path d="M663.6,419.7c0.3,1,0.5,4.2,1.4,4.4c8.5,2,15.8,9,25.2,6.7c7-1.7,11.4-10,9.4-16.5c-2.3-7.5-10.4-11.9-17.4-9
			c-4.9,2-9.1,5.3-14.9,5.6C663.2,411.2,664.1,415.8,663.6,419.7z M672,418.8c6.3-5.5,10.4-16.4,21-7.9c4.7,3.8,4.8,9.4,0.5,13.5
			C684.4,433.3,679,424.2,672,418.8z"/>
		<path d="M791.4,592.1c-1.1,6.4-2.4,12.1,7.6,12c15-0.2,23.5-4,23.9-12.1c0.4-8.4-6.1-11-24.1-12.2
			C786.4,578.9,792.1,587,791.4,592.1z"/>
	</g>
</g>
<g id="text">
</g>
<g id="scratch">
</g>
<g id="guides" display="none">
</g>
</svg>
