<?xml version="1.0" encoding="utf-8"?>
<!-- Generator: Adobe Illustrator 26.0.2, SVG Export Plug-In . SVG Version: 6.00 Build 0)  -->
<svg version="1.2" baseProfile="tiny" xmlns="http://www.w3.org/2000/svg" xmlns:xlink="http://www.w3.org/1999/xlink" x="0px"
	 y="0px" viewBox="0 0 1000 1000" overflow="visible" xml:space="preserve">
<g id="bg">
</g>
<g id="counters">
	<g>
		<g>
			<path d="M485.8,396c6.9-0.2,13.8-0.4,20.7-0.7c-1.4-2.7-2.8-5.4-4.3-8.1c7.3-3.4,15.3-4.6,23.2-4.8c2,3.4,4,6.7,6,10.1
				c3.1,0.2,6.1,0.3,9.2,0.5c1.1,1.1,3.2,3.3,4.2,4.4c-1.4,2.9-2.8,5.8-4.2,8.7c2.6,4,5.2,8,7.7,12c7.2,0.2,14.4,0.3,21.6,0.2
				c0.5,2.1-1.5,5.3,0.8,6.7c4.2,0.8,8.5,1,12.8,1.4c3.7,3.7,8.2,6.4,13,8.3c1.8,2.8,3.6,5.6,5.3,8.4c-1.6,0-4.8-0.1-6.4-0.1
				c2.4,0.9,4.8,1.7,7.2,2.6c1,4,2.1,8,3.1,12c27,4,54.1,7.3,81,11.6c0.8-0.9,2.5-2.7,3.3-3.6c2.5,0.4,5,0.8,7.4,1.3
				c8.6,8.9,22.8,4.3,33.6,8.7c-18.1,0.5-35.9-4.2-53.8-6.2c-23.2-2.5-46.2-6.6-69.3-9.4c7.8,13.7,17.6,32.6,36,30.7
				c1.2,2.6,3.1,4.9,5.9,6c9.4,4.6,19.1,8.7,28.3,13.8c0.7-0.9,2.2-2.7,3-3.6c2.6,7.9,11.3,11.1,19,11c14.2,0.2,28.3-0.1,42.5-0.1
				c-0.1-1.6-0.2-5-0.3-6.6c10.8-0.5,21.6,0,32.4-0.6c6.6-3.5,14,0.2,20.8,1.4c3.7-8.3,2.2-17.4,1.5-26.1c-21.1-3-42.5-4.8-63.5-9
				c7.4-1.2,14.8,0.1,22,1.9c4.3-1,9-4.2,13.3-1.3c21,11.5,46.2,3.1,67.7,12.4c0.9-2.2,1.9-4.4,2.8-6.6c3.7-0.6,7.5-1.2,11.2-1.8
				c-0.3-6.2,1.1-13-2.3-18.6c2-1.7,4.1-3.4,6.9-2.2c0.3,7.9-2.9,16.2,1,23.7c3.4,6.6,0.5,14.5,4.2,21c8.4,18.1,16.2,36.5,24.5,54.6
				c-0.3,1-0.9,3-1.1,4c2.5-0.9,5-1.8,7.5-2.7c-0.3,1.2-0.9,3.7-1.2,4.9c2.5-0.9,5.1-1.8,7.6-2.7c-2.5,4.7-5.5,9.1-8.7,13.3
				c4.7-1.3,8.1-4.5,8.6-9.6l2.6,0.7c-0.9,4.7-3.3,8.7-7.6,10.9c-1.2-0.6-3.5-1.9-4.6-2.5c-3,1.1-6,2.2-9,3.2l3.2-6
				c-1.7,0-5.1,0.1-6.8,0.2c0.6,1.4,1.8,4.3,2.4,5.7l-3.6,2.1c-8.5,3.7-10.6-7.2-14.8-12c1.8-0.2,5.4-0.7,7.2-1l-0.4-0.5
				c-10.2,1.2-16.6-9.5-24.5-14.4c0-0.8,0-2.3,0-3c1.4-2,2.8-3.9,4.2-5.9c5.2,3.1,11.5,5.7,13.4,12.1c1.4-9.9,1.3-20,0.5-30
				c-19.6-0.1-39.2,0-58.8,0.1c-0.1,4.9-0.2,9.8-0.2,14.7c8.6,0,18.7-5.7,26.2,0.3l-0.6-2.1c2.8,0.5,5.6,1,8.4,1.4
				c0.6,0.7,1.8,2.2,2.3,3c2.7-0.4,5.3-0.8,8-1.2c-2.9,2.9-5.4,6.2-6.2,10.4c-12.4-3.4-26.1-5.1-38.1,0.5
				c-12.8,4.8-22.6,15.8-27.2,28.5c-2,5.9-1.7,12.6-5.3,18c0.7,0.4,2,1.1,2.6,1.5c-0.4,6.9,2.5,13.3,5.1,19.6
				c9.6,17.1,29.6,27.6,49.1,25.4c5.9-0.8,11.8-1.2,17.7-0.8c0.5-1.1,1.6-3.2,2.1-4.2c7.4-6.3,16.1-12.5,19.4-22.1
				c1.9-5,3.4-10.2,5-15.3c3.6,0.6,7.2,1.1,10.9,1.6c-2.8,8.8-4.8,18.3-10.3,25.9c-9.9,15.1-27.4,24.2-45.1,26.5
				c-0.3-2.8-0.6-5.7-0.9-8.5c0,3-0.1,5.9-0.1,8.9c-2.2,0.1-6.5,0.3-8.6,0.3c0-3.1-0.1-6.2-0.2-9.3c-0.4,2-1.2,6-1.6,8
				c-13.2-1.5-25.6-7.3-35.5-16.2l5-0.1c-1.7-1.6-3.4-3.2-5.2-4.8l-0.4,3.9c-2.9-3.2-5.7-6.4-8.6-9.6c2.8-1.5,4.4-4,5.9-6.6
				c-1.7,1.3-5.1,4-6.8,5.3c0.3-1.9,0.7-5.8,1-7.7c-0.5,1.3-1.3,4-1.8,5.3c-1.7-3.7-3.3-7.4-4.8-11.1c4,1.4,8.1,2.9,12.1,4.4
				c-0.4-0.4-1.3-1.3-1.7-1.8c-3.7-1.2-7.5-2.3-11.2-3.5c2.9-1.6,5.8-3.1,8.7-4.6c-7.8,0.7-15.7,1.6-23.6,1.7
				c-7.7,0.3-13-7.4-20.7-7.1c-5.8-0.3-11.6-0.1-17.4-0.1c1.4,2.4,2.7,4.8,4.1,7.2c-3.1,1.8-6.7,2.3-10.2,2.4
				c-1.8,2.2-3.6,4.3-5.4,6.5c0.6,3.9,0.7,7.8,0.5,11.8c-5.5-1.6-11.1-4-11.4-10.5c5.6-6.5,11.8-13.2,13.7-21.8
				c1-6.3,0.5-12.7,0.7-19c0.7-2.1,1.3-4.3,1.9-6.5c-1.4,1.2-2.8,2.5-4.2,3.8c-2.4-8.8-8.7-16.3-17.3-19.7c1.3-1.3,2.5-2.6,3.8-3.9
				c-2.1,0.4-4.2,0.9-6.3,1.3c-4.6-0.9-9.2-1.7-13.9-2.4c0.2-0.9,0.5-2.6,0.7-3.4c-1.2,1.1-3.7,3.4-5,4.6l-1.4-6.2
				c-5.1,2.2-10.7,14-15.2,4.9c0.2,1.7,0.5,3.4,0.7,5c-8.8-2.9-18-0.6-26.8,0.8c-0.2,1.8-0.7,5.5-0.9,7.4c2.9-0.3,5.9-0.5,8.7-0.8
				c2.1-2.8,3.5-7.1,7.9-5.9c2.2,2.2,5.1,3,8,3.6c14.8-13.3,41-8.9,51.7,7.7c8.6,12.8,6.8,30.4-2.1,42.7c-5.8-3.3-11-7.4-16-11.9
				c-3,1.3-6,2.7-9,4c-0.3-1.5-0.9-4.6-1.2-6.1c-2.2,1.8-4.3,3.7-6.5,5.5c-2.2-1.1-4.3-2.1-6.5-3.2c-4.2,3.2-8.3,6.5-12.4,9.8
				c2.5,2.1,5,4.2,7.5,6.4c2.5-3.1,5.1-6.2,7.7-9.2c-0.9,4-1.9,8.1-2.9,12.1c3.3,0.1,6.6,0.2,9.9,0.3c-0.2-5.6-0.6-11.2-1.2-16.8
				l4.5,0.1c-0.3,5.5-0.6,10.9-0.7,16.4c3.7-0.3,7.4-0.7,11.2-1c-1.5-3.5-2.9-7-4.2-10.6c4.1,1,5.9,5,8.1,8.2c1.8-1.4,5.3-4.1,7-5.4
				c1.3,1.5,2.6,2.9,4,4.4c-5,2.4-10.1,4.8-15.2,7.1c4.3,4.6,6.4,10.9,4.6,17.1c-1.3-0.1-4-0.3-5.3-0.4c-0.9-1.1-2.7-3.2-3.6-4.2
				c-2.7,0.4-5.4,0.9-8.1,1.4c-2.6,2.5-5.6,4.3-8.8,5.9c-1.5-2.5-3-4.9-4.5-7.4c-3.1,2.8-6.4,5.6-9.6,8.4c-4.7,0.6-7.5-2.6-9.8-6.2
				c0,0.5,0,1.5,0,2c-4.6,2.8-9.3,5.6-13.8,8.5c-0.8-1.2-2.4-3.4-3.2-4.6c-3,0.8-6,1.5-9.1,2.2c-1,2.6-2,5.2-3,7.7
				c-3.3-1.7-6-4.1-8.2-7c-3.2,0.7-6.3,1.4-9.5,2.1c-0.2,1.5-0.6,4.5-0.9,6c-1.6,0-4.7,0-6.3,0c-0.8-2.1-1.5-4.2-2.3-6.3
				c-3,0-5.9,0-8.9,0.1c-0.4,1.6-1.2,4.8-1.6,6.4c-2.3-0.1-4.7-0.1-7-0.2c-0.4-1.5-1.2-4.5-1.6-6c-2.8,0-5.6,0-8.4,0.1
				c-1.9,3.5-4.5,6.6-8.7,7c-0.4-1.8-1.1-5.4-1.5-7.2c-3.3,0.1-6.7,0.3-10,0.4c-0.4,1.5-1.3,4.6-1.7,6.1c-1.2-0.1-3.6-0.4-4.8-0.5
				c-2.8-3.4-6.7-5.3-10.8-6.4c-1.6,2.7-3.2,5.4-4.8,8.1c-3.9-2.3-7.6-5-11.7-7.1c-3.7,0.5-5.6,4-7.4,6.8c-4.9-1.7-9.1-7.5-14.7-5
				c-2.9,2-5.7,4.3-9.1,5.6c-0.6-1.5-1.9-4.6-2.6-6.2c-2.8,0.2-5.6,0.5-8.4,0.7c-1.6,3.7-8.8,7.6-9.8,1.6c1.3-5.8-8.5-10.5-8.1-0.6
				c-0.6-1.4-1.6-4.1-2.2-5.5c-0.6,3-1.2,6-1.9,9.1c-2.3,0-4.5-0.1-6.8-0.2c-0.2-1.9-0.6-5.7-0.7-7.6c-3-2.3-7.6,0-11.2-0.7
				c1.2,1.3,2.3,2.5,3.4,3.8c-2.7,2.5-5.4,5-8.7,6.7c-1.3-2.3-2.7-4.6-4-7c-2.9,0-5.8,0-8.8,0c-1,2.2-2.1,4.3-3.1,6.5
				c-1.5-0.1-4.3-0.2-5.8-0.3c-0.2-1.6-0.7-4.7-0.9-6.2c-3.6,0-7.2,0-10.8,0c-0.2,1.6-0.5,5-0.7,6.6c-0.8-0.8-2.5-2.3-3.3-3
				c-0.1,0.9-0.4,2.7-0.5,3.5c-2.4-6.2-7.7-8-13.9-7.2c-0.8,2.7-1.6,5.3-2.4,8c-4.3-0.9-6.7-4.3-8.6-8c-5.2-0.5-9.9,0.4-11.6,6.1
				c-1.3,0-4,0.2-5.3,0.3c-0.2-1.6-0.6-4.7-0.8-6.3c-3.3,0-6.6,0.1-9.9,0.2c-2,3.9-5.5,5.1-9.7,4.4c-0.4-1.7-1.1-5-1.5-6.7
				c-3.3,0.1-6.5,0.3-9.8,0.4c-0.5,1.6-1.5,4.9-2.1,6.5c-3.8-0.8-6.3-3.3-7.3-7.1c-3.8-0.6-8.4-3.2-11.1,0.9
				c-2.3,2.8-5.3,3.6-8.6,1.9c0-1.8,0.1-5.3,0.1-7c-5.7-2.4-11.6-2.9-17,0.5c-3.8-3.7-3.7-9.8,1.8-11.6c-0.5-0.9-1.4-2.6-1.9-3.4
				c-1.2,1.2-2.5,2.5-3.8,3.7c-1.2-1.5-3.4-4.6-4.6-6.1c-3,0.6-5.9,1.1-8.9,1.7c0.3-3.9,1.6-7.6,4-10.7c-0.9-2.7-1.7-5.5-2.7-8.2
				c-2.9-1.7-7.3-2-8.3-5.8c1.6-4.7,7.3-4.8,11.2-6.5c-0.7,0.2-2.2,0.5-3,0.7c0-1.5,0.1-4.6,0.1-6.1c-7.4-2.7-15.6-1.8-23.3-3.6
				c-0.8,1-2.5,2.9-3.3,3.9c-6.9-1.3-13.7-0.2-20.5,0.8c-5-0.5-4.8-7-3.3-10.5c-9.4,2.3-19.5,2.1-28,7c-2.6-8.6-1.5-17.8-4.1-26.4
				c3.2,0.3,6.2,1.7,8.4,4.1c1.6-1.2,3.3-2.5,4.9-3.7c3.6,7.2,11.6,7.4,18.6,8c-4.7-10.8-13.8-18.9-19.2-29.4
				c-1.1-0.5-3.3-1.6-4.3-2.2c-3.6-13.5-12.6-24.4-19.5-36.3c-1.1,0.9-3.3,2.9-4.4,3.8c-1.3-2.6-2.7-5.2-4-7.8
				c1.5-0.1,4.5-0.2,6-0.3c-6.6-10.2-12-21.3-19.8-30.6c-5.8-5.9-7.3-14.3-12-20.9c-0.9-2.1-3.6-4.7-1.5-6.9
				c5.4-6.3,11.1-12.9,18.8-16.3c1.3-9-0.5-17.8-1.9-26.7c3.4-1.2,7.1-0.7,10.6-0.9c0.3,2.6,0.7,5.2,1,7.8c7.4-0.8,15-3.2,22.5-1.6
				c0.6,0.7,1.6,2.1,2.2,2.8c-9.7,1.8-19.6,3-29.3,5c-0.3-1.9-0.8-5.7-1-7.6c-3.9,7.2-1.3,15.7-0.6,23.3c1.8-5.1,3.1-10.3,4.3-15.6
				c0.4,1.6,1.3,4.8,1.8,6.4c10-4,21.2-6.3,29.5-13.6c-0.8-0.5-2.5-1.6-3.3-2.1l-0.6-0.7c4.6-0.3,9.3-0.3,13.9-0.3
				c5.1-1.9,10.4-2.7,15.8-3.2c-0.3-2.5-0.7-4.9-1-7.4c5.4-0.6,10.5,1.3,14.2,5.5c-1.5,0.1-4.4,0.4-5.8,0.5c-0.1,1.7-0.2,5-0.3,6.7
				c-8.2-0.9-16.5-0.3-23.8,3.7c-13.1,6.5-28.3,9.4-40,18.6c8.1,1.6,16.3,1.3,24.5,1.2c64.1,0.1,128.2-0.9,192.2,0.6
				c-54.8,1.6-109.6,0.6-164.4,1c-20.8,0.6-41.7-1.3-62.4,1.5c-5.7,3.3-9.7,8.7-14.2,13.3c8.5,14.6,16.9,29.2,26.5,43.1
				c7.4,1.2,14.9,0.2,22.3,0.3c13.4-0.4,27,1.5,40.3-1.5c9.6,2.2,19.5,1.3,29.1,0.3c8.1,1.2,16.3,1.4,24.4,0
				c13.5,2.7,27.3,1.6,41,2.3c1.7-1.7,3.3-3.3,4.9-5c0.9,0.7,2.6,2.1,3.5,2.8c12.5-0.1,25,0.7,37.5-0.2c1.2-0.8,3.4-2.4,4.6-3.2
				c0.4,1,1.2,3.1,1.7,4.1c8.9-0.5,17.9-0.7,26.8-0.6c0.1-0.8,0.3-2.4,0.4-3.1l0,4.1c3.2-1,6.2-2.4,8.9-4.3
				c8.5,5.9,19.9,1.2,29.7,2.5c0.9-0.6,2.8-1.7,3.8-2.2c12.1,4,24.9,1.7,37.3,2.5c4.1,0.9,6.6-2.3,9.5-4.4c0.5,1.1,1.5,3.4,2,4.5
				c15.5-1,31.1,1,46.4-2.3c6.4,1.1,13,1.4,19.5,1.3c-0.1-14-0.8-28-1.2-42c-1-0.7-2.9-2-3.8-2.7c0-3.1,0-6.2,0-9.4
				c1.2-0.9,3.5-2.8,4.7-3.8c-17.2-1.1-34.5,0.6-51.7-0.1c-18.6,0.2-37.2-0.8-55.7,0.1c-15.4,1.6-57.2,2.1-72.6,1.5
				c2.4-0.5,31-1.7,33.4-1.9c34.6-0.6,69.1-1.6,103.7-1.4c2.1-6.4,3-13.2,2.9-19.9c-8.2,1.1-16.1,3.7-24,6.2
				c1.6-6.2,0.5-12.3-3-17.7c8.9,0.9,17.7,1.6,26.6,2.9c-0.1-19.1-0.4-38.3,0.1-57.4h2.8C485.3,358.6,485.9,377.3,485.8,396z
				 M506.7,386.6c6.5,14.2,14.6,27.6,22.7,41c-1.3,0.1-3.8,0.2-5.1,0.3c1.4,19.3-0.3,38.7,1.4,58c3.6-0.6,7.1-1.3,10.6-2.4
				c9,2.8,18.4,1,27.6,1.3c5.7-0.4,12.1,0.9,16.8-3c0.8,0.7,2.4,2,3.1,2.7c12.1-1.7,24.4,0,36.5-2.1c-12.9-18-24.2-37.1-37.9-54.4
				c-17.1-1.7-34.4-0.5-51.6-0.7c0.6-3-0.1-7,3.2-8.7c4.1-0.5,8.3-0.7,12.5-1c-4.6-5.1-7.7-11.3-12.4-16.4c1.1-0.5,3.4-1.5,4.5-2
				c-1.7-0.2-5-0.7-6.7-0.9c-2-5.5-5.2-10.5-9.1-14.9C517.5,385,512.1,386,506.7,386.6z M460.1,397.2c1.1,4.1,2.1,8.2,3.1,12.3
				c3.3-2.5,7.4-3.7,11.3-5.1c-0.3-1.6-0.8-4.9-1.1-6.5C469,397.5,464.6,397.3,460.1,397.2z M502.4,401.1c-2.3-0.9-4.7-0.8-7.2-0.4
				c-5.7-0.3-11.4-0.4-17.1-0.3c0.5,1,1.5,3.1,2,4.2c5.6-0.2,11.1-0.3,16.6-0.4c2,1,4,2,6.1,3c2.9-2.3,5.8-4.6,8.4-7.1
				C508.3,400.2,505.3,400.5,502.4,401.1z M188.5,400.6 M123.7,403.1 M486.1,406.8c-0.4,6.1-0.2,12.4,2.2,18.2
				c3.1,2.7,7.4,0.5,11,0.9c8.4-0.5,16.7,0,25.1,0.1c-2.9-5-5.7-10-8.4-15.1c-1-5.9-5.1-0.4-7.4,0.8c-4-0.4-8-1.5-11.9-2.3
				c-1,2.5-1.9,5-2.8,7.6c3.8-0.2,5.5-3.6,7.5-6.2c-0.1,1.9-0.3,5.5-0.4,7.4c-3.1,0.1-6.1,0.1-9.2,0.2c0.3-3.6,1.3-7,3.1-10.2
				C491.9,407.7,489,407.3,486.1,406.8z M533.8,421.2c5.1,5.2,12.3,1.8,18.5,2.1c5.1-0.5,10.8,1.3,15.3-1.9
				C556.4,420.4,545.1,420.9,533.8,421.2z M595.8,437.5 M841.2,488.2c1.1,3.2,6.2,2.8,8.6,1.3C851.7,484.4,842,483.3,841.2,488.2z
				 M800.2,487.5c0,7.2,0,14.4,1.1,21.6c11.1,1.1,22-1.9,33.1-0.8c5.2-0.6,13.9-7.2,16.7,0c-2,0.2-6,0.6-8,0.8c2.2,3.4,6.8,1,10,1.8
				c2.5,0.8,4.5,2.6,6.7,4.1c-0.9-2.9-1.9-5.9-2.7-8.9c-0.6,1.1-1.9,3.4-2.6,4.6l-1.5-1.5c-0.3-1-0.7-3.1-1-4.2
				c-3.1-0.3-6.2-0.6-9.3-0.9c0.3-1.6,1-4.7,1.3-6.3c1.9,2.2,4.2,3.3,6.9,3.2l-4.7-1.8c1.4-1.7,2.8-3.3,4.2-5c-3.5,0-7,0-10.5,0
				c0.8,0.6,2.4,1.7,3.2,2.3c-1.5,1.5-3.1,3-4.7,4.4c-2.8-3.6-5.2-7.4-7.5-11.2C820.6,491.1,810.5,486.9,800.2,487.5z M525,488.3
				c0.5,16.4,0,32.7,0.4,49.1c15.3-0.3,30.3-3.1,45.6-2.9c20.6-1.5,41-4.5,61.7-4.8c0-0.5,0-1.4,0.1-1.9c-9-1.9-18.3-0.5-27.4-0.9
				c-16.9,0.4-33.8-0.9-50.7-0.5c-7.8,0.4-16.1-1.8-23.4,1.9c-2.2-11.6-0.8-23.4-1.1-35.1c6.6-0.8,13.2-0.3,19.8-0.2
				c17.7,0.5,35.3-1.6,53-1c7.3-0.6,15.2,0.1,21.8-3.5C591.6,485.9,558.3,489.8,525,488.3z M406.7,489.9c-20-2.2-40.2-0.4-60.2,0.6
				c-34-0.6-68,2.7-102,1.5c-18.4-3.1-37.1-0.8-55.7-1.5c0.2,17-0.3,34,0.3,51c5.8-0.4,11.7-0.7,17.5-1l0.3,2.8
				c-3.5,0.1-7.1,0.3-10.7,0.5c-3.8,7.7-7.3,15.7-12.4,22.6c-1.5,0.1-4.5,0.3-6,0.4c0.6,1,1.8,3,2.4,4c19.6,0.9,39.4-0.1,59,0.4
				c-0.8-2.2-1.5-4.3-2.2-6.5c1.3-0.4,3.9-1.3,5.2-1.7c6.8,6.9,15.9-2.4,15.3-10.1c3.6,0.3,8.3-0.7,8.5,4.4c3.3,0,6.6-0.1,9.9-0.1
				c1.3-2.1,2.5-4.2,3.8-6.3c1.1,0.3,3.4,0.9,4.6,1.2c-0.4,7.9,11.3,10.8,13.9,3.3c1.5,0.1,4.4,0.2,5.9,0.3c0.2,1.5,0.6,4.6,0.9,6.2
				c3,0,6,0.1,9,0.1c1.6-3.3,4.2-5.4,8-4.4c0.6,6.9,6.7,7.1,12.1,6.1c0.2-1.6,0.7-4.7,0.9-6.2c1.6,0,4.8,0,6.5,0
				c-0.6,5.7,5.2,5.3,9.3,5.7c3.2-3.1,5.6-7.1,10.8-5.4c0.5,1.3,1.4,3.8,1.8,5c9.1-3.4,8.7,6.2,6.5,11.5c-5.6-2.6-13.4-6.9-18-0.2
				c-8.3-4-17.7-2.4-26.6-2.3c-0.7,0.5-2.1,1.6-2.8,2.2c10.6-0.8,22.3-2.5,31.8,3.8c1.1-1.9,2.3-3.7,3.5-5.6l1.5,4.1l1.6-4.1
				c1.4,0.3,4.3,1,5.7,1.3c-1.1,1.4-3.2,4.1-4.3,5.4c13-8,30.1-8.6,43.1-0.4l1.3-2.3c-2.4-0.8-7.2-2.5-9.6-3.4
				c1.2-0.8,3.8-2.5,5-3.4c-2-0.1-3.8,0.6-5.3,2c-7.8-1.4-16-2.9-23.3,1.3c0.1-5,0.3-10.1,0.6-15.1c1.7-0.1,5-0.2,6.7-0.3
				c1.2,2.8,2.5,5.5,3.7,8.3c0.1-7.1,6.7-0.6,9.4,1c-0.9-2.9-1.4-5.9-1.5-9c1.9-0.2,5.6-0.5,7.5-0.6c1.2,2,2.4,3.9,3.5,5.9
				c4.1-0.7,9.5-0.1,10.7-5.3l3.2-1.7c-0.3,1.3-0.7,4-0.9,5.4c1-1.1,2.9-3.2,3.8-4.3c0.6,3.6,0,7.5-3.7,9c5.7,1.4,9.7-2.8,14.5-4.8
				c1.2-4,4.1-6.5,8.5-5.5c0.4,1.5,1.1,4.6,1.4,6.1c3.7-0.1,7.4-0.3,11-0.4c0.4-1.5,1.1-4.6,1.5-6.1c1.4,0.1,4.2,0.3,5.6,0.3
				c0.3,1.5,0.9,4.4,1.1,5.9c3.5,0.1,7.1,0.3,10.6,0.4c0.3-1.6,1.1-4.7,1.5-6.3c2.2,0,4.5,0,6.7,0.1c0.4,1.5,1.2,4.6,1.6,6.1
				c5.5,0.4,11.4,0.8,12.3-6.1c1.3,0,4,0,5.4,0c0.3,1.5,0.9,4.3,1.3,5.8c3.4,0,6.9,0,10.3,0c0.3-1.5,1-4.6,1.3-6.1
				c1.3,0.2,3.8,0.5,5.1,0.6c1.8,2.5,4.2,4.2,7,5.3c0.1-7,0-13.9-0.2-20.9c-59.7-0.4-119.5,0.7-179.2-0.3
				c-9.3-0.9-18.6,3.1-27.8,0.6c-1.9,0.6-3.8,1.1-5.7,1.7c-0.1-0.6-0.3-1.9-0.4-2.6c22.9,0.3,45.8-0.8,68.8-0.5
				c36.1-0.9,72.2,0.6,108.3-0.1c12-1.5,24.2-0.7,36.2-1c0-16.8,0.2-33.7-0.2-50.5C484.4,489.6,445.5,490.3,406.7,489.9z
				 M131.3,490.3c12.8,23.1,27.6,45,41.2,67.7c2.6,3.1,6.7,9.3,11.2,5.9c3.8-6.8,7.2-13.7,10.8-20.5c-10.8-1.4-9.4,14.2-17.1,18.6
				c2.6-9.6,11.1-17.3,9.9-27.7c-0.3-14.6-0.1-29.2-0.3-43.7C168.4,489.5,149.8,491.1,131.3,490.3z M593.6,494
				c1.1,8.4,0,16.7-3.4,24.5c14.4,0.2,28.9-0.3,43.3-0.7c-0.1-8.3,0-16.6-0.1-24.9C620.2,491.7,606.9,493.8,593.6,494z M635.8,494.8
				c0.1,11.2-1.4,22.6,0.6,33.7c19.3-1.4,38.6-2.8,57.8-4.8c-1-3.4-3.5-5.7-6.7-7c-14.2-6.5-28.4-13.3-42.5-20.2
				C642.1,494.9,638.9,495.1,635.8,494.8z M585.3,496c0.7,4.1,1.6,8.3,0.5,12.4c1.5,0.2,4.6,0.5,6.2,0.7c-0.1-4.5-0.3-9-0.7-13.5
				C589.8,495.7,586.8,495.9,585.3,496z M532.3,494.7c-0.3,8.2-0.2,16.5,0,24.7c19.3-0.3,38.5-0.7,57.8-1.1c0.2-1.9,0.6-5.6,0.8-7.5
				c-6.5,0.5-13.1,0.7-19.6-0.5c-0.4-5.3-0.4-10.7-0.1-16.1C558.2,494.7,545.2,493.9,532.3,494.7z M579.1,508.1
				c1.2-3.4,2.6-7.6,1-11.1C576.4,497.7,576.7,506.3,579.1,508.1z M574.6,508.3c1.5-2.7,1.5-5.5,0-8.2
				C571.3,499.9,571.4,508.2,574.6,508.3z M832.2,513.7c3.3,0.9,6.5,1.8,9.8,2.6C843.8,509,835.8,510.7,832.2,513.7z M827.1,511.6
				 M817,515.2c2,1.8,7.6-0.1,5.9-3.2C820.9,510.4,815.6,512.3,817,515.2z M857.8,518.1c-18.9-0.4-37.7,0.1-56.6-0.1
				c0,1.8-0.1,5.3-0.1,7.1c20.6-0.1,41.2,0,61.8-0.1C862.1,522.5,861.5,517.8,857.8,518.1z M775.4,518.5c-0.9,2.3-1.8,4.6-2.6,7
				c-4.6,13-10.4,25.7-14.2,39c8.7-7.9,10.6-20.8,19.1-28.8c-4,11-11.4,20.3-15.7,31.2c4.2,0.6,8.4-0.5,10.6-4.3
				c6.4-9.3,16.2-15.1,26.3-19.6c0.2-5.3,0.3-10.7,0.1-16c-5.4,0.1-10.8,0.4-16.1,1c-1.7,3-3.3,6-6.2,8c1.3-3.2,2.7-6.3,4.2-9.4
				c-1.6-2.3-3.2-4.7-4.7-7.1c2.5,1.3,4.5,3,6,5.3c5.6,0.4,11.2,0.3,16.8,0.3c0-1.8-0.1-5.3-0.1-7.1
				C791,518,783.2,517.9,775.4,518.5z M738.8,520.4c0.8,9.5-0.4,19.2,2.2,28.5c-4.5,0.5-9,1.1-13.6,1.9c0.2-3.1,0.4-6.3,0.6-9.4
				c-8.9-4.9-15.9-12.7-25.4-16.6c1.8,5.6,5.5,10.6,6.3,16.5c-6.3-4-5.1-14.2-11.2-18.4c-3,1.6-5.8,3.4-8.9,4.8
				c6.1,10.7,14.9,19.4,20.9,30.1c-9.8-8.2-15.7-20.3-23.8-30.1c-7.4-1.6-15,0.5-22.5,0.9c-22.5,0.8-44.8,3.9-67.3,5.5
				c-23.2,1.5-46.3,3.4-69.5,5.3c-3.6,6.6-0.8,15-0.7,22.2c3.1-3.7,6-7.3,11.4-6.3c0.4,1.5,1.1,4.3,1.5,5.8c3.2-0.2,6.4-0.3,9.6-0.5
				c0.3-1.4,0.8-4.1,1.1-5.5c1.6,0.1,4.7,0.3,6.3,0.4c0.5,1.2,1.5,3.7,2,5c3.3-0.3,6.5-0.6,9.8-0.9c0.3-1.4,1-4.3,1.4-5.8
				c1.3-0.2,3.8-0.5,5-0.6c1.4,6.7,7.5,5.3,12.5,4.1c0.2-1.5,0.5-4.6,0.7-6.2c1.5-0.2,4.6-0.6,6.1-0.9c1.4,1.8,2.9,3.6,4.3,5.5
				c4.9-0.1,9.8-1.6,10.2-7.2c1-0.5,3-1.4,4-1.9c1.2,2.1,2.5,4.2,3.7,6.2c3.4-0.4,6.7-0.9,10-1.3c-0.7-4.6,2.4-6.5,6.1-7.7
				c1.4,5,5.1,7.7,10.2,5.4c0.3,1,0.9,2.9,1.2,3.9l4-1.3c-1.3-1.4-2.6-2.8-3.9-4.3c1.7-2.4,3.8-4.5,6.1-6.2c3.9-0.8,4.5,3.8,6,6.1
				c2.2-0.1,6.5-0.3,8.7-0.4c2.5-2.2,3.9-6.6,8.1-5.7c4.8-0.7,1.3,7.1,5.4,8.1c2.5,1.1,5,2,7.5,3c2.4-1.4,4.7-2.7,7-4
				c0.9,1.1,2.8,3.3,3.7,4.4c-1,2-1.9,4-2.9,5.9c1.2,1,3.7,2.9,5,3.9c-1,1.9-1.9,3.9-2.8,5.9c6.1-3.6,13.2-2.2,19.9-2.2
				c-2-2.2-3.9-4.4-5.9-6.6c1.9,0.8,5.7,2.3,7.6,3.1c-1.9-6.5-6.3-12.4-7.1-19.2c2.5,1.5,2.8,4.8,4.2,7.1c1.2,3.4,5,5.1,5.5,8.9
				c1.2-0.1,3.5-0.2,4.6-0.2c-1.5-2.2-3.1-4.3-4.7-6.4c7.3-4.3,15.3,1,23.1,0.8c-3.2,0.5-6.5,0.8-9.8,1c-0.2,1.8-0.6,5.5-0.7,7.3
				c5.5,0,11.1,0,16.6,0.1c0.1-1.9,0.2-5.9,0.3-7.8c-1.1,0-3.4,0.1-4.5,0.2c0.4-0.7,1.3-2.2,1.8-3c-1.3-0.9-4-2.6-5.3-3.4
				c4.7,0.5,9.6,1.1,13.6,4c0.7,2.9,1.2,5.8,1.4,8.8h1.6c4.1-13.9,10.3-27,14.7-40.7C761.2,519.6,750,520,738.8,520.4z M730.5,520.1
				c0.1,7.8-0.2,15.7,0.4,23.5c1.4,0,4.2,0.2,5.6,0.2c0.7-7.7,0.3-15.6-0.3-23.3C734.8,520.5,731.9,520.3,730.5,520.1z M702.8,520.6
				c8.1,6.5,16.4,12.7,25.3,18.1c0-6.3,0-12.7-0.1-19C719.6,520.2,711.2,520.4,702.8,520.6z M865.2,526.9c-0.7,11.5-1.9,23,0,34.4
				c5.4,0.6,10.8,1.2,16.2,2.4C876.3,551.2,871.2,538.8,865.2,526.9z M827,546.4 M813,546.2 M852.6,553.3 M847.8,553.3 M726.3,559.3
				c3.7,1.3,4.9,0,3.6-3.8C726.2,554.2,725,555.5,726.3,559.3z M618.8,555.5 M785.4,557.8 M599.3,562.5c-0.3,1.2-0.9,3.6-1.2,4.8
				c4,0,7.9,0,11.8,0l0.1-4.2c1.2,0.8,3.5,2.4,4.7,3.2c0-1.6,0.1-5,0.1-6.6C610.3,563.4,604.6,562.3,599.3,562.5z M859.4,562.5
				 M780.7,562.5 M664.9,560.7c-0.8,3.7-1.5,7.4-2.5,11.2c-1.4-3.3-2-6.9-2.1-10.5c-3.3,0-6.6,0.1-9.9,0.1c1.1,6.3,4.9,11.5,7.7,17
				c-1.1,1.1-3.3,3.4-4.4,4.5c5.4,0.6,7.7-1.8,6.2-7.4c7.8-2.9,3.4,8.6,10.3,7.8l0.1-2.9l-4.1-0.2c2.9-5.9,6-11.8,8.3-18
				C672.1,562,667.3,561.1,664.9,560.7z M591.7,564.3c1.8,2.5,2.7,5.5,3.6,8.4c-10.4-7.7-23.9-2.6-35.7-5.3c1.6,0.7,4.9,2.1,6.5,2.8
				c-3.4,1.4-6.7,2.9-10,4.5c5.3,1.5,9.6-3.1,14.6-3.7c10.3-1.7,22.1-0.4,29.8,7.3c2,1.8,3.7,4.9,6.9,4.2c0.1-5.4-8.5-5.3-8.2-11.1
				c6.7,4.6,12,10.9,15.7,18c1.4,3.9,6.1,3.3,8.6,0.7c-2.1-2.3-4.2-4.6-6.3-7c4-2.6,7.9-5.4,10.2-9.7l1,0.8l0.9,1
				c3.2-0.7,4.5-4.5,7-6.2c-0.9-1.1-1.9-2.3-2.9-3.4c-0.7,1.8-2,5.4-2.7,7.2c-1.3-1.1-3.8-3.2-5-4.2c-9.7,1.8-19.8-1-29.3,2
				c-0.1-2.6-0.3-5.3-0.5-7.9C594.8,563.1,592.8,563.9,591.7,564.3z M286.9,563.1c-1.4,1.7-2.8,3.4-4.2,5.2
				c5.9,1.6,11.9,3.5,16.4,7.9c-1.3,0.6-4,2-5.4,2.6c0.9,1.2,2.8,3.7,3.7,5l-4.8-0.7c2.8,4.5,6.6,8.3,8.5,13.3
				c4-5.3,7.7-11.2,11.7-16.7c-5.3,2.6-8.6,7.5-11.9,12.1c-1.1-2-3.3-6-4.4-8l3.4,1.3c-0.3-2.1-1-6.2-1.3-8.3
				c1.5,1.1,4.6,3.4,6.1,4.5l0.4-2.8c3.4-0.8,6.7-1.6,10-2.5c-2-3.2-5.1-3.9-9.3-2.2l0.2-2.2c3.4-0.1,6.7-0.7,9.9-1.9
				c-5.8-0.8-12.7,1.9-17.1-3.1c0.1,1.5,0.3,4.6,0.4,6.1c-3.3-1.7-6.6-3.3-9.9-4.9c1.2-0.8,3.5-2.5,4.6-3.3c3-0.5,6-1,9-1.7
				C297.4,562.1,292.2,563.3,286.9,563.1z M870.3,564.4c-0.9,2.6,2.6,7.4,5.5,5.8C878.9,567,873.8,561.9,870.3,564.4z M719.7,564.8
				c1,0.5,2.9,1.4,3.9,1.9c10.9,0.5,21.8,0,32.6-0.1v-2.2C744,564.1,731.8,563.5,719.7,564.8z M677.9,564.2
				c-2.3,4.8-4.6,9.6-6.8,14.3c2.1,2.5,4.2,4.9,6.2,7.4c5.4-0.7,10.9-1.5,16-3.6c-1.6-2.9-3.2-5.7-4.8-8.6c-2.9,2.3-6,4.3-9.8,5
				c1.5-3.5,4.4-5.9,7.1-8.4C683.2,568.3,680.6,566.2,677.9,564.2z M639.7,571.4c2.3,2.7,6.1,4.8,5.2,8.9c-3-2.1-5.9-4.3-8.9-6.4
				c-1.5,3.3-2.6,6.8-3.4,10.4c4.7,0.5,9.4,1.6,14.1,2.3c2.8-2.4,5.2-5.2,7-8.4c-2-4.9-4.8-9.4-7.5-14
				C644,566.5,641.3,568.5,639.7,571.4z M584.8,564c-6,2.2,5,6.1,3.9,1C587.7,564.8,585.7,564.3,584.8,564z M538.6,565.1
				c3.2,0.7,6.5,1.2,9.8,1.7c0.7,1.9,0.8,4,0,5.9c-5.6-2.9-11.7-3.6-17.7-4.3c-0.1-0.8-0.4-2.4-0.6-3.2c-1.2-0.1-3.7-0.4-4.9-0.6
				c0.7,0.9,2,2.6,2.7,3.5c-5.7,1-11.2,2.3-16.6,4.5c-4-2.1-8-0.7-12,0.2c-0.3-0.7-0.9-2.2-1.1-2.9c-2.8,0.4-5.5,0.9-8.3,1.3
				c1.6,0.7,4.9,2.1,6.5,2.8c0.5,0.8,1.5,2.5,2,3.3c1-0.9,3-2.6,4-3.5c1.6-0.1,4.7-0.2,6.3-0.2l-0.1,3.2c9.8-6.1,22-7.8,33.1-4.6
				c8.4,2.4,14.1,9.3,19.8,15.5c0.1-6-5.8-9.3-10.2-12.1c1.9-1.9,3.9-3.7,5.9-5.6C551.8,566,545.5,563.1,538.6,565.1z M463.8,564.8
				 M263.4,566.8c-6.1,1.6-11.3,5.4-15.8,9.7c-2-1-4.1-2.5-6.4-1.3c1.4,1.8,2.8,3.6,4.2,5.4c-2.8,2.1-5.2,5-5.3,8.7
				c2.6-1.4,6.8-3.6,8.9-0.4c0,1.6-0.1,4.8-0.1,6.4c-0.9-1.5-2.6-4.5-3.5-6c-0.1,2-0.3,4-0.4,6c4.2,0.1,7.7,1.3,7.8,6.2
				c-3.6,0.3-7.5-0.3-10.8,1.5c7.7,0.2,15.4-0.4,23.1,0.1l0-1.5c-3.1-0.3-6.2-0.7-9.3-1.2c-1.2-2.5-2.8-4.7-4.8-6.6
				c1.5-3.5,3.8-6.5,6.4-9.1c-0.6-0.5-1.8-1.6-2.4-2.1c-1.1,1.1-3.3,3.4-4.3,4.6c3.9-9.7-3.2,1.4-7.1-2.7c2.3-5.1,7.2-6,12-4.7
				l0.8-1.3c-1.6,0.1-5,0.2-6.6,0.3c7.3-10.7,21.4-12.7,33.4-12.2C277.3,562.2,269.7,564.9,263.4,566.8z M877.6,566.7
				c2.6,4.6,7.4,7.4,12.8,7.3C887.6,569.5,883.5,565,877.6,566.7z M352.8,567.3 M755.4,569c0,1.9,0.1,5.6,0.2,7.4
				c3.8-1.1,7.6-2.5,11.2-4.3c1.6,1.4,3.2,2.9,4.7,4.4C773.5,567.7,760.8,569,755.4,569z M723.2,568.8c0.1,7.8,0.2,15.6,0.8,23.4
				c9.8,0,19.6-0.1,29.4,0.4c0-7.9,0-15.9,0.3-23.8C743.5,568.6,733.4,568.8,723.2,568.8z M707.5,572.3c-0.1-1.1-0.3-3.1-0.4-4.2
				c-0.8,1.2-2.3,3.7-3.1,5c2.5,4.3,1.9,11.8,8,12.4c0.1,1.6,0.3,4.9,0.5,6.5c2.6-1.7,5.4-2.8,8.3-3.8c0.4-6.5,0.5-13,0.5-19.4
				C716.5,569.1,711,568.2,707.5,572.3z M461.9,573.9l-2.1,3.9c9.3-6.6,20.7-5.8,31.2-7.8C481.2,567.6,470.8,569.4,461.9,573.9z
				 M456.2,577c-2.4-1.5-4.8-2.9-7.3-4.4c-4.8-1.2-9.6-3-14.6-3.4c-6.2,0.1-12.3,2.7-18.4,0.8c-0.1,0.9-0.4,2.6-0.6,3.5
				c-3-0.6-8.9-1.8-11.8-2.4c1.8,1.1,5.5,3.4,7.3,4.5c-3.5,3.6-7.2,7-10,11.2c-0.2,0.7-0.6,2.1-0.8,2.8c2.6-1,3.8-3.8,5.7-5.6
				c9.9-12.2,28.7-16.2,42.7-9.1c14.6,6.3,22,22.7,21,38c-2.4,4.5-4.5,9.2-4.9,14.4c2.6-2.9,4-6.6,5-10.3c0.8-0.6,2.3-1.7,3.1-2.2
				c-1.5-5.5-1.5-11.2,0.1-16.6c-0.8-0.3-2.5-0.9-3.3-1.3c-1.4-8.5-7.7-14.9-13.1-21.2c1.2-2.4,2.4-4.8,3.6-7.3
				C453.5,567.8,455,572.6,456.2,577z M266,571.8c2.6,1.2,5.2,2.3,7.8,3.3c-1.4,0.2-4.2,0.6-5.6,0.8c1.7,3.9,0.2,6.3-4.6,7
				c-0.6-1.3-1.9-3.9-2.6-5.2c2.6,4.6,1.3,8.2-3.5,10.2c3.6-0.8,6.8-2.7,9.9-4.4c2.9,2.4,5.6,5.2,9.1,6.9c1.1-2.6,4.2-7.1,0-8.7
				c-1.8,0-5.4-0.1-7.2-0.1c1.6-6.4,9.1-3.1,13.6-3.5c-1.2-0.8-3.5-2.4-4.7-3.1c2.2-1.1,4.3-2.2,6.4-3.3
				C278.5,571.9,272.3,571.9,266,571.8z M868.5,574.1 M573.6,574c0.9,1.2,2.6,3.5,3.4,4.6c-4-0.9-7.9-1.8-11.9-2.6
				c4.2,3.1,9.2,5.8,14.7,4.6c3-0.1,10.1-1.8,9.2,3.5c-2.4-0.3-4.8-0.8-7.1-1.3c0.5,3.4,3.6,4.3,6.2,5.5c-1.1,1.7-3.2,5.1-4.3,6.8
				c0.9-1.1,2.8-3.2,3.8-4.2c2.6-0.2,5.2-0.4,7.7-0.6l-1.3-3l-5.3,1.4c1.7-3.3,3.7-6.5,5.8-9.6c-1.7-1.3-3.4-2.7-5.1-4
				c-3.7,3.6-9.6,4.8-13.5,0.7c2.2-0.3,6.7-1,8.9-1.3C581.1,574.2,577.4,574.1,573.6,574z M520,575.6c-18.3,4.9-27.9,27.9-19.2,44.5
				c8.4,19.2,37.8,24.7,51.4,8c1.2,1.1,2.3,2.2,3.4,3.3c-2.1,2.5-9.1,3.6-6.6,8.2c-0.7,0.8-2,2.4-2.7,3.2c4.6-0.2,9.2-0.3,13.8,0
				l0.9-1.8c-1.8-0.5-5.4-1.6-7.2-2.2l-3.8,0.4c6.6-5.1,10.6-12.7,17.1-17.9c-0.8,2.6-2.3,7.8-3.1,10.4c2.1-3.6,3.9-8.6,9-5l0.7-3.7
				c0.6,1.2,2,3.5,2.6,4.6c2.5-0.9,5.1-1.7,7.6-2.6c-0.8-7.8-8.4-5.8-12.3-1.5c0.1-2.3,0.4-6.9,0.6-9.2c2.2,0.9,4.2,2.2,6.1,3.6
				c4.6-2,8.7-5,12.1-8.8c-3.6-1.7-5.9-0.2-6.5,3.7c-5,4.4-11.4-1.3-15.6-4.4c-0.2-3.3,1.2-6.4,1.9-9.6c3.9-0.3,7.8-0.4,11.7-0.8
				c-1.3-1.8-2.7-3.4-4.2-4.9l-1.6,4.5c-1.4-1.2-2.8-2.5-4.1-3.8l-1,3.1c-1,0.4-3.1,1.1-4.2,1.5c-0.9-3.9-2-7.7-3.3-11.4l-1.8,0.8
				c1.8,6,4.1,11.9,5,18.1c-0.8,7.7-4.3,14.8-7.8,21.6c-1.4-0.2-4.2-0.5-5.7-0.7c12.2-10.4,11.3-31.3,0.5-42.4l-0.9,0.7
				c0,1.9,0.2,5.6,0.2,7.5c-2.9,3.1-8.4,6.7-11.6,1.9c-7-5.8,2-14.3,8.9-12C543.8,574.2,529.9,572.7,520,575.6z M286.6,573.9
				c5.8,6.2-3.6,8.7-8.5,7.7c3.5,2,6.7,4.4,9.5,7.4c-0.5,2-1.5,6.1-2,8.2c2.3,0,6.8,0.2,9,0.2c-0.7-4.1-1.4-8.4-6.7-8.1l-0.1-1.7
				l4.2-0.1l-1-3.4c-1.4,0.5-4.3,1.4-5.7,1.9l-0.7-3.2c3.8-0.3,4.6-4.2,6.3-6.6C289.5,575.3,288,574.6,286.6,573.9z M182,573.5
				c3.8,5.2,6.2,14,14.1,13.6c5.1-0.2,11.2,2.6,15.5-1.2c-0.2,0.9-0.5,2.8-0.6,3.7c6.1-0.1,12.2,0.3,18.3,0.7
				c-1.1-1.4-3.4-4.3-4.5-5.8c0.8-1,2.5-3.1,3.3-4.1c1.8,0,5.3,0,7-0.1c1.1-1.6,3.3-4.8,4.4-6.4C220.4,573,201.2,573.8,182,573.5z
				 M159.4,575.7c2.6,0.9,7,5.3,8.4,0.8c-0.5-0.7-1.6-2.1-2.1-2.8C164,572.5,158.4,572.7,159.4,575.7z M873.4,576.3 M491,576.2
				 M475.9,576.4 M432.7,575.6c4.9,2.6,8,7.8,5.3,13.2c-2.7,3.8-7.2,1.9-10.9,1.1c-1.7-3.7-1.9-7.8,0.5-11.2c1.4-0.6,4-1.7,5.4-2.2
				c-8.4-2.3-15.7,2.9-22.8,6.5c3.3,3.6,8.2,0.4,12.2,2.4c0.5,5,1.7,11.7-4.8,13.1c-6.9,0.7-8.7-7.4-9.3-12.8
				c-10.3,12.7-10.5,33,2.3,44c8,9.3,20.9,9.3,32.1,7.9c3.3-1,6.1-2.9,8.3-5.5c0.1,1.5,0.2,4.3,0.3,5.8c-9.7,6.8-22,4.1-33,3
				c-7.9-6.4-16.9-12.8-19.6-23.2c-3.2-8.4-0.6-17.2,0.6-25.7c-4.3,2.8-4.5,9.2-4.6,13.9c-0.9,10.9,4.8,21.2,12.2,28.8
				c-11.8,11.5-30.6,9.8-44.2,2.5c1.5,1.5,4.5,4.4,6,5.9c-1.6,0-4.9-0.1-6.5-0.1l-0.2-2.3c-1.2,0.3-3.5,0.9-4.6,1.2
				c-1.2,0.3-3.6,0.9-4.8,1.1l0,2.4c7.1-0.6,14.2-1.2,21.2-2.4c-0.8,1.7-2.3,5.1-3.1,6.8c3.4-0.3,6.8-0.6,10.2-1c-2-0.6-4-1.2-6-1.8
				c0.2-0.7,0.7-2,0.9-2.7c6.2,1.1,12.6-0.1,18.6,1.5c-0.3,2.6-4.7,2.2-6.6,3.6c3.7,0,7.4-0.2,11.2-0.5c-0.9-1.8-0.9-3.8-0.3-5.7
				l5.3,1.5c0.8-0.6,2.5-1.7,3.3-2.3c-1.9,0.1-5.8,0.2-7.7,0.3c3-2.2,6.4-4.2,8-7.8c1,1.4,2.1,2.7,3.1,4.1c-0.5,1.5-1.4,4.4-1.9,5.9
				c5.7,0.7,11-1.9,16.5-2.6c1.1,0.8,3.1,2.3,4.2,3.1c7.8-0.7,15.7-4.1,23.4-0.5c5.5,1.6,6.9-7.4,3.5-10.3c5,1.9,5.7,6.6,2.9,11
				c4,0,4.9-3.8,6.5-6.5c0.4,1.4,1.3,4.1,1.8,5.5c2-3,5.6-1.2,8.5-1.1c6,1.2,11.9-0.6,17.9-0.9l0.3-2.9c2.5,1.2,4.8,2.8,7,4.4
				c4.7-0.8,9.3-2.5,14.1-2.8c5.6,1,11.2,1.8,16.8,1.3c0.1,1.2,0.3,3.5,0.3,4.6c0.2-1.1,0.5-3.2,0.6-4.2c2.1-0.3,6.2-0.8,8.3-1
				c-3.5-4.6-9.7,1-14.4-0.8c-23.5-0.2-40.3-28.1-30.1-49.1c2.3-6.5,9.1-10.1,10.9-16.7c-5.4,3.9-9.1,9.5-12.9,14.9
				c-3.1,9-6.1,20.7,0.4,28.8c-1.1,1.6-2.3,3.2-3.5,4.8c-1.3-4.4-5.7-9.1-1.9-13.6l-1.7,0.1c-0.7,1.3-2,4-2.6,5.3
				c-3.6-0.2-7.2-0.9-10.6-2.2c2.6,4.7,8.5,4.3,12.9,2.8l1.5,6.9c-2.8-0.7-5.1-2.1-6.8-4.3c-4.8,0.3-4.1,5.8-5.5,9.1
				c1.6-0.3,4.8-0.9,6.4-1.2l2.1-3.8c1.4,2.2,2.8,4.3,4.2,6.5l0.7-5.6c2.2,2.7,3.8,5.8,6.3,8.1c-0.8-1.3-2.2-3.9-3-5.2
				c0.9-1.3,1.9-2.6,2.8-3.8c2.1,6.5,7.3,10.7,12.2,15l-4.6,0.3l0.1,4l-5-1.7c1.1-1.3,3.4-3.8,4.5-5c-12.9,6.4-28,8.5-41.2,1.7
				c-0.3-1.3-1-4-1.3-5.4c0.8-1.2,2.5-3.4,3.3-4.6l-1.6-1.3c-2.2,3.1-4.6,6.1-7.1,9c-1.3-1.3-2.6-2.6-3.9-3.9
				c9.6-3.8,13.1-14.8,13.5-24.3c0.9-8.4-4.3-15.8-8.1-22.9c-0.9,1.1-1.8,2.3-2.7,3.5c4.3,2.1,1.3,5.7,0,8.2
				c-3.3,2.1-7.1,1-10.7,0.7c-0.8-2.3-1.7-4.6-2.6-6.8c3.1-4.5,7.7-7.2,13.1-7.6C447.7,578.4,440.6,574.7,432.7,575.6z M379.3,576.7
				c0.9,3.1,9.6,3.4,10.5,0.1C386.7,575.2,382.5,575.3,379.3,576.7z M313.6,584.7c-8.5,8.1-11.8,20.8-9.3,32.2
				c-10-1.6,0.7-15.4-5.9-17.8c-1.3,8.7-1.3,18,3.4,25.7c1.7,2.8,3.6,5.6,5.5,8.3c-4.2-1.7-7.9,1.1-11.7,2.2c1.1-1.6,3.2-5,4.3-6.6
				c-7.5,4.8-15.8,9.4-24.9,10c-11.5-1.4-23.5-6.7-29.9-16.8c-5.1-7.7-6.6-17.5-4.9-26.6c-0.2-2.1-1.2-2.6-3.3-1.6
				c-2.7-1.5-1.8-5.6-2.9-8.1c-0.4,3.8-1.4,8.1,0.9,11.5c3.8,6.2,2,14,5.3,20.4c6.8,14.6,23.4,24.5,39.5,22.3
				c4.5-0.5,8.6-2.8,13.1-3.4c1.4,4.5-4.9,3.8-7.5,4.4l0,1.9c7.9,0.9,17.2-3.7,23.7,2.2c0.1-1.6,0.4-4.9,0.5-6.5
				c-1.2,0.6-3.7,1.8-5,2.5c0.4-1.8,1.2-5.3,1.5-7.1c2.8,1.5,5.6,3.2,7.7,5.6c-0.5,1.4-1.6,4.2-2.1,5.6c12.3-3.9,25,3.4,37.3-1.4
				c4.9,0.9,1.2-4-0.7-2.2c-9.2,3.1-19.2,1.9-28.4-0.8c-4.1-3.7-10.8-5.2-11-12.1c7.3,5,14.9,10.1,23.8,11.8
				c-1.3-3.4-2.6-6.8-4-10.2c2.6-8.1,13.5-7.1,15.8,0.6c-1.8,3.1-3.5,6.3-5.1,9.5c5.8-1.5,12.3-2.6,16.4-7.6
				c1.2,1.1,2.4,2.2,3.5,3.4c-8.4-1-5.5,4.8-1.9,5.7l0.1-3c1.5-0.7,4.3-2.1,5.8-2.8l-1.4-2.2c7.3-2.5,9.6-11.4,11.2-18
				c-4.6,4.6-5.6,11.8-10.1,16.7c-1.2-1.2-2.3-2.4-3.5-3.6c6.6-4,8.3-12.4,8.3-19.6c-2.8,2.5-5.2,6.9-9.8,5.9
				c-3.8,0.3-4.7-4.6-6.6-7c1.5-2.4,3-4.8,4.5-7.2c1.6,0,4.8,0.2,6.4,0.2c1.8,1.7,3.6,3.5,5.4,5.2c0.4-7.3-2.4-14.5-7.6-19.6
				c0.4,6.4-3.7,14-11.2,12.4c1.8-4.1,3.7-8.2,6.5-11.8c-2.2,0.5-6.7,1.6-9,2.2c0.3-8.6,9.7-3.2,14.2-3.2
				C348,573.9,326.8,573,313.6,584.7z M317.3,576.2 M170.5,576.4c0.2,1.4,0.5,4.2,0.6,5.6C174.7,583.1,173.8,575.3,170.5,576.4z
				 M754.9,581.9l3.4,1.1c-2.8,3.5-1.9,8-1.7,12.1c-4.9-1-9.9-1.3-15-0.8c0.1,6.9,8.8,6.2,13,3.9c2.4-4.1,5.3-1.9,8,0.1
				c-0.9-1.7-1.9-3.4-2.8-5.1c1.3-4.2,0.6-8.5-0.4-12.7l4,0.3l0.1-3.1C760.3,578.6,756.9,579.1,754.9,581.9z M627.1,578.5
				c-4,8.3-5.1,20.6,1.3,27.4c0.1-6-2.6-12.1-2.5-18.3c0.7-2.9,3.7-6.2,2.2-9.2L627.1,578.5z M563.4,578.8 M479,580.4
				c2.9,2,4.7,1.5,5.4-1.4C481.5,576.9,479.7,577.4,479,580.4z M371.5,578.1c2.3,1.6,4.6,3.2,6.8,4.9c5-0.1,10-0.3,15-1.1
				C386.5,579,378.4,581.6,371.5,578.1z M358.8,580.1 M312.7,579.6 M769.2,580.9 M596.9,579.7c-0.9,7.5,2.8,13.4,6.8,19.3
				c0.9-0.4,2.6-1.3,3.5-1.8c0.8,1.1,2.5,3.2,3.4,4.3c-1.1-3.6-3.6-6.2-7.3-7.1C607.1,588.2,601.1,583.4,596.9,579.7z M475.9,581.1
				 M428.3,586.6c3.8,6.3,12.2,0,8.3-5.9C432.1,577.2,424.7,580.7,428.3,586.6z M393.3,590l-0.9-5.1c-4.1,1.5-15.6,1.8-10.7,8.7
				c5.3,4,6.8-3.2,6.7-7.2c1.9,1.7,2.9,4.8,5.7,5.4c1.5-2.5,2.8-5.2,3.9-7.9l2.9,3c-0.6-1.6-1.9-4.7-2.5-6.3
				C396.9,583.8,395.1,586.9,393.3,590z M366.1,585.2c-1.2-1.4-3.4-4.2-4.6-5.6l-2.8,0.5c6.5,5.8,9.4,14.1,14.3,20.8
				c-1.2-4.8-2.6-9.4-4.3-14c1.3,0.8,4,2.3,5.4,3.1c-0.4-1.5-1.1-4.4-1.5-5.8c-1.2-0.7-3.5-2.1-4.7-2.8
				C367.5,582.3,366.6,584.3,366.1,585.2z M159,584.7c3,1.1,6,1,8.9-0.4C168.8,579.5,159.5,581.5,159,584.7z M563.6,583.3
				c2.3,3,4.4,6.1,6.5,9.2c-0.3-1.7-1-5.2-1.4-6.9c3.6,1.2,6.2,3.6,7.6,7.2c4.3-0.3,9.1-5.3,3.7-8.3c-1.7,0.5-5.1,1.3-6.8,1.8l0-3.3
				C570,583.1,566.8,583.2,563.6,583.3z M476,588.9c1.7-3.6-4.2-4.1-6.3-5C463.1,582,472.7,592.7,476,588.9z M659.4,585
				c-1.6,2.4-3.2,4.7-4.8,7.1c2,2.5,4.1,5,6.2,7.5c5-0.7,11.6-5.1,8-10.7C667.5,584.5,662.9,585.2,659.4,585z M608.4,585.2
				c1.3,4.7,3.9,9,4.5,13.9c0.9,0.9,2.6,2.7,3.4,3.6c-3.5,11-5.9,23.6-16,30.7c-3.2,2.9-8.3,3.3-10.9,6.7c4.8,0.9,8.5-3,12.4-5.1
				c-0.1,1.4-0.2,4.2-0.3,5.6c3.5-1.2,6.9-2.6,10-4.7c1.5,3.8,11.2,2.8,5.1-2c-1.5,0.2-4.4,0.5-5.9,0.7c1.2-6.5,8.4-2.7,9.7,1.2
				c5.8-0.8,12.5,0.6,17.5-3.1c3.6,0,7.3,0,10.9,0.1c0.1-0.7,0.3-2.1,0.4-2.8c-2.5,0.6-4.9,1.2-7.4,1.8c-0.2-2.1-0.5-6.3-0.6-8.4
				c3.9,2.1,9.4,2.4,11.9,6.5c6.9-2.2,14.3-0.3,21.2-2.6c-9.6-3.7-20.7,1.8-29.4-4.9c-6.7-3-10-10.2-15.7-14.3
				c0.1,1.1,0.4,3.4,0.5,4.5c-3.7-1.1-7.5-2.1-10.5,1.1c6.5-0.6,13.8-1,17.3,5.7c-2.6,0.6-5.3,1.3-7.9,2c-0.8-1.2-2.3-3.5-3.1-4.6
				c-3.9,0.5-7.8,1-11.8,1.6c1.3-4.9,2-10.3,5.3-14.4l0.8,3.6l2.4-0.2c-1.9-2.1-3.7-4.1-5.6-6.2c-1.8-5.6-2.8-12.1-7.1-16.4
				L608.4,585.2z M544.3,593.7c2.2-1.8,3.9-5.3,2.8-8.1C543.5,584.7,540.4,592.7,544.3,593.7z M477.6,584.4c0.6,3.1-0.1,6.8,2.5,9.2
				c-0.4,1.1-1.2,3.3-1.6,4.4c4.2-0.3,10.1-0.7,9.9,5.1l2.1-0.1c-1.4-4.3-4.6-7.6-9.2-8.5c3.2-2,4.2-4.9,3.6-8.5
				C483,585.6,479.4,584.8,477.6,584.4z M446.3,593.7c3.4,0.8,5.6-5.1,4.3-7.7C447.4,585.8,444.8,590.9,446.3,593.7z M378.7,585.6
				 M766.7,588.1 M674.9,590.6l-0.2-3.5l-2.3,0c0.1,1.7,0.4,5.2,0.6,7l1.5-3.5c2.1,2.7,6.1,5.9,1.4,9.5c4.3,3.4,8.6,6.7,12.9,10
				c0.7-3.3,6.1-7.5,2.3-10.4c-1.8-0.2-5.5-0.7-7.3-0.9c0.2-0.9,0.7-2.6,0.9-3.5c2.9,0.6,5.8,1.1,8.7,1.6c0.5-3.2,0.6-6.5,0.3-9.7
				C687.5,587.9,681.2,589.4,674.9,590.6z M651.7,587.7 M630.8,587.3c-0.1,3.1-0.1,6.2-0.2,9.3c3.6-0.2,7.2-0.3,10.7-0.4
				c-1.2,3.3-5.2,3.3-7.8,4.9c-1.1,3.3,1.2,6.3,1.9,9.5c5.7-2.9,10.3-7.2,14.8-11.6c0.7,0.7,2,2,2.7,2.7c0.9-0.1,2.7-0.4,3.6-0.5
				c-0.8-1-2.5-3-3.3-4c-1.5,0.1-4.6,0.4-6.2,0.6c-0.1-1.9-0.2-5.6-0.3-7.5C641.5,589,636.2,587.9,630.8,587.3z M414.6,587.3
				c-1,2.8,2.1,7.1,5,6.8C421.1,591.3,418.1,585.6,414.6,587.3z M267.2,587.9 M258.6,589.6c-2.2,1.8-3.3,4.2-3.5,7.2
				c2.9,0.8,5.8,1.4,8.8,0.6C263.1,594,263.9,588.5,258.6,589.6z M715.8,593.9c6.6,4.4,15.4,6,23.2,4.7c0.3-1.1,0.8-3.4,1.1-4.6
				C732,594.7,723.6,591.8,715.8,593.9z M278.7,590.8c-1.5,0.4-4.5,1.2-6,1.6c1.5,1.3,3.6,1.8,6.3,1.5c2.2,0.3,4,6.9,5.9,3.6
				C284.2,594.2,282.1,591.9,278.7,590.8z M713.6,595 M621.2,594.3 M590.8,599.9c3.2,3.4,7.4-2.5,4.5-5.3
				C592.1,590.8,587,597.1,590.8,599.9z M475.4,594.9 M390.3,594.4l0.2,3.1c-4.7-0.9-10-1-13,3.4c1.1-0.4,3.2-1.1,4.3-1.5
				c2-0.2,4-0.4,6.1-0.7c1.6,1.9,3.2,3.7,4.7,5.6c-1.6-3.5-1.6-7,0-10.4L390.3,594.4z M267.4,595.1 M670.3,600.7
				c3.3,0.7,4.6-0.5,3.9-3.6C670.9,596.4,669.6,597.6,670.3,600.7z M706.8,599.2c0.3,0.9,1,2.6,1.4,3.5c17.6,1.4,35.3,1.6,52.9,0.3
				c-3.2-3.2-8-2.2-12.1-2.4C734.9,601,720.9,599.5,706.8,599.2z M597.2,603.5c3.1,0,4.3-1.6,3.5-4.9
				C597.6,598.7,596.4,600.3,597.2,603.5z M587.5,603.5c2.8-1.3,2.6-2.9-0.6-4.7C584,600.1,584.2,601.7,587.5,603.5z M270.3,600.9
				c1.2,1.3,3.6,3.9,4.7,5.3c1.8-1.3,3.5-2.7,5.2-4C277.1,600,273.8,598.3,270.3,600.9z M575.1,608.2c4.8,1.5,6.5-1.7,6.4-5.9
				C578.6,602.4,572.1,603.6,575.1,608.2z M481.1,610.7c0.9-0.9,2.6-2.6,3.5-3.5c-0.3-1.2-0.9-3.6-1.2-4.8
				C478.6,603.7,476.7,607.1,481.1,610.7z M373.5,614.7c1.3-4.1,1.4-9.2-0.1-13.3C370.2,603.4,370.4,612.7,373.5,614.7z
				 M284.4,601.7c1.3,3.4,7.7,2.2,10.5,1.1C293.6,599.6,287.1,599.9,284.4,601.7z M609.8,603.8 M381.8,609.9c3.3,3.4,9.2-1.6,5.3-5
				C384.3,602.4,378.7,606.9,381.8,609.9z M759.9,606.5 M742.3,606c-0.4,1.1-1.2,3.4-1.5,4.6c5.4,0.2,10.8,0.1,16.2,0
				C756.5,603,747.3,606.2,742.3,606z M739,606.5 M284.4,611c2.5,2.5,5.3,4.9,9.1,3.8c1.5-3.1,1.1-5.7-1.3-8
				C289.1,607.1,286.6,609.1,284.4,611z M279.7,612.4c2.8,0.5,6.4-3.6,4.9-6.3C281.7,605.7,278.9,609.8,279.7,612.4z M267.4,606.6
				 M248.8,610.2c-1-0.3-2.9-1-3.9-1.3c0,0.8-0.1,2.5-0.1,3.3c1.2,0,3.6-0.1,4.8-0.1c-0.9,2.6-1.9,5.2-2.1,8c1-1.1,3.1-3.3,4.1-4.4
				l-1.4,5.5l3.9-1.5l-0.3,2.4l3.4-0.3c-2.2-3.6-4.3-7.3-6.2-11.1c1.4-1.4,4.1-4.1,5.4-5.5C253.4,605.9,250.8,607.6,248.8,610.2z
				 M610.4,608.5 M600.2,608.6 M256.2,612.8c1.8,7.1,11.1,0.6,6.8-4.8C260.2,605.8,253.1,608.5,256.2,612.8z M591.1,618.2
				c5.8,0.9,5.3-4.5,5.9-8.5C591.7,608.3,585.7,614,591.1,618.2z M276.5,611.4 M604.1,611.1c-1.9,3.4-3.7,6.9-5.6,10.3
				c-2-0.5-6-1.5-8-2.1c-2.1,7.4,8.8,0.8,7.7,7.4c-0.3,1.3-0.8,3.9-1.1,5.2c1.8-2.2,2.4-4.7,1.7-7.4c5.3,2.8,5.7-1.1,5.9-5.1
				C610.1,618,605.1,613.9,604.1,611.1z M268.8,621.2c-4.8,4-5.8-5.6-11.2-4.1c4.1,2.4,6.9,5.6,3.3,9.9c2-3.5,5.4-3.6,9-2.9l0.2-3.5
				c2.6,3.4,5.9,4.2,9.8,2.5c-0.6,7.7-8.8,3.4-13.3,4.3c1.7,0.7,5,2,6.7,2.7c-2.8,1-5.5,2.1-8.2,3.2c8.6,0.5,17.1-0.7,25.6-1.3
				c0.1-4.1-0.7-7.9-4.5-10.2c0.9,1.2,2.6,3.6,3.5,4.8c-2.2,2.8-5.1,4.9-8.6,5.9c-0.5-2.7-1-5.4-1.5-8.1c6.2,0.8,7.4-6.9,3.1-10.1
				c1.5,3.6,0.7,6.5-2.5,8.6c-0.6-2.9-1.8-5.4-3.6-7.5c-3.1,1.1-8.4,7.1-9,0.5l1.6-1.4l0.3-2.6C266,613.4,263.9,619.3,268.8,621.2z
				 M870.8,618.1 M584.8,616.7c2.3,3.7,1.4,7.4-0.9,10.7c1.2-0.6,3.6-2,4.7-2.6c1.4,2.7,3.2,5,5.6,6.8
				C591.5,626.4,588.4,621.4,584.8,616.7z M289,618.7c1.5,1.9,6.8,4.3,7.6,0.9C295.4,617.4,289.6,615.4,289,618.7z M387.8,628.9
				c0-1.7,0-5.3,0-7c-1.8-0.1-5.3-0.3-7.1-0.4c0.3,2.4,0.9,7.2,1.2,9.6c-2-2.5-3.9-5-5.9-7.5c1.1,5.3,3.7,11.4-2,14.9
				c5.3-1.1,10.6-2.2,15.8-3.8c-0.3,1.3-0.9,3.9-1.2,5.2c2.2-1,4.4-1.9,6.6-2.8c-6.4-0.3-5.1-13.6,2.1-8.6l-0.1-2.3
				c-1.1,0-3.3-0.2-4.4-0.2l1.9-4.6C392.3,623.8,390.1,626.3,387.8,628.9z M295.3,624.8 M255.5,624.9 M331.8,629.3
				c-2.1,4.9,3,8.5,7.5,6.5c1-2.2,1.9-4.4,2.9-6.6C339.4,627.4,332.8,623.8,331.8,629.3z M241.6,627.4 M568.3,636.2
				c6.9-3.7,14.4-2.8,21.4-0.1c-4.2-5.5-11.6-4.8-17.7-6.4C571,632,569.7,634.1,568.3,636.2z M468.4,630.1 M475.6,631.6
				c-2,1-4.1,2-6.2,2.9l0,1.3c6.8-2.8,14.3-2.2,21.5-2c-0.2,7.7,7.1-2.8,0,0C486.8,629.8,480.7,631.7,475.6,631.6z M660.5,634.3
				 M557.6,636c0,3.5,5.7,5.4,8.6,4.2C565.8,637.1,560.5,634.8,557.6,636z M476.4,637.3c3.4,1.2,7.6,1.2,11,0.1
				C486.4,634.2,477.4,634,476.4,637.3z M545,639 M569.3,642l2.5,0.8c1.8,1.3,1.3,2.5-1.5,3.7l4.5,1.9c0.3-1.1,0.9-3.2,1.2-4.3
				c3-2.8,8.8,0.7,10.8-3C581.3,640.2,574,638.7,569.3,642z M838.4,648.1 M359.4,648 M820.2,655.1"/>
		</g>
		<path d="M592.4,392.3c-1.7-1.7-3.4-3.4-5.1-5.1c-0.3,2.2-0.8,6.5-1.1,8.7c1.7,0,5,0.2,6.7,0.2c-0.9,2.4-1.9,4.8-2.9,7.2
			c8-0.7,16-1.2,24-2.2c0.1-1.2,0.2-3.7,0.3-4.9C607,395.1,599.7,393.5,592.4,392.3z"/>
		<path d="M590.2,402.7c0.4-8.2-8.9-5-14-6.2c0,1.7,0,5.1,0,6.8C580.9,403.1,585.6,402.9,590.2,402.7z"/>
		<path d="M574.7,398c-2.4-3.4-8.6,0.1-5.6,3.7C571.3,404.8,577.4,401.3,574.7,398z"/>
		<path d="M567.3,396.3c-5.3,0.2-10.7,0.3-16,0.4c-0.1,1.6-0.3,4.9-0.4,6.6c5.3-0.3,10.5-0.4,15.8-0.4
			C566.8,401.3,567.1,398,567.3,396.3z"/>
		<path d="M549.5,397.7c-3.6-1.2-4.8,0.3-3.6,4.3C549.5,403.1,550.7,401.7,549.5,397.7z"/>
		<path d="M568.7,448c-4.8-6.3-13.1-1.8-19.7-2.4c-0.5,0.7-1.6,2.2-2.1,2.9C554.1,448.9,561.5,448.9,568.7,448z"/>
		<g>
			<path d="M512.6,524.6c-0.6,0.9-1.9,2.8-2.5,3.8c-34.6,0.1-69.3,1.3-103.9,0.8c-4-11.3-0.9-23.8-1.4-35.6
				c36.1-0.8,72.1-0.5,108.2-1.3C513,503.1,513.5,513.9,512.6,524.6z M469.9,494.6c0.4,5.4,2.3,11.6-0.6,16.6
				c-5.2,1.2-10.6,1.8-15.7,3.4c-2.1-0.9-4.3-1.7-6.4-2.5c0.1-5.8,0.1-11.6-0.2-17.4c-13.5,0.6-27,0.7-40.5,1.2
				c-0.3,8.3-0.2,16.5,0.3,24.8c34.2,0,68.3,1.1,102.5,0.7c3.3-8.5,0.8-17.7,1.3-26.5C497,494.7,483.5,494.4,469.9,494.6z
				 M460.4,495.8c0.5,4.8,1.4,9.5,1.9,14.3c8,2.5,7.9-7,6.5-12.3C466.7,497.3,462.5,496.2,460.4,495.8z"/>
		</g>
		<g>
			<path d="M348.8,529.8c-35.3,1.8-70.9,2-106.3,1.7c-1.1-12.1,0.1-24.3-0.8-36.4c36.3-0.4,72.6,1.3,108.8-0.6
				C350.1,506.2,352.8,518.5,348.8,529.8z M306.1,496.7c0.8,5.8,0.9,11.6,0.4,17.5c-3.2-0.1-6.4-0.3-9.6-0.3
				c-2.6,2.5-5.8,3.6-9.3,2.1c0.3-4.9,1.9-10.1-0.7-14.6c-0.5,4.7-0.6,9.4-0.7,14.1c-4.5-4.6-1.6-12.3-2.5-18.2
				c-13.3-0.6-26.5,0.3-39.8,0.1c0.1,8.6,0.4,17.1,0.5,25.7c20.1,0.4,40.2-0.6,60.2,0.9c13.6,0.2,27.2,1,40.7,0
				c-8.1-3.1-17.2,0-25.4-2.7c9.6-0.6,19.3,0.1,28.9,0.2c0.1-8.1,0-16.2,0.1-24.4C334.7,496.4,320.4,496.8,306.1,496.7z
				 M297.8,499.1c0.9,4.6,1.4,9.3,0.7,13.9c8.7,0.5,6.1-8.1,6.5-13.8C303.1,499.2,299.6,499.1,297.8,499.1z"/>
		</g>
		<g>
			<path d="M837.4,634.2c-14.2,6.1-30.7,3.9-43.4-4.7c1.3-1.4,2.6-2.8,3.9-4.1c-2.3-2-4.6-4-6.8-6.2c1.2,2.9,1.8,6,2.1,9.2
				c-10.5-10.5-16.7-26.5-11.3-41c4.8-16.5,21.7-27.8,38.6-27.9c21.2-0.3,42.6,20,38.1,42C858.6,615.4,849.4,627.7,837.4,634.2z
				 M838.5,566.8 M803.7,567.1 M795.7,579.1c-10.1,11.3-9.7,30.6,1.5,41c13.2,15.2,41,11.9,50.1-6.2c10-15.6,1.2-38.3-16.1-44.2
				C819,565.6,803.8,568.5,795.7,579.1z M796.8,571.9 M788.4,582.3c2.7,0.8,5.8-3.5,4.4-5.9C789.9,575.4,786.8,579.8,788.4,582.3z
				 M852.9,581.3 M854.7,603.4c-1.6,6.1-4.3,11.8-6.7,17.5c-1.5,1-1.5,1,0,0C852.1,616.1,857.1,610,854.7,603.4z M841,627.3
				 M806.1,629.7"/>
		</g>
		<g>
			<path d="M841.1,608.1c-4.9,12-20.6,17.5-31.9,11.3c-5.8-2.4-8.2-8.7-11.6-13.6c0.2-5.4-0.2-10.9,1-16.2
				c4.8-10.5,18.4-17.4,29.4-12.3C840.1,581.1,847.3,596.6,841.1,608.1z M823.1,578.2c-5.9,5,5.7,5.1,7.6,9
				c-5.2-1.4-10.6-2.3-16-2.2c-2,1.4-4.1,2.8-6.1,4.1c-2.6,5-2.6,10.6-2.1,16c4.7,5.2,10.8,8.4,17.9,8.4
				c5.8-4.6,10.8-10.5,10.9-18.4c1.5-0.6,4.4-1.7,5.9-2.2c-1.2-2.4-2.7-4.6-4.5-6.6C830,586.8,830.2,577.3,823.1,578.2z M809.2,584
				c3.2,1.4,7.9-0.7,9.6-3.6C816.8,576.7,807.7,579.7,809.2,584z M802,596.3c2.9-1.3,4.8-5.8,3.4-8.7
				C801,585.4,797.7,594.8,802,596.3z M833.9,608.7c7.6,4.1,6.3-8.3,7.7-12.5C836.5,597.9,834,603.8,833.9,608.7z M803.9,609.6
				c2.2-2.7,0.9-6.9-0.5-9.7C798.6,598.6,799.2,610.3,803.9,609.6z M823.8,617.5c3,1.2,9.1-0.5,9.6-4.2
				C831.2,609.1,824.1,614.3,823.8,617.5z M804.4,613.1c4.5,4.2,10.8,8,17.1,5.4C816.9,614.6,810.8,609.8,804.4,613.1z"/>
		</g>
		<path d="M532,574.9c-4.4,1.1-12.1,4.2-9.1,10.2c1.6,5.6,8,3.8,12.4,4c-0.6-4,3.3-10.5-2.2-12.2c0.3,2,0.9,6,1.2,8
			c-1,5-10.9,3.5-9.7-1.9c-0.5-4.5,4.8-5.1,7.9-5.9L532,574.9z"/>
		<g>
			<path d="M340.6,590.8c-5.1,3.9-11.5-0.6-12.7-6.1c1.4-3.9,6.5-9.9,10.7-6C343,581.4,344.3,587,340.6,590.8z M329.7,582.9
				c0.9,2.4,1.7,4.7,2.6,7.1c4.4,0.9,11.2-2,7.6-7.3C338,577.9,332.7,581.9,329.7,582.9z"/>
		</g>
		<path d="M881.7,582.7c-1.3-1.1-2.6-2.1-3.9-3.2c-0.8,1-2.3,3.1-3.1,4.2c-2.7-0.6-5.5-1.1-8.2-1.6l1.7,6.5c1.4-0.3,4.1-0.9,5.5-1.2
			l0,2.2c-1.4-0.3-4.3-0.7-5.7-1c0.8,4.9,1.5,9.9,4.7,13.9c2.6,2.2,5.1-1.7,7.3-2.6C880,594.2,878.3,587.9,881.7,582.7z"/>
		<path d="M519.7,585c-1.4,0.5-4.1,1.4-5.5,1.9c0.7,1.8,2,5.5,2.6,7.3c-5.1-1.7-5.4-7.7-5.4-12.1c-4.3,2.7-7.9,8.3-3.5,12.6
			c3.2,4.4,8.5,1.2,12.1-0.6C520,591.1,519.8,588.1,519.7,585z"/>
		<g>
			<path d="M323.2,599.3c-5.4,0.7-12.7-2.8-11.1-9.2c2.3-6.8,12.8-6.4,14.7,0.4C326.1,593.6,324.5,596.4,323.2,599.3z M313.8,591.6
				c0,5.1,5.1,6.1,9.1,5c2.6-3.6,2.4-7.2-1.7-9.1C317.8,585.9,315.5,589.2,313.8,591.6z"/>
		</g>
		<path d="M834.6,594.3c1.5-3.1-1-6.4-4-7.1C829.8,590,831.1,594.2,834.6,594.3z"/>
		<g>
			<path d="M829.9,602.9c-1.8,1.8-3.7,3.6-5.5,5.4c-7.3,1-13.1-2.9-15.9-9.4c1.9-3.1,3.8-6.1,5.7-9.1c3.7-0.8,7.9-2.4,11.2,0.4
				C830.1,592.5,829.8,598.4,829.9,602.9z M820.2,589.9c-1.5,0.6-4.6,1.9-6.2,2.5c-6.5,6.6,1.2,16.3,9.3,13.6
				C831,602.8,828.3,590.8,820.2,589.9z"/>
		</g>
		<g>
			<path d="M537.6,596.2c4.5,5.7,4.1,13.7,0.4,19.6c-2-1-4-2-6-3c0.4,1.2,1.1,3.6,1.5,4.8l-5.9,0c0.1-2.2-0.6-4-2.1-5.5l0.2,5.7
				c-4.5-2.8-7-7.3-8.4-12.3c1.2,0.6,3.5,1.9,4.7,2.6c0.1-1.1,0.2-3.2,0.3-4.3l-4.7,1.5c1.3-3.4,3-6.7,5.9-9c1.3,0.7,4,2.2,5.3,2.9
				c-0.9-1.3-2.7-3.9-3.6-5.2c4.6-0.3,12.7,0,9.6,7.4C534.2,606.5,538.1,594.1,537.6,596.2z M533.3,606.4c-0.6-0.7-1.7-2.1-2.2-2.8
				C522.1,601.9,530.8,614.2,533.3,606.4z"/>
		</g>
		<g>
			<path d="M443.7,601.6c3.1,6.3-0.3,14.2-7.1,16.1c-2.8,0.7-11.9,1.5-7.8-4.3c-1.6,0.3-4.9,0.7-6.6,1c0.4-1.8,1.3-5.3,1.8-7.1
				c3.1,1.5,6.2,2.8,9.3,4.1c1.2-1.6,2.5-3.3,3.7-4.9c-2.8-4.1-5.6-1.9-8.1,1c-3.6-1.2-7-2.8-6.8-7.3c1.9,0.2,5.8,0.5,7.8,0.7
				c-0.9-1.1-2.6-3.2-3.5-4.2c4.1-0.9,8.2-0.7,12.3,0C440.2,598.3,441.9,600,443.7,601.6z M443.1,606.4"/>
		</g>
		<g>
			<path d="M337.4,600.9c4.1-1.9,8-1.9,10.2,2.8c-1.9,2.5-3.9,5.2-1.2,8.1c0.6,5.3-5.6,5.9-9.1,3.8c1,1,3,3.1,4,4.2
				c-2.6,0-7.9,0-10.6,0c0.9-1.3,2.7-3.8,3.7-5c-1.2,0.8-3.7,2.4-4.9,3.2c-1.2-2.3-6.1-4.2-3.9-7.1c2.2-2.3,0-4.9-0.5-7.2
				c0.8-1.3,2.3-3.9,3.1-5.2c2.1,0.9,4.1,1.8,6.1,2.7c-0.9-1.2-2.7-3.5-3.6-4.7c2.7,0,8.2,0.1,10.9,0.1
				C340.5,597.7,338.4,599.8,337.4,600.9z M333.1,609.9c2.3,3.1,8.5,0,5.6-3.5C336.5,603,330.2,606.4,333.1,609.9z"/>
		</g>
		<path d="M559.2,610.1c2.8-6.1-1.7-10.8-7.1-12.8c-2.8,2.5-5.2,5.3-7.2,8.6c4.1-0.4,8.2-0.8,12.2-1.3c-4,0.8-8,1.6-12.1,2.3
			C547.3,612.4,555.3,616.3,559.2,610.1z"/>
		<path d="M513.3,608c2-6-4.3-9.6-9.4-9.6c-2.4,3.2-5.2,6.3-5.6,10.5c3.7-2,7.8-2.8,11.9-3.2l-0.1,1.5c-1.9,0.2-5.7,0.7-7.6,0.9
			C498,615.9,514,614.5,513.3,608z"/>
		<path d="M464.4,605.4c-3.6-6.4-9.9-6.8-15.5-2.9C452,609,458.9,606.5,464.4,605.4z"/>
		<path d="M417.6,606.9c-2.2-6.7-11.4-9.7-14.8-2C407.7,605.6,412.7,606.2,417.6,606.9z"/>
		<g>
			<path d="M320.7,607.6c-2.8-0.4-5.6-0.7-8.5-1c0.7,1.6,2.2,4.9,3,6.5c1.1-0.7,3.2-2.2,4.3-3c-1.1,5.9-7.6,5.2-12.1,5.2
				c-3-5-2.2-10,1.9-14c1.6,0,4.9,0,6.5,0C317.4,603.4,319,605.5,320.7,607.6z M311.6,608.9"/>
		</g>
		<path d="M463.4,611.5c-1.4-1.6-2.8-3.2-4.2-4.8l-0.5,1.9c-3.4-0.3-6.9-0.4-10.4-0.3C450.5,615.4,458.6,614.7,463.4,611.5z"/>
		<path d="M416.8,607.8c-5.1-0.2-10.1-0.9-15.2-1.7C400.9,616.1,416.5,617.5,416.8,607.8z"/>
		<path d="M550.6,621.6c6.5-3.9-7.1-10.8-7-4.8c2.5,3.7,4.5,7.8,6.3,11.9c1.1-1.9,3.2-5.6,4.3-7.4L550.6,621.6z"/>
		<path d="M516.7,614.7c-5.5-0.9-7.8,2.6-7.4,7.5c-0.9-0.9-2.6-2.6-3.5-3.5c0.1,3.5,1.3,6.7,3.3,9.5c1.5,0.4,4.6,1.3,6.2,1.7
			c5.1-2.5,5-8.1,4.6-13c-4.8,2.2-2.6,9.6-8.2,10.5C513.1,623,514.9,618.8,516.7,614.7z"/>
		<g>
			<path d="M453.1,620.1l0.1,1.5l4.1-1.2c-0.6,2.2-1.7,6.4-2.3,8.6c-3.6,0.3-7.2,0.7-10.7-0.5c-2-5.7-1.6-11.2,4.6-13.7
				c2.5,1.5,5,3.1,7.4,4.7L453.1,620.1z M446.2,620.2c-1,2.5,1.5,6.9,4.4,6.2C452.3,623.9,449,619.5,446.2,620.2z"/>
		</g>
		<g>
			<path d="M424,625.3c-1.2,3.4-4.8,4.8-7.7,6.5c-2.3-2-4.7-4-7.1-6c0.7-2.9,1.4-5.8,2.1-8.6c3.7,0.1,7.4,0.3,11.2,0.5
				C423,620.2,423.7,622.7,424,625.3z M416,626.6c3,0.8,4.8-4.2,3.7-6.4C416.6,619.3,414.2,624.2,416,626.6z"/>
		</g>
		<path d="M356.9,618.8c-1.9-3.1-9.5-1.2-5.6,2.7C353.2,625,360.2,622.6,356.9,618.8z"/>
		<path d="M322.7,617c-6.2-0.4-12.3,4.2-10.2,10.8c1.4-2.8,2.8-5.7,4-8.5c5.6-0.3,11.8,4.5,6.5,9.8c-2.3-0.2-6.8-0.5-9.1-0.7
			c3,6.5,11.8,2.1,13.9-2.9C326.2,622.6,324.5,619.8,322.7,617z"/>
		<path d="M549.3,629.4c-2.8-3.2-4.7-7.3-8.1-9.9c-0.8,1-2.4,3.1-3.3,4.1C540.8,627.3,544.2,630.3,549.3,629.4z"/>
		<path d="M348.6,620.6l-2.1,0.1C342.5,624.8,351.7,625,348.6,620.6z"/>
		<g>
			<path d="M534.1,623.6c7.4,3.9,1.7,13.2-5,12.9c-4.3-1.5-7.9-5.9-5.2-10.4c1.2-4.7,6.2-4,9.9-4.3L534.1,623.6z M526.5,624.1
				c-3.4,4.9-0.3,12.7,6.3,9c1-1.2,2.9-3.5,3.9-4.7C533.9,625.7,530.6,623.5,526.5,624.1z"/>
		</g>
		<path d="M439.3,627.8c-1.6-9-14.7-4.2-13.5,3.3c0.5,1.1,1.4,3.4,1.9,4.5c3.5-0.1,7-0.1,10.5-0.1c0.9-2.4,1.7-4.8,2.6-7.2
			c-3.1,5.5-9.2,7.9-14.3,3.1c1.8-2.4,3.7-4.8,5.5-7.2C434.4,625.4,436.8,626.6,439.3,627.8z"/>
		<path d="M357.9,624.6c-3.2-1.3-4.2-0.2-3,3.1C358,629.1,359,628.1,357.9,624.6z"/>
		<path d="M353.9,629.7c-1.1-2.3-5.3-4.4-7.2-2.1C347.4,630.1,353.2,633.5,353.9,629.7z"/>
		<path d="M388.2,631.6c-2-2.8-3.9-2.9-5.8-0.4C384.4,634,386.3,634.1,388.2,631.6z"/>
	</g>
</g>
<g id="text">
</g>
<g id="scratch">
</g>
<g id="guides" display="none">
</g>
</svg>
