<?xml version="1.0" encoding="utf-8"?>
<!-- Generator: Adobe Illustrator 26.0.2, SVG Export Plug-In . SVG Version: 6.00 Build 0)  -->
<svg version="1.2" baseProfile="tiny" xmlns="http://www.w3.org/2000/svg" xmlns:xlink="http://www.w3.org/1999/xlink" x="0px"
	 y="0px" viewBox="0 0 1000 1000" overflow="visible" xml:space="preserve">
<g id="fill">
</g>
<g id="bg" display="none">
	<rect x="-100" y="-1000" display="inline" fill="#B5BD00" width="7000" height="2059"/>
</g>
<g id="counters_00000155831629897369998050000010902328751353074356_">
	<g>
		<path stroke="#000000" stroke-width="3" stroke-miterlimit="10" d="M247.1,284.2c0.4-1.4,0.1-2.7,0.5-4c0.5-1.3,1.7-2.2,3.1-2.2
			c4.4,0,8.7,0.6,13,1c1.9,0.2,3.1,1.9,2.9,4c-0.1,0.7-0.2,1.5-0.3,2.2c-0.1,0.8,0.2,1.4,0.8,2c12.4,12.3,24.7,24.7,37.1,37
			c0.3,0.3,0.6,0.6,1.1,0.6c0.5,0,2.1,1.5,2,2c0,0.9,0.5,1.6,1,2.2c0.5,0.6,1.1,1.1,1.7,1.7c0.1,0.1,0.2,0.2,0.2,0.2
			c1.1-0.1,1.8,0.8,2.7,1.1c0.4,0.2,0.8,0.3,1.1,0.6c3.5,3.5,6.9,6.9,10.4,10.4c0.6,0.6,0.6,1.3,0.1,1.9c-0.5,0.6-0.5,1.1,0.2,1.5
			c1,0.7,1.4,1.8,2.3,2.6c0.2,0.1,0.3,0.3,0.2,0.5c-0.4,0.8,0.2,1.2,0.6,1.7c5,5,10,9.8,14.8,14.9c2.1,2.2,4.1,4.5,6.3,6.4
			c2.5,2.1,3.5,5,4.7,7.8c1.4,3.2,2.6,6.3,3.6,9.6c0.2,0.7,0.6,0.9,1.3,0.6c2.4-1.1,4.9-0.8,7.4-0.2c0.6,0.1,1.3,0.6,1.6,1.2
			c0.3,0.6,0.9,0.7,1.2,1.2c0.1,0.3,0.3,0.1,0.5,0c1.3-0.8,2.2-1.9,2.8-3.3c1.6-3.4,3.4-6.7,5.1-10.1c0.2-0.3,0.2-0.9,0.9-0.6
			c0.6,0.2,0.7,0.6,0.6,1.1c-0.2,0.9-0.1,1.9-0.4,2.8c-0.4,1.1,0.3,1.9,0.8,2.8c0.5,0.8,0.2,1.4-0.6,1.8c-1.2,0.7-2.5,1.2-3.4,2.2
			c-1.3,1.5-2.9,2.8-4.5,4c-0.5,0.4-0.6,0.9-0.1,1.4c2.4,2.4,4.8,5,7.4,7.3c0.7,0.7,1.3,1.4,2,2.1c6.5,6.5,13,13,19.5,19.5
			c6.5,6.5,13.2,12.9,19.6,19.6c5.7,6.1,11.8,11.8,17.6,17.8c0.3,0.3,0.4,0.6,0.4,1c0,2,0,4,0,6c0,0.6-0.2,1.1-0.6,1.4
			c-2.3,1.7-4.1,3.9-6.1,5.9c-0.8,0.8-1.6,1-2.6,0.8c-1.6-0.3-3.2-0.6-4.8-0.7c-0.6,0-1.1-0.3-1.6-0.8c-1-1.1-2-2-3-3.1
			c-0.4-0.4-0.7-0.8-1.3-0.2c-0.5,0.5-1.2,0.9-0.6,1.8c1.2,1.7,1.2,1.7-0.2,3.1c-1.5,1.5-3.1,3-4.6,4.5c-0.4,0.4-0.4,0.7,0,1.2
			c0.7,0.9,1.8,1,2.5,1.8c0.2,0.2,0.5,0.3,0.6,0.5c1.7,2.3,4.2,3,6.8,3.6c1.1,0.3,2.2,0.4,3.1,1.3c0.5,0.4,1,0.1,1.3-0.3
			c1.4-1.5,3.1-2.8,4.3-4.5c0.3-0.5,0.9-0.3,1.3-0.3c1.5-0.2,2.9-0.2,4.4-0.6c0.6-0.1,1,0.5,0.9,1.4c-0.2,1.5-0.8,2.8-1.6,4
			c-1.1,1.8-2.7,3-4.2,4.5c-4.5,4.6-9.1,9.2-13.7,13.8c-4.9,4.9-9.9,9.8-14.8,14.6c-7,6.9-14,13.9-21,20.9c-1.8,1.7-3.6,3.4-5.4,5.1
			c-1.8,1.8-3.7,3.6-5.5,5.5c-1.3,1.3-2.8,2.3-4.7,2.4c-1,0.1-1.3-0.2-1.1-1.2c0.2-1.5,0.4-2.9,0.5-4.4c0-0.6,0.2-1,0.6-1.3
			c2.1-2,4.1-4.1,6.2-6.2c0.5-0.5,0.7-0.9,0-1.4c-0.8-0.7-0.8-1.7-1.2-2.6c-0.5-1.3-0.9-2.7-1.3-4.1c-0.2-0.6-0.6-1.1-1-1.6
			c-1.3-1.4-2.7-2.7-3.9-4.2c-0.4-0.5-0.7-0.5-1.1,0c-1.4,1.3-2.9,2.5-4.2,3.9c-0.5,0.5-0.5,1.4-1.3,1.4c-0.8,0-0.7-1-1.3-1.3
			c-0.4-0.3-0.7-0.5-1.1-0.1c-0.2,0.1-0.4,0.2-0.6,0.4c-1.8,1.5-1.8,1.5-0.1,3.2c0.7,0.7,1.4,1.5,2.1,2.1c0.8,0.7,1,1.6,1.1,2.5
			c0,1.4,0.1,2.8,0.3,4.2c0.1,0.5-0.2,0.9-0.6,1.2c-2.1,2.1-4.3,4.3-6.4,6.4c-0.5,0.5-1.1,0.3-1.6,0.3c-1.3,0-2.5-0.4-3.8-0.5
			c-1.1-0.1-2-0.6-2.8-1.5c-7.1-7.5-14.6-14.7-21.7-22.1c-5.9-6.1-12.1-12-17.9-18.1c-3.3-3.5-6.9-6.8-10.2-10.4
			c-4.1-4.5-8.5-8.7-12.8-13c-1.4-1.4-2.9-2.8-3.9-4.5c-0.9-1.5-1.3-3-1.6-4.7c-0.2-1.6,0.2-3.1,0.7-4.5c0.2-0.6,0.1-0.9-0.5-1.1
			c-2.3-0.9-4.6-1.9-6.9-2.8c-1.6-0.6-3.2-1.3-4.8-2c-1.1-0.4-2.3-0.5-3.2-1.3c-1-0.9-2.3-1.4-3.2-2.5c-0.4-0.4-0.8-0.8-1.2-1.2
			c-5.2-5.1-10-10.5-15.3-15.6c-1.7-1.7-3.4-3.4-5.1-5.1c-0.3-0.3-0.5-0.7-1-0.2c-0.3,0.3-0.6,0.1-0.8-0.2c-0.4-0.4-0.8-0.8-1.2-1.2
			c-0.8-0.8-1.7-1.4-2.9-1c-0.8,0.2-1.5-0.1-2.1-0.7c-1.4-1.4-2.7-2.9-4.2-4.2c-1.9-1.6-3.4-3.6-5.2-5.3c-0.1-0.1-0.3-0.2-0.4-0.4
			c-0.4-1.2-1.1-2.1-1.6-3.3c-0.1-0.2-0.1-0.4-0.2-0.5c-1-1.1-2-2.2-3-3.2c-0.3-0.4-0.6-0.7-1.2-0.3c-0.3,0.2-0.9,0-1-0.2
			c-0.2-0.4-0.4-0.5-0.7-0.6c-0.4-0.2-0.7-0.6-0.4-1.1c0.3-0.6,0.1-1-0.4-1.4c-3.2-3.1-6.3-6.3-9.4-9.4c-1.4-1.4-2.8-2.9-4.3-4.3
			c-7.9-7.3-15.4-15.2-23-22.8c-0.8-0.8-1.6-1-2.7-0.8c-3.5,0.7-5.1-0.6-5.2-4c-0.1-1.5-0.3-3-0.4-4.5c-0.2-1.9-0.4-3.7-0.7-5.6
			c-0.2-1.3-0.5-2.5-0.3-3.8c0.2-1.4,1.2-2.3,2.5-2.6c1.8-0.3,3.5-0.6,5.3-0.6c0.4,0,0.6-0.3,0.8-0.6c2.2-2.2,4.4-4.5,6.7-6.7
			c2.6-2.4,5.2-4.9,7.7-7.4c1.8-1.9,3.7-3.7,5.5-5.5c0.2-0.2,0.7-0.5,0.3-0.8c-0.4-0.5-0.7,0-0.9,0.3c-4,4.6-8.5,8.7-12.8,13
			c-2.1,2.2-4.3,4.3-6.4,6.4c-0.5,0.5-1.1,0.3-1.6,0.4c-1.4,0.3-2.9,0.4-4.3,0.7c-0.6,0.1-1,0.1-1.5-0.4c-1.8-1.8-3.6-3.6-5.5-5.4
			c-0.3-0.3-0.5-0.6-0.4-1.1c0.4-1.7,0.6-3.4,0.7-5.1c0.1-0.6,0.3-1,0.7-1.4c1.5-1.3,2.8-2.7,4.3-4.1c4.6-4.4,9.1-8.9,13.6-13.4
			c4.3-4.3,8.5-8.7,12.9-12.8c3.2-3,6.2-6.1,9.3-9.1c0.8-0.7,1.7-0.6,2.6-0.8c1.2-0.3,2.4-0.5,3.5-0.8c0.5-0.1,0.7-0.3,0.3-0.8
			c-1.4-2.1-0.9-3.4,0.9-5.1c2-1.8,3.9-3.7,5.7-5.8c0.5-0.6,1.2-1.1,1.7-1.7c0.2-0.2,0.5-0.4,0.4-0.5c-0.6-1.4,0.7-1.8,1.3-2.6
			c0.3-0.4,0.7-0.7,1-1c0.3-0.3,0.6-0.6,1.1-0.2c0.4,0.3,0.6-0.1,0.9-0.3c2.2-2,4.4-4,6.4-6.1c1.9-1.9,3.9-3.7,5.6-5.7
			c1.4-1.7,4.3-1.3,5.8,0c3.1,2.8,6,5.8,9,8.7C246.8,283.9,246.9,284,247.1,284.2z M305.3,483.1c-0.5,0.5-1,1-1.5,1.5
			c-1.8,1.7-1.7,1.6,0.1,3.3c2.7,2.5,5.5,5,8.4,7.4c2.4,2.1,4.9,4.1,7.4,6.1c2.5,2,4.9,4.1,7.3,6.1c2,1.6,3.9,3.3,5.8,4.9
			c3.3,2.7,6.7,5.3,10,8c2.3,1.8,4.5,3.7,6.8,5.6c2.4,2,4.7,3.9,7.1,5.9c1.4,1.2,1.5,1.2,2.8-0.1c2.1-2.1,4.2-4.2,6.3-6.3
			c1.5-1.5,3-3.1,4.6-4.6c1.5-1.5,3.1-3,4.6-4.6c1.5-1.5,3.1-3,4.6-4.5c1.5-1.5,3-3.1,4.6-4.6c1.5-1.4,2.7-3.1,4.4-4.4
			c0.9-0.7,1.6-1.6,2.4-2.4c4-4,7.9-7.9,11.9-11.9c3.3-3.3,6.5-6.5,9.8-9.7c0.4-0.4,0.6-0.9,1-1.1c1.1-0.7,1.8-1.7,2.8-2.5
			c0.3-0.3,0.2-0.5,0-0.8c-0.6-1.1-1.5-1.9-2.2-2.9c-1.4-1.7-2.8-3.4-4.2-5.1c-1.5-1.9-3-3.8-4.5-5.7c-1.2-1.4-2.5-2.7-3.5-4.2
			c-1.4-2-3.1-3.8-4.6-5.7c-1.1-1.4-2.4-2.7-3.4-4.1c-1.3-1.8-2.7-3.4-4.1-5.1c-1.7-2.1-3.5-4-5.2-6.1c-2.3-2.7-4.4-5.6-6.8-8.2
			c-2.2-2.5-4.4-5-6.4-7.6c-0.3-0.4-0.7-0.6-1.2-0.1c-3.1,3.1-6.2,6.3-9.5,9.2c-1.8,1.6-3.2,3.5-4.9,5.2c-3.2,3.1-6.3,6.2-9.5,9.3
			c-6.6,6.5-13.4,12.9-19.9,19.5c-0.7,0.8-1.5,1.5-2.2,2.3c-0.6,0.6-1.3,1.2-1.9,1.8c-1,0.9-2,1.7-3,2.6
			C314.6,473.9,310.2,478.7,305.3,483.1z M188,351.1c-0.3,0.3-0.5,0.5-0.7,0.7c-1,1-1,1,0,2c4.1,4.1,8.1,8.2,12.3,12.3
			c1.9,1.8,3.6,3.7,5.5,5.6c1.2,1.2,2.2,2.6,4,3c1.6,0.4,3.3,0.5,4.6-0.3c1-0.6,1.9-1.5,2.8-2.4c3.7-3.7,7.3-7.3,11-11
			c1.3-1.3,2.5-2.8,4-3.9c1.7-1.3,3.1-2.9,4.7-4.4c1.1-0.9,2.1-2,3.1-3.1c2.1-2.3,4.4-4.4,6.6-6.6c3.6-3.6,7-7.3,10.9-10.6
			c1.5-1.3,2.4-2.9,3-4.6c0.6-1.9,0.4-3.9-1.2-5.5c-1.7-1.7-3.4-3.4-5.1-5.1c-1.8-1.7-3.7-3.3-5.4-5.1c-3.2-3.2-6.4-6.4-9.6-9.6
			c-0.3-0.3-0.5-0.7-0.9-0.5c-0.5,0.2-0.6,0.8-0.8,1.3c1-0.6,1.3-0.7,1.6-0.3c1,1,1,3,0,4.1c-1.2,1.3-2.4,2.6-3.6,3.9
			c-1.3,1.5-2.8,2.9-4.3,4.2c-2.4,2-4.3,4.5-6.6,6.6c-2.5,2.3-4.9,4.8-7.3,7.2c-0.4,0.4-0.7,1.1-1.1,1.4c-1.8,1.2-3.2,2.9-4.7,4.3
			c-4.1,3.8-7.9,7.8-11.8,11.7c-0.2,0.2-0.4,0.4-0.7,0.6c-1.7,1.2-3,2.7-4.5,4.1c-1,1-2,1.6-3.3,1.8
			C189.1,353.2,188.2,352.4,188,351.1z M291.3,467.8c-1.8,1.8-3.6,3.6-5.4,5.4c-0.3,0.3-0.7,0.6-0.2,0.9c1.2,0.9,2.5,1.8,3.7,2.7
			c1.2,0.9,2.4,1.7,3.6,2.6c1.4,1.1,2.9,2.2,4.3,3.3c1.2,0.9,2.5,1.6,3.5,2.5c0.8,0.8,1.2,0.6,1.9-0.1c5.4-5.3,10.5-10.8,16.1-15.9
			c4.9-4.4,9.2-9.5,14.1-13.8c1.8-1.6,3.4-3.5,5.1-5.1c4.9-4.7,9.5-9.6,14.5-14.2c2.6-2.4,5.1-5.1,7.6-7.6c0.8-0.8,1.9-1.5,2.6-2.4
			c1.1-1.3,2.3-2.4,3.5-3.6c1.2-1.2,2.4-2.3,3.6-3.4c0.5-0.4,0.5-0.8,0.2-1.3c-1.1-1.9-2.4-3.6-3.6-5.4c-2.3-3.4-4.5-6.9-6.9-10.3
			c-0.8-1.1-0.8-1.2-1.8-0.1c-5.3,5.4-10.6,10.7-15.9,16.1c-7.2,7.3-14.3,14.6-21.8,21.6c-5.3,4.9-10,10.3-15.3,15.1
			c-2.8,2.5-5.4,5.1-8,7.7C294.9,464.1,293.1,465.9,291.3,467.8z M277.9,410.2c0,0.1-0.1,0.1-0.1,0.2c0.1,0.2,0.3,0.3,0.4,0.5
			c3,3,6,6,9.1,9.1c1.2,1.2,2.3,2.3,3.5,3.5c0.7,0.7,1.8,0.4,2.1-0.6c0.3-0.8,0.7-1.7,1.5-2.2c0.8-0.5,1.5-1.2,2.2-1.9
			c2.1-2,4.1-4.1,6.2-6.2c1.8-1.7,4.3-1.3,5.7,0.8c0.6,1,1.6,1.8,2.5,2.5c0.8,0.6,1.3,1.3,1.5,2.2c0.2,0.7,0.4,0.7,0.8,0.3
			c0.7-0.7,1.4-1.4,2-2c1.6-1.6,3.1-3.2,4.8-4.6c0.1-0.1,0.3-0.2,0.2-0.4c-0.2-0.3-0.4-0.1-0.6,0c-2.8,1-5.6,1.5-8.5,1.3
			c-0.3,0-0.5-0.1-0.8,0.2c-0.8,0.9-1.4,0.4-2-0.2c-1.1-1.1-2.1-2.4-3.5-3.1c-0.8-0.5-1.5-1.2-2.4-1.7c-0.5-0.3-1.1-0.9-1.5-1.5
			c-0.7-1-1.5-1.9-2.6-2.5c-0.3-0.2-0.5-0.4-0.7-0.6c-1.4-1.4-2.7-3-4.2-4.3c-3.7-3.4-7.1-7.2-10.8-10.7c-1-1-1.8-2.1-2.4-3.3
			c-0.6-1.2-1.6-2.2-2.7-2.7c-1.2-0.6-2.2-1.5-3.1-2.4c-0.4-0.4-0.8-0.8-1.2-1.2c-0.5-0.6-0.9-0.4-1.4,0c-1.3,1.3-2.6,2.6-4,3.9
			c-2.1,1.9-4,4-6.1,5.9c-1.6,1.5-3,3.1-4.6,4.6c-0.6,0.6-0.4,0.8,0,1.2c1.1,1.1,2.5,2,3,3.4c0.5,1.2,1.3,2.1,2.2,2.9
			c0.2,0.2,0.4,0.4,0.8,0.4c1.3,0,2.2,0.8,3,1.6c2.2,2.1,4.3,4.3,6.5,6.5c0.6,0.6,1.1,1.5,1.8,1.9c1.5,1,2.3,2.5,3.6,3.6
			c1.2,1,2.2,2.2,3.2,3.4c1.2,1.3,2.5,2.5,3.8,3.8c0.8,0.8,1.7,1.6,2.2,2.7c0.5,1.1,0.9,2.3,2,3.1c0.9,0.7,1.6,1.5,2.4,2.3
			c0.3,0.3,0.6,0.7,0.1,1.1c-0.4,0.3-0.8,0.8-1.4,0.2c-0.5-0.5-1.1-0.9-1.6-1.4c-1.4-1.4-1.4-1.4-2.8,0c-0.1,0.1-0.3,0.3-0.4,0.4
			c-2.8,2.7-5.8,5.3-8.6,8c-4.5,4.4-9,8.6-13.4,13.1c-0.9,0.9-1.8,2-3.1,2.4c-0.4,0.1-0.5,0.3-0.3,0.6c0.8,1,1.7,2,2.6,2.9
			c0.2,0.3,0.6,0.3,0.8,0.1c0.3-0.3-0.1-0.5-0.3-0.6c-0.6-0.7-1.3-1.3-2-2c-0.2-0.2-0.3-0.4-0.1-0.6c0.2-0.2,0.4,0,0.5,0.2
			c0.9,0.9,1.7,1.7,2.6,2.6c0.3,0.3,0.3,0.6,0,1c-0.7,0.7-1.5,0.5-2.4-0.5c-0.9-1-1.8-2-2.7-2.9c-0.2-0.2-0.3-0.4-0.6-0.4
			c-1.1-0.1-1.9-0.9-2.7-1.6c-1.8-1.8-3.7-3.7-5.5-5.5c-2.9-2.9-5.8-5.7-8.5-8.8c-0.5-0.5-1.2-0.7-1.6-1.4c-0.6-1.1-1.6-1.8-2.5-2.7
			c-1-1-2.2-1.8-2.8-3.1c-0.7-1.4-1.6-2.8-2.9-3.3c-1.6-0.6-2.4-1.8-3.5-2.8c-1.6-1.4-2.8-3.2-4.3-4.6c-0.5-0.5-0.7-1.2-0.3-1.8
			c1.2-1.9,2.3-3.9,3.5-5.7c1.6-2.3,3.2-4.6,5.2-6.6c0.2-0.2,0.4-0.3,0.1-0.7c-1.1,1.2-2.2,2.2-3.2,3.4c-2.1,2.6-4,5.4-5.5,8.4
			c-0.3,0.6-0.6,1.4-1.4,1.1c-1-0.4-0.4-1.3-0.1-1.9c1.6-2.9,3.3-5.6,5.2-8.2c1.5-2.2,3.5-4.1,5.3-6.1c0.4-0.4,0.4-0.7,0-1.1
			c-0.9-0.9-1.8-1.8-2.7-2.7c-0.6-0.7-1-0.7-1.6,0c-3.7,3.7-7.4,7.4-11.1,11.2c-1.5,1.5-3,3.2-4.7,4.5c-0.9,0.7-0.6,1,0,1.6
			c2.4,2.4,4.7,4.7,7.1,7.1c2.8,2.8,5.5,5.7,8.3,8.5c6.9,7.1,13.9,14,20.9,21c1.6,1.7,3.3,3.3,4.9,5c1.8,1.8,3.6,3.7,5.5,5.4
			c0.7,0.7,1.5,1.2,2.4,1.7c1.2,0.7,2.5,1,3.7,1.5c2,0.9,4,1.6,6,2.4c0.2,0.1,0.5,0.2,0.7,0c0.2-0.3-0.1-0.4-0.3-0.6
			c-1.1-1.1-2.2-2.2-3.3-3.3c-1-1-1-1,0.1-1.9c0.2-0.1,0.3-0.3,0.4-0.4c4.1-3.8,7.8-8,12-11.8c4.3-4,8.4-8.3,12.5-12.4
			c0.4-0.4,0.6-0.6,0.2-1.2c-0.4-0.6,0.2-1.1,0.7-1.4c0.4-0.3,0.9-0.3,1.1,0.3c0.1,0.3,0.4,0.2,0.6,0c1.1-1.1,2.2-2.2,3.3-3.3
			c0.2-0.2,0.4-0.4,0-0.5c-1.2-0.4-1.9-1.5-2.8-2.4c-1.3-1.5-3.1-2.5-4-4.5c-0.1-0.3-0.5-0.2-0.7-0.1c-0.8,0.3-1.5,0.1-2.1-0.5
			c-5.7-5.7-11.5-11.5-17.2-17.2c-0.6-0.6-0.6-1.2,0-1.9c3.7-3.7,7.4-7.4,11.1-11.1c0.5-0.5,1-0.6,1.6,0c0.6,0.6,1.2,1.2,1.8,1.8
			c4.4,4.4,8.7,8.7,13.1,13.1c0.5,0.5,0.7,1,0,1.7c-0.4,0.4-0.9,0.8-1.3,1.2c-2,2.1-4.1,4.1-6.2,6.2c-0.3,0.3-0.6,0.6-0.9,0.2
			c-0.4-0.5-1-0.8-1.5-1.3c-0.8-1.1-1.9-2-3.2-2.6c-1.4-0.7-2.9-1.2-4.4-1.8C281.4,411.6,279.6,410.9,277.9,410.2z M271.4,408.5
			c-0.9-0.9-1.8-1.8-2.8-2.8c-0.9-0.9-1.8-1.8-2.8-2.7c-1.4-1.4-2.3-1.6-3.7-1c-0.6,0.2-0.6,0.8-0.9,1.1c-2.3,2.3-4.6,4.6-6.9,6.9
			c-1.6,1.5-3.1,3.2-4.8,4.7c-2.4,2.1-4.6,4.4-6.8,6.7c-2.2,2.3-4.7,4.3-6.6,6.8c-0.7,1-0.8,1.9,0.1,2.7c3.2,3,6.1,6.2,9.2,9.2
			c2.6,2.5,5.1,5,7.5,7.7c1.3,1.5,2.7,2.8,4.1,4.2c1.5,1.6,3.3,1.7,4.8,0.1c2.6-2.7,5.5-5.1,8.1-7.8c1.9-1.9,3.8-3.9,5.9-5.7
			c2.4-2,4.4-4.4,6.7-6.4c1.5-1.3,2.8-2.8,4.2-4.2c0.9-0.9,0.9-2.5,0.1-3.3c-0.2-0.2-0.4-0.3-0.5-0.5c-0.9-2-2.7-3.3-4.2-4.8
			c-0.8-0.9-1.9-1.6-2.6-2.6c-1-1.2-2.2-2.1-3.2-3.3C274.9,411.8,273.1,410.2,271.4,408.5z M269.4,349c2.3-2.3,4.7-4.7,7-7
			c0.6-0.6,0.6-1,0-1.6c-3.4-3.4-6.8-6.8-10.2-10.2c-0.6-0.6-1.1-0.7-1.7,0c-1.6,1.7-3.4,3.3-4.9,5.1c-1.5,1.8-3.1,3.3-4.8,4.9
			c-3.6,3.4-6.9,7-10.6,10.3c-1.4,1.2-2.5,2.6-3.7,3.9c-1.7,1.8-3.4,3.5-5.3,5.1c-3,2.6-5.5,5.6-8.5,8.3c-2.4,2.1-4.5,4.5-6.8,6.7
			c-1.7,1.6-3.3,3.4-5.1,4.8c-1,0.8-1,1.4-0.1,2.3c3.4,3.4,6.7,6.7,10.1,10.1c0.5,0.5,0.8,0.6,1.3,0c1.9-1.9,3.9-3.7,5.8-5.6
			c1.6-1.6,3.3-3.2,4.9-4.8c5.9-6,12.1-11.7,17.7-18c1.3-1.4,2.7-2.6,4.1-3.8c1.4-1.3,2.6-2.8,4-4
			C265.1,353.5,267.2,351.2,269.4,349z M304.5,408.3c-0.5-1.7-0.6-3.3-0.5-4.9c0.3-3.6,1-7,2.8-10.2c2.1-3.7,4.9-6.6,8.5-8.8
			c3.2-2,6.7-3.4,10.5-3.8c2.5-0.2,5.1-0.7,7.6,0.6c0.3,0.1,0.5,0.4,0.8,0.1c0.3-0.3,0.2-0.6,0.1-1c-0.3-0.8-0.7-1.6-1.3-2.2
			c-1.5-1.4-3-2.9-4.5-4.3c-2-1.9-3.8-3.9-5.8-5.8c-2.3-2-4.3-4.3-6.5-6.4c-1.4-1.4-2.9-2.8-4.4-4.1c-1.6-1.4-2.7-1.5-4.2-0.3
			c-1,0.9-2,1.8-2.9,2.7c-3.8,3.8-7.5,7.6-11.3,11.3c-3.9,3.9-7.9,7.8-11.8,11.7c-0.7,0.7-0.9,2-0.3,2.7c0.7,0.9,1.5,1.8,2.3,2.6
			c0.9,0.9,2,1.8,2.9,2.7c3.8,3.8,7.6,7.6,11.3,11.5C299.9,404.5,301.8,406.7,304.5,408.3z M354,388.9c0.1-0.2,0-0.4,0-0.6
			c-0.6-1.6-1-3.2-1.7-4.8c-0.7-1.5-1.1-3.1-1.8-4.5c-1.2-2.4-2.9-4.4-4.8-6.3c-1.9-1.9-3.7-3.8-5.6-5.7c-2.8-2.7-5.5-5.6-8.2-8.4
			c-9.9-10.1-19.9-20-29.9-30c-0.9-0.9-1.1-0.9-2,0c-3,3-6.1,6.1-9.2,9c-2.6,2.4-5.1,5-7.6,7.5c-0.4,0.4-0.8,0.7-0.1,1.1
			c1.4,0.9,2.5,2.2,3.6,3.4c0.5,0.5,0.9,0.5,1.5,0.1c2.9-2,5.9-3.9,9.2-5.3c1.3-0.5,2,0,2.1,1.3c0.7-0.3,1.4-0.2,1.9,0.3
			c1.6,1.6,3.3,3.2,4.9,4.9c0.1,0.1,0.2,0.3,0.3,0.5c0.7,2.3,2.4,3.6,4.4,4.7c0.3,0.2,0.7,0.1,1,0.5c0.8,1.1,1.9,1.8,2.9,2.7
			c4.1,3.9,8,8.1,12.2,11.9c1.4,1.3,2.9,2.6,4,4.2c0.4,0.5,0.8,1.1,1.4,1.4c1.3,0.7,2.2,1.9,2.5,3.3c0.3,1,0.8,1.5,1.4,2.1
			c0.4,0.4,0.7,0.8,1.1,1.1c0.8,0.6,0.8,1.2,0.2,1.9c-0.2,0.3-0.2,0.5-0.2,0.8c0.2,1.5,0.5,3,0,4.5c-0.4,1.4-0.7,2.9-1.3,4.3
			c-0.1,0.2-0.5,0.5-0.1,0.8c0.3,0.2,0.6-0.1,0.8-0.4c0.1-0.1,0.3-0.3,0.4-0.4c3.5-3.5,7-7,10.5-10.5c0.5-0.5,0.8-0.6,1.3,0
			c1.3,1.4,2.7,2.7,4.1,4.1C353.4,388.5,353.5,388.9,354,388.9z M351,528.3c0.1,0,0.1-0.1,0.2-0.1c-0.1-0.1-0.2-0.3-0.3-0.4
			c-1.3-1.4-2.9-2.4-4.3-3.6c-0.7-0.6-1.3-1.3-2-1.9c-2.3-1.6-4.4-3.5-6.7-5.2c-1.9-1.5-3.6-3.1-5.4-4.6c-2.3-1.9-4.8-3.7-7.1-5.7
			c-2.1-1.8-4.3-3.4-6.3-5.2c-2.3-2-4.8-3.8-7-5.8c-0.4-0.4-0.9-0.8-1.6-0.1c-3.2,3.2-6.2,6.5-9.7,9.4c-0.6,0.5-0.5,0.9,0,1.5
			c5.3,5.3,10.6,10.5,15.7,15.9c3.6,3.7,7.3,7.3,11,11c0.5,0.5,0.7,1.1,1.2,1.5c1.3,0.9,2.6,1.7,4.1,2.4c4.9,2.3,9.9,2.3,14.9,0.2
			c0.4-0.2,0.9-0.4,0.4-1.1c0.3,0.3,0.5,0.6,0.9,0.3c1.7-1,3.2-2.3,4.7-3.6c0.2-0.2,0.5-0.4,0-0.7c-1.5-0.9-2.6-2.2-4.1-3.1
			c-0.5-0.3-0.9-0.7-1.1-1.3c-0.1-0.4,0-0.7,0.2-0.9c0.2-0.2,0.6-0.2,0.9,0.1C350,527.7,350.5,528,351,528.3z M270.3,373.6
			c-0.5,0.2-1.1,0.6-1.5,0c-0.3-0.5-0.6-1.1-0.2-1.9c1.1-2.1,2.4-4,3.6-6c1.8-2.8,4.1-5.3,6.3-7.8c2-2.2,4.3-4.2,6.7-5.9
			c1.7-1.2,1.7-1.3,0.3-2.8c0,0-0.1-0.1-0.1-0.1c-1-0.9-2-1.9-3-2.9c-0.8-0.7-1.5-1.6-2.3-2.5c-0.3-0.3-0.5-0.5-0.9-0.1
			c-2,2-4,3.9-5.9,6c-0.6,0.7-1.2,1.5-1.9,2c-1.6,1.3-2.7,3-4.3,4.2c-1.6,1.3-3,2.9-4.4,4.5c-2.1,2.4-4.5,4.6-6.8,6.8
			c-5,4.9-9.8,10.1-15,14.7c-1.5,1.4-2.9,2.9-4.4,4.2c-2.8,2.5-5.3,5.2-7.9,7.9c-0.4,0.4-0.4,0.7,0,1.1c1.8,1.8,3.6,3.6,5.4,5.4
			c0.3,0.3,0.6,0.4,0.9,0c0.8-1,2-1.7,2.9-2.6c1.1-1.1,2.4-2,3.6-3c2-1.5,4.2-2.8,6.3-4.1c1.1-0.7,2.3-1.4,3.8-1.3
			c0.4,0,0.9,0.1,1.1,0.6c0.1,0.5-0.2,0.8-0.6,1c-0.8,0.4-1.5,0.9-2.3,1.3c0.4,0,0.7-0.1,1-0.3c0.8-0.4,1.5-0.9,2.3-1.1
			c1.2-0.3,2.1,0.3,2.8,1.2c0.5,0.6,0.9,0.6,1.5,0c2.9-3,5.8-5.9,8.9-8.7c2-1.8,3.8-3.8,5.7-5.6c0.6-0.6,0.4-1,0-1.5
			c-0.2-0.3-0.5-0.3-0.8-0.5C270,375.5,269.7,374.5,270.3,373.6z M287.7,314.4c-4-4-7.9-7.9-11.9-11.9c-0.6-0.6-1-0.6-1.6,0
			c-1.3,1.3-2.6,2.6-3.9,3.9c-2.4,2.4-4.8,4.8-7.3,7.1c-2,1.7-3.7,3.7-5.6,5.5c-0.7,0.6-0.4,1,0,1.5c0.8,0.8,1.7,1.6,2.5,2.4
			c7.1,7.1,14.1,14.1,21.2,21.2c0.6,0.7,1.1,0.8,1.8,0c1.2-1.4,2.7-2.6,4-3.9c1.6-1.5,3.2-3.1,4.8-4.6c2.6-2.6,5.2-5.2,7.9-7.8
			c0.6-0.6,0.7-1,0-1.6C295.6,322.3,291.7,318.4,287.7,314.4z M411,466.4c0.1-0.2,0.1-0.3,0.1-0.4c0.1-0.4-0.1-0.8,0.3-1
			c0.5-0.2,0.7,0.3,1,0.5c0.9,0.7,1.6,1.7,2.2,2.6c0.5,0.7,1.4,1.1,1.5,2c0.1,1.1,0.5,0.6,0.9,0.2c1-0.8,1.7-1.9,2.5-2.8
			c1.3-1.5,2.1-3.2,2.7-5c0.8-2.5,1.3-5,1.1-7.6c-0.2-2.3-0.6-4.5-1.7-6.6c-1.6-2.9-3.8-5.4-6.1-7.8c-4.8-5.1-9.9-10-14.9-15
			c-1.3-1.3-2.5-2.6-3.8-4c-1.4-1.5-2.8-3-4.4-4.3c-1.3-1-1.2-1.1-2.3,0c-1.7,1.7-3.3,3.6-5.2,5.1c-1.9,1.6-3.5,3.4-5.2,5
			c-0.3,0.3-0.4,0.5-0.1,0.9c0.9,1.1,1.8,2.2,2.7,3.3c1.1,1.3,2.2,2.6,3.4,3.9c1.9,2.3,3.7,4.5,5.6,6.8c1,1.2,2,2.4,3,3.7
			c1.1,1.3,2,2.7,3.2,4c0.8,0.8,1.4,0.8,2.2,0c1.1-1.1,2.3-2.3,3.4-3.4c0.8-0.8,1.7-0.9,2.7-0.3c0.7,0.4,1.3,0.8,2.1,0.2
			c0.7-0.5,1.5-0.4,2.4-0.5c1.1-0.1,2,0.5,3,0.6c0.7,0,1,0.3,0.8,1.1c-0.2,0.7-0.1,1.2,0.4,1.8c1.2,1.3,1.2,1.8-0.1,3
			c-1.2,1.2-2.4,2.4-3.6,3.6c-0.5,0.5-1,0.6-1.6,0.3c-0.6-0.3-1.3-0.5-1.7-1.1c-0.2-0.2-0.4-0.3-0.7-0.2c-0.8,0.3-1.3,0-1.2-0.9
			c0-0.5-0.1-0.9-0.2-1.4c-0.4-1.5-0.5-2.9,0.3-4.3c0.2-0.3,0.4-0.6,0-0.9c-0.3-0.3-0.7-0.3-1.1-0.1c-0.2,0.1-0.4,0.3-0.5,0.5
			c-1.3,1.3-2.5,2.5-3.9,3.6c-0.5,0.4-0.4,0.8,0,1.3c1.2,1.4,2.2,2.8,3.4,4.2c1,1.2,2,2.5,3,3.7c0.8,0.9,1.5,1.8,2.2,2.7
			C409.3,464.6,410.1,465.5,411,466.4z M216.8,384.4c-4-4-8-7.9-11.9-11.9c-0.5-0.5-0.8-0.6-1.3,0c-3.3,3.3-6.6,6.6-9.9,9.9
			c-2,2-4,4-6,6c-0.4,0.4-0.4,0.7,0,1.1c2.5,2.2,4.5,4.8,6.9,7.2c0.3,0.3,0.7,0.4,0.9,0.6c1,1.5,2.7,2.3,3.6,3.8
			c0.1,0.1,0.2,0.3,0.4,0.4c0.9,0.6,1.6,1.4,2.3,2.2c3.1,3.4,6.6,6.6,9.8,9.9c0.4,0.4,0.7,0.3,1,0c1.5-1.5,3.1-2.9,4.6-4.4
			c3.9-3.8,7.7-7.7,11.6-11.5c0.5-0.5,0.7-0.9,0-1.5C224.6,392.3,220.7,388.3,216.8,384.4z M377.6,514.5
			C377.6,514.6,377.6,514.6,377.6,514.5c-2.8,2.8-5.6,5.6-8.4,8.4c-0.3,0.3-0.9,0.5-0.6,0.9c0.3,0.5,0.7,1.2,1.3,1.2
			c0.7,0,1,0.4,1.4,0.7c0.6,0.6,1.2,1.1,1.7,1.7c1.1,1.4,2.6,2,4.3,2.5c1.5,0.4,3,0.8,4.3,1.6c1,0.7,1.4,0.3,2-0.3
			c1.2-1.3,2.3-2.5,3.5-3.7c1-1.1,2.2-2,3.3-3.1c1.2-1,2.1-2.3,3.2-3.4c1-1,2.4-1.8,3.2-3c1.4-2.1,3.4-3.6,5.2-5.3
			c1.5-1.4,3-2.9,4.4-4.4c1.5-1.6,3-3.1,4.5-4.6c1.3-1.4,3.1-2.3,4-4c0.2-0.3,0.5-0.5,0.1-0.8c-1.1-0.8-1.1-2.1-1.3-3.2
			c-0.6-3-1.5-5.7-4.2-7.5c-0.4-0.3-0.7-0.7-0.7-1.3c-0.1-0.8-0.8-1.2-1.4-1.5c-0.5-0.3-0.7,0.5-1,0.6c-0.6,0.3-0.9,0.8-1.2,1.3
			c-1.1,1.3-2.7,2.2-3.8,3.5c-1.8,1.9-3.6,3.8-5.5,5.6c-2.8,2.7-5.4,5.6-8.4,8.1c-0.9,0.8-1.5,1.8-2.4,2.7
			C382.5,509.6,380,512.1,377.6,514.5z M342.5,416.2c5.4-5.4,10.9-10.8,16.3-16.3c0.8-0.8,1.8-0.9,2.7-0.6c0.9,0.3,1.7,0.9,1.9,2
			c0.7,3,1.7,6,2.7,8.9c0.1,0.3,0.2,0.6,0.5,0.6c0.3-0.1,0.2-0.4,0.2-0.7c0.1-1.5-0.5-2.8-0.9-4.2c-0.6-2.2-1.3-4.4-1.9-6.7
			c-0.1-0.6-0.4-0.9-0.9-1.1c-1-0.4-1.9-1-2.7-1.8c-3.1-3.2-6.2-6.3-9.4-9.4c-1.4-1.4-1.4-1.4-2.8,0c-0.6,0.6-0.6,1,0,1.5
			c2.3,2.2,4.6,4.5,6.8,6.8c0.7,0.7,0.7,1.3-0.2,1.8c-0.4,0.2-0.7,0.5-1,0.8c-5.6,5.7-11.3,11.2-16.8,17c-3.2,3.4-6.5,6.8-10.1,9.9
			c-1.9,1.7-3.6,3.6-5.4,5.4c-5.5,5.5-11.1,11.1-16.6,16.6c-0.2,0.2-0.4,0.5-0.7,0.6c-1.4,0.8-2.4,2.2-3.7,3.2
			c-1.9,1.6-3.5,3.6-5.3,5.3c-3.3,3.2-6.4,6.4-9.8,9.5c-1.6,1.4-3,3-4.5,4.5c-0.5,0.5-0.8,0.6-1.4,0.1c-2.4-2.2-4.6-4.6-6.9-6.8
			c-0.3-0.3-0.5-0.9-0.9-0.6c-0.6,0.3-1.1,0.7-1.4,1.4c-0.1,0.2,0,0.3,0.1,0.5c0.2,0.2,0.3,0.3,0.5,0.5c3.8,3.7,7.4,7.5,11,11.3
			c0.4,0.4,0.7,0.9,0.8,1.5c0.1,0.8,0.6,1.2,1.1,1.5c1.5,0.8,3.1,1.3,4.6,2.2c1.5,0.8,3.3,0.4,4.6,1.5c0.1,0.1,0.4,0,0.6,0
			c0.3-0.1,0.8,0,0.8-0.4c0-0.3-0.4-0.4-0.7-0.5c-0.9-0.4-1.9-0.7-2.7-1.2c-1.6-0.9-3.3-1.7-5-2.3c-2.3-0.9-3-3.7-1.2-5.4
			c2.2-2.2,4.4-4.5,6.8-6.5c1.6-1.4,2.9-3,4.3-4.5c1.6-1.7,3.4-3.2,5.1-4.9c5.3-5.4,10.7-10.6,16-16c2.2-2.2,4.6-4.3,6.7-6.6
			c0.8-0.9,1.8-1.6,2.7-2.5C331.9,426.8,337.2,421.5,342.5,416.2z M310.8,423.6c0,0.5,0.3,0.8,0.6,1.1c2,1.9,3.9,3.9,5.9,5.9
			c0.3,0.4,0.5,0.4,0.9,0c3.3-3.1,6.4-6.4,9.8-9.5c2.2-2,4.2-4.1,6.2-6.3c1.2-1.4,2.7-2.6,4.1-3.9c3-2.9,5.9-5.9,8.9-8.8
			c0.3-0.3,0.5-0.8,0.9-1.1c1.5-1.1,2.7-2.5,4-3.9c0.3-0.3,0.7-0.8,0.2-1.3c-1.9-1.9-3.5-4.1-5.6-5.9c-0.4-0.3-0.6-0.3-1.1,0
			c-1.1,0.8-2,1.8-2.9,2.7c-4.1,4-8.1,8-12.1,12c-0.2,0.2-0.5,0.3-0.3,0.8c3.4-1.4,6.7-2.8,10.1-4.2c1.7-0.7,3.5-1.5,5.2-2.2
			c0.4-0.2,0.8-0.2,1,0.3c0.2,0.5-0.1,0.8-0.5,1.1c-0.4,0.2-0.9,0.3-1.3,0.5c-3,1.3-6,2.5-9,3.8c-2,0.9-4,1.9-5.9,3
			c-0.8,0.5-1.6,1.1-2.6,0.7c-0.3-0.1-0.4,0-0.6,0.2c-0.5,0.5-1.1,0.9-1.6,1.3c-3.7,3.7-7.3,7.3-11,11c-0.2,0.2-0.4,0.6-0.9,0.5
			c0.1-1.1,1.4-1.3,1.8-2.1c1-1.8,2.7-2.8,4-4.2c1.5-1.5,3-2.9,4.5-4.4c8.1-8,16.1-16.2,24.4-24.1c0.3-0.3,0.7-0.6,0.9-1.1
			c0.1-0.2,0.4-0.4,0.1-0.6c-0.2-0.1-0.5-0.4-0.8-0.1c-0.2,0.2-0.4,0.4-0.6,0.6c-4.8,4.8-9.5,9.6-14.3,14.3
			c-3.6,3.6-7.1,7.3-10.9,10.7c-1.1,1-2.1,2.2-3.2,3.2c-1.7,1.5-3.3,3.2-4.9,4.8c-1.1,1.1-2.1,2.2-3.3,3.3c-1.1,1-2,2.1-3.1,3.1
			c-4.4,4.2-8.5,8.6-13,12.8c-4,3.7-7.7,7.8-11.8,11.4c-1.7,1.5-3.2,3.3-4.9,4.9c-1.9,1.9-3.8,3.8-5.8,5.6c-1,0.9-1.8,2-2.8,3
			c-0.3,0.3-0.6,0.5-0.2,0.9c0.4,0.4,0.7,0,0.9-0.2c2.2-2.2,4.4-4.3,6.7-6.5c6.3-5.9,12.2-12.4,18.6-18.3c3.1-2.9,6-6,9-9
			C306.6,427.5,308.5,425.4,310.8,423.6z M206.2,318.4c2.1-2.1,4.1-4.1,6.2-6.2c0.3-0.3,0.7-0.7,0.2-1.1c-1-0.8-1.5-2.1-2.6-2.9
			c-0.8-0.6-1.5-1.2-2.1-1.9c-0.5-0.6-0.8-0.5-1.3,0c-2.3,2.5-4.9,4.8-7.3,7.3c-1.8,1.9-3.8,3.8-5.8,5.6c-1.3,1.2-2.5,2.4-3.7,3.7
			c-1.2,1.2-2.4,2.5-3.7,3.7c-1.2,1.1-2.2,2.4-3.5,3.5c-3.6,3.3-7,6.7-10.5,10.1c-2.4,2.4-4.8,4.9-7.3,7.2c-1.7,1.5-3.2,3.1-4.8,4.7
			c-0.2,0.2-0.6,0.5-0.3,0.8c0.8,0.8,1.6,1.6,2.4,2.4c0.2,0.2,0.6-0.2,0.7,0.3c0.4,1.2,1.4,1.8,2.3,2.6c0.5,0.4,0.8,0.2,1.2-0.2
			c5.7-5.5,11.1-11.4,16.9-16.7c1.6-1.5,3-3.3,4.6-4.8c1.7-1.5,3.2-3.1,4.9-4.7c1.4-1.3,2.7-2.7,3.9-4.2c1-1.2,2.3-2.2,3.5-3.2
			C202.3,322.4,204.2,320.4,206.2,318.4z M213.1,420.6c0-0.5-0.3-0.7-0.6-1c-1-1-2.3-1.9-2.3-3.6c0-0.2-0.2-0.3-0.3-0.5
			c-2.7-2.8-5.4-5.6-8.1-8.4c-9.5-9.7-19.2-19.3-28.9-28.9c-0.2-0.2-0.5-0.5-0.8-0.7c-2.4-1.7-4.5-3.5-4.5-6.8
			c0-1.6,0.3-3.2,1.3-4.6c0.8-1.1,1.8-1.8,2.7-2.7c4.3-4.2,8.5-8.5,12.8-12.8c1.4-1.4,3.1-2.6,4.4-4.2c1.4-1.7,3-3.1,4.5-4.6
			c1.3-1.3,2.6-2.8,4.1-4c1.3-1,2.2-2.4,3.4-3.6c1.5-1.6,3.2-3.2,4.9-4.7c1.9-1.7,3.6-3.6,5.4-5.4c5.5-5.3,10.8-10.8,16.4-16.1
			c7.6-7.3,14.9-14.8,22.3-22.2c0.9-0.9,1.6-1.8,2.6-2.4c2.6-1.7,5.1-1.3,7.6,0c1.4,0.7,2.4,1.8,3.5,2.9c2,1.9,3.9,3.9,5.9,5.8
			c10.6,10.6,21.3,21.2,31.9,31.9c0.7,0.7,1.5,0.9,2.4,0.9c0.2,0,0.4,0.1,0.4-0.1c0.1-0.2,0-0.3-0.2-0.4c-0.2-0.2-0.4-0.4-0.6-0.6
			c-13.6-13.6-27.3-27.2-40.9-40.9c-3.5-3.5-9.3-3.4-12.8,0c-5.7,5.7-11.5,11.4-17.1,17.2c-1.3,1.4-2.8,2.7-4.2,4
			c-4.3,4.1-8.4,8.3-12.6,12.5c-1.3,1.3-2.8,2.6-4.2,3.9c-6.6,6.6-13.2,13.2-19.8,19.8c-0.1,0.1-0.3,0.4-0.4,0.4
			c-1.3,0.4-1.7,1.8-2.7,2.5c-1.3,1-2.4,2.3-3.6,3.5c-5.3,5.5-10.9,10.6-16,16.3c-1.8,2-2.9,4.1-2.7,6.7c0,0.4-0.5,1.2,0.6,1.2
			c0.2,0,0.1,0.3-0.1,0.4c-0.2,0.1-0.3,0.2-0.2,0.5c0.3,0.8,0.4,1.6,0.9,2.4c1,1.5,2.3,2.7,3.5,4c10.6,10.7,21.2,21.3,31.8,31.9
			c2.1,2.1,4.3,4,6.2,6.2c0.5,0.6,1.2,0.9,1.6,1.5C211.3,419,212.2,419.8,213.1,420.6z M249.4,309.2c1.9,1.9,3.6,3.7,5.5,5.2
			c0.5,0.4,1,0.6,1.6,0.3c0.7-0.2,1.3-0.6,1.8-1.1c2.4-2.3,4.7-4.7,7.1-6.9c1.5-1.4,3.2-2.7,4.4-4.5c0.4-0.7,0.6-1.2,0.5-2
			c-0.1-1-1-1.5-1.6-2.1c-3.8-3.8-7.5-7.8-11.3-11.6c-0.3-0.3-0.5-0.6-0.9-0.6c-1.6,0.2-3.2,0.5-4.5,1.7c-1.4,1.4-2.8,2.8-4.2,4.2
			c-2.3,2.2-4.3,4.6-6.8,6.6c-1.1,0.9-1,1.2,0,2.2c1.5,1.4,2.9,2.8,4.3,4.2C246.7,306.4,248.2,307.8,249.4,309.2z M293.5,441.5
			c0.5,0,1,0.1,1.4-0.1c2.6-0.9,5.2-1.9,7.8-2.9c1.1-0.4,2.2-0.8,3.4-1.2c0.4-0.1,0.8,0,1,0.4c0.1,0.3,0.1,0.5-0.3,0.6
			c-2,0.7-4,1.8-6,2.4c-3.1,0.9-5.9,2.3-8.7,3.8c-0.6,0.3-1.1,0.7-1.8,0.2c-0.3-0.2-0.6,0.1-0.8,0.3c-2,2.2-4.4,3.9-6.4,6.1
			c-1.2,1.3-2.4,2.6-3.7,3.8c-1.9,1.8-3.6,3.7-5.6,5.4c-0.5,0.5-0.4,0.8,0,1.2c1.3,1.3,2.6,2.6,3.9,3.8c0.7,0.7,1.3,1.4,2.1,1.9
			c0.5,0.3,0.7,0.3,1-0.1c1.3-1.3,2.6-2.5,3.9-3.7c4-3.8,7.7-7.8,11.8-11.5c1.5-1.3,2.8-2.9,4.2-4.3c2.4-2.3,4.8-4.7,7-7.1
			c1.5-1.7,3.2-3.3,4.8-4.8c0.9-0.8,1.3-2,2.5-2.4c0.4-0.1,0.2-0.6-0.1-0.9c-2-2-4-4-6-6c-0.3-0.3-0.6-0.4-0.9-0.1
			c-1.2,1.4-2.8,2.4-4,3.7c-0.9,1.1-1.9,2.2-3,3.1c-2.6,2.4-5,5-7.6,7.5C293.6,441,293.5,441.1,293.5,441.5z M180.5,378.9
			C180.5,378.9,180.5,378.9,180.5,378.9c1.6,1.6,3.2,3.2,4.8,4.9c0.5,0.5,1.1,0.7,1.7,0.3c1-0.6,2.1-1.2,2.9-2.1
			c1.4-1.6,2.9-3.1,4.4-4.6c1.5-1.6,3.1-3.1,4.6-4.6c0.5-0.5,0.7-1.1,0.6-1.7c-0.1-1.1-0.7-2-1.4-2.7c-1.2-1.1-2.3-2.4-3.5-3.6
			c-3.2-3.2-6.4-6.4-9.6-9.7c-0.4-0.4-0.6-0.3-1,0c-1.6,1.2-2.9,2.7-4.3,4c-2.2,2.2-4.3,4.6-6.7,6.6c-1.3,1.1-2,2.3-2.1,3.9
			c0,0.2,0,0.6,0.1,0.6c1.4-0.4,1.5,1,2.1,1.5C175.7,374,178.1,376.5,180.5,378.9z M397.2,518.2
			C397.2,518.2,397.2,518.2,397.2,518.2c-9.9,9.9-19.8,19.9-29.8,29.7c-1.7,1.6-1.5,3.5-1.9,5.4c-0.1,0.3,0.1,0.6,0.5,0.4
			c1.1-0.4,2.1-0.7,3-1.6c1-1.1,2.1-2.1,3.1-3.1c1.5-1.4,3.1-2.7,4.5-4.2c3.8-3.9,7.6-7.7,11.4-11.5c5.8-5.6,11.2-11.5,17.2-16.9
			c1.4-1.3,2.7-2.7,4.1-4.1c5-5,10.1-10.1,15.1-15.1c2.5-2.5,5-5.1,7.6-7.5c1.3-1.3,2.3-2.7,3-4.4c0.3-0.7,0-0.9-0.7-0.9
			c-1,0-2,0.1-2.9,0.3c-0.4,0.1-1-0.1-1.2,0.4c-0.6,1.3-2,1.9-2.9,2.9C417.2,498.1,407.2,508.1,397.2,518.2z M257.9,395.6
			c-0.4-0.4-0.8-0.8-1.2-1.2c-0.5-0.5-0.9-1.3-1.5-0.1c-0.1,0.3-0.5,0.4-0.7,0.5c-1.2,0.6-2.5,1.2-3.7,1.9c-1.7,1-3.3,2.2-5,3.4
			c-2.9,2.1-5.5,4.6-8.1,7.1c-1.5,1.4-2.7,3-4,4.6c-0.9,1.1-1.7,2.2-2.5,3.3c-1.4,2-2.3,4.3-4.1,6c-0.3,0.3,0,0.5,0.1,0.7
			c1.1,1.7,2.7,2.9,4.1,4.3c0.7,0.7,1.6,0.6,2.1-0.3c1.2-2.1,2.5-4.1,3.8-6c1.8-2.6,3.6-5.1,5.8-7.4c2-2.1,4.1-4,6.4-5.9
			c1.5-1.2,3.1-2.4,4.7-3.5c1.6-1.1,3.4-1.9,5-2.9c1.3-0.8,1.6-1.8,0.5-2.9C259,396.7,258.5,396.1,257.9,395.6z M276.3,377.4
			C276.3,377.4,276.3,377.4,276.3,377.4c0.6,0.6,1.3,1.3,1.9,1.9c0.2,0.2,0.3,0.4,0.1,0.5c-0.2,0.2-0.4,0.1-0.5-0.1
			c-0.1-0.1-0.2-0.3-0.4-0.4c-1-1-2-2-3-3.1c-0.6-0.6-1,0.1-1.4,0.2c-0.3,0.1-0.2,0.4,0,0.7c1.2,1.2,2.3,2.4,3.6,3.6
			c0.8,0.7,2.4,0.5,2.9-0.4c1.4-2.4,2.8-4.8,4.4-7c2-2.8,4.1-5.4,6.5-7.9c2.2-2.2,4.6-4.1,7.1-6c2.5-1.8,5-3.6,7.7-5.1
			c1.1-0.7,1.3-1.4,0.6-2.5c-0.7-1.2-1.7-2.2-2.7-3.1c-0.6-0.5-1-0.7-1.5,0c-0.2,0.3-0.6,0.5-0.9,0.6c-5.1,2.2-9.4,5.6-13.4,9.4
			c-2.5,2.4-4.9,4.9-7.1,7.6c-2.1,2.5-3.8,5.2-5.5,7.9c-0.4,0.6-0.5,1.2,0.2,1.8C275.4,376.4,275.9,376.9,276.3,377.4z M385.8,420.9
			c1.5-1.5,2.9-2.9,4.4-4.3c0.7-0.6,0.7-1,0-1.6c-2.9-2.8-5.7-5.7-8.6-8.5c-0.9-0.9-1.9-1.7-2.8-2.5c-0.2-0.2-0.5-0.4-0.8-0.1
			c-0.5,0.6-1.2,0.9-1.7,1.4c-1.7,1.8-3.4,3.4-5.1,5.2c-1.2,1.2-1,2.1,0.5,2.8c0.2,0.1,0.5,0.2,0.7,0.2c0.3,0.1,0.8,0.2,0.7,0.7
			c-0.1,0.5-0.4,0.7-0.9,0.6c-0.9-0.2-0.8,0.4-0.5,0.9c0.2,0.4,0.1,0.6-0.1,0.9c-0.2,0.2-0.5,0.3-0.7,0c-0.2-0.2-0.5-0.3-0.6,0
			c-0.1,0.2,0,0.5,0.1,0.7c0.5,0.8,1,1.5,1.6,2.2c0.9,1.2,1.9,2.4,2.9,3.5c1.3,1.5,2.5,3,3.9,4.4c0.2,0.2,0.6,0.4,0.8,0.1
			c0.4-1.1,1.5-1.4,2.2-2.2C383,423.6,384.4,422.3,385.8,420.9z M276.4,471.6c-1-1.4-2.2-2.3-3.9-2.9c-2.6-0.8-5-2-7.5-2.9
			c-2.1-0.8-4.2-1.6-5.8-3.2c-1.8-1.8-3.6-3.5-5.3-5.3c-1.2-1.2-2.3-2.5-3.5-3.8c-9.8-10-19.9-19.5-29.4-29.7
			c-2-2.1-4.2-4.1-6.2-6.1c-14.1-14.3-28.3-28.4-42.5-42.6c-1.5-1.5-1.9-3.4-1.9-5.5c0.1-1.7,0.9-3,2.1-4.2c2-1.8,3.8-3.8,5.7-5.7
			c2.8-2.7,5.5-5.5,8.4-8.1c0.2-0.2,0.6-0.4,0.5-0.7c-0.2-0.6,0.3-0.9,0.6-1.2c1.7-1.8,3.5-3.5,5.2-5.2c0.5-0.5,1.1-1.1,0.9-2.1
			c-2.1,2.1-4.1,4.1-6.1,6.1c-3.1,3.1-6.2,6.2-9.3,9.3c-2.3,2.3-4.7,4.7-7.1,7c-1.4,1.3-2.6,2.6-3.1,4.6c-0.4,2.2,0.2,3.9,1.5,5.5
			c0.8,0.9,1.8,1.5,2.7,2.4c8.7,8.7,17.4,17.4,26.1,26.2c0.9,0.9,1.7,1.8,2.5,2.7c2.9,3.2,6.1,6.1,9,9.2c1.7,1.8,3.6,3.4,5.3,5.3
			c1.1,1.2,2,2.5,3.8,2.8c0.3,0,0.6,0.2,0.8,0.5c0.5,0.7,1.2,1.1,1.8,1.7c0.4,0.5,1.1,0.8,0.5,1.6c-0.2,0.2,0.1,0.4,0.3,0.6
			c3,3.2,6.2,6.2,9.2,9.3c1.4,1.5,3,2.9,4.4,4.4c1.6,1.7,3.3,3.4,4.9,5.1c5.1,5.3,10.3,10.5,15.6,15.5c1.5,1.4,3,2.9,5,3.8
			C266.5,467.9,271.4,469.8,276.4,471.6z M293.6,499.3c1.8,1.8,3.6,3.6,5.4,5.4c0.6,0.6,1.2,0.6,1.6-0.1c0.9-1.5,2.4-2.6,3.6-3.8
			c1.9-1.9,3.8-3.7,5.7-5.5c0.5-0.5,0.4-0.8,0-1.2c-0.6-0.7-1.6-1.1-2.2-1.8c-2-2.4-4.7-3.9-6.7-6.2c-0.3-0.3-0.7-0.5-0.9-0.3
			c-0.5,0.7-0.8,1.5-1.8,1.4c0,0,0,0.3-0.1,0.5c-0.2,0.6-1.2,0.8-1.3,0.3c-0.2-0.8-1.1-1-1.4-1.6c-0.4-0.7-0.6-0.5-1-0.1
			c-2.1,2.1-4.2,4.2-6.3,6.3c-0.5,0.5-0.5,0.9,0,1.3C290,495.7,291.8,497.5,293.6,499.3z M257.2,336.4
			C257.3,336.4,257.3,336.4,257.2,336.4c2.4-2.3,4.7-4.6,7-6.9c0.5-0.5,0.5-0.8,0-1.3c-1-0.9-1.8-1.8-2.8-2.7
			c-0.2-0.2-0.3-0.6-0.7-0.4c-0.2,0.2-0.1,0.5-0.1,0.8c0.1,2-0.5,3.9-1.9,5.4c-3.4,3.5-6.9,6.9-10.3,10.3c-1.7,1.7-3.4,3.2-5.1,4.8
			c-2.7,2.5-5.2,5.2-7.8,7.8c-2.2,2.1-4.3,4.4-6.6,6.4c-1.5,1.3-2.7,2.8-4.1,4.2c-3.1,2.9-6,6.1-9.2,8.9c-0.4,0.3-0.7,0.7-1,1.1
			c-0.3,0.4-0.8,0.7-1.4,0.8c-1.1,0.2-2.2,0.2-3.3,0.1c-0.2,0-0.5-0.2-0.6,0.1c-0.2,0.3,0.1,0.4,0.3,0.6c1,1,2,1.9,3,3
			c0.7,0.8,1.2,0.7,1.9,0c0.7-0.7,1.3-1.6,2.1-2.2c1.7-1.5,3.3-3.2,5-4.8c4.6-4.4,8.9-9.1,13.6-13.3c1.9-1.7,3.6-3.5,5.3-5.3
			c3.6-3.7,7.3-7.1,10.7-11C253,340.4,255.2,338.5,257.2,336.4z M293.8,319.7c3.1,3.1,6.2,6.2,9.3,9.3c8.4,8.5,17,16.9,25.4,25.4
			c2,2,3.9,4.2,5.9,6.1c0.6,0.6,1.4,1.1,2,1.7c3.6,3.6,7.3,7.3,10.7,11.1c1.4,1.6,2.7,3.2,3.7,5c1.6,2.8,2.6,5.9,3.6,9
			c0.3,0.8,0.8,1.6,0.9,2.4c0.1,0.7,0.4,1.1,0.8,1.5c0.2,0.2,0.4,0.4,0.7,0.2c0.2-0.2,0.2-0.4,0.1-0.7c-0.9-2.1-1.5-4.4-2.4-6.5
			c-1-2.3-1.8-4.6-2.8-6.8c-0.3-0.8-0.5-1.6-1.1-2.2c-2.6-2.6-5.1-5.3-7.7-7.9c-6.4-6.7-13.1-13.1-19.6-19.8c-1.5-1.5-3.1-3-4.5-4.6
			c-1.6-1.8-3.3-3.5-5.2-5.1c-0.4-0.4-1-0.3-1.4-0.8c-0.9-1-1.9-1.9-2.8-2.9c-0.2-0.2-0.5-0.3-0.5-0.6c0.1-0.7-0.4-1.1-0.9-1.5
			c-5.7-5.7-11.4-11.4-17.1-17.1c-8.4-8.4-16.8-16.8-25.2-25.2c-1.4-1.4-2.9-2.8-4.3-4.1c-3.4-3.1-7.5-2.9-10.6,0
			c-5.9,5.9-11.8,11.8-17.8,17.7c-1.4,1.3-2.5,2.8-4.1,3.9c-0.2,0.2-0.3,0.4-0.2,0.6c0.1,0.3,0.4,0.2,0.6,0c1.1-1.2,2.7-2,3.6-3.5
			c0.3-0.6,0.8-1.2,1.5-1.4c2.1-0.8,3.5-2.5,5-4c1.6-1.6,3.1-3.1,4.7-4.7c0.1-0.1,0.3-0.3,0.4-0.4c2.4-1.7,4.3-3.9,6.2-6
			c0.9-1,1.8-1.8,3.1-2.4c2.1-0.9,5.6-0.3,7.3,1.3C272,297.8,282.9,308.7,293.8,319.7z M232,287.2c-1.1-1.1-2.3-2.3-3.4-3.4
			c-0.7-0.7-1.9-1-2.5-0.6c-0.6,0.4-1.2,0.9-1.7,1.4c-3.9,3.8-7.6,7.7-11.7,11.4c-1.5,1.4-2.9,2.9-4.4,4.3c-0.9,0.9-0.9,1.8-0.1,2.7
			c0.3,0.3,0.7,0.7,1,1c0.9,1,1.9,1.8,2.7,2.9c1.1,1.4,2.4,2.8,4.1,3.6c0.8,0.4,1.6,0.5,2.5-0.3c2.1-2.2,4.2-4.4,6.5-6.3
			c1.8-1.5,3.4-3.3,5.1-4.9c1.9-1.7,3.8-3.5,5.2-5.7c0.6-1,0.8-1.8-0.1-2.6C234.3,289.4,233.1,288.3,232,287.2z M299.4,410.6
			c0.4-0.6,1.4-0.8,0.5-1.8c-3.5-3.4-6.9-6.9-10.4-10.4c-0.5-0.5-0.7-0.5-1.2,0c-1.6,1.5-3.1,3.1-4.7,4.5c-2,1.8-3.9,3.9-5.8,5.8
			c-0.5,0.5-0.4,0.7,0.2,0.9c2.7,0.9,5.3,2.3,8.1,3.1c2.5,0.7,4.1,2.1,5.7,4c0.4,0.5,0.9,0.6,1.4,0.2c0.5-0.4,0.2-0.8-0.2-1.1
			c-0.5-0.5-0.4-1,0.1-1.4c0.5-0.4,1.1-0.2,1.3,0.2c0.3,0.6,0.6,0.5,0.9,0.2c1.2-1.2,2.4-2.4,3.6-3.6c-0.7-0.3-1.4-0.6-1.3-1.5
			c0-0.4,0.3-0.6,0.7-0.6C299.2,409,299.2,409.8,299.4,410.6z M200.5,311.6c1.6-1.6,3.3-3.3,4.9-4.9c0.2-0.2,0.4-0.3,0.3-0.6
			c-0.1-0.2-0.3-0.2-0.4-0.2c-1.9,0.5-4,0.2-5.4,2.1c-0.7,0.9-1.6,1.7-2.5,2.5c-2.9,2.9-6,5.6-9,8.5c-2.9,2.8-5.7,5.8-8.6,8.6
			c-4.3,4.2-8.3,8.7-12.9,12.6c-1.9,1.6-3.4,3.5-5.2,5.2c-1,0.9-1.7,1.9-1.7,3.3c0,0.5,0.1,1-0.1,1.5c-0.1,0.2-0.2,0.6,0.1,0.8
			c0.3,0.2,0.5-0.2,0.6-0.4c2.2-2.1,4.4-4.2,6.6-6.3c2.2-2.1,4.1-4.3,6.4-6.3c1-0.9,1.9-2,2.9-3c1.1-1.2,2.2-2.4,3.6-3.3
			c1.4-1,2.4-2.5,3.6-3.7c2.7-2.5,5.3-5.2,7.9-7.8c1.3-1.3,2.7-2.5,4-3.8C197.3,314.8,198.9,313.2,200.5,311.6z M167.2,358.2
			c1.1,0,2.2,0,3.2-0.3c0.5-0.2,1.2,0.1,1.6-0.5c0.6-1.1,1.6-1.7,2.5-2.6c2-2.1,4.1-4.2,6.3-6.1c1.3-1.1,2.1-2.6,3.4-3.6
			c1.7-1.3,3.1-3,4.7-4.5c1.5-1.3,2.7-2.8,4.1-4.2c2.4-2.3,4.7-4.8,7-7.2c1.2-1.2,2.4-2.4,3.7-3.5c2.5-2.2,4.7-4.6,7-6.9
			c0.8-0.7,1.4-1.5,1.6-2.6c0.1-0.7,0.2-1.5,0.3-2.2c0.1-0.3,0.2-0.7,0-0.8c-0.3-0.2-0.5,0.2-0.7,0.4c-4.7,4.6-9.1,9.4-14,13.7
			c-1,0.9-2,2-3,3c-9,9-18,18-27.1,27.1C167.6,357.6,167.2,357.7,167.2,358.2z M193.8,346.7c-1.5,1.5-3,3-4.4,4.4
			c-0.2,0.2-0.6,0.4-0.4,0.8c0.2,0.4,0.5,0.5,0.9,0.5c0.7-0.1,1.5-0.2,2.1-0.7c1.1-0.9,2.2-1.9,3.3-2.9c2.6-2.6,5.1-5.2,7.8-7.7
			c1.3-1.3,2.6-2.6,4-3.8c3-2.6,5.7-5.6,8.5-8.4c4-4,8.1-8.1,12.1-12.1c1.6-1.6,3.3-3.1,4.9-4.6c1.8-1.7,3.3-3.7,5.1-5.4
			c0.5-0.5,0.6-1.1,0.7-1.8c0.1-0.4-0.2-0.7-0.5-0.9c-0.3-0.2-0.5,0.1-0.7,0.3c-0.9,1.1-2.1,1.8-3,2.7c-5.3,5.2-10.3,10.6-15.8,15.6
			c-0.5,0.5-1.2,0.9-1.5,1.5c-0.9,1.7-2.6,2.7-3.8,4.1c-1,1.1-2.3,2.1-3.4,3.1c-4.2,4-8.2,8.3-12.6,12.2
			C195.9,344.5,194.9,345.6,193.8,346.7z M290.9,489c0.7-0.7,1.3-1.3,1.9-2c0.7-0.7,1.9-1.2,1.2-2.6c0-0.1,0.2-0.4,0-0.4
			c-0.4,0.1-0.8-0.2-1.2,0.1c-0.2,0.2,0,0.3,0.1,0.5c0.3,0.6,0.2,0.8-0.5,0.8c-0.5,0-0.6-0.1-0.7-0.6c-0.1-0.6,0.2-1.4-0.5-1.7
			c-2.2-1-4.4-2-6.7-2.9c-1.4-0.5-2.3-1.4-2.6-2.8c0-0.2-0.1-0.3-0.2-0.5c-1.2-1.7-2.8-3.1-4.2-4.6c-0.4-0.4-0.6-0.3-0.8,0.2
			c-0.6,1.5-1.2,2.9-1.1,4.6c0.2,2.5,1,4.7,2.9,6.4c0.6,0.5,1.2,1,1.7,1.7c1.9,2.5,4.4,4.5,6.5,6.8c0.5,0.5,0.8,0.3,1.2-0.1
			C288.9,491,289.9,490,290.9,489z M242.6,414c-0.2,0.3-0.7,0.7-1.2,1.2c-1.1,1.4-2.1,2.8-3.2,4.2c-1.5,2-2.9,4-4.1,6.2
			c-0.5,0.9,0.3,1.2,0.7,1.6c0.5,0.5,0.9,0.2,1.3-0.2c3.6-3.6,7.2-7.2,10.9-10.7c4.5-4.1,8.4-8.7,12.8-12.8c0.3-0.3,0.6-0.6,0.8-0.9
			c0.2-0.4,0.4-0.7,0-1c-0.4-0.3-0.6-1-1.4-0.7c-1.5,0.6-2.8,1.5-4.2,2.3c-1.6,0.9-3,2.1-4.4,3.1c-1.8,1.3-3.3,3-5.1,4.4
			C244.5,411.6,243.7,412.7,242.6,414z M294.5,369.2C294.5,369.2,294.5,369.2,294.5,369.2c1.7-1.7,3.5-3.5,5.2-5.2
			c2.3-2.3,4.7-4.7,7.1-7c0.4-0.4,0.4-0.7,0-1.1c-0.7-0.8-1.3-0.8-2.2-0.3c-1.7,1.1-3.5,2.2-5.2,3.4c-2.4,1.7-4.8,3.4-6.9,5.6
			c-1.4,1.4-2.8,2.8-4.2,4.2c-0.7,0.8-1.4,1.6-2,2.4c-1.2,1.6-2.3,3.1-3.4,4.7c-1,1.5-2,3-2.7,4.7c-0.2,0.5-0.1,0.8,0.2,1.2
			c0.4,0.3,0.7,0.4,1.2,0.1c0.4-0.2,0.8-0.5,1.1-0.9C286.6,377.1,290.6,373.2,294.5,369.2z M341.7,543.3
			C341.7,543.3,341.7,543.3,341.7,543.3c1.5,1.5,3,2.8,4.3,4.4c1,1.1,2,2.2,3,3.2c1.2,1.1,1.3,1.3,2.6,0c1.7-1.7,3.3-3.4,5-5
			c1.1-1,1.2-1,0.1-2c-2.1-1.9-3.9-4.1-5.9-6c-0.7-0.6-1.1-0.9-1.8-0.4c-0.9,0.6-1.8,1-2.8,1.4c-2.2,0.7-4.5,1-6.9,0.9
			c-0.3,0-0.6-0.1-0.8,0.1c-0.2,0.3,0.2,0.5,0.4,0.7C339.9,541.6,340.8,542.4,341.7,543.3z M424.6,471.3c1.2,1.2,2.3,2.3,3.5,3.5
			c0.2,0.2,0.4,0.6,0.9,0.3c0.4-0.3,0.9-0.6,1.3-1c1.6-1.6,3.2-3.2,4.8-4.8c1-1,1-1.1,0-2.1c-2.4-2.4-4.7-4.8-7.1-7.1
			c-1-1-2.1-1.9-3.1-2.8c-0.2-0.2-0.4-0.4-0.6-0.3c-0.1,0.1-0.2,0.4-0.2,0.7c-0.1,1.1-0.3,2.1-0.6,3.2c-0.5,1.9-1.1,3.8-2.2,5.5
			c-0.5,0.7-0.5,1.2,0.2,1.8C422.5,469.2,423.5,470.3,424.6,471.3z M312,389.8c-1.1,0.9-1.8,2.1-2.7,3.2c-1.5,1.8-2,4.1-2.9,6.2
			c-0.2,0.5,0,1.1,0.4,1.5c0.4,0.4,0.9,0.4,1.2,0.2c1.9-1.1,4.1-1.6,6.1-2.6c1-0.5,2.2-1,2.5-2.3c0.4-2.1,2-3.1,3.6-4.2
			c0.6-0.4,1.1-0.7,1.4-1.4c0.7-2.1,1.3-4.2,2-6.3c0.1-0.2,0.3-0.5,0.1-0.8c-0.2-0.2-0.6-0.1-0.9,0
			C318.7,384.6,315.1,386.8,312,389.8z M324.9,401.3c-0.5-0.5-0.9-1-1.4-1.4c-0.4-0.3-0.8-0.8-1.3-0.5c-1.5,0.9-3,0.5-4.5,0.2
			c-0.5-0.1-0.7,0-1,0.3c-1.7,1.8-3.5,3.5-5.2,5.2c-0.8,0.8-1.6,1.7-2.6,2.4c-1.2,0.9-0.9,1.4,0.2,2.1c2.6,1.5,5.3,1.1,7.9,0.4
			c3.3-0.8,6.2-2.7,9-4.6c0.8-0.5,0.9-1.5,0.5-2.4C326.1,402.3,325.3,401.9,324.9,401.3z M341,410.2c4.4-4.4,8.8-8.9,13.3-13.3
			c0.6-0.6,0.6-0.9,0-1.5c-2.2-2.1-4.3-4.3-6.5-6.4c-0.1-0.1-0.3-0.3-0.5-0.4c-0.2-0.1-0.3-0.1-0.5,0.1c-0.1,0.1-0.2,0.3-0.1,0.5
			c0.6,0.5,0.8,1.3,1.5,1.8c1,0.6,1.8,1.5,2.5,2.4c0.6,0.8,1.4,1.2,2,1.9c0.8,0.8,0.9,1.1,0.1,2c-3.8,3.8-7.6,7.7-11.5,11.5
			c-2,2-3.9,4.2-6.1,6c-1.6,1.3-2.8,2.9-4.3,4.3c-1.2,1.1-2.4,2.3-3.6,3.5c-3,2.9-6,5.9-8.9,9c-0.7,0.8-0.9,0.4-1.3,0
			c-2.1-2.1-4.1-4.1-6.2-6.2c-0.4-0.4-0.7-0.6-1.3,0c-0.5,0.5-0.3,0.8,0.1,1.2c1.9,1.9,3.9,3.9,5.8,5.8c0.9,0.9,0.9,1,0,1.9
			c-5.2,5.1-10.3,10.4-15.6,15.4c-4.9,4.5-9.4,9.5-14.3,14.1c-1.6,1.5-3.2,3.1-4.8,4.6c-0.2,0.2-0.4,0.6-0.8,0.2
			c-0.7-0.7-1.6-1.2-2.2-2c-1.3-1.7-3.2-2.9-4.6-4.5c-0.2-0.3-0.5-0.5-0.8-0.2c-0.3,0.3,0,0.6,0.2,0.8c2.3,2.3,4.7,4.6,6.9,7
			c0.4,0.5,0.8,0.3,1.1,0c1-0.9,1.9-1.8,2.9-2.7c7.2-7,14-14.2,21.3-21.1c7.7-7.2,14.8-15,22.5-22.2
			C332.2,419.3,336.5,414.7,341,410.2z M328.1,388.2C328.1,388.2,328.1,388.2,328.1,388.2c-1.2,1.3-2.5,2.5-3.8,3.8
			c-0.3,0.3-0.4,0.5-0.3,1c0.5,1.2,0.5,2.5,0,3.8c-0.2,0.7-0.1,1.2,0.5,1.7c0.9,0.8,1.8,1.8,2.7,2.7c0.8,0.8,1.4,0.8,2.2,0
			c1-1.1,1.7-2.3,2.5-3.6c1.2-1.9,2-4.1,2.8-6.2c1.1-2.7,0.4-5.2-1.4-6.8c-0.6-0.6-1.1-0.5-1.6,0C330.6,385.8,329.3,387,328.1,388.2
			z M229.1,389.9c-0.8,0.8-1.5,1.5-2.3,2.2c-0.6,0.5-0.6,0.9,0,1.4c0.5,0.5,0.9,0.4,1.3-0.1c2.5-2.6,5.1-5.1,7.7-7.7
			c4.6-4.6,9.2-9.2,13.8-13.9c0.4-0.4,1-0.4,1.2-0.9c0.5-1.3,1.8-1.9,2.5-2.9c0.8-1,1.9-1.9,2.9-2.9c5.8-5.7,11.5-11.5,17.3-17.2
			c1.6-1.6,3.2-3.2,4.9-4.7c0.5-0.4,0.4-0.6,0.1-0.9c-0.3-0.3-0.6-0.8-1.1-0.2c-0.7,0.8-1.7,1.4-2.5,2.1c-2.6,2.7-5.2,5.3-7.9,7.9
			c-5.4,5.4-10.9,10.9-16.4,16.3c-5.6,5.5-11,11.3-16.9,16.6C232.2,386.7,230.7,388.3,229.1,389.9z M368.7,412.1
			c0.2-0.1,0.2-0.3,0.1-0.4c-0.3-1.2-0.3-1.2,0.9-1.2c0.2,0,0.4-0.1,0.5-0.3c2.4-2.4,4.7-4.7,7.1-7.1c0.5-0.5,0.3-0.9-0.1-1.3
			c-0.1-0.1-0.3-0.1-0.5-0.3c-2.1-2.5-4.4-4.8-6.9-6.9c-0.3-0.3-0.5-0.1-0.8,0c-1.1,0.5-1.9,1.5-2.8,2.4c-0.7,0.7-1.8,1.3-1.3,2.8
			c0.6,1.8,1.1,3.6,1.6,5.4c0.4,1.6,1.2,3,0.9,4.8C367.3,411,367.9,411.7,368.7,412.1z M258.1,286.5c2.3,2.4,4.4,4.7,6.5,6.9
			c1.9,1.9,3.8,3.8,5.7,5.7c1.1,1.1,1.1,2.7,0,3.8c-3.9,3.8-7.7,7.8-11.7,11.5c-1.8,1.6-3.3,1.7-5,0c-4.5-4.5-8.9-8.9-13.3-13.4
			c-0.5-0.5-1-0.5-1.5-0.1c-0.6,0.5-0.1,0.9,0.3,1.3c1.6,1.3,2.8,3,4.3,4.5c2.9,2.9,5.8,5.8,8.6,8.8c1.1,1.2,2.3,2.3,3.6,3.4
			c0.7,0.6,1,0.7,1.6,0c5.5-5.5,11-11,16.5-16.5c0.7-0.7,0.8-1.1,0-1.8c-2.7-2.4-5.1-5.1-7.7-7.5c-1.6-1.5-3-3.1-4.5-4.7
			C260.6,287.3,259.6,286.6,258.1,286.5z M171.1,370.6c0,1.6,0.6,3,1.7,4.1c4.3,4.4,8.7,8.7,13,13c0.6,0.6,1,0.5,1.6,0.1
			c0.2-0.2,0.4-0.4,0.7-0.6c4.9-4.9,9.9-9.9,14.8-14.8c1-1,1-1.2,0-2.2c-0.9-0.9-1.9-1.9-2.9-2.8c-4.4-4.4-8.8-8.9-13.1-13.4
			c-0.4-0.5-0.9-0.8-1.5-0.2c-0.6,0.7,0.1,0.9,0.4,1.2c4.5,4.6,9.1,9,13.5,13.7c1.1,1.2,1.4,3.5-0.1,4.9c-0.9,0.9-2,1.7-2.9,2.6
			c-2.7,2.6-5.3,5.3-7.9,7.9c-1.3,1.3-2.7,1-3.7,0c-2.3-2.4-4.6-4.9-7-7.1C175.4,375,173.7,372.4,171.1,370.6z M233.6,406.3
			c-2.4,2.6-4.5,5.4-6.4,8.3c-0.9,1.3-1.5,2.7-2.3,4c-0.4,0.7,0.1,1.2,0.6,1.5c0.6,0.3,1.5,0.6,1.9-0.2c0.7-1.3,1.5-2.5,2.3-3.7
			c2.1-3.5,4.7-6.5,7.5-9.5c1.4-1.4,2.8-2.7,4.3-4.1c1.9-1.7,3.9-3.2,6-4.6c2.1-1.4,4.3-2.8,6.6-4c0.8-0.4,0.2-1,0-1.6
			c-0.2-0.5-0.6-0.9-1.1-0.5c-1.4,0.9-3,1.4-4.4,2.2c-2.2,1.3-4.3,2.8-6.4,4.3c-2.4,1.7-4.5,3.6-6.6,5.5
			C234.9,404.6,234.5,405.7,233.6,406.3z M271.1,375.3c0.7,0.7,2.1,0.7,2.3,0c0.3-0.7,0.7-1.2,1-1.8c1.6-3,3.7-5.6,5.7-8.3
			c1.6-2.1,3.6-3.8,5.3-5.6c2-2.1,4.2-4,6.4-5.8c2.7-2.1,5.6-4,8.8-5.4c0.8-0.3,1-0.8,0.6-1.5c-0.4-0.7-1-0.6-1.6-0.3
			c-2.3,1.1-4.5,2.3-6.6,3.6c-3,1.9-6,3.9-8.5,6.5c-1,1-2.1,2-3.1,3c-1.3,1.4-2.6,2.8-3.8,4.3c-0.8,0.9-1.3,1.9-2.1,2.8
			c-0.9,1.1-1.5,2.4-2.3,3.5c-0.9,1.2-1.5,2.6-2.4,3.9C270.6,374.7,270.7,375.1,271.1,375.3z M318.2,399.1c-0.8-1.6-1.1-1.7-2.4-0.9
			c-0.2,0.1-0.4,0.2-0.6,0.3c-2.2,1-4.5,1.7-6.6,2.8c-0.6,0.3-1.4,0.4-1.9-0.1c-0.6-0.5-0.9-1.2-0.7-2.1c0.2-1,0.6-1.8,0.9-2.7
			c1.8-4.7,5.2-7.9,9.3-10.7c2.1-1.4,4.4-2.5,6.8-3.2c0.5-0.2,1.1-0.5,1.6,0c0.5,0.5,0.2,1,0,1.5c-0.5,1.2-0.9,2.6-1.4,3.8
			c-0.5,1.2-0.5,2.7-1.5,3.8c-0.2,0.2,0,0.5,0.2,0.5c0.3,0,0.6,0.3,1.1,0.1c-0.5-0.9,0-1.8,0.3-2.7c0.7-1.9,1.3-3.8,2-5.7
			c0.4-1,1.2-1.9,2.2-2.1c1.2-0.3,2.5-0.3,3.6,0.3c4.2,2,6.3,5.1,4.4,9.7c-0.9,2.2-1.7,4.4-3,6.4c-0.2,0.3-0.2,0.5,0.1,0.7
			c0.2,0.2,0.5,0.1,0.6,0c0.4-0.4,0.7-0.6,1-1.2c0.9-2,1.8-4,2.4-6.2c1-3.4,0.9-6.4-1.9-8.8c-1.3-1.1-2.9-1.8-4.5-1.8
			c-2,0.1-4.1,0.2-6.1,0.7c-2.1,0.5-4.2,1.1-6.2,2.2c-3,1.6-5.7,3.6-8,6.2c-1.5,1.7-2.7,3.6-3.5,5.7c-0.9,2.2-1.4,4.5-1.6,6.8
			c-0.2,1.9,0.1,3.7,0.6,5.5c0.5,1.7,2,2.8,3.6,3.5c1.3,0.5,2.6,0.6,4,0.5c3.4-0.1,6.5-1,9.5-2.5c0.8-0.4,1.4-1.2,1.9-2
			c-2.1,1.1-4.3,2.1-6.5,2.9c-3,1.1-6,1.2-8.9-0.4c-0.6-0.3-1-0.7-1.6-1c-1-0.4-0.7-1.5-1-2.2c-1-2.4,0.5-4.1,2.4-4.8
			c2.3-0.8,4.4-1.9,6.5-3C316.2,398.5,317,397.7,318.2,399.1z M297.3,418.7c-1.1,1.1-2,2-2.9,2.9c-0.9,0.9-1,1.9-0.5,3
			c0.5,0.9,1.3,1.5,2,2.3c0.3,0.3,0.5,0.3,0.6-0.2c0.1-0.6,0.2-1.2,0.8-1.7c1-0.8,2.2-1,3.2-0.4c1,0.6,1.6,1.6,1.4,2.9
			c-0.1,0.6,0.4,0.9,0.7,1.1c0.3,0.3,0.5-0.1,0.7-0.3c2-2,4-4,6-5.9c0.5-0.5,0.4-0.8,0-1.2c-0.8-0.7-1.5-1.4-2.2-2.2
			c-0.5-0.5-0.9-0.7-1.6-0.5c-1.2,0.3-2.7-0.7-3.1-1.9c-0.3-1.2,0.4-2.9,1.5-3.3c1.2-0.4,2.3-0.1,3.2,0.6c0.8,0.6,1,1.6,0.9,2.7
			c-0.1,0.4-0.3,0.7,0,1c0.8,0.8,1.6,1.7,2.4,2.5c0.5,0.5,1.3,0.1,1.3-0.6c0-0.7,0-1.5-0.5-2c-1.2-1.4-2.2-3-3.8-4
			c-2-1.3-3-1.9-4.9,0.1c-0.7,0.7-1.3,1.4-2.1,2C299.4,416.6,298.3,417.9,297.3,418.7z M368.5,527.7c-2,2-2,2,0,4
			c0.8,0.8,1.6,1.7,2,2.9c0.5,1.8,1.1,3.5,1.7,5.3c0.5,1.4,0.8,1.5,2,0.7c0.5-0.3,0.4-0.6,0.2-0.9c-0.3-0.5-0.1-0.8,0.2-1.1
			c1.1-1.1,2.3-2.2,3.3-3.3c0.5-0.5,0.8-1.4,1.7-0.5c0.1,0.1,0.3-0.1,0.5-0.1c0.6-0.2,0.8-0.7,1.1-1.1c0.6-0.8,0.5-1.2-0.4-1.6
			c-0.8-0.3-1.5-0.5-2.3-0.7c-2.3-0.8-4.6-1.3-6.3-3.3C370.5,525.7,370.4,525.8,368.5,527.7z M422,446.9c-0.2,0.3-0.2,0.4-0.1,0.5
			c1.1,2.3,2.1,4.7,2.1,7.3c0,0.6,0.3,1.2,0.8,1.7c1.7,1.6,3.4,3.1,5,4.7c1.9,2,3.9,3.9,5.7,5.9c0.2,0.2,0.4,0.4,0.7,0.3
			c0.3-0.1,0.2-0.4,0.2-0.6c0-1.6-0.3-3.3-0.1-4.9c0-0.2-0.1-0.4-0.2-0.6c-1.4-1.5-2.6-3.1-4.2-4.4c-1-0.9-1.9-2-2.9-2.9
			C426.6,451.5,424.3,449.2,422,446.9z M240.2,279.7c-0.7-0.7-1.5-1.5-2.2-2.3c-0.5-0.5-1-1-1.6-1.2c-1-0.4-2.2-1-3.2-0.2
			c-2,1.8-3.8,3.8-5.8,5.7c-0.4,0.4-0.3,0.6,0.2,0.7c0.7,0.1,1.2,0.7,1.6,1.1c1.6,1.6,3.2,3.2,4.8,4.8c0.2,0.2,0.4,0.5,0.7,0.6
			c1,0.5,1.5,1.4,1.9,2.4c0.3,0.7,0.5,0.8,1,0.2c1.7-1.7,3.2-3.6,5-5.3c1-0.9,1.1-1.8,0.8-2.9c-0.1-0.5-0.4-0.9-0.7-1.2
			C241.9,281.4,241,280.5,240.2,279.7z M415.2,498c0.3,0.2,0.5,0.7,1,0.3c0.3-0.3,1-0.5,0.5-1.3c-0.3-0.5-0.2-1.1,0.3-1.5
			c1.2-1.1,2.3-2.3,3.5-3.5c0.4-0.4,0.8-0.6,1.2-0.2c0.8,0.6,1.2,0.1,1.7-0.4c0.2-0.2,0.3-0.6,0.5-0.7c1-0.5,0.3-0.8-0.1-1.1
			c-1.1-0.9-2.6-0.9-3.9-1.3c-1.8-0.6-3.8-0.6-5.1-2.4c-0.2-0.3-0.5-0.6-0.7-0.9c-0.8-1.2-1.4-1.2-2.4-0.3c-0.6,0.6-1.1,1.2-1.8,1.7
			c-0.7,0.5-0.6,0.9-0.1,1.4c0.7,0.6,1.2,1.4,2.1,1.9c0.5,0.3,0.9,0.7,1.1,1.3c0.3,1.3,0.5,2.6,0.9,3.8
			C414.4,495.9,414.4,497.1,415.2,498z M277.4,401.4c-1.2,1.2-2.4,2.5-3.7,3.7c-0.5,0.5-0.6,0.8,0,1.3c0.7,0.6,1.3,1.2,1.9,1.9
			c0.6,0.7,1,0.7,1.6,0c1.8-1.9,3.7-3.8,5.5-5.6c0.7-0.7,1.6-1.1,2.1-2c0.1-0.3-0.1-0.7,0.3-0.8c1.3-0.3,1.9-1.5,2.8-2.3
			c0.4-0.3,0.3-0.6-0.1-0.9c-0.8-0.7-1.5-1.5-2.3-2.2c-0.3-0.4-0.6-0.3-0.9,0c-1.6,1.5-3.2,3-4.8,4.5
			C279,399.8,278.2,400.6,277.4,401.4z M222.1,307.4c-1.2,1.2-2.3,2.2-3.3,3.3c-0.4,0.5-0.9,0.8-1.6,0.8c-0.2,0-0.5,0-0.4,0.3
			c0.2,0.6,0.7,0.9,1.1,1.3c0.4,0.3,0.6-0.1,0.8-0.3c1.6-1.6,3.2-3.1,4.7-4.7c0.4-0.4,0.9-0.7,1.3-1.2c1-1.2,2.3-2.2,3.4-3.3
			c3.1-3,6.2-6,9.1-9.2c1.4-1.5,2.8-3.1,4.4-4.4c1.4-1.2,2.4-2.7,3.8-3.9c0.4-0.4,0.2-0.9-0.2-1.1c-0.3-0.2-0.7-0.2-0.9,0.3
			c-0.1,0.2-0.2,0.4-0.3,0.5c-1.9,1.8-3.4,3.9-5.3,5.7c-0.8,0.8-1.6,1.6-2.5,2.4c-1,0.9-2,1.7-2.9,2.7c-2.5,2.5-4.9,5.1-7.5,7.4
			C224.5,305,223.3,306.4,222.1,307.4z M348.8,551.7c0.1-0.6-0.4-0.8-0.7-1.1c-3.5-3.5-6.9-7-10.4-10.4c-0.4-0.4-0.7-0.6-1.3-0.7
			c-1.3-0.3-2.5-0.7-3.8-1.2c-0.3-0.1-0.5-0.5-0.8-0.2c-0.3,0.4,0.2,0.6,0.4,0.8c3.9,3.9,7.9,7.9,11.8,11.8c0.2,0.2,0.4,0.5,0.8,0.5
			C346.2,551.3,347.5,551.5,348.8,551.7z M359.7,394.8c0.7,0.7,1.3,1.4,2,2c0.9,0.9,1.8,1.1,2.6,0.4c1.3-1.1,2.5-2.3,3.8-3.4
			c0.2-0.2,0.2-0.4,0.1-0.7c-0.7-1.3-1.8-1.8-3.2-2.2c-2.5-0.8-4.8-0.4-7,0.7c-0.7,0.3-0.8,0.6-0.2,1.2
			C358.4,393.5,359,394.2,359.7,394.8z M195.8,340.3c1.1-0.1,1.9-0.7,2.5-1.3c4.6-4.6,9.1-9.2,13.7-13.7c1.6-1.6,3.2-3.1,4.7-4.7
			c2.7-2.8,5.8-5.2,8.4-8.1c0.4-0.4,1-1,0.5-1.4c-0.6-0.5-0.9,0.4-1.2,0.7c-5.2,4.9-9.8,10.2-15.2,14.9c-1.3,1.1-2.4,2.5-3.7,3.7
			c-3.2,2.9-6.2,6.1-9.3,9.2C196.2,339.7,195.9,339.9,195.8,340.3z M327.7,387.7c1-1,2-2,3-3c0.4-0.4,1.3-0.8,1.1-1.4
			c-0.2-0.6-1.1-0.7-1.7-0.9c-2.3-0.6-3.7,0-4.4,1.9c-0.6,1.4-1.1,2.8-1.5,4.3c-0.2,0.8-0.7,1.5-0.7,2.3c0,0.2-0.1,0.5,0.1,0.7
			c0.3,0.1,0.4-0.1,0.6-0.3C325.3,390.1,326.5,388.9,327.7,387.7z M298.3,345.1c-1.8,0.7-3.6,1.3-5.2,2.3c-1.9,1.2-3.8,2.5-5.7,3.8
			c-1.6,1.2-3.3,2.3-4.7,3.7c-3,2.9-5.9,5.8-8.3,9.1c-1.9,2.6-3.8,5.1-5.1,8c-0.1,0.3-0.5,0.6,0,0.8c0.5,0.2,0.5-0.4,0.6-0.6
			c1.3-2,2.4-4.1,3.8-6c1.4-1.9,2.9-3.7,4.4-5.6c1.9-2.5,4.4-4.5,6.7-6.6c1.7-1.5,3.6-2.8,5.5-4.1c1.8-1.2,3.6-2.4,5.5-3.4
			C296.6,346.2,297.6,345.9,298.3,345.1z M423.9,471.5c-1-1-1.9-1.9-2.9-2.9c-0.5-0.5-0.8-0.8-1.2,0.1c-0.3,0.6-0.7,1-1.1,1.5
			c-0.3,0.3-0.3,0.6,0,0.9c1.1,1.1,2.2,2.2,3.3,3.3c0.1,0.1,0.4,0.2,0.6,0.2c1.3,0.2,2.7,0.4,4,0.6c0.2,0,0.6,0.2,0.7-0.1
			c0.1-0.3-0.2-0.5-0.3-0.7C425.9,473.5,424.9,472.5,423.9,471.5z M170.5,379.6c-0.3-0.3-0.5-0.1-0.8-0.1c-2-0.1-2.5-0.5-2.9-2.5
			c-0.2-1.2-0.2-2.4-0.8-3.6c-0.8-1.6-0.9-3.3-0.7-5c0.1-0.9,0.3-1.7,0.1-2.7c-0.5-2.6,0-4.4,3.1-4.3c0.7,0,1.1-0.3,1.6-0.8
			c0.1-0.1,0.2-0.3,0.1-0.4c-0.1-0.2-0.3-0.1-0.5-0.1c-1.1,0.1-2.2,0.3-3.3,0.4c-1.5,0.1-2.8,1.7-2.6,3.2c0.6,4.3,1.1,8.6,1.5,12.9
			C165.7,379.6,167.5,380.4,170.5,379.6z M223.2,416.9c0.5,0,0.6-0.2,0.7-0.4c0.8-1.4,1.5-2.7,2.4-4c1.6-2.4,3.5-4.7,5.4-6.9
			c2.6-2.9,5.4-5.6,8.5-7.9c3.4-2.4,6.7-4.9,10.6-6.7c0.3-0.1,0.7-0.3,0.5-0.6c-0.2-0.4-0.6-0.2-0.9,0c-0.1,0-0.2,0.1-0.3,0.1
			c-5.2,2.5-9.7,5.8-13.9,9.7c-1.6,1.5-3,3.1-4.6,4.6c-0.9,0.9-1.7,1.9-2.5,2.9c-1.3,1.7-2.5,3.4-3.6,5.2
			C224.8,414.2,224.1,415.5,223.2,416.9z M354,540.2c1,1,1.9,1.9,2.9,2.9c0.2,0.2,0.3,0.5,0.6,0.4c0.3-0.2,0.2-0.6,0.1-0.8
			c-0.2-0.8-0.1-1.6-0.1-2.3c0-0.6-0.2-1.1-0.6-1.5c-1.1-1.2-2.4-2.3-3.4-3.7c-0.3-0.5-0.7-0.5-1.2-0.1c-0.4,0.5-0.8,0.9-1.5,1.2
			c-0.5,0.2-0.2,0.6,0.1,0.9C352,538.2,353,539.2,354,540.2z M226.7,312.1c-2,1.8-4.1,3.6-6,5.5c-3.1,3-6.1,6-9.1,9.1
			c-2.2,2.2-4.4,4.5-6.7,6.6c-2.4,2.1-4.6,4.5-6.9,6.7c-0.3,0.2-0.5,0.5-0.1,1.1C207.7,331.5,217.2,321.8,226.7,312.1z M315.8,400
			c-0.1-0.1-0.1-0.2-0.2-0.3c-2.1,1.1-4.3,1.9-6.5,2.8c-0.8,0.4-1.5,0.9-2.2,1.4c-0.8,0.6-0.5,3,0.2,3.7c0.5,0.5,0.7,0.2,1.1-0.1
			c2.1-2.1,4.3-4.3,6.4-6.4C315,400.8,315.4,400.4,315.8,400z M248.7,279.9c-0.6,0.5-0.6,1.4-0.6,2.4c0,0.2-0.2,0.6,0.2,0.6
			c0.4,0,0.3-0.3,0.4-0.6c0-2.1,2.1-3.2,3.7-2.8c0.8,0.2,1.7,0.2,2.6,0.2c0.8,0,1.7,0.1,2.6,0.2c1.6,0.2,3,1.2,4.7,1.1
			c1.9-0.1,3,1.3,2.7,3.2c0,0.3,0,0.5,0,0.8c0,0.2,0.2,0.4,0.4,0.4c0.3,0,0.2-0.3,0.2-0.5c0.1-0.5,0.1-1,0.2-1.5
			c0.6-2.4-1.1-3.7-3.1-3.7c-3.5-0.1-7-0.7-10.5-0.9C251.1,278.7,249.9,278.7,248.7,279.9z M213.8,317.7c0.9-0.9,1.8-1.8,2.8-2.8
			c0.3-0.3,0.6-0.6,0.2-0.9c-0.9-0.7-1.4-1.6-2.1-2.5c-1-1.1-2.3-1.9-3.1-3.2c-0.1-0.2-0.3-0.3-0.5-0.1c-0.2,0.2,0,0.3,0.1,0.4
			c0.1,0.1,0.3,0.2,0.5,0.4c0.9,1.1,2.5,1.8,2,3.7c-0.1,0.3-0.1,0.5-0.1,0.8c-0.2,1-0.5,2-0.5,3.1c0,0.6-0.1,0.9-0.5,1.3
			c-1.3,1.3-2.6,2.6-3.9,3.9c-0.2,0.2-0.5,0.4-0.3,0.7c0.2,0.3,0.6,0.1,0.8-0.1c0.2-0.2,0.4-0.4,0.6-0.6
			C211,320.5,212.4,319.1,213.8,317.7z M409.2,450.4c0.5-0.5,1.1-1,1.6-1.6c0.4-0.5,1.4-0.9,1.2-1.5c-0.2-0.7-1.2-0.3-1.8-0.6
			c-0.1-0.1-0.3,0-0.4,0c-2.9,0.6-4.8,2.6-4.1,5.8c0.2,0.9,0.5,1,1.1,0.4C407.6,452.1,408.4,451.2,409.2,450.4z M433.7,489.5
			c-0.6-0.1-0.8,0.2-1,0.5c-1.8,1.8-3.6,3.7-5.5,5.5c-3.6,3.5-7.1,7-10.7,10.4c-2.5,2.4-4.8,5-7.3,7.5c-1.7,1.7-3.5,3.4-5.3,5
			c-0.2,0.2-0.6,0.4-0.2,0.7c0.3,0.2,0.5-0.1,0.7-0.3c4.1-4.1,8.1-8.2,12.4-12.1c1.5-1.4,2.8-3,4.2-4.5c3.2-3.2,6.4-6.4,9.6-9.7
			C431.6,491.6,432.7,490.5,433.7,489.5z M374.2,548.3c0.5,0.1,0.6-0.2,0.8-0.4c6.2-6,12.1-12.3,18.5-18.2c3.1-2.8,5.9-5.9,8.9-8.8
			c0.3-0.3,1.1-0.7,0.6-1.1c-0.4-0.4-0.8,0.4-1.1,0.7c-8.8,8.8-17.7,17.7-26.5,26.5C375.1,547.3,374.5,547.6,374.2,548.3z
			 M324.7,348.1C324.7,348.1,324.7,348.1,324.7,348.1c0.4,0.3,0.7,0.7,1.1,1.1c0.1,0.1,0.3,0.4,0.5,0.2c0.3-0.2,0.1-0.4-0.1-0.6
			c-0.6-0.7-1.3-1.3-2-1.9c-0.8-0.7-0.9-1.3-0.3-2.1c0.3-0.4,0.5-0.8,0-1.4c-2.5-2.6-5-5.1-7.4-7.7c-0.4-0.4-0.8-0.6-1.2-0.2
			c-0.6,0.5,0.1,0.8,0.3,1c2.3,2.3,4.7,4.6,7,6.9c0.6,0.6,0.9,1.3,0.6,2c-0.3,0.7,0,1.2,0.4,1.6
			C323.9,347.5,324.3,347.8,324.7,348.1z M225.3,431c-1.2-1.2-2.1-2.1-3-3c-0.3-0.3-0.6-0.5-1-0.1c-0.3,0.3-0.4,0.7-0.1,1.1
			c0.3,0.3,0.6,0.6,0.9,0.9c0.8,0.7,1.7,1.3,2.3,2.1c1.2,1.7,2.8,2.9,4.2,4.4c0.2,0.3,0.6,0.4,0.9,0.6c0.3,0.1,0.6,0.2,0.8-0.1
			c0.2-0.3-0.1-0.5-0.3-0.7C228.3,434.4,226.9,432.3,225.3,431z M234.1,440.4c0.1-0.1,0.1-0.1,0.2-0.2c-0.8-0.8-1.6-1.7-2.5-2.5
			c-0.4-0.3-0.8-0.4-1.3-0.2c-0.8,0.3-1.4,0.2-2-0.5c-2.1-2.4-4.7-4.3-6.6-6.9c-0.8-1.1-2.1-0.8-3.1-1.7c0,0.3,0,0.4,0.1,0.5
			c2,2,4,4.2,6.1,6.1c1,0.9,1.9,1.7,2.8,2.6c0.6,0.6,1.3,0.8,2,0.6c0.7-0.2,1.2,0,1.7,0.2C232.6,438.9,233.1,439.9,234.1,440.4z
			 M294.2,481.4c0-0.1,0.1-0.1,0.1-0.2c-1.9-1.5-3.9-3-5.8-4.4c-0.9-0.7-1.8-1.3-2.7-1.8c-0.2-0.1-0.8-0.7-1,0.1
			c-0.2,0.8,0.5,2.4,1.3,2.7c1.6,0.8,3.3,1.5,4.9,2.2C292,480.5,293.1,481,294.2,481.4z M197.8,332.3c-1.2,1.4-3.2,2.9-4.7,4.9
			c-0.2,0.2-0.7,0.4-0.3,0.7c0.4,0.3,0.6-0.1,0.8-0.4c3.9-3.9,7.9-7.9,11.8-11.8c0.7-0.7,1.6-1.1,2.2-1.8c0.2-0.2,0.5-0.5,0.2-0.8
			c-0.3-0.3-0.5,0-0.8,0.2c-1.4,1.4-2.8,2.8-4.4,4.1C201.1,328.8,199.7,330.4,197.8,332.3z M322,397.5c0.7-0.3,0.9-1.1,1.1-1.8
			c0.3-0.9,0.1-1.8-0.8-2.4c-0.7-0.5-1.5-0.9-2.3-0.4c-1.2,0.6-2,1.6-2.5,2.9c-0.1,0.4-0.2,0.7,0,1.2
			C318.5,398.7,320.5,399.1,322,397.5z M411.6,453.2c0.7-0.7,1.4-1.4,2.1-2.1c0.6-0.5,0.6-0.9,0-1.4c-0.5-0.6-0.9-0.4-1.3,0.1
			c-1.4,1.4-2.9,2.8-4.3,4.2c-0.4,0.5-0.6,0.8-0.2,1.3c0.4,0.5,0.9,0.7,1.5,0.1C410.1,454.6,410.9,453.9,411.6,453.2z M297.7,425.9
			c-0.8,0.8-0.8,1.9,0,2.7c0.8,0.8,2.2,0.9,3,0.1c1.2-1.3,1.1-2,0.2-2.9C299.8,424.7,298.9,424.8,297.7,425.9z M318.6,340.4
			c-1.2-1.2-2.4-2.4-3.6-3.6c-0.3-0.3-0.6-0.6-1-0.1c-0.4,0.4-0.2,0.8,0.2,1c1.5,0.9,2.4,2.5,3.6,3.7c0.4,0.4,0.9,0.7,1.3,1.2
			c0.7,1,1.7,1.8,2.6,2.7c0.2,0.2,0.3,0.2,0.5,0.1c0.2-0.1,0.3-0.3,0.3-0.6c0-0.4-0.3-0.7-0.5-0.9
			C321,342.7,319.8,341.6,318.6,340.4z M313.1,333.4c-0.4-0.4-0.8-0.8-1.2-1.2c-0.4-0.3-0.8-0.4-1.1,0c-0.4,0.4-1.3,0.8-0.9,1.4
			c0.6,1,1.3,2,2.4,2.6c0.6,0.3,0.9,0.4,1.4-0.1c1-1,1-1.1,0-2.1C313.5,333.8,313.3,333.6,313.1,333.4z M304,414.4
			c-0.7,0.6-0.8,2.3-0.2,2.9c0.6,0.6,1.9,0.5,2.7-0.2c0.9-0.8,1-2,0.2-2.7C305.9,413.7,304.7,413.7,304,414.4z M286.1,354.3
			c-4.1,2-15,15.3-15.2,18.4C274.9,365.7,279.9,359.6,286.1,354.3z M220.3,425.1c-1.3-1.3-1.3-1.3-2.6,0c0,0,0,0-0.1,0.1
			c-0.6,0.3-0.4,0.7,0,1c0.6,0.6,1.3,1,1.8,1.7c0.2,0.4,0.7,0.5,1-0.1c0.1-0.2,0.2-0.4,0.4-0.5c0.9-0.5,0.8-1,0.1-1.6
			C220.7,425.5,220.5,425.3,220.3,425.1z M367.9,527.4c0.3-0.3,0.7-0.7,1-1c0.5-0.5,0.4-0.8-0.1-1.3c-0.5-0.4-0.9-1-1.5-0.3
			c-0.6,0.6-1.1,1.3-1.8,1.8c-0.9,0.7-0.5,1.1,0.1,1.7c0.6,0.6,1,0.6,1.5-0.1C367.3,527.9,367.6,527.7,367.9,527.4z M363.8,407
			c0.1,0.1,0.2,0.4,0.5,0.2c0.2-0.1,0-0.4,0-0.6c-0.5-1.8-1.1-3.6-1.6-5.4c-0.1-0.5-0.3-0.4-0.6-0.1c-0.5,0.5-0.7,2.1-0.1,3
			C362.4,405.1,363.1,406,363.8,407z M409.2,483.2c-1.4,1.4-1.5,1.1-0.5,2.1c0.5,0.5,0.8,0.7,1.3,0c0.2-0.2,0.5-0.5,0.8-0.8
			c0.4-0.3,1.1-0.8,0.5-1.5c-0.9-1-1-1-1.8-0.2C409.4,483,409.3,483.1,409.2,483.2z M330.1,401.6c-1.7,1.2-2.8,0.4-3.8-0.7
			c-0.7-0.8-1.5-1.5-2.2-2.3c-0.2-0.2-0.3-0.5-0.7-0.4c-0.2,0-0.3,0.2-0.3,0.4c0,0.3,0.3,0.4,0.5,0.5c1,0.9,1.9,1.8,2.8,2.7
			c0.6,0.6,1,2,1.5,1.9c0.8,0,1.3-1.1,2-1.8C329.9,402.1,329.9,402,330.1,401.6z M410,451.3c1-1,2-2,3-3c0.2-0.2,0.6-0.5,0.3-0.8
			c-0.3-0.4-0.5,0.1-0.7,0.3c-2,2-4.1,4.1-6.1,6.1c-0.2,0.2-0.6,0.5-0.3,0.7c0.3,0.3,0.6-0.1,0.8-0.3
			C408.1,453.3,409,452.3,410,451.3z M214.5,420.2c-0.1,0-0.2,0.1-0.4,0.1c0.5,0.5,0.6,0.9,0.2,1.3c-0.1,0.1,0,0.3,0.1,0.5
			c0.7,0.7,1.4,1.5,2.2,2.2c0.3,0.3,0.7,0.2,1-0.1c0.2-0.2,0.4-0.4,0.2-0.7C216.6,422.3,215.5,421.3,214.5,420.2z M307.7,330.9
			c0.4,0.4,0.9,0.9,1.3,1.3c0.3,0.3,0.6,0.3,0.9,0c0.2-0.3,0.3-0.5,0.1-0.8c-0.9-0.9-1.7-1.8-2.8-2.5c-0.3-0.2-0.5-0.1-0.7,0.1
			c-0.2,0.3-0.1,0.5,0.1,0.7C306.8,330,307.2,330.5,307.7,330.9z M419,494.3c-0.5,0.5-1.1,1.1-1.6,1.6c-0.2,0.2-0.3,0.5-0.1,0.7
			c0.2,0.2,0.4,0.1,0.6-0.1c0.9-0.7,1.5-1.6,2.4-2.3c0.3-0.2,0.7-0.3,0.8-0.7c0-0.3,0.6-0.6,0.2-0.9c-0.3-0.2-0.6,0-0.9,0.2
			C420,493.4,419.5,493.8,419,494.3z M218.2,289.8C218.2,289.8,218.2,289.8,218.2,289.8c0.3-0.3,0.5-0.5,0.8-0.8
			c0.3-0.3,0.5-0.5,0.1-0.9c-0.3-0.3-0.5-0.4-0.9-0.2c-0.9,0.5-1.4,1.2-1.9,2c-0.2,0.4,0,0.6,0.2,0.8c0.3,0.3,0.5,0.3,0.8,0
			C217.5,290.5,217.8,290.1,218.2,289.8z M227.6,309.7c-0.1,0.4-1.2,0.6-0.4,1.5c0.6,0.6,1.2,0.7,1.6,0.2c0.3-0.5,1.4-0.8,0.7-1.7
			C228.8,308.8,228.6,308.8,227.6,309.7z M195.4,341.7c-0.5,0.4-0.8,0.8-0.1,1.5c1.1,1.2,1.4-0.2,1.9-0.5c0.7-0.4,0.1-1.2-0.2-1.5
			C196.3,340.5,195.9,341.2,195.4,341.7z M377.3,382.8c-0.1,0-0.2,0-0.2,0.1c-1.1,1.5-1.5,3.4-2.7,4.7c-0.1,0.1-0.1,0.5,0.1,0.6
			c0.3,0.2,0.5-0.1,0.7-0.3c0.7-1.1,1.4-2.3,2-3.4C377.3,384,377.7,383.4,377.3,382.8z M235.5,303.1c-2,1.5-3.7,3.3-5.5,5
			c-0.2,0.2-0.3,0.4-0.1,0.6c0.2,0.2,0.4,0,0.6-0.2c1.7-1.7,3.3-3.3,5-5C235.6,303.5,235.7,303.4,235.5,303.1z M188.7,349.9
			c2-2,4-4,5.9-5.9c-0.1-0.1-0.2-0.2-0.3-0.3C192.5,345.8,190.3,347.5,188.7,349.9z M246.2,284.7c0,0,0.1-0.1,0.1-0.1
			c-2.1-2.1-4.1-4.1-6.2-6.2c0,0-0.1,0.1-0.1,0.1C242.1,280.6,244.2,282.7,246.2,284.7z M291.6,443c-0.2,0.2-0.4,0.4-0.6,0.6
			c-0.1,0.1-0.3,0.3-0.2,0.5c0.1,0.1,0.3,0.1,0.5,0.1c1-0.5,1.9-0.9,2.8-1.4c0.2-0.1,0.3-0.3,0.1-0.5c-0.1-0.2-0.3-0.3-0.4-0.2
			C293.1,442.5,292.1,442.2,291.6,443z M354,531.6c-1.6-1.2-2.9-2.8-5-3.6C349.9,529.3,353.1,531.6,354,531.6z M290,428.9
			c-0.4-0.4-0.8-0.8-1.2-1.2c-0.2-0.2-0.4-0.4-0.6-0.3c-0.3,0.2-0.1,0.6,0,0.7c0.8,0.9,1.6,1.8,2.7,2.4c0.2,0.1,0.3,0.1,0.4-0.1
			c0.1-0.2,0-0.3-0.1-0.4C290.8,429.6,290.4,429.2,290,428.9z M290.9,350.7c2.4-1.3,4.7-3,7.2-4.1
			C295.5,347.5,293.1,348.9,290.9,350.7z M168.6,377.1c-0.5,0.1-0.4-1-0.9-0.7c-0.6,0.4,0,1,0.1,1.4c0,0.1,0.1,0.2,0.1,0.3
			c0.3,0.5,0.8,0.4,1.2,0.4c0.2,0,0.4,0,0.4-0.2c0.1-0.5-0.4-0.5-0.6-0.7C168.9,377.5,168.8,377.4,168.6,377.1z M374.9,539.1
			c0.1,0.1,0.1,0.1,0.2,0.2c1.3-1.2,2.7-2.3,3.6-4C377.5,536.6,376.2,537.8,374.9,539.1z M328.4,406.8c-0.1,0.1-0.2,0.2-0.4,0.4
			c-0.2,0.2-0.5,0.4-0.3,0.7c0.2,0.3,0.5,0,0.7-0.1c0.5-0.1,0.9-0.4,1.2-0.7c0.3-0.3,1.1-0.4,0.9-0.8c-0.2-0.3-1.1-0.3-1.7,0.1
			C328.7,406.5,328.6,406.6,328.4,406.8z M263,283.1c0.2,0.2,0.4,0.4,0.6,0.6c0.2,0.2,0.4,0.3,0.5,0c0.3-0.7-0.1-1.2-0.6-1.6
			c-0.4-0.3-0.8-0.8-1.2-0.3C262,282.4,262.7,282.6,263,283.1C263,283,263,283,263,283.1z M166.9,364.3c0.2-0.5,0.6-0.9,1-1.3
			c0.1-0.1,0.2-0.3,0.2-0.4c-0.1-0.2-0.3-0.2-0.5-0.2c-0.9,0.1-1.3,0.8-1.4,1.6c0,0.2-0.2,0.5,0.2,0.6
			C166.6,364.7,166.7,364.5,166.9,364.3z M279.4,382.8C279.4,382.8,279.4,382.8,279.4,382.8c0.1,0.1,0.3,0.3,0.4,0.4
			c0.2,0.2,0.4,0.5,0.7,0.2c0.3-0.2,0.1-0.5,0-0.7c-0.2-0.5-0.6-0.8-1-1.2c-0.2-0.2-0.5-0.1-0.7,0.1c-0.2,0.2-0.2,0.4,0,0.6
			C279,382.5,279.2,382.6,279.4,382.8z M307.9,354.7c-0.1-0.1-0.2-0.2-0.3-0.3c-0.2-0.2-0.5-0.6-0.8-0.3c-0.4,0.4,0.1,0.6,0.3,0.9
			c0.1,0.1,0.1,0.1,0.2,0.2c0.4,0.3,0.8,1,1.2,0.5C308.9,355.3,308.1,355,307.9,354.7z M299.1,430c0.3,0.7,0.9,0.6,1.5,0.5
			c0.3,0,0.8,0.1,0.7-0.4c-0.1-0.4-0.4-0.7-0.8-0.5C300,429.7,299.5,429.6,299.1,430z M310.3,421.2c0,0,0.1-0.1,0.1-0.1
			c-0.9-0.9-1.8-1.8-2.8-2.8c0,0-0.1,0.1-0.1,0.1C308.5,419.3,309.4,420.2,310.3,421.2z M207.8,304.9c-0.1,0.1-0.1,0.1-0.2,0.2
			c0.8,0.8,1.6,1.6,2.4,2.4c0.1-0.1,0.1-0.1,0.2-0.2C209.4,306.4,208.7,305.6,207.8,304.9z M234.3,427.5c-0.1-0.1-0.2-0.2-0.4-0.4
			c-0.2-0.2-0.5-0.4-0.7-0.2c-0.3,0.2,0.1,0.5,0.2,0.7c0.2,0.2,0.4,0.4,0.6,0.6c0.2,0.2,0.4,0.6,0.7,0.3c0.3-0.2-0.1-0.5-0.3-0.8
			C234.5,427.7,234.4,427.6,234.3,427.5z M297.7,483.8c-0.1,0.1-0.1,0.2-0.2,0.2c0.4,0.4,0.9,0.9,1.3,1.3c0.2,0.2,0.3,0.3,0.5,0.1
			c0.2-0.2,0-0.4-0.1-0.5C298.9,484.4,298.2,484.2,297.7,483.8z M261.5,400.3c-0.3-0.1-0.5-0.7-0.8-0.3c-0.2,0.3,0.2,0.7,0.4,1
			c0.2,0.3,0.6,0.2,0.7,0.1C262.1,400.8,261.7,400.6,261.5,400.3z M377.4,386.6c0.1-0.6,0.7-1,0.6-1.6c0-0.2-0.4-0.1-0.5,0.1
			c-0.1,0.6-0.8,0.9-0.5,1.6C377,386.8,377.2,386.8,377.4,386.6z M215.7,311.7c0.3,0.9,0.9,1.5,1.7,1.8
			C217.1,312.7,216.1,312.5,215.7,311.7z M305.2,328.4c0.2-0.4,0.1-0.7-0.1-0.9c-0.2-0.3-0.4-0.7-0.9-0.6c-0.1,0-0.2,0.1-0.2,0.2
			c0,0.4,0.3,0.6,0.6,0.8C304.8,328,305,328.1,305.2,328.4z M370,552.5c0.5-0.5,1-1,1.5-1.5C370.7,551.2,370.2,551.7,370,552.5z
			 M209.5,305.5c0.4,0.6,0.8,1.2,1.5,1.4C210.7,306.2,210.3,305.7,209.5,305.5z M249.9,281.3c0.6-0.2,1.1-0.3,1.6-0.8
			C250.7,280.4,250.2,280.6,249.9,281.3z"/>
		<path stroke="#000000" stroke-width="3" stroke-miterlimit="10" d="M362.1,512.9c-0.8-0.8-1.7-1.7-2.5-2.5c-1-1-1-1.5,0-2.5
			c0.9-0.9,1.9-1.8,2.7-2.8c0.5-0.6,0.9-0.5,1.4,0c2,2,3.8,4.3,5.9,6.2c0.3,0.2,0.5,0.5,0.1,0.8c-1.3,1-2,2.7-3.5,3.6
			c-0.6,0.4-0.9,0.3-1.3-0.1C364,514.7,363,513.8,362.1,512.9C362.1,512.9,362.1,512.9,362.1,512.9z M364.1,507.9
			c-0.5-0.5-0.9-0.9-1.4-1.4c-0.2-0.2-0.4-0.4-0.6-0.3c-0.7,0.4-1.4,1.1-1.8,1.8c-0.3,0.5,0.4,0.8,0.7,1.2c1.4,1.4,2.8,2.8,4.1,4.4
			c0.6,0.8,1.2,0.8,1.9,0.1c0.3-0.3,0.5-0.5,0.8-0.8c0.4-0.3,0.3-0.6,0-0.9C366.4,510.7,365.4,509.1,364.1,507.9z M365.3,515.2
			c0.1,0,0.1-0.1,0.2-0.1c-0.1-0.2-0.1-0.5-0.2-0.6c-1.8-1.8-3.6-3.6-5.4-5.4c-0.1-0.1-0.4-0.2-0.5-0.1c-0.2,0.2,0,0.4,0.1,0.5
			C361.5,511.4,363.4,513.3,365.3,515.2z M363.1,505.7c1.7,2.2,3.6,4.2,5.7,6C367.1,509.6,365.3,507.4,363.1,505.7z"/>
		<path stroke="#000000" stroke-width="3" stroke-miterlimit="10" d="M396.9,478.5c0.8,1,2.1,1.8,3,3.2c0.3,0.5,0.2,0.8-0.1,1.1
			c-1,1-2,1.9-2.9,2.9c-0.4,0.5-0.7,0.4-1.2,0c-1.6-1.6-3.2-3.2-4.8-4.8c-0.5-0.5-1.3-0.6-1.5-1.4c-0.1-0.4-0.2-0.7,0.1-1
			c1-1,2-2,3-3c0.5-0.5,0.9-0.4,1.4,0C394.8,476.4,395.7,477.4,396.9,478.5z M393.3,481.6c0.6,0.6,1.2,1.2,1.8,1.8
			c1.4,1.4,1.4,1.4,2.8,0c0.6-0.6,0.6-1,0-1.6c-1.5-1.4-2.9-2.9-4.4-4.3c-1.1-1.1-1.1-1.1-2.3-0.2c-0.1,0.1-0.2,0.3-0.3,0.4
			c-1.1,0.6-0.5,1.1,0.1,1.7C391.8,480.1,392.6,480.9,393.3,481.6z M399.2,482.1c0.1-0.1,0.1-0.1,0.2-0.2c-1.8-1.9-3.6-3.8-5.4-5.7
			c-0.2-0.2-0.6-0.5-1-0.2C395.1,478,397.1,480.1,399.2,482.1z"/>
		<path stroke="#000000" stroke-width="3" stroke-miterlimit="10" d="M233.8,348.9c1.2,0.6,1.8-0.3,2.3-1c0.7-1,1.6-1.8,2.5-2.7
			c2.6-2.6,5.2-5.3,7.8-7.8c3-3,6.1-6,9.2-8.9c1.8-1.7,1.3-3.1,0.5-4.7c-0.5-0.9-1.2-1.7-1.9-2.4c-2-2.1-3.7-4.6-5.9-6.5
			c-0.1-0.1-0.3-0.2-0.3-0.4c-0.1-0.2-0.3-0.5-0.1-0.6c0.2-0.2,0.5-0.1,0.7,0.1c0.6,0.7,1.3,1.4,1.8,2.2c0.9,1.3,2.1,2.3,3.1,3.5
			c1,1.2,2.1,2.4,3.2,3.6c1.6,2,1.5,4.7-1.3,6.5c-0.3,0.2-0.6,0.4-0.9,0.7c-4.8,4.8-9.6,9.7-14.5,14.4c-2.8,2.6-5.2,5.6-8,8.2
			c-3,2.8-6,5.5-8.8,8.5c-0.5,0.5-0.8,1.1-1.3,1.5c-2.3,2-4.4,4.3-6.7,6.3c-0.9,0.8-1.7,1.6-2.6,2.4c-0.7,0.7-2.4,0.9-3.3,0.4
			c-1.1-0.6-2.1-1.3-3-2.1c-1.4-1.3-3.1-2.4-4.5-3.7c-1.5-1.4-3.4-2.4-4.7-4.1c0.3-0.3,0.6-0.2,0.8,0c1.3,1.3,2.8,2.4,4.3,3.6
			c2,1.7,3.9,3.5,6.2,4.9c2,1.2,2.9,1,4.7-0.5c2.7-2.3,5-5,7.6-7.3c1.9-1.6,3.5-3.4,5.3-5.1c2.6-2.5,5.3-4.8,7.8-7.4
			C234.2,350,234.4,349.6,233.8,348.9z"/>
		<path stroke="#000000" stroke-width="3" stroke-miterlimit="10" d="M411.7,455.7c1.7-1.9,4.2-3.7,6.1-5.9c0.4-0.5,0.7-0.5,1.2,0
			c1.6,1.7,1.7,1.3,0.1,2.8c-0.4,0.4-0.7,0.7-1.1,1.1c-2.5,2.4-4.9,4.7-7.4,7.1c-0.6,0.6-0.9,0.4-1.3-0.1c-0.1-0.1-0.1-0.3-0.2-0.5
			c-0.9-1-0.9-1,0.1-2C409.9,457.5,410.7,456.7,411.7,455.7z M415.3,455.3C415.3,455.3,415.3,455.3,415.3,455.3
			c1.2-1.2,2.4-2.4,3.6-3.5c0.4-0.4,0.5-0.7,0.1-1.1c-0.4-0.5-0.7-0.3-1.1,0.1c-1.2,1.2-2.4,2.4-3.7,3.6c-1.4,1.2-2.7,2.6-4,3.9
			c-0.1,0.1-0.3,0.3-0.5,0.4c-0.5,0.1-0.6,0.5-0.6,0.9c0,0.4,0.4,0.7,0.7,0.8c0.4,0.2,0.8-0.2,1-0.4
			C412.3,458.3,413.8,456.8,415.3,455.3z"/>
		<path stroke="#000000" stroke-width="3" stroke-miterlimit="10" d="M311.4,423.1c0.6-0.4,0.6-1.4,1.5-1.6
			C312.6,422.3,312.2,422.9,311.4,423.1z"/>
		<path stroke="#000000" stroke-width="3" stroke-miterlimit="10" d="M250.8,307.7c-0.5-0.5-0.7-1-0.2-1.4c0.5-0.4,0.9-0.2,1.3,0.2
			c0.4,0.4,0.6,0.8,0.1,1.3C251.5,308.2,251.1,308.2,250.8,307.7z"/>
		<path stroke="#000000" stroke-width="3" stroke-miterlimit="10" d="M248.9,304.2c-0.4,0.4-0.9,0.4-1.3,0c-0.4-0.4-0.4-0.8-0.1-1.2
			c0.4-0.5,0.9-0.3,1.3,0.1C249.1,303.4,249.3,303.8,248.9,304.2z"/>
		<path stroke="#000000" stroke-width="3" stroke-miterlimit="10" d="M188.6,362.7c0.6,0.4,0.7,0.9,0.3,1.5c-0.5,0.6-1,0.3-1.4-0.1
			c-0.5-0.4-0.4-1.1-0.1-1.6C187.7,362.1,188.3,362.2,188.6,362.7z"/>
		<path stroke="#000000" stroke-width="3" stroke-miterlimit="10" d="M192.1,367c-0.4,0.4-0.9,0.5-1.2,0.2c-0.3-0.3-0.7-0.8-0.2-1.3
			c0.4-0.4,0.8-0.5,1.3-0.1C192.4,366.1,192.4,366.6,192.1,367z"/>
		<path stroke="#000000" stroke-width="3" stroke-miterlimit="10" d="M375.3,543.2c-0.5-0.5-0.5-0.9,0-1.4c0.4-0.4,0.9-0.3,1.2,0.1
			c0.5,0.5,0.3,1-0.2,1.5C375.9,543.8,375.6,543.5,375.3,543.2z"/>
		<path stroke="#000000" stroke-width="3" stroke-miterlimit="10" d="M383.1,534.5c0.5,0.4,0.5,0.8,0,1.3c-0.4,0.4-0.7,0.4-1,0
			c-0.4-0.5-0.5-1-0.1-1.4C382.3,533.9,382.8,534.1,383.1,534.5z"/>
		<path stroke="#000000" stroke-width="3" stroke-miterlimit="10" d="M419,500.5c-0.5,0.4-0.9,0.3-1.3,0c-0.4-0.3-0.4-0.8-0.1-1.2
			c0.4-0.4,0.8-0.4,1.2,0C419.2,499.6,419.2,500.1,419,500.5z"/>
		<path stroke="#000000" stroke-width="3" stroke-miterlimit="10" d="M425.7,492.5c0.4,0.4,0.6,0.8,0.2,1.2c-0.4,0.3-1,0.4-1.3,0
			c-0.3-0.3-0.6-1-0.1-1.4C424.9,492,425.4,492.1,425.7,492.5z"/>
		<path stroke="#000000" stroke-width="3" stroke-miterlimit="10" d="M257.5,397c-0.5-0.5-0.9-0.9-1.4-1.4c-0.1-0.2-0.4-0.3-0.2-0.6
			c0.3-0.3,0.4,0,0.6,0.1c1,1,1.9,1.9,2.9,2.9c0.1,0.1,0.3,0.4,0.1,0.5c-0.1,0.1-0.4,0.1-0.5-0.1C258.5,398,258,397.5,257.5,397
			C257.5,397,257.5,397,257.5,397z"/>
		<path stroke="#000000" stroke-width="3" stroke-miterlimit="10" d="M302.9,351.7c-0.5-0.5-0.9-0.9-1.4-1.4
			c-0.1-0.1-0.3-0.3-0.1-0.5c0.2-0.2,0.4,0,0.5,0.1c0.9,0.9,1.7,1.8,2.8,2.5c0.3,0.2,0.5,0.5,0.2,0.8c-0.2,0.2-0.6,0-0.8-0.2
			C303.8,352.5,303.3,352.1,302.9,351.7z"/>
		<path stroke="#000000" stroke-width="3" stroke-miterlimit="10" d="M218.4,293.1c1.9-1.9,3.7-3.7,5.6-5.6c1.4-1.4,3.4-1,4.2,0.8
			c0.3,0.8,0.1,1.7-0.5,2.1c-1,0.8-2,1.7-2.8,2.6c-2.3,2.5-5,4.6-7.4,7.1c-0.8,0.8-1.2,1.8-2.2,2.4c-0.8,0.5-1.5,0.3-2.1,0
			c-0.7-0.4-1.2-1.1-1.1-2c0.1-0.7,0.3-1.3,0.8-1.8C214.7,296.9,216.5,295,218.4,293.1z M219.4,297.1c0.3-0.3,0.6-0.7,0.9-0.9
			c0.5-0.4,0.5-0.8,0-1.2c-0.3-0.3-0.6-0.6-0.9-0.9c-0.5-0.5-0.8-0.3-1.2,0.1c-0.9,0.9-1.9,1.8-2.7,2.8c-0.9,1-2.1,1.7-2.7,3
			c-0.3,0.6-0.2,1.4,0.3,1.7c0.6,0.4,1.3,0.5,1.9-0.2C216.4,299.9,217.9,298.5,219.4,297.1z M225.8,291c0.3-0.3,0.6-0.6,0.9-0.9
			c0.6-0.6,0.7-1.2,0.3-1.9c-0.3-0.6-1.4-0.7-2.1-0.3c-1.1,0.6-1.9,1.5-2.8,2.4c-0.3,0.3-0.3,0.6,0,0.9c1.6,1.6,1.5,2.1,3.3,0.2
			C225.6,291.1,225.7,291,225.8,291z M222.5,292.2c-1-1-1.3-1-2.3,0c-0.7,0.7-0.6,1.2,0.2,2c0.7,0.6,1.5,0.6,2.2,0
			C223.1,293.6,223,292.8,222.5,292.2z"/>
		<path stroke="#000000" stroke-width="3" stroke-miterlimit="10" d="M223.4,297.1c1.7-1.7,3.4-3.4,5.1-5.1c0.6-0.6,2.1-1,2.7-0.5
			c0.8,0.5,1.5,1.2,1.3,2.3c-0.1,0.5-0.3,0.9-0.7,1.2c-3.7,3.8-7.8,7.1-11.3,11c-1.1,1.2-2.8,1-3.6,0c-0.8-1-0.6-2.5,0.6-3.3
			c0.6-0.4,1.2-1,1.7-1.6C220.7,299.8,222.1,298.4,223.4,297.1z M220.1,301.2C220.1,301.2,220.1,301.2,220.1,301.2
			c-0.7,0.8-1.5,1.5-2.2,2.3c-0.6,0.6-0.8,1.5-0.3,2.1c0.4,0.5,1.7,0.5,2.3,0c0.4-0.4,0.8-0.7,1.2-1.2c1.1-1.3,2.6-2.3,3.8-3.5
			c0.5-0.5,0.5-1,0-1.5c-0.2-0.2-0.5-0.5-0.7-0.7c-0.5-0.5-1-0.5-1.5,0C221.8,299.6,221,300.4,220.1,301.2z M230,295.7
			C230,295.7,230,295.7,230,295.7c0.4-0.4,0.9-0.8,1.3-1.3c0.5-0.6,0.5-1.3,0-1.9c-0.5-0.6-1.3-0.7-1.8-0.2
			c-0.9,0.8-1.8,1.4-2.6,2.2c-0.4,0.4-0.5,0.9,0,1.4c1.4,1.5,1.4,1.5,2.9,0C229.8,295.9,229.9,295.8,230,295.7z M224.9,298.6
			c1.1,1.1,1.1,1.1,2,0.2c1-1,1-1,0-2c-1.1-1.1-1.3-1.1-2.2-0.1C223.8,297.6,223.8,297.6,224.9,298.6z"/>
		<path stroke="#000000" stroke-width="3" stroke-miterlimit="10" d="M305.1,424.9c-1.5,1.5-1.5,1.5-3.1-0.1c-0.4-0.4-1-0.6-0.9-1.4
			c0-0.3-0.4-0.3-0.7-0.3c-1.5-0.1-2.6-1.1-2.8-2.5c-0.1-1.2,1.1-2.6,2.4-2.8c1.4-0.2,3.2,0.6,3.2,1.8c-0.1,1.4,1.1,1.5,1.6,2.1
			c0.3,0.4,0.6,0.9,1.2,1.1c0.3,0.1,0.3,0.7-0.1,1.1C305.7,424.3,305.4,424.6,305.1,424.9z M299.1,421.9c0.9,0.9,2,0.8,3.1-0.1
			c0.9-0.8,0.6-2.2,0.1-2.7c-0.6-0.7-2.5-0.4-3.3,0.3C298.1,420.2,298.2,420.9,299.1,421.9z M304.4,424.4
			C304.4,424.4,304.4,424.4,304.4,424.4c0.2-0.1,0.3-0.3,0.5-0.4c0.3-0.3,0.7-0.6,0.4-1c-0.4-0.5-0.8-1.1-1.4-1.2
			c-0.3-0.1-0.4,0.2-0.4,0.5c0,0.4,0.3,0.6,0.5,0.8c0.3,0.3,0.6,0.6,0.2,1c-0.4,0.4-0.8,0.5-1.3,0.3c-0.4-0.1-0.5-1-1-0.5
			c-0.3,0.4,0.5,0.4,0.7,0.8c0.3,0.9,0.9,0.8,1.4,0.2C304.1,424.7,304.3,424.5,304.4,424.4z M302.4,422.8c0.2,0.6,0.5,0.9,1,1
			c0.1,0,0.3-0.1,0.2-0.3C303.4,423,303.2,422.6,302.4,422.8z"/>
		<path stroke="#000000" stroke-width="3" stroke-miterlimit="10" d="M369.8,530.1c-0.4-0.4-0.7-0.7-0.1-1.3c0.5-0.5,1-0.5,1.4,0
			c0.4,0.5,0.5,1,0,1.5C370.5,531,370.2,530.5,369.8,530.1z"/>
		<path stroke="#000000" stroke-width="3" stroke-miterlimit="10" d="M374,534.4c-0.4-0.3-0.6-0.6-0.1-1.1c0.4-0.4,0.7-0.4,1.1,0
			c0.4,0.4,0.4,1,0.1,1.3C374.9,535,374.4,534.8,374,534.4z"/>
		<path stroke="#000000" stroke-width="3" stroke-miterlimit="10" d="M232.4,285.8c-1.2-0.5-0.6-1.5-0.8-2.3
			c-0.3-1.2,0.3-2.5-0.1-3.8c-0.1-0.4,0.3-1,0.8-1.2c0.4-0.2,0.8-0.2,1.2,0.3c0.3,0.4,0.7,0.2,1,0.2c1,0.1,2.1,0.2,3.1,0.4
			c0.8,0.2,1.5,0.9,1.7,1.5c0.4,1.3,1.2,2.5,0.9,4c0,0.2,0,0.4,0.1,0.6c0.5,0.6,0.3,1-0.2,1.5c-0.5,0.4-0.9,0.6-1.4,0.2
			c-0.1-0.1-0.3-0.2-0.4-0.1c-1.6,0.3-3.1-0.4-4.6-0.3C232.9,286.6,232.8,286.1,232.4,285.8z M236.5,286.1c0.1,0.1,0.2,0.2,0.3,0.2
			c0.8,0,1.6-0.4,2.4,0c0.3,0.1,0.3-0.2,0.3-0.5c-0.2-1.8-0.6-3.5-1.4-5.1c-0.1-0.3-0.4-0.6-0.8-0.6c-1.3,0-2.5-0.5-3.8-0.7
			c-1.3-0.2-1.3-0.3-1,0.9c0.1,0.3,0,0.8-0.1,1.1c-0.2,0.5-0.2,0.9-0.2,1.4c0.1,0.7,0.4,1.3,0.3,2.1c-0.1,0.5,0.6,0.8,1.1,0.9
			c0.4,0.1,0.9,0.1,1-0.2c0.2-0.4-0.4-0.6-0.6-0.9c-0.1-0.1-0.1-0.1-0.2-0.2c-0.8-1.1-1-2.2-0.4-3.1c0.5-0.8,1.5-1,2.3-0.9
			c1.2,0.2,2,1,2.5,2.1c0.6,1.3,0.2,2.2-0.7,3C237.3,285.8,236.8,285.6,236.5,286.1z M236.8,281.8c-0.8-0.8-1.8-0.9-2.5-0.2
			c-0.6,0.5-0.4,1.9,0.4,2.8c0.6,0.7,2.3,0.8,2.9,0.3C238.1,284.1,237.7,282.7,236.8,281.8z"/>
		<path stroke="#000000" stroke-width="3" stroke-miterlimit="10" d="M413.6,486.4c0.4,0.5,0.5,0.9,0.1,1.4c-0.4,0.4-0.9,0.4-1.3,0
			c-0.4-0.4-0.4-0.8,0-1.3C412.7,486.1,413.1,486.1,413.6,486.4z"/>
		<path stroke="#000000" stroke-width="3" stroke-miterlimit="10" d="M417.6,490.8c0.2,0.2,0.2,0.6-0.2,1c-0.4,0.3-0.8,0.3-1.2-0.1
			c-0.3-0.4-0.2-0.8,0.2-1.2C416.8,490.1,417.1,490.3,417.6,490.8z"/>
		<path stroke="#000000" stroke-width="3" stroke-miterlimit="10" d="M276.5,405.2c0.5,0.5,0.6,1,0.1,1.4c-0.4,0.3-0.8,0.3-1.2-0.1
			c-0.5-0.5-0.3-1.1,0-1.5C275.7,404.6,276.2,404.8,276.5,405.2z"/>
		<path stroke="#000000" stroke-width="3" stroke-miterlimit="10" d="M284.9,397c-0.3-0.3-0.5-0.8-0.1-1.2c0.4-0.4,0.9-0.3,1.3,0
			c0.5,0.4,0.3,1.1,0,1.5C285.7,397.7,285.3,397.4,284.9,397z"/>
		<path stroke="#000000" stroke-width="3" stroke-miterlimit="10" d="M281,402.2c-0.4,0.3-0.8,0.3-1,0c-0.3-0.4-0.4-0.9,0.1-1.3
			c0.3-0.3,0.7-0.2,1,0.1C281.4,401.4,281.3,401.8,281,402.2z"/>
		<path stroke="#000000" stroke-width="3" stroke-miterlimit="10" d="M319.4,394.7c0.8-0.8,1.7-0.9,2.3-0.4c0.8,0.8,0.7,1.7-0.2,2.6
			c-0.7,0.7-1.6,0.8-2.3,0.1C318.5,396.3,318.5,395.5,319.4,394.7z M319.7,395.2c-0.1,0.2-0.5,0.4-0.2,0.6c0.3,0.2,0.8,0.2,1.1-0.1
			c0.2-0.2,0.5-0.7,0.2-0.9C320.5,394.5,320,394.8,319.7,395.2z"/>
	</g>
	<g>
		<rect x="500" y="200" fill="none" width="300" height="300"/>
		<path d="M571.2,357.7v-2c0-24.7,11.1-44.9,41.9-67.3c20.1-14.7,26.1-19.7,26.1-32.1c0-12.3-6-19.2-17.9-19.2
			c-13.9,0-18.9,8.5-20.9,20.9h-29.8c2-24.5,18.1-45,50.7-45c36.5,0,49,21.7,49,43c0,20.7-8.9,30.7-35.1,49.1
			c-17.5,12.3-24.6,20.4-27,26.8h67.3l-3.8,25.8H571.2z"/>
		<path d="M751.5,357.7v-31.9h-64.3v-26.9l59.3-83.2h33.7v85.2h17.1l-2.8,25h-14.3v31.9H751.5z M751.5,275.4c0-15.4,0-24,0.6-32.9
			c-5.6,11.9-24.2,39-37.5,58.2h36.9V275.4z"/>
	</g>
</g>
<g id="text">
	<path id="dir" d="M450.8,534.7l35.5,66l-66-35.5c0,0,16.3-6.1,20.3-10.1C444.7,551,450.8,534.7,450.8,534.7z"/>
	<g>
		<path d="M351.2,273.2c-12.7,12.7-23.2,14.4-36.7,0.9c-2.8-2.8-5.7-6.2-7-8.3l11.1-11.1c0.9,1.2,2.9,3.4,4.4,4.9
			c4.6,4.6,8.3,2.8,11.9-0.9l35.4-35.4l15.4,15.4L351.2,273.2z"/>
		<path d="M372,295.8c-4,4-6.5,9.6-2.1,14c3.5,3.5,6,3,8.9,1.7l14.6,14.6c-6.8,3.9-19.6,7.6-33.7-6.6c-15.1-15.1-10.5-30.9,0-41.3
			c12.1-12.1,27.7-14.9,42.3-0.4c15.5,15.5,9.7,30.7-0.2,40.7c-1.3,1.3-2.4,2.3-3.6,3.3L372,295.8z M391,299.3
			c3.7-3.8,5.8-8,1.5-12.3c-4-4-8.4-2.6-12.7,1.1L391,299.3z"/>
		<path d="M418.4,342.2c-4,4-6.5,9.6-2.1,14c3.5,3.5,6,3,8.9,1.7l14.6,14.6c-6.8,3.9-19.6,7.6-33.7-6.6c-15.1-15.1-10.5-30.9,0-41.3
			c12.1-12.1,27.7-14.9,42.3-0.4c15.5,15.5,9.7,30.7-0.2,40.7c-1.3,1.3-2.4,2.3-3.6,3.3L418.4,342.2z M437.4,345.7
			c3.7-3.8,5.8-8,1.5-12.3c-4-4-8.4-2.6-12.7,1.1L437.4,345.7z"/>
		<path d="M451.9,404.2l-17.5,17.5l-14.8-14.8l43.9-43.9c3.6-3.6,8-8,10.7-10.9l14.5,14.5c-0.8,1.2-2.9,3.7-4.1,4.9
			c4-0.8,10.2-0.6,16.7,5.8c8.4,8.4,8.7,22.7-4.3,35.7c-14.8,14.8-30.3,13.6-39.5,4.4C452.5,412.4,451.4,407.8,451.9,404.2z
			 M481.2,398.3c7.4-7.4,7.9-12.4,4.1-16.2c-4.7-4.7-9.3-2.9-16.8,4.6c-6.9,6.9-9,12-4.7,16.3C468.1,407.4,473.5,406,481.2,398.3z"
			/>
	</g>
</g>
<g id="guides">
</g>
<g id="scratch">
</g>
</svg>
