<?xml version="1.0" encoding="utf-8"?>
<!-- Generator: Adobe Illustrator 26.0.2, SVG Export Plug-In . SVG Version: 6.00 Build 0)  -->
<svg version="1.2" baseProfile="tiny" xmlns="http://www.w3.org/2000/svg" xmlns:xlink="http://www.w3.org/1999/xlink" x="0px"
	 y="0px" viewBox="0 0 1000 1000" overflow="visible" xml:space="preserve">
<g id="bg">
</g>
<g id="counters">
	<g>
		<path d="M838.7,406.3c0,0.8,0.3,1.4,0.9,1.8c0.9,0.6,1.3-0.1,1.6-0.8c0.3-0.6,0.5-1.5,1.4-0.9c0.5,0.4,0.9,1.1,1.1,1.7
			c0.2,0.9-0.4,1.2-1.2,1.2c-3.3,0.2-6.7,0.6-10,0.4c-0.9,0-0.6-1.8,0-2.8c1.5-0.3,1.9,2.4,3.2,1.4c1.1-0.8,1.1-2.3,0.9-4
			c-0.2-2,1.5-4.6-0.2-6.3c-1.7-1.6-4.3-0.6-6.6-0.6c-9.9-0.1-19.8,0-29.7,0c-8.8,0-17.6,0.1-26.4,0c-2.7,0-3.7,0.8-3.7,3.6
			c0.1,11.9,0.1,23.8,0,35.7c0,2.1,0.6,3.4,2.7,4.1c4.1,1.4,8.2,2.7,12.2,4.3c5.8,2.4,11.5,5.1,17.3,7.5
			c12.9,5.3,25.7,10.5,38.6,15.8c5.6,2.3,5.8,2.2,5.9-3.9c0.1-4.8,0-9.5,0.8-14.3c0,5.6-0.1,11.1,0,16.7c0.1,4.5,1.2,5.3,5.4,4.3
			c3.8-1,7.7-1.5,11.5-3.5c-3.3-2-6.8-3.8-8.1-7.5c-2.8-7.7-0.1-15.4,8.4-17.5c6.9-1.7,9.3-4.3,8.8-11.3c-0.7-9.6-0.2-19.2-0.6-28.8
			c-0.1-2.7-1.5-4.6-5.4-4.6c-7,0.1-14,0.1-20.9,0.3c1.9,10.9,0.5,21.9,0.1,32.9c0-3.6-0.2-7.3,0-10.9c0.4-5.6-0.6-11.2-0.2-16.8
			c0.3-4.2-2.4-6.1-7.6-6.1c1.2-1.2,1.5-4.6,4.5-1.8c0.4,0.3,1.4,0.1,2.1,0c7.1-0.5,14.3-0.5,21.4,0c7.4,0.5,8.7,2.1,8.7,9.7
			c0,2-0.5,4,1.3,5.9c5.1,5.4,7,18.5,2.9,24.7c-2.6,3.9-1.7,6.5,0.1,10c1.4,2.7,3.1,2.9,5.3,2.3c2.3-0.6,4.2-1.3,4.1-4.7
			c-0.3-10.2-0.1-20.4-0.1-30.6c0-1.1-0.6-2.7,0.5-3.2c2.9-1.3,6.1-0.8,9.1-0.3c2.3,0.4,1.4,2.8,1.4,4.3c0,28.5,0,56.9,0,85.4
			c0,24.9,0,49.8,0,74.8c0,34.8,0,69.7,0,104.5c0,6.4,0,6.1-6.6,6.5c-3.9,0.2-4.7-1-4.6-4.7c0.2-11.9,0.1-23.8,0.1-35.7
			c0-1,0.6-2.5-0.9-2.9c-1.8-0.5-2.1,1.3-2.3,2.3c-0.7,3-2.6,5.2-4.3,7.5c-0.5,0.8-0.9,1-0.5,2c2.1,5,1,10.3,1.2,15.4
			c0.2,3.7-1.3,6.9-4.3,9c-1.8,1.3-2.6,2.7-2.4,5c0.2,2.1,0,4.2-0.1,6.4c-0.2,3.2-4,6.7-7.3,6.7c-8.4,0.2-16.8,0.2-25.2,0.7
			c-2.8,0.2-3-0.8-2.6-2.9l0,0c3.6,1.3,4.2-2,6.6-4.2c-1.9,3.7-0.1,3.9,2.4,3.9c5.4,0,10.9-0.1,16.2,0.4c4.8,0.4,8.1-3.2,8.1-8.2
			c0.1-10.1-1-20.2,0-30.2c0.3-2.9-0.2-4.7-3.4-5.6c-3.8-1.1-7.2-2.9-9-6.9c-2.8-6.4-0.1-11.5,4-16.8c-6.1,1.4-11.5,1.2-16.8-2.2
			c-1.1-0.7-3.1-2.3-5.7-1.1c-17.6,7.7-35.2,15.2-52.9,22.7c-2.3,1-3,2.2-3,4.6c0.1,12,0,24.1,0.1,36.1c0,2.5-1.1,5.6,0.6,7.4
			c1.4,1.5,4.3-0.3,6.3-0.1c10.7,1.3,21.4,0.1,32.1,0.6c2.5,0.1,5.1,0,7.7,0c0.8,0,2.3-0.8,1.9,1.5c-0.4,1.9-0.9,1.4-2,0.9
			c-0.6-0.3-1.4-0.2-2.1-0.2c-10.3,0.1-20.5,0.3-30.8,0.3c-63.3,0-126.7,0-190,0c-3.3,0-6.5-0.1-9.8,0c-1,0-2.4-0.6-2.7,1.2
			c-0.5,2.6-2.6,2.2-4.4,2.2c-88.1,0-176.3,0-264.4,0c-1,0-2,0-3,0c-0.8,0-1.8,0.1-2-1.1c-0.5-3-2.8-2.3-4.6-2.3
			c-15.1,0-30.2-0.1-45.3,0c-18.8,0.1-37.5,0.2-56.3,0.4c-14.7,0.1-29.4,0.3-44.1,0.4c-2.5,0-4.8-1-4.4-4.2c0.3-2.7-1.5-3.1-3.4-3.1
			c-4.4-0.1-8.8-0.3-13.1,0.1c-2.8,0.3-5-0.3-6.9-2.1c-4.7-4.3-9.2-8.8-13.9-13c-6.9-6.2-14.1-12.1-20.8-18.5c-3.2-3-7.8-5.2-7.3-11
			c0.5-6.3,0.1-12.7,0.1-19.1c0-1.1,0.4-2.9-0.6-3.2c-4-1.1-2.8-4.1-2.8-6.6c-0.1-18.8,0-37.7,0-56.5c0-3.2-3.4-8.3,4.4-6.8
			c-3.9-5.4-3.8-6.6,0.8-9.9c0.5,3.9,3.3,3.8,6.2,3.7c7.5-0.1,15-0.2,22.5,0.1c3.7,0.1,4.5-1.1,4.4-4.5c-0.2-9.9-0.1-19.8-0.1-29.8
			c0-12.4,0-24.9,0-37.3c0-1.8,0.2-3.4-2.5-3.3c-10.3,0.1-20.7,0-31,0c-2.1,0-3.1,0.8-3.1,3.1c0.3,20.5-0.4,41,0.2,61.6
			c0.1,1.9,3.5,6.4-2.6,6.5c-0.8-3.6,0.8-6.9,0.8-10.5c-0.2-19-0.1-38-0.1-57c0-1.4-0.7-3.3,0.7-4c3.5-1.6,2.7-4.5,2.7-7.2
			c0-5.4,0.1-10.8,0-16.2c0-2.1,0.5-3.7,2-5.2c12.7-12.5,25.3-25.1,37.8-37.8c2.1-2.1,4.3-3.3,7.5-3.1c4.8,0.2,9.6,0,14.5,0.1
			c2.3,0.1,3.7-0.8,3.7-3c-0.1-2.9,1.9-3.2,3.9-3.4c4.5-0.6,8.9,0.1,13.4-0.1c16.9-0.5,33.8-0.4,50.7-0.4c26.9,0,53.8,0,80.7-0.1
			c2.5,0,5.9,1.5,6.5-3.1c0-0.4,1.6-1.1,2.2-0.9c2.1,0.7,4.2-0.2,6.2,0c9.8,1,19.6-0.3,29.5,0.2c10.4,0.5,21-1,31.4-0.2
			c7.7,0.6,15.5,0.3,23.1,0.2c14.4-0.2,28.7,0.3,43.1,0c16.3-0.4,32.6-0.2,48.9-0.4c5.2-0.1,10.4,0,15.6,0c-0.5,3.1-0.7,5.7-0.1,8.5
			c2.4-0.5,0.9-2.4,1.9-3.4c0,3.3,1.4,4.4,4.6,4.3c13.7-0.1,27.4-0.1,41.1,0.1c3.5,0,5.7-0.6,5.2-4.9c0.3,1.3,0.2,2.5,0.3,3.6
			c0.1,1.1,1.3,1.5,1.9,0.9c1.5-1.4,0.5-3.4,0.7-5.2c0.1-1-0.1-2.4-1.4-2c-1.9,0.6-3.5-0.4-5.3-0.4c-13.9,0.1-27.8,0.1-41.7,0.1
			c-2,0-3.9,0.2-5.6,1.6c-0.7-2.2-0.6-3.3,2-3.3c22.1,0.1,44.2,0,66.3,0c1.3,0,3.1-0.1,3.3,1.3c0.5,3.7,3.1,2.9,5.4,2.9
			c59.1,0,118.2,0,177.3,0c4.3,0,8.7,0,13-0.1c9.5,0,19,0.3,28.5-0.2c7.4-0.4,11.2-0.4,16.4,1.8c0.1,0.1,0.3,0,0.4,0
			C838.7,400.3,838.7,403.3,838.7,406.3z M271.3,502.8c0.6-0.2,1.2-0.4,1.9-0.5c0.2,0.2,0.4,0.4,0.6,0.6c1.9,5.2,3,5.7,8.5,3.9
			c0.4-0.1,0.8-0.3,1.1-0.2c1.1,0.5,1.9,2.6,3.3,0.2c1.3-2.2-0.6-4.1-0.4-5.8c0.5-4-1.2-7.1-2.1-10.6c-0.2-0.7,1-0.8,1.6-1.1
			c2.4-1.3,2.5-2.8,0.2-4.4c-1.2-0.9-2.5-1,0-2.6c3.4-2.2,1.2-6.3,1.3-9.5c0-1.8-2-3.3-4.7-3.2c-6.2,0.1-12.7-1.2-18.6,0
			c-4.9,1-9.3-0.8-13.9,0.1c-6.2,1.1-12.3-1.1-18.5-0.2c-1.9,0.3-3.3,1.4-5.1,1.4c-3.2,0.1-6.2-0.3-9.2-1.5
			c-4.6-1.9-8.7,1.4-8.7,7.4c-2.3-3.7-6.5-0.2-9-3.3c1.3-0.6,3.6,0.9,3.7-1.4c0.1-1.2-1.7-1.3-2.9-1.8c-1.9-0.7-4.5,0.1-5.5-0.3
			c-3.3-1.2-6.3,2.1-9.3,0c-0.4-0.3-1.4-0.7-1.5-0.5c-3.7,4.2-7.4-0.3-11.2,0c-3.3,0.3-4.8,1.2-4.8,4.8c0.1,7.9,0,15.8-0.1,23.7
			c0,1.2,0.6,2.5,1.9,1.8c1.2-0.7,2.1-1.4,2.2,0.4c0,1,0,3.3-2.5,2.5c-1.2-0.4-2.1,0.5-1.5,1.3c0.9,1.3-0.7,2.5,0.4,3.6
			c1.3-0.2,2.7-3.6,3.9,0.2c0.2,0.6,2.5-0.6,3.5-1.8c1.4-1.7,2.2-4.5,4.3-0.2c1.2,2.4,4.9,1.8,7.5,1.9c1.5,0.1,3.2-0.3,4.8-0.2
			c2.3,0.2,4.4,0.1,5.1-2.8c0.2-0.9,1.2-2.2,2.5-0.8c3.2,3.6,4.4,3.5,8.1,0.1c0.4-0.4,2.9-2,2.9,1.1c0,0.8,0.7,2.3,1.2,1.8
			c2.6-2.8,3.7-0.9,5.6,0.9c1.5,1.5,2.9-0.2,4-1.6c0.6-0.8,0.9-2.5,2.4-1.1c3.5,3.3,9.9,3.7,14.2,1.3c0.9-0.5,2.1-2.6,3.5-1.1
			c1,1-0.7,1.7-0.9,2.7c2.5-0.9,5.2-1.6,4.8-5.3c-0.1-1,0.4-1.7,1-2.1c0.8-0.6,1,0.5,1.4,1c0.6,0.6,1.4,0.9,2,1.6
			c5.1,5.4,8.5,5.3,13.1-0.4c0.5,0.4,0.5,0.8,0.3,1.4c-0.5,1.2-1,2.7,0.2,3.4c1.3,0.7,3,0.4,3.8-1.3
			C270.8,507.7,269.7,503.7,271.3,502.8z M587.9,510.4c-0.2-11.3-0.1-22.6-0.1-34c0-5.7,0-5.7-6-5.3c2-0.7,3.6-1,4.8-2.8
			c-3.5-0.9-6.8-0.5-10-0.2c-0.3,2,1.4,2.2,2.7,3.3c-3.3-1.1-4.1,0.4-4.2,2.9c-0.3,12.4,1.1,24.9,0,37.3c-0.1,1.2,0.6,1.8,1.5,2.3
			c-0.3,1-1.7,2.4,0.8,2.6c1.8,0.2,3.6,0.5,5.4,0.5c0.9,0,2.4-0.2,2.6-0.8c0.7-1.4-1.4-1.3-1.7-2.3C587.3,515.4,588,514,587.9,510.4
			z M199.6,620.6l0.4-0.1c1,2.4,2.5,2.9,5.3,2.8c3.7-0.1,7.6,0.1,11.4,0.3c4.6,0.3,9.4-0.1,14.1-0.3c2.7-0.1,5.9,1.5,8.1-1.4
			c0.1-0.1,0.6-0.1,0.8,0c5.6,3.4,11.2,3.1,16.7-0.3c2.3,3.1,5.8,0,7.9,1.3c1.9,1.2,2.9,0.8,4.7,0.4c1.4-0.3,3.1-0.8,4.8,0.4
			c1.4,1,2.1,0,2.1-1.9c0-1.1,0.9-2.2,1.4-3.2c0.8,1.2,3.3,0.7,3.1,2.4c-0.4,2.8,1.5,2.5,2.9,2.4c1.7-0.1,1.9-1,2.1-3
			c0.9-9.2-1.1-18.5,0.4-27.7c0.3-2-2.9-2.1-1.3-4c-0.2-0.3-0.3-0.5-0.5-0.8c-1.5-2.1-3.1-3.4-5.8-1.7c-2,1.3-3.5-1.3-5.8-1
			c-4.9,0.7-10,1.5-14.8,0.8c-6-0.9-12-0.4-18-0.2c-3.2,0.1-7.8-2.4-10.4,2.4c-0.6,1.1-1.8,0-2-3.3c-1.6,2-3.2,1-4.9,1
			c-4.6,0.1-9.8-2.8-14,1.6c-0.8,0.9-1.7,0.3-2.3-0.8c-1.1-2.2-4.3-1.5-4.6-0.9c-2,4-5.8,1.9-8.5,3c-1.1,0.4-1.7-0.3-2.1-1
			c-2.3-4.2-4.7-2.5-7.1-0.2l0,0c-0.9-2.8-3.7-2.4-5.5-2.4c-2.4-0.1-4.7,1.4-7.5,1c-0.7-0.1-2.7,3.3-2.8,5.1
			c-0.3,9.5-0.4,19-0.1,28.4c0.1,3.7,3.7,3.8,6.3,4.2c4.2,0.7,8.5-1.5,12.8,0.1c1,0.3,2.7,0.2,3.5-0.8c1.3-1.6,2.3-2.2,3.8-0.2
			c0.4,0.5,1.8,0.7,2-1c0.1-1.6,1.4-1.9,2.8-1.7L199.6,620.6z M863.4,599.9c-1.4-4.1-2.9-7.7-6-12c0,2.5,0,3.7,0,4.9
			c-0.5-0.6-1.2-1.2-1.6-1.9c-0.4-0.6-0.4-1.4-1.4-0.9c-1,0.5-0.7,1.1-0.3,2c0.9,2.5,2,4.8-1.9,6.3c-4,1.6-5.8-0.1-6.5-3.3
			c-0.4-1.9-0.8-2.4-2.5-1.8c-10.3,3.3-20.6,6.5-31,9.8c-8.3,2.6-16.6,5.5-25,7.8c-2.8,0.7-4.4,3.5-8.1,3c-3.1-0.4-6.4,2.2-9.8,2.9
			c-3.3,0.7-6.3,2.1-9.7,3.1c1.2,2.6,2.9,4.2,5.9,3.7c3-0.5,4.8,1.3,6.2,3.4c1.7,2.4,3.3,4.9,4.8,7.4c1.5,2.6,1.6,4.8-1.8,5.9
			c-4.6,1.4-9.3,2.8-13.9,4.2c-19.4,5.9-38.9,11.7-58.3,17.7c-4.3,1.3-7.4,0.3-9.9-3.2c-1.3-1.8-2.5-3.7-3.7-5.6
			c-1.9-2.9-2.9-5.7,1.3-7.6c0.7-0.3,1.6-0.8,1-1.9c-0.4-0.8-0.7-1.5-1.8-1.5c-1.1,0-2.2-0.1-3.4-0.2c5.4-3.3,11.7-4.3,17.5-6.3
			c13.3-4.5,26.9-8.5,40.3-12.6c11.6-3.5,23.2-7.1,34.6-10.9c18.3-6,36.8-11.4,55.1-17.6c6.1-2.1,12.1-4.2,18.3-5.7
			c2.1-0.5,3-3.6,5.8-2.2c0.6,0.3,0.5-1.4,0.5-2.1c0-25.9,0.1-51.9-0.1-77.8c0-3.9-4.3-3.9-6.7-4.6c-14.8-4.8-29.7-9.3-44.7-13.8
			c-8.2-2.5-16.8-4.4-24.8-7.2c-14.3-5-28.9-9.1-43.3-13.8c-23.6-7.6-47.4-14.4-71-21.7c-2.1-0.6-4.4-1-6.1-2.6
			c8.4,0.9,16,4.6,24.1,6.6c2.5,0.6,5.1,1.8,5.2-2.7c0-1.7-0.9-1.7-1.8-2.3c-2.4-1.3-2.5-3.2-1.3-5.3c1.8-3,3.6-6,5.7-8.7
			c1.8-2.3,4.3-3.1,7.5-2.1c15.6,4.8,31.3,9.4,47,14.1c8.5,2.6,17,5.1,25.5,8c4.5,1.5,4.9,3.2,2.2,7.1c-1.3,1.8-2,4-4.2,5.1
			c-0.2-2.2,1.5-3.5,2.5-5.1c2.4-3.9,2-5-2.5-6.4c-9.6-2.9-19.2-5.8-28.8-8.6c-13.7-4.1-27.5-8-41.1-12.3c-3.6-1.1-5.8,0-7.7,2.5
			c-1.6,2.1-2.8,4.5-4.3,6.7c-0.8,1.3-1.5,2.8,0.1,3.6c1.2,0.7,2.8,1.8,4.4-0.3c1.7-2.2,7.5-2.2,9.4-0.5c0.8,0.7,1,1.6,0.6,2.3
			c-1.6,3.4,0.8,3.4,3,4.1c14,4.1,27.9,8.4,41.8,12.8c2.3,0.7,3.8,1,5.3-1.3c2.2-3.2,5.2-0.7,7.7-0.4c2.4,0.3,2.1,2.3,1.8,4.3
			c-0.5,2.8,1.5,2.8,3.1,2.1c1.7-0.8,3.2-2.2,4.7-3.3c-1.2,3.7-3.5,5.5-7.6,4.9c-2.9-0.4-3.8,2.2-5.9,3.9c6.9,3.3,13.7,5.3,20.6,6.5
			c5.4,0.9,9.9,3.8,15,5.2c18.4,5,36.5,10.8,54.8,16.2c2.4,0.7,4.9,3.5,7.8,0.8c0.5-0.5,0.6,0,0.9,0.3c2.1,1.9,2.1,1.9,3.5-0.7
			c4.3-8.2,8.5-16.4,12.7-24.6c0.5-1,0.9-2,1.5-3c0.5-0.9,1.8-2,0.6-2.9c-1-0.8-1.7,0.6-2.3,1.2c-0.9,0.9-1,1-1.4-0.4
			c-0.6-2.1-2.3-0.3-3.1-0.1c-5.3,1.2-10.5,2.5-15.7,4.2c-2,0.6-3.8,0.6-5.6-0.2c-11.5-4.8-22.9-9.6-34.4-14.3
			c-10-4.1-20-8.1-30.5-12.3c0,5.2,0,9.8,0,14.4c-0.3,0-0.5,0-0.8,0c0-3.5-0.2-7,0.1-10.5c0.2-3.4-1.3-5.1-4.4-6.2
			c-10.9-3.9-22.1-6.5-33.2-9.6c-14.6-4.1-29.2-8.2-43.9-11.8c-16.9-4.1-34-7.4-51-11c-10.1-2.1-20.2-4.2-30.3-6.4
			c-3.2-0.7-6.5-1.4-9.7-2.1c-1.3-0.3-2.1,0.5-2.9,1.3c-4.2,4.2-8.4,8.4-12.6,12.6c-1.8,1.8-2.2,3,1,3.9c8.8,2.6,17.7,4.9,26.3,7.8
			c10.8,3.6,21.8,6.5,32.6,10.2c2.7,0.9,5.7,1.3,8.1,3c-6.5,0.2-12.2-2.8-18.2-4.5c-15.9-4.6-31.6-9.7-47.4-14.7
			c-3.6-1.1-4.2,0.3-4.2,3.6c0.1,50.3,0.1,100.6,0.1,150.9c0,29.2,0,58.4,0,87.6c0,4.8,0,4.8,4.6,3.4c27.3-8.7,54.7-17.4,82-26
			c2.4-0.8,4.9-1,7.4-1.5c-7.3,3.9-15.5,5.3-23.2,7.9c-6.8,2.3-13.7,4.6-20.7,6.5c-2,0.5-2.2,2.6-4.2,3c-4.1,0.8-8.3,0.9-12.5,2.3
			c-10.7,3.8-21.6,7-32.6,10.5c3.1,3.5,6.1,6.4,8.6,9.8c4.4,6.1,10.1,4.8,16,3.6c17.3-3.4,34.7-6.5,52.2-9.4
			c21.4-3.6,42.4-9,63.3-14.7c11.2-3.1,22.6-5.8,33.8-9.1c4.4-1.3,8.5-3.3,12.8-5.2c1.7-0.7,2.3-2.2,2.2-4.2
			c-0.2-3.5-0.1-7,0.8-10.5c0,3.6,0.1,7.2,0,10.9c-0.1,2,0.3,2.4,2.4,1.5c18.9-8.1,37.9-16.1,56.8-24c2.3-1,3.3-2.2,3-4.6
			c-0.1-0.8,0-1.7,0-2.5c-0.8-8.7,2.8-13.2,13.1-14c4.8-0.4,0.7-3,1.2-4.4C861.3,595.8,860.4,599.3,863.4,599.9z M167.5,657.9
			c-0.8,1.4-1.7,2.7-2.1,4.1c-0.6,2.6-0.9,4.7,3.3,5c11.7,0.9,23.3,1.3,35,0.8c8.7-0.4,17.5,0.5,26.3,0.5c6.2,0,12.3-0.6,18.5-1.1
			c1.7-0.1,3.4-0.6,4.4,1.3c1,2.1,0.3,4.2-0.2,6.2c-2-0.7-4.3,1.2-5.7,0.1c-1.6-1.3-3.1-1.1-4.7-1.1c-9.2,0-18.4,0.2-27.6-0.2
			c-3.7-0.2-6.8,1.5-10.3,1.9c-2.4,0.3-2.3-1.9-4.2-1.9c-10.7,0.1-21.5,0.1-32.2,1.1c-2.7,0.2-3.2,6.8-0.7,9.4
			c2.3,2.4,4.3,4.9,8.7,4c2.6-0.5,5.6-0.1,8.4,0c1.3,0.1,2.4,0,1.6-2.1c-1.2-3.5,0.6-4.9,4.2-4.6c3.1,0.2,6.2,0,9.3,0.1
			c2,0.1,4-2.9,6.2-0.1c0.5,0.6,1.5-0.5,2-1.1c0.3-0.4,0.5-0.8,0.8-1.2c3.4,4.9,8.4,1.9,12.5,2.1c7.3,0.5,14.6-0.2,21.9-0.7
			c4.2-0.3,8.2-0.4,12.4,0c5.1,0.5,10.2,0.2,15.3,0.1c4.9-0.1,9.9,0.5,14.8-0.7c1.1-0.3,3.2,0.6,3-1.1c-0.1-1.2,0-3.1-1.8-4
			c-4.1-2-2.1-5.7-1.9-8.6c0.2-2.7,3.1-1.5,5-1.7c1.4-0.1,2.8,0,4.2,0c6.7,0,8.9,2.5,6.3,9c-1.6,4-0.5,7.8-0.8,11.6
			c-0.3,3.6,3.8,2.8,5.5,2.7c22.3-0.7,44.6-0.3,66.9-0.4c75.7-0.1,151.3,0,227,0c1.7,0,3.3,0,5.6,0c-1.4-2.9-3.4-4.6-5.3-6.4
			c-9.6-9.5-20-18.3-28.7-28.7c-2.6-3.1-5.6-4.2-9.6-4.1c-16.9,0.5-33.9,0-50.8,0.4c-7.7,0.2-15.4,1.6-23.2,0.3
			c-0.4,2.5,2.7,4.9,0,6.7c-1.9,1.2-4.7,1.1-6.5,0c-2.6-1.7,0.1-4,0.2-6.2c-104.1,0-208.1,0-313.1,0
			C170.9,652.6,169,655.2,167.5,657.9z M565.1,443.4c1.8,0,2.9-0.9,3.9-2.1c7.2-7.8,14.9-15,22.2-22.7c4.3-4.6,8.3-9.4,13.2-13.5
			c-1.8-1.4-3.3-0.9-4.6-0.9c-62.1,0-124.2,0-186.2,0c-18.7,0-37.3,0-56,0c-1.4,0-2.8,0.2-4.2,0.2c-1.1,0-2.5-0.2-2.8,1.2
			c-0.3,1.4,1,1.9,2,2.4c4.3,2.3,4.2,6.5,0.4,10.4c-3.9,3.9-6.2,5.1-11.7,3.2c-3.9-1.3-9,0.5-13.6,0.5c-2.4,0-4.4-0.3-4.2-3.3
			c0.1-2-1.2-1.8-2.5-1.8c-21,0-42,0-62.9,0c-1.8,0-3.3,0.4-3.3,2.3c-0.1,1.9,1.6,1.9,3.1,1.9c14.2,0,28.5,0,42.7,0
			c1.8,0,3.6-0.7,5.4-0.7c3,0,4.9,1.9,4.7,4.7c-0.2,2.8-2.3,4.1-5.1,3.7c-15.2-1.9-30.5-0.4-45.8-0.8c-0.4,0-0.8,0.1-1.2,0.2
			c1.9,11.3,1.6,11.7-9.6,11.7c-6.8,0-13.6-0.1-20.4,0c-2.8,0.1-3.7-1-3.7-3.8c-0.1-8.2-0.2-8.2-8.4-8.2c-9.2,0-18.4,0-27.6,0
			c-1.8,0-3.7,0.1-3.7,2.3c0,2.7-1.4,2.9-3.5,2.8c-4.4-0.3-8.8,0.6-13.1-0.8c-0.5-0.2-1.3-0.3-1.7,0c-6.5,4.7-9.2-1.1-12.7-4.6
			c-1.7-1.7-2.3-3.8-0.5-5.6c3.4-3.4,5.4-8.6,12.5-6.3c4.7,1.5,10.4,0.3,15.6,0.3c1.7,0,3.4-0.3,3.3,2.5c-0.1,2.2,1.4,2.7,3.4,2.7
			c19.1-0.1,38.3,0,57.4,0c1.8,0,3-0.2,2.9-2.5c-0.1-2.4-1.8-1.7-3-1.8c-12.2,0-24.4,0-36.6-0.1c-1.6,0-3.1,0.4-4.4,1
			c-2.2,0.9-4.3,0.6-5.6-1.1c-1.2-1.4-1-3.7-0.2-5.3c0.9-1.9,3.3-2.2,5.1-2c14,1.5,28,0.2,42,0.6c1.2,0,2-0.2,2.8-1.4
			c1.6-2.2,4.3-2,5.7-0.4c1.4,1.6,2.7,1.8,4.3,1.8c20.1,0,40.2,0,60.4,0c1.5,0,3.2,0.5,4.2-1.2c1.2-2.1-0.2-4.4-2.8-4.4
			c-9.2,0.1-18.3,0.4-27.5,0.4c-20.4,0.1-40.7,0-61.1,0c-19.5,0-39.1,0.1-58.6,0.2c-1,0-2-0.4-3,0.9c-2,2.6-4,2.7-6.2-0.2
			c-1.2-1.6-3.5-0.6-5.2-0.7c-9.2-0.1-9.3,0-9.6,8.8c-0.2,8.6-0.2,17.2-0.1,25.8c0,1.5-0.8,3.5,1.6,4.3c1.2-0.3,0.8-1.3,0.8-2.1
			c0.2-1.9-0.8-4.6,2.8-4.5c2.7,0.1,5.6-0.1,4.9,4.2c-0.5,3,1.9,2.5,3.7,2.5c12.5,0,24.9,0,37.4,0c14.7,0,29.4,0.2,44.1-0.2
			c14.3-0.4,28.5,0.1,42.8-0.2c10.5-0.2,21-0.2,31.6,0c7.4,0.1,15-0.1,22.4-0.1c46.1,0,92.3-0.1,138.4-0.2c2.7,0,5.6,0.6,3.7-3.9
			c-0.7-1.7,0.6-3.2,2.5-2.9c2.1,0.3,5.2-1.5,5.8,2.3c0.2,1.3-0.2,2.8-0.3,4.5C516.1,443.3,540.6,443.3,565.1,443.4z M567.5,450
			c0-3.9-0.9-5.1-5-5.1c-16.4,0.2-32.9,0.2-49.3,0c-3.6,0-4.6,1.2-4.5,4.6c0.1,17.7,0.1,35.4,0.1,53.1c0,23.4,0,46.9,0,70.3
			c0,23,0.1,46.1-0.1,69.1c0,4.5,1.4,5.5,5.6,5.4c11.5-0.2,23,0.2,34.4-0.2c5.4-0.2,10.9,0.8,16.3-0.6c2-0.5,2.6-1,2.5-2.9
			c-0.1-1,0-2,0-3c0-31.6,0-63.2,0-94.8C567.4,514.1,567.3,482.1,567.5,450z M303.7,618.9c0.4,3.6,5,7.4,7.2,5.1
			c2-2.2,3-0.5,4.5-0.5c11-0.6,22,1.6,33,0.5c1.3-0.1,2.3,0,3.1-1c0.5-0.7,1.2-1,1.8-0.7c2.6,1.7,5.5,1,8.3,1.2
			c4.7,0.3,9.3,0.8,14,0.2c6.5-0.9,13.1,0.4,19.6,0.4c18.8-0.1,37.6,0.2,56.4,0.3c6.5,0,13.1-0.2,19.6-0.2c2.5,0,5.1-0.4,7.6-0.1
			c2.4,0.3,4.3-1,4.2-2.9c-0.8-10.6,1.3-21.3-0.3-32c-0.5-3.5-2-4.6-5.3-4.2c-7.5,0.9-15.1-0.6-22.6-0.1c-9.8,0.6-19.5,0.2-29.3,0.4
			c-9.4,0.2-18.8,0.7-28.3,0c-6.1-0.4-12.2,0.2-18.3,0.3c-2,0-3.8-0.9-6,0.9c-1.4,1.2-3.9-1.8-6.3-1c-0.4,0.1-1.3,0.1-1.9,0.1
			c-5.1,0-10.2-0.1-15.3-0.2c-0.4,0-0.8,0.1-1.2,0.3c-2.2,1.2-6.5,1.6-8.6,0.4c-1-0.5-1.3-0.9-2.4,0c-1.1,0.8-2.7,1.6-3.9-0.3
			c-0.2-0.3-1.1-0.3-1.5-0.1c-5.5,2.1-11-1-16.5,0.2c-1.4,0.3-3.3-0.8-3,1.9c0.1,0.6-0.5,1.1-1.1,0.5c-0.4-0.3-0.9-0.9-0.8-1.3
			c0.1-0.6,1.5-1.6-0.1-1.7c-1.5-0.1-3.4,0.3-4.5,1.6c-0.9,1,0.4,1.5,1,1.9c1.7,1.1,0.4,3.4,2.1,4.6c0.8,0.5-0.7,0.9-0.8,1.6
			c-0.2,0.9-0.7,0.6-1.1,0.1c-4.9-4.8-3.4,0.2-3.6,2.4c0,0.3-0.2,0.5-0.2,0.8c0,0.3,0.2,0.5,0.3,0.8
			C303.5,605.5,303.1,612.2,303.7,618.9z M321.8,505.5c1.6-1.2,2.6-0.8,2.7,0.5c0.2,3.2,1.1,2.1,2.7,0.9c2.2-1.7,4-3.5,7-0.1
			c1.4,1.6,5.4,1.2,8.2,1.3c5.9,0.2,12,0.5,17.7,0c3.9-0.4,8.4,1.5,11.3-0.3c3.1-2,5,1.3,7.9-0.1c2.5-1.2,6.3,0.7,9.4,0.2
			c5-0.7,9.9,0,14.8-0.2c6.5-0.3,13.1-0.1,19.6,0c2.1,0,4.1,0.5,6-1c0.9-0.7,2-0.6,3,0.2c2.3,1.9,6.6,1.6,8.5-0.7
			c0.6-0.7,0.8-0.2,1.2,0.1c0.9,0.6,1.5,1.7,2.9,1.4c7.2-1.7,14.5,1,21.9-0.4c3.3-0.6,6.8,0.5,10.3,0.6c5.5,0.2,7.9-2.5,7.9-8
			c-0.1-8.5,0.2-16.9,0.3-25.4c0.1-2.7-0.3-4.6-3.7-4.7c-4.2-0.2-8.2-1.8-12.6,0c-1.1,0.5-2.9-0.8-4.7-0.8
			c-13.8,0.1-27.7-0.6-41.5,0.1c-6.3,0.3-12.5-0.7-18.8,0c-7.7,0.9-15.5-0.7-23.1,0c-5.5,0.5-10.8-0.4-16.2,0.1
			c-10.4,0.9-20.8-0.7-31.2,0.1c-8.2,0.6-16.3-0.5-24.5,0c-2.9,0.2-3.8,1.3-3.4,3.7c1.1,6.2-1.1,12.3-0.1,18.7
			c0.6,3.9,0.4,8.4-0.1,12.6c-0.4,3.3,3.5,0.9,3.8,3.2c1.4-0.7,4.4-0.1,2.4-3.8C315.3,508.2,317.4,508.7,321.8,505.5z M138.8,553.3
			c0-2.4,0-3.7-3.2-3.8c-8.6-0.4-17.3-0.4-25.9-0.3c-1.1,0-2.6,0.3-2.6,0.8c-0.1,5-4.7,8.4-4.8,13.1c-0.3,18,0,36-0.2,53.9
			c0,3.1,0.7,4.2,4,4.2c9.6-0.2,19.3-0.2,28.9,0c2.9,0.1,3.9-0.7,3.8-3.7c-0.2-10.8-0.1-21.5-0.1-32.3
			C138.8,574.6,138.7,563.9,138.8,553.3z M503.2,445c-18,0.1-36.1,0.4-54.1,0.5c-12.4,0.1-24.9-0.1-37.3-0.1
			c-7.7,0-15.4,0.4-23.1,0.3c-10.8-0.2-21.6-0.3-32.3-0.1c-15,0.3-30,0.3-44.9,0.3c-52.4,0.1-104.9,0.1-157.3,0
			c-4.1,0-5.6,1-5.2,5.2c0.7,6.9,0.9,13.9,0.6,20.6c-1.1,21.9,0,43.8-0.5,65.7c0,1.6-0.5,3.4,0.9,5.2c4.9-3.4,9.7-3.9,13.9,2
			c1.1-4.3,0.4-8,0.5-11.7c0.3-11.6,0.9-23.2,0.5-34.8c-0.3-8.2-0.3-16.4-0.6-24.6c0-1.2-0.3-2.3,0.8-3.4
			c5.9-6.3,11.9-12.5,17.3-19.1c3.1-3.9,6.9-4.2,11.1-4c14.1,0.6,28.2,0.1,42.3,0c28.1-0.2,56.3-0.1,84.4-0.2
			c60.8-0.1,121.6-0.1,182.4-0.1c1.4,0,2.8,0.3,4.4-0.6C505.8,444.5,504.4,445,503.2,445z M860.9,504.2c-0.9,1.9-0.9,4.5-0.9,6.8
			c-0.1,17.5,0,35,0,52.4c0,6.6,0,13.1,0,19.7c0,6.2,3.1,11.4,6.2,16.3c1.5,2.4,5.3,1.7,8,2.8c4.3,1.8,4.5,1.4,4.5-3.4
			c-0.1-41-0.2-82.1-0.2-123.1c0-1.5,0-3.1,0-4.6c-0.2-0.1-0.4-0.2-0.6-0.3C872.1,482,866.3,493,860.9,504.2z M898.2,415.3
			c0-5.1-0.7-5.6-5.6-5.2c-1.7,0.2-2.2,0.8-2.1,2.3c0.6,10.6-0.8,21.2,0,31.8c0.1,1.4,0.4,2.5,1.8,3.4c3.7,2.5,3.8,6.7,0,9.1
			c-1.7,1.1-1.9,2.3-1.8,3.9c0.3,11.2-1.2,22.5-0.1,33.7c0.5,5.5-0.1,11-0.1,16.6c0,12,0.5,23.9,0.1,35.8c-0.7,21.3,0.1,42.5,0,63.7
			c0,4.8,0.3,9.6,0.2,14.3c-0.1,3.2-0.2,6.1,3.1,8.4c2.5,1.7,1.7,6.2-1.3,7.8c-1.7,0.9-1.8,1.8-1.8,3.2c0,12,0.1,24.1,0,36.1
			c0,2.3,0.8,3.6,3.1,3.3c2-0.3,4.9,0.5,4.7-3.6c-0.3-6.4-0.1-12.7-0.1-19.1c0-38,0-76,0-113.9C898.2,503.2,898.2,459.3,898.2,415.3
			z M149.6,551.6c-0.9,1.5-0.6,3.3-0.6,4.9c0,20-0.4,39.9,0.2,59.9c0.3,8.7-0.7,17.4-0.2,26.1c0.2,3.4,0.8,5.3,5,5.1
			c10.5-0.4,21.1-0.1,32.3-0.1c-7.2-8.5-13.7-16.6-20.8-24.4c-1.2-1.3-1.2-2-1.2-3.4c0-22.6,0-45.3,0-67.9c0-0.3-0.1-0.5-0.3-1.2
			C158,555.5,156.5,555.5,149.6,551.6z M888.8,462.4c0-1.6,1.3-4.4-2.1-4.4c-3.9,0-6.7,2.3-6.1,5.2c1,5.7,0.7,11.3,0.7,17
			c-0.1,19,0,38-0.1,57.1c-0.1,12.8,0.2,25.6,0.3,38.4c0,7.6,0.6,15.2,0.3,22.8c-0.1,4.1-0.4,8.1,1,12c0.5,1.5,0.6,3.6,0,5
			c-1.8,4.7-0.2,8.7,1.9,12.8c0.7,1.2,1.3,2.7,3.1,2.2c1.8-0.5,1-2.1,1-3.3c0-18.1,0-36.2,0-54.4c0-9.5,0-19,0-28.5
			C888.8,517.1,888.8,489.8,888.8,462.4z M755.3,631.9c-2.5-5-6.4-2.1-9.4-1.3c-13.4,4-26.7,8.5-40.3,12.1c-0.9,0.2-2.9,0.4-1.9,2.4
			c0.8,1.7,1,3.4-1.3,4c-2.4,0.7-4.8,2.5-7.4,0.5c-0.7-0.5-1.2-1.2-1.8-1.7c-1.1-0.9-2.6-0.8-3.6-0.2c-1.2,0.8-1,2.5-0.4,3.5
			c1.7,2.9,3.4,5.9,5.7,8.3c2.1,2.2,5,1.9,7.9,1c19.1-5.9,38.3-11.8,57.5-17.6c4.4-1.3,8.8-2.7,13.2-3.9c1.6-0.4,2.9-1.4,2-2.9
			c-2.1-3.8-4-7.8-7.7-10.4c-1.4-1-4.5-1.7-3.8,1.2c1.6,6.8-4.2,3.6-5.5,5.5C756.9,632.1,755.5,632.3,755.3,631.9z M629.2,398
			c-9.1,0-18.3,0.1-27.4,0.3c-1.3,0-3.8-1.3-3.8,1.7c0.1,2.7,2.3,1.5,3.5,1.5c10.9-0.1,21.2,3.5,31.7,5.4c14.9,2.8,29.7,6,44.5,9.1
			c2.5,0.5,4.9,1.2,7.4,1.6c2,0.4,3.4-0.1,3-2.6c-0.1-0.6,0-1.1,0-1.7c0-7,0-7.1,7-7.5c3.9-0.2,2-3,2.3-4.6c0.4-2.5-0.4-4-3.4-4
			c-9.1,0.1-18.1,0-27.2,0c0,0.2,0,0.4,0,0.6C654.3,398,641.8,398,629.2,398z M708,670.2c-6.6,1.5-9.7,6-13.2,10.5
			c-1.2,1.5-4.1,2.9-3,5.1c1,2,3.8,0.6,5.8,0.8c13.1,1.5,24.8-4.3,37.1-7.2c7.4-1.8,14.7-4.2,22-6.3c1-0.3,2-0.2,2.5-1.3
			c2.6-5.3,5.4-10.5,7.4-16.9C746.6,660.2,727.4,665.7,708,670.2z M694.8,694.2c2.2,0,3.7,0,3.6-3c-0.1-2.8-0.9-3.6-3.6-3.6
			c-6.7-0.1-6.7-0.3-6.7-7.1c0-5,0-5.1-5-4.2c-19.1,3.3-38.1,6.7-57.2,10.1c-8.5,1.5-16.9,4.1-25.6,3.6c-1.5-0.1-2.3,0.3-2.3,2.1
			c-0.1,2.6,1.6,2.2,3.1,2.2c15.7,0,31.4,0,47.1,0C663.7,694.2,679.3,694.2,694.8,694.2z M760.3,423.1c-0.7-1.6-2-2.3-3.5-2.7
			c-15.1-4.2-30.2-8.9-45.5-12.4c-5.8-1.4-12.1-0.3-18.2-0.4c-1.8,0-1.9,0.8-0.8,2.1c2.9,3.6,5.7,7.2,8.6,10.8
			c1.2,1.5,3.1,1.9,4.8,2.3c19.3,5.1,38.7,10.1,58,15.2c1.1,0.3,2.2,0.4,3.5-0.1C764.9,432.9,762.6,428,760.3,423.1z M144.3,469.1
			c-1.2,0.4-1.9-0.1-2.1-1.3c-0.1-1.3,0.7-1.9,1.9-1.6c3,0.6,3-1.2,3.3-3.4c0.5-4.9,0-9.8-0.1-14.7c0-2.1-1-2.2-2.6-2.2
			c-11.9,0-23.8,0.1-35.7,0c-2.1,0-2.6,0.8-2.6,2.8c0.1,6.2,0.2,12.5,0,18.7c-0.1,2.7,0.8,3.3,3.4,3.3c9.9-0.1,19.8,0,29.7-0.1
			c2.1,0,4.5,1.4,6.5-0.5C145.6,469.2,145.1,468.8,144.3,469.1z M144.4,647.5c2,0,3.4-0.2,3.2-2.6c-0.6-5,0.9-10.1,0.1-15.1
			c-0.3-1.7-0.4-3.6-2.9-2.9c-1.1,0.3-2.1,0.2-2.3-1c-0.2-1.3,0.6-2.2,2-2.1c2,0.1,3.1-0.1,0.7-1.7c-0.4-0.3-0.6-0.5-0.1-0.8
			c0.7-0.3,2.5,0.3,1.5-1.4c-0.8-1.3-2.6-0.3-2.8,0.5c-1.2,3.7-4.1,2.7-6.7,2.9c-9.3,0.9-18.5-0.7-27.8,0c-2.5,0.2-2.7,1.1-2.7,3
			c0.1,6.1,0.1,12.2,0,18.2c-0.1,2.6,1,3,3.2,3c5.8-0.1,11.6,0,17.4,0C132.8,647.4,138.6,647.4,144.4,647.5z M589.4,571.3
			c0.4-18.2,0.6-36-0.2-54c-0.6,3-0.2,6.9-4.4,6.9c-5.3,0-11.7,2.5-15.4-5.1c0,18.8,0,37,0,56.4
			C572.5,567.5,583.1,565.5,589.4,571.3z M317.4,695.1c0.8,0,1.7,0,2.5,0c1.9,0,4.3,0.4,4.1-2.7c-0.1-2.8-2.3-2.4-4-2.4
			c-14.6,0-29.2,0-43.7,0c-17.5,0-35.1-0.3-52.6,0.1c-16.3,0.4-32.6-0.6-48.9,0.6c-1.4,0.1-3.8-1-3.7,2c0.1,2.8,2.2,2.4,4,2.4
			c24.2,0,48.4,0,72.6,0C271,695.1,294.2,695.1,317.4,695.1z M145.6,444.2c2.1,0,2.4-1.9,2.3-2.9c-1.1-11.3,1-22.6-0.7-33.9
			c0-0.2-0.3-0.4-0.2-0.3c-12.2,12.3-24.3,24.5-36.8,37.1C121.9,444.2,133.8,444.2,145.6,444.2z M148.1,671.8
			c-0.2-6.4-0.6-12.8-0.7-19.2c-0.1-2.1-0.2-3.3-2.9-3.2c-11.6,0.2-23.2,0.1-34.9,0.2c-0.3,0-0.7,0.4-1.6,1
			c13.1,11.9,26.1,23.6,40.1,36.2C148.1,680.9,148.2,676.3,148.1,671.8z M772.4,652.9c-1.9,0.8-2.7,2-2.7,4.2
			c0.1,11.3,0.1,22.6,0,33.9c0,2.6,0.7,3.6,3.3,3.3c1.1-0.1,2.3,0,3.4,0c8.7,0,8.7,0,8.7-8.5c0-12.5,0-25,0-38.2
			C780.6,649.5,776.5,651.3,772.4,652.9z M590,628.6c-3.3,3.9-10.9,6.2-15.2,4.2c-2.3-1.1-4.2-2.7-4.2-6.1c0.2-14,0.1-28.1,0.1-42.5
			c-2.1,1.2-1.6,2.5-1.6,3.7c0,19.4,0,38.7-0.1,58.1c0,1.6,0.6,2.6,1.7,3.7c6.4,6.3,12.8,12.6,19.3,19.1
			C590,655.3,590,642.1,590,628.6z M142.2,611.2c0,0.8,0,1.7,0,2.5c0.1,2,1.5,2.9,3,2.9c2,0,2.9-2.4,2.1-3.4
			c-3.1-4.1,0.4-7.8,0.2-11.8c-0.5-8.1-0.1-16.3-0.1-24.5c0-0.8-0.1-2.2-0.5-2.4c-4.8-1.9-2.4-6-3-9.2c-0.1-0.4-0.1-1.1,0.1-1.2
			c6.2-4.3,2.5-10.8,3.3-16.2c0.5-2.9,0.4-5.9,0.4-8.8c0-2.2,0.4-5-3.1-6.2c-1.7-0.6-1.3-9.2,0.7-10.1c2.1-1,2.2-2.2,2.1-3.9
			c-0.4-9.8,1.1-19.6-0.1-29.4c-0.4-3.1-2.4-6.1-0.2-9.4c0.7-1.1,0.2-3.4-1.9-3.4c-1.7,0-3.1,1.2-3.1,3.3c0,1.3,0,2.5,0,3.8
			c0,8.6,0,17.2,0,25.9c0,0,0,0,0,0C142.2,543.5,142.2,577.3,142.2,611.2z M177.9,398.3c-1.7,0-3.4-0.2-5,0.5c-0.9,0.4-2,0.6-1.7,2
			c0.2,1.1,0.9,1.7,2,1.8c0.6,0,1.1,0,1.7,0c15.3-0.2,30.6,0.3,45.9-0.3c8.8-0.3,17.6,0.3,26.3,0.1c11.2-0.3,22.4,0,33.6-0.3
			c12.7-0.3,25.5-0.8,38.3-0.2c1,0,2,0,3-0.1c0.9-0.1,2.1,0.3,2.1-1.3c0-1.4-0.7-2.1-2.1-2.1c-1,0-2,0-3,0c-23.5,0-47.1,0-70.6,0
			C224.9,398.3,201.4,398.3,177.9,398.3z M587.1,576.6c-3-1.2-5.9-0.4-8.7-0.5c-0.4,0-1.3,0.8-1.3,0.8c1.8,3.5-1.7,6.1-1.4,9.6
			c0.7,10,0.2,20.1,0.2,30.1c0,2.3-1.1,5.5,3.5,4.2c0.6-0.2,1.5,0.5,2.3,0.7c-0.2,0.4-0.3,0.8-0.4,0.8c-1.7-0.4-4.1,0-4.2,1.5
			c-0.1,2.6,2.6,1.4,4,1.4c1.6,0.1,3.9,0.9,4.7-0.5c1.3-2.2,3.2-3.9,3-7.3c-0.5-11.1-0.2-22.3-0.2-33.4c0-5.6,0-5.6-5.3-3.9
			c-0.5,0.2-1.1,0-2.2,0C583.1,578.5,585.6,578.9,587.1,576.6z M876.4,619.2c6.7-4.2,5-10.4-0.7-13.1c-6.8-3.2-14.4-4.1-22-2.9
			c-4.6,0.7-8.2,7.3-7.4,13.4c0.5,3.7,4.4,6.8,9.2,6.9c1.4,0,2.8,0,4.2,0C865.7,623.8,871.4,622.4,876.4,619.2z M722.1,397.4
			c-2.5-0.1-3.4,1.1-3.2,3.3c0.9,8.2-1.5,7.6,7.4,9.7c8.2,1.9,16.4,4.4,24.5,6.9c2.9,0.9,3.8,0.5,3.7-2.5c-0.1-4.5-0.2-9.1,0-13.6
			c0.1-3.1-1.2-3.9-4-3.8c-4.7,0.2-9.3,0-14,0C731.7,397.4,726.9,397.5,722.1,397.4z M529.5,698.4c15,0.2,30,0.2,45.1-0.1
			c1.8,0,5.9,1.6,5.6-3.3c-0.2-2.8,0.7-4.6-4-4.4c-15.4,0.6-30.9,0.4-46.3,0.1c-6.4-0.1-12.8,0.6-19.1,0.1c-3.2-0.3-3.7,1.4-3.8,4.1
			c-0.1,2.9,1.1,3.8,3.8,3.6c2-0.1,4,0,5.9,0c5,0,5,0,6.8-4.5C523.3,698.6,527,698.3,529.5,698.4z M589.7,464.1
			c0-13.6,0-26.7,0-38.8c-6.2,5.8-12.7,11.9-19.1,17.9c-0.7,0.6-1.6,1.2-1.5,2.4c0.2,5.5-0.5,11,0.9,16.8
			C576.9,458,585.8,458.7,589.7,464.1z M481.2,698.7c2.8,0.2,4.6-1.6,7.4-1.5c1.9,0.1,0.4-3.6,1-5.6c0.2-0.8-1.3-2.4-1.5-2.2
			c-2.5,3.8-5.9,0.7-8.7,1.2c-3.3,0.6-6.8,0.1-10.2,0.1c-10.8,0-21.5,0-32.3,0c-0.3,0-0.6,0.1-0.8,0.2c-1.3,0.4-3.6-3.5-3.8,0.6
			c-0.1,2-2.1,5,3,5.9c3.9,0.7,7.7,0.6,11.5,0.8c4.8,0.3,9.6,0.1,14.4,0.1C467.9,698.5,474.6,698.1,481.2,698.7z M343.2,691
			c-3.4-0.1-2,2.2-1.9,3.4c0.1,1.3-1.7,3.9,1.7,3.9c16,0.1,32.1,0.1,48.1,0.3c2.5,0,4-0.3,3.7-3.4c-0.2-2.4,0.3-4.6-3.6-4.4
			c-7.3,0.4-14.7,0.1-22.1,0.1c0,0.1,0,0.1,0,0.2C360.6,691,351.9,691.2,343.2,691z M149.2,658.1c1.3,8.7-0.6,17.4-0.3,26.1
			c0.1,3.1,1.1,4.5,4.2,4.1c0.8-0.1,1.7,0,2.5,0c2.4,0,5.4,0.8,6.9-0.9c1.7-1.9-1.1-4.1-1.5-6.3c-0.5-2.8-0.8-5.5-3.2-7.7
			c-1.1-1.1-0.7-3.5,0.5-5.1c3.8-5.2,3.1-12,6.5-17.4c0.9-1.4-0.7-1.8-1.9-1.7c-1.8,0.2-4.7-1.2-4.5,2.6c0.1,2.7,0.1,4.5-3.9,4.5
			c-5.5,0-3.7-3.3-4.5-6.2C149.7,652.7,148.8,655.5,149.2,658.1z M879.9,649.9c2-0.2,1.2-2,1.2-3c0.1-5.9-0.1-11.9,0.1-17.8
			c0.1-3.2-0.1-4.6-4.3-4c-6.2,0.9-11.6,2.3-14.3,8.5c-2.3,5.2-0.4,10.4,4.7,13.2c2.5,1.4,5.1,2,7.8,2.6c2.2,0.5,2.7-0.5,3.1-2.6
			C879,648,877.7,650.1,879.9,649.9z M876,445.7c0.3-2-0.4-2.6-3.1-2.8c-4.2-0.3-7.7,0.6-11,2.6c-3.9,2.4-6.4,8.1-5.2,12
			c1.5,4.8,5,7.8,9.8,8.8c9.6,2.1,9.6,2,9.6-9.5C876.7,453.5,875.3,449.6,876,445.7z M438.8,393.8c-2.2,0.2-3.4,0.4-3,3
			c0.3,2.1-1,4.8,3.1,4.7c11.6-0.3,23.2-0.2,34.9-0.5c2.9-0.1,5.8,0.1,8.7,0.1c3.9,0.1,3.4-2.2,3.5-4.5c0.1-3-1.6-3.4-4.1-3.4
			c-3.9,0.1-7.9,0-12.9,0C459.6,394.1,449.2,392.7,438.8,393.8z M348.2,394c-2.1,0-3.8-0.3-3.8,2.8c0,2.8,0.4,4.8,3.7,4.8
			c4.2,0,8.3,0,12.5-0.1c10.2-0.1,20.4-0.3,30.6-0.2c3,0.1,3.5-1,3.7-3.5c0.2-2.7-0.3-4.2-3.4-4.2c-4.3,0.1-8.7,0-13,0
			c0,0.1,0,0.2,0,0.3C368.3,394,358.3,394,348.2,394z M750.8,468.2c1.3-5.3-2.9-5.2-6-6.1c-12.6-3.9-25.3-7.7-37.8-11.9
			c-4-1.3-6.4-0.3-8.6,3.5c17.6,5.4,35,10.8,53.3,16.4C751.2,468.9,750.7,468.5,750.8,468.2z M767.2,400.1c0-1.2-0.4-1.9-1.7-1.8
			c-0.3,0-0.6,0-0.8,0c-8.3-0.6-10,1.2-9,10.1c0.2,1.8,0.5,3.6,0.4,5.4c-0.2,2.8,0.3,4.6,3.6,5.6c2.7,0.8,2.7,4.3,4,6.5
			c0.9,1.6,1.3,3.4,3.6,4.8C767.2,420.2,767.2,410.2,767.2,400.1z M764.5,665.8c-1.6,3.3-1.9,7.7-6.3,9.4c-1.4,0.5-2,2.3-2,3.9
			c0,4,0,7.9-0.1,11.9c0,1.8,0.5,2.4,2.4,2.5c8.5,0.4,8.6,0.5,8.7-8.1c0.1-7.9,0-15.8,0-24.7C765.9,662.9,765.2,664.3,764.5,665.8z
			 M172.8,417.8c-8.8,0-10.2,1.7-8.5,10.5c0.3,1.5,1.1,1.9,2.5,2.3c4.7,1.3,9.5,0.6,14.3,0.8c1.8,0.1,2.4-1.1,1.9-2.4
			c-0.7-2-0.4-3.7-0.1-5.7c0.6-5.5,0.4-5.5-5.3-5.5c-1.1,0-2.3,0-3.4,0C173.7,417.8,173.2,417.8,172.8,417.8z M753.9,678.3
			c0.3-0.8,0.8-1.6,0.2-2.3c-0.7-0.8-1.5-0.1-2.3,0.2c-8.4,2.4-16.8,4.7-25.3,7c-0.9,0.3-2.3,0.1-2.4,1.2c0,0.7,1,1.7,1.8,2.2
			c3.2,2.1,6.5,3.8,10.4,3.5C744.8,690,751.7,685.4,753.9,678.3z M329.1,406.8c-2.9,0-5.9-0.5-3.2,4.2c0.8,1.3,0.2,3.8-0.4,5.5
			c-1,2.9-0.2,3.8,2.7,4c4.5,0.3,8.9-0.5,13.4-0.9c0.9-0.1,1.8-0.5,1.9-1.4c0.3-3.3,0.6-6.7-0.2-10c-0.3-1.4-1.6-1.3-2.8-1.3
			c-2.3,0-4.5,0-6.8,0C332.2,406.8,330.6,406.8,329.1,406.8z M718.2,637.3c10.2-3.2,20.4-6.3,30.7-9.4c1.6-0.5,2.7-0.8,2.1-2.7
			c-0.6-1.9-1.9-2.1-3.6-1.5c-14.8,4.8-29.6,9.5-44.4,14.2c-1,0.3-2.7,0.1-2.3,1.6c0.3,1.2,1.4,2.5,3.3,2.3
			C708.6,640.3,713.4,638.8,718.2,637.3z M193.4,639.4c0,0.2,0,0.5,0,0.7c29.8,0,59.6,0,89.4,0c0-0.2,0-0.5,0.1-0.7
			C253,639.4,223.2,639.4,193.4,639.4z M289.1,453.2c0,0.3,0,0.5,0,0.8c29.6,0,59.2,0,88.9,0c0-0.3,0-0.5,0-0.8
			C348.3,453.2,318.7,453.2,289.1,453.2z M467.7,454c0-0.3,0-0.6,0-0.9c-27.6,0-55.3,0-82.9,0c0,0.3,0,0.6,0,0.9
			C412.4,454,440,454,467.7,454z M412.2,698.5c4.9,0,5.2-0.5,4.7-5.6c-0.2-1.4-0.5-2-2-2c-4.4,0-8.7,0-13.1,0
			c-2.7,0-2.8,1.8-2.7,3.7c0.1,1.9,0,4.1,3,4c2.1-0.1,4.2,0,6.3,0C409.7,698.5,411,698.5,412.2,698.5z M297.8,425.5
			c2.3,0,4.5,0.3,6.6,0.9c1,0.3,1.9,1.3,3,0.1c0.7-0.7,0.8-1.5,0.4-2.3c-0.6-1.3-1.8-1.2-2.9-1.2c-8.7,0-17.3,0-26,0c-7,0-14,0-21,0
			c-1,0-2.5-0.6-2.6,1.2c0,1.9,1.6,1.3,2.5,1.3c7.2,0.1,14.4,0,21.6,0C285.6,425.5,291.7,425.6,297.8,425.5z M378.7,640.1
			c0-0.3,0-0.6,0-0.9c-29.9,0-59.8,0-89.7,0c0,0.3,0,0.6,0.1,0.9C318.9,640.1,348.8,640.1,378.7,640.1z M709.4,398.5
			c-2.3,0.1-4.6,0.1-6.9,0c-1.9-0.1-2.1,0.7-2.4,2.4c-0.6,3.6,0.5,4.9,4.1,4.3c4.3-0.6,8.4,1.4,12.6,1.7
			C717.5,398.3,717.5,398.3,709.4,398.5z M307.1,414.4c1,0,2.7,0.6,2.7-1.1c0-1.6-1.7-1.3-2.7-1.3c-13.7,0.2-27.4,0.5-41.1,0.6
			c-2.8,0-5.6-0.6-8.5-0.2c-1,0.1-2.1-0.2-2.2,1c-0.2,1.7,1.4,1,2.2,1c8.5,0.1,17,0,25.5,0c0,0,0,0,0,0
			C291,414.4,299,414.5,307.1,414.4z M403.1,393.4c-3.2-0.3-3.5,2-4,4.2c-0.6,2.7,1.3,3.6,3.3,3.8c3,0.3,6.2,0.4,9.2,0
			c3.1-0.3,4.8-3.9,3.5-6.7c-0.5-1-1.3-1.2-2.4-1.1c-1.6,0.1-3.3,0-4.9,0c0-0.1,0-0.2,0-0.3C406.2,393.4,404.6,393.5,403.1,393.4z
			 M585.2,393.2c-2.9-0.3-4.3,0.5-4.3,3.9c0,3.4,1.5,4,4.4,3.8c2.1-0.2,4.2,0,6.3,0c4.4,0,6-2.1,4.7-6.4c-0.4-1.4-1.3-1.3-2.2-1.3
			c-1.8,0-3.7,0-5.5,0C587.5,393.2,586.3,393.3,585.2,393.2z M241.4,423.3c-12.9-0.3-25.7-0.2-38.6-0.3c-0.8,0-1.8-0.1-2.5,0.3
			c-0.7,0.4-2.3-0.8-2,1.1c0.2,1.6,1.4,1.1,2.3,1.1c15,0,30,0,45,0c1,0,2,0.1,2.5-1.2C246.2,422.3,243.6,423.3,241.4,423.3z
			 M585.2,690.8c-2.2,0-4.6-0.5-4.3,3.3c0.2,3.1,0.9,4.8,4.4,4.4c2.4-0.2,4.8-0.2,7.2,0c2.9,0.3,3.9-0.8,3.9-3.8
			c0-3.1-0.7-4.5-4-3.9c-1.2,0.2-2.5,0-3.8,0C587.5,690.8,586.4,690.8,585.2,690.8z M258,685.3c8.8-1.7,17.2,2.1,25.8,1.3
			c0.8-0.1,1.7,0,2.5-0.1c1.6-0.1,2.1-1.2,2.1-2.6c0-1.6-1.4-2.5-2.5-2.3c-10.4,1.6-21,0.2-31.4,1.3c-0.5,0.1-1,0.3-1.9,0.5
			C254.3,685.7,256.9,685.5,258,685.3z M233.7,412.3c-10.1,0.1-20.3,0.4-30.4-0.4c-1.1-0.1-2.3-0.1-3,1.1c-0.4,0.8-0.3,1.6,0.3,2.3
			c0.7,0.9,1.9,1.1,2.7,0.7c6.4-3.1,13.2-0.6,19.8-1.2c8.4-0.8,16.8,0.4,25.2-1.2C243.5,411.3,238.5,412.2,233.7,412.3z
			 M517.9,400.9c3.1,0.7,4.5,0.1,4.5-3.6c0-3.4-1.1-4.6-4.4-4.2c-2.2,0.3-4.5,0.5-6.6,0.1c-3.7-0.6-4.2,1.2-4.4,4.2
			c-0.2,3.5,1.9,3.5,4.2,3.4c1.3,0,2.5,0,3.8,0c0,0.1,0,0.1,0,0.2C515.9,401,517,400.7,517.9,400.9z M494.7,393.2
			c-2.7-0.2-4,0.7-4.1,3.7c-0.1,3,0.8,4.3,3.8,4.2c2-0.1,4.1,0.1,6.1,0.1c4.1,0.1,5.8-2.6,4.7-6.7c-0.4-1.4-1.2-1.4-2.2-1.4
			c-1.7,0-3.4,0-5,0c0,0,0,0,0,0C497,393.2,495.9,393.3,494.7,393.2z M494.9,690.8c-3.9-0.8-4.2,1.5-4.3,4.6
			c-0.2,3.8,2.3,3.1,4.4,3.1c2,0,4-0.3,5.9,0.1c4,0.8,4.8-1.4,4.9-4.6c0.1-3.7-2.6-3.2-5-3.1c-1,0-2,0-3,0
			C496.9,690.8,495.9,691,494.9,690.8z M336.3,698.5c3.2,0.4,4.1-1,4.1-4.1c0-3.2-1.5-3.8-4.1-3.6c-2,0.1-4,0.3-5.9,0
			c-3.6-0.6-5.1,1-5.2,4.4c-0.1,3.9,2.7,3.5,5.2,3.4c0.8,0,1.7,0,2.5,0c0,0,0,0,0,0C334.1,698.5,335.2,698.4,336.3,698.5z
			 M751.9,694.2c1.4,0,2.6-0.5,2.5-2.1c-0.1-2-1.3-1.4-2.3-0.9c-0.9,0.4-1.3-0.3-1.7-0.8c-1.7-2-3.5-1.6-5.7-0.7
			c-4.6,1.9-9.3,2.6-14.2,0.6c-4.4-1.8-4.5-1.6-6.5,3.8C733.4,694.2,742.6,694.2,751.9,694.2z M421.4,393.5
			c-2.3-0.7-4.3-0.3-4.5,2.7c-0.2,2.7-0.3,5.2,3.7,5c2-0.1,4.1,0.3,6.1,0.2c4.5-0.2,5.8-2.1,4.6-6.3c-0.4-1.5-0.4-1.5-6.2-1.8
			C423.9,392.9,422.8,393.9,421.4,393.5z M282,454.2c0-0.3,0-0.6,0-0.8c-29.6,0-59.3,0-88.9,0c0,0.3,0,0.6,0.1,0.8
			C222.8,454.2,252.4,454.2,282,454.2z M335.6,401.5c4.5,1,4.3-2.3,4.5-5c0.3-3.4-2.4-2.4-4.1-2.5c-2.1-0.2-4.3,0.2-6.4-0.1
			c-3.4-0.4-4.1,1-3.9,4.1c0.2,2.5,0.4,4.4,3.6,3.3c1.1-0.4,2.2,1,3.2,0C333.6,401.4,334.7,401.3,335.6,401.5z M294.1,674.6
			c-4.8,0.2-4.8-0.1-4,5c0.1,0.8,0,1.7,0.1,2.5c0.1,2.6-1.1,5.5,3.8,5.5c4.8-0.1,3.8-3,3.9-5.7c0-0.3,0-0.6,0-1.2
			C297,678.7,299.9,674.3,294.1,674.6z M427.6,698.5c2.8,0.4,4-0.5,3.9-3.6c-0.1-2.9-0.4-4.7-3.9-4.1c-1.5,0.3-3.1,0.2-4.7,0
			c-3.7-0.5-4.5,1.1-4.4,4.6c0.2,5.7,4.5,1.9,6.2,3.1C425.9,698.5,426.7,698.4,427.6,698.5z M248.1,434.8c-1.3-0.3-2.7-0.1-4-0.8
			c2.1,0,4.2,0,6.2,0c1.6,0,3.1-1,2.8-2.4c-0.4-1.8-1.7,0-2.7,0c-5.7,0-11.4,1-17-0.2c-1-0.2-1.9-1.4-3.1-0.4
			c-0.5,0.5-0.2,1,0.1,1.5c0.8,1,2,2.1,3.2,1.5c2.8-1.5,5.4,0.5,8.1,0.2c-3.3,1.2-6.9-0.1-10.1,1.9c6.8,0,13.6,0,21.1,0
			C250.9,434,249.4,435,248.1,434.8z M298.6,668.4c0-0.1,0-0.3,0-0.4c-0.5-1.7-7.3-2.8-10.8-1.8c-2.8,0.8-2.2,3.3-1.7,4.9
			c1.1,3.5,4.4,1.1,6.2,1.8C298.6,673,299.3,672.4,298.6,668.4z M882,455c0.1,0.7-0.1,1.4,0.7,1.9c1.2,0.7,9.7-1.4,10.5-2.6
			c0.8-1.2,0.8-2.3,0.1-3.5c-0.9-1.4-0.8-1.5-4.7-1.4C882.6,449.4,881.5,450.4,882,455z M385.6,639c0,0.3,0,0.6,0,0.8
			c27.4,0,54.8,0,82.2,0c0-0.3,0-0.6-0.1-0.8C440.4,639,413,639,385.6,639z M703.6,688.3c-1.6,0-3-0.2-2.9,2.4
			c0.1,2.1,0.5,2.9,2.8,2.8c4.5-0.2,9.5,1.3,11.5-4.7c0.2-0.5,0.2-1.1,0.4-2.6C711.4,688.7,707.5,688.4,703.6,688.3z M208.7,683.5
			c0,0.4,0,0.8,0,1.3c12.6,0.3,25.2,0.7,37.8,0c0-0.4,0-0.8,0-1.2C233.9,683.5,221.3,683.5,208.7,683.5z M164.1,682
			c0.1-1,0.3-2,0.2-2.9c-0.4-3.5,0.1-6.1,4.4-6.1c1.5,0,2.4-0.9,2.2-2.4c-0.2-1.5-1.4-2-2.8-1.9c-2.2,0.2-4.1-0.5-6.2-2.8
			C161.6,672.1,161.3,677.2,164.1,682z M209.6,670.8c0,0.3,0,0.6,0,0.8c12,0,24.1,0,36.1,0c0-0.3,0-0.6,0-0.8
			C233.7,670.8,221.6,670.8,209.6,670.8z M724.8,689.2c1.1-1.9-1.2-2.3-2.1-3.4c-1.2-1.5-2.2-0.8-3.1,0.3c-0.9,1.1-1.7,2.3-2.5,3.4
			c-0.8,1-2.3,1.7-1.6,3.1c0.7,1.5,2.2,0.5,3.3,0.8C722.5,694.3,723.6,691.5,724.8,689.2z M162.8,419.3c0-0.9,0-2.1-1.4-2.2
			c-1.3-0.1-2.2,0.6-2.2,2c-0.1,3.8,0,7.6,0,11.5c0,1.2,0.7,1.7,1.9,1.8c1.5,0.1,1.5-1,1.5-2c0-1.8,0-3.7,0-5.5c0.1,0,0.1,0,0.2,0
			C162.9,422.9,162.9,421.1,162.8,419.3z M173,670.7c0,0.3,0,0.6,0,0.9c9.5,0,18.9,0,28.4,0c0-0.3,0-0.6,0-0.9
			C191.9,670.7,182.4,670.7,173,670.7z M877.2,463.9c4.2-4.6,4.3-11.9,0-18.1C877.2,452.3,877.2,457.9,877.2,463.9z M345.4,419.3
			c0,0.8-0.1,1.8,1.1,1.9c1,0.1,1.6-0.5,1.8-1.4c0.9-4.2,0.7-8.3-0.5-12.4c-0.1-0.4-0.9-0.8-1.3-0.7c-1,0.1-1.4,0.7-1.4,1.7
			c0.1,1.5,0.2,3.1,0.2,3.5C345.4,415.1,345.4,417.2,345.4,419.3z M889.8,639.9c2.7-0.1,3.6-1.5,3.6-3.6c0-3.6-3.3-3.2-5.5-3.8
			c-1.9-0.5-1.6,1.3-1.7,2.7C886.8,637.1,885.9,640,889.8,639.9z M499.1,532.1c-0.1,0-0.3,0-0.4,0c0,14.2,0,28.3,0,42.5
			c0.1,0,0.3,0,0.4,0C499.1,560.4,499.1,546.2,499.1,532.1z M156.8,550.5c1.9-0.1,3.1-1.3,3.1-3.3c0-2.1-1.2-3.4-3.4-3.4
			c-2.2,0-3.2,1.4-3.4,3.5C153.5,549.4,154.7,550.6,156.8,550.5z M581.3,630.1c1.3-1.5,4.9,1.1,4.7-1.9c-0.2-2.4-3-0.7-4.7-1.1
			c-1.9-0.4-4,0.6-5.5-1.3c-0.4-0.4-0.9-1.3-1.7-0.5c-0.6,0.6-0.9,1.3-0.5,2.3c1.5,3.4,4.3,2.4,6.8,2.1
			C580.8,629.8,581.2,630.1,581.3,630.1z M586.1,520.1c-3.5-3.9-10.1,1.8-12.5-4.6C573.2,522.2,576.2,523.2,586.1,520.1z
			 M583.3,465.9c1.5,0,2.7,0,2.6-1.4c-0.1-1.4-1.3-1.2-2.7-1.2c-1.4,0-3,0.3-4.7-0.1c-3.8-0.9-5,0.6-4.8,5.2
			C576.2,464.5,580,466,583.3,465.9z M583.2,573.9c1-0.1,2.4,0.8,2.6-0.7c0.3-1.6-1.4-1.5-2.4-1.5c-1.7,0-3.3-0.2-5-0.4
			c-2.9-0.3-5.1,0.6-4.2,4.7C576.7,572.6,580.2,574.3,583.2,573.9z M883,629.9c0,4.9,0,9.8,0,14.7
			C886.2,639.8,885.7,634.9,883,629.9z M187.9,683.7c0,0.4,0,0.8,0,1.2c4.6-0.3,9.1,0.7,13.7-0.2c0-0.4-0.1-0.7-0.1-1.1
			C197,683.7,192.5,683.7,187.9,683.7z M312.6,413.7c3.5,0.5,7.1,1.5,10.5-0.5C319.5,411.5,316,411.4,312.6,413.7z M570.2,479.3
			c-0.3,0-0.5,0-0.8,0c0,5.8,0,11.7,0,17.5c0.3,0,0.5,0,0.8,0.1C570.2,491,570.2,485.2,570.2,479.3z M350.2,413.2
			c0,1.2,0.3,2.5,0.9,3.6c0.3,0.6,1.2-0.2,1.7-0.7c1.3-1.1,1.7-2.6,1.2-4.1c-0.4-1.2-1.3-2.1-3.1-2.7
			C350.5,410.7,350.1,412,350.2,413.2z M195.4,424.6c0-2.4-3.6-0.2-5.2-1.4c-0.2-0.2-0.8,0.2-1.2,0.3c-1.2,0.1-3.4-0.9-3.3,1.2
			c0.1,2.4,2.3,0.1,3.3,0.8c0.3,0.2,0.8,0,1.6,0C192,424.8,195.4,426.7,195.4,424.6z M251.9,415.3c-1.7,0-2.6,0.7-2.6,2.5
			c0,1.7,0.7,2.6,2.5,2.7c2,0.1,1.8-1.3,1.8-2.6C253.4,416.8,254,415.2,251.9,415.3z M433.7,392.7c-2-0.2-1.6,2.2-1.5,3.6
			c0,1.6-0.5,4.1,1.5,4.1c1.9,0,0.7-2.5,1.2-4C434.4,395.2,435.6,392.8,433.7,392.7z M396.7,691c-2.1,0.2-1.1,2.5-1.2,3.9
			c-0.1,1.2-0.9,3.4,1.2,3.4c2.5,0,0.8-2.5,1.5-3.7C397.5,693.4,399.3,690.9,396.7,691z M396.8,401.2c2.4,0,1.1-2.6,1.3-4.1
			c0.2-1.3,0.5-3.4-1.3-3.4c-1.9,0.1-1.1,2.2-1.2,3.5C395.9,398.6,395,401.2,396.8,401.2z M167.1,655.2c0.7-0.8,1-1.9-0.1-2.5
			c-0.9-0.4-1.6,0.6-1.8,1.4c-0.7,2.9-2.6,5.5-2.4,8.7C164.3,660.3,165.3,657.5,167.1,655.2z M147.1,571.3c1.4-2,1.1-4.2,0.3-6.3
			c-0.2-0.7-1-0.6-1.3,0c-0.9,2.3-0.9,4.5,0.2,6.8C146.9,571.5,147,571.4,147.1,571.3z M154.7,425.8c0.5,1.1,1.7,2.4,2.3,1.7
			c1.5-1.7,0.2-3.9,0.6-6.9C155,422.3,153.5,423.3,154.7,425.8z M343,394.6c-0.2-0.3-1-0.2-1.5-0.3c-0.4,2.4-1,4.9,0.6,7.2
			C344.2,399.3,344.3,397,343,394.6z M147.7,530.1c0.2-1.9,1.4-3.8-0.5-5.5c-0.6-0.6-1.2,0.2-1.3,0.5c-0.4,2.2-1,4.5,1,6.9
			C147.3,531.1,147.6,530.6,147.7,530.1z M489,392c-3,3.1-1.9,5.8-1,9.3C489.8,398,488.9,395.3,489,392z"/>
		<path d="M840.1,693.9c-3.2-3-0.6-6.6-0.8-9.9c0-0.9,1.7-1.5,2.7-0.3c1.2,1.5,1.5,0.3,1.8-0.5c0.3-0.8,0.5-1.8-0.9-1.7
			c-3.4,0.2-6.9,0.4-10.3,0.7c-0.8,0.1-0.7,1.2-0.3,1.8c0.4,0.6,0.6,1.4,1.8,0.3c2.5-2.3,2.9-0.5,3,1.8c0,1.8,0.2,3.6,0.1,5.3
			C836.6,694.1,837.9,694.5,840.1,693.9C840.1,693.9,840.1,693.9,840.1,693.9z"/>
		<path d="M265.5,500.4c1.7,1.6,2.4,3.5,1.7,5.8c3.6,1.5,2.5-2.6,4.1-3.5C270,500.4,267.8,500.4,265.5,500.4z"/>
		<path d="M273.8,502.8c0.2-0.6,0-0.9-0.6-0.6C273.4,502.5,273.6,502.7,273.8,502.8z"/>
		<path d="M200,620.5c-0.3-0.2-0.5-0.2-0.8,0l0.4,0.1L200,620.5z"/>
		<path d="M284.1,587.9c0.2,0.3,0.3,0.5,0.5,0.8C284.4,588.5,284.3,588.2,284.1,587.9z"/>
		<path d="M657.5,522.5c0-13.6,0-27.2,0-40.8c0-6.1,3.9-9.3,9.8-7.9c3.3,0.8,4.7-0.4,5.5-3.5c1.5-5.3,3-6,8.1-4.6
			c1.2,0.3,2.4,0.8,3.6,1.2c3.4,1,4.6,3.2,3,6.4c-1.9,3.8-0.4,5.1,3.3,5.9c16,3.6,32,7.3,48,11c2.4,0.6,3.5-0.3,3.8-2.9
			c0.6-5,2.3-6,7.3-4.7c0.9,0.2,1.9,0.5,2.8,0.8c4.9,1.5,5.8,2.6,4.1,7.1c-1.4,3.6,0.6,4.1,2.9,4.8c7.7,2.4,9.2,4.2,9.2,12.3
			c0,25.4,0,50.7,0,76.1c0,9.8-0.7,10.7-10.3,13.9c-1.4,0.5-2.8,0.9-2.5,3.2c1,6.8,1,6.8-6.1,8.7c-5.8,1.5-6.4,1.3-7.5-4.2
			c-0.5-2.3-1.6-3.1-3.8-2.6c-15.9,3.9-31.9,7.9-47.8,11.7c-2.7,0.7-3.4,1.9-2.3,4.5c1.6,3.7,0.5,6.1-3.8,6.9
			c-1.3,0.2-2.6,0.8-4,1.2c-3.4,0.8-6,0.1-6.4-3.8c-0.4-3.9-2.6-4-5.8-3.5c-7.8,1.3-11.3-1.7-11.3-9c0.2-21.2,0.1-42.5,0.1-63.7
			C657.5,538.6,657.5,530.6,657.5,522.5z M763,547.2c3.6,0,4.4-1,4.4-4.5c-0.2-12.5-0.1-24.9-0.1-37.4c0-5.9-2.5-8.5-8.5-9.3
			c-2.6-0.3-3.7,0.7-4.3,3.2c-1.2,5.2-2.4,5.8-7.2,4.4c-6.9-2-7-2-6.3-9.4c0.3-2.9-1.9-2.9-3.4-3.2c-10-2.4-20.1-4.6-30.1-7
			c-5.6-1.3-11.1-2.7-16.7-4c-3.2-0.8-5.7-0.7-6.2,3.7c-0.4,4-3.4,4.4-6.6,3.6c-1.6-0.4-3.2-0.9-4.8-1.5c-2.6-1-4.4-2.3-3-5.6
			c1.1-2.5,1.2-4.9-2.6-5.4c-4.5-0.6-8.2,0.9-8.3,4.2c-0.2,4.7-1,9.4-0.3,14.3c1,6.9-0.5,13.8-0.2,20.7c0.5,10.2,0.2,20.4,0.2,30.6
			c0,2.9,1.9,2.6,3.7,2.6c17,0,34,0,51,0c0,0,0,0,0-0.1C730.1,547.1,746.5,547,763,547.2z M662.6,548.8c-2.3,0-3.6,0.2-3.6,3
			c0,6.7-0.5,13.4-0.6,20.1c-0.1,9.3,0.6,18.6,0.1,27.9c-0.2,3.9,0.1,7.9,0.5,11.8c0.5,6.1,3.2,7.9,9.2,7c3.3-0.5,4.6-2,3.7-5.5
			c-1.3-5.1-0.7-6,4.3-7.3c7.6-2,7.6-2,10.2,5.3c0.7,2.1,2.1,2.7,4.2,2.1c10.3-2.6,20.6-5.1,30.8-7.6c5.4-1.3,10.7-2.8,16.1-4.1
			c2.6-0.6,3.9-1.6,2.7-4.7c-0.9-2.2-2.1-5.2,0.6-6.8c3.2-1.9,6.9-3,10.7-2.1c2.5,0.6,2.3,3.4,2.7,5.3c0.7,3.3,2.5,3.7,5.2,2.9
			c6-1.7,7.7-3.9,7.7-10.2c0-11.1-0.1-22.1,0.1-33.1c0.1-3.1-0.6-4.1-3.9-4c-16.7,0.2-33.4,0.1-50.2,0.1
			C696.4,548.8,679.5,548.8,662.6,548.8z M753.1,489.5c-0.7-0.7,1.3-2.7-1.3-2.4c-2.5,0.3-5.8-2.2-7,1.7c-0.6,1.9-1.3,4-1.3,5.9
			c0,1.6-0.4,4.3,3.5,3.8c1.5-0.2,3.2,1.2,4.7-0.8c0.8-1,1.6-1.7,0.2-2.9C751.7,493,755.4,491.8,753.1,489.5z M683.8,476.1
			c2.5-1.5-0.1-2.4-0.1-3.2c0.2-4.8-5-0.9-5.6-3.8c-0.2,0.1-0.5,0.2-0.7,0.3c-2.2,1.3-4.2,8.3-3.1,11c0.3,0.8,0.1,2.5,1.5,1.9
			c2.2-1,5.4,2,6.8-2c0.7-2-0.4-2.4-1.4-3.3c-0.9-0.8-0.6-1.7-0.1-3.4C681.3,475.7,681.5,477.5,683.8,476.1z M683.5,610.8
			c-1.6-1.7-3.1-1.6-4.9-0.2c-0.6,0.5-2.5-1.6-3,0.3c-0.3,1.5-2.3,3.3,0.1,4.8c0.2,0.2,0.7,0.3,0.7,0.4c-1.3,6.3,3.7,4,6.5,5.1
			c3.5,1.3,1.2-4.3,4.2-3c-0.6-1-0.1-2.2-2.3-2.8c-3-0.7,0.5-3.4-0.1-5.2C683.9,609.7,683.7,611,683.5,610.8z M748.2,593.5
			c-6.8,0.5-4.3,5.3-3.8,8.8c0.3,1.9,1.4,5,4.5,2.3c1.2-1.1,3.4,1.9,4.3-1.7c0.6-2.4,1.8-3.5-1.1-4.5c-0.3-0.1-0.7-0.7-0.6-0.8
			c2.8-3.3-1.8-3.8-1.8-6.1C748.1,591.8,748.8,593.4,748.2,593.5z"/>
		<path d="M849.4,582c-5.7,0-11.3-0.2-17,0.1c-3.1,0.1-4.1-0.6-4-3.9c0.2-18.3,0.1-36.5,0.1-54.8c0-4.4-1.5-10.2,0.7-12.7
			c2.5-2.8,8.5-0.6,13-0.9c4.4-0.3,8.9,0.9,13.6-1.1c0,24.8,0,49.5,0,74.9C853.5,581.6,851.4,582,849.4,582z M847.1,569.2
			c7,0,8.3-1.7,6.8-8.6c-0.3-1.3-0.8-1.6-1.9-1.6c-6.8,0-13.5,0-20.3,0c-0.5,0-1.2,0.2-1.4,0.6c-1.5,2.7-0.6,5.5-0.1,8.3
			c0.5,2.5,2.8,1.1,4.2,1.3c2.5,0.2,5.1,0.1,7.6,0.1C843.7,569.2,845.4,569.2,847.1,569.2z M832.9,516.4c-2.8-0.2-3.3,1.2-3.1,3.6
			c0.5,6.7,0.5,6.7,7.3,6.7c4.5,0,9-0.1,13.5,0c2.5,0.1,3.7-0.6,3.4-3.3c-0.1-1.3-0.2-2.6,0-3.8c0.4-2.8-0.9-3.4-3.4-3.2
			c-2.9,0.2-5.9,0-8.9,0C838.8,516.5,835.8,516.6,832.9,516.4z M832.3,530.9c-1.7,0-2.4,0.4-2.4,2.4c0.1,7.9,0,7.9,8.1,7.8
			c4.2,0,8.4-0.1,12.5,0c2.6,0.1,3.7-0.9,3.5-3.4c-0.1-1.3-0.2-2.6,0-3.8c0.3-2.5-0.8-3.2-3.1-3.1c-3,0.1-5.9,0-8.9,0c0,0,0,0,0,0
			C838.8,530.9,835.5,531,832.3,530.9z M848.4,554.7c6.4-0.1,5.3,1.1,5.6-5.6c0.2-3.5-1-4.8-4.5-4.7c-5.2,0.2-10.4,0.2-15.6,0.1
			c-5.8,0-3.2,4.4-3.7,7c-0.7,3.4,1.7,3.1,3.8,3.1c2.8,0,5.6,0,8.5,0C844.4,554.8,846.4,554.8,848.4,554.7z M833.7,573.4
			c-2.9-0.3-4.1,0.8-4.1,3.7c0.1,2.9,0.9,4.3,4.3,4.1c5.5-0.4,11-0.3,16.6,0c3.9,0.2,3.2-2.3,3.5-4.7c0.3-3.2-1.6-2.9-3.7-2.9
			c-2.8,0-5.7,0-8.5,0C839.1,573.5,836.4,573.7,833.7,573.4z M831.1,511.4c0,0.2,0,0.4,0,0.6c7.4,0,14.7,0,22.1,0
			c-0.1-0.2-0.2-0.4-0.3-0.6C845.6,511.4,838.4,511.4,831.1,511.4z"/>
		<path d="M795.9,547.3c1,1.1,2.1,2.5,3.4,3.6c1.7,1.5,0.7-0.8,1.3-1c1.3-0.4,2.5-0.5,3.7,0c0.7,0.3,1.5,0.2,1.7-0.7
			c0.1-0.9-0.6-1.1-1.4-1.3c-2.5-0.6-5.1-0.6-7.4-1.8C796.7,545.9,796.2,546.3,795.9,547.3z"/>
		<path d="M517.4,673c-4.2,0.2-5.6-1.6-5.3-5.5c0.2-3.1,0.2-6.2,0-9.3c-0.2-3.7,1.5-5,5.1-4.9c7.6,0.1,15.1,0.1,22.7,0
			c3.9,0,7.8-0.3,11.8-0.1c1.7,0.1,3.9,0,3.9,2.8c0,4.2,0.2,8.4,0.2,12.6c0,3.1-1.5,4.5-4.8,4.5c-5.7-0.1-11.3,0-17,0
			C528.4,673,522.9,672.7,517.4,673z M548.7,662c0-5.4-0.4-5.7-6-5.5c-7.2,0.3-14.4,0.4-21.6-0.1c-1.2-0.1-2.2,0.1-3.2,0.8
			c-0.7,0.6-1.6,0.6-2.3-0.1c-0.5-0.5,1.2-2.3-0.9-1.9c-1.7,0.3-0.9,1.8-0.9,2.8c-0.1,3.3-0.1,6.5,0,9.8c0,1.5-0.2,3.2,2.6,3.4
			c-0.8-2.2-1.6-4.4,0.9-5.7c0.3,4.4,1.3,4.5,6.1,3.7c6.4-1.1,13-0.4,19.5-0.3c0.6,0,1.1,0.8,1.6,1.5c1.1,1.6,3.4,1.5,4,0.1
			c1.4-3.1,4.6-5.8,3.5-9.8c-0.2-0.7,0.3-1.9-1-1.9c-0.9,0-1.4,0.9-1.5,1.8c-0.2,1.1-0.2,2.1-0.3,3.2c-0.1,0-0.3,0-0.4,0
			C548.8,663.1,548.7,662.5,548.7,662z M551.3,671.1c2.4,0.3,2.6-1.3,2.6-3.1c0.1-4.3,0.2-8.7-1.1-12.8
			C553.2,660.6,553.9,665.8,551.3,671.1z"/>
		<path d="M385.9,665.3c-1.4,0-3.2,0.2-3.6-1.5c-0.6-2.9-1.2-6.2,0.2-8.6c1-1.8,4-1.3,6.2-1.3c5.9,0.1,11.9,0.3,17.8-0.1
			c8.4-0.5,9.4,0.2,9.4,8c0,2.5-0.9,3.6-3.4,3.5c-4.4-0.1-8.7,0-13.1,0C394.9,665.3,390.4,665.3,385.9,665.3z M388.7,660.3
			c-0.8,0.4-1.8,1.2-1.3,2.3c0.7,1.6,1.5,0.2,2.3,0c5.8-1.5,11.8-0.3,17.6-0.6c1.1-0.1,2.7,1.8,3.2,0.2c0.6-2.1-1.8-1.9-3.2-2.3
			c0.4-1.4,2.8,0.2,2.5-1.7c-0.3-1.8-1.8-1.3-3.1-1.3c-5.1,0-10.1,0-15.2,0.1c-1.2,0-3-0.7-3.1,1.1c-0.1,2.1,2,1.3,3.6,1.8
			C390.6,660,389.5,659.9,388.7,660.3z"/>
		<path d="M241,665.3c-4.4,0-8.8-0.2-13.1,0.1c-3.3,0.2-4.4-1.1-4-4.2c0.1-0.8,0.1-1.7,0-2.5c-0.4-3.2,0.7-4.6,4.2-4.5
			c7.3,0.2,14.7,0.1,22.1,0.1c8,0,7.9,0,7.8,8.1c0,2.2-0.7,3.1-2.9,3C250.3,665.2,245.6,665.3,241,665.3
			C241,665.3,241,665.3,241,665.3z M228.5,657c-0.6-0.2-1.1,0-1.2,0.7c-0.3,1.7-0.7,3.4,1.1,4.6c0.9,0.6,1.5,1.5,3,1
			c6.5-2.3,13.1-2.1,19.6-0.2c0.9,0.3,1.3,0.2,1.6-0.5c0.7-1.8-1.7-6.2-3.5-6c-4.6,0.4-9.3,0-13.9,0.2c-2.5,0.1-5.3,0-4.9,4.6
			C228.3,659.7,230.4,657.8,228.5,657z"/>
		<path d="M557.3,669.8c0-2.1-0.1-4.2,0-6.3c0.1-1.8-0.5-4.4,2.7-4.1c2.7,0.2,2.2,2.4,2.3,4.1c0.2,3.9-0.5,7.8,0.7,11.6
			c0.6,1.8,0.1,3.7-2.6,3.7c-2.3,0.1-3.4-0.8-3.3-3.2c0.1-2,0-3.9,0-5.9C557.2,669.8,557.3,669.8,557.3,669.8z M559.8,662.1
			c-1.3,3.2-1,6.5-0.1,9.8C560.8,668.6,560.8,665.3,559.8,662.1z"/>
		<path d="M522.9,439.1c-2,0-4.1,0-4.1-3c0-4.5,0.1-9,0-13.5c-0.1-2.7,1.8-3.6,3.7-3.6c11.8-0.2,23.6-0.3,35.4-0.3
			c2.7,0,4.4,1.3,4.3,4.5c-0.2,3.8-0.1,7.6,0,11.4c0.1,3.3-1.5,4.5-4.6,4.5c-5.8-0.1-11.6,0-17.4,0
			C534.5,439.1,528.7,439.1,522.9,439.1z M520.6,422.9c0,4.3,0,8.5,0.1,12.8c0,0.7,0.5,1.2,1.5,1.4c0.8-1.9-1.5-3.8-0.1-5.6
			c1.9-0.2,0.3,2.9,1.9,2.3c2.1-0.9,0.1-3.4,1.3-4.8c0.1,0.2,0.4,0.3,0.4,0.5c0.3,6.1,0.3,6.2,6.3,6.2c6.7,0.1,13.3,0.1,20-0.1
			c1.7,0,4.6,1.5,4.5-2.4c1.3,0.1,3.5,1.6,2.4-2.4c1.8,2.3,0,3.8,0.5,5.5c2.2-2.8,1.8-13.7-0.5-15.2c-0.8,1,0.4,1.3,0.7,1.9
			c0.3,0.8,0.6,1.8-0.3,2.2c-0.5,0.2-1.5,0.2-1.8-0.6c-1.2-2.8-3.7-2-5.5-1.7c-7.7,1.1-15.4,1.2-23.1,0c-1.6-0.2-4.4-1.2-3.8,2.4
			c0.1,0.8-0.1,1.3-1.2,1c-0.8-0.2-1.4-0.2-1.3-1.2c0.2-1.4-1.1-3.4,1.7-3.8C522.4,421.5,520.6,420.4,520.6,422.9z"/>
		<path d="M400.3,428.1c4.4,0,8.8,0,13.2,0c1.6,0,2.9,0.5,3.3,2c0.4,1.5,0.3,2.6-2,2.3c-0.4-0.1-1.5,2.2,0.5,3.2
			c2.6,1.2,1.8,2.5-0.2,3.6c-1.1,0.6-2.3,0.8-3.7,0.8c-8.2-0.1-16.3,0-24.5,0c-2.6,0-4.4-1-4.2-4c0.1-1.4,0.2-2.8,0-4.2
			c-0.3-2.7,1-3.5,3.4-3.5C390.9,428.2,395.6,428.2,400.3,428.1C400.3,428.1,400.3,428.1,400.3,428.1z M408.6,436.5
			c0.8-0.1,2-0.4,2-1.3c0-1.1-1.3-0.9-2.3-1.4c1-0.3,1.8-0.5,2.5-0.9c0.6-0.3,1.2-0.9,0.8-1.7c-0.4-0.8-1.1-0.7-1.8-0.5
			c-6.2,1.4-12.4,1.1-18.7,0.2c-0.9-0.1-2.1-0.7-2.3,0.7c-0.2,1.3,0.9,1.7,1.9,1.7c1.4,0.1,2.9,0,4.8,0c-1.8,2.4-4.3,0.4-6.3,2.9
			C396.1,436.6,402.3,436.9,408.6,436.5z"/>
		<path d="M569.9,417.2c0.3-2.7-0.6-3.7-2.8-3.7c-2.1,0-3.4,0.9-3,3c0.9,4.4,0.8,8.9,0.6,13.4c-0.1,1.2,0.1,2.5,2.1,2.4
			c1.8-0.1,2.4-1.1,2.4-2.7C569.3,425.3,568.4,420.9,569.9,417.2z"/>
		<path d="M537.1,494.4c-3.7,14.4-7.1,27.8-10.5,41.2c-0.8,3.3-1.2,6.4,0.6,9.7c1,1.8,1,4.7-0.9,6.8c-1.8,2-4.1,3.3-6.7,2.4
			c-2.7-0.9-5.1-2.4-5.6-5.6c-0.5-3.3,1-6,3.7-7.4c2.5-1.3,3.4-3,4-5.7c4-16.3,8.2-32.6,12.3-48.9c0.4-1.6,0.2-3.2-0.4-4.9
			c-3.5-9.4-7-18.8-11.6-27.8c-0.3-0.7-0.6-1.3-0.2-2c0.5-0.9,1.4-0.5,2.2-0.5c1.8,0,2.4,1.1,3,2.5c2.5,5.6,5.2,11.1,7.6,16.7
			c0.8,1.8,1.4,3,3.8,3.1c3.3,0.2,4.7,2.1,2.9,5.4c-2.1,3.8-1.7,7.6-0.1,11.5c1.7,4.1,2.8,8.4,3.8,12.8c3.2,14.2,6.1,28.5,6.3,43.1
			c0.1,10.4-1.4,20.7-3.2,30.9c-3.8,21.3-10.1,41.8-19.6,61.3c-1.3,2.7-2.7,4.2-6,2.9C544.1,594.9,554.5,546.6,537.1,494.4z
			 M547,575.7c5.2-29.6,1.5-58.2-8.6-86.3c2.8,12.4,5.9,24.7,7.6,37.3c1.7,13.2,1.6,26.3,0.3,39.5c-1.3,13-4.4,25.6-7.9,38
			c-3.5,12.4-8.3,24.3-13.1,36.2C536.3,620.2,543,598.4,547,575.7z M523,541.8c4.8-19.7,11.3-39,14.2-59.1
			C531.8,502.3,526,521.7,523,541.8z M534.2,478.7c0.3-0.1,0.7-0.3,1-0.4c-2-8.8-6.9-16.5-10.2-24.9c-0.4,0.2-0.8,0.4-1.2,0.6
			C527.3,462.2,530.7,470.5,534.2,478.7z M517.3,547.9c0.2,2.2,1.9,3.5,4,3.3c2-0.2,2.8-1.9,2.8-4c0-2.4-1.9-2.7-3.2-3.5
			C518.6,544.4,517,545.6,517.3,547.9z M536.8,478.3c0,1.1-0.1,2.4,1.5,2.4c1.4-0.1,1.8-1.2,1.8-2.4c0-1,0.4-2.3-1.1-2.6
			C537.3,475.9,536.8,476.9,536.8,478.3z"/>
		<path d="M846.2,494.9c0.7,4.3,4.8,3,7.1,3.9c2.5,1,1.9-2.8,2-3.9c0.2-3.4-3.4-3.2-5.5-3.8C847.1,490.4,847,493.3,846.2,494.9z"/>
		<path d="M180.9,607.2c-0.9,0.2-1.8,1.7-1.8,3c-0.1,3,3.6-0.5,4.1,2.1c0.1,0.3,2.1-1,1.9-1.5C184.3,609.4,184,607.4,180.9,607.2z"
			/>
		<path d="M232.5,609c0.7,2.1-1,3.1-2,4.4c1.5,1.6,2.8,0,4.2,0.1C233.6,612.2,235.3,609.8,232.5,609z"/>
		<polygon points="274.5,500.8 274.3,500.7 274.3,500.9 		"/>
		<path d="M577.8,491c0,6.2,0,12.3,0,18.5c0.1,0,0.3,0,0.4,0c0-6.2,0-12.3,0-18.5C578.1,491,577.9,491,577.8,491z"/>
		<path d="M666.5,535.5c-0.8,2.2-0.5,4-1.9,5.3c-0.6,0.5-0.3,1.6,0.3,2.3c0.7,0.7,1.5,0.8,2.3,0.5c1-0.4,1.8-1.5,1.2-2.4
			C667.4,539.6,668.3,537.6,666.5,535.5z"/>
		<path d="M757.9,541.3c0,1.4,0.6,2.3,1.9,2.4c1.3,0.1,2.2-0.6,2.2-1.9c0-1.2-0.6-2.2-1.9-2.4C758.8,539.2,758.2,540.2,757.9,541.3z
			"/>
		<ellipse cx="540.7" cy="432.7" rx="16.2" ry="0.4"/>
	</g>
</g>
<g id="text">
</g>
<g id="scratch">
</g>
<g id="guides" display="none">
</g>
</svg>
