<?xml version="1.0" encoding="utf-8"?>
<!-- Generator: Adobe Illustrator 26.0.2, SVG Export Plug-In . SVG Version: 6.00 Build 0)  -->
<svg version="1.2" baseProfile="tiny" xmlns="http://www.w3.org/2000/svg" xmlns:xlink="http://www.w3.org/1999/xlink" x="0px"
	 y="0px" viewBox="0 0 1000 1000" overflow="visible" xml:space="preserve">
<g id="bg">
</g>
<g id="counters">
	<g>
		<path d="M167.2,545.2c-9.8,19.4-5.7,38.4-3.4,57.8c-17.1,0-35.4,0.2-53.8-0.1c-7.4-0.2-10.3,2.5-10.1,9.9
			c0.3,15.4,0,30.7,0.1,46.1c0.1,10.6,1,11.5,12.3,11.5c47,0.1,94,0,141,0c44.9,0,89.8,0.1,134.7-0.1c7.5,0,14.1-0.1,13.6,10.4
			c-0.2,4.6,4,5.7,7.8,5.7c33.5,0.1,66.9,0.1,100.4,0.1c5.2,0,8.9-2.3,8.6-8.1c-0.4-8.2,5-8.1,10.8-8.1c53,0,106.1,0,159.1,0
			c43.7,0,87.4,0,131.1,0c13.2,0,13.5-0.4,13.5-13.8c0-13.3-0.3-26.5,0.1-39.8c0.3-8.4-2.5-12.7-11.4-11.7c-0.6,0.1-1.2,0.1-1.8,0
			c-3.3-0.7-8.9,1.9-9.4-2c-0.6-4.7,4.6-7.7,9.1-8.6c4.3-0.9,10.4,0.4,10.8-5.3c0.5-7.1,1.7-15-3.9-21.3c-4.3-4.8-5.4-10.1-5.7-17
			c-0.3-7.1,1.9-14,0.3-21.4c-1.1-5.4,1.8-11.6-0.7-18.1c-1-2.5,2.8-7,7.8-6.8c18,0.5,36.2-2.8,53.7,4.2c5.8,2.3,11.6,1.3,15.4-4.1
			c3.8-5.4,3.9-11.6,0.2-17c-3.9-5.8-10-7.2-16-4.3c-17.9,8.7-36.7,3.9-55.1,4.1c-4.5,0.1-9-1.4-4.4-7.7c1.6-2.2,0.5-4.8-0.9-6.8
			c-2-2.9-2.3-5.3,0.2-8c4.1-4.4,0.9-12.3,0.2-13.6c-4.4-7.7,4.7-15.2-1.1-22.9c-1.8-2.4,1.7-9.3,5-13.2c5.3-6.3,4.2-14.2,4.8-21.5
			c0.2-2.7-3-5.6-7.2-5.4c-6.6,0.4-10.3-3.6-14.5-10.6c6.5,0,11.8-0.1,17,0c5.1,0.1,7.9-1.8,7.8-7.3c-0.1-16.6-0.1-33.2,0-49.7
			c0.1-7.9-5.4-7.3-10.6-7.3c-46.1,0-92.2-0.1-138.3-0.1c-189.9,0-379.7,0-569.6,0c-14.8,0-14.9,0-14.9,14.9c0,14.2-0.1,28.3,0,42.5
			c0,11.9,0.4,12.4,12.1,12.4c16,0.1,31.9,0,47.9,0.1c2.9,0,7.1-0.8,7.5,3.1c0.4,4.6-4.1,3.2-6.7,3.6c-12.4,1.8-14.4,5.2-17.7,16.7
			c-3.6,12.7-1.1,24.6-0.1,37.2c1.6,20,0.5,40.3,0.1,60.5c-0.1,4.4-2.4,8.7-2.7,13.1c-1.4,18.5,5.1,25.9,23.5,27.3
			C165.3,544.8,166.9,544.7,167.2,545.2z M724.2,391.9c-3.4,3.5-2.2,8-2.2,12c0.1,5.4-2.1,7.8-7.5,7.6c-3.9-0.1-7.2,1.2-8-5.7
			c-0.7-6.1-1.6-12.3-2-18.6c-0.5-7,2.1-9.6,9.3-9.5c27.4,0.3,54.7,0.3,82.1,0c7.3-0.1,9.2,2.7,9.2,9.6c-0.3,30.4-0.2,60.8-0.2,91.1
			c0,2.1-0.1,4.2-0.5,6.3c-0.3,1.6-1.7,2.5-3.4,2.1c-1.7-0.3-2.4-1.5-2.5-3.2c-0.5-10.5,2.7-21-0.5-31.5c-0.3-1.1,0.6-2.9,1.4-4
			c1-1.5,1.4-2.8-0.4-3.7c-5.4-2.9-8.7-11.4-17.4-6.3c-1.7,1-4.7-0.3-7.1-0.3c-7.1-0.2-14.4-0.8-21.3-0.5
			c-8.3,0.4-16.6-0.1-24.9,0.2c-4.2,0.1-7.3-0.3-9.9,3.3c3.9,6.7,8.2,0.4,12.4,0.4c17.3,0,34.6-0.6,51.8,0.2
			c11.1,0.5,14.8,8,10.2,18.6c-0.7,1.6-2.6,2.9-0.8,4.6c4.6,4.6,1.8,10.3,2.3,15.4c0.6,5.5-2.3,7.3-7.6,7.3
			c-20.4-0.2-40.8,0.9-61-3.6c-5.9-1.3-9.8-3.7-8.6-10c2-10.7-0.9-21.2,0.1-31.8c-3.8,1.6-5.1,4.3-4.7,8.6
			c0.6,7.7,0.5,15.5,0.5,23.3c0,2.9-0.9,5.7-4.4,5.8c-3.8,0.1-4.2-3-4-5.8c0.9-16.4-1.2-32.8,1.6-49.4c1.3-7.6,4.2-6.2,8.6-6.9
			c5.7-0.9,6.7,3.8,9.3,6.8c0.9-6.3,3.8-9.5,10.3-6.5c3.9,1.8,7.6,0.6,11.5,0.1c5.9-0.8,11.1-2.6,10.6-9.6c-0.7-9.8-8.6-9-15.4-9.9
			c-6.7-0.9-8.5,2.4-8.5,8.2c0,2.1,0.7,5.4-3.2,5.1c-3.2-0.2-4.6-2.3-4.7-5.5C724.7,401.5,724.4,396.7,724.2,391.9z M652.3,460.8
			c-0.2-0.9-0.1-2-0.6-2.6c-5-6.1-4.9-9.2,4.2-9.1c7.6,0,10.9-4.3,10.7-12.3c-0.5-15.7-0.4-31.3-0.1-47c0.1-6.8-2.4-10.1-9-12.4
			c-13.3-4.7-26.8-3.1-40.3-3.6c-6.5-0.2-10.5,0.6-11.1,8.9c-0.4,4.9-1.8,10-1.6,15.1c0.5,16.9-1.6,33.9,1.6,50.8
			c-1.3-1.1-2.1-2.2-2.5-3.5c-3.9-13.1-10.5-24.7-17.9-36c-1.9-2.9-4.1-4.9-7.3-6.4c-20.6-9.6-37.5-24.5-54.3-39.3
			c-6.8-6-12.5-13.2-22.6-13.2c-34.7,0-69.3,0-104,0c-4.4,0-7.5,1.5-10.9,4.8c-6.1,6.1-13.5,10.9-20.5,16c-1.7,1.3-5.2,3.2-6-0.1
			c-1.6-6.7-2-14,0.1-20.5c1.7-5.5,7.9-3.1,12-3.1c59.4-0.1,118.7,0,178.1,0.1c3.6,0,7.3-0.2,10.8,0.6c38.8,8.9,77.5,18,116.2,26.9
			c4.3,1,6.9,3.1,6.8,8c-0.1,30.1-0.1,60.3,0,90.4c0,6.3-2.1,6.5-6.9,3.2c-6.6-4.5-11.7-11.6-20.4-12.7c0.3,1.2,0.3,2.5,0.9,3.5
			c2.5,3.7,6.7,7.2,4.1,12c-2.9,5.3-8.7,2.2-13.2,2.9c-1.2,0.2-2.4,0-3.6-0.1c-4.4-0.3-5.5-2.4-4.3-6.7c2.2-7.9-0.3-11.1-8.4-11.5
			c-5.1-0.2-10.2,0-15.4-0.1c-2.7-0.1-6.3,0.3-6.4-3.3c-0.1-4.2,3.8-2.8,6.1-2.9C628.7,457.2,640.7,456.5,652.3,460.8z M552.5,496.8
			C552.5,496.8,552.5,496.8,552.5,496.8c0,24.1-0.2,48.2,0.1,72.3c0.1,7.5-1.9,10.9-10.1,10.8c-24.1-0.4-48.2-0.3-72.3,0
			c-7.3,0.1-10.1-2.4-10.1-9.9c0.2-48.8,0.3-97.6,0-146.3c0-7.6,2.8-9.9,10.1-9.8c23.5,0.3,47,0.5,70.5-0.1
			c8.9-0.2,12.2,2.3,12,11.7C552.1,449.2,552.5,473,552.5,496.8z M392.6,637.1c6.1-7.3,2.6-10.9-2.8-14.5
			c-14-9.4-27.8-19.2-41.7-28.7c-2-1.3-4.5-3.9-6.3-2.6c-4.7,3.3-5.8,0.5-8.2-2.8c-3.3-4.5-8.2-6.5-13.5-3.1
			c-4.9,3.2-6.5,8.1-3.8,13.4c3,5.9,9,7.4,13.8,4c5.4-3.9,8.6-1.9,12.7,1c2.2,1.5,4.8,2.4,7.1,3.8c12,7.3,24.1,14.7,36,22.2
			c1.7,1.1,3.6,2.7,2.5,5.2c-0.9,2.2-3,1.6-4.7,1.5c-4.8-0.1-9.6-0.2-14.5-0.4c-3.8-0.1-5.9-1.7-6.6-5.8
			c-2-11.9-11.3-19.2-24.4-19.6c-24.7-0.7-24.2-0.7-24.9-25.9c-0.3-9.8,1.9-15,12.2-17.5c13.1-3.2,20.2-1.3,26.4,10.5
			c2.4,4.5,5.3,8.8,7.3,13.5c2.7,6.2,7.2,8.9,13.6,10.3c24.1,5.4,48.1,11.3,72.1,17.1c3.8,0.9,8.8,1,11,3.5c4.8,5.4,8,10.7,12.8,0.3
			c0.5-1,3.9-0.9,6-1c20.1-0.2,39.5-3.2,57.3-13.4c0.2-0.1,0.8,0.5,1.7,1.1c-7.6,4.7-14.9,9.2-22.3,13.9c-3.5,2.2-7.2,5.1-4,9.3
			c3.2,4.4,7.5,1.3,10.2-1.2c12.9-12.1,28.5-20.3,44.5-26.6c17.9-7.1,27.5-20,33.9-36.7c3.8-9.8,7.8-19.6,11.8-29.4
			c1.1-2.8,1.8-6,5.5-8.1c-0.7,3.5-1.7,6-1.8,8.6c-0.2,19.5-0.2,39.1-0.3,58.6c0,2.7,1.3,4,3.8,3.9c16.5-0.7,33.1,2.4,49.4-2.8
			c6.3-2,9.4-5.3,9.1-12.3c-0.5-11.4-1.1-23,0.1-34.3c1.5-15-1.1-26-18.4-28.3c-0.2,0-0.3-0.5-1-1.5c6.7-2.2,13.2-4.1,19.6-6.6
			c7.3-2.9,10.3-1.4,10.2,7.1c-0.3,25-0.3,50-0.1,75c0.1,6.4-1.9,9.7-8.7,11.1c-24.4,5.3-48.6,11.8-73.1,16.7
			c-21.5,4.3-42.3,12.1-64.7,11.7c-22.6-0.4-45.2-0.2-67.8-0.2C444.7,637.1,419.5,637.1,392.6,637.1z M175.1,375.5
			c0-16.7,0-32.4,0-48.1c0-3-0.3-6.9,3.8-7c8.4-0.3,15.9-4.1,24.6-4.1c120.3,0.4,240.5,0.2,360.8,0.2c30.4,0,60.9-0.1,91.3,0.1
			c2.5,0,7-1.9,7.1,2.9c0,4.1-3.7,4.9-7.3,5c-3.3,0-6.7,0.7-8.8-3c-1.3-2.3-3.3-2.2-5.5-1.5c-13.9,4.6-28.4,3.4-42.6,4.7
			c-5.2,0.5-10.2-0.6-14.8-3.1c-6.7-3.7-10.7-2.4-11.7,5.9c-0.9,7-5.4,9.3-11.7,6.5c-4.4-1.9-8.8-1.8-13.3-1.9
			c-77.2-0.1-154.3-0.1-231.5-0.2c-6.5,0-13.8-1.5-15.4,8.1c-0.1,0.9-1.6,2-2.6,2.1c-8.4,1.1-17.3,2.3-25.1-0.3
			c-5.6-1.9-6.3-10-8.8-15.6c-1.1-2.5-0.9-6-4.4-5.6c-10,1-19.3-4-29.2-3.4c-5.6,0.4-10.8,3.2-16.8,2.4c-5.7-0.8-8.8,1.3-11,7.7
			c-1.8,5.3-2.3,13.9-9.4,14.9c-7.4,1-9.4,5.1-11.1,10.9C179.8,360.4,177.5,367.6,175.1,375.5z M302.6,563.1
			c-11.2,3.5-19.4-3-25.6-14.1c-18.2-32.7-18.9-65.8-2.6-99.3c6.2-12.8,15-20.9,30.4-18c2.9,0.5,6,0,9,0.1
			c7.9,0.3,12.6,5.8,8.1,11.3c-5.8,7.1-4.9,9.5-0.3,17.1c4,6.6,4.6,21.1,0.1,25.8c-9.2,9.5-3.5,14.5,0.2,22.3
			c2.1,4.5,0.8,10.6,0.8,16.1c0,5.2,1.3,10.8-6.2,13.1c-3.4,1.1-3.4,5.5,0.6,6.6c9.3,2.5,5.4,9.7,5.1,14.8
			c-0.4,6.2-6.3,3.9-10.2,4.3C309.7,563.3,307.2,563.1,302.6,563.1z M618.5,666.3c-0.1-0.4-0.2-0.8-0.3-1.1c3.3,0,6.6,0.1,9.8,0
			c2.5-0.1,5.2-0.5,5-3.8c-0.1-3.2-2.9-3.4-5.3-3.6c-1.2-0.1-2.4-0.1-3.6-0.1c-32.8-0.1-65.5-0.2-98.3-0.3c-3.1,0-6.6,0.5-7.1-3.6
			c-0.5-3.7-1.8-8,2-10.9c5.7-4.3,31.5-2.9,37.1,1.9c7.5,6.5,14.6,6.6,22.8,0.5c1.7-1.3,2.6-4.3,5.8-1.5c3.5,3.1,7.5,2.2,11.8,0.8
			c6.5-2.1,13.3-3.6,20-4.7c4.8-0.7,7.2-2.2,6-7.5c-0.4-2-2.6-4.6,2.9-5.2c13.1-1.5,27.1-0.7,37.6-11.4c0.7-0.7,2.8-1,3.4-0.5
			c7.6,6.4,12.1,1.2,17-4c0.9-1,2.7-1.6,4.1-1.6c17.8-0.1,35.7-0.1,53.5-0.1c-5.4,2.7-4.5,13.2-11.1,11.1
			c-10.2-3.2-20.3,0.5-30.1-1.7c-4.8-1.1-9-0.5-13.1,1.3c-3.3,1.4-8.4,1.1-8.6,6.5c-0.2,6,5.1,6.8,8.8,7.3c14,1.7,28.1,1.6,42.7-0.1
			c-1,3-1.1,6.9-3.1,8.3c-3.7,2.7-11.8-0.2-10.3,8.9c0,0.2-3.9,1-5.8-0.3c-2-1.3-3.8-2.9-5.7-4.3c-7.3-5.3-18.4-3.5-22.1,3.7
			c-2.3,4.4-0.9,8.3,2.2,11.5c2.1,2.2,5,4.2,8.1,2.8c4.9-2.3-2-5.6,0.8-9c1.6,3.6,4.5,3.9,8,3.7c3-0.2,6.6,1.6,6.3,5
			c-0.3,3-3.9,1.9-6.1,1.9C675.1,666.3,646.8,666.3,618.5,666.3z M754.7,605c-11.7,0-23.5,0-35.2,0c-14.8,0-14.4,0-14.9-14.7
			c-0.8-21.8,8.6-42.8,5.2-64.8c-0.6-3.8,0.3-7.9-2-11.4c-1.2-1.8-4.2-3.9-0.3-5.6c2.9-1.3,3.8,0.9,4.8,3.5
			c2.1,5.7,7.3,11.5,12.4,9.9c7.9-2.5,15.5,4.1,22.9-0.9c3.3-2.2,6,4.5,9.7,2.1c8-5.2,17.1-1.7,24.8-1.1c6.8,0.5,10.3-0.7,13.4-5.1
			c1.7-2.4,7.8-2.5,4.6-8.1c-0.5-0.9,2.5-0.7,3.5,0.1c2,1.8,1.4,4.5,1.4,6.8c0,26.8-0.1,53.6,0.2,80.4c0.1,6.6-2.1,9.2-8.9,9
			C782.4,604.8,768.5,605,754.7,605z M361.4,454.3c7.1-17.8,7.1-17.8,22.6-19.5c0.9-0.1,1.8-0.4,2.6-0.6
			c20.1-3.6,40.4-6.2,59.5-14.1c6.5-2.7,10.4-1.9,10.3,7.1c-0.4,37.1-0.2,74.1-0.2,111.2c0,1.4,0.6,3-1.1,4
			c-11.6-10.4-19.4-11.9-27.7-5c-3.8,3.2-7.6,6.9-9,12.1c-1.8,6.7,5.4,9.4,7.6,16.3c-5.3-1.8-9.4,2.9-14.4-0.8
			c-7.3-5.4-15.8-6.8-24.7-6.1c-15.9,1.3-18.5-0.5-24.1-16.9c2.8,0.9,5.3,1.8,7.8,2.6c23.8,7.9,48.9-2.6,60.4-25
			c3.4-6.6,2.7-14.9,8.8-20.4c1.1-1,0.7-3.2-0.6-4.1c-4.3-3-4-7.9-5.4-12.1c-4.5-14-13.4-24-26.6-30.3
			C392.4,445.6,377.6,446.4,361.4,454.3z M743.7,373.7c-18.4,0-35.5,0-52.6,0c-2.4,0-4.8-0.5-6.7-2.2c-3.7-3.6-7.1-5.2-13.2-6.1
			c-15-2.2-29.1-7.2-45.1-6.9c-14.6,0.2-29.3-6.1-44-9.6c-2.7-0.6-5.5-1.4-5.3-5.1c0.2-3.8,3.3-3.5,5.9-4.1
			c12.5-3,25.2-1.5,37.8-1.9c6.3-0.2,9.7,2.1,9.4,8.9c-0.1,2.2-0.5,5.5,3.1,5.4c3.4-0.1,2.8-3.4,2.9-5.6c0.2-5.4,0.6-9.6,7.3-4.1
			c1.8,1.5,3.6-0.9,5.5-1.9c6.4-3.5,13.3-8.9,18.4,1.8c0.4,0.9,1.9,1.7,2.9,1.7c2,0,2-1.9,2.1-3.3c0.2-2.1,0.2-4.2,0.2-6.3
			c0.3-19.4-3-17.6,18-17.6c0.6,0,1.3,0.4,3,1c-4.4,0-7.7,0-11,0c-3.1,0.1-6.3,0.3-6.6,4.5c-0.3,4.2,3,5.1,6.1,4.9
			c8.4-0.4,16.3,3.9,25.2,0.4c10.5-4.2,21.6,1.1,32.4,0.4c3.2-0.2,7.3,0.4,5,6.4c-2,5.3,0,9.5,6.9,9.4c2.6-0.1,4.9,0.7,5,3.9
			c0.1,3.6-2.6,3.2-5,3.7C738.1,354,735.1,361.5,743.7,373.7z M197.2,504c3.9,5.5,16.7,8.9,18.7,5c4.7-9.4,12.5-6.2,19.5-6.7
			c4.5-0.3,6.4,1.9,6.3,6.6c-0.2,6,0.3,12,0.3,18.1c0,4.5,1.9,6.6,6.6,6.3c3.9-0.2,7.8,0,11.8,0.1c2.8,0.1,6,0.3,5.9,4
			c-0.1,3.6-3.6,2.5-5.7,2.6c-6.6,0.2-13.3,0.4-19.9,0c-7.9-0.5-11.3,3.4-11.5,10.5c-0.3,10.8-0.3,21.7-0.1,32.5
			c0.1,6,3.3,9.9,8.6,12.7c12.4,6.7,25.1,11.4,39.6,10c5.2-0.5,11-1.6,16,3.1c-32.1,0.9-64.3,4.6-96-4.1
			C197.2,572.6,197.2,538.7,197.2,504z M196.7,455.9c0-23,0-46.2,0-69.3c0-2.4-0.3-5.1,2.4-6.3c2.2-0.9,3.8-0.1,5.5,1.7
			c6.1,6.5,13.1,6.6,19.2,0.2c1.9-2,3.9-2.7,6.3-2.7c6.9,0,13.8,0,20.8,0c1.8,0,3.9-0.2,4.9,1.5c1.6,2.6-0.9,3.7-2.3,5.1
			c-3.1,3-3.4,6.9-3.4,10.9c0,9.3-0.1,18.7,0,28c0,13.2,1.9,15,14.9,15.8c2.9,0.2,8.1-1.9,8.1,2.5c0,4.2-2.8,8.8-8.1,9.5
			c-3.8,0.5-7.8,0.2-11.7,0.2c-2.4,0-5.4-1-6.6,1.5c-2.3,4.7-6.2,3.9-10.1,3.9c-6.6,0-13.2,0.1-19.9,0c-2.3,0-4.5,0.3-6.2-2.4
			C206.2,449.2,201.5,451.3,196.7,455.9z M136,379.1C136,379.1,136,379.1,136,379.1c-8.1-0.1-16.2-0.2-24.4,0
			c-5.3,0.1-7.7-2.2-7.6-7.6c0.1-15.9,0.1-31.9,0-47.8c0-4.8,1.7-7.2,6.9-7.2c15.6,0.1,31.3-0.2,46.9,0.2c5.5,0.2,9.1,3.1,11.3,9.4
			c3.8,10.6,3.1,21.3,2.9,32c-0.3,18-3.8,21.1-21.6,21C145.7,379.1,140.9,379.1,136,379.1z M104.1,636.2c0-7.8,0-15.6,0-23.4
			c0-4.3,1.6-6.9,6.3-6.8c17.4,0.4,34.8,0.6,52.1,1.1c5,0.1,7.2,1.9,2.3,6.2c-2.3,2-2.8,5.6-0.9,7.4c8,7.5,4.7,17,4.3,25.5
			c-0.3,5.8-2,14.1-8.1,16.1c-16,5.5-33,4.2-49.7,4c-4.6-0.1-6.5-2.3-6.4-6.7C104.2,651.8,104.1,644,104.1,636.2z M244.9,666.3
			c-0.1-0.6-0.2-1.3-0.3-1.9c1.7-0.2,3.4-0.7,5-0.6c7.3,0.5,11.9,0.1,14.3-9.6c3.5-14.3,5.1-13.9,21.2-14c21.1,0,42.2,0.1,63.2-0.1
			c7.4-0.1,10.4,2.5,7.2,9.8c-0.9,2.1-1.9,4.2,0.8,5.3c2.5,1.1,5.5,1.4,7.8-0.4c2.5-2.1-0.1-3.5-1.2-5.2c-2.9-4.4-1.6-6.7,3.7-6.6
			c8.1,0.1,16.3,0.6,24.4,0c13-0.9,0.4,13.8,9.5,15.4c0.8,0.1,1.1,4.7-0.6,6.6c-1.8,2-4.5,1.2-6.9,1.2c-17.8,0.1-35.5,0-53.3,0
			C308.1,666.3,276.5,666.3,244.9,666.3z M196.7,357.3c2.5,1.7,4.2,5.2,6.8,1.3c2-2.9,5.1-2.9,8.1-2.9c14.4,0,29-1.1,43.3,0.4
			c7.7,0.8,14.7,0.6,22.3,0.1c23.7-1.5,47.5-0.5,71.2-0.5c3.7,0,7.9,0,7.9,5.1c0,5.2,2.5,11.1-2.5,15.2c-3.8,3.1-18.5,0.9-22.4-2.9
			c-5.8-5.7-11.9-6.3-17.1,0.1c-3.1,3.8-6.2,4-10.1,4.1c-5.7,0-11.4,0-17.1,0c-4.8,0-9,0.1-12.3-5.1c-2.6-4.1-9.1-6.1-12.7-1.8
			c-9.1,10.9-21,5.7-31.7,6.9c-3.2,0.3-5.3-1.2-7.6-3.7c-6.3-7.1-11.6-6.8-17.8,0.5c-1.5,1.7-2.6,3.3-5,2.8
			c-3.1-0.6-3.2-3.2-3.3-5.6C196.6,366.8,196.7,362.6,196.7,357.3z M344.5,563c-3.6,0-7.3,0.2-10.8-0.1c-2.9-0.3-7.2,1.8-8-3.3
			c-0.6-3.7-0.7-7.3,4.1-8.7c3.3-1,4.8-3.8,2.1-6.1c-10.7-9-6.2-21-7-32c-0.4-5.9,9.4-5.1,7.7-10.8c-1.4-4.5-7.1-6.8-7.4-12.6
			c-0.5-10.5-1.1-21.1,0.4-31.5c0.6-3.9,0.7-7.9,5.7-10.3c4.2-2,2.2-5.5-1.8-6.9c-2.5-0.9-4.6-1.9-4.1-5c0.5-3.5,3.3-3.9,6.1-3.9
			c8.1-0.1,16.3,0,24.4-0.1c5.1,0,5.5,2.7,3.7,6.5c-5.2,10.8-8.8,22.4-15.1,32.8c-10.7,17.6-10.5,35.5,0,53
			c4.4,7.3,8,14.8,11.4,22.5C363.2,563.1,363.2,563.1,344.5,563z M270.7,613c0-0.1,0-0.2,0-0.2c21.4,0,42.8,0.3,64.2-0.1
			c8.2-0.2,14.4,3.7,20.7,7.7c2.6,1.6,3.6,4.1,2.6,7c-1,2.9-3.7,2.8-6.1,2.8c-26.2,0-52.4,0.6-78.6-0.4c-5.7-0.2-10.8-1.2-17-0.3
			c-16,2.2-32.5,1.2-48.7,0.3c-4-0.2-10.2-1.7-11.1-8.1c-1-6.9,2.5-8.8,9-8.7C227.3,613.1,249,613,270.7,613z M630.5,524.9
			c-13.9,0-27.8,0.1-41.7-0.1c-2.5,0-3-2.5-3.5-4.7c-3.3-15.5-3.8-30.9-0.4-46.4c0.8-3.8,2.8-5.8,6.8-5.8c11.1,0,22.3,0,33.4,0
			c3.2,0,6.4,0.9,6.5,4.7c0.2,9.6,0.1,19.2-0.1,28.8c0,1.2-1.4,2.5-2.5,3.4C620.3,511.7,620.7,516.5,630.5,524.9z M607,413.7
			c0,0,0.1,0,0.1,0c0-6.6,0.2-13.3-0.1-19.9c-0.3-7.4,3.3-10.5,10.3-10.5c9.6,0,19.3-0.1,28.9,0c3.2,0,7.7-0.1,7.8,4.1
			c0.1,4.7-4.5,3.6-7.7,4c-2.5,0.3-6.3-0.6-6.1,3.4c0.2,3.7,4,3.1,6.5,3c6.7-0.5,8.3,3.5,8.4,9c0,3.9-0.1,7.8,0,11.8
			c0.2,5.7-1.6,9.3-8.1,9.3c-2.9,0-7-0.1-6.8,4c0.2,4,4.3,3.3,7.1,3.7c2.9,0.3,6.9-0.1,6.5,4.2c-0.3,3.7-4,4.1-7.1,4.1
			c-10.2,0.1-20.5,0.1-30.7,0.1c-6.3,0-9.4-3.2-9.3-9.5C607.1,427.6,607,420.6,607,413.7z M196.7,498.1c0-12.4,0-22.3,0-32.1
			c0-1.8,0.1-3.8,2.4-4.3c2-0.4,1.9,1.7,2.8,2.7c3.9,5,12.6,5.3,15.7-0.1c1.8-3.1,3.8-3.3,6.4-3.3c11.1,0,22.2,0.1,33.3,0
			c4.9,0,7.4,1.2,5.7,6.9c-2.3,8.1-4.1,16.3-4.2,24.8c0,2.6-0.8,5.3-3.7,5.4c-12.2,0.4-25.2,3.7-36.4-1.6
			C210.9,492.8,205,490.4,196.7,498.1z M614.4,562.8c0-7.2,0-14.4,0-21.7c0-3.5,0.5-7.3,4.8-7.4c12.9-0.3,25.9-0.2,38.8-0.1
			c1.5,0,3,0.9,3.1,2.7c0.2,2.3-1.5,3.1-3.4,3.4c-1.8,0.3-3.6,0.3-5.4,0.6c-2.1,0.3-4.5,0.8-4.7,3.4c-0.2,3.3,2.6,3.8,5,3.8
			c13.2-0.1,9.2,9.9,9.8,16.9c0.6,7.3,0.5,14.4-10.2,13.4c-2.1-0.2-4.5,0.4-4.7,3.1c-0.2,2.7,2.3,3.2,4.3,3.8
			c1.1,0.3,2.4,0.3,3.6,0.6c2.6,0.5,6.1,0.3,5.7,4.1c-0.4,3-3.5,3-5.8,3c-11.1,0.1-22.3,0-33.4,0c-5.3,0-7.5-2.8-7.5-8
			C614.4,577.3,614.3,570.1,614.4,562.8z M421.6,361.6c13.3,0,22.6,0,32,0c2.8,0,5.6,0.3,5.9,4c0.2,3.2-1.3,5.1-4.4,5.9
			c-2,0.5-4.1,1.1-6.1,1.6c-25.4,6.2-50.8,12.5-76.3,18.5c-5.7,1.4-9.6,3.9-11.8,9.7c-2.8,7.3-6.3,14.3-9.5,21.4
			c-0.9,1.9-1.8,4.2-4.5,3.5c-2.1-0.6-2-2.8-2.1-4.5c-1.1-14.1-1.7-27.8,14.9-34.4c3.8-1.5,7.1-4.5,10.2-7.3
			C385.7,365.7,403.3,356.4,421.6,361.6z M798.5,373.8c-9.7,0-18.8-0.4-27.8,0.1c-8,0.4-10-3-10.5-10.6c-0.8-14,6-27.3,2.7-41.5
			c-1-4.3,2.9-5.3,6.6-5.3c7.2,0,14.5,0.1,21.7,0c4.7-0.1,5.7,1.3,3.8,5.8c-1.2,2.9-1.2,6.3,1.4,9.3c4.9,5.5,5.9,21.6,1.1,27.2
			C793,364.1,793.8,368.6,798.5,373.8z M796.9,609.2c-3.4,5-6.2,9.5-1.2,14.5c4.4,4.3,6.7,21.8,2.3,25.4c-6.5,5.3-5.6,10.4-1.4,17.3
			c-9.6,0-18.3,0.2-26.9-0.1c-3.8-0.1-9,2.1-10.5-4c-1.3-5,0.9-8.4,5.3-11.2c5.9-3.7,7.5-10.5,1.8-14.2c-8.5-5.5-7.3-12.7-7.4-20.4
			c-0.1-5.5,2.5-7.5,7.7-7.4C776.5,609.3,786.4,609.2,796.9,609.2z M500,411.3c-5.4,0-10.8,0.1-16.3,0c-26.6-0.6-22.8,4.5-23.5-23.4
			c-0.2-8.5,3.9-11.1,11.1-11.8c30.8-3.1,57.5,9.9,84.5,21.8c2.8,1.2,3.5,3.3,1.4,5.7c-1.4,1.5-1.7,4-5.4,1.8
			c-4.6-2.8-13.6-3.4-14.8,0.2c-2.9,8.5-8.6,5.4-13.4,5.7C515.6,411.6,507.8,411.3,500,411.3z M731.7,503.5c-6.3,0-12.6-0.1-18.9,0
			c-4.8,0.1-6.2-2.5-6.2-6.9c0-4.3,1.5-6.9,6.2-6.9c2.7,0,5.4,0,8.1,0c43,0.1,86,0.2,128.9,2c3.1,0.1,8.3-2.1,8.1,4
			c-0.1,5-4.6,4.6-8.2,4.9C810.4,502.9,771,500.6,731.7,503.5z M460.3,599.4c0-15.8,0-15.8,15.8-15.8c15.1,0,30.1,0,45.2,0
			c5.1,0,9.5,0.2,14.2,4c4.3,3.5,11,3.9,15.6-0.9c3.4-3.4,4-0.6,4.9,1.5c2.1,4.6-1.5,5.9-4.5,7.2c-23.2,9.4-45,22.7-71.8,21.7
			C463.9,616.5,460.3,615.3,460.3,599.4z M830.3,344c0,5.1,0,10.2,0,15.3c0,14.6,0,14.4-15,14.6c-6.2,0.1-10.9-0.4-9.4-8.5
			c0.3-1.7-0.4-3.6-0.8-5.3c-2.8-12-1.4-23.9,1.3-35.6c1.7-7,8.3-9.3,18.4-7.9c7.2,1,5.1,6.3,5.3,10.3
			C830.5,332.6,830.3,338.3,830.3,344z M147.4,476.8c0-22.8-0.3-45.5,0.1-68.3c0.2-11.4,9.4-6.3,15-6.7c6-0.4,9.1,3.4,7.4,9.3
			c-1.9,6.8-1.9,13.6-1.9,20.5c0,9.8,0.8,19.6-0.6,29.4c-0.5,3.3-0.5,7.3-5,7.2C155.7,468.1,151.2,471.3,147.4,476.8z M804,637.4
			c-1.6-7.8,2.4-15.7,1.3-23.8c-0.4-3.2,1.6-4.2,4.4-4.3c3.3-0.1,6.6,0.2,9.9-0.1c7.2-0.7,9.5,2.6,9.3,9.5
			c-0.4,11.7-0.1,23.5-0.1,35.2c0,12.5-1,13.3-13.3,12.5c-6-0.4-8.5-3.7-9.7-8.9C804.4,651,803.2,644.5,804,637.4z M386.5,494.9
			C386.5,494.9,386.5,494.9,386.5,494.9c-4.8,0-9.6,0.3-14.4,0c-4.6-0.3-11.3,2.4-13.2-2.4c-2.3-5.9,2.5-11.3,6.9-15.5
			c4.2-4.1,8.7-7.3,15.2-5.4c2.8,0.8,6.3,1.1,8.9,0.1c8.3-2.9,13.9,2.2,19.6,6.3c4.6,3.3,5.1,9.1,4.3,13.8c-0.8,4.5-5.9,3-9.3,3.1
			C398.5,495,392.5,494.9,386.5,494.9z M375.5,524.3c-7.9-2.1-13.1-7.9-16.4-15.8c-2.2-5.3-0.9-8.1,5.1-8.1
			c11.1,0,22.2-0.1,33.3,0.1c7.4,0.2,11.4,5.2,13.2,11.6c1.1,3.9-9.9,12.8-15,12.2C389.3,523.5,382.8,522.8,375.5,524.3z
			 M176.3,615.3c1.8,5.5,3.6,10.2,5,15.1c1.7,5.9,3.7,10.8,11.4,10c3.3-0.3,4.2,2.2,4.9,5.2c4.1,16.4,4.2,16.4,21.5,18.4
			c0.4,0,0.7,0.7,2.1,2.1c-13.7,0-26.4,0-39.1,0c-1.9,0-4.4-0.7-4.4-2.4c0.1-8.2-7.3-13.9-6.9-22.5
			C171.2,632.5,171.6,624,176.3,615.3z M417.4,581.3c7.3,1.6,14.6,3.5,21.9,4.9c5.2,1,6.6,3.4,6.1,8.7c-1.7,15.7-1.5,15.8-17,12.1
			c-2-0.5-4.1-0.9-6.1-1.5c-11.5-4-13.3-7.6-10.2-19.2C412.8,583.4,413.7,580.9,417.4,581.3z M409.9,397.1c0-1.8,0-3.5,0-5.3
			c6.1,2.6,8.9-6.1,14.2-4.6c4.3,1.3,6.9-0.1,10.4-2.2c2.2-1.3,6.7-4.3,9,0.6c5.7,12.1,2,19.5-11,22.7c-2,0.5-4.1,1-6.1,1.5
			C412,413,410.9,412.1,409.9,397.1z M755.5,508c0,0,0-0.1,0-0.1c11.1,0,22.3,0,33.4,0c2.5,0,4.9,0.6,5.1,3.9
			c0.1,1.7-0.5,3.1-2.3,3.2c-6.8,0.3-12.7,4.3-19.9,3.4c-5.6-0.7-12-3.7-16.2-2.7c-11.1,2.8-21.3,4.1-32-0.7c-2-0.9-6.3,3.5-6.1-2.5
			c0.1-4.9,4.1-4.5,7.3-4.5C735,507.9,745.3,508,755.5,508z M574.2,489.5c0-1.5,0-3,0-4.5c0-12,0-24.1,0.1-36.1
			c0-3.4,1.4-5.8,5.3-5.8c3.5,0,5.6,2.1,4.6,5.1c-2.1,6.2,0,12.4-1.6,18.6c-5.3,20.2-4.7,40.5,0.5,60.6c0.7,2.6,2.2,5.2-0.3,7.5
			c-1.4,1.3-3.4,1.2-5.1,0.7c-3.9-1.1-3.5-4.5-3.5-7.4C574.2,515.4,574.3,502.4,574.2,489.5z M686,507.2c-3.3,0-6.6,0.1-9.9,0
			c-3-0.1-4.9-1.2-5.8-4.5c-3.1-11.9,0.4-16.8,12.6-16.8c2.7,0,5.4,0.2,8.1,0c6.8-0.6,9.8,2.1,9.7,9.2
			C700.7,507,700.6,507.4,686,507.2z M377.2,403c3.9-9.5,12.9-7.7,19.3-9.5c6.7-1.9,10.5,3.3,11.8,14.3c0.8,6.4-6.4,10.9-20.8,11.1
			C376.5,419.1,383,407.5,377.2,403z M535.3,383.9C516,373.7,495.2,372,474,371.5c-3.8-0.1-7.7-0.4-7.6-5.5c0.1-5,4.2-4.1,7.3-4.4
			c20.6-2.4,39.4,1,54.4,16.8C530.2,380.5,532.9,382.1,535.3,383.9z M186.7,575c0,6,0,12,0,18.1c0,3.9-1.3,6.3-5.7,6.4
			c-4,0-6.4-1.7-6.4-5.8c-0.1-12-0.1-24.1,0-36.1c0-4,2.3-5.9,6.4-5.9c4.4,0,5.8,2.3,5.8,6.2C186.6,563.5,186.7,569.3,186.7,575z
			 M390.3,597.5c-3.7-0.8-11.5-1-10.4-4.6c1.6-5.5-0.5-12,3.9-16.6c4.7-4.9,9.4-0.3,14.1,0.1c2.1,0.1,4.1,0.8,6.1,1.3
			c3.8,1,5.1,3.4,4.9,7.3c-0.7,12.2-2.9,14-14.7,11.6C393.3,596.3,392,597.1,390.3,597.5z M885.4,507c-5.2-1.7-11.9-2.9-17.5-6.2
			c-4-2.3-3.9-7.8,0.8-10.3c5-2.6,10.6-4.3,16.2-5.5c6.5-1.4,11.5,3,12.2,10.1C897.8,501.7,893.1,507,885.4,507z M147.2,518.3
			C147.2,518.3,147.2,518.3,147.2,518.3c0.1-2.7,0-5.4,0.1-8.1c0.1-3-0.1-7,4.1-6.7c4.4,0.4,10.8-2,12.8,3.7
			c2.5,6.8,3.1,14.2-0.1,21.2c-2.9,6.4-8.7,4.4-13.4,4.1c-5.1-0.3-3.2-4.8-3.4-7.8C147,522.5,147.2,520.4,147.2,518.3z M556.7,577.5
			c-2.9-53.7-2.7-107.3,0-161C556.7,470.2,556.7,523.9,556.7,577.5z M650.8,486.2c8.2-1.4,12.1,1.2,12.1,10.4
			c0.1,9.2-3.9,10.9-12,11c-8.6,0.1-11.5-2.4-11.4-11.3C639.6,487.7,642.6,484.6,650.8,486.2z M193.7,626.4
			c-0.2-0.1-0.4-0.3-0.7-0.4c0-88.7,0-177.4,0-266.1c0.2,0,0.4,0,0.7,0C193.7,448.7,193.7,537.5,193.7,626.4z M270.2,350.7
			c10.1-5.4,80.2-4.4,85.8,0C326.8,350.7,298.5,350.7,270.2,350.7z M553.6,341.9c-0.1,0.2-0.3,0.3-0.4,0.5c-82,0-164,0-245.9,0
			c0-0.2,0-0.3,0-0.5C389.4,341.9,471.5,341.9,553.6,341.9z M746.9,652c-6.4-0.5-12.5-0.8-13.1-8.6c-0.5-6,4.8-9.7,12.8-9
			c4.2,0.4,8.3,1.3,12.4,2.3c3,0.7,6,2.1,6,5.7c0,3.5-2.6,5.5-5.5,6.4C755.2,650.3,750.8,651.1,746.9,652z M688.8,479.5
			c-0.4,0-0.8,0-1.2,0c0-33,0-66,0-99c0.4,0,0.8,0,1.2,0C688.8,413.5,688.8,446.5,688.8,479.5z M590.4,530c0.7,0.4,1.4,0.8,2,1.2
			c-7,17.9-14.1,35.9-21.1,53.8c-0.9-0.2-1.8-0.5-2.8-0.7c5.7-10.9,5.9-22.4,6-34.1c0-3.8,2.1-8.2,5.3-8.7
			C586.7,540.4,588.7,535.7,590.4,530z M721.4,666.3c2.9-1.3,6.1-2.3,7-4.7c2.9-8,8.4-7.5,14.9-5.7c1.6,0.5,3.6,0,5.3-0.3
			c3.7-0.6,7.4-1.7,7.8,4c0.4,5.3-2.5,6.7-7.2,6.7C740,666.2,730.7,666.3,721.4,666.3z M688.9,603.9c-0.5,0-1.1,0-1.6,0
			c0-30,0-59.9,0-89.9c0.5,0,1.1,0,1.6,0C688.9,544,688.9,574,688.9,603.9z M269.5,635.5c0-0.6,0-1.1,0-1.7c29.4,0,58.8,0,88.3,0
			c0,0.6,0,1.1,0,1.7C328.3,635.5,298.9,635.5,269.5,635.5z M232.3,347.1c8.4,0,16.8-0.1,25.2,0c1.7,0,4,0,3.7,2.7
			c-0.2,1.8-2.2,1.9-3.6,1.9c-16.2,0-32.4,0-48.6,0c-1.4,0-3.4,0-3.6-1.9c-0.4-2.6,2-2.7,3.6-2.7C216.7,347,224.5,347,232.3,347.1z
			 M260.8,599.4c-2.7-2-3.5-2.3-3.6-2.7c-2.1-16.1-0.6-32.3-0.8-48.5c0-1.2,0.4-2.5,1.9-2.6c2-0.2,2.5,1.3,2.5,2.9
			C260.8,564.8,260.8,581.2,260.8,599.4z M438.6,544.4c4.2,0.4,6.6,3,6.6,7.6c0,4.9-3.2,5.9-7.2,5.8c-4.6,0-6.4-2.6-6.4-6.8
			C431.7,546.7,433.7,544.2,438.6,544.4z"/>
		<path d="M789.9,595c1-1.1,1.8-2.4,3-3.3c8.5-5.8,10.9-12.8,8.8-22.7c-1.4-6.8-9.6-4.4-11.8-9.6c-0.4,0.4-0.9,0.8-1.3,1.3
			c-0.9,3.8-7.3,2.7-7,7.3c0.6,9-2.9,19.2,7,25.8C789.1,594.2,789.5,594.6,789.9,595z"/>
		<path d="M789.9,559.5c-2.7-2.9-6.3-3.2-10-3.2c-15,0-30-0.2-45,0c-10.2,0.1-12.7,2.8-12.8,12.9c-0.1,6,0.1,12,0,18
			c-0.1,6.9,3.1,10.9,10.2,10.9c16.5,0.1,33,0,49.5,0c3.1,0,5.9-0.9,8.1-3.3c-0.4-0.4-0.8-0.8-1.2-1.2c-13.5,0.2-27,0.8-40.4,0.6
			c-26.7-0.2-23.4,4.2-23.6-26.2c0-5.7,2.6-8.2,8.2-8.2c18.6,0.2,37.2,0.4,55.8,0.6C789.1,560.3,789.5,559.9,789.9,559.5z"/>
		<path d="M724.3,391.8c21.1-2.7,42.1-0.7,63.1-0.3c-7.9,6.9-8.2,25.5,2.4,34.3c-23.4-0.3-44.4,1.6-65.5-1.3
			c1.4,4.9,5.6,5.1,9.4,5.2c15.6,0.1,31.2,0.4,46.8-0.1c11.2-0.3,21.4-11,21.4-21.3c0-10.3-9.1-20.1-19.8-20.3
			c-16.5-0.3-33-0.1-49.5-0.1C729.3,387.8,726,388.2,724.3,391.8z"/>
		<path d="M490.2,385.9c-2.4,0-4.8-0.1-7.2,0c-4.9,0.3-10.7-1.4-12.1,6c-1.4,7.2,2.8,10.2,8.6,12.5c9,3.7,17.4,1.7,25.8-1.8
			c5.2-2.2,6.1-6.2,5.3-11.1c-0.8-5-4.6-5.7-8.8-5.7C498,385.9,494.1,385.9,490.2,385.9C490.2,385.9,490.2,385.9,490.2,385.9z
			 M491.2,388.8c3.3,0,6.6,0,9.9,0c3,0,5.5,0.9,5.7,4.3c0.3,3.8-1.9,5.7-5.4,5.7c-7.2,0.1-14.4,0.1-21.6-0.1c-3.1-0.1-5-2-4.9-5.3
			c0.1-3.5,2.4-4.6,5.4-4.7C484,388.8,487.6,388.9,491.2,388.8z"/>
		<path d="M485.9,607.5c3.6,0.2,7.2,0.5,10.7,0.7c4.9,0.2,10.8,1.7,12.6-5c1.7-6.6-0.7-11.7-7.8-13.8c-8.6-2.6-16.8-4-25.4,1
			c-5.3,3.1-7.5,6.6-6.3,12.3c1.3,6.2,6.3,5.2,10.8,5.1c1.8,0,3.6,0,5.4,0C485.9,607.6,485.9,607.5,485.9,607.5z M490.2,604.7
			C490.2,604.7,490.2,604.7,490.2,604.7c-4.2-0.1-8.4,0.1-12.6-0.1c-2.9-0.1-4.2-2-4.2-4.8c0-2.8,1.3-4.8,4.2-4.8
			c8.1-0.2,16.2-0.2,24.3-0.1c3.3,0,4.8,2.1,4.6,5.4c-0.1,2.9-1.8,4.4-4.6,4.4C498,604.8,494.1,604.7,490.2,604.7z"/>
		<path d="M732.7,579.8c-0.3,4.2,1.4,8.2,9,7.9c9.5-0.4,15.3-4.1,15.1-10.5c-0.2-6.3-6.7-10-16.6-10
			C732.2,567.1,733,572.6,732.7,579.8z"/>
	</g>
</g>
<g id="text">
</g>
<g id="scratch">
</g>
<g id="guides" display="none">
</g>
</svg>
