<?xml version="1.0" encoding="utf-8"?>
<!-- Generator: Adobe Illustrator 26.0.2, SVG Export Plug-In . SVG Version: 6.00 Build 0)  -->
<svg version="1.2" baseProfile="tiny" xmlns="http://www.w3.org/2000/svg" xmlns:xlink="http://www.w3.org/1999/xlink" x="0px"
	 y="0px" viewBox="0 0 1000 1000" overflow="visible" xml:space="preserve">
<g id="bg">
</g>
<g id="counters">
	<g>
		<path stroke="#000000" stroke-width="3" stroke-miterlimit="10" d="M150.6,366.8c-1.8-3.4-5-5.3-6.6-8.5
			c-1.6-3.3-0.9-7.5,1.7-10.1c8.4-8.2,17.7-15.4,26.8-22.9c4-3.3,9.7-2.3,13.2,2c1.2,1.6,2.5,3.1,3.7,4.7c1.3,1.8,3,2.3,5.2,2.3
			c47-0.1,94-0.1,141-0.1c1.2,0,2.3,0,3.2-1.1c0.9-1,6.7-1.1,7.6-0.2c1.7,1.8,3.9,2,6.1,2.3c2.1,0.3,4.2,0.1,6.4,0.1
			c0.3,0,0.7,0.1,0.8,0c1.9-2.2,4.9-1.8,7.2-2.9c1.1-0.5,2.1-1,3.3-1c13.2,0,26.4,0,39.5,0c2.2,0,3.7,1.3,3.9,3.4
			c0.2,2.1,1.2,3,3.2,2.6c3.1-0.5,6.2,0.8,9.3,0.7c0.6,0,1.2,0.1,1.4,0.7c0.8,2.4,2.7,2,4.5,2c18.9,0,37.8-0.3,56.7,0.1
			c8.1,0.2,16.2,0.8,24.2,0.2c8.8-0.7,16.2,2.7,23.8,5.8c8.6,3.4,17.1,7,25.2,11.4c1.6,0.9,2.8,0.6,3.5-1.4
			c2.4-6.8,7.8-11,13.7-14.6c1.4-0.9,3.7-1.3,5.2-0.8c1.6,0.6,3-0.4,4.5,0c0.7,0.2,0.8-0.5,0.9-1c0.9-4,0.4-7.8-0.9-11.7
			c-3.3-9.6-6.4-19.3-9.5-29c-0.3-0.9-1.3-2,0.5-2.9c1.6-0.8,2.5-0.2,3.2,0.9c1.4,2.2,3.5,3.7,4.6,6c1.3,2.8,4.2,3.1,6.8,3.6
			c2.5,0.5,3.1,2.2,2.4,4.6c-1,3.5-2.4,6.9-2.3,10.7c0.3,5.4-0.2,10.8-1,16.1c-0.3,1.7,0.4,2.8,2.4,2.9c9.3,0,18.6,0.3,27.9-0.1
			c2.7-0.1,5.2,0.2,7.8,0.2c24.8-0.1,49.6,0,74.4,0c24.8,0,49.7-0.7,74.5,0c22.5,0.7,44.9,0.1,67.3,0.5c1.1,0,1.9,0.3,2.6,1.1
			c3.8,3.9,7.6,7.7,11.5,11.5c1.1,1.1,1.7,2.4,1.5,3.9c-1.2,7.6-0.4,15.2-0.4,22.8c0,3.1-1.2,5.1-3.4,6.6c-3.6,2.5-7.3,4.9-10.5,7.9
			c-1.2,1.1-2.7,1.6-4.5,1.5c-3.9-0.2-7.7,0-11.6-0.1c-1.5,0-2.9-0.1-2.7,2c0.1,1.9-0.6,4.1,2.4,4.6c5.5,0.9,5.5,1,5.5,6.4
			c0,5.8,0,11.6-0.1,17.4c0,1.7,0.5,2,2.2,2.3c2.9,0.4,5.4-1.5,8.2-1.4c0.6,0,1.4-0.4,2.1-0.3c7.6,1.2,13.7-2.3,19.8-5.9
			c2.6-1.5,5-3.4,8.3-3.5c1.8-0.1,2.1-1.6,2-3.1c-0.3-5.6,0.6-11.2-0.5-16.7c-0.3-1.5,1.2-2.2,1.9-3.2c2.4-3.2,5.1-6,7.2-9.5
			c0.8-1.4,3-0.9,4.4,0.9c2.5,3.2,3.8,6.9,4.7,10.7c1.4,5.4,0.6,11,0.6,16.5c0.2,17.4,0.2,34.8,0.1,52.3
			c-0.1,18.7-0.3,37.4-0.4,56.1c-0.1,26.6-0.2,53.2-0.3,79.7c0,6.6-0.4,13.3-0.5,19.9c-0.1,6.9,0,13.9,0,20.8c0,5-1,9.7-4.4,13.6
			c-1.7,2-2.9,2-4.5-0.1c-2.4-3.2-4.9-6.3-7.5-9.3c-1-1.1-1.4-2.3-1.4-3.7c0-7.8,0-15.7,0.1-23.5c0-2-0.4-3-2.6-2.7
			c-2.9,0.3-4.9-1.7-7.2-2.8c-3.5-1.6-6.9-3.5-10.2-5.4c-1.6-0.9-3.4-0.9-5-1c-5.1-0.3-10.2,0.1-15.3-0.7c-1.7-0.3-2.2,0.4-2.2,2.1
			c0,5.1-0.8,10.2-0.7,15.4c0,1.8,1.6,3.7,0.2,5.2c-1.4,1.6-3.2-0.4-5-0.1c-1.3,0.2-2.3,0.3-2.4,1.9c-0.1,0.6-0.4,1.2-0.4,1.8
			c-0.4,6.3-0.4,6.3,5.9,6.3c2.7,0,5.4,0.2,8,0c2.8-0.2,4.9,1,6.8,2.8c2.7,2.6,5.5,5.1,8.4,7.4c1,0.8,1.3,2.2,1.3,3.4
			c0,8.1,0,16.3,0,24.4c0,1.8-1.5,2.6-2.6,3.6c-2.5,2.4-5.6,4-8.2,6.3c-2.1,1.9-4.9,2.6-8.1,2.5c-27.8-0.9-55.7-0.1-83.5-0.7
			c-22.9-0.5-45.7,0.2-68.6-0.6c-13.1-0.4-26.1,0.1-39.1-0.5c-16.4-0.7-32.8-0.4-49.2-0.5c-5.4,0-10.8,0.2-16.1-1.1
			c-4.5-1.1-8.3-3.2-12-6c-3.5-2.6-5.4-6.2-7.2-10c-0.7-1.6-1.5-1.9-3.1-1.2c-6.1,2.7-12.4,5-18.4,7.8c-4.2,2-8.6,3.7-12.9,5.4
			c-2.9,1.2-5.2,3.5-8.6,3.7c-3.6,0.2-7,1.7-10.7,1.4c-1.5-0.2-3.1-0.1-4.7,0c-19.6,0.3-39.2-0.9-58.8-0.6c-6.4,0.1-12.9,0-19.3,0.1
			c-1.1,0-2.3-0.3-2.2,1.5c0,1-0.9,1.2-1.8,1.2c-1.6,0-3.1,0-4.7,0c-3.1-0.1-5.7,0.6-7.4,3.5c-1.2,2-3,2.7-5.3,2.6
			c-5.3-0.1-10.7-0.5-16,0.1c-6.7,0.7-13.3-0.4-20-0.1c-0.5,0-1,0.2-1.4,0c-2.9-1.6-6.3-1.9-9.2-3.3c-0.5-0.2-0.9-0.5-1.5-0.6
			c-3.9-0.2-7.9-0.4-11.8-0.6c-1.3-0.1-2.5-0.2-2.8,1.7c-0.1,1-1.6,1.7-2.3,1.4c-1-0.4-1.7-0.1-2.6,0.1c-1.2,0.2-2.4,0.3-2.9-1.3
			c-0.5-1.7-1.8-2-3.4-1.9c-12,0.1-23.9,0-35.9,0c-5.5,0-10.9-0.2-16.4,0c-29.1,1.1-58.2,0.3-87.3,0.4c-3.2,0-5,1.2-6.6,3.6
			c-5.3,7.9-10.8,8.5-17.6,2.2c-3-2.8-6.2-5.2-9.4-7.7c-4-3.1-7.9-6.3-12-9.3c-2.8-2-5.7-3.8-7.7-6.7c-2.1-3-2.2-6.7-0.1-9.7
			c2.8-3.9,5.6-7.8,9.1-11.2c0.8-0.8,0.5-1.7,0.5-2.6c0-8.5-0.2-16.9,0.1-25.4c0.3-9.5,0.6-19.1,0.5-28.6c-0.1-7,0-14,0-21.1
			c0-0.8,0.4-2.1-1-2.2c-1.6-0.1-1.3,1.3-1.2,2.2c1.2,16.4,0.3,32.7,0.5,49.1c0.1,8.2,0,16.3,0,24.5c0,1.8-1.4,2.7-2.2,3.9
			c-2.2,3.2-4.6,6.3-6.9,9.5c-0.9,1.3-1.8,2-3.6,2c-6.9-0.1-13.8,0-20.7,0.1c-1.1,0-2.1-0.1-2.8-1.2c-2.4-3.9-5.3-7.5-8.3-11
			c-1-1.2-1.5-2.4-1.4-4c0.4-5.3,0.2-10.6,0.3-15.9c0.4-17.1,0.2-34.3,0.2-51.4c0-16.3-0.4-32.6,0.2-48.9c0.4-11.7,0.2-23.4,0.4-35
			c0.1-2.8,2.1-4.5,3.4-6.6c1.7-2.8,3.5-5.4,5.3-8.2c0.7-1.1,0.9-1.8-0.9-2.2c-6.6-1.4-8.2-4.7-7.9-11.4c0.3-7.2,0.5-14.5-0.2-21.7
			c-0.2-2.1,0.1-4.3,0.2-6.4c0-0.6,0-1.7-0.2-1.8c-3.8-1.5-2.1-4.8-2.4-7.4c-0.2-1.3,0-2.6,0-3.9c0-1.2-0.1-2.4,1.7-2.6
			c1.2-0.2,1.1-1.3,1.1-2.2c0.2-8,0.7-15.9,0.6-23.9c-0.1-7.2,0.5-14.4-0.2-21.6c-0.5-5.9,5.8-10.7,11-10.9
			c11.2-0.6,22.4-0.4,33.6-0.5C149.4,366.9,149.8,366.9,150.6,366.8z M639.9,634.6c0,1.9,0,3.9,0,5.8c-0.1,6.6-0.2,6.2,6.4,6
			c10-0.4,20-1.1,30-1.8c8.6-0.6,17.1-1.7,25.7-2.6c8.5-0.9,17-1.5,25.5-2.3c6.8-0.7,13.6-1.1,20.3-1.8c11.5-1.2,22.9-2.5,34.3-3.7
			c7.9-0.8,15.7-1.5,23.6-2.2c8.2-0.8,16.5-1.5,24.7-2.2c5-0.5,5.1-0.6,5.1-5.6c0-8-0.1-16-0.1-24c0-5.8,0-11.6,0-17.4
			c0-5.8,0-11.6,0-17.4c0-5.8,0.1-11.6,0.1-17.4c0-5.8-0.3-11.6,0-17.4c0.3-5.6-0.7-11.1-0.1-16.7c0.3-3,0-6.1,0-9.1
			c0-15.1,0-30.2,0.1-45.3c0-12.4-0.1-24.8,0.2-37.2c0-1.4-0.5-2.8-0.2-4.2c0.8-3.4,0.1-6.8,0.5-10.1c0.1-1.2-0.7-1.2-1.5-1.5
			c-3.2-0.8-6.5-0.8-9.7-1.2c-5.9-0.6-11.8-1.1-17.6-1.7c-6.5-0.7-13-1.5-19.4-2.1c-4.9-0.5-9.9-0.5-14.7-1.2
			c-6.5-1.1-13-1.4-19.5-2.1c-4.8-0.5-9.7-0.6-14.4-1.3c-5.9-0.8-11.7-1.3-17.6-2c-7.1-0.8-14.3-1.1-21.4-1.7
			c-9.5-0.9-19-2.2-28.5-2.7c-8.9-0.5-17.8-1.1-26.7-2.3c-1.5-0.2-2.4,0.1-2.4,2c0,11.9,0.1,23.7-0.4,35.6
			c-0.3,6.4,0.5,12.8,0.4,19.2c-0.1,12-0.2,23.9-0.3,35.9c-0.2,25-0.8,50.1-0.7,75.1c0,2.9-0.1,5.7,0,8.6c0.1,2.3-0.2,4.7-0.3,7
			c-0.2,3.5-0.6,7.1-0.7,10.6C640.2,599.5,640.8,617.1,639.9,634.6z M165.3,606.6c0,1.2,0,1.9,0,2.6c0,3.9,0,3.9,3.8,3.9
			c15.6,0,31.1,0.1,46.7-0.1c7-0.1,14,0.1,21,0.2c4.7,0,9.1,0.8,13.4-1.8c3.8-2.3,7.2-5.2,8.2-9.3c0.8-3,0.8-6.5,0.8-9.8
			c0-13.9,0-27.8,0-41.7c0-5.1-0.5-10.2,0.2-15.2c0.8-5.8,0.3-11.5,0.6-17.2c0.2-3.8,0.1-7.9-0.1-11.8c-0.4-8.4-0.1-16.8-0.1-25.2
			c0-13.6-0.5-27.2,0.6-40.8c0.4-5.2-0.9-10.1-3.1-14.4c-2.4-4.7-6.7-8.2-12.6-8.2c-6.5,0-13-0.1-19.4,0c-6.7,0.1-13.3,0.6-20,0.6
			c-12.2-0.1-24.4,0-36.6,0c-1,0-2.2-0.5-2.7,0.7c-0.6,1.4,0.3,2.6,1,4.1c0.7-3,1.3-3.7,2.6-3.7c3.7,0.1,7.6,3.8,7.8,7.7
			c0.2,4.8,0.2,9.5,0.5,14.3c0.3,5.4,0.2,10.8-0.3,16.2c-0.8,8.4,0.3,16.7,0,25.2c-0.4,9.2-0.1,18.4-0.1,27.6c0,1.7,0.8,3.3,0.5,4.8
			c-1.1,5.7-0.6,11.5-0.8,17.2c-0.5,14.9-0.2,29.8-0.2,44.7c0,0.8-0.1,1.6-0.2,2.5c-0.8,5.4-0.5,11-0.6,16.4
			c-0.1,3.8-0.8,6.8-2.8,9.7C171.5,608.5,168.1,608.8,165.3,606.6z M584.1,632.1c0,6.9,0,13.8,0,20.7c0,1-0.2,2.4,1.3,2.2
			c4.1-0.5,8.2-1.3,12.2-2c3.9-0.6,7.8-1.2,11.8-1.8c4.8-0.7,9.7-1.3,14.5-2c3.8-0.6,7.6-1.7,11.5-1.8c3.1-0.1,3.5-1.2,3.5-3.8
			c0.2-20.3-0.6-40.6,0.4-61c0.8-17.7-0.5-35.5,0.6-53.3c0.4-6.5-0.2-13,0-19.5c0.4-18.2-0.2-36.5,0.6-54.7
			c0.4-9.7,0.1-19.4,0.1-29.1c0-3.2,0.6-6.5,0.4-9.6c-0.3-4.5-0.2-9.1-0.2-13.5c0.1-4.5,0.1-9,0.3-13.4c0.1-1.7-0.6-2.4-2.2-2.8
			c-5.7-1.4-11.5-2.4-17.3-3.4c-10.9-2-21.7-4.7-32.7-6.5c-3.7-0.6-3.7-0.7-3.7,3.1c0.3,20.3,0.2,40.6,0.4,61
			c0.2,27.5,0.7,55-0.4,82.5c-0.8,19.3,0.7,38.6-0.5,57.9c-0.6,10-0.5,20-0.6,30C584,618.3,584.1,625.2,584.1,632.1z M449,548.1
			c0.1,0.2,0.1,0.5,0.2,0.7c0.6,0,1.2,0.1,1.8,0.1c11.5,0,23,0,34.5,0c4.4,0,8.8,0,13.2,0c2.7,0,4.1-2.7,3-5.1
			c-1-2.2-1.8-4.6-1.3-7.1c0.5-2.6,0.5-5.1,0.5-7.7c0.1-7.8,0-15.7,0.1-23.5c0.1-6.7,5.7-10.8,12.3-9.3c3.1,0.7,6.4,0.5,9.6,0
			c2.6-0.4,4.9-0.1,7,1.2c1.7,1.1,2.1,0.7,2.1-1.1c0-2.6,0-5.2,0-7.7c0-6-0.3-11.9,0.5-17.8c0.1-0.5,0.2-1-0.3-1.2
			c-0.9-0.3-1,0.5-1.2,1.1c-3.4,7.1-7.9,13.4-13.7,18.8c-0.5,0.5-1.2,0.9-1.1,1.8c0.4,3.2-1.8,3.5-4.2,3.6
			c-4.2,0.1-8.5-0.5-12.6,0.6c-2.5,0.7-5.1,0.5-7.7,1.4c-1.5,0.5-3.8,0.3-5.7,0.1c-3.3-0.5-6.5-0.7-9.7,0.1
			c-0.8,0.2-1.6,0.2-2.5,0.2c-5.4,0-10.8-0.4-16.3-0.2c-13.6,0.5-27.3-0.1-40.9,0c-3.8,0-7.4-0.5-11-1.7c-3.4-1.1-7.2-1.2-10.3-0.2
			c-3.5,1.1-6.9,1.3-10.5,1.3c-1.5,0-3,0.1-4.4,0c-2-0.2-2.5,1-2.5,2.6c-0.1,5,0,10-0.2,15c-0.2,7.6-0.1,15.2-0.2,22.8
			c-0.1,5.8,0.3,11.7,0.1,17.6c-0.1,2.3,0.6,2.2,2.2,2.3c4.1,0.1,8.5-0.9,12.2,0.7c3.3,1.5,6.4,1.4,9.7,1.5c0.8,0,1.6,0.1,2.3-0.6
			c2.4-2.5,5.8-2.6,8.9-2.7c8.2-0.2,16.4,0,24.6,0c2.4,0,4.9,0.8,7,0.3c4.7-1,9.2,0.3,13.8-0.1c4.1-0.4,8.4,0.2,12.6,0.2
			c4.8,0.1,9.6,0,14.4,0c3.1,0,6.1-0.2,9.2,0.9c3.1,1.1,6.1,2.5,9.7,2c2.9-0.4,5.9-0.1,8.8-0.1c1.3,0,2.5,0.2,2.3,1.9
			c-0.1,1.4-0.1,3-2.2,3.1c-1.9,0.1-3.8,0.5-5.7,0.5c-5.3,0.1-5.3,0-5.2,5.4c0,0.6,0,1.1,0,1.7c-0.2,10.5-0.9,21.1-1.1,31.6
			c-0.2,16.8-0.7,33.6-0.7,50.5c0,3.5,0.4,7.1-1.4,10.4c-0.5,0.9-0.3,1.5,0.6,1.6c3.5,0.3,6.9,0.5,10.4,0.7c0.9,0,1.7-0.7,1.7-1.5
			c0-1-1.1-0.7-1.7-0.7c-2.5,0-5,0-7.5,0c-0.7,0-1.4-0.2-1.4-1c0-0.7,0.7-0.7,1.3-0.7c3.3,0,6.6,0,10,0c1.3,0,1.8,0.6,1.8,1.9
			c0.1,2.7-1.8,3.9-5.7,3.6c-3.6-0.2-7.2-0.4-10.7-0.5c-0.6,0-1.3-0.2-1.9,0.3c-2.4,1.9-5.3,2.1-8.3,2.1c-7,0-14,0-21,0
			c-11,0-22,0.2-33.1-0.6c-1.9-0.1-3.8,1-5.7,0.4c-3.3-1-6.6-0.4-9.9-0.4c-3.8-0.1-7.6,0.7-11.2-0.6c-3.9-1.4-8.5-2.2-11.7-0.7
			c-4.1,2-7.9,1-11.9,1.3c-5.7,0.3-11.3-0.9-17-0.6c-1.9,0.1-3.6-1.1-4-2.8c-1.4-5.9-3-11.6-4.1-17.6c-1.4-7.4-2.6-14.8-2.6-22.4
			c0-0.6,0.3-1.4-1.1-1.6c0.2,4.2,0,8.3,0.5,12.5c1,9,2.6,17.8,5.4,26.4c0.5,1.6,1.6,3.8-0.6,4.7c-2.6,1-3.3-1.6-3.8-3.2
			c-2.5-8.4-4.3-16.9-5.8-25.5c-1.3-7.2-1.1-14.4-1.6-21.6c-0.1-1.6-0.7-2.1-2.2-2c-3.4,0.1-6.8,0.1-10.2,0
			c-2.4-0.1-3.2,0.6-3.2,3.1c0.2,14.1,0.2,28.2,0.2,42.3c0,5.8,0.3,11.7-0.3,17.5c-0.3,3.1,0.7,3.1,2.9,3.1c9-0.1,18,0,27,0
			c10.6,0,21.3,0.3,31.9,0.4c26.5,0.3,53.1,0,79.6,0.2c6.3,0,12.6,0.1,18.9,0.2c6.8,0.1,13.8,0.2,20.6-0.2c2.6-0.1,5.2-0.7,7.7-1.4
			c3.5-0.9,6.6-2.9,9.9-4.3c5.4-2.2,10.7-4.6,16-7c0.6-0.3,1.4-0.5,1.2-1.3c-0.2-0.9-1.1-0.5-1.6-0.5c-4.2,0-8.5,0-12.7,0
			c-3.9,0-3.9,0-3.5-3.8c0.1-0.5,0-1.1,0-1.7c0.4-15.1-0.3-30.1,0.4-45.2c0.7-15.8,0.2-31.7,0.2-47.5c0-1.3,0.1-2.3-1.8-2.7
			c-1.9-0.4-1.7-2.4-1.5-3.9c0.3-1.4,1-2.3,2.7-1.5c0.7,0.3,1.1-0.2,1.1-1c0-4.1,0-8.3,0-12.4c0-0.6,0-1.6-1-1.1
			c-3.2,1.6-6.5,0.9-9.7,0.8c-5.3-0.2-10.8,1.1-16-0.9c-0.9-0.3-1.2,0.5-1.5,1.2c-0.9,2.2-2.8,3-5,3c-21.8,0-43.7,0-65.5,0
			c-2.4,0-3.6-1.1-3.6-3.5c0-14.1,0.1-28.2,0-42.3c0-2.1,0.9-3,3-3c2.3,0,4.6,0.1,6.9,0.1c16.6,0,33.2,0,49.8,0
			c1.9,0,3.2,0.6,3.1,3.2c-0.1,1.5-0.2,3.1-0.1,4.7c0.1,7.8,0,15.7-0.1,23.5c0,1,0.1,2.4-1.3,2.3c-1.8-0.2-3.5,0.5-5.3,0.2
			c-3.7-0.5-7.5-0.1-11,1.2c-4,1.5-7.8,3.3-11.7,5C458.3,544,453.7,546.1,449,548.1z M433.4,557.2c-3.5,0-7,0-10.5,0
			c-3.5,0-7,0-10.5,0c-5.4,0-7.4,1.4-9,5.3c-0.6,1.6,0.3,2.6,0.3,3.9c-0.1,8.7,0.2,17.5-0.1,26.3c-0.2,6.1,0.1,12.1-0.3,18.2
			c-0.6,8.5-0.4,17.1-0.2,25.7c0.3,8.5-0.8,17.1,0.4,25.6c0.5,3.3,2.1,5.2,5.4,5.1c11.7-0.4,23.4,0.2,35.1,0
			c9.6-0.1,19.3-0.2,28.9,0.4c5.2,0.3,10.5,0,15.7,0.1c5.9,0.1,9.6-3,9.4-8.9c-0.2-10.1,0.7-20.2,0.7-30.3c0-7.3-0.2-14.7,0.4-22
			c0.7-8.3-0.1-16.7,0.5-25.1c0.4-5.3,0-10.7,0-16.1c0-3.3-3-6.4-6.1-6.5c-0.6,0-1.3,0.1-1.9-0.1c-5.6-2-11.4-1-17.1-1.3
			c-3.2-0.2-6.7,0.4-9.9,0.1c-4.2-0.4-8.3,0.1-12.4-0.2C446.1,556.8,439.8,557.2,433.4,557.2z M316.3,447.6c0-8.9-0.1-17.9,0-26.8
			c0-2.3-0.6-3-3-3c-12.9,0.1-25.8,0.1-38.7,0c-2.4,0-3.3,0.8-3.2,3.2c0.3,6.3-0.1,12.6,0.5,19c0.6,6.1,0.4,12.3,0.2,18.5
			c-0.3,13.2,0.3,26.5-0.6,39.7c-0.3,4.8,0.3,9.7,0.4,14.5c0.1,6.6,0.1,13.2-0.4,19.8c-0.8,10.6,0.2,21.3-0.5,31.9
			c-0.6,8.5,0,17.1-0.1,25.7c-0.1,6.3,0.2,12.6-0.5,19c-0.4,3.5,0.7,4.6,4.3,4.6c12.8,0,25.6,0,38.4,0c1.8,0,2.6-0.4,2.6-2.4
			c0-7.3,0.3-14.5,0.4-21.8c0.1-6.2,0.2-12.3,0.1-18.5c-0.4-22.6,0.7-45.3-0.5-67.9c-0.3-5,0.2-10.1,0.5-15.1
			c0.3-5.1-0.4-10.1-0.1-15.3C316.6,464.3,316.3,455.9,316.3,447.6z M496,493.8c-4.2-2.3-7.5-5-10.4-8.5
			c-6.2-7.4-11.4-15.2-14.1-24.7c-3.1-11.1-3.2-21.9-0.6-33c2.4-10,6.3-19.3,12.8-27.2c4.4-5.3,8.5-11.1,15.5-13.4
			c0.7-0.2,1.7-0.2,1.7-1.4c0-1.1-0.7-1.7-1.6-2.1c-2.1-1-4.3-1.8-6.8-1.7c-5.5,0.2-11.1,0.2-16.6,0.4c-7.4,0.2-14.7-0.3-22.1,0.1
			c-8.2,0.4-16.4,0-24.6,0.1c-5.4,0.1-10.8,0.2-16.1,0.6c-5.8,0.4-8.1,2.3-8.5,7.3c-0.3,3.6-0.4,7.1-0.4,10.7
			c0,14.4,0.1,28.7,0.1,43.1c0,14.9-0.1,29.8-0.1,44.8c0,2.5,2.2,5.5,4.5,5.8c3.1,0.4,6.2,0.6,9.3,0.6c3.6,0,7.1-0.4,10.7-0.5
			c14.4-0.1,28.9,0.1,43.3,0.4C479.9,495.3,487.8,496,496,493.8z M553.1,362.6c-0.1-0.7-0.7-0.8-1.1-1.1c-4.1-1.9-8-4.3-12.3-5.9
			c-4.1-1.5-8-3.8-12-5.1c-6.8-2.3-14-2.9-21.2-2.9c-7.1,0-14.2-0.3-21.4-0.2c-10.6,0.1-21.1-0.2-31.7-0.3
			c-38-0.4-75.9-0.2-113.9-0.2c-3.4,0-3.8,0.3-3.8,3.7c0,11.6,0,23.1-0.5,34.7c-0.4,9.6-0.1,19.2-0.1,28.8c0,1.4-0.1,2.9,1.9,2.5
			c4.4-0.9,8.9-0.5,13.4-0.5c2,0,2.7-0.9,3-2.7c1.8-9.4,3.8-18.7,7.5-27.5c1.4-3.4,3.8-3.9,6.5-1.5c0.7-2,2.2-3.1,4.2-3.1
			c6.2-0.1,12.3,0,18.5,0c0.5,0,1,0.1,1.5,0.4c5.6,3.1,11.4,2.2,17.2,0.6c0.9-0.3,1.6-1.2,2.7-1c3.6,0.5,7.1-0.3,10.6-0.4
			c15.3-0.4,30.6,0.2,45.9-0.6c5.2-0.3,10.4-0.5,15.7,0.4c1.7,0.3,3.6,0.4,5.2-0.1c4-1.1,7.8-0.4,11,1.4c2.3,1.3,4.4,1.4,6.7,1.4
			c1.4,0,2.8,0.2,4.1,0c2.7-0.4,3.9,0.7,4.1,3.2c0.1,0.9,0.5,1.3,1.3,1.9c3.3,2.4,6.6,4.9,8.7,8.6c2,3.5,4.3,6.8,5.7,10.6
			c0.2,0.6,0.1,2,1.3,1.6c0.9-0.3,0.8-1.3,0.8-2.2c0-0.6,0-1.1,0-1.7c0-13.3,0-26.7,0-40c0-1.9,0.5-2.6,2.5-2.5
			c5.2,0.2,10.3,0.1,15.5,0C551.3,363,552.3,363.4,553.1,362.6z M813,633.8c0-0.2,0-0.4,0-0.6c-0.5-0.1-1-0.2-1.5-0.2
			c-5-0.2-10,0.9-14.9,1.4c-2.5,0.2-5-0.1-7.4,0.3c-7.5,1.4-15.1,1.8-22.6,2.8c-6.3,0.8-12.7,1-19,1.6c-8.1,0.8-16.2,2-24.3,2.7
			c-7.3,0.6-14.6,1.6-21.9,2.2c-8.2,0.6-16.3,1.9-24.4,2.4c-1.6,0.1-3.3,0.2-3.3,2.8c0,12.1,0.5,24.3-0.6,36.4
			c-0.2,2.2,0.7,2.8,2.8,2.8c20.1,0,40.2-0.1,60.3,0.4c13.9,0.4,27.8,0.1,41.7,0c1.8,0,3.3,0.8,5.1,0.5c4.2-0.7,8.3-1.7,12.3-3.1
			c13.8-5,23.2-14.4,28.7-27.9c0.5-1.2,1-2.4-1.2-2.8c1.2,0,2,0.2,2.4-1.1c1.4-5.2,1.6-10.5,2.2-15.8c0.1-0.7,0.3-1.7-1.2-1.3
			c-4.5,1-9.2,0.7-13.7,1.8c-1.5,0.4-3.1,0.3-4.5-0.5c-0.9-0.5-1.4-1.4-1.3-2.2c0.1-0.9,0.9-1.5,2-1.6
			C810,634.4,811.5,634.1,813,633.8z M364.8,493c-0.5,1.4-1,3.2-2.8,2.8c-1.7-0.4-3.3-0.9-4-3.1c-1.9-6-3.2-12.1-4.6-18.2
			c-2-8.8-2.3-17.8-2.8-26.8c-0.5-8,0.2-16.1,1.6-24c1-5.5,0.7-5.8-4.8-5.8c-0.2,0-0.4,0-0.6,0c-3.7,0.2-7.5,0.2-11.3,0.4
			c-2.9,0.1-6-0.3-9-0.4c-1.1,0-2.1,0-2.1,1.5c0,7.5-0.2,15.1,0.1,22.6c0.1,2.4,0.4,5.1,0.2,7.3c-0.6,5.4,0.6,10.8-0.1,16.2
			c-0.7,5.5-0.1,11.3,0.3,17c0.5,8.6,0.2,17.2,0.1,25.8c-0.2,18.9,0.6,37.8-0.5,56.7c-0.3,5.5-0.1,11-0.4,16.5
			c-0.5,10-0.1,20-0.2,30.1c0,1.5,0.6,2.2,2.1,2.2c6.8,0,13.6,0,20.4,0c1.3,0,1.9-0.5,1.8-1.8c-0.4-3.5,0.6-6.9,0.6-10.4
			c0.1-4.2,0.6-8.4,1.2-12.5c1-6.7,2.6-13.3,4.3-19.9c0.9-3.5,1.7-7.1,4.7-9.6c0.9-0.7,1.9-1.7,3.2-0.9c1.3,0.8,1.1,2,0.8,3.2
			c-0.6,2.3-1.2,4.6-1.8,6.9c0.8-0.7,1.1-1.6,1.5-2.5c0.7-2.1,1.1-4.5,2.2-6.4c1.6-2.8,4.6-3.4,7.6-3.1c2.1,0.2,2.9-0.5,2.9-2.8
			c-0.1-11.2-0.1-22.4,0.4-33.6c0.4-7.2,0-14.4,0.1-21.6c0.1-2.2-1.1-2.6-2.7-2.9c-0.9-0.2-1.6,0.3-2.4,0.5
			C367.8,497,365.3,495.6,364.8,493z M285.4,347c-15.1,0-30.2,0-45.3,0c-2.3,0-3.1,0.7-3,3c0.2,5,0.1,10,0,15
			c-0.1,9.1,0.1,18.2-0.5,27.3c-0.4,7.1,0,14.2-0.2,21.3c-0.1,2.4,1.1,2.8,2.9,2.8c3.1,0,6.2-0.2,9.3-0.2c26.9,0,53.8,0,80.7,0
			c2.5,0,3.6-0.7,3.4-3.3c-0.3-5,0.1-10.1,0.2-15.1c0.1-6,0.3-11.9,0.3-17.9c0.1-9.9-0.1-19.9,0.1-29.8c0-2.4-0.6-3.1-3.1-3.1
			C315.4,347.1,300.4,347,285.4,347z M809.3,401.7c-0.2-0.5-0.3-0.8-0.4-1c-0.6-0.8-1.8-1.3-1.3-2.5c0.6-1.3,1.9-0.7,2.9-0.9
			c3.1-0.4,6.3,0.3,9.3,0.7c2.2,0.4,4.8-0.6,6.6,0.9c2.3,1.9,2,0.2,2.1-1.2c0.3-3.4-0.3-6.8-0.6-10.1c-0.4-5.2-2.1-10.2-4.4-14.8
			c-3.2-6.2-7-12-12.5-16.6c-4.8-4-9.8-7.4-15.8-9.2c-8.6-2.6-17.6-2.9-26.4-3.2c-19-0.6-38-0.2-56.9-0.2c-4.9,0-9.9-0.2-14.8-0.4
			c-5.5-0.3-11-0.4-16.5,0.3c-4.3,0.5-4.3,0.1-4.3,4.4c0,6.5,0.5,13.1-0.1,19.6c-0.6,6.5-0.1,13-0.4,19.5c0,1,0.2,1.8,1.4,1.9
			c3.8,0.4,7.6,0.8,11.4,1.1c4.6,0.4,9.3,0.7,13.9,1.1c7.9,0.7,15.7,1.5,23.6,2.2c4.3,0.4,8.5,0.8,12.8,1.3c4.5,0.5,9,1.4,13.6,1.5
			c3.1,0,4.1-1.1,4.1-4.1c0-4.3,0-8.6,0-12.9c0-3,1.6-4.9,4.5-5.6c2.1-0.5,4-0.9,4.4-3.7c0.3-2.2,2.1-3.7,3.6-5.4
			c1.9-2.1,4.7-2.7,6.7-4.5c1.4-1.2,2.5-1.3,3.4,0.6c0.9,1.7,2,2.6,4.3,2.6c4.8,0.1,5.6,1.1,5.6,6c0,4.6-0.1,9.2,0,13.8
			c0.1,2-0.8,3.1-2.5,3.8c-1.7,0.7-3.3,1.5-5.2,1.2c-0.8-0.1-1.3,0.3-1.7,1.1c-1.1,2.1-2.6,2.4-4.1,0.6c-0.9-1-1.9-1.7-3-2.3
			c-3.5-2.1-6.6-4.6-7.8-8.8c-0.3-0.9-0.4-1.8-1.7-1.6c-1.1,0.1-1.9,0.8-2.2,1.8c-0.2,0.6-0.1,1.3-0.1,1.9c0,4.8,0.1,9.6-0.5,14.3
			c-0.2,1.8,0.6,2.3,2.4,2.4c4.8,0.4,9.6,1,14.4,1.5c4.3,0.4,8.5,0.9,12.8,1.2c3.2,0.2,6.3,0.7,9.5,1
			C802.7,401.3,805.9,401.5,809.3,401.7z M283.5,615.3c-15.1,0-30.3,0-45.4,0c-1.9,0-2.6,0.5-2.6,2.5c0.1,12.6,0,25.2,0,37.8
			c0,7.7,0,15.3,0,23c0,1.6,0.5,2.2,2.1,2.1c8.9-0.4,17.8,0.7,26.7,0.6c1,0,2.1-0.6,2.9-0.4c4.7,0.9,9.4-0.7,14.1,0.4
			c0.4,0.1,0.9,0.1,1.4,0c2.8-0.6,5.8-0.3,8.5-0.2c12.5,0.6,25,0,37.5,0.3c1.4,0,1.9-0.6,1.9-2c0.1-5.7,0.3-11.3,0.4-17
			c0.1-14.6,0.1-29.3,0.2-43.9c0-2-0.4-2.9-2.7-2.9C313.5,615.3,298.5,615.3,283.5,615.3z M837.4,557C837.4,557,837.4,557,837.4,557
			c0,10.7,0,21.4,0.1,32.1c0,1-0.7,2.7,0.7,2.9c1.5,0.2,3.6,0.9,4.7-0.3c1.3-1.3,2.6-1.2,4-1.2c2.1,0,4.3-0.2,6.4,0
			c4.8,0.5,8.8-1,12.9-3.5c3.5-2.1,7.2-4.3,11.2-5.2c3.2-0.7,3.4-2.1,3.3-4.4c-0.2-4.6-0.5-9.2-0.5-13.7c-0.1-4,0.3-8,0.4-12.1
			c0.2-4.2-0.4-8.4-0.4-12.6c0-3.9,1-8,0.4-11.7c-1.2-6.7-0.3-13.4-0.1-20c0.2-5.6,0.1-11.3-0.1-16.8c-0.2-5.8-0.1-11.5-0.3-17.3
			c-0.2-5.1,1.5-10.2,0.1-15.3c-0.2-0.8-0.1-1.9-1.2-1.7c-3.6,0.6-6-1.9-8.6-3.6c-6.8-4.6-13.8-7.9-22.3-6.4
			c-1.4,0.2-2.6-0.1-3.8-1.1c-1.6-1.3-3.8-0.8-5.5-0.4c-1.4,0.4-0.4,2.1-0.7,3.2c-0.5,1.6-0.1,3.2,0.1,4.7c0.4,4.7-0.8,9.3-0.6,14
			c0.3,7.1,0.3,14.2,0.1,21.3c-0.2,10.5,0.2,20.9-0.6,31.4c-0.2,3.2,0.6,6.3,0.5,9.6C837.3,538.2,837.4,547.6,837.4,557z
			 M583.5,436.5c0-20.6,0-41.3,0-61.9c0-3.2,1.6-5.1,4.1-6.3c2.4-1.2,5-1.4,7.6,0.2c7.1,4.4,14.6,8.2,22.1,11.9
			c0.7,0.3,1.6,0.8,2,0.1c0.5-0.7-0.4-1.2-0.9-1.8c-2.6-3.1-6.3-4.3-9.6-6.2c-5.4-3.1-10.9-6-16.2-9.1c-1.4-0.8-2.4-1-3.8-0.4
			c-2.7,1.3-5.5,1.8-8.5,1.7c-11.9-0.1-23.8,0-35.7,0c-5.4,0-5.3,0-5.4,5.4c-0.1,2.3,0.7,3,2.9,2.9c8.7-0.1,17.3-0.1,26,0
			c2.7,0,3.7,1.2,3,3.8c-0.3,1.2-0.4,2.4-0.4,3.5c0.2,21.4-0.3,42.9,0.4,64.3c0.4,12.7,0.5,25.3-0.4,38c-0.5,6.8-0.1,13.6-0.1,20.5
			c0,21.1,0,42.2,0,63.3c0,0.8,0.1,1.7-0.1,2.5c-1.2,4.3-0.5,8.7-0.9,13.1c-0.6,6.7,0.1,13.5-0.1,20.2c-0.2,12.2,0.1,24.5-0.6,36.7
			c-0.3,5.7-0.1,11.4-0.1,17.1c0,1.8-0.5,2.7-2.6,2.8c-8.7,0.3-17.5,0.1-26.2,0.2c-1,0-2.6-0.6-3,0.6c-0.5,1.7-0.7,3.6-0.1,5.4
			c0.2,0.5,0.7,0.6,1.1,0.6c0.6,0,1.3,0,1.9,0c14.2-0.1,28.4,0,42.6,0.5c1.6,0.1,3.2,0.3,4.4,1.4c1.6,1.4,3.4,1.2,4.9,0.7
			c4.4-1.4,8.5-3.5,12.9-4.7c4.3-1.2,7-5.6,11.7-5.8c0.4,0,0.8-0.7,1.1-1.2c0.5-0.7,1.6-1.4,0.7-2.3c-0.6-0.6-1.5-0.1-2.3,0.2
			c-2.5,1-4.8,2.2-7.4,2.9c-4.8,1.3-9.4,3-13.9,5c-5.9,2.7-12.6-1.3-12.6-7.9c0.1-8.4-0.1-16.9,0.5-25.3c0.4-5.6-0.3-11.2-0.4-16.8
			c-0.1-6.3,0.4-12.6,0.4-18.9c-0.1-20.3,0.2-40.7,0-61c-0.1-8.5,0.7-16.9,0.1-25.4c-0.2-3.3,0.4-6.6,0.5-9.9
			C583.5,476.8,583.5,456.7,583.5,436.5z M537.1,510.8c1,1,2.1,1,3.3,1c7.5-0.1,14.9-0.1,22.4-0.1c1.3,0,1.7-0.3,1.8-1.7
			c0.3-12.2,0-24.5,0.5-36.7c0.3-7.9,0.2-15.9-0.2-23.9c-0.3-4.9,0.1-10.1,0.3-15.1c0.3-11.2,0.1-22.5,0.1-33.7
			c0-1.2-0.4-2.5-0.3-3.7c0.6-5,0.2-9.9,0.2-14.9c0-1.2-0.2-2.9-2.2-2.9c-7.3,0.1-14.5-1-21.7-0.6c-1.4,0.1-1.8,0.6-2,2
			c-0.7,3.6-0.3,7.2-0.4,10.8c-0.3,15.3-0.1,30.6-0.1,45.9c0,0.7-0.4,1.7,1,2.1c3.7-9.1,7.5-18.2,11.2-27.3
			c1.9-4.7,3.8-9.4,5.7-14.1c0.4-1.1,1.1-2,2.5-1.4c1.4,0.6,1.3,1.9,1,3.1c-0.3,1.2-1.1,2.2-1.6,3.4c-3.2,8.2-6.7,16.2-10,24.4
			c-2.2,5.5-4,11.2-5.4,16.9c-0.6,2.6-1,5-3.7,6.2c-0.7,0.3-0.8,0.9-0.8,1.6c-0.2,1.9-0.5,3.8-0.5,5.6c0,14,0,27.9,0,41.9
			c0,0.9,0.4,2-0.7,2.5c-1.9-2.4,0.2-5-0.5-7.4c-1.5-5.2-0.3-10.5-0.3-15.7c0.1-5.6,0.3-11.3,0.3-16.9c0.2-30.8-0.2-61.5,0.6-92.3
			c0-1.3,0.1-2.5-0.5-3.7c-0.3-0.5,0-1.5-0.9-1.3c-0.7,0.2-1.8,0.2-1.8,1.4c0,0.7,0,1.5,0,2.2c0,18.2,0,36.4,0,54.5
			c0,13.7,0.3,27.4-0.5,41.1c-0.2,4.1,0.3,8.1,0.1,12.2c-0.3,6.2-0.1,12.4-0.1,18.5c0,4.1,0.1,8.3,0,12.4c-0.1,3.9,0.1,7.8,0,11.7
			c-0.4,16.4,0.2,32.7-0.5,49.1c-0.7,14.7,0.2,29.4-0.6,44.2c-0.3,6.2,0.1,12.3,0,18.5c-0.1,7.2,0,14.5-0.4,21.7
			c-0.2,3.6,0.4,7.3,0.4,10.9c0,1-0.2,2.2,1.4,2.1c1.6,0,1.3-1.2,1.4-2.2c0.1-8.3,0.2-16.7,0.4-25c0.7-23.4-0.3-46.7,0.6-70.1
			c0.5-11.4,0-22.8,0.1-34.3C536.5,526.4,536,518.7,537.1,510.8z M137.6,509.7c0-7.8,0-15.7,0-23.5c0-1.2,0.1-2.6-1.7-2.5
			c-3.5,0.3-6.9-1.1-10.4-0.5c-2.6,0.4-5.1,0.6-7.6,0.5c-2.1-0.2-2.5,0.6-2.4,2.5c0.5,9.2-0.3,18.4-0.1,27.7
			c0.2,7.2,0.1,14.4-0.4,21.6c-0.3,4.7-0.1,9.4-0.1,14.1c0,4.7,0.2,9.4-0.1,14.1c-0.2,4.4,0.4,8.8,0.2,13.3
			c-0.5,13-0.5,26.1-0.6,39.2c-0.1,9.2,0.3,18.5-0.2,27.7c-0.3,6-0.1,12.1-0.3,18.1c0,0.9-0.3,2.1,1.1,2.1c3,0.1,6.1,0,9.1,0
			c0.7,0,0.8-1.4,1.8-0.8c3,1.7,6.1,0.8,9.3,0.5c1.9-0.2,1.9-1.2,1.9-2.6c0.3-21.3-0.6-42.7,0.5-64c0.3-6-0.6-12-0.3-17.9
			c0.3-6.1,0.3-12.1,0.3-18.1c0.1-5.1-0.1-10.3-0.6-15.4c-0.4-4.3,0.3-8.6,0.5-12.9C137.9,525,137.6,517.3,137.6,509.7z
			 M345.5,691.3c-1-0.9-2-0.7-3.1-0.7c-3.9-0.1-8.1,0.8-11.3-2.5c-0.3-0.3-1-0.2-1.6-0.2c-10.5-0.2-20.9-0.3-31.4-0.4
			c-36.7-0.4-73.4-0.2-110.1-0.1c-0.9,0-1.8,0-2.7,0.2c-7.8,1.5-15.3,1.9-21.5-4.3c-3.1-3.1-5.5-6.6-6.3-11.2
			c-0.6-3.5,0-6.8,0.1-10.2c0.1-16.2,0-32.5,0.1-48.7c0-5.4,0.8-10.9,0.4-16.2c-0.5-5.8-0.1-11.7-0.1-17.4c0-5-0.4-10.2,0.2-15.3
			c0.5-4.4-0.3-8.8-0.4-13.2c-0.2-6,0-12.1,0.4-18.1c0.4-6.8,0-13.7,0-20.5c0.3-20.6,0-41.2,0.5-61.8c0.6-28.2,0.2-56.4,0.1-84.6
			c0-3.2-0.4-6.3,0.4-9.7c1.8-8.2,7.2-12.3,14.5-14.6c3.9-1.2,8-1,12.1-1.1c7.4-0.1,14.9,0,22.3,0c40.5,0,80.9,0,121.4,0.1
			c2.7,0,4.5-1,6.1-2.8c0.3-0.3,0.8-0.6,0.6-1.1c-0.2-0.5-0.7-0.5-1.2-0.5c-0.7,0-1.5,0-2.2,0c-51.9,0-103.8,0.1-155.7-0.1
			c-13.5,0-24.3,11.3-24.3,24.4c0,21.8-0.2,43.5,0.4,65.3c0.1,5.2-0.2,10.4-0.3,15.6c-0.3,15.9-0.1,31.9-0.1,47.8
			c0,5.1-0.5,10.2-0.5,15.3c-0.1,25.1-0.1,50.3-0.1,75.4c0,0.6,0.2,1.2,0,1.6c-1.6,3.3,0.2,6.6-0.3,10c-0.6,4.3-0.3,8.9-0.2,13.4
			c0.4,20.5-0.6,41,0.4,61.5c0.4,7.1,2.3,13.2,7.6,18c0.8,0.7,1.3,3.3,3.5,1.3c0.4-0.3,0.7,0.4,0.6,0.8c-0.2,0.6-0.1,1,0.5,1.3
			c2.1,0.9,3.9,2.3,6.3,2.7c4.7,0.9,9.5,0.9,14.2,0.9c40.5,0.2,80.9,0.1,121.4,0.2c7.9,0,15.7-0.5,23.6,0c2,0.1,4-0.4,5.9-0.3
			C338.8,691.5,342.1,691.5,345.5,691.3z M202.5,410.1c7.2-0.1,13.7,0.2,20.2-0.5c1.8-0.2,3-0.9,3.7-2.4c0.8-1.7,1.3-3.6,1.4-5.5
			c0.3-8.9,0-17.8,0.3-26.7c0.2-5.5,1-11.2-0.2-16.8c-0.4-2.1-1.2-3.4-2.8-4.6c-2.2-1.7-4.8-0.8-7.1-0.8
			c-14.5,0.1-29.1-0.7-43.6-0.7c-1,0-2.2-0.2-2.9,0.7c-2.7,3.5-5.2,7.1-5.2,11.8c0,5.4,0.1,10.8,0,16.1c-0.2,8.4,0.4,16.9-0.4,25.4
			c-0.4,3.7,0.3,4.2,4.2,4.1c5.4-0.2,10.8-0.3,16.2-0.2C192,409.9,197.6,409.7,202.5,410.1z M538.2,577.9c0.9-1,2-1.8,2.6-2.9
			c3.2-6.8,6.3-13.6,9.4-20.4c1.3-2.9,2.7-5.9,4.1-8.7c0.5-1.1,1.5-1.7,2.8-1.2c0.8,0.3,1,0.8,0.6,1.7c-2.5,5.2-4.1,10.9-6.9,15.9
			c-4.3,7.6-6.8,15.6-9.3,23.8c-0.5,1.7-0.8,3.5-3.1,3.9c-0.9,0.2-0.9,1.3-0.8,2.1c0.3,8-1,16-0.5,23.9c0.3,4.7,0.3,9.5,0.3,14.3
			c-0.1,7,0.1,14-0.2,20.9c-0.1,1.9,0.7,2.3,2.4,2.3c4.9-0.1,9.8,0,14.7-0.1c2.5,0,5.1,0.3,7.7-0.4c1.4-0.4,1.8-0.8,1.8-2.1
			c-0.1-4.9,0.3-9.7,0.5-14.6c0.4-14.8-0.1-29.6,0.5-44.4c0.2-5.3-0.2-10.7-0.1-16.1c0.2-9,0.2-18-0.2-27
			c-0.3-6.1-0.3-12.3,0.1-18.4c0.2-3.1-1.3-6.2,0.1-9.4c0.5-1-0.7-1.5-1.7-1.5c-7.6,0-15.3,0-22.9,0c-1.1,0-1.9,0.3-1.8,1.5
			c0.4,5-0.9,9.9-0.5,14.8c0.3,3.9,0.5,7.8,0.3,11.6c-0.5,9.6,0,19.1-0.3,28.7C537.6,576.7,537.5,577.3,538.2,577.9z M203.9,673.9
			C203.9,673.9,203.9,673.9,203.9,673.9c6.2,0,12.3,0,18.5,0.1c2,0,3.2-0.8,3.8-2.8c0.8-3.2,1.8-6.3,1.5-9.6
			c-0.5-5.7-0.3-11.4-0.4-17.1c-0.1-5.9-0.1-11.8,0-17.7c0-1.9-0.7-3.4-2.1-4.5c-2.3-1.8-5.1-2.6-7.8-2.5c-4.5,0.2-8.9-0.1-13.4-0.1
			c-12.2,0-24.5,0-36.7,0c-1.4,0-1.8,0.5-2,1.9c-0.8,5.3-0.5,10.6-0.5,15.9c0,8.5,0.4,16.9-0.1,25.4c-0.3,4.5,0.6,8.1,3.5,11.3
			c0.4,0.4,1.1,1.1,1.2,0.9c1.8-3.4,4.7-1,6.9-1.1C185.5,673.7,194.7,673.9,203.9,673.9z M881.6,526.5
			C881.6,526.5,881.6,526.5,881.6,526.5c0,37.8,0.2,75.6-0.2,113.3c-0.1,6.3,3.9,9.6,6.7,14c0.5,0.7,1.3,1,1.9-0.2
			c1.2-2.8,2.8-5.4,2.7-8.7c-0.1-4-0.1-7.9,0-11.9c0.1-5.5,0.6-11,0.6-16.5c-0.2-14.6-0.3-29.1-0.1-43.7c0.4-21.6-0.6-43.2,0.6-64.8
			c0.3-5.2,0-10.4,0-15.5c0-19.2,0-38.3,0-57.5c0-9.6-0.2-19.2,0.1-28.8c0.1-5-0.7-9.6-2.7-14.1c-0.9-1.9-1.7-1.8-3-0.5
			c-1.9,1.9-3.6,3.9-5,6.2c-0.6,1-2,1.7-1.5,3.1c1.3,3.7-0.1,7.4-0.1,11.1C881.6,450.2,881.6,488.3,881.6,526.5z M383.2,558.3
			c-1.6,0-3.1,0-4.7,0c-1.8,0-4.3-0.7-3,2.8c0.3,0.8-0.2,1.6-0.5,2.4c-1.2,3.5-2.5,7-3.3,10.6c-1.3,5.3-2.1,10.6-2.9,16
			c-1.4,9.6-1.8,19.3-2.1,28.9c-0.2,5.5,0.6,10.9,1.1,16.4c0.3,3.7,0.8,7.4,1.4,11c1,6.5,3.9,12.6,3.7,19.3c0,1,0.8,0.9,1.6,1.1
			c5.3,1,10.6,0.4,15.9,0.5c2.5,0,4.1-1.9,3.3-4.5c-1.8-6.2-3.1-12.4-4.2-18.8c-1.4-8.3-2.9-16.6-2.9-25.1c-0.1-7.8,0.1-15.5,1-23.3
			c0.6-5.2,1.3-10.4,2.3-15.6c0.9-5.2,2.7-10.1,4-15.1c1-4-0.4-6.4-4.6-6.5C387.2,558.3,385.2,558.3,383.2,558.3z M383.5,488.6
			C383.5,488.6,383.5,488.6,383.5,488.6c2.4,0,4.8,0,7.2,0c0.6,0,1.2,0.1,1.2,0.8c0,0.7-0.6,0.8-1.2,0.9c-0.5,0-0.9,0-1.4,0
			c-3.9,0-7.7,0-11.6,0c-2.4,0-1.7,2-2.2,3.1c-0.3,0.8,0.4,1.3,1.3,1.3c4.5,0,9.1,0.1,13.6,0c2.9-0.1,5.5-3.7,4.8-6.4
			c-1.9-7.2-3.7-14.4-5-21.8c-1.5-9.1-2.5-18.2-2.6-27.4c-0.1-8.4,0.9-16.7,2.2-25c1.2-8.2,2.8-16.4,4.9-24.5c0.9-3.4-0.2-5.2-3.6-6
			c-3.6-0.9-7.3-1-11-0.7c-2.3,0.2-3.3,0.7-2.9,3c0.2,1.1-0.3,2-0.6,2.9c-5.5,13.9-7.3,28.5-7.6,43.4c-0.2,9.3,0.1,18.7,0.9,28
			c0.8,8.7,2.6,17.1,4.6,25.5c0.5,1.9,1.5,3.2,3.8,3C380,488.5,381.8,488.6,383.5,488.6z M674.7,362.8c0-5.5-0.1-11.1,0-16.6
			c0.1-2.4-0.6-3.2-3.1-3.2c-10.9,0.1-21.7,0-32.6,0.1c-3.4,0-6.8,0.3-10.1,0.5c-0.8,0.1-1.8,0.1-1.7,1.3c0.1,2-0.7,3.9-0.6,6
			c0.1,6.5,0.1,13.1,0.1,19.6c0,4.4,2,5.9,6.2,4.4c0.6-0.2,1.2-0.6,1.7-0.8c0.9-0.4,1.9-1.1,2.7,0c0.8,1.1,0.4,2.1-0.6,2.9
			c-2,1.4-0.8,2.2,0.6,2.6c1.1,0.3,1.4,0.9,1.4,2c0,0.9-0.4,1.4-1.3,1.4c-0.7,0-1.4,0.3-1.2,1c0.1,0.5,0.9,1,1.4,1.1
			c2.4,0.5,4.8,0.8,7.2,1.2c4.1,0.6,8.1,0.9,12.2,1.2c5.3,0.4,10.5,1,15.8,1c0.9,0,2-0.4,1.7-1.3c-1.1-2.9,0.2-5.6,0.1-8.4
			C674.7,373.5,674.7,368.2,674.7,362.8z M562.9,667.8c-4.6-0.9-8.6-0.3-12.8,2c-6.3,3.4-13.3,5.6-19.9,8.7
			c-5.5,2.6-11,4.9-17.2,4.9c-6.7,0-13.5,0.1-20.2,0c-4.6-0.1-9.2-0.5-13.8-0.5c-37.6-0.4-75.1,0.7-112.7-0.6
			c-7.8-0.3-15.6,0.2-23.5,0.2c-54-0.3-108-0.1-162-0.1c-5.8,0-10.1-2.8-13.9-6.9c-3.2-3.4-4.1-7.4-3.9-12c0.3-7.3,0-14.6,0-21.8
			c0-10.5,0-20.9,0.6-31.4c0-0.8,0.4-1.9-0.5-2.3c-1.6-0.8-1.2-2.1-1.2-3.4c0-6.6,0.1-13.3-0.1-19.9c0-2,0-4.3-2.2-5.8
			c0,7.8,0,15.4,0,23c0,11.8,0.1,23.6,0.1,35.3c0,8.9,0,17.8-0.1,26.8c-0.1,5.1-0.2,9.9,3,14.6c3.4,5.1,7.8,7,13.4,7.5
			c3.2,0.3,6.4-0.6,9.6-0.6c33.2,0.1,66.4,0,99.5,0.1c3.3,0,6.6,0.2,9.9,0.4c11.6,0.6,23.1,0,34.7,0.4c6.6,0.2,13.4-0.3,20,0
			c4.3,0.2,8.6,1.1,12.4-1.9c0.7-0.5,1.5-0.7,2.3-0.5c2.2,0.5,4.4-0.1,6.7,0c1.7,0.1,3.6-0.5,4,2.1c0.1,0.7,1,0.7,1.6,0.7
			c11.8,0.3,23.5,0,35.3,0.3c5.5,0.1,11.2-0.2,16.8-0.1c6.3,0.1,12.7,0.1,19,0.2c19.7,0.3,39.5,0.4,59.2-0.1
			c5.5-0.1,11.1-0.2,16.7-2.4C537.1,679.5,550,673.8,562.9,667.8z M648.5,687.7c6.8,0,13.6-0.1,20.5,0c2.4,0,3.4-1.1,2.9-3.1
			c-1.1-4.7-0.4-9.4-0.3-14.1c0.1-7.1,0.1-14.3,0.3-21.5c0.1-2-0.7-2.2-2.4-2.3c-2.6-0.1-5.1,0.9-7.6,0.7c-8.3-0.7-16.4,1.4-24.7,1
			c-1,0-2.3,0.5-2.2,1.2c0.4,2.2,1.4,4.3-0.7,6.2c0,0,0.6,0.6,0.8,1c0.7,1.5-0.7,3.7-1.9,3c-2-1.1-3.9,0.1-5.7-0.5
			c-2.1-0.7-2.1,0.3-2.1,1.8c0,8,0.1,16,0,24c0,2,0.7,2.6,2.6,2.5C634.9,687.7,641.7,687.7,648.5,687.7z M269.2,446.9
			c0,0,0.1,0,0.1,0c0-8.8,0-17.7,0-26.5c0-1.9-0.5-2.6-2.5-2.5c-3.5,0.1-7,0-10.5,0.1c-0.7,0-1.8-0.5-2.1,0.6
			c-0.2,0.8,0.7,1.2,1.2,1.7c4,3.8,6.5,8.4,6.6,13.8c0.2,13.1,0,26.2,0.1,39.3c0,6.3-0.4,12.7-0.5,19c-0.2,9.9,0,19.8-0.1,29.7
			c-0.1,8.2,0.2,16.5-0.5,24.7c-0.5,5.2,0.1,10.5,0,15.8c-0.3,11.5,0.2,23-0.5,34.4c-0.1,1.3,0,2.7,0.3,4c0.3,1.4-0.2,3-1.1,4.3
			c-1.8,2.4-3.8,4.4-6,6.4c-0.4,0.4-1.2,0.5-0.9,1.4c0.3,0.9,1.1,0.5,1.6,0.5c3.8,0,7.6-0.1,11.3,0.1c2.7,0.2,3.6-1.1,3.5-3.5
			c-0.1-2.7-0.5-5.6-0.3-8.2c0.4-6.2,0.2-12.4,0.3-18.7c0.3-17.1-0.5-34.2,0.5-51.3c0.4-6.7,0.2-13.4,0.1-20.1
			c-0.2-13.8,0.3-27.5-0.6-41.3C268.7,462.7,269.2,454.8,269.2,446.9z M306.9,345.4c11.8,0,23.6,0,35.4,0
			c32.2,0.2,64.5-0.2,96.7,0.2c7.7,0.1,15.3,0.7,23,0.4c2.4-0.1,4.7-0.5,7.1-0.5c13.9,0,27.7-0.1,41.6,0.8c5.7,0.4,11.2,1,16.6,2.5
			c8.4,2.4,16.2,6.3,23.9,10.2c2,1,4.5,1.4,6.2,2.8c1.5,1.3,2.9,1.2,4.5,1.3c0.7,0,1.5,0,1.7-1c0.1-0.8-0.5-1.1-1.1-1.4
			c-5.8-2.3-11.2-5.5-17-7.7c-6.2-2.4-12.1-5.3-18.3-7.7c-2.1-0.8-4.1-2-6.4-2c-9.9,0-19.8-0.3-29.7-0.4c-25-0.4-50,0.1-74.9-0.3
			c-5.8-0.1-11.6,0.1-17.3-0.1c-6.5-0.2-13-0.3-19.6,0.2c-1.5,0.1-2.4,1.4-4.1,1.2c-3.6-0.3-7.2-0.1-10.8-0.1
			c-0.7,0-1.6,0.3-2.1-0.4c-1.3-1.5-2.9-1.3-4.6-1.3c-21.7,0-43.5,0-65.2,0c-32,0-64,0-96,0c-5.3,0-10.7,0.2-16,0.4
			c-12.4,0.5-20,8.8-20,20.2c-0.1,22.5,0.1,45-0.1,67.5c0,5.1,0.6,10.3-0.4,15.3c-0.1,0.8,0.2,1.3,0.8,1.5c0.8,0.2,1.3-0.3,1.2-1.1
			c-0.1-4.5,1.4-8.9,0.2-13.4c-0.5-1.7-0.6-3.8,0.1-5.5c2.4-5.5,1.9-11.3,1.9-17.1c0-6,0-12,0-18c0-0.6-0.1-1.1,0-1.7
			c1.2-7.8,0.6-15.6,0.4-23.4c-0.1-3.6-0.1-6.9,1.3-10.3c2.4-5.8,10.1-11.3,16.4-11.3C223.8,345.4,265.4,345.4,306.9,345.4z
			 M127.4,401.2c-4.3,0-8.7,0-13,0c-2.7,0-5.6,1.7-6,3.6c-0.3,2-0.6,4-0.6,6c-0.2,14.6,0.3,29.2-0.5,43.9c-0.3,5.5-0.1,11-0.1,16.6
			c0,3.5,1.6,5.2,5.1,5.3c1.3,0,2.6-0.1,3.9-0.1c3.6,0.1,7.1-0.1,10.7,0.3c4.9,0.5,9.9,0.7,14.6-1c2.2-0.8,4.1-2.2,4.1-5.4
			c-0.1-8.2-0.3-16.3,0.4-24.5c0.5-6.3,0.2-12.6,0.5-19c0.3-6.9,0.7-13.9-0.9-20.8c-0.7-3-2-4.9-5.1-4.9
			C136,401.2,131.7,401.2,127.4,401.2z M490.6,507.8c-0.4-2,1.1-4.3-2.5-4.3c-13.2,0.1-26.3,0.1-39.5,0c-1.8,0-2.3,0.5-2.4,2.3
			c-0.2,5.9,0,11.7-0.4,17.6c-0.5,7.3,0,14.7,0,22.1c0,1.7,0.6,2.2,2.2,1.4c7-3.4,14.4-5.8,21.2-9.5c6.1-3.3,11.9-3.8,18.3-3.2
			c1.6,0.2,2.8-0.6,3-2.4c0.1-1.8-1.2-1.8-2.4-1.7c-1.9,0-2.7-1-2.5-2.8c0.2-1.8,1.8-2.4,2.9-2c1.8,0.7,2-0.1,2-1.4
			c0-4.6,0-9.1,0-13.9c-2,0.8-3.7,1.5-5.2-0.4c-0.6-0.8-0.6-1.6,0.2-2.5C487.2,505.2,488.8,506.7,490.6,507.8z M113.9,507.8
			c0-6.3,0-12.5,0-18.8c0-0.6,0.3-1.3-0.4-1.7c-0.6-0.3-0.9,0.1-1.1,0.5c-2.7,4.4-7.3,8-6.3,14.2c0.5,3.1,0.1,6.3,0.1,9.4
			c0,11.1-0.8,22.1-1,33.2c-0.3,10.9,0.2,21.7,0,32.6c-0.3,16.2,0.6,32.3-0.5,48.5c-0.5,6.6,0.2,13.3-0.1,19.9
			c-0.1,3.7,0.3,6.8,2.9,9.5c0.9,1,2.1,1.7,2.7,3.1c0.3,0.6,0.8,1.5,1.6,1.3c1-0.2,0.5-1.2,0.5-1.9c0.2-8.2,0.3-16.3,0.6-24.5
			c0.3-8.1-0.3-16.1,0.3-24.2c0.3-3.6-0.2-7.5-0.3-11.2c-0.2-4.4-0.4-8.7,0.4-13.1c0.9-4.6-0.3-9.3-0.1-14
			c0.5-9.9,0.1-19.9,0.2-29.9c0-4.9,0.4-9.9,0.5-14.8C113.9,519.8,113.9,513.8,113.9,507.8z M139.3,659.8c2.1-2,4-4.2,5.4-6.7
			c0.7-1.3,2.6-2.1,2.1-3.9c-0.9-3.2-0.2-6.4-0.3-9.6c-0.3-7.9-0.2-15.8,0.5-23.7c0.4-4.5-1-9-0.4-13.4c0.8-5.8,0-11.6,0.4-17.4
			c0.4-5.3-0.2-10.5,0-15.8c0.3-9-0.1-18-0.4-27c-0.2-4.5,0-9.1,0.3-13.7c0.6-8.8,0.2-17.6,0.2-26.5c0-2.8-0.1-5.5-1.9-8.1
			c-1.2-1.6-2.5-3.1-3.6-4.7c-0.5-0.7-0.9-1.7-1.7-1.5c-1,0.2-0.6,1.4-0.6,2.2c-0.2,17.6,0.5,35.1-0.5,52.7c-0.2,3.8,0,7.5,0,11.3
			c0,34.4,0,68.7,0,103.1C138.8,657.9,138.4,658.8,139.3,659.8z M168.1,587.3c0,5.6,0,11.2,0,16.9c0,0.8-0.3,1.8,0.7,2.2
			c1,0.4,2,0.1,2.7-0.8c1.3-1.6,2.4-3.3,2.6-5.3c0.3-3.9,0.6-7.9,0.6-11.8c0.1-9.9-0.2-19.8,0.1-29.6c0.2-4.9-0.1-9.9,0.2-14.8
			c0.7-10.7,0.2-21.5,0.2-32.3c0-15.4,0-30.8,0-46.2c0-6.1,0.3-12.1,0.5-18.1c0.3-6.7-0.8-13.4-0.5-20.1c0.1-1.8-1.1-3.3-2-4.7
			c-0.6-0.9-1.7-1.1-2.8-0.7c-0.9,0.3-0.8,1.2-0.7,1.9c0.3,3.7-0.6,7.3-0.6,11c-0.2,19.9,0.6,39.9-0.3,59.8c-0.1,1.9-0.7,4-0.2,5.7
			c1.4,5,0.3,10,0.7,15c0.3,4-0.5,8.3-0.6,12.4c-0.4,15.7,0.2,31.4-0.7,47.1C167.9,579,168.1,583.2,168.1,587.3z M623.8,673.3
			c0-2.5,0.1-5,0-7.4c-0.1-2.6,1.3-5.9-2.7-7.1c-0.2-0.1-0.5-1.1-0.8-0.7c-0.6,0.9-1.9,1.2-2,2.5c-0.1,0.8,0.7,0.6,1.2,0.7
			c1.7,0.4,1.8,1.2,0.6,2.4c-0.9,0.9-1.3,1-2.4,0.2c-1.3-0.9-2.2-3.1-4.2-2.4c-6.2,2.3-12.3,4.6-18.3,7.3c-3.7,1.7-6.9,1.7-10.3-0.3
			c-0.4-0.2-0.8-0.5-1.2-0.5c-5.6-0.9-11.2-0.5-16.8-0.6c-1.4,0-1.7,0.5-1.2,1.8c1.6,4,3.1,7.8,6.7,10.8c5.2,4.4,10.9,7,17.8,6.8
			c2.1-0.1,4.3-0.3,6.3,0c8.4,1.2,16.8,0.2,25.2,0.6c1.8,0.1,2.1-0.8,2.1-2.3C623.8,681,623.8,677.2,623.8,673.3z M388.9,622.5
			c0.1,0.9,0,2.7,0.1,4.6c0.5,4.7,1.3,9.3,1.9,14c1,6.6,2.1,13.2,4.1,19.5c0.8,2.5,2.7,1.7,4.3,1.7c1.7,0,2.1-1.2,2.2-2.8
			c0.1-13.7-0.2-27.4,0.4-41.2c0.7-16.2-0.6-32.5,0.1-48.7c0-1.1,0-2.1-0.3-3.2c-0.4-1.2-0.6-2.1-2-1.9c-1.4,0.2-3-0.8-3.9,1.4
			c-1.7,4-2.5,8.3-3.6,12.4c-1.2,4.7-1.7,9.6-2.4,14.4c-0.9,6-0.7,12-1.4,17.9C387.9,614.2,388.6,617.9,388.9,622.5z M402.6,438.4
			C402.6,438.4,402.6,438.4,402.6,438.4c0-6.6,0-13.3,0-19.9c0-8.9,0-17.9,0-26.8c0-1.6-0.6-1.9-2.1-2.1c-2.9-0.3-4,0.9-4.6,3.6
			c-1.1,5.5-2.5,10.9-3.4,16.5c-1.3,7.9-2.6,15.8-2.6,23.8c0,5.3-0.1,10.7,0,16c0.1,2.8,0.3,5.6,0.7,8.4c0.8,5.2,1.5,10.3,2.6,15.4
			c1,4.7,1.9,9.5,3.7,14c0.5,1.4,1.4,1.8,2.7,1.8c1.3,0,2.1-0.6,2.5-2c0.3-1.3,0.5-2.5,0.5-3.8C402.6,468.4,402.6,453.4,402.6,438.4
			z M823.8,680C823.8,680,823.8,680,823.8,680c5.5,0,11.1-0.3,16.6,0.1c3.9,0.3,7.9,0.5,11.8,0.3c4.3-0.2,5.1,0,5-5
			c0-6.4-0.1-12.7,0-19.1c0.1-4,0.3-4.1-3.7-4c-7.6,0.3-15.1-0.4-22.7-0.2c-2.5,0.1-3.7,0.4-4.1,2.7c-0.5,2.8-1.4,5.4-2.7,7.9
			c-2.9,5.6-6.7,10.6-11.3,14.9c-0.5,0.5-1.5,0.9-1.2,1.7c0.4,1,1.4,0.5,2.2,0.6C817.1,680,820.5,680,823.8,680z M844.5,385.2
			c4.4,0,8.8,0,13.3,0c0.8,0,2,0.3,2.2-1.1c0.2-1.4,0.6-2.9,0.6-4.3c0.1-6.1,0-12.1,0-18.2c0-3.8-0.2-4.1-4-4.1c-9,0-18-0.1-27.1,0
			c-3.8,0-7.6,0.3-11.3,0.5c-0.6,0-1.5-0.2-1.6,0.6c-0.1,0.5,0.5,1.1,0.9,1.6c1.9,2.2,3.5,4.7,5,7.1c2.8,4.6,5.2,9.4,6.2,14.7
			c0.4,2.1,1.5,3.2,4,3.1C836.6,385,840.5,385.2,844.5,385.2z M475.1,444.3c-0.2,3.8,0.6,7.4,1,11.1c0.7,6.4,4,11.7,6.3,17.4
			c0.6,1.4,2,2,3.6,2c1.4,0,2.4-1,2.7-2c1.7-5.7,4.8-10.9,6.6-16.5c0.9-3,2.3-6.2,0.3-9.1c-3.2-4.8-2.2-9.7-1.1-14.8
			c0.4-1.8,0.7-3.6-0.1-5.3c-2.7-5.3-5.5-10.6-8.2-15.9c-0.3-0.6-0.4-1.7-1.2-1.7c-0.9,0-1.2,1-1.6,1.7
			C478,421.5,475.3,432.6,475.1,444.3z M521.6,441.6c-2,0-3.6-0.1-5.3,0c-1.3,0.1-3.2,0-3.5,1.4c-1,4.6-4.7,6.7-8.2,8.9
			c-1.2,0.7-1.3,1.5-1.3,2.7c0,6.6,0.1,13.3,0,19.9c-0.1,3.2,0.1,6.3-0.3,9.5c-0.5,4.1,1,4.4,4.3,3.5c7.8-2.1,12.1-7.9,15.9-14.3
			c4.8-7.9,6.6-16.9,8.3-25.8c0.5-2.6-1.1-4.7-3.6-5.5C525.6,441.2,523.4,442,521.6,441.6z M569.1,428.1c0-16.9,0-33.7,0-50.6
			c0-2.2-0.6-2.9-2.8-2.9c-8.2,0.1-16.4,0-24.6,0c-0.6,0-1.1,0-1.6,0.1c-0.5,0.1-0.8,0.5-0.8,1c0,0.5,0.3,1.1,0.7,1
			c2.1-0.2,4.1,1,6.2,0.5c3.1-0.7,6.3-0.6,9.3-0.1c2.6,0.4,4.9-0.2,7.4-0.2c3,0,3.9,0.4,3.9,3.6c0,14.6,0,29.1,0,43.7
			c0,7.7,0.5,15.4-0.3,23c-0.6,5.5,0.2,10.9,0,16.3c-0.2,4.5-0.1,9-0.2,13.6c-0.2,11.3-0.3,22.7,0.2,34c0.1,2.9-0.9,2.5-2.6,2.5
			c-7.8,0-15.6,0-23.5,0c-1.7,0-2.5,0.3-2.5,2.3c0,2,1,2.2,2.6,2.2c7.4,0,14.7,0,22.1,0c3.3,0,3.6,0.3,3.6,3.6
			c-0.3,19.7,0.3,39.3-0.4,59c-0.7,18,0.3,36-0.4,54.1c-0.2,6-0.1,11.9-0.2,17.9c0,0.8,0.4,1.9-1.2,2c-2.6,0.1-5.4,0.8-7.9,0.4
			c-5.8-0.8-11.5,0.6-17.2,0.1c-0.9-0.1-1.8,0-1.8,1.2c0,1.3,1.1,1,1.9,1c8.8,0,17.7,0,26.5,0c1.7,0,2.1-0.9,2.1-2.2
			c0.2-3.6,0.3-7.1,0.3-10.7c0.4-26.9-0.3-53.7,0.5-80.6c0.8-28.3-0.4-56.7,0.5-85C569.5,462,569.1,445,569.1,428.1z M502.7,410.7
			C502.7,410.7,502.7,410.7,502.7,410.7c0,4.8,0.1,9.5,0,14.3c0,1.1,0.2,1.9,1.3,2.4c3.3,1.4,5.7,3.8,7.2,7.1
			c0.8,1.8,2.1,2.4,4.1,2.3c3.4-0.2,6.8,0,10.2-0.1c3.1,0,4.2-1.1,4.1-4.3c0-4-1.2-7.7-2-11.6c-1.3-6.1-4-11.6-6.5-17.1
			c-3.2-7.2-9.2-10.7-15.6-10.2c-2.3,0.2-3.1,1.1-3.1,3.2C502.7,401.3,502.7,406,502.7,410.7z M317.4,602.4c0,2.9,0.1,5.7,0,8.6
			c-0.1,2,0.5,2.7,2.6,2.7c2.1,0,2.4-0.8,2.4-2.6c-0.1-9.8-0.1-19.5-0.1-29.3c0-17.6,0-35.2,0-52.8c0-1.4,1.1-2.7,0.6-4
			c-1.5-3.3-0.2-6.9-0.7-10.3c-0.5-3.4,0-7.3,0-10.9c0.1-21.9,0-43.8,0.1-65.7c0-6.1-0.1-12.2,0.3-18.2c0.1-1.8-0.5-1.9-1.6-2
			c-1.1-0.1-2.7-0.4-2.5,1.5c0.3,3-0.6,5.8-0.6,8.7c0.1,10,0.2,20,0.1,30.1c0,20.7,0,41.5-0.1,62.2c-0.2,21.2,0.6,42.5-0.5,63.7
			C317.2,590.2,317.4,596.3,317.4,602.4z M625.5,378.9c0.1-0.7-0.2-0.8-0.5-1c-2.8-1.7-2.8-1.7-0.5-3.9c0.5-0.4,0.5-0.9,0.5-1.5
			c0-9,0-18,0-27c0-1.7-1.1-2.4-2.8-2.2c-0.5,0.1-0.9,0.4-1.5,0.4c-8.8-0.7-17.5-0.6-26.3,0.1c-1.1,0.1-1.2,0.8-1.5,1.6
			c-1.1,3.2-0.7,6.5-0.8,9.8c-0.1,2.6-0.9,5.9,2.8,7.7c4.6,2.1,8.9,4.8,13.3,7.4c3.7,2.2,8,3.6,10.9,7.3
			C620.6,379.4,623.1,379.5,625.5,378.9z M175.7,350.2c9,0.3,17.3,0.6,25.5,0.7c7.2,0.1,14.4,0,21.6,0c4.3,0,7.3,2.9,7.2,7.2
			c-0.1,14.7,0.3,29.4-0.5,44.2c-0.4,6.5-3,9.5-9.6,9.5c-17,0-33.9,0-50.9-0.1c-2.1,0-3,0.9-3.1,2.6c-0.2,2,1.5,2,2.9,1.9
			c5.6-0.7,11.1,0.3,16.7,0.3c11,0,22.1,0.1,33.2,0.3c4.4,0,8.8,0,13.2-0.4c2.3-0.2,3.1-0.6,3.1-3.1c-0.1-20.9-0.1-41.8,0-62.8
			c0-2.6-0.7-3.6-3.4-3.4c-9.6,0.5-19.3,0-28.9,0.4c-5.8,0.2-11.7-0.2-17.5-0.2C182,347.1,178.8,347.4,175.7,350.2z M170.3,676
			c3.1,3.2,6.9,4.5,10.9,4.6c16.5,0.1,33,0,49.5,0.1c2.3,0,2.9-1.1,3.2-2.8c0.1-0.8,0-1.7,0-2.5c0-18.8,0-37.6-0.1-56.4
			c0-3.8-0.3-4.2-4.1-4.2c-3.6,0-7.2,0.1-10.8,0.1c-16.8-0.1-33.6-0.1-50.4-0.7c-1.7-0.1-3.3,0.1-3.2,2.4c0.1,2.4,2,1.5,3.1,1.5
			c17.3,0,34.6-0.1,51.9,0.5c4.5,0.2,9.4,4.1,9.2,9.4c-0.1,3.5-0.5,7-0.5,10.4c-0.1,10.1,0,20.1-0.1,30.2c0,4.9-3.2,7.1-7,7.1
			c-9-0.1-18-0.6-27-0.1C186.8,676,178.7,674.5,170.3,676z M357.2,624.8c0.3,9.6,1.8,18.9,3.6,28.2c0.8,4.1,2.2,8,3.3,11.9
			c0.6,2.2,2.5,2.2,4,1.6c1.7-0.7,4.1-1.7,3.4-3.9c-1.2-3.8-1.8-7.7-2.7-11.5c-2.5-10.7-3.4-21.5-3.7-32.4
			c-0.1-5.3,0.2-10.6,0.5-15.9c0.4-6.8,1.3-13.5,2.6-20.2c1.3-6.8,2.8-13.6,4.9-20.2c0.7-2.3-1.6-2.4-3-3c-1.4-0.6-2.8-0.5-3.1,1
			c-0.9,4.4-3.1,8.3-4.2,12.6c-1.8,6.7-2.7,13.5-4,20.2c-1.4,7.7-1.7,15.4-2.1,23.1C356.5,619.2,357.7,622,357.2,624.8z
			 M369.6,494.7c2.6-0.1,5.3-2.7,4.5-4.4c-0.8-1.8-1-3.6-1.6-5.4c-2.6-8.7-3.6-17.7-4.8-26.7c-0.9-6.9-0.4-13.9-0.5-20.9
			c-0.1-7.8,0.2-15.6,1.2-23.3c1.2-9.2,3-18.3,6.5-27c0.8-2,0.4-3.4-1.7-4c-2-0.6-3,0.6-3.6,2.4c-2.2,6.4-4.1,12.9-5.7,19.5
			c-2.2,9.4-3.9,18.9-4,28.6c0,3.9-0.3,7.8-0.2,11.7c0.2,5.1,0.5,10.3,0.8,15.4c0.2,3.1,1.1,6.2,1.4,9.4c0.3,3.8,1.7,7.4,2.3,11.1
			c0.7,4.1,2.1,7.9,3,11.9C367.5,494.2,368.4,494.9,369.6,494.7z M504.5,450.2c-4.5-1.7-5.5-1.1-6.2,3c-0.1,0.6-0.3,1.2-0.5,1.8
			c-2.3,6-5.3,11.8-7.3,18c-0.6,1.8-1.9,3.3-3.9,3.5c-2.2,0.2-4.1-0.6-5.3-2.6c-1.4-2.2-2.4-4.6-3.4-7c-5.6-12.3-5.2-25.1-2.7-37.9
			c1.3-6.7,3.6-13.1,6.9-19c0.7-1.3,1.2-3.1,3.1-3c1.8,0.1,2.4,1.6,2.9,3c1.3,3.4,3.2,6.5,4.5,9.9c1.3,3.4,4.3,6.1,4.2,10.1
			c0,0.8,0.9,1,1.5,0.5c0.7-0.6,1.8-0.6,2.3-1.9c-2.7-0.9-3.4-3.4-4.5-5.7c-2.4-4.9-4.9-9.7-7.2-14.6c-1.2-2.7-1.4-5.8,0.2-8.2
			c1.8-2.7,4.3-5.3,7.4-6.4c11.7-4.2,21.7-2.1,27,10.1c2.5,5.8,5.1,11.6,6.4,17.8c0.2,0.9,0.7,1.2,1.5,1.2c0.9,0,1.1-0.6,1.1-1.3
			c0-1.3,0.2-2.6-0.4-4c-2.1-5.6-4.3-11.1-7.2-16.4c-4.5-8.3-10.5-13.8-20.5-13.1c-4.6,0.3-8.9,2-12,5.3c-3.7,3.9-7.4,8-10.3,12.8
			c-3,5.1-5.9,10.2-7.7,15.9c-2.7,8.8-4.1,17.8-3.3,27c0.5,6.1,1.8,12,4.2,17.5c2.5,5.8,5.9,11.2,10,16.1c3.2,3.9,7.3,6.9,11.6,9.3
			c4.1,2.4,9.1,1.6,13.4-0.2c3.4-1.4,6.1-3.8,8.7-6.6c6.1-6.7,10.5-14.2,13.3-22.7c0.8-2.4,0.3-4.9-0.2-7.3
			c-1.9,6.2-4.1,12.1-6.8,17.9c-3.6,7.9-9.1,13.8-17.7,16.1c-1.6,0.5-3.4,0.6-5,1.3c-2.7,1.1-4.1-1.5-6.1-2.3
			c-6.5-2.6-6.9-8.8-4.6-13.6c2.8-5.8,4.9-12,6.7-18.2C499.7,453,499.6,449.7,504.5,450.2z M502.2,527.2c0,4.3,0,7.7,0,11.1
			c0,3.4,1.7,5.6,4.8,6.7c2.7,0.9,5.4,0.3,8.1,0.5c1.1,0.1,1.5-0.3,0.7-1.5c-0.9-1.4-1.9-2.8-1.7-4.8c0.4-3.4,2.3-6,5.3-6.9
			c3-0.9,6,0.1,8.1,2.9c1,1.3,2.3,0.9,3.5,0.8c1.1-0.1,0.8-1.2,0.8-2c0-7.6,0-15.1,0.1-22.7c0-1.9-0.7-2.4-2.5-2.3
			c-2.8,0.1-5.5,0.2-8.3,0c-1.9-0.1-2.9,0.4-4,2.1c-1.8,2.9-6.6,3.8-9.5,2.2c-3-1.7-4.9-6.3-3.4-9.1c1.5-2.9,4.3-4.5,7.4-5
			c2.8-0.4,5.1,1.1,6.7,3.4c0.6,0.8,0.9,1.9,2.1,1.9c3.1,0.1,6.3,0.2,9.4,0.1c1.9-0.1,2.7-2.2,1.5-3.6c-1.3-1.4-2.9-2.8-4.8-2.9
			c-4.9-0.2-10-1.4-14.8-0.5c-6.3,1.2-9.3,2-9.1,9.6c0.1,2.6,0.2,5.3-0.2,7.8C502,519.4,502.5,523.7,502.2,527.2z M845.1,599.4
			c0,7.6,0,7.6,7.7,7.6c3.2,0,6.3,0.1,9.2,1.7c4.3,2.4,8.8,4.6,13.2,6.8c3.6,1.8,4.4,1.3,5-2.5c0.3-1.5-0.3-1.9-1.4-2.1
			c-1.6-0.3-1.7-1.3-1.7-2.6c0.1-4.2,0.1-8.5,0-12.7c-0.1-2-1.1-4.1,2.2-4.2c0.5,0,0.4-0.7,0.6-1.1c0.8-1.4,0.2-2.8,0.1-4.2
			c-0.3-2.6-1.3-3.3-3.7-2.3c-2,0.9-3.9,2-5.8,3c-5.7,2.9-11.2,6.2-18.2,5.5C845.1,591.6,845.1,592.1,845.1,599.4z M793.1,343.7
			c0,1,0.4,1,0.7,1.1c6.5,2.3,12.8,4.9,17.8,9.9c1.2,1.2,2.8,1.8,4.7,1.7c6.1-0.1,12.3-0.6,18.4-0.4c7.4,0.2,14.7,0,22.1,0.4
			c0.8,0,1.6,0,1.9-0.8c0.4-0.8-0.4-1.1-0.8-1.6c-3.1-3.2-6.7-5.7-9.5-9.1c-0.3-0.4-0.9-0.7-1.4-0.7c-5.4-0.2-10.9-0.8-16.3-0.5
			c-3.8,0.2-7.4,0-11.1-0.1C810.8,343.6,802,343.7,793.1,343.7z M128.7,371.4c-2.9,0-5.7,0.1-8.6,0c-1.9-0.1-3.7,0-5.4,0.7
			c-2.7,1.1-6.2,2.2-6.3,5.7c-0.4,7.3-0.1,14.5-0.1,21.8c0,1.4,0.6,1.7,1.7,1c1.7-1.1,3.5-1,5.3-1c6.1,0,12.2,0,18.2,0
			c0.8,0,1.7,0.1,2.5-0.2c2.9-0.8,5.6-0.2,8.2,0.9c1.8,0.8,2.3,0.5,2.4-1.6c0.1-6.5-0.7-13-0.5-19.5c0.1-3.5-1.2-5.5-4-6.9
			c-1.2-0.6-2.3-1-3.7-0.9C135.2,371.4,131.9,371.4,128.7,371.4z M877.4,453.9c0.9-0.3,2.4,0.4,2.4-1.2c0.1-1.3,0.9-2.9-1.5-3.5
			c-1.6-0.4-2.4-1.6-2.4-3.5c0.1-4.4,0.1-8.8,0-13.2c0-1.6,0.5-2.6,1.9-2.8c2.6-0.3,2.7-2.1,2.5-4c-0.1-0.8-0.7-1.7-0.4-2.4
			c1-2.9-1-2.2-2.3-2c-3.8,0.5-6.5,3.3-9.8,4.9c-4.5,2.2-8.5,6.2-14.2,5.1c-1-0.2-2-0.2-3-0.3c-3.7-0.7-5.1,0.4-5.1,4
			c0,2.2,0.3,4.5-0.1,6.6c-0.4,2.3,0.7,2.9,2.5,2.8c2.5-0.1,5.1,0.3,7.6-0.4c1.4-0.4,3.1-0.4,4.5,0.5c3,1.8,5.9,3.9,9,5.4
			C871.9,451.2,874.2,453.6,877.4,453.9z M431.4,532.3c0,4.7,0.1,9.4,0,14.1c0,1.9,0.5,2.7,2.5,2.6c2.4-0.1,4.8-0.2,7.2,0
			c2.4,0.2,3.2-0.5,3.1-3c-0.2-7.1-0.1-14.2-0.2-21.3c0-2.6,1.1-5.1,0.2-7.8c-0.2-0.8-1.5-1.1-1-2c1.8-3.1,0.7-6.4,1-9.6
			c0.1-1.3-0.7-1.7-1.9-1.7c-2.9,0.1-5.7,0.1-8.6,0c-1.3,0-1.8,0.5-1.8,1.8c-0.1,5.9-0.4,11.9-0.5,17.8
			C431.3,526.2,431.4,529.2,431.4,532.3z M147,458.4c0,4.7,0,8.6,0,12.5c0,1.7-0.1,3.3-1.5,4.5c-0.4,0.4-1,1-0.3,1.3
			c1.4,0.7,3.1,0.3,4.6,0.2c1.3,0,1-1.3,1-2.2c0-6,0.1-12-0.1-17.9c0-1.6,0.4-3.1,0.3-4.8c-0.4-4.2,0.2-8.5,0.2-12.7
			c0.1-11.6,0.3-23.2-0.1-34.8c-0.2-5.6-0.6-11.2-0.1-16.8c0.4-4.9-0.6-9.7-0.3-14.6c0.1-1.5-1.3-2-2.6-1.7c-1.1,0.2-1.7,1-1,2.3
			c0.2,0.5,0.3,1.1,0.3,1.6c-0.3,7,0.9,13.9,0.6,20.9c-0.1,3.1-0.1,6.1-0.1,9.2c-0.1,3.6-0.4,7.1-0.4,10.7c0,9.4,0.4,18.9-0.2,28.3
			C147.1,449.4,147.4,454.4,147,458.4z M853.4,682.5c-1-1.2-2.3-0.8-3.4-0.8c-13.2,0-26.5,0-39.7,0c-1.4,0-2.5,0.3-3.8,1.1
			c-3,2-6.2,3.5-9.5,4.9c-0.7,0.3-2.1,0-1.9,1.1c0.1,1.3,1.5,0.7,2.3,0.7c15,0,30,0,45,0c0.9,0,1.7,0.1,2.6-0.6
			C847.6,686.7,850.5,684.6,853.4,682.5z M575.4,363.1c2.6,0,5.2,0.1,7.7,0c3.4-0.1,5.4-1.3,5.7-4.2c0.5-4.5,0.5-9.1,0.7-13.7
			c0-0.8-0.3-1.2-1.2-1.5c-3.8-1.1-6.9,0.1-10.2,1.9c-6.2,3.3-9.8,8.4-12,14.8c-0.7,1.9-0.3,2.8,1.8,2.7
			C570.4,363,572.9,363.1,575.4,363.1z M159.7,571.2c2-2.3,2.3-4.9,2.3-7.4c0.1-17.4,0-34.8-0.1-52.3c0-6,0.1-12,0-17.9
			c-0.1-10.5,1-20.9,0.6-31.4c-0.1-1.5,0-3.8-1.7-3.8c-2.1,0.1-1,2.4-1,3.6c-0.5,19.1,0.8,38.2-0.5,57.3c-0.3,4.7,0.2,9.4,0,14.2
			c-0.5,11.7-0.2,23.4-0.2,35.1C159.2,569.4,159,570.2,159.7,571.2z M501.1,410.4c0-3.8,0.1-7.5,0-11.3c0-1.6,0.9-3.9-0.5-4.6
			c-1.5-0.8-3.4,0.8-4.9,1.7c-5.3,3.2-6.9,7.1-4.8,12.1c1.6,3.7,3.4,7.4,5.3,10.9c1,1.9,1.5,4.1,3,5.7c0.4,0.4,0.8,1.2,1.5,1
			c0.8-0.2,0.5-1.1,0.5-1.7C501.1,419.6,501,415,501.1,410.4z M363.8,385.3c-2,4.7-4.4,9.3-5.5,14.3c-1.3,6-2.5,12.1-3.6,18.2
			c-0.9,5.3-1.8,10.6-1.9,15.9c-0.2,11.1-0.2,22.1,1.5,33.1c1.3,8.5,2.6,16.9,5.6,25c0.3,0.8,0.3,2.1,1.5,1.7c1.4-0.5,0.2-1.7,0-2.3
			c-1.4-6.2-3.3-12.3-4.3-18.6c-1-6.3-1.5-12.6-2.3-18.9c-1.1-8.5-0.2-16.8,0.3-25.2c0.3-6.1,1.6-12.2,2.7-18.3
			c1-5.7,2.2-11.4,4.1-16.9C362.7,390.7,364.1,388.2,363.8,385.3z M843.7,386.8c-3.7,0-7.4,0-11,0c-1.8,0-3.1,0.1-2.1,2.6
			c0.6,1.6,0.6,3.4,0.7,5.1c0.1,1.1,0.5,1.7,1.7,1.7c4.2,0,8.5,0,12.7,0c0.5,0,1.1-0.3,1.5-0.6c2.9-2.1,5.9-4.3,8.7-6.5
			c0.5-0.4,1.6-0.6,1.2-1.6c-0.3-0.8-1.2-0.6-2-0.6C851.3,386.8,847.5,386.8,843.7,386.8z M186.3,694.2c-1.1,0-1.3,0.8-1.7,1.2
			c-4,3.7-5.7,3.8-10.2,0.7c-2.7-1.8-5.1-4.2-8.2-5.3c-4.5-1.5-8-4.4-10.8-8.3c-1.4-1.9-2.7-3.8-4.8-5.3c-5.9-4.2-8.4-8.2-2.2-14.1
			c1.4-1.3,1.6-2.7,1.5-4.4c0-0.5-0.1-1-0.6-1.1c-0.5-0.1-0.7,0.4-1,0.7c-1.9,2.3-3.7,4.7-5.6,7c-2.6,3.1-2.1,8.6,1.1,11.1
			c9.4,7,18.5,14.2,27.4,21.8C177.2,703.4,182.1,701.5,186.3,694.2z M357.6,664.9c1-0.9,0.7-1.4,0.6-1.9c-1.1-4.1-2.3-8.1-3.1-12.3
			c-1.6-7.7-2.4-15.6-2.7-23.5c-0.4-10.4-0.5-20.9,1.2-31.3c1.8-11.1,3.4-22.2,7.3-32.9c0.3-0.8,0.6-1.9-0.2-2.2
			c-1-0.3-1.5,0.7-1.8,1.6c-0.1,0.3-0.3,0.5-0.4,0.7c-5.1,14.5-7.4,29.6-7.9,44.9c-0.2,5.8,0.1,11.6-0.1,17.4
			c-0.1,3.5,0.4,6.9,0.8,10.4c0.7,5.6,1.7,11.2,3.1,16.7C355.5,656.6,356.5,660.6,357.6,664.9z M841.2,650.7c3.7,0,7.4,0,11,0
			c0.7,0,1.7,0.4,2-0.5c0.3-0.9-0.7-1.5-1.3-1.8c-1.9-1.1-3.2-2.7-4.6-4.2c-1.2-1.3-2.4-1.6-4.1-1.7c-4.4-0.1-8.9,0.1-13.3-0.6
			c-1.6-0.2-2.4,0.3-2.4,2.1c0,1.7,0.2,3.4-0.4,5.1c-0.5,1.4,0.7,1.6,1.8,1.6C833.7,650.7,837.4,650.7,841.2,650.7z M164.7,458.8
			c-0.5,7.3-0.9,14.6-1,21.8c-0.3,11.5-0.1,23-0.1,34.6c0,8.4,0.3,16.8-0.2,25.2c-0.5,8.6-0.2,17.3-0.4,25.9c0,0.9,0.1,1.8,1.9,2.2
			C165.4,531.8,165.3,495.3,164.7,458.8z M501.6,456.4c-0.3-0.1-0.6-0.1-0.9-0.2c-1.8,6.1-4.6,11.8-6.9,17.7
			c-0.9,2.2-1.2,4.6-1.4,6.8c-0.3,2.6,4.7,6.7,7.4,6.8c1.8,0.1,1.8-0.9,1.8-2.3c0-8.1,0-16.2,0-24.3
			C501.6,459.5,501.6,458,501.6,456.4z M145.3,355.6c-0.2,1.9,1.6,3.9,3.6,5.7c0.4,0.4,0.8,1.5,1.6,0.8c0.7-0.7,0-1.3-0.5-1.8
			c-4-4-2.1-9.9,1.7-12.4c1.9-1.2,3.6-2.8,5.3-4.6c1.6-1.7,3.4-3.2,5.3-4.6c3.5-2.6,7.9-3.4,11-6.9c3.3-3.8,8.2-3.2,11.2,0.9
			c0.4,0.6,1,1,1.6,1.4c0.5,0.4,1.1,0.4,1.5,0c0.6-0.6-0.1-0.9-0.4-1.3c-0.8-1.1-1.8-2.1-2.5-3.2c-3.4-5.8-9.1-4.8-12.9-1.3
			c-6.9,6.5-14.6,12-21.8,18.3C147.6,348.6,145.4,351,145.3,355.6z M150.9,494c0-3.5,0-7,0-10.5c0-1.1,0.1-2.2-1.4-2
			c-3,0.3-5.8-0.4-8.7-0.6c-4-0.3-8,0.6-12-0.1c-0.5-0.1-1.2-0.1-1.2,0.7c0,0.6,0.6,0.6,1.1,0.6c0.5,0,1.1-0.2,1.6-0.2
			c3.8,0.4,8.3-1.2,10.9,3.3c0.4,0.6,0.8,1.2,1.2,1.8c1.6,2.3,2.9,4.9,4.8,6.8c1.2,1.1,1.5,2,1.5,3.4c0,5,0.1,9.9,0.1,14.9
			c0,0.7-0.3,1.7,0.6,1.9c0.9,0.1,1.3-0.9,1.4-1.7c0.1-0.7,0.1-1.5,0.1-2.2C150.9,504.7,150.9,499.3,150.9,494z M775.4,374.6
			c0-2,0.1-4.1,0-6.1c-0.1-1.8,1-4.3-0.6-5.1c-1.6-0.9-2.9,1.8-4.6,2.4c-0.3,0.1-0.6,0.4-0.8,0.7c-4.3,6.7-4.3,14,3.2,18.8
			c2,1.3,2.8,1,2.8-1.4C775.5,380.9,775.4,377.8,775.4,374.6z M896.5,402.3c-1.4,0.9-1.1,1.9-1.1,2.9c0,7,0.2,14,0.1,21
			c-0.2,13.4-0.3,26.8-0.5,40.2c-0.1,9.3,0.3,18.7,0.4,28c0,6.6-0.1,13.2-0.5,19.7c-0.1,0.7-0.3,1.9,0.9,1.9
			c0.9-0.1,0.7-1.1,0.7-1.8c0.1-15.6-0.2-31.1,0.5-46.7c0.2-5.5-0.4-11-0.5-16.6c-0.1-12.2,0-24.5,0-36.7
			C896.5,410.3,896.5,406.3,896.5,402.3z M895.2,627.5c1.1-0.8,0.8-1.7,0.8-2.4c0.2-23.3-0.4-46.5,0.5-69.8
			c0.4-11.2,0.1-22.5,0-33.7c0-1.1,0.7-3.3-0.8-3.3c-1.5,0-0.8,2.1-0.8,3.3c0,33.6,0,67.3,0,100.9
			C894.9,624,894.3,625.7,895.2,627.5z M419.8,340.9C419.8,340.9,419.8,340.9,419.8,340.9c1.4-0.1,2.8,0,4.1-0.1
			c0.5,0,1.2,0.2,1.3-0.6c0.1-1-0.7-0.9-1.3-0.9c-2.5,0-5-0.2-7.4,0c-2.7,0.2-4.1-0.7-4.5-3.5c-0.2-1.3-0.6-2.6-2.5-2.6
			c-9.6-0.1-19.2-0.3-28.8-0.6c-1.5,0-2.6,0.3-2.6,2c0,2.1,1.6,1.3,2.6,1.3c8.8,0,17.7,0,26.5-0.1c2.2,0,4.2,0.6,5,2.7
			c0.7,2,2.2,2.2,3.8,2.4C417.2,341,418.5,340.9,419.8,340.9z M388.3,687.8c-4.5,0-7.9,0-11.3,0c-1.1,0-2.1,0.2-2,1.6
			c0,1.2,0.5,2.2,1.9,2.2c1.1,0.1,2.2,0,3.3,0c2.8-0.1,5.6-0.8,8.2-0.4c5.5,0.8,11,0.2,16.5,0.4c1,0,2-0.3,2.9-0.6
			c0.7-0.3,1.5-0.8,1.4-1.8c-0.2-1-1.1-0.8-1.8-0.8C400.6,688.4,393.9,687.3,388.3,687.8z M423.1,689.1c0-0.3,0-0.5,0-0.8
			c-3.2,0-6.3-0.1-9.5,0c-1.3,0-2.4,0.7-2.9,2.1c-0.8,2.1-2.4,3-4.7,2.9c-8.5-0.5-17.1,0.8-25.6-0.6c-3.6-0.6-5.6,2.6-9.1,2.6
			c0.6,0.5,0.8,0.7,1,0.7c7.8,0,15.5,0.4,23.3-0.1c3.5-0.2,6.9-0.4,10.4-0.3c2.4,0.1,4-0.9,5-2.7c0.9-1.6,2.2-2.2,3.7-2.9
			C417.3,688.9,420.3,689.8,423.1,689.1z M615.6,652.5c-0.1-0.2-0.2-0.4-0.2-0.6c-6.5,0.9-13,1.8-19.5,2.7c-2.9,0.4-5.9,1-8.7,1.7
			c-0.7,0.2-2.9,0.1-1.6,2.1c1.2,1.9,5.4,3.5,7.6,2.7c4.6-1.6,9.1-3.3,13.6-5.1C609.8,655,612.7,653.7,615.6,652.5z M148.2,552.2
			c0.3,5-0.7,11.7,0.4,18.3c0.1,0.8-0.7,2.1,0.8,2c1.3,0,0.9-1.4,0.9-2.2c0-15,0-30,0-45c0-2.6,1-5,0.6-7.6c-0.1-0.8,0-1.9-1.1-1.8
			c-1,0-1,1-1.1,1.9c-0.1,5.4,0.1,10.8-0.4,16.2C147.8,539.4,148.2,545,148.2,552.2z M508.8,439.8c0.6-1.8-0.5-3.8-1.3-5.6
			c-1.1-2.4-3.3-3.5-6.1-3.1c-2.3,0.3-4.5,1.2-5.2,3.7c-1.1,3.5-0.8,6.9,0.8,10.3c0.5,1,1,1.7,2.2,2.2
			C504.4,449,508.8,445.8,508.8,439.8z M785.4,375.4c0-2.7-0.1-5.3,0-8c0.1-2-0.6-2.7-2.7-2.8c-2.1,0-2.4,0.9-2.4,2.7
			c0.1,5.4-0.3,10.8-0.1,16.3c0.1,1.8,0.4,2.7,2.1,2.7c1.7,0,3.1-0.4,3-2.6C785.3,380.9,785.4,378.2,785.4,375.4z M516.5,540.2
			c0,3.1,2.2,5.2,5.2,5.2c3.1,0,5.9-2.6,5.8-5.6c-0.1-4.7-1.7-6-5.2-5.9C518.3,534.1,516.6,535.9,516.5,540.2z M393.7,337.6
			c-4.6,0-9.2,0-13.8,0c-1.2,0-2.2,0-2.2,1.7c0.1,1.6,1.1,1.9,2.3,1.6c4.7-1.2,9.3,0.2,13.9,0.1c1.6,0,3.1-0.5,4.8-0.2
			c3.3,0.5,6.8,0.2,10.2,0.2c0.6,0,1.1-0.2,1.3-0.8c0.2-0.7,0-1.2-0.4-1.7c-0.8-0.9-1.8-0.7-2.8-0.8
			C402.5,337.6,398.1,337.6,393.7,337.6z M369.8,334.9c-1.5,0-2.9,0-4.4,0c-1.3,0-2.2,0.7-2.1,2c0.2,1.5-1,3.9,0.9,4.4
			c3,0.8,6.2,1.2,9.5,0.5c1.7-0.4,2.4-1.1,2.4-2.9c-0.1-3.9-0.1-4-4-4C371.3,334.9,370.6,334.9,369.8,334.9z M506.6,506.5
			c0,2.5,3,5.9,5.2,5.9c2.2,0,4.6-2.7,4.7-5.4c0.1-3.2-1.9-5.7-4.7-5.7C508.9,501.4,506.6,503.7,506.6,506.5z M358.1,426.2
			c-4,11.8,0.6,57.6,6.2,63.9C358.6,469.1,356.3,447.9,358.1,426.2z M367.7,686.1c-4.8,0-4.8,0-4.9,4.9c0,0.1,0,0.2,0,0.3
			c-0.6,1.8,0.5,2,1.9,2c2.2,0.1,4.4-0.6,6.7-0.1c1.1,0.2,2.2-0.4,1.7-2c-0.2-0.6-0.4-1.3-0.2-1.9c0.8-2.7-0.4-3.5-2.9-3.3
			C369.2,686.1,368.4,686.1,367.7,686.1z M843.4,599.8c0-1.3-0.1-2.6,0-3.9c0.1-1.9-0.9-2.3-2.5-2.3c-1.7,0.1-3.5-0.2-3.6,2.3
			c0,2.3,0.3,4.6,0,6.9c-0.4,2.9,1,3,3.3,3c2.3,0,3.1-0.8,2.8-3C843.3,601.9,843.4,600.8,843.4,599.8z M606.4,378.5
			c0.3-0.1,1.2,0.5,1.4-0.5c0.1-0.7-0.6-0.8-1.1-1c-4.5-2.4-9-4.8-13.5-7.2c-1.1-0.6-1.4-0.1-1.5,1c-0.1,1.9,2.7,5.3,5.4,5.9
			C600.1,377.4,603.2,377.9,606.4,378.5z M837.9,437.2c0.1,5.4-0.6,4.9,3.2,5c1.8,0,3-0.2,2.5-2.6c-0.1-0.7,0-2,0.1-3
			c0.2-1.5,0.6-3.6-2-3.8c-3.6-0.3-3.8-0.1-3.8,3.1C837.9,436.3,837.9,436.8,837.9,437.2z M532,432.4c-1.1,5.5-4.5,6.1-8.5,5.9
			c-2.8-0.1-5.7,0-8.6,0c-0.7,0-1.5-0.2-2,0.5c-0.3,0.5-0.1,0.9,0.2,1.2c0.6,0.6,1.3,0.2,2,0.1c3.5-0.2,7-0.3,10.5-0.1
			c2.3,0.1,5.6,1.8,6.5,0.9c1.5-1.6,0.4-4.7,0.5-7.1C532.5,433.7,532.4,433.5,532,432.4z M778.7,374.7c0-3.9,0-7.7,0-11.6
			c0-0.8,0.2-2-0.8-2.1c-1.3-0.1-0.8,1.2-0.8,1.9c0,7.7,0,15.5,0,23.2c0,0.8-0.3,2.1,0.7,2.1c1.2,0,0.9-1.3,0.9-2.2
			C778.7,382.3,778.7,378.5,778.7,374.7z M347.2,687.8c-0.2,0.3-0.3,0.6-0.5,0.9c1.8,0,2.9,0.5,2.9,2.2c0,0.5,0.6,0.7,1,0.7
			c2.7,0,5.5,0.1,8.2,0c1.2,0,1.7-0.9,1.7-2.1c0-0.8,0-1.6-1-1.6C355.4,687.8,351.3,687.8,347.2,687.8z M354.6,340.4
			c1.7,0,3.3,0,5,0c1.2,0,1.6-0.6,1.6-1.7c0-1-0.3-1.6-1.4-1.6c-3.4,0-6.8-0.3-10.1,0.6c-0.8,0.2-1.3,0.7-1.2,1.5
			c0,1,0.7,1.2,1.5,1.2C351.5,340.4,353,340.4,354.6,340.4z M877.7,439.5c0,2,0,4,0,6.1c0,0.8,0.3,1.5,1.2,1.5c0.8,0,0.9-0.7,1-1.4
			c0.3-3-0.1-6,0.2-9c0.1-0.9,0.9-1.9,0.2-2.8c-0.5-0.7-0.1-2.2-1.3-2.1c-0.9,0.1-1.3,1.1-1.3,2.2
			C877.8,435.8,877.7,437.7,877.7,439.5z M106.1,432.6C106.1,432.6,106.1,432.6,106.1,432.6c0-1,0-2,0-3c0-1-0.1-1.8-1.4-1.8
			c-1,0-1.6,0.1-2,1.3c-0.8,2.5-0.6,5,0.1,7.5c0.3,1.2,1,1.1,1.8,1.1c1,0,1.5-0.5,1.5-1.5C106.1,435,106.1,433.8,106.1,432.6z
			 M162,452.5c0.5,1-1.1,3.3,2,3.5c2.3,0.2,3.6-1,3.3-2.7c-0.3-1.5,1-4.2-2-4.5C162.4,448.5,162,448.9,162,452.5z M161.4,574.6
			c-0.2,1.7-0.1,3,2.7,3.1c4.5,0.2,2.2-3.1,2.6-4.7c0.6-2.2-2-2.5-3.4-2.5C161,570.6,161.4,572.7,161.4,574.6z M586,306.7
			c-0.1,0.2-0.3,0.4-0.3,0.5c0.8,4.9,3.6,9.2,3.8,14.2c0,0.5,0.8,1.2,1.4,1.1c0.8-0.2,0.8-1.1,0.6-1.9c-0.9-3.5-1.7-7-2.8-10.3
			C588.4,308.9,587.9,307.1,586,306.7z M164.5,424.9c-1,6.7-0.8,13.3-0.8,20c0,0.7,0.2,1.5,0.9,1.5c0.8,0,0.8-0.9,0.8-1.5
			c0-6.3,0-12.7,0-19C165.3,425.5,165.3,425.1,164.5,424.9z M164.5,603c0-7.5,0-15.1,0-22.6c-0.4,0-0.9,0-1.3,0
			C163.9,588,162.8,595.5,164.5,603z M149.8,369.5c0-0.2,0-0.4,0-0.5c-7.9,0-15.7,0-23.6,0c0,0.2,0,0.4,0,0.5
			C134.1,369.5,141.9,369.5,149.8,369.5z M537.6,584.5c0,0.9,0,1.5,0,2.1c0,0.6,0,1.2,0.7,1.3c0.3,0,0.9-0.4,1.1-0.7
			c1-2.7,1.8-5.4,2.7-8.1c0.2-0.5-0.1-1.1-0.8-1.3c-0.5-0.2-1,0-1.2,0.5C539.4,580.5,536.8,582,537.6,584.5z M825,634.3
			c-5.3,0.8-10.8,0.1-16.5,2.7C812.8,637.7,823.2,636,825,634.3z M507.5,560.5c-1.6,0-3.1,0-4.7,0c-0.6,0-1.5,0-1.6,0.7
			c-0.2,0.9,0.8,1.3,1.4,1.4c3.2,0.2,6.5,0.4,9.7-0.6c0.5-0.1,0.8-0.5,0.7-0.9c-0.1-0.5-0.7-0.6-1.1-0.6
			C510.4,560.5,509,560.5,507.5,560.5z M360.4,410c2.2-7.1,3.3-14.5,5.9-21.5C363.1,395.2,361.2,402.4,360.4,410z M178,693.1
			c-0.7,1.1-2.7-1.3-3.1,0.5c-0.4,1.8,1.7,1.9,3,2.5c0.2,0.1,0.5,0.3,0.7,0.3c1.5,0.3,2.3-0.7,3.1-1.6c0.3-0.3,0.8-0.7,0.5-1.1
			c-0.6-1.1-1.6-0.3-2.5-0.4C179.3,693.2,178.8,693.2,178,693.1z M879.1,608.7c0.3,0,0.5,0,0.8,0c0.2-4.8,0.8-9.6-0.8-14.4
			C879.1,599,879.1,603.8,879.1,608.7z M538.7,445.3c0,0.5,0,0.9,0,1.4c0.1,0.7-0.3,1.7,0.6,1.9c0.9,0.2,0.9-1,1.2-1.5
			c0.7-1.1,0.9-2.4,1-3.6c0.1-1.1,1.5-2.9,0.2-3.1c-1.1-0.2-2.7,1.6-3,3.4C538.6,444.2,538.7,444.7,538.7,445.3z M178.6,334.3
			c0.8,0,1.6,0,2.5,0c0.6,0,1.2-0.2,0.9-0.9c-0.8-1.8-2.4-2.1-4-1.9c-1.2,0.1-3,0.1-2.8,1.8c0.2,1.7,2.1,0.9,3.2,1.1
			C178.5,334.3,178.6,334.3,178.6,334.3z M150.4,671.9c-0.5-1.3-0.7-2.8-0.6-4.4c0-0.5,0-1-0.5-1.2c-0.6-0.3-1,0.2-1.3,0.6
			c-1.5,2.1-0.9,4,0.5,5.7c0.3,0.4,0.7,1.3,1.5,0.8C150.5,673.3,150.3,672.7,150.4,671.9z M399.6,493C399.6,493,399.6,493,399.6,493
			c0.5,0,1.1,0,1.6,0c0.7,0,1.6,0.2,1.8-0.8c0.2-0.9-0.6-1.1-1.3-1.5c-1.3-0.7-2.7-0.4-4-0.4c-0.9,0-1.2,0.7-1.2,1.5
			c0,0.8,0.5,1.1,1.2,1.2C398.3,493.1,399,493,399.6,493z M400.5,385.2c-0.5,0-0.9,0-1.2,0c-0.8,0.1-2.1-0.3-2.1,1
			c0,1.6,1.4,1.1,2.3,1.2c0.3,0,0.5,0,0.8,0c1.3-0.1,3.3,0.4,3.2-1.4C403.4,384.5,401.4,385.5,400.5,385.2z M527.1,545.4
			c1.9,0.7,2.8-0.6,3.8-1.7c0.5-0.6,1.7-1.3,0.4-2.1c-0.9-0.6-2.1-0.5-2.6,0.5C528.3,543.1,527.1,543.9,527.1,545.4z M531.6,507.2
			c0-0.2,0-0.3,0-0.5c-3.5,0-7,0-10.5,0c0,0.2,0,0.3,0,0.5C524.6,507.2,528.1,507.2,531.6,507.2z M115.1,481c0,0.3,0,0.5,0,0.8
			c3,0,6,0,9,0c0-0.3,0-0.5,0-0.8C121.1,480.9,118.1,480.5,115.1,481z M398.7,664c-0.5,0-0.9,0-1.4,0c-0.8,0-1.7,0.1-1.8,0.9
			c0,1,1,0.8,1.7,0.8c0.8,0,1.6,0,2.5,0c0.8,0,2,0.3,2-0.8c0-0.9-1.1-0.9-2-0.9C399.5,664,399.1,664,398.7,664z M626.7,650.4
			c0,0.3,0,0.6,0,0.8c1.7,0,3.4,0,5.1,0c0.6,0,1.2-0.1,1.3-0.7c0.1-0.7-0.7-0.8-1.2-0.9C630.1,649.3,628.5,650.2,626.7,650.4z
			 M399,560.5c-0.7,0.3-2.3-0.3-2.1,1c0.2,1,1.8,1,2.8,1.2c0.9,0.2,1.6-0.7,1.5-1.3C401.1,560.1,399.8,560.7,399,560.5z
			 M593.4,313.7c-1-1.2-0.5-3.2-2-4.1c-0.4-0.2-1,0.6-0.7,1.1c1,1.2,0.2,3.3,2,4C593.2,314.9,593.5,314.3,593.4,313.7z M143.2,478.9
			c2.2,1.1,4.4,1.1,6.8,0.2C147.8,478.2,145.4,479.7,143.2,478.9z M345.1,340.2c-0.5-1.1-1.2-1.4-1.8-1.5c-0.9-0.1-2-0.5-2.8,0.4
			c-0.1,0.1-0.2,0.6-0.1,0.7c0.8,0.7,1.7,0.5,2.6,0.5C343.6,340.4,344.3,340.3,345.1,340.2z M895.2,643.5c0-1.9,0-3.7,0-5.6
			C894.2,639.8,894.1,641.7,895.2,643.5z M119.4,478.8c1.9,0.3,3.8,0.8,5.5-0.2C123.1,478.2,121.2,477.8,119.4,478.8z M150.3,355.9
			c0.8-1.4,1.7-2.7,1.5-4.7C150,352.6,149.5,354,150.3,355.9z"/>
		<path stroke="#000000" stroke-width="3" stroke-miterlimit="10" d="M804.7,583.3c-3.2,0-6.4,0-9.6,0c-3.8-0.1-4.7-1-4.7-4.6
			c0-3.5,0.1-7,0-10.5c-0.1-2.1,0.7-2.7,2.7-2.7c7.7,0,15.4,1,23.1,0.6c1,0,2,0,1.9,1.4c-0.5,4.5,1.3,9,0.2,13.6
			c-0.4,1.8-1.1,2.2-2.7,2.2C811.9,583.2,808.3,583.2,804.7,583.3C804.7,583.2,804.7,583.2,804.7,583.3z M799.1,569.9
			c-1.8,0-3.5,0-5.1,0c-0.7,0-1.5,0-1.7,0.7c-0.6,2.2-0.6,4.6-0.1,6.8c0.4,1.7,2.4,0.8,3.6,0.8c5.4,0.1,10.8,0,16.2,0.6
			c2.7,0.3,3.7-0.7,3.7-3.5c0-1,0-2,0-3c0.1-1.3-0.6-1.8-1.8-1.7C808.9,570.9,803.9,569.7,799.1,569.9z M815.3,581.5
			c0-0.2,0.1-0.4,0.1-0.6c-0.5-0.3-1.1-0.9-1.6-0.9c-6.9-0.1-13.7,0-20.6,0c-0.5,0-1,0.4-1,0.8c0,0.7,0.6,0.7,1.2,0.7
			C800.7,581.5,808,581.5,815.3,581.5z M793,567.7c7.4,0.9,14.9,1,22.3,0.6C807.9,567.4,800.5,566.8,793,567.7z"/>
		<path stroke="#000000" stroke-width="3" stroke-miterlimit="10" d="M805.4,451.6c3.4,0.4,7.6-0.6,11.8,0.5c1.5,0.4,1.9,1,1.9,2.4
			c0,3.7-0.1,7.4,0,11c0,1.7-0.7,2.2-2.3,2.2c-6.1-0.1-12.1,0.1-18.2-0.1c-1.9,0-3.6,1.2-5.6,0.2c-1.1-0.5-1.6-0.9-1.6-2.1
			c0.1-3.9,0.1-7.7,0-11.6c0-1.9,0.9-2.6,2.7-2.5C797.6,451.6,801.1,451.6,805.4,451.6z M804.7,464.3c2.3,0,4.6,0,6.9,0
			c5.3,0,5.2,0,5.4-5.3c0.1-2.3-0.8-3.1-3-3c-5.5,0.1-11,0-16.6,0c-4.2,0-4.2,0-4.7,4c-0.1,0.4,0.3,0.9,0.2,1.3
			c-0.9,3.3,1.1,3.1,3.3,3C799,464.2,801.8,464.3,804.7,464.3z M816.8,454.1c0-0.3,0-0.5,0-0.8c-7.1-0.2-14.2-0.5-21.3-0.6
			c-0.8,0-2,0.1-2.3,1.4C801.1,454.1,808.9,454.1,816.8,454.1z"/>
		<path stroke="#000000" stroke-width="3" stroke-miterlimit="10" d="M248.4,515.3c3.5-1.2,2.9-4,2.5-6.2c-0.6-3.3-0.4-6.6-0.4-9.9
			c0-9.9-0.1-19.9,0-29.8c0.1-11.5,0.2-22.9,0.6-34.4c0.2-6.5-3.5-8.5-8-10c-2.6-0.9-5.5-0.9-8.1-1c-7.9-0.3-15.7-1.7-23.6-1.2
			c-0.5,0-0.9,0-1.4-0.1c-0.6-0.1-1.4-0.3-1.4-1c0-0.9,0.8-1.2,1.6-1.1c2.5,0.1,5.1,0.3,7.6,0.7c4.2,0.7,8.4,0.4,12.6,0.8
			c4.3,0.4,8.6,0.4,12.9,0.8c6.9,0.7,11.9,6.1,9.9,15c-0.2,1-0.4,1.9-0.4,2.9c-0.1,18.3,0.1,36.7-0.3,55
			c-0.2,10.3,0.6,20.5,0.3,30.8c-0.4,11-0.9,22-0.6,33.1c0.1,1.8,0.6,3.6,0.5,5.4c-0.5,8.3-0.3,16.5-0.6,24.8
			c-0.1,3.2-0.3,6.4-0.4,9.6c-0.1,2.6-2.9,6.2-5.5,7.1c-3.2,1-6.4,1.6-9.8,1.7c-5.2,0.2-10.5,1.3-15.7,1.5c-5.5,0.1-11,1.9-16.7,1
			c0-1.1,0.7-1.5,1.6-1.5c5,0.1,10-0.8,15-1.3c7-0.6,14.1-0.8,21-2.5c6.1-1.5,7.4-3.7,7.9-9.9c0.8-9.5-0.1-19,0.7-28.4
			c0.5-6.6,0.3-13.2,0.4-19.8c0.1-9.7,0.9-19.3,0.7-29C251.1,516.6,250.8,515.4,248.4,515.3z"/>
		<path stroke="#000000" stroke-width="3" stroke-miterlimit="10" d="M790.3,379.9c-0.5-6.9,1-14.9,0.5-22.8
			c-0.1-1.6,0.5-2.3,2.2-2.3c6.3,0.1,5.7-0.6,5.5,5.3c0,1.4,0,2.8,0,4.1c-0.2,9.2-0.4,18.4-0.5,27.5c0,2.1-1.1,2.5-2.8,2.3
			c-0.4-0.1-0.8-0.4-1.3-0.5c-3.8-0.2-3.8-0.2-3.8-4C790.3,386.7,790.3,383.9,790.3,379.9z M796.4,372.2
			C796.4,372.2,796.4,372.2,796.4,372.2c0-4.5,0-9,0.1-13.5c0-1.5-0.3-2.2-2-2.3c-1.7,0-1.9,0.8-1.9,2.2c0,4.6,0,9.2-0.3,13.9
			c-0.3,5-0.2,10.1-0.3,15.1c0,0.5,0,1.2-0.2,1.6c-0.6,1.1-0.1,2.1,0.6,2.8c0.8,0.8,2,0.6,2.9,0.3c1.1-0.4,1.1-1.8,1.1-2.6
			C796.4,383.8,796.4,378,796.4,372.2z"/>
		<path stroke="#000000" stroke-width="3" stroke-miterlimit="10" d="M537.4,508.9c0.3-1.9-1.5-3.8-0.1-6
			C538.1,505.1,538.5,507,537.4,508.9z"/>
		<path stroke="#000000" stroke-width="3" stroke-miterlimit="10" d="M202.3,404.5c-1.9,0.1-3.2-0.4-3.2-2.3
			c0.1-1.7,1.3-2.2,2.9-2.1c1.5,0,2.7,0.2,2.6,2.2C204.6,404.2,203.7,404.8,202.3,404.5z"/>
		<path stroke="#000000" stroke-width="3" stroke-miterlimit="10" d="M191.9,401.5c-0.1,1.6-0.8,2.5-2.5,2.5c-1.4,0-2.3-0.7-2.4-2.1
			c-0.1-1.7,1-2.4,2.6-2.4C190.9,399.5,192,399.8,191.9,401.5z"/>
		<path stroke="#000000" stroke-width="3" stroke-miterlimit="10" d="M188.6,627.5c1.9-0.2,3.2,0.4,3.3,2.4c0.2,2-1.4,2.5-2.8,2.6
			c-1.8,0.1-3-1.4-3.2-2.8C185.7,628.2,186.9,627.2,188.6,627.5z"/>
		<path stroke="#000000" stroke-width="3" stroke-miterlimit="10" d="M203.5,629.1c-0.1,1.5-0.7,2.8-2,2.6c-1.1-0.1-2.9-0.2-3-2.2
			c0-1.4,0.7-2.5,2.2-2.6C202.4,626.8,203.1,627.8,203.5,629.1z"/>
		<path stroke="#000000" stroke-width="3" stroke-miterlimit="10" d="M887.6,615.9c-1.8,0-2.7-0.9-2.6-2.7c0-1.7,1.1-2.3,2.5-2.3
			c2,0,2.5,1.4,2.5,3.1C890,615.8,888.8,615.9,887.6,615.9z"/>
		<path stroke="#000000" stroke-width="3" stroke-miterlimit="10" d="M885.8,584.3c1.7-0.1,2.5,0.7,2.5,2.5c0,1.4-0.6,2-2,2
			c-1.7,0-2.9-0.8-3-2.5C883.2,584.7,884.4,584.2,885.8,584.3z"/>
		<path stroke="#000000" stroke-width="3" stroke-miterlimit="10" d="M889.4,451.3c-0.1,1.8-1.2,2.3-2.6,2.4c-1.4,0.1-2.3-0.7-2.4-2
			c-0.1-1.5,0.8-2.3,2.3-2.4C888.2,449.3,889,450.1,889.4,451.3z"/>
		<path stroke="#000000" stroke-width="3" stroke-miterlimit="10" d="M887.1,423.4c1.5-0.1,2.7,0.5,2.6,1.8c0,1.3-1.2,2.6-2.5,2.4
			c-1.2-0.1-2.9-0.8-2.8-2.4C884.6,423.9,885.8,423.1,887.1,423.4z"/>
		<path stroke="#000000" stroke-width="3" stroke-miterlimit="10" d="M384.9,561.7c-1.7,0-3.5,0-5.2,0c-0.6,0-1.4,0.2-1.4-0.8
			c0-1,0.8-0.9,1.4-0.9c3.7,0,7.3,0,11,0c0.6,0,1.3,0.1,1.2,0.7c0,0.5-0.5,0.9-1.2,0.9C388.8,561.6,386.9,561.6,384.9,561.7
			C384.9,561.6,384.9,561.7,384.9,561.7z"/>
		<path stroke="#000000" stroke-width="3" stroke-miterlimit="10" d="M385.2,389.1c-1.7,0-3.5,0-5.2,0c-0.6,0-1.1,0-1.1-0.8
			c0-0.8,0.6-0.8,1.2-0.8c3.4-0.1,6.7,0.2,10.1-0.5c0.8-0.2,1.9,0,1.9,1c0,0.9-1,1.1-1.8,1.2C388.4,389.1,386.8,389.1,385.2,389.1z"
			/>
		<path stroke="#000000" stroke-width="3" stroke-miterlimit="10" d="M112.8,438.5c0-7.1,0-14.2,0-21.3c0-5.2,4.6-8.4,9.4-6.4
			c2.2,0.9,3.4,3.1,3.1,5c-0.5,3.5-0.5,6.9-0.4,10.4c0.3,9.2-0.7,18.3-0.6,27.4c0,2.9,1.2,5.7,0.3,8.9c-0.7,2.5-2.2,3.3-4,3.8
			c-2.1,0.6-4.4,0.3-6-1.6c-1.2-1.4-1.9-3-1.9-5C112.8,452.7,112.8,445.6,112.8,438.5z M122.2,444.1c0-1.2-0.1-2.4,0-3.6
			c0.1-1.7-0.5-2.4-2.2-2.2c-1.2,0.1-2.3-0.1-3.5-0.1c-1.8,0.1-2.1,0.9-2.1,2.4c0.1,3.5-0.2,7,0.1,10.5c0.3,3.6-0.8,7.3,0.5,10.9
			c0.7,1.8,2.2,3.1,3.9,2.7c1.8-0.3,3.4-1.6,3.3-4C122.1,455.1,122.2,449.6,122.2,444.1z M122.7,420.3c0-1.2-0.1-2.4,0-3.6
			c0.1-2.3-1-3.8-3.1-4.3c-1.8-0.5-4.1,1.3-4.6,3.4c-0.8,3.2-0.6,6.5-0.7,9.8c0,1.2,0.5,1.7,1.6,1.7c6.1-0.2,6.8,1.2,6.7-5.8
			C122.7,421,122.7,420.6,122.7,420.3z M118.8,428.9c-3.9,0-4.4,0.6-4.4,4.4c0,2.5,1.1,3.4,4.2,3.3c2.5-0.1,4.1-1.8,4.1-4.2
			C122.7,430.4,120.9,428.9,118.8,428.9z"/>
		<path stroke="#000000" stroke-width="3" stroke-miterlimit="10" d="M129.9,436.3c0-6.4,0-12.9,0-19.3c0-2.2,2.2-5.8,4.1-6.2
			c2.5-0.5,5.1-0.6,7,1.9c0.9,1.2,1,2.3,1,3.6c0.2,14.2-1.2,28.3-0.4,42.5c0.3,4.4-3.4,7.1-6.9,6.7c-3.6-0.4-5.9-3.8-5.2-7.3
			c0.4-2,0.3-4.2,0.3-6.3C129.9,446.7,129.9,441.5,129.9,436.3z M131.6,450.6C131.6,450.6,131.6,450.6,131.6,450.6
			c0.1,2.8,0.1,5.7,0,8.5c0,2.2,1.5,4.4,3.3,4.6c1.6,0.2,4.2-2.2,4.4-4.2c0.1-1.5,0.1-2.9,0-4.4c-0.3-4.7,0.6-9.3,0.6-14
			c0-2-0.9-2.9-2.8-2.8c-0.9,0-1.8,0-2.8,0c-1.8,0.1-2.8,0.8-2.8,2.9C131.7,444.3,131.6,447.4,131.6,450.6z M139.9,421.3
			C139.9,421.3,139.9,421.3,139.9,421.3c0-1.7,0.1-3.3,0-4.9c-0.2-2.1-1.5-3.3-3.6-3.5c-2.1-0.1-3.8,1.1-3.9,3
			c-0.2,3.1-0.8,6.2-0.7,9.2c0,1.6,0.7,2.6,2.7,2.7c5.6,0.1,5.6,0.2,5.6-5.4C139.9,422,139.9,421.7,139.9,421.3z M135.6,436.6
			c4.2,0,4.2,0,4.2-3.3c0-3.9,0-3.9-3.8-3.9c-4,0-4.5,0.4-4.5,4C131.6,436.6,131.6,436.6,135.6,436.6z"/>
		<path stroke="#000000" stroke-width="3" stroke-miterlimit="10" d="M528.7,524.4c0,5.8,0,5.9-6,5.7c-1.5,0-3.1,0.6-4.3-1
			c-0.4-0.5-1.3,0.1-1.9,0.7c-2.9,2.7-7.2,2.9-10.1,0.4c-2.5-2.1-2.8-7.1-0.7-10c2.1-3,7.3-4.9,9.5-2.5c2.5,2.8,4.9,0.9,7.2,1
			c1.3,0,2.8,0.6,4.4,0c0.9-0.4,1.9,0.9,1.9,2.2C528.7,522,528.7,523.2,528.7,524.4z M511.5,530c3.4,0.1,5.4-2.3,5.6-6.1
			c0.2-3.1-3.1-5.3-5-5.4c-2.4-0.1-5.5,3.8-5.5,6.8C506.6,528.6,508,529.9,511.5,530z M526.4,524.5c0,0,0.1,0,0.1,0
			c0-0.5,0-1.1,0-1.6c0-1,0.3-2.5-1.2-2.6c-1.7-0.1-3.5-0.6-5,0.4c-0.7,0.5-0.3,1.1,0.2,1.6c0.7,0.7,1.7,0.7,2.6,0.6
			c1.2,0,2.2,0,2.4,1.5c0.1,1.5-0.5,2.3-1.9,2.9c-1,0.4-3-0.9-2.9,0.9c0.1,1.4,1.7-0.3,2.7,0.2c2.4,1.1,3.1-0.1,3.1-2.3
			C526.5,525.6,526.4,525,526.4,524.5z M519.6,525.2c1.5,0.6,2.7,0.7,3.9,0c0.3-0.2,0.2-0.8-0.1-0.9
			C522,523.8,520.7,523.7,519.6,525.2z"/>
		<path stroke="#000000" stroke-width="3" stroke-miterlimit="10" d="M852.1,601.5c-1.5,0.2-2.7-0.1-2.6-2.2c0-1.9,1-2.8,2.7-2.7
			c1.6,0.1,2.8,1.1,2.9,3C855.1,601.7,853.7,601.5,852.1,601.5z"/>
		<path stroke="#000000" stroke-width="3" stroke-miterlimit="10" d="M868.4,601.4c-1.3,0.1-2.3-0.1-2.3-1.8c0-1.5,0.6-2,2.1-2.1
			c1.6,0,2.6,1.1,2.7,2.1C871.1,600.9,869.8,601.6,868.4,601.4z"/>
		<path stroke="#000000" stroke-width="3" stroke-miterlimit="10" d="M125.5,397.8c-3.2,1.4-4.2-1.7-6-2.9c-2.9-1.9-4.2-5.4-7.5-7
			c-1-0.5-1.3-2.4-0.9-3.8c0.4-1.2,1.3-1.9,2.7-1.7c1.2,0.2,1.7-0.9,2.4-1.5c2.2-1.8,4.4-3.5,6.7-5.1c1.9-1.2,4.4-1.1,6.1-0.3
			c3.3,1.6,7.1,2.4,9.3,5.9c0.3,0.4,0.9,0.8,1.4,0.9c2,0.2,2.5,1.4,2.3,3.2c-0.1,1.7-0.4,2.9-2.3,3.1c-0.3,0-0.8,0.2-1,0.5
			c-2.4,3.6-6.5,5.2-9.5,8.1C128.1,398.4,126.7,397.6,125.5,397.8z M133.9,390.6c0.4-0.1,0.7-0.1,0.9-0.3c1.5-1.6,2.3-3.8,4.6-4.6
			c0.8-0.3,0.2-1.1-0.4-1.5c-3.8-2.9-7.8-5.4-12.3-7.1c-0.9-0.4-1.8-0.4-2.6,0.4c-2.5,2.5-5.8,3.9-8.6,6c-2.8,2.1-3,1.7-0.2,3.7
			c0.8,0.5,1.5,1.4,1.8,2.3c0.5,1.3,1.4,2.2,2.4,3c1.4,1.2,3.2,1.8,4.5,3.4c0.9,1.1,2.6,0.4,3.8-0.4c0.8-0.6,1.9-1.5,1.5-2.4
			c-0.5-1.2-1.9-0.4-2.9-0.6c-0.3-0.1-0.6,0-0.8,0c-3.6-0.5-6.1-2.2-6.7-5c-0.6-2.6,0.8-4.8,2.7-6.2c2.7-2,5.7-1.8,8.9-0.8
			c3.6,1.2,4.7,3.8,4.4,7.1C134.8,388.6,133.5,389.2,133.9,390.6z M126.3,381.9c-3.2,0-5.2,1.6-5.2,4.3c-0.1,2.1,3,4.4,6,4.5
			c2.4,0.1,5.9-2.8,6.1-5C133.2,383.8,129.7,381.9,126.3,381.9z"/>
		<path stroke="#000000" stroke-width="3" stroke-miterlimit="10" d="M852.4,434.9c1.7,0,2.8,0.8,2.7,2.5c0,1.6-0.9,2.6-2.6,2.5
			c-1.5,0-2.4-0.8-2.5-2.3C850,436,850.8,435.1,852.4,434.9z"/>
		<path stroke="#000000" stroke-width="3" stroke-miterlimit="10" d="M868.5,435.6c0.7,0.1,1.6,0.8,1.5,2.4c-0.1,1.3-1,2.1-2.4,2
			c-1.5-0.2-2.1-1.1-2-2.7C865.6,435.8,866.4,435.4,868.5,435.6z"/>
		<path stroke="#000000" stroke-width="3" stroke-miterlimit="10" d="M436.7,541.1c1.8,0,3,0.7,2.9,2.3c-0.1,1.4-1,2.2-2.6,2.1
			c-1.9-0.1-2.7-1.5-2.7-2.8C434.3,541.6,435.6,541,436.7,541.1z"/>
		<path stroke="#000000" stroke-width="3" stroke-miterlimit="10" d="M437.2,509.7c-1.2,0.1-2.4-0.5-2.4-2c0-1.3,1.1-2.4,2.5-2.5
			c1.8-0.1,2.7,1.4,2.8,2.8C440.2,509.4,438.7,509.6,437.2,509.7z"/>
		<path stroke="#000000" stroke-width="3" stroke-miterlimit="10" d="M439.6,526.8c-0.2,1.3-0.9,2.2-2,2c-1.2-0.2-2.5-1-2.4-2.6
			c0.1-1.2,0.9-1.7,2.1-1.6C438.8,524.7,439.5,525.6,439.6,526.8z"/>
		<path stroke="#000000" stroke-width="3" stroke-miterlimit="10" d="M498.3,439.5c0-3,1.5-5.1,3.7-5.1c3,0,4.6,1.9,4.6,5.3
			c0,2.8-1.6,4.6-4.2,4.6C499.8,444.4,498.3,442.6,498.3,439.5z M500,439.8c0.1,0.5-0.3,1.7,0.8,1.5c1-0.2,2-1.1,1.8-2.3
			c-0.1-0.8-0.4-2.3-1.3-2.1C500.1,437.1,499.9,438.5,500,439.8z"/>
	</g>
</g>
<g id="text">
</g>
<g id="scratch">
</g>
<g id="guides" display="none">
</g>
</svg>
