<?xml version="1.0" encoding="utf-8"?>
<!-- Generator: Adobe Illustrator 26.0.2, SVG Export Plug-In . SVG Version: 6.00 Build 0)  -->
<svg version="1.2" baseProfile="tiny" xmlns="http://www.w3.org/2000/svg" xmlns:xlink="http://www.w3.org/1999/xlink" x="0px"
	 y="0px" viewBox="0 0 1000 1000" overflow="visible" xml:space="preserve">
<g id="bg">
</g>
<g id="counters">
	<g>
		<path d="M144.2,505.5c-10.7,0-21.4,0-32.1,0c-8.8,0-13.4,5.9-11.8,14.5c2,10.8,2.9,21.6-0.2,32.5c-1.6,5.5,3.7,11.6,9.8,11.7
			c10.2,0.2,20.4,0,30.6,0.1c1.8,0,4.3-0.4,4.7,1.9c0.4,2.4-2.2,2.8-3.9,3.2c-8.1,2.1-16.1,4.1-24.3,5.8c-5.3,1.1-7.6,3.6-7.7,9.3
			c-0.4,17.2-0.6,17.2,16.4,20.8c3.2,0.7,6.3,1.6,9.5,1.9c7.2,0.7,12.3,2.7,11.4,11.7c-0.6,5.8,4.7,5.8,8.6,6
			c13.6,0.4,27.3,0,41-0.2c20.4-0.3,40.8,1.3,61.2,0.8c26.1-0.7,52.1,0.1,78.1-0.1c34.9-0.2,69.8,0,104.7,0
			c113.6,0,227.1,0.1,340.7,0.1c14.6,0,23.6-6.6,27.4-20.4c1.4-5.3,0.9-10.4-2.4-15.4c-3.7-5.7-10.9-11.9,0-18
			c1.1-0.6,1-3.4,1.2-5.3c0.3-2.5,0.4-5.2,3.8-5.1c3.3,0.1,3.6,2.8,3.6,5.3c0,9.9,0,19.9,0,29.8c0,2.7,0.2,5.4-0.1,8.1
			c-0.7,7.2,2.9,9.5,9.5,9.4c11.3-0.2,22.6-0.1,33.9,0.2c4.7,0.1,8.2-1.5,11.4-4.9c7.4-7.8,14.9-15.5,22.5-23.1
			c5.9-5.9,8.4-12.9,8.4-21.1c0-43.3,0-86.5,0-129.8c0-7.6-2.4-14.2-8-19.6c-1.7-1.7-3.8-3.2-5-5.3c-15.7-27.9-42.2-23.4-67.4-22.6
			c-5.1,0.2-5.1,3.8-5.1,7.4c-0.1,11.6,0,23.1-0.1,34.7c0,2.1,0,4.3-0.2,6.4c-0.2,2.4-1.1,4.2-3.9,4.1c-2.4-0.1-3.1-1.8-3.3-3.8
			c-0.4-4,0.5-7.5-5.6-9.6c-3.5-1.2-0.6-9,1.8-13c7.4-12.6,6.1-13.7,0.1-25.7c-5.7-11.4-13.7-12.3-24.2-12.2
			c-97.6,0.1-195.1-1.7-292.7-0.9c-34.3,0.3-68.6,0-102.8-0.1c-36.2,0-72.5,0.7-108.6-0.4c-24.4-0.8-48.7,1.8-73,0.2
			c-15.5-1-30.9-0.6-46.4,0.1c-3.7,0.2-7.1,0-9.8,3.9c-3.3,4.7-9,2.3-13.6,2.4c-13.4,0.3-16.7,4.6-13.4,17.9c0.6,2.6,0.5,5.3,0.5,8
			c0.2,23.4,1,46.8,0.2,70.1c-0.2,6.3-1.8,12.3-0.2,18.8c1.2,4.8,3.5,6.8,8.3,6.7c5.5-0.2,11.1,0,16.6,0
			C144.3,503.8,144.2,504.6,144.2,505.5z M714.6,621.8C714.6,621.8,714.6,621.8,714.6,621.8c-5.9,0-11.8,0-17.7,0
			c-18.8,0-37.6,0.1-56.5-0.1c-2.3,0-7.1,1.7-5.7-3.6c1.9-7.8,2-15.2-1.3-22.7c-1-2.3-2-8.5,2.4-7.2c8.6,2.4,14.6-6.7,22.8-3.5
			c1.2,0.5,3.8-0.9,5-2.1c3.2-3.4,7.4-4.1,11.6-5.1c7.8-1.8,15.6-4.1,23.5-5.5c13.9-2.4,26.9-8.6,41.8-7.1
			c6.7,0.7,13.4-5.3,21.1-4.7c0.9,0.1,2-1.6,2.9-2.5c4.4-4.4,9.9-3.2,15.2-2.7c1.4,0.1,2.2,1.3,2.5,2.8c0.3,1.7-0.7,2.3-2.2,2.7
			c-2.9,0.9-7.9,0.9-7.4,4.5c0.5,3.6,5.7,3,8.9,4c2,0.6,4,2,6,2.2c10.9,0.6,10.8,8.4,10.8,16.1c0.1,7.3,0.1,14.5,0,21.8
			c-0.1,10.5-2.4,12.8-12.9,12.9C761.9,621.8,738.2,621.8,714.6,621.8z M729.8,378.9c0.9,3.7-3,4.6-2.4,7.2
			c1.6,7.8,1.4,15.7,0.4,23.5c-0.4,3.1,1.5,3.8,3.6,4.3c2.6,0.7,6.3-0.3,5.9-2.5c-1.4-9.2,1.2-18.5-0.4-27.3
			c-0.9-4.7-0.1-5.2,3.5-5.2c15.9,0,31.7-0.2,47.6,0.2c6.9,0.2,10.8,3.8,10.5,11.4c-0.3,9.4-0.1,18.8-0.2,28.2
			c-0.1,5.3-1.4,9.1-7.8,10.3c-4.9,0.9-9.1,4.2-14.4,4.7c-1.3,0.1-3.5,0.5-3.6,2.5c-0.1,2.1,2,2.2,3.4,2.9c1,0.4,2,0.9,3.1,0.9
			c2.6,0.2,3.8,1.1,3.7,4c-0.2,3.7-2.6,3.4-5.1,3.5c-3.9,0.1-8-0.4-10.7-2.8c-7.5-6.7-18-3.8-25.9-8.9c-0.9-0.6-2.7-0.2-4,0.1
			c-4.9,0.9-9.6,0-14.3-1.2c-15.6-3.9-31.3-7.6-47-11.4c-3.4-0.8-7.3-0.9-9.8-3.3c-7.2-7-17.3-4.2-25.7-7.8
			c-6.5-2.8-9.4-3.2-6.3-10.4c2.4-5.5,2.7-11.2,1.7-16.6c-1.1-6,1.1-6.5,6-6.5c22.9,0.2,45.7,0.1,68.6,0.2
			C716.8,378.9,723.4,378.9,729.8,378.9z M632.8,479.3c0-19.1,0.3-36.8-0.1-54.5c-0.2-6.8,1.9-8.3,8.3-6.7
			c28.4,7.1,57,13.4,85.3,20.9c10.1,2.7,22.3,1,29.8,11.1c0.1,0.2,1.3-0.4,2-0.6l12.1,1.3c0.3,0.7,0.8,1.5,0.8,2.2
			c0.4,8.7,0.8,17.5-0.5,27.6c-4.7-4.8-10.4-6.5-13.9-3.8c-6,4.6-12.3,3.5-18.4,3.1c-10.1-0.7-20.7,3.4-30.3-3.4
			c-2.2-1.5-6.7-1.3-9.1,1.1c-2.7,2.6-5.6,2.5-8.9,2.5c-11.3,0-22.6,0.2-33.9,0.3c-1.9,0-3.9,0.6-5.3-1.1
			C645.7,473.1,640.1,474.8,632.8,479.3z M614.5,500.3c0,28.5-0.2,56.9,0.1,85.4c0.1,7.1-2.2,10.2-9.7,10.3
			c-9.1,0.1-18.2,0.9-27.3,2.1c-5.5,0.7-7.8-2-5.9-6.1c3.5-7.3,0.7-13.9,0.5-20.9c-0.6-22.2-4.5-44.8,2.2-66.9
			c1-3.5,1.4-7.5-1.2-10.8c-1.8-2.3-1.9-5-1.9-7.6c0-17.7,0-35.4,0-53.2c0-2.4-0.2-4.9,1.2-7c3.5-5.3,3-10.2-0.1-15.7
			c-2.6-4.6-1.2-7.6,5-7c8.8,0.9,17.6,1.8,26.5,2c7.7,0.2,10.8,3.1,10.7,11.2C614.2,444,614.5,472.2,614.5,500.3z M632.8,522.7
			c6.2,4.1,11.4,6.2,16.2,2.3c3.3-2.6,6.8-3.2,10.5-2.9c14.1,1.4,28.7-3.8,42.3,4.5c4.6,2.8,8.9-3.9,13.1-3.8
			c13.8,0.4,28.2-4.8,41.5,3.5c1.6,1,4.7,1.5,6.2,0.6c11.1-6.2,8.7,2.2,8.7,7.9c0,3,0.1,5.9,0,8.9c-0.2,7.3-2.8,9.8-5,6.4
			c-5.1-7.9-3.5,7.8-7.3,1.7c-0.3-0.4-0.5-1-1-1.2c-1.4-0.9-3.1-0.4-3.1,1.1c0.2,5.6-4.4,4.5-7.3,5.2c-10.7,2.7-21.4,5.1-32.1,7.6
			c-25.1,6-50.1,12-75.2,17.9c-3,0.7-7.5,3.1-7.5-3.2C632.7,560.9,632.8,542.7,632.8,522.7z M771.3,483.2c0,10.8,0.1,19.2,0,27.7
			c0,3.8,0.7,8.5-5.7,3.8c-2.9-2.2-7.6-2.1-10.5,0.7c-3.4,3.2-7.2,3.2-11.2,3.2c-8.1,0-16.6,1.7-24-0.5c-10.6-3.1-19.8-3-30.5-0.1
			c-9.8,2.6-20.8,0.6-31.3,0.5c-2.4,0-5.1,0.5-6.9-1.3c-5.6-5.7-11.3-4.3-17.6,0.4c0-11.4,0-21.8,0-33.4c4.8,4.7,10.2,7.4,14.4,3.6
			c5-4.5,10.2-4,15.6-4c8.1-0.1,16.1,0,24.2,0c4,0,7.5,0.3,10.8,3.7c3.3,3.5,8.3,3.5,12.3-0.2c1.4-1.3,2.2-3.3,4.3-3.3
			c11.5-0.1,23.1-0.1,34.6,0c1.1,0,2.6,0.9,3.4,1.8C758.7,492.5,764,490.8,771.3,483.2z M156.9,499.8c0-16.4,0.1-32.8-0.1-49.2
			c-0.1-5.1,1.7-7.4,7-7.2c8.6,0.2,17.2,0.1,25.8,0.1c3.3,0,5,1.3,4.9,4.8c-0.2,9.3,0.8,18.6-2.2,27.9c-4.4,13.3-4.2,27.4-1,40.6
			c2.5,10.4,3.1,20.5,3.4,31c0.2,5.8-1.6,8.4-7.8,8c-7.2-0.4-14.5-0.4-21.8,0c-6.3,0.3-8.6-2-8.4-8.4
			C157.1,531.5,156.9,515.7,156.9,499.8z M412,612.1c5.7-6.2,8-12,2.5-18c-3.9-4.3-9.4-4.7-13.9-1.5c-8.1,5.7-4.8,12.6,0,19.5
			c-15.3,0-29.5,0.1-43.7,0c-17.8-0.1-15.9,2.3-16.3-16.5c-0.2-6.7,2.2-8.8,8.9-8.6c23.9,0.6,47.7,0.8,71.6,0.8
			c10.2,0,20.3-1.3,30.5-0.3c16.1,1.6,15.9,1.6,14.7,18.1c-0.3,4.8-2.3,6.7-7,6.6C444.1,612,428.8,612.1,412,612.1z M134.1,385.3
			c12.3,0,12.3,0,12.3,12.3c0,9.9-0.3,19.9,0.1,29.8c0.3,6.6-2,9.4-8.7,8.8c-2.9-0.2-7.4-1.2-7.3,3.8c0.1,5.1,4.7,3.3,7.5,3.4
			c4.6,0.2,8.5,0.1,8.4,6.6c-0.2,14.2-0.1,28.4-0.1,42.7c0,2.4,0.3,5.4-2.8,6c-5.8,1.2-11.7,0.9-17.6,0.2c-2.2-0.3-2.9-2.1-2.9-4.2
			c0-2.1,0.7-3.7,2.9-4.2c1.6-0.3,3.2-0.3,4.8-0.6c2-0.4,4.8-0.6,4.9-3.2c0.2-2.9-2.8-3.1-4.7-3c-7.1,0.2-8.2-3.6-8.1-9.7
			c0.3-23.1,0.3-46.2,0.1-69.2c0-5.7,1.5-8.7,7.7-8.2c2.1,0.2,5,0.3,5.3-2.4c0.3-3-2.8-2.4-4.8-2.9c-2.6-0.7-7.3,1.2-7.2-2.8
			c0.1-4.7,5-2.3,7.8-3C132.5,385.1,133.3,385.3,134.1,385.3z M476.1,525.6c16.6,2.6,32,1.5,47.5,0c5.1-0.5,8-2.4,7.9-7.9
			c-0.2-11.3-0.3-22.5-0.1-33.8c0.1-5.4-2.6-8-7.6-8.4c-14.1-1.3-28.2-3.8-42.4-0.7c-1.6,0.4-4,2-4.4-1.1c-0.3-2.4,1.9-2.9,3.9-3.1
			c1.9-0.1,3.8-0.1,5.6-0.2c20.7-0.2,41.3,0.5,62-0.6c4.3-0.2,5.5-1.2,5.4-5.5c-0.4-10.7-0.2-21.5-0.2-32.2c0-2.3-0.5-5.5,2.8-5.8
			c3.5-0.3,3.4,2.9,3.4,5.2c0.1,32.8,0.1,65.5,0.1,98.3c0,2.4,0.1,5.2-3.6,5c-5.2-0.2-8.4,3.2-12,7c-0.5-13.7-0.5-13.7-13.2-13.7
			c-15.3,0-30.6,0-45.9-0.1C482.4,528.1,479.4,528.9,476.1,525.6z M446.4,429.3c0,7.8,0,15.5,0,23.3c-0.1,20.1,2.5,17.1-18.4,17.6
			c-6.3,0.2-8.5-2.1-8.4-8.4c0.3-18.2,0-36.5,0.1-54.7c0.2-21.4-3.5-18.4,19.6-18.7c5.2-0.1,7.2,2,7.1,7.1
			C446.3,406.8,446.4,418,446.4,429.3z M212.8,611.9c4.1-3.3,3.2-7.5,3.6-11.4c0.8-7.4-2-11.1-9.9-10.7c-6.2,0.4-12.4,0.3-18.5,0
			c-6.4-0.2-9.6,2.2-9.1,8.9c0.3,4.2,0.1,8.5,0.1,12.7c-1.1-9.3-1.1-18.5-1-27.8c0-4,2.7-4.8,6-4.8c20.4,0.3,40.8-0.8,61.1,1
			c3.5,0.3,4.7,1.6,4.7,4.9c-0.1,5.9,0,11.8,0.1,17.7c0,3.2,0.7,5.6,4.4,6.6c12.3,3.2,16.9-0.2,16.9-12.6c0-2.4,0-4.8,0-7.2
			c-0.1-4.2,0.7-7.5,6-7.4c4.8,0.1,7.7,2.2,7.9,7.1c0.2,5.1-0.1,10.2,0.2,15.3c0.3,5.5-1.8,7.6-7.4,7.6
			C256.4,611.7,234.9,611.9,212.8,611.9z M177.9,391.7c2.4,17.3,2.4,17.3,20.3,17.3c1.3,0,2.7,0,4,0c13.3-0.1,13.4,0,13.9-13.1
			c0.2-4.1,0.7-7.6,6-7.5c19.1,0,38.1,0,57.2,0c2.5,0,5.3,0.5,5.5,3.5c0.5,7.2,1.3,14.5-0.5,21.6c-1,3.9-4.4,5-8.3,4.8
			c-4.6-0.3-4.8-3.4-4.8-6.8c0-2.4,0-4.8,0-7.3c0-13.5-1.4-14.6-14.9-13.4c-4.7,0.4-6.7,2.5-6.5,7.1c0.2,5.4-0.1,10.7,0,16.1
			c0,4-1.7,5.9-5.8,5.9c-20.1,0-40.3,0.1-60.4,0.2c-4.1,0-5.7-2.1-5.7-6C178,406.7,177.9,399.2,177.9,391.7z M193.3,498.2
			c0.2-5.4,0-10.8,0.8-16.1c1.6-10.5,6.2-19.5,15.9-24.9c3.7-2,8.4-4.6,12.1-1.5c3.5,2.9,2.7,8.4,1.2,12.2
			c-8.1,20.8-8.9,41.3,1.1,61.7c1.7,3.6,0.3,7.2-1.5,9.9c-2.1,3.2-6,2-9,1.1c-8-2.4-12.9-8.3-16.5-15.5
			C193.2,516.5,193.4,507.4,193.3,498.2z M105.7,560.6c3.1-3.4,5.1-2.6,6.8-2.9c2.3-0.5,5.6,0,5.7-3.1c0.1-3.3-3.5-3-5.6-3
			c-6.5-0.2-7.9-3.9-7.6-9.6c0.3-5.1,0.1-10.2,0.1-15.3c0-3.8,1.5-5.9,5.6-6.2c2.7-0.2,7,0.9,7.2-3c0.1-3.2-4.3-2.2-6.5-3.2
			c-0.5-0.2-1-0.2-1.6-0.3c-1.5-0.4-3.6-0.5-3.4-2.6c0.2-2,2.3-2,3.8-2c9.6-0.1,19.3-0.1,28.9-0.3c5.6-0.2,7.5,2.4,7.4,7.8
			c-0.2,9.1-0.6,18.3,0.1,27.3c0.6,8.4-1.6,12.9-10.9,11.7c-1.2-0.2-3,0-3.8,0.8C124.3,563.3,115.6,559.6,105.7,560.6z M826,419.5
			c0-4.8,0.1-9.7,0-14.5c-0.1-4.7,1.8-6.9,6.7-6.8c8.6,0.2,17.2,0,25.8,0.1c4.9,0,7.4,2.6,7.5,7.5c0.1,5.6,0.1,11.3,0.1,16.9
			c-0.3,20.9,2.9,18.5-18.3,18.6C826,441.4,826,441.3,826,419.5z M259.4,497.2c8.3-0.3,8.5-5.5,8.5-10.9c0-4.1,0.5-7.6,5.9-7.5
			c8.3,0.1,16.7,0.1,25,0c4,0,6,1.8,6,5.8c0,10.2,0,20.4,0,30.6c0,4.4-2,6.3-6.4,6.3c-7-0.1-14.2-1.2-20.9,0.3
			c-10.4,2.2-8.1-10.3-15-11.4c-0.5-0.1-0.9-0.4-1.3-0.6c0.3-0.4,0.5-0.9,0.9-1.3C266.8,504.1,263.7,500.9,259.4,497.2z
			 M847.1,560.7c18.9,0,18.9,0,18.9,18.8c0,1.6,0,3.2,0,4.8c0,18.5,0,18.6-18.6,18.5c-24.7-0.2-21.4,3.3-21.4-21.3
			C826,557.6,822.9,561,847.1,560.7z M463.4,477.2c0.1,0.4,0.1,0.9,0.2,1.3c-9.3,0-18.6,0.2-27.9-0.1c-7.2-0.2-10,2.8-9.9,10.1
			c0.3,23.9,0.2,47.7,0,71.6c-0.2,20,4.1,18-19.5,18c-0.3,0-0.5,0-0.8,0c-1.9-0.2-4.1-0.1-4.3-2.6c-0.2-2.5,1.3-4.4,3.7-4.4
			c8.2-0.1,8.4-5.5,8.4-11.5c-0.1-24.9-0.1-49.9,0-74.8c0-3.6-1.1-7.6,5.2-7.5C433.4,477.5,448.4,477.2,463.4,477.2z M400.8,388.2
			c-5,6.6-6.9,11.8-2.9,17.2c3.2,4.3,7.7,5.4,12.9,3.7c1.6-0.5,3.3-2.5,4.9-0.2c0.4,0.5,0.2,1.6-0.1,2.3c-0.8,2.2-2.8,2.2-4.7,2.1
			c-18.4-0.2-36.8-1.3-55.3-1.1c-16.6,0.2-16.5-0.6-15.1-17.7c0.3-4.3,2-6.4,6.3-6.4C364.3,388.3,381.7,388.2,400.8,388.2z
			 M409.4,499.5C409.4,499.5,409.4,499.5,409.4,499.5c0,9.7,0.1,19.3,0,29c0,2.9,1.2,7.2-3.8,7.4c-4,0.2-4.6-3.5-4.7-6.3
			c-0.2-7.6-3.8-10-10.9-8.4c-5.6,1.2-7.8-1.3-7.8-6.9c0.1-10.5-0.1-20.9-0.5-31.4c-0.1-4.3,1.6-6,5.8-5c8.3,1.9,13.6-0.1,13.9-9.8
			c0.1-2.6,1.3-5.5,5-4.9c3.3,0.5,3,3.4,3,5.7C409.5,479.1,409.4,489.3,409.4,499.5z M500.7,551.7c-0.2-6.1,3.4-7.2,7.9-6.2
			c7.5,1.6,14.8,1.6,22.3,0.1c5.6-1.1,8.6,1.5,7.5,6.9c-1.8,8.8-1.7,17.4,0,26.2c0.9,4.7-0.9,7.9-6.7,6.9
			c-8.2-1.4-16.4-1.7-24.7,0.2c-4.3,1-7.1-1.5-6.2-5.8C502.7,570.3,502.9,560.8,500.7,551.7z M536.5,436.7c0.7,4.3,1.4,8.5,2,12.7
			c0.7,5.4-1.6,8.6-7.3,7.4c-7.8-1.6-15.3-1.6-23.1,0c-5.6,1.2-8.3-1.7-7.2-7.3c1.7-8.5,1.7-17,0-25.5c-1-5.3,1-8.6,7-7.2
			c7.7,1.8,15.4,1.7,23.1,0.1c6.1-1.3,7.9,1.7,7.4,7.1C538,428.2,537.1,432.4,536.5,436.7z M356.4,555.9c2.1-6.9,1.4-15.1,0.2-23.4
			c-0.7-5.1,1.8-7.9,7.1-6.8c8.6,1.8,17,1.5,25.6,0c5.2-1,7.9,1.9,6.9,7c-1.5,7.8-1.3,15.4,0.1,23.2c1,5.4-1.5,8.5-7.3,7.4
			c-8.6-1.6-17-1.6-25.6,0C359,564.1,356,562.4,356.4,555.9z M356.8,445.1c-0.4-8.8,1.6-10.7,8.8-9.3c7.5,1.5,14.9,1.5,22.3-0.1
			c6.8-1.4,9.3,0.9,8.2,7.7c-1.2,7.3-1.4,14.4,0.1,21.6c1.3,6.4-1.8,9.5-8.1,8.1c-8-1.7-15.9-1.7-23.9,0c-5.8,1.2-8.8-1.4-7.6-7.7
			C357.9,458.2,358.9,451.1,356.8,445.1z M499.2,519.9c-8.4,1.2-11.1-1.5-9.7-7.9c1.8-7.7,1.7-15.3,0-23.1c-1.4-6.3,1.2-9.6,7.7-8.3
			c7.2,1.5,14.2,1.5,21.4,0c6.7-1.4,9.2,1.2,8,7.9c-1.5,8-1.6,15.9,0,23.9c1.3,6.6-1.6,9.2-8,7.9C511.5,518.9,504.4,518,499.2,519.9
			z M626.6,619.3c0,0.7,0,1.3,0,2c-43.6,0-87.2,0-130.8,0c9.1-2.8,18.3-5.2,27.7-7.2c20.1-4.4,39.8-10.8,60.5-13
			c8.7-0.9,10.4,1.8,9.7,9.2c-0.6,6.3,2.2,9.4,9,9.1C610.6,619,618.6,619.3,626.6,619.3z M353.5,499.7
			C353.5,499.7,353.5,499.7,353.5,499.7c0-5.4,0-10.7,0-16.1c0-2.4-0.2-4.9,3.5-5.1c5.3-0.3,10.7-0.8,16-1.2
			c4.1-0.3,5.8,1.7,5.8,5.7c-0.1,11-0.1,22,0,32.9c0,4.1-2,5.5-6,5.7c-18.7,0.7-19.3,0.2-19.4-17.9
			C353.5,502.4,353.5,501,353.5,499.7z M391,384.8C391,384.8,391,384.7,391,384.8c-24.5-0.1-48.9-0.1-73.4-0.1
			c-2.4,0-4.8-0.1-7.2-0.3c-1.4-0.1-2.6-0.9-2.8-2.5c-0.2-2,1.2-2.9,3-3.1c1.6-0.2,3.2-0.3,4.8-0.3c50,0.1,100,0.2,150,0.2
			c1.3,0,2.7,0,4,0.1c1.9,0.2,4.1,0.4,4,2.9c-0.1,2.5-2.3,2.7-4.2,2.8c-2.1,0.2-4.3,0.1-6.4,0.1C438.8,384.8,414.9,384.8,391,384.8z
			 M390.2,621.7c0,0,0-0.1,0-0.1c-24.5,0-48.9,0.1-73.4-0.1c-3.2,0-8.8,1.8-8.9-2.5c-0.1-5.3,5.8-3.2,9-3.2
			c49.7-0.1,99.4-0.1,149.1,0c1.6,0,3.2,0.1,4.8,0.3c1.4,0.2,2.5,1.1,2.5,2.7c0,1.6-1.2,2.4-2.6,2.6c-2.1,0.2-4.3,0.3-6.4,0.3
			C439.7,621.7,414.9,621.7,390.2,621.7z M618.4,413.5c4.2,0.5,8.6,0.2,8.5,2.6c-0.3,6.6,4.9,12.8,2.2,19.1
			c-4.1,9.6,4.2,19.9-2.1,29.2c6.4,10-0.6,20.8,1.9,31.4c2.3,9.6,0,20.2-0.4,30.1c-0.3,8.3,2.8,16.7,0.3,24.4
			c-3.2,10,3.3,19.8-1.8,30c-2.6,5.1-1.1,6.8-8.7,5.3c3.7-3.2,4.6-7.1,4.6-11.6c-0.1-49.7-0.1-99.3,0-149
			C622.9,421.1,622.4,417.5,618.4,413.5z M219.7,498.5c1.3-9.7,2.2-19.3,6.5-28.2c2.4-4.9,6.5-6.2,10.6-3.4
			c7.1,4.9,6.1,22.1-1.1,26.8c-7.7,5-7.4,14.5,0.2,19.6c3.2,2.1,6.5,6.4,5.1,9.4c-1.4,2.9-1.5,8.3-7.2,8.5c-5.1,0.1-6.8-3.2-8.5-7.1
			C221.7,516,220.9,507.2,219.7,498.5z M146.4,589.1c0,3-0.1,5.9,0,8.9c0.3,5.9-1.5,8.6-8,6.9c-5.9-1.6-12-2.7-18.1-3.9
			c-2.4-0.5-4.6-0.9-5.5-3.8c-3.5-10.4,0.5-17.8,11.2-20.5c1-0.3,2.1-0.6,3.1-0.9C150.7,570.7,145.8,571.6,146.4,589.1z
			 M509.9,594.4C509.9,594.4,509.9,594.4,509.9,594.4c-7.8,0-15.6,0-23.4-0.1c-6.8-0.1-10.3-3.3-10.2-10.5c0.2-13.4,0-26.9,0.1-40.3
			c0-8.6,2.8-11.3,11.7-11.4c13.7-0.2,27.4-0.2,41.1-0.2c2.7,0,5.5-0.4,7.7,1.5c1.6,1.3,3.6,2.8,2.7,5.3c-0.9,2.4-3.1,1.7-4.9,1.5
			c-12.3-1.5-24.7-0.8-37.1-0.7c-15.6,0-20,4.5-20.1,20.2c-0.1,6.4,0.1,12.9,0.3,19.3c0.2,6.7,2.6,10.5,10.4,11.3
			c7.8,0.9,15.5,1.5,23.2,1.5c7,0,14,0.1,20.9-1.3c2.2-0.4,6.1-1.5,6.3,1.3c0.3,4-3.9,2.4-6.2,2.5
			C524.9,594.6,517.4,594.4,509.9,594.4z M597.2,378.8c-5.5,4.7-3.4,10.4-3.4,15.5c-0.1,4.7-0.8,6.7-6.3,5.9
			c-10.9-1.5-21.6-3.4-32.3-5.9c-6-1.4-6.7-5.1-6.5-10c0.2-5.5,3.9-5.6,7.8-5.6C569.6,378.8,582.7,378.8,597.2,378.8z M218.1,384.7
			c0-0.1,0-0.1,0-0.2c-20.4,0-40.9,0-61.3,0c-2.3,0-5.6,0.7-5.7-2.7c-0.2-3.5,3.1-2.9,5.4-3.2c1.1-0.1,2.1-0.1,3.2-0.1
			c38.7,0,77.4,0,116.1,0c1.3,0,2.7,0,4,0.1c2.1,0.2,4.7,0.2,4.6,3.2c-0.1,2.4-2.4,2.6-4.2,2.7c-2.1,0.1-4.3,0.1-6.4,0.1
			C255.2,384.7,236.7,384.7,218.1,384.7z M218,621.6c-20.1,0-40.3,0-60.4-0.1c-2.4,0-6.3,1.1-6.5-2.7c-0.1-3.8,3.7-3.2,6.2-3.2
			c40,0,80.1,0,120.1,0.2c2.6,0,7.1-1.1,6.8,3.2c-0.3,4-4.7,2.5-7.4,2.6C257.3,621.7,237.7,621.6,218,621.6z M821.6,501.5
			c0-12.9,0-25.8,0-38.6c0-2.9-0.4-6.4,4-6.5c4.6-0.1,3.8,3.4,4,6.3c1.8,25.4-0.3,50.8,0.7,76.2c0.1,3.2-0.8,5.9-4.9,5.9
			c-4.9,0.1-3.9-3.5-3.9-6.2C821.6,526.2,821.6,513.8,821.6,501.5z M472.1,609.9c-0.5,0-1-0.1-1.4-0.1c0-73.1,0-146.1,0-219.2
			c0.5,0,1,0,1.4,0C472.1,463.7,472.1,536.8,472.1,609.9z M286.3,556.4c0,0.2,0,0.4,0,0.6c11,0,21.9,0,32.9,0c2.3,0,4.4,0.9,4.3,3.6
			c-0.1,2.4-2.1,2.9-4.1,2.9c-20.5,0.5-41,1.1-61.5,1.5c-2.8,0.1-5.5-0.3-5.7-4.1c-0.2-4.3,2.9-4.6,6-4.6
			C267.5,556.4,276.9,556.4,286.3,556.4z M464.7,552.1c0,0.7,0.1,1.4,0.1,2c-8.7,0-17.5,0.3-26.2-0.1c-8.9-0.4-8.1,5.6-8.2,11.3
			c-0.1,5.8,0,10.7,8.2,10.4c8.4-0.3,16.8-0.8,25.2,1.4c-10,0.9-20,0.9-30,0.8c-3.6,0-4.2-2.8-4.2-5.7c0-28,0-55.9-0.1-83.9
			c0-4.4,1.9-6.4,6.3-6.3c8.9,0.1,17.8,0,26.6,0c-8.3,1-16.6,0.9-25,1c-2.7,0-5.3,0.1-6.5,3.5c-4,10.7,0.5,17.7,11.6,17.7
			c7.4,0,14.9,0,22.3,0c0,0.9-0.1,1.8-0.1,2.7c-8.2,0-16.5,0.3-24.7-0.1c-7.5-0.4-9.9,2.7-9.7,9.9c0.2,6.9,0.3,12.4,9.6,11.8
			c8.3-0.5,16.7-0.1,25-0.1c-8.5,1.7-17.1,2-25.6,1.6c-8.9-0.4-8.8,5.2-9,11.6c-0.2,6.6,1.3,10,8.9,9.8
			C447.6,551.2,456.2,550.6,464.7,552.1z M349.7,466.6c0,9.9,0,19.9,0,29.8c0,2.7-0.1,5.8-4,5.6c-3.2-0.2-3.6-2.8-3.7-5.3
			c-0.1-19.6-0.2-39.2-0.1-58.8c0-2.7,0.5-5.8,4.2-5.6c3.8,0.2,3.6,3.4,3.6,6.1C349.8,447.7,349.7,457.2,349.7,466.6z M325.1,428
			C325.1,428,325.1,428,325.1,428c-9.6,0-19.3,0.1-28.9,0c-2.8,0-6.7,0.7-6.8-3.6c-0.1-4.3,3.8-3.8,6.6-3.8c19,0,38,0.1,56.9,0.3
			c2.6,0,6.1-0.5,6.1,3.4c0,4.5-3.8,3.6-6.6,3.6C343.3,428.1,334.2,428,325.1,428z M852.8,539.6
			C852.8,539.6,852.8,539.5,852.8,539.6c-3.7-0.1-7.5-0.1-11.2-0.1c-5.2,0-5.9-3.4-5.9-7.6c0-4.3,0.4-8.2,6.2-8.2
			c6.4,0,12.8,0.2,19.2-0.1c5.9-0.3,8.8,1.6,8.8,8.1c0,6.8-3.4,8.2-9,7.8C858.1,539.4,855.4,539.6,852.8,539.6z M288.1,442.8
			c-9.4,0-18.7,0.1-28.1-0.1c-3,0-7.4,1.1-7.5-3.6c-0.1-4.9,4.4-3.7,7.3-3.8c19.2-1,38.4,1.2,57.6,1.4c2.3,0,5.6-0.4,5.7,2.9
			c0.1,4-3.7,3.1-6.1,3.2C307.4,442.8,297.7,442.7,288.1,442.8z M554.7,403.7c-3.9-1-8.1-2.1-12.3-3c-19.3-4.6-38.7-9.2-57.9-13.9
			c-2.7-0.6-7.1-0.9-5.9-4.9c1.2-4,5.1-1.3,7.6-0.8c8.4,1.8,16.7,3.9,25.1,5.9c14.4,3.5,28.7,6.9,43.1,10.4c1.9,0.5,4.7,0.6,4.7,3.5
			C559,403.6,556.9,403.7,554.7,403.7z M325.5,597.7C325.5,597.7,325.5,597.7,325.5,597.7c0,2.7-0.2,5.4,0,8
			c0.3,5.9-3.5,6.6-7.9,6.2c-4.2-0.5-10.6,2.4-10.8-5.7c-0.1-5.1-0.4-10.1,0.8-15.2c1.7-7.5,7.4-7.6,13.1-7.3
			c6.3,0.3,4.4,5.5,4.8,9.2C325.6,594.4,325.5,596.1,325.5,597.7z M325.5,402.5c0,1.6,0,3.2,0,4.8c-0.1,9.2-5,12.2-13.1,8
			c-5.1-2.6-8.1-21.7-4.1-25.6c0.4-0.4,0.9-0.6,1.3-0.8c8.4-4.2,15.8,0.3,15.9,9.6C325.5,399.8,325.5,401.1,325.5,402.5z
			 M482.9,620.3c-1.8,0.2-4.1,1.4-4.5-1.5c-0.4-3.2,2.1-3.9,4.6-4.5c15.1-3.7,30.3-7.4,45.4-11c8.6-2.1,17.2-4.1,25.9-6.1
			c1.8-0.4,4.1-0.6,4.7,1.8c0.6,2.4-1.4,3.2-3.2,3.7c-4.2,1.1-8.4,2-12.5,3C523.1,610.5,503,615.4,482.9,620.3z M324.1,572.3
			C324.1,572.3,324.1,572.3,324.1,572.3c10.2,0.1,20.4,0,30.6,0.1c2.3,0,4.4,0.7,4.4,3.5c0,2.8-2.2,2.5-4.1,2.5
			c-19.8-0.3-39.6,2.4-59.5,1.2c-2.6-0.2-6.1,0.5-6.2-3.3c-0.1-4.4,3.7-3.9,6.5-3.9C305.3,572.2,314.7,572.3,324.1,572.3z
			 M781.2,501.1c0-10.8-0.1-21.5,0-32.3c0-2.2-0.5-5.6,3.1-5.3c2.8,0.2,2.4,3.1,2.4,5.2c0,21.5,0,43,0,64.4c0,2.3,0.2,5.6-3.2,5.4
			c-2.9-0.2-2.3-3.2-2.4-5.2C781.2,522.6,781.2,511.8,781.2,501.1z M888.3,549.6c-3.6-1.8-2.3-5.2-2.3-7.8
			c-0.1-27.9-0.1-55.9-0.1-83.8c0-1.1,0-2.2,0.1-3.2c0.1-1.6-0.1-3.6,2-3.8c2.2-0.2,2.2,1.9,2.3,3.4c0.1,1.1,0.1,2.1,0.1,3.2
			c0,28.2,0,56.4-0.1,84.6C890.2,544.8,891.3,547.7,888.3,549.6z M884,508.3C884,508.3,884,508.3,884,508.3
			c-0.1,10.5-0.1,20.9-0.1,31.4c0,2.2-0.6,4.5-3.4,4.6c-2.8,0.1-2.5-2.4-2.5-4.1c0-20.9,0-41.9,0-62.8c0-2.5,0.5-5.3,3.8-4.9
			c2.9,0.4,2.2,3.3,2.2,5.3C884.1,487.9,884,498.1,884,508.3z M319,499.3C319,499.3,318.9,499.3,319,499.3c0,6.2-0.1,12.3,0,18.5
			c0,3.3-1.4,4.9-4.8,4.9c-3.2,0-4.2-1.7-4.2-4.5c0-12.3,0-24.7,0.1-37c0-2.9,0.7-5.5,4.3-5.6c4.2-0.1,4.6,2.8,4.6,6
			C319,487.5,319,493.4,319,499.3z M847.1,498.1C847.1,498.1,847.1,498.1,847.1,498.1c0-4,0-8,0-12.1c0-4.7,2.9-5.8,6.9-5.7
			c4.1,0,5.8,2.1,5.7,6c0,7.5,0,15,0,22.5c0,4.2-1.5,6.5-6.1,6.6c-4.9,0.1-6.8-2.3-6.7-6.9C847.1,505.1,847.1,501.6,847.1,498.1z
			 M448.9,399.9c1.3-3.3-2.7-9,3.7-11.1c8.9-3,13.6,0.4,13.7,9.8c0,2.9,0,5.9,0,8.8c0,3.8-1.5,5.8-5.6,6.2
			C450.3,414.6,448.9,413.2,448.9,399.9z M530.5,597.9c0,0.5-0.1,1-0.1,1.5c-15.4,3.7-30.7,7.4-46.1,11c-3.3,0.8-7.8,3.4-8-3.5
			c-0.2-5,0-9.1,6.8-9.1C498.9,598,514.7,597.9,530.5,597.9z M815.4,460.8c3,1.7,2.2,4.7,2.2,7.2c0.1,23.1,0.2,46.3-0.1,69.4
			c-0.1,4.7-0.3,9.1,2.7,13.1c-7.2-1.6-6.8-7.6-6.8-12.3c-0.3-24.2-0.1-48.4-0.1-72.6C813.4,463.8,812.9,461.6,815.4,460.8z
			 M449,449.2C449,449.2,448.9,449.2,449,449.2c0-5.4,0-10.7,0-16.1c0-3.2,0.5-6.1,4.7-5.9c3.7,0.2,4.1,2.9,4.1,5.7c0,11,0,22,0,33
			c0,2.9-0.5,5.5-4.3,5.5c-3.6,0-4.5-2.3-4.5-5.3C448.9,460.5,449,454.9,449,449.2z M843.5,497.9c0,4,0,8,0,12
			c0,3.6-1.7,5.4-5.4,5.4c-3.7,0-5.4-1.9-5.4-5.4c0-8,0-16,0-24.1c0-3.6,1.7-5.4,5.4-5.4c3.7,0,5.4,1.8,5.3,5.4
			C843.4,489.8,843.4,493.8,843.5,497.9z M494.1,379.6c0-0.3,0.1-0.5,0.1-0.8c14.9,0,29.9,0.1,44.8,0c5.4,0,6,3.1,5.8,7.3
			c-0.2,4-2.2,5.1-5.8,4.3C524.1,386.8,509.1,383.2,494.1,379.6z M793.7,500.4C793.7,500.4,793.7,500.4,793.7,500.4
			c0,11.3,0.1,22.5,0,33.8c0,1.8,0.4,4.6-1.9,4.7c-3.3,0.2-2.4-3-2.4-4.8c-0.1-17.5,0-34.9,0-52.4c0-4.8,0-9.7,0.1-14.5
			c0-1.8,0-4.3,2.7-3.9c2.1,0.3,1.4,2.6,1.4,4.1C793.7,478.4,793.7,489.4,793.7,500.4z M490.2,436c0,4.8,0.1,9.6,0,14.4
			c-0.1,2.3,0.6,5.3-3,5.5c-3.5,0.2-5.8-1.7-5.8-5.2c-0.1-9.9-0.1-19.7,0.1-29.6c0.1-2.9,1.8-5.1,5.2-4.8c3.2,0.3,3.5,2.8,3.5,5.3
			C490.3,426.4,490.2,431.2,490.2,436z M490.2,566C490.2,566,490.2,566,490.2,566c-0.1,4.8,0,9.6-0.1,14.4c0,2.4-0.1,5.1-3.4,5.4
			c-3.4,0.4-5.1-1.7-5.3-4.7c-0.7-9.9-0.9-19.8,0-29.6c0.3-2.9,1.9-5.1,5.3-4.7c3.2,0.4,3.4,3,3.4,5.5
			C490.3,556.9,490.2,561.4,490.2,566z M151.3,553.3c0-35.9,0-71.8,0-107.8C154.4,481.5,153.2,517.4,151.3,553.3z M806.4,462
			c4.6,8.7,4,72.8,0,77.2C806.4,513.9,806.4,488.9,806.4,462z M799.4,463.8c2,0.5,2.2,2.2,2.2,3.8c0,22,0.1,44.1,0,66.1
			c0,1.8,0.2,4.6-2.1,4.5c-2.9-0.1-2.3-3.2-2.3-5.1c0-21.2,0-42.5,0.1-63.7C797.3,467.3,796.7,464.9,799.4,463.8z M283.4,475
			c0,0,0-0.1,0-0.1c-3.5,0-6.9,0-10.4,0c-3.3,0-4.8-1.8-4.9-5c-0.1-3.6,1.4-5.6,5.1-5.7c7.2,0,14.4-0.1,21.6,0
			c3.3,0,4.7,1.9,4.8,5.1c0.1,3.5-1.3,5.7-5,5.7C290.8,475.1,287.1,475,283.4,475z M514.7,404.6
			C514.7,404.6,514.7,404.6,514.7,404.6c7,0,14,0,20.9,0.1c2.4,0,4.3,1,4.3,3.7c-0.1,2.8-2.1,3.5-4.5,3.4c-1.9-0.1-3.7-0.4-5.6-0.6
			c-11.8-1.5-23.6-0.8-35.4-0.5c-2,0.1-5,3-5.3-1.7c-0.2-3.6,2.4-4.4,5.4-4.4C501.3,404.6,508,404.6,514.7,404.6z M452.1,422.9
			c14.1-0.9,14.1-0.9,14.1,12.8c0,10.7,0.1,21.4-0.1,32.2c0,2.5,0.9,6.2-3.4,5.9c-3.5-0.3-2.5-3.6-2.5-5.8
			c-0.1-11.8,0-23.6,0.1-35.4C460.6,426.8,459.9,422,452.1,422.9z M197.6,391.9C197.6,391.9,197.6,391.9,197.6,391.9
			c2.1,0,4.3,0,6.4-0.1c4.3-0.2,7.3,0.8,7.2,6.1c0,5.3-3.3,6-7.4,6c-4.8,0-9.6,0-14.4-0.1c-4.4,0-5.1-2.9-5.1-6.5
			c0-3.6,1.6-5.5,5.3-5.5C192.2,391.9,194.9,391.9,197.6,391.9z M896.4,567.7c-0.5,0-1,0-1.5,0c0-34.8,0-69.7,0-104.5
			c0.5,0,1,0,1.5,0C896.4,498,896.4,532.9,896.4,567.7z M872.4,497.2C872.4,497.2,872.4,497.2,872.4,497.2c0.1,3.8,0.1,7.5,0.1,11.3
			c0,3.3,0.1,6.9-4.7,6.7c-4.6-0.2-4.6-3.7-4.6-7c-0.1-7.5,0-15-0.1-22.5c0-3,0.4-5.3,4.2-5.3c3.2,0.1,5.1,1.4,5.2,4.7
			C872.4,489.1,872.4,493.1,872.4,497.2z M241.7,552.3c-9.3,1.9-18.8,1.5-28.2,3c-10.5,1.7-11.6-0.2-11.3-11.2
			c0.1-4.2,0.7-4.6,5-3.1C218.5,544.8,228.4,553.3,241.7,552.3z M361.3,415.9c9.9,0,19.5,0,29.1,0c3.1,0,6.1,0.5,6,4.7
			c-0.1,4.2-3.2,4.3-6.3,4.4c-5.6,0.1-11.2-0.4-16.8,0.1C366.7,425.7,362.5,423.6,361.3,415.9z M255.9,457c1.9-1.1,2.7-2.1,3.6-2.1
			c20.3-0.1,40.6-0.1,60.9-0.1c1.3,0,3.1,0.3,3.1,1.9c-0.1,2.9-2.6,2.1-4.3,2.1c-17.1,0-34.2,0-51.3-0.1
			C264.3,458.6,260.5,459.7,255.9,457z M870.2,405.9c6.5,7.1,11.4,12.3,16.1,17.7c1.1,1.2,3.2,4.3,1,4.4c-7.2,0.5-10.6,7.3-17.1,9.6
			C870.2,427.4,870.2,417.9,870.2,405.9z M448.3,523.1c0,0.1,0,0.1,0,0.2c-2.1,0-4.3-0.1-6.4,0c-4.8,0.3-6.7-2.1-7.1-6.6
			c-0.4-5.2,3-5.5,6.8-5.5c5.1,0.1,10.2,0.3,15.2,0.4c3.4,0,4.8,1.7,4.6,5c-0.1,3.1-0.3,6.2-4.3,6.5
			C454.2,523.3,451.2,523.1,448.3,523.1z M379.4,583.3c0-0.1,0-0.2,0-0.3c-3.8,0-7.5,0.1-11.3,0c-2.3-0.1-5.2,0.3-5-3.5
			c0.2-3,1-5.4,4.6-5.4c8,0,16.1,0,24.1,0c2.3,0,4.3,0.8,4.5,3.6c0.2,2.9-1.2,4.7-4.1,5C388,583,383.7,583.1,379.4,583.3z
			 M870.6,594.9c-1.6-10.8-0.9-18.8-0.9-26.7c0-3.1,0.8-4.8,4.2-2.5c4.1,2.8,7.5,6.8,12.8,7.8c2.4,0.4,1.6,2.5,0.4,3.7
			C882.2,582.6,877.1,588,870.6,594.9z M255.1,409.7C255.1,409.7,255.1,409.7,255.1,409.7c0-2.9,0-5.9-0.1-8.8c0-3.9,1.6-6,5.7-5.9
			c3.9,0.1,5.1,2.3,5,5.7c0,5.9,0,11.8,0,17.6c0,3.5-1.9,4.6-5.2,4.3c-2.8-0.3-5.5-0.3-5.5-4.1C255.1,415.6,255.1,412.7,255.1,409.7
			z M161.7,405c0-2.4,0.1-4.8,0-7.2c-0.2-4.5,2-6.1,6.4-6.1c4.9,0,4.8,3,4.7,6.4c-0.1,5.1-0.3,10.2,0,15.3c0.3,4.5-2,5.4-5.8,5.6
			c-4,0.2-5.4-1.4-5.3-5.1C161.8,410.9,161.7,408,161.7,405z M450.2,546.5c-4.7,0-7.1-0.3-9.5,0.1c-4,0.5-6.1-0.6-6.1-5
			c0-4,1.4-6.1,5.6-6.1c5.1,0,10.2,0.1,15.3,0c4.6-0.1,6,2.3,6,6.5c0,4.6-2.6,5.3-6.3,4.9C452.7,546.7,450.3,546.5,450.2,546.5z
			 M476.3,431.6C476.3,431.6,476.3,431.6,476.3,431.6c0-9.4,0-18.8,0.1-28.2c0-2.2,0.4-4.4,3.1-4.9c2-0.4,4.5-0.3,4.9,1.6
			c0.9,4.5,3,9.8-2,13.2c-2.9,2-3.5,4.4-4,7.4c-1.5,9.9-1.2,19.8-0.4,29.7c0.3,3.7,0.7,7.6,5.1,9.3c1.3,0.5,2.2,1.7,1.7,3.2
			c-0.6,1.9-2.4,1.9-3.9,2c-4.4,0.2-4.5-2.8-4.5-5.9C476.3,449.8,476.3,440.7,476.3,431.6z M290.5,605.9c0-2.7,0-5.4,0-8.1
			c0-3.9,1.6-6,5.8-5.9c3.9,0.1,5.2,2.2,5.2,5.6c0,5.6,0,11.3,0.1,16.9c0.1,4.2-2.5,4.6-5.8,4.6c-3.2,0-5.3-0.8-5.2-4.4
			C290.5,611.8,290.5,608.8,290.5,605.9z M161.7,594.2C161.7,594.2,161.7,594.2,161.7,594.2c0-2.7,0-5.4,0-8c0-3.4,1.1-5.7,5-5.8
			c3.5-0.1,5.7,1.3,5.9,5c0.2,5.4,0.3,10.7,0.3,16.1c0,3.9-2,5.8-6.1,5.7c-4.5-0.1-5.2-2.9-5.1-6.5
			C161.7,598.5,161.7,596.3,161.7,594.2z M197.2,606c0,0,0,0.1,0,0.1c-2.1,0-4.3,0-6.4,0c-3.2,0-6.5,0.6-6.6-4.5
			c-0.1-4.9,1.9-6.8,6.7-6.6c4.8,0.2,9.6,0.1,14.4,0.1c3.4,0,5.7,1.1,5.8,5c0.1,4.1-2,5.9-5.8,5.9C202.6,606,199.9,606,197.2,606z
			 M255.2,591.2c0,0-0.1,0-0.1,0c0-2.9,0-5.9,0-8.8c0-3.7,2-5.2,5.6-5.1c3.2,0.1,5,1.5,5.1,4.8c0,5.9,0,11.7-0.1,17.6
			c-0.1,2.9-1.8,4.3-4.6,4.3c-2.9,0.1-5.5-0.5-5.8-4C255.1,597.1,255.2,594.1,255.2,591.2z M290.5,394.4
			C290.5,394.4,290.5,394.4,290.5,394.4c0-2.7,0-5.3,0-8c0-3.8,1.4-6.1,5.7-6c3.8,0,5.2,2.1,5.2,5.6c0,5.3,0,10.7,0,16
			c0,3.6-1.9,5.3-5.5,5.2c-3.8-0.1-5.2-2.1-5.3-5.6C290.5,399.2,290.5,396.8,290.5,394.4z M447,570.3C447,570.3,447,570.4,447,570.3
			c-2.1,0.1-4.3,0-6.4,0.1c-4,0.2-5.9-1.4-6-5.6c-0.1-4.3,2.2-5.6,6-5.5c5.1,0.1,10.2,0,15.3,0.1c3.6,0,5.4,1.8,5.4,5.5
			c0,3.7-1.9,5.4-5.5,5.5C452.9,570.3,449.9,570.3,447,570.3z M448.3,499.2c0,0.1,0,0.1,0,0.2c-2.7,0-5.4,0-8,0
			c-3,0-5.4-0.6-5.5-4.2c-0.1-3.7,1.1-6.5,5.3-6.6c5.4-0.2,10.7-0.1,16.1-0.1c3.7,0,5.3,2.1,5.2,5.6c-0.1,3.3-1.7,4.9-5,5
			C453.7,499.2,451,499.2,448.3,499.2z M856.3,459.1c4,0.4,8-0.1,12-0.7c3.3-0.6,4.1,1.7,4,4.4c-0.1,2.7-1.6,3.8-4.2,3.4
			c-10.1-1.7-20.2-1.4-30.4-0.1c-2.9,0.4-4.8-0.2-4.9-3.5c-0.1-3.6,1.8-4.9,5.1-4.1C844,460,850.2,458.9,856.3,459.1z M321.9,543.1
			c-21.8,1.7-43.7,2.5-65.4-0.9C278.3,538.9,300.1,541.7,321.9,543.1z M827,454.2c0-3,1.3-3.9,2.5-4c16.8-1.2,33.7-0.5,50.5-0.4
			c1.3,0,2.8,0.6,2.6,2.3c-0.2,1.7-1.8,1.8-3.2,1.8c-7.5,0.1-15,0.2-22.5,0.2C846.9,454.2,836.9,454.2,827,454.2z M252.2,540.4
			c-0.5,0-0.9-0.1-1.4-0.1c0-27.3,0-54.5,0-81.8c0.5,0,0.9,0,1.4,0C252.2,485.8,252.2,513.1,252.2,540.4z M867.7,444.8
			c0.1,0.7,0.1,1.3,0.2,2c-24.6,0-49.3,0-73.9,0c0-0.7,0-1.3,0-2C818.6,444.8,843.2,444.8,867.7,444.8z M203.1,457.3
			c-1.5-11.5-1.1-12.7,9.3-12.9c8.1-0.1,16.2,2.6,24.5,2c1.9-0.1,4.2-0.7,6.2,2.3C228.6,448.5,215.3,450.3,203.1,457.3z
			 M284.3,531.4c0,0,0-0.1,0-0.1c-3.8,0-7.5,0.1-11.3,0c-2.3,0-4.4-0.6-4.6-3.4c-0.1-2.8,1.8-3.7,4.2-3.7c7.5-0.1,15,0,22.6,0
			c2.5,0,4.2,1,4,3.8c-0.2,2.8-2,3.5-4.5,3.5C291.3,531.4,287.8,531.4,284.3,531.4z M866.9,554.6c0,0.9,0,1.7,0,2.6
			c-24,0.2-47.9,0.5-71.9-2.6C818.9,554.6,842.9,554.6,866.9,554.6z M538.8,461.7c-0.8,3.7-2.8,5-5.3,5c-13.4,0.1-26.8,0.1-40.2,0.1
			c-1.6,0-3.7-0.5-3.5-2.4c0.2-3,2.8-1.8,4.4-1.7C508.8,463.6,523.5,462.8,538.8,461.7z M341.6,554.1c0.2,0,0.3,0,0.5,0
			c0-2.9-0.1-5.9,0-8.8c0.1-2.6,0.8-4.9,4-4.9c2.7,0.1,3.6,2.1,3.6,4.4c0.1,6.2,0.1,12.3,0,18.5c0,2.6-0.8,4.9-4,4.8
			c-2.8-0.1-3.5-2.1-3.7-4.4C341.8,560.5,341.7,557.3,341.6,554.1z"/>
		<path d="M791.9,583.6c-11.6-9.2-85.5-11.2-105.9-2.3c19.7-0.9,37.1-1.9,54.5-2.3C757.7,578.5,775,579.4,791.9,583.6z"/>
		<path d="M689.3,421.5c31.9,4.4,63.8,7.7,95.6,0c-15.7,3.7-31.8,1.2-47.7,1.9C721.1,424.2,705.3,420.2,689.3,421.5z"/>
		<path d="M577.1,442.4c0,1.6,0,3.2,0,4.8c0,13.2,0.6,13.8,14.3,13.7c11.7-0.1,12.2-0.6,12.2-12.3c0-5.4,0-10.7,0-16.1
			c0-1.9,0.4-4.2-0.5-5.5c-5-7.5-12.7-2.5-19.2-3.8c-4-0.8-6.5,2.1-6.6,6.3c-0.1,4.3,0,8.6,0,12.9
			C577.3,442.4,577.2,442.4,577.1,442.4z"/>
		<path d="M603.6,556c0-0.5,0-1.1,0-1.6c0-17.2,0-16.9-17.2-16.7c-6.5,0.1-9.4,2.6-9.2,9c0.2,7,0.1,14,0.1,20.9c0,5.3,2.5,7.5,7.9,8
			C603.4,577,603.6,576.9,603.6,556z"/>
	</g>
</g>
<g id="text">
</g>
<g id="scratch">
</g>
<g id="guides" display="none">
</g>
</svg>
