<?xml version="1.0" encoding="utf-8"?>
<!-- Generator: Adobe Illustrator 26.0.2, SVG Export Plug-In . SVG Version: 6.00 Build 0)  -->
<svg version="1.2" baseProfile="tiny" xmlns="http://www.w3.org/2000/svg" xmlns:xlink="http://www.w3.org/1999/xlink" x="0px"
	 y="0px" viewBox="0 0 1000 1000" overflow="visible" xml:space="preserve">
<g id="bg">
</g>
<g id="counters">
	<g>
		<path stroke="#000000" stroke-width="2" stroke-miterlimit="10" d="M880.9,510c3.4,0,6.3-0.1,9.1,0c1.9,0.1,2.7-0.6,2.7-2.8
			c-0.1-4.2,0-8.4,0.1-12.5c0.1-2.4-0.5-3.4-2.9-3.4c-5.8,0-11.6-0.9-17.4-0.5c-2.3,0.2-2.7-1.1-2.7-3.2c0.1-11.2-0.1-22.4,0.5-33.6
			c0.1-1.9,0-3.8-0.1-5.7c-0.2-3.4,1.1-4.7,4.1-4.3c2.1,0.3,4.2,0.3,3.7-3.4c-0.2-1.8-0.7-2.6-2.3-2.4c-0.7,0.1-1.6,0.3-1.9-0.8
			c-0.3-1,0.5-1.5,1-2.1c3.2-3.7,6.5-7.1,10.7-9.3c5-2.6,9-6.5,11.3-12.4c1.1-2.9,1.3-6,1.4-9.1c0.2-7.3,0.1-14.6,0.2-21.9
			c0-1.5-0.1-3.1-1.7-3.3c-2.8-0.2-3.6-2.8-3.3-4.7c1.4-8-2.8-12.8-7.2-17.4c-12.6-13.2-24.5-27.3-36.8-40.8
			c-3.8-4.1-7.5-8.3-11.2-12.6c-1.1-1.3-2.3-1.9-3.8-2.2c-9.1-1.5-18.3-0.6-27.5-0.4c-18.8,0.5-37.6,0.1-56.4,0
			c-24.6-0.1-49.2-0.6-73.7-0.6c-20,0-40.1,0.4-60.1,0.5c-14.3,0.1-28.7,0.1-43,0.1c-26.4-0.1-52.8-0.4-79.2-0.5
			c-20.5-0.1-40.9-0.6-61.4,0c-20,0.6-39.9-0.3-59.8,0c-18.3,0.2-36.7,0.4-55,0.4c-14.9,0-29.8-0.4-44.6-0.4
			c-15.6,0-31.2,0.4-46.7,0.3c-36.1-0.2-72.2-0.5-108.4-0.8c-1.1,0-2.7-0.8-3.2,0.4c-0.5,1-3.4,2.2-0.5,4c0.3,0.2,0.1,1.3,0.1,2.1
			c-0.2,22-0.4,43.9-0.5,65.9c0,3.2-0.9,4.4-3.6,4.2c-1.2-0.1-2.4-0.2-3.5,0.1c-1.7,0.5-3.3,0.7-2.8,4.1c0.7,5.4,0.2,11,0.2,16.4
			c0.1,12.9-0.7,25.7-1,38.6c-0.3,13.4,0.2,26.9-0.4,40.3c-1,23-0.9,46.1-1.1,69.1c-0.2,23.9-0.2,47.7-0.9,71.6
			c-0.1,3.4,0.9,4.9,4.1,5.2c7,0.6,7.1,0.8,7,8.8c-0.2,20.8-0.4,41.6-0.5,62.3c0,5.6,0,5.8,4.7,5.6c17.5-0.5,35-0.1,52.5-0.2
			c35.8-0.2,71.5-0.1,107.3,0c36.8,0.1,73.7-0.1,110.5,0.1c16.6,0.1,33.3,0.7,49.9,0.3c17.3-0.5,34.6-0.1,51.9-0.1
			c13.9,0,27.9,0.6,41.8,0.3c37.6-0.9,75.2,0,112.8,0.2c6.5,0,13,0.2,19.6,0c45.1-0.8,90.2,0.2,135.3,0.4c8.5,0,17.1,0.1,25.6,0
			c3.5,0,6.9-2.2,10.6-1.3c0.7,0.2,1.7-1.2,2.4-2.1c11-13.7,23-26.3,34.3-39.7c5.9-7,12-13.7,18.2-20.3c2.1-2.3,1.7-4.8,1.4-7.2
			c-0.3-2.9,0.2-4.4,3.1-4.2c1.4,0.1,2.5-0.6,2.5-2.4c0.3-10.1,0.5-20.2-0.1-30.3c-0.4-8-4.7-13.3-10-17.7c-3.4-2.8-6.9-5.4-9.7-8.9
			c-0.8-1-1.3-1.6-0.4-3.2c1.7-3.1,0.5-5.3-2.7-5.4c-1.7,0-2.5-0.7-2.9-2.4c-0.3-1.5-0.8-2.9-0.8-4.5c-0.1-12.3-0.5-24.6-0.1-36.8
			c0.1-2.1,0.6-3.1,2.5-3C875.4,510.5,878.4,509.7,880.9,510z M866.1,651.3c-4.3,3.1-7.5,7.5-11.1,11.5c-3.1,3.4-6.1,6.7-9.7,10.7
			c0-2-1.1-3.3,0.3-4.3c3-2.1,5.1-5.3,7.6-8c2.9-3.2,6.1-6.1,8.5-9.9c-1-0.1-1.5,0.7-2.1,1.4c-3.4,3.7-6.9,7.4-10.3,11.1
			c-3.2,3.6-3.2,3.7-5.8-0.5c-1.9-3.2-4-5.6-7.8-3.4c-0.9,0.5-2.1,0.2-3-0.7c-0.7-0.6-1.5-1-2.4-0.7c-2.5,1-2.5-0.8-2.5-2.8
			c-0.1-9.2-0.2-18.4-0.4-27.6c0-0.7,0.4-1.7-0.7-2c-1.1,0.9-0.7,2.2-0.6,3.3c0.5,8.4-0.2,16.9-0.2,25.3c0,4.9-0.1,4.9-4.5,4.9
			c-0.9,0-1.8,0.2-2.8,0.5c-4.3,1.4-6.6,0.1-8.7-4.3c-0.1-0.2-0.5-0.2-1-0.4c-0.1,2.5,1,4,2.6,5c2.9,1.8,5.8,1.9,8.8,0.5
			c0.7-0.3,1.5-0.7,2.1,0c0.7,0.8-0.1,1.5-0.6,2.1c-3,4.5-3.3,6.7,0.8,9.9c4,3.1,3.8,6.9,3.6,11.2c-0.1,2.7-0.1,5.5-0.3,8.2
			c-0.3,5.6-0.4,5.5-5.3,5.6c-25.5,0.1-51.1,0.2-76.6,0.2c-15.2,0-30.4-0.2-45.6-0.3c-1.9,0-2.9-0.4-3.1-2.8
			c-0.5-7.9-0.7-15.7-0.4-23.6c0.5-17.8,0.4-35.6,0.5-53.4c0-3.6,0.8-4.7,3.9-4.8c1.2,0,2.3-0.1,3.5-0.2c8.6-0.8,17.2-2,25.8-2.4
			c4.3-0.2,7.7-1.8,10.7-5c1.9-2,3.4-4.2,4.9-6.6c0.4-0.6,0.4-1.9,1.5-1.3c0.6,0.3,1,1.6,1.7,0.5c0.7-1,0.5-2.3,0.1-3.4
			c-0.3-0.7-1.6-1.1-0.5-2.3c1.3-1.6,1-3.6,1-5.5c0.1-10.3,0-20.5,0-30.8c0-0.8,0.5-2.1-0.6-2.5c-1.9-0.6-0.7,2.1-2,2.4
			c-0.4-0.7-0.8-1.4-1.3-2c-3.4-4.9-7-9.3-13.2-9.3c-1.8,0-3.6,0-5.4-0.3c-10.3-1.7-20.6-3.5-31-3.1c-2,0.1-3.4-0.4-4.2-4
			c-0.4,3.8-2,3.6-3.7,4c-3.1,0.7-6.1-0.2-9.2-0.2c-4.3,0-8.7-0.1-13-0.1c-1.8,0-2.8-0.3-2.3-2.9c0.7-4.1,1.1-8.2,1.6-12.3
			c0.2-1.3,1.3-3.3-0.4-3.5c-1.6-0.2-1,2.2-1.1,3.5c-0.4,4.5-1,8.9-2.5,13.2c-0.4,1.1-1,1.9-2.1,1.8c-1.5-0.2-1-1.6-0.9-2.5
			c0.4-3.9,1-7.8,1.3-11.7c0.3-4.2,1.2-5,4.7-5.6c6.2-1,12.4-0.2,18.6-0.9c2.2-0.2,4.7,0.2,4.8-3.9c0-1,0.8-3.9,3-3.3
			c2.2,0.6,0.8,2.8,1.2,4.2c0.4,1.7-1,3.8,1.1,5.5c0-2.6,0-4.8,0-7c0-1.3,0.2-2.6,1.5-2.7c1.7-0.1,1.2,1.6,1.2,2.7
			c0,6.5-0.1,12.9-0.1,19.4c0,1.4-1,3.6,0.8,4.1c1.8,0.5,3.9,0.8,5.7-0.7c-0.9-1.2-1.9-0.7-2.8-0.8c-1.1-0.1-1.8-0.6-1.8-1.9
			c0-6.8,0-13.6-0.1-20.4c0-2,0.9-2.3,2.4-2.4c16.9-0.4,33.8-1,50.7-1.3c17.9-0.3,35.9,0.5,53.8-0.5c3-0.2,3.7,1.1,3.8,4.3
			c0.2,11.6,0.2,23.1,0.2,34.7c0.1,16.8-0.1,33.7-0.3,50.5c-0.1,6.7-0.1,13.4-0.2,20c0,2.1,0.5,3.8,2.8,3.7c7.9-0.5,15.8,0,23.8,0.1
			c17.3,0.2,34.7,0.3,52,0.6c4,0.1,4.3,0.8,4.3,5c0,3.2-1.2,5.7-3.1,7.9c-8.1,9.2-16.1,18.4-24.1,27.8c-7.1,8.3-15,15.7-21.7,24.4
			c-1.5,2-3.4,3.6-5.2,5.2c-1.9,1.8-4.1,1.9-6.3,0.9c-1.9-0.9-1.3-3.1-1.3-4.8c-0.1-4.1,0-8.1,0.1-12.2c0-1.6,0.1-3.2,2.2-3.3
			c-1.8-0.5-3.3-1.3-4.7-2.3c-3.4-2.6-4.6-5-3.6-7.7c1.3-3.4,7.1-7.3,9.6-6c2.2,1.2,4.3,1.6,6.6,0.8c1.1-0.4,1.5,0.4,1.5,1.6
			c0,3.8-0.1,7.7-0.1,11.5c0,0.7-0.1,1.5-0.9,1.6c-0.9,0.1-0.8-0.9-0.9-1.5c-0.2-1,0.6-2.4-0.8-3c-1.1,1.4,0.5,3.3-0.8,4.4
			c-1,0.9-2.8-0.4-4.2,1.2c1.7,0.4,3.7-1,4.3,0.6c0.6,1.5-1.4,2.3-2.2,3.5c-0.3,0.4-0.6,0.7-0.9,1.1c-0.8,1.5-2.1,3-0.6,4.8
			c1.7,2,2.9,0,4-1.1c7.2-8,14.5-15.9,21.5-24.1C860.6,658,864.2,655.5,866.1,651.3z M571.2,308.6c1.7,0.1,3.3-0.9,4.9-1.4
			c4.6-1.3,8.8-4.3,13.5-4.4c11-0.3,21.9,0,32.9-0.4c21.7-0.7,43.3-0.1,65,0.2c5,0.1,4.5-0.7,4.9,4.8c0,0.1,0.3,0.2,0.4,0.3
			c0.9-0.5,0.6-1.4,0.7-2.2c0.1-1-0.8-2.6,1-2.8c1.4-0.1,1.6,1.3,1.8,2.5c0.1,0.9,0.3,1.9,0.2,2.8c-0.7,6.9-0.5,13.8-0.6,20.8
			c-0.3,18.4-0.5,36.7-0.9,55.1c0,1.2,1,5.6-2.5,2.1c-0.4-0.4-0.8-0.6-1-0.1c-1.1,2.2-3,1.3-4.6,1.3c-6.2,0-12.5-0.1-18.7-0.1
			c-12.9-0.1-25.7-0.3-38.6-0.4c-1.4,0-2.5-0.1-2.7-2.1c-0.1-1.1-1.2-1.6-1.9-2.3c-3.3-3.6-7.5-6-10.9-9.6
			c-5-5.1-9.8-10.5-15.7-14.3c-4.2-2.7-8.4-5.4-12.6-8c-5.3-3.3-10.8-6.3-16.6-8.4c-6.9-2.5-13.8-5.3-21.1-6.9
			c-6.7-1.4-13.4-2.4-20.2-3.2c-5.9-0.6-11.8-0.2-17.7-0.4c-0.5,0-2.3,0.8-1.5-0.9c0.7-1.5,0.2-1.5-0.6-1.1
			c-4.7,2.3-9.9,2.1-14.7,3.4c-9.4,2.5-19,2.1-28.5,4c-9.2,1.9-18.5,2.8-27.8,4.1c-7.9,1.1-15.8,2.3-23.7,3.4
			c-7.9,1.1-15.8,2.3-23.6,4.1c-4.8,1.1-9.6,1.8-13.4-2.9c-0.9-1.1-2.1-2-3.1-3c-7-7.6-15.3-10.3-24.9-8.7
			c-7.9,1.4-13.9,6.3-17.8,13.6c-2.7,5.1-4.1,11.2-3.7,17.5c0.2,2.4,0.7,3.4,3,3.3c2.3-0.1,2.8-1.2,2.7-3.6
			c-0.2-6.1,0.5-11.8,4.6-16.5c6.1-6.9,13-10.2,21.7-7.3c6.7,2.2,11.6,7.5,16.8,12.3c0.8,0.8,0.8,1.9,0.7,3
			c-0.1,5.1-0.1,10.3-0.2,15.4c-0.1,4.6-0.3,4.8-4.4,4.7c-10.4,0-20.7-0.1-31.1-0.2c-0.7,0-1.7,0.5-2.4-0.7c0.8-1.2,1.7-2.4,2.4-3.6
			c2-3.3,4-3.9,6.6-1.4c4.4,4.2,8.7,3.8,13.3,0.6c2.1-1.5,4.2-3,7-2.4c1.5,0.3,2.8-0.4,3.4-1.9c0.5-1.4,0.5-2.9-0.8-4.2
			c-1.2-1.2-1.7-3.2-0.1-4.6c1.5-1.3,0.5-2.7,0.4-3.9c-0.1-1.6-1.5-1.2-2.3-1.1c-2.8,0.3-4.9-1-7.2-2.7c-5.9-4.2-9.6-5.1-15.4,1.5
			c-1.4,1.7-3,1.7-4.6,0.6c-1.2-0.8-2.4-1.2-3.4,0c-0.8,1.1-0.8,2.5-0.4,4c1.2,4.5,0.8,9.1-0.9,13.3c-2,4.7-5,8-10.3,6.5
			c-1.4-0.4-3-0.2-4.4,0c-1.9,0.2-3-0.3-3.8-2.5c-1.2-3.3-3.1-5-6.8-4.6c-9.8,1-19.6-0.4-29.2-2.1c-0.8-0.1-1.7,0.3-2.1-1.1
			c-0.7-2.2,0.5-5.6,2.2-6.4c-3.2-2.2-6.7-2.5-10.5-0.8c0.5,0.2,0.9,0.4,1.2,0.5c2.3,1,1.5,3.2,1.3,4.9c-0.3,2.1-1.8,1-2.8,0.8
			c-4.5-0.7-9-1.5-13.4-2.1c-9.6-1.4-19.4-1-28.9-3.1c-0.8-0.2-1.9,0.3-2.1-1c-0.2-1.1,0.8-1.5,1.5-2c1.9-1.4,1.3-3.8,1.5-5.8
			c0.1-1-0.5-1.8-1.3-1.7c-2.4,0.3-4.3,0-4.8-3.4c-0.1-0.6-1.1-1.1-1.8-1.4c-2.6-1.2-5.2-2.5-7.9-3.5c-2.9-1-4.5,0.1-5.2,3.4
			c-0.4,1.9-1.2,2.5-2.7,3.3c-2.1,1.2-4.3,3.2-4.2,6.6c0,1.6,0.6,3.2,2.1,3c4.2-0.4,3.7,2.4,3.2,5.4c-0.3,2.1,0,4.4-0.5,6.4
			c-0.8,3.1,0.1,4.3,2.8,4.6c2.9,0.4,6,1.6,8.7,0.4c2-1,3.8-2.5,5.9-3.5c8.7-4.1,17.9-5.1,27-3.4c10.8,1.9,21.3,5.4,32.8,8.4
			c-3.1,1.2-5.6,1-8,1.1c-15.3,0.4-30.6-0.4-45.8,0.4c-7.8,0.4-15.6,0-23.4,0.1c-21,0.2-42,0.3-63,0.6c-2.1,0-3.2-0.5-3.5-3.2
			c-0.9-8.5-1.5-17.1-3.1-25.5c-2.7-14.1-2.5-28.7-6.2-42.6c-0.8-2.9,0.4-3.9,3.1-3.8c6.4,0.1,12.8-0.2,19.1-0.2
			c9.6,0,19.2-0.2,28.8,0.1c12.4,0.4,24.8-0.5,37.2,0.7c4.1,0.4,8.5-0.4,12.8-0.4c26,0.1,51.9,0.3,77.9,0.7c10,0.1,20-0.8,29.9-0.8
			c17.5,0,35,0.6,52.6,0.1c25.5-0.8,51.1,0.2,76.6-0.5c24.5-0.7,48.9,1.1,73.4,0.5c11.7-0.3,23.4,0.2,35.2,0.3
			c1.2,0,2.4-0.3,4.1,0.7c-1.7,1.1-3,1.8-4.5,2.3C575.2,306.4,572.8,306.6,571.2,308.6L571.2,308.6z M424.8,383.4
			c-0.4,0.2-1,0.5-1.1,0.1c-0.9-2.2-2.3-3-4-1.5c-1.5,1.4-0.8,3.3,0.4,4.6c1,1.1,0.3,1.4-0.3,2.1c-5.1,5.7-10.2,4-15.4,1.6
			c-1.8-0.8-3.6-1.9-0.7-4.2c1.4-1.1,1.2-3.1-0.4-4.2c-1.4-0.9-2.6-0.3-3.3,1.5c-0.2,0.5,0.1,1.3-0.8,1.1
			c-6.5-8.8-4.3-16.5,0.6-23.6c0.7-1,1.6-1.6,1.9,0.2c0.3,2,1.6,2.2,2.8,2.1c1.4-0.2,2.2-1.6,2-3.1c-0.3-2.1,0.6-2.1,1.9-2.2
			c1-0.1,2.1-0.5,3.1-0.6c4.6-0.5,9.2-1,12.3,4.1c1.8,3,3.4,6.3,3.9,10.1c0.5,4,0.2,7.9-2.2,11.1c0.8-0.1,1.6-0.2,3-0.3
			c-1.6,1.7-2.9,2.7-3.8,4.1c-3.6,6.1-7.6,11.9-10,19c-2.9,8.6-5.3,17.2-4.9,26.7c0.4,9.4,3.5,17.7,7,25.8
			c2.8,6.6,6.5,12.7,11.5,17.7c4.1,4.1,8.8,6.7,13.5,9.5c6.3,3.8,13,5.6,19.9,6.1c14,0.9,26.9-3.4,37.7-13.7
			c10.4-9.9,18.4-21.9,19.9-37.9c0.2-2,1.1-2.7,2.7-2.7c2.1,0,4.2,0,6.3,0c0.8,0,2,0,1.9-1.3c-0.3-4,0.9-8.5-0.7-12
			c-1.4-3.1-5.1-1.1-7.7-1.6c-0.2,0-0.4,0-0.6,0c-1.2,0.1-1.6-0.6-1.7-1.9c-0.5-6.2-2.3-11.8-5.1-17.4c-7-14.1-16-25.3-29.8-30.9
			c-13.2-5.4-26.2-5.7-39.4,0.1c-4,1.8-7.9,3.9-12.5,6.2c1.8-3.5,5.3-3.7,6.7-7.2c-3.2,2.4-6.3,4-8.9,6.5c-0.9,0.9-1.9,1.1-1.8-0.7
			c0.4-5.3-0.6-10.1-3.4-14.5c-0.4-0.6-0.9-1.5,0.3-2c6.1-2.3,12.2-5.3,18.5-6.6c9.3-1.9,18.8-2.6,28.2-3.8c2.4-0.3,4.7-1.5,7.2-1
			c1.4,0.3,2.5,1.5,4.1,1c9.3-2.9,18.8-3.9,28.4-4.4c11.6-0.6,23,0.9,34.2,3.6c11.5,2.8,22.8,7,33.2,13.6
			c8.5,5.4,17.1,10.6,24.1,18.6c4.5,5,9.1,10,13.8,14.7c6.5,6.5,11.3,14.4,14.9,23.2c1,2.3,1.8,2.3,3.7,2c-4-6.7-7.1-13.6-11.5-19.6
			c-3.6-4.9-7.8-9-11.7-13.5c-13.3-15.3-29-26.4-46.6-34c-6.5-2.8-13.1-5-19.8-6.8c-6.9-1.8-13.9-2.3-20.9-3.2
			c-8.7-1.2-17.3,0-25.9,0.5c-6.3,0.4-12.5,1.6-18.8,2.4c-5.5,0.7-11.1,1.3-16.6,2c-5.8,0.8-11.7,1.7-17.5,2.5
			c-5.5,0.8-11.1,1.4-16.6,2.1c-10.2,1.4-20.5,2.9-30.8,3.4c-5,0.2-9.8,0.9-14.7,1.8c-1.9,0.3-2.8,1.3-2.8,3.8
			c0,14.6-0.1,29.2-0.3,43.7c0,1.1,0.4,2.4-0.9,3.2c-0.7-1.1-0.6-2.3-0.6-3.4c0.1-11,0.1-22,0.3-32.9c0.1-4.8-0.3-9.5,0.5-14.3
			c0.3-1.6,0.7-2.8,2.3-2.9c4.5-0.3,8.9-1.2,13.4-1.9c5.6-0.9,11.3-1.3,16.9-2c10.5-1.4,21-3.1,31.6-4.4c11.1-1.4,22.2-2.5,33.2-4
			c7.6-1.1,15.1-3,22.7-4.1c11.2-1.6,22.5-1.2,33.8,0.3l0,0c-1.4-2.5-3.5-0.8-5.3-1.2c-10.1-2.4-20.2-1.1-30.2,0.2
			c-4.9,0.7-9.8,1.6-14.7,2.3c-8.9,1.1-17.8,2.1-26.7,3.2c-7.6,1-15.2,2.5-22.8,3c-8.8,0.6-17.5,2.4-26.4,3.1
			c-8.1,0.7-16.1,2.9-24.3,3.6c-2.6,0.2-4.1,1.6-4.6,4.9c-0.5,3.3-0.4,6.6-0.9,9.9c-0.9-3.8-0.3-7.6-0.6-11.4
			c-0.2-2.7,0.7-5.2,4.1-5.5c5.9-0.6,11.8-1.8,17.7-2.8c7.4-1.2,14.8-2.4,22.1-3.6c5.1-0.8,10.2-1.3,15.3-2.1
			c7.3-1.1,14.5-2.1,21.8-3.3c7.8-1.3,15.7-1.6,23.5-3.1c7.8-1.5,15.6-2.5,23.4-3.2c14.4-1.3,28.9-0.1,43.1,3.2
			c15.3,3.5,29.5,10.4,42.9,19.4c7.9,5.3,15.2,11.5,21.8,18.7c2.7,2.9,6.1,5.1,8.2,8.8c0.5,0.8,1,1.7,0.1,2.5
			c-0.6,0.6-1.6,0.8-2,0.1c-1-1.6-2.8-2.1-4-3.4c-9.6-10.6-20.2-19.7-32.3-26.4c-1.8-1-3.4-2.8-5.7-2.7l0.1-0.1c0,0.8,0.6,0.8,1,1.1
			c13.9,8.1,26.5,18.3,37.2,31.4c1.3,1.6,3.1,2,4.9,1.8c1.3-0.2,2.5-0.5,3.8-0.3c10.6,1.5,21.3,1,31.9,1.2c6.7,0.1,5.7-0.9,6,6.7
			c0.1,2.2,1,5.1-0.7,6.5c-2.9,2.3-3.9,5.7-5.4,9c-6.1,13.5-1.9,30.7,8.8,39.4c3.8,3.1,8.2,4,12.5,5.4c0.6,0.2,1.4,0,1.3,1.1
			c-0.1,1-0.9,0.9-1.5,0.9c-0.8,0-1.7,0.1-2.5,0c-7-0.5-14,1.3-21.3,0.7c1.6,5.1,1.5,10.1,4.7,14.6c-0.3-4.6-1.9-8.5-1.1-13.2
			c3.5,5.4,4.8,11,4.9,16.9c0,2.5,0.8,3.2,2.7,2.5c-1.1-5.5-1.8-11-2.2-16.5c-0.2-2.4,0.7-3,2.7-3c6.9,0.2,13.7,0.3,20.6,0.1
			c3.1-0.1,5.2,0.4,4.9,4.6c0,0.1,0.3,0.2,0.5,0.2c0.7-0.5,0.3-1.3,0.4-1.9c0.2-1.1-0.4-2.6,1.3-2.7c1.8-0.1,1.3,1.5,1.3,2.6
			c0,6.6-0.1,13.1-0.1,19.7c0,1.3-0.1,2.7-1.5,2.6c-1.3-0.1-1-1.6-1-2.6c0-2.1,0.2-4.3-0.7-6.3c-0.5,3.1-0.9,6.3-1,9.4
			c0,0.9,1.3,2.2-0.6,2.1c-1-0.1-3.2,1.1-2.5-2c0.2-1-0.4-1.3-1-1.8c-1.8-1.5-3.7-2.1-5.9-2.1c-5.4-0.1-10.8-0.4-16.2-0.3
			c-3,0.1-4.4-1.8-5.5-4.3c-0.7-1.5-1-3.4-2-4.4c-5.6-5.6-5-13-4.9-20.2c0-6.7,0.4-13.4,0.6-20c0.1-6.7-2.6-9.8-8.6-9.8
			c-5.8,0-11.6-0.3-17.4-0.1c-2.8,0.1-6-1-8.2,1.7c-1.9,2.3-4,2.7-6.5,2.8c-5,0.2-10.2,4.7-11.6,10.3c-1.6,6.5-0.9,13.3-1,19.9
			c-0.2,12.4,0.3,24.8-0.3,37.1c-0.1,2.1-0.5,3-2.5,3c-4.4,0-8.9,0.1-13.3,0.2c-1.2,0-2.4,0-2.6,1.8c-0.2,1.7,0.2,3.2,1.8,3.7
			c0.9,0.3,1.9,0.4,2.8,0.4c3.4,0.1,6.8,0.3,10.1,0.1c3.1-0.2,4.5,0.7,4.1,4.6c-0.7,6-0.4,12.1-0.4,18.2c0,9.3-0.5,18.5-0.4,27.8
			c0.1,10.8,6.5,19.2,15.7,18.6c2.5-0.2,3.2,1.2,3.2,3.6c-0.1,3.3,1.5,4.4,4.2,4.4c6.9,0,13.7,0.1,20.6,0.1c6.8,0,8.5-1.5,9.4-9
			c0.2-1.3,0.3-2,1.7-1.8c1.2,0.2,1.6,0.8,1.5,2.2c-0.1,0.9-0.1,1.9-0.1,2.9c0,8,1.5,15.5,6.2,21.8c0.8,1.1,1.2,2.1,1.2,3.5
			c-0.1,2.3-0.2,4.6,0,6.8c0.3,3.8-0.3,6.2-4.4,5.4c-1.1-0.2-2.3,0.2-3.4,0.3c-10.9,0.6-21.7,0.4-32.6,0.1c-2.6-0.1-4.7,1-6.1,3
			c-1.4,2-3,3.6-4.5,5.4l-0.1-0.1c1.1,1,1.7-0.1,2.4-0.7c1.6-1.5,3.3-2.9,4.9-4.4c1.3-1.2,2.6-0.6,3.4,0.2c1.1,1.2-0.3,2.1-1,2.8
			c-2,2.1-4.1,4.1-6.1,6.2c-14.7,15.5-31.7,26.6-50.8,33.9c-15,5.7-30.4,8.8-46.3,8.9c-6.6,0-13.3-0.1-19.8-1.3
			c-5.1-0.9-10.2-1.4-15.3-2.3c-8.1-1.4-16.2-2.7-24.3-3.9c-9.8-1.4-19.6-3-29.3-4.6c-10.3-1.6-20.6-2.9-30.9-4.8
			c-5.6-1.1-11.2-1.5-16.9-2.2c-1.3-0.1-2.2-0.6-2.7-2c-1.3-3.3-1.7-6.8-1.5-10.4c0.5,0.8,0.9,1.7,1.1,2.6c1.2,4.7,2.3,5.6,6.6,6
			c4.7,0.5,9.4,1.2,14.1,1.9c7.7,1.1,15.5,2,23.2,3.3c5.9,1,11.9,1.7,17.9,2.5c7.9,1.1,15.8,2.6,23.7,3.7c9.2,1.3,18.5,2.1,27.6,3.8
			c10.1,1.9,20.3,3.1,30.5,2.6c7.3-0.4,14.6-1.1,21.9-3c-0.9-0.8-1.6-0.6-2.3-0.5c-9.5,1.9-19,3-28.6,2.4
			c-6.5-0.4-12.9-1.4-19.3-2.8c-6.5-1.5-13.2-1.6-19.7-2.5c-9-1.3-17.9-2.8-26.8-4c-8.2-1.2-16.5-2.1-24.7-3.3
			c-11.9-1.7-23.7-3.9-35.7-5.2c-5.4-0.6-7.6-1.7-7.7-9.2c-0.1-5.7-0.2-11.5-0.2-17.2c0-10-0.1-20.1,0.1-30.1c0-2.2-1.3-2.8-2.2-4
			c-1-1.3-1.4,0.6-2.2,0.8c-2.8,1.1-5.9,1-8.7,0.1c-1.8-0.5-0.7-3.4-0.9-5.2c-0.1-0.5,0.1-1.2-0.8-1.5c-0.6,1.4-0.3,2.9-0.4,4.4
			c-0.2,7.7-0.1,6.6,5.7,6.8c1.1,0,2.1,0.2,3.2,0.2c1.9,0,2.8,1,2.7,3.1c0,3.8-0.2,7.6-0.2,11.5c0,1.6-0.7,2-2,2
			c-15.6-0.2-31.3-0.3-46.9-0.4c-1.5,0-2.4-0.5-2.4-2.4c0-2.6-0.8-5.8,3.3-3.8c0.4,0.2,1-0.4,1.5-0.5c1.6-0.3,2.8,0,4.1,1.7
			c3.3,4.7,11.5,5.8,14.8,1.6c2.2-2.8,4.4-4.1,7.6-3.7c2.3,0.3,3.1-1,2.5-3.5c-0.5-2.1-0.4-4.2,0.1-6.3c0.5-1.8,0.1-4.3-1.7-4.2
			c-3.8,0.2-6.7-1.1-9.1-4.3c-0.4-0.5-1.1-0.7-1.7-0.9c-5.2-1.7-9.7-0.9-13.1,4.3c-0.6,1-1.7,1.2-2.5,0.3c-0.7-0.8-0.4-2,0.3-2.5
			c3-2.3,4.1-6.6,7.2-8.7c0.8-0.5,2.1-1.4,0.8-2.8c-1.1-1.2-2.2-0.5-3,0.5c-1.3,1.6-2.3,3.4-3.7,4.9c-2.1,2.2-4.5,4.2-5.2,7.7
			c-0.2,0.9-0.7,1.9-1.7,1.7c-1-0.2-0.7-1.4-0.6-2.1c0-5.7,0.1-11.5,0.1-17.2c0.2-37.2,0.4-74.3,0.6-111.5
			c0.1-11.5,0.2-22.9,0.4-34.4c0-1-0.2-2.5,0.7-2.9c1.1-0.5,1.3,1.2,1.9,1.9c3.3,3.3,6.3,6.8,10,9.6c0.8,0.6,1.5,1,2.2,0
			c0.8-1,0.2-1.8-0.4-2.5c-2.5-2.6-5.2-4.7-7.4-7.7c-0.5-0.7-1.4-1-1.2-2.1c0.1-0.5,0.3-0.9,0.8-0.9c1-0.1,1.6,0.4,2.1,1.3
			c3,5.6,12.9,5.7,16.4,0.7c1.6-2.2,3.5-3.1,6-2.9c3.3,0.2,4.1-1.4,2.7-4.8c-0.7-1.8-0.9-3.3-0.2-5.1c1.4-4,1-4.6-3-4.7
			c-1.8-0.1-3.6,0.6-5.3-1.3c-3.9-4.4-8.5-5.5-13.1-2.1c-3.3,2.4-6.2,4.5-10.2,3.4c-0.1,0-0.2,0.1-0.3,0.2c-0.4,0.4-0.7,0.3-1-0.3
			c-0.8-1.7-0.3-3.5-0.1-5.3c0.3-1.6,1.6-1.2,2.6-1.3c15.3-0.7,30.6-0.6,45.9-0.3c1.9,0,2.7,0.8,2.6,3c-0.1,3-0.1,6-0.1,9
			c0,2.1-0.7,3.1-2.6,3c-2-0.1-4,0-6-0.1c-1.7-0.1-2.3,1.1-2.3,2.7c0,1.6,0.8,2.3,2.2,2.3c2,0,4,0.1,6,0c1.6,0,2.8,0.3,2.6,2.5
			c0,0.6-0.1,1.3,0.6,1.4c0.8,0.1,1.1-0.5,1.1-1.3c0-1.5,0.4-2.6,2-2.5c2.8,0.2,3.2-1.7,3.2-4.4c0-12.5,0.1-25.1,0.1-37.6
			c0-9,0-9,7.9-10c4.1-0.6,5,0.5,4.1,4.9c-0.3,1.7-0.9,3.9-2,4.7c-3.8,2.7-4,7.8-6.5,11.3c-0.3,0.5,0.1,0.8,0.5,1
			c1.2,0.6,0.8,1.2-0.1,1.6c-0.6,0.3-1,1-0.5,1.2c2.8,1.2,0.7,3.2,0.9,4.9c0.7,6.2,0,12.3,0.1,18.4c0.1,3.4,0.5,7.1-3.4,8.8
			c4.1-1.9,8.3-3.2,12.1-5.8c0.9-0.6,1.9-1.6,3.1-0.3c1.4,1.5,1.5,1.5,3.3,0c-0.6-0.2-1.5-0.2-1.7-0.6c-2.4-4.3-5.5-8.1-7.2-12.9
			c-0.7-2,0.4-2.7,2.3-2.2c3.1,0.9,3.3,4.3,4.8,6.6c1.2,2,1.9,4.6,4.2,5.8c-0.9-2.3,0.1-3.4,1.4-4.6c2.6-2.5,5.9-4.1,8-7.3
			c-2.9,0.7-4.9,3.2-7.1,5.1c-4.3,3.8-4.3,3.8-6.8-1.7c-2.5-5.4-3.4-6-8.6-4.5c0.6-7-1.2-14.1,2-20.8c0.6,1,0.9,1.9,1.1,2.9
			c1.4,10.3,7.8,16.8,16.9,17.2c1.3,0.1,2.3,0.1,2.5,1.9C418.4,392.2,421.9,388.2,424.8,383.4z M510.9,669.7c3-0.3,5.7-0.7,8.4-0.7
			c16.7,0.2,32.7-3.9,48.3-10.3c11.9-4.9,23.3-11.3,33.6-19.8c7.4-6.2,15.4-11.7,21.4-19.9c1.5-2.1,3.3-4.3,6.3-4.2
			c6.2,0.1,12.4-0.1,18.7-0.4c12.6-0.5,25.3-0.4,38-0.5c2.2,0,4.8-0.8,4.4,3.7c0.4-0.7,0.6-1,0.6-1.2c-0.3-1.8,0.6-2.4,1.9-2.5
			c1.4-0.1,1.3,1.3,1.3,2.3c0.1,1.7,0.3,3.3,0.3,5c-0.1,9.3-0.2,18.5-0.3,27.8c-0.2,15.4-0.4,30.8-0.5,46.3c0,2.2-0.8,2.8-2.7,2.8
			c-16.2-0.1-32.5-0.1-48.7-0.1c-12.5,0-25.1-0.3-37.6-0.1c-9.5,0.2-18.9,0.2-27.7-4.6c-3-1.6-6.4-2.2-9.7-3.2
			c4.4,2.4,8.9,4.2,13.5,5.9c0.7,0.3,1.6,0.3,1.4,1.4c-0.2,1-1,0.5-1.6,0.5c-0.7,0-1.5,0-2.2,0c-24.3-0.1-48.6-0.4-72.9-0.2
			c-15.1,0.1-30.2,0.1-45.3,0c-24.2-0.1-48.4-0.4-72.5-0.4c-18.4,0-36.7,0.3-55.1,0.2c-35.9-0.1-71.8-0.7-107.7-0.4
			c-19.1,0.2-38.2,0-57.3-0.1c-12.2,0-24.5-0.1-36.7-0.1c-1.9,0-3,0-2.5-3.1c0.9-5.4,2.2-10.7,2.8-16.1c2-17.8,6.3-35.3,8-53.2
			c0.2-2.1,1-3.3,2.7-3c2,0.4,3.9-0.4,5.8-0.3c30.2,0.8,60.4-0.4,90.6-0.2c15.1,0.1,30.1-0.5,45.2-0.5c14.1,0,28.1,0.2,42.2,0.3
			c3.4,0,6.7-0.5,7.9,4.5c0.3,1.1,1.6,1.9,2.3,2.9c0.7,0.9,1.1,1.9,0.6,3.3c-1.3,4,0.2,8.3-1.1,12.3c-0.5,1.4,1.3,2.6,2.4,3.4
			c0.7,0.5,1.7,0.5,2.2-0.5c1.5-3.4,3.2-1.9,5-0.3c5.9,5.4,10.1,5.8,16.2,0.9c1.7-1.3,3.2-2.2,5.2-2c3.1,0.3,4-1.6,2.7-5.2
			c-0.6-1.8-0.6-2.8,0.2-4.5c1.4-2.8,0.3-4.7-2.5-4.6c-1.8,0.1-2.9-0.6-4-2.2c-0.8-1.1-1.7-2-2.9-2.7c-6.3-3.8-11-2.9-15.7,3.3
			c-1.3,1.7-2.9,2.5-3.7,0.2c-0.7-2.1-1.8-3.7-2.9-5.4c-0.5-0.8-1.5-1.7-1-2.8c0.5-1.2,1.7-0.9,2.5-0.9c3.7,0,7.4,0.4,11.1,0.2
			c7.3-0.3,14.6-0.4,21.8-0.4c2.4,0,3.1,1.1,3.1,3.6c0,5.1-0.3,10.3,0.5,15.4c0.3,2.1-0.3,3.7-1.8,5.3c-3.1,3.4-6.4,6.5-10,9.1
			c-4,2.9-8.6,4.2-13.3,3.4c-9.5-1.7-19.3-9.3-19.1-24.2c0-2.2-0.4-3.3-2.5-3.4c-2.3,0-2,2.1-2,3.5c-0.4,7.8,1.6,15.1,6.4,20.5
			c5,5.6,11.3,9.7,18.7,9.8c7.9,0.1,15-2.6,20.8-9.2c2.1-2.4,3.9-4.5,8.1-3.6c8.7,1.8,17.7,1.9,26.5,3.6c3.8,0.7,7.8,0.4,11.6,1.3
			c10,2.4,20.2,2.7,30.2,4.9c5.3,1.1,10.6,1.6,16,2.4c6.2,1,12.5,2,18.7,3c8.9,1.4,18,1.7,26.4,5.9c2.1,1,4.4,2.1,6.9,1.9
			C515.4,671,512.5,672.4,510.9,669.7z M147.5,379c0.9-0.3,1.7-0.8,2.5-0.8c12.8,0,25.6,0,38.3,0c1.2,0,2.1,0.1,1.3,2
			c-0.2,0.5,0.5,1,1.1,0.9c0.5-0.1,0.8-0.7,0.6-1c-1.6-2.6,0.3-2,1.4-2c5.5-0.1,11-0.2,16.4-0.2c4.1,0,4.3,0.2,4.3,4.8
			c-0.1,13.5-0.3,27-0.3,40.5c-0.2,30-0.3,59.9-0.4,89.9c-0.1,18.4,0.1,36.7,0,55.1c-0.1,16.1-0.4,32.2-0.5,48.4
			c0,2.6-0.8,3.4-3,3.2c-2.4-0.2-4.9-0.1-7.3,0c-18.2,1.2-36.3,0-54.5,0.2c-1.8,0-2.8-0.7-2.8-2.9c0-2.5-0.3-5-0.3-7.5
			c0-16.1-0.1-32.2,0.3-48.3c0-1.5,0-2.4,1.6-2.1c0.6,0.1,1.4,0.1,1.3-1c-0.1-0.9-0.9-1-1.5-0.8c-1.7,0.4-1.7-0.8-1.7-2.1
			c0.2-17.5,0.5-35.1,0.8-52.6c0-1-0.3-2.7,1.6-2c0.6,0.3,1.1,0,1.1-0.7c0-0.7-0.5-1.1-1.1-1c-2,0.3-1.9-1.4-1.9-2.8
			c0.3-17.8,0.5-35.6,0.8-53.3c0-1.4,0-2.7,1.8-2.4c0.7,0.1,1.3-0.2,1.3-1.1c0-0.7-0.5-1-1.1-1c-2.1,0.2-2-1.2-2-3
			c0.2-13.1,0.3-26.3,0.4-39.4c0-4.1,0.1-8.1,0.2-12.2c0-0.9-0.2-2.4,1.2-2.3c0.7,0,1.7,1.4,2-0.1C150,379.7,148,380.7,147.5,379z
			 M699.5,381.3c-1.6-1.3-1.4-1.3-1.9-5.5c-1.1-10.5-0.6-20.9-0.8-31.4c-0.3-12.8,1.2-25.5,0.9-38.3c-0.1-2.7,0.5-3.5,2.9-3.5
			c41.3,0.8,82.6,0.2,123.9,0.2c4.4,0,4.7,0.4,4.7,5.3c-0.1,16.5-0.3,33-0.4,49.5c0,5.4-0.1,10.8-0.2,16.1c0,2.2-0.4,3.8-3.2,3.8
			c-4.6,0-9.3,0-13.9,0.2c-3.3,0.1-3.8,1.5-3.8,4.7c0,11-0.1,21.9-0.2,32.9c0,1.5,0.6,3.7-1.8,3.6c-2.1-0.1-4.5,1.3-5.9-2.2
			c-2.1-5-5.6-8.6-10.4-10.4c-1.2-0.5-1.9,0.2-2.4,1.1c-0.6,1.1,0.4,1.2,1,1.7c0.6,0.5,1.2,1.3,1,2.5c-2.5-0.4-4-2.4-2.7-4.6
			c2-3.4,0.6-3.2-1.7-2.9c-0.5,0.1-0.9-0.6-1.2-0.4c2.8,7,0.5,14,1.2,20.9c-1.7,0.2-1.3-2.8-3-1.7c-0.9,0.6-0.6,1.6-0.7,2.6
			c-0.1,1.2,1.2,2.9-0.2,3.5c-1.3,0.6-1.4-1.8-2.4-2.4c-0.1-0.1-0.3,0.2-0.9,0.5c2.3,2.2,1.5,5.8,4,8.1c-4.2,1.1-2.8-3.8-4.9-5.1
			c-1.5,5.4-2.9-0.7-4.6,0c-0.1,2.2,1.9,2.7,2.5,4.3c0.7,2,0.8,1.9-1.8,4.5c1.2-3,0.5-4.9-2-4.8c-3.1,0.2-4.7-1.7-6.3-4.2
			c-0.2-0.3-0.6-0.7-1-0.1c-0.1,1.1,1,1.5,1.2,2.4c0.2,0.6,0.1,1.2-0.4,1.6c-0.5,0.3-1.1,0.3-1.3-0.4c-1.4-4-2.5-0.8-3.8,0.1
			c3-0.9,3.1,4.7,6.7,3.6c1.2-0.4,4.1,1.8,6.2,2.8c1.7,0.8,4.2-1.1,5.2,1.9c0.1,0.4,1.8,0.6,2,0.3c1.3-1.8,2.3-0.9,3.7-0.2
			c1.1,0.6,2.9,0.6,3.8-0.1c1.1-0.8-0.8-1.5-0.9-2.5c-0.1-0.9-0.2-1.9,0-2.9c0.3-1.7,1.7-2,2.8-2.4c1-0.3,0.6,1.2,0.9,1.8
			c0.9,1.7,3.3,2.4,4.1,1.8c2.4-1.7,5.1-3.9,5.8-6.8c0.8-3.7,2.7-3.6,5-3.4c1.1,0.1,2.3,0,3.6,0c-0.4,1.4-0.7,2.5-0.7,3.7
			c0,18.3-0.1,36.5-0.1,54.8c0,2.6-0.6,3.5-3,3.5c-15.4-0.3-30.8-0.1-46.3-0.6c-18.2-0.7-36.5-1.1-54.7-1.3c-4.8,0-6.3-1.7-6.4-7.2
			c-0.1-5.4,0-10.7-0.1-16.1c0-1.8,0-3.2,2.1-2.5c0.4,0.1,1.4-0.1,0.9-0.7c-1.7-2.2,0.4-1.7,1-1.7c8.5,0,16.9-2.2,25.5-2.2
			c8.4,0,14.8-4.3,18.9-12.4c1.1-2.2,3.2-4,3.2-6.7c0.1-10.8,0-21.7,0-32.5c0-0.3-0.4-1-0.7-1c-1.8-0.1-2.2-2-3.2-3.2
			c-4.2-5.2-8.6-9.7-15.3-10.3c-4.2-0.4-8.4-1.3-12.6-1.5c-5.3-0.3-10.4-2.1-15.6-2.4c-1.3-0.1-2.9,0.4-3.3-1.7
			C697.2,383.7,697,381.8,699.5,381.3z M105.7,443.8c0.2,0,0.3,0,0.5,0c0-19.2,0-38.5,0-57.7c0-6.7,0-6.7,6-7.3
			c0.4,0,0.8-0.1,1.2-0.2c1.8-0.4,3.3-1,3.2-3.8c-0.6-11.3-0.1-22.7,0-34c0-11.4,0.2-22.8,0.3-34.2c0-1.2-0.4-2.9,1.2-3.3
			c2.8-0.6,5.5-1.6,8.4-0.7c1.6,0.5,2.4,1.1,2.7,3.2c1.6,15,4.7,29.8,6.2,44.8c0.9,9.7,3.2,19.2,3.7,28.9
			c0.7,12.6,0.6,25.3,0.2,37.9c-0.6,19.4-0.4,38.8-0.7,58.2c-0.3,18.1-0.4,36.3-0.5,54.4c-0.1,20.3,0,40.6-0.3,60.9
			c-0.2,15.1,0,30.2-2.5,45.2c-2.8,17.5-6.4,34.9-8.7,52.6c-1.1,8.3-1.3,8.2-8.7,8.3c-2.8,0-3.9-1-4-4.3c-0.6-21.7,0-43.5,0-65.2
			c0-7.4,0.1-7.5-6.6-7.5c-2.8,0-3.7-0.9-3.6-4.1c0.3-15.8,0.6-31.5,0.5-47.3c-0.3-23.5,0.3-47,0.4-70.6
			C104.7,480.1,105.4,461.9,105.7,443.8z M220.9,506.4c23.3-1.8,46.5-4.9,69.7-2c-10.4,0-20.7,0-31.1,0c14.8,0.7,29.5,1.1,44.3,0.2
			c9.5-0.6,9.4-0.8,9.2,9.8c0,2.2-0.7,2.6-2.6,2.4c1.1,0.5,2.7,0.7,2.3,1c-1.6,1.2-1.3,1.6,0.2,2.1c-0.4,0.9-1.5-0.1-1.8,1
			c0.1,1.1,2.1,0.1,1.5,1.3c-0.9,1.6,1.8,3.7-0.7,4.9c1.8,4.5,0.6,9.4,0.9,14c0.1,0.7-0.1,1.9-0.3,1.9c-3.7,0.8,2.6,0.9,0.3,1.6
			c-2.3,1.3-4.7,0.1-6.9,1c2.2,0.6,4.4-0.2,6.5,0.7c-0.8,1.1-2.2-0.1-2.9,1.4c1.1,0.2,2.1,0.3,3.1,0.4c0,0.2,0.1,0.3,0.1,0.5
			c-0.6,0.2-1.1,0.3-1.7,0.5c0.4,0.8,1.6,0.2,1.8,1.4c-0.3,0.9-1.3,0.1-1.6,0.7c0.4,0.8,1.4,0,1.6,1.2c-0.8,0.8-2,0.7-3,1
			c0.9,0.2,1.8,0.4,3.3,0.7c-3.3,1-0.4,2-0.5,3c-0.3,6.1,0,12.2-0.1,18.4c0,2.6-0.4,5.4-3.1,4.6c1.2-0.2,3,0.2,2.8,2.9
			c-0.1,1.4-0.4,3.2-2.9,2.7c1.2,0.8,2.3,0,3,1c-0.6,1.1-1.5,1-2.3,1.2c0.6,0.6,2-0.2,2,1.1c0.2,3.3,0.2,6.5,0.1,9.8
			c-0.1,2-1.3,3.1-3.2,3.1c-6.3,0-12.6,0.5-18.9,0.8c-12.1,0.6-24.3-0.2-36.4,0.7c-7.9,0.6-15.8-0.9-23.6-0.8
			c-2.8,0.1-5.7,0.5-8.5-0.1c-1.3-0.2-1.3-1.1-1.5-2.2c-0.3-1.8,0.9-1.2,1.6-1.4c0.6-0.1,1.3-0.1,2-0.2c-1.2-0.6-2.5,0-3.8-1.1
			c1.6-1,3-0.9,4.5-1.1c-1.4-0.4-2.8,0.2-4-0.9c1.2-1,1.3-1.4,0.7-1.5c-2.1-0.4-0.9-2.7-0.8-2.7c1.8-0.4-0.8-2.7,1-3
			c-2.3-2.4-1.1-5.5-1.2-8.2c-0.4-8-0.3-8.1,6.9-8.1c0.1,0,0.3-0.1,1-0.2c-2.5,0-4.4,0-6.3,0c-1,0-1.7,0.1-1.6-1.7
			c0.1-1.7,0.7-1.5,1.7-1.7c0.9-0.1,1.9,0.6,2.8-0.4c-1.3-1.1-3,0.3-4.2-1.1c1.3-1.1,2.8-0.1,4.2-0.8c-1.5-0.7-3.4,0.7-4.3-1.4
			c1.2-0.6,2.3-0.6,3.5-0.6c-1.2-0.2-2.5,0.1-3.6-0.9c0.6-0.4,0.7-1.3,0.3-1.7c-0.3-0.3,0-0.7-0.1-0.8c-0.8-2.2,0.2-4.3,0-6.5
			c-0.5-4.8,0.2-9.8-0.1-14.7c-0.1-2.3,1.5-1.1,1.9-1.9c-0.4-0.9-1.7,0.2-1.9-1.5c2.7-0.8,5.6,0.6,9-1c-2.8,0-4.9-0.4-6.8,0.1
			c-2.4,0.6-1.4-1.7-1.7-2.5c-0.6-1.2,1.2-0.4,1.7-1.1c-0.8-0.4-2,0-1.8-1.4c0.6-5.6-0.5-11.2,0.1-16.7c0.2-1.8,0.4-2.4,2.1-2.3
			c3.8,0.2,7.6,0.1,11.4,0.1c-4.5-0.6-9-0.1-14-0.9c2-1.9,3.9-0.6,5.4-1.4c-1.5-0.8-3.3,0.5-5.1-1.3c6.4,0,12.3,0,18.2,0
			c0-0.1,0-0.2,0-0.4C232.7,507.1,226.8,506.8,220.9,506.4z M313.7,479.3c-4.5,1.5,0,1.6-0.6,2.7c-0.7,0.1-1.6,0.3-2.6,0.4
			c0.8,0.7,2-0.3,2.5,1.2c-0.9,1.2-2.2,0.6-3.3,0.9c0.9,0.8,2.8-0.8,3.1,1.5c0.2,1.5,0.1,3,0.1,4.5c0.2,3-1.9,3-3,2
			c-1.8-1.7-3.9-1.6-5.8-1.6c-13.3-0.2-26.6-0.1-39.9-0.1c4.7,0.4,9.5,0.3,14.2,0.5c4.6,0.2,9.2-0.7,13.7,0.4c0,0.4,0,0.7,0,1.1
			c-16.7,0-33.3,0-50.1,0c0.5-1.1,1.5-0.5,2-1.1c-7.6-1.1-15.3,0.1-22.9-1.7c4.5,0,9,0,13.5,0c0-0.3,0-0.5,0-0.8
			c-4.6,0-9.2,0-13.7,0c1.6-1.2,0.5-2.1,0.2-2.9c1.6-0.9,3.3-0.5,5-0.8c-5.5-0.1-5.5-0.1-5.5-6.3c0-0.8,0-1.7,0-2.5
			c-0.2-7.6-0.2-7.6,6.7-7.4c0.3,0,0.6-0.2,1-0.3c-1.2-0.7-2.4-0.1-3.5-0.2c-1.5-0.2-3.4,1.2-3.8-2.3c-0.4-3.8-0.3-5,2.5-5.5
			c-0.8-0.5-2,0.2-2.9-1.1c1.2-1.3,2.9-0.3,4.6-1.3c-1.4,0-2.3,0.1-3.3,0c-0.4,0-1.1,0.3-1-0.7c0.3-2.3,0-4.6-0.1-7
			c-0.5-7.3,0.3-14.6,0.1-21.8c-0.1-1.7,0.4-2.3,1.9-2.3c3.5,0.1,6.9,0,10.4,0c-4-0.9-8.1,0.4-12.1-1.6c1.4-0.3,2.7-0.5,4.1-0.8
			c-1.4-0.2-2.8-0.4-4.7-0.6c1-0.6,1.4-1.6,1.1-1.7c-1.4-0.7,0.3-1.9-0.5-2.7c3.1-1-0.7-1.2-0.2-2c1-1.5,2.5-0.3,4.5-1.4
			c-4,1.2-4.9-0.2-4.5-3.7c0.3-3.3,0.5-6.7,0.1-10c-0.4-3.6,1-4.3,3.7-4.1c1.9,0.2,3.9,0,5.8,0c-3-0.9-6.1-0.1-9.1-1
			c0.4-0.8,0.9-0.7,1.4-0.7c8.5-0.2,17.1-0.5,25.6-0.5c20.3-0.1,40.5,0.1,60.8-0.6c4.9-0.2,4.9-0.1,4.7,5.3c0,1.5-0.5,2.9-0.2,4.4
			c0.1,0.4-0.4,1.5,0.1,1.9c-2.4,1-4.8,0.3-7.1,0.8c2.2,0.4,4.5-0.1,6.8,0.7c-1.4,1.8-3.2,0.3-4.6,1.3c1.5,0.9,3.2-0.3,5,1.4
			c-2.6,0-4.8,0-7.1,0c2.1,1.8,4.7-0.2,7,1.9c-1.6,0.2-2.8,0.3-4.3,0.4c1.6,0.7,3.1,0,4.2,1c-0.3,0.9-1,0.7-1.4,1
			c1.5,0.7,0.1,2.3,0.9,3.7c0.9,1.5,0.6,4.2,0.3,6.2c-0.6,3.6,1.7,7.6-1.2,10.9c2.9,1.9,0.4,4.8,0.8,7.2c0.6,3.1-0.5,6.7-0.2,10.1
			c0,0.8,1.2,2.1-0.7,2.2c-1.1,0-0.3,0.3,0,0.3c2.2,0.4,1.2,2.5,1.2,3.5c-0.3,5.1-0.1,10.2-0.4,15.3c-0.2,2.5-0.5,3.6-2.7,3.5
			c-0.1,0-0.2,0.3-0.3,0.5C311,479,312,479.1,313.7,479.3z M628.2,479.1c-0.1,0.3-0.4,0.5-0.4,0.8c-0.2,13.7-0.5,27.4-0.7,41.2
			c0,4.1-1.4,7.1-4.3,9.4c-1.5,1.1-2.8,2.5-4.3,3.6c-1.4,1-1.8,2.3-1.9,4.2c-0.5,7.8-0.2,15.7,0.1,23.5c0.1,2.6-0.9,3.1-2.8,2.8
			c-6.9-1-10.7-4.3-10.9-13.2c-0.2-5.8,0-11.6,0-17.4c0.1-15.9,0.2-31.8,0.5-47.7c0.1-8-0.4-15.9,0.6-23.9c0.5-3.8-0.7-7.7-0.6-11.7
			c0.2-8.6,2.6-12.4,9.9-15.1c2.2-0.9,2.8-0.6,3,2.2c0.7,8.3,0.3,16.7,0.5,25c0.1,2.3,0.6,4.4,2.2,5.7c2.9,2.2,6,4.2,9.2,7.1
			c-0.5-2.6-1.8-3.6-3.3-4.3c-6.3-3.1-7.6-8.7-6.5-15.8c0.3-2.3,0-4.8,0-7.1c0-6.9-0.6-13.8,0.1-20.7c0.2-2.1,0.9-3.7,3.1-3.7
			c7.6,0,15.2,0,22.7-0.1c4.5,0,6.4,2.3,6.6,8c0.3,9.4-0.1,18.8-0.2,28.3c-0.1,3.7,0.4,7.4,2.6,10c2.6,3.1,4.2,6.7,5.9,10.5
			c1.2,2.8,3.1,4.8,6.4,4.7c5.5-0.2,11,0.1,16.5,0.2c0.7,0,2-0.5,2,0.9c0,1.3-1.3,0.9-2,1c-4.8,0.5-9.7,0.9-14.5,0.8
			c-2.7-0.1-5.6-0.8-7.5,2.4c-0.2,0.3-0.8,0.5-1.1,0.4c-2.1-1-2.1,0.8-2.2,2.1c-0.2,2.1-0.1,4.2,1.1,6.1c0.9,1.5,1.9,3.4-0.4,5.1
			c-1.4,1-1,6.9,0.1,6.8c2.7-0.1,4.3,2.6,7,2.6c5.9-0.1,11.8,0.1,17.7,0.2c1,0,2.3-0.3,2.4,1.4c0.1,2-1.4,1.4-2.3,1.4
			c-6.2,0.3-12.4,0.7-18.7,0.9c-1.1,0-1.9,0.8-2.8,1.3c-3,1.7-3.1,5.6-5.2,7.9c-2.6,2.7-4.1,6.3-4.6,9.9
			c-1.4,10.5-1.5,21.1-0.9,31.7c0.4,7.4-1.8,11.1-8.5,11c-6.2-0.1-12.5-0.2-18.7-0.4c-4-0.1-4.9-1-5-5.6
			c-0.1-10.6-0.6-21.2-0.3-31.9c0.1-4.7,1.4-7.6,5-9.7c3.2-1.8,5-4.7,5.1-9.1c0.2-14,0.6-27.9,0.9-41.9
			C628.8,480.4,629,479.6,628.2,479.1z M821.5,430.1c-0.6,0-0.5,0.5-0.5,0.8c-0.1,16.3-0.1,32.7-0.1,49c0,2.7-0.2,5.4-0.4,8.2
			c-0.2,2.2-1.7,1.6-2.9,1.6c-0.8,0-1.1-0.5-0.7-1.4c0.8-1.8,0.8-3.3-1.2-3.9c-2-0.6-3.1,0.8-4,2.6c-0.4,0.9,0.3,2.9-1.5,2.4
			c-1.4-0.4-0.7-2.1-0.7-3.1c-0.1-4.1,0.7-8.2,1.1-12.2c0.7-6.5-0.3-13.2-0.4-19.9c-0.1-7.8,0-15.5,0.1-23.3c0-2.3,0.5-4.2,2.9-1.9
			c0.8,0.8,1.8,1,2.7,0.5c3.3-1.9,6.9-1.7,10.4-1.8c4.2-0.1,8.4,0.4,12.6-0.3c2-0.4,2.5-1.6,2.3-3.8c-0.1-2,0-3.7-2.5-3.9
			c-4.5-0.4-9-0.5-13.5-0.2c-2.5,0.2-3.3-0.7-3.3-3.6c0.1-11.3,0-22.7-0.1-34c0-2.2,0.6-2.9,2.6-2.8c5.6,0.3,11.2,0.4,16.8,0.6
			c16.9,0.4,33.8,0.9,50.6,1.3c4.2,0.1,4.5,0.4,4.6,5.1c0.1,6.2-0.2,12.4,0,18.6c0.2,9.7-4,15.7-11.4,19.9
			c-11.2,6.4-17.8,16-17.1,31.1c0.5,10.7,0,21.4-0.1,32.2c0,2.2-0.8,3-2.7,2.8c-2.3-0.2-4.6-0.3-7-0.3c-11.5-0.2-23-0.5-34.5-0.7
			c-1.8,0-2.3-0.8-2.3-2.8c0.2-18.4,0.2-36.8,0.3-55.2C821.9,431.2,822.3,430.4,821.5,430.1z M820.7,566.7c0.2,0,0.5,0,0.7,0
			c0-17.6,0-35.1,0-52.7c0-1.6,0.1-2.7,1.9-2.8c14-0.5,28.1-0.7,42.1-0.5c1.8,0,2.2,0.7,2.4,2.7c0.5,8.6,0,17.2,0.4,25.8
			c0.2,5.5-0.3,11,0.9,16.4c1.9,8.4,7.4,13.7,13.4,18.2c6.2,4.7,11.7,10.2,12.4,19.1c0.8,9.1,0,18.4-0.2,27.5c0,1.8-0.7,2.8-2.5,2.8
			c-7.5,0.1-15,0.6-22.4,0.3c-14.9-0.6-29.7,0-44.6-0.5c-4.6-0.2-4.6-0.2-4.6-5.5C820.7,600.5,820.7,583.6,820.7,566.7z
			 M482.3,429.4c-1.6-1.3-2.8-0.9-3.9-0.9c-18.5-0.1-37-0.2-55.5-0.3c-1.9,0-3.1-0.2-2.8-2.9c1.3-9.8,3.3-19.2,8.8-27.2
			c3-4.4,6.7-8,10.7-11c4.3-3.2,8.8-6.2,14-7c2.5-0.4,2.9-1.7,3-3.9c0-0.9-0.1-1.9-0.3-2.8c-0.4-2.9,0.6-4.2,3.3-4.1
			c3.8,0.1,7.6,0,11.4,0.1c3.6,0.1,4.1,0.7,4,4.9c-0.1,2.9-0.3,5.6,3,6.8c8.5,3,16,7.8,21.7,16c5.8,8.5,9.5,17.9,10.1,28.8
			c0.1,2.2-0.5,3-2.5,2.9c-3.3-0.2-6.5-0.2-9.8-0.2c-4.1,0-8.2,0-12.3,0c0,0.3,0,0.6,0,0.9c1.1,0.1,2.2,0.2,3.3,0.2
			c5.9,0,11.8,0,17.8,0.1c2.3,0,3.9,0.5,3.6,4.1c-0.6,7.5-2.7,14.4-5.9,20.9c-5.6,11.6-14.2,19-25.2,22.9c-4,1.4-5.3,4.7-3.2,9.3
			c0.8-1.5,0.4-3,0.3-4.5c-0.2-1.9,1.2-2,2.2-2.5c0.6-0.3,1.2-0.4,1.7,0.4c1.4,2.2-0.3,7.6-2.6,8.1c-5.6,1.3-11.3,1.5-17,1.2
			c-4.7-0.3-4.9-0.5-4.4-5.9c0.3-3.3-0.8-4.6-3.5-5.5c-7.5-2.4-14.1-6.9-19.7-12.8c-7.6-8-10.8-18.6-12.1-29.9
			c-0.7-5.8-0.6-5.9,4.7-6.1c12.2-0.3,24.5-0.3,36.7,0C468.4,429.5,475,429.4,482.3,429.4z M833.5,491.4c18.2,0.9,36.5,0.3,54.8,1.7
			c2.6,0.2,3.3,1.1,3.3,3.8c-0.1,2.7-0.1,5.5,0.1,8.2c0.2,2.4-0.6,2.9-2.7,3c-15.5,1.2-31,0.1-46.5,1.2c-9.3,0.6-18.6,0.1-27.9,0.4
			c-16.7,0.5-33.4,0.4-50,0.7c-14.7,0.2-29.5,0.3-44.2,0.9c-13.5,0.6-27-1.4-40.5,1.5c-4.8,1-9.9,0.1-14.9,0.1c-2.6,0-3.9-1.5-4-4.4
			c-0.1-2.7-0.6-5.4-0.8-8.1c-0.7-7.4-0.2-11.4,8.1-11.1c6.9,0.2,13.9,0,20.9,0.1c10.2,0.1,20.4,0.1,30.6,0.3
			c24.1,0.4,48.1,0.7,72.2,1.7C805.8,491.8,819.7,491.4,833.5,491.4z M830.6,340.7C830.5,340.7,830.5,340.7,830.6,340.7
			c-0.1-11.2,0-22.5-0.1-33.7c0-2.9,0.9-3.3,3.1-3.2c3.8,0,5.3,3.6,7.5,5.9c15.9,17,31.1,34.8,46.7,52.3c3.4,3.8,4.3,8.2,3.5,13.3
			c-0.4,2.6-1.4,3.9-4,3.8c-18-0.5-36-1-54.1-1.4c-2.1,0-2.7-0.7-2.7-3.1C830.6,363.3,830.6,352,830.6,340.7z M320,443.4
			c-0.3,0-0.6,0-0.9,0c0,17.3,0,34.5,0,51.8c0,2.4-1.1,2.6-2.8,2.6c-16.4,0.1-32.7,0.6-49.1,0.4c-16.7-0.2-33.4,1-50.1,0.5
			c-2.2-0.1-3.3-0.7-3.2-3.5c0.2-5.1,0-10.3,0.1-15.4c0.2-26.3,0.4-52.6,0.6-78.8c0-3.2,0.1-6.4,0.1-9.7c0-0.9,0.2-1.7,1.1-2
			c0.5-0.2,1.3,0.1,1.3,0.7c-0.2,3.7,2.8,6.2,2.7,10.1c-0.3,11.1-0.4,22.2-0.5,33.3c-0.1,19.2-0.2,38.5-0.3,57.7
			c0,1.4-0.1,2.9,1.3,3.3c2.3,0.7,4.7,1.6,6.9,1.5c5.6-0.3,11.3-0.8,16.9-1c16.6-0.8,33.4-2,50,0.6c4.9,0.8,9.9,0.4,14.9,0.1
			c4.6-0.2,5.7-1.8,5.8-6.4c0.3-33-0.2-65.9,1.4-98.8c0-0.9-0.5-2.4,0.9-2.6c1-0.2,2.3-0.2,2.7,1.2c0.3,0.8,0.2,1.9,0.2,2.8
			C320,408.9,320,426.2,320,443.4z M680.3,401.3c0-3,0-5.8,0-8.6c0-1.8-0.2-3.7,2.3-3.7c2.1,0,3.9,0.4,3.8,3.4
			c0,2.4-0.3,4.7-0.4,7.1c0,1.2,0,2.6,1.3,2.9c3.9,1,4,1.1,1.9,5.2c-2.9,5.7-4.6,11.7-3.9,18.4c0.6,5.2,2,10,4.5,14.4
			c1,1.7,1.6,2.8-0.9,3.9c-7.8,3.5-18.2,0.6-23.1-7.2c-5.1-8.2-5-17.2-2-26.3c0.3-0.9,1.2-1.7,0.8-2.6c-1.5-3.8-0.4-7.7-0.8-11.6
			c-0.8-8.1-0.5-8.1,6.6-7.8c2.1,0.1,2.8,1.1,2.7,3.3c-0.1,3-0.1,6-0.1,8.9c0,1.2-0.4,2.7,1.1,3.3
			C674.9,399.7,677.1,399,680.3,401.3z M673.2,595.1c-1.1,4.8-0.9,9-1.1,13.1c0,1.3,0.7,3.3-1.1,3.7c-2.6,0.5-5.2,0.5-7.8-0.1
			c-0.1,0-0.1-0.6-0.1-0.9c0.9-6.3-1.2-12.9,1.5-19c0.4-0.8,0-1.4-0.3-2c-2.4-5-2.9-10.4-2.7-16c0.3-5.7,0.2-5.9,5.1-7
			c1.8-0.4,2.2-1.3,1.7-2.9c-0.7-2.3,0.3-3.6,1.7-4.8c2.1-1.8,4.5-3.3,7-4c3.5-0.9,7.5-3.3,9.9,2.3c0.1,0.3,0.5,0.5,0.8,0.5
			c2.9,0.8,2.7,2.4,1.5,4.9c-5.1,10.2-4.8,20.5,0.4,30.6c1.9,3.6,1.4,5-2.3,5c-1.8,0-2.2,0.8-2.3,2.4c-0.1,2.7-0.3,5.5-0.3,8.2
			c0,3.1-2,2-3.4,2.2c-1.5,0.3-2.3-0.3-2.3-2.3c0.1-3.7,0-7.4,0-11C676.3,599.4,674.6,598.8,673.2,595.1z M820.5,566.8
			c-0.2,0-0.5,0-0.7,0c0,15.9,0,31.8,0,47.7c0,8.1-0.1,8-7,8.2c-2.6,0.1-3.1-1-3.1-3.7c0.1-14.2,0-28.4-0.1-42.6
			c0-13.5-0.1-27-0.1-40.5c0-7.3,0.2-14.5,0.3-21.8c0-2.1,0.7-2.9,2.5-1.5c1.6,1.2,3,1,4.6-0.3c2.1-1.8,3.1-1.1,3.4,1.9
			c0.1,0.8,0.1,1.7,0.1,2.5C820.5,533.4,820.5,550.1,820.5,566.8z M518.8,429.7c-0.3,3.3-0.2,6.5-0.5,9.7
			c-0.6,7.4-3.7,13.5-6.8,19.8c-6.5,13-15.8,22.2-28.5,27c-0.7,0.3-1.4,0.8-1.9-0.2c-1.2-2.1,0.3-7.3,2.4-8.3
			c9.4-4.3,16.6-11.8,21.5-21.6c7-14.2,8.8-29.1,3.3-44.7c-4.8-13.4-12.2-24-24.3-29.6c-3.1-1.4-2.5-3.9-2.7-6.4
			c-0.2-2.4,0.3-3.2,2.6-2.2c5.8,2.5,11.1,5.6,15.7,10.6C511.3,396.4,519.1,410.8,518.8,429.7z M411.4,430.6
			c0.3-13.6,3.9-24.9,9.6-35.5c6.2-11.4,15.3-18.3,26.2-22.5c1-0.4,2-1.1,2.7,0.5c1.1,2.9-0.2,6.5-2.9,7.7
			c-5.4,2.5-10.1,6.3-14.4,10.6c-7.5,7.5-11,17.6-13.1,28.4c-2.8,14.8,0.5,28.3,7.6,40.8c4.5,7.9,11.3,12.6,18.5,16.6
			c2.8,1.6,3.8,3.6,3.6,7c-0.1,2.5-0.7,2.7-2.6,1.9c-10.9-4.9-20.2-11.8-26.4-23.6C414.8,452.3,411.8,441.4,411.4,430.6z
			 M143.2,564.5c-0.3,0-0.5,0-0.8,0c0,16.7,0,33.4,0,50.2c0,1.2-0.1,2.4-0.3,3.6c-0.1,0.8-0.4,1.7-1.4,1.6c-0.8-0.1-1.3-0.8-1.4-1.7
			c-0.1-0.7,0-1.4,0-2.1c0-13.5,0.2-27,0.1-40.5c-0.2-23,0.1-46.1,0.4-69.1c0.3-19.7,0.1-39.4,0.4-59.1c0.3-21.6,0.3-43.2,0.4-64.8
			c0-1.9,0-3.7,2.3-3.7c2.3,0,2,1.9,2,3.6c-0.3,31.9-0.5,63.7-0.8,95.6c-0.1,13.8-0.7,27.6-0.9,41.4
			C143.1,534.4,143.2,549.5,143.2,564.5z M692,604.9c-0.5,0-1.6,0-2.8,0c-1.3-0.1-2.9,0.6-3-1.9c-0.1-2.2,1.2-2.3,2.7-2.5
			c3-0.4,4.5-3.8,3-6c-6-8.9-6.6-18.4-2.7-28.6c1.1-2.8,4.7-5.2,1.3-8.9c-0.1-0.1,0-0.3,0-0.3c2.4-3.2-0.2-5.1-1.6-7.2
			c-0.4-0.6-1.2-1.2-0.6-2.2c0.5-0.8,1.3-0.6,2.1-0.6c4.1,0.3,8.2,0.7,12.3,0.7c9.2,0.1,15.8,5.9,20.1,13.8c9,16.5,2,35.4-13.8,42.5
			C703.7,606,698.1,604.4,692,604.9z M695.9,396C695.9,396,695.9,396.1,695.9,396c1.3,0.1,2.5,0.1,3.8,0
			c11.4-0.6,19.7,8.1,23.6,17.5c5.5,13,0.8,26.2-9,34.7c-6.9,5.9-14.9,5.6-22.9,5.8c-0.7,0-1.6-0.6-1.2-1.2c1.7-2.7,2.6-5.5,1.4-8.8
			c0-0.1,0.1-0.2,0.2-0.3c1.3-1.3,0.4-2.1-0.4-3.2c-6.1-8.6-6.8-22.7-1.7-31.7c3.1-5.5,3.1-5.5-1.3-9.4c-0.7-0.6-1.3-1.3-1-2.4
			c0.4-1.2,1.3-1.1,2.1-1.1C691.7,396,693.8,396,695.9,396z M213.8,550.5c0.2,0,0.5,0,0.7,0c0-15.9,0-31.7-0.1-47.6
			c0-2.3,0.8-2.9,2.6-2.9c3.5,0,7,0.1,10.4,0.1c22.5-0.2,45-1.2,67.4-0.6c0.7,0,1.5,0,2.2,0.2c0.3,0.1,0.6,0.6,0.7,1
			c0.1,0.6-0.4,0.8-0.8,0.7c-2.5-0.5-4.7,0.9-7.1,0.9c-22.8,0.3-45.7-1.4-68.5,0.4c-1.7,0.1-2.2,0.6-2.3,2.7
			c-0.5,18.9-0.2,37.7-0.6,56.6c-0.3,15.2,1.3,30.5-2,45.5c-0.2,0.9,0.2,2.6-1.1,2.6c-1.4,0-1.4-1.5-1.4-2.7
			c-0.1-2.4-0.1-4.7-0.1-7.1C213.8,583.6,213.8,567.1,213.8,550.5z M377.1,607.1c-1.3,1.5-2.1,1.3-2.8,1.3
			c-16.4-0.1-32.7-0.2-49.1-0.4c-6.3,0-6.2,0-6.1-7c0.5-33.6,0.6-67.1,0.8-100.7c0.2-36.5,0.8-73.1,1.3-109.6c0-2.7,0.9-3.2,3-3
			c7.1,0.7,14.1-0.4,21.2-0.5c10.4-0.2,20.7,0.1,31,0.1c0.9,0,2.4-0.4,2.4,1.4c0,1.6-1.3,1.6-2.4,1.6c-13.3-0.6-26.6,0.6-39.9,0.5
			c-3.7,0-7.4,0-11,0.1c-1.8,0-3,0.5-3.1,3.3c-0.2,37.6-0.6,75.2-0.9,112.7c-0.2,21.1-0.3,42.3-0.5,63.4
			c-0.1,10.9-0.2,21.7-0.4,32.6c-0.1,3,0.8,4,3.6,3.7c4.1-0.4,8.2-0.1,12.3-0.2c9-0.1,17.9,0.5,26.9,0.1
			C367.7,606.2,372.1,606.8,377.1,607.1z M256.1,387.1c-6.4-0.4-13.5,0.8-20.2-2.6c-2.2-1.1-1.2-2.9-1.5-4.5
			c-0.3-1.6,0.5-2.1,1.8-2.1c3.1,0,6.1,0.1,9.2-0.1c17.2-1.1,34.4-0.3,51.6-0.3c0.9,0,2.6-0.6,2.6,0.9c0,1.9,0.2,5.3-1,5.5
			c-2.7,0.3-4.9,2.4-7.4,2.3C279.7,386.1,268.2,386.8,256.1,387.1z M347.7,609.2c0,0.1,0,0.2,0,0.3c8,0,16,0,24,0
			c2.2,0,3.2,0.7,2.8,3.3c-0.1,0.9-0.2,1.9-0.1,2.9c0.3,3.1-1,3.7-3.5,3.7c-14.8,0-29.7,0.3-44.5,0.5c-5.4,0.1-5.6-0.3-5.9-6.1
			c-0.1-3.2,0.7-4.5,3.7-4.4C332.1,609.3,339.9,609.2,347.7,609.2z M277.7,619.4c-6.5,0.1-13.1-0.3-19.6,0
			c-7.5,0.4-14.9,0.3-22.4,0.4c-1.9,0-2.6-0.9-2.3-3.1c0.4-3.3,3.1-5.5,6.9-5.5c11.1-0.1,22.1-0.5,33.2-0.2c7.3,0.2,14.7-1.8,22,1.6
			c2.8,1.3,1.6,3.4,1.8,5.3c0.2,2.2-1.4,1.6-2.4,1.6C289.1,619.4,283.4,619.4,277.7,619.4z M302.8,501c4.4-0.6,8.6-2.4,13-2.1
			c2.6,0.2,3.3,1.1,3.2,4.1c-0.4,11.5-0.5,23.1-0.6,34.6c-0.1,7.5,0.3,15,0.1,22.4c-0.2,8.7-0.7,17.3-0.6,26
			c0.1,6.6-0.3,13.1-0.5,19.7c0,1.1,0,2.3-1.4,2.3c-0.9,0-1.2-0.8-1.2-1.7c-0.3-3.8-0.9-7.6-0.9-11.4c0.2-30,0.4-60,0.7-89.9
			c0-1.7-0.4-2.1-1.9-2.4C309.6,501.8,306.2,501.2,302.8,501z M350.2,386c-7-0.2-15.8,0-24.7,0.4c-1.1,0.1-2.4,0.3-2.9-1.4
			c-1.5-4.7,0.2-7.7,4.6-7.9c1.6-0.1,3.4-0.5,2.7,2.6c-0.2,0.9,0,2,1.1,2.2c0.9,0.2,1.8,0,2.2-1c1.5-3.9,4.2-4.1,7.4-3.3
			c1.2,0.3,2.5,0.3,3.8,0.2c9.3-0.7,18.5-0.5,27.8-0.4c1.8,0,4-0.6,3.7,3c-0.2,2.8,0.6,5.8-3.5,5.7C365.6,385.8,358.8,386,350.2,386
			z M334.7,397.9c4-3.2,8-4.5,12.4-1.2c0.5,0.4,1.2,0.7,1.1,1.5c-0.2,2-0.2,1.8,1.5,2c2.5,0.3,5.2-0.9,7.8,1.2
			c-2.9,2-5.9,0.8-8.8,1.7c1.8,0.4,3.3,1.1,3.4,3.3c0.2,2.9-2.6,1.3-3.9,3.1c2.5,0,4.5-0.1,6.4,0c0.9,0.1,2.4-0.7,2.5,1.1
			c0.1,1.9-1.4,1.7-2.6,1.7c-3,0-6,0-9.3,0c0.7,1.3,1.3,1.3,1.9,1.4c0.6,0,1.4-0.3,1.6,0.6c0.2,1-0.5,1.5-1.1,2
			c-2.8,2.9-11.3,2.7-13.6-1.6c0.8-1.3,2.7,0.4,3.5-1.6c-3.1,0-6.1,0.1-9,0c-1,0-2.7,0.6-2.7-1.4c0-2,1.6-1.3,2.7-1.5
			c1.9-0.3,4,0.8,6.1-0.7c-3.4-2.2-3.2-3.1-0.6-6.6c-1.3-0.8-2.7-0.2-4-0.4c-1.4-0.2-3.9,0.6-3.9-0.8c0.1-2.5,2.5-1,3.9-1.3
			c2.4-0.4,4.9,0.5,7.3-0.5C336.9,398.1,335.4,399.3,334.7,397.9z M346.6,634.9c-2.7,0-5.2,0-7.7,0c-1,0-2.3,0.4-2.3-1.5
			c0-1.8,1.2-1.6,2.3-1.6c2.7,0,5.4,0,8.1,0c-3.1-1.3-2-2.7-0.4-4.2c3.4-3,7.6-3.6,12.2,0.1c0.8,0.7,2.3,1,2.1,2.3
			c-0.2,1.6-1.8,0.6-2.7,1.1c-0.1,0.1-0.2,0.4-0.4,1c2.8,0,5.4-0.1,7.9,0c0.8,0,1.8,0.4,1.8,1.6c0,1.4-1,1.2-1.9,1.3
			c-2.3,0-4.7,0-7.5,0c1.4,2.2,4.4,0.3,4.3,3.5c-0.1,2.7-2.8,0.9-3.6,2.6c1.6,1.4,3.5,0.1,5.2,0.7c1.1,0.4,3.2-0.8,3.1,1.1
			c0,1.6-2.1,0.6-3.2,0.8c-2.5,0.4-5.2-0.1-7.7,0.7c0,0.3,0.1,0.6,0.1,0.9c0.9,0.1,1.8,0.3,2.9,0.5c-1.9,2.5-4.2,3.2-6.6,3.4
			c-3.1,0.4-5-1.4-5.6-4.8c-0.3-1.3-1.1-0.8-1.8-0.8c-2.4-0.1-4.9-0.1-7.3-0.1c-0.6,0-1.4-0.1-1.4-1.1c0-1,0.8-1,1.4-1
			c2.1,0,4.2,0.1,6.3,0c0.6,0,1.4,0.3,1.5-0.8c0.1-0.8-0.6-0.9-1.1-0.9c-1.4,0.1-2-0.8-1.8-2.2c0.1-1.5,1.2-1.4,2.2-1.4
			C345.6,636.2,346.2,636.2,346.6,634.9z M360.3,362.7c0.3,1,1,0.7,1.6,0.7c2.1,0.1,4.2,0.1,6.3,0.1c0.9,0,1.8,0,1.9,1.3
			c0.1,1.4-0.9,1.8-1.9,1.9c-0.7,0.1-1.5,0.1-2.2,0.2c-2.2,0.2-4.2,0.3-6.1,2.6c-2.8,3.3-8.8,3.2-10.9,0c-1.5-2.3-3.1-2.4-5.1-2.3
			c-1.1,0-2.1,0-3.2,0c-0.9,0-1.7-0.3-1.7-1.6c0-1.5,0.9-1.4,1.8-1.4c2.3,0,4.6,0,7,0c0.8,0,1.6-0.2,1.5-1.3c-0.1-1-1-0.6-1.6-0.6
			c-0.4-0.1-0.8,0-1.3,0c-1.1,0.1-1.9-0.2-2-1.6c-0.1-1.2,0.2-2,1.3-2.4c0.7-0.2,1.8-0.1,1.8-1.7c-2.1-0.5-4.2,0-6.2,0.2
			c-1.1,0.1-2,0-2.1-1.4c-0.1-1.6,1.1-1,1.9-1.1c2.2-0.1,4.4-0.1,6.6-0.3c0.7,0,2-0.6,1.1-1.3c-2.6-2,0-2.6,0.7-3.1
			c2.9-2.5,8-1.3,11,2.3c-0.4,1.3-1.9,0-2.3,1.7c3,0,5.9,0,8.8,0c0.9,0,2.1-0.1,2.2,1.4c0,1.3-1.1,1.2-1.9,1.3c-2.5,0.1-4.9,0-7.4,0
			c-0.1,0.4-0.1,0.7-0.2,1.1c2,0.3,4.8-0.5,4.8,3.1C364.4,363.9,361.5,361.4,360.3,362.7z M333,598.5c0.4-0.1,0.8-0.2,1.2-0.3
			c0.7-0.2,2,0.5,2-0.9c0-1.2-1.2-1-2.1-0.9c-2,0.1-4,0.3-6,0.4c-1,0.1-2.7,0.5-2.7-0.8c0-1.6,1.8-1,2.8-1.2c1.9-0.2,3.9,0.7,6-0.8
			c-2.6-1.2-5.9-2-1.5-5c0.1-0.1,0-0.8-0.1-0.9c-0.3-0.2-0.8-0.5-1.1-0.3c-1.5,0.7-3.1,0.5-4.7,0.5c-0.9,0-1.7-0.3-1.8-1.5
			c0-1.4,0.9-1.4,1.8-1.4c2.4,0,4.9,0,7.3,0c0.5,0,1.2,0.2,1.3-0.6c0.1-1-0.6-1.1-1.2-1.1c-0.5,0-1,0-1.1-0.8
			c3-3.7,6.8-3.9,10.8-2.9c1.3,0.3,3,0.8,3.5,2.7c0.5,1.9-2.4,0.2-1.9,2.6c2.8-0.7,5.5,0.2,8.3,0.2c0.8,0,2-0.1,2,1.2
			c0,1.5-1.2,0.9-1.9,1c-2.2,0.2-4.4,0.3-6.9,0.5c1,1.6,3.5,0.4,3.5,3.2c0,2.2-1.7,2-2.7,2.9c2.1,0.3,4.1,0.3,6.1,0.4
			c0.7,0,1.7-0.1,1.7,1c0,1.3-1.1,0.8-1.7,0.9c-2.7,0.2-5.5,0.4-8.2,0.6c1.1,1.2,2.8,1.8,0.8,3.5C343,603.6,336,603.7,333,598.5z
			 M727.4,587.6c0.9,0.9,0.8,1.7,0.6,2.3c-0.5,3,0.2,4.4,3.2,4.3c2.1-0.1,4.2,0.4,6.3,0.7c2.3,0.3,2.4,1.3,1,3.1
			c-4.6,5.8-10.1,9.9-17.2,10.8c-10.2,1.4-20.4,3.3-30.8,2.5c-1.5-0.1-4.2,1.4-4.3-1.7c-0.2-3.7,2.7-2,4.3-2.1
			c5-0.4,10.2,1.1,15.1-0.4c8.8-2.7,16.1-7.9,20.4-17.5C726.4,588.9,726.9,588.3,727.4,587.6z M821,396.5
			C821.1,396.5,821.1,396.5,821,396.5c0.1,5.2,0.4,10.5,0,15.7c-0.5,7.5-0.7,7.4-7.6,6.8c-2.2-0.2-2.8-1.1-2.8-3.5
			c-0.2-11.1,1.1-22.1,0.3-33.2c-0.1-1.4,0.1-3,1.6-2.8c2.8,0.4,5.8-1.5,8.4,0.9c0.2,0.2,0.1,0.9,0.1,1.4
			C821,386.7,821,391.6,821,396.5z M655.4,423.8c0.3-5.1,2-10.1,3.7-15.1c0.4-1.1,1.2-1.6,1.9-2.3c1.2-1.1,1.8-1,2,0.8
			c0.3,2.4-0.5,4.4-1.1,6.6c-2.8,9.9-1.2,19,5.1,26.4c4.2,4.9,9.9,6.9,16,7.3c0.7,0.1,1.6-0.5,2,0.4c0.5,1-0.4,1.7-0.8,2.5
			c-1.3,2.6-3,2.9-5.8,2.6C663.5,451.9,656.1,438.6,655.4,423.8z M726.5,412.9c-1.5-4-4.1-6.8-6.8-9.6c-5.5-5.7-11.3-10.8-19.4-10.1
			c-3.4,0.3-6.7,0.5-10.1,0.7c-1.4,0.1-2.9,0.1-2.9-2.2c0-2,1.2-2.1,2.6-2.1c1.8,0,3.6-0.4,5.3-0.3c8.1,0.1,16.1,1.7,24.1,3.3
			c6.7,1.3,12.6,4.4,16.9,10.6c0.4,0.5,1.1,1,0.8,1.8c-0.3,0.8-1.1,0.5-1.7,0.6c-0.5,0.1-1.1,0-1.6,0.1
			C727.8,406.2,727.8,406.2,726.5,412.9z M259.4,393.8c-6.8,0-12.1,0-17.4,0c-1.6,0-2.4-0.7-2.3-2.5c0-1.7,0.5-2.5,2.3-2.6
			c3.9,0,7.8-0.5,11.7-0.5c12.3-0.3,24.7,0.1,37-0.8c2.3-0.2,3,1.3,3.1,3.4c0.1,2.4-1.4,2.4-3,2.4
			C279.7,392.7,268.8,394.3,259.4,393.8z M653.8,560c2.1,1.2,4.3,0.6,6.2,1.9c0.7,0.5,0.9,1.3,0.8,2.1c-0.1,0.7-0.7,0.7-1.2,0.9
			c-0.8,0.2-1.3-0.2-1.3-1c-0.1-2.2-1.3-2.2-2.8-2.1c-3.5,0.2-4.2-0.7-4.3-4.7c0-3.1,0.1-6.2,0-9.3c-0.1-5.7,1.2-11.1,3.1-16.3
			c0.5-1.3,1.1-2.4,2.6-2.6c0.1,4.3-1.6,7.8-2.3,11.6c-0.4,2.2,0.2,2.7,2,2.7c5.7,0,11.4,0,17.1,0.2c1.1,0,2.3-0.5,3.5,1.1
			c-0.4,0.2-0.7,0.6-1.1,0.7c-6.6,0.6-11.6,4.2-15.7,9.9c-1.1,1.6-2.6,2.7,0.4,5.1C657.7,560,655.7,560,653.8,560z M266.6,609.6
			c-5.7-0.1-11.4-0.6-17.1,0.1c-3,0.4-6.1,0.1-9.2,0c-1.6,0-2.2-1.1-2.2-2.8c-0.1-1.9,0.9-2.1,2.2-2.1c16.7-0.2,33.3-0.5,50-0.7
			c1.8,0,2.9,0.6,2.9,3.1c0,2.7-1.4,2.4-2.9,2.4C282.4,609.6,274.5,609.6,266.6,609.6z M328.3,362.2c-0.4-7.1,4.1-17.5,10.2-22.4
			c8.6-6.9,18.9-7.1,28.1-1.2c4.1,2.6,7.4,6.3,10.9,9.7c0.7,0.7,2.2,1.2,1.1,2.7c-0.9,1.2-2.1,1.1-3.1,0.1c-0.5-0.4-0.9-1-1.4-1.4
			c-7.1-6.7-14.4-12.7-24.6-11c-9.2,1.5-19,13.3-19.1,23.8c0,1.4,0.7,4-0.8,4c-2.1,0.1-1-2.5-1.3-4
			C328.3,362.4,328.3,362.3,328.3,362.2z M351.9,661.9c-4.3-0.4-8.8-1.4-12.9-4.6c-3.9-3-6.8-6.5-9.3-11.3
			c-2.3-4.5-1.8-9.1-2.6-13.6c-0.1-0.7,0.1-1.5,1-1.5c0.6,0,1,0.7,0.9,1.3c-0.6,4.1,2.1,7.4,2.4,11.3c0.1,1.6,0.7,3,1.6,4.2
			c9.1,11.4,21.8,15.1,33.6,4.8c2.4-2.1,4.7-4.5,7-6.7c0.6-0.6,1.3-1.5,2.1-0.4c0.7,0.9,0.8,1.9,0,2.9c-1.4,1.5-2.8,2.9-4.1,4.5
			C366.4,658.9,359.9,661.6,351.9,661.9z M729.6,421.7c0.3,0,0.5,0,0.8,0c0-3.3,0-6.6,0-9.9c0-1.8-0.1-3.7,2.4-3.5
			c2.3,0.1,4,0.7,4,3.8c-0.1,7.9,0.2,15.9-0.2,23.8c-0.1,3-1.5,2.9-3.4,3.1c-2.5,0.2-2.8-1.2-2.8-3.4c0-3.3,0-6.6,0-9.8
			c-0.2,0-0.4,0-0.6,0c-0.3,1.6-0.6,3.1-1,5.2c-0.4-7.1-0.4-13.5,0.2-20C728.7,414.6,729.6,418.1,729.6,421.7z M726.9,435.6
			c0.8,6.9,0.8,6.9,6.5,7c0.3,0,0.6,0,1,0c1.5,0,2.1,0.7,1,2.1c-1.7,2-3.4,4.1-5.4,5.4c-6.9,4.2-14.4,6.3-22.2,7
			c-0.9,0.1-2,0.3-3.5-0.9C714.4,452.9,721.5,445.9,726.9,435.6z M706.1,544.9c4-0.6,7,0.2,10,0.8c6.4,1.4,12.8,2.4,17.9,7.6
			c1.2,1.3,3.7,2.3,3.1,4.4c-0.6,2-3,0.8-4.6,0.9c-4.5,0.1-4.5,0.1-4.2,5c0,0.8,0.3,1.7-1,2.2C723.7,554.9,715.9,549.3,706.1,544.9z
			 M731,575.9C731,575.9,731,575.9,731,575.9c-0.1-4.1-0.1-8.1-0.1-12.2c0-1.5,0-3.2,1.9-2.6c1.6,0.5,4.3-1,4.4,2.8
			c0.1,8.2,0.2,16.4,0.5,24.6c0.1,3.9-2.4,2.6-4.1,3c-2.2,0.5-2.6-0.9-2.6-2.8C731,584.4,731,580.2,731,575.9z M222.5,369.1
			c-1.5,0.1-2.3-0.5-2-2.3c0.3-1.8,0.4-3.5,0.8-5.3c0.5-2.4,1.8-2.9,3.5-1.7c1.4,1,2.9,1.3,4.5,1.5c10.2,1.6,20.5,1.8,30.8,3.2
			c4.5,0.6,8.8,1.9,13.2,2.8c1,0.2,1.9,0.7,1.6,2.1c-0.3,1.6-1.5,1.2-2.3,1c-6.1-1.7-12.2-3.2-18.3-4.4c-6.6-1.3-13.1-1.9-19.7-0.4
			C230.5,366.5,226.5,367.9,222.5,369.1z M790.4,429.7c0.2-5.4,0.4-10.7,0.7-16.1c0.1-1.1-0.3-3,1.7-2.5c3.2,0.9,6.3,5.6,6.3,9.4
			c-0.1,2.3-0.5,4.5-0.4,6.8c0.1,3-1.4,5-3.3,6.5c-1.3,0.9-2.8,2.4-4.4,1.5c-1.6-0.9-0.5-3-0.6-4.5
			C790.4,430.4,790.4,430.1,790.4,429.7z M821.3,424.1c-1.1,1.4-2,4-3.9,1.5c-2-2.7-2.6,2.9-4.4,0.8c-0.1-0.2-0.3-0.3-0.4-0.5
			c-1.8-3.2-2.5,0.5-3.5,0.9c-1.9,0.8-1.7-3.6-3.9-1.5c-1.5,1.5-4.8-0.2-5.1-2.4c-0.1-1.1-0.2-2.1,1-2.7c2.1-1,2.2,1.4,2.9,2.4
			c1.2-0.5,0.7-2.5,2.4-2.6c1.8-0.1,1.2,2.3,2.8,2.7c0.2-2.5,1.4-3.6,3.3-2.2c1.4,1.1,2.3,2.8,3.9,0.1c0.4-0.8,1.8-0.4,2.2,1
			c0.5,1.8,1.2,1.6,1.8,0c1-2.6,2.3-1.7,3.5-0.3c0.3,0.4,0.5,1,0.8,1.5c1.7-3,3.7-1,5.7-0.6c0.7,0.1,1.2-0.3,1.2,0.7
			c0.1,1.2,0.5,2.5-0.5,3.3c-1,0.8-2.2,0.7-3.2-0.3c-0.6-0.6-1.5-1.7-2.1-0.8C823.6,428.1,822.6,425.9,821.3,424.1z M208.4,366.1
			c0,0-0.1,0-0.1,0c0.2-2.1,0.5-4.2,0.7-6.3c0.1-1,0.3-2,1.4-1.8c2.6,0.4,5.2-0.1,7.8,1c1.2,0.5,1.8,1.1,1.6,2.5
			c-0.4,3.3-0.2,7-1.5,9.7c-1.9,3.9-5.3-0.2-8,0.6c-1.3,0.4-1.9-0.7-1.9-2.1C208.4,368.4,208.4,367.2,208.4,366.1z M660.9,559.7
			c2-2.2,2.3-4.9,4.2-6.5c3.8-3.3,8.2-5,12.8-6.3c3.1-0.8,4.6,0.5,5.7,3.6c0.6,1.6,0.7,2.4-1.2,2.5c-5,0-9.4,2.4-13.4,5.5
			C666.5,560.4,664.1,560.2,660.9,559.7z M225.5,353.8c0.7,3.6-1,4.3-3.7,3.9c-4.4-0.6-8.8-1.2-13.2-1.6c-2.9-0.3-2-2.7-2.1-4.6
			c-0.1-2.1,0.6-3.5,2.8-3.2c4.5,0.6,9,1.2,13.5,1.7C224.9,350.2,226.2,351.1,225.5,353.8z M301.8,374.6c-7.1,0.5-14.1-0.8-21-2.1
			c-0.9-0.2-1.7-0.3-1.6-1.6c0.1-1.2,0.3-2.4,1.8-2.3c0.6,0.1,1.3,0,1.9,0c10.1,0.6,20,3.4,30.2,1.8c0.3,0,0.6,0.1,0.9,0.2
			c1,0.3,1.8,1.1,1.9,2.2c0.1,1.5-1.3,1.2-2.1,1.4C309.8,375.1,305.8,374.6,301.8,374.6z M228.7,394.6
			C228.7,394.6,228.7,394.6,228.7,394.6c-1.7,0-3.4,0-5.1,0c-4.6,0-5.2-0.7-4.9-6c0.1-1.1-0.1-2.3,1.2-2.5c1-0.2,2.2-0.4,2.9,0.8
			c0.5,0.9,0.9,2,2,2c3.5,0,7.5,2.2,10.2-2.5c0.6-1,2.2-0.9,2.9-0.2c1.8,1.8,0.5,4.3,0.6,6.4c0,1.7-1.3,1.9-2.5,1.9
			C233.6,394.6,231.2,394.6,228.7,394.6z M744.9,427.4c3.8,17.7-8,30-18.4,26.6C736.7,448.5,742.7,439.6,744.9,427.4z M305.2,602.7
			c0,0.1,0,0.1,0,0.2c1.3,0,2.5,0,3.8,0c4.7,0,5.3,0.7,4.6,5.9c-0.1,1-0.3,1.9-1.3,2.1c-0.9,0.2-1.8,0.1-2.1-1
			c-0.7-2.2-2.2-2.3-3.8-2.2c-1.7,0-3.4,0.1-5.1,0c-1.8-0.1-3.3-0.1-3.7,2.6c-0.2,1.6-1.5,1.6-2.5,0.8c-1.9-1.6-0.8-4-0.9-6
			c-0.1-1.6,1-1.8,2.2-1.9C299.4,603.1,302.3,602.9,305.2,602.7z M305,393.5c0,0.2,0,0.3,0,0.5c-1.8,0-3.6,0-5.4,0
			c-4.5-0.1-4.5-0.1-4.8-5.1c-0.1-1.3,0-2.6,1.1-3c1.1-0.4,2.5-0.7,3.2,1.2c0.3,0.9,0.9,2.1,1.7,1.9c3.6-0.6,7.9,2.4,10.7-2.7
			c0.5-0.9,1.9-0.9,2.6-0.2c1.7,1.6,0.5,3.8,0.7,5.7c0.1,1.4-0.8,1.8-1.9,1.8C310.3,393.5,307.7,393.5,305,393.5z M227.4,604
			c2.5,0,5,0,7.6,0c1.4,0,2.4,0.5,2.1,2.2c-0.4,1.9,0.4,4.5-1.9,5.5c-0.7,0.3-1.1-0.3-1.5-0.9c-2.4-3.8-9.7-3.9-11.7-0.1
			c-0.7,1.2-1.5,1.3-2.4,1.1c-2.7-0.5-1.3-3-1.5-4.6c-0.2-1.6-0.2-3.2,1.9-3.2C222.3,604.1,224.9,604,227.4,604z M728.3,393.8
			c11.1-1.5,19.2,11.8,16.9,26.6C741.3,402.9,734.9,398.8,728.3,393.8z M741.4,591.9c-0.8-8.9-1.2-17.8-0.9-26.6
			c0-0.7-0.1-1.6,0.7-1.7c0.7-0.1,1.1,0.7,1.3,1.4c1,3.4,2.2,6.7,2.7,10.2C746.1,581.2,744.4,586.7,741.4,591.9z M656.6,576
			c0-3-0.3-6,1.6-8.5c0.2-0.3,0.3-0.6,0.4-0.9c0.1,0.1,0.3,0.1,0.4,0.3c0.8,1.2,2.8,1.3,2,3.9c-1,3.3-0.7,6.8-0.2,10.2
			c0.4,3,1,5.8,1.9,8.6c0.3,0.9,0.4,2-0.4,2.6c-1.1,0.9-1.4-0.4-1.9-1C656.4,587,657,581.3,656.6,576z M310.2,377.5
			c1.3-0.1,2.6-0.3,3.8-0.3c1.5,0,3,0.3,4.4,0.2c2.5-0.2,3.5,1.1,3.1,3.8c-0.1,0.8-0.2,1.7-0.1,2.5c0.2,2.2-0.8,2.6-2.6,3
			c-2.1,0.5-2.5-2.2-3.8-2c-3.6,0.6-4.3-1.4-4-4.7C311.1,379.1,309.9,378.8,310.2,377.5z M303.9,617.8c-1.6-0.3-3.9,0.8-5.2-1
			c-1.8-2.4,0.3-7.2,3.1-7.5c0.7-0.1,1.5-0.1,2.2-0.2c4.7-0.1,4.9,0.3,4.6,5.6C308.4,618.7,306,617.4,303.9,617.8z M739.5,437.7
			c-0.8-10-0.5-18.9-0.3-28.5C744.2,415.2,744.4,429.6,739.5,437.7z M785.6,422.6C785.6,422.6,785.6,422.6,785.6,422.6
			c0.2-2.5,0.2-5,0.4-7.5c0.1-0.9-0.8-2.7,1.1-2.6c1.2,0.1,2.7,0.6,2.7,2.5c0,5.2-0.1,10.5-0.4,15.7c-0.1,1.6-1.7,2.4-2.8,2.4
			c-1.5-0.1-0.8-1.9-0.9-2.9C785.5,427.6,785.6,425.1,785.6,422.6z M319.5,614.1c0,5.1,0,5.1-4.2,5.2c-1.5,0-2.9,0.3-4.4,0.4
			c-0.7,0-1.9-0.2-1.3-1.2c1.1-2-0.6-6.5,3.8-5.8c0.3,0,0.7-0.4,0.9-0.8c1-1.9,2.7-2.6,4.3-1.9C320.4,610.6,319,612.8,319.5,614.1z
			 M227.5,610c4.6,0.1,4.6,0.1,5,1.6c1.1,4-0.4,6.3-4.1,6.3c-0.7,0-1.5-0.1-2.2,0c-2.3,0.3-3.2-0.7-3.1-3.5
			C223.2,609.9,223,609.9,227.5,610z M304.6,387.5c-1.1-0.8-3.2,1.2-4.1-1.3c-1.5-4.2,0.2-6.7,4.2-6.6c0.4,0,0.8,0,1.3,0
			c3.5,0.1,4,0.8,3.8,4.8C309.5,388.6,306.9,387.3,304.6,387.5z M229.1,379.9c1.2,0.8,3.6-1.5,4.3,1.5c1.1,5,0.1,6.4-4.4,6.3
			c-0.9,0-1.9,0-2.8-0.1c-0.7,0-1.1-0.4-1.3-1.2C223.5,382.1,224.9,379.8,229.1,379.9z M214.8,383.4c-0.1-5.3,0.2-5.6,5.2-5.5
			c1.6,0,3.5-0.6,3.2,2.7c-0.2,2.4,0.2,4.7-3,4.1c-1.2-0.2-2.3,0-2.6,1.8c-0.2,0.9-0.9,1.2-1.7,1c-0.7-0.2-1-0.8-1.1-1.6
			C214.7,385.1,214.8,384.3,214.8,383.4z M589.4,501.6c-2.2,0.2-4.4,1-6.5-0.4c-0.7-0.5-1.2-1-1.1-2c0.1-0.7,0.5-1,1.1-1
			c4.9,0,9.9,0.1,14.8,0.1c1,0,1.6,0.7,1.6,1.8c0,1.3-0.8,1.4-1.8,1.4C594.9,501.6,592.1,501.6,589.4,501.6z M222.8,347.7
			c-3.7,1.1-7.2-0.5-10.7-0.4c-1.2,0-2.1-0.4-2-2c0.1-1.4,0.1-3,2-3C216.4,342.3,219.8,344.5,222.8,347.7z M218.1,619.7
			c-4,0-4.3-0.4-3.9-5.7c0.4-4.8,2.5,0,3.6-0.8c0.4-0.3,1-0.1,1.6-0.1c1.4-0.1,2.1,0.6,2.3,2.2C222.2,619.4,221.9,619.8,218.1,619.7
			z M673.7,605.2c-0.1,0-0.1,0-0.2,0c0-0.5-0.2-1-0.1-1.4c0.4-1.4-1-4.1,1.7-3.9c2.3,0.1,3.5,1.6,3,4.5c-0.3,1.6-0.3,3.3-0.2,5
			c0,1.6-0.5,2.3-2,2.4c-1.5,0.1-2.1-0.7-2.2-2.3C673.7,608.1,673.7,606.6,673.7,605.2z M674.2,393.7c1.3-1.3-1.5-4.8,2.4-4.8
			c3.6,0,2.7,3.1,2.9,5.4c0.2,2.6-0.7,4.6-3.2,4.5C672.8,398.6,675.3,395.5,674.2,393.7z M391.5,398.5c0.3-0.1,0.6-0.2,0.9-0.3
			c1.6,2.9,3.3,5.7,4.9,8.6c0.5,0.9,0.3,1.7-0.5,2c-1.8,0.6-3,2.6-5.1,2.3c-0.1,0-0.2-0.9-0.3-1.3
			C391.5,406,391.5,402.3,391.5,398.5z M730.1,548.4c6.7-1.3,14.1,7.1,13.4,14.7C740.5,556.6,736.2,551.9,730.1,548.4z M745,590.9
			c0.1,6.9-9.1,18.7-13.9,16.2C737.5,603.7,741.1,597.3,745,590.9z M662.7,483.1c5.9-1.6,18.5-0.7,21,1.4
			C676.4,484,669.5,484.7,662.7,483.1z M435.3,354.1c0.1,0.3,0.2,0.6,0.2,0.9c-3.3,2.2-7.2,2.7-10.7,4.2c-1.1,0.4-1.7-0.6-2.5-1.1
			c-0.5-0.3-0.9-0.7-0.7-1.3c0.1-0.3,0.7-0.5,1-0.6C426.8,355.5,431.1,354.8,435.3,354.1z M833.1,423.9c0-1.6-0.1-3.7,1.9-3
			c1.8,0.5,5-1.4,5,2.9c0,4.2-3.3,2.2-5,2.9C833.2,427.3,833.2,425.3,833.1,423.9z M523.5,426c2.5,0,3.3,1.7,3.3,3.7
			c0,2-1,3.5-2.9,3.3c-1.8-0.1-3.3-1.3-3.3-3.5C520.5,427.4,521.9,426.2,523.5,426z M476,374.3c0.4-0.9-0.8-2.9,0.8-3.4
			c0.9-0.3,2.4,0.3,3.1,1.1c1.1,1.2,0.4,3.1,0.5,4.8c0,1.2,0,2.7-1.5,2.5c-1.3-0.1-2.7-0.5-2.9-2.5C476,376.1,476,375.4,476,374.3z
			 M451.4,375.1c-0.3-2.6-0.2-4.8,2.3-4.8c2.6,0,1.5,2.6,1.7,4.1c0.3,2-0.3,3.9-2.6,3.9C450.2,378.4,451.8,375.9,451.4,375.1z
			 M600.3,439.4c0-1.8,2.8-6.3,3.6-5.8c1.5,0.9,1.3,3,1.9,4.5c0.4,1-1.1,3.7-2.8,4C602.3,442.2,600.2,441.5,600.3,439.4z
			 M653.5,562.9c2,0,3.9-0.5,3.9,2.8c0,2.9-1.9,2.3-3.3,2.4c-1.8,0.2-3.2,0-3.1-2.9C651,562.5,652.3,562.8,653.5,562.9z
			 M454.4,485.1c-0.6,1,1.1,3.4-1.5,3.2c-1.8-0.1-3.5-0.5-2.3-3.4c0.2-0.6-0.1-1.4-0.2-2.1c-0.1-1-0.7-2.3,0.8-2.5
			c1.2-0.2,2.4,0.2,2.9,1.5C454.4,482.8,454.3,484,454.4,485.1z M372.3,410.4C372.3,410.5,372.3,410.5,372.3,410.4
			c-1.6,0-3.1,0.1-4.7,0c-0.8-0.1-1.4-0.6-1.3-1.6c0.1-0.9,0.7-1,1.4-1c3.1,0.1,6.3,0.2,9.4,0.2c0.7,0,1.3,0.3,1.4,1.1
			c0.1,1.2-0.8,1.3-1.5,1.4C375.4,410.5,373.8,410.4,372.3,410.4z M684.2,549.1c0-1.4,0.8-1.6,1.5-1.6c1.3,0,4.5,5.9,3.8,7.1
			c-0.4,0.8-1.3,1.7-2,0.7C686.2,553.3,685.2,551.1,684.2,549.1z M602.1,557.2c0.8,0,1.1,1.3,1.6,2.2c1.1,1.9,1,4.4-0.5,5.4
			c-0.9,0.7-1.7-1.9-2.4-3.1c-0.4-0.7-0.6-1.5-0.9-2.3C599.6,557.9,600.5,557.5,602.1,557.2z M832.9,684.6c-0.1-1.4,4.8-7.1,5.9-6.9
			c1.2,0.2,1.5,0.9,0.6,1.9c-1.6,1.9-3.3,3.6-5,5.4C833.9,685.7,833.2,685.7,832.9,684.6z M661.8,563.7c-0.1-1.3,0.2-2.6,1.8-2.1
			c1.2,0.3,3.2-0.6,3.2,2.2c0,2.7-1.9,1.9-3.2,2.3C661.8,566.6,661.8,565.3,661.8,563.7z M608,432.5c0.1-1.8-0.7-3.8,1.8-4
			c2-0.2,1.5,1.5,1.6,2.6c0.2,2.1-0.5,4.3-2.3,4.4C607.2,435.8,608.4,433.4,608,432.5z M602.1,530.4c-0.6,1,1,3.7-1.1,3.7
			c-2.1,0-1.2-2.5-1.3-4c-0.1-0.7,0-1.4,0-2.1c0-1,0.3-2,1.4-1.9c1,0.1,0.9,1.1,0.9,1.9C602.1,528.7,602.1,529.4,602.1,530.4z
			 M873.7,443.1c-0.8-0.3-2.2,0.5-2.2-1.1c0.1-1.6,0.8-3.2,2.8-2.9c1.2,0.1,2.4,0.1,2.4,2C876.7,443.5,875,442.9,873.7,443.1z
			 M602.6,454.7c0-0.2,0.1,0.6,0.1,1.4c0,1-0.2,1.9-1.3,1.9c-1.3,0-1.2-1-1.1-2c0-1.4,0.1-2.8,0.1-4.3c0-1.2,0.8-1.8,1.5-1.9
			c1,0,0.8,1.1,0.9,1.9C602.7,452.5,602.7,453.1,602.6,454.7z M528.2,429.3c-1.6-4.1-3.6-5.8-6.9-3.7c-0.5,0.3-1.1,0.2-1.3-0.4
			c-0.3-0.9,0.2-1.3,0.8-1.6c1.6-0.8,3.1,0,4.7,0.1C529,423.9,529.3,424.4,528.2,429.3z M370.7,587.7c0,0,0-0.1,0-0.1
			c-1.6,0-3.2,0-4.7,0c-0.6,0-1.4,0-1.3-1c0.1-0.7,0.6-0.8,1.2-0.8c3.1,0.1,6.1,0.1,9.2,0.2c0.6,0,1.4,0,1.4,0.9
			c0,1.3-1,0.9-1.7,0.9C373.5,587.8,372.1,587.7,370.7,587.7z M685.3,451c1.2-1.5,2.4-3,3.6-4.5c0.1-0.1,0.7,0,0.8,0.1
			c1.2,1.9,0.1,3.1-0.8,4.7c-1,1.7-1.9,1.2-3,0.6C685.6,451.8,685.5,451.4,685.3,451z M277.4,370.3c-0.3-2.9-2.1-5.2-1.7-8
			c0.1-1.1,0.5-1.9,1.4-2c1.2-0.1,1.2,1.2,1.1,2.1C278,365,277.7,367.7,277.4,370.3z M528.1,430.9c1.5,3.7,1,4.9-2.1,4.9
			c-1.5,0-2.9,0-4.4-0.1c-0.7,0-1.7,0.2-1.5-1.1c0.2-1.2,1.1-1.1,1.7-0.7C524.8,435.4,526.8,434,528.1,430.9z M729.8,561.1
			c0.1,0,0.3,0,0.4,0c0,8.2,0,16.3,0,24.5c-0.1,0-0.3,0-0.4,0C729.8,577.4,729.8,569.3,729.8,561.1z M612.5,568.8
			c0.3-0.9-0.2-2.8,1.3-2.5c1.5,0.2,2.7,1.6,2.8,3.4c0.1,1.5-1.1,1.4-2.1,1.5C613,571.4,612.4,570.6,612.5,568.8z M683.4,518.3
			c-6.6,2.1-13.3,1.3-19.9,0.9C670.1,518.5,676.7,519,683.4,518.3z M599.5,546.3c0.2-1.4-0.7-3.5,1.4-3.7c1.9-0.1,0.9,1.9,1.1,2.9
			c0.2,1.6-0.1,3.5-1.7,3.6C598.8,549.2,599.8,547.3,599.5,546.3z M599.8,514.2c0.2-0.9-0.5-3.1,1.2-3.1c1.9,0,0.9,2.2,1,3.4
			c0.1,1,0.7,2.7-0.8,2.9C599.6,517.5,599.7,515.9,599.8,514.2z M600.2,470.2c0.4-1-0.8-2.9,1.1-3c1.7-0.1,1.5,1.7,1.5,2.9
			c0,1.2,0.5,2.9-1.3,3C599.5,473.2,600.5,471.2,600.2,470.2z M606.8,566.9c0.4-0.5-0.6-2.3,1.1-2.3c1.3,0,1.9,1,1.6,2.4
			c-0.2,1,0.3,2.7-1.2,2.7C607.1,569.6,606.4,568.7,606.8,566.9z M600.2,498.1c-0.5-1.2-0.3-2,0.6-2.2c1.3-0.2,1.5,1,1.4,2.1
			c-0.2,1.5,1,4.1-0.9,4.1C599.1,502.1,601.4,499,600.2,498.1z M353.5,589.1c1.1,0.2,1.6,0.9,1.7,2.2c0,1.3-0.5,2-1.7,2
			c-1.2,0-1.6-1-1.7-2.1C351.7,589.8,352.4,589.3,353.5,589.1z M353.4,406.1c-0.2-1.5,0.1-2.4,1.4-2.4c1.4,0,1.4,1.1,1.4,2.2
			c0,1.1,0,2.3-1.4,2.2C353.5,408.1,353.5,407,353.4,406.1z M378.2,404c0.5-3.1-1.1-6.4,0.5-9.4C378.8,397.7,379.3,400.9,378.2,404z
			 M600.1,485.2c0.4-1-0.5-2.9,1.3-3c1.2-0.1,1.2,1.1,1.1,2c-0.1,1.2,0.2,2.9-1.4,3.1C599.8,487.4,600.3,486,600.1,485.2z
			 M389.9,378.7c0.5,2.7,0.8,5.5-0.2,8.2C388.7,384.2,389.6,381.5,389.9,378.7z M874.2,561.9c-1.1-0.1-1.5-1.2-1.7-2.4
			c-0.2-1,0.2-1.6,1.2-1.4c1.1,0.2,2.1,0.5,2,2.1C875.6,561.2,875.3,561.9,874.2,561.9z"/>
		<path stroke="#000000" stroke-width="2" stroke-miterlimit="10" d="M385.9,595.1c0-2.4,0-4.1,0-5.8c0-1-0.3-2.6,1-2.5
			c1.5,0,1.2,1.6,1.2,2.8c0,2.9-0.1,5.7-0.1,8.6c0,0.6,0,1.2,1,2c0-3.3-0.1-6.2,0-9.1c0.1-3.2,0.7-3.5,3.2-1.9
			c0.1,0.1,0.2,0.1,0.3,0.2c3.9,2.7,3.9,2.7,1.4,6.9c-1,1.7-1.7,3.5-2.7,5.2c-0.9,1.6-1.9,3.1,0,4.6c1.9,1.5,3.6,1.2,4.9-0.9
			c1.3-2.1,2.4-4.2,3.6-6.3c1.4-2.7,3.1-3.2,5.3-1c1.3,1.4,2.9,2.4,4.3,3.6c0.7,0.6,1.9,1,1.5,2.4c-0.4,1.2-1.4,1.8-2.5,1.8
			c-1.8,0.1-3.5,0.3-5.2,1.2c-4.6,2.5-6.3,7.1-6.8,12.4c-0.2,1.7-0.5,2.8-1.7,4c-2.5,2.4-2.2,4.4,0.6,6.3c0.5,0.3,1,0.7,0.7,1.4
			c-0.3,0.9-1.4,0.3-2,1.1c1.9,0.7,3.6,1.7,4.5,3.7c0.2,0.4,0.9,0.9,1.3,0.8c5.6-1.2,10.4,2.1,15.4,3.7c2.2,0.7,4.7,0.7,6.5,2.9
			c-3-0.2-6-0.5-9-0.9c-9-1.3-17.9-2.8-26.9-3.4c-4.6-0.3-4.8-1.1-5-6.2c-0.5-13.7-0.1-27.4-0.1-41.2c0-1.7,0-3.3,0-5.2
			c-1.5,0.8-1,2-1,2.9c-0.1,15.2-0.1,30.3-0.1,45.5c0,4.1,1.3,5.3,4.9,5.6c8.1,0.8,16.1,1.6,24.2,2.9c5.7,0.9,11.5,1.4,17.2,2.3
			c3.7,0.6,7.5,1.3,11.2,1.9c7,1.2,14.1,1.7,21.1,2.7c10.6,1.5,21.3,3.2,31.9,4.8c10.2,1.5,20.5,3,30.9,2.2
			c14.7-1.1,29.1-4.1,43-9.8c11.9-4.9,23-11.6,33.3-19.7c6.5-5.1,12-11.5,17.8-17.7c7.4-7.9,13.2-17.2,18.8-26.8
			c-2-1.3-2.8,0.2-3.5,1.7c-2.9,6.7-7,12.5-11.4,18c-14.7,18-31.7,32.6-52.1,41.5c-20.1,8.8-41,12.6-62.5,10.5
			c-9.6-0.9-19.2-2.7-28.3-6.5c-0.7-0.3-1.4-0.4-2.2-0.1c1,1.7,2.9,1.4,4.2,3.1c-2.1-0.2-4.3-0.3-6.4-0.7
			c-6.2-0.9-12.3-2.3-18.4-2.8c-13.5-1-26.6-4-39.2-9.6c-2.9-1.3-6-1.9-9-2.8c-0.7-0.2-1.7-0.3-1.6-1.3c0.1-1.3,1.1-0.9,2-0.8
			c7.6,0.7,13.1-3.7,14.9-12c0.3-1.2,0.6-2.3,0.1-3.5c-0.7-1.6-0.3-2.6,1.1-2.9c1.5-0.3,1.3-1.6,1.5-2.7c0.3-1.9-1.2-0.8-1.6-1.3
			c-2-2.1-4-4.2-5.9-6.4c-3.8-4.2-8.6-6.6-12.8-10.1c-0.9-0.8-1.3,0.2-1.7,0.8c-1.8,2.8-3.5,5.7-5.3,8.5c-0.7,1-1.5,2.5-2.8,1.8
			c-1.7-0.8-0.8-2.7-0.3-3.8c2.1-4.6,4.5-8.9,8.4-12.2c-0.6-0.3-1.4-0.9-2-2.3c-0.6,1.6-0.5,4-2.8,2.7c-8.9-5.4-18.6-8.5-27.6-13.7
			c-5.7-3.3-8.4-9-8.5-16c-0.1-11.7,0-23.4,0.1-35.1c0.2-16.2,0.4-32.5,0.6-48.7c0.2-13.3,0.4-26.7,0.6-40c0.1-7.1,3.7-12,9.8-13.9
			c3.3-1,6.4-2.6,10.1-4.1c-2.1-1-3.2-1.7-4.9,0.4c-1.3,1.6-3.9,2-6,2.7c-3.9,1.3-6.6,4.4-8.8,7.7c-2.1,3.2-1.1,7.4-1.3,11.1
			c-0.4,10.6-0.2,21.3-0.4,31.9c-0.2,14.1-0.7,28.1-0.9,42.2c-0.2,16.3-0.3,32.7-0.5,49c0,5.1,3.3,8.1,5.9,11.4
			c1.4,1.9,3.5,3.5,5.8,4.1c0.1,0,0.3,0,0.3,0c1.1,5.3,5.4,2.1,8,3.5c5.9,3.2,6.1,2.7,6.1,9.7C384.5,592.8,384.5,592.8,385.9,595.1z
			 M419.7,612.9c0,2.7-2.8,3.1-3.1,5.4c2.3,0.6,2.7,1,2.3,3.1c-0.9,4.6-3,8.4-7.1,9.6c-1.5,0.4-4.7,4.3-5.9-1.1
			c-0.1-0.5-0.9,0-1.3,0.5c-1.2,1.3-2.4,2.6-3.7,3.9c-0.4,0.4-0.9,1.3-1.5,0.4c-0.6-0.8,0.3-1.2,0.7-1.7c0.8-1.2,2.5-1.5,2.8-3.4
			c-3.5,0.2-4.6-2.4-5.2-5.7c-1,1.1-1.9,1.9-2.7,2.8c-0.4,0.4-0.8,0.9-1.3,0.3c-0.5-0.5-0.1-1.1,0.3-1.5c0.9-0.9,1.9-1.6,2.6-2.6
			c0.8-1,1.5-1.9,1.2-3.7c-1.3-6.1,4-12.4,9.6-11.6c0.9,0.1,1.6-0.1,2.4-0.4c1.2-0.5,2.2-3.2,3.3-1.8c1.4,1.8-1.6,2.2-1.9,3.8
			c0,0.2,0,0.4,0.1,0.9c1.6-1.1,2.6-0.5,3.6,1.1c1,1.6,0.9,3,0.1,4.7C417.2,615.6,417.6,612.8,419.7,612.9z M397,626.4
			c0.4,0.5,0.7,0.8,0.9,1.1c0.6,1.3,2,2.1,1.8,3.9c0,0.4-0.6,0.6-1,0.3c-1.3-1.1-2.2-2.4-2.3-4.3C396.4,627.1,396.6,626.9,397,626.4
			z M414.4,607c1.8,0.5,2.5,1.9,3.4,3c0.4,0.5,0.3,1.1-0.1,1.6c-0.2,0.2-0.8,0.1-0.8,0C416.2,610,414.4,609.3,414.4,607z"/>
		<path stroke="#000000" stroke-width="2" stroke-miterlimit="10" d="M507.3,589c-0.2,12.9,9.5,21.4,18.9,22.1
			c11.6,0.9,20.7-8.6,20.6-20.7c-0.1-15.3-8.3-23-20.2-23.5C517.7,566.5,506.9,575,507.3,589z M522.9,589.6c0.1,0,0.2,0,0.3,0
			c0-1.9,0-3.8,0-5.7c0.2-7.8,0.2-7.7,7-7.5c2.5,0.1,3.1,1.2,2.9,3.7c-0.2,4.6-0.2,9.3-0.4,13.9c-0.3,7.6-0.5,7.7-7.3,7
			c-1.9-0.2-2.6-1.1-2.5-3.2C522.9,595.1,522.9,592.3,522.9,589.6z M530.7,608.3c10.5-4.6,16.4-12.9,12.5-25.5
			c-4-13.1-13.7-14.5-25.1-10.9c7.8-5.8,14.6-3.5,21.4,2c5.1,4.1,7.2,14.7,5.2,21.6C542.5,602.9,536.8,608.3,530.7,608.3z
			 M538.3,583.3c3.7,1,5.1,2.9,4.3,6.6c-0.7,3.4-3.3,1.9-5,1.7c-3.3-0.3-1.8-3.5-1.7-5.3c0.2-5.5,1.6-6.6,5-4.5
			C540.4,583.2,538.7,581.9,538.3,583.3z M518.1,587.8c0.1,2.3,0,4.3-2.4,4.1c-1.6-0.1-4,0.6-3.6-2.8c0.2-2.1-0.8-4.9,2.8-5
			C517.7,583.9,518.3,585.4,518.1,587.8z M512,598.7c-4.7-6-3-19.5,1.5-21.6C510,584.2,509.4,591.3,512,598.7z M513.2,600.6
			c4.5,5.3,9.9,7.8,17.2,7.5C525.2,610.8,517.1,607.2,513.2,600.6z M535.9,599.2c0-2-0.1-3.9,2.4-3.5c1,0.2,2.3-0.2,2.5,1.4
			c0.2,1.3-2.7,4.9-3.9,4.8C535.2,601.7,536.2,600.1,535.9,599.2z M515.6,595.3c1.5-0.1,2.3,0.5,2.2,2.2c-0.1,1.3-0.2,2.7,1.1,3.4
			c0.7,0.4,1.6,0.6,0.8,1.6c-0.7,0.9-1.5,0.3-2.1-0.5c-1-1.3-2-2.7-3.1-4c-0.5-0.6-1.5-0.8-1.2-1.8
			C513.8,595,514.9,595.4,515.6,595.3z M521.8,604c3.3,0,6,0,8.7,0c0.5,0,1.1-0.1,1.2,0.7c0.1,0.6-0.3,0.8-0.6,1.1
			C529.8,606.7,523.7,605.8,521.8,604z M522.1,593.7c-0.2,0-0.3,0-0.5,0.1c0-5.9,0-11.8,0-17.7c0.2,0,0.3,0,0.5,0
			C522.1,581.9,522.1,587.8,522.1,593.7z M519.6,591.1c-0.3-3.3-1-6.6,0.3-9.9C520.2,584.6,520.7,587.9,519.6,591.1z M534.2,596.8
			c-0.3-3.5-0.8-7,0-10.5C535.1,589.8,534.7,593.3,534.2,596.8z"/>
		<path stroke="#000000" stroke-width="2" stroke-miterlimit="10" d="M549,427.9c1.5-0.4,2-2.5,3.4-1.6c1.1,0.8,0.7,2.2,0.6,3.3
			c-0.3,3,0.9,3.7,3.4,3.5c3.3-0.2,6.7-0.1,10.2-0.1c-0.2,3.4-2.7,4.1-4.4,4.8c-1.9,0.8-4.1,0.6-6.2-0.3c-2-0.9-2.8-3.4-5.3-4.5
			c1,3.5,3,5.1,5.4,6c7.6,2.7,15.1-3.6,14.6-12.7c-0.3-6.8-0.1-13.6-0.3-20.4c-0.1-4.8-5.1-10.5-9.9-11.3c-4.7-0.9-8.7,1.8-10.5,6.9
			c-0.9,2.7-0.3,5.4-0.5,8.1c-0.2,3-0.2,6-0.2,8.9C549.5,421.6,549.6,424.5,549,427.9z M564.7,416.1c0,0,0.1,0,0.1,0
			c-0.1,2.7-0.3,5.5-0.3,8.2c-0.1,6-0.1,5.9-5.5,6c-2.7,0.1-3.2-1.2-3.1-3.8c0.2-5.2,0.3-10.4,0-15.7c-0.3-7.1,0.3-7.6,6.6-7.2
			c1.5,0.1,2.3,0.5,2.3,2.4C564.7,409.4,564.7,412.8,564.7,416.1z M569.3,416.8c0,0,0.1,0,0.1,0c0,3.7,0,7.4,0,11
			c0,1.1-0.1,2.8-1.3,2.8c-1.2,0-1.2-1.7-1.2-2.9c-0.3-7.3,0.1-14.7,0.3-22c0-0.8-0.1-1.9,0.9-2c1.2-0.2,1.2,1.1,1.2,2
			C569.4,409.4,569.3,413.1,569.3,416.8z M550.8,406.3c-0.1-3.9,1.1-6.9,3.8-8.9c2.8-2.2,5.7-1.7,8.5,0.1c0.9,0.6,2,1.4,1.6,2.7
			c-0.3,1.1-1.4,0.6-2.2,0.7c-1.9,0-3.8,0.1-5.7,0c-2.1-0.1-3.5,0.3-3.4,3.2C553.5,405.6,552.1,405.8,550.8,406.3z M554.5,426.7
			c-0.9-6.4-0.4-12.9,0.3-19.3C555.1,413.8,555.7,420.3,554.5,426.7z"/>
		<path stroke="#000000" stroke-width="2" stroke-miterlimit="10" d="M543.8,526.9c0.4,1.5-0.7,2.3-1.1,3.3
			c-1.1,3.5,0.4,7.3,3.6,8.8c2.5,1.2,6.5-0.5,7.6-3.3c1.4-3.5,0.1-7.5-3-9.1c-0.5-0.3-1.4-0.1-1.5-1c-0.2-1.1,0.9-1.2,1.4-1.6
			c5.5-3.6,9.5-8.5,11.5-15.5c4.3-14.7-3.7-31-17.1-34.2c-9.3-2.2-17.4,0.5-23.7,9c-5.6,7.5-6.8,20.5-2.6,29.5
			c4.3,9.2,13.9,15.1,22.8,14C542.4,526.8,543.1,526.9,543.8,526.9z M539.7,525.4c-11.4,0.3-22-10.9-21.9-25.1
			c0.1-14.1,9.1-24.9,22.4-24.8c12.4,0.1,21.5,11.5,21.8,24.7C562.3,513.9,552,525.3,539.7,525.4z M553.1,532.2
			c0,3.6-1.9,5.9-4.9,5.9c-2.6,0-4.9-2.7-4.8-5.5c0.1-3,2.3-5.5,4.7-5.5C551,527.1,553.1,529.2,553.1,532.2z"/>
		<path stroke="#000000" stroke-width="2" stroke-miterlimit="10" d="M372.4,479.1c1.8,0.1,4.2,0.4,6.6,0.5c0.9,0,2.1,0,2.4-1.2
			c0.3-1.2,0.8-2.7-0.5-3.5c-0.8-0.5-0.8-1.3-0.9-2.1c-0.2-1.1-1.1-1.4-2-1.4c-0.8,0-1.5,0.5-1.4,1.5c0,2-1.2,2-2.4,2
			c-1,0-2.2,0.2-2.2-1.7c0-1.2-0.9-1.6-1.7-1.8c-2.2-0.3-2-2.3-1.9-3.8c0.2-3,5-6.3,7.6-5.7c1.2,0.3,0.8,1,0.8,1.8
			c0,1.2,0.7,2,1.8,2c1,0,1.3-0.9,1.1-1.8c-0.3-1.5,0.7-1.9,1.5-2.8c1.4-1.5,1.3-3.3-0.9-3.4c-4.5-0.2-9-0.1-13.5,0.4
			c-1.8,0.2-2.3,2.4-2.2,4.2c0.2,3.8,0.3,7.6,0.2,11.4C364.6,478.1,366.8,479.6,372.4,479.1z M379.7,459c-3,2.1-6.1,1.6-9.1,1.8
			c-2.5,0.2-3.6,0.8-3.2,4c0.5,4.2,0.2,5.1-1.4,8c0-4.3-0.1-7.9,0-11.4c0.1-1.7,1.3-2.5,2.6-2.5C372.3,458.9,376,459,379.7,459z
			 M369.1,477.6c5.2-2.2,8.9-2,10.8,0C376.2,477.6,372.7,477.6,369.1,477.6z"/>
		<path stroke="#000000" stroke-width="2" stroke-miterlimit="10" d="M460.2,637.2c-0.1-0.9-0.1-1.8-1.1-2.3
			c-7.6-4.1-14.3-9.9-21.8-14.2c-2.6-1.5-5.4-1.9-8-2.9c-2.5-0.9-3-3.3-4.4-4.9c-1.1,1-0.2,1.6,0.1,2.2c1.9,3.6,2.5,7.9,4.5,11.5
			c1.2,2,2.4,3.3,4.2,4.4c5.6,3.3,11,7,16.4,10.6c3.7,2.5,7.6,3.2,11.7,1.7c1.6-0.6,2.7-0.4,3.3,1.4c0.7,2.2,2.1,2.3,4.3,1.9
			c-1.3-1.2-3.1-0.6-3.6-2.6c1.6-0.4,3.7,0.5,4.8-2c-3.1,0.7-5.9,1.1-7.3-3.1c-0.2-0.7-1.9-0.7-2.9-1.1c0.1,0.8,0.3,1.4,0.9,1.8
			c1.5,0.9,1.1,1.5-0.1,2.4c-1.2,0.9-2.3,1-3.5,0.6c-0.7-0.2-1.1-1-0.7-1.7C458,639.4,457.7,636.7,460.2,637.2z M436.9,630.2
			c0.9-1.8,1.7-4.1,3.2-5.7c1.1-1.2,2.4,0.7,3.5,1.4c1.8,1,3.4,2.3,5.1,3.5c4.1,2.8,4,2.8,1.6,7.5c-0.9,1.7-1.6,2.2-3.2,1.1
			c-3-2-6-3.7-9-5.6C437.5,631.9,436.7,631.6,436.9,630.2z M431.1,626.5c-0.1-2.1,2.1-6,3.3-5.8c1.7,0.3,3.5,0.9,4.2,3
			c0.3,0.9-3,6-3.6,5.8C433.3,629.1,431.5,628.6,431.1,626.5z M453.8,633c1.2,1.5,3.5,1.3,3.8,3.6c0.2,1.6-2.6,5.2-3.8,4.9
			c-1.4-0.4-3.3-0.8-3-2.9C451.1,636.6,452,634.5,453.8,633z M430,623.5c-1.1-0.8-1.4-2-1.4-3.4c-0.1-0.8,0.4-1.5,1.1-1.2
			c0.9,0.4,2.1,0.9,1.8,2.4C431.3,622.2,431.1,623.2,430,623.5z"/>
		<path stroke="#000000" stroke-width="2" stroke-miterlimit="10" d="M394.2,553.2c-0.6-11.4-6-15.3-15.3-16.4
			c-6.8-0.8-13.2,7.9-13.3,16.8c0,8.1,7.1,17.1,13.9,16.4C389.3,569,393.7,565.2,394.2,553.2z M392.9,553.5
			c0.5,8.1-6.4,14.4-12.8,14.6c-6.8,0.3-12.6-7.1-12.5-15.4c0-6.7,6-14.2,11.7-13.9C386.8,539.2,392.8,544.5,392.9,553.5z"/>
		<path stroke="#000000" stroke-width="2" stroke-miterlimit="10" d="M585.1,418.9c6.3,1.3,12.8-2.6,19.7-2.1
			c1.2,0.1,1.8-0.5,1.8-1.9c-0.1-1.5-1-1.3-2.1-1.4c-3.4-0.1-7.1,1.5-10.2-1.7c-0.4-0.4-1.2-0.2-1.9-0.2c-5.2,0-10.3,0.1-15.5,0
			c-4.2-0.1-2.5,3.5-2.8,5.6c-0.5,3,1.5,2.1,2.8,2C579.5,419.1,582,419.7,585.1,418.9z M601.6,415.4c-7.4,0.9-14.7,2-22.9,0.9
			C581.9,414.6,595.5,414.1,601.6,415.4z"/>
		<path stroke="#000000" stroke-width="2" stroke-miterlimit="10" d="M393.3,533.4c-6.1-0.7-12.4-1.2-18.4,0.7
			c-8.4,2.6-14.9,13.3-12.1,24.5c2.2,8.7,7.1,14.2,15.4,15.6c4.6,0.8,9.1,0.9,13.7,1.3c0-0.3,0.1-0.7,0.1-1c-3.3-0.4-6.6-1-10-1.3
			c-9.9-0.9-15.7-6.4-17.6-14.9c-2.6-11.5,3.3-21.3,13.8-23.6C383.3,533.6,388.3,534.1,393.3,533.4z"/>
		<path stroke="#000000" stroke-width="2" stroke-miterlimit="10" d="M422,616c0,6.8,0,12.5,0,18.1c0,1.2,0.1,2.4,1.7,2.3
			c1.5-0.1,1.6-1,1.6-2.4c0.1-4.3-0.1-8.5,0.4-12.8C425.9,619.3,423.3,618.6,422,616z M423.1,620.2c1.5,5.1,0.9,9.6,0.9,14.1
			c-0.3,0-0.6,0-0.9,0C423.1,629.8,423.1,625.3,423.1,620.2z"/>
		<path stroke="#000000" stroke-width="2" stroke-miterlimit="10" d="M610.9,621c-4.5,4.2-9.1,8.4-13.8,12.8
			c1.9,0.4,2.6-1.3,3.6-2.1c3-2.5,6-5.3,8.9-8C610.3,623.1,611.6,622.5,610.9,621C610.8,620.9,610.9,621,610.9,621z"/>
		<path stroke="#000000" stroke-width="2" stroke-miterlimit="10" d="M371.4,467.9c0,1,0.5,2,1.8,2c1.5-0.1,2.6-1.1,2.5-2.9
			c0-1.2-0.8-2.2-2.1-2.1C372.1,465,371.3,465.8,371.4,467.9z"/>
		<path stroke="#000000" stroke-width="2" stroke-miterlimit="10" d="M478.1,351.4c-5.1,0.3-9.6,2.8-14,5.5
			C468.8,355.1,473.5,353.2,478.1,351.4z"/>
		<path stroke="#000000" stroke-width="2" stroke-miterlimit="10" d="M534.6,339.7c4,0.7,7.9,1.4,11.9,2
			C542.6,340.3,538.8,338.5,534.6,339.7C534.6,339.7,534.6,339.7,534.6,339.7z"/>
		<path stroke="#000000" stroke-width="2" stroke-miterlimit="10" d="M466.8,632.8c2.4,1.7,4.8,3.4,7.2,5.1c0.2-0.3,0.3-0.5,0.5-0.8
			C472.2,635.1,469.7,633.7,466.8,632.8z"/>
		<path stroke="#000000" stroke-width="2" stroke-miterlimit="10" d="M545.3,658.8c3.1,0.4,5.8-1.1,8.6-2.1
			C550.9,656.5,548.2,658.1,545.3,658.8z"/>
		<path stroke="#000000" stroke-width="2" stroke-miterlimit="10" d="M578.1,353.7c-1.9-2.3-4.4-2.9-7-3.7
			C573.4,351.5,575.4,353.5,578.1,353.7C578.2,353.7,578.1,353.7,578.1,353.7z"/>
		<path stroke="#000000" stroke-width="2" stroke-miterlimit="10" d="M650.8,627.7c-13.3,0.4-24.8,10.2-25,27.2
			c-0.2,18.9,9.4,28.4,24.6,29.2c11.6,0.6,25.2-12.6,25.5-25.4C676.5,639.3,661.9,627.3,650.8,627.7z M650.7,629.7
			c11-1.1,24.1,12.8,23.9,26.7c-0.2,14.4-12.2,26.5-23.6,26.4c-14.1-0.1-24-10.8-24.1-27C626.7,641.7,637,628.9,650.7,629.7z"/>
		<path stroke="#000000" stroke-width="2" stroke-miterlimit="10" d="M133.4,681.9c0,1,0.2,2.6,0,4.1c-0.6,3.5,1.8,4.8,3.6,6.4
			c1.3,1.1,2.7,0.2,3.4-1.4c1.2-2.7,3.1-3.3,5.5-3.1c5.5,0.4,9.5-3.4,13.6-6.6c0.8-0.6,1.5-1.9,0.6-3.1c-0.9-1.2-1.9-1.1-3-0.1
			c-1,0.9-2,1.9-3.1,2.4c-0.9,0.4-3.6,2.9-2.3-1.6c0.4-1.5-0.9-2-2-1.9c-2.8,0.2-5.2-1.1-7.8-1.9c-1.4-0.4-1.7-1.3-1.3-2.6
			c0.4-1.2,0.9-2.4-0.5-3c-1.3-0.5-2.2,0.2-3.4,1.1C132.8,673.2,133.3,677.3,133.4,681.9z M155.8,681.1c-2.6,4.6-15.8,7.3-19.5,3.8
			C143.1,684.9,149.9,685.8,155.8,681.1z M142.6,680.8c0.5,2-0.8,2.5-2.3,2.6c-1.2,0.1-2.2-0.6-1.9-2.1c0.4-1.9-0.4-5,2.1-5.2
			C142.8,676,142.3,678.8,142.6,680.8z M136,682.8c0.5-3.9,0.1-8,2.4-12.1C138.6,673.3,137.1,681,136,682.8z M143.8,680.2
			c0-1-0.3-2.2,1-2.1c1.5,0,1.4,1.5,1.4,2.6c0,1,0.1,2.4-1.3,2.3C143.3,682.8,144,681.1,143.8,680.2z"/>
		<path stroke="#000000" stroke-width="2" stroke-miterlimit="10" d="M171.3,671.1c2.9-1.1,4.6-3.9,5-6.9c1.1-8.2,1.7-16.6-0.2-24.8
			c-1.3-5.6-7.2-10.1-11.8-9.3c-6.4,1.1-10,6.1-10,13.3c0.1,5.6-0.1,11.2-0.3,16.8c-0.1,4.1,0.5,7.9,4,10.1
			C162.3,673,166.8,675.4,171.3,671.1c-1.7-0.6-3.3,0.5-5,0.7c-5.3,0.4-10.7-3.6-10.9-8.5c-0.2-6.7-0.3-13.3-0.2-20
			c0.1-6.2,3.4-10.6,8.5-11.5c4.6-0.7,9.6,1.2,10.9,7.7C176.9,650.3,177.9,661.3,171.3,671.1z"/>
		<path stroke="#000000" stroke-width="2" stroke-miterlimit="10" d="M209.7,670.8c2.8,0,5.7,0,8.5,0c2.4,0,3.9-1.4,3.9-4
			c0-2.8-1.5-3.9-3.9-3.9c-5.5,0-11-0.1-16.4,0c-2.3,0.1-4.7,1.2-4.7,4.1c-0.1,3.1,2.2,3.9,4.7,3.8
			C204.4,670.6,207,670.7,209.7,670.8C209.7,670.8,209.7,670.8,209.7,670.8z M208.7,669.8C208.7,669.8,208.7,669.8,208.7,669.8
			c-2.4,0-4.8-0.1-7.3,0c-1.5,0-2.8-0.4-3.2-2.2c-0.5-1.9,1.1-2.3,2-3.2c0.8-0.8,1.8-0.6,2.7-0.6c4.7,0.1,9.5,0.2,14.2,0.2
			c1.8,0,3.6,0.2,3.7,2.7c0.1,2.6-2,2.9-3.6,3C214.4,670,211.6,669.8,208.7,669.8z"/>
		<path stroke="#000000" stroke-width="2" stroke-miterlimit="10" d="M689.4,658.1c0.9,6-1.1,12.1,0.3,18.5
			C691.1,674,691,661,689.4,658.1z"/>
		<path stroke="#000000" stroke-width="2" stroke-miterlimit="10" d="M280.8,313.8c-3.7-0.1-7-2.1-10.6-0.2c0.4,1.2,2.8,1.1,1.9,2.9
			c-0.7,1.5-2,0.5-3.1,0.4c-7.1-0.6-14.3-1.4-21.4-1.6c-7.1-0.2-13.8-1.8-19.9-5.7c-4.2-2.6-8.7-2.5-13.2-3.1
			c-2-0.3-3.9,0.8-4.1,3.7c0,0.7-0.3,1.4-0.4,2.1c-1.9,10.9,2,15.4,11.7,13.8c4.2-0.7,8.2-1.5,12.1-3.6c2.3-1.3,5.2-0.5,7.8-0.2
			c8.2,1,16.4,1.8,24.6,2c2,0.1,3.9,0.3,5.7,1.5c1.5,0.9,3.3,1.5,5.1,0.4c2.5-1.5,16.1,0.1,18.4,2c1.9,1.6,1.7,4.1,1.7,6.2
			c0,7.2,1.2,8.8,7.2,8.9c1.4,0,2.9-0.3,2.8,2.1c0,0.3,0.5,0.9,0.8,0.9c3.7,0.8,7.5,1.4,11.3,0.8c0.8-0.1,1.6-0.8,1.7-1.9
			c0.1-2.7,1.6-3,3.6-3.3c6.5-1,11.5-5,14.4-11.7c1.9-4.3,1-8.6-2-12.2c-2.4-2.9-5-5.6-8.4-7c-0.3-0.1-0.7-0.2-0.8-0.4
			c-2.7-6.4-7.8-5.5-12.7-5.5c-1.6,0-3-0.3-4.6,1.6c-1.1,1.3-4.4,0.4-6.7,0.1c-1.7-0.2-2.6,0.5-3.1,2.2c-0.6,2.1-1.1,4.3-1.7,6.5
			c-1,3.7-2.7,5.3-6.1,4.6c-3.5-0.7-6.9-0.5-10.4-0.7c-1.7-0.1-3.9,0.8-4.6-1.9C277,314.8,279.9,315.7,280.8,313.8z M315.3,316.7
			c0.1,4.9-0.2,10-2,14.4c-1.9,4.6-2.5,11.2-9.5,10.6c-4.3-0.4-5.2-1.1-5.3-6.2c-0.1-3.4,0-6.8-2.9-9.3c-1.7-1.5-1.1-3.8,1-4.9
			c2.3-1.2,3.1-3.2,3.7-5.8c1.8-7.8,1.9-7.8,9-6.8c0.2,0,0.4,0,0.6,0c5,0.5,5,0.5,5.3,6.2C315.4,315.5,315.3,316.1,315.3,316.7z
			 M326.7,319.3c0.1,7.3-1.7,14.1-4.7,20.5c-0.5,1.2-1.4,1.7-2.6,1.6c-1.8-0.1-3.6-0.2-5.4-0.3c-2.1-0.2-3.1-0.8-1.8-3.6
			c4-8.6,4.7-17.9,3.6-27.5c-0.1-0.9-0.3-1.9,0.7-2c2.7-0.3,5.6-0.6,8.1,0.5c2,0.9,1.6,3.6,1.7,5.7
			C326.4,316,326.6,317.7,326.7,319.3z M218.8,324.8c-6.1-0.1-7.2-0.8-7.9-5.6c-0.4-2.9-0.3-5.9,0.5-8.8c0.4-1.6,1.2-2.4,2.7-2.4
			c6.7,0,12.9,1.8,18.3,6.1c2.6,2.1,2.6,5.3-0.1,7.1C228.2,324,223.6,324.9,218.8,324.8z M328.8,313c3.6,0.3,9.2,8,9.5,12.8
			c0.1,2.4-0.4,4.5-1.7,6.3c-2.7,3.5-5.6,6.6-9.8,7.7c-0.8,0.2-1.5,1.1-2.3,0.2c-0.7-0.9-0.1-1.8,0.2-2.7c1.6-4.3,2.3-8.9,2.7-13.5
			c0.2-3,0.1-5.9,0.2-8.9C327.6,314,327.4,312.9,328.8,313z M242.2,316.1c4.5,0.4,9,1.1,13.6,1.2c4.5,0.1,9,0.9,13.5,1
			c2.3,0.1,2.7,1.4,2.8,3.2c0.1,2.3-1.6,1.8-2.8,1.7c-7.3-0.6-14.5-1-21.8-1.5c-3.2-0.2-6.5-0.8-9.7-1c-1.7-0.1-2.4-1.3-2.2-3.2
			c0.1-2,1.3-1.7,2.5-1.6C239.4,316.2,240.8,316.1,242.2,316.1z M291,324.2c-3.7,0-7.5,0-11.2,0c-1.4,0-2.6-0.4-2.4-2.4
			c0.2-2.1,1.6-1.3,2.7-1.4c3.9-0.5,7.7,1.3,11.5,1.1c1.2-0.1,1.7,0.8,1.6,2C293,324.9,291.9,324.9,291,324.2z M314.4,345.5
			c-1.7-0.7-4.9,0.6-4.8-1.1c0.2-2.5,3.1-1,4.8-1c1.5,0,4.5-0.8,4.4,1C318.5,347.2,315.8,344.6,314.4,345.5z"/>
		<path stroke="#000000" stroke-width="2" stroke-miterlimit="10" d="M155.3,317c3.1,2,5.7,3.6,8.3,5.4c1.1,0.8,0.8,1.6-0.3,2
			c-6.8,2.4-7.5,8.4-7.3,15.2c0.1,5,0,10,0,15c0.1,6.9,2.6,10.2,9.5,12.7c4,1.5,8.9-0.8,11.7-5.6c1.3-2.1,1.5-4.7,1.6-7.2
			c0.1-5.8,0-11.7,0-17.6c0-6.2-4.2-11.7-9.6-12.7c-1.5-0.3-3.1-0.3-3-3.1c0-2.3-1.8-3.7-3.5-4.7c-5.2-3.3-10.4-6.8-16.8-5.7
			c-1.3,0.2-2.1-0.5-2.5-2.1c-0.6-2-1.7-4-3.9-3.1c-2,0.8-3.7,2.7-3.8,5.1c-0.2,4.3,0.2,8.6,0.3,12.8c0,1,0.2,2.1,1.1,2.4
			c1.4,0.5,2,1.7,2.3,3.1c0.4,1.8,1.4,2.2,2.9,2c1.9-0.3,1.4-1.7,1.2-3c-0.8-4.4,2.7-4,4.6-4.7c1.7-0.6,3.3-1.8,5.4-1.6
			C155.6,321.8,155.9,319.5,155.3,317z M157.2,345.1c0.1,0,0.1,0,0.2,0c0-3.3,0-6.7,0-10c0-5.8,4.3-9.6,9-9.8
			c6.7-0.3,11.3,5,11.3,12.7c0,5.7,0,11.4-0.2,17.1c-0.1,6.5-3.7,10.7-9.2,10.8c-5.8,0.1-10.8-4.7-11.1-10.7
			C157.1,351.8,157.2,348.5,157.2,345.1z M158.8,316.8c-4.3-2.7-9-2.6-13.7-2.5c-1.5,0-3,0-4.4-0.1c-0.7,0-1.4-0.3-1.3-1.2
			c0-1,0.9-0.8,1.4-0.8c3.5,0,7-0.3,10.4,0.2C154,312.9,157,313.6,158.8,316.8z M141.7,318.1c-0.1-1.5,0-2.8,1.5-2.8
			c1.8,0,2.4,1.5,2.2,3.2c-0.2,1.5,1.2,4.2-1.1,4.4C141,323.2,143.1,319.2,141.7,318.1z M141.5,328.4c-1.3-3.9-2.5-7.9-1.9-12.3
			C141.3,319.9,141.1,324.1,141.5,328.4z M149.2,318.9c0.1,1,0.2,2.1-0.9,2.3c-0.9,0.1-1.5-0.5-1.2-1.5c0.3-1.1-0.2-2.8,0.9-3.1
			C149.3,316.3,148.9,318,149.2,318.9z"/>
		<path stroke="#000000" stroke-width="2" stroke-miterlimit="10" d="M284.7,333.8c-3.7-1.6-7-1.9-10.2-0.5c1,1,1.8,6.4,0.9,7.9
			c-0.8,1.3-1.8,1-2.8,0.3c-3.2-2.4-6.6-3.5-10.4-1.7c-1.4,0.7-2.6-0.8-3.9-1.1c-4.9-0.9-9.7-1.8-14.7-2.2c-1.5-0.1-2.8-0.5-4.1-1.6
			c-3.5-2.9-5.9-1.6-6.5,3.2c-0.3,2.1-0.4,4.3-0.7,6.4c-0.7,4.2,1,6.6,4.5,5.6c5.3-1.4,10.5-0.4,15.7-0.2c1.8,0.1,3.6,0.2,5.3-0.3
			c0.7-0.2,1.6-0.6,2.2-0.3c9.4,4.1,18.6-1.8,27.9-0.5c2.6,0.4,5.3,0.2,7.9,0.1c0.9,0,2.2,0.7,2.5-0.7c0.3-1.6-1.3-1.3-2-1.5
			c-3.5-0.7-7-1.5-10.6-1.8c-2.5-0.2-3.8-1.4-3.6-4.2C282.4,338.4,280.9,335.2,284.7,333.8z M263.8,347.8c-1.8,0-2.8-0.2-3.6,0
			c-5.9,1.9-11.9,0.4-17.8,0.8c-1.2,0.1-2.9-0.2-2.8-2.1c0.1-2.9-0.6-5.9,1-8.6c0.1-0.2,0.6-0.2,0.9-0.2c1.8,0.1,3.6,0.2,5.3,0.3
			c6.2,0.5,12,3.6,18.4,2.8c0.1,0,0.2,0.3,0.3,0.6C263.8,343,259.1,343,263.8,347.8z M233.7,346c0.2-2.7,0.5-5.4,0.7-8.2
			c0.1-1.4,0.3-2.7,2-2.3c1.4,0.3,2.8,0.5,2.5,2.7c-0.3,2.7-0.6,5.4-0.9,8.1c-0.2,1.9-1.1,2.3-2.6,2.2
			C233.9,348.5,233.6,347.4,233.7,346z M276.9,339.7c0.2-1.3,0.3-2.7,0.5-4.1c0.2-0.9,0-2.4,1.5-2.2c1.5,0.1,1.4,1.4,1.4,2.7
			c0,1.1,0.2,2.1,0.4,3.1c0.2,2.1-0.1,4.2-2.2,4.3C276.1,343.7,277.5,341.2,276.9,339.7z M268.6,341.5c2.2,0.6,3.8,2.5,6,3
			c0.8,0.2,1.7,0.5,1.6,1.8c-0.1,1.1-0.7,1.8-1.7,1.6c-1.1-0.2-3.1,0.6-3-0.7C271.9,344.1,269.8,343.3,268.6,341.5z M289.7,347.9
			c-3.2,0-5.8,0-8.4,0c-0.7,0-1.2-0.3-1.2-1.3c0.1-0.8,0.6-1,1.2-0.9C283.9,346.3,286.8,345.4,289.7,347.9z M264.1,344.6
			c0.3-1.3,1.2-1.7,2.2-1.5c1.2,0.3,2.7,0.5,2.8,2.2c0,1.2-1.1,1.5-2.1,1.5C265.6,346.8,264.6,346,264.1,344.6z"/>
		<path stroke="#000000" stroke-width="2" stroke-miterlimit="10" d="M652.6,372.1c12.4,0.4,25.5-12.8,25.4-28.7
			c-0.1-15.5-12-29.1-25.8-28.8c-14.8,0.3-24.9,11.4-24.8,28.6C627.4,360.4,636.6,371.7,652.6,372.1z M652.6,370.1
			c-14,0.4-24-11.9-23.7-27.3c0.3-14.3,9.9-25.8,23-26.4c12.9-0.6,24.5,13.4,24.6,27.3C676.5,357.5,664.1,371.2,652.6,370.1z"/>
		<path stroke="#000000" stroke-width="2" stroke-miterlimit="10" d="M212.2,335.6c3,0,5.9-0.1,8.9,0c2.5,0.1,3.9-1.6,3.9-4
			c0-2.5-1.8-3-3.8-3c-5.6,0.1-11.2,0-16.8-0.1c-2.4-0.1-4.2,1.1-4.2,3.7c0,2.9,1.7,3.9,4.4,3.5
			C207.1,335.3,209.6,335.6,212.2,335.6C212.2,335.6,212.2,335.6,212.2,335.6z M211.9,334.5c0-0.1,0-0.1,0-0.2c-2.6,0-5.3-0.1-7.9,0
			c-1.3,0-2.4-0.4-2.5-2c-0.1-1.6,1.1-1.8,2.1-2.2c0.5-0.2,1-0.3,1.5-0.3c5.4,0,10.8,0,16.1,0.1c1.2,0,2.2,0.5,2.3,1.9
			c0.1,1.6-1,1.9-2.1,2C218.2,334.1,215.1,334.3,211.9,334.5z"/>
		<path stroke="#000000" stroke-width="2" stroke-miterlimit="10" d="M533.5,320.5c-6.9,2.4-13.8,4.9-20.7,7.3
			c0.1,0.3,0.2,0.6,0.2,0.9c6.9-2.4,13.8-4.8,20.7-7.3C533.6,321.1,533.6,320.8,533.5,320.5z"/>
		<path stroke="#000000" stroke-width="2" stroke-miterlimit="10" d="M691.4,360.1c0,5.6,0,11.3,0,16.9c0,0.7,0.1,1.2,0.8,1.2
			c0.5,0,0.7-0.5,0.7-1c0-5.7,0-11.4,0-17.1C692.4,360.1,691.9,360.1,691.4,360.1z"/>
		<path stroke="#000000" stroke-width="2" stroke-miterlimit="10" d="M556.5,313c-6.1,2.1-12.2,4.2-18.3,6.3
			c0.1,0.3,0.1,0.5,0.2,0.8c6.1-2,12.2-4.1,18.3-6.1C556.6,313.6,556.5,313.3,556.5,313z"/>
		<path stroke="#000000" stroke-width="2" stroke-miterlimit="10" d="M571.3,308.6c-3.9-0.7-6.9,2.1-10.4,3.2
			C564.4,311.2,567.9,310.3,571.3,308.6C571.2,308.6,571.3,308.6,571.3,308.6z"/>
		<path stroke="#000000" stroke-width="2" stroke-miterlimit="10" d="M692.3,347.3c1.3-3.2,0.6-5.5,0.3-7.8
			C691.8,341.7,691.3,344,692.3,347.3z"/>
		<path stroke="#000000" stroke-width="2" stroke-miterlimit="10" d="M800,630.1c-2.4,2.9-4.5,5.4-6.6,7.9c-1.1,1.4-1.3,2.8-0.3,4.5
			c1.7,3.1,3.4,6.2,6.2,8.1c-0.2,1.3-0.9,1.1-1.5,1.1c-6.2-0.1-12.5-0.2-18.7-0.3c-0.7,0-1.7-0.7-1.8,0.6c-0.1,1.3,0.7,1.9,1.8,1.9
			c4.1-0.1,8.2-0.2,12.3-0.1c8.1,0,16.3,0.2,24.4,0.2c0.8,0,1.8,0.7,2.3-0.4c0.5-1.3-0.7-1.8-1.5-2.4c-5.5-4.8-6.3-12.5-2.1-18.6
			c0.8-1.1,1.7-1.7,2.8-2.3c0.6-0.3,1.1-0.8,1-1.6c-0.2-0.9-0.8-0.9-1.5-0.9c-12.4-0.3-24.9-0.5-37.3-0.8c-1,0-2.2,0-2,1.5
			c0.1,1.4,1.3,0.8,2.1,0.8C786.3,629.6,793.1,629.9,800,630.1z M813.9,650.6c-0.4,0.1-0.7,0.3-0.8,0.2c-4.8-4.1-5.5-15.2-1.2-20
			c0.5-0.6,1.1-0.9,1.7-0.5c0.9,0.6,0.4,1.4-0.1,2.1c-1.8,2.4-2.7,5.2-2.7,8.5C810.8,644.6,812.5,647.5,813.9,650.6z M802.1,646.2
			c-0.2,0-0.4,0-0.6,0c-0.1,0.4-0.2,0.9-0.2,1.3c-0.1,1.3-0.8,1.7-1.7,1.2c-1.2-0.6-2.3-1.6-2.5-3c-0.2-1.6,1.2-1,1.8-0.9
			c1.5,0.1,2.5-1.1,3.8-1.6c0.7-0.2,1.6-1,1.7,0.3c0.1,1.9,0.9,4.2-1.5,5.6C802.6,648.2,802.4,647.2,802.1,646.2z M799.4,640.3
			c-0.2,1.2,0.4,3.3-1.8,3c-1.6-0.2-3.7-0.3-3.8-2.8c0-2.4,2.1-2.7,3.6-3.1C799.2,637,799.5,638.5,799.4,640.3z M802.1,631.1
			c0.1-0.3,0.1-0.6,0.2-0.9c1.8,0,3.7-0.1,5.5,0c0.8,0,2.4-0.4,2,1.2c-0.5,1.7-0.6,4.1-2.8,4.7c-0.5,0.1-1.2-0.2-1.1-0.9
			C806.2,632.1,804.2,631.6,802.1,631.1z M802.1,636.7c1.1-0.5,0.1-3.3,2-2.4c1,0.5,0.4,2.1,0.4,3.2c0,0.8-0.4,0.9-1,0.9
			c-2.1-0.2-3.3-2.4-5.2-3.1c-0.3-0.1,0.1-1,0.5-1.5c0.6-0.7,1.4-1.3,2.2-1C802.7,633.5,801.1,635.4,802.1,636.7z M807.5,651.7
			c-0.7-0.8-2.8,1.1-2.5-1c0.2-1.2,0-4.2,2.1-4.1c1.8,0.1,2.8,2.4,3,4C810.4,652.4,808.6,651.4,807.5,651.7z"/>
		<path stroke="#000000" stroke-width="2" stroke-miterlimit="10" d="M792.9,669.8c0-6.3,0-5.9-5.3-5.5c-5.4,0.4-10.8,0.7-16.2-0.6
			c-2.7-0.6-5,0.9-5.1,3.9c0,1.4-2.2,2.6-0.2,4.3c2.2,1.9,4.7,2.5,6.9,1.5c4.6-2.2,9.2-1.2,13.7-0.6c1.9,0.3,3.6,0.6,5.4-0.7
			C793.3,671.4,793.7,670.6,792.9,669.8z M778.8,671.1c-2.1,0-5,0.2-8-0.1c-1.4-0.1-3.2-0.6-3.2-2.8c0.1-2.2,1.5-2.9,3.3-2.9
			c5.9,0.2,11.8,0.3,17.7,0.6c1.2,0,2.4,0.1,2.5,2c0.1,1.9-0.9,2.5-2.3,2.6C785.8,670.7,782.8,670.9,778.8,671.1z"/>
		<path stroke="#000000" stroke-width="2" stroke-miterlimit="10" d="M861.6,651.4c3.1-3.3,6.2-6.6,9.2-9.9c2.1-2.3,4.3-4.5,6.4-6.8
			c0.5-0.6,1.2-1.4,1.8-0.7c0.8,0.8,0.1,1.7-0.5,2.4c-1.6,1.9-3.3,3.7-4.9,5.5c-0.8,0.9-2,1.5-1.9,3.1c3-2.2,5.3-5.3,7.8-8.2
			c1.1-1.2,1.3-3.4,0.3-4.6c-1.3-1.5-2.2,0.5-3,1.4c-4.5,4.8-8.9,9.7-13.3,14.7C862.7,649.2,861.6,649.9,861.6,651.4z"/>
		<path stroke="#000000" stroke-width="2" stroke-miterlimit="10" d="M752.6,619.1c-0.6-0.1-1.2-0.3-1.8-0.2
			c-2.6,0.4-2.9-1.4-2.8-3.7c0.1-2.1,1.4-5.3-1-5.7c-1.2-0.2-0.7,3.6-0.5,5.6c0.2,1.7-1.1,4,0.4,5c1.1,0.7,2.9-0.1,4.5-0.3
			c0.4,0,0.8-0.1,1.2-0.2C752.6,619.5,752.6,619.3,752.6,619.1z"/>
		<path stroke="#000000" stroke-width="2" stroke-miterlimit="10" d="M747.5,541c0.7-1.9,0.8-3.8,0.6-5.8c0-0.5-0.2-1-0.7-1
			c-0.3,0-0.9,0.4-0.9,0.6C746.6,536.9,744.5,539.5,747.5,541z"/>
		<path stroke="#000000" stroke-width="2" stroke-miterlimit="10" d="M746.4,517c0.3,1.1-0.6,2.8,0.8,3.1c1.4,0.3,1.1-1.4,1-2.3
			c-0.2-1.3,0.5-3.5-0.8-3.7C745.7,513.8,746.8,516,746.4,517z"/>
		<path stroke="#000000" stroke-width="2" stroke-miterlimit="10" d="M871.8,644.9c-2.5,1.6-4.5,3.7-5.8,6.6
			C868.7,650.1,870.2,647.4,871.8,644.9z"/>
		<path stroke="#000000" stroke-width="2" stroke-miterlimit="10" d="M179.6,394.6c1.9,0,3.8,0,5.7,0c1,0,2-0.3,2-1.7
			c0-1.4-1.1-1.6-2.1-1.6c-3.7,0-7.3,0-11,0c-1.1,0-2.1,0.3-2,2c0.1,1.8,1.2,1.2,2.1,1.3C176,394.6,177.8,394.5,179.6,394.6
			C179.6,394.6,179.6,394.6,179.6,394.6z"/>
		<path stroke="#000000" stroke-width="2" stroke-miterlimit="10" d="M178.1,607.2c1.9,0,3.8,0,5.7,0c1,0,1.7-0.5,1.7-1.7
			c0-1.1-0.6-1.7-1.6-1.8c-3.8,0-7.6,0-11.3-0.1c-1.1,0-1.4,0.5-1.5,1.7c-0.1,1.5,0.6,1.6,1.5,1.6c1.9,0,3.8,0,5.6,0
			C178.1,607.1,178.1,607.2,178.1,607.2z"/>
		<path stroke="#000000" stroke-width="2" stroke-miterlimit="10" d="M800.3,345.1c-5.9,0-11.8,0-17.7,0c-1,0-2.8-0.7-2.9,1
			c-0.1,2.1,1.8,1.5,3,1.6c5.8,0.3,11.6,0.1,17.4-0.1c3.3-0.1,6.5,0.2,9.8,0.3c1.4,0,2.1,0.4,1.1,2.1c-0.6,1-1,2.1-1.6,3.1
			c-0.7,1-1.2,1.1-1.7-0.4c-1.2-3.4-4.7-4.3-7.2-1.8c-1.8,1.8-3.5,3.7-5.2,5.7c-1.2,1.4-1.4,3.4-0.1,4.5c1.8,1.5,2.6,3.7,4,5.4
			c3.1,3.6,6.5,3.3,8.5-1.1c0.2-0.5,0.5-1,0.9-0.8c1.7,1.1,2.1,3.3,2.6,5.1c0.5,1.9-1.4,1.3-2.3,1.3c-8.9,0.4-17.7,0.7-26.6,0.4
			c-0.5,0-1.1-0.1-1.6-0.1c-0.7,0-1.3,0.2-1.4,1.1c-0.1,1.3,0.8,1.1,1.6,1.1c5.6,0,11.2-0.1,16.8,0c6.4,0.1,12.8,0.4,19.3,0.6
			c1.5,0.1,2.8-0.1,3.3-1.9c0.4-1.6-0.4-2.4-1.7-3.2c-3.5-2.4-4.8-6.2-4.6-10.7c0.2-4.3,1.4-8.1,5-10c1.3-0.7,1.6-1.3,1.4-2.6
			c-0.3-1.5-1.2-0.7-2-0.7C812.4,345,806.3,345,800.3,345.1C800.3,345,800.3,345.1,800.3,345.1z M809.6,359.3
			c-0.3-4.4,1.4-7.6,3.4-10.5c0.7-1,1.8-1.2,2.6-0.6c1.1,0.8,0,1.7-0.4,2.4c-3.6,6-3.3,11.8,0.3,17.6c0.4,0.7,2,1.4,0.6,2.5
			c-1,0.7-2,0-2.7-1.1C811.4,366.3,809.3,363.1,809.6,359.3z M801.7,359.4c0.1,1.6-0.9,2.6-2.5,2.2c-1.5-0.3-3.5-0.5-3.5-2.7
			c0-2.5,2-2.9,3.9-3.1C802.1,355.4,801.5,357.6,801.7,359.4z M804.6,354.1c0.4-0.9-0.7-3.1,0.9-2.9c1.3,0.1,1,2.3,1,3.7
			c0,0.9,0.1,2.1-1.2,1.9C803.8,356.5,804.5,355.3,804.6,354.1z M804.1,363.8c-0.4-1.3-0.2-2.3,1-2.5c0.9-0.1,1.4,0.7,1.2,1.6
			c-0.3,1.3,0.2,3.3-1.2,3.5C803.6,366.6,804.3,364.7,804.1,363.8z"/>
		<path stroke="#000000" stroke-width="2" stroke-miterlimit="10" d="M761,342.7c0.5-13.8-12.5-28-25.6-26.8
			c-12.9,1.2-23.2,10.8-22.6,28.5c0.5,14.1,9.9,24.2,24.2,24.3C751.2,368.8,761.1,357.5,761,342.7z M759.7,343.3
			c-0.1,13-10.2,24.1-21.7,23.6c-9.5-0.4-21.1-10.6-20.7-24.7c0.5-13.3,11.1-23.2,20.8-23C751.5,319.6,758.8,329.1,759.7,343.3z
			 M719.3,357.7c-4.8-6.4-6.1-13.7-4.2-21.6c1.2-5.3,3.5-9.9,8.1-12.4C714.2,333.9,714.5,345.4,719.3,357.7z"/>
		<path stroke="#000000" stroke-width="2" stroke-miterlimit="10" d="M773.2,338.2c5.8,0,11-0.9,16.3,0.4c1.8,0.4,5.4,0.8,5.8-3.7
			c0.2-2.4-1.1-3.9-2.2-5.4c-1-1.3-2.2-0.9-3.6-0.3c-4.5,1.9-9.4,1.4-13.9,0.3c-4.3-1.1-6.4,0.9-6.7,5.6
			C768.5,339.8,771.8,337.7,773.2,338.2z M782.9,336.1c-3-0.2-6.1,0.8-9.1-0.1c-1.4-0.4-3.3-0.1-3-2.5c0.2-2.2,2-2.2,3.5-2.1
			c5.4,0.2,10.7,0.4,16.1,0.5c1.3,0,2.8-0.3,2.9,1.6c0.1,1.9-1.3,2.6-2.8,2.6C787.9,336.2,785.4,336.1,782.9,336.1z"/>
		<path stroke="#000000" stroke-width="2" stroke-miterlimit="10" d="M783.9,382.1c-2.1-1.1-2.6-1.2-6.2-0.6
			C780,382.9,782,382,783.9,382.1z"/>
		<path stroke="#000000" stroke-width="2" stroke-miterlimit="10" d="M252.5,529.5c8.9,0,17.7,0,26.6,0c0-0.2,0-0.4,0-0.5
			c-8.9,0-17.7,0-26.6,0c-0.5,0-1.4-0.4-1.3,0.9c0.1,0.7,0.2,1.4,1.1,1.5c0.3,0,0.6,0,0.9,0c10.8,0,21.6,0,32.5-0.6
			c-11.1,0-22.1,0-33.2,0C252.5,530.3,252.5,529.9,252.5,529.5z"/>
		<path stroke="#000000" stroke-width="2" stroke-miterlimit="10" d="M271,539.5c11.8,0,23.6,0,35.5,0
			C294.6,538.9,282.8,538.6,271,539.5z"/>
		<path stroke="#000000" stroke-width="2" stroke-miterlimit="10" d="M276.3,523.3c-13.3-0.6-25.7-0.4-38.2-0.1
			C250.6,523.8,263.1,523.9,276.3,523.3z"/>
		<path stroke="#000000" stroke-width="2" stroke-miterlimit="10" d="M278.7,557.6c-11,0-22,0-33,0c0,0.1,0,0.2,0,0.3
			c11,0,22,0,33,0C278.7,557.8,278.7,557.7,278.7,557.6z"/>
		<ellipse stroke="#000000" stroke-width="2" stroke-miterlimit="10" cx="272.1" cy="565.7" rx="22.6" ry="0.3"/>
		<path stroke="#000000" stroke-width="2" stroke-miterlimit="10" d="M257.8,515.1c-9.4,0-18.8,0-28.2,0c0,0.1,0,0.2,0,0.3
			c9.4,0,18.8,0,28.2,0C257.8,515.3,257.8,515.2,257.8,515.1z"/>
		<path stroke="#000000" stroke-width="2" stroke-miterlimit="10" d="M253,592.3c9.4,0,18.9,0,28.3,0c0-0.1,0-0.2,0-0.3
			c-9.5,0-19,0-28.6,0C252.8,592.1,252.9,592.2,253,592.3z"/>
		<path stroke="#000000" stroke-width="2" stroke-miterlimit="10" d="M266.3,521.2c-8.5,0-16.8-0.6-25.4,0
			C249.5,521.9,257.9,521.3,266.3,521.2z"/>
		<path stroke="#000000" stroke-width="2" stroke-miterlimit="10" d="M279.2,559.6c-8.5,0-17.1,0-25.6,0c0,0.1,0,0.2,0,0.3
			c8.6,0,17.2,0,25.7,0C279.3,559.8,279.3,559.7,279.2,559.6z"/>
		<path stroke="#000000" stroke-width="2" stroke-miterlimit="10" d="M260.9,533.4c8,0,16.1,0,24.1,0c0-0.1,0-0.2,0-0.3
			c-8,0-16.1,0-24.1,0C260.9,533.2,260.9,533.3,260.9,533.4z"/>
		<path stroke="#000000" stroke-width="2" stroke-miterlimit="10" d="M265.5,568c7.8,0,15.7,0,23.5,0c0-0.1,0-0.3,0-0.4
			c-7.9,0-15.8,0-23.7,0C265.4,567.7,265.4,567.8,265.5,568z"/>
		<path stroke="#000000" stroke-width="2" stroke-miterlimit="10" d="M260,549.7c-7.7,0-15.4,0-23,0c0,0.1,0,0.2,0,0.4
			c7.7,0,15.4,0,23,0C260,549.9,260,549.8,260,549.7z"/>
		<path stroke="#000000" stroke-width="2" stroke-miterlimit="10" d="M273.6,525.1c-7.4,0-14.9,0-22.3,0c0,0.1,0,0.3,0,0.4
			c7.4,0,14.8,0,22.2,0C273.5,525.4,273.6,525.3,273.6,525.1z"/>
		<path stroke="#000000" stroke-width="2" stroke-miterlimit="10" d="M294.4,573.4c-7.3,0-14.5,0-21.8,0
			C280,573.7,287.2,574.1,294.4,573.4z"/>
		<path stroke="#000000" stroke-width="2" stroke-miterlimit="10" d="M256.3,563.8c7,0,14,0,20.9,0c0-0.1,0-0.3,0-0.4
			c-7,0-14,0-20.9,0C256.3,563.5,256.3,563.7,256.3,563.8z"/>
		<path stroke="#000000" stroke-width="2" stroke-miterlimit="10" d="M246.9,555.9c6.6,0,13.2,0,19.8,0c0-0.1,0-0.2,0-0.4
			c-6.6,0-13.2,0-19.9,0C246.9,555.6,246.9,555.7,246.9,555.9z"/>
		<path stroke="#000000" stroke-width="2" stroke-miterlimit="10" d="M231,547.9c6.5,0,13,0,19.6,0c0-0.1,0-0.2,0-0.3
			c-6.5,0-13.1,0-19.6,0C231,547.7,231,547.8,231,547.9z"/>
		<path stroke="#000000" stroke-width="2" stroke-miterlimit="10" d="M278.4,507c6.5,0,13,0,19.6,0c0-0.1,0-0.2,0-0.2
			c-6.5,0-13,0-19.4,0C278.5,506.8,278.4,506.9,278.4,507z"/>
		<path stroke="#000000" stroke-width="2" stroke-miterlimit="10" d="M260.7,584.1c-6.6,0-13.2,0-19.8,0c0,0.1,0,0.2,0,0.3
			c6.6,0,13.2,0,19.8,0C260.7,584.3,260.7,584.2,260.7,584.1z"/>
		<path stroke="#000000" stroke-width="2" stroke-miterlimit="10" d="M289.3,599.9c-6.3,0-12.6,0-18.8,0c0,0.1,0,0.3,0,0.4
			c6.3,0,12.6,0,19,0C289.4,600.1,289.4,600,289.3,599.9z"/>
		<path stroke="#000000" stroke-width="2" stroke-miterlimit="10" d="M283.3,512.8c5.8,0,11.5,0,17.3,0c0-0.1,0-0.2,0-0.3
			c-5.7,0-11.5,0-17.2,0C283.3,512.6,283.3,512.7,283.3,512.8z"/>
		<path stroke="#000000" stroke-width="2" stroke-miterlimit="10" d="M240.1,582.3c5.3,0,10.5,0,15.8,0c0,0,0-0.1,0-0.1
			c-5.4,0-10.7,0-16.1,0C239.9,582.2,240,582.2,240.1,582.3z"/>
		<path stroke="#000000" stroke-width="2" stroke-miterlimit="10" d="M293.1,575.6c-4.7,0-9.3,0-14,0c0,0.1,0,0.1,0,0.2
			c4.7,0,9.4,0,14.1,0C293.1,575.7,293.1,575.6,293.1,575.6z"/>
		<path stroke="#000000" stroke-width="2" stroke-miterlimit="10" d="M250.2,576.1c-4.4,0-8.8,0-13.2,0c0,0.1,0,0.2,0,0.3
			c4.4,0,8.7,0,13.1,0C250.1,576.3,250.2,576.2,250.2,576.1z"/>
		<path stroke="#000000" stroke-width="2" stroke-miterlimit="10" d="M271.9,571.4c4.1,0.4,8.2-0.2,12.3,0
			C280.2,571.4,276.1,571.4,271.9,571.4z"/>
		<path stroke="#000000" stroke-width="2" stroke-miterlimit="10" d="M238.9,542.1c3.7,0,7.5,0,11.2,0
			C246.4,541.6,242.7,541.4,238.9,542.1z"/>
		<path stroke="#000000" stroke-width="2" stroke-miterlimit="10" d="M225.4,543.9c2.8,0,5.6,0,8.4,0c0-0.2,0-0.3,0-0.5
			c-2.8,0-5.5,0-8.3,0C225.5,543.5,225.4,543.7,225.4,543.9z"/>
		<path stroke="#000000" stroke-width="2" stroke-miterlimit="10" d="M266.3,527c-1.7,0-3.4,0-5.8,0
			C262.8,528.2,264.6,527.5,266.3,527z"/>
		<path stroke="#000000" stroke-width="2" stroke-miterlimit="10" d="M298,547.3c3,0,6.1,0,9.1,0c0-0.1,0-0.2,0-0.2
			c-3,0-6.1,0-9.1,0C298,547.2,298,547.3,298,547.3z"/>
		<path stroke="#000000" stroke-width="2" stroke-miterlimit="10" d="M249.7,420.2c9.8,0,19.5,0,29.3,0c0-0.1,0-0.2,0-0.3
			c-9.8,0-19.5,0-29.3,0C249.7,420,249.7,420.1,249.7,420.2z"/>
		<path stroke="#000000" stroke-width="2" stroke-miterlimit="10" d="M286.5,488.8c-9.4,0-18.9,0-28.3,0c0,0.1,0,0.2,0,0.4
			c9.5,0,18.9,0,28.4,0C286.6,489,286.6,488.9,286.5,488.8z"/>
		<path stroke="#000000" stroke-width="2" stroke-miterlimit="10" d="M245.3,481.2c9.2,0,18.4,0,27.7,0c0-0.1,0-0.3,0-0.4
			c-9.2,0-18.5,0-27.7,0C245.3,481,245.3,481.1,245.3,481.2z"/>
		<path stroke="#000000" stroke-width="2" stroke-miterlimit="10" d="M266.6,412c-9,0-18,0-27,0C248.6,412.2,257.6,412.7,266.6,412z
			"/>
		<path stroke="#000000" stroke-width="2" stroke-miterlimit="10" d="M284.3,462.2c-8.6,0-17.1,0-25.7,0c0,0.1,0,0.3,0,0.4
			c8.5,0,17.1,0,25.6,0C284.2,462.5,284.2,462.3,284.3,462.2z"/>
		<path stroke="#000000" stroke-width="2" stroke-miterlimit="10" d="M249.3,454.6c8.3,0,16.6,0,24.8,0c0-0.1,0-0.2,0-0.3
			c-8.3,0-16.6,0-24.9,0C249.3,454.5,249.3,454.5,249.3,454.6z"/>
		<path stroke="#000000" stroke-width="2" stroke-miterlimit="10" d="M263.3,464.6c7.9,0,15.7,0,23.6,0c0-0.1,0-0.2,0-0.3
			c-7.9,0-15.7,0-23.6,0C263.3,464.4,263.3,464.5,263.3,464.6z"/>
		<path stroke="#000000" stroke-width="2" stroke-miterlimit="10" d="M302,472.3c-7.4,0-14.9,0-22.3,0c0,0.1,0,0.1,0,0.2
			c7.4,0,14.8,0,22.2,0C301.9,472.4,301.9,472.4,302,472.3z"/>
		<path stroke="#000000" stroke-width="2" stroke-miterlimit="10" d="M272.4,470.5c7.3,0,14.7,0,22,0c0-0.1,0-0.2,0-0.4
			c-7.3,0-14.7,0-22,0C272.4,470.2,272.4,470.4,272.4,470.5z"/>
		<path stroke="#000000" stroke-width="2" stroke-miterlimit="10" d="M258.1,422.4c7.2,0,14.5,0,21.7,0
			C272.6,422,265.4,421.4,258.1,422.4z"/>
		<path stroke="#000000" stroke-width="2" stroke-miterlimit="10" d="M235.2,404.4c7.2,0,14.5,0,21.7,0c0-0.1,0-0.2,0-0.3
			c-7.2,0-14.5,0-21.7,0C235.2,404.2,235.2,404.3,235.2,404.4z"/>
		<path stroke="#000000" stroke-width="2" stroke-miterlimit="10" d="M271.2,430.3c6.6,0,13.3,0,19.9,0c0-0.1,0-0.2,0-0.3
			c-6.6,0-13.2,0-19.8,0C271.3,430.1,271.3,430.2,271.2,430.3z"/>
		<path stroke="#000000" stroke-width="2" stroke-miterlimit="10" d="M255.4,483.3c6.5,0,13,0,19.5,0c0-0.1,0-0.3,0-0.4
			c-6.5,0-12.9,0-19.4,0C255.5,483.1,255.4,483.2,255.4,483.3z"/>
		<path stroke="#000000" stroke-width="2" stroke-miterlimit="10" d="M279.2,460.2c-6.2,0-12.5,0-18.7,0c0,0.1,0,0.2,0,0.4
			c6.2,0,12.4,0,18.7,0C279.1,460.4,279.2,460.3,279.2,460.2z"/>
		<ellipse stroke="#000000" stroke-width="2" stroke-miterlimit="10" cx="277" cy="428" rx="13" ry="0.3"/>
		<path stroke="#000000" stroke-width="2" stroke-miterlimit="10" d="M246.1,414.4c5.5,0,10.9,0,16.4,0c0-0.1,0-0.2,0-0.3
			c-5.4,0-10.9,0-16.3,0C246.2,414.2,246.2,414.3,246.1,414.4z"/>
		<path stroke="#000000" stroke-width="2" stroke-miterlimit="10" d="M274.1,456.4c-5.5,0-11,0-16.5,0c0,0.1,0,0.2,0,0.3
			c5.5,0,11.1,0,16.6,0C274.1,456.6,274.1,456.5,274.1,456.4z"/>
		<path stroke="#000000" stroke-width="2" stroke-miterlimit="10" d="M295.8,401.3c-5.2,0-10.4,0-16.6,0
			C285.3,402.4,290.5,401.2,295.8,401.3z"/>
		<path stroke="#000000" stroke-width="2" stroke-miterlimit="10" d="M258.4,446.4c-5.1,0-10.2,0-15.3,0c0,0.1,0,0.3,0,0.4
			c5.1,0,10.2,0,15.3,0C258.5,446.6,258.5,446.5,258.4,446.4z"/>
		<path stroke="#000000" stroke-width="2" stroke-miterlimit="10" d="M280.5,436.1c5,0,10,0,15,0c0-0.1,0-0.3,0-0.4
			c-5.1,0-10.2,0-15.3,0C280.3,435.9,280.4,436,280.5,436.1z"/>
		<path stroke="#000000" stroke-width="2" stroke-miterlimit="10" d="M261.4,452.3c-4.4,0-8.9,0-13.3,0c0,0.1,0,0.1,0,0.2
			c4.4,0,8.8,0,13.2,0C261.3,452.4,261.4,452.3,261.4,452.3z"/>
		<path stroke="#000000" stroke-width="2" stroke-miterlimit="10" d="M294.4,437.8c-4.3,0-8.6,0-12.9,0c0,0.1,0,0.1,0,0.2
			c4.3,0,8.6,0,12.9,0C294.3,438,294.3,437.9,294.4,437.8z"/>
		<path stroke="#000000" stroke-width="2" stroke-miterlimit="10" d="M307.8,403.4c-4.3,0-8.5,0-12.8,0
			C299.2,403.8,303.4,404.3,307.8,403.4z"/>
		<path stroke="#000000" stroke-width="2" stroke-miterlimit="10" d="M256.5,406.2c-3.8,0-7.5,0-11.3,0c0,0.1,0,0.1,0,0.2
			c3.8,0,7.5,0,11.3,0C256.5,406.4,256.5,406.3,256.5,406.2z"/>
		<path stroke="#000000" stroke-width="2" stroke-miterlimit="10" d="M255.6,486.9c3.5,0,7,0,10.5,0c0-0.1,0-0.1,0-0.2
			c-3.5,0-7,0-10.5,0C255.6,486.8,255.6,486.8,255.6,486.9z"/>
		<path stroke="#000000" stroke-width="2" stroke-miterlimit="10" d="M247,402c-3.3,0-6.6,0-10,0c0,0.1,0,0.2,0,0.3
			c3.3,0,6.6,0,10,0C247,402.2,247,402.1,247,402z"/>
		<path stroke="#000000" stroke-width="2" stroke-miterlimit="10" d="M642.1,443.2c0.5,1.8-0.1,4.4,2,4.2c2-0.2,2-2.6,2-4.5
			c0-1.6,0.2-3.9-1.8-3.9C641.9,439.1,642.8,441.8,642.1,443.2z"/>
		<path stroke="#000000" stroke-width="2" stroke-miterlimit="10" d="M642.3,468.5c1.7-1.7,2.1-3.4,1.3-5.6c-0.4-1-0.3-2.5-1.9-1.9
			c-1.5,0.5-2.4,1.4-1.8,3.4C640.2,466.1,641.5,467,642.3,468.5z"/>
		<path stroke="#000000" stroke-width="2" stroke-miterlimit="10" d="M639.1,536.5c-0.5,2.3,1.2,3.2,2.4,3.3
			c1.8,0.3,1.6-1.9,1.5-3.1c-0.1-1.3,0.4-3.6-1.7-3.4C639.9,533.5,638.7,534.5,639.1,536.5z"/>
		<path stroke="#000000" stroke-width="2" stroke-miterlimit="10" d="M814.2,459.1c-1.8,0.2-2.5,1.7-2.5,3.2c0,1.3,1.1,2.5,2.4,2.3
			c1.3-0.2,2.4-1.1,2.5-2.8C816.6,460.2,815.6,459.4,814.2,459.1z"/>
		<path stroke="#000000" stroke-width="2" stroke-miterlimit="10" d="M811.4,474.4c0.3,1.6,1.1,2.4,2.5,2.4c1.7,0,2.6-1.2,2.6-2.9
			c0-1.6-1.2-2.1-2.5-2C812.4,471.9,811.9,473.2,811.4,474.4z"/>
		<path stroke="#000000" stroke-width="2" stroke-miterlimit="10" d="M814.1,441.4c-1.4,0.1-2.5,0.9-2.6,2.4
			c-0.1,1.5,0.8,2.3,2.1,2.4c1.5,0.1,2.4-0.7,2.6-2.3C816.3,442.4,815.4,441.7,814.1,441.4z"/>
		<path stroke="#000000" stroke-width="2" stroke-miterlimit="10" d="M466,426.4c10.2,0.4,20.3-9.7,19.5-23.6
			c-0.5-9.9-9.4-20.7-18.1-20.3c-13.2,0.6-20.1,7.6-20.5,21.9C446.5,417.2,454.7,426.1,466,426.4z M474.1,403.1
			C474.1,403.1,474,403.1,474.1,403.1c-0.1,3.9,0,7.9-0.1,11.8c0,1.8-0.6,2.8-2.5,2.8c-3.8-0.1-7.6-0.1-11.4-0.1
			c-0.9,0-2.1,0.1-2-1.5c0.1-8.2-0.8-16.4,0.1-24.6c0.1-1.3,0.7-1.5,1.7-1.5c4.2,0.1,8.4,0.2,12.6,0.2c1.5,0,1.6,0.9,1.6,2.3
			C474,395.9,474.1,399.5,474.1,403.1z M475.3,404.6C475.3,404.6,475.3,404.6,475.3,404.6c0-3.6,0-7.2,0-10.7c0-0.7-0.2-1.6,0.7-1.7
			c0.3-0.1,0.9,0.2,1.1,0.5c5.9,6.8,5.5,17.7,0.1,23.5c-0.4,0.4-0.9,0.7-1.4,0.4c-0.6-0.3-0.5-1-0.5-1.5
			C475.3,411.5,475.3,408.1,475.3,404.6z M450.6,404.9c0.3-3,0.7-6,1.9-8.8c0.3-0.7,0.7-1.8,1.5-1.5c0.7,0.2,0.9,1.3,0.9,2.1
			c0,4.3,0,8.6-0.1,12.9c0,1.6-0.2,3,0.9,4.3c0.6,0.7,1.1,1.8,0.2,2.5c-0.9,0.7-1.5-0.3-2-1.1C451.8,412.2,451.3,408.6,450.6,404.9z
			 M479.8,416.7c-5.9,9.9-19.9,9.6-23.9,3.3C464.9,425.6,472.7,424.4,479.8,416.7z M459.9,419.5c4.1-0.8,8.2-0.8,12.3,0.2
			C468,422.1,463.9,422.2,459.9,419.5z M481,394.4c2.5,3.2,3.2,6.4,2,10.3C483.1,400.5,481.6,397.6,481,394.4z M467.2,384.8
			c2.3,0,4.8-0.3,7.1,2.7C471.4,386.4,469.3,385.6,467.2,384.8z"/>
		<path stroke="#000000" stroke-width="2" stroke-miterlimit="10" d="M464.3,441.3c2.5,0,5-0.1,7.6,0c1.3,0,2.8,0.1,2.8-1.8
			c0-1.9-1.5-1.2-2.4-1.2c-5.9-0.1-11.7-0.2-17.6-0.2c-0.9,0-2.4-0.5-2.4,1.3c0,1.5,1.2,1.7,2.3,1.7c3.2,0,6.5,0,9.7,0
			C464.2,441.2,464.3,441.3,464.3,441.3z"/>
		<path stroke="#000000" stroke-width="2" stroke-miterlimit="10" d="M866.1,352.2c2.4,4.7,6.3,7.8,9.5,11.7c1,1.2,2.1,2.3,3.2,3.3
			c1,1,2.2,1.5,3.3,0.1c0.9-1.3,0.6-2.7-0.3-3.9c-1.5-1.8-3.1-3.5-4.6-5.3c-5.1-5.8-10.2-11.7-15.3-17.5c-0.8-0.9-1.5-2.1-2.8-2
			l0.1-0.1c0.4,1.4,1.4,2.3,2.3,3.3c6.4,7.4,12.7,14.8,19.1,22.2c0.7,0.7,1.3,1.6,0.7,2.4c-0.9,1.1-1.3-0.2-1.9-0.8
			c-0.9-0.9-1.7-1.8-2.6-2.6C872.9,359.8,870.3,355,866.1,352.2L866.1,352.2z"/>
		<path stroke="#000000" stroke-width="2" stroke-miterlimit="10" d="M852.2,330.7c-4.6-5.8-9.4-11.4-14.4-16.8
			c-0.9-0.9-1.9-1.3-2.7-0.1c-1.1,1.4-1.2,3.2,0,4.5c4.7,5.4,9.4,10.8,14.4,16c1.5,1.5,2.2,4.2,4.7,4.3l-0.1,0.1
			c-0.1-0.9-0.7-1.4-1.2-2c-5.3-5.9-10.9-11.5-15.8-17.9c-0.8-1.1-2.5-2.6-1.1-3.9c1.2-1.1,2.2,1,3.1,2c4.3,4.6,8,10.1,13,13.9
			L852.2,330.7z"/>
		<path stroke="#000000" stroke-width="2" stroke-miterlimit="10" d="M854,338.6c3.6,5,7.5,9.6,12,13.6c0,0-0.1,0.1-0.1,0.1
			c0.3-0.8-0.2-1.3-0.6-1.8c-3.2-3.6-6.3-7.3-9.5-10.9C855.4,339,854.8,338.5,854,338.6L854,338.6z"/>
		<path stroke="#000000" stroke-width="2" stroke-miterlimit="10" d="M859.1,338.7c-1.6-3.4-4.2-5.8-6.9-8c0,0-0.2,0.2-0.2,0.2
			C853.8,334.2,856.3,336.6,859.1,338.7L859.1,338.7z"/>
		<path stroke="#000000" stroke-width="2" stroke-miterlimit="10" d="M811.5,570c0,2.1,1.3,2.7,2.5,2.7c1.3,0,2.5-0.9,2.5-2.7
			c-0.1-1.7-1.2-2.7-2.5-2.6C812.6,567.5,811.7,568.6,811.5,570z"/>
		<path stroke="#000000" stroke-width="2" stroke-miterlimit="10" d="M813.9,538.7c1.5-0.4,2.7-1.4,2.6-3.1c0-1.7-1.3-2.5-2.6-2.5
			c-1.3,0.1-2.4,0.9-2.4,2.7C811.6,537.6,812.8,538.1,813.9,538.7z"/>
		<path stroke="#000000" stroke-width="2" stroke-miterlimit="10" d="M811.5,552.8c-0.2,1.9,1.2,2.1,2.2,2.2
			c1.5,0.1,2.8-0.9,2.7-2.7c-0.1-1.5-1.5-2.5-2.7-2.4C812.5,550,811.3,550.9,811.5,552.8z"/>
		<path stroke="#000000" stroke-width="2" stroke-miterlimit="10" d="M814,584.7c1.3-0.3,2.4-1,2.5-2.7c0.1-1.7-1-2.3-2.2-2.3
			c-1.3,0-2.6,0.4-2.7,2.3C811.4,583.8,812.7,584.3,814,584.7z"/>
		<path stroke="#000000" stroke-width="2" stroke-miterlimit="10" d="M813.9,591.8c-1.3,0.7-2.6,1.3-2.5,3c0.1,1.5,1.1,2.1,2.5,2.1
			c1.3,0,2.3-0.7,2.4-2.2C816.3,592.8,814.9,592.5,813.9,591.8z"/>
		<path stroke="#000000" stroke-width="2" stroke-miterlimit="10" d="M813.2,521c-1.6,1.1-2.2,2.3-1,3.9c0.9,1.2,2.2,1.6,3.4,0.6
			c1-0.8,1.5-2,0.8-3.4c-0.2-0.4-0.6-0.7-0.9-0.8c-0.3-0.1-0.7,0.2-0.5,0.6c0.6,1.4,0.7,2.9-1,2.7
			C812.2,524.4,813.8,522.5,813.2,521z"/>
		<path stroke="#000000" stroke-width="2" stroke-miterlimit="10" d="M688.3,577.8c0.2,12.5,8,17.9,17.1,18.8
			c8.3,0.8,16.6-9.7,16.5-19.4c0-7.6-8.2-19.6-17.2-18.7C694.8,559.5,688.4,565.7,688.3,577.8z M709.4,576.4c-0.1,0-0.1,0-0.2,0
			c0,3.3,0,6.7,0,10c0,2.4-0.9,3.5-3.1,3.2c-1.2-0.2-2.5-0.3-3.8-0.4c-1.4-0.1-1.9-0.9-1.9-2.6c0.1-6.4-0.1-12.9,0-19.3
			c0-1-0.2-2.6,1-2.7c2.4-0.2,5-0.6,7.2,0.2c1.6,0.6,0.6,3.4,0.7,5.2C709.5,572.1,709.4,574.3,709.4,576.4z M696.7,565.5
			c0.6,7.1,0.7,14.1-0.4,21.1C695.6,579.5,695.6,572.5,696.7,565.5z M698.5,588.8c0-7.9,0-15.9,0-23.8c0-0.6,0.2-1.2,0.3-1.7
			c0.2-0.5,0.6-0.7,1-0.5c0.5,0.2,0.5,0.6,0.4,1.1c-0.9,4.7-0.2,9.5-0.5,14.2C699.6,581.7,700.1,585.3,698.5,588.8z M712.1,576.7
			C712.1,576.7,712.1,576.7,712.1,576.7c0-1.9,0-3.8,0-5.7c0-0.6,0.2-1.2,0.8-1.3c0.4,0,1.1,0.4,1.1,0.5c-0.7,2.3,1.2,4.7,0.4,6.5
			c-0.8,1.8-1.2,3.1-0.2,4.8c0.3,0.6,0.4,1.4-0.5,1.6c-0.8,0.2-1.5,0.1-1.6-1C712.1,580.3,712.1,578.5,712.1,576.7z M710.3,588.7
			c0-8,0-16,0-24C710.6,572.7,711.6,580.8,710.3,588.7z M709.4,593.4c-2.6,1.9-5.2,1.8-8.6-0.1C704.1,592.6,706.7,592.8,709.4,593.4
			z M719.1,573c0.5,2.3,1.6,4,0.3,5.9C716.9,575.8,716.9,575.8,719.1,573z"/>
		<path stroke="#000000" stroke-width="2" stroke-miterlimit="10" d="M421.4,361.1c-1.8,0-2.5,1.2-2.5,2.9c-0.1,1.4,0.5,2.6,1.9,2.6
			c1.5,0,2.7-0.8,2.6-2.7C423.4,362.3,422.9,361.1,421.4,361.1z"/>
		<path stroke="#000000" stroke-width="2" stroke-miterlimit="10" d="M687.4,423.1c-0.2,11.3,6,18.9,16.5,19.6
			c8.4,0.6,15.8-7.8,16.3-17.6c0.6-11.5-8.7-20.1-15.5-19.9C695.3,405.4,687.4,411.1,687.4,423.1z M701,423.6
			C701,423.6,700.9,423.6,701,423.6c-0.1-3.2-0.1-6.4-0.1-9.6c0-1.8,0.2-4.1,1.6-4.6c2-0.8,4.1,0.9,6.3,1.2c1.3,0.2,1.9,2.8,1.8,4.9
			c-0.2,4.3-0.3,8.5-0.4,12.8c-0.1,7.3-0.1,7.3-6.4,7.7c-2,0.2-2.9-0.7-2.9-3C701,429.8,701,426.7,701,423.6z M693.3,412.3
			c0.9,0.2,1.1,0.9,1.4,1.7c0.9,2.9,0.8,5.8,0.8,8.8c0,2.7,1.3,6.3-3.1,6.2c-0.3,0-0.5,0.4-0.8,0.6c-0.6,0.6-1.2,1.1-1.8,0
			c-0.6-1.1-0.1-1.8,0.9-2.1c2-0.6,2.4-2.1,1.9-4.1c-0.1-0.5-0.1-1.2,0.1-1.7c1.4-2.5,1-4.9-0.4-7.2
			C691.4,413.2,692.4,412.8,693.3,412.3z M697.6,433.2c-0.3,0-0.6,0-0.9,0c-0.1-6.7-0.3-13.5-0.4-20.2c0-0.3,0.5-0.9,0.8-0.9
			c0.8,0.1,0.8,0.9,0.9,1.6c0.1,3.8,0.3,7.6,0.2,11.4C698.1,427.7,698.5,430.5,697.6,433.2z M703.1,437.9c2.5-1.6,5.3-1,8-0.9
			C708.7,439.5,705.8,438.1,703.1,437.9z M694.6,434.1c0.4,1.8,2.9,0.3,3.2,2.7c0.1,1-0.5,1.6-1.4,1.4c-1.5-0.2-2.6-1.5-3.4-2.8
			C692.7,434.7,693.6,434.5,694.6,434.1z M711.5,421.6c0.2,2.6,0.5,5.2-0.3,7.8C710.8,426.7,710.6,424.1,711.5,421.6z"/>
		<path stroke="#000000" stroke-width="2" stroke-miterlimit="10" d="M812.2,402.3c0.3,1.5,1.2,2.5,2.6,2.5c1.7-0.1,3.1-1.1,3-3.3
			c0-1.7-1-2.6-2.5-2.6C813.3,398.8,812.6,400.3,812.2,402.3z"/>
		<path stroke="#000000" stroke-width="2" stroke-miterlimit="10" d="M812.6,414.4c0.1,1.8,1.4,2.1,2.4,2.1c1.2,0,2.4-0.9,2.4-2.4
			c0-1.7-1.3-2.3-2.7-2.2C813.3,411.9,812.7,412.9,812.6,414.4z"/>
		<path stroke="#000000" stroke-width="2" stroke-miterlimit="10" d="M521.4,499.7c0,13,7.6,21.2,17.5,21.5
			c11.2,0.3,19-7.9,19.5-20.1c0.5-12.1-8.1-21.6-18.7-21.9C530.8,478.8,520.9,486.7,521.4,499.7z M539.1,516.6
			c-7.7,1.1-14.5-9.2-14.3-15.7c0.3-10,6.1-16.8,14.7-16.7c8.9,0,15.1,7,14.8,17.6C554,508.2,548.4,517,539.1,516.6z"/>
		<path stroke="#000000" stroke-width="2" stroke-miterlimit="10" d="M670.6,655.7c-0.7-9.7-8.6-22-19.5-21.8
			c-12.3,0.3-19.1,7.7-20.1,22.6c-0.7,10.9,8.7,20.7,19.5,21C660.9,677.8,670.4,667.5,670.6,655.7z M665,655.9
			c-0.1,10-6,16.7-13.7,16.9c-9.6,0.3-16.2-7.3-16-17.4c0.2-10.8,6.7-16.5,15.5-16.4C658.8,639.1,664.5,645.3,665,655.9z"/>
		<path stroke="#000000" stroke-width="2" stroke-miterlimit="10" d="M163.6,653.7c0.3,1.5,1.1,2.5,2.3,2.5c1.5-0.1,2.5-1.4,2.3-3.1
			c-0.1-1.4-1-2.3-2.4-2.2C164.2,650.9,163.9,652.3,163.6,653.7z"/>
		<path stroke="#000000" stroke-width="2" stroke-miterlimit="10" d="M214,317.7c0.6,1.8-0.4,4.6,2.5,4.6c2.3,0,5-2.8,5-5.1
			c0-2.5-3-5.9-5.3-5.5C212.8,312.3,215.3,315.9,214,317.7z M216.3,320.8c-0.2-0.7-0.5-1.2-0.5-1.7c-0.2-1.6-0.6-3.2,0.2-4.8
			c0.1-0.2,0.7-0.2,0.8-0.1c0.9,1.4,0.2,2.9,0.4,4.4C217.2,319.3,217.4,320,216.3,320.8z"/>
		<path stroke="#000000" stroke-width="2" stroke-miterlimit="10" d="M167.7,343.7c-2,0.1-2.4,1.2-2.4,2.7c0,1.5,0.5,2.5,2.1,2.4
			c1.4-0.1,2.3-1,2.3-2.4C169.7,344.8,168.7,343.8,167.7,343.7z"/>
		<path stroke="#000000" stroke-width="2" stroke-miterlimit="10" d="M633.1,344.2c-0.1,11.5,8.5,21.6,19.5,21.8
			c9.7,0.1,18.9-9,19.3-20.7c0.3-10.4-8.5-23.3-19.1-23.2C642,322.1,633.5,330.6,633.1,344.2z M652.8,360.3
			c-8.6-0.2-15.2-7.2-15.5-16.7c-0.2-6.3,6.9-15.1,15.4-14.6c8,0.5,13.7,5.3,13.5,16.4C666.2,354.1,662,359.7,652.8,360.3z"/>
		<path stroke="#000000" stroke-width="2" stroke-miterlimit="10" d="M737.6,323.4c-9.4-0.1-17.1,11.3-16.8,19.6
			c0.4,8.7,8.9,20.7,18.7,19.8c10-1,17-7.9,16.5-22C755.6,331.1,747,323,737.6,323.4z M754.7,342.9c-0.2,11.3-6.9,18.4-17.1,18.2
			c-7.7-0.2-14.9-9.7-14.7-19.5c0.2-8.4,7.7-16.7,15.1-16.7C747.1,325,754.9,333.4,754.7,342.9z"/>
	</g>
</g>
<g id="text">
</g>
<g id="scratch">
</g>
<g id="guides" display="none">
</g>
</svg>
