<?xml version="1.0" encoding="utf-8"?>
<!-- Generator: Adobe Illustrator 26.0.2, SVG Export Plug-In . SVG Version: 6.00 Build 0)  -->
<svg version="1.2" baseProfile="tiny" xmlns="http://www.w3.org/2000/svg" xmlns:xlink="http://www.w3.org/1999/xlink" x="0px"
	 y="0px" viewBox="0 0 1000 1000" overflow="visible" xml:space="preserve">
<g id="bg">
</g>
<g id="counters">
	<g>
		<path d="M124,501.2c0-0.9-0.1-1.8-0.1-2.8c0-6,0-6,5.6-7.4c0.9-0.2,2.7-0.2,2.3-1.4c-0.8-2.3,0.9-3,2-4c3.9-3.6,8-7,11.9-10.7
			c4.8-4.6,10.7-6.2,17.1-6.3c3.1-0.1,6.2,0.1,9.2,0.1c1.1,0,3-0.3,2.9-1.2c-0.2-2.3,1.4-3.9,1.3-6.2c-0.2-7.5,0-14.9,0-22.4
			c0-4.1,0.1-4.2,4.1-4.2c5.1,0,10.3,0,15.4,0c1.4,0,2.8,0,2.7-2c-0.2-1.8,0.2-3,2.4-2.9c2,0.1,4.1-0.1,4.1,2.8
			c0,1.6,0.8,2.2,2.3,2.1c5.4-0.1,10.9,0.2,16.3-0.3c3.7-0.4,7.8,0.4,10.9-2.9c0.9-0.9,2.9-0.9,3.9,0.5c1,1.5,2.3,1.5,3.8,1.4
			c8-0.1,16,0,24-0.2c2.7-0.1,4.3,0.2,4.3-3.1c0-2.2,2-1.5,3.3-1.6c1.5-0.1,2.7,0.4,2.6,2.2c-0.1,2.4,0.5,3.5,3.1,2.3
			c0.3-0.2,0.9-0.1,1.2,0.1c3.7,1.8,7.6,1,11.4,0.6c0.9-0.1,1.9,0.1,1.9-1.3c0-1.2-0.9-1.2-1.7-1.3c-1.2-0.1-1.9-0.6-2-1.9
			c0-1.4,0.8-1.8,1.9-2.3c2.9-1.5,5.6,0,8.4,0c18.8,0,37.5,0,56.3-0.1c2.9,0,5.8-1.9,8.8-0.1c0.8,0.5,2.1,0.4,2.1,1.7
			c0.1,1.3-0.5,2.1-1.9,2.3c-1,0.1-2.3,0.2-2.1,1.7c0.2,1.6,1.6,1.3,2.7,1.3c6.6,0,13.1-0.1,19.7,0c2,0,3.2-0.5,3-2.7
			c-0.2-2.2,1.2-2.7,3.1-2.8c2.1-0.1,3.2,0.9,3.1,2.9c-0.2,2.4,1.1,2.7,3,2.6c5.3-0.1,10.7,0.1,16-0.1c5.5-0.2,10,1.6,13.6,5.7
			c1.3,1.5,2.4,3,4.8,1.8c1-0.5,2.3,0.2,3.4,1.1c0.6-3.3,1.2-6.2,1.6-9.1c0.3-2.9,0.3-5.6-2.3-7.9c-2.2-1.9-1.9-4.4-0.4-6.7
			c0.9-1.5,2.1-2.8,2.1-4.7c0-2.1,0.9-3.5,3.3-3.6c0.6,0,1.3-0.1,1.4-0.9c0.1-1-0.7-1.2-1.4-1.3c-1.3-0.2-2.6-0.2-4-0.4
			c-1.9-0.2-3.1-1.2-3-3.2c0.1-1.8,1.4-2.7,3.1-2.7c1.4,0,2.9,0.3,4.3,0.6c1.9,0.4,3,0,3-2.2c0-1.4,0.4-3,2.1-2.8
			c3.8,0.4,5.7-2.1,8-4.3c6.3-6.1,13.6-9.9,22.6-9.3c8.5,0.6,15,5.1,20.7,11c3.3,3.5,7.1,2.7,8.6-1.8c0.8-2.4,2-4.3,4.5-5.1
			c1.7-0.5,3.7-1.3,4.7,0.6c1.1,2.3-0.9,2.6-2.6,2.8c-0.7,0.1-1.3,0.8-1.4,1.5c-0.2,0.8,0.2,1.7,1.1,1.2c1.6-1,3.6-1.1,4.9-2.2
			c3.4-3,4.6-2.8,6.1,1.4c0.8,2.3,2.3,3.7,5,3.5c2.1-0.1,2.7-1.3,2.8-2.9c0.4-4.7,3.7-8.1,5.2-12.3c0.8-2.2,2.9-3.9,4.4-5.8
			c1.2-1.6,2.9-2.1,4.2-0.7c2.1,2.3,5.3,0.5,7.5,2.2c0.3,0.3,0.6-0.1,0.6-0.4c0.3-2.7,2.4-2.1,4-2.1c4.9-0.1,9.8-0.1,14.8-0.1
			c1.6,0,2.9-0.3,3.9-1.8c1.1-1.7,2.9-2.3,5-2.4c3.7-0.2,6.8,0.4,9.3,3.4c2.9,3.5,6,6.6,7.8,11.1c1.5,3.7,3.6,7.3,8.8,8.2
			c8.7,1.6,17.3,0.8,26,0.5c2.7-0.1,1.3-1.3,0.6-2.5c-1.7-2.5-0.8-6.2,1.6-7.6c2.7-1.5,6.1-0.3,7.5,2.6c1.4,2.8-0.3,4.8-1.8,6.7
			c0.4,0.7,1,0.7,1.5,0.7c7.5-0.1,15,0,22.5-0.3c4.2-0.2,8.1,0.3,12.1,1.4c2.7,0.8,4.7,2.3,6.4,4.5c7.5,9.8,14.1,20.1,18.9,31.6
			c0.4,1.1,0.8,2.2,2.3,2.1c5.7,0,11.5,0,17.2-0.1c2-0.1,3.5-0.7,1.5-3.2c-2-2.4-1.5-5.4,0.7-7.1c2-1.7,5.2-1.5,7,0.3
			c1.9,1.9,2.1,4.6,0.5,7c-0.5,0.7-1.8,1.1-1.1,2.2c0.5,0.8,1.7,0.5,2.6,0.5c10.6,0,21.1,0.2,31.7-0.2c7.1-0.3,14.3,0.2,21.4-1
			c3.8-0.6,6.1,2.6,9.2,3.8c0.7,0.3,1.1,1.7,0.7,2.5c-1.5,2.5,0,4.2,1.1,6.2c1.2,2.1,2.6,4.2,3.7,6.4c1,2.2,2.6,2.8,4.9,2.7
			c8.3-0.1,16.6-0.1,24.9-0.1c21.9,0,43.8,0,65.8-0.1c2.8,0,3.9,0.9,3.8,3.7c-0.1,4.5-0.1,9,0,13.5c0,1.8-0.5,2.6-2.5,2.5
			c-4.5-0.1-9-0.2-13.4-0.1c-11.5,0.1-22.9,0.3-34.4,0.4c-10.9,0.1-21.7,0-32.6,0c-2.3,0-3.7,0-1.8,2.8c1.3,1.9,2.8,3.9,2.7,6.4
			c-0.1,5.4-0.2,10.8-0.3,16.3c0,2.1-0.9,3.1-3,2.7c-5.4-1.1-10.8-0.3-16.3-0.4c-5.9-0.2-11.7,0-17.6,0c-0.1,0.4-0.1,0.8-0.2,1.2
			c4,1.5,7.2,4.2,10.5,6.8c8.3,6.5,13.2,14.6,14.2,25.1c0.3,3.2-0.7,4.9-3.3,6.1c-5.4,2.3-10.7,4.7-16.1,6.8
			c-1.9,0.8-2.5,1.7-2.2,3.7c0.5,2.9,0.7,5.9,1.2,8.8c0.3,1.8-0.2,3.1-1.3,4.5c-3.2,3.8-6.4,7.7-9.6,11.6c-0.5,0.5-0.9,1.1-1.5,1.5
			c-6.9,4-13.9,7.7-20.6,11.9c-6.7,4.2-13.8,7.8-20.8,11.7c-3.7,2-7.5,3.8-11,6.2c-5.3,3.7-11,6.6-16.6,9.9
			c-6.3,3.7-13.5,5.9-19.4,10.3c-0.9,0.7-1.9,0.8-2.9,0.7c-9.4-0.6-18.8,0.6-28.2,0.2c-7-0.3-14.1,0.3-21.2,0.4
			c-3.7,0-7.3-0.5-11-0.3c-6.6,0.2-13.2,0-19.8,0.3c-7.6,0.3-15.3-0.2-23-0.3c-4.3-0.1-8.6,0.7-12.7,0.6c-7.3-0.2-14.5,0.2-21.8,0
			c-8.4-0.2-16.8,0.3-25.2,0.4c-3.9,0.1-7.8-0.5-11.6-0.2c-7,0.4-14-0.3-21,0.2c-7.6,0.6-15.3,0.4-23-0.1c-7.4-0.4-14.7,0.2-22,0.1
			c-5-0.1-9.9-0.6-14.9-0.5c-5.5,0.2-11.1,0.5-16.5,0.2c-7-0.3-13.9,0.2-20.8,0.1c-8-0.2-15.9,0.5-23.9,0.7c-5,0.1-10,0-14.9-0.2
			c-7.5-0.4-15,0.3-22.6,0.3c-6.9,0-13.9-0.3-20.8-0.5c-7.3-0.1-14.7,0.6-22,0.2c-3.5-0.2-7.1,0.7-10.4,0c-7-1.4-13.9-0.3-20.7,0
			c-6.3,0.3-12.7,0.3-19,0.7c-5.1,0.4-10.6-0.6-15.8-1.3c-3-0.4-6.2,0.2-9.1-1.2c-6.8-3.3-14.2-5.1-21.1-8.2
			c-6.1-2.7-12.5-4.6-18.6-7.2c-4.6-1.9-9.3-3.7-13.9-5.6c-8.8-3.7-18-6.8-26.9-10.4c-2.2-0.9-4.7-1-6.5-2.6
			c-5.4-4.7-10.7-9.5-16.7-13.4c-0.7-0.5-1.3-1.1-1.5-1.9c-0.9-5.6-1.8-11.1-3.6-16.5c-0.1-0.4-0.1-0.9,0-1.2
			c1.3-2.9,0.9-6.1,1.4-9.1c1.2-6.4,0.6-13.5,7.5-17.3c0.2-0.1,0.2-0.4,0.4-0.5c2.7-2,1.4-3.6-0.6-4.9c-1.4-0.9-3-2-2.6-3.4
			c1-3.2-0.9-5.3-2.3-7.6c-1.8-2.9-1.7-3.2,1.5-4.2c7.6-2.4,15.2-4.7,22.9-7.1C124.1,505.5,124.1,505.5,124,501.2z M172.8,539.5
			c1.9,3.5,3.3,7.3,4,11.2c0.7,3.9,0.2,7.8,0.3,11.9c1.9-0.5,3.6-0.7,5.2,1.1c5.2-18,16.9-29.2,34-35.4c-5.5,0-10.9,0-16.4,0
			c-1.5,0-2.3,0.6-2.4,2.1c-0.2,6-4.4,9.4-8.7,12.7c-1.4,1-2.6,1-3.8-0.3c-2.9-3.5-6.5-6.7-6.4-11.9c0-1.8-1.8-2.3-2.3-3.8
			c-0.5,3-2.9,5.3-2.9,8.4c0,0.2-0.1,0.4-0.1,0.7C172.7,537.1,172.1,538.2,172.8,539.5z M277.5,568.4c-1.9-0.9-1.5-1.6-0.6-3
			c1.2-1.6,0.9-3.1-1.2-3.6c-1.7-0.4-1.7-1.2-0.9-2.3c1.5-2.1,0.7-3.2-1.6-3.6c-1.3-0.3-1.7-0.8-1.2-2.1c1-2.4,0.1-3.6-2.6-3.9
			c-1.4-0.1-1.7-0.8-1.4-2.1c0.5-2.4-0.1-4-3-3.5c-1.5,0.3-1.8-0.5-1.5-1.8c0.4-2.4-0.9-3.2-2.9-2.7c-1.8,0.5-2.4-0.2-2.6-1.8
			c-0.2-2.3-1-3.6-3.4-1.8c-1.5,1.1-2-0.2-2.3-1.2c-0.6-2.6-1.9-3.4-3.9-2.1c-1.6,1-2.3,0.7-2.7-1.2c-0.3-1.8-2.9-2.5-4.1-1.1
			c-1.4,1.6-2,1.2-2.8-0.4c-1-1.9-2.5-2.2-4-0.5c-1,1.2-1.7,1.1-2.7-0.1c-1.6-2-3.2-1.9-4.7,0.2c-0.9,1.3-1.6,1.2-2.7,0.1
			c-1.4-1.4-2.9-2.1-3.8,0.6c-0.5,1.6-1.5,1.8-2.8,0.6c-2-1.8-3.4-0.9-4.2,1.2c-0.6,1.7-1.1,2.1-2.8,1c-1.6-1.1-3.5,0.2-3.7,2.3
			c-0.1,1.9-0.7,2.4-2.4,1.3c-1.5-1-3.4,0-3.2,2c0.2,2-0.2,2.4-2.2,1.7c-1.7-0.6-4.5,1.8-4.1,3.5c0.5,1.8,0.3,2.5-1.7,2.5
			c-2.1,0-3,1-2,3.2c0.7,1.5,0,2-1.5,2.1c-2.5,0.2-3.3,1.8-2,4.1c0.8,1.5,0.5,1.9-1.1,2.1c-2.1,0.3-3,2.5-1.6,4.1
			c1.3,1.4,1.4,2.1-0.6,2.7c-2,0.6-2.4,2.4-0.7,3.8c1.4,1.2,1.4,1.8-0.2,2.6c-2.4,1.2-2,2.8-0.3,4.3c1.2,1,1.6,1.9,0.1,2.9
			c-2.1,1.4-1.4,2.7,0.4,3.7c1.3,0.7,1.6,1.3,0.6,2.6c-1.7,2.2-1.4,3.4,1.2,4.4c1.4,0.5,1.6,1.3,0.8,2.3c-1.7,2.5-1,4.1,1.6,5.2
			c1.2,0.5,1.3,1.3,1.1,2.4c-0.3,1.9,0.1,3.2,2.6,2.8c1.3-0.2,1.8,0.5,1.4,1.9c-0.8,2.7,0.2,4,2.7,3.5c1.9-0.3,2.1,0.4,1.8,2
			c-0.4,2.3,0.7,3.3,2.9,2.5c1.8-0.7,2,0.3,2.1,1.6c0.2,2.7,1.6,3.6,4.1,2.5c1.3-0.5,1.9,0,2.2,1.2c0.7,2.7,1.9,3.3,4.2,1.8
			c1.3-0.8,2-0.3,2.3,0.9c0.7,2.5,1.9,3,3.9,1.3c1.2-1,2.2-0.9,2.8,0.7c0.9,2.1,2.4,2.4,4,0.7c1.4-1.5,2.2-2.4,2.9,0.5
			c0.3,1.4,3.2,1.2,4.4-0.3c1-1.3,1.5-2.4,3-0.2c1.1,1.7,3.1,0.6,3.7-0.7c0.9-2.1,1.3-2.3,3.2-0.8c1.5,1.2,3.4,0.7,3.9-1.4
			c0.4-1.7,0.9-1.9,2.5-1.2c1.8,0.8,3.6,0.9,3.6-2c0-1.4,0.6-2,2.2-1.1c1.7,0.9,3.8-0.5,3.7-2.6c-0.1-1.5,0.3-2,1.9-1.8
			c2.6,0.4,3.8-0.9,3.4-3.4c-0.2-1.6,0.4-1.9,1.9-1.8c2.2,0.1,3.3-1.5,2.4-3.4c-0.7-1.6-0.1-2,1.3-2.2c2.3-0.3,3.9-2.6,3-4.7
			c-0.7-1.6-0.6-2.1,1.1-2.6c2-0.6,2.6-2,1.1-3.8c-0.9-1.1-1-1.9,0.5-2.5c2.2-0.9,2.6-2.4,1.1-4.3c-0.9-1.1-1.4-1.8,0.4-2.8
			c1.8-1,1.7-2.9,0.2-4.3c-0.8-0.8-1.4-1.5-1.4-2.6l0.1-0.1C279,571.2,279.5,569.4,277.5,568.4z M734.2,491.7
			c0.2,2.8,2.7,5.2,5.4,5.4c8.3,0.7,16.6,0.5,24.9,0.5c0.9,0,1.9-0.2,2.8,0.1c12.3,3.5,24.9,0.7,37.3,1.2c7.7,0.3,7.2-0.1,8-7.8
			c0.9-8.3-2.1-15-6.4-21.8c-7-11-13.4-22.3-20-33.5c-1-1.7-2.2-2.5-4.2-2.5c-14,0.2-28.1,0.1-42.1,0.7c-11.1,0.5-22.1,0.2-33.2,0.4
			c-2.6,0-3.3,0.8-2.5,3.2c2.5,7,3.7,14.3,3.9,21.7c0.2,4.8-0.4,9.6-1.2,14.3c-0.6,3.7-0.6,6.9,2.9,9.4c1.8,1.3,3.4,3,5.1,4.5
			c2,1.7,3.9,3.9,6.6,0.6c1-1.3,3.3-1.4,4.5-0.2c2.2,2.3,5.3,2.4,7.9,3.6L734.2,491.7z M663.4,467c1.4-2.3-0.1-2.9-1.2-4
			c-2.7-2.9-4.1-6.2-2.5-10.1c0.7-1.7,0.3-2.6-1-3.7c-10.1-8.4-20.1-16.8-30.1-25.2c-9.8-8.3-19.5-16.6-29.1-25
			c-1.1-1-2.2-1.3-3.6-1.2c-12.2,0.1-24.3,0.3-36.5,0.4c-23.3,0.1-46.5,0.1-69.8,0.2c-13.2,0.1-26.3,0.3-39.5,0.3
			c-2.5,0-3.6,0.8-4.1,3.4c-2.5,14.5-4.7,29.1-8,43.5c-2.5,11.3-1.2,22.6-1.9,33.8c-0.3,4.2,0.4,8.4,0.2,12.6
			c-0.1,1.8,0.7,2.4,2.3,2.4c3.9-0.1,7.8-0.3,11.6-0.3c21.2-0.1,42.5-0.1,63.7-0.1c1,0,2.1,0,3.1-0.1c1-0.2,1.6-1.1,0.8-1.8
			c-3-2.4-0.7-4.6,0.2-6.8c0.5-1.2,1.3-2.3,0.8-3.7c-0.8-2.6,0.4-3.6,2.9-3.6c8.7,0,17.4,0,26.1-0.1c37.4-0.5,74.8-0.5,112.2-0.5
			c0.8,0,1.7,0,2.4-0.3c1-0.5,0.8-1.6,0.6-2.5c-0.3-1.3-1.2-0.6-2-0.4c-3,0.7-6.5-1-8.5-4.2c-1.2-1.9-0.6-3.7,0.5-5.7
			c1.5-2.7,3.2-1.8,5-1c2.1,0.9,3.7,2.4,3.2,4.9c-0.1,0.9-0.6,1.7-1,2.8C662.9,470.4,662.5,468.4,663.4,467z M129,519.6
			c3.1-1.1,6.1-2.5,9.1-3.7c1.4-0.6,2.8-0.5,4.2-0.1c3.3,0.8,6.6,2.5,10.1,0.6c0.3-0.2,1.2,0,1.4,0.2c1.9,2.8,3.7,1.3,5.9,0.2
			c4.5-2.3,8.9-1.5,12.5,1.8c2,1.8,4.1,2,6.7,2.2c6.6,0.4,13.2,0.5,19.8,1.6c3.6,0.6,7.3,0.1,11,0.1c8.1-0.2,16.3-0.8,24.4-0.5
			c6.5,0.3,12.9,0.6,19.3,0.2c13.4-0.7,26.8,0.1,40.2-0.5c6.4-0.3,12.9-0.3,19.2-0.3c6.2,0,12.5,0.3,18.7,0.3c14-0.1,28,0,42-0.6
			c6.2-0.3,12.5-0.6,18.6-0.3c6.9,0.4,13.9,0.4,20.8,0.6c5.7,0.2,11.5-0.3,17.2,0c7.6,0.4,15.1-0.3,22.6-0.3
			c8.1,0,16.1-0.9,24.2-1.1c9.5-0.2,19,0.2,28.6,0.1c9.2-0.1,18.4,0.6,27.6,0.3c6.3-0.2,12.7-0.1,19,0.5c3.8,0.4,7.8-0.2,11.6-0.3
			c7.9-0.3,15.8-0.1,23.8-0.5c10.4-0.4,20.8,0.1,31.3-0.3c9.3-0.3,18.5,1.5,27.8,0.7c6.7-0.6,13.4,0,20.2-0.8
			c5.5-0.6,11.3-0.4,17-0.5c14.5-0.4,29-1,43.5-1.9c4.2-0.3,8.4-0.4,13.3-0.7c-2.5-2-4.4-3.6-6.4-5.3c-3.4-2.8-6.4-6.4-10.3-8.2
			c-3.7-1.7-8.3,0.1-12.6-0.2c-2-0.1-4.1,0.3-5.7-1.5c-0.5-0.5-1.7-0.4-2.7-0.4c-23.3,0.1-46.5,0.2-69.8,0.2
			c-42.5,0.1-85.1,0-127.6,0.5c-35.6,0.5-71.2,0-106.7,0.6c-35.7,0.6-71.3,0.2-107,0.6c-49,0.6-98,0.5-147,0.4
			c-2.8,0-4.9,0.8-6.9,2.6c-6.6,5.7-13.3,11.3-19.9,16.9c-0.2,0.2-0.3,0.5-0.7,0.9C121.8,523.5,125.2,520.9,129,519.6z M214.5,495.5
			c18.6-0.3,37.1-0.1,55.7-0.2c14-0.1,28.1,0.2,42.1-0.1c32.5-0.7,65-0.4,97.4-0.6c6.3,0,12.7,0,19-0.1c0.8,0,2,0.4,2.5-0.6
			c0.3-0.8-0.5-1.5-1-2.2c-4.7-7.8-9.3-15.6-14-23.5c-0.3-0.5-0.5-1.1-1.6-1.3c0,2.6-0.1,5.1,0,7.6c0.1,2.3-0.8,3.1-3.1,3.1
			c-5.5-0.1-11.1,0-16.6,0c-0.8,0-1.6,0-2.5,0c-0.9,0-1.7,0.2-1.7,1.3c0,1.3,1,1.5,1.9,1.4c3.8-0.7,4.4,1.4,4.1,4.4
			c0,0.3,0,0.6,0,0.9c0,5.3-1.7,6.6-6.9,5.3c-1.5-0.4-2-1.3-2-2.7c0-2.6-0.1-5.1,0-7.7c0.1-2.3-0.8-3-3-3c-9.1,0.1-18.3,0-27.4,0.1
			c-11.4,0.1-22.7,0.4-34.1,0.6c-0.6,0-1.2,0-1.8,0.1c-0.9,0-1.6,0.4-1.5,1.5c0.1,0.9,0.7,1.3,1.5,1.3c4.2-0.5,4.2,2.3,4.2,5.3
			c0,5.1-2.7,7.1-7.6,5.5c-1-0.3-1.1-1-1.1-1.9c-0.1-3-0.4-5.9-0.3-8.9c0-2.1-0.8-2.9-2.9-2.9c-13.3,0.1-26.6,0.1-39.9,0.1
			c-1,0-2.5-0.4-2.4,1.5c0.1,1.5,1.3,1.3,2.3,1.2c2.9-0.4,3.9,1,3.6,3.8c-0.1,0.9,0,1.8,0,2.8c0,4.2-0.1,4.3-4.3,4.3
			c-4.6,0-4.6,0-4.6-4.6c0-1.1,0-2.3,0-3.4c0-6.1,0.6-5.5-5.7-5.5c-17.9,0-35.9,0.1-53.8,0.1c-2.4,0-4.9,0.4-7.3,0.5
			c-1.1,0.1-1.7,0.5-1.7,1.7c0,1.3,1,1.3,1.9,1.4c4.2,0.3,4.3,0.3,4.1,4.6c-0.1,2.1,1.3,5.2-2.1,5.9
			C206.2,497.4,210.9,495.5,214.5,495.5z M705.4,448.9c-3.1-18.4-12.4-33.6-23.3-48.1c-3.9-5.2-9.4-6.1-15-5.9
			c-7.1,0.2-14.1,0.2-21.2,0.4c-10.2,0.2-20.5,0.4-30.7,0.7c-1,0-2.2-0.3-2.7,1c-0.4,1.2,0.3,2.2,1.2,3c1.6,1.4,2.4,3.1,3.2,5.1
			c0.9,2.2,2.4,3.5,5.5,3c4.5-0.7,8.8,1.1,13,2.6c0.6,0.2,0.8,0.9,0.8,1.5c0,5.6,4.1,8.6,7.5,12c1.8,1.8,3.9,3.2,3.7,6.3
			c-0.1,2.2,2.8,4.2,5.3,4.1c1,0,2.1-0.6,3,0.1c5.9,4.3,13.2,3.1,19.6,5.3c1.4,0.5,2.8,1.2,4.9,1.6c-1.8-4.5-3.6-8.6-6.6-12.1
			c-3.2-3.9-8-4.3-12.2-5.7c-0.1-0.7,0.4-1,0.7-0.9c5.8,1,11.1,2.6,14.4,8.1c2.1,3.4,4.1,6.9,5.2,10.8c0.5,1.7,2.1,2.5,2.7,4
			c1.1,2.8,2.3,5.6,2.2,8.6c-0.1,4.8,2.4,7.7,6.3,9.6c3.6,1.8,6.2,4.4,7.5,8.1c0.7,2.1,2.8,1.8,4.2,3.9
			C706.6,466.1,706.8,457.6,705.4,448.9z M265,476.8c2.6,0,3.8-0.6,3.6-3.4c-0.4-5.3,0.7-10.6-0.6-15.9c-0.2-0.8-0.1-1.6,0.5-2
			c2.3-1.4,1.9-3.6,1.8-5.7c-0.1-3.5-0.2-7,0-10.4c0.2-2.6-1-3.2-3.2-3.2c-8.5,0.1-17,0-25.5,0.3c-10.3,0.4-20.7-0.3-31,0
			c-1.2,0-2.5,0.1-3.7,0c-1.6,0-2.4,0.5-2.4,2.3c0.2,4.7,0.1,9.4,0.2,14.1c0,0.2-0.1,0.5,0,0.6c4.1,5.9,1,12.5,1.7,18.7
			c0.5,4.5,0.1,4.6,4.6,4.6c8.9,0,17.8,0,26.8,0c0,0,0-0.1,0-0.1C247,476.7,256,476.6,265,476.8z M384.7,476.2
			c2.6,0,3.5-0.9,3.3-3.4c-0.4-5.4,0.7-10.8-0.7-16.2c-0.1-0.4-0.1-1,0.1-1.2c3.1-2.7,1.7-6.3,1.9-9.5c0.2-2.7,0-5.3,0-8
			c0-1.7-0.6-2.7-2.6-2.5c-10,0.9-20,0.3-30,0.7c-8.5,0.3-17.2-0.3-25.8-0.3c-6.6,0-6.6,0-6.6,6.4c0,2.7,0,5.3,0,8
			c0,2-0.3,4.1,2.1,5.3c0.8,0.4,0.9,1.2,0.6,2.1c-1.8,5.5-0.5,11.2-0.8,16.7c-0.1,2.2,1.8,1.8,3.2,1.9c9.2,0,18.4,0,27.7,0
			c0,0,0-0.1,0-0.1C366.3,476.1,375.5,476,384.7,476.2z M666.7,495.7c2.7,0,3.4-0.8,3.3-3.3c-0.2-2.6-0.1-5.1,0-7.7
			c0.1-1.9-0.6-2.8-2.7-2.7c-3.3,0.1-6.5,0.1-9.8,0.1c-2.1,0-3,1-2.9,3c0.1,1.5,0.2,3.2-1.8,3.3c-2.1,0.1-2.1-1.7-1.9-3.1
			c0.2-2.3-0.8-3-3-3c-33.8,0.1-67.6,0.2-101.4,0.3c-2,0-3.1,0.3-2.9,2.7c0.1,1.2,0.3,3-1.6,3.2c-2.1,0.1-2.1-1.7-2-3.1
			c0.1-2.2-0.9-2.8-3-2.8c-4.7,0.1-9.4,0.2-14.1,0.2c-1.3,0-2.1,0.3-2.1,1.9c0.1,3,0,5.9,0,8.9c0,2,0.8,2.9,2.9,2.9
			c20.9-0.2,41.8-0.3,62.7-0.4c3.1,0,6.1,0,9.2,0c0-0.1,0-0.3,0-0.4C619.4,495.7,643,495.6,666.7,495.7z M335.5,611.5
			c20.9,0.3,37.1-15.9,37.1-36.4c0-20-16.7-36.4-37.1-36.4c-21.5,0-37.7,17.8-37,35.2C298.1,593.7,314.2,611.1,335.5,611.5z
			 M474.7,574.5c0.1-20.3-17-36.6-37.8-36.5c-19.6,0.2-36.4,16.9-36,36.2c0.4,19.6,16.4,36.9,38,36.8
			C458.5,610.5,474.6,594.9,474.7,574.5z M553.9,610.4c20.9,0,36.2-16.2,36.8-34.6c0.7-21.1-15.8-38.1-36.2-38.1
			c-21,0-37.1,15.6-37.1,36C517.5,593.7,533.9,610.3,553.9,610.4z M805.8,454.5c-1.9,0.1-2,0.5-1.2,1.8c2.6,4.5,5.3,9,7.9,13.5
			c0.7,1.3,1.9,1.4,3.2,1.4c20.2-0.1,40.3,0.1,60.5-0.5c5.9-0.2,11.9,0,17.8,0c4.3,0,4.3,0,4.3-4.5c0-2.8-0.2-5.5,0-8.3
			c0.2-2.9-0.8-3.7-3.7-3.7c-14.8,0.1-29.5,0-42.9,0C835.5,454.5,820.7,454,805.8,454.5z M744.2,511.7c5.6,5.7,13,6.9,20,9.3
			c5.1,1.7,9.4,3.9,11.8,9.1c1.3,2.9,3.4,5.4,5.5,7.7c1.3,1.4,1.2,3,1.3,4.6c0.3,3.2,0.7,3.5,3.5,2.4c4.5-1.9,9-3.9,13.5-5.8
			c1.5-0.6,1.9-1.5,1.6-3.1c-3.8-20.1-17.7-31.7-37-34.2c-10.2-1.3-20.4-0.3-30.7-0.6c-0.4,0-0.7,0.1-1.9,0.3
			C736.3,505.1,740.6,508.1,744.2,511.7z M516.2,526.2c-2.7-0.3-3.8,1-3.9,3.4c-0.3,5.1-3.4,8.6-7.1,11.7c-1.6,1.4-3.1,1.3-4.6-0.2
			c-3.7-3.6-7-7.3-6.7-12.9c0.1-2-0.7-2.6-2.7-2.6c-4.3,0.1-8.6,0.1-12.9,0c-2,0-2.8,0.8-2.9,2.7c-0.1,3.2-0.6,6.3-2.7,8.9
			c-0.9,1.2-0.2,1.8,0.5,2.6c3.6,3.8,6.8,7.9,9.2,12.6c1.1,2.2,2.2,4.4,2.7,6.8c0.4,2.1,1.5,3,3.6,3c0.3,0,0.7-0.1,0.9,0.1
			c2.8,1.9,5.8,2.1,9,1.6c1.7-0.3,2.5,0.9,2.5,2.7c-0.1,3.2-0.1,6.4,0,9.5c0,0.9-1.2,2.3,1.1,2.3c1.7-0.1,3.1-0.2,3-2.4
			c-0.2-3.7,0.2-7.4,0.9-11c2.5-12.7,8.9-23,19.4-30.6c1.7-1.3,3.4-2.7,5.4-3.5c1.2-0.5,2.2-1.3,1.8-2.8c-0.3-1.5-1.5-1.8-2.8-1.8
			c-2.4,0-4.7,0-7.1,0c0,0,0,0,0,0C520.5,526.2,518.3,526.4,516.2,526.2z M291.4,499.3c-40.4,0.2-80.8,0.3-121.1,0.5
			c-7.8,0-15.6,0-23.4,0c-0.6,0-1.2,0-1.8,0c-0.9,0.1-2.2-0.3-2.1,1.1c0.1,1.3,1.5,0.9,2.2,0.9c4.2,0.1,8.4,0.1,12.6,0.1
			c46.6-0.2,93.2-0.5,139.8-0.7c12.2-0.1,24.3,0.2,36.5-0.1c34.9-0.8,69.7-0.3,104.6-0.5c39.7-0.3,79.5-0.2,119.2-0.7
			c49.7-0.6,99.5-0.3,149.2-0.5c1.4,0,2.9,0,4.3-0.1c0.9,0,1.7-0.3,1.6-1.4c-0.1-1-1-0.8-1.7-0.8c-9.5,0-19.1,0-28.6,0
			c-20.7,0-41.4-0.2-62.2,0.2c-37.8,0.7-75.7,0.2-113.5,0.7c-26.3,0.4-52.7,0.5-87.2,0.5C382.5,499.3,336.9,499.1,291.4,499.3z
			 M646.7,526.3c-5-0.1-10,0-15.1,0c-1.7,0-2.6,0.4-2.7,2.4c-0.4,5.2-3.4,9.1-7.2,12.4c-1.8,1.5-3.4,1.4-5.1-0.2
			c-3.6-3.4-6.6-7-6.7-12.3c0-2.3-1.1-2.9-3.3-2.9c-4.5,0.1-9,0.2-13.5,0c-2.3-0.1-3.2,0.9-3.2,3c-0.1,2.6-0.5,5.1-2,7.3
			c-0.7,1-0.3,1.6,0.5,2.3c6,5.9,10.5,12.7,13.1,20.8c0.3,1.1,0.6,2.3,2,2.3c2.5,0,4.5,0.9,6.5,2.3c1.4,1,2.7-1.2,4.3-0.8
			c2.4,0.6,3.5-0.3,4.3-2.8c4.6-15.3,14.6-25.7,29.3-31.7c0.8-0.3,1.7-0.7,2.5-1.1c0.1,0,0.1-0.2,0.3-0.5
			C649.3,525.9,647.9,526.3,646.7,526.3z M481.8,607c3.7,3.7,6.6,7.6,6.2,13.1c-0.1,1.4,0.4,2,2,2c5.3,0,10.6,0.2,15.9,0.3
			c1.8,0,2.7-0.7,2.7-2.5c-0.1-5.2,2.4-9.2,6.1-12.6c1.4-1.3,1.5-2.2,0.4-3.6c-4.5-5.7-7.4-12.3-8.8-19.4c-0.4-2-1.5-2.7-3.4-2.7
			c-4.5,0.1-9,0.1-13.5,0.1c-1.3,0-2.3,0.1-2.7,1.8c-1.9,7.8-4.8,15.2-9.8,21.9C479.1,604.6,480.4,605.6,481.8,607z M598.4,606.6
			c3.5,3.5,6.2,7.3,6,12.6c-0.1,1.6,0.8,2.2,2.3,2.2c5.1,0,10.2,0,15.4,0c1.7,0,2.3-0.7,2.4-2.4c0.4-3.7,1-7.3,4-10
			c1-0.8,0.5-1.6-0.2-2.4c-5.6-6.7-9.3-14.4-11.1-22.9c-0.3-1.7-1.2-2.2-2.8-2.2c-3,0.1-5.9,0-8.9,0c-1.5,0-2.6,0.4-2.9,2.1
			c-1.6,7.7-4.7,14.7-10.2,21.6C595.4,603.8,596.9,605.1,598.4,606.6z M307.4,622.7c1.5-0.1,3.5,0.9,4.2-1.5
			c0.7-2.2-0.7-3.3-2.4-4.4c-4-2.5-7.7-5.4-10.8-9c-5.6-6.3-9.5-13.5-11.3-21.8c-0.5-2.3-1.5-3.2-3.9-3.2c-2.5,0-3.1,1.2-3.6,3.2
			c-3.7,14.9-12,26.2-25.8,33.4c-0.9,0.5-2.5,0.7-2.1,2.2c0.4,1.4,1.9,0.9,2.9,0.9c5.1-0.1,10.2-0.4,15.3-0.5c1.7,0,2.4-0.7,2.4-2.4
			c0.1-5.9,3.9-9.6,8-13.2c1.4-1.2,2.6-0.9,3.8,0.2c3.9,3.6,7.4,7.5,7.4,13.3c0,2.1,1,2.9,3,2.8c2.4-0.1,4.7,0,7.1,0
			C303.5,622.7,305.5,622.9,307.4,622.7z M297.4,474.3c0,1.7,0.5,2.3,2.3,2.3c4.8-0.2,9.6-0.3,14.4-0.3c2,0,2.7-0.9,2.7-2.8
			c-0.2-5.3,0.4-10.6-0.4-15.9c-0.1-0.4-0.1-0.9,0.1-1.2c3.9-4.6,1.4-10,2-15c0.1-0.5-0.1-1,0-1.5c0.5-3.2-0.9-4.3-4.1-4.1
			c-4.6,0.3-9.2,0.2-13.8,0.1c-2.4-0.1-3.3,0.7-3.2,3.2c0.1,5.8,0,11.7,0,17.5c0.1,0,0.1,0,0.2,0
			C297.4,462.4,297.5,468.4,297.4,474.3z M704.4,601.7c-0.9-2.2-0.7-2.8,1.9-2.4c1.5,0.2,2.9-2.7,1.9-4c-1.1-1.6-0.6-2.1,1-2.4
			c2.3-0.5,2.7-2.1,1.4-3.7c-1.1-1.5-0.8-2,0.6-2.7c2.1-1,3-2.4,1-4.4c-0.9-0.9-0.8-1.6,0.2-2.2c2.8-1.4,2.3-3.2,0.5-5
			c-1-1-1.3-1.6,0.1-2.6c1.6-1.3,2-2.8-0.5-3.8c-1.5-0.6-1.4-1.5-0.4-2.6c1.7-1.8,1.1-4.5-1.2-5.3c-1.4-0.5-2-1-0.8-2.3
			c1.6-1.9,0.6-3.3-1.3-3.7c-1.6-0.4-1.8-0.7-1.2-2.2c0.8-2.1-0.2-3.8-2.4-3.8c-1.6,0-2-0.6-1.6-2c0.9-2.8-0.8-3.6-3.1-3.7
			c-1.5,0-2-0.4-1.8-2c0.3-2.1-0.8-3.1-2.8-2.6c-1.6,0.4-2.3,0.2-2.3-1.6c0-2.2-1.3-2.9-3.2-2c-1.4,0.7-2.3,0.3-2.4-1.1
			c-0.3-2.9-1.8-2.7-3.7-1.7c-1.1,0.6-2,0.3-2.3-1c-0.6-2.7-2.5-2.5-4.2-1.5c-1.4,0.8-2,1-2.9-0.5c-1.2-2-2.7-2.7-4.5-0.5
			c-0.8,1-1.7,1.2-2.4-0.1c-1.2-2.3-2.7-1.6-4-0.2c-1.1,1.2-1.9,1.5-3,0.2c-1.7-2.1-3.1-1.3-4.1,0.7c-0.6,1.2-1.3,1.9-2.5,0.8
			c-2.3-2.2-3.5-0.9-4.4,1.2c-0.6,1.4-1.3,1.6-2.5,0.8c-2-1.3-3.4-0.2-3.8,1.6c-0.4,1.9-1,2.2-2.6,1.6c-2-0.8-3.2,0-3.2,2.2
			c0,1.4-0.3,2.3-1.9,1.8c-2.8-0.8-3.4,0.8-3.5,3c0,1.6-0.2,2.3-2.1,1.9c-2-0.4-2.9,1.1-2.1,3.1c0.6,1.7,0.2,2.3-1.5,2.2
			c-2.1,0-3.4,1.5-2.5,3.4c0.9,1.9,0.4,2.3-1.5,2.7c-1.7,0.4-2.5,2.2-1.3,3.9c1,1.3,0.8,1.8-0.6,2.5c-2,1-3,2.2-0.8,4.1
			c1.3,1.1,0.8,1.9-0.4,2.6c-2.2,1.3-2.6,3.7-0.7,5.2c1.4,1.1,1.5,1.6,0.1,2.8c-1.9,1.5-1.7,3,0.4,4.1c1.6,0.8,1.8,1.4,0.4,2.6
			c-1.4,1.2-0.8,3.6,1,4.2c1.9,0.6,1.9,1.3,0.8,2.7c-1.3,1.8-0.3,3.9,2.1,4.2c1.5,0.2,1.9,0.9,1.3,2c-1.5,2.7-1.1,4,2.3,3.9
			c1.5-0.1,1.5,0.9,1.2,2.1c-0.7,2.6,0.5,3.8,3.1,3.5c1.5-0.2,1.7,0.5,1.5,1.8c-0.4,2.6,0.5,3.5,3,3c1.6-0.3,2.4,0,2.2,1.8
			c-0.2,2.2,1.4,3.4,3.4,2.5c2-0.9,2.7-0.9,2.6,1.7c0,2,2.3,2.8,3.8,2.1c1.7-0.7,2.2-0.6,3.1,0.9c0.8,1.4,2.1,2.4,3.5,0.3
			c1.1-1.5,2-0.9,2.7,0.6c1,2.1,2.4,2.8,4,0.6c1.1-1.3,2-1.3,2.8,0.1c1.2,2.1,2.6,1.7,3.8,0.1c1-1.4,1.6-1.6,2.7-0.2
			c1.2,1.6,3.5,1.3,4.3-0.6c0.9-2,1.6-2,3-0.5c1.4,1.5,3.8,0.6,4.3-1.6c0.3-1.7,0.9-2.1,2.5-1c1.9,1.4,3.3,0.7,3.6-1.6
			c0.2-1.7,0.8-2.1,2.4-1.5c2.7,1,3.7,0.2,3.4-2.5c-0.1-1.7,0.7-2.5,2.1-1.6c1.2,0.8,1.8,0.6,2.6-0.3c0.7-0.8,1.7-1.4,0.9-2.8
			c-1.1-2.1,0.4-2.1,1.8-1.8C703.6,605,705.1,603.3,704.4,601.7z M177.8,473.4c-0.1,2.8,0.9,3.6,3.6,3.5c4.2-0.2,8.4-0.1,12.6,0
			c2.3,0.1,3.5-0.7,3.2-3.1c-0.5-5.3,0.9-10.6-0.9-15.8c-0.1-0.3-0.1-1,0.2-1.2c3.2-2.7,1.8-6.5,2-9.8c0.2-2.6,0-5.3,0-8
			c0-2.1-1-2.6-2.9-2.6c-5,0.1-10,0.1-15,0c-2.2,0-2.8,0.9-2.8,2.9c0.1,5.8,0,11.7,0,17.5c0,0,0,0,0,0
			C177.8,462.4,178,467.9,177.8,473.4z M397.9,526.9c-1.7,0-2.8,0.5-2.8,2.4c0,5.8-3.6,9.6-7.5,13.1c-1.4,1.3-2.7,1.2-4.1-0.1
			c-3.7-3.7-7.7-7.2-7.3-13.2c0.1-1.8-1.1-2.2-2.6-2.2c-4.9,0-9.8,0-14.8,0.1c-1.1,0-2.5-0.3-2.9,1.5c-0.3,1.6,0.8,2.1,1.9,2.7
			c7.4,3.6,13.5,8.8,18.5,15.4c3,4.1,5.2,8.6,6.8,13.3c1,2.9,3.2,3,5.3,3.2c2.1,0.2,1.7-1.9,2.1-3.1c4.1-12.1,11.4-21.6,22.7-27.9
			c1.5-0.8,2.5-1.8,2.2-3.6c-0.4-2-2.1-1.5-3.5-1.6c-2.3,0-4.5,0-6.8,0c0,0,0,0,0,0C402.8,526.9,400.3,527,397.9,526.9z
			 M296.2,544.8c0.1-0.1,0.1-0.2,0.2-0.3c3.5-2.7,4.7-5.7,1.4-9.5c-0.9-1.1-1-2.7-0.9-4.1c0.2-2.5-0.8-3.5-3.4-3.4
			c-4.7,0.1-9.4,0.1-14.1,0c-1.9,0-2.9,0.7-2.9,2.6c-0.1,4.8-2.2,8.7-6,11.6c-1.7,1.3-1.3,2.3-0.2,3.7c3.6,4.8,6.5,9.9,8.2,15.7
			c0.3,1.2,0.8,2.3,2.3,2.5c1.9,0.3,3.4,1.3,5.4,2.6C288.1,558.2,291.2,551,296.2,544.8z M293.8,438.5c0-2-0.6-2.7-2.7-2.7
			c-4,0.2-7.9,0.2-11.9,0.1c-2.2-0.1-3,0.8-2.9,2.8c0.1,4.3,0,8.6,0,12.9c0,0.5-0.1,1.3,0.1,1.5c3.8,3.3,1.1,7.6,1.6,11.4
			c0.4,3,0.2,6.1,0.1,9.2c-0.1,2.1,0.6,3,2.8,2.9c3.4-0.1,6.8-0.1,10.1,0c2.2,0.1,2.9-0.8,2.8-2.9c-0.1-5.9,0-11.9,0-17.8
			c0,0,0,0,0,0C293.8,450.2,293.7,444.3,293.8,438.5z M395.6,450.7c0,0.7-0.2,1.8,0.2,2.1c3.4,2.5,1.4,5.9,1.6,8.9
			c0.2,3.8,0.1,7.6,0.1,11.4c0,2.2,0.7,3.2,3,3.1c3.6-0.1,7.2-0.1,10.7,0c1.6,0,1.9-0.8,1.9-2.1c-0.1-11.8-0.3-23.6-0.3-35.4
			c0-2.7-0.9-3.6-3.6-3.4c-3.7,0.2-7.4,0.3-11.1,0.1c-2.2-0.1-2.7,1-2.7,2.8c0,2.1,0,4.3,0,6.4c0.1,0,0.1,0,0.2,0
			C395.6,446.6,395.6,448.6,395.6,450.7z M382.7,622.1c2.5-0.1,5.2,0.5,7.3-0.4c2.3-1,1-4.2,1.7-6.4c1.1-3.4,3.5-5.8,5.9-8.1
			c1.3-1.3,1.7-2.3,0.5-3.9c-4.2-5.5-6.8-11.6-8.3-18.3c-0.3-1.4-0.8-2.6-2.5-2.5c-1.8,0-2.4,1-2.7,2.6c-2.3,9.7-6.5,18.3-13.8,25.2
			c-1.3,1.2-2,2.4-1,4.3c0.7,1.3,1.2,3,1.1,4.4c-0.1,3,1,3.8,3.8,3.4c2-0.3,4.1-0.2,6.1-0.3c0,0,0,0,0,0.1
			C381.4,622.1,382.1,622.1,382.7,622.1z M178.3,605.5c-0.8,1.9-0.4,3.1,1.6,3.9c4.4,1.7,8.8,3.4,13.2,5.1c1.1,0.4,2.2,0.8,2.9-0.7
			c0.7-1.3,0.6-2.3-0.5-3.3c-5.2-5.2-9.1-11.3-11.6-18.2c-0.7-1.9-1.2-3.9-1.6-5.9c-0.3-1.9-1.2-2.8-3.3-2.7
			c-4.4,0-8.8,0.4-13.2-0.2c-0.8-0.1-1.4,0.4-1.9,0.8c-5.9,4.3-12.5,7-19.8,7.7c-1,0.1-2.2,0-2.4,1.4c-0.1,1.2,1.1,1.4,1.9,1.7
			c4.6,1.8,9.2,3.5,13.7,5.4c1.9,0.8,3,0.1,3.6-1.6c2-5.6,6.9-7.5,11.7-9.7c1.5-0.6,3-0.7,3.7,1c1.5,3.2,3.1,6.5,3.3,10.8
			C179.2,601.9,179,603.8,178.3,605.5z M433.8,477.2c0-7.5-0.2-14.9-0.2-22.4c0-2.6-0.7-3.7-3.4-3.6c-4.1,0.2-8.2,0.1-12.3,0.1
			c-2.2,0-3.2,0.8-3.3,3.3c-0.1,4.8,0.6,9.1,3.4,13.3c5.2,7.8,9.7,16.1,14.6,24.1c0.3,0.5,0.4,1.2,1.2,1.3
			C433.8,487.9,433.8,482.5,433.8,477.2z M711.6,523.6c-1.9,0.3-2.7,1-2.6,3c0.3,4.8-1.9,8.5-5.4,11.5c-1.7,1.5-1.4,2.4,0,3.9
			c4.4,4.7,7.7,10.1,9.6,16.2c0.7,2.3,2.2,1.7,3.6,1.6c2.2-0.1,1.3-1.7,1.1-2.7c-1.7-9.4,0.3-17.9,6.7-25.1c1.3-1.5,2.9-2.9,4.6-4.1
			c1.4-1.1,2-2.4,1.5-4c-0.6-1.8-2.1-0.7-3.2-0.8c-2-0.1-4.1,0-6.1,0C718.2,523.4,714.9,523,711.6,523.6z M156.1,489.3
			c-0.6,0.6-1.5,1.2-0.9,2c0.8,1.1,1.3-0.4,2-0.5c3.2-0.5,6.5-1.3,9.5,0.7c0.9,0.6,1.7,0.9,2.6,0.4c4-2.3,7.9-1.8,11.8,0
			c0.4,0.2,1.2,0.3,1.5,0.1c2.6-2.1,5.7-1.3,8.6-1.3c1.9,0,3.3-1.5,5.2-1.3c0.2,0,0.7-0.5,0.7-0.8c0.1-3,0.2-5.9,0-8.9
			c-0.1-1.3-1.4-0.9-2.2-0.9c-4.6,0-9.2,0-13.8,0c-4.6,0-4.6,0-4.7-4.5c0-0.8,0-1.6,0-3.1C169.2,477.5,162.7,483.4,156.1,489.3z
			 M694.8,479.1c-5.1-4.2-10.2-8.5-15.3-12.7c-0.6-0.5-1.1-1.5-2-1c-0.7,0.3-0.4,1.3-0.5,2c-0.3,2.9-1.7,3.8-4.3,2.2
			c-2-1.2-2.6-0.6-2.5,1.4c0.1,2.5-0.8,5.2,1.5,7.2c-1.3,4,1.8,6.8,2.5,10.3c0.2,1.1-0.1,2-1.2,2.6c-0.6,0.3-0.7,1.1-0.2,1.6
			c0.6,0.5,1.1-0.1,1.5-0.6c2.2-2.8,4.8-4.4,8.5-2.4c0.9,0.5,1.9-0.1,2.1-0.7c0.8-2.1,2.8-2.6,4.3-3.8c1.5-1.2,3-1.4,4.1-0.4
			c1.3,1.1,4.3,1.3,2.9,4.4c-0.5,1.2,1.2,2.2,2.6,1.3c3.8-2.6,6.9-1.7,9.6,1.7c0.6,0.7,1.4,0.7,2.8,0.3
			C705.6,487.9,700.2,483.5,694.8,479.1z M517.1,496.6c0-0.4,0-0.7,0-1.1c-103.8,0.5-207.6,1.1-311.4,1.6c0,0.3,0,0.6,0,1
			C309.5,497.6,413.3,497.1,517.1,496.6z M718.4,600.6c4.2-2.4,8.3-4.9,12.5-7.2c1.6-0.9,2.1-1.8,1.3-3.4c-1.7-3.6-2.6-7.3-1.4-11.3
			c0.4-1.3-0.3-1.5-1.6-1c-4,1.4-8,2.7-12.2,3.4c-1.3,0.2-1.7,0.8-1.9,1.9c-0.6,3.4-1.7,6.8-3.1,9.9c-0.8,1.9-0.8,3.2,0.9,4.5
			c1.4,1.1,1.7,3.2,3.5,4.1C717.1,601.2,717.8,600.9,718.4,600.6z M140.6,490.2c-0.4-1.3-0.7-2.6,0.5-3.7c1.2-1,2.5-0.7,3.8-0.2
			c1.5,0.7,2.9,1.6,4.1,2.7c1.9,1.9,2.6-0.3,3.8-1c1.1-0.6,2.1-1.4,0.9-2.9c-0.4-0.5-0.6-1.3-0.9-1.9c-0.6-1.6-0.9-3.3,0.6-4.5
			c1.7-1.4,3.3-0.5,4.8,0.4c1,0.6,1.8,2.2,3.1,1.2c1.6-1.2,4-2.4,4.1-4.2c0.2-3.5,2.1-4.2,4.9-4.4c0.4,0,0.7-0.3,1-0.8
			c-3.5-0.7-7.1-0.7-10.7-0.4c-5.5,0.5-10.4,2.2-14.5,6.4c-3.3,3.5-7.2,6.4-10.9,9.5c-1.8,1.5-1.8,2.7-0.1,4.3
			c1.3,1.2,2.6,2.4,3.6,3.7c1.3,1.6,2.6,2,4.5,0.9C142.3,493.6,141.2,492,140.6,490.2z M579.7,389c-1-1.2-1.3-2.7-0.3-3.9
			c1.8-2.1,3.9-2,6-0.2c0.6-4.9,0.1-5.6-4-5.5c-1.6,0.1-2.4,0.4-2.5,2.2c0,2.8-1.6,3.8-4.4,3.8c-5.7-0.1-11.5-0.1-17.2,0
			c-2.2,0-3.6-0.5-4.2-3c-0.8-3.6-3.8-1.8-5.9-2c-2.1-0.2-2.1,1.4-2.1,2.9c0,9.1-0.8,7.9,7.5,7.9c9.9,0,19.9,0,29.8,0
			c1.4,0,2.9,0.3,3.5-2.4C583.5,390.3,581.5,391.1,579.7,389z M141.5,590.2c19.2-0.3,34.1-15.2,34.1-34c0-18.1-15.6-33.1-34.4-33
			c-19.1,0-33.7,14.6-33.6,33.7C107.7,575.2,123,590.5,141.5,590.2z M746.9,541.7c-4.3,0.1-8.4,4.6-8.3,9c0,5.1,4.1,9.2,8.9,9.1
			c5.2-0.1,9.4-4.1,9.3-9C756.8,545.6,752.4,541.6,746.9,541.7z M462.7,393c1.7,0,3.6-0.2,3.4,2.6c-0.1,1.4,1.5,1.3,2.4,1.3
			c4.5,0,9-0.1,13.5-0.2c0.7,0,1.6-0.1,1.5-1.1c-0.4-3,1.7-2.7,3.5-2.8c1.6-0.1,3.2,0.2,4.8-0.5c-7.5-8.2-23-10.8-34.8,0.6
			C459.3,393,461,393,462.7,393z M122.5,509.2c-5.2,1.6-10.3,3.2-15.5,4.8c-1.8,0.6-2.6,1.2-1.2,3.1c1.7,2.2,3.1,4.5,4.6,6.9
			c0.7,1.1,1.5,1.8,2.7,0.8c7.4-6.2,15.2-12.1,22.3-18.7c0.1-0.1,0-0.2,0.2-0.9C131,506.6,126.8,507.9,122.5,509.2z M548.1,394.3
			c-3.6,0-4.8-1.1-4.9-4.7c-0.1-2.1,0-4.3,0-6.5c0-0.6,0.1-1.4-0.6-1.6c-0.4-0.1-1,0.3-1.3,0.6c-3.3,3.8-5.9,8.1-8.4,12.4
			c-1.2,2.1,0.7,2,2,2c5.9,0,11.9,0,17.8,0c8.4-0.1,16.7-0.1,25.1-0.3c1.3,0,3.8,0.7,3.7-1.3c0-1.8-2.4-0.9-3.6-1
			c-4.8-0.1-9.6,0-14.4,0c0,0.1,0,0.2,0,0.3C558.3,394.3,553.2,394.3,548.1,394.3z M672.4,446.6c0-1.8-0.6-2.1-2.3-1.4
			c-2.6,1.1-4.9,2.6-6.8,4.6c-4.5,4.6-2.9,11.4,3.6,15c1.6,0.9,3.3,2.9,4.8,2c1.6-0.9,0.5-3.4,0.6-5.2c0.1-1.9,0-3.9,0-5.8
			c0,0,0,0,0,0C672.4,452.8,672.4,449.7,672.4,446.6z M812.4,473.3c-7.4-12-14.2-24.4-21.3-36.7c-0.5-0.9-1.1-1.8-1.6-2.6
			c-0.6-0.9-1.7-1.7-2.6-1c-0.9,0.7,0.1,1.7,0.6,2.4c8,13.4,15.8,26.8,24.1,40c2.5,4,2.3,8.1,2.3,12.4c0,3.1-0.1,6.1-0.1,9.2
			c0,1-0.2,2.3,1.3,2.4c1.7,0,1.4-1.4,1.5-2.5c0-2.5,0-4.9,0-7.4C817.4,483.5,815.5,478.5,812.4,473.3z M486,616.5
			c-0.7-3.9-3.5-6.4-6-9c-0.7-0.7-1.7-0.8-2.5-0.1c-3.6,3.2-6.5,6.8-6.7,12c-0.1,1.8,0.6,2.7,2.4,2.7c2.6,0,5.1,0.2,7.7,0.3
			C486.8,622.7,487,622.3,486,616.5z M175.5,591.8c-0.4-1.1-1.2-1.7-2.4-1.2c-4.7,1.9-9.2,4-11,9.3c-0.5,1.5-0.5,2.2,1.1,2.8
			c3.2,1.2,6.3,2.5,9.3,3.9c2.6,1.2,4,0.6,4.6-2.2c0.3-1.4,0.5-2.8,0.5-4.4C177.7,597.1,176.3,594.5,175.5,591.8z M285.2,622.7
			c4.6,0,4.5,0,4.3-4.4c-0.3-4.8-3.7-7.5-6.7-10.5c-0.5-0.5-1.1-0.4-1.6,0.1c-3.8,3.4-7.1,7.1-7.2,12.6c-0.1,1.6,0.6,2.2,2.1,2.2
			c1.9,0,3.9,0,5.8,0c0,0,0,0.1,0,0.1C283,622.7,284.1,622.7,285.2,622.7z M381.6,526.7c-3.6,0-4.1,0.6-3.7,4.1
			c0.5,4.6,3.6,7.4,6.7,10.3c0.6,0.6,1.4,0.5,2,0c3.1-3.1,6.6-5.9,7-10.8c0.2-3.3-0.4-4.1-3.7-4c-1.4,0-2.9,0-4.3,0
			c0,0.1,0,0.2,0,0.3C384.2,526.7,382.9,526.7,381.6,526.7z M184.7,526.9c-4.6-0.2-5.4,0.7-4.3,5.4c0.9,3.7,3.1,6.6,5.8,9.2
			c0.5,0.5,1,0.9,1.6,0.4c3.6-3.2,7.7-5.9,8.1-11.4c0.1-1.8-0.2-2.8-2.3-3.1c-2.4-0.3-4.9-0.5-7.3-0.5
			C185.7,526.9,185.2,526.9,184.7,526.9z M596.8,607.3c-1-1.1-2.2-1.2-3.2-0.2c-3.2,3.1-6.1,6.3-6.4,11.1c-0.1,2.1,0.3,3.3,2.8,3.2
			c3.4-0.1,6.7,0.2,10.1,0.2c2.3,0,2.8-0.5,2.5-2.6C603.1,613.9,599.9,610.6,596.8,607.3z M402.5,622.1c1.9-0.4,4.7,1.2,5.5-1.1
			c0.9-2.5,0.3-5.6-1.4-7.9c-1.4-2-3.4-3.5-5.1-5.3c-0.6-0.6-1.1-0.7-1.9-0.3c-3.4,1.8-7.2,8.4-7,12.4c0.1,1.5,0.7,2.3,2.2,2.3
			c1.9,0,3.9,0,5.8,0C401.2,622.1,401.9,622.2,402.5,622.1z M499.6,525.7c-4.3,0-4.7,0.6-4.1,4.8c0.6,4.3,3.5,7,6.4,9.7
			c0.8,0.7,1.4,0.3,2.1-0.2c4.2-3,6.4-7,6.9-12.1c0.2-1.5-0.5-2.1-1.9-2.1c-2,0-4.1,0-6.1,0c0,0,0,0,0-0.1
			C501.9,525.7,500.8,525.7,499.6,525.7z M616.1,525.7c-4.5,0-4.9,0.5-4.3,5c0.6,4.2,3.9,6.6,6.4,9.4c0.6,0.7,1.3,0.3,1.9-0.2
			c3.6-3.3,7.1-6.6,6.8-12.1c-0.1-1.8-0.7-2.3-2.3-2.3c-1.8,0.1-3.7,0-5.5,0c0,0,0,0,0,0C618.1,525.7,617.1,525.7,616.1,525.7z
			 M519.9,622.4c2-0.2,4.3,0.6,5.7-1.2c1-1.2-0.9-7.5-2.4-8.8c-0.5-0.4-0.9-0.8-1.4-1.2c-4.7-4.2-6.8-3.8-9.8,1.9
			c-1.3,2.4-2.3,5.2-1.6,7.7c1.1,3.6,4.6,0.3,6.2,1.5C518,622.4,518.9,622.5,519.9,622.4z M271.8,527.5c-3.4,0.1-6.8,0.1-10.1,0
			c-1.8,0-2.6,0.8-2.6,2.6c0.2,3,0.6,6,3.6,7.6c2,1.1,3,4.8,5.4,3.5c3.4-1.8,6.1-4.9,6.5-9.2c0.1-0.5,0.1-1,0.1-2.1
			C275.1,528.2,274,527.4,271.8,527.5z M704.4,524.1c-3.2,0.6-6.5,0.4-9.8,0.3c-2.4,0-2.9,1-2.8,3.2c0.3,3.5,1.9,6,4.8,8
			c4.8,3.3,5,3.4,8.5-1.6c1.5-2,2.6-4.2,2.2-6.6C708,524.6,707,523.6,704.4,524.1z M669.7,479.8c0-0.3,0-0.6,0-1
			c-41.6,0.2-83.1-0.3-124.7,1C586.6,479.8,628.1,479.8,669.7,479.8z M733.9,590c0.5,1.4,1.6,1,2.5,0.5c3.5-2,6.9-4,10.3-6
			c0.6-0.4,1.8-0.6,1.4-1.7c-0.3-1.1-0.9-2.2-2.3-2.2c-4.1-0.1-7.8-1.4-11.4-3c-1-0.4-1.7-0.4-2,0.9c-0.3,1.3-0.7,2.6-0.6,4
			C731.5,585.2,732.9,587.5,733.9,590z M610.4,404.2c16.9,14.3,33.8,28.6,50.7,42.8c0.6,0.5,1.3,1.5,2,0.5c0.8-1-0.5-1.3-1-1.8
			c-13.1-11-26.2-21.9-39.3-32.9c-5.3-4.5-10.5-9.2-15.7-13.8c-1-0.9-1.8-2-3.9-1.5C605.5,399.8,607.9,402.1,610.4,404.2z
			 M762.7,568.5c2.6,3.1,2.6,3.1,5.3,0.3c2.5-2.5,4.4-5.3,5.3-8.8c-2.9-1.4-6-2.3-9.2-3.1c-1.9-0.4-6.1,3.1-6,5.1
			C759.3,564.4,761,566.4,762.7,568.5z M763.8,543.9c2.5-0.8,5-1.8,7.5-2.6c1.3-0.4,1.8-1.1,1-2.5c-1.7-3.2-4-5.9-6.8-8.3
			c-0.7-0.6-1.5-1.2-2.3-0.1c-1.8,2.6-3.7,5.2-5.5,7.8c-0.2,0.2-0.2,0.6-0.3,0.8C757.5,540.8,762.1,544.5,763.8,543.9z M730.2,571
			c1.1,0.7,1.7,0,2.3-0.8c1.2-1.7,2.2-3.5,3.6-5c2-2.2,1.7-3.9-0.1-6.2c-1.6-2-2.7-2.5-5-1.5c-2.1,1-4.5,1.5-6.7,2.2
			c-0.7,0.3-1.7,0.5-1.5,1.7C724.8,565,726.5,568.7,730.2,571z M723.8,542c3,0.9,6,2.1,9.1,2.7c2.5,0.5,2.6-2.4,4-3.6
			c1-0.9,0.9-2.1,0-3.3c-1.2-1.4-2.4-2.8-3.4-4.3c-3-4.4-2.4-3.6-5.8-0.5c-2.3,2.1-3.9,4.7-5,7.4C722.4,541.5,723.1,541.8,723.8,542
			z M749.2,572.6c-0.7,4.6-0.3,5.7,5.6,4c8.7-2.4,8.8-3,3.2-10.1c-2.2-2.8-5.3-3.3-8.2-1.3c-0.7,0.5-0.7,1.2-0.7,1.9
			c0,1.4,0,2.8,0,4.3c0,0,0,0,0,0C749.2,571.8,749.3,572.2,749.2,572.6z M729.9,546.6c-2.2-0.6-4.3-1.3-6.4-2
			c-1.5-0.5-2.3-0.1-2.7,1.5c-0.8,3.3-0.7,6.6,0.2,10c0.4,1.3,0.9,2,2.3,1.4c2.8-1,5.6-2,8.4-2.8c2.2-0.7,1-2.3,1.2-4.1
			C734.1,548.1,732.2,547.3,729.9,546.6z M628,621.4c3.7,0,7.4,0.1,11.1,0c1,0,2.2,0.1,2.5-1.2c0.3-1.2,0-2.3-0.9-3.1
			c-3.1-2.4-6.2-4.7-9.3-7c-1.3-1-1.9,0.3-2.5,1c-2,2.4-2.6,5.3-2.7,8.2C625.8,621,626.6,621.4,628,621.4z M739.4,525.4
			c-6.7,2-6.9,2.5-2.7,8c0.4,0.6,0.9,1.1,1.3,1.7c2.1,2.8,4.7,3.3,7.4,1.2c1.9-1.5,0.5-3.9,0.9-5.5
			C746.3,523.7,745.9,523.5,739.4,525.4z M746.3,569.4c0-3.5-1.9-5.6-5.3-5.7c-0.9,0-1.3,0.5-1.7,1.1c-1.5,2.3-3,4.6-4.6,6.8
			c-0.9,1.3-0.8,2.3,0.7,2.9c2.6,1.2,5.2,2.2,8.1,2.6c2.4,0.3,3.1-0.6,2.9-2.8c-0.1-1,0-2,0-3.1c0,0,0,0,0,0
			C746.3,570.6,746.3,570,746.3,569.4z M749,532.8c0.1,1.5-0.5,3.4,2,3.8c2.1,0.4,4.2,1.7,5.7-1.3c0.9-1.8,2.3-3.4,3.6-4.9
			c1.7-2,0.9-3.1-1.1-3.8c-2.1-0.7-4.3-1.3-6.5-1.8c-3.2-0.7-3.6-0.3-3.7,2.9c0,0.9,0,1.8,0,2.8C749,531.2,749,532,749,532.8z
			 M130.9,502.7c2.6-0.6,5.2-1.3,7.6-2.4c1.6-0.7,2-1.6,0.7-3c-0.9-1-1.8-2-2.6-3c-1.4-1.7-2.9-2.5-5.1-1.2
			c-0.6,0.3-1.4,0.6-2.1,0.6c-3.4,0-4.7,1.6-4,4.3C125.5,503.3,126.1,503.8,130.9,502.7z M300.5,527.5c-0.1,0-0.2,0-0.3,0
			c-1.1,0.1-1.7,0.6-1.7,1.8c0,3,0.6,5.9,2.7,8.2c0.9,1,1.9,0.3,2.7-0.4c2.5-2,5.2-3.7,7.9-5.2c1.4-0.8,2.7-1.5,2.2-3.5
			c-0.5-2.2-2.3-0.9-3.4-1.3c-0.3-0.1-0.6-0.1-0.6-0.1C306.6,527.2,303.5,527.4,300.5,527.5z M459.9,526.3c-2.3,0-2.3,1.3-1.5,2.8
			c0.4,0.7,1,1.3,1.7,1.7c2.9,1.6,5.8,3.1,8.3,5.2c1.4,1.2,2.4,0.9,3.2-0.6c0.3-0.5,0.6-1.1,0.8-1.6c2.5-6,1.5-7.6-4.9-7.5
			c-0.7,0-1.4,0-2.1,0c0,0,0,0,0,0C463.6,526.3,461.8,526.3,459.9,526.3z M696.1,468.4c-5.7-4.7-11.4-9.3-17.1-14
			c-0.5-0.4-1.3-0.7-1.2-1.8c2.4-0.4,3.2,2.2,5,2.8c0.6-3.6-1-8.2-3.7-10.3c-0.4-0.3-0.9-0.7-1.3-0.6c-0.8,0.1-0.6,0.9-0.6,1.5
			c0,2.8,0,5.5,0,8.3c0,1,0.4,1.8,1.1,2.4c6.5,5.3,13,10.7,19.4,16c0.2,0.2,0.5,0.2,1.1,0.4C699.2,470.5,697.4,469.5,696.1,468.4z
			 M681.3,463.9c13.1,10.9,26.1,21.7,39.3,32.5c1.1,0.9,2.7,3.3,3.9,2c1-1.1-1.6-2.1-2.6-3c-9-7.6-18.2-15-27.3-22.5
			c-5-4.1-9.9-8.3-14.8-12.4c-0.7-0.6-1.2-1.4-2.7-1.2C677.9,461.5,679.7,462.6,681.3,463.9z M433.3,448.4c0.7-1.4-1.5-2.4-2.4-3.5
			c-1.7-2-3.6-3.9-5.4-5.9c-2.2-2.4-5.1-3.3-8.2-3.8c-1.3-0.2-2.5-0.1-2.6,1.7c-0.1,1.6,0.6,2.3,2.2,2.3c0.9,0,1.9,0,2.8,0.1
			c2.6,0.5,4.2,1.9,4.3,4.7c0.3,4.9,0.4,4.9,5.3,4.9C430.5,448.7,432.7,449.8,433.3,448.4z M574.6,526c-0.6,0.1-1.6,0-1.7,1
			c-0.1,0.8,0.2,1.5,0.9,1.8c3.8,2,7.6,4,11.1,6.5c0.6,0.4,1.2,0.2,1.6-0.4c0.4-0.7,0.8-1.4,1-2.2c1.9-6.1,1.2-7-4.9-7
			c-0.5,0-1,0-1.5,0c0,0,0-0.1,0-0.1C578.9,525.7,576.7,525.8,574.6,526z M590.7,381.4c-0.7-0.7-1.6-1.7-2.6-1.3
			c-1.2,0.4-0.8,1.7-0.7,2.7c0,1.9,0.4,3.9,0.1,5.8c-0.7,3.7,1.3,4,4.1,3.9c2.2-0.1,4.5,0,7.3,0
			C596.1,388.2,593.6,384.6,590.7,381.4z M574.3,382.6c1,0,2.3,0.2,2.5-1.1c0.3-1.6,0.3-3.2,0.3-4.8c0-0.1-0.5-0.4-0.7-0.4
			c-0.7,0.1-1,0.7-1,1.3c0.1,1.9-0.8,2.8-2.8,2.7c-1.8,0-3-0.6-3-2.6c0-0.6-0.1-1.3-0.9-1.3c-0.9,0-1.2,0.8-1.2,1.5
			c0,2.1-1.2,2.5-3,2.5c-2,0-2.9-0.7-2.6-2.8c0.1-1-0.4-1.2-1.3-1.3c-0.8-0.1-1.6,0.1-1.7,0.9c-0.1,1.9-1.1,2.7-2.8,3.1
			c-0.8,0.2-1.4,0.7-1.2,1.5c0.2,0.9,1.1,0.8,1.8,0.8c3.1,0,6.1,0,9.2,0c0,0,0,0,0,0C568.8,382.6,571.6,382.6,574.3,382.6z
			 M271.4,473.8c0,1.8,0.3,2.9,2.5,2.9c2.1,0,2.5-0.9,2.6-2.7c0.1-4.5-0.5-8.8-1.2-13.2c-0.2-1.2-0.8-1.5-1.9-1.5
			c-1.2,0-2,0.5-2,1.8c0,2.3,0,4.7,0,7c0,0,0,0,0,0C271.4,470,271.4,471.9,271.4,473.8z M326.7,430.9c-0.9,0-1.9,0-2.2,1.2
			c-0.1,0.5-0.3,1.6,0.5,1.3c3.3-1.2,6.2,1.6,9.6,0.7c4.7-1.4,9.6-0.5,14.4-0.2c2,0.1,3.3-0.6,3.8-3
			C343.9,430.9,335.3,430.9,326.7,430.9z M174,571.6c0.6,0.8,1.2,0.3,1.8,0.5c1.5,0.4,2.3,1.3,2.5,2.7c0.1,1.1-0.3,2-1.2,2.6
			c-1.3,0.8-2.9,0.9-3.7-0.2c-1.6-2.5-2.3-1.2-3.2,0.4c-0.4,0.7-1.3,1.1-1.3,2.1c3.4,0.7,6.9,0.2,10.3,0.3c1.4,0,2.1-0.7,1.9-2.1
			c-0.1-0.9-0.5-1.9-0.3-2.7c1.1-4.4,0.3-7.7-5-8.3C175.3,568.3,174.6,570,174,571.6z M360.1,622.6c2.1,0.1,4.3-0.1,6.5,0.1
			c2.1,0.1,2.8-0.4,2.6-2.7c-0.6-6.7-0.5-6.6-6.2-3.2c-3,1.8-6,3.6-10.1,5C355.8,623.2,358,622.5,360.1,622.6z M390.7,473.9
			c-0.1,2.1,1.2,2.2,2.8,2.2c1.8,0.1,2.2-0.7,2.3-2.4c0.3-4.7-0.9-9.2-1.7-13.8c-0.2-1-0.9-1.3-1.8-1.3c-1.2,0-1.6,0.7-1.6,1.8
			c0,2.3,0,4.7,0,7c0,0,0,0,0,0C390.7,469.6,390.8,471.7,390.7,473.9z M482.1,576.4c-0.3,3.3-0.9,6.3-1.7,9.4
			c-0.4,1.5,0.2,3.3-1.7,4.3c3.6,2.2,3.7,2.1,4.9-1.6c1.4-4.4,2.1-8.9,2.3-13.5c0.1-2.8-1-3.7-4.2-2.9
			C482.9,573.6,482.2,574.9,482.1,576.4z M366.9,611.8c4-3.3,7.2-7.2,9.9-11.6c1-1.6,0.7-1.7-2.3-3.1c-3.1,5.4-7.4,9.6-12.2,13.9
			C363.3,613.1,364.8,613.5,366.9,611.8z M326.5,622.1c4.9,1,9.9,1.2,14.9,0.6c0.8-0.1,1.8,0.1,2-0.9c0.3-1,0-2.2-0.6-2.9
			c-0.9-1.1-1.3,0.8-1.9,0.7c-2.9-0.8-5.7,0.5-8.4,0.1c-1.6-0.2-2.8-1.6-4.7-0.5c-1.2,0.7-2.2-0.5-3.1-1.4
			C323,621.2,323.1,621.4,326.5,622.1z M476.4,595.9c-0.4,0.1-1,0.5-1,0.6c0.9,4.2-4.2,4.8-4.8,8.2c-0.3,1.3-0.5,1.3-2.7,2.6
			c1.9,2.8,2.2,2.8,4.4,0.5c3.3-3.4,6-7.2,8-11.5c1.5-3.1,1.3-3.3-2.8-4.3C478.7,594,478.3,595.2,476.4,595.9z M375.3,595.3
			c2,1.9,3.5,1.7,4.5-1c1.8-4.4,3-8.9,3.8-13.6c0.4-2.6-0.5-4-3.6-3.3C381.1,579.2,376.6,593.8,375.3,595.3z M570.5,621.4
			c4.2,0,8.4,0,12.7,0c1.9,0,2.4-1.3,2.4-2.9c0.2-3.5,1.1-6.6,3.5-9.2C583.6,614.5,577.5,618.4,570.5,621.4z M595.3,589.6
			c-0.9,3-2.6,5.3-4.2,7.8c-0.5,0.8,0.2,2.3-1,3c-1.4,0.7-1.2,1.3-0.2,2.2c0.9,0.8,1.6,1.1,2.5-0.1c3.4-4.2,5.4-9.1,7.3-14.1
			c1-2.7-0.3-3.7-3.2-3.6C597.2,586.8,595.7,588.1,595.3,589.6z M199.9,474.5c0,1.7,0.9,2.3,2.5,2.3c1.6,0,2.1-0.8,2.2-2.3
			c0.5-4.4-0.6-8.7-1.4-13c-0.2-1-1-1.2-1.9-1.1c-1,0.1-1.3,0.8-1.3,1.7c0,2.1,0,4.3,0,6.4c0,0,0,0-0.1,0
			C199.9,470.6,200,472.6,199.9,474.5z M572.5,618.3c1.6-0.7,1.6-1.4,0.8-2.8c-0.8-1.3-1.3-0.5-2.3-0.5c-3.4,0-5.7,4.6-9.5,2.2
			c-0.8-0.5-1.5,0.3-2.1,0.9c-0.6,0.6-1.3,1.1-2.1,0.9c-1.3-0.4-2.5-1.1-2.5,1.3c0,2.2,1.5,1.7,2.3,1.7
			C562.7,621.6,567.7,620.4,572.5,618.3z M453.6,622.4c4.4,0,8.8,0,13.2,0c1.4,0,2.4-0.7,2.4-2.2c-0.1-2.9,0.8-5.6,1.9-8.4
			C465.9,616.3,459.9,619.3,453.6,622.4z M320,474.2c0,1.6,1,2,2.5,2c1.6,0,2.1-0.7,2.2-2.2c0.2-4.3-0.3-8.5-1.3-12.7
			c-0.2-1-0.7-1.4-1.7-1.4c-1.2,0-1.7,0.6-1.7,1.7c0,2.1,0,4.3,0,6.4c0,0,0,0,0,0C319.9,470.1,319.9,472.1,320,474.2z M302.8,604.7
			c0-0.3-0.1-0.8-0.2-0.8c-3.4-1.2-3.5-5.3-6.2-7.1c-0.7-0.4-1.1-1-1-1.8c0.2-1.5-0.1-2.3-1.8-1.6c-1.4,0.5-2,1.1-1.2,2.7
			c2.3,4.8,5.5,9.1,9.3,12.9c2.2,2.2,2.8-0.2,4.5-1.5C304,607.3,302.6,606.9,302.8,604.7z M434.3,622.2c4.9,0.7,9.8,0.2,14.6-0.8
			c1.8-0.4,1.9-1.4,1.4-3c-0.7-2-1.5-1-2.4-0.3c-0.6,0.5-1.4,0.6-2,0.2c-1.3-0.7-2.3-0.4-3.4,0.4c-1,0.9-2.2,1-3.4,0.4
			c-0.7-0.4-1.6-0.7-2.4-0.4c-1.8,0.9-3.5,1.2-4.8-1.1C430.7,621.7,430.7,621.7,434.3,622.2z M408.9,607.7c0-0.3-0.2-0.7-0.4-0.8
			c-3.4-1.1-3.7-5.3-6.8-6.6c-0.7-0.3-1-1-1.1-1.7c-0.2-1.3-0.5-1.9-1.9-1.1c-1.2,0.7-1.7,1.4-0.9,2.7c2.8,4.5,6.5,8.4,10.5,11.8
			c1.9,1.6,2.9,0.3,4.1-1.8C410.1,610.4,409.2,609.4,408.9,607.7z M716,572.5c0.2,2.2,1.6,2.4,3.3,2c2.2-0.5,4-3.3,3.7-5.7
			c-0.4-2.8-3-5.5-5.3-5.5c-1.8,0-2.6,1-2.2,2.8C715.5,568.2,715.8,570.4,716,572.5z M377.2,558.1c-0.7,0.9,0.8,1,0.9,1.5
			c0.4,2.7,0.4,5.4,2.2,7.7c-2.9,2.6,1.9,5.2,0,7.8c-0.3,0.4,0.9,0.4,1.5,0.5c0.9,0.1,1.8,0,1.8-1.1c0.4-5.9-0.7-11.6-3.1-17
			c-0.3-0.7-0.5-0.7-1.5-0.6C378.6,557.3,377.7,557.5,377.2,558.1z M601.4,581.3c0.5-5.2,0.8-10.4-0.3-15.6c-0.4-1.9-1.4-2-2.9-1.8
			c-0.4,0.1-0.9,0.5-0.7,0.8c2.4,2.4-1.8,6.1,1.6,8.3c0.1,0.1,0.2,0.5,0.2,0.5c-3.5,2.6,0.5,6.6-1.8,9.3
			C599.6,584.2,601.1,584,601.4,581.3z M455.3,619.2c4.2-1.7,8.1-3.8,11.7-6.6c1.1-0.8,2.3-1.5,0.8-3.1c-1.4-1.5-1.9-0.4-2.7,0.7
			c-0.5,0.7-1.3,0.9-2.2,0.7c-1-0.2-2,0.3-2.3,1.2c-0.7,2-1.8,2.9-3.9,2c-0.5-0.2-1,0.2-1.2,0.7c-0.7,1.8-2.2,2.2-4.1,1.9
			C451.7,619.4,452.3,620.4,455.3,619.2z M480.7,553c-0.3-0.7-0.8-1.3-1.7-0.9c-0.7,0.3-1.7,0.6-2.1,1.2c-0.7,1.2,0.8,1,1.2,1.6
			c0.3,0.4,0.8,1,0.7,1.2c-1,2.4,0.1,3.8,2,5.1c0.1,0.1,0.2,0.2,0.2,0.2c-1.2,2.7,0.6,4.8,1.2,7.1c0.2,0.7-1,1.8,0.8,1.9
			c1.3,0,2.2-0.4,2.2-1.9c0-0.3,0-0.6,0-1.1C484.6,562.4,483,557.6,480.7,553z M318.9,616.2c-0.1-0.2-0.2-0.5-0.3-0.5
			c-3.4-0.1-5.4-3.3-8.6-3.9c-0.9-0.2-1.6-0.4-1.9-1.3c-0.3-0.9-0.5-2.1-1.8-1.1c-0.9,0.7-2.1,1.8-0.7,3c4.3,3.6,9.1,6.3,14.4,7.9
			c2.1,0.6,2.1-1.3,2.6-2.7C320.8,618.1,319.6,617.8,318.9,616.2z M534,614.4c0.5-1.4-0.6-0.9-1.2-0.9c-1.1-0.1-1.6-0.7-2-1.6
			c-0.2-0.5-0.4-1.2-0.7-1.3c-3.2-0.6-4.3-4.3-7.4-5.1c-0.7-0.2-1.4-0.6-1.5-1.3c-0.2-1.2-0.4-2.1-1.8-1c-1,0.7-1.8,1.3-0.7,2.6
			c3.7,4.2,7.8,7.7,12.8,10.2c0.3,0.1,0.6,0.2,0.8,0.3C533.4,616.2,533.8,615.3,534,614.4z M299.7,431.1c-0.8,0-1.8-0.2-1.8,1.1
			c0,1,0.8,1.3,1.6,1.5c3.7,0.9,7.5,0.5,11.3,0.6c1.6,0,3.3,0,4.9,0c1.1,0,2-0.3,2-1.7c0-1.4-1-1.6-2.1-1.6c-2.6,0-5.1,0-7.7,0
			c0,0.1,0,0.1,0,0.2C305.2,431.1,302.5,431.1,299.7,431.1z M519.1,601.3c0.4-0.8-0.3-1-0.9-1.3c-0.9-0.5-1.3-1.3-1.2-2.3
			c0-0.2,0.1-0.5,0-0.6c-2.9-2.1-2.9-5.8-4.9-8.4c-0.7-0.9-1.1-1.6-0.9-2.7c0.1-0.7,0.7-1.8-0.8-1.6c-1,0.1-2.4-0.1-2,1.5
			c1.3,6,3.9,11.4,7.5,16.3c0.3,0.4,0.8,0.5,1.2,0.6C518.1,602.6,518.7,602.1,519.1,601.3z M361.8,615.5c1.5-1,0.6-1.9-0.1-2.8
			c-1-1.2-1.5-0.9-2.1,0.4c-0.4,0.8-1.3,1.2-2.4,0.8c-0.9-0.3-1.8-0.2-2.3,0.5c-1.2,1.8-2.3,3.3-4.8,2c-0.7-0.3-1.1,0.7-1.5,1.2
			c-0.5,0.7-1,1.2-2,1.1c-0.8-0.1-2-0.9-1.8,0.9c0.1,1.1,0.4,2.3,1.8,1.9C352.2,620.5,357.2,618.5,361.8,615.5z M578.1,615.5
			c4.3-2.5,8.1-5.6,11.4-9.2c1.1-1.2,0.7-1.9-0.4-2.7c-1.2-0.9-1.5,0.4-2.2,0.6c-3.4,1-3.8,6.1-8,5.7c-0.6-0.1-0.8,0.5-0.9,1
			c-0.4,2-1.9,2.4-3.8,2.5C574.7,616.1,575.9,616.8,578.1,615.5z M333.5,531.2c1,0.5,2,0.5,2.9-0.1c1.2-0.8,2.3-0.5,3.4,0.2
			c1.2,0.7,2.4,1.1,3.7,0.3c0.9-0.5,1.8-0.5,2.5,0.3c0.6,0.7,1.3,1.4,1.7,0.1c0.3-1,1-2.6-0.6-2.9c-5.6-1.1-11.2-2.3-17-1
			c-1.7,0.4-1.5,1.6-1.3,3.4C330.6,530.3,332,530.5,333.5,531.2z M599.6,558.7c-1.7-4-3.6-8-6.1-11.7c-1.7-2.4-2.9-2.5-4.5-0.3
			c4,4.6,5.8,10.2,8.6,15.9C600.1,562.7,600.6,561.1,599.6,558.7z M413.7,611.7c-2.5,1.8-2.5,2.4,0.3,4.2c3.7,2.3,7.7,3.7,11.8,4.9
			c3.1,0.9,3.2,0.9,3.9-2.1C424.1,616.3,418.5,615,413.7,611.7z M378,552.1c-2.4-3.9-5-7.6-8.4-10.9c-1-0.9-1.6-1.3-2.7,0.1
			c-1,1.3-0.8,1.8,0.7,2.2c0.8,0.2,1.2,1,1.3,1.9c0,1.3,0.8,2.1,1.9,2.5c1.4,0.5,2.2,1.4,2.2,2.9c0,1,0.5,1.8,1.4,2.2
			c1.6,0.7,2,1.9,1.4,3.7C379.4,556,379.5,554.6,378,552.1z M390.6,580.6c0.6,5.3,2.6,10.1,4.6,14.9c0.5,1.1,1.1,1.7,2.3,0.9
			c1-0.6,0.7-1.2,0.7-2.3c0-3.8-4.3-6.1-3.3-10.1c0.1-0.4-0.1-1.2-0.5-1.4c-2.1-1.3-1.9-2.9-0.2-4.8
			C391.1,577.2,390.3,578.1,390.6,580.6z M428.2,528.1c-1.2,0.3-2.5,0.6-2,2.4c0.6,2.1,1.8,0.2,2.5,0.4c3.2,1.5,6.2-1.8,9.5-0.2
			c2,0.9,4.4-1.4,6.7,0.1c0.3,0.2,0.7-1.3,0.8-2.1c0.1-0.9-0.6-1.2-1.4-1.2c-1.7,0-3.4-0.7-5.2-0.4
			C435.4,527.7,431.7,527.1,428.2,528.1z M290.1,590.7c0.4,1.2,0.9,2.2,2.6,1.6c2.1-0.8,0.2-1.9,0.4-2.5c1-3.5-3.9-5.9-1.7-9.6
			c0.4-0.7-0.4-1.7-1.1-2.4c-0.6-0.6-0.9-1.3-0.6-2.2c0.2-0.6,1.6-1.1,0.5-1.9c-0.5-0.4-1.4-0.4-2.1-0.3c-1.1,0.2-0.8,1.3-0.8,2
			c-0.1,0.7,0,1.4,0,2.1C287.5,582.1,288.9,586.4,290.1,590.7z M304.8,538.4c-4,3.4-7.6,7.1-10.2,11.7c-0.7,1.2-0.7,1.8,0.6,2.4
			c1.2,0.5,1.7,0.1,1.8-1.1c0.1-1,0.8-1.6,1.7-2c0.5-0.2,1.2-0.5,1.3-0.8c0.7-3.5,4.6-4.3,6-7.1c0.7-1.4,2-1.6,3.3-1.8
			C308.4,536.7,307,536.6,304.8,538.4z M537.2,618.7c4.4,1.8,9,2.6,13.7,3.1c1.2,0.1,2-0.1,2.1-1.5c0.1-1.4-0.3-1.9-1.7-1.4
			c-0.4,0.2-1.1-0.3-1.7-0.5c-0.4-0.2-1-1-1.2-0.9c-3.2,1.5-5.8-1.7-8.7-1.2c-1.9,0.3-2.4-1-3.3-2.1
			C533.9,617.1,534,617.5,537.2,618.7z M407.7,541.4c-1-1.9-2.3-1.9-4-0.1c-3.3,3.5-6.2,7.3-8.5,11.5c-1.4,2.5-0.7,3.5,1.7,3.6
			C399.5,550.5,403.8,546.3,407.7,541.4z M476.9,546.9c-2.6-3.4-5.4-6.6-8.8-9.3c-1.1-0.8-1.9-1.4-3,0.1c-1.2,1.7,0.7,1.5,1,2.2
			c1.3,3.1,5.5,3.6,6.1,7.2c0.1,0.7,0.7,1.3,1.4,1.5c1.7,0.4,2.3,1.5,1.7,3.6C479.4,549.9,479.3,550,476.9,546.9z M299.1,429.1
			c20,0,39.9,0,59.9,0C339,428.6,319,428.2,299.1,429.1z M574.7,534.9c3.3-0.5,3.4,4.6,6.9,4c0.7-0.1,1.4,0.5,1.5,1.3
			c0.1,1.6,1,2.4,2.5,2.5c0.8,0.1,1.4,0.5,1.6,1.2c0.3,1,0.5,2.1,1.9,1c1.3-1,1.3-1.9,0.2-3c-2.4-2.5-4.9-4.9-7.9-6.7
			c-1.5-0.9-2.9-1.9-4.4-2.7c-1.7-0.9-2,0.6-2.7,1.7C574.5,534.4,574.6,534.9,574.7,534.9z M291,567.7c0.8-3.3,2.1-6.4,2.9-9.6
			c0.2-0.8-0.2-1.8,0.8-2.5c1-0.6,1.4-1.2,0.1-1.9c-1-0.5-1.8-1.1-2.5,0.3c-2.5,5.2-4.2,10.7-4.7,16.4c-0.2,2.6,2.1,1,3.2,1.5
			C290.1,570.2,290.7,569.1,291,567.7z M364.5,537c-3.8-2.6-7.8-4.8-12.1-6.4c-1.4-0.5-2.6-0.6-3,1.3c-0.1,0.5-0.3,1.3,0.4,1.1
			c3.2-0.6,4.2,4,7.5,2.9c1.6,2.8,5.6,2.5,7.2,5.7C366.8,540,367.2,538.9,364.5,537z M536.9,529.8c-1.4,0.5-2,1.4-1.3,2.8
			c1,2,1.5-0.4,2.1-0.3c3.3,0.5,5.9-2.4,9.2-1.6c1,0.3,2.1,0.2,2.8-0.7c0.6-0.7,1.3-0.9,2.2-0.8c0.8,0.1,2.1,1.2,2.2-0.8
			c0-1.6-1.2-1.7-2.3-1.7c-0.7,0-1.4,0-2,0C545.2,527.1,541,528.2,536.9,529.8z M446.8,530.1c-0.2,1.5,0.6,1.4,1.7,1.1
			c0.9-0.2,1.6,0.2,2.1,1c0.8,1.2,2,1.4,3.3,1.2c1.4-0.2,2.3,0.2,3.1,1.4c1.4,2,4.7,0.6,5.9,3.1c0.1,0.2,1-0.8,1.4-1.4
			c0.5-0.8,0-1.3-0.6-1.7c-3.2-2.4-6.9-4-10.7-5.2c-1.4-0.4-2.8-0.8-4.2-1.2C447.4,528.2,446.9,528.9,446.8,530.1z M393.4,571.8
			c-0.1-3.5,1.4-6.5,1.7-9.8c0.1-0.9-0.4-1.8,0.4-2.6c0.6-0.6,1.4-1.2,0-1.8c-1-0.4-2.1-0.7-2.6,0.6c-1.8,5.4-3,10.8-2.6,16.5
			c0.1,1.5,0.4,1.5,3.6,1.2C392.7,574.5,393.5,573.1,393.4,571.8z M310.2,534.8c-1.2,0.7-1.3,1.5-0.4,2.4c0.8,0.9,1.4,1,2.1-0.2
			c0.5-0.9,1.3-1.2,2.4-0.9c0.4,0.1,1,0.1,1.2-0.1c1.9-2.9,5.8-1.8,8.1-3.9c0.6-0.6,1.5-0.7,2.3-0.5c1.1,0.3,1.9,0.3,1.6-1.2
			c-0.2-1-0.1-2.5-2.4-1.7C320,529.6,315.1,532.2,310.2,534.8z M556.8,527c-0.9,0.1-1.1,0.8-1.1,1.6c0,0.5,0.2,1.4,0.6,1.2
			c2.7-1.3,4.8,2.5,7.5,0.7c0.2-0.2,1-0.1,1.1,0.2c1.6,2.8,5.3,0.6,7.2,3c0.6,0.8,1.2-0.4,1.5-0.9c0.7-1.1,0.4-1.9-0.8-2.4
			c-4.5-1.7-9-3.2-13.9-3.5C558.2,526.9,557.5,526.9,556.8,527z M510.3,562.7c1.4,0.2,1-0.9,0.9-1.6c-0.1-0.9,0.3-1.6,0.9-2.1
			c0.3-0.3,0.9-0.5,0.9-0.8c-0.3-3.7,3.4-5.6,3.9-8.9c0.1-0.8,0.4-1.3,1.1-1.7c0.8-0.4,1.6-0.8,0.6-1.8c-0.8-0.8-1.6-1.4-2.6-0.2
			c-3.6,4.5-5.9,9.7-7.6,15.1C508.3,562.2,509.3,562.6,510.3,562.7z M421.9,529.9c-4.5,1.9-9,3.7-12.9,6.8c-1.4,1.1-1.9,2.1-0.2,3.4
			c0.3,0.3,1,0.5,1.1,0.1c0.9-3.3,5.6-1.4,6.4-4.8c0.1-0.5,1-0.8,1.6-0.7c1.6,0.4,2.7-0.3,3.7-1.5c0.9-1.2,2.3-0.9,3.6-0.8
			C424.9,530.2,424.2,528.9,421.9,529.9z M528.1,534.3c-3.1,1.7-5.4,4.3-8.1,6.6c-1.1,0.9-2.5,2.3-0.4,3.8c0.4,0.3,1.1,0.8,1.2,0.1
			c0.5-3.5,5.7-2.6,5.8-6.3c3.2,0.4,4.1-3.4,6.8-3.7c0.7-0.1,1.3-0.3,1-1.1c-0.3-0.8-0.5-1.8-1.6-2.1
			C531.2,532.4,529.7,533.4,528.1,534.3z M507.2,580.9c0.1,1.4,0.7,2.5,2.3,2.1c2-0.4,0.1-1.7,0.4-2.2c1.8-3.2-1.2-6.4,0.4-9.6
			c1-1.9-1.5-4.4,0.3-6.6c-0.4-0.2-0.8-0.6-1.3-0.7c-0.8-0.2-1.3,0.3-1.6,1.1c-0.5,1.5-0.6,3-0.6,4.5c0,1.5,0,3.1,0,4.6
			c-0.1,0-0.1,0-0.2,0C506.9,576.5,507,578.7,507.2,580.9z M713.3,603.5c0.7-0.4,0.9-1.1,0.5-1.8c-0.9-1.5-1.5-3.3-3.2-4
			c-1-0.4-1.2,0.9-1.6,1.6c-2.4,3.9-5,7.5-8.1,11.3C705.1,608.2,709.2,605.8,713.3,603.5z M167,532.1c0.8,0.8,1.7,0.6,2.4-0.1
			c1.4-1.2,2.7-2.6,2.5-4.7c-0.2-1.3-1.2-1.5-2.3-1.6c-3.7-0.2-7.5,0-11.3-0.4C161.4,527.4,164.4,529.4,167,532.1z M690.2,526.8
			c-0.1-1.3-1-1.8-2.1-1.8c-4.9,0-9.7,0-14.6,0.3c5.9,1.2,11.5,3.3,17.3,6.1C690.5,529.6,690.3,528.2,690.2,526.8z M322.7,443.9
			c0-0.8-0.1-1.7-1.2-1.8c-1.1-0.1-1.5,0.6-1.5,1.5c0,4.3,0,8.6,0,12.8c0,0.8,0.3,1.4,1.2,1.4c1.1,0.1,1.5-0.6,1.5-1.5
			c0-2.2,0-4.5,0-6.7C322.7,447.8,322.7,445.8,322.7,443.9z M766.4,555c1.6,0.3,3.1,0.9,4.7,1.3c1.1,0.3,2.4,1.5,3.3,0.1
			c0.8-1.4,1.3-3.2,0.6-4.7c-0.6-1.4-1.4-1.4-2.4,0c-1.4,2.1-3.2,3.6-5.9,2.2c-2-1.1-3.1-2.6-2.2-5c0.3-0.7,1.3-1.3,0.5-2.2
			c-0.3-0.4-0.9-0.4-1.4-0.1c-1,0.5-1.1,1.4-0.9,2.4c0.1,0.3,0.1,0.6,0.1,0.9C762.1,552.9,763.5,554.4,766.4,555z M272,455.7
			c0,0.8,0.1,1.7,1.2,1.8c1,0,1.4-0.7,1.4-1.6c0-4.1,0-8.1,0-12.2c0-0.9-0.3-1.7-1.4-1.6c-1.1,0-1.3,0.9-1.3,1.7c0,1.9,0,3.9,0,5.8
			c0,0,0,0,0,0C272,451.6,272,453.7,272,455.7z M202.8,444.7c0-1-0.1-1.9-1.4-2c-1.3,0-1.4,1-1.3,1.9c0.2,3.9,0.4,7.7,0,11.6
			c-0.1,1.3,0.3,2.3,1.8,2.2c1.5-0.1,1.2-1.4,1.2-2.4c-0.1-1.8-0.2-3.7-0.3-5.5c0,0,0,0,0.1,0C202.8,448.6,202.8,446.6,202.8,444.7z
			 M416.5,622c1.9,0,3.9,0,5.9-0.2c-4.3-1.8-8.5-3.9-12.8-6.7C410.2,622,410.2,622,416.5,622z M603.7,573.2c0.1,2,1,2.3,2.6,1.3
			c3.1-1.9,3.3-6.3,0.3-8.6c-0.8-0.6-1.6-1-2.5-0.6c-1.1,0.5-0.8,1.5-0.8,1.9C603.4,569.5,603.6,571.3,603.7,573.2z M351,611.9
			c17.9-6.2,27.6-27.1,24-42.8C376.5,588.6,368.7,602.9,351,611.9z M675.4,466.1c0-6.6,0-13.3,0-19.9c0-0.7,0.3-1.8-0.6-1.8
			c-1.3-0.1-0.9,1.1-0.9,1.8c0,6.8,0,13.7,0,20.5c0,0.6-0.1,1.3,0.7,1.5C675.6,467.8,675.4,466.8,675.4,466.1z M742.2,514
			c0.2,0.1,0.3,0.3,0.5,0.3c1.2,0.5,1.8,3.2,3.2,1.5c0.9-1.1-1.3-1.9-2.2-2.7c-4.2-3.6-8.6-7-12.8-10.5c-1.1-0.9-2.2-1.8-4.2-1.2
			C732.1,505.7,737.1,509.9,742.2,514z M528.8,616.4c-1.1-0.8-1.8-0.6-1.8,1c0,4.2,0.5,4.6,4.8,4.6c2.7,0,5.5,0,8.2,0
			C536.2,620.2,532.3,618.8,528.8,616.4z M490.8,567c-0.9-0.9-2-1.8-3.2-1.1c-1.1,0.5-0.6,1.8-0.5,2.8c0.1,1.4,0.2,2.9,0.3,4.3
			c0.1,0.9-0.3,2.1,0.9,2.4c1,0.3,2-0.4,2.7-1.1c1-1,1.1-2.4,1.4-3.6C492.3,569.2,491.8,568,490.8,567z M664.8,475.9
			c0,0.8,0.6,1.3,1.4,1.3c0.8,0.1,1.7,0.2,2.2-0.6c0.8-1,0.5-7.1-0.5-7.9c-0.7-0.6-1.5-1.6-2.6-1.1c-0.9,0.4-0.6,1.4-0.6,2.2
			c0,0.8,0,1.6,0,2.4c0,0,0.1,0,0.1,0C664.8,473.5,664.7,474.7,664.8,475.9z M391.2,455.4c0,0.8,0.1,1.5,1,1.5
			c0.9,0.1,1.2-0.6,1.3-1.3c0.4-4.3,0.1-8.5,0-12.8c0-0.8-0.4-1.4-1.3-1.4c-1,0-1.1,0.7-1.1,1.5c0,2.2,0,4.5,0,6.7c0,0,0.1,0,0.1,0
			C391.2,451.5,391.2,453.5,391.2,455.4z M254.8,532.6c0.7,0.4,1.6,1.2,2.2,0.6c1-0.9,0.4-2.3,0.4-3.5c0-1.1-0.8-1.6-1.8-1.6
			c-3.5,0-6.9,0-10.4,0c-0.1,0-0.2,0-0.3,0.1c0,0,0,0.2,0.1,0.3C248.3,529.8,251.7,530.9,254.8,532.6z M580.9,372.3
			c-1.3,0.2-3.6-0.3-3.4,1.4c0.2,1.1,1.7,3.2,4.1,2.8c1.1-0.2,2.2,0,3.3-0.2c1.5-0.2,2.5-1.4,2.5-2.6c0-1.3-1.5-1.4-2.6-1.5
			c-0.8-0.1-1.6,0.1-2.4,0.1C581.9,372.3,581.4,372.3,580.9,372.3z M273.7,482.6c-2.8,0-2.3,2.1-2.2,3.7c0.1,1.5-0.9,3.8,2,3.9
			c3,0.1,2.4-2.1,2.5-3.9C275.8,484.8,276.5,482.7,273.7,482.6z M393,489.6c2.6,0,2.4-1.8,2.3-3.4c-0.1-1.6,1-4-2-4.3
			c-3.1-0.3-2.2,2.2-2.5,4C391.2,487.3,390.1,489.6,393,489.6z M665.7,442.1c-0.2,0.3,0,0.6,0.3,0.7c0.2,0,0.5-0.1,0.5-0.2
			c0-0.3-0.1-0.5-0.2-0.8C666,441.9,665.7,441.9,665.7,442.1z"/>
		<path d="M642.5,445.8c0.7,1.7-0.6,2.8-2.3,3.3c-0.2,0.1-0.3,0.7-0.5,1c-1,1.7-3.2,1.8-4,0.1c-0.8-1.6-1.9-1.6-3.2-1.6
			c-11.5,0-23,0-34.5,0c-17.8,0.2-35.7-0.3-53.5,0.4c-1.4,0.1-2.4,0-3.2,1.6c-0.8,1.7-2.5,1.4-3.5,0c-0.9-1.4-2.1-1.5-3.4-1.5
			c-27.8,0.1-55.6,0.1-83.4,0.2c-0.7,0-1.9-0.2-2.1,0.2c-2.2,4.1-4,3-6.3,0c-0.6-0.8-1.3-1.2-1.3-2.3c0-1.3,0.8-1.5,1.8-2.1
			c3-1.8,5.8,0.1,8.6,0.2c31.9,0.2,63.9-0.6,95.8-0.6c10,0,20.1-0.1,30.1-0.1c10,0,20.1,0.1,30.1-0.1c10-0.2,20,1,30.7-0.9
			C639.4,444.3,641.7,444,642.5,445.8z M634.5,447c0-0.3,0-0.5,0-0.8c-30.6,0.2-61.1-0.2-91.6,0.8C573.5,447,604,447,634.5,447z
			 M448.6,447.1c0,0.3,0,0.5,0,0.8c29.3,0,58.6-0.1,88.1-0.8C507.3,447.1,478,447.1,448.6,447.1z"/>
		<path d="M584.6,410.1c3.3-1.2,7-0.1,9.3,2.9c1.7,2.3,2.3,4.9,1.6,7.8c-0.6,2.6-2.4,2.6-4.4,2.6c-0.5,0-1.1,0.4-1.6,0.8
			c-1.4,0.9-2.7,0.8-4.1,0.1c-0.7-0.4-1.5-0.8-2.2-0.9c-3.6-0.3-4.3-1.1-4.3-4.8C578.8,414.4,580.9,411.3,584.6,410.1z M587.6,412.7
			c3.6,0.1,5.2,2.7,5.4,8.6c1.9-2.8,1.5-5.7-1.4-8.2c-2.7-2.4-6.2-2.5-8.9-0.1c-2.7,2.4-3.1,5.8-1.1,8.6
			C581.9,415.3,583.7,412.6,587.6,412.7z"/>
		<path d="M734,491.6c-1.6-2-3.1-4-2.9-6.9c0.3-2.9,2.2-4.6,4.8-6.5c-9.4-0.2-18.2,0.2-27-0.8c32.8-0.9,65.6-1.7,98.4-0.9
			c-22.9,1-45.9,1.2-69.3,1.2c1.2,0.4,1.9,0.5,2.6,0.8c4,1.6,6,5.2,4.9,8.8c-1.2,3.9-4.7,5.8-9,4.9c-0.8-0.2-1.6-0.4-2.4-0.5
			C734.2,491.7,734,491.6,734,491.6z M744.4,485.7c0-2.9-2.8-6.1-5.4-6c-3.2,0.1-6.3,2.7-6.4,5.5c-0.1,3.2,2.5,5.7,5.8,5.8
			C741.6,491,744.3,488.6,744.4,485.7z"/>
		<path d="M778.9,485.7c-0.1-4,3.3-7.6,7.2-7.7c4-0.1,7.4,3,7.6,6.9c0.1,3.9-3.3,7.4-7.3,7.5C782.4,492.4,779,489.4,778.9,485.7z
			 M792.1,485.2c0-3-2.7-5.6-5.7-5.7c-3.2-0.1-5.9,2.6-5.9,5.8c-0.1,3.1,2.5,5.5,6,5.6C789.4,490.9,792.1,488.1,792.1,485.2z"/>
		<path d="M336,602c-16.5,0.1-27.6-12.3-27.8-27.2c-0.2-14.8,12.3-26.7,27.3-26.7c15.2,0,27.6,12,27.6,26.7
			C362.9,588.5,352.9,602,336,602z M337.4,600.6c1.1,0,2.1,0.1,1.4-1.6c-0.6-1.6,0.3-2.6,1.8-3c1.4-0.4,2.4,0.3,2.8,1.7
			c0.4,1.9,1.6,1.7,2.8,1c1.7-0.9,3.5-1.8,5-3c1.4-1,3.7-2,1-4.3c-0.8-0.6-0.6-2,0.2-2.8c0.8-0.8,2-1.5,3-0.6c1.6,1.4,2.3,0.5,3-0.8
			c0.9-1.7,1.8-3.5,2.4-5.3c0.4-1.3,1.2-3-1.6-3c-1.2,0-1.8-1.1-1.7-2.2c0.1-1.2,0.7-2.3,2.1-2.2c2.1,0.2,2-1.1,2-2.5
			c-0.1-2.2-0.9-4.2-1.6-6.2c-0.4-1.2-1.1-1.4-2.1-0.8c-1.3,0.7-2.4,0.4-3.2-0.8c-0.8-1.4-0.5-2.5,0.8-3.4c1.1-0.7,0.7-1.5,0-2.3
			c-1.7-2-3.7-3.5-5.8-5c-1-0.7-1.8-0.7-2.6,0.4c-0.8,1.1-2,1.5-3.2,0.9c-1.1-0.5-1.6-1.6-1.2-2.8c0-0.1,0.1-0.2,0.1-0.3
			c-1.1-3.1-3.9-2-5.9-2c-1.3,0-4.1-2-4.2,1.6c-0.1,1.3-0.7,2.2-1.9,2.5c-1.2,0.3-2.3-0.1-2.8-1.3c-0.6-1.6-1.6-1.6-2.9-0.9
			c-1.5,0.8-3.1,1.5-4.6,2.4c-1.6,1-3.3,1.9-1.2,4.1c0.7,0.8,0.5,2-0.4,2.8c-0.9,0.8-1.9,1.3-3,0.3c-1.4-1.2-2.2-0.4-2.8,0.9
			c-0.7,1.4-1.5,2.7-1.9,4.2c-0.5,1.7-2,3.7,1.4,4.4c0.9,0.2,1.5,1.5,1.3,2.5c-0.2,1.2-1.1,2-2.4,1.9c-1.3-0.1-1.8,0.3-1.5,1.8
			c0.3,1.7,0,3.5,0.7,5.2c0.7,1.8,0.9,4,3.9,2.7c1-0.4,2,0.4,2.5,1.3c0.6,1,0.3,2.2-0.7,2.7c-1.8,1-1.2,2-0.2,3.1
			c1.4,1.4,2.8,2.7,4.2,4c1.3,1.2,2.6,2,3.9-0.2c0.6-1,1.9-1.2,3-0.6c1,0.5,1.5,1.6,1,2.6c-1,2,0.1,2.2,1.7,2.5
			c1.7,0.3,3.4,0.6,4.8,0.5C335.9,600.6,336.6,600.5,337.4,600.6z"/>
		<path d="M435.8,547.6c14.9-1.3,28.3,10,29.4,24.7c1.1,14.5-10.3,27.9-24.5,29.1c-15.4,1.3-29.7-11-29.6-26.4
			C410,562.4,420.3,548.9,435.8,547.6z M456.7,592c0.9-0.9,1.1-1.6-0.1-2.4c-1.2-0.8-1.7-1.8-0.9-3.1c0.8-1.3,2.1-1.6,3.5-0.8
			c1.4,0.9,2,0.2,2.4-1c0.6-1.5,1.2-3.1,1.6-4.6c0.4-1.8,1.7-4.1-2-4.1c-1.1,0-1.6-1.2-1.6-2.3c0-1.3,0.8-2.3,2-2.3
			c2.5,0,2-1.4,1.5-2.8c-0.4-1.5-0.8-3-1.4-4.4c-0.6-1.5-1.2-2.9-3.3-1.6c-1.1,0.6-2.2,0.4-2.9-0.8c-0.7-1.2-0.8-2.4,0.6-3.2
			c1.3-0.7,0.9-1.3,0.2-2.1c-2.1-2.3-4.7-3.9-7.5-5.2c-1.1-0.5-1.2,0.1-1.5,0.9c-0.4,1.3-1.2,2.2-2.7,1.8c-1.3-0.4-2.1-1.2-1.8-2.7
			c0.3-1.8-0.8-2.1-2.2-2.1c-1.7,0-3.5,0-5.2,0.1c-1.7,0.1-3.7-0.1-2.7,2.8c0.3,1.1-0.6,2-1.7,2.2c-1.1,0.2-2.5,0.2-2.8-1.2
			c-0.5-1.7-1.3-1.6-2.4-0.8c-1.4,1-2.9,1.9-4.3,2.9c-1.6,1.2-3.2,2.5-0.9,4.6c0.8,0.7,0.6,1.7,0,2.6c-0.7,0.9-1.8,1.4-2.7,0.9
			c-2.1-1.3-2.7,0.1-3.3,1.6c-0.6,1.5-1,3.1-1.5,4.7c-0.4,1.5-1.2,3.2,1.7,3.2c1,0,1.8,1,1.8,2.2c0,1.1-0.6,2.2-1.6,2.4
			c-2.6,0.5-2,2.1-1.6,3.7c0.3,1.3,0.8,2.6,1.4,3.7c0.7,1.4,1.3,3.4,3.7,1.8c1-0.6,2,0,2.6,1c0.6,1,0.9,2.2-0.3,3
			c-1.9,1.2-0.8,2.2,0.2,3c1.2,1.1,2.5,2.1,3.9,3c1.6,1,3.3,2.5,4.6-0.5c0.4-0.9,1.6-0.9,2.5-0.6c1,0.3,1.5,1.1,1.4,2.1
			c-0.2,2.3,1.2,2.8,3.1,2.7c1.7-0.1,3.5,0,5.2-0.1c1.1,0,2.1-0.4,2-1.8c-0.1-1.7,0.2-3.2,2.2-3.4c2.2-0.3,2.5,1.6,3,3.1
			C452,596.5,454.5,594.4,456.7,592z"/>
		<path d="M554.3,547.1c15.7,0.3,27.3,11.8,27,26.8c-0.3,15.9-11.5,26.8-26.8,27.3c-14.8,0.4-27.4-12.5-27.4-27.1
			C527.1,559,539.2,546.7,554.3,547.1z M531.3,575.8c0.9-0.2,1.5,0.9,1.7,1.9c0.2,1.3-0.2,2.5-1.4,2.7c-2.4,0.5-1.8,1.7-1.1,3.1
			c0.8,1.5,1.6,3.1,2.5,4.6c0.8,1.4,1.7,3,3.5,0.9c0.8-0.8,2-0.6,2.7,0.3c0.7,0.9,1.7,2.3,0.3,3.3c-1.9,1.5-0.7,2.2,0.5,2.9
			c1.6,1,3.3,2.1,5.2,2.6c1.6,0.4,3.3,1.8,3.7-1.4c0.1-1.1,1.6-1.6,2.8-1.3c1.1,0.3,2.2,1.2,1.8,2.5c-0.6,2.2,0.6,2.2,2.1,2
			c1.9-0.3,3.8-0.7,5.7-1c1.8-0.3,3.3-0.7,2-3.1c-0.6-1.1,0.2-2.3,1.3-2.8c1.1-0.5,2.3-0.5,3,0.6c1.1,1.7,2.2,1.1,3.2,0.1
			c1.2-1.2,2.5-2.5,3.6-3.8c1.1-1.4,2.3-2.7-0.1-4.2c-0.9-0.5-0.8-1.8-0.3-2.8c0.6-1,1.6-1.5,2.6-1c2,0.9,2.3-0.4,2.6-1.7
			c0.3-2,0.6-4.1,0.7-6.1c0-1.1-0.2-2.3-1.9-1.9c-1.4,0.3-2.1-0.7-2.4-1.8c-0.3-1.3,0.1-2.6,1.4-3c2-0.6,1.7-1.8,1.1-3
			c-0.7-1.5-1.6-2.9-2.4-4.3c-0.8-1.3-1.5-2.9-3.3-0.8c-0.7,0.9-2,0.4-2.8-0.3c-0.9-0.8-1-1.9-0.3-2.8c1.6-1.8,0.6-2.6-1.1-3.3
			c-1.8-0.8-3.5-1.8-5.2-2.6c-1.6-0.7-3.3-1.5-3.7,1.4c-0.1,1-1.2,1.3-2.2,1.1c-1.1-0.2-2.2-0.7-2.1-1.9c0.2-2.6-1.5-2.3-3-2.1
			c-1.6,0.2-3.2,0.6-4.8,1c-1.4,0.4-3.5,0.3-1.9,2.9c0.6,1-0.4,2-1.3,2.5c-1,0.6-2.2,0.4-2.8-0.5c-1.2-2.1-2.2-1.1-3.3-0.1
			c-1.2,1.1-2.4,2.3-3.5,3.5c-1.2,1.3-2.7,2.6-0.2,4.3c0.8,0.5,0.9,1.9,0.3,2.8c-0.5,0.8-1.4,1.4-2.4,1c-2.4-1-2.8,0.3-3,2.2
			c-0.1,1.5-0.8,3-0.6,4.5C528.6,574.5,528.2,576.5,531.3,575.8z"/>
		<path d="M706.9,591.7c-2.1,2.2-1.6,6.2-5,7.8c-0.1,0,0.2,0.7,0,0.9c-1.9,2.3-3.4,5.7-5.8,6.7c-3.2,1.3-4.7,4.9-8.3,5.3
			c-0.1,0-0.2,0.4-0.3,0.5c-2.1,2.9-6.1,2-8.5,4.3c-0.1,0.1-0.8-0.3-1.1-0.3c-0.7,0-1.6-0.1-2.1,0.3c-1.6,1.6-3.4,0.9-5.2,1.2
			c-2.6,0.3-5.1,1.1-7.7-0.1c-0.3-0.1-0.9,0.3-1.4,0.6c-0.6,0.3-1.3,0.5-1.7,0c-1.6-1.5-3.4-1.6-5.4-0.9c-0.8,0.3-1.6-0.3-2.1-1
			c-0.9-1.2-2.1-1.6-3.5-1.4c-0.9,0.1-1.7,0.1-2.2-0.8c-0.9-1.6-2.3-2.2-4.1-2.2c-1,0-1.7-0.7-2.1-1.6c-0.4-1.1-1.2-1.7-2.2-1.9
			c-1.6-0.3-2.5-1.2-3.1-2.6c-0.5-1.1-1.4-2.1-2.7-2.4c-0.9-0.2-1.7-0.7-1.7-1.6c-0.1-2-1.1-3.2-2.9-3.8c-0.5-0.2-1.2-1-1.1-1.3
			c0.5-2.3-0.4-3.9-2.3-5.2c-0.6-0.4-0.6-1.3-0.6-2c0-3.5-2.6-6.5-2.2-10.1c0-0.2-0.2-0.3-0.3-0.5c-1.3-2.9,1.2-6.1-0.6-9.1
			c0-0.1,0.2-0.3,0.3-0.5c1.1-1.2,1.1-2.6,0.6-4c-0.3-1-0.3-1.9,0.4-2.6c1.4-1.2,1.9-2.6,1.4-4.4c-0.2-0.7,0.2-1.5,0.8-1.9
			c1.4-1.1,2.1-2.4,2.1-4.2c0-0.9,0.4-1.7,1.2-1.9c1.6-0.5,2.2-1.7,2.4-3.2c0.2-1.2,0.8-2.1,2.1-2.4c1-0.3,1.4-1,1.8-1.9
			c1.5-2.9,5.5-3.2,6.9-6.3c0.1-0.1,0.4-0.1,0.6-0.1c3.3,0,4.9-4.1,8.5-3.4c0.2,0,0.4-0.4,0.6-0.7c0.8-1.1,2-1.3,3.3-1.1
			c3.3,0.5,6.3-2.5,9.8-1c0.5,0.2,1.6-1.6,2.3-1c2.7,2.2,6-0.3,9.1,1.7c1.8,1.2,5.1,0.2,7.1,2.4c0.1,0.2,0.6,0.1,0.9,0
			c1.6-0.5,2.8,0,3.5,1.6c0.4,1,1.3,1.2,2.3,1.1c1-0.1,1.9,0.2,2.4,1.1c1,1.8,2.6,2.2,4.3,3c2.6,1.2,4.4,4,5.7,6.2
			c1.6,2.7,4.8,4.7,4.6,8.4c0,0.2,0.9,0.4,1.3,0.8c0.4,0.4,1.1,1.1,0.9,1.4c-0.9,2-0.3,3.5,1.4,4.7c0.6,0.4,0.5,1.3,0.3,2
			c-0.8,3.7,1.9,7,1,10.9c-0.3,1.2,0.5,2.7-0.8,4c-0.4,0.4-0.8,1.6-0.6,1.9c1.8,2.1,0.3,3.5-0.9,5c-0.5,0.6-0.7,1.5-0.4,2.3
			C708.6,589.7,707.9,590.6,706.9,591.7z M665.1,537.9c-20.2,0.6-36.8,16.7-36.4,36.8c0.4,19.8,15.8,36.1,36.8,36.1
			c21.5,0,37.2-16.7,37.7-36.8C703.2,554.3,685.6,537.3,665.1,537.9z"/>
		<path d="M276.7,572.4c-1.6,0.4-1.9,1.4-1,2.8c0.7,1.1,0.7,2,0.1,3.2c-1.5,2.7-0.1,6.2-2.4,8.8c-0.1,0.1,0.2,0.6,0.2,0.9
			c0.2,3.4-3.1,5.5-3.1,8.9c0,0.1-0.3,0.2-0.5,0.3c-2.9,2.3-3.3,6.6-6.7,8.4c-0.1,0,0,0.2,0,0.3c-1.6,3.2-4.8,5-7.4,6.3
			c-3,1.5-5.1,4.7-9,4.8c-1,0-2.3,1.4-4.2,1.2c-2.6-0.3-4.9,2.8-7.9,0.9c-1.6,2.5-3.4,1.5-5.3,0.4c-0.5-0.3-1.3-0.3-1.8-0.1
			c-1.5,0.8-2.8,0.8-4.2-0.4c-0.6-0.5-1.6-0.4-2.4-0.2c-3.5,0.8-5.9-2.8-9.4-2.4c-0.2,0-0.4-0.4-0.6-0.7c-2.3-2.1-6.2-2.1-7.6-5.5
			c-0.1-0.1-0.6-0.1-0.9-0.2c-3-0.9-3.5-4.7-6.5-5.5c0,0,0-0.2-0.1-0.3c-1.3-3.6-4.7-6-5.6-9.9c-0.1-0.6-1.2-1.1-1.2-2
			c0.1-3.3-3.1-5.9-2.1-9.4c0.1-0.2-0.2-0.6-0.4-0.8c-1.1-1.1-1-2.3-0.5-3.7c0.3-0.6,0.4-1.7,0.1-2.1c-1.5-1.8-0.3-3.4-0.2-5.1
			c0.1-2.9,0.1-5.5,2.1-7.8c0.2-0.2-0.2-0.8-0.2-1.1c0.6-3.2,2.2-6,3.6-8.9c0.6-1.2,2.3-2.1,2.5-3.9c0.1-0.9,0.6-1.5,1.4-1.9
			c3.1-1.2,3.5-5.6,7.2-6.1c0.2,0,0.4-0.5,0.4-0.8c0.4-1.4,1.4-1.9,2.8-2c1.2-0.1,2-0.9,2.8-1.7c2.3-2.4,6.3-1.4,8.4-4.2
			c0.1-0.1,0.6,0.1,0.9,0.2c1.4,0.5,2.6,0.1,3.7-0.8c0.9-0.8,1.8-0.9,2.9-0.5c1.3,0.5,2.4,0.4,3.5-0.5c0.8-0.6,1.6-0.6,2.6-0.2
			c3.2,1.4,7-0.3,10.2,1.7c0.1,0.1,0.4-0.1,0.6-0.2c1-0.5,1.7,0.1,2.5,0.6c2.7,2.1,6.8,1.5,9.1,4.5c0.1,0.1,0.4,0,0.6,0
			c3.2,0.9,5.2,3.8,7.9,5.4c0.9,0.6,2.1,1.9,2.9,2.9c1.7,2.1,2.4,4.9,5.2,6.2c0.1,0.1,0.2,0.4,0.1,0.6c-0.5,2.1,0.6,3.3,2.2,4.3
			c0.6,0.4,0.9,1.1,0.8,1.9c-0.1,3,2.7,5.4,1.6,8.6c-0.1,0.3,0.4,1,0.8,1.2c1.1,0.8,1.2,2.1,1.6,3.2
			C276.8,572.2,276.7,572.4,276.7,572.4z M230,539.2c-19.9,0.3-36.6,15.7-36.3,36.2c0.3,19.7,17.1,36.7,36.7,36.8
			c22.2,0.1,37.6-17.5,36.9-36.8C268.2,557.1,252.2,538.9,230,539.2z"/>
		<path d="M174.4,558.4c-0.5,14.6-13.3,30.7-33.6,31c-16.3,0.2-31.9-14.3-32.4-30.5c-0.5-19.4,12.9-33.7,32-34.3
			C156.4,523.8,175.1,536.9,174.4,558.4z M143.8,587.6c2.4,0.1,3.7-0.6,3-3.4c-0.4-1.6-0.4-3.3,0.6-4.7c0.5-0.7,0.7-1.5,0.3-2.3
			c-0.6-1.1-0.2-3.5-2.2-2.9c-2,0.6-0.1,2.1,0.1,3c0.7,3.2-0.8,6.8-3.6,8.4c-3.3,1.9-7.6,1.2-10.1-1.5c-2.3-2.5-2.5-6.4-0.8-9.4
			c0.5-0.8,2.8-1.5,1.1-2.7c-1.6-1.1-2.3,1-3.2,2c-0.6,0.7-0.6,1.5-0.5,2.3c0.3,2,0.1,3.8-1.4,5.4c-1.2,1.3-0.7,2.2,0.9,3
			c4.3,2,8.7,2.9,13.4,2.9C142.2,587.6,143,587.6,143.8,587.6z M123.1,556.3c0.1-1.3-1.4-0.9-2.1-1.2c-0.8-0.3-1.8-0.7-2.3-0.1
			c-1.9,1.9-4.2,2.3-6.7,2.2c-1.3-0.1-1.8,0.8-1.7,2c0.7,6.1,2.7,11.7,6.5,16.6c0.7,0.9,1.2,0.9,1.9,0c1.5-1.9,3.4-3,5.8-2.8
			c0.8,0.1,1.4-0.3,1.8-0.9c0.7-1,2.8-1.8,1.5-3.1c-0.9-1-1.7,0.9-2.5,1.5c-3,2.4-6.8,2.7-9.7,0.6c-2.7-1.8-3.9-5.6-2.9-8.7
			c1.2-3.7,3.9-5.5,8.3-5.5C121.6,556.7,122.9,557.8,123.1,556.3z M141.2,561.1c3.1,0,5.1-2,5-5c-0.1-2.5-2.3-4.5-4.9-4.5
			c-2.8,0-4.8,2.1-4.7,4.9C136.5,559.4,138.4,561.2,141.2,561.1z M159.8,575.7c2.6-0.2,4.8-2.7,4.6-5.2c-0.2-2.6-2.3-4.3-5.1-4.2
			c-2.8,0.1-4.7,2.2-4.6,5C154.9,573.8,157.3,575.9,159.8,575.7z M163.5,553c2.3-0.1,4.6-2.2,4.7-4.4c0.1-2.6-2.5-5-5.1-5
			c-2.6,0.1-4.4,2.1-4.4,4.8C158.6,551.3,160.5,553.1,163.5,553z M127.2,543.3c-0.2-4.3-1.2-5.8-3.8-5.8c-2.8,0-4.7,2.4-4.7,5.4
			c0.1,2.9,1.7,3.4,4.6,2.8C124.3,545.1,127.4,547.1,127.2,543.3z M144.6,537.4c1.3-0.1,4.9-3.3,4.9-4.2c-0.1-2.1-2.4-3.9-4.8-3.9
			c-2.1,0-3.4,1-4,2.6C140.8,533.7,143.7,537.5,144.6,537.4z M119.4,569.1c2.1-0.1,2.7-1.9,3.4-3.5c0.3-0.7-4.6-4.3-5.8-4.3
			c-1,0-1.8,1.4-1.8,3.1C115.2,567,117.2,569.2,119.4,569.1z M114.1,541.6c-2.1,4.1-2.1,4.1,1.9,6.3c0.9,0.5,1.6,1.2,2.1,2.2
			c0.7,1.2,1.7,1.8,3,1.7c1.1-0.1,2.9,0.8,3.1-0.8c0.2-1.6-1.7-0.9-2.6-1.2c-4.9-1.6-6.4-4.4-5.4-11.8
			C115.2,539.7,114.6,540.6,114.1,541.6z M140.3,581.4c-0.5-1.8-0.4-4.8-3.2-4.8c-1.6,0-4,0.6-4.1,3.2c-0.1,2,2.4,4.1,4.8,4
			C139,583.5,140.8,583.2,140.3,581.4z M137.2,526.4c-1.3,0-1.8,0.7-1.5,2c0.4,2,0.4,4-0.6,6c-0.8,1.5,0.2,2.7,0.8,4
			c0.4,0.9,1,1.3,1.9,0.9c0.9-0.4,0.5-1.1,0.3-1.8c-1.6-5.7-0.3-8.6,5.3-11.1C141.1,525.8,139.1,526.4,137.2,526.4z M151.8,573.1
			c-0.4-0.5-0.6-1.1-1.4-0.8c-0.7,0.3-0.7,0.9-0.5,1.5c0.4,1.5,0.8,3.1,2.5,3.6c2.1,0.6,3.4,1.9,4.1,3.8c0.7,1.6,1.5,2,3,0.8
			c1.6-1.2,3.1-2.3,4.6-4.3C157.7,579.5,155.6,578.7,151.8,573.1z M169.5,570.4c1.9-3.7,1.9-3.7-1.7-5.3c-1-0.5-2.1-0.9-2.6-2
			c-1.1-2.3-3.3-1.7-5.1-2.1c-0.5-0.1-1,0.3-1.1,0.8c-0.1,0.8,0.5,0.9,1.1,1.1c6.5,2.2,7.6,3.7,7.5,10.2
			C168.7,572.5,169,571.4,169.5,570.4z M167.6,540.1c-2.3-3.3-2.3-3.3-5.5-1c-0.9,0.6-1.8,1.1-2.9,0.9c-2.6-0.5-3.3,1.6-4.5,3
			c-0.5,0.6-0.3,1.4,0.3,1.9c0.7,0.7,1-0.2,1.4-0.6c4.6-4.5,7-4.8,13.1-1.2C168.6,541.6,168.2,540.8,167.6,540.1z M165.3,557.5
			c1.7-1.1,3.3-2.1,5.3-1.9c1.5,0.1,2-0.9,1.9-2.2c-0.2-1.9-0.7-3.8-1.1-5.6c-0.9,6.8-4.5,9.2-11.9,7.9
			C160.2,558,163.2,559,165.3,557.5z M130.9,539.6c0.3,0.6,0.5,1.6,1.4,1.3c1.2-0.4,0.5-1.4,0.3-2.1c-0.5-1.5-1-2.9-2.9-3.2
			c-1.6-0.3-2.8-1.3-3.3-2.9c-0.8-2.2-1.9-2.3-3.6-0.8c-1.1,1-2.3,2-3.5,2.9C125,533.5,127.9,534.6,130.9,539.6z M150.6,539.7
			c-0.4,0.5-1,0.9-0.3,1.5c0.4,0.4,1,0.7,1.4,0.3c1.1-1.3,3.1-2.2,2.5-4.4c-0.5-1.8-0.3-3.6,0.8-5c1.7-2,0.8-2.8-1.1-3.4
			c-1.1-0.3-2.3-0.7-3.7-1.2C154,532.4,154.1,534.9,150.6,539.7z"/>
		<path d="M738.6,490c2.6-0.2,4.3-1.9,4.2-4.2c-0.2-2.4-2.4-4.3-4.8-4.1c-2.4,0.2-4.1,2.2-4,4.6C734.1,488.6,736.1,490.2,738.6,490z
			"/>
		<path d="M786.2,490c2.3,0,4.4-2.2,4.4-4.3c-0.1-2.3-2-4.1-4.5-4c-2.4,0-4.4,2-4.4,4.2C781.8,488.1,783.9,490,786.2,490z"/>
		<path d="M352.9,577.1c1.4,0.7,1.9,2,1.5,3.3c-0.4,1.4-1.8,2.7-3,1.8c-2.9-2.1-3.9-0.1-5.2,1.8c-0.8,1.2-2,2.1-3.3,2.7
			c-1.7,0.7-2.1,1.3-1,3c1.1,1.8-0.1,3.2-1.7,3.9c-1.5,0.6-3.5-0.2-3.4-1.6c0.3-3.7-2.3-2.9-4.2-3.3c-1.2-0.3-2.4-0.3-3.5-1.1
			c-1.4-1-2.6-1.7-4.1,0.3c-1,1.4-2.9,1-4.1-0.2c-0.9-0.9-1.4-2.4-0.1-3.2c2.4-1.5,1.7-3,0.8-4.9c-0.6-1.4-0.8-3-0.8-4.5
			c0-1.6-0.5-2.5-2.2-2.6c-1.7-0.2-2.3-1.4-2-2.9c0.3-1.6,1.4-2.9,3-2.3c2.5,1,3.6-0.2,4.9-2c1-1.3,2.3-2.3,3.8-3
			c1-0.4,2-0.7,0.9-2.3c-1.3-1.8-0.3-3.4,1.7-4c1.8-0.6,3.3,0.4,3.4,2c0.1,2.3,1.5,2.6,3.1,2.8c1.9,0.2,3.6,0.9,5.2,1.8
			c1.2,0.8,2,1,2.9-0.6c0.6-1,1.6-2,3.1-1.3c1.1,0.5,1.9,1.1,2,2.4c0.1,1.4-0.7,2.4-1.9,2.8c-1,0.4-1.7,0.7-0.9,1.9
			c1.8,2.7,1.9,5.8,1.8,9.1C351,576.8,351.9,576.5,352.9,577.1z M334.9,583c5.2,0.1,8.9-3.4,9.1-8.3c0.1-4.4-3.8-8.3-8.5-8.4
			c-4.7-0.1-8.7,3.7-8.7,8.4C326.7,579,330.6,582.9,334.9,583z M326.1,578.1c-0.8-1.6-1.1-3.5-0.7-5.3c0.3-1.2-0.4-1.8-1.3-2
			c-1.3-0.3-1.2,0.9-1.4,1.5c-0.9,3.8,0.1,7.2,2.6,10.4C326.9,581.1,326.9,579.7,326.1,578.1z M338,587c0.7-0.2,1.8,0,1.7-0.9
			c0-0.9-0.9-1.9-1.8-1.8c-2.5,0.4-4.8-0.3-7.2-0.9c-1.2-0.3-1.5,1.2-3.3,1.4C331.3,587.1,334.5,587.9,338,587z"/>
		<path d="M446.6,585.3c-1.4,1-1.9,1.6-0.8,3.3c1,1.6,0.3,3.4-1.6,3.9c-1.9,0.5-3.1-0.6-3.4-2.6c-0.1-0.6,0-1.1,0-1.8
			c-2.7,0.6-5.4,0.3-7.9-0.7c-1.6-0.6-2.6-0.7-3.5,0.9c-0.8,1.3-2.2,1.3-3.5,0.6c-1.4-0.8-1.9-2.2-1-3.4c1.5-2,1-3.7-0.1-5.6
			c-0.5-0.8-0.7-1.7-0.9-2.6c-0.4-1.9-0.6-3.8-3.3-3.9c-1.4-0.1-1.9-1.6-1.7-2.8c0.2-1.2,1.3-2.7,2.5-2.2c3,1.4,3.6-0.7,4.8-2.4
			c0.9-1.4,1.9-2.6,3.4-3.5c1-0.5,2.2-0.9,0.7-2.6c-1.3-1.4-0.3-3,1.2-3.8c1.5-0.8,3.5-0.1,3.5,1.2c0.2,3.3,2.5,2.6,4.4,3
			c1.1,0.2,2.3,0.2,3.3,0.7c1.8,0.8,3.1,1.3,4.4-1c0.8-1.5,2.8-1.3,4-0.1c1.1,1.1,1.2,2.9-0.3,3.7c-2,1.1-1.6,2.2-0.7,3.7
			c1,1.5,1.6,3.1,1.9,4.8c0.3,1.7,0.8,2.9,2.9,2.5c1.4-0.2,2,0.8,2.4,2c0.4,1.3-0.2,2.2-1.2,2.9c-2,1.5-3.1-0.2-4.6-1.3
			C450.5,581.1,449,583.6,446.6,585.3z M437.8,565.6c-4.8,0-8.5,3.5-8.5,8.2c0,5.2,3.7,8.6,9.1,8.5c4.6-0.1,7.8-3.5,7.8-8.4
			C446.2,569.4,442.4,565.7,437.8,565.6z M427.3,581.3c0.4,0.5,0.6,1.6,1.5,1c0.7-0.5,1.7-1.2,1-2.2c-1.4-2.1-1.9-4.4-1.9-6.9
			c0-1.1-1-1.6-1.8-1.7c-1.3-0.1-0.7,1.1-0.9,1.8c-0.1,0.5,0,1,0,2.2C425.1,577.2,425.8,579.4,427.3,581.3z"/>
		<path d="M569,571.7c1.5-1.1,2.7-0.5,3.8,0.5c0.9,0.9,0.9,2.1,0.2,3.1c-0.9,1.4-2.3,1.8-3.7,1c-1.7-1.1-1.7,0.2-1.8,1.1
			c-0.4,2.3-1.4,4.3-3.2,5.8c-1.3,1.1-1.7,1.8-0.1,3.2c1.5,1.3,1,3-0.3,4.3c-1.3,1.2-3,0.6-3.4-0.5c-1.2-3.2-3.5-2.6-5.9-2.3
			c-1.1,0.2-2.3,0.2-3.3-0.2c-1.8-0.7-2.7-0.2-3.3,1.5c-0.6,1.8-2.1,1.9-3.5,1.2c-1.4-0.7-2.4-2.4-1.4-3.5c2.1-2.2,0.6-3.4-0.7-4.9
			c-0.7-0.8-1.4-1.9-1.6-2.9c-0.5-2.1-1.2-3.5-3.7-3.4c-1.2,0-2-1-2.1-2.3c-0.1-1.4,0.9-2.8,2-2.7c3.3,0.5,3.7-1.9,4.6-4
			c0.4-0.9,1-1.8,1.8-2.4c1.6-1.2,1.9-2.3,0.5-3.9c-1.2-1.5-0.1-2.7,1.1-3.6c1.2-0.8,3.1-1,3.4,0.5c0.7,3.4,3,2.5,5.1,2.5
			c1.6,0,3.3,0,4.9,0.5c0.9,0.3,1.6,0.6,1.8-1c0.2-1.3,1-2.5,2.7-2.5c1.1-0.1,1.9,0.4,2.5,1.4c0.8,1.4,0.4,2.6-0.6,3.6
			c-0.8,0.7-1.2,1.3-0.3,2.3c2.1,2.2,3,5.1,3.9,8C568.5,571.9,568.8,571.9,569,571.7z M554.2,565.1c-4.7-0.1-8.9,3.7-8.8,8
			c0.1,5,3.9,9,8.7,8.9c4.7,0,8.2-3.7,8.2-8.5C562.2,568.9,558.7,565.2,554.2,565.1z M560,584.7c0.6-0.3,1.5-0.6,1.1-1.5
			c-0.3-0.7-0.9-1.6-1.9-1.1c-2.4,1.3-4.8,1.4-7.4,1.3c-1.1-0.1-1.2,1.3-2.4,2C553.4,587,556.7,586.3,560,584.7z M544.7,582.5
			c0.4,0.5,1,1.3,1.8,0.8c0.7-0.5,1.1-1.4,0.6-2.2c-1.3-2.3-3-4.3-3-7.2c0-0.6-0.8-0.9-1.5-0.7c-1.4,0.4-0.9,1.6-1,2.7
			C541.7,578.4,543,580.6,544.7,582.5z"/>
		<path d="M665.8,547.2c15-0.1,27.5,10.4,27.6,26.7c0.1,15.1-11.6,27-27,27.4c-15,0.4-27.5-12-27.7-27.1
			C638.9,559.5,649.3,547.4,665.8,547.2z M666.2,597.8c-0.3-1.4,0.8-2.1,2-2.3c1.3-0.3,2.4,0.5,2.6,1.6c0.5,2.7,2,1.9,3.5,1.3
			c1.4-0.6,2.9-1.1,4.2-1.8c1.5-0.8,3.8-1.5,1.6-4c-0.8-0.9-0.1-2,0.7-2.7c0.8-0.9,2-0.8,2.8,0c1.6,1.7,2.5,0.7,3.3-0.6
			c0.9-1.4,1.8-2.8,2.5-4.2c0.8-1.7,2.3-3.7-1.1-4.6c-0.9-0.3-1.2-1.4-1-2.4c0.2-1.1,1-2.1,2.1-1.9c2.8,0.5,2.4-1.3,2.3-2.9
			c-0.1-1.4-0.2-2.9-0.5-4.3c-0.3-1.6-0.3-3.7-3.1-2.5c-1.1,0.4-2.2-0.6-2.6-1.7c-0.4-1.1-0.2-2.3,1.1-2.8c1.7-0.7,1.2-1.6,0.4-2.6
			c-1.1-1.3-2.3-2.6-3.5-3.9c-1.1-1.1-2.1-2.4-3.5-0.2c-0.7,1.1-2.1,0.7-3,0c-1-0.7-1.5-1.9-0.7-3c1-1.4,0.2-1.7-0.9-2
			c-2-0.5-4-1.1-5.9-1.5c-2-0.5-4.1-1.2-4.3,2.2c0,1-1,1.5-2,1.6c-1.1,0.1-2.2-0.4-2.4-1.5c-0.4-2.2-1.6-2-3.1-1.3
			c-1.3,0.5-2.7,0.9-4,1.6c-1.5,0.9-4,1.4-1.8,4.1c0.6,0.8,0.2,1.8-0.5,2.5c-1,1-2.2,0.9-3.1,0.2c-1.8-1.5-2.7-0.4-3.6,1
			c-0.7,1.2-1.6,2.4-2.2,3.7c-0.9,1.7-2.1,3.5,1.1,4.4c0.9,0.3,1.2,1.3,1.1,2.3c-0.2,1.3-1.1,2.1-2.3,2c-2.4-0.2-2.4,1.3-2.3,2.9
			c0.1,1.5,0.3,3.1,0.5,4.6c0.3,1.6-0.1,4,3,2.4c1-0.5,2,0.5,2.5,1.3c0.6,1,0.6,2.4-0.6,3c-2.3,1.1-1.3,2.4-0.3,3.6
			c0.9,1.2,1.8,2.5,3,3.5c1.2,1,2.5,3.3,4.2,0.2c0.5-0.9,2.1-0.8,3.1,0c0.9,0.7,1.3,1.8,0.6,2.8c-1.4,2,0.1,2.4,1.5,2.8
			c2,0.6,3.8,1.5,5.9,1.3C665,599.8,666.7,600.4,666.2,597.8z"/>
		<path d="M258.2,574.9c0.3,14.8-10.9,27.3-27,27.6c-15.3,0.3-27.4-11.8-27.8-26.6c-0.4-14.9,11.5-26.9,26.9-27.3
			C244.9,548.1,257.9,559.2,258.2,574.9z M251.6,569.1c-0.4-1.3,0-2.6,1.5-2.9c1.8-0.4,1.5-1.2,0.9-2.4c-1-2-2.4-3.8-3.9-5.5
			c-1-1.2-2-2.8-3.7-0.5c-0.7,0.9-2.2,0.7-3.1,0c-1.1-0.9-1.5-2.1-0.5-3.3c1-1.2,0.6-1.8-0.7-2.2c-1.8-0.6-3.7-1.3-5.5-1.8
			c-1.5-0.4-3-0.6-3.5,1.7c-0.3,1.2-1.3,1.9-2.6,1.7c-1.1-0.1-2-0.7-2.2-1.8c-0.3-1.9-1.5-2-3-1.5c-1.5,0.4-3,0.8-4.4,1.4
			c-1.7,0.7-3.9,1.2-2.2,4c0.5,0.8,0,1.9-0.8,2.5c-1,0.8-2.3,0.7-3.1-0.2c-1.3-1.6-2.2-0.9-3.1,0.3c-1.2,1.4-2.4,2.8-3.4,4.4
			c-0.9,1.3-2.1,2.9,0.8,3.6c1,0.2,1.1,1.5,0.9,2.4c-0.2,1.2-1.1,1.9-2.2,1.8c-2.9-0.3-2.9,1.5-2.9,3.4c0,1,0,2,0,3.1
			c0,2-0.1,4.1,3.1,3.4c1.1-0.2,1.9,0.8,2.2,1.8c0.4,1.1-0.1,2.2-1.1,2.6c-2.2,1-1.6,2.2-0.6,3.6c0.9,1.2,1.7,2.5,2.6,3.8
			c1.1,1.5,2.2,3.1,4.2,0.8c0.7-0.8,1.9-0.6,2.8,0.1c0.9,0.7,1.3,1.9,0.7,2.8c-1.5,2.3,0.3,2.8,1.8,3.4c1.6,0.6,3.3,1,5,1.4
			c1.6,0.4,3.1,1,2.9-1.8c-0.1-1.2,1.3-1.9,2.5-1.8c1.1,0.1,2.3,0.5,2.4,1.9c0,2.3,1.3,2.1,2.8,1.6c1.6-0.5,3.2-0.8,4.7-1.3
			c1.9-0.6,3.8-1.3,2.2-4c-0.6-0.9-0.1-2.1,0.8-2.8c1-0.8,2.3-0.7,3.1,0.2c1.4,1.8,2.3,0.9,3.3-0.4c1-1.4,2.1-2.8,3-4.2
			c0.9-1.4,2.4-2.9-0.7-3.7c-1.1-0.3-1.3-1.6-1-2.6c0.4-1.2,1.3-1.9,2.6-1.6c1.9,0.5,2.2-0.6,2.5-2c0.3-1.8,0.3-3.7,0-5.5
			c-0.2-1.2-0.4-2.7-2.3-1.7C252.9,571.1,251.9,570.4,251.6,569.1z"/>
		<path d="M681.6,567.7c1.8-0.4,3.2,0.4,3.6,2.1c0.4,1.5-0.6,3.4-2.1,3c-3.5-0.7-3.2,1.6-3.5,3.6c-0.2,1.8-0.7,3.5-1.7,4.9
			c-0.8,1.1-1.1,1.5,0.5,2.2c1.7,0.8,2.6,2.4,1.1,4.3c-1.3,1.6-3.5,1.6-4.2,0.2c-1.4-2.6-2.7-1.5-4.3-0.8c-1.3,0.5-2.7,1.1-4.1,1.1
			c-1.9,0.1-3,0.4-3.5,2.5c-0.3,1.6-1.8,2-3.2,1.7c-1.4-0.3-2.9-1.7-2.2-2.8c2.1-3.1-0.6-3.8-2.1-5.1c-1.2-1-2.1-2.2-2.8-3.6
			c-0.5-1-0.8-2-2.4-1c-1.6,1-3.2,0.1-3.8-1.5c-0.6-1.6,0.1-3.3,1.8-3.6c2-0.4,2.5-1.7,2.6-3.2c0.2-1.6,0.8-3,1.6-4.3
			c0.9-1.4,1.8-2.6-0.4-3.9c-1.6-1-0.8-2.6,0.2-3.7c1-1.1,2.7-1.8,3.7-0.3c1.4,2.1,2.9,2,5,1.2c1.6-0.6,3.4-1,5.1-0.7
			c1.6,0.3,1.9-0.1,1.7-1.7c-0.2-1.4,0.8-2.3,2.1-2.7c1.2-0.5,2.2,0.1,3,1c1,1.2,0.7,2.4-0.3,3.3c-1.1,1-1,1.5,0.3,2.2
			c2.9,1.6,4.7,4.2,6.1,7.6C680.1,568.6,680.6,567.9,681.6,567.7z M674.2,573.5c-0.1-4.4-4.6-8.4-9.1-8.1c-4.5,0.2-8.4,4.7-8.1,9.2
			c0.3,4.2,4.5,8.1,8.6,7.9C670.4,582.3,674.3,578.2,674.2,573.5z M661,584c-2-2.8-4-5.6-6.2-8.3c-0.1-0.2-1,0-1.4,0.2
			c-0.7,0.5-0.4,1.3-0.1,2c1.2,3.6,3.7,6,7.4,7.6C660.8,584.9,661.2,584.3,661,584z"/>
		<path d="M221.7,586.4c-1.3-1-2.2-2.1-4-0.4c-1.3,1.2-3,0.4-4-1c-0.8-1.1-0.8-2.8,0.5-3.2c2.9-1.1,2.2-3.1,2-5.2
			c-0.1-1.2-0.2-2.5,0-3.7c0.3-1.7,0.3-2.9-1.7-3.6c-1.5-0.6-1.7-2.1-1-3.4c0.6-1.2,2.1-2.6,3.1-1.5c2.4,2.4,3.7,0.4,5.4-0.8
			c1.2-0.8,2.5-1.4,3.9-1.8c1.4-0.5,2.5-0.9,1.9-2.8c-0.6-1.8,0.7-2.7,2.2-3c1.8-0.3,3.6,0.8,3.3,2.4c-0.6,3.2,1.4,3.3,3.3,4.1
			c1.2,0.5,2.3,1.4,3.3,2.2c1.1,0.9,1.9,2.1,3.3,0.1c0.9-1.3,2.6-1.3,3.8-0.1c1.1,1.1,1.1,2.5,0.4,3.7c-0.7,1.2-2.1,1.4-3.7,1.4
			c1.2,3.2,1.3,6.2,0.5,9.2c-0.3,1.1-0.1,1.6,1.3,1.6c1.3,0,2.4,0.7,2.4,2.2c0.1,1.3-0.1,2.5-1.6,3c-1.5,0.5-2.6-0.1-3.5-1.2
			c-0.3-0.3-0.2-1.1-1.1-1c-1.6,2.8-4.5,4-7.4,5c-1.2,0.4-1.9,0.4-1.1,2.1c0.8,1.5-0.1,3.1-1.7,3.8c-1.5,0.7-2.7-0.3-3.4-1.3
			c-1-1.3-0.2-2.7,0.5-4.1C226.1,589.2,223.8,588,221.7,586.4z M239.3,575c-0.1-4.5-3.9-8.4-8.5-8.4c-4.7,0-8.7,3.8-8.7,8.5
			c0,4.8,3.4,8.2,8.4,8.2C235.5,583.3,239.4,579.7,239.3,575z M220.8,576.7c-0.6-1.7,0-3.4,0.5-5.1c0.3-0.8,1.2-1.7-0.5-2.4
			c-1.8-0.7-1.9,0.7-2.3,1.6c-1.2,3.2-1.2,6.5,0.4,9.9C220.6,579.6,221.4,578.5,220.8,576.7z"/>
	</g>
</g>
<g id="text">
</g>
<g id="scratch">
</g>
<g id="guides" display="none">
</g>
</svg>
