<?xml version="1.0" encoding="utf-8"?>
<!-- Generator: Adobe Illustrator 26.0.2, SVG Export Plug-In . SVG Version: 6.00 Build 0)  -->
<svg version="1.2" baseProfile="tiny" xmlns="http://www.w3.org/2000/svg" xmlns:xlink="http://www.w3.org/1999/xlink" x="0px"
	 y="0px" width="800px" height="800px" viewBox="0 0 800 800" overflow="visible" xml:space="preserve">
<g id="bg">
	<rect x="-100" y="-100" fill="#A67C52" width="1000" height="4000"/>
</g>
<g id="scans" display="none">
</g>
<g id="icons">
</g>
<g id="planes">
	<path fill="#FFFFFF" d="M398.3,643.1l-5.9-23.9c0,0-13.9,8.8-16.9,13c-36.4,0-55.3-8.8-59.5-11.3c-4.2-2.5-20.5-18.8-0.4-36
		c20.1-17.2,72.9-24.8,72.9-24.8S376,445.4,375.1,420.7c-0.8-24.7-19.7-35.6-19.7-35.6s-25.1,1.3-108.5-13.8
		c-83.3-15.1-118.9-41-132.3-51.1c-13.4-10.1-26.4-36,3.8-46.5c76.6-28.5,249-26.4,249-26.4l2.4-2.1c0,0,0-17.9,0-32
		s5.9-13.5,8.8-14c0-12.8,3.4-12.8,5.6-18.4c0-11.2,15.6-24,15.6-24h0.4c0,0,15.6,12.8,15.6,24c2.2,5.6,5.6,5.6,5.6,18.4
		c2.9,0.4,8.8-0.1,8.8,14s0,32,0,32l2.4,2.1c0,0,172.4-2.1,249.1,26.4c30.2,10.5,17.2,36.4,3.8,46.5c-13.4,10.1-49,36-132.3,51.1
		c-83.3,15.1-108.5,13.8-108.5,13.8s-18.8,10.9-19.7,35.6c-0.8,24.7-13.4,139.3-13.4,139.3s52.8,7.7,72.9,24.8
		c20.1,17.2,3.8,33.5-0.4,36c-4.2,2.5-23,11.3-59.5,11.3c-2.9-4.2-17-13-17-13l-5.2,23.9"/>
</g>
<g id="scratch">
</g>
</svg>
