<?xml version="1.0" encoding="utf-8"?>
<!-- Generator: Adobe Illustrator 26.0.2, SVG Export Plug-In . SVG Version: 6.00 Build 0)  -->
<svg version="1.2" baseProfile="tiny" xmlns="http://www.w3.org/2000/svg" xmlns:xlink="http://www.w3.org/1999/xlink" x="0px"
	 y="0px" width="800px" height="800px" viewBox="0 0 800 800" overflow="visible" xml:space="preserve">
<g id="bg">
</g>
<g id="scans" display="none">
</g>
<g id="icons">
</g>
<g id="planes">
	<g>
		<path d="M395.8,182.1c3.3-2.3,8.1-2.2,10.9,0.8c5.8,7.2,7.5,16.8,8.7,25.7c0.8,3.8,0.2,7.7,1.2,11.4c0.2,5.9,0.7,11.9,1.1,17.8
			c-0.4,3.2,0.6,6.3,0.4,9.5c0,4.2-0.1,8.4,0.3,12.6c0.3,3.4-0.1,6.9-0.1,10.3c0.9,1.5,2.4,2.5,3.6,3.6c6.8,1.2,13.7,1.4,20.5,2.3
			c6.4,0.7,12.9,1.5,19.3,2.3c2,0.4,3-1.7,4.4-2.8c-0.4,0.1-1.2,0.3-1.6,0.5c-1.4-1.8-0.3-3.8,0.5-5.5c-2.3-1.9-0.8-5,0.7-6.8
			c-2.9-0.4-1.9-3.5-0.7-5.2c-1.3-2.4,0.9-4.9-0.4-7.2c-0.6-3.3,2.7-5.7,4.7-7.8c0.6-5.3,1-10.7,2.5-15.9c-4.4-1.4-8.9-2.2-13.5-2.9
			c-0.3-0.6-0.6-1.3-0.9-1.9c5.5-1.2,11.1-2.4,16.7-2.3c0.4-1.4,0.8-2.8,1.6-4c1.3-2,2-4.5,3.9-6c2.9-2.4,6.9-2.8,10.4-1.7
			c2.5,2,4.6,4.4,6.4,7.1c0.6,1.7,1.3,3.3,2.5,4.7c3.6,0.5,6.8-1.8,10.4-1.3c4.2,0.5,8.5,0.3,12.6,1.3c3.8,0.9,7.8,0.3,11.6,1
			c3.1,0.5,6.2,0.8,9.3,1.2c0,0.5,0.1,1.5,0.1,2c-3.1,0-6.1,0.7-9.2,0.8c-8.6,1.2-17.4,1.6-26,2.7c-2.7,0.4-5.2-0.6-7.8-0.9
			c0.8,4.9,1.2,9.9,1.4,14.9c2.1,2.6,5.3,4.4,6.3,7.7c-0.9,4,0.2,8,0,12c-0.2,6.1,0.5,12.1,0.2,18.2c-0.1,1,0.4,1.8,0.7,2.7
			c0.8,0,1.6,0.1,2.4,0.2c0.4,0.7,0.7,1.3,1.1,2c1.5,0.2,3,0.5,4.5,0.8c0.1-0.6,0.3-1.7,0.4-2.3c4.4,1,9,1,13.4,2
			c2.7,0.4,5.5,0.9,8.2,1c0.9-0.1,1.7,0.3,2.4,0.8c5.3-0.5,10.6,1,15.9,1.2c38.6,4.3,77.2,9,115.9,13.3c3.5,0.1,6.9,1.4,10.5,1
			c3.7,0.6,7.4,1.4,11.2,1.2c3.4,2.8,3.5,7.5,4.6,11.5c1.3,8.8,0.3,17.8-1.7,26.4c-0.5,2.6-1.2,5.2-2.2,7.6
			c-12.4,1.6-24.7,4-37.1,5.8c-4.2,0.5-8.2,1.6-12.4,2.1c0.1,0.3,0.3,1,0.4,1.4c-3.5,0.9-7.2,1-10.6,2c-1.5,0.7-2-1.7-3.5-1.3
			c-18.9,2.9-37.8,6-56.7,9.3c-2.6,0.4-5.1,1.4-7.8,1.2c-8,1.5-16.1,2.4-24.1,4c-5.8,0.9-11.7,1.5-17.5,3c-5.3,0.5-10.5,2-15.9,2.5
			c-4,1.3-8.2,1.3-12.3,2.3c-5,0.3-9.7,2-14.7,2.3c-5.3,0.5-10.4,2-15.7,2.5c-3.7,0.3-7.1,1.7-10.8,1.8c-10.6,1.7-21.1,3.9-31.7,5.6
			c-4.6,0.2-8.7,4-9.8,8.4c-0.5,7.8-1,15.7-0.9,23.6c-0.7,3-0.2,6.2-0.5,9.2c-1.1,5.5-0.2,11.1-0.9,16.6c0.1,3.9,0.1,7.7-0.6,11.6
			c-0.7,15.9-1.4,31.8-2.2,47.8c-0.1,2.8,0.3,5.6-0.4,8.4c0,5.9-1,11.7-0.9,17.6c0.2,2.8-0.6,5.5-0.4,8.2c-0.8,2.2-0.2,4.5-0.5,6.7
			c-0.6,3.8-0.8,7.7-0.4,11.5c0.9,1,2.2,0.8,3.4,0.9c11.6,0.6,23.1,1.9,34.7,2.5c10.9,1.1,21.9,1.2,32.8,2.4
			c1.1,0.1,2.2,0.1,3.3,0.1c1.9,3.7,2.1,7.8,2.3,11.9c0.1,2,0.8,4,0.4,6c-0.9,4.1-0.1,8.3-1.1,12.3c-0.4,2-0.3,4.1-0.4,6.1
			c0.5,2.6-1.5,4.9-0.4,7.5c-2.1,0.4-0.9,3.2-2.7,4.1c-0.1-6.5-1.3-13-1.6-19.5c-0.8,1.3-0.5,3-1.6,4.1c-2.9,3.8-5.6,7.7-8.2,11.7
			c-20.5,1.3-41,2.5-61.5,3.7c-1.3,0.3-2.4,1.1-3.8,1c-1.6,0.1-3,1.4-4.6,0.7c-1.2-0.4-2.4-0.5-3.6-0.4c-0.6-0.5-1.2-0.9-1.8-1.3
			c-3.1-0.2-6.3-0.5-9.4-0.7c-4.5,0.5-9-0.7-13.5-0.6c-4.1,0.1-8.1-0.3-12.1-0.9c-6.7-0.2-13.4-0.4-20.1-1c-2.9-0.2-6.6,0.7-8.6-2
			c-1.4-3.3-3.9-6-5.7-9.1c-1.2-1.3-2-2.9-2.3-4.7c-0.2-0.1-0.6-0.4-0.8-0.6c-0.1,5.2-1.5,10.2-1.6,15.4c-0.3,0.3-0.9,0.9-1.2,1.2
			c-1.1-2-1.3-4.3-1.9-6.5c0.6-3.9-0.1-7.7-0.6-11.5c-0.4-5.9-0.6-11.9,0-17.8c1-2.9,0.5-6.4,2.5-8.8c11.2-0.7,22.4-2,33.6-2.6
			c3.3-0.1,6.5-1,9.9-0.7c4.2,0.2,8.4-1,12.6-0.8c3.2-0.6,6.5-0.3,9.7-0.9c3-0.7,6.3,0.1,9.2-1.3c0.5-6.5-0.2-13-0.1-19.6
			c-0.8-6.2-0.4-12.6-1.1-18.8c-0.5-10.6-1.4-21.1-1.6-31.7c-0.9-4.1-0.2-8.4-0.7-12.6c-1.1-5.8-0.2-11.8-1.3-17.6
			c0.3-7-0.8-14-0.8-21.1c-0.8-6-0.4-12.2-0.8-18.2c-0.8-4.9-0.2-10-1-14.9c0.2-4.2,0.1-9.2-3.6-12c-2.8-1.8-6-3.3-9.3-3.3
			c-2.2,0-4.2-0.8-6.4-1.2c-14.1-2.5-28.1-4.8-42.2-7.3c-4.9-0.6-9.6-2-14.5-2.4c-3.8-1-7.9-0.9-11.7-2.1
			c-5.3-0.4-10.5-1.9-15.8-2.5c-13.6-2.3-27.3-4.3-40.9-6.7c-2.1-0.4-4.4-0.1-6.4-0.9c-22.2-3.7-44.3-7.4-66.5-10.9
			c-1.1-0.3-1.8,0.8-2.3,1.5c-2.9-0.8-5.8-1.3-8.8-1.4c-2.1,0-2.9-2.7-5-2.7c-8.5-0.9-16.7-3.1-25.3-3.7c-7.4-1.4-14.9-2.8-22.3-4
			c-1.6-5.3-2.9-10.6-3.7-16.1c0-4.2-0.9-8.4-0.6-12.6c0.6-4.6,1.3-9.3,3.1-13.7c0.5-1.4,1.7-2.7,3.2-2.9c2.3,0,4.5-0.4,6.8-0.5
			c4.1-0.7,8.3-0.5,12.2-1.7c5.6-0.1,11.1-1.3,16.7-1.7c4.9-0.1,9.7-1.6,14.6-1.6c0.2-8,0.4-16,0.8-24.1c0.6,0.7,1.3,1.5,1.2,2.5
			c0,7.1,0.1,14.2,0.2,21.3c7.8-1,15.7-1.7,23.4-2.9c5.8-0.1,11.4-1.3,17.1-1.8c4.9-0.9,10-0.9,14.9-1.7c4.5-0.2,8.8-1.4,13.3-1.6
			c3.8-0.9,7.7-0.4,11.5-1.2c6.1-0.9,12.3-1.5,18.5-2c11.2-1.5,22.5-2.6,33.7-4c0.9-0.5,0.6-1.8,0.8-2.6c-0.3-11,0.1-21.9,0.2-32.9
			c2.5-1.3,4.1-3.7,6.3-5.3c0.3-2.1-0.8-4-1.3-5.9c0.5-1.3,2.2-1.7,2.4-3.2c0.5-2.3,0.6-4.7,1.9-6.7c-2.6-0.2-5.1,1-7.8,0.6
			c-5.6-1-11.4-0.8-17-1.9c-6.4,0-12.7-1.6-19.1-1.5c0.2-0.9,0.5-1.7,0.8-2.6c3.8,0.3,7.5-0.7,11.3-0.9c7.3-0.6,14.6-1.7,21.9-2.4
			c2.4,0.2,5,0.3,7.2,1.4c1.3,0.4,3.4,0.7,4-1c2.1-4.2,4.7-8.5,9-10.8c3.9-1.6,9-0.2,11.2,3.5c1.7,2.4,2.9,5.2,4,7.9
			c5.2,0.5,10.5,0.9,15.6,2.3c0.3,0.2,0.9,0.7,1.2,0.9c-0.6,0.5-1.3,0.9-2,1.3c-4.6,1.1-9.5,1.3-13.7,3.7c1.2,2.5,1.4,5.3,1.6,8
			c0.8,0.3,2.8,0.4,2,1.7c-0.7,1.7-2.2,3.3-1.3,5.2c2.6,2,5.3,4.7,5.2,8.2c-1,2.5,0.6,5.1-0.8,7.5c1.5,1.8,1,4.2-0.3,6
			c1,0.5,2.1,0.6,3.3,0.7c0.1,4.4,0.3,8.7,0.3,13.1c4.7-0.6,9.4-0.8,14-1.7c8.8-0.7,17.6-1.2,26.3-2.4c2.7-0.9,4.4-3.5,4.2-6.3
			c-0.1-18.7,0.8-37.4,2.6-56c0.5-5.4,1.9-10.7,2.8-16C390.4,190.8,392.2,185.9,395.8,182.1z"/>
	</g>
</g>
<g id="scratch">
</g>
</svg>
