<?xml version="1.0" encoding="utf-8"?>
<!-- Generator: Adobe Illustrator 26.0.2, SVG Export Plug-In . SVG Version: 6.00 Build 0)  -->
<svg version="1.2" baseProfile="tiny" xmlns="http://www.w3.org/2000/svg" xmlns:xlink="http://www.w3.org/1999/xlink" x="0px"
	 y="0px" width="800px" height="800px" viewBox="0 0 800 800" overflow="visible" xml:space="preserve">
<g id="bg">
	<rect x="-100" y="-3100" fill="#3FA9F5" width="1000" height="4000"/>
</g>
<g id="scans" display="none">
</g>
<g id="icons">
</g>
<g id="planes">
	<g id="_x23_231f20ff_00000093875047432921760250000006205881839027379358_">
		<path fill="#FFFFFF" d="M390.6,117.9c1.2-6.7,4.3-13.1,8.7-18.3c2.8,0.9,4.2,3.7,5.6,6.1c2,3.9,3.9,7.9,4.4,12.3
			c1.6-0.7,3.3-1.7,5.1-1.9c15.5,0.1,30.9,2,46.3,2.8c-12.8,3.1-25.9,5.3-38.8,8c-4.4,1.2-8.2-1.7-11.8-3.6
			c-0.1,1.4-0.3,2.9-0.4,4.3c2.1,1.4,4.1,3.2,5.1,5.6c2.1,5.6,4,11.5,4.1,17.5c0.6,0.6,1.2,1.1,1.9,1.6c-1.5,4,1.6,7.6,0.7,11.6
			c0.4,0.7,0.8,1.5,1.2,2.2c-0.5,1.1-1.1,2.1-1.4,3.2c0.4,1.1,1,2.1,1.6,3.1c-0.3,0.4-1,1.3-1.4,1.7c1.2,2.4,1.8,5.1-0.2,7.2
			c-0.2,2.4,0.5,4.5,2.3,6.2c-1.1,0.7-2.2,1.3-3.3,2c-0.1,9.5-0.1,19-0.2,28.5c1.5,0.9,2.8,2.4,4.6,2.2c10.7-0.1,21.5-0.4,32.2-0.6
			c0.7-4.5,0.7-9.7,4.2-13.2c2.3-2.5,6.7-2.9,8.9,0c3,3.8,2.6,9,3.1,13.6c4,0.1,7.9,0.4,11.9,0.7c0.6-1.2,1.6-1.9,2.9-2.2
			c0.2,0.7,0.5,2,0.6,2.6c65.2,2.9,130.3,5.8,195.5,8.7c3.3,0.2,7-0.5,9.8,1.6c4.3,3.3,6.6,9.2,5.5,14.5c-0.6,5.4-3.7,9.9-6.7,14.2
			c1.1,1.7,2.6,3.5,2.2,5.7c-0.6,1.7-2.1,2.7-3.6,3.4c-18,8.5-35.8,17.3-53.9,25.4c-12.1,5.5-24.3,10.8-36.5,16.2
			c-2.5,1-3.3,4.1-5.9,5c-3.7,1.4-7,3.5-10.7,4.9c-2,0.7-3.8-0.7-5.4-1.7c-1.2,0.9-2.3,2-3.8,2.3c-35.1,9.8-70.3,19.7-105.4,29.6
			c-2.1,0.8-4.1-0.2-6.1-0.7c-0.3,0.5-0.9,1.5-1.2,2c-10.1,3.8-19.9,8.1-29.9,12c-3.2,1.2-7.4,1.8-9.9-1c-2.8-3-2-7.5-1.5-11.2
			c-0.9,0.7-1.9,1.3-2.8,2c-0.6,9.2-1,18.3-1.6,27.5c0.5,0,1.6,0,2.1-0.1c0.1,1.4,0.3,2.9,0.4,4.3c-0.8,0.8-1.6,1.4-2.4,2.1
			c-1.7,23-1.5,46-4.3,68.9c-1.7,16.3-3.5,32.7-5,49c30.1-0.4,60.2-0.8,90.4-1.4c3.1-0.2,3.7,3.4,3.4,5.7
			c-0.6,13.8-0.8,27.7-0.3,41.6c-26.3,0.7-52.7,1.1-79,1.8c-6.1,0.2-12.2,0-18.2,0.6c-0.4,7.9-0.5,15.9-1,23.8c-1.4,1-4,1.2-5.1-0.3
			c-0.6-7.9-0.4-15.8-1-23.6c-32.3-1.2-64.7-1.5-97.1-2.3c0.3-13.6,0.3-27.2-0.5-40.7c-0.1-2.4-0.1-6.5,3.1-6.6
			c30.1,0.4,60.3,1,90.5,1.4c-1.9-21.7-4.3-43.3-6.4-65c-1.1-18-1.5-36-2.9-53.9c-1.1-0.8-2.2-1.7-3.4-2.5c0.1-2,0.1-4,0.7-6
			c0.6,1.2,1.1,2.5,1.5,3.7l1.2-0.1c-0.5-9.3-1-18.6-1.4-27.9c-0.9-0.7-1.9-1.4-2.8-2.1c0.4,3.8,1.2,8.3-1.7,11.3
			c-2.8,2.9-7.3,1.9-10.6,0.5c-9.3-3.9-18.7-7.7-28.1-11.4c-1-0.4-1.6-1.5-2.4-2.2c-2.1,0.6-4.2,1.4-6.3,0.6
			c-35.1-9.9-70.2-19.7-105.3-29.6c-1.3-0.4-2.4-1.4-3.4-2.2c-1.7,1.2-3.7,2.6-5.9,1.6c-3.5-1.5-6.8-3.4-10.4-4.8
			c-2.8-1.1-3.7-4.6-6.7-5.4c-30.6-13.3-60.9-27.3-90.8-42c-3.5-1.7-2.2-6-0.1-8.3c-2.9-4.3-6.1-8.7-6.6-14c-1.2-5.3,1-11,5.1-14.5
			c3-2.5,7.2-1.6,10.8-1.9c65-2.9,130.1-5.8,195.1-8.7c0-0.6,0.1-1.7,0.2-2.2c0.7,0,2,0,2.7,0c0,0.5,0,1.4,0,1.9
			c4.1-0.3,8.2-0.5,12.3-0.7c0.7-4.8,0.1-10.6,3.9-14.3c2.6-2.6,7-1.2,9,1.6c2.6,3.5,2.7,8.1,3.3,12.3c11.3,0.3,22.5,0.5,33.8,0.6
			c1-0.8,2.1-1.5,3.2-2.3c-0.1-9.5-0.2-19-0.3-28.5c-1.1-0.6-2.6-0.8-3.1-2.2c0.6-0.9,1.3-1.7,1.9-2.5c0.2-2.4-0.6-4.6-1.4-6.8
			c0.3-1.3,0.9-2.6,1.4-3.9c-0.4-0.4-1.1-1.2-1.5-1.6c1.7-1.9,1.7-4.2,0.4-6.3c1.4-2.6,0.5-5.7,1.8-8.4c0.8-1.7,0.2-3.5,0-5.3
			c0.6-0.9,1.7-1.6,1.8-2.8c0.5-5.8,2.1-11.5,4.2-16.9c0.9-2.4,3-4.1,5.1-5.5c-0.2-1.4-0.3-2.7-0.5-4.1c-3.8,1.9-7.7,4.8-12.2,3.5
			c-12.8-2.7-25.8-4.8-38.6-8c14.1-0.6,28.2-2.6,42.3-2.7C384.6,115.4,387.7,116.4,390.6,117.9z"/>
	</g>
</g>
<g id="scratch">
</g>
</svg>
