<?xml version="1.0" encoding="utf-8"?>
<!-- Generator: Adobe Illustrator 26.0.2, SVG Export Plug-In . SVG Version: 6.00 Build 0)  -->
<svg version="1.2" baseProfile="tiny" xmlns="http://www.w3.org/2000/svg" xmlns:xlink="http://www.w3.org/1999/xlink" x="0px"
	 y="0px" width="800px" height="800px" viewBox="0 0 800 800" overflow="visible" xml:space="preserve">
<g id="bg">
	<rect x="-100" y="-1100" fill="#3FA9F5" width="1000" height="4000"/>
</g>
<g id="scans" display="none">
</g>
<g id="icons">
</g>
<g id="planes">
	<g>
		<path fill="#FFFFFF" d="M388.3,196.7c2.3-5.4,8-7.8,12.1-11.5c3.4,1.7,6.1,4.4,9.4,6.3c3.9,4.1,5.8,9.5,6.7,14.9
			c4.2,19.3,5.4,39,5.2,58.7c1.1,1.3,2.2,2.7,4,3c4.3,0.5,8.7-0.1,13.1-0.1c7.3,0.1,14.5-0.3,21.8,0c1.4,0.3,1-1.3,0.4-1.9
			c1.3-4.7,1.2-9.6,1.4-14.4c0.1-7.1,1-14.3,0.8-21.4c-0.8-1.4-1-3-0.7-4.6c1.2-4.9-0.5-10.1,1.7-14.9c2.3-0.5,4.7-0.2,7.1-0.3
			c0.6-4.8,1.8-9.8,4.8-13.7c1.8-2.5,5.7-3.6,8.2-1.4c4,4.1,5.3,9.9,6.7,15.3c2.2,0.3,5.7-1.2,6.8,1.3c2.3,3.4,0.4,7.7,1.3,11.5
			c0.5,2.6,0.7,5.2-0.5,7.6c0.8,10.5,1.4,21,2,31.4c0.7,2,0.4,4.1,0.2,6.1c0.5,1.2,1.1,2.4,1.6,3.7c14.6,2.5,29.3,4.4,43.9,6.8
			c8.7,1.6,17.5,2.4,26.1,4.4c36.9,7.8,73.8,15.7,110.8,23c4.5,0.9,9.3,2.1,12.8,5.3c3.5,2.7,3.7,7.5,4.2,11.5
			c-0.3,5.6-2.9,11-6.5,15.2c-3.5,4.3-7.8,8.7-13.6,9.2c-33,6.1-66.1,11.3-99.2,17.1c-4.8,0.7-9.5,1.9-14.4,2.1
			c-0.5,0.7-0.7,1.4-0.7,2.2c-1.3-0.1-2.7-0.1-4-0.1c0.9-0.2,1.9-0.4,2.8-0.6c0-0.3-0.1-0.8-0.1-1.1c-29,2-58.1,3.8-87.1,5.6
			c-16.3,0.7-32.5,2.3-48.8,3.2c0-0.3-0.1-0.8-0.1-1.1c-1.9,2.7-4.3,5.4-4.1,8.9c0.2,20.5,0.5,41.1-0.1,61.6
			c-0.6,7.9-0.4,15.9-0.8,23.9c-0.8,17.3-1.8,34.6-2.8,51.9c31,6.1,61.9,12.7,92.9,19c1.8,0.4,3.1,1.9,4.9,2.1
			c1.1,4.5,2.8,9.1,1.7,13.8c-0.7,3.1-0.7,7.3-3.8,9.1c-3.9,1.1-8,1.1-12,1.6c-25.6,2.6-51.2,6-76.8,8.5c-4.1,0.6-8.2,0.2-12.4,0.6
			c-2,12.7-3.8,25.4-6.1,38.1c-0.2,0.2-0.7,0.6-1,0.8c-0.2-3.5-1.1-7-1.9-10.4c-2.4-9.4-3.6-19.1-5.8-28.5c-3.3,0.6-6.5,0-9.8,0
			c-29.5-2.3-59-4.6-88.5-7.1c-3.2,0-5-3.1-5.8-5.8c-1.8-5.1-1.6-10.9,0.6-15.8c1.4-3.3,5-4.3,8.2-4.8c29.4-6.9,58.7-14.2,88.1-21.3
			c-4.4-44.5-7.8-89.2-7.9-134c-3-0.4-6.3-1-9.2,0.2c-1,0.1-0.3-1.1-0.3-1.6c3.2,0.1,6.4-0.1,9.6-0.1c-0.2-3.1-1.5-6.2-3.7-8.5
			c-7.6-1-15.2-0.6-22.8-1.3c-7.7,0.1-15.4,0-23-0.8c-26.9-1.5-53.7-3.4-80.6-5c-9.5-0.7-19.1-0.8-28.5-2.5
			c-34.7-6.1-69.5-11.6-104.2-17.8c-4-0.7-8.2-1.5-11.2-4.3c-4.6-4.3-8.9-9.3-10.7-15.4c-1.8-4.4-0.7-9.2,0.6-13.6
			c2.8-5.1,8.7-7.2,14.1-8.3c38.5-7.6,76.8-15.8,115.2-24c5.1-1.2,10.3-1.6,15.4-2.5c16.1-2.5,32.3-5,48.4-7.3
			c1.1-0.1,2.2-0.3,3.3-0.8c0.9-2.1,2.1-4.2,1.1-6.6c1.2-4.3,0.6-8.8,1.2-13.2c0.3-6.9,0.9-13.9,1.3-20.8c0.2-1.6-1.1-2.8-1-4.4
			c0.2-2.9,1.1-5.7,0.7-8.6c-0.4-2.8,0.1-5.6,1.8-7.8c2.1-0.1,4.2-0.1,6.3-0.1c0.9-5.1,2.5-10.3,5.8-14.5c2-2.6,6-2.4,8.2-0.1
			c3.6,4,4.9,9.4,5.6,14.6c2.2,0,4.4-0.1,6.5-0.1c1.7,2.6,1.9,5.8,1.7,8.8c-0.4,3.1,0.8,6.1,0.5,9.2c-0.6,0.9-0.9,1.9-0.8,3
			c0.1,9.5,0.8,19,1.1,28.5c0.5,2,0.3,4.2,1.3,6.1c-0.2,0.4-0.7,1.3-1,1.7c4.3,0.1,8.7,0.1,13.1,0c6.6-0.7,13.3,0,20-0.5
			c3.6-0.2,7.9,0.9,10.7-2.1c2.2-3.1,0.7-7.2,0.8-10.7c0-12.3-0.5-24.7,1.1-37C384.7,211.8,385.1,203.8,388.3,196.7z"/>
	</g>
</g>
<g id="scratch">
</g>
</svg>
