<?xml version="1.0" encoding="utf-8"?>
<!-- Generator: Adobe Illustrator 26.0.2, SVG Export Plug-In . SVG Version: 6.00 Build 0)  -->
<svg version="1.2" baseProfile="tiny" xmlns="http://www.w3.org/2000/svg" xmlns:xlink="http://www.w3.org/1999/xlink" x="0px"
	 y="0px" width="800px" height="800px" viewBox="0 0 800 800" overflow="visible" xml:space="preserve">
<g id="bg">
	<rect x="-100" y="-2100" fill="#3FA9F5" width="1000" height="4000"/>
</g>
<g id="scans" display="none">
</g>
<g id="icons">
</g>
<g id="planes">
	<g>
		<g>
			<path fill="#FFFFFF" d="M389.1,163.6c20.2-7.4,29.5,13.1,29.3,29.9c2.7,28.3,3.3,57.6,12.2,84.8c6.1,17.4,27,15.7,41.9,16.7
				c-0.7-19.9,2.2-39.4,8.1-58.4c2.7-4,5.4-7.9,8.2-11.9c4.3,4.7,8.4,9.5,12.5,14.3c1.1,19.6,4.8,39.1,5.5,58.8
				c54.9,7.5,110.5,8.3,165.2,17.4c28.1,7.9,35.2,48.5,12.9,66.4c-16.6,11.9-37.7,16.3-57.9,15.8c-58.7,5.6-117,15.4-175.5,22.9
				c-12.7,0.5-23.4,12.1-23.2,24.8c-5.6,57-9.2,114.2-15.1,171.1c23.4,10.1,49.2,11.2,73.9,16c2-1.7,5.8-5.1,7.8-6.8
				c2.8,19.2,3.5,39-0.5,58.2c-2.4-6.8-3.6-13.9-4.8-21c-3.8,5.7-4.8,15.2-12.4,17.1c-24.2,5.1-49.4,4.3-73.5,10.4
				c-0.9,1.8-2.8,5.4-3.7,7.2c-1.2-2.6-2.4-5.2-3.5-7.7c-22.9-4.9-46.3-6.6-69.6-9.2c-9.1,0-11.9-9.9-16.9-15.6
				c-1,6.2-2,12.3-3.2,18.5c-5.8-18.6-4.2-38.5-1.6-57.5c2.7,2.2,5.5,4.5,8.2,6.7c24.1-5,48.4-8.7,72.5-13.8
				c-3.2-56.9-10.1-113.8-14.7-170.7c0.4-14.4-10.7-29.4-26-29c-49-5.1-97.7-11.9-146.5-18.4c-25.7-4.6-53.3-0.5-77.1-13.5
				c-27.8-12.3-27.6-59.1,1.4-70c53.5-20.2,111.7-9.7,167.3-18.3c0.9-20,1-40.1,6.5-59.5c3.4-4.8,6.8-9.6,10.2-14.4
				c3.7,4.5,7.4,9,11,13.5c5.4,18.8,6.4,38.1,7.1,57.5c11.6-0.9,23.1-2.6,34.7-3.9C385.3,254.1,367.2,202.9,389.1,163.6z"/>
		</g>
	</g>
</g>
<g id="scratch">
</g>
</svg>
