<?xml version="1.0" encoding="utf-8"?>
<!-- Generator: Adobe Illustrator 26.0.2, SVG Export Plug-In . SVG Version: 6.00 Build 0)  -->
<svg version="1.2" baseProfile="tiny" xmlns="http://www.w3.org/2000/svg" xmlns:xlink="http://www.w3.org/1999/xlink" x="0px"
	 y="0px" width="800px" height="800px" viewBox="0 0 800 800" overflow="visible" xml:space="preserve">
<g id="bg">
</g>
<g id="scans" display="none">
</g>
<g id="icons">
</g>
<g id="planes">
	<g id="_x23_000000ff_00000163753595232061760930000008293000072558348208_">
		<path d="M394.8,193.8c2.8-6.1,11.8-7.3,16.7-3.1c2.1,1.6,3.1,4.3,3.9,6.7c4.6,16.1,5.8,32.8,6.9,49.4c4.8,1.9,10.1,1.2,15.2,1.4
			c4.5,0,9.1,0.2,13.6,0.3c0-3.3,0-6.6-0.1-10c0.7-0.4,1.5-0.8,2.2-1.2c0.2-7.8,0.8-15.6,3.1-23.1c-2,0.8-4.1,1.8-6.3,1.8
			c-0.2-0.5-0.7-1.5-0.9-2c2.6-2.9,5.9-5.3,9.9-5.6c0.3-1.1,0.7-2.3,1-3.4c-7-0.9-14.4-1.9-20.5-5.8c0.4-0.8,0.7-1.5,1-2.3
			c2.2-0.2,4.4,0.3,6.6,0.7c4.8,1.2,9.6,2.4,13.8,5c1.3-3,3.8-7,7.7-5.9c4.4,1.9,5,7.4,6.8,11.3c1.4,1.9,1.8,4.3,2.7,6.4
			c1.8,1.6,4.2,2.9,4.6,5.4c1,4.8,0.8,9.7,1.5,14.5c0.4,4.7,1.8,9.2,3.2,13.6c-1.3,0.5-2.7,1-3.9,1.7c2.6,1,5.3,1,8,1.6
			c17,3,33.8,7,50.7,10.5c32.3,7.1,64.5,14,96.8,21c10.8,2.5,21.6,5,32.3,8c5.8,1.5,11.8,3.4,16.8,6.8c4.3,3.5,8.1,8,9.6,13.5
			c1.6,5,3.1,10.3,1.9,15.5c-0.6,5.1-1.3,10.3-3,15.2c-1.3,4.8-5.3,8.2-9.1,11.1c-8.2,5.2-18.2,5.4-27.6,6.3
			c-41.1,2.2-82.2,5.4-123.3,8.1c-13.7,0.8-27.3,2-41,2.3c-12.9,0.5-25.9-0.1-38.4-3.4c-6.6-1.4-13-4.2-19.8-4.7
			c-4.6-0.1-7.5,4-9.8,7.5c-3,5-5,10.5-7,16c-1.5,4-0.6,8.3-1.1,12.5c-1.4,24-2.2,48-4,71.9c-0.2,6-0.5,12-1.2,17.9
			c-0.5,11.3-1.8,22.6-2.7,33.9c-0.5,3.5-0.7,7-0.6,10.6c-0.1,1.5,1.6,2.1,2.8,2.2c7.1,0.7,14.3,0.9,21.4,1.7
			c14.9,2.3,30,5.1,43.9,11.3c7.8,3.8,16.4,7.9,20.8,15.9c2.2,5.7,3.4,12.2,1,18c-2.1,6.1-7.5,10.3-13.2,12.7
			c-14.3,5.2-29.5,7.2-44.5,8.7c-8.8,1-17.7,0.7-26.6,0.8c-3.5-0.2-7.1,0.3-10.4-1.2c-1.4-1-1.3-2.9-1.6-4.4
			c-0.3-0.1-0.9-0.2-1.2-0.3c-0.6,2.1-1,4.3-2.1,6.2c-1.3,2.6-0.7,5.7-1.7,8.4c-0.8-2.8,0.2-6-1.6-8.4c-1.1-2.1-1.4-4.5-2.4-6.7
			c-0.9,1.6-1.1,3.4-2,4.9c-2.9,1.6-6.3,1.3-9.4,1.4c-7.7,0-15.4,0-23-0.2c-15.3-1-30.6-3.2-45.2-7.9c-6.1-1.7-11.9-5.1-15.6-10.3
			c-3.4-5.3-4-12-2.2-18c1.6-7.7,8.5-12.6,14.9-16.1c12.6-6.6,25.7-13,40.1-14.2c10.4-0.9,20.8-1.6,31.2-2.3
			c1.4-0.1,3.2-0.3,3.9-1.7c0.3-7.9-1.2-15.7-1.6-23.5c-3.5-37.5-4.8-75.2-6.9-112.8c-0.3-4,0.2-8.2-1.5-12
			c-2.9-7.7-5.6-16.4-12.5-21.5c-3.9-2-8.4-0.4-12.4,0.6c-12,3.6-24.3,6.5-36.8,6.6c-21.8,0.4-43.6-1.9-65.4-3.2
			c-29.5-2-59-4.2-88.5-6c-13.5-1.1-27.2-0.9-40.5-3.6c-7.3-1.5-14.8-4.9-18.6-11.6c-3.2-7.1-3.2-15.1-3.9-22.7
			c0.3-6.8,1.2-14.1,5.5-19.6c1.9-2.2,3.9-4.4,6.4-5.9c6.7-4,14.3-5.6,21.7-7.8c24.4-6.4,49.1-11.2,73.7-16.7
			c28-6,56-12.2,83.9-18.2c7.6-1.5,15.3-3.2,23-4.1c1-0.1,1.9-0.4,2.6-1.2c-1.5-0.4-3.1-0.7-4.7-1.1c1.6-4.9,3.3-9.9,3.4-15.2
			c0.7-4.7,0.5-9.5,1.8-14.1c0.7-2.7,4.5-3,4.9-5.8c0.7-3.1,2.7-5.6,3.5-8.6c-8.2-1.4-16.5-2.4-24.6-4.8c-1.4-0.3-2.3-1.5-3.2-2.4
			c9.6,0.7,18.4,5.3,27.8,6.8c1.1-2.5,2-5.4,4.5-6.9c1.6-1.2,4-1,5.4,0.5c2.2,2.1,3.3,5,4.2,7.9c11.1-2.8,22.6-3.6,33.9-2.9
			c1.5,0,2.5,1,3.1,2.3c-5.6,2-11.6,1.6-17.5,2.1c-6.3,0.4-12.6-0.6-18.9-0.7c0.3,1.9,1.5,3.6,2.1,5.4c2.9,8.2,3.9,17,3.9,25.6
			c0.7,0.4,1.5,0.8,2.2,1.2c-0.1,3.3,0.2,6.8-0.7,10c7.9-0.4,15.7-0.3,23.6-0.5c2.1,0.1,4.1-0.6,6.1-1.3c1.6-13.1,2.9-26.8,9.4-38.6
			C389.4,203.3,392.6,198.8,394.8,193.8z"/>
		<path d="M498.4,203.7c4.8-0.7,9.6-0.7,14.5-0.3c-0.2,0.3-0.5,1-0.7,1.4c-2.2,0.9-4.7,1-7,1c-9.4,0.4-18.8,0-28.2-0.1
			C484.1,204.9,491.3,204,498.4,203.7z"/>
	</g>
</g>
<g id="scratch">
</g>
</svg>
