<?xml version="1.0" encoding="utf-8"?>
<!-- Generator: Adobe Illustrator 26.0.2, SVG Export Plug-In . SVG Version: 6.00 Build 0)  -->
<svg version="1.2" baseProfile="tiny" xmlns="http://www.w3.org/2000/svg" xmlns:xlink="http://www.w3.org/1999/xlink" x="0px"
	 y="0px" width="800px" height="800px" viewBox="0 0 800 800" overflow="visible" xml:space="preserve">
<g id="bg">
</g>
<g id="scans" display="none">
</g>
<g id="icons">
</g>
<g id="planes">
	<g>
		<g>
			<path d="M395.3,191.8c1.9-1,3.7-2.4,5.9-2.5c3,0.7,5.3,3.1,7.9,4.7c2.4,1.9,5.3,3.2,7,5.7c5.2,9.8,6.1,21,7.7,31.8
				c0.9,8.9,0.6,17.9,0.9,26.8c12.2,0.3,24.5,0.3,36.7,1.6c-0.9-1.7-2-3.5-2-5.5c-0.4-7.1,0.7-14.1,0.1-21.2
				c0.2-4.7,1.7-10,5.5-13.1c4.2-2.3,9.4,0.1,13.8-1.8c-2-4.9,0.9-9.6,1.3-14.5c2.2-0.7,4.4-1.1,6.7-0.9c0.5,5.1,2.5,10.2,0.7,15.3
				c4.6,3.7,11.9-0.8,16.1,3.9c2.3,3.5,2.8,7.9,3.2,12c-0.2,5.6-0.5,11.3-0.3,16.9c0.2,3.7-1.1,7.2-0.7,10.9c2.7,0.5,5.3,1,8,1.3
				c39.9,4.2,79.7,8.9,119.5,13.2c12.9,1.1,25.9,2.6,38.6,5.2c5.8,1.4,11.9,2.4,16.8,6c3.6,2.5,8,4.6,9.6,9c1.8,4.9,1.2,10.5-1,15.1
				c-4.4,9.4-12.3,16.9-21.3,21.8c-7,3.4-14.5,5.4-21.9,7.6c-8.4,1.9-17,2.7-25.5,4c-6.8,1.2-13.6,2.5-20.5,3.4
				c-6.6,0.8-12.8,3-19.5,3.2c-14.2,2.2-28.4,4.6-42.6,7.2c-10.6,1-21.1,3.2-31.6,4.8c-16.7,3.1-33.7,4.7-50.4,7.8
				c-9.3,1.7-19.3,2.1-27.6,7.1c-7.7,4.6-11.9,13.2-13.6,21.8c-0.7,4.6-3.4,8.8-3.3,13.6c0,15-1.2,30.1-2.2,45.1
				c-1.4,14.2-2.3,28.5-3.6,42.7c-0.6,9.5-2.5,18.9-2.7,28.5c15,1.1,30,2.3,45,3.4c8.6,0.7,17.5,2.2,24.5,7.6
				c6.2,4.1,9,12.2,7.8,19.4c-0.6,5.9-4.7,10.7-8.5,15.1c-4.3,3.5-8.7,7.1-14.1,8.7c-7.9,2.5-16.1,3.7-24.3,3.9
				c-8.3,0.7-16.8,1.4-25.1,0.3c-3.3-3.1-5.1-7.4-8.2-10.6c-1.5,2.9-3.5,5.8-3.8,9.1c-0.5,5.4-0.1,10.9-1.7,16.1
				c-0.8,2.4-1.1,5-1.1,7.6h-1.1c-1.6-6.9-2.8-13.9-3.1-21c-0.1-4.1-1.1-8.1-4.1-11.1c-2.8,2.9-5.2,6.1-7.4,9.4
				c-2.8,0.2-5.6,0.4-8.4,0.4c-10.9-0.6-21.9,0.2-32.6-2.4c-7.9-2.1-16.2-4.2-22.5-9.6c-6.2-4.9-10-12.6-10.8-20.5
				c0.3-7,3.8-14.3,10.1-17.8c8.2-4.7,17.8-4.9,27-5.2c13.5-1.1,27.1-1.9,40.7-3.1c0.2-5.4-0.9-10.8-1.1-16.2
				c-0.9-12.9-3-25.7-3.5-38.6c-0.1-6.6-1-13.1-1.7-19.6c-1.4-12.1-1.2-24.2-2.2-36.3c-0.3-3.8,0.3-7.8-1.4-11.4
				c-1.6-3.4-1.9-7.2-2.7-10.8c-1.8-8.1-7.2-15.5-14.7-19.2c-13.2-6.5-28.1-7.6-42.5-9.8c-25.5-4.1-51.1-7.5-76.5-12.1
				c-10.4-1.6-20.8-3-31.1-5.1c-15.7-2.4-31.3-4.8-47-7.3c-11.1-2-22.4-4.2-32.9-8.5c-6.3-3.4-13.2-6-18.4-11.1
				c-1.7-1.7-3.4-3.3-5-5.2c-1.2-1.3-1.3-3.3-2.7-4.5c-5-3.6-6.7-10.5-5.2-16.3c1-5.4,5.2-9.3,9.5-12.4c8.6-4.9,18.5-6.4,28.2-8.1
				c8.2-1.6,16.5-1.2,24.7-2.4c6.9-1.2,14-1.6,20.9-2.5c25.8-2.3,51.6-5.4,77.5-7.6c11.5-1.8,23.1-2.1,34.5-4
				c-0.4-3-1.8-5.8-1.7-8.9c0.1-5.9,0.8-11.9-0.8-17.7c-0.9-2.9,0.7-5.7,1.8-8.3c1.1-2.4,2.3-5,4.8-6.3c4.2-2.2,9.3,0,13.5-2.3
				c-0.7-0.9-1.7-1.6-2.1-2.7c0.2-3.6,1.6-7.1,3-10.5c1.4-1.5,3.7-1.1,5.6-1.3c0.4,2.8,1.4,5.4,2.5,8c1,2.3-0.2,4.7-0.9,6.9
				c5.3,1.3,12.1-1.2,16.1,3.5c2.5,3.7,3.7,8.3,4,12.8c-0.8,6.5-0.9,13-1.1,19.6c0.1,2.1-1.1,3.8-2.2,5.5
				c12.5-0.5,24.9-0.9,37.4-0.8c-0.3-8.3,0.7-16.6,1.2-24.9c0.2-2.1-2.8-2.9-2.3-5.1c0.2-2.6,0.7-5.4-0.5-7.9c1.3,0.2,2.7,0.3,4,0.5
				c1.2-6.9,2.2-14.2,5.7-20.5C386.7,196.1,391.3,194.2,395.3,191.8z M377.6,222.7c-0.8,1-0.6,1.6,0.6,1.7
				C379,223.4,378.8,222.8,377.6,222.7z"/>
		</g>
	</g>
</g>
<g id="scratch">
</g>
</svg>
