<?xml version="1.0" encoding="utf-8"?>
<!-- Generator: Adobe Illustrator 26.0.2, SVG Export Plug-In . SVG Version: 6.00 Build 0)  -->
<svg version="1.2" baseProfile="tiny" xmlns="http://www.w3.org/2000/svg" xmlns:xlink="http://www.w3.org/1999/xlink" x="0px"
	 y="0px" width="800px" height="800px" viewBox="0 0 800 800" overflow="visible" xml:space="preserve">
<g id="bg">
	<rect x="-100" y="-1100" fill="#A67C52" width="1000" height="4000"/>
</g>
<g id="scans" display="none">
</g>
<g id="icons">
</g>
<g id="planes">
	<g id="_x23_000000ff_00000173883389764578859850000013677007926688572318_">
		<path fill="#FFFFFF" d="M389,179.2c3.1-5.9,5-12.7,9.8-17.5c1.7-2.1,3.8,0.6,4.9,2c3.3,4.9,5.5,10.5,8.2,15.7
			c19.6-5.3,40.2-2.6,59.8,1.5c0.2,0.5,0.5,1.4,0.7,1.8c-6.7,1.4-13.4,3-20.3,3.1c-12,0.3-24.2,0.8-36-1.8c-0.6-0.3-1.7-1-2.2-1.3
			c0.3,4.8,2.4,9.3,3.8,13.9c5.9,3.4,11.4,10.3,7.4,17.2c4.2,3.9,5.1,10.1,2.5,15.1c4.5,4.4,6.2,14.2-1.3,16.5
			c-1.1,5.2,2.2,11.1,7.9,11c10.9,0.7,22,0.6,32.9,0.9c64.4,4.2,128.8,8.5,193.2,13.1c12.2,1,25.3,4.7,33,14.9
			c13.8,17.3,5.6,45.4-13.7,54.9c-29.1,14.7-61.6,20.3-93.6,24.3c-35.8,4.6-72.1,7.2-107.3,15.7c-10.4,2.9-21,4.9-31.1,8.6
			c-9.9,3.7-18.1,11.3-22.3,21c-1.6,16.4-1.9,32.8-3.5,49.1c-1.9,28.5-5.5,56.8-8.8,85.2c-0.5,2.5,0.2,6,3.4,5.9
			c15.9,1.9,31.8,4.7,47.1,9.6c5.8,1.9,11.1,5.6,14.3,10.8c8,13.1,0.3,32.9-14.6,36.8c-13.6,3.3-27.4,5.8-41.4,7.7
			c-2.4,0.3-5.5,0.3-7-2c-3.9-5.8-6.8-12.2-10.3-18.3c-0.2,13.4-1.2,26.7-3.2,40c-0.3,1.9-1.3,3.5-2.9,4.6c-1.8-5.1-2-10.5-2.5-15.8
			c-1.5-8.7,0.9-17.9-2.7-26.1c-4.2,4.1-6,9.7-8.7,14.7c-1.4,2.8-4.8,3.3-7.6,2.8c-14.3-2.1-28.6-4.6-42.5-8.3
			c-7.9-2.3-13.1-9.5-15.7-17c-2-7.9-1-17.2,5.1-23.1c4.8-5.2,11.6-7.5,18.3-9.1c13.7-3.8,27.7-6.1,41.9-7.6
			c0.5-0.4,1.6-1.3,2.1-1.7c-0.4-12.8-2.9-25.5-3.9-38.3c-3.8-33.3-6.1-66.8-7.8-100.3c-3.6-6.6-8.1-13.1-14.7-17.1
			c-8.7-5.1-18.6-7.6-28.3-9.8c-17.5-3.2-35.1-6.1-52.6-9.4c-16.3-2.8-32.4-6.4-48.8-8.5c-19.9-3.2-40-5.6-59.7-9.8
			c-16.8-3.4-33.6-7.8-48.9-15.5c-19.2-9-28.2-36.3-15.5-54c7.4-11.2,21.1-15.3,33.8-16.3c59.9-3.8,119.7-7.5,179.6-11.3
			c16.6-1.5,33.4-0.5,50.1-2.2c2.5-1,3.6-3.6,5.1-5.7c-0.1-1.6-0.1-3.1-0.1-4.7c-2.6-1.3-5.9-3.1-5.2-6.6c-0.7-4.2,2-7.5,4.2-10.7
			c-0.8-1.5-1.6-2.9-2.4-4.4c0.8-3.6,1.8-7.3,4.6-9.9c-3.7-6.9,1.4-14,7.6-17c1.5-4.5,3.1-9,4.4-13.5c-5.8,1.3-11.6,2.7-17.5,2.7
			c-11.5,0.2-23.1,0.5-34.4-1.8c-2.6-0.7-5.3-1.2-8-1.8c3.2-2.3,7.2-2.7,10.9-3.4C355,175.8,372.4,175,389,179.2z"/>
	</g>
</g>
<g id="scratch">
</g>
</svg>
