<?xml version="1.0" encoding="utf-8"?>
<!-- Generator: Adobe Illustrator 26.0.2, SVG Export Plug-In . SVG Version: 6.00 Build 0)  -->
<svg version="1.2" baseProfile="tiny" xmlns="http://www.w3.org/2000/svg" xmlns:xlink="http://www.w3.org/1999/xlink" x="0px"
	 y="0px" width="800px" height="800px" viewBox="0 0 800 800" overflow="visible" xml:space="preserve">
<g id="bg">
	<rect x="-100" y="-3100" fill="#A67C52" width="1000" height="4000"/>
</g>
<g id="scans" display="none">
</g>
<g id="icons">
</g>
<g id="planes">
	<g>
		<g>
			<path fill="#FFFFFF" d="M388.2,159.9c2.6-3.3,4.9-6.9,8.4-9.4c6.8-2.7,10.3,5.2,13.9,9.3c25.3-4,51.2-4.7,76.4-0.2
				c-22.3,12.2-48.9,12-73.4,8.2c-3,1.2-6,2.3-9,3.4l-0.1,2.4c8.6,0.6,18.2-1.9,26.1,2.3c7.8,9.8,8,23.3,3.9,34.8
				c-1.3,0.1-3.8,0.4-5.1,0.6c1.2,6.1,2.4,12.2,3.6,18.3c11.5-0.7,22.8-3.1,34.2-4.7c1.6-2.8,1.1-8.2,5.2-8.8c5.4-2.2,8.8,4.6,9.1,9
				c53.3,0,106.6-0.5,159.8-0.6c1.2-0.7,3.6-2,4.7-2.6c10.4,4.7,22.8,5.9,31.2,14.4c16.3,13.5,20,37.6,11.7,56.5
				c7.2,15.5,6.9,35.2-4.2,48.8c-8.1,9.4-19.2,15.7-30.2,21c-23.1,10.7-49,8.8-73.7,9.2c-38-0.1-76,0.7-114,0.7
				c-4.9,0.6-8.4-2.7-10.5-6.7c-6.5,6.6-13,13.1-20.6,18.4c0.1,51.7-6.3,103.2-17.4,153.6c27.9,4.1,56.5,12.5,78.2,31.3
				c8,6.5,11.4,18.2,7.1,27.8c-3.1,8.7-12,12.8-20,15.8c-16.5,6.1-32.7,13.1-49.4,18.7c-5.9,2-14.3,2.3-17.2-4.4
				c-5.7-8.2-4.9-20.8-12.3-27.5c3,15.2-4.9,30.1-2,45.1c-1.1,1.9-2.3,3.8-3.4,5.6c-0.8-1.4-2.3-4.1-3.1-5.4
				c2.3-15.2-3.9-30.2-3.5-45.5c-3.9,9.1-6.7,18.7-11,27.7c-2.9,6.8-11.7,6.5-17.5,4.3c-16.8-5.6-33.1-12.7-49.7-18.8
				c-7.7-2.9-16.1-6.9-19.2-15.1c-4.2-9.7-1.3-21.5,6.8-28.2c21.7-18.8,50.3-27,78.1-31.4c-10.7-50.2-17.6-101.4-17.2-152.8
				c-7.2-6-14.1-12.3-20.6-19c-2.5,3.8-5.8,7.3-10.8,6.6c-43.5-0.1-87.1-0.8-130.6-0.8c-20.1,0.1-40.9-1-59.2-10.2
				c-15.4-7.7-32.3-18.3-35.7-36.7v-20.7c1.1-3.8,2.4-7.5,3.8-11.2c-1.4-4.6-2.8-9.2-3.8-13.9v-13.6c1.4-13.8,9.6-26.3,21.3-33.5
				c7.8-5.1,17.5-5.8,25.7-10.1c0.9,0.7,2.8,2.2,3.8,3c53.3-0.1,106.6,0.5,159.9,0.6c0.7-4.3,3.4-10.4,8.8-9.4
				c4.5,0.6,4.4,6,5.9,9.2c11.4,1.7,22.7,3.9,34.2,4.9c1.1-6.1,2.3-12.2,3.5-18.3c-1.3-0.2-3.8-0.5-5.1-0.7
				c-4.1-11.3-3.8-24.6,3.6-34.4c8.4-5,19.1-1.7,28.4-3.1c-0.6-0.6-1.8-1.8-2.4-2.4c-4.4-1.1-8.8-3.5-13.4-2.5
				c-22.9,3.6-47.8,2.8-68.5-8.7C337.1,155.3,362.9,155.9,388.2,159.9z M435.5,365.5c0,5.7,0,11.4,0.1,17.1
				c6.3-3.9,11.4-9.3,16.4-14.7C446.4,367.2,441,366.3,435.5,365.5z M346.9,368.1c4.9,5.5,10.4,10.4,16.1,15
				c0.1-5.8,0.2-11.7,0.2-17.5C357.8,366.4,352.4,367.2,346.9,368.1z"/>
		</g>
	</g>
</g>
<g id="scratch">
</g>
</svg>
