<?xml version="1.0" encoding="iso-8859-1"?>
<!-- Generator: Adobe Illustrator 25.4.1, SVG Export Plug-In . SVG Version: 6.00 Build 0)  -->
<svg version="1.1" id="Layer_1" xmlns="http://www.w3.org/2000/svg" xmlns:xlink="http://www.w3.org/1999/xlink" x="0px" y="0px"
	 viewBox="0 0 800 800" enable-background="new 0 0 800 800" xml:space="preserve">
<g>
	<g>
		<path fill="#231F20" d="M521.2,351.6l50.1-20L550.4,380l50.2,20l-50.2,20l20.8,48.5l-50.1-20L500.5,497l-20.7-48.5l-50.1,20
			l20.7-48.5l-50.1-20l50.1-20l-20.7-48.5l49.9,20l20.8-48.5L521.2,351.6z"/>
	</g>
	<polygon fill="#231F20" points="129.8,400 257.6,470.7 257.6,329.3 	"/>
	<g>
		<rect x="332.5" y="358.8" fill="#231F20" width="315.2" height="17.3"/>
		<line fill="#231F20" stroke="#231F20" stroke-width="17" x1="642" y1="371.2" x2="671.2" y2="331.3"/>
		<line fill="#231F20" stroke="#231F20" stroke-width="17" x1="339.7" y1="371.5" x2="310.5" y2="330.5"/>
	</g>
	<g>
		<rect x="332.5" y="431.7" fill="#231F20" width="315.2" height="17.3"/>
		<line fill="#231F20" stroke="#231F20" stroke-width="17" x1="642" y1="436.6" x2="671.2" y2="476.5"/>
		<line fill="#231F20" stroke="#231F20" stroke-width="17" x1="339.7" y1="436.3" x2="310.5" y2="477.4"/>
	</g>
</g>
</svg>
