<?xml version="1.0" encoding="iso-8859-1"?>
<!-- Generator: Adobe Illustrator 25.4.1, SVG Export Plug-In . SVG Version: 6.00 Build 0)  -->
<svg version="1.1" id="Layer_1" xmlns="http://www.w3.org/2000/svg" xmlns:xlink="http://www.w3.org/1999/xlink" x="0px" y="0px"
	 viewBox="0 0 800 800" enable-background="new 0 0 800 800" xml:space="preserve">
<g>
	<g>
		<path d="M400,120c37.8,0,74.5,7.4,109,22c33.3,14.1,63.3,34.3,89,60s45.9,55.7,60,89c14.6,34.5,22,71.2,22,109s-7.4,74.5-22,109
			c-14.1,33.3-34.3,63.3-60,89s-55.7,45.9-89,60c-34.5,14.6-71.2,22-109,22s-74.5-7.4-109-22c-33.3-14.1-63.3-34.3-89-60
			s-45.9-55.7-60-89c-14.6-34.5-22-71.2-22-109s7.4-74.5,22-109c14.1-33.3,34.3-63.3,60-89s55.7-45.9,89-60
			C325.5,127.4,362.2,120,400,120 M400,100c-165.7,0-300,134.3-300,300s134.3,300,300,300s300-134.3,300-300S565.7,100,400,100
			L400,100z"/>
	</g>
	<g>
		<path d="M299.5,681.9c-57.6-20.5-106.9-57.6-142.8-107.4c-36.8-51-56.2-111.4-56.2-174.5c0-63.1,19.4-123.5,56.2-174.5
			c35.8-49.7,85.2-86.8,142.8-107.4V681.9z"/>
		<path d="M299,118.9v562.3c-28.2-10.1-54.7-24.5-78.8-42.6c-24.2-18.2-45.4-39.9-63.1-64.4C120.4,523.2,101,463,101,400
			c0-63,19.4-123.2,56.1-174.2c17.7-24.5,38.9-46.2,63.1-64.4C244.3,143.3,270.8,129,299,118.9 M300,117.4
			c-116.4,41.2-200,152-200,282.6c0,130.6,83.6,241.3,200,282.6V117.4L300,117.4z"/>
	</g>
	<g>
		<g>
			<path d="M470,220c63.9,0,117.1,40.3,128,93.3H342C352.9,260.3,406.1,220,470,220 M470,200c-82.8,0-150,59.7-150,133.3h300
				C620,259.7,552.8,200,470,200L470,200z"/>
		</g>
		
			<polygon fill="none" stroke="#000000" stroke-width="20" stroke-linecap="round" stroke-linejoin="bevel" stroke-miterlimit="10" points="
			468.4,601.7 610.3,328.7 329.9,328.5 		"/>
		
			<line fill="none" stroke="#000000" stroke-width="20" stroke-linecap="round" stroke-linejoin="round" stroke-miterlimit="10" x1="470" y1="333.3" x2="468.6" y2="603.2"/>
	</g>
</g>
</svg>
