<?xml version="1.0" encoding="iso-8859-1"?>
<!-- Generator: Adobe Illustrator 25.4.1, SVG Export Plug-In . SVG Version: 6.00 Build 0)  -->
<svg version="1.1" id="Layer_1" xmlns="http://www.w3.org/2000/svg" xmlns:xlink="http://www.w3.org/1999/xlink" x="0px" y="0px"
	 viewBox="0 0 800 800" enable-background="new 0 0 800 800" xml:space="preserve">
<path fill="#010101" d="M528.2,644.6c-5.7-3.3-12.9-2.8-19.8-2c-6.9,0.8-14.1,5.6-14.1,5.6l-74.7-46.1l46.3-30.8l7.3,2.4l13.6-7.6
	c0,0,1.8-1.8,5.1-0.9c3.3,0.9,8.2,10,11.2,13.9c3,3.9,8.5,15.7,12.1,25.7c3.6,10,4.8,14.2,7.6,13.3c2.7-0.9,2.7-0.9,0.9-14.2
	s-7.3-43.9-26.9-66.8c-19.7-23-47.8-33.9-54.1-36.3c-6.4-2.4-12.7-5.7-14.2-2.7c-1.5,3,4.2,6.4,11.5,9.4c7.3,3,14.5,9.4,21.8,14.8
	c7.3,5.4,12.4,15.1,12.4,15.1l0.6,4.8L459,554.2l-0.3,7.9l-52.2,32L354,561.7l9.7-16.7c0,0,2-3.2,1.6-6
	c-0.4-2.8-23.8-16.5-29.8-20.2c-6-3.6-16.9-6-31-8.1c-14.1-2-27.4,0.4-30.2,3.6c-2.8,3.2-1.2,16.5,1.2,23.8
	c2.4,7.3,11.3,25,14.1,28.2c2.8,3.2,33.9,27.4,35.9,27.4c2,0,4-2.4,4-2.4l16.1-17.7l46.4,29.3l-125.1,76.7l3,9.7l7,7.6l128.7-85.4
	l78.7,49.7c0,0,1.2,6,0.8,12.1c-0.4,6,3.2,15.3,3.6,17.3c0.4,2,5.2,8.1,10.1,6c4.8-2,18.1-21.4,18.1-21.4s14.9-19.4,15.7-22.6
	C533.5,649.4,533.5,647.6,528.2,644.6z M510.4,668.8c-4.8,6.7-9.7,12.1-11.5,11.2c-1.8-0.9,0-13.6,2.7-17.2
	c2.6-3.5,13.3-9.7,15.7-8.5C519.8,655.5,515.2,662.1,510.4,668.8z"/>
<g>
	<polygon fill="#231F20" points="718.3,315.9 590.5,386.6 590.5,245.3 	"/>
	<g>
		
			<rect x="200.4" y="274.8" transform="matrix(-1 -4.489710e-11 4.489710e-11 -1 716.0551 566.868)" fill="#231F20" width="315.2" height="17.3"/>
		<line fill="#231F20" stroke="#231F20" stroke-width="17" x1="206.2" y1="287.1" x2="177" y2="247.2"/>
		<line fill="#231F20" stroke="#231F20" stroke-width="17" x1="508.4" y1="287.4" x2="537.7" y2="246.4"/>
	</g>
	<g>
		
			<rect x="200.4" y="347.6" transform="matrix(-1 -4.489710e-11 4.489710e-11 -1 716.0551 712.5471)" fill="#231F20" width="315.2" height="17.3"/>
		<line fill="#231F20" stroke="#231F20" stroke-width="17" x1="206.2" y1="352.6" x2="177" y2="392.5"/>
		<line fill="#231F20" stroke="#231F20" stroke-width="17" x1="508.4" y1="352.3" x2="537.7" y2="393.3"/>
	</g>
</g>
</svg>
