<?xml version="1.0" encoding="iso-8859-1"?>
<!-- Generator: Adobe Illustrator 25.4.1, SVG Export Plug-In . SVG Version: 6.00 Build 0)  -->
<svg version="1.1" id="Layer_1" xmlns="http://www.w3.org/2000/svg" xmlns:xlink="http://www.w3.org/1999/xlink" x="0px" y="0px"
	 viewBox="0 0 800 800" enable-background="new 0 0 800 800" xml:space="preserve">
<path fill="#010101" d="M527.6,647.6c-5.7-3.3-12.9-2.8-19.8-2c-6.9,0.8-14.1,5.6-14.1,5.6L419,605.1l46.3-30.8l7.3,2.4l13.6-7.6
	c0,0,1.8-1.8,5.1-0.9c3.3,0.9,8.2,10,11.2,13.9c3,3.9,8.5,15.7,12.1,25.7c3.6,10,4.8,14.2,7.6,13.3c2.7-0.9,2.7-0.9,0.9-14.2
	s-7.3-43.9-26.9-66.8c-19.7-23-47.8-33.9-54.1-36.3c-6.4-2.4-12.7-5.7-14.2-2.7c-1.5,3,4.2,6.4,11.5,9.4c7.3,3,14.5,9.4,21.8,14.8
	c7.3,5.4,12.4,15.1,12.4,15.1l0.6,4.8l-15.7,11.8L458,565l-52.2,32l-52.4-32.3l9.7-16.7c0,0,2-3.2,1.6-6
	c-0.4-2.8-23.8-16.5-29.8-20.2c-6-3.6-16.9-6-31-8.1c-14.1-2-27.4,0.4-30.2,3.6c-2.8,3.2-1.2,16.5,1.2,23.8
	c2.4,7.3,11.3,25,14.1,28.2c2.8,3.2,33.9,27.4,35.9,27.4c2,0,4-2.4,4-2.4l16.1-17.7l46.4,29.3l-125.1,76.7l3,9.7l7,7.6l128.7-85.4
	l78.7,49.7c0,0,1.2,6,0.8,12.1c-0.4,6,3.2,15.3,3.6,17.3c0.4,2,5.2,8.1,10.1,6c4.8-2,18.1-21.4,18.1-21.4s14.9-19.4,15.7-22.6
	C532.8,652.4,532.8,650.6,527.6,647.6z M509.7,671.8c-4.8,6.7-9.7,12.1-11.5,11.2c-1.8-0.9,0-13.6,2.7-17.2
	c2.6-3.5,13.3-9.7,15.7-8.5C519.1,658.5,514.6,665.1,509.7,671.8z"/>
<g>
	<ellipse fill="none" stroke="#231F20" stroke-width="50" cx="398.7" cy="300" rx="160" ry="133.3"/>
	<line fill="none" stroke="#231F20" stroke-width="50" x1="158.7" y1="300" x2="238.7" y2="300"/>
	<line fill="none" stroke="#231F20" stroke-width="50" x1="558.7" y1="300" x2="638.7" y2="300"/>
	<g>
		<line fill="none" stroke="#231F20" stroke-width="50" x1="398.7" y1="100" x2="398.7" y2="166.7"/>
		<line fill="none" stroke="#231F20" stroke-width="50" x1="398.7" y1="433.3" x2="398.7" y2="500"/>
	</g>
	<g>
		<line fill="none" stroke="#231F20" stroke-width="50" x1="229" y1="158.6" x2="285.6" y2="205.7"/>
		<line fill="none" stroke="#231F20" stroke-width="50" x1="511.8" y1="394.3" x2="568.4" y2="441.4"/>
	</g>
	<g>
		<line fill="none" stroke="#231F20" stroke-width="50" x1="219.3" y1="433.3" x2="275.9" y2="386.2"/>
		<line fill="none" stroke="#231F20" stroke-width="50" x1="502.1" y1="197.6" x2="558.7" y2="150.5"/>
	</g>
</g>
</svg>
