<?xml version="1.0" encoding="iso-8859-1"?>
<!-- Generator: Adobe Illustrator 25.4.1, SVG Export Plug-In . SVG Version: 6.00 Build 0)  -->
<svg version="1.1" id="Layer_1" xmlns="http://www.w3.org/2000/svg" xmlns:xlink="http://www.w3.org/1999/xlink" x="0px" y="0px"
	 viewBox="0 0 800 800" enable-background="new 0 0 800 800" xml:space="preserve">
<g>
	<path fill="#010101" d="M389.8,133.9c2.2-2.5,5.9-3,7.8-5.8c1.5,0,3,0,4.5,0.1c1.1,1.8,3.5,1.7,5.1,2.9
		c8.1,5.9,11.5,15.7,14.5,24.8c2.3,8.8,3.9,17.8,4.3,26.9c1.3,1.4,2.7,2.9,2.7,4.9c0.3,4.1,3.2,7.6,2.8,11.8
		c-0.1,16.9,0,33.9-0.1,50.8c0.2,2.1-2.5,2.3-3.9,3.1c0,2.3,0,4.6,0.1,6.9c3.3,1.9,7.3,1.6,11,1.8c12.7,1.3,25.4,1.7,38,2.7
		c19.9,1.6,39.7,2.7,59.6,4.4c18.4,0.9,36.8,2.8,55.2,3.7c18.5,1.5,37.1,2.6,55.7,4c4.2,0.6,8.4,0,12.6,0.6
		c10.2,0.3,20.4,3.3,28.7,9.3c6.5,5.4,11.7,13,11.7,21.7c-0.3,11.3-6.7,22.7-17,27.8c-4.8,4.3-10.7,7.3-16.7,9.7
		c-7.3,2.5-15.1,3.2-22.6,5c-1.8,0.4-2.8,2.4-4.7,2.5c-5.1,0.9-10.2,3.3-15.3,1.3c-29.4,5.9-58.8,11.3-88.1,17.4
		c-17.6,3.3-35,7.3-52.6,10.5c-10.7,1.9-21.3,4.4-31.9,6.5c-0.3,0.2-1,0.7-1.4,0.9c-5,0-9.8,1.7-14.8,2.6c-3.7,0.6-7.8,2.1-9.4,5.8
		c-0.4,5.1,0.3,10.3-0.6,15.4c0,18-2.2,35.9-2.7,53.9c-1.5,16-2.6,32-4.3,48c0.6-0.1,1.9-0.4,2.6-0.6c-0.7,0.3-2.1,1-2.8,1.4
		c-0.4,7.2-1.5,14.4-2.2,21.7c-1.3,15.8-3.8,31.5-5.2,47.3c-0.2,0.8-0.5,2.3-0.7,3.1c3.3,1.1,6.8,1.8,10.3,2.2
		c17.4,3.2,34.7,6.1,52.1,9.1c6.9,0.9,14.5,3.6,17.5,10.4c2.7,5.5,3.3,11.9,1.9,17.8c-1.7,5.5-5.6,10.6-10.9,13
		c-5.8,2.4-12.2,1.3-18.3,2.6c-0.8,0.4-1.6,0.9-2.3,1.5c-3.8,0-7.6,1.5-11.4,0.5c-4.6-1.1-9.4,0.2-14,0.5c-4.6,0.3-9.1,0.9-13.6,1.3
		c-2.5,0.3-5.1-0.8-6.7-2.8c-3.4-4.2-6.4-8.8-9.9-13c-1.4,5.2,0,10.7-1.1,16c0.1,7.9-0.9,15.8-0.6,23.8c-0.5,0.2-1.5,0.5-2,0.6
		c-0.8-2.8-0.6-5.6-1-8.4c-0.5-8.6-2.2-17.1-2.4-25.8c-0.1-1.6-0.5-3.2-0.8-4.8c-2.8,3.4-5.2,7.1-7.7,10.7c-1.9,2.7-5.6,3.5-8.7,3.2
		c-4.9-0.4-9.8-1-14.7-1.7c-4.6,0.2-9.3-1.6-13.8-0.1c-4.6,0-9.6-0.1-13.7-2.4c-6.1-1-12.7-0.2-18.4-3.2c-7-4.9-10.9-13.7-9.9-22.2
		c1.3-4.4,2.3-9.4,6.2-12.3c4.8-4.5,11.8-4.8,17.9-6c19.1-3.7,38.5-6.6,57.5-10.6c-0.4-7.7-2.1-15.3-2.5-23.1
		c-0.8-5.2-1.2-10.5-1.7-15.8c-0.7-4.8-1.3-9.7-1.6-14.5c-0.3-0.3-0.8-0.9-1.1-1.2c0.3-1.2,0.9-2.3,0.6-3.6
		c-2.8-23.4-4.1-46.9-6.1-70.4c0.2-14-2.1-27.9-2.3-41.8c-0.4-6.3-1-12.6-0.9-18.9c-1.5-1.9-2.5-4.5-4.8-5.5
		c-2.9-1.4-6.2-1.5-9.3-2.2c-28.3-6.5-56.9-11.4-85.2-17.4c-19.9-4.1-39.8-8.1-59.7-11.7c-13.1-3-26.3-5.8-39.5-8.1
		c-0.4,0.2-1.2,0.7-1.6,1c-4.6-0.3-9-1.4-13.5-2.4c-2-0.3-3.1-2.6-5.1-2.8c-9.3-2-19-3-27.8-6.9c-10.3-4.6-20.4-11.5-25.5-21.9
		c-3.2-5.8-3.8-12.7-2.9-19.2c2.3-8,8.3-14.6,15.8-18c6.3-2.8,13.1-4.7,19.8-6.2c0.4-8.4-0.6-17,0.6-25.4c1,0.2,2.5,0.4,2.1,1.8
		c0,7.6,0,15.2,0,22.8c70.9-4.7,141.9-9.8,212.8-14.5c2.6,0.1,5.1-0.5,7.7-0.9c-2.1-5.9-3.7-12-3.1-18.4c4.3-0.8,9.4,0.8,13.2-1
		c0.3-15.2-0.1-30.4,0.2-45.6c1.7-4.9,1.8-10.2,5.1-14.4c1.3-12.1,2.6-24.4,7.2-35.8C384.9,142.6,385.6,137.1,389.8,133.9z"/>
</g>
</svg>
