<svg version="1.2" baseProfile="tiny" xmlns="http://www.w3.org/2000/svg" viewBox="0 0 75 75" overflow="visible" xml:space="preserve"><path fill="#DEB887" d="M0 0h75v75H0z"/><path fill="#010101" d="M20.8 21.5h33.6v22.4H20.8V21.5zm31.7 20.6V23.4H22.6v18.7h29.9zm-21-2.8c-2.8 0-5.1-2.3-5.1-5.2v-2.7c0-2.8 2.3-5.1 5.1-5.1h12.1c2.8 0 5.1 2.3 5.1 5.1v2.7c0 2.8-2.3 5.1-5.1 5.2H31.5zm-3.3-7.9v2.7c0 1.8 1.5 3.3 3.3 3.3h12.1c1.8 0 3.3-1.5 3.3-3.3v-2.7c0-1.8-1.4-3.3-3.3-3.3H31.5c-1.8 0-3.3 1.5-3.3 3.3z"/><g fill="#010101"><path d="M17.7 61c0 .5.2 2.2 2.2 2.2 1.3 0 2.2-1 2.2-2.3 0-2.5-2.4-2.5-4.1-2.5v-2.8c1.7 0 4.2-.1 4.2-2.5 0-1.3-1-2-2.1-2-1 0-2 .7-2 2.1h-3.7c.1-.7.1-1.8 1-2.8 1.1-1.3 2.9-1.8 4.7-1.8 4.3 0 5.6 2.7 5.6 4.6 0 2.8-2.5 3.6-3.2 3.8.5.2 1.2.4 2 1 1.2 1 1.4 2.2 1.4 3 0 2.8-2.6 4.9-6.1 4.9-1.2 0-3-.3-4-1.1-1.5-1.2-1.5-3.1-1.5-3.8h3.4zM27.9 57.8h6v2.7h-6v-2.7zM37.1 51.3c1.6-.7 3-1.5 4.4-2.5h3.1v16.8H41v-13c-.7.5-2.1 1.4-3.9 2.1v-3.4zM48.8 62.2l4.3-4c.8-.7 1.6-1.5 2.5-2.5.9-1.1 1.2-1.7 1.2-2.4 0-1.3-.7-2.1-2-2.1-1.9 0-2.1 2-2.1 2.4H49c0-.7 0-1.9 1-3.1 1-1.2 2.7-1.8 4.8-1.8 3.6 0 5.7 2 5.7 4.6 0 1.7-.7 4-7.9 9.8 2.4 0 2.7-.1 4.6-.1 2.6 0 2.9 0 3.4-.1v2.8H48.8v-3.5z"/></g><path fill="#010101" d="m35.3 9.4 2.3 3.3 2.3-3.3h1.5l-3.1 4.1 3.2 4.5H40l-2.6-3.7-2.6 3.7h-1.5l3.4-4.5-3-4.1h1.6z"/><g fill="#010101"><path d="M63.9 39.2 61.8 37c-.4-.5-.9-.9-1.4-1.3-.7-.5-1-.6-1.5-.6-.4 0-1.4.1-1.4 1.3 0 1.3 1.1 1.4 1.5 1.4v1.3c-.4 0-1.2 0-1.8-.8-.5-.6-.6-1.3-.6-1.8 0-1.3.6-2.6 2.4-2.6.5 0 .9 0 2.1.9.3.2 1.4 1.3 1.6 1.5l1.4 1.5v-3.9h.9v5.3h-1.1zM63 31.3c.7 0 1.2-.4 1.2-1.3 0-1.8-2.1-1.8-3.4-1.8.8.4 1 1.2 1 1.9 0 1.3-.9 2.5-2.6 2.5-1.9 0-2.7-1.4-2.7-2.7 0-.9.4-2.2 2-2.7.5-.1 1.1-.2 2.2-.2 1.2 0 4.4 0 4.4 3.1 0 1.1-.4 2.4-2.2 2.5v-1.3zM57.5 30c0 1 .8 1.5 1.8 1.5 1.1 0 1.7-.7 1.7-1.6 0-.9-.7-1.5-1.7-1.5-1.2 0-1.8.7-1.8 1.6z"/></g></svg>