<svg version="1.2" baseProfile="tiny" xmlns="http://www.w3.org/2000/svg" viewBox="0 0 75 75" overflow="visible" xml:space="preserve"><path fill="#DEB887" d="M0 0h75v75H0z"/><path fill="#010101" d="M20.8 21.5h33.6v22.4H20.8V21.5zm15.1 11.2-13.3-8.9v17.7l13.3-8.8zm-10.7-9.3 12.4 8.2L50 23.4H25.2zm12.4 10.5-12.4 8.2h24.7l-12.3-8.2zm1.6-1.2 13.3 8.9V23.9l-13.3 8.8z"/><g fill="#010101"><path d="m20.8 62.2 4.3-4c.8-.7 1.6-1.5 2.5-2.5.9-1.1 1.2-1.7 1.2-2.4 0-1.3-.7-2.1-2-2.1-1.9 0-2.1 2-2.1 2.4H21c0-.7 0-1.9 1-3.1 1-1.2 2.7-1.8 4.8-1.8 3.6 0 5.7 2 5.7 4.6 0 1.7-.7 4-7.9 9.8 2.4 0 2.7-.1 4.6-.1 2.6 0 2.9 0 3.4-.1v2.8H20.8v-3.5zM34.6 57.8h6v2.7h-6v-2.7zM41.9 61.9v-3.2l6.7-9.9h3.6v10.3h2.3v2.8h-2.3v3.6h-3.6v-3.6h-6.7zm2.7-2.7h4.2V53l-4.2 6.2z"/></g><path fill="#010101" d="m35.3 9.4 2.3 3.3 2.3-3.3h1.5l-3.1 4.1 3.2 4.5H40l-2.6-3.7-2.6 3.7h-1.5l3.4-4.5-3-4.1h1.6z"/><g fill="#010101"><path d="M56.4 45.9v-5.2h1v3.9h2.7v-3.7h1v3.7H65v1.2h-8.6zM60.2 39.5c-.4 0-.8 0-1.2.1v-1.1h1.2c-.8-.2-1.1-.9-1.2-1.4v-.8h1.1v.5c0 1.3.8 1.6 1.8 1.6h3.2v1.1h-4.9zM63.6 35.6v-1.3H65v1.3h-1.4zM56.4 32.1v-1.2H64v-4h1.1v5.2h-8.7zM59 26.5v-1.1h-1.3l-.4-1.1h1.6V23h.8v1.3h3.6c.3 0 .8 0 .8-.8 0-.2 0-.4-.1-.5h.9c0 .2.1.5.1.9 0 1-.3 1.5-1.3 1.5h-4v1.1H59zM63.6 21.6v-1.3H65v1.3h-1.4z"/></g></svg>