<svg version="1.2" baseProfile="tiny" xmlns="http://www.w3.org/2000/svg" viewBox="0 0 75 75" overflow="visible" xml:space="preserve"><path fill="#DEB887" d="M0 0h75v75H0z"/><path fill="#010101" d="M20.8 21.5h33.6v22.4H20.8V21.5zm15.1 11.2-13.3-8.9v17.7l13.3-8.8zm-10.7-9.3 12.4 8.2L50 23.4H25.2zm12.4 10.5-12.4 8.2h24.7l-12.3-8.2zm1.6-1.2 13.3 8.9V23.9l-13.3 8.8z"/><g fill="#010101"><path d="M20.6 61.9v-3.2l6.7-9.9h3.6v10.3h2.3v2.8h-2.3v3.6h-3.6v-3.6h-6.7zm2.7-2.7h4.2V53l-4.2 6.2zM34.6 57.8h6v2.7h-6v-2.7zM41.9 61.9v-3.2l6.7-9.9h3.6v10.3h2.3v2.8h-2.3v3.6h-3.6v-3.6h-6.7zm2.7-2.7h4.2V53l-4.2 6.2z"/></g><path fill="#010101" d="m35.3 9.4 2.3 3.3 2.3-3.3h1.5l-3.1 4.1 3.2 4.5H40l-2.6-3.7-2.6 3.7h-1.5l3.4-4.5-3-4.1h1.6z"/><g fill="#010101"><path d="M58 39.8c.4.5.9 1.3 1.2 1.9H58c-.4-.8-.9-1.5-1.3-2v-1.1H65v1.2h-7zM58.7 31.7c-1 0-1.2.7-1.2 1.3 0 1.2 1 1.7 3.2 1.8-.4-.3-1.1-.7-1.1-1.9 0-1.4.9-2.5 2.7-2.5 1.9 0 2.9 1.4 2.9 2.8 0 .8-.3 1.6-.9 2.1-.8.6-2 .8-3.1.8-1.8 0-4.7-.4-4.7-3.1 0-1.1.5-1.7.8-2 .5-.4 1-.4 1.3-.4v1.1zm3.7-.2c-.6 0-1.8.2-1.8 1.5 0 1.1.9 1.7 1.9 1.7 1.1 0 1.9-.7 1.9-1.6-.1-.7-.6-1.6-2-1.6zM56.5 26.6c0-2.5 2.7-2.8 4.2-2.8 2 0 3.1.4 3.8 1.2.6.6.6 1.3.6 1.7 0 1.1-.6 1.9-1.4 2.2-.6.3-1.4.5-2.8.5-1.2 0-4.4-.2-4.4-2.8zm7.7 0c0-1.4-1.8-1.6-3.3-1.6-2 0-3.4.3-3.4 1.6 0 1.5 1.9 1.6 3.4 1.6 1.8 0 3.3-.3 3.3-1.6z"/></g></svg>