<svg version="1.2" baseProfile="tiny" xmlns="http://www.w3.org/2000/svg" viewBox="0 0 75 75" overflow="visible" xml:space="preserve"><path fill="#DEB887" d="M0 0h75v75H0z"/><path fill="#010101" d="M20.8 21.5h33.6v22.4H20.8V21.5zm31.7 20.6V23.4H22.6v18.7h29.9zm-21-2.8c-2.8 0-5.1-2.3-5.1-5.2v-2.7c0-2.8 2.3-5.1 5.1-5.1h12.1c2.8 0 5.1 2.3 5.1 5.1v2.7c0 2.8-2.3 5.1-5.1 5.2H31.5zm-3.3-7.9v2.7c0 1.8 1.5 3.3 3.3 3.3h12.1c1.8 0 3.3-1.5 3.3-3.3v-2.7c0-1.8-1.4-3.3-3.3-3.3H31.5c-1.8 0-3.3 1.5-3.3 3.3z"/><g fill="#010101"><path d="M14.5 53.2c0-2 1.7-4.7 5.8-4.7 3.4 0 5.7 1.9 5.7 4.5 0 2-1.6 3.4-3.3 3.7.7.2 1.8.5 2.7 1.7.6.8.8 1.7.8 2.5 0 3.1-2.9 4.9-6.1 4.9-3.4 0-5.8-2.2-5.8-4.9 0-1.3.5-2.2 1.2-2.9.8-.8 1.6-1 2.2-1.2-.9-.3-3.2-1-3.2-3.6zm8.1 7.5c0-1.5-1.1-2.4-2.4-2.4-1.4 0-2.4 1.1-2.4 2.5 0 1.7 1.3 2.5 2.4 2.5 1.1-.1 2.4-.7 2.4-2.6zm-.1-7.5c0-1.4-1.1-2.1-2.2-2.1-1.2 0-2.2.8-2.2 2.1 0 1.2.8 2.2 2.2 2.2 1.2 0 2.2-.8 2.2-2.2zM27.9 57.8h6v2.7h-6v-2.7zM37.1 51.3c1.6-.7 3-1.5 4.4-2.5h3.1v16.8H41v-13c-.7.5-2.1 1.4-3.9 2.1v-3.4zM48.8 62.2l4.3-4c.8-.7 1.6-1.5 2.5-2.5.9-1.1 1.2-1.7 1.2-2.4 0-1.3-.7-2.1-2-2.1-1.9 0-2.1 2-2.1 2.4H49c0-.7 0-1.9 1-3.1 1-1.2 2.7-1.8 4.8-1.8 3.6 0 5.7 2 5.7 4.6 0 1.7-.7 4-7.9 9.8 2.4 0 2.7-.1 4.6-.1 2.6 0 2.9 0 3.4-.1v2.8H48.8v-3.5z"/></g><path fill="#010101" d="m35.3 9.4 2.3 3.3 2.3-3.3h1.5l-3.1 4.1 3.2 4.5H40l-2.6-3.7-2.6 3.7h-1.5l3.4-4.5-3-4.1h1.6z"/><g fill="#010101"><path d="M63 45.9c.8 0 1.2-.8 1.2-1.4 0-1.5-1.4-1.6-1.9-1.6-1.1 0-1.8.6-1.8 1.6 0 .5.2.9.4 1.1s.5.3.7.4v1.1l-4.9-.2v-4.7h1v3.6l2.7.2c-.3-.3-.8-.8-.8-1.8 0-1.7 1.3-2.5 2.7-2.5 1.6 0 2.9 1.2 2.9 3 0 1.3-.7 2.4-2.2 2.5v-1.3zM58.5 34.2c-.8.1-1.4.8-1.4 2 0 .8.2 1.5.7 2 .8.8 2 .9 2.8.9.7 0 2-.2 2.7-.8.6-.6.9-1.4.9-2.3 0-1-.2-1.6-.3-1.9h-2.6v2h-1v-3.2h4.3c.2.5.5 1.6.5 3.1 0 1.6-.5 2.5-1.1 3.1-.9.9-2.1 1.2-3.3 1.2-.9 0-2.9-.2-4-1.9-.6-.9-.6-2-.6-2.4 0-.7.1-1.7.9-2.6.5-.5 1-.6 1.4-.6v1.4zM56.4 26.6v-1.1h8.7v1.1h-1c.2.1.4.2.6.5.3.5.4 1.1.4 1.5 0 .8-.4 2.6-3.1 2.6-2.3 0-3.3-1.3-3.3-2.7 0-1.3.8-1.7 1-1.9h-3.3zm3.8.4c-.3.2-.6.7-.6 1.3 0 1.7 2 1.7 2.4 1.7 1.1 0 2.3-.3 2.3-1.7 0-1.8-2-1.8-2.4-1.8-.9 0-1.3.2-1.7.5zM63.2 22.8c.5 0 1.1-.2 1.1-1.3 0-.5-.1-.8-.4-1.1-.2-.1-.4-.2-.6-.2-.6 0-.7.4-.9 1.3-.3 1.3-.5 2.3-1.8 2.3-1.1 0-1.8-1-1.8-2.4 0-.8.2-1.8.9-2.2.3-.2.6-.2.9-.2v1.2c-.9 0-1 .8-1 1.2 0 .2 0 1.2.9 1.2.6 0 .7-.5.8-.9.4-1.7.5-2 .8-2.4.3-.3.7-.5 1.1-.5.7 0 1.2.4 1.5.8.3.5.4 1.2.4 1.8 0 1.2-.5 2.4-2 2.4v-1z"/></g></svg>