<svg version="1.2" baseProfile="tiny" xmlns="http://www.w3.org/2000/svg" viewBox="0 0 75 75" overflow="visible" xml:space="preserve"><path fill="#C1C0C0" d="M0 0h75v75H0z"/><path fill="#010101" d="M20.8 21.5h33.6v22.4H20.8V21.5zm31.7 20.6V23.4H22.6v18.7h29.9zm-21-2.8c-2.8 0-5.1-2.3-5.1-5.2v-2.7c0-2.8 2.3-5.1 5.1-5.1h12.1c2.8 0 5.1 2.3 5.1 5.1v2.7c0 2.8-2.3 5.1-5.1 5.2H31.5zm-3.3-7.9v2.7c0 1.8 1.5 3.3 3.3 3.3h12.1c1.8 0 3.3-1.5 3.3-3.3v-2.7c0-1.8-1.4-3.3-3.3-3.3H31.5c-1.8 0-3.3 1.5-3.3 3.3z"/><g fill="#010101"><path d="M18.4 61c0 .5.2 2.2 2.2 2.2 1.3 0 2.2-1 2.2-2.3 0-2.5-2.4-2.5-4.1-2.5v-2.8c1.7 0 4.2-.1 4.2-2.5 0-1.3-1-2-2.1-2-1 0-2 .7-2 2.1h-3.7c.1-.7.1-1.8 1-2.8 1.1-1.3 2.9-1.8 4.7-1.8 4.3 0 5.6 2.7 5.6 4.6 0 2.8-2.5 3.6-3.2 3.8.5.2 1.2.4 2 1 1.2 1 1.4 2.2 1.4 3 0 2.8-2.6 4.9-6.1 4.9-1.2 0-3-.3-4-1.1C15 63.6 15 61.7 15 61h3.4zM28.6 57.8h6v2.7h-6v-2.7zM37.8 51.3c1.6-.7 3-1.5 4.4-2.5h3.1v16.8h-3.6v-13c-.7.5-2.1 1.4-3.9 2.1v-3.4zM54.2 48.6c2.4 0 3.7 1.3 4.4 2.2.9 1.3 1.5 2.9 1.5 6 0 3.9-.9 9-5.9 9-4.3 0-5.8-4.1-5.8-8.6 0-2.2.4-8.6 5.8-8.6zm1.9 4.7c-.1-.5-.5-1.9-1.8-1.9-1 0-1.5.9-1.7 1.4-.6 1.7-.6 4.3-.6 4.7 0 2.9.4 5.5 2.2 5.5 1.9 0 2.2-3.3 2.2-5.6.1-1 0-3-.3-4.1z"/></g><path fill="#010101" d="m35.3 9.4 2.3 3.3 2.3-3.3h1.5l-3.1 4.1 3.2 4.5H40l-2.6-3.7-2.6 3.7h-1.5l3.4-4.5-3-4.1h1.6z"/><g fill="#010101"><path d="M58 39.8c.4.5.9 1.3 1.2 1.9H58c-.4-.8-.9-1.5-1.3-2v-1.1H65v1.2h-7zM63 34.7c.8 0 1.2-.8 1.2-1.4 0-1.5-1.4-1.6-1.9-1.6-1.1 0-1.8.6-1.8 1.6 0 .5.2.9.4 1.1s.5.3.7.4v1.1l-4.9-.2V31h1v3.6l2.7.2c-.3-.3-.8-.8-.8-1.8 0-1.7 1.3-2.5 2.7-2.5 1.6 0 2.9 1.2 2.9 3 0 1.3-.7 2.4-2.2 2.5v-1.3zM56.5 26.6c0-2.5 2.7-2.8 4.2-2.8 2 0 3.1.4 3.8 1.2.6.6.6 1.3.6 1.7 0 1.1-.6 1.9-1.4 2.2-.6.3-1.4.5-2.8.5-1.2 0-4.4-.2-4.4-2.8zm7.7 0c0-1.4-1.8-1.6-3.3-1.6-2 0-3.4.3-3.4 1.6 0 1.5 1.9 1.6 3.4 1.6 1.8 0 3.3-.3 3.3-1.6z"/></g></svg>