<svg version="1.2" baseProfile="tiny" xmlns="http://www.w3.org/2000/svg" viewBox="0 0 75 75" overflow="visible" xml:space="preserve"><path fill="#010101" d="M0 0h75v75H0z"/><path fill="#FFF" d="M20.8 21.5h33.6v22.4H20.8V21.5zm31.7 20.6V23.4H22.6v18.7h29.9zm-21-2.8c-2.8 0-5.1-2.3-5.1-5.2v-2.7c0-2.8 2.3-5.1 5.1-5.1h12.1c2.8 0 5.1 2.3 5.1 5.1v2.7c0 2.8-2.3 5.1-5.1 5.2H31.5zm-3.3-7.9v2.7c0 1.8 1.5 3.3 3.3 3.3h12.1c1.8 0 3.3-1.5 3.3-3.3v-2.7c0-1.8-1.4-3.3-3.3-3.3H31.5c-1.8 0-3.3 1.5-3.3 3.3z"/><g fill="#FFF"><path d="M15.8 48.8h11.4v3l-5.8 13.8h-4l6.1-13.9h-7.7v-2.9zM28 57.8h6v2.7h-6v-2.7zM37.2 51.3c1.6-.7 3-1.5 4.4-2.5h3.1v16.8h-3.6v-13c-.7.5-2.1 1.4-3.9 2.1v-3.4zM53.6 48.6c2.4 0 3.7 1.3 4.4 2.2.9 1.3 1.5 2.9 1.5 6 0 3.9-.9 9-5.9 9-4.3 0-5.8-4.1-5.8-8.6-.1-2.2.4-8.6 5.8-8.6zm1.8 4.7c-.1-.5-.5-1.9-1.8-1.9-1 0-1.5.9-1.7 1.4-.6 1.7-.6 4.3-.6 4.7 0 2.9.4 5.5 2.2 5.5 1.9 0 2.2-3.3 2.2-5.6.1-1 0-3-.3-4.1z"/></g><g fill="#FFF"><path d="M33.6 9.4h1.2v8.7h-1.2V9.4zM36.9 9.4h1.2v8.7h-1.2V9.4zM40.2 9.4h1.2v8.7h-1.2V9.4z"/></g><g fill="#FFF"><path d="M58 41.2c.4.5.9 1.3 1.2 1.9H58c-.4-.8-.9-1.5-1.3-2V40H65v1.2h-7zM62.5 35.9c.6 0 1.7-.1 1.7-2.1 0-1.8-1.1-2-1.5-2-1 0-1.2.8-1.5 2-.3 1.3-.5 1.9-.8 2.4-.5.7-1.1.9-1.7.9-1.8 0-2.5-1.7-2.5-3.3 0-.6.1-1.7.9-2.4.5-.5 1.1-.5 1.5-.5v1.2c-1.1.1-1.3 1-1.3 1.8 0 1.2.5 1.9 1.4 1.9.8 0 1-.5 1.3-1.6.5-2.1.6-2.3.9-2.8.5-.8 1.4-.9 1.7-.9 1.5 0 2.7 1.2 2.7 3.4 0 .7-.1 2-1 2.7-.6.5-1.3.5-1.8.5v-1.2zM62.5 27.9c.6 0 1.7-.1 1.7-2.1 0-1.8-1.1-2-1.5-2-1 0-1.2.8-1.5 2-.3 1.3-.5 1.9-.8 2.4-.5.7-1.1.9-1.7.9-1.8 0-2.5-1.7-2.5-3.3 0-.6.1-1.7.9-2.4.5-.5 1.1-.5 1.5-.5v1.2c-1.1.1-1.3 1-1.3 1.8 0 1.2.5 1.9 1.4 1.9.8 0 1-.5 1.3-1.6.5-2.1.6-2.3.9-2.8.5-.8 1.4-.9 1.7-.9 1.5 0 2.7 1.2 2.7 3.4 0 .7-.1 2-1 2.7-.6.5-1.3.5-1.8.5v-1.2z"/></g></svg>