<svg version="1.2" baseProfile="tiny" xmlns="http://www.w3.org/2000/svg" viewBox="0 0 75 75" overflow="visible" xml:space="preserve"><path fill="#010101" d="M0 0h75v75H0z"/><path fill="#FFF" d="M20.8 21.5h33.6v22.4H20.8V21.5zm31.7 20.6V23.4H22.6v18.7h29.9zm-21-2.8c-2.8 0-5.1-2.3-5.1-5.2v-2.7c0-2.8 2.3-5.1 5.1-5.1h12.1c2.8 0 5.1 2.3 5.1 5.1v2.7c0 2.8-2.3 5.1-5.1 5.2H31.5zm-3.3-7.9v2.7c0 1.8 1.5 3.3 3.3 3.3h12.1c1.8 0 3.3-1.5 3.3-3.3v-2.7c0-1.8-1.4-3.3-3.3-3.3H31.5c-1.8 0-3.3 1.5-3.3 3.3z"/><g fill="#FFF"><path d="M23.1 52.9c-.1-1.2-.9-1.7-1.8-1.7-2.4 0-2.5 3-2.5 4.7.6-.6 1.5-1.3 3.3-1.3 2.3 0 4.8 1.7 4.8 5.3 0 1.8-.5 3.2-1.8 4.4-1.1 1-2.4 1.6-4.3 1.6-5.8 0-5.8-5.6-5.8-7.6 0-3.4.4-6.8 2.7-8.5 1.5-1.1 3.2-1.2 3.9-1.2 2.5 0 4.9 1.3 5 4.4h-3.5zm.3 7.3c0-1.8-1-2.9-2.2-2.9-.6 0-2.4.4-2.4 3 0 2.1 1.1 2.9 2.3 2.9 1 0 2.3-.7 2.3-3zM28.6 57.8h6v2.7h-6v-2.7zM37.8 51.3c1.6-.7 3-1.5 4.4-2.5h3.1v16.8h-3.6v-13c-.7.5-2.1 1.4-3.9 2.1v-3.4zM54.2 48.6c2.4 0 3.7 1.3 4.4 2.2.9 1.3 1.5 2.9 1.5 6 0 3.9-.9 9-5.9 9-4.3 0-5.8-4.1-5.8-8.6 0-2.2.4-8.6 5.8-8.6zm1.9 4.7c-.1-.5-.5-1.9-1.8-1.9-1 0-1.5.9-1.7 1.4-.6 1.7-.6 4.3-.6 4.7 0 2.9.4 5.5 2.2 5.5 1.9 0 2.2-3.3 2.2-5.6.1-1 0-3-.3-4.1z"/></g><g fill="#FFF"><path d="M33.6 9.4h1.2v8.7h-1.2V9.4zM36.9 9.4h1.2v8.7h-1.2V9.4zM40.2 9.4h1.2v8.7h-1.2V9.4z"/></g><g fill="#FFF"><path d="M58 44.5c.4.5.9 1.3 1.2 1.9H58c-.4-.8-.9-1.5-1.3-2v-1.1H65v1.2h-7zM63.9 40.6l-2.1-2.2c-.4-.5-.9-.9-1.4-1.3-.7-.5-1-.6-1.5-.6-.4 0-1.4.1-1.4 1.3 0 1.3 1.1 1.4 1.5 1.4v1.3c-.4 0-1.2 0-1.8-.8-.5-.6-.6-1.3-.6-1.8 0-1.3.6-2.6 2.4-2.6.5 0 .9 0 2.1.9.3.2 1.4 1.3 1.6 1.5l1.4 1.5v-3.9h.9v5.3h-1.1zM62.5 32.6c.6 0 1.7-.1 1.7-2.1 0-1.8-1.1-2-1.5-2-1 0-1.2.8-1.5 2-.3 1.3-.5 1.9-.8 2.4-.5.7-1.1.9-1.7.9-1.8 0-2.5-1.7-2.5-3.3 0-.6.1-1.7.9-2.4.5-.5 1.1-.5 1.5-.5v1.2c-1.1.1-1.3 1-1.3 1.8 0 1.2.5 1.9 1.4 1.9.8 0 1-.5 1.3-1.6.5-2.1.6-2.3.9-2.8.5-.8 1.4-.9 1.7-.9 1.5 0 2.7 1.2 2.7 3.4 0 .7-.1 2-1 2.7-.6.5-1.3.5-1.8.5v-1.2zM62.5 24.6c.6 0 1.7-.1 1.7-2.1 0-1.8-1.1-2-1.5-2-1 0-1.2.8-1.5 2-.3 1.3-.5 1.9-.8 2.4-.5.7-1.1.9-1.7.9-1.8 0-2.5-1.7-2.5-3.3 0-.6.1-1.7.9-2.4.5-.5 1.1-.5 1.5-.5v1.2c-1.1.1-1.3 1-1.3 1.8 0 1.2.5 1.9 1.4 1.9.8 0 1-.5 1.3-1.6.5-2.1.6-2.3.9-2.8.5-.8 1.4-.9 1.7-.9 1.5 0 2.7 1.2 2.7 3.4 0 .7-.1 2-1 2.7-.6.5-1.3.5-1.8.5v-1.2z"/></g></svg>