<svg version="1.2" baseProfile="tiny" xmlns="http://www.w3.org/2000/svg" viewBox="0 0 75 75" overflow="visible" xml:space="preserve"><path fill="#C1C0C0" d="M0 0h75v75H0z"/><path fill="#010101" d="M20.8 21.5h33.6v22.4H20.8V21.5zm15.1 11.2-13.3-8.9v17.7l13.3-8.8zm-10.7-9.3 12.4 8.2L50 23.4H25.2zm12.4 10.5-12.4 8.2h24.7l-12.3-8.2zm1.6-1.2 13.3 8.9V23.9l-13.3 8.8z"/><g fill="#010101"><path d="m20.8 62.2 4.3-4c.8-.7 1.6-1.5 2.5-2.5.9-1.1 1.2-1.7 1.2-2.4 0-1.3-.7-2.1-2-2.1-1.9 0-2.1 2-2.1 2.4H21c0-.7 0-1.9 1-3.1 1-1.2 2.7-1.8 4.8-1.8 3.6 0 5.7 2 5.7 4.6 0 1.7-.7 4-7.9 9.8 2.4 0 2.7-.1 4.6-.1 2.6 0 2.9 0 3.4-.1v2.8H20.8v-3.5zM34.6 57.8h6v2.7h-6v-2.7zM41.9 61.9v-3.2l6.7-9.9h3.6v10.3h2.3v2.8h-2.3v3.6h-3.6v-3.6h-6.7zm2.7-2.7h4.2V53l-4.2 6.2z"/></g><g fill="#010101"><path d="M33.6 9.4h1.2v8.7h-1.2V9.4zM36.9 9.4h1.2v8.7h-1.2V9.4zM40.2 9.4h1.2v8.7h-1.2V9.4z"/></g><g fill="#010101"><path d="M58 39.8c.4.5.9 1.3 1.2 1.9H58c-.4-.8-.9-1.5-1.3-2v-1.1H65v1.2h-7zM58.7 31.7c-1 0-1.2.7-1.2 1.3 0 1.2 1 1.7 3.2 1.8-.4-.3-1.1-.7-1.1-1.9 0-1.4.9-2.5 2.7-2.5 1.9 0 2.9 1.4 2.9 2.8 0 .8-.3 1.6-.9 2.1-.8.6-2 .8-3.1.8-1.8 0-4.7-.4-4.7-3.1 0-1.1.5-1.7.8-2 .5-.4 1-.4 1.3-.4v1.1zm3.7-.2c-.6 0-1.8.2-1.8 1.5 0 1.1.9 1.7 1.9 1.7 1.1 0 1.9-.7 1.9-1.6-.1-.7-.6-1.6-2-1.6zM63.2 25.8v3.7h-1.4l-5.2-3.6v-1.3h5.6v-1.2h1v1.2H65v1.2h-1.8zm-1 0h-4.4l4.4 2.9v-2.9z"/></g></svg>