<svg version="1.2" baseProfile="tiny" xmlns="http://www.w3.org/2000/svg" viewBox="0 0 75 75" overflow="visible" xml:space="preserve"><path fill="#C1C0C0" d="M0 0h75v75H0z"/><path fill="#010101" d="M20.8 21.5h33.6v22.4H20.8V21.5zm15.1 11.2-13.3-8.9v17.7l13.3-8.8zm-10.7-9.3 12.4 8.2L50 23.4H25.2zm12.4 10.5-12.4 8.2h24.7l-12.3-8.2zm1.6-1.2 13.3 8.9V23.9l-13.3 8.8z"/><g fill="#010101"><path d="M29.1 52.9c-.1-1.2-.9-1.7-1.8-1.7-2.4 0-2.5 3-2.5 4.7.6-.6 1.5-1.3 3.3-1.3 2.3 0 4.8 1.7 4.8 5.3 0 1.8-.5 3.2-1.8 4.4-1.1 1-2.4 1.6-4.3 1.6-5.8 0-5.8-5.6-5.8-7.6 0-3.4.4-6.8 2.7-8.5 1.5-1.1 3.2-1.2 3.9-1.2 2.5 0 4.9 1.3 5 4.4h-3.5zm.3 7.3c0-1.8-1-2.9-2.2-2.9-.6 0-2.4.4-2.4 3 0 2.1 1.1 2.9 2.3 2.9 1 0 2.3-.7 2.3-3zM34.6 57.8h6v2.7h-6v-2.7zM41.9 61.9v-3.2l6.7-9.9h3.6v10.3h2.3v2.8h-2.3v3.6h-3.6v-3.6h-6.7zm2.7-2.7h4.2V53l-4.2 6.2z"/></g><g fill="#010101"><path d="m31 9.4 2.3 3.3 2.3-3.3h1.5L34 13.5l3.2 4.5h-1.5l-2.6-3.7-2.6 3.7H29l3.4-4.5-3-4.1H31zM39.6 9.4l2.3 3.3 2.3-3.3h1.5l-3.1 4.1 3.2 4.5h-1.5l-2.6-3.7-2.6 3.7h-1.5l3.4-4.5-3-4.1h1.6z"/></g><g fill="#010101"><path d="m63.9 42.3-2.1-2.2c-.4-.5-.9-.9-1.4-1.3-.7-.5-1-.6-1.5-.6-.4 0-1.4.1-1.4 1.3 0 1.3 1.1 1.4 1.5 1.4v1.3c-.4 0-1.2 0-1.8-.8-.5-.6-.6-1.3-.6-1.8 0-1.3.6-2.6 2.4-2.6.5 0 .9 0 2.1.9.3.2 1.4 1.3 1.6 1.5l1.4 1.5V37h.9v5.3h-1.1zM56.7 35.8v-5.5h1l7.3 3v1.4l-7.3-3.2v4.3h-1zM58.7 25.2c-1 0-1.2.7-1.2 1.3 0 1.2 1 1.7 3.2 1.8-.4-.3-1.1-.7-1.1-1.9 0-1.4.9-2.5 2.7-2.5 1.9 0 2.9 1.4 2.9 2.8 0 .8-.3 1.6-.9 2.1-.8.6-2 .8-3.1.8-1.8 0-4.7-.4-4.7-3.1 0-1.1.5-1.7.8-2 .5-.4 1-.4 1.3-.4v1.1zm3.7-.2c-.6 0-1.8.2-1.8 1.5 0 1.1.9 1.7 1.9 1.7 1.1 0 1.9-.7 1.9-1.6-.1-.8-.6-1.6-2-1.6z"/></g></svg>