<svg version="1.2" baseProfile="tiny" xmlns="http://www.w3.org/2000/svg" viewBox="0 0 75 75" overflow="visible" xml:space="preserve"><path fill="#C1C0C0" d="M0 0h75v75H0z"/><path fill="#010101" d="M20.8 21.5h33.6v22.4H20.8V21.5zm15.1 11.2-13.3-8.9v17.7l13.3-8.8zm-10.7-9.3 12.4 8.2L50 23.4H25.2zm12.4 10.5-12.4 8.2h24.7l-12.3-8.2zm1.6-1.2 13.3 8.9V23.9l-13.3 8.8z"/><g fill="#010101"><path d="M21.7 48.8h11.4v3l-5.8 13.8h-4l6.1-13.9h-7.7v-2.9zM33.9 57.8h6v2.7h-6v-2.7zM41.2 61.9v-3.2l6.7-9.9h3.6v10.3h2.3v2.8h-2.3v3.6h-3.6v-3.6h-6.7zm2.7-2.7h4.2V53l-4.2 6.2z"/></g><g fill="#010101"><path d="m31 9.4 2.3 3.3 2.3-3.3h1.5L34 13.5l3.2 4.5h-1.5l-2.6-3.7-2.6 3.7H29l3.4-4.5-3-4.1H31zM39.6 9.4l2.3 3.3 2.3-3.3h1.5l-3.1 4.1 3.2 4.5h-1.5l-2.6-3.7-2.6 3.7h-1.5l3.4-4.5-3-4.1h1.6z"/></g><g fill="#010101"><path d="M62.9 41.4c.8 0 1.4-.5 1.4-1.5 0-1.2-.7-1.7-1.5-1.7-.9 0-1.3.6-1.5 1.2-.1.4-.1.7-.1 1.2h-1c.1-.8-.1-2.2-1.4-2.2-.9 0-1.3.6-1.3 1.5 0 .6.3 1.4 1.3 1.5v1.2c-2.1-.1-2.3-2-2.3-2.7 0-1.8 1.1-2.7 2.2-2.7.7 0 1.7.4 2 1.7.3-1.8 1.8-1.8 2-1.8 1.2 0 2.4.9 2.4 2.9 0 .9-.3 1.8-.9 2.3-.5.5-1.1.5-1.5.5v-1.4zM63 34.6c.8 0 1.2-.8 1.2-1.4 0-1.5-1.4-1.6-1.9-1.6-1.1 0-1.8.6-1.8 1.6 0 .5.2.9.4 1.1s.5.3.7.4v1.1l-4.9-.2v-4.7h1v3.6l2.7.2c-.3-.3-.8-.8-.8-1.8 0-1.7 1.3-2.5 2.7-2.5 1.6 0 2.9 1.2 2.9 3 0 1.3-.7 2.4-2.2 2.5v-1.3zM63.9 29.2 61.8 27c-.4-.5-.9-.9-1.4-1.3-.7-.5-1-.6-1.5-.6-.4 0-1.4.1-1.4 1.3 0 1.3 1.1 1.4 1.5 1.4v1.3c-.4 0-1.2 0-1.8-.8-.5-.6-.6-1.3-.6-1.8 0-1.3.6-2.6 2.4-2.6.5 0 .9 0 2.1.9.3.2 1.4 1.3 1.6 1.5l1.4 1.5v-3.9h.9v5.3h-1.1z"/></g></svg>