<svg version="1.2" baseProfile="tiny" xmlns="http://www.w3.org/2000/svg" viewBox="0 0 75 75" overflow="visible" xml:space="preserve"><path fill="#C1C0C0" d="M0 0h75v75H0z"/><path fill="#010101" d="M20.8 21.5h33.6v22.4H20.8V21.5zm7.3 6.1-5.5-3.7v17.7l5.5-3.7c-1.1-1-1.7-2.3-1.7-3.8v-2.7c0-1.5.6-2.9 1.7-3.8zm15.5-1.3c.5 0 1.1.1 1.6.3l4.7-3.1H25.2l4.7 3.1c.5-.2 1.1-.3 1.6-.3h12.1zM29.9 39l-4.7 3.1h24.7L45.3 39c-.5.2-1.1.3-1.6.3H31.6c-.6 0-1.2-.1-1.7-.3zm-1.7-4.9c0 1.1.5 2.1 1.5 2.8l6.2-4.1-6.1-4.1c-.9.6-1.5 1.6-1.5 2.8v2.6zm9.4-.2-5.3 3.6H43l-5.4-3.6zm0-2.3 5.3-3.5H32.3l5.3 3.5zm9.3-.2c0-1.1-.6-2.2-1.5-2.8l-6.2 4.1 6.2 4.1c.9-.6 1.5-1.6 1.5-2.8v-2.6zM47 38l5.5 3.6V23.9L47 27.6c1.1 1 1.7 2.4 1.7 3.8v2.7c.1 1.5-.5 2.9-1.7 3.9z"/><g fill="#010101"><path d="M14.6 61.9v-3.2l6.7-9.9h3.6v10.3h2.3v2.8h-2.3v3.6h-3.6v-3.6h-6.7zm2.7-2.7h4.2V53l-4.2 6.2zM28.6 57.8h6v2.7h-6v-2.7zM37.8 51.3c1.6-.7 3-1.5 4.4-2.5h3.1v16.8h-3.6v-13c-.7.5-2.1 1.4-3.9 2.1v-3.4zM54.2 48.6c2.4 0 3.7 1.3 4.4 2.2.9 1.3 1.5 2.9 1.5 6 0 3.9-.9 9-5.9 9-4.3 0-5.8-4.1-5.8-8.6 0-2.2.4-8.6 5.8-8.6zm1.9 4.7c-.1-.5-.5-1.9-1.8-1.9-1 0-1.5.9-1.7 1.4-.6 1.7-.6 4.3-.6 4.7 0 2.9.4 5.5 2.2 5.5 1.9 0 2.2-3.3 2.2-5.6.1-1 0-3-.3-4.1z"/></g><g fill="#010101"><path d="M33.6 9.4h1.2v8.7h-1.2V9.4zM36.9 9.4h1.2v8.7h-1.2V9.4zM40.2 9.4h1.2v8.7h-1.2V9.4z"/></g><g fill="#010101"><path d="M58 36.2c.4.5.9 1.3 1.2 1.9H58c-.4-.8-.9-1.5-1.3-2V35H65v1.2h-7zM56.5 30.2c0-2.5 2.7-2.8 4.2-2.8 2 0 3.1.4 3.8 1.2.6.6.6 1.3.6 1.7 0 1.1-.6 1.9-1.4 2.2-.6.3-1.4.5-2.8.5-1.2-.1-4.4-.2-4.4-2.8zm7.7 0c0-1.4-1.8-1.6-3.3-1.6-2 0-3.4.3-3.4 1.6 0 1.5 1.9 1.6 3.4 1.6 1.8 0 3.3-.4 3.3-1.6z"/></g></svg>