<svg version="1.2" baseProfile="tiny" xmlns="http://www.w3.org/2000/svg" viewBox="0 0 75 75" overflow="visible" xml:space="preserve"><path fill="#88CDEA" d="M0 0h75v75H0z"/><path fill="#010101" d="M20.8 21.5h33.6v22.4H20.8V21.5zm15.1 11.2-13.3-8.9v17.7l13.3-8.8zm-10.7-9.3 12.4 8.2L50 23.4H25.2zm18.9 16.7c1.3.6 1.7 1.4 1.7 2H50l-12.4-8.2-12.4 8.2h4.2c0-.5.4-1.4 1.7-2 .8-.3 1.8-.5 2.8-.5 1.1 0 2.1.2 2.9.5.3.1.5.6.8.4.2-.2.5-.3.8-.4.8-.3 1.8-.5 2.9-.5 1 0 2 .2 2.8.5zm-7.6 2c-.1-.1-.3-.2-.5-.3-.5-.2-1.3-.4-2.1-.4-1.4 0-2.3.4-2.6.6h5.2zm7.3 0c-.2-.1-.3-.2-.5-.3-.5-.2-1.3-.4-2.1-.4-1.4 0-2.3.4-2.6.6h5.2zm-4.6-9.4 13.3 8.9V23.9l-13.3 8.8z"/><g fill="#010101"><path d="M23.1 51.3c1.6-.7 3-1.5 4.4-2.5h3.1v16.8H27v-13c-.7.5-2.1 1.4-3.9 2.1v-3.4zM33.9 57.8h6v2.7h-6v-2.7zM41.2 61.9v-3.2l6.7-9.9h3.6v10.3h2.3v2.8h-2.3v3.6h-3.6v-3.6h-6.7zm2.7-2.7h4.2V53l-4.2 6.2z"/></g><g fill="#010101"><path d="M33.6 9.4h1.2V18h-1.2V9.4zM36.9 9.4h1.2V18h-1.2V9.4zM40.2 9.4h1.2V18h-1.2V9.4z"/></g><g fill="#010101"><path d="M65 45.7V47l-8.7 3.1v-1.3l7.4-2.5-7.4-2.6v-1.2l8.7 3.2zM63.6 42.4v-1.3H65v1.3h-1.4zM56.4 39v-2.5c0-1.2 0-2.5 1.1-3.5.9-.8 2.1-1.1 3.3-1.1 1.9 0 3 .8 3.5 1.4.7.9.7 1.9.7 3.2V39h-8.6zm7.6-1.2v-1.2c0-.8 0-1.7-.5-2.3-.8-1.1-2.2-1.1-2.7-1.1-.3 0-1.8 0-2.7.8-.6.6-.8 1.2-.8 2.3v1.4H64zM63.6 30.4v-1.3H65v1.3h-1.4zM56.4 25.8h3.7v-4.1h-3.7v-1.2h8.7v1.2h-3.9v4.1h3.9V27h-8.7v-1.2zM63.6 18.4v-1.3H65v1.3h-1.4z"/></g></svg>