<svg version="1.2" baseProfile="tiny" xmlns="http://www.w3.org/2000/svg" viewBox="0 0 75 75" overflow="visible" xml:space="preserve"><path fill="#6C8F3C" d="M0 0h75v75H0z"/><path fill="none" d="M0 0h75v75H0V0z"/><path fill="#231F20" d="m42.4 50 2.1 5.2-5-2.2-2.1 5.2-2.1-5.2-5 2.2 2.1-5.2-5-2.1 5-2.2-2.1-5.2 5 2.2 2.1-5.2 2.1 5.2 5-2.2-2.1 5.2 5 2.2-5 2.1zM30 22.7h14.7L37.4 9.4 30 22.7z"/><path fill="#231F20" d="m41.6 31.3 3.4-2.5-1-1.4-4.2 3V63.2h.1l-.1.1 4.1 3 1-1.4-3.4-2.5.1-31.1zM34 63.2V30.4l-4.2-3-1 1.4 3.5 2.5v31.1l-3.4 2.5 1 1.4 4.1-3v-.1z"/></svg>