<svg version="1.2" baseProfile="tiny" xmlns="http://www.w3.org/2000/svg" viewBox="0 0 75 75" overflow="visible" xml:space="preserve"><path fill="#6C8F3C" d="M0 0h75v75H0z"/><g fill="#010101"><path d="M21.1 24.6c0-.4 0-.9-.4-1.5-.6-1-1.7-1.1-2.4-1.1-3.5 0-4.2 3.3-4.2 5.5 0 1 .1 2.7 1.2 3.9.7.8 1.7 1.2 3.4 1.2 1.5 0 2-.2 2.4-.3v-3h-2.8v-2.4h5.9v7.2c-.9.3-2.4.8-5.3.8-3.3 0-5-.8-6.1-1.9-1.6-1.6-1.9-3.9-1.9-5.4 0-5.1 3.2-7.9 7.6-7.9 1.9 0 3.8.5 4.9 1.8 1 1.1 1 2.2 1 3h-3.3zM32.9 34.7c-.1-.6-.1-1.1-.1-1.4-1.1 1.6-2.5 1.6-3 1.6-1.5 0-2.1-.4-2.5-.8-.6-.6-.9-1.4-.9-2.2 0-.8.3-2.3 2.1-3.1 1.2-.6 3-.6 4-.6 0-.7 0-1-.1-1.3-.3-.7-1-.8-1.3-.8-.4 0-.9.2-1.1.6-.2.3-.2.7-.2.9h-2.9c0-.5.1-1.6 1.1-2.4.9-.7 2.1-.8 3.1-.8.8 0 2.6.1 3.6 1.3.7.8.7 2 .7 2.5v4.1c0 .9.1 1.7.2 2.6h-2.7zm-3.6-3.2c0 .7.5 1.4 1.4 1.4.5 0 1-.3 1.3-.6.5-.6.6-1.4.6-2.5-2-.1-3.3.5-3.3 1.7zM38 26.5c0-.6 0-1.3-.1-1.9h2.9l.1 1.3c.3-.4 1.1-1.5 3.1-1.5 2.3 0 3 1.4 3.2 1.9.8-1.6 2.2-1.9 3.2-1.9 2 0 2.9 1.2 3.1 1.6.5.9.5 2.1.5 3v5.7h-3v-5.9c0-1.1-.2-2.3-1.7-2.3-1.8 0-1.8 1.7-1.8 3.2v5.1h-3v-6c0-.8 0-2.2-1.7-2.2-1.9 0-1.9 1.6-1.9 2.3v5.9h-3v-8.3zM59.2 30.4c0 .7 0 2.7 2.1 2.7.7 0 1.5-.3 1.8-1.4h2.7c0 .5-.1 1.3-1 2.2-.7.8-2.1 1.2-3.5 1.2-.9 0-2.5-.2-3.6-1.3-.9-1-1.3-2.3-1.3-3.9s.4-3.6 2.1-4.8c.8-.5 1.7-.8 2.8-.8 1.4 0 3.2.6 4.1 2.4.7 1.4.6 2.9.6 3.7h-6.8zm3.8-1.9c0-.5 0-2.3-1.8-2.3-1.3 0-1.8 1.1-1.9 2.3H63zM22.6 42.6h-4.3v-2.4H30v2.4h-4.3v12.1h-3.1V42.6z"/><path d="M31.4 44.6v6c0 .9 0 2.2 1.6 2.2 1.9 0 1.9-1.4 1.9-3.1v-5.1h3v6.7c0 2.2.1 2.4.1 2.7 0 .3 0 .5.1.7h-2.9l-.1-1.3c-.3.4-1.1 1.6-3 1.6-1.4 0-2.5-.6-3-1.4-.7-.8-.7-2.2-.7-2.7v-6.3h3zM40.8 47c0-.5-.1-1.9-.1-2.5h2.8l.1 1.9c.4-.9 1-2.1 3.4-2v2.7c-3-.3-3.2 1.3-3.2 2.5v5h-3V47zM47.8 46.4s0-1.1-.1-1.8h2.8l.1 1.5c.3-.5 1.1-1.8 3.3-1.8 2 0 2.8 1.2 3.1 1.9.2.6.3 1.1.3 3v5.5h-3v-6.3c0-.4 0-.8-.2-1.1-.2-.4-.7-.9-1.4-.9-.6 0-1.2.3-1.5.8-.2.3-.4.8-.4 1.5v5.9h-3v-8.2z"/></g></svg>