<svg version="1.2" baseProfile="tiny" xmlns="http://www.w3.org/2000/svg" viewBox="0 0 75 75" overflow="visible" xml:space="preserve"><path fill="#6C8F3C" d="M-75 0H0v75h-75zM0 0h75v75H0z"/><path fill="#010101" d="M20.8 21.5h33.6v22.4H20.8V21.5zm31.7 20.6V23.4H22.6v18.7h29.9zm-21-2.8c-2.8 0-5.1-2.3-5.1-5.2v-2.7c0-2.8 2.3-5.1 5.1-5.1h12.1c2.8 0 5.1 2.3 5.1 5.1v2.7c0 2.8-2.3 5.1-5.1 5.2H31.5zm-3.3-7.9v2.7c0 1.8 1.5 3.3 3.3 3.3h12.1c1.8 0 3.3-1.5 3.3-3.3v-2.7c0-1.8-1.4-3.3-3.3-3.3H31.5c-1.8 0-3.3 1.5-3.3 3.3z"/><g fill="#010101"><path d="M13.9 61.9v-3.2l6.7-9.9h3.6v10.3h2.3v2.8h-2.3v3.6h-3.6v-3.6h-6.7zm2.7-2.7h4.2V53l-4.2 6.2zM27.9 57.8h6v2.7h-6v-2.7zM37.1 51.3c1.6-.7 3-1.5 4.4-2.5h3.1v16.8H41v-13c-.7.5-2.1 1.4-3.9 2.1v-3.4zM48.8 62.2l4.3-4c.8-.7 1.6-1.5 2.5-2.5.9-1.1 1.2-1.7 1.2-2.4 0-1.3-.7-2.1-2-2.1-1.9 0-2.1 2-2.1 2.4H49c0-.7 0-1.9 1-3.1 1-1.2 2.7-1.8 4.8-1.8 3.6 0 5.7 2 5.7 4.6 0 1.7-.7 4-7.9 9.8 2.4 0 2.7-.1 4.6-.1 2.6 0 2.9 0 3.4-.1v2.8H48.8v-3.5z"/></g><path fill="#010101" d="m35.3 9.4 2.3 3.3 2.3-3.3h1.5l-3.1 4.1 3.2 4.5H40l-2.6-3.7-2.6 3.7h-1.5l3.4-4.5-3-4.1h1.6z"/><g fill="#010101"><path d="M60.9 43.3c-.3 0-1.3.1-1.3 1.2 0 1.6 1.8 1.6 2.3 1.6 1.2 0 2.4-.3 2.4-1.5 0-1-.7-1.3-1.3-1.3v-1.1c1.2.1 2.2.9 2.2 2.4 0 .4-.1 1.3-.8 2-.4.4-1.1.7-2.3.7-2.5 0-3.2-1.5-3.2-2.7 0-.4.1-1.3.7-1.8.5-.4 1-.5 1.3-.5v1zM60.9 37.3c-.3 0-1.3.1-1.3 1.2 0 1.6 1.8 1.6 2.3 1.6 1.2 0 2.4-.3 2.4-1.5 0-1-.7-1.3-1.3-1.3v-1.1c1.2.1 2.2.9 2.2 2.4 0 .4-.1 1.3-.8 2-.4.4-1.1.7-2.3.7-2.5 0-3.2-1.5-3.2-2.7 0-.4.1-1.3.7-1.8.5-.4 1-.5 1.3-.5v1zM60.2 34.7c-.4 0-.8 0-1.2.1v-1.1h1.2c-.8-.2-1.1-.9-1.2-1.4v-.8h1.1v.5c0 1.3.8 1.6 1.8 1.6h3.2v1.1h-4.9zM58 27.9c.4.5.9 1.3 1.2 1.9H58c-.4-.8-.9-1.5-1.3-2v-1.1H65v1.2h-7zM56.5 21.8c0-2.5 2.7-2.8 4.2-2.8 2 0 3.1.4 3.8 1.2.6.6.6 1.3.6 1.7 0 1.1-.6 1.9-1.4 2.2-.6.3-1.4.5-2.8.5-1.2 0-4.4-.1-4.4-2.8zm7.7 0c0-1.4-1.8-1.6-3.3-1.6-2 0-3.4.3-3.4 1.6 0 1.5 1.9 1.6 3.4 1.6 1.8.1 3.3-.3 3.3-1.6z"/></g></svg>