<svg version="1.2" baseProfile="tiny" xmlns="http://www.w3.org/2000/svg" viewBox="0 0 75 75" overflow="visible" xml:space="preserve"><path fill="#6C8F3C" d="M-75 0H0v75h-75zM0 0h75v75H0z"/><path fill="#010101" d="M20.8 21.5h33.6v22.4H20.8V21.5zm31.7 20.6V23.4H22.6v18.7h29.9zM32.9 31.4v4.7H31v-6.5h13.1v6.5h-1.9v-4.7h-3.7v4.7h-1.9v-4.7h-3.7z"/><g fill="#010101"><path d="M23.1 51.3c1.6-.7 3-1.5 4.4-2.5h3.1v16.8H27v-13c-.7.5-2.1 1.4-3.9 2.1v-3.4zM33.9 57.8h6v2.7h-6v-2.7zM41.2 61.9v-3.2l6.7-9.9h3.6v10.3h2.3v2.8h-2.3v3.6h-3.6v-3.6h-6.7zm2.7-2.7h4.2V53l-4.2 6.2z"/></g><g fill="#010101"><path d="M33.6 9.4h1.2v8.7h-1.2V9.4zM36.9 9.4h1.2v8.7h-1.2V9.4zM40.2 9.4h1.2v8.7h-1.2V9.4z"/></g><g fill="#010101"><path d="M62.9 41.4c.8 0 1.4-.5 1.4-1.5 0-1.2-.7-1.7-1.5-1.7-.9 0-1.3.6-1.5 1.2-.1.4-.1.7-.1 1.2h-1c.1-.8-.1-2.2-1.4-2.2-.9 0-1.3.6-1.3 1.5 0 .6.3 1.4 1.3 1.5v1.2c-2.1-.1-2.3-2-2.3-2.7 0-1.8 1.1-2.7 2.2-2.7.7 0 1.7.4 2 1.7.3-1.8 1.8-1.8 2-1.8 1.2 0 2.4.9 2.4 2.9 0 .9-.3 1.8-.9 2.3-.5.5-1.1.5-1.5.5v-1.4zM63 34.6c.8 0 1.2-.8 1.2-1.4 0-1.5-1.4-1.6-1.9-1.6-1.1 0-1.8.6-1.8 1.6 0 .5.2.9.4 1.1s.5.3.7.4v1.1l-4.9-.2v-4.7h1v3.6l2.7.2c-.3-.3-.8-.8-.8-1.8 0-1.7 1.3-2.5 2.7-2.5 1.6 0 2.9 1.2 2.9 3 0 1.3-.7 2.4-2.2 2.5v-1.3zM63.2 25.7v3.7h-1.4l-5.2-3.6v-1.3h5.6v-1.2h1v1.2H65v1.2h-1.8zm-1 0h-4.4l4.4 2.9v-2.9z"/></g></svg>