<svg version="1.2" baseProfile="tiny" xmlns="http://www.w3.org/2000/svg" viewBox="0 0 75 75" overflow="visible" xml:space="preserve"><path fill="#6C8F3C" d="M-75 0H0v75h-75zM0 0h75v75H0z"/><path fill="#010101" d="M20.8 21.5h33.6v22.4H20.8V21.5zm31.7 20.6V23.4H22.6v18.7h29.9zM32.9 31.4v4.7H31v-6.5h13.1v6.5h-1.9v-4.7h-3.7v4.7h-1.9v-4.7h-3.7z"/><g fill="#010101"><path d="M23.1 51.3c1.6-.7 3-1.5 4.4-2.5h3.1v16.8H27v-13c-.7.5-2.1 1.4-3.9 2.1v-3.4zM33.9 57.8h6v2.7h-6v-2.7zM41.2 61.9v-3.2l6.7-9.9h3.6v10.3h2.3v2.8h-2.3v3.6h-3.6v-3.6h-6.7zm2.7-2.7h4.2V53l-4.2 6.2z"/></g><g fill="#010101"><path d="M33.6 9.4h1.2v8.7h-1.2V9.4zM36.9 9.4h1.2v8.7h-1.2V9.4zM40.2 9.4h1.2v8.7h-1.2V9.4z"/></g><g fill="#010101"><path d="M58 42.3c.4.5.9 1.3 1.2 1.9H58c-.4-.8-.9-1.5-1.3-2v-1.1H65v1.2h-7zM58 37.3c.4.5.9 1.3 1.2 1.9H58c-.4-.8-.9-1.5-1.3-2v-1.1H65v1.2h-7zM63.9 33.4l-2.1-2.2c-.4-.5-.9-.9-1.4-1.3-.7-.5-1-.6-1.5-.6-.4 0-1.4.1-1.4 1.3 0 1.3 1.1 1.4 1.5 1.4v1.3c-.4 0-1.2 0-1.8-.8-.5-.6-.6-1.3-.6-1.8 0-1.3.6-2.6 2.4-2.6.5 0 .9 0 2.1.9.3.2 1.4 1.3 1.6 1.5l1.4 1.5v-3.9h.9v5.3h-1.1zM58.8 26.8c-.7 0-2.3-.5-2.3-2.7 0-1.8.9-2.8 2.2-2.8.8 0 1.7.5 1.9 1.7.1-.5.5-1.8 2.1-1.8 1.1 0 2.4.8 2.4 2.9 0 .7-.1 1.5-.7 2.1-.4.4-1 .7-1.7.7-.6 0-1.1-.2-1.5-.6-.4-.4-.5-.8-.6-1.2-.2 1.1-1 1.7-1.8 1.7zM57.4 24c0 .9.5 1.6 1.4 1.6.8 0 1.3-.7 1.3-1.5 0-.9-.5-1.6-1.3-1.6s-1.4.5-1.4 1.5zm6.8.1c0-1.3-.9-1.7-1.6-1.7-.9 0-1.5.7-1.5 1.6 0 1 .7 1.7 1.6 1.7.6 0 1.5-.4 1.5-1.6z"/></g></svg>