<svg version="1.2" baseProfile="tiny" xmlns="http://www.w3.org/2000/svg" viewBox="0 0 75 75" overflow="visible" xml:space="preserve"><path fill="#6C8F3C" d="M-75 0H0v75h-75zM0 0h75v75H0z"/><path fill="#010101" d="M20.8 21.5h33.6v22.4H20.8V21.5zm15.1 11.2-13.3-8.9v17.7l13.3-8.8zm-10.7-9.3 12.4 8.2L50 23.4H25.2zm12.4 10.5-12.4 8.2h24.7l-12.3-8.2zm1.6-1.2 13.3 8.9V23.9l-13.3 8.8z"/><g fill="#010101"><path d="M24.4 61c0 .5.2 2.2 2.2 2.2 1.3 0 2.2-1 2.2-2.3 0-2.5-2.4-2.5-4.1-2.5v-2.8c1.7 0 4.2-.1 4.2-2.5 0-1.3-1-2-2.1-2-1 0-2 .7-2 2.1h-3.7c.1-.7.1-1.8 1-2.8 1.1-1.3 2.9-1.8 4.7-1.8 4.3 0 5.6 2.7 5.6 4.6 0 2.8-2.5 3.6-3.2 3.8.5.2 1.2.4 2 1 1.2 1 1.4 2.2 1.4 3 0 2.8-2.6 4.9-6.1 4.9-1.2 0-3-.3-4-1.1C21 63.6 21 61.7 21 61h3.4zM34.6 57.8h6v2.7h-6v-2.7zM41.9 61.9v-3.2l6.7-9.9h3.6v10.3h2.3v2.8h-2.3v3.6h-3.6v-3.6h-6.7zm2.7-2.7h4.2V53l-4.2 6.2z"/></g><g fill="#010101"><path d="M33.6 9.4h1.2v8.7h-1.2V9.4zM36.9 9.4h1.2v8.7h-1.2V9.4zM40.2 9.4h1.2v8.7h-1.2V9.4z"/></g><g fill="#010101"><path d="M63.2 39.1v3.7h-1.4l-5.2-3.6v-1.3h5.6v-1.2h1v1.2H65v1.2h-1.8zm-1-.1h-4.4l4.4 2.9V39zM63.9 35.8l-2.1-2.2c-.4-.5-.9-.9-1.4-1.3-.7-.5-1-.6-1.5-.6-.4 0-1.4.1-1.4 1.3 0 1.3 1.1 1.4 1.5 1.4v1.3c-.4 0-1.2 0-1.8-.8-.5-.6-.6-1.3-.6-1.8 0-1.3.6-2.6 2.4-2.6.5 0 .9 0 2.1.9.3.2 1.4 1.3 1.6 1.5l1.4 1.5v-3.9h.9v5.3h-1.1zM63.9 29.2 61.8 27c-.4-.5-.9-.9-1.4-1.3-.7-.5-1-.6-1.5-.6-.4 0-1.4.1-1.4 1.3 0 1.3 1.1 1.4 1.5 1.4v1.3c-.4 0-1.2 0-1.8-.8-.5-.6-.6-1.3-.6-1.8 0-1.3.6-2.6 2.4-2.6.5 0 .9 0 2.1.9.3.2 1.4 1.3 1.6 1.5l1.4 1.5v-3.9h.9v5.3h-1.1z"/></g></svg>