<svg version="1.2" baseProfile="tiny" xmlns="http://www.w3.org/2000/svg" viewBox="0 0 75 75" overflow="visible" xml:space="preserve"><path fill="#6C8F3C" d="M0 0h75v75H0z"/><path fill="#010101" d="M20.8 21.5h33.6v22.4H20.8V21.5zm7.3 6.1-5.5-3.7v17.7l5.5-3.7c-1.1-1-1.7-2.3-1.7-3.8v-2.7c0-1.5.6-2.9 1.7-3.8zm15.5-1.3c.5 0 1.1.1 1.6.3l4.7-3.1H25.2l4.7 3.1c.5-.2 1.1-.3 1.6-.3h12.1zM29.9 39l-4.7 3.1h24.7L45.3 39c-.5.2-1.1.3-1.6.3H31.5c-.5 0-1.1-.1-1.6-.3zm-1.7-4.9c0 1.1.5 2.1 1.5 2.8l6.2-4.1-6.1-4.1c-.9.6-1.5 1.6-1.5 2.8v2.6zm9.4-.2-5.3 3.6H43l-5.4-3.6zm0-2.3 5.3-3.5H32.3l5.3 3.5zm9.3-.2c0-1.1-.6-2.2-1.5-2.8l-6.2 4.1 6.2 4.1c.9-.6 1.5-1.6 1.5-2.8v-2.6zM47 38l5.5 3.6V23.9L47 27.6c1.1 1 1.7 2.4 1.7 3.8v2.7c.1 1.5-.5 2.9-1.7 3.9z"/><g fill="#010101"><path d="M22.4 52.9c-.1-1.2-.9-1.7-1.8-1.7-2.4 0-2.5 3-2.5 4.7.6-.6 1.5-1.3 3.3-1.3 2.3 0 4.8 1.7 4.8 5.3 0 1.8-.5 3.2-1.8 4.4-1.1 1-2.4 1.6-4.3 1.6-5.8 0-5.8-5.6-5.8-7.6 0-3.4.4-6.8 2.7-8.5 1.5-1.1 3.2-1.2 3.9-1.2 2.5 0 4.9 1.3 5 4.4h-3.5zm.3 7.3c0-1.8-1-2.9-2.2-2.9-.6 0-2.4.4-2.4 3 0 2.1 1.1 2.9 2.3 2.9 1 0 2.3-.7 2.3-3zM27.9 57.8h6v2.7h-6v-2.7zM37.1 51.3c1.6-.7 3-1.5 4.4-2.5h3.1v16.8H41v-13c-.7.5-2.1 1.4-3.9 2.1v-3.4zM48.8 62.2l4.3-4c.8-.7 1.6-1.5 2.5-2.5.9-1.1 1.2-1.7 1.2-2.4 0-1.3-.7-2.1-2-2.1-1.9 0-2.1 2-2.1 2.4H49c0-.7 0-1.9 1-3.1 1-1.2 2.7-1.8 4.8-1.8 3.6 0 5.7 2 5.7 4.6 0 1.7-.7 4-7.9 9.8 2.4 0 2.7-.1 4.6-.1 2.6 0 2.9 0 3.4-.1v2.8H48.8v-3.5z"/></g><g fill="#010101"><path d="M33.6 9.4h1.2v8.7h-1.2V9.4zM36.9 9.4h1.2v8.7h-1.2V9.4zM40.2 9.4h1.2v8.7h-1.2V9.4z"/></g><g fill="#010101"><path d="M62.9 38.1c.8 0 1.4-.5 1.4-1.5 0-1.2-.7-1.7-1.5-1.7-.9 0-1.3.6-1.5 1.2-.1.4-.1.7-.1 1.2h-1c.1-.8-.1-2.2-1.4-2.2-.9 0-1.3.6-1.3 1.5 0 .6.3 1.4 1.3 1.5v1.2c-2.1-.1-2.3-2-2.3-2.7 0-1.8 1.1-2.7 2.2-2.7.7 0 1.7.4 2 1.7.3-1.8 1.8-1.8 2-1.8 1.2 0 2.4.9 2.4 2.9 0 .9-.3 1.8-.9 2.3-.5.5-1.1.5-1.5.5v-1.4zM58.7 28.3c-1 0-1.2.7-1.2 1.3 0 1.2 1 1.7 3.2 1.8-.4-.3-1.1-.7-1.1-1.9 0-1.4.9-2.5 2.7-2.5 1.9 0 2.9 1.4 2.9 2.8 0 .8-.3 1.6-.9 2.1-.8.6-2 .8-3.1.8-1.8 0-4.7-.4-4.7-3.1 0-1.1.5-1.7.8-2 .5-.4 1-.4 1.3-.4v1.1zm3.7-.2c-.6 0-1.8.2-1.8 1.5 0 1.1.9 1.7 1.9 1.7 1.1 0 1.9-.7 1.9-1.6-.1-.8-.6-1.6-2-1.6z"/></g></svg>