<svg version="1.2" baseProfile="tiny" xmlns="http://www.w3.org/2000/svg" viewBox="0 0 75 75" overflow="visible" xml:space="preserve"><path fill="#6C8F3C" d="M0 0h75v75H0z"/><path fill="#010101" d="M54.3 21.5v22.4H20.7V21.5h33.6zm-10.7 4.7c.5 0 1.1.1 1.6.3l4.7-3.1H22.6v18.2l5.5-3.7c-1.1-1-1.7-2.3-1.7-3.8v-2.8c0-2.8 2.3-5.1 5.1-5.1h12.1zM29.9 39l-4.7 3.1h27.3V23.9L47 27.5c1.1 1 1.7 2.3 1.7 3.8v2.8c0 2.8-2.3 5.1-5.1 5.1H31.5c-.5 0-1.1-.1-1.6-.2zm-.2-2.1 13.1-8.8H31.5c-1.8 0-3.3 1.5-3.3 3.3v2.8c0 1 .6 2.1 1.5 2.7zm17.2-5.5c0-1.1-.5-2.1-1.5-2.8l-13.2 8.8h11.4c1.8 0 3.3-1.5 3.3-3.3v-2.7z"/><g fill="#010101"><path d="M13.9 61.9v-3.2l6.7-9.9h3.6v10.3h2.3v2.8h-2.3v3.6h-3.6v-3.6h-6.7zm2.7-2.7h4.2V53l-4.2 6.2zM27.9 57.8h6v2.7h-6v-2.7zM37.1 51.3c1.6-.7 3-1.5 4.4-2.5h3.1v16.8H41v-13c-.7.5-2.1 1.4-3.9 2.1v-3.4zM48.8 62.2l4.3-4c.8-.7 1.6-1.5 2.5-2.5.9-1.1 1.2-1.7 1.2-2.4 0-1.3-.7-2.1-2-2.1-1.9 0-2.1 2-2.1 2.4H49c0-.7 0-1.9 1-3.1 1-1.2 2.7-1.8 4.8-1.8 3.6 0 5.7 2 5.7 4.6 0 1.7-.7 4-7.9 9.8 2.4 0 2.7-.1 4.6-.1 2.6 0 2.9 0 3.4-.1v2.8H48.8v-3.5z"/></g><g fill="#010101"><path d="M33.6 9.4h1.2v8.7h-1.2V9.4zM36.9 9.4h1.2v8.7h-1.2V9.4zM40.2 9.4h1.2v8.7h-1.2V9.4z"/></g><path fill="#010101" d="M58.7 31.6c-1 0-1.2.7-1.2 1.3 0 1.2 1 1.7 3.2 1.8-.4-.3-1.1-.7-1.1-1.9 0-1.4.9-2.5 2.7-2.5 1.9 0 2.9 1.4 2.9 2.8 0 .8-.3 1.6-.9 2.1-.8.6-2 .8-3.1.8-1.8 0-4.7-.4-4.7-3.1 0-1.1.5-1.7.8-2 .5-.4 1-.4 1.3-.4v1.1zm3.7-.2c-.6 0-1.8.2-1.8 1.5 0 1.1.9 1.7 1.9 1.7 1.1 0 1.9-.7 1.9-1.6-.1-.7-.6-1.6-2-1.6z"/></svg>