<?xml version="1.0" encoding="iso-8859-1"?>
<!-- Generator: Adobe Illustrator 26.0.1, SVG Export Plug-In . SVG Version: 6.00 Build 0)  -->
<svg version="1.1" id="Layer_1" xmlns="http://www.w3.org/2000/svg" xmlns:xlink="http://www.w3.org/1999/xlink" x="0px" y="0px"
	 viewBox="0 0 800 800" enable-background="new 0 0 800 800" xml:space="preserve">
<g id="_x23_000000ff">
	<path fill="#010101" d="M396.37,227.89c3-2.32,7.15-0.46,9.12,2.33c8.81,10.89,9.94,25.46,11.63,38.81
		c1.52,14.68,2.5,29.41,3.54,44.13c5.49,0,10.97,0,16.46,0c-0.31-8.39,0.49-16.74,0.57-25.12c0.18-2.69,0.58-5.55,2.3-7.74
		c2.6-0.69,5.35-0.19,7.98-0.68c0.74-3.44,0.14-6.98,0.6-10.44c1.24-1.32,3.78-1.11,4.11,0.92c0.31,3.14-0.11,6.3,0.12,9.45
		c2.21,0.15,4.51-0.14,6.66,0.53c2.39,1.39,2.59,4.55,2.85,7.02c0.52,8.76,0.09,17.54,0.6,26.31c2.52,0.52,5.02,1.17,7.51,1.89
		c56.7,16.26,113.43,32.43,170.12,48.73c6.03,1.49,10.57,5.82,14.84,10.05c-1.36,10.38-12.18,16.22-21.75,16.79
		c-67,0.3-134-0.51-201-0.13c-5.31,0.24-8.59,5.16-10.49,9.56c-0.93,15.31-0.82,30.71-2.44,46c-0.3,3.27-0.89,6.56-0.54,9.86
		c0.65,6.08-0.41,12.17-1.42,18.15c-3.61,13.35-4.56,27.23-6.92,40.83c2.01,1.59,3.85,3.49,6.22,4.58
		c14.06,6.61,28.12,13.2,42.15,19.87c6.98,3.39,13.7,10.25,12.62,18.63c-0.68,8.03-8.46,13.67-16.11,14.12
		c-12.34,0.34-24.69,0.41-37.04,0.29c-4.17,0.07-6.93-3.92-10.97-4.27c-3.13-0.02-5.05,2.66-6.86,4.8h-1.76
		c-2.04-2.1-4.18-4.94-7.44-4.76c-3.95,0.65-6.8,4.47-10.98,4.27c-11.34-0.09-22.69,0.21-34.02-0.23
		c-5.32-0.15-10.86-1.77-14.83-5.45c-4.03-3.79-4.82-9.95-3.3-15.06c1.99-5.77,6.94-10.07,12.37-12.56
		c13.53-6.42,27.01-12.95,40.54-19.38c2.75-1.25,5.14-3.1,7.66-4.72c-3.56-25.63-6.91-51.3-9.2-77.08
		c-0.6-11.37-1.1-22.75-1.64-34.12c-0.07-5.43-3.95-10.41-8.83-12.51c-3.19-0.8-6.53-0.28-9.78-0.41
		c-33.34-0.15-66.67,0.47-100.01,0.24c-5.4-0.23-10.73,1.15-16.12,0.71c-4.27-0.37-8.55-0.71-12.84-0.7
		c-19.69,0.03-39.37-0.02-59.06,0.03c-6.75,0.15-13.7-1.27-19.52-4.77c-3.56-2.67-5.76-6.8-7.45-10.83v-1.12
		c2.29-2.53,4.4-5.4,7.54-6.95c4.82-2.45,9.94-4.28,15.13-5.75c51.41-14.75,102.81-29.57,154.22-44.33
		c5.08-1.45,10.13-3.09,15.32-4.13c0.06-6.45,0.5-12.89,0.31-19.35c0.13-4.08-0.07-8.38,1.53-12.22c1.46-3.6,6.02-1.97,9-2.35
		c0.11-3.35-0.81-6.83,0.27-10.08c1.29-1.16,3.49-0.56,4,1.08c0.4,2.97,0.14,5.99,0.17,8.99c2.25,0.07,4.55-0.17,6.77,0.28
		c2.52,1.62,2.72,4.86,3.05,7.54c0.63,8.73,0.79,17.47,0.69,26.22c5.56,0,11.12-0.01,16.68,0.01c0.58-13.22,1.5-26.43,2.7-39.6
		c0.99-11.44,3.1-22.82,6.69-33.74C390.46,235.81,392.62,231.13,396.37,227.89z"/>
</g>
</svg>
