<?xml version="1.0" encoding="iso-8859-1"?>
<!-- Generator: Adobe Illustrator 26.0.1, SVG Export Plug-In . SVG Version: 6.00 Build 0)  -->
<svg version="1.2" baseProfile="tiny" id="Layer_1" xmlns="http://www.w3.org/2000/svg" xmlns:xlink="http://www.w3.org/1999/xlink"
	 x="0px" y="0px" viewBox="0 0 800 800" overflow="visible" xml:space="preserve">
<g>
	<g>
		<path fill="#010101" d="M468.5,470.1c0.2-0.4-0.2-1.6,0.6-1.2c0.6,1.2-0.1,3.6,1.7,3.8c0-0.5-0.7-0.4-0.6-1
			c0.7,0.2,1.4,0.3,2.1-0.1c0.1,0.8-0.9,0.7-1.2,1.3c-0.4,0.5-1,0.3-1.5,0.1c0.3,0.6-0.3,1.1-0.1,1.7c0.5,1.7,0,3.7,0.7,5.4
			c1.1,0.2,2.3,0.2,3.5,0.1c0.6-0.1,1.5-0.5,1.7,0.3c-0.2,0.7-0.9,0.9-1.6,0.8c-1.2,0.6-2,1.8-3.3,2.1c-0.3,0.8,0.1,1.6,0.3,2.4
			c0.4,4.5,0.7,8.9,1.1,13.4c0.5,0,0.9,0,1.4,0l0,0.3c-0.3,0-0.8,0-1,0c-0.2,0.9,0,1.9,0,2.8c0.3-0.2,0.6-0.4,0.8-0.7
			c0.4,0.1,0.5,0.6,0.5,1c-0.4,0.2-0.8,0.4-1.2,0.6c0,0.8,0.1,1.5,0.3,2.2c0.4,0.1,0.8,0.1,1.3,0.2c0,0.4,0,0.8,0,1.2
			c-0.4,0-0.8,0.1-1.2,0.1c0.1,0.5-0.1,1.6,0.5,1.7c0-0.1,0.1-0.4,0.2-0.6c0.7-0.3,0.8,0.5,0.9,1c-0.4,0-0.8,0.1-1.2,0.1
			c-0.3,1,0.2,2,0.2,3c0.3,4.4,0.8,8.7,1.2,13.1c2.5,0.1,4.9,0,7.4,0c-0.2-0.4-0.5-0.7,0-1.1c-0.4,0-0.8,0-1.2-0.1
			c0-0.1,0-0.4,0-0.6c0.4,0,0.9-0.1,1.3-0.1c0.6-1.2-1.3-1.3-1.3-2.3c0.6-0.1,1.7,0.1,1.4-0.9c-1-0.2-2.1-0.1-3.1-0.1
			c-0.4-2-0.2-4.1,0-6.2c0.7,0,1.4,0.1,2-0.1c0.1-0.6,0.4-1.2,0.7-1.7c-0.1-0.5-0.8-1-0.3-1.5c0.5-0.1,1.2-0.5,1.7-0.2
			c0.6,1.1,1.5,2,1.7,3.3c1.4,0.6,3-0.8,4.3,0.3c0,0.2,0,0.6,0,0.8c-0.2,0.1-0.6,0.2-0.7,0.3c-0.4,0.6,0.6,0.9,0.4,1.5
			c-1,0.3-0.6,1.4-0.7,2.2c-1,0.1-2,0-3.1,0.2c0,0.7-0.3,1.6,0.1,2.3c0.2,0,0.7,0.1,0.9,0.1c-0.3,0.8-1.4,1.1-1.2,2.1
			c0.3,0.2,0.7,0.4,1.2,0.4c0.2,0.5-0.6,0.7-1,0.5c-0.1,0.4-0.2,0.9-0.3,1.3c1.7,0,3.4,0.1,5.2,0c0.8-0.4,1.7-0.7,2.5-1.1
			c0.3-0.6,0.1-1.3,0.1-1.9c0.6-0.1,1.3-0.1,1.9-0.1c0-0.2,0.1-0.7,0.2-1c0.4,0,0.8,0,1.2,0.1c0.5,0.8,1,1.6,1,2.6
			c1.1,0.4,2.2,0.9,3.3,1.4c0.2,1.9,0.1,3.9,0.1,5.9c0.7,0.1,1.4,0.1,2.1,0c0-0.2,0-0.5,0-0.7c-0.6-0.2-1.7,0.3-1.8-0.4
			c1.7,0.1,3.3,0.2,5,0.1c0-0.2,0-0.5,0-0.6c-1-0.9-2.6,0-3.5-0.9c0-0.4-0.1-0.8,0-1.2c0.9-0.1,1.9,0,2.8,0c2.2-0.7,4.5-0.2,6.7-0.4
			c1.5,0.3,3,0.4,4.6,0.4c0,0.5,0,1.1,0,1.6c-1.1,0.1-2.2,0.1-3.2,0.3c0,0.1-0.1,0.4-0.2,0.5c1.4,0.1,2.8,0,4.2,0
			c-0.4,1.1-1.7,1.4-2.2,2.4c-0.1,0.6-0.1,1.2-0.3,1.7c-1.2,0.1-2.3-0.1-3.5,0.1c-1,0.5-1.9,1-2.8,1.6c-0.4,1.8-0.1,3.7-0.2,5.5
			c-0.2,0.6,0.8,0.8,0.7,1.4c-0.4,0.2-0.9,0.3-0.8,0.8c0,1.3,0,2.7,0,4c0.3,0.4,0.8,0.4,1.2,0.6c0,0.4,0.1,0.8,0.1,1.2
			c-0.4-0.1-0.8-0.2-1.1-0.2c-0.1,0.9-0.1,1.8,0.2,2.7c0.8,0,1.6-0.1,2.3,0.1c0.1,2.8-0.1,5.6,0,8.4c0,0.5,0.2,0.8,0.7,0.9
			c0.1,0.4,0.1,0.8,0.1,1.2c0.7,0.2,0.6-0.8,1.3-0.6c0.5,0.3,0.8,0.7,1.2,1.1c0.1,1.7,0,3.4,0,5.2c1.2,0.2,2.4,0.1,3.6-0.1
			c3.5-0.2,7-0.1,10.5-0.2l0-0.3c-2.7-0.1-5.4,0-8-0.1c-0.1-2.9-0.1-5.8,0-8.7c1.1-0.2,2.2-0.1,3.3-0.2c0.1-0.2,0.2-0.6,0.3-0.8
			c0.6-0.1,1.3-0.1,2-0.2c0.1-0.2,0.2-0.7,0.2-0.9c0.8-0.4,2,0.2,2.4-0.7c0.7-0.4,0.4,0.7,1,0.6c2.2,0.1,4.4-0.1,6.6,0.1
			c0.6,0.1,0.5,0.7,0.6,1.1c0.7,0.1,1.5,0.1,2.2,0.3c0,0.2,0.1,0.7,0.2,0.9c2.8,0.1,5.6,0.2,8.4,0.3c0.6,0.4,0.9,1.2,1.6,1.4
			c1.9,0,3.3,1.7,5.2,1.9c2.3,0.1,4.7-0.1,7.1,0.3c4.6,0,9.2,0,13.8,0.1c0.4-0.1,0.7,0.1,0.9,0.5c0.4,0.2,0.9-0.1,1.3-0.2
			c2.5,0.7,5.1,0.2,7.6,0.5c0.6,0,0.7,0.7,1,1.1c0.6,0.1,1.3,0.1,2,0.2c0.1,0.4,0.1,0.8,0.2,1.2c2.9,0.1,5.7,0.2,8.6,0.2
			c0.2,0.4,0.4,0.8,0.7,1.1c0.5,0.4,1.3,0.2,1.9,0.5c1.2,0.7,2.5,1.5,3.9,1.8c4.1,0.1,8.3-0.1,12.3,0.4c3,0,6.1-0.1,9.1,0.1
			c0,0.5,0,1,0,1.5c-2.4,0-4.9,0-7.3,0.1c-3.3,0.1-6.6-0.3-9.9,0.2c-1.5,0-3-0.1-4.5,0.1c-0.4,0.2-0.6,0.7-1,0.9
			c-0.4,0.2-1.2,0-1.2,0.5c0.3,0.4,0.9,0.6,1.4,0.5c2.4-0.1,4.7,0,7.1-0.2c3.6-0.6,7.4,0.2,11-0.6c2.3-0.1,4.7,0.1,7-0.2
			c3.3-0.6,6.8,0.1,10.1-0.5c2.2-0.3,4.5,0.1,6.7-0.3c1.2-0.2,2.5,0,3.7-0.2c2.5-0.6,5.2,0,7.7-0.4c2-0.5,4,0,6-0.4
			c1.6-0.4,3.3,0,5-0.3c2.2-0.5,4.5,0.1,6.7-0.4c1.2-0.3,2.4-0.1,3.5-0.4c2-0.4,4,0.1,5.9-0.4c2-0.3,4,0.2,6-0.4
			c1.1-0.3,2.2,0.1,3.3-0.2c1.5-0.4,3.1-0.2,4.7-0.4c0.2-0.8-0.8-0.8-1.3-0.8l0.1-0.3c0.8,0,1.6,0.5,2.4,0.7
			c1.8,0.4,3.7-0.3,5.5-0.4c0-5.3,0-10.6,0-15.9c0-1.9,0.4-3.7-0.1-5.6c0.1-0.1,0.4-0.3,0.5-0.4c0.1,7.2,0,14.3,0,21.5
			c0.5,0,1.4-0.7,1.7,0c-0.3,1.1-0.9,2.1-1.2,3.2c-0.1,0.7,0.8,0.6,1,1.1c-0.2,0.3-0.6,0.5-1,0.5c-3.1,8.8-5.5,17.9-7.2,27.1H107
			c-0.6-4.4-1.1-8.9-1.6-13.4c-0.3-1.3-0.2-2.7,0.2-4c0.1-2.6-0.4-5.1-0.5-7.7c-0.6-0.1-1.1-0.1-1.7-0.1c0-0.2,0-0.5,0-0.6
			c0.4,0,0.9,0,1.3-0.1c0-0.8-0.3-1.6-0.5-2.3c-0.6-0.3-1.3-0.2-1.9-0.2c-0.2-1,1-0.6,1.6-0.7c-1.2-4.9-2.5-9.9-3.7-14.8
			c0-0.5-0.7-1.3-0.1-1.5l0.2,0.2c1.6,6.7,3.4,13.4,5,20.1c0.2,1.3,1.1,2.3,1.4,3.5c0.3,0.5,0.4,1.5,1.1,1.5
			c1.1-0.1,2.2-0.7,3.3-0.3c0,0.2,0.1,0.7,0.2,0.9c2.2,0.4,4.5-0.2,6.7,0.4c2.8-0.1,5.6,0.3,8.4,0c0.2-1,0-2,0.3-2.9
			c0.7-0.9,1.7-1.7,2.8-2c-0.3,0.7-1.2,0.9-1.7,1.4c-1.2,0.8-0.9,2.4-0.8,3.6c2,0,4,0.6,6,0.4c1.7-0.1,3.3,0.2,5-0.1
			c0.2-0.7,0.1-1.4,0.5-2c1.3-0.1,2.7-0.1,4,0c0,0.6,0,1.1,0.1,1.7c0.5,0.1,0.9,0.1,1.4,0.1c-0.1-0.2-0.2-0.6-0.3-0.8
			c1.6,0.3,3.2-0.4,4.8-0.4c0.1-0.2,0.2-0.7,0.2-0.9c0.7-0.2,1.3,0.1,2,0.2c0.4-0.1,0.9-0.3,1.3-0.3c0.3,0.5,0.7,1,1.3,1.2
			c0.1,0.6,0.1,1.2,0.9,0.9c0.1-0.9,0-1.9,0.1-2.8c1-0.1,2.1,0.1,3.1-0.1c0-0.6,0.1-1.1,0.1-1.7c0.2,0,0.6,0,0.8,0.1
			c0.1,0.2,0.2,0.6,0.2,0.8c0.4,0.2,0.9,0.3,1.1,0.7c0.7,0.2,1.5,0.1,2.3,0.2c0,1.4-0.2,2.8,0.1,4.1c3,0.2,6.1,0.1,9.2,0.2
			c0.9,0.1,1.3-0.9,2.2-0.9c0.6,0,1.2,0.2,1.6,0.6c0.4,0.4,0.4,1.3,1.2,1.3c-0.1-0.2-0.2-0.7-0.3-0.9c3.7,0.4,7.5,0.1,11.2,0.3
			c3.8,0.5,7.6,0.2,11.4,0.3c0.7,0.1,1.5-0.3,1.3-1.1c-0.9-0.1-1.3-0.8-1.9-1.3c-5.7-0.2-11.4-0.4-17.2-0.3c-1.5-0.2-3-0.3-4.6-0.3
			c0-0.4,0-0.9,0-1.3c6.9-0.2,13.9-0.2,20.8-0.5c1.8,0,3.2-1.1,4.7-1.9c0.4-0.2,1,0.2,1.4-0.1c0.4-0.4,0.6-1,1.1-1.4
			c2.7-0.1,5.3,0.2,8-0.1c0-0.2,0.1-0.6,0.2-0.9c0.6-0.4,1-0.9,1.2-1.7c2.2-0.2,4.4-0.2,6.7-0.1c0.1,0.4,0.2,0.8,0.3,1.2
			c0.5,0.3,1.2,0.4,1.7,0.2c0.4-0.5,0.3-1.3,0.7-1.8c2.1,0.6,4.4,0.2,6.6,0.4c0.1,0.2,0.2,0.7,0.2,0.9c0.2,0.1,0.6,0.2,0.8,0.3
			c0.1,0.4,0.2,0.7,0.3,1.1c0.5,0.2,0.9,0.6,0.7,1.2c0,2.7,0,5.4-0.1,8.1c2,0.2,4,0.1,6,0c0.2-1,0.1-1.9,0.1-2.9
			c-0.2-4.2,0.1-8.5-0.1-12.7c-1.7-0.6-3.5-1.3-5.2-1.9c0-0.8,0-1.6,0-2.4c0-0.6-0.2-1.3,0.5-1.5c0.1-0.7-0.4-1.4-0.1-2.1
			c0.2-0.6,1-0.8,1.5-0.6c0.2,0.8-0.1,1.7-0.3,2.5c0.2,0.5,0.2,1,0.1,1.5c0.4,0,0.9,0,1.3,0c-0.1-0.2-0.2-0.7-0.3-0.9
			c0.8-0.2,0.4,0.8,1.1,0.8c0-2.3,0.2-4.7-0.1-7c-1.5-0.2-3.1,0-4.6-0.5c-1.9,0-3.7-0.4-5.6-0.4c-0.3-1.5-0.2-3-0.1-4.5
			c1.5-0.3,3.1,0.1,4.6-0.4l0-0.3c-1.1,0-2-0.6-3.1-0.5c-0.5-0.1-1.2,0.1-1.4-0.5c1.2,0,2.3,0.1,3.5-0.1c0.3-0.4,0.3-1,0.7-1.3
			c0,0.5,0,0.9,0,1.4c0.5,0.1,0.8-0.1,0.8-0.6c0.4,0,0.8,0.3,1.3,0.2c0.5-0.3,0.8-0.8,0.8-1.4c0.1-1.4,0.1-2.8-0.2-4.2
			c1.2-0.2,2.2-1.1,3.3-1.5c0.1-0.4,0.2-0.8,0.2-1.2c1.4-0.1,2.7-0.1,4.1-0.1c-0.1,1-0.1,2.6,1.3,2.3c0.2-0.6,0.7-1.2,1.4-1.2
			c0,0.9-0.1,1.9,0.1,2.8l0.4,0c0-1.1,0-3,1.6-2.7c0.2,0.4-0.2,1.4,0.5,1.3c0-0.8,0-1.6,0-2.5c-0.3,0.5-1.1,0.1-1-0.4
			c0.4-0.2,1-0.1,1.2-0.5c0-0.6-0.5-1-0.5-1.6c-0.4,0-0.6-0.1-0.7-0.4c0.4-0.1,0.7-0.2,1.1-0.3c0.2-0.8,0.1-1.6,0-2.4
			c-0.8-0.1-1.7-0.2-2.5-0.3c-0.3-0.5-0.3-1.1-0.5-1.6c-0.2,0-0.6,0.1-0.7,0.1c-0.1-0.8,0.8-1.5,0.6-2.2c-0.5-0.1-0.8-0.6-0.6-1.1
			c0.4-0.2,0.8-0.4,1.2-0.7c0.3-0.5,0.3-1.2,0.8-1.5c-0.2,0.5-0.6,1-0.4,1.6c0.6,0.5,1.6,0.8,2.4,0.4c0-1.4,1.3-2.1,1.7-3.4
			c0.8-0.1,1.5,0.1,2.3,0.1c-0.2,1.1-0.7,2.2-0.3,3.3c0.7,0.2,1.5,0.1,2.2,0.2c0.2,2,0,4.1,0.1,6.1c-0.4,0-0.9,0.1-1.3,0.1
			c0,1.6-0.7,3.1-0.4,4.7c1.9,0.1,3.8,0.2,5.7-0.1c0.1-0.4,0.2-0.8,0.3-1.1c0.4-0.1,0.8-0.2,1.2-0.3c0.3-1.7,0.1-3.4-0.2-5
			c0-2.3-0.1-4.7-0.5-7c-0.2-1.2-2-0.7-2-1.8c0.7,0,1.3,0,2-0.1c0.1-1-0.4-2.2,0.3-3.1c-0.1,0-0.4-0.1-0.5-0.2
			c-0.2-1.7-0.3-3.5-0.4-5.2c-0.1-3.2-0.8-6.4-0.8-9.6c-0.4-1.6-0.5-3.2-0.4-4.9c-0.5-1.2-0.2-2.5-0.6-3.7c0.3-3.2-0.3-6.3-0.4-9.4
			c-0.2-0.3-0.4-0.6-0.6-0.9c-0.3-2-0.3-4-0.6-6c0-1.4-0.1-2.8-0.3-4.2c0-1.5-0.1-3-0.4-4.5c0.2,0,0.6,0.1,0.8,0.1
			c0.4,3.5,0.5,7.1,1,10.6c0.4,0.1,0.8,0.2,1.1,0.4c0.2,1.1,0,2.2,0.2,3.3c0.5,0.1,1.1,0,1.6,0l0,0.3c-0.5,0-1.1-0.1-1.6,0
			c0.2,1.4,0.3,2.9,0.4,4.3c0,1.4,1.5,2.2,2.7,1.8l0,0.3c-0.6,0-1.1-0.2-1.7,0c-0.5,1,0.9,1.1,1.4,1.7c-0.4-0.2-0.9-0.3-1.4-0.4
			c0.2,0.8,0.5,1.7,0.7,2.5c-0.1-0.1-0.3-0.4-0.5-0.6l-0.3,0c0,1.4,0.9,2.8,0.3,4.2c-0.1,0.6,0.1,1.2,0.3,1.8
			c0.2,1.5-0.4,3.3,0.7,4.6c-0.7,2,0.1,4.2,0.1,6.3c0.4,2.5,0.2,5.1,0.9,7.6c0.2,0.8,0.1,1.7,0.4,2.6c0.4,0.1,0.8,0.2,1.1,0.5
			c-0.4,0.3-1.2,0.4-1,1.1c0.3,1.8,0.1,3.6,0.7,5.4c-0.1,2.1,0.4,4.1,0.2,6.2c0.7-0.1,1.2-0.6,1.7-1c-0.1-1.3,0.6-2.5,0.3-3.7l0.3,0
			c0,0.9-0.3,1.8-0.5,2.7c-0.2,0.8,0.3,1.5,0.3,2.3c-0.7,0.7-0.7,1.7-1,2.6c0,1.8-0.6,3.5-0.7,5.3c-0.1,1.1,0.4,2.1,0.3,3.2
			c0,2.7,0.7,5.4,0.8,8.1l0.3,0c0.7-0.9,1.4-2,1.5-3.1c-0.6,0-1.2,0-1.7-0.1c0-0.2,0.1-0.6,0.1-0.9c0.5,0,0.9,0,1.4-0.1
			c0-0.3,0-0.9,0-1.2c-0.5,0-0.9,0-1.4,0l0-0.3c0.4,0,0.9,0,1.3,0c0.2-1.2-0.5-2.3-0.4-3.5c0.1,0,0.4,0,0.6,0c0.1,0.9-0.2,2,0.3,2.8
			c0.5,0.1,0.7,0.8,1.1,0.9c0.1-0.4,0.3-0.7,0.5-1c0.3,0.2,0.5,0.5,0.4,1c1,0.3,2,0.1,3,0.1l0,0.3c-0.9,0-1.9-0.1-2.8,0.1
			c0,0.2,0,0.5,0,0.7c1.1,0,2.1,0.1,3.1,0.4c3.4,0.6,6.9,0.9,10.3,0.6c0.1-0.5-0.2-1-0.3-1.4c0.5,0.2,0.5,0.9,0.7,1.3
			c0.4,0.1,0.8,0.1,1.3,0c0.1-0.9-0.3-2.2,0.8-2.5c0.2-0.7-0.1-1.5,0.3-2.1c0.7-0.5,1.6-0.2,2.3,0.1c0-5.4,0.1-10.8,0-16.3
			c0-1,0-1.9,0.1-2.9c0-0.6-0.7-0.9-0.4-1.5c0.3-1.1,1.4-0.6,2.1-0.3c0.3,0.5,0,1.1-0.1,1.6c1.6,0.7,3.4,0.7,5,1.3
			c3,0.5,5.9,1.4,8.9,1.9l0.1,0.2c-0.6-0.1-0.9,0.1-1,0.4c0.9,0.4,1.6-0.5,2.5-0.3c5.2,1.3,10.4,2.4,15.6,3.6c0.7,0,2-0.3,1.8-1.2
			c-1.9-0.3-3.7-0.9-5.6-1.1l0-0.3c2.1,0.5,4.2,0.9,6.3,1.5c0.6,0,1-0.4,1.6-0.6c2.9-0.5,5.2-2.4,7.9-3.3c0,0.1,0.1,0.4,0.1,0.5
			l0.3,0.1c-0.1-0.4,0-0.8,0.1-1.2c0.7,0,1.7-0.7,2.3-0.1c-0.5,0.7-1.2,1.2-1.9,1.5c-1.9,1.4-4.2,2.2-6.1,3.5c-0.2,0.5,0,1.1,0,1.6
			c-0.5-0.1-0.2-1-1-0.8c-1.2-0.2-1.7,1.1-2.8,1.3c0,0.2-0.1,0.6-0.1,0.8c-0.1-0.1-0.3-0.4-0.4-0.5c-1.4,0.2-2.6,1.5-4.1,1.7
			c-0.1-0.2-0.3-0.5-0.4-0.6c0,0.5,0.2,1.1-0.4,1.3c-8.3,4.6-16.9,8.7-25.1,13.5c0.2,0.6,0.5,1.1,0.8,1.7c0.8,0,1.5-0.3,2.3,0
			c0-0.5,0.3-0.7,0.7-0.6c0,0.3,0.1,0.8,0.1,1c0.3,0,0.8,0,1,0c0.1-1.5,0-3,0-4.6c0.1,0,0.4,0,0.6,0c0,1.5-0.1,3,0,4.5
			c0.8-0.1,1.6-0.3,2.4-0.2c0.1,0.2,0.2,0.7,0.2,0.9c0.2,0,0.6,0.1,0.8,0.1c0-0.3-0.1-0.7-0.1-1c1.1,0,2.1-0.1,3.1-0.3
			c0,0.2,0.1,0.6,0.1,0.8c0.3,0.1,0.7,0,1-0.1c0.4-1.5,0.3-3.1,0.2-4.7l0.3,0c0.1,1.5-0.1,3.1,0.1,4.6c0.8,0,1.6-0.3,2.4-0.3
			c0.6,2.1-0.4,4.2,0,6.3c0.1,0.6-0.1,1.4,0.6,1.6c0,0.5-0.6,0.9-0.3,1.4c0.2,0.7,0.5,1.3,0.9,2c0.8,0.4,2-0.3,2.6,0.5
			c0.1,1.9-0.2,3.9,0.2,5.8c0.7,0.2,1.4,0.1,2.1,0.1c0.5,2.6-0.3,5.3,0.1,8c5.4-0.1,10.8-0.1,16.2,0c3.5-0.2,7.1,0.2,10.6,0.1
			c0.1-0.9,0.1-1.9,0-2.8c-0.1-4.1,0.1-8.2,0-12.3c0-1-1.2-0.8-1.8-0.9c-9.3,0-18.6,0-27.9,0c0-1.4,0-2.7,0-4.1c7.5,0,15,0,22.5,0
			c3.1-0.1,6.3,0.3,9.4,0c0.1-0.1,0.2-0.3,0.3-0.3c2.8-0.2,5.6-0.1,8.4-0.1c1-0.1,1.8,0.6,2.8,0.6c3.2-0.1,6.4,0.2,9.5,0.1
			c4-0.1,8,0.1,11.9-0.1c0.2-1,1.7-0.5,1.8-1.5c0.3-1.8,0.8-3.6,1.5-5.2c0.3-0.7-0.3-1.9,0.7-2c-0.5,2.2-1.4,4.2-1.9,6.4
			c-0.2,0.7,0.6,0.9,1.1,1c1-1.1,1.2-2.8,2.5-3.5c-0.4,1-1.2,1.8-1.4,2.9c-0.3,0.6,0.5,1,0.9,1.4c0,0.2-0.1,0.5-0.2,0.7
			c0.4,0,0.9,0,1.3,0c0,0.9-0.2,1.8-0.4,2.6c-1.5,0.1-3-0.1-4.5,0.1c-0.5,0.2-0.5,0.8-1,1.1c0-0.2-0.1-0.7-0.1-1
			c-0.8-0.3-1.7,0.1-2.5,0.2c-0.4,0.2-1.5-0.3-1.4,0.4c1.3,0,2.6,0,3.7,0.6c0.1,0.6,0.2,1.1,0.1,1.7c-0.3,0.4-1.1,0.4-1,1
			c0.9,0.1,1.9-0.1,2.8,0c0.2,0.9,0.2,1.8,0.1,2.7c0.4-0.1,0.7-0.2,1-0.5c0.1-0.5,0.1-1,0.3-1.4c1-0.5,1.2-1.7,2.3-2.1
			c0.5-0.1,1.1,0,1.6,0c0-0.8-0.1-1.6,0-2.4l0.4,0c0.1,0.7,0,1.4,0.1,2.1l0.3,0c0-1.2,0.1-2.3,0-3.5c-0.1-0.4-0.2-1.2-0.7-1
			c-0.1,0.5,0.7,1.8-0.3,1.6c-0.2-1-0.2-2-0.5-3c-0.5-1.4,0-2.9-0.3-4.3c-0.2-0.1-0.5-0.4-0.7-0.5c0.5-1.1,0.6-2.4,0.1-3.6
			c-0.1-1.4,0.1-2.8-0.5-4.1l-0.3-0.1c-0.1,1.3-0.6,2.5-0.8,3.7l-0.3,0.1c0.4-1.6,0.7-3.3,1.4-4.9c0-2.6-0.6-5.2-0.7-7.8
			c0-1.2-0.9-2.3-0.6-3.5c0.2-1.7-0.1-3.3-0.2-5c0.2,0.1,0.7,0.3,0.9,0.3c0.1-0.7-0.5-0.7-1.1-0.7c0-0.2,0-0.4,0-0.6
			c0.4,0.1,1-0.1,1.4,0.3c0.2,0.7,0.2,1.4,0.3,2.1l0.3,0c2.1-1.5,4.7-2.1,7.2-2c1.6-0.5,3.3-0.3,5-0.5c1.8,0,4,0.1,5,1.9
			c-0.1,0.1-0.4,0.3-0.5,0.4c0.1,1.3,0.2,2.5,0.5,3.7c0.5,0,1,0,1.4,0c-0.1,0.8-1,1.1-1.1,1.9c-0.2,1.1-0.1,2.2,0.3,3.2
			c0.3,1-0.2,2,0.2,3c0.5,1.1,0,2.4,0.3,3.6c0.3,0.8,0,1.7,0.3,2.5c0.5,1.2-0.2,2.5,0.2,3.7c0.4,3.4,0.7,6.8,1.1,10.3
			c0.4,1.6,0,3.5,0.8,5c0.6,0,1.1-0.1,1.7-0.1c0.3,0.9-1.1,0.7-1.7,0.8c-0.1,0.6-0.2,1.2,0.1,1.8c0.7,0.4,1.4,0.8,2.1,1
			c0.7,0.2,1.3-0.4,1.9-0.5c0.8,0.2,1.6,0.2,2.4,0.4c0,0.2,0.1,0.7,0.2,1c0.9,0.1,1.8,0.1,2.6,0c0-0.4,0.1-0.9,0.2-1.3
			c0.5-0.2,1.1-0.2,1.5,0.2c0.5,0.6,1.5,0.4,2.2,0.4c0.2-1.7,0.4-3.5,0.2-5.3c-1.1-0.2-2.3,0-3.4-0.1c0-1.2-0.6-2.2-0.8-3.3
			c0.7,0.4,0.6,1.7,1.1,2.4c0.5-0.2,0.6-0.9,0.9-1.3c0.2-0.6,0.7-1,0.9-1.6c-0.8,0-1.6,0-2.4-0.1c-0.1-0.5,0.1-0.9,0.6-1.1
			c0.1-0.4,0.1-0.8,0.1-1.3c1.2,0,2.3,0.1,3.5-0.1c0.3-3.3-0.2-6.6,0.4-9.9c-0.1-2.6,0.1-5.2,0-7.8c-0.6-0.7-1-1.7-2.1-1.9
			c-0.1-1.1-0.1-2.2,0-3.3c0.5,0,1.1,0,1.6,0c0.4-0.4,0.4-1.1,1-1.3c0.3-0.7,0.3-1.7,0.9-2.2c0.5-0.4,0.8-1.1,1.4-1.5
			c0.5,0,0.9,0.4,1.3,0.7c1.1,0.5,0.8,2,1.2,3c0.5,0.2,0.6,0.7,0.8,1.1c0.4,0.3,1,0.1,1.5,0.1c0.1,1.1,0,2.2,0.2,3.4
			c0.6,0,1.2,0.1,1.8-0.2c0.3-0.8,0.1-1.8,0.7-2.6c0.6-0.5,1.2-1,1.7-1.5c0.6,0.4,1.3,0.7,1.7,1.2c0.4,1,0.4,2,0.5,3.1
			c0.9,0,1.8-0.1,2.6,0.2c0,1.1,0.2,2.2-0.2,3.2c-1.5,1.3-2.9,2.7-4.3,4.2c-0.5,0.9-0.2,2-0.2,3c0.3,3.7,0.4,7.4,0.9,11
			c1.1,0.4,1.7,1.4,2.6,2c0,0.8,0.4,1.5,0.4,2.3c-0.2,0-0.7,0.1-0.9,0.1c-0.3,0.3-0.4,0.8-0.5,1.3c0.2,0,0.5-0.1,0.7-0.2
			c0.2,0.6,0.9,0.4,1.5,0.6c0,0.7-1,0.4-1.5,0.7c-1.2,0.2-1.7,1.5-1.7,2.6c2.3,0.2,4.6,0,6.9,0.1c0.8,1,2.2,0.7,3.3,0.5
			c0.1-0.5,0.6-0.7,1-0.8c-0.1-1.5-0.1-3-0.2-4.5c-0.4-1.2-0.1-2.6-0.4-3.8c-0.3-1.1,0-2.4-0.4-3.5c-0.4-1.6,0-3.5-0.7-5
			c-0.2,0-0.5,0.1-0.7,0.2c0.7-1.5,0.5-3.3,0.1-4.9c-0.2-1.1,0.2-2.3-0.2-3.3c-0.5-0.8-0.1-1.8-0.2-2.6c-0.5-3.9-0.8-7.8-1.4-11.6
			c-0.1-0.7-0.5-1.4-0.4-2.1c0.4-0.2,0.8-0.2,1.2,0c0.4,0.2,0.3,1.1,0.8,0.9c0-0.6-0.3-1-0.7-1.3c0.9-2,3.4-2.6,5.4-2.9
			c1.1-0.3,2.4,0.1,3.5-0.4c0.9-1.3,1-3.2,2-4.4c1.4,0.9,2.5,2.2,3.9,3.2c0.7,0.5,1.2,1.4,2.1,1.4c0.1-0.9,0-1.9,0.1-2.8
			c0.2,0,0.5-0.1,0.6-0.2c-0.6,1.2-0.4,2.5-0.3,3.7c0.2,0,0.5,0,0.7,0c0.1-1.4,0-2.8,0-4.2c0.1-0.5-0.6-0.8-0.5-1.3
			c0.8-0.2,0.4-1.2,0.5-1.8c0.8,0.2,1.6,0.5,2.4,0.1c0.3-0.5,0.3-1.2,0.8-1.6c-0.5,0.7-0.4,1.6,0,2.4c-0.6,0.4-1.4,0.7-1.4,1.5
			c0.2,1.2,0.4,2.4,0.5,3.6c-0.2-0.1-0.6-0.3-0.9-0.4c0.1,0.5,0.5,0.7,0.9,0.9c0.2,0.7,0.5,1.5,0.1,2.1c-0.6,0.7-0.3,1.7-0.4,2.5
			c-0.3,1.9-1.6,3.7-1.2,5.7c0.4,1.5,0,3.3,0.9,4.7c0.5,0.8,0.3,1.9,0.8,2.7c0.6,1.4,0.6,3,1.4,4.2l0.3,0c0.1-0.5,0.1-1.1,0.5-1.5
			c0.1,0,0.4-0.1,0.5-0.1c0.8-2.6,0-5.5,0.5-8.1c0.7,0,1.4,0,2.1-0.1c0-0.6,0.3-1.5-0.3-1.8c-0.8-0.3-0.9-1.4-0.3-2
			c0.4-0.5,1.2-0.5,1.8-0.2c0.3,0.5,0.2,1.1,0.1,1.7c-0.9,0.5-1.2,1.3-1,2.3c0.8,0.3,1.6-0.2,2.4,0.1c0.6,0.9,0.4,2,0.5,3
			c0.8-0.2,1.6,0.2,2.4-0.1c1.3,0.4,2.7,0.3,4,0.2c0-1.8-1.1-3.3-1.4-5c0.8,0,1.6,0,2.4,0c0-0.2,0.1-0.5,0.1-0.7
			c-0.6-1.6-0.1-3.3-0.5-4.9c-0.4-1.9,0.1-3.8-0.3-5.6c-0.4-1.7,0-3.6-0.4-5.3c-0.3-1.3,0-2.6-0.3-3.9c-0.3-1.4,0-2.9-0.4-4.2
			c-0.3-1.3,0-2.7-0.3-4c-0.5-1.9,0-3.9-0.5-5.8c0-4.1-0.6-8.2-0.9-12.3l-0.4,0c-0.1,1.2-0.1,2.4,0,3.5l-0.3,0
			c0.2-2.1,0.1-4.2,0.1-6.3c0-0.7-0.6-1.4,0-2c0.2-0.8,0.2-1.8-0.2-2.5c-0.2,0-0.6-0.1-0.9-0.1c-0.3-0.7,0.5-0.6,0.9-0.7
			c0.2-1.5-0.3-3-0.4-4.5c-0.2,0-0.7-0.1-0.9-0.1c0-0.5,0.4-0.7,0.7-1c0.1-1.1,0.2-2.3-0.2-3.4c-0.2-0.1-0.6-0.2-0.8-0.2
			c-0.3-0.6,0.6-0.5,0.7-1c0.2-1.3-0.2-2.6-0.4-3.8C467.9,470.5,468.1,470.2,468.5,470.1z M469.7,480.5 M470.3,480.8
			c-0.1,0.5,0.1,1,0.4,1.4c0.8-0.1,1.7-0.7,2.1-1.4C472,480.6,471.1,480.6,470.3,480.8z M469.6,481.6 M469.7,483.7 M470,485.1
			c-0.2,0.5-0.3,1.7,0.2,2C470.3,486.5,470.6,485.3,470,485.1z M470,487.6c-0.2,0.6,0,0.8,0.6,0.6
			C470.8,487.6,470.6,487.4,470,487.6z M470.4,489 M470.3,490c0.2,1.4-0.4,3,0.3,4.4c0.2,1.5-0.1,3,0.1,4.4l0.3,0
			c0.1-1.4,0.1-2.8,0.1-4.2c-0.7-1.4-0.3-3.1-0.4-4.6L470.3,490z M255.3,492.2 M471,499.5c0,1.3-0.2,2.6,0,3.9l0.4,0
			c0.1-1.3,0.1-2.6,0-3.9L471,499.5z M472.1,504.9 M471.5,505.6c-0.2,0.4-0.5,1.4,0.1,1.6C471.8,506.8,471.9,505.8,471.5,505.6z
			 M472.5,509.5c-0.2,0.7-0.4,1.9,0.1,2.3C472.8,511.2,473.1,509.9,472.5,509.5z M257.1,509.9 M471.8,509.9
			c-0.1,0.7-0.5,1.9,0.1,2.3C472.1,511.5,472.3,510.3,471.8,509.9z M482.1,510.9c-0.5,0.1-0.5,1,0.1,0.6
			C482.8,511.5,482.7,510.4,482.1,510.9z M483.1,512c-0.2,0.5,0,0.7,0.5,0.5C483.8,512.1,483.6,511.9,483.1,512z M472.8,512.7
			c-0.1,1.3-0.1,2.5,0,3.8c0.3,0.8,0.4,1.6,0.4,2.5l0.4,0c0-0.9,0.3-1.9-0.2-2.6c-0.3-1.2,0-2.5-0.1-3.7L472.8,512.7z M482.4,513.1
			 M480.2,516.2c0-0.1,0-0.4-0.1-0.6c-0.6-0.4,0.3-0.7,0.1-1.2C478.8,513.9,478.8,516.7,480.2,516.2z M487.4,514.5 M472.2,514.9
			c-0.2,0.5-0.5,1.7,0.1,1.9C472.5,516.3,472.7,515.2,472.2,514.9z M481.7,515.2 M482.7,515.1c-0.2,0.9,0.4,1.6,0.1,2.5
			c0.5,0,1.1,0,1.6,0c0.1-0.8,0.1-1.7,0-2.5C483.9,515,483.3,515,482.7,515.1z M485.3,515.2c-0.1,0.7-0.4,1.9,0.1,2.3
			C485.6,516.8,485.8,515.6,485.3,515.2z M487,515.5 M481.7,516.2 M487,517.3c0,0.2-0.1,0.5-0.1,0.7
			C487.2,518.9,487.7,517.1,487,517.3z M483.1,518.4c0,0.5,0.9,0.4,1.3,0.2C484.3,518,483.4,518.2,483.1,518.4z M485.2,518.4
			 M483.5,519.4c-0.4,0.3,0,1.4,0.5,0.9C484.4,520,484,519,483.5,519.4z M472.5,520.5c-0.3,0.6-0.2,1.3,0,1.9
			C472.9,522.1,473,520.7,472.5,520.5z M473.1,521.8c0.7,1.5,0.2,3.3,0.4,5c1.2,0,0.7-1.6,0.7-2.4c-0.7-1.2-0.2-2.6-0.4-3.9
			C473.1,520.3,473,521.2,473.1,521.8z M483.5,520.8 M481.7,521.5c0,0.1,0,0.4,0,0.6l0.3,0c0-0.1,0-0.4,0-0.6L481.7,521.5z
			 M483.1,521.8c0.1,0.7-0.5,1.1-0.4,1.8c0.5,0,0.9,0,1.4,0c0-0.6,0-1.2,0-1.8C483.9,521.8,483.3,521.8,483.1,521.8z M494.8,521.9
			c-0.2,0.6,0,0.8,0.6,0.6C495.6,521.9,495.4,521.7,494.8,521.9z M493.7,523.3c-0.3,0.4,0,1.3,0.6,0.9
			C494.6,523.9,494.2,523.1,493.7,523.3z M495.9,523.3c0,0.2-0.1,0.5-0.1,0.7C496,524.9,496.6,523.1,495.9,523.3z M482.4,524.4
			 M455.5,525.1 M493,525.1 M493.7,525.1 M494.4,525l0,0.3c1.1,0,2.1,0.1,3.2,0V525C496.5,524.9,495.5,525,494.4,525z M456.2,525.8
			 M482.8,525.8 M475,526.1 M476,526.1 M477.8,526.2c0,0.5,0.9,0.4,1.3,0.2C479,525.8,478.1,525.9,477.8,526.2z M479.9,526.2
			c0.3,0.5,1.4,0.3,2,0.1C481.6,525.8,480.5,526,479.9,526.2z M487.7,526.1 M494,526.4c0,0.6,0.8,0.9,1.1,1.4
			c0.3-0.1,0.6-0.1,0.9-0.1c0.2-0.5,1-0.5,0.8-1.2C495.9,526.4,495,526.4,494,526.4z M476.3,526.8c0.1,0.8-0.3,1.6-0.1,2.3
			c1.3,0.9,2.9,0.5,4.4,0.5c0.1-0.9,0.1-1.9,0-2.8c-1.2-0.1-2.4,0-3.5,0l0,0.3c0.2,0,0.5,0,0.6,0.1v0.3c-1-0.2-0.6,0.8-0.7,1.4
			l-0.3,0c0-0.7,0-1.4,0-2.1L476.3,526.8z M490,527c-0.9,0.4,0,1.5-0.6,2.2c0.5,0.3,0.6-0.6,0.8-0.8c0.3-0.5,0.8-1,0.9-1.6
			C490.7,526.7,490.3,526.8,490,527z M475.7,527.9 M482.8,527.9 M486,527.9c-0.2,0.5-0.2,1.1,0,1.6C486.4,529.4,486.4,528,486,527.9
			z M487,527.9 M515.3,527.9 M505,528.3 M487,528.6 M487.7,528.6 M488.4,528.6c0,0.2-0.1,0.5-0.1,0.7
			C488.6,530.2,489.2,528.5,488.4,528.6z M482.8,529 M487.7,529.3 M443.9,530c-0.2,0.6-1.3,0-1.1,0.7c0.9,0,1.9,0.1,2.8,0
			C445.9,529.6,444.5,529.8,443.9,530z M456.6,530 M482.3,530.6c-1.2,0.1-2.3,0-3.5,0c0,0.2,0,0.5,0,0.7c1.3,0,2.6,0,3.9,0
			c0-0.5,0-0.9,0-1.4C482.6,530.1,482.4,530.5,482.3,530.6z M485.9,530c0,0.2-0.1,0.5-0.1,0.7C486.1,531.6,486.7,529.9,485.9,530z
			 M487,530.1 M439.8,530.6l0,0.4c0.7,0.1,1.4,0.1,2.2,0c0-0.2,0-0.5,0-0.7C441.3,530.2,440.7,530.9,439.8,530.6z M455.9,530.4
			 M455.2,530.7 M475.3,530.7c-0.1,0.7-0.1,1.4,0,2.1c0.8,0.1,1.7,0.1,2.5,0c0.1-0.7,0.1-1.4,0-2.1
			C476.9,530.6,476.1,530.6,475.3,530.7z M487.4,531.1 M286.4,531.4 M287.4,532.4c0.5,0,0.9,0.1,1.1,0.4c0.7,0.1,1.3,0,2,0.1
			l0.2,0.3c1.2,0,2.1,0.5,3.3,0.5c0.4,0.7,1.5-0.1,2,0.6c0.7,0.2,1.4,0,2.2,0c0.1-1.1-1.6,0-2-0.8c-1.1-0.1-2.1-0.5-3.1-0.8
			c-1.6,0-2.9-0.8-4.4-0.8C288.2,531.4,287.1,531.5,287.4,532.4z M454.7,533.1c0.5,0.1,1,0.1,1.4,0c0-0.5,0-1,0-1.4
			C455.2,531.4,454.4,532.2,454.7,533.1z M478.8,531.7c0,0.3,0,0.8,0,1.1c1.3,0.1,2.6,0.1,3.9,0c0-0.3,0-0.8,0-1.1
			C481.4,531.7,480.1,531.7,478.8,531.7z M259.2,532.2 M487.3,532.1 M500,532.1c0,0.2,0,0.5,0,0.7c0.7,0.1,1.4,0.1,2.1,0
			c0-0.2,0-0.5,0-0.7C501.4,532,500.7,532,500,532.1z M388.6,533.2c1-0.2,3,0.6,3.1-0.8C390.7,532.3,389,532.1,388.6,533.2z
			 M392.2,532.5c0.4,0.5,2,0.5,2.3,0C393.8,532.3,392.9,532.3,392.2,532.5z M492.3,532.5 M499.4,532.5 M287.7,532.8
			c-0.4,6.4-0.1,12.9-0.3,19.4c1.2,0.3,1.2-1.2,1.1-2c0.1,0,0.4,0,0.6,0c-0.3,0.7,0.5,1.4,0,2.1c0.2,0.7,0.8,2,1.7,1.4
			c5.5-3.1,11-6,16.5-9c0.4-0.3,1-0.4,1-1c-0.6-0.1-1.2,0.1-1.7,0.4c0.3-0.8,1.4-0.6,2-1.1c1-0.4,2.2-1.6,3.2-0.7
			c0.1-0.1,0.2-0.4,0.2-0.5c1.7-0.9,3.3-2,5.1-2.6c0.4-0.2,1-0.3,1-0.8c-4.3-0.5-8.6-1.7-12.9-2.3c-0.6-0.4-1.2-0.2-1.8-0.2
			c0.1-0.1,0.4-0.3,0.6-0.4l0-0.3c-1-0.1-1.9,0.7-2.9,0.1C296.6,534.5,292.2,533.5,287.7,532.8z M385.1,533.5c1-0.2,3,0.6,3.1-0.8
			C387.2,532.8,385.3,532.1,385.1,533.5z M382.6,533.5l0,0.3c0.7,0.1,1.4,0.1,2.1,0c0-0.2,0-0.5,0-0.7
			C383.9,532.8,383.4,533.7,382.6,533.5z M453.4,533.2 M436.1,533.6c-0.4,0.5,0.5,0.9,0.9,0.5C437.2,533.7,436.4,533.3,436.1,533.6z
			 M454.7,533.5c-0.1,0.6-0.1,1.2,0,1.8c0.2,0,0.7,0,1,0c0.7-0.4,0.4-1.2,0.4-1.8C455.7,533.5,455.2,533.4,454.7,533.5z
			 M454.1,533.9 M476.4,534.3c-0.1,0.8-0.1,1.6,0,2.4c1.2,0.1,2.4,0.1,3.5,0l0-0.3c-0.3,0-0.8-0.1-1-0.1c0-0.2,0-0.7,0-0.9
			c0.7-0.1,1.2-0.7,1-1.4C478.7,534.2,477.4,533.6,476.4,534.3z M484.2,533.9 M484.9,533.9 M501.8,533.8c-0.1,1.1-0.1,2.1,0,3.2
			c0.1-0.1,0.4-0.2,0.5-0.2c0.1-0.5,1-0.3,0.9-0.8c-0.3,0-0.7,0-1-0.1c0-0.4,0-0.9,0-1.3c0.4,0,0.9,0,1.3,0c0,0.3,0.1,0.8,0.1,1
			c0.6,0.1,0.9-0.5,1.3-0.7c-0.2-0.4-0.2-0.7,0-1.1c-0.5,0-1,0-1.5,0.2C502.9,533.9,502.4,533.7,501.8,533.8z M298.1,534.2
			c-0.1,0.6,1.2,0.5,1.2,0C298.9,534,298.5,534,298.1,534.2z M379,534.2c0,0.7-0.1,1.4,0.1,2c0.5,0.3,0.2,1,0.3,1.5l0.3,0
			C379.6,536.6,380.5,534.5,379,534.2z M475.7,534.3 M498.1,534.6c-0.1,0.3,0.1,1,0.5,0.9C498.9,535.2,498.6,534.3,498.1,534.6z
			 M499,534.6 M499.7,534.6 M301.7,535 M436.8,535c-0.2,0.3-0.3,1.2,0.2,1.3C437.2,535.9,437.3,535,436.8,535z M500.5,534.9
			 M286.8,535.3 M437.8,535.3c0,0.2-0.1,0.5-0.1,0.7C438,536.9,438.6,535.2,437.8,535.3z M480.6,535.3 M497.6,535.4
			c-0.3,0.4-0.2,0.7,0.2,0.8C498.1,535.8,498.1,535.5,497.6,535.4z M455.2,535.7c-0.2,0.5-0.1,0.7,0.4,0.4
			C455.8,535.6,455.7,535.5,455.2,535.7z M475.7,535.7 M499,535.7 M496.2,536 M496.9,536 M498.3,536 M248.9,537.4c0.6,0,1.1,0,1.7,0
			c0,0.2,0,0.5,0.1,0.7c0.8,0,0.4-1.3,0.4-1.9C250.2,536.2,248.6,536.1,248.9,537.4z M286.8,536.4c-0.2,0.3-0.3,1.2,0.2,1.2
			C287.2,537.3,287.3,536.4,286.8,536.4z M417.3,537.1c0.1,0.1,0.2,0.4,0.3,0.6c0.3-0.1,0.6-0.2,1-0.3c0,0.6,0,1.2,0,1.7h0.4
			c0-0.7,0.1-1.4,0-2.1C418.6,536.3,417.8,536.8,417.3,537.1z M455.2,537.1 M495.5,537.1 M380.8,537.8c-0.1,0.5,0.1,0.7,0.6,0.6
			C381.5,537.9,381.3,537.7,380.8,537.8z M436.7,537.8c0.6,1.1,0,2.5,0.7,3.5c0.3,1.1-0.7,3.2,0.8,3.5c0-0.5,0.1-1.1-0.1-1.6
			c-0.6-1.4,0.2-3.1-0.6-4.4C437.4,538.3,437.2,537.8,436.7,537.8z M463,537.7c-0.4,0.3-1,0.8-0.8,1.4c0.4,0.8,1.9,0.6,1.9-0.3
			C464.2,538.2,463.6,537.4,463,537.7z M500.1,537.8 M248.9,538.2 M248.9,539.9c0.5,0,0.9,0,1.4,0c0,0.4-0.1,0.7-0.3,1.1
			c0.2,0,0.5,0,0.7,0c0-0.9,0.4-2.2-0.4-2.9C249.7,538.4,248.7,539,248.9,539.9z M417.7,538.2c0,0.2-0.1,0.5-0.1,0.7
			C417.9,539.8,418.4,538,417.7,538.2z M499,538.2 M286.7,538.5 M379.1,538.5c-0.2,0.6,0,0.8,0.6,0.6
			C379.9,538.5,379.7,538.3,379.1,538.5z M397.5,538.5c-0.2,0.5,0,0.7,0.5,0.4C398.2,538.5,398.1,538.3,397.5,538.5z M438.2,538.5
			 M381.5,538.9c-0.1,0.5,0.1,0.7,0.6,0.6C382.2,539,382,538.8,381.5,538.9z M438.9,539.2 M487.7,539.2 M416.6,539.6 M419.4,539.6
			 M417.3,539.9 M438.2,539.9c0,0.2-0.1,0.5-0.1,0.7C438.4,541.5,438.9,539.8,438.2,539.9z M261.3,540.2c-0.1,0.8-0.1,1.7,0,2.5
			l0.4,0c-0.1-0.9,0.3-1.7,0.4-2.5C261.8,540.2,261.4,540.2,261.3,540.2z M382.3,540.3 M454.1,540.3 M472.1,540.2
			c0,1.2,0.5,2.3,0.8,3.4c0.2,0.4,0.4,1.3,1,1.2c0-0.8,0.1-1.6-0.1-2.4c-0.4-0.5-0.2-1.2-0.3-1.8
			C473.2,540.1,472.6,540.1,472.1,540.2z M487.7,540.3 M248.9,540.6 M286.7,540.7 M379.7,540.9c-0.1,0.5-0.1,0.9-0.1,1.4
			c0.8,1.2,0.2,2.9,0.4,4.3c0.9,0.1,0.9-1.1,0.8-1.8c-0.5-1.2-0.3-2.6-0.4-3.9C380.3,540.9,379.9,540.9,379.7,540.9z M416.2,541
			 M416.9,541.1c-0.5,0.9,1.5,0.9,1,0C417.6,541.1,417.3,541,416.9,541.1z M418.3,540.9c0,0.2,0,0.5,0,0.7c0.7,0.1,1.4,0.1,2.1,0
			c0-0.2,0-0.5,0-0.7C419.7,540.9,419,540.9,418.3,540.9z M426.8,540.9c0,0.5,0.2,0.7,0.6,0.8c0,0.4,0.1,0.9,0.1,1.3l0.4,0
			c0-0.7,0.1-1.4,0-2.1C427.6,540.9,427.1,540.9,426.8,540.9z M476.3,541.3c0,0.5,0,0.9,0,1.4c0.4,0,0.7-0.1,1-0.3
			c0.2,0.2,0.4,0.4,0.6,0.7c-0.1,0.6-0.7,1-0.6,1.7c0.8,0.1,1.6,0.1,2.4,0c0.7-0.3,0.4-1.2,0.5-1.8c-0.1-0.6,0.2-1.4-0.5-1.8
			C478.6,541.2,477.5,541.2,476.3,541.3z M248.8,541.6c0,0.3,0,0.8,0,1.1c0.5,0,1,0,1.4,0c0-0.3,0-0.8,0-1.1
			C249.8,541.6,249.3,541.6,248.8,541.6z M286.7,541.7 M484.9,541.7c-0.1,0.5,0.1,0.7,0.6,0.6C485.6,541.7,485.4,541.5,484.9,541.7z
			 M487.3,541.6c0,0.6,0.7,1.2,1.3,1.1c0,0.3-0.2,0.5-0.6,0.6c-0.1-0.5-0.4-0.7-0.8-0.6c-0.1,0.6-0.1,1.2,0,1.8c1.1,0,2.3,0.1,3.5,0
			c0.5-0.3,0.4-0.8,0.5-1.3c0.3-0.3,0.8-0.6,0.6-1.2C490.4,541.8,488.8,542.2,487.3,541.6z M426.5,542c0,0.2-0.1,0.5-0.1,0.7
			C426.7,543.6,427.2,541.8,426.5,542z M475.3,542.1c0.1,0.8,0.2,1.6,0.3,2.3l0.3,0C476,543.7,476.3,542.4,475.3,542.1z
			 M242.6,542.4c-0.3,0.3,0.2,1.1,0.6,0.9C243.5,542.9,243.1,542,242.6,542.4z M244.6,542.4l-0.1,0.3
			C244.7,543.6,245.5,542.2,244.6,542.4z M310.5,542.3c-0.3,0.3-1.3,0.4-1,0.9C310,543.5,311.8,542.3,310.5,542.3z M417,542.4
			 M418.3,542.3c-0.1,0.6,0.8,0.3,1.2,0.6c0.4,0.2,1-0.2,0.9-0.6C419.7,542.3,419,542.3,418.3,542.3z M461.1,542.3
			c0,0.7-0.1,1.4,0,2.1c0.3,0.2,0.7,0.3,1.1,0.4c0-0.8,0-1.7,0-2.5C461.9,542.3,461.4,542.3,461.1,542.3z M462.9,542.3
			c0,0.5,0,0.9,0,1.4c0.5,0,1.2-0.1,1.1,0.7l0.3,0c-0.2-0.8,0.4-1.4,0.4-2.1C464.1,542.3,463.5,542.3,462.9,542.3z M480.6,542.4
			c-0.2,0.7,1.6,0.2,0.7-0.1C481.1,542.3,480.8,542.4,480.6,542.4z M438.5,542.8c0,0.2-0.1,0.5-0.1,0.7
			C438.7,544.4,439.3,542.6,438.5,542.8z M248.8,544.5c0.3,0,0.8,0,1.1,0c0-0.5,0-1,0-1.4C249,542.8,248.6,543.7,248.8,544.5z
			 M477.1,543.1 M497.2,543c-0.1,0.7,0,1.4,0,2.1c0.5-0.1,0.9-0.4,1.4-0.4c-0.1-0.2-0.2-0.5-0.2-0.7c0.2-0.3,0.3-0.7,0.3-1.1
			C498.1,543,497.7,543,497.2,543z M499.7,543c0,0.9-0.4,2.8,1,2.5c0.1-0.8,0.1-1.6,0-2.5C500.5,543,499.9,543,499.7,543z
			 M501.4,543c-0.1,0.7-0.1,1.4,0,2.1c0.5,0.2,0.5-0.8,1.1-0.6c-0.1,0.4,0,0.7,0.3,0.8c0-0.8,0.1-1.6,0.1-2.4
			C502.4,543,501.9,543,501.4,543z M503.9,543c-0.1,0.8-0.1,1.7,0,2.5c0.5,0,0.9,0,1.4,0c0.1-0.8,0-1.7,0-2.5
			C504.9,543,504.4,543,503.9,543z M505.7,543c-0.1,0.7,0,1.4,0,2.1c0.3-0.1,0.5-0.3,0.7-0.6c0.2,0.1,0.5,0.2,0.7,0.3
			c0-0.6,0-1.2,0-1.8C506.6,543,506.2,543,505.7,543z M286.8,543.5c0,0.2-0.1,0.5-0.1,0.7C287,545.1,287.5,543.3,286.8,543.5z
			 M414.5,543.9c-0.2,0.5,0.6,1.3,0.9,0.5C415.8,543.8,414.8,543.6,414.5,543.9z M418.4,543.8c-0.2,0.4,0.5,0.8,0.8,0.4
			C419.7,543.8,418.7,543.5,418.4,543.8z M420.8,543.7c-0.1,0.4,0,0.9,0,1.4c0.5,0.1,0.9,0.5,1.4,0.4c0-0.6,0-1.2,0-1.8
			C421.7,543.7,421.2,543.7,420.8,543.7z M464.7,543.8c-0.1,0.5,0.1,0.7,0.6,0.6C465.4,543.9,465.2,543.7,464.7,543.8z M250.3,544.2
			 M419.8,544.2 M426.2,544.2c0,0.2-0.1,0.5-0.1,0.6C426.4,545.7,426.9,544,426.2,544.2z M427.5,544.1c0,0.3,0,0.8,0,1.1
			c0.7,0,1.4,0,2.1,0c0-0.3,0-0.8,0-1.1C428.9,544,428.2,544,427.5,544.1z M256,544.9 M417,544.9c-0.3,0.3-0.4,0.6-0.3,0.9
			C417.3,546.2,417.7,544.8,417,544.9z M286.8,545.2c0,0.2-0.1,0.5-0.1,0.6C287,546.8,287.5,545,286.8,545.2z M418.6,545.2
			c0.1,0.7,0.9,1.2,1.5,1.4c0-0.3,0-0.8,0-1C419.5,545.6,419.1,545.4,418.6,545.2z M437.8,545.2 M463.7,545.2 M465.4,545.1
			c0.5,1,0.5,2.3,0,3.3c0.2,0,0.5,0,0.7,0c0.2-1.1-0.3-2.3,0.4-3.2C466.1,545.1,465.6,545.1,465.4,545.1z M472.5,545.2 M482,545.1
			c0.1,1.2,1.7,0.6,2.5,0.8c0.8,0.2,1.5-0.6,2.1,0c1.6,0,3.3,0,4.9,0c0.1-0.6-0.8-0.5-1.1-0.7C487.6,545.1,484.8,545.1,482,545.1z
			 M496.2,545.2 M506.8,545.2 M417,546.3c0.2,0.8,2,0.2,1.2-0.7C417.9,545.9,417.6,546.3,417,546.3z M427.5,545.5c0,0.3,0,0.8,0,1.1
			c0.7,0.1,1.4,0.1,2.2,0c0-0.3,0-0.8,0-1.1C428.9,545.5,428.2,545.5,427.5,545.5z M438.9,545.6c-0.2,0.5-0.4,1.7,0.1,2
			C439.2,547,439.5,545.9,438.9,545.6z M467.1,545.5c-0.2,1.3,0.3,2.6,0,3.8c1,0.1,0.7-1.1,0.5-1.7c0.2-0.3,0.4-0.6,0.6-1
			c-0.2,0-0.5,0.1-0.7,0.2c0-0.3,0.2-0.6,0.3-0.9C467.6,545.8,467.3,545.6,467.1,545.5z M425.4,546c-0.4,0.7,1,1,1.1,0.2
			C426.4,545.7,425.8,546.1,425.4,546z M382.7,546.3c-0.2,0.3-0.3,1.2,0.2,1.3C383,547.3,383.2,546.3,382.7,546.3z M420.8,546.3
			c-0.2,0.7,1.6,0.2,0.7-0.1C421.3,546.2,421,546.3,420.8,546.3z M468.9,546.2c0,1.1,0,2.1,0,3.2c0.4,0.1,0.8,0,1-0.4
			c-0.2-0.5-0.7-1.5,0-1.8C469.8,546.9,469.3,546.2,468.9,546.2z M286.8,546.7 M456.8,548c0.5,2.5,0.3,5.1,1.1,7.5
			c0.6,0.1,1.2,0.1,1.8-0.1c0-1.2-0.8-2.4-1.1-3.5c-0.3-1.8-0.9-3.5-1.4-5.3C456.4,546.5,456.8,547.6,456.8,548z M464,546.7
			 M481.7,546.6c-0.2,0.2-0.7,0.9-0.1,1C482.1,547.6,482.3,546.6,481.7,546.6z M482.4,546.6c0,0.2-0.1,0.5-0.1,0.7
			c0.2-0.1,0.6-0.3,0.8-0.4c0,0.6,1,0.4,1.4,0.4c0-0.2,0-0.5,0-0.7C483.8,546.9,483.1,546.8,482.4,546.6z M484.9,546.7
			c-0.4,0.7,0.6,0.4,1,0.5C486.2,546.6,485.2,546.2,484.9,546.7z M486.3,546.7 M487.7,546.7c-0.4,0.7,1.3,0.9,1.3,0.3
			C488.5,546.9,488.1,546.7,487.7,546.7z M489.5,546.7 M490.2,546.7 M490.9,546.7c-0.4,0.7,1,1,1.1,0.2
			C491.8,546.4,491.2,546.8,490.9,546.7z M492.4,546.7c-0.2,0.4,0.5,0.9,0.9,0.6C493.4,546.8,492.7,546.4,492.4,546.7z M437.7,548
			c0.7,1,0.1,2.3,0.5,3.4c0.6,0.2-0.1,1.3,0.6,1.2c-0.1-1,0.3-2.1-0.2-2.9c-0.2-0.9,0-1.8-0.1-2.7C438,546.9,438,547.7,437.7,548z
			 M465.1,547 M427.1,547.3c0,0.5,0,0.9,0,1.4c0.6-0.1,1.1-0.6,1.8-0.7c0.3-0.2,1.2-0.1,1.1-0.7C429,547.2,428.1,547.2,427.1,547.3z
			 M286.8,547.7 M380.5,548c0,0.8-0.2,1.6,0.1,2.4c0.5,0.6,0.1,1.5,0.3,2.2c0.2,0,0.5,0,0.7,0c-0.5-1.4-0.3-3.1-0.4-4.6
			C381,548,380.6,548,380.5,548z M382.3,548.1c-0.2,0.5-0.4,1.7,0.1,1.9C382.7,549.5,382.8,548.4,382.3,548.1z M416.2,548.1
			 M417.3,548.4l0,0.3c0.7,0.5,1.1,1.6,2.1,1.5c-0.1-0.7-0.3-1.5-0.7-2.1C418.2,548.2,417.8,548.3,417.3,548.4z M419.3,548.1
			c0.2,1,0.8,1.9,0.8,3c0.5,0.2,1,0.7,1.6,0.4c0.5-0.6,1.3-0.8,1.8-1.5c0.5-0.7,1.7-0.8,1.8-1.7
			C423.4,548.2,421.3,548.6,419.3,548.1z M286.8,548.4 M427.2,549.1c-0.1,0.6-0.1,1.1,0,1.7c0.6,0.1,0.8-0.6,1.2-0.9
			c0.4-0.5,1.2-0.9,1.3-1.6C428.7,548.1,428,548.9,427.2,549.1z M439.3,548.4c-0.2,0.7-0.4,1.9,0.1,2.3
			C439.6,550.1,439.8,548.8,439.3,548.4z M482.4,548.3c0,0.5,0.6,1,1,1.1c0.7-0.3,1.4-0.5,2.1-0.7c0,0.1,0,0.4,0,0.6
			c1.1-0.5,2.5,0.1,3.5-0.6c1,0.4,2.2,0.8,3.1,0c0,0.2,0,0.5,0.1,0.6l0.3,0c0-0.2,0-0.5,0-0.6c0.2,0.1,0.6,0.2,0.7,0.3
			c0-0.2,0-0.5,0-0.7C489.7,548.3,486,548.3,482.4,548.3z M465,548.8 M465.8,548.8 M416.2,549.1c-0.7,2.1-0.4,4.5-0.4,6.7
			c0.8,0.2,1.2-0.7,1.9-1c0.7-1,2.7-1.3,2.4-2.8c-0.6-0.6-1.2-1.3-2-1.7C417.4,550,417.1,548.8,416.2,549.1z M473.9,549.1
			 M425.8,549.4c-0.6,1.6-1.6,3-2.2,4.6c1.3-0.1,1.8-1.6,2.8-2.3c0.1-0.8,0.1-1.6,0-2.4C426.3,549.4,426,549.4,425.8,549.4z
			 M422.2,552c-0.2,0.6,0.6,1.5,1.3,1.3c0.4-1.1,1.1-2.1,1.4-3.2C423.8,550.3,423.4,551.7,422.2,552z M465.8,550.2 M480.3,550.2
			 M487,550.2 M506.8,550.2 M232.3,550.5c-0.2,0.7,1.6,0.2,0.7-0.1C232.8,550.4,232.5,550.5,232.3,550.5z M460.4,550.9
			c0.1,0.8-0.3,1.4-1.1,1.5c-0.4,0.8,0.3,1.2,0.4,2c0.3,0.3,0,1.2,0.7,1.1c0-0.5,0.1-0.9,0.1-1.4c0.6,0,1.1,0,1.7,0
			c0.1-0.9,0.1-1.9,0-2.8C461.5,551.3,461,550.7,460.4,550.9z M464.7,551.9c-0.1,0.7-0.1,1.4,0,2.1c0.5,0,0.9,0,1.4,0
			c0.1-0.9,0.1-1.9,0-2.8C465.1,550.8,465.6,552.1,464.7,551.9z M466.8,551.2c-0.1,0.9-0.1,1.9,0,2.8c0.5,0,0.9,0,1.4,0
			c0.1-0.9,0.1-1.9,0-2.8C467.7,551.1,467.2,551.1,466.8,551.2z M468.9,551.2c-0.1,0.9-0.1,1.9,0,2.8c1.1-0.1,2.2,0.3,3.2,0.7
			c0-1.2,0-2.4,0-3.5C471,551.1,470,551.1,468.9,551.2z M483.4,551.2 M484.2,551.3 M484.8,551.9c0.6-0.2,1.2-0.2,1.8,0
			c0-0.2,0-0.5,0-0.7C485.9,551.2,484.5,550.7,484.8,551.9z M487.6,551.2c0,0.4,0.2,0.9,0.1,1.3c0.4,0.5,1.1,0.7,1.7,1.1
			c0.3-0.1,0.7-0.3,1,0c0.7-0.5,0.3-1.4,0-2.1c0.2,0.1,0.5,0.2,0.7,0.3c0-0.2,0-0.5,0-0.7C490,551.5,488.8,551,487.6,551.2z
			 M439.6,551.6c0,0.2-0.1,0.5-0.1,0.7C439.8,553.2,440.3,551.4,439.6,551.6z M462.9,551.6c0,0.7,0,1.4,0,2.1c0.2,0,0.5,0,0.7,0
			C463.2,553,463.9,551.6,462.9,551.6z M480.3,552 M482.4,551.9 M484.2,552 M506.7,552.2c0,0.5,0,1.1-0.1,1.6
			c-0.7,0.4-0.6,1.6-1.6,1.6c0.1,0.8,0.1,1.6,0.3,2.3c0.4,0.1,0.6,0.3,0.7,0.8c-0.5-0.2-0.9-0.5-1.4-0.5c0,0.2,0,0.6,0,0.8
			c0.2,0,0.5-0.1,0.7-0.1c-0.1,0.4-0.2,0.7-0.4,1c0.4,0.4,0.7,0.4,1.1,0c0.1,1-0.9,0.4-1.4,0.3c0,0.2,0,0.5,0,0.7
			c1.2,0.1,2.4,0.1,3.5,0.1c-0.6-0.6,0.2-1.1,0.1-1.8c-0.1-2.2,0-4.5-0.1-6.7C507.7,552.2,507.2,552.2,506.7,552.2z M426.2,552.6
			c-0.4,0.7-1.7,1.1-1.5,2c0.6,0.5,1.3,1.2,2.1,1.1c0.3-1.1-0.5-2-0.3-3.2L426.2,552.6z M505.4,553 M420.8,553.3
			c0.2,0.9,0.8,1.8,0.7,2.9c0.8,0.3,0.7-0.4,0.8-0.9c0.1-0.1,0.4-0.4,0.6-0.6c0.2-0.6-0.5-0.9-0.8-1.3
			C421.7,553.3,421.2,553.2,420.8,553.3z M439.6,553.4 M472.5,553.4c-0.2,0.7,1.6,0.2,0.7-0.1C473,553.3,472.7,553.3,472.5,553.4z
			 M479.6,553.4 M492.2,553.3c-0.1,0.7-0.1,1.4,0,2.1c0.5,0.1,0.8-0.1,0.7-0.6c0.1,0.1,0.3,0.4,0.4,0.6l0.3,0.1
			c0.1-0.7,0.1-1.4,0-2.1C493.2,553.3,492.7,553.3,492.2,553.3z M494.4,553.3c0.4,0.6,0.3,1.4,0.3,2.1c0.4-0.2,0.7-0.3,1.1,0
			c0-0.7,0-1.4,0-2.1C495.3,553.3,494.8,553.3,494.4,553.3z M496.8,553.3c-0.1,0.7-0.1,1.4,0,2.1c0.5,0,0.9,0,1.4,0
			c0.1-0.7,0.1-1.4,0-2.1C497.8,553.3,497.3,553.3,496.8,553.3z M381.2,553.7c-0.1,0.8,0,1.6,0,2.5c1.1-0.3,0.2-1.6,0.4-2.5
			L381.2,553.7z M420.1,553.7c-0.4,0.4-0.7,0.8-1.1,1c-0.8,0.3-1.1,1.4-2.1,1.5l0,0.3c1.4,0,2.8,0.1,4.2,0c0.1-0.4,0-0.8-0.2-1.2
			C420.7,554.8,420.9,553.7,420.1,553.7z M438.6,553.7c-0.1,0.4,0.2,0.9,0.3,1.3C439.5,554.9,439.3,553.3,438.6,553.7z M284.7,554.4
			 M287.5,554.5 M476.1,554.5c-0.2,0.3-0.4,1.3,0.2,1.3C476.5,555.4,476.5,554.6,476.1,554.5z M477.5,554.4c-0.6,0.2-0.4,1,0.3,0.7
			C478.4,555.1,478,554,477.5,554.4z M423.3,554.7c-0.1,0.2-0.2,0.5-0.3,0.6c0.8,0.1-0.2,0.8-0.1,1.1c0.9,0,1.9,0,2.8,0l0-0.3
			c-0.8,0-1-1-1.8-1.1C423.8,555,423.5,554.8,423.3,554.7z M439.9,554.7c-0.3,2.2,0.5,4.2,0.4,6.4h0.4c0-1,0.1-2.1,0-3.1l-0.3-0.1
			c0-1.1,0.1-2.1,0-3.2H439.9z M438.9,557.4c0.7,0.7-0.3,2.2,0.6,2.6c-0.2,0.3-0.7,0.8-0.1,1.1c0.3,1.1-0.2,2.3,0.1,3.4
			c0.9,1-0.4,3.1,0.6,4.1c0.1,0.8-0.1,1.5,0.1,2.3c0.4,0.1,1-0.5,0.7-0.9c-0.7-1,0.2-2.4-0.5-3.4c-0.3-1.1,0.1-2.2-0.3-3.3
			c-0.5-1.4,0.2-3.1-0.5-4.5c0-1,0-2.1,0-3.1C439,555.8,438.7,556.9,438.9,557.4z M459.1,555.8c-0.4,0.6,0.5,1,0.9,0.5
			C460.4,555.9,459.4,555.4,459.1,555.8z M457.9,556.1c0.1,1-0.4,2.5,0.3,3.2c0,0.7-0.1,1.4,0,2.1h0.4c0-0.7,0.1-1.4-0.1-2.1
			c-0.4-1-0.1-2.2-0.3-3.3H457.9z M504.7,556.2 M381.5,556.5c0,1-0.1,2.1,0.1,3.1c0.5,0.6,0.1,1.5,0.3,2.2l0.4,0
			c0-1.3,0.2-2.6-0.1-3.8c-0.4-0.4-0.2-1-0.3-1.5L381.5,556.5z M426.5,556.9 M459.4,556.9c-0.4,0.6,0.6,0.9,0.9,0.5
			C460.8,556.9,459.7,556.5,459.4,556.9z M475.7,557.3 M288.9,557.6 M459,558l-0.1,0.3C459.2,559.2,459.9,557.8,459,558z M459.8,558
			c-0.1,0.5,0.1,0.6,0.6,0.5C460.5,558,460.3,557.8,459.8,558z M504,558 M472.5,558.3c-0.2,0.7,1.6,0.2,0.7-0.1
			C473,558.2,472.7,558.3,472.5,558.3z M500.1,559c-0.2,0.3-0.3,1.2,0.2,1.3C500.5,560,500.6,559.1,500.1,559z M472.1,559.3
			c0,0.6,0,1.1,0,1.7c-0.3,0-0.8,0-1,0.1c0,0.3,0,0.8,0,1.1c0.5,0,1,0,1.4,0c0-0.9,0-1.9,0-2.8H472.1z M472.8,559.3
			c-0.1,0.9-0.1,1.9,0,2.8c0.5,0,0.9,0,1.4,0c0.1-0.9,0.1-1.9,0-2.8C473.7,559.3,473.3,559.3,472.8,559.3z M475.3,559.4
			 M459.1,560.5 M461.4,561c-0.5,0.4-0.4,1.6,0.5,1.2c-0.1-0.2-0.3-0.6-0.3-0.8c0.8-0.4,0.4,1,1.1,0.8c0-0.2,0-0.7,0-1
			C462.2,560.9,461.7,560.5,461.4,561z M475,560.8 M475.7,560.8 M476.4,560.8 M459.1,561.2c-0.2,0.7,1.6,0.2,0.6-0.1
			C459.5,561.1,459.2,561.1,459.1,561.2z M462.9,561.1c0,0.3,0,0.8,0,1.1c0.5,0,1,0,1.4,0c0-0.3,0-0.8,0-1.1
			C463.8,561,463.3,561,462.9,561.1z M465,561.1c0,0.3,0,0.8,0,1.1c0.5,0,1,0,1.4,0c0-0.3,0-0.8,0-1.1
			C465.9,561,465.5,561,465,561.1z M467.1,561.1c0,0.3,0,0.8,0,1.1c0.5,0,1,0,1.4,0c0-0.3,0-0.8,0-1.1
			C468.1,561,467.6,561,467.1,561.1z M468.9,561.1c0,0.3,0,0.8,0,1.1c0.5,0,1,0,1.4,0c0-0.3,0-0.8,0-1.1
			C469.8,561,469.4,561,468.9,561.1z M440.7,561.5c-0.1,0.7-0.4,1.9,0.1,2.3C441,563.2,441.2,561.9,440.7,561.5z M500.4,561.5
			 M504.6,561.4c0.1,0.8,1.2,0.5,1.8,0.7c0.7,0.1,2.1,0.3,2.1-0.7C507.2,561.4,505.9,561.4,504.6,561.4z M510.3,561.5 M441.4,561.9
			 M459.1,561.9 M382.3,562.6c-0.6,0.2-0.3,1.2,0.2,1.2C382.7,563.5,382.8,562.6,382.3,562.6z M475.7,562.9 M477.1,563 M479.2,562.9
			 M481,562.9 M481.7,562.9 M501.5,562.9c-0.1,0.7,1.6,0.2,0.6-0.1C502,562.8,501.7,562.9,501.5,562.9z M511.4,562.9 M512.1,562.9
			 M233,563.3 M233.7,563.3 M342.3,563.3c0.1,0.5,1.5,0.5,1.6,0C343.5,563.1,342.8,563.1,342.3,563.3z M344.8,563.3
			c0.1,0.5,1.5,0.5,1.6,0C345.9,563.1,345.3,563.1,344.8,563.3z M347.3,563.3c0.1,0.5,1.5,0.5,1.6,0
			C348.4,563.1,347.8,563.1,347.3,563.3z M349.7,563.3c0,0.5,1.3,0.5,1.3,0C350.6,563.1,350.2,563.1,349.7,563.3z M506.8,563.3
			 M507.9,563.3 M412.7,563.5c0,0.4,0.1,0.7,0,1.1c0.2,0,0.7,0,0.9,0c0.3-0.3,0.4-0.6,0.3-1C413.6,563.5,413.1,563.5,412.7,563.5z
			 M459.1,563.6c-0.2,0.7,1.6,0.2,0.6-0.1C459.5,563.5,459.2,563.6,459.1,563.6z M476,564c-0.1,1.1-0.1,2.3,0,3.5l0.3,0
			c0.1-0.5-0.2-1.4,0.5-1.7c1.6-0.1,3.2,0,4.8,0c0.1,0.7-0.3,2.1,0.7,2c0-0.2,0.1-0.7,0.1-0.9c0.2-0.1,0.5-0.4,0.6-0.6
			c0.1-0.8,0.1-1.6,0-2.4c-1.7-0.3-3.5-0.5-5.3-0.4C477.1,563.6,476.3,563.3,476,564z M442.1,564 M460.8,563.9c0,0.5-0.1,0.9,0,1.4
			c0.8,0.1,1.7,0.1,2.5,0c0-0.5,0-0.9,0-1.4C462.4,563.8,461.6,563.8,460.8,563.9z M463.7,564c-0.2,0.4-0.2,0.8,0,1.3
			C464.2,565.3,464.2,564,463.7,564z M464.7,564c-0.2,0.3-0.3,1.2,0.2,1.3C465.1,564.9,465.2,564,464.7,564z M559.6,564
			 M234.3,564.3c0,0.3,0,0.8,0,1.1c0.5,0,0.9,0,1.4,0c-0.3-0.4-0.3-0.7,0-1.1C235.3,564.2,234.8,564.2,234.3,564.3z M236.2,564.3
			c0,0.2-0.1,0.5-0.1,0.7C236.4,566,236.9,564.2,236.2,564.3z M311.5,564.4 M316.5,564.3c-0.2,0.4,0.5,0.9,0.9,0.6
			C317.6,564.5,316.9,564.1,316.5,564.3z M318.2,564.3c0,0.2,0,0.5,0,0.7c0.6,0,1.9,0.3,1.5-0.7
			C319.2,564.2,318.7,564.2,318.2,564.3z M324.5,564.3c0,0.2,0,0.5,0,0.7c1.1,0,2.1,0.1,3.2,0c0-0.2,0-0.5,0-0.7
			C326.7,564.2,325.6,564.2,324.5,564.3z M339.5,564.3c-0.5,0.3-0.5,0.5-0.1,0.7C339.9,564.8,339.9,564.5,339.5,564.3z M356.1,564.3
			 M459.1,564.4 M459.8,564.3 M293.8,565.3c2.1,0.1,4.3,0.1,6.4,0c0-0.2,0-0.5,0-0.7c-0.5,0-1.1-0.2-1.6,0.3c-0.5,0.3-1-0.2-1.4,0
			c-0.8,0.3-1.5-0.2-2.2-0.2C294.6,564.8,293.6,564.7,293.8,565.3z M300.7,564.8c-0.1,0.1-0.2,0.4-0.2,0.5c1.3,0.1,2.6,0.1,3.9,0
			c0-0.2,0-0.5,0-0.7C303.2,564.5,301.9,564.6,300.7,564.8z M321.1,564.7c-0.2,0.7,1.6,0.2,0.7-0.1
			C321.6,564.6,321.3,564.7,321.1,564.7z M329.9,564.7c-0.2,0.7,1.6,0.2,0.7-0.1C330.4,564.6,330.1,564.7,329.9,564.7z M331.7,564.7
			 M333.1,564.7c0,0.5,1.3,0.5,1.3,0C334,564.5,333.5,564.5,333.1,564.7z M334.8,564.6l0,0.4c1.1,0.1,2.1,0.1,3.2,0l0-0.4
			C336.9,564.6,335.9,564.6,334.8,564.6z M352.9,564.7c0.4,0.5,1.7,0.3,2.3,0.1C354.9,564.3,353.6,564.6,352.9,564.7z M356.8,564.7
			 M358.5,564.6v0.4c1.1,0.1,2.1,0.1,3.2,0v-0.3C360.6,564.6,359.6,564.6,358.5,564.6z M362.8,564.7c-1,0.5,0.4,1,0.9,0.6
			C363.9,564.8,363.2,564.5,362.8,564.7z M365,564.7 M365.9,564.6c0,0.2,0,0.5,0,0.7c0.6,0,1.2,0.1,1.7,0.3c0.2-0.3,0.8-0.6,0.7-1
			C367.6,564.6,366.8,564.6,365.9,564.6z M369.9,565.3c0.5,0.4,1.3,0.1,1.9,0.3C371.9,564.9,369.8,564,369.9,565.3z M373.1,564.7
			 M373.7,564.6c-0.1,1.2,2,0.8,2.1,0C375.1,564.6,374.4,564.6,373.7,564.6z M441,564.7c-0.2,0.5-0.3,1.1,0,1.6
			C441.5,566.2,441.5,564.8,441,564.7z M465.8,564.7c0,0.2-0.1,0.5-0.1,0.6C466,566.2,466.5,564.5,465.8,564.7z M544.7,564.6
			c-0.4,0-0.9,0.9-0.2,1C545.2,565.6,545.7,564.5,544.7,564.6z M561.6,564.8c-2.9,0.1-5.9-0.2-8.8,0.2c0.1,1.4-1.8,0.6-1.9,1.7
			c-0.2-0.2-0.4-0.5-0.7-0.6c0,0.2,0,0.7,0,0.9c0.7,0,1.8-0.2,1.8,0.8c0.8,0.5,1.4-0.5,2.1,0c1.5,0,3.1,0.4,4.4-0.6
			c0.9,0,2.1-0.4,2.9,0.2c0.1,0.6-0.3,1-0.5,1.4c0.8-0.4,1.8-0.8,2.4,0.1c0,0.4,0,0.7,0,1.1c-0.5,0.6-1.3,0.4-1.9,0.4
			c-0.9,1.2-0.3,2.9-0.4,4.3c1.1,0.6,1-1.1,2-0.6c0,0.2,0.1,0.7,0.1,1c2.9,0.2,5.9,0.1,8.9,0l0-0.4c-1.1-0.1-2.3-0.1-3.4-0.1
			c0-2.9-0.3-5.9,0.2-8.8c1-0.2,2.1,0,3.1-0.1c0.1-0.6,0.6-0.9,0.8-1.3C568.9,564.4,565.2,564.4,561.6,564.8z M239.7,565.1
			 M290.2,565v0.4c0.9,0.1,1.9,0.1,2.8,0l0-0.4C292.1,564.9,291.2,564.9,290.2,565z M343,564.9c0.2,0.5,0.4,1.5,1.1,1.5
			c0-0.5,0-0.9,0-1.4C343.8,565,343.2,564.9,343,564.9z M345.6,565c-0.3,0.5-0.4,1.5,0.2,1.7c0.5-0.1-0.2-0.7,0.1-1
			C346.1,565.4,346.1,564.7,345.6,565z M347.3,565.1c-0.4,0.6,0.7,1.4,0.9,0.5C348.6,565,347.6,564.6,347.3,565.1z M459.1,565.1
			c-0.2,0.7,1.6,0.2,0.7-0.1C459.5,564.9,459.2,565,459.1,565.1z M315.1,565.4 M318.3,565.4c-0.5,0.3-0.5,0.5-0.1,0.7
			C318.7,565.8,318.7,565.6,318.3,565.4z M321,565.3c0,0.3,0,0.8,0,1.1c0.9,0.1,1.9,0,2.8,0c0.1-0.5-0.5-0.7-0.8-1.1
			C322.4,565.2,321.7,565.3,321,565.3z M324.9,565.3c0.1,0.5,0.7,1.2,1.3,1.1c0.3-0.3,0.8-0.6,0.8-1.1
			C326.3,565.3,325.6,565.3,324.9,565.3z M328.4,566.4c0.8,0.1,1.7,0.1,2.5,0c0-0.3,0-0.8,0-1C330.1,565.3,328.2,564.9,328.4,566.4z
			 M331.7,565.4c-0.5,0.6,0.3,1.4,0.9,0.9C332.7,565.9,332.1,565.4,331.7,565.4z M334.2,565.4 M334.8,565.3c-0.2,0.6,0.4,1.3,1,1
			c0.3-0.3,0.8-0.6,0.8-1.1C336,565.3,335.4,565.3,334.8,565.3z M338.7,566.4c0.7,0.1,1.4,0.1,2.1,0
			C341.3,564.9,338.2,564.9,338.7,566.4z M352.9,565.3c-0.2,0.6,0.4,1.3,1,1c0.3-0.3,0.8-0.6,0.8-1.1
			C354,565.3,353.4,565.3,352.9,565.3z M355.4,566.4c0.6,0,1.2,0,1.8,0c0-0.3,0-0.8,0-1.1C356.3,565.1,355.5,565.7,355.4,566.4z
			 M357.5,565.4c-0.4,0.3,0,1.3,0.5,0.9C358.2,566,357.9,565.4,357.5,565.4z M359.2,565.3c-0.1,0.5,0.5,0.7,0.8,1
			c0.5,0.1,0.8-0.6,0.7-1C360.2,565.3,359.7,565.3,359.2,565.3z M290.6,565.7c0,0.2,0,0.5,0,0.7c0.8,0.1,1.7,0.1,2.5,0
			c0-0.2,0-0.5,0-0.7C292.3,565.6,291.4,565.6,290.6,565.7z M293.8,565.7c0,0.2,0,0.5,0,0.7c2.1,0.1,4.3,0.1,6.4,0
			c0-0.2,0-0.5,0-0.7C298,565.6,295.9,565.6,293.8,565.7z M300.6,565.7c-0.2,0.6,0,0.8,0.6,0.6C301.3,565.8,301.1,565.6,300.6,565.7
			z M310,565.7c0,0.3,0,0.8,0,1.1c0.6,0.1,1.2,0.1,1.8,0c0-0.2,0-0.5,0-0.7C311.1,566.2,310.7,565.6,310,565.7z M320,565.7
			c-0.5,0.3-0.5,0.5-0.1,0.7C320.5,566.2,320.5,566,320,565.7z M337.4,565.7c-0.5,0.3-0.5,0.5-0.1,0.7
			C337.8,566.2,337.8,565.9,337.4,565.7z M350.8,565.8 M459.1,565.8 M459.8,565.8 M549.6,565.8 M312.3,566.2
			c-0.2,0.8,1.6,0.9,1.6,0.3C313.4,566.3,312.8,566.3,312.3,566.2z M351.5,566.1 M359,566.1 M460.7,566c0,0.3,0,0.8,0,1.1
			c0.8,0.1,1.7,0.1,2.5,0c0-0.3,0-0.8,0-1.1C462.4,566,461.6,566,460.7,566z M463.7,566.1c0,0.2-0.1,0.5-0.1,0.7
			C463.8,567.7,464.4,566,463.7,566.1z M464.7,566.1c0,0.2-0.1,0.5-0.1,0.6C464.9,567.7,465.5,566,464.7,566.1z M235.9,566.5
			c0.2,0.5,1.1,0.8,1.6,0.5C237.5,566.3,236.3,566.2,235.9,566.5z M343,566.5 M347.3,566.5 M354.4,566.5 M542.6,566.8 M543.6,566.8
			 M544.3,566.8 M546.5,566.8 M548.2,566.8 M548.9,566.8c-0.2,0.7,1.6,0.2,0.7-0.1C549.4,566.7,549.1,566.8,548.9,566.8z
			 M351.4,568.5c0.3,1.5,0.6,3,0.8,4.5c0.4,0.2,1.2,0.4,1.4-0.2c0.6-1,0.8-2.3,1.8-3.1c0.3,0.1,0.5,0.3,0.7,0.6
			c1.4,0.4,2.9-0.2,4.2,0.4c0.5,0,0.9,0,1.4-0.1c0.1-0.6,0.3-1.6,1.1-1.6c0.7-0.1,1.4,0.4,2.1,0.3c0.4-0.3,0.6-0.8,1.1-1
			c0.3-0.3,1.2-0.3,1-0.9c-1.4-0.2-2.8-0.1-4.2-0.1c-3.4,0.2-6.8,0-10.2,0C352,567.6,351.3,567.8,351.4,568.5z M460.8,568.5
			c0.8,0.1,1.7,0.1,2.5,0C463.7,567,460.3,567,460.8,568.5z M463.7,567.5c0,0.2-0.1,0.5-0.1,0.7
			C463.8,569.1,464.4,567.4,463.7,567.5z M464.7,567.5c0,0.2-0.1,0.5-0.1,0.7C464.9,569.1,465.5,567.4,464.7,567.5z M528.4,567.5
			 M307.1,568.8c0-0.3-0.1-0.6-0.3-0.9C306,568.1,306.2,569.4,307.1,568.8z M441.4,567.9c-0.3,0.5-0.2,0.8,0.2,0.9
			C441.9,568.3,441.8,568,441.4,567.9z M465.8,567.9 M476,568.2 M482.1,568.2 M517.6,568.4c-1.3,0.2-2.5,0-3.8,0.1v0.4
			c1.8,0.1,3.6,0.1,5.3,0C519.5,567.9,518,567.8,517.6,568.4z M519.5,568.1c0,0.2,0,0.5,0,0.7c2.7,0.1,5.4,0,8.2,0
			c0-0.2,0-0.5,0-0.7C524.9,568.1,522.2,568.1,519.5,568.1z M528,568.3c-0.4,1,1.2,0.5,1.3,0C528.9,568,528.4,568,528,568.3z
			 M542.9,568.2 M543.6,568.2 M544.3,568.3 M546.4,568.2 M547.5,568.2c-0.1,0.7,1.6,0.2,0.6-0.2C548,568.1,547.7,568.2,547.5,568.2z
			 M548.9,568.2 M549.6,568.2 M550.3,568.2 M551,568.2 M552.2,568.2c-0.2,0.7,1,0.9,1.2,0.2C553.3,567.9,552.5,568,552.2,568.2z
			 M553.8,568.1c0,0.2,0,0.6,0,0.8c0.8,0,2.4,0.5,2.5-0.8C555.4,568,554.6,568,553.8,568.1z M558.1,568.2c-0.2,0.1-0.5,0.3-0.7,0.4
			c0.1,0.5,1,0.2,1.4,0.3C559.5,568.7,558.5,567.9,558.1,568.2z M365.9,568.4c-0.4,0.4-0.7,1-1.4,1.2c0,0.3,0,0.8-0.1,1
			c1.2,0.1,2.4,0,3.5,0c0.1-0.7-1-0.7-1.3-1.2C366.3,569.2,366.4,568.5,365.9,568.4z M459.4,568.9 M700.2,569.1
			c-0.2,0-0.7,0.1-1,0.1l0,0.3c0.8,0.1,1.7,0.1,2.5,0c0-0.2,0-0.6,0-0.7C701.2,568.8,700.4,568.5,700.2,569.1z M367.8,569.3
			 M373.5,569.3 M476,569.3 M517.3,569.5c-1.2,0.1-2.3,0-3.5,0.1l0,0.4c1.8,0,3.5,0,5.3,0c0-0.2,0-0.5,0-0.7
			C518.5,569.1,517.9,569.2,517.3,569.5z M519.5,569.2c0,0.2,0,0.5,0,0.7c2.7,0,5.4,0,8.2,0c0-0.2,0-0.5,0-0.7
			c-1.4,0.1-3-0.4-4.3,0.3C522.2,568.9,520.8,569.3,519.5,569.2z M528,569.2c0,0.2,0,0.5,0,0.7c0.5,0,1,0,1.4,0c0-0.2,0-0.5,0-0.7
			C528.9,569.2,528.4,569.2,528,569.2z M543.6,569.3c-0.1,0.5,0.1,0.7,0.6,0.6C544.2,569.4,544,569.2,543.6,569.3z M552.1,569.3
			c-0.5,0.9,1.5,0.8,1.3,0C552.9,569.1,552.5,569.1,552.1,569.3z M553.9,569.3c-0.2,0.5-0.1,0.7,0.4,0.5
			C554.6,569.2,554.4,569.1,553.9,569.3z M557.3,569.2c-0.1,0.9,1.1,0.8,1.8,0.7c0-0.2,0-0.5,0-0.7
			C558.5,569.2,557.9,569.2,557.3,569.2z M559.9,569.3 M693.2,569.5c0,0.2,0,0.5,0,0.7c0.9,0.1,1.9,0.1,2.8,0
			c0.9-0.5,1.9-0.3,2.9-0.3l0-0.3c-0.6,0-1.1-0.4-1.7-0.5C695.9,570,694.5,569.3,693.2,569.5z M428.6,569.6c-0.1,0.6-0.1,1.2,0,1.8
			c0.2,0,0.7-0.1,1-0.1c0-0.6,0.2-1.2,0.4-1.7C429.5,569.5,429,569.5,428.6,569.6z M459.4,569.6 M460.8,569.6c-0.1,0.6,0,1.2,0,1.8
			c0.2,0,0.5,0,0.6-0.1c0.5-0.5,1.5,0,1.9-0.7c0-0.2,0-0.7,0-1C462.4,569.5,461.6,569.5,460.8,569.6z M463.6,569.6
			c-0.1,1.7-0.1,3.3,0,5h0.4c0.1-1.7,0.1-3.3,0-5L463.6,569.6z M481.7,569.7 M546.5,569.7 M547.5,569.7 M548.2,569.7 M551,569.7
			 M555.6,569.6 M691.7,569.8c-1.2,0.1-2.5-0.1-3.7,0.1c-1,0.8-2.4,0-3.6,0.4c-0.2,0.7,0.8,0.2,1.1,0.7c2.3-0.7,5,0.2,7.4-0.7
			C693.2,569.4,691.9,569.2,691.7,569.8z M441.4,570c0,0.2-0.1,0.5-0.1,0.7C441.6,571.6,442.1,569.8,441.4,570z M379.4,570.3
			l-0.1,0.3C379.5,571.6,380.2,570.1,379.4,570.3z M513.8,570.3v0.4c1.8,0.1,3.5,0.1,5.3,0v-0.4
			C517.4,570.2,515.6,570.2,513.8,570.3z M519.5,570.3v0.4c2.7,0.1,5.4,0.1,8.1,0l0-0.4C524.9,570.2,522.2,570.2,519.5,570.3z
			 M528,570.4c0,0.5,1.3,0.5,1.3,0C528.9,570.1,528.5,570.1,528,570.4z M544.3,570.4 M548.2,570.4 M551,570.4 M552.1,570.3
			 M554.6,570.4c0.1,0.5,1.5,0.5,1.6,0C555.7,570.1,555.1,570.1,554.6,570.4z M557.1,570.4 M557.8,570.4c0,0.5,1.3,0.5,1.3,0
			C558.6,570.1,558.2,570.1,557.8,570.4z M681.8,570.5c-1.6,0.2-3.2-0.2-4.8,0.1c-0.5,0.6-1.9,0-1.5,1.1c0.5,0,1.1,0.2,1.5-0.3
			c1.7-0.3,3.6,0.3,5.2-0.4c0.6,0,1.8,0.1,1.7-0.8C683.2,570.3,682.2,569.9,681.8,570.5z M696.8,570.3c-0.7,0.5-1.7,0.1-2.6,0.3
			c-0.5-0.1-1.2,0.2-1.1,0.8c1.3-0.1,2.8,0.3,3.9-0.3c1.3-0.1,2.7,0.3,3.8-0.5l0-0.3C699.6,570.3,698.2,570.1,696.8,570.3z
			 M355.3,571c0,0.7,0.1,1.3,0.1,2c0.6,0.2,1.3,0.1,1.9,0.2c0,0.1,0,0.4,0,0.5c-0.6,0-2-0.4-1.7,0.7c1.3-0.2,2.5,1,3.9,0.5
			c0.1-1.4,0.1-2.9,0-4.3c-1.1-0.1-2.1-0.1-3.2-0.1C355.9,570.5,355.6,570.7,355.3,571z M373.4,570.6c-0.1,0.7-0.1,1.4,0,2.2
			c0.5,0.2,1.1,0.2,1.7,0c0-0.8,0.7-1.3,0.4-2.2C374.8,570.5,374.1,570.4,373.4,570.6z M692.2,570.7c-1.2,0.9-3.2-0.4-4.3,0.7l0,0.3
			c1.2,0,2.3,0,3.5,0c0.6-0.2,1.7-0.2,1.4-1.1C692.7,570.7,692.4,570.7,692.2,570.7z M359.9,571c-0.1,1.3-0.1,2.6,0,3.9
			c0.2,0,0.6,0,0.7,0c0.2-1-0.2-2,0.3-2.9c-0.2-0.4-0.2-0.6,0.1-1C360.7,571,360.2,571,359.9,571z M376.6,573.5c0-0.8,0-1.6,0-2.5
			C375.7,571.2,375.3,573.4,376.6,573.5z M459.4,571 M671.6,571.3c-1.8-0.1-3.5-0.2-5.3,0c0,0.2,0,0.6,0,0.7c1.9,0.1,3.8,0,5.6,0
			c0.9-0.4,1.9-0.3,2.9-0.4c0-0.2,0-0.6,0-0.7C673.6,570.5,672.7,571.5,671.6,571.3z M465.8,571.4 M482.1,571.4 M546.1,571.4
			 M555.6,571.4 M557.1,571.4 M558.1,571.4 M677.7,571.8c-0.6,0.5-1.5,0.2-2.2,0.3c0,0.2,0,0.5,0,0.7c0.5,0,0.9,0,1.4,0
			c1.5-0.7,3.3-0.1,4.9-0.4c0.4-0.4,1-0.2,1.5-0.3c0-0.2,0-0.5,0-0.7C681.6,572,679.6,571.5,677.7,571.8z M684.4,571.4 M685.1,571.4
			c-0.2,0.6,0,0.8,0.6,0.6C685.9,571.4,685.7,571.2,685.1,571.4z M700,571.4 M429,571.7 M460.5,571.8 M549.7,571.8 M661.4,571.7
			l-0.2,0.3c-1.4,0.3-2.8-0.2-4.1,0.1c0,0.2,0,0.6,0,0.7c1.5,0,3.2,0.3,4.7-0.3c1-0.1,2.1,0,3.1,0c0.4,0.1,1.2-0.2,1-0.8
			C664.4,571.6,662.9,571.5,661.4,571.7z M688.1,572.3c0,0.1-0.2,0.4-0.2,0.5c0.8,0,1.6,0.1,2.4-0.1c0.7-0.8,2.8,0.5,2.6-1
			C691.4,572.5,689.5,571.6,688.1,572.3z M693.2,571.7c-0.1,0.5,0.6,0.9,1,0.7c0.7-0.3,1.4-0.3,2.2-0.3l0-0.4
			C695.3,571.6,694.2,571.7,693.2,571.7z M340.2,572.1c-0.2,0.4,0.3,1.1,0.8,1C341.2,572.7,340.7,571.8,340.2,572.1z M354.7,572.1
			c0,0.2-0.1,0.5-0.1,0.7C354.9,573.7,355.4,572,354.7,572.1z M427.2,572.1 M460.8,572.4c-0.1,0.7-0.1,1.4,0,2.1
			c0.8-0.1,1.9,0.4,2.5-0.4c0.2-0.7-0.1-1.4-0.4-2C462.1,572.1,461.5,572.5,460.8,572.4z M546.5,572.2 M655.2,572.3
			c-1.8,0.2-3.7-0.2-5.5,0.1c-0.6,0.6-2.2-0.1-1.8,1.1c1.1,0,2.1-1.3,3.2-0.3c0.6-0.4,1.6-0.6,2.2-0.1c1.2,0.4,2.3-0.1,3.4-0.3
			C657.2,571.7,655.5,571.7,655.2,572.3z M668.2,572.5c-0.6,0.3-1.3,0.2-1.9,0.3c0,0.2,0,0.5,0,0.7c1.4-0.5,3.1-0.3,4.6-0.3
			c1.4,0.2,2.5-0.6,3.9-0.4c0-0.2,0-0.5,0-0.7c-0.5,0-0.9,0-1.4,0C671.8,572.8,669.9,572.1,668.2,572.5z M441.7,572.5
			c0,0.2-0.1,0.5-0.1,0.7C441.9,574.1,442.5,572.3,441.7,572.5z M557.8,572.5 M682.7,572.5c-0.3,0.3-1.1,0-1.1,0.5
			c0.4,0.2,0.9,0.3,1.4,0.1C683.6,573.1,683.2,572.1,682.7,572.5z M685.5,572.5 M428.7,572.9 M440.7,572.8c-0.4,0.3,0,1.4,0.5,0.9
			C441.6,573.4,441.2,572.4,440.7,572.8z M464.7,572.8 M643.6,572.7c0,0.6,0.5,1,1.1,0.8c0.9,0,1.9,0,2.8,0c0-0.2,0-0.5,0-0.7
			C646.2,572.6,644.9,572.6,643.6,572.7z M661.3,573.1c-1.4,0.1-2.8,0-4.2,0c0,0.2,0,0.5,0,0.7c1.4-0.1,3,0.3,4.3-0.3
			c0.9-0.1,1.8,0.1,2.7-0.1c0.4-0.5,1-0.2,1.5,0.1c0.1-0.2,0.3-0.5,0.4-0.7C664.4,572.8,662.7,572.4,661.3,573.1z M678.1,572.9
			c-0.8,0.4-1.8,0.1-2.6,0.3c0,0.2,0,0.5,0,0.7c1.3-0.6,2.9-0.1,4.3-0.3c0-0.2,0-0.5,0-0.7C679.2,572.8,678.6,572.6,678.1,572.9z
			 M598.4,573.2 M637,573.2c0.1,0.5,0.9,0.4,1.3,0.2C638.2,572.8,637.3,573,637,573.2z M638.7,573.1l0,0.3c0.5,0.1,1.1-0.1,1.5,0.3
			c0.6,0.2,1.7,0.2,1.6-0.7C640.8,573.1,639.8,572.9,638.7,573.1z M653.2,573.5c0,0.2,0,0.5,0,0.7c1.2,0.2,2.4-0.1,3.5-0.4
			c-0.1-0.2-0.3-0.5-0.4-0.7C655.4,573.7,654.2,573.3,653.2,573.5z M672.7,573.8c0.7,0,1.4,0,2.1,0c0-0.2,0-0.5,0-0.7
			C674.1,573.1,672.7,572.8,672.7,573.8z M373.4,573.5c0,0.5,0,1,0,1.4c0.3,0,0.8,0,1,0c0-0.5,0.2-1,0.4-1.4
			C374.3,573.4,373.8,573.4,373.4,573.5z M459.8,573.5 M599.1,573.5 M627.3,573.7c-1.7,0.2-3.5-0.1-5.2,0c-0.7,0-1.8-0.1-1.8,0.8
			c1.8,0,3.5,0,5.3,0c0.5-0.1,1.1,0.1,1.5-0.3c0.7-0.1,1.3-0.1,2-0.1C629.6,573.1,627.7,573.1,627.3,573.7z M629.5,573.4
			c0,0.2,0,0.5,0,0.7c1.8,0.1,3.5,0,5.3,0c0.4,0.1,1.2-0.2,1-0.8C633.7,573.3,631.6,573.3,629.5,573.4z M668.1,573.6
			c0.4,0.6,1.6,0.3,2.3,0.1C670,573.2,668.8,573.4,668.1,573.6z M351.5,573.9c-0.1,0.7-0.4,1.9,0.1,2.3
			C351.8,575.6,352.1,574.3,351.5,573.9z M354.7,573.9 M377,573.9 M598.5,573.9 M618.5,574.1c-2.4-0.1-4.7-0.2-7.1,0
			c0,0.2,0,0.6,0,0.7c2.3,0.1,4.7,0,7.1,0c0.5-0.4,1.8-0.1,1.5-1.1C619.5,573.7,619.1,574.3,618.5,574.1z M644,573.8
			c0,0.2,0,0.5,0,0.7c1.2,0.1,2.4,0.1,3.6,0c0-0.2,0-0.5,0-0.7C646.4,573.8,645.2,573.8,644,573.8z M648,573.9
			c-0.4,0.5,0.5,0.9,0.8,0.4C649.3,573.8,648.2,573.5,648,573.9z M657.1,574.2c0,0.2,0,0.5,0,0.7c1.1,0,2.3,0.2,3.3-0.3
			c1,0,2.1,0,3.1,0c0-0.2,0-0.5,0-0.7c-0.3,0-0.8,0-1,0C660.8,574.5,658.9,573.9,657.1,574.2z M664.6,573.9 M369.2,574.3
			 M370.3,574.3 M610.1,574.1l-0.2,0.3c-2.6,0.3-5.1-0.2-7.7,0.1c0,0.2,0,0.6,0,0.8c1.8,0.1,3.6,0,5.3,0.1c1.1,0.1,2.1-0.5,3.2-0.4
			c0-0.2,0-0.6,0-0.7C610.6,574.1,610.3,574.1,610.1,574.1z M640.2,574.3c0,0.5,1.3,0.5,1.3,0C641,574,640.6,574,640.2,574.3z
			 M653.2,574.5v0.4c1.2,0.1,2.4,0.1,3.5,0c-0.1-0.2-0.3-0.5-0.4-0.7C655.4,574.7,654.2,574.4,653.2,574.5z M601.3,574.5
			c-0.3,0.1-1.2,0.5-0.5,0.7C601.3,575.6,601.9,574.7,601.3,574.5z M627.6,574.8c-2.1,0.2-4.2,0-6.2,0.1c-0.5-0.1-1.2,0.2-1.1,0.8
			c1.8,0,3.5,0,5.3,0c0.5-0.1,1.1,0.1,1.5-0.3c0.7-0.1,1.3,0,2-0.1c0-0.2,0-0.5,0-0.7C628.6,574.5,628,574.3,627.6,574.8z
			 M629.5,574.5c0,0.2,0,0.5,0,0.7c1.2,0,2.5,0.3,3.6-0.3c0.9-0.3,1.5,0.5,2.4,0.3c0-0.2,0-0.5,0-0.7
			C633.5,574.5,631.5,574.5,629.5,574.5z M406,574.9 M427.2,574.9c0,0.2,0,0.5,0,0.7c0.7-0.1,2.1,0.4,1.8-0.8
			C428.4,574.8,427.8,574.8,427.2,574.9z M618.5,575.2c-2.4,0-4.7,0-7.1,0c0,0.2,0,0.5,0,0.7c0.5,0,1.1,0.2,1.5-0.3
			c1.2-0.5,2.2,0.4,3.4,0.3c1.2-0.1,2.5,0.2,3.5-0.5c0-0.1,0-0.5,0.1-0.6C619.5,575,619.1,575.3,618.5,575.2z M644.1,575 M646.5,575
			c-0.4,0.6,0.5,0.6,0.7,0.3C647.9,574.9,646.7,574.6,646.5,575z M648,575c-0.2,0.7,1.6,0.2,0.7-0.1
			C648.5,574.9,648.1,574.9,648,575z M571.8,575.6c-2.1,0-4.2-0.2-6.3,0c0,0.2,0,0.6,0,0.8c1.3,0.1,2.6,0,3.9,0.1
			c0.5-0.1,1.1,0.1,1.5-0.3c1-0.2,2,0,3.1-0.1c0-0.2,0-0.5,0-0.7c-0.4-0.1-0.8,0-1.1,0.2C572.5,575.3,572.1,575.3,571.8,575.6z
			 M574.7,575.2c0,0.2,0,0.5,0,0.7c1.1,0.1,2.1,0,3.2,0c0-0.2,0-0.5,0-0.7C576.8,575.2,575.7,575.2,574.7,575.2z M610.5,575.3
			 M310.4,576.3c0.6,0,1.2,0.1,1.8,0c0-0.2,0-0.5,0-0.7C311.5,575.5,310.1,575.1,310.4,576.3z M436.3,575.5c0,0.3,0,0.9,0,1.1
			c0.8,0,1.6,0.1,2.4,0c0.2-0.4,0.3-0.8,0.4-1.1C438.2,575.4,437.3,575.4,436.3,575.5z M563,576.3c0.6,0.1,1.2,0.1,1.8,0
			c0-0.2,0-0.6,0-0.8C564.1,575.5,562.6,575.1,563,576.3z M602.3,575.6c0,0.2,0,0.5,0,0.7c1.2,0.1,2.4,0,3.5,0V576
			C604.9,575.1,603.4,575.7,602.3,575.6z M606.9,575.7c-0.6,0.2-0.3,0.9,0.3,0.7C607.8,576.3,607.3,575.5,606.9,575.7z M626.7,575.9
			c-2,0-4,0-6,0v0.4c2.3,0.1,4.7,0,7,0c0.5-0.2,0.9-0.4,1.4-0.4l0-0.3C628.2,575.3,627.5,576,626.7,575.9z M629.9,575.7
			c0.4,0.5,1.7,0.3,2.3,0.1C631.8,575.3,630.6,575.6,629.9,575.7z M634.9,575.6 M407.7,575.9c0,0.2,0,0.5,0,0.7c0.8,0.1,1.7,0,2.5,0
			c0-0.2,0-0.5,0-0.7C409.3,575.9,408.5,575.9,407.7,575.9z M601.3,576 M406.7,576.3 M573,576.4c-0.2,0.6,0,0.8,0.6,0.6
			C573.7,576.4,573.5,576.2,573,576.4z M575.4,577c0.8,0,1.6,0,2.5,0c0-0.2,0-0.5,0-0.7C577.1,576.4,575.5,575.8,575.4,577z
			 M611.5,576.4 M612.2,576.3 M616.1,576.4c0,0.5,1.3,0.5,1.3,0C617,576.2,616.5,576.2,616.1,576.4z M310.4,577.4c0.6,0,1.2,0,1.8,0
			c0-0.2,0-0.5,0-0.7C311.6,576.6,310.3,576.4,310.4,577.4z M565.5,576.7c0,0.2,0,0.5,0,0.7c1.9,0.1,3.8,0,5.7,0c0-0.2,0-0.5,0-0.7
			C569.2,576.6,567.3,576.6,565.5,576.7z M601.3,576.7 M602.3,576.7v0.4c1.1,0.1,2.1,0.1,3.2,0v-0.4
			C604.4,576.6,603.3,576.6,602.3,576.7z M407.7,578.1c0.4,0.1,0.8,0,1.2-0.2c0.5-0.2,1.4-0.2,1.3-0.9
			C409.3,577,407.5,576.8,407.7,578.1z M436.3,577c0,0.2,0,0.7,0,0.9c0.4-0.1,0.7-0.1,1.1,0.1c0.6,0.2,1.3-0.4,1-1.1
			C437.8,577,437,576.9,436.3,577z M105.9,577.3c-0.1,0.8-0.1,1.7,0,2.5c0.3,0,0.8,0,1.1,0C106.9,579,106.7,577.5,105.9,577.3z
			 M406,577.5c-0.1,0.5,0.1,0.7,0.6,0.5C406.6,577.6,406.4,577.4,406,577.5z M407,577.4 M438.9,577.4 M575.8,577.5
			c0.3,0.5,1.4,0.3,2,0.1C577.5,577.1,576.3,577.3,575.8,577.5z M310.4,578.4c0.6,0,1.2,0,1.8,0c0-0.2,0-0.5,0-0.7
			C311.6,577.7,310.4,577.5,310.4,578.4z M408.1,579.1c0.6,0,1.2,0,1.8,0c0-0.2,0-0.5,0-0.7C409.2,578.3,408.1,578.5,408.1,579.1z
			 M436.3,578.4c0,0.2,0,0.5,0,0.7c0.6,0,1.2,0,1.8,0c0-0.2,0-0.5,0-0.7C437.5,578.4,436.9,578.4,436.3,578.4z M438.5,578.5
			c-0.2,0.6,0,0.8,0.6,0.6C439.3,578.5,439.1,578.3,438.5,578.5z M341.6,578.9 M479.6,578.9 M351.5,579.2c0.3,0.5,1.4,0.3,2,0.1
			C353.2,578.8,352.1,579.1,351.5,579.2z M354.7,579.2 M139.2,579.5 M111,579.9 M198.3,579.9 M311.2,579.9 M310.2,580.3
			c-0.2,0.5-0.2,1.1,0,1.6C310.6,581.8,310.6,580.4,310.2,580.3z M351.5,580.2c-0.3,1-0.2,2.1,0,3.1c0.8,0.2,1.6,0.2,2.4-0.1
			c0-1,0-2,0-3C353,580.2,352.2,580.2,351.5,580.2z M354.4,580.3c0.2,1.1-0.4,2.5,0.4,3.3c2,0,4.1-0.1,6.1,0.1c0-1.1,0-2.2,0-3.4
			C358.7,580.4,356.5,580.3,354.4,580.3z M106.4,580.6 M111.9,580.8c-0.4,1.1,0.9,0.8,1.5,0.8C113.7,580.5,112.5,580.8,111.9,580.8z
			 M113.7,580.9c0,0.2,0,0.6,0,0.7c1.9,0.1,3.8,0,5.7,0c0.1-0.7-1-0.3-1.4-0.5C116.7,580.5,115.1,580.8,113.7,580.9z M309.4,581
			 M120.1,581.2c-0.2,0.6,0.7,0.5,1.1,0.7c1.8,0,3.5,0,5.3,0c0-0.2,0-0.5,0-0.7C124.3,581.1,122.2,581.1,120.1,581.2z M127.5,581.2
			c0,0.2,0,0.6,0,0.7c1,0.1,2.1-0.1,3.1,0.1c1.1,1,2.5-0.8,3.7,0.3c0.7-0.7,1.4,0,2.1,0c0-0.2,0-0.6,0-0.7c-2.1-0.2-4.2,0.1-6.3-0.1
			C129.5,580.8,128.3,581.2,127.5,581.2z M139.2,581.3 M137,582.3c0.5,0.1,1,0.1,1.5,0C139.1,581.1,136.5,581.1,137,582.3z M112,582
			c-0.3,1,0.8,0.7,1.4,0.7c0-0.2,0-0.5,0-0.7C112.9,581.9,112.4,581.9,112,582z M113.7,582c0,0.2,0,0.5,0,0.7c1.9,0,3.8,0.1,5.7,0
			c0-0.2,0-0.5,0-0.7c-0.1,0.1-0.3,0.2-0.5,0.2C117.4,581.6,115.4,582,113.7,582z M120,582c-0.2,1.4,1.7,0.2,2.3,1
			c1.4,0.2,2.8,0.1,4.1,0.1c0-0.2,0-0.5,0-0.7C124.3,582.1,122.1,582.7,120,582z M127.5,582.3c0,0.2,0,0.5,0,0.7
			c1.4,0.2,2.9-0.3,4.3,0.3c0-0.2-0.1-0.5-0.1-0.6C130.3,582.5,128.9,582.1,127.5,582.3z M161.1,582.3c-0.2,0.8,0.5,0.7,1.1,0.8
			c1.4,0.6,2.9,0.3,4.3,0.3c0-0.2,0-0.5,0-0.7C164.7,582.4,162.7,583.1,161.1,582.3z M309.8,582.4 M311.2,582.4
			c-0.2,0.7,1.6,0.2,0.7-0.1C311.7,582.3,311.3,582.4,311.2,582.4z M133.9,582.7c-0.2,0.6,0,0.8,0.6,0.6
			C134.7,582.7,134.5,582.5,133.9,582.7z M137.1,582.7c0,0.2,0,0.5,0,0.7c0.5,0,1,0,1.4,0c0-0.2,0-0.5,0-0.7
			C138,582.6,137.5,582.6,137.1,582.7z M139.3,582.7c-0.2,0.4-0.4,1.4,0.2,1.6C139.6,583.9,139.8,582.9,139.3,582.7z M167.1,582.6
			c0,0.2,0,0.6,0,0.7c1.7,0.1,3.3,0.1,5,0c0-0.2,0-0.6,0-0.8C170.5,582.5,168.8,582.5,167.1,582.6z M112,583.1
			c0.1,0.4,0.9,0.4,1.3,0.5C113.6,582.9,112.4,582.8,112,583.1z M113.7,583c0,0.2,0,0.5,0,0.7c1.9,0.1,3.8,0.1,5.7,0
			c0-0.2,0-0.5,0-0.7C117.5,583,115.6,583,113.7,583z M120.1,583.1 M177,583c0,0.6-0.3,1.7,0.7,1.5c-0.1-0.2-0.2-0.5-0.3-0.7
			c0.5-0.2,1.4-0.2,1.4-0.8C178.2,582.9,177.6,582.9,177,583z M179.2,583c-0.1,0.4,0.6,0.7,1,0.7c0.8-0.4,1.8-0.3,2.6,0.1
			c1.3,0,2.6,0,3.9,0c0-0.2,0-0.6,0-0.8C184.1,582.8,181.6,582.9,179.2,583z M187,583.7c1.1,0.1,2.3,0,3.4-0.1l0-0.3
			c-0.9-0.1-1.8,0-2.7-0.2C187.5,582.6,186.9,583.3,187,583.7z M122.6,583.4v0.3c1,0.9,2.6,0.3,3.9,0.4c0-0.2,0-0.5,0-0.7
			C125.2,583.3,123.9,583.3,122.6,583.4z M127.5,583.4c0,0.2,0,0.5,0,0.7c1.5,0.1,3.1,0.1,4.6,0l0-0.3c-0.5-0.1-1.1,0.1-1.5-0.3
			C129.6,583.2,128.5,583.4,127.5,583.4z M161.1,583.4c0,0.2,0,0.5,0,0.7c0.8,0.2,1.9-0.2,2.6,0.3c0.9,0.2,1.8,0.1,2.7,0.1
			c0-0.2,0-0.5,0-0.7c-1.3-0.1-2.6,0-3.9,0C162.1,583.5,161.7,583.3,161.1,583.4z M190.9,583.4l0,0.3c0.6-0.1,1.1,0.5,1.7,0.4
			c1.4,0,2.8,0,4.3,0c0-0.2,0-0.6,0-0.7C194.9,583.2,192.9,583.2,190.9,583.4z M197.2,583.3c0,0.2,0,0.6,0,0.7
			c0.8,0.1,1.7,0.1,2.5,0c0-0.2,0-0.6,0-0.7C198.9,583.2,198,583.2,197.2,583.3z M226.7,583.4 M228,583.4l0,0.4
			c1.1,0.1,2.1,0.1,3.2,0l0-0.4C230.1,583.3,229,583.3,228,583.4z M134,583.8 M137.1,583.7c0,0.2,0,0.5,0,0.7c0.5,0,1,0,1.4,0
			c0-0.2,0-0.5,0-0.7C138,583.7,137.5,583.7,137.1,583.7z M167.1,583.7c0,0.2,0,0.5,0,0.7c1.8,0,3.6,0,5.3,0c0-0.2,0-0.5,0-0.7
			C170.7,583.7,168.9,583.7,167.1,583.7z M176,583.8c-0.6,0.2-0.3,0.9,0.3,0.7C177,584.4,176.5,583.6,176,583.8z M182.7,584.1l0,0.3
			c1.2,0.1,2.3,0.1,3.5,0v-0.4C185.1,584,183.9,584,182.7,584.1z M219.9,584.2 M221,584.1 M222.3,584.1v0.4c1.4,0.2,3-0.3,4.3,0.4
			c1.5,0,3,0,4.6,0c0-0.2,0-0.5,0-0.7C228.2,584,225.3,584,222.3,584.1z M231.9,584c0,0.2,0,0.6,0,0.7c2,0.1,4,0.1,6.1,0
			c0-0.2,0-0.6,0-0.8C235.9,583.9,233.9,583.9,231.9,584z M161.1,584.4c0,0.2,0,0.5,0,0.7c1.8,0,3.6,0.1,5.3,0v-0.4
			c-1.3-0.1-2.5,0.1-3.8-0.1C162.3,584.2,161.6,584.4,161.1,584.4z M192.6,584.4c0,0.2,0,0.5,0,0.7c1.4,0,2.8,0.1,4.3,0
			c0-0.2,0-0.5,0-0.7C195.4,584.4,194,584.4,192.6,584.4z M197.2,584.4c0,0.2,0,0.5,0,0.7c0.7,0,1.4,0.1,2.1,0c0-0.2,0-0.5,0-0.7
			C198.6,584.4,197.9,584.4,197.2,584.4z M167.1,584.8l0,0.4c1.9,0.1,3.8,0.1,5.7,0v-0.4C170.9,584.7,169,584.7,167.1,584.8z
			 M175.7,584.8c-0.1,0.5,0.1,0.7,0.6,0.6C176.4,584.9,176.2,584.7,175.7,584.8z M177.1,584.9 M186.3,585.2 M223.5,585.2
			c0.1,0.4,0.4,0.5,0.9,0.2C224.2,585,223.9,584.9,223.5,585.2z M226.2,585.1c0,0.2,0,0.5,0,0.7c1.7,0.1,3.3,0.1,5,0
			c0-0.2,0-0.5,0-0.7C229.5,585.1,227.9,585.1,226.2,585.1z M231.9,585.1c0,0.2,0,0.5,0,0.7c2,0.1,4,0,6,0c0-0.2,0-0.5,0-0.7
			C235.9,585.1,233.9,585.1,231.9,585.1z M191.9,585.5v0.4c1.7,0.1,3.3,0.1,5,0l0-0.4C195.2,585.4,193.5,585.4,191.9,585.5z
			 M197.3,585.6c-0.2,0.7,1.6,0.2,0.6-0.1C197.8,585.5,197.4,585.5,197.3,585.6z M199.4,585.6 M205.4,585.9 M234.8,586.3
			c0.1,0.4,0.4,0.5,0.9,0.2C235.5,586,235.3,586,234.8,586.3z M236.9,586.3"/>
	</g>
	<path fill="#010101" d="M741.6,591.1c-0.8,0.2-0.8-1.1,0-0.6V591.1z"/>
</g>
</svg>
