<?xml version="1.0" encoding="iso-8859-1"?>
<!-- Generator: Adobe Illustrator 26.0.1, SVG Export Plug-In . SVG Version: 6.00 Build 0)  -->
<svg version="1.1" id="Layer_1" xmlns="http://www.w3.org/2000/svg" xmlns:xlink="http://www.w3.org/1999/xlink" x="0px" y="0px"
	 viewBox="0 0 800 800" enable-background="new 0 0 800 800" xml:space="preserve">
<g>
	<path fill="#010101" d="M107.321,600c-1.538-5.466-3.123-10.92-4.571-16.41c-0.26-0.984-0.35-1.735-1.393-2.322
		c-1.992-1.122-1.31-3.057-0.925-4.722c0.416-1.797,1.932-2.13,3.556-2.307c4.726-0.514,9.339,0.924,14.083,0.628
		c5.985-0.373,5.995-0.169,6.338-6.041c0.03-0.515-0.057-1.096,0.541-1.396c1.105,0.157,0.995,0.997,0.986,1.761
		c-0.018,1.43-0.061,2.859-0.087,4.289c-0.132,7.383-0.131,7.378,7.297,7.331c1.315-0.008,2.791,0.324,2.551-1.867
		c-0.106-0.969,0.716-0.932,1.371-0.868c0.937,0.091,2.315-0.302,2.524,0.962c0.272,1.644,1.121,1.984,2.488,1.724
		c1.52-0.289,0.89-1.56,0.916-2.41c0.044-1.453-0.322-3.026,1.999-2.853c1.663,0.124,3.498-0.691,3.635,2.43
		c0.159,3.613,4,4.406,8.413,2.23c2.693-1.327,5.151-3.29,8.371-3.377c1.539-0.042,2.669,0.288,2.371,2.137
		c-0.363,2.252,0.884,2.647,2.707,2.512c0.547-0.04,1.101,0.018,1.652,0.03c7.214,0.162,7.189,0.151,5.296-6.78
		c-0.42-1.537-1.494-1.033-2.351-1.042c-4.518-0.049-9.037-0.05-13.554,0.004c-1.571,0.019-3.177-0.225-3.169-2.002
		c0.008-1.915,1.847-1.42,3.079-1.449c4.513-0.106,9.027-0.172,13.54-0.228c1.228-0.015,2.465,0.179,2.498-1.687
		c0.016-0.928,0.915-1.369,1.671-1.245c3.735,0.615,7.07-1.902,10.827-1.246c1.596,0.279,2.933-0.025,2.692-2.402
		c-0.167-1.65,3.239-2.661,4.828-1.202c1.179,1.082,2.099,1.203,3.424,0.802c0.389-0.118,1.085-0.14,1.26,0.087
		c2.264,2.942,4.867,1.066,7.44,0.705c2.214-0.31,5.131-1.335,5.049,2.8c-0.016,0.794,0.801,0.834,1.398,1.119
		c1.585,0.755,3.243,0.512,4.872,0.562c4.661,0.145,4.483,0.11,4.678-4.362c0.156-3.58-2.092-3.819-4.61-3.907
		c-3.628-0.126-7.259-0.175-10.889-0.246c-1.204-0.023-2.827-0.042-2.859-1.39c-0.04-1.712,1.75-1.333,2.844-1.264
		c4.524,0.284,9.093-0.11,13.421-0.956c2.684-0.525,5.469-1.8,8.26-2.417c3.369-0.746,6.919-1.872,10.274-0.074
		c2.057,1.102,2.175,3.273,2.032,5.385c-0.12,1.76-0.559,3.343-2.702,3.394c-1.664,0.04-1.645,1.057-1.632,2.223
		c0.017,1.438,0.978,1.452,2.04,1.49c1.199,0.043,2.737-0.523,2.626,1.783c-0.072,1.493,1.295,0.664,2.019,0.706
		c1.23,0.07,1.669-0.612,1.731-1.844c0.053-1.059-0.69-3.157,1.4-2.669c1.833,0.428,5.135-0.911,5.074,2.945
		c-0.029,1.842,1.105,1.753,2.446,1.676c1.333-0.077,2.82,0.246,2.909-1.722c0.08-1.756,0.122-3.528-0.018-5.277
		c-0.17-2.128,1.173-3.131,2.729-2.568c2.291,0.829,5.826-1.851,6.969,2.329c0.037,0.136,0.81,0.087,1.241,0.097
		c1.977,0.046,3.954,0.112,5.932,0.117c4.252,0.011,4.229-0.003,4.063,4.08c-0.042,1.028-0.47,2.505,1.093,2.675
		c1.968,0.213,1.132-1.505,1.168-2.368c0.197-4.638,0.151-4.605,4.959-4.438c1.978,0.069,4.481,1.316,5.226-1.965
		c1.949,0.65,3.043-1.992,5.871-0.773c2.292,0.987,4.26,3.673,7.571,3.018c1.552-0.307,1.815,1.887,1.605,3.356
		c-0.37,2.589,0.81,3.289,3.204,3.044c1.259-0.129,2.378-0.303,1.996-1.781c-0.432-1.674,1.589-4.509-1.459-4.899
		c-4.038-0.517-2.974-3.286-3.102-5.584c-0.135-2.433,0.647-3.73,3.579-3.757c1.839-0.017,2.755-2.596,4.733-3.443
		c0.706-0.302,0.794-1.461,1.656-0.187c0.906,1.339,2.265,1.158,3.571,1.14c1.124-0.016,2.288,0.09,2.966,0.992
		c0.4,0.534-0.301,2.018,1.258,1.499c1.127-0.375,0.701-1.501,0.677-2.302c-0.134-4.576,1.184-9.606-4.353-12.321
		c1.103-0.874,1.595-0.592,1.987-0.207c1.76,1.734,2.563,1.493,2.348-1.072c-0.068-0.808,0.11-1.819,0.954-1.859
		c1.089-0.052,1.245,1.04,1.206,1.916c-0.164,3.608-0.761,7.17-0.527,10.828c0.251,3.924-0.789,8.075,0.144,11.773
		c1.001,3.969-1,7.201-0.969,10.81c0.02,2.289-1.709,1.769-3.087,1.83c-2.018,0.089-3.839,0.414-3.184,3.193
		c0.116,0.494-0.128,1.157,0.654,1.285c0.657,0.107,1.015-0.319,1.261-0.833c1.315-2.754,3.184-1.999,5.35-1.081
		c1.696,0.72,3.539,1.458,5.172-0.684c1.178-1.545,7.217-1.365,8.747-0.245c1.84,1.347,4.151,0.883,6.244,1.115
		c0.895,0.099,1.178-1.061,0.874-2.072c-0.676-2.252-0.098-4.581-0.342-6.86c-0.22-2.058,0.676-2.876,2.676-2.551
		c3.196,0.519,4.035-1.254,3.957-3.981c-0.044-1.539-0.029-3.079-0.036-4.619c-0.009-2.131,0.629-3.727,3.167-3.59
		c2.249,0.121,3.834,0.934,3.596,3.599c-0.125,1.404-0.064,2.779-0.511,4.196c-0.689,2.182,1.003,4.408,3.336,4.379
		c3.059-0.039,6.114-0.406,9.17-0.636c0.624-0.047,1.013-0.29,0.923-1.024c-1.28-10.392-1.85-20.873-3.938-31.161
		c-0.105-0.516-0.497-0.97-0.739-1.462c-0.145-0.295-0.259-0.606-0.387-0.91c2.467-0.381,2.16-4.04,5.128-4.097
		c2.832-0.054,5.67-0.608,8.47-1.127c1.274-0.236,2.667-0.314,3.315-2.064c0.543-1.467,2.237-1.185,3.521-0.93
		c1.015,0.202,1.301,1.269,0.34,1.564c-2.581,0.793-1.91,2.383-1.831,4.331c0.107,2.654,2.04,2.514,4.263,3.093
		c-3.452,2.037-3.186,4.667-2.803,7.603c0.822,6.306,1.355,12.653,1.86,18.994c0.158,1.985,0.7,3.168,2.915,2.935
		c0.322-0.034,0.909-0.02,0.949,0.105c1.033,3.283,4.308,2.344,6.472,3.472c1.844,0.961,3.56,1.573,4.863-0.815
		c0.298-0.545,0.886-1.253,1.557-1.05c2.378,0.717,4.526-0.202,6.691-0.818c1.752-0.498,3.044-0.752,2.635,1.782
		c-0.116,0.722,0.373,0.898,1.004,0.915c5.029,0.137,10.058,1.653,15.024-1.044c2.001-1.087,4.659-1.027,7.037-1.344
		c1.386-0.185,2.22,0.538,2.318,2.029c0.065,0.991-0.409,2.544,1.389,2.316c1.369-0.173,2.203-1.068,2.331-2.686
		c0.183-2.304-0.873-4.256-1.42-6.344c-1.292-4.924-0.298-10.006-1.258-14.99c-0.882-4.579-1.031-9.304-1.408-13.971
		c-0.091-1.132-0.475-2.118-0.848-3.142c-0.457-1.254-1.603-2.728,0.938-3.109c0.532-0.08,0.723-0.57,0.514-0.985
		c-1.448-2.875,0.723-4.387,2.476-5.63c2.697-1.912,4.439-4.087,4.333-7.524c-0.022-0.706,0.439-1.426,0.693-2.186
		c1.565,0.224,1.793,1.794,2.727,2.619c0.432,0.382,0.91,0.675,1.487,0.473c0.695-0.243,0.577-0.854,0.43-1.365
		c-0.354-1.232-0.234-2.245,1.238-2.486c1.961-0.321,1.788,1.467,1.903,2.411c0.996,8.237,1.858,16.49,2.736,24.741
		c0.891,8.375,1.839,16.746,2.59,25.134c0.324,3.613,2.671,0.638,3.843,1.349c0.041,1.071-0.829,1.184-1.475,1.453
		c-2.077,0.866-2.105,2.409-1.159,4.007c1.334,2.252,2.859,4.394,4.334,6.56c0.916,1.345,2.351,1.131,3.609,0.883
		c1.395-0.275,1.323-1.588,1.328-2.676c0.032-7.368-0.008-14.737,0.087-22.104c0.024-1.865-0.83-2.218-2.408-2.135
		c-1.316,0.069-2.71,0.206-3.945-0.136c-1.469-0.407-3.869-0.913-0.966-2.989c1.38-0.987,0.348-2.724,0.996-4.143
		c1.072,0.849,0.517,2.052,0.861,2.976c0.34,0.911,0.896,1.477,1.97,1.363c1.079-0.115,1.548-0.687,1.493-1.749
		c-0.028-0.549-0.026-1.1-0.027-1.649c-0.003-1.874-0.494-3.854,2.821-2.449c2.554,1.082,3.385-0.088,3.021-2.971
		c-1.35-10.717-2.614-21.446-3.925-32.168c-0.464-3.797-0.957-7.59-1.461-11.381c-0.208-1.566-0.825-2.689-2.719-2.643
		c-1.089,0.026-2.254-0.146-2.385-1.754c0.932-0.718,1.204,0.457,1.782,0.656c1.846,0.634,2.831-0.001,2.62-1.935
		c-0.319-2.927-0.791-5.838-1.231-8.75c-0.152-1.006-0.769-1.479-1.832-1.494c-0.933-0.013-2.057,0.258-2.578-1.292
		c2.785,0.246,4.508-0.46,3.995-3.78c-0.863-5.582-0.797-11.398-2.383-16.743c-1.015-3.419,0.455-5.102,1.895-7.296
		c0.273-0.415,0.676-0.925,1.339-0.697c0.704,0.242,0.573,0.877,0.509,1.38c-0.425,3.346,0.425,6.718-0.695,10.118
		c-0.544,1.65-0.984,4.589,2.638,4.523c0.457-0.008,1.164,0.406,1.334,0.804c0.333,0.777-0.396,1.163-1.006,1.416
		c-3.424,1.421-2.169,4.093-1.547,6.382c0.509,1.874,2.036,1.255,3.151,0.526c0.729-0.477,1.303-0.962,1.839,0.012
		c0.546,0.994-0.117,1.432-0.908,2.057c-1.074,0.848-3.343-0.282-3.404,1.7c-0.074,2.384-0.094,5.009,0.823,7.113
		c0.849,1.947,2.768,0.634,4.085-0.444c0.866,1.627,0.333,2.696-1.162,2.696c-2.759,0-2.691,1.579-2.358,3.487
		c0.151,0.863,0.471,1.731,0.437,2.586c-0.102,2.576,1.041,3.152,3.219,2.128c0.543-0.255,1.089-0.552,1.397,0.032
		c0.363,0.689-0.109,1.486-0.747,1.563c-3.648,0.437-2.757,2.615-2.621,5.199c0.35,6.662,2.247,13.124,2.258,19.806
		c0.003,1.926,0.822,2.961,3.013,2.878c2.409-0.091,4.838,0.335,7.248,0.25c1.882-0.066,3.303-0.586,1.606-2.999
		c-2.287-3.251-0.803-7.964,2.847-9.823c0.27-0.137,0.65-0.179,0.811-0.392c2.715-3.6,4.594-3.527,7.629-0.17
		c0.987,1.092,2.368,4.28,4.506,0.622c0.288-0.492,2.053-1.902,3.114-0.568c0.623,0.784,1.009,1.911,0.202,3.289
		c-1.578,2.691,0.212,5.995-1.802,8.951c7.733-1.384,7.731-1.384,7.731,5.883c0,2.75,0.1,5.503-0.017,8.248
		c-0.076,1.767,0.349,2.645,2.331,2.555c1.897-0.087,3.737-0.277,5.606,1.051c0.743,0.528,2.79-0.972,3.754-2.271
		c0.237-0.32,0.431-1.068,0.769-0.612c2.11,2.843,5.267,1.286,7.98,1.934c-0.924,1.459-2.298,1.156-3.555,1.217
		c-0.657,0.032-1.455,0.025-1.495,0.902c-0.054,1.174,0.927,1.012,1.656,1.017c2.094,0.016,4.206,0.15,6.278-0.071
		c2.778-0.295,3.582,0.907,3.151,3.421c-0.503,2.934,0.002,5.878-0.059,8.815c-0.039,1.866-0.039,3.447,2.58,2.36
		c0.381-0.158,0.917-0.184,1.305-0.051c3.818,1.302,6.726-1.989,10.287-2.012c0.776-0.005,1.066-0.81,0.903-1.489
		c-0.271-1.127-0.379-2.58-1.89-2.721c-3.16-0.294-2.739-2.598-2.654-4.6c0.088-2.066,1.099-3.755,3.386-3.578
		c2.875,0.222,1.435-2.036,2.122-3.338c3.293,2.031,7.9,0.232,10.575,4.063c0.508,0.728,1.678,0.099,2.541,0.118
		c5.398,0.118,10.796,0.257,16.195,0.327c1.342,0.017,2.738,0.294,2.729,1.707c-0.01,1.508-1.591,1.075-2.61,1.129
		c-4.497,0.236-8.994,0.494-13.494,0.64c-1.801,0.058-2.84,0.37-1.831,2.456c0.321,0.664,0.351,1.467,0.525,2.204
		c0.295,1.254-1.166,3.343,0.841,3.633c1.764,0.255,4.237,0.329,5.423-1.42c1.643-2.422,4.352-2.338,5.852-1.527
		c2.941,1.591,5.462,0.516,8.171,0.146c0.543-0.074,1.077-0.277,1.619-0.29c1.183-0.028,2.848-0.255,2.866,1.31
		c0.011,1.009-0.708,2.265-2.268,2.739c-6.184,1.878-7.667,4.242-7.001,10.5c0.104,0.978,0.108,1.966,0.147,2.95
		c0.022,0.547,0.012,1.075,0.583,1.418c1.876,1.126,6.636-0.366,7.144-2.407c0.49-1.968,2.166-1.01,3.16-1.609
		c0.768-0.463,2.155,0.018,2.309-1.415c0.122-1.14-0.754-1.48-1.537-1.857c-1.976-0.953-1.775-2.742-1.856-4.49
		c-0.088-1.901,1.265-2.03,2.563-2.325c1.519-0.346,1.445-1.185,0.948-2.445c-0.492-1.248-0.367-2.138,1.524-1.531
		c1.848,0.594,3.822,0.865,5.763,1.076c0.99,0.108,1.779,0.455,2.186,1.225c1.592,3.015,4.227,3.393,7.278,3.324
		c4.953-0.112,9.911,0.019,14.867,0.059c1.395,0.011,3.138-0.233,3.025,1.889c-0.112,2.109-1.968,1.466-3.184,1.506
		c-4.625,0.152-9.255,0.176-13.882,0.28c-1.423,0.032-3.011-0.588-3.035,2.101c-0.026,2.841,1.662,2.228,3.192,2.229
		c2.754,0.001,5.533,0.152,8.254-0.163c2.335-0.271,3.126,0.747,2.838,2.685c-0.217,1.46-0.374,2.986,1.243,3.165
		c2.029,0.225,4.627,1.205,6.024-1.019c0.846-1.346,1.721-1.619,2.914-1.406c2.752,0.491,6.01-1.581,8.31,1.738
		c0.31,0.447,2.234-0.316,3.416-0.352c1.906-0.057,1.321-1.435,1.279-2.388c-0.056-1.267,0.85-1.316,1.489-1.09
		c1.451,0.513,3.61-1.959,4.382,0.9c0.365,1.352,0.972,1.806,2.24,1.62c7.66-1.128,15.387,0.095,23.058-0.655
		c2.728-0.267,5.474-0.28,8.175-0.905c1.544-0.357,3.221-0.926,4.57,0.706c1.269,1.535,0.318,2.976-0.15,4.337
		c-3.633,10.575-5.613,21.544-7.901,32.441C496.65,600,301.985,600,107.321,600z"/>
</g>
</svg>
