<svg xmlns="http://www.w3.org/2000/svg" width="0.5in" height="0.5in" viewBox="0 0 36 36"><defs><style>.a{fill:#020202;}</style></defs><path class="a" d="M17.07,17.31a4.29,4.29,0,0,0,0-.8c.05,0,.15,0,.13.15l.07,0c-.16.2-.07.47-.09.7l.15-.05h.21a.67.67,0,0,1,.21-.53l-.1,0h.15c0,.08-.06.12-.11.16a.32.32,0,0,1,.2.1l-.25,0a1.43,1.43,0,0,0,.29,0c0,.09,0,.19,0,.28h.23a.94.94,0,0,0,0,.16l-.19.07v.18l.33,0c-.07-.08-.17-.05-.26-.07a2.13,2.13,0,0,1,.25,0c0,.05,0,.1.05.15a1.55,1.55,0,0,1-.37,0c0,.1,0,.2,0,.31a.24.24,0,0,0,.29,0,2,2,0,0,1,0,.24,1,1,0,0,0-.25.07v.34l.12,0a1,1,0,0,0,.25,0,.88.88,0,0,0,0,.15.31.31,0,0,1,.11-.18.66.66,0,0,0,0,.14l.09.06-.1,0h.11v-.06l.07,0a2.46,2.46,0,0,1,0-.47,1.26,1.26,0,0,0,.2-.2l.09-.1a.73.73,0,0,1-.17.31l.22.14v.15l.08,0c0-.08.05-.18.15-.16s0,.16.08.2.19,0,.28,0l.17.07v.3h.13v.22l-.14,0a4.9,4.9,0,0,0,.11.65,4.51,4.51,0,0,0,.52,0v-.08l-.35-.09c0-.11,0-.22,0-.32h.36s0-.09.05-.13,0,.1,0,.13c.29,0,.58,0,.87,0,.08,0,.1.07.14.12.49,0,1,0,1.45,0,.11,0,0,.12,0,.19h.74l.08.15h1.42l0,.13a5.76,5.76,0,0,1-.59,0l-.06.08h.7a.14.14,0,0,1,.14-.15l.16-.1a.5.5,0,0,1,0,.12,1.19,1.19,0,0,1,.42,0l-.12-.11c.12,0,.19,0,.2.1l.22,0,0,.11c.13,0,.16-.09.21-.16l.1.1a.58.58,0,0,1,.14-.17c.1.06.23.07.28.18h.33V20c.09.09.21,0,.32,0s.45,0,.67,0,.54,0,.81-.07a5.7,5.7,0,0,0,.58-.06c.11-.05.24,0,.36,0s.49,0,.71-.12v.11l-.08.07c0,.32-.4.43-.49.72,0,.12-.08.24-.11.36-2.59,0-5.18,0-7.77,0-1.27,0-2.55,0-3.83,0a8.17,8.17,0,0,0-.86,0c-1.51,0-3,0-4.55,0-1,0-2,0-3.06,0-2,0-4,0-5.93,0a1.67,1.67,0,0,0-.5,0,1.35,1.35,0,0,1-.25-.75c0-.07.07-.14.11-.2s0-.28,0-.4a2,2,0,0,1,.14.41,3.35,3.35,0,0,0,.19-.53c0-.1,0-.2.07-.3a.75.75,0,0,1,.21,0,.14.14,0,0,1-.15.08l.21,0,0-.11c.22,0,.43-.07.65-.07v.09a2.51,2.51,0,0,0-.66.14.55.55,0,0,0-.25.1,3.78,3.78,0,0,1-.21.56.79.79,0,0,0,.26.13A.18.18,0,0,0,4,20.2c0-.11.15-.31.21-.12s.27.18.3,0l.17.08,0-.08.36,0s0-.07-.06-.08a5.46,5.46,0,0,0-.57,0l0-.1c.24,0,.49,0,.73,0l.46,0a.41.41,0,0,1,0,.11.49.49,0,0,1,.24,0l0-.07.13,0V20c-.09,0-.25.13-.28,0a2.92,2.92,0,0,1,.59,0L6.49,20l.1,0a.75.75,0,0,0,.06.13.2.2,0,0,1-.25,0c-.05.08-.12,0-.18,0l-.11.05c0-.1-.1-.06-.16,0l0,.07a2.55,2.55,0,0,0,.78,0,.43.43,0,0,1,0-.11h.18l0,.14c.15,0,.32-.06.45,0h.3c0-.06.07-.15.14-.18a.33.33,0,0,1,.22.06c.22,0,.5.08.66-.09H8.32V19.9a1.29,1.29,0,0,0,.44,0h1l.12-.14h.39c0-.08.06-.11.15-.11v.11a1.09,1.09,0,0,0,.54-.06c-.1,0-.22.05-.26-.08s.23,0,.32-.11c0,.11.13.07.21.07a.23.23,0,0,0,.09.25,1,1,0,0,1,0,.29,1.5,1.5,0,0,0-.29.06l0,.09h.38c0-.22,0-.44,0-.66l-.15-.06v-.18h.15V19.2L11.6,19a.25.25,0,0,1-.07-.23l-.08,0c.1,0,.12.07.15.14l.13.06c0,.12,0,.24,0,.36h.22l.19-.1a3.66,3.66,0,0,1,.17-.65l.23-.12c0,.07.05.14.07.21h0c0,.11,0,.21,0,.31h.16a.65.65,0,0,1-.06.21,1.34,1.34,0,0,0,0,.2,4.91,4.91,0,0,0,.77,0c0-.05,0-.14,0-.18a1.76,1.76,0,0,1,0-.23c0-.21.06-.45-.08-.63a6.52,6.52,0,0,0,0-.77h-.06a.19.19,0,0,0,0-.16l-.13.08a2,2,0,0,0-.25-.14l.06,0a.39.39,0,0,0,.36.06,1,1,0,0,1-.17-.1h.14c0-.08,0-.19.08-.23a.22.22,0,0,0,.06.19.34.34,0,0,0-.06.06,2.54,2.54,0,0,0,0,.73.47.47,0,0,0-.06.2,4.8,4.8,0,0,1,.73-.33,1.37,1.37,0,0,1,.13.2,1.47,1.47,0,0,1,.08.55c0,.1,0,.17.11.23l-.12.08a.56.56,0,0,0,0,.22l0,0,.07.11a.76.76,0,0,0,0-.26,1.12,1.12,0,0,0,.36-.09s.08.12.14.08a1.13,1.13,0,0,0,.1-.13h.11c.06.09.07.24-.06.26v.13c.1,0,.16-.14.26-.1s.21,0,.27.1,0,.32,0,.48h.18a.78.78,0,0,1,.06-.45.89.89,0,0,0,.28,0,.69.69,0,0,0-.32,0c.05-.12.19-.09.29-.11s-.09-.11-.05-.18c.13-.29,0-.63.09-.92.23-.11.47-.18.69-.29A.57.57,0,0,1,17,18c0,.09,0,.21.08.26,0-.28,0-.56,0-.84L17,17.36l.1-.05m.08.18a6.09,6.09,0,0,1,0,.74,1,1,0,0,0,.06-.48c0-.09.05-.21-.06-.26m4.41,2.32.07.14a.61.61,0,0,0,.3-.05l.13.12a1.48,1.48,0,0,0,0,.21,3.69,3.69,0,0,1,.47,0,.42.42,0,0,0-.28-.1l-.08-.05,0-.27c-.21,0-.42,0-.63,0M8.7,20v0A.73.73,0,0,1,9,20.2l-.21,0h.25a.78.78,0,0,1,0-.14h.16a.77.77,0,0,0,0,.15h.36a.27.27,0,0,1,0-.18,1,1,0,0,1-.3,0,2.93,2.93,0,0,0-.59,0M3.46,20s0,.15,0,.17.06-.16,0-.17m1.85.09c0,.08,0,.1.07.08s0-.11-.07-.08m.12,0c0,.07.1.09.15.07s-.1-.09-.15-.07m18.46,0,0,.1.34,0a.22.22,0,0,1,0-.08C24.09,20.08,24,20.09,23.89,20.09Z"/><path class="a" d="M12.27,18.37l.24-.06-.1.15A1.1,1.1,0,0,1,12.27,18.37Z"/></svg>