<?xml version="1.0" encoding="iso-8859-1"?>
<!-- Generator: Adobe Illustrator 26.0.1, SVG Export Plug-In . SVG Version: 6.00 Build 0)  -->
<svg version="1.1" id="Layer_1" xmlns="http://www.w3.org/2000/svg" xmlns:xlink="http://www.w3.org/1999/xlink" x="0px" y="0px"
	 viewBox="0 0 800 800" enable-background="new 0 0 800 800" xml:space="preserve">
<g id="_x23_000000ff_00000109013853908044665730000013960811988632887694_">
	<path fill="#010101" d="M189.683,500c0.621,0.483,1.369,0.7,2.148,0.731c-0.276,0.6-0.555,1.196-0.817,1.8
		c0.652,0.028,1.303,0.052,1.955,0.079c0.031-0.338,0.065-0.676,0.1-1.014c0.331,0.014,0.665,0.031,1,0.048
		c0.066,0.641,0.124,1.279,0.183,1.92c-1.048,0.024-2.093,0.045-3.141,0.065c-0.031,1.769-0.045,3.541,0.048,5.309
		c0.286-0.362,0.569-0.724,0.848-1.093c0.245-0.021,0.731-0.065,0.972-0.09c-0.193,1.289-1.241,2.106-1.896,3.144
		c0.159,1.048,0.855,2.058,0.462,3.141c-0.431,1.155,0.365,2.237,0.49,3.372c-0.293,0.914-1.007,1.7-0.948,2.71
		c-0.034,2.138,0.041,4.278,0,6.416c0.172,0.003,0.524,0.003,0.696,0.003c0.01,0.441,0.017,0.883,0.028,1.324
		c3.092,1.024,6.392,0.41,9.581,0.548c0.034-0.7,0.066-1.4,0.103-2.1c1.251,0.01,2.51,0.093,3.741,0.345
		c-0.321,1.007-0.614,2.055-1.255,2.917c-0.417,0.572-0.889,1.172-0.821,1.927c0.007,2.427-0.2,4.889,0.334,7.278
		c0.941-0.11,1.896-0.224,2.848-0.128c2.413,0.214,4.84,0.121,7.261,0.076c-0.262-0.583-0.538-1.162-0.807-1.741
		c2.282-0.459,4.613-0.276,6.919-0.29c6.861-0.062,13.725,0.134,20.582-0.121c0.834,0.052,1.582-0.334,2.3-0.717
		c1.314,0.81,2.861,0.917,4.368,1.007c-0.455,1.445-1.576,2.699-1.42,4.292c0.065,3.058-0.048,6.123,0.093,9.181
		c2.799-1.048,4.354-3.83,6.364-5.875c2-1.896,3.73-4.065,5.799-5.888c0.583-0.579,1.458-0.472,2.206-0.59
		c0.09,0.662,0.176,1.327,0.265,1.993c0.807-0.569,1.555-1.22,2.396-1.734c0.679-0.314,1.455-0.262,2.189-0.328
		c0.303,0.745,0.679,1.465,1.172,2.106c0.676-0.634,1.286-1.362,2.082-1.855c0.834-0.162,1.693-0.107,2.544-0.124
		c0.065,0.638,0.138,1.272,0.217,1.91c1.127-0.217,1.951-1.027,2.848-1.669c0.876-0.359,1.872-0.186,2.799-0.248
		c0.062,0.641,0.128,1.279,0.2,1.92c1.179-0.21,2.155-0.945,2.534-2.106c0.779,0.107,1.558,0.207,2.341,0.303
		c0.376,0.493,0.369,1.586,1.141,1.569c0.879-0.624,1.682-1.358,2.617-1.906c-0.021,0.248-0.062,0.745-0.083,0.993
		c0.51-0.283,1.014-0.596,1.582-0.769c0.452,0.514,0.838,1.083,1.234,1.638c1.189-0.924,2.493-2.4,4.161-1.713
		c0.424,0.696,0.734,1.455,1.072,2.196c0.762-0.648,1.462-1.403,2.341-1.903c0.572-0.134,1.169-0.121,1.758-0.148
		c0.621,0.676,1.072,2.017,2.217,1.689c0.9-0.238,1.607-0.9,2.344-1.441c0.817-0.114,1.634-0.217,2.458-0.31
		c0.065,0.769,0.134,1.538,0.217,2.306c1.062-0.469,1.834-1.334,2.696-2.079c0.762-0.055,1.514,0.114,2.262,0.228
		c0.062,0.586,0.121,1.176,0.19,1.765c1.389-0.097,2.475-0.921,3.182-2.082c0.969-0.1,1.944-0.197,2.917-0.328
		c0.014,0.683,0.028,1.365,0.052,2.048c1.472,0.134,2.424-0.979,3.52-1.734c0.827-0.172,1.686-0.103,2.531-0.11
		c0.159,1.093,0.365,2.175,0.59,3.258c1.238-1.086,2.344-2.434,3.965-2.968c0.6-0.269,1.162,0.266,1.724,0.427
		c0.014,0.924,0.031,1.844,0.055,2.768c0.431-0.231,0.862-0.462,1.296-0.693c-0.155-0.193-0.307-0.386-0.459-0.579
		c0.652-0.479,1.276-0.996,1.944-1.455c0.8-0.548,1.8-0.617,2.724-0.803c0.048,2.265-0.407,4.506-0.255,6.771
		c0.11,2.189,0.003,4.389,0.296,6.568c3.806-2.331,6.764-5.73,9.76-8.978c0.91-1.045,1.707-2.22,2.83-3.058
		c0.741-0.345,1.613-0.179,2.417-0.241c0.162,1.107,0.369,2.206,0.614,3.299c1.317-0.858,2.179-2.206,3.379-3.192
		c0.679-0.607,1.658-0.345,2.489-0.393c0.121,0.921,0.241,1.841,0.393,2.758c0.976-0.69,1.827-1.534,2.789-2.244
		c0.459-0.348,1.096-0.245,1.617-0.107c0.562,0.824,0.955,1.748,1.379,2.648c0.879-1.103,1.596-2.955,3.289-2.782
		c1.038-0.017,1.638,0.986,2.341,1.6c-0.283,0-0.845-0.003-1.127-0.003c0.172,0.145,0.524,0.434,0.696,0.583
		c0.9-0.803,1.638-1.827,2.693-2.427c0.831-0.121,1.672-0.031,2.51,0.007c0.083,0.814,0.159,1.624,0.238,2.441
		c1.045-1.148,2.355-2.927,4.13-2.282c1.12,0.145,1.4,1.4,1.917,2.217c0.889-0.669,1.631-1.507,2.272-2.413
		c0.938-0.01,1.875-0.01,2.82,0c0.307,0.659,0.627,1.31,0.938,1.969c0.665-0.645,1.269-1.396,2.1-1.841
		c0.952-0.183,2.182-0.169,2.741,0.776c0.593,0.59,0.286,1.462,0.3,2.193c1.338-1.155,2.368-3.279,4.385-3.155
		c1.331-0.165,1.458,1.476,1.913,2.368c0.958-1.134,2.141-2.755,3.841-2.299c0.9,0.517,1.324,1.562,1.834,2.424
		c0.696-0.69,1.351-1.441,2.162-2.003c0.845-0.469,1.81-0.659,2.713-0.989c-0.003,0.534-0.01,1.065-0.007,1.6
		c0.438,0.1,0.879,0.217,1.338,0.269c0.941-0.462,1.451-1.469,2.01-2.313c0.783,0.114,1.579,0.186,2.344,0.414
		c0.552,0.383,0.907,0.983,1.334,1.493c0.776-0.658,1.451-1.738,2.606-1.62c0.521-0.014,1.045,0.003,1.569,0.017
		c0.328,0.69,0.672,1.372,1.01,2.062c0.572-0.421,1.114-0.889,1.744-1.231c0.79-0.259,1.648-0.145,2.475-0.176
		c0.059,0.448,0.124,0.893,0.197,1.345c0.531,0.031,1.072,0.065,1.613,0.1c-0.714,0.821-1.058,1.848-0.972,2.937
		c1.603-0.921,2.417-2.675,3.868-3.768c0.696-0.6,1.669-0.5,2.524-0.586c0.052,0.393,0.107,0.786,0.169,1.182
		c0.155,0.003,0.469,0.014,0.627,0.017c-0.003,0.627-0.003,1.255,0.003,1.886c1.017-0.607,1.948-1.345,2.762-2.21
		c0.855-0.979,2.279-0.758,3.43-0.603c0.003,1.431,0.003,2.865,0.038,4.296c1.482-1.062,2.689-2.424,3.906-3.772
		c0.603-0.821,1.689-0.717,2.589-0.848c0.028,1.807,0,3.617,0.107,5.42c1.744-0.883,2.899-2.479,4.085-3.968
		c0.741-0.965,1.982-1.093,3.106-1.148c0.097,2.334-0.141,4.668-0.038,7.002c0.01,0.758,0.386,1.431,0.696,2.103
		c1.934-1.751,3.375-3.968,5.361-5.671c2.289-2.051,4.051-4.592,6.219-6.754c-0.162,0.396-0.321,0.789-0.476,1.186
		c0.745-0.3,1.486-0.617,2.231-0.927c0.172,0.721,0.155,1.548,0.676,2.131c0.948-0.721,1.903-1.686,3.22-1.448
		c1.307-0.172,1.92,1.158,2.631,2c1.151-0.969,2.051-2.955,3.806-2.62c1.069,0.807,1.841,1.934,2.765,2.896
		c0.827-0.869,1.548-1.896,2.589-2.531c1.007,0.069,2.027,0.321,2.93,0.789c0.721,1.238,0.393,2.765,0.521,4.134
		c1.279-1.617,2.875-2.951,4.058-4.651c0.503-1.007,1.755-0.562,2.662-0.672c0.686,1.32,1.217,2.724,1.289,4.227
		c1.269-1.307,2.741-2.479,3.572-4.144c0.889,0.307,1.793,0.583,2.713,0.8c0.852,1.555,0.907,3.327,0.831,5.058
		c1.593-1.655,3.051-3.43,4.547-5.171c1.034,0.3,2.848-0.117,2.968,1.372c-0.007,1.472-0.596,2.855-0.993,4.251
		c2.02-1.417,3.486-3.43,5.237-5.133c0.938-0.031,1.865-0.117,2.803-0.196c-0.266,1.438-0.714,2.841-0.845,4.299
		c1.817-1.014,2.803-2.879,4.144-4.375c0.896-1.027,2.406-0.969,3.555-0.448c0.065,1.448,0.248,2.886,0.338,4.334
		c1.21-1.193,2.341-2.469,3.596-3.613c0.714-0.734,1.813-0.496,2.737-0.576c0.238,0.662,0.503,1.317,0.769,1.972
		c-0.724,0.931-1.021,2.072-1.069,3.237c1.258-1.079,2.648-2.038,3.679-3.358c0.796-0.931,1.476-1.996,2.475-2.734
		c0.807-0.241,1.665-0.072,2.496-0.052c0.007,0.948,0.138,1.989-0.476,2.799c-0.596,0.831-0.879,1.813-0.883,2.83
		c2.344-0.721,2.975-3.437,4.861-4.751c0.745-0.183,1.524-0.065,2.286-0.059c0.565,1.879,0.4,3.896-0.352,5.695
		c1.889-0.396,2.596-2.355,3.82-3.613c0.893-1.138,2.237-2.169,3.772-1.875c0.548,0.59,1.058,1.265,1.293,2.048
		c-0.427,1.276-0.965,2.52-1.162,3.865c1.589-1.727,3.251-3.386,4.851-5.106c0.576-0.659,1.451-1.007,2.331-0.889
		c0.621,0.524,1.179,1.282,1.227,2.124c-0.21,0.907-0.714,1.727-0.838,2.658c-0.172,1.227,0.1,2.455,0.228,3.672
		c1.576-2.4,4.213-3.83,5.864-6.175c0.976-1.407,2.286-2.531,3.368-3.851c0.652-0.745,1.289-1.538,2.155-2.044
		c0.841-0.241,1.734-0.169,2.606-0.203c-0.062,0.852,0.083,1.765-0.231,2.579c-0.576,0.679-1.317,1.189-2.013,1.727
		c0.252,0.365,0.51,0.731,0.779,1.096c1.245-1.782,2.682-3.441,4.337-4.858c0.924-0.945,2.868-0.696,3.275,0.648
		c0.214,0.741-0.369,1.358-0.641,1.989c-0.396,0.641-0.379,1.414-0.458,2.134c1.724-0.924,3.003-2.424,4.251-3.889
		c0.765-0.958,2.048-1.479,3.258-1.203c1.048,0.517,1.151,1.989,0.407,2.81c-0.569,0.659-0.645,1.507-0.617,2.341
		c1.717-1.576,2.851-3.713,4.758-5.092c1.196-0.569,2.627-0.448,3.81,0.114c-0.245,0.021-0.734,0.059-0.979,0.079
		c0.159,0.441,0.721,0.886,0.396,1.376c-0.572,1.069-0.834,2.255-0.772,3.465c1.389-0.938,2.544-2.151,3.637-3.413
		c1.148-1.379,3.013-1.758,4.706-1.972c0.055,1.258-0.031,2.537-0.586,3.689c-0.534,1.11-0.131,2.348,0.007,3.503
		c2.024-2.234,3.665-4.909,6.285-6.533c1.076-0.748,2.437-0.527,3.672-0.552c-0.207,0.469-0.407,0.941-0.614,1.41
		c0.172,0.31,0.345,0.624,0.528,0.941c-0.586,0.596-1.258,1.151-1.645,1.903c-0.21,1.048-0.076,2.127-0.024,3.186
		c1.551-1.179,2.703-2.775,4.182-4.034c0.803-0.676,1.389-1.569,2.189-2.248c0.852-0.3,1.769-0.365,2.661-0.51
		c0.272,0.989,0.103,2.01-0.048,3.006c-0.403,0.2-0.8,0.403-1.186,0.61c0.145,0.696,0.303,1.389,0.469,2.082
		c1.776-2.148,3.82-4.047,5.761-6.044c0.938-1.069,2.493-0.548,3.73-0.586c-0.162,1.124-0.072,2.472-1.107,3.21
		c-0.924,0.686-1.338,1.717-1.248,2.851c0.29,0.096,0.583,0.196,0.886,0.297c1.248-1.183,2.213-2.717,3.796-3.499
		c-0.124-0.141-0.241-0.286-0.352-0.427c1.469-1.162,3.068-2.413,5.068-2.224c-0.034,0.786,0.038,1.593-0.155,2.362
		c-0.348,0.679-0.893,1.238-1.189,1.941c-0.131,0.724-0.069,1.462-0.055,2.196c2.348-0.955,3.23-3.551,5.092-5.099
		c0.893-0.986,2.351-0.552,3.527-0.638c-0.031,1.186-0.159,2.382-0.676,3.465c-0.614,1.217-0.372,2.596-0.172,3.882
		c2.079-2.4,4.865-4.216,6.34-7.102c1.158-0.021,2.32,0.021,3.482,0.114c-0.028,0.752,0.031,1.52-0.141,2.262
		c-0.452,0.703-1.093,1.269-1.51,1.993c-0.172,0.786-0.121,1.593-0.131,2.389c3.03-1.617,4.768-4.761,7.474-6.799
		c-0.038,0.2-0.117,0.603-0.155,0.803c0.824-0.548,1.776-0.858,2.779-0.752c-0.496,2.075-1.748,3.937-1.855,6.102
		c2.241-1.407,3.296-3.951,5.261-5.637c1.062-0.934,2.572-0.69,3.879-0.717c-0.2,0.593-0.393,1.186-0.596,1.772
		c0.131,0.283,0.272,0.565,0.421,0.848c-0.3,0.396-0.624,0.772-0.838,1.217c0.093,0.472,0.266,0.927,0.421,1.389
		c0.879-1.014,1.934-1.872,2.713-2.972c0.855-1.534,2.879-1.255,4.299-1.92c-0.117,2.086,0.166,4.151,0.431,6.209
		c0.11,0.2,0.224,0.4,0.348,0.6c0.359-0.5,0.707-1.024,1.162-1.455c0.596-0.176,1.224-0.231,1.851-0.324
		c-0.217,0.341-0.427,0.683-0.627,1.024c0.989-0.293,1.951-0.776,3.003-0.852c0.7,0.165,1.283,0.631,1.907,0.983
		c-1.779,0.059-3.558,0.034-5.33,0.052c0.024,1.003,0.065,2.01,0.134,3.013c5.192-0.534,10.422-0.169,15.635-0.259
		c0.052-1.031,0.103-2.058,0.145-3.089c-3.127-0.138-6.25-0.007-9.353,0.386c0.152-0.362,0.307-0.727,0.472-1.089
		c3.258-0.048,6.53,0.121,9.777-0.259c-0.166,2.062-0.252,4.13-0.134,6.199c1.531,0.483,3.068,0.948,4.592,1.469
		c2.62,1.086,4.454,3.375,6.106,5.589c0.976,1.286,1.445,3.299,0.265,4.609c-3.275,3.551-6.292,7.392-10.081,10.425
		c-2.992,1.979-5.678,4.382-8.709,6.299c-2.844,2.072-5.968,3.71-8.995,5.485c-2.696,1.669-5.675,2.793-8.481,4.247
		c-1.875,0.993-3.989,1.279-5.985,1.92c-1.534,0.359-3.127,0.245-4.685,0.217c-1.862-0.017-3.61-1.055-5.489-0.69
		c-0.955,0.09-1.872,0.738-2.837,0.417c-2.282-0.7-4.772-0.655-7.05,0.034c-0.948,0.376-1.831-0.286-2.693-0.586
		c0.003,0.207,0.007,0.621,0.01,0.827c-1.913-0.041-3.82,0.041-5.727-0.021c-1.744-0.052-3.403-0.721-5.154-0.693
		c-1.045-0.065-2.038,0.303-3.061,0.4c-1.162-0.152-2.306-0.462-3.482-0.417c-3.975,0.041-7.95,0.028-11.922,0.007
		c0.01,0.183,0.034,0.545,0.045,0.727c-0.827-0.003-1.648-0.003-2.465,0c0.014-0.183,0.038-0.545,0.048-0.727
		c-8.453,0.034-16.907,0.014-25.361,0.014c-9.498,0.124-19.007-0.176-28.501,0.124c-7.847-0.259-15.707-0.055-23.557-0.121
		c-35.052,0.003-70.103-0.007-105.155,0.003c-3.217,0.19-6.433-0.076-9.65-0.007c-31.721,0-63.443,0.014-95.164-0.003
		c-3.099-0.338-6.192,0.121-9.298,0.014c-45.739-0.017-91.482,0.003-137.221-0.01c-3.21,0.2-6.433,0.297-9.639-0.003
		c-8.857,0-17.714,0.031-26.567-0.014c-1.531-0.069-2.93,0.69-4.447,0.721c-1.448,0.052-2.899-0.014-4.351-0.003
		c0.01-0.179,0.031-0.534,0.041-0.71c-3.186-0.245-6.461,0.858-9.553-0.307c-2.127-1.448-4.22-2.996-6.602-4.006
		c-1.42-0.586-2.631-1.555-3.972-2.289c-1.217-0.727-2.603-1.224-3.644-2.217c-1.069-1.234-1.193-2.944-1.744-4.42
		c-0.703-2.027-1.327-4.106-2.272-6.03c-0.976-0.972-2.827-1.083-3.299-2.579c-0.3-1.648-0.424-3.541,0.614-4.968
		c0.427-0.621,0.693-1.341,0.652-2.103c-0.021-4.72-0.034-9.443-0.007-14.163c0.031-1.834-0.255-3.668-0.1-5.499
		c0.279-0.007,0.841-0.021,1.12-0.028c0.003,4.675,0.003,9.35-0.01,14.025c2.641,0.186,5.289,0.107,7.936,0.117l-0.007,0.355
		c-2.324-0.003-4.651-0.017-6.974,0.007c-0.245,2.172,1.007,4.078,1.279,6.178c1.334,0.014,2.672-0.031,4.006,0.007
		c1.81,0.003,3.499,1.1,5.327,0.762c0.672-0.103,0.731-0.927,0.824-1.462c0.124-1.944-0.014-3.896,0.048-5.844
		c0.248,0,0.741-0.003,0.989-0.003c-0.159,1.089-0.286,2.186-0.359,3.286c0.907,0.138,1.81,0.324,2.662,0.672
		c-0.883,0.121-1.769,0.196-2.655,0.265c0.041,0.741,0.083,1.482,0.134,2.224c1.403,0.107,2.924-0.117,4.178,0.659
		c0.7,0.4,1.507,0.493,2.289,0.586c-0.124-1.403-0.293-2.813-0.124-4.223c1.038,0.417,2.086,0.907,3.217,0.962
		c1.014-0.083,1.927-0.572,2.855-0.948c0.083,1.324-0.186,2.637-0.193,3.958c1.003,0.393,2.096,0.324,3.144,0.193
		c-0.007-2.086,0.193-4.161,0.441-6.23c-1.096-0.021-2.193-0.031-3.286-0.045c-0.048,0.321-0.1,0.645-0.148,0.969
		c-0.121,0-0.359,0.003-0.479,0.003c-0.369-0.7-0.765-1.382-1.203-2.041c1.641,0.076,3.282,0.076,4.92,0.045
		c0.224-1.61,0.883-3.151,0.838-4.796c-0.031-1.576,0.017-3.158,0.441-4.685c1.638,1.079,3.889,2.382,3.713,4.647
		c0.014,1.844-0.045,3.689-0.01,5.533c3.461-0.031,6.923-0.034,10.388-0.007c-0.041-2.072-0.045-4.147,0.197-6.209
		c0.014-1.193,0.176-2.493-0.428-3.575c-0.986-1.431-2.855-1.541-4.285-2.289c-1.493-0.621-2.675-1.838-4.251-2.268
		c-1.541-0.396-2.855-1.317-4.296-1.948c-2.92-1.255-5.564-3.099-8.578-4.151c-0.983-0.317-1.91-0.8-2.91-1.048
		c-0.824-0.024-1.627,0.197-2.424,0.352c0.017-1.096,0.028-2.196,0.038-3.292c2.017,0.014,4.02-0.234,6.023-0.417
		c0-0.172-0.007-0.521-0.007-0.696c1.576-0.065,3.179,0.041,4.613,0.765c-0.059-0.348-0.114-0.693-0.172-1.038
		c1.941,0.117,3.785-0.538,5.682-0.803c1.651-0.231,3.192-1,4.885-0.962c1.996,0.017,3.765-1.117,5.757-1.152
		c0.079-0.414,0.159-0.827,0.238-1.245c1.145,0.1,2.293,0.207,3.441,0.269c-0.007,0.7-0.041,1.427,0.262,2.082
		c0.841,2.034,1.138,4.247,2.01,6.275c0.383,0.817,0.348,1.731,0.303,2.61c-0.672-1.203-0.976-2.555-1.41-3.851
		c-0.176,0.803-0.331,1.613-0.503,2.417c-0.069-0.855-0.114-1.713-0.155-2.572c-0.159,0.003-0.469,0.003-0.627,0.003
		c-0.007,2.765-0.017,5.53-0.024,8.295c-0.052,1.186,0.403,2.293,0.821,3.379c0.217,0.017,0.648,0.052,0.865,0.069
		c0.034-0.983,0.076-1.965,0.172-2.941c0.176,0.934,0.283,1.882,0.4,2.827c0.652,0.041,1.307,0.083,1.962,0.121
		c-0.007-1.586-0.51-3.086-0.993-4.575c-0.293-0.586,0.4-0.9,0.696-1.296c0.128-1.186,0.369-2.365,0.865-3.458
		c-0.61-0.458-1.227-0.914-1.765-1.458c0.372-0.738,1.165-1.362,2.031-1.2c1.755,0.241,3.53,0.3,5.299,0.234v0.348
		c-1.548-0.01-3.103-0.034-4.644,0.138c1.072,0.248,2.172,0.362,3.272,0.362c4.599,0.014,9.195,0.09,13.787,0.186
		c0-0.169,0-0.507,0-0.676c-3.968-0.021-7.94-0.021-11.908,0.01c0.186-2.655,0.517-5.302,0.541-7.971
		c-0.003-1.403,0.679-2.696,0.693-4.096c0.059-2.272-0.145-4.554,0.107-6.819c0.217-1.741,0.128-3.52,0.603-5.223
		c0.269-1.027,0.338-2.089,0.4-3.144c2.796-0.01,5.592-0.028,8.388,0.021c0.079,0.269,0.245,0.8,0.324,1.069
		c0.527-0.248,1.055-0.507,1.582-0.755c-0.031,0.548-0.062,1.096-0.093,1.645c-0.545,0.252-1.086,0.507-1.634,0.752
		c-0.031,0.117-0.093,0.352-0.124,0.472c0.197,0.017,0.593,0.052,0.79,0.072c-0.007,1.334-0.014,2.668-0.007,4.003
		c0.417-0.579,0.841-1.158,1.258-1.738c0.234,0.459,0.49,0.91,0.686,1.389c-0.459,0.638-1.089,1.134-1.496,1.81
		c-0.217,0.983-0.179,2.003-0.121,3.003c0.072,1.352,0.91,2.555,0.817,3.927c-0.076,1.61-0.062,3.258,0.517,4.785
		c-1.007,2.082,0.472,4.241,0.624,6.354c1.3,0.076,2.603,0.093,3.906,0.086c0.086-4.075-0.141-8.157,0.152-12.225
		c0.038-1.41-0.134-2.82-0.093-4.234c1.476-0.1,2.955-0.117,4.437-0.103c2.4,0.028,4.834-0.176,7.202,0.359
		c-0.617,3.989-0.165,8.043-0.334,12.06c0.1,1.155-0.334,2.62,0.658,3.489c0.234,0.248,0.476,0.493,0.721,0.734
		c0.793-1.465,0.896-3.144,1.269-4.737c0.621-2.169,0.883-4.447,1.865-6.499c0.145,2.455-1.02,4.689-1.338,7.078
		c-0.124,1.331-1.017,2.81-0.028,4.013c0.396-0.265,0.796-0.527,1.196-0.789c-0.01,0.228-0.034,0.686-0.045,0.914
		c0.403-0.028,0.807-0.055,1.21-0.086c-0.055-1.882-0.017-3.785,0.565-5.595c0.29-3.161,0.407-6.344,0.596-9.512
		c0.821-2.851,0.641-5.851,0.945-8.778c-1.469,2.234-1.069,5.013-1.986,7.433c-0.479,1.42-0.465,2.93-0.472,4.409
		c-0.162,0-0.493-0.003-0.658-0.007c-0.021-1.382-0.141-2.813,0.362-4.134c1.01-2.868,1.189-5.94,2.065-8.843
		c0.155-0.903-0.328-1.776-0.483-2.655c0.197-0.038,0.593-0.114,0.793-0.152C189.689,500.431,189.686,500.145,189.683,500
		 M156.703,502.606c-0.045,0.386-0.093,0.772-0.138,1.155c-0.152,0.003-0.455,0.01-0.607,0.014
		c-0.034,1.703-0.221,3.399-0.348,5.099c0.955-0.086,1.882-0.341,2.73-0.793c-0.059,0.179-0.169,0.534-0.228,0.71
		c0.607-0.014,1.21-0.031,1.817-0.052c0.255-0.579,0.514-1.162,0.776-1.741c0.09,0.621,0.176,1.238,0.255,1.858
		c0.938-0.172,2.382,0.248,2.803-0.886c0.286-1.424,0.01-2.882-0.1-4.313c-0.359-0.041-0.714-0.083-1.069-0.124
		c0.028-0.324,0.055-0.648,0.086-0.972C160.688,502.548,158.696,502.548,156.703,502.606 M163.957,508.464
		C164.129,508.64,164.129,508.64,163.957,508.464 M157.489,509.888c0.738,0.669,1.507,1.386,2.479,1.686
		c1.127-0.269,1.969-1.162,2.927-1.762C161.092,509.788,159.289,509.767,157.489,509.888 M162.347,510.819
		c-0.524,0.548-0.921,1.2-1.338,1.831c0.965,0.541,1.907,1.134,2.841,1.731c0.014-1.196,0.014-2.393-0.01-3.585
		C163.34,510.791,162.843,510.756,162.347,510.819 M155.979,510.667c-0.041,1.131-0.045,2.258-0.028,3.389
		c0.562-0.262,1.117-0.534,1.676-0.81c0.031,0.61,0.062,1.22,0.1,1.834c0.914-0.114,1.827-0.259,2.72-0.5
		c0.514,0.141,1.027,0.272,1.545,0.396c-0.414-0.721-0.893-1.576-1.782-1.751c-0.714-0.1-1.438,0.007-2.155,0.038
		c0.262-0.355,0.521-0.71,0.779-1.069C157.923,511.608,156.982,511.07,155.979,510.667 M154.731,512.835
		c0.224,0.024,0.672,0.069,0.896,0.093c-0.079-0.638-0.155-1.276-0.234-1.91C155.158,511.618,154.941,512.225,154.731,512.835
		 M164.157,511.863c0.052,0.769,0.11,1.538,0.197,2.303c0.324-0.71,0.538-1.465,0.696-2.227
		C164.825,511.918,164.381,511.884,164.157,511.863 M156.527,516.035c1.172,0.676,2.324,1.431,3.613,1.869
		c1.269-0.069,2.379-0.896,3.206-1.813C161.075,515.949,158.799,516.007,156.527,516.035 M189.758,516.362
		c0.09,1.651-0.203,3.272-0.621,4.861c-0.203,2.296-0.424,4.606-0.324,6.912l0.234-0.128c0.29-0.155,0.583-0.31,0.879-0.459
		c-0.052-1.021-0.079-2.048,0.014-3.068c0.224-2.703,0.107-5.416,0.124-8.126L189.758,516.362 M155.82,516.876
		c-0.076,1.248-0.19,2.493-0.231,3.744c1.234-0.334,2.441-0.821,3.465-1.6C158.23,517.983,156.993,517.421,155.82,516.876
		 M161.112,518.507c0.727,1.038,1.989,1.52,3.044,2.155c0.055-1.255,0.059-2.51,0.017-3.765
		C163.067,517.245,161.974,517.71,161.112,518.507 M156.462,521.337c1.965-0.148,3.941-0.121,5.906-0.259
		c-0.714-0.69-1.486-1.693-2.593-1.572C158.52,519.775,157.444,520.541,156.462,521.337 M156.375,522.706
		c0.938,0.648,2.038,0.993,3.168,1.079c0.079,0.203,0.241,0.607,0.324,0.807c1.131-0.51,2.224-1.117,3.182-1.91
		C160.833,522.499,158.592,522.464,156.375,522.706 M160.675,524.885c1.238,1.031,2.648,1.831,4.213,2.241
		c0.024-1.334,0.017-2.672-0.028-4.006C163.426,523.613,162.061,524.278,160.675,524.885 M136.031,523.692
		C136.207,523.868,136.207,523.868,136.031,523.692 M140.127,523.464c-0.097,4.568-0.066,9.143-0.024,13.711
		c0.496-1.489,1.079-2.996,1.024-4.596c-0.014-2.189,0.117-4.382-0.01-6.568C141.123,525.061,140.575,524.257,140.127,523.464
		 M155.041,523.482c-0.107,1.303-0.145,2.613-0.117,3.923c0.159-0.021,0.472-0.065,0.631-0.086c1.048-0.772,2.138-1.486,3.21-2.224
		C157.534,524.533,156.286,524.006,155.041,523.482 M132.594,524.288c-0.217,0.279-0.431,0.559-0.645,0.838
		c1.134-0.324,2.3-0.517,3.454-0.748C134.469,524.309,133.532,524.292,132.594,524.288 M129.395,524.633
		c0,0.176-0.003,0.521-0.003,0.696c0.686,0,1.376,0,2.062,0c0-0.176,0-0.528,0-0.703
		C130.763,524.626,130.081,524.63,129.395,524.633 M137.241,525.057c-1.869,0.41-3.813,0.276-5.671,0.745
		c-3.003,0.917-6.195,0.631-9.264,1.148c-1.975,0.486-4.013,0.624-6.03,0.858c0.021,0.196,0.062,0.59,0.083,0.786
		c3.492,1.5,6.906,3.189,10.215,5.054c1.772,0.996,3.816,1.348,5.595,2.331c2.213,1.227,4.513,2.303,6.906,3.127
		c0.034-1.989,0.186-3.979,0.041-5.968c-0.148-2.593,0.979-5.427-0.407-7.833C138.407,524.719,137.745,524.981,137.241,525.057
		 M127.161,525.364c0.045,0.496,0.265,0.583,0.662,0.262C127.774,525.129,127.554,525.043,127.161,525.364 M124.258,525.691
		c-0.459,0.238-0.465,0.469-0.021,0.7C124.692,526.153,124.699,525.922,124.258,525.691 M158.851,525.567
		c0.372,1.01,1.455,1.12,2.382,1.193C160.502,526.247,159.713,525.812,158.851,525.567 M120.007,526.415
		c-0.152,0.49,0.672,0.665,0.834,0.228C120.993,526.153,120.165,525.978,120.007,526.415 M157.141,526.688
		c-0.238,0.272-0.472,0.545-0.707,0.817c0.069,0.314,0.138,0.631,0.21,0.945c0.359-0.359,0.724-0.71,1.086-1.065
		C157.534,527.153,157.337,526.919,157.141,526.688 M162.016,527.305c0.576,0.558,1.238,1.02,2.013,1.248
		C163.719,527.67,162.84,527.453,162.016,527.305 M203.576,527.498c-0.507,0.341,0.052,1.224,0.559,0.82
		C204.638,527.974,204.08,527.095,203.576,527.498 M142.926,527.829C143.102,528.005,143.102,528.005,142.926,527.829
		 M189.048,528.008C188.941,529.125,190.183,527.743,189.048,528.008 M165.67,528.894c1.196,1.086,2.948,0.514,4.409,0.641
		c-0.003-0.186-0.007-0.562-0.01-0.752C168.601,528.753,167.128,528.718,165.67,528.894 M172.479,528.784
		c-0.003,0.197-0.007,0.583-0.01,0.779c2.3,0.031,4.603,0.172,6.902,0.09c0.572,0.069,0.979-0.334,1.289-0.762
		C177.94,528.649,175.206,528.798,172.479,528.784 M620.356,534.038C619.818,535.065,621.497,534.09,620.356,534.038
		 M146.374,535.069C146.55,535.245,146.55,535.245,146.374,535.069 M147.064,535.069
		C147.239,535.245,147.239,535.245,147.064,535.069 M146.184,535.662c0.331,0.534,0.662,1.072,1.003,1.603
		c0.055-0.538,0.11-1.072,0.165-1.607C147.06,535.662,146.477,535.662,146.184,535.662 M570.314,538.313
		c0.331-0.017,0.989-0.055,1.317-0.076c-0.445,0.534-0.893,1.069-1.327,1.607c0.217-0.031,0.648-0.097,0.865-0.128
		c0.734-1.434,2.138-2.52,2.382-4.185C572.296,536.207,570.817,536.869,570.314,538.313 M568.704,536.103
		C568.873,536.279,568.873,536.279,568.704,536.103 M594.905,536.1C595.074,536.276,595.074,536.276,594.905,536.1 M618.477,536.145
		c-0.638,0.903-1.427,1.682-2.306,2.344c0.4,0.376,0.8,0.758,1.203,1.148l0.207,0.203c0.831-1.162,1.72-2.358,1.838-3.837
		C619.183,536.038,618.711,536.11,618.477,536.145 M624.258,538.644c0.462,0.141,0.938,0.283,1.417,0.424
		c-0.045-0.441-0.072-0.879-0.103-1.317c0.665-0.534,1.265-1.145,1.789-1.82C626.013,536.42,624.875,537.337,624.258,538.644
		 M593.182,536.793C593.351,536.969,593.351,536.969,593.182,536.793 M602.145,536.793
		C602.314,536.969,602.314,536.969,602.145,536.793 M603.473,536.724c-0.465,0.238-0.472,0.469-0.021,0.7
		C603.904,537.186,603.911,536.955,603.473,536.724 M620.418,536.789C620.587,536.965,620.587,536.965,620.418,536.789
		 M567.325,537.137C567.494,537.313,567.494,537.313,567.325,537.137 M592.492,537.137
		C592.661,537.313,592.661,537.313,592.492,537.137 M593.871,537.134C594.04,537.31,594.04,537.31,593.871,537.134 M601.394,537.141
		C600.853,538.165,602.538,537.196,601.394,537.141 M626.906,537.141C626.365,538.168,628.047,537.196,626.906,537.141
		 M140.134,537.665c-0.438,0.159-0.262,0.983,0.228,0.831C140.796,538.334,140.62,537.51,140.134,537.665 M462.177,537.765
		C462.225,538.913,463.201,537.231,462.177,537.765 M563.498,538.992c0.283,0.255,0.572,0.51,0.865,0.765
		c0.19-0.748,0.403-1.489,0.634-2.231C564.491,538.013,563.998,538.506,563.498,538.992 M567.283,538.01
		c-0.41,0.283-0.09,1.141,0.424,0.969C568.083,538.699,567.776,537.827,567.283,538.01 M592.496,537.761
		C592.537,538.913,593.52,537.234,592.496,537.761 M602.097,537.875c-0.624,0.148-0.431,1.231,0.21,1.127
		C602.904,538.858,602.704,537.786,602.097,537.875 M602.828,537.748C602.852,538.899,603.859,537.237,602.828,537.748
		 M610.078,537.765C610.13,538.913,611.095,537.227,610.078,537.765 M620.39,537.841c-0.514,0.341,0.045,1.224,0.559,0.82
		C621.445,538.32,620.89,537.434,620.39,537.841 M628.295,537.92c-0.331,0.393-0.245,0.614,0.259,0.662
		C628.871,538.189,628.785,537.968,628.295,537.92 M600.822,538.12c-0.155,0.479,0.01,0.648,0.5,0.503
		C601.466,538.137,601.297,537.972,600.822,538.12 M611.075,538.134c-0.186,0.562,0.003,0.755,0.572,0.576
		C611.819,538.148,611.63,537.958,611.075,538.134 M471.826,538.513C471.995,538.689,471.995,538.689,471.826,538.513
		 M591.347,538.906c0.31,0.424,0.614,0.852,0.927,1.279c0.476-0.486,0.948-0.983,1.431-1.469
		C592.927,538.868,592.134,538.927,591.347,538.906 M609.361,538.41c-0.076,0.1-0.224,0.293-0.3,0.393
		C609.299,539.892,610.506,538.244,609.361,538.41 M635.815,538.237c0.017,0.765,0.169,1.534,0.741,2.096
		C636.521,539.565,636.37,538.799,635.815,538.237 M272.925,541.426c1.01-0.631,1.572-1.696,1.941-2.796
		C273.945,539.347,273.338,540.351,272.925,541.426 M466.321,538.585c-0.041,0.279-0.128,0.831-0.169,1.107
		c0.672,0.121,1.341,0.238,2.02,0.334C467.693,539.382,467.065,538.882,466.321,538.585 M468.034,538.861
		C468.203,539.037,468.203,539.037,468.034,538.861 M476.219,538.772c-0.045,1.555-0.11,3.127,0.207,4.661
		c0.2-1.548,0.159-3.106,0.138-4.661H476.219 M569.769,538.799C569.817,539.947,570.786,538.265,569.769,538.799 M576.433,543.36
		c2.258-0.434,4.461-2.331,4.692-4.699C579.343,539.985,577.754,541.574,576.433,543.36 M583.104,543.388
		c0.886-0.138,1.841-0.128,2.644-0.583c1.327-0.979,2.465-2.503,2.055-4.241C586.062,539.999,584.704,541.812,583.104,543.388
		 M591.347,543.309c0.879-0.034,1.772-0.028,2.651-0.186c0.486-0.131,1.165-0.169,1.282-0.786c0.369-1.148,0.224-2.386,0.269-3.575
		C593.957,540.095,592.768,541.809,591.347,543.309 M623.545,538.585c-0.055,0.3-0.169,0.896-0.224,1.193
		c0.665,0.017,1.331,0.017,2.007,0.003C624.744,539.361,624.151,538.961,623.545,538.585 M655.507,543.378
		c1.672,0.072,3.296-0.783,3.996-2.341c0.176-0.769,0.114-1.572,0.134-2.355C657.976,539.971,656.545,541.54,655.507,543.378
		 M662.764,543.281c1.603,0.034,3.22,0,4.799-0.345c0.007-1.448,0.003-2.899-0.076-4.347
		C665.602,539.809,663.981,541.388,662.764,543.281 M140.479,539.172c-0.179,0.562,0.01,0.752,0.572,0.572
		C141.23,539.182,141.037,538.992,140.479,539.172 M462.139,539.172c-0.183,0.562,0.007,0.752,0.572,0.572
		C462.887,539.182,462.694,538.992,462.139,539.172 M482.762,539.116c-0.003,1.262-0.003,2.524,0,3.785c0.176,0,0.521,0,0.696,0
		c0-1.262,0-2.524,0-3.785C483.283,539.116,482.938,539.116,482.762,539.116 M563.367,543.067c1.782-0.586,3.02-2.172,3.286-4.013
		C565.318,540.175,564.267,541.581,563.367,543.067 M569.407,543.195c1.462-0.203,2.758-0.917,4.034-1.62
		c-0.014-0.869-0.028-1.738-0.045-2.606C571.948,540.258,570.486,541.568,569.407,543.195 M599.649,539.065
		c0.272,0.569,0.541,1.145,0.8,1.724c-0.455-0.041-0.903-0.079-1.348-0.117c0.3,0.207,0.607,0.414,0.921,0.621
		c0.631-0.662,1.272-1.317,1.941-1.948C601.149,539.775,600.328,539.689,599.649,539.065 M609.203,539.985
		c-0.114-0.117-0.341-0.345-0.458-0.459c-0.424,0.538-0.852,1.072-1.272,1.607c0.138,0.228,0.41,0.683,0.548,0.91
		c1.041-0.869,1.989-1.851,2.779-2.958C610.254,539.371,609.727,539.675,609.203,539.985 M615.057,539.261
		c0.028,0.362,0.062,0.727,0.103,1.089c0.179-0.031,0.541-0.096,0.721-0.128c-0.376,0.703-0.738,1.414-1.069,2.134
		c0.879-0.883,1.703-1.817,2.562-2.72C616.601,539.485,615.832,539.347,615.057,539.261 M615.725,543.271
		c1.248-0.021,2.779,0.148,3.634-0.979c0.938-0.814,0.548-2.131,0.517-3.203C618.342,540.326,616.963,541.743,615.725,543.271
		 M623.969,543.309c0.979-0.076,2.162,0.066,2.83-0.827c1.089-0.848,0.717-2.348,0.752-3.541
		C626.075,540.116,624.289,541.292,623.969,543.309 M292.552,539.547C292.724,539.723,292.724,539.723,292.552,539.547
		 M413.907,539.551C414.079,539.727,414.079,539.727,413.907,539.551 M547.622,539.644c-0.328,0.393-0.241,0.614,0.262,0.662
		C548.201,539.909,548.115,539.689,547.622,539.644 M561.016,542.392c0.803-0.369,1.634-0.762,2.251-1.424
		c0.134-0.538,0.162-1.093,0.231-1.638C562.326,540.026,561.605,541.206,561.016,542.392 M600.287,543.098
		c1.131,0.017,2.258,0.079,3.392,0.083c0.093-1.283,0.11-2.568,0.076-3.851C602.528,540.52,601.404,541.805,600.287,543.098
		 M204.235,539.902c-0.007,1.193-0.034,2.434,0.417,3.565c0.341,0.541,0.872,0.927,1.331,1.369c1.465-0.603,3.065-0.572,4.603-0.852
		c0.883-0.072,0.989-1.107,1.379-1.724c0.934,0.459,1.889,1.052,2.972,0.965c1.382-0.072,2.679-0.69,4.078-0.641
		c-0.703-1.007-1.448-2.065-2.551-2.662c-2.331-0.331-4.699-0.041-7.047-0.11c-0.034,0.831-0.072,1.662-0.11,2.496
		c-0.724-0.159-1.445-0.328-2.165-0.5c0.359-0.286,0.721-0.572,1.086-0.855c0.052-0.379,0.1-0.758,0.152-1.138
		C206.996,539.782,205.614,539.792,204.235,539.902 M238.766,539.896C238.942,540.068,238.942,540.068,238.766,539.896
		 M239.397,539.899C238.862,540.926,240.545,539.951,239.397,539.899 M241.476,539.989c-0.324,0.393-0.238,0.614,0.262,0.662
		C242.058,540.258,241.972,540.033,241.476,539.989 M297.034,539.892C297.206,540.068,297.206,540.068,297.034,539.892
		 M473.206,539.896C473.374,540.071,473.374,540.071,473.206,539.896 M470.823,543.895c0.803-0.01,1.665,0.176,2.441-0.114
		c1.365-0.924,2.027-2.537,2.372-4.092C473.795,540.792,472.506,542.578,470.823,543.895 M511.822,539.833
		C511.87,540.982,512.846,539.299,511.822,539.833 M519.231,539.547c-0.172,0.983-0.248,1.982-0.293,2.979
		c0.172,0.003,0.521,0.014,0.696,0.021C519.634,541.533,519.658,540.489,519.231,539.547 M569.728,539.989
		c-0.393,0.307,0.128,0.969,0.524,0.662C570.631,540.344,570.114,539.682,569.728,539.989 M590.362,539.899
		C589.824,540.926,591.506,539.951,590.362,539.899 M622.224,540.847c0.541-0.086,1.096-0.179,1.651-0.279
		c-0.138-0.197-0.417-0.593-0.555-0.789C622.945,540.13,622.576,540.485,622.224,540.847 M631.715,543.291
		c0.969-0.031,1.941-0.055,2.92-0.086c0.297-0.745,0.627-1.476,0.955-2.21c-0.183,0.01-0.548,0.031-0.727,0.041
		c-0.079-0.448-0.152-0.896-0.217-1.345C633.629,540.861,632.736,542.13,631.715,543.291 M648.054,543.247
		c0.951-0.034,2.01,0.124,2.858-0.434c0.341-0.717,0.4-1.524,0.534-2.3c0.214,0.238,0.431,0.476,0.659,0.714
		c-0.059-0.538-0.114-1.076-0.166-1.613C650.201,540.251,649.019,541.743,648.054,543.247 M244.62,540.454
		c-0.348,0.241-0.352,0.869,0,1.107C245.21,541.643,245.21,540.371,244.62,540.454 M345.424,543.029
		c0.59-0.4,1.324-0.69,1.713-1.317c0.124-0.552,0.141-1.117,0.197-1.672C346.472,540.875,345.796,541.885,345.424,543.029
		 M355.439,544.015c0.424,0.01,0.862,0.076,1.293,0.003c1.127-0.993,1.869-2.41,2.055-3.903
		C357.463,541.226,356.38,542.578,355.439,544.015 M374.887,540.244C374.353,541.271,376.032,540.295,374.887,540.244
		 M419.74,540.116c0.193,0.648,0.39,1.296,0.579,1.948c0.159-0.355,0.314-0.71,0.476-1.065c0.165-0.007,0.49-0.021,0.652-0.028
		c-0.007-0.152-0.021-0.458-0.028-0.614C420.857,540.278,420.295,540.195,419.74,540.116 M466.255,540.351
		c-0.407,0.283,0.048,0.979,0.469,0.71C467.114,540.782,466.662,540.068,466.255,540.351 M465.797,544.133
		c1.6-0.917,3.275-2.224,3.627-4.147C467.696,540.768,466.186,542.223,465.797,544.133 M471.775,540.175
		c-0.462,0.238-0.469,0.469-0.017,0.696C472.209,540.633,472.216,540.399,471.775,540.175 M497.494,539.878
		c-0.238,1.341-0.259,2.703-0.265,4.058c0.179,0,0.531,0.003,0.71,0.003C497.925,542.581,498.187,541.123,497.494,539.878
		 M532.501,540.24C532.673,540.416,532.673,540.416,532.501,540.24 M591.061,540.295c-0.155,0.483,0.01,0.648,0.5,0.5
		C591.706,540.313,591.537,540.147,591.061,540.295 M608.934,543.412c1.486-0.565,3.299-1.438,3.248-3.296
		C610.968,541.075,609.865,542.174,608.934,543.412 M470.092,540.802c-0.355,0.238-0.352,0.865,0,1.103
		C470.682,541.988,470.682,540.716,470.092,540.802 M552.052,540.644c-0.417,0.079-0.617,0.7-0.272,0.976
		C552.335,541.885,552.69,540.664,552.052,540.644 M563.877,540.585C564.046,540.761,564.046,540.761,563.877,540.585
		 M604.211,540.585C604.379,540.761,604.379,540.761,604.211,540.585 M624.21,540.585
		C624.379,540.757,624.379,540.757,624.21,540.585 M353.229,540.93C353.402,541.102,353.402,541.102,353.229,540.93 M359.09,540.93
		C359.263,541.102,359.263,541.102,359.09,540.93 M363.913,540.93C364.089,541.102,364.089,541.102,363.913,540.93 M369.088,540.93
		C369.261,541.102,369.261,541.102,369.088,540.93 M371.502,540.926C371.674,541.102,371.674,541.102,371.502,540.926
		 M374.094,541.023c-0.548,0.293-0.19,1.341,0.421,1.196C374.942,541.919,374.66,540.895,374.094,541.023 M382.455,540.837
		c0.076,1.906-0.445,3.979,0.531,5.737c0.241-1.903,0.152-3.823,0.131-5.737C382.951,540.837,382.62,540.837,382.455,540.837
		 M417.375,541.102c-0.334,0.496-0.259,1.186-0.103,1.734c0.286,0.49,0.469-0.414,0.438-0.61
		C417.661,541.902,417.81,541.175,417.375,541.102 M458.888,541.357c0.296,0.334,0.603,0.669,0.91,1.003
		c0.069-0.521,0.145-1.038,0.224-1.555C459.639,540.992,459.263,541.175,458.888,541.357 M459.912,544.077
		c1.541-0.552,2.868-1.72,3.358-3.317C461.901,541.581,460.753,542.729,459.912,544.077 M486.444,543.995
		c0.869-0.11,1.958,0.093,2.555-0.717c0.81-0.607,0.607-1.707,0.724-2.586C488.058,541.088,487.282,542.674,486.444,543.995
		 M493.557,544.074c1.117,0.052,2.237,0.062,3.351-0.069c-0.003-1.114-0.021-2.231-0.066-3.344
		C495.577,541.619,494.432,542.747,493.557,544.074 M547.546,540.847c0.007,1.096,0.034,2.193,0.165,3.282
		c0.217-1.083,0.259-2.189,0.259-3.289L547.546,540.847 M554.879,541.109c-0.445,0.159-0.269,0.986,0.228,0.834
		C555.534,541.781,555.362,540.957,554.879,541.109 M635.897,540.895c-0.186,0.562,0.003,0.752,0.572,0.572
		C636.642,540.906,636.452,540.716,635.897,540.895 M640.958,543.25c0.703,0.003,1.414,0,2.131-0.003
		c-0.017-0.858-0.038-1.717-0.069-2.575C642.203,541.423,641.544,542.319,640.958,543.25 M260.489,541.275
		C260.662,541.45,260.662,541.45,260.489,541.275 M291.917,541.223c-0.169,0.476-0.007,0.648,0.483,0.521
		C292.566,541.264,292.407,541.092,291.917,541.223 M362.907,541.375c-0.321,0.407,0.314,1.041,0.724,0.724
		C363.958,541.699,363.303,541.044,362.907,541.375 M368.054,541.275C368.226,541.45,368.226,541.45,368.054,541.275
		 M419.368,541.295C418.851,542.33,420.513,541.326,419.368,541.295 M449.324,541.188c-0.01,2.179-0.01,4.358,0,6.537h0.345
		c0.007-2.179,0.007-4.361,0-6.54L449.324,541.188 M478.491,543.898c1.083,0.034,2.169,0.045,3.258,0.045
		c-0.017-0.989-0.045-1.982-0.093-2.972C480.421,541.737,479.394,542.774,478.491,543.898 M515.701,543.957
		c0.676-0.028,1.372-0.014,2.051-0.138c0.762-0.731,0.862-1.8,0.914-2.793C517.717,542.047,516.735,543.029,515.701,543.957
		 M530.091,541.275C530.26,541.45,530.26,541.45,530.091,541.275 M623.203,541.244C623.372,541.419,623.372,541.419,623.203,541.244
		 M670.08,541.24c-0.827,1.824-1.265,3.799-1.179,5.809c0.552-0.007,1.114-0.01,1.679-0.017c0.29-1.948,0.5-3.906,0.434-5.878
		C670.78,541.175,670.315,541.216,670.08,541.24 M276.693,541.619C276.865,541.795,276.865,541.795,276.693,541.619
		 M325.304,541.619C325.476,541.795,325.476,541.795,325.304,541.619 M350.071,543.374c0.231,0.538,0.459,1.079,0.69,1.62
		c0.603-1.42,1.748-2.462,2.851-3.496C352.168,541.523,351.095,542.492,350.071,543.374 M360.814,541.619
		C360.986,541.792,360.986,541.792,360.814,541.619 M539.747,541.557C539.796,542.705,540.771,541.023,539.747,541.557
		 M622.483,541.616C622.655,541.792,622.655,541.792,622.483,541.616 M143.192,541.871c-0.003,1.61,0.148,3.268-0.365,4.823
		c-0.407,1.179-0.376,2.437-0.328,3.668c0.534,0.334,1.065,0.679,1.6,1.014c0.038,0.193,0.11,0.586,0.148,0.779
		c-0.576,0.024-1.152,0.045-1.724,0.072c0.186,0.214,0.376,0.427,0.565,0.641c-0.231,0.372-0.459,0.741-0.683,1.117
		c1.203,0.82,2.668,0.658,4.03,0.49c-0.476-0.927-1.041-1.81-1.748-2.579c0.469-0.631,0.921-1.276,1.369-1.92
		c0.034,0.369,0.069,0.741,0.107,1.11c0.372,0.041,0.745,0.083,1.12,0.121c0.062-3.11,0.038-6.223,0.017-9.336
		c-0.693-0.003-1.386-0.003-2.075-0.003c-0.145,2.489,0.7,4.954,0.207,7.426c-0.059-2.513-0.976-4.906-0.948-7.426
		C144.054,541.868,143.623,541.871,143.192,541.871 M260.351,541.864c0.038,0.883,0.083,1.765,0.176,2.644
		c0.452-0.8,0.607-1.703,0.679-2.606C260.993,541.892,260.565,541.874,260.351,541.864 M264.206,541.95
		c-0.434-0.086-0.917,0.469-0.586,0.848C264.13,543.305,264.937,542.171,264.206,541.95 M270.784,541.936
		c-0.141,0.49,0.024,0.645,0.507,0.469C271.432,541.912,271.263,541.757,270.784,541.936 M280.144,541.902
		C280.196,543.05,281.168,541.368,280.144,541.902 M289.618,544.391c1.245-0.352,1.824-1.486,2.258-2.599
		C290.987,542.529,290.194,543.384,289.618,544.391 M294.744,544.491c-0.041,0.321-0.083,0.641-0.117,0.962
		c1.355-0.886,2.848-1.827,3.203-3.537C296.923,542.912,295.986,543.915,294.744,544.491 M302.843,542.071
		c-0.448,0.331,0.097,1.107,0.548,0.741C303.836,542.485,303.284,541.712,302.843,542.071 M368.744,541.964
		C368.916,542.136,368.916,542.136,368.744,541.964 M372.836,542.085c-0.41,0.279,0.045,0.976,0.465,0.71
		C373.698,542.519,373.246,541.805,372.836,542.085 M380.81,541.964C380.982,542.14,380.982,542.14,380.81,541.964 M388.405,542.161
		c-0.338,0.39-0.338,1.096,0,1.486C388.943,543.564,388.943,542.243,388.405,542.161 M391.846,541.902
		C391.894,543.05,392.87,541.368,391.846,541.902 M407.257,545.494c1.782-0.6,3.213-2.027,3.937-3.747
		C409.58,542.633,408.37,544.06,407.257,545.494 M529.825,544.329c0.752-0.11,1.51-0.238,2.265-0.376
		c-0.028-0.752-0.055-1.503-0.086-2.255C531.032,542.343,530.146,543.167,529.825,544.329 M537.372,543.86
		c0.648,0.038,1.303,0.072,1.962,0.103c-0.034-0.769-0.069-1.541-0.114-2.31C538.437,542.236,537.82,542.998,537.372,543.86
		 M635.932,541.961C636.101,542.136,636.101,542.136,635.932,541.961 M644.209,541.902
		C644.254,543.05,645.23,541.368,644.209,541.902 M243.534,542.312C243,543.34,244.682,542.361,243.534,542.312 M316.816,547.473
		c1.403-0.931,2.717-2.038,3.72-3.406c0.459-0.552,0.427-1.314,0.552-1.982C319.409,543.609,317.078,545.012,316.816,547.473
		 M341.963,545.632c1.003-0.572,2.082-1.052,2.979-1.793c0.186-0.531,0.241-1.093,0.341-1.644
		C344.055,543.219,342.935,544.364,341.963,545.632 M359.752,542.323c-0.51,0.341,0.052,1.224,0.562,0.817
		C360.814,542.798,360.252,541.916,359.752,542.323 M362.476,542.312C361.938,543.336,363.62,542.364,362.476,542.312
		 M366.985,542.274c-0.183,0.562,0.007,0.752,0.572,0.572C367.733,542.288,367.544,542.095,366.985,542.274 M390.756,542.364
		c-0.152,0.483,0.014,0.648,0.503,0.5C391.401,542.381,391.232,542.212,390.756,542.364 M394.6,542.309
		C394.773,542.481,394.773,542.481,394.6,542.309 M395.355,546.915c0.348-0.021,0.707-0.041,1.062-0.065
		c0.596-1.969,2.551-2.979,3.396-4.782C397.686,542.909,396.235,544.87,395.355,546.915 M402.106,545.494
		c1.607-0.421,2.775-1.717,3.224-3.289C404.116,543.154,403.078,544.302,402.106,545.494 M413.752,544.788
		c1.3-0.486,2.4-1.42,2.948-2.717C415.348,542.492,414.431,543.609,413.752,544.788 M458.664,542.312
		C458.126,543.34,459.808,542.364,458.664,542.312 M502.245,543.874c0.631,0.031,1.272,0.059,1.917,0.086
		c-0.031-0.638-0.062-1.279-0.086-1.917C503.448,542.64,502.838,543.25,502.245,543.874 M522.644,544.298
		c0.745,0.014,1.634,0.307,2.282-0.224c0.19-0.676,0.148-1.386,0.179-2.075C524.123,542.574,523.289,543.364,522.644,544.298
		 M540.037,542.243c-0.462,0.234-0.469,0.469-0.021,0.696C540.468,542.705,540.475,542.471,540.037,542.243 M545.326,544.215
		c0.517,0.028,1.041,0.059,1.569,0.086c-0.007-0.724-0.007-1.445-0.014-2.165C546.119,542.623,545.584,543.35,545.326,544.215
		 M551.748,542.312C551.207,543.336,552.893,542.367,551.748,542.312 M607.268,542.295
		C606.713,543.315,608.41,542.367,607.268,542.295 M270.808,542.988c-0.503,0.341,0.048,1.231,0.559,0.821
		C271.863,543.464,271.315,542.578,270.808,542.988 M300.595,545.101c0.931-0.517,1.751-1.262,1.996-2.341
		C301.536,543.14,300.867,544.043,300.595,545.101 M304.27,542.995C304.443,543.171,304.443,543.171,304.27,542.995
		 M306.552,544.732c0.879-0.459,1.596-1.155,2.148-1.972C307.89,543.305,307.17,543.977,306.552,544.732 M343.4,547.473
		c0.741-0.145,1.71,0.021,2.217-0.683c0.955-1.251,2.441-2.317,2.424-4.047C346.179,543.974,344.7,545.684,343.4,547.473
		 M351.237,545.922l0.128-0.031c1.431-0.403,2.262-1.824,2.979-3.03C353.116,543.619,351.626,544.419,351.237,545.922
		 M361.848,542.998C362.021,543.174,362.021,543.174,361.848,542.998 M371.957,547.142c1.527-1.245,3.461-2.386,4.058-4.378
		C374.332,543.843,372.719,545.243,371.957,547.142 M383.341,547.104c0.545-0.069,1.103-0.1,1.641-0.252
		c1.165-1.131,2.02-2.548,2.72-4.006C386.026,544.019,384.592,545.498,383.341,547.104 M389.291,547.501
		c1.717-1.272,3.448-2.71,4.316-4.716C391.753,543.884,390.15,545.501,389.291,547.501 M420.84,542.967
		c-0.548,1.089-1.465,1.879-2.406,2.617c-0.183,0.631-0.145,1.3-0.186,1.951c1.089-0.162,2.151-0.6,2.824-1.517
		c0.855-0.814,0.638-2.075,0.721-3.137C421.554,542.902,421.078,542.947,420.84,542.967 M424.381,547.442
		c0.552-0.048,1.117-0.055,1.669-0.183c0.883-0.752,1.724-1.565,2.486-2.444c0.141-0.669,0.086-1.358,0.103-2.034
		C427.232,544.346,425.701,545.801,424.381,547.442 M509.698,543.367c-0.024,0.234-0.072,0.7-0.097,0.934
		c0.345-0.162,0.693-0.321,1.052-0.479c0.021-0.234,0.069-0.7,0.093-0.934C510.391,543.047,510.043,543.209,509.698,543.367
		 M519.003,543.098c-0.455,0.328,0.083,1.107,0.541,0.745C519.989,543.519,519.445,542.743,519.003,543.098 M623.52,542.998
		C623.689,543.174,623.689,543.174,623.52,542.998 M126.054,543.391c-0.393,0.29-0.231,1.048,0.276,1.1
		C127.109,544.457,126.768,542.985,126.054,543.391 M140.168,543.14c-0.048,2.734-0.2,5.471-0.017,8.202
		c1.052-1.831,0.955-4.01,0.986-6.044C141.209,544.443,140.627,543.788,140.168,543.14 M140.858,543.34
		C141.034,543.516,141.034,543.516,140.858,543.34 M262.582,543.298c-0.565,0.138-0.483,1.193,0.179,0.917
		C263.358,544.095,263.237,543.026,262.582,543.298 M268.357,543.347C267.819,544.374,269.501,543.402,268.357,543.347
		 M273.938,543.281C273.99,544.429,274.962,542.747,273.938,543.281 M279.072,543.309c-0.183,0.562,0.01,0.752,0.572,0.572
		C279.82,543.319,279.63,543.129,279.072,543.309 M313.865,543.347C313.327,544.37,315.009,543.402,313.865,543.347 M322.27,547.477
		c2.282-0.176,3.313-2.506,4.075-4.347C324.776,544.35,323.232,545.708,322.27,547.477 M328.096,547.311
		c1.214,0.072,2.434,0.09,3.654,0.083c0.017-1.389,0.021-2.779,0.014-4.168C330.468,544.515,328.951,545.653,328.096,547.311
		 M355.139,547.549c1.879-0.938,3.403-2.52,4.347-4.392C357.78,544.333,356.267,545.808,355.139,547.549 M363.882,543.309
		c-0.183,0.559,0.007,0.752,0.572,0.572C364.631,543.322,364.441,543.129,363.882,543.309 M366.43,547.056
		c1.582-0.941,2.896-2.293,3.699-3.958C368.406,543.853,367.22,545.394,366.43,547.056 M378.817,545.849
		c0.255,0.021,0.762,0.059,1.017,0.079c0.521-0.917,1.124-1.782,1.693-2.672C380.545,544.036,379.652,544.915,378.817,545.849
		 M390.463,543.343C390.636,543.519,390.636,543.519,390.463,543.343 M434.193,543.295c-1.089,1.458-2.527,2.613-3.592,4.092
		c0.907,0.007,1.834,0.086,2.737-0.083c1.389-0.834,1.682-2.558,1.51-4.061C434.686,543.257,434.358,543.284,434.193,543.295
		 M457.691,543.343C457.86,543.519,457.86,543.519,457.691,543.343 M462.801,543.347
		C462.266,544.377,463.945,543.395,462.801,543.347 M553.207,543.322c-0.558,0.152-0.455,1.203,0.197,0.931
		C553.972,544.108,553.852,543.05,553.207,543.322 M554.851,543.347C554.314,544.374,555.996,543.398,554.851,543.347
		 M676.672,543.236c0.01,0.179,0.031,0.538,0.041,0.717c-1.669-0.017-3.334-0.017-4.999-0.007c-0.021,1.027-0.041,2.055-0.097,3.082
		c0.431-0.727,1.176-1.041,1.989-1.155c0.055,0.307,0.165,0.914,0.224,1.22c0.338-0.583,0.686-1.158,1.041-1.734
		c0.662,0.586,1.241,1.345,2.086,1.686c1.393,0.259,2.496-1.062,3.906-0.91c2.2,0.069,4.396,0.39,6.602,0.128
		c0.048-1,0.083-1.996,0.114-2.996C683.943,543.226,680.306,543.267,676.672,543.236 M213.674,544.367
		c0.817-0.183,1.627-0.421,2.413-0.721C215.257,543.712,213.912,543.219,213.674,544.367 M216.357,543.688
		C216.532,543.86,216.532,543.86,216.357,543.688 M342.542,543.684C342.714,543.86,342.714,543.86,342.542,543.684 M345.645,543.684
		C345.817,543.864,345.817,543.864,345.645,543.684 M417.355,543.684C417.523,543.86,417.523,543.86,417.355,543.684
		 M442.177,543.688C442.35,543.864,442.35,543.864,442.177,543.688 M551.121,543.688C551.29,543.864,551.29,543.864,551.121,543.688
		 M264.282,544.033C264.454,544.208,264.454,544.208,264.282,544.033 M276.693,544.033
		C276.865,544.205,276.865,544.205,276.693,544.033 M303.932,543.971C303.981,545.119,304.96,543.44,303.932,543.971
		 M309.755,544.215c-0.441,0.159-0.265,0.983,0.228,0.831C310.417,544.884,310.241,544.06,309.755,544.215 M435.285,543.971
		C435.33,545.119,436.309,543.44,435.285,543.971 M465.276,544.029C465.448,544.205,465.448,544.205,465.276,544.029
		 M591.113,544.033C591.282,544.208,591.282,544.208,591.113,544.033 M592.492,544.033
		C592.661,544.208,592.661,544.208,592.492,544.033 M623.865,544.033C624.031,544.208,624.031,544.208,623.865,544.033
		 M624.555,544.033C624.724,544.208,624.724,544.208,624.555,544.033 M263.592,544.377
		C263.764,544.553,263.764,544.553,263.592,544.377 M277.686,544.526c-0.145,0.545,0.779,0.714,0.931,0.214
		C278.758,544.191,277.834,544.022,277.686,544.526 M293.179,544.381C292.645,545.408,294.324,544.429,293.179,544.381
		 M362.879,544.405c-0.365,0.455,0.417,0.986,0.748,0.534C363.976,544.491,363.196,543.95,362.879,544.405 M438.275,547.397
		c1.027,0.045,2.062,0.065,3.093,0.034c0.021-1.062,0.031-2.124,0.038-3.186C440.329,545.267,439.278,546.311,438.275,547.397
		 M629.316,545.239c-0.028,1.031,0.1,2.058,0.369,3.055c1.403-0.727,2.513-1.879,3.42-3.155c-0.359-0.279-0.7-0.562-1.041-0.841
		C631.226,544.822,630.281,545.101,629.316,545.239 M125.954,544.774c-0.021,1.889-0.117,3.782-0.031,5.671
		c0.238,0.014,0.714,0.045,0.952,0.059c0.09-1.779,0.148-3.565,0.017-5.347C126.657,545.063,126.188,544.87,125.954,544.774
		 M264.22,545.07C263.685,546.098,265.368,545.125,264.22,545.07 M272.556,545.067C272.728,545.243,272.728,545.243,272.556,545.067
		 M276.689,545.067C276.865,545.243,276.865,545.243,276.689,545.067 M299.788,545.067
		C299.964,545.243,299.964,545.243,299.788,545.067 M304.798,546.387c0.593-0.145,1.186-0.293,1.782-0.434
		c-0.017-0.293-0.045-0.876-0.059-1.169C305.935,545.305,305.366,545.846,304.798,546.387 M410.432,545.081
		c-0.507,0.341,0.048,1.224,0.559,0.82C411.49,545.56,410.935,544.674,410.432,545.081 M413.607,545.026
		c-0.134,0.486,0.038,0.648,0.517,0.483C414.255,545.019,414.079,544.86,413.607,545.026 M417.293,545.07
		C416.755,546.098,418.437,545.122,417.293,545.07 M429.049,545.081c-0.51,0.341,0.048,1.224,0.559,0.817
		C430.107,545.556,429.549,544.674,429.049,545.081 M446.028,547.873c0.81,0.024,1.62,0.055,2.434,0.086
		c0.052-1.02,0.055-2.041,0.048-3.061C447.493,545.712,446.549,546.653,446.028,547.873 M455.819,545.077
		c0.083,0.541,1.4,0.538,1.489-0.003C456.912,544.743,456.205,544.743,455.819,545.077 M455.381,549.083
		c2.027-0.424,2.834-2.661,4.034-4.12C457.971,546.236,456.536,547.539,455.381,549.083 M459.76,545.067
		C459.932,545.243,459.932,545.243,459.76,545.067 M460.453,545.067C460.622,545.239,460.622,545.239,460.453,545.067
		 M478.663,545.598c0.2,0.621,1.107,0.183,0.9-0.372C479.377,544.598,478.408,545.036,478.663,545.598 M484.645,545.208
		c1.038,0.124,2.093,0.128,3.141,0C486.755,544.884,485.669,544.884,484.645,545.208 M491.764,545.381
		c-0.038,1.251-0.048,2.506-0.045,3.758c1.286-1.279,2.793-2.406,3.651-4.047c-0.603-0.076-1.193-0.145-1.782-0.21
		c0.028,0.434,0.055,0.869,0.09,1.303c-0.252-0.355-0.49-0.714-0.721-1.072C492.553,545.201,492.153,545.291,491.764,545.381
		 M499.124,547.57c-0.183,0.655-0.162,1.341-0.2,2.013c1.782-1.193,2.841-3.089,4.178-4.706
		C501.49,545.229,500.086,546.242,499.124,547.57 M509.06,545.063C509.229,545.239,509.229,545.239,509.06,545.063 M514.925,545.005
		C514.97,546.153,515.949,544.47,514.925,545.005 M515.956,545.067C516.125,545.243,516.125,545.243,515.956,545.067
		 M516.645,545.067C516.814,545.239,516.814,545.239,516.645,545.067 M522.165,545.005
		C522.21,546.153,523.189,544.47,522.165,545.005 M523.289,545.015c0.041,0.496,0.262,0.583,0.662,0.262
		C523.899,544.777,523.675,544.691,523.289,545.015 M528.367,545.067C528.536,545.243,528.536,545.243,528.367,545.067
		 M529.229,545.088c0.069,0.438,0.789,0.293,1.124,0.334c0.186,0.038,1.103-0.152,0.614-0.438
		C530.408,544.832,529.722,544.76,529.229,545.088 M534.359,546.946c-0.362,0.814-0.193,1.755-0.245,2.624
		c1.296-1.007,2.444-2.182,3.523-3.42c-0.276-0.059-0.827-0.183-1.103-0.241c0.197-0.372,0.396-0.745,0.603-1.117
		C536.193,545.484,535.124,546.049,534.359,546.946 M538.365,545.067C538.537,545.243,538.537,545.243,538.365,545.067
		 M543.881,545.067C544.05,545.243,544.05,545.243,543.881,545.067 M544.75,545.032c-0.159,0.49,0.665,0.665,0.831,0.228
		C545.729,544.77,544.905,544.595,544.75,545.032 M546.294,545.067C546.463,545.239,546.463,545.239,546.294,545.067
		 M552.007,545.077c0.079,0.541,1.4,0.541,1.486,0C553.1,544.743,552.39,544.743,552.007,545.077 M556.058,550.19
		c1.582-0.496,2.834-1.627,4.078-2.672c0.872-0.727,1.379-1.765,1.875-2.768C559.312,545.705,558.306,548.642,556.058,550.19
		 M567.273,545.16c-0.328,0.393-0.241,0.614,0.262,0.662C567.852,545.425,567.763,545.205,567.273,545.16 M568.707,545.005
		C568.759,546.153,569.728,544.467,568.707,545.005 M575.599,545.067C575.768,545.243,575.768,545.243,575.599,545.067
		 M582.856,545.084c-0.493,0.386,0.172,1.072,0.562,0.562C583.921,545.26,583.239,544.598,582.856,545.084 M589.986,544.953
		c-0.003,0.845-0.003,1.686,0.014,2.531c1.1-0.531,2.044-1.338,2.617-2.431C591.734,545.001,590.861,544.974,589.986,544.953
		 M592.837,545.067C593.006,545.239,593.006,545.239,592.837,545.067 M597.546,545.288c0.014,1.107,0.038,2.21,0.09,3.317
		c1.41-1.079,2.917-2.096,3.965-3.565C600.239,544.905,598.874,544.974,597.546,545.288 M606.451,545.591
		c-0.521,0.517-0.555,1.282-0.69,1.958c1.138-0.683,2.069-1.644,2.879-2.686C607.892,545.015,606.955,544.905,606.451,545.591
		 M613.867,545.063c-0.052,0.779-0.09,1.558-0.121,2.337c0.234-0.021,0.7-0.055,0.931-0.076c0.624-0.803,1.286-1.579,1.931-2.369
		C615.691,544.981,614.777,545.015,613.867,545.063 M621.524,545.263c0.003,0.755-0.031,1.51-0.055,2.262
		c1.293-0.407,1.993-1.551,2.624-2.668C623.227,544.97,622.372,545.101,621.524,545.263 M636.935,546.563
		c0.024,0.569,0.052,1.134,0.09,1.703c2.027-0.321,3.43-1.872,4.727-3.323c-0.8,0.007-1.6-0.038-2.379,0.107
		C638.473,545.405,637.742,546.06,636.935,546.563 M645.906,545.643c-0.262,0.048-0.514,0.097-0.758,0.145
		c0.01,0.59,0.024,1.176,0.059,1.769c1.403-0.383,2.379-1.482,3.161-2.644C647.485,544.936,646.574,545.019,645.906,545.643
		 M653.549,544.963c-0.062,0.752-0.103,1.5-0.121,2.251c0.876-0.486,1.655-1.134,2.265-1.938
		C654.976,545.15,654.263,545.05,653.549,544.963 M661.696,544.988c-0.007,0.814-0.007,1.627,0,2.441
		c0.848-0.041,1.734,0.062,2.562-0.207c0.779-0.558,1.393-1.307,2.055-1.996c0.079,0.703,0.155,1.403,0.269,2.1
		c0.145-0.738,0.227-1.486,0.286-2.234C665.143,544.932,663.416,544.943,661.696,544.988 M293.207,545.591
		c-0.438,0.159-0.265,0.986,0.228,0.831C293.869,546.263,293.693,545.439,293.207,545.591 M361.91,545.35
		c-0.152,0.483,0.014,0.652,0.5,0.503C362.559,545.37,362.393,545.201,361.91,545.35 M401.34,546.274
		c0.534,0.545,1.882-0.669,0.765-0.779C401.73,545.474,401.099,545.846,401.34,546.274 M409.473,545.36
		c-0.152,0.483,0.017,0.652,0.503,0.503C410.121,545.377,409.953,545.208,409.473,545.36 M563.188,545.412
		C563.36,545.584,563.36,545.584,563.188,545.412 M608.989,546.077c0.231,0.483,0.455,0.965,0.672,1.458
		c0.948-0.49,1.651-1.293,2.224-2.179C611.019,545.943,610.037,546.287,608.989,546.077 M616.96,546.012
		c0.1,0.462,0.203,0.921,0.314,1.383c0.228-0.01,0.683-0.031,0.91-0.041c0.19-0.614,0.39-1.224,0.586-1.834
		C618.163,545.684,617.56,545.849,616.96,546.012 M300.133,545.756C300.309,545.929,300.309,545.929,300.133,545.756
		 M413.217,545.698C413.39,545.874,413.39,545.874,413.217,545.698 M477.298,546.146c-0.045,0.4-0.083,0.8-0.117,1.2
		c0.465-0.134,0.938-0.266,1.413-0.396c0.017-0.452,0.041-0.9,0.069-1.351C478.205,545.784,477.749,545.963,477.298,546.146
		 M542.957,546.167c-0.886,0.614-1.662,1.414-2.217,2.334c0.041,0.628,0.266,1.217,0.448,1.813c1.51-1.393,2.975-2.834,4.347-4.361
		C544.677,545.946,543.754,545.777,542.957,546.167 M127.723,546.28c-0.438,0.159-0.262,0.983,0.228,0.831
		C128.384,546.953,128.212,546.125,127.723,546.28 M260.393,546.012c-0.003,0.459-0.003,0.914,0,1.372c0.176,0,0.521,0,0.696,0
		c-0.003-0.458-0.003-0.917,0-1.372C260.913,546.012,260.569,546.012,260.393,546.012 M276.641,546.191
		c-0.324,0.396-0.238,0.617,0.262,0.665C277.224,546.463,277.138,546.239,276.641,546.191 M280.234,546.049
		c0.045,0.496,0.265,0.583,0.662,0.262C280.847,545.815,280.623,545.725,280.234,546.049 M309.755,546.28
		c-0.441,0.162-0.265,0.986,0.228,0.831C310.417,546.953,310.241,546.125,309.755,546.28 M350.185,546.163
		c0.014,0.476,0.028,0.955,0.052,1.438c0.41-0.545,0.8-1.107,1.127-1.71C350.968,545.981,350.575,546.074,350.185,546.163
		 M361.5,546.101C361.673,546.277,361.673,546.277,361.5,546.101 M369.054,545.977c-0.076,0.097-0.224,0.293-0.3,0.39
		C368.992,547.456,370.205,545.815,369.054,545.977 M377.752,547.353c0.424-0.128,0.852-0.255,1.282-0.383
		c-0.055-0.279-0.162-0.841-0.217-1.12C378.455,546.346,378.1,546.849,377.752,547.353 M415.286,546.098
		C415.458,546.277,415.458,546.277,415.286,546.098 M476.17,546.005c-0.003,1.103,0.038,2.21,0.259,3.296
		c0.124-1.089,0.155-2.186,0.169-3.279L476.17,546.005 M483.772,546.018c0.028,0.755,0.062,1.51,0.114,2.265
		c0.962-0.686,1.838-1.482,2.703-2.286C485.648,545.998,484.707,546.008,483.772,546.018 M506.933,546.394
		c-0.565,0.672-0.924,1.486-1.338,2.248c1.303-0.455,2.41-1.393,2.858-2.734C507.937,546.053,507.392,546.115,506.933,546.394
		 M513.37,546.622c-0.758,0.665-0.569,1.741-0.641,2.634c1.224-0.945,2.32-2.048,3.244-3.289
		C515.094,546.077,513.963,545.784,513.37,546.622 M519.862,546.349c0.314,0.717,0.648,1.424,0.979,2.137
		c0.872-0.762,1.682-1.593,2.393-2.51C522.096,545.994,520.968,546.115,519.862,546.349 M527.25,546.022
		c-0.186,1.038-0.334,2.082-0.427,3.134c1.12-0.996,2.179-2.065,3.21-3.155C529.101,546.005,528.174,546.012,527.25,546.022
		 M549.625,547.018c-0.986,0.748-1.052,2.017-1.103,3.148c1.169-0.069,2.562,0.262,3.513-0.617c1.151-0.824,1.92-2.093,1.862-3.541
		C552.431,546.005,550.645,545.687,549.625,547.018 M560.564,549.187c0.634-0.434,1.241-0.921,1.772-1.486
		c0.352-0.148,0.703-0.297,1.069-0.434c0.01-0.448,0.021-0.893,0.038-1.338C561.943,546.401,561.133,547.822,560.564,549.187
		 M601.542,546.56c0.576,0.314,1.169,0.6,1.779,0.855c0.159-0.441,0.327-0.883,0.503-1.324
		C603.059,546.246,602.294,546.394,601.542,546.56 M270.939,546.436c-0.396,0.269,0.028,1,0.448,0.714
		C271.787,546.877,271.363,546.146,270.939,546.436 M388.343,546.539c-0.328,0.393-0.238,0.614,0.262,0.662
		C388.922,546.808,388.836,546.584,388.343,546.539 M414.572,546.487c-0.527,0.134-0.396,1.079,0.193,0.838
		C415.317,547.208,415.141,546.263,414.572,546.487 M442.177,546.446C442.35,546.622,442.35,546.622,442.177,546.446 M458.853,551.3
		c2.155-0.745,4.334-2.531,4.378-4.989C461.594,547.797,459.75,549.211,458.853,551.3 M465.076,551.345
		c1.538-0.617,2.686-1.855,3.772-3.061c0.569-0.548,0.396-1.417,0.51-2.127C467.369,547.27,465.607,549.07,465.076,551.345
		 M470.041,546.449C469.499,547.473,471.185,546.508,470.041,546.449 M563.077,549.263c0.741,0.307,1.482,0.631,2.22,0.958
		c0.872-1.186,1.093-2.651,1.155-4.089C565.16,546.984,564.077,548.097,563.077,549.263 M567.273,546.539
		c-0.328,0.393-0.241,0.614,0.262,0.662C567.852,546.805,567.763,546.584,567.273,546.539 M577.502,549.318
		c1.124-0.121,2.258-0.186,3.396-0.224c-0.138-0.969-0.248-1.944-0.365-2.913C579.45,547.156,578.471,548.235,577.502,549.318
		 M584.901,546.532c-0.403,0.297,0.097,0.972,0.503,0.683C585.793,546.922,585.294,546.242,584.901,546.532 M594.902,546.446
		C595.074,546.622,595.074,546.622,594.902,546.446 M659.313,546.449C658.772,547.473,660.458,546.505,659.313,546.449
		 M408.732,546.787C408.905,546.966,408.905,546.966,408.732,546.787 M519.089,546.505c-0.1,0.983-0.138,1.972-0.165,2.958
		c0.214-0.01,0.641-0.028,0.855-0.038C519.676,548.425,519.486,547.432,519.089,546.505 M606.838,548.356
		c0.917-0.141,1.851-0.197,2.768-0.383c0.014-0.11,0.041-0.328,0.055-0.438c-0.262-0.345-0.531-0.683-0.796-1.014
		C608.182,547.132,607.51,547.742,606.838,548.356 M286.35,547.073C286.401,548.221,287.374,546.539,286.35,547.073
		 M368.057,547.073C368.102,548.221,369.085,546.542,368.057,547.073 M382.537,547.073
		C382.586,548.221,383.561,546.542,382.537,547.073 M394.6,547.135C394.773,547.311,394.773,547.311,394.6,547.135 M570.703,549.49
		c0.914-0.014,1.824-0.034,2.744-0.052c-0.014-0.852-0.028-1.703-0.045-2.551C572.093,547.266,571.369,548.397,570.703,549.49
		 M583.528,547.132C583.697,547.308,583.697,547.308,583.528,547.132 M585.656,548.808c0.745,0.065,1.493,0.145,2.244,0.228
		c-0.076-0.734-0.152-1.465-0.217-2.2C586.893,547.37,586.211,548.035,585.656,548.808 M616.043,547.087
		c0.034,0.496,0.252,0.586,0.659,0.272C616.656,546.86,616.436,546.77,616.043,547.087 M628.347,547.135
		C628.516,547.311,628.516,547.311,628.347,547.135 M445.559,547.484C445.025,548.511,446.7,547.532,445.559,547.484
		 M584.183,547.446c-0.186,0.558,0.007,0.752,0.572,0.572C584.928,547.456,584.739,547.266,584.183,547.446 M593.12,547.484
		C592.582,548.511,594.261,547.535,593.12,547.484 M601.439,547.515c-0.496,0.427,0.238,1.138,0.679,0.676
		C602.614,547.784,601.849,547.06,601.439,547.515 M611.013,547.387c0.003,0.259,0.003,0.776,0.003,1.034c0.259,0,0.776,0,1.034,0
		c0-0.259,0-0.776-0.003-1.034C611.788,547.387,611.271,547.387,611.013,547.387 M619.056,547.47
		c-0.572,0.448,0.214,1.227,0.693,0.717C620.331,547.753,619.514,546.96,619.056,547.47 M616.967,547.766
		C617.139,547.942,617.139,547.942,616.967,547.766 M382.879,548.17C383.051,548.342,383.051,548.342,382.879,548.17
		 M472.361,551.173c0.941,0.007,1.886,0.007,2.834,0.007c-0.007-1.103-0.028-2.206-0.086-3.306
		C473.933,548.735,473.068,549.911,472.361,551.173 M539.73,547.825c-0.093,0.886-0.203,1.858,0.427,2.593
		C540.237,549.532,540.534,548.477,539.73,547.825 M547.622,548.263c-0.328,0.393-0.241,0.614,0.262,0.662
		C548.201,548.532,548.111,548.308,547.622,548.263 M595.343,548.118c0.041,0.496,0.262,0.583,0.662,0.262
		C595.95,547.88,595.729,547.794,595.343,548.118 M600.08,548.108C600.125,549.256,601.101,547.577,600.08,548.108 M615.339,548.118
		c0.038,0.496,0.259,0.583,0.662,0.262C615.95,547.884,615.725,547.797,615.339,548.118 M297.375,548.514
		C297.547,548.687,297.547,548.687,297.375,548.514 M327.669,548.37c0.324,0.934,0.565,1.896,0.962,2.806
		c0.993,0.207,2.02,0.165,3.03,0.221c-0.097-0.941-0.197-1.886-0.272-2.827C330.148,548.804,328.893,548.614,327.669,548.37
		 M341.404,548.47c-0.562,1.045-1.196,2.051-1.765,3.092c1.445-0.21,2.686-0.989,3.368-2.303c-0.427,0.021-0.855,0.041-1.276,0.069
		c0.069-0.324,0.141-0.645,0.214-0.969C341.811,548.387,341.539,548.442,341.404,548.47 M357.111,551.493
		c0.741-0.124,1.482-0.255,2.227-0.383c-0.003-0.948-0.014-1.9-0.038-2.848C358.242,549.087,357.401,550.159,357.111,551.493
		 M387.298,548.518C386.764,549.545,388.443,548.566,387.298,548.518 M424.532,548.518
		C423.995,549.545,425.677,548.573,424.532,548.518 M487.354,551c0.262-0.048,0.527-0.093,0.8-0.138
		c0.493,0.134,0.986,0.269,1.489,0.4c0.007-1.007,0-2.01-0.031-3.013C488.675,549.001,487.858,549.897,487.354,551 M592.085,548.518
		C591.547,549.545,593.226,548.57,592.085,548.518 M124.592,548.863C124.058,549.89,125.74,548.914,124.592,548.863
		 M127.723,549.039c-0.438,0.159-0.262,0.986,0.228,0.834C128.384,549.711,128.212,548.887,127.723,549.039 M353.578,548.797
		C353.629,549.945,354.602,548.263,353.578,548.797 M594.902,548.859C595.071,549.035,595.071,549.035,594.902,548.859
		 M296.282,549.235c-0.407,0.279,0.038,1.024,0.448,0.648C297.137,549.597,296.696,548.863,296.282,549.235 M301.36,550.621
		c0.617-0.421,1.151-0.952,1.572-1.572C302.271,549.425,301.733,549.959,301.36,550.621 M312.624,551.121
		c0.758,0.031,1.517,0.048,2.279,0.065c-0.086-0.672,0.641-1.958-0.348-2.096C313.741,549.583,313.196,550.39,312.624,551.121
		 M361.7,551.155c1.02,0.065,2.048,0.103,3.075,0.086c-0.145-0.755-0.296-1.51-0.445-2.262
		C363.248,549.425,362.386,550.224,361.7,551.155 M390.787,551.745c1.307-0.455,2.417-1.389,2.858-2.734
		C392.011,548.983,391.408,550.524,390.787,551.745 M396.81,551.341c1.189-0.241,1.872-1.238,2.296-2.289
		C397.969,549.376,397.234,550.28,396.81,551.341 M403.806,549.125c-0.724,0.696-1.379,1.472-1.917,2.32
		c0.614,0.034,1.234,0.065,1.858,0.093c0.369-0.676,0.752-1.345,1.145-2.006C404.526,549.397,404.164,549.259,403.806,549.125
		 M407.498,551.6c0.741-0.276,1.476-0.579,2.2-0.917c0.234,0.086,0.476,0.172,0.721,0.259c0.21-0.479,0.431-0.958,0.648-1.438
		c-0.479-0.166-0.955-0.334-1.427-0.5C408.849,549.804,408.098,550.649,407.498,551.6 M430.748,549.297
		c-0.328,0.393-0.241,0.614,0.262,0.662C431.328,549.566,431.241,549.342,430.748,549.297 M431.49,549.204
		C431.659,549.38,431.659,549.38,431.49,549.204 M436.861,549.259c0.041,0.707,0.086,1.417,0.148,2.124
		c0.886-0.538,1.624-1.282,2.172-2.165C438.406,549.221,437.633,549.249,436.861,549.259 M443.449,549.414
		c0,0.579,0.003,1.162,0.014,1.745c1.724,0.038,3.454,0.041,5.182,0c-0.017-0.545-0.028-1.089-0.034-1.631
		C446.904,549.263,445.152,548.966,443.449,549.414 M453.261,551.083c0.758-0.414,1.51-0.845,2.279-1.248
		c-0.041-0.186-0.121-0.565-0.159-0.752C454.575,549.638,453.875,550.328,453.261,551.083 M479.546,550.904
		c0.717,0.131,1.438,0.248,2.165,0.362c0.003-0.755,0.003-1.51,0.003-2.265C480.976,549.618,480.263,550.262,479.546,550.904
		 M497.311,549.207c-0.483,0.3,0.01,1.12,0.483,0.741C498.276,549.652,497.776,548.832,497.311,549.207 M516.821,550.555
		c0.562-0.131,1.134-0.266,1.703-0.403c-0.048-0.431-0.093-0.862-0.131-1.289C517.855,549.414,517.335,549.983,516.821,550.555
		 M272.866,549.58c-0.145,0.479,0.024,0.648,0.51,0.507C273.518,549.604,273.345,549.435,272.866,549.58 M276.631,549.552
		C276.1,550.583,277.775,549.6,276.631,549.552 M279.123,549.48c-0.159,0.362-0.317,0.724-0.472,1.086
		c0.407-0.076,0.817-0.152,1.227-0.228c0.052-0.228,0.152-0.679,0.2-0.907C279.841,549.442,279.361,549.466,279.123,549.48
		 M284.243,549.514c-0.183,0.559,0.01,0.752,0.572,0.572C284.991,549.525,284.802,549.332,284.243,549.514 M290.449,549.425
		c-0.072,0.097-0.224,0.293-0.296,0.39C290.387,550.904,291.6,549.263,290.449,549.425 M304.222,549.483
		c-0.462,0.234-0.465,0.469-0.021,0.7C304.656,549.945,304.663,549.711,304.222,549.483 M308.411,549.549
		C308.583,549.725,308.583,549.725,308.411,549.549 M319.226,550.411c0.141,0.352,0.286,0.703,0.431,1.055
		c0.486-0.124,0.972-0.248,1.465-0.372c-0.283-0.383-0.565-0.758-0.845-1.138c0.272-0.048,0.824-0.148,1.096-0.2
		C320.557,549.328,319.867,549.994,319.226,550.411 M324.476,550.818c0.676,0.165,1.351,0.328,2.034,0.483
		c-0.134-0.648-0.262-1.293-0.383-1.941C325.58,549.849,325.032,550.338,324.476,550.818 M352.495,549.428
		c-0.162,0.572-0.321,1.145-0.469,1.717c0.703,0.028,1.414,0.052,2.124,0.076c-0.286-0.558-0.562-1.117-0.824-1.682
		C353.119,549.511,352.702,549.456,352.495,549.428 M353.86,549.552C353.322,550.576,355.005,549.607,353.86,549.552
		 M359.745,549.514c-0.183,0.562,0.01,0.752,0.572,0.572C360.493,549.525,360.3,549.335,359.745,549.514 M367.492,551.493
		c0.852,0.021,1.703,0.031,2.562,0.038c-0.031-0.765-0.065-1.527-0.107-2.293C368.985,549.821,368.164,550.597,367.492,551.493
		 M374.853,549.459c-0.003,0.572-0.003,1.145,0,1.717c0.262,0,0.779,0,1.041,0.003c-0.007-0.576-0.007-1.148,0-1.72
		C375.632,549.459,375.111,549.459,374.853,549.459 M379.286,551.555c0.938-0.034,1.879-0.083,2.824-0.155
		c-0.255-0.648-0.521-1.293-0.772-1.941C380.645,550.152,379.962,550.852,379.286,551.555 M382.282,551.473
		c0.217,0.01,0.648,0.028,0.862,0.034c-0.076-0.755-0.152-1.507-0.241-2.258C382.668,549.983,382.468,550.728,382.282,551.473
		 M385.323,551.373c0.786,0.048,1.576,0.083,2.368,0.11c-0.155-0.741-0.327-1.479-0.503-2.21
		C386.437,549.849,385.764,550.528,385.323,551.373 M388.333,549.552C387.791,550.576,389.481,549.611,388.333,549.552
		 M414.707,549.621c-0.634,0.476-1.027,1.179-1.448,1.831c1.103,0.059,2.21,0.079,3.32,0.083c-0.01-0.724-0.017-1.451-0.024-2.175
		C415.931,549.432,415.307,549.463,414.707,549.621 M429.225,549.507c-0.507,0.148-0.338,1.072,0.21,0.931
		C429.935,550.29,429.766,549.366,429.225,549.507 M449.355,549.552C448.817,550.58,450.5,549.604,449.355,549.552 M495.777,551.297
		c0.569-0.545,1.048-1.186,1.189-1.982C496.442,549.89,496.049,550.569,495.777,551.297 M510.46,549.645
		c-0.483-0.1-0.917,0.752-0.327,0.889C510.622,550.662,511.026,549.79,510.46,549.645 M524.254,549.518
		c-0.617,0.176-0.427,1.276,0.255,1.017C525.133,550.38,524.919,549.256,524.254,549.518 M531.435,549.514
		c-0.186,0.562,0.007,0.752,0.572,0.572C532.18,549.525,531.99,549.335,531.435,549.514 M532.47,549.576
		c-0.148,0.483,0.024,0.652,0.51,0.51C533.118,549.604,532.949,549.432,532.47,549.576 M295.637,549.925
		C295.134,550.959,296.789,549.949,295.637,549.925 M442.115,549.897C441.574,550.921,443.26,549.956,442.115,549.897
		 M511.474,549.89C511.643,550.066,511.643,550.066,511.474,549.89 M547.673,549.893
		C547.842,550.066,547.842,550.066,547.673,549.893 M563.188,549.89C563.357,550.066,563.357,550.066,563.188,549.89
		 M124.651,550.238C124.827,550.411,124.827,550.411,124.651,550.238 M346.083,551.076c0.517,0.055,1.038,0.114,1.565,0.172
		c-0.169-0.4-0.334-0.8-0.496-1.2C346.793,550.39,346.434,550.731,346.083,551.076 M427.735,550.307
		c-0.062,0.4-0.121,0.803-0.176,1.207c0.269,0,0.807,0.007,1.072,0.007c0.003-0.472,0.007-0.945,0.014-1.417
		C428.418,550.156,427.963,550.255,427.735,550.307 M420.547,550.359c0.303,0.886,1.183,1.1,2.01,1.251
		C421.981,551.052,421.319,550.59,420.547,550.359 M262.561,551.211C262.613,552.359,263.589,550.676,262.561,551.211
		 M263.592,551.273C263.764,551.448,263.764,551.448,263.592,551.273 M268.419,551.276
		C268.591,551.452,268.591,551.452,268.419,551.276 M528.364,551.273C528.536,551.448,528.536,551.448,528.364,551.273
		 M531.297,551.293c0.072,0.438,0.789,0.293,1.127,0.334c0.186,0.038,1.1-0.152,0.61-0.438
		C532.476,551.038,531.79,550.962,531.297,551.293 M534.428,551.283c0.079,0.541,1.396,0.541,1.486,0
		C535.517,550.948,534.81,550.948,534.428,551.283 M94.65,551.831c-0.348,0.238-0.348,0.869,0,1.107
		C95.243,553.024,95.243,551.748,94.65,551.831 M126.061,551.269c-0.124,1.086-0.134,2.182-0.021,3.272
		C126.905,553.665,127.143,552.083,126.061,551.269 M128.667,551.541c0.028,1.017,0.069,2.034,0.138,3.051
		c1.458-0.062,2.906-0.248,4.361-0.362c0.003,0.272,0.014,0.81,0.017,1.079c-1.5,0.003-2.999,0.007-4.499,0.021
		c0.014,0.993,0.031,1.986,0.052,2.979c1.676-0.079,3.885,0.593,4.968-1.12c0.39-1.851,0.1-3.772,0.148-5.654
		C132.122,551.51,130.394,551.507,128.667,551.541 M135.045,551.604c-1.141,0.545-0.758,1.982-0.879,2.992
		c1.052,0.021,2.103,0.038,3.151,0.055c0,0.159,0,0.479,0,0.641c-1.041,0.017-2.082,0.038-3.12,0.059
		c0.024,0.4,0.048,0.803,0.076,1.207c0.217,0.065,0.658,0.196,0.879,0.259c-0.079,0.531-0.162,1.062-0.234,1.596
		c0.655,0.003,1.314,0.007,1.969,0.014c0.069-0.621,0.134-1.238,0.207-1.858c0.662,0.255,1.32,0.527,1.979,0.8
		c-0.014-0.662-0.031-1.32-0.045-1.979c-0.476-0.045-0.955-0.09-1.431-0.131c0.459-0.365,1.024-0.634,1.369-1.124
		c0.093-0.593,0.086-1.193,0.11-1.786C137.796,551.886,136.438,551.19,135.045,551.604 M143.271,551.617
		C143.447,551.79,143.447,551.79,143.271,551.617 M481.418,551.6C480.88,552.624,482.566,551.652,481.418,551.6 M482.862,551.555
		C482.907,552.703,483.89,551.024,482.862,551.555 M496.928,551.6C496.397,552.627,498.076,551.645,496.928,551.6 M497.966,551.6
		C497.432,552.624,499.111,551.645,497.966,551.6 M509.405,551.617C509.574,551.793,509.574,551.793,509.405,551.617
		 M522.789,551.607C522.251,552.631,523.933,551.659,522.789,551.607 M124.764,552.048c-0.148,2.069-0.917,4.03-0.979,6.106
		c0.259-0.055,0.776-0.172,1.034-0.231C124.94,555.968,125.03,553.996,124.764,552.048 M139.965,552.2
		c0.176,0.772,0.376,1.541,0.586,2.306c0.338-0.514,0.665-1.034,0.989-1.555C141.016,552.7,140.492,552.448,139.965,552.2
		 M127.757,552.652C127.933,552.827,127.933,552.827,127.757,552.652 M146.122,552.603c0.228,0.81,0.555,1.596,1.055,2.279
		c0.083-0.776,0.138-1.555,0.183-2.334C147.053,552.562,146.433,552.59,146.122,552.603 M127.757,553.341
		C127.933,553.517,127.933,553.517,127.757,553.341 M94.702,553.407c-0.114,0.972-0.155,1.951-0.183,2.93l0.459,0.017
		C94.946,555.368,94.884,554.379,94.702,553.407 M95.619,554.165c-0.021,0.848-0.024,1.696-0.028,2.548
		c0.259-0.017,0.779-0.052,1.041-0.069c0.01-0.386,0.017-0.772,0.028-1.155c-0.148-0.007-0.445-0.024-0.59-0.031
		C95.922,555.024,95.774,554.593,95.619,554.165 M125.937,555.317c-0.003,0.941-0.003,1.882-0.007,2.824c0.179,0,0.531,0,0.71,0
		c-0.003-0.941-0.003-1.882-0.007-2.824C126.461,555.317,126.113,555.317,125.937,555.317 M143.323,555.389
		c-0.914,0.39-0.783,1.507-0.938,2.317c0.562-0.072,1.127-0.148,1.689-0.228c0.097,0.272,0.286,0.821,0.383,1.096
		c1.096-0.621,1.972-1.558,1.982-2.889C145.422,555.475,144.361,555.113,143.323,555.389 M140.044,555.654
		c0.024,1.003,0.059,2.007,0.152,3.006c0.989-0.676,0.889-1.924,0.979-2.975C140.892,555.679,140.327,555.661,140.044,555.654
		 M119.479,556.444C119.655,556.616,119.655,556.616,119.479,556.444 M127.754,556.444
		C127.929,556.62,127.929,556.62,127.754,556.444 M116.035,557.478C116.208,557.654,116.208,557.654,116.035,557.478z"/>
	<path fill="#010101" d="M159.096,506.075c0.559-0.179,0.752,0.01,0.572,0.572C159.106,506.826,158.916,506.637,159.096,506.075z"/>
	<path fill="#010101" d="M158.878,507.781c0.393-0.324,0.614-0.234,0.662,0.262C159.144,508.364,158.923,508.278,158.878,507.781z"
		/>
	<path fill="#010101" d="M145.329,532.873c0.593-0.086,0.593,1.189,0,1.107C144.981,533.738,144.981,533.111,145.329,532.873z"/>
	<path fill="#010101" d="M143.53,532.907c0.169,0,0.507,0,0.679,0c-0.014,1.572,0.31,3.275-0.541,4.703
		C143.464,536.048,143.495,534.476,143.53,532.907z"/>
	<path fill="#010101" d="M310.1,538.137c0.559-0.179,0.748,0.01,0.572,0.572C310.11,538.889,309.917,538.699,310.1,538.137z"/>
	<path fill="#010101" d="M104.42,550.617c0.6-0.224,1.203-0.434,1.81-0.641c-0.1,0.396-0.2,0.793-0.3,1.189
		C105.427,550.983,104.924,550.8,104.42,550.617z"/>
	<path fill="#010101" d="M110.085,550.497c2.755-0.017,5.513-0.017,8.267,0c0,0.169,0.003,0.507,0.003,0.676
		c-2.758,0.017-5.516,0.017-8.274,0.003C110.081,551.004,110.085,550.666,110.085,550.497z"/>
	<path fill="#010101" d="M97.039,553.651c0.562-0.179,0.752,0.01,0.572,0.572C97.049,554.403,96.86,554.21,97.039,553.651z"/>
	<path fill="#010101" d="M98.49,553.641c0.996-0.11,2.048-0.11,2.844,0.596C100.335,554.348,99.29,554.337,98.49,553.641z"/>
	<path fill="#010101" d="M101.807,553.579c1.51-0.01,3.02,0.031,4.52,0.166c-0.003,0.186-0.01,0.555-0.014,0.741
		c-1.5-0.141-3.006-0.203-4.509-0.238C101.804,554.079,101.807,553.745,101.807,553.579z"/>
</g>
</svg>
