<?xml version="1.0" encoding="iso-8859-1"?>
<!-- Generator: Adobe Illustrator 25.4.1, SVG Export Plug-In . SVG Version: 6.00 Build 0)  -->
<svg version="1.1" id="Layer_1" xmlns="http://www.w3.org/2000/svg" xmlns:xlink="http://www.w3.org/1999/xlink" x="0px" y="0px"
	 viewBox="0 0 800 800" enable-background="new 0 0 800 800" xml:space="preserve">
<path fill="#fff" d="M666.6,275l-122-7.6v-8.5h-4.3v8.2l-4.2-0.3v-13.7h-4.3v13.5l-4.4-0.3v-20.4h-4.3V266l-87.6-5.5c0,0,0-7.2,0-16
	c0-7.6-3.2-8.3-4.1-8.4h4.1c0,0,0-33.5,0-49.5c0-16-8.4-17.1-8.4-17.1h-21.4l-0.5-2.9l5.8,0l-5.2-8.2c0,0,0-2,0-4.9
	c19-0.3,71.7-1.4,66.5-4.7c0,0-11.3-4-66.5-4.3c0-0.2,0-0.3,0-0.5c0-7.1-5.7-7.2-5.7-7.2h-0.1c0,0-5.7,0.1-5.7,7.2
	c0,0.2,0,0.3,0,0.5c-55.2,0.3-66.5,4.3-66.5,4.3c-5.2,3.3,47.5,4.4,66.5,4.7c0,2.9,0,4.9,0,4.9l-5.7,8.2l6.3,0l-0.5,2.9h-21.4
	c0,0-8.4,1.1-8.4,17.1c0,16,0,49.5,0,49.5h4.1c-0.9,0-4.1,0.7-4.1,8.4c0,8.8,0,16,0,16l-87.6,5.5v-20.2h-4.3v20.4l-4.4,0.3v-13.5
	h-4.3v13.7l-4.2,0.3v-8.2h-4.3v8.5l-122,7.6c0,0-33.4,6.5-33.4,32.6s30.5,42,30.5,42s30.9,28,114.1,35.9
	c83.2,7.9,112.6,13.3,112.6,13.3s10,1.1,11.1,20.5c1.1,19.4,9.7,121.3,17.9,153.5c-21.5,7.2-90.8,34.1-90.8,34.1
	s-11.8,9.7-11.8,19.7c0,10.1,3.6,11.8,17.6,18.3c14,6.5,31.6,12.2,70.3,13.6c4.7-1.8,24.8-10,24.8-24c0.7,9,1.8,30.5,1.8,30.5h3.7
	c0,0,1.1-21.5,1.8-30.5c0,14,20.1,22.2,24.8,24c38.7-1.4,56.3-7.2,70.3-13.6c14-6.5,17.6-8.3,17.6-18.3c0-10-11.8-19.7-11.8-19.7
	s-69.2-26.9-90.8-34.1c8.3-32.3,16.9-134.2,17.9-153.5c1.1-19.4,11.1-20.5,11.1-20.5s29.4-5.4,112.6-13.3
	c83.2-7.9,114.1-35.9,114.1-35.9s30.5-15.8,30.5-42S666.6,275,666.6,275z"/>
</svg>
