<?xml version="1.0" encoding="iso-8859-1"?>
<!-- Generator: Adobe Illustrator 26.0.1, SVG Export Plug-In . SVG Version: 6.00 Build 0)  -->
<svg version="1.1" id="Layer_1" xmlns="http://www.w3.org/2000/svg" xmlns:xlink="http://www.w3.org/1999/xlink" x="0px" y="0px"
	 viewBox="0 0 800 800" enable-background="new 0 0 800 800" xml:space="preserve">
<path d="M551.466,328.463l-69.309-4.339v-4.827h-2.444v4.676l-2.394-0.151v-7.793h-2.444v7.642l-2.499-0.156v-11.608h-2.444v11.452
	l-49.783-3.116c0,0,0-4.077,0-9.101c0-4.339-1.817-4.732-2.315-4.757h2.315c0,0,0-19.023,0-28.124c0-9.106-4.754-9.716-4.754-9.716
	h-12.162l-0.27-1.626l3.29-0.015l-2.952-4.677c0,0,0-1.127,0-2.769c10.803-0.171,40.722-0.81,37.764-2.663
	c0,0-6.433-2.265-37.764-2.436c0-0.096,0-0.191,0-0.282c0-4.007-3.26-4.077-3.26-4.077h-0.083c0,0-3.259,0.07-3.259,4.077
	c0,0.091,0,0.186,0,0.282c-31.331,0.171-37.764,2.436-37.764,2.436c-2.957,1.853,26.962,2.492,37.764,2.663c0,1.641,0,2.769,0,2.769
	l-3.222,4.677l3.564,0.015l-0.274,1.626h-12.162c0,0-4.755,0.609-4.755,9.716c0,9.101,0,28.124,0,28.124h2.316
	c-0.493,0.025-2.316,0.418-2.316,4.757c0,5.024,0,9.101,0,9.101l-49.783,3.116v-11.452h-2.444v11.608l-2.497,0.156v-7.642h-2.444
	v7.793l-2.396,0.151v-4.676h-2.444v4.827l-69.309,4.339c0,0-18.955,3.665-18.955,18.545s17.322,23.851,17.322,23.851
	s17.528,15.892,64.814,20.377c47.278,4.485,63.991,7.541,63.991,7.541s5.709,0.609,6.32,11.618
	c0.612,11.004,5.505,68.884,10.191,87.227c-12.23,4.078-51.563,19.361-51.563,19.361s-6.725,5.502-6.725,11.205
	c0,5.713,2.039,6.73,9.985,10.4c7.949,3.67,17.936,6.932,39.944,7.742c2.65-1.017,14.062-5.704,14.062-13.652
	c0.41,5.094,1.022,17.322,1.022,17.322h2.117c0,0,0.612-12.228,1.022-17.322c0,7.949,11.412,12.635,14.063,13.652
	c22.011-0.811,31.995-4.073,39.944-7.742c7.946-3.67,9.985-4.687,9.985-10.4c0-5.703-6.725-11.205-6.725-11.205
	s-39.332-15.283-51.562-19.361c4.687-18.343,9.58-76.223,10.191-87.227c0.612-11.009,6.32-11.618,6.32-11.618
	s16.713-3.056,63.991-7.541c47.286-4.485,64.814-20.377,64.814-20.377s17.322-8.971,17.322-23.851S551.466,328.463,551.466,328.463z
	"/>
</svg>
