<svg version="1.2" baseProfile="tiny" xmlns="http://www.w3.org/2000/svg" viewBox="0 0 75 75" overflow="visible" xml:space="preserve"><path fill="#B12625" d="M-75.012 18.8h75v18.8h-75z"/><path fill="#ED2224" d="M0 0h75v75H0z"/><path fill="#B12625" d="M-.012 18.8h75v18.8h-75z"/><path fill="#FFF" d="M59.688 19.7v17h-26.5v-17h26.5zm-1.5 1.4h-23.6v14.2h23.6V21.1zm-20.7 10.1c-.8-.8-1.2-1.9-1.2-3 0-2.3 1.9-4.2 4.2-4.2h11.8c2.3 0 4.2 2 4.2 4.3s-1.9 4.2-4.2 4.2h-11.8c-1.1 0-2.2-.5-3-1.3zm.2-3c0 .8.3 1.5.8 2s1.2.9 2 .9h11.8c1.5 0 2.8-1.3 2.8-2.8 0-1.6-1.2-2.9-2.8-2.9h-11.8c-1.5 0-2.7 1.3-2.8 2.8z"/><g fill="#FFF"><path d="M10.088 45c1.7.1 2.8-.5 2.8-2.3 0-1.3-.6-2.2-1.9-2.2-1.5 0-1.8 1.1-1.7 2.3h-1.8c-.1-2.4 1-3.8 3.6-3.8 2.4 0 3.8 1.2 3.8 3.6 0 2.6-1.9 3-2.7 3.2 2.2.3 2.9 1.5 2.9 3.5 0 2.7-1.5 4-4.1 4-3.9 0-3.6-3.3-3.6-4.1h1.8c0 1.4.2 2.6 1.9 2.6 1.6 0 2.1-1 2.1-2.5 0-2.2-.8-2.7-3-2.7V45zM15.488 53.1v-1.6c4.1-5.7 5.3-6.7 5.3-9.1 0-1.1-.5-1.8-1.7-1.8-1.4 0-1.6 1.1-1.6 2.3h-1.9c-.2-2.3 1-3.8 3.4-3.8 2.5 0 3.7 1.1 3.7 3.6 0 3.1-1.6 4.1-5.1 8.9h5.5v1.6h-7.6zM31.588 38.7h2.3l4.7 14.4h-2.1l-1-3.4h-5.6l-1.1 3.4h-1.9l4.7-14.4zm1.1 1.7-2.3 7.7h4.6l-2.3-7.7zM41.088 44.5c.7-1.5 1.6-1.7 3.2-1.7v1.7c-.1 0-.3 0-.4-.1h-.4c-1.8 0-2.3 1.4-2.3 2.7v6h-1.6V43h1.6v1.5zM49.988 53.1v-7c0-1-.3-2-1.6-2-.5 0-1.2.3-1.4.7-.3.5-.4 1.1-.4 1.5v6.8h-1.6v-8c0-.7 0-1.4-.1-2.1h1.7v1.3c.5-1.1 1.3-1.5 2.5-1.5.9 0 2 .4 2.4 1.3.6-1.1 1.5-1.3 2.4-1.3 1.1 0 2.8.2 2.8 2.6v7.7h-1.6v-7c0-1-.3-2-1.6-2-.6 0-.8 0-1.2.4-.5.4-.6 1.4-.6 1.8v6.8h-1.7zM61.488 51.2l2.5-8.2h1.8l-4.6 13.9h-1.7l1.1-3.8-3.4-10.1h1.9l2.4 8.2z"/></g><path fill="#FFF" d="m44.688 9.5 1.9 2.8 1.9-2.8h1.2l-2.6 3.5 2.7 3.8h-1.3l-2.1-3.1-2.2 3.1h-1.2l2.8-3.8-2.5-3.4h1.4z"/><g fill="#FFF"><path d="M12.088 35.4c-.9-2.1-1.9-4.8-1.9-7.1 0-1.3.3-2.5.7-3.7.4-1.4.9-2.5 1.1-3.2h1.1c-.3.8-.6 1.9-.9 3.4-.3 1.5-.4 2.5-.4 3.5 0 2.3.6 4.1 1.5 7.2h-1.2zM15.188 32l2.9-2.8c.6-.6 1.2-1.2 1.7-1.9.6-.9.8-1.4.8-2 0-.5-.2-1.8-1.8-1.8-1.8 0-1.8 1.5-1.8 1.9h-1.7c0-.5.1-1.6 1-2.4.8-.7 1.7-.8 2.4-.8 1.7 0 3.4.9 3.4 3.2 0 .7 0 1.2-1.2 2.8-.3.4-1.7 1.9-2 2.2l-1.9 1.8h5.3v1.3h-7V32zM25.488 21.4c.9 2.1 1.9 4.8 1.9 7.1 0 1.3-.3 2.5-.7 3.7-.4 1.4-.9 2.5-1.1 3.2h-1.1c.3-.8.6-1.9.9-3.4.3-1.5.4-2.5.4-3.5 0-2.3-.6-4.1-1.5-7.1h1.2z"/></g><path fill="#FFF" d="M35.388 65.5v-1c2.4-3.4 3.2-4 3.2-5.5 0-.7-.3-1.1-1-1.1-.8 0-1 .7-1 1.4h-1.1c-.1-1.4.6-2.3 2-2.3 1.5 0 2.2.7 2.2 2.2 0 1.9-.9 2.5-3.1 5.3h3.3v1h-4.5z"/></svg>