<svg version="1.2" baseProfile="tiny" xmlns="http://www.w3.org/2000/svg" viewBox="0 0 75 75" overflow="visible" xml:space="preserve"><path fill="#ED2224" d="M0 0h75v75H0z"/><path fill="#FFF" d="M59.688 19.7v17h-26.5v-17h26.5zm-25.1 1.4v13.1l10.9-13.1h-10.9zm.9 14.2h21.8l-3.8-4.6h-4.4c-.3 1.1-1.4 2-2.7 2-1.3 0-2.4-.8-2.7-2h-4.4l-3.8 4.6zm5-5.9h3.3c.4-1.1 1.4-1.8 2.6-1.8 1.2 0 2.3.8 2.6 1.8h3.3l-5.9-7.1-5.9 7.1zm17.7-8.3h-10.9l10.9 13.1V21.1z"/><g fill="#FFF"><path d="M13.588 53.1h-1.8V41.2l-2.1 1.4v-1.8c.5-.2 1.8-1.2 2.3-1.7h1.6v14zM23.788 46.2c0 3.6 0 7.2-3.7 7.2s-3.7-3.6-3.7-7.2c0-3.7-.1-7.2 3.7-7.2s3.7 3.5 3.7 7.2zm-5.6.4c0 2.3-.1 5.3 1.9 5.3s1.9-2.9 1.9-5.3c0-3.7 0-6-1.9-6s-1.9 2.3-1.9 6zM24.388 53.1v-1.6c4.1-5.7 5.3-6.7 5.3-9.1 0-1.1-.5-1.8-1.7-1.8-1.4 0-1.6 1.1-1.6 2.3h-1.9c-.2-2.3 1-3.8 3.4-3.8 2.5 0 3.7 1.1 3.7 3.6 0 3.1-1.6 4.1-5.1 8.9h5.5v1.6h-7.6zM34.388 55.5c-.9-2.8-2-5.7-2-8.6 0-3.1 1.1-5.9 2-8.8h1.2c-.7 2.9-1.3 5.9-1.3 8.9 0 2.9.6 5.8 1.3 8.6h-1.2zM47.588 38.7v14.4h-2.5l-5.7-12.5v12.5h-1.6V38.7h2.6l5.6 12.4V38.7h1.6zM49.988 53.1V38.7h1.8v6.2h5.1v-6.2h1.8v14.4h-1.8v-6.6h-5.1v6.6h-1.8zM60.888 55.5c.7-2.8 1.3-5.7 1.3-8.6 0-3-.6-6-1.3-8.9h1.2c.9 2.9 2 5.8 2 8.8 0 3-1.1 5.8-2 8.6h-1.2z"/></g><g fill="#FFF"><path d="M43.288 9.5h1v7.2h-1V9.5zM46.088 9.5h1v7.2h-1V9.5zM48.788 9.5h1v7.2h-1V9.5z"/></g><path fill="#FFF" d="M24.088 24.1c-.7.6-1.8 1.2-2.6 1.6v-1.6c1-.5 2.1-1.2 2.7-1.7h1.4v11.1h-1.5v-9.4z"/><g fill="#FFF"><path d="M24.688 65.5v-1c2.4-3.4 3.2-4 3.2-5.5 0-.7-.3-1.1-1-1.1-.8 0-1 .7-1 1.4h-1.1c-.1-1.4.6-2.3 2-2.3 1.5 0 2.2.7 2.2 2.2 0 1.9-.9 2.5-3.1 5.3h3.3v1h-4.5zM30.088 65.5v-8.7h2.6c1.2 0 2.4.4 2.4 2.5 0 2-1.5 2.4-2.4 2.4h-1.5v3.8h-1.1zm1.1-4.7h1.2c.5 0 1.5-.1 1.5-1.5 0-1.3-1-1.5-1.2-1.5h-1.5v3zM37.788 65.6c-1.3 0-2.1-.6-2.1-2h1.1c0 .3 0 1.2 1 1.2.6 0 1-.3 1-.9 0-1.1-3-1.1-3-2.9 0-.6.4-1.7 2.1-1.7 1.1 0 2 .5 1.9 1.7h-1.1c0-.6-.3-1-.9-1-.5 0-.9.3-.9.8 0 1.1 3 1 3 2.9 0 1.4-.9 1.9-2.1 1.9zM40.988 59.5v-1.2l1-.4v1.6h1.3v.7h-1.3v3.7c0 .4 0 .9.9.9h.4v.8c-.3 0-.6.1-1 .1-.9 0-1.4-.4-1.4-1.1v-4.3h-1v-.8h1.1z"/><path d="M43.388 66.7h-.8l2.8-9.8h.8l-2.8 9.8zM46.188 65.5v-1c2.4-3.4 3.2-4 3.2-5.5 0-.7-.3-1.1-1-1.1-.8 0-1 .7-1 1.4h-1.1c-.1-1.4.6-2.3 2-2.3 1.5 0 2.2.7 2.2 2.2 0 1.9-.9 2.5-3.1 5.3h3.3v1h-4.5z"/></g></svg>