<svg version="1.2" baseProfile="tiny" xmlns="http://www.w3.org/2000/svg" viewBox="0 0 75 75" overflow="visible" xml:space="preserve"><path fill="#B12625" d="M-75.012 18.7h75v18.8h-75z"/><path fill="#ED2224" d="M0 0h75v75H0z"/><path fill="#FFF" d="M59.688 19.7v17h-26.5v-17h26.5zm-1.5 1.4h-23.6v14.2h23.6V21.1zm-20.7 10.1c-.8-.8-1.2-1.9-1.2-3 0-2.3 1.9-4.2 4.2-4.2h11.8c2.3 0 4.2 2 4.2 4.3s-1.9 4.2-4.2 4.2h-11.8c-1.1 0-2.2-.5-3-1.3zm.2-3c0 .8.3 1.5.8 2s1.2.9 2 .9h11.8c1.5 0 2.8-1.3 2.8-2.8 0-1.6-1.2-2.9-2.8-2.9h-11.8c-1.5 0-2.7 1.3-2.8 2.8zM32.588 39.2h7.2v1.6l-3.7 12.3h-2.1l3.9-12.3h-5.3v-1.6z"/><g fill="#FFF"><path d="M44.688 9.5h1v7.2h-1V9.5zM47.488 9.5h1v7.2h-1V9.5z"/></g><path fill="#FFF" d="M24.088 24.1c-.7.6-1.8 1.2-2.6 1.6v-1.6c1-.5 2.1-1.2 2.7-1.7h1.4v11.1h-1.5v-9.4zM35.288 57.2h4.3v1l-2.2 7.4h-1.2l2.3-7.4h-3.2v-1z"/></svg>