<svg version="1.2" baseProfile="tiny" xmlns="http://www.w3.org/2000/svg" viewBox="0 0 75 75" overflow="visible" xml:space="preserve"><path fill="#B12625" d="M-75.012 18.7h75v18.8h-75z"/><path fill="#ED2224" d="M0 0h75v75H0z"/><path fill="#B12625" d="M-.012 18.7h75v18.8h-75z"/><path fill="#FFF" d="M59.688 19.7v17h-26.5v-17h26.5zm-18.8 10c0 .4-.1.8-.2 1.2l4.3-2.6-10.4-6.3v5.5c.6-.8 1.6-1.4 2.8-1.4 1.9 0 3.5 1.6 3.5 3.6zm-6.3 2.1v2.7l2.2-1.3c-.9-.2-1.7-.7-2.2-1.4zm4.9-2.1c0-1.2-1-2.1-2.1-2.1-1.2 0-2.1 1-2.1 2.1 0 1.2 1 2.1 2.1 2.1 1.2 0 2.1-1 2.1-2.1zm17.4-8.6h-20.9l10.4 6.3 10.5-6.3zm-20.9 14.2h20.9l-10.4-6.3-10.5 6.3zm22.2-7.8V22l-10.4 6.3 4.3 2.6c-.1-.4-.2-.8-.2-1.2 0-2 1.6-3.5 3.5-3.5 1.2-.1 2.2.5 2.8 1.3zm-2.7 4.3c1.2 0 2.1-1 2.1-2.1 0-1.2-1-2.1-2.1-2.1-1.2 0-2.1 1-2.1 2.1-.1 1.1.9 2.1 2.1 2.1zm.5 1.4 2.2 1.3v-2.7c-.5.7-1.3 1.2-2.2 1.4z"/><g fill="#FFF"><path d="M17.388 39.2h7.2v1.6l-3.7 12.3h-2.1l3.9-12.3h-5.3v-1.6zM32.288 53.1h-1.7V38.7h3l3.6 12.1 3.7-12.1h3v14.4h-1.8V40.3l-4 12.8h-1.7l-4-12.8v12.8zM46.188 43v-1.9l1.6-.7v2.7h2.2v1.2h-2.2v6.2c0 .6 0 1.5 1.5 1.5.1 0 .4 0 .7-.1v1.3c-.5 0-1.1.2-1.6.2-1.6 0-2.3-.6-2.3-1.8v-7.2h-1.7v-1.2h1.8zM52.288 44.5c.7-1.5 1.6-1.7 3.2-1.7v1.7c-.1 0-.3 0-.4-.1h-.4c-1.8 0-2.3 1.4-2.3 2.7v6h-1.6V43h1.6v1.5z"/></g><path fill="#FFF" d="m44.688 9.5 1.9 2.8 1.9-2.8h1.2l-2.6 3.5 2.7 3.8h-1.3l-2.1-3.1-2.2 3.1h-1.2l2.8-3.8-2.5-3.4h1.4z"/><g fill="#FFF"><path d="M12.088 35.4c-.9-2.1-1.9-4.8-1.9-7.1 0-1.3.3-2.5.7-3.7.4-1.4.9-2.5 1.1-3.2h1.1c-.3.8-.6 1.9-.9 3.4-.3 1.5-.4 2.5-.4 3.5 0 2.3.6 4.1 1.5 7.2h-1.2zM15.188 32l2.9-2.8c.6-.6 1.2-1.2 1.7-1.9.6-.9.8-1.4.8-2 0-.5-.2-1.8-1.8-1.8-1.8 0-1.8 1.5-1.8 1.9h-1.7c0-.5.1-1.6 1-2.4.8-.7 1.7-.8 2.4-.8 1.7 0 3.4.9 3.4 3.2 0 .7 0 1.2-1.2 2.8-.3.4-1.7 1.9-2 2.2l-1.9 1.8h5.3v1.3h-7V32zM25.488 21.4c.9 2.1 1.9 4.8 1.9 7.1 0 1.3-.3 2.5-.7 3.7-.4 1.4-.9 2.5-1.1 3.2h-1.1c.3-.8.6-1.9.9-3.4.3-1.5.4-2.5.4-3.5 0-2.3-.6-4.1-1.5-7.1h1.2z"/></g><path fill="#FFF" d="M35.288 57.2h4.3v1l-2.2 7.4h-1.2l2.3-7.4h-3.2v-1z"/></svg>