<svg version="1.2" baseProfile="tiny" xmlns="http://www.w3.org/2000/svg" viewBox="0 0 75 75" overflow="visible" xml:space="preserve"><path fill="#ED2224" d="M0 0h75v75H0z"/><path fill="#FFF" d="M59.688 19.7v17h-26.5v-17h26.5zm-25.1 1.4v13.1l10.9-13.1h-10.9zm.9 14.2h21.8l-10.9-13.1-10.9 13.1zm8.2-5.2c0-1.4 1.2-2.6 2.8-2.6 1.5 0 2.8 1.2 2.8 2.6 0 1.4-1.2 2.6-2.8 2.6-1.6 0-2.8-1.1-2.8-2.6zm14.5-9h-10.9l10.9 13.1V21.1z"/><g fill="#FFF"><path d="M16.888 45c1.7.1 2.8-.5 2.8-2.3 0-1.3-.6-2.2-1.9-2.2-1.5 0-1.8 1.1-1.7 2.3h-1.8c-.1-2.4 1-3.8 3.6-3.8 2.4 0 3.8 1.2 3.8 3.6 0 2.6-1.9 3-2.7 3.2 2.2.3 2.9 1.5 2.9 3.5 0 2.7-1.5 4-4.1 4-3.9 0-3.6-3.3-3.6-4.1h1.8c0 1.4.2 2.6 1.9 2.6 1.6 0 2.1-1 2.1-2.5 0-2.2-.8-2.7-3-2.7V45zM28.988 46.5v6.6h-1.8V38.7h5c2.6 0 3.5 1.8 3.5 3.6 0 1.7-.9 3-2.6 3.3 1.7.3 2.3.8 2.4 3.7 0 .6.2 2.9.5 3.8h-1.9c-.5-1-.4-2.9-.6-4.8-.1-1.8-1.6-1.8-2.2-1.8h-2.3zm0-1.6h2.8c1.3 0 2-1.1 2-2.4 0-1-.5-2.2-1.9-2.2h-2.8v4.6zM37.388 53.1V38.7h1.8v6.2h5.1v-6.2h1.8v14.4h-1.8v-6.6h-5.1v6.6h-1.8zM51.788 38.7h2.3l4.7 14.4h-2.1l-1-3.4h-5.6l-1.1 3.4h-1.9l4.7-14.4zm1.1 1.7-2.3 7.7h4.6l-2.3-7.7z"/></g><g fill="#FFF"><path d="M44.688 9.5h1v7.2h-1V9.5zM47.488 9.5h1v7.2h-1V9.5z"/></g><path fill="#FFF" d="M24.088 24.1c-.7.6-1.8 1.2-2.6 1.6v-1.6c1-.5 2.1-1.2 2.7-1.7h1.4v11.1h-1.5v-9.4z"/><g fill="#FFF"><path d="M24.188 57.2h4.3v1l-2.2 7.4h-1.2l2.3-7.4h-3.2v-1zM30.488 63v.3c0 1.2.7 1.5 1.5 1.5.9 0 1.5-.4 1.5-1.4 0-1.9-3.9-1.7-3.9-4.3 0-1.5 1.1-2.4 2.5-2.4 1.6 0 2.5.8 2.4 2.5h-1.2c0-.9-.3-1.6-1.3-1.6-.7 0-1.3.3-1.3 1.3 0 1.9 3.9 1.6 3.9 4.4 0 1.8-1.3 2.4-2.7 2.4-2.6 0-2.6-1.9-2.5-2.8h1.1zM36.788 60.2c.4-.6.8-.8 1.4-.8 1 0 2 .4 2 3 0 1.5 0 3.2-2 3.2-.6 0-1-.3-1.3-.7v2.9h-1v-8.3h1v.7zm2.3 2.2c0-.9 0-2.2-1.2-2.2s-1.1 1.7-1.1 2.6c0 .8 0 2.1 1.1 2.1 1.1-.1 1.2-.9 1.2-2.5zM41.288 59.5v-1.2l1-.4v1.6h1.3v.7h-1.3v3.7c0 .4 0 .9.9.9h.4v.8c-.3 0-.6.1-1 .1-.9 0-1.4-.4-1.4-1.1v-4.3h-1v-.7h1.1z"/><path d="M43.688 66.7h-.8l2.8-9.8h.8l-2.8 9.8z"/><path d="M46.388 57.2h4.3v1l-2.2 7.4h-1.2l2.3-7.4h-3.2v-1z"/></g></svg>