<svg version="1.2" baseProfile="tiny" xmlns="http://www.w3.org/2000/svg" viewBox="0 0 75 75" overflow="visible" xml:space="preserve"><path fill="#ED2224" d="M0 0h75v75H0z"/><path fill="#FFF" d="M59.688 19.7v17h-26.5v-17h26.5zm-25.1 15.6h4.7c-1.9 0-3.5-1.6-3.5-3.5 0-1.7 1.1-3 2.7-3.4-1.3-.7-2.2-2.1-2.2-3.7 0-1.5.8-2.7 1.9-3.5h-3.6v14.1zm4.7-5.6c-1.2 0-2.1 1-2.1 2.1 0 1.2 1 2.1 2.1 2.1 1.2 0 2.1-1 2.1-2.1.1-1.2-.9-2.1-2.1-2.1zm15.8-5c0-1.6-1.2-2.9-2.8-2.9h-11.8c-1.5 0-2.8 1.3-2.8 2.8 0 1.6 1.2 2.9 2.8 2.9h11.8c1.6 0 2.8-1.2 2.8-2.8zm-10.8 4.2h-2.9c.9.6 1.4 1.7 1.4 2.8 0 1.9-1.6 3.5-3.5 3.5h7c-1.9 0-3.5-1.6-3.5-3.5.1-1.1.7-2.1 1.5-2.8zm2.1.8c-1.2 0-2.1 1-2.1 2.1 0 1.2 1 2.1 2.1 2.1 1.2 0 2.1-1 2.1-2.1.1-1.2-.9-2.1-2.1-2.1zm11.8 5.6V21.1h-3.6c1.2.8 1.9 2.1 1.9 3.6 0 1.6-.9 2.9-2.1 3.6 1.5.4 2.7 1.8 2.7 3.4 0 2-1.6 3.5-3.5 3.5-2 0-3.5-1.6-3.5-3.5 0-1.2.6-2.2 1.4-2.8h-2.9c.9.6 1.4 1.7 1.4 2.8 0 1.9-1.6 3.5-3.5 3.5h11.7zm-6.8-3.5c0 1.2 1 2.1 2.1 2.1 1.2 0 2.1-1 2.1-2.1 0-1.2-1-2.1-2.1-2.1-1.2 0-2.1.9-2.1 2.1z"/><g fill="#FFF"><path d="M7.088 53.1v-1.6c4.1-5.7 5.3-6.7 5.3-9.1 0-1.1-.5-1.8-1.7-1.8-1.4 0-1.6 1.1-1.6 2.3h-1.9c-.2-2.3 1-3.8 3.4-3.8 2.5 0 3.7 1.1 3.7 3.6 0 3.1-1.6 4.1-5.1 8.9h5.5v1.6h-7.6zM15.788 38.7h4.4c1.8 0 3.2.7 3.9 2.2.6 1.2.6 4.1.6 4.6 0 3.1-.3 4.9-.9 5.8-.8 1.2-2.2 1.9-4.8 1.9h-3.3V38.7zm1.8 12.8h1.7c2.6 0 3.5-1 3.5-4.3v-2.9c0-2.9-.9-4-2.8-4h-2.4v11.2zM28.388 48.6c0 2.8.8 3.4 2 3.4 1.1 0 1.7-.9 1.8-1.9h1.8c0 2.2-1.4 3.3-3.5 3.3s-3.8-.6-3.8-5.1c0-3 .3-5.4 3.8-5.4 2.9 0 3.6 1.6 3.6 4.9v.9h-5.7zm3.9-1.2c0-2.9-.8-3.3-2-3.3-1 0-1.9.5-1.9 3.3h3.9zM37.488 44.5c.7-1.5 1.6-1.7 3.2-1.7v1.7c-.1 0-.3 0-.4-.1h-.4c-1.8 0-2.3 1.4-2.3 2.7v6h-1.6V43h1.6v1.5zM47.988 38.7h1.9l-3.9 8.9v5.5h-1.8v-5.5l-3.9-8.9h2.1l2.8 7 2.8-7zM50.588 48.6c0 2.8.8 3.4 2 3.4 1.1 0 1.7-.9 1.8-1.9h1.8c0 2.2-1.4 3.3-3.5 3.3s-3.8-.6-3.8-5.1c0-3 .3-5.4 3.8-5.4 2.9 0 3.6 1.6 3.6 4.9v.9h-5.7zm4-1.2c0-2.9-.8-3.3-2-3.3-1 0-1.9.5-1.9 3.3h3.9zM57.788 48.2c0-3 .3-5.4 3.8-5.4s3.8 2.4 3.8 5.4c0 4.5-1.7 5.1-3.8 5.1-2.1 0-3.8-.6-3.8-5.1zm5.9-.7c0-2.8-.9-3.4-2.1-3.4s-2.1.6-2.1 3.4c0 3.3.4 4.5 2.1 4.5 1.7 0 2.1-1.2 2.1-4.5z"/></g><g fill="#FFF"><path d="M44.688 9.5h1v7.2h-1V9.5zM47.488 9.5h1v7.2h-1V9.5z"/></g><path fill="#FFF" d="M24.088 24.1c-.7.6-1.8 1.2-2.6 1.6v-1.6c1-.5 2.1-1.2 2.7-1.7h1.4v11.1h-1.5v-9.4zM38.288 61.1c1.2.1 1.5 1.1 1.5 2.2 0 1.5-.8 2.4-2.2 2.4s-2.2-.9-2.2-2.4c0-1.1.3-2 1.5-2.2-1-.2-1.5-1-1.5-2 0-1.3.8-2.1 2.1-2.1s2.1.8 2.1 2.1c.1 1-.4 1.8-1.3 2zm.4 2.2c0-.7-.1-1.7-1.1-1.7s-1.1 1-1.1 1.7.3 1.5 1.1 1.5 1.1-.8 1.1-1.5zm-.1-4.2c0-.6-.3-1.2-1-1.2s-1 .6-1 1.2.2 1.5 1 1.5 1-.9 1-1.5z"/></svg>