<svg version="1.2" baseProfile="tiny" xmlns="http://www.w3.org/2000/svg" viewBox="0 0 75 75" overflow="visible" xml:space="preserve"><path fill="#B12625" d="M-75.012 18.8h75v18.8h-75z"/><path fill="#ED2224" d="M0 0h75v75H0z"/><path fill="#FFF" d="M59.688 19.7v17h-26.5v-17h26.5zm-25.1 2.3v12.5l10.4-6.3-10.4-6.2zm22.3-.9h-20.9l10.4 6.3 10.5-6.3zm-20.9 14.2h20.9l-10.4-6.3-10.5 6.3zm11.8-7.1 10.4 6.3V22l-10.4 6.2z"/><g fill="#FFF"><path d="M17.888 39.2v1.6h-4.6v4c.3-.6 1.3-1 2.2-1 2 0 2.9 1.5 2.9 4.7 0 2.2-.3 4.9-3.8 4.9-2.9 0-3.4-1.6-3.4-3.4h1.8c0 1.1.4 2.1 1.6 2.1 1.7 0 1.9-1.7 1.9-3.1 0-2-.1-3.6-1.8-3.6-1 0-1.5.7-1.7 1.6h-1.7v-7.8h6.6zM23.888 53.1V38.7h7.4v1.6h-5.6v4.6h5.2v1.6h-5.2v5h5.7v1.6h-7.5zM39.288 38.7h1.9l-3.9 8.9v5.5h-1.8v-5.5l-3.9-8.9h2.1l2.8 7 2.8-7zM40.088 48.2c0-3 .3-5.4 3.8-5.4s3.8 2.4 3.8 5.4c0 4.5-1.7 5.1-3.8 5.1s-3.8-.6-3.8-5.1zm5.9-.7c0-2.8-.9-3.4-2.1-3.4-1.3 0-2.1.6-2.1 3.4 0 3.3.4 4.5 2.1 4.5s2.1-1.2 2.1-4.5zM50.988 44.5c.7-1.5 1.6-1.7 3.2-1.7v1.7c-.1 0-.3 0-.4-.1h-.4c-1.8 0-2.3 1.4-2.3 2.7v6h-1.6V43h1.6v1.5zM56.588 53.1h-1.6V38.7h1.6v8.7l3.1-4.4h2l-3.4 4.3 4 5.8h-2.1l-3.6-5.7v5.7z"/></g><g fill="#FFF"><path d="M44.688 9.5h1v7.2h-1V9.5zM47.488 9.5h1v7.2h-1V9.5z"/></g><path fill="#FFF" d="M24.088 24.1c-.7.6-1.8 1.2-2.6 1.6v-1.6c1-.5 2.1-1.2 2.7-1.7h1.4v11.1h-1.5v-9.4z"/><g fill="#FFF"><path d="M26.688 61.4c0-2.2 0-4.3 2.2-4.3 1.2 0 2.1.8 2.1 2h-1.1c0-.6-.3-1.2-1-1.2-.9 0-1.1.8-1.1 3 .3-.5.8-.8 1.4-.8 1.1 0 2 .6 2 2.8 0 1.5-.6 2.8-2.2 2.8-2.3 0-2.3-2.1-2.3-4.3zm2.3 3.4c.9 0 1.1-1 1.1-2.1 0-.8-.2-1.7-1.1-1.7-1 0-1.1 1.1-1.1 1.8-.1.9 0 2 1.1 2zM35.988 61.4c0 2.2 0 4.3-2.2 4.3-1.2 0-2.1-.9-2.1-2.2h1.1c0 .6.2 1.2.9 1.2 1.1 0 1.1-1.2 1.1-3.3-.3.6-.8.8-1.4.8-.7 0-1.9-.3-1.9-2.6 0-1.9 1.1-2.6 2.2-2.6 2.3.1 2.3 2.2 2.3 4.4zm-3.4-1.8c0 .8.2 1.7 1.1 1.7 1 0 1.1-.9 1.1-1.7 0-.8-.2-1.7-1.1-1.7s-1.1.9-1.1 1.7zM36.388 66.7h-.8l2.8-9.8h.8l-2.8 9.8zM43.388 57.2v1h-2.8v2.4c.2-.4.8-.6 1.3-.6 1.2 0 1.7.9 1.7 2.8 0 1.3-.2 2.9-2.3 2.9-1.7 0-2.1-.9-2.1-2.1h1.1c0 .6.3 1.3 1 1.3 1 0 1.1-1 1.1-1.8 0-1.2 0-2.2-1.1-2.2-.6 0-.9.4-1 1h-1v-4.7h4.1zM48.488 61.4c0 2.2 0 4.3-2.2 4.3s-2.2-2.1-2.2-4.3c0-2.2 0-4.3 2.2-4.3s2.2 2.1 2.2 4.3zm-3.4.2c0 1.4-.1 3.2 1.1 3.2s1.1-1.8 1.1-3.2c0-2.2 0-3.6-1.1-3.6s-1.1 1.4-1.1 3.6z"/></g></svg>