<svg version="1.2" baseProfile="tiny" xmlns="http://www.w3.org/2000/svg" viewBox="0 0 75 75" overflow="visible" xml:space="preserve"><path fill="#ED2224" d="M0 0h75v75H0z"/><path fill="#FFF" d="M59.688 19.7v17h-26.5v-17h26.5zm-25.1 2.3v12.5l10.4-6.3-10.4-6.2zm22.3-.9h-20.9l10.4 6.3 10.5-6.3zm-20.9 14.2h20.9l-10.4-6.3-10.5 6.3zm11.8-7.1 10.4 6.3V22l-10.4 6.2z"/><g fill="#FFF"><path d="M18.088 53.1h-1.8V41.2l-2.1 1.4v-1.8c.5-.2 1.8-1.2 2.3-1.7h1.6v14zM32.988 42.5c0-1.7-.7-2.6-2.6-2.6-.6 0-2.7.1-2.7 3.1v4.9c0 3.2.9 4 2.7 4 1.3 0 2.2-.4 2.6-.6V47h-2.7v-1.6h4.5v7c-1.2.6-2.6 1.1-4.4 1.1-3.1 0-4.5-1.6-4.5-5.6v-4.7c0-2.9 1.5-4.7 4.5-4.7 3.1 0 4.6 1.1 4.5 4.2h-1.9zM38.788 44.5c.7-1.5 1.6-1.7 3.2-1.7v1.7c-.1 0-.3 0-.4-.1h-.4c-1.8 0-2.3 1.4-2.3 2.7v6h-1.6V43h1.6v1.5zM48.088 38.7h1.6v14.4h-1.6v-1.2c-.6.9-1.3 1.4-2.3 1.4-1.6 0-3.3-.6-3.3-5.1 0-2.5.1-5.4 3.3-5.4 1 0 1.7.4 2.2 1.2h.1v-5.3zm-1.9 5.5c-1.8 0-2 1.4-2 4.1 0 1.5 0 3.7 2.1 3.7 1.8 0 1.8-2.3 1.8-4.3 0-1.4-.1-3.5-1.9-3.5zM57.188 53.1v-7c0-1.1-.4-2-1.8-2-1.8 0-2.1 1.6-2.1 3v6h-1.6v-8c0-.7 0-1.4-.1-2.1h1.7v1.3h.1c.6-1.1 1.4-1.5 2.7-1.5 2.2 0 2.7 1.3 2.7 3.3v7h-1.6z"/></g><g fill="#FFF"><path d="M44.688 9.5h1v7.2h-1V9.5zM47.488 9.5h1v7.2h-1V9.5z"/></g><path fill="#FFF" d="M24.088 24.1c-.7.6-1.8 1.2-2.6 1.6v-1.6c1-.5 2.1-1.2 2.7-1.7h1.4v11.1h-1.5v-9.4z"/><g fill="#FFF"><path d="M27.288 65.5h-1.1v-7.1l-1.2.8v-1.1c.3-.1 1.1-.7 1.4-1h.9v8.4zM33.288 57.2v1h-2.8v2.4c.2-.4.8-.6 1.3-.6 1.2 0 1.7.9 1.7 2.8 0 1.3-.2 2.9-2.3 2.9-1.7 0-2.1-.9-2.1-2.1h1.1c0 .6.3 1.3 1 1.3 1 0 1.1-1 1.1-1.8 0-1.2 0-2.2-1.1-2.2-.6 0-.9.4-1 1h-1v-4.7h4.1zM35.488 60.7c1 .1 1.7-.3 1.7-1.4 0-.8-.3-1.3-1.2-1.3-.9 0-1.1.7-1 1.4h-1.1c-.1-1.4.6-2.3 2.1-2.3 1.4 0 2.3.7 2.3 2.2 0 1.6-1.2 1.8-1.6 1.9 1.3.2 1.7.9 1.7 2.1 0 1.6-.9 2.4-2.5 2.4-2.3 0-2.1-2-2.1-2.5h1.1c0 .8.1 1.5 1.1 1.5s1.3-.6 1.3-1.5c0-1.3-.5-1.6-1.8-1.6v-.9zM38.888 66.7h-.8l2.8-9.8h.8l-2.8 9.8zM45.788 57.2v1h-2.8v2.4c.2-.4.8-.6 1.3-.6 1.2 0 1.7.9 1.7 2.8 0 1.3-.2 2.9-2.3 2.9-1.7 0-2.1-.9-2.1-2.1h1.1c0 .6.3 1.3 1 1.3 1 0 1.1-1 1.1-1.8 0-1.2 0-2.2-1.1-2.2-.6 0-.9.4-1 1h-1v-4.7h4.1zM49.488 65.5h-1.1v-7.1l-1.2.8v-1.1c.3-.1 1.1-.7 1.4-1h.9v8.4z"/></g><path fill="#ED2224" d="M0 75h75v75H0z"/></svg>