<svg version="1.2" baseProfile="tiny" xmlns="http://www.w3.org/2000/svg" viewBox="0 0 75 75" overflow="visible" xml:space="preserve"><path fill="#ED2224" d="M0 0h75v75H0z"/><path fill="#FFF" d="M59.688 19.7v17h-26.5v-17h26.5zm-25.1 1.4v13.1l10.9-13.1h-10.9zm.9 14.2h21.8l-10.9-13.1-10.9 13.1zm8.2-5.2c0-1.4 1.2-2.6 2.8-2.6 1.5 0 2.8 1.2 2.8 2.6 0 1.4-1.2 2.6-2.8 2.6-1.6 0-2.8-1.1-2.8-2.6zm14.5-9h-10.9l10.9 13.1V21.1z"/><g fill="#FFF"><path d="M28.788 46.2c0-3.7-.1-7.2 3.7-7.2 2.1 0 3.5 1.3 3.4 3.4h-1.8c0-1-.5-2-1.6-2-1.5 0-1.9 1.3-1.9 5 .5-.8 1.3-1.3 2.3-1.3 1.8 0 3.3 1 3.3 4.7 0 2.5-1 4.7-3.7 4.7-3.8-.1-3.7-3.6-3.7-7.3zm3.8 5.7c1.5 0 1.8-1.6 1.8-3.5 0-1.3-.3-2.8-1.9-2.8-1.6 0-1.8 1.8-1.8 3-.1 1.4.1 3.3 1.9 3.3zM41.688 53.1h-1.8V41.3l-2.1 1.4v-1.8c.5-.2 1.8-1.2 2.3-1.7h1.6v13.9z"/></g><g fill="#FFF"><path d="M43.288 9.5h1v7.2h-1V9.5zM46.088 9.5h1v7.2h-1V9.5zM48.788 9.5h1v7.2h-1V9.5z"/></g><path fill="#FFF" d="M24.088 24.1c-.7.6-1.8 1.2-2.6 1.6v-1.6c1-.5 2.1-1.2 2.7-1.7h1.4v11.1h-1.5v-9.4z"/><g fill="#FFF"><path d="M37.088 57.2v1h-2.8v2.4c.2-.4.8-.6 1.3-.6 1.2 0 1.7.9 1.7 2.8 0 1.3-.2 2.9-2.3 2.9-1.7 0-2.1-.9-2.1-2.1h1.1c0 .6.3 1.3 1 1.3 1 0 1.1-1 1.1-1.8 0-1.2 0-2.2-1.1-2.2-.6 0-.9.4-1 1h-1v-4.7h4.1zM40.788 65.5h-1.1v-7.1l-1.2.8v-1.1c.3-.1 1.1-.7 1.4-1h.9v8.4z"/></g></svg>