<svg version="1.2" baseProfile="tiny" xmlns="http://www.w3.org/2000/svg" viewBox="0 0 75 75" overflow="visible" xml:space="preserve"><path fill="#ED2224" d="M0 0h75v75H0z"/><path fill="#FFF" d="M59.688 19.7v17h-26.5v-17h26.5zm-25.1 2.3v12.5l10.4-6.3-10.4-6.2zm22.3-.9h-20.9l10.4 6.3 10.5-6.3zm-20.9 14.2h20.9l-10.4-6.3-10.5 6.3zm11.8-7.1 10.4 6.3V22l-10.4 6.2z"/><g fill="#FFF"><path d="M13.488 39.2h7.2v1.6l-3.7 12.3h-2.1l3.9-12.3h-5.3v-1.6zM29.888 38.7h2.3l4.7 14.4h-2.1l-1-3.4h-5.6l-1.1 3.4h-1.9l4.7-14.4zm1.1 1.7-2.3 7.7h4.6l-2.3-7.7zM46.088 51.6c-1.1 1.3-2.3 1.8-4 1.8-2.6 0-4.7-1.3-4.7-4.1 0-2.4 1.4-3.3 3.2-4.4-.8-1-1.9-2.3-1.9-3.6 0-2.1 1.8-2.9 3.6-2.9s3.4.9 3.4 2.9c0 1.5-1.3 2.9-2.4 3.8l2.8 3.6c.3-.9.3-1.9.3-4.1h1.6c0 3.1-.3 4.4-.9 5.4l2.3 3.1h-2.1l-1.2-1.5zm-4.6-5.7c-1.3.9-2.3 1.6-2.3 3.3 0 1.6 1.2 2.6 3 2.6 1.3 0 2.2-.4 2.9-1.4l-3.6-4.5zm2.2-4.5c0-1-.6-1.6-1.6-1.6-.9 0-1.6.7-1.6 1.6 0 1 1 1.8 1.6 2.6.7-.6 1.6-1.5 1.6-2.6zM51.588 48.8v.4c0 2 1.2 2.6 2.4 2.6 1.5 0 2.6-.6 2.6-2.3 0-3.2-6.5-2.8-6.5-7.2 0-2.6 1.8-3.9 4.2-3.9 2.6 0 4.1 1.3 4 4.2h-1.9c0-1.6-.5-2.6-2.2-2.6-1.1 0-2.2.6-2.2 2.1 0 3.2 6.5 2.7 6.5 7.3 0 3-2.1 4-4.5 4-4.3 0-4.3-3.2-4.2-4.6h1.8z"/></g><g fill="#FFF"><path d="M44.688 9.5h1v7.2h-1V9.5zM47.488 9.5h1v7.2h-1V9.5z"/></g><path fill="#FFF" d="M24.088 24.1c-.7.6-1.8 1.2-2.6 1.6v-1.6c1-.5 2.1-1.2 2.7-1.7h1.4v11.1h-1.5v-9.4z"/><g fill="#FFF"><path d="M29.688 65.5h-1.1v-7.1l-1.2.8v-1.1c.3-.1 1.1-.7 1.4-1h.9v8.4zM31.488 61.4c0-2.2 0-4.3 2.2-4.3 1.2 0 2.1.8 2.1 2h-1.1c0-.6-.3-1.2-1-1.2-.9 0-1.1.8-1.1 3 .3-.5.8-.8 1.4-.8 1.1 0 2 .6 2 2.8 0 1.5-.6 2.8-2.2 2.8-2.3 0-2.3-2.1-2.3-4.3zm2.3 3.4c.9 0 1.1-1 1.1-2.1 0-.8-.2-1.7-1.1-1.7-1 0-1.1 1.1-1.1 1.8-.1.9.1 2 1.1 2zM36.388 66.7h-.8l2.8-9.8h.8l-2.8 9.8z"/><path d="M39.088 57.2h4.3v1l-2.2 7.4h-1.2l2.3-7.4h-3.2v-1zM48.488 61.4c0 2.2 0 4.3-2.2 4.3s-2.2-2.1-2.2-4.3c0-2.2 0-4.3 2.2-4.3s2.2 2.1 2.2 4.3zm-3.4.2c0 1.4-.1 3.2 1.1 3.2s1.1-1.8 1.1-3.2c0-2.2 0-3.6-1.1-3.6s-1.1 1.4-1.1 3.6z"/></g></svg>