<svg version="1.2" baseProfile="tiny" xmlns="http://www.w3.org/2000/svg" viewBox="0 0 75 75" overflow="visible" xml:space="preserve"><path fill="#ED2224" d="M0 0h75v75H0z"/><path fill="#FFF" d="M59.688 19.7v17h-26.5v-17h26.5zm-25.1 2.3v12.5l10.4-6.3-10.4-6.2zm22.3-.9h-20.9l10.4 6.3 10.5-6.3zm-20.9 14.2h20.9l-10.4-6.3-10.5 6.3zm11.8-7.1 10.4 6.3V22l-10.4 6.2z"/><g fill="#FFF"><path d="M16.388 53.1h-1.8V41.2l-2.1 1.4v-1.8c.5-.2 1.8-1.2 2.3-1.7h1.6v14zM24.388 38.7h4.4c1.8 0 3.2.7 3.9 2.2.6 1.2.6 4.1.6 4.6 0 3.1-.3 4.9-.9 5.8-.8 1.2-2.2 1.9-4.8 1.9h-3.3V38.7zm1.8 12.8h1.7c2.6 0 3.5-1 3.5-4.3v-2.9c0-2.9-.9-4-2.8-4h-2.4v11.2zM40.788 43h1.6v8c0 .7 0 1.4.1 2.1h-1.7v-1.2h-.1c-.5.9-1.5 1.4-2.6 1.4-1.8 0-2.7-.9-2.7-2.6V43h1.6v7c0 1.2.6 2 1.7 2 .9 0 2-.7 2-2.3V43zM46.088 44.5c.7-1.5 1.6-1.7 3.2-1.7v1.7c-.1 0-.3 0-.4-.1h-.4c-1.8 0-2.3 1.4-2.3 2.7v6h-1.6V43h1.6v1.5zM50.188 53.1V38.7h1.8v12.8h5.3v1.6h-7.1zM58.088 43v-1.9l1.6-.7v2.7h2.2v1.2h-2.2v6.2c0 .6 0 1.5 1.5 1.5.1 0 .4 0 .7-.1v1.3c-.5 0-1.1.2-1.6.2-1.6 0-2.3-.6-2.3-1.8v-7.2h-1.7v-1.2h1.8z"/></g><g fill="#FFF"><path d="M44.688 9.5h1v7.2h-1V9.5zM47.488 9.5h1v7.2h-1V9.5z"/></g><path fill="#FFF" d="M24.088 24.1c-.7.6-1.8 1.2-2.6 1.6v-1.6c1-.5 2.1-1.2 2.7-1.7h1.4v11.1h-1.5v-9.4zM36.288 61.8h2.6v.9h-2.6v-.9z"/></svg>