<svg version="1.2" baseProfile="tiny" xmlns="http://www.w3.org/2000/svg" viewBox="0 0 75 75" overflow="visible" xml:space="preserve"><path fill="#ED2224" d="M0 0h75v75H0z"/><path fill="#FFF" d="M59.688 19.7v17h-26.5v-17h26.5zm-25.1 15.6h4.7c-1.9 0-3.5-1.6-3.5-3.5 0-1.7 1.1-3 2.7-3.4-1.3-.7-2.2-2.1-2.2-3.7 0-1.5.8-2.7 1.9-3.5h-3.6v14.1zm4.7-5.6c-1.2 0-2.1 1-2.1 2.1 0 1.2 1 2.1 2.1 2.1 1.2 0 2.1-1 2.1-2.1.1-1.2-.9-2.1-2.1-2.1zm15.8-5c0-1.6-1.2-2.9-2.8-2.9h-11.8c-1.5 0-2.8 1.3-2.8 2.8 0 1.6 1.2 2.9 2.8 2.9h11.8c1.6 0 2.8-1.2 2.8-2.8zm-10.8 4.2h-2.9c.9.6 1.4 1.7 1.4 2.8 0 1.9-1.6 3.5-3.5 3.5h7c-1.9 0-3.5-1.6-3.5-3.5.1-1.1.7-2.1 1.5-2.8zm2.1.8c-1.2 0-2.1 1-2.1 2.1 0 1.2 1 2.1 2.1 2.1 1.2 0 2.1-1 2.1-2.1.1-1.2-.9-2.1-2.1-2.1zm11.8 5.6V21.1h-3.6c1.2.8 1.9 2.1 1.9 3.6 0 1.6-.9 2.9-2.1 3.6 1.5.4 2.7 1.8 2.7 3.4 0 2-1.6 3.5-3.5 3.5-2 0-3.5-1.6-3.5-3.5 0-1.2.6-2.2 1.4-2.8h-2.9c.9.6 1.4 1.7 1.4 2.8 0 1.9-1.6 3.5-3.5 3.5h11.7zm-6.8-3.5c0 1.2 1 2.1 2.1 2.1s2.1-1 2.1-2.1c0-1.2-1-2.1-2.1-2.1-1.2 0-2.1.9-2.1 2.1z"/><g fill="#FFF"><path d="M7.588 43.1c0-2.9 1.5-4.7 4.5-4.7 3.1 0 4.5 1.8 4.5 4.7v4.7c0 1-.4 3.6-1.3 4 .3-.1 1-.3 1.3-.3h1.4v1.6h-6c-2 0-4.6-.1-4.6-5.3v-4.7zm7.3 4.8V43c0-3-2.1-3.1-2.7-3.1s-2.7.1-2.7 3.1v4.9c0 2.4.5 3.7 2.7 3.7s2.7-1.3 2.7-3.7zM18.988 47.8v-4.7c0-2.9 1.5-4.7 4.5-4.7 3.1 0 4.5 1.8 4.5 4.7v4.7c0 4-1.5 5.6-4.5 5.6s-4.5-1.6-4.5-5.6zm7.2.1V43c0-3-2.1-3.1-2.7-3.1-.6 0-2.7.1-2.7 3.1v4.9c0 3.2.9 4 2.7 4 1.8 0 2.7-.8 2.7-4zM34.288 43.1c0-2.9 1.5-4.7 4.5-4.7s4.5 1.8 4.5 4.7v4.7c0 1-.4 3.6-1.3 4 .3-.1 1-.3 1.3-.3h1.4v1.6h-6c-2 0-4.6-.1-4.6-5.3v-4.7zm7.2 4.8V43c0-3-2.1-3.1-2.7-3.1s-2.7.1-2.7 3.1v4.9c0 2.4.5 3.7 2.7 3.7s2.7-1.3 2.7-3.7zM50.688 53.1h-2.2l-4.2-14.4h2l3.3 12.7 3.4-12.7h1.9l-4.2 14.4zM62.688 42.5c0-1.7-.7-2.6-2.6-2.6-.6 0-2.7.1-2.7 3.1v4.9c0 3.2.9 4 2.7 4 1.3 0 2.2-.4 2.6-.6V47h-2.7v-1.6h4.5v7c-1.2.6-2.6 1.1-4.4 1.1-3.1 0-4.5-1.6-4.5-5.6v-4.7c0-2.9 1.5-4.7 4.5-4.7 3.1 0 4.6 1.1 4.5 4.2h-1.9z"/></g><g fill="#FFF"><path d="M44.688 9.5h1v7.2h-1V9.5zM47.488 9.5h1v7.2h-1V9.5z"/></g><path fill="#FFF" d="M24.088 24.1c-.7.6-1.8 1.2-2.6 1.6v-1.6c1-.5 2.1-1.2 2.7-1.7h1.4v11.1h-1.5v-9.4zM36.288 61.8h2.6v.9h-2.6v-.9z"/></svg>