<svg version="1.2" baseProfile="tiny" xmlns="http://www.w3.org/2000/svg" viewBox="0 0 75 75" overflow="visible" xml:space="preserve"><path fill="#ED2224" d="M0 0h75v75H0z"/><path fill="#FFF" d="M59.688 19.7v17h-26.5v-17h26.5zm-15.3 8.9v-.7l-9.8-5.9v12.5l9.9-5.9h-.1zm12.5-7.5h-20.9l9.6 5.7v-1.5h-1.2l2.1-3.3 2.1 3.3h-1.2v1.5l9.5-5.7zm-12.5 10.3v-1.1l-8.4 5h20.9l-8.4-5v1.1h-1.2v2.9h-1.7v-2.9h-1.2zm1.2-1.8-1 .6h1v-.6zm1.7.6h1l-1-.6v.6zm10.9 4.3V22l-9.8 5.9v.7h-.1l9.9 5.9z"/><g fill="#FFF"><path d="M20.388 53.1h-1.8V41.2l-2.1 1.4v-1.8c.5-.2 1.8-1.2 2.3-1.7h1.6v14zM30.088 46.5v6.6h-1.8V38.7h5c2.6 0 3.5 1.8 3.5 3.6 0 1.7-.9 3-2.6 3.3 1.7.3 2.3.8 2.4 3.7 0 .6.2 2.9.5 3.8h-1.9c-.5-1-.4-2.9-.6-4.8-.1-1.8-1.6-1.8-2.2-1.8h-2.3zm0-1.6h2.8c1.3 0 2-1.1 2-2.4 0-1-.5-2.2-1.9-2.2h-2.8v4.6zM48.388 38.7v14.4h-2.5l-5.7-12.5v12.5h-1.6V38.7h2.6l5.6 12.4V38.7h1.6zM50.588 53.1V38.7h7.2v1.6h-5.3v4.6h5v1.6h-5v6.6h-1.9z"/></g><g fill="#FFF"><path d="M44.688 9.5h1v7.2h-1V9.5zM47.488 9.5h1v7.2h-1V9.5z"/></g><path fill="#FFF" d="M24.088 24.1c-.7.6-1.8 1.2-2.6 1.6v-1.6c1-.5 2.1-1.2 2.7-1.7h1.4v11.1h-1.5v-9.4zM36.288 61.8h2.6v.9h-2.6v-.9z"/></svg>