<svg version="1.2" baseProfile="tiny" xmlns="http://www.w3.org/2000/svg" viewBox="0 0 75 75" overflow="visible" xml:space="preserve"><path fill="#ED2224" d="M0 0h75v75H0z"/><path fill="#FFF" d="M59.688 19.7v17h-26.5v-17h26.5zm-25.1 1.4v13.1l2.7-3.3c-.7-.8-1-1.8-1-2.8 0-2.3 1.9-4.2 4.2-4.2h2.6l2.4-2.8h-10.9zm.9 14.2h21.8l-2.9-3.4c-.6.4-1.3.6-2.1.6h-11.8c-.8 0-1.5-.2-2.1-.6l-2.9 3.4zm2.7-5.4 3.7-4.5h-1.4c-1.5 0-2.8 1.3-2.8 2.8 0 .6.2 1.2.5 1.7zm5.6-4.5-4.5 5.4c.4.2.8.3 1.2.3h11.8c.4 0 .8-.1 1.2-.3l-4.5-5.4h-5.2zm-.1 2.8c0-1.4 1.2-2.6 2.8-2.6 1.5 0 2.8 1.2 2.8 2.6 0 1.4-1.2 2.6-2.8 2.6-1.6 0-2.8-1.1-2.8-2.6zm1.3-4.2h2.9l-1.4-1.7-1.5 1.7zm13.2-2.9h-10.9l2.4 2.8h2.6c2.3 0 4.2 2 4.2 4.3 0 1-.4 1.9-1 2.7l2.7 3.3V21.1zm-7.3 4.3 3.7 4.5c.3-.4.5-1 .5-1.6 0-1.6-1.2-2.9-2.8-2.9h-1.4z"/><g fill="#FFF"><path d="M29.888 53.1h-1.8V41.2l-2.1 1.4v-1.8c.5-.2 1.8-1.2 2.3-1.7h1.6v14zM40.188 46.2c0 3.6 0 7.2-3.7 7.2s-3.7-3.6-3.7-7.2c0-3.7-.1-7.2 3.7-7.2s3.7 3.5 3.7 7.2zm-5.7.4c0 2.3-.1 5.3 1.9 5.3s1.9-2.9 1.9-5.3c0-3.7 0-6-1.9-6s-1.9 2.3-1.9 6zM40.688 53.1v-1.6c4.1-5.7 5.3-6.7 5.3-9.1 0-1.1-.5-1.8-1.7-1.8-1.4 0-1.6 1.1-1.6 2.3h-1.9c-.2-2.3 1-3.8 3.4-3.8 2.5 0 3.7 1.1 3.7 3.6 0 3.1-1.6 4.1-5.1 8.9h5.5v1.6h-7.6z"/></g><g fill="#FFF"><path d="M43.288 9.5h1v7.2h-1V9.5zM46.088 9.5h1v7.2h-1V9.5zM48.788 9.5h1v7.2h-1V9.5z"/></g><path fill="#FFF" d="M24.088 24.1c-.7.6-1.8 1.2-2.6 1.6v-1.6c1-.5 2.1-1.2 2.7-1.7h1.4v11.1h-1.5v-9.4zM36.288 61.8h2.6v.9h-2.6v-.9z"/></svg>