<svg version="1.2" baseProfile="tiny" xmlns="http://www.w3.org/2000/svg" viewBox="0 0 75 75" overflow="visible" xml:space="preserve"><path fill="#FAA51A" d="M-75.012 18.8h75v18.8h-75z"/><path fill="#D9B977" d="M0 0h75v75H0z"/><path fill="#FAA51A" d="M-.012 18.8h75v18.8h-75z"/><path fill="#010101" d="M59.688 19.7v17h-26.5v-17h26.5zm-1.5 1.4h-23.6v14.2h23.6V21.1zm-20.7 10.1c-.8-.8-1.2-1.9-1.2-3 0-2.3 1.9-4.2 4.2-4.2h11.8c2.3 0 4.2 2 4.2 4.3s-1.9 4.2-4.2 4.2h-11.8c-1.1 0-2.2-.5-3-1.3zm.2-3c0 .8.3 1.5.8 2s1.2.9 2 .9h11.8c1.5 0 2.8-1.3 2.8-2.8 0-1.6-1.2-2.9-2.8-2.9h-11.8c-1.5 0-2.7 1.3-2.8 2.8zM39.688 39.2v1.6h-4.6v4c.3-.6 1.3-1 2.2-1 2 0 2.9 1.5 2.9 4.7 0 2.2-.3 4.9-3.8 4.9-2.9 0-3.4-1.6-3.4-3.4h1.8c0 1.1.4 2.1 1.6 2.1 1.7 0 1.9-1.7 1.9-3.1 0-2-.1-3.6-1.8-3.6-1 0-1.5.7-1.7 1.6h-1.7v-7.8h6.6z"/><g fill="#010101"><path d="M43.288 9.5h1v7.2h-1V9.5zM46.088 9.5h1v7.2h-1V9.5zM48.788 9.5h1v7.2h-1V9.5z"/></g><g fill="#010101"><path d="M12.088 35.4c-.9-2.1-1.9-4.8-1.9-7.1 0-1.3.3-2.5.7-3.7.4-1.4.9-2.5 1.1-3.2h1.1c-.3.8-.6 1.9-.9 3.4-.3 1.5-.4 2.5-.4 3.5 0 2.3.6 4.1 1.5 7.2h-1.2zM15.188 32l2.9-2.8c.6-.6 1.2-1.2 1.7-1.9.6-.9.8-1.4.8-2 0-.5-.2-1.8-1.8-1.8-1.8 0-1.8 1.5-1.8 1.9h-1.7c0-.5.1-1.6 1-2.4.8-.7 1.7-.8 2.4-.8 1.7 0 3.4.9 3.4 3.2 0 .7 0 1.2-1.2 2.8-.3.4-1.7 1.9-2 2.2l-1.9 1.8h5.3v1.3h-7V32zM25.488 21.4c.9 2.1 1.9 4.8 1.9 7.1 0 1.3-.3 2.5-.7 3.7-.4 1.4-.9 2.5-1.1 3.2h-1.1c.3-.8.6-1.9.9-3.4.3-1.5.4-2.5.4-3.5 0-2.3-.6-4.1-1.5-7.1h1.2z"/></g><path fill="#010101" d="M36.288 61.8h2.6v.9h-2.6v-.9z"/></svg>