<svg version="1.2" baseProfile="tiny" xmlns="http://www.w3.org/2000/svg" viewBox="0 0 75 75" overflow="visible" xml:space="preserve"><path fill="#D9B977" d="M0 0h75v75H0z"/><path fill="#010101" d="M59.688 19.7v17h-26.5v-17h26.5zm-15.3 8.9v-.7l-9.8-5.9v5.5c.6-.8 1.6-1.4 2.8-1.4 2 0 3.5 1.6 3.5 3.5 0 .4-.1.8-.2 1.2l3.8-2.3h-.1zm-9.8 3.2v2.7l2.2-1.3c-.9-.2-1.7-.7-2.2-1.4zm4.9-2.1c0-1.2-1-2.1-2.1-2.1-1.2 0-2.1 1-2.1 2.1 0 1.2 1 2.1 2.1 2.1 1.2 0 2.1-1 2.1-2.1zm17.4-8.6h-20.9l9.6 5.7v-1.5h-1.2l2.1-3.3 2.1 3.3h-1.2v1.5l9.5-5.7zm-20.9 14.2h20.9l-8.4-5v1.1h-1.2v2.9h-1.7v-2.9h-1.2v-1.1l-8.4 5zm9.6-5.7-1 .6h1v-.6zm1.7.6h1l-1-.6v.6zm10.9-2.7V22l-9.8 5.9v.7h-.1l3.8 2.3c-.1-.4-.2-.8-.2-1.2 0-2 1.6-3.5 3.5-3.5 1.2-.1 2.2.5 2.8 1.3zm-2.7 4.3c1.2 0 2.1-1 2.1-2.1s-1-2.1-2.1-2.1c-1.2 0-2.1 1-2.1 2.1-.1 1.1.9 2.1 2.1 2.1zm.5 1.4 2.2 1.3v-2.7c-.5.7-1.3 1.2-2.2 1.4zM37.588 45.8c2 .2 2.6 1.8 2.6 3.6 0 2.5-1.3 4-3.7 4-2.4 0-3.7-1.5-3.7-4 0-1.8.5-3.4 2.6-3.6-1.6-.3-2.4-1.7-2.4-3.3 0-2.2 1.4-3.5 3.6-3.5s3.6 1.3 3.6 3.5c-.2 1.6-1 2.9-2.6 3.3zm.7 3.6c0-1.2-.1-2.8-1.9-2.8-1.7 0-1.9 1.6-1.9 2.8 0 1.2.5 2.5 1.9 2.5s1.9-1.3 1.9-2.5zm-.2-7c0-1-.5-2.1-1.7-2.1s-1.7 1-1.7 2.1c0 1 .3 2.5 1.7 2.5 1.4.1 1.7-1.4 1.7-2.5z"/><g fill="#010101"><path d="M44.688 9.5h1v7.2h-1V9.5zM47.488 9.5h1v7.2h-1V9.5z"/></g><path fill="#010101" d="M24.088 24.1c-.7.6-1.8 1.2-2.6 1.6v-1.6c1-.5 2.1-1.2 2.7-1.7h1.4v11.1h-1.5v-9.4z"/><g fill="#010101"><path d="M33.288 57.2v1h-2.8v2.4c.2-.4.8-.6 1.3-.6 1.2 0 1.7.9 1.7 2.8 0 1.3-.2 2.9-2.3 2.9-1.7 0-2.1-.9-2.1-2.1h1.1c0 .6.3 1.3 1 1.3 1 0 1.1-1 1.1-1.8 0-1.2 0-2.2-1.1-2.2-.6 0-.9.4-1 1h-1v-4.7h4.1zM36.588 65.5v-8.7h1.1v7.7h3.2v1h-4.3zM42.288 62.8c0 1.7.5 2 1.2 2s1-.5 1.1-1.2h1.1c0 1.3-.8 2-2.1 2s-2.3-.4-2.3-3.1c0-1.8.2-3.2 2.3-3.2 1.7 0 2.2.9 2.2 3v.5h-3.5zm2.4-.7c0-1.8-.5-2-1.2-2-.6 0-1.1.3-1.2 2h2.4z"/></g></svg>