<svg version="1.2" baseProfile="tiny" xmlns="http://www.w3.org/2000/svg" viewBox="0 0 75 75" overflow="visible" xml:space="preserve"><path fill="#D9B977" d="M0 0h75v75H0z"/><path fill="#010101" d="M59.688 19.7v17h-26.5v-17h26.5zm-18.8 10c0 .4-.1.8-.2 1.2l4.3-2.6-10.4-6.3v5.5c.6-.8 1.6-1.4 2.8-1.4 1.9 0 3.5 1.6 3.5 3.6zm-6.3 2.1v2.7l2.2-1.3c-.9-.2-1.7-.7-2.2-1.4zm4.9-2.1c0-1.2-1-2.1-2.1-2.1-1.2 0-2.1 1-2.1 2.1 0 1.2 1 2.1 2.1 2.1 1.2 0 2.1-1 2.1-2.1zm17.4-8.6h-20.9l10.4 6.3 10.5-6.3zm-20.9 14.2h20.9l-10.4-6.3-10.5 6.3zm22.2-7.8V22l-10.4 6.3 4.3 2.6c-.1-.4-.2-.8-.2-1.2 0-2 1.6-3.5 3.5-3.5 1.2-.1 2.2.5 2.8 1.3zm-2.7 4.3c1.2 0 2.1-1 2.1-2.1 0-1.2-1-2.1-2.1-2.1-1.2 0-2.1 1-2.1 2.1-.1 1.1.9 2.1 2.1 2.1zm.5 1.4 2.2 1.3v-2.7c-.5.7-1.3 1.2-2.2 1.4z"/><g fill="#010101"><path d="M20.988 53.1h-1.8V38.7h1.8v14.4zM25.488 53.1h-1.8V38.7h1.8v14.4zM27.188 55h-1.3l4.7-16.4h1.3l-4.7 16.4zM36.688 53.1h-1.8V41.2l-2.1 1.4v-1.8c.5-.2 1.8-1.2 2.3-1.7h1.6v14zM46.488 39.2v1.6h-4.6v4c.3-.6 1.3-1 2.2-1 2 0 2.9 1.5 2.9 4.7 0 2.2-.3 4.9-3.8 4.9-2.9 0-3.4-1.6-3.4-3.4h1.8c0 1.1.4 2.1 1.6 2.1 1.7 0 1.9-1.7 1.9-3.1 0-2-.1-3.6-1.8-3.6-1 0-1.5.7-1.7 1.6h-1.7v-7.8h6.6zM54.388 39.2v1.6h-4.6v4c.3-.6 1.3-1 2.2-1 2 0 2.9 1.5 2.9 4.7 0 2.2-.3 4.9-3.8 4.9-2.9 0-3.4-1.6-3.4-3.4h1.8c0 1.1.4 2.1 1.6 2.1 1.7 0 1.9-1.7 1.9-3.1 0-2-.1-3.6-1.8-3.6-1 0-1.5.7-1.7 1.6h-1.7v-7.8h6.6z"/></g><g fill="#010101"><path d="M44.688 9.5h1v7.2h-1V9.5zM47.488 9.5h1v7.2h-1V9.5z"/></g><path fill="#010101" d="M24.088 24.1c-.7.6-1.8 1.2-2.6 1.6v-1.6c1-.5 2.1-1.2 2.7-1.7h1.4v11.1h-1.5v-9.4z"/><g fill="#010101"><path d="M31.088 61.4c0 2.2 0 4.3-2.2 4.3-1.2 0-2.1-.9-2.1-2.2h1.1c0 .6.2 1.2.9 1.2 1.1 0 1.1-1.2 1.1-3.3-.3.6-.8.8-1.4.8-.7 0-1.9-.3-1.9-2.6 0-1.9 1.1-2.6 2.2-2.6 2.4.1 2.3 2.2 2.3 4.4zm-3.3-1.8c0 .8.2 1.7 1.1 1.7 1 0 1.1-.9 1.1-1.7 0-.8-.2-1.7-1.1-1.7-.9 0-1.1.9-1.1 1.7zM35.988 61.4c0 2.2 0 4.3-2.2 4.3s-2.2-2.1-2.2-4.3c0-2.2 0-4.3 2.2-4.3s2.2 2.1 2.2 4.3zm-3.4.2c0 1.4-.1 3.2 1.1 3.2s1.1-1.8 1.1-3.2c0-2.2 0-3.6-1.1-3.6s-1.1 1.4-1.1 3.6zM39.088 65.5v-8.7h1.1v7.7h3.2v1h-4.3zM44.788 62.8c0 1.7.5 2 1.2 2s1-.5 1.1-1.2h1.1c0 1.3-.8 2-2.1 2s-2.3-.4-2.3-3.1c0-1.8.2-3.2 2.3-3.2 1.7 0 2.2.9 2.2 3v.5h-3.5zm2.3-.7c0-1.8-.5-2-1.2-2-.6 0-1.1.3-1.2 2h2.4z"/></g></svg>