<svg version="1.2" baseProfile="tiny" xmlns="http://www.w3.org/2000/svg" viewBox="0 0 75 75" overflow="visible" xml:space="preserve"><path fill="#FAA51A" d="M-75.012 18.8h75v18.8h-75z"/><path fill="#D9B977" d="M0 0h75v75H0z"/><path fill="#FAA51A" d="M-.012 18.8h75v18.8h-75z"/><path fill="#010101" d="M59.688 19.7v17h-26.5v-17h26.5zm-1.5 1.4h-23.6v14.2h23.6V21.1zm-14.5 7.1c0-1.4 1.2-2.6 2.8-2.6 1.5 0 2.8 1.2 2.8 2.6s-1.2 2.6-2.8 2.6c-1.6 0-2.8-1.1-2.8-2.6z"/><g fill="#010101"><path d="M24.988 53.1v-1.6c4.1-5.7 5.3-6.7 5.3-9.1 0-1.1-.5-1.8-1.7-1.8-1.4 0-1.6 1.1-1.6 2.3h-1.9c-.2-2.3 1-3.8 3.4-3.8 2.5 0 3.7 1.1 3.7 3.6 0 3.1-1.6 4.1-5.1 8.9h5.5v1.6h-7.6zM32.788 53.1v-1.6c4.1-5.7 5.3-6.7 5.3-9.1 0-1.1-.5-1.8-1.7-1.8-1.4 0-1.6 1.1-1.6 2.3h-1.9c-.2-2.3 1-3.8 3.4-3.8 2.5 0 3.7 1.1 3.7 3.6 0 3.1-1.6 4.1-5.1 8.9h5.5v1.6h-7.6zM48.088 46.2c0 3.6 0 7.2-3.7 7.2s-3.7-3.6-3.7-7.2c0-3.7-.1-7.2 3.7-7.2s3.7 3.5 3.7 7.2zm-5.7.4c0 2.3-.1 5.3 1.9 5.3s1.9-2.9 1.9-5.3c0-3.7 0-6-1.9-6s-1.9 2.3-1.9 6z"/></g><g fill="#010101"><path d="M43.288 9.5h1v7.2h-1V9.5zM46.088 9.5h1v7.2h-1V9.5zM48.788 9.5h1v7.2h-1V9.5z"/></g><g fill="#010101"><path d="M12.088 35.4c-.9-2.1-1.9-4.8-1.9-7.1 0-1.3.3-2.5.7-3.7.4-1.4.9-2.5 1.1-3.2h1.1c-.3.8-.6 1.9-.9 3.4-.3 1.5-.4 2.5-.4 3.5 0 2.3.6 4.1 1.5 7.2h-1.2zM15.188 32l2.9-2.8c.6-.6 1.2-1.2 1.7-1.9.6-.9.8-1.4.8-2 0-.5-.2-1.8-1.8-1.8-1.8 0-1.8 1.5-1.8 1.9h-1.7c0-.5.1-1.6 1-2.4.8-.7 1.7-.8 2.4-.8 1.7 0 3.4.9 3.4 3.2 0 .7 0 1.2-1.2 2.8-.3.4-1.7 1.9-2 2.2l-1.9 1.8h5.3v1.3h-7V32zM25.488 21.4c.9 2.1 1.9 4.8 1.9 7.1 0 1.3-.3 2.5-.7 3.7-.4 1.4-.9 2.5-1.1 3.2h-1.1c.3-.8.6-1.9.9-3.4.3-1.5.4-2.5.4-3.5 0-2.3-.6-4.1-1.5-7.1h1.2z"/></g><g fill="#010101"><path d="M27.288 65.5h-1.1v-7.1l-1.2.8v-1.1c.3-.1 1.1-.7 1.4-1h.9v8.4zM29.088 61.4c0-2.2 0-4.3 2.2-4.3 1.2 0 2.1.8 2.1 2h-1.1c0-.6-.3-1.2-1-1.2-.9 0-1.1.8-1.1 3 .3-.5.8-.8 1.4-.8 1.1 0 2 .6 2 2.8 0 1.5-.6 2.8-2.2 2.8-2.3 0-2.3-2.1-2.3-4.3zm2.3 3.4c.9 0 1.1-1 1.1-2.1 0-.8-.2-1.7-1.1-1.7-1 0-1.1 1.1-1.1 1.8-.1.9 0 2 1.1 2zM33.788 63.5v-1l2.4-5.3h1.5v5.3h1v1h-1v2h-1v-2h-2.9zm2.8-1v-4.3l-1.8 4.3h1.8zM41.488 65.5v-8.7h1.1v7.7h3.2v1h-4.3zM47.188 62.8c0 1.7.5 2 1.2 2s1-.5 1.1-1.2h1.1c0 1.3-.8 2-2.1 2s-2.3-.4-2.3-3.1c0-1.8.2-3.2 2.3-3.2 1.7 0 2.2.9 2.2 3v.5h-3.5zm2.3-.7c0-1.8-.5-2-1.2-2-.6 0-1.1.3-1.2 2h2.4z"/></g></svg>