<svg version="1.2" baseProfile="tiny" xmlns="http://www.w3.org/2000/svg" viewBox="0 0 75 75" overflow="visible" xml:space="preserve"><path fill="#D9B977" d="M0 0h75v75H0z"/><path fill="#010101" d="M59.688 19.7v17h-26.5v-17h26.5zm-25.1 1.4v13.1l10.9-13.1h-10.9zm.9 14.2h21.8l-3.8-4.6h-14.2l-3.8 4.6zm5-5.9h11.8l-5.9-7.1-5.9 7.1zm17.7-8.3h-10.9l10.9 13.1V21.1z"/><g fill="#010101"><path d="M24.788 46.2c0-3.7-.1-7.2 3.7-7.2 2.1 0 3.5 1.3 3.4 3.4h-1.8c0-1-.5-2-1.6-2-1.5 0-1.9 1.3-1.9 5 .5-.8 1.3-1.3 2.3-1.3 1.8 0 3.3 1 3.3 4.7 0 2.5-1 4.7-3.7 4.7-3.7-.1-3.7-3.6-3.7-7.3zm3.9 5.7c1.5 0 1.8-1.6 1.8-3.5 0-1.3-.3-2.8-1.9-2.8-1.6 0-1.8 1.8-1.8 3-.1 1.4.1 3.3 1.9 3.3zM40.188 46.2c0 3.6 0 7.2-3.7 7.2s-3.7-3.6-3.7-7.2c0-3.7-.1-7.2 3.7-7.2s3.7 3.5 3.7 7.2zm-5.7.4c0 2.3-.1 5.3 1.9 5.3s1.9-2.9 1.9-5.3c0-3.7 0-6-1.9-6s-1.9 2.3-1.9 6zM47.988 46.2c0 3.6 0 7.2-3.7 7.2-2.1 0-3.5-1.4-3.4-3.6h1.8c0 1 .4 2.1 1.6 2.1 1.8 0 1.9-2 1.9-5.5-.4 1-1.3 1.3-2.4 1.3-1.1 0-3.2-.6-3.2-4.4 0-3.1 1.9-4.3 3.7-4.3 3.8 0 3.7 3.5 3.7 7.2zm-5.6-3c0 1.4.3 2.9 1.9 2.9 1.6 0 1.9-1.5 1.9-2.9 0-1.3-.3-2.9-1.9-2.9-1.6.1-1.9 1.7-1.9 2.9z"/></g><g fill="#010101"><path d="M44.688 9.5h1v7.2h-1V9.5zM47.488 9.5h1v7.2h-1V9.5z"/></g><path fill="#010101" d="M24.088 24.1c-.7.6-1.8 1.2-2.6 1.6v-1.6c1-.5 2.1-1.2 2.7-1.7h1.4v11.1h-1.5v-9.4z"/><g fill="#010101"><path d="M27.288 65.5h-1.1v-7.1l-1.2.8v-1.1c.3-.1 1.1-.7 1.4-1h.9v8.4zM29.088 61.4c0-2.2 0-4.3 2.2-4.3 1.2 0 2.1.8 2.1 2h-1.1c0-.6-.3-1.2-1-1.2-.9 0-1.1.8-1.1 3 .3-.5.8-.8 1.4-.8 1.1 0 2 .6 2 2.8 0 1.5-.6 2.8-2.2 2.8-2.3 0-2.3-2.1-2.3-4.3zm2.3 3.4c.9 0 1.1-1 1.1-2.1 0-.8-.2-1.7-1.1-1.7-1 0-1.1 1.1-1.1 1.8-.1.9 0 2 1.1 2zM33.788 63.5v-1l2.4-5.3h1.5v5.3h1v1h-1v2h-1v-2h-2.9zm2.8-1v-4.3l-1.8 4.3h1.8zM41.488 65.5v-8.7h1.1v7.7h3.2v1h-4.3zM47.188 62.8c0 1.7.5 2 1.2 2s1-.5 1.1-1.2h1.1c0 1.3-.8 2-2.1 2s-2.3-.4-2.3-3.1c0-1.8.2-3.2 2.3-3.2 1.7 0 2.2.9 2.2 3v.5h-3.5zm2.3-.7c0-1.8-.5-2-1.2-2-.6 0-1.1.3-1.2 2h2.4z"/></g></svg>