<svg version="1.2" baseProfile="tiny" xmlns="http://www.w3.org/2000/svg" viewBox="0 0 75 75" overflow="visible" xml:space="preserve"><path fill="#FAA51A" d="M-75.012 18.7h75v18.8h-75z"/><path fill="#D9B977" d="M0 0h75v75H0z"/><path fill="#010101" d="M59.688 19.7v17h-26.5v-17h26.5zm-18.8 10c0 .4-.1.8-.2 1.2l4.3-2.6-10.4-6.3v5.5c.6-.8 1.6-1.4 2.8-1.4 1.9 0 3.5 1.6 3.5 3.6zm-6.3 2.1v2.7l2.2-1.3c-.9-.2-1.7-.7-2.2-1.4zm4.9-2.1c0-1.2-1-2.1-2.1-2.1-1.2 0-2.1 1-2.1 2.1 0 1.2 1 2.1 2.1 2.1 1.2 0 2.1-1 2.1-2.1zm17.4-8.6h-20.9l10.4 6.3 10.5-6.3zm-20.9 14.2h7l3.3-6.2-10.3 6.2zm13.9 0h7l-10.3-6.2 3.3 6.2zm8.3-7.8V22l-10.4 6.3 4.3 2.6c-.1-.4-.2-.8-.2-1.2 0-2 1.6-3.5 3.5-3.5 1.2-.1 2.2.5 2.8 1.3zm-2.7 4.3c1.2 0 2.1-1 2.1-2.1 0-1.2-1-2.1-2.1-2.1-1.2 0-2.1 1-2.1 2.1-.1 1.1.9 2.1 2.1 2.1zm.5 1.4 2.2 1.3v-2.7c-.5.7-1.3 1.2-2.2 1.4zM32.788 53.1v-1.6c4.1-5.7 5.3-6.7 5.3-9.1 0-1.1-.5-1.8-1.7-1.8-1.4 0-1.6 1.1-1.6 2.3h-1.9c-.2-2.3 1-3.8 3.4-3.8 2.5 0 3.7 1.1 3.7 3.6 0 3.1-1.6 4.1-5.1 8.9h5.5v1.6h-7.6z"/><g fill="#010101"><path d="M44.688 9.5h1v7.2h-1V9.5zM47.488 9.5h1v7.2h-1V9.5z"/></g><path fill="#010101" d="M24.088 24.1c-.7.6-1.8 1.2-2.6 1.6v-1.6c1-.5 2.1-1.2 2.7-1.7h1.4v11.1h-1.5v-9.4z"/><g fill="#010101"><path d="M16.688 65.5v-1c2.4-3.4 3.2-4 3.2-5.5 0-.7-.3-1.1-1-1.1-.8 0-1 .7-1 1.4h-1.1c-.1-1.4.6-2.3 2-2.3 1.5 0 2.2.7 2.2 2.2 0 1.9-.9 2.5-3.1 5.3h3.3v1h-4.5zM24.288 61.1c1.2.1 1.5 1.1 1.5 2.2 0 1.5-.8 2.4-2.2 2.4s-2.2-.9-2.2-2.4c0-1.1.3-2 1.5-2.2-1-.2-1.5-1-1.5-2 0-1.3.8-2.1 2.1-2.1s2.1.8 2.1 2.1c.2 1-.3 1.8-1.3 2zm.5 2.2c0-.7-.1-1.7-1.1-1.7s-1.1 1-1.1 1.7.3 1.5 1.1 1.5 1.1-.8 1.1-1.5zm-.1-4.2c0-.6-.3-1.2-1-1.2s-1 .6-1 1.2.2 1.5 1 1.5 1-.9 1-1.5zM29.188 61.1c1.2.1 1.5 1.1 1.5 2.2 0 1.5-.8 2.4-2.2 2.4s-2.2-.9-2.2-2.4c0-1.1.3-2 1.5-2.2-1-.2-1.5-1-1.5-2 0-1.3.8-2.1 2.1-2.1s2.1.8 2.1 2.1c.1 1-.3 1.8-1.3 2zm.4 2.2c0-.7-.1-1.7-1.1-1.7s-1.1 1-1.1 1.7.3 1.5 1.1 1.5 1.1-.8 1.1-1.5zm-.1-4.2c0-.6-.3-1.2-1-1.2s-1 .6-1 1.2.2 1.5 1 1.5 1-.9 1-1.5zM32.488 63v.3c0 1.2.7 1.5 1.5 1.5.9 0 1.5-.4 1.5-1.4 0-1.9-3.9-1.7-3.9-4.3 0-1.5 1.1-2.4 2.5-2.4 1.6 0 2.5.8 2.4 2.5h-1.2c0-.9-.3-1.6-1.3-1.6-.7 0-1.3.3-1.3 1.3 0 1.9 3.9 1.6 3.9 4.4 0 1.8-1.3 2.4-2.7 2.4-2.6 0-2.6-1.9-2.5-2.8h1.1zM37.488 62.6c0-1.8.2-3.2 2.3-3.2 2.1 0 2.3 1.5 2.3 3.2 0 2.7-1 3.1-2.3 3.1-1.2-.1-2.3-.4-2.3-3.1zm3.6-.4c0-1.7-.5-2-1.3-2s-1.3.4-1.3 2c0 2 .3 2.7 1.3 2.7 1.1-.1 1.3-.8 1.3-2.7zM46.488 65.5v-4.2c0-.6-.2-1.2-1.1-1.2-1.1 0-1.2 1-1.2 1.8v3.6h-1v-4.8c0-.4 0-.8-.1-1.3h1v.8c.4-.7.8-.9 1.6-.9 1.3 0 1.6.8 1.6 2v4.2h-.8zM52.288 65.5h-1.1v-8.7h1.1v8.7zM55.088 65.5h-1.1v-8.7h1.1v8.7zM57.888 65.5h-1.1v-8.7h1.1v8.7z"/></g></svg>