<svg version="1.2" baseProfile="tiny" xmlns="http://www.w3.org/2000/svg" viewBox="0 0 75 75" overflow="visible" xml:space="preserve"><path fill="#D9B977" d="M0 0h75v75H0z"/><path fill="#FAA51A" d="M-.012 18.7h75v18.8h-75z"/><path fill="#010101" d="M59.688 19.7v17h-26.5v-17h26.5zm-13.3 7.7 10.4-6.3h-15.9v3l5.5 3.3zm-5.5 3.3 4.1-2.5-4.1-2.5v5zm0 4.6h4.9c-.2-1.3-1.4-2.4-2.8-2.4-.8 0-1.5.3-2 .8v1.6zm10.9-3-5.4-3.2-4.9 3c.5-.2 1-.3 1.5-.3 1.5 0 2.8.8 3.5 2 .2-.3.4-.6.6-.8.8-.8 1.8-1.1 2.9-1.1.7-.1 1.3.1 1.8.4zm-1.8.8c-.8 0-1.5.2-2 .8-.4.4-.7 1-.8 1.5h5.6c-.3-1.4-1.4-2.3-2.8-2.3zm-2.2-4.9 10.4 6.3V22l-10.4 6.2zm6.1 7.1h2.9l-4.6-2.7c1 .6 1.6 1.6 1.7 2.7z"/><g fill="#010101"><path d="M10.088 46.5v6.6h-1.8V38.7h5c2.6 0 3.5 1.8 3.5 3.6 0 1.7-.9 3-2.6 3.3 1.7.3 2.3.8 2.4 3.7 0 .6.2 2.9.5 3.8h-1.9c-.5-1-.4-2.9-.6-4.8-.1-1.8-1.6-1.8-2.2-1.8h-2.3zm0-1.6h2.8c1.3 0 2-1.1 2-2.4 0-1-.5-2.2-1.9-2.2h-2.8v4.6zM23.488 51.7c-.5 1.2-1.3 1.7-2.6 1.7-2.1 0-2.8-1.4-2.8-3.3 0-3.1 3-3.2 5.3-3.1 0-1.3.1-2.8-1.7-2.8-1.1 0-1.7.7-1.6 1.8h-1.8c.1-2.3 1.3-3 3.4-3 2.6 0 3.3 1.3 3.3 3v4.9c0 .8.1 1.6.2 2.4h-1.8v-1.6zm-3.7-1.6c0 1 .5 1.9 1.6 1.9 1 0 2.2-.6 2.1-3.9-1.6 0-3.7-.1-3.7 2zM32.188 53.1v-7c0-1-.3-2-1.6-2-.5 0-1.2.3-1.4.7-.3.5-.4 1.1-.4 1.5v6.8h-1.6v-8c0-.7 0-1.4-.1-2.1h1.7v1.3c.5-1.1 1.3-1.5 2.5-1.5.9 0 2 .4 2.4 1.3.6-1.1 1.5-1.3 2.4-1.3 1.1 0 2.8.2 2.8 2.6v7.7h-1.6v-7c0-1-.3-2-1.6-2-.6 0-.8 0-1.2.4-.5.4-.6 1.4-.6 1.8v6.8h-1.7zM45.988 46.3c0-1.7-.8-2.1-1.4-2.1-1.3 0-2.1.6-2.1 3.4 0 3.3.4 4.5 2.1 4.5.4 0 1.5-.4 1.5-2.2h1.7c.1 2.8-2.1 3.6-3.2 3.6-2.1 0-3.8-.6-3.8-5.1 0-3 .3-5.4 3.8-5.4 2 0 3.2 1.2 3.1 3.4h-1.7zM51.288 53.1h-1.6V38.7h1.6v8.7l3.1-4.4h2l-3.4 4.3 4 5.8h-2.1l-3.6-5.7v5.7zM59.188 48.6c0 2.8.8 3.4 2 3.4 1.1 0 1.7-.9 1.8-1.9h1.8c0 2.2-1.4 3.3-3.5 3.3s-3.8-.6-3.8-5.1c0-3 .3-5.4 3.8-5.4 2.9 0 3.6 1.6 3.6 4.9v.9h-5.7zm3.9-1.2c0-2.9-.8-3.3-2-3.3-1 0-1.9.5-1.9 3.3h3.9z"/></g><path fill="#010101" d="m44.688 9.5 1.9 2.8 1.9-2.8h1.2l-2.6 3.5 2.7 3.8h-1.3l-2.1-3.1-2.2 3.1h-1.2l2.8-3.8-2.5-3.4h1.4z"/><g fill="#010101"><path d="M12.088 35.4c-.9-2.1-1.9-4.8-1.9-7.1 0-1.3.3-2.5.7-3.7.4-1.4.9-2.5 1.1-3.2h1.1c-.3.8-.6 1.9-.9 3.4-.3 1.5-.4 2.5-.4 3.5 0 2.3.6 4.1 1.5 7.2h-1.2zM16.688 30.6c0 1.1.7 1.8 2 1.8 1.6 0 2.2-1 2.2-2 0-1.2-.8-1.8-1.6-2-.6-.1-1-.1-1.5-.1V27c1.1.1 3-.1 3-1.9 0-1.2-.8-1.7-2-1.7-.8 0-1.9.4-2 1.7h-1.6c.1-2.8 2.7-3 3.6-3 2.4 0 3.6 1.5 3.6 3 0 .9-.5 2.2-2.2 2.6 2.4.3 2.4 2.5 2.4 2.7 0 1.6-1.3 3.3-3.8 3.3-1.2 0-2.3-.3-3-1.2-.6-.7-.6-1.5-.7-2h1.6zM25.488 21.4c.9 2.1 1.9 4.8 1.9 7.1 0 1.3-.3 2.5-.7 3.7-.4 1.4-.9 2.5-1.1 3.2h-1.1c.3-.8.6-1.9.9-3.4.3-1.5.4-2.5.4-3.5 0-2.3-.6-4.1-1.5-7.1h1.2z"/></g><path fill="#010101" d="M36.288 61.8h2.6v.9h-2.6v-.9z"/></svg>