<svg version="1.2" baseProfile="tiny" xmlns="http://www.w3.org/2000/svg" viewBox="0 0 75 75" overflow="visible" xml:space="preserve"><path fill="#FAA51A" d="M-75.012 18.7h75v18.8h-75z"/><path fill="#D9B977" d="M0 0h75v75H0z"/><path fill="#FAA51A" d="M-.012 18.7h75v18.8h-75z"/><path fill="#010101" d="M59.688 19.7v17h-26.5v-17h26.5zm-13.3 7.7 10.4-6.3h-15.9v3l5.5 3.3zm-5.5 3.3 4.1-2.5-4.1-2.5v5zm0 4.6h4.9c-.2-1.3-1.4-2.4-2.8-2.4-.8 0-1.5.3-2 .8v1.6zm10.9-3-5.4-3.2-4.9 3c.5-.2 1-.3 1.5-.3 1.5 0 2.8.8 3.5 2 .2-.3.4-.6.6-.8.8-.8 1.8-1.1 2.9-1.1.7-.1 1.3.1 1.8.4zm-1.8.8c-.8 0-1.5.2-2 .8-.4.4-.7 1-.8 1.5h5.6c-.3-1.4-1.4-2.3-2.8-2.3zm-2.2-4.9 10.4 6.3V22l-10.4 6.2zm6.1 7.1h2.9l-4.6-2.7c1 .6 1.6 1.6 1.7 2.7z"/><g fill="#010101"><path d="M15.988 53.1h-1.8V38.7h1.8v14.4zM20.488 53.1h-1.8V38.7h1.8v14.4zM25.088 53.1h-1.8V38.7h1.8v14.4zM31.888 53.1V38.7h1.8v6.2h5.1v-6.2h1.8v14.4h-1.8v-6.6h-5.1v6.6h-1.8zM48.188 43h1.6v8c0 .7 0 1.4.1 2.1h-1.7v-1.2h-.1c-.5.9-1.5 1.4-2.6 1.4-1.8 0-2.7-.9-2.7-2.6V43h1.6v7c0 1.2.6 2 1.7 2 .9 0 2-.7 2-2.3V43zM53.588 53.1h-1.6V38.7h1.6v5.4h.1c.6-.8 1.3-1.2 2.2-1.2 3.3 0 3.3 2.9 3.3 5.4 0 4.4-1.6 5.1-3.3 5.1-1.1 0-1.8-.5-2.3-1.4v1.1zm1.8-1.1c2.1 0 2.1-2.2 2.1-3.7 0-2.7-.2-4.1-2-4.1s-1.9 2.2-1.9 3.5c0 1.5-.2 4.3 1.8 4.3z"/></g><g fill="#010101"><path d="M44.688 9.5h1v7.2h-1V9.5zM47.488 9.5h1v7.2h-1V9.5z"/></g><path fill="#010101" d="M24.088 24.1c-.7.6-1.8 1.2-2.6 1.6v-1.6c1-.5 2.1-1.2 2.7-1.7h1.4v11.1h-1.5v-9.4z"/><g fill="#010101"><path d="M21.488 61.5v4h-1.1v-8.7h3c1.5 0 2.1 1.1 2.1 2.2 0 1-.6 1.8-1.6 2 1 .2 1.4.5 1.4 2.2 0 .4.1 1.7.3 2.3h-1.2c-.3-.6-.2-1.7-.3-2.9-.1-1.1-.9-1.1-1.3-1.1h-1.3zm0-.9h1.7c.8 0 1.2-.7 1.2-1.4 0-.6-.3-1.3-1.2-1.3h-1.7v2.7zM29.688 64.7c-.3.7-.8 1-1.5 1-1.3 0-1.7-.8-1.7-2 0-1.8 1.8-1.9 3.2-1.9 0-.8 0-1.7-1-1.7-.7 0-1 .4-.9 1.1h-1.1c0-1.4.8-1.8 2.1-1.8 1.6 0 2 .8 2 1.8v2.9c0 .5 0 1 .1 1.4h-1.1v-.8zm-2.3-1c0 .6.3 1.1.9 1.1.6 0 1.3-.4 1.2-2.3-.8 0-2.1-.1-2.1 1.2zM34.988 65.5v-4.2c0-.6-.2-1.2-1-1.2-.3 0-.7.2-.9.4-.2.3-.2.7-.2.9v4.1h-1v-4.8c0-.4 0-.8-.1-1.3h1v.8c.3-.6.8-.9 1.5-.9.6 0 1.2.2 1.4.8.3-.6.9-.8 1.4-.8.6 0 1.7.1 1.7 1.6v4.6h-1v-4.2c0-.6-.2-1.2-1-1.2-.4 0-.5 0-.7.2-.3.2-.3.8-.3 1.1v4.1h-.8zM43.388 61.4c0-1-.5-1.3-.8-1.3-.8 0-1.3.4-1.3 2 0 2 .3 2.7 1.3 2.7.2 0 .9-.2.9-1.3h1c0 1.7-1.2 2.1-1.9 2.1-1.3 0-2.3-.4-2.3-3.1 0-1.8.2-3.2 2.3-3.2 1.2 0 1.9.7 1.9 2.1h-1.1zM46.688 65.5h-1v-8.7h1V62l1.8-2.6h1.2l-2 2.6 2.4 3.5h-1.2l-2.2-3.4v3.4zM51.488 62.8c0 1.7.5 2 1.2 2s1-.5 1.1-1.2h1.1c0 1.3-.8 2-2.1 2s-2.3-.4-2.3-3.1c0-1.8.2-3.2 2.3-3.2 1.7 0 2.2.9 2.2 3v.5h-3.5zm2.4-.7c0-1.8-.5-2-1.2-2-.6 0-1.1.3-1.2 2h2.4z"/></g></svg>