<svg version="1.2" baseProfile="tiny" xmlns="http://www.w3.org/2000/svg" viewBox="0 0 75 75" overflow="visible" xml:space="preserve"><path fill="#D9B977" d="M0 0h75v75H0z"/><path fill="#010101" d="M59.688 19.7v17h-26.5v-17h26.5zm-1.5 1.4h-23.6v14.2h23.6V21.1zm-14.5 7.1c0-1.4 1.2-2.6 2.8-2.6 1.5 0 2.8 1.2 2.8 2.6 0 1.4-1.2 2.6-2.8 2.6-1.6 0-2.8-1.1-2.8-2.6z"/><g fill="#010101"><path d="M29.888 53.1h-1.8V41.2l-2.1 1.4v-1.8c.5-.2 1.8-1.2 2.3-1.7h1.6v14zM32.488 49.7v-1.6l3.9-8.9h2.4v8.9h1.6v1.6h-1.6v3.4h-1.7v-3.4h-4.6zm4.6-1.6v-7.2l-3 7.2h3zM47.988 46.2c0 3.6 0 7.2-3.7 7.2-2.1 0-3.5-1.4-3.4-3.6h1.8c0 1 .4 2.1 1.6 2.1 1.8 0 1.9-2 1.9-5.5-.4 1-1.3 1.3-2.4 1.3-1.1 0-3.2-.6-3.2-4.4 0-3.1 1.9-4.3 3.7-4.3 3.8 0 3.7 3.5 3.7 7.2zm-5.6-3c0 1.4.3 2.9 1.9 2.9 1.6 0 1.9-1.5 1.9-2.9 0-1.3-.3-2.9-1.9-2.9-1.6.1-1.9 1.7-1.9 2.9z"/></g><g fill="#010101"><path d="M44.688 9.5h1v7.2h-1V9.5zM47.488 9.5h1v7.2h-1V9.5z"/></g><path fill="#010101" d="M24.088 24.1c-.7.6-1.8 1.2-2.6 1.6v-1.6c1-.5 2.1-1.2 2.7-1.7h1.4v11.1h-1.5v-9.4z"/><g fill="#010101"><path d="M29.288 56.9h1.4l2.8 8.7h-1.2l-.6-2.1h-3.3l-.6 2.1h-1.1l2.6-8.7zm.6 1-1.4 4.6h2.8l-1.4-4.6zM35.088 60.4c.4-.9.9-1 1.9-1v1h-.6c-1.1 0-1.4.8-1.4 1.6v3.6h-1v-6.1h1v.9zM37.588 65.5v-8.7h1.1v3.8l3-3.8h1.2l-3.1 3.9 3.3 4.7h-1.4l-3-4.5v4.5h-1.1zM43.488 62.6c0-1.8.2-3.2 2.3-3.2 2.1 0 2.3 1.5 2.3 3.2 0 2.7-1 3.1-2.3 3.1-1.2-.1-2.3-.4-2.3-3.1zm3.6-.4c0-1.7-.5-2-1.3-2s-1.3.4-1.3 2c0 2 .3 2.7 1.3 2.7 1.1-.1 1.3-.8 1.3-2.7z"/></g></svg>