<svg version="1.2" baseProfile="tiny" xmlns="http://www.w3.org/2000/svg" viewBox="0 0 75 75" overflow="visible" xml:space="preserve"><path fill="#D9B977" d="M0 0h75v75H0z"/><path fill="#010101" d="M38.9 57.3c0-.7 0-1.3-.3-1.7s-1-.5-1.3-.5c-1.2 0-1.7.7-1.7.9 0 .1-.3.4-.3 2.4v3.1c0 2.8.9 3.2 2.1 3.2.4 0 1.8-.2 1.8-2.4h1.5c.1 3.6-2.5 3.6-3.3 3.6-1.4 0-3.6-.1-3.6-4.6V58c0-3.3 1.4-4.2 3.7-4.2 2.3 0 3.2 1.2 3 3.4h-1.6zM13.302 28.182c-.291-.374-.56-.696-.81-1.038-.176-.239-.384-.363-.685-.332-.197.02-.405.01-.602 0-.166 0-.29.062-.374.207-.083.156-.02.28.073.384.187.218.29.447.27.737-.02.187.104.26.29.27.208.01.665.488.706.685.01.083-.03.135-.072.197-.052.083-.125.166-.125.25-.01.539-.405.746-.789.985-.705.457-1.4.913-2.107 1.37-.124.083-.28.156-.238.353.052.218.238.197.405.197h2.77c-.165.208-.28.353-.55.28-.197-.052-.27.083-.207.28a.622.622 0 0 1-.405.758c-.228.073-.29.166-.135.384.156.218.063.696-.166.83-.197.115-.218.218-.041.374.27.228.311.581.104.862-.125.166-.115.27.093.342a.659.659 0 0 1 .394.84c-.052.146.01.26.135.27.239.021.363.208.53.333.083.062.114.124.103.238-.041.322.156.467.478.364.26-.083.519.072.508.321 0 .25.197.415.457.353.425-.093.508-.052.57.353.032.208.343.332.53.218.28-.156.426-.093.477.208.052.259.322.373.55.238.27-.155.467-.072.478.208.01.155.073.207.187.26.135.051.249.103.394-.021.28-.24.488-.156.581.207.063.228.384.322.56.166.26-.228.426-.187.51.135.072.26.373.343.57.166.27-.26.446-.228.664.083.166.239.426.26.581.02.135-.196.26-.144.395 0 .26.281.384.281.643.032.146-.145.332-.145.478-.01.238.228.436.332.685.01.114-.156.311-.135.467.01.228.218.415.301.664 0 .166-.186.415-.155.633.021.218.166.415.301.643-.02.115-.156.312-.125.468 0 .217.176.415.342.674 0 .125-.167.353-.136.53.01.207.166.404.332.632-.01.115-.177.333-.136.499.01.207.166.394.311.643-.01.145-.187.426-.146.633.01.218.166.405.322.644-.021.114-.166.332-.125.498.02.207.177.405.312.643-.02.114-.166.364-.135.54.01.228.187.425.333.664-.02.104-.146.312-.125.478.01.218.187.404.322.664-.01.135-.177.415-.146.633.03.197.156.394.323.612-.01.125-.186.332-.155.498-.02.218.176.416.353.665 0 .124-.177.352-.115.54.02.207.166.414.312.643-.02.114-.166.311-.125.467 0 .228.166.425.342.674 0 .115-.156.312-.115.467.01.229.187.436.322.675-.02.093-.146.301-.105.446.01.239.186.436.353.696 0 .124-.166.394-.125.58.01.24.176.447.353.696-.02.094-.146.301-.115.446.01.24.197.436.353.685-.01.104-.146.333-.125.478.01.239.197.436.342.695 0 .114-.156.312-.115.467.03.208.177.405.302.644 0 .155-.196.425-.155.633.011.218.177.415.301.643-.02.114-.156.322-.136.478 0 .228.186.415.321.674 0 .135-.177.395-.146.602.02.208.166.405.322.633-.02.104-.167.332-.125.498.02.208.166.395.322.633-.01.125-.177.374-.146.56.02.208.177.406.322.634-.02.114-.166.322-.125.498.02.208.177.405.302.644-.02.135-.177.415-.156.602.02.218.208.415.302.633 0 .135-.186.332-.166.487-.01.229.208.426.332.654-.01.104-.156.26-.104.405.01.228.177.426.322.644-.062.134-.228.415-.25.684-.125.218.094.468.291.571-.176.042-.197.353-.26.581-.166.27.104.488.228.602-.218.052-.228.333-.26.571-.166.239.093.436.145.436-.239 0-.176.405-.332.654-.249.239.083.405.104.436-.228.02-.229.353-.363.623-.29.259.072.435.093.415-.281-.01-.208.425-.415.674-.343.27.083.405.073.364-.27-.021-.217.404-.477.674-.415.28.073.415.042.343-.3-.042-.208.321-.478.57-.436.301.052.436.01.322-.343-.062-.197.332-.685.56-.695.26-.021.312-.125.167-.343-.156-.249 0-.757.27-.892.217-.104.228-.229.041-.353-.176-.114-.114-.197 0-.301.25-.228.509-.467.716-.737.25-.332.29-.675.062-1.017-.519-.789-1.006-1.598-1.577-2.356-.53-.706-1.339-.882-2.18-.934-.602-.042-1.203-.031-1.805-.062-.094 0-.322.041-.24-.125.094-.176-.29-.446.125-.508.01 0 .032 0 .032-.01.352-.291.103-.686.166-1.018.02-.135.062-.353-.135-.394-.301-.073-.56.062-.758.29s-.207.499-.031.748c.062.083.156.155.208.238.072.125.103.26-.073.312-.104.03-.239.176-.322-.073a.498.498 0 0 0-.415-.342c-.031 0-.083 0-.104-.021-.311-.488-.81-.26-1.224-.301-.634-.052-1.277-.031-1.91-.031-.135 0-.28 0-.311-.166-.052-.218-.156-.436-.094-.654.02-.083.145-.062.228-.062.602.02 1.204-.042 1.806.03.156.021.374.063.374-.197 0-.249-.218-.207-.374-.197-.622.063-1.255.01-1.878.031-.26.01-.322-.093-.208-.31.374-.696.197-.644-.394-.945-.156-.083-.311-.094-.478-.115-.155-.02-.3-.03-.384-.207-.051-.114-.166-.114-.27-.125l-4.68-.498c-.633-.062-1.266-.145-1.9-.197-.207-.02-.28-.114-.29-.311-.01-.312-.02-.613.218-.862.052-.052.083-.124.166-.104.083.021.073.104.073.177.02.187-.177.457.166.519.342.052.311-.26.384-.446.207-.602.197-.602.84-.582 1.422.063 2.834-.124 4.245-.166 1.11-.03 2.21-.114 3.321-.187.229-.01.447-.03.675-.051.114-.01.218-.042.208-.187-.01-.156-.135-.146-.24-.146h-1.826c.135-.166.29-.166.426-.176.446-.031.892-.052 1.339-.093.384-.031.404-.094.404-.623 0-.322-.135-.446-.436-.457-.923-.01-1.826-.197-2.74-.29-.02 0-.062 0-.072-.01-.239-.385-.457-.073-.727-.032-.674.104-1.38.145-2.075-.02a1.95 1.95 0 0 0-.488-.052c-.924 0-1.847-.01-2.76.01-.302 0-.499-.073-.603-.374-.03-.093-.083-.166-.124-.249-.073-.145-.197-.218-.343-.187-.187.052-.114.208-.093.322.031.218-.01.405-.27.228-.84-.58-1.837-.56-2.781-.685-1.775-.238-3.56-.467-5.335-.685-.249-.03-.374-.114-.342-.373.03-.239-.115-.353-.333-.374a8.096 8.096 0 0 0-.705-.062c-.218-.01-.322-.104-.322-.332 0-.125-.01-.26-.01-.395 0-.27-.115-.415-.405-.404-.29 0-.405.135-.394.415 0 .073.01.145-.01.207-.042.156.04.426-.27.395-.26-.02-.592.052-.53-.395a.304.304 0 0 0-.073-.228c-.311-.332-.332-.758-.353-1.173-.02-.3-.124-.415-.425-.415-.633-.01-1.277-.041-1.91-.052-1.12-.02-2.252.063-3.373.063-.207 0-.311.114-.29.31.052.426-.25.707-.415 1.028-.177.353-.24.665.041.955.177.187.322.353.145.613-.02.02-.02.072-.01.103.353.737.104 1.516.176 2.263.052.581-.093 1.08-.404 1.567-.384.592-.706 1.225-1.059 1.847-.176.301-.747.478-1.007.26-.228-.187-.446-.187-.685-.166-.384.03-.788-.125-1.141.197-.156.145-.384.02-.405-.218-.031-.374-.249-.457-.57-.446-.997.01-1.983 0-2.98 0-.228 0-.435.01-.498.321a.624.624 0 0 1-.985.364c-.291-.218-.592-.125-.883-.125-.27 0-.57-.114-.81.197-.124.156-.383.063-.58.073-.872.031-.841-.125-.997.83-.072.467-.083.457-.54.353-.186-.041-.373-.083-.56-.104-.104-.01-.238-.03-.26.104s.115.156.219.177c.207.041.425.062.622.124.146.042.374.02.343.27-.031.249 0 .55-.322.643-.228.063-.425.198-.695.166-.218-.083-.353.094-.53.582zm2.013 11.24c.073-.24.062-.426-.177-.571.862-.25 1.557-.665 2.076-1.35.187-.249.384-.03.571.021.197.062.166.197.104.343a2.315 2.315 0 0 0-.01 1.785c.03.072.082.197-.042.187-.208-.01-.26.166-.415.3.02-.28-.042-.456-.312-.529-.28-.083-.55-.228-.757.166.083-.394-.197-.436-.426-.54-.249-.103-.456-.103-.612.187zm43.641.03c-.145 0-.176-.082-.218-.145-.176-.238-.394-.3-.674-.176-.301.124-.291.322-.218.57.01.042.02.094.02.136.01.062.021.124-.041.155-.083.052-.135-.02-.177-.072-.103-.146-.207-.28-.394-.332-.104-.032-.135-.115-.124-.229a2.637 2.637 0 0 0-.094-1.36c-.02-.072-.02-.165.073-.165.456 0 .913-.322 1.36.01.114.083.207.073.321 0 .27-.166.498-.062.519.27.02.176.104.28.25.28.373.01.362.26.394.602-.25-.311-.447-.498-.8-.363-.467.187-.176.529-.197.82zm-45.904-2.625c.01-.073.042-.145-.03-.197-.146-.083-.208.052-.291.124-.135.104-.218.094-.312-.052-.093-.145-.062-.238.083-.311.229-.114.467-.228.696-.353.249-.124.353.114.519.208.124.072.083.176.041.28-.124.26-.249.508-.373.768-.063.124-.146.145-.25.073-.093-.073-.27-.104-.166-.28.032-.094.094-.167.083-.26zm33.377 4.12c-.134-.218-.093-.363.032-.498.114-.145.228-.301.321-.457.156-.26.696-.436.945-.26.176.125.228.354.342.53.031.052 0 .104-.052.104-.353-.01-.373.27-.467.53-.03-.416-.3-.478-.622-.51-.416-.062-.395.27-.499.561zm-34.394-5.085c-.03-.26.187-.208.301-.29.083-.053.218-.084.218-.209-.01-.145-.145-.124-.249-.155-.052-.02-.114-.02-.176-.042-.135-.041-.125-.155-.114-.26.01-.082.03-.207.114-.186.26.062.519.145.768.25.187.072.062.217.052.331 0 .042.01.104.041.125.436.3.031.322-.145.405-.166.083-.353.145-.52.217-.207.094-.248-.041-.29-.186zm.83-2.284c.011-.145.125-.176.208-.228.104-.062.177-.01.229.093.083.187.145.374.238.55.114.208.062.364-.104.53-.155.156-.31.187-.498.083-.135-.073-.28-.125-.415-.187-.114-.062-.3-.083-.197-.29.083-.156.166-.291.374-.146.051.042.134.042.197.062.083.032.176.104.249-.02.062-.114-.042-.166-.104-.239l-.176-.208zm25.179 7.328c-.01-.395-.25-.488-.55-.53-.322-.041-.467.125-.55.426-.042-.197-.125-.332-.301-.384-.073-.021-.135-.094-.083-.156.166-.187.155-.53.467-.57.332-.042.633-.032.768.373.041.114.135.218.218.322.134.145.155.3.03.519zM13.748 37.48c.135-.312.187-.696.415-.976.135-.166.342-.124.446.104.114.26.229.519.332.778.042.104.104.239-.083.27-.124.02-.26.083-.29-.135-.021-.155-.125-.28-.27-.29-.177-.01-.145.176-.177.29-.02.114-.083.156-.197.135-.083 0-.187-.02-.176-.176zm8.064 3.373c-.26-.488.155-.706.322-.997.155-.28.55-.238.757.021.239.301.239.57.02.903-.082-.415-.383-.425-.694-.436-.343-.01-.312.27-.405.509zm19.76-.135c-.01-.073-.052-.156-.02-.208.155-.26.29-.54.487-.768.115-.135.332-.124.478.01.311.291.363.654.145 1.121-.02-.404-.29-.446-.581-.456-.239-.01-.426.03-.509.3zm11.49-.301c-.24-.021-.437-.073-.623-.021-.24.062-.146.332-.28.477-.053-.186-.073-.363-.26-.456a.117.117 0 0 1-.052-.177c.093-.166.166-.353.3-.467.167-.145.406-.166.561.042.125.166.218.373.353.602zm-20.623.508c-.02-.436-.27-.54-.591-.56-.083 0-.229.02-.166-.135.072-.166.166-.353.29-.477.135-.135.364-.135.488-.01.145.155.405.404.28.58-.135.177-.176.374-.3.602zm-4.97-.114c-.053-.218-.146-.405-.375-.415-.456-.02-.29-.208-.155-.436.135-.228.3-.353.54-.26.238.094.27.364.394.55.01.011-.02.084-.042.084-.27.03-.26.28-.363.477z"/><path fill="#D9B977" d="M0 75h75v75H0z"/></svg>