<svg version="1.2" baseProfile="tiny" xmlns="http://www.w3.org/2000/svg" viewBox="0 0 75 75" overflow="visible" xml:space="preserve"><path fill="#D9B977" d="M0 0h75v75H0z"/><g fill="#010101"><path d="M28.8 10.1v1h-2.3v7.7h-1.1v-7.7h-2.3v-1h5.7zM31 10.1h1.4l2.8 8.7H34l-.6-2.1h-3.3l-.6 2.1h-1.1l2.6-8.7zm.6 1-1.4 4.6H33l-1.4-4.6zM42.3 10.1v8.7h-1.5l-3.4-7.5v7.5h-1v-8.7H38l3.4 7.4v-7.4h.9zM44.3 18.7V10h1.1v3.8l3-3.8h1.2l-3.1 3.9 3.3 4.7h-1.4l-3-4.5v4.5h-1.1zM16.2 25.9v4h-1.1v-8.7h3c1.5 0 2.1 1.1 2.1 2.2 0 1-.6 1.8-1.6 2 1 .2 1.4.5 1.4 2.2 0 .4.1 1.7.3 2.3h-1.2c-.3-.6-.2-1.7-.3-2.9-.1-1.1-.9-1.1-1.3-1.1h-1.3zm0-.9h1.7c.8 0 1.2-.7 1.2-1.4 0-.6-.3-1.3-1.2-1.3h-1.7V25zM21.8 29.9v-8.7h4.5v1h-3.4V25H26v1h-3.1v3h3.4v1h-4.5zM31.6 23.6c0-.5 0-1-.3-1.3-.2-.3-.7-.4-1-.4-.9 0-1.3.6-1.3.7 0 .1-.3.3-.3 1.8v2.3c0 2.1.7 2.4 1.5 2.4.3 0 1.4-.1 1.4-1.8h1.1c0 2.7-1.9 2.7-2.4 2.7-1.1 0-2.7-.1-2.7-3.4v-2.4c0-2.4 1.1-3.1 2.8-3.1 1.7 0 2.4.9 2.3 2.6h-1.1zM37.5 29.9h-1.3l-2.5-8.7h1.2l2 7.6 2-7.6H40l-2.5 8.7zM41.1 29.9v-8.7h4.5v1h-3.4V25h3.1v1h-3.1v3h3.4v1h-4.5zM48.2 25.9v4h-1.1v-8.7h3c1.5 0 2.1 1.1 2.1 2.2 0 1-.6 1.8-1.6 2 1 .2 1.4.5 1.4 2.2 0 .4.1 1.7.3 2.3h-1.2c-.3-.6-.2-1.7-.3-2.9-.1-1.1-.9-1.1-1.3-1.1h-1.3zm0-.9h1.7c.8 0 1.2-.7 1.2-1.4 0-.6-.3-1.3-1.2-1.3h-1.7V25zM57.6 21.3h1.1l-2.4 5.4V30h-1.1v-3.3l-2.3-5.4h1.2l1.7 4.2 1.8-4.2zM13.64 54.8c-.132-.208-.265-.406-.397-.614-.066-.103-.133-.103-.237-.047-.141.076-.283.142-.425.208-.104.056-.17.037-.208-.085-.066-.208-.085-.387.18-.472.15-.047.18-.132.094-.282-.255-.425-.321-.877-.227-1.377l-.785.868c-.51.556-1.011 1.112-1.531 1.659a.868.868 0 0 0-.227.405c-.123.49-.246.971-.379 1.452-.028.104-.066.217-.198.151s-.407.01-.34-.283c.122-.518.255-1.037.397-1.546.066-.245.255-.424.425-.613 1.371-1.537 2.733-3.073 4.132-4.591.407-.434.965-.65 1.56-.707.218-.02.331-.095.388-.302.019-.094.076-.17.114-.255.037-.075.037-.132-.048-.17-.132-.046-.123-.14-.075-.244.141-.34.274-.67.416-1.01.037-.094.094-.14.198-.094.114.057.16-.009.199-.103.35-.858.709-1.716 1.068-2.574.02-.038.038-.085.01-.123-.161-.217-.18-.49-.265-.735-.019-.066-.038-.17.038-.18.151-.027.189-.14.246-.254.047-.085.123-.113.208-.103.255.028.425-.057.482-.321.019-.094.076-.189.113-.273.029-.066.02-.132-.047-.16-.123-.048-.123-.133-.076-.227.142-.34.275-.67.407-1.009.038-.085.076-.17.19-.113.113.057.17 0 .207-.104.085-.216.18-.424.274-.64.029-.067.067-.133.152-.123.085.01.113.066.113.141 0 .085.047.076.114.066.775-.094 1.56-.188 2.335-.273 1.002-.113 1.995-.236 2.997-.35 1.145-.131 2.298-.263 3.442-.405 1.144-.14 2.28-.273 3.423-.433.823-.113 1.636-.132 2.459-.132 1.078 0 2.165 0 3.243-.02 1.456-.027 2.912-.018 4.378-.018.151 0 .274-.019.36-.15a.251.251 0 0 1 .245-.114h.132c1.939-.01 3.877-.01 5.806-.038.567-.009 1.116-.198 1.664-.32.265-.057.426-.019.586.207.7.943 1.41 1.876 2.118 2.81.067.094.152.17.199.273.18.396.482.472.898.462.955-.028 1.91-.01 2.865-.01.899 0 1.797-.018 2.695-.028.378 0 .35 0 .303.368-.038.368-.01.736-.02 1.113 0 .141.02.273.067.405.038.113.095.142.208.142.407 0 .804.009 1.21 0 .17 0 .237.065.237.235v2.16c0 .169-.095.216-.237.216-.983 0-1.957 0-2.94.01-.454 0-.908.009-1.362 0-.113 0-.17.047-.208.14-.246.529-.454 1.066-.388 1.68.038.404-.104.81-.075 1.225.01.179-.17.122-.275.141-.104.019-.208 0-.217-.141-.01-.198-.01-.406-.01-.604 0-.122-.037-.188-.17-.188-.52-.029-1.04-.066-1.56-.094-.53-.029-1.068-.048-1.598-.095-.217-.019-.208.057-.16.217.226.83.453 1.66.67 2.49.039.131.067.263.105.395.019.066.038.123.123.132.104.01.236.104.293-.01.066-.122.085-.292-.038-.395-.151-.132-.18-.368-.378-.481-.076-.047-.085-.226.038-.283.113-.047.16-.132.208-.226.18-.32.52-.5.926-.387.728.198 1.466.132 2.203.16.152.01.483.236.53.378.047.132-.151.386-.312.386-.369 0-.728.019-1.097 0-.293-.019-.52.047-.69.283-.18.245-.416.32-.71.292-.075-.01-.198-.038-.207.094-.01.123.104.104.18.123.132.028.255.047.387.075.123.02.246.038.265.208.01.104.123.094.198.113.728.132 1.456.255 2.194.387.501.084 1.002.17 1.503.264.227.047.454.047.681.028.965-.085 1.844.188 2.695.575.454.207.87.48 1.258.792.123.094.123.17.018.273-.104.104-.198.227-.302.33-.123.123-.095.227.01.359.179.216.378.292.642.198.095-.029.19-.038.256.056s.123.18.066.311c-.095.236.123.622.369.679.208.047.293.264.16.434-.17.217-.075.452-.066.688 0 .085.123.094.199.132.246.113.264.33.047.49-.227.17-.265.575-.066.773.17.16.123.396-.104.462-.284.085-.322.359-.464.557-.028.037.02.094.048.132.066.084.104.17.028.273-.066.094-.132.17-.274.16-.208-.019-.549.34-.549.547 0 .273-.17.396-.406.283-.142-.076-.265 0-.397.019-.199.037-.152.17-.152.301 0 .198-.217.321-.387.227-.274-.142-.558.01-.577.31-.01.208-.19.312-.378.227-.284-.141-.558.019-.568.32-.009.18-.226.321-.378.218-.198-.132-.36-.01-.53.047-.075.028-.065.122-.056.198.028.245-.16.377-.388.273-.283-.123-.548.028-.567.33-.01.198-.208.302-.378.207-.284-.141-.558.01-.568.321-.009.189-.198.32-.368.236-.265-.132-.492.01-.71.103-.066.029-.132.132-.028.217.029.029.104.01.085.076a.13.13 0 0 1-.123.094c-.132.01-.255.038-.397.028-.217-.019-.491-.094-.652 0-.322.198-.568.038-.851-.01-.34-.056-.672.265-1.06.02-.132-.085-.377-.076-.538.122-.066.085-.208.047-.312-.037-.18-.151-.558-.142-.738.009-.123.104-.246.104-.369-.01-.141-.131-.567-.14-.718-.009-.142.132-.274.123-.416.01-.123-.104-.568-.095-.69.009-.133.113-.256.104-.388.01-.17-.133-.567-.114-.747.018-.123.085-.255.095-.378-.01-.142-.122-.643-.122-.785 0-.123.114-.255.105-.378.01-.19-.141-.54-.132-.728 0a.287.287 0 0 1-.37 0c-.188-.141-.576-.132-.756.01-.113.094-.236.103-.359-.01-.17-.15-.577-.15-.747.01-.113.103-.246.103-.36 0-.17-.151-.557-.151-.737-.01-.123.104-.255.104-.378.01-.19-.142-.548-.142-.728 0-.114.094-.236.103-.36.01-.179-.142-.567-.133-.746 0-.114.084-.237.093-.35.009-.218-.151-.653-.151-.851 0-.114.084-.227.094-.34 0-.18-.151-.558-.132-.748.018-.113.095-.245.076-.359-.018-.151-.132-.567-.132-.728-.01-.132.104-.255.104-.388-.01-.123-.112-.567-.112-.68.01-.133.132-.265.132-.398.019-.17-.132-.548-.141-.709 0-.123.113-.255.113-.378.028-.208-.141-.558-.15-.756 0a.272.272 0 0 1-.35 0c-.199-.141-.558-.141-.747 0-.114.085-.237.095-.34 0-.19-.15-.634-.141-.833.01-.113.085-.246.094-.36-.01-.16-.132-.566-.141-.727-.01-.123.105-.255.123-.388 0-.142-.131-.567-.131-.709.01-.123.123-.246.104-.369.01-.18-.142-.567-.151-.737 0-.133.103-.265.113-.388 0-.132-.113-.586-.095-.719.019-.113.103-.245.094-.359.009-.189-.132-.567-.132-.747 0a.285.285 0 0 1-.35.01.689.689 0 0 0-.756.009c-.114.085-.237.075-.35-.01-.199-.15-.634-.141-.832.01-.114.085-.246.094-.369-.01-.18-.141-.586-.132-.756.02-.114.103-.246.084-.34-.01a.369.369 0 0 0-.284-.104h-.984c-.066 0-.17.028-.18-.075-.009-.095.086-.076.142-.085.114-.038.086-.104.02-.151a2.501 2.501 0 0 0-.35-.189c-.086-.037-.123.029-.17.085-.17.189-.388.151-.473-.085-.095-.264-.445-.348-.643-.16-.123.113-.331.066-.398-.104-.141-.339-.435-.424-.737-.226-.142.104-.378.019-.388-.17-.019-.226-.198-.292-.33-.396-.067-.056-.143-.009-.209.038-.255.198-.397.142-.473-.16-.066-.283-.359-.396-.586-.245-.16.113-.387.037-.397-.151-.01-.226-.18-.302-.321-.405-.104-.076-.17.018-.246.075-.208.16-.397.075-.435-.18-.038-.254-.378-.423-.605-.3-.293.15-.454.056-.464-.274-.01-.236-.35-.453-.643-.396-.274.056-.406-.095-.33-.35s-.18-.63-.464-.678c-.312-.047-.388-.207-.217-.471.141-.217-.01-.585-.293-.755-.322-.188-.34-.301-.057-.546.17-.151.189-.65.028-.83-.255-.283-.236-.368.104-.528.208-.094.322-.537.19-.773-.152-.274-.057-.434.255-.453.293-.019.453-.34.35-.707-.048-.16-.01-.264.122-.349.095-.103.17-.056.284-.047zM55.084 52h-.038c-.095-.152-.095-.142-.18-.02-.047.066-.085.066-.123-.01-.085-.131-.189-.188-.33-.075l-.039.038c-.028-.028-.056-.047-.085-.075l-.066.066c-.019 0-.038 0-.057.01-.037-.114-.123-.114-.227-.095-.189.038-.368.01-.482-.17-.019 0-.028 0-.047.01-.322.037-.388.264-.18.556.01.038.029.066.057.075.019-.028.028-.047.047-.075.029.01.066.019.095.028.019.01.038.028.057.038.018.028.037.047.047.075.18-.075.369-.066.548-.085.085-.018.208.01.199-.141.094-.028.208-.028.217-.16.038.019.085.028.123.047-.019.038-.028.085-.047.122-.01.02-.038.038-.038.057.01.038.047.028.076.01.047 0 .104 0 .132.047.114.198.312.16.445.084.104-.056.198-.056.293-.066.236.142.472.038.718.01h.066c.076.122.199.094.303.085.057-.01.076-.085.066-.142-.01-.066-.056-.094-.113-.094-.095.01-.18.028-.274.038h-.086c0-.085-.028-.132-.122-.123-.161.01-.34-.047-.492.057-.076-.151-.208-.198-.378-.18-.02-.009-.048-.009-.067-.018 0 .019-.009.047-.018.075zm-38.645.188c0-.02-.01-.038-.01-.057s.01-.047.01-.066v-.217c.019-.113.075-.273-.029-.34-.122-.075-.245.02-.359.114-.151.123-.113.255-.057.387.076.179.02.424.265.518.133.104.246.113.34-.047.01 0 .029 0 .038.01.01-.029.02-.067.029-.095-.01-.047-.02-.085-.029-.132h-.085c-.028-.019-.056-.047-.085-.066-.01-.01-.019-.01-.028-.01zm34.106.933v-.038h.548c.095 0 .142-.037.142-.141 0-.292-.01-.302-.302-.302-1.958.02-3.924.01-5.882.029-2.657.028-5.314 0-7.97.037-1.476.02-2.96.01-4.435.01-.133 0-.275-.038-.294.17-.009.047-.056.065-.104.065-.15 0-.312.01-.463.01-.066 0-.113-.038-.123-.104-.01-.132-.104-.132-.198-.132l-2.317.028c-2.175.01-4.35 0-6.524.038-1.56.028-3.12.01-4.68.019-.086 0-.19-.038-.247.075-.066.132-.643.208-.69.085-.085-.254-.284-.103-.425-.16-.048-.019-.095.01-.123.066-.104.207.01.396.246.396l3.45-.028c2.28-.02 4.568-.01 6.847-.029 2.657-.028 5.314-.01 7.97-.037 2.421-.029 4.842-.01 7.262-.038 2.761-.038 5.541-.019 8.312-.019zm8.16 4.544c0 1.358 1.03 2.386 2.402 2.386 1.295 0 2.345-1.066 2.345-2.395 0-1.235-.946-2.357-2.383-2.357a2.333 2.333 0 0 0-2.364 2.366zM30.849 61.87c-.01-.292-.038-.537-.132-.754-.624-1.48-1.21-2.989-1.873-4.46-.018-.037-.018-.103-.066-.103-.142 0-.321-.028-.416.047-.104.075-.056.255-.01.387.02.056.067.113.086.17a.724.724 0 0 1-.019.706.84.84 0 0 0-.104.453c.01.566.01 1.131 0 1.697a.502.502 0 0 1-.322.5c-.189.084-.378.17-.576.245-.142.047-.199.122-.199.273 0 .208-.047.424-.18.585-.141.16-.122.34-.122.528 0 .075.028.141.113.15.7.142 1.4.312 2.118.312.095 0 .17-.029.17-.132 0-.208.048-.425-.019-.632a.518.518 0 0 1 .199-.594.513.513 0 0 1 .586 0c.18.141.255.377.18.603-.066.217-.057.444-.057.67 0 .122.066.122.151.066.303-.18.511-.406.492-.717zm10.61.65c.103-.037.34.114.368-.16.019-.197.028-.395-.028-.593-.076-.227 0-.425.18-.576.16-.132.358-.141.548-.037.227.122.33.31.264.565-.056.236-.019.472-.066.708-.019.122.038.179.151.094.284-.189.483-.424.473-.802-.019-.443-.189-.82-.36-1.216L41.346 56.6c-.02-.047-.029-.104-.076-.123-.246-.094-.482.095-.444.35.01.065.047.131.075.188a.803.803 0 0 1 0 .81.651.651 0 0 0-.085.321V59.9c0 .31-.113.471-.406.584-.17.066-.34.142-.511.208-.123.047-.18.113-.18.254 0 .227-.028.453-.189.613-.17.17-.132.358-.123.556 0 .076.038.095.104.114.634.113 1.258.292 1.948.292zm12.443-.065c.028 0 .066 0 .094.01.19.046.274-.01.274-.227 0-.198.01-.396-.037-.594-.057-.236.047-.424.245-.547a.455.455 0 0 1 .549.019c.18.132.293.33.217.556-.066.217-.066.443-.075.67 0 .056-.029.122.037.15.057.029.104-.028.152-.056.397-.245.51-.613.369-1.15-.133-.519-.379-.99-.587-1.49-.444-1.075-.898-2.15-1.342-3.224-.02-.047-.048-.132-.104-.123-.133.019-.303-.047-.388.066-.076.094-.047.255.01.377.018.038.047.076.066.113.113.274.132.538-.029.792a.555.555 0 0 0-.075.32c0 .595.009 1.18.009 1.773 0 .227-.095.406-.312.5-.199.094-.407.17-.605.255-.085.037-.18.066-.18.188.02.292-.085.538-.255.764-.151.198-.057.556.132.594.605.094 1.201.264 1.835.264zm-28.433-1.669c-.18-.066-.293-.113-.407-.16-.482-.18-.586-.32-.586-.84V58.43c0-.141.028-.302-.038-.424-.198-.34-.198-.67 0-1.018.066-.114.114-.302-.038-.387-.18-.104-.425-.01-.491.17-.54 1.3-1.069 2.602-1.608 3.893-.132.312-.255.623-.293.972-.057.462.076.763.454.99.104.065.132.037.132-.066-.01-.246.02-.49-.056-.726-.067-.217 0-.406.189-.547a.5.5 0 0 1 .567-.029c.199.114.303.302.246.528-.057.208-.019.406-.038.613-.01.18.085.255.255.236.464-.057.936-.075 1.4-.189.16-.037.208-.094.18-.273-.057-.358-.076-.717-.123-1.075-.029-.17-.01-.302.255-.311zm24.811-.17c-.123-.056-.255-.103-.378-.16-.369-.15-.492-.32-.492-.716 0-.378.01-.755 0-1.132-.01-.33.038-.66-.151-.961-.095-.151-.066-.34-.019-.519.028-.094.095-.18.123-.273.038-.132.123-.293-.047-.378-.208-.103-.407-.028-.483.142-.132.311-.274.622-.397.933-.387.943-.766 1.895-1.153 2.838-.19.462-.407.915-.35 1.443.028.273.246.575.482.669.076.028.114.01.104-.066-.019-.226.028-.462-.047-.688-.076-.236-.01-.462.17-.594a.499.499 0 0 1 .596-.029c.189.123.283.359.208.594-.066.217-.01.425-.01.632 0 .104.076.132.17.132a8.011 8.011 0 0 0 1.494-.198c.123-.028.161-.085.142-.198-.047-.377-.085-.754-.151-1.131-.019-.151-.019-.264.19-.34zm-12.396.076c-.123-.047-.246-.104-.369-.142-.425-.122-.567-.424-.558-.839.01-.518 0-1.027 0-1.546a.532.532 0 0 0-.066-.292.845.845 0 0 1-.01-.858.613.613 0 0 0 .067-.368c0-.056-.029-.104-.095-.122-.236-.076-.387-.01-.482.216-.53 1.301-1.068 2.603-1.598 3.894-.123.311-.255.613-.293.943-.047.443.113.801.473.98.094.048.142.048.132-.075-.01-.236.028-.471-.057-.707-.075-.236.01-.462.199-.575a.498.498 0 0 1 .586.01c.199.131.265.339.199.565-.057.189-.038.377-.048.556-.009.16.067.227.227.217a8.885 8.885 0 0 0 1.494-.198c.095-.019.123-.056.104-.17-.066-.396-.104-.792-.16-1.188 0-.17.066-.273.255-.301zm-17.682-.528c-.16 0-.33.01-.492 0-.15-.01-.255.047-.35.17a3.603 3.603 0 0 1-1.89 1.235c-.114.028-.17.094-.19.207-.019.16-.037.32-.066.48-.01.076.01.123.076.152s.123.019.16-.047c.114-.132.228-.264.332-.406.075-.094.15-.132.255-.066.113.066.293.076.246.292-.038.151-.048.312-.076.462-.01.085-.028.18.076.227s.15-.038.198-.095c.104-.122.208-.254.312-.377.048-.056.095-.094.18-.075.274.066.35.179.293.452-.019.113-.038.227-.057.33-.01.066-.038.142.057.17s.123-.028.16-.085c.067-.132.143-.254.2-.386.066-.142.141-.217.32-.17.162.047.275.104.266.302-.01.17.018.348.028.528 0 .075.038.113.104.132.076.018.113-.02.151-.085.066-.142.142-.283.218-.415.028-.057.038-.123.01-.18-.426-.885-.388-1.753.113-2.601.066-.113.019-.142-.085-.142-.18-.01-.36-.01-.549-.01zm-3.924.867c.028.094.038.16.028.236-.028.245.02.33.256.264.265-.066.53-.076.794-.104a1.97 1.97 0 0 0 .624-.217c1.39-.697 2.09-1.829 2.033-3.375-.038-1.226-.643-2.159-1.664-2.828-.057-.038-.142-.085-.19.028-.084.207-.264.132-.406.141-.132 0-.123-.132-.16-.226-.02-.056-.048-.122-.057-.179-.038-.132-.152-.198-.256-.17-.17.038-.113.227-.16.34-.038.122.056.132.132.15.303.085.586.208.86.368 1.835 1.132 1.873 3.885.057 5.054-.558.377-1.182.546-1.89.518zm41.67-3.63c0 1.726.974 2.97 2.402 3.31.095.018.18.037.265-.029.19-.15.36-.179.52.047.066.095.426.066.426-.018-.01-.16-.038-.33-.104-.472-.038-.094-.17-.028-.265-.028-.955.066-1.967-.51-2.383-1.358-.662-1.338-.16-2.828 1.191-3.479.227-.113.284-.226.19-.443-.029-.075-.01-.188-.105-.198s-.208.029-.274.104c-.038.047-.056.123-.075.189-.085.273-.237.358-.492.254-.114-.047-.17-.028-.246.047-.68.622-1.03 1.396-1.05 2.074zm-3.64-4.28c1.106-.019 2.213-.01 3.32-.028.69-.02 1.38-.038 2.07.019.142.01.217-.02.208-.18a.63.63 0 0 1 0-.188c.019-.15-.047-.189-.199-.189-.605.01-1.21.01-1.806.01l-6.23.028c-.124 0-.266-.038-.266.17 0 .302.038.349.275.349.87.01 1.749.01 2.628.01zm3.168 6.854c-.133 0-.265.01-.397 0-.199-.01-.208.047-.114.208.369.622.53 1.3.284 1.98-.16.452-.029.707.293.952.01 0 .01.01.01.01.047.056.103.093.18.046.075-.037.084-.103.065-.179-.047-.16-.075-.33-.123-.49-.037-.141.02-.207.142-.264.114-.057.227-.15.35-.01.113.123.227.236.34.359.067.066.123.103.218.047s.066-.123.047-.198c-.038-.16-.094-.33-.132-.49-.038-.17.104-.208.198-.274s.18-.085.265.01c.114.122.237.235.36.358.056.066.113.113.207.066.104-.057.067-.132.048-.217-.038-.15-.085-.302-.123-.452-.029-.095-.02-.17.075-.236.067-.047.199-.066.123-.189-.066-.103-.18-.085-.274-.037-.123.056-.236.122-.35.188-.075.047-.151.094-.246.028-.094-.056-.113-.141-.094-.245.019-.094.028-.188.038-.283.028-.254-.076-.358-.331-.292-.076.02-.161.038-.237.066-.113.028-.217.047-.312-.056s-.019-.189.029-.264c.075-.123.019-.151-.095-.151-.142.01-.293.01-.444.01zm-24.793.113c-.18 0-.368.01-.548 0-.16 0-.246.01-.123.198a2.614 2.614 0 0 1-.085 2.904c-.028.038-.151.132.01.151.141.019.18.094.207.207.038.151.086.302.123.453.02.094.067.141.17.141.105 0 .17-.028.19-.132l.113-.452c.029-.113.047-.208.199-.198.151.01.34-.047.387.188.029.151.076.302.123.453.02.075.066.123.152.113.075 0 .104-.047.132-.113.085-.236.076-.424-.123-.641-.482-.519-.671-1.16-.643-1.867.019-.452.16-.877.407-1.254.085-.132.028-.141-.085-.141-.218-.01-.416-.01-.606-.01zm12.472-.066h-.567c-.16 0-.18.048-.104.189.577 1 .548 1.99-.104 2.95-.038.048-.076.095-.057.17.066.199.114.397.17.595.02.075.048.141.152.141s.123-.066.141-.141c.038-.151.086-.302.123-.453.029-.132.104-.18.237-.189.132 0 .274-.018.321.151s.095.34.152.5c.037.141.141.16.245.075.152-.132.17-.697.038-.858a2.366 2.366 0 0 1-.454-.895 2.545 2.545 0 0 1 .331-2.103c.076-.113.038-.141-.075-.141-.18.01-.37.01-.549.01zm-6.24 1.848c-.161-.028-.199.047-.199.198-.01.396-.028.406-.407.49l-.255.057a.17.17 0 0 0-.132.094c-.085.18-.19.359-.312.519-.02.019-.029.066-.02.085.162.198.152.443.228.67.028.075.056.131.16.131.105 0 .123-.075.142-.15.038-.161.085-.312.114-.472.038-.17.16-.16.293-.17.132 0 .236.019.274.17.038.16.095.32.142.49.019.076.047.132.132.132s.123-.056.142-.122l.114-.434c.028-.132.066-.236.236-.226.16.009.312-.01.35.207.019.15.076.292.123.434.047.15.151.179.283.113s.208-.528.104-.641c-.15-.17-.302-.34-.397-.547-.094-.217-.236-.283-.454-.32-.434-.076-.434-.085-.444-.51-.028-.16-.066-.226-.217-.198zm12.443-.075c-.19-.038-.199.085-.199.226 0 .368-.028.396-.387.472-.095.018-.18.037-.274.056-.076.019-.142.057-.17.132a2.718 2.718 0 0 1-.322.528.193.193 0 0 0-.047.16c.047.189.104.377.15.566.02.066.077.094.143.094.075 0 .113-.037.132-.113.029-.132.076-.264.095-.405.028-.16.085-.274.283-.274.208-.01.303.076.34.264.03.132.067.255.105.377.019.076.047.142.142.142s.132-.066.15-.142c.039-.141.067-.292.095-.443.029-.141.104-.198.246-.207.208-.019.331.056.37.273.018.104.046.208.084.311.029.085.02.217.17.208.133-.01.123-.123.152-.208.123-.339.141-.631-.123-.952-.161-.198-.284-.349-.54-.386-.406-.066-.406-.076-.406-.5.02-.141-.038-.207-.189-.18zm-24.925.132c-.18-.066-.18.056-.189.179-.028.424-.028.434-.454.51-.208.037-.378.093-.454.32-.037.113-.122.198-.189.301-.019.038-.075.066-.047.113.019.048.076.038.123.029.208-.029.303.066.34.254.029.123.067.245.104.359.02.075.057.141.152.141s.123-.066.142-.141c.037-.16.085-.312.122-.472.02-.066.048-.122.133-.141.265-.047.369 0 .444.254.029.104.057.217.085.33.02.085.038.18.161.17.123 0 .132-.094.151-.18.038-.131.076-.254.095-.386.028-.141.085-.226.246-.226s.302.028.34.217c.038.15.085.302.133.452.037.123.122.16.226.085.104-.085.104-.377 0-.471-.208-.189-.416-.396-.529-.65-.104-.255-.293-.34-.539-.378-.397-.066-.397-.085-.397-.49-.019-.123-.028-.226-.199-.18zm24.282-.934c.16-.31.378-.5.738-.452a.6.6 0 0 1 .387.217c.104.113.123.264.142.405.019-.066.038-.122.038-.179V58.75c0-.114-.057-.16-.151-.18-.312-.056-.634-.094-.955 0-.152.038-.199.104-.199.255.01.622 0 1.235 0 1.857v.311zm-11.195.236c.019-.094.038-.132.038-.17v-2.272c0-.094-.057-.132-.133-.15a2.08 2.08 0 0 0-.993-.01c-.123.028-.18.085-.17.217.01.594 0 1.188.01 1.782 0 .132.019.264.028.424.19-.368.388-.49.68-.453.341.038.464.283.54.632zm-12.491.076c.019-.048.028-.066.038-.085.038-.792.01-1.594.01-2.386 0-.075-.048-.113-.114-.132a2.018 2.018 0 0 0-1.06 0c-.084.029-.113.076-.113.17.01.32.02.65.02.971v1.339c.17-.396.396-.556.69-.51.302.039.482.237.529.633zm-10.155-2.273c-.047-.075-.114-.122-.133-.207-.028-.141.02-.236.142-.292.114-.057.246-.029.293.085.123.273.18.075.256-.02.037-.056.056-.122.085-.188.047-.094.075-.16-.085-.141-.18.019-.275-.095-.275-.264 0-.16.114-.255.275-.236.141.01.132-.038.085-.132-.02-.047-.048-.094-.066-.132-.057-.113-.114-.207-.237-.047-.075.104-.189.104-.302.038-.114-.076-.152-.198-.095-.293.132-.207-.028-.207-.142-.235-.094-.02-.198-.01-.302-.01-.123 0-.199.02-.104.17.075.123.037.245-.076.33-.123.085-.265.047-.331-.066-.142-.264-.208-.085-.284.028-.047.076-.094.16-.132.245-.038.095-.038.151.104.151.151 0 .274.066.284.236.01.16-.104.245-.265.264-.123.01-.132.075-.076.17.038.056.057.122.104.179.048.075.114.15.152-.01.028-.122.113-.179.236-.179.104 0 .19.038.227.142.047.122.019.216-.076.301-.028.029-.066.057-.104.085.284.113.558.123.842.028zm-3.262-.961.028.301c.047.396.217.736.388 1.085.142.283.359.49.576.707.048.047.086.056.133-.01.255-.358.52-.716.785-1.074.056-.076.075-.142 0-.236a1.235 1.235 0 0 1-.293-.98c.009-.085-.01-.133-.086-.16-.435-.142-.87-.274-1.314-.416-.057-.019-.142-.01-.123.057.066.245-.151.471-.094.726zm2.713 1.207c-.075-.02-.132-.029-.18-.057-.179-.094-.283-.028-.396.141-.208.321-.435.632-.662.934-.076.103-.076.17.047.235.955.472 1.891.462 2.827-.066.114-.066.114-.132.038-.226-.17-.226-.378-.443-.51-.697-.2-.406-.473-.462-.852-.274l-.01.01c.408.188.616.509.55.839a.743.743 0 0 1-.748.594c-.274 0-.586-.255-.652-.538-.095-.415.057-.66.548-.895zm1.305-.632c-.208.17-.208.207-.057.405.2.264.388.528.587.802.236.33.246.34.51.028.605-.726.823-1.556.634-2.489-.029-.141-.085-.15-.208-.104-.35.132-.71.245-1.069.368-.274.094-.302.15-.227.452.473-.339.937-.31 1.173.085.227.368.113.82-.246 1.01-.463.225-.841.037-1.097-.557zm-2.099-1.49c-.53-.028-.804-.188-.898-.537a.703.703 0 0 1 .302-.783.712.712 0 0 1 .832.029.746.746 0 0 1 .265.48c.029.198-.028.378-.17.557.142-.047.246-.085.34-.104.123-.028.161-.094.161-.217-.01-.415-.01-.83-.01-1.235 0-.141-.056-.17-.179-.15-.142.018-.265.103-.416.103-.246.01-.463.104-.671.236-.464.292-.87.631-1.107 1.16-.104.235-.028.254.142.301.35.094.7.189 1.04.311.19.076.293.047.37-.15zM57.25 57.1c.019.075.066.075.104.085.198.056.321.17.34.396.02.245-.047.433-.293.527-.057.02-.142.048-.132.114.01.084.104.066.17.084.416.085.567.519.312.84-.057.075-.199.141-.16.226.047.085.179 0 .283-.01.34-.028.586.283.463.585-.047.113-.208.236-.132.32.075.085.236-.037.369-.056.293-.057.491.113.482.415 0 .094-.02.188-.029.283-.018.141.038.15.152.094s.217-.123.33-.17c.218-.085.379-.028.473.17.142.283.161.292.426.113.019-.01.038-.019.047-.028.038-.029.114-.029.104-.095-.01-.066-.085-.066-.132-.084-.728-.151-1.324-.528-1.834-1.075-.946-1.018-1.069-2.857-.246-3.979.217-.302.472-.565.766-.81-.275.009-.483.113-.69.245-.048.028-.048.056-.057.103-.01.528-.076.585-.596.585-.066 0-.16-.038-.19.037-.018.066.076.104.124.142.16.141.246.302.189.528-.057.226-.19.358-.426.377-.075 0-.142.019-.217.038zm-39.827.047c.104.094.123.254.322.188.387-.132.775-.254 1.163-.367.18-.057.208-.132.123-.293-.237-.414-.54-.773-.946-1.027a3.027 3.027 0 0 0-1.163-.453c-.142-.019-.217.01-.208.18.01.339 0 .688 0 1.027 0 .368.01.377.388.471-.218-.386-.199-.697.047-.942s.548-.302.842-.142c.274.151.434.481.368.773-.094.396-.293.528-.936.585zm35.014-9.315c0 .019.01.038.01.057.113 0 .226-.01.34 0 1.012.066 2.033.132 3.045.188.52.028.52.019.538-.518.01-.198-.047-.246-.245-.217-.766.113-1.542.207-2.308.31-.463.057-.917.123-1.38.18zm-37.028 3.545c-.01-.18-.028-.311-.028-.434-.01-.386-.01-.773-.142-1.15-.038-.123-.085-.132-.199-.113-.728.16-1.059.782-1.57 1.3.748-.235 1.362-.122 1.94.397zm44.895 1.188c-.151-.01-.293-.019-.274.198.01.17-.066.358.246.377.69.028 1.352.18 2.004.415.322.113.634.245.927.415.057.037.132.075.18-.01.047-.075-.02-.113-.067-.16-.038-.038-.075-.066-.113-.094a5.288 5.288 0 0 0-1.192-.67c-.557-.235-1.115-.415-1.711-.471zm-44.431.264c-.53.066-1.135.075-1.712.254-.34.104-.605.35-.927.5-.227.113-.453.245-.67.368-.067.037-.086.085-.058.16.048.085.095.019.142 0 .114-.047.227-.104.34-.16.596-.274 1.192-.566 1.854-.68.425-.075.85-.056 1.276-.065.114 0 .161-.028.161-.15 0-.218-.01-.237-.406-.227zm14.986 2.046c-.104-.038-.18.075-.208.235a.706.706 0 0 0 .313.736c.274.17.557.17.832-.01.217-.141.35-.49.283-.744-.019-.057-.038-.142-.085-.16-.113-.048-.151-.152-.217-.246-.085-.132-.237-.15-.388-.15-.076 0-.113.056-.113.122-.029.207-.152.264-.417.217zm14.638.188c0 .415.198.688.463.783.321.103.633.019.832-.227.18-.226.208-.593.047-.83-.038-.065-.075-.169-.189-.131.038.122-.255.113-.104.311.123.15.085.349-.066.49-.132.132-.284.142-.444.047-.265-.15-.275-.452 0-.66.132-.103.075-.207.028-.292-.057-.113-.142-.028-.208.01-.236.141-.36.348-.36.5zm-28.49 4.922c0-.32-.227-.538-.548-.528a.519.519 0 0 0-.54.528c0 .31.247.556.568.546.322 0 .52-.198.52-.546zM54.97 50.65c.019.01.038.028.047.038.199-.387.54-.33.86-.33h.946c.133 0 .227-.076.17-.189-.047-.113-.141-.226-.293-.236-.53-.009-1.05-.009-1.579-.009-.085 0-.15.028-.15.123v.603zm-22.599 4.035a.435.435 0 0 0-.037.34c.104.396-.104.876-.445 1.074-.444.245-.936.189-1.248-.141-.36-.377-.388-.867-.095-1.31.048-.067.114-.151.029-.217-.076-.057-.133.047-.17.103-.464.557-.246 1.424.435 1.773.444.226 1.011.113 1.352-.245.387-.415.454-.934.18-1.377zm12.67.462c-.009.566.36 1.037.88 1.16.53.132 1.106-.123 1.343-.594.113-.226.227-.49.094-.698-.141-.245-.17-.547-.397-.745-.019-.019-.038-.028-.056-.047-.048-.028-.086-.066-.133-.01-.038.048-.019.095.019.133l.095.094c.359.34.425.81.18 1.254a.966.966 0 0 1-1.079.452c-.491-.132-.766-.509-.775-1.008 0-.104.132-.283-.038-.293-.18-.009-.094.208-.132.302zm9.286-4.761s-.01 0 0 0c0-.141-.01-.273 0-.415.01-.179-.085-.207-.236-.188-.379.066-.596.49-.426.886.085.198.322.31.577.245.18-.047.066-.226.085-.34.01-.056 0-.122 0-.188zm-19.563 9.428c-1.21.49-1.617 2.084-.804 3.083.217.264.492.471.813.594.047.019.114.075.142-.01.028-.066-.047-.075-.095-.094-.019-.01-.047-.019-.066-.028-.7-.358-1.087-.924-1.097-1.707 0-.726.34-1.282.974-1.65.076-.047.133-.084.133-.188zm12.358-.038c-.047.02-.085.038-.123.057-.974.509-1.343 1.838-.756 2.781.189.302.435.547.747.726.037.019.104.075.15.01.039-.057-.037-.076-.075-.114A.153.153 0 0 0 47 63.2a1.886 1.886 0 0 1 .01-3.225c.047-.028.094-.056.141-.094.02-.01.02-.047.02-.066-.01-.019-.03-.028-.048-.038zm-4.085-.01c.02.152.114.17.19.218.784.433 1.153 1.433.831 2.272a1.882 1.882 0 0 1-.766.943c-.037.018-.113.028-.075.103.038.066.094.029.142 0a.873.873 0 0 1 .075-.047c.776-.547 1.078-1.499.719-2.385a1.918 1.918 0 0 0-1.116-1.103zm12.472-.046c0 .113.057.141.113.17.662.367 1.012.952 1.003 1.696-.01.736-.388 1.283-1.03 1.64-.058.03-.143.057-.095.133.037.056.104 0 .15-.028a1.992 1.992 0 0 0 1.05-2.207c-.17-.669-.557-1.121-1.191-1.404zm-24.802 3.61c.473.038 1.021-.735 1.107-1.517.085-.792-.596-1.867-1.277-1.933.643.387 1.097.905 1.144 1.669.047.782-.312 1.357-.974 1.782zm-8.462-3.45c-.048.019-.086.019-.104.028-1.334.688-1.428 2.404-.435 3.29.037.038.094.095.141.029.057-.066-.028-.094-.066-.132-.908-.858-.813-2.244.208-2.97.095-.047.227-.066.256-.245zm3.687 2.121c.029-.141-.01-.254-.113-.377-.114-.132-.161-.311-.18-.48-.01-.076.057-.19-.104-.19-.142.01-.151.095-.142.208.038.33.076.65.104.98.01.142.076.19.218.17.208-.018.255-.132.217-.31zm12.463-.066c.028-.15-.029-.283-.114-.405a.709.709 0 0 1-.151-.51c.019-.178-.076-.15-.18-.112-.104.037-.104.113-.094.198.037.31.094.612.122.924.029.245.114.292.331.179.133-.057.076-.17.086-.274zm12.462-.075c-.01-.094.028-.198-.047-.283-.161-.18-.218-.405-.246-.641-.01-.076-.029-.132-.133-.094-.085.028-.16.037-.141.15.056.34.113.68.15 1.019.02.188.105.207.256.17.19-.048.151-.19.16-.321zM15.834 50.708v-.604c0-.085.019-.188-.114-.198-.123-.01-.142.094-.151.18-.066.424-.047.848 0 1.272.01.085.038.141.132.141.114 0 .123-.084.123-.17.01-.207.01-.414.01-.621zm39.013-.34c-.01 0-.01 0 0 0 0-.132.01-.264 0-.396-.01-.179-.17-.16-.284-.17-.122-.009-.104.104-.104.18v.773c0 .141.057.179.199.17.16-.01.208-.086.199-.227-.02-.122-.01-.226-.01-.33zm-38.871 1.028c.359-.425.359-1.056 0-1.377v1.377zm-.757 9.494c0-.113-.047-.17-.142-.189-.075-.01-.473.33-.454.387.057.207.303.207.398.188.18-.01.122-.264.198-.386zm6.988 2.847c0-.066 0-.141-.02-.207-.018-.104-.103-.142-.198-.114-.057.01-.312.444-.293.51.01.028.038.047.057.056.132.057.274.019.397-.01.095-.018.028-.15.057-.235zm.662.462c.056-.132.312 0 .293-.189-.02-.15.019-.396-.237-.443-.104-.019-.236.274-.246.51 0 .122.095.084.19.122zm8.33-9.928c.038-.132-.028-.188-.114-.17-.132.02-.302.02-.359.17-.047.132.114.462.208.453.312-.028.16-.33.265-.453zm13.918 9.805c.086-.084.284 0 .322-.16.038-.17-.132-.462-.227-.462-.123-.01-.246.236-.265.5-.01.113.066.113.17.122zM17.14 61.795c.018-.151-.067-.198-.161-.217-.047-.01-.397.387-.388.434.066.217.303.16.407.141.198-.019.075-.254.142-.358zm2.95 1.367c-.038-.113.028-.264-.104-.349-.067-.047-.152-.047-.19.047-.066.16-.264.311-.189.472.067.132.275.037.416.028.104 0 .048-.123.067-.198zm9.465.99c.132 0 .33-.123.33-.189-.009-.245-.113-.443-.245-.443-.104.01-.246.32-.237.519 0 .122.095.094.152.113zM13.62 56.76c.132.02.17-.028.208-.085.038-.066.01-.103-.038-.15-.075-.076-.142-.16-.217-.236-.047-.047-.085-.142-.16-.104-.077.028-.152.104-.133.208.019.094-.104.207.038.264.113.056.236.084.302.103zm-.756 1.754c-.02.094.075.16.094.254.029.151.142.104.218.066.123-.056.321-.009.34-.226 0-.066-.047-.104-.104-.113a7.269 7.269 0 0 0-.435-.104c-.104-.028-.113.038-.113.123zm6.278 4.195c.01-.15-.066-.198-.17-.207-.057-.01-.397.377-.378.434.056.216.274.15.397.141.208-.028.066-.273.151-.368zm-3.262-1.008c.066-.02.17.066.199-.066.028-.151.113-.302.018-.453-.047-.075-.15-.094-.226 0s-.142.189-.227.273c-.133.132-.048.189.075.236.057.01.104 0 .161.01zm11.782 2.243c-.02-.094-.048-.198-.076-.301-.019-.076-.047-.132-.142-.132s-.142.047-.16.122c-.03.104-.057.208-.076.311-.01.057-.067.123.01.17.131.085.245-.028.368-.056.066 0 .085-.038.076-.114zM14.14 60.748c.047 0 .312-.358.303-.424-.01-.085-.038-.141-.133-.15-.085 0-.52.216-.52.263 0 .066.274.311.35.311zm37.53 3.102c-.03.123.009.18.103.17.142-.01.293-.028.36-.16.047-.095-.142-.462-.209-.453-.293.047-.141.34-.255.443zm-5.457.217c.085-.066.284 0 .322-.16.047-.17-.133-.481-.227-.462-.265.066-.17.34-.246.509-.038.094.047.113.151.113zm-3.338.01c.114 0 .35-.114.35-.18.01-.198-.132-.48-.236-.452-.274.075-.16.34-.236.518-.048.104.056.104.122.113zm-18.92.094c.076-.095.293.01.321-.17.038-.226-.132-.49-.255-.453-.246.076-.16.33-.217.5-.02.104.056.132.151.123zM13.602 59.41c-.066.009-.151.028-.246.028-.17.01-.141.113-.094.207.113.245.217.264.435.113.019-.009.028-.018.047-.028.066-.066.19-.094.142-.226-.047-.151-.16-.094-.284-.094zm30.352 4.666c.095.02.161-.066.246-.075.123-.019.161-.066.114-.17-.066-.132.01-.349-.227-.377-.076-.01-.114.038-.133.104-.037.132-.066.264-.104.396-.028.104.02.122.104.122zm-5.522.029c.057-.104.312.01.293-.189-.009-.15.02-.386-.226-.434-.104-.018-.246.302-.237.519 0 .094.066.094.17.104zm4.719-10.079c-.085.085-.322.01-.312.18 0 .15-.02.386.208.442.123.029.236-.207.255-.518.019-.113-.066-.076-.151-.104zm-12.5 10.116c.075-.094.302.01.321-.17.028-.216-.123-.452-.246-.442-.104.009-.236.292-.236.5 0 .094.056.112.16.112zM18.14 62.23c.019-.132-.066-.17-.151-.189-.076-.01-.426.349-.407.434.057.198.255.141.378.132.246-.01.095-.264.18-.377zm43.524-1.877a.984.984 0 0 1 .037.16c.114.387.048.529.454.133.057-.048.066-.085.01-.132-.085-.085-.17-.17-.246-.255-.057-.056-.114-.047-.17-.019-.048.02-.095.057-.085.113zm-45.727-5.694c0-.094.028-.198-.095-.18-.151.029-.302.086-.369.227-.037.075.208.443.275.424.293-.066.085-.34.189-.471zm29.406-.641c-.075.103-.283.019-.312.188-.028.18.142.453.237.453s.246-.32.246-.519c0-.113-.086-.094-.17-.122zm-9.096 10.097c.085-.085.312-.019.293-.179-.019-.15.029-.387-.217-.443-.114-.028-.237.254-.246.5-.01.122.076.103.17.122zm-4.5.028c.084-.084.32-.018.32-.188 0-.142.01-.377-.207-.424-.123-.029-.265.273-.265.518 0 .085.057.085.151.094zm-3.282.02c.057-.114.312-.01.303-.19-.01-.15 0-.442-.227-.433-.265.01-.17.32-.246.5-.047.122.076.103.17.122zm-5.144-9.89c-.075.094-.312.009-.302.188.01.16 0 .443.217.434.275-.01.17-.321.237-.5.056-.104-.057-.094-.152-.123zm12.122 9.616c-.018-.085-.056-.198-.085-.32-.019-.067-.066-.086-.132-.086-.076 0-.123.029-.142.104-.028.113-.057.217-.085.33-.019.057-.047.132.019.17.132.085.246-.047.378-.057.057 0 .057-.047.047-.141zm1.882.217c.085-.066.274-.01.312-.16.038-.17-.142-.481-.227-.463-.255.066-.16.33-.236.49-.047.095.047.133.151.133zm13.692-9.768c.037-.132-.038-.188-.114-.17-.123.029-.302-.009-.35.142-.047.18.104.48.218.462.283-.038.142-.32.246-.434zm1.91 9.702c.075-.085.283-.02.321-.18s-.132-.461-.227-.443c-.274.066-.17.33-.246.51-.047.094.048.094.152.113zm-13.399.056c.057-.103.303.01.293-.179-.01-.15.02-.434-.227-.424-.274.01-.16.311-.236.48-.028.086.047.133.17.123zm-14.41.066c.095.01.35-.094.36-.141.018-.132-.133-.472-.218-.462-.284.038-.19.302-.265.471-.047.104.047.113.123.132zm-.69-9.918c-.057.123-.312.01-.293.207.019.151-.01.387.236.434.095.019.236-.311.236-.518 0-.114-.085-.095-.18-.123zm34.163-11.182c.066.085.132.151.113.246-.028.122.028.14.132.14h.265c.057 0 .114-.008.095-.074-.029-.123.028-.208.142-.302-.265-.01-.492-.01-.747-.01zm-9.92 11.022c-.084.094-.302 0-.33.179-.038.217.113.49.227.452.255-.075.17-.339.246-.518.047-.085-.057-.085-.142-.113zm2.015 9.956c.104 0 .34-.104.35-.16.018-.17-.133-.49-.227-.463-.275.066-.161.34-.237.51-.056.103.048.103.114.113zM36.54 54.054c-.056.114-.312.01-.293.198.01.151-.01.444.227.425.274-.02.151-.33.236-.5.038-.104-.075-.094-.17-.123zm1.097 0c-.066.104-.312.02-.293.189.019.15-.038.387.208.443.123.028.246-.264.255-.518 0-.114-.094-.085-.17-.114zm8.954.151c.038-.141-.028-.188-.104-.17-.122.029-.321.01-.321.17 0 .151-.038.425.17.434.303.019.16-.32.255-.434zm16.945 5.506c.113-.056.142-.16.151-.283.01-.066.085-.15-.038-.179-.151-.028-.293-.179-.473-.066-.028.02-.047.066-.047.095-.019.056.331.433.407.433zm-46.484-5.185c.02-.132-.047-.17-.122-.16-.123.028-.294.018-.34.16-.048.15.141.48.236.452.264-.056.132-.33.226-.452zm21.824-.283c.047-.141-.01-.18-.095-.17-.132.02-.302.02-.36.17-.046.141.114.462.209.453.293-.057.16-.35.246-.453zm-18.57.245c.037-.141-.039-.16-.105-.15-.132.018-.302.028-.34.178-.038.17.123.462.217.444.284-.076.133-.359.227-.472zm7.44-.302c-.084.057-.255.02-.311.151-.048.132.141.481.227.462.302-.047.16-.33.236-.49.047-.104-.038-.123-.151-.123zm1.249.123c.028-.123-.01-.16-.085-.15-.142.027-.312.037-.37.188-.046.132.133.443.228.424.293-.057.123-.349.227-.462zm6.458-.236c-.076.085-.293-.01-.312.189-.02.226.132.462.246.424.246-.085.151-.34.217-.509.038-.094-.057-.094-.151-.104zm-22.23 3.64h.113c.086 0 .161 0 .199-.104.038-.123-.038-.16-.113-.198-.086-.057-.17-.094-.256-.151-.123-.075-.189-.019-.217.094-.066.227.047.359.274.359zm47.079 3.922c-.095-.104-.19-.198-.274-.293-.057-.056-.104-.075-.18-.028-.066.038-.104.085-.085.17.028.085.047.188.085.264.028.075-.01.226.142.188.16-.037.208-.198.312-.301zm-39.155 1.829c-.01-.066-.02-.151-.038-.227-.01-.085-.057-.113-.133-.132-.085-.019-.113.038-.141.095-.057.103-.114.207-.161.32-.019.038-.047.094.01.132.132.104.264.01.396.019.095 0 .048-.132.067-.207zm26.182.594c.095-.076.284-.01.312-.151.047-.189-.123-.472-.236-.472-.114 0-.237.274-.237.5-.01.132.085.094.161.123zm15.063-4.196c-.114.066-.265.113-.35.208-.057.066.085.14.142.207.047.056.104.113.15.16.067.066.124.02.19-.01.076-.037.076-.084.057-.15-.038-.113-.066-.226-.095-.34-.019-.028-.019-.084-.094-.075zM39.217 61.54c.199-.207.208-.509.029-.688a.516.516 0 0 0-.662-.028c-.199.17-.237.415-.067.64-.066-.254-.018-.442.208-.555.17-.085.322-.038.454.084.18.16.142.35.038.547zm12.444-7.118c.028.085.056.198.094.311.029.076.085.085.151.085s.104-.047.123-.104c.029-.103.057-.207.076-.31.01-.057.076-.114.01-.17-.142-.114-.256.037-.388.047-.066 0-.076.056-.066.141zM26.764 61.56c.18-.217.161-.49-.028-.66a.482.482 0 0 0-.653 0c-.198.18-.217.396-.056.585-.038-.208-.01-.387.18-.5a.37.37 0 0 1 .425.01c.198.14.217.33.132.565zm6.165 2.583c.076-.094.322-.009.312-.207-.01-.141.01-.358-.208-.415-.113-.028-.264.274-.264.519 0 .094.056.094.16.103zm24.925-1.602c.028.094.057.216.085.34.019.046.01.122.085.131a.198.198 0 0 0 .18-.075c.028-.038.057-.085.094-.114.057-.056.133-.113.029-.17-.133-.084-.18-.33-.407-.244-.057 0-.075.047-.066.132zm-32.158-8.146c.019-.113-.01-.17-.104-.16-.133.018-.312.018-.35.179-.047.15.123.462.217.443.294-.066.142-.34.237-.462zM48.37 63.86c-.047.15.028.188.104.179.133-.02.34-.029.34-.17s.01-.415-.198-.424c-.303-.02-.17.301-.246.415zm-4.435-9.655c.029.113.057.227.086.35.018.065.066.103.141.103.076 0 .123-.038.142-.104.029-.104.066-.217.085-.33.01-.056.067-.132-.01-.17-.131-.075-.245.038-.377.066-.048.01-.076.029-.067.085zm19.999 4.083c-.085 0-.16-.01-.227 0-.095.018-.151.113-.095.179.114.15.294.283.464.283.151.009.075-.198.094-.312.057-.264-.18-.084-.236-.15zm-1.504-2.8c.057-.048.114-.095.17-.151.303-.274.303-.274-.066-.415-.113-.047-.17-.028-.18.085-.009.15-.226.31 0 .462.02.01.039.01.076.019zm-28.404 8.636c.085-.076.312-.02.303-.189-.01-.141.028-.377-.199-.424-.132-.029-.246.217-.255.49-.02.132.075.104.151.123zm24.915-2.291c-.037.009-.123.028-.123.084-.009.18.048.359.114.519.019.047.066.047.113.028.133-.056.208-.179.256-.301.028-.066-.265-.34-.36-.33zm-5.853-7.609c-.085.085-.283 0-.312.17-.028.207.114.443.227.443.104 0 .237-.273.246-.5-.01-.103-.085-.094-.16-.113zm-38.786 1.518a3.868 3.868 0 0 1-.123-.273c-.028-.066-.047-.17-.132-.17-.086 0-.142.075-.18.141-.019.038-.038.085-.066.113-.057.076-.057.151.038.18.132.047.208.264.406.141.038-.01.066-.057.057-.132zm41.623-1.084c.019.066.047.179.085.292.02.057.076.076.133.076.066 0 .104-.029.122-.095.029-.103.057-.207.086-.301.018-.066.066-.142 0-.189-.123-.104-.227.038-.35.047-.057.01-.085.057-.076.17zm-6.373 9.38c.274.01.397-.14.322-.367l-.057-.16c-.02-.066-.057-.095-.123-.095-.076-.009-.123.038-.142.104-.038.123-.066.255-.104.377-.019.113.038.142.104.142zm-7.744.057c.085-.094.312-.028.293-.207-.019-.142.038-.387-.227-.406-.113-.009-.236.274-.246.5.01.123.114.076.18.113zm-7.319-9.833c.02-.123-.028-.198-.113-.18-.123.029-.34.02-.34.161 0 .15-.02.434.208.434.274.01.15-.302.245-.415zm5.494-.028c.047-.142-.028-.18-.104-.17-.132.019-.33.028-.34.179-.01.141-.02.405.189.415.302.01.151-.32.255-.424zm-20.755.245c.01-.132-.113-.132-.151-.113-.104.056-.322.009-.312.179.019.15-.01.377.227.415.113.018.236-.246.236-.481zm22.968-.255c0-.17-.104-.207-.161-.179-.104.047-.322.01-.303.15.02.161-.019.406.237.453.085.029.236-.292.227-.424zm-12.207-.085c-.256-.01-.36.132-.294.359.02.056.038.122.057.179.02.066.066.094.142.094.113 0 .132-.085.142-.16.028-.151.113-.293.028-.443-.01-.029-.057-.029-.075-.029zm33.661 2.584c.227 0 .435-.029.454-.076.038-.132-.094-.207-.132-.311-.038-.094-.095-.094-.18-.047-.076.047-.16.104-.236.15s-.104.104-.076.19c.019.094.095.094.17.094zm-16.103-2.66c-.217 0-.321.133-.264.369.01.047.028.094.038.141.018.085.075.104.15.113.076.01.114-.038.133-.104.038-.122.057-.245.104-.358.057-.141-.028-.15-.16-.16zm-29.435.482c.02-.113-.018-.18-.104-.16-.122.037-.312.009-.34.188-.038.18.114.443.227.415.265-.057.104-.33.217-.443zm32.849 6.835c-.047-.226 0-.405.208-.528a.37.37 0 0 1 .425.028c.19.142.218.33.123.575.17-.245.152-.509-.01-.66a.515.515 0 0 0-.642-.037c-.218.16-.255.367-.104.622zm5.02 2.234c.048.095-.084.283.124.293.132.01.274-.085.33-.217.038-.085-.207-.406-.274-.406-.245.01-.132.208-.18.33zM21.272 54.3c-.076.075-.312.009-.303.188.01.151 0 .368.218.424.104.029.236-.282.236-.518-.01-.094-.057-.094-.151-.094zm28.177-.01c.028.113.057.226.085.349.02.066.066.104.142.104s.113-.029.142-.104c.028-.104.066-.198.094-.302.02-.056.057-.122-.01-.17-.046-.037-.113-.047-.179-.018s-.132.066-.217.066c-.057-.01-.076.028-.057.075zm14.268 1.424c-.047-.151-.208-.189-.312-.274-.085-.066-.113.066-.16.113-.057.048-.095.114-.142.18-.057.075-.038.132.019.198.056.056.113.047.17.018.142-.075.312-.084.425-.216v-.02zM26.263 64.17c.085-.076.312-.02.293-.198-.019-.142.02-.406-.208-.406-.283.01-.17.311-.246.472-.037.113.076.103.161.132zm36.385-4.309c.057.132.019.358.16.443.124.076.2-.132.303-.207.066-.047.048-.104 0-.151l-.227-.226c-.047-.047-.085-.066-.151-.038-.066.038-.104.075-.085.18zm-29.388-5.78c-.094.048-.255.029-.312.18-.047.122.123.443.208.434.274-.048.16-.312.246-.462.057-.095-.019-.132-.142-.151zm-18.277 1.113c-.067-.113.028-.31-.142-.415-.066-.037-.35.217-.34.283.009.085.274.35.35.35.103-.02.16-.076.132-.218zm42.048 7.703c-.085.028-.18.066-.132.179.066.15-.019.415.217.453.133.018.208-.17.284-.283.028-.047-.302-.35-.369-.35zm-16.32 1.188c.085-.076.312-.01.293-.198-.01-.151.02-.377-.227-.406-.104-.009-.236.293-.227.5 0 .113.085.085.161.104zm20.178-3.338c-.104.038-.208.076-.16.18.066.15-.01.414.217.443.123.018.293-.18.274-.293-.028-.141-.189-.254-.33-.33zm-6.723-6.232c.038-.132-.037-.17-.104-.16-.123.019-.293.019-.35.142-.056.132.114.462.199.452.293-.028.151-.32.255-.434zm-27.373-.132c.028-.15-.067-.198-.142-.17-.114.038-.322.02-.312.18.01.15.019.415.217.415.274 0 .133-.32.237-.425zm33.85.16c-.113 0-.34.123-.34.17 0 .227.113.444.236.434.085-.01.256-.349.246-.509 0-.104-.085-.075-.142-.094zm-1.125-.028a1.072 1.072 0 0 1-.17.066c-.085.02-.17.038-.123.151.057.142-.019.35.208.387.066.01.114-.01.132-.076.038-.132.076-.264.104-.396.038-.113-.028-.132-.15-.132zm4.596 3.244c.113.028.18-.01.16-.095-.028-.122 0-.339-.151-.339s-.435 0-.444.207c0 .264.321.132.435.227zm-2.761-2.923c-.01.264.047.349.18.311.056-.019.32-.396.311-.452-.01-.029-.028-.057-.057-.066-.122-.066-.264-.029-.387-.01-.104.01-.02.151-.047.217zm-6.09-.302c.047-.122-.01-.16-.075-.15-.133.028-.34.009-.35.15-.01.151-.029.425.18.434.302.028.132-.32.245-.434zm-32.81-.066c.037-.132-.029-.198-.104-.179-.123.028-.322.019-.322.17.01.141-.019.405.199.415.293.019.123-.311.227-.406zm35.978 0c-.095.076-.284.01-.312.198-.029.198.113.425.236.425.085 0 .237-.33.237-.51 0-.122-.095-.075-.161-.113zm-2.998 9.353c-.037-.113-.066-.226-.104-.34-.019-.066-.085-.084-.15-.084-.067 0-.105.037-.124.103-.028.104-.057.208-.075.311-.01.057-.057.123.009.17.132.085.236-.028.35-.056.057-.01.104-.029.094-.104zm-1.55.019c-.048.15.047.179.113.16.114-.028.284-.028.322-.17.037-.15-.123-.443-.208-.433-.275.066-.142.33-.227.443zm3.583-9.22c.029-.114-.01-.17-.094-.161-.133.019-.284.028-.34.16-.057.132.113.462.198.443.265-.056.151-.32.236-.443zm-25.322-.52c-.085.076-.312 0-.293.18.02.141-.037.377.208.415.114.018.237-.255.237-.49.01-.104-.066-.095-.152-.104zm8.794-.056c-.085.075-.303.019-.293.189.01.15-.019.424.208.414.255-.009.16-.301.236-.462.048-.103-.056-.113-.15-.141zm-24.868.773c.028.066-.066.226.095.198.123-.019.302.076.35-.104.037-.15-.123-.414-.227-.414-.227-.01-.208.16-.218.32zm-.284 4.28c-.01-.018-.019-.056-.037-.056-.067-.019-.086.038-.114.075-.246.35-.501.689-.747 1.037-.028.048-.094.095-.028.142s.094-.038.123-.076l.737-1.018a.28.28 0 0 0 .066-.104zm-2.316-.905c0-.283-.02-.32-.237-.32-.123 0-.283-.057-.293.16-.01.17.152.264.416.264.085.01.123-.019.114-.104zm16.33 3.724c.141-.009.236-.075.245-.226.01-.16-.085-.254-.227-.264-.141-.01-.255.076-.264.236 0 .15.094.236.245.254zm12.471-.546c-.142.009-.236.084-.236.235 0 .16.094.245.246.245.151 0 .246-.084.246-.235 0-.151-.085-.236-.256-.245zM13.47 54.243c.094.141.16.255.246.368.047.066.066.179.189.122.123-.047.217-.122.227-.273 0-.057-.01-.113-.085-.123-.18-.028-.36-.056-.577-.094zm22.315 7.401c-.02-.15-.095-.245-.255-.236-.152.01-.246.095-.237.236.01.15.104.236.265.236.151 0 .217-.095.227-.236zm15.573-.679c-.16.019-.255.104-.246.255.01.141.104.235.246.226.151 0 .246-.094.236-.255 0-.141-.094-.207-.236-.226zm-28.329.5c-.142.019-.255.085-.246.245.01.16.095.245.256.236.151-.01.227-.095.227-.245-.01-.142-.085-.227-.237-.236zm25.17.104c-.009-.142-.103-.227-.254-.227-.152 0-.237.095-.237.236 0 .15.104.245.256.245.141 0 .236-.085.236-.254zm-30.852-2.593c-.02.01-.048.019-.048.028-.028.057.02.094.048.132l.765 1.047c.029.037.057.103.114.075.066-.047.01-.094-.019-.141l-.766-1.047c-.028-.038-.066-.066-.094-.094zm21.795 2.31c-.01-.16-.095-.245-.246-.245-.152 0-.237.103-.246.235-.01.151.094.236.246.245.16-.009.227-.103.246-.235zm-12.482.028c-.019-.132-.104-.217-.246-.217s-.236.085-.236.236c0 .16.095.245.246.245s.227-.104.236-.264zm37.283-4.45c-.075.01-.15.028-.227.028-.132 0-.198.038-.17.189.029.132.076.207.227.141.066-.028.133-.028.199-.047.085-.028.18-.028.16-.16-.009-.123-.075-.16-.189-.151zm-9.228 4.912c.16 0 .255-.075.255-.226.01-.16-.104-.236-.236-.236-.142-.01-.246.075-.246.226 0 .151.094.227.227.236zm-39.401-4.243c-.02-.018-.038-.047-.057-.056l-1.362-.424c-.019-.01-.066.009-.075.028-.02.047.028.066.056.075.445.142.89.274 1.324.415.038.019.085.028.114-.038zm3.895-.471c-.019-.038-.047-.047-.085-.028-.444.141-.88.283-1.324.424-.037.01-.094.028-.085.085.01.056.057.028.095.019.435-.132.87-.274 1.305-.406.038-.019.085-.037.094-.094zm44.507 2.027c.104.019.152 0 .19-.066s.009-.123-.048-.16c-.104-.066-.198-.132-.302-.189-.161-.085-.161.076-.208.151-.057.085-.029.132.066.16.113.038.227.076.302.104zM15.465 61.38c.104-.028.151-.141.217-.217.152-.179.142-.188-.085-.264-.283-.104-.246.151-.302.274-.085.16.056.179.17.207zm9.493 2.121c-.17.132-.302.236-.444.35-.076.056-.076.131-.047.216.028.066.066.104.141.104.085-.01.18-.01.208-.123.048-.179.095-.349.142-.547zm21.275-8.089c.142-.019.227-.104.227-.236s-.094-.226-.227-.226c-.142 0-.236.085-.227.236 0 .15.095.207.227.226zm-32.896 3.866c.076-.095.303.084.34-.123.02-.075-.037-.264-.17-.245-.132.028-.34 0-.378.207-.01.095.048.18.208.16zm3.253-3.347v-.66c0-.038.01-.104-.047-.104s-.057.057-.057.094v1.33c0 .037 0 .103.057.094.057-.01.047-.066.047-.104v-.65zm46.238-.123c.104-.123.189-.236.283-.349.066-.075.038-.132-.028-.188s-.123-.047-.18.019c-.066.075-.151.132-.217.207-.038.038-.133.066-.076.141.057.057.132.104.218.17zM28.324 62.87c-.028.01-.056.018-.066.037-.019.038.02.066.048.095.236.282.538.462.888.575.048.019.123.066.142-.02.029-.084-.057-.084-.104-.103a1.943 1.943 0 0 1-.813-.518c-.028-.02-.066-.038-.095-.066zM13.64 57.034c-.057-.18-.236-.16-.36-.208-.122-.047-.16.057-.16.142 0 .235.227.226.36.283.141.047.075-.151.16-.217zm2.27-7.439c-.057-.057.028-.198-.076-.226-.085-.029-.208-.047-.303.037s-.104.217-.132.33c0 .01.038.048.047.038.132-.066.274-.047.416-.047.057 0 .047-.066.047-.132zm46.312 5.28c.01-.076-.009-.113-.056-.123-.066-.019-.123-.038-.17.038-.057.094-.114.188-.17.292-.039.066-.076.132.028.16.085.029.189.132.255-.01.057-.122.085-.254.113-.357zM13.81 60.21c.085-.038.18-.085.284-.132.094-.047.085-.094.038-.17-.123-.17-.227-.16-.454.047-.047.038-.076.085-.047.142.037.066.075.122.18.113zm10.969-2.498c.123-.01.208-.076.217-.208 0-.141-.094-.217-.227-.217-.132 0-.208.085-.208.217s.076.198.218.208zm3.262-.444c-.133.01-.218.066-.227.198-.01.132.066.217.198.227.133.01.227-.066.237-.208 0-.141-.076-.207-.208-.217zm12.472-.056c-.123.019-.218.066-.218.207 0 .132.076.208.208.217.142 0 .227-.075.227-.217.01-.15-.095-.188-.217-.207zm-3.026.254c0-.141-.057-.216-.19-.235-.132-.01-.226.047-.236.179-.019.141.057.236.199.245.123.01.208-.057.227-.189zm-23.563-1.093c.075-.038.17-.142.151-.217-.028-.16-.208-.217-.34-.283-.086-.038-.123.066-.142.141-.02.066.236.359.33.359zm47.258-1.5v-.122c0-.075.02-.16-.094-.17-.114-.009-.133.066-.152.151a1.503 1.503 0 0 0-.047.198c-.01.066-.085.142-.028.189.066.056.17.019.246-.01.123-.047.056-.17.075-.235zm-11.47 2.716c.133-.019.218-.085.228-.226s-.095-.189-.208-.189c-.133-.01-.246.066-.237.208-.01.122.085.198.218.207zm1.202-.933c0-.01.01-.066-.038-.076-.066-.01-.076.057-.085.104l-.17.952c-.01.047-.02.094.037.113.057.01.076-.047.076-.085.057-.33.113-.65.18-1.008zm2.06.5c-.122.009-.217.075-.217.207s.086.217.208.217.209-.066.218-.208c.01-.141-.076-.198-.208-.217zm-27.288.574c0 .038-.028.123.038.132.076.01.066-.075.076-.132.057-.301.113-.603.16-.905.01-.047.029-.113-.037-.122-.057-.01-.066.047-.076.094-.047.302-.104.613-.16.933zm25.88-.103c.01.047-.019.103.028.113.067.01.067-.057.076-.104.057-.311.114-.622.17-.943.01-.037.029-.103-.028-.113-.066-.01-.076.057-.085.104-.047.32-.104.632-.16.943zm-24.187-.83c-.01-.028.019-.094-.047-.094-.057 0-.067.056-.076.094l-.17.943c-.01.047-.029.113.038.122.047.01.066-.056.075-.094.066-.32.123-.641.18-.971zm23.998-.047c-.01-.076.019-.151-.047-.16-.057-.01-.057.056-.066.094l-.17.933c-.01.038-.02.104.037.113.066.02.066-.047.076-.084.057-.312.113-.623.17-.896zm-36.602-2.14c.113-.047.246-.104.378-.17.038-.019.094-.028.076-.094-.02-.057-.076-.029-.114-.02-.227.01-.463.142-.68-.046-.03-.029-.095-.01-.114.037-.029.066.028.066.075.076.114.01.199.056.265.16.01.028.038.066.114.057zm.321.292c.01.066.029.141.047.226.02.095.029.189.161.123.095-.047.218-.066.133-.226a1.386 1.386 0 0 1-.095-.208c-.028-.066-.066-.104-.151-.075-.066.028-.104.066-.095.16zm11.82 1.895c0-.038.018-.094-.038-.104-.057-.01-.066.047-.076.085-.057.32-.113.65-.16.98-.01.038-.01.086.028.095.066.01.056-.057.066-.094.057-.311.113-.632.18-.962zm12.944-.057c-.01-.056.01-.103-.038-.113s-.056.038-.066.076c-.057.33-.123.66-.18.99-.009.037-.009.085.038.094s.057-.038.066-.075c.067-.33.123-.66.18-.972zm-1.692.896c-.01.085-.029.142.028.16.066.02.076-.056.085-.103.057-.311.114-.623.16-.943.01-.038.039-.104-.018-.113-.066-.02-.076.056-.085.103-.057.312-.114.623-.17.896zm-23.526 2.8c-.056 0-.094.047-.104.085-.028.113-.274.189-.113.34s.236-.085.34-.142c.047-.019.123-.075.076-.15-.038-.076-.114-.105-.199-.133zm11.791-3.573c-.01-.066.02-.123-.038-.15-.047-.02-.056.027-.066.065-.056.33-.123.66-.18 1-.009.037 0 .084.048.084s.057-.037.066-.075c.066-.311.114-.622.17-.924zm12.491-.094c-.019-.047.028-.113-.038-.132-.057-.01-.066.047-.075.094l-.17.962c-.01.037-.02.094.047.103.047 0 .056-.047.056-.084.057-.321.123-.632.18-.943zm-25.974.056c0-.047 0-.085-.038-.094-.057-.019-.076.028-.095.066-.132.18-.17.443-.453.471-.048.01-.076.076-.038.123.047.047.075-.01.104-.028a.554.554 0 0 1 .16-.095c.095-.037.237.038.265-.132.02-.113.057-.216.095-.31zm-.17-.66c.122-.094.255-.075.397-.028.047.019.075-.038.104-.075.056-.085.104-.17.16-.255.02-.038.067-.075.02-.113-.048-.047-.095 0-.133.028-.16.142-.284.34-.548.302-.038-.01-.076.038-.076.094 0 .047.028.066.076.047zm39.543.557c-.02-.038.028-.114-.038-.123-.076-.01-.066.075-.076.123-.057.301-.104.603-.16.905-.01.037-.03.103.028.113.056.01.066-.047.075-.085l.17-.933zm-12.955-.104c-.037.028-.066.038-.066.047-.066.349-.132.698-.189 1.056-.01.028 0 .066.038.075.047.01.066-.028.066-.075a6.1 6.1 0 0 0 .076-.405c.028-.227.094-.444.075-.698zm1.324 6.194c.19.283.454.471.757.603.037.02.104.066.132 0 .038-.075-.038-.094-.085-.113a1.763 1.763 0 0 1-.605-.443c-.057-.047-.114-.075-.199-.047zm-26.976-2.187c-.104-.132-.199-.255-.303-.377-.019-.029-.057-.066-.094-.038-.057.028-.029.075-.01.113.095.217.274.415.16.679-.009.019.03.056.039.075 0 .01.047-.01.047-.01-.01-.178.028-.33.16-.442zm-.984-2.254a8.596 8.596 0 0 0-.028-.301c0-.038.01-.104-.047-.113-.067-.01-.067.066-.076.103-.057.208-.038.453-.284.575-.038.02-.047.085-.01.114.058.056.077-.01.095-.048.057-.084.123-.17.227-.179.114-.019.133-.085.123-.15zm32.943-4.506h.123c.066-.01.17.038.18-.047.01-.085-.095-.076-.16-.085-.2-.047-.417-.057-.52-.283-.02-.038-.077-.066-.114-.028-.057.056.019.066.047.094.047.047.132.094.142.141.028.208.16.246.302.208zM14.217 61.05a.153.153 0 0 0-.066.038c-.029.028-.02.056.01.085.14.179.34.31.302.584 0 .038.047.085.094.066s.02-.066.01-.094c-.038-.076-.067-.151-.048-.236.029-.094.114-.188-.037-.254-.086-.057-.17-.123-.265-.189zm-1.154-1.49c-.038-.094-.066-.207-.113-.31-.02-.048-.029-.114-.085-.104-.067.009-.048.084-.048.132 0 .207.104.433-.094.622-.029.028-.029.094.028.104.047.009.057-.038.066-.076a.394.394 0 0 1 .19-.254c.037-.02.066-.048.056-.114zm50.89-1.442c.066-.019.208.056.227-.085.019-.141-.142-.104-.227-.132-.038-.01-.076-.019-.104-.028-.085-.01-.199-.104-.237.075-.037.18.104.142.199.17.038.01.076 0 .142 0zM37.837 60.07c-.038.028-.19-.057-.17.047.028.17.198.245.368.282.095.02.095-.056.095-.122 0-.189-.104-.245-.293-.207zm-12.472.056c-.047.028-.16-.066-.18.066-.01.094.255.283.369.273.113 0 .076-.094.085-.15.019-.208-.132-.189-.274-.189zm23.346 4.507c-.076-.076-.209-.104-.227-.208-.057-.245-.227-.245-.416-.217-.057.01-.142-.028-.152.057-.01.066.076.066.133.085.189.056.416.056.51.283.02.047.085.047.152 0zM14.15 54.93c-.02-.094-.076-.094-.152-.056-.16.075-.312.188-.51.075-.048-.028-.104.019-.114.076-.01.084.057.056.104.047a.37.37 0 0 1 .265.056c.095.066.397-.085.407-.198zm36.13 5.073c-.03.009-.124-.038-.162.056-.028.076.218.264.35.273.123.01.104-.075.114-.15.01-.189-.123-.189-.303-.18zm-12.33-6.1h.198c.038 0 .104.009.104-.057 0-.047-.048-.057-.085-.066-.227-.057-.483-.066-.606-.311-.018-.028-.056-.038-.085-.01-.028.038 0 .057.029.076.075.047.142.104.16.179.029.198.152.207.284.189zm-3.178 10.39c-.01 0-.132-.067-.142.046-.01.104.114.095.19.114.15.037.311.056.378.235.018.047.066.057.113.047.019 0 .038-.018.038-.037 0-.047-.047-.057-.076-.076-.066-.037-.132-.085-.142-.16-.047-.17-.15-.217-.359-.17zm-17.2-1.519c-.018-.15-.18-.141-.283-.198-.038-.018-.095-.056-.133.01-.028.047.02.085.048.113.142.132.34.217.321.471 0 .038.057.076.104.057.048-.028.01-.066-.01-.094-.065-.114-.094-.217-.047-.359zm31.714 1.433c-.028.01-.151-.056-.17.048-.019.122.123.103.199.122.151.038.293.076.359.236.019.047.085.075.123.028.047-.056-.028-.066-.057-.085-.075-.047-.132-.103-.142-.188-.037-.17-.142-.189-.312-.16zm14.477-8.127c-.02-.103-.076-.113-.142-.084-.114.047-.227.094-.35.15-.066.029-.104.066-.057.142.038.056.085.122.161.066.113-.066.217-.142.331-.217.028-.019.038-.047.057-.057zm-20.623 8.58c-.047-.028-.066-.047-.094-.057-.067-.028-.152-.075-.161-.15-.028-.255-.208-.217-.369-.208-.047 0-.113 0-.123.057-.01.075.057.085.114.094.18.038.378.057.454.264.018.038.075.047.113.028.019 0 .038-.019.066-.028zm-17.795.085c-.095-.076-.218-.132-.227-.255-.019-.15-.085-.17-.208-.15-.076.009-.151 0-.227 0-.047 0-.113-.02-.123.047 0 .056.066.047.104.056.199.066.435.066.558.302.019.047.076.047.123 0zm19.44-.51c-.028.01-.15-.046-.17.057-.019.104.114.095.18.113.142.038.293.057.36.227a.095.095 0 0 0 .122.056c.02 0 .038-.019.038-.037.01-.057-.047-.066-.085-.085-.076-.038-.142-.104-.151-.18-.01-.15-.114-.179-.294-.15zm-1.115 0c-.029.01-.161-.056-.17.057-.01.104.132.085.208.104.15.038.293.066.359.236.019.047.057.075.104.056.019 0 .038-.019.047-.028.02-.047-.028-.057-.057-.075-.075-.048-.15-.104-.17-.189-.047-.15-.142-.189-.321-.16zm-16.585.076h-.142c-.047 0-.095.01-.095.066 0 .047.038.057.076.066.19.066.416.057.51.292.02.038.086.048.114.01.047-.066-.028-.066-.057-.085-.066-.047-.142-.094-.16-.18-.029-.15-.114-.188-.246-.169zm6.685-.038h-.104c-.057 0-.142-.009-.142.076 0 .066.066.075.123.085.18.028.36.056.444.254.02.038.076.057.114.02.028-.039-.02-.067-.048-.086-.075-.047-.132-.103-.15-.188-.03-.142-.124-.18-.237-.16zm16.935-10.691c.066.075.198.113.208.226.019.245.18.227.34.217.057 0 .123.019.142-.056.01-.076-.066-.085-.114-.095-.18-.037-.35-.075-.435-.273-.028-.057-.085-.076-.141-.019zm-30.91 10.4c-.057-.076-.17-.123-.161-.227.028-.302-.199-.274-.378-.311-.038-.01-.076-.02-.095.028-.019.057.019.085.057.104.18.094.378.17.435.405.01.038.047.057.094.047.02-.019.029-.037.048-.047zM15.465 53.96c.094.057.208.066.246.151.075.226.227.207.397.16.066-.019.18.01.18-.085 0-.066-.114-.066-.18-.066-.19-.009-.378.01-.501-.188-.029-.057-.095-.028-.142.028zm12.727 10.352h-.095c-.056.01-.141-.028-.15.066-.01.085.084.076.141.094.17.048.35.066.426.255.018.047.066.057.113.038.019-.01.038-.029.038-.038 0-.047-.047-.047-.085-.066-.076-.047-.142-.094-.152-.18-.028-.16-.122-.188-.236-.169zm1.57.406c-.067-.076-.19-.095-.208-.189-.029-.255-.208-.236-.379-.217-.047.01-.113-.019-.123.047-.009.076.067.085.114.095.18.047.378.056.454.273.019.038.066.057.113.028.02 0 .02-.028.029-.037zm7.233-.444c-.028.01-.132-.037-.151.057-.02.104.104.094.16.113.152.047.313.057.37.245.009.047.056.066.113.047.019-.01.038-.018.038-.037.01-.047-.038-.057-.067-.076-.075-.037-.141-.094-.16-.179-.029-.16-.123-.188-.303-.17zm3.896.387c-.01-.01-.02-.038-.029-.038-.141-.056-.189-.17-.208-.31-.009-.067-.056-.076-.113-.067a.626.626 0 0 1-.265 0c-.057-.01-.132-.01-.142.057-.01.075.076.075.123.085.199.037.397.056.501.273.02.038.057.047.104.028.01 0 .02-.01.029-.028zm.643-.424h-.142c-.047 0-.095.01-.104.066-.01.056.047.075.085.085.199.037.397.066.492.282.019.029.066.048.094.01.029-.047-.019-.066-.047-.085-.076-.047-.142-.104-.151-.189 0-.141-.085-.188-.227-.17zm-15.592.085c-.067.009-.161-.048-.199.047-.028.056.028.094.085.103.199.048.397.066.501.283.01.029.066.047.095.01.028-.047-.02-.066-.047-.085-.057-.038-.133-.076-.133-.151-.019-.189-.123-.245-.302-.207zm-7.395-1.01c.01-.131-.227-.348-.359-.31-.085.028-.066.084-.01.122.17.132.35.245.36.49 0 .038.057.076.104.038.047-.038 0-.066-.028-.094a.267.267 0 0 1-.067-.245zm31.903.887h-.094c-.057.01-.133-.019-.142.047-.019.085.076.094.123.104.18.047.36.066.444.264.02.047.095.066.123.019.038-.057-.038-.066-.066-.085-.076-.038-.142-.094-.151-.18-.02-.15-.114-.188-.237-.169zM15.57 61.861c-.038-.142-.199-.142-.312-.208-.038-.018-.085-.047-.114.01-.028.047.01.085.048.104.16.122.33.226.33.462 0 .047.057.075.105.056.047-.028.01-.066-.01-.094-.075-.094-.094-.189-.047-.33zm.983.528c.01-.132-.198-.311-.34-.292-.076.018-.076.066-.028.103.15.151.359.255.359.51 0 .028.057.065.094.046.048-.028.01-.066-.01-.094a.348.348 0 0 1-.075-.273zm16.604 2.32c-.075-.076-.198-.086-.217-.19-.048-.263-.246-.226-.426-.216-.047 0-.132-.02-.142.056 0 .066.085.066.133.085.189.047.397.057.5.274.02.037.077.037.152-.01zm-11.242-.114c-.076-.075-.19-.141-.18-.245.019-.226-.123-.245-.284-.274-.056-.009-.123-.047-.151.02-.038.075.047.103.095.131.15.085.321.132.359.35.01.046.075.075.16.018zm1.985-1.216c.34.028.482-.198.653-.359.037-.028.094-.075.056-.122-.047-.057-.104-.01-.141.028-.161.17-.34.311-.568.453zm28.528-3.385c-.152-.019-.265 0-.246.18.01.056-.029.169.075.15.142-.019.284-.094.312-.254.029-.132-.104-.057-.141-.076zM22.566 64.34c-.066.01-.16-.028-.208.048-.028.047.019.075.066.084.199.057.407.076.51.302.01.028.067.047.095.01.029-.048-.01-.066-.047-.085-.076-.038-.142-.095-.16-.18-.02-.16-.105-.207-.256-.179zm-2.203-.584c-.047 0-.095-.019-.114.028-.028.066.029.085.076.113.16.095.369.151.397.387 0 .028.047.056.076.038.047-.029.019-.066-.01-.085-.056-.057-.113-.113-.104-.189.038-.283-.18-.245-.321-.292zm3.886-10.07c.066.067.18.095.19.19.028.244.207.216.368.216.047 0 .113.01.123-.056.019-.076-.057-.085-.114-.095-.17-.047-.359-.047-.453-.245 0-.038-.057-.047-.114-.01zm24.225-.178c.076.075.218.103.218.216.01.246.18.227.34.217.057 0 .123.02.132-.066.01-.066-.066-.066-.113-.085-.17-.047-.34-.075-.435-.264-.01-.037-.066-.075-.142-.018zm-.633.405c.028 0 .047 0 .075-.01.057-.018.142.029.152-.065.009-.066-.076-.076-.123-.085-.17-.047-.35-.066-.416-.264-.02-.047-.076-.066-.114-.038-.057.057.01.066.038.085.076.047.151.113.151.198.01.17.114.179.237.179zM24.183 64.746c-.095-.066-.208-.104-.227-.208-.047-.235-.218-.198-.378-.198-.048 0-.114-.009-.123.057-.01.066.057.075.104.085.17.056.378.056.473.264.019.047.075.047.15 0zm25.36-1.924c-.01-.018-.02-.037-.029-.047-.057-.019-.094.01-.132.047-.151.151-.312.293-.492.396-.038.02-.085.048-.047.095.038.047.076.019.113 0 .19-.104.36-.236.511-.406.028-.019.047-.047.076-.085zm-13.2-9.333c.085.075.208.103.217.207.029.217.17.226.34.198.048-.01.133.019.142-.056.01-.085-.075-.085-.132-.104-.16-.047-.33-.066-.416-.245-.019-.029-.076-.047-.151 0zM56.86 63.577c-.047-.085-.01-.245-.123-.302-.066-.038-.123.085-.17.141-.076.095.038.17.066.255.02.057.057.094.133.066.056-.028.104-.066.094-.16zM49.61 53.545c.057.085.189.123.198.227.029.254.218.207.379.207.037 0 .094.01.104-.057.009-.056-.048-.066-.086-.075-.189-.057-.397-.094-.491-.302-.01-.037-.057-.047-.104 0zm-23.176.076c.085.075.208.122.227.226.029.255.19.207.35.18.047-.01.114.018.123-.048.01-.075-.057-.085-.113-.104-.18-.037-.36-.056-.445-.254-.01-.029-.066-.047-.142 0zm-11.762 1.923c-.067-.085-.152-.18-.227-.283-.029-.037-.066-.066-.114-.028-.047.028-.056.075-.038.132l.142.283c.029.047.048.094.114.056.056-.037.113-.066.123-.16zm26.06-2.055c.103.056.217.094.235.198.038.245.199.226.379.198.037-.01.104.01.113-.047.01-.066-.057-.076-.094-.095-.18-.056-.388-.066-.483-.273-.028-.038-.085-.047-.15.019zm-8.785 11.229c-.066-.076-.18-.142-.199-.236-.056-.226-.208-.18-.359-.18-.047 0-.113-.009-.123.057-.01.066.057.076.104.085.17.047.36.066.445.255.018.047.075.066.132.019zm-8.34-10.607c.047 0 .104-.01.151-.01.038 0 .086-.009.076-.056 0-.019-.038-.057-.057-.066-.208-.057-.435-.066-.548-.292-.01-.029-.076-.029-.095.01-.019.037.02.046.048.065.085.038.16.104.17.189.028.16.132.17.255.16zm20.424-.679c.113.104.227.132.236.236.038.273.237.198.398.207.037 0 .085-.01.094-.047.01-.056-.038-.075-.076-.085-.189-.056-.397-.066-.51-.283-.01-.028-.057-.018-.142-.028zm7.555 10.758c-.066 0-.095 0-.123.009-.047.01-.113-.01-.123.057-.01.075.066.084.114.094.18.038.359.075.444.273.019.038.085.057.113.02.057-.067-.028-.067-.056-.086-.076-.047-.152-.113-.161-.198-.019-.15-.104-.188-.208-.17zm-4.822-10.315c.066-.01.16.038.198-.047.02-.038-.028-.066-.066-.075-.199-.057-.407-.085-.501-.311-.01-.029-.066-.048-.095-.01-.037.047.01.066.048.085.066.047.141.104.15.18.03.16.124.197.266.178zm-21.417-.217c.047.085.18.095.208.198.047.227.217.227.388.198.047-.009.113.02.113-.056 0-.066-.066-.066-.113-.076-.18-.037-.37-.066-.473-.254-.02-.047-.066-.057-.123-.01zm9.91-.15c.084.056.198.094.207.188.029.255.218.208.379.208.047 0 .094 0 .104-.048.009-.066-.048-.075-.095-.094-.18-.047-.378-.066-.473-.264-.01-.028-.057-.038-.123.01zm-17.503.301c.076.057.19.095.218.198.047.217.198.208.359.198.057 0 .132.02.142-.056.01-.085-.085-.085-.133-.095-.17-.037-.35-.056-.444-.245-.019-.037-.076-.056-.142 0zm20.868 10.87c-.075-.084-.198-.112-.217-.207-.038-.235-.208-.216-.369-.207-.047 0-.113-.01-.123.057-.01.066.057.066.104.084.18.048.37.066.464.274.028.038.085.038.141 0zm1.107-.009c-.076-.075-.199-.103-.227-.207-.038-.207-.18-.207-.34-.198-.057.01-.142-.028-.152.057-.01.066.076.066.133.084.17.048.359.066.444.264.01.048.076.057.142 0zm13.408-.084c-.104-.048-.199-.095-.218-.189-.038-.217-.18-.217-.35-.207-.047.009-.132-.02-.132.056-.01.066.066.076.104.085.18.047.369.066.463.273.02.038.067.038.133-.018zM29.733 53.574c.095.047.208.084.227.188.038.264.208.217.378.189.038-.01.095 0 .104-.057 0-.056-.056-.056-.094-.075-.17-.047-.36-.066-.454-.255-.028-.047-.095-.047-.16.01zm-2.26 6.552c-.132-.01-.245-.01-.236.16.01.066-.019.16.095.142.141-.02.283-.085.302-.236.02-.104-.113-.047-.16-.066zm12.491-.075c-.132-.01-.255-.01-.246.16 0 .066-.01.16.095.15.142-.018.284-.075.302-.235.02-.113-.104-.047-.15-.075zm19.62 2.771c-.123.01-.236.029-.302-.056-.152-.198-.284-.104-.426-.01-.038.029-.113.038-.085.104.029.057.085.038.133.028.189-.047.368-.122.557.02.038.018.095 0 .123-.086zm-28.054.811c-.133.104-.227.18-.322.255-.056.047-.056.113-.028.17.019.066.066.084.132.075.076 0 .114-.047.133-.113.019-.104.047-.217.085-.387zm15.999 1.01c-.067-.095-.199-.114-.218-.227-.047-.245-.227-.198-.397-.198-.038 0-.095-.01-.095.056 0 .048.048.057.086.066.189.057.397.076.5.293.01.047.057.037.124.01zm6.685-.048c-.076-.075-.19-.094-.208-.198-.038-.226-.199-.217-.37-.207-.046 0-.113-.01-.113.066 0 .056.057.066.095.075.18.047.369.066.463.273.02.038.076.038.133-.009zm9.171-3.913c-.104-.028-.226 0-.293-.085-.132-.179-.264-.094-.397 0-.038.029-.132.048-.094.114.028.075.104.028.17.018.17-.037.33-.122.492.01.037.028.104.028.122-.057zM30.85 64.718c-.076-.085-.208-.114-.227-.227-.038-.226-.208-.188-.36-.188-.046 0-.094.01-.103.056-.01.057.038.066.085.085.18.057.388.066.482.274.019.037.066.037.123 0zm30.608-2.942c-.086-.038-.218-.01-.265-.094-.142-.217-.274-.076-.407 0-.047.028-.113.047-.085.122.028.057.085.029.132.01.18-.057.36-.123.53.019.038.018.085.009.095-.057zm2.78-1.97c-.105 0-.209.066-.294.028-.217-.104-.283.047-.368.188-.029.048-.086.095-.02.142.057.047.105-.02.143-.057.141-.141.274-.273.491-.264.01 0 .029-.028.047-.037zm-47.108-5.6c.038-.01.104-.02.16-.029.067-.019.086-.075.02-.104-.199-.066-.407-.113-.53-.31-.01-.02-.057-.02-.085.009-.019.028 0 .047.019.056.151.057.199.18.246.311.028.066.094.066.17.066zm34.702-.585c.066.075.18.122.189.217.028.226.199.198.35.216.047.01.113.01.123-.056s-.048-.085-.095-.094c-.18-.057-.369-.076-.454-.283-.019-.038-.066-.047-.113 0zm-14.703 9.21c-.095-.027-.133.01-.18.048-.123.104-.246.207-.369.32-.038.029-.123.048-.076.114.038.056.104.019.152-.02.18-.112.35-.254.473-.461zm-4.085-9.314c.104.057.208.104.227.207.037.208.18.208.34.198.047 0 .104.01.114-.047.018-.066-.048-.085-.095-.094-.18-.038-.36-.075-.444-.264-.02-.047-.076-.057-.142 0zm23.014.33c.142.066.218.16.246.302.02.085.37.15.426.085.028-.029.019-.066-.02-.076-.236-.047-.425-.179-.604-.34 0-.009-.01 0-.048.029zm4.634 7.59c-.038-.076-.01-.208-.142-.208-.104 0-.19.085-.18.18.01.094.085.169.19.178.084.02.132-.047.132-.15zM39.87 53.658c.037.255.104.293.378.246.047-.01.094-.01.094-.066.01-.057-.037-.076-.075-.085a4.891 4.891 0 0 0-.397-.095zm13.294 9.098c.142.227.35.378.567.51.038.018.085.047.114 0 .038-.066-.038-.076-.076-.104a2.507 2.507 0 0 1-.397-.311c-.047-.047-.104-.123-.208-.095zm3.054 1.528c-.038-.085-.047-.189-.132-.18-.151.01-.293.057-.435.086-.02 0-.02.037-.029.056.029.01.057.038.076.038.16.01.331 0 .52 0zM59.5 43.052c.161.113.18.141.17.264 0 .057-.047.113.057.123.085 0 .123-.029.133-.114.037-.245 0-.273-.36-.273zm5.012 13.407c-.246.094-.256.179-.114.48.02.038.02.095.085.085.048-.01.038-.056.038-.094-.01-.16-.01-.311-.01-.471zm-41.936-2.357c.038-.01.114.018.142-.057.02-.047-.019-.075-.056-.085-.17-.038-.331-.104-.435-.264-.02-.028-.076-.038-.104-.01-.048.048.01.057.037.076.104.047.161.123.19.226s.113.123.226.114zm16.188-.444c.038.255.095.283.37.246.046-.01.094 0 .103-.057.01-.057-.038-.075-.076-.085-.122-.038-.245-.066-.397-.104zm-6.307.283c.076-.028.199.047.218-.056.019-.123-.123-.095-.19-.123-.046-.019-.094-.028-.141-.038-.057-.009-.123-.047-.132.038-.01.066.01.142.094.16a.37.37 0 0 0 .151.02zm30.523.717c-.095.236-.066.283.246.443.038.019.075.057.113.01.029-.038-.01-.067-.028-.095a5.708 5.708 0 0 0-.331-.358zm-34.929-.641c.029 0 .047.01.076 0 .057-.01.123.019.132-.057.01-.075-.066-.085-.113-.094a1.75 1.75 0 0 0-.218-.038c-.047-.01-.123-.075-.132.028-.01.066 0 .16.104.17.047-.01.094-.01.151-.01zm3.3-.076c.057-.019.199.047.208-.047.02-.113-.132-.094-.217-.122a.292.292 0 0 0-.123-.029c-.047-.01-.114-.037-.114.038 0 .057-.019.15.076.17.047 0 .104-.01.17-.01zm25.984 9.9c-.028-.038-.047-.076-.076-.104-.056-.066-.104-.019-.151.01-.104.065-.312.103-.274.207.047.113.217-.019.33-.038.057-.01.133-.01.17-.075zM64 55.393c-.01.01-.019.02-.028.038a.303.303 0 0 0 .104.452c.028.01.066.02.085.01.038-.028.019-.066 0-.094-.057-.142-.114-.274-.16-.406zm-2.137-1.169c-.028.236.038.302.331.33.038 0 .076.028.095-.019.019-.047-.02-.066-.057-.085a10.075 10.075 0 0 1-.369-.226zm2.799 3.583c.019-.066.038-.123-.047-.123s-.17.01-.161.132c.01.113-.028.32.076.311.132-.01.085-.226.132-.32zm-4.614 4.29c-.114.047-.227.094-.312.179-.01.01 0 .056.01.066.103.047.198-.02.302-.038.019 0 .037-.01.056-.019.038-.019.114-.01.086-.085-.02-.056-.057-.113-.142-.103zm4.463-3.234c-.067-.057-.152-.085-.19-.038a.632.632 0 0 0-.15.405c0 .029.047.057.065.029.095-.123.18-.255.275-.396zm-35.42-4.875c.207 0 .274-.018.264-.066-.019-.113-.132-.075-.198-.103a.292.292 0 0 0-.123-.029c-.048 0-.123-.056-.142.029-.01.066 0 .16.104.17h.094zm29.226 9.344c-.123-.17-.378-.16-.482.009-.01.019-.019.047-.01.066.02.047.067.038.095.028.133-.028.255-.066.397-.103zm-12.386.895c-.067.02-.19-.037-.199.057-.019.122.123.085.199.113a.292.292 0 0 0 .123.028c.047 0 .122.066.132-.028.01-.066 0-.141-.095-.16-.047-.01-.104-.01-.16-.01zm16.235-3.045c-.161-.18-.331-.17-.492 0-.019.019-.038.057-.028.075.01.048.056.038.094.029.133-.029.274-.066.426-.104zm-4.132-17.96c0 .113-.01.217.123.217.15.009.056-.095.066-.16.01-.038.019-.076.028-.104.01-.038.085-.066.038-.104-.038-.038-.095-.01-.142 0-.094.019-.113.085-.113.15zm-38.957 10.72c.01.301.227.235.397.235.038 0 .085 0 .095-.047.01-.057-.038-.076-.085-.085-.133-.038-.265-.066-.407-.104zm16.869 10.323c-.067.028-.199-.047-.208.075-.01.095.122.076.198.104.038.01.085.028.123.028.047.01.113.048.123-.028.01-.066 0-.141-.085-.17-.047 0-.095 0-.151-.009zm-10.581-6.75c.038-.227.085-.434.113-.651.01-.047.038-.132-.028-.15-.085-.02-.066.084-.085.14-.066.217-.038.434 0 .66zm-4.955-3.347c.095-.01.227.009.246-.076.01-.113-.132-.075-.208-.104a.252.252 0 0 0-.113-.028c-.048 0-.114-.056-.123.019-.02.066 0 .141.075.17.048.019.085.019.123.019zm39.42.188c.057-.038.18.047.199-.056.01-.095-.123-.085-.19-.114-.037-.018-.084-.028-.122-.037-.048-.01-.114-.047-.114.037-.01.057-.01.132.076.151.028.02.085.02.151.02zm1.182.038c.038-.028.133.038.142-.057.01-.066-.076-.075-.123-.094a1.729 1.729 0 0 0-.236-.066c-.048-.01-.114-.038-.114.038 0 .056-.028.15.085.15.085.01.161.02.246.029zm-10.694 2.95c.038-.225.076-.442.104-.66.01-.037.01-.084-.028-.093-.067-.02-.076.037-.076.075-.047.226-.104.443 0 .679zM34.66 53.914c.056-.028.18.047.189-.066.01-.094-.114-.066-.18-.094-.047-.02-.094-.029-.142-.038s-.123-.066-.142.019c-.01.066.01.15.104.17.057.009.104.009.17.009zm24.073.405c.057-.018.18.048.19-.047s-.114-.085-.19-.113c-.037-.019-.085-.028-.123-.038-.047-.009-.122-.037-.122.057 0 .066.009.132.094.132.047.01.085.01.151.01zm-15.308-.443c.076-.019.208.029.217-.056.02-.113-.123-.085-.198-.113a.292.292 0 0 0-.123-.029c-.038-.01-.104-.056-.114.02-.01.056-.01.14.076.169.038.01.095.01.142.01zm2.099 10.418c0-.075-.047-.132-.132-.132-.095 0-.161.038-.161.142 0 .094.057.15.151.141.095 0 .142-.047.142-.15zm-7.659-6.892c.038-.207.076-.405.104-.612.01-.048.038-.132-.028-.151-.076-.02-.067.075-.076.122-.047.217-.085.425 0 .641zm-16.31-3.271c.037-.019.15.038.17-.057.018-.103-.105-.075-.161-.103a.292.292 0 0 0-.123-.029c-.047 0-.123-.066-.133.038 0 .066 0 .141.095.15h.151zm26.437 9.305c-.076.047-.246-.056-.255.066-.01.132.16.076.245.076.095 0 .256.047.256-.076 0-.103-.161-.028-.246-.066zm9.645-9.154c.047-.029.17.056.189-.047.019-.104-.123-.076-.19-.104-.037-.019-.085-.028-.122-.038-.038-.01-.104-.056-.114.028-.01.057-.019.142.085.16h.152zm-15.328-.406c.076-.019.19.029.199-.056.019-.113-.114-.085-.18-.113a.225.225 0 0 0-.113-.029c-.048-.01-.123-.066-.133.02-.01.056.01.14.095.16.047.018.094.018.132.018zM31.067 64.37c-.01-.076-.057-.132-.142-.132-.085 0-.152.037-.161.122 0 .095.047.151.151.151.085 0 .133-.038.152-.141zm23.78-.18c-.066.029-.198-.047-.208.067-.01.103.132.075.208.103.038.02.085.02.123.029.114.018.114-.048.076-.123-.038-.094-.114-.094-.199-.075zm-41.283-8.673c.095-.01.142-.057.142-.16 0-.085-.057-.123-.132-.123-.085 0-.142.047-.142.132-.01.104.038.15.132.15zM16.43 61.7c-.085.018-.198-.02-.198.122 0 .085.066.123.142.123.113-.01.18-.104.198-.198.01-.066-.094-.029-.142-.047zm5.598 2.734c.085-.01.151-.047.16-.132.01-.095-.056-.151-.15-.151s-.142.047-.142.132c-.01.094.047.141.132.15zm13.521-.085c-.018-.085-.066-.142-.15-.142-.086 0-.143.057-.143.142 0 .094.057.15.152.15.085-.009.123-.075.141-.15zm-6.845-.104c-.076.019-.142.057-.133.16.01.095.076.123.161.114.085-.01.142-.057.142-.142-.02-.085-.076-.132-.17-.132zm-7.565-.254c-.01-.085-.057-.142-.142-.151-.085 0-.15.037-.15.132 0 .085.037.15.122.16.095.01.142-.057.17-.141zm-6.316-2.574c-.076.01-.142.047-.142.141s.066.142.16.142c.086 0 .143-.057.133-.142 0-.094-.057-.141-.151-.141zm12.803-7.467c-.01-.085-.057-.132-.142-.132-.095 0-.151.056-.151.15.009.085.066.133.15.123.095 0 .143-.056.143-.141zm-13.087.745c-.019-.076-.066-.132-.151-.123-.085 0-.142.057-.142.141.01.085.057.142.151.132.086-.009.123-.056.142-.15zm8.718 9.71c0-.094-.056-.141-.142-.132-.094 0-.141.048-.132.142 0 .094.047.141.142.132.085 0 .123-.057.132-.142zm25.52-.273c-.094.01-.16.047-.16.15 0 .095.066.133.151.142.095.01.133-.056.142-.141 0-.094-.057-.132-.132-.151zm-30.928-1.358c-.076.02-.152.047-.142.151.01.094.066.132.151.132s.151-.047.142-.132c0-.094-.047-.15-.151-.15zm6.524 1.622c-.019-.085-.066-.132-.16-.123-.086.01-.143.057-.133.151.01.085.066.132.151.123.085-.01.142-.057.142-.151zm13.36-.047c-.009-.094-.066-.151-.16-.142-.085 0-.142.057-.142.142.01.085.066.132.151.132.095 0 .142-.047.152-.132zm-21.87-2.206c.066-.02.142-.057.132-.142 0-.085-.056-.132-.15-.132-.086 0-.143.047-.143.142 0 .085.066.122.161.132zm24.064 2.196c-.01-.084-.056-.132-.141-.141-.086 0-.152.038-.152.132 0 .085.057.141.142.141.095.01.132-.056.151-.132zm-13.275.048c-.01-.085-.047-.142-.142-.142-.085.01-.142.057-.142.151 0 .085.057.141.142.141.095 0 .142-.056.142-.15zm21.086-.104c-.01-.076-.057-.132-.133-.142-.085-.009-.142.038-.16.123-.02.085.028.141.113.16.094.02.142-.037.18-.141zm-16.983-10.55c-.066.01-.122.047-.113.141.01.095.076.142.16.142s.133-.066.124-.151c0-.094-.057-.132-.17-.132zm14.345.207c.085-.01.15-.056.141-.141 0-.085-.056-.142-.151-.132-.085 0-.151.047-.142.141 0 .085.066.123.152.132zm-3.036 10.513c.076-.01.142-.048.133-.142 0-.085-.057-.141-.142-.141-.085 0-.133.056-.142.141.01.094.057.142.151.142zm-14.438.075c.085-.01.142-.057.142-.141-.01-.085-.067-.151-.161-.142-.085.01-.133.066-.133.151 0 .085.067.123.152.132zm26.712-10.352c.047-.038.16.047.17-.066.01-.075-.104-.066-.161-.094a.292.292 0 0 0-.123-.029c-.047 0-.113-.084-.123.02-.01.065.01.14.095.15.047.019.085.019.142.019zm-30.164-.283c-.085.019-.141.057-.141.151s.056.132.141.132c.095 0 .133-.057.133-.141.01-.104-.047-.142-.133-.142zm28.811.094c-.01-.084-.056-.141-.141-.132-.086 0-.142.057-.142.142s.056.141.142.141c.085-.01.122-.066.141-.15zm-23.147-.094c-.019-.085-.066-.122-.151-.122-.095 0-.142.047-.132.141.01.085.056.141.15.132.077-.01.133-.057.133-.15zm-13.124 8.56c.01.086.057.142.142.142.094.01.142-.047.142-.132s-.038-.141-.133-.141c-.085 0-.142.047-.151.132zm31.846-8.607c-.01-.094-.066-.132-.151-.132s-.142.047-.142.141c0 .085.057.142.142.142.094-.01.142-.057.151-.151zm-29.7 9.683c.086-.02.142-.057.133-.151-.01-.085-.057-.142-.142-.142s-.142.057-.132.151c0 .085.056.123.141.142zm28.424-9.853c-.066.02-.123.057-.123.151.01.094.066.142.151.132.085 0 .132-.066.132-.15s-.056-.114-.16-.133zm-34.144 2.734c-.01-.084-.057-.141-.142-.141-.085 0-.151.047-.151.132-.01.094.056.132.142.141.075 0 .132-.047.15-.132zm6.789 7.41c.085-.009.151-.056.151-.14s-.066-.133-.151-.142c-.085 0-.142.047-.142.141-.01.085.057.123.142.142zm19.648-9.851c.086-.01.142-.057.142-.151 0-.085-.038-.142-.142-.142-.085.01-.141.047-.141.142s.056.141.141.15zm-5.474-.264c-.085 0-.152.047-.152.132-.009.084.048.141.133.141s.151-.038.151-.132c0-.085-.047-.132-.132-.141zm20.925.424c-.01-.076-.057-.123-.133-.123-.094-.01-.15.038-.15.132 0 .085.046.142.141.142.076-.01.123-.066.142-.151zm-41.16 6.647c-.085.009-.132.056-.132.15s.056.132.141.132c.085 0 .142-.047.133-.141 0-.085-.057-.132-.142-.141zm11.545 3.479c-.076.009-.132.056-.132.141s.047.15.142.141c.085-.009.141-.047.141-.141s-.066-.132-.15-.141zm11.091.226c.086-.01.142-.057.133-.142 0-.084-.057-.132-.151-.132-.086 0-.142.057-.142.142.01.075.066.132.16.132zm-23.837-5.506c.076-.019.132-.066.132-.16 0-.085-.056-.123-.132-.123-.094 0-.142.057-.142.16 0 .076.048.123.142.123zm30.504 5.468c.085 0 .141-.047.132-.141 0-.095-.057-.142-.142-.132-.085 0-.132.056-.132.141-.01.085.047.132.142.132zM16.789 54.14c-.01-.085-.057-.141-.142-.141-.085 0-.142.056-.142.141s.057.142.142.132c.094.01.132-.056.142-.132zm38.654.076c.047-.02.142.028.16-.047.02-.095-.085-.076-.141-.104-.048-.019-.095-.038-.142-.047s-.104-.057-.123.01c-.019.056-.01.14.076.169.056.019.113.019.17.019zm-3.206 10.04c-.018-.075-.075-.122-.15-.122-.086 0-.143.057-.143.141s.066.132.152.123c.085 0 .132-.047.141-.141zM41.931 53.81c-.01-.085-.066-.132-.142-.141-.085-.01-.142.047-.142.132s.048.141.142.141c.076 0 .132-.047.142-.132zm9.2 10.456c-.019-.085-.076-.132-.151-.132-.085 0-.142.057-.142.141s.066.132.151.123c.085 0 .133-.047.142-.132zm-21.322-.028a.135.135 0 0 0-.123.141c0 .085.057.142.142.132.085-.01.142-.056.142-.141-.01-.085-.067-.123-.161-.132zm7.583-10.267c.085-.02.133-.076.123-.16-.01-.086-.057-.114-.142-.114-.094 0-.141.047-.132.142.01.094.076.122.151.132zm6.733-.17c0-.085-.038-.132-.123-.142-.085 0-.152.038-.152.132 0 .085.048.142.142.142.085.01.133-.047.133-.132zm-31.327 3.752c-.018-.085-.066-.132-.16-.122-.085.01-.133.066-.123.16.01.085.057.123.142.113.094-.01.141-.056.141-.15zm47.628 4.554c.085-.01.142-.057.142-.141s-.066-.132-.152-.132c-.085 0-.122.066-.122.132-.02.094.037.141.132.141zm-42.73-8.099c-.056.02-.141.038-.141.132 0 .085.047.142.141.142.086 0 .142-.047.152-.132 0-.085-.057-.132-.152-.142zm46.843 3.234c-.076.01-.151.038-.16.123-.01.094.047.141.132.141s.151-.038.151-.132c.01-.066-.028-.122-.123-.132zM34.433 64.35c-.01-.085-.057-.132-.142-.132-.085 0-.142.047-.142.141s.047.142.142.142c.085-.01.132-.057.142-.151zm12.046.085c.085-.01.142-.057.132-.142 0-.085-.047-.132-.123-.132-.085 0-.141.047-.15.132 0 .085.056.142.141.142zm5.409-10.484c-.02-.085-.067-.132-.152-.132s-.142.056-.132.141c0 .085.057.132.151.132.076 0 .123-.056.133-.141zm-28.5 9.73c.086-.029.2-.057.313-.095.037-.01.075-.056.056-.104s-.066-.018-.094-.009l-.322.085c-.037.01-.075.019-.075.066 0 .056.047.056.123.056zm20.888.763c.085-.01.142-.056.142-.141s-.057-.132-.142-.132c-.095 0-.133.066-.133.141-.009.085.048.132.133.132zm-10.94-.085c-.01-.094-.066-.132-.151-.122-.086.01-.123.047-.123.132s.056.141.141.141a.146.146 0 0 0 .133-.15zm-7.924-10.342c0-.085-.038-.151-.123-.151a.146.146 0 0 0-.151.132c-.01.085.047.141.132.15.085 0 .133-.046.142-.131zm.965.103c.085-.009.141-.056.15-.141.01-.094-.056-.132-.141-.132s-.132.038-.142.123c0 .084.047.141.133.15zm32.262 8.938c-.01-.085-.057-.141-.151-.141-.086 0-.152.047-.152.132a.13.13 0 0 0 .133.132c.094 0 .16-.029.17-.123zM38.679 64.2c-.095.01-.143.066-.143.15 0 .076.057.123.133.133.094.01.142-.057.151-.132.01-.104-.057-.142-.142-.151zm14.646.047c-.02-.066-.057-.122-.142-.122-.095 0-.142.047-.142.141 0 .085.047.132.133.132.094 0 .132-.057.15-.15zm11.29-5.751c-.01-.066-.048-.123-.133-.123s-.151.029-.151.123c0 .085.057.141.132.141.104.01.142-.047.152-.141zm-.785-3.224c-.01-.085-.047-.132-.132-.142-.095-.01-.142.057-.142.132 0 .095.056.132.142.132.075.01.122-.028.132-.122zm-14.164-1.386c-.02-.085-.057-.142-.152-.132-.085.01-.132.066-.123.15 0 .085.057.123.133.123.094-.01.132-.056.142-.141zm-21.067.179c.066 0 .132-.038.132-.132 0-.085-.057-.142-.142-.132-.075 0-.132.047-.132.132-.01.085.038.122.142.132zm-9.645.066c-.01-.085-.066-.132-.151-.132-.085 0-.142.047-.142.132s.066.132.151.132c.076.01.123-.047.142-.132zm43.713.641c.075-.01.132-.057.123-.15-.01-.086-.066-.133-.161-.123-.076.009-.123.056-.123.141s.057.132.16.132zm-1.154 6.666c-.019-.085-.066-.132-.151-.132-.085 0-.132.047-.132.122 0 .085.056.142.141.142.076 0 .133-.048.142-.132zm-10.741-7.533c-.01-.076-.057-.132-.151-.123-.086 0-.142.057-.133.15.01.076.047.123.133.123.085 0 .141-.047.15-.15zm-18.883-.189c-.085.019-.142.066-.132.15 0 .086.066.142.151.133.085 0 .142-.066.132-.151 0-.085-.066-.123-.15-.132zm18.117 10.56c0-.095-.057-.133-.142-.133-.076 0-.132.048-.132.132-.01.095.038.151.132.151.085-.01.132-.056.142-.15zM36.428 53.827c-.01-.085-.047-.132-.133-.132-.085 0-.141.047-.141.142 0 .084.056.141.141.141.086-.01.133-.066.133-.15zm-23.308 6.28c.076-.03.16-.067.142-.161-.01-.075-.066-.113-.152-.113-.085.01-.141.056-.132.15.01.076.057.123.142.123zm9.966-5.912c.066-.019.132-.057.123-.151-.01-.085-.066-.132-.151-.123-.095.01-.123.066-.123.151.01.085.066.123.151.123zm36.508 8.325c0-.094-.057-.132-.142-.142-.076 0-.132.038-.132.123 0 .085.037.132.123.132.085.01.141-.019.15-.113zM20.04 54.1c-.01-.084-.056-.14-.15-.131-.077 0-.133.047-.133.132 0 .075.047.132.123.132.104.009.15-.038.16-.132zm43.95 5.554c.085-.01.132-.057.132-.132 0-.095-.057-.142-.142-.132-.075 0-.132.047-.132.132s.057.132.142.132zm.264-3.3c.076 0 .133-.038.133-.123 0-.085-.038-.15-.133-.15-.075 0-.132.037-.141.122 0 .094.056.132.141.15zm-43.25-2.15c.086-.01.143-.056.133-.15-.01-.085-.066-.123-.142-.123-.094 0-.132.066-.132.15s.057.123.142.123zm35.61 9.88c-.01-.075-.037-.14-.123-.14-.085 0-.16.047-.16.14 0 .086.056.123.132.123.085.01.132-.037.151-.122zm-2.193.152c-.02-.076-.076-.123-.161-.113-.076.009-.132.056-.123.132 0 .084.057.141.142.132.085 0 .132-.057.142-.151zm-13.314.085c-.01-.095-.066-.123-.151-.123-.076 0-.132.047-.132.123 0 .094.056.141.141.132.086 0 .142-.038.142-.132zm-5.777-10.494c-.019-.075-.066-.132-.151-.122-.085.009-.123.066-.114.141.01.085.066.132.151.132.076-.01.114-.066.114-.15zm-2.326.16c.076 0 .123-.037.123-.122s-.057-.142-.142-.151c-.095 0-.132.066-.132.15.01.076.066.114.15.123zm9.89-.32c-.085.01-.141.047-.141.132-.01.085.037.132.113.141.085.01.142-.037.151-.122.02-.085-.038-.142-.123-.151zm-2.212 0c-.085.01-.142.056-.142.141 0 .076.047.132.123.132.085.01.151-.037.151-.122.01-.085-.038-.132-.132-.151zm-8.53 10.7c0-.084-.037-.131-.122-.131-.085-.01-.142.037-.151.132-.01.085.038.141.132.15.095-.009.132-.075.142-.15zm29.37-9.936c.085-.01.142-.048.142-.142 0-.085-.057-.122-.133-.132-.094 0-.142.047-.142.142 0 .084.057.122.133.132zm-5.4-.274c-.018-.085-.066-.132-.16-.122-.085.009-.123.056-.114.141.01.094.067.132.152.123.075 0 .123-.057.123-.142zm-2.193-.056c-.028-.066-.057-.142-.151-.123-.076.01-.123.057-.123.141 0 .095.056.132.142.132.085-.018.123-.075.132-.15zm-31.733-.048c-.01-.084-.047-.132-.132-.132s-.142.038-.142.132c0 .085.057.132.123.132.085.01.132-.047.151-.132zm40.782 5.374c-.047.01-.085.038-.057.076.085.132.199.236.331.33.038.028.085 0 .057-.047a1.326 1.326 0 0 0-.331-.359zM18.018 43.467c0-.085-.057-.085-.104-.076-.114 0-.151.085-.142.18.01.065.047.188.104.17.095-.057.104-.19.142-.274zM63.28 60.22c-.085.02-.141.066-.141.151s.056.123.132.123c.085 0 .142-.047.142-.132-.01-.085-.057-.132-.133-.142zm-.822.67c-.01-.085-.057-.123-.142-.113-.085 0-.142.047-.132.141.01.085.056.123.132.123.095-.01.142-.066.142-.151zm-3.187-6.496c.085 0 .152-.038.152-.132 0-.076-.048-.123-.133-.132-.085 0-.151.028-.16.122 0 .095.066.132.141.142zm-1.598 9.183c-.01-.066-.047-.123-.132-.123s-.142.047-.142.142.057.132.142.132c.085-.01.123-.066.132-.151zm-.454-9.372c0-.085-.037-.132-.122-.132-.076 0-.142.038-.142.113-.01.085.047.142.132.142.076.01.123-.038.132-.123zM25.147 56.61c-.028-.066.048-.207-.066-.216-.104-.01-.057.132-.057.198 0 .075-.047.207.076.207.085.01.028-.113.047-.189zm2.459 0c.047.057-.047.189.066.189s.066-.141.066-.217c0-.066.047-.198-.057-.198-.113 0-.037.142-.075.226zm10.042-.084c-.048-.057.047-.198-.076-.208-.095-.01-.057.123-.057.189 0 .075-.038.217.066.226.104 0 .029-.132.067-.207zm22.74-2.093c.085-.01.123-.057.123-.132s-.047-.132-.123-.132c-.094 0-.132.056-.132.15 0 .076.047.114.132.114zm-23.327 9.333c-.142.104-.293.104-.302.264 0 .066.066.076.113.066.17-.019.142-.16.19-.33zm21.114-9.663c-.066.018-.132.056-.132.15.01.085.066.123.142.114.085 0 .132-.048.132-.132s-.056-.123-.142-.132zm-22.55 9.54c.131-.018.217-.018.292-.028.057-.009.104-.037.104-.084-.01-.085-.075-.038-.113-.038-.076.01-.161.019-.237.038-.037.009-.104 0-.104.056 0 .066.057.057.057.057zm6.835-.16c-.066.038-.245-.056-.236.066.01.123.17.048.274.038.029 0 .066-.01.095-.01.038-.009.085-.018.075-.065 0-.057-.056-.038-.085-.038-.037 0-.075.01-.123.01zm2.97-8.673c-.19.415-.038.905.274 1.046-.331-.349-.379-.537-.275-1.046zm-15.337 8.843c.104-.056.274.01.35-.15.018-.029-.029-.057-.067-.038-.132.056-.293.018-.387.141-.029.038.047.038.104.047zm23.232-9.588c.057-.01.16.01.142-.076-.029-.122-.17-.094-.256-.132-.037-.018-.075 0-.066.057.01.104.066.17.18.15zm-.728 2.15a.9.9 0 0 0-.02.414c0 .02.03.038.048.047.038.01.057-.018.057-.056a.6.6 0 0 0-.085-.406zm-36.621 2.385c-.067.01-.123.056-.114.122 0 .076.057.104.132.104s.123-.028.123-.104c-.01-.075-.066-.113-.141-.122zM45.75 54.29c.047-.066.199-.01.199-.15 0-.057-.038-.095-.105-.076-.094.028-.18.056-.189.17 0 .047.029.066.095.056zm4.056 2.499c-.094.009-.094.094-.104.15-.01.095.076.104.142.114a.062.062 0 0 0 .076-.076c-.02-.066-.01-.16-.114-.188zm-33.746.339c-.067.01-.123.038-.123.113 0 .076.066.123.142.113.066 0 .122-.047.113-.122-.01-.066-.066-.104-.132-.104zm24.442-.16c-.01-.057-.01-.142-.094-.132-.104.01-.095.103-.114.17-.01.075.038.103.104.094.076-.01.132-.047.104-.132zm-23.535 1.904c.076-.01.123-.038.133-.113.01-.075-.048-.113-.114-.123-.075-.009-.123.038-.123.104-.019.076.029.123.104.132zm-1.484-4.704c-.076 0-.104.047-.085.113s0 .17.113.16c.076 0 .114-.075.104-.15-.01-.076-.057-.123-.132-.123zm39.401 9.277-.454-.029c-.019 0-.019.048 0 .057.123.085.265.047.397.038.01.01.02-.01.057-.066zM24.883 56.91c-.104.01-.095.094-.104.16-.02.076.047.095.104.104.066.01.113-.019.094-.094-.019-.066-.01-.151-.094-.17zm28.092.019c-.028-.038.01-.141-.095-.141-.104 0-.104.103-.104.17-.01.084.067.075.123.065.038 0 .104.01.076-.094zm-12.869-.396c.028.066-.057.18.066.198.057.01.057-.085.038-.141-.019-.085.057-.236-.066-.255-.066-.01-.02.132-.038.198zm-2.629.462c-.019-.047-.028-.132-.123-.123-.085.01-.066.095-.085.151-.019.085.048.085.104.095.067-.01.104-.038.104-.123zm6.09 7.071c.094.01.113-.066.132-.15.01-.039 0-.086-.047-.076-.076.028-.17.056-.199.15-.028.067.038.067.114.076zm-15.64-6.91c.048-.01.123 0 .104-.104-.01-.057 0-.142-.085-.142-.104 0-.094.094-.113.16-.029.066.019.095.094.085zM54.27 51.49c-.18-.057-.18-.057-.255-.283-.01-.028-.019-.066-.057-.066s-.037.038-.047.066c-.038.198.057.274.36.283zm-38.56 6.552c-.009-.066-.056-.094-.132-.094-.066 0-.104.038-.113.104 0 .075.047.113.123.113.075.01.113-.038.123-.123zm30.514-4.393c-.085.01-.057.085-.048.132 0 .057-.018.15.076.141.085 0 .104-.075.104-.15-.01-.076-.057-.114-.132-.123zm-29.18 3.517c-.066.01-.123.037-.113.113.009.066.056.094.122.085.076 0 .123-.047.114-.123 0-.056-.057-.085-.123-.075zm.473.839c-.01-.076-.057-.104-.133-.095-.056.01-.113.029-.104.104.01.066.057.104.133.104.066-.01.094-.057.104-.113zm20.925-4.186c.01.047-.02.141.075.132.057 0 .095-.057.095-.113 0-.066-.028-.123-.104-.132-.085-.01-.057.066-.066.113zm11.564 2.451c-.076.123-.038.236-.038.349 0 .01.028.038.028.038.02-.01.048-.029.048-.038.01-.113.047-.236-.038-.349zM30.64 54.752c-.19.236-.217.585-.085.82-.057-.32-.057-.32.085-.82zm24.773 9.504c-.009-.057-.009-.123-.085-.123-.056 0-.085.047-.085.104 0 .066.02.113.095.113.057.01.075-.038.075-.094zm-32.782-.68c-.047-.075-.142-.065-.227-.094-.038-.009-.075.01-.056.048.028.103.132.103.208.113.037.01.075-.01.075-.066zm9.011-9.361c0-.066-.038-.104-.094-.104-.057 0-.123-.01-.133.066-.01.085.085.066.133.085.038.019.085.019.094-.047zm8.576 3.432c.029.235.161.179.312.16-.113-.057-.198-.104-.312-.16zm-12.16.235c-.113-.056-.17-.075-.226-.113-.114-.075-.133-.01-.085.066.056.104.16.047.312.047zm18.978-2.423c.076-.188.104-.377 0-.565a1.89 1.89 0 0 1 0 .565zm2.704 2.282c.104.019.265.104.274-.132-.113.047-.189.094-.274.132zm-.68 6.26c.084.019.17.066.226-.047.01-.028.02-.085-.01-.076a.232.232 0 0 0-.217.123zm-17.257-8.014a1.146 1.146 0 0 1-.643.094c.227.085.435.038.643-.094zm21.842 7.957a.203.203 0 0 0-.151-.094c-.057-.01-.057.028-.057.066.01.066.057.094.123.085.038 0 .076 0 .085-.057zm-28.858-6.062c.255.038.265.028.255-.141-.075.047-.15.085-.255.141zm-3.432 5.836c-.048 0-.048.038-.048.066 0 .094.067.104.142.113.038 0 .066-.019.057-.056-.028-.066-.095-.095-.151-.123z"/><path d="M16.25 52.527c.028-.047.019-.104 0-.15h.113c.057.009.123.018.18.028.01.009.01.018.019.018l.028.057c-.094.15-.208.141-.34.047zm37.973-.518c-.019.066-.01.122.066.141.01.15-.104.123-.198.141-.057-.141.019-.254.075-.367.02 0 .038 0 .057-.01l-.01.01c0 .028 0 .056.01.085zm-37.756.179c.029.019.057.047.085.066-.01.01-.01.019 0 .028 0 .01.01.01.01.019 0 .019-.01.047-.01.066-.038-.028-.075-.047-.113-.076v-.075c.01 0 .019-.019.028-.028zm37.907-.264c.02.047-.01.056-.047.075-.01-.047-.028-.104-.038-.15.029.028.057.046.085.075zm-38.096.254c.047-.047.076-.113.151-.113 0 .019-.01.047-.01.066-.018.019-.046.038-.065.057-.02 0-.048 0-.066.01.009-.01-.01-.02-.01-.02z"/><path d="M16.552 52.376c.038.01.076.01.104.02-.01.027-.019.065-.028.093-.019-.018-.047-.037-.066-.066-.01-.009-.01-.018-.02-.018 0-.01.01-.02.01-.029zm36.792-.188c.047 0 .075.028.094.066-.028-.01-.066-.02-.094-.029l-.01-.009c.01-.01.01-.019.01-.028zm2.903.037h-.076v-.037h.085c0 .01 0 .028-.01.037zm-1.126-.301v.075h-.037a.19.19 0 0 1 .037-.075zm-.037.113-.038-.038h.038v.038zm-1.788.264v-.076h.029l.01.01c0 .01-.02.038-.039.066zm2.96 0v-.076c.01.029.019.048.028.076h-.028zm-2.799-.641c-.019 0-.028 0-.047.01.019-.01.038-.01.047-.01zm-36.82.603c-.028.019-.047.028-.075.047 0-.01-.01-.01-.01-.019v-.028h.085zm36.858.028c.019.029.038.048.047.076a.205.205 0 0 1-.047-.076zm-28.073.802h-.416c-.104 0-.152-.047-.152-.151 0-.094.057-.132.142-.132h.86c.086 0 .152.038.142.132 0 .085-.047.141-.141.141-.133 0-.284 0-.435.01zm.387-.132v-.01h-.747v.01h.747zm34.475 5.09c-.01-.046-.028-.093-.028-.15-.02-.113-.057-.122-.142-.038a.274.274 0 0 1-.331.057.295.295 0 0 1-.18-.283c-.01-.141.076-.236.19-.302.056-.028.16-.018.066-.132-.095-.113-.104-.235-.02-.358.086-.113.19-.17.332-.132.15.038.227.151.236.302 0 .01.01.019.028.066.076-.094.303-.094.048-.264-.142-.085-.161-.255-.076-.406.085-.15.227-.179.378-.122.151.056.208.188.19.349-.01.047-.067.113 0 .15a.185.185 0 0 0 .141 0c.076-.037.02-.094.01-.14-.029-.17.037-.293.18-.35.141-.056.292-.028.377.113.086.142.057.293-.066.406-.066.066-.132.104-.019.179.067.038.104.047.123-.038a.653.653 0 0 1 .048-.122.295.295 0 0 1 .35-.151c.15.047.226.15.207.311-.009.16-.104.255-.255.283a.162.162 0 0 1-.094 0c-.038 0-.085-.01-.085.038 0 .037.009.094.028.122.028.047.066 0 .094-.019.161-.103.322-.094.435.057a.281.281 0 0 1-.019.396c-.122.122-.264.15-.425.037-.17-.113-.095.076-.208.132.265-.028.425.01.492.217.056.17-.038.35-.199.387-.189.047-.312-.038-.388-.208-.019-.037 0-.122-.066-.113-.038 0-.094.047-.123.085-.038.057.038.085.066.113.114.123.133.255.038.396-.085.123-.198.18-.34.123-.151-.057-.227-.17-.208-.34.01-.094.038-.188-.104-.188-.16 0-.047.113-.047.16-.01.17-.076.292-.246.34-.161.037-.274-.038-.35-.16-.095-.152-.028-.274.094-.378.038-.038.095-.056.17-.104-.084-.075-.15-.14-.226-.207-.02-.028-.048-.075-.076-.113zm.794.303c.397 0 .7-.293.7-.68.01-.357-.321-.697-.68-.697a.717.717 0 0 0-.729.707c0 .358.331.67.71.67zm-.463.235c-.095 0-.132.057-.132.132 0 .095.047.142.141.142.086 0 .123-.057.133-.132 0-.095-.066-.132-.142-.142zm.047-1.866c.085-.01.142-.057.142-.142 0-.094-.066-.132-.151-.122-.076 0-.133.047-.133.132.01.075.057.122.142.132zm-.425.292c-.01-.085-.057-.142-.142-.142-.085 0-.142.048-.142.142 0 .085.057.122.132.122.095.01.152-.028.152-.122zm1.286 1.753c-.01-.084-.048-.132-.133-.141-.085-.01-.15.038-.15.132 0 .085.046.132.122.141.095.01.142-.047.16-.132zm-1.475-1.121c-.01-.085-.057-.142-.142-.142-.076 0-.133.038-.133.123s.048.141.142.141c.076 0 .123-.038.133-.122zm1.966.575c-.085.01-.141.047-.15.132 0 .084.046.141.141.141.085 0 .132-.047.132-.123.01-.084-.037-.132-.123-.15zm-.595-1.773c-.066.01-.133.047-.133.142a.13.13 0 0 0 .133.132c.094 0 .132-.057.142-.142 0-.085-.048-.132-.142-.132zm.936 1.226c-.02-.066-.047-.132-.142-.132-.085 0-.123.047-.132.132 0 .085.056.141.132.141.085 0 .123-.056.142-.141zm-.312-.811c-.095 0-.142.057-.142.141 0 .076.057.132.132.123.076 0 .133-.047.133-.132s-.038-.132-.123-.132zm-1.74.415c-.095.019-.17.028-.208.038.028.056.066.113.113.207.038-.104.067-.17.095-.245z"/><path d="M60.284 58.052c.028.047.057.085.085.132.01.311-.151.49-.388.424a.304.304 0 0 1-.217-.377.32.32 0 0 1 .397-.217c.038 0 .076.02.123.038zm-.208.368c.076 0 .132-.038.132-.123s-.047-.141-.141-.141c-.076 0-.133.037-.133.122-.01.104.047.132.142.142zm-44.79.235c0 .406-.303.726-.682.717a.721.721 0 0 1-.728-.726.732.732 0 0 1 .728-.717c.37.01.681.34.681.726zm16.074-3.8a.39.39 0 0 1 .397.378c.01.217-.17.415-.378.415s-.398-.18-.398-.377c-.018-.217.17-.406.379-.415zm.236.397c-.01-.142-.085-.226-.227-.236-.142 0-.227.085-.227.217 0 .113.066.226.199.226.142.02.236-.056.255-.207zm22.107-3.243c0 .009.01.009.01.018l-.01.01c0-.01-.01-.019 0-.028zm1.409.028c-.019.038-.028.019-.038-.01.019.01.028.01.038.01zm-38.862.141h.038l.018.01c.02.01.048.019.067.028v.075h-.076c-.01-.009-.028-.018-.038-.028-.01-.028-.01-.056-.01-.085zm.047.189h-.047v-.076h.038c0 .029 0 .057.009.076zm-.047-.368c.01-.028.028-.047.038-.075v.075h-.038zm.113-.113v.038h-.075a.283.283 0 0 1 .075-.038zm-.075.15c-.01.03-.029.057-.038.076v-.075h.038zm37.926-.112c.01.028.019.047.028.075-.01.01-.019.01-.028.019v-.094zm-37.85 0c.018.028.018.047 0 .075v-.075zm-.076.113v-.038h.075c-.028.01-.047.028-.075.038z"/><path d="M16.363 52.225v-.037h.076v.037h-.076zm0 .076h.076l-.076.075v-.075zm44.715 4.968c.208 0 .388.18.388.378 0 .216-.18.414-.397.414-.208 0-.378-.188-.378-.405.01-.207.189-.387.387-.387zm.227.396c-.01-.132-.085-.216-.227-.207-.142 0-.208.085-.208.217 0 .141.085.207.218.207.113 0 .208-.066.217-.217z"/></g><path fill="#D9B977" d="M0 75h75v75H0z"/></svg>