<svg version="1.2" baseProfile="tiny" xmlns="http://www.w3.org/2000/svg" viewBox="0 0 75 75" overflow="visible" xml:space="preserve"><path fill="#D9B977" d="M0 0h75v75H0z"/><path fill="#010101" d="M33.5 65.6V54h3.8c1.6 0 2.1.5 2.6 1.2.4.6.5 1.3.5 1.5 0 1.4-.5 2.4-2 2.7v.1c1.6.2 2.4 1.2 2.4 2.8 0 3-2.2 3.2-3.5 3.2h-3.8zm1.5-6.7h2.1c1.2 0 1.7-.7 1.7-1.8 0-1-.5-1.7-1.8-1.7h-2.1v3.5zm0 5.4h2.1c1.6 0 2.1-1.1 2.1-2 0-1.8-1.1-2.2-2.6-2.2H35v4.2zM13.306 28.182c-.29-.374-.56-.696-.81-1.038-.176-.239-.383-.363-.684-.332-.197.02-.405.01-.602 0-.166 0-.29.062-.374.207-.083.156-.02.28.073.384.187.218.29.447.27.737-.021.187.104.26.29.27.208.01.665.488.706.685.01.083-.031.135-.073.197-.051.083-.124.166-.124.25-.01.539-.405.746-.789.985-.706.457-1.4.913-2.107 1.37-.124.083-.28.156-.238.353.052.218.238.197.404.197h2.771c-.166.208-.28.353-.55.28-.197-.052-.27.083-.207.28a.622.622 0 0 1-.405.758c-.228.073-.29.166-.135.384.156.218.062.696-.166.83-.197.115-.218.218-.041.374.27.228.31.581.103.862-.124.166-.114.27.094.342a.659.659 0 0 1 .394.84c-.052.146.01.26.135.27.239.021.363.208.53.333.082.062.114.124.103.238-.041.322.156.467.478.364.259-.083.518.072.508.321 0 .25.197.415.457.353.425-.093.508-.052.57.353.032.208.343.332.53.218.28-.156.425-.093.477.208.052.259.322.373.55.238.27-.155.467-.072.478.208.01.155.072.207.187.26.134.051.249.103.394-.021.28-.24.488-.156.581.207.062.228.384.322.56.166.26-.228.426-.187.51.135.072.26.373.343.57.166.27-.26.446-.228.664.083.166.239.426.26.581.02.135-.196.26-.144.395 0 .26.281.384.281.643.032.145-.145.332-.145.478-.01.238.228.435.332.685.01.114-.156.31-.135.467.01.228.218.415.301.664 0 .166-.186.415-.155.633.021.218.166.415.301.643-.02.114-.156.312-.125.467 0 .218.176.415.342.675 0 .124-.167.353-.136.53.01.207.166.404.332.632-.01.114-.177.332-.136.498.01.208.166.395.311.644-.01.145-.187.425-.146.633.01.218.166.405.322.643-.021.115-.166.333-.125.499.02.207.177.404.312.643-.02.114-.166.363-.135.54.01.228.187.425.333.664-.02.104-.146.311-.125.477.01.218.187.405.322.665-.01.135-.177.415-.146.633.03.197.156.394.323.612-.01.125-.186.332-.155.498-.02.218.176.415.353.664 0 .125-.177.353-.115.54.02.208.166.415.312.644-.02.114-.166.31-.125.467 0 .228.166.425.342.674 0 .114-.156.312-.115.467.01.229.187.436.322.675-.02.093-.146.3-.105.446.01.239.186.436.353.695 0 .125-.166.395-.125.582.01.238.176.446.353.695-.02.093-.146.301-.115.446.01.239.197.436.353.685-.01.104-.146.332-.125.478.01.238.197.436.342.695 0 .114-.156.311-.115.467.03.208.177.405.302.643 0 .156-.196.426-.155.634.011.218.177.415.301.643-.02.114-.156.322-.136.477 0 .229.186.416.321.675 0 .135-.177.394-.146.602.02.208.166.405.322.633-.02.104-.167.332-.125.498.02.208.166.395.322.633-.01.125-.177.374-.146.56.02.208.177.406.322.634-.02.114-.166.322-.125.498.02.208.177.405.302.643-.02.135-.177.416-.156.602.02.218.208.416.302.634 0 .134-.186.332-.166.487-.01.229.208.426.332.654-.01.104-.156.26-.104.405.01.228.177.425.322.643-.062.135-.228.415-.25.685-.125.218.094.467.291.571-.176.042-.197.353-.26.581-.166.27.104.488.228.602-.218.052-.228.332-.26.571-.166s.436.145.436-.239c0-.176.405-.332.654-.249.239.083.405.104.436-.228.02-.229.353-.363.622-.29.26.072.436.093.416-.281-.01-.208.425-.415.674-.343.27.083.405.073.363-.27-.02-.217.405-.477.675-.415.28.073.415.042.342-.3-.041-.208.322-.478.571-.436.301.052.436.01.322-.343-.062-.197.332-.685.56-.695.26-.021.312-.125.167-.343-.156-.249 0-.757.27-.892.217-.104.228-.229.04-.353-.176-.114-.113-.197 0-.301.25-.228.51-.467.717-.737.25-.332.29-.675.062-1.017-.519-.789-1.006-1.598-1.577-2.356-.53-.706-1.34-.882-2.18-.934-.602-.042-1.204-.031-1.806-.062-.093 0-.321.041-.238-.125.093-.176-.29-.446.124-.508.01 0 .031 0 .031-.01.353-.291.104-.686.166-1.018.021-.135.063-.353-.134-.394-.301-.073-.56.062-.758.29-.197.229-.208.499-.031.748.062.083.155.155.207.238.073.125.104.26-.072.312-.104.03-.239.176-.322-.073a.498.498 0 0 0-.415-.342c-.031 0-.083 0-.104-.021-.311-.488-.81-.26-1.225-.301-.633-.052-1.276-.031-1.91-.031-.134 0-.28 0-.31-.166-.052-.218-.156-.436-.094-.654.02-.083.145-.062.228-.062.602.02 1.204-.042 1.806.03.156.021.374.063.374-.197 0-.249-.218-.207-.374-.197-.623.063-1.256.01-1.878.031-.26.01-.322-.093-.208-.31.374-.696.197-.644-.394-.945-.156-.083-.312-.094-.478-.115-.155-.02-.3-.03-.384-.207-.052-.114-.166-.114-.27-.125l-4.68-.498c-.633-.062-1.266-.145-1.9-.197-.207-.02-.28-.114-.29-.311-.01-.312-.02-.613.218-.862.052-.052.083-.124.166-.104s.073.104.073.177c.02.187-.177.457.166.519.342.052.311-.26.384-.446.207-.602.197-.602.84-.582 1.422.063 2.834-.124 4.245-.166 1.11-.03 2.21-.114 3.321-.187.229-.01.446-.03.675-.051.114-.01.218-.042.207-.187-.01-.156-.135-.146-.238-.146h-1.827c.135-.166.29-.166.426-.176.446-.031.892-.052 1.338-.093.384-.031.405-.094.405-.623 0-.322-.135-.446-.436-.457-.923-.01-1.826-.197-2.74-.29-.02 0-.062 0-.072-.01-.239-.385-.457-.073-.727-.032-.674.104-1.38.145-2.075-.02a1.95 1.95 0 0 0-.488-.052c-.924 0-1.848-.01-2.76.01-.302 0-.5-.073-.603-.374-.031-.093-.083-.166-.124-.249-.073-.145-.198-.218-.343-.187-.187.052-.114.208-.093.322.03.218-.01.405-.27.228-.84-.58-1.837-.56-2.782-.685-1.774-.238-3.56-.467-5.334-.685-.25-.03-.374-.114-.343-.373.032-.239-.114-.353-.332-.374a8.096 8.096 0 0 0-.705-.062c-.218-.01-.322-.104-.322-.332 0-.125-.01-.26-.01-.395 0-.27-.115-.415-.405-.404-.29 0-.405.135-.395.415 0 .073.01.145-.01.207-.042.156.041.426-.27.395-.26-.02-.591.052-.53-.395a.304.304 0 0 0-.072-.228c-.311-.332-.332-.758-.353-1.173-.02-.3-.124-.415-.425-.415-.633-.01-1.277-.041-1.91-.052-1.12-.02-2.252.063-3.373.063-.207 0-.311.114-.29.31.051.426-.25.707-.416 1.028-.176.353-.238.665.042.955.176.187.322.353.145.613-.02.02-.02.072-.01.103.353.737.104 1.516.176 2.263.052.581-.093 1.08-.404 1.567-.384.592-.706 1.225-1.059 1.847-.176.301-.747.478-1.007.26-.228-.187-.446-.187-.685-.166-.384.03-.788-.125-1.141.197-.156.145-.384.02-.405-.218-.031-.374-.25-.457-.57-.446-.997.01-1.983 0-2.98 0-.228 0-.435.01-.498.321a.624.624 0 0 1-.986.364c-.29-.218-.591-.125-.882-.125-.27 0-.57-.114-.81.197-.124.156-.383.063-.58.073-.872.031-.841-.125-.997.83-.072.467-.083.457-.54.353-.186-.041-.373-.083-.56-.104-.104-.01-.239-.03-.26.104-.02.135.115.156.219.177.207.041.425.062.622.124.146.042.374.02.343.27-.031.249 0 .55-.322.643-.228.063-.426.198-.695.166-.218-.083-.353.094-.53.582zm2.014 11.24c.072-.24.062-.426-.177-.571.862-.25 1.557-.665 2.076-1.35.187-.249.384-.03.57.021.198.062.167.197.105.343a2.315 2.315 0 0 0-.01 1.785c.03.072.082.197-.042.187-.208-.01-.26.166-.415.3.02-.28-.042-.456-.312-.529-.28-.083-.55-.228-.757.166.083-.394-.198-.436-.426-.54-.249-.103-.457-.103-.612.187zm43.641.03c-.145 0-.176-.082-.218-.145-.176-.238-.394-.3-.675-.176-.3.124-.29.322-.217.57.01.042.02.094.02.136.01.062.021.124-.041.155-.083.052-.135-.02-.177-.072-.103-.146-.207-.28-.394-.332-.104-.032-.135-.115-.125-.229a2.637 2.637 0 0 0-.093-1.36c-.02-.072-.02-.165.073-.165.456 0 .913-.322 1.36.01.113.083.207.073.321 0 .27-.166.498-.062.519.27.02.176.104.28.249.28.374.01.363.26.394.602-.249-.311-.446-.498-.799-.363-.467.187-.176.529-.197.82zm-45.904-2.625c.01-.073.042-.145-.03-.197-.146-.083-.208.052-.291.124-.135.104-.218.094-.312-.052-.093-.145-.062-.238.083-.311.229-.114.467-.228.696-.353.249-.124.352.114.518.208.125.072.084.176.042.28-.125.26-.25.508-.374.768-.062.124-.145.145-.249.073-.093-.073-.27-.104-.166-.28.031-.094.094-.167.083-.26zm33.377 4.12c-.135-.218-.093-.363.031-.498.115-.145.229-.301.322-.457.156-.26.695-.436.945-.26.176.125.228.354.342.53.031.052 0 .104-.052.104-.353-.01-.373.27-.467.53-.031-.416-.3-.478-.623-.51-.415-.062-.394.27-.498.561zM12.04 35.862c-.031-.26.187-.208.301-.29.083-.053.218-.084.218-.209-.01-.145-.145-.124-.249-.155-.052-.02-.114-.02-.176-.042-.135-.041-.125-.155-.115-.26.01-.082.032-.207.115-.186.259.062.519.145.768.25.186.072.062.217.051.331 0 .042.01.104.042.125.436.3.031.322-.145.405-.166.083-.353.145-.52.217-.207.094-.248-.041-.29-.186zm.83-2.284c.01-.145.125-.176.208-.228.104-.062.176-.01.228.093.083.187.146.374.24.55.113.208.061.364-.105.53-.155.156-.311.187-.498.083-.135-.073-.28-.125-.415-.187-.114-.062-.301-.083-.197-.29.083-.156.166-.291.373-.146.052.042.135.042.198.062.083.032.176.104.249-.02.062-.114-.042-.166-.104-.239a20.822 20.822 0 0 1-.177-.208zm25.178 7.328c-.01-.395-.249-.488-.55-.53-.321-.041-.467.125-.55.426-.041-.197-.124-.332-.3-.384-.073-.021-.136-.094-.084-.156.166-.187.156-.53.467-.57.333-.042.633-.032.768.373.042.114.135.218.218.322.135.145.156.3.031.519zM13.753 37.48c.135-.312.186-.696.415-.976.135-.166.342-.124.446.104.114.26.228.519.332.778.042.104.104.239-.083.27-.124.02-.26.083-.29-.135-.021-.155-.125-.28-.27-.29-.177-.01-.146.176-.177.29-.02.114-.083.156-.197.135-.083 0-.187-.02-.176-.176zm8.064 3.373c-.26-.488.155-.706.321-.997.156-.28.55-.238.758.021.239.301.239.57.02.903-.082-.415-.383-.425-.695-.436-.342-.01-.31.27-.404.509zm19.76-.135c-.01-.073-.052-.156-.02-.208.155-.26.29-.54.487-.768.114-.135.332-.124.478.01.31.291.363.654.145 1.121-.02-.404-.29-.446-.581-.456-.239-.01-.426.03-.509.3zm11.49-.301c-.24-.021-.437-.073-.624-.021-.238.062-.145.332-.28.477-.052-.186-.073-.363-.26-.456a.117.117 0 0 1-.051-.177c.093-.166.166-.353.3-.467.167-.145.406-.166.561.042.125.166.218.373.353.602zm-20.623.508c-.02-.436-.27-.54-.591-.56-.083 0-.229.02-.166-.135.072-.166.166-.353.29-.477.135-.135.363-.135.488-.01.145.155.405.404.28.58-.135.177-.176.374-.3.602zm-4.971-.114c-.052-.218-.145-.405-.374-.415-.456-.02-.29-.208-.155-.436s.3-.353.54-.26c.238.094.27.364.394.55.01.011-.021.084-.042.084-.27.03-.26.28-.363.477z"/><path fill="#D9B977" d="M0 75h75v75H0z"/></svg>