<svg version="1.2" baseProfile="tiny" xmlns="http://www.w3.org/2000/svg" viewBox="0 0 75 75" overflow="visible" xml:space="preserve"><path fill="#D9B977" d="M0 0h75v75H0z"/><g fill="#010101"><path d="M14.2 9.4v1h-2.3v7.7h-1.1v-7.7H8.5v-1h5.7zM16.4 14.1v4h-1.1V9.4h3c1.5 0 2.1 1.1 2.1 2.2 0 1-.6 1.8-1.6 2 1 .2 1.4.5 1.4 2.2 0 .4.1 1.7.3 2.3h-1.2c-.3-.6-.2-1.7-.3-2.9-.1-1.1-.9-1.1-1.3-1.1h-1.3zm0-1h1.7c.8 0 1.2-.7 1.2-1.4 0-.6-.3-1.3-1.2-1.3h-1.7v2.7zM24 9.4h1.4l2.8 8.7H27l-.6-2.1h-3.3l-.6 2.1h-1.1L24 9.4zm.7 1.1-1.4 4.6h2.8l-1.4-4.6zM35.4 9.4v8.7h-1.5l-3.4-7.5v7.5h-1V9.4h1.6l3.4 7.4V9.4h.9zM38.2 15.5v.3c0 1.2.7 1.5 1.5 1.5.9 0 1.5-.4 1.5-1.4 0-1.9-3.9-1.7-3.9-4.3 0-1.5 1.1-2.4 2.5-2.4 1.6 0 2.5.8 2.4 2.5H41c0-.9-.3-1.6-1.3-1.6-.7 0-1.3.3-1.3 1.3 0 1.9 3.9 1.6 3.9 4.4 0 1.8-1.3 2.4-2.7 2.4-2.6 0-2.6-1.9-2.5-2.8h1.1zM44.2 18.1V9.4h2.6c1.2 0 2.4.4 2.4 2.5 0 2-1.5 2.4-2.4 2.4h-1.5v3.8h-1.1zm1.1-4.8h1.2c.5 0 1.5-.1 1.5-1.5 0-1.3-1-1.5-1.2-1.5h-1.5v3zM50.7 14.9v-2.8c0-1.7.9-2.8 2.7-2.8s2.7 1.1 2.7 2.8v2.8c0 2.4-.9 3.3-2.7 3.3s-2.7-.9-2.7-3.3zm4.3.1v-2.9c0-1.8-1.2-1.9-1.6-1.9s-1.6.1-1.6 1.9V15c0 1.9.6 2.4 1.6 2.4S55 16.9 55 15zM59.1 14.1v4H58V9.4h3c1.5 0 2.1 1.1 2.1 2.2 0 1-.6 1.8-1.6 2 1 .2 1.4.5 1.4 2.2 0 .4.1 1.7.3 2.3H62c-.3-.6-.2-1.7-.3-2.9-.1-1.1-.9-1.1-1.3-1.1h-1.3zm0-1h1.7c.8 0 1.2-.7 1.2-1.4 0-.6-.3-1.3-1.2-1.3h-1.7v2.7zM69.6 9.4v1h-2.3v7.7h-1.1v-7.7h-2.3v-1h5.7zM29.6 35.9c-.1-.2-.1-.4 0-.6 0-.1.1-.3-.2-.2-.1 0-.1-.2-.1-.2-.1-.5-.2-.9-.3-1.3-.1-.3 0-.4.4-.4h.4c.2 0 .4-.1.3-.3 0-.1 0-.2.1-.3.1 0 .2.1.2.2 0 .3.2.3.5.3.9-.1.9-.1 1 .8 0 .2.1.5 0 .7 0 .1 0 .3-.2.4-.2.1 0 .3.1.4 0 .1.1.2.2.2.8-.2 1.7-.2 2.5-.4h.6c.3.1.4-.1.4-.4 0-.8.1-1.7.3-2.5 0-.1.1-.3-.1-.4-.1 0-.1-.1-.1-.2.1-.5.1-1 .3-1.5.1-.2.1-.4-.1-.5-.2-.2-.1-.5.2-.5.4 0 .8 0 1-.6.1-.2.3-.1.3 0 .1.5.6.5 1 .6.2.1.4.2.2.4s-.1.4 0 .7c.2.4.4.9.3 1.4-.2 1.1.4 2.2.3 3.3 0 .2.1.3.2.3.8-.1 1.6.1 2.4.3.3 0 .6.1.9.2.1 0 .3.1.3-.1s.2-.3 0-.5c-.1-.1-.1-.2-.1-.3v-1.3c0-.3.2-.4.5-.4h.3c.2.1.4 0 .4-.3 0-.1.1-.3.2-.2.2 0 .2.2.2.3 0 .2.1.3.3.3.2 0 .4.1.6.1.3 0 .3.2.3.4-.1.4-.1.9-.2 1.3 0 .1-.1.2-.2.3-.1 0-.1.1-.1.2.1.6.1.5.6.6.9.1 1.7.3 2.6.4 1.6.3 3.2.6 4.9.9.9.2 1.8.3 2.6.5.2 0 .3 0 .2-.2 0-.8-.1-1.6-.1-2.5 0-.1 0-.2.2-.2s.2.1.2.3c-.1.8 0 1.6 0 2.4 0 .2.1.3.3.4 1.1.2 2.3.4 3.4.6 1.5.3 2.9.5 4.4.8.3 0 .5.1.8.2.4.1.6.4.5.8-.1.6-.2 1.2-.2 1.8 0 .2-.1.4-.2.6-.1.2-.2.2-.4.3-1.4.2-2.9.3-4.3.5-2.7.3-5.5.6-8.2.9l-2.1.3c-.5.1-.6 0-.6-.5v-.2.1c0 .6.1.7-.8.8-2.1.3-4.3.5-6.4.8-1 .1-2 .2-2.9.2-.4 0-.5.1-.5.5v2c0 1.3-.2 2.6-.2 3.9 0 1.7-.3 3.3-.3 5 0 .3-.1.7-.1 1.1 0 .1-.1.2.1.2.6-.1 1.1 0 1.7.1 1.4.1 2.7.3 4.1.5.4 0 .7.1 1.1.2.3 0 .4.2.4.5 0 .4 0 .8-.1 1.2 0 .2 0 .3.2.2.5-.1.6 0 .6.5 0 .2-.1.4 0 .6 0 .4-.2.4-.5.4-1.6.1-3.1.1-4.7.1-.9 0-1.7.1-2.6.1h-.2c-.1 0-.3-.2-.4 0-.1.2-.2.4-.2.6v1.4c0 .1 0 .3-.2.3-.1 0-.1-.1-.1-.2 0-.5-.2-1-.1-1.4 0-.3-.3-.4-.3-.7h-.1c-1.1.2-2.2 0-3.4-.1-1.4 0-2.7-.1-4.1-.2-.2 0-.4 0-.6-.1-.2 0-.2-.2-.3-.4 0-.3-.1-.6-.1-.9 0-.3.1-.4.4-.4.4.1.4.1.3-.4-.1-.3-.1-.7-.1-1 0-.3.2-.5.5-.5 1.5-.2 3-.4 4.5-.5.6-.1 1.3-.2 1.9-.2.5 0 .4-.2.3-.4-.2-1.3-.3-2.7-.5-4-.1-1.1-.2-2.3-.3-3.4-.1-.7-.1-1.4-.1-2.1v-2.1c0-.7-.1-.7-.8-.7-1.1 0-2.2-.2-3.3-.4l-4.2-.6c-.7-.1-1.4-.2-2-.3-.8-.2-1.6-.2-2.5-.3l-4.2-.6c-1.4-.2-2.9-.4-4.3-.6-1.6-.2-3.3-.4-4.9-.7-.4-.1-.4-.4-.5-.7-.2-.6-.1-1.3-.3-2-.1-.5.1-.7.6-.8 2.2-.3 4.3-.7 6.5-1l7.2-1.2c1.8-.3 3.7-.6 5.5-.9.6.1.8 0 1.2.1z"/></g><path fill="#D9B977" d="M0 75h75v75H0z"/></svg>