<svg version="1.2" baseProfile="tiny" xmlns="http://www.w3.org/2000/svg" viewBox="0 0 75 75" overflow="visible" xml:space="preserve"><path fill="#D9B977" d="M0 0h75v75H0z"/><path fill="#010101" d="M33.4 54.1H37c1.5 0 2.5.5 3.1 1.8.5 1 .5 3.3.5 3.6 0 2.5-.2 3.9-.7 4.7-.6 1-1.8 1.5-3.8 1.5h-2.7V54.1zm1.5 10.2h1.4c2 0 2.8-.8 2.8-3.5v-2.3c0-2.3-.7-3.2-2.3-3.2h-1.9v9zM13.307 28.182c-.29-.374-.56-.696-.81-1.038-.176-.239-.383-.363-.684-.332-.198.02-.405.01-.602 0-.166 0-.291.062-.374.207-.083.156-.02.28.073.384.186.218.29.447.27.737-.021.187.103.26.29.27.208.01.664.488.706.685.01.083-.031.135-.073.197-.052.083-.124.166-.124.25-.01.539-.405.746-.79.985-.705.457-1.4.913-2.106 1.37-.125.083-.28.156-.239.353.052.218.239.197.405.197h2.771c-.166.208-.28.353-.55.28-.197-.052-.27.083-.207.28a.622.622 0 0 1-.405.758c-.229.073-.29.166-.135.384.156.218.062.696-.166.83-.197.115-.218.218-.042.374.27.228.312.581.104.862-.124.166-.114.27.093.342a.659.659 0 0 1 .395.84c-.052.146.01.26.135.27.238.021.363.208.53.333.082.062.113.124.103.238-.042.322.156.467.477.364.26-.083.52.072.509.321 0 .25.197.415.456.353.426-.093.509-.052.571.353.031.208.343.332.53.218.28-.156.425-.093.477.208.052.259.322.373.55.238.27-.155.467-.072.477.208.01.155.073.207.187.26.135.051.25.103.395-.021.28-.24.487-.156.58.207.063.228.385.322.561.166.26-.228.426-.187.509.135.072.26.373.343.57.166.27-.26.447-.228.665.083.166.239.425.26.581.02.135-.196.26-.144.394 0 .26.281.384.281.644.032.145-.145.332-.145.477-.01.239.228.436.332.685.01.114-.156.312-.135.467.01.229.218.415.301.664 0 .167-.186.416-.155.634.021.218.166.415.301.643-.02.114-.156.311-.125.467 0 .218.176.415.342.675 0 .124-.167.353-.136.529.01.208.166.405.332.633-.01.114-.177.332-.136.498.01.208.166.395.311.644-.01.145-.187.425-.146.633.01.218.166.404.322.643-.021.114-.166.332-.125.498.02.208.177.405.312.644-.02.114-.166.363-.135.54.01.228.187.425.333.664-.02.104-.146.311-.125.477.01.218.187.405.322.664-.01.135-.177.415-.146.633.03.198.156.395.323.613-.01.124-.186.332-.155.498-.02.218.176.415.353.664 0 .125-.177.353-.115.54.02.207.166.415.312.643-.02.114-.166.312-.125.467 0 .229.166.426.342.675 0 .114-.156.311-.115.467.01.228.187.436.322.675-.02.093-.146.3-.105.446.01.239.186.436.353.695 0 .125-.166.395-.125.581.01.24.176.447.353.696-.02.093-.146.3-.115.446.01.239.197.436.353.685-.01.104-.146.332-.125.477.01.24.197.436.342.696 0 .114-.156.311-.115.467.03.207.177.405.302.643 0 .156-.196.426-.155.633.011.218.177.415.301.644-.02.114-.156.321-.136.477 0 .228.186.415.321.675 0 .135-.177.394-.146.602.02.207.166.404.322.633-.02.104-.167.332-.125.498.02.208.166.394.322.633-.01.125-.177.374-.146.56.02.208.177.405.322.634-.02.114-.166.321-.125.498.02.207.177.404.302.643-.02.135-.177.415-.156.602.02.218.208.415.302.633 0 .135-.186.332-.166.488-.01.228.208.426.332.654-.01.104-.156.26-.104.405.01.228.177.425.322.643-.062.135-.228.415-.25.685-.125.218.094.467.291.57-.176.042-.197.354-.26.582-.166.27.104.488.228.602-.218.052-.228.332-.26.57-.166s.437.145.437-.239c0-.176.404-.332.654-.249.238.083.404.104.435-.228.021-.229.353-.363.623-.29.26.072.436.093.415-.281-.01-.208.426-.415.675-.343.27.083.405.073.363-.27-.02-.217.405-.477.675-.415.28.073.415.042.342-.3-.041-.208.322-.478.571-.436.301.052.436.01.322-.343-.063-.197.332-.685.56-.695.26-.021.312-.125.166-.343-.155-.249 0-.757.27-.892.218-.104.228-.229.042-.353-.177-.114-.115-.197 0-.301.249-.228.508-.467.716-.737.249-.332.29-.675.062-1.017-.519-.789-1.007-1.598-1.578-2.356-.529-.706-1.338-.882-2.179-.934-.602-.042-1.204-.031-1.806-.062-.093 0-.322.041-.239-.125.094-.176-.29-.446.125-.508.01 0 .031 0 .031-.01.353-.291.104-.686.166-1.018.02-.135.062-.353-.135-.394-.3-.073-.56.062-.757.29-.198.229-.208.499-.032.748.063.083.156.155.208.238.073.125.104.26-.073.312-.103.03-.238.176-.321-.073a.498.498 0 0 0-.415-.342c-.032 0-.083 0-.104-.021-.312-.488-.81-.26-1.225-.301-.633-.052-1.276-.031-1.91-.031-.134 0-.28 0-.31-.166-.053-.218-.157-.436-.094-.654.02-.083.145-.062.228-.062.602.02 1.204-.042 1.806.03.156.021.373.063.373-.197 0-.249-.217-.207-.373-.197-.623.063-1.256.01-1.879.031-.26.01-.321-.093-.207-.31.373-.696.197-.644-.395-.945-.155-.083-.31-.094-.477-.115-.156-.02-.3-.03-.384-.207-.052-.114-.166-.114-.27-.125l-4.68-.498c-.634-.062-1.267-.145-1.9-.197-.207-.02-.28-.114-.29-.311-.01-.312-.021-.613.218-.862.052-.052.083-.124.166-.104s.072.104.072.177c.021.187-.176.457.166.519.343.052.312-.26.384-.446.208-.602.198-.602.841-.582 1.422.063 2.833-.124 4.245-.166 1.11-.03 2.21-.114 3.32-.187.23-.01.447-.03.675-.051.115-.01.218-.042.208-.187-.01-.156-.135-.146-.239-.146H54.52c.135-.166.29-.166.425-.176.447-.031.893-.052 1.34-.093.383-.031.404-.094.404-.623 0-.322-.135-.446-.436-.457-.924-.01-1.827-.197-2.74-.29-.02 0-.062 0-.073-.01-.238-.385-.456-.073-.726-.032-.675.104-1.38.145-2.076-.02a1.95 1.95 0 0 0-.488-.052c-.923 0-1.847-.01-2.76.01-.301 0-.498-.073-.602-.374-.031-.093-.083-.166-.125-.249-.072-.145-.197-.218-.342-.187-.187.052-.114.208-.094.322.032.218-.01.405-.27.228-.84-.58-1.836-.56-2.78-.685-1.776-.238-3.56-.467-5.335-.685-.25-.03-.374-.114-.343-.373.031-.239-.114-.353-.332-.374a8.096 8.096 0 0 0-.706-.062c-.218-.01-.321-.104-.321-.332 0-.125-.01-.26-.01-.395 0-.27-.115-.415-.406-.404-.29 0-.404.135-.394.415 0 .073.01.145-.01.207-.042.156.041.426-.27.395-.26-.02-.592.052-.53-.395a.304.304 0 0 0-.072-.228c-.311-.332-.332-.758-.353-1.173-.02-.3-.125-.415-.425-.415-.634-.01-1.277-.041-1.91-.052-1.121-.02-2.252.063-3.373.063-.208 0-.311.114-.29.31.051.426-.25.707-.416 1.028-.176.353-.239.665.042.955.176.187.321.353.145.613-.02.02-.02.072-.01.103.352.737.103 1.516.176 2.263.052.581-.093 1.08-.405 1.567-.384.592-.705 1.225-1.058 1.847-.177.301-.748.478-1.007.26-.228-.187-.446-.187-.685-.166-.384.03-.789-.125-1.142.197-.155.145-.384.02-.404-.218-.032-.374-.25-.457-.571-.446-.997.01-1.982 0-2.979 0-.228 0-.436.01-.498.321a.624.624 0 0 1-.986.364c-.29-.218-.591-.125-.882-.125-.27 0-.57-.114-.81.197-.124.156-.384.063-.58.073-.873.031-.841-.125-.997.83-.073.467-.083.457-.54.353-.187-.041-.373-.083-.56-.104-.104-.01-.239-.03-.26.104-.02.135.114.156.218.177.208.041.426.062.623.124.145.042.374.02.342.27-.03.249 0 .55-.321.643-.229.063-.426.198-.696.166-.218-.083-.353.094-.529.582zm2.013 11.24c.073-.24.063-.426-.176-.571.861-.25 1.557-.665 2.076-1.35.187-.249.384-.03.57.021.198.062.167.197.104.343a2.315 2.315 0 0 0-.01 1.785c.031.072.083.197-.042.187-.207-.01-.259.166-.415.3.021-.28-.041-.456-.311-.529-.28-.083-.55-.228-.758.166.083-.394-.197-.436-.425-.54-.25-.103-.457-.103-.613.187zm43.642.03c-.146 0-.177-.082-.218-.145-.177-.238-.395-.3-.675-.176-.3.124-.29.322-.218.57.01.042.021.094.021.136.01.062.02.124-.042.155-.083.052-.134-.02-.176-.072-.104-.146-.208-.28-.394-.332-.104-.032-.135-.115-.125-.229a2.637 2.637 0 0 0-.093-1.36c-.021-.072-.021-.165.072-.165.457 0 .914-.322 1.36.01.114.083.208.073.322 0 .27-.166.498-.062.519.27.02.176.103.28.249.28.373.01.363.26.394.602-.249-.311-.446-.498-.8-.363-.466.187-.176.529-.196.82zm-45.904-2.625c.01-.073.041-.145-.031-.197-.145-.083-.208.052-.29.124-.136.104-.219.094-.312-.052-.094-.145-.062-.238.083-.311.228-.114.467-.228.695-.353.25-.124.353.114.52.208.124.072.082.176.04.28-.124.26-.248.508-.373.768-.062.124-.145.145-.249.073-.093-.073-.27-.104-.166-.28.031-.094.093-.167.083-.26zm33.377 4.12c-.135-.218-.093-.363.031-.498.114-.145.228-.301.322-.457.156-.26.695-.436.944-.26.177.125.229.354.343.53.03.052 0 .104-.052.104-.353-.01-.374.27-.467.53-.031-.416-.301-.478-.623-.51-.415-.062-.394.27-.498.561zm-34.394-5.085c-.031-.26.187-.208.3-.29.084-.053.219-.084.219-.209-.01-.145-.145-.124-.25-.155-.051-.02-.113-.02-.176-.042-.135-.041-.124-.155-.114-.26.01-.082.031-.207.114-.186.26.062.52.145.768.25.187.072.063.217.052.331 0 .042.01.104.042.125.436.3.03.322-.146.405-.166.083-.352.145-.519.217-.207.094-.249-.041-.29-.186zm.83-2.284c.01-.145.125-.176.208-.228.104-.062.176-.01.228.093.083.187.145.374.239.55.114.208.062.364-.104.53-.156.156-.311.187-.498.083-.135-.073-.28-.125-.415-.187-.114-.062-.301-.083-.198-.29.084-.156.167-.291.374-.146.052.042.135.042.197.062.083.032.177.104.25-.02.062-.114-.042-.166-.104-.239-.063-.073-.125-.145-.177-.208zm25.178 7.328c-.01-.395-.249-.488-.55-.53-.322-.041-.467.125-.55.426-.041-.197-.124-.332-.3-.384-.074-.021-.136-.094-.084-.156.166-.187.156-.53.467-.57.332-.042.633-.032.768.373.042.114.135.218.218.322.135.145.156.3.031.519zM13.753 37.48c.135-.312.187-.696.415-.976.135-.166.343-.124.447.104.114.26.228.519.332.778.041.104.104.239-.083.27-.125.02-.26.083-.29-.135-.022-.155-.125-.28-.27-.29-.177-.01-.146.176-.177.29-.02.114-.083.156-.197.135-.083 0-.187-.02-.177-.176zm8.064 3.373c-.26-.488.156-.706.322-.997.156-.28.55-.238.758.021.238.301.238.57.02.903-.083-.415-.384-.425-.695-.436-.342-.01-.311.27-.405.509zm19.76-.135c-.01-.073-.051-.156-.02-.208.156-.26.29-.54.488-.768.114-.135.332-.124.477.01.312.291.364.654.146 1.121-.021-.404-.291-.446-.582-.456-.238-.01-.425.03-.508.3zm11.49-.301c-.239-.021-.436-.073-.623-.021-.239.062-.145.332-.28.477-.052-.186-.073-.363-.26-.456a.117.117 0 0 1-.051-.177c.093-.166.166-.353.3-.467.167-.145.405-.166.56.042.125.166.219.373.354.602zm-20.622.508c-.02-.436-.27-.54-.592-.56-.083 0-.228.02-.166-.135.073-.166.166-.353.29-.477.136-.135.364-.135.489-.01.145.155.404.404.28.58-.135.177-.177.374-.301.602zm-4.971-.114c-.052-.218-.146-.405-.374-.415-.457-.02-.29-.208-.156-.436s.301-.353.54-.26c.239.094.27.364.394.55.01.011-.02.084-.041.084-.27.03-.26.28-.363.477z"/><path fill="#D9B977" d="M0 75h75v75H0z"/></svg>