<svg version="1.2" baseProfile="tiny" xmlns="http://www.w3.org/2000/svg" viewBox="0 0 75 75" overflow="visible" xml:space="preserve"><path fill="#D9B977" d="M0 0h75v75H0z"/><g fill="#010101"><path d="M24.99 49.672c-.388-.607-1.592.259-1.691-1.005-.11-1.393.05-2.299 1.811-2.26 1.513.04 3.026-.268 4.538-.348.717-.03 1.016-.308 1.175-.985a450.886 450.886 0 0 1 1.9-8.062c.09-.378.02-1.065.698-.865.577.169.308.746.218 1.154-.527 2.319-1.035 4.638-1.652 6.927-.239.876-.13 1.652.04 2.488.09.398.239.299.428.13 1.125-.966 2.32-1.861 3.344-2.916.558-.588-.398-.926-.607-1.404-.15-.358-.677-.687-.209-1.065.528-.438.776.15 1.025.468a257.382 257.382 0 0 1 2.827 3.683c.199.258.328.547.06.816-.21.209-.548.189-.657-.05-1.055-2.26-2.33-.886-3.514-.21-1.87 1.056-3.294 2.41-2.687 4.858.04.169.12.328.18.488.109-.12.238-.22.328-.349.268-.418.627-.826.746-1.284.587-2.14 2.399-1.94 4.001-2.13.418-.05.677.289.627.697-.04.418-.398.737-.756.538-2.04-1.085-2.837.268-3.543 1.761-.299.627-1.195 1.204-.807 1.841.418.697 1.414.389 2.17.418.388.01.776.01 1.165 0 .268-.01.637.08.706-.258.05-.26-.01-.637-.169-.846-.388-.508-.577-1.016-.229-1.603.368-.627.985-.647 1.612-.577 1.623.18 3.245.338 4.847.587.677.1.946-.13 1.115-.746.488-1.841 1.015-3.673 1.513-5.514.229-.836.707-1.364 1.612-1.125.896.23 1.095 1.025.777 1.722-.876 1.94-.17 2.27 1.692 2.1 1.95-.179 3.92-.06 5.882-.03.776.01 1.144-.199 1.234-1.045.07-.667.358-1.323.617-1.95.308-.737.905-1.085 1.672-.757.746.309.866.985.627 1.682-.418 1.185-.348 2.03 1.194 2.1.488.02.398.458.398.767.01 1.662-.07 3.324.04 4.976.06.896-.627 2.03.886 2.617.717.28-.15 2.797-1.015 2.996-.508.12-.438-.318-.478-.577-.846-5.026-4.2-8.25-8.898-8.54-4.01-.248-7.852 2.847-9.116 7.385-.16.578-.458.836-1.045.836-3.126 0-6.25.01-9.366-.03-.408-.01-.806-.288-1.214-.447-2.02-2.35-4.031-4.698-6.051-7.057zm33.551.568c.19.398.558.587.926.368.776-.478.577-1.294.557-2.03l.01.01c-.378-.568-.945-.628-1.413-.28-.737.558-.11 1.285-.08 1.932zM25.558 56.3c.577 1.902.577 3.852-.458 5.465-.975 1.533-2.27 3.085-4.17 3.483-1.782.378-3.772.637-5.355-.477-1.493-1.055-3.204-2.2-3.543-4.18-.308-1.792-.657-3.803.478-5.365 1.055-1.453 2.16-3.195 4.12-3.533 1.812-.309 3.822-.707 5.454.438 1.513 1.065 3.006 2.269 3.474 4.17zm-2.886 2.14a3.83 3.83 0 0 0-3.842-3.831c-2.13 0-3.882 1.771-3.862 3.921.02 2.13 1.732 3.782 3.902 3.772 2.13-.01 3.812-1.712 3.802-3.861z"/><path d="M51.594 65.557c-3.215.179-6.608-3.195-6.827-4.967-.22-1.821-.687-3.812.487-5.414 1.085-1.483 2.27-3.115 4.23-3.513 1.792-.358 3.772-.577 5.365.507 1.522 1.035 3.234 2.22 3.513 4.2.289 2.09.587 4.17-1.194 6.141-.896.996-3.076 3.046-5.574 3.046zm3.792-7.126c-.02-2.15-1.712-3.832-3.842-3.822s-3.93 1.841-3.871 3.931c.05 2.09 1.821 3.782 3.951 3.762 2.14-.01 3.772-1.692 3.762-3.871zm-30.395-8.759c2.01 2.35 4.03 4.708 6.04 7.057.22.607.737.587 1.235.587 3.095 0 6.19 0 9.276.01.328 0 .806-.13.796.438-.01.527-.438.488-.796.488-4.09 0-8.181.06-12.262-.03-1.473-.03-2.667-.349-3.185-2.31-1.433-5.424-8.19-7.165-12.39-3.373-.29.258-.518.826-.976.597-.408-.21-.13-.757-.22-1.155-.168-.796.419-1.712-.556-2.408-.409-.289 1.293-2.986 1.87-2.986 2.738 0 5.475.04 8.202-.02 1.294-.03.995.826 1.055 1.563.06.796-.07 1.303-1.075 1.293-2.926-.04-5.852-.01-8.779 0-.02 0-.05.03-.139.09 3.543 0 7.017-.01 10.5.01.478 0 .946.1 1.404.15zm36.486-1.214c0-1.403-.02-2.817.01-4.22.03-1.204.438-2.27 1.812-2.359 1.393-.09 1.91.956 2.04 2.14a41.642 41.642 0 0 1-.01 8.908c-.13 1.184-.657 2.25-2.04 2.13-1.324-.11-1.792-1.155-1.802-2.379-.03-1.403-.01-2.817-.01-4.22z"/><path d="M51.654 49.195c4.36.01 8.3 3.662 8.798 8.16.04.369.13.777-.378.847-.458.07-.707-.23-.786-.667-.19-1.145-.468-2.27-1.095-3.275-1.762-2.836-5.026-4.26-8.201-3.553-3.245.717-5.584 3.275-6.022 6.589-.07.537-.199 1.025-.885.906-.737-.13-.478-.667-.399-1.105.846-4.698 4.5-7.912 8.968-7.902zM35.192 59.416H27.32c-.349 0-.777.06-.787-.478-.01-.517.378-.557.747-.557 5.304-.01 10.61-.01 15.914 0 .368 0 .756.04.747.557-.01.548-.438.478-.787.478-2.657.01-5.305 0-7.962 0zM9.225 54.639v-2.32c0-.387.12-.626.568-.636.448-.01.677.179.677.627 0 .497.04.995 0 1.493-.06.806.07 1.353 1.074 1.264.518-.05.598.229.478.746-.259 1.095-1.523.985-2.03 1.802-.17.268-.776.01-.767-.588 0-.786-.01-1.582 0-2.388zm3.315-2.837c-.289.528.388 1.543-.478 1.573-.727.03-.836-.946-.836-1.652-.01-.687.15-1.623.836-1.563.906.09.17 1.105.478 1.642z"/><path d="M60.611 59.456c-.418-.24-1.294.358-1.244-.587.05-.836.856-.478 1.324-.478.468-.01 1.304-.319 1.254.557-.05.866-.886.279-1.334.508zm-.577-10.879c-.17.707-.647.817-1.254.598-.259-.1-.448-.349-.259-.578.478-.587 1.005-.338 1.523-.01-.01 0-.01-.01-.01-.01zm-1.493 1.663c-.02-.359-.1-.757.418-.836.289-.04.657-.11.796.238.07.18.02.518-.119.657-.358.369-.746.2-1.105-.07.01 0 .01.01.01.01zm-36.447 8.21a3.296 3.296 0 0 1-3.264 3.285c-1.792 0-3.275-1.473-3.285-3.265-.01-1.781 1.463-3.254 3.275-3.284 1.771-.02 3.284 1.473 3.274 3.265zm32.745.02c-.01 1.752-1.483 3.265-3.195 3.265-1.851 0-3.374-1.493-3.364-3.284.01-1.772 1.533-3.275 3.294-3.265 1.792.01 3.275 1.503 3.265 3.284zM24.6 9.5h2.7c1.1 0 1.9.4 2.3 1.3.3.7.4 2.5.4 2.7 0 1.8-.2 2.9-.5 3.5-.5.7-1.3 1.1-2.9 1.1h-2V9.5zm1.1 7.7h1c1.5 0 2.1-.6 2.1-2.6v-1.8c0-1.8-.5-2.4-1.7-2.4h-1.5v6.8zM32.8 15.6v.3c0 1.2.7 1.5 1.5 1.5.9 0 1.5-.4 1.5-1.4 0-1.9-3.9-1.7-3.9-4.3 0-1.5 1.1-2.4 2.5-2.4 1.6 0 2.5.8 2.4 2.5h-1.2c0-.9-.3-1.6-1.3-1.6-.7 0-1.3.3-1.3 1.3 0 1.9 3.9 1.6 3.9 4.4 0 1.8-1.3 2.4-2.7 2.4-2.6 0-2.6-1.9-2.5-2.8h1.1zM38.6 18.2V9.5h1.1v3.8l3-3.8h1.2l-3.1 3.9 3.3 4.7h-1.4l-3-4.5v4.5h-1.1zM47.2 9.5h1.4l2.8 8.7h-1.2l-.6-2.1h-3.3l-.6 2.1h-1.1l2.6-8.7zm.7 1.1-1.4 4.6h2.8l-1.4-4.6z"/></g><path fill="#D9B977" d="M0 75h75v75H0z"/></svg>