<svg version="1.2" baseProfile="tiny" xmlns="http://www.w3.org/2000/svg" viewBox="0 0 75 75" overflow="visible" xml:space="preserve"><path fill="#FAA51A" d="M-75.012 18.8h75v18.8h-75z"/><path fill="#D9B977" d="M0 0h75v75H0z"/><path fill="#FAA51A" d="M-.012 18.8h75v18.8h-75z"/><path fill="#010101" d="M59.688 19.7v17h-26.5v-17h26.5zm-25.1 2.3v12.5l10.4-6.3-10.4-6.2zm22.3-.9h-20.9l10.4 6.3 10.5-6.3zm-20.9 14.2h20.9l-10.4-6.3-10.5 6.3zm11.8-7.1 10.4 6.3V22l-10.4 6.2z"/><g fill="#010101"><path d="M29.288 42.5c0-1.7-.7-2.6-2.6-2.6-.6 0-2.7.1-2.7 3.1v4.9c0 3.2.9 4 2.7 4 1.3 0 2.2-.4 2.6-.6V47h-2.7v-1.6h4.5v7c-1.2.6-2.6 1.1-4.4 1.1-3.1 0-4.5-1.6-4.5-5.6v-4.7c0-2.9 1.5-4.7 4.5-4.7 3.1 0 4.6 1.1 4.5 4.2h-1.9zM35.088 44.5c.7-1.5 1.6-1.7 3.2-1.7v1.7c-.1 0-.3 0-.4-.1h-.4c-1.8 0-2.3 1.4-2.3 2.7v6h-1.6V43h1.6v1.5zM44.188 51.7c-.5 1.2-1.3 1.7-2.6 1.7-2.1 0-2.8-1.4-2.8-3.3 0-3.1 3-3.2 5.3-3.1 0-1.3.1-2.8-1.7-2.8-1.1 0-1.7.7-1.6 1.8h-1.8c.1-2.3 1.3-3 3.4-3 2.6 0 3.3 1.3 3.3 3v4.9c0 .8.1 1.6.2 2.4h-1.8v-1.6zm-3.7-1.6c0 1 .5 1.9 1.6 1.9 1 0 2.2-.6 2.1-3.9-1.6 0-3.7-.1-3.7 2zM48.288 43v-2c0-2 1.4-2.4 2.9-2.4.3 0 .5 0 .8.1v1.2c-1.7-.1-2 .6-2 1.4V43h2v1.2h-2v8.9h-1.6v-8.9h-1.6V43h1.5z"/></g><g fill="#010101"><path d="M40.288 9.5h2.6c.9 0 1.4.1 1.8.5.3.3.5.7.5 1.3 0 1.2-.9 1.5-1.2 1.6.4.1 1.4.4 1.4 1.8 0 1-.6 1.5-.9 1.6-.5.3-1.1.3-1.6.3h-2.6V9.5zm1 3h1.4c.3 0 1.5 0 1.5-1.1s-.9-1.1-1.5-1.1h-1.4v2.2zm0 3.4h1.7c.8 0 1.4-.4 1.4-1.2 0-.7-.5-1.2-1.4-1.2h-1.7v2.4zM51.788 11.3c-.1-.7-.6-1.1-1.6-1.1-.7 0-1.2.2-1.6.6-.6.7-.8 1.6-.8 2.3 0 .6.1 1.6.7 2.3.5.5 1.2.7 1.9.7.8 0 1.3-.2 1.6-.2v-2.1h-1.6V13h2.6v3.6c-.4.1-1.3.4-2.6.4s-2.1-.4-2.6-.9c-.7-.7-1-1.7-1-2.7 0-.7.2-2.4 1.5-3.3.7-.5 1.6-.5 2-.5.6 0 1.4.1 2.1.8.4.4.5.9.5 1.1h-1.1z"/></g><g fill="#010101"><path d="M12.088 35.4c-.9-2.1-1.9-4.8-1.9-7.1 0-1.3.3-2.5.7-3.7.4-1.4.9-2.5 1.1-3.2h1.1c-.3.8-.6 1.9-.9 3.4-.3 1.5-.4 2.5-.4 3.5 0 2.3.6 4.1 1.5 7.2h-1.2zM15.188 32l2.9-2.8c.6-.6 1.2-1.2 1.7-1.9.6-.9.8-1.4.8-2 0-.5-.2-1.8-1.8-1.8-1.8 0-1.8 1.5-1.8 1.9h-1.7c0-.5.1-1.6 1-2.4.8-.7 1.7-.8 2.4-.8 1.7 0 3.4.9 3.4 3.2 0 .7 0 1.2-1.2 2.8-.3.4-1.7 1.9-2 2.2l-1.9 1.8h5.3v1.3h-7V32zM25.488 21.4c.9 2.1 1.9 4.8 1.9 7.1 0 1.3-.3 2.5-.7 3.7-.4 1.4-.9 2.5-1.1 3.2h-1.1c.3-.8.6-1.9.9-3.4.3-1.5.4-2.5.4-3.5 0-2.3-.6-4.1-1.5-7.1h1.2z"/></g><path fill="#010101" d="M36.288 61.8h2.6v.9h-2.6v-.9z"/></svg>