<svg version="1.2" baseProfile="tiny" xmlns="http://www.w3.org/2000/svg" viewBox="0 0 75 75" overflow="visible" xml:space="preserve"><path fill="#D9B977" d="M0 0h75v75H0z"/><path fill="#010101" d="M59.688 19.7v17h-26.5v-17h26.5zm-25.1 1.4v13.1l10.9-13.1h-10.9zm.9 14.2h21.8l-3.8-4.6h-14.2l-3.8 4.6zm22.7-14.2h-10.9l10.9 13.1V21.1z"/><g fill="#010101"><path d="M27.188 53.1h-1.8V38.7h1.8v14.4zM28.888 55h-1.3l4.7-16.4h1.3l-4.7 16.4zM38.388 53.1h-1.8V41.2l-2.1 1.4v-1.8c.5-.2 1.8-1.2 2.3-1.7h1.6v14zM46.088 45.8c2 .2 2.6 1.8 2.6 3.6 0 2.5-1.3 4-3.7 4-2.4 0-3.7-1.5-3.7-4 0-1.8.5-3.4 2.6-3.6-1.6-.3-2.4-1.7-2.4-3.3 0-2.2 1.4-3.5 3.6-3.5s3.6 1.3 3.6 3.5c-.2 1.6-1 2.9-2.6 3.3zm.7 3.6c0-1.2-.1-2.8-1.9-2.8-1.7 0-1.9 1.6-1.9 2.8 0 1.2.5 2.5 1.9 2.5s1.9-1.3 1.9-2.5zm-.2-7c0-1-.5-2.1-1.7-2.1s-1.7 1-1.7 2.1c0 1 .3 2.5 1.7 2.5 1.4.1 1.7-1.4 1.7-2.5z"/></g><g fill="#010101"><path d="M44.688 9.5h1v7.2h-1V9.5zM47.488 9.5h1v7.2h-1V9.5z"/></g><path fill="#010101" d="M24.088 24.1c-.7.6-1.8 1.2-2.6 1.6v-1.6c1-.5 2.1-1.2 2.7-1.7h1.4v11.1h-1.5v-9.4zM36.288 61.8h2.6v.9h-2.6v-.9z"/></svg>