<svg version="1.2" baseProfile="tiny" xmlns="http://www.w3.org/2000/svg" viewBox="0 0 75 75" overflow="visible" xml:space="preserve"><path fill="#D9B977" d="M0 0h75v75H0z"/><path fill="#010101" d="M59.688 19.7v17h-26.5v-17h26.5zm-25.1 1.4v13.1l10.9-13.1h-10.9zm.9 14.2h21.8l-3.8-4.6h-14.2l-3.8 4.6zm5-5.9h11.8l-5.9-7.1-5.9 7.1zm17.7-8.3h-10.9l10.9 13.1V21.1z"/><g fill="#010101"><path d="M24.888 53.1h-1.8V38.7h1.8v14.4zM29.488 53.1h-1.8V38.7h1.8v14.4zM31.188 55h-1.3l4.7-16.4h1.3l-4.7 16.4zM35.388 49.7v-1.6l3.9-8.9h2.4v8.9h1.6v1.6h-1.6v3.4h-1.7v-3.4h-4.6zm4.6-1.6v-7.2l-3 7.2h3zM43.488 46.2c0-3.7-.1-7.2 3.7-7.2 2.1 0 3.5 1.3 3.4 3.4h-1.8c0-1-.5-2-1.6-2-1.5 0-1.9 1.3-1.9 5 .5-.8 1.3-1.3 2.3-1.3 1.8 0 3.3 1 3.3 4.7 0 2.5-1 4.7-3.7 4.7-3.7-.1-3.7-3.6-3.7-7.3zm3.8 5.7c1.5 0 1.8-1.6 1.8-3.5 0-1.3-.3-2.8-1.9-2.8-1.6 0-1.8 1.8-1.8 3 0 1.4.2 3.3 1.9 3.3z"/></g><g fill="#010101"><path d="M44.688 9.5h1v7.2h-1V9.5zM47.488 9.5h1v7.2h-1V9.5z"/></g><path fill="#010101" d="M24.088 24.1c-.7.6-1.8 1.2-2.6 1.6v-1.6c1-.5 2.1-1.2 2.7-1.7h1.4v11.1h-1.5v-9.4zM36.288 61.8h2.6v.9h-2.6v-.9z"/></svg>