<svg version="1.2" baseProfile="tiny" xmlns="http://www.w3.org/2000/svg" viewBox="0 0 75 75" overflow="visible" xml:space="preserve"><path fill="#41BBEC" d="M-74.993.03h75v75h-75v-75z"/><path fill="#41BBEC" d="M.007.03h75v75h-75v-75z"/><path fill="#FFF" d="M0 0v9.4l28.1 28.1L0 65.6V75h9.4l28.1-28.1L65.6 75H75v-9.4L46.9 37.5 75 9.4V0h-9.4L37.5 28.1 9.4 0H0z"/><g fill="#010101"><path d="M33.4 46.3v.4c-1.7.4-3 1-4 1.6s-1.8 1.5-2.4 2.4c-.6.9-1 2.1-1.3 3.5.4-.3.7-.5 1-.5.6-.2 1.2-.3 1.8-.3 1.4 0 2.5.5 3.5 1.5.9 1 1.4 2.4 1.4 4.1 0 1.2-.3 2.3-.8 3.4-.5 1-1.2 1.8-2.1 2.4-.9.6-1.9.8-3 .8s-2.2-.3-3.2-.9c-1-.6-1.7-1.5-2.3-2.7-.5-1.2-.8-2.5-.8-3.9 0-2.1.5-4 1.5-5.8s2.4-3.2 4.3-4.3c1.9-1.1 4-1.7 6.4-1.7zm-7.8 9c-.1 1.3-.1 2.2-.1 2.8 0 1.3.1 2.5.4 3.7.2 1.2.6 2 1 2.5.3.3.7.5 1.1.5.4 0 .8-.2 1.1-.7s.5-1.5.5-3c0-2.5-.3-4.3-.9-5.2-.4-.6-.9-.9-1.6-.9-.5-.1-.9 0-1.5.3zM42 60.2h-8v-2.8h8v2.8zM42.4 58.2l8.8-11.9h1.7v11.9h1.7V61h-1.7v4.2h-3.8V61h-6.7v-2.8zm1.3 0h5.4v-7.3l-5.4 7.3z"/></g><g fill="#010101"><path d="m34.5 12.8 1.8 2.7c.3.4.5.7.6.8.1.1.3.2.5.2v.2h-3.2v-.2c.3 0 .4-.1.5-.1.1-.1.1-.1.1-.2V16c0-.1-.2-.3-.3-.5l-1-1.4-1 1.2c-.3.4-.5.6-.5.8 0 .1 0 .2.1.3s.2.1.3.2h.4v.2h-2.5v-.2c.3 0 .5-.1.7-.2.2-.1.5-.5.9-.9l1.3-1.6-1.7-2.5c-.3-.4-.4-.6-.5-.7-.1-.1-.2-.2-.3-.2-.1 0-.2-.1-.4-.1v-.2h3.3v.2h-.2c-.2 0-.3 0-.4.1-.1.1-.1.1-.1.2v.2l.3.5.8 1.2.7-.9c.4-.4.5-.7.5-.9 0-.1 0-.2-.1-.2 0-.1-.1-.1-.2-.2-.1 0-.2-.1-.4-.1v-.2h2.4v.2c-.2 0-.3 0-.5.1-.1 0-.2.1-.4.2-.1.1-.3.3-.6.7l-.9 1.5zM41.8 12.8l1.8 2.7c.3.4.5.7.6.8.1.1.3.2.5.2v.2h-3.2v-.2c.3 0 .4-.1.5-.1.1-.1.1-.1.1-.2V16c0-.1-.2-.3-.3-.5l-1-1.4-1 1.2c-.3.4-.5.6-.5.8 0 .1 0 .2.1.3s.2.1.3.2h.4v.2h-2.5v-.2c.3 0 .5-.1.7-.2.2-.1.5-.5.9-.9l1.3-1.6-1.7-2.5c-.3-.4-.4-.6-.5-.7-.1-.1-.2-.2-.3-.2-.1 0-.2-.1-.4-.1v-.2h3.3v.2h-.2c-.2 0-.3 0-.4.1-.1.1-.1.1-.1.2v.2l.3.5.8 1.2.7-.9c.4-.4.5-.7.5-.9 0-.1 0-.2-.1-.2 0-.1-.1-.1-.2-.2-.1 0-.2-.1-.4-.1v-.2h2.4v.2c-.2 0-.3 0-.5.1-.1 0-.2.1-.4.2-.1.1-.3.3-.6.7l-.9 1.5z"/></g><g fill="#010101"><path d="M28.1 28.3v2.5c0 .4 0 .7.1.8s.1.2.3.3.3.1.5.1h.3v.2h-4.2V32h.3c.2 0 .4 0 .6-.1.1-.1.2-.1.2-.3 0-.1.1-.3.1-.7v-5.2c0-.4 0-.7-.1-.8s-.1-.2-.3-.3-.3-.1-.5-.1h-.3v-.2h4.2v.2H29c-.2 0-.4 0-.6.1-.1.1-.2.1-.2.3 0 .1-.1.3-.1.7v2.2h2.8v-2.2c0-.4 0-.7-.1-.8s-.1-.2-.3-.3-.3-.1-.5-.1h-.3v-.2h4.1v.2h-.3c-.2 0-.4 0-.6.1-.1.1-.2.1-.2.3 0 .1-.1.3-.1.7v5.2c0 .4 0 .7.1.8s.1.2.3.3.3.1.5.1h.3v.2h-4.1v-.2h.3c.2 0 .4 0 .6-.1.1-.1.2-.1.2-.3 0-.1.1-.3.1-.7v-2.5h-2.8zM41.7 29.4l-.3 2.8h-7.1V32h.3c.2 0 .4 0 .6-.1.1-.1.2-.1.2-.3 0-.1.1-.3.1-.7v-5.2c0-.4 0-.7-.1-.8s-.1-.2-.3-.3-.3-.1-.5-.1h-.3v-.2h4.2v.2h-.3c-.2 0-.4 0-.6.1-.1.1-.2.1-.2.3 0 .1-.1.3-.1.7v5.1c0 .4 0 .7.1.8s.1.2.3.2c.1 0 .3.1.7.1h.7c.4 0 .8-.1 1.1-.2s.5-.4.7-.7.4-.8.6-1.4h.2zM49.6 24.2v.2c-.3 0-.5.2-.8.5-.2.2-.4.7-.7 1.4l-2.7 6.1h-.2l-2.7-6.3c-.3-.8-.5-1.2-.7-1.3s-.3-.2-.6-.3v-.2H45v.2h-.1c-.3 0-.6 0-.7.1-.1.1-.1.1-.1.3v.2s.1.4.3.8l1.7 4 1.6-3.5c.2-.4.3-.7.3-.9s.1-.3.1-.4c0-.1 0-.2-.1-.3s-.2-.2-.3-.2c-.2-.1-.4-.1-.7-.1v-.2h2.6z"/></g></svg>