<svg version="1.2" baseProfile="tiny" xmlns="http://www.w3.org/2000/svg" viewBox="0 0 75 75" overflow="visible" xml:space="preserve"><path fill="#41BBEC" d="M-74.993.03h75v75h-75v-75z"/><path fill="#41BBEC" d="M.007.03h75v75h-75v-75z"/><g transform="translate(412.5 -1162.5)"><ellipse fill="#FFF" cx="-375.5" cy="1199.6" rx="14" ry="13.5"/><g fill="#010101"><path d="M-382.7 1217.3c1.3 1 2.2 1.8 2.7 2.7s.8 1.8.8 2.8c0 1.5-.6 2.8-1.7 3.8s-2.7 1.6-4.6 1.6c-1.8 0-3.2-.5-4.3-1.4-1-.9-1.5-2-1.5-3.3 0-1 .3-1.9.9-2.6.6-.7 1.5-1.4 2.9-2.1-1.5-1.1-2.4-2-2.8-2.7-.4-.7-.6-1.5-.6-2.5 0-1.2.5-2.3 1.6-3.3s2.5-1.4 4.3-1.4c1.8 0 3.1.4 4.1 1.3 1 .8 1.4 1.8 1.4 3 0 .9-.3 1.6-.8 2.3-.5.6-1.3 1.2-2.4 1.8zm-3.7 2.1c-.3.3-.5.5-.6.7-.2.3-.3.8-.5 1.4-.1.6-.2 1.2-.2 1.9 0 .9.1 1.6.3 2.2s.5 1 .9 1.3c.4.3.8.4 1.3.4.7 0 1.2-.2 1.7-.7.5-.5.7-1.2.7-2-.1-1.9-1.3-3.5-3.6-5.2zm2.7-2.8c.3-.5.6-1 .8-1.5s.2-1.2.2-1.9c0-1.2-.3-2.1-.8-2.7-.4-.5-.9-.7-1.6-.7-.6 0-1.1.2-1.6.7-.4.4-.6 1-.6 1.6 0 .7.2 1.4.7 2.1s1.5 1.4 2.9 2.4zM-370.5 1222.7h-8v-2.8h8v2.8zM-366.7 1218.4v-.5c1-.3 1.8-.6 2.2-.8.4-.3.7-.7 1-1.2.3-.5.4-1.1.4-1.6 0-.8-.3-1.4-.8-1.9-.6-.5-1.2-.8-2.1-.8-1.3 0-2.4.7-3.3 2l-.5-.2c.7-1.5 1.5-2.7 2.5-3.4s2.2-1.1 3.4-1.1c1.3 0 2.3.4 3.2 1.2s1.3 1.7 1.3 2.7c0 .7-.2 1.3-.6 2-.4.6-1 1.2-1.8 1.7 1.1.5 1.9 1.2 2.4 1.9s.8 1.7.8 2.9c0 1.9-.7 3.6-2.1 4.9-1.4 1.4-3.3 2-5.6 2-1.6 0-2.7-.3-3.4-.8-.5-.4-.8-.8-.8-1.4 0-.4.2-.8.5-1.1s.6-.4 1-.4c.3 0 .6.1.8.2.1.1.7.5 1.6 1.2s1.7 1.1 2.5 1.1c.7 0 1.3-.3 1.7-.8.5-.5.7-1.2.7-2 0-1.2-.4-2.4-1.3-3.5s-2-1.9-3.7-2.3z"/></g><g fill="#010101"><path d="M-385.6 1186.5v2.8h-.2c-.3-.8-.7-1.3-1.2-1.7s-1.1-.6-1.7-.6c-.6 0-1.1.2-1.5.5s-.7.8-.8 1.4-.2 1.2-.2 1.8c0 .8.1 1.4.3 2s.5 1 .9 1.3.9.4 1.4.4c.2 0 .4 0 .6-.1s.4-.1.6-.2v-1.7c0-.3 0-.5-.1-.6s-.1-.2-.3-.2-.3-.1-.5-.1h-.2v-.2h3.9v.2c-.3 0-.5.1-.6.1s-.2.2-.3.3c0 .1-.1.3-.1.5v1.7c-.5.2-1 .4-1.6.5s-1.1.2-1.7.2c-.8 0-1.4-.1-1.9-.3s-.9-.5-1.3-.8-.7-.7-.9-1.1c-.3-.5-.4-1.1-.4-1.8 0-1.2.4-2.2 1.3-3s1.9-1.2 3.2-1.2c.4 0 .8 0 1.1.1.2 0 .5.1.8.3s.6.2.7.2c.1 0 .2 0 .3-.1s.2-.2.3-.5h.1zM-378.8 1186.7v7.1c0 .1.1.2.2.3s.2.1.5.1v.2l-2.3.5v-.9c-.3.3-.5.6-.7.7s-.5.2-.7.2c-.7 0-1.3-.3-1.7-.9-.3-.5-.5-1.1-.5-1.9 0-.6.1-1.1.3-1.6s.5-.8.8-1.1.7-.4 1.1-.4c.3 0 .5.1.7.2s.4.3.7.5v-1.7c0-.4 0-.7-.1-.8 0-.1-.1-.2-.2-.3s-.3-.1-.5-.1v-.2h2.4zm-1.7 3.7c-.3-.6-.6-.8-1.1-.8-.1 0-.3 0-.4.1-.1.1-.3.3-.4.6s-.1.8-.1 1.4c0 .7.1 1.2.2 1.5s.2.6.4.7c.1.1.2.1.4.1.3 0 .7-.3 1-.8v-2.8zM-374.6 1190.8v2.5c0 .4 0 .7.1.8s.1.2.3.3.3.1.5.1h.3v.2h-4.2v-.2h.3c.2 0 .4 0 .6-.1.1-.1.2-.1.2-.3 0-.1.1-.3.1-.7v-5.2c0-.4 0-.7-.1-.8s-.1-.2-.3-.3-.3-.1-.5-.1h-.3v-.2h4.2v.2h-.3c-.2 0-.4 0-.6.1-.1.1-.2.1-.2.3 0 .1-.1.3-.1.7v2.2h2.8v-2.2c0-.4 0-.7-.1-.8s-.1-.2-.3-.3-.3-.1-.5-.1h-.3v-.2h4.1v.2h-.3c-.2 0-.4 0-.6.1-.1.1-.2.1-.2.3 0 .1-.1.3-.1.7v5.2c0 .4 0 .7.1.8s.1.2.3.3.3.1.5.1h.3v.2h-4.1v-.2h.3c.2 0 .4 0 .6-.1.1-.1.2-.1.2-.3 0-.1.1-.3.1-.7v-2.5h-2.8zM-365.7 1194.8l-1.8-4.2c-.2-.5-.4-.8-.5-1-.1-.1-.2-.2-.4-.2v-.2h2.9v.2c-.2 0-.3 0-.4.1-.1.1-.1.2-.1.3 0 .1.1.4.3.8l.9 2.1.7-1.8c.2-.5.3-.9.3-1.1 0-.1 0-.2-.1-.3s-.2-.1-.5-.1v-.2h1.8v.2c-.2 0-.3.1-.4.2s-.3.4-.5.9l-1.8 4.3h-.4zM-359.6 1194.9l-1.8-4.1c-.3-.6-.5-1-.6-1.1s-.3-.2-.5-.3v-.2h2.9v.2c-.2 0-.3 0-.4.1s-.1.1-.1.2.1.4.3.9l.9 2.1.6-1.7c.2-.6.3-1 .3-1.2 0-.1 0-.3-.1-.3s-.3-.1-.5-.1v-.2h1.8v.2c-.2 0-.3.1-.4.2s-.3.5-.6 1.2l-1.6 4.1c-.4 1-.7 1.6-.9 1.9-.3.3-.6.5-1 .5-.3 0-.6-.1-.8-.3s-.3-.4-.3-.7c0-.2.1-.4.2-.6s.3-.2.5-.2.4.1.5.2.2.3.2.6c0 .1 0 .2.1.3l.1.1c.1 0 .2-.1.3-.2.2-.2.3-.5.6-1.1l.3-.5z"/></g></g></svg>