<svg version="1.2" baseProfile="tiny" xmlns="http://www.w3.org/2000/svg" viewBox="0 0 75 75" overflow="visible" xml:space="preserve"><path fill="#41BBEC" d="M-74.993.03h75v75h-75v-75z"/><path fill="#41BBEC" d="M.007.03h75v75h-75v-75z"/><path fill="#FFF" d="M0 0v9.4l28.1 28.1L0 65.6V75h9.4l28.1-28.1L65.6 75H75v-9.4L46.9 37.5 75 9.4V0h-9.4L37.5 28.1 9.4 0H0z"/><g fill="#010101"><path d="m21 58.2 8.8-11.9h1.7v11.9h1.7V61h-1.7v4.2h-3.8V61H21v-2.8zm1.3 0h5.4v-7.3l-5.4 7.3zM42 60.2h-8v-2.8h8v2.8zM42.4 58.2l8.8-11.9h1.7v11.9h1.7V61h-1.7v4.2h-3.8V61h-6.7v-2.8zm1.3 0h5.4v-7.3l-5.4 7.3z"/></g><g fill="#010101"><path d="m34.5 12.8 1.8 2.7c.3.4.5.7.6.8.1.1.3.2.5.2v.2h-3.2v-.2c.3 0 .4-.1.5-.1s.1-.1.1-.2V16c0-.1-.2-.3-.3-.5l-1-1.4-1 1.2c-.3.4-.5.6-.5.8 0 .1 0 .2.1.3s.2.1.3.2h.4v.2h-2.5v-.2c.3 0 .5-.1.7-.2.2-.1.5-.5.9-.9l1.3-1.6-1.7-2.5c-.3-.4-.4-.6-.5-.7-.1-.1-.2-.2-.3-.2s-.2-.1-.4-.1v-.2h3.3v.2h-.2c-.2 0-.3 0-.4.1-.1.1-.1.1-.1.2v.2l.3.5.8 1.2.7-.9c.4-.4.5-.7.5-.9 0-.1 0-.2-.1-.2s-.1-.1-.2-.2-.2-.1-.4-.1v-.2h2.4v.2c-.2 0-.3 0-.5.1-.1 0-.2.1-.4.2-.1.1-.3.3-.6.7l-.9 1.5zM41.8 12.8l1.8 2.7c.3.4.5.7.6.8.1.1.3.2.5.2v.2h-3.2v-.2c.3 0 .4-.1.5-.1s.1-.1.1-.2V16c0-.1-.2-.3-.3-.5l-1-1.4-1 1.2c-.3.4-.5.6-.5.8 0 .1 0 .2.1.3s.2.1.3.2h.4v.2h-2.5v-.2c.3 0 .5-.1.7-.2.2-.1.5-.5.9-.9l1.3-1.6-1.7-2.5c-.3-.4-.4-.6-.5-.7-.1-.1-.2-.2-.3-.2s-.2-.1-.4-.1v-.2h3.3v.2h-.2c-.2 0-.3 0-.4.1-.1.1-.1.1-.1.2v.2l.3.5.8 1.2.7-.9c.4-.4.5-.7.5-.9 0-.1 0-.2-.1-.2s-.1-.1-.2-.2-.2-.1-.4-.1v-.2h2.4v.2c-.2 0-.3 0-.5.1-.1 0-.2.1-.4.2-.1.1-.3.3-.6.7l-.9 1.5z"/></g><g fill="#010101"><path d="M35.2 24.1v6.5c0 .5 0 .8.1.9s.1.2.3.3.4.1.7.1h.2v.2h-4.2v-.2h.2c.3 0 .6 0 .7-.1l.3-.3c.1-.1.1-.5.1-1v-4.1c0-.4 0-.6-.1-.7s-.1-.2-.2-.2-.2-.1-.3-.1c-.2 0-.4.1-.7.2l-.1-.2 2.9-1.3h.1zM41.4 27.7c.6.4.9.8 1.2 1.1s.3.8.3 1.2c0 .6-.2 1.2-.7 1.6s-1.1.7-2 .7c-.8 0-1.4-.2-1.8-.6s-.6-.9-.6-1.4c0-.4.1-.8.4-1.1s.7-.6 1.2-.9c-.6-.5-1-.9-1.2-1.2s-.3-.7-.3-1.1c0-.5.2-1 .7-1.4s1.1-.6 1.9-.6c.8 0 1.3.2 1.7.5s.6.8.6 1.3c0 .4-.1.7-.3 1s-.7.6-1.1.9zm-1.6.9-.3.3c-.1.1-.1.3-.2.6s-.1.5-.1.8c0 .4 0 .7.1.9s.2.4.4.5.4.2.5.2c.3 0 .5-.1.7-.3s.3-.5.3-.9c.1-.7-.4-1.4-1.4-2.1zm1.1-1.2c.1-.2.3-.4.3-.7s.1-.5.1-.8c0-.5-.1-.9-.3-1.2-.2-.2-.4-.3-.7-.3-.3 0-.5.1-.7.3s-.3.4-.3.7c0 .3.1.6.3.9s.7.7 1.3 1.1z"/></g></svg>