<svg version="1.2" baseProfile="tiny" xmlns="http://www.w3.org/2000/svg" viewBox="0 0 75 75" overflow="visible" xml:space="preserve"><path fill="#278C43" d="M-74.993.03h75v75h-75v-75z"/><path fill="#278C43" d="M.007.03h75v75h-75v-75z"/><path fill="#FFF" d="M0 65.6 65.6 0H75v9.4L9.4 75H0v-9.4z"/><g fill="#010101"><path d="M29.4 46.3v15.2c0 1.1 0 1.9.2 2.2.1.3.3.6.6.8.3.2.8.3 1.5.3h.4v.5h-9.8v-.5h.5c.8 0 1.4-.1 1.7-.3.3-.2.6-.4.7-.8.1-.3.2-1.1.2-2.2v-9.6c0-.9 0-1.4-.1-1.6s-.2-.4-.5-.5c-.2-.2-.5-.2-.8-.2-.5 0-1 .1-1.7.4l-.2-.5 6.8-3.1h.5zM42 60.2h-8v-2.8h8v2.8zM45.9 46.7h8.7l-1.4 3.5h-7.3l-.7 1.8c3.1.1 5.6.9 7.3 2.4 1.4 1.2 2.1 2.7 2.1 4.5 0 1.1-.3 2.3-1 3.3-.6 1.1-1.6 1.9-2.7 2.5s-2.5.9-3.9.9c-1.5 0-2.7-.3-3.5-.8-.6-.4-.8-.9-.8-1.4 0-.4.1-.7.4-1 .3-.3.6-.5 1-.5s.7.1 1.1.2c.4.1 1 .5 1.9 1.1.6.4 1 .6 1.4.8.3.1.6.2 1 .2.7 0 1.4-.3 1.9-.8s.8-1.2.8-2c0-1.6-.8-2.9-2.4-3.9-1.6-1-3.6-1.5-6.1-1.5h-1.1l3.3-9.3z"/></g><g fill="#010101"><path d="m30.9 12.8 1.8 2.7c.3.4.5.7.6.8.1.1.3.2.5.2v.2h-3.2v-.2c.3 0 .4-.1.5-.1.1-.1.1-.1.1-.2V16c0-.1-.2-.3-.3-.5l-1-1.4-1 1.2c-.3.4-.5.6-.5.8 0 .1 0 .2.1.3s.2.1.3.2h.4v.2h-2.5v-.2c.3 0 .5-.1.7-.2.2-.1.5-.5.9-.9l1.3-1.6-1.7-2.5c-.3-.4-.4-.6-.5-.7-.1-.1-.2-.2-.3-.2-.1 0-.2-.1-.4-.1v-.2H30v.2h-.2c-.2 0-.3 0-.4.1-.1.1-.1.1-.1.2v.2l.3.5.8 1.2.7-.9c.4-.4.5-.7.5-.9 0-.1 0-.2-.1-.2l-.2-.2c-.1 0-.2-.1-.4-.1v-.2h2.4v.2c-.2 0-.3 0-.5.1-.1 0-.2.1-.4.2-.1.1-.3.3-.6.7l-.9 1.5zM38.1 12.8l1.8 2.7c.3.4.5.7.6.8.1.1.3.2.5.2v.2h-3.2v-.2c.3 0 .4-.1.5-.1.1-.1.1-.1.1-.2V16c0-.1-.2-.3-.3-.5l-1-1.4-1 1.2c-.3.4-.5.6-.5.8 0 .1 0 .2.1.3s.2.1.3.2h.4v.2h-2.5v-.2c.3 0 .5-.1.7-.2.2-.1.5-.5.9-.9l1.3-1.6-1.7-2.5c-.3-.4-.4-.6-.5-.7-.1-.1-.2-.2-.3-.2-.1 0-.2-.1-.4-.1v-.2h3.3v.2H37c-.2 0-.3 0-.4.1-.1.1-.1.1-.1.2v.2l.3.5.8 1.2.7-.9c.4-.4.5-.7.5-.9 0-.1 0-.2-.1-.2l-.2-.2c-.1 0-.2-.1-.4-.1v-.2h2.4v.2c-.2 0-.3 0-.5.1-.1 0-.2.1-.4.2-.1.1-.3.3-.6.7l-.9 1.5zM45.4 12.8l1.8 2.7c.3.4.5.7.6.8.1.1.3.2.5.2v.2h-3.2v-.2c.3 0 .4-.1.5-.1.1-.1.1-.1.1-.2V16c0-.1-.2-.3-.3-.5l-1-1.4-1 1.2c-.3.4-.5.6-.5.8 0 .1 0 .2.1.3s.2.1.3.2h.4v.2h-2.5v-.2c.3 0 .5-.1.7-.2.2-.1.5-.5.9-.9l1.3-1.6-1.7-2.5c-.3-.4-.4-.6-.5-.7-.1-.1-.2-.2-.3-.2-.1 0-.2-.1-.4-.1v-.2h3.3v.2h-.2c-.2 0-.3 0-.4.1-.1.1-.1.1-.1.2v.2l.3.5.8 1.2.7-.9c.4-.4.5-.7.5-.9 0-.1 0-.2-.1-.2l-.2-.2c-.1 0-.2-.1-.4-.1v-.2h2.4v.2c-.2 0-.3 0-.5.1-.1 0-.2.1-.4.2-.1.1-.3.3-.6.7l-.9 1.5z"/></g><g fill="#010101"><path d="M35.8 24.2v.2c-.1 0-.3.1-.4.1s-.2.2-.3.3c0 0-.1.3-.4.9l-2.5 6.6H32l-2-5.1-2.2 5.1h-.2L25 25.8c-.3-.7-.5-1-.6-1.2s-.3-.2-.5-.2v-.2h3.4v.2c-.3 0-.5 0-.6.1s-.1.2-.1.3c0 .1.1.5.3.9l1.6 3.9 1.2-3-.3-.8c-.2-.5-.3-.8-.4-.9s-.2-.3-.3-.3-.3-.1-.6-.1v-.2h3.8v.2c-.3 0-.5 0-.6.1-.1 0-.1.1-.2.1s-.1.1-.1.2.1.4.3.8l1.4 3.8 1.3-3.4c.1-.4.2-.6.3-.7s0-.2 0-.4-.1-.3-.2-.4-.3-.1-.6-.1v-.2h2.3zM38.7 31.4c-.7.6-1.3.9-1.8.9-.3 0-.6-.1-.8-.3s-.3-.5-.3-.8c0-.4.2-.8.5-1.1s1.1-.8 2.3-1.3v-.6c0-.4 0-.7-.1-.8s-.1-.2-.3-.3-.3-.1-.4-.1c-.3 0-.5.1-.6.2l-.2.2c0 .1.1.2.2.3.1.2.2.3.2.5s-.1.4-.2.5-.3.2-.6.2c-.2 0-.5-.1-.6-.2s-.2-.3-.2-.5c0-.3.1-.5.3-.8s.5-.5.9-.6.8-.2 1.2-.2c.5 0 .9.1 1.2.3s.5.5.6.7c.1.2.1.5.1 1.1v2.6c0 .1 0 .1.1.1h.1c.1 0 .2-.1.3-.2l.2.1c-.2.3-.4.5-.6.6s-.4.2-.7.2c-.3 0-.6-.1-.7-.2s-.1-.2-.1-.5zm0-.5v-1.8c-.5.3-.8.6-1.1.9-.2.2-.2.4-.2.6 0 .2.1.3.2.5.1.1.2.2.4.2s.5-.1.7-.4zM45.1 26.5l.1 1.9H45c-.2-.6-.5-.9-.7-1.1s-.5-.3-.8-.3c-.2 0-.3.1-.4.2s-.2.2-.2.4c0 .1 0 .2.1.3.1.2.5.4 1 .8s1 .7 1.1 1 .3.6.3.9c0 .3-.1.6-.2.9s-.4.5-.6.7-.6.2-.9.2c-.3 0-.6-.1-1-.2-.1 0-.2-.1-.2-.1-.1 0-.2.1-.3.3H42l-.1-2h.2c.2.5.4.9.7 1.2s.6.4.9.4c.2 0 .3-.1.5-.2s.2-.3.2-.4c0-.2-.1-.3-.2-.5s-.4-.3-.8-.6c-.6-.4-1-.7-1.2-.9-.3-.3-.4-.7-.4-1.1 0-.4.1-.8.4-1.1s.7-.5 1.3-.5c.3 0 .6.1.9.2.1.1.2.1.3.1h.2c.1 0 .1-.1.2-.2zM49.8 26.5l.1 1.9h-.2c-.2-.6-.5-.9-.7-1.1s-.5-.3-.8-.3c-.2 0-.3.1-.4.2s-.2.2-.2.4c0 .1 0 .2.1.3.1.2.5.4 1 .8s1 .7 1.1 1 .3.6.3.9c0 .3-.1.6-.2.9s-.4.5-.6.7-.6.2-.9.2c-.3 0-.6-.1-1-.2-.1 0-.2-.1-.2-.1-.1 0-.2.1-.3.3h-.2l-.1-2h.2c.2.5.4.9.7 1.2s.6.4.9.4c.2 0 .3-.1.5-.2s.2-.3.2-.4c0-.2-.1-.3-.2-.5s-.4-.3-.8-.6c-.6-.4-1-.7-1.2-.9-.3-.3-.4-.7-.4-1.1 0-.4.1-.8.4-1.1s.7-.5 1.3-.5c.3 0 .6.1.9.2.1.1.2.1.3.1h.2c.1 0 .1-.1.2-.2z"/></g></svg>