<svg version="1.2" baseProfile="tiny" xmlns="http://www.w3.org/2000/svg" viewBox="0 0 75 75" overflow="visible" xml:space="preserve"><path fill="#278C43" d="M-74.993.03h75v75h-75v-75z"/><path fill="#278C43" d="M.007.03h75v75h-75v-75z"/><path fill="#FFF" d="M0 65.6 65.6 0H75v9.4L9.4 75H0v-9.4z"/><g fill="#010101"><path d="M29.4 46.3v15.2c0 1.1 0 1.9.2 2.2.1.3.3.6.6.8.3.2.8.3 1.5.3h.4v.5h-9.8v-.5h.5c.8 0 1.4-.1 1.7-.3.3-.2.6-.4.7-.8.1-.3.2-1.1.2-2.2v-9.6c0-.9 0-1.4-.1-1.6s-.2-.4-.5-.5c-.2-.2-.5-.2-.8-.2-.5 0-1 .1-1.7.4l-.2-.5 6.8-3.1h.5zM42 60.2h-8v-2.8h8v2.8zM54.8 46.3v.4c-1.7.4-3 1-4 1.6s-1.8 1.5-2.4 2.4c-.6.9-1 2.1-1.3 3.5.4-.3.7-.5 1-.5.6-.2 1.2-.3 1.8-.3 1.4 0 2.5.5 3.5 1.5.9 1 1.4 2.4 1.4 4.1 0 1.2-.3 2.3-.8 3.4-.5 1-1.2 1.8-2.1 2.4-.9.6-1.9.8-3 .8s-2.2-.3-3.2-.9c-1-.6-1.7-1.5-2.3-2.7-.5-1.2-.8-2.5-.8-3.9 0-2.1.5-4 1.5-5.8s2.4-3.2 4.3-4.3c1.9-1.1 4-1.7 6.4-1.7zm-7.8 9c-.1 1.3-.1 2.2-.1 2.8 0 1.3.1 2.5.4 3.7.2 1.2.6 2 1 2.5.3.3.7.5 1.1.5.4 0 .8-.2 1.1-.7s.5-1.5.5-3c0-2.5-.3-4.3-.9-5.2-.4-.6-.9-.9-1.6-.9-.5-.1-1 0-1.5.3z"/></g><g fill="#010101"><path d="m30.9 12.8 1.8 2.7c.3.4.5.7.6.8.1.1.3.2.5.2v.2h-3.2v-.2c.3 0 .4-.1.5-.1.1-.1.1-.1.1-.2V16c0-.1-.2-.3-.3-.5l-1-1.4-1 1.2c-.3.4-.5.6-.5.8 0 .1 0 .2.1.3s.2.1.3.2h.4v.2h-2.5v-.2c.3 0 .5-.1.7-.2.2-.1.5-.5.9-.9l1.3-1.6-1.7-2.5c-.3-.4-.4-.6-.5-.7-.1-.1-.2-.2-.3-.2-.1 0-.2-.1-.4-.1v-.2H30v.2h-.2c-.2 0-.3 0-.4.1-.1.1-.1.1-.1.2v.2l.3.5.8 1.2.7-.9c.4-.4.5-.7.5-.9 0-.1 0-.2-.1-.2l-.2-.2c-.1 0-.2-.1-.4-.1v-.2h2.4v.2c-.2 0-.3 0-.5.1-.1 0-.2.1-.4.2-.1.1-.3.3-.6.7l-.9 1.5zM38.1 12.8l1.8 2.7c.3.4.5.7.6.8.1.1.3.2.5.2v.2h-3.2v-.2c.3 0 .4-.1.5-.1.1-.1.1-.1.1-.2V16c0-.1-.2-.3-.3-.5l-1-1.4-1 1.2c-.3.4-.5.6-.5.8 0 .1 0 .2.1.3s.2.1.3.2h.4v.2h-2.5v-.2c.3 0 .5-.1.7-.2.2-.1.5-.5.9-.9l1.3-1.6-1.7-2.5c-.3-.4-.4-.6-.5-.7-.1-.1-.2-.2-.3-.2-.1 0-.2-.1-.4-.1v-.2h3.3v.2H37c-.2 0-.3 0-.4.1-.1.1-.1.1-.1.2v.2l.3.5.8 1.2.7-.9c.4-.4.5-.7.5-.9 0-.1 0-.2-.1-.2l-.2-.2c-.1 0-.2-.1-.4-.1v-.2h2.4v.2c-.2 0-.3 0-.5.1-.1 0-.2.1-.4.2-.1.1-.3.3-.6.7l-.9 1.5zM45.4 12.8l1.8 2.7c.3.4.5.7.6.8.1.1.3.2.5.2v.2h-3.2v-.2c.3 0 .4-.1.5-.1.1-.1.1-.1.1-.2V16c0-.1-.2-.3-.3-.5l-1-1.4-1 1.2c-.3.4-.5.6-.5.8 0 .1 0 .2.1.3s.2.1.3.2h.4v.2h-2.5v-.2c.3 0 .5-.1.7-.2.2-.1.5-.5.9-.9l1.3-1.6-1.7-2.5c-.3-.4-.4-.6-.5-.7-.1-.1-.2-.2-.3-.2-.1 0-.2-.1-.4-.1v-.2h3.3v.2h-.2c-.2 0-.3 0-.4.1-.1.1-.1.1-.1.2v.2l.3.5.8 1.2.7-.9c.4-.4.5-.7.5-.9 0-.1 0-.2-.1-.2l-.2-.2c-.1 0-.2-.1-.4-.1v-.2h2.4v.2c-.2 0-.3 0-.5.1-.1 0-.2.1-.4.2-.1.1-.3.3-.6.7l-.9 1.5z"/></g><g fill="#010101"><path d="M33.9 24.1v6.5c0 .5 0 .8.1.9s.1.2.3.3.4.1.7.1h.2v.2H31v-.2h.2c.3 0 .6 0 .7-.1l.3-.3c.1-.1.1-.5.1-1v-4.1c0-.4 0-.6-.1-.7s-.1-.2-.2-.2-.2-.1-.3-.1c-.2 0-.4.1-.7.2l-.1-.2 2.9-1.3h.1zM44 24v2.8h-.2c-.2-.7-.5-1.3-1-1.7s-1-.6-1.6-.6c-.5 0-1 .1-1.4.4s-.7.7-.9 1.1c-.2.6-.4 1.2-.4 2 0 .7.1 1.4.3 1.9s.5 1 .8 1.3.9.4 1.5.4c.5 0 1-.1 1.4-.3s.9-.6 1.3-1.1v.7c-.4.5-.9.8-1.4 1s-1 .3-1.7.3c-.8 0-1.6-.2-2.3-.5s-1.2-.8-1.5-1.5-.5-1.3-.5-2c0-.8.2-1.5.6-2.2s.9-1.2 1.6-1.6 1.4-.6 2.1-.6c.6 0 1.1.1 1.8.4.4.1.6.2.7.2.1 0 .2 0 .3-.1s.2-.2.2-.4h.3z"/></g></svg>