<svg version="1.2" baseProfile="tiny" xmlns="http://www.w3.org/2000/svg" viewBox="0 0 75 75" overflow="visible" xml:space="preserve"><path fill="#278C43" d="M-74.993.03h75v75h-75v-75z"/><path fill="#278C43" d="M.007.03h75v75h-75v-75z"/><path fill="#FFF" d="M0 0v9.4l28.1 28.1L0 65.6V75h9.4l28.1-28.1L65.6 75H75v-9.4L46.9 37.5 75 9.4V0h-9.4L37.5 28.1 9.4 0H0z"/><g fill="#010101"><path d="M22.9 46.3v15.2c0 1.1 0 1.9.2 2.2.1.3.3.6.6.8.3.2.8.3 1.5.3h.4v.5h-9.8v-.5h.5c.8 0 1.4-.1 1.7-.3.3-.2.6-.4.7-.8.1-.3.2-1.1.2-2.2v-9.6c0-.9 0-1.4-.1-1.6s-.2-.4-.5-.5c-.2-.2-.5-.2-.8-.2-.5 0-1 .1-1.7.4l-.2-.5 6.8-3.1h.5zM39.8 56c0 1.9-.3 3.6-.8 5.2-.3 1-.7 1.8-1.3 2.4s-1.1 1.1-1.8 1.5-1.4.6-2.2.6c-.9 0-1.7-.2-2.4-.7s-1.4-1.1-1.9-2c-.4-.6-.8-1.4-1.1-2.5-.4-1.4-.6-2.8-.6-4.3 0-2 .3-3.9.8-5.6.5-1.4 1.2-2.5 2.1-3.2s2-1.1 3-1.1c1.1 0 2.1.4 3 1.1s1.6 1.7 2.1 3c.8 1.7 1.1 3.5 1.1 5.6zm-4.2-.1c0-3.2 0-5.1-.1-5.7-.1-1.3-.3-2.1-.7-2.6-.2-.3-.6-.4-1.1-.4-.4 0-.7.1-.9.3-.3.3-.6.9-.7 1.7s-.2 3.6-.2 8.4c0 2.6.1 4.4.3 5.3.1.6.3 1.1.6 1.3s.6.3 1 .3c.5 0 .8-.1 1-.4.4-.5.6-1.3.7-2.4l.1-5.8zM48.5 60.2h-8v-2.8h8v2.8zM48.9 58.2l8.8-11.9h1.7v11.9h1.7V61h-1.7v4.2h-3.8V61h-6.7v-2.8zm1.3 0h5.4v-7.3l-5.4 7.3z"/></g><path fill="#010101" d="m38.1 12.8 1.8 2.7c.3.4.5.7.6.8.1.1.3.2.5.2v.2h-3.2v-.2c.3 0 .4-.1.5-.1.1-.1.1-.1.1-.2V16c0-.1-.2-.3-.3-.5l-1-1.4-1 1.2c-.3.4-.5.6-.5.8 0 .1 0 .2.1.3s.2.1.3.2h.4v.2h-2.5v-.3c.3 0 .5-.1.7-.2.2-.1.5-.5.9-.9l1.3-1.6-1.7-2.5c-.3-.4-.4-.6-.5-.7-.1-.1-.2-.2-.3-.2-.1 0-.2-.1-.4-.1v-.2h3.3v.2H37c-.2 0-.3 0-.4.1-.1.1-.1.1-.1.2v.2l.3.5.8 1.2.7-.9c.4-.4.5-.7.5-.9 0-.1 0-.2-.1-.2l-.2-.2c-.1 0-.2-.1-.4-.1V10h2.4v.2c-.2 0-.3 0-.5.1-.1 0-.2.1-.4.2-.1.1-.3.3-.6.7l-.9 1.6z"/><g fill="#010101"><path d="M31.2 32.2h-4.7v-.1c1.4-1.7 2.3-2.9 2.6-3.4s.5-1.2.5-1.7c0-.4-.1-.8-.4-1s-.6-.4-.9-.4c-.6 0-1.1.3-1.4.9l-.2-.1c.2-.8.5-1.3 1-1.7s.9-.5 1.5-.5c.4 0 .8.1 1.1.3s.6.4.8.8.3.6.3.9c0 .5-.1 1-.4 1.6-.4.7-1.3 1.7-2.6 3h1.7c.4 0 .7 0 .8-.1s.2-.1.3-.2.2-.3.3-.5h.2l-.5 2.2zM40.6 24v2.8h-.2c-.3-.8-.7-1.3-1.2-1.7s-1.1-.6-1.7-.6c-.6 0-1.1.2-1.5.5s-.7.8-.8 1.4-.2 1.2-.2 1.8c0 .8.1 1.4.3 2s.5 1 .9 1.3.9.4 1.4.4c.2 0 .4 0 .6-.1s.4-.1.6-.2v-1.7c0-.3 0-.5-.1-.6s-.1-.2-.3-.2-.3-.1-.5-.1h-.2v-.2h3.9v.2c-.3 0-.5.1-.6.1s-.2.2-.3.3c0 .1-.1.3-.1.5v1.7c-.5.2-1 .4-1.6.5s-1.1.2-1.7.2c-.8 0-1.4-.1-1.9-.3s-.9-.5-1.3-.8-.7-.7-.9-1.1c-.3-.5-.4-1.1-.4-1.8 0-1.2.4-2.2 1.3-3s1.9-1.2 3.2-1.2c.4 0 .8 0 1.1.1.2 0 .5.1.8.3s.6.2.7.2c.1 0 .2 0 .3-.1s.2-.2.3-.5h.1zM47.3 24.2v7.1c0 .1.1.2.2.3s.2.1.5.1v.2l-2.3.5v-.9c-.3.3-.5.6-.7.7s-.5.2-.7.2c-.7 0-1.3-.3-1.7-.9-.3-.5-.5-1.1-.5-1.9 0-.6.1-1.1.3-1.6s.5-.8.8-1.1.7-.4 1.1-.4c.3 0 .5.1.7.2s.4.3.7.5v-1.7c0-.4 0-.7-.1-.8 0-.1-.1-.2-.2-.3s-.3-.1-.5-.1v-.2h2.4zm-1.6 3.7c-.3-.6-.6-.8-1.1-.8-.1 0-.3 0-.4.1-.1.1-.3.3-.4.6s-.1.8-.1 1.4c0 .7.1 1.2.2 1.5s.2.6.4.7c.1.1.2.1.4.1.3 0 .7-.3 1-.8v-2.8z"/></g></svg>