<svg version="1.2" baseProfile="tiny" xmlns="http://www.w3.org/2000/svg" viewBox="0 0 75 75" overflow="visible" xml:space="preserve"><path fill="#41BBEC" d="M-74.993.03h75v75h-75v-75z"/><path fill="#41BBEC" d="M.007.03h75v75h-75v-75z"/><path fill="#278C43" d="M22.888 18.3h29.4v19.6h-29.4V18.3zm13.2 9.8-11.6-7.8v15.5l11.6-7.7zm-9.3-8.2 10.8 7.2 10.8-7.2h-21.6zm10.8 9.2-10.8 7.2h21.6l-10.8-7.2zm1.4-1 11.6 7.8V20.4l-11.6 7.7z"/><g fill="#278C43"><path d="M17.588 60.9c.6-1.5 2.1-3.1 4.5-4.8 2.1-1.5 3.4-2.5 4-3.2.9-1 1.4-2.1 1.4-3.2 0-1-.3-1.8-.8-2.4-.5-.6-1.3-1-2.3-1-1.4 0-2.3.5-2.8 1.5-.3.6-.4 1.5-.5 2.8h-4.3c.1-1.9.4-3.5 1-4.7 1.2-2.3 3.3-3.4 6.3-3.4 2.4 0 4.3.7 5.7 2s2.1 3.1 2.1 5.3c0 1.7-.5 3.2-1.5 4.5-.7.9-1.7 1.8-3.2 2.9l-1.8 1.3c-1.1.8-1.9 1.4-2.3 1.7-.4.4-.8.8-1 1.2h9.9v3.9h-15.5c.1-1.6.4-3.1 1.1-4.4zM33.088 54.3h8.7v4.2h-8.7v-4.2zM58.688 60.5h-2.6v4.9h-4.4v-4.9h-9v-3.9l8.3-13.8h5V57h2.6v3.5zm-6.9-3.5v-9.8l-5.7 9.8h5.7z"/></g><g fill="#278C43"><path d="M32.088 16.6h-1.2l2.5-3.7-2.4-3.5h1.2l1.8 2.7 1.8-2.7h1.2l-2.4 3.5 2.5 3.7h-1.2l-1.9-2.9-1.9 2.9zM38.788 16.6h-1.2l2.5-3.7-2.4-3.5h1.2l1.8 2.7 1.8-2.7h1.2l-2.4 3.5 2.5 3.7h-1.2l-1.9-2.9-1.9 2.9z"/></g><g fill="#278C43"><path d="M63.788 33.2c-.5-.3-1-.8-1.5-1.5l-.7-1.1c-.3-.5-.5-.9-.8-1.1-.3-.3-.7-.5-1.1-.5-.5 0-.9.1-1.2.4-.3.3-.4.7-.4 1.2 0 .7.3 1.2.8 1.5.3.1.7.2 1.2.2v1.1c-.7 0-1.3-.1-1.8-.4-.8-.5-1.2-1.3-1.2-2.4 0-1 .3-1.7.8-2.1s1.1-.7 1.7-.7c.7 0 1.2.2 1.7.7.3.3.6.8 1 1.5l.4.8c.2.4.4.7.6.9.3.4.7.6 1.1.7v-4.6h1v5.8c-.4 0-1-.2-1.6-.4zM65.688 23.8h-2.1v3.7h-1l-5.3-3.8v-.9h5.4v-1.2h.9v1.2h2.1v1zm-2.9 0h-3.8l3.8 2.7v-2.7z"/></g></svg>