<svg version="1.2" baseProfile="tiny" xmlns="http://www.w3.org/2000/svg" viewBox="0 0 75 75" overflow="visible" xml:space="preserve"><path fill="#41BBEC" d="M-74.993.03h75v75h-75v-75z"/><path fill="#41BBEC" d="M.007.03h75v75h-75v-75z"/><path fill="#278C43" d="M22.888 18.3h29.4v19.6h-29.4V18.3zm13.2 9.8-11.6-7.8v15.5l11.6-7.7zm-9.3-8.2 10.8 7.2 10.8-7.2h-21.6zm10.8 9.2-10.8 7.2h21.6l-10.8-7.2zm1.4-1 11.6 7.8V20.4l-11.6 7.7z"/><g fill="#278C43"><path d="M32.288 60.5h-2.6v4.9h-4.4v-4.9h-9v-3.9l8.3-13.8h5V57h2.6v3.5zm-7-3.5v-9.8l-5.7 9.8h5.7zM33.088 54.3h8.7v4.2h-8.7v-4.2zM58.688 60.5h-2.6v4.9h-4.4v-4.9h-9v-3.9l8.3-13.8h5V57h2.6v3.5zm-6.9-3.5v-9.8l-5.7 9.8h5.7z"/></g><g fill="#278C43"><path d="M32.088 16.6h-1.2l2.5-3.7-2.4-3.5h1.2l1.8 2.7 1.8-2.7h1.2l-2.4 3.5 2.5 3.7h-1.2l-1.9-2.9-1.9 2.9zM38.788 16.6h-1.2l2.5-3.7-2.4-3.5h1.2l1.8 2.7 1.8-2.7h1.2l-2.4 3.5 2.5 3.7h-1.2l-1.9-2.9-1.9 2.9z"/></g><g fill="#278C43"><path d="M59.788 32.8h-.8c-.1-.8-.2-1.3-.4-1.6s-.6-.5-1.2-.7v-.8h8.4v1.1h-5.9v2zM60.788 26.7c-.3.3-.7.5-1.2.5-.6 0-1.2-.2-1.6-.7s-.7-1.1-.7-1.9c0-.8.2-1.4.6-1.9.4-.5.9-.7 1.5-.7.5 0 .9.1 1.3.4.2.1.4.4.5.7.2-.3.3-.6.6-.8.4-.4.9-.6 1.5-.6.7 0 1.4.2 1.9.7s.8 1.2.8 2.1c0 .8-.2 1.5-.7 2.1s-1.1.8-1.9.8c-.5 0-.9-.1-1.3-.4s-.6-.6-.8-1.1c-.2.4-.3.6-.5.8zm-.3-3.2c-.3-.3-.6-.4-.9-.4-.3 0-.6.1-.9.4-.3.2-.4.6-.4 1.1 0 .5.1.9.4 1.1s.6.3.9.3c.4 0 .7-.1.9-.4.2-.3.3-.6.3-1 0-.5-.1-.9-.3-1.1zm4.1-.2c-.3-.3-.7-.5-1.2-.5s-1 .2-1.2.5-.4.8-.4 1.3.1.9.4 1.2.7.5 1.2.5c.4 0 .8-.1 1.1-.4s.5-.7.5-1.4c0-.5-.1-.9-.4-1.2z"/></g></svg>