<svg version="1.2" baseProfile="tiny" xmlns="http://www.w3.org/2000/svg" viewBox="0 0 75 75" overflow="visible" xml:space="preserve"><path fill="#278C43" d="M-74.993.03h75v75h-75v-75z"/><path fill="#278C43" d="M.007.03h75v75h-75v-75z"/><path fill="#FFF" d="M22.888 18.3h29.4v19.6h-29.4V18.3zm25.5 1.6h-23.9v15.9l23.9-15.9zm-21.6 16.4h23.9V20.4l-23.9 15.9z"/><g fill="#FFF"><path d="M17.688 49.7v-3c1.4-.1 2.4-.2 2.9-.3.9-.2 1.6-.6 2.2-1.2.4-.4.7-.9.9-1.6.1-.4.2-.7.2-.9h3.7v22.7h-4.6V49.8h-5.3zM33.088 54.3h8.7v4.2h-8.7v-4.2zM47.288 59.3c.2 1 .5 1.7 1 2.2.5.5 1.2.8 2.2.8 1.1 0 1.9-.4 2.5-1.2.6-.8.9-1.8.9-2.9 0-1.2-.3-2.1-.8-2.9-.5-.8-1.4-1.2-2.5-1.2-.5 0-1 .1-1.4.2-.7.2-1.2.7-1.6 1.4l-4-.2 1.6-12.5h12.5v3.8h-9.3l-.8 5c.7-.4 1.2-.7 1.6-.9.6-.2 1.4-.4 2.4-.4 1.9 0 3.5.6 4.9 1.9 1.4 1.3 2.1 3.1 2.1 5.5 0 2.1-.7 4-2 5.6-1.3 1.6-3.4 2.5-6 2.5-2.2 0-3.9-.6-5.3-1.7-1.4-1.2-2.2-2.8-2.3-4.9h4.3z"/></g><g fill="#FFF"><path d="M28.788 16.6h-1.2l2.5-3.7-2.4-3.5h1.2l1.8 2.7 1.8-2.7h1.2l-2.4 3.5 2.5 3.7h-1.2l-1.9-2.9-1.9 2.9zM35.388 16.6h-1.2l2.5-3.7-2.4-3.5h1.2l1.8 2.7 1.8-2.7h1.2l-2.4 3.5 2.5 3.7h-1.2l-1.9-2.9-1.9 2.9zM42.088 16.6h-1.2l2.5-3.7-2.4-3.5h1.2l1.8 2.7 1.8-2.7h1.2l-2.4 3.5 2.5 3.7h-1.2l-1.9-2.9-1.9 2.9z"/></g><g fill="#FFF"><path d="m57.088 40.1 7-1.6-7-1.9v-1.3l7-2-7-1.6v-1.3l8.6 2.3v1.2l-7.1 2 7.1 2v1.2l-8.6 2.2v-1.2zM61.888 27.1c0-.2-.1-.4-.3-.5-.1 0-.2-.1-.4-.1-.4 0-.6.1-.8.4s-.2.6-.2 1.1c0 .5.1.9.4 1.2.2.1.4.2.7.3v1c-.8 0-1.3-.3-1.6-.8s-.5-1-.5-1.7.1-1.3.4-1.8c.3-.5.7-.7 1.3-.7h3.6c.1 0 .2 0 .3-.1s.1-.1.1-.3v-.4h.8c0 .2.1.3.1.4v.4c0 .4-.1.6-.4.8-.1.1-.3.1-.6.2.3.2.5.5.7.9s.3.8.3 1.3c0 .6-.2 1.1-.5 1.4-.4.4-.8.6-1.3.6-.6 0-1-.2-1.4-.5-.3-.4-.5-.8-.6-1.4l-.1-1.7zm2.9 2.2c.2-.2.3-.5.3-.8 0-.4-.1-.7-.3-1.1-.3-.6-.8-.9-1.4-.9h-.8c.1.1.2.3.2.5s.1.4.1.6l.1.6c.1.4.1.7.2.9.2.3.5.5.9.5.3 0 .5-.1.7-.3zM63.788 23.6c.4 0 .6-.1.8-.3.3-.3.5-.7.5-1.4 0-.4-.1-.8-.3-1.1s-.4-.5-.8-.5c-.3 0-.5.1-.6.4-.1.2-.2.5-.3.9l-.2.9c-.1.5-.3.9-.4 1.2-.3.5-.7.7-1.2.7-.6 0-1.1-.2-1.4-.7-.4-.4-.6-1-.6-1.7 0-1 .3-1.6.8-2.1.4-.3.7-.4 1.1-.4v1c-.2 0-.5.1-.6.3-.3.2-.4.7-.4 1.3 0 .4.1.7.2.9.2.2.4.3.6.3.3 0 .5-.1.7-.4.1-.2.2-.4.3-.7l.2-.7c.2-.8.4-1.3.5-1.6.3-.4.7-.6 1.3-.6.6 0 1 .2 1.4.6.4.4.6 1.1.6 2 0 .9-.2 1.6-.6 2-.4.4-.9.6-1.6.6v-.9zM63.788 18.1c.4 0 .6-.1.8-.3.3-.3.5-.7.5-1.4 0-.4-.1-.8-.3-1.1s-.4-.5-.8-.5c-.3 0-.5.1-.6.4-.1.2-.2.5-.3.9l-.2.9c-.1.5-.3.9-.4 1.2-.3.5-.7.7-1.2.7-.6 0-1.1-.2-1.4-.7-.4-.4-.6-1-.6-1.7 0-1 .3-1.6.8-2.1.4-.3.7-.4 1.1-.4v1c-.2 0-.5.1-.6.3-.3.2-.4.7-.4 1.3 0 .4.1.7.2.9.2.2.4.3.6.3.3 0 .5-.1.7-.4.1-.2.2-.4.3-.7l.2-.7c.2-.8.4-1.3.5-1.6.3-.4.7-.6 1.3-.6.6 0 1 .2 1.4.6.4.4.6 1.1.6 2 0 .9-.2 1.6-.6 2-.4.4-.9.6-1.6.6v-.9z"/></g></svg>