<svg version="1.2" baseProfile="tiny" xmlns="http://www.w3.org/2000/svg" viewBox="0 0 75 75" overflow="visible" xml:space="preserve"><path fill="#278C43" d="M-74.993.03h75v75h-75v-75z"/><path fill="#278C43" d="M.007.03h75v75h-75v-75z"/><path fill="#FFF" d="M22.888 18.3h29.4v19.6h-29.4V18.3zm25.5 1.6h-23.9v15.9l23.9-15.9zm-21.6 16.4h23.9V20.4l-23.9 15.9z"/><g fill="#FFF"><path d="M17.588 60.9c.6-1.5 2.1-3.1 4.5-4.8 2.1-1.5 3.4-2.5 4-3.2.9-1 1.4-2.1 1.4-3.2 0-1-.3-1.8-.8-2.4-.5-.6-1.3-1-2.3-1-1.4 0-2.3.5-2.8 1.5-.3.6-.4 1.5-.5 2.8h-4.3c.1-1.9.4-3.5 1-4.7 1.2-2.3 3.3-3.4 6.3-3.4 2.4 0 4.3.7 5.7 2s2.1 3.1 2.1 5.3c0 1.7-.5 3.2-1.5 4.5-.7.9-1.7 1.8-3.2 2.9l-1.8 1.3c-1.1.8-1.9 1.4-2.3 1.7-.4.4-.8.8-1 1.2h9.9v3.9h-15.5c.1-1.6.4-3.1 1.1-4.4zM33.088 54.3h8.7v4.2h-8.7v-4.2zM47.288 59.3c.2 1 .5 1.7 1 2.2.5.5 1.2.8 2.2.8 1.1 0 1.9-.4 2.5-1.2.6-.8.9-1.8.9-2.9 0-1.2-.3-2.1-.8-2.9-.5-.8-1.4-1.2-2.5-1.2-.5 0-1 .1-1.4.2-.7.2-1.2.7-1.6 1.4l-4-.2 1.6-12.5h12.5v3.8h-9.3l-.8 5c.7-.4 1.2-.7 1.6-.9.6-.2 1.4-.4 2.4-.4 1.9 0 3.5.6 4.9 1.9 1.4 1.3 2.1 3.1 2.1 5.5 0 2.1-.7 4-2 5.6-1.3 1.6-3.4 2.5-6 2.5-2.2 0-3.9-.6-5.3-1.7-1.4-1.2-2.2-2.8-2.3-4.9h4.3z"/></g><g fill="#FFF"><path d="M28.788 16.6h-1.2l2.5-3.7-2.4-3.5h1.2l1.8 2.7 1.8-2.7h1.2l-2.4 3.5 2.5 3.7h-1.2l-1.9-2.9-1.9 2.9zM35.388 16.6h-1.2l2.5-3.7-2.4-3.5h1.2l1.8 2.7 1.8-2.7h1.2l-2.4 3.5 2.5 3.7h-1.2l-1.9-2.9-1.9 2.9zM42.088 16.6h-1.2l2.5-3.7-2.4-3.5h1.2l1.8 2.7 1.8-2.7h1.2l-2.4 3.5 2.5 3.7h-1.2l-1.9-2.9-1.9 2.9z"/></g><g fill="#FFF"><path d="M62.888 38.2c.5 0 .9-.1 1.2-.3.6-.4.9-1 .9-2 0-.4-.1-.8-.2-1.2-.2-.7-.7-1-1.3-1-.5 0-.8.1-1 .4-.2.3-.4.7-.5 1.4l-.3 1.1c-.2.7-.4 1.3-.6 1.6-.4.5-.9.8-1.6.8-.8 0-1.4-.3-1.9-.8s-.7-1.3-.7-2.2c0-.9.2-1.6.7-2.2s1.1-.9 2.1-.9V34c-.5.1-.8.2-1.1.4-.4.3-.7.9-.7 1.7 0 .7.1 1.1.4 1.4s.6.4 1 .4.7-.2.9-.5c.1-.2.3-.7.5-1.5l.3-1.2c.1-.6.3-1 .5-1.3.4-.5 1-.8 1.8-.8 1 0 1.6.3 2 1 .4.7.6 1.5.6 2.4 0 1-.3 1.9-.8 2.5-.5.6-1.3.9-2.2.9v-1.2zM57.088 31.5v-1.1h1.2v1.1h-1.2zm2.4 0v-1.1h6.2v1.1h-6.2zM59.588 25.5c.2-.4.5-.7.8-.9.3-.2.7-.3 1.1-.4.3-.1.8-.1 1.4-.1v4.6c.6 0 1.2-.2 1.5-.4.4-.3.6-.7.6-1.3 0-.5-.2-1-.5-1.3-.2-.2-.5-.3-.7-.4v-1c.2 0 .5.1.8.3s.5.3.7.5c.3.3.5.7.6 1.2.1.3.1.5.1.9 0 .8-.3 1.4-.9 2-.6.5-1.4.8-2.4.8s-1.8-.3-2.5-.8c-.6-.5-.9-1.3-.9-2.1s.1-1.2.3-1.6zm2.5-.4c-.5 0-.8.1-1.1.3-.5.3-.8.8-.8 1.4 0 .5.2.9.5 1.2s.8.5 1.3.5v-3.4zM59.388 22.7l4.9-1.2-4.9-1.2v-1.2l4.9-1.2-4.9-1.3v-1.1l6.3 1.8v1.1l-4.9 1.3 4.9 1.2V22l-6.3 1.8v-1.1z"/></g></svg>