<svg version="1.2" baseProfile="tiny" xmlns="http://www.w3.org/2000/svg" viewBox="0 0 75 75" overflow="visible" xml:space="preserve"><path fill="#278C43" d="M-74.993.03h75v75h-75v-75z"/><path fill="#278C43" d="M.007.03h75v75h-75v-75z"/><path fill="#FFF" d="M22.888 18.3h29.4v19.6h-29.4V18.3zm13.2 9.8-11.6-7.8v15.5l11.6-7.7zm-9.3-8.2 10.8 7.2 10.8-7.2h-21.6zm10.8 9.2-10.8 7.2h21.6l-10.8-7.2zm1.4-1 11.6 7.8V20.4l-11.6 7.7z"/><g fill="#FFF"><path d="M20.688 58.4c0 .9.1 1.7.4 2.2.5 1.1 1.5 1.6 2.9 1.6.9 0 1.6-.3 2.3-.9.6-.6 1-1.5 1-2.6 0-1.5-.6-2.5-1.8-3-.7-.3-1.8-.4-3.2-.4v-3.2c1.4 0 2.5-.2 3-.4 1-.4 1.5-1.3 1.5-2.7 0-.9-.3-1.6-.8-2.1s-1.2-.8-2.1-.8c-1 0-1.8.3-2.3 1-.5.7-.7 1.6-.7 2.7h-4.2c0-1.1.2-2.2.6-3.2.4-.9.9-1.7 1.7-2.5.6-.5 1.3-.9 2.1-1.2.8-.3 1.8-.4 3-.4 2.2 0 3.9.6 5.2 1.7 1.3 1.1 2 2.6 2 4.5 0 1.3-.4 2.5-1.2 3.4-.5.6-1 1-1.6 1.2.4 0 1 .3 1.8 1 1.1 1.1 1.7 2.5 1.7 4.3 0 1.9-.7 3.6-2 5.1s-3.3 2.2-5.9 2.2c-3.2 0-5.4-1-6.7-3.1-.7-1.1-1-2.6-1.1-4.4h4.4zM33.088 54.3h8.7v4.2h-8.7v-4.2zM47.188 58.4c0 .9.1 1.7.4 2.2.5 1.1 1.5 1.6 2.9 1.6.9 0 1.6-.3 2.3-.9.6-.6 1-1.5 1-2.6 0-1.5-.6-2.5-1.8-3-.7-.3-1.8-.4-3.2-.4v-3.2c1.4 0 2.4-.2 3-.4 1-.4 1.5-1.3 1.5-2.7 0-.9-.3-1.6-.8-2.1s-1.2-.8-2.1-.8c-1 0-1.8.3-2.3 1-.5.7-.7 1.6-.7 2.7h-4.2c0-1.1.2-2.2.6-3.2.4-.9.9-1.7 1.7-2.5.6-.5 1.3-.9 2.1-1.2.8-.3 1.8-.4 3-.4 2.2 0 3.9.6 5.2 1.7 1.3 1.1 2 2.6 2 4.5 0 1.3-.4 2.5-1.2 3.4-.5.6-1 1-1.6 1.2.4 0 1 .3 1.8 1 1.1 1.1 1.7 2.5 1.7 4.3 0 1.9-.7 3.6-2 5.1-1.3 1.5-3.3 2.2-5.9 2.2-3.2 0-5.4-1-6.7-3.1-.7-1.1-1-2.6-1.1-4.4h4.4z"/></g><g fill="#FFF"><path d="M32.088 16.6h-1.2l2.5-3.7-2.4-3.5h1.2l1.8 2.7 1.8-2.7h1.2l-2.4 3.5 2.5 3.7h-1.2l-1.9-2.9-1.9 2.9zM38.788 16.6h-1.2l2.5-3.7-2.4-3.5h1.2l1.8 2.7 1.8-2.7h1.2l-2.4 3.5 2.5 3.7h-1.2l-1.9-2.9-1.9 2.9z"/></g><g fill="#FFF"><path d="M57.088 39.5v-1.7l7.3-2.5-7.3-2.5v-1.7h8.6v1.1h-7.3l7.3 2.5v1.2l-7.3 2.5H65.788v1.1h-8.7zM57.088 30v-1.7l7.3-2.5-7.3-2.5v-1.7h8.6v1.1h-7.3l7.3 2.5v1.2l-7.3 2.5H65.788V30h-8.7zM57.488 15.1h.9c.3.3.7.6 1.4 1.1s1.3.8 2.1 1.2c.7.3 1.4.6 2 .8.4.1 1 .3 1.9.4v1.2c-1.6-.3-3.2-.9-4.8-1.8-.9-.5-1.7-1.1-2.4-1.7v4.6h-1.1v-5.8z"/></g></svg>