<svg version="1.2" baseProfile="tiny" xmlns="http://www.w3.org/2000/svg" viewBox="0 0 75 75" overflow="visible" xml:space="preserve"><path fill="#278C43" d="M-74.993.03h75v75h-75v-75z"/><path fill="#278C43" d="M.007.03h75v75h-75v-75z"/><path fill="#FFF" d="M22.888 18.3h29.4v19.6h-29.4V18.3zm27.7 18V19.9h-26.2v16.4h26.2zm-13-5.3c-1.6 0-2.9-1.3-2.9-2.9s1.3-2.9 2.9-2.9 2.9 1.3 2.9 2.9-1.3 2.9-2.9 2.9z"/><g fill="#FFF"><path d="M20.788 59.3c.2 1 .5 1.7 1 2.2.5.5 1.2.8 2.2.8 1.1 0 1.9-.4 2.5-1.2.6-.8.9-1.8.9-2.9 0-1.2-.3-2.1-.8-2.9s-1.4-1.2-2.5-1.2c-.5 0-1 .1-1.4.2-.7.2-1.2.7-1.6 1.4l-4-.2 1.6-12.5h12.5v3.8h-9.3l-.8 5c.7-.4 1.2-.7 1.6-.9.6-.2 1.4-.4 2.4-.4 1.9 0 3.5.6 4.9 1.9 1.4 1.3 2.1 3.1 2.1 5.5 0 2.1-.7 4-2 5.6-1.3 1.6-3.4 2.5-6 2.5-2.2 0-3.9-.6-5.3-1.7-1.4-1.2-2.2-2.8-2.3-4.9h4.3zM33.088 54.3h8.7v4.2h-8.7v-4.2zM47.188 58.4c0 .9.1 1.7.4 2.2.5 1.1 1.5 1.6 2.9 1.6.9 0 1.6-.3 2.3-.9.6-.6 1-1.5 1-2.6 0-1.5-.6-2.5-1.8-3-.7-.3-1.8-.4-3.2-.4v-3.2c1.4 0 2.4-.2 3-.4 1-.4 1.5-1.3 1.5-2.7 0-.9-.3-1.6-.8-2.1s-1.2-.8-2.1-.8c-1 0-1.8.3-2.3 1-.5.7-.7 1.6-.7 2.7h-4.2c0-1.1.2-2.2.6-3.2.4-.9.9-1.7 1.7-2.5.6-.5 1.3-.9 2.1-1.2.8-.3 1.8-.4 3-.4 2.2 0 3.9.6 5.2 1.7 1.3 1.1 2 2.6 2 4.5 0 1.3-.4 2.5-1.2 3.4-.5.6-1 1-1.6 1.2.4 0 1 .3 1.8 1 1.1 1.1 1.7 2.5 1.7 4.3 0 1.9-.7 3.6-2 5.1-1.3 1.5-3.3 2.2-5.9 2.2-3.2 0-5.4-1-6.7-3.1-.7-1.1-1-2.6-1.1-4.4h4.4z"/></g><g fill="#FFF"><path d="m57.088 34.2 7.3-2.5-7.3-2.4V28l8.6 3.1v1.2l-8.6 3.1v-1.2zM57.088 27.1v-1.2h8.6v1.2h-8.6zM57.088 24.3v-1.2h8.6v1.2h-8.6zM57.088 21.5v-1.2h8.6v1.2h-8.6z"/></g></svg>