<?xml version="1.0" encoding="utf-8"?>
<!-- Generator: Adobe Illustrator 26.0.3, SVG Export Plug-In . SVG Version: 6.00 Build 0)  -->
<svg version="1.2" baseProfile="tiny" xmlns="http://www.w3.org/2000/svg" xmlns:xlink="http://www.w3.org/1999/xlink" x="0px"
	 y="0px" viewBox="0 0 75 75" overflow="visible" xml:space="preserve">
<g id="svg">
	<g>
		<g id="cs_layer_CNA_0002_00000023283088047694392320000015410210321053132443_">
			<g id="g169366_00000060018564281457370690000011209304467157080227_">
			</g>
			<g id="IT_IT_201BRS_-_1CCNN_309_00000124855408456320943880000007776188788976542885_" transform="translate(1462.5,262.5)">
				<g id="g171926_00000043422905120171735940000001205149998931354534_" transform="translate(-450,-1500)">
					
						<rect id="rect171924_00000181803657526505419960000010834950459932540086_" x="-1012.5" y="1237.5" fill="#010101" width="75" height="75"/>
				</g>
				<g id="g171945_00000045600302954021497790000012469672312542995356_" transform="translate(229.688,-150)">
					
						<rect id="rect171928_00000125575237733232074830000003943841071949146540_" x="-1692.2" y="-93.8" fill="#8C471F" width="75" height="18.8"/>
					<g>
						<path fill="#FDD700" d="M-1626.5-92.9v17h-26.5v-17H-1626.5z M-1651.6-91.5v13.4l22.3-13.4H-1651.6z M-1642.3-80.9
							c0-0.5,0.1-0.9,0.3-1.3l-8.2,4.9h11.4C-1640.7-77.3-1642.3-78.9-1642.3-80.9z M-1636.6-80.9c0-1.2-1-2.2-2.2-2.2
							c-1.2,0-2.2,1-2.2,2.2c0,0,0,0,0,0c0,1.2,1,2.2,2.2,2.2S-1636.6-79.7-1636.6-80.9z M-1638.7-77.3h7c-1.9,0-3.5-1.6-3.5-3.6
							C-1635.1-78.9-1636.7-77.3-1638.7-77.3z M-1628-80.9v-9.8l-10.4,6.2c1.8,0.2,3.2,1.7,3.2,3.5c0-2,1.6-3.6,3.6-3.6c0,0,0,0,0,0
							C-1629.6-84.5-1628-82.9-1628-80.9z M-1631.6-78.7c1.2,0,2.2-1,2.2-2.2s-1-2.2-2.2-2.2c-1.2,0-2.2,1-2.2,2.2c0,0,0,0,0,0
							C-1633.7-79.7-1632.7-78.7-1631.6-78.7z M-1628-80.9c0,2-1.6,3.5-3.5,3.6h3.5V-80.9z"/>
					</g>
					<g>
						<path fill="#FDD700" d="M-1678.4-59.2v-1.4c3.7-5.1,4.7-6,4.7-8.2c0-1-0.5-1.7-1.5-1.7c-1.2,0-1.5,1-1.5,2h-1.7
							c-0.1-2.1,0.9-3.4,3-3.4c2.3,0,3.3,1,3.3,3.3c0,2.8-1.4,3.7-4.6,8h5v1.4H-1678.4z"/>
						<path fill="#FDD700" d="M-1663.8-65.4c0,3.3,0,6.5-3.4,6.5c-3.4,0-3.4-3.2-3.4-6.5c0-3.4-0.1-6.5,3.4-6.5
							C-1663.8-71.9-1663.8-68.8-1663.8-65.4z M-1668.9-65.1c0,2.1-0.1,4.8,1.7,4.8c1.8,0,1.7-2.6,1.7-4.8c0-3.4,0-5.4-1.7-5.4
							C-1668.9-70.6-1668.9-68.5-1668.9-65.1z"/>
						<path fill="#FDD700" d="M-1658-59.2h-1.7v-10.7l-1.9,1.3v-1.6c0.4-0.2,1.6-1.1,2.1-1.5h1.4V-59.2z"/>
						<path fill="#FDD700" d="M-1653.6-59.2v-13h4.2c1.8,0,2.4,0.6,2.9,1.3c0.5,0.7,0.5,1.5,0.5,1.7c0,1.6-0.6,2.7-2.2,3.1v0.1
							c1.9,0.2,2.7,1.3,2.7,3.1c0,3.3-2.4,3.7-3.9,3.7H-1653.6z M-1651.9-66.8h2.4c1.3,0,1.9-0.8,1.9-2.1c0-1.1-0.6-2-2-2h-2.3
							V-66.8z M-1651.9-60.7h2.3c1.8,0,2.4-1.3,2.4-2.2c0-2.1-1.3-2.4-3-2.4h-1.8V-60.7z"/>
						<path fill="#FDD700" d="M-1641.4-67L-1641.4-67c0.6-1.4,1.4-1.5,2.8-1.5v1.5c-0.1,0-0.3,0-0.4-0.1c-0.1,0-0.3,0-0.4,0
							c-1.6,0-2.1,1.2-2.1,2.5v5.4h-1.5v-9.1h1.5V-67z"/>
						<path fill="#FDD700" d="M-1634.2-59.1c-2,0-3.2-0.9-3.1-3h1.7c0,0.5,0,1.7,1.5,1.7c0.9,0,1.6-0.5,1.6-1.4
							c0-1.6-4.5-1.7-4.5-4.4c0-1,0.6-2.5,3.1-2.5c1.6,0,3,0.8,2.9,2.6h-1.6c0-1-0.5-1.5-1.4-1.5c-0.8,0-1.4,0.4-1.4,1.2
							c0,1.6,4.5,1.6,4.5,4.3C-1631.1-59.8-1632.4-59.1-1634.2-59.1z"/>
					</g>
					<g>
						<path fill="#FDD700" d="M-1640.9-103.2h1v7.2h-1V-103.2z"/>
					</g>
					<g>
						<path fill="#FDD700" d="M-1663-88.6c-0.7,0.6-1.8,1.2-2.6,1.6v-1.6c1-0.5,2.1-1.2,2.7-1.7h1.4v11.1h-1.5V-88.6z"/>
					</g>
					<g>
						<path fill="#FDD700" d="M-1669.8-47.2h-1.1v-7.1l-1.2,0.8v-1.1c0.3-0.1,1.1-0.7,1.4-1h0.9V-47.2z"/>
						<path fill="#FDD700" d="M-1660.5-53.4c0-0.5,0-1-0.3-1.3c-0.2-0.3-0.7-0.4-1-0.4c-0.9,0-1.3,0.6-1.3,0.7
							c0,0.1-0.3,0.3-0.3,1.8v2.3c0,2.1,0.7,2.4,1.5,2.4c0.3,0,1.4-0.1,1.4-1.8h1.1c0,2.7-1.9,2.7-2.4,2.7c-1.1,0-2.7-0.1-2.7-3.4
							v-2.4c0-2.4,1.1-3.1,2.8-3.1c1.7,0,2.4,0.9,2.3,2.6H-1660.5z"/>
						<path fill="#FDD700" d="M-1653.8-53.4c0-0.5,0-1-0.3-1.3c-0.2-0.3-0.7-0.4-1-0.4c-0.9,0-1.3,0.6-1.3,0.7
							c0,0.1-0.3,0.3-0.3,1.8v2.3c0,2.1,0.7,2.4,1.5,2.4c0.3,0,1.4-0.1,1.4-1.8h1.1c0,2.7-1.9,2.7-2.4,2.7c-1.1,0-2.7-0.1-2.7-3.4
							v-2.4c0-2.4,1.1-3.1,2.8-3.1c1.7,0,2.4,0.9,2.3,2.6H-1653.8z"/>
						<path fill="#FDD700" d="M-1645-55.8v8.7h-1.5l-3.4-7.5h0v7.5h-1v-8.7h1.6l3.4,7.4h0v-7.4H-1645z"/>
						<path fill="#FDD700" d="M-1637-55.8v8.7h-1.5l-3.4-7.5h0v7.5h-1v-8.7h1.6l3.4,7.4h0v-7.4H-1637z"/>
					</g>
				</g>
			</g>
			<g id="IT_IT_129_-_219-1CN_310_00000127016917360030871510000017728528204818382500_" transform="translate(1537.5,262.5)">
				<g id="g171950_00000116940055252699913610000015544237947285200830_" transform="translate(-450,-1500)">
					
						<rect id="rect171948_00000060011008766277720870000014017449042618167424_" x="-1012.5" y="1237.5" fill="#010101" width="75" height="75"/>
				</g>
			</g>
		</g>
	</g>
</g>
<g id="text" display="none">
	
		<rect id="frontbox" x="-1462.5" y="-262.5" display="inline" fill="none" stroke="#000000" stroke-miterlimit="10" width="1650" height="1275"/>
	<g id="align" display="inline">
	</g>
</g>
<g id="crop" display="none">
	<g id="front" display="inline">
		<g>
			<line fill="none" stroke="#939598" stroke-miterlimit="10" x1="-609.4" y1="0" x2="159.4" y2="0"/>
			<line fill="none" stroke="#939598" stroke-miterlimit="10" x1="-609.4" y1="75" x2="159.4" y2="75"/>
			<line fill="none" stroke="#939598" stroke-miterlimit="10" x1="0" y1="-9.4" x2="0" y2="159.4"/>
			<line fill="none" stroke="#939598" stroke-miterlimit="10" x1="75" y1="-9.4" x2="75" y2="159.4"/>
		</g>
	</g>
</g>
<g id="guides" display="none">
</g>
</svg>
