<?xml version="1.0" encoding="utf-8"?>
<!-- Generator: Adobe Illustrator 26.0.3, SVG Export Plug-In . SVG Version: 6.00 Build 0)  -->
<svg version="1.2" baseProfile="tiny" xmlns="http://www.w3.org/2000/svg" xmlns:xlink="http://www.w3.org/1999/xlink" x="0px"
	 y="0px" viewBox="0 0 75 75" overflow="visible" xml:space="preserve">
<g id="svg">
	<g>
		<g id="cs_layer_CNA_0002_00000023283088047694392320000015410210321053132443_">
			<g id="g169366_00000060018564281457370690000011209304467157080227_">
			</g>
			<g id="IT_IT_56_-_NONE_307_00000158738409913362303420000017256961925135128980_" transform="translate(1312.5,262.5)">
				<g id="g171882_00000168075820203865521360000011440420242189556662_" transform="translate(-450,-1500)">
					
						<rect id="rect171880_00000062896081340189236650000009494994198115017611_" x="-862.5" y="1237.5" fill="#010101" width="75" height="75"/>
				</g>
				<g id="g171899_00000018934018220805408970000006699447616725009325_" transform="translate(229.688,-150)">
					<g>
						<path fill="#FDD700" d="M-1476.5-92.9v17h-26.5v-17H-1476.5z M-1501.6-90.7v12.5l10.4-6.3L-1501.6-90.7z M-1479.3-91.5h-20.9
							l10.4,6.3L-1479.3-91.5z M-1500.2-77.3h20.9l-10.4-6.3L-1500.2-77.3z M-1488.4-84.4l10.4,6.3v-12.5L-1488.4-84.4z"/>
					</g>
					<g>
						<path fill="#FDD700" d="M-1505.8-71.7v1.4h-4.2v3.6l0,0c0.3-0.5,1.1-0.9,2-0.9c1.8,0,2.6,1.3,2.6,4.2c0,2-0.3,4.4-3.4,4.4
							c-2.6,0-3.1-1.4-3.1-3.1h1.7c0,1,0.4,1.9,1.5,1.9c1.6,0,1.7-1.5,1.7-2.8c0-1.8-0.1-3.2-1.6-3.2c-0.9,0-1.4,0.6-1.5,1.5h-1.5
							v-7H-1505.8z"/>
						<path fill="#FDD700" d="M-1504-65.4c0-3.4-0.1-6.5,3.4-6.5c1.9,0,3.2,1.2,3.1,3h-1.7c0-0.9-0.5-1.8-1.5-1.8
							c-1.4,0-1.7,1.2-1.7,4.5h0c0.4-0.7,1.2-1.2,2-1.2c1.6,0,3,0.9,3,4.2c0,2.2-0.9,4.2-3.3,4.2C-1504.1-59-1504-62.2-1504-65.4z
							 M-1500.6-60.4c1.4,0,1.6-1.5,1.6-3.1c0-1.1-0.3-2.5-1.7-2.5c-1.5,0-1.7,1.6-1.7,2.7C-1502.4-62.1-1502.2-60.4-1500.6-60.4z"
							/>
					</g>
					<g>
						<path fill="#FDD700" d="M-1492.3-103.2h1v7.2h-1V-103.2z"/>
						<path fill="#FDD700" d="M-1489.6-103.2h1v7.2h-1V-103.2z"/>
					</g>
					<g>
						<path fill="#FDD700" d="M-1518.2-90.6c3.3,0,3.7,3.6,3.7,5.6c0,2.6-0.5,4.1-1.5,5c-0.8,0.7-1.7,0.8-2.2,0.8
							c-1.5,0-2.5-0.9-3-1.8c-0.4-0.7-0.7-1.8-0.7-3.8C-1521.9-86.3-1521.7-90.6-1518.2-90.6z M-1518.2-80.4c1.9,0,2.2-2.4,2.2-4.4
							c0-2.7-0.5-4.5-2.1-4.5c-1.9,0-2.2,2.5-2.2,4.5C-1520.4-82.3-1519.9-80.4-1518.2-80.4z"/>
						<path fill="#FDD700" d="M-1511.5-91.3c0.9,2.1,1.9,4.8,1.9,7.1c0,1.3-0.3,2.5-0.7,3.7c-0.4,1.4-0.9,2.5-1.1,3.2h-1.1
							c0.3-0.8,0.6-1.9,0.9-3.4c0.3-1.5,0.4-2.5,0.4-3.5c0-2.3-0.6-4.1-1.5-7.1H-1511.5z"/>
					</g>
					<g>
						<path fill="#FDD700" d="M-1507.9-50.9h2.6v0.9h-2.6V-50.9z"/>
						<path fill="#FDD700" d="M-1503.9-50.9h2.6v0.9h-2.6V-50.9z"/>
					</g>
				</g>
			</g>
			<g id="IT_IT_140_-_NONE_308_00000037675191917721796350000016770770783197612724_" transform="translate(1387.5,262.5)">
				<g id="g171904_00000158022674123655254090000016739550513483827126_" transform="translate(-450,-1500)">
					
						<rect id="rect171902_00000080206767794783291930000018397751139028797872_" x="-862.5" y="1237.5" fill="#010101" width="75" height="75"/>
				</g>
			</g>
		</g>
	</g>
</g>
<g id="text" display="none">
	
		<rect id="frontbox" x="-1312.5" y="-262.5" display="inline" fill="none" stroke="#000000" stroke-miterlimit="10" width="1650" height="1275"/>
	<g id="align" display="inline">
	</g>
</g>
<g id="crop" display="none">
	<g id="front" display="inline">
		<g>
			<line fill="none" stroke="#939598" stroke-miterlimit="10" x1="-459.4" y1="0" x2="309.4" y2="0"/>
			<line fill="none" stroke="#939598" stroke-miterlimit="10" x1="-459.4" y1="75" x2="309.4" y2="75"/>
			<line fill="none" stroke="#939598" stroke-miterlimit="10" x1="0" y1="-9.4" x2="0" y2="159.4"/>
			<line fill="none" stroke="#939598" stroke-miterlimit="10" x1="75" y1="-9.4" x2="75" y2="159.4"/>
		</g>
	</g>
</g>
<g id="guides" display="none">
</g>
</svg>
