<?xml version="1.0" encoding="utf-8"?>
<!-- Generator: Adobe Illustrator 26.0.3, SVG Export Plug-In . SVG Version: 6.00 Build 0)  -->
<svg version="1.2" baseProfile="tiny" xmlns="http://www.w3.org/2000/svg" xmlns:xlink="http://www.w3.org/1999/xlink" x="0px"
	 y="0px" viewBox="0 0 75 75" overflow="visible" xml:space="preserve">
<g id="svg">
	<g>
		<g id="cs_layer_CNA_0002_00000023283088047694392320000015410210321053132443_">
			<g id="g169366_00000060018564281457370690000011209304467157080227_">
			</g>
			<g id="IT_IT_33_-_NONE_306_00000176765923641756951550000016403320155474820001_" transform="translate(1237.5,262.5)">
				<g id="g171860_00000156575664949030891870000004783417986590408861_" transform="translate(-450,-1500)">
					
						<rect id="rect171858_00000141421489512583613350000011789118205639653774_" x="-787.5" y="1237.5" fill="#010101" width="75" height="75"/>
				</g>
				<g id="g171877_00000047760495268570626590000001506276355540431031_" transform="translate(229.688,-150)">
					<g>
						<path fill="#FDD700" d="M-1401.5-92.9v17h-26.5v-17H-1401.5z M-1426.6-90.7v12.5l10.4-6.3L-1426.6-90.7z M-1404.3-91.5h-20.9
							l10.4,6.3L-1404.3-91.5z M-1425.2-77.3h20.9l-10.4-6.3L-1425.2-77.3z M-1413.4-84.4l10.4,6.3v-12.5L-1413.4-84.4z"/>
					</g>
					<g>
						<path fill="#FDD700" d="M-1434.6-66.5c1.5,0.1,2.6-0.5,2.6-2.1c0-1.1-0.5-2-1.7-2c-1.4,0-1.6,1-1.6,2h-1.7
							c-0.1-2.1,0.9-3.4,3.2-3.4c2.1,0,3.4,1.1,3.4,3.2c0,2.4-1.7,2.7-2.5,2.9v0c2,0.3,2.6,1.3,2.6,3.2c0,2.4-1.3,3.6-3.7,3.6
							c-3.5,0-3.2-3-3.2-3.7h1.7c0,1.2,0.2,2.3,1.7,2.3c1.5,0,1.9-0.9,1.9-2.3c0-2-0.8-2.4-2.7-2.4V-66.5z"/>
						<path fill="#FDD700" d="M-1426.6-66.5c1.5,0.1,2.6-0.5,2.6-2.1c0-1.1-0.5-2-1.7-2c-1.4,0-1.6,1-1.6,2h-1.7
							c-0.1-2.1,0.9-3.4,3.2-3.4c2.1,0,3.4,1.1,3.4,3.2c0,2.4-1.7,2.7-2.5,2.9v0c2,0.3,2.6,1.3,2.6,3.2c0,2.4-1.3,3.6-3.7,3.6
							c-3.5,0-3.2-3-3.2-3.7h1.7c0,1.2,0.2,2.3,1.7,2.3c1.5,0,1.9-0.9,1.9-2.3c0-2-0.8-2.4-2.7-2.4V-66.5z"/>
					</g>
					<g>
						<path fill="#FDD700" d="M-1417.3-103.2h1v7.2h-1V-103.2z"/>
						<path fill="#FDD700" d="M-1414.6-103.2h1v7.2h-1V-103.2z"/>
					</g>
					<g>
						<path fill="#FDD700" d="M-1438-88.6c-0.7,0.6-1.8,1.2-2.6,1.6v-1.6c1-0.5,2.1-1.2,2.7-1.7h1.4v11.1h-1.5V-88.6z"/>
					</g>
					<g>
						<path fill="#FDD700" d="M-1432.9-50.9h2.6v0.9h-2.6V-50.9z"/>
						<path fill="#FDD700" d="M-1428.9-50.9h2.6v0.9h-2.6V-50.9z"/>
					</g>
				</g>
			</g>
			<g id="IT_IT_56_-_NONE_307_00000158738409913362303420000017256961925135128980_" transform="translate(1312.5,262.5)">
				<g id="g171882_00000168075820203865521360000011440420242189556662_" transform="translate(-450,-1500)">
					
						<rect id="rect171880_00000062896081340189236650000009494994198115017611_" x="-787.5" y="1237.5" fill="#010101" width="75" height="75"/>
				</g>
			</g>
		</g>
	</g>
</g>
<g id="text" display="none">
	
		<rect id="frontbox" x="-1237.5" y="-262.5" display="inline" fill="none" stroke="#000000" stroke-miterlimit="10" width="1650" height="1275"/>
	<g id="align" display="inline">
	</g>
</g>
<g id="crop" display="none">
	<g id="front" display="inline">
		<g>
			<line fill="none" stroke="#939598" stroke-miterlimit="10" x1="-384.4" y1="0" x2="384.4" y2="0"/>
			<line fill="none" stroke="#939598" stroke-miterlimit="10" x1="-384.4" y1="75" x2="384.4" y2="75"/>
			<line fill="none" stroke="#939598" stroke-miterlimit="10" x1="0" y1="-9.4" x2="0" y2="159.4"/>
			<line fill="none" stroke="#939598" stroke-miterlimit="10" x1="75" y1="-9.4" x2="75" y2="159.4"/>
		</g>
	</g>
</g>
<g id="guides" display="none">
</g>
</svg>
