<?xml version="1.0" encoding="utf-8"?>
<!-- Generator: Adobe Illustrator 26.0.3, SVG Export Plug-In . SVG Version: 6.00 Build 0)  -->
<svg version="1.2" baseProfile="tiny" xmlns="http://www.w3.org/2000/svg" xmlns:xlink="http://www.w3.org/1999/xlink" x="0px"
	 y="0px" viewBox="0 0 75 75" overflow="visible" xml:space="preserve">
<g id="svg">
	<g>
		<g id="cs_layer_CNA_0002_00000023283088047694392320000015410210321053132443_">
			<g id="g169366_00000060018564281457370690000011209304467157080227_">
			</g>
			<g id="IT_IT_138_-_238-2CN_319_00000163777179777428837330000017714752289245641629_" transform="translate(1462.5,337.5)">
				<g id="g172148_00000017490387793519040870000006826815732159592356_" transform="translate(-450,-1500)">
					
						<rect id="rect172146_00000080168008059367873470000000696484671973731730_" x="-1012.5" y="1162.5" fill="#010101" width="75" height="75"/>
				</g>
				<g id="g172165_00000058591250053137640600000017822111606107542691_" transform="translate(229.688,-150)">
					<g>
						<path fill="#FDD700" d="M-1626.5-167.9v17h-26.5v-17H-1626.5z M-1651.6-165.7v12.5l10.4-6.3L-1651.6-165.7z M-1629.3-166.5
							h-20.9l10.4,6.3L-1629.3-166.5z M-1650.2-152.3h20.9l-10.4-6.3L-1650.2-152.3z M-1638.4-159.4l10.4,6.3v-12.5L-1638.4-159.4z"
							/>
					</g>
					<g>
						<path fill="#FDD700" d="M-1661.5-134.2h-1.7v-10.7l-1.9,1.3v-1.6c0.4-0.2,1.6-1.1,2.1-1.5h1.4V-134.2z"/>
						<path fill="#FDD700" d="M-1655.6-141.5c1.5,0.1,2.6-0.5,2.6-2.1c0-1.1-0.5-2-1.7-2c-1.4,0-1.6,1-1.6,2h-1.7
							c-0.1-2.1,0.9-3.4,3.2-3.4c2.1,0,3.4,1.1,3.4,3.2c0,2.4-1.7,2.7-2.5,2.9v0c2,0.3,2.6,1.3,2.6,3.2c0,2.4-1.3,3.6-3.7,3.6
							c-3.5,0-3.2-3-3.2-3.7h1.7c0,1.2,0.2,2.3,1.7,2.3c1.5,0,1.9-0.9,1.9-2.3c0-2-0.8-2.4-2.7-2.4V-141.5z"/>
						<path fill="#FDD700" d="M-1645.7-140.9c1.8,0.2,2.3,1.6,2.3,3.2c0,2.3-1.2,3.6-3.3,3.6s-3.3-1.4-3.3-3.6
							c0-1.6,0.5-3.1,2.3-3.2v0c-1.5-0.3-2.2-1.5-2.2-2.9c0-2,1.2-3.1,3.2-3.1c2,0,3.2,1.2,3.2,3.1
							C-1643.5-142.4-1644.2-141.2-1645.7-140.9L-1645.7-140.9z M-1645-137.6c0-1.1-0.1-2.6-1.7-2.6c-1.5,0-1.7,1.4-1.7,2.6
							c0,1.1,0.4,2.2,1.7,2.2C-1645.5-135.4-1645-136.5-1645-137.6z M-1645.1-143.9c0-0.9-0.5-1.9-1.5-1.9c-1.1,0-1.5,0.9-1.5,1.9
							c0,0.9,0.3,2.3,1.5,2.3C-1645.5-141.6-1645.1-142.9-1645.1-143.9z"/>
					</g>
					<g>
						<path fill="#FDD700" d="M-1642.3-178.2h1v7.2h-1V-178.2z"/>
						<path fill="#FDD700" d="M-1639.6-178.2h1v7.2h-1V-178.2z"/>
					</g>
					<g>
						<path fill="#FDD700" d="M-1663-163.6c-0.7,0.6-1.8,1.2-2.6,1.6v-1.6c1-0.5,2.1-1.2,2.7-1.7h1.4v11.1h-1.5V-163.6z"/>
					</g>
					<g>
						<path fill="#FDD700" d="M-1673.8-122.2v-1c2.4-3.4,3.2-4,3.2-5.5c0-0.7-0.3-1.1-1-1.1c-0.8,0-1,0.7-1,1.4h-1.1
							c-0.1-1.4,0.6-2.3,2-2.3c1.5,0,2.2,0.7,2.2,2.2c0,1.9-0.9,2.5-3.1,5.3h3.3v1H-1673.8z"/>
						<path fill="#FDD700" d="M-1666.9-127c1,0.1,1.7-0.3,1.7-1.4c0-0.8-0.3-1.3-1.2-1.3c-0.9,0-1.1,0.7-1,1.4h-1.1
							c-0.1-1.4,0.6-2.3,2.1-2.3c1.4,0,2.3,0.7,2.3,2.2c0,1.6-1.2,1.8-1.6,1.9v0c1.3,0.2,1.7,0.9,1.7,2.1c0,1.6-0.9,2.4-2.5,2.4
							c-2.3,0-2.1-2-2.1-2.5h1.1c0,0.8,0.1,1.5,1.1,1.5c1,0,1.3-0.6,1.3-1.5c0-1.3-0.5-1.6-1.8-1.6V-127z"/>
						<path fill="#FDD700" d="M-1660.3-126.6c1.2,0.1,1.5,1.1,1.5,2.2c0,1.5-0.8,2.4-2.2,2.4s-2.2-0.9-2.2-2.4c0-1.1,0.3-2,1.5-2.2
							v0c-1-0.2-1.5-1-1.5-2c0-1.3,0.8-2.1,2.1-2.1c1.3,0,2.1,0.8,2.1,2.1C-1658.8-127.6-1659.3-126.8-1660.3-126.6L-1660.3-126.6z
							 M-1659.9-124.4c0-0.7-0.1-1.7-1.1-1.7s-1.1,1-1.1,1.7c0,0.7,0.3,1.5,1.1,1.5C-1660.1-122.9-1659.9-123.7-1659.9-124.4z
							 M-1659.9-128.6c0-0.6-0.3-1.2-1-1.2c-0.7,0-1,0.6-1,1.2c0,0.6,0.2,1.5,1,1.5C-1660.1-127.1-1659.9-128-1659.9-128.6z"/>
						<path fill="#FDD700" d="M-1657.8-121h-0.8l2.8-9.8h0.8L-1657.8-121z"/>
						<path fill="#FDD700" d="M-1654.4-122.2v-1c2.4-3.4,3.2-4,3.2-5.5c0-0.7-0.3-1.1-1-1.1c-0.8,0-1,0.7-1,1.4h-1.1
							c-0.1-1.4,0.6-2.3,2-2.3c1.5,0,2.2,0.7,2.2,2.2c0,1.9-0.9,2.5-3.1,5.3h3.3v1H-1654.4z"/>
						<path fill="#FDD700" d="M-1644.9-128.4c0-0.5,0-1-0.3-1.3c-0.2-0.3-0.7-0.4-1-0.4c-0.9,0-1.3,0.6-1.3,0.7
							c0,0.1-0.3,0.3-0.3,1.8v2.3c0,2.1,0.7,2.4,1.5,2.4c0.3,0,1.4-0.1,1.4-1.8h1.1c0,2.7-1.9,2.7-2.4,2.7c-1.1,0-2.7-0.1-2.7-3.4
							v-2.4c0-2.4,1.1-3.1,2.8-3.1c1.7,0,2.4,0.9,2.3,2.6H-1644.9z"/>
						<path fill="#FDD700" d="M-1636-130.8v8.7h-1.5l-3.4-7.5h0v7.5h-1v-8.7h1.6l3.4,7.4h0v-7.4H-1636z"/>
					</g>
				</g>
			</g>
			<g id="IT_IT_140_-_238-2CN_320_00000181052215203185469650000017150691625274531218_" transform="translate(1537.5,337.5)">
				<g id="g172170_00000021087707596945593120000011281128601717820840_" transform="translate(-450,-1500)">
					
						<rect id="rect172168_00000065756813944756984220000009254627474986854067_" x="-1012.5" y="1162.5" fill="#010101" width="75" height="75"/>
				</g>
			</g>
		</g>
	</g>
</g>
<g id="text" display="none">
	
		<rect id="frontbox" x="-1462.5" y="-337.5" display="inline" fill="none" stroke="#000000" stroke-miterlimit="10" width="1650" height="1275"/>
	<g id="align" display="inline">
	</g>
</g>
<g id="crop" display="none">
	<g id="front" display="inline">
		<g>
			<line fill="none" stroke="#939598" stroke-miterlimit="10" x1="-609.4" y1="0" x2="159.4" y2="0"/>
			<line fill="none" stroke="#939598" stroke-miterlimit="10" x1="-609.4" y1="75" x2="159.4" y2="75"/>
			<line fill="none" stroke="#939598" stroke-miterlimit="10" x1="0" y1="-84.4" x2="0" y2="84.4"/>
			<line fill="none" stroke="#939598" stroke-miterlimit="10" x1="75" y1="-84.4" x2="75" y2="84.4"/>
		</g>
	</g>
</g>
<g id="guides" display="none">
</g>
</svg>
