<?xml version="1.0" encoding="utf-8"?>
<!-- Generator: Adobe Illustrator 26.0.3, SVG Export Plug-In . SVG Version: 6.00 Build 0)  -->
<svg version="1.2" baseProfile="tiny" xmlns="http://www.w3.org/2000/svg" xmlns:xlink="http://www.w3.org/1999/xlink" x="0px"
	 y="0px" viewBox="0 0 75 75" overflow="visible" xml:space="preserve">
<g id="svg">
	<g>
		<g id="cs_layer_CNA_0002_00000023283088047694392320000015410210321053132443_">
			<g id="g169366_00000060018564281457370690000011209304467157080227_">
			</g>
			<g id="IT_IT_118_-_233-1CN_315_00000115490841163415149040000017618027151333209504_" transform="translate(1162.5,337.5)">
				<g id="g172060_00000139977841874877722070000009554434350179590840_" transform="translate(-450,-1500)">
					
						<rect id="rect172058_00000108271636599898058520000004006143571215101594_" x="-712.5" y="1162.5" fill="#010101" width="75" height="75"/>
				</g>
				<g id="g172077_00000086686060698882465550000013725803414674333328_" transform="translate(229.688,-150)">
					<g>
						<path fill="#FDD700" d="M-1326.5-167.9v17h-26.5v-17H-1326.5z M-1351.6-165.7v12.5l10.4-6.3L-1351.6-165.7z M-1329.3-166.5
							h-20.9l10.4,6.3L-1329.3-166.5z M-1350.2-152.3h20.9l-10.4-6.3L-1350.2-152.3z M-1338.4-159.4l10.4,6.3v-12.5L-1338.4-159.4z"
							/>
					</g>
					<g>
						<path fill="#FDD700" d="M-1361.5-134.2h-1.7v-10.7l-1.9,1.3v-1.6c0.4-0.2,1.6-1.1,2.1-1.5h1.4V-134.2z"/>
						<path fill="#FDD700" d="M-1353.5-134.2h-1.7v-10.7l-1.9,1.3v-1.6c0.4-0.2,1.6-1.1,2.1-1.5h1.4V-134.2z"/>
						<path fill="#FDD700" d="M-1345.7-140.9c1.8,0.2,2.3,1.6,2.3,3.2c0,2.3-1.2,3.6-3.3,3.6s-3.3-1.4-3.3-3.6
							c0-1.6,0.5-3.1,2.3-3.2v0c-1.5-0.3-2.2-1.5-2.2-2.9c0-2,1.2-3.1,3.2-3.1c2,0,3.2,1.2,3.2,3.1
							C-1343.5-142.4-1344.2-141.2-1345.7-140.9L-1345.7-140.9z M-1345-137.6c0-1.1-0.1-2.6-1.7-2.6c-1.5,0-1.7,1.4-1.7,2.6
							c0,1.1,0.4,2.2,1.7,2.2C-1345.5-135.4-1345-136.5-1345-137.6z M-1345.1-143.9c0-0.9-0.5-1.9-1.5-1.9c-1.1,0-1.5,0.9-1.5,1.9
							c0,0.9,0.3,2.3,1.5,2.3C-1345.5-141.6-1345.1-142.9-1345.1-143.9z"/>
					</g>
					<g>
						<path fill="#FDD700" d="M-1342.3-178.2h1v7.2h-1V-178.2z"/>
						<path fill="#FDD700" d="M-1339.6-178.2h1v7.2h-1V-178.2z"/>
					</g>
					<g>
						<path fill="#FDD700" d="M-1363-163.6c-0.7,0.6-1.8,1.2-2.6,1.6v-1.6c1-0.5,2.1-1.2,2.7-1.7h1.4v11.1h-1.5V-163.6z"/>
					</g>
					<g>
						<path fill="#FDD700" d="M-1370.8-122.2v-1c2.4-3.4,3.2-4,3.2-5.5c0-0.7-0.3-1.1-1-1.1c-0.8,0-1,0.7-1,1.4h-1.1
							c-0.1-1.4,0.6-2.3,2-2.3c1.5,0,2.2,0.7,2.2,2.2c0,1.9-0.9,2.5-3.1,5.3h3.3v1H-1370.8z"/>
						<path fill="#FDD700" d="M-1363.9-127c1,0.1,1.7-0.3,1.7-1.4c0-0.8-0.3-1.3-1.2-1.3c-0.9,0-1.1,0.7-1,1.4h-1.1
							c-0.1-1.4,0.6-2.3,2.1-2.3c1.4,0,2.3,0.7,2.3,2.2c0,1.6-1.2,1.8-1.6,1.9v0c1.3,0.2,1.7,0.9,1.7,2.1c0,1.6-0.9,2.4-2.5,2.4
							c-2.3,0-2.1-2-2.1-2.5h1.1c0,0.8,0.1,1.5,1.1,1.5c1,0,1.3-0.6,1.3-1.5c0-1.3-0.5-1.6-1.8-1.6V-127z"/>
						<path fill="#FDD700" d="M-1358.6-127c1,0.1,1.7-0.3,1.7-1.4c0-0.8-0.3-1.3-1.2-1.3c-0.9,0-1.1,0.7-1,1.4h-1.1
							c-0.1-1.4,0.6-2.3,2.1-2.3c1.4,0,2.3,0.7,2.3,2.2c0,1.6-1.2,1.8-1.6,1.9v0c1.3,0.2,1.7,0.9,1.7,2.1c0,1.6-0.9,2.4-2.5,2.4
							c-2.3,0-2.1-2-2.1-2.5h1.1c0,0.8,0.1,1.5,1.1,1.5c1,0,1.3-0.6,1.3-1.5c0-1.3-0.5-1.6-1.8-1.6V-127z"/>
						<path fill="#FDD700" d="M-1354.3-122.2v-8.7h1.1v7.7h3.2v1H-1354.3z"/>
						<path fill="#FDD700" d="M-1345.9-128.2h1v6.7c0,1.4-0.9,1.7-2.2,1.7c-1,0-1.9-0.5-1.8-1.6h1.1c0,0.6,0.4,0.9,0.9,0.9
							c0.7,0,1.1-0.4,1.1-1v-1.3h0c-0.3,0.5-0.8,0.8-1.3,0.8c-1.6,0-2-1.4-2-3.2c0-2.8,1.4-3,1.9-3c0.6,0,1.1,0.3,1.4,0.9h0V-128.2z
							 M-1347.1-127.5c-1.1,0-1.2,1.3-1.2,2.1c0,1.9,0.4,2.4,1.2,2.4c1.2,0,1.2-1.4,1.2-2.2
							C-1345.9-126.1-1345.8-127.5-1347.1-127.5z"/>
						<path fill="#FDD700" d="M-1339.8-122.2v-4.2c0-0.6-0.2-1.2-1.1-1.2c-1.1,0-1.2,1-1.2,1.8v3.6h-1v-4.8c0-0.4,0-0.8-0.1-1.3h1
							v0.8h0c0.4-0.7,0.8-0.9,1.6-0.9c1.3,0,1.6,0.8,1.6,2v4.2H-1339.8z"/>
					</g>
				</g>
			</g>
			<g id="IT_IT_201_-_1_CCNN__MG__316_00000133495694637662841760000006582773562277877661_" transform="translate(1237.5,337.5)">
				<g id="g172082_00000103943401208478119890000009885504539931205297_" transform="translate(-450,-1500)">
					
						<rect id="rect172080_00000082339437952381057340000016553820098492223931_" x="-712.5" y="1162.5" fill="#010101" width="75" height="75"/>
				</g>
			</g>
		</g>
	</g>
</g>
<g id="text" display="none">
	
		<rect id="frontbox" x="-1162.5" y="-337.5" display="inline" fill="none" stroke="#000000" stroke-miterlimit="10" width="1650" height="1275"/>
	<g id="align" display="inline">
	</g>
</g>
<g id="crop" display="none">
	<g id="front" display="inline">
		<g>
			<line fill="none" stroke="#939598" stroke-miterlimit="10" x1="-309.4" y1="0" x2="459.4" y2="0"/>
			<line fill="none" stroke="#939598" stroke-miterlimit="10" x1="-309.4" y1="75" x2="459.4" y2="75"/>
			<line fill="none" stroke="#939598" stroke-miterlimit="10" x1="0" y1="-84.4" x2="0" y2="84.4"/>
			<line fill="none" stroke="#939598" stroke-miterlimit="10" x1="75" y1="-84.4" x2="75" y2="84.4"/>
		</g>
	</g>
</g>
<g id="guides" display="none">
</g>
</svg>
