<?xml version="1.0" encoding="utf-8"?>
<!-- Generator: Adobe Illustrator 26.0.3, SVG Export Plug-In . SVG Version: 6.00 Build 0)  -->
<svg version="1.2" baseProfile="tiny" xmlns="http://www.w3.org/2000/svg" xmlns:xlink="http://www.w3.org/1999/xlink" x="0px"
	 y="0px" viewBox="0 0 75 75" overflow="visible" xml:space="preserve">
<g id="svg">
	<g>
		<g id="cs_layer_CNA_0002_00000023283088047694392320000015410210321053132443_">
			<g id="g169366_00000060018564281457370690000011209304467157080227_">
			</g>
			<g id="IT_IT_201_-_1_CCNN__ART__317_00000047757257778126324540000006677812070912973709_" transform="translate(1312.5,337.5)">
				<g id="g172104_00000021100699564703289820000004843855960970986685_" transform="translate(-450,-1500)">
					
						<rect id="rect172102_00000139270635709468359830000004130470990285631411_" x="-862.5" y="1162.5" fill="#010101" width="75" height="75"/>
				</g>
				<g id="g172121_00000049916028804548042910000012009866027106816414_" transform="translate(229.688,-150)">
					<g>
						<path fill="#FDD700" d="M-1476.5-167.9v17h-26.5v-17H-1476.5z M-1478-166.5h-23.6v14.2h23.6V-166.5z M-1492.6-159.4
							c0-1.4,1.2-2.6,2.8-2.6s2.8,1.2,2.8,2.6c0,1.4-1.2,2.6-2.8,2.6S-1492.6-158-1492.6-159.4z"/>
					</g>
					<g>
						<path fill="#FDD700" d="M-1515.9-134.2v-1.4c3.7-5.1,4.7-6,4.7-8.2c0-1-0.5-1.7-1.5-1.7c-1.2,0-1.5,1-1.5,2h-1.7
							c-0.1-2.1,0.9-3.4,3-3.4c2.3,0,3.3,1,3.3,3.3c0,2.8-1.4,3.7-4.6,8h5v1.4H-1515.9z"/>
						<path fill="#FDD700" d="M-1501.3-140.4c0,3.3,0,6.5-3.4,6.5s-3.4-3.2-3.4-6.5c0-3.4-0.1-6.5,3.4-6.5
							S-1501.3-143.8-1501.3-140.4z M-1506.4-140.1c0,2.1-0.1,4.8,1.7,4.8c1.8,0,1.7-2.6,1.7-4.8c0-3.4,0-5.4-1.7-5.4
							S-1506.4-143.5-1506.4-140.1z"/>
						<path fill="#FDD700" d="M-1495.5-134.2h-1.7v-10.7l-1.9,1.3v-1.6c0.4-0.2,1.6-1.1,2.1-1.5h1.4V-134.2z"/>
					</g>
					<g>
						<path fill="#FDD700" d="M-1493.7-178.2h1v7.2h-1V-178.2z"/>
						<path fill="#FDD700" d="M-1490.9-178.2h1v7.2h-1V-178.2z"/>
						<path fill="#FDD700" d="M-1488.2-178.2h1v7.2h-1V-178.2z"/>
					</g>
					<g>
						<path fill="#FDD700" d="M-1513-163.6c-0.7,0.6-1.8,1.2-2.6,1.6v-1.6c1-0.5,2.1-1.2,2.7-1.7h1.4v11.1h-1.5V-163.6z"/>
					</g>
					<g>
						<path fill="#FDD700" d="M-1519.8-122.2h-1.1v-7.1l-1.2,0.8v-1.1c0.3-0.1,1.1-0.7,1.4-1h0.9V-122.2z"/>
						<path fill="#FDD700" d="M-1510.5-128.4c0-0.5,0-1-0.3-1.3c-0.2-0.3-0.7-0.4-1-0.4c-0.9,0-1.3,0.6-1.3,0.7
							c0,0.1-0.3,0.3-0.3,1.8v2.3c0,2.1,0.7,2.4,1.5,2.4c0.3,0,1.4-0.1,1.4-1.8h1.1c0,2.7-1.9,2.7-2.4,2.7c-1.1,0-2.7-0.1-2.7-3.4
							v-2.4c0-2.4,1.1-3.1,2.8-3.1c1.7,0,2.4,0.9,2.3,2.6H-1510.5z"/>
						<path fill="#FDD700" d="M-1503.8-128.4c0-0.5,0-1-0.3-1.3c-0.2-0.3-0.7-0.4-1-0.4c-0.9,0-1.3,0.6-1.3,0.7
							c0,0.1-0.3,0.3-0.3,1.8v2.3c0,2.1,0.7,2.4,1.5,2.4c0.3,0,1.4-0.1,1.4-1.8h1.1c0,2.7-1.9,2.7-2.4,2.7c-1.1,0-2.7-0.1-2.7-3.4
							v-2.4c0-2.4,1.1-3.1,2.8-3.1c1.7,0,2.4,0.9,2.3,2.6H-1503.8z"/>
						<path fill="#FDD700" d="M-1495-130.8v8.7h-1.5l-3.4-7.5h0v7.5h-1v-8.7h1.6l3.4,7.4h0v-7.4H-1495z"/>
						<path fill="#FDD700" d="M-1487-130.8v8.7h-1.5l-3.4-7.5h0v7.5h-1v-8.7h1.6l3.4,7.4h0v-7.4H-1487z"/>
					</g>
				</g>
			</g>
			<g id="IT_IT_201_-_1_CCNN__ENG__318_00000085224372696831207060000011417483449824212627_" transform="translate(1387.5,337.5)">
				<g id="g172126_00000082362494613698928690000013121504569884964284_" transform="translate(-450,-1500)">
					
						<rect id="rect172124_00000093876868585485808890000012674378907441197759_" x="-862.5" y="1162.5" fill="#010101" width="75" height="75"/>
				</g>
			</g>
		</g>
	</g>
</g>
<g id="text" display="none">
	
		<rect id="frontbox" x="-1312.5" y="-337.5" display="inline" fill="none" stroke="#000000" stroke-miterlimit="10" width="1650" height="1275"/>
	<g id="align" display="inline">
	</g>
</g>
<g id="crop" display="none">
	<g id="front" display="inline">
		<g>
			<line fill="none" stroke="#939598" stroke-miterlimit="10" x1="-459.4" y1="0" x2="309.4" y2="0"/>
			<line fill="none" stroke="#939598" stroke-miterlimit="10" x1="-459.4" y1="75" x2="309.4" y2="75"/>
			<line fill="none" stroke="#939598" stroke-miterlimit="10" x1="0" y1="-84.4" x2="0" y2="84.4"/>
			<line fill="none" stroke="#939598" stroke-miterlimit="10" x1="75" y1="-84.4" x2="75" y2="84.4"/>
		</g>
	</g>
</g>
<g id="guides" display="none">
</g>
</svg>
