<?xml version="1.0" encoding="utf-8"?>
<!-- Generator: Adobe Illustrator 26.0.3, SVG Export Plug-In . SVG Version: 6.00 Build 0)  -->
<svg version="1.2" baseProfile="tiny" xmlns="http://www.w3.org/2000/svg" xmlns:xlink="http://www.w3.org/1999/xlink" x="0px"
	 y="0px" viewBox="0 0 75 75" overflow="visible" xml:space="preserve">
<g id="svg">
	<g>
		<g id="cs_layer_CNA_0002_00000023283088047694392320000015410210321053132443_">
			<g id="g169366_00000060018564281457370690000011209304467157080227_">
			</g>
			<g id="IT_IT_146_-_219-1CN_312_00000160170913734964757030000007584414952576090779_" transform="translate(937.5,337.5)">
				<g id="g171994_00000173875631131725452300000017492135860034523787_" transform="translate(-450,-1500)">
					
						<rect id="rect171992_00000021083479030064296830000002338020399656106669_" x="-487.5" y="1162.5" fill="#010101" width="75" height="75"/>
				</g>
				<g id="g172011_00000012446587854811056900000018039665661142797952_" transform="translate(229.688,-150)">
					<g>
						<path fill="#FDD700" d="M-1101.5-167.9v17h-26.5v-17H-1101.5z M-1126.6-165.7v12.5l10.4-6.3L-1126.6-165.7z M-1104.3-166.5
							h-20.9l10.4,6.3L-1104.3-166.5z M-1125.2-152.3h20.9l-10.4-6.3L-1125.2-152.3z M-1113.4-159.4l10.4,6.3v-12.5L-1113.4-159.4z"
							/>
					</g>
					<g>
						<path fill="#FDD700" d="M-1136.5-134.2h-1.7v-10.7l-1.9,1.3v-1.6c0.4-0.2,1.6-1.1,2.1-1.5h1.4V-134.2z"/>
						<path fill="#FDD700" d="M-1133.2-137.3v-1.4l3.5-8h2.2v8h1.5v1.4h-1.5v3h-1.5v-3H-1133.2z M-1129.1-138.7v-6.5h0l-2.7,6.5
							H-1129.1z"/>
						<path fill="#FDD700" d="M-1125-140.4c0-3.4-0.1-6.5,3.4-6.5c1.9,0,3.2,1.2,3.1,3h-1.7c0-0.9-0.5-1.8-1.5-1.8
							c-1.3,0-1.7,1.2-1.7,4.5h0c0.4-0.7,1.2-1.2,2-1.2c1.6,0,3,0.9,3,4.2c0,2.2-0.9,4.2-3.3,4.2C-1125.1-134-1125-137.2-1125-140.4
							z M-1121.6-135.4c1.4,0,1.6-1.5,1.6-3.1c0-1.1-0.3-2.5-1.7-2.5c-1.5,0-1.7,1.6-1.7,2.7
							C-1123.4-137.1-1123.2-135.4-1121.6-135.4z"/>
					</g>
					<g>
						<path fill="#FDD700" d="M-1117.3-178.2h1v7.2h-1V-178.2z"/>
						<path fill="#FDD700" d="M-1114.6-178.2h1v7.2h-1V-178.2z"/>
					</g>
					<g>
						<path fill="#FDD700" d="M-1138-163.6c-0.7,0.6-1.8,1.2-2.6,1.6v-1.6c1-0.5,2.1-1.2,2.7-1.7h1.4v11.1h-1.5V-163.6z"/>
					</g>
					<g>
						<path fill="#FDD700" d="M-1145.8-122.2v-1c2.4-3.4,3.2-4,3.2-5.5c0-0.7-0.3-1.1-1-1.1c-0.8,0-1,0.7-1,1.4h-1.1
							c-0.1-1.4,0.6-2.3,2-2.3c1.5,0,2.2,0.7,2.2,2.2c0,1.9-0.9,2.5-3.1,5.3h3.3v1H-1145.8z"/>
						<path fill="#FDD700" d="M-1137.5-122.2h-1.1v-7.1l-1.2,0.8v-1.1c0.3-0.1,1.1-0.7,1.4-1h0.9V-122.2z"/>
						<path fill="#FDD700" d="M-1130.7-126.3c0,2.2,0,4.3-2.2,4.3c-1.2,0-2.1-0.9-2.1-2.2h1.1c0,0.6,0.2,1.2,0.9,1.2
							c1.1,0,1.1-1.2,1.1-3.3h0c-0.3,0.6-0.8,0.8-1.4,0.8c-0.7,0-1.9-0.3-1.9-2.6c0-1.9,1.1-2.6,2.2-2.6
							C-1130.7-130.6-1130.7-128.5-1130.7-126.3z M-1134.1-128.1c0,0.8,0.2,1.7,1.1,1.7c1,0,1.1-0.9,1.1-1.7c0-0.8-0.2-1.7-1.1-1.7
							C-1133.9-129.8-1134.1-128.9-1134.1-128.1z"/>
						<path fill="#FDD700" d="M-1129.3-122.2v-8.7h1.1v7.7h3.2v1H-1129.3z"/>
						<path fill="#FDD700" d="M-1120.9-128.2h1v6.7c0,1.4-0.9,1.7-2.2,1.7c-1,0-1.9-0.5-1.8-1.6h1.1c0,0.6,0.4,0.9,0.9,0.9
							c0.7,0,1.1-0.4,1.1-1v-1.3h0c-0.3,0.5-0.8,0.8-1.3,0.8c-1.6,0-2-1.4-2-3.2c0-2.8,1.4-3,1.9-3c0.6,0,1.1,0.3,1.4,0.9h0V-128.2z
							 M-1122.1-127.5c-1.1,0-1.2,1.3-1.2,2.1c0,1.9,0.4,2.4,1.2,2.4c1.2,0,1.2-1.4,1.2-2.2
							C-1120.9-126.1-1120.8-127.5-1122.1-127.5z"/>
						<path fill="#FDD700" d="M-1114.8-122.2v-4.2c0-0.6-0.2-1.2-1.1-1.2c-1.1,0-1.2,1-1.2,1.8v3.6h-1v-4.8c0-0.4,0-0.8-0.1-1.3h1
							v0.8h0c0.4-0.7,0.8-0.9,1.6-0.9c1.3,0,1.6,0.8,1.6,2v4.2H-1114.8z"/>
					</g>
				</g>
			</g>
			<g id="IT_IT_114_-_233-1CN_313_00000126311673972456418500000009499848277732927108_" transform="translate(1012.5,337.5)">
				<g id="g172016_00000179630587170610669740000004956957083673287570_" transform="translate(-450,-1500)">
					
						<rect id="rect172014_00000096758500214370139790000018111076282587315634_" x="-487.5" y="1162.5" fill="#010101" width="75" height="75"/>
				</g>
			</g>
		</g>
	</g>
</g>
<g id="text" display="none">
	
		<rect id="frontbox" x="-937.5" y="-337.5" display="inline" fill="none" stroke="#000000" stroke-miterlimit="10" width="1650" height="1275"/>
	<g id="align" display="inline">
	</g>
</g>
<g id="crop" display="none">
	<g id="front" display="inline">
		<g>
			<line fill="none" stroke="#939598" stroke-miterlimit="10" x1="-84.4" y1="0" x2="684.4" y2="0"/>
			<line fill="none" stroke="#939598" stroke-miterlimit="10" x1="-84.4" y1="75" x2="684.4" y2="75"/>
			<line fill="none" stroke="#939598" stroke-miterlimit="10" x1="0" y1="-84.4" x2="0" y2="84.4"/>
			<line fill="none" stroke="#939598" stroke-miterlimit="10" x1="75" y1="-84.4" x2="75" y2="84.4"/>
		</g>
	</g>
</g>
<g id="guides" display="none">
</g>
</svg>
