<?xml version="1.0" encoding="utf-8"?>
<!-- Generator: Adobe Illustrator 26.0.3, SVG Export Plug-In . SVG Version: 6.00 Build 0)  -->
<svg version="1.2" baseProfile="tiny" xmlns="http://www.w3.org/2000/svg" xmlns:xlink="http://www.w3.org/1999/xlink" x="0px"
	 y="0px" viewBox="0 0 75 75" overflow="visible" xml:space="preserve">
<g id="svg">
	<g>
		<g id="cs_layer_CNA_0002_00000023283088047694392320000015410210321053132443_">
			<g id="g169366_00000060018564281457370690000011209304467157080227_">
			</g>
			<g id="IT_IT_114_-_233-1CN_313_00000126311673972456418500000009499848277732927108_" transform="translate(1012.5,337.5)">
				<g id="g172016_00000179630587170610669740000004956957083673287570_" transform="translate(-450,-1500)">
					
						<rect id="rect172014_00000096758500214370139790000018111076282587315634_" x="-562.5" y="1162.5" fill="#010101" width="75" height="75"/>
				</g>
				<g id="g172033_00000140706656169568916940000017910791859551358108_" transform="translate(229.688,-150)">
					<g>
						<path fill="#FDD700" d="M-1176.5-167.9v17h-26.5v-17H-1176.5z M-1201.6-165.7v12.5l10.4-6.3L-1201.6-165.7z M-1179.3-166.5
							h-20.9l10.4,6.3L-1179.3-166.5z M-1200.2-152.3h20.9l-10.4-6.3L-1200.2-152.3z M-1188.4-159.4l10.4,6.3v-12.5L-1188.4-159.4z"
							/>
					</g>
					<g>
						<path fill="#FDD700" d="M-1211.5-134.2h-1.7v-10.7l-1.9,1.3v-1.6c0.4-0.2,1.6-1.1,2.1-1.5h1.4V-134.2z"/>
						<path fill="#FDD700" d="M-1203.5-134.2h-1.7v-10.7l-1.9,1.3v-1.6c0.4-0.2,1.6-1.1,2.1-1.5h1.4V-134.2z"/>
						<path fill="#FDD700" d="M-1200.2-137.3v-1.4l3.5-8h2.2v8h1.5v1.4h-1.5v3h-1.5v-3H-1200.2z M-1196.1-138.7v-6.5h0l-2.7,6.5
							H-1196.1z"/>
					</g>
					<g>
						<path fill="#FDD700" d="M-1190.5-178.1c2.1,0,2.3,2.2,2.3,3.5c0,1.6-0.3,2.6-1,3.1c-0.5,0.5-1.1,0.5-1.4,0.5
							c-0.9,0-1.5-0.5-1.8-1.1c-0.2-0.5-0.4-1.1-0.4-2.4C-1192.8-175.4-1192.7-178.1-1190.5-178.1z M-1190.5-171.7
							c1.2,0,1.4-1.5,1.4-2.8c0-1.7-0.3-2.8-1.3-2.8c-1.2,0-1.4,1.6-1.4,2.8C-1191.8-172.9-1191.5-171.7-1190.5-171.7z"/>
					</g>
					<g>
						<path fill="#FDD700" d="M-1213-163.6c-0.7,0.6-1.8,1.2-2.6,1.6v-1.6c1-0.5,2.1-1.2,2.7-1.7h1.4v11.1h-1.5V-163.6z"/>
					</g>
					<g>
						<path fill="#FDD700" d="M-1220.8-122.2v-1c2.4-3.4,3.2-4,3.2-5.5c0-0.7-0.3-1.1-1-1.1c-0.8,0-1,0.7-1,1.4h-1.1
							c-0.1-1.4,0.6-2.3,2-2.3c1.5,0,2.2,0.7,2.2,2.2c0,1.9-0.9,2.5-3.1,5.3h3.3v1H-1220.8z"/>
						<path fill="#FDD700" d="M-1213.9-127c1,0.1,1.7-0.3,1.7-1.4c0-0.8-0.3-1.3-1.2-1.3c-0.9,0-1.1,0.7-1,1.4h-1.1
							c-0.1-1.4,0.6-2.3,2.1-2.3c1.4,0,2.3,0.7,2.3,2.2c0,1.6-1.2,1.8-1.6,1.9v0c1.3,0.2,1.7,0.9,1.7,2.1c0,1.6-0.9,2.4-2.5,2.4
							c-2.3,0-2.1-2-2.1-2.5h1.1c0,0.8,0.1,1.5,1.1,1.5c1,0,1.3-0.6,1.3-1.5c0-1.3-0.5-1.6-1.8-1.6V-127z"/>
						<path fill="#FDD700" d="M-1208.6-127c1,0.1,1.7-0.3,1.7-1.4c0-0.8-0.3-1.3-1.2-1.3c-0.9,0-1.1,0.7-1,1.4h-1.1
							c-0.1-1.4,0.6-2.3,2.1-2.3c1.4,0,2.3,0.7,2.3,2.2c0,1.6-1.2,1.8-1.6,1.9v0c1.3,0.2,1.7,0.9,1.7,2.1c0,1.6-0.9,2.4-2.5,2.4
							c-2.3,0-2.1-2-2.1-2.5h1.1c0,0.8,0.1,1.5,1.1,1.5c1,0,1.3-0.6,1.3-1.5c0-1.3-0.5-1.6-1.8-1.6V-127z"/>
						<path fill="#FDD700" d="M-1204.3-122.2v-8.7h1.1v7.7h3.2v1H-1204.3z"/>
						<path fill="#FDD700" d="M-1195.9-128.2h1v6.7c0,1.4-0.9,1.7-2.2,1.7c-1,0-1.9-0.5-1.8-1.6h1.1c0,0.6,0.4,0.9,0.9,0.9
							c0.7,0,1.1-0.4,1.1-1v-1.3h0c-0.3,0.5-0.8,0.8-1.3,0.8c-1.6,0-2-1.4-2-3.2c0-2.8,1.4-3,1.9-3c0.6,0,1.1,0.3,1.4,0.9h0V-128.2z
							 M-1197.1-127.5c-1.1,0-1.2,1.3-1.2,2.1c0,1.9,0.4,2.4,1.2,2.4c1.2,0,1.2-1.4,1.2-2.2
							C-1195.9-126.1-1195.8-127.5-1197.1-127.5z"/>
						<path fill="#FDD700" d="M-1189.8-122.2v-4.2c0-0.6-0.2-1.2-1.1-1.2c-1.1,0-1.2,1-1.2,1.8v3.6h-1v-4.8c0-0.4,0-0.8-0.1-1.3h1
							v0.8h0c0.4-0.7,0.8-0.9,1.6-0.9c1.3,0,1.6,0.8,1.6,2v4.2H-1189.8z"/>
					</g>
				</g>
			</g>
			<g id="IT_IT_116_-_233-1CN_314_00000057837533431158574170000005039640931133984422_" transform="translate(1087.5,337.5)">
				<g id="g172038_00000152252572734849626700000004496650794337785775_" transform="translate(-450,-1500)">
					
						<rect id="rect172036_00000131325457344034938210000005523860793832281251_" x="-562.5" y="1162.5" fill="#010101" width="75" height="75"/>
				</g>
			</g>
		</g>
	</g>
</g>
<g id="text" display="none">
	
		<rect id="frontbox" x="-1012.5" y="-337.5" display="inline" fill="none" stroke="#000000" stroke-miterlimit="10" width="1650" height="1275"/>
	<g id="align" display="inline">
	</g>
</g>
<g id="crop" display="none">
	<g id="front" display="inline">
		<g>
			<line fill="none" stroke="#939598" stroke-miterlimit="10" x1="-159.4" y1="0" x2="609.4" y2="0"/>
			<line fill="none" stroke="#939598" stroke-miterlimit="10" x1="-159.4" y1="75" x2="609.4" y2="75"/>
			<line fill="none" stroke="#939598" stroke-miterlimit="10" x1="0" y1="-84.4" x2="0" y2="84.4"/>
			<line fill="none" stroke="#939598" stroke-miterlimit="10" x1="75" y1="-84.4" x2="75" y2="84.4"/>
		</g>
	</g>
</g>
<g id="guides" display="none">
</g>
</svg>
