<?xml version="1.0" encoding="utf-8"?>
<!-- Generator: Adobe Illustrator 26.0.3, SVG Export Plug-In . SVG Version: 6.00 Build 0)  -->
<svg version="1.2" baseProfile="tiny" xmlns="http://www.w3.org/2000/svg" xmlns:xlink="http://www.w3.org/1999/xlink" x="0px"
	 y="0px" viewBox="0 0 75 75" overflow="visible" xml:space="preserve">
<g id="svg">
	<g>
		<g id="cs_layer_CNA_0002_00000023283088047694392320000015410210321053132443_">
			<g id="g169366_00000060018564281457370690000011209304467157080227_">
			</g>
			<g id="IT_IT_81_-_250LGN_X_329_00000114766693433025979070000004948815055217329566_" transform="translate(1462.5,450)">
				<g id="g172368_00000083782611016274264650000015284293817154759057_" transform="translate(-450,-1500)">
					
						<rect id="rect172366_00000066497602010923872710000001027214359511599037_" x="-1012.5" y="1050" fill="#010101" width="75" height="75"/>
				</g>
				<g id="g172385_00000066498688636816901520000003123012791683102367_" transform="translate(229.688,-150)">
					<g>
						<path fill="#FDD700" d="M-1626.5-280.4v17h-26.5v-17H-1626.5z M-1651.6-278.2v12.5l10.4-6.3L-1651.6-278.2z M-1629.3-279
							h-20.9l10.4,6.3L-1629.3-279z M-1650.2-264.8h20.9l-10.4-6.3L-1650.2-264.8z M-1638.4-271.9l10.4,6.3v-12.5L-1638.4-271.9z"/>
					</g>
					<g>
						<path fill="#FDD700" d="M-1657.7-253.4c1.8,0.2,2.3,1.6,2.3,3.2c0,2.3-1.2,3.6-3.3,3.6s-3.3-1.4-3.3-3.6
							c0-1.6,0.5-3.1,2.3-3.2v0c-1.5-0.3-2.2-1.5-2.2-2.9c0-2,1.2-3.1,3.2-3.1s3.2,1.2,3.2,3.1
							C-1655.5-254.9-1656.2-253.7-1657.7-253.4L-1657.7-253.4z M-1657-250.1c0-1.1-0.1-2.6-1.7-2.6s-1.7,1.4-1.7,2.6
							c0,1.1,0.4,2.2,1.7,2.2S-1657-249-1657-250.1z M-1657.1-256.4c0-0.9-0.5-1.9-1.5-1.9s-1.5,0.9-1.5,1.9c0,0.9,0.3,2.3,1.5,2.3
							S-1657.1-255.4-1657.1-256.4z"/>
						<path fill="#FDD700" d="M-1649.5-246.7h-1.7v-10.7l-1.9,1.3v-1.6c0.4-0.2,1.6-1.1,2.1-1.5h1.4V-246.7z"/>
					</g>
					<g>
						<path fill="#FDD700" d="M-1642.3-290.7h1v7.2h-1V-290.7z"/>
						<path fill="#FDD700" d="M-1639.6-290.7h1v7.2h-1V-290.7z"/>
					</g>
					<g>
						<path fill="#FDD700" d="M-1663-276.1c-0.7,0.6-1.8,1.2-2.6,1.6v-1.6c1-0.5,2.1-1.2,2.7-1.7h1.4v11.1h-1.5V-276.1z"/>
					</g>
					<g>
						<path fill="#FDD700" d="M-1675.4-234.7v-1c2.4-3.4,3.2-4,3.2-5.5c0-0.7-0.3-1.1-1-1.1c-0.8,0-1,0.7-1,1.4h-1.1
							c-0.1-1.4,0.6-2.3,2-2.3c1.5,0,2.2,0.7,2.2,2.2c0,1.9-0.9,2.5-3.1,5.3h3.3v1H-1675.4z"/>
						<path fill="#FDD700" d="M-1666-243v1h-2.8v2.4l0,0c0.2-0.4,0.8-0.6,1.3-0.6c1.2,0,1.7,0.9,1.7,2.8c0,1.3-0.2,2.9-2.3,2.9
							c-1.7,0-2.1-0.9-2.1-2.1h1.1c0,0.6,0.3,1.3,1,1.3c1,0,1.1-1,1.1-1.8c0-1.2,0-2.2-1.1-2.2c-0.6,0-0.9,0.4-1,1h-1v-4.7H-1666z"
							/>
						<path fill="#FDD700" d="M-1660.4-238.8c0,2.2,0,4.3-2.2,4.3s-2.2-2.1-2.2-4.3c0-2.2,0-4.3,2.2-4.3
							C-1660.3-243.1-1660.4-241-1660.4-238.8z M-1663.8-238.6c0,1.4-0.1,3.2,1.1,3.2c1.2,0,1.1-1.8,1.1-3.2c0-2.2,0-3.6-1.1-3.6
							C-1663.8-242.2-1663.8-240.8-1663.8-238.6z"/>
						<path fill="#FDD700" d="M-1659-234.7v-8.7h1.1v7.7h3.2v1H-1659z"/>
						<path fill="#FDD700" d="M-1650.6-240.7h1v6.7c0,1.4-0.9,1.7-2.2,1.7c-1,0-1.9-0.5-1.8-1.6h1.1c0,0.6,0.4,0.9,0.9,0.9
							c0.7,0,1.1-0.4,1.1-1v-1.3h0c-0.3,0.5-0.8,0.8-1.3,0.8c-1.6,0-2-1.4-2-3.2c0-2.8,1.4-3,1.9-3c0.6,0,1.1,0.3,1.4,0.9h0V-240.7z
							 M-1651.7-240c-1.1,0-1.2,1.3-1.2,2.1c0,1.9,0.4,2.4,1.2,2.4c1.2,0,1.2-1.4,1.2-2.2C-1650.5-238.6-1650.5-240-1651.7-240z"/>
						<path fill="#FDD700" d="M-1644.5-234.7v-4.2c0-0.6-0.2-1.2-1.1-1.2c-1.1,0-1.2,1-1.2,1.8v3.6h-1v-4.8c0-0.4,0-0.8-0.1-1.3h1
							v0.8h0c0.4-0.7,0.8-0.9,1.6-0.9c1.3,0,1.6,0.8,1.6,2v4.2H-1644.5z"/>
						<path fill="#FDD700" d="M-1633.4-234.7h-1.3l-2-3.7l-1.9,3.7h-1.2l2.5-4.5l-2.4-4.2h1.3l1.8,3.4l1.8-3.4h1.2l-2.3,4.2
							L-1633.4-234.7z"/>
					</g>
				</g>
			</g>
			<g id="IT_IT_156_-_250LGN_X_330_00000142881749221810038120000010977015848491254446_" transform="translate(1537.5,450)">
				<g id="g172390_00000135668550389290112440000001332508787035239589_" transform="translate(-450,-1500)">
					
						<rect id="rect172388_00000049195175206082420520000010466921012368930435_" x="-1012.5" y="1050" fill="#010101" width="75" height="75"/>
				</g>
			</g>
		</g>
	</g>
</g>
<g id="text" display="none">
	
		<rect id="frontbox" x="-1462.5" y="-450" display="inline" fill="none" stroke="#000000" stroke-miterlimit="10" width="1650" height="1275"/>
	<g id="align" display="inline">
	</g>
</g>
<g id="crop" display="none">
	<g id="front" display="inline">
		<g>
			<line fill="none" stroke="#939598" stroke-miterlimit="10" x1="-609.4" y1="0" x2="159.4" y2="0"/>
			<line fill="none" stroke="#939598" stroke-miterlimit="10" x1="-609.4" y1="75" x2="159.4" y2="75"/>
			<line fill="none" stroke="#939598" stroke-miterlimit="10" x1="0" y1="-9.4" x2="0" y2="159.4"/>
			<line fill="none" stroke="#939598" stroke-miterlimit="10" x1="75" y1="-9.4" x2="75" y2="159.4"/>
		</g>
	</g>
</g>
<g id="guides" display="none">
</g>
</svg>
