<?xml version="1.0" encoding="utf-8"?>
<!-- Generator: Adobe Illustrator 26.0.3, SVG Export Plug-In . SVG Version: 6.00 Build 0)  -->
<svg version="1.2" baseProfile="tiny" xmlns="http://www.w3.org/2000/svg" xmlns:xlink="http://www.w3.org/1999/xlink" x="0px"
	 y="0px" viewBox="0 0 75 75" overflow="visible" xml:space="preserve">
<g id="svg">
	<g>
		<g id="cs_layer_CNA_0002_00000023283088047694392320000015410210321053132443_">
			<g id="g169366_00000060018564281457370690000011209304467157080227_">
			</g>
			<g id="IT_IT_202_-_2_CCNN__MG__325_00000020376870914735013120000003067680527745105087_" transform="translate(1162.5,450)">
				<g id="g172280_00000101071902527759239810000008093191454394979719_" transform="translate(-450,-1500)">
					
						<rect id="rect172278_00000054227514364920184630000005519010760593037737_" x="-712.5" y="1050" fill="#010101" width="75" height="75"/>
				</g>
				<g id="g172297_00000088112774440060840020000010212097522875266209_" transform="translate(229.688,-150)">
					<g>
						<path fill="#FDD700" d="M-1326.5-280.4v17h-26.5v-17H-1326.5z M-1341.8-271.6v-0.7l-9.8-5.9v12.5l9.9-5.9H-1341.8z
							 M-1329.3-279h-20.9l9.6,5.7v-1.5h-1.2l2.1-3.3l2.1,3.3h-1.2v1.5L-1329.3-279z M-1341.8-268.8v-1.1l-8.4,5h20.9l-8.4-5v1.1
							h-1.2v2.9h-1.7v-2.9H-1341.8z M-1340.7-270.5l-1,0.6h1V-270.5z M-1338.9-269.9h1l-1-0.6V-269.9z M-1328-265.6v-12.5l-9.8,5.9
							v0.7h-0.1L-1328-265.6z"/>
					</g>
					<g>
						<path fill="#FDD700" d="M-1365.9-246.7v-1.4c3.7-5.1,4.7-6,4.7-8.2c0-1-0.5-1.7-1.5-1.7c-1.2,0-1.5,1-1.5,2h-1.7
							c-0.1-2.1,0.9-3.4,3-3.4c2.3,0,3.3,1,3.3,3.3c0,2.8-1.4,3.7-4.6,8h5v1.4H-1365.9z"/>
						<path fill="#FDD700" d="M-1351.3-252.9c0,3.3,0,6.5-3.4,6.5s-3.4-3.2-3.4-6.5c0-3.4-0.1-6.5,3.4-6.5
							S-1351.3-256.3-1351.3-252.9z M-1356.4-252.6c0,2.1-0.1,4.8,1.7,4.8c1.8,0,1.7-2.6,1.7-4.8c0-3.4,0-5.4-1.7-5.4
							S-1356.4-256-1356.4-252.6z"/>
						<path fill="#FDD700" d="M-1349.9-246.7v-1.4c3.7-5.1,4.7-6,4.7-8.2c0-1-0.5-1.7-1.5-1.7c-1.2,0-1.5,1-1.5,2h-1.7
							c-0.1-2.1,0.9-3.4,3-3.4c2.3,0,3.3,1,3.3,3.3c0,2.8-1.4,3.7-4.6,8h5v1.4H-1349.9z"/>
					</g>
					<g>
						<path fill="#FDD700" d="M-1342.3-290.7h1v7.2h-1V-290.7z"/>
						<path fill="#FDD700" d="M-1339.6-290.7h1v7.2h-1V-290.7z"/>
					</g>
					<g>
						<path fill="#FDD700" d="M-1363-276.1c-0.7,0.6-1.8,1.2-2.6,1.6v-1.6c1-0.5,2.1-1.2,2.7-1.7h1.4v11.1h-1.5V-276.1z"/>
					</g>
					<g>
						<path fill="#FDD700" d="M-1372.8-234.7v-1c2.4-3.4,3.2-4,3.2-5.5c0-0.7-0.3-1.1-1-1.1c-0.8,0-1,0.7-1,1.4h-1.1
							c-0.1-1.4,0.6-2.3,2-2.3c1.5,0,2.2,0.7,2.2,2.2c0,1.9-0.9,2.5-3.1,5.3h3.3v1H-1372.8z"/>
						<path fill="#FDD700" d="M-1360.5-240.9c0-0.5,0-1-0.3-1.3c-0.2-0.3-0.7-0.4-1-0.4c-0.9,0-1.3,0.6-1.3,0.7
							c0,0.1-0.3,0.3-0.3,1.8v2.3c0,2.1,0.7,2.4,1.5,2.4c0.3,0,1.4-0.1,1.4-1.8h1.1c0,2.7-1.9,2.7-2.4,2.7c-1.1,0-2.7-0.1-2.7-3.4
							v-2.4c0-2.4,1.1-3.1,2.8-3.1c1.7,0,2.4,0.9,2.3,2.6H-1360.5z"/>
						<path fill="#FDD700" d="M-1353.8-240.9c0-0.5,0-1-0.3-1.3c-0.2-0.3-0.7-0.4-1-0.4c-0.9,0-1.3,0.6-1.3,0.7
							c0,0.1-0.3,0.3-0.3,1.8v2.3c0,2.1,0.7,2.4,1.5,2.4c0.3,0,1.4-0.1,1.4-1.8h1.1c0,2.7-1.9,2.7-2.4,2.7c-1.1,0-2.7-0.1-2.7-3.4
							v-2.4c0-2.4,1.1-3.1,2.8-3.1c1.7,0,2.4,0.9,2.3,2.6H-1353.8z"/>
						<path fill="#FDD700" d="M-1345-243.3v8.7h-1.5l-3.4-7.5h0v7.5h-1v-8.7h1.6l3.4,7.4h0v-7.4H-1345z"/>
						<path fill="#FDD700" d="M-1337-243.3v8.7h-1.5l-3.4-7.5h0v7.5h-1v-8.7h1.6l3.4,7.4h0v-7.4H-1337z"/>
					</g>
				</g>
			</g>
			<g id="IT_IT_202_-_2_CCNN__ART__326_00000056410662896583104970000005840208895725571233_" transform="translate(1237.5,450)">
				<g id="g172302_00000018202029545269986050000000922003118342134445_" transform="translate(-450,-1500)">
					
						<rect id="rect172300_00000178926372257207226610000010430435277529275576_" x="-712.5" y="1050" fill="#010101" width="75" height="75"/>
				</g>
			</g>
		</g>
	</g>
</g>
<g id="text" display="none">
	
		<rect id="frontbox" x="-1162.5" y="-450" display="inline" fill="none" stroke="#000000" stroke-miterlimit="10" width="1650" height="1275"/>
	<g id="align" display="inline">
	</g>
</g>
<g id="crop" display="none">
	<g id="front" display="inline">
		<g>
			<line fill="none" stroke="#939598" stroke-miterlimit="10" x1="-309.4" y1="0" x2="459.4" y2="0"/>
			<line fill="none" stroke="#939598" stroke-miterlimit="10" x1="-309.4" y1="75" x2="459.4" y2="75"/>
			<line fill="none" stroke="#939598" stroke-miterlimit="10" x1="0" y1="-9.4" x2="0" y2="159.4"/>
			<line fill="none" stroke="#939598" stroke-miterlimit="10" x1="75" y1="-9.4" x2="75" y2="159.4"/>
		</g>
	</g>
</g>
<g id="guides" display="none">
</g>
</svg>
