<?xml version="1.0" encoding="utf-8"?>
<!-- Generator: Adobe Illustrator 26.0.3, SVG Export Plug-In . SVG Version: 6.00 Build 0)  -->
<svg version="1.2" baseProfile="tiny" xmlns="http://www.w3.org/2000/svg" xmlns:xlink="http://www.w3.org/1999/xlink" x="0px"
	 y="0px" viewBox="0 0 75 75" overflow="visible" xml:space="preserve">
<g id="svg">
	<g>
		<g id="cs_layer_CNA_0002_00000023283088047694392320000015410210321053132443_">
			<g id="g169366_00000060018564281457370690000011209304467157080227_">
			</g>
			<g id="IT_IT_202BRS_-_2_CCNN_328_00000014605175274621343840000009559829498997452721_" transform="translate(1387.5,450)">
				<g id="g172346_00000029749438448320989000000005717178756968846724_" transform="translate(-450,-1500)">
					
						<rect id="rect172344_00000065037858225588832050000009600538808305490092_" x="-937.5" y="1050" fill="#010101" width="75" height="75"/>
				</g>
				<g id="g172363_00000000903769175084358420000017987348952038548383_" transform="translate(229.688,-150)">
					<g>
						<path fill="#FDD700" d="M-1551.5-280.4v17h-26.5v-17H-1551.5z M-1576.6-279v13.4l22.3-13.4H-1576.6z M-1567.3-268.4
							c0-0.5,0.1-0.9,0.3-1.3l-8.2,4.9h11.4C-1565.7-264.8-1567.3-266.4-1567.3-268.4z M-1561.6-268.4c0-1.2-1-2.2-2.2-2.2
							c-1.2,0-2.2,1-2.2,2.2c0,0,0,0,0,0c0,1.2,1,2.2,2.2,2.2S-1561.6-267.2-1561.6-268.4z M-1563.7-264.8h7c-1.9,0-3.5-1.6-3.5-3.6
							C-1560.1-266.4-1561.7-264.8-1563.7-264.8z M-1553-268.4v-9.8l-10.4,6.2c1.8,0.2,3.2,1.7,3.2,3.5c0-2,1.6-3.6,3.6-3.6
							c0,0,0,0,0,0C-1554.6-272-1553-270.4-1553-268.4z M-1556.6-266.2c1.2,0,2.2-1,2.2-2.2s-1-2.2-2.2-2.2c-1.2,0-2.2,1-2.2,2.2
							c0,0,0,0,0,0C-1558.7-267.2-1557.7-266.2-1556.6-266.2z M-1553-268.4c0,2-1.6,3.5-3.5,3.6h3.5V-268.4z"/>
					</g>
					<g>
						<path fill="#FDD700" d="M-1603.4-246.7v-1.4c3.7-5.1,4.7-6,4.7-8.2c0-1-0.5-1.7-1.5-1.7c-1.2,0-1.5,1-1.5,2h-1.7
							c-0.1-2.1,0.9-3.4,3-3.4c2.3,0,3.3,1,3.3,3.3c0,2.8-1.4,3.7-4.6,8h5v1.4H-1603.4z"/>
						<path fill="#FDD700" d="M-1588.8-252.9c0,3.3,0,6.5-3.4,6.5c-3.4,0-3.4-3.2-3.4-6.5c0-3.4-0.1-6.5,3.4-6.5
							C-1588.8-259.4-1588.8-256.3-1588.8-252.9z M-1593.9-252.6c0,2.1-0.1,4.8,1.7,4.8c1.8,0,1.7-2.6,1.7-4.8c0-3.4,0-5.4-1.7-5.4
							C-1593.9-258.1-1593.9-256-1593.9-252.6z"/>
						<path fill="#FDD700" d="M-1587.4-246.7v-1.4c3.7-5.1,4.7-6,4.7-8.2c0-1-0.5-1.7-1.5-1.7c-1.2,0-1.5,1-1.5,2h-1.7
							c-0.1-2.1,0.9-3.4,3-3.4c2.3,0,3.3,1,3.3,3.3c0,2.8-1.4,3.7-4.6,8h5v1.4H-1587.4z"/>
						<path fill="#FDD700" d="M-1578.6-246.7v-13h4.2c1.8,0,2.4,0.6,2.9,1.3c0.5,0.7,0.5,1.5,0.5,1.7c0,1.6-0.6,2.7-2.2,3.1v0.1
							c1.9,0.2,2.7,1.3,2.7,3.1c0,3.3-2.4,3.7-3.9,3.7H-1578.6z M-1576.9-254.3h2.4c1.3,0,1.9-0.8,1.9-2.1c0-1.1-0.6-2-2-2h-2.3
							V-254.3z M-1576.9-248.2h2.3c1.8,0,2.4-1.3,2.4-2.2c0-2.1-1.3-2.4-3-2.4h-1.8V-248.2z"/>
						<path fill="#FDD700" d="M-1566.4-254.5L-1566.4-254.5c0.6-1.4,1.4-1.5,2.8-1.5v1.5c-0.1,0-0.3,0-0.4-0.1c-0.1,0-0.3,0-0.4,0
							c-1.6,0-2.1,1.2-2.1,2.5v5.4h-1.5v-9.1h1.5V-254.5z"/>
						<path fill="#FDD700" d="M-1559.2-246.6c-2,0-3.2-0.9-3.1-3h1.7c0,0.5,0,1.7,1.5,1.7c0.9,0,1.6-0.5,1.6-1.4
							c0-1.6-4.5-1.7-4.5-4.4c0-1,0.6-2.5,3.1-2.5c1.6,0,3,0.8,2.9,2.6h-1.6c0-1-0.5-1.5-1.4-1.5c-0.8,0-1.4,0.4-1.4,1.2
							c0,1.6,4.5,1.6,4.5,4.3C-1556.1-247.3-1557.4-246.6-1559.2-246.6z"/>
					</g>
					<g>
						<path fill="#FDD700" d="M-1565.9-290.7h1v7.2h-1V-290.7z"/>
					</g>
					<g>
						<path fill="#FDD700" d="M-1588-276.1c-0.7,0.6-1.8,1.2-2.6,1.6v-1.6c1-0.5,2.1-1.2,2.7-1.7h1.4v11.1h-1.5V-276.1z"/>
					</g>
					<g>
						<path fill="#FDD700" d="M-1597.8-234.7v-1c2.4-3.4,3.2-4,3.2-5.5c0-0.7-0.3-1.1-1-1.1c-0.8,0-1,0.7-1,1.4h-1.1
							c-0.1-1.4,0.6-2.3,2-2.3c1.5,0,2.2,0.7,2.2,2.2c0,1.9-0.9,2.5-3.1,5.3h3.3v1H-1597.8z"/>
						<path fill="#FDD700" d="M-1585.5-240.9c0-0.5,0-1-0.3-1.3c-0.2-0.3-0.7-0.4-1-0.4c-0.9,0-1.3,0.6-1.3,0.7
							c0,0.1-0.3,0.3-0.3,1.8v2.3c0,2.1,0.7,2.4,1.5,2.4c0.3,0,1.4-0.1,1.4-1.8h1.1c0,2.7-1.9,2.7-2.4,2.7c-1.1,0-2.7-0.1-2.7-3.4
							v-2.4c0-2.4,1.1-3.1,2.8-3.1c1.7,0,2.4,0.9,2.3,2.6H-1585.5z"/>
						<path fill="#FDD700" d="M-1578.8-240.9c0-0.5,0-1-0.3-1.3c-0.2-0.3-0.7-0.4-1-0.4c-0.9,0-1.3,0.6-1.3,0.7
							c0,0.1-0.3,0.3-0.3,1.8v2.3c0,2.1,0.7,2.4,1.5,2.4c0.3,0,1.4-0.1,1.4-1.8h1.1c0,2.7-1.9,2.7-2.4,2.7c-1.1,0-2.7-0.1-2.7-3.4
							v-2.4c0-2.4,1.1-3.1,2.8-3.1c1.7,0,2.4,0.9,2.3,2.6H-1578.8z"/>
						<path fill="#FDD700" d="M-1570-243.3v8.7h-1.5l-3.4-7.5h0v7.5h-1v-8.7h1.6l3.4,7.4h0v-7.4H-1570z"/>
						<path fill="#FDD700" d="M-1562-243.3v8.7h-1.5l-3.4-7.5h0v7.5h-1v-8.7h1.6l3.4,7.4h0v-7.4H-1562z"/>
					</g>
				</g>
			</g>
			<g id="IT_IT_81_-_250LGN_X_329_00000114766693433025979070000004948815055217329566_" transform="translate(1462.5,450)">
				<g id="g172368_00000083782611016274264650000015284293817154759057_" transform="translate(-450,-1500)">
					
						<rect id="rect172366_00000066497602010923872710000001027214359511599037_" x="-937.5" y="1050" fill="#010101" width="75" height="75"/>
				</g>
			</g>
		</g>
	</g>
</g>
<g id="text" display="none">
	
		<rect id="frontbox" x="-1387.5" y="-450" display="inline" fill="none" stroke="#000000" stroke-miterlimit="10" width="1650" height="1275"/>
	<g id="align" display="inline">
	</g>
</g>
<g id="crop" display="none">
	<g id="front" display="inline">
		<g>
			<line fill="none" stroke="#939598" stroke-miterlimit="10" x1="-534.4" y1="0" x2="234.4" y2="0"/>
			<line fill="none" stroke="#939598" stroke-miterlimit="10" x1="-534.4" y1="75" x2="234.4" y2="75"/>
			<line fill="none" stroke="#939598" stroke-miterlimit="10" x1="0" y1="-9.4" x2="0" y2="159.4"/>
			<line fill="none" stroke="#939598" stroke-miterlimit="10" x1="75" y1="-9.4" x2="75" y2="159.4"/>
		</g>
	</g>
</g>
<g id="guides" display="none">
</g>
</svg>
