<?xml version="1.0" encoding="utf-8"?>
<!-- Generator: Adobe Illustrator 26.0.3, SVG Export Plug-In . SVG Version: 6.00 Build 0)  -->
<svg version="1.2" baseProfile="tiny" xmlns="http://www.w3.org/2000/svg" xmlns:xlink="http://www.w3.org/1999/xlink" x="0px"
	 y="0px" viewBox="0 0 75 75" overflow="visible" xml:space="preserve">
<g id="svg">
	<g>
		<g id="cs_layer_CNA_0002_00000023283088047694392320000015410210321053132443_">
			<g id="g169366_00000060018564281457370690000011209304467157080227_">
			</g>
			<g id="IT_IT_131_-_238-2CN_322_00000008864750118668186820000006166122526379297953_" transform="translate(937.5,450)">
				<g id="g172214_00000028286543725542318800000006496870347080464291_" transform="translate(-450,-1500)">
					
						<rect id="rect172212_00000016067796883220071520000018185003635874865811_" x="-487.5" y="1050" fill="#010101" width="75" height="75"/>
				</g>
				<g id="g172231_00000106127508321025063270000005208257253377073060_" transform="translate(229.688,-150)">
					<g>
						<path fill="#FDD700" d="M-1101.5-280.4v17h-26.5v-17H-1101.5z M-1126.6-278.2v12.5l10.4-6.3L-1126.6-278.2z M-1104.3-279
							h-20.9l10.4,6.3L-1104.3-279z M-1125.2-264.8h20.9l-10.4-6.3L-1125.2-264.8z M-1113.4-271.9l10.4,6.3v-12.5L-1113.4-271.9z"/>
					</g>
					<g>
						<path fill="#FDD700" d="M-1136.5-246.7h-1.7v-10.7l-1.9,1.3v-1.6c0.4-0.2,1.6-1.1,2.1-1.5h1.4V-246.7z"/>
						<path fill="#FDD700" d="M-1130.6-254c1.5,0.1,2.6-0.5,2.6-2.1c0-1.1-0.5-2-1.7-2c-1.4,0-1.6,1-1.6,2h-1.7
							c-0.1-2.1,0.9-3.4,3.2-3.4c2.1,0,3.4,1.1,3.4,3.2c0,2.4-1.7,2.7-2.5,2.9v0c2,0.3,2.6,1.3,2.6,3.2c0,2.4-1.3,3.6-3.7,3.6
							c-3.5,0-3.2-3-3.2-3.7h1.7c0,1.2,0.2,2.3,1.7,2.3c1.5,0,1.9-0.9,1.9-2.3c0-2-0.8-2.4-2.7-2.4V-254z"/>
						<path fill="#FDD700" d="M-1120.5-246.7h-1.7v-10.7l-1.9,1.3v-1.6c0.4-0.2,1.6-1.1,2.1-1.5h1.4V-246.7z"/>
					</g>
					<g>
						<path fill="#FDD700" d="M-1117.3-290.7h1v7.2h-1V-290.7z"/>
						<path fill="#FDD700" d="M-1114.6-290.7h1v7.2h-1V-290.7z"/>
					</g>
					<g>
						<path fill="#FDD700" d="M-1138-276.1c-0.7,0.6-1.8,1.2-2.6,1.6v-1.6c1-0.5,2.1-1.2,2.7-1.7h1.4v11.1h-1.5V-276.1z"/>
					</g>
					<g>
						<path fill="#FDD700" d="M-1148.8-234.7v-1c2.4-3.4,3.2-4,3.2-5.5c0-0.7-0.3-1.1-1-1.1c-0.8,0-1,0.7-1,1.4h-1.1
							c-0.1-1.4,0.6-2.3,2-2.3c1.5,0,2.2,0.7,2.2,2.2c0,1.9-0.9,2.5-3.1,5.3h3.3v1H-1148.8z"/>
						<path fill="#FDD700" d="M-1141.9-239.5c1,0.1,1.7-0.3,1.7-1.4c0-0.8-0.3-1.3-1.2-1.3c-0.9,0-1.1,0.7-1,1.4h-1.1
							c-0.1-1.4,0.6-2.3,2.1-2.3c1.4,0,2.3,0.7,2.3,2.2c0,1.6-1.2,1.8-1.6,1.9v0c1.3,0.2,1.7,0.9,1.7,2.1c0,1.6-0.9,2.4-2.5,2.4
							c-2.3,0-2.1-2-2.1-2.5h1.1c0,0.8,0.1,1.5,1.1,1.5c1,0,1.3-0.6,1.3-1.5c0-1.3-0.5-1.6-1.8-1.6V-239.5z"/>
						<path fill="#FDD700" d="M-1135.2-234.7h-1.1v-7.1l-1.2,0.8v-1.1c0.3-0.1,1.1-0.7,1.4-1h0.9V-234.7z"/>
						<path fill="#FDD700" d="M-1132.8-233.5h-0.8l2.8-9.8h0.8L-1132.8-233.5z"/>
						<path fill="#FDD700" d="M-1129.4-234.7v-1c2.4-3.4,3.2-4,3.2-5.5c0-0.7-0.3-1.1-1-1.1c-0.8,0-1,0.7-1,1.4h-1.1
							c-0.1-1.4,0.6-2.3,2-2.3c1.5,0,2.2,0.7,2.2,2.2c0,1.9-0.9,2.5-3.1,5.3h3.3v1H-1129.4z"/>
						<path fill="#FDD700" d="M-1119.9-240.9c0-0.5,0-1-0.3-1.3c-0.2-0.3-0.7-0.4-1-0.4c-0.9,0-1.3,0.6-1.3,0.7
							c0,0.1-0.3,0.3-0.3,1.8v2.3c0,2.1,0.7,2.4,1.5,2.4c0.3,0,1.4-0.1,1.4-1.8h1.1c0,2.7-1.9,2.7-2.4,2.7c-1.1,0-2.7-0.1-2.7-3.4
							v-2.4c0-2.4,1.1-3.1,2.8-3.1c1.7,0,2.4,0.9,2.3,2.6H-1119.9z"/>
						<path fill="#FDD700" d="M-1111-243.3v8.7h-1.5l-3.4-7.5h0v7.5h-1v-8.7h1.6l3.4,7.4h0v-7.4H-1111z"/>
					</g>
				</g>
			</g>
			<g id="IT_IT_132_-_238-2CN_323_00000106123264794730657930000003096136904311393423_" transform="translate(1012.5,450)">
				<g id="g172236_00000106123028089341565980000013771836529959662224_" transform="translate(-450,-1500)">
					
						<rect id="rect172234_00000086692271884949806990000002341126879577819806_" x="-487.5" y="1050" fill="#010101" width="75" height="75"/>
				</g>
			</g>
		</g>
	</g>
</g>
<g id="text" display="none">
	
		<rect id="frontbox" x="-937.5" y="-450" display="inline" fill="none" stroke="#000000" stroke-miterlimit="10" width="1650" height="1275"/>
	<g id="align" display="inline">
	</g>
</g>
<g id="crop" display="none">
	<g id="front" display="inline">
		<g>
			<line fill="none" stroke="#939598" stroke-miterlimit="10" x1="-84.4" y1="0" x2="684.4" y2="0"/>
			<line fill="none" stroke="#939598" stroke-miterlimit="10" x1="-84.4" y1="75" x2="684.4" y2="75"/>
			<line fill="none" stroke="#939598" stroke-miterlimit="10" x1="0" y1="-9.4" x2="0" y2="159.4"/>
			<line fill="none" stroke="#939598" stroke-miterlimit="10" x1="75" y1="-9.4" x2="75" y2="159.4"/>
		</g>
	</g>
</g>
<g id="guides" display="none">
</g>
</svg>
