<?xml version="1.0" encoding="utf-8"?>
<!-- Generator: Adobe Illustrator 26.0.3, SVG Export Plug-In . SVG Version: 6.00 Build 0)  -->
<svg version="1.2" baseProfile="tiny" xmlns="http://www.w3.org/2000/svg" xmlns:xlink="http://www.w3.org/1999/xlink" x="0px"
	 y="0px" viewBox="0 0 75 75" overflow="visible" xml:space="preserve">
<g id="svg">
	<g>
		<g id="cs_layer_CNA_0002_00000023283088047694392320000015410210321053132443_">
			<g id="g169366_00000060018564281457370690000011209304467157080227_">
			</g>
			<g id="IT_IT_214_-_NONE_333_00000144334452503669429480000009455724734595142804_" transform="translate(1012.5,525)">
				<g id="g172456_00000048490105817772917900000010477896071476227257_" transform="translate(-450,-1500)">
					
						<rect id="rect172454_00000104664121927321298260000009132010961016334257_" x="-562.5" y="975" fill="#010101" width="75" height="75"/>
				</g>
				<g id="g172473_00000031922298922654011570000011871570073739050137_" transform="translate(229.688,-150)">
					<g>
						<path fill="#FDD700" d="M-1176.5-355.4v17h-26.5v-17H-1176.5z M-1178-354h-23.6v14.2h23.6V-354z M-1192.6-346.9
							c0-1.4,1.2-2.6,2.8-2.6s2.8,1.2,2.8,2.6c0,1.4-1.2,2.6-2.8,2.6S-1192.6-345.5-1192.6-346.9z"/>
					</g>
					<g>
						<path fill="#FDD700" d="M-1215.9-321.7v-1.4c3.7-5.1,4.7-6,4.7-8.2c0-1-0.5-1.7-1.5-1.7c-1.2,0-1.5,1-1.5,2h-1.7
							c-0.1-2.1,0.9-3.4,3-3.4c2.3,0,3.3,1,3.3,3.3c0,2.8-1.4,3.7-4.6,8h5v1.4H-1215.9z"/>
						<path fill="#FDD700" d="M-1203.5-321.7h-1.7v-10.7l-1.9,1.3v-1.6c0.4-0.2,1.6-1.1,2.1-1.5h1.4V-321.7z"/>
						<path fill="#FDD700" d="M-1200.2-324.8v-1.4l3.5-8h2.2v8h1.5v1.4h-1.5v3h-1.5v-3H-1200.2z M-1196.1-326.2v-6.5h0l-2.7,6.5
							H-1196.1z"/>
					</g>
					<g>
						<path fill="#FDD700" d="M-1192.3-365.7h1v7.2h-1V-365.7z"/>
						<path fill="#FDD700" d="M-1189.6-365.7h1v7.2h-1V-365.7z"/>
					</g>
					<g>
						<path fill="#FDD700" d="M-1213-351.1c-0.7,0.6-1.8,1.2-2.6,1.6v-1.6c1-0.5,2.1-1.2,2.7-1.7h1.4v11.1h-1.5V-351.1z"/>
					</g>
					<g>
						<path fill="#FDD700" d="M-1207.9-313.4h2.6v0.9h-2.6V-313.4z"/>
						<path fill="#FDD700" d="M-1203.9-313.4h2.6v0.9h-2.6V-313.4z"/>
					</g>
				</g>
			</g>
			<g id="IT_IT_203_-_NONE__ENG__334_00000113321192007563637090000003173115950420049568_" transform="translate(1087.5,525)">
				<g id="g172478_00000161623945464184004050000010851559592522193308_" transform="translate(-450,-1500)">
					
						<rect id="rect172476_00000064349383912039724050000005007426925838910352_" x="-562.5" y="975" fill="#010101" width="75" height="75"/>
				</g>
			</g>
		</g>
	</g>
</g>
<g id="text" display="none">
	
		<rect id="frontbox" x="-1012.5" y="-525" display="inline" fill="none" stroke="#000000" stroke-miterlimit="10" width="1650" height="1275"/>
	<g id="align" display="inline">
	</g>
</g>
<g id="crop" display="none">
	<g id="front" display="inline">
		<g>
			<line fill="none" stroke="#939598" stroke-miterlimit="10" x1="-159.4" y1="0" x2="609.4" y2="0"/>
			<line fill="none" stroke="#939598" stroke-miterlimit="10" x1="-159.4" y1="75" x2="609.4" y2="75"/>
			<line fill="none" stroke="#939598" stroke-miterlimit="10" x1="0" y1="-84.4" x2="0" y2="84.4"/>
			<line fill="none" stroke="#939598" stroke-miterlimit="10" x1="75" y1="-84.4" x2="75" y2="84.4"/>
		</g>
	</g>
</g>
<g id="guides" display="none">
</g>
</svg>
