<?xml version="1.0" encoding="utf-8"?>
<!-- Generator: Adobe Illustrator 26.0.3, SVG Export Plug-In . SVG Version: 6.00 Build 0)  -->
<svg version="1.2" baseProfile="tiny" xmlns="http://www.w3.org/2000/svg" xmlns:xlink="http://www.w3.org/1999/xlink" x="0px"
	 y="0px" viewBox="0 0 75 75" overflow="visible" xml:space="preserve">
<g id="svg">
	<g>
		<g id="cs_layer_CNA_0002_00000023283088047694392320000015410210321053132443_">
			<g id="g169366_00000060018564281457370690000011209304467157080227_">
			</g>
			<g id="IT_IT_158_-_250LGN_X_331_00000057840794978606892140000015386351110432337806_" transform="translate(862.5,525)">
				<g id="g172412_00000057852106437696281460000002154415814588201608_" transform="translate(-450,-1500)">
					
						<rect id="rect172410_00000036216698975520361540000005750612203676765081_" x="-412.5" y="975" fill="#010101" width="75" height="75"/>
				</g>
				<g id="g172429_00000101821497050932387580000003150845534767000716_" transform="translate(229.688,-150)">
					<g>
						<path fill="#FDD700" d="M-1026.5-355.4v17h-26.5v-17H-1026.5z M-1051.6-353.2v12.5l10.4-6.3L-1051.6-353.2z M-1029.3-354
							h-20.9l10.4,6.3L-1029.3-354z M-1050.2-339.8h20.9l-10.4-6.3L-1050.2-339.8z M-1038.4-346.9l10.4,6.3v-12.5L-1038.4-346.9z"/>
					</g>
					<g>
						<path fill="#FDD700" d="M-1061.5-321.7h-1.7v-10.7l-1.9,1.3v-1.6c0.4-0.2,1.6-1.1,2.1-1.5h1.4V-321.7z"/>
						<path fill="#FDD700" d="M-1051.8-334.2v1.4h-4.2v3.6l0,0c0.3-0.5,1.1-0.9,2-0.9c1.8,0,2.6,1.3,2.6,4.2c0,2-0.3,4.4-3.4,4.4
							c-2.6,0-3.1-1.4-3.1-3.1h1.7c0,1,0.4,1.9,1.5,1.9c1.6,0,1.7-1.5,1.7-2.8c0-1.8-0.1-3.2-1.6-3.2c-0.9,0-1.4,0.6-1.5,1.5h-1.5
							v-7H-1051.8z"/>
						<path fill="#FDD700" d="M-1045.7-328.4c1.8,0.2,2.3,1.6,2.3,3.2c0,2.3-1.2,3.6-3.3,3.6s-3.3-1.4-3.3-3.6
							c0-1.6,0.5-3.1,2.3-3.2v0c-1.5-0.3-2.2-1.5-2.2-2.9c0-2,1.2-3.1,3.2-3.1c2,0,3.2,1.2,3.2,3.1
							C-1043.5-329.9-1044.2-328.7-1045.7-328.4L-1045.7-328.4z M-1045-325.1c0-1.1-0.1-2.6-1.7-2.6c-1.5,0-1.7,1.4-1.7,2.6
							c0,1.1,0.4,2.2,1.7,2.2C-1045.5-322.9-1045-324-1045-325.1z M-1045.1-331.4c0-0.9-0.5-1.9-1.5-1.9c-1.1,0-1.5,0.9-1.5,1.9
							c0,0.9,0.3,2.3,1.5,2.3C-1045.5-329.1-1045.1-330.4-1045.1-331.4z"/>
					</g>
					<g>
						<path fill="#FDD700" d="M-1042.3-365.7h1v7.2h-1V-365.7z"/>
						<path fill="#FDD700" d="M-1039.6-365.7h1v7.2h-1V-365.7z"/>
					</g>
					<g>
						<path fill="#FDD700" d="M-1063-351.1c-0.7,0.6-1.8,1.2-2.6,1.6v-1.6c1-0.5,2.1-1.2,2.7-1.7h1.4v11.1h-1.5V-351.1z"/>
					</g>
					<g>
						<path fill="#FDD700" d="M-1075.4-309.7v-1c2.4-3.4,3.2-4,3.2-5.5c0-0.7-0.3-1.1-1-1.1c-0.8,0-1,0.7-1,1.4h-1.1
							c-0.1-1.4,0.6-2.3,2-2.3c1.5,0,2.2,0.7,2.2,2.2c0,1.9-0.9,2.5-3.1,5.3h3.3v1H-1075.4z"/>
						<path fill="#FDD700" d="M-1066-318v1h-2.8v2.4l0,0c0.2-0.4,0.8-0.6,1.3-0.6c1.2,0,1.7,0.9,1.7,2.8c0,1.3-0.2,2.9-2.3,2.9
							c-1.7,0-2.1-0.9-2.1-2.1h1.1c0,0.6,0.3,1.3,1,1.3c1,0,1.1-1,1.1-1.8c0-1.2,0-2.2-1.1-2.2c-0.6,0-0.9,0.4-1,1h-1v-4.7H-1066z"
							/>
						<path fill="#FDD700" d="M-1060.4-313.8c0,2.2,0,4.3-2.2,4.3s-2.2-2.1-2.2-4.3c0-2.2,0-4.3,2.2-4.3
							C-1060.3-318.1-1060.4-316-1060.4-313.8z M-1063.8-313.6c0,1.4-0.1,3.2,1.1,3.2c1.2,0,1.1-1.8,1.1-3.2c0-2.2,0-3.6-1.1-3.6
							C-1063.8-317.2-1063.8-315.8-1063.8-313.6z"/>
						<path fill="#FDD700" d="M-1059-309.7v-8.7h1.1v7.7h3.2v1H-1059z"/>
						<path fill="#FDD700" d="M-1050.6-315.7h1v6.7c0,1.4-0.9,1.7-2.2,1.7c-1,0-1.9-0.5-1.8-1.6h1.1c0,0.6,0.4,0.9,0.9,0.9
							c0.7,0,1.1-0.4,1.1-1v-1.3h0c-0.3,0.5-0.8,0.8-1.3,0.8c-1.6,0-2-1.4-2-3.2c0-2.8,1.4-3,1.9-3c0.6,0,1.1,0.3,1.4,0.9h0V-315.7z
							 M-1051.7-315c-1.1,0-1.2,1.3-1.2,2.1c0,1.9,0.4,2.4,1.2,2.4c1.2,0,1.2-1.4,1.2-2.2C-1050.5-313.6-1050.5-315-1051.7-315z"/>
						<path fill="#FDD700" d="M-1044.5-309.7v-4.2c0-0.6-0.2-1.2-1.1-1.2c-1.1,0-1.2,1-1.2,1.8v3.6h-1v-4.8c0-0.4,0-0.8-0.1-1.3h1
							v0.8h0c0.4-0.7,0.8-0.9,1.6-0.9c1.3,0,1.6,0.8,1.6,2v4.2H-1044.5z"/>
						<path fill="#FDD700" d="M-1033.4-309.7h-1.3l-2-3.7l-1.9,3.7h-1.2l2.5-4.5l-2.4-4.2h1.3l1.8,3.4l1.8-3.4h1.2l-2.3,4.2
							L-1033.4-309.7z"/>
					</g>
				</g>
			</g>
			<g id="IT_IT_203_-_NONE__MG__332_00000072977436402374345000000012992388271652927888_" transform="translate(937.5,525)">
				<g id="g172434_00000172437446047217728940000009704555560863676339_" transform="translate(-450,-1500)">
					
						<rect id="rect172432_00000126306754422403008030000012161031209406624421_" x="-412.5" y="975" fill="#010101" width="75" height="75"/>
				</g>
			</g>
		</g>
	</g>
</g>
<g id="text" display="none">
	
		<rect id="frontbox" x="-862.5" y="-525" display="inline" fill="none" stroke="#000000" stroke-miterlimit="10" width="1650" height="1275"/>
	<g id="align" display="inline">
	</g>
</g>
<g id="crop" display="none">
	<g id="front" display="inline">
		<g>
			<line fill="none" stroke="#939598" stroke-miterlimit="10" x1="-9.4" y1="0" x2="759.4" y2="0"/>
			<line fill="none" stroke="#939598" stroke-miterlimit="10" x1="-9.4" y1="75" x2="759.4" y2="75"/>
			<line fill="none" stroke="#939598" stroke-miterlimit="10" x1="0" y1="-84.4" x2="0" y2="84.4"/>
			<line fill="none" stroke="#939598" stroke-miterlimit="10" x1="75" y1="-84.4" x2="75" y2="84.4"/>
		</g>
	</g>
</g>
<g id="guides" display="none">
</g>
</svg>
