<?xml version="1.0" encoding="utf-8"?>
<!-- Generator: Adobe Illustrator 26.0.3, SVG Export Plug-In . SVG Version: 6.00 Build 0)  -->
<svg version="1.2" baseProfile="tiny" xmlns="http://www.w3.org/2000/svg" xmlns:xlink="http://www.w3.org/1999/xlink" x="0px"
	 y="0px" viewBox="0 0 75 75" overflow="visible" xml:space="preserve">
<g id="svg">
	<g>
		<g id="cs_layer_CNA_0002_00000023283088047694392320000015410210321053132443_">
			<g id="g169366_00000060018564281457370690000011209304467157080227_">
			</g>
			<g id="IT_IT_203_-_NONE__MG__332_00000072977436402374345000000012992388271652927888_" transform="translate(937.5,525)">
				<g id="g172434_00000172437446047217728940000009704555560863676339_" transform="translate(-450,-1500)">
					
						<rect id="rect172432_00000126306754422403008030000012161031209406624421_" x="-487.5" y="975" fill="#010101" width="75" height="75"/>
				</g>
				<g id="g172451_00000182530530966702357310000000362749249737601192_" transform="translate(229.688,-150)">
					<g>
						<path fill="#FDD700" d="M-1101.5-355.4v17h-26.5v-17H-1101.5z M-1116.8-346.6v-0.7l-9.8-5.9v12.5l9.9-5.9H-1116.8z
							 M-1104.3-354h-20.9l9.6,5.7v-1.5h-1.2l2.1-3.3l2.1,3.3h-1.2v1.5L-1104.3-354z M-1116.8-343.8v-1.1l-8.4,5h20.9l-8.4-5v1.1
							h-1.2v2.9h-1.7v-2.9H-1116.8z M-1115.7-345.5l-1,0.6h1V-345.5z M-1113.9-344.9h1l-1-0.6V-344.9z M-1103-340.6v-12.5l-9.8,5.9
							v0.7h-0.1L-1103-340.6z"/>
					</g>
					<g>
						<path fill="#FDD700" d="M-1140.9-321.7v-1.4c3.7-5.1,4.7-6,4.7-8.2c0-1-0.5-1.7-1.5-1.7c-1.2,0-1.5,1-1.5,2h-1.7
							c-0.1-2.1,0.9-3.4,3-3.4c2.3,0,3.3,1,3.3,3.3c0,2.8-1.4,3.7-4.6,8h5v1.4H-1140.9z"/>
						<path fill="#FDD700" d="M-1126.3-327.9c0,3.3,0,6.5-3.4,6.5s-3.4-3.2-3.4-6.5c0-3.4-0.1-6.5,3.4-6.5
							S-1126.3-331.3-1126.3-327.9z M-1131.4-327.6c0,2.1-0.1,4.8,1.7,4.8c1.8,0,1.7-2.6,1.7-4.8c0-3.4,0-5.4-1.7-5.4
							S-1131.4-331-1131.4-327.6z"/>
						<path fill="#FDD700" d="M-1122.7-329c1.5,0.1,2.6-0.5,2.6-2.1c0-1.1-0.5-2-1.7-2c-1.4,0-1.6,1-1.6,2h-1.7
							c-0.1-2.1,0.9-3.4,3.2-3.4c2.1,0,3.4,1.1,3.4,3.2c0,2.4-1.7,2.7-2.5,2.9v0c2,0.3,2.6,1.3,2.6,3.2c0,2.4-1.3,3.6-3.7,3.6
							c-3.5,0-3.2-3-3.2-3.7h1.7c0,1.2,0.2,2.3,1.7,2.3c1.5,0,1.9-0.9,1.9-2.3c0-2-0.8-2.4-2.7-2.4V-329z"/>
					</g>
					<g>
						<path fill="#FDD700" d="M-1117.3-365.7h1v7.2h-1V-365.7z"/>
						<path fill="#FDD700" d="M-1114.6-365.7h1v7.2h-1V-365.7z"/>
					</g>
					<g>
						<path fill="#FDD700" d="M-1138-351.1c-0.7,0.6-1.8,1.2-2.6,1.6v-1.6c1-0.5,2.1-1.2,2.7-1.7h1.4v11.1h-1.5V-351.1z"/>
					</g>
					<g>
						<path fill="#FDD700" d="M-1132.9-313.4h2.6v0.9h-2.6V-313.4z"/>
						<path fill="#FDD700" d="M-1128.9-313.4h2.6v0.9h-2.6V-313.4z"/>
					</g>
				</g>
			</g>
			<g id="IT_IT_214_-_NONE_333_00000144334452503669429480000009455724734595142804_" transform="translate(1012.5,525)">
				<g id="g172456_00000048490105817772917900000010477896071476227257_" transform="translate(-450,-1500)">
					
						<rect id="rect172454_00000104664121927321298260000009132010961016334257_" x="-487.5" y="975" fill="#010101" width="75" height="75"/>
				</g>
			</g>
		</g>
	</g>
</g>
<g id="text" display="none">
	
		<rect id="frontbox" x="-937.5" y="-525" display="inline" fill="none" stroke="#000000" stroke-miterlimit="10" width="1650" height="1275"/>
	<g id="align" display="inline">
	</g>
</g>
<g id="crop" display="none">
	<g id="front" display="inline">
		<g>
			<line fill="none" stroke="#939598" stroke-miterlimit="10" x1="-84.4" y1="0" x2="684.4" y2="0"/>
			<line fill="none" stroke="#939598" stroke-miterlimit="10" x1="-84.4" y1="75" x2="684.4" y2="75"/>
			<line fill="none" stroke="#939598" stroke-miterlimit="10" x1="0" y1="-84.4" x2="0" y2="84.4"/>
			<line fill="none" stroke="#939598" stroke-miterlimit="10" x1="75" y1="-84.4" x2="75" y2="84.4"/>
		</g>
	</g>
</g>
<g id="guides" display="none">
</g>
</svg>
