<?xml version="1.0" encoding="utf-8"?>
<!-- Generator: Adobe Illustrator 26.0.3, SVG Export Plug-In . SVG Version: 6.00 Build 0)  -->
<svg version="1.2" baseProfile="tiny" xmlns="http://www.w3.org/2000/svg" xmlns:xlink="http://www.w3.org/1999/xlink" x="0px"
	 y="0px" viewBox="0 0 75 75" overflow="visible" xml:space="preserve">
<g id="svg">
	<g>
		<g id="cs_layer_CNA_0002_00000023283088047694392320000015410210321053132443_">
			<g id="g169366_00000060018564281457370690000011209304467157080227_">
			</g>
			<g id="IT_IT_203_-_NONE__ENG__334_00000113321192007563637090000003173115950420049568_" transform="translate(1087.5,525)">
				<g id="g172478_00000161623945464184004050000010851559592522193308_" transform="translate(-450,-1500)">
					
						<rect id="rect172476_00000064349383912039724050000005007426925838910352_" x="-637.5" y="975" fill="#010101" width="75" height="75"/>
				</g>
				<g id="g172495_00000102521028583631633060000016032552694564986786_" transform="translate(229.688,-150)">
					<g>
						<path fill="#FDD700" d="M-1251.5-355.4v17h-26.5v-17H-1251.5z M-1253-354h-23.6v14.2h23.6V-354z M-1271.6-342.3h-1.3v-9.2
							h16.2v1.3h0v7.8h-1.3v-7.8h-6.1v7.8h-1.3v-7.8h-6.1V-342.3z"/>
					</g>
					<g>
						<path fill="#FDD700" d="M-1290.9-321.7v-1.4c3.7-5.1,4.7-6,4.7-8.2c0-1-0.5-1.7-1.5-1.7c-1.2,0-1.5,1-1.5,2h-1.7
							c-0.1-2.1,0.9-3.4,3-3.4c2.3,0,3.3,1,3.3,3.3c0,2.8-1.4,3.7-4.6,8h5v1.4H-1290.9z"/>
						<path fill="#FDD700" d="M-1276.3-327.9c0,3.3,0,6.5-3.4,6.5s-3.4-3.2-3.4-6.5c0-3.4-0.1-6.5,3.4-6.5
							S-1276.3-331.3-1276.3-327.9z M-1281.4-327.6c0,2.1-0.1,4.8,1.7,4.8c1.8,0,1.7-2.6,1.7-4.8c0-3.4,0-5.4-1.7-5.4
							S-1281.4-331-1281.4-327.6z"/>
						<path fill="#FDD700" d="M-1272.7-329c1.5,0.1,2.6-0.5,2.6-2.1c0-1.1-0.5-2-1.7-2c-1.4,0-1.6,1-1.6,2h-1.7
							c-0.1-2.1,0.9-3.4,3.2-3.4c2.1,0,3.4,1.1,3.4,3.2c0,2.4-1.7,2.7-2.5,2.9v0c2,0.3,2.6,1.3,2.6,3.2c0,2.4-1.3,3.6-3.7,3.6
							c-3.5,0-3.2-3-3.2-3.7h1.7c0,1.2,0.2,2.3,1.7,2.3c1.5,0,1.9-0.9,1.9-2.3c0-2-0.8-2.4-2.7-2.4V-329z"/>
					</g>
					<g>
						<path fill="#FDD700" d="M-1267.3-365.7h1v7.2h-1V-365.7z"/>
						<path fill="#FDD700" d="M-1264.6-365.7h1v7.2h-1V-365.7z"/>
					</g>
					<g>
						<path fill="#FDD700" d="M-1288-351.1c-0.7,0.6-1.8,1.2-2.6,1.6v-1.6c1-0.5,2.1-1.2,2.7-1.7h1.4v11.1h-1.5V-351.1z"/>
					</g>
					<g>
						<path fill="#FDD700" d="M-1282.9-313.4h2.6v0.9h-2.6V-313.4z"/>
						<path fill="#FDD700" d="M-1278.9-313.4h2.6v0.9h-2.6V-313.4z"/>
					</g>
				</g>
			</g>
			<g id="IT_IT_70_-_240-4CN_335_00000008844347508961471020000005343738995930979466_" transform="translate(1162.5,525)">
				<g id="g172500_00000171699791996070930420000012918771913279822736_" transform="translate(-450,-1500)">
					
						<rect id="rect172498_00000022523602496235491810000016379005417340517801_" x="-637.5" y="975" fill="#010101" width="75" height="75"/>
				</g>
			</g>
		</g>
	</g>
</g>
<g id="text" display="none">
	
		<rect id="frontbox" x="-1087.5" y="-525" display="inline" fill="none" stroke="#000000" stroke-miterlimit="10" width="1650" height="1275"/>
	<g id="align" display="inline">
	</g>
</g>
<g id="crop" display="none">
	<g id="front" display="inline">
		<g>
			<line fill="none" stroke="#939598" stroke-miterlimit="10" x1="-234.4" y1="0" x2="534.4" y2="0"/>
			<line fill="none" stroke="#939598" stroke-miterlimit="10" x1="-234.4" y1="75" x2="534.4" y2="75"/>
			<line fill="none" stroke="#939598" stroke-miterlimit="10" x1="0" y1="-84.4" x2="0" y2="84.4"/>
			<line fill="none" stroke="#939598" stroke-miterlimit="10" x1="75" y1="-84.4" x2="75" y2="84.4"/>
		</g>
	</g>
</g>
<g id="guides" display="none">
</g>
</svg>
