<?xml version="1.0" encoding="utf-8"?>
<!-- Generator: Adobe Illustrator 26.0.3, SVG Export Plug-In . SVG Version: 6.00 Build 0)  -->
<svg version="1.2" baseProfile="tiny" xmlns="http://www.w3.org/2000/svg" xmlns:xlink="http://www.w3.org/1999/xlink" x="0px"
	 y="0px" viewBox="0 0 75 75" overflow="visible" xml:space="preserve">
<g id="svg">
	<g>
		<g id="cs_layer_CNA_0002_00000023283088047694392320000015410210321053132443_">
			<g id="g169366_00000060018564281457370690000011209304467157080227_">
			</g>
			<g id="IT_IT_3_-_270-4CN_338_00000086668780099155466380000013886195775175715720_" transform="translate(1387.5,525)">
				<g id="g172566_00000026127684370970228490000012546604167383523490_" transform="translate(-450,-1500)">
					
						<rect id="rect172564_00000064347076136717207940000009117679991855747480_" x="-937.5" y="975" fill="#010101" width="75" height="75"/>
				</g>
				<g id="g172583_00000130622828893543093390000017451582008552381085_" transform="translate(229.688,-150)">
					<g>
						<path fill="#FDD700" d="M-1551.5-355.4v17h-26.5v-17H-1551.5z M-1576.6-353.2v12.5l10.4-6.3L-1576.6-353.2z M-1554.3-354
							h-20.9l10.4,6.3L-1554.3-354z M-1575.2-339.8h20.9l-10.4-6.3L-1575.2-339.8z M-1563.4-346.9l10.4,6.3v-12.5L-1563.4-346.9z"/>
					</g>
					<g>
						<path fill="#FDD700" d="M-1580.6-329c1.5,0.1,2.6-0.5,2.6-2.1c0-1.1-0.5-2-1.7-2c-1.4,0-1.6,1-1.6,2h-1.7
							c-0.1-2.1,0.9-3.4,3.2-3.4c2.1,0,3.4,1.1,3.4,3.2c0,2.4-1.7,2.7-2.5,2.9v0c2,0.3,2.6,1.3,2.6,3.2c0,2.4-1.3,3.6-3.7,3.6
							c-3.5,0-3.2-3-3.2-3.7h1.7c0,1.2,0.2,2.3,1.7,2.3c1.5,0,1.9-0.9,1.9-2.3c0-2-0.8-2.4-2.7-2.4V-329z"/>
					</g>
					<g>
						<path fill="#FDD700" d="M-1567.3-365.7h1v7.2h-1V-365.7z"/>
						<path fill="#FDD700" d="M-1564.6-365.7h1v7.2h-1V-365.7z"/>
					</g>
					<g>
						<path fill="#FDD700" d="M-1588-351.1c-0.7,0.6-1.8,1.2-2.6,1.6v-1.6c1-0.5,2.1-1.2,2.7-1.7h1.4v11.1h-1.5V-351.1z"/>
					</g>
					<g>
						<path fill="#FDD700" d="M-1598.8-309.7v-1c2.4-3.4,3.2-4,3.2-5.5c0-0.7-0.3-1.1-1-1.1c-0.8,0-1,0.7-1,1.4h-1.1
							c-0.1-1.4,0.6-2.3,2-2.3c1.5,0,2.2,0.7,2.2,2.2c0,1.9-0.9,2.5-3.1,5.3h3.3v1H-1598.8z"/>
						<path fill="#FDD700" d="M-1593.6-318h4.3v1l-2.2,7.4h-1.2l2.3-7.4h-3.2V-318z"/>
						<path fill="#FDD700" d="M-1583.7-313.8c0,2.2,0,4.3-2.2,4.3c-2.3,0-2.2-2.1-2.2-4.3c0-2.2,0-4.3,2.2-4.3
							C-1583.7-318.1-1583.7-316-1583.7-313.8z M-1587.1-313.6c0,1.4-0.1,3.2,1.1,3.2c1.2,0,1.1-1.8,1.1-3.2c0-2.2,0-3.6-1.1-3.6
							C-1587.1-317.2-1587.1-315.8-1587.1-313.6z"/>
						<path fill="#FDD700" d="M-1582.8-308.5h-0.8l2.8-9.8h0.8L-1582.8-308.5z"/>
						<path fill="#FDD700" d="M-1579.7-311.7v-1l2.4-5.3h1.5v5.3h1v1h-1v2h-1v-2H-1579.7z M-1576.9-312.7v-4.3h0l-1.8,4.3H-1576.9z"
							/>
						<path fill="#FDD700" d="M-1569.9-315.9c0-0.5,0-1-0.3-1.3c-0.2-0.3-0.7-0.4-1-0.4c-0.9,0-1.3,0.6-1.3,0.7
							c0,0.1-0.3,0.3-0.3,1.8v2.3c0,2.1,0.7,2.4,1.5,2.4c0.3,0,1.4-0.1,1.4-1.8h1.1c0,2.7-1.9,2.7-2.4,2.7c-1.1,0-2.7-0.1-2.7-3.4
							v-2.4c0-2.4,1.1-3.1,2.8-3.1c1.7,0,2.4,0.9,2.3,2.6H-1569.9z"/>
						<path fill="#FDD700" d="M-1561-318.3v8.7h-1.5l-3.4-7.5h0v7.5h-1v-8.7h1.6l3.4,7.4h0v-7.4H-1561z"/>
					</g>
				</g>
			</g>
			<g id="IT_IT_17_-_270-4CN_339_00000113338272368187878100000003413729412731609506_" transform="translate(1462.5,525)">
				<g id="g172588_00000011032707290127047330000008232295971529907358_" transform="translate(-450,-1500)">
					
						<rect id="rect172586_00000103948379688398025320000018027384593378027176_" x="-937.5" y="975" fill="#010101" width="75" height="75"/>
				</g>
			</g>
		</g>
	</g>
</g>
<g id="text" display="none">
	
		<rect id="frontbox" x="-1387.5" y="-525" display="inline" fill="none" stroke="#000000" stroke-miterlimit="10" width="1650" height="1275"/>
	<g id="align" display="inline">
	</g>
</g>
<g id="crop" display="none">
	<g id="front" display="inline">
		<g>
			<line fill="none" stroke="#939598" stroke-miterlimit="10" x1="-534.4" y1="0" x2="234.4" y2="0"/>
			<line fill="none" stroke="#939598" stroke-miterlimit="10" x1="-534.4" y1="75" x2="234.4" y2="75"/>
			<line fill="none" stroke="#939598" stroke-miterlimit="10" x1="0" y1="-84.4" x2="0" y2="84.4"/>
			<line fill="none" stroke="#939598" stroke-miterlimit="10" x1="75" y1="-84.4" x2="75" y2="84.4"/>
		</g>
	</g>
</g>
<g id="guides" display="none">
</g>
</svg>
