<?xml version="1.0" encoding="utf-8"?>
<!-- Generator: Adobe Illustrator 26.0.3, SVG Export Plug-In . SVG Version: 6.00 Build 0)  -->
<svg version="1.2" baseProfile="tiny" xmlns="http://www.w3.org/2000/svg" xmlns:xlink="http://www.w3.org/1999/xlink" x="0px"
	 y="0px" viewBox="0 0 75 75" overflow="visible" xml:space="preserve">
<g id="svg">
	<g>
		<g id="cs_layer_CNA_0002_00000023283088047694392320000015410210321053132443_">
			<g id="g169366_00000060018564281457370690000011209304467157080227_">
			</g>
			<g id="IT_IT_70_-_240-4CN_335_00000008844347508961471020000005343738995930979466_" transform="translate(1162.5,525)">
				<g id="g172500_00000171699791996070930420000012918771913279822736_" transform="translate(-450,-1500)">
					
						<rect id="rect172498_00000022523602496235491810000016379005417340517801_" x="-712.5" y="975" fill="#010101" width="75" height="75"/>
				</g>
				<g id="g172517_00000168818622388901797220000014803324519103315339_" transform="translate(229.688,-150)">
					<g>
						<path fill="#FDD700" d="M-1326.5-355.4v17h-26.5v-17H-1326.5z M-1351.6-353.2v12.5l10.4-6.3L-1351.6-353.2z M-1329.3-354
							h-20.9l10.4,6.3L-1329.3-354z M-1350.2-339.8h20.9l-10.4-6.3L-1350.2-339.8z M-1338.4-346.9l10.4,6.3v-12.5L-1338.4-346.9z"/>
					</g>
					<g>
						<path fill="#FDD700" d="M-1362.1-334.2h6.5v1.4l-3.3,11.1h-1.9l3.5-11.1h-4.8V-334.2z"/>
						<path fill="#FDD700" d="M-1347.3-327.9c0,3.3,0,6.5-3.4,6.5s-3.4-3.2-3.4-6.5c0-3.4-0.1-6.5,3.4-6.5
							C-1347.3-334.4-1347.3-331.3-1347.3-327.9z M-1352.4-327.6c0,2.1-0.1,4.8,1.7,4.8c1.8,0,1.7-2.6,1.7-4.8c0-3.4,0-5.4-1.7-5.4
							C-1352.4-333.1-1352.4-331-1352.4-327.6z"/>
					</g>
					<g>
						<path fill="#FDD700" d="M-1342.3-365.7h1v7.2h-1V-365.7z"/>
						<path fill="#FDD700" d="M-1339.6-365.7h1v7.2h-1V-365.7z"/>
					</g>
					<g>
						<path fill="#FDD700" d="M-1363-351.1c-0.7,0.6-1.8,1.2-2.6,1.6v-1.6c1-0.5,2.1-1.2,2.7-1.7h1.4v11.1h-1.5V-351.1z"/>
					</g>
					<g>
						<path fill="#FDD700" d="M-1373.8-309.7v-1c2.4-3.4,3.2-4,3.2-5.5c0-0.7-0.3-1.1-1-1.1c-0.8,0-1,0.7-1,1.4h-1.1
							c-0.1-1.4,0.6-2.3,2-2.3c1.5,0,2.2,0.7,2.2,2.2c0,1.9-0.9,2.5-3.1,5.3h3.3v1H-1373.8z"/>
						<path fill="#FDD700" d="M-1368.7-311.7v-1l2.4-5.3h1.5v5.3h1v1h-1v2h-1v-2H-1368.7z M-1365.9-312.7v-4.3h0l-1.8,4.3H-1365.9z"
							/>
						<path fill="#FDD700" d="M-1358.7-313.8c0,2.2,0,4.3-2.2,4.3c-2.3,0-2.2-2.1-2.2-4.3c0-2.2,0-4.3,2.2-4.3
							C-1358.7-318.1-1358.7-316-1358.7-313.8z M-1362.1-313.6c0,1.4-0.1,3.2,1.1,3.2c1.2,0,1.1-1.8,1.1-3.2c0-2.2,0-3.6-1.1-3.6
							C-1362.1-317.2-1362.1-315.8-1362.1-313.6z"/>
						<path fill="#FDD700" d="M-1357.8-308.5h-0.8l2.8-9.8h0.8L-1357.8-308.5z"/>
						<path fill="#FDD700" d="M-1354.7-311.7v-1l2.4-5.3h1.5v5.3h1v1h-1v2h-1v-2H-1354.7z M-1351.9-312.7v-4.3h0l-1.8,4.3H-1351.9z"
							/>
						<path fill="#FDD700" d="M-1344.9-315.9c0-0.5,0-1-0.3-1.3c-0.2-0.3-0.7-0.4-1-0.4c-0.9,0-1.3,0.6-1.3,0.7
							c0,0.1-0.3,0.3-0.3,1.8v2.3c0,2.1,0.7,2.4,1.5,2.4c0.3,0,1.4-0.1,1.4-1.8h1.1c0,2.7-1.9,2.7-2.4,2.7c-1.1,0-2.7-0.1-2.7-3.4
							v-2.4c0-2.4,1.1-3.1,2.8-3.1c1.7,0,2.4,0.9,2.3,2.6H-1344.9z"/>
						<path fill="#FDD700" d="M-1336-318.3v8.7h-1.5l-3.4-7.5h0v7.5h-1v-8.7h1.6l3.4,7.4h0v-7.4H-1336z"/>
					</g>
				</g>
			</g>
			<g id="IT_IT_119_-_240-4CN_336_00000081636505263163786810000003549667057021234846_" transform="translate(1237.5,525)">
				<g id="g172522_00000023994833245060586060000005141663460084110271_" transform="translate(-450,-1500)">
					
						<rect id="rect172520_00000041998420815628984480000004646804449056797842_" x="-712.5" y="975" fill="#010101" width="75" height="75"/>
				</g>
			</g>
		</g>
	</g>
</g>
<g id="text" display="none">
	
		<rect id="frontbox" x="-1162.5" y="-525" display="inline" fill="none" stroke="#000000" stroke-miterlimit="10" width="1650" height="1275"/>
	<g id="align" display="inline">
	</g>
</g>
<g id="crop" display="none">
	<g id="front" display="inline">
		<g>
			<line fill="none" stroke="#939598" stroke-miterlimit="10" x1="-309.4" y1="0" x2="459.4" y2="0"/>
			<line fill="none" stroke="#939598" stroke-miterlimit="10" x1="-309.4" y1="75" x2="459.4" y2="75"/>
			<line fill="none" stroke="#939598" stroke-miterlimit="10" x1="0" y1="-84.4" x2="0" y2="84.4"/>
			<line fill="none" stroke="#939598" stroke-miterlimit="10" x1="75" y1="-84.4" x2="75" y2="84.4"/>
		</g>
	</g>
</g>
<g id="guides" display="none">
</g>
</svg>
