<?xml version="1.0" encoding="utf-8"?>
<!-- Generator: Adobe Illustrator 26.0.3, SVG Export Plug-In . SVG Version: 6.00 Build 0)  -->
<svg version="1.2" baseProfile="tiny" xmlns="http://www.w3.org/2000/svg" xmlns:xlink="http://www.w3.org/1999/xlink" x="0px"
	 y="0px" viewBox="0 0 75 75" overflow="visible" xml:space="preserve">
<g id="svg">
	<g>
		<g id="cs_layer_CNA_0002_00000023283088047694392320000015410210321053132443_">
			<g id="g169366_00000060018564281457370690000011209304467157080227_">
			</g>
			<g id="IT_IT_60_-_9CCNN_III_346_00000005228009408160069980000003265738113794277018_" transform="translate(1237.5,637.5)">
				<g id="g172742_00000152231340816475353250000014365483627638146703_" transform="translate(-450,-1500)">
					
						<rect id="rect172740_00000091013227277852584870000014308070319348656305_" x="-787.5" y="862.5" fill="#010101" width="75" height="75"/>
				</g>
				<g id="g172759_00000002357083272283904530000015837713282450076827_" transform="translate(229.688,-150)">
					<g>
						<path fill="#FDD700" d="M-1401.5-467.9v17h-26.5v-17H-1401.5z M-1426.6-465.7v12.5l10.4-6.3L-1426.6-465.7z M-1404.3-466.5
							h-20.9l10.4,6.3L-1404.3-466.5z M-1425.2-452.3h20.9l-10.4-6.3L-1425.2-452.3z M-1413.4-459.4l10.4,6.3v-12.5L-1413.4-459.4z"
							/>
					</g>
					<g>
						<path fill="#FDD700" d="M-1437-440.4c0-3.4-0.1-6.5,3.4-6.5c1.9,0,3.2,1.2,3.1,3h-1.7c0-0.9-0.5-1.8-1.5-1.8
							c-1.3,0-1.7,1.2-1.7,4.5h0c0.4-0.7,1.2-1.2,2-1.2c1.6,0,3,0.9,3,4.2c0,2.2-0.9,4.2-3.3,4.2C-1437.1-434-1437-437.2-1437-440.4
							z M-1433.6-435.4c1.4,0,1.6-1.5,1.6-3.1c0-1.1-0.3-2.5-1.7-2.5c-1.5,0-1.7,1.6-1.7,2.7
							C-1435.3-437.1-1435.2-435.4-1433.6-435.4z"/>
						<path fill="#FDD700" d="M-1422.3-440.4c0,3.3,0,6.5-3.4,6.5s-3.4-3.2-3.4-6.5c0-3.4-0.1-6.5,3.4-6.5
							C-1422.3-446.9-1422.3-443.8-1422.3-440.4z M-1427.4-440.1c0,2.1-0.1,4.8,1.7,4.8c1.8,0,1.7-2.6,1.7-4.8c0-3.4,0-5.4-1.7-5.4
							C-1427.4-445.6-1427.4-443.5-1427.4-440.1z"/>
					</g>
					<g>
						<path fill="#FDD700" d="M-1417.3-478.2h1v7.2h-1V-478.2z"/>
						<path fill="#FDD700" d="M-1414.6-478.2h1v7.2h-1V-478.2z"/>
					</g>
					<g>
						<path fill="#FDD700" d="M-1438-463.6c-0.7,0.6-1.8,1.2-2.6,1.6v-1.6c1-0.5,2.1-1.2,2.7-1.7h1.4v11.1h-1.5V-463.6z"/>
					</g>
					<g>
						<path fill="#FDD700" d="M-1449.7-426.3c0,2.2,0,4.3-2.2,4.3c-1.2,0-2.1-0.9-2.1-2.2h1.1c0,0.6,0.2,1.2,0.9,1.2
							c1.1,0,1.1-1.2,1.1-3.3h0c-0.3,0.6-0.8,0.8-1.4,0.8c-0.7,0-1.9-0.3-1.9-2.6c0-1.9,1.1-2.6,2.2-2.6
							C-1449.7-430.6-1449.7-428.5-1449.7-426.3z M-1453.1-428.1c0,0.8,0.2,1.7,1.1,1.7c1,0,1.1-0.9,1.1-1.7c0-0.8-0.2-1.7-1.1-1.7
							C-1452.9-429.8-1453.1-428.9-1453.1-428.1z"/>
						<path fill="#FDD700" d="M-1441.9-428.4c0-0.5,0-1-0.3-1.3c-0.2-0.3-0.7-0.4-1-0.4c-0.9,0-1.3,0.6-1.3,0.7
							c0,0.1-0.3,0.3-0.3,1.8v2.3c0,2.1,0.7,2.4,1.5,2.4c0.3,0,1.4-0.1,1.4-1.8h1.1c0,2.7-1.9,2.7-2.4,2.7c-1.1,0-2.7-0.1-2.7-3.4
							v-2.4c0-2.4,1.1-3.1,2.8-3.1c1.7,0,2.4,0.9,2.3,2.6H-1441.9z"/>
						<path fill="#FDD700" d="M-1435.2-428.4c0-0.5,0-1-0.3-1.3c-0.2-0.3-0.7-0.4-1-0.4c-0.9,0-1.3,0.6-1.3,0.7
							c0,0.1-0.3,0.3-0.3,1.8v2.3c0,2.1,0.7,2.4,1.5,2.4c0.3,0,1.4-0.1,1.4-1.8h1.1c0,2.7-1.9,2.7-2.4,2.7c-1.1,0-2.7-0.1-2.7-3.4
							v-2.4c0-2.4,1.1-3.1,2.8-3.1c1.7,0,2.4,0.9,2.3,2.6H-1435.2z"/>
						<path fill="#FDD700" d="M-1426.3-430.8v8.7h-1.5l-3.4-7.5h0v7.5h-1v-8.7h1.6l3.4,7.4h0v-7.4H-1426.3z"/>
						<path fill="#FDD700" d="M-1418.3-430.8v8.7h-1.5l-3.4-7.5h0v7.5h-1v-8.7h1.6l3.4,7.4h0v-7.4H-1418.3z"/>
						<path fill="#FDD700" d="M-1412.4-422.2h-1.1v-8.7h1.1V-422.2z"/>
						<path fill="#FDD700" d="M-1409.1-422.2h-1.1v-8.7h1.1V-422.2z"/>
						<path fill="#FDD700" d="M-1405.7-422.2h-1.1v-8.7h1.1V-422.2z"/>
					</g>
				</g>
			</g>
			<g id="IT_IT_32_-_NONE_347_00000098930437255350018570000001358359578663174057_" transform="translate(1312.5,637.5)">
				<g id="g172764_00000056406477104620268940000002594395483079103383_" transform="translate(-450,-1500)">
					
						<rect id="rect172762_00000000928684979037368610000000729916037822011798_" x="-787.5" y="862.5" fill="#010101" width="75" height="75"/>
				</g>
			</g>
		</g>
	</g>
</g>
<g id="text" display="none">
	
		<rect id="frontbox" x="-1237.5" y="-637.5" display="inline" fill="none" stroke="#000000" stroke-miterlimit="10" width="1650" height="1275"/>
	<g id="align" display="inline">
	</g>
</g>
<g id="crop" display="none">
	<g id="front" display="inline">
		<g>
			<line fill="none" stroke="#939598" stroke-miterlimit="10" x1="-384.4" y1="0" x2="384.4" y2="0"/>
			<line fill="none" stroke="#939598" stroke-miterlimit="10" x1="-384.4" y1="75" x2="384.4" y2="75"/>
			<line fill="none" stroke="#939598" stroke-miterlimit="10" x1="0" y1="-9.4" x2="0" y2="159.4"/>
			<line fill="none" stroke="#939598" stroke-miterlimit="10" x1="75" y1="-9.4" x2="75" y2="159.4"/>
		</g>
	</g>
</g>
<g id="guides" display="none">
</g>
</svg>
