<?xml version="1.0" encoding="utf-8"?>
<!-- Generator: Adobe Illustrator 26.0.3, SVG Export Plug-In . SVG Version: 6.00 Build 0)  -->
<svg version="1.2" baseProfile="tiny" xmlns="http://www.w3.org/2000/svg" xmlns:xlink="http://www.w3.org/1999/xlink" x="0px"
	 y="0px" viewBox="0 0 75 75" overflow="visible" xml:space="preserve">
<g id="svg">
	<g>
		<g id="cs_layer_CNA_0002_00000023283088047694392320000015410210321053132443_">
			<g id="g169366_00000060018564281457370690000011209304467157080227_">
			</g>
			<g id="IT_IT_7_-_7CCNN_III_344_00000088812406662529091580000002804857424670990467_" transform="translate(1087.5,637.5)">
				<g id="g172698_00000072988354290907593780000013620050803717481147_" transform="translate(-450,-1500)">
					
						<rect id="rect172696_00000113315706470729481090000016124613171536545428_" x="-637.5" y="862.5" fill="#010101" width="75" height="75"/>
				</g>
				<g id="g172715_00000096032748989248251590000017064299830373695652_" transform="translate(229.688,-150)">
					<g>
						<path fill="#FDD700" d="M-1251.5-467.9v17h-26.5v-17H-1251.5z M-1276.6-465.7v12.5l10.4-6.3L-1276.6-465.7z M-1254.3-466.5
							h-20.9l10.4,6.3L-1254.3-466.5z M-1275.2-452.3h20.9l-10.4-6.3L-1275.2-452.3z M-1263.4-459.4l10.4,6.3v-12.5L-1263.4-459.4z"
							/>
					</g>
					<g>
						<path fill="#FDD700" d="M-1283.1-446.7h6.5v1.4l-3.3,11.1h-1.9l3.5-11.1h-4.8V-446.7z"/>
					</g>
					<g>
						<path fill="#FDD700" d="M-1267.3-478.2h1v7.2h-1V-478.2z"/>
						<path fill="#FDD700" d="M-1264.6-478.2h1v7.2h-1V-478.2z"/>
					</g>
					<g>
						<path fill="#FDD700" d="M-1288-463.6c-0.7,0.6-1.8,1.2-2.6,1.6v-1.6c1-0.5,2.1-1.2,2.7-1.7h1.4v11.1h-1.5V-463.6z"/>
					</g>
					<g>
						<path fill="#FDD700" d="M-1304.3-430.5h4.3v1l-2.2,7.4h-1.2l2.3-7.4h-3.2V-430.5z"/>
						<path fill="#FDD700" d="M-1291.9-428.4c0-0.5,0-1-0.3-1.3c-0.2-0.3-0.7-0.4-1-0.4c-0.9,0-1.3,0.6-1.3,0.7
							c0,0.1-0.3,0.3-0.3,1.8v2.3c0,2.1,0.7,2.4,1.5,2.4c0.3,0,1.4-0.1,1.4-1.8h1.1c0,2.7-1.9,2.7-2.4,2.7c-1.1,0-2.7-0.1-2.7-3.4
							v-2.4c0-2.4,1.1-3.1,2.8-3.1c1.7,0,2.4,0.9,2.3,2.6H-1291.9z"/>
						<path fill="#FDD700" d="M-1285.2-428.4c0-0.5,0-1-0.3-1.3c-0.2-0.3-0.7-0.4-1-0.4c-0.9,0-1.3,0.6-1.3,0.7
							c0,0.1-0.3,0.3-0.3,1.8v2.3c0,2.1,0.7,2.4,1.5,2.4c0.3,0,1.4-0.1,1.4-1.8h1.1c0,2.7-1.9,2.7-2.4,2.7c-1.1,0-2.7-0.1-2.7-3.4
							v-2.4c0-2.4,1.1-3.1,2.8-3.1c1.7,0,2.4,0.9,2.3,2.6H-1285.2z"/>
						<path fill="#FDD700" d="M-1276.3-430.8v8.7h-1.5l-3.4-7.5h0v7.5h-1v-8.7h1.6l3.4,7.4h0v-7.4H-1276.3z"/>
						<path fill="#FDD700" d="M-1268.3-430.8v8.7h-1.5l-3.4-7.5h0v7.5h-1v-8.7h1.6l3.4,7.4h0v-7.4H-1268.3z"/>
						<path fill="#FDD700" d="M-1262.4-422.2h-1.1v-8.7h1.1V-422.2z"/>
						<path fill="#FDD700" d="M-1259.1-422.2h-1.1v-8.7h1.1V-422.2z"/>
						<path fill="#FDD700" d="M-1255.7-422.2h-1.1v-8.7h1.1V-422.2z"/>
					</g>
				</g>
			</g>
			<g id="IT_IT_59_-_9CCNN_III_345_00000003811754524116942950000017895977845869716642_" transform="translate(1162.5,637.5)">
				<g id="g172720_00000080189095491423474640000013495867321471645860_" transform="translate(-450,-1500)">
					
						<rect id="rect172718_00000160176121982338555120000012286740739341771686_" x="-637.5" y="862.5" fill="#010101" width="75" height="75"/>
				</g>
			</g>
		</g>
	</g>
</g>
<g id="text" display="none">
	
		<rect id="frontbox" x="-1087.5" y="-637.5" display="inline" fill="none" stroke="#000000" stroke-miterlimit="10" width="1650" height="1275"/>
	<g id="align" display="inline">
	</g>
</g>
<g id="crop" display="none">
	<g id="front" display="inline">
		<g>
			<line fill="none" stroke="#939598" stroke-miterlimit="10" x1="-234.4" y1="0" x2="534.4" y2="0"/>
			<line fill="none" stroke="#939598" stroke-miterlimit="10" x1="-234.4" y1="75" x2="534.4" y2="75"/>
			<line fill="none" stroke="#939598" stroke-miterlimit="10" x1="0" y1="-9.4" x2="0" y2="159.4"/>
			<line fill="none" stroke="#939598" stroke-miterlimit="10" x1="75" y1="-9.4" x2="75" y2="159.4"/>
		</g>
	</g>
</g>
<g id="guides" display="none">
</g>
</svg>
