<?xml version="1.0" encoding="utf-8"?>
<!-- Generator: Adobe Illustrator 26.0.3, SVG Export Plug-In . SVG Version: 6.00 Build 0)  -->
<svg version="1.2" baseProfile="tiny" xmlns="http://www.w3.org/2000/svg" xmlns:xlink="http://www.w3.org/1999/xlink" x="0px"
	 y="0px" viewBox="0 0 75 75" overflow="visible" xml:space="preserve">
<g id="svg">
	<g>
		<g id="cs_layer_CNA_0002_00000023283088047694392320000015410210321053132443_">
			<g id="g169366_00000060018564281457370690000011209304467157080227_">
			</g>
			<g id="IT_IT_33_-_NONE_348_00000111891469746087911480000015198633512133960076_" transform="translate(1387.5,637.5)">
				<g id="g172786_00000176738690919630807820000005403015560502538157_" transform="translate(-450,-1500)">
					
						<rect id="rect172784_00000075120904602207418610000003880599756913710727_" x="-937.5" y="862.5" fill="#010101" width="75" height="75"/>
				</g>
				<g id="g172803_00000084495379203745932390000014377177448706111408_" transform="translate(229.688,-150)">
					<g>
						<path fill="#FDD700" d="M-1551.5-467.9v17h-26.5v-17H-1551.5z M-1576.6-465.7v12.5l10.4-6.3L-1576.6-465.7z M-1554.3-466.5
							h-20.9l10.4,6.3L-1554.3-466.5z M-1575.2-452.3h20.9l-10.4-6.3L-1575.2-452.3z M-1563.4-459.4l10.4,6.3v-12.5L-1563.4-459.4z"
							/>
					</g>
					<g>
						<path fill="#FDD700" d="M-1584.6-441.5c1.5,0.1,2.6-0.5,2.6-2.1c0-1.1-0.5-2-1.7-2c-1.4,0-1.6,1-1.6,2h-1.7
							c-0.1-2.1,0.9-3.4,3.2-3.4c2.1,0,3.4,1.1,3.4,3.2c0,2.4-1.7,2.7-2.5,2.9v0c2,0.3,2.6,1.3,2.6,3.2c0,2.4-1.3,3.6-3.7,3.6
							c-3.5,0-3.2-3-3.2-3.7h1.7c0,1.2,0.2,2.3,1.7,2.3c1.5,0,1.9-0.9,1.9-2.3c0-2-0.8-2.4-2.7-2.4V-441.5z"/>
						<path fill="#FDD700" d="M-1576.6-441.5c1.5,0.1,2.6-0.5,2.6-2.1c0-1.1-0.5-2-1.7-2c-1.4,0-1.6,1-1.6,2h-1.7
							c-0.1-2.1,0.9-3.4,3.2-3.4c2.1,0,3.4,1.1,3.4,3.2c0,2.4-1.7,2.7-2.5,2.9v0c2,0.3,2.6,1.3,2.6,3.2c0,2.4-1.3,3.6-3.7,3.6
							c-3.5,0-3.2-3-3.2-3.7h1.7c0,1.2,0.2,2.3,1.7,2.3c1.5,0,1.9-0.9,1.9-2.3c0-2-0.8-2.4-2.7-2.4V-441.5z"/>
					</g>
					<g>
						<path fill="#FDD700" d="M-1567.3-478.2h1v7.2h-1V-478.2z"/>
						<path fill="#FDD700" d="M-1564.6-478.2h1v7.2h-1V-478.2z"/>
					</g>
					<g>
						<path fill="#FDD700" d="M-1588-463.6c-0.7,0.6-1.8,1.2-2.6,1.6v-1.6c1-0.5,2.1-1.2,2.7-1.7h1.4v11.1h-1.5V-463.6z"/>
					</g>
					<g>
						<path fill="#FDD700" d="M-1582.9-425.9h2.6v0.9h-2.6V-425.9z"/>
						<path fill="#FDD700" d="M-1578.9-425.9h2.6v0.9h-2.6V-425.9z"/>
					</g>
				</g>
			</g>
			<g id="IT_IT_56_-_NONE_349_00000028284926190831678470000016829200184256663955_" transform="translate(1462.5,637.5)">
				<g id="g172808_00000150788413075247479950000014504390437279657140_" transform="translate(-450,-1500)">
					
						<rect id="rect172806_00000103953687252367201270000012073673941378472834_" x="-937.5" y="862.5" fill="#010101" width="75" height="75"/>
				</g>
			</g>
		</g>
	</g>
</g>
<g id="text" display="none">
	
		<rect id="frontbox" x="-1387.5" y="-637.5" display="inline" fill="none" stroke="#000000" stroke-miterlimit="10" width="1650" height="1275"/>
	<g id="align" display="inline">
	</g>
</g>
<g id="crop" display="none">
	<g id="front" display="inline">
		<g>
			<line fill="none" stroke="#939598" stroke-miterlimit="10" x1="-534.4" y1="0" x2="234.4" y2="0"/>
			<line fill="none" stroke="#939598" stroke-miterlimit="10" x1="-534.4" y1="75" x2="234.4" y2="75"/>
			<line fill="none" stroke="#939598" stroke-miterlimit="10" x1="0" y1="-9.4" x2="0" y2="159.4"/>
			<line fill="none" stroke="#939598" stroke-miterlimit="10" x1="75" y1="-9.4" x2="75" y2="159.4"/>
		</g>
	</g>
</g>
<g id="guides" display="none">
</g>
</svg>
