<?xml version="1.0" encoding="utf-8"?>
<!-- Generator: Adobe Illustrator 26.0.3, SVG Export Plug-In . SVG Version: 6.00 Build 0)  -->
<svg version="1.2" baseProfile="tiny" xmlns="http://www.w3.org/2000/svg" xmlns:xlink="http://www.w3.org/1999/xlink" x="0px"
	 y="0px" viewBox="0 0 75 75" overflow="visible" xml:space="preserve">
<g id="svg">
	<g>
		<g id="cs_layer_CNA_0002_00000023283088047694392320000015410210321053132443_">
			<g id="g169366_00000060018564281457370690000011209304467157080227_">
			</g>
			<g id="IT_IT_56_-_NONE_349_00000028284926190831678470000016829200184256663955_" transform="translate(1462.5,637.5)">
				<g id="g172808_00000150788413075247479950000014504390437279657140_" transform="translate(-450,-1500)">
					
						<rect id="rect172806_00000103953687252367201270000012073673941378472834_" x="-1012.5" y="862.5" fill="#010101" width="75" height="75"/>
				</g>
				<g id="g172825_00000012454219723630169520000007634591316415284641_" transform="translate(229.688,-150)">
					<g>
						<path fill="#FDD700" d="M-1626.5-467.9v17h-26.5v-17H-1626.5z M-1651.6-465.7v12.5l10.4-6.3L-1651.6-465.7z M-1629.3-466.5
							h-20.9l10.4,6.3L-1629.3-466.5z M-1650.2-452.3h20.9l-10.4-6.3L-1650.2-452.3z M-1638.4-459.4l10.4,6.3v-12.5L-1638.4-459.4z"
							/>
					</g>
					<g>
						<path fill="#FDD700" d="M-1655.8-446.7v1.4h-4.2v3.6l0,0c0.3-0.5,1.1-0.9,2-0.9c1.8,0,2.6,1.3,2.6,4.2c0,2-0.3,4.4-3.4,4.4
							c-2.6,0-3.1-1.4-3.1-3.1h1.7c0,1,0.4,1.9,1.5,1.9c1.6,0,1.7-1.5,1.7-2.8c0-1.8-0.1-3.2-1.6-3.2c-0.9,0-1.4,0.6-1.5,1.5h-1.5
							v-7H-1655.8z"/>
						<path fill="#FDD700" d="M-1654-440.4c0-3.4-0.1-6.5,3.4-6.5c1.9,0,3.2,1.2,3.1,3h-1.7c0-0.9-0.5-1.8-1.5-1.8
							c-1.4,0-1.7,1.2-1.7,4.5h0c0.4-0.7,1.2-1.2,2-1.2c1.6,0,3,0.9,3,4.2c0,2.2-0.9,4.2-3.3,4.2C-1654.1-434-1654-437.2-1654-440.4
							z M-1650.6-435.4c1.4,0,1.6-1.5,1.6-3.1c0-1.1-0.3-2.5-1.7-2.5c-1.5,0-1.7,1.6-1.7,2.7
							C-1652.4-437.1-1652.2-435.4-1650.6-435.4z"/>
					</g>
					<g>
						<path fill="#FDD700" d="M-1642.3-478.2h1v7.2h-1V-478.2z"/>
						<path fill="#FDD700" d="M-1639.6-478.2h1v7.2h-1V-478.2z"/>
					</g>
					<g>
						<path fill="#FDD700" d="M-1662.9-465.6c3.3,0,3.7,3.6,3.7,5.6c0,2.6-0.5,4.1-1.5,5c-0.8,0.7-1.7,0.8-2.2,0.8
							c-1.5,0-2.5-0.9-3-1.8c-0.4-0.7-0.7-1.8-0.7-3.8C-1666.6-461.3-1666.4-465.6-1662.9-465.6z M-1662.9-455.4
							c1.9,0,2.2-2.4,2.2-4.4c0-2.7-0.5-4.5-2.1-4.5c-1.9,0-2.2,2.5-2.2,4.5C-1665-457.3-1664.6-455.4-1662.9-455.4z"/>
					</g>
					<g>
						<path fill="#FDD700" d="M-1657.9-425.9h2.6v0.9h-2.6V-425.9z"/>
						<path fill="#FDD700" d="M-1653.9-425.9h2.6v0.9h-2.6V-425.9z"/>
					</g>
				</g>
			</g>
			<g id="IT_IT_140_-_NONE_350_00000050620823344156283450000011471406855444189097_" transform="translate(1537.5,637.5)">
				<g id="g172830_00000161617197928854801790000005268332345372436133_" transform="translate(-450,-1500)">
					
						<rect id="rect172828_00000022527060492599733120000001092842990681421245_" x="-1012.5" y="862.5" fill="#010101" width="75" height="75"/>
				</g>
			</g>
		</g>
	</g>
</g>
<g id="text" display="none">
	
		<rect id="frontbox" x="-1462.5" y="-637.5" display="inline" fill="none" stroke="#000000" stroke-miterlimit="10" width="1650" height="1275"/>
	<g id="align" display="inline">
	</g>
</g>
<g id="crop" display="none">
	<g id="front" display="inline">
		<g>
			<line fill="none" stroke="#939598" stroke-miterlimit="10" x1="-609.4" y1="0" x2="159.4" y2="0"/>
			<line fill="none" stroke="#939598" stroke-miterlimit="10" x1="-609.4" y1="75" x2="159.4" y2="75"/>
			<line fill="none" stroke="#939598" stroke-miterlimit="10" x1="0" y1="-9.4" x2="0" y2="159.4"/>
			<line fill="none" stroke="#939598" stroke-miterlimit="10" x1="75" y1="-9.4" x2="75" y2="159.4"/>
		</g>
	</g>
</g>
<g id="guides" display="none">
</g>
</svg>
