<?xml version="1.0" encoding="utf-8"?>
<!-- Generator: Adobe Illustrator 26.0.3, SVG Export Plug-In . SVG Version: 6.00 Build 0)  -->
<svg version="1.2" baseProfile="tiny" xmlns="http://www.w3.org/2000/svg" xmlns:xlink="http://www.w3.org/1999/xlink" x="0px"
	 y="0px" viewBox="0 0 75 75" overflow="visible" xml:space="preserve">
<g id="svg">
	<g>
		<g id="cs_layer_CNA_0002_00000023283088047694392320000015410210321053132443_">
			<g id="g169366_00000060018564281457370690000011209304467157080227_">
			</g>
			<g id="IT_IT_204_-_4CCNN__ART__342_00000000912290593136983950000005553164018014883746_" transform="translate(937.5,637.5)">
				<g id="g172654_00000072255777160307996900000014194127448233152702_" transform="translate(-450,-1500)">
					
						<rect id="rect172652_00000042732379711523683820000003810971651466150589_" x="-487.5" y="862.5" fill="#010101" width="75" height="75"/>
				</g>
				<g id="g172671_00000011744659469069049480000000076842929100066723_" transform="translate(229.688,-150)">
					<g>
						<path fill="#FDD700" d="M-1101.5-467.9v17h-26.5v-17H-1101.5z M-1103-466.5h-23.6v14.2h23.6V-466.5z M-1117.6-459.4
							c0-1.4,1.2-2.6,2.8-2.6s2.8,1.2,2.8,2.6c0,1.4-1.2,2.6-2.8,2.6S-1117.6-458-1117.6-459.4z"/>
					</g>
					<g>
						<path fill="#FDD700" d="M-1140.9-434.2v-1.4c3.7-5.1,4.7-6,4.7-8.2c0-1-0.5-1.7-1.5-1.7c-1.2,0-1.5,1-1.5,2h-1.7
							c-0.1-2.1,0.9-3.4,3-3.4c2.3,0,3.3,1,3.3,3.3c0,2.8-1.4,3.7-4.6,8h5v1.4H-1140.9z"/>
						<path fill="#FDD700" d="M-1126.3-440.4c0,3.3,0,6.5-3.4,6.5s-3.4-3.2-3.4-6.5c0-3.4-0.1-6.5,3.4-6.5
							S-1126.3-443.8-1126.3-440.4z M-1131.4-440.1c0,2.1-0.1,4.8,1.7,4.8c1.8,0,1.7-2.6,1.7-4.8c0-3.4,0-5.4-1.7-5.4
							S-1131.4-443.5-1131.4-440.1z"/>
						<path fill="#FDD700" d="M-1125.2-437.3v-1.4l3.5-8h2.2v8h1.5v1.4h-1.5v3h-1.5v-3H-1125.2z M-1121.1-438.7v-6.5h0l-2.7,6.5
							H-1121.1z"/>
					</g>
					<g>
						<path fill="#FDD700" d="M-1117.3-478.2h1v7.2h-1V-478.2z"/>
						<path fill="#FDD700" d="M-1114.6-478.2h1v7.2h-1V-478.2z"/>
					</g>
					<g>
						<path fill="#FDD700" d="M-1138-463.6c-0.7,0.6-1.8,1.2-2.6,1.6v-1.6c1-0.5,2.1-1.2,2.7-1.7h1.4v11.1h-1.5V-463.6z"/>
					</g>
					<g>
						<path fill="#FDD700" d="M-1148-424.2v-1l2.4-5.3h1.5v5.3h1v1h-1v2h-1v-2H-1148z M-1145.2-425.2v-4.3h0l-1.8,4.3H-1145.2z"/>
						<path fill="#FDD700" d="M-1135.5-428.4c0-0.5,0-1-0.3-1.3c-0.2-0.3-0.7-0.4-1-0.4c-0.9,0-1.3,0.6-1.3,0.7
							c0,0.1-0.3,0.3-0.3,1.8v2.3c0,2.1,0.7,2.4,1.5,2.4c0.3,0,1.4-0.1,1.4-1.8h1.1c0,2.7-1.9,2.7-2.4,2.7c-1.1,0-2.7-0.1-2.7-3.4
							v-2.4c0-2.4,1.1-3.1,2.8-3.1c1.7,0,2.4,0.9,2.3,2.6H-1135.5z"/>
						<path fill="#FDD700" d="M-1128.8-428.4c0-0.5,0-1-0.3-1.3c-0.2-0.3-0.7-0.4-1-0.4c-0.9,0-1.3,0.6-1.3,0.7
							c0,0.1-0.3,0.3-0.3,1.8v2.3c0,2.1,0.7,2.4,1.5,2.4c0.3,0,1.4-0.1,1.4-1.8h1.1c0,2.7-1.9,2.7-2.4,2.7c-1.1,0-2.7-0.1-2.7-3.4
							v-2.4c0-2.4,1.1-3.1,2.8-3.1c1.7,0,2.4,0.9,2.3,2.6H-1128.8z"/>
						<path fill="#FDD700" d="M-1120-430.8v8.7h-1.5l-3.4-7.5h0v7.5h-1v-8.7h1.6l3.4,7.4h0v-7.4H-1120z"/>
						<path fill="#FDD700" d="M-1112-430.8v8.7h-1.5l-3.4-7.5h0v7.5h-1v-8.7h1.6l3.4,7.4h0v-7.4H-1112z"/>
					</g>
				</g>
			</g>
			<g id="IT_IT_204_-_4CCNN__ENG__343_00000146470422586822415130000016634381026033828501_" transform="translate(1012.5,637.5)">
				<g id="g172676_00000165939173342224780280000009920347030762584761_" transform="translate(-450,-1500)">
					
						<rect id="rect172674_00000133527783476958151890000017030168659382398357_" x="-487.5" y="862.5" fill="#010101" width="75" height="75"/>
				</g>
			</g>
		</g>
	</g>
</g>
<g id="text" display="none">
	
		<rect id="frontbox" x="-937.5" y="-637.5" display="inline" fill="none" stroke="#000000" stroke-miterlimit="10" width="1650" height="1275"/>
	<g id="align" display="inline">
	</g>
</g>
<g id="crop" display="none">
	<g id="front" display="inline">
		<g>
			<line fill="none" stroke="#939598" stroke-miterlimit="10" x1="-84.4" y1="0" x2="684.4" y2="0"/>
			<line fill="none" stroke="#939598" stroke-miterlimit="10" x1="-84.4" y1="75" x2="684.4" y2="75"/>
			<line fill="none" stroke="#939598" stroke-miterlimit="10" x1="0" y1="-9.4" x2="0" y2="159.4"/>
			<line fill="none" stroke="#939598" stroke-miterlimit="10" x1="75" y1="-9.4" x2="75" y2="159.4"/>
		</g>
	</g>
</g>
<g id="guides" display="none">
</g>
</svg>
