<?xml version="1.0" encoding="utf-8"?>
<!-- Generator: Adobe Illustrator 26.0.3, SVG Export Plug-In . SVG Version: 6.00 Build 0)  -->
<svg version="1.2" baseProfile="tiny" xmlns="http://www.w3.org/2000/svg" xmlns:xlink="http://www.w3.org/1999/xlink" x="0px"
	 y="0px" viewBox="0 0 75 75" overflow="visible" xml:space="preserve">
<g id="svg">
	<g>
		<g id="cs_layer_CNA_0002_00000023283088047694392320000015410210321053132443_">
			<g id="g169366_00000060018564281457370690000011209304467157080227_">
			</g>
			<g id="IT_IT_59_-_9CCNN_III_345_00000003811754524116942950000017895977845869716642_" transform="translate(1162.5,637.5)">
				<g id="g172720_00000080189095491423474640000013495867321471645860_" transform="translate(-450,-1500)">
					
						<rect id="rect172718_00000160176121982338555120000012286740739341771686_" x="-712.5" y="862.5" fill="#010101" width="75" height="75"/>
				</g>
				<g id="g172737_00000042706749801351525370000001738422183036464771_" transform="translate(229.688,-150)">
					<g>
						<path fill="#FDD700" d="M-1326.5-467.9v17h-26.5v-17H-1326.5z M-1351.6-465.7v12.5l10.4-6.3L-1351.6-465.7z M-1329.3-466.5
							h-20.9l10.4,6.3L-1329.3-466.5z M-1350.2-452.3h20.9l-10.4-6.3L-1350.2-452.3z M-1338.4-459.4l10.4,6.3v-12.5L-1338.4-459.4z"
							/>
					</g>
					<g>
						<path fill="#FDD700" d="M-1355.8-446.7v1.4h-4.2v3.6l0,0c0.3-0.5,1.1-0.9,2-0.9c1.8,0,2.6,1.3,2.6,4.2c0,2-0.3,4.4-3.4,4.4
							c-2.6,0-3.1-1.4-3.1-3.1h1.7c0,1,0.4,1.9,1.5,1.9c1.6,0,1.7-1.5,1.7-2.8c0-1.8-0.1-3.2-1.6-3.2c-0.9,0-1.4,0.6-1.5,1.5h-1.5
							v-7H-1355.8z"/>
						<path fill="#FDD700" d="M-1347.3-440.4c0,3.3,0,6.5-3.4,6.5c-1.9,0-3.1-1.3-3.1-3.3h1.7c0,0.9,0.4,1.9,1.4,1.9
							c1.6,0,1.7-1.8,1.7-5h0c-0.4,0.9-1.2,1.2-2.1,1.2c-1,0-2.9-0.5-2.9-3.9c0-2.8,1.7-3.8,3.3-3.8
							C-1347.3-446.9-1347.3-443.8-1347.3-440.4z M-1352.4-443.1c0,1.2,0.2,2.6,1.7,2.6s1.7-1.4,1.7-2.6c0-1.1-0.3-2.6-1.7-2.6
							S-1352.4-444.3-1352.4-443.1z"/>
					</g>
					<g>
						<path fill="#FDD700" d="M-1342.3-478.2h1v7.2h-1V-478.2z"/>
						<path fill="#FDD700" d="M-1339.6-478.2h1v7.2h-1V-478.2z"/>
					</g>
					<g>
						<path fill="#FDD700" d="M-1363-463.6c-0.7,0.6-1.8,1.2-2.6,1.6v-1.6c1-0.5,2.1-1.2,2.7-1.7h1.4v11.1h-1.5V-463.6z"/>
					</g>
					<g>
						<path fill="#FDD700" d="M-1374.7-426.3c0,2.2,0,4.3-2.2,4.3c-1.2,0-2.1-0.9-2.1-2.2h1.1c0,0.6,0.2,1.2,0.9,1.2
							c1.1,0,1.1-1.2,1.1-3.3h0c-0.3,0.6-0.8,0.8-1.4,0.8c-0.7,0-1.9-0.3-1.9-2.6c0-1.9,1.1-2.6,2.2-2.6
							C-1374.7-430.6-1374.7-428.5-1374.7-426.3z M-1378.1-428.1c0,0.8,0.2,1.7,1.1,1.7c1,0,1.1-0.9,1.1-1.7c0-0.8-0.2-1.7-1.1-1.7
							C-1377.9-429.8-1378.1-428.9-1378.1-428.1z"/>
						<path fill="#FDD700" d="M-1366.9-428.4c0-0.5,0-1-0.3-1.3c-0.2-0.3-0.7-0.4-1-0.4c-0.9,0-1.3,0.6-1.3,0.7
							c0,0.1-0.3,0.3-0.3,1.8v2.3c0,2.1,0.7,2.4,1.5,2.4c0.3,0,1.4-0.1,1.4-1.8h1.1c0,2.7-1.9,2.7-2.4,2.7c-1.1,0-2.7-0.1-2.7-3.4
							v-2.4c0-2.4,1.1-3.1,2.8-3.1c1.7,0,2.4,0.9,2.3,2.6H-1366.9z"/>
						<path fill="#FDD700" d="M-1360.2-428.4c0-0.5,0-1-0.3-1.3c-0.2-0.3-0.7-0.4-1-0.4c-0.9,0-1.3,0.6-1.3,0.7
							c0,0.1-0.3,0.3-0.3,1.8v2.3c0,2.1,0.7,2.4,1.5,2.4c0.3,0,1.4-0.1,1.4-1.8h1.1c0,2.7-1.9,2.7-2.4,2.7c-1.1,0-2.7-0.1-2.7-3.4
							v-2.4c0-2.4,1.1-3.1,2.8-3.1c1.7,0,2.4,0.9,2.3,2.6H-1360.2z"/>
						<path fill="#FDD700" d="M-1351.3-430.8v8.7h-1.5l-3.4-7.5h0v7.5h-1v-8.7h1.6l3.4,7.4h0v-7.4H-1351.3z"/>
						<path fill="#FDD700" d="M-1343.3-430.8v8.7h-1.5l-3.4-7.5h0v7.5h-1v-8.7h1.6l3.4,7.4h0v-7.4H-1343.3z"/>
						<path fill="#FDD700" d="M-1337.4-422.2h-1.1v-8.7h1.1V-422.2z"/>
						<path fill="#FDD700" d="M-1334.1-422.2h-1.1v-8.7h1.1V-422.2z"/>
						<path fill="#FDD700" d="M-1330.7-422.2h-1.1v-8.7h1.1V-422.2z"/>
					</g>
				</g>
			</g>
			<g id="IT_IT_60_-_9CCNN_III_346_00000005228009408160069980000003265738113794277018_" transform="translate(1237.5,637.5)">
				<g id="g172742_00000152231340816475353250000014365483627638146703_" transform="translate(-450,-1500)">
					
						<rect id="rect172740_00000091013227277852584870000014308070319348656305_" x="-712.5" y="862.5" fill="#010101" width="75" height="75"/>
				</g>
			</g>
		</g>
	</g>
</g>
<g id="text" display="none">
	
		<rect id="frontbox" x="-1162.5" y="-637.5" display="inline" fill="none" stroke="#000000" stroke-miterlimit="10" width="1650" height="1275"/>
	<g id="align" display="inline">
	</g>
</g>
<g id="crop" display="none">
	<g id="front" display="inline">
		<g>
			<line fill="none" stroke="#939598" stroke-miterlimit="10" x1="-309.4" y1="0" x2="459.4" y2="0"/>
			<line fill="none" stroke="#939598" stroke-miterlimit="10" x1="-309.4" y1="75" x2="459.4" y2="75"/>
			<line fill="none" stroke="#939598" stroke-miterlimit="10" x1="0" y1="-9.4" x2="0" y2="159.4"/>
			<line fill="none" stroke="#939598" stroke-miterlimit="10" x1="75" y1="-9.4" x2="75" y2="159.4"/>
		</g>
	</g>
</g>
<g id="guides" display="none">
</g>
</svg>
