<?xml version="1.0" encoding="utf-8"?>
<!-- Generator: Adobe Illustrator 26.0.3, SVG Export Plug-In . SVG Version: 6.00 Build 0)  -->
<svg version="1.2" baseProfile="tiny" xmlns="http://www.w3.org/2000/svg" xmlns:xlink="http://www.w3.org/1999/xlink" x="0px"
	 y="0px" viewBox="0 0 75 75" overflow="visible" xml:space="preserve">
<g id="svg">
	<g>
		<g id="cs_layer_CNA_0002_00000023283088047694392320000015410210321053132443_">
			<g id="g169366_00000060018564281457370690000011209304467157080227_">
			</g>
			<g id="IT_IT_201BRS_-_1CCNN_351_00000012468335889006668900000010771226062612255398_" transform="translate(862.5,712.5)">
				<g id="g172852_00000173857101981167337920000001533360751656597388_" transform="translate(-450,-1500)">
					
						<rect id="rect172850_00000106846218869911898610000013617249299466694024_" x="-412.5" y="787.5" fill="#010101" width="75" height="75"/>
				</g>
				<g id="g172869_00000103226798375909306880000018353546956384795321_" transform="translate(229.688,-150)">
					<g>
						<path fill="#FDD700" d="M-1026.5-542.9v17h-26.5v-17H-1026.5z M-1051.6-541.5v13.4l22.3-13.4H-1051.6z M-1042.3-530.9
							c0-0.5,0.1-0.9,0.3-1.3l-8.2,4.9h11.4C-1040.7-527.3-1042.3-528.9-1042.3-530.9z M-1036.6-530.9c0-1.2-1-2.2-2.2-2.2
							c-1.2,0-2.2,1-2.2,2.2c0,0,0,0,0,0c0,1.2,1,2.2,2.2,2.2S-1036.6-529.7-1036.6-530.9z M-1038.7-527.3h7c-1.9,0-3.5-1.6-3.5-3.6
							C-1035.1-528.9-1036.7-527.3-1038.7-527.3z M-1028-530.9v-9.8l-10.4,6.2c1.8,0.2,3.2,1.7,3.2,3.5c0-2,1.6-3.6,3.6-3.6
							c0,0,0,0,0,0C-1029.6-534.5-1028-532.9-1028-530.9z M-1031.6-528.7c1.2,0,2.2-1,2.2-2.2s-1-2.2-2.2-2.2c-1.2,0-2.2,1-2.2,2.2
							c0,0,0,0,0,0C-1033.7-529.7-1032.7-528.7-1031.6-528.7z M-1028-530.9c0,2-1.6,3.5-3.5,3.6h3.5V-530.9z"/>
					</g>
					<g>
						<path fill="#FDD700" d="M-1078.4-509.2v-1.4c3.7-5.1,4.7-6,4.7-8.2c0-1-0.5-1.7-1.5-1.7c-1.2,0-1.5,1-1.5,2h-1.7
							c-0.1-2.1,0.9-3.4,3-3.4c2.3,0,3.3,1,3.3,3.3c0,2.8-1.4,3.7-4.6,8h5v1.4H-1078.4z"/>
						<path fill="#FDD700" d="M-1063.8-515.4c0,3.3,0,6.5-3.4,6.5c-3.4,0-3.4-3.2-3.4-6.5c0-3.4-0.1-6.5,3.4-6.5
							C-1063.8-521.9-1063.8-518.8-1063.8-515.4z M-1068.9-515.1c0,2.1-0.1,4.8,1.7,4.8c1.8,0,1.7-2.6,1.7-4.8c0-3.4,0-5.4-1.7-5.4
							C-1068.9-520.6-1068.9-518.5-1068.9-515.1z"/>
						<path fill="#FDD700" d="M-1058-509.2h-1.7v-10.7l-1.9,1.3v-1.6c0.4-0.2,1.6-1.1,2.1-1.5h1.4V-509.2z"/>
						<path fill="#FDD700" d="M-1053.6-509.2v-13h4.2c1.8,0,2.4,0.6,2.9,1.3c0.5,0.7,0.5,1.5,0.5,1.7c0,1.6-0.6,2.7-2.2,3.1v0.1
							c1.9,0.2,2.7,1.3,2.7,3.1c0,3.3-2.4,3.7-3.9,3.7H-1053.6z M-1051.9-516.8h2.4c1.3,0,1.9-0.8,1.9-2.1c0-1.1-0.6-2-2-2h-2.3
							V-516.8z M-1051.9-510.7h2.3c1.8,0,2.4-1.3,2.4-2.2c0-2.1-1.3-2.4-3-2.4h-1.8V-510.7z"/>
						<path fill="#FDD700" d="M-1041.4-517L-1041.4-517c0.6-1.4,1.4-1.5,2.8-1.5v1.5c-0.1,0-0.3,0-0.4-0.1c-0.1,0-0.3,0-0.4,0
							c-1.6,0-2.1,1.2-2.1,2.5v5.4h-1.5v-9.1h1.5V-517z"/>
						<path fill="#FDD700" d="M-1034.2-509.1c-2,0-3.2-0.9-3.1-3h1.7c0,0.5,0,1.7,1.5,1.7c0.9,0,1.6-0.5,1.6-1.4
							c0-1.6-4.5-1.7-4.5-4.4c0-1,0.6-2.5,3.1-2.5c1.6,0,3,0.8,2.9,2.6h-1.6c0-1-0.5-1.5-1.4-1.5c-0.8,0-1.4,0.4-1.4,1.2
							c0,1.6,4.5,1.6,4.5,4.3C-1031.1-509.8-1032.4-509.1-1034.2-509.1z"/>
					</g>
					<g>
						<path fill="#FDD700" d="M-1040.9-553.2h1v7.2h-1V-553.2z"/>
					</g>
					<g>
						<path fill="#FDD700" d="M-1063-538.6c-0.7,0.6-1.8,1.2-2.6,1.6v-1.6c1-0.5,2.1-1.2,2.7-1.7h1.4v11.1h-1.5V-538.6z"/>
					</g>
					<g>
						<path fill="#FDD700" d="M-1069.8-497.2h-1.1v-7.1l-1.2,0.8v-1.1c0.3-0.1,1.1-0.7,1.4-1h0.9V-497.2z"/>
						<path fill="#FDD700" d="M-1060.5-503.4c0-0.5,0-1-0.3-1.3c-0.2-0.3-0.7-0.4-1-0.4c-0.9,0-1.3,0.6-1.3,0.7
							c0,0.1-0.3,0.3-0.3,1.8v2.3c0,2.1,0.7,2.4,1.5,2.4c0.3,0,1.4-0.1,1.4-1.8h1.1c0,2.7-1.9,2.7-2.4,2.7c-1.1,0-2.7-0.1-2.7-3.4
							v-2.4c0-2.4,1.1-3.1,2.8-3.1c1.7,0,2.4,0.9,2.3,2.6H-1060.5z"/>
						<path fill="#FDD700" d="M-1053.8-503.4c0-0.5,0-1-0.3-1.3c-0.2-0.3-0.7-0.4-1-0.4c-0.9,0-1.3,0.6-1.3,0.7
							c0,0.1-0.3,0.3-0.3,1.8v2.3c0,2.1,0.7,2.4,1.5,2.4c0.3,0,1.4-0.1,1.4-1.8h1.1c0,2.7-1.9,2.7-2.4,2.7c-1.1,0-2.7-0.1-2.7-3.4
							v-2.4c0-2.4,1.1-3.1,2.8-3.1c1.7,0,2.4,0.9,2.3,2.6H-1053.8z"/>
						<path fill="#FDD700" d="M-1045-505.8v8.7h-1.5l-3.4-7.5h0v7.5h-1v-8.7h1.6l3.4,7.4h0v-7.4H-1045z"/>
						<path fill="#FDD700" d="M-1037-505.8v8.7h-1.5l-3.4-7.5h0v7.5h-1v-8.7h1.6l3.4,7.4h0v-7.4H-1037z"/>
					</g>
				</g>
			</g>
		</g>
	</g>
</g>
<g id="text" display="none">
	
		<rect id="frontbox" x="-862.5" y="-712.5" display="inline" fill="none" stroke="#000000" stroke-miterlimit="10" width="1650" height="1275"/>
	<g id="align" display="inline">
	</g>
</g>
<g id="crop" display="none">
	<g id="front" display="inline">
		<g>
			<line fill="none" stroke="#939598" stroke-miterlimit="10" x1="-9.4" y1="0" x2="759.4" y2="0"/>
			<line fill="none" stroke="#939598" stroke-miterlimit="10" x1="-9.4" y1="75" x2="759.4" y2="75"/>
			<line fill="none" stroke="#939598" stroke-miterlimit="10" x1="0" y1="-84.4" x2="0" y2="84.4"/>
			<line fill="none" stroke="#939598" stroke-miterlimit="10" x1="75" y1="-84.4" x2="75" y2="84.4"/>
		</g>
	</g>
</g>
<g id="guides" display="none">
</g>
</svg>
