<?xml version="1.0" encoding="utf-8"?>
<!-- Generator: Adobe Illustrator 26.0.3, SVG Export Plug-In . SVG Version: 6.00 Build 0)  -->
<svg version="1.2" baseProfile="tiny" xmlns="http://www.w3.org/2000/svg" xmlns:xlink="http://www.w3.org/1999/xlink" x="0px"
	 y="0px" viewBox="0 0 75 75" overflow="visible" xml:space="preserve">
<g id="svg">
	<g>
		<g id="cs_layer_CNA_0002_00000023283088047694392320000015410210321053132443_">
			<g id="g169366_00000060018564281457370690000011209304467157080227_">
			</g>
			<g id="IT_IT_140_-_NONE_350_00000050620823344156283450000011471406855444189097_" transform="translate(1537.5,637.5)">
				<g id="g172830_00000161617197928854801790000005268332345372436133_" transform="translate(-450,-1500)">
					
						<rect id="rect172828_00000022527060492599733120000001092842990681421245_" x="-1087.5" y="862.5" fill="#010101" width="75" height="75"/>
				</g>
				<g id="g172847_00000005236489731068168810000000304396200775814043_" transform="translate(229.688,-150)">
					<g>
						<path fill="#FDD700" d="M-1701.5-467.9v17h-26.5v-17H-1701.5z M-1726.6-465.7v12.5l10.4-6.3L-1726.6-465.7z M-1704.3-466.5
							h-20.9l10.4,6.3L-1704.3-466.5z M-1725.2-452.3h20.9l-10.4-6.3L-1725.2-452.3z M-1713.4-459.4l10.4,6.3v-12.5L-1713.4-459.4z"
							/>
					</g>
					<g>
						<path fill="#FDD700" d="M-1736.5-434.2h-1.7v-10.7l-1.9,1.3v-1.6c0.4-0.2,1.6-1.1,2.1-1.5h1.4V-434.2z"/>
						<path fill="#FDD700" d="M-1733.2-437.3v-1.4l3.5-8h2.2v8h1.5v1.4h-1.5v3h-1.5v-3H-1733.2z M-1729.1-438.7v-6.5h0l-2.7,6.5
							H-1729.1z"/>
						<path fill="#FDD700" d="M-1718.3-440.4c0,3.3,0,6.5-3.4,6.5c-3.4,0-3.4-3.2-3.4-6.5c0-3.4-0.1-6.5,3.4-6.5
							S-1718.3-443.8-1718.3-440.4z M-1723.4-440.1c0,2.1-0.1,4.8,1.7,4.8c1.8,0,1.7-2.6,1.7-4.8c0-3.4,0-5.4-1.7-5.4
							S-1723.4-443.5-1723.4-440.1z"/>
					</g>
					<g>
						<path fill="#FDD700" d="M-1717.3-478.2h1v7.2h-1V-478.2z"/>
						<path fill="#FDD700" d="M-1714.6-478.2h1v7.2h-1V-478.2z"/>
					</g>
					<g>
						<path fill="#FDD700" d="M-1738-463.6c-0.7,0.6-1.8,1.2-2.6,1.6v-1.6c1-0.5,2.1-1.2,2.7-1.7h1.4v11.1h-1.5V-463.6z"/>
					</g>
					<g>
						<path fill="#FDD700" d="M-1732.9-425.9h2.6v0.9h-2.6V-425.9z"/>
						<path fill="#FDD700" d="M-1728.9-425.9h2.6v0.9h-2.6V-425.9z"/>
					</g>
				</g>
			</g>
		</g>
	</g>
</g>
<g id="text" display="none">
	
		<rect id="frontbox" x="-1537.5" y="-637.5" display="inline" fill="none" stroke="#000000" stroke-miterlimit="10" width="1650" height="1275"/>
	<g id="align" display="inline">
	</g>
</g>
<g id="crop" display="none">
	<g id="front" display="inline">
		<g>
			<line fill="none" stroke="#939598" stroke-miterlimit="10" x1="-684.4" y1="0" x2="84.4" y2="0"/>
			<line fill="none" stroke="#939598" stroke-miterlimit="10" x1="-684.4" y1="75" x2="84.4" y2="75"/>
			<line fill="none" stroke="#939598" stroke-miterlimit="10" x1="0" y1="-9.4" x2="0" y2="159.4"/>
			<line fill="none" stroke="#939598" stroke-miterlimit="10" x1="75" y1="-9.4" x2="75" y2="159.4"/>
		</g>
	</g>
</g>
<g id="guides" display="none">
</g>
</svg>
