<?xml version="1.0" encoding="utf-8"?>
<!-- Generator: Adobe Illustrator 26.0.3, SVG Export Plug-In . SVG Version: 6.00 Build 0)  -->
<svg version="1.2" baseProfile="tiny" xmlns="http://www.w3.org/2000/svg" xmlns:xlink="http://www.w3.org/1999/xlink" x="0px"
	 y="0px" viewBox="0 0 75 75" overflow="visible" xml:space="preserve">
<g id="svg">
	<g>
		<g id="cs_layer_CNA_0002_00000023283088047694392320000015410210321053132443_">
			<g id="g169366_00000060018564281457370690000011209304467157080227_">
			</g>
			<g id="AL_AL_1_GREEK_-_NONE_357_00000018200624153939918660000018313313638173115061_" transform="translate(1237.5,825)">
				<g id="g172986_00000103242178516574806680000009793927829078009753_" transform="translate(-450,-1500)">
					
						<rect id="rect172984_00000042703859336720003050000002137383981614690480_" x="-787.5" y="675" fill="#FAA51A" width="75" height="75"/>
				</g>
				<g id="g173005_00000016061270645554740240000005171680111721304719_" transform="translate(229.688,-150)">
					
						<rect id="rect172988_00000090271347553673647600000017662738018044853680_" x="-1467.2" y="-656.2" fill="#FDD700" width="75" height="18.8"/>
					<g>
						<path fill="#010101" d="M-1401.5-655.4v17h-26.5v-17H-1401.5z M-1426.6-653.2v12.5l10.4-6.3L-1426.6-653.2z M-1404.3-654
							h-20.9l10.4,6.3L-1404.3-654z M-1425.2-639.8h20.9l-10.4-6.3L-1425.2-639.8z M-1413.4-646.9l10.4,6.3v-12.5L-1413.4-646.9z"/>
					</g>
					<g>
						<path fill="#010101" d="M-1452-621.7h-1.7v-10.7l-1.9,1.3v-1.6c0.4-0.2,1.6-1.1,2.1-1.5h1.4V-621.7z"/>
						<path fill="#010101" d="M-1437.5-631.3c0-1.5-0.6-2.4-2.3-2.4c-0.5,0-2.4,0.1-2.4,2.8v4.4c0,2.8,0.8,3.6,2.4,3.6
							c1.2,0,2-0.3,2.3-0.6v-3.9h-2.4v-1.4h4.1v6.3c-1.1,0.6-2.3,1-4,1c-2.8,0-4.1-1.4-4.1-5v-4.3c0-2.6,1.3-4.2,4.1-4.2
							c2.8,0,4.1,1,4,3.7H-1437.5z"/>
						<path fill="#010101" d="M-1431.4-629.5L-1431.4-629.5c0.6-1.4,1.4-1.5,2.8-1.5v1.5c-0.1,0-0.3,0-0.4-0.1c-0.1,0-0.3,0-0.4,0
							c-1.6,0-2.1,1.2-2.1,2.5v5.4h-1.5v-9.1h1.5V-629.5z"/>
						<path fill="#010101" d="M-1425.5-625.8c0,2.5,0.7,3,1.8,3c1,0,1.5-0.8,1.6-1.7h1.6c0,2-1.3,2.9-3.2,2.9
							c-1.9,0-3.5-0.6-3.5-4.6c0-2.7,0.3-4.9,3.5-4.9c2.6,0,3.2,1.4,3.2,4.4v0.8H-1425.5z M-1421.9-626.9c0-2.6-0.7-3-1.8-3
							c-0.9,0-1.7,0.5-1.7,3H-1421.9z"/>
						<path fill="#010101" d="M-1416.5-625.8c0,2.5,0.7,3,1.8,3c1,0,1.5-0.8,1.6-1.7h1.6c0,2-1.3,2.9-3.2,2.9
							c-1.9,0-3.5-0.6-3.5-4.6c0-2.7,0.3-4.9,3.5-4.9c2.6,0,3.2,1.4,3.2,4.4v0.8H-1416.5z M-1412.9-626.9c0-2.6-0.7-3-1.8-3
							c-0.9,0-1.7,0.5-1.7,3H-1412.9z"/>
						<path fill="#010101" d="M-1407.4-621.7h-1.5v-13h1.5v7.8h0l2.8-3.9h1.8l-3,3.9l3.6,5.2h-1.9l-3.2-5.1h0V-621.7z"/>
					</g>
					<g>
						<path fill="#010101" d="M-1417.3-665.7l1.9,2.8l1.9-2.8h1.2l-2.6,3.5l2.7,3.8h-1.3l-2.1-3.1l-2.2,3.1h-1.2l2.8-3.8l-2.5-3.4
							H-1417.3z"/>
					</g>
					<g>
						<path fill="#010101" d="M-1438-651.1c-0.7,0.6-1.8,1.2-2.6,1.6v-1.6c1-0.5,2.1-1.2,2.7-1.7h1.4v11.1h-1.5V-651.1z"/>
					</g>
					<g>
						<path fill="#010101" d="M-1432.9-613.4h2.6v0.9h-2.6V-613.4z"/>
						<path fill="#010101" d="M-1428.9-613.4h2.6v0.9h-2.6V-613.4z"/>
					</g>
				</g>
			</g>
			<g id="AL_AL_1_PACF_-_1_FF_X_358_00000109751882495643977610000006796460037470371245_" transform="translate(1312.5,825)">
				<g id="g173010_00000028310609970740503350000009262702856968256959_" transform="translate(-450,-1500)">
					
						<rect id="rect173008_00000039095845587985615130000010203707330388816546_" x="-787.5" y="675" fill="#FAA51A" width="75" height="75"/>
				</g>
			</g>
		</g>
	</g>
</g>
<g id="text" display="none">
	
		<rect id="frontbox" x="-1237.5" y="-825" display="inline" fill="none" stroke="#000000" stroke-miterlimit="10" width="1650" height="1275"/>
	<g id="align" display="inline">
	</g>
</g>
<g id="crop" display="none">
	<g id="front" display="inline">
		<g>
			<line fill="none" stroke="#939598" stroke-miterlimit="10" x1="-384.4" y1="0" x2="384.4" y2="0"/>
			<line fill="none" stroke="#939598" stroke-miterlimit="10" x1="-384.4" y1="75" x2="384.4" y2="75"/>
			<line fill="none" stroke="#939598" stroke-miterlimit="10" x1="0" y1="-9.4" x2="0" y2="159.4"/>
			<line fill="none" stroke="#939598" stroke-miterlimit="10" x1="75" y1="-9.4" x2="75" y2="159.4"/>
		</g>
	</g>
</g>
<g id="guides" display="none">
</g>
</svg>
