<?xml version="1.0" encoding="utf-8"?>
<!-- Generator: Adobe Illustrator 26.0.3, SVG Export Plug-In . SVG Version: 6.00 Build 0)  -->
<svg version="1.2" baseProfile="tiny" xmlns="http://www.w3.org/2000/svg" xmlns:xlink="http://www.w3.org/1999/xlink" x="0px"
	 y="0px" viewBox="0 0 75 75" overflow="visible" xml:space="preserve">
<g id="svg">
	<g>
		<g id="cs_layer_CNA_0002_00000023283088047694392320000015410210321053132443_">
			<g id="g169366_00000060018564281457370690000011209304467157080227_">
			</g>
			<g id="AL_AL_1_FSLRS_-_1_FF_X_355_00000119116684177918145130000018225270676680581041_" transform="translate(1087.5,825)">
				<g id="g172942_00000053531519534645081230000009001259874970202514_" transform="translate(-450,-1500)">
					
						<rect id="rect172940_00000170974418350415445640000005915663060384762804_" x="-637.5" y="675" fill="#FAA51A" width="75" height="75"/>
				</g>
				<g id="g172959_00000008847803545121126030000006228019736513225379_" transform="translate(229.688,-150)">
					<g>
						<path fill="#010101" d="M-1251.5-655.4v17h-26.5v-17H-1251.5z M-1276.6-654v13.1l10.9-13.1H-1276.6z M-1275.7-639.8h21.8
							l-3.8-4.6h-14.2L-1275.7-639.8z M-1270.7-645.8h11.8l-5.9-7.1L-1270.7-645.8z M-1253-654h-10.9l10.9,13.1V-654z"/>
					</g>
					<g>
						<path fill="#010101" d="M-1297.5-621.7h-1.7v-10.7l-1.9,1.3v-1.6c0.4-0.2,1.6-1.1,2.1-1.5h1.4V-621.7z"/>
						<path fill="#010101" d="M-1289.3-621.7v-13h6.4v1.4h-4.8v4.2h4.5v1.4h-4.5v5.9H-1289.3z"/>
						<path fill="#010101" d="M-1278.7-621.6c-2,0-3.2-0.9-3.1-3h1.7c0,0.5,0,1.7,1.5,1.7c0.9,0,1.6-0.5,1.6-1.4
							c0-1.6-4.5-1.7-4.5-4.4c0-1,0.6-2.5,3.1-2.5c1.6,0,3,0.8,2.9,2.6h-1.6c0-1-0.5-1.5-1.4-1.5c-0.8,0-1.4,0.4-1.4,1.2
							c0,1.6,4.5,1.6,4.5,4.3C-1275.5-622.3-1276.9-621.6-1278.7-621.6z"/>
						<path fill="#010101" d="M-1272-621.7h-1.5v-13h1.5V-621.7z"/>
						<path fill="#010101" d="M-1267.9-629.5L-1267.9-629.5c0.6-1.4,1.4-1.5,2.8-1.5v1.5c-0.1,0-0.3,0-0.4-0.1c-0.1,0-0.3,0-0.4,0
							c-1.6,0-2.1,1.2-2.1,2.5v5.4h-1.5v-9.1h1.5V-629.5z"/>
						<path fill="#010101" d="M-1260.7-621.6c-2,0-3.2-0.9-3.1-3h1.7c0,0.5,0,1.7,1.5,1.7c0.9,0,1.6-0.5,1.6-1.4
							c0-1.6-4.5-1.7-4.5-4.4c0-1,0.6-2.5,3.1-2.5c1.6,0,3,0.8,2.9,2.6h-1.6c0-1-0.5-1.5-1.4-1.5c-0.8,0-1.4,0.4-1.4,1.2
							c0,1.6,4.5,1.6,4.5,4.3C-1257.6-622.3-1258.9-621.6-1260.7-621.6z"/>
					</g>
					<g>
						<path fill="#010101" d="M-1267.3-665.7h1v7.2h-1V-665.7z"/>
						<path fill="#010101" d="M-1264.6-665.7h1v7.2h-1V-665.7z"/>
					</g>
					<g>
						<path fill="#010101" d="M-1299.9-639.8c-0.9-2.1-1.9-4.8-1.9-7.1c0-1.3,0.3-2.5,0.7-3.7c0.4-1.4,0.9-2.5,1.1-3.2h1.1
							c-0.3,0.8-0.6,1.9-0.9,3.4c-0.3,1.5-0.4,2.5-0.4,3.5c0,2.3,0.6,4.1,1.5,7.2H-1299.9z"/>
						<path fill="#010101" d="M-1295.3-644.6c0,1.1,0.7,1.8,2,1.8c1.6,0,2.2-1,2.2-2c0-1.2-0.8-1.8-1.6-2c-0.6-0.1-1-0.1-1.5-0.1
							v-1.3c1.1,0.1,3-0.1,3-1.9c0-1.2-0.8-1.7-2-1.7c-0.8,0-1.9,0.4-2,1.7h-1.6c0.1-2.8,2.7-3,3.6-3c2.4,0,3.6,1.5,3.6,3
							c0,0.9-0.5,2.2-2.2,2.6c2.4,0.3,2.4,2.5,2.4,2.7c0,1.6-1.3,3.3-3.8,3.3c-1.2,0-2.3-0.3-3-1.2c-0.6-0.7-0.6-1.5-0.7-2H-1295.3z
							"/>
						<path fill="#010101" d="M-1286.5-653.8c0.9,2.1,1.9,4.8,1.9,7.1c0,1.3-0.3,2.5-0.7,3.7c-0.4,1.4-0.9,2.5-1.1,3.2h-1.1
							c0.3-0.8,0.6-1.9,0.9-3.4c0.3-1.5,0.4-2.5,0.4-3.5c0-2.3-0.6-4.1-1.5-7.1H-1286.5z"/>
					</g>
					<g>
						<path fill="#010101" d="M-1290.1-609.7h-1.1v-7.1l-1.2,0.8v-1.1c0.3-0.1,1.1-0.7,1.4-1h0.9V-609.7z"/>
						<path fill="#010101" d="M-1284.7-609.7v-8.7h4.3v1h-3.2v2.8h3v1h-3v4H-1284.7z"/>
						<path fill="#010101" d="M-1279.4-609.7v-8.7h4.3v1h-3.2v2.8h3v1h-3v4H-1279.4z"/>
						<path fill="#010101" d="M-1265.8-609.7h-1.3l-2-3.7l-1.9,3.7h-1.2l2.5-4.5l-2.4-4.2h1.3l1.8,3.4l1.8-3.4h1.2l-2.3,4.2
							L-1265.8-609.7z"/>
					</g>
				</g>
			</g>
			<g id="AL_AL_1_GREEK_-_1_GREEK_X_356_00000029734081303559665200000012831921117030417331_" transform="translate(1162.5,825)">
				<g id="g172964_00000140013384652525075610000014360853409290017455_" transform="translate(-450,-1500)">
					
						<rect id="rect172962_00000088105142886851437370000009295692535271280549_" x="-637.5" y="675" fill="#FAA51A" width="75" height="75"/>
				</g>
			</g>
		</g>
	</g>
</g>
<g id="text" display="none">
	
		<rect id="frontbox" x="-1087.5" y="-825" display="inline" fill="none" stroke="#000000" stroke-miterlimit="10" width="1650" height="1275"/>
	<g id="align" display="inline">
	</g>
</g>
<g id="crop" display="none">
	<g id="front" display="inline">
		<g>
			<line fill="none" stroke="#939598" stroke-miterlimit="10" x1="-234.4" y1="0" x2="534.4" y2="0"/>
			<line fill="none" stroke="#939598" stroke-miterlimit="10" x1="-234.4" y1="75" x2="534.4" y2="75"/>
			<line fill="none" stroke="#939598" stroke-miterlimit="10" x1="0" y1="-9.4" x2="0" y2="159.4"/>
			<line fill="none" stroke="#939598" stroke-miterlimit="10" x1="75" y1="-9.4" x2="75" y2="159.4"/>
		</g>
	</g>
</g>
<g id="guides" display="none">
</g>
</svg>
