<?xml version="1.0" encoding="utf-8"?>
<!-- Generator: Adobe Illustrator 26.0.3, SVG Export Plug-In . SVG Version: 6.00 Build 0)  -->
<svg version="1.2" baseProfile="tiny" xmlns="http://www.w3.org/2000/svg" xmlns:xlink="http://www.w3.org/1999/xlink" x="0px"
	 y="0px" viewBox="0 0 75 75" overflow="visible" xml:space="preserve">
<g id="svg">
	<g>
		<g id="cs_layer_CNA_0002_00000023283088047694392320000015410210321053132443_">
			<g id="g169366_00000060018564281457370690000011209304467157080227_">
			</g>
			
				<g id="AL_AL_1_POL_-_POLISH_X__MG__360_00000075156145275178279110000008863410707649056652_" transform="translate(1462.5,825)">
				<g id="g173054_00000080172318026714318450000017843356304173113482_" transform="translate(-450,-1500)">
					
						<rect id="rect173052_00000138544767882110352830000015917165967560585396_" x="-1012.5" y="675" fill="#FAA51A" width="75" height="75"/>
				</g>
				<g id="g173071_00000119075477895710708730000007588061611496736440_" transform="translate(229.688,-150)">
					<g>
						<path fill="#010101" d="M-1626.5-655.4v17h-26.5v-17H-1626.5z M-1641.8-646.6v-0.7l-9.8-5.9v12.5l9.9-5.9H-1641.8z
							 M-1629.3-654h-20.9l9.6,5.7v-1.5h-1.2l2.1-3.3l2.1,3.3h-1.2v1.5L-1629.3-654z M-1641.8-643.8v-1.1l-8.4,5h20.9l-8.4-5v1.1
							h-1.2v2.9h-1.7v-2.9H-1641.8z M-1640.7-645.5l-1,0.6h1V-645.5z M-1638.9-644.9h1l-1-0.6V-644.9z M-1628-640.6v-12.5l-9.8,5.9
							v0.7h-0.1L-1628-640.6z"/>
					</g>
					<g>
						<path fill="#010101" d="M-1681.7-621.7v-13h1.7v5.7h0.1l4.5-5.7h1.9l-4.7,5.9l5,7.1h-2.1l-4.6-6.8h-0.1v6.8H-1681.7z"/>
						<path fill="#010101" d="M-1672.1-626.2c0-2.7,0.3-4.9,3.5-4.9c3.2,0,3.5,2.2,3.5,4.9c0,4-1.5,4.6-3.5,4.6
							C-1670.6-621.6-1672.1-622.1-1672.1-626.2z M-1666.8-626.8c0-2.5-0.8-3-1.9-3c-1.1,0-1.9,0.5-1.9,3c0,3,0.4,4,1.9,4
							C-1667.1-622.8-1666.8-623.8-1666.8-626.8z"/>
						<path fill="#010101" d="M-1661.3-629.8L-1661.3-629.8c0.5-0.8,1.2-1.3,2.1-1.3c1.5,0,2.9,0.6,2.9,4.6c0,2.3-0.1,4.9-3,4.9
							c-0.9,0-1.5-0.4-2-1.1h-0.1v4.4h-1.5v-12.5h1.5V-629.8z M-1657.8-626.4c0-1.4,0-3.4-1.9-3.4c-1.8,0-1.7,2.5-1.7,3.9
							c0,1.2,0.1,3.1,1.7,3.1C-1658-622.8-1657.8-624-1657.8-626.4z"/>
						<path fill="#010101" d="M-1648.9-621.7v-6.3c0-1-0.3-1.8-1.6-1.8c-1.6,0-1.9,1.4-1.9,2.7v5.4h-1.5v-7.2c0-0.6,0-1.3-0.1-1.9
							h1.6v1.2h0.1c0.6-1,1.3-1.4,2.4-1.4c1.9,0,2.4,1.2,2.4,3v6.3H-1648.9z"/>
						<path fill="#010101" d="M-1642.2-621.6c-2,0-3.2-0.9-3.1-3h1.7c0,0.5,0,1.7,1.5,1.7c0.9,0,1.6-0.5,1.6-1.4
							c0-1.6-4.5-1.7-4.5-4.4c0-1,0.6-2.5,3.1-2.5c1.6,0,3,0.8,2.9,2.6h-1.6c0-1-0.5-1.5-1.4-1.5c-0.8,0-1.4,0.4-1.4,1.2
							c0,1.6,4.5,1.6,4.5,4.3C-1639-622.3-1640.4-621.6-1642.2-621.6z"/>
						<path fill="#010101" d="M-1635.4-621.7h-1.5v-13h1.5v7.8h0l2.8-3.9h1.8l-3,3.9l3.6,5.2h-1.9l-3.2-5.1h0V-621.7z"/>
						<path fill="#010101" d="M-1629-634.7h1.7v1.6h-1.7V-634.7z M-1627.5-621.7h-1.5v-9.1h1.5V-621.7z"/>
					</g>
					<g>
						<path fill="#010101" d="M-1640.9-665.7h1v7.2h-1V-665.7z"/>
					</g>
					<g>
						<path fill="#010101" d="M-1663-651.1c-0.7,0.6-1.8,1.2-2.6,1.6v-1.6c1-0.5,2.1-1.2,2.7-1.7h1.4v11.1h-1.5V-651.1z"/>
					</g>
					<g>
						<path fill="#010101" d="M-1672.8-609.7v-8.7h2.6c1.2,0,2.4,0.4,2.4,2.5c0,2-1.5,2.4-2.4,2.4h-1.5v3.8H-1672.8z M-1671.7-614.4
							h1.2c0.5,0,1.5-0.1,1.5-1.5c0-1.3-1-1.5-1.2-1.5h-1.5V-614.4z"/>
						<path fill="#010101" d="M-1666.6-612.6c0-1.8,0.2-3.2,2.3-3.2c2.1,0,2.3,1.5,2.3,3.2c0,2.7-1,3.1-2.3,3.1
							C-1665.6-609.6-1666.6-609.9-1666.6-612.6z M-1663-613c0-1.7-0.5-2-1.3-2c-0.8,0-1.3,0.4-1.3,2c0,2,0.3,2.7,1.3,2.7
							C-1663.3-610.4-1663-611.1-1663-613z"/>
						<path fill="#010101" d="M-1659.5-609.7h-1v-8.7h1V-609.7z"/>
						<path fill="#010101" d="M-1657.8-618.3h1.1v1.1h-1.1V-618.3z M-1656.8-609.7h-1v-6.1h1V-609.7z"/>
						<path fill="#010101" d="M-1653.3-609.6c-1.3,0-2.1-0.6-2.1-2h1.1c0,0.3,0,1.2,1,1.2c0.6,0,1-0.3,1-0.9c0-1.1-3-1.1-3-2.9
							c0-0.6,0.4-1.7,2.1-1.7c1.1,0,2,0.5,1.9,1.7h-1.1c0-0.6-0.3-1-0.9-1c-0.5,0-0.9,0.3-0.9,0.8c0,1.1,3,1,3,2.9
							C-1651.2-610.1-1652.1-609.6-1653.3-609.6z"/>
						<path fill="#010101" d="M-1646.5-609.7v-4.1c0-0.7-0.2-1.3-1.1-1.3c-1,0-1.2,0.8-1.2,1.8v3.6h-1v-8.7h1v3.4h0
							c0.4-0.7,0.9-0.9,1.6-0.9c1,0,1.6,0.5,1.6,1.9v4.3H-1646.5z"/>
						<path fill="#010101" d="M-1635.4-609.7h-1.3l-2-3.7l-1.9,3.7h-1.2l2.5-4.5l-2.4-4.2h1.3l1.8,3.4l1.8-3.4h1.2l-2.3,4.2
							L-1635.4-609.7z"/>
					</g>
				</g>
			</g>
			
				<g id="AL_AL_1_POL_-_POLISH_X_A_T__361_00000152225229910117014780000017122338851479877306_" transform="translate(1537.5,825)">
				<g id="g173076_00000038377988687468840840000001017866308685477269_" transform="translate(-450,-1500)">
					
						<rect id="rect173074_00000080170764716556364740000004965120992891614608_" x="-1012.5" y="675" fill="#FAA51A" width="75" height="75"/>
				</g>
			</g>
		</g>
	</g>
</g>
<g id="text" display="none">
	
		<rect id="frontbox" x="-1462.5" y="-825" display="inline" fill="none" stroke="#000000" stroke-miterlimit="10" width="1650" height="1275"/>
	<g id="align" display="inline">
	</g>
</g>
<g id="crop" display="none">
	<g id="front" display="inline">
		<g>
			<line fill="none" stroke="#939598" stroke-miterlimit="10" x1="-609.4" y1="0" x2="159.4" y2="0"/>
			<line fill="none" stroke="#939598" stroke-miterlimit="10" x1="-609.4" y1="75" x2="159.4" y2="75"/>
			<line fill="none" stroke="#939598" stroke-miterlimit="10" x1="0" y1="-9.4" x2="0" y2="159.4"/>
			<line fill="none" stroke="#939598" stroke-miterlimit="10" x1="75" y1="-9.4" x2="75" y2="159.4"/>
		</g>
	</g>
</g>
<g id="guides" display="none">
</g>
</svg>
