<?xml version="1.0" encoding="utf-8"?>
<!-- Generator: Adobe Illustrator 26.0.3, SVG Export Plug-In . SVG Version: 6.00 Build 0)  -->
<svg version="1.2" baseProfile="tiny" xmlns="http://www.w3.org/2000/svg" xmlns:xlink="http://www.w3.org/1999/xlink" x="0px"
	 y="0px" viewBox="0 0 75 75" overflow="visible" xml:space="preserve">
<g id="svg">
	<g>
		<g id="cs_layer_CNA_0002_00000023283088047694392320000015410210321053132443_">
			<g id="g169366_00000060018564281457370690000011209304467157080227_">
			</g>
			
				<g id="AL_AL_1_POL_-_POLISH_X__ART__359_00000146483372250767150370000013489133040907232670_" transform="translate(1387.5,825)">
				<g id="g173032_00000084522778981176065880000015898373491465125048_" transform="translate(-450,-1500)">
					
						<rect id="rect173030_00000018219908517882135960000008530391062525323923_" x="-937.5" y="675" fill="#FAA51A" width="75" height="75"/>
				</g>
				<g id="g173049_00000044159477109822082060000005735315831483095683_" transform="translate(229.688,-150)">
					<g>
						<path fill="#010101" d="M-1551.5-655.4v17h-26.5v-17H-1551.5z M-1553-654h-23.6v14.2h23.6V-654z M-1567.6-646.9
							c0-1.4,1.2-2.6,2.8-2.6s2.8,1.2,2.8,2.6c0,1.4-1.2,2.6-2.8,2.6S-1567.6-645.5-1567.6-646.9z"/>
					</g>
					<g>
						<path fill="#010101" d="M-1602.5-621.7h-1.7v-10.7l-1.9,1.3v-1.6c0.4-0.2,1.6-1.1,2.1-1.5h1.4V-621.7z"/>
						<path fill="#010101" d="M-1594-621.7v-13h3.9c1.7,0,3.6,0.6,3.6,3.7c0,3-2.3,3.6-3.6,3.6h-2.2v5.7H-1594z M-1592.4-628.9h1.8
							c0.7,0,2.3-0.2,2.3-2.2c0-2-1.5-2.2-1.8-2.2h-2.3V-628.9z"/>
						<path fill="#010101" d="M-1584.6-626.2c0-2.7,0.3-4.9,3.5-4.9c3.2,0,3.5,2.2,3.5,4.9c0,4-1.5,4.6-3.5,4.6
							C-1583.1-621.6-1584.6-622.1-1584.6-626.2z M-1579.3-626.8c0-2.5-0.8-3-1.9-3c-1.1,0-1.9,0.5-1.9,3c0,3,0.4,4,1.9,4
							C-1579.7-622.8-1579.3-623.8-1579.3-626.8z"/>
						<path fill="#010101" d="M-1573.9-621.7h-1.5v-13h1.5V-621.7z"/>
						<path fill="#010101" d="M-1571.5-634.7h1.7v1.6h-1.7V-634.7z M-1570-621.7h-1.5v-9.1h1.5V-621.7z"/>
						<path fill="#010101" d="M-1564.7-621.6c-2,0-3.2-0.9-3.1-3h1.7c0,0.5,0,1.7,1.5,1.7c0.9,0,1.6-0.5,1.6-1.4
							c0-1.6-4.5-1.7-4.5-4.4c0-1,0.6-2.5,3.1-2.5c1.6,0,3,0.8,2.9,2.6h-1.6c0-1-0.5-1.5-1.4-1.5c-0.8,0-1.4,0.4-1.4,1.2
							c0,1.6,4.5,1.6,4.5,4.3C-1561.5-622.3-1562.9-621.6-1564.7-621.6z"/>
						<path fill="#010101" d="M-1554.5-621.7v-6.2c0-1.1-0.4-1.9-1.6-1.9c-1.5,0-1.9,1.2-1.9,2.7v5.3h-1.5v-13h1.5v5.1h0.1
							c0.6-1.1,1.3-1.4,2.5-1.4c1.5,0,2.4,0.8,2.4,2.8v6.4H-1554.5z"/>
					</g>
					<g>
						<path fill="#010101" d="M-1568.7-665.7h1v7.2h-1V-665.7z"/>
						<path fill="#010101" d="M-1565.9-665.7h1v7.2h-1V-665.7z"/>
						<path fill="#010101" d="M-1563.2-665.7h1v7.2h-1V-665.7z"/>
					</g>
					<g>
						<path fill="#010101" d="M-1587.9-653.1c3.3,0,3.7,3.6,3.7,5.6c0,2.6-0.5,4.1-1.5,5c-0.8,0.7-1.7,0.8-2.2,0.8
							c-1.5,0-2.5-0.9-3-1.8c-0.4-0.7-0.7-1.8-0.7-3.8C-1591.6-648.8-1591.4-653.1-1587.9-653.1z M-1587.9-642.9
							c1.9,0,2.2-2.4,2.2-4.4c0-2.7-0.5-4.5-2.1-4.5c-1.9,0-2.2,2.5-2.2,4.5C-1590-644.8-1589.6-642.9-1587.9-642.9z"/>
					</g>
					<g>
						<path fill="#010101" d="M-1597.8-609.7v-8.7h2.6c1.2,0,2.4,0.4,2.4,2.5c0,2-1.5,2.4-2.4,2.4h-1.5v3.8H-1597.8z M-1596.7-614.4
							h1.2c0.5,0,1.5-0.1,1.5-1.5c0-1.3-1-1.5-1.2-1.5h-1.5V-614.4z"/>
						<path fill="#010101" d="M-1591.6-612.6c0-1.8,0.2-3.2,2.3-3.2c2.1,0,2.3,1.5,2.3,3.2c0,2.7-1,3.1-2.3,3.1
							C-1590.6-609.6-1591.6-609.9-1591.6-612.6z M-1588-613c0-1.7-0.5-2-1.3-2c-0.8,0-1.3,0.4-1.3,2c0,2,0.3,2.7,1.3,2.7
							C-1588.3-610.4-1588-611.1-1588-613z"/>
						<path fill="#010101" d="M-1584.5-609.7h-1v-8.7h1V-609.7z"/>
						<path fill="#010101" d="M-1582.8-618.3h1.1v1.1h-1.1V-618.3z M-1581.8-609.7h-1v-6.1h1V-609.7z"/>
						<path fill="#010101" d="M-1578.3-609.6c-1.3,0-2.1-0.6-2.1-2h1.1c0,0.3,0,1.2,1,1.2c0.6,0,1-0.3,1-0.9c0-1.1-3-1.1-3-2.9
							c0-0.6,0.4-1.7,2.1-1.7c1.1,0,2,0.5,1.9,1.7h-1.1c0-0.6-0.3-1-0.9-1c-0.5,0-0.9,0.3-0.9,0.8c0,1.1,3,1,3,2.9
							C-1576.2-610.1-1577.1-609.6-1578.3-609.6z"/>
						<path fill="#010101" d="M-1571.5-609.7v-4.1c0-0.7-0.2-1.3-1.1-1.3c-1,0-1.2,0.8-1.2,1.8v3.6h-1v-8.7h1v3.4h0
							c0.4-0.7,0.9-0.9,1.6-0.9c1,0,1.6,0.5,1.6,1.9v4.3H-1571.5z"/>
						<path fill="#010101" d="M-1560.4-609.7h-1.3l-2-3.7l-1.9,3.7h-1.2l2.5-4.5l-2.4-4.2h1.3l1.8,3.4l1.8-3.4h1.2l-2.3,4.2
							L-1560.4-609.7z"/>
					</g>
				</g>
			</g>
			
				<g id="AL_AL_1_POL_-_POLISH_X__MG__360_00000075156145275178279110000008863410707649056652_" transform="translate(1462.5,825)">
				<g id="g173054_00000080172318026714318450000017843356304173113482_" transform="translate(-450,-1500)">
					
						<rect id="rect173052_00000138544767882110352830000015917165967560585396_" x="-937.5" y="675" fill="#FAA51A" width="75" height="75"/>
				</g>
			</g>
		</g>
	</g>
</g>
<g id="text" display="none">
	
		<rect id="frontbox" x="-1387.5" y="-825" display="inline" fill="none" stroke="#000000" stroke-miterlimit="10" width="1650" height="1275"/>
	<g id="align" display="inline">
	</g>
</g>
<g id="crop" display="none">
	<g id="front" display="inline">
		<g>
			<line fill="none" stroke="#939598" stroke-miterlimit="10" x1="-534.4" y1="0" x2="234.4" y2="0"/>
			<line fill="none" stroke="#939598" stroke-miterlimit="10" x1="-534.4" y1="75" x2="234.4" y2="75"/>
			<line fill="none" stroke="#939598" stroke-miterlimit="10" x1="0" y1="-9.4" x2="0" y2="159.4"/>
			<line fill="none" stroke="#939598" stroke-miterlimit="10" x1="75" y1="-9.4" x2="75" y2="159.4"/>
		</g>
	</g>
</g>
<g id="guides" display="none">
</g>
</svg>
