<?xml version="1.0" encoding="utf-8"?>
<!-- Generator: Adobe Illustrator 26.0.3, SVG Export Plug-In . SVG Version: 6.00 Build 0)  -->
<svg version="1.2" baseProfile="tiny" xmlns="http://www.w3.org/2000/svg" xmlns:xlink="http://www.w3.org/1999/xlink" x="0px"
	 y="0px" viewBox="0 0 75 75" overflow="visible" xml:space="preserve">
<g id="svg">
	<g>
		<g id="cs_layer_CNA_0002_00000023283088047694392320000015410210321053132443_">
			<g id="g169366_00000060018564281457370690000011209304467157080227_">
			</g>
			<g id="AL_AL_1_-_1_FF_X_352_00000016754512568769283060000004857185353115100807_" transform="translate(862.5,825)">
				<g id="g172874_00000151537833243115157100000008292672721281405071_" transform="translate(-450,-1500)">
					
						<rect id="rect172872_00000171716993361427702030000002042939720832736698_" x="-412.5" y="675" fill="#FAA51A" width="75" height="75"/>
				</g>
				<g id="g172891_00000106117603986800296210000009641750132537953183_" transform="translate(229.688,-150)">
					<g>
						<path fill="#010101" d="M-1026.5-655.4v17h-26.5v-17H-1026.5z M-1028-654h-23.6v14.2h23.6V-654z M-1042.6-646.9
							c0-1.4,1.2-2.6,2.8-2.6s2.8,1.2,2.8,2.6c0,1.4-1.2,2.6-2.8,2.6S-1042.6-645.5-1042.6-646.9z"/>
					</g>
					<g>
						<path fill="#010101" d="M-1053.5-621.7h-1.7v-10.7l-1.9,1.3v-1.6c0.4-0.2,1.6-1.1,2.1-1.5h1.4V-621.7z"/>
					</g>
					<g>
						<path fill="#010101" d="M-1043.7-665.7h1v7.2h-1V-665.7z"/>
						<path fill="#010101" d="M-1040.9-665.7h1v7.2h-1V-665.7z"/>
						<path fill="#010101" d="M-1038.2-665.7h1v7.2h-1V-665.7z"/>
					</g>
					<g>
						<path fill="#010101" d="M-1074.9-639.8c-0.9-2.1-1.9-4.8-1.9-7.1c0-1.3,0.3-2.5,0.7-3.7c0.4-1.4,0.9-2.5,1.1-3.2h1.1
							c-0.3,0.8-0.6,1.9-0.9,3.4c-0.3,1.5-0.4,2.5-0.4,3.5c0,2.3,0.6,4.1,1.5,7.2H-1074.9z"/>
						<path fill="#010101" d="M-1070.3-644.6c0,1.1,0.7,1.8,2,1.8c1.6,0,2.2-1,2.2-2c0-1.2-0.8-1.8-1.6-2c-0.6-0.1-1-0.1-1.5-0.1
							v-1.3c1.1,0.1,3-0.1,3-1.9c0-1.2-0.8-1.7-2-1.7c-0.8,0-1.9,0.4-2,1.7h-1.6c0.1-2.8,2.7-3,3.6-3c2.4,0,3.6,1.5,3.6,3
							c0,0.9-0.5,2.2-2.2,2.6c2.4,0.3,2.4,2.5,2.4,2.7c0,1.6-1.3,3.3-3.8,3.3c-1.2,0-2.3-0.3-3-1.2c-0.6-0.7-0.6-1.5-0.7-2H-1070.3z
							"/>
						<path fill="#010101" d="M-1061.5-653.8c0.9,2.1,1.9,4.8,1.9,7.1c0,1.3-0.3,2.5-0.7,3.7c-0.4,1.4-0.9,2.5-1.1,3.2h-1.1
							c0.3-0.8,0.6-1.9,0.9-3.4c0.3-1.5,0.4-2.5,0.4-3.5c0-2.3-0.6-4.1-1.5-7.1H-1061.5z"/>
					</g>
					<g>
						<path fill="#010101" d="M-1065.1-609.7h-1.1v-7.1l-1.2,0.8v-1.1c0.3-0.1,1.1-0.7,1.4-1h0.9V-609.7z"/>
						<path fill="#010101" d="M-1059.7-609.7v-8.7h4.3v1h-3.2v2.8h3v1h-3v4H-1059.7z"/>
						<path fill="#010101" d="M-1054.4-609.7v-8.7h4.3v1h-3.2v2.8h3v1h-3v4H-1054.4z"/>
						<path fill="#010101" d="M-1040.8-609.7h-1.3l-2-3.7l-1.9,3.7h-1.2l2.5-4.5l-2.4-4.2h1.3l1.8,3.4l1.8-3.4h1.2l-2.3,4.2
							L-1040.8-609.7z"/>
					</g>
				</g>
			</g>
			<g id="AL_AL_1_FFFC_-_1_FF_X_353_00000076585557727894235560000002082752148112843922_" transform="translate(937.5,825)">
				<g id="g172896_00000139260845988073957600000008680831599035477422_" transform="translate(-450,-1500)">
					
						<rect id="rect172894_00000176000902443180347540000003123958175833212850_" x="-412.5" y="675" fill="#FAA51A" width="75" height="75"/>
				</g>
			</g>
		</g>
	</g>
</g>
<g id="text" display="none">
	
		<rect id="frontbox" x="-862.5" y="-825" display="inline" fill="none" stroke="#000000" stroke-miterlimit="10" width="1650" height="1275"/>
	<g id="align" display="inline">
	</g>
</g>
<g id="crop" display="none">
	<g id="front" display="inline">
		<g>
			<line fill="none" stroke="#939598" stroke-miterlimit="10" x1="-9.4" y1="0" x2="759.4" y2="0"/>
			<line fill="none" stroke="#939598" stroke-miterlimit="10" x1="-9.4" y1="75" x2="759.4" y2="75"/>
			<line fill="none" stroke="#939598" stroke-miterlimit="10" x1="0" y1="-9.4" x2="0" y2="159.4"/>
			<line fill="none" stroke="#939598" stroke-miterlimit="10" x1="75" y1="-9.4" x2="75" y2="159.4"/>
		</g>
	</g>
</g>
<g id="guides" display="none">
</g>
</svg>
