<?xml version="1.0" encoding="utf-8"?>
<!-- Generator: Adobe Illustrator 26.0.3, SVG Export Plug-In . SVG Version: 6.00 Build 0)  -->
<svg version="1.2" baseProfile="tiny" xmlns="http://www.w3.org/2000/svg" xmlns:xlink="http://www.w3.org/1999/xlink" x="0px"
	 y="0px" viewBox="0 0 75 75" overflow="visible" xml:space="preserve">
<g id="svg">
	<g>
		<g id="cs_layer_CNA_0002_00000023283088047694392320000015410210321053132443_">
			<g id="g169366_00000060018564281457370690000011209304467157080227_">
			</g>
			<g id="AL_AL_1_PACF_-_1_FF_X_358_00000109751882495643977610000006796460037470371245_" transform="translate(1312.5,825)">
				<g id="g173010_00000028310609970740503350000009262702856968256959_" transform="translate(-450,-1500)">
					
						<rect id="rect173008_00000039095845587985615130000010203707330388816546_" x="-862.5" y="675" fill="#FAA51A" width="75" height="75"/>
				</g>
				<g id="g173027_00000171685403477885192730000005052491183625169046_" transform="translate(229.688,-150)">
					<g>
						<path fill="#010101" d="M-1476.5-655.4v17h-26.5v-17H-1476.5z M-1501.6-653.2v12.5l10.4-6.3L-1501.6-653.2z M-1479.3-654
							h-20.9l10.4,6.3L-1479.3-654z M-1500.2-639.8h20.9l-10.4-6.3L-1500.2-639.8z M-1488.4-646.9l10.4,6.3v-12.5L-1488.4-646.9z"/>
					</g>
					<g>
						<path fill="#010101" d="M-1522-621.7h-1.7v-10.7l-1.9,1.3v-1.6c0.4-0.2,1.6-1.1,2.1-1.5h1.4V-621.7z"/>
						<path fill="#010101" d="M-1513.5-621.7v-13h3.9c1.7,0,3.6,0.6,3.6,3.7c0,3-2.3,3.6-3.6,3.6h-2.2v5.7H-1513.5z M-1511.9-628.9
							h1.8c0.7,0,2.3-0.2,2.3-2.2c0-2-1.5-2.2-1.8-2.2h-2.3V-628.9z"/>
						<path fill="#010101" d="M-1499.2-623.1L-1499.2-623.1c-0.5,1-1.2,1.5-2.3,1.5c-1.9,0-2.5-1.2-2.5-3c0-2.8,2.7-2.9,4.8-2.8
							c0-1.2,0.1-2.5-1.5-2.5c-1,0-1.5,0.7-1.4,1.6h-1.6c0.1-2,1.2-2.7,3.1-2.7c2.3,0,3,1.2,3,2.7v4.4c0,0.7,0.1,1.5,0.2,2.2h-1.6
							V-623.1z M-1502.5-624.5c0,0.9,0.4,1.7,1.4,1.7c0.9,0,2-0.6,1.9-3.5C-1500.7-626.2-1502.5-626.4-1502.5-624.5z"/>
						<path fill="#010101" d="M-1490.1-627.9c0-1.5-0.7-1.9-1.3-1.9c-1.1,0-1.9,0.5-1.9,3c0,3,0.4,4,1.9,4c0.3,0,1.4-0.4,1.3-2h1.5
							c0.1,2.6-1.9,3.2-2.9,3.2c-1.9,0-3.5-0.6-3.5-4.6c0-2.7,0.3-4.9,3.5-4.9c1.8,0,2.9,1.1,2.8,3.1H-1490.1z"/>
						<path fill="#010101" d="M-1485.6-630.8v-1.8c0-1.8,1.3-2.2,2.6-2.2c0.3,0,0.5,0,0.7,0.1v1.1c-1.6-0.1-1.8,0.6-1.8,1.3v1.5h1.8
							v1.1h-1.8v8h-1.5v-8h-1.4v-1.1H-1485.6z"/>
					</g>
					<g>
						<path fill="#010101" d="M-1492.3-665.7h1v7.2h-1V-665.7z"/>
						<path fill="#010101" d="M-1489.6-665.7h1v7.2h-1V-665.7z"/>
					</g>
					<g>
						<path fill="#010101" d="M-1512.9-653.1c3.3,0,3.7,3.6,3.7,5.6c0,2.6-0.5,4.1-1.5,5c-0.8,0.7-1.7,0.8-2.2,0.8
							c-1.5,0-2.5-0.9-3-1.8c-0.4-0.7-0.7-1.8-0.7-3.8C-1516.6-648.8-1516.4-653.1-1512.9-653.1z M-1512.9-642.9
							c1.9,0,2.2-2.4,2.2-4.4c0-2.7-0.5-4.5-2.1-4.5c-1.9,0-2.2,2.5-2.2,4.5C-1515-644.8-1514.6-642.9-1512.9-642.9z"/>
					</g>
					<g>
						<path fill="#010101" d="M-1515.1-609.7h-1.1v-7.1l-1.2,0.8v-1.1c0.3-0.1,1.1-0.7,1.4-1h0.9V-609.7z"/>
						<path fill="#010101" d="M-1509.7-609.7v-8.7h4.3v1h-3.2v2.8h3v1h-3v4H-1509.7z"/>
						<path fill="#010101" d="M-1504.4-609.7v-8.7h4.3v1h-3.2v2.8h3v1h-3v4H-1504.4z"/>
						<path fill="#010101" d="M-1490.8-609.7h-1.3l-2-3.7l-1.9,3.7h-1.2l2.5-4.5l-2.4-4.2h1.3l1.8,3.4l1.8-3.4h1.2l-2.3,4.2
							L-1490.8-609.7z"/>
					</g>
				</g>
			</g>
			
				<g id="AL_AL_1_POL_-_POLISH_X__ART__359_00000146483372250767150370000013489133040907232670_" transform="translate(1387.5,825)">
				<g id="g173032_00000084522778981176065880000015898373491465125048_" transform="translate(-450,-1500)">
					
						<rect id="rect173030_00000018219908517882135960000008530391062525323923_" x="-862.5" y="675" fill="#FAA51A" width="75" height="75"/>
				</g>
			</g>
		</g>
	</g>
</g>
<g id="text" display="none">
	
		<rect id="frontbox" x="-1312.5" y="-825" display="inline" fill="none" stroke="#000000" stroke-miterlimit="10" width="1650" height="1275"/>
	<g id="align" display="inline">
	</g>
</g>
<g id="crop" display="none">
	<g id="front" display="inline">
		<g>
			<line fill="none" stroke="#939598" stroke-miterlimit="10" x1="-459.4" y1="0" x2="309.4" y2="0"/>
			<line fill="none" stroke="#939598" stroke-miterlimit="10" x1="-459.4" y1="75" x2="309.4" y2="75"/>
			<line fill="none" stroke="#939598" stroke-miterlimit="10" x1="0" y1="-9.4" x2="0" y2="159.4"/>
			<line fill="none" stroke="#939598" stroke-miterlimit="10" x1="75" y1="-9.4" x2="75" y2="159.4"/>
		</g>
	</g>
</g>
<g id="guides" display="none">
</g>
</svg>
