<?xml version="1.0" encoding="utf-8"?>
<!-- Generator: Adobe Illustrator 26.0.3, SVG Export Plug-In . SVG Version: 6.00 Build 0)  -->
<svg version="1.2" baseProfile="tiny" xmlns="http://www.w3.org/2000/svg" xmlns:xlink="http://www.w3.org/1999/xlink" x="0px"
	 y="0px" viewBox="0 0 75 75" overflow="visible" xml:space="preserve">
<g id="svg">
	<g>
		<g id="cs_layer_CNA_0002_00000023283088047694392320000015410210321053132443_">
			<g id="g169366_00000060018564281457370690000011209304467157080227_">
			</g>
			<g id="AL_AL_1_FFFC_-_1_FF_X_353_00000076585557727894235560000002082752148112843922_" transform="translate(937.5,825)">
				<g id="g172896_00000139260845988073957600000008680831599035477422_" transform="translate(-450,-1500)">
					
						<rect id="rect172894_00000176000902443180347540000003123958175833212850_" x="-487.5" y="675" fill="#FAA51A" width="75" height="75"/>
				</g>
				<g id="g172913_00000121986570349050899200000007072304376183201467_" transform="translate(229.688,-150)">
					<g>
						<path fill="#010101" d="M-1101.5-655.4v17h-26.5v-17H-1101.5z M-1126.6-639.8h4.7c-1.9,0-3.5-1.6-3.5-3.5c0-1.7,1.1-3,2.7-3.4
							c-1.3-0.7-2.2-2.1-2.2-3.7c0-1.5,0.8-2.7,1.9-3.5h-3.6V-639.8z M-1121.9-645.5c-1.2,0-2.1,1-2.1,2.1c0,1.2,1,2.1,2.1,2.1
							s2.1-1,2.1-2.1S-1120.7-645.5-1121.9-645.5z M-1106.1-650.4c0-1.6-1.2-2.9-2.8-2.9h-11.8c0,0,0,0,0,0c-1.5,0-2.8,1.3-2.8,2.8
							c0,1.6,1.2,2.9,2.8,2.9c0,0,0,0,0,0h11.8c0,0,0,0,0,0C-1107.4-647.6-1106.1-648.9-1106.1-650.4z M-1116.9-646.2h-2.9
							c0.9,0.6,1.4,1.7,1.4,2.8c0,1.9-1.6,3.5-3.5,3.5h7c-1.9,0-3.5-1.6-3.5-3.5C-1118.3-644.5-1117.8-645.5-1116.9-646.2z
							 M-1114.8-645.5c-1.2,0-2.1,1-2.1,2.1c0,1.2,1,2.1,2.1,2.1s2.1-1,2.1-2.1S-1113.6-645.5-1114.8-645.5z M-1103-639.8V-654h-3.6
							c1.2,0.8,1.9,2.1,1.9,3.6c0,1.6-0.9,2.9-2.1,3.6c1.5,0.4,2.7,1.8,2.7,3.4c0,2-1.6,3.5-3.5,3.5c-2,0-3.5-1.6-3.5-3.5
							c0-1.2,0.6-2.2,1.4-2.8h-2.9c0.9,0.6,1.4,1.7,1.4,2.8c0,1.9-1.6,3.5-3.5,3.5H-1103z M-1109.8-643.4c0,1.2,1,2.1,2.1,2.1
							c1.2,0,2.1-1,2.1-2.1s-1-2.1-2.1-2.1C-1108.9-645.5-1109.8-644.5-1109.8-643.4z"/>
					</g>
					<g>
						<path fill="#010101" d="M-1147.5-621.7h-1.7v-10.7l-1.9,1.3v-1.6c0.4-0.2,1.6-1.1,2.1-1.5h1.4V-621.7z"/>
						<path fill="#010101" d="M-1139.4-621.7v-13h6.4v1.4h-4.8v4.2h4.5v1.4h-4.5v5.9H-1139.4z"/>
						<path fill="#010101" d="M-1131.4-621.7v-13h6.4v1.4h-4.8v4.2h4.5v1.4h-4.5v5.9H-1131.4z"/>
						<path fill="#010101" d="M-1123.4-621.7v-13h6.4v1.4h-4.8v4.2h4.5v1.4h-4.5v5.9H-1123.4z"/>
						<path fill="#010101" d="M-1109.5-631.2c0-0.7,0-1.5-0.4-1.9s-1.1-0.6-1.5-0.6c-1.4,0-1.9,0.8-2,1c-0.1,0.1-0.4,0.5-0.4,2.7
							v3.5c0,3.2,1,3.6,2.3,3.6c0.5,0,2-0.2,2.1-2.7h1.7c0.1,4.1-2.8,4.1-3.7,4.1c-1.6,0-4.1-0.1-4.1-5.2v-3.7
							c0-3.7,1.6-4.7,4.2-4.7c2.6,0,3.6,1.3,3.4,3.9H-1109.5z"/>
					</g>
					<g>
						<path fill="#010101" d="M-1117.3-665.7h1v7.2h-1V-665.7z"/>
						<path fill="#010101" d="M-1114.6-665.7h1v7.2h-1V-665.7z"/>
					</g>
					<g>
						<path fill="#010101" d="M-1138-651.1c-0.7,0.6-1.8,1.2-2.6,1.6v-1.6c1-0.5,2.1-1.2,2.7-1.7h1.4v11.1h-1.5V-651.1z"/>
					</g>
					<g>
						<path fill="#010101" d="M-1140.1-609.7h-1.1v-7.1l-1.2,0.8v-1.1c0.3-0.1,1.1-0.7,1.4-1h0.9V-609.7z"/>
						<path fill="#010101" d="M-1134.7-609.7v-8.7h4.3v1h-3.2v2.8h3v1h-3v4H-1134.7z"/>
						<path fill="#010101" d="M-1129.4-609.7v-8.7h4.3v1h-3.2v2.8h3v1h-3v4H-1129.4z"/>
						<path fill="#010101" d="M-1115.8-609.7h-1.3l-2-3.7l-1.9,3.7h-1.2l2.5-4.5l-2.4-4.2h1.3l1.8,3.4l1.8-3.4h1.2l-2.3,4.2
							L-1115.8-609.7z"/>
					</g>
				</g>
			</g>
			<g id="AL_AL_1_FREEFR_-_NONE_354_00000175287861196254955140000006545962315958770597_" transform="translate(1012.5,825)">
				<g id="g172918_00000112631087524411891540000010120921965471997627_" transform="translate(-450,-1500)">
					
						<rect id="rect172916_00000165928735046357470170000011273833502782328760_" x="-487.5" y="675" fill="#FAA51A" width="75" height="75"/>
				</g>
			</g>
		</g>
	</g>
</g>
<g id="text" display="none">
	
		<rect id="frontbox" x="-937.5" y="-825" display="inline" fill="none" stroke="#000000" stroke-miterlimit="10" width="1650" height="1275"/>
	<g id="align" display="inline">
	</g>
</g>
<g id="crop" display="none">
	<g id="front" display="inline">
		<g>
			<line fill="none" stroke="#939598" stroke-miterlimit="10" x1="-84.4" y1="0" x2="684.4" y2="0"/>
			<line fill="none" stroke="#939598" stroke-miterlimit="10" x1="-84.4" y1="75" x2="684.4" y2="75"/>
			<line fill="none" stroke="#939598" stroke-miterlimit="10" x1="0" y1="-9.4" x2="0" y2="159.4"/>
			<line fill="none" stroke="#939598" stroke-miterlimit="10" x1="75" y1="-9.4" x2="75" y2="159.4"/>
		</g>
	</g>
</g>
<g id="guides" display="none">
</g>
</svg>
