<?xml version="1.0" encoding="utf-8"?>
<!-- Generator: Adobe Illustrator 26.0.3, SVG Export Plug-In . SVG Version: 6.00 Build 0)  -->
<svg version="1.2" baseProfile="tiny" xmlns="http://www.w3.org/2000/svg" xmlns:xlink="http://www.w3.org/1999/xlink" x="0px"
	 y="0px" viewBox="0 0 75 75" overflow="visible" xml:space="preserve">
<g id="svg">
	<g>
		<g id="cs_layer_CNA_0002_00000023283088047694392320000015410210321053132443_">
			<g id="g169366_00000060018564281457370690000011209304467157080227_">
			</g>
			<g id="AL_AL_1_FREEFR_-_NONE_354_00000175287861196254955140000006545962315958770597_" transform="translate(1012.5,825)">
				<g id="g172918_00000112631087524411891540000010120921965471997627_" transform="translate(-450,-1500)">
					
						<rect id="rect172916_00000165928735046357470170000011273833502782328760_" x="-562.5" y="675" fill="#FAA51A" width="75" height="75"/>
				</g>
				<g id="g172937_00000149356525224074765320000006537138477269020819_" transform="translate(229.688,-150)">
					
						<rect id="rect172920_00000069366504222190888020000017465846525078093965_" x="-1242.2" y="-656.2" fill="#FDD700" width="75" height="18.8"/>
					<g>
						<path fill="#010101" d="M-1176.5-655.4v17h-26.5v-17H-1176.5z M-1201.6-653.2v12.5l10.4-6.3L-1201.6-653.2z M-1179.3-654
							h-20.9l10.4,6.3L-1179.3-654z M-1200.2-639.8h20.9l-10.4-6.3L-1200.2-639.8z M-1188.4-646.9l10.4,6.3v-12.5L-1188.4-646.9z"/>
					</g>
					<g>
						<path fill="#010101" d="M-1228.5-621.7h-1.7v-10.7l-1.9,1.3v-1.6c0.4-0.2,1.6-1.1,2.1-1.5h1.4V-621.7z"/>
						<path fill="#010101" d="M-1220.4-621.7v-13h6.4v1.4h-4.8v4.2h4.5v1.4h-4.5v5.9H-1220.4z"/>
						<path fill="#010101" d="M-1210.9-629.5L-1210.9-629.5c0.6-1.4,1.4-1.5,2.8-1.5v1.5c-0.1,0-0.3,0-0.4-0.1c-0.1,0-0.3,0-0.4,0
							c-1.6,0-2.1,1.2-2.1,2.5v5.4h-1.5v-9.1h1.5V-629.5z"/>
						<path fill="#010101" d="M-1205-625.8c0,2.5,0.7,3,1.8,3c1,0,1.5-0.8,1.6-1.7h1.6c0,2-1.3,2.9-3.2,2.9c-1.9,0-3.5-0.6-3.5-4.6
							c0-2.7,0.3-4.9,3.5-4.9c2.6,0,3.2,1.4,3.2,4.4v0.8H-1205z M-1201.4-626.9c0-2.6-0.7-3-1.8-3c-0.9,0-1.7,0.5-1.7,3H-1201.4z"/>
						<path fill="#010101" d="M-1196-625.8c0,2.5,0.7,3,1.8,3c1,0,1.5-0.8,1.6-1.7h1.6c0,2-1.3,2.9-3.2,2.9c-1.9,0-3.5-0.6-3.5-4.6
							c0-2.7,0.3-4.9,3.5-4.9c2.6,0,3.2,1.4,3.2,4.4v0.8H-1196z M-1192.4-626.9c0-2.6-0.7-3-1.8-3c-0.9,0-1.7,0.5-1.7,3H-1192.4z"/>
						<path fill="#010101" d="M-1188.4-621.7v-13h6.4v1.4h-4.8v4.2h4.5v1.4h-4.5v5.9H-1188.4z"/>
						<path fill="#010101" d="M-1178.9-629.5L-1178.9-629.5c0.6-1.4,1.4-1.5,2.8-1.5v1.5c-0.1,0-0.3,0-0.4-0.1c-0.1,0-0.3,0-0.4,0
							c-1.6,0-2.1,1.2-2.1,2.5v5.4h-1.5v-9.1h1.5V-629.5z"/>
					</g>
					<g>
						<path fill="#010101" d="M-1192.3-665.7l1.9,2.8l1.9-2.8h1.2l-2.6,3.5l2.7,3.8h-1.3l-2.1-3.1l-2.2,3.1h-1.2l2.8-3.8l-2.5-3.4
							H-1192.3z"/>
					</g>
					<g>
						<path fill="#010101" d="M-1213-651.1c-0.7,0.6-1.8,1.2-2.6,1.6v-1.6c1-0.5,2.1-1.2,2.7-1.7h1.4v11.1h-1.5V-651.1z"/>
					</g>
					<g>
						<path fill="#010101" d="M-1207.9-613.4h2.6v0.9h-2.6V-613.4z"/>
						<path fill="#010101" d="M-1203.9-613.4h2.6v0.9h-2.6V-613.4z"/>
					</g>
				</g>
			</g>
			<g id="AL_AL_1_FSLRS_-_1_FF_X_355_00000119116684177918145130000018225270676680581041_" transform="translate(1087.5,825)">
				<g id="g172942_00000053531519534645081230000009001259874970202514_" transform="translate(-450,-1500)">
					
						<rect id="rect172940_00000170974418350415445640000005915663060384762804_" x="-562.5" y="675" fill="#FAA51A" width="75" height="75"/>
				</g>
			</g>
		</g>
	</g>
</g>
<g id="text" display="none">
	
		<rect id="frontbox" x="-1012.5" y="-825" display="inline" fill="none" stroke="#000000" stroke-miterlimit="10" width="1650" height="1275"/>
	<g id="align" display="inline">
	</g>
</g>
<g id="crop" display="none">
	<g id="front" display="inline">
		<g>
			<line fill="none" stroke="#939598" stroke-miterlimit="10" x1="-159.4" y1="0" x2="609.4" y2="0"/>
			<line fill="none" stroke="#939598" stroke-miterlimit="10" x1="-159.4" y1="75" x2="609.4" y2="75"/>
			<line fill="none" stroke="#939598" stroke-miterlimit="10" x1="0" y1="-9.4" x2="0" y2="159.4"/>
			<line fill="none" stroke="#939598" stroke-miterlimit="10" x1="75" y1="-9.4" x2="75" y2="159.4"/>
		</g>
	</g>
</g>
<g id="guides" display="none">
</g>
</svg>
