<?xml version="1.0" encoding="utf-8"?>
<!-- Generator: Adobe Illustrator 26.0.3, SVG Export Plug-In . SVG Version: 6.00 Build 0)  -->
<svg version="1.2" baseProfile="tiny" xmlns="http://www.w3.org/2000/svg" xmlns:xlink="http://www.w3.org/1999/xlink" x="0px"
	 y="0px" viewBox="0 0 75 75" overflow="visible" xml:space="preserve">
<g id="svg">
	<g>
		<g id="cs_layer_CNA_0002_00000023283088047694392320000015410210321053132443_">
			<g id="g169366_00000060018564281457370690000011209304467157080227_">
			</g>
			<g id="AL_AL_1_GREEK_-_1_GREEK_X_356_00000029734081303559665200000012831921117030417331_" transform="translate(1162.5,825)">
				<g id="g172964_00000140013384652525075610000014360853409290017455_" transform="translate(-450,-1500)">
					
						<rect id="rect172962_00000088105142886851437370000009295692535271280549_" x="-712.5" y="675" fill="#FAA51A" width="75" height="75"/>
				</g>
				<g id="g172981_00000170959191684805478380000003838297942039895182_" transform="translate(229.688,-150)">
					<g>
						<path fill="#010101" d="M-1326.5-655.4v17h-26.5v-17H-1326.5z M-1351.6-653.2v12.5l10.4-6.3L-1351.6-653.2z M-1329.3-654
							h-20.9l10.4,6.3L-1329.3-654z M-1350.2-639.8h20.9l-10.4-6.3L-1350.2-639.8z M-1338.4-646.9l10.4,6.3v-12.5L-1338.4-646.9z"/>
					</g>
					<g>
						<path fill="#010101" d="M-1377-621.7h-1.7v-10.7l-1.9,1.3v-1.6c0.4-0.2,1.6-1.1,2.1-1.5h1.4V-621.7z"/>
						<path fill="#010101" d="M-1362.5-631.3c0-1.5-0.6-2.4-2.3-2.4c-0.5,0-2.4,0.1-2.4,2.8v4.4c0,2.8,0.8,3.6,2.4,3.6
							c1.2,0,2-0.3,2.3-0.6v-3.9h-2.4v-1.4h4.1v6.3c-1.1,0.6-2.3,1-4,1c-2.8,0-4.1-1.4-4.1-5v-4.3c0-2.6,1.3-4.2,4.1-4.2
							c2.8,0,4.1,1,4,3.7H-1362.5z"/>
						<path fill="#010101" d="M-1356.4-629.5L-1356.4-629.5c0.6-1.4,1.4-1.5,2.8-1.5v1.5c-0.1,0-0.3,0-0.4-0.1c-0.1,0-0.3,0-0.4,0
							c-1.6,0-2.1,1.2-2.1,2.5v5.4h-1.5v-9.1h1.5V-629.5z"/>
						<path fill="#010101" d="M-1350.5-625.8c0,2.5,0.7,3,1.8,3c1,0,1.5-0.8,1.6-1.7h1.6c0,2-1.3,2.9-3.2,2.9
							c-1.9,0-3.5-0.6-3.5-4.6c0-2.7,0.3-4.9,3.5-4.9c2.6,0,3.2,1.4,3.2,4.4v0.8H-1350.5z M-1346.9-626.9c0-2.6-0.7-3-1.8-3
							c-0.9,0-1.7,0.5-1.7,3H-1346.9z"/>
						<path fill="#010101" d="M-1341.5-625.8c0,2.5,0.7,3,1.8,3c1,0,1.5-0.8,1.6-1.7h1.6c0,2-1.3,2.9-3.2,2.9
							c-1.9,0-3.5-0.6-3.5-4.6c0-2.7,0.3-4.9,3.5-4.9c2.6,0,3.2,1.4,3.2,4.4v0.8H-1341.5z M-1337.9-626.9c0-2.6-0.7-3-1.8-3
							c-0.9,0-1.7,0.5-1.7,3H-1337.9z"/>
						<path fill="#010101" d="M-1332.4-621.7h-1.5v-13h1.5v7.8h0l2.8-3.9h1.8l-3,3.9l3.6,5.2h-1.9l-3.2-5.1h0V-621.7z"/>
					</g>
					<g>
						<path fill="#010101" d="M-1342.3-665.7h1v7.2h-1V-665.7z"/>
						<path fill="#010101" d="M-1339.6-665.7h1v7.2h-1V-665.7z"/>
					</g>
					<g>
						<path fill="#010101" d="M-1363-651.1c-0.7,0.6-1.8,1.2-2.6,1.6v-1.6c1-0.5,2.1-1.2,2.7-1.7h1.4v11.1h-1.5V-651.1z"/>
					</g>
					<g>
						<path fill="#010101" d="M-1374.1-609.7h-1.1v-7.1l-1.2,0.8v-1.1c0.3-0.1,1.1-0.7,1.4-1h0.9V-609.7z"/>
						<path fill="#010101" d="M-1364.5-616c0-1-0.4-1.6-1.5-1.6c-0.3,0-1.6,0.1-1.6,1.9v2.9c0,1.9,0.6,2.4,1.6,2.4
							c0.8,0,1.3-0.2,1.5-0.4v-2.6h-1.6v-1h2.7v4.2c-0.7,0.4-1.5,0.6-2.7,0.6c-1.8,0-2.7-0.9-2.7-3.3v-2.8c0-1.7,0.9-2.8,2.7-2.8
							c1.9,0,2.8,0.7,2.7,2.5H-1364.5z"/>
						<path fill="#010101" d="M-1360.4-614.8L-1360.4-614.8c0.4-0.9,0.9-1,1.9-1v1c-0.1,0-0.2,0-0.3,0s-0.2,0-0.3,0
							c-1.1,0-1.4,0.8-1.4,1.6v3.6h-1v-6.1h1V-614.8z"/>
						<path fill="#010101" d="M-1356.5-612.4c0,1.7,0.5,2,1.2,2c0.7,0,1-0.5,1.1-1.2h1.1c0,1.3-0.8,2-2.1,2c-1.3,0-2.3-0.4-2.3-3.1
							c0-1.8,0.2-3.2,2.3-3.2c1.7,0,2.2,0.9,2.2,3v0.5H-1356.5z M-1354.1-613.1c0-1.8-0.5-2-1.2-2c-0.6,0-1.1,0.3-1.2,2H-1354.1z"/>
						<path fill="#010101" d="M-1350.5-612.4c0,1.7,0.5,2,1.2,2c0.7,0,1-0.5,1.1-1.2h1.1c0,1.3-0.8,2-2.1,2c-1.3,0-2.3-0.4-2.3-3.1
							c0-1.8,0.2-3.2,2.3-3.2c1.7,0,2.2,0.9,2.2,3v0.5H-1350.5z M-1348.1-613.1c0-1.8-0.5-2-1.2-2c-0.6,0-1.1,0.3-1.2,2H-1348.1z"/>
						<path fill="#010101" d="M-1344.4-609.7h-1v-8.7h1v5.2h0l1.8-2.6h1.2l-2,2.6l2.4,3.5h-1.2l-2.2-3.4h0V-609.7z"/>
						<path fill="#010101" d="M-1331.8-609.7h-1.3l-2-3.7l-1.9,3.7h-1.2l2.5-4.5l-2.4-4.2h1.3l1.8,3.4l1.8-3.4h1.2l-2.3,4.2
							L-1331.8-609.7z"/>
					</g>
				</g>
			</g>
			<g id="AL_AL_1_GREEK_-_NONE_357_00000018200624153939918660000018313313638173115061_" transform="translate(1237.5,825)">
				<g id="g172986_00000103242178516574806680000009793927829078009753_" transform="translate(-450,-1500)">
					
						<rect id="rect172984_00000042703859336720003050000002137383981614690480_" x="-712.5" y="675" fill="#FAA51A" width="75" height="75"/>
				</g>
			</g>
		</g>
	</g>
</g>
<g id="text" display="none">
	
		<rect id="frontbox" x="-1162.5" y="-825" display="inline" fill="none" stroke="#000000" stroke-miterlimit="10" width="1650" height="1275"/>
	<g id="align" display="inline">
	</g>
</g>
<g id="crop" display="none">
	<g id="front" display="inline">
		<g>
			<line fill="none" stroke="#939598" stroke-miterlimit="10" x1="-309.4" y1="0" x2="459.4" y2="0"/>
			<line fill="none" stroke="#939598" stroke-miterlimit="10" x1="-309.4" y1="75" x2="459.4" y2="75"/>
			<line fill="none" stroke="#939598" stroke-miterlimit="10" x1="0" y1="-9.4" x2="0" y2="159.4"/>
			<line fill="none" stroke="#939598" stroke-miterlimit="10" x1="75" y1="-9.4" x2="75" y2="159.4"/>
		</g>
	</g>
</g>
<g id="guides" display="none">
</g>
</svg>
