<?xml version="1.0" encoding="utf-8"?>
<!-- Generator: Adobe Illustrator 26.0.3, SVG Export Plug-In . SVG Version: 6.00 Build 0)  -->
<svg version="1.2" baseProfile="tiny" xmlns="http://www.w3.org/2000/svg" xmlns:xlink="http://www.w3.org/1999/xlink" x="0px"
	 y="0px" viewBox="0 0 75 75" overflow="visible" xml:space="preserve">
<g id="svg">
	<g>
		<g id="cs_layer_CNA_0002_00000023283088047694392320000015410210321053132443_">
			<g id="g169366_00000060018564281457370690000011209304467157080227_">
			</g>
			<g id="AL_AL_11_CZCH_-_NONE_364_00000096740756582306917960000014374366055201333150_" transform="translate(1012.5,900)">
				<g id="g173142_00000042735900827618317400000016717006535924631168_" transform="translate(-450,-1500)">
					
						<rect id="rect173140_00000021092556469952442180000011469208732560741254_" x="-562.5" y="600" fill="#FAA51A" width="75" height="75"/>
				</g>
				<g id="g173159_00000029723979978026976900000009747363639689662135_" transform="translate(229.688,-150)">
					<g>
						<path fill="#010101" d="M-1176.5-730.4v17h-26.5v-17H-1176.5z M-1201.6-728.2v12.5l10.4-6.3L-1201.6-728.2z M-1179.3-729
							h-20.9l10.4,6.3L-1179.3-729z M-1200.2-714.8h20.9l-10.4-6.3L-1200.2-714.8z M-1188.4-721.9l10.4,6.3v-12.5L-1188.4-721.9z"/>
					</g>
					<g>
						<path fill="#010101" d="M-1227-696.7h-1.7v-10.7l-1.9,1.3v-1.6c0.4-0.2,1.6-1.1,2.1-1.5h1.4V-696.7z"/>
						<path fill="#010101" d="M-1219-696.7h-1.7v-10.7l-1.9,1.3v-1.6c0.4-0.2,1.6-1.1,2.1-1.5h1.4V-696.7z"/>
						<path fill="#010101" d="M-1205-706.2c0-0.7,0-1.5-0.4-1.9s-1.1-0.6-1.5-0.6c-1.4,0-1.9,0.8-2,1c-0.1,0.1-0.4,0.5-0.4,2.7v3.5
							c0,3.2,1,3.6,2.3,3.6c0.5,0,2-0.2,2.1-2.7h1.7c0.1,4.1-2.8,4.1-3.7,4.1c-1.6,0-4.1-0.1-4.1-5.2v-3.7c0-3.7,1.6-4.7,4.2-4.7
							c2.6,0,3.6,1.3,3.4,3.9H-1205z"/>
						<path fill="#010101" d="M-1196-704.5l-4,6.5h4.1v1.2h-5.7v-1.4l4-6.5v0h-3.8v-1.2h5.4V-704.5z"/>
						<path fill="#010101" d="M-1189.1-702.9c0-1.5-0.7-1.9-1.3-1.9c-1.1,0-1.9,0.5-1.9,3c0,3,0.4,4,1.9,4c0.3,0,1.4-0.4,1.3-2h1.5
							c0.1,2.6-1.9,3.2-2.9,3.2c-1.9,0-3.5-0.6-3.5-4.6c0-2.7,0.3-4.9,3.5-4.9c1.8,0,2.9,1.1,2.8,3.1H-1189.1z"/>
						<path fill="#010101" d="M-1180-696.7v-6.2c0-1.1-0.4-1.9-1.6-1.9c-1.5,0-1.9,1.2-1.9,2.7v5.3h-1.5v-13h1.5v5.1h0.1
							c0.6-1.1,1.3-1.4,2.5-1.4c1.5,0,2.4,0.8,2.4,2.8v6.4H-1180z"/>
					</g>
					<g>
						<path fill="#010101" d="M-1192.3-740.7h1v7.2h-1V-740.7z"/>
						<path fill="#010101" d="M-1189.6-740.7h1v7.2h-1V-740.7z"/>
					</g>
					<g>
						<path fill="#010101" d="M-1212.9-728.1c3.3,0,3.7,3.6,3.7,5.6c0,2.6-0.5,4.1-1.5,5c-0.8,0.7-1.7,0.8-2.2,0.8
							c-1.5,0-2.5-0.9-3-1.8c-0.4-0.7-0.7-1.8-0.7-3.8C-1216.6-723.8-1216.4-728.1-1212.9-728.1z M-1212.9-717.9
							c1.9,0,2.2-2.4,2.2-4.4c0-2.7-0.5-4.5-2.1-4.5c-1.9,0-2.2,2.5-2.2,4.5C-1215-719.8-1214.6-717.9-1212.9-717.9z"/>
					</g>
					<g>
						<path fill="#010101" d="M-1207.9-688.4h2.6v0.9h-2.6V-688.4z"/>
						<path fill="#010101" d="M-1203.9-688.4h2.6v0.9h-2.6V-688.4z"/>
					</g>
				</g>
			</g>
			<g id="AL_AL_11_MRCH_-_2_FF_X_365_00000062877990449677124960000009124721213268999329_" transform="translate(1087.5,900)">
				<g id="g173164_00000068667456292743484370000013424800666288891573_" transform="translate(-450,-1500)">
					
						<rect id="rect173162_00000012440495742558910200000011559100882403612854_" x="-562.5" y="600" fill="#FAA51A" width="75" height="75"/>
				</g>
			</g>
		</g>
	</g>
</g>
<g id="text" display="none">
	
		<rect id="frontbox" x="-1012.5" y="-900" display="inline" fill="none" stroke="#000000" stroke-miterlimit="10" width="1650" height="1275"/>
	<g id="align" display="inline">
	</g>
</g>
<g id="crop" display="none">
	<g id="front" display="inline">
		<g>
			<line fill="none" stroke="#939598" stroke-miterlimit="10" x1="-159.4" y1="0" x2="609.4" y2="0"/>
			<line fill="none" stroke="#939598" stroke-miterlimit="10" x1="-159.4" y1="75" x2="609.4" y2="75"/>
			<line fill="none" stroke="#939598" stroke-miterlimit="10" x1="0" y1="-84.4" x2="0" y2="84.4"/>
			<line fill="none" stroke="#939598" stroke-miterlimit="10" x1="75" y1="-84.4" x2="75" y2="84.4"/>
		</g>
	</g>
</g>
<g id="guides" display="none">
</g>
</svg>
