<?xml version="1.0" encoding="utf-8"?>
<!-- Generator: Adobe Illustrator 26.0.3, SVG Export Plug-In . SVG Version: 6.00 Build 0)  -->
<svg version="1.2" baseProfile="tiny" xmlns="http://www.w3.org/2000/svg" xmlns:xlink="http://www.w3.org/1999/xlink" x="0px"
	 y="0px" viewBox="0 0 75 75" overflow="visible" xml:space="preserve">
<g id="svg">
	<g>
		<g id="cs_layer_CNA_0002_00000023283088047694392320000015410210321053132443_">
			<g id="g169366_00000060018564281457370690000011209304467157080227_">
			</g>
			<g id="AL_AL_1GRKFLD_-_1_GREEK_X_367_00000139264119665435843550000005690761763298828945_" transform="translate(1237.5,900)">
				<g id="g173208_00000093863712248012295510000004826291727469401737_" transform="translate(-450,-1500)">
					
						<rect id="rect173206_00000130616343708435765120000005987722426152038809_" x="-787.5" y="600" fill="#FAA51A" width="75" height="75"/>
				</g>
				<g id="g173225_00000032627538843786709460000000924747508367879605_" transform="translate(229.688,-150)">
					<g>
						<path fill="#010101" d="M-1401.5-730.4v17h-26.5v-17H-1401.5z M-1403-729h-23.6v14.2h23.6V-729z M-1417.6-721.9
							c0-1.4,1.2-2.6,2.8-2.6s2.8,1.2,2.8,2.6c0,1.4-1.2,2.6-2.8,2.6S-1417.6-720.5-1417.6-721.9z"/>
					</g>
					<g>
						<path fill="#010101" d="M-1451.5-696.7h-1.7v-10.7l-1.9,1.3v-1.6c0.4-0.2,1.6-1.1,2.1-1.5h1.4V-696.7z"/>
						<path fill="#010101" d="M-1441-706.3c0-1.5-0.6-2.4-2.3-2.4c-0.5,0-2.4,0.1-2.4,2.8v4.4c0,2.8,0.8,3.6,2.4,3.6
							c1.2,0,2-0.3,2.3-0.6v-3.9h-2.4v-1.4h4.1v6.3c-1.1,0.6-2.3,1-4,1c-2.8,0-4.1-1.4-4.1-5v-4.3c0-2.6,1.3-4.2,4.1-4.2
							c2.8,0,4.1,1,4,3.7H-1441z"/>
						<path fill="#010101" d="M-1434.9-704.5L-1434.9-704.5c0.6-1.4,1.4-1.5,2.8-1.5v1.5c-0.1,0-0.3,0-0.4-0.1c-0.1,0-0.3,0-0.4,0
							c-1.6,0-2.1,1.2-2.1,2.5v5.4h-1.5v-9.1h1.5V-704.5z"/>
						<path fill="#010101" d="M-1428.9-696.7h-1.5v-13h1.5v7.8h0l2.8-3.9h1.8l-3,3.9l3.6,5.2h-1.9l-3.2-5.1h0V-696.7z"/>
						<path fill="#010101" d="M-1422.4-696.7v-13h6.4v1.4h-4.8v4.2h4.5v1.4h-4.5v5.9H-1422.4z"/>
						<path fill="#010101" d="M-1413-696.7h-1.5v-13h1.5V-696.7z"/>
						<path fill="#010101" d="M-1405.6-709.7h1.5v13h-1.5v-1.1h0c-0.5,0.8-1.1,1.3-2.1,1.3c-1.5,0-2.9-0.6-2.9-4.6
							c0-2.3,0.1-4.9,3-4.9c0.9,0,1.5,0.4,2,1.1h0.1V-709.7z M-1407.3-704.8c-1.6,0-1.8,1.3-1.8,3.7c0,1.4,0,3.3,1.9,3.3
							c1.7,0,1.7-2.1,1.7-3.9C-1405.6-702.9-1405.7-704.8-1407.3-704.8z"/>
					</g>
					<g>
						<path fill="#010101" d="M-1417.3-740.7h1v7.2h-1V-740.7z"/>
						<path fill="#010101" d="M-1414.6-740.7h1v7.2h-1V-740.7z"/>
					</g>
					<g>
						<path fill="#010101" d="M-1449.9-714.8c-0.9-2.1-1.9-4.8-1.9-7.1c0-1.3,0.3-2.5,0.7-3.7c0.4-1.4,0.9-2.5,1.1-3.2h1.1
							c-0.3,0.8-0.6,1.9-0.9,3.4c-0.3,1.5-0.4,2.5-0.4,3.5c0,2.3,0.6,4.1,1.5,7.2H-1449.9z"/>
						<path fill="#010101" d="M-1446.8-718.2l2.9-2.8c0.6-0.6,1.2-1.2,1.7-1.9c0.6-0.9,0.8-1.4,0.8-2c0-0.5-0.2-1.8-1.8-1.8
							c-1.8,0-1.8,1.5-1.8,1.9h-1.7c0-0.5,0.1-1.6,1-2.4c0.8-0.7,1.7-0.8,2.4-0.8c1.7,0,3.4,0.9,3.4,3.2c0,0.7,0,1.2-1.2,2.8
							c-0.3,0.4-1.7,1.9-2,2.2l-1.9,1.8h5.3v1.3h-7V-718.2z"/>
						<path fill="#010101" d="M-1436.5-728.8c0.9,2.1,1.9,4.8,1.9,7.1c0,1.3-0.3,2.5-0.7,3.7c-0.4,1.4-0.9,2.5-1.1,3.2h-1.1
							c0.3-0.8,0.6-1.9,0.9-3.4c0.3-1.5,0.4-2.5,0.4-3.5c0-2.3-0.6-4.1-1.5-7.1H-1436.5z"/>
					</g>
					<g>
						<path fill="#010101" d="M-1449.1-684.7h-1.1v-7.1l-1.2,0.8v-1.1c0.3-0.1,1.1-0.7,1.4-1h0.9V-684.7z"/>
						<path fill="#010101" d="M-1439.5-691c0-1-0.4-1.6-1.5-1.6c-0.3,0-1.6,0.1-1.6,1.9v2.9c0,1.9,0.6,2.4,1.6,2.4
							c0.8,0,1.3-0.2,1.5-0.4v-2.6h-1.6v-1h2.7v4.2c-0.7,0.4-1.5,0.6-2.7,0.6c-1.8,0-2.7-0.9-2.7-3.3v-2.8c0-1.7,0.9-2.8,2.7-2.8
							c1.9,0,2.8,0.7,2.7,2.5H-1439.5z"/>
						<path fill="#010101" d="M-1435.4-689.8L-1435.4-689.8c0.4-0.9,0.9-1,1.9-1v1c-0.1,0-0.2,0-0.3,0s-0.2,0-0.3,0
							c-1.1,0-1.4,0.8-1.4,1.6v3.6h-1v-6.1h1V-689.8z"/>
						<path fill="#010101" d="M-1431.5-687.4c0,1.7,0.5,2,1.2,2c0.7,0,1-0.5,1.1-1.2h1.1c0,1.3-0.8,2-2.1,2c-1.3,0-2.3-0.4-2.3-3.1
							c0-1.8,0.2-3.2,2.3-3.2c1.7,0,2.2,0.9,2.2,3v0.5H-1431.5z M-1429.1-688.1c0-1.8-0.5-2-1.2-2c-0.6,0-1.1,0.3-1.2,2H-1429.1z"/>
						<path fill="#010101" d="M-1425.5-687.4c0,1.7,0.5,2,1.2,2c0.7,0,1-0.5,1.1-1.2h1.1c0,1.3-0.8,2-2.1,2c-1.3,0-2.3-0.4-2.3-3.1
							c0-1.8,0.2-3.2,2.3-3.2c1.7,0,2.2,0.9,2.2,3v0.5H-1425.5z M-1423.1-688.1c0-1.8-0.5-2-1.2-2c-0.6,0-1.1,0.3-1.2,2H-1423.1z"/>
						<path fill="#010101" d="M-1419.4-684.7h-1v-8.7h1v5.2h0l1.8-2.6h1.2l-2,2.6l2.4,3.5h-1.2l-2.2-3.4h0V-684.7z"/>
						<path fill="#010101" d="M-1406.8-684.7h-1.3l-2-3.7l-1.9,3.7h-1.2l2.5-4.5l-2.4-4.2h1.3l1.8,3.4l1.8-3.4h1.2l-2.3,4.2
							L-1406.8-684.7z"/>
					</g>
				</g>
			</g>
			<g id="AL_AL_1MARINE_-_1_FF_X_368_00000039102772956188808470000016750645217795169212_" transform="translate(1312.5,900)">
				<g id="g173230_00000095312829407409485350000009670201305668584074_" transform="translate(-450,-1500)">
					
						<rect id="rect173228_00000115507591409097500970000017125425336701791401_" x="-787.5" y="600" fill="#FAA51A" width="75" height="75"/>
				</g>
			</g>
		</g>
	</g>
</g>
<g id="text" display="none">
	
		<rect id="frontbox" x="-1237.5" y="-900" display="inline" fill="none" stroke="#000000" stroke-miterlimit="10" width="1650" height="1275"/>
	<g id="align" display="inline">
	</g>
</g>
<g id="crop" display="none">
	<g id="front" display="inline">
		<g>
			<line fill="none" stroke="#939598" stroke-miterlimit="10" x1="-384.4" y1="0" x2="384.4" y2="0"/>
			<line fill="none" stroke="#939598" stroke-miterlimit="10" x1="-384.4" y1="75" x2="384.4" y2="75"/>
			<line fill="none" stroke="#939598" stroke-miterlimit="10" x1="0" y1="-84.4" x2="0" y2="84.4"/>
			<line fill="none" stroke="#939598" stroke-miterlimit="10" x1="75" y1="-84.4" x2="75" y2="84.4"/>
		</g>
	</g>
</g>
<g id="guides" display="none">
</g>
</svg>
