<?xml version="1.0" encoding="utf-8"?>
<!-- Generator: Adobe Illustrator 26.0.3, SVG Export Plug-In . SVG Version: 6.00 Build 0)  -->
<svg version="1.2" baseProfile="tiny" xmlns="http://www.w3.org/2000/svg" xmlns:xlink="http://www.w3.org/1999/xlink" x="0px"
	 y="0px" viewBox="0 0 75 75" overflow="visible" xml:space="preserve">
<g id="svg">
	<g>
		<g id="cs_layer_CNA_0002_00000023283088047694392320000015410210321053132443_">
			<g id="g169366_00000060018564281457370690000011209304467157080227_">
			</g>
			
				<g id="AL_AL_1_POL_-_POLISH_X_A_T__361_00000152225229910117014780000017122338851479877306_" transform="translate(1537.5,825)">
				<g id="g173076_00000038377988687468840840000001017866308685477269_" transform="translate(-450,-1500)">
					
						<rect id="rect173074_00000080170764716556364740000004965120992891614608_" x="-1087.5" y="675" fill="#FAA51A" width="75" height="75"/>
				</g>
				<g id="g173093_00000165938341441544677770000002672625938658502837_" transform="translate(229.688,-150)">
					<g>
						<path fill="#010101" d="M-1701.5-655.4v17h-26.5v-17H-1701.5z M-1726.6-654v13.1l10.9-13.1H-1726.6z M-1725.7-639.8h21.8
							l-10.9-13.1L-1725.7-639.8z M-1717.6-645c0-1.4,1.2-2.6,2.8-2.6s2.8,1.2,2.8,2.6c0,1.4-1.2,2.6-2.8,2.6
							S-1717.6-643.6-1717.6-645z M-1703-654h-10.9l10.9,13.1V-654z"/>
					</g>
					<g>
						<path fill="#010101" d="M-1742-621.7h-1.7v-10.7l-1.9,1.3v-1.6c0.4-0.2,1.6-1.1,2.1-1.5h1.4V-621.7z"/>
						<path fill="#010101" d="M-1733.5-621.7v-13h3.9c1.7,0,3.6,0.6,3.6,3.7c0,3-2.3,3.6-3.6,3.6h-2.2v5.7H-1733.5z M-1731.9-628.9
							h1.8c0.7,0,2.3-0.2,2.3-2.2c0-2-1.5-2.2-1.8-2.2h-2.3V-628.9z"/>
						<path fill="#010101" d="M-1724.1-626.2c0-2.7,0.3-4.9,3.5-4.9s3.5,2.2,3.5,4.9c0,4-1.5,4.6-3.5,4.6
							C-1722.6-621.6-1724.1-622.1-1724.1-626.2z M-1718.8-626.8c0-2.5-0.8-3-1.9-3s-1.9,0.5-1.9,3c0,3,0.4,4,1.9,4
							C-1719.2-622.8-1718.8-623.8-1718.8-626.8z"/>
						<path fill="#010101" d="M-1713.5-621.7h-1.5v-13h1.5V-621.7z"/>
					</g>
					<g>
						<path fill="#010101" d="M-1715.9-665.7h1v7.2h-1V-665.7z"/>
					</g>
					<g>
						<path fill="#010101" d="M-1738-651.1c-0.7,0.6-1.8,1.2-2.6,1.6v-1.6c1-0.5,2.1-1.2,2.7-1.7h1.4v11.1h-1.5V-651.1z"/>
					</g>
					<g>
						<path fill="#010101" d="M-1747.8-609.7v-8.7h2.6c1.2,0,2.4,0.4,2.4,2.5c0,2-1.5,2.4-2.4,2.4h-1.5v3.8H-1747.8z M-1746.7-614.4
							h1.2c0.5,0,1.5-0.1,1.5-1.5c0-1.3-1-1.5-1.2-1.5h-1.5V-614.4z"/>
						<path fill="#010101" d="M-1741.6-612.6c0-1.8,0.2-3.2,2.3-3.2c2.1,0,2.3,1.5,2.3,3.2c0,2.7-1,3.1-2.3,3.1
							C-1740.6-609.6-1741.6-609.9-1741.6-612.6z M-1738-613c0-1.7-0.5-2-1.3-2c-0.8,0-1.3,0.4-1.3,2c0,2,0.3,2.7,1.3,2.7
							C-1738.3-610.4-1738-611.1-1738-613z"/>
						<path fill="#010101" d="M-1734.5-609.7h-1v-8.7h1V-609.7z"/>
						<path fill="#010101" d="M-1732.8-618.3h1.1v1.1h-1.1V-618.3z M-1731.8-609.7h-1v-6.1h1V-609.7z"/>
						<path fill="#010101" d="M-1728.3-609.6c-1.3,0-2.1-0.6-2.1-2h1.1c0,0.3,0,1.2,1,1.2c0.6,0,1-0.3,1-0.9c0-1.1-3-1.1-3-2.9
							c0-0.6,0.4-1.7,2.1-1.7c1.1,0,2,0.5,1.9,1.7h-1.1c0-0.6-0.3-1-0.9-1c-0.5,0-0.9,0.3-0.9,0.8c0,1.1,3,1,3,2.9
							C-1726.2-610.1-1727.1-609.6-1728.3-609.6z"/>
						<path fill="#010101" d="M-1721.5-609.7v-4.1c0-0.7-0.2-1.3-1.1-1.3c-1,0-1.2,0.8-1.2,1.8v3.6h-1v-8.7h1v3.4h0
							c0.4-0.7,0.9-0.9,1.6-0.9c1,0,1.6,0.5,1.6,1.9v4.3H-1721.5z"/>
						<path fill="#010101" d="M-1710.4-609.7h-1.3l-2-3.7l-1.9,3.7h-1.2l2.5-4.5l-2.4-4.2h1.3l1.8,3.4l1.8-3.4h1.2l-2.3,4.2
							L-1710.4-609.7z"/>
					</g>
				</g>
			</g>
		</g>
	</g>
</g>
<g id="text" display="none">
	
		<rect id="frontbox" x="-1537.5" y="-825" display="inline" fill="none" stroke="#000000" stroke-miterlimit="10" width="1650" height="1275"/>
	<g id="align" display="inline">
	</g>
</g>
<g id="crop" display="none">
	<g id="front" display="inline">
		<g>
			<line fill="none" stroke="#939598" stroke-miterlimit="10" x1="-684.4" y1="0" x2="84.4" y2="0"/>
			<line fill="none" stroke="#939598" stroke-miterlimit="10" x1="-684.4" y1="75" x2="84.4" y2="75"/>
			<line fill="none" stroke="#939598" stroke-miterlimit="10" x1="0" y1="-9.4" x2="0" y2="159.4"/>
			<line fill="none" stroke="#939598" stroke-miterlimit="10" x1="75" y1="-9.4" x2="75" y2="159.4"/>
		</g>
	</g>
</g>
<g id="guides" display="none">
</g>
</svg>
