<?xml version="1.0" encoding="utf-8"?>
<!-- Generator: Adobe Illustrator 26.0.3, SVG Export Plug-In . SVG Version: 6.00 Build 0)  -->
<svg version="1.2" baseProfile="tiny" xmlns="http://www.w3.org/2000/svg" xmlns:xlink="http://www.w3.org/1999/xlink" x="0px"
	 y="0px" viewBox="0 0 75 75" overflow="visible" xml:space="preserve">
<g id="svg">
	<g>
		<g id="cs_layer_CNA_0002_00000023283088047694392320000015410210321053132443_">
			<g id="g169366_00000060018564281457370690000011209304467157080227_">
			</g>
			<g id="AL_AL_2_FREEFR_-_NONE_369_00000175284966332637521740000012196581172386118784_" transform="translate(1387.5,900)">
				<g id="g173252_00000012435765852533296260000015082636513317293495_" transform="translate(-450,-1500)">
					
						<rect id="rect173250_00000142158587188101409900000001611203110439693477_" x="-937.5" y="600" fill="#FAA51A" width="75" height="75"/>
				</g>
				<g id="g173271_00000029031810764839833580000017518595777213815473_" transform="translate(229.688,-150)">
					
						<rect id="rect173254_00000031922313222435991410000007409848305402151344_" x="-1617.2" y="-731.2" fill="#FDD700" width="75" height="18.8"/>
					<g>
						<path fill="#010101" d="M-1551.5-730.4v17h-26.5v-17H-1551.5z M-1576.6-728.2v12.5l10.4-6.3L-1576.6-728.2z M-1554.3-729
							h-20.9l10.4,6.3L-1554.3-729z M-1575.2-714.8h20.9l-10.4-6.3L-1575.2-714.8z M-1563.4-721.9l10.4,6.3v-12.5L-1563.4-721.9z"/>
					</g>
					<g>
						<path fill="#010101" d="M-1607.9-696.7v-1.4c3.7-5.1,4.7-6,4.7-8.2c0-1-0.5-1.7-1.5-1.7c-1.2,0-1.5,1-1.5,2h-1.7
							c-0.1-2.1,0.9-3.4,3-3.4c2.3,0,3.3,1,3.3,3.3c0,2.8-1.4,3.7-4.6,8h5v1.4H-1607.9z"/>
						<path fill="#010101" d="M-1595.4-696.7v-13h6.4v1.4h-4.8v4.2h4.5v1.4h-4.5v5.9H-1595.4z"/>
						<path fill="#010101" d="M-1585.9-704.5L-1585.9-704.5c0.6-1.4,1.4-1.5,2.8-1.5v1.5c-0.1,0-0.3,0-0.4-0.1c-0.1,0-0.3,0-0.4,0
							c-1.6,0-2.1,1.2-2.1,2.5v5.4h-1.5v-9.1h1.5V-704.5z"/>
						<path fill="#010101" d="M-1580-700.8c0,2.5,0.7,3,1.8,3c1,0,1.5-0.8,1.6-1.7h1.6c0,2-1.3,2.9-3.2,2.9c-1.9,0-3.5-0.6-3.5-4.6
							c0-2.7,0.3-4.9,3.5-4.9c2.6,0,3.2,1.4,3.2,4.4v0.8H-1580z M-1576.4-701.9c0-2.6-0.7-3-1.8-3c-0.9,0-1.7,0.5-1.7,3H-1576.4z"/>
						<path fill="#010101" d="M-1571-700.8c0,2.5,0.7,3,1.8,3c1,0,1.5-0.8,1.6-1.7h1.6c0,2-1.3,2.9-3.2,2.9c-1.9,0-3.5-0.6-3.5-4.6
							c0-2.7,0.3-4.9,3.5-4.9c2.6,0,3.2,1.4,3.2,4.4v0.8H-1571z M-1567.4-701.9c0-2.6-0.7-3-1.8-3c-0.9,0-1.7,0.5-1.7,3H-1567.4z"/>
						<path fill="#010101" d="M-1563.4-696.7v-13h6.4v1.4h-4.8v4.2h4.5v1.4h-4.5v5.9H-1563.4z"/>
						<path fill="#010101" d="M-1553.9-704.5L-1553.9-704.5c0.6-1.4,1.4-1.5,2.8-1.5v1.5c-0.1,0-0.3,0-0.4-0.1c-0.1,0-0.3,0-0.4,0
							c-1.6,0-2.1,1.2-2.1,2.5v5.4h-1.5v-9.1h1.5V-704.5z"/>
					</g>
					<g>
						<path fill="#010101" d="M-1567.3-740.7l1.9,2.8l1.9-2.8h1.2l-2.6,3.5l2.7,3.8h-1.3l-2.1-3.1l-2.2,3.1h-1.2l2.8-3.8l-2.5-3.4
							H-1567.3z"/>
					</g>
					<g>
						<path fill="#010101" d="M-1588-726.1c-0.7,0.6-1.8,1.2-2.6,1.6v-1.6c1-0.5,2.1-1.2,2.7-1.7h1.4v11.1h-1.5V-726.1z"/>
					</g>
					<g>
						<path fill="#010101" d="M-1582.9-688.4h2.6v0.9h-2.6V-688.4z"/>
						<path fill="#010101" d="M-1578.9-688.4h2.6v0.9h-2.6V-688.4z"/>
					</g>
				</g>
			</g>
			<g id="AL_AL_2_GREEK_-_1_GREEK_X_370_00000170261897335984298230000010698235772416392332_" transform="translate(1462.5,900)">
				<g id="g173276_00000020366645526041732400000002778593401902722732_" transform="translate(-450,-1500)">
					
						<rect id="rect173274_00000024690150774909013450000018014360850434536579_" x="-937.5" y="600" fill="#FAA51A" width="75" height="75"/>
				</g>
			</g>
		</g>
	</g>
</g>
<g id="text" display="none">
	
		<rect id="frontbox" x="-1387.5" y="-900" display="inline" fill="none" stroke="#000000" stroke-miterlimit="10" width="1650" height="1275"/>
	<g id="align" display="inline">
	</g>
</g>
<g id="crop" display="none">
	<g id="front" display="inline">
		<g>
			<line fill="none" stroke="#939598" stroke-miterlimit="10" x1="-534.4" y1="0" x2="234.4" y2="0"/>
			<line fill="none" stroke="#939598" stroke-miterlimit="10" x1="-534.4" y1="75" x2="234.4" y2="75"/>
			<line fill="none" stroke="#939598" stroke-miterlimit="10" x1="0" y1="-84.4" x2="0" y2="84.4"/>
			<line fill="none" stroke="#939598" stroke-miterlimit="10" x1="75" y1="-84.4" x2="75" y2="84.4"/>
		</g>
	</g>
</g>
<g id="guides" display="none">
</g>
</svg>
