<?xml version="1.0" encoding="utf-8"?>
<!-- Generator: Adobe Illustrator 26.0.3, SVG Export Plug-In . SVG Version: 6.00 Build 0)  -->
<svg version="1.2" baseProfile="tiny" xmlns="http://www.w3.org/2000/svg" xmlns:xlink="http://www.w3.org/1999/xlink" x="0px"
	 y="0px" viewBox="0 0 75 75" overflow="visible" xml:space="preserve">
<g id="svg">
	<g>
		<g id="cs_layer_CNA_0002_00000023283088047694392320000015410210321053132443_">
			<g id="g169366_00000060018564281457370690000011209304467157080227_">
			</g>
			<g id="AL_AL_11_MRCH_-_2_FF_X_365_00000062877990449677124960000009124721213268999329_" transform="translate(1087.5,900)">
				<g id="g173164_00000068667456292743484370000013424800666288891573_" transform="translate(-450,-1500)">
					
						<rect id="rect173162_00000012440495742558910200000011559100882403612854_" x="-637.5" y="600" fill="#FAA51A" width="75" height="75"/>
				</g>
				<g id="g173181_00000168112107845459239450000006904098258776225680_" transform="translate(229.688,-150)">
					<g>
						<path fill="#010101" d="M-1251.5-730.4v17h-26.5v-17H-1251.5z M-1276.6-728.2v12.5l10.4-6.3L-1276.6-728.2z M-1254.3-729
							h-20.9l10.4,6.3L-1254.3-729z M-1275.2-714.8h20.9l-10.4-6.3L-1275.2-714.8z M-1263.4-721.9l10.4,6.3v-12.5L-1263.4-721.9z"/>
					</g>
					<g>
						<path fill="#010101" d="M-1304-696.7h-1.7v-10.7l-1.9,1.3v-1.6c0.4-0.2,1.6-1.1,2.1-1.5h1.4V-696.7z"/>
						<path fill="#010101" d="M-1296-696.7h-1.7v-10.7l-1.9,1.3v-1.6c0.4-0.2,1.6-1.1,2.1-1.5h1.4V-696.7z"/>
						<path fill="#010101" d="M-1286.2-696.7h-1.5v-13h2.7l3.3,10.9h0l3.3-10.9h2.7v13h-1.7v-11.6h0l-3.6,11.6h-1.6l-3.6-11.6h0
							V-696.7z"/>
						<path fill="#010101" d="M-1271.4-704.5L-1271.4-704.5c0.6-1.4,1.4-1.5,2.8-1.5v1.5c-0.1,0-0.3,0-0.4-0.1c-0.1,0-0.3,0-0.4,0
							c-1.6,0-2.1,1.2-2.1,2.5v5.4h-1.5v-9.1h1.5V-704.5z"/>
						<path fill="#010101" d="M-1262.2-702.9c0-1.5-0.7-1.9-1.3-1.9c-1.1,0-1.9,0.5-1.9,3c0,3,0.4,4,1.9,4c0.3,0,1.4-0.4,1.3-2h1.5
							c0.1,2.6-1.9,3.2-2.9,3.2c-1.9,0-3.5-0.6-3.5-4.6c0-2.7,0.3-4.9,3.5-4.9c1.8,0,2.9,1.1,2.8,3.1H-1262.2z"/>
						<path fill="#010101" d="M-1253-696.7v-6.2c0-1.1-0.4-1.9-1.6-1.9c-1.5,0-1.9,1.2-1.9,2.7v5.3h-1.5v-13h1.5v5.1h0.1
							c0.6-1.1,1.3-1.4,2.5-1.4c1.5,0,2.4,0.8,2.4,2.8v6.4H-1253z"/>
					</g>
					<g>
						<path fill="#010101" d="M-1267.3-740.7h1v7.2h-1V-740.7z"/>
						<path fill="#010101" d="M-1264.6-740.7h1v7.2h-1V-740.7z"/>
					</g>
					<g>
						<path fill="#010101" d="M-1288-726.1c-0.7,0.6-1.8,1.2-2.6,1.6v-1.6c1-0.5,2.1-1.2,2.7-1.7h1.4v11.1h-1.5V-726.1z"/>
					</g>
					<g>
						<path fill="#010101" d="M-1293.1-684.7v-1c2.4-3.4,3.2-4,3.2-5.5c0-0.7-0.3-1.1-1-1.1c-0.8,0-1,0.7-1,1.4h-1.1
							c-0.1-1.4,0.6-2.3,2-2.3c1.5,0,2.2,0.7,2.2,2.2c0,1.9-0.9,2.5-3.1,5.3h3.3v1H-1293.1z"/>
						<path fill="#010101" d="M-1284.7-684.7v-8.7h4.3v1h-3.2v2.8h3v1h-3v4H-1284.7z"/>
						<path fill="#010101" d="M-1279.4-684.7v-8.7h4.3v1h-3.2v2.8h3v1h-3v4H-1279.4z"/>
						<path fill="#010101" d="M-1265.8-684.7h-1.3l-2-3.7l-1.9,3.7h-1.2l2.5-4.5l-2.4-4.2h1.3l1.8,3.4l1.8-3.4h1.2l-2.3,4.2
							L-1265.8-684.7z"/>
					</g>
				</g>
			</g>
			<g id="AL_AL_1FMTMR_-_NONE_366_00000051381073517468183030000010181454523702489494_" transform="translate(1162.5,900)">
				<g id="g173186_00000112616684523024524210000011334367941361098114_" transform="translate(-450,-1500)">
					
						<rect id="rect173184_00000183932525759073566100000000939584895765507772_" x="-637.5" y="600" fill="#FAA51A" width="75" height="75"/>
				</g>
			</g>
		</g>
	</g>
</g>
<g id="text" display="none">
	
		<rect id="frontbox" x="-1087.5" y="-900" display="inline" fill="none" stroke="#000000" stroke-miterlimit="10" width="1650" height="1275"/>
	<g id="align" display="inline">
	</g>
</g>
<g id="crop" display="none">
	<g id="front" display="inline">
		<g>
			<line fill="none" stroke="#939598" stroke-miterlimit="10" x1="-234.4" y1="0" x2="534.4" y2="0"/>
			<line fill="none" stroke="#939598" stroke-miterlimit="10" x1="-234.4" y1="75" x2="534.4" y2="75"/>
			<line fill="none" stroke="#939598" stroke-miterlimit="10" x1="0" y1="-84.4" x2="0" y2="84.4"/>
			<line fill="none" stroke="#939598" stroke-miterlimit="10" x1="75" y1="-84.4" x2="75" y2="84.4"/>
		</g>
	</g>
</g>
<g id="guides" display="none">
</g>
</svg>
