<?xml version="1.0" encoding="utf-8"?>
<!-- Generator: Adobe Illustrator 26.0.3, SVG Export Plug-In . SVG Version: 6.00 Build 0)  -->
<svg version="1.2" baseProfile="tiny" xmlns="http://www.w3.org/2000/svg" xmlns:xlink="http://www.w3.org/1999/xlink" x="0px"
	 y="0px" viewBox="0 0 75 75" overflow="visible" xml:space="preserve">
<g id="svg">
	<g>
		<g id="cs_layer_CNA_0002_00000023283088047694392320000015410210321053132443_">
			<g id="g169366_00000060018564281457370690000011209304467157080227_">
			</g>
			<g id="AL_AL_1MARINE_-_1_FF_X_368_00000039102772956188808470000016750645217795169212_" transform="translate(1312.5,900)">
				<g id="g173230_00000095312829407409485350000009670201305668584074_" transform="translate(-450,-1500)">
					
						<rect id="rect173228_00000115507591409097500970000017125425336701791401_" x="-862.5" y="600" fill="#FAA51A" width="75" height="75"/>
				</g>
				<g id="g173247_00000059310164987344592800000009325282775952525489_" transform="translate(229.688,-150)">
					<g>
						<path fill="#010101" d="M-1476.5-730.4v17h-26.5v-17H-1476.5z M-1495.2-724.3l-6.4-3.9v12.5l6.1-3.6l-0.2-1.2
							c0-0.1,0-0.1,0.1-0.1c0,0,0.1,0,0.1,0l1,0.7l3.2-1.9h-1.2c0,0-0.1,0-0.1,0c0,0,0-0.1,0-0.1l0-0.9c0,0,0-0.1,0-0.1l-1-0.6
							c0,0,0,0,0,0c0,0,0,0,0,0c0,0,0,0,0,0c0,0,0,0,0,0c0,0,0,0,0,0c0,0,0,0,0,0l0,0c0,0,0,0,0,0c0,0,0,0,0,0c0,0,0,0,0,0
							c0,0,0,0,0,0l0,0c0,0,0,0,0,0c0,0,0,0,0,0l-0.1,0c0,0,0,0,0,0c0,0,0,0,0,0l0,0c0,0,0,0,0,0l0,0c0,0,0,0,0,0c0,0,0,0,0,0
							c0,0,0,0,0,0l0,0c0,0,0,0,0,0c0,0,0,0,0,0c0,0,0,0,0,0c0,0,0,0,0,0l0-0.1l0,0.1c0,0,0,0,0,0c0,0,0,0,0,0l0,0c0,0,0,0,0,0l0,0
							c0,0,0,0,0,0c0,0,0,0,0,0l0-0.1l-0.1,0.1l0,0c0,0,0,0,0,0l0,0c0,0,0,0,0,0s0,0,0,0s0,0,0,0c0,0,0,0,0,0l-0.1-0.1c0,0,0,0,0,0
							c0,0,0,0,0,0c0,0,0,0,0,0c0,0,0,0,0,0c0,0,0,0,0,0c0,0,0,0,0,0c0,0,0,0,0,0c0,0,0,0,0,0c0,0,0,0,0,0s0,0,0,0l0.1,0l-0.1,0
							c0,0,0,0,0,0c0,0,0,0,0,0c0,0,0,0,0,0c0,0,0,0,0,0c0,0,0-0.1,0-0.1l0.1,0l-0.1,0c0,0,0,0,0,0s0,0,0,0c0,0,0,0,0,0s0,0,0,0
							c0,0,0,0,0,0c0,0,0,0,0,0c0,0,0,0,0,0c0,0,0,0,0,0l0.1,0.1l-0.1-0.1C-1495.3-724.2-1495.3-724.2-1495.2-724.3L-1495.2-724.3
							C-1495.2-724.3-1495.2-724.3-1495.2-724.3z M-1490-729h-10.2l6.9,4.1l0.5-0.1c0,0,0.1,0,0.1,0l0.1,0l0.1,0l0.1,0
							c0,0,0.1,0,0.1,0l0.4,0c0,0,0.1,0,0.1,0c0,0,0.1,0,0.1,0c0,0,0.1,0,0.1,0l0.2,0.4l0-0.4l1-0.1c0,0,0,0,0,0v-0.2
							c0,0-0.1,0-0.1,0l0.1-0.3v0l-0.2,0.3c0,0-0.1,0-0.1,0c0,0-0.1-0.1-0.1-0.1c0,0-0.1-0.1-0.1-0.1c0,0-0.1-0.1-0.1-0.1
							c0,0-0.1-0.1-0.1-0.1c0,0-0.1-0.1-0.1-0.1c0,0-0.1-0.1-0.1-0.1c0,0-0.1-0.1-0.1-0.1c0,0-0.1-0.1-0.1-0.1c0,0-0.1-0.1-0.1-0.1
							c0,0-0.1-0.1-0.1-0.1c0,0-0.1-0.1-0.1-0.1c0,0,0-0.1,0-0.1c0,0,0-0.1,0-0.1c0,0,0-0.1,0-0.1c0,0,0-0.1,0-0.1c0,0,0-0.1,0-0.1
							c0,0,0-0.1,0-0.1c0,0,0-0.1,0-0.1c0,0,0-0.1,0-0.1c0,0,0-0.1,0-0.1c0,0,0-0.1,0-0.1l0-0.1c0,0,0-0.1,0-0.1c0,0,0-0.1,0-0.1
							c0,0,0-0.1,0-0.1c0,0,0-0.1,0-0.1c0,0,0.1-0.1,0.1-0.1c0,0,0-0.1,0-0.1c0,0,0.1-0.1,0.1-0.1c0,0,0.1-0.1,0.1-0.1
							c0,0,0.1-0.1,0.1-0.1c0,0,0.1-0.1,0.1-0.1c0,0,0.1-0.1,0.1-0.1c0,0,0.1-0.1,0.1-0.1c0,0,0.1,0,0.1-0.1c0,0,0.1-0.1,0.1-0.1
							c0,0,0.1,0,0.1,0c0,0,0.1,0,0.1,0c0,0,0.1,0,0.1,0l0.1,0C-1490.2-729-1490.1-729-1490-729C-1490.1-729-1490.1-729-1490-729z
							 M-1495.3-717.8l-5,3h10.5c0,0,0,0,0,0l-0.9-0.9c0,0,0,0,0,0l-2.1-0.7l-0.1-0.1c0,0-0.1-0.1-0.1-0.1l-1-0.9l-0.9,0.6
							c0,0,0,0-0.1,0c0,0,0,0-0.1,0c0,0-0.1-0.1-0.1-0.1L-1495.3-717.8z M-1495.3-724 M-1492.7-717.3l-0.1,0.4l0.2-0.3l1.1,0.5
							c0,0,0.1,0,0.1,0l0.3,0.1l0.7-0.7v-3.5l-2.9,1.8l0.6,0.4c0,0,0.1,0.1,0.1,0.1c0,0,0,0.1-0.1,0.1l-0.7,0.5l0.1,0.1l-0.2,0.3
							l0.2-0.3L-1492.7-717.3z M-1492.7-724.5L-1492.7-724.5l0-0.1L-1492.7-724.5z M-1492.5-724.3l2.1,1.3v-1.4l-1,0.1l-0.2-0.4
							l0,0.4l-0.2-0.4l0,0.4l-0.1,0l-0.2-0.4l0,0.4l-0.3,0l-0.2-0.4l0.1,0.4l-0.1,0l-0.2-0.4L-1492.5-724.3z M-1490.4-726.2
							l-0.1,0.4L-1490.4-726.2c0.1,0.1,0.2,0.1,0.2,0.1l0,0.1c0,0,0,0,0,0h0.1l0,0l0,0h0.8l0,0c0,0,0.1,0,0.1,0c0,0,0.1,0,0.1,0
							l0.3,0.3l-0.2-0.3l0.3,0.2l-0.2-0.3l0.3,0.2l-0.2-0.3l0.3,0.2l-0.3-0.3l0.4,0.1l-0.3-0.2l0.4,0.1l-0.3-0.2l0.1-0.1
							c0,0,0-0.1,0-0.1c0,0,0-0.1,0-0.1l0.4,0l-0.4-0.1c0,0,0-0.1,0-0.1l0.4,0l-0.4,0c0,0,0-0.1,0-0.1c0,0,0-0.1,0-0.1l0.3-0.2
							l-0.4,0.1c0,0,0-0.1,0-0.1c0,0,0-0.1,0-0.1c0,0,0-0.1-0.1-0.1l0.2-0.3l-0.3,0.2c0,0-0.1-0.1-0.1-0.1c0,0-0.1-0.1-0.1-0.1
							l0.2-0.3l-0.3,0.3c0,0-0.1,0-0.1-0.1c0,0-0.1,0-0.1,0l0.1-0.4l-0.2,0.3l0-0.4l-0.1,0.4v-0.4l-0.1,0.4l0-0.4l-0.1,0.4l-0.1-0.4
							l0,0.4l-0.1-0.4l0,0.4l-0.1-0.4l0,0.4l-0.2-0.3l0.1,0.4l-0.1,0l-0.2-0.3l0.1,0.4c0,0-0.1,0-0.1,0c0,0-0.1,0.1-0.1,0.1
							l-0.3-0.2l0.2,0.3c0,0-0.1,0.1-0.1,0.1l-0.3-0.2l0.3,0.2l-0.4-0.1l0.3,0.2l-0.4-0.1l0.3,0.2c0,0,0,0.1,0,0.1l-0.4,0l0.3,0.1
							c0,0,0,0.1,0,0.1c0,0,0,0.1,0,0.1l0,0.1c0,0,0,0.1,0,0.1c0,0,0,0.1,0,0.1l-0.3,0.2l0.4-0.1l-0.3,0.2l0.4-0.1l-0.3,0.2l0.3-0.1
							l-0.3,0.3l0.3-0.2l-0.3,0.3l0.3-0.2l-0.2,0.3l0.3-0.2l-0.2,0.3L-1490.4-726.2l-0.2,0.3L-1490.4-726.2z M-1490.4-724.8
							L-1490.4-724.8v0.2V-724.8z M-1489.6-714.8h10.3l-5-3l-0.1,0.7c0,0,0,0.1-0.1,0.1c0,0,0,0-0.1,0c0,0,0,0-0.1,0l-0.8-0.5
							l-0.1,0.2l-0.1,0.1c0,0-0.1,0.1-0.1,0.1l-0.8,0.6c0,0-0.1,0.1-0.1,0.1c0,0-0.1,0.1-0.1,0.1l-1.6,0.6c0,0-0.1,0-0.1,0l-0.1,0
							L-1489.6-714.8C-1489.6-714.8-1489.6-714.8-1489.6-714.8z M-1479.3-729h-10.1c0,0,0.1,0,0.1,0c0,0,0.1,0,0.1,0
							c0,0,0.1,0,0.1,0c0,0,0.1,0,0.1,0.1c0,0,0.1,0,0.1,0c0,0,0.1,0,0.1,0c0,0,0.1,0.1,0.1,0.1c0,0,0.1,0.1,0.1,0.1
							c0,0,0.1,0.1,0.1,0.1c0,0,0.1,0.1,0.1,0.1c0,0,0.1,0.1,0.1,0.1c0,0,0.1,0.1,0.1,0.1c0,0,0.1,0.1,0.1,0.1c0,0,0.1,0.1,0.1,0.1
							c0,0,0,0.1,0.1,0.1c0,0,0.1,0.1,0.1,0.1c0,0,0,0.1,0,0.1c0,0,0,0.1,0.1,0.1c0,0,0,0.1,0,0.1c0,0,0,0.1,0,0.1c0,0,0,0.1,0,0.1
							c0,0,0,0.1,0,0.1l-0.4,0.1l0.4,0c0,0,0,0.1,0,0.1l0,0.1c0,0,0,0.1,0,0.1c0,0,0,0.1,0,0.1c0,0,0,0.1,0,0.1c0,0,0,0.1,0,0.1
							l0,0.1c0,0,0,0.1,0,0.1c0,0,0,0.1,0,0.1l0,0.1c0,0,0,0.1,0,0.1c0,0,0,0.1-0.1,0.1c0,0-0.1,0.1-0.1,0.1c0,0-0.1,0.1-0.1,0.1
							c0,0-0.1,0.1-0.1,0.1c0,0-0.1,0.1-0.1,0.1c0,0-0.1,0.1-0.1,0.1c0,0-0.1,0.1-0.1,0.1c0,0-0.1,0.1-0.1,0.1c0,0-0.1,0.1-0.1,0.1
							c0,0-0.1,0.1-0.1,0.1c0,0-0.1,0.1-0.1,0.1c0,0-0.1,0-0.1,0c0,0,0,0,0,0v0.2l0.3,0c0,0,0.1,0,0.1,0l0.6,0c0,0,0.1,0,0.1,0
							l0.1,0c0,0,0.1,0,0.1,0l0.4,0c0,0,0.1,0,0.1,0l0.1,0.4l0,0.3l0.1-0.1l0-0.3l0.1-0.4c0,0,0.1,0,0.1,0l0.7,0.1c0,0,0,0,0.1,0
							L-1479.3-729z M-1487.1-724.3l-0.1-0.4l0,0.4l-0.5-0.1l-0.1-0.4l0,0.4l-0.1,0l-0.1-0.4l0,0.4c0,0-0.1,0-0.1,0l-0.5,0l-0.1-0.4
							l0,0.4l-0.3,0v1.3L-1487.1-724.3z M-1486.3-719l-2.7-1.6v3.3l0.6,0.6l0.2,0l0.2,0.3l-0.1-0.4l0.7-0.3c0,0,0.1-0.1,0.1-0.1
							l0.1-0.1l0.3,0.3l-0.2-0.3l0.3,0.3l-0.2-0.3l0.1-0.1l0.3,0.2l-0.2-0.3l0.5-0.4l0.3,0.2l-0.2-0.3l0.1-0.1l-0.7-0.5
							c0,0-0.1-0.1-0.1-0.1c0,0,0-0.1,0.1-0.1L-1486.3-719z M-1484-719.3l6.1,3.6v-12.5l-6.4,3.8c0,0,0,0,0,0l0,0c0,0,0,0,0,0l0,0
							c0,0,0,0,0,0c0,0,0,0,0,0l0,0c0,0,0,0,0,0c0,0,0,0,0,0c0,0,0,0,0,0c0,0,0,0,0,0s0,0,0,0c0,0,0,0,0,0c0,0,0,0,0,0c0,0,0,0,0,0
							s0,0,0,0.1c0,0,0,0,0,0c0,0,0,0,0,0c0,0,0,0.1,0,0.1c0,0,0,0,0,0c0,0,0,0,0,0l0,0c0,0,0,0,0,0c0,0,0,0,0,0c0,0,0,0,0,0.1
							c0,0,0,0,0,0s0,0,0,0c0,0,0,0,0,0c0,0,0,0,0,0c0,0,0,0,0,0c0,0,0,0,0,0l-0.1-0.1l0.1,0.1c0,0,0,0,0,0c0,0,0,0,0,0c0,0,0,0,0,0
							l-0.1-0.1l0.1,0.1c0,0,0,0,0,0l0,0c0,0,0,0,0,0l0,0c0,0,0,0,0,0c0,0,0,0,0,0l0,0l0,0c0,0,0,0,0,0c0,0,0,0-0.1,0l-0.1,0
							c0,0,0,0,0,0l0,0c0,0,0,0-0.1,0l-0.1,0c0,0,0,0,0,0c0,0,0,0,0,0l0-0.1l0,0.1c0,0,0,0,0,0c0,0,0,0,0,0l-0.1,0c0,0,0,0,0,0
							l-0.1,0c0,0,0,0,0,0c0,0,0,0,0,0l0,0c0,0,0,0,0,0l0,0c0,0,0,0,0,0l0,0c0,0,0,0,0,0c0,0,0,0,0,0c0,0,0,0,0,0l0,0c0,0,0,0,0,0
							c0,0,0,0,0,0c0,0,0,0,0,0l0,0c0,0,0,0,0,0c0,0,0,0,0,0c0,0,0,0,0,0c0,0,0,0,0,0c0,0,0,0,0,0l-1.1,0.7c0,0,0.1,0.1,0.1,0.1v0.9
							c0,0.1-0.1,0.1-0.1,0.1h-1.3l3.2,1.9l1-0.7c0,0,0.1,0,0.1,0c0,0,0.1,0.1,0.1,0.1L-1484-719.3z"/>
					</g>
					<g>
						<path fill="#010101" d="M-1529.5-696.7h-1.7v-10.7l-1.9,1.3v-1.6c0.4-0.2,1.6-1.1,2.1-1.5h1.4V-696.7z"/>
						<path fill="#010101" d="M-1523.7-696.7h-1.5v-13h2.7l3.3,10.9h0l3.3-10.9h2.7v13h-1.7v-11.6h0l-3.6,11.6h-1.6l-3.6-11.6h0
							V-696.7z"/>
						<path fill="#010101" d="M-1505.7-698.1L-1505.7-698.1c-0.5,1-1.2,1.5-2.3,1.5c-1.9,0-2.5-1.2-2.5-3c0-2.8,2.7-2.9,4.8-2.8
							c0-1.2,0.1-2.5-1.5-2.5c-1,0-1.5,0.7-1.4,1.6h-1.6c0.1-2,1.2-2.7,3.1-2.7c2.3,0,3,1.2,3,2.7v4.4c0,0.7,0.1,1.5,0.2,2.2h-1.6
							V-698.1z M-1509-699.5c0,0.9,0.4,1.7,1.4,1.7c0.9,0,2-0.6,1.9-3.5C-1507.2-701.2-1509-701.4-1509-699.5z"/>
						<path fill="#010101" d="M-1499.9-704.5L-1499.9-704.5c0.6-1.4,1.4-1.5,2.8-1.5v1.5c-0.1,0-0.3,0-0.4-0.1c-0.1,0-0.3,0-0.4,0
							c-1.6,0-2.1,1.2-2.1,2.5v5.4h-1.5v-9.1h1.5V-704.5z"/>
						<path fill="#010101" d="M-1495.5-709.7h1.7v1.6h-1.7V-709.7z M-1494-696.7h-1.5v-9.1h1.5V-696.7z"/>
						<path fill="#010101" d="M-1486.5-696.7v-6.3c0-1-0.3-1.8-1.6-1.8c-1.6,0-1.9,1.4-1.9,2.7v5.4h-1.5v-7.2c0-0.6,0-1.3-0.1-1.9
							h1.6v1.2h0.1c0.6-1,1.3-1.4,2.4-1.4c1.9,0,2.4,1.2,2.4,3v6.3H-1486.5z"/>
						<path fill="#010101" d="M-1481-700.8c0,2.5,0.7,3,1.8,3c1,0,1.5-0.8,1.6-1.7h1.6c0,2-1.3,2.9-3.2,2.9c-1.9,0-3.5-0.6-3.5-4.6
							c0-2.7,0.3-4.9,3.5-4.9c2.6,0,3.2,1.4,3.2,4.4v0.8H-1481z M-1477.4-701.9c0-2.6-0.7-3-1.8-3c-0.9,0-1.7,0.5-1.7,3H-1477.4z"/>
					</g>
					<g>
						<path fill="#010101" d="M-1492.3-740.7h1v7.2h-1V-740.7z"/>
						<path fill="#010101" d="M-1489.6-740.7h1v7.2h-1V-740.7z"/>
					</g>
					<g>
						<path fill="#010101" d="M-1513-726.1c-0.7,0.6-1.8,1.2-2.6,1.6v-1.6c1-0.5,2.1-1.2,2.7-1.7h1.4v11.1h-1.5V-726.1z"/>
					</g>
					<g>
						<path fill="#010101" d="M-1515.1-684.7h-1.1v-7.1l-1.2,0.8v-1.1c0.3-0.1,1.1-0.7,1.4-1h0.9V-684.7z"/>
						<path fill="#010101" d="M-1509.7-684.7v-8.7h4.3v1h-3.2v2.8h3v1h-3v4H-1509.7z"/>
						<path fill="#010101" d="M-1504.4-684.7v-8.7h4.3v1h-3.2v2.8h3v1h-3v4H-1504.4z"/>
						<path fill="#010101" d="M-1490.8-684.7h-1.3l-2-3.7l-1.9,3.7h-1.2l2.5-4.5l-2.4-4.2h1.3l1.8,3.4l1.8-3.4h1.2l-2.3,4.2
							L-1490.8-684.7z"/>
					</g>
				</g>
			</g>
			<g id="AL_AL_2_FREEFR_-_NONE_369_00000175284966332637521740000012196581172386118784_" transform="translate(1387.5,900)">
				<g id="g173252_00000012435765852533296260000015082636513317293495_" transform="translate(-450,-1500)">
					
						<rect id="rect173250_00000142158587188101409900000001611203110439693477_" x="-862.5" y="600" fill="#FAA51A" width="75" height="75"/>
				</g>
			</g>
		</g>
	</g>
</g>
<g id="text" display="none">
	
		<rect id="frontbox" x="-1312.5" y="-900" display="inline" fill="none" stroke="#000000" stroke-miterlimit="10" width="1650" height="1275"/>
	<g id="align" display="inline">
	</g>
</g>
<g id="crop" display="none">
	<g id="front" display="inline">
		<g>
			<line fill="none" stroke="#939598" stroke-miterlimit="10" x1="-459.4" y1="0" x2="309.4" y2="0"/>
			<line fill="none" stroke="#939598" stroke-miterlimit="10" x1="-459.4" y1="75" x2="309.4" y2="75"/>
			<line fill="none" stroke="#939598" stroke-miterlimit="10" x1="0" y1="-84.4" x2="0" y2="84.4"/>
			<line fill="none" stroke="#939598" stroke-miterlimit="10" x1="75" y1="-84.4" x2="75" y2="84.4"/>
		</g>
	</g>
</g>
<g id="guides" display="none">
</g>
</svg>
