<?xml version="1.0" encoding="utf-8"?>
<!-- Generator: Adobe Illustrator 26.0.3, SVG Export Plug-In . SVG Version: 6.00 Build 0)  -->
<svg version="1.2" baseProfile="tiny" xmlns="http://www.w3.org/2000/svg" xmlns:xlink="http://www.w3.org/1999/xlink" x="0px"
	 y="0px" viewBox="0 0 75 75" overflow="visible" xml:space="preserve">
<g id="svg">
	<g>
		<g id="cs_layer_CNA_0002_00000023283088047694392320000015410210321053132443_">
			<g id="g169366_00000060018564281457370690000011209304467157080227_">
			</g>
			<g id="AL_AL_2_GREEK_-_1_GREEK_X_370_00000170261897335984298230000010698235772416392332_" transform="translate(1462.5,900)">
				<g id="g173276_00000020366645526041732400000002778593401902722732_" transform="translate(-450,-1500)">
					
						<rect id="rect173274_00000024690150774909013450000018014360850434536579_" x="-1012.5" y="600" fill="#FAA51A" width="75" height="75"/>
				</g>
				<g id="g173293_00000045592327983202277430000004372019079756202900_" transform="translate(229.688,-150)">
					<g>
						<path fill="#010101" d="M-1626.5-730.4v17h-26.5v-17H-1626.5z M-1651.6-728.2v12.5l10.4-6.3L-1651.6-728.2z M-1629.3-729
							h-20.9l10.4,6.3L-1629.3-729z M-1650.2-714.8h20.9l-10.4-6.3L-1650.2-714.8z M-1638.4-721.9l10.4,6.3v-12.5L-1638.4-721.9z"/>
					</g>
					<g>
						<path fill="#010101" d="M-1681.4-696.7v-1.4c3.7-5.1,4.7-6,4.7-8.2c0-1-0.5-1.7-1.5-1.7c-1.2,0-1.5,1-1.5,2h-1.7
							c-0.1-2.1,0.9-3.4,3-3.4c2.3,0,3.3,1,3.3,3.3c0,2.8-1.4,3.7-4.6,8h5v1.4H-1681.4z"/>
						<path fill="#010101" d="M-1662.5-706.3c0-1.5-0.6-2.4-2.3-2.4c-0.5,0-2.4,0.1-2.4,2.8v4.4c0,2.8,0.8,3.6,2.4,3.6
							c1.2,0,2-0.3,2.3-0.6v-3.9h-2.4v-1.4h4.1v6.3c-1.1,0.6-2.3,1-4,1c-2.8,0-4.1-1.4-4.1-5v-4.3c0-2.6,1.3-4.2,4.1-4.2
							c2.8,0,4.1,1,4,3.7H-1662.5z"/>
						<path fill="#010101" d="M-1656.4-704.5L-1656.4-704.5c0.6-1.4,1.4-1.5,2.8-1.5v1.5c-0.1,0-0.3,0-0.4-0.1c-0.1,0-0.3,0-0.4,0
							c-1.6,0-2.1,1.2-2.1,2.5v5.4h-1.5v-9.1h1.5V-704.5z"/>
						<path fill="#010101" d="M-1650.5-700.8c0,2.5,0.7,3,1.8,3c1,0,1.5-0.8,1.6-1.7h1.6c0,2-1.3,2.9-3.2,2.9
							c-1.9,0-3.5-0.6-3.5-4.6c0-2.7,0.3-4.9,3.5-4.9c2.6,0,3.2,1.4,3.2,4.4v0.8H-1650.5z M-1646.9-701.9c0-2.6-0.7-3-1.8-3
							c-0.9,0-1.7,0.5-1.7,3H-1646.9z"/>
						<path fill="#010101" d="M-1641.5-700.8c0,2.5,0.7,3,1.8,3c1,0,1.5-0.8,1.6-1.7h1.6c0,2-1.3,2.9-3.2,2.9
							c-1.9,0-3.5-0.6-3.5-4.6c0-2.7,0.3-4.9,3.5-4.9c2.6,0,3.2,1.4,3.2,4.4v0.8H-1641.5z M-1637.9-701.9c0-2.6-0.7-3-1.8-3
							c-0.9,0-1.7,0.5-1.7,3H-1637.9z"/>
						<path fill="#010101" d="M-1632.4-696.7h-1.5v-13h1.5v7.8h0l2.8-3.9h1.8l-3,3.9l3.6,5.2h-1.9l-3.2-5.1h0V-696.7z"/>
					</g>
					<g>
						<path fill="#010101" d="M-1642.3-740.7h1v7.2h-1V-740.7z"/>
						<path fill="#010101" d="M-1639.6-740.7h1v7.2h-1V-740.7z"/>
					</g>
					<g>
						<path fill="#010101" d="M-1663-726.1c-0.7,0.6-1.8,1.2-2.6,1.6v-1.6c1-0.5,2.1-1.2,2.7-1.7h1.4v11.1h-1.5V-726.1z"/>
					</g>
					<g>
						<path fill="#010101" d="M-1674.1-684.7h-1.1v-7.1l-1.2,0.8v-1.1c0.3-0.1,1.1-0.7,1.4-1h0.9V-684.7z"/>
						<path fill="#010101" d="M-1664.5-691c0-1-0.4-1.6-1.5-1.6c-0.3,0-1.6,0.1-1.6,1.9v2.9c0,1.9,0.6,2.4,1.6,2.4
							c0.8,0,1.3-0.2,1.5-0.4v-2.6h-1.6v-1h2.7v4.2c-0.7,0.4-1.5,0.6-2.7,0.6c-1.8,0-2.7-0.9-2.7-3.3v-2.8c0-1.7,0.9-2.8,2.7-2.8
							c1.9,0,2.8,0.7,2.7,2.5H-1664.5z"/>
						<path fill="#010101" d="M-1660.4-689.8L-1660.4-689.8c0.4-0.9,0.9-1,1.9-1v1c-0.1,0-0.2,0-0.3,0s-0.2,0-0.3,0
							c-1.1,0-1.4,0.8-1.4,1.6v3.6h-1v-6.1h1V-689.8z"/>
						<path fill="#010101" d="M-1656.5-687.4c0,1.7,0.5,2,1.2,2c0.7,0,1-0.5,1.1-1.2h1.1c0,1.3-0.8,2-2.1,2c-1.3,0-2.3-0.4-2.3-3.1
							c0-1.8,0.2-3.2,2.3-3.2c1.7,0,2.2,0.9,2.2,3v0.5H-1656.5z M-1654.1-688.1c0-1.8-0.5-2-1.2-2c-0.6,0-1.1,0.3-1.2,2H-1654.1z"/>
						<path fill="#010101" d="M-1650.5-687.4c0,1.7,0.5,2,1.2,2c0.7,0,1-0.5,1.1-1.2h1.1c0,1.3-0.8,2-2.1,2c-1.3,0-2.3-0.4-2.3-3.1
							c0-1.8,0.2-3.2,2.3-3.2c1.7,0,2.2,0.9,2.2,3v0.5H-1650.5z M-1648.1-688.1c0-1.8-0.5-2-1.2-2c-0.6,0-1.1,0.3-1.2,2H-1648.1z"/>
						<path fill="#010101" d="M-1644.4-684.7h-1v-8.7h1v5.2h0l1.8-2.6h1.2l-2,2.6l2.4,3.5h-1.2l-2.2-3.4h0V-684.7z"/>
						<path fill="#010101" d="M-1631.8-684.7h-1.3l-2-3.7l-1.9,3.7h-1.2l2.5-4.5l-2.4-4.2h1.3l1.8,3.4l1.8-3.4h1.2l-2.3,4.2
							L-1631.8-684.7z"/>
					</g>
				</g>
			</g>
			<g id="AL_AL_2_LGETR_-_1_FF_X_371_00000105395277280901522160000007206446012250153125_" transform="translate(1537.5,900)">
				<g id="g173298_00000147904476186499254530000014198717168545638333_" transform="translate(-450,-1500)">
					
						<rect id="rect173296_00000050655881819672397560000001302483114029138872_" x="-1012.5" y="600" fill="#FAA51A" width="75" height="75"/>
				</g>
			</g>
		</g>
	</g>
</g>
<g id="text" display="none">
	
		<rect id="frontbox" x="-1462.5" y="-900" display="inline" fill="none" stroke="#000000" stroke-miterlimit="10" width="1650" height="1275"/>
	<g id="align" display="inline">
	</g>
</g>
<g id="crop" display="none">
	<g id="front" display="inline">
		<g>
			<line fill="none" stroke="#939598" stroke-miterlimit="10" x1="-609.4" y1="0" x2="159.4" y2="0"/>
			<line fill="none" stroke="#939598" stroke-miterlimit="10" x1="-609.4" y1="75" x2="159.4" y2="75"/>
			<line fill="none" stroke="#939598" stroke-miterlimit="10" x1="0" y1="-84.4" x2="0" y2="84.4"/>
			<line fill="none" stroke="#939598" stroke-miterlimit="10" x1="75" y1="-84.4" x2="75" y2="84.4"/>
		</g>
	</g>
</g>
<g id="guides" display="none">
</g>
</svg>
