<?xml version="1.0" encoding="utf-8"?>
<!-- Generator: Adobe Illustrator 26.0.3, SVG Export Plug-In . SVG Version: 6.00 Build 0)  -->
<svg version="1.2" baseProfile="tiny" xmlns="http://www.w3.org/2000/svg" xmlns:xlink="http://www.w3.org/1999/xlink" x="0px"
	 y="0px" viewBox="0 0 75 75" overflow="visible" xml:space="preserve">
<g id="svg">
	<g>
		<g id="cs_layer_CNA_0002_00000023283088047694392320000015410210321053132443_">
			<g id="g169366_00000060018564281457370690000011209304467157080227_">
			</g>
			<g id="AL_AL_1_POL_-_POLISH_X_362_00000098918695146883081600000008111897691686924428_" transform="translate(862.5,900)">
				<g id="g173098_00000080899610145162467230000007461414937535242624_" transform="translate(-450,-1500)">
					
						<rect id="rect173096_00000068648648768711198340000016710402173764645518_" x="-412.5" y="600" fill="#FAA51A" width="75" height="75"/>
				</g>
				<g id="g173115_00000088848352194503333930000009663944672092109952_" transform="translate(229.688,-150)">
					<g>
						<path fill="#010101" d="M-1026.5-730.4v17h-26.5v-17H-1026.5z M-1051.6-728.2v12.5l10.4-6.3L-1051.6-728.2z M-1029.3-729
							h-20.9l10.4,6.3L-1029.3-729z M-1050.2-714.8h20.9l-10.4-6.3L-1050.2-714.8z M-1038.4-721.9l10.4,6.3v-12.5L-1038.4-721.9z"/>
					</g>
					<g>
						<path fill="#010101" d="M-1067-696.7h-1.7v-10.7l-1.9,1.3v-1.6c0.4-0.2,1.6-1.1,2.1-1.5h1.4V-696.7z"/>
						<path fill="#010101" d="M-1058.5-696.7v-13h3.9c1.7,0,3.6,0.6,3.6,3.7c0,3-2.3,3.6-3.6,3.6h-2.2v5.7H-1058.5z M-1056.9-703.9
							h1.8c0.7,0,2.3-0.2,2.3-2.2c0-2-1.5-2.2-1.8-2.2h-2.3V-703.9z"/>
						<path fill="#010101" d="M-1049.1-701.2c0-2.7,0.3-4.9,3.5-4.9c3.2,0,3.5,2.2,3.5,4.9c0,4-1.5,4.6-3.5,4.6
							S-1049.1-697.1-1049.1-701.2z M-1043.8-701.8c0-2.5-0.8-3-1.9-3c-1.1,0-1.9,0.5-1.9,3c0,3,0.4,4,1.9,4
							S-1043.8-698.8-1043.8-701.8z"/>
						<path fill="#010101" d="M-1038.5-696.7h-1.5v-13h1.5V-696.7z"/>
					</g>
					<g>
						<path fill="#010101" d="M-1042.3-740.7h1v7.2h-1V-740.7z"/>
						<path fill="#010101" d="M-1039.6-740.7h1v7.2h-1V-740.7z"/>
					</g>
					<g>
						<path fill="#010101" d="M-1063-726.1c-0.7,0.6-1.8,1.2-2.6,1.6v-1.6c1-0.5,2.1-1.2,2.7-1.7h1.4v11.1h-1.5V-726.1z"/>
					</g>
					<g>
						<path fill="#010101" d="M-1072.8-684.7v-8.7h2.6c1.2,0,2.4,0.4,2.4,2.5c0,2-1.5,2.4-2.4,2.4h-1.5v3.8H-1072.8z M-1071.7-689.4
							h1.2c0.5,0,1.5-0.1,1.5-1.5c0-1.3-1-1.5-1.2-1.5h-1.5V-689.4z"/>
						<path fill="#010101" d="M-1066.6-687.6c0-1.8,0.2-3.2,2.3-3.2c2.1,0,2.3,1.5,2.3,3.2c0,2.7-1,3.1-2.3,3.1
							C-1065.6-684.6-1066.6-684.9-1066.6-687.6z M-1063-688c0-1.7-0.5-2-1.3-2c-0.8,0-1.3,0.4-1.3,2c0,2,0.3,2.7,1.3,2.7
							C-1063.3-685.4-1063-686.1-1063-688z"/>
						<path fill="#010101" d="M-1059.5-684.7h-1v-8.7h1V-684.7z"/>
						<path fill="#010101" d="M-1057.8-693.3h1.1v1.1h-1.1V-693.3z M-1056.8-684.7h-1v-6.1h1V-684.7z"/>
						<path fill="#010101" d="M-1053.3-684.6c-1.3,0-2.1-0.6-2.1-2h1.1c0,0.3,0,1.2,1,1.2c0.6,0,1-0.3,1-0.9c0-1.1-3-1.1-3-2.9
							c0-0.6,0.4-1.7,2.1-1.7c1.1,0,2,0.5,1.9,1.7h-1.1c0-0.6-0.3-1-0.9-1c-0.5,0-0.9,0.3-0.9,0.8c0,1.1,3,1,3,2.9
							C-1051.2-685.1-1052.1-684.6-1053.3-684.6z"/>
						<path fill="#010101" d="M-1046.5-684.7v-4.1c0-0.7-0.2-1.3-1.1-1.3c-1,0-1.2,0.8-1.2,1.8v3.6h-1v-8.7h1v3.4h0
							c0.4-0.7,0.9-0.9,1.6-0.9c1,0,1.6,0.5,1.6,1.9v4.3H-1046.5z"/>
						<path fill="#010101" d="M-1035.4-684.7h-1.3l-2-3.7l-1.9,3.7h-1.2l2.5-4.5l-2.4-4.2h1.3l1.8,3.4l1.8-3.4h1.2l-2.3,4.2
							L-1035.4-684.7z"/>
					</g>
				</g>
			</g>
			<g id="AL_AL_1_POLCV_-_POLISH_X_363_00000149353960876302863400000009780678614380021422_" transform="translate(937.5,900)">
				<g id="g173120_00000106850286867003372990000013543762909080972473_" transform="translate(-450,-1500)">
					
						<rect id="rect173118_00000078752295670389047660000012635158513399892109_" x="-412.5" y="600" fill="#FAA51A" width="75" height="75"/>
				</g>
			</g>
		</g>
	</g>
</g>
<g id="text" display="none">
	
		<rect id="frontbox" x="-862.5" y="-900" display="inline" fill="none" stroke="#000000" stroke-miterlimit="10" width="1650" height="1275"/>
	<g id="align" display="inline">
	</g>
</g>
<g id="crop" display="none">
	<g id="front" display="inline">
		<g>
			<line fill="none" stroke="#939598" stroke-miterlimit="10" x1="-9.4" y1="0" x2="759.4" y2="0"/>
			<line fill="none" stroke="#939598" stroke-miterlimit="10" x1="-9.4" y1="75" x2="759.4" y2="75"/>
			<line fill="none" stroke="#939598" stroke-miterlimit="10" x1="0" y1="-84.4" x2="0" y2="84.4"/>
			<line fill="none" stroke="#939598" stroke-miterlimit="10" x1="75" y1="-84.4" x2="75" y2="84.4"/>
		</g>
	</g>
</g>
<g id="guides" display="none">
</g>
</svg>
