<?xml version="1.0" encoding="utf-8"?>
<!-- Generator: Adobe Illustrator 26.0.3, SVG Export Plug-In . SVG Version: 6.00 Build 0)  -->
<svg version="1.2" baseProfile="tiny" xmlns="http://www.w3.org/2000/svg" xmlns:xlink="http://www.w3.org/1999/xlink" x="0px"
	 y="0px" viewBox="0 0 75 75" overflow="visible" xml:space="preserve">
<g id="svg">
	<g>
		<g id="cs_layer_CNA_0002_00000023283088047694392320000015410210321053132443_">
			<g id="g169366_00000060018564281457370690000011209304467157080227_">
			</g>
			<g id="AL_AL_1FMTMR_-_NONE_366_00000051381073517468183030000010181454523702489494_" transform="translate(1162.5,900)">
				<g id="g173186_00000112616684523024524210000011334367941361098114_" transform="translate(-450,-1500)">
					
						<rect id="rect173184_00000183932525759073566100000000939584895765507772_" x="-712.5" y="600" fill="#FAA51A" width="75" height="75"/>
				</g>
				<g id="g173203_00000041991568198457512770000008780926167309057926_" transform="translate(229.688,-150)">
					<g>
						<path fill="#010101" d="M-1326.5-730.4v17h-26.5v-17H-1326.5z M-1351.6-718.8v3.1l3-1.8c-0.1,0-0.1,0-0.2,0
							C-1350-717.4-1351-717.9-1351.6-718.8z M-1345.2-724.3l-6.4-3.9v5c0.6-0.8,1.6-1.4,2.8-1.4c0,0,0,0,0,0c2,0,3.5,1.6,3.5,3.5
							c0,0.2,0,0.4-0.1,0.5l0.8,0.6l3.2-1.9h-1.2c0,0-0.1,0-0.1,0c0,0,0-0.1,0-0.1l0-0.9c0,0,0-0.1,0-0.1l-1-0.6c0,0,0,0,0,0
							c0,0,0,0,0,0c0,0,0,0,0,0c0,0,0,0,0,0c0,0,0,0,0,0c0,0,0,0,0,0l0,0c0,0,0,0,0,0c0,0,0,0,0,0c0,0,0,0,0,0c0,0,0,0,0,0l0,0
							c0,0,0,0,0,0c0,0,0,0,0,0l-0.1,0c0,0,0,0,0,0c0,0,0,0,0,0l0,0c0,0,0,0,0,0l0,0c0,0,0,0,0,0c0,0,0,0,0,0c0,0,0,0,0,0l0,0
							c0,0,0,0,0,0c0,0,0,0,0,0c0,0,0,0,0,0c0,0,0,0,0,0l0-0.1l0,0.1c0,0,0,0,0,0c0,0,0,0,0,0l0,0c0,0,0,0,0,0l0,0c0,0,0,0,0,0
							c0,0,0,0,0,0l0-0.1l-0.1,0.1l0,0c0,0,0,0,0,0l0,0c0,0,0,0,0,0s0,0,0,0s0,0,0,0c0,0,0,0,0,0l-0.1-0.1c0,0,0,0,0,0c0,0,0,0,0,0
							c0,0,0,0,0,0c0,0,0,0,0,0c0,0,0,0,0,0c0,0,0,0,0,0c0,0,0,0,0,0c0,0,0,0,0,0c0,0,0,0,0,0s0,0,0,0l0.1,0l-0.1,0c0,0,0,0,0,0
							c0,0,0,0,0,0c0,0,0,0,0,0c0,0,0,0,0,0c0,0,0-0.1,0-0.1l0.1,0l-0.1,0c0,0,0,0,0,0s0,0,0,0c0,0,0,0,0,0s0,0,0,0c0,0,0,0,0,0
							c0,0,0,0,0,0c0,0,0,0,0,0c0,0,0,0,0,0l0.1,0.1l-0.1-0.1C-1345.3-724.2-1345.3-724.2-1345.2-724.3L-1345.2-724.3
							C-1345.2-724.3-1345.2-724.3-1345.2-724.3z M-1346.7-721c0-1.2-1-2.1-2.1-2.1c-1.2,0-2.1,1-2.1,2.1c0,1.2,1,2.1,2.1,2.1
							C-1347.7-718.8-1346.7-719.8-1346.7-721z M-1340-729h-10.2l6.9,4.1l0.5-0.1c0,0,0.1,0,0.1,0l0.1,0l0.1,0l0.1,0
							c0,0,0.1,0,0.1,0l0.4,0c0,0,0.1,0,0.1,0c0,0,0.1,0,0.1,0c0,0,0.1,0,0.1,0l0.2,0.4l0-0.4l1-0.1c0,0,0,0,0,0v-0.2
							c0,0-0.1,0-0.1,0l0.1-0.3v0l-0.2,0.3c0,0-0.1,0-0.1,0c0,0-0.1-0.1-0.1-0.1c0,0-0.1-0.1-0.1-0.1c0,0-0.1-0.1-0.1-0.1
							c0,0-0.1-0.1-0.1-0.1c0,0-0.1-0.1-0.1-0.1c0,0-0.1-0.1-0.1-0.1c0,0-0.1-0.1-0.1-0.1c0,0-0.1-0.1-0.1-0.1c0,0-0.1-0.1-0.1-0.1
							c0,0-0.1-0.1-0.1-0.1c0,0-0.1-0.1-0.1-0.1c0,0,0-0.1,0-0.1c0,0,0-0.1,0-0.1c0,0,0-0.1,0-0.1c0,0,0-0.1,0-0.1c0,0,0-0.1,0-0.1
							c0,0,0-0.1,0-0.1c0,0,0-0.1,0-0.1c0,0,0-0.1,0-0.1c0,0,0-0.1,0-0.1c0,0,0-0.1,0-0.1l0-0.1c0,0,0-0.1,0-0.1c0,0,0-0.1,0-0.1
							c0,0,0-0.1,0-0.1c0,0,0-0.1,0-0.1c0,0,0.1-0.1,0.1-0.1c0,0,0-0.1,0-0.1c0,0,0.1-0.1,0.1-0.1c0,0,0.1-0.1,0.1-0.1
							c0,0,0.1-0.1,0.1-0.1c0,0,0.1-0.1,0.1-0.1c0,0,0.1-0.1,0.1-0.1c0,0,0.1-0.1,0.1-0.1c0,0,0.1,0,0.1-0.1c0,0,0.1-0.1,0.1-0.1
							c0,0,0.1,0,0.1,0c0,0,0.1,0,0.1,0c0,0,0.1,0,0.1,0l0.1,0C-1340.2-729-1340.1-729-1340-729C-1340.1-729-1340.1-729-1340-729z
							 M-1350.2-714.8h10.5c0,0,0,0,0,0l-0.9-0.9c0,0,0,0,0,0l-2.1-0.7l-0.1-0.1c0,0-0.1-0.1-0.1-0.1l-1-0.9l-0.9,0.6c0,0,0,0-0.1,0
							c0,0,0,0-0.1,0c0,0-0.1-0.1-0.1-0.1l-0.1-0.7L-1350.2-714.8z M-1345.8-719.1l0.3-0.2l0-0.2
							C-1345.7-719.4-1345.7-719.2-1345.8-719.1z M-1345.3-724 M-1342.7-717.3l-0.1,0.4l0.2-0.3l1.1,0.5c0,0,0.1,0,0.1,0l0.3,0.1
							l0.7-0.7v-3.5l-2.9,1.8l0.6,0.4c0,0,0.1,0.1,0.1,0.1c0,0,0,0.1-0.1,0.1l-0.7,0.5l0.1,0.1l-0.2,0.3l0.2-0.3L-1342.7-717.3z
							 M-1342.7-724.5L-1342.7-724.5l0-0.1L-1342.7-724.5z M-1342.5-724.3l2.1,1.3v-1.4l-1,0.1l-0.2-0.4l0,0.4l-0.2-0.4l0,0.4
							l-0.1,0l-0.2-0.4l0,0.4l-0.3,0l-0.2-0.4l0.1,0.4l-0.1,0l-0.2-0.4L-1342.5-724.3z M-1340.4-726.2l-0.1,0.4L-1340.4-726.2
							c0.1,0.1,0.2,0.1,0.2,0.1l0,0.1c0,0,0,0,0,0h0.1l0,0l0,0h0.8l0,0c0,0,0.1,0,0.1,0c0,0,0.1,0,0.1,0l0.3,0.3l-0.2-0.3l0.3,0.2
							l-0.2-0.3l0.3,0.2l-0.2-0.3l0.3,0.2l-0.3-0.3l0.4,0.1l-0.3-0.2l0.4,0.1l-0.3-0.2l0.1-0.1c0,0,0-0.1,0-0.1c0,0,0-0.1,0-0.1
							l0.4,0l-0.4-0.1c0,0,0-0.1,0-0.1l0.4,0l-0.4,0c0,0,0-0.1,0-0.1c0,0,0-0.1,0-0.1l0.3-0.2l-0.4,0.1c0,0,0-0.1,0-0.1
							c0,0,0-0.1,0-0.1c0,0,0-0.1-0.1-0.1l0.2-0.3l-0.3,0.2c0,0-0.1-0.1-0.1-0.1c0,0-0.1-0.1-0.1-0.1l0.2-0.3l-0.3,0.3
							c0,0-0.1,0-0.1-0.1c0,0-0.1,0-0.1,0l0.1-0.4l-0.2,0.3l0-0.4l-0.1,0.4v-0.4l-0.1,0.4l0-0.4l-0.1,0.4l-0.1-0.4l0,0.4l-0.1-0.4
							l0,0.4l-0.1-0.4l0,0.4l-0.2-0.3l0.1,0.4l-0.1,0l-0.2-0.3l0.1,0.4c0,0-0.1,0-0.1,0c0,0-0.1,0.1-0.1,0.1l-0.3-0.2l0.2,0.3
							c0,0-0.1,0.1-0.1,0.1l-0.3-0.2l0.3,0.2l-0.4-0.1l0.3,0.2l-0.4-0.1l0.3,0.2c0,0,0,0.1,0,0.1l-0.4,0l0.3,0.1c0,0,0,0.1,0,0.1
							c0,0,0,0.1,0,0.1l0,0.1c0,0,0,0.1,0,0.1c0,0,0,0.1,0,0.1l-0.3,0.2l0.4-0.1l-0.3,0.2l0.4-0.1l-0.3,0.2l0.3-0.1l-0.3,0.3
							l0.3-0.2l-0.3,0.3l0.3-0.2l-0.2,0.3l0.3-0.2l-0.2,0.3L-1340.4-726.2l-0.2,0.3L-1340.4-726.2z M-1340.4-724.8L-1340.4-724.8
							v0.2V-724.8z M-1339.6-714.8h10.3l-5-3l-0.1,0.7c0,0,0,0.1-0.1,0.1c0,0,0,0-0.1,0c0,0,0,0-0.1,0l-0.8-0.5l-0.1,0.2l-0.1,0.1
							c0,0-0.1,0.1-0.1,0.1l-0.8,0.6c0,0-0.1,0.1-0.1,0.1c0,0-0.1,0.1-0.1,0.1l-1.6,0.6c0,0-0.1,0-0.1,0l-0.1,0L-1339.6-714.8
							C-1339.6-714.8-1339.6-714.8-1339.6-714.8z M-1329.3-729h-10.1c0,0,0.1,0,0.1,0c0,0,0.1,0,0.1,0c0,0,0.1,0,0.1,0
							c0,0,0.1,0,0.1,0.1c0,0,0.1,0,0.1,0c0,0,0.1,0,0.1,0c0,0,0.1,0.1,0.1,0.1c0,0,0.1,0.1,0.1,0.1c0,0,0.1,0.1,0.1,0.1
							c0,0,0.1,0.1,0.1,0.1c0,0,0.1,0.1,0.1,0.1c0,0,0.1,0.1,0.1,0.1c0,0,0.1,0.1,0.1,0.1c0,0,0.1,0.1,0.1,0.1c0,0,0,0.1,0.1,0.1
							c0,0,0.1,0.1,0.1,0.1c0,0,0,0.1,0,0.1c0,0,0,0.1,0.1,0.1c0,0,0,0.1,0,0.1c0,0,0,0.1,0,0.1c0,0,0,0.1,0,0.1c0,0,0,0.1,0,0.1
							l-0.4,0.1l0.4,0c0,0,0,0.1,0,0.1l0,0.1c0,0,0,0.1,0,0.1c0,0,0,0.1,0,0.1c0,0,0,0.1,0,0.1c0,0,0,0.1,0,0.1l0,0.1
							c0,0,0,0.1,0,0.1c0,0,0,0.1,0,0.1l0,0.1c0,0,0,0.1,0,0.1c0,0,0,0.1-0.1,0.1c0,0-0.1,0.1-0.1,0.1c0,0-0.1,0.1-0.1,0.1
							c0,0-0.1,0.1-0.1,0.1c0,0-0.1,0.1-0.1,0.1c0,0-0.1,0.1-0.1,0.1c0,0-0.1,0.1-0.1,0.1c0,0-0.1,0.1-0.1,0.1c0,0-0.1,0.1-0.1,0.1
							c0,0-0.1,0.1-0.1,0.1c0,0-0.1,0.1-0.1,0.1c0,0-0.1,0-0.1,0c0,0,0,0,0,0v0.2l0.3,0c0,0,0.1,0,0.1,0l0.6,0c0,0,0.1,0,0.1,0
							l0.1,0c0,0,0.1,0,0.1,0l0.4,0c0,0,0.1,0,0.1,0l0.1,0.4l0,0.3l0.1-0.1l0-0.3l0.1-0.4c0,0,0.1,0,0.1,0l0.7,0.1c0,0,0,0,0.1,0
							L-1329.3-729z M-1337.1-724.3l-0.1-0.4l0,0.4l-0.5-0.1l-0.1-0.4l0,0.4l-0.1,0l-0.1-0.4l0,0.4c0,0-0.1,0-0.1,0l-0.5,0l-0.1-0.4
							l0,0.4l-0.3,0v1.3L-1337.1-724.3z M-1336.3-719l-2.7-1.6v3.3l0.6,0.6l0.2,0l0.2,0.3l-0.1-0.4l0.7-0.3c0,0,0.1-0.1,0.1-0.1
							l0.1-0.1l0.3,0.3l-0.2-0.3l0.3,0.3l-0.2-0.3l0.1-0.1l0.3,0.2l-0.2-0.3l0.5-0.4l0.3,0.2l-0.2-0.3l0.1-0.1l-0.7-0.5
							c0,0-0.1-0.1-0.1-0.1c0,0,0-0.1,0.1-0.1L-1336.3-719z M-1328-723.1v-5l-6.4,3.8c0,0,0,0,0,0l0,0c0,0,0,0,0,0l0,0c0,0,0,0,0,0
							c0,0,0,0,0,0l0,0c0,0,0,0,0,0c0,0,0,0,0,0c0,0,0,0,0,0c0,0,0,0,0,0s0,0,0,0c0,0,0,0,0,0c0,0,0,0,0,0c0,0,0,0,0,0
							c0,0,0,0,0,0.1c0,0,0,0,0,0c0,0,0,0,0,0c0,0,0,0.1,0,0.1c0,0,0,0,0,0c0,0,0,0,0,0l0,0c0,0,0,0,0,0c0,0,0,0,0,0c0,0,0,0,0,0.1
							c0,0,0,0,0,0s0,0,0,0c0,0,0,0,0,0c0,0,0,0,0,0c0,0,0,0,0,0c0,0,0,0,0,0l-0.1-0.1l0.1,0.1c0,0,0,0,0,0c0,0,0,0,0,0c0,0,0,0,0,0
							l-0.1-0.1l0.1,0.1c0,0,0,0,0,0l0,0c0,0,0,0,0,0l0,0c0,0,0,0,0,0c0,0,0,0,0,0l0,0l0,0c0,0,0,0,0,0c0,0,0,0-0.1,0l-0.1,0
							c0,0,0,0,0,0l0,0c0,0,0,0-0.1,0l-0.1,0c0,0,0,0,0,0c0,0,0,0,0,0l0-0.1l0,0.1c0,0,0,0,0,0c0,0,0,0,0,0l-0.1,0c0,0,0,0,0,0
							l-0.1,0c0,0,0,0,0,0c0,0,0,0,0,0l0,0c0,0,0,0,0,0l0,0c0,0,0,0,0,0l0,0c0,0,0,0,0,0c0,0,0,0,0,0c0,0,0,0,0,0l0,0c0,0,0,0,0,0
							c0,0,0,0,0,0c0,0,0,0,0,0l0,0c0,0,0,0,0,0c0,0,0,0,0,0c0,0,0,0,0,0c0,0,0,0,0,0c0,0,0,0,0,0l-1.1,0.7c0,0,0.1,0.1,0.1,0.1v0.9
							c0,0.1-0.1,0.1-0.1,0.1h-1.3l3.2,1.9l0.8-0.6c0-0.2-0.1-0.3-0.1-0.5c0-2,1.6-3.5,3.5-3.5C-1329.6-724.5-1328.6-724-1328-723.1
							z M-1334-719.3l0.3,0.2c-0.1-0.1-0.2-0.3-0.2-0.4L-1334-719.3z M-1330.7-718.8c1.2,0,2.1-1,2.1-2.1s-1-2.1-2.1-2.1
							c-1.2,0-2.1,1-2.1,2.1C-1332.9-719.8-1331.9-718.8-1330.7-718.8z M-1331-717.4l3,1.8v-3.1c-0.6,0.8-1.6,1.4-2.8,1.4
							C-1330.8-717.4-1330.9-717.4-1331-717.4z"/>
					</g>
					<g>
						<path fill="#010101" d="M-1378-696.7h-1.7v-10.7l-1.9,1.3v-1.6c0.4-0.2,1.6-1.1,2.1-1.5h1.4V-696.7z"/>
						<path fill="#010101" d="M-1373.9-696.7v-13h6.4v1.4h-4.8v4.2h4.5v1.4h-4.5v5.9H-1373.9z"/>
						<path fill="#010101" d="M-1364.2-696.7h-1.5v-13h2.7l3.3,10.9h0l3.3-10.9h2.7v13h-1.7v-11.6h0l-3.6,11.6h-1.6l-3.6-11.6h0
							V-696.7z"/>
						<path fill="#010101" d="M-1350.7-705.8v-1.7l1.5-0.7v2.4h2v1.1h-2v5.6c0,0.6,0,1.3,1.4,1.3c0.1,0,0.3,0,0.7-0.1v1.1
							c-0.5,0-1,0.1-1.5,0.1c-1.4,0-2-0.6-2-1.6v-6.5h-1.5v-1.1H-1350.7z"/>
						<path fill="#010101" d="M-1344.2-696.7h-1.5v-13h2.7l3.3,10.9h0l3.3-10.9h2.7v13h-1.7v-11.6h0l-3.6,11.6h-1.6l-3.6-11.6h0
							V-696.7z"/>
						<path fill="#010101" d="M-1329.4-704.5L-1329.4-704.5c0.6-1.4,1.4-1.5,2.8-1.5v1.5c-0.1,0-0.3,0-0.4-0.1c-0.1,0-0.3,0-0.4,0
							c-1.6,0-2.1,1.2-2.1,2.5v5.4h-1.5v-9.1h1.5V-704.5z"/>
					</g>
					<g>
						<path fill="#010101" d="M-1340.9-740.7h1v7.2h-1V-740.7z"/>
					</g>
					<g>
						<path fill="#010101" d="M-1363-726.1c-0.7,0.6-1.8,1.2-2.6,1.6v-1.6c1-0.5,2.1-1.2,2.7-1.7h1.4v11.1h-1.5V-726.1z"/>
					</g>
					<g>
						<path fill="#010101" d="M-1357.9-688.4h2.6v0.9h-2.6V-688.4z"/>
						<path fill="#010101" d="M-1353.9-688.4h2.6v0.9h-2.6V-688.4z"/>
					</g>
				</g>
			</g>
			<g id="AL_AL_1GRKFLD_-_1_GREEK_X_367_00000139264119665435843550000005690761763298828945_" transform="translate(1237.5,900)">
				<g id="g173208_00000093863712248012295510000004826291727469401737_" transform="translate(-450,-1500)">
					
						<rect id="rect173206_00000130616343708435765120000005987722426152038809_" x="-712.5" y="600" fill="#FAA51A" width="75" height="75"/>
				</g>
			</g>
		</g>
	</g>
</g>
<g id="text" display="none">
	
		<rect id="frontbox" x="-1162.5" y="-900" display="inline" fill="none" stroke="#000000" stroke-miterlimit="10" width="1650" height="1275"/>
	<g id="align" display="inline">
	</g>
</g>
<g id="crop" display="none">
	<g id="front" display="inline">
		<g>
			<line fill="none" stroke="#939598" stroke-miterlimit="10" x1="-309.4" y1="0" x2="459.4" y2="0"/>
			<line fill="none" stroke="#939598" stroke-miterlimit="10" x1="-309.4" y1="75" x2="459.4" y2="75"/>
			<line fill="none" stroke="#939598" stroke-miterlimit="10" x1="0" y1="-84.4" x2="0" y2="84.4"/>
			<line fill="none" stroke="#939598" stroke-miterlimit="10" x1="75" y1="-84.4" x2="75" y2="84.4"/>
		</g>
	</g>
</g>
<g id="guides" display="none">
</g>
</svg>
