<?xml version="1.0" encoding="utf-8"?>
<!-- Generator: Adobe Illustrator 26.0.3, SVG Export Plug-In . SVG Version: 6.00 Build 0)  -->
<svg version="1.2" baseProfile="tiny" xmlns="http://www.w3.org/2000/svg" xmlns:xlink="http://www.w3.org/1999/xlink" x="0px"
	 y="0px" viewBox="0 0 75 75" overflow="visible" xml:space="preserve">
<g id="svg">
	<g>
		<g id="cs_layer_CNA_0002_00000023283088047694392320000015410210321053132443_">
			<g id="g169366_00000060018564281457370690000011209304467157080227_">
			</g>
			<g id="AL_AL_2_LGETR_-_1_FF_X_371_00000105395277280901522160000007206446012250153125_" transform="translate(1537.5,900)">
				<g id="g173298_00000147904476186499254530000014198717168545638333_" transform="translate(-450,-1500)">
					
						<rect id="rect173296_00000050655881819672397560000001302483114029138872_" x="-1087.5" y="600" fill="#FAA51A" width="75" height="75"/>
				</g>
				<g id="g173315_00000033352046567769001250000017738309523740945554_" transform="translate(229.688,-150)">
					<g>
						<path fill="#010101" d="M-1701.5-730.4v17h-26.5v-17H-1701.5z M-1726.6-728.2v12.5l10.4-6.3L-1726.6-728.2z M-1704.3-729
							h-20.9l10.4,6.3L-1704.3-729z M-1725.2-714.8h20.9l-10.4-6.3L-1725.2-714.8z M-1713.4-721.9l10.4,6.3v-12.5L-1713.4-721.9z"/>
					</g>
					<g>
						<path fill="#010101" d="M-1753.4-696.7v-1.4c3.7-5.1,4.7-6,4.7-8.2c0-1-0.5-1.7-1.5-1.7c-1.2,0-1.5,1-1.5,2h-1.7
							c-0.1-2.1,0.9-3.4,3-3.4c2.3,0,3.3,1,3.3,3.3c0,2.8-1.4,3.7-4.6,8h5v1.4H-1753.4z"/>
						<path fill="#010101" d="M-1740.7-696.7v-13h1.7v11.6h4.8v1.4H-1740.7z"/>
						<path fill="#010101" d="M-1728.1-705.8h1.5v10c0,2-1.4,2.5-3.3,2.5c-1.5,0-2.9-0.8-2.8-2.4h1.7c0,0.8,0.6,1.3,1.4,1.3
							c1,0,1.6-0.6,1.6-1.6v-1.9h-0.1c-0.4,0.7-1.2,1.1-2,1.1c-2.5,0-3-2.1-3-4.8c0-4.2,2.1-4.4,2.8-4.4c1,0,1.7,0.4,2.1,1.3h0
							V-705.8z M-1729.8-704.8c-1.7,0-1.7,2-1.7,3.2c0,2.9,0.7,3.6,1.8,3.6c1.8,0,1.7-2.1,1.7-3.4
							C-1728.1-702.7-1728-704.8-1729.8-704.8z"/>
						<path fill="#010101" d="M-1723.7-696.7v-13h6.7v1.4h-5v4.2h4.7v1.4h-4.7v4.5h5.2v1.4H-1723.7z"/>
						<path fill="#010101" d="M-1714.7-705.8v-1.7l1.5-0.7v2.4h2v1.1h-2v5.6c0,0.6,0,1.3,1.4,1.3c0.1,0,0.3,0,0.7-0.1v1.1
							c-0.5,0-1,0.1-1.5,0.1c-1.4,0-2-0.6-2-1.6v-6.5h-1.5v-1.1H-1714.7z"/>
						<path fill="#010101" d="M-1708.4-704.5L-1708.4-704.5c0.6-1.4,1.4-1.5,2.8-1.5v1.5c-0.1,0-0.3,0-0.4-0.1c-0.1,0-0.3,0-0.4,0
							c-1.6,0-2.1,1.2-2.1,2.5v5.4h-1.5v-9.1h1.5V-704.5z"/>
					</g>
					<g>
						<path fill="#010101" d="M-1717.3-740.7h1v7.2h-1V-740.7z"/>
						<path fill="#010101" d="M-1714.6-740.7h1v7.2h-1V-740.7z"/>
					</g>
					<g>
						<path fill="#010101" d="M-1737.9-728.1c3.3,0,3.7,3.6,3.7,5.6c0,2.6-0.5,4.1-1.5,5c-0.8,0.7-1.7,0.8-2.2,0.8
							c-1.5,0-2.5-0.9-3-1.8c-0.4-0.7-0.7-1.8-0.7-3.8C-1741.6-723.8-1741.4-728.1-1737.9-728.1z M-1737.9-717.9
							c1.9,0,2.2-2.4,2.2-4.4c0-2.7-0.5-4.5-2.1-4.5c-1.9,0-2.2,2.5-2.2,4.5C-1740-719.8-1739.6-717.9-1737.9-717.9z"/>
					</g>
					<g>
						<path fill="#010101" d="M-1740.1-684.7h-1.1v-7.1l-1.2,0.8v-1.1c0.3-0.1,1.1-0.7,1.4-1h0.9V-684.7z"/>
						<path fill="#010101" d="M-1734.7-684.7v-8.7h4.3v1h-3.2v2.8h3v1h-3v4H-1734.7z"/>
						<path fill="#010101" d="M-1729.4-684.7v-8.7h4.3v1h-3.2v2.8h3v1h-3v4H-1729.4z"/>
						<path fill="#010101" d="M-1715.8-684.7h-1.3l-2-3.7l-1.9,3.7h-1.2l2.5-4.5l-2.4-4.2h1.3l1.8,3.4l1.8-3.4h1.2l-2.3,4.2
							L-1715.8-684.7z"/>
					</g>
				</g>
			</g>
		</g>
	</g>
</g>
<g id="text" display="none">
	
		<rect id="frontbox" x="-1537.5" y="-900" display="inline" fill="none" stroke="#000000" stroke-miterlimit="10" width="1650" height="1275"/>
	<g id="align" display="inline">
	</g>
</g>
<g id="crop" display="none">
	<g id="front" display="inline">
		<g>
			<line fill="none" stroke="#939598" stroke-miterlimit="10" x1="-684.4" y1="0" x2="84.4" y2="0"/>
			<line fill="none" stroke="#939598" stroke-miterlimit="10" x1="-684.4" y1="75" x2="84.4" y2="75"/>
			<line fill="none" stroke="#939598" stroke-miterlimit="10" x1="0" y1="-84.4" x2="0" y2="84.4"/>
			<line fill="none" stroke="#939598" stroke-miterlimit="10" x1="75" y1="-84.4" x2="75" y2="84.4"/>
		</g>
	</g>
</g>
<g id="guides" display="none">
</g>
</svg>
