<?xml version="1.0" encoding="utf-8"?>
<!-- Generator: Adobe Illustrator 26.0.3, SVG Export Plug-In . SVG Version: 6.00 Build 0)  -->
<svg version="1.2" baseProfile="tiny" xmlns="http://www.w3.org/2000/svg" xmlns:xlink="http://www.w3.org/1999/xlink" x="0px"
	 y="0px" viewBox="0 0 75 75" overflow="visible" xml:space="preserve">
<g id="svg">
	<g>
		<g id="cs_layer_CNA_0002_00000023283088047694392320000015410210321053132443_">
			<g id="g169366_00000060018564281457370690000011209304467157080227_">
			</g>
			<g id="BR_BR_44_RTR_-_1_ARMY_198_00000156572918310541737250000017887709455193201083_" transform="translate(262.5,75)">
				<g id="g169438_00000177486383038013014320000011314065547724315010_" transform="translate(-450,-1500)">
					
						<rect id="rect169436_00000097502494327532271760000005450259401576342154_" x="187.5" y="1425" fill="#ED2224" width="75" height="75"/>
				</g>
				<g id="g169455_00000093173008281458305980000006346929892500461998_" transform="translate(229.688,-150)">
					<g>
						<path fill="#FFFFFF" d="M-426.5,94.6v17H-453v-17H-426.5z M-428,96h-23.6v14.2h23.6V96z M-448.7,106.1c-0.8-0.8-1.2-1.9-1.2-3
							c0-2.3,1.9-4.2,4.2-4.2c0,0,0,0,0,0v0h11.8c0,0,0,0,0,0c2.3,0,4.2,2,4.2,4.3c0,2.3-1.9,4.2-4.2,4.2c0,0,0,0,0,0v0h-11.8
							c0,0,0,0,0,0c0,0,0,0,0,0C-446.8,107.3-447.9,106.9-448.7,106.1z M-448.5,103.1c0,0.8,0.3,1.5,0.8,2c0.5,0.5,1.2,0.9,2,0.9
							h11.8c0,0,0,0,0,0c1.5,0,2.8-1.3,2.8-2.8c0-1.6-1.2-2.9-2.8-2.9v0h-11.8C-447.2,100.3-448.5,101.5-448.5,103.1z"/>
					</g>
					<g>
						<path fill="#FFFFFF" d="M-478.7,125.2v-1.4l3.5-8h2.2v8h1.5v1.4h-1.5v3h-1.5v-3H-478.7z M-474.6,123.8v-6.5h0l-2.7,6.5H-474.6
							z"/>
						<path fill="#FFFFFF" d="M-470.7,125.2v-1.4l3.5-8h2.2v8h1.5v1.4h-1.5v3h-1.5v-3H-470.7z M-466.6,123.8v-6.5h0l-2.7,6.5H-466.6
							z"/>
						<path fill="#FFFFFF" d="M-456.1,122.3v6h-1.7v-13h4.5c2.3,0,3.1,1.6,3.1,3.2c0,1.5-0.8,2.7-2.4,3v0c1.5,0.2,2,0.7,2.1,3.3
							c0,0.6,0.2,2.6,0.5,3.4h-1.7c-0.5-0.9-0.4-2.6-0.5-4.3c-0.1-1.6-1.4-1.7-2-1.7H-456.1z M-456.1,120.8h2.5c1.2,0,1.8-1,1.8-2.2
							c0-0.9-0.5-2-1.7-2h-2.5V120.8z"/>
						<path fill="#FFFFFF" d="M-440.5,115.3v1.4h-3.4v11.6h-1.7v-11.6h-3.4v-1.4H-440.5z"/>
						<path fill="#FFFFFF" d="M-437.1,122.3v6h-1.7v-13h4.5c2.3,0,3.1,1.6,3.1,3.2c0,1.5-0.8,2.7-2.4,3v0c1.5,0.2,2,0.7,2.1,3.3
							c0,0.6,0.2,2.6,0.5,3.4h-1.7c-0.5-0.9-0.4-2.6-0.5-4.3c-0.1-1.6-1.4-1.7-2-1.7H-437.1z M-437.1,120.8h2.5c1.2,0,1.8-1,1.8-2.2
							c0-0.9-0.5-2-1.7-2h-2.5V120.8z"/>
					</g>
					<g>
						<path fill="#FFFFFF" d="M-442.3,84.3h1v7.2h-1V84.3z"/>
						<path fill="#FFFFFF" d="M-439.6,84.3h1v7.2h-1V84.3z"/>
					</g>
					<g>
						<path fill="#FFFFFF" d="M-463,98.9c-0.7,0.6-1.8,1.2-2.6,1.6v-1.6c1-0.5,2.1-1.2,2.7-1.7h1.4v11.1h-1.5V98.9z"/>
					</g>
					<g>
						<path fill="#FFFFFF" d="M-467.8,140.3h-1.1v-7.1l-1.2,0.8V133c0.3-0.1,1.1-0.7,1.4-1h0.9V140.3z"/>
						<path fill="#FFFFFF" d="M-460.4,131.7h1.4l2.8,8.7h-1.2l-0.6-2.1h-3.3l-0.6,2.1h-1.1L-460.4,131.7z M-459.7,132.7
							L-459.7,132.7l-1.4,4.6h2.8L-459.7,132.7z"/>
						<path fill="#FFFFFF" d="M-454.1,135.2L-454.1,135.2c0.4-0.9,0.9-1,1.9-1v1c-0.1,0-0.2,0-0.3,0s-0.2,0-0.3,0
							c-1.1,0-1.4,0.8-1.4,1.6v3.6h-1v-6.1h1V135.2z"/>
						<path fill="#FFFFFF" d="M-448.1,140.3v-4.2c0-0.6-0.2-1.2-1-1.2c-0.3,0-0.7,0.2-0.9,0.4c-0.2,0.3-0.2,0.7-0.2,0.9v4.1h-1v-4.8
							c0-0.4,0-0.8-0.1-1.3h1v0.8h0c0.3-0.6,0.8-0.9,1.5-0.9c0.6,0,1.2,0.2,1.4,0.8c0.3-0.6,0.9-0.8,1.4-0.8c0.6,0,1.7,0.1,1.7,1.6
							v4.6h-1v-4.2c0-0.6-0.2-1.2-1-1.2c-0.4,0-0.5,0-0.7,0.2c-0.3,0.2-0.3,0.8-0.3,1.1v4.1H-448.1z"/>
						<path fill="#FFFFFF" d="M-440.6,139.2L-440.6,139.2l1.5-4.9h1.1l-2.7,8.3h-1l0.7-2.3l-2.1-6.1h1.1L-440.6,139.2z"/>
					</g>
				</g>
			</g>
			<g id="BR_BR_45_RTR_-_24-8_199_00000098190945146926861490000010497898004352820154_" transform="translate(337.5,75)">
				<g id="g169460_00000137125623311249371760000004238960545536572851_" transform="translate(-450,-1500)">
					
						<rect id="rect169458_00000159452970635345636970000016677008254286844825_" x="187.5" y="1425" fill="#ED2224" width="75" height="75"/>
				</g>
			</g>
		</g>
	</g>
</g>
<g id="text" display="none">
	
		<rect id="frontbox" x="-262.5" y="-75" display="inline" fill="none" stroke="#000000" stroke-miterlimit="10" width="1650" height="1275"/>
	<g id="align" display="inline">
	</g>
</g>
<g id="crop" display="none">
	<g id="front" display="inline">
		<g>
			<line fill="none" stroke="#939598" stroke-miterlimit="10" x1="-234.4" y1="0" x2="534.4" y2="0"/>
			<line fill="none" stroke="#939598" stroke-miterlimit="10" x1="-234.4" y1="75" x2="534.4" y2="75"/>
			<line fill="none" stroke="#939598" stroke-miterlimit="10" x1="0" y1="-9.4" x2="0" y2="159.4"/>
			<line fill="none" stroke="#939598" stroke-miterlimit="10" x1="75" y1="-9.4" x2="75" y2="159.4"/>
		</g>
	</g>
</g>
<g id="guides" display="none">
</g>
</svg>
