<?xml version="1.0" encoding="utf-8"?>
<!-- Generator: Adobe Illustrator 26.0.3, SVG Export Plug-In . SVG Version: 6.00 Build 0)  -->
<svg version="1.2" baseProfile="tiny" xmlns="http://www.w3.org/2000/svg" xmlns:xlink="http://www.w3.org/1999/xlink" x="0px"
	 y="0px" viewBox="0 0 75 75" overflow="visible" xml:space="preserve">
<g id="svg">
	<g>
		<g id="cs_layer_CNA_0002_00000023283088047694392320000015410210321053132443_">
			<g id="g169366_00000060018564281457370690000011209304467157080227_">
			</g>
			<g id="BR_BR_45_RTR_-_24-8_199_00000098190945146926861490000010497898004352820154_" transform="translate(337.5,75)">
				<g id="g169460_00000137125623311249371760000004238960545536572851_" transform="translate(-450,-1500)">
					
						<rect id="rect169458_00000159452970635345636970000016677008254286844825_" x="112.5" y="1425" fill="#ED2224" width="75" height="75"/>
				</g>
				<g id="g169477_00000060004903804045409430000007505136140337006986_" transform="translate(229.688,-150)">
					<g>
						<path fill="#FFFFFF" d="M-501.5,94.6v17H-528v-17H-501.5z M-503,96h-23.6v14.2h23.6V96z M-523.7,106.1c-0.8-0.8-1.2-1.9-1.2-3
							c0-2.3,1.9-4.2,4.2-4.2c0,0,0,0,0,0v0h11.8c0,0,0,0,0,0c2.3,0,4.2,2,4.2,4.3c0,2.3-1.9,4.2-4.2,4.2c0,0,0,0,0,0v0h-11.8
							c0,0,0,0,0,0c0,0,0,0,0,0C-521.8,107.3-522.9,106.9-523.7,106.1z M-523.5,103.1c0,0.8,0.3,1.5,0.8,2c0.5,0.5,1.2,0.9,2,0.9
							h11.8c0,0,0,0,0,0c1.5,0,2.8-1.3,2.8-2.8c0-1.6-1.2-2.9-2.8-2.9v0h-11.8C-522.2,100.3-523.5,101.5-523.5,103.1z"/>
					</g>
					<g>
						<path fill="#FFFFFF" d="M-553.7,125.2v-1.4l3.5-8h2.2v8h1.5v1.4h-1.5v3h-1.5v-3H-553.7z M-549.6,123.8v-6.5h0l-2.7,6.5H-549.6
							z"/>
						<path fill="#FFFFFF" d="M-539.3,115.8v1.4h-4.2v3.6l0,0c0.3-0.5,1.1-0.9,2-0.9c1.8,0,2.6,1.3,2.6,4.2c0,2-0.3,4.4-3.4,4.4
							c-2.6,0-3.1-1.4-3.1-3.1h1.7c0,1,0.4,1.9,1.5,1.9c1.6,0,1.7-1.5,1.7-2.8c0-1.8-0.1-3.2-1.6-3.2c-0.9,0-1.4,0.6-1.5,1.5h-1.5
							v-7H-539.3z"/>
						<path fill="#FFFFFF" d="M-531.1,122.3v6h-1.7v-13h4.5c2.3,0,3.1,1.6,3.1,3.2c0,1.5-0.8,2.7-2.4,3v0c1.5,0.2,2,0.7,2.1,3.3
							c0,0.6,0.2,2.6,0.5,3.4h-1.7c-0.5-0.9-0.4-2.6-0.5-4.3c-0.1-1.6-1.4-1.7-2-1.7H-531.1z M-531.1,120.8h2.5c1.2,0,1.8-1,1.8-2.2
							c0-0.9-0.5-2-1.7-2h-2.5V120.8z"/>
						<path fill="#FFFFFF" d="M-515.5,115.3v1.4h-3.4v11.6h-1.7v-11.6h-3.4v-1.4H-515.5z"/>
						<path fill="#FFFFFF" d="M-512.1,122.3v6h-1.7v-13h4.5c2.3,0,3.1,1.6,3.1,3.2c0,1.5-0.8,2.7-2.4,3v0c1.5,0.2,2,0.7,2.1,3.3
							c0,0.6,0.2,2.6,0.5,3.4h-1.7c-0.5-0.9-0.4-2.6-0.5-4.3c-0.1-1.6-1.4-1.7-2-1.7H-512.1z M-512.1,120.8h2.5c1.2,0,1.8-1,1.8-2.2
							c0-0.9-0.5-2-1.7-2h-2.5V120.8z"/>
					</g>
					<g>
						<path fill="#FFFFFF" d="M-517.3,84.3h1v7.2h-1V84.3z"/>
						<path fill="#FFFFFF" d="M-514.6,84.3h1v7.2h-1V84.3z"/>
					</g>
					<g>
						<path fill="#FFFFFF" d="M-538,98.9c-0.7,0.6-1.8,1.2-2.6,1.6v-1.6c1-0.5,2.1-1.2,2.7-1.7h1.4v11.1h-1.5V98.9z"/>
					</g>
					<g>
						<path fill="#FFFFFF" d="M-538.8,140.3v-1c2.4-3.4,3.2-4,3.2-5.5c0-0.7-0.3-1.1-1-1.1c-0.8,0-1,0.7-1,1.4h-1.1
							c-0.1-1.4,0.6-2.3,2-2.3c1.5,0,2.2,0.7,2.2,2.2c0,1.9-0.9,2.5-3.1,5.3h3.3v1H-538.8z"/>
						<path fill="#FFFFFF" d="M-533.7,138.3v-1l2.4-5.3h1.5v5.3h1v1h-1v2h-1v-2H-533.7z M-530.9,137.3V133h0l-1.8,4.3H-530.9z"/>
						<path fill="#FFFFFF" d="M-528.1,141.5h-0.8l2.8-9.8h0.8L-528.1,141.5z"/>
						<path fill="#FFFFFF" d="M-521.9,135.9c1.2,0.1,1.5,1.1,1.5,2.2c0,1.5-0.8,2.4-2.2,2.4s-2.2-0.9-2.2-2.4c0-1.1,0.3-2,1.5-2.2v0
							c-1-0.2-1.5-1-1.5-2c0-1.3,0.8-2.1,2.1-2.1s2.1,0.8,2.1,2.1C-520.5,134.9-521,135.7-521.9,135.9L-521.9,135.9z M-521.5,138.1
							c0-0.7-0.1-1.7-1.1-1.7s-1.1,1-1.1,1.7c0,0.7,0.3,1.5,1.1,1.5S-521.5,138.8-521.5,138.1z M-521.6,133.9c0-0.6-0.3-1.2-1-1.2
							s-1,0.6-1,1.2c0,0.6,0.2,1.5,1,1.5S-521.6,134.5-521.6,133.9z"/>
					</g>
				</g>
			</g>
			<g id="BR_BR_46_RTR_-_23-8_200_00000045598732817106165140000000486414957965324734_" transform="translate(412.5,75)">
				<g id="g169482_00000080178120662776071070000018404693863548766632_" transform="translate(-450,-1500)">
					
						<rect id="rect169480_00000052062293928414580830000002419250635550012573_" x="112.5" y="1425" fill="#ED2224" width="75" height="75"/>
				</g>
			</g>
		</g>
	</g>
</g>
<g id="text" display="none">
	
		<rect id="frontbox" x="-337.5" y="-75" display="inline" fill="none" stroke="#000000" stroke-miterlimit="10" width="1650" height="1275"/>
	<g id="align" display="inline">
	</g>
</g>
<g id="crop" display="none">
	<g id="front" display="inline">
		<g>
			<line fill="none" stroke="#939598" stroke-miterlimit="10" x1="-309.4" y1="0" x2="459.4" y2="0"/>
			<line fill="none" stroke="#939598" stroke-miterlimit="10" x1="-309.4" y1="75" x2="459.4" y2="75"/>
			<line fill="none" stroke="#939598" stroke-miterlimit="10" x1="0" y1="-9.4" x2="0" y2="159.4"/>
			<line fill="none" stroke="#939598" stroke-miterlimit="10" x1="75" y1="-9.4" x2="75" y2="159.4"/>
		</g>
	</g>
</g>
<g id="guides" display="none">
</g>
</svg>
