<?xml version="1.0" encoding="utf-8"?>
<!-- Generator: Adobe Illustrator 26.0.3, SVG Export Plug-In . SVG Version: 6.00 Build 0)  -->
<svg version="1.2" baseProfile="tiny" xmlns="http://www.w3.org/2000/svg" xmlns:xlink="http://www.w3.org/1999/xlink" x="0px"
	 y="0px" viewBox="0 0 75 75" overflow="visible" xml:space="preserve">
<g id="svg">
	<g>
		<g id="cs_layer_CNA_0002_00000023283088047694392320000015410210321053132443_">
			<g id="g169366_00000060018564281457370690000011209304467157080227_">
			</g>
			<g id="BR_BR_44_-_44_196_00000078015731355045161550000005588500685759032725_" transform="translate(112.5,75)">
				<g id="g169392_00000162350872651392827510000001719664543305321882_" transform="translate(-450,-1500)">
					
						<rect id="rect169390_00000134928718691894408000000004579231507356331192_" x="337.5" y="1425" fill="#ED2224" width="75" height="75"/>
				</g>
				<g id="g169409_00000141430118032500381570000003087491992199151038_" transform="translate(229.688,-150)">
					<g>
						<path fill="#FFFFFF" d="M-276.5,94.6v17H-303v-17H-276.5z M-278,96h-23.6v14.2h23.6V96z M-298.7,106.1c-0.8-0.8-1.2-1.9-1.2-3
							c0-2.3,1.9-4.2,4.2-4.2c0,0,0,0,0,0v0h11.8c0,0,0,0,0,0c2.3,0,4.2,2,4.2,4.3c0,2.3-1.9,4.2-4.2,4.2c0,0,0,0,0,0v0h-11.8
							c0,0,0,0,0,0c0,0,0,0,0,0C-296.8,107.3-297.9,106.9-298.7,106.1z M-298.5,103.1c0,0.8,0.3,1.5,0.8,2c0.5,0.5,1.2,0.9,2,0.9
							h11.8c0,0,0,0,0,0c1.5,0,2.8-1.3,2.8-2.8c0-1.6-1.2-2.9-2.8-2.9v0h-11.8C-297.2,100.3-298.5,101.5-298.5,103.1z"/>
					</g>
					<g>
						<path fill="#FFFFFF" d="M-312.2,125.2v-1.4l3.5-8h2.2v8h1.5v1.4h-1.5v3h-1.5v-3H-312.2z M-308.1,123.8v-6.5h0l-2.7,6.5H-308.1
							z"/>
						<path fill="#FFFFFF" d="M-304.2,125.2v-1.4l3.5-8h2.2v8h1.5v1.4h-1.5v3h-1.5v-3H-304.2z M-300.1,123.8v-6.5h0l-2.7,6.5H-300.1
							z"/>
					</g>
					<g>
						<path fill="#FFFFFF" d="M-292.3,84.3h1v7.2h-1V84.3z"/>
						<path fill="#FFFFFF" d="M-289.6,84.3h1v7.2h-1V84.3z"/>
					</g>
					<g>
						<path fill="#FFFFFF" d="M-324.9,110.2c-0.9-2.1-1.9-4.8-1.9-7.1c0-1.3,0.3-2.5,0.7-3.7c0.4-1.4,0.9-2.5,1.1-3.2h1.1
							c-0.3,0.8-0.6,1.9-0.9,3.4c-0.3,1.5-0.4,2.5-0.4,3.5c0,2.3,0.6,4.1,1.5,7.2H-324.9z"/>
						<path fill="#FFFFFF" d="M-320.1,105.6c0,1.1,1,1.6,1.8,1.6c1.9,0,2.2-1.8,2.2-2.5c0-1.5-0.8-2.4-2.1-2.4
							c-0.6,0-1.2,0.2-1.5,0.6c-0.3,0.3-0.4,0.7-0.5,0.9h-1.5l0.3-6.6h6.2v1.3h-4.9l-0.2,3.6c0.3-0.3,1-1,2.3-1
							c2.2,0,3.3,1.7,3.3,3.6c0,2.2-1.5,3.8-4,3.8c-1.8,0-3.2-1-3.3-2.9H-320.1z"/>
						<path fill="#FFFFFF" d="M-311.5,96.2c0.9,2.1,1.9,4.8,1.9,7.1c0,1.3-0.3,2.5-0.7,3.7c-0.4,1.4-0.9,2.5-1.1,3.2h-1.1
							c0.3-0.8,0.6-1.9,0.9-3.4c0.3-1.5,0.4-2.5,0.4-3.5c0-2.3-0.6-4.1-1.5-7.1H-311.5z"/>
					</g>
					<g>
						<path fill="#FFFFFF" d="M-309.6,138.3v-1l2.4-5.3h1.5v5.3h1v1h-1v2h-1v-2H-309.6z M-306.9,137.3V133h0l-1.8,4.3H-306.9z"/>
						<path fill="#FFFFFF" d="M-304.3,138.3v-1l2.4-5.3h1.5v5.3h1v1h-1v2h-1v-2H-304.3z M-301.5,137.3V133h0l-1.8,4.3H-301.5z"/>
					</g>
				</g>
			</g>
			<g id="BR_BR_44_-_NONE_197_00000103984799857454542940000001762031488201715092_" transform="translate(187.5,75)">
				<g id="g169414_00000026872358054800346260000015012411410356805561_" transform="translate(-450,-1500)">
					
						<rect id="rect169412_00000114061328297741611200000001308940339891523990_" x="337.5" y="1425" fill="#ED2224" width="75" height="75"/>
				</g>
			</g>
		</g>
	</g>
</g>
<g id="text" display="none">
	
		<rect id="frontbox" x="-112.5" y="-75" display="inline" fill="none" stroke="#000000" stroke-miterlimit="10" width="1650" height="1275"/>
	<g id="align" display="inline">
	</g>
</g>
<g id="crop" display="none">
	<g id="front" display="inline">
		<g>
			<line fill="none" stroke="#939598" stroke-miterlimit="10" x1="-84.4" y1="0" x2="684.4" y2="0"/>
			<line fill="none" stroke="#939598" stroke-miterlimit="10" x1="-84.4" y1="75" x2="684.4" y2="75"/>
			<line fill="none" stroke="#939598" stroke-miterlimit="10" x1="0" y1="-9.4" x2="0" y2="159.4"/>
			<line fill="none" stroke="#939598" stroke-miterlimit="10" x1="75" y1="-9.4" x2="75" y2="159.4"/>
		</g>
	</g>
</g>
<g id="guides" display="none">
</g>
</svg>
