<?xml version="1.0" encoding="utf-8"?>
<!-- Generator: Adobe Illustrator 26.0.3, SVG Export Plug-In . SVG Version: 6.00 Build 0)  -->
<svg version="1.2" baseProfile="tiny" xmlns="http://www.w3.org/2000/svg" xmlns:xlink="http://www.w3.org/1999/xlink" x="0px"
	 y="0px" viewBox="0 0 75 75" overflow="visible" xml:space="preserve">
<g id="svg">
	<g>
		<g id="cs_layer_CNA_0002_00000023283088047694392320000015410210321053132443_">
			<g id="g169366_00000060018564281457370690000011209304467157080227_">
			</g>
			<g id="BR_BR_4GRNHO_-_150-50_202_00000037650608824710024010000004535948170219961277_" transform="translate(562.5,75)">
				<g id="g169526_00000183225413627591472560000015350844406890653618_" transform="translate(-450,-1500)">
					
						<rect id="rect169524_00000051353232616283367590000001733680610451981990_" x="-112.5" y="1425" fill="#ED2224" width="75" height="75"/>
				</g>
				<g id="g169543_00000142168015299811528740000015586572854925604780_" transform="translate(229.688,-150)">
					<g>
						<path fill="#FFFFFF" d="M-726.5,94.6v17H-753v-17H-726.5z M-751.6,96.8v12.5l10.4-6.3L-751.6,96.8z M-729.3,96h-20.9l10.4,6.3
							L-729.3,96z M-750.2,110.2h20.9l-10.4-6.3L-750.2,110.2z M-738.4,103.1l10.4,6.3V96.8L-738.4,103.1z"/>
					</g>
					<g>
						<path fill="#FFFFFF" d="M-781.2,125.2v-1.4l3.5-8h2.2v8h1.5v1.4h-1.5v3h-1.5v-3H-781.2z M-777.1,123.8v-6.5h0l-2.7,6.5H-777.1
							z"/>
						<path fill="#FFFFFF" d="M-766,118.7c0-1.5-0.6-2.4-2.3-2.4c-0.5,0-2.4,0.1-2.4,2.8v4.4c0,2.8,0.8,3.6,2.4,3.6
							c1.2,0,2-0.3,2.3-0.6v-3.9h-2.4v-1.4h4.1v6.3c-1.1,0.6-2.3,1-4,1c-2.8,0-4.1-1.4-4.1-5v-4.3c0-2.6,1.3-4.2,4.1-4.2
							c2.8,0,4.1,1,4,3.7H-766z"/>
						<path fill="#FFFFFF" d="M-759.9,120.5L-759.9,120.5c0.6-1.4,1.4-1.5,2.8-1.5v1.5c-0.1,0-0.3,0-0.4-0.1c-0.1,0-0.3,0-0.4,0
							c-1.6,0-2.1,1.2-2.1,2.5v5.4h-1.5v-9.1h1.5V120.5z"/>
						<path fill="#FFFFFF" d="M-750.5,128.3v-6.3c0-1-0.3-1.8-1.6-1.8c-1.6,0-1.9,1.4-1.9,2.7v5.4h-1.5V121c0-0.6,0-1.3-0.1-1.9h1.6
							v1.2h0.1c0.6-1,1.3-1.4,2.4-1.4c1.9,0,2.4,1.2,2.4,3v6.3H-750.5z"/>
						<path fill="#FFFFFF" d="M-746.1,128.3v-13h1.7v5.6h4.6v-5.6h1.7v13h-1.7v-5.9h-4.6v5.9H-746.1z"/>
						<path fill="#FFFFFF" d="M-735.7,123.8c0-2.7,0.3-4.9,3.5-4.9c3.2,0,3.5,2.2,3.5,4.9c0,4-1.5,4.6-3.5,4.6
							C-734.1,128.4-735.7,127.9-735.7,123.8z M-730.3,123.2c0-2.5-0.8-3-1.9-3c-1.1,0-1.9,0.5-1.9,3c0,3,0.4,4,1.9,4
							C-730.7,127.2-730.3,126.2-730.3,123.2z"/>
					</g>
					<g>
						<path fill="#FFFFFF" d="M-742.3,84.3h1v7.2h-1V84.3z"/>
						<path fill="#FFFFFF" d="M-739.6,84.3h1v7.2h-1V84.3z"/>
					</g>
					<g>
						<path fill="#FFFFFF" d="M-763,98.9c-0.7,0.6-1.8,1.2-2.6,1.6v-1.6c1-0.5,2.1-1.2,2.7-1.7h1.4v11.1h-1.5V98.9z"/>
					</g>
					<g>
						<path fill="#FFFFFF" d="M-766.1,140.3h-1.1v-7.1l-1.2,0.8V133c0.3-0.1,1.1-0.7,1.4-1h0.9V140.3z"/>
						<path fill="#FFFFFF" d="M-759.7,132v1h-2.8v2.4l0,0c0.2-0.4,0.8-0.6,1.3-0.6c1.2,0,1.7,0.9,1.7,2.8c0,1.3-0.2,2.9-2.3,2.9
							c-1.7,0-2.1-0.9-2.1-2.1h1.1c0,0.6,0.3,1.3,1,1.3c1,0,1.1-1,1.1-1.8c0-1.2,0-2.2-1.1-2.2c-0.6,0-0.9,0.4-1,1h-1V132H-759.7z"
							/>
						<path fill="#FFFFFF" d="M-754,136.2c0,2.2,0,4.3-2.2,4.3s-2.2-2.1-2.2-4.3c0-2.2,0-4.3,2.2-4.3C-754,131.9-754,134-754,136.2z
							 M-757.4,136.4c0,1.4-0.1,3.2,1.1,3.2c1.2,0,1.1-1.8,1.1-3.2c0-2.2,0-3.6-1.1-3.6C-757.4,132.8-757.4,134.2-757.4,136.4z"/>
						<path fill="#FFFFFF" d="M-753.1,141.5h-0.8l2.8-9.8h0.8L-753.1,141.5z"/>
						<path fill="#FFFFFF" d="M-745.7,132v1h-2.8v2.4l0,0c0.2-0.4,0.8-0.6,1.3-0.6c1.2,0,1.7,0.9,1.7,2.8c0,1.3-0.2,2.9-2.3,2.9
							c-1.7,0-2.1-0.9-2.1-2.1h1.1c0,0.6,0.3,1.3,1,1.3c1,0,1.1-1,1.1-1.8c0-1.2,0-2.2-1.1-2.2c-0.6,0-0.9,0.4-1,1h-1V132H-745.7z"
							/>
						<path fill="#FFFFFF" d="M-740.1,136.2c0,2.2,0,4.3-2.2,4.3s-2.2-2.1-2.2-4.3c0-2.2,0-4.3,2.2-4.3
							C-740,131.9-740.1,134-740.1,136.2z M-743.4,136.4c0,1.4-0.1,3.2,1.1,3.2c1.2,0,1.1-1.8,1.1-3.2c0-2.2,0-3.6-1.1-3.6
							C-743.4,132.8-743.4,134.2-743.4,136.4z"/>
					</g>
				</g>
			</g>
			<g id="BR_BR_4RSSX_-_133-44_203_00000048501565432945650770000000118307526915983275_" transform="translate(637.5,75)">
				<g id="g169548_00000028316679651549333340000016708649852841442450_" transform="translate(-450,-1500)">
					
						<rect id="rect169546_00000173136317252020708590000017353908133839846287_" x="-112.5" y="1425" fill="#ED2224" width="75" height="75"/>
				</g>
			</g>
		</g>
	</g>
</g>
<g id="text" display="none">
	
		<rect id="frontbox" x="-562.5" y="-75" display="inline" fill="none" stroke="#000000" stroke-miterlimit="10" width="1650" height="1275"/>
	<g id="align" display="inline">
	</g>
</g>
<g id="crop" display="none">
	<g id="front" display="inline">
		<g>
			<line fill="none" stroke="#939598" stroke-miterlimit="10" x1="-534.4" y1="0" x2="234.4" y2="0"/>
			<line fill="none" stroke="#939598" stroke-miterlimit="10" x1="-534.4" y1="75" x2="234.4" y2="75"/>
			<line fill="none" stroke="#939598" stroke-miterlimit="10" x1="0" y1="-9.4" x2="0" y2="159.4"/>
			<line fill="none" stroke="#939598" stroke-miterlimit="10" x1="75" y1="-9.4" x2="75" y2="159.4"/>
		</g>
	</g>
</g>
<g id="guides" display="none">
</g>
</svg>
