<?xml version="1.0" encoding="utf-8"?>
<!-- Generator: Adobe Illustrator 26.0.3, SVG Export Plug-In . SVG Version: 6.00 Build 0)  -->
<svg version="1.2" baseProfile="tiny" xmlns="http://www.w3.org/2000/svg" xmlns:xlink="http://www.w3.org/1999/xlink" x="0px"
	 y="0px" viewBox="0 0 75 75" overflow="visible" xml:space="preserve">
<g id="svg">
	<g>
		<g id="cs_layer_CNA_0002_00000023283088047694392320000015410210321053132443_">
			<g id="g169366_00000060018564281457370690000011209304467157080227_">
			</g>
			<g id="BR_BR_44_-_NONE_197_00000103984799857454542940000001762031488201715092_" transform="translate(187.5,75)">
				<g id="g169414_00000026872358054800346260000015012411410356805561_" transform="translate(-450,-1500)">
					
						<rect id="rect169412_00000114061328297741611200000001308940339891523990_" x="262.5" y="1425" fill="#ED2224" width="75" height="75"/>
				</g>
				<g id="g169433_00000087382424023111542120000004170061886467054506_" transform="translate(229.688,-150)">
					
						<rect id="rect169416_00000066473674157423987680000005296403867758494906_" x="-417.2" y="93.8" fill="#7F1416" width="75" height="18.8"/>
					<g>
						<path fill="#FFFFFF" d="M-351.5,94.6v17H-378v-17H-351.5z M-376.6,96.8v12.5l10.4-6.3L-376.6,96.8z M-354.3,96h-20.9l10.4,6.3
							L-354.3,96z M-375.2,110.2h20.9l-10.4-6.3L-375.2,110.2z M-363.4,103.1l10.4,6.3V96.8L-363.4,103.1z"/>
					</g>
					<g>
						<path fill="#FFFFFF" d="M-387.2,125.2v-1.4l3.5-8h2.2v8h1.5v1.4h-1.5v3h-1.5v-3H-387.2z M-383.1,123.8v-6.5h0l-2.7,6.5H-383.1
							z"/>
						<path fill="#FFFFFF" d="M-379.2,125.2v-1.4l3.5-8h2.2v8h1.5v1.4h-1.5v3h-1.5v-3H-379.2z M-375.1,123.8v-6.5h0l-2.7,6.5H-375.1
							z"/>
					</g>
					<g>
						<path fill="#FFFFFF" d="M-370.9,84.3l1.9,2.8l1.9-2.8h1.2l-2.6,3.5l2.7,3.8h-1.3l-2.1-3.1l-2.2,3.1h-1.2l2.8-3.8l-2.5-3.4
							H-370.9z"/>
						<path fill="#FFFFFF" d="M-363.7,84.3l1.9,2.8l1.9-2.8h1.2l-2.6,3.5l2.7,3.8h-1.3l-2.1-3.1l-2.2,3.1h-1.2l2.8-3.8l-2.5-3.4
							H-363.7z"/>
					</g>
					<g>
						<path fill="#FFFFFF" d="M-388,98.9c-0.7,0.6-1.8,1.2-2.6,1.6v-1.6c1-0.5,2.1-1.2,2.7-1.7h1.4v11.1h-1.5V98.9z"/>
					</g>
					<g>
						<path fill="#FFFFFF" d="M-382.9,136.6h2.6v0.9h-2.6V136.6z"/>
						<path fill="#FFFFFF" d="M-378.9,136.6h2.6v0.9h-2.6V136.6z"/>
					</g>
				</g>
			</g>
			<g id="BR_BR_44_RTR_-_1_ARMY_198_00000156572918310541737250000017887709455193201083_" transform="translate(262.5,75)">
				<g id="g169438_00000177486383038013014320000011314065547724315010_" transform="translate(-450,-1500)">
					
						<rect id="rect169436_00000097502494327532271760000005450259401576342154_" x="262.5" y="1425" fill="#ED2224" width="75" height="75"/>
				</g>
			</g>
		</g>
	</g>
</g>
<g id="text" display="none">
	
		<rect id="frontbox" x="-187.5" y="-75" display="inline" fill="none" stroke="#000000" stroke-miterlimit="10" width="1650" height="1275"/>
	<g id="align" display="inline">
	</g>
</g>
<g id="crop" display="none">
	<g id="front" display="inline">
		<g>
			<line fill="none" stroke="#939598" stroke-miterlimit="10" x1="-159.4" y1="0" x2="609.4" y2="0"/>
			<line fill="none" stroke="#939598" stroke-miterlimit="10" x1="-159.4" y1="75" x2="609.4" y2="75"/>
			<line fill="none" stroke="#939598" stroke-miterlimit="10" x1="0" y1="-9.4" x2="0" y2="159.4"/>
			<line fill="none" stroke="#939598" stroke-miterlimit="10" x1="75" y1="-9.4" x2="75" y2="159.4"/>
		</g>
	</g>
</g>
<g id="guides" display="none">
</g>
</svg>
