<?xml version="1.0" encoding="utf-8"?>
<!-- Generator: Adobe Illustrator 26.0.3, SVG Export Plug-In . SVG Version: 6.00 Build 0)  -->
<svg version="1.2" baseProfile="tiny" xmlns="http://www.w3.org/2000/svg" xmlns:xlink="http://www.w3.org/1999/xlink" x="0px"
	 y="0px" viewBox="0 0 75 75" overflow="visible" xml:space="preserve">
<g id="svg">
	<g>
		<g id="cs_layer_CNA_0002_00000023283088047694392320000015410210321053132443_">
			<g id="g169366_00000060018564281457370690000011209304467157080227_">
			</g>
			<g id="BR_BR_4RSSX_-_133-44_203_00000048501565432945650770000000118307526915983275_" transform="translate(637.5,75)">
				<g id="g169548_00000028316679651549333340000016708649852841442450_" transform="translate(-450,-1500)">
					
						<rect id="rect169546_00000173136317252020708590000017353908133839846287_" x="-187.5" y="1425" fill="#ED2224" width="75" height="75"/>
				</g>
				<g id="g169565_00000067213032598357639510000006723240979474675121_" transform="translate(229.688,-150)">
					<g>
						<path fill="#FFFFFF" d="M-801.5,94.6v17H-828v-17H-801.5z M-826.6,96.8v12.5l10.4-6.3L-826.6,96.8z M-804.3,96h-20.9l10.4,6.3
							L-804.3,96z M-825.2,110.2h20.9l-10.4-6.3L-825.2,110.2z M-813.4,103.1l10.4,6.3V96.8L-813.4,103.1z"/>
					</g>
					<g>
						<path fill="#FFFFFF" d="M-851.2,125.2v-1.4l3.5-8h2.2v8h1.5v1.4h-1.5v3h-1.5v-3H-851.2z M-847.1,123.8v-6.5h0l-2.7,6.5H-847.1
							z"/>
						<path fill="#FFFFFF" d="M-840.6,122.3v6h-1.7v-13h4.5c2.3,0,3.1,1.6,3.1,3.2c0,1.5-0.8,2.7-2.4,3v0c1.5,0.2,2,0.7,2.1,3.3
							c0,0.6,0.2,2.6,0.5,3.4h-1.7c-0.5-0.9-0.4-2.6-0.5-4.3c-0.1-1.6-1.4-1.7-2-1.7H-840.6z M-840.6,120.8h2.5c1.2,0,1.8-1,1.8-2.2
							c0-0.9-0.5-2-1.7-2h-2.5V120.8z"/>
						<path fill="#FFFFFF" d="M-831,124.4v0.4c0,1.8,1.1,2.3,2.2,2.3c1.3,0,2.3-0.6,2.3-2.1c0-2.9-5.8-2.6-5.8-6.5
							c0-2.3,1.6-3.5,3.8-3.5c2.4,0,3.7,1.2,3.6,3.8h-1.7c0-1.4-0.4-2.4-2-2.4c-1,0-2,0.5-2,1.9c0,2.9,5.8,2.4,5.8,6.6
							c0,2.7-1.9,3.6-4,3.6c-3.8,0-3.8-2.9-3.8-4.1H-831z"/>
						<path fill="#FFFFFF" d="M-819.7,128.4c-2,0-3.2-0.9-3.1-3h1.7c0,0.5,0,1.7,1.5,1.7c0.9,0,1.6-0.5,1.6-1.4
							c0-1.6-4.5-1.7-4.5-4.4c0-1,0.6-2.5,3.1-2.5c1.6,0,3,0.8,2.9,2.6h-1.6c0-1-0.5-1.5-1.4-1.5c-0.8,0-1.4,0.4-1.4,1.2
							c0,1.6,4.5,1.6,4.5,4.3C-816.5,127.7-817.9,128.4-819.7,128.4z"/>
						<path fill="#FFFFFF" d="M-807.8,128.3h-1.9l-2.1-3.7l-2,3.7h-1.7l2.8-4.8l-2.6-4.3h1.9l1.7,3.3l1.8-3.3h1.8l-2.7,4.3
							L-807.8,128.3z"/>
					</g>
					<g>
						<path fill="#FFFFFF" d="M-817.3,84.3h1v7.2h-1V84.3z"/>
						<path fill="#FFFFFF" d="M-814.6,84.3h1v7.2h-1V84.3z"/>
					</g>
					<g>
						<path fill="#FFFFFF" d="M-838,98.9c-0.7,0.6-1.8,1.2-2.6,1.6v-1.6c1-0.5,2.1-1.2,2.7-1.7h1.4v11.1h-1.5V98.9z"/>
					</g>
					<g>
						<path fill="#FFFFFF" d="M-841.1,140.3h-1.1v-7.1l-1.2,0.8V133c0.3-0.1,1.1-0.7,1.4-1h0.9V140.3z"/>
						<path fill="#FFFFFF" d="M-837.3,135.5c1,0.1,1.7-0.3,1.7-1.4c0-0.8-0.3-1.3-1.2-1.3c-0.9,0-1.1,0.7-1,1.4h-1.1
							c-0.1-1.4,0.6-2.3,2.1-2.3c1.4,0,2.3,0.7,2.3,2.2c0,1.6-1.2,1.8-1.6,1.9v0c1.3,0.2,1.7,0.9,1.7,2.1c0,1.6-0.9,2.4-2.5,2.4
							c-2.3,0-2.1-2-2.1-2.5h1.1c0,0.8,0.1,1.5,1.1,1.5c1,0,1.3-0.6,1.3-1.5c0-1.3-0.5-1.6-1.8-1.6V135.5z"/>
						<path fill="#FFFFFF" d="M-831.9,135.5c1,0.1,1.7-0.3,1.7-1.4c0-0.8-0.3-1.3-1.2-1.3c-0.9,0-1.1,0.7-1,1.4h-1.1
							c-0.1-1.4,0.6-2.3,2.1-2.3c1.4,0,2.3,0.7,2.3,2.2c0,1.6-1.2,1.8-1.6,1.9v0c1.3,0.2,1.7,0.9,1.7,2.1c0,1.6-0.9,2.4-2.5,2.4
							c-2.3,0-2.1-2-2.1-2.5h1.1c0,0.8,0.1,1.5,1.1,1.5c1,0,1.3-0.6,1.3-1.5c0-1.3-0.5-1.6-1.8-1.6V135.5z"/>
						<path fill="#FFFFFF" d="M-828.1,141.5h-0.8l2.8-9.8h0.8L-828.1,141.5z"/>
						<path fill="#FFFFFF" d="M-825,138.3v-1l2.4-5.3h1.5v5.3h1v1h-1v2h-1v-2H-825z M-822.2,137.3V133h0l-1.8,4.3H-822.2z"/>
						<path fill="#FFFFFF" d="M-819.7,138.3v-1l2.4-5.3h1.5v5.3h1v1h-1v2h-1v-2H-819.7z M-816.9,137.3V133h0l-1.8,4.3H-816.9z"/>
					</g>
				</g>
			</g>
			<g id="BR_BR_4RWK_-_132-44_204_00000169529683462191096520000012103469747146901397_" transform="translate(712.5,75)">
				<g id="g169570_00000091693529956477028220000003539763760629136289_" transform="translate(-450,-1500)">
					
						<rect id="rect169568_00000126287196841093524840000001771659234083595684_" x="-187.5" y="1425" fill="#ED2224" width="75" height="75"/>
				</g>
			</g>
		</g>
	</g>
</g>
<g id="text" display="none">
	
		<rect id="frontbox" x="-637.5" y="-75" display="inline" fill="none" stroke="#000000" stroke-miterlimit="10" width="1650" height="1275"/>
	<g id="align" display="inline">
	</g>
</g>
<g id="crop" display="none">
	<g id="front" display="inline">
		<g>
			<line fill="none" stroke="#939598" stroke-miterlimit="10" x1="-609.4" y1="0" x2="159.4" y2="0"/>
			<line fill="none" stroke="#939598" stroke-miterlimit="10" x1="-609.4" y1="75" x2="159.4" y2="75"/>
			<line fill="none" stroke="#939598" stroke-miterlimit="10" x1="0" y1="-9.4" x2="0" y2="159.4"/>
			<line fill="none" stroke="#939598" stroke-miterlimit="10" x1="75" y1="-9.4" x2="75" y2="159.4"/>
		</g>
	</g>
</g>
<g id="guides" display="none">
</g>
</svg>
