<?xml version="1.0" encoding="utf-8"?>
<!-- Generator: Adobe Illustrator 26.0.3, SVG Export Plug-In . SVG Version: 6.00 Build 0)  -->
<svg version="1.2" baseProfile="tiny" xmlns="http://www.w3.org/2000/svg" xmlns:xlink="http://www.w3.org/1999/xlink" x="0px"
	 y="0px" viewBox="0 0 75 75" overflow="visible" xml:space="preserve">
<g id="svg">
	<g>
		<g id="cs_layer_CNA_0002_00000023283088047694392320000015410210321053132443_">
			<g id="g169366_00000060018564281457370690000011209304467157080227_">
			</g>
			<g id="BR_BR_46_RTR_-_23-8_200_00000045598732817106165140000000486414957965324734_" transform="translate(412.5,75)">
				<g id="g169482_00000080178120662776071070000018404693863548766632_" transform="translate(-450,-1500)">
					
						<rect id="rect169480_00000052062293928414580830000002419250635550012573_" x="37.5" y="1425" fill="#ED2224" width="75" height="75"/>
				</g>
				<g id="g169499_00000146480593505149333040000002583826113368091264_" transform="translate(229.688,-150)">
					<g>
						<path fill="#FFFFFF" d="M-576.5,94.6v17H-603v-17H-576.5z M-578,96h-23.6v14.2h23.6V96z M-598.7,106.1c-0.8-0.8-1.2-1.9-1.2-3
							c0-2.3,1.9-4.2,4.2-4.2c0,0,0,0,0,0v0h11.8c0,0,0,0,0,0c2.3,0,4.2,2,4.2,4.3c0,2.3-1.9,4.2-4.2,4.2c0,0,0,0,0,0v0h-11.8
							c0,0,0,0,0,0c0,0,0,0,0,0C-596.8,107.3-597.9,106.9-598.7,106.1z M-598.5,103.1c0,0.8,0.3,1.5,0.8,2c0.5,0.5,1.2,0.9,2,0.9
							h11.8c0,0,0,0,0,0c1.5,0,2.8-1.3,2.8-2.8c0-1.6-1.2-2.9-2.8-2.9v0h-11.8C-597.2,100.3-598.5,101.5-598.5,103.1z"/>
					</g>
					<g>
						<path fill="#FFFFFF" d="M-628.7,125.2v-1.4l3.5-8h2.2v8h1.5v1.4h-1.5v3h-1.5v-3H-628.7z M-624.6,123.8v-6.5h0l-2.7,6.5H-624.6
							z"/>
						<path fill="#FFFFFF" d="M-620.5,122.1c0-3.4-0.1-6.5,3.4-6.5c1.9,0,3.2,1.2,3.1,3h-1.7c0-0.9-0.5-1.8-1.5-1.8
							c-1.4,0-1.7,1.2-1.7,4.5h0c0.4-0.7,1.2-1.2,2-1.2c1.6,0,3,0.9,3,4.2c0,2.2-0.9,4.2-3.3,4.2
							C-620.6,128.5-620.5,125.3-620.5,122.1z M-617.1,127.1c1.4,0,1.6-1.5,1.6-3.1c0-1.1-0.3-2.5-1.7-2.5c-1.5,0-1.7,1.6-1.7,2.7
							C-618.9,125.4-618.7,127.1-617.1,127.1z"/>
						<path fill="#FFFFFF" d="M-606.1,122.3v6h-1.7v-13h4.5c2.3,0,3.1,1.6,3.1,3.2c0,1.5-0.8,2.7-2.4,3v0c1.5,0.2,2,0.7,2.1,3.3
							c0,0.6,0.2,2.6,0.5,3.4h-1.7c-0.5-0.9-0.4-2.6-0.5-4.3c-0.1-1.6-1.4-1.7-2-1.7H-606.1z M-606.1,120.8h2.5c1.2,0,1.8-1,1.8-2.2
							c0-0.9-0.5-2-1.7-2h-2.5V120.8z"/>
						<path fill="#FFFFFF" d="M-590.5,115.3v1.4h-3.4v11.6h-1.7v-11.6h-3.4v-1.4H-590.5z"/>
						<path fill="#FFFFFF" d="M-587.1,122.3v6h-1.7v-13h4.5c2.3,0,3.1,1.6,3.1,3.2c0,1.5-0.8,2.7-2.4,3v0c1.5,0.2,2,0.7,2.1,3.3
							c0,0.6,0.2,2.6,0.5,3.4h-1.7c-0.5-0.9-0.4-2.6-0.5-4.3c-0.1-1.6-1.4-1.7-2-1.7H-587.1z M-587.1,120.8h2.5c1.2,0,1.8-1,1.8-2.2
							c0-0.9-0.5-2-1.7-2h-2.5V120.8z"/>
					</g>
					<g>
						<path fill="#FFFFFF" d="M-592.3,84.3h1v7.2h-1V84.3z"/>
						<path fill="#FFFFFF" d="M-589.6,84.3h1v7.2h-1V84.3z"/>
					</g>
					<g>
						<path fill="#FFFFFF" d="M-613,98.9c-0.7,0.6-1.8,1.2-2.6,1.6v-1.6c1-0.5,2.1-1.2,2.7-1.7h1.4v11.1h-1.5V98.9z"/>
					</g>
					<g>
						<path fill="#FFFFFF" d="M-613.8,140.3v-1c2.4-3.4,3.2-4,3.2-5.5c0-0.7-0.3-1.1-1-1.1c-0.8,0-1,0.7-1,1.4h-1.1
							c-0.1-1.4,0.6-2.3,2-2.3c1.5,0,2.2,0.7,2.2,2.2c0,1.9-0.9,2.5-3.1,5.3h3.3v1H-613.8z"/>
						<path fill="#FFFFFF" d="M-606.9,135.5c1,0.1,1.7-0.3,1.7-1.4c0-0.8-0.3-1.3-1.2-1.3c-0.9,0-1.1,0.7-1,1.4h-1.1
							c-0.1-1.4,0.6-2.3,2.1-2.3c1.4,0,2.3,0.7,2.3,2.2c0,1.6-1.2,1.8-1.6,1.9v0c1.3,0.2,1.7,0.9,1.7,2.1c0,1.6-0.9,2.4-2.5,2.4
							c-2.3,0-2.1-2-2.1-2.5h1.1c0,0.8,0.1,1.5,1.1,1.5c1,0,1.3-0.6,1.3-1.5c0-1.3-0.5-1.6-1.8-1.6V135.5z"/>
						<path fill="#FFFFFF" d="M-603.1,141.5h-0.8l2.8-9.8h0.8L-603.1,141.5z"/>
						<path fill="#FFFFFF" d="M-596.9,135.9c1.2,0.1,1.5,1.1,1.5,2.2c0,1.5-0.8,2.4-2.2,2.4s-2.2-0.9-2.2-2.4c0-1.1,0.3-2,1.5-2.2v0
							c-1-0.2-1.5-1-1.5-2c0-1.3,0.8-2.1,2.1-2.1c1.3,0,2.1,0.8,2.1,2.1C-595.5,134.9-596,135.7-596.9,135.9L-596.9,135.9z
							 M-596.5,138.1c0-0.7-0.1-1.7-1.1-1.7s-1.1,1-1.1,1.7c0,0.7,0.3,1.5,1.1,1.5C-596.8,139.6-596.5,138.8-596.5,138.1z
							 M-596.6,133.9c0-0.6-0.3-1.2-1-1.2c-0.7,0-1,0.6-1,1.2c0,0.6,0.2,1.5,1,1.5C-596.8,135.4-596.6,134.5-596.6,133.9z"/>
					</g>
				</g>
			</g>
			<g id="BR_BR_47_RTR_-_24-8_201_00000159434839574563023560000000338935075538266796_" transform="translate(487.5,75)">
				<g id="g169504_00000136389829997904086210000014229729274834583737_" transform="translate(-450,-1500)">
					
						<rect id="rect169502_00000097471497985701558460000012145231684547626128_" x="37.5" y="1425" fill="#ED2224" width="75" height="75"/>
				</g>
			</g>
		</g>
	</g>
</g>
<g id="text" display="none">
	
		<rect id="frontbox" x="-412.5" y="-75" display="inline" fill="none" stroke="#000000" stroke-miterlimit="10" width="1650" height="1275"/>
	<g id="align" display="inline">
	</g>
</g>
<g id="crop" display="none">
	<g id="front" display="inline">
		<g>
			<line fill="none" stroke="#939598" stroke-miterlimit="10" x1="-384.4" y1="0" x2="384.4" y2="0"/>
			<line fill="none" stroke="#939598" stroke-miterlimit="10" x1="-384.4" y1="75" x2="384.4" y2="75"/>
			<line fill="none" stroke="#939598" stroke-miterlimit="10" x1="0" y1="-9.4" x2="0" y2="159.4"/>
			<line fill="none" stroke="#939598" stroke-miterlimit="10" x1="75" y1="-9.4" x2="75" y2="159.4"/>
		</g>
	</g>
</g>
<g id="guides" display="none">
</g>
</svg>
