<?xml version="1.0" encoding="utf-8"?>
<!-- Generator: Adobe Illustrator 26.0.3, SVG Export Plug-In . SVG Version: 6.00 Build 0)  -->
<svg version="1.2" baseProfile="tiny" xmlns="http://www.w3.org/2000/svg" xmlns:xlink="http://www.w3.org/1999/xlink" x="0px"
	 y="0px" viewBox="0 0 75 75" overflow="visible" xml:space="preserve">
<g id="svg">
	<g>
		<g id="cs_layer_CNA_0002_00000023283088047694392320000015410210321053132443_">
			<g id="g169366_00000060018564281457370690000011209304467157080227_">
			</g>
			<g id="BR_BR_5_SEA_-_152-51_209_00000060013228234220444460000009554655101172511623_" transform="translate(337.5,150)">
				<g id="g169680_00000004545391035115140440000010172334062320306341_" transform="translate(-450,-1500)">
					
						<rect id="rect169678_00000008127040364816454940000000115238063157494702_" x="112.5" y="1350" fill="#ED2224" width="75" height="75"/>
				</g>
				<g id="g169697_00000008136197119339172380000003805733430081983911_" transform="translate(229.688,-150)">
					<g>
						<path fill="#FFFFFF" d="M-501.5,19.6v17H-528v-17H-501.5z M-526.6,21.8v12.5l10.4-6.3L-526.6,21.8z M-504.3,21h-20.9l10.4,6.3
							L-504.3,21z M-525.2,35.2h20.9l-10.4-6.3L-525.2,35.2z M-513.4,28.1l10.4,6.3V21.8L-513.4,28.1z"/>
					</g>
					<g>
						<path fill="#FFFFFF" d="M-542.8,40.8v1.4h-4.2v3.6l0,0c0.3-0.5,1.1-0.9,2-0.9c1.8,0,2.6,1.3,2.6,4.2c0,2-0.3,4.4-3.4,4.4
							c-2.6,0-3.1-1.4-3.1-3.1h1.7c0,1,0.4,1.9,1.5,1.9c1.6,0,1.7-1.5,1.7-2.8c0-1.8-0.1-3.2-1.6-3.2c-0.9,0-1.4,0.6-1.5,1.5h-1.5
							v-7H-542.8z"/>
						<path fill="#FFFFFF" d="M-535,49.4v0.4c0,1.8,1.1,2.3,2.2,2.3c1.3,0,2.3-0.6,2.3-2.1c0-2.9-5.8-2.6-5.8-6.5
							c0-2.3,1.6-3.5,3.8-3.5c2.4,0,3.7,1.2,3.6,3.8h-1.7c0-1.4-0.4-2.4-2-2.4c-1,0-2,0.5-2,1.9c0,2.9,5.8,2.4,5.8,6.6
							c0,2.7-1.9,3.6-4,3.6c-3.8,0-3.8-2.9-3.8-4.1H-535z"/>
						<path fill="#FFFFFF" d="M-525,49.2c0,2.5,0.7,3,1.8,3c1,0,1.5-0.8,1.6-1.7h1.6c0,2-1.3,2.9-3.2,2.9c-1.9,0-3.5-0.6-3.5-4.6
							c0-2.7,0.3-4.9,3.5-4.9c2.6,0,3.2,1.4,3.2,4.4v0.8H-525z M-521.4,48.1c0-2.6-0.7-3-1.8-3c-0.9,0-1.7,0.5-1.7,3H-521.4z"/>
						<path fill="#FFFFFF" d="M-512.7,51.9L-512.7,51.9c-0.5,1-1.2,1.5-2.3,1.5c-1.9,0-2.5-1.2-2.5-3c0-2.8,2.7-2.9,4.8-2.8
							c0-1.2,0.1-2.5-1.5-2.5c-1,0-1.5,0.7-1.4,1.6h-1.6c0.1-2,1.2-2.7,3.1-2.7c2.3,0,3,1.2,3,2.7v4.4c0,0.7,0.1,1.5,0.2,2.2h-1.6
							V51.9z M-516,50.5c0,0.9,0.4,1.7,1.4,1.7c0.9,0,2-0.6,1.9-3.5C-514.2,48.8-516,48.6-516,50.5z"/>
					</g>
					<g>
						<path fill="#FFFFFF" d="M-517.3,9.3h1v7.2h-1V9.3z"/>
						<path fill="#FFFFFF" d="M-514.6,9.3h1v7.2h-1V9.3z"/>
					</g>
					<g>
						<path fill="#FFFFFF" d="M-538,23.9c-0.7,0.6-1.8,1.2-2.6,1.6v-1.6c1-0.5,2.1-1.2,2.7-1.7h1.4v11.1h-1.5V23.9z"/>
					</g>
					<g>
						<path fill="#FFFFFF" d="M-541.1,65.3h-1.1v-7.1l-1.2,0.8V58c0.3-0.1,1.1-0.7,1.4-1h0.9V65.3z"/>
						<path fill="#FFFFFF" d="M-534.7,57v1h-2.8v2.4l0,0c0.2-0.4,0.8-0.6,1.3-0.6c1.2,0,1.7,0.9,1.7,2.8c0,1.3-0.2,2.9-2.3,2.9
							c-1.7,0-2.1-0.9-2.1-2.1h1.1c0,0.6,0.3,1.3,1,1.3c1,0,1.1-1,1.1-1.8c0-1.2,0-2.2-1.1-2.2c-0.6,0-0.9,0.4-1,1h-1V57H-534.7z"/>
						<path fill="#FFFFFF" d="M-533.4,65.3v-1c2.4-3.4,3.2-4,3.2-5.5c0-0.7-0.3-1.1-1-1.1c-0.8,0-1,0.7-1,1.4h-1.1
							c-0.1-1.4,0.6-2.3,2-2.3c1.5,0,2.2,0.7,2.2,2.2c0,1.9-0.9,2.5-3.1,5.3h3.3v1H-533.4z"/>
						<path fill="#FFFFFF" d="M-528.1,66.5h-0.8l2.8-9.8h0.8L-528.1,66.5z"/>
						<path fill="#FFFFFF" d="M-520.7,57v1h-2.8v2.4l0,0c0.2-0.4,0.8-0.6,1.3-0.6c1.2,0,1.7,0.9,1.7,2.8c0,1.3-0.2,2.9-2.3,2.9
							c-1.7,0-2.1-0.9-2.1-2.1h1.1c0,0.6,0.3,1.3,1,1.3c1,0,1.1-1,1.1-1.8c0-1.2,0-2.2-1.1-2.2c-0.6,0-0.9,0.4-1,1h-1V57H-520.7z"/>
						<path fill="#FFFFFF" d="M-516.5,65.3h-1.1v-7.1l-1.2,0.8V58c0.3-0.1,1.1-0.7,1.4-1h0.9V65.3z"/>
					</g>
				</g>
			</g>
			<g id="BR_BR_5-7GRND_-_153-51_210_00000119820272704263544930000004046583255593068192_" transform="translate(412.5,150)">
				<g id="g169702_00000083069286770222993200000015769213879819707553_" transform="translate(-450,-1500)">
					
						<rect id="rect169700_00000126300213509493891590000004724122458871885488_" x="112.5" y="1350" fill="#ED2224" width="75" height="75"/>
				</g>
			</g>
		</g>
	</g>
</g>
<g id="text" display="none">
	
		<rect id="frontbox" x="-337.5" y="-150" display="inline" fill="none" stroke="#000000" stroke-miterlimit="10" width="1650" height="1275"/>
	<g id="align" display="inline">
	</g>
</g>
<g id="crop" display="none">
	<g id="front" display="inline">
		<g>
			<line fill="none" stroke="#939598" stroke-miterlimit="10" x1="-309.4" y1="0" x2="459.4" y2="0"/>
			<line fill="none" stroke="#939598" stroke-miterlimit="10" x1="-309.4" y1="75" x2="459.4" y2="75"/>
			<line fill="none" stroke="#939598" stroke-miterlimit="10" x1="0" y1="-84.4" x2="0" y2="84.4"/>
			<line fill="none" stroke="#939598" stroke-miterlimit="10" x1="75" y1="-84.4" x2="75" y2="84.4"/>
		</g>
	</g>
</g>
<g id="guides" display="none">
</g>
</svg>
