<?xml version="1.0" encoding="utf-8"?>
<!-- Generator: Adobe Illustrator 26.0.3, SVG Export Plug-In . SVG Version: 6.00 Build 0)  -->
<svg version="1.2" baseProfile="tiny" xmlns="http://www.w3.org/2000/svg" xmlns:xlink="http://www.w3.org/1999/xlink" x="0px"
	 y="0px" viewBox="0 0 75 75" overflow="visible" xml:space="preserve">
<g id="svg">
	<g>
		<g id="cs_layer_CNA_0002_00000023283088047694392320000015410210321053132443_">
			<g id="g169366_00000060018564281457370690000011209304467157080227_">
			</g>
			<g id="BR_BR_4RWK_-_132-44_204_00000169529683462191096520000012103469747146901397_" transform="translate(712.5,75)">
				<g id="g169570_00000091693529956477028220000003539763760629136289_" transform="translate(-450,-1500)">
					
						<rect id="rect169568_00000126287196841093524840000001771659234083595684_" x="-262.5" y="1425" fill="#ED2224" width="75" height="75"/>
				</g>
				<g id="g169587_00000129904280794510349450000004268910250154200740_" transform="translate(229.688,-150)">
					<g>
						<path fill="#FFFFFF" d="M-876.5,94.6v17H-903v-17H-876.5z M-901.6,96.8v12.5l10.4-6.3L-901.6,96.8z M-879.3,96h-20.9l10.4,6.3
							L-879.3,96z M-900.2,110.2h20.9l-10.4-6.3L-900.2,110.2z M-888.4,103.1l10.4,6.3V96.8L-888.4,103.1z"/>
					</g>
					<g>
						<path fill="#FFFFFF" d="M-926.2,125.2v-1.4l3.5-8h2.2v8h1.5v1.4h-1.5v3h-1.5v-3H-926.2z M-922.1,123.8v-6.5h0l-2.7,6.5H-922.1
							z"/>
						<path fill="#FFFFFF" d="M-915.6,122.3v6h-1.7v-13h4.5c2.3,0,3.1,1.6,3.1,3.2c0,1.5-0.8,2.7-2.4,3v0c1.5,0.2,2,0.7,2.1,3.3
							c0,0.6,0.2,2.6,0.5,3.4h-1.7c-0.5-0.9-0.4-2.6-0.5-4.3c-0.1-1.6-1.4-1.7-2-1.7H-915.6z M-915.6,120.8h2.5c1.2,0,1.8-1,1.8-2.2
							c0-0.9-0.5-2-1.7-2h-2.5V120.8z"/>
						<path fill="#FFFFFF" d="M-908.6,115.3h1.8l2.4,11.3h0l2.6-11.3h2.1l2.4,11.3h0l2.6-11.3h1.7l-3.4,13h-2l-2.5-11.3h0l-2.6,11.3
							h-2L-908.6,115.3z"/>
						<path fill="#FFFFFF" d="M-891.2,128.3v-13h1.7v5.7h0.1l4.5-5.7h1.9l-4.7,5.9l5,7.1h-2.1l-4.6-6.8h-0.1v6.8H-891.2z"/>
					</g>
					<g>
						<path fill="#FFFFFF" d="M-892.3,84.3h1v7.2h-1V84.3z"/>
						<path fill="#FFFFFF" d="M-889.6,84.3h1v7.2h-1V84.3z"/>
					</g>
					<g>
						<path fill="#FFFFFF" d="M-913,98.9c-0.7,0.6-1.8,1.2-2.6,1.6v-1.6c1-0.5,2.1-1.2,2.7-1.7h1.4v11.1h-1.5V98.9z"/>
					</g>
					<g>
						<path fill="#FFFFFF" d="M-916.1,140.3h-1.1v-7.1l-1.2,0.8V133c0.3-0.1,1.1-0.7,1.4-1h0.9V140.3z"/>
						<path fill="#FFFFFF" d="M-912.3,135.5c1,0.1,1.7-0.3,1.7-1.4c0-0.8-0.3-1.3-1.2-1.3c-0.9,0-1.1,0.7-1,1.4h-1.1
							c-0.1-1.4,0.6-2.3,2.1-2.3c1.4,0,2.3,0.7,2.3,2.2c0,1.6-1.2,1.8-1.6,1.9v0c1.3,0.2,1.7,0.9,1.7,2.1c0,1.6-0.9,2.4-2.5,2.4
							c-2.3,0-2.1-2-2.1-2.5h1.1c0,0.8,0.1,1.5,1.1,1.5c1,0,1.3-0.6,1.3-1.5c0-1.3-0.5-1.6-1.8-1.6V135.5z"/>
						<path fill="#FFFFFF" d="M-908.4,140.3v-1c2.4-3.4,3.2-4,3.2-5.5c0-0.7-0.3-1.1-1-1.1c-0.8,0-1,0.7-1,1.4h-1.1
							c-0.1-1.4,0.6-2.3,2-2.3c1.5,0,2.2,0.7,2.2,2.2c0,1.9-0.9,2.5-3.1,5.3h3.3v1H-908.4z"/>
						<path fill="#FFFFFF" d="M-903.1,141.5h-0.8l2.8-9.8h0.8L-903.1,141.5z"/>
						<path fill="#FFFFFF" d="M-900,138.3v-1l2.4-5.3h1.5v5.3h1v1h-1v2h-1v-2H-900z M-897.2,137.3V133h0l-1.8,4.3H-897.2z"/>
						<path fill="#FFFFFF" d="M-894.7,138.3v-1l2.4-5.3h1.5v5.3h1v1h-1v2h-1v-2H-894.7z M-891.9,137.3V133h0l-1.8,4.3H-891.9z"/>
					</g>
				</g>
			</g>
		</g>
	</g>
</g>
<g id="text" display="none">
	
		<rect id="frontbox" x="-712.5" y="-75" display="inline" fill="none" stroke="#000000" stroke-miterlimit="10" width="1650" height="1275"/>
	<g id="align" display="inline">
	</g>
</g>
<g id="crop" display="none">
	<g id="front" display="inline">
		<g>
			<line fill="none" stroke="#939598" stroke-miterlimit="10" x1="-684.4" y1="0" x2="84.4" y2="0"/>
			<line fill="none" stroke="#939598" stroke-miterlimit="10" x1="-684.4" y1="75" x2="84.4" y2="75"/>
			<line fill="none" stroke="#939598" stroke-miterlimit="10" x1="0" y1="-9.4" x2="0" y2="159.4"/>
			<line fill="none" stroke="#939598" stroke-miterlimit="10" x1="75" y1="-9.4" x2="75" y2="159.4"/>
		</g>
	</g>
</g>
<g id="guides" display="none">
</g>
</svg>
