<?xml version="1.0" encoding="utf-8"?>
<!-- Generator: Adobe Illustrator 26.0.3, SVG Export Plug-In . SVG Version: 6.00 Build 0)  -->
<svg version="1.2" baseProfile="tiny" xmlns="http://www.w3.org/2000/svg" xmlns:xlink="http://www.w3.org/1999/xlink" x="0px"
	 y="0px" viewBox="0 0 75 75" overflow="visible" xml:space="preserve">
<g id="svg">
	<g>
		<g id="cs_layer_CNA_0002_00000023283088047694392320000015410210321053132443_">
			<g id="g169366_00000060018564281457370690000011209304467157080227_">
			</g>
			<g id="BR_BR_5_RHA_-_NONE_207_00000145771280901476306280000003386113122027544464_" transform="translate(187.5,150)">
				<g id="g169636_00000054227908369938375320000007830136190210813602_" transform="translate(-450,-1500)">
					
						<rect id="rect169634_00000168095900036835639720000017172444860066750600_" x="262.5" y="1350" fill="#ED2224" width="75" height="75"/>
				</g>
				<g id="g169653_00000075878920497601639780000011737533606705229187_" transform="translate(229.688,-150)">
					<g>
						<path fill="#FFFFFF" d="M-351.5,19.6v17H-378v-17H-351.5z M-353,21h-23.6v14.2h23.6V21z M-373.7,31.1c-0.8-0.8-1.2-1.9-1.2-3
							c0-2.3,1.9-4.2,4.2-4.2c0,0,0,0,0,0v0h11.8c0,0,0,0,0,0c2.3,0,4.2,2,4.2,4.3c0,2.3-1.9,4.2-4.2,4.2c0,0,0,0,0,0v0h-11.8
							c0,0,0,0,0,0c0,0,0,0,0,0C-371.8,32.3-372.9,31.9-373.7,31.1z M-373.5,28.1c0,0.8,0.3,1.5,0.8,2c0.5,0.5,1.2,0.9,2,0.9h11.8
							c0,0,0,0,0,0c1.5,0,2.8-1.3,2.8-2.8c0-1.6-1.2-2.9-2.8-2.9v0h-11.8C-372.2,25.3-373.5,26.5-373.5,28.1z M-367.6,28.1
							c0-1.4,1.2-2.6,2.8-2.6c1.5,0,2.8,1.2,2.8,2.6c0,1.4-1.2,2.6-2.8,2.6C-366.3,30.7-367.6,29.5-367.6,28.1z"/>
					</g>
					<g>
						<path fill="#FFFFFF" d="M-394.8,40.8v1.4h-4.2v3.6l0,0c0.3-0.5,1.1-0.9,2-0.9c1.8,0,2.6,1.3,2.6,4.2c0,2-0.3,4.4-3.4,4.4
							c-2.6,0-3.1-1.4-3.1-3.1h1.7c0,1,0.4,1.9,1.5,1.9c1.6,0,1.7-1.5,1.7-2.8c0-1.8-0.1-3.2-1.6-3.2c-0.9,0-1.4,0.6-1.5,1.5h-1.5
							v-7H-394.8z"/>
						<path fill="#FFFFFF" d="M-386.6,47.3v6h-1.7v-13h4.5c2.3,0,3.1,1.6,3.1,3.2c0,1.5-0.8,2.7-2.4,3v0c1.5,0.2,2,0.7,2.1,3.3
							c0,0.6,0.2,2.6,0.5,3.4h-1.7c-0.5-0.9-0.4-2.6-0.5-4.3c-0.1-1.6-1.4-1.7-2-1.7H-386.6z M-386.6,45.8h2.5c1.2,0,1.8-1,1.8-2.2
							c0-0.9-0.5-2-1.7-2h-2.5V45.8z"/>
						<path fill="#FFFFFF" d="M-378.1,53.3v-13h1.7v5.6h4.6v-5.6h1.7v13h-1.7v-5.9h-4.6v5.9H-378.1z"/>
						<path fill="#FFFFFF" d="M-364.3,40.3h2.1l4.2,13h-1.9l-0.9-3.1h-5l-1,3.1h-1.7L-364.3,40.3z M-363.3,41.8L-363.3,41.8
							l-2.1,6.9h4.2L-363.3,41.8z"/>
					</g>
					<g>
						<path fill="#FFFFFF" d="M-368.7,9.3h1v7.2h-1V9.3z"/>
						<path fill="#FFFFFF" d="M-365.9,9.3h1v7.2h-1V9.3z"/>
						<path fill="#FFFFFF" d="M-363.2,9.3h1v7.2h-1V9.3z"/>
					</g>
					<g>
						<path fill="#FFFFFF" d="M-388,23.9c-0.7,0.6-1.8,1.2-2.6,1.6v-1.6c1-0.5,2.1-1.2,2.7-1.7h1.4v11.1h-1.5V23.9z"/>
					</g>
					<g>
						<path fill="#FFFFFF" d="M-382.9,61.6h2.6v0.9h-2.6V61.6z"/>
						<path fill="#FFFFFF" d="M-378.9,61.6h2.6v0.9h-2.6V61.6z"/>
					</g>
				</g>
			</g>
			<g id="BR_BR_5_RTR_-_3-2_208_00000088821303344818314560000010871204222330170514_" transform="translate(262.5,150)">
				<g id="g169658_00000111182751044569148790000011791641968854768559_" transform="translate(-450,-1500)">
					
						<rect id="rect169656_00000070080415815711377980000006487997717228435333_" x="262.5" y="1350" fill="#ED2224" width="75" height="75"/>
				</g>
			</g>
		</g>
	</g>
</g>
<g id="text" display="none">
	
		<rect id="frontbox" x="-187.5" y="-150" display="inline" fill="none" stroke="#000000" stroke-miterlimit="10" width="1650" height="1275"/>
	<g id="align" display="inline">
	</g>
</g>
<g id="crop" display="none">
	<g id="front" display="inline">
		<g>
			<line fill="none" stroke="#939598" stroke-miterlimit="10" x1="-159.4" y1="0" x2="609.4" y2="0"/>
			<line fill="none" stroke="#939598" stroke-miterlimit="10" x1="-159.4" y1="75" x2="609.4" y2="75"/>
			<line fill="none" stroke="#939598" stroke-miterlimit="10" x1="0" y1="-84.4" x2="0" y2="84.4"/>
			<line fill="none" stroke="#939598" stroke-miterlimit="10" x1="75" y1="-84.4" x2="75" y2="84.4"/>
		</g>
	</g>
</g>
<g id="guides" display="none">
</g>
</svg>
