<?xml version="1.0" encoding="utf-8"?>
<!-- Generator: Adobe Illustrator 26.0.3, SVG Export Plug-In . SVG Version: 6.00 Build 0)  -->
<svg version="1.2" baseProfile="tiny" xmlns="http://www.w3.org/2000/svg" xmlns:xlink="http://www.w3.org/1999/xlink" x="0px"
	 y="0px" viewBox="0 0 75 75" overflow="visible" xml:space="preserve">
<g id="svg">
	<g>
		<g id="cs_layer_CNA_0002_00000023283088047694392320000015410210321053132443_">
			<g id="g169366_00000060018564281457370690000011209304467157080227_">
			</g>
			<g id="BR_BR_5_EYORK_-_69-50_206_00000069395366877991371400000008007452325446507165_" transform="translate(112.5,150)">
				<g id="g169614_00000103979883062216584260000002253380372620844428_" transform="translate(-450,-1500)">
					
						<rect id="rect169612_00000032650460304934413010000000772438231052826266_" x="337.5" y="1350" fill="#ED2224" width="75" height="75"/>
				</g>
				<g id="g169631_00000139254351635421680580000007380598355458725775_" transform="translate(229.688,-150)">
					<g>
						<path fill="#FFFFFF" d="M-276.5,19.6v17H-303v-17H-276.5z M-301.6,21.8v12.5l10.4-6.3L-301.6,21.8z M-279.3,21h-20.9l10.4,6.3
							L-279.3,21z M-300.2,35.2h20.9l-10.4-6.3L-300.2,35.2z M-288.4,28.1l10.4,6.3V21.8L-288.4,28.1z"/>
					</g>
					<g>
						<path fill="#FFFFFF" d="M-323.7,40.8v1.4h-4.2v3.6l0,0c0.3-0.5,1.1-0.9,2-0.9c1.8,0,2.6,1.3,2.6,4.2c0,2-0.3,4.4-3.4,4.4
							c-2.6,0-3.1-1.4-3.1-3.1h1.7c0,1,0.4,1.9,1.5,1.9c1.6,0,1.7-1.5,1.7-2.8c0-1.8-0.1-3.2-1.6-3.2c-0.9,0-1.4,0.6-1.5,1.5h-1.5
							v-7H-323.7z"/>
						<path fill="#FFFFFF" d="M-317.1,53.3v-13h6.7v1.4h-5v4.2h4.7v1.4h-4.7v4.5h5.1v1.4H-317.1z"/>
						<path fill="#FFFFFF" d="M-302.4,40.3h1.7l-3.5,8v5h-1.7v-5l-3.5-8h1.9l2.5,6.3L-302.4,40.3z"/>
						<path fill="#FFFFFF" d="M-300.8,48.8c0-2.7,0.3-4.9,3.5-4.9s3.5,2.2,3.5,4.9c0,4-1.5,4.6-3.5,4.6
							C-299.2,53.4-300.8,52.9-300.8,48.8z M-295.4,48.2c0-2.5-0.8-3-1.9-3s-1.9,0.5-1.9,3c0,3,0.4,4,1.9,4
							C-295.8,52.2-295.4,51.2-295.4,48.2z"/>
						<path fill="#FFFFFF" d="M-290,45.5L-290,45.5c0.6-1.4,1.4-1.5,2.8-1.5v1.5c-0.1,0-0.3,0-0.4-0.1c-0.1,0-0.3,0-0.4,0
							c-1.6,0-2.1,1.2-2.1,2.5v5.4h-1.5v-9.1h1.5V45.5z"/>
						<path fill="#FFFFFF" d="M-284.1,53.3h-1.5v-13h1.5v7.8h0l2.8-3.9h1.8l-3,3.9l3.6,5.2h-1.9l-3.2-5.1h0V53.3z"/>
					</g>
					<g>
						<path fill="#FFFFFF" d="M-292.3,9.3h1v7.2h-1V9.3z"/>
						<path fill="#FFFFFF" d="M-289.6,9.3h1v7.2h-1V9.3z"/>
					</g>
					<g>
						<path fill="#FFFFFF" d="M-313,23.9c-0.7,0.6-1.8,1.2-2.6,1.6v-1.6c1-0.5,2.1-1.2,2.7-1.7h1.4v11.1h-1.5V23.9z"/>
					</g>
					<g>
						<path fill="#FFFFFF" d="M-316.5,61.2c0-2.2,0-4.3,2.2-4.3c1.2,0,2.1,0.8,2.1,2h-1.1c0-0.6-0.3-1.2-1-1.2c-0.9,0-1.1,0.8-1.1,3
							h0c0.3-0.5,0.8-0.8,1.4-0.8c1.1,0,2,0.6,2,2.8c0,1.5-0.6,2.8-2.2,2.8C-316.5,65.5-316.5,63.4-316.5,61.2z M-314.2,64.6
							c0.9,0,1.1-1,1.1-2.1c0-0.8-0.2-1.7-1.1-1.7c-1,0-1.1,1.1-1.1,1.8C-315.4,63.5-315.3,64.6-314.2,64.6z"/>
						<path fill="#FFFFFF" d="M-306.7,61.2c0,2.2,0,4.3-2.2,4.3c-1.2,0-2.1-0.9-2.1-2.2h1.1c0,0.6,0.2,1.2,0.9,1.2
							c1.1,0,1.1-1.2,1.1-3.3h0c-0.3,0.6-0.8,0.8-1.4,0.8c-0.7,0-1.9-0.3-1.9-2.6c0-1.9,1.1-2.6,2.2-2.6
							C-306.7,56.9-306.7,59-306.7,61.2z M-310.1,59.4c0,0.8,0.2,1.7,1.1,1.7s1.1-0.9,1.1-1.7c0-0.8-0.2-1.7-1.1-1.7
							C-309.9,57.7-310.1,58.6-310.1,59.4z"/>
						<path fill="#FFFFFF" d="M-305.8,66.5h-0.8l2.8-9.8h0.8L-305.8,66.5z"/>
						<path fill="#FFFFFF" d="M-298.4,57v1h-2.8v2.4l0,0c0.2-0.4,0.8-0.6,1.3-0.6c1.2,0,1.7,0.9,1.7,2.8c0,1.3-0.2,2.9-2.3,2.9
							c-1.7,0-2.1-0.9-2.1-2.1h1.1c0,0.6,0.3,1.3,1,1.3c1,0,1.1-1,1.1-1.8c0-1.2,0-2.2-1.1-2.2c-0.6,0-0.9,0.4-1,1h-1V57H-298.4z"/>
						<path fill="#FFFFFF" d="M-292.7,61.2c0,2.2,0,4.3-2.2,4.3s-2.2-2.1-2.2-4.3c0-2.2,0-4.3,2.2-4.3S-292.7,59-292.7,61.2z
							 M-296.1,61.4c0,1.4-0.1,3.2,1.1,3.2s1.1-1.8,1.1-3.2c0-2.2,0-3.6-1.1-3.6S-296.1,59.2-296.1,61.4z"/>
					</g>
				</g>
			</g>
			<g id="BR_BR_5_RHA_-_NONE_207_00000145771280901476306280000003386113122027544464_" transform="translate(187.5,150)">
				<g id="g169636_00000054227908369938375320000007830136190210813602_" transform="translate(-450,-1500)">
					
						<rect id="rect169634_00000168095900036835639720000017172444860066750600_" x="337.5" y="1350" fill="#ED2224" width="75" height="75"/>
				</g>
			</g>
		</g>
	</g>
</g>
<g id="text" display="none">
	
		<rect id="frontbox" x="-112.5" y="-150" display="inline" fill="none" stroke="#000000" stroke-miterlimit="10" width="1650" height="1275"/>
	<g id="align" display="inline">
	</g>
</g>
<g id="crop" display="none">
	<g id="front" display="inline">
		<g>
			<line fill="none" stroke="#939598" stroke-miterlimit="10" x1="-84.4" y1="0" x2="684.4" y2="0"/>
			<line fill="none" stroke="#939598" stroke-miterlimit="10" x1="-84.4" y1="75" x2="684.4" y2="75"/>
			<line fill="none" stroke="#939598" stroke-miterlimit="10" x1="0" y1="-84.4" x2="0" y2="84.4"/>
			<line fill="none" stroke="#939598" stroke-miterlimit="10" x1="75" y1="-84.4" x2="75" y2="84.4"/>
		</g>
	</g>
</g>
<g id="guides" display="none">
</g>
</svg>
