<?xml version="1.0" encoding="utf-8"?>
<!-- Generator: Adobe Illustrator 26.0.3, SVG Export Plug-In . SVG Version: 6.00 Build 0)  -->
<svg version="1.2" baseProfile="tiny" xmlns="http://www.w3.org/2000/svg" xmlns:xlink="http://www.w3.org/1999/xlink" x="0px"
	 y="0px" viewBox="0 0 75 75" overflow="visible" xml:space="preserve">
<g id="svg">
	<g>
		<g id="cs_layer_CNA_0002_00000023283088047694392320000015410210321053132443_">
			<g id="g169366_00000060018564281457370690000011209304467157080227_">
			</g>
			<g id="BR_BR_50_-_NONE_212_00000113341874567087624230000006732973124599064727_" transform="translate(562.5,150)">
				<g id="g169746_00000080182348500686104520000002553655864843022245_" transform="translate(-450,-1500)">
					
						<rect id="rect169744_00000109749163589982271310000005529755963233685691_" x="-112.5" y="1350" fill="#ED2224" width="75" height="75"/>
				</g>
				<g id="g169765_00000060027066425125255700000010050021774405118858_" transform="translate(229.688,-150)">
					
						<rect id="rect169748_00000046311486167348809240000004890537772010178707_" x="-792.2" y="18.8" fill="#7F1416" width="75" height="18.8"/>
					<g>
						<path fill="#FFFFFF" d="M-726.5,19.6v17H-753v-17H-726.5z M-751.6,21.8v12.5l10.4-6.3L-751.6,21.8z M-729.3,21h-20.9l10.4,6.3
							L-729.3,21z M-750.2,35.2h20.9l-10.4-6.3L-750.2,35.2z M-738.4,28.1l10.4,6.3V21.8L-738.4,28.1z"/>
					</g>
					<g>
						<path fill="#FFFFFF" d="M-755.8,40.8v1.4h-4.2v3.6l0,0c0.3-0.5,1.1-0.9,2-0.9c1.8,0,2.6,1.3,2.6,4.2c0,2-0.3,4.4-3.4,4.4
							c-2.6,0-3.1-1.4-3.1-3.1h1.7c0,1,0.4,1.9,1.5,1.9c1.6,0,1.7-1.5,1.7-2.8c0-1.8-0.1-3.2-1.6-3.2c-0.9,0-1.4,0.6-1.5,1.5h-1.5
							v-7H-755.8z"/>
						<path fill="#FFFFFF" d="M-747.3,47.1c0,3.3,0,6.5-3.4,6.5s-3.4-3.2-3.4-6.5c0-3.4-0.1-6.5,3.4-6.5S-747.3,43.7-747.3,47.1z
							 M-752.4,47.4c0,2.1-0.1,4.8,1.7,4.8c1.8,0,1.7-2.6,1.7-4.8c0-3.4,0-5.4-1.7-5.4S-752.4,44-752.4,47.4z"/>
					</g>
					<g>
						<path fill="#FFFFFF" d="M-745.9,9.3l1.9,2.8l1.9-2.8h1.2l-2.6,3.5l2.7,3.8h-1.3l-2.1-3.1l-2.2,3.1h-1.2l2.8-3.8l-2.5-3.4
							H-745.9z"/>
						<path fill="#FFFFFF" d="M-738.7,9.3l1.9,2.8l1.9-2.8h1.2l-2.6,3.5l2.7,3.8h-1.3l-2.1-3.1l-2.2,3.1h-1.2l2.8-3.8l-2.5-3.4
							H-738.7z"/>
					</g>
					<g>
						<path fill="#FFFFFF" d="M-763,23.9c-0.7,0.6-1.8,1.2-2.6,1.6v-1.6c1-0.5,2.1-1.2,2.7-1.7h1.4v11.1h-1.5V23.9z"/>
					</g>
					<g>
						<path fill="#FFFFFF" d="M-757.9,61.6h2.6v0.9h-2.6V61.6z"/>
						<path fill="#FFFFFF" d="M-753.9,61.6h2.6v0.9h-2.6V61.6z"/>
					</g>
				</g>
			</g>
			<g id="BR_BR_50_RTR_-_23-8_213_00000025438339189652795540000000995978702100954248_" transform="translate(637.5,150)">
				<g id="g169770_00000007391052086121930790000011870247187690163593_" transform="translate(-450,-1500)">
					
						<rect id="rect169768_00000154408078253719721400000006903981195424326294_" x="-112.5" y="1350" fill="#ED2224" width="75" height="75"/>
				</g>
			</g>
		</g>
	</g>
</g>
<g id="text" display="none">
	
		<rect id="frontbox" x="-562.5" y="-150" display="inline" fill="none" stroke="#000000" stroke-miterlimit="10" width="1650" height="1275"/>
	<g id="align" display="inline">
	</g>
</g>
<g id="crop" display="none">
	<g id="front" display="inline">
		<g>
			<line fill="none" stroke="#939598" stroke-miterlimit="10" x1="-534.4" y1="0" x2="234.4" y2="0"/>
			<line fill="none" stroke="#939598" stroke-miterlimit="10" x1="-534.4" y1="75" x2="234.4" y2="75"/>
			<line fill="none" stroke="#939598" stroke-miterlimit="10" x1="0" y1="-84.4" x2="0" y2="84.4"/>
			<line fill="none" stroke="#939598" stroke-miterlimit="10" x1="75" y1="-84.4" x2="75" y2="84.4"/>
		</g>
	</g>
</g>
<g id="guides" display="none">
</g>
</svg>
