<?xml version="1.0" encoding="utf-8"?>
<!-- Generator: Adobe Illustrator 26.0.3, SVG Export Plug-In . SVG Version: 6.00 Build 0)  -->
<svg version="1.2" baseProfile="tiny" xmlns="http://www.w3.org/2000/svg" xmlns:xlink="http://www.w3.org/1999/xlink" x="0px"
	 y="0px" viewBox="0 0 75 75" overflow="visible" xml:space="preserve">
<g id="svg">
	<g>
		<g id="cs_layer_CNA_0002_00000023283088047694392320000015410210321053132443_">
			<g id="g169366_00000060018564281457370690000011209304467157080227_">
			</g>
			<g id="BR_BR_50_RTR_-_23-8_213_00000025438339189652795540000000995978702100954248_" transform="translate(637.5,150)">
				<g id="g169770_00000007391052086121930790000011870247187690163593_" transform="translate(-450,-1500)">
					
						<rect id="rect169768_00000154408078253719721400000006903981195424326294_" x="-187.5" y="1350" fill="#ED2224" width="75" height="75"/>
				</g>
				<g id="g169787_00000029041206602737989180000012880440933564130237_" transform="translate(229.688,-150)">
					<g>
						<path fill="#FFFFFF" d="M-801.5,19.6v17H-828v-17H-801.5z M-803,21h-23.6v14.2h23.6V21z M-823.7,31.1c-0.8-0.8-1.2-1.9-1.2-3
							c0-2.3,1.9-4.2,4.2-4.2c0,0,0,0,0,0v0h11.8c0,0,0,0,0,0c2.3,0,4.2,2,4.2,4.3c0,2.3-1.9,4.2-4.2,4.2c0,0,0,0,0,0v0h-11.8
							c0,0,0,0,0,0c0,0,0,0,0,0C-821.8,32.3-822.9,31.9-823.7,31.1z M-823.5,28.1c0,0.8,0.3,1.5,0.8,2c0.5,0.5,1.2,0.9,2,0.9h11.8
							c0,0,0,0,0,0c1.5,0,2.8-1.3,2.8-2.8c0-1.6-1.2-2.9-2.8-2.9v0h-11.8C-822.2,25.3-823.5,26.5-823.5,28.1z"/>
					</g>
					<g>
						<path fill="#FFFFFF" d="M-847.3,40.8v1.4h-4.2v3.6l0,0c0.3-0.5,1.1-0.9,2-0.9c1.8,0,2.6,1.3,2.6,4.2c0,2-0.3,4.4-3.4,4.4
							c-2.6,0-3.1-1.4-3.1-3.1h1.7c0,1,0.4,1.9,1.5,1.9c1.6,0,1.7-1.5,1.7-2.8c0-1.8-0.1-3.2-1.6-3.2c-0.9,0-1.4,0.6-1.5,1.5h-1.5
							v-7H-847.3z"/>
						<path fill="#FFFFFF" d="M-838.8,47.1c0,3.3,0,6.5-3.4,6.5s-3.4-3.2-3.4-6.5c0-3.4-0.1-6.5,3.4-6.5S-838.8,43.7-838.8,47.1z
							 M-843.9,47.4c0,2.1-0.1,4.8,1.7,4.8c1.8,0,1.7-2.6,1.7-4.8c0-3.4,0-5.4-1.7-5.4S-843.9,44-843.9,47.4z"/>
						<path fill="#FFFFFF" d="M-831.1,47.3v6h-1.7v-13h4.5c2.3,0,3.1,1.6,3.1,3.2c0,1.5-0.8,2.7-2.4,3v0c1.5,0.2,2,0.7,2.1,3.3
							c0,0.6,0.2,2.6,0.5,3.4h-1.7c-0.5-0.9-0.4-2.6-0.5-4.3c-0.1-1.6-1.4-1.7-2-1.7H-831.1z M-831.1,45.8h2.5c1.2,0,1.8-1,1.8-2.2
							c0-0.9-0.5-2-1.7-2h-2.5V45.8z"/>
						<path fill="#FFFFFF" d="M-815.5,40.3v1.4h-3.4v11.6h-1.7V41.7h-3.4v-1.4H-815.5z"/>
						<path fill="#FFFFFF" d="M-812.1,47.3v6h-1.7v-13h4.5c2.3,0,3.1,1.6,3.1,3.2c0,1.5-0.8,2.7-2.4,3v0c1.5,0.2,2,0.7,2.1,3.3
							c0,0.6,0.2,2.6,0.5,3.4h-1.7c-0.5-0.9-0.4-2.6-0.5-4.3c-0.1-1.6-1.4-1.7-2-1.7H-812.1z M-812.1,45.8h2.5c1.2,0,1.8-1,1.8-2.2
							c0-0.9-0.5-2-1.7-2h-2.5V45.8z"/>
					</g>
					<g>
						<path fill="#FFFFFF" d="M-817.3,9.3h1v7.2h-1V9.3z"/>
						<path fill="#FFFFFF" d="M-814.6,9.3h1v7.2h-1V9.3z"/>
					</g>
					<g>
						<path fill="#FFFFFF" d="M-838,23.9c-0.7,0.6-1.8,1.2-2.6,1.6v-1.6c1-0.5,2.1-1.2,2.7-1.7h1.4v11.1h-1.5V23.9z"/>
					</g>
					<g>
						<path fill="#FFFFFF" d="M-838.8,65.3v-1c2.4-3.4,3.2-4,3.2-5.5c0-0.7-0.3-1.1-1-1.1c-0.8,0-1,0.7-1,1.4h-1.1
							c-0.1-1.4,0.6-2.3,2-2.3c1.5,0,2.2,0.7,2.2,2.2c0,1.9-0.9,2.5-3.1,5.3h3.3v1H-838.8z"/>
						<path fill="#FFFFFF" d="M-831.9,60.5c1,0.1,1.7-0.3,1.7-1.4c0-0.8-0.3-1.3-1.2-1.3c-0.9,0-1.1,0.7-1,1.4h-1.1
							c-0.1-1.4,0.6-2.3,2.1-2.3c1.4,0,2.3,0.7,2.3,2.2c0,1.6-1.2,1.8-1.6,1.9v0c1.3,0.2,1.7,0.9,1.7,2.1c0,1.6-0.9,2.4-2.5,2.4
							c-2.3,0-2.1-2-2.1-2.5h1.1c0,0.8,0.1,1.5,1.1,1.5c1,0,1.3-0.6,1.3-1.5c0-1.3-0.5-1.6-1.8-1.6V60.5z"/>
						<path fill="#FFFFFF" d="M-828.1,66.5h-0.8l2.8-9.8h0.8L-828.1,66.5z"/>
						<path fill="#FFFFFF" d="M-821.9,60.9c1.2,0.1,1.5,1.1,1.5,2.2c0,1.5-0.8,2.4-2.2,2.4s-2.2-0.9-2.2-2.4c0-1.1,0.3-2,1.5-2.2v0
							c-1-0.2-1.5-1-1.5-2c0-1.3,0.8-2.1,2.1-2.1c1.3,0,2.1,0.8,2.1,2.1C-820.5,59.9-821,60.7-821.9,60.9L-821.9,60.9z M-821.5,63.1
							c0-0.7-0.1-1.7-1.1-1.7s-1.1,1-1.1,1.7c0,0.7,0.3,1.5,1.1,1.5C-821.8,64.6-821.5,63.8-821.5,63.1z M-821.6,58.9
							c0-0.6-0.3-1.2-1-1.2c-0.7,0-1,0.6-1,1.2c0,0.6,0.2,1.5,1,1.5C-821.8,60.4-821.6,59.5-821.6,58.9z"/>
					</g>
				</g>
			</g>
			<g id="BR_BR_51_-_51_214_00000134228068157033988210000013705643582056237198_" transform="translate(712.5,150)">
				<g id="g169792_00000078022981830795518000000018344250989699987107_" transform="translate(-450,-1500)">
					
						<rect id="rect169790_00000078045387231944444170000013442717136789174927_" x="-187.5" y="1350" fill="#ED2224" width="75" height="75"/>
				</g>
			</g>
		</g>
	</g>
</g>
<g id="text" display="none">
	
		<rect id="frontbox" x="-637.5" y="-150" display="inline" fill="none" stroke="#000000" stroke-miterlimit="10" width="1650" height="1275"/>
	<g id="align" display="inline">
	</g>
</g>
<g id="crop" display="none">
	<g id="front" display="inline">
		<g>
			<line fill="none" stroke="#939598" stroke-miterlimit="10" x1="-609.4" y1="0" x2="159.4" y2="0"/>
			<line fill="none" stroke="#939598" stroke-miterlimit="10" x1="-609.4" y1="75" x2="159.4" y2="75"/>
			<line fill="none" stroke="#939598" stroke-miterlimit="10" x1="0" y1="-84.4" x2="0" y2="84.4"/>
			<line fill="none" stroke="#939598" stroke-miterlimit="10" x1="75" y1="-84.4" x2="75" y2="84.4"/>
		</g>
	</g>
</g>
<g id="guides" display="none">
</g>
</svg>
