<?xml version="1.0" encoding="utf-8"?>
<!-- Generator: Adobe Illustrator 26.0.3, SVG Export Plug-In . SVG Version: 6.00 Build 0)  -->
<svg version="1.2" baseProfile="tiny" xmlns="http://www.w3.org/2000/svg" xmlns:xlink="http://www.w3.org/1999/xlink" x="0px"
	 y="0px" viewBox="0 0 75 75" overflow="visible" xml:space="preserve">
<g id="svg">
	<g>
		<g id="cs_layer_CNA_0002_00000023283088047694392320000015410210321053132443_">
			<g id="g169366_00000060018564281457370690000011209304467157080227_">
			</g>
			<g id="BR_BR_5-7GRND_-_153-51_210_00000119820272704263544930000004046583255593068192_" transform="translate(412.5,150)">
				<g id="g169702_00000083069286770222993200000015769213879819707553_" transform="translate(-450,-1500)">
					
						<rect id="rect169700_00000126300213509493891590000004724122458871885488_" x="37.5" y="1350" fill="#ED2224" width="75" height="75"/>
				</g>
				<g id="g169719_00000037673251535596781060000004207063355086232210_" transform="translate(229.688,-150)">
					<g>
						<path fill="#FFFFFF" d="M-576.5,19.6v17H-603v-17H-576.5z M-601.6,21.8v12.5l10.4-6.3L-601.6,21.8z M-579.3,21h-20.9l10.4,6.3
							L-579.3,21z M-600.2,35.2h20.9l-10.4-6.3L-600.2,35.2z M-588.4,28.1l10.4,6.3V21.8L-588.4,28.1z"/>
					</g>
					<g>
						<path fill="#FFFFFF" d="M-625.8,40.8v1.4h-4.2v3.6l0,0c0.3-0.5,1.1-0.9,2-0.9c1.8,0,2.6,1.3,2.6,4.2c0,2-0.3,4.4-3.4,4.4
							c-2.6,0-3.1-1.4-3.1-3.1h1.7c0,1,0.4,1.9,1.5,1.9c1.6,0,1.7-1.5,1.7-2.8c0-1.8-0.1-3.2-1.6-3.2c-0.9,0-1.4,0.6-1.5,1.5h-1.5
							v-7H-625.8z"/>
						<path fill="#FFFFFF" d="M-623.9,55h-1.2l4.2-14.7h1.2L-623.9,55z"/>
						<path fill="#FFFFFF" d="M-619.1,40.8h6.5v1.4l-3.3,11.1h-1.9l3.5-11.1h-4.8V40.8z"/>
						<path fill="#FFFFFF" d="M-604,43.7c0-1.5-0.6-2.4-2.3-2.4c-0.5,0-2.4,0.1-2.4,2.8v4.4c0,2.8,0.8,3.6,2.4,3.6
							c1.2,0,2-0.3,2.3-0.6v-3.9h-2.4v-1.4h4.1v6.3c-1.1,0.6-2.3,1-4,1c-2.8,0-4.1-1.4-4.1-5v-4.3c0-2.6,1.3-4.2,4.1-4.2
							c2.8,0,4.1,1,4,3.7H-604z"/>
						<path fill="#FFFFFF" d="M-597.9,45.5L-597.9,45.5c0.6-1.4,1.4-1.5,2.8-1.5v1.5c-0.1,0-0.3,0-0.4-0.1c-0.1,0-0.3,0-0.4,0
							c-1.6,0-2.1,1.2-2.1,2.5v5.4h-1.5v-9.1h1.5V45.5z"/>
						<path fill="#FFFFFF" d="M-588.6,40.3h1.5v13h-1.5v-1.1h0c-0.5,0.8-1.1,1.3-2.1,1.3c-1.5,0-2.9-0.6-2.9-4.6
							c0-2.3,0.1-4.9,3-4.9c0.9,0,1.5,0.4,2,1.1h0.1V40.3z M-590.3,45.2c-1.6,0-1.8,1.3-1.8,3.7c0,1.4,0,3.3,1.9,3.3
							c1.7,0,1.7-2.1,1.7-3.9C-588.6,47.1-588.7,45.2-590.3,45.2z"/>
						<path fill="#FFFFFF" d="M-579.5,53.3v-6.3c0-1-0.3-1.8-1.6-1.8c-1.6,0-1.9,1.4-1.9,2.7v5.4h-1.5V46c0-0.6,0-1.3-0.1-1.9h1.6
							v1.2h0.1c0.6-1,1.3-1.4,2.4-1.4c1.9,0,2.4,1.2,2.4,3v6.3H-579.5z"/>
					</g>
					<g>
						<path fill="#FFFFFF" d="M-592.3,9.3h1v7.2h-1V9.3z"/>
						<path fill="#FFFFFF" d="M-589.6,9.3h1v7.2h-1V9.3z"/>
					</g>
					<g>
						<path fill="#FFFFFF" d="M-613,23.9c-0.7,0.6-1.8,1.2-2.6,1.6v-1.6c1-0.5,2.1-1.2,2.7-1.7h1.4v11.1h-1.5V23.9z"/>
					</g>
					<g>
						<path fill="#FFFFFF" d="M-616.1,65.3h-1.1v-7.1l-1.2,0.8V58c0.3-0.1,1.1-0.7,1.4-1h0.9V65.3z"/>
						<path fill="#FFFFFF" d="M-609.7,57v1h-2.8v2.4l0,0c0.2-0.4,0.8-0.6,1.3-0.6c1.2,0,1.7,0.9,1.7,2.8c0,1.3-0.2,2.9-2.3,2.9
							c-1.7,0-2.1-0.9-2.1-2.1h1.1c0,0.6,0.3,1.3,1,1.3c1,0,1.1-1,1.1-1.8c0-1.2,0-2.2-1.1-2.2c-0.6,0-0.9,0.4-1,1h-1V57H-609.7z"/>
						<path fill="#FFFFFF" d="M-606.9,60.5c1,0.1,1.7-0.3,1.7-1.4c0-0.8-0.3-1.3-1.2-1.3c-0.9,0-1.1,0.7-1,1.4h-1.1
							c-0.1-1.4,0.6-2.3,2.1-2.3c1.4,0,2.3,0.7,2.3,2.2c0,1.6-1.2,1.8-1.6,1.9v0c1.3,0.2,1.7,0.9,1.7,2.1c0,1.6-0.9,2.4-2.5,2.4
							c-2.3,0-2.1-2-2.1-2.5h1.1c0,0.8,0.1,1.5,1.1,1.5c1,0,1.3-0.6,1.3-1.5c0-1.3-0.5-1.6-1.8-1.6V60.5z"/>
						<path fill="#FFFFFF" d="M-603.1,66.5h-0.8l2.8-9.8h0.8L-603.1,66.5z"/>
						<path fill="#FFFFFF" d="M-595.7,57v1h-2.8v2.4l0,0c0.2-0.4,0.8-0.6,1.3-0.6c1.2,0,1.7,0.9,1.7,2.8c0,1.3-0.2,2.9-2.3,2.9
							c-1.7,0-2.1-0.9-2.1-2.1h1.1c0,0.6,0.3,1.3,1,1.3c1,0,1.1-1,1.1-1.8c0-1.2,0-2.2-1.1-2.2c-0.6,0-0.9,0.4-1,1h-1V57H-595.7z"/>
						<path fill="#FFFFFF" d="M-591.5,65.3h-1.1v-7.1l-1.2,0.8V58c0.3-0.1,1.1-0.7,1.4-1h0.9V65.3z"/>
					</g>
				</g>
			</g>
			<g id="BR_BR_50_-_50_211_00000168795364255842691360000008563111307639175343_" transform="translate(487.5,150)">
				<g id="g169724_00000034789947317911834940000018142344460775865528_" transform="translate(-450,-1500)">
					
						<rect id="rect169722_00000174603773789896587600000007627679424098425755_" x="37.5" y="1350" fill="#ED2224" width="75" height="75"/>
				</g>
			</g>
		</g>
	</g>
</g>
<g id="text" display="none">
	
		<rect id="frontbox" x="-412.5" y="-150" display="inline" fill="none" stroke="#000000" stroke-miterlimit="10" width="1650" height="1275"/>
	<g id="align" display="inline">
	</g>
</g>
<g id="crop" display="none">
	<g id="front" display="inline">
		<g>
			<line fill="none" stroke="#939598" stroke-miterlimit="10" x1="-384.4" y1="0" x2="384.4" y2="0"/>
			<line fill="none" stroke="#939598" stroke-miterlimit="10" x1="-384.4" y1="75" x2="384.4" y2="75"/>
			<line fill="none" stroke="#939598" stroke-miterlimit="10" x1="0" y1="-84.4" x2="0" y2="84.4"/>
			<line fill="none" stroke="#939598" stroke-miterlimit="10" x1="75" y1="-84.4" x2="75" y2="84.4"/>
		</g>
	</g>
</g>
<g id="guides" display="none">
</g>
</svg>
