<?xml version="1.0" encoding="utf-8"?>
<!-- Generator: Adobe Illustrator 26.0.3, SVG Export Plug-In . SVG Version: 6.00 Build 0)  -->
<svg version="1.2" baseProfile="tiny" xmlns="http://www.w3.org/2000/svg" xmlns:xlink="http://www.w3.org/1999/xlink" x="0px"
	 y="0px" viewBox="0 0 75 75" overflow="visible" xml:space="preserve">
<g id="svg">
	<g>
		<g id="cs_layer_CNA_0002_00000023283088047694392320000015410210321053132443_">
			<g id="g169366_00000060018564281457370690000011209304467157080227_">
			</g>
			<g id="BR_BR_5_RTR_-_3-2_208_00000088821303344818314560000010871204222330170514_" transform="translate(262.5,150)">
				<g id="g169658_00000111182751044569148790000011791641968854768559_" transform="translate(-450,-1500)">
					
						<rect id="rect169656_00000070080415815711377980000006487997717228435333_" x="187.5" y="1350" fill="#ED2224" width="75" height="75"/>
				</g>
				<g id="g169675_00000018924930350804386820000014099100849624527281_" transform="translate(229.688,-150)">
					<g>
						<path fill="#FFFFFF" d="M-426.5,19.6v17H-453v-17H-426.5z M-428,21h-23.6v14.2h23.6V21z M-448.7,31.1c-0.8-0.8-1.2-1.9-1.2-3
							c0-2.3,1.9-4.2,4.2-4.2c0,0,0,0,0,0v0h11.8c0,0,0,0,0,0c2.3,0,4.2,2,4.2,4.3c0,2.3-1.9,4.2-4.2,4.2c0,0,0,0,0,0v0h-11.8
							c0,0,0,0,0,0c0,0,0,0,0,0C-446.8,32.3-447.9,31.9-448.7,31.1z M-448.5,28.1c0,0.8,0.3,1.5,0.8,2c0.5,0.5,1.2,0.9,2,0.9h11.8
							c0,0,0,0,0,0c1.5,0,2.8-1.3,2.8-2.8c0-1.6-1.2-2.9-2.8-2.9v0h-11.8C-447.2,25.3-448.5,26.5-448.5,28.1z"/>
					</g>
					<g>
						<path fill="#FFFFFF" d="M-468.3,40.8v1.4h-4.2v3.6l0,0c0.3-0.5,1.1-0.9,2-0.9c1.8,0,2.6,1.3,2.6,4.2c0,2-0.3,4.4-3.4,4.4
							c-2.6,0-3.1-1.4-3.1-3.1h1.7c0,1,0.4,1.9,1.5,1.9c1.6,0,1.7-1.5,1.7-2.8c0-1.8-0.1-3.2-1.6-3.2c-0.9,0-1.4,0.6-1.5,1.5h-1.5
							v-7H-468.3z"/>
						<path fill="#FFFFFF" d="M-460.1,47.3v6h-1.7v-13h4.5c2.3,0,3.1,1.6,3.1,3.2c0,1.5-0.8,2.7-2.4,3v0c1.5,0.2,2,0.7,2.1,3.3
							c0,0.6,0.2,2.6,0.5,3.4h-1.7c-0.5-0.9-0.4-2.6-0.5-4.3c-0.1-1.6-1.4-1.7-2-1.7H-460.1z M-460.1,45.8h2.5c1.2,0,1.8-1,1.8-2.2
							c0-0.9-0.5-2-1.7-2h-2.5V45.8z"/>
						<path fill="#FFFFFF" d="M-444.4,40.3v1.4h-3.4v11.6h-1.7V41.7h-3.4v-1.4H-444.4z"/>
						<path fill="#FFFFFF" d="M-441.1,47.3v6h-1.7v-13h4.5c2.3,0,3.1,1.6,3.1,3.2c0,1.5-0.8,2.7-2.4,3v0c1.5,0.2,2,0.7,2.1,3.3
							c0,0.6,0.2,2.6,0.5,3.4h-1.7c-0.5-0.9-0.4-2.6-0.5-4.3c-0.1-1.6-1.4-1.7-2-1.7H-441.1z M-441.1,45.8h2.5c1.2,0,1.8-1,1.8-2.2
							c0-0.9-0.5-2-1.7-2h-2.5V45.8z"/>
					</g>
					<g>
						<path fill="#FFFFFF" d="M-442.3,9.3h1v7.2h-1V9.3z"/>
						<path fill="#FFFFFF" d="M-439.6,9.3h1v7.2h-1V9.3z"/>
					</g>
					<g>
						<path fill="#FFFFFF" d="M-463,23.9c-0.7,0.6-1.8,1.2-2.6,1.6v-1.6c1-0.5,2.1-1.2,2.7-1.7h1.4v11.1h-1.5V23.9z"/>
					</g>
					<g>
						<path fill="#FFFFFF" d="M-467.6,63.3v-1l2.4-5.3h1.5v5.3h1v1h-1v2h-1v-2H-467.6z M-464.9,62.3V58h0l-1.8,4.3H-464.9z"/>
						<path fill="#FFFFFF" d="M-462.3,63.3v-1l2.4-5.3h1.5v5.3h1v1h-1v2h-1v-2H-462.3z M-459.5,62.3V58h0l-1.8,4.3H-459.5z"/>
						<path fill="#FFFFFF" d="M-456.8,65.3v-1c2.4-3.4,3.2-4,3.2-5.5c0-0.7-0.3-1.1-1-1.1c-0.8,0-1,0.7-1,1.4h-1.1
							c-0.1-1.4,0.6-2.3,2-2.3c1.5,0,2.2,0.7,2.2,2.2c0,1.9-0.9,2.5-3.1,5.3h3.3v1H-456.8z"/>
						<path fill="#FFFFFF" d="M-447.4,57v1h-2.8v2.4l0,0c0.2-0.4,0.8-0.6,1.3-0.6c1.2,0,1.7,0.9,1.7,2.8c0,1.3-0.2,2.9-2.3,2.9
							c-1.7,0-2.1-0.9-2.1-2.1h1.1c0,0.6,0.3,1.3,1,1.3c1,0,1.1-1,1.1-1.8c0-1.2,0-2.2-1.1-2.2c-0.6,0-0.9,0.4-1,1h-1V57H-447.4z"/>
						<path fill="#FFFFFF" d="M-446.3,57h4.3v1l-2.2,7.4h-1.2l2.3-7.4h-3.2V57z"/>
					</g>
				</g>
			</g>
			<g id="BR_BR_5_SEA_-_152-51_209_00000060013228234220444460000009554655101172511623_" transform="translate(337.5,150)">
				<g id="g169680_00000004545391035115140440000010172334062320306341_" transform="translate(-450,-1500)">
					
						<rect id="rect169678_00000008127040364816454940000000115238063157494702_" x="187.5" y="1350" fill="#ED2224" width="75" height="75"/>
				</g>
			</g>
		</g>
	</g>
</g>
<g id="text" display="none">
	
		<rect id="frontbox" x="-262.5" y="-150" display="inline" fill="none" stroke="#000000" stroke-miterlimit="10" width="1650" height="1275"/>
	<g id="align" display="inline">
	</g>
</g>
<g id="crop" display="none">
	<g id="front" display="inline">
		<g>
			<line fill="none" stroke="#939598" stroke-miterlimit="10" x1="-234.4" y1="0" x2="534.4" y2="0"/>
			<line fill="none" stroke="#939598" stroke-miterlimit="10" x1="-234.4" y1="75" x2="534.4" y2="75"/>
			<line fill="none" stroke="#939598" stroke-miterlimit="10" x1="0" y1="-84.4" x2="0" y2="84.4"/>
			<line fill="none" stroke="#939598" stroke-miterlimit="10" x1="75" y1="-84.4" x2="75" y2="84.4"/>
		</g>
	</g>
</g>
<g id="guides" display="none">
</g>
</svg>
