<?xml version="1.0" encoding="utf-8"?>
<!-- Generator: Adobe Illustrator 26.0.3, SVG Export Plug-In . SVG Version: 6.00 Build 0)  -->
<svg version="1.2" baseProfile="tiny" xmlns="http://www.w3.org/2000/svg" xmlns:xlink="http://www.w3.org/1999/xlink" x="0px"
	 y="0px" viewBox="0 0 75 75" overflow="visible" xml:space="preserve">
<g id="svg">
	<g>
		<g id="cs_layer_CNA_0002_00000023283088047694392320000015410210321053132443_">
			<g id="g169366_00000060018564281457370690000011209304467157080227_">
			</g>
			<g id="BR_BR_5_CMRN_-_152-51_205_00000085213629086762636200000015535342668120232121_" transform="translate(37.5,150)">
				<g id="g169592_00000143598797601335597370000013428985267720186755_" transform="translate(-450,-1500)">
					
						<rect id="rect169590_00000112593031291937441890000017457255446646145978_" x="412.5" y="1350" fill="#ED2224" width="75" height="75"/>
				</g>
				<g id="g169609_00000041290677740992123080000016058790510003880889_" transform="translate(229.688,-150)">
					<g>
						<path fill="#FFFFFF" d="M-201.5,19.6v17H-228v-17H-201.5z M-226.6,21.8v12.5l10.4-6.3L-226.6,21.8z M-204.3,21h-20.9l10.4,6.3
							L-204.3,21z M-225.2,35.2h20.9l-10.4-6.3L-225.2,35.2z M-213.4,28.1l10.4,6.3V21.8L-213.4,28.1z"/>
					</g>
					<g>
						<path fill="#FFFFFF" d="M-247.8,40.8v1.4h-4.2v3.6l0,0c0.3-0.5,1.1-0.9,2-0.9c1.8,0,2.6,1.3,2.6,4.2c0,2-0.3,4.4-3.4,4.4
							c-2.6,0-3.1-1.4-3.1-3.1h1.7c0,1,0.4,1.9,1.5,1.9c1.6,0,1.7-1.5,1.7-2.8c0-1.8-0.1-3.2-1.6-3.2c-0.9,0-1.4,0.6-1.5,1.5h-1.5
							v-7H-247.8z"/>
						<path fill="#FFFFFF" d="M-235.5,43.8c0-0.7,0-1.5-0.4-1.9c-0.3-0.4-1.1-0.6-1.5-0.6c-1.4,0-1.9,0.8-2,1
							c-0.1,0.1-0.4,0.5-0.4,2.7v3.5c0,3.2,1,3.6,2.3,3.6c0.5,0,2-0.2,2.1-2.7h1.7c0.1,4.1-2.8,4.1-3.7,4.1c-1.6,0-4.1-0.1-4.1-5.2
							v-3.7c0-3.7,1.6-4.7,4.2-4.7c2.6,0,3.6,1.3,3.4,3.9H-235.5z"/>
						<path fill="#FFFFFF" d="M-226.9,53.3v-6.3c0-0.9-0.3-1.8-1.4-1.8c-0.5,0-1.1,0.3-1.3,0.6c-0.3,0.5-0.3,1-0.3,1.3v6.1h-1.5V46
							c0-0.6,0-1.3-0.1-1.9h1.6v1.1h0c0.4-1,1.2-1.3,2.3-1.3c0.8,0,1.8,0.3,2.1,1.2c0.5-1,1.3-1.2,2.2-1.2c1,0,2.5,0.2,2.5,2.4v6.9
							h-1.5v-6.3c0-0.9-0.3-1.8-1.4-1.8c-0.6,0-0.7,0-1.1,0.3c-0.4,0.4-0.5,1.3-0.5,1.6v6.1H-226.9z"/>
						<path fill="#FFFFFF" d="M-216.9,45.5L-216.9,45.5c0.6-1.4,1.4-1.5,2.8-1.5v1.5c-0.1,0-0.3,0-0.4-0.1c-0.1,0-0.3,0-0.4,0
							c-1.6,0-2.1,1.2-2.1,2.5v5.4h-1.5v-9.1h1.5V45.5z"/>
						<path fill="#FFFFFF" d="M-207.5,53.3v-6.3c0-1-0.3-1.8-1.6-1.8c-1.6,0-1.9,1.4-1.9,2.7v5.4h-1.5V46c0-0.6,0-1.3-0.1-1.9h1.6
							v1.2h0.1c0.6-1,1.3-1.4,2.4-1.4c1.9,0,2.4,1.2,2.4,3v6.3H-207.5z"/>
					</g>
					<g>
						<path fill="#FFFFFF" d="M-217.3,9.3h1v7.2h-1V9.3z"/>
						<path fill="#FFFFFF" d="M-214.6,9.3h1v7.2h-1V9.3z"/>
					</g>
					<g>
						<path fill="#FFFFFF" d="M-238,23.9c-0.7,0.6-1.8,1.2-2.6,1.6v-1.6c1-0.5,2.1-1.2,2.7-1.7h1.4v11.1h-1.5V23.9z"/>
					</g>
					<g>
						<path fill="#FFFFFF" d="M-241.1,65.3h-1.1v-7.1l-1.2,0.8V58c0.3-0.1,1.1-0.7,1.4-1h0.9V65.3z"/>
						<path fill="#FFFFFF" d="M-234.7,57v1h-2.8v2.4l0,0c0.2-0.4,0.8-0.6,1.3-0.6c1.2,0,1.7,0.9,1.7,2.8c0,1.3-0.2,2.9-2.3,2.9
							c-1.7,0-2.1-0.9-2.1-2.1h1.1c0,0.6,0.3,1.3,1,1.3c1,0,1.1-1,1.1-1.8c0-1.2,0-2.2-1.1-2.2c-0.6,0-0.9,0.4-1,1h-1V57H-234.7z"/>
						<path fill="#FFFFFF" d="M-233.4,65.3v-1c2.4-3.4,3.2-4,3.2-5.5c0-0.7-0.3-1.1-1-1.1c-0.8,0-1,0.7-1,1.4h-1.1
							c-0.1-1.4,0.6-2.3,2-2.3c1.5,0,2.2,0.7,2.2,2.2c0,1.9-0.9,2.5-3.1,5.3h3.3v1H-233.4z"/>
						<path fill="#FFFFFF" d="M-228.1,66.5h-0.8l2.8-9.8h0.8L-228.1,66.5z"/>
						<path fill="#FFFFFF" d="M-220.7,57v1h-2.8v2.4l0,0c0.2-0.4,0.8-0.6,1.3-0.6c1.2,0,1.7,0.9,1.7,2.8c0,1.3-0.2,2.9-2.3,2.9
							c-1.7,0-2.1-0.9-2.1-2.1h1.1c0,0.6,0.3,1.3,1,1.3c1,0,1.1-1,1.1-1.8c0-1.2,0-2.2-1.1-2.2c-0.6,0-0.9,0.4-1,1h-1V57H-220.7z"/>
						<path fill="#FFFFFF" d="M-216.5,65.3h-1.1v-7.1l-1.2,0.8V58c0.3-0.1,1.1-0.7,1.4-1h0.9V65.3z"/>
					</g>
				</g>
			</g>
			<g id="BR_BR_5_EYORK_-_69-50_206_00000069395366877991371400000008007452325446507165_" transform="translate(112.5,150)">
				<g id="g169614_00000103979883062216584260000002253380372620844428_" transform="translate(-450,-1500)">
					
						<rect id="rect169612_00000032650460304934413010000000772438231052826266_" x="412.5" y="1350" fill="#ED2224" width="75" height="75"/>
				</g>
			</g>
		</g>
	</g>
</g>
<g id="text" display="none">
	
		<rect id="frontbox" x="-37.5" y="-150" display="inline" fill="none" stroke="#000000" stroke-miterlimit="10" width="1650" height="1275"/>
	<g id="align" display="inline">
	</g>
</g>
<g id="crop" display="none">
	<g id="front" display="inline">
		<g>
			<line fill="none" stroke="#939598" stroke-miterlimit="10" x1="-9.4" y1="0" x2="759.4" y2="0"/>
			<line fill="none" stroke="#939598" stroke-miterlimit="10" x1="-9.4" y1="75" x2="759.4" y2="75"/>
			<line fill="none" stroke="#939598" stroke-miterlimit="10" x1="0" y1="-84.4" x2="0" y2="84.4"/>
			<line fill="none" stroke="#939598" stroke-miterlimit="10" x1="75" y1="-84.4" x2="75" y2="84.4"/>
		</g>
	</g>
</g>
<g id="guides" display="none">
</g>
</svg>
