<?xml version="1.0" encoding="utf-8"?>
<!-- Generator: Adobe Illustrator 26.0.3, SVG Export Plug-In . SVG Version: 6.00 Build 0)  -->
<svg version="1.2" baseProfile="tiny" xmlns="http://www.w3.org/2000/svg" xmlns:xlink="http://www.w3.org/1999/xlink" x="0px"
	 y="0px" viewBox="0 0 75 75" overflow="visible" xml:space="preserve">
<g id="svg">
	<g>
		<g id="cs_layer_CNA_0002_00000023283088047694392320000015410210321053132443_">
			<g id="g169366_00000060018564281457370690000011209304467157080227_">
			</g>
			<g id="BR_BR_51_-_51_214_00000134228068157033988210000013705643582056237198_" transform="translate(712.5,150)">
				<g id="g169792_00000078022981830795518000000018344250989699987107_" transform="translate(-450,-1500)">
					
						<rect id="rect169790_00000078045387231944444170000013442717136789174927_" x="-262.5" y="1350" fill="#ED2224" width="75" height="75"/>
				</g>
				<g id="g169809_00000084498774150811257840000003137038125776271512_" transform="translate(229.688,-150)">
					<g>
						<path fill="#FFFFFF" d="M-876.5,19.6v17H-903v-17H-876.5z M-901.6,21v13.4l4.1-2.5c-0.4-0.2-0.8-0.5-1.2-0.8
							c-0.8-0.8-1.2-1.9-1.2-3c0-2.3,1.9-4.2,4.2-4.2c0,0,0,0,0,0v0h11.6l4.7-2.8H-901.6z M-878,35.2V21.8l-4.1,2.5
							c1.4,0.7,2.4,2.2,2.4,3.9c0,2.3-1.9,4.2-4.2,4.2c0,0,0,0,0,0v0h-11.6l-4.7,2.8H-878z M-898.5,28.1c0,0.8,0.3,1.5,0.8,2
							c0.5,0.5,1.1,0.8,1.8,0.8l9.4-5.7h-9.2C-897.2,25.3-898.5,26.5-898.5,28.1z M-881.1,28.1c0-1.5-1.1-2.7-2.6-2.9l-9.4,5.7h9.2
							c0,0,0,0,0,0C-882.3,30.9-881.1,29.7-881.1,28.1z"/>
					</g>
					<g>
						<path fill="#FFFFFF" d="M-905.8,40.8v1.4h-4.2v3.6l0,0c0.3-0.5,1.1-0.9,2-0.9c1.8,0,2.6,1.3,2.6,4.2c0,2-0.3,4.4-3.4,4.4
							c-2.6,0-3.1-1.4-3.1-3.1h1.7c0,1,0.4,1.9,1.5,1.9c1.6,0,1.7-1.5,1.7-2.8c0-1.8-0.1-3.2-1.6-3.2c-0.9,0-1.4,0.6-1.5,1.5h-1.5
							v-7H-905.8z"/>
						<path fill="#FFFFFF" d="M-899.5,53.3h-1.7V42.6l-1.9,1.3v-1.6c0.4-0.2,1.6-1.1,2.1-1.5h1.4V53.3z"/>
					</g>
					<g>
						<path fill="#FFFFFF" d="M-893.7,9.3h1v7.2h-1V9.3z"/>
						<path fill="#FFFFFF" d="M-890.9,9.3h1v7.2h-1V9.3z"/>
						<path fill="#FFFFFF" d="M-888.2,9.3h1v7.2h-1V9.3z"/>
					</g>
					<g>
						<path fill="#FFFFFF" d="M-924.9,35.2c-0.9-2.1-1.9-4.8-1.9-7.1c0-1.3,0.3-2.5,0.7-3.7c0.4-1.4,0.9-2.5,1.1-3.2h1.1
							c-0.3,0.8-0.6,1.9-0.9,3.4c-0.3,1.5-0.4,2.5-0.4,3.5c0,2.3,0.6,4.1,1.5,7.2H-924.9z"/>
						<path fill="#FFFFFF" d="M-920.1,30.6c0,1.1,1,1.6,1.8,1.6c1.9,0,2.2-1.8,2.2-2.5c0-1.5-0.8-2.4-2.1-2.4
							c-0.6,0-1.2,0.2-1.5,0.6c-0.3,0.3-0.4,0.7-0.5,0.9h-1.5l0.3-6.6h6.2v1.3h-4.9l-0.2,3.6c0.3-0.3,1-1,2.3-1
							c2.2,0,3.3,1.7,3.3,3.6c0,2.2-1.5,3.8-4,3.8c-1.8,0-3.2-1-3.3-2.9H-920.1z"/>
						<path fill="#FFFFFF" d="M-911.5,21.2c0.9,2.1,1.9,4.8,1.9,7.1c0,1.3-0.3,2.5-0.7,3.7c-0.4,1.4-0.9,2.5-1.1,3.2h-1.1
							c0.3-0.8,0.6-1.9,0.9-3.4c0.3-1.5,0.4-2.5,0.4-3.5c0-2.3-0.6-4.1-1.5-7.1H-911.5z"/>
					</g>
					<g>
						<path fill="#FFFFFF" d="M-905.4,57v1h-2.8v2.4l0,0c0.2-0.4,0.8-0.6,1.3-0.6c1.2,0,1.7,0.9,1.7,2.8c0,1.3-0.2,2.9-2.3,2.9
							c-1.7,0-2.1-0.9-2.1-2.1h1.1c0,0.6,0.3,1.3,1,1.3c1,0,1.1-1,1.1-1.8c0-1.2,0-2.2-1.1-2.2c-0.6,0-0.9,0.4-1,1h-1V57H-905.4z"/>
						<path fill="#FFFFFF" d="M-901.2,65.3h-1.1v-7.1l-1.2,0.8V58c0.3-0.1,1.1-0.7,1.4-1h0.9V65.3z"/>
					</g>
				</g>
			</g>
		</g>
	</g>
</g>
<g id="text" display="none">
	
		<rect id="frontbox" x="-712.5" y="-150" display="inline" fill="none" stroke="#000000" stroke-miterlimit="10" width="1650" height="1275"/>
	<g id="align" display="inline">
	</g>
</g>
<g id="crop" display="none">
	<g id="front" display="inline">
		<g>
			<line fill="none" stroke="#939598" stroke-miterlimit="10" x1="-684.4" y1="0" x2="84.4" y2="0"/>
			<line fill="none" stroke="#939598" stroke-miterlimit="10" x1="-684.4" y1="75" x2="84.4" y2="75"/>
			<line fill="none" stroke="#939598" stroke-miterlimit="10" x1="0" y1="-84.4" x2="0" y2="84.4"/>
			<line fill="none" stroke="#939598" stroke-miterlimit="10" x1="75" y1="-84.4" x2="75" y2="84.4"/>
		</g>
	</g>
</g>
<g id="guides" display="none">
</g>
</svg>
