<?xml version="1.0" encoding="utf-8"?>
<!-- Generator: Adobe Illustrator 26.0.3, SVG Export Plug-In . SVG Version: 6.00 Build 0)  -->
<svg version="1.2" baseProfile="tiny" xmlns="http://www.w3.org/2000/svg" xmlns:xlink="http://www.w3.org/1999/xlink" x="0px"
	 y="0px" viewBox="0 0 75 75" overflow="visible" xml:space="preserve">
<g id="svg">
	<g>
		<g id="cs_layer_CNA_0002_00000023283088047694392320000015410210321053132443_">
			<g id="g169366_00000060018564281457370690000011209304467157080227_">
			</g>
			<g id="BR_BR_5BLKWA_-_153-51_223_00000040560879310937067170000010893998827060489870_" transform="translate(637.5,262.5)">
				<g id="g169992_00000165917035983439331040000016642622643879160452_" transform="translate(-450,-1500)">
					
						<rect id="rect169990_00000096744058649120622690000009353361317623759751_" x="-187.5" y="1237.5" fill="#ED2224" width="75" height="75"/>
				</g>
				<g id="g170009_00000049908170334890637800000005053488490961249960_" transform="translate(229.688,-150)">
					<g>
						<path fill="#FFFFFF" d="M-801.5-92.9v17H-828v-17H-801.5z M-826.6-90.7v12.5l10.4-6.3L-826.6-90.7z M-804.3-91.5h-20.9
							l10.4,6.3L-804.3-91.5z M-825.2-77.3h20.9l-10.4-6.3L-825.2-77.3z M-813.4-84.4l10.4,6.3v-12.5L-813.4-84.4z"/>
					</g>
					<g>
						<path fill="#FFFFFF" d="M-850.5-71.7v1.4h-4.2v3.6l0,0c0.3-0.5,1.1-0.9,2-0.9c1.8,0,2.6,1.3,2.6,4.2c0,2-0.3,4.4-3.4,4.4
							c-2.6,0-3.1-1.4-3.1-3.1h1.7c0,1,0.4,1.9,1.5,1.9c1.6,0,1.7-1.5,1.7-2.8c0-1.8-0.1-3.2-1.6-3.2c-0.9,0-1.4,0.6-1.5,1.5h-1.5
							v-7H-850.5z"/>
						<path fill="#FFFFFF" d="M-847.8-59.2v-13h4.2c1.8,0,2.4,0.6,2.9,1.3c0.5,0.7,0.5,1.5,0.5,1.7c0,1.6-0.6,2.7-2.2,3.1v0.1
							c1.9,0.2,2.7,1.3,2.7,3.1c0,3.3-2.4,3.7-3.9,3.7H-847.8z M-846.1-66.8h2.4c1.3,0,1.9-0.8,1.9-2.1c0-1.1-0.6-2-2-2h-2.3V-66.8z
							 M-846.1-60.7h2.3c1.8,0,2.4-1.3,2.4-2.2c0-2.1-1.3-2.4-3-2.4h-1.8V-60.7z"/>
						<path fill="#FFFFFF" d="M-835.7-59.2h-1.5v-13h1.5V-59.2z"/>
						<path fill="#FFFFFF" d="M-831.7-59.2h-1.5v-13h1.5v7.8h0l2.8-3.9h1.8l-3,3.9l3.6,5.2h-1.9l-3.2-5.1h0V-59.2z"/>
						<path fill="#FFFFFF" d="M-826.3-72.2h1.8l2.4,11.3h0l2.6-11.3h2.1L-815-61h0l2.6-11.3h1.7l-3.4,13h-2l-2.5-11.3h0l-2.6,11.3
							h-2L-826.3-72.2z"/>
						<path fill="#FFFFFF" d="M-805-60.6L-805-60.6c-0.5,1-1.2,1.5-2.3,1.5c-1.9,0-2.5-1.2-2.5-3c0-2.8,2.7-2.9,4.8-2.8
							c0-1.2,0.1-2.5-1.5-2.5c-1,0-1.5,0.7-1.4,1.6h-1.6c0.1-2,1.2-2.7,3.1-2.7c2.3,0,3,1.2,3,2.7v4.4c0,0.7,0.1,1.5,0.2,2.2h-1.6
							V-60.6z M-808.3-62c0,0.9,0.4,1.7,1.4,1.7c0.9,0,2-0.6,1.9-3.5C-806.4-63.8-808.3-63.9-808.3-62z"/>
					</g>
					<g>
						<path fill="#FFFFFF" d="M-817.3-103.2h1v7.2h-1V-103.2z"/>
						<path fill="#FFFFFF" d="M-814.6-103.2h1v7.2h-1V-103.2z"/>
					</g>
					<g>
						<path fill="#FFFFFF" d="M-838-88.6c-0.7,0.6-1.8,1.2-2.6,1.6v-1.6c1-0.5,2.1-1.2,2.7-1.7h1.4v11.1h-1.5V-88.6z"/>
					</g>
					<g>
						<path fill="#FFFFFF" d="M-841.1-47.2h-1.1v-7.1l-1.2,0.8v-1.1c0.3-0.1,1.1-0.7,1.4-1h0.9V-47.2z"/>
						<path fill="#FFFFFF" d="M-834.7-55.5v1h-2.8v2.4l0,0c0.2-0.4,0.8-0.6,1.3-0.6c1.2,0,1.7,0.9,1.7,2.8c0,1.3-0.2,2.9-2.3,2.9
							c-1.7,0-2.1-0.9-2.1-2.1h1.1c0,0.6,0.3,1.3,1,1.3c1,0,1.1-1,1.1-1.8c0-1.2,0-2.2-1.1-2.2c-0.6,0-0.9,0.4-1,1h-1v-4.7H-834.7z"
							/>
						<path fill="#FFFFFF" d="M-831.9-52c1,0.1,1.7-0.3,1.7-1.4c0-0.8-0.3-1.3-1.2-1.3c-0.9,0-1.1,0.7-1,1.4h-1.1
							c-0.1-1.4,0.6-2.3,2.1-2.3c1.4,0,2.3,0.7,2.3,2.2c0,1.6-1.2,1.8-1.6,1.9v0c1.3,0.2,1.7,0.9,1.7,2.1c0,1.6-0.9,2.4-2.5,2.4
							c-2.3,0-2.1-2-2.1-2.5h1.1c0,0.8,0.1,1.5,1.1,1.5c1,0,1.3-0.6,1.3-1.5c0-1.3-0.5-1.6-1.8-1.6V-52z"/>
						<path fill="#FFFFFF" d="M-828.1-46h-0.8l2.8-9.8h0.8L-828.1-46z"/>
						<path fill="#FFFFFF" d="M-820.7-55.5v1h-2.8v2.4l0,0c0.2-0.4,0.8-0.6,1.3-0.6c1.2,0,1.7,0.9,1.7,2.8c0,1.3-0.2,2.9-2.3,2.9
							c-1.7,0-2.1-0.9-2.1-2.1h1.1c0,0.6,0.3,1.3,1,1.3c1,0,1.1-1,1.1-1.8c0-1.2,0-2.2-1.1-2.2c-0.6,0-0.9,0.4-1,1h-1v-4.7H-820.7z"
							/>
						<path fill="#FFFFFF" d="M-816.5-47.2h-1.1v-7.1l-1.2,0.8v-1.1c0.3-0.1,1.1-0.7,1.4-1h0.9V-47.2z"/>
					</g>
				</g>
			</g>
			<g id="BR_BR_5GRNHO_-_150-50_224_00000119106706719738444660000012617698359007929744_" transform="translate(712.5,262.5)">
				<g id="g170014_00000064328017176088699800000014561179661010765954_" transform="translate(-450,-1500)">
					
						<rect id="rect170012_00000010302087337897435010000015858952073681101444_" x="-187.5" y="1237.5" fill="#ED2224" width="75" height="75"/>
				</g>
			</g>
		</g>
	</g>
</g>
<g id="text" display="none">
	
		<rect id="frontbox" x="-637.5" y="-262.5" display="inline" fill="none" stroke="#000000" stroke-miterlimit="10" width="1650" height="1275"/>
	<g id="align" display="inline">
	</g>
</g>
<g id="crop" display="none">
	<g id="front" display="inline">
		<g>
			<line fill="none" stroke="#939598" stroke-miterlimit="10" x1="-609.4" y1="0" x2="159.4" y2="0"/>
			<line fill="none" stroke="#939598" stroke-miterlimit="10" x1="-609.4" y1="75" x2="159.4" y2="75"/>
			<line fill="none" stroke="#939598" stroke-miterlimit="10" x1="0" y1="-9.4" x2="0" y2="159.4"/>
			<line fill="none" stroke="#939598" stroke-miterlimit="10" x1="75" y1="-9.4" x2="75" y2="159.4"/>
		</g>
	</g>
</g>
<g id="guides" display="none">
</g>
</svg>
