<?xml version="1.0" encoding="utf-8"?>
<!-- Generator: Adobe Illustrator 26.0.3, SVG Export Plug-In . SVG Version: 6.00 Build 0)  -->
<svg version="1.2" baseProfile="tiny" xmlns="http://www.w3.org/2000/svg" xmlns:xlink="http://www.w3.org/1999/xlink" x="0px"
	 y="0px" viewBox="0 0 75 75" overflow="visible" xml:space="preserve">
<g id="svg">
	<g>
		<g id="cs_layer_CNA_0002_00000023283088047694392320000015410210321053132443_">
			<g id="g169366_00000060018564281457370690000011209304467157080227_">
			</g>
			<g id="BR_BR_53_FLD_-_NONE_217_00000177447832608852845950000017742478700075553678_" transform="translate(187.5,262.5)">
				<g id="g169860_00000098905159060840053590000008200620481824193171_" transform="translate(-450,-1500)">
					
						<rect id="rect169858_00000156562161552129569330000001783819494426667145_" x="262.5" y="1237.5" fill="#ED2224" width="75" height="75"/>
				</g>
				<g id="g169877_00000038403208496900198650000016788181946075671985_" transform="translate(229.688,-150)">
					<g>
						<path fill="#FFFFFF" d="M-351.5-92.9v17H-378v-17H-351.5z M-353-91.5h-23.6v14.2h23.6V-91.5z M-367.6-84.4
							c0-1.4,1.2-2.6,2.8-2.6c1.5,0,2.8,1.2,2.8,2.6c0,1.4-1.2,2.6-2.8,2.6C-366.3-81.8-367.6-83-367.6-84.4z"/>
					</g>
					<g>
						<path fill="#FFFFFF" d="M-393.3-71.7v1.4h-4.2v3.6l0,0c0.3-0.5,1.1-0.9,2-0.9c1.8,0,2.6,1.3,2.6,4.2c0,2-0.3,4.4-3.4,4.4
							c-2.6,0-3.1-1.4-3.1-3.1h1.7c0,1,0.4,1.9,1.5,1.9c1.6,0,1.7-1.5,1.7-2.8c0-1.8-0.1-3.2-1.6-3.2c-0.9,0-1.4,0.6-1.5,1.5h-1.5
							v-7H-393.3z"/>
						<path fill="#FFFFFF" d="M-389.1-66.5c1.5,0.1,2.6-0.5,2.6-2.1c0-1.1-0.5-2-1.7-2c-1.4,0-1.6,1-1.6,2h-1.7
							c-0.1-2.1,0.9-3.4,3.2-3.4c2.1,0,3.4,1.1,3.4,3.2c0,2.4-1.7,2.7-2.5,2.9v0c2,0.3,2.6,1.3,2.6,3.2c0,2.4-1.3,3.6-3.7,3.6
							c-3.5,0-3.2-3-3.2-3.7h1.7c0,1.2,0.2,2.3,1.7,2.3c1.5,0,1.9-0.9,1.9-2.3c0-2-0.8-2.4-2.7-2.4V-66.5z"/>
						<path fill="#FFFFFF" d="M-378.9-59.2v-13h6.4v1.4h-4.8v4.2h4.5v1.4h-4.5v5.9H-378.9z"/>
						<path fill="#FFFFFF" d="M-369.5-59.2h-1.5v-13h1.5V-59.2z"/>
						<path fill="#FFFFFF" d="M-362.1-72.2h1.5v13h-1.5v-1.1h0c-0.5,0.8-1.1,1.3-2.1,1.3c-1.5,0-2.9-0.6-2.9-4.6
							c0-2.3,0.1-4.9,3-4.9c0.9,0,1.5,0.4,2,1.1h0.1V-72.2z M-363.8-67.3c-1.6,0-1.8,1.3-1.8,3.7c0,1.4,0,3.3,1.9,3.3
							c1.7,0,1.7-2.1,1.7-3.9C-362.1-65.4-362.2-67.3-363.8-67.3z"/>
					</g>
					<g>
						<path fill="#FFFFFF" d="M-368.7-103.2h1v7.2h-1V-103.2z"/>
						<path fill="#FFFFFF" d="M-365.9-103.2h1v7.2h-1V-103.2z"/>
						<path fill="#FFFFFF" d="M-363.2-103.2h1v7.2h-1V-103.2z"/>
					</g>
					<g>
						<path fill="#FFFFFF" d="M-388-88.6c-0.7,0.6-1.8,1.2-2.6,1.6v-1.6c1-0.5,2.1-1.2,2.7-1.7h1.4v11.1h-1.5V-88.6z"/>
					</g>
					<g>
						<path fill="#FFFFFF" d="M-382.9-50.9h2.6v0.9h-2.6V-50.9z"/>
						<path fill="#FFFFFF" d="M-378.9-50.9h2.6v0.9h-2.6V-50.9z"/>
					</g>
				</g>
			</g>
			<g id="BR_BR_57_-_44_218_00000127005359691557731480000015654792100950271658_" transform="translate(262.5,262.5)">
				<g id="g169882_00000070084779960086356390000004276749391184265882_" transform="translate(-450,-1500)">
					
						<rect id="rect169880_00000166656440790909554140000015439634098577647236_" x="262.5" y="1237.5" fill="#ED2224" width="75" height="75"/>
				</g>
			</g>
		</g>
	</g>
</g>
<g id="text" display="none">
	
		<rect id="frontbox" x="-187.5" y="-262.5" display="inline" fill="none" stroke="#000000" stroke-miterlimit="10" width="1650" height="1275"/>
	<g id="align" display="inline">
	</g>
</g>
<g id="crop" display="none">
	<g id="front" display="inline">
		<g>
			<line fill="none" stroke="#939598" stroke-miterlimit="10" x1="-159.4" y1="0" x2="609.4" y2="0"/>
			<line fill="none" stroke="#939598" stroke-miterlimit="10" x1="-159.4" y1="75" x2="609.4" y2="75"/>
			<line fill="none" stroke="#939598" stroke-miterlimit="10" x1="0" y1="-9.4" x2="0" y2="159.4"/>
			<line fill="none" stroke="#939598" stroke-miterlimit="10" x1="75" y1="-9.4" x2="75" y2="159.4"/>
		</g>
	</g>
</g>
<g id="guides" display="none">
</g>
</svg>
