<?xml version="1.0" encoding="utf-8"?>
<!-- Generator: Adobe Illustrator 26.0.3, SVG Export Plug-In . SVG Version: 6.00 Build 0)  -->
<svg version="1.2" baseProfile="tiny" xmlns="http://www.w3.org/2000/svg" xmlns:xlink="http://www.w3.org/1999/xlink" x="0px"
	 y="0px" viewBox="0 0 75 75" overflow="visible" xml:space="preserve">
<g id="svg">
	<g>
		<g id="cs_layer_CNA_0002_00000023283088047694392320000015410210321053132443_">
			<g id="g169366_00000060018564281457370690000011209304467157080227_">
			</g>
			<g id="BR_BR_57_-_44_218_00000127005359691557731480000015654792100950271658_" transform="translate(262.5,262.5)">
				<g id="g169882_00000070084779960086356390000004276749391184265882_" transform="translate(-450,-1500)">
					
						<rect id="rect169880_00000166656440790909554140000015439634098577647236_" x="187.5" y="1237.5" fill="#ED2224" width="75" height="75"/>
				</g>
				<g id="g169899_00000011004969324042840110000003052397409883436962_" transform="translate(229.688,-150)">
					<g>
						<path fill="#FFFFFF" d="M-426.5-92.9v17H-453v-17H-426.5z M-428-91.5h-23.6v14.2h23.6V-91.5z M-442.6-84.4
							c0-1.4,1.2-2.6,2.8-2.6c1.5,0,2.8,1.2,2.8,2.6c0,1.4-1.2,2.6-2.8,2.6C-441.3-81.8-442.6-83-442.6-84.4z"/>
					</g>
					<g>
						<path fill="#FFFFFF" d="M-455.8-71.7v1.4h-4.2v3.6l0,0c0.3-0.5,1.1-0.9,2-0.9c1.8,0,2.6,1.3,2.6,4.2c0,2-0.3,4.4-3.4,4.4
							c-2.6,0-3.1-1.4-3.1-3.1h1.7c0,1,0.4,1.9,1.5,1.9c1.6,0,1.7-1.5,1.7-2.8c0-1.8-0.1-3.2-1.6-3.2c-0.9,0-1.4,0.6-1.5,1.5h-1.5
							v-7H-455.8z"/>
						<path fill="#FFFFFF" d="M-454.2-71.7h6.5v1.4l-3.3,11.1h-1.9l3.5-11.1h-4.8V-71.7z"/>
					</g>
					<g>
						<path fill="#FFFFFF" d="M-443.7-103.2h1v7.2h-1V-103.2z"/>
						<path fill="#FFFFFF" d="M-440.9-103.2h1v7.2h-1V-103.2z"/>
						<path fill="#FFFFFF" d="M-438.2-103.2h1v7.2h-1V-103.2z"/>
					</g>
					<g>
						<path fill="#FFFFFF" d="M-463-88.6c-0.7,0.6-1.8,1.2-2.6,1.6v-1.6c1-0.5,2.1-1.2,2.7-1.7h1.4v11.1h-1.5V-88.6z"/>
					</g>
					<g>
						<path fill="#FFFFFF" d="M-459.6-49.2v-1l2.4-5.3h1.5v5.3h1v1h-1v2h-1v-2H-459.6z M-456.9-50.2v-4.3h0l-1.8,4.3H-456.9z"/>
						<path fill="#FFFFFF" d="M-454.3-49.2v-1l2.4-5.3h1.5v5.3h1v1h-1v2h-1v-2H-454.3z M-451.5-50.2v-4.3h0l-1.8,4.3H-451.5z"/>
					</g>
				</g>
			</g>
			<g id="BR_BR_57_FLD_-_44_219_00000065753520213045571130000012021345997971790243_" transform="translate(337.5,262.5)">
				<g id="g169904_00000090275990383371724460000015882157017329348229_" transform="translate(-450,-1500)">
					
						<rect id="rect169902_00000070091711011913093770000000806488039426194088_" x="187.5" y="1237.5" fill="#ED2224" width="75" height="75"/>
				</g>
			</g>
		</g>
	</g>
</g>
<g id="text" display="none">
	
		<rect id="frontbox" x="-262.5" y="-262.5" display="inline" fill="none" stroke="#000000" stroke-miterlimit="10" width="1650" height="1275"/>
	<g id="align" display="inline">
	</g>
</g>
<g id="crop" display="none">
	<g id="front" display="inline">
		<g>
			<line fill="none" stroke="#939598" stroke-miterlimit="10" x1="-234.4" y1="0" x2="534.4" y2="0"/>
			<line fill="none" stroke="#939598" stroke-miterlimit="10" x1="-234.4" y1="75" x2="534.4" y2="75"/>
			<line fill="none" stroke="#939598" stroke-miterlimit="10" x1="0" y1="-9.4" x2="0" y2="159.4"/>
			<line fill="none" stroke="#939598" stroke-miterlimit="10" x1="75" y1="-9.4" x2="75" y2="159.4"/>
		</g>
	</g>
</g>
<g id="guides" display="none">
</g>
</svg>
