<?xml version="1.0" encoding="utf-8"?>
<!-- Generator: Adobe Illustrator 26.0.3, SVG Export Plug-In . SVG Version: 6.00 Build 0)  -->
<svg version="1.2" baseProfile="tiny" xmlns="http://www.w3.org/2000/svg" xmlns:xlink="http://www.w3.org/1999/xlink" x="0px"
	 y="0px" viewBox="0 0 75 75" overflow="visible" xml:space="preserve">
<g id="svg">
	<g>
		<g id="cs_layer_CNA_0002_00000023283088047694392320000015410210321053132443_">
			<g id="g169366_00000060018564281457370690000011209304467157080227_">
			</g>
			<g id="BR_BR_51_-_NONE_215_00000145044600159517885960000000612924400751958945_" transform="translate(37.5,262.5)">
				<g id="g169814_00000086663424856126057410000010783257161575842239_" transform="translate(-450,-1500)">
					
						<rect id="rect169812_00000067920021495526000440000018045860503929659067_" x="412.5" y="1237.5" fill="#ED2224" width="75" height="75"/>
				</g>
				<g id="g169833_00000079476606235940172100000002166820328718131354_" transform="translate(229.688,-150)">
					
						<rect id="rect169816_00000165233401966206572370000003322785672540602047_" x="-267.2" y="-93.8" fill="#7F1416" width="75" height="18.8"/>
					<g>
						<path fill="#FFFFFF" d="M-201.5-92.9v17H-228v-17H-201.5z M-226.6-90.7v12.5l10.4-6.3L-226.6-90.7z M-204.3-91.5h-20.9
							l10.4,6.3L-204.3-91.5z M-225.2-77.3h20.9l-10.4-6.3L-225.2-77.3z M-213.4-84.4l10.4,6.3v-12.5L-213.4-84.4z"/>
					</g>
					<g>
						<path fill="#FFFFFF" d="M-230.8-71.7v1.4h-4.2v3.6l0,0c0.3-0.5,1.1-0.9,2-0.9c1.8,0,2.6,1.3,2.6,4.2c0,2-0.3,4.4-3.4,4.4
							c-2.6,0-3.1-1.4-3.1-3.1h1.7c0,1,0.4,1.9,1.5,1.9c1.6,0,1.7-1.5,1.7-2.8c0-1.8-0.1-3.2-1.6-3.2c-0.9,0-1.4,0.6-1.5,1.5h-1.5
							v-7H-230.8z"/>
						<path fill="#FFFFFF" d="M-224.5-59.2h-1.7v-10.7l-1.9,1.3v-1.6c0.4-0.2,1.6-1.1,2.1-1.5h1.4V-59.2z"/>
					</g>
					<g>
						<path fill="#FFFFFF" d="M-220.9-103.2l1.9,2.8l1.9-2.8h1.2l-2.6,3.5l2.7,3.8h-1.3l-2.1-3.1l-2.2,3.1h-1.2l2.8-3.8l-2.5-3.4
							H-220.9z"/>
						<path fill="#FFFFFF" d="M-213.7-103.2l1.9,2.8l1.9-2.8h1.2l-2.6,3.5l2.7,3.8h-1.3l-2.1-3.1L-214-96h-1.2l2.8-3.8l-2.5-3.4
							H-213.7z"/>
					</g>
					<g>
						<path fill="#FFFFFF" d="M-238-88.6c-0.7,0.6-1.8,1.2-2.6,1.6v-1.6c1-0.5,2.1-1.2,2.7-1.7h1.4v11.1h-1.5V-88.6z"/>
					</g>
					<g>
						<path fill="#FFFFFF" d="M-232.9-50.9h2.6v0.9h-2.6V-50.9z"/>
						<path fill="#FFFFFF" d="M-228.9-50.9h2.6v0.9h-2.6V-50.9z"/>
					</g>
				</g>
			</g>
			<g id="BR_BR_51_FLD_-_NONE_216_00000164483758748071891640000016043892023951009964_" transform="translate(112.5,262.5)">
				<g id="g169838_00000056395935765857366680000013791408623560916123_" transform="translate(-450,-1500)">
					
						<rect id="rect169836_00000038401906179658497260000006888377834017439138_" x="412.5" y="1237.5" fill="#ED2224" width="75" height="75"/>
				</g>
			</g>
		</g>
	</g>
</g>
<g id="text" display="none">
	
		<rect id="frontbox" x="-37.5" y="-262.5" display="inline" fill="none" stroke="#000000" stroke-miterlimit="10" width="1650" height="1275"/>
	<g id="align" display="inline">
	</g>
</g>
<g id="crop" display="none">
	<g id="front" display="inline">
		<g>
			<line fill="none" stroke="#939598" stroke-miterlimit="10" x1="-9.4" y1="0" x2="759.4" y2="0"/>
			<line fill="none" stroke="#939598" stroke-miterlimit="10" x1="-9.4" y1="75" x2="759.4" y2="75"/>
			<line fill="none" stroke="#939598" stroke-miterlimit="10" x1="0" y1="-9.4" x2="0" y2="159.4"/>
			<line fill="none" stroke="#939598" stroke-miterlimit="10" x1="75" y1="-9.4" x2="75" y2="159.4"/>
		</g>
	</g>
</g>
<g id="guides" display="none">
</g>
</svg>
