<?xml version="1.0" encoding="utf-8"?>
<!-- Generator: Adobe Illustrator 26.0.3, SVG Export Plug-In . SVG Version: 6.00 Build 0)  -->
<svg version="1.2" baseProfile="tiny" xmlns="http://www.w3.org/2000/svg" xmlns:xlink="http://www.w3.org/1999/xlink" x="0px"
	 y="0px" viewBox="0 0 75 75" overflow="visible" xml:space="preserve">
<g id="svg">
	<g>
		<g id="cs_layer_CNA_0002_00000023283088047694392320000015410210321053132443_">
			<g id="g169366_00000060018564281457370690000011209304467157080227_">
			</g>
			<g id="BR_BR_57_HAA_-_NONE_220_00000089545089075732135220000007901700007762499239_" transform="translate(412.5,262.5)">
				<g id="g169926_00000150803604847853676970000009094097170835745445_" transform="translate(-450,-1500)">
					
						<rect id="rect169924_00000113355293870201425610000015042914148122137497_" x="37.5" y="1237.5" fill="#ED2224" width="75" height="75"/>
				</g>
				<g id="g169943_00000093895148442390837420000003296179752846858633_" transform="translate(229.688,-150)">
					<g>
						<path fill="#FFFFFF" d="M-576.5-92.9v17H-603v-17H-576.5z M-601.6-91.5v13.1l10.9-13.1H-601.6z M-600.7-77.3h21.8l-3.8-4.6
							h-14.2L-600.7-77.3z M-578-91.5h-10.9l10.9,13.1V-91.5z"/>
					</g>
					<g>
						<path fill="#FFFFFF" d="M-624.3-71.7v1.4h-4.2v3.6l0,0c0.3-0.5,1.1-0.9,2-0.9c1.8,0,2.6,1.3,2.6,4.2c0,2-0.3,4.4-3.4,4.4
							c-2.6,0-3.1-1.4-3.1-3.1h1.7c0,1,0.4,1.9,1.5,1.9c1.6,0,1.7-1.5,1.7-2.8c0-1.8-0.1-3.2-1.6-3.2c-0.9,0-1.4,0.6-1.5,1.5h-1.5
							v-7H-624.3z"/>
						<path fill="#FFFFFF" d="M-622.6-71.7h6.5v1.4l-3.3,11.1h-1.9l3.5-11.1h-4.8V-71.7z"/>
						<path fill="#FFFFFF" d="M-609.6-59.2v-13h1.7v5.6h4.6v-5.6h1.7v13h-1.7v-5.9h-4.6v5.9H-609.6z"/>
						<path fill="#FFFFFF" d="M-595.8-72.2h2.1l4.2,13h-1.9l-0.9-3.1h-5l-1,3.1h-1.7L-595.8-72.2z M-594.8-70.7L-594.8-70.7
							l-2.1,6.9h4.2L-594.8-70.7z"/>
						<path fill="#FFFFFF" d="M-584.8-72.2h2.1l4.2,13h-1.9l-0.9-3.1h-5l-1,3.1h-1.7L-584.8-72.2z M-583.8-70.7L-583.8-70.7
							l-2.1,6.9h4.2L-583.8-70.7z"/>
					</g>
					<g>
						<path fill="#FFFFFF" d="M-593.7-103.2h1v7.2h-1V-103.2z"/>
						<path fill="#FFFFFF" d="M-590.9-103.2h1v7.2h-1V-103.2z"/>
						<path fill="#FFFFFF" d="M-588.2-103.2h1v7.2h-1V-103.2z"/>
					</g>
					<g>
						<path fill="#FFFFFF" d="M-613-88.6c-0.7,0.6-1.8,1.2-2.6,1.6v-1.6c1-0.5,2.1-1.2,2.7-1.7h1.4v11.1h-1.5V-88.6z"/>
					</g>
					<g>
						<path fill="#FFFFFF" d="M-607.9-50.9h2.6v0.9h-2.6V-50.9z"/>
						<path fill="#FFFFFF" d="M-603.9-50.9h2.6v0.9h-2.6V-50.9z"/>
					</g>
				</g>
			</g>
			<g id="BR_BR_57_LAA_-_NONE_221_00000112630682464456284180000004688977022527297716_" transform="translate(487.5,262.5)">
				<g id="g169948_00000051350197205933229810000010985270240594907051_" transform="translate(-450,-1500)">
					
						<rect id="rect169946_00000178918336916561910760000000119988739133825665_" x="37.5" y="1237.5" fill="#ED2224" width="75" height="75"/>
				</g>
			</g>
		</g>
	</g>
</g>
<g id="text" display="none">
	
		<rect id="frontbox" x="-412.5" y="-262.5" display="inline" fill="none" stroke="#000000" stroke-miterlimit="10" width="1650" height="1275"/>
	<g id="align" display="inline">
	</g>
</g>
<g id="crop" display="none">
	<g id="front" display="inline">
		<g>
			<line fill="none" stroke="#939598" stroke-miterlimit="10" x1="-384.4" y1="0" x2="384.4" y2="0"/>
			<line fill="none" stroke="#939598" stroke-miterlimit="10" x1="-384.4" y1="75" x2="384.4" y2="75"/>
			<line fill="none" stroke="#939598" stroke-miterlimit="10" x1="0" y1="-9.4" x2="0" y2="159.4"/>
			<line fill="none" stroke="#939598" stroke-miterlimit="10" x1="75" y1="-9.4" x2="75" y2="159.4"/>
		</g>
	</g>
</g>
<g id="guides" display="none">
</g>
</svg>
