<?xml version="1.0" encoding="utf-8"?>
<!-- Generator: Adobe Illustrator 26.0.3, SVG Export Plug-In . SVG Version: 6.00 Build 0)  -->
<svg version="1.2" baseProfile="tiny" xmlns="http://www.w3.org/2000/svg" xmlns:xlink="http://www.w3.org/1999/xlink" x="0px"
	 y="0px" viewBox="0 0 75 75" overflow="visible" xml:space="preserve">
<g id="svg">
	<g>
		<g id="cs_layer_CNA_0002_00000023283088047694392320000015410210321053132443_">
			<g id="g169366_00000060018564281457370690000011209304467157080227_">
			</g>
			<g id="BR_BR_58_FLD_-_44_222_00000078749979147278538000000014591417450426790792_" transform="translate(562.5,262.5)">
				<g id="g169970_00000139260644931635252850000013375116611998282112_" transform="translate(-450,-1500)">
					
						<rect id="rect169968_00000077321563133786768040000002032736796287586955_" x="-112.5" y="1237.5" fill="#ED2224" width="75" height="75"/>
				</g>
				<g id="g169987_00000150070174168695855210000012745179151560075942_" transform="translate(229.688,-150)">
					<g>
						<path fill="#FFFFFF" d="M-726.5-92.9v17H-753v-17H-726.5z M-728-91.5h-23.6v14.2h23.6V-91.5z M-742.6-84.4
							c0-1.4,1.2-2.6,2.8-2.6s2.8,1.2,2.8,2.6c0,1.4-1.2,2.6-2.8,2.6S-742.6-83-742.6-84.4z"/>
					</g>
					<g>
						<path fill="#FFFFFF" d="M-768.3-71.7v1.4h-4.2v3.6l0,0c0.3-0.5,1.1-0.9,2-0.9c1.8,0,2.6,1.3,2.6,4.2c0,2-0.3,4.4-3.4,4.4
							c-2.6,0-3.1-1.4-3.1-3.1h1.7c0,1,0.4,1.9,1.5,1.9c1.6,0,1.7-1.5,1.7-2.8c0-1.8-0.1-3.2-1.6-3.2c-0.9,0-1.4,0.6-1.5,1.5h-1.5
							v-7H-768.3z"/>
						<path fill="#FFFFFF" d="M-762.2-65.9c1.8,0.2,2.3,1.6,2.3,3.2c0,2.3-1.2,3.6-3.3,3.6s-3.3-1.4-3.3-3.6c0-1.6,0.5-3.1,2.3-3.2
							v0c-1.5-0.3-2.2-1.5-2.2-2.9c0-2,1.2-3.1,3.2-3.1c2,0,3.2,1.2,3.2,3.1C-760-67.4-760.7-66.2-762.2-65.9L-762.2-65.9z
							 M-761.5-62.6c0-1.1-0.1-2.6-1.7-2.6c-1.5,0-1.7,1.4-1.7,2.6c0,1.1,0.4,2.2,1.7,2.2C-761.9-60.4-761.5-61.5-761.5-62.6z
							 M-761.6-68.9c0-0.9-0.5-1.9-1.5-1.9c-1.1,0-1.5,0.9-1.5,1.9c0,0.9,0.3,2.3,1.5,2.3C-761.9-66.6-761.6-67.9-761.6-68.9z"/>
						<path fill="#FFFFFF" d="M-753.9-59.2v-13h6.4v1.4h-4.8v4.2h4.5v1.4h-4.5v5.9H-753.9z"/>
						<path fill="#FFFFFF" d="M-744.5-59.2h-1.5v-13h1.5V-59.2z"/>
						<path fill="#FFFFFF" d="M-737.1-72.2h1.5v13h-1.5v-1.1h0c-0.5,0.8-1.1,1.3-2.1,1.3c-1.5,0-2.9-0.6-2.9-4.6
							c0-2.3,0.1-4.9,3-4.9c0.9,0,1.5,0.4,2,1.1h0.1V-72.2z M-738.8-67.3c-1.6,0-1.8,1.3-1.8,3.7c0,1.4,0,3.3,1.9,3.3
							c1.7,0,1.7-2.1,1.7-3.9C-737.1-65.4-737.2-67.3-738.8-67.3z"/>
					</g>
					<g>
						<path fill="#FFFFFF" d="M-743.7-103.2h1v7.2h-1V-103.2z"/>
						<path fill="#FFFFFF" d="M-740.9-103.2h1v7.2h-1V-103.2z"/>
						<path fill="#FFFFFF" d="M-738.2-103.2h1v7.2h-1V-103.2z"/>
					</g>
					<g>
						<path fill="#FFFFFF" d="M-763-88.6c-0.7,0.6-1.8,1.2-2.6,1.6v-1.6c1-0.5,2.1-1.2,2.7-1.7h1.4v11.1h-1.5V-88.6z"/>
					</g>
					<g>
						<path fill="#FFFFFF" d="M-759.6-49.2v-1l2.4-5.3h1.5v5.3h1v1h-1v2h-1v-2H-759.6z M-756.9-50.2v-4.3h0l-1.8,4.3H-756.9z"/>
						<path fill="#FFFFFF" d="M-754.3-49.2v-1l2.4-5.3h1.5v5.3h1v1h-1v2h-1v-2H-754.3z M-751.5-50.2v-4.3h0l-1.8,4.3H-751.5z"/>
					</g>
				</g>
			</g>
			<g id="BR_BR_5BLKWA_-_153-51_223_00000040560879310937067170000010893998827060489870_" transform="translate(637.5,262.5)">
				<g id="g169992_00000165917035983439331040000016642622643879160452_" transform="translate(-450,-1500)">
					
						<rect id="rect169990_00000096744058649120622690000009353361317623759751_" x="-112.5" y="1237.5" fill="#ED2224" width="75" height="75"/>
				</g>
			</g>
		</g>
	</g>
</g>
<g id="text" display="none">
	
		<rect id="frontbox" x="-562.5" y="-262.5" display="inline" fill="none" stroke="#000000" stroke-miterlimit="10" width="1650" height="1275"/>
	<g id="align" display="inline">
	</g>
</g>
<g id="crop" display="none">
	<g id="front" display="inline">
		<g>
			<line fill="none" stroke="#939598" stroke-miterlimit="10" x1="-534.4" y1="0" x2="234.4" y2="0"/>
			<line fill="none" stroke="#939598" stroke-miterlimit="10" x1="-534.4" y1="75" x2="234.4" y2="75"/>
			<line fill="none" stroke="#939598" stroke-miterlimit="10" x1="0" y1="-9.4" x2="0" y2="159.4"/>
			<line fill="none" stroke="#939598" stroke-miterlimit="10" x1="75" y1="-9.4" x2="75" y2="159.4"/>
		</g>
	</g>
</g>
<g id="guides" display="none">
</g>
</svg>
