<?xml version="1.0" encoding="utf-8"?>
<!-- Generator: Adobe Illustrator 26.0.3, SVG Export Plug-In . SVG Version: 6.00 Build 0)  -->
<svg version="1.2" baseProfile="tiny" xmlns="http://www.w3.org/2000/svg" xmlns:xlink="http://www.w3.org/1999/xlink" x="0px"
	 y="0px" viewBox="0 0 75 75" overflow="visible" xml:space="preserve">
<g id="svg">
	<g>
		<g id="cs_layer_CNA_0002_00000023283088047694392320000015410210321053132443_">
			<g id="g169366_00000060018564281457370690000011209304467157080227_">
			</g>
			<g id="BR_BR_57_FLD_-_44_219_00000065753520213045571130000012021345997971790243_" transform="translate(337.5,262.5)">
				<g id="g169904_00000090275990383371724460000015882157017329348229_" transform="translate(-450,-1500)">
					
						<rect id="rect169902_00000070091711011913093770000000806488039426194088_" x="112.5" y="1237.5" fill="#ED2224" width="75" height="75"/>
				</g>
				<g id="g169921_00000115477561595714751150000004391389476626590867_" transform="translate(229.688,-150)">
					<g>
						<path fill="#FFFFFF" d="M-501.5-92.9v17H-528v-17H-501.5z M-503-91.5h-23.6v14.2h23.6V-91.5z M-517.6-84.4
							c0-1.4,1.2-2.6,2.8-2.6c1.5,0,2.8,1.2,2.8,2.6c0,1.4-1.2,2.6-2.8,2.6C-516.3-81.8-517.6-83-517.6-84.4z"/>
					</g>
					<g>
						<path fill="#FFFFFF" d="M-543.3-71.7v1.4h-4.2v3.6l0,0c0.3-0.5,1.1-0.9,2-0.9c1.8,0,2.6,1.3,2.6,4.2c0,2-0.3,4.4-3.4,4.4
							c-2.6,0-3.1-1.4-3.1-3.1h1.7c0,1,0.4,1.9,1.5,1.9c1.6,0,1.7-1.5,1.7-2.8c0-1.8-0.1-3.2-1.6-3.2c-0.9,0-1.4,0.6-1.5,1.5h-1.5
							v-7H-543.3z"/>
						<path fill="#FFFFFF" d="M-541.6-71.7h6.5v1.4l-3.3,11.1h-1.9l3.5-11.1h-4.8V-71.7z"/>
						<path fill="#FFFFFF" d="M-528.9-59.2v-13h6.4v1.4h-4.8v4.2h4.5v1.4h-4.5v5.9H-528.9z"/>
						<path fill="#FFFFFF" d="M-519.5-59.2h-1.5v-13h1.5V-59.2z"/>
						<path fill="#FFFFFF" d="M-512.1-72.2h1.5v13h-1.5v-1.1h0c-0.5,0.8-1.1,1.3-2.1,1.3c-1.5,0-2.9-0.6-2.9-4.6
							c0-2.3,0.1-4.9,3-4.9c0.9,0,1.5,0.4,2,1.1h0.1V-72.2z M-513.8-67.3c-1.6,0-1.8,1.3-1.8,3.7c0,1.4,0,3.3,1.9,3.3
							c1.7,0,1.7-2.1,1.7-3.9C-512.1-65.4-512.2-67.3-513.8-67.3z"/>
					</g>
					<g>
						<path fill="#FFFFFF" d="M-518.7-103.2h1v7.2h-1V-103.2z"/>
						<path fill="#FFFFFF" d="M-515.9-103.2h1v7.2h-1V-103.2z"/>
						<path fill="#FFFFFF" d="M-513.2-103.2h1v7.2h-1V-103.2z"/>
					</g>
					<g>
						<path fill="#FFFFFF" d="M-538-88.6c-0.7,0.6-1.8,1.2-2.6,1.6v-1.6c1-0.5,2.1-1.2,2.7-1.7h1.4v11.1h-1.5V-88.6z"/>
					</g>
					<g>
						<path fill="#FFFFFF" d="M-534.6-49.2v-1l2.4-5.3h1.5v5.3h1v1h-1v2h-1v-2H-534.6z M-531.9-50.2v-4.3h0l-1.8,4.3H-531.9z"/>
						<path fill="#FFFFFF" d="M-529.3-49.2v-1l2.4-5.3h1.5v5.3h1v1h-1v2h-1v-2H-529.3z M-526.5-50.2v-4.3h0l-1.8,4.3H-526.5z"/>
					</g>
				</g>
			</g>
			<g id="BR_BR_57_HAA_-_NONE_220_00000089545089075732135220000007901700007762499239_" transform="translate(412.5,262.5)">
				<g id="g169926_00000150803604847853676970000009094097170835745445_" transform="translate(-450,-1500)">
					
						<rect id="rect169924_00000113355293870201425610000015042914148122137497_" x="112.5" y="1237.5" fill="#ED2224" width="75" height="75"/>
				</g>
			</g>
		</g>
	</g>
</g>
<g id="text" display="none">
	
		<rect id="frontbox" x="-337.5" y="-262.5" display="inline" fill="none" stroke="#000000" stroke-miterlimit="10" width="1650" height="1275"/>
	<g id="align" display="inline">
	</g>
</g>
<g id="crop" display="none">
	<g id="front" display="inline">
		<g>
			<line fill="none" stroke="#939598" stroke-miterlimit="10" x1="-309.4" y1="0" x2="459.4" y2="0"/>
			<line fill="none" stroke="#939598" stroke-miterlimit="10" x1="-309.4" y1="75" x2="459.4" y2="75"/>
			<line fill="none" stroke="#939598" stroke-miterlimit="10" x1="0" y1="-9.4" x2="0" y2="159.4"/>
			<line fill="none" stroke="#939598" stroke-miterlimit="10" x1="75" y1="-9.4" x2="75" y2="159.4"/>
		</g>
	</g>
</g>
<g id="guides" display="none">
</g>
</svg>
