<?xml version="1.0" encoding="utf-8"?>
<!-- Generator: Adobe Illustrator 26.0.3, SVG Export Plug-In . SVG Version: 6.00 Build 0)  -->
<svg version="1.2" baseProfile="tiny" xmlns="http://www.w3.org/2000/svg" xmlns:xlink="http://www.w3.org/1999/xlink" x="0px"
	 y="0px" viewBox="0 0 75 75" overflow="visible" xml:space="preserve">
<g id="svg">
	<g>
		<g id="cs_layer_CNA_0002_00000023283088047694392320000015410210321053132443_">
			<g id="g169366_00000060018564281457370690000011209304467157080227_">
			</g>
			<g id="BR_BR_57_LAA_-_NONE_221_00000112630682464456284180000004688977022527297716_" transform="translate(487.5,262.5)">
				<g id="g169948_00000051350197205933229810000010985270240594907051_" transform="translate(-450,-1500)">
					
						<rect id="rect169946_00000178918336916561910760000000119988739133825665_" x="-37.5" y="1237.5" fill="#ED2224" width="75" height="75"/>
				</g>
				<g id="g169965_00000111879212064411059850000016618592521552513162_" transform="translate(229.688,-150)">
					<g>
						<path fill="#FFFFFF" d="M-651.5-92.9v17H-678v-17H-651.5z M-676.6-91.5v13.1l10.9-13.1H-676.6z M-675.7-77.3h21.8l-3.8-4.6
							h-14.2L-675.7-77.3z M-670.7-83.3h11.8l-5.9-7.1L-670.7-83.3z M-653-91.5h-10.9l10.9,13.1V-91.5z"/>
					</g>
					<g>
						<path fill="#FFFFFF" d="M-697.8-71.7v1.4h-4.2v3.6l0,0c0.3-0.5,1.1-0.9,2-0.9c1.8,0,2.6,1.3,2.6,4.2c0,2-0.3,4.4-3.4,4.4
							c-2.6,0-3.1-1.4-3.1-3.1h1.7c0,1,0.4,1.9,1.5,1.9c1.6,0,1.7-1.5,1.7-2.8c0-1.8-0.1-3.2-1.6-3.2c-0.9,0-1.4,0.6-1.5,1.5h-1.5
							v-7H-697.8z"/>
						<path fill="#FFFFFF" d="M-696.1-71.7h6.5v1.4l-3.3,11.1h-1.9l3.5-11.1h-4.8V-71.7z"/>
						<path fill="#FFFFFF" d="M-683.2-59.2v-13h1.7v11.6h4.8v1.4H-683.2z"/>
						<path fill="#FFFFFF" d="M-672.3-72.2h2.1l4.2,13h-1.9l-0.9-3.1h-5l-1,3.1h-1.7L-672.3-72.2z M-671.3-70.7L-671.3-70.7
							l-2.1,6.9h4.2L-671.3-70.7z"/>
						<path fill="#FFFFFF" d="M-661.3-72.2h2.1l4.2,13h-1.9l-0.9-3.1h-5l-1,3.1h-1.7L-661.3-72.2z M-660.3-70.7L-660.3-70.7
							l-2.1,6.9h4.2L-660.3-70.7z"/>
					</g>
					<g>
						<path fill="#FFFFFF" d="M-668.7-103.2h1v7.2h-1V-103.2z"/>
						<path fill="#FFFFFF" d="M-665.9-103.2h1v7.2h-1V-103.2z"/>
						<path fill="#FFFFFF" d="M-663.2-103.2h1v7.2h-1V-103.2z"/>
					</g>
					<g>
						<path fill="#FFFFFF" d="M-688-88.6c-0.7,0.6-1.8,1.2-2.6,1.6v-1.6c1-0.5,2.1-1.2,2.7-1.7h1.4v11.1h-1.5V-88.6z"/>
					</g>
					<g>
						<path fill="#FFFFFF" d="M-682.9-50.9h2.6v0.9h-2.6V-50.9z"/>
						<path fill="#FFFFFF" d="M-678.9-50.9h2.6v0.9h-2.6V-50.9z"/>
					</g>
				</g>
			</g>
			<g id="BR_BR_58_FLD_-_44_222_00000078749979147278538000000014591417450426790792_" transform="translate(562.5,262.5)">
				<g id="g169970_00000139260644931635252850000013375116611998282112_" transform="translate(-450,-1500)">
					
						<rect id="rect169968_00000077321563133786768040000002032736796287586955_" x="-37.5" y="1237.5" fill="#ED2224" width="75" height="75"/>
				</g>
			</g>
		</g>
	</g>
</g>
<g id="text" display="none">
	
		<rect id="frontbox" x="-487.5" y="-262.5" display="inline" fill="none" stroke="#000000" stroke-miterlimit="10" width="1650" height="1275"/>
	<g id="align" display="inline">
	</g>
</g>
<g id="crop" display="none">
	<g id="front" display="inline">
		<g>
			<line fill="none" stroke="#939598" stroke-miterlimit="10" x1="-459.4" y1="0" x2="309.4" y2="0"/>
			<line fill="none" stroke="#939598" stroke-miterlimit="10" x1="-459.4" y1="75" x2="309.4" y2="75"/>
			<line fill="none" stroke="#939598" stroke-miterlimit="10" x1="0" y1="-9.4" x2="0" y2="159.4"/>
			<line fill="none" stroke="#939598" stroke-miterlimit="10" x1="75" y1="-9.4" x2="75" y2="159.4"/>
		</g>
	</g>
</g>
<g id="guides" display="none">
</g>
</svg>
