<?xml version="1.0" encoding="utf-8"?>
<!-- Generator: Adobe Illustrator 26.0.3, SVG Export Plug-In . SVG Version: 6.00 Build 0)  -->
<svg version="1.2" baseProfile="tiny" xmlns="http://www.w3.org/2000/svg" xmlns:xlink="http://www.w3.org/1999/xlink" x="0px"
	 y="0px" viewBox="0 0 75 75" overflow="visible" xml:space="preserve">
<g id="svg">
	<g>
		<g id="cs_layer_CNA_0002_00000023283088047694392320000015410210321053132443_">
			<g id="g169366_00000060018564281457370690000011209304467157080227_">
			</g>
			<g id="BR_BR_61_LAA_-_1SPT-1_233_00000072251810704200599560000010650060060154968220_" transform="translate(637.5,337.5)">
				<g id="g170212_00000090985561847847006410000014943308122085911196_" transform="translate(-450,-1500)">
					
						<rect id="rect170210_00000170255151686670586410000007767144571633053363_" x="-187.5" y="1162.5" fill="#ED2224" width="75" height="75"/>
				</g>
				<g id="g170229_00000124138098251856581630000000423838733276582040_" transform="translate(229.688,-150)">
					<g>
						<path fill="#FFFFFF" d="M-801.5-167.9v17H-828v-17H-801.5z M-826.6-166.5v13.1l10.9-13.1H-826.6z M-825.7-152.3h21.8l-3.8-4.6
							h-14.2L-825.7-152.3z M-820.7-158.3h11.8l-5.9-7.1L-820.7-158.3z M-803-166.5h-10.9l10.9,13.1V-166.5z"/>
					</g>
					<g>
						<path fill="#FFFFFF" d="M-854-140.4c0-3.4-0.1-6.5,3.4-6.5c1.9,0,3.2,1.2,3.1,3h-1.7c0-0.9-0.5-1.8-1.5-1.8
							c-1.4,0-1.7,1.2-1.7,4.5h0c0.4-0.7,1.2-1.2,2-1.2c1.6,0,3,0.9,3,4.2c0,2.2-0.9,4.2-3.3,4.2C-854-134-854-137.2-854-140.4z
							 M-850.6-135.4c1.3,0,1.6-1.5,1.6-3.1c0-1.1-0.3-2.5-1.7-2.5c-1.5,0-1.7,1.6-1.7,2.7C-852.3-137.1-852.2-135.4-850.6-135.4z"
							/>
						<path fill="#FFFFFF" d="M-841.5-134.2h-1.7v-10.7l-1.9,1.3v-1.6c0.4-0.2,1.6-1.1,2.1-1.5h1.4V-134.2z"/>
						<path fill="#FFFFFF" d="M-833.2-134.2v-13h1.7v11.6h4.8v1.4H-833.2z"/>
						<path fill="#FFFFFF" d="M-822.3-147.2h2.1l4.2,13h-1.9l-0.9-3.1h-5l-1,3.1h-1.7L-822.3-147.2z M-821.3-145.7L-821.3-145.7
							l-2.1,6.9h4.2L-821.3-145.7z"/>
						<path fill="#FFFFFF" d="M-811.3-147.2h2.1l4.2,13h-1.9l-0.9-3.1h-5l-1,3.1h-1.7L-811.3-147.2z M-810.3-145.7L-810.3-145.7
							l-2.1,6.9h4.2L-810.3-145.7z"/>
					</g>
					<g>
						<path fill="#FFFFFF" d="M-817.3-178.2h1v7.2h-1V-178.2z"/>
						<path fill="#FFFFFF" d="M-814.6-178.2h1v7.2h-1V-178.2z"/>
					</g>
					<g>
						<path fill="#FFFFFF" d="M-838-163.6c-0.7,0.6-1.8,1.2-2.6,1.6v-1.6c1-0.5,2.1-1.2,2.7-1.7h1.4v11.1h-1.5V-163.6z"/>
					</g>
					<g>
						<path fill="#FFFFFF" d="M-841.2-122.2h-1.1v-7.1l-1.2,0.8v-1.1c0.3-0.1,1.1-0.7,1.4-1h0.9V-122.2z"/>
						<path fill="#FFFFFF" d="M-837.5-124.8v0.3c0,1.2,0.7,1.5,1.5,1.5c0.9,0,1.5-0.4,1.5-1.4c0-1.9-3.9-1.7-3.9-4.3
							c0-1.5,1.1-2.4,2.5-2.4c1.6,0,2.5,0.8,2.4,2.5h-1.2c0-0.9-0.3-1.6-1.3-1.6c-0.7,0-1.3,0.3-1.3,1.3c0,1.9,3.9,1.6,3.9,4.4
							c0,1.8-1.3,2.4-2.7,2.4c-2.6,0-2.6-1.9-2.5-2.8H-837.5z"/>
						<path fill="#FFFFFF" d="M-830.7-127.5L-830.7-127.5c0.4-0.6,0.8-0.8,1.4-0.8c1,0,2,0.4,2,3c0,1.5,0,3.2-2,3.2
							c-0.6,0-1-0.3-1.3-0.7h0v2.9h-1v-8.3h1V-127.5z M-828.4-125.3c0-0.9,0-2.2-1.2-2.2c-1.2,0-1.1,1.7-1.1,2.6
							c0,0.8,0,2.1,1.1,2.1C-828.5-122.9-828.4-123.7-828.4-125.3z"/>
						<path fill="#FFFFFF" d="M-825.6-128.2v-1.2l1-0.4v1.6h1.3v0.7h-1.3v3.7c0,0.4,0,0.9,0.9,0.9c0.1,0,0.2,0,0.4,0v0.8
							c-0.3,0-0.6,0.1-1,0.1c-0.9,0-1.4-0.4-1.4-1.1v-4.3h-1v-0.7H-825.6z"/>
						<path fill="#FFFFFF" d="M-822.8-121h-0.8l2.8-9.8h0.8L-822.8-121z"/>
						<path fill="#FFFFFF" d="M-816.5-122.2h-1.1v-7.1l-1.2,0.8v-1.1c0.3-0.1,1.1-0.7,1.4-1h0.9V-122.2z"/>
					</g>
				</g>
			</g>
			<g id="BR_BR_64_MED_-_NONE_234_00000088832614099086272590000016576592399463766423_" transform="translate(712.5,337.5)">
				<g id="g170234_00000008857328648626455420000009878147476260155531_" transform="translate(-450,-1500)">
					
						<rect id="rect170232_00000118378410915154387520000012887078483120897676_" x="-187.5" y="1162.5" fill="#ED2224" width="75" height="75"/>
				</g>
			</g>
		</g>
	</g>
</g>
<g id="text" display="none">
	
		<rect id="frontbox" x="-637.5" y="-337.5" display="inline" fill="none" stroke="#000000" stroke-miterlimit="10" width="1650" height="1275"/>
	<g id="align" display="inline">
	</g>
</g>
<g id="crop" display="none">
	<g id="front" display="inline">
		<g>
			<line fill="none" stroke="#939598" stroke-miterlimit="10" x1="-609.4" y1="0" x2="159.4" y2="0"/>
			<line fill="none" stroke="#939598" stroke-miterlimit="10" x1="-609.4" y1="75" x2="159.4" y2="75"/>
			<line fill="none" stroke="#939598" stroke-miterlimit="10" x1="0" y1="-84.4" x2="0" y2="84.4"/>
			<line fill="none" stroke="#939598" stroke-miterlimit="10" x1="75" y1="-84.4" x2="75" y2="84.4"/>
		</g>
	</g>
</g>
<g id="guides" display="none">
</g>
</svg>
