<?xml version="1.0" encoding="utf-8"?>
<!-- Generator: Adobe Illustrator 26.0.3, SVG Export Plug-In . SVG Version: 6.00 Build 0)  -->
<svg version="1.2" baseProfile="tiny" xmlns="http://www.w3.org/2000/svg" xmlns:xlink="http://www.w3.org/1999/xlink" x="0px"
	 y="0px" viewBox="0 0 75 75" overflow="visible" xml:space="preserve">
<g id="svg">
	<g>
		<g id="cs_layer_CNA_0002_00000023283088047694392320000015410210321053132443_">
			<g id="g169366_00000060018564281457370690000011209304467157080227_">
			</g>
			<g id="BR_BR_5RSSX_-_133-44_225_00000041295634771108592620000017688132635568710324_" transform="translate(37.5,337.5)">
				<g id="g170036_00000169552549615444903830000013398777539427515287_" transform="translate(-450,-1500)">
					
						<rect id="rect170034_00000129898694585134130590000003857785999325222789_" x="412.5" y="1162.5" fill="#ED2224" width="75" height="75"/>
				</g>
				<g id="g170053_00000034776626408144613630000007012269773198511797_" transform="translate(229.688,-150)">
					<g>
						<path fill="#FFFFFF" d="M-201.5-167.9v17H-228v-17H-201.5z M-226.6-165.7v12.5l10.4-6.3L-226.6-165.7z M-204.3-166.5h-20.9
							l10.4,6.3L-204.3-166.5z M-225.2-152.3h20.9l-10.4-6.3L-225.2-152.3z M-213.4-159.4l10.4,6.3v-12.5L-213.4-159.4z"/>
					</g>
					<g>
						<path fill="#FFFFFF" d="M-244.8-146.7v1.4h-4.2v3.6l0,0c0.3-0.5,1.1-0.9,2-0.9c1.8,0,2.6,1.3,2.6,4.2c0,2-0.3,4.4-3.4,4.4
							c-2.6,0-3.1-1.4-3.1-3.1h1.7c0,1,0.4,1.9,1.5,1.9c1.6,0,1.7-1.5,1.7-2.8c0-1.8-0.1-3.2-1.6-3.2c-0.9,0-1.4,0.6-1.5,1.5h-1.5
							v-7H-244.8z"/>
						<path fill="#FFFFFF" d="M-240.6-140.2v6h-1.7v-13h4.5c2.3,0,3.1,1.6,3.1,3.2c0,1.5-0.8,2.7-2.4,3v0c1.5,0.2,2,0.7,2.1,3.3
							c0,0.6,0.2,2.6,0.5,3.4h-1.7c-0.5-0.9-0.4-2.6-0.5-4.3c-0.1-1.6-1.4-1.7-2-1.7H-240.6z M-240.6-141.7h2.5c1.2,0,1.8-1,1.8-2.2
							c0-0.9-0.5-2-1.7-2h-2.5V-141.7z"/>
						<path fill="#FFFFFF" d="M-231-138.1v0.4c0,1.8,1.1,2.3,2.2,2.3c1.3,0,2.3-0.6,2.3-2.1c0-2.9-5.8-2.6-5.8-6.5
							c0-2.3,1.6-3.5,3.8-3.5c2.4,0,3.7,1.2,3.6,3.8h-1.7c0-1.4-0.4-2.4-2-2.4c-1,0-2,0.5-2,1.9c0,2.9,5.8,2.4,5.8,6.6
							c0,2.7-1.9,3.6-4,3.6c-3.8,0-3.8-2.9-3.8-4.1H-231z"/>
						<path fill="#FFFFFF" d="M-215.8-134.2h-1.9l-2.1-3.7l-2,3.7h-1.7l2.8-4.8l-2.6-4.3h1.9l1.7,3.3l1.8-3.3h1.8l-2.7,4.3
							L-215.8-134.2z"/>
						<path fill="#FFFFFF" d="M-207.8-134.2h-1.9l-2.1-3.7l-2,3.7h-1.7l2.8-4.8l-2.6-4.3h1.9l1.7,3.3l1.8-3.3h1.8l-2.7,4.3
							L-207.8-134.2z"/>
					</g>
					<g>
						<path fill="#FFFFFF" d="M-217.3-178.2h1v7.2h-1V-178.2z"/>
						<path fill="#FFFFFF" d="M-214.6-178.2h1v7.2h-1V-178.2z"/>
					</g>
					<g>
						<path fill="#FFFFFF" d="M-238-163.6c-0.7,0.6-1.8,1.2-2.6,1.6v-1.6c1-0.5,2.1-1.2,2.7-1.7h1.4v11.1h-1.5V-163.6z"/>
					</g>
					<g>
						<path fill="#FFFFFF" d="M-241.1-122.2h-1.1v-7.1l-1.2,0.8v-1.1c0.3-0.1,1.1-0.7,1.4-1h0.9V-122.2z"/>
						<path fill="#FFFFFF" d="M-237.3-127c1,0.1,1.7-0.3,1.7-1.4c0-0.8-0.3-1.3-1.2-1.3c-0.9,0-1.1,0.7-1,1.4h-1.1
							c-0.1-1.4,0.6-2.3,2.1-2.3c1.4,0,2.3,0.7,2.3,2.2c0,1.6-1.2,1.8-1.6,1.9v0c1.3,0.2,1.7,0.9,1.7,2.1c0,1.6-0.9,2.4-2.5,2.4
							c-2.3,0-2.1-2-2.1-2.5h1.1c0,0.8,0.1,1.5,1.1,1.5c1,0,1.3-0.6,1.3-1.5c0-1.3-0.5-1.6-1.8-1.6V-127z"/>
						<path fill="#FFFFFF" d="M-231.9-127c1,0.1,1.7-0.3,1.7-1.4c0-0.8-0.3-1.3-1.2-1.3c-0.9,0-1.1,0.7-1,1.4h-1.1
							c-0.1-1.4,0.6-2.3,2.1-2.3c1.4,0,2.3,0.7,2.3,2.2c0,1.6-1.2,1.8-1.6,1.9v0c1.3,0.2,1.7,0.9,1.7,2.1c0,1.6-0.9,2.4-2.5,2.4
							c-2.3,0-2.1-2-2.1-2.5h1.1c0,0.8,0.1,1.5,1.1,1.5c1,0,1.3-0.6,1.3-1.5c0-1.3-0.5-1.6-1.8-1.6V-127z"/>
						<path fill="#FFFFFF" d="M-228.1-121h-0.8l2.8-9.8h0.8L-228.1-121z"/>
						<path fill="#FFFFFF" d="M-225-124.2v-1l2.4-5.3h1.5v5.3h1v1h-1v2h-1v-2H-225z M-222.2-125.2v-4.3h0l-1.8,4.3H-222.2z"/>
						<path fill="#FFFFFF" d="M-219.7-124.2v-1l2.4-5.3h1.5v5.3h1v1h-1v2h-1v-2H-219.7z M-216.9-125.2v-4.3h0l-1.8,4.3H-216.9z"/>
					</g>
				</g>
			</g>
			<g id="BR_BR_5RWK_-_132-44_226_00000110459117720109921840000000656282157846951326_" transform="translate(112.5,337.5)">
				<g id="g170058_00000000900837821431742900000009659216517322773637_" transform="translate(-450,-1500)">
					
						<rect id="rect170056_00000126287131616032667670000002096391490541340824_" x="412.5" y="1162.5" fill="#ED2224" width="75" height="75"/>
				</g>
			</g>
		</g>
	</g>
</g>
<g id="text" display="none">
	
		<rect id="frontbox" x="-37.5" y="-337.5" display="inline" fill="none" stroke="#000000" stroke-miterlimit="10" width="1650" height="1275"/>
	<g id="align" display="inline">
	</g>
</g>
<g id="crop" display="none">
	<g id="front" display="inline">
		<g>
			<line fill="none" stroke="#939598" stroke-miterlimit="10" x1="-9.4" y1="0" x2="759.4" y2="0"/>
			<line fill="none" stroke="#939598" stroke-miterlimit="10" x1="-9.4" y1="75" x2="759.4" y2="75"/>
			<line fill="none" stroke="#939598" stroke-miterlimit="10" x1="0" y1="-84.4" x2="0" y2="84.4"/>
			<line fill="none" stroke="#939598" stroke-miterlimit="10" x1="75" y1="-84.4" x2="75" y2="84.4"/>
		</g>
	</g>
</g>
<g id="guides" display="none">
</g>
</svg>
