<?xml version="1.0" encoding="utf-8"?>
<!-- Generator: Adobe Illustrator 26.0.3, SVG Export Plug-In . SVG Version: 6.00 Build 0)  -->
<svg version="1.2" baseProfile="tiny" xmlns="http://www.w3.org/2000/svg" xmlns:xlink="http://www.w3.org/1999/xlink" x="0px"
	 y="0px" viewBox="0 0 75 75" overflow="visible" xml:space="preserve">
<g id="svg">
	<g>
		<g id="cs_layer_CNA_0002_00000023283088047694392320000015410210321053132443_">
			<g id="g169366_00000060018564281457370690000011209304467157080227_">
			</g>
			<g id="BR_BR_61_-_51_231_00000065047842803130754490000014038277423939568535_" transform="translate(487.5,337.5)">
				<g id="g170168_00000076581007476301955890000012111713468845983656_" transform="translate(-450,-1500)">
					
						<rect id="rect170166_00000143613656896562668600000000337974305621196218_" x="-37.5" y="1162.5" fill="#ED2224" width="75" height="75"/>
				</g>
				<g id="g170185_00000031927769093683732060000007489858094377109669_" transform="translate(229.688,-150)">
					<g>
						<path fill="#FFFFFF" d="M-651.5-167.9v17H-678v-17H-651.5z M-676.6-166.5v13.1l10.9-13.1H-676.6z M-675.7-152.3h21.8
							l-10.9-13.1L-675.7-152.3z M-667.6-157.5c0-1.4,1.2-2.6,2.8-2.6s2.8,1.2,2.8,2.6c0,1.4-1.2,2.6-2.8,2.6
							S-667.6-156.1-667.6-157.5z M-653-166.5h-10.9l10.9,13.1V-166.5z"/>
					</g>
					<g>
						<path fill="#FFFFFF" d="M-687-140.4c0-3.4-0.1-6.5,3.4-6.5c1.9,0,3.2,1.2,3.1,3h-1.7c0-0.9-0.5-1.8-1.5-1.8
							c-1.3,0-1.7,1.2-1.7,4.5h0c0.4-0.7,1.2-1.2,2-1.2c1.6,0,3,0.9,3,4.2c0,2.2-0.9,4.2-3.3,4.2C-687.1-134-687-137.2-687-140.4z
							 M-683.6-135.4c1.4,0,1.6-1.5,1.6-3.1c0-1.1-0.3-2.5-1.7-2.5c-1.5,0-1.7,1.6-1.7,2.7C-685.3-137.1-685.2-135.4-683.6-135.4z"
							/>
						<path fill="#FFFFFF" d="M-674.5-134.2h-1.7v-10.7l-1.9,1.3v-1.6c0.4-0.2,1.6-1.1,2.1-1.5h1.4V-134.2z"/>
					</g>
					<g>
						<path fill="#FFFFFF" d="M-668.7-178.2h1v7.2h-1V-178.2z"/>
						<path fill="#FFFFFF" d="M-665.9-178.2h1v7.2h-1V-178.2z"/>
						<path fill="#FFFFFF" d="M-663.2-178.2h1v7.2h-1V-178.2z"/>
					</g>
					<g>
						<path fill="#FFFFFF" d="M-688-163.6c-0.7,0.6-1.8,1.2-2.6,1.6v-1.6c1-0.5,2.1-1.2,2.7-1.7h1.4v11.1h-1.5V-163.6z"/>
					</g>
					<g>
						<path fill="#FFFFFF" d="M-680.4-130.5v1h-2.8v2.4l0,0c0.2-0.4,0.8-0.6,1.3-0.6c1.2,0,1.7,0.9,1.7,2.8c0,1.3-0.2,2.9-2.3,2.9
							c-1.7,0-2.1-0.9-2.1-2.1h1.1c0,0.6,0.3,1.3,1,1.3c1,0,1.1-1,1.1-1.8c0-1.2,0-2.2-1.1-2.2c-0.6,0-0.9,0.4-1,1h-1v-4.7H-680.4z"
							/>
						<path fill="#FFFFFF" d="M-676.2-122.2h-1.1v-7.1l-1.2,0.8v-1.1c0.3-0.1,1.1-0.7,1.4-1h0.9V-122.2z"/>
					</g>
				</g>
			</g>
			<g id="BR_BR_61_HAA_-_NONE_232_00000065046396058193926280000008912712366372478383_" transform="translate(562.5,337.5)">
				<g id="g170190_00000149345901331852360690000014684458571071049860_" transform="translate(-450,-1500)">
					
						<rect id="rect170188_00000101823983011551624800000016584258163683749548_" x="-37.5" y="1162.5" fill="#ED2224" width="75" height="75"/>
				</g>
			</g>
		</g>
	</g>
</g>
<g id="text" display="none">
	
		<rect id="frontbox" x="-487.5" y="-337.5" display="inline" fill="none" stroke="#000000" stroke-miterlimit="10" width="1650" height="1275"/>
	<g id="align" display="inline">
	</g>
</g>
<g id="crop" display="none">
	<g id="front" display="inline">
		<g>
			<line fill="none" stroke="#939598" stroke-miterlimit="10" x1="-459.4" y1="0" x2="309.4" y2="0"/>
			<line fill="none" stroke="#939598" stroke-miterlimit="10" x1="-459.4" y1="75" x2="309.4" y2="75"/>
			<line fill="none" stroke="#939598" stroke-miterlimit="10" x1="0" y1="-84.4" x2="0" y2="84.4"/>
			<line fill="none" stroke="#939598" stroke-miterlimit="10" x1="75" y1="-84.4" x2="75" y2="84.4"/>
		</g>
	</g>
</g>
<g id="guides" display="none">
</g>
</svg>
