<?xml version="1.0" encoding="utf-8"?>
<!-- Generator: Adobe Illustrator 26.0.3, SVG Export Plug-In . SVG Version: 6.00 Build 0)  -->
<svg version="1.2" baseProfile="tiny" xmlns="http://www.w3.org/2000/svg" xmlns:xlink="http://www.w3.org/1999/xlink" x="0px"
	 y="0px" viewBox="0 0 75 75" overflow="visible" xml:space="preserve">
<g id="svg">
	<g>
		<g id="cs_layer_CNA_0002_00000023283088047694392320000015410210321053132443_">
			<g id="g169366_00000060018564281457370690000011209304467157080227_">
			</g>
			<g id="BR_BR_60_FLD_-_NONE_230_00000018215670067990252690000005631120436298854805_" transform="translate(412.5,337.5)">
				<g id="g170146_00000029033924730106781590000006662796737173352126_" transform="translate(-450,-1500)">
					
						<rect id="rect170144_00000110445062534530067290000007303689782117223343_" x="37.5" y="1162.5" fill="#ED2224" width="75" height="75"/>
				</g>
				<g id="g170163_00000088090661883173441400000014677287693103962295_" transform="translate(229.688,-150)">
					<g>
						<path fill="#FFFFFF" d="M-576.5-167.9v17H-603v-17H-576.5z M-578-166.5h-23.6v14.2h23.6V-166.5z M-592.6-159.4
							c0-1.4,1.2-2.6,2.8-2.6s2.8,1.2,2.8,2.6c0,1.4-1.2,2.6-2.8,2.6S-592.6-158-592.6-159.4z"/>
					</g>
					<g>
						<path fill="#FFFFFF" d="M-624.5-140.4c0-3.4-0.1-6.5,3.4-6.5c1.9,0,3.2,1.2,3.1,3h-1.7c0-0.9-0.5-1.8-1.5-1.8
							c-1.4,0-1.7,1.2-1.7,4.5h0c0.4-0.7,1.2-1.2,2-1.2c1.6,0,3,0.9,3,4.2c0,2.2-0.9,4.2-3.3,4.2
							C-624.5-134-624.5-137.2-624.5-140.4z M-621.1-135.4c1.3,0,1.6-1.5,1.6-3.1c0-1.1-0.3-2.5-1.7-2.5c-1.5,0-1.7,1.6-1.7,2.7
							C-622.8-137.1-622.7-135.4-621.1-135.4z"/>
						<path fill="#FFFFFF" d="M-609.8-140.4c0,3.3,0,6.5-3.4,6.5c-3.4,0-3.4-3.2-3.4-6.5c0-3.4-0.1-6.5,3.4-6.5
							C-609.8-146.9-609.8-143.8-609.8-140.4z M-614.9-140.1c0,2.1-0.1,4.8,1.7,4.8c1.8,0,1.7-2.6,1.7-4.8c0-3.4,0-5.4-1.7-5.4
							C-614.9-145.6-614.9-143.5-614.9-140.1z"/>
						<path fill="#FFFFFF" d="M-603.9-134.2v-13h6.4v1.4h-4.8v4.2h4.5v1.4h-4.5v5.9H-603.9z"/>
						<path fill="#FFFFFF" d="M-594.5-134.2h-1.5v-13h1.5V-134.2z"/>
						<path fill="#FFFFFF" d="M-587.1-147.2h1.5v13h-1.5v-1.1h0c-0.5,0.8-1.1,1.3-2.1,1.3c-1.5,0-2.9-0.6-2.9-4.6
							c0-2.3,0.1-4.9,3-4.9c0.9,0,1.5,0.4,2,1.1h0.1V-147.2z M-588.8-142.3c-1.6,0-1.8,1.3-1.8,3.7c0,1.4,0,3.3,1.9,3.3
							c1.7,0,1.7-2.1,1.7-3.9C-587.1-140.4-587.2-142.3-588.8-142.3z"/>
					</g>
					<g>
						<path fill="#FFFFFF" d="M-593.7-178.2h1v7.2h-1V-178.2z"/>
						<path fill="#FFFFFF" d="M-590.9-178.2h1v7.2h-1V-178.2z"/>
						<path fill="#FFFFFF" d="M-588.2-178.2h1v7.2h-1V-178.2z"/>
					</g>
					<g>
						<path fill="#FFFFFF" d="M-613-163.6c-0.7,0.6-1.8,1.2-2.6,1.6v-1.6c1-0.5,2.1-1.2,2.7-1.7h1.4v11.1h-1.5V-163.6z"/>
					</g>
					<g>
						<path fill="#FFFFFF" d="M-607.9-125.9h2.6v0.9h-2.6V-125.9z"/>
						<path fill="#FFFFFF" d="M-603.9-125.9h2.6v0.9h-2.6V-125.9z"/>
					</g>
				</g>
			</g>
			<g id="BR_BR_61_-_51_231_00000065047842803130754490000014038277423939568535_" transform="translate(487.5,337.5)">
				<g id="g170168_00000076581007476301955890000012111713468845983656_" transform="translate(-450,-1500)">
					
						<rect id="rect170166_00000143613656896562668600000000337974305621196218_" x="37.5" y="1162.5" fill="#ED2224" width="75" height="75"/>
				</g>
			</g>
		</g>
	</g>
</g>
<g id="text" display="none">
	
		<rect id="frontbox" x="-412.5" y="-337.5" display="inline" fill="none" stroke="#000000" stroke-miterlimit="10" width="1650" height="1275"/>
	<g id="align" display="inline">
	</g>
</g>
<g id="crop" display="none">
	<g id="front" display="inline">
		<g>
			<line fill="none" stroke="#939598" stroke-miterlimit="10" x1="-384.4" y1="0" x2="384.4" y2="0"/>
			<line fill="none" stroke="#939598" stroke-miterlimit="10" x1="-384.4" y1="75" x2="384.4" y2="75"/>
			<line fill="none" stroke="#939598" stroke-miterlimit="10" x1="0" y1="-84.4" x2="0" y2="84.4"/>
			<line fill="none" stroke="#939598" stroke-miterlimit="10" x1="75" y1="-84.4" x2="75" y2="84.4"/>
		</g>
	</g>
</g>
<g id="guides" display="none">
</g>
</svg>
