<?xml version="1.0" encoding="utf-8"?>
<!-- Generator: Adobe Illustrator 26.0.3, SVG Export Plug-In . SVG Version: 6.00 Build 0)  -->
<svg version="1.2" baseProfile="tiny" xmlns="http://www.w3.org/2000/svg" xmlns:xlink="http://www.w3.org/1999/xlink" x="0px"
	 y="0px" viewBox="0 0 75 75" overflow="visible" xml:space="preserve">
<g id="svg">
	<g>
		<g id="cs_layer_CNA_0002_00000023283088047694392320000015410210321053132443_">
			<g id="g169366_00000060018564281457370690000011209304467157080227_">
			</g>
			<g id="BR_BR_6_DURLT_-_151-50_228_00000136413267846197902340000004607361802546309529_" transform="translate(262.5,337.5)">
				<g id="g170102_00000140734181083115149620000009485952728737004426_" transform="translate(-450,-1500)">
					
						<rect id="rect170100_00000123400468292853212250000007754821566727620490_" x="187.5" y="1162.5" fill="#ED2224" width="75" height="75"/>
				</g>
				<g id="g170119_00000021815501554998011060000002919684424143728006_" transform="translate(229.688,-150)">
					<g>
						<path fill="#FFFFFF" d="M-426.5-167.9v17H-453v-17H-426.5z M-451.6-165.7v12.5l10.4-6.3L-451.6-165.7z M-429.3-166.5h-20.9
							l10.4,6.3L-429.3-166.5z M-450.2-152.3h20.9l-10.4-6.3L-450.2-152.3z M-438.4-159.4l10.4,6.3v-12.5L-438.4-159.4z"/>
					</g>
					<g>
						<path fill="#FFFFFF" d="M-479.5-140.4c0-3.4-0.1-6.5,3.4-6.5c1.9,0,3.2,1.2,3.1,3h-1.7c0-0.9-0.5-1.8-1.5-1.8
							c-1.4,0-1.7,1.2-1.7,4.5h0c0.4-0.7,1.2-1.2,2-1.2c1.6,0,3,0.9,3,4.2c0,2.2-0.9,4.2-3.3,4.2
							C-479.5-134-479.5-137.2-479.5-140.4z M-476.1-135.4c1.4,0,1.6-1.5,1.6-3.1c0-1.1-0.3-2.5-1.7-2.5c-1.5,0-1.7,1.6-1.7,2.7
							C-477.8-137.1-477.7-135.4-476.1-135.4z"/>
						<path fill="#FFFFFF" d="M-466.7-147.2h4c1.7,0,2.8,0.6,3.5,2c0.5,1.1,0.6,3.7,0.6,4.1c0,2.8-0.3,4.4-0.8,5.2
							c-0.7,1.1-2,1.7-4.3,1.7h-3V-147.2z M-465-135.7h1.6c2.3,0,3.2-0.9,3.2-3.9v-2.6c0-2.6-0.8-3.6-2.5-3.6h-2.2V-135.7z"/>
						<path fill="#FFFFFF" d="M-451-143.3h1.5v7.2c0,0.6,0,1.3,0.1,1.9h-1.6v-1.1h-0.1c-0.5,0.8-1.4,1.3-2.3,1.3
							c-1.6,0-2.4-0.8-2.4-2.3v-6.9h1.5v6.3c0,1.1,0.5,1.8,1.5,1.8c0.8,0,1.8-0.6,1.8-2.1V-143.3z"/>
						<path fill="#FFFFFF" d="M-445.4-142L-445.4-142c0.6-1.4,1.4-1.5,2.8-1.5v1.5c-0.1,0-0.3,0-0.4-0.1c-0.1,0-0.3,0-0.4,0
							c-1.6,0-2.1,1.2-2.1,2.5v5.4h-1.5v-9.1h1.5V-142z"/>
						<path fill="#FFFFFF" d="M-440.7-134.2v-13h1.7v11.6h4.8v1.4H-440.7z"/>
						<path fill="#FFFFFF" d="M-432.7-143.3v-1.7l1.5-0.7v2.4h2v1.1h-2v5.6c0,0.6,0,1.3,1.4,1.3c0.1,0,0.3,0,0.7-0.1v1.1
							c-0.5,0-1,0.1-1.5,0.1c-1.4,0-2-0.6-2-1.6v-6.5h-1.5v-1.1H-432.7z"/>
					</g>
					<g>
						<path fill="#FFFFFF" d="M-442.3-178.2h1v7.2h-1V-178.2z"/>
						<path fill="#FFFFFF" d="M-439.6-178.2h1v7.2h-1V-178.2z"/>
					</g>
					<g>
						<path fill="#FFFFFF" d="M-463-163.6c-0.7,0.6-1.8,1.2-2.6,1.6v-1.6c1-0.5,2.1-1.2,2.7-1.7h1.4v11.1h-1.5V-163.6z"/>
					</g>
					<g>
						<path fill="#FFFFFF" d="M-466.1-122.2h-1.1v-7.1l-1.2,0.8v-1.1c0.3-0.1,1.1-0.7,1.4-1h0.9V-122.2z"/>
						<path fill="#FFFFFF" d="M-459.7-130.5v1h-2.8v2.4l0,0c0.2-0.4,0.8-0.6,1.3-0.6c1.2,0,1.7,0.9,1.7,2.8c0,1.3-0.2,2.9-2.3,2.9
							c-1.7,0-2.1-0.9-2.1-2.1h1.1c0,0.6,0.3,1.3,1,1.3c1,0,1.1-1,1.1-1.8c0-1.2,0-2.2-1.1-2.2c-0.6,0-0.9,0.4-1,1h-1v-4.7H-459.7z"
							/>
						<path fill="#FFFFFF" d="M-454-126.3c0,2.2,0,4.3-2.2,4.3s-2.2-2.1-2.2-4.3c0-2.2,0-4.3,2.2-4.3S-454-128.5-454-126.3z
							 M-457.4-126.1c0,1.4-0.1,3.2,1.1,3.2c1.2,0,1.1-1.8,1.1-3.2c0-2.2,0-3.6-1.1-3.6S-457.4-128.3-457.4-126.1z"/>
						<path fill="#FFFFFF" d="M-453.1-121h-0.8l2.8-9.8h0.8L-453.1-121z"/>
						<path fill="#FFFFFF" d="M-445.7-130.5v1h-2.8v2.4l0,0c0.2-0.4,0.8-0.6,1.3-0.6c1.2,0,1.7,0.9,1.7,2.8c0,1.3-0.2,2.9-2.3,2.9
							c-1.7,0-2.1-0.9-2.1-2.1h1.1c0,0.6,0.3,1.3,1,1.3c1,0,1.1-1,1.1-1.8c0-1.2,0-2.2-1.1-2.2c-0.6,0-0.9,0.4-1,1h-1v-4.7H-445.7z"
							/>
						<path fill="#FFFFFF" d="M-440.1-126.3c0,2.2,0,4.3-2.2,4.3s-2.2-2.1-2.2-4.3c0-2.2,0-4.3,2.2-4.3S-440.1-128.5-440.1-126.3z
							 M-443.4-126.1c0,1.4-0.1,3.2,1.1,3.2s1.1-1.8,1.1-3.2c0-2.2,0-3.6-1.1-3.6S-443.4-128.3-443.4-126.1z"/>
					</g>
				</g>
			</g>
			<g id="BR_BR_6_RTR_-_4-7_229_00000175282669343135593950000000981728329271352471_" transform="translate(337.5,337.5)">
				<g id="g170124_00000167357991912444498900000012005732855193168801_" transform="translate(-450,-1500)">
					
						<rect id="rect170122_00000101798075643853487760000007567883023301357736_" x="187.5" y="1162.5" fill="#ED2224" width="75" height="75"/>
				</g>
			</g>
		</g>
	</g>
</g>
<g id="text" display="none">
	
		<rect id="frontbox" x="-262.5" y="-337.5" display="inline" fill="none" stroke="#000000" stroke-miterlimit="10" width="1650" height="1275"/>
	<g id="align" display="inline">
	</g>
</g>
<g id="crop" display="none">
	<g id="front" display="inline">
		<g>
			<line fill="none" stroke="#939598" stroke-miterlimit="10" x1="-234.4" y1="0" x2="534.4" y2="0"/>
			<line fill="none" stroke="#939598" stroke-miterlimit="10" x1="-234.4" y1="75" x2="534.4" y2="75"/>
			<line fill="none" stroke="#939598" stroke-miterlimit="10" x1="0" y1="-84.4" x2="0" y2="84.4"/>
			<line fill="none" stroke="#939598" stroke-miterlimit="10" x1="75" y1="-84.4" x2="75" y2="84.4"/>
		</g>
	</g>
</g>
<g id="guides" display="none">
</g>
</svg>
