<?xml version="1.0" encoding="utf-8"?>
<!-- Generator: Adobe Illustrator 26.0.3, SVG Export Plug-In . SVG Version: 6.00 Build 0)  -->
<svg version="1.2" baseProfile="tiny" xmlns="http://www.w3.org/2000/svg" xmlns:xlink="http://www.w3.org/1999/xlink" x="0px"
	 y="0px" viewBox="0 0 75 75" overflow="visible" xml:space="preserve">
<g id="svg">
	<g>
		<g id="cs_layer_CNA_0002_00000023283088047694392320000015410210321053132443_">
			<g id="g169366_00000060018564281457370690000011209304467157080227_">
			</g>
			<g id="BR_BR_61_HAA_-_NONE_232_00000065046396058193926280000008912712366372478383_" transform="translate(562.5,337.5)">
				<g id="g170190_00000149345901331852360690000014684458571071049860_" transform="translate(-450,-1500)">
					
						<rect id="rect170188_00000101823983011551624800000016584258163683749548_" x="-112.5" y="1162.5" fill="#ED2224" width="75" height="75"/>
				</g>
				<g id="g170207_00000008112457394148087760000010652577304436766890_" transform="translate(229.688,-150)">
					<g>
						<path fill="#FFFFFF" d="M-726.5-167.9v17H-753v-17H-726.5z M-751.6-166.5v13.1l10.9-13.1H-751.6z M-750.7-152.3h21.8l-3.8-4.6
							h-14.2L-750.7-152.3z M-728-166.5h-10.9l10.9,13.1V-166.5z"/>
					</g>
					<g>
						<path fill="#FFFFFF" d="M-780.5-140.4c0-3.4-0.1-6.5,3.4-6.5c1.9,0,3.2,1.2,3.1,3h-1.7c0-0.9-0.5-1.8-1.5-1.8
							c-1.4,0-1.7,1.2-1.7,4.5h0c0.4-0.7,1.2-1.2,2-1.2c1.6,0,3,0.9,3,4.2c0,2.2-0.9,4.2-3.3,4.2
							C-780.5-134-780.5-137.2-780.5-140.4z M-777.1-135.4c1.3,0,1.6-1.5,1.6-3.1c0-1.1-0.3-2.5-1.7-2.5c-1.5,0-1.7,1.6-1.7,2.7
							C-778.8-137.1-778.7-135.4-777.1-135.4z"/>
						<path fill="#FFFFFF" d="M-768-134.2h-1.7v-10.7l-1.9,1.3v-1.6c0.4-0.2,1.6-1.1,2.1-1.5h1.4V-134.2z"/>
						<path fill="#FFFFFF" d="M-759.6-134.2v-13h1.7v5.6h4.6v-5.6h1.7v13h-1.7v-5.9h-4.6v5.9H-759.6z"/>
						<path fill="#FFFFFF" d="M-745.8-147.2h2.1l4.2,13h-1.9l-0.9-3.1h-5l-1,3.1h-1.7L-745.8-147.2z M-744.8-145.7L-744.8-145.7
							l-2.1,6.9h4.2L-744.8-145.7z"/>
						<path fill="#FFFFFF" d="M-734.8-147.2h2.1l4.2,13h-1.9l-0.9-3.1h-5l-1,3.1h-1.7L-734.8-147.2z M-733.8-145.7L-733.8-145.7
							l-2.1,6.9h4.2L-733.8-145.7z"/>
					</g>
					<g>
						<path fill="#FFFFFF" d="M-743.7-178.2h1v7.2h-1V-178.2z"/>
						<path fill="#FFFFFF" d="M-740.9-178.2h1v7.2h-1V-178.2z"/>
						<path fill="#FFFFFF" d="M-738.2-178.2h1v7.2h-1V-178.2z"/>
					</g>
					<g>
						<path fill="#FFFFFF" d="M-763-163.6c-0.7,0.6-1.8,1.2-2.6,1.6v-1.6c1-0.5,2.1-1.2,2.7-1.7h1.4v11.1h-1.5V-163.6z"/>
					</g>
					<g>
						<path fill="#FFFFFF" d="M-757.9-125.9h2.6v0.9h-2.6V-125.9z"/>
						<path fill="#FFFFFF" d="M-753.9-125.9h2.6v0.9h-2.6V-125.9z"/>
					</g>
				</g>
			</g>
			<g id="BR_BR_61_LAA_-_1SPT-1_233_00000072251810704200599560000010650060060154968220_" transform="translate(637.5,337.5)">
				<g id="g170212_00000090985561847847006410000014943308122085911196_" transform="translate(-450,-1500)">
					
						<rect id="rect170210_00000170255151686670586410000007767144571633053363_" x="-112.5" y="1162.5" fill="#ED2224" width="75" height="75"/>
				</g>
			</g>
		</g>
	</g>
</g>
<g id="text" display="none">
	
		<rect id="frontbox" x="-562.5" y="-337.5" display="inline" fill="none" stroke="#000000" stroke-miterlimit="10" width="1650" height="1275"/>
	<g id="align" display="inline">
	</g>
</g>
<g id="crop" display="none">
	<g id="front" display="inline">
		<g>
			<line fill="none" stroke="#939598" stroke-miterlimit="10" x1="-534.4" y1="0" x2="234.4" y2="0"/>
			<line fill="none" stroke="#939598" stroke-miterlimit="10" x1="-534.4" y1="75" x2="234.4" y2="75"/>
			<line fill="none" stroke="#939598" stroke-miterlimit="10" x1="0" y1="-84.4" x2="0" y2="84.4"/>
			<line fill="none" stroke="#939598" stroke-miterlimit="10" x1="75" y1="-84.4" x2="75" y2="84.4"/>
		</g>
	</g>
</g>
<g id="guides" display="none">
</g>
</svg>
