<?xml version="1.0" encoding="utf-8"?>
<!-- Generator: Adobe Illustrator 26.0.3, SVG Export Plug-In . SVG Version: 6.00 Build 0)  -->
<svg version="1.2" baseProfile="tiny" xmlns="http://www.w3.org/2000/svg" xmlns:xlink="http://www.w3.org/1999/xlink" x="0px"
	 y="0px" viewBox="0 0 75 75" overflow="visible" xml:space="preserve">
<g id="svg">
	<g>
		<g id="cs_layer_CNA_0002_00000023283088047694392320000015410210321053132443_">
			<g id="g169366_00000060018564281457370690000011209304467157080227_">
			</g>
			<g id="BR_BR_5GRNHO_-_150-50_224_00000119106706719738444660000012617698359007929744_" transform="translate(712.5,262.5)">
				<g id="g170014_00000064328017176088699800000014561179661010765954_" transform="translate(-450,-1500)">
					
						<rect id="rect170012_00000010302087337897435010000015858952073681101444_" x="-262.5" y="1237.5" fill="#ED2224" width="75" height="75"/>
				</g>
				<g id="g170031_00000053507156004389882410000013351692619812636050_" transform="translate(229.688,-150)">
					<g>
						<path fill="#FFFFFF" d="M-876.5-92.9v17H-903v-17H-876.5z M-901.6-90.7v12.5l10.4-6.3L-901.6-90.7z M-879.3-91.5h-20.9
							l10.4,6.3L-879.3-91.5z M-900.2-77.3h20.9l-10.4-6.3L-900.2-77.3z M-888.4-84.4l10.4,6.3v-12.5L-888.4-84.4z"/>
					</g>
					<g>
						<path fill="#FFFFFF" d="M-924.8-71.7v1.4h-4.2v3.6l0,0c0.3-0.5,1.1-0.9,2-0.9c1.8,0,2.6,1.3,2.6,4.2c0,2-0.3,4.4-3.4,4.4
							c-2.6,0-3.1-1.4-3.1-3.1h1.7c0,1,0.4,1.9,1.5,1.9c1.6,0,1.7-1.5,1.7-2.8c0-1.8-0.1-3.2-1.6-3.2c-0.9,0-1.4,0.6-1.5,1.5h-1.5
							v-7H-924.8z"/>
						<path fill="#FFFFFF" d="M-916-68.8c0-1.5-0.6-2.4-2.3-2.4c-0.5,0-2.4,0.1-2.4,2.8v4.4c0,2.8,0.8,3.6,2.4,3.6
							c1.2,0,2-0.3,2.3-0.6v-3.9h-2.4v-1.4h4.1v6.3c-1.1,0.6-2.3,1-4,1c-2.8,0-4.1-1.4-4.1-5v-4.3c0-2.6,1.3-4.2,4.1-4.2
							c2.8,0,4.1,1,4,3.7H-916z"/>
						<path fill="#FFFFFF" d="M-909.9-67L-909.9-67c0.6-1.4,1.4-1.5,2.8-1.5v1.5c-0.1,0-0.3,0-0.4-0.1c-0.1,0-0.3,0-0.4,0
							c-1.6,0-2.1,1.2-2.1,2.5v5.4h-1.5v-9.1h1.5V-67z"/>
						<path fill="#FFFFFF" d="M-900.5-59.2v-6.3c0-1-0.3-1.8-1.6-1.8c-1.6,0-1.9,1.4-1.9,2.7v5.4h-1.5v-7.2c0-0.6,0-1.3-0.1-1.9h1.6
							v1.2h0.1c0.6-1,1.3-1.4,2.4-1.4c1.9,0,2.4,1.2,2.4,3v6.3H-900.5z"/>
						<path fill="#FFFFFF" d="M-896.1-59.2v-13h1.7v5.6h4.6v-5.6h1.7v13h-1.7v-5.9h-4.6v5.9H-896.1z"/>
						<path fill="#FFFFFF" d="M-885.7-63.7c0-2.7,0.3-4.9,3.5-4.9c3.2,0,3.5,2.2,3.5,4.9c0,4-1.5,4.6-3.5,4.6
							C-884.1-59.1-885.7-59.6-885.7-63.7z M-880.3-64.3c0-2.5-0.8-3-1.9-3c-1.1,0-1.9,0.5-1.9,3c0,3,0.4,4,1.9,4
							C-880.7-60.3-880.3-61.3-880.3-64.3z"/>
					</g>
					<g>
						<path fill="#FFFFFF" d="M-892.3-103.2h1v7.2h-1V-103.2z"/>
						<path fill="#FFFFFF" d="M-889.6-103.2h1v7.2h-1V-103.2z"/>
					</g>
					<g>
						<path fill="#FFFFFF" d="M-913-88.6c-0.7,0.6-1.8,1.2-2.6,1.6v-1.6c1-0.5,2.1-1.2,2.7-1.7h1.4v11.1h-1.5V-88.6z"/>
					</g>
					<g>
						<path fill="#FFFFFF" d="M-916.1-47.2h-1.1v-7.1l-1.2,0.8v-1.1c0.3-0.1,1.1-0.7,1.4-1h0.9V-47.2z"/>
						<path fill="#FFFFFF" d="M-909.7-55.5v1h-2.8v2.4l0,0c0.2-0.4,0.8-0.6,1.3-0.6c1.2,0,1.7,0.9,1.7,2.8c0,1.3-0.2,2.9-2.3,2.9
							c-1.7,0-2.1-0.9-2.1-2.1h1.1c0,0.6,0.3,1.3,1,1.3c1,0,1.1-1,1.1-1.8c0-1.2,0-2.2-1.1-2.2c-0.6,0-0.9,0.4-1,1h-1v-4.7H-909.7z"
							/>
						<path fill="#FFFFFF" d="M-904-51.3c0,2.2,0,4.3-2.2,4.3s-2.2-2.1-2.2-4.3c0-2.2,0-4.3,2.2-4.3C-904-55.6-904-53.5-904-51.3z
							 M-907.4-51.1c0,1.4-0.1,3.2,1.1,3.2c1.2,0,1.1-1.8,1.1-3.2c0-2.2,0-3.6-1.1-3.6C-907.4-54.7-907.4-53.3-907.4-51.1z"/>
						<path fill="#FFFFFF" d="M-903.1-46h-0.8l2.8-9.8h0.8L-903.1-46z"/>
						<path fill="#FFFFFF" d="M-895.7-55.5v1h-2.8v2.4l0,0c0.2-0.4,0.8-0.6,1.3-0.6c1.2,0,1.7,0.9,1.7,2.8c0,1.3-0.2,2.9-2.3,2.9
							c-1.7,0-2.1-0.9-2.1-2.1h1.1c0,0.6,0.3,1.3,1,1.3c1,0,1.1-1,1.1-1.8c0-1.2,0-2.2-1.1-2.2c-0.6,0-0.9,0.4-1,1h-1v-4.7H-895.7z"
							/>
						<path fill="#FFFFFF" d="M-890.1-51.3c0,2.2,0,4.3-2.2,4.3s-2.2-2.1-2.2-4.3c0-2.2,0-4.3,2.2-4.3
							C-890-55.6-890.1-53.5-890.1-51.3z M-893.4-51.1c0,1.4-0.1,3.2,1.1,3.2c1.2,0,1.1-1.8,1.1-3.2c0-2.2,0-3.6-1.1-3.6
							C-893.4-54.7-893.4-53.3-893.4-51.1z"/>
					</g>
				</g>
			</g>
		</g>
	</g>
</g>
<g id="text" display="none">
	
		<rect id="frontbox" x="-712.5" y="-262.5" display="inline" fill="none" stroke="#000000" stroke-miterlimit="10" width="1650" height="1275"/>
	<g id="align" display="inline">
	</g>
</g>
<g id="crop" display="none">
	<g id="front" display="inline">
		<g>
			<line fill="none" stroke="#939598" stroke-miterlimit="10" x1="-684.4" y1="0" x2="84.4" y2="0"/>
			<line fill="none" stroke="#939598" stroke-miterlimit="10" x1="-684.4" y1="75" x2="84.4" y2="75"/>
			<line fill="none" stroke="#939598" stroke-miterlimit="10" x1="0" y1="-9.4" x2="0" y2="159.4"/>
			<line fill="none" stroke="#939598" stroke-miterlimit="10" x1="75" y1="-9.4" x2="75" y2="159.4"/>
		</g>
	</g>
</g>
<g id="guides" display="none">
</g>
</svg>
