<?xml version="1.0" encoding="utf-8"?>
<!-- Generator: Adobe Illustrator 26.0.3, SVG Export Plug-In . SVG Version: 6.00 Build 0)  -->
<svg version="1.2" baseProfile="tiny" xmlns="http://www.w3.org/2000/svg" xmlns:xlink="http://www.w3.org/1999/xlink" x="0px"
	 y="0px" viewBox="0 0 75 75" overflow="visible" xml:space="preserve">
<g id="svg">
	<g>
		<g id="cs_layer_CNA_0002_00000023283088047694392320000015410210321053132443_">
			<g id="g169366_00000060018564281457370690000011209304467157080227_">
			</g>
			<g id="BR_BR_5RWK_-_132-44_226_00000110459117720109921840000000656282157846951326_" transform="translate(112.5,337.5)">
				<g id="g170058_00000000900837821431742900000009659216517322773637_" transform="translate(-450,-1500)">
					
						<rect id="rect170056_00000126287131616032667670000002096391490541340824_" x="337.5" y="1162.5" fill="#ED2224" width="75" height="75"/>
				</g>
				<g id="g170075_00000140720806490201056550000006187478616987155876_" transform="translate(229.688,-150)">
					<g>
						<path fill="#FFFFFF" d="M-276.5-167.9v17H-303v-17H-276.5z M-301.6-165.7v12.5l10.4-6.3L-301.6-165.7z M-279.3-166.5h-20.9
							l10.4,6.3L-279.3-166.5z M-300.2-152.3h20.9l-10.4-6.3L-300.2-152.3z M-288.4-159.4l10.4,6.3v-12.5L-288.4-159.4z"/>
					</g>
					<g>
						<path fill="#FFFFFF" d="M-319.8-146.7v1.4h-4.2v3.6l0,0c0.3-0.5,1.1-0.9,2-0.9c1.8,0,2.6,1.3,2.6,4.2c0,2-0.3,4.4-3.4,4.4
							c-2.6,0-3.1-1.4-3.1-3.1h1.7c0,1,0.4,1.9,1.5,1.9c1.6,0,1.7-1.5,1.7-2.8c0-1.8-0.1-3.2-1.6-3.2c-0.9,0-1.4,0.6-1.5,1.5h-1.5
							v-7H-319.8z"/>
						<path fill="#FFFFFF" d="M-315.6-140.2v6h-1.7v-13h4.5c2.3,0,3.1,1.6,3.1,3.2c0,1.5-0.8,2.7-2.4,3v0c1.5,0.2,2,0.7,2.1,3.3
							c0,0.6,0.2,2.6,0.5,3.4h-1.7c-0.5-0.9-0.4-2.6-0.5-4.3c-0.1-1.6-1.4-1.7-2-1.7H-315.6z M-315.6-141.7h2.5c1.2,0,1.8-1,1.8-2.2
							c0-0.9-0.5-2-1.7-2h-2.5V-141.7z"/>
						<path fill="#FFFFFF" d="M-308.6-147.2h1.8l2.4,11.3h0l2.6-11.3h2.1l2.4,11.3h0l2.6-11.3h1.7l-3.4,13h-2l-2.5-11.3h0l-2.6,11.3
							h-2L-308.6-147.2z"/>
						<path fill="#FFFFFF" d="M-291.2-134.2v-13h1.7v5.7h0.1l4.5-5.7h1.9l-4.7,5.9l5,7.1h-2.1l-4.6-6.8h-0.1v6.8H-291.2z"/>
					</g>
					<g>
						<path fill="#FFFFFF" d="M-292.3-178.2h1v7.2h-1V-178.2z"/>
						<path fill="#FFFFFF" d="M-289.6-178.2h1v7.2h-1V-178.2z"/>
					</g>
					<g>
						<path fill="#FFFFFF" d="M-313-163.6c-0.7,0.6-1.8,1.2-2.6,1.6v-1.6c1-0.5,2.1-1.2,2.7-1.7h1.4v11.1h-1.5V-163.6z"/>
					</g>
					<g>
						<path fill="#FFFFFF" d="M-316.1-122.2h-1.1v-7.1l-1.2,0.8v-1.1c0.3-0.1,1.1-0.7,1.4-1h0.9V-122.2z"/>
						<path fill="#FFFFFF" d="M-312.3-127c1,0.1,1.7-0.3,1.7-1.4c0-0.8-0.3-1.3-1.2-1.3c-0.9,0-1.1,0.7-1,1.4h-1.1
							c-0.1-1.4,0.6-2.3,2.1-2.3c1.4,0,2.3,0.7,2.3,2.2c0,1.6-1.2,1.8-1.6,1.9v0c1.3,0.2,1.7,0.9,1.7,2.1c0,1.6-0.9,2.4-2.5,2.4
							c-2.3,0-2.1-2-2.1-2.5h1.1c0,0.8,0.1,1.5,1.1,1.5c1,0,1.3-0.6,1.3-1.5c0-1.3-0.5-1.6-1.8-1.6V-127z"/>
						<path fill="#FFFFFF" d="M-308.4-122.2v-1c2.4-3.4,3.2-4,3.2-5.5c0-0.7-0.3-1.1-1-1.1c-0.8,0-1,0.7-1,1.4h-1.1
							c-0.1-1.4,0.6-2.3,2-2.3c1.5,0,2.2,0.7,2.2,2.2c0,1.9-0.9,2.5-3.1,5.3h3.3v1H-308.4z"/>
						<path fill="#FFFFFF" d="M-303.1-121h-0.8l2.8-9.8h0.8L-303.1-121z"/>
						<path fill="#FFFFFF" d="M-300-124.2v-1l2.4-5.3h1.5v5.3h1v1h-1v2h-1v-2H-300z M-297.2-125.2v-4.3h0l-1.8,4.3H-297.2z"/>
						<path fill="#FFFFFF" d="M-294.7-124.2v-1l2.4-5.3h1.5v5.3h1v1h-1v2h-1v-2H-294.7z M-291.9-125.2v-4.3h0l-1.8,4.3H-291.9z"/>
					</g>
				</g>
			</g>
			<g id="BR_BR_6_CHES_-_44_227_00000151508382716005092370000015617905360942280860_" transform="translate(187.5,337.5)">
				<g id="g170080_00000169545689361783537210000016129883356364655541_" transform="translate(-450,-1500)">
					
						<rect id="rect170078_00000053538051915328611500000010273831394201763716_" x="337.5" y="1162.5" fill="#ED2224" width="75" height="75"/>
				</g>
			</g>
		</g>
	</g>
</g>
<g id="text" display="none">
	
		<rect id="frontbox" x="-112.5" y="-337.5" display="inline" fill="none" stroke="#000000" stroke-miterlimit="10" width="1650" height="1275"/>
	<g id="align" display="inline">
	</g>
</g>
<g id="crop" display="none">
	<g id="front" display="inline">
		<g>
			<line fill="none" stroke="#939598" stroke-miterlimit="10" x1="-84.4" y1="0" x2="684.4" y2="0"/>
			<line fill="none" stroke="#939598" stroke-miterlimit="10" x1="-84.4" y1="75" x2="684.4" y2="75"/>
			<line fill="none" stroke="#939598" stroke-miterlimit="10" x1="0" y1="-84.4" x2="0" y2="84.4"/>
			<line fill="none" stroke="#939598" stroke-miterlimit="10" x1="75" y1="-84.4" x2="75" y2="84.4"/>
		</g>
	</g>
</g>
<g id="guides" display="none">
</g>
</svg>
