<?xml version="1.0" encoding="utf-8"?>
<!-- Generator: Adobe Illustrator 26.0.3, SVG Export Plug-In . SVG Version: 6.00 Build 0)  -->
<svg version="1.2" baseProfile="tiny" xmlns="http://www.w3.org/2000/svg" xmlns:xlink="http://www.w3.org/1999/xlink" x="0px"
	 y="0px" viewBox="0 0 75 75" overflow="visible" xml:space="preserve">
<g id="svg">
	<g>
		<g id="cs_layer_CNA_0002_00000023283088047694392320000015410210321053132443_">
			<g id="g169366_00000060018564281457370690000011209304467157080227_">
			</g>
			<g id="BR_BR_6_RTR_-_4-7_229_00000175282669343135593950000000981728329271352471_" transform="translate(337.5,337.5)">
				<g id="g170124_00000167357991912444498900000012005732855193168801_" transform="translate(-450,-1500)">
					
						<rect id="rect170122_00000101798075643853487760000007567883023301357736_" x="112.5" y="1162.5" fill="#ED2224" width="75" height="75"/>
				</g>
				<g id="g170141_00000031194279431981505270000003392974897075150218_" transform="translate(229.688,-150)">
					<g>
						<path fill="#FFFFFF" d="M-501.5-167.9v17H-528v-17H-501.5z M-503-166.5h-23.6v14.2h23.6V-166.5z M-523.7-156.4
							c-0.8-0.8-1.2-1.9-1.2-3c0-2.3,1.9-4.2,4.2-4.2c0,0,0,0,0,0v0h11.8c0,0,0,0,0,0c2.3,0,4.2,2,4.2,4.3c0,2.3-1.9,4.2-4.2,4.2
							c0,0,0,0,0,0v0h-11.8c0,0,0,0,0,0c0,0,0,0,0,0C-521.8-155.2-522.9-155.6-523.7-156.4z M-523.5-159.4c0,0.8,0.3,1.5,0.8,2
							c0.5,0.5,1.2,0.9,2,0.9h11.8c0,0,0,0,0,0c1.5,0,2.8-1.3,2.8-2.8c0-1.6-1.2-2.9-2.8-2.9v0h-11.8
							C-522.2-162.2-523.5-161-523.5-159.4z"/>
					</g>
					<g>
						<path fill="#FFFFFF" d="M-549.5-140.4c0-3.4-0.1-6.5,3.4-6.5c1.9,0,3.2,1.2,3.1,3h-1.7c0-0.9-0.5-1.8-1.5-1.8
							c-1.4,0-1.7,1.2-1.7,4.5h0c0.4-0.7,1.2-1.2,2-1.2c1.6,0,3,0.9,3,4.2c0,2.2-0.9,4.2-3.3,4.2
							C-549.6-134-549.5-137.2-549.5-140.4z M-546.1-135.4c1.4,0,1.6-1.5,1.6-3.1c0-1.1-0.3-2.5-1.7-2.5c-1.5,0-1.7,1.6-1.7,2.7
							C-547.9-137.1-547.7-135.4-546.1-135.4z"/>
						<path fill="#FFFFFF" d="M-535.1-140.2v6h-1.7v-13h4.5c2.3,0,3.1,1.6,3.1,3.2c0,1.5-0.8,2.7-2.4,3v0c1.5,0.2,2,0.7,2.1,3.3
							c0,0.6,0.2,2.6,0.5,3.4h-1.7c-0.5-0.9-0.4-2.6-0.5-4.3c-0.1-1.6-1.4-1.7-2-1.7H-535.1z M-535.1-141.7h2.5c1.2,0,1.8-1,1.8-2.2
							c0-0.9-0.5-2-1.7-2h-2.5V-141.7z"/>
						<path fill="#FFFFFF" d="M-519.4-147.2v1.4h-3.4v11.6h-1.7v-11.6h-3.4v-1.4H-519.4z"/>
						<path fill="#FFFFFF" d="M-516.1-140.2v6h-1.7v-13h4.5c2.3,0,3.1,1.6,3.1,3.2c0,1.5-0.8,2.7-2.4,3v0c1.5,0.2,2,0.7,2.1,3.3
							c0,0.6,0.2,2.6,0.5,3.4h-1.7c-0.5-0.9-0.4-2.6-0.5-4.3c-0.1-1.6-1.4-1.7-2-1.7H-516.1z M-516.1-141.7h2.5c1.2,0,1.8-1,1.8-2.2
							c0-0.9-0.5-2-1.7-2h-2.5V-141.7z"/>
					</g>
					<g>
						<path fill="#FFFFFF" d="M-517.3-178.2h1v7.2h-1V-178.2z"/>
						<path fill="#FFFFFF" d="M-514.6-178.2h1v7.2h-1V-178.2z"/>
					</g>
					<g>
						<path fill="#FFFFFF" d="M-538-163.6c-0.7,0.6-1.8,1.2-2.6,1.6v-1.6c1-0.5,2.1-1.2,2.7-1.7h1.4v11.1h-1.5V-163.6z"/>
					</g>
					<g>
						<path fill="#FFFFFF" d="M-542.6-124.2v-1l2.4-5.3h1.5v5.3h1v1h-1v2h-1v-2H-542.6z M-539.9-125.2v-4.3h0l-1.8,4.3H-539.9z"/>
						<path fill="#FFFFFF" d="M-537.3-124.2v-1l2.4-5.3h1.5v5.3h1v1h-1v2h-1v-2H-537.3z M-534.5-125.2v-4.3h0l-1.8,4.3H-534.5z"/>
						<path fill="#FFFFFF" d="M-531.8-122.2v-1c2.4-3.4,3.2-4,3.2-5.5c0-0.7-0.3-1.1-1-1.1c-0.8,0-1,0.7-1,1.4h-1.1
							c-0.1-1.4,0.6-2.3,2-2.3c1.5,0,2.2,0.7,2.2,2.2c0,1.9-0.9,2.5-3.1,5.3h3.3v1H-531.8z"/>
						<path fill="#FFFFFF" d="M-522.1-126.3c0,2.2,0,4.3-2.2,4.3c-1.2,0-2.1-0.9-2.1-2.2h1.1c0,0.6,0.2,1.2,0.9,1.2
							c1.1,0,1.1-1.2,1.1-3.3h0c-0.3,0.6-0.8,0.8-1.4,0.8c-0.7,0-1.9-0.3-1.9-2.6c0-1.9,1.1-2.6,2.2-2.6
							C-522-130.6-522.1-128.5-522.1-126.3z M-525.4-128.1c0,0.8,0.2,1.7,1.1,1.7c1,0,1.1-0.9,1.1-1.7c0-0.8-0.2-1.7-1.1-1.7
							S-525.4-128.9-525.4-128.1z"/>
						<path fill="#FFFFFF" d="M-519.6-127c1,0.1,1.7-0.3,1.7-1.4c0-0.8-0.3-1.3-1.2-1.3c-0.9,0-1.1,0.7-1,1.4h-1.1
							c-0.1-1.4,0.6-2.3,2.1-2.3c1.4,0,2.3,0.7,2.3,2.2c0,1.6-1.2,1.8-1.6,1.9v0c1.3,0.2,1.7,0.9,1.7,2.1c0,1.6-0.9,2.4-2.5,2.4
							c-2.3,0-2.1-2-2.1-2.5h1.1c0,0.8,0.1,1.5,1.1,1.5c1,0,1.3-0.6,1.3-1.5c0-1.3-0.5-1.6-1.8-1.6V-127z"/>
					</g>
				</g>
			</g>
			<g id="BR_BR_60_FLD_-_NONE_230_00000018215670067990252690000005631120436298854805_" transform="translate(412.5,337.5)">
				<g id="g170146_00000029033924730106781590000006662796737173352126_" transform="translate(-450,-1500)">
					
						<rect id="rect170144_00000110445062534530067290000007303689782117223343_" x="112.5" y="1162.5" fill="#ED2224" width="75" height="75"/>
				</g>
			</g>
		</g>
	</g>
</g>
<g id="text" display="none">
	
		<rect id="frontbox" x="-337.5" y="-337.5" display="inline" fill="none" stroke="#000000" stroke-miterlimit="10" width="1650" height="1275"/>
	<g id="align" display="inline">
	</g>
</g>
<g id="crop" display="none">
	<g id="front" display="inline">
		<g>
			<line fill="none" stroke="#939598" stroke-miterlimit="10" x1="-309.4" y1="0" x2="459.4" y2="0"/>
			<line fill="none" stroke="#939598" stroke-miterlimit="10" x1="-309.4" y1="75" x2="459.4" y2="75"/>
			<line fill="none" stroke="#939598" stroke-miterlimit="10" x1="0" y1="-84.4" x2="0" y2="84.4"/>
			<line fill="none" stroke="#939598" stroke-miterlimit="10" x1="75" y1="-84.4" x2="75" y2="84.4"/>
		</g>
	</g>
</g>
<g id="guides" display="none">
</g>
</svg>
