<?xml version="1.0" encoding="utf-8"?>
<!-- Generator: Adobe Illustrator 26.0.3, SVG Export Plug-In . SVG Version: 6.00 Build 0)  -->
<svg version="1.2" baseProfile="tiny" xmlns="http://www.w3.org/2000/svg" xmlns:xlink="http://www.w3.org/1999/xlink" x="0px"
	 y="0px" viewBox="0 0 75 75" overflow="visible" xml:space="preserve">
<g id="svg">
	<g>
		<g id="cs_layer_CNA_0002_00000023283088047694392320000015410210321053132443_">
			<g id="g169366_00000060018564281457370690000011209304467157080227_">
			</g>
			<g id="BR_BR_6_CHES_-_44_227_00000151508382716005092370000015617905360942280860_" transform="translate(187.5,337.5)">
				<g id="g170080_00000169545689361783537210000016129883356364655541_" transform="translate(-450,-1500)">
					
						<rect id="rect170078_00000053538051915328611500000010273831394201763716_" x="262.5" y="1162.5" fill="#ED2224" width="75" height="75"/>
				</g>
				<g id="g170097_00000059301527270680896480000003328097455690024881_" transform="translate(229.688,-150)">
					<g>
						<path fill="#FFFFFF" d="M-351.5-167.9v17H-378v-17H-351.5z M-366.8-159.1v-0.7l-9.8-5.9v12.5l9.9-5.9H-366.8z M-354.3-166.5
							h-20.9l9.6,5.7v-1.5h-1.2l2.1-3.3l2.1,3.3h-1.2v1.5L-354.3-166.5z M-366.8-156.3v-1.1l-8.4,5h20.9l-8.4-5v1.1h-1.2v2.9h-1.7
							v-2.9H-366.8z M-365.7-158l-1,0.6h1V-158z M-363.9-157.4h1l-1-0.6V-157.4z M-353-153.1v-12.5l-9.8,5.9v0.7h-0.1L-353-153.1z"
							/>
					</g>
					<g>
						<path fill="#FFFFFF" d="M-403-140.4c0-3.4-0.1-6.5,3.4-6.5c1.9,0,3.2,1.2,3.1,3h-1.7c0-0.9-0.5-1.8-1.5-1.8
							c-1.4,0-1.7,1.2-1.7,4.5h0c0.4-0.7,1.2-1.2,2-1.2c1.6,0,3,0.9,3,4.2c0,2.2-0.9,4.2-3.3,4.2C-403.1-134-403-137.2-403-140.4z
							 M-399.6-135.4c1.4,0,1.6-1.5,1.6-3.1c0-1.1-0.3-2.5-1.7-2.5c-1.5,0-1.7,1.6-1.7,2.7C-401.3-137.1-401.2-135.4-399.6-135.4z"
							/>
						<path fill="#FFFFFF" d="M-384.5-143.7c0-0.7,0-1.5-0.4-1.9c-0.3-0.4-1.1-0.6-1.5-0.6c-1.4,0-1.9,0.8-2,1
							c-0.1,0.1-0.4,0.5-0.4,2.7v3.5c0,3.2,1,3.6,2.3,3.6c0.5,0,2-0.2,2.1-2.7h1.7c0.1,4.1-2.8,4.1-3.7,4.1c-1.6,0-4.1-0.1-4.1-5.2
							v-3.7c0-3.7,1.6-4.7,4.2-4.7c2.6,0,3.6,1.3,3.4,3.9H-384.5z"/>
						<path fill="#FFFFFF" d="M-375.5-134.2v-6.2c0-1.1-0.4-1.9-1.6-1.9c-1.5,0-1.9,1.2-1.9,2.7v5.3h-1.5v-13h1.5v5.1h0.1
							c0.6-1.1,1.3-1.4,2.5-1.4c1.5,0,2.4,0.8,2.4,2.8v6.4H-375.5z"/>
						<path fill="#FFFFFF" d="M-370-138.3c0,2.5,0.7,3,1.8,3c1,0,1.5-0.8,1.6-1.7h1.6c0,2-1.3,2.9-3.2,2.9c-1.9,0-3.5-0.6-3.5-4.6
							c0-2.7,0.3-4.9,3.5-4.9c2.6,0,3.2,1.4,3.2,4.4v0.8H-370z M-366.4-139.4c0-2.6-0.7-3-1.8-3c-0.9,0-1.7,0.5-1.7,3H-366.4z"/>
						<path fill="#FFFFFF" d="M-359.7-134.1c-2,0-3.2-0.9-3.1-3h1.7c0,0.5,0,1.7,1.5,1.7c0.9,0,1.6-0.5,1.6-1.4
							c0-1.6-4.5-1.7-4.5-4.4c0-1,0.6-2.5,3.1-2.5c1.6,0,3,0.8,2.9,2.6h-1.6c0-1-0.5-1.5-1.4-1.5c-0.8,0-1.4,0.4-1.4,1.2
							c0,1.6,4.5,1.6,4.5,4.3C-356.5-134.8-357.9-134.1-359.7-134.1z"/>
					</g>
					<g>
						<path fill="#FFFFFF" d="M-367.3-178.2h1v7.2h-1V-178.2z"/>
						<path fill="#FFFFFF" d="M-364.6-178.2h1v7.2h-1V-178.2z"/>
					</g>
					<g>
						<path fill="#FFFFFF" d="M-388-163.6c-0.7,0.6-1.8,1.2-2.6,1.6v-1.6c1-0.5,2.1-1.2,2.7-1.7h1.4v11.1h-1.5V-163.6z"/>
					</g>
					<g>
						<path fill="#FFFFFF" d="M-384.6-124.2v-1l2.4-5.3h1.5v5.3h1v1h-1v2h-1v-2H-384.6z M-381.9-125.2v-4.3h0l-1.8,4.3H-381.9z"/>
						<path fill="#FFFFFF" d="M-379.3-124.2v-1l2.4-5.3h1.5v5.3h1v1h-1v2h-1v-2H-379.3z M-376.5-125.2v-4.3h0l-1.8,4.3H-376.5z"/>
					</g>
				</g>
			</g>
			<g id="BR_BR_6_DURLT_-_151-50_228_00000136413267846197902340000004607361802546309529_" transform="translate(262.5,337.5)">
				<g id="g170102_00000140734181083115149620000009485952728737004426_" transform="translate(-450,-1500)">
					
						<rect id="rect170100_00000123400468292853212250000007754821566727620490_" x="262.5" y="1162.5" fill="#ED2224" width="75" height="75"/>
				</g>
			</g>
		</g>
	</g>
</g>
<g id="text" display="none">
	
		<rect id="frontbox" x="-187.5" y="-337.5" display="inline" fill="none" stroke="#000000" stroke-miterlimit="10" width="1650" height="1275"/>
	<g id="align" display="inline">
	</g>
</g>
<g id="crop" display="none">
	<g id="front" display="inline">
		<g>
			<line fill="none" stroke="#939598" stroke-miterlimit="10" x1="-159.4" y1="0" x2="609.4" y2="0"/>
			<line fill="none" stroke="#939598" stroke-miterlimit="10" x1="-159.4" y1="75" x2="609.4" y2="75"/>
			<line fill="none" stroke="#939598" stroke-miterlimit="10" x1="0" y1="-84.4" x2="0" y2="84.4"/>
			<line fill="none" stroke="#939598" stroke-miterlimit="10" x1="75" y1="-84.4" x2="75" y2="84.4"/>
		</g>
	</g>
</g>
<g id="guides" display="none">
</g>
</svg>
