<?xml version="1.0" encoding="utf-8"?>
<!-- Generator: Adobe Illustrator 26.0.3, SVG Export Plug-In . SVG Version: 6.00 Build 0)  -->
<svg version="1.2" baseProfile="tiny" xmlns="http://www.w3.org/2000/svg" xmlns:xlink="http://www.w3.org/1999/xlink" x="0px"
	 y="0px" viewBox="0 0 75 75" overflow="visible" xml:space="preserve">
<g id="svg">
	<g>
		<g id="cs_layer_CNA_0002_00000023283088047694392320000015410210321053132443_">
			<g id="g169366_00000060018564281457370690000011209304467157080227_">
			</g>
			<g id="BR_BR_65_-_NONE_235_00000115479973611572123070000013298156015164200080_" transform="translate(37.5,450)">
				<g id="g170256_00000070119881761088417080000012404978390606495890_" transform="translate(-450,-1500)">
					
						<rect id="rect170254_00000080885813089891585980000013923198109463707540_" x="412.5" y="1050" fill="#ED2224" width="75" height="75"/>
				</g>
				<g id="g170273_00000036941810529535778040000000725353649341301380_" transform="translate(229.688,-150)">
					<g>
						<path fill="#FFFFFF" d="M-201.5-280.4v17H-228v-17H-201.5z M-226.6-279v13.1l10.9-13.1H-226.6z M-225.7-264.8h21.8l-10.9-13.1
							L-225.7-264.8z M-217.6-270c0-1.4,1.2-2.6,2.8-2.6c1.5,0,2.8,1.2,2.8,2.6c0,1.4-1.2,2.6-2.8,2.6
							C-216.3-267.4-217.6-268.6-217.6-270z M-203-279h-10.9l10.9,13.1V-279z"/>
					</g>
					<g>
						<path fill="#FFFFFF" d="M-237-252.9c0-3.4-0.1-6.5,3.4-6.5c1.9,0,3.2,1.2,3.1,3h-1.7c0-0.9-0.5-1.8-1.5-1.8
							c-1.4,0-1.7,1.2-1.7,4.5h0c0.4-0.7,1.2-1.2,2-1.2c1.6,0,3,0.9,3,4.2c0,2.2-0.9,4.2-3.3,4.2C-237.1-246.5-237-249.7-237-252.9z
							 M-233.6-247.9c1.4,0,1.6-1.5,1.6-3.1c0-1.1-0.3-2.5-1.7-2.5c-1.5,0-1.7,1.6-1.7,2.7C-235.3-249.6-235.2-247.9-233.6-247.9z"
							/>
						<path fill="#FFFFFF" d="M-222.8-259.2v1.4h-4.2v3.6l0,0c0.3-0.5,1.1-0.9,2-0.9c1.8,0,2.6,1.3,2.6,4.2c0,2-0.3,4.4-3.4,4.4
							c-2.6,0-3.1-1.4-3.1-3.1h1.7c0,1,0.4,1.9,1.5,1.9c1.6,0,1.7-1.5,1.7-2.8c0-1.8-0.1-3.2-1.6-3.2c-0.9,0-1.4,0.6-1.5,1.5h-1.5
							v-7H-222.8z"/>
					</g>
					<g>
						<path fill="#FFFFFF" d="M-218.7-290.7h1v7.2h-1V-290.7z"/>
						<path fill="#FFFFFF" d="M-215.9-290.7h1v7.2h-1V-290.7z"/>
						<path fill="#FFFFFF" d="M-213.2-290.7h1v7.2h-1V-290.7z"/>
					</g>
					<g>
						<path fill="#FFFFFF" d="M-238-276.1c-0.7,0.6-1.8,1.2-2.6,1.6v-1.6c1-0.5,2.1-1.2,2.7-1.7h1.4v11.1h-1.5V-276.1z"/>
					</g>
					<g>
						<path fill="#FFFFFF" d="M-232.9-238.4h2.6v0.9h-2.6V-238.4z"/>
						<path fill="#FFFFFF" d="M-228.9-238.4h2.6v0.9h-2.6V-238.4z"/>
					</g>
				</g>
			</g>
			<g id="BR_BR_65_FLD_-_44_236_00000181055940181479915290000015777665392028579007_" transform="translate(112.5,450)">
				<g id="g170278_00000002370575387430939740000001391736447688855179_" transform="translate(-450,-1500)">
					
						<rect id="rect170276_00000081629570259663043890000015018725964889738666_" x="412.5" y="1050" fill="#ED2224" width="75" height="75"/>
				</g>
			</g>
		</g>
	</g>
</g>
<g id="text" display="none">
	
		<rect id="frontbox" x="-37.5" y="-450" display="inline" fill="none" stroke="#000000" stroke-miterlimit="10" width="1650" height="1275"/>
	<g id="align" display="inline">
	</g>
</g>
<g id="crop" display="none">
	<g id="front" display="inline">
		<g>
			<line fill="none" stroke="#939598" stroke-miterlimit="10" x1="-9.4" y1="0" x2="759.4" y2="0"/>
			<line fill="none" stroke="#939598" stroke-miterlimit="10" x1="-9.4" y1="75" x2="759.4" y2="75"/>
			<line fill="none" stroke="#939598" stroke-miterlimit="10" x1="0" y1="-9.4" x2="0" y2="159.4"/>
			<line fill="none" stroke="#939598" stroke-miterlimit="10" x1="75" y1="-9.4" x2="75" y2="159.4"/>
		</g>
	</g>
</g>
<g id="guides" display="none">
</g>
</svg>
