<?xml version="1.0" encoding="utf-8"?>
<!-- Generator: Adobe Illustrator 26.0.3, SVG Export Plug-In . SVG Version: 6.00 Build 0)  -->
<svg version="1.2" baseProfile="tiny" xmlns="http://www.w3.org/2000/svg" xmlns:xlink="http://www.w3.org/1999/xlink" x="0px"
	 y="0px" viewBox="0 0 75 75" overflow="visible" xml:space="preserve">
<g id="svg">
	<g>
		<g id="cs_layer_CNA_0002_00000023283088047694392320000015410210321053132443_">
			<g id="g169366_00000060018564281457370690000011209304467157080227_">
			</g>
			<g id="BR_BR_7_-_7_242_00000150789756454808657920000014917281006807818414_" transform="translate(562.5,450)">
				<g id="g170412_00000054945141934271593110000012012910312705134241_" transform="translate(-450,-1500)">
					
						<rect id="rect170410_00000165223106418668821740000010116450986475716494_" x="-112.5" y="1050" fill="#ED2224" width="75" height="75"/>
				</g>
				<g id="g170429_00000023258854782198000760000014639304515608246690_" transform="translate(229.688,-150)">
					<g>
						<path fill="#FFFFFF" d="M-726.5-280.4v17H-753v-17H-726.5z M-728-279h-23.6v14.2h23.6V-279z M-748.7-268.9
							c-0.8-0.8-1.2-1.9-1.2-3c0-2.3,1.9-4.2,4.2-4.2c0,0,0,0,0,0v0h11.8c0,0,0,0,0,0c2.3,0,4.2,2,4.2,4.3c0,2.3-1.9,4.2-4.2,4.2
							c0,0,0,0,0,0v0h-11.8c0,0,0,0,0,0c0,0,0,0,0,0C-746.8-267.7-747.9-268.1-748.7-268.9z M-748.5-271.9c0,0.8,0.3,1.5,0.8,2
							c0.5,0.5,1.2,0.9,2,0.9h11.8c0,0,0,0,0,0c1.5,0,2.8-1.3,2.8-2.8c0-1.6-1.2-2.9-2.8-2.9v0h-11.8
							C-747.2-274.7-748.5-273.5-748.5-271.9z"/>
					</g>
					<g>
						<path fill="#FFFFFF" d="M-758.1-259.2h6.5v1.4l-3.3,11.1h-1.9l3.5-11.1h-4.8V-259.2z"/>
					</g>
					<g>
						<path fill="#FFFFFF" d="M-742.3-290.7h1v7.2h-1V-290.7z"/>
						<path fill="#FFFFFF" d="M-739.6-290.7h1v7.2h-1V-290.7z"/>
					</g>
					<g>
						<path fill="#FFFFFF" d="M-774.9-264.8c-0.9-2.1-1.9-4.8-1.9-7.1c0-1.3,0.3-2.5,0.7-3.7c0.4-1.4,0.9-2.5,1.1-3.2h1.1
							c-0.3,0.8-0.6,1.9-0.9,3.4c-0.3,1.5-0.4,2.5-0.4,3.5c0,2.3,0.6,4.1,1.5,7.2H-774.9z"/>
						<path fill="#FFFFFF" d="M-770.1-269.4c0,1.1,1,1.6,1.8,1.6c1.9,0,2.2-1.8,2.2-2.5c0-1.5-0.8-2.4-2.1-2.4
							c-0.6,0-1.2,0.2-1.5,0.6s-0.4,0.7-0.5,0.9h-1.5l0.3-6.6h6.2v1.3h-4.9l-0.2,3.6c0.3-0.3,1-1,2.3-1c2.2,0,3.3,1.7,3.3,3.6
							c0,2.2-1.5,3.8-4,3.8c-1.8,0-3.2-1-3.3-2.9H-770.1z"/>
						<path fill="#FFFFFF" d="M-761.5-278.8c0.9,2.1,1.9,4.8,1.9,7.1c0,1.3-0.3,2.5-0.7,3.7c-0.4,1.4-0.9,2.5-1.1,3.2h-1.1
							c0.3-0.8,0.6-1.9,0.9-3.4c0.3-1.5,0.4-2.5,0.4-3.5c0-2.3-0.6-4.1-1.5-7.1H-761.5z"/>
					</g>
					<g>
						<path fill="#FFFFFF" d="M-756.9-243h4.3v1l-2.2,7.4h-1.2l2.3-7.4h-3.2V-243z"/>
					</g>
				</g>
			</g>
			<g id="BR_BR_7_-_NONE_243_00000026121804057588610780000004542591079129090195_" transform="translate(637.5,450)">
				<g id="g170434_00000171714526782532912990000006365717594638194336_" transform="translate(-450,-1500)">
					
						<rect id="rect170432_00000145047125644390006770000015249718730348589489_" x="-112.5" y="1050" fill="#ED2224" width="75" height="75"/>
				</g>
			</g>
		</g>
	</g>
</g>
<g id="text" display="none">
	
		<rect id="frontbox" x="-562.5" y="-450" display="inline" fill="none" stroke="#000000" stroke-miterlimit="10" width="1650" height="1275"/>
	<g id="align" display="inline">
	</g>
</g>
<g id="crop" display="none">
	<g id="front" display="inline">
		<g>
			<line fill="none" stroke="#939598" stroke-miterlimit="10" x1="-534.4" y1="0" x2="234.4" y2="0"/>
			<line fill="none" stroke="#939598" stroke-miterlimit="10" x1="-534.4" y1="75" x2="234.4" y2="75"/>
			<line fill="none" stroke="#939598" stroke-miterlimit="10" x1="0" y1="-9.4" x2="0" y2="159.4"/>
			<line fill="none" stroke="#939598" stroke-miterlimit="10" x1="75" y1="-9.4" x2="75" y2="159.4"/>
		</g>
	</g>
</g>
<g id="guides" display="none">
</g>
</svg>
