<?xml version="1.0" encoding="utf-8"?>
<!-- Generator: Adobe Illustrator 26.0.3, SVG Export Plug-In . SVG Version: 6.00 Build 0)  -->
<svg version="1.2" baseProfile="tiny" xmlns="http://www.w3.org/2000/svg" xmlns:xlink="http://www.w3.org/1999/xlink" x="0px"
	 y="0px" viewBox="0 0 75 75" overflow="visible" xml:space="preserve">
<g id="svg">
	<g>
		<g id="cs_layer_CNA_0002_00000023283088047694392320000015410210321053132443_">
			<g id="g169366_00000060018564281457370690000011209304467157080227_">
			</g>
			<g id="BR_BR_69_-_50_239_00000056413828162183157230000013653841566322808485_" transform="translate(337.5,450)">
				<g id="g170344_00000091013695773607509420000010326045460835203218_" transform="translate(-450,-1500)">
					
						<rect id="rect170342_00000049931062522538283530000013615405231022940312_" x="112.5" y="1050" fill="#ED2224" width="75" height="75"/>
				</g>
				<g id="g170363_00000111909187887475540370000017030980020991121848_" transform="translate(229.688,-150)">
					
						<rect id="rect170346_00000127751297206546918510000000885925309271177602_" x="-567.2" y="-281.2" fill="#7F1416" width="75" height="18.8"/>
					<g>
						<path fill="#FFFFFF" d="M-501.5-280.4v17H-528v-17H-501.5z M-526.6-278.2v12.5l10.4-6.3L-526.6-278.2z M-504.3-279h-20.9
							l10.4,6.3L-504.3-279z M-525.2-264.8h20.9l-10.4-6.3L-525.2-264.8z M-513.4-271.9l10.4,6.3v-12.5L-513.4-271.9z"/>
					</g>
					<g>
						<path fill="#FFFFFF" d="M-537-252.9c0-3.4-0.1-6.5,3.4-6.5c1.9,0,3.2,1.2,3.1,3h-1.7c0-0.9-0.5-1.8-1.5-1.8
							c-1.4,0-1.7,1.2-1.7,4.5h0c0.4-0.7,1.2-1.2,2-1.2c1.6,0,3,0.9,3,4.2c0,2.2-0.9,4.2-3.3,4.2C-537.1-246.5-537-249.7-537-252.9z
							 M-533.6-247.9c1.4,0,1.6-1.5,1.6-3.1c0-1.1-0.3-2.5-1.7-2.5c-1.5,0-1.7,1.6-1.7,2.7C-535.3-249.6-535.2-247.9-533.6-247.9z"
							/>
						<path fill="#FFFFFF" d="M-522.3-252.9c0,3.3,0,6.5-3.4,6.5c-1.9,0-3.1-1.3-3.1-3.3h1.7c0,0.9,0.4,1.9,1.4,1.9
							c1.6,0,1.7-1.8,1.7-5h0c-0.4,0.9-1.2,1.2-2.1,1.2c-1,0-2.9-0.5-2.9-3.9c0-2.8,1.7-3.8,3.3-3.8
							C-522.3-259.4-522.3-256.3-522.3-252.9z M-527.4-255.6c0,1.2,0.2,2.6,1.7,2.6s1.7-1.4,1.7-2.6c0-1.1-0.3-2.6-1.7-2.6
							C-527.1-258.2-527.4-256.8-527.4-255.6z"/>
					</g>
					<g>
						<path fill="#FFFFFF" d="M-517.3-290.7l1.9,2.8l1.9-2.8h1.2l-2.6,3.5l2.7,3.8h-1.3l-2.1-3.1l-2.2,3.1h-1.2l2.8-3.8l-2.5-3.4
							H-517.3z"/>
					</g>
					<g>
						<path fill="#FFFFFF" d="M-538-276.1c-0.7,0.6-1.8,1.2-2.6,1.6v-1.6c1-0.5,2.1-1.2,2.7-1.7h1.4v11.1h-1.5V-276.1z"/>
					</g>
					<g>
						<path fill="#FFFFFF" d="M-530.4-243v1h-2.8v2.4l0,0c0.2-0.4,0.8-0.6,1.3-0.6c1.2,0,1.7,0.9,1.7,2.8c0,1.3-0.2,2.9-2.3,2.9
							c-1.7,0-2.1-0.9-2.1-2.1h1.1c0,0.6,0.3,1.3,1,1.3c1,0,1.1-1,1.1-1.8c0-1.2,0-2.2-1.1-2.2c-0.6,0-0.9,0.4-1,1h-1v-4.7H-530.4z"
							/>
						<path fill="#FFFFFF" d="M-524.7-238.8c0,2.2,0,4.3-2.2,4.3s-2.2-2.1-2.2-4.3c0-2.2,0-4.3,2.2-4.3
							C-524.7-243.1-524.7-241-524.7-238.8z M-528.1-238.6c0,1.4-0.1,3.2,1.1,3.2s1.1-1.8,1.1-3.2c0-2.2,0-3.6-1.1-3.6
							C-528.1-242.2-528.1-240.8-528.1-238.6z"/>
					</g>
				</g>
			</g>
			<g id="BR_BR_69_MED_-_NONE_240_00000018204250290483629180000017892209127635569333_" transform="translate(412.5,450)">
				<g id="g170368_00000005263504176200133860000015395681042815057549_" transform="translate(-450,-1500)">
					
						<rect id="rect170366_00000106861924034815753350000014834762139320732804_" x="112.5" y="1050" fill="#ED2224" width="75" height="75"/>
				</g>
			</g>
		</g>
	</g>
</g>
<g id="text" display="none">
	
		<rect id="frontbox" x="-337.5" y="-450" display="inline" fill="none" stroke="#000000" stroke-miterlimit="10" width="1650" height="1275"/>
	<g id="align" display="inline">
	</g>
</g>
<g id="crop" display="none">
	<g id="front" display="inline">
		<g>
			<line fill="none" stroke="#939598" stroke-miterlimit="10" x1="-309.4" y1="0" x2="459.4" y2="0"/>
			<line fill="none" stroke="#939598" stroke-miterlimit="10" x1="-309.4" y1="75" x2="459.4" y2="75"/>
			<line fill="none" stroke="#939598" stroke-miterlimit="10" x1="0" y1="-9.4" x2="0" y2="159.4"/>
			<line fill="none" stroke="#939598" stroke-miterlimit="10" x1="75" y1="-9.4" x2="75" y2="159.4"/>
		</g>
	</g>
</g>
<g id="guides" display="none">
</g>
</svg>
