<?xml version="1.0" encoding="utf-8"?>
<!-- Generator: Adobe Illustrator 26.0.3, SVG Export Plug-In . SVG Version: 6.00 Build 0)  -->
<svg version="1.2" baseProfile="tiny" xmlns="http://www.w3.org/2000/svg" xmlns:xlink="http://www.w3.org/1999/xlink" x="0px"
	 y="0px" viewBox="0 0 75 75" overflow="visible" xml:space="preserve">
<g id="svg">
	<g>
		<g id="cs_layer_CNA_0002_00000023283088047694392320000015410210321053132443_">
			<g id="g169366_00000060018564281457370690000011209304467157080227_">
			</g>
			<g id="BR_BR_68_MED_-_NONE_238_00000118392692556444474630000011051211538358349747_" transform="translate(262.5,450)">
				<g id="g170322_00000179634187670059209180000007334279878616439454_" transform="translate(-450,-1500)">
					
						<rect id="rect170320_00000102530134666859316560000008023723636471702934_" x="187.5" y="1050" fill="#ED2224" width="75" height="75"/>
				</g>
				<g id="g170339_00000008137355700289529930000013284964782650996645_" transform="translate(229.688,-150)">
					<g>
						<path fill="#FFFFFF" d="M-426.5-280.4v17H-453v-17H-426.5z M-428-279h-23.6v14.2h23.6V-279z M-442.6-271.9
							c0-1.4,1.2-2.6,2.8-2.6c1.5,0,2.8,1.2,2.8,2.6c0,1.4-1.2,2.6-2.8,2.6C-441.3-269.3-442.6-270.5-442.6-271.9z"/>
					</g>
					<g>
						<path fill="#FFFFFF" d="M-480.5-252.9c0-3.4-0.1-6.5,3.4-6.5c1.9,0,3.2,1.2,3.1,3h-1.7c0-0.9-0.5-1.8-1.5-1.8
							c-1.4,0-1.7,1.2-1.7,4.5h0c0.4-0.7,1.2-1.2,2-1.2c1.6,0,3,0.9,3,4.2c0,2.2-0.9,4.2-3.3,4.2
							C-480.5-246.5-480.5-249.7-480.5-252.9z M-477.1-247.9c1.4,0,1.6-1.5,1.6-3.1c0-1.1-0.3-2.5-1.7-2.5c-1.5,0-1.7,1.6-1.7,2.7
							C-478.8-249.6-478.7-247.9-477.1-247.9z"/>
						<path fill="#FFFFFF" d="M-468.2-253.4c1.8,0.2,2.3,1.6,2.3,3.2c0,2.3-1.2,3.6-3.3,3.6s-3.3-1.4-3.3-3.6c0-1.6,0.5-3.1,2.3-3.2
							v0c-1.5-0.3-2.2-1.5-2.2-2.9c0-2,1.2-3.1,3.2-3.1c2,0,3.2,1.2,3.2,3.1C-466-254.9-466.7-253.7-468.2-253.4L-468.2-253.4z
							 M-467.5-250.1c0-1.1-0.1-2.6-1.7-2.6s-1.7,1.4-1.7,2.6c0,1.1,0.4,2.2,1.7,2.2C-467.9-247.9-467.5-249-467.5-250.1z
							 M-467.6-256.4c0-0.9-0.5-1.9-1.5-1.9c-1.1,0-1.5,0.9-1.5,1.9c0,0.9,0.3,2.3,1.5,2.3C-467.9-254.1-467.6-255.4-467.6-256.4z"
							/>
						<path fill="#FFFFFF" d="M-458.2-246.7h-1.5v-13h2.7l3.3,10.9h0l3.3-10.9h2.7v13h-1.7v-11.6h0l-3.6,11.6h-1.6l-3.6-11.6h0
							V-246.7z"/>
						<path fill="#FFFFFF" d="M-443.5-250.8c0,2.5,0.7,3,1.8,3c1,0,1.5-0.8,1.6-1.7h1.6c0,2-1.3,2.9-3.2,2.9c-1.9,0-3.5-0.6-3.5-4.6
							c0-2.7,0.3-4.9,3.5-4.9c2.6,0,3.2,1.4,3.2,4.4v0.8H-443.5z M-439.9-251.9c0-2.6-0.7-3-1.8-3c-0.9,0-1.7,0.5-1.7,3H-439.9z"/>
						<path fill="#FFFFFF" d="M-431.1-259.7h1.5v13h-1.5v-1.1h0c-0.5,0.8-1.1,1.3-2.1,1.3c-1.5,0-2.9-0.6-2.9-4.6
							c0-2.3,0.1-4.9,3-4.9c0.9,0,1.5,0.4,2,1.1h0.1V-259.7z M-432.8-254.8c-1.6,0-1.8,1.3-1.8,3.7c0,1.4,0,3.3,1.9,3.3
							c1.7,0,1.7-2.1,1.7-3.9C-431.1-252.9-431.2-254.8-432.8-254.8z"/>
					</g>
					<g>
						<path fill="#FFFFFF" d="M-443.7-290.7h1v7.2h-1V-290.7z"/>
						<path fill="#FFFFFF" d="M-440.9-290.7h1v7.2h-1V-290.7z"/>
						<path fill="#FFFFFF" d="M-438.2-290.7h1v7.2h-1V-290.7z"/>
					</g>
					<g>
						<path fill="#FFFFFF" d="M-474.9-264.8c-0.9-2.1-1.9-4.8-1.9-7.1c0-1.3,0.3-2.5,0.7-3.7c0.4-1.4,0.9-2.5,1.1-3.2h1.1
							c-0.3,0.8-0.6,1.9-0.9,3.4c-0.3,1.5-0.4,2.5-0.4,3.5c0,2.3,0.6,4.1,1.5,7.2H-474.9z"/>
						<path fill="#FFFFFF" d="M-471.8-268.2l2.9-2.8c0.6-0.6,1.2-1.2,1.7-1.9c0.6-0.9,0.8-1.4,0.8-2c0-0.5-0.2-1.8-1.8-1.8
							c-1.8,0-1.8,1.5-1.8,1.9h-1.7c0-0.5,0.1-1.6,1-2.4c0.8-0.7,1.7-0.8,2.4-0.8c1.7,0,3.4,0.9,3.4,3.2c0,0.7,0,1.2-1.2,2.8
							c-0.3,0.4-1.7,1.9-2,2.2l-1.9,1.8h5.3v1.3h-7V-268.2z"/>
						<path fill="#FFFFFF" d="M-461.5-278.8c0.9,2.1,1.9,4.8,1.9,7.1c0,1.3-0.3,2.5-0.7,3.7c-0.4,1.4-0.9,2.5-1.1,3.2h-1.1
							c0.3-0.8,0.6-1.9,0.9-3.4c0.3-1.5,0.4-2.5,0.4-3.5c0-2.3-0.6-4.1-1.5-7.1H-461.5z"/>
					</g>
					<g>
						<path fill="#FFFFFF" d="M-457.9-238.4h2.6v0.9h-2.6V-238.4z"/>
						<path fill="#FFFFFF" d="M-453.9-238.4h2.6v0.9h-2.6V-238.4z"/>
					</g>
				</g>
			</g>
			<g id="BR_BR_69_-_50_239_00000056413828162183157230000013653841566322808485_" transform="translate(337.5,450)">
				<g id="g170344_00000091013695773607509420000010326045460835203218_" transform="translate(-450,-1500)">
					
						<rect id="rect170342_00000049931062522538283530000013615405231022940312_" x="187.5" y="1050" fill="#ED2224" width="75" height="75"/>
				</g>
			</g>
		</g>
	</g>
</g>
<g id="text" display="none">
	
		<rect id="frontbox" x="-262.5" y="-450" display="inline" fill="none" stroke="#000000" stroke-miterlimit="10" width="1650" height="1275"/>
	<g id="align" display="inline">
	</g>
</g>
<g id="crop" display="none">
	<g id="front" display="inline">
		<g>
			<line fill="none" stroke="#939598" stroke-miterlimit="10" x1="-234.4" y1="0" x2="534.4" y2="0"/>
			<line fill="none" stroke="#939598" stroke-miterlimit="10" x1="-234.4" y1="75" x2="534.4" y2="75"/>
			<line fill="none" stroke="#939598" stroke-miterlimit="10" x1="0" y1="-9.4" x2="0" y2="159.4"/>
			<line fill="none" stroke="#939598" stroke-miterlimit="10" x1="75" y1="-9.4" x2="75" y2="159.4"/>
		</g>
	</g>
</g>
<g id="guides" display="none">
</g>
</svg>
