<?xml version="1.0" encoding="utf-8"?>
<!-- Generator: Adobe Illustrator 26.0.3, SVG Export Plug-In . SVG Version: 6.00 Build 0)  -->
<svg version="1.2" baseProfile="tiny" xmlns="http://www.w3.org/2000/svg" xmlns:xlink="http://www.w3.org/1999/xlink" x="0px"
	 y="0px" viewBox="0 0 75 75" overflow="visible" xml:space="preserve">
<g id="svg">
	<g>
		<g id="cs_layer_CNA_0002_00000023283088047694392320000015410210321053132443_">
			<g id="g169366_00000060018564281457370690000011209304467157080227_">
			</g>
			<g id="BR_BR_65_FLD_-_44_236_00000181055940181479915290000015777665392028579007_" transform="translate(112.5,450)">
				<g id="g170278_00000002370575387430939740000001391736447688855179_" transform="translate(-450,-1500)">
					
						<rect id="rect170276_00000081629570259663043890000015018725964889738666_" x="337.5" y="1050" fill="#ED2224" width="75" height="75"/>
				</g>
				<g id="g170295_00000096036278437989554690000014089868921999467183_" transform="translate(229.688,-150)">
					<g>
						<path fill="#FFFFFF" d="M-276.5-280.4v17H-303v-17H-276.5z M-278-279h-23.6v14.2h23.6V-279z M-292.6-271.9
							c0-1.4,1.2-2.6,2.8-2.6c1.5,0,2.8,1.2,2.8,2.6c0,1.4-1.2,2.6-2.8,2.6C-291.3-269.3-292.6-270.5-292.6-271.9z"/>
					</g>
					<g>
						<path fill="#FFFFFF" d="M-324.5-252.9c0-3.4-0.1-6.5,3.4-6.5c1.9,0,3.2,1.2,3.1,3h-1.7c0-0.9-0.5-1.8-1.5-1.8
							c-1.4,0-1.7,1.2-1.7,4.5h0c0.4-0.7,1.2-1.2,2-1.2c1.6,0,3,0.9,3,4.2c0,2.2-0.9,4.2-3.3,4.2
							C-324.5-246.5-324.5-249.7-324.5-252.9z M-321.1-247.9c1.4,0,1.6-1.5,1.6-3.1c0-1.1-0.3-2.5-1.7-2.5c-1.5,0-1.7,1.6-1.7,2.7
							C-322.8-249.6-322.7-247.9-321.1-247.9z"/>
						<path fill="#FFFFFF" d="M-310.3-259.2v1.4h-4.2v3.6l0,0c0.3-0.5,1.1-0.9,2-0.9c1.8,0,2.6,1.3,2.6,4.2c0,2-0.3,4.4-3.4,4.4
							c-2.6,0-3.1-1.4-3.1-3.1h1.7c0,1,0.4,1.9,1.5,1.9c1.6,0,1.7-1.5,1.7-2.8c0-1.8-0.1-3.2-1.6-3.2c-0.9,0-1.4,0.6-1.5,1.5h-1.5
							v-7H-310.3z"/>
						<path fill="#FFFFFF" d="M-303.9-246.7v-13h6.4v1.4h-4.8v4.2h4.5v1.4h-4.5v5.9H-303.9z"/>
						<path fill="#FFFFFF" d="M-294.5-246.7h-1.5v-13h1.5V-246.7z"/>
						<path fill="#FFFFFF" d="M-287.1-259.7h1.5v13h-1.5v-1.1h0c-0.5,0.8-1.1,1.3-2.1,1.3c-1.5,0-2.9-0.6-2.9-4.6
							c0-2.3,0.1-4.9,3-4.9c0.9,0,1.5,0.4,2,1.1h0.1V-259.7z M-288.8-254.8c-1.6,0-1.8,1.3-1.8,3.7c0,1.4,0,3.3,1.9,3.3
							c1.7,0,1.7-2.1,1.7-3.9C-287.1-252.9-287.2-254.8-288.8-254.8z"/>
					</g>
					<g>
						<path fill="#FFFFFF" d="M-293.7-290.7h1v7.2h-1V-290.7z"/>
						<path fill="#FFFFFF" d="M-290.9-290.7h1v7.2h-1V-290.7z"/>
						<path fill="#FFFFFF" d="M-288.2-290.7h1v7.2h-1V-290.7z"/>
					</g>
					<g>
						<path fill="#FFFFFF" d="M-313-276.1c-0.7,0.6-1.8,1.2-2.6,1.6v-1.6c1-0.5,2.1-1.2,2.7-1.7h1.4v11.1h-1.5V-276.1z"/>
					</g>
					<g>
						<path fill="#FFFFFF" d="M-309.6-236.7v-1l2.4-5.3h1.5v5.3h1v1h-1v2h-1v-2H-309.6z M-306.9-237.7v-4.3h0l-1.8,4.3H-306.9z"/>
						<path fill="#FFFFFF" d="M-304.3-236.7v-1l2.4-5.3h1.5v5.3h1v1h-1v2h-1v-2H-304.3z M-301.5-237.7v-4.3h0l-1.8,4.3H-301.5z"/>
					</g>
				</g>
			</g>
			<g id="BR_BR_67_MED_-_NONE_237_00000114766402183515546050000013821219602958636442_" transform="translate(187.5,450)">
				<g id="g170300_00000026134362518015334630000005834777519235911325_" transform="translate(-450,-1500)">
					
						<rect id="rect170298_00000056388405042947580010000011621746838172008839_" x="337.5" y="1050" fill="#ED2224" width="75" height="75"/>
				</g>
			</g>
		</g>
	</g>
</g>
<g id="text" display="none">
	
		<rect id="frontbox" x="-112.5" y="-450" display="inline" fill="none" stroke="#000000" stroke-miterlimit="10" width="1650" height="1275"/>
	<g id="align" display="inline">
	</g>
</g>
<g id="crop" display="none">
	<g id="front" display="inline">
		<g>
			<line fill="none" stroke="#939598" stroke-miterlimit="10" x1="-84.4" y1="0" x2="684.4" y2="0"/>
			<line fill="none" stroke="#939598" stroke-miterlimit="10" x1="-84.4" y1="75" x2="684.4" y2="75"/>
			<line fill="none" stroke="#939598" stroke-miterlimit="10" x1="0" y1="-9.4" x2="0" y2="159.4"/>
			<line fill="none" stroke="#939598" stroke-miterlimit="10" x1="75" y1="-9.4" x2="75" y2="159.4"/>
		</g>
	</g>
</g>
<g id="guides" display="none">
</g>
</svg>
