<?xml version="1.0" encoding="utf-8"?>
<!-- Generator: Adobe Illustrator 26.0.3, SVG Export Plug-In . SVG Version: 6.00 Build 0)  -->
<svg version="1.2" baseProfile="tiny" xmlns="http://www.w3.org/2000/svg" xmlns:xlink="http://www.w3.org/1999/xlink" x="0px"
	 y="0px" viewBox="0 0 75 75" overflow="visible" xml:space="preserve">
<g id="svg">
	<g>
		<g id="cs_layer_CNA_0002_00000023283088047694392320000015410210321053132443_">
			<g id="g169366_00000060018564281457370690000011209304467157080227_">
			</g>
			<g id="BR_BR_7_-_NONE_243_00000026121804057588610780000004542591079129090195_" transform="translate(637.5,450)">
				<g id="g170434_00000171714526782532912990000006365717594638194336_" transform="translate(-450,-1500)">
					
						<rect id="rect170432_00000145047125644390006770000015249718730348589489_" x="-187.5" y="1050" fill="#ED2224" width="75" height="75"/>
				</g>
				<g id="g170453_00000090264245914652711790000003659897235910883507_" transform="translate(229.688,-150)">
					
						<rect id="rect170436_00000007420361401476770000000016564742431165521300_" x="-867.2" y="-281.2" fill="#7F1416" width="75" height="18.8"/>
					<g>
						<path fill="#FFFFFF" d="M-801.5-280.4v17H-828v-17H-801.5z M-803-279h-23.6v14.2h23.6V-279z M-823.7-268.9
							c-0.8-0.8-1.2-1.9-1.2-3c0-2.3,1.9-4.2,4.2-4.2c0,0,0,0,0,0v0h11.8c0,0,0,0,0,0c2.3,0,4.2,2,4.2,4.3c0,2.3-1.9,4.2-4.2,4.2
							c0,0,0,0,0,0v0h-11.8c0,0,0,0,0,0c0,0,0,0,0,0C-821.8-267.7-822.9-268.1-823.7-268.9z M-823.5-271.9c0,0.8,0.3,1.5,0.8,2
							c0.5,0.5,1.2,0.9,2,0.9h11.8c0,0,0,0,0,0c1.5,0,2.8-1.3,2.8-2.8c0-1.6-1.2-2.9-2.8-2.9v0h-11.8
							C-822.2-274.7-823.5-273.5-823.5-271.9z"/>
					</g>
					<g>
						<path fill="#FFFFFF" d="M-833.1-259.2h6.5v1.4l-3.3,11.1h-1.9l3.5-11.1h-4.8V-259.2z"/>
					</g>
					<g>
						<path fill="#FFFFFF" d="M-820.9-290.7l1.9,2.8l1.9-2.8h1.2l-2.6,3.5l2.7,3.8h-1.3l-2.1-3.1l-2.2,3.1h-1.2l2.8-3.8l-2.5-3.4
							H-820.9z"/>
						<path fill="#FFFFFF" d="M-813.7-290.7l1.9,2.8l1.9-2.8h1.2l-2.6,3.5l2.7,3.8h-1.3l-2.1-3.1l-2.2,3.1h-1.2l2.8-3.8l-2.5-3.4
							H-813.7z"/>
					</g>
					<g>
						<path fill="#FFFFFF" d="M-838-276.1c-0.7,0.6-1.8,1.2-2.6,1.6v-1.6c1-0.5,2.1-1.2,2.7-1.7h1.4v11.1h-1.5V-276.1z"/>
					</g>
					<g>
						<path fill="#FFFFFF" d="M-832.9-238.4h2.6v0.9h-2.6V-238.4z"/>
						<path fill="#FFFFFF" d="M-828.9-238.4h2.6v0.9h-2.6V-238.4z"/>
					</g>
				</g>
			</g>
			
				<g id="BR_x5F_BR_x5F_7_x5F_A_x26_S_x5F_-_x5F_154-51_x5F_244_00000146479352198573460420000012032475480162995335_" transform="translate(712.5,450)">
				<g id="g170458_00000145038602793548264840000004533792503572130713_" transform="translate(-450,-1500)">
					
						<rect id="rect170456_00000132087340971774055010000009359789106667431575_" x="-187.5" y="1050" fill="#ED2224" width="75" height="75"/>
				</g>
			</g>
		</g>
	</g>
</g>
<g id="text" display="none">
	
		<rect id="frontbox" x="-637.5" y="-450" display="inline" fill="none" stroke="#000000" stroke-miterlimit="10" width="1650" height="1275"/>
	<g id="align" display="inline">
	</g>
</g>
<g id="crop" display="none">
	<g id="front" display="inline">
		<g>
			<line fill="none" stroke="#939598" stroke-miterlimit="10" x1="-609.4" y1="0" x2="159.4" y2="0"/>
			<line fill="none" stroke="#939598" stroke-miterlimit="10" x1="-609.4" y1="75" x2="159.4" y2="75"/>
			<line fill="none" stroke="#939598" stroke-miterlimit="10" x1="0" y1="-9.4" x2="0" y2="159.4"/>
			<line fill="none" stroke="#939598" stroke-miterlimit="10" x1="75" y1="-9.4" x2="75" y2="159.4"/>
		</g>
	</g>
</g>
<g id="guides" display="none">
</g>
</svg>
