<?xml version="1.0" encoding="utf-8"?>
<!-- Generator: Adobe Illustrator 26.0.3, SVG Export Plug-In . SVG Version: 6.00 Build 0)  -->
<svg version="1.2" baseProfile="tiny" xmlns="http://www.w3.org/2000/svg" xmlns:xlink="http://www.w3.org/1999/xlink" x="0px"
	 y="0px" viewBox="0 0 75 75" overflow="visible" xml:space="preserve">
<g id="svg">
	<g>
		<g id="cs_layer_CNA_0002_00000023283088047694392320000015410210321053132443_">
			<g id="g169366_00000060018564281457370690000011209304467157080227_">
			</g>
			<g id="BR_BR_69_MED_-_NONE_240_00000018204250290483629180000017892209127635569333_" transform="translate(412.5,450)">
				<g id="g170368_00000005263504176200133860000015395681042815057549_" transform="translate(-450,-1500)">
					
						<rect id="rect170366_00000106861924034815753350000014834762139320732804_" x="37.5" y="1050" fill="#ED2224" width="75" height="75"/>
				</g>
				<g id="g170385_00000156586701847508718870000005272894570133728437_" transform="translate(229.688,-150)">
					<g>
						<path fill="#FFFFFF" d="M-576.5-280.4v17H-603v-17H-576.5z M-578-279h-23.6v14.2h23.6V-279z M-592.6-271.9
							c0-1.4,1.2-2.6,2.8-2.6s2.8,1.2,2.8,2.6c0,1.4-1.2,2.6-2.8,2.6S-592.6-270.5-592.6-271.9z"/>
					</g>
					<g>
						<path fill="#FFFFFF" d="M-630.5-252.9c0-3.4-0.1-6.5,3.4-6.5c1.9,0,3.2,1.2,3.1,3h-1.7c0-0.9-0.5-1.8-1.5-1.8
							c-1.3,0-1.7,1.2-1.7,4.5h0c0.4-0.7,1.2-1.2,2-1.2c1.6,0,3,0.9,3,4.2c0,2.2-0.9,4.2-3.3,4.2
							C-630.5-246.5-630.5-249.7-630.5-252.9z M-627.1-247.9c1.4,0,1.6-1.5,1.6-3.1c0-1.1-0.3-2.5-1.7-2.5c-1.5,0-1.7,1.6-1.7,2.7
							C-628.8-249.6-628.7-247.9-627.1-247.9z"/>
						<path fill="#FFFFFF" d="M-615.8-252.9c0,3.3,0,6.5-3.4,6.5c-1.9,0-3.1-1.3-3.1-3.3h1.7c0,0.9,0.4,1.9,1.4,1.9
							c1.6,0,1.7-1.8,1.7-5h0c-0.4,0.9-1.2,1.2-2.1,1.2c-1,0-2.9-0.5-2.9-3.9c0-2.8,1.7-3.8,3.3-3.8
							C-615.8-259.4-615.8-256.3-615.8-252.9z M-620.9-255.6c0,1.2,0.2,2.6,1.7,2.6s1.7-1.4,1.7-2.6c0-1.1-0.3-2.6-1.7-2.6
							C-620.6-258.2-620.9-256.8-620.9-255.6z"/>
						<path fill="#FFFFFF" d="M-608.2-246.7h-1.5v-13h2.7l3.3,10.9h0l3.3-10.9h2.7v13h-1.7v-11.6h0l-3.6,11.6h-1.6l-3.6-11.6h0
							V-246.7z"/>
						<path fill="#FFFFFF" d="M-593.5-250.8c0,2.5,0.7,3,1.8,3c1,0,1.5-0.8,1.6-1.7h1.6c0,2-1.3,2.9-3.2,2.9c-1.9,0-3.5-0.6-3.5-4.6
							c0-2.7,0.3-4.9,3.5-4.9c2.6,0,3.2,1.4,3.2,4.4v0.8H-593.5z M-589.9-251.9c0-2.6-0.7-3-1.8-3c-0.9,0-1.7,0.5-1.7,3H-589.9z"/>
						<path fill="#FFFFFF" d="M-581.1-259.7h1.5v13h-1.5v-1.1h0c-0.5,0.8-1.1,1.3-2.1,1.3c-1.5,0-2.9-0.6-2.9-4.6
							c0-2.3,0.1-4.9,3-4.9c0.9,0,1.5,0.4,2,1.1h0.1V-259.7z M-582.8-254.8c-1.6,0-1.8,1.3-1.8,3.7c0,1.4,0,3.3,1.9,3.3
							c1.7,0,1.7-2.1,1.7-3.9C-581.1-252.9-581.2-254.8-582.8-254.8z"/>
					</g>
					<g>
						<path fill="#FFFFFF" d="M-593.7-290.7h1v7.2h-1V-290.7z"/>
						<path fill="#FFFFFF" d="M-590.9-290.7h1v7.2h-1V-290.7z"/>
						<path fill="#FFFFFF" d="M-588.2-290.7h1v7.2h-1V-290.7z"/>
					</g>
					<g>
						<path fill="#FFFFFF" d="M-613-276.1c-0.7,0.6-1.8,1.2-2.6,1.6v-1.6c1-0.5,2.1-1.2,2.7-1.7h1.4v11.1h-1.5V-276.1z"/>
					</g>
					<g>
						<path fill="#FFFFFF" d="M-607.9-238.4h2.6v0.9h-2.6V-238.4z"/>
						<path fill="#FFFFFF" d="M-603.9-238.4h2.6v0.9h-2.6V-238.4z"/>
					</g>
				</g>
			</g>
			<g id="BR_BR_6GRNHO_-_69-50_241_00000158743499398072190740000012239267497832567954_" transform="translate(487.5,450)">
				<g id="g170390_00000175321503209846439640000012912447459023879569_" transform="translate(-450,-1500)">
					
						<rect id="rect170388_00000073707872881550603020000011323238207574184374_" x="37.5" y="1050" fill="#ED2224" width="75" height="75"/>
				</g>
			</g>
		</g>
	</g>
</g>
<g id="text" display="none">
	
		<rect id="frontbox" x="-412.5" y="-450" display="inline" fill="none" stroke="#000000" stroke-miterlimit="10" width="1650" height="1275"/>
	<g id="align" display="inline">
	</g>
</g>
<g id="crop" display="none">
	<g id="front" display="inline">
		<g>
			<line fill="none" stroke="#939598" stroke-miterlimit="10" x1="-384.4" y1="0" x2="384.4" y2="0"/>
			<line fill="none" stroke="#939598" stroke-miterlimit="10" x1="-384.4" y1="75" x2="384.4" y2="75"/>
			<line fill="none" stroke="#939598" stroke-miterlimit="10" x1="0" y1="-9.4" x2="0" y2="159.4"/>
			<line fill="none" stroke="#939598" stroke-miterlimit="10" x1="75" y1="-9.4" x2="75" y2="159.4"/>
		</g>
	</g>
</g>
<g id="guides" display="none">
</g>
</svg>
