<?xml version="1.0" encoding="utf-8"?>
<!-- Generator: Adobe Illustrator 26.0.3, SVG Export Plug-In . SVG Version: 6.00 Build 0)  -->
<svg version="1.2" baseProfile="tiny" xmlns="http://www.w3.org/2000/svg" xmlns:xlink="http://www.w3.org/1999/xlink" x="0px"
	 y="0px" viewBox="0 0 75 75" overflow="visible" xml:space="preserve">
<g id="svg">
	<g>
		<g id="cs_layer_CNA_0002_00000023283088047694392320000015410210321053132443_">
			<g id="g169366_00000060018564281457370690000011209304467157080227_">
			</g>
			<g id="BR_BR_6GRNHO_-_69-50_241_00000158743499398072190740000012239267497832567954_" transform="translate(487.5,450)">
				<g id="g170390_00000175321503209846439640000012912447459023879569_" transform="translate(-450,-1500)">
					
						<rect id="rect170388_00000073707872881550603020000011323238207574184374_" x="-37.5" y="1050" fill="#ED2224" width="75" height="75"/>
				</g>
				<g id="g170407_00000032630322910164431230000003352081654137304717_" transform="translate(229.688,-150)">
					<g>
						<path fill="#FFFFFF" d="M-651.5-280.4v17H-678v-17H-651.5z M-676.6-278.2v12.5l10.4-6.3L-676.6-278.2z M-654.3-279h-20.9
							l10.4,6.3L-654.3-279z M-675.2-264.8h20.9l-10.4-6.3L-675.2-264.8z M-663.4-271.9l10.4,6.3v-12.5L-663.4-271.9z"/>
					</g>
					<g>
						<path fill="#FFFFFF" d="M-706-252.9c0-3.4-0.1-6.5,3.4-6.5c1.9,0,3.2,1.2,3.1,3h-1.7c0-0.9-0.5-1.8-1.5-1.8
							c-1.3,0-1.7,1.2-1.7,4.5h0c0.4-0.7,1.2-1.2,2-1.2c1.6,0,3,0.9,3,4.2c0,2.2-0.9,4.2-3.3,4.2C-706.1-246.5-706-249.7-706-252.9z
							 M-702.6-247.9c1.4,0,1.6-1.5,1.6-3.1c0-1.1-0.3-2.5-1.7-2.5c-1.5,0-1.7,1.6-1.7,2.7C-704.3-249.6-704.2-247.9-702.6-247.9z"
							/>
						<path fill="#FFFFFF" d="M-691-256.3c0-1.5-0.6-2.4-2.3-2.4c-0.5,0-2.4,0.1-2.4,2.8v4.4c0,2.8,0.8,3.6,2.4,3.6
							c1.2,0,2-0.3,2.3-0.6v-3.9h-2.4v-1.4h4.1v6.3c-1.1,0.6-2.3,1-4,1c-2.8,0-4.1-1.4-4.1-5v-4.3c0-2.6,1.3-4.2,4.1-4.2
							c2.8,0,4.1,1,4,3.7H-691z"/>
						<path fill="#FFFFFF" d="M-684.9-254.5L-684.9-254.5c0.6-1.4,1.4-1.5,2.8-1.5v1.5c-0.1,0-0.3,0-0.4-0.1c-0.1,0-0.3,0-0.4,0
							c-1.6,0-2.1,1.2-2.1,2.5v5.4h-1.5v-9.1h1.5V-254.5z"/>
						<path fill="#FFFFFF" d="M-675.5-246.7v-6.3c0-1-0.3-1.8-1.6-1.8c-1.6,0-1.9,1.4-1.9,2.7v5.4h-1.5v-7.2c0-0.6,0-1.3-0.1-1.9
							h1.6v1.2h0.1c0.6-1,1.3-1.4,2.4-1.4c1.9,0,2.4,1.2,2.4,3v6.3H-675.5z"/>
						<path fill="#FFFFFF" d="M-671.1-246.7v-13h1.7v5.6h4.6v-5.6h1.7v13h-1.7v-5.9h-4.6v5.9H-671.1z"/>
						<path fill="#FFFFFF" d="M-660.7-251.2c0-2.7,0.3-4.9,3.5-4.9c3.2,0,3.5,2.2,3.5,4.9c0,4-1.5,4.6-3.5,4.6
							C-659.1-246.6-660.7-247.1-660.7-251.2z M-655.3-251.8c0-2.5-0.8-3-1.9-3c-1.1,0-1.9,0.5-1.9,3c0,3,0.4,4,1.9,4
							C-655.7-247.8-655.3-248.8-655.3-251.8z"/>
					</g>
					<g>
						<path fill="#FFFFFF" d="M-667.3-290.7h1v7.2h-1V-290.7z"/>
						<path fill="#FFFFFF" d="M-664.6-290.7h1v7.2h-1V-290.7z"/>
					</g>
					<g>
						<path fill="#FFFFFF" d="M-688-276.1c-0.7,0.6-1.8,1.2-2.6,1.6v-1.6c1-0.5,2.1-1.2,2.7-1.7h1.4v11.1h-1.5V-276.1z"/>
					</g>
					<g>
						<path fill="#FFFFFF" d="M-691.5-238.8c0-2.2,0-4.3,2.2-4.3c1.2,0,2.1,0.8,2.1,2h-1.1c0-0.6-0.3-1.2-1-1.2
							c-0.9,0-1.1,0.8-1.1,3h0c0.3-0.5,0.8-0.8,1.4-0.8c1.1,0,2,0.6,2,2.8c0,1.5-0.6,2.8-2.2,2.8
							C-691.5-234.5-691.5-236.6-691.5-238.8z M-689.2-235.4c0.9,0,1.1-1,1.1-2.1c0-0.8-0.2-1.7-1.1-1.7c-1,0-1.1,1.1-1.1,1.8
							C-690.4-236.5-690.3-235.4-689.2-235.4z"/>
						<path fill="#FFFFFF" d="M-681.7-238.8c0,2.2,0,4.3-2.2,4.3c-1.2,0-2.1-0.9-2.1-2.2h1.1c0,0.6,0.2,1.2,0.9,1.2
							c1.1,0,1.1-1.2,1.1-3.3h0c-0.3,0.6-0.8,0.8-1.4,0.8c-0.7,0-1.9-0.3-1.9-2.6c0-1.9,1.1-2.6,2.2-2.6
							C-681.7-243.1-681.7-241-681.7-238.8z M-685.1-240.6c0,0.8,0.2,1.7,1.1,1.7c1,0,1.1-0.9,1.1-1.7c0-0.8-0.2-1.7-1.1-1.7
							C-684.9-242.3-685.1-241.4-685.1-240.6z"/>
						<path fill="#FFFFFF" d="M-680.8-233.5h-0.8l2.8-9.8h0.8L-680.8-233.5z"/>
						<path fill="#FFFFFF" d="M-673.4-243v1h-2.8v2.4l0,0c0.2-0.4,0.8-0.6,1.3-0.6c1.2,0,1.7,0.9,1.7,2.8c0,1.3-0.2,2.9-2.3,2.9
							c-1.7,0-2.1-0.9-2.1-2.1h1.1c0,0.6,0.3,1.3,1,1.3c1,0,1.1-1,1.1-1.8c0-1.2,0-2.2-1.1-2.2c-0.6,0-0.9,0.4-1,1h-1v-4.7H-673.4z"
							/>
						<path fill="#FFFFFF" d="M-667.7-238.8c0,2.2,0,4.3-2.2,4.3s-2.2-2.1-2.2-4.3c0-2.2,0-4.3,2.2-4.3
							C-667.7-243.1-667.7-241-667.7-238.8z M-671.1-238.6c0,1.4-0.1,3.2,1.1,3.2c1.2,0,1.1-1.8,1.1-3.2c0-2.2,0-3.6-1.1-3.6
							C-671.1-242.2-671.1-240.8-671.1-238.6z"/>
					</g>
				</g>
			</g>
			<g id="BR_BR_7_-_7_242_00000150789756454808657920000014917281006807818414_" transform="translate(562.5,450)">
				<g id="g170412_00000054945141934271593110000012012910312705134241_" transform="translate(-450,-1500)">
					
						<rect id="rect170410_00000165223106418668821740000010116450986475716494_" x="-37.5" y="1050" fill="#ED2224" width="75" height="75"/>
				</g>
			</g>
		</g>
	</g>
</g>
<g id="text" display="none">
	
		<rect id="frontbox" x="-487.5" y="-450" display="inline" fill="none" stroke="#000000" stroke-miterlimit="10" width="1650" height="1275"/>
	<g id="align" display="inline">
	</g>
</g>
<g id="crop" display="none">
	<g id="front" display="inline">
		<g>
			<line fill="none" stroke="#939598" stroke-miterlimit="10" x1="-459.4" y1="0" x2="309.4" y2="0"/>
			<line fill="none" stroke="#939598" stroke-miterlimit="10" x1="-459.4" y1="75" x2="309.4" y2="75"/>
			<line fill="none" stroke="#939598" stroke-miterlimit="10" x1="0" y1="-9.4" x2="0" y2="159.4"/>
			<line fill="none" stroke="#939598" stroke-miterlimit="10" x1="75" y1="-9.4" x2="75" y2="159.4"/>
		</g>
	</g>
</g>
<g id="guides" display="none">
</g>
</svg>
