<?xml version="1.0" encoding="utf-8"?>
<!-- Generator: Adobe Illustrator 26.0.3, SVG Export Plug-In . SVG Version: 6.00 Build 0)  -->
<svg version="1.2" baseProfile="tiny" xmlns="http://www.w3.org/2000/svg" xmlns:xlink="http://www.w3.org/1999/xlink" x="0px"
	 y="0px" viewBox="0 0 75 75" overflow="visible" xml:space="preserve">
<g id="svg">
	<g>
		<g id="cs_layer_CNA_0002_00000023283088047694392320000015410210321053132443_">
			<g id="g169366_00000060018564281457370690000011209304467157080227_">
			</g>
			<g id="BR_BR_64_MED_-_NONE_234_00000088832614099086272590000016576592399463766423_" transform="translate(712.5,337.5)">
				<g id="g170234_00000008857328648626455420000009878147476260155531_" transform="translate(-450,-1500)">
					
						<rect id="rect170232_00000118378410915154387520000012887078483120897676_" x="-262.5" y="1162.5" fill="#ED2224" width="75" height="75"/>
				</g>
				<g id="g170251_00000128473174085781700970000011700458268687728284_" transform="translate(229.688,-150)">
					<g>
						<path fill="#FFFFFF" d="M-876.5-167.9v17H-903v-17H-876.5z M-878-166.5h-23.6v14.2h23.6V-166.5z M-892.6-159.4
							c0-1.4,1.2-2.6,2.8-2.6s2.8,1.2,2.8,2.6c0,1.4-1.2,2.6-2.8,2.6S-892.6-158-892.6-159.4z"/>
					</g>
					<g>
						<path fill="#FFFFFF" d="M-930.5-140.4c0-3.4-0.1-6.5,3.4-6.5c1.9,0,3.2,1.2,3.1,3h-1.7c0-0.9-0.5-1.8-1.5-1.8
							c-1.3,0-1.7,1.2-1.7,4.5h0c0.4-0.7,1.2-1.2,2-1.2c1.6,0,3,0.9,3,4.2c0,2.2-0.9,4.2-3.3,4.2
							C-930.5-134-930.5-137.2-930.5-140.4z M-927.1-135.4c1.4,0,1.6-1.5,1.6-3.1c0-1.1-0.3-2.5-1.7-2.5c-1.5,0-1.7,1.6-1.7,2.7
							C-928.8-137.1-928.7-135.4-927.1-135.4z"/>
						<path fill="#FFFFFF" d="M-922.7-137.3v-1.4l3.5-8h2.2v8h1.5v1.4h-1.5v3h-1.5v-3H-922.7z M-918.6-138.7v-6.5h0l-2.7,6.5H-918.6
							z"/>
						<path fill="#FFFFFF" d="M-908.2-134.2h-1.5v-13h2.7l3.3,10.9h0l3.3-10.9h2.7v13h-1.7v-11.6h0l-3.6,11.6h-1.6l-3.6-11.6h0
							V-134.2z"/>
						<path fill="#FFFFFF" d="M-893.5-138.3c0,2.5,0.7,3,1.8,3c1,0,1.5-0.8,1.6-1.7h1.6c0,2-1.3,2.9-3.2,2.9c-1.9,0-3.5-0.6-3.5-4.6
							c0-2.7,0.3-4.9,3.5-4.9c2.6,0,3.2,1.4,3.2,4.4v0.8H-893.5z M-889.9-139.4c0-2.6-0.7-3-1.8-3c-0.9,0-1.7,0.5-1.7,3H-889.9z"/>
						<path fill="#FFFFFF" d="M-881.1-147.2h1.5v13h-1.5v-1.1h0c-0.5,0.8-1.1,1.3-2.1,1.3c-1.5,0-2.9-0.6-2.9-4.6
							c0-2.3,0.1-4.9,3-4.9c0.9,0,1.5,0.4,2,1.1h0.1V-147.2z M-882.8-142.3c-1.6,0-1.8,1.3-1.8,3.7c0,1.4,0,3.3,1.9,3.3
							c1.7,0,1.7-2.1,1.7-3.9C-881.1-140.4-881.2-142.3-882.8-142.3z"/>
					</g>
					<g>
						<path fill="#FFFFFF" d="M-893.7-178.2h1v7.2h-1V-178.2z"/>
						<path fill="#FFFFFF" d="M-890.9-178.2h1v7.2h-1V-178.2z"/>
						<path fill="#FFFFFF" d="M-888.2-178.2h1v7.2h-1V-178.2z"/>
					</g>
					<g>
						<path fill="#FFFFFF" d="M-913-163.6c-0.7,0.6-1.8,1.2-2.6,1.6v-1.6c1-0.5,2.1-1.2,2.7-1.7h1.4v11.1h-1.5V-163.6z"/>
					</g>
					<g>
						<path fill="#FFFFFF" d="M-907.9-125.9h2.6v0.9h-2.6V-125.9z"/>
						<path fill="#FFFFFF" d="M-903.9-125.9h2.6v0.9h-2.6V-125.9z"/>
					</g>
				</g>
			</g>
		</g>
	</g>
</g>
<g id="text" display="none">
	
		<rect id="frontbox" x="-712.5" y="-337.5" display="inline" fill="none" stroke="#000000" stroke-miterlimit="10" width="1650" height="1275"/>
	<g id="align" display="inline">
	</g>
</g>
<g id="crop" display="none">
	<g id="front" display="inline">
		<g>
			<line fill="none" stroke="#939598" stroke-miterlimit="10" x1="-684.4" y1="0" x2="84.4" y2="0"/>
			<line fill="none" stroke="#939598" stroke-miterlimit="10" x1="-684.4" y1="75" x2="84.4" y2="75"/>
			<line fill="none" stroke="#939598" stroke-miterlimit="10" x1="0" y1="-84.4" x2="0" y2="84.4"/>
			<line fill="none" stroke="#939598" stroke-miterlimit="10" x1="75" y1="-84.4" x2="75" y2="84.4"/>
		</g>
	</g>
</g>
<g id="guides" display="none">
</g>
</svg>
