<?xml version="1.0" encoding="utf-8"?>
<!-- Generator: Adobe Illustrator 26.0.3, SVG Export Plug-In . SVG Version: 6.00 Build 0)  -->
<svg version="1.2" baseProfile="tiny" xmlns="http://www.w3.org/2000/svg" xmlns:xlink="http://www.w3.org/1999/xlink" x="0px"
	 y="0px" viewBox="0 0 75 75" overflow="visible" xml:space="preserve">
<g id="svg">
	<g>
		<g id="cs_layer_CNA_0002_00000023283088047694392320000015410210321053132443_">
			<g id="g169366_00000060018564281457370690000011209304467157080227_">
			</g>
			<g id="BR_BR_73_-_NONE_252_00000041272454814550200100000017415557203676658346_" transform="translate(562.5,525)">
				<g id="g170640_00000116934865667517966410000008307369864646690978_" transform="translate(-450,-1500)">
					
						<rect id="rect170638_00000171683370302106733200000013456826002492442046_" x="-112.5" y="975" fill="#ED2224" width="75" height="75"/>
				</g>
				<g id="g170657_00000021826552907323778250000015906586399703653808_" transform="translate(229.688,-150)">
					<g>
						<path fill="#FFFFFF" d="M-726.5-355.4v17H-753v-17H-726.5z M-751.6-354v13.1l10.9-13.1H-751.6z M-750.7-339.8h21.8l-10.9-13.1
							L-750.7-339.8z M-742.6-345c0-1.4,1.2-2.6,2.8-2.6s2.8,1.2,2.8,2.6c0,1.4-1.2,2.6-2.8,2.6S-742.6-343.6-742.6-345z M-728-354
							h-10.9l10.9,13.1V-354z"/>
					</g>
					<g>
						<path fill="#FFFFFF" d="M-762.1-334.2h6.5v1.4l-3.3,11.1h-1.9l3.5-11.1h-4.8V-334.2z"/>
						<path fill="#FFFFFF" d="M-751.6-329c1.5,0.1,2.6-0.5,2.6-2.1c0-1.1-0.5-2-1.7-2c-1.4,0-1.6,1-1.6,2h-1.7
							c-0.1-2.1,0.9-3.4,3.2-3.4c2.1,0,3.4,1.1,3.4,3.2c0,2.4-1.7,2.7-2.5,2.9v0c2,0.3,2.6,1.3,2.6,3.2c0,2.4-1.3,3.6-3.7,3.6
							c-3.5,0-3.2-3-3.2-3.7h1.7c0,1.2,0.2,2.3,1.7,2.3c1.5,0,1.9-0.9,1.9-2.3c0-2-0.8-2.4-2.7-2.4V-329z"/>
					</g>
					<g>
						<path fill="#FFFFFF" d="M-743.7-365.7h1v7.2h-1V-365.7z"/>
						<path fill="#FFFFFF" d="M-740.9-365.7h1v7.2h-1V-365.7z"/>
						<path fill="#FFFFFF" d="M-738.2-365.7h1v7.2h-1V-365.7z"/>
					</g>
					<g>
						<path fill="#FFFFFF" d="M-763-351.1c-0.7,0.6-1.8,1.2-2.6,1.6v-1.6c1-0.5,2.1-1.2,2.7-1.7h1.4v11.1h-1.5V-351.1z"/>
					</g>
					<g>
						<path fill="#FFFFFF" d="M-757.9-313.4h2.6v0.9h-2.6V-313.4z"/>
						<path fill="#FFFFFF" d="M-753.9-313.4h2.6v0.9h-2.6V-313.4z"/>
					</g>
				</g>
			</g>
			<g id="BR_BR_74_FLD_-_50_253_00000177442712362349757880000012646443475294142627_" transform="translate(637.5,525)">
				<g id="g170662_00000142854925218734208240000003975672052691214246_" transform="translate(-450,-1500)">
					
						<rect id="rect170660_00000130623496683990621630000012016689715370546094_" x="-112.5" y="975" fill="#ED2224" width="75" height="75"/>
				</g>
			</g>
		</g>
	</g>
</g>
<g id="text" display="none">
	
		<rect id="frontbox" x="-562.5" y="-525" display="inline" fill="none" stroke="#000000" stroke-miterlimit="10" width="1650" height="1275"/>
	<g id="align" display="inline">
	</g>
</g>
<g id="crop" display="none">
	<g id="front" display="inline">
		<g>
			<line fill="none" stroke="#939598" stroke-miterlimit="10" x1="-534.4" y1="0" x2="234.4" y2="0"/>
			<line fill="none" stroke="#939598" stroke-miterlimit="10" x1="-534.4" y1="75" x2="234.4" y2="75"/>
			<line fill="none" stroke="#939598" stroke-miterlimit="10" x1="0" y1="-84.4" x2="0" y2="84.4"/>
			<line fill="none" stroke="#939598" stroke-miterlimit="10" x1="75" y1="-84.4" x2="75" y2="84.4"/>
		</g>
	</g>
</g>
<g id="guides" display="none">
</g>
</svg>
