<?xml version="1.0" encoding="utf-8"?>
<!-- Generator: Adobe Illustrator 26.0.3, SVG Export Plug-In . SVG Version: 6.00 Build 0)  -->
<svg version="1.2" baseProfile="tiny" xmlns="http://www.w3.org/2000/svg" xmlns:xlink="http://www.w3.org/1999/xlink" x="0px"
	 y="0px" viewBox="0 0 75 75" overflow="visible" xml:space="preserve">
<g id="svg">
	<g>
		<g id="cs_layer_CNA_0002_00000023283088047694392320000015410210321053132443_">
			<g id="g169366_00000060018564281457370690000011209304467157080227_">
			</g>
			<g id="BR_BR_7_RTR_-_NONE_248_00000122719744325572204420000011422599430381233817_" transform="translate(262.5,525)">
				<g id="g170548_00000127017458481217260540000001571466982501127330_" transform="translate(-450,-1500)">
					
						<rect id="rect170546_00000096047112052364607530000016905849129905885609_" x="187.5" y="975" fill="#ED2224" width="75" height="75"/>
				</g>
				<g id="g170565_00000153688246810694221780000017573230435107328668_" transform="translate(229.688,-150)">
					<g>
						<path fill="#FFFFFF" d="M-426.5-355.4v17H-453v-17H-426.5z M-428-354h-23.6v14.2h23.6V-354z M-448.7-343.9
							c-0.8-0.8-1.2-1.9-1.2-3c0-2.3,1.9-4.2,4.2-4.2c0,0,0,0,0,0v0h11.8c0,0,0,0,0,0c2.3,0,4.2,2,4.2,4.3c0,2.3-1.9,4.2-4.2,4.2
							c0,0,0,0,0,0v0h-11.8c0,0,0,0,0,0c0,0,0,0,0,0C-446.8-342.7-447.9-343.1-448.7-343.9z M-448.5-346.9c0,0.8,0.3,1.5,0.8,2
							c0.5,0.5,1.2,0.9,2,0.9h11.8c0,0,0,0,0,0c1.5,0,2.8-1.3,2.8-2.8c0-1.6-1.2-2.9-2.8-2.9v0h-11.8
							C-447.2-349.7-448.5-348.5-448.5-346.9z"/>
					</g>
					<g>
						<path fill="#FFFFFF" d="M-474.7-334.2h6.5v1.4l-3.3,11.1h-1.9l3.5-11.1h-4.8V-334.2z"/>
						<path fill="#FFFFFF" d="M-460.1-327.7v6h-1.7v-13h4.5c2.3,0,3.1,1.6,3.1,3.2c0,1.5-0.8,2.7-2.4,3v0c1.5,0.2,2,0.7,2.1,3.3
							c0,0.6,0.2,2.6,0.5,3.4h-1.7c-0.5-0.9-0.4-2.6-0.5-4.3c-0.1-1.6-1.4-1.7-2-1.7H-460.1z M-460.1-329.2h2.5c1.2,0,1.8-1,1.8-2.2
							c0-0.9-0.5-2-1.7-2h-2.5V-329.2z"/>
						<path fill="#FFFFFF" d="M-444.4-334.7v1.4h-3.4v11.6h-1.7v-11.6h-3.4v-1.4H-444.4z"/>
						<path fill="#FFFFFF" d="M-441.1-327.7v6h-1.7v-13h4.5c2.3,0,3.1,1.6,3.1,3.2c0,1.5-0.8,2.7-2.4,3v0c1.5,0.2,2,0.7,2.1,3.3
							c0,0.6,0.2,2.6,0.5,3.4h-1.7c-0.5-0.9-0.4-2.6-0.5-4.3c-0.1-1.6-1.4-1.7-2-1.7H-441.1z M-441.1-329.2h2.5c1.2,0,1.8-1,1.8-2.2
							c0-0.9-0.5-2-1.7-2h-2.5V-329.2z"/>
					</g>
					<g>
						<path fill="#FFFFFF" d="M-442.3-365.7h1v7.2h-1V-365.7z"/>
						<path fill="#FFFFFF" d="M-439.6-365.7h1v7.2h-1V-365.7z"/>
					</g>
					<g>
						<path fill="#FFFFFF" d="M-474.9-339.8c-0.9-2.1-1.9-4.8-1.9-7.1c0-1.3,0.3-2.5,0.7-3.7c0.4-1.4,0.9-2.5,1.1-3.2h1.1
							c-0.3,0.8-0.6,1.9-0.9,3.4c-0.3,1.5-0.4,2.5-0.4,3.5c0,2.3,0.6,4.1,1.5,7.2H-474.9z"/>
						<path fill="#FFFFFF" d="M-471.8-343.2l2.9-2.8c0.6-0.6,1.2-1.2,1.7-1.9c0.6-0.9,0.8-1.4,0.8-2c0-0.5-0.2-1.8-1.8-1.8
							c-1.8,0-1.8,1.5-1.8,1.9h-1.7c0-0.5,0.1-1.6,1-2.4c0.8-0.7,1.7-0.8,2.4-0.8c1.7,0,3.4,0.9,3.4,3.2c0,0.7,0,1.2-1.2,2.8
							c-0.3,0.4-1.7,1.9-2,2.2l-1.9,1.8h5.3v1.3h-7V-343.2z"/>
						<path fill="#FFFFFF" d="M-461.5-353.8c0.9,2.1,1.9,4.8,1.9,7.1c0,1.3-0.3,2.5-0.7,3.7c-0.4,1.4-0.9,2.5-1.1,3.2h-1.1
							c0.3-0.8,0.6-1.9,0.9-3.4c0.3-1.5,0.4-2.5,0.4-3.5c0-2.3-0.6-4.1-1.5-7.1H-461.5z"/>
					</g>
					<g>
						<path fill="#FFFFFF" d="M-457.9-313.4h2.6v0.9h-2.6V-313.4z"/>
						<path fill="#FFFFFF" d="M-453.9-313.4h2.6v0.9h-2.6V-313.4z"/>
					</g>
				</g>
			</g>
			<g id="BR_BR_7_SPT_-_7_249_00000041268316009322044900000014010638997675704199_" transform="translate(337.5,525)">
				<g id="g170570_00000093878505359258650750000002405056517302209692_" transform="translate(-450,-1500)">
					
						<rect id="rect170568_00000094578011989851062860000010520439356865995679_" x="187.5" y="975" fill="#ED2224" width="75" height="75"/>
				</g>
			</g>
		</g>
	</g>
</g>
<g id="text" display="none">
	
		<rect id="frontbox" x="-262.5" y="-525" display="inline" fill="none" stroke="#000000" stroke-miterlimit="10" width="1650" height="1275"/>
	<g id="align" display="inline">
	</g>
</g>
<g id="crop" display="none">
	<g id="front" display="inline">
		<g>
			<line fill="none" stroke="#939598" stroke-miterlimit="10" x1="-234.4" y1="0" x2="534.4" y2="0"/>
			<line fill="none" stroke="#939598" stroke-miterlimit="10" x1="-234.4" y1="75" x2="534.4" y2="75"/>
			<line fill="none" stroke="#939598" stroke-miterlimit="10" x1="0" y1="-84.4" x2="0" y2="84.4"/>
			<line fill="none" stroke="#939598" stroke-miterlimit="10" x1="75" y1="-84.4" x2="75" y2="84.4"/>
		</g>
	</g>
</g>
<g id="guides" display="none">
</g>
</svg>
