<?xml version="1.0" encoding="utf-8"?>
<!-- Generator: Adobe Illustrator 26.0.3, SVG Export Plug-In . SVG Version: 6.00 Build 0)  -->
<svg version="1.2" baseProfile="tiny" xmlns="http://www.w3.org/2000/svg" xmlns:xlink="http://www.w3.org/1999/xlink" x="0px"
	 y="0px" viewBox="0 0 75 75" overflow="visible" xml:space="preserve">
<g id="svg">
	<g>
		<g id="cs_layer_CNA_0002_00000023283088047694392320000015410210321053132443_">
			<g id="g169366_00000060018564281457370690000011209304467157080227_">
			</g>
			<g id="BR_BR_7_HUS_-_4-7_245_00000010274295217593967340000000867663435061472168_" transform="translate(37.5,525)">
				<g id="g170480_00000025403610260647330550000004931295705989151913_" transform="translate(-450,-1500)">
					
						<rect id="rect170478_00000060017586402388932050000001783598950066645169_" x="412.5" y="975" fill="#ED2224" width="75" height="75"/>
				</g>
				<g id="g170497_00000025438034923545192980000002563544868498755503_" transform="translate(229.688,-150)">
					<g>
						<path fill="#FFFFFF" d="M-201.5-355.4v17H-228v-17H-201.5z M-203-354h-23.6v14.2h23.6V-354z M-223.7-343.9
							c-0.8-0.8-1.2-1.9-1.2-3c0-2.3,1.9-4.2,4.2-4.2c0,0,0,0,0,0v0h11.8c0,0,0,0,0,0c2.3,0,4.2,2,4.2,4.3c0,2.3-1.9,4.2-4.2,4.2
							c0,0,0,0,0,0v0h-11.8c0,0,0,0,0,0c0,0,0,0,0,0C-221.8-342.7-222.9-343.1-223.7-343.9z M-223.5-346.9c0,0.8,0.3,1.5,0.8,2
							c0.5,0.5,1.2,0.9,2,0.9h11.8c0,0,0,0,0,0c1.5,0,2.8-1.3,2.8-2.8c0-1.6-1.2-2.9-2.8-2.9v0h-11.8
							C-222.2-349.7-223.5-348.5-223.5-346.9z"/>
					</g>
					<g>
						<path fill="#FFFFFF" d="M-249.1-334.2h6.5v1.4l-3.3,11.1h-1.9l3.5-11.1h-4.8V-334.2z"/>
						<path fill="#FFFFFF" d="M-236.1-321.7v-13h1.7v5.6h4.6v-5.6h1.7v13h-1.7v-5.9h-4.6v5.9H-236.1z"/>
						<path fill="#FFFFFF" d="M-220.5-330.8h1.5v7.2c0,0.6,0,1.3,0.1,1.9h-1.6v-1.1h-0.1c-0.5,0.8-1.4,1.3-2.3,1.3
							c-1.6,0-2.4-0.8-2.4-2.3v-6.9h1.5v6.3c0,1.1,0.5,1.8,1.5,1.8c0.8,0,1.8-0.6,1.8-2.1V-330.8z"/>
						<path fill="#FFFFFF" d="M-213.7-321.6c-2,0-3.2-0.9-3.1-3h1.7c0,0.5,0,1.7,1.5,1.7c0.9,0,1.6-0.5,1.6-1.4
							c0-1.6-4.5-1.7-4.5-4.4c0-1,0.6-2.5,3.1-2.5c1.6,0,3,0.8,2.9,2.6h-1.6c0-1-0.5-1.5-1.4-1.5c-0.8,0-1.4,0.4-1.4,1.2
							c0,1.6,4.5,1.6,4.5,4.3C-210.5-322.3-211.9-321.6-213.7-321.6z"/>
					</g>
					<g>
						<path fill="#FFFFFF" d="M-217.3-365.7h1v7.2h-1V-365.7z"/>
						<path fill="#FFFFFF" d="M-214.6-365.7h1v7.2h-1V-365.7z"/>
					</g>
					<g>
						<path fill="#FFFFFF" d="M-238-351.1c-0.7,0.6-1.8,1.2-2.6,1.6v-1.6c1-0.5,2.1-1.2,2.7-1.7h1.4v11.1h-1.5V-351.1z"/>
					</g>
					<g>
						<path fill="#FFFFFF" d="M-242.6-311.7v-1l2.4-5.3h1.5v5.3h1v1h-1v2h-1v-2H-242.6z M-239.9-312.7v-4.3h0l-1.8,4.3H-239.9z"/>
						<path fill="#FFFFFF" d="M-237.3-311.7v-1l2.4-5.3h1.5v5.3h1v1h-1v2h-1v-2H-237.3z M-234.5-312.7v-4.3h0l-1.8,4.3H-234.5z"/>
						<path fill="#FFFFFF" d="M-231.8-309.7v-1c2.4-3.4,3.2-4,3.2-5.5c0-0.7-0.3-1.1-1-1.1c-0.8,0-1,0.7-1,1.4h-1.1
							c-0.1-1.4,0.6-2.3,2-2.3c1.5,0,2.2,0.7,2.2,2.2c0,1.9-0.9,2.5-3.1,5.3h3.3v1H-231.8z"/>
						<path fill="#FFFFFF" d="M-222.1-313.8c0,2.2,0,4.3-2.2,4.3c-1.2,0-2.1-0.9-2.1-2.2h1.1c0,0.6,0.2,1.2,0.9,1.2
							c1.1,0,1.1-1.2,1.1-3.3h0c-0.3,0.6-0.8,0.8-1.4,0.8c-0.7,0-1.9-0.3-1.9-2.6c0-1.9,1.1-2.6,2.2-2.6
							C-222-318.1-222.1-316-222.1-313.8z M-225.4-315.6c0,0.8,0.2,1.7,1.1,1.7s1.1-0.9,1.1-1.7c0-0.8-0.2-1.7-1.1-1.7
							C-225.3-317.3-225.4-316.4-225.4-315.6z"/>
						<path fill="#FFFFFF" d="M-219.6-314.5c1,0.1,1.7-0.3,1.7-1.4c0-0.8-0.3-1.3-1.2-1.3c-0.9,0-1.1,0.7-1,1.4h-1.1
							c-0.1-1.4,0.6-2.3,2.1-2.3c1.4,0,2.3,0.7,2.3,2.2c0,1.6-1.2,1.8-1.6,1.9v0c1.3,0.2,1.7,0.9,1.7,2.1c0,1.6-0.9,2.4-2.5,2.4
							c-2.3,0-2.1-2-2.1-2.5h1.1c0,0.8,0.1,1.5,1.1,1.5c1,0,1.3-0.6,1.3-1.5c0-1.3-0.5-1.6-1.8-1.6V-314.5z"/>
					</g>
				</g>
			</g>
			<g id="BR_BR_7_MED_-_NONE_246_00000009564950687455051520000008285980722620463295_" transform="translate(112.5,525)">
				<g id="g170502_00000009581975099002084440000014173049573973008817_" transform="translate(-450,-1500)">
					
						<rect id="rect170500_00000104669031242505079280000010292346425967895189_" x="412.5" y="975" fill="#ED2224" width="75" height="75"/>
				</g>
			</g>
		</g>
	</g>
</g>
<g id="text" display="none">
	
		<rect id="frontbox" x="-37.5" y="-525" display="inline" fill="none" stroke="#000000" stroke-miterlimit="10" width="1650" height="1275"/>
	<g id="align" display="inline">
	</g>
</g>
<g id="crop" display="none">
	<g id="front" display="inline">
		<g>
			<line fill="none" stroke="#939598" stroke-miterlimit="10" x1="-9.4" y1="0" x2="759.4" y2="0"/>
			<line fill="none" stroke="#939598" stroke-miterlimit="10" x1="-9.4" y1="75" x2="759.4" y2="75"/>
			<line fill="none" stroke="#939598" stroke-miterlimit="10" x1="0" y1="-84.4" x2="0" y2="84.4"/>
			<line fill="none" stroke="#939598" stroke-miterlimit="10" x1="75" y1="-84.4" x2="75" y2="84.4"/>
		</g>
	</g>
</g>
<g id="guides" display="none">
</g>
</svg>
