<?xml version="1.0" encoding="utf-8"?>
<!-- Generator: Adobe Illustrator 26.0.3, SVG Export Plug-In . SVG Version: 6.00 Build 0)  -->
<svg version="1.2" baseProfile="tiny" xmlns="http://www.w3.org/2000/svg" xmlns:xlink="http://www.w3.org/1999/xlink" x="0px"
	 y="0px" viewBox="0 0 75 75" overflow="visible" xml:space="preserve">
<g id="svg">
	<g>
		<g id="cs_layer_CNA_0002_00000023283088047694392320000015410210321053132443_">
			<g id="g169366_00000060018564281457370690000011209304467157080227_">
			</g>
			<g id="BR_BR_7_MED_-_NONE_246_00000009564950687455051520000008285980722620463295_" transform="translate(112.5,525)">
				<g id="g170502_00000009581975099002084440000014173049573973008817_" transform="translate(-450,-1500)">
					
						<rect id="rect170500_00000104669031242505079280000010292346425967895189_" x="337.5" y="975" fill="#ED2224" width="75" height="75"/>
				</g>
				<g id="g170519_00000040556053720440277480000005568011744895053480_" transform="translate(229.688,-150)">
					<g>
						<path fill="#FFFFFF" d="M-276.5-355.4v17H-303v-17H-276.5z M-278-354h-23.6v14.2h23.6V-354z M-292.6-346.9
							c0-1.4,1.2-2.6,2.8-2.6c1.5,0,2.8,1.2,2.8,2.6c0,1.4-1.2,2.6-2.8,2.6C-291.3-344.3-292.6-345.5-292.6-346.9z"/>
					</g>
					<g>
						<path fill="#FFFFFF" d="M-326.6-334.2h6.5v1.4l-3.3,11.1h-1.9l3.5-11.1h-4.8V-334.2z"/>
						<path fill="#FFFFFF" d="M-312.2-321.7h-1.5v-13h2.7l3.3,10.9h0l3.3-10.9h2.7v13h-1.7v-11.6h0l-3.6,11.6h-1.6l-3.6-11.6h0
							V-321.7z"/>
						<path fill="#FFFFFF" d="M-297.5-325.8c0,2.5,0.7,3,1.8,3c1,0,1.5-0.8,1.6-1.7h1.6c0,2-1.3,2.9-3.2,2.9c-1.9,0-3.5-0.6-3.5-4.6
							c0-2.7,0.3-4.9,3.5-4.9c2.6,0,3.2,1.4,3.2,4.4v0.8H-297.5z M-293.9-326.9c0-2.6-0.7-3-1.8-3c-0.9,0-1.7,0.5-1.7,3H-293.9z"/>
						<path fill="#FFFFFF" d="M-285.1-334.7h1.5v13h-1.5v-1.1h0c-0.5,0.8-1.1,1.3-2.1,1.3c-1.5,0-2.9-0.6-2.9-4.6
							c0-2.3,0.1-4.9,3-4.9c0.9,0,1.5,0.4,2,1.1h0.1V-334.7z M-286.8-329.8c-1.6,0-1.8,1.3-1.8,3.7c0,1.4,0,3.3,1.9,3.3
							c1.7,0,1.7-2.1,1.7-3.9C-285.1-327.9-285.2-329.8-286.8-329.8z"/>
					</g>
					<g>
						<path fill="#FFFFFF" d="M-293.7-365.7h1v7.2h-1V-365.7z"/>
						<path fill="#FFFFFF" d="M-290.9-365.7h1v7.2h-1V-365.7z"/>
						<path fill="#FFFFFF" d="M-288.2-365.7h1v7.2h-1V-365.7z"/>
					</g>
					<g>
						<path fill="#FFFFFF" d="M-324.9-339.8c-0.9-2.1-1.9-4.8-1.9-7.1c0-1.3,0.3-2.5,0.7-3.7c0.4-1.4,0.9-2.5,1.1-3.2h1.1
							c-0.3,0.8-0.6,1.9-0.9,3.4c-0.3,1.5-0.4,2.5-0.4,3.5c0,2.3,0.6,4.1,1.5,7.2H-324.9z"/>
						<path fill="#FFFFFF" d="M-321.8-343.2l2.9-2.8c0.6-0.6,1.2-1.2,1.7-1.9c0.6-0.9,0.8-1.4,0.8-2c0-0.5-0.2-1.8-1.8-1.8
							c-1.8,0-1.8,1.5-1.8,1.9h-1.7c0-0.5,0.1-1.6,1-2.4c0.8-0.7,1.7-0.8,2.4-0.8c1.7,0,3.4,0.9,3.4,3.2c0,0.7,0,1.2-1.2,2.8
							c-0.3,0.4-1.7,1.9-2,2.2l-1.9,1.8h5.3v1.3h-7V-343.2z"/>
						<path fill="#FFFFFF" d="M-311.5-353.8c0.9,2.1,1.9,4.8,1.9,7.1c0,1.3-0.3,2.5-0.7,3.7c-0.4,1.4-0.9,2.5-1.1,3.2h-1.1
							c0.3-0.8,0.6-1.9,0.9-3.4c0.3-1.5,0.4-2.5,0.4-3.5c0-2.3-0.6-4.1-1.5-7.1H-311.5z"/>
					</g>
					<g>
						<path fill="#FFFFFF" d="M-307.9-313.4h2.6v0.9h-2.6V-313.4z"/>
						<path fill="#FFFFFF" d="M-303.9-313.4h2.6v0.9h-2.6V-313.4z"/>
					</g>
				</g>
			</g>
			<g id="BR_BR_7_MTR_-_7_247_00000153683933644660694580000017216644216229081736_" transform="translate(187.5,525)">
				<g id="g170524_00000031186633294848707470000013612950866506210720_" transform="translate(-450,-1500)">
					
						<rect id="rect170522_00000156553785246461964090000010048311321881333907_" x="337.5" y="975" fill="#ED2224" width="75" height="75"/>
				</g>
			</g>
		</g>
	</g>
</g>
<g id="text" display="none">
	
		<rect id="frontbox" x="-112.5" y="-525" display="inline" fill="none" stroke="#000000" stroke-miterlimit="10" width="1650" height="1275"/>
	<g id="align" display="inline">
	</g>
</g>
<g id="crop" display="none">
	<g id="front" display="inline">
		<g>
			<line fill="none" stroke="#939598" stroke-miterlimit="10" x1="-84.4" y1="0" x2="684.4" y2="0"/>
			<line fill="none" stroke="#939598" stroke-miterlimit="10" x1="-84.4" y1="75" x2="684.4" y2="75"/>
			<line fill="none" stroke="#939598" stroke-miterlimit="10" x1="0" y1="-84.4" x2="0" y2="84.4"/>
			<line fill="none" stroke="#939598" stroke-miterlimit="10" x1="75" y1="-84.4" x2="75" y2="84.4"/>
		</g>
	</g>
</g>
<g id="guides" display="none">
</g>
</svg>
