<?xml version="1.0" encoding="utf-8"?>
<!-- Generator: Adobe Illustrator 26.0.3, SVG Export Plug-In . SVG Version: 6.00 Build 0)  -->
<svg version="1.2" baseProfile="tiny" xmlns="http://www.w3.org/2000/svg" xmlns:xlink="http://www.w3.org/1999/xlink" x="0px"
	 y="0px" viewBox="0 0 75 75" overflow="visible" xml:space="preserve">
<g id="svg">
	<g>
		<g id="cs_layer_CNA_0002_00000023283088047694392320000015410210321053132443_">
			<g id="g169366_00000060018564281457370690000011209304467157080227_">
			</g>
			<g id="BR_BR_70_-_NONE_250_00000158744227564017979600000000496076465991180221_" transform="translate(412.5,525)">
				<g id="g170594_00000097469135615589838640000009260295331119018641_" transform="translate(-450,-1500)">
					
						<rect id="rect170592_00000096024896845504608140000012044313363267296445_" x="37.5" y="975" fill="#ED2224" width="75" height="75"/>
				</g>
				<g id="g170613_00000157989684009868916920000017704208842683833250_" transform="translate(229.688,-150)">
					
						<rect id="rect170596_00000064323643857033925160000000225541057054783622_" x="-642.2" y="-356.2" fill="#7F1416" width="75" height="18.8"/>
					<g>
						<path fill="#FFFFFF" d="M-576.5-355.4v17H-603v-17H-576.5z M-601.6-353.2v12.5l10.4-6.3L-601.6-353.2z M-579.3-354h-20.9
							l10.4,6.3L-579.3-354z M-600.2-339.8h20.9l-10.4-6.3L-600.2-339.8z M-588.4-346.9l10.4,6.3v-12.5L-588.4-346.9z"/>
					</g>
					<g>
						<path fill="#FFFFFF" d="M-612.1-334.2h6.5v1.4l-3.3,11.1h-1.9l3.5-11.1h-4.8V-334.2z"/>
						<path fill="#FFFFFF" d="M-597.3-327.9c0,3.3,0,6.5-3.4,6.5s-3.4-3.2-3.4-6.5c0-3.4-0.1-6.5,3.4-6.5S-597.3-331.3-597.3-327.9z
							 M-602.4-327.6c0,2.1-0.1,4.8,1.7,4.8c1.8,0,1.7-2.6,1.7-4.8c0-3.4,0-5.4-1.7-5.4S-602.4-331-602.4-327.6z"/>
					</g>
					<g>
						<path fill="#FFFFFF" d="M-595.9-365.7l1.9,2.8l1.9-2.8h1.2l-2.6,3.5l2.7,3.8h-1.3l-2.1-3.1l-2.2,3.1h-1.2l2.8-3.8l-2.5-3.4
							H-595.9z"/>
						<path fill="#FFFFFF" d="M-588.7-365.7l1.9,2.8l1.9-2.8h1.2l-2.6,3.5l2.7,3.8h-1.3l-2.1-3.1l-2.2,3.1h-1.2l2.8-3.8l-2.5-3.4
							H-588.7z"/>
					</g>
					<g>
						<path fill="#FFFFFF" d="M-613-351.1c-0.7,0.6-1.8,1.2-2.6,1.6v-1.6c1-0.5,2.1-1.2,2.7-1.7h1.4v11.1h-1.5V-351.1z"/>
					</g>
					<g>
						<path fill="#FFFFFF" d="M-607.9-313.4h2.6v0.9h-2.6V-313.4z"/>
						<path fill="#FFFFFF" d="M-603.9-313.4h2.6v0.9h-2.6V-313.4z"/>
					</g>
				</g>
			</g>
			<g id="BR_BR_72_FLD_-_50_251_00000077298773059800451470000005464931842114256543_" transform="translate(487.5,525)">
				<g id="g170618_00000176041691022187408770000008578357981661152908_" transform="translate(-450,-1500)">
					
						<rect id="rect170616_00000170258567647148831160000005788893432458596784_" x="37.5" y="975" fill="#ED2224" width="75" height="75"/>
				</g>
			</g>
		</g>
	</g>
</g>
<g id="text" display="none">
	
		<rect id="frontbox" x="-412.5" y="-525" display="inline" fill="none" stroke="#000000" stroke-miterlimit="10" width="1650" height="1275"/>
	<g id="align" display="inline">
	</g>
</g>
<g id="crop" display="none">
	<g id="front" display="inline">
		<g>
			<line fill="none" stroke="#939598" stroke-miterlimit="10" x1="-384.4" y1="0" x2="384.4" y2="0"/>
			<line fill="none" stroke="#939598" stroke-miterlimit="10" x1="-384.4" y1="75" x2="384.4" y2="75"/>
			<line fill="none" stroke="#939598" stroke-miterlimit="10" x1="0" y1="-84.4" x2="0" y2="84.4"/>
			<line fill="none" stroke="#939598" stroke-miterlimit="10" x1="75" y1="-84.4" x2="75" y2="84.4"/>
		</g>
	</g>
</g>
<g id="guides" display="none">
</g>
</svg>
