<?xml version="1.0" encoding="utf-8"?>
<!-- Generator: Adobe Illustrator 26.0.3, SVG Export Plug-In . SVG Version: 6.00 Build 0)  -->
<svg version="1.2" baseProfile="tiny" xmlns="http://www.w3.org/2000/svg" xmlns:xlink="http://www.w3.org/1999/xlink" x="0px"
	 y="0px" viewBox="0 0 75 75" overflow="visible" xml:space="preserve">
<g id="svg">
	<g>
		<g id="cs_layer_CNA_0002_00000023283088047694392320000015410210321053132443_">
			<g id="g169366_00000060018564281457370690000011209304467157080227_">
			</g>
			<g id="BR_BR_7_MTR_-_7_247_00000153683933644660694580000017216644216229081736_" transform="translate(187.5,525)">
				<g id="g170524_00000031186633294848707470000013612950866506210720_" transform="translate(-450,-1500)">
					
						<rect id="rect170522_00000156553785246461964090000010048311321881333907_" x="262.5" y="975" fill="#ED2224" width="75" height="75"/>
				</g>
				<g id="g170543_00000154419747053981145640000010815547941260265639_" transform="translate(229.688,-150)">
					
						<rect id="rect170526_00000171696756004741270600000013023349573520514183_" x="-417.2" y="-356.2" fill="#7F1416" width="75" height="18.8"/>
					<g>
						<path fill="#FFFFFF" d="M-351.5-355.4v17H-378v-17H-351.5z M-370.3-345.5c0,0.4-0.1,0.8-0.2,1.2l4.3-2.6l-10.4-6.3v5.5
							c0.6-0.8,1.6-1.4,2.8-1.4c0,0,0,0,0,0C-371.9-349-370.3-347.4-370.3-345.5z M-376.6-343.3v2.7l2.2-1.3
							C-375.3-342.1-376.1-342.6-376.6-343.3z M-371.7-345.5c0-1.2-1-2.1-2.1-2.1c-1.2,0-2.1,1-2.1,2.1c0,1.2,1,2.1,2.1,2.1
							C-372.6-343.3-371.7-344.3-371.7-345.5z M-354.3-354h-20.9l10.4,6.3L-354.3-354z M-375.2-339.8h20.9l-10.4-6.3L-375.2-339.8z
							 M-353-347.7v-5.5l-10.4,6.3l4.3,2.6c-0.1-0.4-0.2-0.8-0.2-1.2c0-2,1.6-3.5,3.5-3.5C-354.6-349-353.6-348.5-353-347.7z
							 M-355.7-343.3c1.2,0,2.1-1,2.1-2.1s-1-2.1-2.1-2.1c-1.2,0-2.1,1-2.1,2.1C-357.9-344.3-356.9-343.3-355.7-343.3z M-355.2-342
							l2.2,1.3v-2.7C-353.5-342.6-354.3-342.1-355.2-342z"/>
					</g>
					<g>
						<path fill="#FFFFFF" d="M-398.1-334.2h6.5v1.4l-3.3,11.1h-1.9l3.5-11.1h-4.8V-334.2z"/>
						<path fill="#FFFFFF" d="M-383.7-321.7h-1.5v-13h2.7l3.3,10.9h0l3.3-10.9h2.7v13h-1.7v-11.6h0l-3.6,11.6h-1.6l-3.6-11.6h0
							V-321.7z"/>
						<path fill="#FFFFFF" d="M-370.2-330.8v-1.7l1.5-0.7v2.4h2v1.1h-2v5.6c0,0.6,0,1.3,1.4,1.3c0.1,0,0.3,0,0.7-0.1v1.1
							c-0.5,0-1,0.1-1.5,0.1c-1.4,0-2-0.6-2-1.6v-6.5h-1.5v-1.1H-370.2z"/>
						<path fill="#FFFFFF" d="M-363.9-329.5L-363.9-329.5c0.6-1.4,1.4-1.5,2.8-1.5v1.5c-0.1,0-0.3,0-0.4-0.1c-0.1,0-0.3,0-0.4,0
							c-1.6,0-2.1,1.2-2.1,2.5v5.4h-1.5v-9.1h1.5V-329.5z"/>
					</g>
					<g>
						<path fill="#FFFFFF" d="M-367.3-365.7l1.9,2.8l1.9-2.8h1.2l-2.6,3.5l2.7,3.8h-1.3l-2.1-3.1l-2.2,3.1h-1.2l2.8-3.8l-2.5-3.4
							H-367.3z"/>
					</g>
					<g>
						<path fill="#FFFFFF" d="M-388-351.1c-0.7,0.6-1.8,1.2-2.6,1.6v-1.6c1-0.5,2.1-1.2,2.7-1.7h1.4v11.1h-1.5V-351.1z"/>
					</g>
					<g>
						<path fill="#FFFFFF" d="M-381.9-318h4.3v1l-2.2,7.4h-1.2l2.3-7.4h-3.2V-318z"/>
					</g>
				</g>
			</g>
			<g id="BR_BR_7_RTR_-_NONE_248_00000122719744325572204420000011422599430381233817_" transform="translate(262.5,525)">
				<g id="g170548_00000127017458481217260540000001571466982501127330_" transform="translate(-450,-1500)">
					
						<rect id="rect170546_00000096047112052364607530000016905849129905885609_" x="262.5" y="975" fill="#ED2224" width="75" height="75"/>
				</g>
			</g>
		</g>
	</g>
</g>
<g id="text" display="none">
	
		<rect id="frontbox" x="-187.5" y="-525" display="inline" fill="none" stroke="#000000" stroke-miterlimit="10" width="1650" height="1275"/>
	<g id="align" display="inline">
	</g>
</g>
<g id="crop" display="none">
	<g id="front" display="inline">
		<g>
			<line fill="none" stroke="#939598" stroke-miterlimit="10" x1="-159.4" y1="0" x2="609.4" y2="0"/>
			<line fill="none" stroke="#939598" stroke-miterlimit="10" x1="-159.4" y1="75" x2="609.4" y2="75"/>
			<line fill="none" stroke="#939598" stroke-miterlimit="10" x1="0" y1="-84.4" x2="0" y2="84.4"/>
			<line fill="none" stroke="#939598" stroke-miterlimit="10" x1="75" y1="-84.4" x2="75" y2="84.4"/>
		</g>
	</g>
</g>
<g id="guides" display="none">
</g>
</svg>
