<?xml version="1.0" encoding="utf-8"?>
<!-- Generator: Adobe Illustrator 26.0.3, SVG Export Plug-In . SVG Version: 6.00 Build 0)  -->
<svg version="1.2" baseProfile="tiny" xmlns="http://www.w3.org/2000/svg" xmlns:xlink="http://www.w3.org/1999/xlink" x="0px"
	 y="0px" viewBox="0 0 75 75" overflow="visible" xml:space="preserve">
<g id="svg">
	<g>
		<g id="cs_layer_CNA_0002_00000023283088047694392320000015410210321053132443_">
			<g id="g169366_00000060018564281457370690000011209304467157080227_">
			</g>
			<g id="BR_BR_7_SPT_-_7_249_00000041268316009322044900000014010638997675704199_" transform="translate(337.5,525)">
				<g id="g170570_00000093878505359258650750000002405056517302209692_" transform="translate(-450,-1500)">
					
						<rect id="rect170568_00000094578011989851062860000010520439356865995679_" x="112.5" y="975" fill="#ED2224" width="75" height="75"/>
				</g>
				<g id="g170589_00000117668851242235357510000006873131238152418208_" transform="translate(229.688,-150)">
					
						<rect id="rect170572_00000117642986904482667930000013445490376575509393_" x="-567.2" y="-356.2" fill="#7F1416" width="75" height="18.8"/>
					<g>
						<path fill="#FFFFFF" d="M-501.5-355.4v17H-528v-17H-501.5z M-520.3-345.5c0,0.4-0.1,0.8-0.2,1.2l4.3-2.6l-10.4-6.3v5.5
							c0.6-0.8,1.6-1.4,2.8-1.4c0,0,0,0,0,0C-521.9-349-520.3-347.4-520.3-345.5z M-526.6-343.3v2.7l2.2-1.3
							C-525.3-342.1-526.1-342.6-526.6-343.3z M-521.7-345.5c0-1.2-1-2.1-2.1-2.1c-1.2,0-2.1,1-2.1,2.1c0,1.2,1,2.1,2.1,2.1
							C-522.6-343.3-521.7-344.3-521.7-345.5z M-504.3-354h-20.9l10.4,6.3L-504.3-354z M-525.2-339.8h20.9l-10.4-6.3L-525.2-339.8z
							 M-503-347.7v-5.5l-10.4,6.3l4.3,2.6c-0.1-0.4-0.2-0.8-0.2-1.2c0-2,1.6-3.5,3.5-3.5C-504.6-349-503.6-348.5-503-347.7z
							 M-505.7-343.3c1.2,0,2.1-1,2.1-2.1s-1-2.1-2.1-2.1c-1.2,0-2.1,1-2.1,2.1C-507.9-344.3-506.9-343.3-505.7-343.3z M-505.2-342
							l2.2,1.3v-2.7C-503.5-342.6-504.3-342.1-505.2-342z"/>
					</g>
					<g>
						<path fill="#FFFFFF" d="M-547.2-334.2h6.5v1.4l-3.3,11.1h-1.9l3.5-11.1h-4.8V-334.2z"/>
						<path fill="#FFFFFF" d="M-533-325.6v0.4c0,1.8,1.1,2.3,2.2,2.3c1.3,0,2.3-0.6,2.3-2.1c0-2.9-5.8-2.6-5.8-6.5
							c0-2.3,1.6-3.5,3.8-3.5c2.4,0,3.7,1.2,3.6,3.8h-1.7c0-1.4-0.4-2.4-2-2.4c-1,0-2,0.5-2,1.9c0,2.9,5.8,2.4,5.8,6.6
							c0,2.7-1.9,3.6-4,3.6c-3.8,0-3.8-2.9-3.8-4.1H-533z"/>
						<path fill="#FFFFFF" d="M-522.8-329.8L-522.8-329.8c0.5-0.8,1.2-1.3,2.1-1.3c1.5,0,2.9,0.6,2.9,4.6c0,2.3-0.1,4.9-3,4.9
							c-0.9,0-1.5-0.4-2-1.1h-0.1v4.4h-1.5v-12.5h1.5V-329.8z M-519.3-326.4c0-1.4,0-3.4-1.9-3.4c-1.8,0-1.7,2.5-1.7,3.9
							c0,1.2,0.1,3.1,1.7,3.1C-519.5-322.8-519.3-324-519.3-326.4z"/>
						<path fill="#FFFFFF" d="M-515.2-330.8v-1.7l1.5-0.7v2.4h2v1.1h-2v5.6c0,0.6,0,1.3,1.4,1.3c0.1,0,0.3,0,0.7-0.1v1.1
							c-0.5,0-1,0.1-1.5,0.1c-1.4,0-2-0.6-2-1.6v-6.5h-1.5v-1.1H-515.2z"/>
					</g>
					<g>
						<path fill="#FFFFFF" d="M-517.3-365.7l1.9,2.8l1.9-2.8h1.2l-2.6,3.5l2.7,3.8h-1.3l-2.1-3.1l-2.2,3.1h-1.2l2.8-3.8l-2.5-3.4
							H-517.3z"/>
					</g>
					<g>
						<path fill="#FFFFFF" d="M-549.9-339.8c-0.9-2.1-1.9-4.8-1.9-7.1c0-1.3,0.3-2.5,0.7-3.7c0.4-1.4,0.9-2.5,1.1-3.2h1.1
							c-0.3,0.8-0.6,1.9-0.9,3.4c-0.3,1.5-0.4,2.5-0.4,3.5c0,2.3,0.6,4.1,1.5,7.2H-549.9z"/>
						<path fill="#FFFFFF" d="M-545.1-344.4c0,1.1,1,1.6,1.8,1.6c1.9,0,2.2-1.8,2.2-2.5c0-1.5-0.8-2.4-2.1-2.4
							c-0.6,0-1.2,0.2-1.5,0.6c-0.3,0.3-0.4,0.7-0.5,0.9h-1.5l0.3-6.6h6.2v1.3h-4.9l-0.2,3.6c0.3-0.3,1-1,2.3-1
							c2.2,0,3.3,1.7,3.3,3.6c0,2.2-1.5,3.8-4,3.8c-1.8,0-3.2-1-3.3-2.9H-545.1z"/>
						<path fill="#FFFFFF" d="M-536.5-353.8c0.9,2.1,1.9,4.8,1.9,7.1c0,1.3-0.3,2.5-0.7,3.7c-0.4,1.4-0.9,2.5-1.1,3.2h-1.1
							c0.3-0.8,0.6-1.9,0.9-3.4c0.3-1.5,0.4-2.5,0.4-3.5c0-2.3-0.6-4.1-1.5-7.1H-536.5z"/>
					</g>
					<g>
						<path fill="#FFFFFF" d="M-531.9-318h4.3v1l-2.2,7.4h-1.2l2.3-7.4h-3.2V-318z"/>
					</g>
				</g>
			</g>
			<g id="BR_BR_70_-_NONE_250_00000158744227564017979600000000496076465991180221_" transform="translate(412.5,525)">
				<g id="g170594_00000097469135615589838640000009260295331119018641_" transform="translate(-450,-1500)">
					
						<rect id="rect170592_00000096024896845504608140000012044313363267296445_" x="112.5" y="975" fill="#ED2224" width="75" height="75"/>
				</g>
			</g>
		</g>
	</g>
</g>
<g id="text" display="none">
	
		<rect id="frontbox" x="-337.5" y="-525" display="inline" fill="none" stroke="#000000" stroke-miterlimit="10" width="1650" height="1275"/>
	<g id="align" display="inline">
	</g>
</g>
<g id="crop" display="none">
	<g id="front" display="inline">
		<g>
			<line fill="none" stroke="#939598" stroke-miterlimit="10" x1="-309.4" y1="0" x2="459.4" y2="0"/>
			<line fill="none" stroke="#939598" stroke-miterlimit="10" x1="-309.4" y1="75" x2="459.4" y2="75"/>
			<line fill="none" stroke="#939598" stroke-miterlimit="10" x1="0" y1="-84.4" x2="0" y2="84.4"/>
			<line fill="none" stroke="#939598" stroke-miterlimit="10" x1="75" y1="-84.4" x2="75" y2="84.4"/>
		</g>
	</g>
</g>
<g id="guides" display="none">
</g>
</svg>
