<?xml version="1.0" encoding="utf-8"?>
<!-- Generator: Adobe Illustrator 26.0.3, SVG Export Plug-In . SVG Version: 6.00 Build 0)  -->
<svg version="1.2" baseProfile="tiny" xmlns="http://www.w3.org/2000/svg" xmlns:xlink="http://www.w3.org/1999/xlink" x="0px"
	 y="0px" viewBox="0 0 75 75" overflow="visible" xml:space="preserve">
<g id="svg">
	<g>
		<g id="cs_layer_CNA_0002_00000023283088047694392320000015410210321053132443_">
			<g id="g169366_00000060018564281457370690000011209304467157080227_">
			</g>
			<g id="BR_BR_72_FLD_-_50_251_00000077298773059800451470000005464931842114256543_" transform="translate(487.5,525)">
				<g id="g170618_00000176041691022187408770000008578357981661152908_" transform="translate(-450,-1500)">
					
						<rect id="rect170616_00000170258567647148831160000005788893432458596784_" x="-37.5" y="975" fill="#ED2224" width="75" height="75"/>
				</g>
				<g id="g170635_00000090976679495697167320000001441255415853955752_" transform="translate(229.688,-150)">
					<g>
						<path fill="#FFFFFF" d="M-651.5-355.4v17H-678v-17H-651.5z M-653-354h-23.6v14.2h23.6V-354z M-667.6-346.9
							c0-1.4,1.2-2.6,2.8-2.6s2.8,1.2,2.8,2.6c0,1.4-1.2,2.6-2.8,2.6S-667.6-345.5-667.6-346.9z"/>
					</g>
					<g>
						<path fill="#FFFFFF" d="M-699.6-334.2h6.5v1.4l-3.3,11.1h-1.9l3.5-11.1h-4.8V-334.2z"/>
						<path fill="#FFFFFF" d="M-691.4-321.7v-1.4c3.7-5.1,4.7-6,4.7-8.2c0-1-0.5-1.7-1.5-1.7c-1.2,0-1.5,1-1.5,2h-1.7
							c-0.1-2.1,0.9-3.4,3-3.4c2.3,0,3.3,1,3.3,3.3c0,2.8-1.4,3.7-4.6,8h5v1.4H-691.4z"/>
						<path fill="#FFFFFF" d="M-678.9-321.7v-13h6.4v1.4h-4.8v4.2h4.5v1.4h-4.5v5.9H-678.9z"/>
						<path fill="#FFFFFF" d="M-669.5-321.7h-1.5v-13h1.5V-321.7z"/>
						<path fill="#FFFFFF" d="M-662.1-334.7h1.5v13h-1.5v-1.1h0c-0.5,0.8-1.1,1.3-2.1,1.3c-1.5,0-2.9-0.6-2.9-4.6
							c0-2.3,0.1-4.9,3-4.9c0.9,0,1.5,0.4,2,1.1h0.1V-334.7z M-663.8-329.8c-1.6,0-1.8,1.3-1.8,3.7c0,1.4,0,3.3,1.9,3.3
							c1.7,0,1.7-2.1,1.7-3.9C-662.1-327.9-662.2-329.8-663.8-329.8z"/>
					</g>
					<g>
						<path fill="#FFFFFF" d="M-668.7-365.7h1v7.2h-1V-365.7z"/>
						<path fill="#FFFFFF" d="M-665.9-365.7h1v7.2h-1V-365.7z"/>
						<path fill="#FFFFFF" d="M-663.2-365.7h1v7.2h-1V-365.7z"/>
					</g>
					<g>
						<path fill="#FFFFFF" d="M-688-351.1c-0.7,0.6-1.8,1.2-2.6,1.6v-1.6c1-0.5,2.1-1.2,2.7-1.7h1.4v11.1h-1.5V-351.1z"/>
					</g>
					<g>
						<path fill="#FFFFFF" d="M-680.4-318v1h-2.8v2.4l0,0c0.2-0.4,0.8-0.6,1.3-0.6c1.2,0,1.7,0.9,1.7,2.8c0,1.3-0.2,2.9-2.3,2.9
							c-1.7,0-2.1-0.9-2.1-2.1h1.1c0,0.6,0.3,1.3,1,1.3c1,0,1.1-1,1.1-1.8c0-1.2,0-2.2-1.1-2.2c-0.6,0-0.9,0.4-1,1h-1v-4.7H-680.4z"
							/>
						<path fill="#FFFFFF" d="M-674.7-313.8c0,2.2,0,4.3-2.2,4.3s-2.2-2.1-2.2-4.3c0-2.2,0-4.3,2.2-4.3
							C-674.7-318.1-674.7-316-674.7-313.8z M-678.1-313.6c0,1.4-0.1,3.2,1.1,3.2s1.1-1.8,1.1-3.2c0-2.2,0-3.6-1.1-3.6
							C-678.1-317.2-678.1-315.8-678.1-313.6z"/>
					</g>
				</g>
			</g>
			<g id="BR_BR_73_-_NONE_252_00000041272454814550200100000017415557203676658346_" transform="translate(562.5,525)">
				<g id="g170640_00000116934865667517966410000008307369864646690978_" transform="translate(-450,-1500)">
					
						<rect id="rect170638_00000171683370302106733200000013456826002492442046_" x="-37.5" y="975" fill="#ED2224" width="75" height="75"/>
				</g>
			</g>
		</g>
	</g>
</g>
<g id="text" display="none">
	
		<rect id="frontbox" x="-487.5" y="-525" display="inline" fill="none" stroke="#000000" stroke-miterlimit="10" width="1650" height="1275"/>
	<g id="align" display="inline">
	</g>
</g>
<g id="crop" display="none">
	<g id="front" display="inline">
		<g>
			<line fill="none" stroke="#939598" stroke-miterlimit="10" x1="-459.4" y1="0" x2="309.4" y2="0"/>
			<line fill="none" stroke="#939598" stroke-miterlimit="10" x1="-459.4" y1="75" x2="309.4" y2="75"/>
			<line fill="none" stroke="#939598" stroke-miterlimit="10" x1="0" y1="-84.4" x2="0" y2="84.4"/>
			<line fill="none" stroke="#939598" stroke-miterlimit="10" x1="75" y1="-84.4" x2="75" y2="84.4"/>
		</g>
	</g>
</g>
<g id="guides" display="none">
</g>
</svg>
