<?xml version="1.0" encoding="utf-8"?>
<!-- Generator: Adobe Illustrator 26.0.3, SVG Export Plug-In . SVG Version: 6.00 Build 0)  -->
<svg version="1.2" baseProfile="tiny" xmlns="http://www.w3.org/2000/svg" xmlns:xlink="http://www.w3.org/1999/xlink" x="0px"
	 y="0px" viewBox="0 0 75 75" overflow="visible" xml:space="preserve">
<g id="svg">
	<g>
		<g id="cs_layer_CNA_0002_00000023283088047694392320000015410210321053132443_">
			<g id="g169366_00000060018564281457370690000011209304467157080227_">
			</g>
			
				<g id="BR_x5F_BR_x5F_7_x5F_A_x26_S_x5F_-_x5F_154-51_x5F_244_00000146479352198573460420000012032475480162995335_" transform="translate(712.5,450)">
				<g id="g170458_00000145038602793548264840000004533792503572130713_" transform="translate(-450,-1500)">
					
						<rect id="rect170456_00000132087340971774055010000009359789106667431575_" x="-262.5" y="1050" fill="#ED2224" width="75" height="75"/>
				</g>
				<g id="g170475_00000064316697599456342860000004978549460896871071_" transform="translate(229.688,-150)">
					<g>
						<path fill="#FFFFFF" d="M-876.5-280.4v17H-903v-17H-876.5z M-901.6-278.2v12.5l10.4-6.3L-901.6-278.2z M-879.3-279h-20.9
							l10.4,6.3L-879.3-279z M-900.2-264.8h20.9l-10.4-6.3L-900.2-264.8z M-888.4-271.9l10.4,6.3v-12.5L-888.4-271.9z"/>
					</g>
					<g>
						<path fill="#FFFFFF" d="M-926.7-259.2h6.5v1.4l-3.3,11.1h-1.9l3.5-11.1h-4.8V-259.2z"/>
						<path fill="#FFFFFF" d="M-910.8-259.7h2.1l4.2,13h-1.9l-0.9-3.1h-5l-1,3.1h-1.7L-910.8-259.7z M-909.8-258.2L-909.8-258.2
							l-2.1,6.9h4.2L-909.8-258.2z"/>
						<path fill="#FFFFFF" d="M-895.3-248.1c-1,1.2-2.1,1.6-3.6,1.6c-2.3,0-4.3-1.2-4.3-3.7c0-2.1,1.2-2.9,2.9-4
							c-0.8-0.9-1.7-2.1-1.7-3.3c0-1.9,1.6-2.6,3.2-2.6c1.7,0,3,0.8,3,2.6c0,1.4-1.1,2.6-2.2,3.5l2.5,3.2c0.3-0.8,0.3-1.7,0.3-3.7
							h1.5c0,2.8-0.3,4-0.8,4.9l2.1,2.8h-1.9L-895.3-248.1z M-899.4-253.2c-1.1,0.8-2.1,1.5-2.1,3c0,1.4,1.1,2.4,2.7,2.4
							c1.2,0,2-0.3,2.6-1.3L-899.4-253.2z M-897.5-257.3c0-0.9-0.5-1.5-1.4-1.5c-0.8,0-1.4,0.6-1.4,1.5c0,0.9,0.9,1.7,1.4,2.3
							C-898.3-255.5-897.5-256.3-897.5-257.3z"/>
						<path fill="#FFFFFF" d="M-889.5-250.6v0.4c0,1.8,1.1,2.3,2.2,2.3c1.3,0,2.3-0.6,2.3-2.1c0-2.9-5.8-2.6-5.8-6.5
							c0-2.3,1.6-3.5,3.8-3.5c2.4,0,3.7,1.2,3.6,3.8h-1.7c0-1.4-0.4-2.4-2-2.4c-1,0-2,0.5-2,1.9c0,2.9,5.8,2.4,5.8,6.6
							c0,2.7-1.9,3.6-4,3.6c-3.8,0-3.8-2.9-3.8-4.1H-889.5z"/>
					</g>
					<g>
						<path fill="#FFFFFF" d="M-892.3-290.7h1v7.2h-1V-290.7z"/>
						<path fill="#FFFFFF" d="M-889.6-290.7h1v7.2h-1V-290.7z"/>
					</g>
					<g>
						<path fill="#FFFFFF" d="M-913-276.1c-0.7,0.6-1.8,1.2-2.6,1.6v-1.6c1-0.5,2.1-1.2,2.7-1.7h1.4v11.1h-1.5V-276.1z"/>
					</g>
					<g>
						<path fill="#FFFFFF" d="M-916.1-234.7h-1.1v-7.1l-1.2,0.8v-1.1c0.3-0.1,1.1-0.7,1.4-1h0.9V-234.7z"/>
						<path fill="#FFFFFF" d="M-909.7-243v1h-2.8v2.4l0,0c0.2-0.4,0.8-0.6,1.3-0.6c1.2,0,1.7,0.9,1.7,2.8c0,1.3-0.2,2.9-2.3,2.9
							c-1.7,0-2.1-0.9-2.1-2.1h1.1c0,0.6,0.3,1.3,1,1.3c1,0,1.1-1,1.1-1.8c0-1.2,0-2.2-1.1-2.2c-0.6,0-0.9,0.4-1,1h-1v-4.7H-909.7z"
							/>
						<path fill="#FFFFFF" d="M-908.7-236.7v-1l2.4-5.3h1.5v5.3h1v1h-1v2h-1v-2H-908.7z M-905.9-237.7v-4.3h0l-1.8,4.3H-905.9z"/>
						<path fill="#FFFFFF" d="M-903.1-233.5h-0.8l2.8-9.8h0.8L-903.1-233.5z"/>
						<path fill="#FFFFFF" d="M-895.7-243v1h-2.8v2.4l0,0c0.2-0.4,0.8-0.6,1.3-0.6c1.2,0,1.7,0.9,1.7,2.8c0,1.3-0.2,2.9-2.3,2.9
							c-1.7,0-2.1-0.9-2.1-2.1h1.1c0,0.6,0.3,1.3,1,1.3c1,0,1.1-1,1.1-1.8c0-1.2,0-2.2-1.1-2.2c-0.6,0-0.9,0.4-1,1h-1v-4.7H-895.7z"
							/>
						<path fill="#FFFFFF" d="M-891.5-234.7h-1.1v-7.1l-1.2,0.8v-1.1c0.3-0.1,1.1-0.7,1.4-1h0.9V-234.7z"/>
					</g>
				</g>
			</g>
		</g>
	</g>
</g>
<g id="text" display="none">
	
		<rect id="frontbox" x="-712.5" y="-450" display="inline" fill="none" stroke="#000000" stroke-miterlimit="10" width="1650" height="1275"/>
	<g id="align" display="inline">
	</g>
</g>
<g id="crop" display="none">
	<g id="front" display="inline">
		<g>
			<line fill="none" stroke="#939598" stroke-miterlimit="10" x1="-684.4" y1="0" x2="84.4" y2="0"/>
			<line fill="none" stroke="#939598" stroke-miterlimit="10" x1="-684.4" y1="75" x2="84.4" y2="75"/>
			<line fill="none" stroke="#939598" stroke-miterlimit="10" x1="0" y1="-9.4" x2="0" y2="159.4"/>
			<line fill="none" stroke="#939598" stroke-miterlimit="10" x1="75" y1="-9.4" x2="75" y2="159.4"/>
		</g>
	</g>
</g>
<g id="guides" display="none">
</g>
</svg>
