<?xml version="1.0" encoding="utf-8"?>
<!-- Generator: Adobe Illustrator 26.0.3, SVG Export Plug-In . SVG Version: 6.00 Build 0)  -->
<svg version="1.2" baseProfile="tiny" xmlns="http://www.w3.org/2000/svg" xmlns:xlink="http://www.w3.org/1999/xlink" x="0px"
	 y="0px" viewBox="0 0 75 75" overflow="visible" xml:space="preserve">
<g id="svg">
	<g>
		<g id="cs_layer_CNA_0002_00000023283088047694392320000015410210321053132443_">
			<g id="g169366_00000060018564281457370690000011209304467157080227_">
			</g>
			<g id="BR_BR_8_FLD_-_NONE_262_00000001626428377355225090000004266337290610339475_" transform="translate(562.5,637.5)">
				<g id="g170864_00000156586125061330730670000011879904464867130789_" transform="translate(-450,-1500)">
					
						<rect id="rect170862_00000162351161795365400690000011403123733014348937_" x="-112.5" y="862.5" fill="#ED2224" width="75" height="75"/>
				</g>
				<g id="g170881_00000052816252574638133130000001979066210493507007_" transform="translate(229.688,-150)">
					<g>
						<path fill="#FFFFFF" d="M-726.5-467.9v17H-753v-17H-726.5z M-728-466.5h-23.6v14.2h23.6V-466.5z M-742.6-459.4
							c0-1.4,1.2-2.6,2.8-2.6s2.8,1.2,2.8,2.6c0,1.4-1.2,2.6-2.8,2.6S-742.6-458-742.6-459.4z"/>
					</g>
					<g>
						<path fill="#FFFFFF" d="M-766.2-440.9c1.8,0.2,2.3,1.6,2.3,3.2c0,2.3-1.2,3.6-3.3,3.6s-3.3-1.4-3.3-3.6c0-1.6,0.5-3.1,2.3-3.2
							v0c-1.5-0.3-2.2-1.5-2.2-2.9c0-2,1.2-3.1,3.2-3.1c2,0,3.2,1.2,3.2,3.1C-764-442.4-764.7-441.2-766.2-440.9L-766.2-440.9z
							 M-765.5-437.6c0-1.1-0.1-2.6-1.7-2.6c-1.5,0-1.7,1.4-1.7,2.6c0,1.1,0.4,2.2,1.7,2.2C-765.9-435.4-765.5-436.5-765.5-437.6z
							 M-765.6-443.9c0-0.9-0.5-1.9-1.5-1.9c-1.1,0-1.5,0.9-1.5,1.9c0,0.9,0.3,2.3,1.5,2.3C-765.9-441.6-765.6-442.9-765.6-443.9z"
							/>
						<path fill="#FFFFFF" d="M-757.9-434.2v-13h6.4v1.4h-4.8v4.2h4.5v1.4h-4.5v5.9H-757.9z"/>
						<path fill="#FFFFFF" d="M-748.5-434.2h-1.5v-13h1.5V-434.2z"/>
						<path fill="#FFFFFF" d="M-741.1-447.2h1.5v13h-1.5v-1.1h0c-0.5,0.8-1.1,1.3-2.1,1.3c-1.5,0-2.9-0.6-2.9-4.6
							c0-2.3,0.1-4.9,3-4.9c0.9,0,1.5,0.4,2,1.1h0.1V-447.2z M-742.8-442.3c-1.6,0-1.8,1.3-1.8,3.7c0,1.4,0,3.3,1.9,3.3
							c1.7,0,1.7-2.1,1.7-3.9C-741.1-440.4-741.2-442.3-742.8-442.3z"/>
					</g>
					<g>
						<path fill="#FFFFFF" d="M-743.7-478.2h1v7.2h-1V-478.2z"/>
						<path fill="#FFFFFF" d="M-740.9-478.2h1v7.2h-1V-478.2z"/>
						<path fill="#FFFFFF" d="M-738.2-478.2h1v7.2h-1V-478.2z"/>
					</g>
					<g>
						<path fill="#FFFFFF" d="M-763-463.6c-0.7,0.6-1.8,1.2-2.6,1.6v-1.6c1-0.5,2.1-1.2,2.7-1.7h1.4v11.1h-1.5V-463.6z"/>
					</g>
					<g>
						<path fill="#FFFFFF" d="M-757.9-425.9h2.6v0.9h-2.6V-425.9z"/>
						<path fill="#FFFFFF" d="M-753.9-425.9h2.6v0.9h-2.6V-425.9z"/>
					</g>
				</g>
			</g>
			<g id="BR_BR_8_HUS_-_7-7_263_00000152959374761991795810000012077592836430327997_" transform="translate(637.5,637.5)">
				<g id="g170886_00000052789583963225370580000004149751561541276856_" transform="translate(-450,-1500)">
					
						<rect id="rect170884_00000158720048235113040450000014758871571337746054_" x="-112.5" y="862.5" fill="#ED2224" width="75" height="75"/>
				</g>
			</g>
		</g>
	</g>
</g>
<g id="text" display="none">
	
		<rect id="frontbox" x="-562.5" y="-637.5" display="inline" fill="none" stroke="#000000" stroke-miterlimit="10" width="1650" height="1275"/>
	<g id="align" display="inline">
	</g>
</g>
<g id="crop" display="none">
	<g id="front" display="inline">
		<g>
			<line fill="none" stroke="#939598" stroke-miterlimit="10" x1="-534.4" y1="0" x2="234.4" y2="0"/>
			<line fill="none" stroke="#939598" stroke-miterlimit="10" x1="-534.4" y1="75" x2="234.4" y2="75"/>
			<line fill="none" stroke="#939598" stroke-miterlimit="10" x1="0" y1="-9.4" x2="0" y2="159.4"/>
			<line fill="none" stroke="#939598" stroke-miterlimit="10" x1="75" y1="-9.4" x2="75" y2="159.4"/>
		</g>
	</g>
</g>
<g id="guides" display="none">
</g>
</svg>
