<?xml version="1.0" encoding="utf-8"?>
<!-- Generator: Adobe Illustrator 26.0.3, SVG Export Plug-In . SVG Version: 6.00 Build 0)  -->
<svg version="1.2" baseProfile="tiny" xmlns="http://www.w3.org/2000/svg" xmlns:xlink="http://www.w3.org/1999/xlink" x="0px"
	 y="0px" viewBox="0 0 75 75" overflow="visible" xml:space="preserve">
<g id="svg">
	<g>
		<g id="cs_layer_CNA_0002_00000023283088047694392320000015410210321053132443_">
			<g id="g169366_00000060018564281457370690000011209304467157080227_">
			</g>
			<g id="BR_BR_8_-_NONE_260_00000017518647189612447380000002452558503291461781_" transform="translate(412.5,637.5)">
				<g id="g170818_00000064319773807120222520000017991948691013571230_" transform="translate(-450,-1500)">
					
						<rect id="rect170816_00000076571020604934681310000012357380075074248606_" x="37.5" y="862.5" fill="#ED2224" width="75" height="75"/>
				</g>
				<g id="g170837_00000069365379095072513670000009920522008690779066_" transform="translate(229.688,-150)">
					
						<rect id="rect170820_00000036244337757530888080000017773083427888222643_" x="-642.2" y="-468.8" fill="#7F1416" width="75" height="18.8"/>
					<g>
						<path fill="#FFFFFF" d="M-576.5-467.9v17H-603v-17H-576.5z M-578-466.5h-23.6v14.2h23.6V-466.5z M-598.7-456.4
							c-0.8-0.8-1.2-1.9-1.2-3c0-2.3,1.9-4.2,4.2-4.2c0,0,0,0,0,0v0h11.8c0,0,0,0,0,0c2.3,0,4.2,2,4.2,4.3c0,2.3-1.9,4.2-4.2,4.2
							c0,0,0,0,0,0v0h-11.8c0,0,0,0,0,0c0,0,0,0,0,0C-596.8-455.2-597.9-455.6-598.7-456.4z M-598.5-459.4c0,0.8,0.3,1.5,0.8,2
							c0.5,0.5,1.2,0.9,2,0.9h11.8c0,0,0,0,0,0c1.5,0,2.8-1.3,2.8-2.8c0-1.6-1.2-2.9-2.8-2.9v0h-11.8
							C-597.2-462.2-598.5-461-598.5-459.4z"/>
					</g>
					<g>
						<path fill="#FFFFFF" d="M-603.7-440.9c1.8,0.2,2.3,1.6,2.3,3.2c0,2.3-1.2,3.6-3.3,3.6s-3.3-1.4-3.3-3.6c0-1.6,0.5-3.1,2.3-3.2
							v0c-1.5-0.3-2.2-1.5-2.2-2.9c0-2,1.2-3.1,3.2-3.1s3.2,1.2,3.2,3.1C-601.5-442.4-602.2-441.2-603.7-440.9L-603.7-440.9z
							 M-603-437.6c0-1.1-0.1-2.6-1.7-2.6s-1.7,1.4-1.7,2.6c0,1.1,0.4,2.2,1.7,2.2S-603-436.5-603-437.6z M-603.1-443.9
							c0-0.9-0.5-1.9-1.5-1.9s-1.5,0.9-1.5,1.9c0,0.9,0.3,2.3,1.5,2.3S-603.1-442.9-603.1-443.9z"/>
					</g>
					<g>
						<path fill="#FFFFFF" d="M-595.9-478.2l1.9,2.8l1.9-2.8h1.2l-2.6,3.5l2.7,3.8h-1.3l-2.1-3.1l-2.2,3.1h-1.2l2.8-3.8l-2.5-3.4
							H-595.9z"/>
						<path fill="#FFFFFF" d="M-588.7-478.2l1.9,2.8l1.9-2.8h1.2l-2.6,3.5l2.7,3.8h-1.3l-2.1-3.1l-2.2,3.1h-1.2l2.8-3.8l-2.5-3.4
							H-588.7z"/>
					</g>
					<g>
						<path fill="#FFFFFF" d="M-613-463.6c-0.7,0.6-1.8,1.2-2.6,1.6v-1.6c1-0.5,2.1-1.2,2.7-1.7h1.4v11.1h-1.5V-463.6z"/>
					</g>
					<g>
						<path fill="#FFFFFF" d="M-607.9-425.9h2.6v0.9h-2.6V-425.9z"/>
						<path fill="#FFFFFF" d="M-603.9-425.9h2.6v0.9h-2.6V-425.9z"/>
					</g>
				</g>
			</g>
			<g id="BR_BR_8_DURLT_-_151-50_261_00000163058586172559724300000007778842878565161099_" transform="translate(487.5,637.5)">
				<g id="g170842_00000121264461750888475490000011195421159417977519_" transform="translate(-450,-1500)">
					
						<rect id="rect170840_00000036221154468676742900000009199315241184743853_" x="37.5" y="862.5" fill="#ED2224" width="75" height="75"/>
				</g>
			</g>
		</g>
	</g>
</g>
<g id="text" display="none">
	
		<rect id="frontbox" x="-412.5" y="-637.5" display="inline" fill="none" stroke="#000000" stroke-miterlimit="10" width="1650" height="1275"/>
	<g id="align" display="inline">
	</g>
</g>
<g id="crop" display="none">
	<g id="front" display="inline">
		<g>
			<line fill="none" stroke="#939598" stroke-miterlimit="10" x1="-384.4" y1="0" x2="384.4" y2="0"/>
			<line fill="none" stroke="#939598" stroke-miterlimit="10" x1="-384.4" y1="75" x2="384.4" y2="75"/>
			<line fill="none" stroke="#939598" stroke-miterlimit="10" x1="0" y1="-9.4" x2="0" y2="159.4"/>
			<line fill="none" stroke="#939598" stroke-miterlimit="10" x1="75" y1="-9.4" x2="75" y2="159.4"/>
		</g>
	</g>
</g>
<g id="guides" display="none">
</g>
</svg>
