<?xml version="1.0" encoding="utf-8"?>
<!-- Generator: Adobe Illustrator 26.0.3, SVG Export Plug-In . SVG Version: 6.00 Build 0)  -->
<svg version="1.2" baseProfile="tiny" xmlns="http://www.w3.org/2000/svg" xmlns:xlink="http://www.w3.org/1999/xlink" x="0px"
	 y="0px" viewBox="0 0 75 75" overflow="visible" xml:space="preserve">
<g id="svg">
	<g>
		<g id="cs_layer_CNA_0002_00000023283088047694392320000015410210321053132443_">
			<g id="g169366_00000060018564281457370690000011209304467157080227_">
			</g>
			<g id="BR_BR_78_FLD_-_NONE_255_00000014611358618172961430000015066737446044164745_" transform="translate(37.5,637.5)">
				<g id="g170706_00000173846266597308501870000007964428057396172210_" transform="translate(-450,-1500)">
					
						<rect id="rect170704_00000097465596021933493090000015599454359021566623_" x="412.5" y="862.5" fill="#ED2224" width="75" height="75"/>
				</g>
				<g id="g170723_00000146466306449064459580000013326847479421150649_" transform="translate(229.688,-150)">
					<g>
						<path fill="#FFFFFF" d="M-201.5-467.9v17H-228v-17H-201.5z M-203-466.5h-23.6v14.2h23.6V-466.5z M-217.6-459.4
							c0-1.4,1.2-2.6,2.8-2.6c1.5,0,2.8,1.2,2.8,2.6c0,1.4-1.2,2.6-2.8,2.6C-216.3-456.8-217.6-458-217.6-459.4z"/>
					</g>
					<g>
						<path fill="#FFFFFF" d="M-249.6-446.7h6.5v1.4l-3.3,11.1h-1.9l3.5-11.1h-4.8V-446.7z"/>
						<path fill="#FFFFFF" d="M-237.2-440.9c1.8,0.2,2.3,1.6,2.3,3.2c0,2.3-1.2,3.6-3.3,3.6s-3.3-1.4-3.3-3.6c0-1.6,0.5-3.1,2.3-3.2
							v0c-1.5-0.3-2.2-1.5-2.2-2.9c0-2,1.2-3.1,3.2-3.1c2,0,3.2,1.2,3.2,3.1C-235-442.4-235.7-441.2-237.2-440.9L-237.2-440.9z
							 M-236.5-437.6c0-1.1-0.1-2.6-1.7-2.6s-1.7,1.4-1.7,2.6c0,1.1,0.4,2.2,1.7,2.2C-236.9-435.4-236.5-436.5-236.5-437.6z
							 M-236.6-443.9c0-0.9-0.5-1.9-1.5-1.9c-1.1,0-1.5,0.9-1.5,1.9c0,0.9,0.3,2.3,1.5,2.3C-236.9-441.6-236.6-442.9-236.6-443.9z"
							/>
						<path fill="#FFFFFF" d="M-228.9-434.2v-13h6.4v1.4h-4.8v4.2h4.5v1.4h-4.5v5.9H-228.9z"/>
						<path fill="#FFFFFF" d="M-219.5-434.2h-1.5v-13h1.5V-434.2z"/>
						<path fill="#FFFFFF" d="M-212.1-447.2h1.5v13h-1.5v-1.1h0c-0.5,0.8-1.1,1.3-2.1,1.3c-1.5,0-2.9-0.6-2.9-4.6
							c0-2.3,0.1-4.9,3-4.9c0.9,0,1.5,0.4,2,1.1h0.1V-447.2z M-213.8-442.3c-1.6,0-1.8,1.3-1.8,3.7c0,1.4,0,3.3,1.9,3.3
							c1.7,0,1.7-2.1,1.7-3.9C-212.1-440.4-212.2-442.3-213.8-442.3z"/>
					</g>
					<g>
						<path fill="#FFFFFF" d="M-218.7-478.2h1v7.2h-1V-478.2z"/>
						<path fill="#FFFFFF" d="M-215.9-478.2h1v7.2h-1V-478.2z"/>
						<path fill="#FFFFFF" d="M-213.2-478.2h1v7.2h-1V-478.2z"/>
					</g>
					<g>
						<path fill="#FFFFFF" d="M-238-463.6c-0.7,0.6-1.8,1.2-2.6,1.6v-1.6c1-0.5,2.1-1.2,2.7-1.7h1.4v11.1h-1.5V-463.6z"/>
					</g>
					<g>
						<path fill="#FFFFFF" d="M-232.9-425.9h2.6v0.9h-2.6V-425.9z"/>
						<path fill="#FFFFFF" d="M-228.9-425.9h2.6v0.9h-2.6V-425.9z"/>
					</g>
				</g>
			</g>
			<g id="BR_BR_7BLKWA_-_154-51_256_00000139285038135757922520000002827386802754056867_" transform="translate(112.5,637.5)">
				<g id="g170728_00000045586520494844887910000014353300956787304375_" transform="translate(-450,-1500)">
					
						<rect id="rect170726_00000110464320985776145860000012093130187127687326_" x="412.5" y="862.5" fill="#ED2224" width="75" height="75"/>
				</g>
			</g>
		</g>
	</g>
</g>
<g id="text" display="none">
	
		<rect id="frontbox" x="-37.5" y="-637.5" display="inline" fill="none" stroke="#000000" stroke-miterlimit="10" width="1650" height="1275"/>
	<g id="align" display="inline">
	</g>
</g>
<g id="crop" display="none">
	<g id="front" display="inline">
		<g>
			<line fill="none" stroke="#939598" stroke-miterlimit="10" x1="-9.4" y1="0" x2="759.4" y2="0"/>
			<line fill="none" stroke="#939598" stroke-miterlimit="10" x1="-9.4" y1="75" x2="759.4" y2="75"/>
			<line fill="none" stroke="#939598" stroke-miterlimit="10" x1="0" y1="-9.4" x2="0" y2="159.4"/>
			<line fill="none" stroke="#939598" stroke-miterlimit="10" x1="75" y1="-9.4" x2="75" y2="159.4"/>
		</g>
	</g>
</g>
<g id="guides" display="none">
</g>
</svg>
