<?xml version="1.0" encoding="utf-8"?>
<!-- Generator: Adobe Illustrator 26.0.3, SVG Export Plug-In . SVG Version: 6.00 Build 0)  -->
<svg version="1.2" baseProfile="tiny" xmlns="http://www.w3.org/2000/svg" xmlns:xlink="http://www.w3.org/1999/xlink" x="0px"
	 y="0px" viewBox="0 0 75 75" overflow="visible" xml:space="preserve">
<g id="svg">
	<g>
		<g id="cs_layer_CNA_0002_00000023283088047694392320000015410210321053132443_">
			<g id="g169366_00000060018564281457370690000011209304467157080227_">
			</g>
			<g id="BR_BR_7GRNHO_-_69-50_257_00000178923267857375668620000015124008212361777800_" transform="translate(187.5,637.5)">
				<g id="g170750_00000127732970521146475220000016353402006908922039_" transform="translate(-450,-1500)">
					
						<rect id="rect170748_00000106829096940609419720000005661707722188832173_" x="262.5" y="862.5" fill="#ED2224" width="75" height="75"/>
				</g>
				<g id="g170767_00000006682443264050388040000005967224638108360374_" transform="translate(229.688,-150)">
					<g>
						<path fill="#FFFFFF" d="M-351.5-467.9v17H-378v-17H-351.5z M-376.6-465.7v12.5l10.4-6.3L-376.6-465.7z M-354.3-466.5h-20.9
							l10.4,6.3L-354.3-466.5z M-375.2-452.3h20.9l-10.4-6.3L-375.2-452.3z M-363.4-459.4l10.4,6.3v-12.5L-363.4-459.4z"/>
					</g>
					<g>
						<path fill="#FFFFFF" d="M-406.1-446.7h6.5v1.4l-3.3,11.1h-1.9l3.5-11.1h-4.8V-446.7z"/>
						<path fill="#FFFFFF" d="M-391-443.8c0-1.5-0.6-2.4-2.3-2.4c-0.5,0-2.4,0.1-2.4,2.8v4.4c0,2.8,0.8,3.6,2.4,3.6
							c1.2,0,2-0.3,2.3-0.6v-3.9h-2.4v-1.4h4.1v6.3c-1.1,0.6-2.3,1-4,1c-2.8,0-4.1-1.4-4.1-5v-4.3c0-2.6,1.3-4.2,4.1-4.2
							c2.8,0,4.1,1,4,3.7H-391z"/>
						<path fill="#FFFFFF" d="M-384.9-442L-384.9-442c0.6-1.4,1.4-1.5,2.8-1.5v1.5c-0.1,0-0.3,0-0.4-0.1c-0.1,0-0.3,0-0.4,0
							c-1.6,0-2.1,1.2-2.1,2.5v5.4h-1.5v-9.1h1.5V-442z"/>
						<path fill="#FFFFFF" d="M-375.5-434.2v-6.3c0-1-0.3-1.8-1.6-1.8c-1.6,0-1.9,1.4-1.9,2.7v5.4h-1.5v-7.2c0-0.6,0-1.3-0.1-1.9
							h1.6v1.2h0.1c0.6-1,1.3-1.4,2.4-1.4c1.9,0,2.4,1.2,2.4,3v6.3H-375.5z"/>
						<path fill="#FFFFFF" d="M-371.1-434.2v-13h1.7v5.6h4.6v-5.6h1.7v13h-1.7v-5.9h-4.6v5.9H-371.1z"/>
						<path fill="#FFFFFF" d="M-360.7-438.7c0-2.7,0.3-4.9,3.5-4.9s3.5,2.2,3.5,4.9c0,4-1.5,4.6-3.5,4.6
							C-359.1-434.1-360.7-434.6-360.7-438.7z M-355.3-439.3c0-2.5-0.8-3-1.9-3s-1.9,0.5-1.9,3c0,3,0.4,4,1.9,4
							C-355.7-435.3-355.3-436.3-355.3-439.3z"/>
					</g>
					<g>
						<path fill="#FFFFFF" d="M-367.3-478.2h1v7.2h-1V-478.2z"/>
						<path fill="#FFFFFF" d="M-364.6-478.2h1v7.2h-1V-478.2z"/>
					</g>
					<g>
						<path fill="#FFFFFF" d="M-388-463.6c-0.7,0.6-1.8,1.2-2.6,1.6v-1.6c1-0.5,2.1-1.2,2.7-1.7h1.4v11.1h-1.5V-463.6z"/>
					</g>
					<g>
						<path fill="#FFFFFF" d="M-391.5-426.3c0-2.2,0-4.3,2.2-4.3c1.2,0,2.1,0.8,2.1,2h-1.1c0-0.6-0.3-1.2-1-1.2
							c-0.9,0-1.1,0.8-1.1,3h0c0.3-0.5,0.8-0.8,1.4-0.8c1.1,0,2,0.6,2,2.8c0,1.5-0.6,2.8-2.2,2.8
							C-391.5-422-391.5-424.1-391.5-426.3z M-389.2-422.9c0.9,0,1.1-1,1.1-2.1c0-0.8-0.2-1.7-1.1-1.7c-1,0-1.1,1.1-1.1,1.8
							C-390.4-424-390.3-422.9-389.2-422.9z"/>
						<path fill="#FFFFFF" d="M-381.7-426.3c0,2.2,0,4.3-2.2,4.3c-1.2,0-2.1-0.9-2.1-2.2h1.1c0,0.6,0.2,1.2,0.9,1.2
							c1.1,0,1.1-1.2,1.1-3.3h0c-0.3,0.6-0.8,0.8-1.4,0.8c-0.7,0-1.9-0.3-1.9-2.6c0-1.9,1.1-2.6,2.2-2.6
							C-381.7-430.6-381.7-428.5-381.7-426.3z M-385.1-428.1c0,0.8,0.2,1.7,1.1,1.7s1.1-0.9,1.1-1.7c0-0.8-0.2-1.7-1.1-1.7
							C-384.9-429.8-385.1-428.9-385.1-428.1z"/>
						<path fill="#FFFFFF" d="M-380.8-421h-0.8l2.8-9.8h0.8L-380.8-421z"/>
						<path fill="#FFFFFF" d="M-373.4-430.5v1h-2.8v2.4l0,0c0.2-0.4,0.8-0.6,1.3-0.6c1.2,0,1.7,0.9,1.7,2.8c0,1.3-0.2,2.9-2.3,2.9
							c-1.7,0-2.1-0.9-2.1-2.1h1.1c0,0.6,0.3,1.3,1,1.3c1,0,1.1-1,1.1-1.8c0-1.2,0-2.2-1.1-2.2c-0.6,0-0.9,0.4-1,1h-1v-4.7H-373.4z"
							/>
						<path fill="#FFFFFF" d="M-367.7-426.3c0,2.2,0,4.3-2.2,4.3s-2.2-2.1-2.2-4.3c0-2.2,0-4.3,2.2-4.3S-367.7-428.5-367.7-426.3z
							 M-371.1-426.1c0,1.4-0.1,3.2,1.1,3.2s1.1-1.8,1.1-3.2c0-2.2,0-3.6-1.1-3.6S-371.1-428.3-371.1-426.1z"/>
					</g>
				</g>
			</g>
			<g id="BR_BR_7RFLBDE_-_23-8_258_00000058583057809865587700000005649167466542138254_" transform="translate(262.5,637.5)">
				<g id="g170772_00000101786110515631314180000005654894656960977313_" transform="translate(-450,-1500)">
					
						<rect id="rect170770_00000083072448257333321150000016680757680997970309_" x="262.5" y="862.5" fill="#ED2224" width="75" height="75"/>
				</g>
			</g>
		</g>
	</g>
</g>
<g id="text" display="none">
	
		<rect id="frontbox" x="-187.5" y="-637.5" display="inline" fill="none" stroke="#000000" stroke-miterlimit="10" width="1650" height="1275"/>
	<g id="align" display="inline">
	</g>
</g>
<g id="crop" display="none">
	<g id="front" display="inline">
		<g>
			<line fill="none" stroke="#939598" stroke-miterlimit="10" x1="-159.4" y1="0" x2="609.4" y2="0"/>
			<line fill="none" stroke="#939598" stroke-miterlimit="10" x1="-159.4" y1="75" x2="609.4" y2="75"/>
			<line fill="none" stroke="#939598" stroke-miterlimit="10" x1="0" y1="-9.4" x2="0" y2="159.4"/>
			<line fill="none" stroke="#939598" stroke-miterlimit="10" x1="75" y1="-9.4" x2="75" y2="159.4"/>
		</g>
	</g>
</g>
<g id="guides" display="none">
</g>
</svg>
