<?xml version="1.0" encoding="utf-8"?>
<!-- Generator: Adobe Illustrator 26.0.3, SVG Export Plug-In . SVG Version: 6.00 Build 0)  -->
<svg version="1.2" baseProfile="tiny" xmlns="http://www.w3.org/2000/svg" xmlns:xlink="http://www.w3.org/1999/xlink" x="0px"
	 y="0px" viewBox="0 0 75 75" overflow="visible" xml:space="preserve">
<g id="svg">
	<g>
		<g id="cs_layer_CNA_0002_00000023283088047694392320000015410210321053132443_">
			<g id="g169366_00000060018564281457370690000011209304467157080227_">
			</g>
			<g id="BR_BR_8_HUS_-_7-7_263_00000152959374761991795810000012077592836430327997_" transform="translate(637.5,637.5)">
				<g id="g170886_00000052789583963225370580000004149751561541276856_" transform="translate(-450,-1500)">
					
						<rect id="rect170884_00000158720048235113040450000014758871571337746054_" x="-187.5" y="862.5" fill="#ED2224" width="75" height="75"/>
				</g>
				<g id="g170903_00000116234175251013587040000000894470797792499339_" transform="translate(229.688,-150)">
					<g>
						<path fill="#FFFFFF" d="M-801.5-467.9v17H-828v-17H-801.5z M-803-466.5h-23.6v14.2h23.6V-466.5z M-823.7-456.4
							c-0.8-0.8-1.2-1.9-1.2-3c0-2.3,1.9-4.2,4.2-4.2c0,0,0,0,0,0v0h11.8c0,0,0,0,0,0c2.3,0,4.2,2,4.2,4.3c0,2.3-1.9,4.2-4.2,4.2
							c0,0,0,0,0,0v0h-11.8c0,0,0,0,0,0c0,0,0,0,0,0C-821.8-455.2-822.9-455.6-823.7-456.4z M-823.5-459.4c0,0.8,0.3,1.5,0.8,2
							c0.5,0.5,1.2,0.9,2,0.9h11.8c0,0,0,0,0,0c1.5,0,2.8-1.3,2.8-2.8c0-1.6-1.2-2.9-2.8-2.9v0h-11.8
							C-822.2-462.2-823.5-461-823.5-459.4z"/>
					</g>
					<g>
						<path fill="#FFFFFF" d="M-844.7-440.9c1.8,0.2,2.3,1.6,2.3,3.2c0,2.3-1.2,3.6-3.3,3.6s-3.3-1.4-3.3-3.6c0-1.6,0.5-3.1,2.3-3.2
							v0c-1.5-0.3-2.2-1.5-2.2-2.9c0-2,1.2-3.1,3.2-3.1c2,0,3.2,1.2,3.2,3.1C-842.5-442.4-843.2-441.2-844.7-440.9L-844.7-440.9z
							 M-844-437.6c0-1.1-0.1-2.6-1.7-2.6c-1.5,0-1.7,1.4-1.7,2.6c0,1.1,0.4,2.2,1.7,2.2C-844.4-435.4-844-436.5-844-437.6z
							 M-844.1-443.9c0-0.9-0.5-1.9-1.5-1.9c-1.1,0-1.5,0.9-1.5,1.9c0,0.9,0.3,2.3,1.5,2.3C-844.4-441.6-844.1-442.9-844.1-443.9z"
							/>
						<path fill="#FFFFFF" d="M-836.1-434.2v-13h1.7v5.6h4.6v-5.6h1.7v13h-1.7v-5.9h-4.6v5.9H-836.1z"/>
						<path fill="#FFFFFF" d="M-820.5-443.3h1.5v7.2c0,0.6,0,1.3,0.1,1.9h-1.6v-1.1h-0.1c-0.5,0.8-1.4,1.3-2.3,1.3
							c-1.6,0-2.4-0.8-2.4-2.3v-6.9h1.5v6.3c0,1.1,0.5,1.8,1.5,1.8c0.8,0,1.8-0.6,1.8-2.1V-443.3z"/>
						<path fill="#FFFFFF" d="M-813.7-434.1c-2,0-3.2-0.9-3.1-3h1.7c0,0.5,0,1.7,1.5,1.7c0.9,0,1.6-0.5,1.6-1.4
							c0-1.6-4.5-1.7-4.5-4.4c0-1,0.6-2.5,3.1-2.5c1.6,0,3,0.8,2.9,2.6h-1.6c0-1-0.5-1.5-1.4-1.5c-0.8,0-1.4,0.4-1.4,1.2
							c0,1.6,4.5,1.6,4.5,4.3C-810.5-434.8-811.9-434.1-813.7-434.1z"/>
					</g>
					<g>
						<path fill="#FFFFFF" d="M-817.3-478.2h1v7.2h-1V-478.2z"/>
						<path fill="#FFFFFF" d="M-814.6-478.2h1v7.2h-1V-478.2z"/>
					</g>
					<g>
						<path fill="#FFFFFF" d="M-838-463.6c-0.7,0.6-1.8,1.2-2.6,1.6v-1.6c1-0.5,2.1-1.2,2.7-1.7h1.4v11.1h-1.5V-463.6z"/>
					</g>
					<g>
						<path fill="#FFFFFF" d="M-842.6-424.2v-1l2.4-5.3h1.5v5.3h1v1h-1v2h-1v-2H-842.6z M-839.9-425.2v-4.3h0l-1.8,4.3H-839.9z"/>
						<path fill="#FFFFFF" d="M-837.3-424.2v-1l2.4-5.3h1.5v5.3h1v1h-1v2h-1v-2H-837.3z M-834.5-425.2v-4.3h0l-1.8,4.3H-834.5z"/>
						<path fill="#FFFFFF" d="M-830.3-427c1,0.1,1.7-0.3,1.7-1.4c0-0.8-0.3-1.3-1.2-1.3c-0.9,0-1.1,0.7-1,1.4h-1.1
							c-0.1-1.4,0.6-2.3,2.1-2.3c1.4,0,2.3,0.7,2.3,2.2c0,1.6-1.2,1.8-1.6,1.9v0c1.3,0.2,1.7,0.9,1.7,2.1c0,1.6-0.9,2.4-2.5,2.4
							c-2.3,0-2.1-2-2.1-2.5h1.1c0,0.8,0.1,1.5,1.1,1.5c1,0,1.3-0.6,1.3-1.5c0-1.3-0.5-1.6-1.8-1.6V-427z"/>
						<path fill="#FFFFFF" d="M-823.6-426.6c1.2,0.1,1.5,1.1,1.5,2.2c0,1.5-0.8,2.4-2.2,2.4s-2.2-0.9-2.2-2.4c0-1.1,0.3-2,1.5-2.2v0
							c-1-0.2-1.5-1-1.5-2c0-1.3,0.8-2.1,2.1-2.1c1.3,0,2.1,0.8,2.1,2.1C-822.2-427.6-822.6-426.8-823.6-426.6L-823.6-426.6z
							 M-823.2-424.4c0-0.7-0.1-1.7-1.1-1.7s-1.1,1-1.1,1.7c0,0.7,0.3,1.5,1.1,1.5C-823.5-422.9-823.2-423.7-823.2-424.4z
							 M-823.3-428.6c0-0.6-0.3-1.2-1-1.2c-0.7,0-1,0.6-1,1.2c0,0.6,0.2,1.5,1,1.5C-823.5-427.1-823.3-428-823.3-428.6z"/>
						<path fill="#FFFFFF" d="M-821.3-424.2v-1l2.4-5.3h1.5v5.3h1v1h-1v2h-1v-2H-821.3z M-818.5-425.2v-4.3h0l-1.8,4.3H-818.5z"/>
					</g>
				</g>
			</g>
			<g id="BR_BR_8_MED_-_NONE_264_00000154408372661737863780000013879682350432726973_" transform="translate(712.5,637.5)">
				<g id="g170908_00000010308814580202511870000018404895880372957335_" transform="translate(-450,-1500)">
					
						<rect id="rect170906_00000026846597936493747700000002001977079237009039_" x="-187.5" y="862.5" fill="#ED2224" width="75" height="75"/>
				</g>
			</g>
		</g>
	</g>
</g>
<g id="text" display="none">
	
		<rect id="frontbox" x="-637.5" y="-637.5" display="inline" fill="none" stroke="#000000" stroke-miterlimit="10" width="1650" height="1275"/>
	<g id="align" display="inline">
	</g>
</g>
<g id="crop" display="none">
	<g id="front" display="inline">
		<g>
			<line fill="none" stroke="#939598" stroke-miterlimit="10" x1="-609.4" y1="0" x2="159.4" y2="0"/>
			<line fill="none" stroke="#939598" stroke-miterlimit="10" x1="-609.4" y1="75" x2="159.4" y2="75"/>
			<line fill="none" stroke="#939598" stroke-miterlimit="10" x1="0" y1="-9.4" x2="0" y2="159.4"/>
			<line fill="none" stroke="#939598" stroke-miterlimit="10" x1="75" y1="-9.4" x2="75" y2="159.4"/>
		</g>
	</g>
</g>
<g id="guides" display="none">
</g>
</svg>
