<?xml version="1.0" encoding="utf-8"?>
<!-- Generator: Adobe Illustrator 26.0.3, SVG Export Plug-In . SVG Version: 6.00 Build 0)  -->
<svg version="1.2" baseProfile="tiny" xmlns="http://www.w3.org/2000/svg" xmlns:xlink="http://www.w3.org/1999/xlink" x="0px"
	 y="0px" viewBox="0 0 75 75" overflow="visible" xml:space="preserve">
<g id="svg">
	<g>
		<g id="cs_layer_CNA_0002_00000023283088047694392320000015410210321053132443_">
			<g id="g169366_00000060018564281457370690000011209304467157080227_">
			</g>
			<g id="BR_BR_8_-_10_259_00000076590438866123750940000007746335949413640601_" transform="translate(337.5,637.5)">
				<g id="g170794_00000123404602972496992910000002195963036754683274_" transform="translate(-450,-1500)">
					
						<rect id="rect170792_00000003783532408473191740000003351113797373842607_" x="112.5" y="862.5" fill="#ED2224" width="75" height="75"/>
				</g>
				<g id="g170813_00000082362755904708361810000006939206154493568925_" transform="translate(229.688,-150)">
					
						<rect id="rect170796_00000022528653244180826310000003701309343106670525_" x="-567.2" y="-468.8" fill="#7F1416" width="75" height="18.8"/>
					<g>
						<path fill="#FFFFFF" d="M-501.5-467.9v17H-528v-17H-501.5z M-503-466.5h-23.6v14.2h23.6V-466.5z M-523.7-456.4
							c-0.8-0.8-1.2-1.9-1.2-3c0-2.3,1.9-4.2,4.2-4.2c0,0,0,0,0,0v0h11.8c0,0,0,0,0,0c2.3,0,4.2,2,4.2,4.3c0,2.3-1.9,4.2-4.2,4.2
							c0,0,0,0,0,0v0h-11.8c0,0,0,0,0,0c0,0,0,0,0,0C-521.8-455.2-522.9-455.6-523.7-456.4z M-523.5-459.4c0,0.8,0.3,1.5,0.8,2
							c0.5,0.5,1.2,0.9,2,0.9h11.8c0,0,0,0,0,0c1.5,0,2.8-1.3,2.8-2.8c0-1.6-1.2-2.9-2.8-2.9v0h-11.8
							C-522.2-462.2-523.5-461-523.5-459.4z"/>
					</g>
					<g>
						<path fill="#FFFFFF" d="M-528.7-440.9c1.8,0.2,2.3,1.6,2.3,3.2c0,2.3-1.2,3.6-3.3,3.6s-3.3-1.4-3.3-3.6c0-1.6,0.5-3.1,2.3-3.2
							v0c-1.5-0.3-2.2-1.5-2.2-2.9c0-2,1.2-3.1,3.2-3.1c2,0,3.2,1.2,3.2,3.1C-526.5-442.4-527.2-441.2-528.7-440.9L-528.7-440.9z
							 M-528-437.6c0-1.1-0.1-2.6-1.7-2.6c-1.5,0-1.7,1.4-1.7,2.6c0,1.1,0.4,2.2,1.7,2.2C-528.4-435.4-528-436.5-528-437.6z
							 M-528.1-443.9c0-0.9-0.5-1.9-1.5-1.9c-1.1,0-1.5,0.9-1.5,1.9c0,0.9,0.3,2.3,1.5,2.3C-528.4-441.6-528.1-442.9-528.1-443.9z"
							/>
					</g>
					<g>
						<path fill="#FFFFFF" d="M-517.3-478.2l1.9,2.8l1.9-2.8h1.2l-2.6,3.5l2.7,3.8h-1.3l-2.1-3.1l-2.2,3.1h-1.2l2.8-3.8l-2.5-3.4
							H-517.3z"/>
					</g>
					<g>
						<path fill="#FFFFFF" d="M-549.9-452.3c-0.9-2.1-1.9-4.8-1.9-7.1c0-1.3,0.3-2.5,0.7-3.7c0.4-1.4,0.9-2.5,1.1-3.2h1.1
							c-0.3,0.8-0.6,1.9-0.9,3.4c-0.3,1.5-0.4,2.5-0.4,3.5c0,2.3,0.6,4.1,1.5,7.2H-549.9z"/>
						<path fill="#FFFFFF" d="M-545.1-456.9c0,1.1,1,1.6,1.8,1.6c1.9,0,2.2-1.8,2.2-2.5c0-1.5-0.8-2.4-2.1-2.4
							c-0.6,0-1.2,0.2-1.5,0.6c-0.3,0.3-0.4,0.7-0.5,0.9h-1.5l0.3-6.6h6.2v1.3h-4.9l-0.2,3.6c0.3-0.3,1-1,2.3-1
							c2.2,0,3.3,1.7,3.3,3.6c0,2.2-1.5,3.8-4,3.8c-1.8,0-3.2-1-3.3-2.9H-545.1z"/>
						<path fill="#FFFFFF" d="M-536.5-466.3c0.9,2.1,1.9,4.8,1.9,7.1c0,1.3-0.3,2.5-0.7,3.7c-0.4,1.4-0.9,2.5-1.1,3.2h-1.1
							c0.3-0.8,0.6-1.9,0.9-3.4c0.3-1.5,0.4-2.5,0.4-3.5c0-2.3-0.6-4.1-1.5-7.1H-536.5z"/>
					</g>
					<g>
						<path fill="#FFFFFF" d="M-531.5-422.2h-1.1v-7.1l-1.2,0.8v-1.1c0.3-0.1,1.1-0.7,1.4-1h0.9V-422.2z"/>
						<path fill="#FFFFFF" d="M-524.7-426.3c0,2.2,0,4.3-2.2,4.3s-2.2-2.1-2.2-4.3c0-2.2,0-4.3,2.2-4.3
							C-524.7-430.6-524.7-428.5-524.7-426.3z M-528.1-426.1c0,1.4-0.1,3.2,1.1,3.2s1.1-1.8,1.1-3.2c0-2.2,0-3.6-1.1-3.6
							C-528.1-429.7-528.1-428.3-528.1-426.1z"/>
					</g>
				</g>
			</g>
			<g id="BR_BR_8_-_NONE_260_00000017518647189612447380000002452558503291461781_" transform="translate(412.5,637.5)">
				<g id="g170818_00000064319773807120222520000017991948691013571230_" transform="translate(-450,-1500)">
					
						<rect id="rect170816_00000076571020604934681310000012357380075074248606_" x="112.5" y="862.5" fill="#ED2224" width="75" height="75"/>
				</g>
			</g>
		</g>
	</g>
</g>
<g id="text" display="none">
	
		<rect id="frontbox" x="-337.5" y="-637.5" display="inline" fill="none" stroke="#000000" stroke-miterlimit="10" width="1650" height="1275"/>
	<g id="align" display="inline">
	</g>
</g>
<g id="crop" display="none">
	<g id="front" display="inline">
		<g>
			<line fill="none" stroke="#939598" stroke-miterlimit="10" x1="-309.4" y1="0" x2="459.4" y2="0"/>
			<line fill="none" stroke="#939598" stroke-miterlimit="10" x1="-309.4" y1="75" x2="459.4" y2="75"/>
			<line fill="none" stroke="#939598" stroke-miterlimit="10" x1="0" y1="-9.4" x2="0" y2="159.4"/>
			<line fill="none" stroke="#939598" stroke-miterlimit="10" x1="75" y1="-9.4" x2="75" y2="159.4"/>
		</g>
	</g>
</g>
<g id="guides" display="none">
</g>
</svg>
