<?xml version="1.0" encoding="utf-8"?>
<!-- Generator: Adobe Illustrator 26.0.3, SVG Export Plug-In . SVG Version: 6.00 Build 0)  -->
<svg version="1.2" baseProfile="tiny" xmlns="http://www.w3.org/2000/svg" xmlns:xlink="http://www.w3.org/1999/xlink" x="0px"
	 y="0px" viewBox="0 0 75 75" overflow="visible" xml:space="preserve">
<g id="svg">
	<g>
		<g id="cs_layer_CNA_0002_00000023283088047694392320000015410210321053132443_">
			<g id="g169366_00000060018564281457370690000011209304467157080227_">
			</g>
			<g id="BR_BR_7BLKWA_-_154-51_256_00000139285038135757922520000002827386802754056867_" transform="translate(112.5,637.5)">
				<g id="g170728_00000045586520494844887910000014353300956787304375_" transform="translate(-450,-1500)">
					
						<rect id="rect170726_00000110464320985776145860000012093130187127687326_" x="337.5" y="862.5" fill="#ED2224" width="75" height="75"/>
				</g>
				<g id="g170745_00000031926155680901100190000013405112908150045072_" transform="translate(229.688,-150)">
					<g>
						<path fill="#FFFFFF" d="M-276.5-467.9v17H-303v-17H-276.5z M-301.6-465.7v12.5l10.4-6.3L-301.6-465.7z M-279.3-466.5h-20.9
							l10.4,6.3L-279.3-466.5z M-300.2-452.3h20.9l-10.4-6.3L-300.2-452.3z M-288.4-459.4l10.4,6.3v-12.5L-288.4-459.4z"/>
					</g>
					<g>
						<path fill="#FFFFFF" d="M-331.9-446.7h6.5v1.4l-3.3,11.1h-1.9l3.5-11.1h-4.8V-446.7z"/>
						<path fill="#FFFFFF" d="M-322.8-434.2v-13h4.2c1.8,0,2.4,0.6,2.9,1.3c0.5,0.7,0.5,1.5,0.5,1.7c0,1.6-0.6,2.7-2.2,3.1v0.1
							c1.9,0.2,2.7,1.3,2.7,3.1c0,3.3-2.4,3.7-3.9,3.7H-322.8z M-321.1-441.8h2.4c1.3,0,1.9-0.8,1.9-2.1c0-1.1-0.6-2-2-2h-2.3
							V-441.8z M-321.1-435.7h2.3c1.8,0,2.4-1.3,2.4-2.2c0-2.1-1.3-2.4-3-2.4h-1.8V-435.7z"/>
						<path fill="#FFFFFF" d="M-310.7-434.2h-1.5v-13h1.5V-434.2z"/>
						<path fill="#FFFFFF" d="M-306.7-434.2h-1.5v-13h1.5v7.8h0l2.8-3.9h1.8l-3,3.9l3.6,5.2h-1.9l-3.2-5.1h0V-434.2z"/>
						<path fill="#FFFFFF" d="M-301.3-447.2h1.8l2.4,11.3h0l2.6-11.3h2.1l2.4,11.3h0l2.6-11.3h1.7l-3.4,13h-2l-2.5-11.3h0l-2.6,11.3
							h-2L-301.3-447.2z"/>
						<path fill="#FFFFFF" d="M-280-435.6L-280-435.6c-0.5,1-1.2,1.5-2.3,1.5c-1.9,0-2.5-1.2-2.5-3c0-2.8,2.7-2.9,4.8-2.8
							c0-1.2,0.1-2.5-1.5-2.5c-1,0-1.5,0.7-1.4,1.6h-1.6c0.1-2,1.2-2.7,3.1-2.7c2.3,0,3,1.2,3,2.7v4.4c0,0.7,0.1,1.5,0.2,2.2h-1.6
							V-435.6z M-283.3-437c0,0.9,0.4,1.7,1.4,1.7c0.9,0,2-0.6,1.9-3.5C-281.4-438.8-283.3-438.9-283.3-437z"/>
					</g>
					<g>
						<path fill="#FFFFFF" d="M-292.3-478.2h1v7.2h-1V-478.2z"/>
						<path fill="#FFFFFF" d="M-289.6-478.2h1v7.2h-1V-478.2z"/>
					</g>
					<g>
						<path fill="#FFFFFF" d="M-313-463.6c-0.7,0.6-1.8,1.2-2.6,1.6v-1.6c1-0.5,2.1-1.2,2.7-1.7h1.4v11.1h-1.5V-463.6z"/>
					</g>
					<g>
						<path fill="#FFFFFF" d="M-316.1-422.2h-1.1v-7.1l-1.2,0.8v-1.1c0.3-0.1,1.1-0.7,1.4-1h0.9V-422.2z"/>
						<path fill="#FFFFFF" d="M-309.7-430.5v1h-2.8v2.4l0,0c0.2-0.4,0.8-0.6,1.3-0.6c1.2,0,1.7,0.9,1.7,2.8c0,1.3-0.2,2.9-2.3,2.9
							c-1.7,0-2.1-0.9-2.1-2.1h1.1c0,0.6,0.3,1.3,1,1.3c1,0,1.1-1,1.1-1.8c0-1.2,0-2.2-1.1-2.2c-0.6,0-0.9,0.4-1,1h-1v-4.7H-309.7z"
							/>
						<path fill="#FFFFFF" d="M-308.7-424.2v-1l2.4-5.3h1.5v5.3h1v1h-1v2h-1v-2H-308.7z M-305.9-425.2v-4.3h0l-1.8,4.3H-305.9z"/>
						<path fill="#FFFFFF" d="M-303.1-421h-0.8l2.8-9.8h0.8L-303.1-421z"/>
						<path fill="#FFFFFF" d="M-295.7-430.5v1h-2.8v2.4l0,0c0.2-0.4,0.8-0.6,1.3-0.6c1.2,0,1.7,0.9,1.7,2.8c0,1.3-0.2,2.9-2.3,2.9
							c-1.7,0-2.1-0.9-2.1-2.1h1.1c0,0.6,0.3,1.3,1,1.3c1,0,1.1-1,1.1-1.8c0-1.2,0-2.2-1.1-2.2c-0.6,0-0.9,0.4-1,1h-1v-4.7H-295.7z"
							/>
						<path fill="#FFFFFF" d="M-291.5-422.2h-1.1v-7.1l-1.2,0.8v-1.1c0.3-0.1,1.1-0.7,1.4-1h0.9V-422.2z"/>
					</g>
				</g>
			</g>
			<g id="BR_BR_7GRNHO_-_69-50_257_00000178923267857375668620000015124008212361777800_" transform="translate(187.5,637.5)">
				<g id="g170750_00000127732970521146475220000016353402006908922039_" transform="translate(-450,-1500)">
					
						<rect id="rect170748_00000106829096940609419720000005661707722188832173_" x="337.5" y="862.5" fill="#ED2224" width="75" height="75"/>
				</g>
			</g>
		</g>
	</g>
</g>
<g id="text" display="none">
	
		<rect id="frontbox" x="-112.5" y="-637.5" display="inline" fill="none" stroke="#000000" stroke-miterlimit="10" width="1650" height="1275"/>
	<g id="align" display="inline">
	</g>
</g>
<g id="crop" display="none">
	<g id="front" display="inline">
		<g>
			<line fill="none" stroke="#939598" stroke-miterlimit="10" x1="-84.4" y1="0" x2="684.4" y2="0"/>
			<line fill="none" stroke="#939598" stroke-miterlimit="10" x1="-84.4" y1="75" x2="684.4" y2="75"/>
			<line fill="none" stroke="#939598" stroke-miterlimit="10" x1="0" y1="-9.4" x2="0" y2="159.4"/>
			<line fill="none" stroke="#939598" stroke-miterlimit="10" x1="75" y1="-9.4" x2="75" y2="159.4"/>
		</g>
	</g>
</g>
<g id="guides" display="none">
</g>
</svg>
