<?xml version="1.0" encoding="utf-8"?>
<!-- Generator: Adobe Illustrator 26.0.3, SVG Export Plug-In . SVG Version: 6.00 Build 0)  -->
<svg version="1.2" baseProfile="tiny" xmlns="http://www.w3.org/2000/svg" xmlns:xlink="http://www.w3.org/1999/xlink" x="0px"
	 y="0px" viewBox="0 0 75 75" overflow="visible" xml:space="preserve">
<g id="svg">
	<g>
		<g id="cs_layer_CNA_0002_00000023283088047694392320000015410210321053132443_">
			<g id="g169366_00000060018564281457370690000011209304467157080227_">
			</g>
			<g id="BR_BR_7RFLBDE_-_23-8_258_00000058583057809865587700000005649167466542138254_" transform="translate(262.5,637.5)">
				<g id="g170772_00000101786110515631314180000005654894656960977313_" transform="translate(-450,-1500)">
					
						<rect id="rect170770_00000083072448257333321150000016680757680997970309_" x="187.5" y="862.5" fill="#ED2224" width="75" height="75"/>
				</g>
				<g id="g170789_00000174602814280118493080000018255334688876632229_" transform="translate(229.688,-150)">
					<g>
						<path fill="#FFFFFF" d="M-426.5-467.9v17H-453v-17H-426.5z M-445.3-458c0,0.4-0.1,0.8-0.2,1.2l4.3-2.6l-10.4-6.3v5.5
							c0.6-0.8,1.6-1.4,2.8-1.4c0,0,0,0,0,0C-446.9-461.5-445.3-459.9-445.3-458z M-451.6-455.8v2.7l2.2-1.3
							C-450.3-454.6-451.1-455.1-451.6-455.8z M-446.7-458c0-1.2-1-2.1-2.1-2.1c-1.2,0-2.1,1-2.1,2.1c0,1.2,1,2.1,2.1,2.1
							C-447.6-455.8-446.7-456.8-446.7-458z M-429.3-466.5h-20.9l10.4,6.3L-429.3-466.5z M-450.2-452.3h20.9l-10.4-6.3L-450.2-452.3
							z M-428-460.2v-5.5l-10.4,6.3l4.3,2.6c-0.1-0.4-0.2-0.8-0.2-1.2c0-2,1.6-3.5,3.5-3.5C-429.6-461.5-428.6-461-428-460.2z
							 M-430.7-455.8c1.2,0,2.1-1,2.1-2.1s-1-2.1-2.1-2.1c-1.2,0-2.1,1-2.1,2.1C-432.9-456.8-431.9-455.8-430.7-455.8z
							 M-430.2-454.5l2.2,1.3v-2.7C-428.5-455.1-429.3-454.6-430.2-454.5z"/>
					</g>
					<g>
						<path fill="#FFFFFF" d="M-482.1-446.7h6.5v1.4l-3.3,11.1h-1.9l3.5-11.1h-4.8V-446.7z"/>
						<path fill="#FFFFFF" d="M-471.6-440.2v6h-1.7v-13h4.5c2.3,0,3.1,1.6,3.1,3.2c0,1.5-0.8,2.7-2.4,3v0c1.5,0.2,2,0.7,2.1,3.3
							c0,0.6,0.2,2.6,0.5,3.4h-1.7c-0.5-0.9-0.4-2.6-0.5-4.3c-0.1-1.6-1.4-1.7-2-1.7H-471.6z M-471.6-441.7h2.5c1.2,0,1.8-1,1.8-2.2
							c0-0.9-0.5-2-1.7-2h-2.5V-441.7z"/>
						<path fill="#FFFFFF" d="M-463.1-443.3v-1.8c0-1.8,1.3-2.2,2.6-2.2c0.3,0,0.5,0,0.7,0.1v1.1c-1.6-0.1-1.8,0.6-1.8,1.3v1.5h1.8
							v1.1h-1.8v8h-1.5v-8h-1.4v-1.1H-463.1z M-456.9-434.2h-1.5v-13h1.5V-434.2z"/>
						<path fill="#FFFFFF" d="M-454.1-434.2v-13h4.2c1.8,0,2.4,0.6,2.9,1.3c0.5,0.7,0.5,1.5,0.5,1.7c0,1.6-0.6,2.7-2.2,3.1v0.1
							c1.9,0.2,2.7,1.3,2.7,3.1c0,3.3-2.4,3.7-3.9,3.7H-454.1z M-452.4-441.8h2.4c1.3,0,1.9-0.8,1.9-2.1c0-1.1-0.6-2-2-2h-2.3
							V-441.8z M-452.4-435.7h2.3c1.8,0,2.4-1.3,2.4-2.2c0-2.1-1.3-2.4-3-2.4h-1.8V-435.7z"/>
						<path fill="#FFFFFF" d="M-438.6-447.2h1.5v13h-1.5v-1.1h0c-0.5,0.8-1.1,1.3-2.1,1.3c-1.5,0-2.9-0.6-2.9-4.6
							c0-2.3,0.1-4.9,3-4.9c0.9,0,1.5,0.4,2,1.1h0.1V-447.2z M-440.3-442.3c-1.6,0-1.8,1.3-1.8,3.7c0,1.4,0,3.3,1.9,3.3
							c1.7,0,1.7-2.1,1.7-3.9C-438.6-440.4-438.7-442.3-440.3-442.3z"/>
						<path fill="#FFFFFF" d="M-433-438.3c0,2.5,0.7,3,1.8,3c1,0,1.5-0.8,1.6-1.7h1.6c0,2-1.3,2.9-3.2,2.9c-1.9,0-3.5-0.6-3.5-4.6
							c0-2.7,0.3-4.9,3.5-4.9c2.6,0,3.2,1.4,3.2,4.4v0.8H-433z M-429.4-439.4c0-2.6-0.7-3-1.8-3c-0.9,0-1.7,0.5-1.7,3H-429.4z"/>
					</g>
					<g>
						<path fill="#FFFFFF" d="M-442.3-478.2h1v7.2h-1V-478.2z"/>
						<path fill="#FFFFFF" d="M-439.6-478.2h1v7.2h-1V-478.2z"/>
					</g>
					<g>
						<path fill="#FFFFFF" d="M-474.9-452.3c-0.9-2.1-1.9-4.8-1.9-7.1c0-1.3,0.3-2.5,0.7-3.7c0.4-1.4,0.9-2.5,1.1-3.2h1.1
							c-0.3,0.8-0.6,1.9-0.9,3.4c-0.3,1.5-0.4,2.5-0.4,3.5c0,2.3,0.6,4.1,1.5,7.2H-474.9z"/>
						<path fill="#FFFFFF" d="M-471.8-455.7l2.9-2.8c0.6-0.6,1.2-1.2,1.7-1.9c0.6-0.9,0.8-1.4,0.8-2c0-0.5-0.2-1.8-1.8-1.8
							c-1.8,0-1.8,1.5-1.8,1.9h-1.7c0-0.5,0.1-1.6,1-2.4c0.8-0.7,1.7-0.8,2.4-0.8c1.7,0,3.4,0.9,3.4,3.2c0,0.7,0,1.2-1.2,2.8
							c-0.3,0.4-1.7,1.9-2,2.2l-1.9,1.8h5.3v1.3h-7V-455.7z"/>
						<path fill="#FFFFFF" d="M-461.5-466.3c0.9,2.1,1.9,4.8,1.9,7.1c0,1.3-0.3,2.5-0.7,3.7c-0.4,1.4-0.9,2.5-1.1,3.2h-1.1
							c0.3-0.8,0.6-1.9,0.9-3.4c0.3-1.5,0.4-2.5,0.4-3.5c0-2.3-0.6-4.1-1.5-7.1H-461.5z"/>
					</g>
					<g>
						<path fill="#FFFFFF" d="M-463.8-422.2v-1c2.4-3.4,3.2-4,3.2-5.5c0-0.7-0.3-1.1-1-1.1c-0.8,0-1,0.7-1,1.4h-1.1
							c-0.1-1.4,0.6-2.3,2-2.3c1.5,0,2.2,0.7,2.2,2.2c0,1.9-0.9,2.5-3.1,5.3h3.3v1H-463.8z"/>
						<path fill="#FFFFFF" d="M-456.9-427c1,0.1,1.7-0.3,1.7-1.4c0-0.8-0.3-1.3-1.2-1.3c-0.9,0-1.1,0.7-1,1.4h-1.1
							c-0.1-1.4,0.6-2.3,2.1-2.3c1.4,0,2.3,0.7,2.3,2.2c0,1.6-1.2,1.8-1.6,1.9v0c1.3,0.2,1.7,0.9,1.7,2.1c0,1.6-0.9,2.4-2.5,2.4
							c-2.3,0-2.1-2-2.1-2.5h1.1c0,0.8,0.1,1.5,1.1,1.5c1,0,1.3-0.6,1.3-1.5c0-1.3-0.5-1.6-1.8-1.6V-427z"/>
						<path fill="#FFFFFF" d="M-453.1-421h-0.8l2.8-9.8h0.8L-453.1-421z"/>
						<path fill="#FFFFFF" d="M-446.9-426.6c1.2,0.1,1.5,1.1,1.5,2.2c0,1.5-0.8,2.4-2.2,2.4s-2.2-0.9-2.2-2.4c0-1.1,0.3-2,1.5-2.2v0
							c-1-0.2-1.5-1-1.5-2c0-1.3,0.8-2.1,2.1-2.1s2.1,0.8,2.1,2.1C-445.5-427.6-446-426.8-446.9-426.6L-446.9-426.6z M-446.5-424.4
							c0-0.7-0.1-1.7-1.1-1.7s-1.1,1-1.1,1.7c0,0.7,0.3,1.5,1.1,1.5S-446.5-423.7-446.5-424.4z M-446.6-428.6c0-0.6-0.3-1.2-1-1.2
							s-1,0.6-1,1.2c0,0.6,0.2,1.5,1,1.5S-446.6-428-446.6-428.6z"/>
					</g>
				</g>
			</g>
			<g id="BR_BR_8_-_10_259_00000076590438866123750940000007746335949413640601_" transform="translate(337.5,637.5)">
				<g id="g170794_00000123404602972496992910000002195963036754683274_" transform="translate(-450,-1500)">
					
						<rect id="rect170792_00000003783532408473191740000003351113797373842607_" x="187.5" y="862.5" fill="#ED2224" width="75" height="75"/>
				</g>
			</g>
		</g>
	</g>
</g>
<g id="text" display="none">
	
		<rect id="frontbox" x="-262.5" y="-637.5" display="inline" fill="none" stroke="#000000" stroke-miterlimit="10" width="1650" height="1275"/>
	<g id="align" display="inline">
	</g>
</g>
<g id="crop" display="none">
	<g id="front" display="inline">
		<g>
			<line fill="none" stroke="#939598" stroke-miterlimit="10" x1="-234.4" y1="0" x2="534.4" y2="0"/>
			<line fill="none" stroke="#939598" stroke-miterlimit="10" x1="-234.4" y1="75" x2="534.4" y2="75"/>
			<line fill="none" stroke="#939598" stroke-miterlimit="10" x1="0" y1="-9.4" x2="0" y2="159.4"/>
			<line fill="none" stroke="#939598" stroke-miterlimit="10" x1="75" y1="-9.4" x2="75" y2="159.4"/>
		</g>
	</g>
</g>
<g id="guides" display="none">
</g>
</svg>
