<?xml version="1.0" encoding="utf-8"?>
<!-- Generator: Adobe Illustrator 26.0.3, SVG Export Plug-In . SVG Version: 6.00 Build 0)  -->
<svg version="1.2" baseProfile="tiny" xmlns="http://www.w3.org/2000/svg" xmlns:xlink="http://www.w3.org/1999/xlink" x="0px"
	 y="0px" viewBox="0 0 75 75" overflow="visible" xml:space="preserve">
<g id="svg">
	<g>
		<g id="cs_layer_CNA_0002_00000023283088047694392320000015410210321053132443_">
			<g id="g169366_00000060018564281457370690000011209304467157080227_">
			</g>
			<g id="BR_BR_76_-_1SPT-1_254_00000070815124276709837190000008159613970176230547_" transform="translate(712.5,525)">
				<g id="g170684_00000038398590441868539260000003817783560616782507_" transform="translate(-450,-1500)">
					
						<rect id="rect170682_00000097478082334747133620000012143890440363484589_" x="-262.5" y="975" fill="#ED2224" width="75" height="75"/>
				</g>
				<g id="g170701_00000022518234716678464130000017035121453463080077_" transform="translate(229.688,-150)">
					<g>
						<path fill="#FFFFFF" d="M-876.5-355.4v17H-903v-17H-876.5z M-901.6-354v13.1l10.9-13.1H-901.6z M-900.7-339.8h21.8l-10.9-13.1
							L-900.7-339.8z M-892.6-345c0-1.4,1.2-2.6,2.8-2.6s2.8,1.2,2.8,2.6c0,1.4-1.2,2.6-2.8,2.6S-892.6-343.6-892.6-345z M-878-354
							h-10.9l10.9,13.1V-354z"/>
					</g>
					<g>
						<path fill="#FFFFFF" d="M-912.1-334.2h6.5v1.4l-3.3,11.1h-1.9l3.5-11.1h-4.8V-334.2z"/>
						<path fill="#FFFFFF" d="M-904-327.9c0-3.4-0.1-6.5,3.4-6.5c1.9,0,3.2,1.2,3.1,3h-1.7c0-0.9-0.5-1.8-1.5-1.8
							c-1.4,0-1.7,1.2-1.7,4.5h0c0.4-0.7,1.2-1.2,2-1.2c1.6,0,3,0.9,3,4.2c0,2.2-0.9,4.2-3.3,4.2C-904.1-321.5-904-324.7-904-327.9z
							 M-900.6-322.9c1.4,0,1.6-1.5,1.6-3.1c0-1.1-0.3-2.5-1.7-2.5c-1.5,0-1.7,1.6-1.7,2.7C-902.4-324.6-902.2-322.9-900.6-322.9z"
							/>
					</g>
					<g>
						<path fill="#FFFFFF" d="M-893.7-365.7h1v7.2h-1V-365.7z"/>
						<path fill="#FFFFFF" d="M-890.9-365.7h1v7.2h-1V-365.7z"/>
						<path fill="#FFFFFF" d="M-888.2-365.7h1v7.2h-1V-365.7z"/>
					</g>
					<g>
						<path fill="#FFFFFF" d="M-913-351.1c-0.7,0.6-1.8,1.2-2.6,1.6v-1.6c1-0.5,2.1-1.2,2.7-1.7h1.4v11.1h-1.5V-351.1z"/>
					</g>
					<g>
						<path fill="#FFFFFF" d="M-916.2-309.7h-1.1v-7.1l-1.2,0.8v-1.1c0.3-0.1,1.1-0.7,1.4-1h0.9V-309.7z"/>
						<path fill="#FFFFFF" d="M-912.5-312.3v0.3c0,1.2,0.7,1.5,1.5,1.5c0.9,0,1.5-0.4,1.5-1.4c0-1.9-3.9-1.7-3.9-4.3
							c0-1.5,1.1-2.4,2.5-2.4c1.6,0,2.5,0.8,2.4,2.5h-1.2c0-0.9-0.3-1.6-1.3-1.6c-0.7,0-1.3,0.3-1.3,1.3c0,1.9,3.9,1.6,3.9,4.4
							c0,1.8-1.3,2.4-2.7,2.4c-2.6,0-2.6-1.9-2.5-2.8H-912.5z"/>
						<path fill="#FFFFFF" d="M-905.7-315L-905.7-315c0.4-0.6,0.8-0.8,1.4-0.8c1,0,2,0.4,2,3c0,1.5,0,3.2-2,3.2
							c-0.6,0-1-0.3-1.3-0.7h0v2.9h-1v-8.3h1V-315z M-903.4-312.8c0-0.9,0-2.2-1.2-2.2c-1.2,0-1.1,1.7-1.1,2.6c0,0.8,0,2.1,1.1,2.1
							C-903.5-310.4-903.4-311.2-903.4-312.8z"/>
						<path fill="#FFFFFF" d="M-900.6-315.7v-1.2l1-0.4v1.6h1.3v0.7h-1.3v3.7c0,0.4,0,0.9,0.9,0.9c0.1,0,0.2,0,0.4,0v0.8
							c-0.3,0-0.6,0.1-1,0.1c-0.9,0-1.4-0.4-1.4-1.1v-4.3h-1v-0.7H-900.6z"/>
						<path fill="#FFFFFF" d="M-897.8-308.5h-0.8l2.8-9.8h0.8L-897.8-308.5z"/>
						<path fill="#FFFFFF" d="M-891.5-309.7h-1.1v-7.1l-1.2,0.8v-1.1c0.3-0.1,1.1-0.7,1.4-1h0.9V-309.7z"/>
					</g>
				</g>
			</g>
		</g>
	</g>
</g>
<g id="text" display="none">
	
		<rect id="frontbox" x="-712.5" y="-525" display="inline" fill="none" stroke="#000000" stroke-miterlimit="10" width="1650" height="1275"/>
	<g id="align" display="inline">
	</g>
</g>
<g id="crop" display="none">
	<g id="front" display="inline">
		<g>
			<line fill="none" stroke="#939598" stroke-miterlimit="10" x1="-684.4" y1="0" x2="84.4" y2="0"/>
			<line fill="none" stroke="#939598" stroke-miterlimit="10" x1="-684.4" y1="75" x2="84.4" y2="75"/>
			<line fill="none" stroke="#939598" stroke-miterlimit="10" x1="0" y1="-84.4" x2="0" y2="84.4"/>
			<line fill="none" stroke="#939598" stroke-miterlimit="10" x1="75" y1="-84.4" x2="75" y2="84.4"/>
		</g>
	</g>
</g>
<g id="guides" display="none">
</g>
</svg>
