<?xml version="1.0" encoding="utf-8"?>
<!-- Generator: Adobe Illustrator 26.0.3, SVG Export Plug-In . SVG Version: 6.00 Build 0)  -->
<svg version="1.2" baseProfile="tiny" xmlns="http://www.w3.org/2000/svg" xmlns:xlink="http://www.w3.org/1999/xlink" x="0px"
	 y="0px" viewBox="0 0 75 75" overflow="visible" xml:space="preserve">
<g id="svg">
	<g>
		<g id="cs_layer_CNA_0002_00000023283088047694392320000015410210321053132443_">
			<g id="g169366_00000060018564281457370690000011209304467157080227_">
			</g>
			<g id="BR_BR_KDGD_-_2SPT-2_273_00000075147817723374798850000005978349501134295734_" transform="translate(637.5,712.5)">
				<g id="g171108_00000110439419254124124700000012062803311870305176_" transform="translate(-450,-1500)">
					
						<rect id="rect171106_00000162345708910587468820000010747802723323260308_" x="-187.5" y="787.5" fill="#ED2224" width="75" height="75"/>
				</g>
				<g id="g171125_00000035500203529806052980000000059764048160041139_" transform="translate(229.688,-150)">
					<g>
						<path fill="#FFFFFF" d="M-801.5-542.9v17H-828v-17H-801.5z M-826.6-527.3h4.7c-1.9,0-3.5-1.6-3.5-3.5c0-1.7,1.1-3,2.7-3.4
							c-1.3-0.7-2.2-2.1-2.2-3.7c0-1.5,0.8-2.7,1.9-3.5h-3.6V-527.3z M-821.9-533c-1.2,0-2.1,1-2.1,2.1c0,1.2,1,2.1,2.1,2.1
							s2.1-1,2.1-2.1S-820.7-533-821.9-533z M-806.1-537.9c0-1.6-1.2-2.9-2.8-2.9h-11.8c0,0,0,0,0,0c-1.5,0-2.8,1.3-2.8,2.8
							c0,1.6,1.2,2.9,2.8,2.9c0,0,0,0,0,0h11.8c0,0,0,0,0,0C-807.4-535.1-806.1-536.4-806.1-537.9z M-816.9-533.7h-2.9
							c0.9,0.6,1.4,1.7,1.4,2.8c0,1.9-1.6,3.5-3.5,3.5h7c-1.9,0-3.5-1.6-3.5-3.5C-818.3-532-817.8-533-816.9-533.7z M-814.8-533
							c-1.2,0-2.1,1-2.1,2.1c0,1.2,1,2.1,2.1,2.1s2.1-1,2.1-2.1S-813.6-533-814.8-533z M-803-527.3v-14.2h-3.6
							c1.2,0.8,1.9,2.1,1.9,3.6c0,1.6-0.9,2.9-2.1,3.6c1.5,0.4,2.7,1.8,2.7,3.4c0,2-1.6,3.5-3.5,3.5c-2,0-3.5-1.6-3.5-3.5
							c0-1.2,0.6-2.2,1.4-2.8h-2.9c0.9,0.6,1.4,1.7,1.4,2.8c0,1.9-1.6,3.5-3.5,3.5H-803z M-809.8-530.9c0,1.2,1,2.1,2.1,2.1
							c1.2,0,2.1-1,2.1-2.1s-1-2.1-2.1-2.1C-808.9-533-809.8-532-809.8-530.9z"/>
					</g>
					<g>
						<path fill="#FFFFFF" d="M-848.7-509.2v-13h1.7v5.7h0.1l4.5-5.7h1.9l-4.7,5.9l5,7.1h-2.1l-4.6-6.8h-0.1v6.8H-848.7z"/>
						<path fill="#FFFFFF" d="M-838.7-522.2h4c1.7,0,2.8,0.6,3.5,2c0.5,1.1,0.6,3.7,0.6,4.1c0,2.8-0.3,4.4-0.8,5.2
							c-0.7,1.1-2,1.7-4.3,1.7h-3V-522.2z M-837-510.7h1.6c2.3,0,3.2-0.9,3.2-3.9v-2.6c0-2.6-0.8-3.6-2.5-3.6h-2.2V-510.7z"/>
						<path fill="#FFFFFF" d="M-821.5-518.8c0-1.5-0.6-2.4-2.3-2.4c-0.5,0-2.4,0.1-2.4,2.8v4.4c0,2.8,0.8,3.6,2.4,3.6
							c1.2,0,2-0.3,2.3-0.6v-3.9h-2.4v-1.4h4.1v6.3c-1.1,0.6-2.3,1-4,1c-2.8,0-4.1-1.4-4.1-5v-4.3c0-2.6,1.3-4.2,4.1-4.2
							c2.8,0,4.1,1,4,3.7H-821.5z"/>
						<path fill="#FFFFFF" d="M-812.1-522.2h1.5v13h-1.5v-1.1h0c-0.5,0.8-1.1,1.3-2.1,1.3c-1.5,0-2.9-0.6-2.9-4.6
							c0-2.3,0.1-4.9,3-4.9c0.9,0,1.5,0.4,2,1.1h0.1V-522.2z M-813.8-517.3c-1.6,0-1.8,1.3-1.8,3.7c0,1.4,0,3.3,1.9,3.3
							c1.7,0,1.7-2.1,1.7-3.9C-812.1-515.4-812.2-517.3-813.8-517.3z"/>
					</g>
					<g>
						<path fill="#FFFFFF" d="M-817.3-553.2h1v7.2h-1V-553.2z"/>
						<path fill="#FFFFFF" d="M-814.6-553.2h1v7.2h-1V-553.2z"/>
					</g>
					<g>
						<path fill="#FFFFFF" d="M-838-538.6c-0.7,0.6-1.8,1.2-2.6,1.6v-1.6c1-0.5,2.1-1.2,2.7-1.7h1.4v11.1h-1.5V-538.6z"/>
					</g>
					<g>
						<path fill="#FFFFFF" d="M-841.2-497.2h-1.1v-7.1l-1.2,0.8v-1.1c0.3-0.1,1.1-0.7,1.4-1h0.9V-497.2z"/>
						<path fill="#FFFFFF" d="M-837.5-499.8v0.3c0,1.2,0.7,1.5,1.5,1.5c0.9,0,1.5-0.4,1.5-1.4c0-1.9-3.9-1.7-3.9-4.3
							c0-1.5,1.1-2.4,2.5-2.4c1.6,0,2.5,0.8,2.4,2.5h-1.2c0-0.9-0.3-1.6-1.3-1.6c-0.7,0-1.3,0.3-1.3,1.3c0,1.9,3.9,1.6,3.9,4.4
							c0,1.8-1.3,2.4-2.7,2.4c-2.6,0-2.6-1.9-2.5-2.8H-837.5z"/>
						<path fill="#FFFFFF" d="M-830.7-502.5L-830.7-502.5c0.4-0.6,0.8-0.8,1.4-0.8c1,0,2,0.4,2,3c0,1.5,0,3.2-2,3.2
							c-0.6,0-1-0.3-1.3-0.7h0v2.9h-1v-8.3h1V-502.5z M-828.4-500.3c0-0.9,0-2.2-1.2-2.2c-1.2,0-1.1,1.7-1.1,2.6
							c0,0.8,0,2.1,1.1,2.1C-828.5-497.9-828.4-498.7-828.4-500.3z"/>
						<path fill="#FFFFFF" d="M-825.6-503.2v-1.2l1-0.4v1.6h1.3v0.7h-1.3v3.7c0,0.4,0,0.9,0.9,0.9c0.1,0,0.2,0,0.4,0v0.8
							c-0.3,0-0.6,0.1-1,0.1c-0.9,0-1.4-0.4-1.4-1.1v-4.3h-1v-0.7H-825.6z"/>
						<path fill="#FFFFFF" d="M-822.8-496h-0.8l2.8-9.8h0.8L-822.8-496z"/>
						<path fill="#FFFFFF" d="M-816.5-497.2h-1.1v-7.1l-1.2,0.8v-1.1c0.3-0.1,1.1-0.7,1.4-1h0.9V-497.2z"/>
					</g>
				</g>
			</g>
			<g id="BR_BR_NOTTYEO_-_8-10_274_00000132074028381333836320000006063639435238796465_" transform="translate(712.5,712.5)">
				<g id="g171130_00000032646067968421167370000006042098395834647441_" transform="translate(-450,-1500)">
					
						<rect id="rect171128_00000182525487392476407930000011439038559078365110_" x="-187.5" y="787.5" fill="#ED2224" width="75" height="75"/>
				</g>
			</g>
		</g>
	</g>
</g>
<g id="text" display="none">
	
		<rect id="frontbox" x="-637.5" y="-712.5" display="inline" fill="none" stroke="#000000" stroke-miterlimit="10" width="1650" height="1275"/>
	<g id="align" display="inline">
	</g>
</g>
<g id="crop" display="none">
	<g id="front" display="inline">
		<g>
			<line fill="none" stroke="#939598" stroke-miterlimit="10" x1="-609.4" y1="0" x2="159.4" y2="0"/>
			<line fill="none" stroke="#939598" stroke-miterlimit="10" x1="-609.4" y1="75" x2="159.4" y2="75"/>
			<line fill="none" stroke="#939598" stroke-miterlimit="10" x1="0" y1="-84.4" x2="0" y2="84.4"/>
			<line fill="none" stroke="#939598" stroke-miterlimit="10" x1="75" y1="-84.4" x2="75" y2="84.4"/>
		</g>
	</g>
</g>
<g id="guides" display="none">
</g>
</svg>
