<?xml version="1.0" encoding="utf-8"?>
<!-- Generator: Adobe Illustrator 26.0.3, SVG Export Plug-In . SVG Version: 6.00 Build 0)  -->
<svg version="1.2" baseProfile="tiny" xmlns="http://www.w3.org/2000/svg" xmlns:xlink="http://www.w3.org/1999/xlink" x="0px"
	 y="0px" viewBox="0 0 75 75" overflow="visible" xml:space="preserve">
<g id="svg">
	<g>
		<g id="cs_layer_CNA_0002_00000023283088047694392320000015410210321053132443_">
			<g id="g169366_00000060018564281457370690000011209304467157080227_">
			</g>
			<g id="BR_BR_9_DURLT_-_151-50_268_00000090986068807106218930000000663646523734629802_" transform="translate(262.5,712.5)">
				<g id="g170998_00000156573028272779627290000013760207660989254061_" transform="translate(-450,-1500)">
					
						<rect id="rect170996_00000133503010588812787860000003644907623621627272_" x="187.5" y="787.5" fill="#ED2224" width="75" height="75"/>
				</g>
				<g id="g171015_00000150802950326151847840000008271960322477393800_" transform="translate(229.688,-150)">
					<g>
						<path fill="#FFFFFF" d="M-426.5-542.9v17H-453v-17H-426.5z M-451.6-540.7v12.5l10.4-6.3L-451.6-540.7z M-429.3-541.5h-20.9
							l10.4,6.3L-429.3-541.5z M-450.2-527.3h20.9l-10.4-6.3L-450.2-527.3z M-438.4-534.4l10.4,6.3v-12.5L-438.4-534.4z"/>
					</g>
					<g>
						<path fill="#FFFFFF" d="M-472.8-515.4c0,3.3,0,6.5-3.4,6.5c-1.9,0-3.1-1.3-3.1-3.3h1.7c0,0.9,0.4,1.9,1.4,1.9
							c1.6,0,1.7-1.8,1.7-5h0c-0.4,0.9-1.2,1.2-2.1,1.2c-1,0-2.9-0.5-2.9-3.9c0-2.8,1.7-3.8,3.3-3.8
							C-472.8-521.9-472.8-518.8-472.8-515.4z M-477.9-518.1c0,1.2,0.2,2.6,1.7,2.6s1.7-1.4,1.7-2.6c0-1.1-0.3-2.6-1.7-2.6
							S-477.9-519.3-477.9-518.1z"/>
						<path fill="#FFFFFF" d="M-466.7-522.2h4c1.7,0,2.8,0.6,3.5,2c0.5,1.1,0.6,3.7,0.6,4.1c0,2.8-0.3,4.4-0.8,5.2
							c-0.7,1.1-2,1.7-4.3,1.7h-3V-522.2z M-465-510.7h1.6c2.3,0,3.2-0.9,3.2-3.9v-2.6c0-2.6-0.8-3.6-2.5-3.6h-2.2V-510.7z"/>
						<path fill="#FFFFFF" d="M-451-518.3h1.5v7.2c0,0.6,0,1.3,0.1,1.9h-1.6v-1.1h-0.1c-0.5,0.8-1.4,1.3-2.3,1.3
							c-1.6,0-2.4-0.8-2.4-2.3v-6.9h1.5v6.3c0,1.1,0.5,1.8,1.5,1.8c0.8,0,1.8-0.6,1.8-2.1V-518.3z"/>
						<path fill="#FFFFFF" d="M-445.4-517L-445.4-517c0.6-1.4,1.4-1.5,2.8-1.5v1.5c-0.1,0-0.3,0-0.4-0.1c-0.1,0-0.3,0-0.4,0
							c-1.6,0-2.1,1.2-2.1,2.5v5.4h-1.5v-9.1h1.5V-517z"/>
						<path fill="#FFFFFF" d="M-440.7-509.2v-13h1.7v11.6h4.8v1.4H-440.7z"/>
						<path fill="#FFFFFF" d="M-432.7-518.3v-1.7l1.5-0.7v2.4h2v1.1h-2v5.6c0,0.6,0,1.3,1.4,1.3c0.1,0,0.3,0,0.7-0.1v1.1
							c-0.5,0-1,0.1-1.5,0.1c-1.4,0-2-0.6-2-1.6v-6.5h-1.5v-1.1H-432.7z"/>
					</g>
					<g>
						<path fill="#FFFFFF" d="M-442.3-553.2h1v7.2h-1V-553.2z"/>
						<path fill="#FFFFFF" d="M-439.6-553.2h1v7.2h-1V-553.2z"/>
					</g>
					<g>
						<path fill="#FFFFFF" d="M-463-538.6c-0.7,0.6-1.8,1.2-2.6,1.6v-1.6c1-0.5,2.1-1.2,2.7-1.7h1.4v11.1h-1.5V-538.6z"/>
					</g>
					<g>
						<path fill="#FFFFFF" d="M-466.1-497.2h-1.1v-7.1l-1.2,0.8v-1.1c0.3-0.1,1.1-0.7,1.4-1h0.9V-497.2z"/>
						<path fill="#FFFFFF" d="M-459.7-505.5v1h-2.8v2.4l0,0c0.2-0.4,0.8-0.6,1.3-0.6c1.2,0,1.7,0.9,1.7,2.8c0,1.3-0.2,2.9-2.3,2.9
							c-1.7,0-2.1-0.9-2.1-2.1h1.1c0,0.6,0.3,1.3,1,1.3c1,0,1.1-1,1.1-1.8c0-1.2,0-2.2-1.1-2.2c-0.6,0-0.9,0.4-1,1h-1v-4.7H-459.7z"
							/>
						<path fill="#FFFFFF" d="M-455.5-497.2h-1.1v-7.1l-1.2,0.8v-1.1c0.3-0.1,1.1-0.7,1.4-1h0.9V-497.2z"/>
						<path fill="#FFFFFF" d="M-453.1-496h-0.8l2.8-9.8h0.8L-453.1-496z"/>
						<path fill="#FFFFFF" d="M-445.7-505.5v1h-2.8v2.4l0,0c0.2-0.4,0.8-0.6,1.3-0.6c1.2,0,1.7,0.9,1.7,2.8c0,1.3-0.2,2.9-2.3,2.9
							c-1.7,0-2.1-0.9-2.1-2.1h1.1c0,0.6,0.3,1.3,1,1.3c1,0,1.1-1,1.1-1.8c0-1.2,0-2.2-1.1-2.2c-0.6,0-0.9,0.4-1,1h-1v-4.7H-445.7z"
							/>
						<path fill="#FFFFFF" d="M-440.1-501.3c0,2.2,0,4.3-2.2,4.3s-2.2-2.1-2.2-4.3c0-2.2,0-4.3,2.2-4.3S-440.1-503.5-440.1-501.3z
							 M-443.4-501.1c0,1.4-0.1,3.2,1.1,3.2s1.1-1.8,1.1-3.2c0-2.2,0-3.6-1.1-3.6S-443.4-503.3-443.4-501.1z"/>
					</g>
				</g>
			</g>
			<g id="BR_BR_9_LANC_-_2-1_269_00000133490790735568197090000014557498944369873025_" transform="translate(337.5,712.5)">
				<g id="g171020_00000060743748216338115810000004871934644940454798_" transform="translate(-450,-1500)">
					
						<rect id="rect171018_00000173154938834971591320000007273628384553130154_" x="187.5" y="787.5" fill="#ED2224" width="75" height="75"/>
				</g>
			</g>
		</g>
	</g>
</g>
<g id="text" display="none">
	
		<rect id="frontbox" x="-262.5" y="-712.5" display="inline" fill="none" stroke="#000000" stroke-miterlimit="10" width="1650" height="1275"/>
	<g id="align" display="inline">
	</g>
</g>
<g id="crop" display="none">
	<g id="front" display="inline">
		<g>
			<line fill="none" stroke="#939598" stroke-miterlimit="10" x1="-234.4" y1="0" x2="534.4" y2="0"/>
			<line fill="none" stroke="#939598" stroke-miterlimit="10" x1="-234.4" y1="75" x2="534.4" y2="75"/>
			<line fill="none" stroke="#939598" stroke-miterlimit="10" x1="0" y1="-84.4" x2="0" y2="84.4"/>
			<line fill="none" stroke="#939598" stroke-miterlimit="10" x1="75" y1="-84.4" x2="75" y2="84.4"/>
		</g>
	</g>
</g>
<g id="guides" display="none">
</g>
</svg>
