<?xml version="1.0" encoding="utf-8"?>
<!-- Generator: Adobe Illustrator 26.0.3, SVG Export Plug-In . SVG Version: 6.00 Build 0)  -->
<svg version="1.2" baseProfile="tiny" xmlns="http://www.w3.org/2000/svg" xmlns:xlink="http://www.w3.org/1999/xlink" x="0px"
	 y="0px" viewBox="0 0 75 75" overflow="visible" xml:space="preserve">
<g id="svg">
	<g>
		<g id="cs_layer_CNA_0002_00000023283088047694392320000015410210321053132443_">
			<g id="g169366_00000060018564281457370690000011209304467157080227_">
			</g>
			<g id="BR_BR_9_-_10_267_00000134953887361617088540000004002976814318102690_" transform="translate(187.5,712.5)">
				<g id="g170974_00000155867602551134747960000005696810796461064889_" transform="translate(-450,-1500)">
					
						<rect id="rect170972_00000136394215672184801090000003475916571884076988_" x="262.5" y="787.5" fill="#ED2224" width="75" height="75"/>
				</g>
				<g id="g170993_00000139255498978658329360000001021763354414513304_" transform="translate(229.688,-150)">
					
						<rect id="rect170976_00000117674787450665130730000009852500552910175646_" x="-417.2" y="-543.8" fill="#7F1416" width="75" height="18.8"/>
					<g>
						<path fill="#FFFFFF" d="M-351.5-542.9v17H-378v-17H-351.5z M-353-541.5h-23.6v14.2h23.6V-541.5z M-373.7-531.4
							c-0.8-0.8-1.2-1.9-1.2-3c0-2.3,1.9-4.2,4.2-4.2c0,0,0,0,0,0v0h11.8c0,0,0,0,0,0c2.3,0,4.2,2,4.2,4.3c0,2.3-1.9,4.2-4.2,4.2
							c0,0,0,0,0,0v0h-11.8c0,0,0,0,0,0c0,0,0,0,0,0C-371.8-530.2-372.9-530.6-373.7-531.4z M-373.5-534.4c0,0.8,0.3,1.5,0.8,2
							c0.5,0.5,1.2,0.9,2,0.9h11.8c0,0,0,0,0,0c1.5,0,2.8-1.3,2.8-2.8c0-1.6-1.2-2.9-2.8-2.9v0h-11.8
							C-372.2-537.2-373.5-536-373.5-534.4z"/>
					</g>
					<g>
						<path fill="#FFFFFF" d="M-376.3-515.4c0,3.3,0,6.5-3.4,6.5c-1.9,0-3.1-1.3-3.1-3.3h1.7c0,0.9,0.4,1.9,1.4,1.9
							c1.6,0,1.7-1.8,1.7-5h0c-0.4,0.9-1.2,1.2-2.1,1.2c-1,0-2.9-0.5-2.9-3.9c0-2.8,1.7-3.8,3.3-3.8
							C-376.3-521.9-376.3-518.8-376.3-515.4z M-381.4-518.1c0,1.2,0.2,2.6,1.7,2.6s1.7-1.4,1.7-2.6c0-1.1-0.3-2.6-1.7-2.6
							S-381.4-519.3-381.4-518.1z"/>
					</g>
					<g>
						<path fill="#FFFFFF" d="M-367.3-553.2l1.9,2.8l1.9-2.8h1.2l-2.6,3.5l2.7,3.8h-1.3l-2.1-3.1l-2.2,3.1h-1.2l2.8-3.8l-2.5-3.4
							H-367.3z"/>
					</g>
					<g>
						<path fill="#FFFFFF" d="M-388-538.6c-0.7,0.6-1.8,1.2-2.6,1.6v-1.6c1-0.5,2.1-1.2,2.7-1.7h1.4v11.1h-1.5V-538.6z"/>
					</g>
					<g>
						<path fill="#FFFFFF" d="M-381.5-497.2h-1.1v-7.1l-1.2,0.8v-1.1c0.3-0.1,1.1-0.7,1.4-1h0.9V-497.2z"/>
						<path fill="#FFFFFF" d="M-374.7-501.3c0,2.2,0,4.3-2.2,4.3s-2.2-2.1-2.2-4.3c0-2.2,0-4.3,2.2-4.3S-374.7-503.5-374.7-501.3z
							 M-378.1-501.1c0,1.4-0.1,3.2,1.1,3.2c1.2,0,1.1-1.8,1.1-3.2c0-2.2,0-3.6-1.1-3.6S-378.1-503.3-378.1-501.1z"/>
					</g>
				</g>
			</g>
			<g id="BR_BR_9_DURLT_-_151-50_268_00000090986068807106218930000000663646523734629802_" transform="translate(262.5,712.5)">
				<g id="g170998_00000156573028272779627290000013760207660989254061_" transform="translate(-450,-1500)">
					
						<rect id="rect170996_00000133503010588812787860000003644907623621627272_" x="262.5" y="787.5" fill="#ED2224" width="75" height="75"/>
				</g>
			</g>
		</g>
	</g>
</g>
<g id="text" display="none">
	
		<rect id="frontbox" x="-187.5" y="-712.5" display="inline" fill="none" stroke="#000000" stroke-miterlimit="10" width="1650" height="1275"/>
	<g id="align" display="inline">
	</g>
</g>
<g id="crop" display="none">
	<g id="front" display="inline">
		<g>
			<line fill="none" stroke="#939598" stroke-miterlimit="10" x1="-159.4" y1="0" x2="609.4" y2="0"/>
			<line fill="none" stroke="#939598" stroke-miterlimit="10" x1="-159.4" y1="75" x2="609.4" y2="75"/>
			<line fill="none" stroke="#939598" stroke-miterlimit="10" x1="0" y1="-84.4" x2="0" y2="84.4"/>
			<line fill="none" stroke="#939598" stroke-miterlimit="10" x1="75" y1="-84.4" x2="75" y2="84.4"/>
		</g>
	</g>
</g>
<g id="guides" display="none">
</g>
</svg>
