<?xml version="1.0" encoding="utf-8"?>
<!-- Generator: Adobe Illustrator 26.0.3, SVG Export Plug-In . SVG Version: 6.00 Build 0)  -->
<svg version="1.2" baseProfile="tiny" xmlns="http://www.w3.org/2000/svg" xmlns:xlink="http://www.w3.org/1999/xlink" x="0px"
	 y="0px" viewBox="0 0 75 75" overflow="visible" xml:space="preserve">
<g id="svg">
	<g>
		<g id="cs_layer_CNA_0002_00000023283088047694392320000015410210321053132443_">
			<g id="g169366_00000060018564281457370690000011209304467157080227_">
			</g>
			<g id="BR_BR_8_RTR_-_1_ARMY_265_00000069389330192431210540000009272802418725570977_" transform="translate(37.5,712.5)">
				<g id="g170930_00000143587185162716657430000008245339733665006509_" transform="translate(-450,-1500)">
					
						<rect id="rect170928_00000054228048829413590360000013106193827157623955_" x="412.5" y="787.5" fill="#ED2224" width="75" height="75"/>
				</g>
				<g id="g170947_00000177450320255992314870000007908292936413125563_" transform="translate(229.688,-150)">
					<g>
						<path fill="#FFFFFF" d="M-201.5-542.9v17H-228v-17H-201.5z M-203-541.5h-23.6v14.2h23.6V-541.5z M-223.7-531.4
							c-0.8-0.8-1.2-1.9-1.2-3c0-2.3,1.9-4.2,4.2-4.2c0,0,0,0,0,0v0h11.8c0,0,0,0,0,0c2.3,0,4.2,2,4.2,4.3c0,2.3-1.9,4.2-4.2,4.2
							c0,0,0,0,0,0v0h-11.8c0,0,0,0,0,0c0,0,0,0,0,0C-221.8-530.2-222.9-530.6-223.7-531.4z M-223.5-534.4c0,0.8,0.3,1.5,0.8,2
							c0.5,0.5,1.2,0.9,2,0.9h11.8c0,0,0,0,0,0c1.5,0,2.8-1.3,2.8-2.8c0-1.6-1.2-2.9-2.8-2.9v0h-11.8
							C-222.2-537.2-223.5-536-223.5-534.4z"/>
					</g>
					<g>
						<path fill="#FFFFFF" d="M-245.2-515.9c1.8,0.2,2.3,1.6,2.3,3.2c0,2.3-1.2,3.6-3.3,3.6s-3.3-1.4-3.3-3.6c0-1.6,0.5-3.1,2.3-3.2
							v0c-1.5-0.3-2.2-1.5-2.2-2.9c0-2,1.2-3.1,3.2-3.1c2,0,3.2,1.2,3.2,3.1C-243-517.4-243.7-516.2-245.2-515.9L-245.2-515.9z
							 M-244.5-512.6c0-1.1-0.1-2.6-1.7-2.6c-1.5,0-1.7,1.4-1.7,2.6c0,1.1,0.4,2.2,1.7,2.2C-245-510.4-244.5-511.5-244.5-512.6z
							 M-244.6-518.9c0-0.9-0.5-1.9-1.5-1.9c-1.1,0-1.5,0.9-1.5,1.9c0,0.9,0.3,2.3,1.5,2.3C-245-516.6-244.6-517.9-244.6-518.9z"/>
						<path fill="#FFFFFF" d="M-235.1-515.2v6h-1.7v-13h4.5c2.3,0,3.1,1.6,3.1,3.2c0,1.5-0.8,2.7-2.4,3v0c1.5,0.2,2,0.7,2.1,3.3
							c0,0.6,0.2,2.6,0.5,3.4h-1.7c-0.5-0.9-0.4-2.6-0.5-4.3c-0.1-1.6-1.4-1.7-2-1.7H-235.1z M-235.1-516.7h2.5c1.2,0,1.8-1,1.8-2.2
							c0-0.9-0.5-2-1.7-2h-2.5V-516.7z"/>
						<path fill="#FFFFFF" d="M-219.4-522.2v1.4h-3.4v11.6h-1.7v-11.6h-3.4v-1.4H-219.4z"/>
						<path fill="#FFFFFF" d="M-216.1-515.2v6h-1.7v-13h4.5c2.3,0,3.1,1.6,3.1,3.2c0,1.5-0.8,2.7-2.4,3v0c1.5,0.2,2,0.7,2.1,3.3
							c0,0.6,0.2,2.6,0.5,3.4h-1.7c-0.5-0.9-0.4-2.6-0.5-4.3c-0.1-1.6-1.4-1.7-2-1.7H-216.1z M-216.1-516.7h2.5c1.2,0,1.8-1,1.8-2.2
							c0-0.9-0.5-2-1.7-2h-2.5V-516.7z"/>
					</g>
					<g>
						<path fill="#FFFFFF" d="M-217.3-553.2h1v7.2h-1V-553.2z"/>
						<path fill="#FFFFFF" d="M-214.6-553.2h1v7.2h-1V-553.2z"/>
					</g>
					<g>
						<path fill="#FFFFFF" d="M-238-538.6c-0.7,0.6-1.8,1.2-2.6,1.6v-1.6c1-0.5,2.1-1.2,2.7-1.7h1.4v11.1h-1.5V-538.6z"/>
					</g>
					<g>
						<path fill="#FFFFFF" d="M-242.8-497.2h-1.1v-7.1l-1.2,0.8v-1.1c0.3-0.1,1.1-0.7,1.4-1h0.9V-497.2z"/>
						<path fill="#FFFFFF" d="M-235.4-505.8h1.4l2.8,8.7h-1.2l-0.6-2.1h-3.3l-0.6,2.1h-1.1L-235.4-505.8z M-234.7-504.8
							L-234.7-504.8l-1.4,4.6h2.8L-234.7-504.8z"/>
						<path fill="#FFFFFF" d="M-229.1-502.3L-229.1-502.3c0.4-0.9,0.9-1,1.9-1v1c-0.1,0-0.2,0-0.3,0s-0.2,0-0.3,0
							c-1.1,0-1.4,0.8-1.4,1.6v3.6h-1v-6.1h1V-502.3z"/>
						<path fill="#FFFFFF" d="M-223.1-497.2v-4.2c0-0.6-0.2-1.2-1-1.2c-0.3,0-0.7,0.2-0.9,0.4c-0.2,0.3-0.2,0.7-0.2,0.9v4.1h-1v-4.8
							c0-0.4,0-0.8-0.1-1.3h1v0.8h0c0.3-0.6,0.8-0.9,1.5-0.9c0.6,0,1.2,0.2,1.4,0.8c0.3-0.6,0.9-0.8,1.4-0.8c0.6,0,1.7,0.1,1.7,1.6
							v4.6h-1v-4.2c0-0.6-0.2-1.2-1-1.2c-0.4,0-0.5,0-0.7,0.2c-0.3,0.2-0.3,0.8-0.3,1.1v4.1H-223.1z"/>
						<path fill="#FFFFFF" d="M-215.6-498.3L-215.6-498.3l1.5-4.9h1.1l-2.7,8.3h-1l0.7-2.3l-2.1-6.1h1.1L-215.6-498.3z"/>
					</g>
				</g>
			</g>
			<g id="BR_BR_84_-_NONE_266_00000177475733612726944000000000487610127969237638_" transform="translate(112.5,712.5)">
				<g id="g170952_00000114064306620087485740000017103356530515505580_" transform="translate(-450,-1500)">
					
						<rect id="rect170950_00000034050650028579425580000013421678812422810284_" x="412.5" y="787.5" fill="#ED2224" width="75" height="75"/>
				</g>
			</g>
		</g>
	</g>
</g>
<g id="text" display="none">
	
		<rect id="frontbox" x="-37.5" y="-712.5" display="inline" fill="none" stroke="#000000" stroke-miterlimit="10" width="1650" height="1275"/>
	<g id="align" display="inline">
	</g>
</g>
<g id="crop" display="none">
	<g id="front" display="inline">
		<g>
			<line fill="none" stroke="#939598" stroke-miterlimit="10" x1="-9.4" y1="0" x2="759.4" y2="0"/>
			<line fill="none" stroke="#939598" stroke-miterlimit="10" x1="-9.4" y1="75" x2="759.4" y2="75"/>
			<line fill="none" stroke="#939598" stroke-miterlimit="10" x1="0" y1="-84.4" x2="0" y2="84.4"/>
			<line fill="none" stroke="#939598" stroke-miterlimit="10" x1="75" y1="-84.4" x2="75" y2="84.4"/>
		</g>
	</g>
</g>
<g id="guides" display="none">
</g>
</svg>
