<?xml version="1.0" encoding="utf-8"?>
<!-- Generator: Adobe Illustrator 26.0.3, SVG Export Plug-In . SVG Version: 6.00 Build 0)  -->
<svg version="1.2" baseProfile="tiny" xmlns="http://www.w3.org/2000/svg" xmlns:xlink="http://www.w3.org/1999/xlink" x="0px"
	 y="0px" viewBox="0 0 75 75" overflow="visible" xml:space="preserve">
<g id="svg">
	<g>
		<g id="cs_layer_CNA_0002_00000023283088047694392320000015410210321053132443_">
			<g id="g169366_00000060018564281457370690000011209304467157080227_">
			</g>
			<g id="BR_BR_9_LANC_-_2-1_269_00000133490790735568197090000014557498944369873025_" transform="translate(337.5,712.5)">
				<g id="g171020_00000060743748216338115810000004871934644940454798_" transform="translate(-450,-1500)">
					
						<rect id="rect171018_00000173154938834971591320000007273628384553130154_" x="112.5" y="787.5" fill="#ED2224" width="75" height="75"/>
				</g>
				<g id="g171037_00000065046189062236485390000016447885480023257994_" transform="translate(229.688,-150)">
					<g>
						<path fill="#FFFFFF" d="M-501.5-542.9v17H-528v-17H-501.5z M-503-541.5h-23.6v14.2h23.6V-541.5z M-523.7-531.4
							c-0.8-0.8-1.2-1.9-1.2-3c0-2.3,1.9-4.2,4.2-4.2c0,0,0,0,0,0v0h11.8c0,0,0,0,0,0c2.3,0,4.2,2,4.2,4.3c0,2.3-1.9,4.2-4.2,4.2
							c0,0,0,0,0,0v0h-11.8c0,0,0,0,0,0c0,0,0,0,0,0C-521.8-530.2-522.9-530.6-523.7-531.4z M-523.5-534.4c0,0.8,0.3,1.5,0.8,2
							c0.5,0.5,1.2,0.9,2,0.9h11.8c0,0,0,0,0,0c1.5,0,2.8-1.3,2.8-2.8c0-1.6-1.2-2.9-2.8-2.9v0h-11.8
							C-522.2-537.2-523.5-536-523.5-534.4z"/>
					</g>
					<g>
						<path fill="#FFFFFF" d="M-545.8-515.4c0,3.3,0,6.5-3.4,6.5c-1.9,0-3.1-1.3-3.1-3.3h1.7c0,0.9,0.4,1.9,1.4,1.9
							c1.6,0,1.7-1.8,1.7-5h0c-0.4,0.9-1.2,1.2-2.1,1.2c-1,0-2.9-0.5-2.9-3.9c0-2.8,1.7-3.8,3.3-3.8
							C-545.8-521.9-545.8-518.8-545.8-515.4z M-550.9-518.1c0,1.2,0.2,2.6,1.7,2.6s1.7-1.4,1.7-2.6c0-1.1-0.3-2.6-1.7-2.6
							C-550.6-520.7-550.9-519.3-550.9-518.1z"/>
						<path fill="#FFFFFF" d="M-539.7-509.2v-13h1.7v11.6h4.8v1.4H-539.7z"/>
						<path fill="#FFFFFF" d="M-527.2-510.6L-527.2-510.6c-0.5,1-1.2,1.5-2.3,1.5c-1.9,0-2.5-1.2-2.5-3c0-2.8,2.7-2.9,4.8-2.8
							c0-1.2,0.1-2.5-1.5-2.5c-1,0-1.5,0.7-1.4,1.6h-1.6c0.1-2,1.2-2.7,3.1-2.7c2.3,0,3,1.2,3,2.7v4.4c0,0.7,0.1,1.5,0.2,2.2h-1.6
							V-510.6z M-530.6-512c0,0.9,0.4,1.7,1.4,1.7c0.9,0,2-0.6,1.9-3.5C-528.7-513.8-530.6-513.9-530.6-512z"/>
						<path fill="#FFFFFF" d="M-518-509.2v-6.3c0-1-0.3-1.8-1.6-1.8c-1.6,0-1.9,1.4-1.9,2.7v5.4h-1.5v-7.2c0-0.6,0-1.3-0.1-1.9h1.6
							v1.2h0.1c0.6-1,1.3-1.4,2.4-1.4c1.9,0,2.4,1.2,2.4,3v6.3H-518z"/>
						<path fill="#FFFFFF" d="M-509.2-515.4c0-1.5-0.7-1.9-1.3-1.9c-1.1,0-1.9,0.5-1.9,3c0,3,0.4,4,1.9,4c0.3,0,1.4-0.4,1.3-2h1.5
							c0.1,2.6-1.9,3.2-2.9,3.2c-1.9,0-3.5-0.6-3.5-4.6c0-2.7,0.3-4.9,3.5-4.9c1.8,0,2.9,1.1,2.8,3.1H-509.2z"/>
					</g>
					<g>
						<path fill="#FFFFFF" d="M-517.3-553.2h1v7.2h-1V-553.2z"/>
						<path fill="#FFFFFF" d="M-514.6-553.2h1v7.2h-1V-553.2z"/>
					</g>
					<g>
						<path fill="#FFFFFF" d="M-538-538.6c-0.7,0.6-1.8,1.2-2.6,1.6v-1.6c1-0.5,2.1-1.2,2.7-1.7h1.4v11.1h-1.5V-538.6z"/>
					</g>
					<g>
						<path fill="#FFFFFF" d="M-542.6-499.2v-1l2.4-5.3h1.5v5.3h1v1h-1v2h-1v-2H-542.6z M-539.9-500.2v-4.3h0l-1.8,4.3H-539.9z"/>
						<path fill="#FFFFFF" d="M-537.3-499.2v-1l2.4-5.3h1.5v5.3h1v1h-1v2h-1v-2H-537.3z M-534.5-500.2v-4.3h0l-1.8,4.3H-534.5z"/>
						<path fill="#FFFFFF" d="M-531.8-497.2v-1c2.4-3.4,3.2-4,3.2-5.5c0-0.7-0.3-1.1-1-1.1c-0.8,0-1,0.7-1,1.4h-1.1
							c-0.1-1.4,0.6-2.3,2-2.3c1.5,0,2.2,0.7,2.2,2.2c0,1.9-0.9,2.5-3.1,5.3h3.3v1H-531.8z"/>
						<path fill="#FFFFFF" d="M-526.4-497.2v-1c2.4-3.4,3.2-4,3.2-5.5c0-0.7-0.3-1.1-1-1.1c-0.8,0-1,0.7-1,1.4h-1.1
							c-0.1-1.4,0.6-2.3,2-2.3c1.5,0,2.2,0.7,2.2,2.2c0,1.9-0.9,2.5-3.1,5.3h3.3v1H-526.4z"/>
						<path fill="#FFFFFF" d="M-518.3-501.6c1.2,0.1,1.5,1.1,1.5,2.2c0,1.5-0.8,2.4-2.2,2.4s-2.2-0.9-2.2-2.4c0-1.1,0.3-2,1.5-2.2v0
							c-1-0.2-1.5-1-1.5-2c0-1.3,0.8-2.1,2.1-2.1c1.3,0,2.1,0.8,2.1,2.1C-516.8-502.6-517.3-501.8-518.3-501.6L-518.3-501.6z
							 M-517.9-499.4c0-0.7-0.1-1.7-1.1-1.7s-1.1,1-1.1,1.7c0,0.7,0.3,1.5,1.1,1.5C-518.1-497.9-517.9-498.7-517.9-499.4z
							 M-517.9-503.6c0-0.6-0.3-1.2-1-1.2c-0.7,0-1,0.6-1,1.2c0,0.6,0.2,1.5,1,1.5C-518.1-502.1-517.9-503-517.9-503.6z"/>
					</g>
				</g>
			</g>
			<g id="BR_BR_95_-_NONE_270_00000180361465626747214590000012499836595403539592_" transform="translate(412.5,712.5)">
				<g id="g171042_00000182505840639521500550000017483149000962974372_" transform="translate(-450,-1500)">
					
						<rect id="rect171040_00000023968060946055861290000000587766268645669251_" x="112.5" y="787.5" fill="#ED2224" width="75" height="75"/>
				</g>
			</g>
		</g>
	</g>
</g>
<g id="text" display="none">
	
		<rect id="frontbox" x="-337.5" y="-712.5" display="inline" fill="none" stroke="#000000" stroke-miterlimit="10" width="1650" height="1275"/>
	<g id="align" display="inline">
	</g>
</g>
<g id="crop" display="none">
	<g id="front" display="inline">
		<g>
			<line fill="none" stroke="#939598" stroke-miterlimit="10" x1="-309.4" y1="0" x2="459.4" y2="0"/>
			<line fill="none" stroke="#939598" stroke-miterlimit="10" x1="-309.4" y1="75" x2="459.4" y2="75"/>
			<line fill="none" stroke="#939598" stroke-miterlimit="10" x1="0" y1="-84.4" x2="0" y2="84.4"/>
			<line fill="none" stroke="#939598" stroke-miterlimit="10" x1="75" y1="-84.4" x2="75" y2="84.4"/>
		</g>
	</g>
</g>
<g id="guides" display="none">
</g>
</svg>
