<?xml version="1.0" encoding="utf-8"?>
<!-- Generator: Adobe Illustrator 26.0.3, SVG Export Plug-In . SVG Version: 6.00 Build 0)  -->
<svg version="1.2" baseProfile="tiny" xmlns="http://www.w3.org/2000/svg" xmlns:xlink="http://www.w3.org/1999/xlink" x="0px"
	 y="0px" viewBox="0 0 75 75" overflow="visible" xml:space="preserve">
<g id="svg">
	<g>
		<g id="cs_layer_CNA_0002_00000023283088047694392320000015410210321053132443_">
			<g id="g169366_00000060018564281457370690000011209304467157080227_">
			</g>
			<g id="BR_BR_A_-_SPSERV_272_00000001651276574936968210000008009339665189276290_" transform="translate(562.5,712.5)">
				<g id="g171086_00000124119600558265717460000015112589330416096130_" transform="translate(-450,-1500)">
					
						<rect id="rect171084_00000178176699538589817500000004783793526908262284_" x="-112.5" y="787.5" fill="#ED2224" width="75" height="75"/>
				</g>
				<g id="g171103_00000001645731988057847690000002057487588035569595_" transform="translate(229.688,-150)">
					<g>
						<path fill="#FFFFFF" d="M-726.5-542.9v17H-753v-17H-726.5z M-751.6-541.5v13.4l10.4-6.3l-5.2-3.1l-0.7,0.9l-2.5-3.7l4.7,0.9
							l-0.6,0.8l5.7,3.4l5.7-3.4l-0.6-0.8l4.7-0.9l-2.5,3.7l-0.7-0.9l-5.2,3.1l10.4,6.3v-13.4H-751.6z M-750.2-527.3h20.9l-10.4-6.3
							L-750.2-527.3z"/>
					</g>
					<g>
						<path fill="#FFFFFF" d="M-755.8-522.2h2.1l4.2,13h-1.9l-0.9-3.1h-5l-1,3.1h-1.7L-755.8-522.2z M-754.8-520.7L-754.8-520.7
							l-2.1,6.9h4.2L-754.8-520.7z"/>
					</g>
					<g>
						<path fill="#FFFFFF" d="M-742.3-553.2h1v7.2h-1V-553.2z"/>
						<path fill="#FFFFFF" d="M-739.6-553.2h1v7.2h-1V-553.2z"/>
					</g>
					<g>
						<path fill="#FFFFFF" d="M-763-538.6c-0.7,0.6-1.8,1.2-2.6,1.6v-1.6c1-0.5,2.1-1.2,2.7-1.7h1.4v11.1h-1.5V-538.6z"/>
					</g>
					<g>
						<path fill="#FFFFFF" d="M-770.1-499.8v0.3c0,1.2,0.7,1.5,1.5,1.5c0.9,0,1.5-0.4,1.5-1.4c0-1.9-3.9-1.7-3.9-4.3
							c0-1.5,1.1-2.4,2.5-2.4c1.6,0,2.5,0.8,2.4,2.5h-1.2c0-0.9-0.3-1.6-1.3-1.6c-0.7,0-1.3,0.3-1.3,1.3c0,1.9,3.9,1.6,3.9,4.4
							c0,1.8-1.3,2.4-2.7,2.4c-2.6,0-2.6-1.9-2.5-2.8H-770.1z"/>
						<path fill="#FFFFFF" d="M-763.4-502.5L-763.4-502.5c0.4-0.6,0.8-0.8,1.4-0.8c1,0,2,0.4,2,3c0,1.5,0,3.2-2,3.2
							c-0.6,0-1-0.3-1.3-0.7h0v2.9h-1v-8.3h1V-502.5z M-761-500.3c0-0.9,0-2.2-1.2-2.2c-1.2,0-1.1,1.7-1.1,2.6c0,0.8,0,2.1,1.1,2.1
							C-761.2-497.9-761-498.7-761-500.3z"/>
						<path fill="#FFFFFF" d="M-757.5-499.8v0.3c0,1.2,0.7,1.5,1.5,1.5c0.9,0,1.5-0.4,1.5-1.4c0-1.9-3.9-1.7-3.9-4.3
							c0-1.5,1.1-2.4,2.5-2.4c1.6,0,2.5,0.8,2.4,2.5h-1.2c0-0.9-0.3-1.6-1.3-1.6c-0.7,0-1.3,0.3-1.3,1.3c0,1.9,3.9,1.6,3.9,4.4
							c0,1.8-1.3,2.4-2.7,2.4c-2.6,0-2.6-1.9-2.5-2.8H-757.5z"/>
						<path fill="#FFFFFF" d="M-750.8-499.9c0,1.7,0.5,2,1.2,2c0.7,0,1-0.5,1.1-1.2h1.1c0,1.3-0.8,2-2.1,2c-1.3,0-2.3-0.4-2.3-3.1
							c0-1.8,0.2-3.2,2.3-3.2c1.7,0,2.2,0.9,2.2,3v0.5H-750.8z M-748.4-500.6c0-1.8-0.5-2-1.2-2c-0.6,0-1.1,0.3-1.2,2H-748.4z"/>
						<path fill="#FFFFFF" d="M-744.7-502.3L-744.7-502.3c0.4-0.9,0.9-1,1.9-1v1c-0.1,0-0.2,0-0.3,0s-0.2,0-0.3,0
							c-1.1,0-1.4,0.8-1.4,1.6v3.6h-1v-6.1h1V-502.3z"/>
						<path fill="#FFFFFF" d="M-742.4-503.2h1.1l1.4,5.1h0l1.5-5.1h1l-1.9,6.1h-1.3L-742.4-503.2z"/>
					</g>
				</g>
			</g>
			<g id="BR_BR_KDGD_-_2SPT-2_273_00000075147817723374798850000005978349501134295734_" transform="translate(637.5,712.5)">
				<g id="g171108_00000110439419254124124700000012062803311870305176_" transform="translate(-450,-1500)">
					
						<rect id="rect171106_00000162345708910587468820000010747802723323260308_" x="-112.5" y="787.5" fill="#ED2224" width="75" height="75"/>
				</g>
			</g>
		</g>
	</g>
</g>
<g id="text" display="none">
	
		<rect id="frontbox" x="-562.5" y="-712.5" display="inline" fill="none" stroke="#000000" stroke-miterlimit="10" width="1650" height="1275"/>
	<g id="align" display="inline">
	</g>
</g>
<g id="crop" display="none">
	<g id="front" display="inline">
		<g>
			<line fill="none" stroke="#939598" stroke-miterlimit="10" x1="-534.4" y1="0" x2="234.4" y2="0"/>
			<line fill="none" stroke="#939598" stroke-miterlimit="10" x1="-534.4" y1="75" x2="234.4" y2="75"/>
			<line fill="none" stroke="#939598" stroke-miterlimit="10" x1="0" y1="-84.4" x2="0" y2="84.4"/>
			<line fill="none" stroke="#939598" stroke-miterlimit="10" x1="75" y1="-84.4" x2="75" y2="84.4"/>
		</g>
	</g>
</g>
<g id="guides" display="none">
</g>
</svg>
