<?xml version="1.0" encoding="utf-8"?>
<!-- Generator: Adobe Illustrator 26.0.3, SVG Export Plug-In . SVG Version: 6.00 Build 0)  -->
<svg version="1.2" baseProfile="tiny" xmlns="http://www.w3.org/2000/svg" xmlns:xlink="http://www.w3.org/1999/xlink" x="0px"
	 y="0px" viewBox="0 0 75 75" overflow="visible" xml:space="preserve">
<g id="svg">
	<g>
		<g id="cs_layer_CNA_0002_00000023283088047694392320000015410210321053132443_">
			<g id="g169366_00000060018564281457370690000011209304467157080227_">
			</g>
			<g id="BR_BR_84_-_NONE_266_00000177475733612726944000000000487610127969237638_" transform="translate(112.5,712.5)">
				<g id="g170952_00000114064306620087485740000017103356530515505580_" transform="translate(-450,-1500)">
					
						<rect id="rect170950_00000034050650028579425580000013421678812422810284_" x="337.5" y="787.5" fill="#ED2224" width="75" height="75"/>
				</g>
				<g id="g170969_00000004522536060288064650000000133249303419224968_" transform="translate(229.688,-150)">
					<g>
						<path fill="#FFFFFF" d="M-276.5-542.9v17H-303v-17H-276.5z M-301.6-541.5v13.1l10.9-13.1H-301.6z M-300.7-527.3h21.8
							l-10.9-13.1L-300.7-527.3z M-292.6-532.5c0-1.4,1.2-2.6,2.8-2.6c1.5,0,2.8,1.2,2.8,2.6c0,1.4-1.2,2.6-2.8,2.6
							C-291.3-529.9-292.6-531.1-292.6-532.5z M-278-541.5h-10.9l10.9,13.1V-541.5z"/>
					</g>
					<g>
						<path fill="#FFFFFF" d="M-307.7-515.9c1.8,0.2,2.3,1.6,2.3,3.2c0,2.3-1.2,3.6-3.3,3.6s-3.3-1.4-3.3-3.6c0-1.6,0.5-3.1,2.3-3.2
							v0c-1.5-0.3-2.2-1.5-2.2-2.9c0-2,1.2-3.1,3.2-3.1c2,0,3.2,1.2,3.2,3.1C-305.5-517.4-306.2-516.2-307.7-515.9L-307.7-515.9z
							 M-307-512.6c0-1.1-0.1-2.6-1.7-2.6c-1.5,0-1.7,1.4-1.7,2.6c0,1.1,0.4,2.2,1.7,2.2C-307.4-510.4-307-511.5-307-512.6z
							 M-307.1-518.9c0-0.9-0.5-1.9-1.5-1.9c-1.1,0-1.5,0.9-1.5,1.9c0,0.9,0.3,2.3,1.5,2.3C-307.4-516.6-307.1-517.9-307.1-518.9z"
							/>
						<path fill="#FFFFFF" d="M-304.2-512.3v-1.4l3.5-8h2.2v8h1.5v1.4h-1.5v3h-1.5v-3H-304.2z M-300.1-513.7v-6.5h0l-2.7,6.5H-300.1
							z"/>
					</g>
					<g>
						<path fill="#FFFFFF" d="M-293.7-553.2h1v7.2h-1V-553.2z"/>
						<path fill="#FFFFFF" d="M-290.9-553.2h1v7.2h-1V-553.2z"/>
						<path fill="#FFFFFF" d="M-288.2-553.2h1v7.2h-1V-553.2z"/>
					</g>
					<g>
						<path fill="#FFFFFF" d="M-324.9-527.3c-0.9-2.1-1.9-4.8-1.9-7.1c0-1.3,0.3-2.5,0.7-3.7c0.4-1.4,0.9-2.5,1.1-3.2h1.1
							c-0.3,0.8-0.6,1.9-0.9,3.4c-0.3,1.5-0.4,2.5-0.4,3.5c0,2.3,0.6,4.1,1.5,7.2H-324.9z"/>
						<path fill="#FFFFFF" d="M-321.8-530.7l2.9-2.8c0.6-0.6,1.2-1.2,1.7-1.9c0.6-0.9,0.8-1.4,0.8-2c0-0.5-0.2-1.8-1.8-1.8
							c-1.8,0-1.8,1.5-1.8,1.9h-1.7c0-0.5,0.1-1.6,1-2.4c0.8-0.7,1.7-0.8,2.4-0.8c1.7,0,3.4,0.9,3.4,3.2c0,0.7,0,1.2-1.2,2.8
							c-0.3,0.4-1.7,1.9-2,2.2l-1.9,1.8h5.3v1.3h-7V-530.7z"/>
						<path fill="#FFFFFF" d="M-311.5-541.3c0.9,2.1,1.9,4.8,1.9,7.1c0,1.3-0.3,2.5-0.7,3.7c-0.4,1.4-0.9,2.5-1.1,3.2h-1.1
							c0.3-0.8,0.6-1.9,0.9-3.4c0.3-1.5,0.4-2.5,0.4-3.5c0-2.3-0.6-4.1-1.5-7.1H-311.5z"/>
					</g>
					<g>
						<path fill="#FFFFFF" d="M-307.9-500.9h2.6v0.9h-2.6V-500.9z"/>
						<path fill="#FFFFFF" d="M-303.9-500.9h2.6v0.9h-2.6V-500.9z"/>
					</g>
				</g>
			</g>
			<g id="BR_BR_9_-_10_267_00000134953887361617088540000004002976814318102690_" transform="translate(187.5,712.5)">
				<g id="g170974_00000155867602551134747960000005696810796461064889_" transform="translate(-450,-1500)">
					
						<rect id="rect170972_00000136394215672184801090000003475916571884076988_" x="337.5" y="787.5" fill="#ED2224" width="75" height="75"/>
				</g>
			</g>
		</g>
	</g>
</g>
<g id="text" display="none">
	
		<rect id="frontbox" x="-112.5" y="-712.5" display="inline" fill="none" stroke="#000000" stroke-miterlimit="10" width="1650" height="1275"/>
	<g id="align" display="inline">
	</g>
</g>
<g id="crop" display="none">
	<g id="front" display="inline">
		<g>
			<line fill="none" stroke="#939598" stroke-miterlimit="10" x1="-84.4" y1="0" x2="684.4" y2="0"/>
			<line fill="none" stroke="#939598" stroke-miterlimit="10" x1="-84.4" y1="75" x2="684.4" y2="75"/>
			<line fill="none" stroke="#939598" stroke-miterlimit="10" x1="0" y1="-84.4" x2="0" y2="84.4"/>
			<line fill="none" stroke="#939598" stroke-miterlimit="10" x1="75" y1="-84.4" x2="75" y2="84.4"/>
		</g>
	</g>
</g>
<g id="guides" display="none">
</g>
</svg>
