<?xml version="1.0" encoding="utf-8"?>
<!-- Generator: Adobe Illustrator 26.0.3, SVG Export Plug-In . SVG Version: 6.00 Build 0)  -->
<svg version="1.2" baseProfile="tiny" xmlns="http://www.w3.org/2000/svg" xmlns:xlink="http://www.w3.org/1999/xlink" x="0px"
	 y="0px" viewBox="0 0 75 75" overflow="visible" xml:space="preserve">
<g id="svg">
	<g>
		<g id="cs_layer_CNA_0002_00000023283088047694392320000015410210321053132443_">
			<g id="g169366_00000060018564281457370690000011209304467157080227_">
			</g>
			<g id="BR_BR_95_-_NONE_270_00000180361465626747214590000012499836595403539592_" transform="translate(412.5,712.5)">
				<g id="g171042_00000182505840639521500550000017483149000962974372_" transform="translate(-450,-1500)">
					
						<rect id="rect171040_00000023968060946055861290000000587766268645669251_" x="37.5" y="787.5" fill="#ED2224" width="75" height="75"/>
				</g>
				<g id="g171059_00000070802503348359670430000015719084529403728792_" transform="translate(229.688,-150)">
					<g>
						<path fill="#FFFFFF" d="M-576.5-542.9v17H-603v-17H-576.5z M-601.6-541.5v13.1l10.9-13.1H-601.6z M-600.7-527.3h21.8
							l-10.9-13.1L-600.7-527.3z M-592.6-532.5c0-1.4,1.2-2.6,2.8-2.6s2.8,1.2,2.8,2.6c0,1.4-1.2,2.6-2.8,2.6
							S-592.6-531.1-592.6-532.5z M-578-541.5h-10.9l10.9,13.1V-541.5z"/>
					</g>
					<g>
						<path fill="#FFFFFF" d="M-605.3-515.4c0,3.3,0,6.5-3.4,6.5c-1.9,0-3.1-1.3-3.1-3.3h1.7c0,0.9,0.4,1.9,1.4,1.9
							c1.6,0,1.7-1.8,1.7-5h0c-0.4,0.9-1.2,1.2-2.1,1.2c-1,0-2.9-0.5-2.9-3.9c0-2.8,1.7-3.8,3.3-3.8
							C-605.3-521.9-605.3-518.8-605.3-515.4z M-610.4-518.1c0,1.2,0.2,2.6,1.7,2.6s1.7-1.4,1.7-2.6c0-1.1-0.3-2.6-1.7-2.6
							C-610.1-520.7-610.4-519.3-610.4-518.1z"/>
						<path fill="#FFFFFF" d="M-597.8-521.7v1.4h-4.2v3.6l0,0c0.3-0.5,1.1-0.9,2-0.9c1.8,0,2.6,1.3,2.6,4.2c0,2-0.3,4.4-3.4,4.4
							c-2.6,0-3.1-1.4-3.1-3.1h1.7c0,1,0.4,1.9,1.5,1.9c1.6,0,1.7-1.5,1.7-2.8c0-1.8-0.1-3.2-1.6-3.2c-0.9,0-1.4,0.6-1.5,1.5h-1.5
							v-7H-597.8z"/>
					</g>
					<g>
						<path fill="#FFFFFF" d="M-593.7-553.2h1v7.2h-1V-553.2z"/>
						<path fill="#FFFFFF" d="M-590.9-553.2h1v7.2h-1V-553.2z"/>
						<path fill="#FFFFFF" d="M-588.2-553.2h1v7.2h-1V-553.2z"/>
					</g>
					<g>
						<path fill="#FFFFFF" d="M-613-538.6c-0.7,0.6-1.8,1.2-2.6,1.6v-1.6c1-0.5,2.1-1.2,2.7-1.7h1.4v11.1h-1.5V-538.6z"/>
					</g>
					<g>
						<path fill="#FFFFFF" d="M-607.9-500.9h2.6v0.9h-2.6V-500.9z"/>
						<path fill="#FFFFFF" d="M-603.9-500.9h2.6v0.9h-2.6V-500.9z"/>
					</g>
				</g>
			</g>
			<g id="BR_BR_98_FLD_-_NONE_271_00000162323947636219397580000009569953594976647049_" transform="translate(487.5,712.5)">
				<g id="g171064_00000116200974301314576790000013235037313178304950_" transform="translate(-450,-1500)">
					
						<rect id="rect171062_00000142865710275787706230000008329544322364064897_" x="37.5" y="787.5" fill="#ED2224" width="75" height="75"/>
				</g>
			</g>
		</g>
	</g>
</g>
<g id="text" display="none">
	
		<rect id="frontbox" x="-412.5" y="-712.5" display="inline" fill="none" stroke="#000000" stroke-miterlimit="10" width="1650" height="1275"/>
	<g id="align" display="inline">
	</g>
</g>
<g id="crop" display="none">
	<g id="front" display="inline">
		<g>
			<line fill="none" stroke="#939598" stroke-miterlimit="10" x1="-384.4" y1="0" x2="384.4" y2="0"/>
			<line fill="none" stroke="#939598" stroke-miterlimit="10" x1="-384.4" y1="75" x2="384.4" y2="75"/>
			<line fill="none" stroke="#939598" stroke-miterlimit="10" x1="0" y1="-84.4" x2="0" y2="84.4"/>
			<line fill="none" stroke="#939598" stroke-miterlimit="10" x1="75" y1="-84.4" x2="75" y2="84.4"/>
		</g>
	</g>
</g>
<g id="guides" display="none">
</g>
</svg>
