<?xml version="1.0" encoding="utf-8"?>
<!-- Generator: Adobe Illustrator 26.0.3, SVG Export Plug-In . SVG Version: 6.00 Build 0)  -->
<svg version="1.2" baseProfile="tiny" xmlns="http://www.w3.org/2000/svg" xmlns:xlink="http://www.w3.org/1999/xlink" x="0px"
	 y="0px" viewBox="0 0 75 75" overflow="visible" xml:space="preserve">
<g id="svg">
	<g>
		<g id="cs_layer_CNA_0002_00000023283088047694392320000015410210321053132443_">
			<g id="g169366_00000060018564281457370690000011209304467157080227_">
			</g>
			<g id="BR_BR_98_FLD_-_NONE_271_00000162323947636219397580000009569953594976647049_" transform="translate(487.5,712.5)">
				<g id="g171064_00000116200974301314576790000013235037313178304950_" transform="translate(-450,-1500)">
					
						<rect id="rect171062_00000142865710275787706230000008329544322364064897_" x="-37.5" y="787.5" fill="#ED2224" width="75" height="75"/>
				</g>
				<g id="g171081_00000082335954008182815280000006357319268955995277_" transform="translate(229.688,-150)">
					<g>
						<path fill="#FFFFFF" d="M-651.5-542.9v17H-678v-17H-651.5z M-653-541.5h-23.6v14.2h23.6V-541.5z M-667.6-534.4
							c0-1.4,1.2-2.6,2.8-2.6s2.8,1.2,2.8,2.6c0,1.4-1.2,2.6-2.8,2.6S-667.6-533-667.6-534.4z"/>
					</g>
					<g>
						<path fill="#FFFFFF" d="M-692.8-515.4c0,3.3,0,6.5-3.4,6.5c-1.9,0-3.1-1.3-3.1-3.3h1.7c0,0.9,0.4,1.9,1.4,1.9
							c1.6,0,1.7-1.8,1.7-5h0c-0.4,0.9-1.2,1.2-2.1,1.2c-1,0-2.9-0.5-2.9-3.9c0-2.8,1.7-3.8,3.3-3.8
							C-692.8-521.9-692.8-518.8-692.8-515.4z M-697.9-518.1c0,1.2,0.2,2.6,1.7,2.6s1.7-1.4,1.7-2.6c0-1.1-0.3-2.6-1.7-2.6
							C-697.6-520.7-697.9-519.3-697.9-518.1z"/>
						<path fill="#FFFFFF" d="M-687.2-515.9c1.8,0.2,2.3,1.6,2.3,3.2c0,2.3-1.2,3.6-3.3,3.6s-3.3-1.4-3.3-3.6c0-1.6,0.5-3.1,2.3-3.2
							v0c-1.5-0.3-2.2-1.5-2.2-2.9c0-2,1.2-3.1,3.2-3.1c2,0,3.2,1.2,3.2,3.1C-685-517.4-685.7-516.2-687.2-515.9L-687.2-515.9z
							 M-686.5-512.6c0-1.1-0.1-2.6-1.7-2.6c-1.5,0-1.7,1.4-1.7,2.6c0,1.1,0.4,2.2,1.7,2.2C-686.9-510.4-686.5-511.5-686.5-512.6z
							 M-686.6-518.9c0-0.9-0.5-1.9-1.5-1.9c-1.1,0-1.5,0.9-1.5,1.9c0,0.9,0.3,2.3,1.5,2.3C-686.9-516.6-686.6-517.9-686.6-518.9z"
							/>
						<path fill="#FFFFFF" d="M-678.9-509.2v-13h6.4v1.4h-4.8v4.2h4.5v1.4h-4.5v5.9H-678.9z"/>
						<path fill="#FFFFFF" d="M-669.5-509.2h-1.5v-13h1.5V-509.2z"/>
						<path fill="#FFFFFF" d="M-662.1-522.2h1.5v13h-1.5v-1.1h0c-0.5,0.8-1.1,1.3-2.1,1.3c-1.5,0-2.9-0.6-2.9-4.6
							c0-2.3,0.1-4.9,3-4.9c0.9,0,1.5,0.4,2,1.1h0.1V-522.2z M-663.8-517.3c-1.6,0-1.8,1.3-1.8,3.7c0,1.4,0,3.3,1.9,3.3
							c1.7,0,1.7-2.1,1.7-3.9C-662.1-515.4-662.2-517.3-663.8-517.3z"/>
					</g>
					<g>
						<path fill="#FFFFFF" d="M-668.7-553.2h1v7.2h-1V-553.2z"/>
						<path fill="#FFFFFF" d="M-665.9-553.2h1v7.2h-1V-553.2z"/>
						<path fill="#FFFFFF" d="M-663.2-553.2h1v7.2h-1V-553.2z"/>
					</g>
					<g>
						<path fill="#FFFFFF" d="M-688-538.6c-0.7,0.6-1.8,1.2-2.6,1.6v-1.6c1-0.5,2.1-1.2,2.7-1.7h1.4v11.1h-1.5V-538.6z"/>
					</g>
					<g>
						<path fill="#FFFFFF" d="M-682.9-500.9h2.6v0.9h-2.6V-500.9z"/>
						<path fill="#FFFFFF" d="M-678.9-500.9h2.6v0.9h-2.6V-500.9z"/>
					</g>
				</g>
			</g>
			<g id="BR_BR_A_-_SPSERV_272_00000001651276574936968210000008009339665189276290_" transform="translate(562.5,712.5)">
				<g id="g171086_00000124119600558265717460000015112589330416096130_" transform="translate(-450,-1500)">
					
						<rect id="rect171084_00000178176699538589817500000004783793526908262284_" x="-37.5" y="787.5" fill="#ED2224" width="75" height="75"/>
				</g>
			</g>
		</g>
	</g>
</g>
<g id="text" display="none">
	
		<rect id="frontbox" x="-487.5" y="-712.5" display="inline" fill="none" stroke="#000000" stroke-miterlimit="10" width="1650" height="1275"/>
	<g id="align" display="inline">
	</g>
</g>
<g id="crop" display="none">
	<g id="front" display="inline">
		<g>
			<line fill="none" stroke="#939598" stroke-miterlimit="10" x1="-459.4" y1="0" x2="309.4" y2="0"/>
			<line fill="none" stroke="#939598" stroke-miterlimit="10" x1="-459.4" y1="75" x2="309.4" y2="75"/>
			<line fill="none" stroke="#939598" stroke-miterlimit="10" x1="0" y1="-84.4" x2="0" y2="84.4"/>
			<line fill="none" stroke="#939598" stroke-miterlimit="10" x1="75" y1="-84.4" x2="75" y2="84.4"/>
		</g>
	</g>
</g>
<g id="guides" display="none">
</g>
</svg>
