<?xml version="1.0" encoding="utf-8"?>
<!-- Generator: Adobe Illustrator 26.0.3, SVG Export Plug-In . SVG Version: 6.00 Build 0)  -->
<svg version="1.2" baseProfile="tiny" xmlns="http://www.w3.org/2000/svg" xmlns:xlink="http://www.w3.org/1999/xlink" x="0px"
	 y="0px" viewBox="0 0 75 75" overflow="visible" xml:space="preserve">
<g id="svg">
	<g>
		<g id="cs_layer_CNA_0002_00000023283088047694392320000015410210321053132443_">
			<g id="g169366_00000060018564281457370690000011209304467157080227_">
			</g>
			<g id="BR_BR_RWIYEO_-_9-10_275_00000107563069421777759570000000143778939275138195_" transform="translate(37.5,825)">
				<g id="g171152_00000155111048053012603130000013997641024011140482_" transform="translate(-450,-1500)">
					
						<rect id="rect171150_00000106830625458889289140000003528151946019474825_" x="412.5" y="675" fill="#ED2224" width="75" height="75"/>
				</g>
				<g id="g171169_00000145737987515890020690000008032868012811151531_" transform="translate(229.688,-150)">
					<g>
						<path fill="#FFFFFF" d="M-201.5-655.4v17H-228v-17H-201.5z M-203-654h-23.6v14.2h23.6V-654z M-223.7-643.9
							c-0.8-0.8-1.2-1.9-1.2-3c0-2.3,1.9-4.2,4.2-4.2c0,0,0,0,0,0v0h11.8c0,0,0,0,0,0c2.3,0,4.2,2,4.2,4.3c0,2.3-1.9,4.2-4.2,4.2
							c0,0,0,0,0,0v0h-11.8c0,0,0,0,0,0c0,0,0,0,0,0C-221.8-642.7-222.9-643.1-223.7-643.9z M-223.5-646.9c0,0.8,0.3,1.5,0.8,2
							c0.5,0.5,1.2,0.9,2,0.9h11.8c0,0,0,0,0,0c1.5,0,2.8-1.3,2.8-2.8c0-1.6-1.2-2.9-2.8-2.9v0h-11.8
							C-222.2-649.7-223.5-648.5-223.5-646.9z"/>
					</g>
					<g>
						<path fill="#FFFFFF" d="M-254.5-627.7v6h-1.7v-13h4.5c2.3,0,3.1,1.6,3.1,3.2c0,1.5-0.8,2.7-2.4,3v0c1.5,0.2,2,0.7,2.1,3.3
							c0,0.6,0.2,2.6,0.5,3.4h-1.7c-0.5-0.9-0.4-2.6-0.5-4.3c-0.1-1.6-1.4-1.7-2-1.7H-254.5z M-254.5-629.2h2.5c1.2,0,1.8-1,1.8-2.2
							c0-0.9-0.5-2-1.7-2h-2.5V-629.2z"/>
						<path fill="#FFFFFF" d="M-247.4-634.7h1.8l2.4,11.3h0l2.6-11.3h2.1l2.4,11.3h0l2.6-11.3h1.7l-3.4,13h-2l-2.5-11.3h0l-2.6,11.3
							h-2L-247.4-634.7z"/>
						<path fill="#FFFFFF" d="M-230.4-634.7h1.7v1.6h-1.7V-634.7z M-228.8-621.7h-1.5v-9.1h1.5V-621.7z"/>
						<path fill="#FFFFFF" d="M-220.4-634.7h1.7l-3.5,8v5h-1.7v-5l-3.5-8h1.9l2.5,6.3L-220.4-634.7z"/>
						<path fill="#FFFFFF" d="M-217.1-625.8c0,2.5,0.7,3,1.8,3c1,0,1.5-0.8,1.6-1.7h1.6c0,2-1.3,2.9-3.2,2.9c-1.9,0-3.5-0.6-3.5-4.6
							c0-2.7,0.3-4.9,3.5-4.9c2.6,0,3.2,1.4,3.2,4.4v0.8H-217.1z M-213.5-626.9c0-2.6-0.7-3-1.8-3c-0.9,0-1.7,0.5-1.7,3H-213.5z"/>
						<path fill="#FFFFFF" d="M-209.8-626.2c0-2.7,0.3-4.9,3.5-4.9s3.5,2.2,3.5,4.9c0,4-1.5,4.6-3.5,4.6
							C-208.2-621.6-209.8-622.1-209.8-626.2z M-204.4-626.8c0-2.5-0.8-3-1.9-3s-1.9,0.5-1.9,3c0,3,0.4,4,1.9,4
							C-204.8-622.8-204.4-623.8-204.4-626.8z"/>
					</g>
					<g>
						<path fill="#FFFFFF" d="M-217.3-665.7h1v7.2h-1V-665.7z"/>
						<path fill="#FFFFFF" d="M-214.6-665.7h1v7.2h-1V-665.7z"/>
					</g>
					<g>
						<path fill="#FFFFFF" d="M-238-651.1c-0.7,0.6-1.8,1.2-2.6,1.6v-1.6c1-0.5,2.1-1.2,2.7-1.7h1.4v11.1h-1.5V-651.1z"/>
					</g>
					<g>
						<path fill="#FFFFFF" d="M-242.6-611.7v-1l2.4-5.3h1.5v5.3h1v1h-1v2h-1v-2H-242.6z M-239.9-612.7v-4.3h0l-1.8,4.3H-239.9z"/>
						<path fill="#FFFFFF" d="M-237.3-611.7v-1l2.4-5.3h1.5v5.3h1v1h-1v2h-1v-2H-237.3z M-234.5-612.7v-4.3h0l-1.8,4.3H-234.5z"/>
						<path fill="#FFFFFF" d="M-232-611.7v-1l2.4-5.3h1.5v5.3h1v1h-1v2h-1v-2H-232z M-229.2-612.7v-4.3h0l-1.8,4.3H-229.2z"/>
						<path fill="#FFFFFF" d="M-226.7-611.7v-1l2.4-5.3h1.5v5.3h1v1h-1v2h-1v-2H-226.7z M-223.9-612.7v-4.3h0l-1.8,4.3H-223.9z"/>
						<path fill="#FFFFFF" d="M-216.7-613.8c0,2.2,0,4.3-2.2,4.3c-1.2,0-2.1-0.9-2.1-2.2h1.1c0,0.6,0.2,1.2,0.9,1.2
							c1.1,0,1.1-1.2,1.1-3.3h0c-0.3,0.6-0.8,0.8-1.4,0.8c-0.7,0-1.9-0.3-1.9-2.6c0-1.9,1.1-2.6,2.2-2.6
							C-216.7-618.1-216.7-616-216.7-613.8z M-220.1-615.6c0,0.8,0.2,1.7,1.1,1.7s1.1-0.9,1.1-1.7c0-0.8-0.2-1.7-1.1-1.7
							C-219.9-617.3-220.1-616.4-220.1-615.6z"/>
					</g>
				</g>
			</g>
			<g id="BR_BR_RYUGGD_276_00000178893236111857547920000015589422879491712429_" transform="translate(112.5,825)">
				<g id="g171174_00000013170906175881078600000012725102366209906838_" transform="translate(-450,-1500)">
					
						<rect id="rect171172_00000145756467676914034240000011281770381347166086_" x="412.5" y="675" fill="#ED2224" width="75" height="75"/>
				</g>
			</g>
		</g>
	</g>
</g>
<g id="text" display="none">
	
		<rect id="frontbox" x="-37.5" y="-825" display="inline" fill="none" stroke="#000000" stroke-miterlimit="10" width="1650" height="1275"/>
	<g id="align" display="inline">
	</g>
</g>
<g id="crop" display="none">
	<g id="front" display="inline">
		<g>
			<line fill="none" stroke="#939598" stroke-miterlimit="10" x1="-9.4" y1="0" x2="759.4" y2="0"/>
			<line fill="none" stroke="#939598" stroke-miterlimit="10" x1="-9.4" y1="75" x2="759.4" y2="75"/>
			<line fill="none" stroke="#939598" stroke-miterlimit="10" x1="0" y1="-9.4" x2="0" y2="159.4"/>
			<line fill="none" stroke="#939598" stroke-miterlimit="10" x1="75" y1="-9.4" x2="75" y2="159.4"/>
		</g>
	</g>
</g>
<g id="guides" display="none">
</g>
</svg>
