<?xml version="1.0" encoding="utf-8"?>
<!-- Generator: Adobe Illustrator 26.0.3, SVG Export Plug-In . SVG Version: 6.00 Build 0)  -->
<svg version="1.2" baseProfile="tiny" xmlns="http://www.w3.org/2000/svg" xmlns:xlink="http://www.w3.org/1999/xlink" x="0px"
	 y="0px" viewBox="0 0 75 75" overflow="visible" xml:space="preserve">
<g id="svg">
	<g>
		<g id="cs_layer_CNA_0002_00000023283088047694392320000015410210321053132443_">
			<g id="g169366_00000060018564281457370690000011209304467157080227_">
			</g>
			<g id="BR_BR_SELBY_-_MATRUH_278_00000116946495680164881420000005201932933668443309_" transform="translate(262.5,825)">
				<g id="g171218_00000179633126631055569180000000231583461053680799_" transform="translate(-450,-1500)">
					
						<rect id="rect171216_00000078026008842019162540000009042194543367809451_" x="187.5" y="675" fill="#ED2224" width="75" height="75"/>
				</g>
				<g id="g171237_00000087400882519135091160000011683521639042149532_" transform="translate(229.688,-150)">
					
						<rect id="rect171220_00000126324432096875511020000014900259197460954540_" x="-492.2" y="-656.2" fill="#7F1416" width="75" height="18.8"/>
					<g>
						<path fill="#FFFFFF" d="M-426.5-655.4v17H-453v-17H-426.5z M-451.6-653.2v12.5l10.4-6.3L-451.6-653.2z M-429.3-654h-20.9
							l10.4,6.3L-429.3-654z M-450.2-639.8h20.9l-10.4-6.3L-450.2-639.8z M-438.4-646.9l10.4,6.3v-12.5L-438.4-646.9z"/>
					</g>
					<g>
						<path fill="#FFFFFF" d="M-472-625.6v0.4c0,1.8,1.1,2.3,2.2,2.3c1.3,0,2.3-0.6,2.3-2.1c0-2.9-5.8-2.6-5.8-6.5
							c0-2.3,1.6-3.5,3.8-3.5c2.4,0,3.7,1.2,3.6,3.8h-1.7c0-1.4-0.4-2.4-2-2.4c-1,0-2,0.5-2,1.9c0,2.9,5.8,2.4,5.8,6.6
							c0,2.7-1.9,3.6-4,3.6c-3.8,0-3.8-2.9-3.8-4.1H-472z"/>
						<path fill="#FFFFFF" d="M-461.9-625.8c0,2.5,0.7,3,1.8,3c1,0,1.5-0.8,1.6-1.7h1.6c0,2-1.3,2.9-3.2,2.9c-1.9,0-3.5-0.6-3.5-4.6
							c0-2.7,0.3-4.9,3.5-4.9c2.6,0,3.2,1.4,3.2,4.4v0.8H-461.9z M-458.4-626.9c0-2.6-0.7-3-1.8-3c-0.9,0-1.7,0.5-1.7,3H-458.4z"/>
						<path fill="#FFFFFF" d="M-452.9-621.7h-1.5v-13h1.5V-621.7z"/>
						<path fill="#FFFFFF" d="M-448.8-621.7h-1.5v-13h1.5v4.8h0.1c0.5-0.7,1.1-1.1,2-1.1c2.9,0,3,2.6,3,4.9c0,4-1.5,4.6-2.9,4.6
							c-1,0-1.6-0.4-2.1-1.3h0V-621.7z M-447.1-622.8c1.9,0,1.9-2,1.9-3.3c0-2.4-0.2-3.7-1.8-3.7c-1.6,0-1.7,1.9-1.7,3.2
							C-448.8-625.3-448.9-622.8-447.1-622.8z"/>
						<path fill="#FFFFFF" d="M-438.7-623.4L-438.7-623.4l2.2-7.4h1.6l-4.1,12.5h-1.5l1-3.4l-3.1-9.1h1.7L-438.7-623.4z"/>
					</g>
					<g>
						<path fill="#FFFFFF" d="M-442.3-665.7l1.9,2.8l1.9-2.8h1.2l-2.6,3.5l2.7,3.8h-1.3l-2.1-3.1l-2.2,3.1h-1.2l2.8-3.8l-2.5-3.4
							H-442.3z"/>
					</g>
					<g>
						<path fill="#FFFFFF" d="M-463-651.1c-0.7,0.6-1.8,1.2-2.6,1.6v-1.6c1-0.5,2.1-1.2,2.7-1.7h1.4v11.1h-1.5V-651.1z"/>
					</g>
					<g>
						<path fill="#FFFFFF" d="M-470.3-609.7h-1v-8.7h1.8l2.2,7.3h0l2.2-7.3h1.8v8.7h-1.1v-7.7h0l-2.4,7.7h-1l-2.4-7.7h0V-609.7z"/>
						<path fill="#FFFFFF" d="M-458.3-610.5L-458.3-610.5c-0.3,0.7-0.8,1-1.5,1c-1.3,0-1.7-0.8-1.7-2c0-1.8,1.8-1.9,3.2-1.9
							c0-0.8,0-1.7-1-1.7c-0.7,0-1,0.4-0.9,1.1h-1.1c0-1.4,0.8-1.8,2.1-1.8c1.6,0,2,0.8,2,1.8v2.9c0,0.5,0,1,0.1,1.4h-1.1V-610.5z
							 M-460.5-611.5c0,0.6,0.3,1.1,0.9,1.1c0.6,0,1.3-0.4,1.2-2.3C-459.3-612.7-460.5-612.8-460.5-611.5z"/>
						<path fill="#FFFFFF" d="M-455.3-615.7v-1.2l1-0.4v1.6h1.3v0.7h-1.3v3.7c0,0.4,0,0.9,0.9,0.9c0.1,0,0.2,0,0.4,0v0.8
							c-0.3,0-0.6,0.1-1,0.1c-0.9,0-1.4-0.4-1.4-1.1v-4.3h-1v-0.7H-455.3z"/>
						<path fill="#FFFFFF" d="M-451.1-614.8L-451.1-614.8c0.4-0.9,0.9-1,1.9-1v1c-0.1,0-0.2,0-0.3,0s-0.2,0-0.3,0
							c-1.1,0-1.4,0.8-1.4,1.6v3.6h-1v-6.1h1V-614.8z"/>
						<path fill="#FFFFFF" d="M-444.9-615.7h1v4.8c0,0.4,0,0.8,0.1,1.3h-1v-0.7h0c-0.3,0.6-0.9,0.9-1.5,0.9c-1.1,0-1.6-0.5-1.6-1.6
							v-4.6h1v4.2c0,0.7,0.3,1.2,1,1.2c0.5,0,1.2-0.4,1.2-1.4V-615.7z"/>
						<path fill="#FFFFFF" d="M-438.8-609.7v-4.1c0-0.7-0.2-1.3-1.1-1.3c-1,0-1.2,0.8-1.2,1.8v3.6h-1v-8.7h1v3.4h0
							c0.4-0.7,0.9-0.9,1.6-0.9c1,0,1.6,0.5,1.6,1.9v4.3H-438.8z"/>
					</g>
				</g>
			</g>
			<g id="BR_BR_STFFYEO_-_8-10_279_00000159459471794003310730000011704948861050616198_" transform="translate(337.5,825)">
				<g id="g171242_00000096032914805723510000000002448495678991148212_" transform="translate(-450,-1500)">
					
						<rect id="rect171240_00000149382556343708318820000000269719982144677551_" x="187.5" y="675" fill="#ED2224" width="75" height="75"/>
				</g>
			</g>
		</g>
	</g>
</g>
<g id="text" display="none">
	
		<rect id="frontbox" x="-262.5" y="-825" display="inline" fill="none" stroke="#000000" stroke-miterlimit="10" width="1650" height="1275"/>
	<g id="align" display="inline">
	</g>
</g>
<g id="crop" display="none">
	<g id="front" display="inline">
		<g>
			<line fill="none" stroke="#939598" stroke-miterlimit="10" x1="-234.4" y1="0" x2="534.4" y2="0"/>
			<line fill="none" stroke="#939598" stroke-miterlimit="10" x1="-234.4" y1="75" x2="534.4" y2="75"/>
			<line fill="none" stroke="#939598" stroke-miterlimit="10" x1="0" y1="-9.4" x2="0" y2="159.4"/>
			<line fill="none" stroke="#939598" stroke-miterlimit="10" x1="75" y1="-9.4" x2="75" y2="159.4"/>
		</g>
	</g>
</g>
<g id="guides" display="none">
</g>
</svg>
