<?xml version="1.0" encoding="utf-8"?>
<!-- Generator: Adobe Illustrator 26.0.3, SVG Export Plug-In . SVG Version: 6.00 Build 0)  -->
<svg version="1.2" baseProfile="tiny" xmlns="http://www.w3.org/2000/svg" xmlns:xlink="http://www.w3.org/1999/xlink" x="0px"
	 y="0px" viewBox="0 0 75 75" overflow="visible" xml:space="preserve">
<g id="svg">
	<g>
		<g id="cs_layer_CNA_0002_00000023283088047694392320000015410210321053132443_">
			<g id="g169366_00000060018564281457370690000011209304467157080227_">
			</g>
			<g id="BR_BR_RYUGGD_276_00000178893236111857547920000015589422879491712429_" transform="translate(112.5,825)">
				<g id="g171174_00000013170906175881078600000012725102366209906838_" transform="translate(-450,-1500)">
					
						<rect id="rect171172_00000145756467676914034240000011281770381347166086_" x="337.5" y="675" fill="#ED2224" width="75" height="75"/>
				</g>
				<g id="g171191_00000136401764850530455310000004190444175454192257_" transform="translate(229.688,-150)">
					<g>
						<path fill="#FFFFFF" d="M-276.5-655.4v17H-303v-17H-276.5z M-301.6-653.2v12.5l10.4-6.3L-301.6-653.2z M-279.3-654h-20.9
							l10.4,6.3L-279.3-654z M-300.2-639.8h20.9l-10.4-6.3L-300.2-639.8z M-288.4-646.9l10.4,6.3v-12.5L-288.4-646.9z"/>
					</g>
					<g>
						<path fill="#FFFFFF" d="M-329.8-627.7v6h-1.7v-13h4.5c2.3,0,3.1,1.6,3.1,3.2c0,1.5-0.8,2.7-2.4,3v0c1.5,0.2,2,0.7,2.1,3.3
							c0,0.6,0.2,2.6,0.5,3.4h-1.7c-0.5-0.9-0.4-2.6-0.5-4.3c-0.1-1.6-1.4-1.7-2-1.7H-329.8z M-329.8-629.2h2.5c1.2,0,1.8-1,1.8-2.2
							c0-0.9-0.5-2-1.7-2h-2.5V-629.2z"/>
						<path fill="#FFFFFF" d="M-315.7-634.7h1.7l-3.5,8v5h-1.7v-5l-3.5-8h1.9l2.5,6.3L-315.7-634.7z"/>
						<path fill="#FFFFFF" d="M-308.4-630.8h1.5v7.2c0,0.6,0,1.3,0.1,1.9h-1.6v-1.1h-0.1c-0.5,0.8-1.4,1.3-2.3,1.3
							c-1.6,0-2.4-0.8-2.4-2.3v-6.9h1.5v6.3c0,1.1,0.5,1.8,1.5,1.8c0.8,0,1.8-0.6,1.8-2.1V-630.8z"/>
						<path fill="#FFFFFF" d="M-299.4-630.8h1.5v10c0,2-1.4,2.5-3.3,2.5c-1.5,0-2.9-0.8-2.8-2.4h1.7c0,0.8,0.6,1.3,1.4,1.3
							c1,0,1.6-0.6,1.6-1.6v-1.9h-0.1c-0.4,0.7-1.2,1.1-2,1.1c-2.5,0-3-2.1-3-4.8c0-4.2,2.1-4.4,2.8-4.4c1,0,1.7,0.4,2.1,1.3h0
							V-630.8z M-301.1-629.8c-1.7,0-1.7,2-1.7,3.2c0,2.9,0.7,3.6,1.8,3.6c1.8,0,1.7-2.1,1.7-3.4
							C-299.4-627.7-299.3-629.8-301.1-629.8z"/>
						<path fill="#FFFFFF" d="M-288.8-631.3c0-1.5-0.6-2.4-2.3-2.4c-0.5,0-2.4,0.1-2.4,2.8v4.4c0,2.8,0.8,3.6,2.4,3.6
							c1.2,0,2-0.3,2.3-0.6v-3.9h-2.4v-1.4h4.1v6.3c-1.1,0.6-2.3,1-4,1c-2.8,0-4.1-1.4-4.1-5v-4.3c0-2.6,1.3-4.2,4.1-4.2
							c2.8,0,4.1,1,4,3.7H-288.8z"/>
						<path fill="#FFFFFF" d="M-279.4-634.7h1.5v13h-1.5v-1.1h0c-0.5,0.8-1.1,1.3-2.1,1.3c-1.5,0-2.9-0.6-2.9-4.6
							c0-2.3,0.1-4.9,3-4.9c0.9,0,1.5,0.4,2,1.1h0.1V-634.7z M-281.1-629.8c-1.6,0-1.8,1.3-1.8,3.7c0,1.4,0,3.3,1.9,3.3
							c1.7,0,1.7-2.1,1.7-3.9C-279.4-627.9-279.5-629.8-281.1-629.8z"/>
					</g>
					<g>
						<path fill="#FFFFFF" d="M-292.3-665.7h1v7.2h-1V-665.7z"/>
						<path fill="#FFFFFF" d="M-289.6-665.7h1v7.2h-1V-665.7z"/>
					</g>
					<g>
						<path fill="#FFFFFF" d="M-313-651.1c-0.7,0.6-1.8,1.2-2.6,1.6v-1.6c1-0.5,2.1-1.2,2.7-1.7h1.4v11.1h-1.5V-651.1z"/>
					</g>
					<g>
						<path fill="#FFFFFF" d="M-307.9-613.4h2.6v0.9h-2.6V-613.4z"/>
						<path fill="#FFFFFF" d="M-303.9-613.4h2.6v0.9h-2.6V-613.4z"/>
					</g>
				</g>
			</g>
			<g id="BR_BR_SCTSGRY_-_8-10_277_00000007410810381899093230000001843688353833196727_" transform="translate(187.5,825)">
				<g id="g171196_00000165213422162448808240000005383884197867716780_" transform="translate(-450,-1500)">
					
						<rect id="rect171194_00000014617291047575211420000010505484211126103988_" x="337.5" y="675" fill="#ED2224" width="75" height="75"/>
				</g>
			</g>
		</g>
	</g>
</g>
<g id="text" display="none">
	
		<rect id="frontbox" x="-112.5" y="-825" display="inline" fill="none" stroke="#000000" stroke-miterlimit="10" width="1650" height="1275"/>
	<g id="align" display="inline">
	</g>
</g>
<g id="crop" display="none">
	<g id="front" display="inline">
		<g>
			<line fill="none" stroke="#939598" stroke-miterlimit="10" x1="-84.4" y1="0" x2="684.4" y2="0"/>
			<line fill="none" stroke="#939598" stroke-miterlimit="10" x1="-84.4" y1="75" x2="684.4" y2="75"/>
			<line fill="none" stroke="#939598" stroke-miterlimit="10" x1="0" y1="-9.4" x2="0" y2="159.4"/>
			<line fill="none" stroke="#939598" stroke-miterlimit="10" x1="75" y1="-9.4" x2="75" y2="159.4"/>
		</g>
	</g>
</g>
<g id="guides" display="none">
</g>
</svg>
