<?xml version="1.0" encoding="utf-8"?>
<!-- Generator: Adobe Illustrator 26.0.3, SVG Export Plug-In . SVG Version: 6.00 Build 0)  -->
<svg version="1.2" baseProfile="tiny" xmlns="http://www.w3.org/2000/svg" xmlns:xlink="http://www.w3.org/1999/xlink" x="0px"
	 y="0px" viewBox="0 0 75 75" overflow="visible" xml:space="preserve">
<g id="svg">
	<g>
		<g id="cs_layer_CNA_0002_00000023283088047694392320000015410210321053132443_">
			<g id="g169366_00000060018564281457370690000011209304467157080227_">
			</g>
			<g id="BR_BR_SCTSGRY_-_8-10_277_00000007410810381899093230000001843688353833196727_" transform="translate(187.5,825)">
				<g id="g171196_00000165213422162448808240000005383884197867716780_" transform="translate(-450,-1500)">
					
						<rect id="rect171194_00000014617291047575211420000010505484211126103988_" x="262.5" y="675" fill="#ED2224" width="75" height="75"/>
				</g>
				<g id="g171213_00000155134386575691371540000007978268996988622776_" transform="translate(229.688,-150)">
					<g>
						<path fill="#FFFFFF" d="M-351.5-655.4v17H-378v-17H-351.5z M-353-654h-23.6v14.2h23.6V-654z M-373.7-643.9
							c-0.8-0.8-1.2-1.9-1.2-3c0-2.3,1.9-4.2,4.2-4.2c0,0,0,0,0,0v0h11.8c0,0,0,0,0,0c2.3,0,4.2,2,4.2,4.3c0,2.3-1.9,4.2-4.2,4.2
							c0,0,0,0,0,0v0h-11.8c0,0,0,0,0,0c0,0,0,0,0,0C-371.8-642.7-372.9-643.1-373.7-643.9z M-373.5-646.9c0,0.8,0.3,1.5,0.8,2
							c0.5,0.5,1.2,0.9,2,0.9h11.8c0,0,0,0,0,0c1.5,0,2.8-1.3,2.8-2.8c0-1.6-1.2-2.9-2.8-2.9v0h-11.8
							C-372.2-649.7-373.5-648.5-373.5-646.9z"/>
					</g>
					<g>
						<path fill="#FFFFFF" d="M-405.4-625.6v0.4c0,1.8,1.1,2.3,2.2,2.3c1.3,0,2.3-0.6,2.3-2.1c0-2.9-5.8-2.6-5.8-6.5
							c0-2.3,1.6-3.5,3.8-3.5c2.4,0,3.7,1.2,3.6,3.8h-1.7c0-1.4-0.4-2.4-2-2.4c-1,0-2,0.5-2,1.9c0,2.9,5.8,2.4,5.8,6.6
							c0,2.7-1.9,3.6-4,3.6c-3.8,0-3.8-2.9-3.8-4.1H-405.4z"/>
						<path fill="#FFFFFF" d="M-392.1-627.9c0-1.5-0.7-1.9-1.3-1.9c-1.1,0-1.9,0.5-1.9,3c0,3,0.4,4,1.9,4c0.3,0,1.4-0.4,1.3-2h1.5
							c0.1,2.6-1.9,3.2-2.9,3.2c-1.9,0-3.5-0.6-3.5-4.6c0-2.7,0.3-4.9,3.5-4.9c1.8,0,2.9,1.1,2.8,3.1H-392.1z"/>
						<path fill="#FFFFFF" d="M-387.7-630.8v-1.7l1.5-0.7v2.4h2v1.1h-2v5.6c0,0.6,0,1.3,1.4,1.3c0.1,0,0.3,0,0.7-0.1v1.1
							c-0.5,0-1,0.1-1.5,0.1c-1.4,0-2-0.6-2-1.6v-6.5h-1.5v-1.1H-387.7z"/>
						<path fill="#FFFFFF" d="M-380.2-621.6c-2,0-3.2-0.9-3.1-3h1.7c0,0.5,0,1.7,1.5,1.7c0.9,0,1.6-0.5,1.6-1.4
							c0-1.6-4.5-1.7-4.5-4.4c0-1,0.6-2.5,3.1-2.5c1.6,0,3,0.8,2.9,2.6h-1.6c0-1-0.5-1.5-1.4-1.5c-0.8,0-1.4,0.4-1.4,1.2
							c0,1.6,4.5,1.6,4.5,4.3C-377-622.3-378.4-621.6-380.2-621.6z"/>
						<path fill="#FFFFFF" d="M-368.5-631.3c0-1.5-0.6-2.4-2.3-2.4c-0.5,0-2.4,0.1-2.4,2.8v4.4c0,2.8,0.8,3.6,2.4,3.6
							c1.2,0,2-0.3,2.3-0.6v-3.9h-2.4v-1.4h4.1v6.3c-1.1,0.6-2.3,1-4,1c-2.8,0-4.1-1.4-4.1-5v-4.3c0-2.6,1.3-4.2,4.1-4.2
							c2.8,0,4.1,1,4,3.7H-368.5z"/>
						<path fill="#FFFFFF" d="M-362.4-629.5L-362.4-629.5c0.6-1.4,1.4-1.5,2.8-1.5v1.5c-0.1,0-0.3,0-0.4-0.1c-0.1,0-0.3,0-0.4,0
							c-1.6,0-2.1,1.2-2.1,2.5v5.4h-1.5v-9.1h1.5V-629.5z"/>
						<path fill="#FFFFFF" d="M-355.2-623.4L-355.2-623.4l2.2-7.4h1.6l-4.1,12.5h-1.5l1-3.4l-3.1-9.1h1.7L-355.2-623.4z"/>
					</g>
					<g>
						<path fill="#FFFFFF" d="M-367.3-665.7h1v7.2h-1V-665.7z"/>
						<path fill="#FFFFFF" d="M-364.6-665.7h1v7.2h-1V-665.7z"/>
					</g>
					<g>
						<path fill="#FFFFFF" d="M-399.9-639.8c-0.9-2.1-1.9-4.8-1.9-7.1c0-1.3,0.3-2.5,0.7-3.7c0.4-1.4,0.9-2.5,1.1-3.2h1.1
							c-0.3,0.8-0.6,1.9-0.9,3.4c-0.3,1.5-0.4,2.5-0.4,3.5c0,2.3,0.6,4.1,1.5,7.2H-399.9z"/>
						<path fill="#FFFFFF" d="M-396.8-643.2l2.9-2.8c0.6-0.6,1.2-1.2,1.7-1.9c0.6-0.9,0.8-1.4,0.8-2c0-0.5-0.2-1.8-1.8-1.8
							c-1.8,0-1.8,1.5-1.8,1.9h-1.7c0-0.5,0.1-1.6,1-2.4c0.8-0.7,1.7-0.8,2.4-0.8c1.7,0,3.4,0.9,3.4,3.2c0,0.7,0,1.2-1.2,2.8
							c-0.3,0.4-1.7,1.9-2,2.2l-1.9,1.8h5.3v1.3h-7V-643.2z"/>
						<path fill="#FFFFFF" d="M-386.5-653.8c0.9,2.1,1.9,4.8,1.9,7.1c0,1.3-0.3,2.5-0.7,3.7c-0.4,1.4-0.9,2.5-1.1,3.2h-1.1
							c0.3-0.8,0.6-1.9,0.9-3.4c0.3-1.5,0.4-2.5,0.4-3.5c0-2.3-0.6-4.1-1.5-7.1H-386.5z"/>
					</g>
					<g>
						<path fill="#FFFFFF" d="M-392.6-611.7v-1l2.4-5.3h1.5v5.3h1v1h-1v2h-1v-2H-392.6z M-389.9-612.7v-4.3h0l-1.8,4.3H-389.9z"/>
						<path fill="#FFFFFF" d="M-387.3-611.7v-1l2.4-5.3h1.5v5.3h1v1h-1v2h-1v-2H-387.3z M-384.5-612.7v-4.3h0l-1.8,4.3H-384.5z"/>
						<path fill="#FFFFFF" d="M-382-611.7v-1l2.4-5.3h1.5v5.3h1v1h-1v2h-1v-2H-382z M-379.2-612.7v-4.3h0l-1.8,4.3H-379.2z"/>
						<path fill="#FFFFFF" d="M-373.5-609.7h-1.1v-7.1l-1.2,0.8v-1.1c0.3-0.1,1.1-0.7,1.4-1h0.9V-609.7z"/>
						<path fill="#FFFFFF" d="M-368.3-614.1c1.2,0.1,1.5,1.1,1.5,2.2c0,1.5-0.8,2.4-2.2,2.4s-2.2-0.9-2.2-2.4c0-1.1,0.3-2,1.5-2.2v0
							c-1-0.2-1.5-1-1.5-2c0-1.3,0.8-2.1,2.1-2.1s2.1,0.8,2.1,2.1C-366.8-615.1-367.3-614.3-368.3-614.1L-368.3-614.1z
							 M-367.9-611.9c0-0.7-0.1-1.7-1.1-1.7c-1,0-1.1,1-1.1,1.7c0,0.7,0.3,1.5,1.1,1.5S-367.9-611.2-367.9-611.9z M-367.9-616.1
							c0-0.6-0.3-1.2-1-1.2s-1,0.6-1,1.2c0,0.6,0.2,1.5,1,1.5S-367.9-615.5-367.9-616.1z"/>
					</g>
				</g>
			</g>
			<g id="BR_BR_SELBY_-_MATRUH_278_00000116946495680164881420000005201932933668443309_" transform="translate(262.5,825)">
				<g id="g171218_00000179633126631055569180000000231583461053680799_" transform="translate(-450,-1500)">
					
						<rect id="rect171216_00000078026008842019162540000009042194543367809451_" x="262.5" y="675" fill="#ED2224" width="75" height="75"/>
				</g>
			</g>
		</g>
	</g>
</g>
<g id="text" display="none">
	
		<rect id="frontbox" x="-187.5" y="-825" display="inline" fill="none" stroke="#000000" stroke-miterlimit="10" width="1650" height="1275"/>
	<g id="align" display="inline">
	</g>
</g>
<g id="crop" display="none">
	<g id="front" display="inline">
		<g>
			<line fill="none" stroke="#939598" stroke-miterlimit="10" x1="-159.4" y1="0" x2="609.4" y2="0"/>
			<line fill="none" stroke="#939598" stroke-miterlimit="10" x1="-159.4" y1="75" x2="609.4" y2="75"/>
			<line fill="none" stroke="#939598" stroke-miterlimit="10" x1="0" y1="-9.4" x2="0" y2="159.4"/>
			<line fill="none" stroke="#939598" stroke-miterlimit="10" x1="75" y1="-9.4" x2="75" y2="159.4"/>
		</g>
	</g>
</g>
<g id="guides" display="none">
</g>
</svg>
