<?xml version="1.0" encoding="utf-8"?>
<!-- Generator: Adobe Illustrator 26.0.3, SVG Export Plug-In . SVG Version: 6.00 Build 0)  -->
<svg version="1.2" baseProfile="tiny" xmlns="http://www.w3.org/2000/svg" xmlns:xlink="http://www.w3.org/1999/xlink" x="0px"
	 y="0px" viewBox="0 0 75 75" overflow="visible" xml:space="preserve">
<g id="svg">
	<g>
		<g id="cs_layer_CNA_0002_00000023283088047694392320000015410210321053132443_">
			<g id="g169366_00000060018564281457370690000011209304467157080227_">
			</g>
			<g id="BR_BR_WKYEO_-_9-10_280_00000160156308082777642420000017499646073784759992_" transform="translate(412.5,825)">
				<g id="g171264_00000144299121514850620010000002709540494943881601_" transform="translate(-450,-1500)">
					
						<rect id="rect171262_00000083074290592499518480000006465640608275448229_" x="37.5" y="675" fill="#ED2224" width="75" height="75"/>
				</g>
				<g id="g171281_00000012432316525509503690000002397850407771355060_" transform="translate(229.688,-150)">
					<g>
						<path fill="#FFFFFF" d="M-576.5-655.4v17H-603v-17H-576.5z M-578-654h-23.6v14.2h23.6V-654z M-598.7-643.9
							c-0.8-0.8-1.2-1.9-1.2-3c0-2.3,1.9-4.2,4.2-4.2c0,0,0,0,0,0v0h11.8c0,0,0,0,0,0c2.3,0,4.2,2,4.2,4.3c0,2.3-1.9,4.2-4.2,4.2
							c0,0,0,0,0,0v0h-11.8c0,0,0,0,0,0c0,0,0,0,0,0C-596.8-642.7-597.9-643.1-598.7-643.9z M-598.5-646.9c0,0.8,0.3,1.5,0.8,2
							c0.5,0.5,1.2,0.9,2,0.9h11.8c0,0,0,0,0,0c1.5,0,2.8-1.3,2.8-2.8c0-1.6-1.2-2.9-2.8-2.9v0h-11.8
							C-597.2-649.7-598.5-648.5-598.5-646.9z"/>
					</g>
					<g>
						<path fill="#FFFFFF" d="M-629.5-634.7h1.8l2.4,11.3h0l2.6-11.3h2.1l2.4,11.3h0l2.6-11.3h1.7l-3.4,13h-2l-2.5-11.3h0l-2.6,11.3
							h-2L-629.5-634.7z"/>
						<path fill="#FFFFFF" d="M-610.8-621.7h-1.5v-13h1.5v7.8h0l2.8-3.9h1.8l-3,3.9l3.6,5.2h-1.9l-3.2-5.1h0V-621.7z"/>
						<path fill="#FFFFFF" d="M-598.4-634.7h1.7l-3.5,8v5h-1.7v-5l-3.5-8h1.9l2.5,6.3L-598.4-634.7z"/>
						<path fill="#FFFFFF" d="M-595.1-625.8c0,2.5,0.7,3,1.8,3c1,0,1.5-0.8,1.6-1.7h1.6c0,2-1.3,2.9-3.2,2.9c-1.9,0-3.5-0.6-3.5-4.6
							c0-2.7,0.3-4.9,3.5-4.9c2.6,0,3.2,1.4,3.2,4.4v0.8H-595.1z M-591.5-626.9c0-2.6-0.7-3-1.8-3c-0.9,0-1.7,0.5-1.7,3H-591.5z"/>
						<path fill="#FFFFFF" d="M-587.8-626.2c0-2.7,0.3-4.9,3.5-4.9c3.2,0,3.5,2.2,3.5,4.9c0,4-1.5,4.6-3.5,4.6
							C-586.2-621.6-587.8-622.1-587.8-626.2z M-582.4-626.8c0-2.5-0.8-3-1.9-3c-1.1,0-1.9,0.5-1.9,3c0,3,0.4,4,1.9,4
							C-582.8-622.8-582.4-623.8-582.4-626.8z"/>
					</g>
					<g>
						<path fill="#FFFFFF" d="M-592.3-665.7h1v7.2h-1V-665.7z"/>
						<path fill="#FFFFFF" d="M-589.6-665.7h1v7.2h-1V-665.7z"/>
					</g>
					<g>
						<path fill="#FFFFFF" d="M-624.9-639.8c-0.9-2.1-1.9-4.8-1.9-7.1c0-1.3,0.3-2.5,0.7-3.7c0.4-1.4,0.9-2.5,1.1-3.2h1.1
							c-0.3,0.8-0.6,1.9-0.9,3.4c-0.3,1.5-0.4,2.5-0.4,3.5c0,2.3,0.6,4.1,1.5,7.2H-624.9z"/>
						<path fill="#FFFFFF" d="M-620.1-644.4c0,1.1,1,1.6,1.8,1.6c1.9,0,2.2-1.8,2.2-2.5c0-1.5-0.8-2.4-2.1-2.4
							c-0.6,0-1.2,0.2-1.5,0.6s-0.4,0.7-0.5,0.9h-1.5l0.3-6.6h6.2v1.3h-4.9l-0.2,3.6c0.3-0.3,1-1,2.3-1c2.2,0,3.3,1.7,3.3,3.6
							c0,2.2-1.5,3.8-4,3.8c-1.8,0-3.2-1-3.3-2.9H-620.1z"/>
						<path fill="#FFFFFF" d="M-611.5-653.8c0.9,2.1,1.9,4.8,1.9,7.1c0,1.3-0.3,2.5-0.7,3.7c-0.4,1.4-0.9,2.5-1.1,3.2h-1.1
							c0.3-0.8,0.6-1.9,0.9-3.4c0.3-1.5,0.4-2.5,0.4-3.5c0-2.3-0.6-4.1-1.5-7.1H-611.5z"/>
					</g>
					<g>
						<path fill="#FFFFFF" d="M-617.6-611.7v-1l2.4-5.3h1.5v5.3h1v1h-1v2h-1v-2H-617.6z M-614.9-612.7v-4.3h0l-1.8,4.3H-614.9z"/>
						<path fill="#FFFFFF" d="M-612.3-611.7v-1l2.4-5.3h1.5v5.3h1v1h-1v2h-1v-2H-612.3z M-609.5-612.7v-4.3h0l-1.8,4.3H-609.5z"/>
						<path fill="#FFFFFF" d="M-607-611.7v-1l2.4-5.3h1.5v5.3h1v1h-1v2h-1v-2H-607z M-604.2-612.7v-4.3h0l-1.8,4.3H-604.2z"/>
						<path fill="#FFFFFF" d="M-601.7-611.7v-1l2.4-5.3h1.5v5.3h1v1h-1v2h-1v-2H-601.7z M-598.9-612.7v-4.3h0l-1.8,4.3H-598.9z"/>
						<path fill="#FFFFFF" d="M-591.7-613.8c0,2.2,0,4.3-2.2,4.3c-1.2,0-2.1-0.9-2.1-2.2h1.1c0,0.6,0.2,1.2,0.9,1.2
							c1.1,0,1.1-1.2,1.1-3.3h0c-0.3,0.6-0.8,0.8-1.4,0.8c-0.7,0-1.9-0.3-1.9-2.6c0-1.9,1.1-2.6,2.2-2.6
							C-591.7-618.1-591.7-616-591.7-613.8z M-595.1-615.6c0,0.8,0.2,1.7,1.1,1.7c1,0,1.1-0.9,1.1-1.7c0-0.8-0.2-1.7-1.1-1.7
							S-595.1-616.4-595.1-615.6z"/>
					</g>
				</g>
			</g>
		</g>
	</g>
</g>
<g id="text" display="none">
	
		<rect id="frontbox" x="-412.5" y="-825" display="inline" fill="none" stroke="#000000" stroke-miterlimit="10" width="1650" height="1275"/>
	<g id="align" display="inline">
	</g>
</g>
<g id="crop" display="none">
	<g id="front" display="inline">
		<g>
			<line fill="none" stroke="#939598" stroke-miterlimit="10" x1="-384.4" y1="0" x2="384.4" y2="0"/>
			<line fill="none" stroke="#939598" stroke-miterlimit="10" x1="-384.4" y1="75" x2="384.4" y2="75"/>
			<line fill="none" stroke="#939598" stroke-miterlimit="10" x1="0" y1="-9.4" x2="0" y2="159.4"/>
			<line fill="none" stroke="#939598" stroke-miterlimit="10" x1="75" y1="-9.4" x2="75" y2="159.4"/>
		</g>
	</g>
</g>
<g id="guides" display="none">
</g>
</svg>
