<?xml version="1.0" encoding="utf-8"?>
<!-- Generator: Adobe Illustrator 26.0.3, SVG Export Plug-In . SVG Version: 6.00 Build 0)  -->
<svg version="1.2" baseProfile="tiny" xmlns="http://www.w3.org/2000/svg" xmlns:xlink="http://www.w3.org/1999/xlink" x="0px"
	 y="0px" viewBox="0 0 75 75" overflow="visible" xml:space="preserve">
<g id="svg">
	<g>
		<g id="cs_layer_CNA_0002_00000023283088047694392320000015410210321053132443_">
			<g id="g169366_00000060018564281457370690000011209304467157080227_">
			</g>
			<g id="BR_BR_STFFYEO_-_8-10_279_00000159459471794003310730000011704948861050616198_" transform="translate(337.5,825)">
				<g id="g171242_00000096032914805723510000000002448495678991148212_" transform="translate(-450,-1500)">
					
						<rect id="rect171240_00000149382556343708318820000000269719982144677551_" x="112.5" y="675" fill="#ED2224" width="75" height="75"/>
				</g>
				<g id="g171259_00000082361548146591640640000018279352586744421005_" transform="translate(229.688,-150)">
					<g>
						<path fill="#FFFFFF" d="M-501.5-655.4v17H-528v-17H-501.5z M-503-654h-23.6v14.2h23.6V-654z M-523.7-643.9
							c-0.8-0.8-1.2-1.9-1.2-3c0-2.3,1.9-4.2,4.2-4.2c0,0,0,0,0,0v0h11.8c0,0,0,0,0,0c2.3,0,4.2,2,4.2,4.3c0,2.3-1.9,4.2-4.2,4.2
							c0,0,0,0,0,0v0h-11.8c0,0,0,0,0,0c0,0,0,0,0,0C-521.8-642.7-522.9-643.1-523.7-643.9z M-523.5-646.9c0,0.8,0.3,1.5,0.8,2
							c0.5,0.5,1.2,0.9,2,0.9h11.8c0,0,0,0,0,0c1.5,0,2.8-1.3,2.8-2.8c0-1.6-1.2-2.9-2.8-2.9v0h-11.8
							C-522.2-649.7-523.5-648.5-523.5-646.9z"/>
					</g>
					<g>
						<path fill="#FFFFFF" d="M-552.3-625.6v0.4c0,1.8,1.1,2.3,2.2,2.3c1.3,0,2.3-0.6,2.3-2.1c0-2.9-5.8-2.6-5.8-6.5
							c0-2.3,1.6-3.5,3.8-3.5c2.4,0,3.7,1.2,3.6,3.8h-1.7c0-1.4-0.4-2.4-2-2.4c-1,0-2,0.5-2,1.9c0,2.9,5.8,2.4,5.8,6.6
							c0,2.7-1.9,3.6-4,3.6c-3.8,0-3.8-2.9-3.8-4.1H-552.3z"/>
						<path fill="#FFFFFF" d="M-543.6-630.8v-1.7l1.5-0.7v2.4h2v1.1h-2v5.6c0,0.6,0,1.3,1.4,1.3c0.1,0,0.3,0,0.7-0.1v1.1
							c-0.5,0-1,0.1-1.5,0.1c-1.4,0-2-0.6-2-1.6v-6.5h-1.5v-1.1H-543.6z"/>
						<path fill="#FFFFFF" d="M-538.5-630.8v-1.8c0-1.8,1.3-2.2,2.6-2.2c0.3,0,0.5,0,0.7,0.1v1.1c-1.6-0.1-1.8,0.6-1.8,1.3v1.5h1.8
							v1.1h-1.8v8h-1.5v-8h-1.4v-1.1H-538.5z"/>
						<path fill="#FFFFFF" d="M-533.5-630.8v-1.8c0-1.8,1.3-2.2,2.6-2.2c0.3,0,0.5,0,0.7,0.1v1.1c-1.6-0.1-1.8,0.6-1.8,1.3v1.5h1.8
							v1.1h-1.8v8h-1.5v-8h-1.4v-1.1H-533.5z"/>
						<path fill="#FFFFFF" d="M-522.9-634.7h1.7l-3.5,8v5h-1.7v-5l-3.5-8h1.9l2.5,6.3L-522.9-634.7z"/>
						<path fill="#FFFFFF" d="M-519.6-625.8c0,2.5,0.7,3,1.8,3c1,0,1.5-0.8,1.6-1.7h1.6c0,2-1.3,2.9-3.2,2.9c-1.9,0-3.5-0.6-3.5-4.6
							c0-2.7,0.3-4.9,3.5-4.9c2.6,0,3.2,1.4,3.2,4.4v0.8H-519.6z M-516-626.9c0-2.6-0.7-3-1.8-3c-0.9,0-1.7,0.5-1.7,3H-516z"/>
						<path fill="#FFFFFF" d="M-512.3-626.2c0-2.7,0.3-4.9,3.5-4.9s3.5,2.2,3.5,4.9c0,4-1.5,4.6-3.5,4.6
							C-510.7-621.6-512.3-622.1-512.3-626.2z M-506.9-626.8c0-2.5-0.8-3-1.9-3s-1.9,0.5-1.9,3c0,3,0.4,4,1.9,4
							C-507.3-622.8-506.9-623.8-506.9-626.8z"/>
					</g>
					<g>
						<path fill="#FFFFFF" d="M-517.3-665.7h1v7.2h-1V-665.7z"/>
						<path fill="#FFFFFF" d="M-514.6-665.7h1v7.2h-1V-665.7z"/>
					</g>
					<g>
						<path fill="#FFFFFF" d="M-538-651.1c-0.7,0.6-1.8,1.2-2.6,1.6v-1.6c1-0.5,2.1-1.2,2.7-1.7h1.4v11.1h-1.5V-651.1z"/>
					</g>
					<g>
						<path fill="#FFFFFF" d="M-542.6-611.7v-1l2.4-5.3h1.5v5.3h1v1h-1v2h-1v-2H-542.6z M-539.9-612.7v-4.3h0l-1.8,4.3H-539.9z"/>
						<path fill="#FFFFFF" d="M-537.3-611.7v-1l2.4-5.3h1.5v5.3h1v1h-1v2h-1v-2H-537.3z M-534.5-612.7v-4.3h0l-1.8,4.3H-534.5z"/>
						<path fill="#FFFFFF" d="M-532-611.7v-1l2.4-5.3h1.5v5.3h1v1h-1v2h-1v-2H-532z M-529.2-612.7v-4.3h0l-1.8,4.3H-529.2z"/>
						<path fill="#FFFFFF" d="M-523.5-609.7h-1.1v-7.1l-1.2,0.8v-1.1c0.3-0.1,1.1-0.7,1.4-1h0.9V-609.7z"/>
						<path fill="#FFFFFF" d="M-518.3-614.1c1.2,0.1,1.5,1.1,1.5,2.2c0,1.5-0.8,2.4-2.2,2.4s-2.2-0.9-2.2-2.4c0-1.1,0.3-2,1.5-2.2v0
							c-1-0.2-1.5-1-1.5-2c0-1.3,0.8-2.1,2.1-2.1c1.3,0,2.1,0.8,2.1,2.1C-516.8-615.1-517.3-614.3-518.3-614.1L-518.3-614.1z
							 M-517.9-611.9c0-0.7-0.1-1.7-1.1-1.7s-1.1,1-1.1,1.7c0,0.7,0.3,1.5,1.1,1.5C-518.1-610.4-517.9-611.2-517.9-611.9z
							 M-517.9-616.1c0-0.6-0.3-1.2-1-1.2c-0.7,0-1,0.6-1,1.2c0,0.6,0.2,1.5,1,1.5C-518.1-614.6-517.9-615.5-517.9-616.1z"/>
					</g>
				</g>
			</g>
			<g id="BR_BR_WKYEO_-_9-10_280_00000160156308082777642420000017499646073784759992_" transform="translate(412.5,825)">
				<g id="g171264_00000144299121514850620010000002709540494943881601_" transform="translate(-450,-1500)">
					
						<rect id="rect171262_00000083074290592499518480000006465640608275448229_" x="112.5" y="675" fill="#ED2224" width="75" height="75"/>
				</g>
			</g>
		</g>
	</g>
</g>
<g id="text" display="none">
	
		<rect id="frontbox" x="-337.5" y="-825" display="inline" fill="none" stroke="#000000" stroke-miterlimit="10" width="1650" height="1275"/>
	<g id="align" display="inline">
	</g>
</g>
<g id="crop" display="none">
	<g id="front" display="inline">
		<g>
			<line fill="none" stroke="#939598" stroke-miterlimit="10" x1="-309.4" y1="0" x2="459.4" y2="0"/>
			<line fill="none" stroke="#939598" stroke-miterlimit="10" x1="-309.4" y1="75" x2="459.4" y2="75"/>
			<line fill="none" stroke="#939598" stroke-miterlimit="10" x1="0" y1="-9.4" x2="0" y2="159.4"/>
			<line fill="none" stroke="#939598" stroke-miterlimit="10" x1="75" y1="-9.4" x2="75" y2="159.4"/>
		</g>
	</g>
</g>
<g id="guides" display="none">
</g>
</svg>
