<?xml version="1.0" encoding="utf-8"?>
<!-- Generator: Adobe Illustrator 26.0.3, SVG Export Plug-In . SVG Version: 6.00 Build 0)  -->
<svg version="1.2" baseProfile="tiny" xmlns="http://www.w3.org/2000/svg" xmlns:xlink="http://www.w3.org/1999/xlink" x="0px"
	 y="0px" viewBox="0 0 75 75" overflow="visible" xml:space="preserve">
<g id="svg">
	<g>
		<g id="cs_layer_CNA_0002_00000023283088047694392320000015410210321053132443_">
			<g id="g169366_00000060018564281457370690000011209304467157080227_">
			</g>
			<g id="IT_IT_233LGN_-_1CCNN_283_00000116926514472226835680000003683004296463297460_" transform="translate(1012.5,75)">
				<g id="g171334_00000030456225069491124020000008423642625016162458_" transform="translate(-450,-1500)">
					
						<rect id="rect171332_00000128450225046936238570000008563399317590064513_" x="-562.5" y="1425" fill="#010101" width="75" height="75"/>
				</g>
				<g id="g171353_00000106862358891844927110000018016888556842399166_" transform="translate(229.688,-150)">
					
						<rect id="rect171336_00000136369220991043655420000004593463348417028502_" x="-1242.2" y="93.8" fill="#8C471F" width="75" height="18.8"/>
					<g>
						<path fill="#FDD700" d="M-1176.5,94.6v17h-26.5v-17H-1176.5z M-1201.6,96.8v12.5l10.4-6.3L-1201.6,96.8z M-1179.3,96h-20.9
							l10.4,6.3L-1179.3,96z M-1200.2,110.2h20.9l-10.4-6.3L-1200.2,110.2z M-1188.4,103.1l10.4,6.3V96.8L-1188.4,103.1z"/>
					</g>
					<g>
						<path fill="#FDD700" d="M-1228.9,128.3v-1.4c3.7-5.1,4.7-6,4.7-8.2c0-1-0.5-1.7-1.5-1.7c-1.2,0-1.5,1-1.5,2h-1.7
							c-0.1-2.1,0.9-3.4,3-3.4c2.3,0,3.3,1,3.3,3.3c0,2.8-1.4,3.7-4.6,8h5v1.4H-1228.9z"/>
						<path fill="#FDD700" d="M-1218.6,121c1.5,0.1,2.6-0.5,2.6-2.1c0-1.1-0.5-2-1.7-2c-1.4,0-1.6,1-1.6,2h-1.7
							c-0.1-2.1,0.9-3.4,3.2-3.4c2.1,0,3.4,1.1,3.4,3.2c0,2.4-1.7,2.7-2.5,2.9v0c2,0.3,2.6,1.3,2.6,3.2c0,2.4-1.3,3.6-3.7,3.6
							c-3.5,0-3.2-3-3.2-3.7h1.7c0,1.2,0.2,2.3,1.7,2.3c1.5,0,1.9-0.9,1.9-2.3c0-2-0.8-2.4-2.7-2.4V121z"/>
						<path fill="#FDD700" d="M-1210.6,121c1.5,0.1,2.6-0.5,2.6-2.1c0-1.1-0.5-2-1.7-2c-1.4,0-1.6,1-1.6,2h-1.7
							c-0.1-2.1,0.9-3.4,3.2-3.4c2.1,0,3.4,1.1,3.4,3.2c0,2.4-1.7,2.7-2.5,2.9v0c2,0.3,2.6,1.3,2.6,3.2c0,2.4-1.3,3.6-3.7,3.6
							c-3.5,0-3.2-3-3.2-3.7h1.7c0,1.2,0.2,2.3,1.7,2.3c1.5,0,1.9-0.9,1.9-2.3c0-2-0.8-2.4-2.7-2.4V121z"/>
						<path fill="#FDD700" d="M-1204.2,128.3v-13h1.7v11.6h4.8v1.4H-1204.2z"/>
						<path fill="#FDD700" d="M-1191.6,119.2h1.5v10c0,2-1.4,2.5-3.3,2.5c-1.5,0-2.9-0.8-2.8-2.4h1.7c0,0.8,0.6,1.3,1.4,1.3
							c1,0,1.6-0.6,1.6-1.6v-1.9h-0.1c-0.4,0.7-1.2,1.1-2,1.1c-2.5,0-3-2.1-3-4.8c0-4.2,2.1-4.4,2.8-4.4c1,0,1.7,0.4,2.1,1.3h0
							V119.2z M-1193.3,120.2c-1.7,0-1.7,2-1.7,3.2c0,2.9,0.7,3.6,1.8,3.6c1.8,0,1.7-2.1,1.7-3.4
							C-1191.6,122.3-1191.5,120.2-1193.3,120.2z"/>
						<path fill="#FDD700" d="M-1182.5,128.3v-6.3c0-1-0.3-1.8-1.6-1.8c-1.6,0-1.9,1.4-1.9,2.7v5.4h-1.5V121c0-0.6,0-1.3-0.1-1.9
							h1.6v1.2h0.1c0.6-1,1.3-1.4,2.4-1.4c1.9,0,2.4,1.2,2.4,3v6.3H-1182.5z"/>
					</g>
					<g>
						<path fill="#FDD700" d="M-1192.3,84.3l1.9,2.8l1.9-2.8h1.2l-2.6,3.5l2.7,3.8h-1.3l-2.1-3.1l-2.2,3.1h-1.2l2.8-3.8l-2.5-3.4
							H-1192.3z"/>
					</g>
					<g>
						<path fill="#FDD700" d="M-1224.9,110.2c-0.9-2.1-1.9-4.8-1.9-7.1c0-1.3,0.3-2.5,0.7-3.7c0.4-1.4,0.9-2.5,1.1-3.2h1.1
							c-0.3,0.8-0.6,1.9-0.9,3.4c-0.3,1.5-0.4,2.5-0.4,3.5c0,2.3,0.6,4.1,1.5,7.2H-1224.9z"/>
						<path fill="#FDD700" d="M-1221.8,106.8l2.9-2.8c0.6-0.6,1.2-1.2,1.7-1.9c0.6-0.9,0.8-1.4,0.8-2c0-0.5-0.2-1.8-1.8-1.8
							c-1.8,0-1.8,1.5-1.8,1.9h-1.7c0-0.5,0.1-1.6,1-2.4c0.8-0.7,1.7-0.8,2.4-0.8c1.7,0,3.4,0.9,3.4,3.2c0,0.7,0,1.2-1.2,2.8
							c-0.3,0.4-1.7,1.9-2,2.2l-1.9,1.8h5.3v1.3h-7V106.8z"/>
						<path fill="#FDD700" d="M-1211.5,96.2c0.9,2.1,1.9,4.8,1.9,7.1c0,1.3-0.3,2.5-0.7,3.7c-0.4,1.4-0.9,2.5-1.1,3.2h-1.1
							c0.3-0.8,0.6-1.9,0.9-3.4c0.3-1.5,0.4-2.5,0.4-3.5c0-2.3-0.6-4.1-1.5-7.1H-1211.5z"/>
					</g>
					<g>
						<path fill="#FDD700" d="M-1219.8,140.3h-1.1v-7.1l-1.2,0.8V133c0.3-0.1,1.1-0.7,1.4-1h0.9V140.3z"/>
						<path fill="#FDD700" d="M-1210.5,134.1c0-0.5,0-1-0.3-1.3c-0.2-0.3-0.7-0.4-1-0.4c-0.9,0-1.3,0.6-1.3,0.7
							c0,0.1-0.3,0.3-0.3,1.8v2.3c0,2.1,0.7,2.4,1.5,2.4c0.3,0,1.4-0.1,1.4-1.8h1.1c0,2.7-1.9,2.7-2.4,2.7c-1.1,0-2.7-0.1-2.7-3.4
							v-2.4c0-2.4,1.1-3.1,2.8-3.1c1.7,0,2.4,0.9,2.3,2.6H-1210.5z"/>
						<path fill="#FDD700" d="M-1203.8,134.1c0-0.5,0-1-0.3-1.3c-0.2-0.3-0.7-0.4-1-0.4c-0.9,0-1.3,0.6-1.3,0.7
							c0,0.1-0.3,0.3-0.3,1.8v2.3c0,2.1,0.7,2.4,1.5,2.4c0.3,0,1.4-0.1,1.4-1.8h1.1c0,2.7-1.9,2.7-2.4,2.7c-1.1,0-2.7-0.1-2.7-3.4
							v-2.4c0-2.4,1.1-3.1,2.8-3.1c1.7,0,2.4,0.9,2.3,2.6H-1203.8z"/>
						<path fill="#FDD700" d="M-1195,131.7v8.7h-1.5l-3.4-7.5h0v7.5h-1v-8.7h1.6l3.4,7.4h0v-7.4H-1195z"/>
						<path fill="#FDD700" d="M-1187,131.7v8.7h-1.5l-3.4-7.5h0v7.5h-1v-8.7h1.6l3.4,7.4h0v-7.4H-1187z"/>
					</g>
				</g>
			</g>
			<g id="IT_IT_2_CCNN_-__2CN__284_00000000214853122181915980000007611347274935215269_" transform="translate(1087.5,75)">
				<g id="g171358_00000146483229087633189730000008138396326588550047_" transform="translate(-450,-1500)">
					
						<rect id="rect171356_00000156546244600607995580000008928219649289343413_" x="-562.5" y="1425" fill="#010101" width="75" height="75"/>
				</g>
			</g>
			<g id="IT_IT_70_-_240-4CN_293_00000161607821482856943850000004261059952232688020_" transform="translate(1012.5,150)">
				<g id="g171574_00000161630398929871913940000001720591761339053734_" transform="translate(-450,-1500)">
					
						<rect id="rect171572_00000067924541925821103310000004946206599446044860_" x="-562.5" y="1425" fill="#010101" width="75" height="75"/>
				</g>
			</g>
			<g id="IT_IT_119_-_240-4CN_294_00000098188239097337273820000014453329631511544199_" transform="translate(1087.5,150)">
				<g id="g171596_00000146490846789383553760000001331226743501786802_" transform="translate(-450,-1500)">
					
						<rect id="rect171594_00000033339027599030037830000005845587099980701859_" x="-562.5" y="1425" fill="#010101" width="75" height="75"/>
				</g>
			</g>
		</g>
	</g>
</g>
<g id="text" display="none">
	
		<rect id="frontbox" x="-1012.5" y="-75" display="inline" fill="none" stroke="#000000" stroke-miterlimit="10" width="1650" height="1275"/>
	<g id="align" display="inline">
	</g>
</g>
<g id="crop" display="none">
	<g id="front" display="inline">
		<line fill="none" stroke="#939598" stroke-miterlimit="10" x1="-159.4" y1="0" x2="609.4" y2="0"/>
		<line fill="none" stroke="#939598" stroke-miterlimit="10" x1="-159.4" y1="75" x2="609.4" y2="75"/>
		<line fill="none" stroke="#939598" stroke-miterlimit="10" x1="0" y1="-9.4" x2="0" y2="159.4"/>
		<line fill="none" stroke="#939598" stroke-miterlimit="10" x1="75" y1="-9.4" x2="75" y2="159.4"/>
	</g>
</g>
<g id="guides" display="none">
</g>
</svg>
