<?xml version="1.0" encoding="utf-8"?>
<!-- Generator: Adobe Illustrator 26.0.3, SVG Export Plug-In . SVG Version: 6.00 Build 0)  -->
<svg version="1.2" baseProfile="tiny" xmlns="http://www.w3.org/2000/svg" xmlns:xlink="http://www.w3.org/1999/xlink" x="0px"
	 y="0px" viewBox="0 0 75 75" overflow="visible" xml:space="preserve">
<g id="svg">
	<g>
		<g id="cs_layer_CNA_0002_00000023283088047694392320000015410210321053132443_">
			<g id="g169366_00000060018564281457370690000011209304467157080227_">
			</g>
			<g id="IT_IT_238LGN_-_2_CCNN_285_00000116204158981046766320000005644287882035531410_" transform="translate(1162.5,75)">
				<g id="g171382_00000055675707356667709250000005916666595259103676_" transform="translate(-450,-1500)">
					
						<rect id="rect171380_00000183211252839486938960000016727838553373410732_" x="-712.5" y="1425" fill="#010101" width="75" height="75"/>
				</g>
				<g id="g171401_00000154420625612836180890000003076797561609073308_" transform="translate(229.688,-150)">
					
						<rect id="rect171384_00000044900528263960869240000011331262769866687910_" x="-1392.2" y="93.8" fill="#8C471F" width="75" height="18.8"/>
					<g>
						<path fill="#FDD700" d="M-1326.5,94.6v17h-26.5v-17H-1326.5z M-1351.6,96.8v12.5l10.4-6.3L-1351.6,96.8z M-1329.3,96h-20.9
							l10.4,6.3L-1329.3,96z M-1350.2,110.2h20.9l-10.4-6.3L-1350.2,110.2z M-1338.4,103.1l10.4,6.3V96.8L-1338.4,103.1z"/>
					</g>
					<g>
						<path fill="#FDD700" d="M-1378.9,128.3v-1.4c3.7-5.1,4.7-6,4.7-8.2c0-1-0.5-1.7-1.5-1.7c-1.2,0-1.5,1-1.5,2h-1.7
							c-0.1-2.1,0.9-3.4,3-3.4c2.3,0,3.3,1,3.3,3.3c0,2.8-1.4,3.7-4.6,8h5v1.4H-1378.9z"/>
						<path fill="#FDD700" d="M-1368.6,121c1.5,0.1,2.6-0.5,2.6-2.1c0-1.1-0.5-2-1.7-2c-1.4,0-1.6,1-1.6,2h-1.7
							c-0.1-2.1,0.9-3.4,3.2-3.4c2.1,0,3.4,1.1,3.4,3.2c0,2.4-1.7,2.7-2.5,2.9v0c2,0.3,2.6,1.3,2.6,3.2c0,2.4-1.3,3.6-3.7,3.6
							c-3.5,0-3.2-3-3.2-3.7h1.7c0,1.2,0.2,2.3,1.7,2.3c1.5,0,1.9-0.9,1.9-2.3c0-2-0.8-2.4-2.7-2.4V121z"/>
						<path fill="#FDD700" d="M-1358.7,121.6c1.8,0.2,2.3,1.6,2.3,3.2c0,2.3-1.2,3.6-3.3,3.6c-2.2,0-3.3-1.4-3.3-3.6
							c0-1.6,0.5-3.1,2.3-3.2v0c-1.5-0.3-2.2-1.5-2.2-2.9c0-2,1.2-3.1,3.2-3.1s3.2,1.2,3.2,3.1
							C-1356.5,120.1-1357.2,121.3-1358.7,121.6L-1358.7,121.6z M-1358,124.9c0-1.1-0.1-2.6-1.7-2.6s-1.7,1.4-1.7,2.6
							c0,1.1,0.4,2.2,1.7,2.2S-1358,126-1358,124.9z M-1358.1,118.6c0-0.9-0.5-1.9-1.5-1.9s-1.5,0.9-1.5,1.9c0,0.9,0.3,2.3,1.5,2.3
							S-1358.1,119.6-1358.1,118.6z"/>
						<path fill="#FDD700" d="M-1354.2,128.3v-13h1.7v11.6h4.8v1.4H-1354.2z"/>
						<path fill="#FDD700" d="M-1341.6,119.2h1.5v10c0,2-1.4,2.5-3.3,2.5c-1.5,0-2.9-0.8-2.8-2.4h1.7c0,0.8,0.6,1.3,1.4,1.3
							c1,0,1.6-0.6,1.6-1.6v-1.9h-0.1c-0.4,0.7-1.2,1.1-2,1.1c-2.5,0-3-2.1-3-4.8c0-4.2,2.1-4.4,2.8-4.4c1,0,1.7,0.4,2.1,1.3h0
							V119.2z M-1343.3,120.2c-1.7,0-1.7,2-1.7,3.2c0,2.9,0.7,3.6,1.8,3.6c1.8,0,1.7-2.1,1.7-3.4
							C-1341.6,122.3-1341.5,120.2-1343.3,120.2z"/>
						<path fill="#FDD700" d="M-1332.5,128.3v-6.3c0-1-0.3-1.8-1.6-1.8c-1.6,0-1.9,1.4-1.9,2.7v5.4h-1.5V121c0-0.6,0-1.3-0.1-1.9
							h1.6v1.2h0.1c0.6-1,1.3-1.4,2.4-1.4c1.9,0,2.4,1.2,2.4,3v6.3H-1332.5z"/>
					</g>
					<g>
						<path fill="#FDD700" d="M-1342.3,84.3l1.9,2.8l1.9-2.8h1.2l-2.6,3.5l2.7,3.8h-1.3l-2.1-3.1l-2.2,3.1h-1.2l2.8-3.8l-2.5-3.4
							H-1342.3z"/>
					</g>
					<g>
						<path fill="#FDD700" d="M-1374.9,110.2c-0.9-2.1-1.9-4.8-1.9-7.1c0-1.3,0.3-2.5,0.7-3.7c0.4-1.4,0.9-2.5,1.1-3.2h1.1
							c-0.3,0.8-0.6,1.9-0.9,3.4c-0.3,1.5-0.4,2.5-0.4,3.5c0,2.3,0.6,4.1,1.5,7.2H-1374.9z"/>
						<path fill="#FDD700" d="M-1371.8,106.8l2.9-2.8c0.6-0.6,1.2-1.2,1.7-1.9c0.6-0.9,0.8-1.4,0.8-2c0-0.5-0.2-1.8-1.8-1.8
							c-1.8,0-1.8,1.5-1.8,1.9h-1.7c0-0.5,0.1-1.6,1-2.4c0.8-0.7,1.7-0.8,2.4-0.8c1.7,0,3.4,0.9,3.4,3.2c0,0.7,0,1.2-1.2,2.8
							c-0.3,0.4-1.7,1.9-2,2.2l-1.9,1.8h5.3v1.3h-7V106.8z"/>
						<path fill="#FDD700" d="M-1361.5,96.2c0.9,2.1,1.9,4.8,1.9,7.1c0,1.3-0.3,2.5-0.7,3.7c-0.4,1.4-0.9,2.5-1.1,3.2h-1.1
							c0.3-0.8,0.6-1.9,0.9-3.4c0.3-1.5,0.4-2.5,0.4-3.5c0-2.3-0.6-4.1-1.5-7.1H-1361.5z"/>
					</g>
					<g>
						<path fill="#FDD700" d="M-1372.8,140.3v-1c2.4-3.4,3.2-4,3.2-5.5c0-0.7-0.3-1.1-1-1.1c-0.8,0-1,0.7-1,1.4h-1.1
							c-0.1-1.4,0.6-2.3,2-2.3c1.5,0,2.2,0.7,2.2,2.2c0,1.9-0.9,2.5-3.1,5.3h3.3v1H-1372.8z"/>
						<path fill="#FDD700" d="M-1360.5,134.1c0-0.5,0-1-0.3-1.3c-0.2-0.3-0.7-0.4-1-0.4c-0.9,0-1.3,0.6-1.3,0.7
							c0,0.1-0.3,0.3-0.3,1.8v2.3c0,2.1,0.7,2.4,1.5,2.4c0.3,0,1.4-0.1,1.4-1.8h1.1c0,2.7-1.9,2.7-2.4,2.7c-1.1,0-2.7-0.1-2.7-3.4
							v-2.4c0-2.4,1.1-3.1,2.8-3.1c1.7,0,2.4,0.9,2.3,2.6H-1360.5z"/>
						<path fill="#FDD700" d="M-1353.8,134.1c0-0.5,0-1-0.3-1.3c-0.2-0.3-0.7-0.4-1-0.4c-0.9,0-1.3,0.6-1.3,0.7
							c0,0.1-0.3,0.3-0.3,1.8v2.3c0,2.1,0.7,2.4,1.5,2.4c0.3,0,1.4-0.1,1.4-1.8h1.1c0,2.7-1.9,2.7-2.4,2.7c-1.1,0-2.7-0.1-2.7-3.4
							v-2.4c0-2.4,1.1-3.1,2.8-3.1c1.7,0,2.4,0.9,2.3,2.6H-1353.8z"/>
						<path fill="#FDD700" d="M-1345,131.7v8.7h-1.5l-3.4-7.5h0v7.5h-1v-8.7h1.6l3.4,7.4h0v-7.4H-1345z"/>
						<path fill="#FDD700" d="M-1337,131.7v8.7h-1.5l-3.4-7.5h0v7.5h-1v-8.7h1.6l3.4,7.4h0v-7.4H-1337z"/>
					</g>
				</g>
			</g>
			<g id="IT_IT_231LGN_-_2_CCNN_286_00000126293005572896877060000005350592742038648229_" transform="translate(1237.5,75)">
				<g id="g171406_00000121247823530580710960000009020524573854231694_" transform="translate(-450,-1500)">
					
						<rect id="rect171404_00000106851424493651246350000016948340882404335765_" x="-712.5" y="1425" fill="#010101" width="75" height="75"/>
				</g>
			</g>
			<g id="IT_IT_176_-_240-4CN_295_00000016064803748101488500000008003355996341989037_" transform="translate(1162.5,150)">
				<g id="g171618_00000011003719182900459100000005719678090916124832_" transform="translate(-450,-1500)">
					
						<rect id="rect171616_00000152227905091803476320000012905165340974739121_" x="-712.5" y="1425" fill="#010101" width="75" height="75"/>
				</g>
			</g>
			<g id="IT_IT_3_-_270-4CN_296_00000102538342721414447340000016029138366819346333_" transform="translate(1237.5,150)">
				<g id="g171640_00000035493975353244331170000010364336401802549175_" transform="translate(-450,-1500)">
					
						<rect id="rect171638_00000024689708283194313180000006440221957149555104_" x="-712.5" y="1425" fill="#010101" width="75" height="75"/>
				</g>
			</g>
		</g>
	</g>
</g>
<g id="text" display="none">
	
		<rect id="frontbox" x="-1162.5" y="-75" display="inline" fill="none" stroke="#000000" stroke-miterlimit="10" width="1650" height="1275"/>
	<g id="align" display="inline">
	</g>
</g>
<g id="crop" display="none">
	<g id="front" display="inline">
		<line fill="none" stroke="#939598" stroke-miterlimit="10" x1="-309.4" y1="0" x2="459.4" y2="0"/>
		<line fill="none" stroke="#939598" stroke-miterlimit="10" x1="-309.4" y1="75" x2="459.4" y2="75"/>
		<line fill="none" stroke="#939598" stroke-miterlimit="10" x1="0" y1="-9.4" x2="0" y2="159.4"/>
		<line fill="none" stroke="#939598" stroke-miterlimit="10" x1="75" y1="-9.4" x2="75" y2="159.4"/>
	</g>
</g>
<g id="guides" display="none">
</g>
</svg>
