<?xml version="1.0" encoding="utf-8"?>
<!-- Generator: Adobe Illustrator 26.0.3, SVG Export Plug-In . SVG Version: 6.00 Build 0)  -->
<svg version="1.2" baseProfile="tiny" xmlns="http://www.w3.org/2000/svg" xmlns:xlink="http://www.w3.org/1999/xlink" x="0px"
	 y="0px" viewBox="0 0 75 75" overflow="visible" xml:space="preserve">
<g id="svg">
	<g>
		<g id="cs_layer_CNA_0002_00000023283088047694392320000015410210321053132443_">
			<g id="g169366_00000060018564281457370690000011209304467157080227_">
			</g>
			<g id="IT_IT_219LGN_-_1_CCNN_282_00000155869238257660581110000012307066256555546022_" transform="translate(937.5,75)">
				<g id="g171310_00000163790959248626095550000007648444858663084705_" transform="translate(-450,-1500)">
					
						<rect id="rect171308_00000163790878555682515110000017792115402043333276_" x="-487.5" y="1425" fill="#010101" width="75" height="75"/>
				</g>
				<g id="g171329_00000072991127018035209820000000811573375260354179_" transform="translate(229.688,-150)">
					
						<rect id="rect171312_00000163061365193470160020000012026343718817332103_" x="-1167.2" y="93.8" fill="#8C471F" width="75" height="18.8"/>
					<g>
						<path fill="#FDD700" d="M-1101.5,94.6v17h-26.5v-17H-1101.5z M-1126.6,96.8v12.5l10.4-6.3L-1126.6,96.8z M-1104.3,96h-20.9
							l10.4,6.3L-1104.3,96z M-1125.2,110.2h20.9l-10.4-6.3L-1125.2,110.2z M-1113.4,103.1l10.4,6.3V96.8L-1113.4,103.1z"/>
					</g>
					<g>
						<path fill="#FDD700" d="M-1153.9,128.3v-1.4c3.7-5.1,4.7-6,4.7-8.2c0-1-0.5-1.7-1.5-1.7c-1.2,0-1.5,1-1.5,2h-1.7
							c-0.1-2.1,0.9-3.4,3-3.4c2.3,0,3.3,1,3.3,3.3c0,2.8-1.4,3.7-4.6,8h5v1.4H-1153.9z"/>
						<path fill="#FDD700" d="M-1141.5,128.3h-1.7v-10.7l-1.9,1.3v-1.6c0.4-0.2,1.6-1.1,2.1-1.5h1.4V128.3z"/>
						<path fill="#FDD700" d="M-1131.3,122.1c0,3.3,0,6.5-3.4,6.5c-1.9,0-3.1-1.3-3.1-3.3h1.7c0,0.9,0.4,1.9,1.4,1.9
							c1.6,0,1.7-1.8,1.7-5h0c-0.4,0.9-1.2,1.2-2.1,1.2c-1,0-2.9-0.5-2.9-3.9c0-2.8,1.7-3.8,3.3-3.8
							C-1131.3,115.6-1131.3,118.7-1131.3,122.1z M-1136.4,119.4c0,1.2,0.2,2.6,1.7,2.6s1.7-1.4,1.7-2.6c0-1.1-0.3-2.6-1.7-2.6
							C-1136.1,116.8-1136.4,118.2-1136.4,119.4z"/>
						<path fill="#FDD700" d="M-1129.2,128.3v-13h1.7v11.6h4.8v1.4H-1129.2z"/>
						<path fill="#FDD700" d="M-1116.6,119.2h1.5v10c0,2-1.4,2.5-3.3,2.5c-1.5,0-2.9-0.8-2.8-2.4h1.7c0,0.8,0.6,1.3,1.4,1.3
							c1,0,1.6-0.6,1.6-1.6v-1.9h-0.1c-0.4,0.7-1.2,1.1-2,1.1c-2.5,0-3-2.1-3-4.8c0-4.2,2.1-4.4,2.8-4.4c1,0,1.7,0.4,2.1,1.3h0
							V119.2z M-1118.3,120.2c-1.7,0-1.7,2-1.7,3.2c0,2.9,0.7,3.6,1.8,3.6c1.8,0,1.7-2.1,1.7-3.4
							C-1116.6,122.3-1116.5,120.2-1118.3,120.2z"/>
						<path fill="#FDD700" d="M-1107.5,128.3v-6.3c0-1-0.3-1.8-1.6-1.8c-1.6,0-1.9,1.4-1.9,2.7v5.4h-1.5V121c0-0.6,0-1.3-0.1-1.9
							h1.6v1.2h0.1c0.6-1,1.3-1.4,2.4-1.4c1.9,0,2.4,1.2,2.4,3v6.3H-1107.5z"/>
					</g>
					<g>
						<path fill="#FDD700" d="M-1117.3,84.3l1.9,2.8l1.9-2.8h1.2l-2.6,3.5l2.7,3.8h-1.3l-2.1-3.1l-2.2,3.1h-1.2l2.8-3.8l-2.5-3.4
							H-1117.3z"/>
					</g>
					<g>
						<path fill="#FDD700" d="M-1149.9,110.2c-0.9-2.1-1.9-4.8-1.9-7.1c0-1.3,0.3-2.5,0.7-3.7c0.4-1.4,0.9-2.5,1.1-3.2h1.1
							c-0.3,0.8-0.6,1.9-0.9,3.4c-0.3,1.5-0.4,2.5-0.4,3.5c0,2.3,0.6,4.1,1.5,7.2H-1149.9z"/>
						<path fill="#FDD700" d="M-1145.1,105.6c0,1.1,1,1.6,1.8,1.6c1.9,0,2.2-1.8,2.2-2.5c0-1.5-0.8-2.4-2.1-2.4
							c-0.6,0-1.2,0.2-1.5,0.6c-0.3,0.3-0.4,0.7-0.5,0.9h-1.5l0.3-6.6h6.2v1.3h-4.9l-0.2,3.6c0.3-0.3,1-1,2.3-1
							c2.2,0,3.3,1.7,3.3,3.6c0,2.2-1.5,3.8-4,3.8c-1.8,0-3.2-1-3.3-2.9H-1145.1z"/>
						<path fill="#FDD700" d="M-1136.5,96.2c0.9,2.1,1.9,4.8,1.9,7.1c0,1.3-0.3,2.5-0.7,3.7c-0.4,1.4-0.9,2.5-1.1,3.2h-1.1
							c0.3-0.8,0.6-1.9,0.9-3.4c0.3-1.5,0.4-2.5,0.4-3.5c0-2.3-0.6-4.1-1.5-7.1H-1136.5z"/>
					</g>
					<g>
						<path fill="#FDD700" d="M-1144.8,140.3h-1.1v-7.1l-1.2,0.8V133c0.3-0.1,1.1-0.7,1.4-1h0.9V140.3z"/>
						<path fill="#FDD700" d="M-1135.5,134.1c0-0.5,0-1-0.3-1.3c-0.2-0.3-0.7-0.4-1-0.4c-0.9,0-1.3,0.6-1.3,0.7
							c0,0.1-0.3,0.3-0.3,1.8v2.3c0,2.1,0.7,2.4,1.5,2.4c0.3,0,1.4-0.1,1.4-1.8h1.1c0,2.7-1.9,2.7-2.4,2.7c-1.1,0-2.7-0.1-2.7-3.4
							v-2.4c0-2.4,1.1-3.1,2.8-3.1c1.7,0,2.4,0.9,2.3,2.6H-1135.5z"/>
						<path fill="#FDD700" d="M-1128.8,134.1c0-0.5,0-1-0.3-1.3c-0.2-0.3-0.7-0.4-1-0.4c-0.9,0-1.3,0.6-1.3,0.7
							c0,0.1-0.3,0.3-0.3,1.8v2.3c0,2.1,0.7,2.4,1.5,2.4c0.3,0,1.4-0.1,1.4-1.8h1.1c0,2.7-1.9,2.7-2.4,2.7c-1.1,0-2.7-0.1-2.7-3.4
							v-2.4c0-2.4,1.1-3.1,2.8-3.1c1.7,0,2.4,0.9,2.3,2.6H-1128.8z"/>
						<path fill="#FDD700" d="M-1120,131.7v8.7h-1.5l-3.4-7.5h0v7.5h-1v-8.7h1.6l3.4,7.4h0v-7.4H-1120z"/>
						<path fill="#FDD700" d="M-1112,131.7v8.7h-1.5l-3.4-7.5h0v7.5h-1v-8.7h1.6l3.4,7.4h0v-7.4H-1112z"/>
					</g>
				</g>
			</g>
			<g id="IT_IT_233LGN_-_1CCNN_283_00000116926514472226835680000003683004296463297460_" transform="translate(1012.5,75)">
				<g id="g171334_00000030456225069491124020000008423642625016162458_" transform="translate(-450,-1500)">
					
						<rect id="rect171332_00000128450225046936238570000008563399317590064513_" x="-487.5" y="1425" fill="#010101" width="75" height="75"/>
				</g>
			</g>
			<g id="IT_IT_9CCNN_-_NONE_292_00000132798492269358231830000011343329071541680769_" transform="translate(937.5,150)">
				<g id="g171550_00000156552738038671736070000017148435983857133749_" transform="translate(-450,-1500)">
					
						<rect id="rect171548_00000106116987410963110340000010324523800098287254_" x="-487.5" y="1425" fill="#010101" width="75" height="75"/>
				</g>
			</g>
			<g id="IT_IT_70_-_240-4CN_293_00000161607821482856943850000004261059952232688020_" transform="translate(1012.5,150)">
				<g id="g171574_00000161630398929871913940000001720591761339053734_" transform="translate(-450,-1500)">
					
						<rect id="rect171572_00000067924541925821103310000004946206599446044860_" x="-487.5" y="1425" fill="#010101" width="75" height="75"/>
				</g>
			</g>
		</g>
	</g>
</g>
<g id="text" display="none">
	
		<rect id="frontbox" x="-937.5" y="-75" display="inline" fill="none" stroke="#000000" stroke-miterlimit="10" width="1650" height="1275"/>
	<g id="align" display="inline">
	</g>
</g>
<g id="crop" display="none">
	<g id="front" display="inline">
		<line fill="none" stroke="#939598" stroke-miterlimit="10" x1="-84.4" y1="0" x2="684.4" y2="0"/>
		<line fill="none" stroke="#939598" stroke-miterlimit="10" x1="-84.4" y1="75" x2="684.4" y2="75"/>
		<line fill="none" stroke="#939598" stroke-miterlimit="10" x1="0" y1="-9.4" x2="0" y2="159.4"/>
		<line fill="none" stroke="#939598" stroke-miterlimit="10" x1="75" y1="-9.4" x2="75" y2="159.4"/>
	</g>
</g>
<g id="guides" display="none">
</g>
</svg>
