<?xml version="1.0" encoding="utf-8"?>
<!-- Generator: Adobe Illustrator 26.0.3, SVG Export Plug-In . SVG Version: 6.00 Build 0)  -->
<svg version="1.2" baseProfile="tiny" xmlns="http://www.w3.org/2000/svg" xmlns:xlink="http://www.w3.org/1999/xlink" x="0px"
	 y="0px" viewBox="0 0 75 75" overflow="visible" xml:space="preserve">
<g id="svg">
	<g>
		<g id="cs_layer_CNA_0002_00000023283088047694392320000015410210321053132443_">
			<g id="g169366_00000060018564281457370690000011209304467157080227_">
			</g>
			<g id="IT_IT_4_CCNN_-__4CN__288_00000136378323755382811370000012533095609770339516_" transform="translate(1387.5,75)">
				<g id="g171454_00000028288064912753206540000016155751924478539452_" transform="translate(-450,-1500)">
					
						<rect id="rect171452_00000074432956912912406420000000239514188953228456_" x="-937.5" y="1425" fill="#010101" width="75" height="75"/>
				</g>
				<g id="g171473_00000138552554277126852140000007831139615863544453_" transform="translate(229.688,-150)">
					
						<rect id="rect171456_00000074415078008075973440000006447594031838010813_" x="-1617.2" y="93.8" fill="#8C471F" width="75" height="18.8"/>
					<g>
						<path fill="#FDD700" d="M-1551.5,94.6v17h-26.5v-17H-1551.5z M-1576.6,96.8v12.5l10.4-6.3L-1576.6,96.8z M-1554.3,96h-20.9
							l10.4,6.3L-1554.3,96z M-1575.2,110.2h20.9l-10.4-6.3L-1575.2,110.2z M-1563.4,103.1l10.4,6.3V96.8L-1563.4,103.1z"/>
					</g>
					<g>
						<path fill="#FDD700" d="M-1607.2,125.2v-1.4l3.5-8h2.2v8h1.5v1.4h-1.5v3h-1.5v-3H-1607.2z M-1603.1,123.8v-6.5h0l-2.7,6.5
							H-1603.1z"/>
						<path fill="#FDD700" d="M-1588.5,118.8c0-0.7,0-1.5-0.4-1.9s-1.1-0.6-1.5-0.6c-1.4,0-1.9,0.8-2,1c-0.1,0.1-0.4,0.5-0.4,2.7
							v3.5c0,3.2,1,3.6,2.3,3.6c0.5,0,2-0.2,2.1-2.7h1.7c0.1,4.1-2.8,4.1-3.7,4.1c-1.6,0-4.1-0.1-4.1-5.2v-3.7
							c0-3.7,1.6-4.7,4.2-4.7c2.6,0,3.6,1.3,3.4,3.9H-1588.5z"/>
						<path fill="#FDD700" d="M-1578.5,118.8c0-0.7,0-1.5-0.4-1.9c-0.3-0.4-1.1-0.6-1.5-0.6c-1.4,0-1.9,0.8-2,1
							c-0.1,0.1-0.4,0.5-0.4,2.7v3.5c0,3.2,1,3.6,2.3,3.6c0.5,0,2-0.2,2.1-2.7h1.7c0.1,4.1-2.8,4.1-3.7,4.1c-1.6,0-4.1-0.1-4.1-5.2
							v-3.7c0-3.7,1.6-4.7,4.2-4.7c2.6,0,3.6,1.3,3.4,3.9H-1578.5z"/>
						<path fill="#FDD700" d="M-1565.2,115.3v13h-2.3l-5.1-11.3h0v11.3h-1.5v-13h2.3l5.1,11.1h0v-11.1H-1565.2z"/>
						<path fill="#FDD700" d="M-1553.2,115.3v13h-2.3l-5.1-11.3h0v11.3h-1.5v-13h2.3l5.1,11.1h0v-11.1H-1553.2z"/>
					</g>
					<g>
						<path fill="#FDD700" d="M-1570.9,84.3l1.9,2.8l1.9-2.8h1.2l-2.6,3.5l2.7,3.8h-1.3l-2.1-3.1l-2.2,3.1h-1.2l2.8-3.8l-2.5-3.4
							H-1570.9z"/>
						<path fill="#FDD700" d="M-1563.7,84.3l1.9,2.8l1.9-2.8h1.2l-2.6,3.5l2.7,3.8h-1.3l-2.1-3.1l-2.2,3.1h-1.2l2.8-3.8l-2.5-3.4
							H-1563.7z"/>
					</g>
					<g>
						<path fill="#FDD700" d="M-1599.9,110.2c-0.9-2.1-1.9-4.8-1.9-7.1c0-1.3,0.3-2.5,0.7-3.7c0.4-1.4,0.9-2.5,1.1-3.2h1.1
							c-0.3,0.8-0.6,1.9-0.9,3.4c-0.3,1.5-0.4,2.5-0.4,3.5c0,2.3,0.6,4.1,1.5,7.2H-1599.9z"/>
						<path fill="#FDD700" d="M-1596.8,106.8l2.9-2.8c0.6-0.6,1.2-1.2,1.7-1.9c0.6-0.9,0.8-1.4,0.8-2c0-0.5-0.2-1.8-1.8-1.8
							c-1.8,0-1.8,1.5-1.8,1.9h-1.7c0-0.5,0.1-1.6,1-2.4c0.8-0.7,1.7-0.8,2.4-0.8c1.7,0,3.4,0.9,3.4,3.2c0,0.7,0,1.2-1.2,2.8
							c-0.3,0.4-1.7,1.9-2,2.2l-1.9,1.8h5.3v1.3h-7V106.8z"/>
						<path fill="#FDD700" d="M-1586.5,96.2c0.9,2.1,1.9,4.8,1.9,7.1c0,1.3-0.3,2.5-0.7,3.7c-0.4,1.4-0.9,2.5-1.1,3.2h-1.1
							c0.3-0.8,0.6-1.9,0.9-3.4c0.3-1.5,0.4-2.5,0.4-3.5c0-2.3-0.6-4.1-1.5-7.1H-1586.5z"/>
					</g>
					<g>
						<path fill="#FDD700" d="M-1591.2,141.7c-0.5-1.7-1.2-3.4-1.2-5.2c0-1.8,0.7-3.6,1.2-5.3h0.7c-0.4,1.8-0.8,3.5-0.8,5.3
							c0,1.7,0.4,3.5,0.8,5.1H-1591.2z"/>
						<path fill="#FDD700" d="M-1589.3,138.3v-1l2.4-5.3h1.5v5.3h1v1h-1v2h-1v-2H-1589.3z M-1586.5,137.3V133h0l-1.8,4.3H-1586.5z"
							/>
						<path fill="#FDD700" d="M-1579.5,134.1c0-0.5,0-1-0.3-1.3c-0.2-0.3-0.7-0.4-1-0.4c-0.9,0-1.3,0.6-1.3,0.7
							c0,0.1-0.3,0.3-0.3,1.8v2.3c0,2.1,0.7,2.4,1.5,2.4c0.3,0,1.4-0.1,1.4-1.8h1.1c0,2.7-1.9,2.7-2.4,2.7c-1.1,0-2.7-0.1-2.7-3.4
							v-2.4c0-2.4,1.1-3.1,2.8-3.1c1.7,0,2.4,0.9,2.3,2.6H-1579.5z"/>
						<path fill="#FDD700" d="M-1570.7,131.7v8.7h-1.5l-3.4-7.5h0v7.5h-1v-8.7h1.6l3.4,7.4h0v-7.4H-1570.7z"/>
						<path fill="#FDD700" d="M-1568.8,141.7c0.4-1.7,0.8-3.4,0.8-5.1c0-1.8-0.4-3.6-0.8-5.3h0.7c0.5,1.7,1.2,3.5,1.2,5.3
							c0,1.8-0.7,3.5-1.2,5.2H-1568.8z"/>
					</g>
				</g>
			</g>
			<g id="IT_IT_240LGN_-_4_CCNN_289_00000071525736244812211870000010860796101478119350_" transform="translate(1462.5,75)">
				<g id="g171478_00000069397710849100890110000015993387919707850632_" transform="translate(-450,-1500)">
					
						<rect id="rect171476_00000168827029001328777440000004921576835962458259_" x="-937.5" y="1425" fill="#010101" width="75" height="75"/>
				</g>
			</g>
			<g id="IT_IT_170_-_240-4CN_298_00000044866837078563216570000000521467611909629111_" transform="translate(1387.5,150)">
				<g id="g171684_00000114772825241845680980000002390828005234654884_" transform="translate(-450,-1500)">
					
						<rect id="rect171682_00000085217605116854065310000012263656507157575602_" x="-937.5" y="1425" fill="#010101" width="75" height="75"/>
				</g>
			</g>
			<g id="IT_IT_204_-_4CCNN__MG__299_00000101062027119613332680000011388335003161182647_" transform="translate(1462.5,150)">
				<g id="g171706_00000096737816540608309930000002584469847166313904_" transform="translate(-450,-1500)">
					
						<rect id="rect171704_00000109017143566727269260000006023605369918010501_" x="-937.5" y="1425" fill="#010101" width="75" height="75"/>
				</g>
			</g>
		</g>
	</g>
</g>
<g id="text" display="none">
	
		<rect id="frontbox" x="-1387.5" y="-75" display="inline" fill="none" stroke="#000000" stroke-miterlimit="10" width="1650" height="1275"/>
	<g id="align" display="inline">
	</g>
</g>
<g id="crop" display="none">
	<g id="front" display="inline">
		<line fill="none" stroke="#939598" stroke-miterlimit="10" x1="-534.4" y1="0" x2="234.4" y2="0"/>
		<line fill="none" stroke="#939598" stroke-miterlimit="10" x1="-534.4" y1="75" x2="234.4" y2="75"/>
		<line fill="none" stroke="#939598" stroke-miterlimit="10" x1="0" y1="-9.4" x2="0" y2="159.4"/>
		<line fill="none" stroke="#939598" stroke-miterlimit="10" x1="75" y1="-9.4" x2="75" y2="159.4"/>
	</g>
</g>
<g id="guides" display="none">
</g>
</svg>
