<?xml version="1.0" encoding="utf-8"?>
<!-- Generator: Adobe Illustrator 26.0.3, SVG Export Plug-In . SVG Version: 6.00 Build 0)  -->
<svg version="1.2" baseProfile="tiny" xmlns="http://www.w3.org/2000/svg" xmlns:xlink="http://www.w3.org/1999/xlink" x="0px"
	 y="0px" viewBox="0 0 75 75" overflow="visible" xml:space="preserve">
<g id="svg">
	<g>
		<g id="cs_layer_CNA_0002_00000023283088047694392320000015410210321053132443_">
			<g id="g169366_00000060018564281457370690000011209304467157080227_">
			</g>
			<g id="IT_IT_250LGN_-_NONE_287_00000003807358474946538570000015503515873277214353_" transform="translate(1312.5,75)">
				<g id="g171430_00000118375505526005915180000013559053929060268474_" transform="translate(-450,-1500)">
					
						<rect id="rect171428_00000176761012733083809740000001856261594168198038_" x="-862.5" y="1425" fill="#010101" width="75" height="75"/>
				</g>
				<g id="g171449_00000058570548768786810710000003021565585580410281_" transform="translate(229.688,-150)">
					
						<rect id="rect171432_00000139990525429657330470000007940504825675131269_" x="-1542.2" y="93.8" fill="#8C471F" width="75" height="18.8"/>
					<g>
						<path fill="#FDD700" d="M-1476.5,94.6v17h-26.5v-17H-1476.5z M-1501.6,96.8v12.5l10.4-6.3L-1501.6,96.8z M-1479.3,96h-20.9
							l10.4,6.3L-1479.3,96z M-1500.2,110.2h20.9l-10.4-6.3L-1500.2,110.2z M-1488.4,103.1l10.4,6.3V96.8L-1488.4,103.1z"/>
					</g>
					<g>
						<path fill="#FDD700" d="M-1528.9,128.3v-1.4c3.7-5.1,4.7-6,4.7-8.2c0-1-0.5-1.7-1.5-1.7c-1.2,0-1.5,1-1.5,2h-1.7
							c-0.1-2.1,0.9-3.4,3-3.4c2.3,0,3.3,1,3.3,3.3c0,2.8-1.4,3.7-4.6,8h5v1.4H-1528.9z"/>
						<path fill="#FDD700" d="M-1514.8,115.8v1.4h-4.2v3.6l0,0c0.3-0.5,1.1-0.9,2-0.9c1.8,0,2.6,1.3,2.6,4.2c0,2-0.3,4.4-3.4,4.4
							c-2.6,0-3.1-1.4-3.1-3.1h1.7c0,1,0.4,1.9,1.5,1.9c1.6,0,1.7-1.5,1.7-2.8c0-1.8-0.1-3.2-1.6-3.2c-0.9,0-1.4,0.6-1.5,1.5h-1.5
							v-7H-1514.8z"/>
						<path fill="#FDD700" d="M-1506.3,122.1c0,3.3,0,6.5-3.4,6.5s-3.4-3.2-3.4-6.5c0-3.4-0.1-6.5,3.4-6.5
							C-1506.3,115.6-1506.3,118.7-1506.3,122.1z M-1511.4,122.4c0,2.1-0.1,4.8,1.7,4.8c1.8,0,1.7-2.6,1.7-4.8c0-3.4,0-5.4-1.7-5.4
							C-1511.4,116.9-1511.4,119-1511.4,122.4z"/>
						<path fill="#FDD700" d="M-1504.2,128.3v-13h1.7v11.6h4.8v1.4H-1504.2z"/>
						<path fill="#FDD700" d="M-1491.6,119.2h1.5v10c0,2-1.4,2.5-3.3,2.5c-1.5,0-2.9-0.8-2.8-2.4h1.7c0,0.8,0.6,1.3,1.4,1.3
							c1,0,1.6-0.6,1.6-1.6v-1.9h-0.1c-0.4,0.7-1.2,1.1-2,1.1c-2.5,0-3-2.1-3-4.8c0-4.2,2.1-4.4,2.8-4.4c1,0,1.7,0.4,2.1,1.3h0
							V119.2z M-1493.3,120.2c-1.7,0-1.7,2-1.7,3.2c0,2.9,0.7,3.6,1.8,3.6c1.8,0,1.7-2.1,1.7-3.4
							C-1491.6,122.3-1491.5,120.2-1493.3,120.2z"/>
						<path fill="#FDD700" d="M-1482.5,128.3v-6.3c0-1-0.3-1.8-1.6-1.8c-1.6,0-1.9,1.4-1.9,2.7v5.4h-1.5V121c0-0.6,0-1.3-0.1-1.9
							h1.6v1.2h0.1c0.6-1,1.3-1.4,2.4-1.4c1.9,0,2.4,1.2,2.4,3v6.3H-1482.5z"/>
					</g>
					<g>
						<path fill="#FDD700" d="M-1492.3,84.3l1.9,2.8l1.9-2.8h1.2l-2.6,3.5l2.7,3.8h-1.3l-2.1-3.1l-2.2,3.1h-1.2l2.8-3.8l-2.5-3.4
							H-1492.3z"/>
					</g>
					<g>
						<path fill="#FDD700" d="M-1524.9,110.2c-0.9-2.1-1.9-4.8-1.9-7.1c0-1.3,0.3-2.5,0.7-3.7c0.4-1.4,0.9-2.5,1.1-3.2h1.1
							c-0.3,0.8-0.6,1.9-0.9,3.4c-0.3,1.5-0.4,2.5-0.4,3.5c0,2.3,0.6,4.1,1.5,7.2H-1524.9z"/>
						<path fill="#FDD700" d="M-1521.8,106.8l2.9-2.8c0.6-0.6,1.2-1.2,1.7-1.9c0.6-0.9,0.8-1.4,0.8-2c0-0.5-0.2-1.8-1.8-1.8
							c-1.8,0-1.8,1.5-1.8,1.9h-1.7c0-0.5,0.1-1.6,1-2.4c0.8-0.7,1.7-0.8,2.4-0.8c1.7,0,3.4,0.9,3.4,3.2c0,0.7,0,1.2-1.2,2.8
							c-0.3,0.4-1.7,1.9-2,2.2l-1.9,1.8h5.3v1.3h-7V106.8z"/>
						<path fill="#FDD700" d="M-1511.5,96.2c0.9,2.1,1.9,4.8,1.9,7.1c0,1.3-0.3,2.5-0.7,3.7c-0.4,1.4-0.9,2.5-1.1,3.2h-1.1
							c0.3-0.8,0.6-1.9,0.9-3.4c0.3-1.5,0.4-2.5,0.4-3.5c0-2.3-0.6-4.1-1.5-7.1H-1511.5z"/>
					</g>
					<g>
						<path fill="#FDD700" d="M-1507.9,136.6h2.6v0.9h-2.6V136.6z"/>
						<path fill="#FDD700" d="M-1503.9,136.6h2.6v0.9h-2.6V136.6z"/>
					</g>
				</g>
			</g>
			<g id="IT_IT_4_CCNN_-__4CN__288_00000136378323755382811370000012533095609770339516_" transform="translate(1387.5,75)">
				<g id="g171454_00000028288064912753206540000016155751924478539452_" transform="translate(-450,-1500)">
					
						<rect id="rect171452_00000074432956912912406420000000239514188953228456_" x="-862.5" y="1425" fill="#010101" width="75" height="75"/>
				</g>
			</g>
			<g id="IT_IT_17_-_270-4CN_297_00000174573805014609336440000009497197206665391020_" transform="translate(1312.5,150)">
				<g id="g171662_00000143614851088361814390000018260529502761452967_" transform="translate(-450,-1500)">
					
						<rect id="rect171660_00000101088585773456841880000005833061405241298579_" x="-862.5" y="1425" fill="#010101" width="75" height="75"/>
				</g>
			</g>
			<g id="IT_IT_170_-_240-4CN_298_00000044866837078563216570000000521467611909629111_" transform="translate(1387.5,150)">
				<g id="g171684_00000114772825241845680980000002390828005234654884_" transform="translate(-450,-1500)">
					
						<rect id="rect171682_00000085217605116854065310000012263656507157575602_" x="-862.5" y="1425" fill="#010101" width="75" height="75"/>
				</g>
			</g>
		</g>
	</g>
</g>
<g id="text" display="none">
	
		<rect id="frontbox" x="-1312.5" y="-75" display="inline" fill="none" stroke="#000000" stroke-miterlimit="10" width="1650" height="1275"/>
	<g id="align" display="inline">
	</g>
</g>
<g id="crop" display="none">
	<g id="front" display="inline">
		<line fill="none" stroke="#939598" stroke-miterlimit="10" x1="-459.4" y1="0" x2="309.4" y2="0"/>
		<line fill="none" stroke="#939598" stroke-miterlimit="10" x1="-459.4" y1="75" x2="309.4" y2="75"/>
		<line fill="none" stroke="#939598" stroke-miterlimit="10" x1="0" y1="-9.4" x2="0" y2="159.4"/>
		<line fill="none" stroke="#939598" stroke-miterlimit="10" x1="75" y1="-9.4" x2="75" y2="159.4"/>
	</g>
</g>
<g id="guides" display="none">
</g>
</svg>
