<?xml version="1.0" encoding="utf-8"?>
<!-- Generator: Adobe Illustrator 26.0.3, SVG Export Plug-In . SVG Version: 6.00 Build 0)  -->
<svg version="1.2" baseProfile="tiny" xmlns="http://www.w3.org/2000/svg" xmlns:xlink="http://www.w3.org/1999/xlink" x="0px"
	 y="0px" viewBox="0 0 75 75" overflow="visible" xml:space="preserve">
<g id="svg">
	<g>
		<g id="cs_layer_CNA_0002_00000023283088047694392320000015410210321053132443_">
			<g id="g169366_00000060018564281457370690000011209304467157080227_">
			</g>
			<g id="IT_IT_240LGN_-_4_CCNN_289_00000071525736244812211870000010860796101478119350_" transform="translate(1462.5,75)">
				<g id="g171478_00000069397710849100890110000015993387919707850632_" transform="translate(-450,-1500)">
					
						<rect id="rect171476_00000168827029001328777440000004921576835962458259_" x="-1012.5" y="1425" fill="#010101" width="75" height="75"/>
				</g>
				<g id="g171497_00000054260136895028317240000002116125531477883287_" transform="translate(229.688,-150)">
					
						<rect id="rect171480_00000135691610873175694480000011400500703358376850_" x="-1692.2" y="93.8" fill="#8C471F" width="75" height="18.8"/>
					<g>
						<path fill="#FDD700" d="M-1626.5,94.6v17h-26.5v-17H-1626.5z M-1651.6,96.8v12.5l10.4-6.3L-1651.6,96.8z M-1629.3,96h-20.9
							l10.4,6.3L-1629.3,96z M-1650.2,110.2h20.9l-10.4-6.3L-1650.2,110.2z M-1638.4,103.1l10.4,6.3V96.8L-1638.4,103.1z"/>
					</g>
					<g>
						<path fill="#FDD700" d="M-1678.9,128.3v-1.4c3.7-5.1,4.7-6,4.7-8.2c0-1-0.5-1.7-1.5-1.7c-1.2,0-1.5,1-1.5,2h-1.7
							c-0.1-2.1,0.9-3.4,3-3.4c2.3,0,3.3,1,3.3,3.3c0,2.8-1.4,3.7-4.6,8h5v1.4H-1678.9z"/>
						<path fill="#FDD700" d="M-1671.2,125.2v-1.4l3.5-8h2.2v8h1.5v1.4h-1.5v3h-1.5v-3H-1671.2z M-1667.1,123.8v-6.5h0l-2.7,6.5
							H-1667.1z"/>
						<path fill="#FDD700" d="M-1656.3,122.1c0,3.3,0,6.5-3.4,6.5s-3.4-3.2-3.4-6.5c0-3.4-0.1-6.5,3.4-6.5
							C-1656.3,115.6-1656.3,118.7-1656.3,122.1z M-1661.4,122.4c0,2.1-0.1,4.8,1.7,4.8c1.8,0,1.7-2.6,1.7-4.8c0-3.4,0-5.4-1.7-5.4
							C-1661.4,116.9-1661.4,119-1661.4,122.4z"/>
						<path fill="#FDD700" d="M-1654.2,128.3v-13h1.7v11.6h4.8v1.4H-1654.2z"/>
						<path fill="#FDD700" d="M-1641.6,119.2h1.5v10c0,2-1.4,2.5-3.3,2.5c-1.5,0-2.9-0.8-2.8-2.4h1.7c0,0.8,0.6,1.3,1.4,1.3
							c1,0,1.6-0.6,1.6-1.6v-1.9h-0.1c-0.4,0.7-1.2,1.1-2,1.1c-2.5,0-3-2.1-3-4.8c0-4.2,2.1-4.4,2.8-4.4c1,0,1.7,0.4,2.1,1.3h0
							V119.2z M-1643.3,120.2c-1.7,0-1.7,2-1.7,3.2c0,2.9,0.7,3.6,1.8,3.6c1.8,0,1.7-2.1,1.7-3.4
							C-1641.6,122.3-1641.5,120.2-1643.3,120.2z"/>
						<path fill="#FDD700" d="M-1632.5,128.3v-6.3c0-1-0.3-1.8-1.6-1.8c-1.6,0-1.9,1.4-1.9,2.7v5.4h-1.5V121c0-0.6,0-1.3-0.1-1.9
							h1.6v1.2h0.1c0.6-1,1.3-1.4,2.4-1.4c1.9,0,2.4,1.2,2.4,3v6.3H-1632.5z"/>
					</g>
					<g>
						<path fill="#FDD700" d="M-1642.3,84.3l1.9,2.8l1.9-2.8h1.2l-2.6,3.5l2.7,3.8h-1.3l-2.1-3.1l-2.2,3.1h-1.2l2.8-3.8l-2.5-3.4
							H-1642.3z"/>
					</g>
					<g>
						<path fill="#FDD700" d="M-1674.9,110.2c-0.9-2.1-1.9-4.8-1.9-7.1c0-1.3,0.3-2.5,0.7-3.7c0.4-1.4,0.9-2.5,1.1-3.2h1.1
							c-0.3,0.8-0.6,1.9-0.9,3.4c-0.3,1.5-0.4,2.5-0.4,3.5c0,2.3,0.6,4.1,1.5,7.2H-1674.9z"/>
						<path fill="#FDD700" d="M-1671.8,106.8l2.9-2.8c0.6-0.6,1.2-1.2,1.7-1.9c0.6-0.9,0.8-1.4,0.8-2c0-0.5-0.2-1.8-1.8-1.8
							c-1.8,0-1.8,1.5-1.8,1.9h-1.7c0-0.5,0.1-1.6,1-2.4c0.8-0.7,1.7-0.8,2.4-0.8c1.7,0,3.4,0.9,3.4,3.2c0,0.7,0,1.2-1.2,2.8
							c-0.3,0.4-1.7,1.9-2,2.2l-1.9,1.8h5.3v1.3h-7V106.8z"/>
						<path fill="#FDD700" d="M-1661.5,96.2c0.9,2.1,1.9,4.8,1.9,7.1c0,1.3-0.3,2.5-0.7,3.7c-0.4,1.4-0.9,2.5-1.1,3.2h-1.1
							c0.3-0.8,0.6-1.9,0.9-3.4c0.3-1.5,0.4-2.5,0.4-3.5c0-2.3-0.6-4.1-1.5-7.1H-1661.5z"/>
					</g>
					<g>
						<path fill="#FDD700" d="M-1673,138.3v-1l2.4-5.3h1.5v5.3h1v1h-1v2h-1v-2H-1673z M-1670.2,137.3V133h0l-1.8,4.3H-1670.2z"/>
						<path fill="#FDD700" d="M-1660.5,134.1c0-0.5,0-1-0.3-1.3c-0.2-0.3-0.7-0.4-1-0.4c-0.9,0-1.3,0.6-1.3,0.7
							c0,0.1-0.3,0.3-0.3,1.8v2.3c0,2.1,0.7,2.4,1.5,2.4c0.3,0,1.4-0.1,1.4-1.8h1.1c0,2.7-1.9,2.7-2.4,2.7c-1.1,0-2.7-0.1-2.7-3.4
							v-2.4c0-2.4,1.1-3.1,2.8-3.1c1.7,0,2.4,0.9,2.3,2.6H-1660.5z"/>
						<path fill="#FDD700" d="M-1653.8,134.1c0-0.5,0-1-0.3-1.3c-0.2-0.3-0.7-0.4-1-0.4c-0.9,0-1.3,0.6-1.3,0.7
							c0,0.1-0.3,0.3-0.3,1.8v2.3c0,2.1,0.7,2.4,1.5,2.4c0.3,0,1.4-0.1,1.4-1.8h1.1c0,2.7-1.9,2.7-2.4,2.7c-1.1,0-2.7-0.1-2.7-3.4
							v-2.4c0-2.4,1.1-3.1,2.8-3.1c1.7,0,2.4,0.9,2.3,2.6H-1653.8z"/>
						<path fill="#FDD700" d="M-1645,131.7v8.7h-1.5l-3.4-7.5h0v7.5h-1v-8.7h1.6l3.4,7.4h0v-7.4H-1645z"/>
						<path fill="#FDD700" d="M-1637,131.7v8.7h-1.5l-3.4-7.5h0v7.5h-1v-8.7h1.6l3.4,7.4h0v-7.4H-1637z"/>
					</g>
				</g>
			</g>
			<g id="IT_IT_270LGN_-_4_CCNN_290_00000002351292004287959050000010597855038670220698_" transform="translate(1537.5,75)">
				<g id="g171502_00000023279431052312671930000016703015739201638318_" transform="translate(-450,-1500)">
					
						<rect id="rect171500_00000116227119401331883190000012814358507772382625_" x="-1012.5" y="1425" fill="#010101" width="75" height="75"/>
				</g>
			</g>
			<g id="IT_IT_204_-_4CCNN__MG__299_00000101062027119613332680000011388335003161182647_" transform="translate(1462.5,150)">
				<g id="g171706_00000096737816540608309930000002584469847166313904_" transform="translate(-450,-1500)">
					
						<rect id="rect171704_00000109017143566727269260000006023605369918010501_" x="-1012.5" y="1425" fill="#010101" width="75" height="75"/>
				</g>
			</g>
			<g id="IT_IT_204_-_4CCNN__ART__300_00000083785046724766111760000015580201783343452305_" transform="translate(1537.5,150)">
				<g id="g171728_00000157269180518497546140000009317377167620970173_" transform="translate(-450,-1500)">
					
						<rect id="rect171726_00000023263238098318903030000009329694142280666287_" x="-1012.5" y="1425" fill="#010101" width="75" height="75"/>
				</g>
			</g>
		</g>
	</g>
</g>
<g id="text" display="none">
	
		<rect id="frontbox" x="-1462.5" y="-75" display="inline" fill="none" stroke="#000000" stroke-miterlimit="10" width="1650" height="1275"/>
	<g id="align" display="inline">
	</g>
</g>
<g id="crop" display="none">
	<g id="front" display="inline">
		<line fill="none" stroke="#939598" stroke-miterlimit="10" x1="-609.4" y1="0" x2="159.4" y2="0"/>
		<line fill="none" stroke="#939598" stroke-miterlimit="10" x1="-609.4" y1="75" x2="159.4" y2="75"/>
		<line fill="none" stroke="#939598" stroke-miterlimit="10" x1="0" y1="-9.4" x2="0" y2="159.4"/>
		<line fill="none" stroke="#939598" stroke-miterlimit="10" x1="75" y1="-9.4" x2="75" y2="159.4"/>
	</g>
</g>
<g id="guides" display="none">
</g>
</svg>
