<?xml version="1.0" encoding="utf-8"?>
<!-- Generator: Adobe Illustrator 26.0.3, SVG Export Plug-In . SVG Version: 6.00 Build 0)  -->
<svg version="1.2" baseProfile="tiny" xmlns="http://www.w3.org/2000/svg" xmlns:xlink="http://www.w3.org/1999/xlink" x="0px"
	 y="0px" viewBox="0 0 75 75" overflow="visible" xml:space="preserve">
<g id="svg">
	<g>
		<g id="cs_layer_CNA_0002_00000023283088047694392320000015410210321053132443_">
			<g id="g169366_00000060018564281457370690000011209304467157080227_">
			</g>
			<g id="IT_IT_1_CCNN_-__1CN__281_00000026873889733171388420000011141304258523276422_" transform="translate(862.5,75)">
				<g id="g171286_00000150788485707577363550000000381323392739245185_" transform="translate(-450,-1500)">
					
						<rect id="rect171284_00000007400763402850642840000016889402657229311906_" x="-412.5" y="1425" fill="#010101" width="75" height="75"/>
				</g>
				<g id="g171305_00000011015384608954460410000016883862026978437545_" transform="translate(229.688,-150)">
					
						<rect id="rect171288_00000150781202639282354770000017726821128088478127_" x="-1092.2" y="93.8" fill="#8C471F" width="75" height="18.8"/>
					<g>
						<path fill="#FDD700" d="M-1026.5,94.6v17h-26.5v-17H-1026.5z M-1051.6,96.8v12.5l10.4-6.3L-1051.6,96.8z M-1029.3,96h-20.9
							l10.4,6.3L-1029.3,96z M-1050.2,110.2h20.9l-10.4-6.3L-1050.2,110.2z M-1038.4,103.1l10.4,6.3V96.8L-1038.4,103.1z"/>
					</g>
					<g>
						<path fill="#FDD700" d="M-1077.5,128.3h-1.7v-10.7l-1.9,1.3v-1.6c0.4-0.2,1.6-1.1,2.1-1.5h1.4V128.3z"/>
						<path fill="#FDD700" d="M-1063.5,118.8c0-0.7,0-1.5-0.4-1.9s-1.1-0.6-1.5-0.6c-1.4,0-1.9,0.8-2,1c-0.1,0.1-0.4,0.5-0.4,2.7
							v3.5c0,3.2,1,3.6,2.3,3.6c0.5,0,2-0.2,2.1-2.7h1.7c0.1,4.1-2.8,4.1-3.7,4.1c-1.6,0-4.1-0.1-4.1-5.2v-3.7
							c0-3.7,1.6-4.7,4.2-4.7c2.6,0,3.6,1.3,3.4,3.9H-1063.5z"/>
						<path fill="#FDD700" d="M-1053.5,118.8c0-0.7,0-1.5-0.4-1.9c-0.3-0.4-1.1-0.6-1.5-0.6c-1.4,0-1.9,0.8-2,1
							c-0.1,0.1-0.4,0.5-0.4,2.7v3.5c0,3.2,1,3.6,2.3,3.6c0.5,0,2-0.2,2.1-2.7h1.7c0.1,4.1-2.8,4.1-3.7,4.1c-1.6,0-4.1-0.1-4.1-5.2
							v-3.7c0-3.7,1.6-4.7,4.2-4.7c2.6,0,3.6,1.3,3.4,3.9H-1053.5z"/>
						<path fill="#FDD700" d="M-1040.2,115.3v13h-2.3l-5.1-11.3h0v11.3h-1.5v-13h2.3l5.1,11.1h0v-11.1H-1040.2z"/>
						<path fill="#FDD700" d="M-1028.2,115.3v13h-2.3l-5.1-11.3h0v11.3h-1.5v-13h2.3l5.1,11.1h0v-11.1H-1028.2z"/>
					</g>
					<g>
						<path fill="#FDD700" d="M-1045.9,84.3l1.9,2.8l1.9-2.8h1.2l-2.6,3.5l2.7,3.8h-1.3l-2.1-3.1l-2.2,3.1h-1.2l2.8-3.8l-2.5-3.4
							H-1045.9z"/>
						<path fill="#FDD700" d="M-1038.7,84.3l1.9,2.8l1.9-2.8h1.2l-2.6,3.5l2.7,3.8h-1.3l-2.1-3.1l-2.2,3.1h-1.2l2.8-3.8l-2.5-3.4
							H-1038.7z"/>
					</g>
					<g>
						<path fill="#FDD700" d="M-1074.9,110.2c-0.9-2.1-1.9-4.8-1.9-7.1c0-1.3,0.3-2.5,0.7-3.7c0.4-1.4,0.9-2.5,1.1-3.2h1.1
							c-0.3,0.8-0.6,1.9-0.9,3.4c-0.3,1.5-0.4,2.5-0.4,3.5c0,2.3,0.6,4.1,1.5,7.2H-1074.9z"/>
						<path fill="#FDD700" d="M-1071.8,106.8l2.9-2.8c0.6-0.6,1.2-1.2,1.7-1.9c0.6-0.9,0.8-1.4,0.8-2c0-0.5-0.2-1.8-1.8-1.8
							c-1.8,0-1.8,1.5-1.8,1.9h-1.7c0-0.5,0.1-1.6,1-2.4c0.8-0.7,1.7-0.8,2.4-0.8c1.7,0,3.4,0.9,3.4,3.2c0,0.7,0,1.2-1.2,2.8
							c-0.3,0.4-1.7,1.9-2,2.2l-1.9,1.8h5.3v1.3h-7V106.8z"/>
						<path fill="#FDD700" d="M-1061.5,96.2c0.9,2.1,1.9,4.8,1.9,7.1c0,1.3-0.3,2.5-0.7,3.7c-0.4,1.4-0.9,2.5-1.1,3.2h-1.1
							c0.3-0.8,0.6-1.9,0.9-3.4c0.3-1.5,0.4-2.5,0.4-3.5c0-2.3-0.6-4.1-1.5-7.1H-1061.5z"/>
					</g>
					<g>
						<path fill="#FDD700" d="M-1066.2,141.7c-0.5-1.7-1.2-3.4-1.2-5.2c0-1.8,0.7-3.6,1.2-5.3h0.7c-0.4,1.8-0.8,3.5-0.8,5.3
							c0,1.7,0.4,3.5,0.8,5.1H-1066.2z"/>
						<path fill="#FDD700" d="M-1061.2,140.3h-1.1v-7.1l-1.2,0.8V133c0.3-0.1,1.1-0.7,1.4-1h0.9V140.3z"/>
						<path fill="#FDD700" d="M-1054.5,134.1c0-0.5,0-1-0.3-1.3c-0.2-0.3-0.7-0.4-1-0.4c-0.9,0-1.3,0.6-1.3,0.7
							c0,0.1-0.3,0.3-0.3,1.8v2.3c0,2.1,0.7,2.4,1.5,2.4c0.3,0,1.4-0.1,1.4-1.8h1.1c0,2.7-1.9,2.7-2.4,2.7c-1.1,0-2.7-0.1-2.7-3.4
							v-2.4c0-2.4,1.1-3.1,2.8-3.1c1.7,0,2.4,0.9,2.3,2.6H-1054.5z"/>
						<path fill="#FDD700" d="M-1045.7,131.7v8.7h-1.5l-3.4-7.5h0v7.5h-1v-8.7h1.6l3.4,7.4h0v-7.4H-1045.7z"/>
						<path fill="#FDD700" d="M-1043.8,141.7c0.4-1.7,0.8-3.4,0.8-5.1c0-1.8-0.4-3.6-0.8-5.3h0.7c0.5,1.7,1.2,3.5,1.2,5.3
							c0,1.8-0.7,3.5-1.2,5.2H-1043.8z"/>
					</g>
				</g>
			</g>
			<g id="IT_IT_219LGN_-_1_CCNN_282_00000155869238257660581110000012307066256555546022_" transform="translate(937.5,75)">
				<g id="g171310_00000163790959248626095550000007648444858663084705_" transform="translate(-450,-1500)">
					
						<rect id="rect171308_00000163790878555682515110000017792115402043333276_" x="-412.5" y="1425" fill="#010101" width="75" height="75"/>
				</g>
			</g>
			<g id="IT_IT_7CCNN_-_NONE_291_00000162325310803942291270000014638657695518286778_" transform="translate(862.5,150)">
				<g id="g171526_00000131365161368758265500000001415758604453447311_" transform="translate(-450,-1500)">
					
						<rect id="rect171524_00000079473121674239623760000016367474306067906433_" x="-412.5" y="1425" fill="#010101" width="75" height="75"/>
				</g>
			</g>
			<g id="IT_IT_9CCNN_-_NONE_292_00000132798492269358231830000011343329071541680769_" transform="translate(937.5,150)">
				<g id="g171550_00000156552738038671736070000017148435983857133749_" transform="translate(-450,-1500)">
					
						<rect id="rect171548_00000106116987410963110340000010324523800098287254_" x="-412.5" y="1425" fill="#010101" width="75" height="75"/>
				</g>
			</g>
		</g>
	</g>
</g>
<g id="text" display="none">
	
		<rect id="frontbox" x="-862.5" y="-75" display="inline" fill="none" stroke="#000000" stroke-miterlimit="10" width="1650" height="1275"/>
	<g id="align" display="inline">
	</g>
</g>
<g id="crop" display="none">
	<g id="front" display="inline">
		<line fill="none" stroke="#939598" stroke-miterlimit="10" x1="-9.4" y1="0" x2="759.4" y2="0"/>
		<line fill="none" stroke="#939598" stroke-miterlimit="10" x1="-9.4" y1="75" x2="759.4" y2="75"/>
		<line fill="none" stroke="#939598" stroke-miterlimit="10" x1="0" y1="-9.4" x2="0" y2="159.4"/>
		<line fill="none" stroke="#939598" stroke-miterlimit="10" x1="75" y1="-9.4" x2="75" y2="159.4"/>
	</g>
</g>
<g id="guides" display="none">
</g>
</svg>
