<?xml version="1.0" encoding="utf-8"?>
<!-- Generator: Adobe Illustrator 26.0.3, SVG Export Plug-In . SVG Version: 6.00 Build 0)  -->
<svg version="1.2" baseProfile="tiny" xmlns="http://www.w3.org/2000/svg" xmlns:xlink="http://www.w3.org/1999/xlink" x="0px"
	 y="0px" viewBox="0 0 75 75" overflow="visible" xml:space="preserve">
<g id="svg">
	<g>
		<g id="cs_layer_CNA_0002_00000023283088047694392320000015410210321053132443_">
			<g id="g169366_00000060018564281457370690000011209304467157080227_">
			</g>
			<g id="IT_IT_7CCNN_-_NONE_291_00000162325310803942291270000014638657695518286778_" transform="translate(862.5,150)">
				<g id="g171526_00000131365161368758265500000001415758604453447311_" transform="translate(-450,-1500)">
					
						<rect id="rect171524_00000079473121674239623760000016367474306067906433_" x="-412.5" y="1350" fill="#010101" width="75" height="75"/>
				</g>
				<g id="g171545_00000008126157195608757250000002765228647031577526_" transform="translate(229.688,-150)">
					
						<rect id="rect171528_00000019647810161053908430000009984776488535585443_" x="-1092.2" y="18.8" fill="#8C471F" width="75" height="18.8"/>
					<g>
						<path fill="#FDD700" d="M-1026.5,19.6v17h-26.5v-17H-1026.5z M-1051.6,21.8v12.5l10.4-6.3L-1051.6,21.8z M-1029.3,21h-20.9
							l10.4,6.3L-1029.3,21z M-1050.2,35.2h20.9l-10.4-6.3L-1050.2,35.2z M-1038.4,28.1l10.4,6.3V21.8L-1038.4,28.1z"/>
					</g>
					<g>
						<path fill="#FDD700" d="M-1080.2,40.8h6.5v1.4l-3.3,11.1h-1.9l3.5-11.1h-4.8V40.8z"/>
						<path fill="#FDD700" d="M-1065.5,43.8c0-0.7,0-1.5-0.4-1.9c-0.3-0.4-1.1-0.6-1.5-0.6c-1.4,0-1.9,0.8-2,1
							c-0.1,0.1-0.4,0.5-0.4,2.7v3.5c0,3.2,1,3.6,2.3,3.6c0.5,0,2-0.2,2.1-2.7h1.7c0.1,4.1-2.8,4.1-3.7,4.1c-1.6,0-4.1-0.1-4.1-5.2
							v-3.7c0-3.7,1.6-4.7,4.2-4.7c2.6,0,3.6,1.3,3.4,3.9H-1065.5z"/>
						<path fill="#FDD700" d="M-1055.5,43.8c0-0.7,0-1.5-0.4-1.9c-0.3-0.4-1.1-0.6-1.5-0.6c-1.4,0-1.9,0.8-2,1
							c-0.1,0.1-0.4,0.5-0.4,2.7v3.5c0,3.2,1,3.6,2.3,3.6c0.5,0,2-0.2,2.1-2.7h1.7c0.1,4.1-2.8,4.1-3.7,4.1c-1.6,0-4.1-0.1-4.1-5.2
							v-3.7c0-3.7,1.6-4.7,4.2-4.7c2.6,0,3.6,1.3,3.4,3.9H-1055.5z"/>
						<path fill="#FDD700" d="M-1042.2,40.3v13h-2.3l-5.1-11.3h0v11.3h-1.5v-13h2.3l5.1,11.1h0V40.3H-1042.2z"/>
						<path fill="#FDD700" d="M-1030.2,40.3v13h-2.3l-5.1-11.3h0v11.3h-1.5v-13h2.3l5.1,11.1h0V40.3H-1030.2z"/>
					</g>
					<g>
						<path fill="#FDD700" d="M-1043.7,9.3h1v7.2h-1V9.3z"/>
						<path fill="#FDD700" d="M-1040.9,9.3h1v7.2h-1V9.3z"/>
						<path fill="#FDD700" d="M-1038.2,9.3h1v7.2h-1V9.3z"/>
					</g>
					<g>
						<path fill="#FDD700" d="M-1063,23.9c-0.7,0.6-1.8,1.2-2.6,1.6v-1.6c1-0.5,2.1-1.2,2.7-1.7h1.4v11.1h-1.5V23.9z"/>
					</g>
					<g>
						<path fill="#FDD700" d="M-1057.9,61.6h2.6v0.9h-2.6V61.6z"/>
						<path fill="#FDD700" d="M-1053.9,61.6h2.6v0.9h-2.6V61.6z"/>
					</g>
				</g>
			</g>
			<g id="IT_IT_9CCNN_-_NONE_292_00000132798492269358231830000011343329071541680769_" transform="translate(937.5,150)">
				<g id="g171550_00000156552738038671736070000017148435983857133749_" transform="translate(-450,-1500)">
					
						<rect id="rect171548_00000106116987410963110340000010324523800098287254_" x="-412.5" y="1350" fill="#010101" width="75" height="75"/>
				</g>
			</g>
		</g>
	</g>
</g>
<g id="text" display="none">
	
		<rect id="frontbox" x="-862.5" y="-150" display="inline" fill="none" stroke="#000000" stroke-miterlimit="10" width="1650" height="1275"/>
	<g id="align" display="inline">
	</g>
</g>
<g id="crop" display="none">
	<g id="front" display="inline">
		<line fill="none" stroke="#939598" stroke-miterlimit="10" x1="-9.4" y1="0" x2="759.4" y2="0"/>
		<line fill="none" stroke="#939598" stroke-miterlimit="10" x1="-9.4" y1="75" x2="759.4" y2="75"/>
		<line fill="none" stroke="#939598" stroke-miterlimit="10" x1="0" y1="-84.4" x2="0" y2="84.4"/>
		<line fill="none" stroke="#939598" stroke-miterlimit="10" x1="75" y1="-84.4" x2="75" y2="84.4"/>
	</g>
</g>
<g id="guides" display="none">
</g>
</svg>
