<?xml version="1.0" encoding="utf-8"?>
<!-- Generator: Adobe Illustrator 26.0.3, SVG Export Plug-In . SVG Version: 6.00 Build 0)  -->
<svg version="1.2" baseProfile="tiny" xmlns="http://www.w3.org/2000/svg" xmlns:xlink="http://www.w3.org/1999/xlink" x="0px"
	 y="0px" viewBox="0 0 75 75" overflow="visible" xml:space="preserve">
<g id="svg">
	<g>
		<g id="cs_layer_CNA_0002_00000023283088047694392320000015410210321053132443_">
			<g id="g169366_00000060018564281457370690000011209304467157080227_">
			</g>
			<g id="IT_IT_17_-_270-4CN_297_00000174573805014609336440000009497197206665391020_" transform="translate(1312.5,150)">
				<g id="g171662_00000143614851088361814390000018260529502761452967_" transform="translate(-450,-1500)">
					
						<rect id="rect171660_00000101088585773456841880000005833061405241298579_" x="-862.5" y="1350" fill="#010101" width="75" height="75"/>
				</g>
				<g id="g171679_00000031897456586763871070000004437254301340027568_" transform="translate(229.688,-150)">
					<g>
						<path fill="#FDD700" d="M-1476.5,19.6v17h-26.5v-17H-1476.5z M-1501.6,21.8v12.5l10.4-6.3L-1501.6,21.8z M-1479.3,21h-20.9
							l10.4,6.3L-1479.3,21z M-1500.2,35.2h20.9l-10.4-6.3L-1500.2,35.2z M-1488.4,28.1l10.4,6.3V21.8L-1488.4,28.1z"/>
					</g>
					<g>
						<path fill="#FDD700" d="M-1507.5,53.3h-1.7V42.6l-1.9,1.3v-1.6c0.4-0.2,1.6-1.1,2.1-1.5h1.4V53.3z"/>
						<path fill="#FDD700" d="M-1504.2,40.8h6.5v1.4l-3.3,11.1h-1.9l3.5-11.1h-4.8V40.8z"/>
					</g>
					<g>
						<path fill="#FDD700" d="M-1492.3,9.3h1v7.2h-1V9.3z"/>
						<path fill="#FDD700" d="M-1489.6,9.3h1v7.2h-1V9.3z"/>
					</g>
					<g>
						<path fill="#FDD700" d="M-1513,23.9c-0.7,0.6-1.8,1.2-2.6,1.6v-1.6c1-0.5,2.1-1.2,2.7-1.7h1.4v11.1h-1.5V23.9z"/>
					</g>
					<g>
						<path fill="#FDD700" d="M-1523.8,65.3v-1c2.4-3.4,3.2-4,3.2-5.5c0-0.7-0.3-1.1-1-1.1c-0.8,0-1,0.7-1,1.4h-1.1
							c-0.1-1.4,0.6-2.3,2-2.3c1.5,0,2.2,0.7,2.2,2.2c0,1.9-0.9,2.5-3.1,5.3h3.3v1H-1523.8z"/>
						<path fill="#FDD700" d="M-1518.6,57h4.3v1l-2.2,7.4h-1.2l2.3-7.4h-3.2V57z"/>
						<path fill="#FDD700" d="M-1508.7,61.2c0,2.2,0,4.3-2.2,4.3c-2.3,0-2.2-2.1-2.2-4.3c0-2.2,0-4.3,2.2-4.3
							C-1508.7,56.9-1508.7,59-1508.7,61.2z M-1512.1,61.4c0,1.4-0.1,3.2,1.1,3.2c1.2,0,1.1-1.8,1.1-3.2c0-2.2,0-3.6-1.1-3.6
							C-1512.1,57.8-1512.1,59.2-1512.1,61.4z"/>
						<path fill="#FDD700" d="M-1507.8,66.5h-0.8l2.8-9.8h0.8L-1507.8,66.5z"/>
						<path fill="#FDD700" d="M-1504.7,63.3v-1l2.4-5.3h1.5v5.3h1v1h-1v2h-1v-2H-1504.7z M-1501.9,62.3V58h0l-1.8,4.3H-1501.9z"/>
						<path fill="#FDD700" d="M-1494.9,59.1c0-0.5,0-1-0.3-1.3c-0.2-0.3-0.7-0.4-1-0.4c-0.9,0-1.3,0.6-1.3,0.7
							c0,0.1-0.3,0.3-0.3,1.8v2.3c0,2.1,0.7,2.4,1.5,2.4c0.3,0,1.4-0.1,1.4-1.8h1.1c0,2.7-1.9,2.7-2.4,2.7c-1.1,0-2.7-0.1-2.7-3.4
							v-2.4c0-2.4,1.1-3.1,2.8-3.1c1.7,0,2.4,0.9,2.3,2.6H-1494.9z"/>
						<path fill="#FDD700" d="M-1486,56.7v8.7h-1.5l-3.4-7.5h0v7.5h-1v-8.7h1.6l3.4,7.4h0v-7.4H-1486z"/>
					</g>
				</g>
			</g>
			<g id="IT_IT_170_-_240-4CN_298_00000044866837078563216570000000521467611909629111_" transform="translate(1387.5,150)">
				<g id="g171684_00000114772825241845680980000002390828005234654884_" transform="translate(-450,-1500)">
					
						<rect id="rect171682_00000085217605116854065310000012263656507157575602_" x="-862.5" y="1350" fill="#010101" width="75" height="75"/>
				</g>
			</g>
		</g>
	</g>
</g>
<g id="text" display="none">
	
		<rect id="frontbox" x="-1312.5" y="-150" display="inline" fill="none" stroke="#000000" stroke-miterlimit="10" width="1650" height="1275"/>
	<g id="align" display="inline">
	</g>
</g>
<g id="crop" display="none">
	<g id="front" display="inline">
		<line fill="none" stroke="#939598" stroke-miterlimit="10" x1="-459.4" y1="0" x2="309.4" y2="0"/>
		<line fill="none" stroke="#939598" stroke-miterlimit="10" x1="-459.4" y1="75" x2="309.4" y2="75"/>
		<line fill="none" stroke="#939598" stroke-miterlimit="10" x1="0" y1="-84.4" x2="0" y2="84.4"/>
		<line fill="none" stroke="#939598" stroke-miterlimit="10" x1="75" y1="-84.4" x2="75" y2="84.4"/>
	</g>
</g>
<g id="guides" display="none">
</g>
</svg>
