<?xml version="1.0" encoding="utf-8"?>
<!-- Generator: Adobe Illustrator 26.0.3, SVG Export Plug-In . SVG Version: 6.00 Build 0)  -->
<svg version="1.2" baseProfile="tiny" xmlns="http://www.w3.org/2000/svg" xmlns:xlink="http://www.w3.org/1999/xlink" x="0px"
	 y="0px" viewBox="0 0 75 75" overflow="visible" xml:space="preserve">
<g id="svg">
	<g>
		<g id="cs_layer_CNA_0002_00000023283088047694392320000015410210321053132443_">
			<g id="g169366_00000060018564281457370690000011209304467157080227_">
			</g>
			<g id="IT_IT_9CCNN_-_NONE_292_00000132798492269358231830000011343329071541680769_" transform="translate(937.5,150)">
				<g id="g171550_00000156552738038671736070000017148435983857133749_" transform="translate(-450,-1500)">
					
						<rect id="rect171548_00000106116987410963110340000010324523800098287254_" x="-487.5" y="1350" fill="#010101" width="75" height="75"/>
				</g>
				<g id="g171569_00000137839039150473910000000015298921813499910281_" transform="translate(229.688,-150)">
					
						<rect id="rect171552_00000183227012401060991860000003915807275816640903_" x="-1167.2" y="18.8" fill="#8C471F" width="75" height="18.8"/>
					<g>
						<path fill="#FDD700" d="M-1101.5,19.6v17h-26.5v-17H-1101.5z M-1126.6,21.8v12.5l10.4-6.3L-1126.6,21.8z M-1104.3,21h-20.9
							l10.4,6.3L-1104.3,21z M-1125.2,35.2h20.9l-10.4-6.3L-1125.2,35.2z M-1113.4,28.1l10.4,6.3V21.8L-1113.4,28.1z"/>
					</g>
					<g>
						<path fill="#FDD700" d="M-1148.4,47.1c0,3.3,0,6.5-3.4,6.5c-1.9,0-3.1-1.3-3.1-3.3h1.7c0,0.9,0.4,1.9,1.4,1.9
							c1.6,0,1.7-1.8,1.7-5h0c-0.4,0.9-1.2,1.2-2.1,1.2c-1,0-2.9-0.5-2.9-3.9c0-2.8,1.7-3.8,3.3-3.8
							C-1148.3,40.6-1148.4,43.7-1148.4,47.1z M-1153.4,44.4c0,1.2,0.2,2.6,1.7,2.6s1.7-1.4,1.7-2.6c0-1.1-0.3-2.6-1.7-2.6
							C-1153.1,41.8-1153.4,43.2-1153.4,44.4z"/>
						<path fill="#FDD700" d="M-1140.5,43.8c0-0.7,0-1.5-0.4-1.9c-0.3-0.4-1.1-0.6-1.5-0.6c-1.4,0-1.9,0.8-2,1
							c-0.1,0.1-0.4,0.5-0.4,2.7v3.5c0,3.2,1,3.6,2.3,3.6c0.5,0,2-0.2,2.1-2.7h1.7c0.1,4.1-2.8,4.1-3.7,4.1c-1.6,0-4.1-0.1-4.1-5.2
							v-3.7c0-3.7,1.6-4.7,4.2-4.7c2.6,0,3.6,1.3,3.4,3.9H-1140.5z"/>
						<path fill="#FDD700" d="M-1130.5,43.8c0-0.7,0-1.5-0.4-1.9c-0.3-0.4-1.1-0.6-1.5-0.6c-1.4,0-1.9,0.8-2,1
							c-0.1,0.1-0.4,0.5-0.4,2.7v3.5c0,3.2,1,3.6,2.3,3.6c0.5,0,2-0.2,2.1-2.7h1.7c0.1,4.1-2.8,4.1-3.7,4.1c-1.6,0-4.1-0.1-4.1-5.2
							v-3.7c0-3.7,1.6-4.7,4.2-4.7c2.6,0,3.6,1.3,3.4,3.9H-1130.5z"/>
						<path fill="#FDD700" d="M-1117.2,40.3v13h-2.3l-5.1-11.3h0v11.3h-1.5v-13h2.3l5.1,11.1h0V40.3H-1117.2z"/>
						<path fill="#FDD700" d="M-1105.2,40.3v13h-2.3l-5.1-11.3h0v11.3h-1.5v-13h2.3l5.1,11.1h0V40.3H-1105.2z"/>
					</g>
					<g>
						<path fill="#FDD700" d="M-1118.7,9.3h1v7.2h-1V9.3z"/>
						<path fill="#FDD700" d="M-1115.9,9.3h1v7.2h-1V9.3z"/>
						<path fill="#FDD700" d="M-1113.2,9.3h1v7.2h-1V9.3z"/>
					</g>
					<g>
						<path fill="#FDD700" d="M-1138,23.9c-0.7,0.6-1.8,1.2-2.6,1.6v-1.6c1-0.5,2.1-1.2,2.7-1.7h1.4v11.1h-1.5V23.9z"/>
					</g>
					<g>
						<path fill="#FDD700" d="M-1132.9,61.6h2.6v0.9h-2.6V61.6z"/>
						<path fill="#FDD700" d="M-1128.9,61.6h2.6v0.9h-2.6V61.6z"/>
					</g>
				</g>
			</g>
			<g id="IT_IT_70_-_240-4CN_293_00000161607821482856943850000004261059952232688020_" transform="translate(1012.5,150)">
				<g id="g171574_00000161630398929871913940000001720591761339053734_" transform="translate(-450,-1500)">
					
						<rect id="rect171572_00000067924541925821103310000004946206599446044860_" x="-487.5" y="1350" fill="#010101" width="75" height="75"/>
				</g>
			</g>
		</g>
	</g>
</g>
<g id="text" display="none">
	
		<rect id="frontbox" x="-937.5" y="-150" display="inline" fill="none" stroke="#000000" stroke-miterlimit="10" width="1650" height="1275"/>
	<g id="align" display="inline">
	</g>
</g>
<g id="crop" display="none">
	<g id="front" display="inline">
		<line fill="none" stroke="#939598" stroke-miterlimit="10" x1="-84.4" y1="0" x2="684.4" y2="0"/>
		<line fill="none" stroke="#939598" stroke-miterlimit="10" x1="-84.4" y1="75" x2="684.4" y2="75"/>
		<line fill="none" stroke="#939598" stroke-miterlimit="10" x1="0" y1="-84.4" x2="0" y2="84.4"/>
		<line fill="none" stroke="#939598" stroke-miterlimit="10" x1="75" y1="-84.4" x2="75" y2="84.4"/>
	</g>
</g>
<g id="guides" display="none">
</g>
</svg>
