<?xml version="1.0" encoding="utf-8"?>
<!-- Generator: Adobe Illustrator 26.0.3, SVG Export Plug-In . SVG Version: 6.00 Build 0)  -->
<svg version="1.2" baseProfile="tiny" xmlns="http://www.w3.org/2000/svg" xmlns:xlink="http://www.w3.org/1999/xlink" x="0px"
	 y="0px" viewBox="0 0 75 75" overflow="visible" xml:space="preserve">
<g id="svg">
	<g>
		<g id="cs_layer_CNA_0002_00000023283088047694392320000015410210321053132443_">
			<g id="g169366_00000060018564281457370690000011209304467157080227_">
			</g>
			<g id="IT_IT_204_-_4CCNN__MG__299_00000101062027119613332680000011388335003161182647_" transform="translate(1462.5,150)">
				<g id="g171706_00000096737816540608309930000002584469847166313904_" transform="translate(-450,-1500)">
					
						<rect id="rect171704_00000109017143566727269260000006023605369918010501_" x="-1012.5" y="1350" fill="#010101" width="75" height="75"/>
				</g>
				<g id="g171723_00000081647546131183543150000016802410717005364143_" transform="translate(229.688,-150)">
					<g>
						<path fill="#FDD700" d="M-1626.5,19.6v17h-26.5v-17H-1626.5z M-1651.6,21.8v12.5l10.4-6.3L-1651.6,21.8z M-1629.3,21h-20.9
							l10.4,6.3L-1629.3,21z M-1650.2,35.2h20.9l-10.4-6.3L-1650.2,35.2z M-1638.4,28.1l10.4,6.3V21.8L-1638.4,28.1z"/>
					</g>
					<g>
						<path fill="#FDD700" d="M-1665.9,53.3v-1.4c3.7-5.1,4.7-6,4.7-8.2c0-1-0.5-1.7-1.5-1.7c-1.2,0-1.5,1-1.5,2h-1.7
							c-0.1-2.1,0.9-3.4,3-3.4c2.3,0,3.3,1,3.3,3.3c0,2.8-1.4,3.7-4.6,8h5v1.4H-1665.9z"/>
						<path fill="#FDD700" d="M-1651.3,47.1c0,3.3,0,6.5-3.4,6.5s-3.4-3.2-3.4-6.5c0-3.4-0.1-6.5,3.4-6.5S-1651.3,43.7-1651.3,47.1z
							 M-1656.4,47.4c0,2.1-0.1,4.8,1.7,4.8c1.8,0,1.7-2.6,1.7-4.8c0-3.4,0-5.4-1.7-5.4S-1656.4,44-1656.4,47.4z"/>
						<path fill="#FDD700" d="M-1650.2,50.2v-1.4l3.5-8h2.2v8h1.5v1.4h-1.5v3h-1.5v-3H-1650.2z M-1646.1,48.8v-6.5h0l-2.7,6.5
							H-1646.1z"/>
					</g>
					<g>
						<path fill="#FDD700" d="M-1642.3,9.3h1v7.2h-1V9.3z"/>
						<path fill="#FDD700" d="M-1639.6,9.3h1v7.2h-1V9.3z"/>
					</g>
					<g>
						<path fill="#FDD700" d="M-1663,23.9c-0.7,0.6-1.8,1.2-2.6,1.6v-1.6c1-0.5,2.1-1.2,2.7-1.7h1.4v11.1h-1.5V23.9z"/>
					</g>
					<g>
						<path fill="#FDD700" d="M-1673,63.3v-1l2.4-5.3h1.5v5.3h1v1h-1v2h-1v-2H-1673z M-1670.2,62.3V58h0l-1.8,4.3H-1670.2z"/>
						<path fill="#FDD700" d="M-1660.5,59.1c0-0.5,0-1-0.3-1.3c-0.2-0.3-0.7-0.4-1-0.4c-0.9,0-1.3,0.6-1.3,0.7
							c0,0.1-0.3,0.3-0.3,1.8v2.3c0,2.1,0.7,2.4,1.5,2.4c0.3,0,1.4-0.1,1.4-1.8h1.1c0,2.7-1.9,2.7-2.4,2.7c-1.1,0-2.7-0.1-2.7-3.4
							v-2.4c0-2.4,1.1-3.1,2.8-3.1c1.7,0,2.4,0.9,2.3,2.6H-1660.5z"/>
						<path fill="#FDD700" d="M-1653.8,59.1c0-0.5,0-1-0.3-1.3c-0.2-0.3-0.7-0.4-1-0.4c-0.9,0-1.3,0.6-1.3,0.7
							c0,0.1-0.3,0.3-0.3,1.8v2.3c0,2.1,0.7,2.4,1.5,2.4c0.3,0,1.4-0.1,1.4-1.8h1.1c0,2.7-1.9,2.7-2.4,2.7c-1.1,0-2.7-0.1-2.7-3.4
							v-2.4c0-2.4,1.1-3.1,2.8-3.1c1.7,0,2.4,0.9,2.3,2.6H-1653.8z"/>
						<path fill="#FDD700" d="M-1645,56.7v8.7h-1.5l-3.4-7.5h0v7.5h-1v-8.7h1.6l3.4,7.4h0v-7.4H-1645z"/>
						<path fill="#FDD700" d="M-1637,56.7v8.7h-1.5l-3.4-7.5h0v7.5h-1v-8.7h1.6l3.4,7.4h0v-7.4H-1637z"/>
					</g>
				</g>
			</g>
			<g id="IT_IT_204_-_4CCNN__ART__300_00000083785046724766111760000015580201783343452305_" transform="translate(1537.5,150)">
				<g id="g171728_00000157269180518497546140000009317377167620970173_" transform="translate(-450,-1500)">
					
						<rect id="rect171726_00000023263238098318903030000009329694142280666287_" x="-1012.5" y="1350" fill="#010101" width="75" height="75"/>
				</g>
			</g>
		</g>
	</g>
</g>
<g id="text" display="none">
	
		<rect id="frontbox" x="-1462.5" y="-150" display="inline" fill="none" stroke="#000000" stroke-miterlimit="10" width="1650" height="1275"/>
	<g id="align" display="inline">
	</g>
</g>
<g id="crop" display="none">
	<g id="front" display="inline">
		<line fill="none" stroke="#939598" stroke-miterlimit="10" x1="-609.4" y1="0" x2="159.4" y2="0"/>
		<line fill="none" stroke="#939598" stroke-miterlimit="10" x1="-609.4" y1="75" x2="159.4" y2="75"/>
		<line fill="none" stroke="#939598" stroke-miterlimit="10" x1="0" y1="-84.4" x2="0" y2="84.4"/>
		<line fill="none" stroke="#939598" stroke-miterlimit="10" x1="75" y1="-84.4" x2="75" y2="84.4"/>
	</g>
</g>
<g id="guides" display="none">
</g>
</svg>
