<?xml version="1.0" encoding="utf-8"?>
<!-- Generator: Adobe Illustrator 26.0.3, SVG Export Plug-In . SVG Version: 6.00 Build 0)  -->
<svg version="1.2" baseProfile="tiny" xmlns="http://www.w3.org/2000/svg" xmlns:xlink="http://www.w3.org/1999/xlink" x="0px"
	 y="0px" viewBox="0 0 75 75" overflow="visible" xml:space="preserve">
<g id="svg">
	<g>
		<g id="cs_layer_CNA_0002_00000023283088047694392320000015410210321053132443_">
			<g id="g169366_00000060018564281457370690000011209304467157080227_">
			</g>
			<g id="IT_IT_59_-_9CCNN_III_303_00000102540345866082992090000007610180431565864118_" transform="translate(1012.5,262.5)">
				<g id="g171794_00000037679588664701856220000009955473522084755106_" transform="translate(-450,-1500)">
					
						<rect id="rect171792_00000039130204513409170230000016022792101267134644_" x="-562.5" y="1237.5" fill="#010101" width="75" height="75"/>
				</g>
				<g id="g171811_00000031909682805055549490000000891435365263572412_" transform="translate(229.688,-150)">
					<g>
						<path fill="#FDD700" d="M-1176.5-92.9v17h-26.5v-17H-1176.5z M-1201.6-90.7v12.5l10.4-6.3L-1201.6-90.7z M-1179.3-91.5h-20.9
							l10.4,6.3L-1179.3-91.5z M-1200.2-77.3h20.9l-10.4-6.3L-1200.2-77.3z M-1188.4-84.4l10.4,6.3v-12.5L-1188.4-84.4z"/>
					</g>
					<g>
						<path fill="#FDD700" d="M-1205.8-71.7v1.4h-4.2v3.6l0,0c0.3-0.5,1.1-0.9,2-0.9c1.8,0,2.6,1.3,2.6,4.2c0,2-0.3,4.4-3.4,4.4
							c-2.6,0-3.1-1.4-3.1-3.1h1.7c0,1,0.4,1.9,1.5,1.9c1.6,0,1.7-1.5,1.7-2.8c0-1.8-0.1-3.2-1.6-3.2c-0.9,0-1.4,0.6-1.5,1.5h-1.5
							v-7H-1205.8z"/>
						<path fill="#FDD700" d="M-1197.3-65.4c0,3.3,0,6.5-3.4,6.5c-1.9,0-3.1-1.3-3.1-3.3h1.7c0,0.9,0.4,1.9,1.4,1.9
							c1.6,0,1.7-1.8,1.7-5h0c-0.4,0.9-1.2,1.2-2.1,1.2c-1,0-2.9-0.5-2.9-3.9c0-2.8,1.7-3.8,3.3-3.8
							C-1197.3-71.9-1197.3-68.8-1197.3-65.4z M-1202.4-68.1c0,1.2,0.2,2.6,1.7,2.6s1.7-1.4,1.7-2.6c0-1.1-0.3-2.6-1.7-2.6
							S-1202.4-69.3-1202.4-68.1z"/>
					</g>
					<g>
						<path fill="#FDD700" d="M-1192.3-103.2h1v7.2h-1V-103.2z"/>
						<path fill="#FDD700" d="M-1189.6-103.2h1v7.2h-1V-103.2z"/>
					</g>
					<g>
						<path fill="#FDD700" d="M-1213-88.6c-0.7,0.6-1.8,1.2-2.6,1.6v-1.6c1-0.5,2.1-1.2,2.7-1.7h1.4v11.1h-1.5V-88.6z"/>
					</g>
					<g>
						<path fill="#FDD700" d="M-1224.7-51.3c0,2.2,0,4.3-2.2,4.3c-1.2,0-2.1-0.9-2.1-2.2h1.1c0,0.6,0.2,1.2,0.9,1.2
							c1.1,0,1.1-1.2,1.1-3.3h0c-0.3,0.6-0.8,0.8-1.4,0.8c-0.7,0-1.9-0.3-1.9-2.6c0-1.9,1.1-2.6,2.2-2.6
							C-1224.7-55.6-1224.7-53.5-1224.7-51.3z M-1228.1-53.1c0,0.8,0.2,1.7,1.1,1.7c1,0,1.1-0.9,1.1-1.7c0-0.8-0.2-1.7-1.1-1.7
							C-1227.9-54.8-1228.1-53.9-1228.1-53.1z"/>
						<path fill="#FDD700" d="M-1216.9-53.4c0-0.5,0-1-0.3-1.3c-0.2-0.3-0.7-0.4-1-0.4c-0.9,0-1.3,0.6-1.3,0.7
							c0,0.1-0.3,0.3-0.3,1.8v2.3c0,2.1,0.7,2.4,1.5,2.4c0.3,0,1.4-0.1,1.4-1.8h1.1c0,2.7-1.9,2.7-2.4,2.7c-1.1,0-2.7-0.1-2.7-3.4
							v-2.4c0-2.4,1.1-3.1,2.8-3.1c1.7,0,2.4,0.9,2.3,2.6H-1216.9z"/>
						<path fill="#FDD700" d="M-1210.2-53.4c0-0.5,0-1-0.3-1.3c-0.2-0.3-0.7-0.4-1-0.4c-0.9,0-1.3,0.6-1.3,0.7
							c0,0.1-0.3,0.3-0.3,1.8v2.3c0,2.1,0.7,2.4,1.5,2.4c0.3,0,1.4-0.1,1.4-1.8h1.1c0,2.7-1.9,2.7-2.4,2.7c-1.1,0-2.7-0.1-2.7-3.4
							v-2.4c0-2.4,1.1-3.1,2.8-3.1c1.7,0,2.4,0.9,2.3,2.6H-1210.2z"/>
						<path fill="#FDD700" d="M-1201.3-55.8v8.7h-1.5l-3.4-7.5h0v7.5h-1v-8.7h1.6l3.4,7.4h0v-7.4H-1201.3z"/>
						<path fill="#FDD700" d="M-1193.3-55.8v8.7h-1.5l-3.4-7.5h0v7.5h-1v-8.7h1.6l3.4,7.4h0v-7.4H-1193.3z"/>
						<path fill="#FDD700" d="M-1187.4-47.2h-1.1v-8.7h1.1V-47.2z"/>
						<path fill="#FDD700" d="M-1184.1-47.2h-1.1v-8.7h1.1V-47.2z"/>
						<path fill="#FDD700" d="M-1180.7-47.2h-1.1v-8.7h1.1V-47.2z"/>
					</g>
				</g>
			</g>
			<g id="IT_IT_60_-_9CCNN_III_304_00000176005637316753184710000004425876261516401848_" transform="translate(1087.5,262.5)">
				<g id="g171816_00000079484476929529751330000016241268523568182970_" transform="translate(-450,-1500)">
					
						<rect id="rect171814_00000150074145713014297600000008970745336379525809_" x="-562.5" y="1237.5" fill="#010101" width="75" height="75"/>
				</g>
			</g>
		</g>
	</g>
</g>
<g id="text" display="none">
	
		<rect id="frontbox" x="-1012.5" y="-262.5" display="inline" fill="none" stroke="#000000" stroke-miterlimit="10" width="1650" height="1275"/>
	<g id="align" display="inline">
	</g>
</g>
<g id="crop" display="none">
	<g id="front" display="inline">
		<g>
			<line fill="none" stroke="#939598" stroke-miterlimit="10" x1="-159.4" y1="0" x2="609.4" y2="0"/>
			<line fill="none" stroke="#939598" stroke-miterlimit="10" x1="-159.4" y1="75" x2="609.4" y2="75"/>
			<line fill="none" stroke="#939598" stroke-miterlimit="10" x1="0" y1="-9.4" x2="0" y2="159.4"/>
			<line fill="none" stroke="#939598" stroke-miterlimit="10" x1="75" y1="-9.4" x2="75" y2="159.4"/>
		</g>
	</g>
</g>
<g id="guides" display="none">
</g>
</svg>
