<?xml version="1.0" encoding="utf-8"?>
<!-- Generator: Adobe Illustrator 26.0.3, SVG Export Plug-In . SVG Version: 6.00 Build 0)  -->
<svg version="1.2" baseProfile="tiny" xmlns="http://www.w3.org/2000/svg" xmlns:xlink="http://www.w3.org/1999/xlink" x="0px"
	 y="0px" viewBox="0 0 75 75" overflow="visible" xml:space="preserve">
<g id="svg">
	<g>
		<g id="cs_layer_CNA_0002_00000023283088047694392320000015410210321053132443_">
			<g id="g169366_00000060018564281457370690000011209304467157080227_">
			</g>
			<g id="IT_IT_7_-_7CCNN_III_302_00000158020972958923499830000003818041843036579747_" transform="translate(937.5,262.5)">
				<g id="g171772_00000030464688349113187870000010279583317687859386_" transform="translate(-450,-1500)">
					
						<rect id="rect171770_00000098195894506836437050000003709912088683597991_" x="-487.5" y="1237.5" fill="#010101" width="75" height="75"/>
				</g>
				<g id="g171789_00000070076331658866447460000017696480702504954519_" transform="translate(229.688,-150)">
					<g>
						<path fill="#FDD700" d="M-1101.5-92.9v17h-26.5v-17H-1101.5z M-1126.6-90.7v12.5l10.4-6.3L-1126.6-90.7z M-1104.3-91.5h-20.9
							l10.4,6.3L-1104.3-91.5z M-1125.2-77.3h20.9l-10.4-6.3L-1125.2-77.3z M-1113.4-84.4l10.4,6.3v-12.5L-1113.4-84.4z"/>
					</g>
					<g>
						<path fill="#FDD700" d="M-1133.1-71.7h6.5v1.4l-3.3,11.1h-1.9l3.5-11.1h-4.8V-71.7z"/>
					</g>
					<g>
						<path fill="#FDD700" d="M-1117.3-103.2h1v7.2h-1V-103.2z"/>
						<path fill="#FDD700" d="M-1114.6-103.2h1v7.2h-1V-103.2z"/>
					</g>
					<g>
						<path fill="#FDD700" d="M-1138-88.6c-0.7,0.6-1.8,1.2-2.6,1.6v-1.6c1-0.5,2.1-1.2,2.7-1.7h1.4v11.1h-1.5V-88.6z"/>
					</g>
					<g>
						<path fill="#FDD700" d="M-1154.3-55.5h4.3v1l-2.2,7.4h-1.2l2.3-7.4h-3.2V-55.5z"/>
						<path fill="#FDD700" d="M-1141.9-53.4c0-0.5,0-1-0.3-1.3c-0.2-0.3-0.7-0.4-1-0.4c-0.9,0-1.3,0.6-1.3,0.7
							c0,0.1-0.3,0.3-0.3,1.8v2.3c0,2.1,0.7,2.4,1.5,2.4c0.3,0,1.4-0.1,1.4-1.8h1.1c0,2.7-1.9,2.7-2.4,2.7c-1.1,0-2.7-0.1-2.7-3.4
							v-2.4c0-2.4,1.1-3.1,2.8-3.1c1.7,0,2.4,0.9,2.3,2.6H-1141.9z"/>
						<path fill="#FDD700" d="M-1135.2-53.4c0-0.5,0-1-0.3-1.3c-0.2-0.3-0.7-0.4-1-0.4c-0.9,0-1.3,0.6-1.3,0.7
							c0,0.1-0.3,0.3-0.3,1.8v2.3c0,2.1,0.7,2.4,1.5,2.4c0.3,0,1.4-0.1,1.4-1.8h1.1c0,2.7-1.9,2.7-2.4,2.7c-1.1,0-2.7-0.1-2.7-3.4
							v-2.4c0-2.4,1.1-3.1,2.8-3.1c1.7,0,2.4,0.9,2.3,2.6H-1135.2z"/>
						<path fill="#FDD700" d="M-1126.3-55.8v8.7h-1.5l-3.4-7.5h0v7.5h-1v-8.7h1.6l3.4,7.4h0v-7.4H-1126.3z"/>
						<path fill="#FDD700" d="M-1118.3-55.8v8.7h-1.5l-3.4-7.5h0v7.5h-1v-8.7h1.6l3.4,7.4h0v-7.4H-1118.3z"/>
						<path fill="#FDD700" d="M-1112.4-47.2h-1.1v-8.7h1.1V-47.2z"/>
						<path fill="#FDD700" d="M-1109.1-47.2h-1.1v-8.7h1.1V-47.2z"/>
						<path fill="#FDD700" d="M-1105.7-47.2h-1.1v-8.7h1.1V-47.2z"/>
					</g>
				</g>
			</g>
			<g id="IT_IT_59_-_9CCNN_III_303_00000102540345866082992090000007610180431565864118_" transform="translate(1012.5,262.5)">
				<g id="g171794_00000037679588664701856220000009955473522084755106_" transform="translate(-450,-1500)">
					
						<rect id="rect171792_00000039130204513409170230000016022792101267134644_" x="-487.5" y="1237.5" fill="#010101" width="75" height="75"/>
				</g>
			</g>
		</g>
	</g>
</g>
<g id="text" display="none">
	
		<rect id="frontbox" x="-937.5" y="-262.5" display="inline" fill="none" stroke="#000000" stroke-miterlimit="10" width="1650" height="1275"/>
	<g id="align" display="inline">
	</g>
</g>
<g id="crop" display="none">
	<g id="front" display="inline">
		<g>
			<line fill="none" stroke="#939598" stroke-miterlimit="10" x1="-84.4" y1="0" x2="684.4" y2="0"/>
			<line fill="none" stroke="#939598" stroke-miterlimit="10" x1="-84.4" y1="75" x2="684.4" y2="75"/>
			<line fill="none" stroke="#939598" stroke-miterlimit="10" x1="0" y1="-9.4" x2="0" y2="159.4"/>
			<line fill="none" stroke="#939598" stroke-miterlimit="10" x1="75" y1="-9.4" x2="75" y2="159.4"/>
		</g>
	</g>
</g>
<g id="guides" display="none">
</g>
</svg>
