<?xml version="1.0" encoding="utf-8"?>
<!-- Generator: Adobe Illustrator 26.0.3, SVG Export Plug-In . SVG Version: 6.00 Build 0)  -->
<svg version="1.2" baseProfile="tiny" xmlns="http://www.w3.org/2000/svg" xmlns:xlink="http://www.w3.org/1999/xlink" x="0px"
	 y="0px" viewBox="0 0 75 75" overflow="visible" xml:space="preserve">
<g id="svg">
	<g>
		<g id="cs_layer_CNA_0002_00000023283088047694392320000015410210321053132443_">
			<g id="g169366_00000060018564281457370690000011209304467157080227_">
			</g>
			<g id="IT_IT_204_-_4CCNN__ENG__301_00000004535595586702122040000015714198389461514424_" transform="translate(862.5,262.5)">
				<g id="g171750_00000022561738044919902470000016516935454397677475_" transform="translate(-450,-1500)">
					
						<rect id="rect171748_00000065052405891051923550000014347251381782487696_" x="-412.5" y="1237.5" fill="#010101" width="75" height="75"/>
				</g>
				<g id="g171767_00000027582095322480326410000011595836169136207515_" transform="translate(229.688,-150)">
					<g>
						<path fill="#FDD700" d="M-1026.5-92.9v17h-26.5v-17H-1026.5z M-1028-91.5h-23.6v14.2h23.6V-91.5z M-1046.6-79.8h-1.3V-89h16.2
							v1.3h0v7.8h-1.3v-7.8h-6.1v7.8h-1.3v-7.8h-6.1V-79.8z"/>
					</g>
					<g>
						<path fill="#FDD700" d="M-1065.9-59.2v-1.4c3.7-5.1,4.7-6,4.7-8.2c0-1-0.5-1.7-1.5-1.7c-1.2,0-1.5,1-1.5,2h-1.7
							c-0.1-2.1,0.9-3.4,3-3.4c2.3,0,3.3,1,3.3,3.3c0,2.8-1.4,3.7-4.6,8h5v1.4H-1065.9z"/>
						<path fill="#FDD700" d="M-1051.3-65.4c0,3.3,0,6.5-3.4,6.5s-3.4-3.2-3.4-6.5c0-3.4-0.1-6.5,3.4-6.5S-1051.3-68.8-1051.3-65.4z
							 M-1056.4-65.1c0,2.1-0.1,4.8,1.7,4.8c1.8,0,1.7-2.6,1.7-4.8c0-3.4,0-5.4-1.7-5.4S-1056.4-68.5-1056.4-65.1z"/>
						<path fill="#FDD700" d="M-1050.2-62.3v-1.4l3.5-8h2.2v8h1.5v1.4h-1.5v3h-1.5v-3H-1050.2z M-1046.1-63.7v-6.5h0l-2.7,6.5
							H-1046.1z"/>
					</g>
					<g>
						<path fill="#FDD700" d="M-1042.3-103.2h1v7.2h-1V-103.2z"/>
						<path fill="#FDD700" d="M-1039.6-103.2h1v7.2h-1V-103.2z"/>
					</g>
					<g>
						<path fill="#FDD700" d="M-1063-88.6c-0.7,0.6-1.8,1.2-2.6,1.6v-1.6c1-0.5,2.1-1.2,2.7-1.7h1.4v11.1h-1.5V-88.6z"/>
					</g>
					<g>
						<path fill="#FDD700" d="M-1073-49.2v-1l2.4-5.3h1.5v5.3h1v1h-1v2h-1v-2H-1073z M-1070.2-50.2v-4.3h0l-1.8,4.3H-1070.2z"/>
						<path fill="#FDD700" d="M-1060.5-53.4c0-0.5,0-1-0.3-1.3c-0.2-0.3-0.7-0.4-1-0.4c-0.9,0-1.3,0.6-1.3,0.7
							c0,0.1-0.3,0.3-0.3,1.8v2.3c0,2.1,0.7,2.4,1.5,2.4c0.3,0,1.4-0.1,1.4-1.8h1.1c0,2.7-1.9,2.7-2.4,2.7c-1.1,0-2.7-0.1-2.7-3.4
							v-2.4c0-2.4,1.1-3.1,2.8-3.1c1.7,0,2.4,0.9,2.3,2.6H-1060.5z"/>
						<path fill="#FDD700" d="M-1053.8-53.4c0-0.5,0-1-0.3-1.3c-0.2-0.3-0.7-0.4-1-0.4c-0.9,0-1.3,0.6-1.3,0.7
							c0,0.1-0.3,0.3-0.3,1.8v2.3c0,2.1,0.7,2.4,1.5,2.4c0.3,0,1.4-0.1,1.4-1.8h1.1c0,2.7-1.9,2.7-2.4,2.7c-1.1,0-2.7-0.1-2.7-3.4
							v-2.4c0-2.4,1.1-3.1,2.8-3.1c1.7,0,2.4,0.9,2.3,2.6H-1053.8z"/>
						<path fill="#FDD700" d="M-1045-55.8v8.7h-1.5l-3.4-7.5h0v7.5h-1v-8.7h1.6l3.4,7.4h0v-7.4H-1045z"/>
						<path fill="#FDD700" d="M-1037-55.8v8.7h-1.5l-3.4-7.5h0v7.5h-1v-8.7h1.6l3.4,7.4h0v-7.4H-1037z"/>
					</g>
				</g>
			</g>
			<g id="IT_IT_7_-_7CCNN_III_302_00000158020972958923499830000003818041843036579747_" transform="translate(937.5,262.5)">
				<g id="g171772_00000030464688349113187870000010279583317687859386_" transform="translate(-450,-1500)">
					
						<rect id="rect171770_00000098195894506836437050000003709912088683597991_" x="-412.5" y="1237.5" fill="#010101" width="75" height="75"/>
				</g>
			</g>
		</g>
	</g>
</g>
<g id="text" display="none">
	
		<rect id="frontbox" x="-862.5" y="-262.5" display="inline" fill="none" stroke="#000000" stroke-miterlimit="10" width="1650" height="1275"/>
	<g id="align" display="inline">
	</g>
</g>
<g id="crop" display="none">
	<g id="front" display="inline">
		<g>
			<line fill="none" stroke="#939598" stroke-miterlimit="10" x1="-9.4" y1="0" x2="759.4" y2="0"/>
			<line fill="none" stroke="#939598" stroke-miterlimit="10" x1="-9.4" y1="75" x2="759.4" y2="75"/>
			<line fill="none" stroke="#939598" stroke-miterlimit="10" x1="0" y1="-9.4" x2="0" y2="159.4"/>
			<line fill="none" stroke="#939598" stroke-miterlimit="10" x1="75" y1="-9.4" x2="75" y2="159.4"/>
		</g>
	</g>
</g>
<g id="guides" display="none">
</g>
</svg>
