<svg version="1.2" baseProfile="tiny" xmlns="http://www.w3.org/2000/svg" viewBox="0 0 75 75" overflow="visible" xml:space="preserve"><path fill="#F04A23" d="M0 0h75v75H0z"/><path fill="#FFF" d="M14.1 25.2h29.4v19.6H14.1V25.2zM27.3 35l-11.6-7.8v15.5L27.3 35zM18 26.8 28.8 34l10.8-7.2H18zM28.8 36 18 43.2h21.6L28.8 36zm1.4-1 11.6 7.8V27.3L30.2 35z"/><g fill="#FFF"><path d="m16.3 60.6 6.3-8.5h1.2v8.5H25v2h-1.2v3h-2.7v-3h-4.8v-2zm1 0h3.8v-5.2l-3.8 5.2zM32 62h-5.7v-2H32v2zM40.8 65.6H33v-.2c2.4-2.8 3.8-4.8 4.4-5.7s.8-1.9.8-2.9c0-.7-.2-1.3-.6-1.7s-.9-.7-1.6-.7c-1 0-1.8.5-2.3 1.5l-.4-.1c.4-1.2.9-2.2 1.6-2.8s1.5-.9 2.5-.9c.7 0 1.3.2 1.8.5s1 .7 1.3 1.3.5 1.1.5 1.5c0 .9-.2 1.7-.7 2.6-.7 1.2-2.1 2.9-4.3 5h2.9c.7 0 1.2 0 1.4-.1s.4-.2.5-.3.3-.4.5-.9h.4l-.9 3.9zM48.7 62H43v-2h5.7v2zM49.6 60.6l6.3-8.5h1.2v8.5h1.2v2h-1.2v3h-2.7v-3h-4.8v-2zm1 0h3.8v-5.2l-3.8 5.2z"/></g><path fill="#FFF" d="M54.7 28.7h6.2l-1 2.5h-5.2l-.5 1.3c2.2.1 4 .6 5.2 1.7 1 .9 1.5 1.9 1.5 3.2 0 .8-.2 1.6-.7 2.4s-1.1 1.4-2 1.8-1.8.6-2.8.6c-1.1 0-1.9-.2-2.5-.6-.4-.3-.6-.6-.6-1 0-.3.1-.5.3-.7s.5-.3.7-.3c.3 0 .5.1.8.2s.7.4 1.3.8c.4.3.7.5 1 .6.2.1.4.1.7.1.5 0 1-.2 1.4-.6s.6-.9.6-1.4c0-1.1-.6-2.1-1.7-2.8s-2.6-1.1-4.3-1.1h-.8l2.4-6.7z"/><g fill="#FFF"><path d="M27.8 9.8v1H25v2.4c.2-.4.8-.6 1.3-.6 1.2 0 1.7.9 1.7 2.8 0 1.3-.2 2.9-2.3 2.9-1.7 0-2.1-.9-2.1-2.1h1.1c0 .6.3 1.3 1 1.3 1 0 1.1-1 1.1-1.8 0-1.2 0-2.2-1.1-2.2-.6 0-.9.4-1 1h-1V9.8h4.1zM33.5 14c0 2.2 0 4.3-2.2 4.3-2.3 0-2.2-2.1-2.2-4.3 0-2.2 0-4.3 2.2-4.3 2.2-.1 2.2 2 2.2 4.3zm-3.4.2c0 1.4-.1 3.2 1.1 3.2 1.2 0 1.1-1.8 1.1-3.2 0-2.2 0-3.6-1.1-3.6s-1.1 1.3-1.1 3.6zM34.4 19.2h-.8l2.8-9.8h.8l-2.8 9.8zM39.3 13.2c1 .1 1.7-.3 1.7-1.4 0-.8-.3-1.3-1.2-1.3-.9 0-1.1.7-1 1.4h-1.1c-.1-1.4.6-2.3 2.1-2.3 1.4 0 2.3.7 2.3 2.2 0 1.6-1.2 1.8-1.6 1.9 1.3.2 1.7.9 1.7 2.1 0 1.6-.9 2.4-2.5 2.4-2.3 0-2.1-2-2.1-2.5h1.1c0 .8.1 1.5 1.1 1.5s1.3-.6 1.3-1.5c0-1.3-.5-1.6-1.8-1.6v-.9zM44.4 12.9c.4-.9.9-1 1.9-1v1h-.6c-1.1 0-1.4.8-1.4 1.6v3.6h-1V12h1v.9zM50.6 9.4h1v8.7h-1v-.7c-.3.6-.8.8-1.4.8-1 0-2-.4-2-3 0-1.5 0-3.3 2-3.3.6 0 1 .3 1.3.7V9.4zm-1.1 3.3c-1.1 0-1.2.8-1.2 2.5 0 .9 0 2.2 1.2 2.2 1.1 0 1.1-1.4 1.1-2.6 0-.8 0-2.1-1.1-2.1z"/></g><path fill="#F04A23" d="M75 0h75v75H75z"/><path fill="none" stroke="#000" stroke-miterlimit="10" d="M-337.5-75h1650v1275h-1650z"/></svg>