<svg version="1.2" baseProfile="tiny" xmlns="http://www.w3.org/2000/svg" viewBox="0 0 75 75" overflow="visible" xml:space="preserve"><path fill="#F04A23" d="M0-75h75V0H0zM0 0h75v75H0z"/><path fill="#FFF" d="M14.1 25.2h29.4v19.6H14.1V25.2zM27.3 35l-11.6-7.8v15.5L27.3 35zM18 26.8 28.8 34l10.8-7.2H18zM28.8 36 18 43.2h21.6L28.8 36zm1.4-1 11.6 7.8V27.2L30.2 35z"/><g fill="#FFF"><path d="M18.9 52.4h6.2l-1 2.5h-5.2l-.5 1.3c2.2.1 4 .6 5.2 1.7 1 .9 1.5 1.9 1.5 3.2 0 .8-.2 1.6-.7 2.4-.5.8-1.1 1.4-2 1.8s-1.8.6-2.8.6c-1.1 0-1.9-.2-2.5-.6-.4-.3-.6-.6-.6-1 0-.3.1-.5.3-.7s.5-.3.7-.3c.3 0 .5.1.8.2.3.1.7.4 1.3.8.4.3.7.5 1 .6.2.1.4.1.7.1.5 0 1-.2 1.4-.6s.6-.9.6-1.4c0-1.1-.6-2.1-1.7-2.8-1.1-.7-2.6-1.1-4.3-1.1h-.8l2.4-6.7zM32 62h-5.7v-2H32v2zM35.4 59v-.3c.7-.2 1.3-.4 1.5-.6s.5-.5.7-.8.3-.8.3-1.2c0-.5-.2-1-.6-1.4-.4-.4-.9-.6-1.5-.6-.9 0-1.7.5-2.3 1.4l-.4-.1c.5-1.1 1.1-1.9 1.8-2.5s1.5-.8 2.4-.8c.9 0 1.7.3 2.3.8.6.6.9 1.2.9 2 0 .5-.1 1-.4 1.4-.3.5-.7.9-1.3 1.2.8.4 1.3.8 1.7 1.4.4.5.6 1.2.6 2 0 1.4-.5 2.6-1.5 3.5s-2.3 1.5-4 1.5c-1.1 0-1.9-.2-2.5-.6-.4-.3-.6-.6-.6-1 0-.3.1-.6.3-.8.2-.2.5-.3.7-.3.2 0 .4 0 .6.1.1.1.5.3 1.1.9s1.2.8 1.8.8c.5 0 .9-.2 1.2-.6s.5-.9.5-1.5c0-.9-.3-1.7-.9-2.5s-1.2-1.1-2.4-1.4zM48.7 62H43v-2h5.7v2zM52.2 52.4h6.2l-1 2.5h-5.2l-.5 1.3c2.2.1 4 .6 5.2 1.7 1 .9 1.5 1.9 1.5 3.2 0 .8-.2 1.6-.7 2.4-.5.8-1.1 1.4-2 1.8s-1.8.6-2.8.6c-1.1 0-1.9-.2-2.5-.6-.4-.3-.6-.6-.6-1 0-.3.1-.5.3-.7s.5-.3.7-.3c.3 0 .5.1.8.2.3.1.7.4 1.3.8.4.3.7.5 1 .6.2.1.4.1.7.1.5 0 1-.2 1.4-.6s.6-.9.6-1.4c0-1.1-.6-2.1-1.7-2.8-1.1-.7-2.6-1.1-4.3-1.1h-.8l2.4-6.7z"/></g><path fill="#FFF" d="M54.7 28.7h6.2l-1 2.5h-5.2l-.5 1.3c2.2.1 4 .6 5.2 1.7 1 .9 1.5 1.9 1.5 3.2 0 .8-.2 1.6-.7 2.4-.5.8-1.1 1.4-2 1.8s-1.8.6-2.8.6c-1.1 0-1.9-.2-2.5-.6-.4-.3-.6-.6-.6-1 0-.3.1-.5.3-.7s.5-.3.7-.3c.3 0 .5.1.8.2.3.1.7.4 1.3.8.4.3.7.5 1 .6.2.1.4.1.7.1.5 0 1-.2 1.4-.6s.6-.9.6-1.4c0-1.1-.6-2.1-1.7-2.8-1.1-.7-2.6-1.1-4.3-1.1h-.8l2.4-6.7z"/><g fill="#FFF"><path d="M27 11.7c0-1-.4-1.6-1.5-1.6-.3 0-1.6.1-1.6 1.9v3c0 1.9.6 2.4 1.6 2.4.8 0 1.3-.2 1.5-.4v-2.6h-1.6v-1h2.7v4.2c-.7.4-1.5.6-2.7.6-1.8 0-2.7-.9-2.7-3.3v-2.8c0-1.7.9-2.8 2.7-2.8 1.9 0 2.8.7 2.7 2.5H27zM34.4 11.7c0-1-.4-1.6-1.5-1.6-.3 0-1.6.1-1.6 1.9v3c0 1.9.6 2.4 1.6 2.4.8 0 1.3-.2 1.5-.4v-2.6h-1.6v-1h2.7v4.2c-.7.4-1.5.6-2.7.6-1.8 0-2.7-.9-2.7-3.3v-2.8c0-1.7.9-2.8 2.7-2.8 1.9 0 2.8.7 2.7 2.5h-1.1zM37.1 19.2h-.8l2.8-9.8h.8l-2.8 9.8zM43.4 18.1h-1.1V11l-1.2.8v-1.1c.3-.1 1.1-.7 1.4-1h.9v8.4zM47.9 18.2c-1.3 0-2.1-.6-2.1-2h1.1c0 .3 0 1.2 1 1.2.6 0 1-.3 1-.9 0-1.1-3-1.1-3-2.9 0-.6.4-1.7 2.1-1.7 1.1 0 2 .5 1.9 1.7h-1.1c0-.6-.3-1-.9-1-.5 0-.9.3-.9.8 0 1.1 3 1 3 2.9 0 1.4-.9 1.9-2.1 1.9zM51.5 12v-1.2l1-.4V12h1.3v.7h-1.3v3.7c0 .4 0 .9.9.9h.4v.8c-.3 0-.6.1-1 .1-.9 0-1.4-.4-1.4-1.1v-4.3h-1V12h1.1z"/></g><path fill="none" stroke="#000" stroke-miterlimit="10" d="M-487.5-150h1650v1275h-1650z"/></svg>