<svg version="1.2" baseProfile="tiny" xmlns="http://www.w3.org/2000/svg" viewBox="0 0 75 75" overflow="visible" xml:space="preserve"><path fill="#4E69B2" d="M0 0h75v75H0z"/><path fill="#FFF" d="M14.1 25.2h29.4v19.6H14.1V25.2zm27.8 18V26.8H15.7v16.4h26.2zm-13.1-5.3c-1.6 0-2.9-1.3-2.9-2.9s1.3-2.9 2.9-2.9 2.9 1.3 2.9 2.9-1.3 2.9-2.9 2.9z"/><g fill="#FFF"><path d="M18.7 52.7v-.4h7v.4h-.4c-.4 0-.7.1-.9.2-.2.1-.3.2-.4.5-.1.2-.1.6-.1 1.2v6.5c0 1.3-.1 2.2-.4 2.8s-.7 1.1-1.4 1.4c-.6.4-1.4.6-2.3.6-1.1 0-2-.3-2.7-.9s-1-1.2-1-1.9c0-.5.1-.8.4-1.1s.6-.4 1-.4.7.1 1 .4.4.6.4.9c0 .2 0 .3-.1.5 0 .1-.1.2-.3.5s-.3.5-.3.6c0 .2.1.3.3.4.2.2.6.3 1 .3.3 0 .5-.1.7-.2.2-.1.3-.4.4-.7s.1-1.1.1-2.5v-7.1c0-.7 0-1.1-.1-1.3-.1-.2-.2-.3-.4-.4s-.5-.2-.9-.2h-.6zM32.2 52.1v.4c-.7.4-1.2.9-1.5 1.3-.4.6-.8 1.3-1 2.3-.3 1.1-.5 2.7-.5 4.8 0 1.9.1 3.4.4 4.5.3 1.1.7 1.9 1.2 2.6.3.5.8.9 1.4 1.2v.5c-1.6-.5-2.9-1.6-4-3.2s-1.6-3.5-1.6-5.6c0-2.1.5-3.9 1.6-5.5 1.1-1.7 2.5-2.8 4-3.3zM39 52.1v10.8c0 .8 0 1.3.1 1.6s.2.4.4.6c.2.1.6.2 1.1.2h.3v.4h-7v-.4h.4c.6 0 1-.1 1.2-.2.2-.1.4-.3.5-.5.1-.2.1-.8.1-1.6v-6.9c0-.6 0-1-.1-1.1-.1-.2-.2-.3-.3-.4s-.3-.2-.6-.2-.7.1-1.2.3l-.2-.4 4.9-2.2h.4zM42.7 69.6v-.4c.7-.4 1.2-.9 1.5-1.3.4-.6.8-1.3 1-2.2.3-1.1.5-2.7.5-4.8 0-1.9-.1-3.4-.4-4.5s-.7-1.9-1.2-2.6c-.3-.5-.8-.9-1.4-1.2v-.5c1.6.5 2.9 1.6 4 3.2s1.6 3.5 1.6 5.6c0 2.1-.5 3.9-1.6 5.5s-2.4 2.7-4 3.2zM49.6 60.6l6.3-8.5h1.2v8.5h1.2v2h-1.2v3h-2.7v-3h-4.8v-2zm1 0h3.8v-5.2l-3.8 5.2z"/></g><path fill="#FFF" d="M54.6 35.4v-.3c.7-.2 1.3-.4 1.5-.6s.5-.5.7-.8.3-.8.3-1.2c0-.5-.2-1-.6-1.4-.4-.4-.9-.6-1.5-.6-.9 0-1.7.5-2.3 1.4l-.4-.1c.5-1.1 1.1-1.9 1.8-2.5s1.5-.8 2.4-.8c.9 0 1.7.3 2.3.8.6.6.9 1.2.9 2 0 .5-.1 1-.4 1.4-.3.5-.7.9-1.3 1.2.8.4 1.3.8 1.7 1.4.4.5.6 1.2.6 2 0 1.4-.5 2.6-1.5 3.5s-2.3 1.5-4 1.5c-1.1 0-1.9-.2-2.5-.6-.4-.3-.6-.6-.6-1 0-.3.1-.6.3-.8.2-.2.5-.3.7-.3.2 0 .4 0 .6.1.1.1.5.3 1.1.9s1.2.8 1.8.8c.5 0 .9-.2 1.2-.6s.5-.9.5-1.5c0-.9-.3-1.7-.9-2.5s-1.2-1.2-2.4-1.4z"/><g fill="#FFF"><path d="M34.4 18.1h-1.1V11l-1.2.8v-1.1c.3-.1 1.1-.7 1.4-1h.9v8.4zM38.9 18.2c-1.3 0-2.1-.6-2.1-2h1.1c0 .3 0 1.2 1 1.2.6 0 1-.3 1-.9 0-1.1-3-1.1-3-2.9 0-.6.4-1.7 2.1-1.7 1.1 0 2 .5 1.9 1.7h-1.1c0-.6-.3-1-.9-1-.5 0-.9.3-.9.8 0 1.1 3 1 3 2.9 0 1.4-.9 1.9-2.1 1.9zM42.5 12v-1.2l1-.4V12h1.3v.7h-1.3v3.7c0 .4 0 .9.9.9h.4v.8c-.3 0-.6.1-1 .1-.9 0-1.4-.4-1.4-1.1v-4.3h-1v-.7h1.1z"/></g><path fill="none" stroke="#000" stroke-miterlimit="10" d="M-637.5-637.5h1650v1275h-1650z"/></svg>