<svg version="1.2" baseProfile="tiny" xmlns="http://www.w3.org/2000/svg" viewBox="0 0 75 75" overflow="visible" xml:space="preserve"><path fill="#278C43" d="M0 0h75v75H0z"/><g fill="#FFF"><path d="M22.1 22.7c0-1.9-.8-2.9-2.8-2.9-.6 0-2.9.1-2.9 3.4v5.4c0 3.5 1 4.4 2.9 4.4 1.5 0 2.4-.4 2.8-.7v-4.8h-2.9v-1.8h5v7.7c-1.3.7-2.8 1.2-4.9 1.2-3.4 0-5-1.7-5-6.1v-5.2c0-3.2 1.6-5.2 5-5.2s5.1 1.3 4.9 4.6h-2.1zM33.4 32.7c-.6 1.3-1.5 1.8-2.8 1.8-2.4 0-3-1.5-3-3.7 0-3.4 3.3-3.5 5.8-3.5 0-1.5.1-3.1-1.9-3.1-1.2 0-1.8.8-1.7 2h-2c.1-2.5 1.4-3.3 3.8-3.3 2.9 0 3.6 1.5 3.6 3.3v5.3c0 .9.1 1.8.2 2.6h-2v-1.4zM29.3 31c0 1.1.5 2 1.7 2 1.1 0 2.5-.7 2.3-4.3-1.6.1-4 0-4 2.3zM44.2 34.3v-7.7c0-1.1-.3-2.2-1.8-2.2-.6 0-1.3.3-1.6.7-.3.6-.4 1.2-.4 1.6v7.5h-1.8v-8.8c0-.8 0-1.5-.1-2.3h1.9v1.4c.5-1.2 1.5-1.6 2.8-1.6 1 0 2.2.4 2.6 1.4.6-1.2 1.6-1.4 2.6-1.4 1.2 0 3 .3 3 2.9v8.4h-1.8v-7.7c0-1.1-.3-2.2-1.8-2.2-.7 0-.9 0-1.4.4-.5.4-.6 1.5-.6 2v7.5h-1.6zM56.3 29.3c0 3.1.8 3.7 2.2 3.7 1.2 0 1.9-1 1.9-2.1h2c0 2.5-1.5 3.6-3.9 3.6s-4.2-.7-4.2-5.6c0-3.3.4-5.9 4.2-5.9 3.2 0 4 1.7 4 5.4v.9h-6.2zm4.4-1.3c0-3.2-.9-3.6-2.2-3.6-1.1 0-2.1.5-2.1 3.6h4.3zM29.7 40.4v1.8h-4.2v14.1h-2V42.2h-4.2v-1.8h10.4zM35.9 45.2h1.8V54c0 .8 0 1.5.1 2.3h-1.9V55h-.1c-.6 1-1.7 1.6-2.8 1.6-1.9 0-3-1-3-2.9v-8.5h1.8v7.7c0 1.3.6 2.2 1.9 2.2 1 0 2.2-.7 2.2-2.6v-7.3zM42.8 46.9c.8-1.7 1.7-1.9 3.5-1.9v1.9c-.2 0-.3 0-.5-.1h-.5c-2 0-2.5 1.5-2.5 3v6.6H41V45.3h1.8v1.6zM54.3 56.3v-7.7c0-1.2-.4-2.2-2-2.2-2 0-2.3 1.8-2.3 3.3v6.6h-1.8v-8.8c0-.8 0-1.5-.1-2.3H50v1.4h.1c.7-1.3 1.5-1.6 3-1.6 2.4 0 3 1.4 3 3.6v7.7h-1.8z"/></g><path fill="none" stroke="#000" stroke-miterlimit="10" d="M-712.5-825h1650V450h-1650z"/></svg>