<svg version="1.2" baseProfile="tiny" xmlns="http://www.w3.org/2000/svg" viewBox="0 0 75 75" overflow="visible" xml:space="preserve"><path fill="#278C43" d="M0 0h75v75H0z"/><path fill="#FFF" d="M14.1 25.2h29.4v19.6H14.1V25.2zm27.8 18V26.8H15.7v16.4h26.2zm-13.1-5.3c-1.6 0-2.9-1.3-2.9-2.9s1.3-2.9 2.9-2.9 2.9 1.3 2.9 2.9-1.3 2.9-2.9 2.9z"/><g fill="#FFF"><path d="M23 58.6c1.3.3 2.1.6 2.6 1.1.7.6 1.1 1.4 1.1 2.3 0 1-.4 1.8-1.2 2.5-1 .8-2.4 1.2-4.3 1.2h-6.7v-.4c.6 0 1-.1 1.2-.2.2-.1.4-.3.5-.4.1-.2.1-.6.1-1.3v-8.6c0-.7 0-1.2-.1-1.4s-.2-.3-.5-.4c-.2-.1-.6-.2-1.2-.2v-.4h6.3c1.5 0 2.6.1 3.2.4.6.3 1.1.7 1.5 1.2s.5 1.1.5 1.7c0 .6-.2 1.2-.7 1.7s-1.1.9-2.3 1.2zm-3.5.5v4.7c0 .4.1.6.3.8.2.2.4.3.8.3.5 0 1-.1 1.4-.3.4-.2.8-.6 1-1s.4-.9.4-1.5-.1-1.2-.4-1.7c-.3-.5-.7-.8-1.2-1s-1.3-.3-2.3-.3zm0-.8c.9 0 1.6-.1 2-.3.4-.2.8-.5 1-.9.2-.4.4-.9.4-1.4s-.1-1.1-.3-1.4c-.2-.4-.6-.7-1-.9s-1.1-.3-2.1-.3v5.2zM33.9 52.1v.4c-.7.4-1.2.9-1.5 1.3-.4.6-.8 1.3-1 2.3-.3 1.1-.5 2.7-.5 4.8 0 1.9.1 3.4.4 4.5.3 1.1.7 1.9 1.2 2.6.3.5.8.9 1.4 1.2v.5c-1.6-.5-2.9-1.6-4-3.2s-1.6-3.5-1.6-5.6c0-2.1.5-3.9 1.6-5.5 1.1-1.7 2.4-2.8 4-3.3zM40.7 52.1v10.8c0 .8 0 1.3.1 1.6s.2.4.4.6c.2.1.6.2 1.1.2h.3v.4h-7v-.4h.4c.6 0 1-.1 1.2-.2.2-.1.4-.3.5-.5.1-.2.1-.8.1-1.6v-6.9c0-.6 0-1-.1-1.1-.1-.2-.2-.3-.3-.4s-.3-.2-.6-.2-.7.1-1.2.3l-.2-.4 4.9-2.2h.4zM44.4 69.6v-.4c.7-.4 1.2-.9 1.5-1.3.4-.6.8-1.3 1-2.2.3-1.1.5-2.7.5-4.8 0-1.9-.1-3.4-.4-4.5s-.7-1.9-1.2-2.6c-.3-.5-.8-.9-1.4-1.2v-.5c1.6.5 2.9 1.6 4 3.2s1.6 3.5 1.6 5.6c0 2.1-.5 3.9-1.6 5.5s-2.4 2.7-4 3.2zM51.3 60.6l6.3-8.5h1.2v8.5H60v2h-1.2v3h-2.7v-3h-4.8v-2zm1 0h3.8v-5.2l-3.8 5.2z"/></g><path fill="#FFF" d="M59.9 42h-7.8v-.2c2.4-2.8 3.8-4.8 4.4-5.7.5-1 .8-1.9.8-2.9 0-.7-.2-1.3-.6-1.7-.4-.5-.9-.7-1.6-.7-1 0-1.8.5-2.3 1.5l-.4-.1c.4-1.2.9-2.2 1.6-2.8.7-.6 1.5-.9 2.5-.9.7 0 1.3.2 1.8.5s1 .7 1.3 1.3c.3.5.5 1.1.5 1.5 0 .9-.2 1.7-.7 2.6-.7 1.2-2.1 2.9-4.3 5H58c.7 0 1.2 0 1.4-.1s.4-.2.5-.3c.1-.1.3-.4.5-.9h.4l-.9 3.9z"/><g fill="#FFF"><path d="M36 11.7c0-1-.4-1.6-1.5-1.6-.3 0-1.6.1-1.6 1.9v2.9c0 1.9.6 2.4 1.6 2.4.8 0 1.3-.2 1.5-.4v-2.6h-1.6v-1h2.7v4.2c-.7.4-1.5.6-2.7.6-1.8 0-2.7-.9-2.7-3.3V12c0-1.7.9-2.8 2.7-2.8 1.9 0 2.8.7 2.7 2.5H36zM40.3 14.1v4h-1.1V9.4h3c1.5 0 2.1 1.1 2.1 2.2 0 1-.6 1.8-1.6 2 1 .2 1.4.5 1.4 2.2 0 .4.1 1.7.3 2.3h-1.2c-.3-.6-.2-1.7-.3-2.9-.1-1.1-.9-1.1-1.3-1.1h-1.3zm0-1H42c.8 0 1.2-.7 1.2-1.4 0-.6-.3-1.3-1.2-1.3h-1.7v2.7z"/></g><path fill="none" stroke="#000" stroke-miterlimit="10" d="M-637.5-900h1650V375h-1650z"/></svg>