<svg version="1.2" baseProfile="tiny" xmlns="http://www.w3.org/2000/svg" viewBox="0 0 75 75" overflow="visible" xml:space="preserve"><path fill="#278C43" d="M0 0h75v75H0z"/><path fill="#FFF" d="M14.1 25.2h29.4v19.6H14.1V25.2zm27.8 18V26.8H15.7v16.4h26.2zm-13.1-5.3c-1.6 0-2.9-1.3-2.9-2.9s1.3-2.9 2.9-2.9 2.9 1.3 2.9 2.9-1.3 2.9-2.9 2.9z"/><g fill="#FFF"><path d="M21.9 61.8h-4.7l-.6 1.3c-.2.4-.3.8-.3 1.1 0 .4.1.6.4.8.2.1.6.2 1.3.2v.4h-4.4v-.4c.5-.1.9-.3 1.2-.6s.7-1 1.1-2L20.6 52h.2l4.8 10.9c.5 1 .8 1.7 1.1 1.9.2.2.5.3.9.4v.4h-6.4v-.4h.3c.5 0 .9-.1 1.1-.2.1-.1.2-.3.2-.4 0-.1 0-.2-.1-.4 0-.1-.1-.3-.3-.7l-.5-1.7zm-.3-.7-2-4.6-2 4.6h4zM34.5 52.1v.4c-.7.4-1.2.9-1.5 1.3-.4.6-.8 1.3-1 2.3-.3 1.1-.5 2.7-.5 4.8 0 1.9.1 3.4.4 4.5.3 1.1.7 1.9 1.2 2.6.3.5.8.9 1.4 1.2v.5c-1.6-.5-2.9-1.6-4-3.2s-1.6-3.5-1.6-5.6c0-2.1.5-3.9 1.6-5.5 1.1-1.7 2.4-2.8 4-3.3zM41.2 52.1v10.8c0 .8 0 1.3.1 1.6s.2.4.4.6c.2.1.6.2 1.1.2h.3v.4h-7v-.4h.4c.6 0 1-.1 1.2-.2.2-.1.4-.3.5-.5.1-.2.1-.8.1-1.6v-6.9c0-.6 0-1-.1-1.1-.1-.2-.2-.3-.3-.4s-.3-.2-.6-.2-.7.1-1.2.3l-.2-.4 4.9-2.2h.4zM44.9 69.6v-.4c.7-.4 1.2-.9 1.5-1.3.4-.6.8-1.3 1-2.2.3-1.1.5-2.7.5-4.8 0-1.9-.1-3.4-.4-4.5s-.7-1.9-1.2-2.6c-.3-.5-.8-.9-1.4-1.2v-.5c1.6.5 2.9 1.6 4 3.2s1.6 3.5 1.6 5.6c0 2.1-.5 3.9-1.6 5.5s-2.4 2.7-4 3.2zM51.9 60.6l6.3-8.5h1.2v8.5h1.2v2h-1.2v3h-2.7v-3h-4.8v-2zm.9 0h3.8v-5.2l-3.8 5.2z"/></g><path fill="#FFF" d="M54.7 28.7h6.2l-1 2.5h-5.2l-.5 1.3c2.2.1 4 .6 5.2 1.7 1 .9 1.5 1.9 1.5 3.2 0 .8-.2 1.6-.7 2.4-.5.8-1.1 1.4-2 1.8s-1.8.6-2.8.6c-1.1 0-1.9-.2-2.5-.6-.4-.3-.6-.6-.6-1 0-.3.1-.5.3-.7s.5-.3.7-.3c.3 0 .5.1.8.2.3.1.7.4 1.3.8.4.3.7.5 1 .6.2.1.4.1.7.1.5 0 1-.2 1.4-.6s.6-.9.6-1.4c0-1.1-.6-2.1-1.7-2.8-1.1-.7-2.6-1.1-4.3-1.1h-.8l2.4-6.7z"/><g fill="#FFF"><path d="M35.7 11.8c0-.5 0-1-.3-1.3-.2-.3-.7-.4-1-.4-.9 0-1.3.6-1.3.7 0 .1-.3.3-.3 1.8v2.3c0 2.1.7 2.4 1.5 2.4.3 0 1.4-.1 1.4-1.8h1.1c0 2.7-1.9 2.7-2.4 2.7-1.1 0-2.7-.1-2.7-3.4v-2.4c0-2.4 1.1-3.1 2.8-3.1 1.7 0 2.4.9 2.3 2.6h-1.1zM38.7 18.1V9.4h2.8c1.2 0 1.6.4 1.9.9.3.5.3 1 .3 1.2 0 1.1-.4 1.8-1.5 2.1v.1c1.2.1 1.8.9 1.8 2.1 0 2.2-1.6 2.4-2.6 2.4h-2.7zm1.1-5h1.6c.9 0 1.3-.5 1.3-1.4 0-.7-.4-1.3-1.3-1.3h-1.6v2.7zm0 4h1.6c1.2 0 1.6-.8 1.6-1.5 0-1.4-.9-1.6-2-1.6h-1.2v3.1z"/></g><path fill="#278C43" d="M75 0h75v75H75z"/><path fill="none" stroke="#000" stroke-miterlimit="10" d="M-337.5-900h1650V375h-1650z"/></svg>