<svg version="1.2" baseProfile="tiny" xmlns="http://www.w3.org/2000/svg" viewBox="0 0 75 75" overflow="visible" xml:space="preserve"><path fill="#278C43" d="M0 0h75v75H0z"/><path fill="#FFF" d="M14.1 25.2h29.4v19.6H14.1V25.2zM27.3 35l-11.6-7.8v15.5L27.3 35zM18 26.8 28.8 34l10.8-7.2H18zM28.8 36 18 43.2h21.6L28.8 36zm1.4-1 11.6 7.8V27.3L30.2 35z"/><g fill="#FFF"><path d="M18.9 52.1v.4c-.7.4-1.2.9-1.5 1.3-.4.6-.8 1.3-1 2.3-.3 1.1-.5 2.7-.5 4.8 0 1.9.1 3.4.4 4.5.3 1.1.7 1.9 1.2 2.6.3.5.8.9 1.4 1.2v.5c-1.6-.5-2.9-1.6-4-3.2s-1.6-3.5-1.6-5.6c0-2.1.5-3.9 1.6-5.5 1.1-1.7 2.4-2.8 4-3.3zM19.7 60.6l6.3-8.5h1.2v8.5h1.2v2h-1.2v3h-2.7v-3h-4.8v-2zm.9 0h3.8v-5.2l-3.8 5.2zM29.4 69.6v-.4c.7-.4 1.2-.9 1.5-1.3.4-.6.8-1.3 1-2.2.3-1.1.5-2.7.5-4.8 0-1.9-.1-3.4-.4-4.5s-.7-1.9-1.2-2.6c-.3-.5-.8-.9-1.4-1.2v-.5c1.6.5 2.9 1.6 4 3.2s1.6 3.5 1.6 5.6c0 2.1-.5 3.9-1.6 5.5s-2.4 2.7-4 3.2zM38.9 52.4h6.2l-1 2.5h-5.2l-.5 1.3c2.2.1 4 .6 5.2 1.7 1 .9 1.5 1.9 1.5 3.2 0 .8-.2 1.6-.7 2.4-.5.8-1.1 1.4-2 1.8s-1.8.6-2.8.6c-1.1 0-1.9-.2-2.5-.6-.4-.3-.6-.6-.6-1 0-.3.1-.5.3-.7s.5-.3.7-.3c.3 0 .5.1.8.2.3.1.7.4 1.3.8.4.3.7.5 1 .6.2.1.4.1.7.1.5 0 1-.2 1.4-.6s.6-.9.6-1.4c0-1.1-.6-2.1-1.7-2.8-1.1-.7-2.6-1.1-4.3-1.1h-.8l2.4-6.7zM52 62h-5.7v-2H52v2zM53 60.6l6.3-8.5h1.2v8.5h1.2v2h-1.2v3h-2.7v-3H53v-2zm.9 0h3.8v-5.2l-3.8 5.2z"/></g><path fill="#FFF" d="M54.7 28.7h6.2l-1 2.5h-5.2l-.5 1.3c2.2.1 4 .6 5.2 1.7 1 .9 1.5 1.9 1.5 3.2 0 .8-.2 1.6-.7 2.4-.5.8-1.1 1.4-2 1.8s-1.8.6-2.8.6c-1.1 0-1.9-.2-2.5-.6-.4-.3-.6-.6-.6-1 0-.3.1-.5.3-.7s.5-.3.7-.3c.3 0 .5.1.8.2.3.1.7.4 1.3.8.4.3.7.5 1 .6.2.1.4.1.7.1.5 0 1-.2 1.4-.6s.6-.9.6-1.4c0-1.1-.6-2.1-1.7-2.8-1.1-.7-2.6-1.1-4.3-1.1h-.8l2.4-6.7z"/><g fill="#FFF"><path d="M20.6 18.1V9.4h2.8c1.2 0 1.6.4 1.9.9.3.5.3 1 .3 1.2 0 1.1-.4 1.8-1.5 2.1v.1c1.2.1 1.8.9 1.8 2.1 0 2.2-1.6 2.4-2.6 2.4h-2.7zm1.1-5h1.6c.9 0 1.3-.5 1.3-1.4 0-.7-.4-1.3-1.3-1.3h-1.6v2.7zm0 4h1.6c1.2 0 1.6-.8 1.6-1.5 0-1.4-.9-1.6-2-1.6h-1.2v3.1zM27.8 14.9v-2.8c0-1.7.9-2.8 2.7-2.8s2.7 1.1 2.7 2.8v2.8c0 2.4-.9 3.3-2.7 3.3s-2.7-.9-2.7-3.3zm4.4.1v-2.9c0-1.8-1.2-1.9-1.6-1.9s-1.6.1-1.6 1.9V15c0 1.9.6 2.4 1.6 2.4 1-.1 1.6-.5 1.6-2.4zM36.3 14.1v4h-1.1V9.4h3c1.5 0 2.1 1.1 2.1 2.2 0 1-.6 1.8-1.6 2 1 .2 1.4.5 1.4 2.2 0 .4.1 1.7.3 2.3h-1.2c-.3-.6-.2-1.7-.3-2.9-.1-1.1-.9-1.1-1.3-1.1h-1.3zm0-1H38c.8 0 1.2-.7 1.2-1.4 0-.6-.3-1.3-1.2-1.3h-1.7v2.7zM41.4 19.2h-.8l2.8-9.8h.8l-2.8 9.8zM47.7 18.1h-1.1V11l-1.2.8v-1.1c.3-.1 1.1-.7 1.4-1h.9v8.4zM54.4 11.8c0-.5 0-1-.3-1.3-.2-.3-.7-.4-1-.4-.9 0-1.3.6-1.3.7 0 .1-.3.3-.3 1.8v2.3c0 2.1.7 2.4 1.5 2.4.3 0 1.4-.1 1.4-1.8h1.1c0 2.7-1.9 2.7-2.4 2.7-1.1 0-2.7-.1-2.7-3.4v-2.4c0-2.4 1.1-3.1 2.8-3.1 1.7 0 2.4.9 2.3 2.6h-1.1z"/></g><path fill="none" stroke="#000" stroke-miterlimit="10" d="M-487.5-637.5h1650v1275h-1650z"/></svg>