<svg version="1.2" baseProfile="tiny" xmlns="http://www.w3.org/2000/svg" viewBox="0 0 75 75" overflow="visible" xml:space="preserve"><path fill="#278C43" d="M0 0h75v75H0z"/><path fill="#FFF" d="M14.1 25.2h29.4v19.6H14.1V25.2zM27.3 35l-11.6-7.8v15.5L27.3 35zM18 26.8 28.8 34l10.8-7.2H18zM28.8 36 18 43.2h21.6L28.8 36zm1.4-1 11.6 7.8V27.3L30.2 35z"/><g fill="#FFF"><path d="m16.3 60.6 6.3-8.5h1.2v8.5H25v2h-1.2v3h-2.7v-3h-4.8v-2zm1 0h3.8v-5.2l-3.8 5.2zM32 62h-5.7v-2H32v2zM35.5 52.4h6.2l-1 2.5h-5.2l-.5 1.3c2.2.1 4 .6 5.2 1.7 1 .9 1.5 1.9 1.5 3.2 0 .8-.2 1.6-.7 2.4-.5.8-1.1 1.4-2 1.8s-1.8.6-2.8.6c-1.1 0-1.9-.2-2.5-.6-.4-.3-.6-.6-.6-1 0-.3.1-.5.3-.7s.5-.3.7-.3c.3 0 .5.1.8.2.3.1.7.4 1.3.8.4.3.7.5 1 .6.2.1.4.1.7.1.5 0 1-.2 1.4-.6s.6-.9.6-1.4c0-1.1-.6-2.1-1.7-2.8-1.1-.7-2.6-1.1-4.3-1.1h-.8l2.4-6.7zM48.7 62H43v-2h5.7v2zM49.6 60.6l6.3-8.5h1.2v8.5h1.2v2h-1.2v3h-2.7v-3h-4.8v-2zm1 0h3.8v-5.2l-3.8 5.2z"/></g><path fill="#FFF" d="M54.7 28.7h6.2l-1 2.5h-5.2l-.5 1.3c2.2.1 4 .6 5.2 1.7 1 .9 1.5 1.9 1.5 3.2 0 .8-.2 1.6-.7 2.4-.5.8-1.1 1.4-2 1.8s-1.8.6-2.8.6c-1.1 0-1.9-.2-2.5-.6-.4-.3-.6-.6-.6-1 0-.3.1-.5.3-.7s.5-.3.7-.3c.3 0 .5.1.8.2.3.1.7.4 1.3.8.4.3.7.5 1 .6.2.1.4.1.7.1.5 0 1-.2 1.4-.6s.6-.9.6-1.4c0-1.1-.6-2.1-1.7-2.8-1.1-.7-2.6-1.1-4.3-1.1h-.8l2.4-6.7z"/><g fill="#FFF"><path d="M21.6 18.1h-1V9.4h1.8l2.2 7.3 2.2-7.3h1.8v8.7h-1.1v-7.7l-2.4 7.7h-1l-2.4-7.7v7.7zM31.8 18.1h-1.1V9.4h1.1v8.7zM39.9 9.4v8.7h-1.5L35 10.6v7.5h-1V9.4h1.6l3.4 7.4V9.4h.9zM41.4 19.2h-.8l2.8-9.8h.8l-2.8 9.8zM47.7 18.1h-1.1V11l-1.2.8v-1.1c.3-.1 1.1-.7 1.4-1h.9v8.4zM54.4 11.8c0-.5 0-1-.3-1.3-.2-.3-.7-.4-1-.4-.9 0-1.3.6-1.3.7 0 .1-.3.3-.3 1.8v2.3c0 2.1.7 2.4 1.5 2.4.3 0 1.4-.1 1.4-1.8h1.1c0 2.7-1.9 2.7-2.4 2.7-1.1 0-2.7-.1-2.7-3.4v-2.4c0-2.4 1.1-3.1 2.8-3.1 1.7 0 2.4.9 2.3 2.6h-1.1z"/></g><path fill="#278C43" d="M75 0h75v75H75z"/><path fill="none" stroke="#000" stroke-miterlimit="10" d="M-112.5-825h1650V450h-1650z"/></svg>