<svg version="1.2" baseProfile="tiny" xmlns="http://www.w3.org/2000/svg" viewBox="0 0 75 75" overflow="visible" xml:space="preserve"><path fill="#278C43" d="M0 0h75v75H0z"/><path fill="#FFF" d="M14.1 25.2h29.4v19.6H14.1V25.2zM27.3 35l-11.6-7.8v15.5L27.3 35zM18 26.8 28.8 34l10.8-7.2H18zM28.8 36 18 43.2h21.6L28.8 36zm1.4-1 11.6 7.8V27.3L30.2 35z"/><g fill="#FFF"><path d="M24.1 65.6h-7.8v-.2c2.4-2.8 3.8-4.8 4.4-5.7s.8-1.9.8-2.9c0-.7-.2-1.3-.6-1.7s-.9-.7-1.6-.7c-1 0-1.8.5-2.3 1.5l-.4-.1c.4-1.2.9-2.2 1.6-2.8s1.5-.9 2.5-.9c.7 0 1.3.2 1.8.5s1 .7 1.3 1.3.5 1.1.5 1.5c0 .9-.2 1.7-.7 2.6-.7 1.2-2.1 2.9-4.3 5h2.9c.7 0 1.2 0 1.4-.1s.4-.2.5-.3.3-.4.5-.9h.4l-.9 3.9zM32 62h-5.7v-2H32v2zM35.4 59v-.3c.7-.2 1.3-.4 1.5-.6s.5-.5.7-.8.3-.8.3-1.2c0-.5-.2-1-.6-1.4s-.9-.6-1.5-.6c-.9 0-1.7.5-2.3 1.4l-.4-.1c.5-1.1 1.1-1.9 1.8-2.5s1.5-.8 2.4-.8c.9 0 1.7.3 2.3.8s.9 1.2.9 2c0 .5-.1 1-.4 1.4s-.7.9-1.3 1.2c.8.4 1.3.8 1.7 1.4s.6 1.2.6 2c0 1.4-.5 2.6-1.5 3.5s-2.3 1.5-4 1.5c-1.1 0-1.9-.2-2.5-.6-.4-.3-.6-.6-.6-1 0-.3.1-.6.3-.8s.5-.3.7-.3c.2 0 .4 0 .6.1.1.1.5.3 1.1.9s1.2.8 1.8.8c.5 0 .9-.2 1.2-.6s.5-.9.5-1.5c0-.9-.3-1.7-.9-2.5s-1.2-1.1-2.4-1.4zM48.7 62H43v-2h5.7v2zM49.6 60.6l6.3-8.5h1.2v8.5h1.2v2h-1.2v3h-2.7v-3h-4.8v-2zm1 0h3.8v-5.2l-3.8 5.2z"/></g><path fill="#FFF" d="M54.6 35.4v-.3c.7-.2 1.3-.4 1.5-.6s.5-.5.7-.8.3-.8.3-1.2c0-.5-.2-1-.6-1.4s-.9-.6-1.5-.6c-.9 0-1.7.5-2.3 1.4l-.4-.1c.5-1.1 1.1-1.9 1.8-2.5s1.5-.8 2.4-.8c.9 0 1.7.3 2.3.8s.9 1.2.9 2c0 .5-.1 1-.4 1.4s-.7.9-1.3 1.2c.8.4 1.3.8 1.7 1.4s.6 1.2.6 2c0 1.4-.5 2.6-1.5 3.5s-2.3 1.5-4 1.5c-1.1 0-1.9-.2-2.5-.6-.4-.3-.6-.6-.6-1 0-.3.1-.6.3-.8s.5-.3.7-.3c.2 0 .4 0 .6.1.1.1.5.3 1.1.9s1.2.8 1.8.8c.5 0 .9-.2 1.2-.6s.5-.9.5-1.5c0-.9-.3-1.7-.9-2.5s-1.2-1.2-2.4-1.4z"/><g fill="#FFF"><path d="M22.5 18.1V9.4h1.1v3.8l3-3.8h1.2l-3.1 3.9L28 18h-1.4l-3-4.5V18h-1.1zM31.2 9.4h1.4l2.8 8.7h-1.2l-.6-2.1h-3.3l-.6 2.1h-1.1l2.6-8.7zm.6 1L30.4 15h2.8l-1.4-4.6zM41.2 10.5l-4.3 6.6h4.4v1h-5.4v-1.2l4.2-6.4H36v-1h5.2v1zM42.1 19.2h-.8l2.8-9.8h.8l-2.8 9.8zM47.1 18.1H46V9.4h1.1v8.7zM49.2 18.1V9.4h4.5v1h-3.4v2.8h3.1v1h-3.1v3h3.4v1h-4.5z"/></g><path fill="none" stroke="#000" stroke-miterlimit="10" d="M-1012.5-712.5h1650v1275h-1650z"/></svg>