<svg version="1.2" baseProfile="tiny" xmlns="http://www.w3.org/2000/svg" viewBox="0 0 75 75" overflow="visible" xml:space="preserve"><path fill="#FDD700" d="M-75.012 18.8h75v18.8h-75z"/><path fill="#FDE498" d="M0 0h75v75H0z"/><path fill="#FDD700" d="M-.012 18.8h75v18.8h-75z"/><path fill="#010101" d="M59.688 19.7v17h-26.5v-17h26.5zm-25.1 2.3v12.5l10.4-6.3-10.4-6.2zm22.3-.9h-20.9l10.4 6.3 10.5-6.3zm-16.4 11.5-4.6 2.7h2.9c.3-1.1.9-2.1 1.7-2.7zm-.4 2.7h5.6c-.3-1.3-1.4-2.3-2.8-2.3-1.3 0-2.5 1-2.8 2.3zm13.8 0h2.9l-10.4-6.3-5.3 3.2c.6-.3 1.2-.5 1.8-.5 1.5 0 2.8.8 3.5 2 .7-1.2 2-2 3.5-1.9 2.1.1 3.7 1.6 4 3.5zm-4-2.2c-1.4 0-2.6 1-2.8 2.3h5.6c-.3-1.4-1.4-2.3-2.8-2.3zm-2.1-4.9 10.4 6.3V22l-10.4 6.2z"/><g fill="#010101"><path d="M29.888 53.1h-1.8V41.2l-2.1 1.4v-1.8c.5-.2 1.8-1.2 2.3-1.7h1.6v14zM37.588 45.8c2 .2 2.6 1.8 2.6 3.6 0 2.5-1.3 4-3.7 4s-3.7-1.5-3.7-4c0-1.8.5-3.4 2.6-3.6-1.6-.3-2.4-1.7-2.4-3.3 0-2.2 1.4-3.5 3.6-3.5s3.6 1.3 3.6 3.5c-.2 1.6-1 2.9-2.6 3.3zm.7 3.6c0-1.2-.1-2.8-1.9-2.8s-1.9 1.6-1.9 2.8c0 1.2.5 2.5 1.9 2.5s1.9-1.3 1.9-2.5zm-.1-7c0-1-.5-2.1-1.7-2.1s-1.7 1-1.7 2.1c0 1 .3 2.5 1.7 2.5s1.7-1.4 1.7-2.5zM40.588 46.2c0-3.7-.1-7.2 3.7-7.2 2.1 0 3.5 1.3 3.4 3.4h-1.8c0-1-.5-2-1.6-2-1.5 0-1.9 1.3-1.9 5 .5-.8 1.3-1.3 2.3-1.3 1.8 0 3.3 1 3.3 4.7 0 2.5-1 4.7-3.7 4.7-3.7-.1-3.7-3.6-3.7-7.3zm3.8 5.7c1.5 0 1.8-1.6 1.8-3.5 0-1.3-.3-2.8-1.9-2.8-1.6 0-1.8 1.8-1.8 3 0 1.4.1 3.3 1.9 3.3z"/></g><g fill="#010101"><path d="M43.288 9.5h1v7.2h-1V9.5zM46.088 9.5h1v7.2h-1V9.5zM48.788 9.5h1v7.2h-1V9.5z"/></g><g fill="#010101"><path d="M12.088 35.4c-.9-2.1-1.9-4.8-1.9-7.1 0-1.3.3-2.5.7-3.7.4-1.4.9-2.5 1.1-3.2h1.1c-.3.8-.6 1.9-.9 3.4-.3 1.5-.4 2.5-.4 3.5 0 2.3.6 4.1 1.5 7.2h-1.2zM15.188 32l2.9-2.8c.6-.6 1.2-1.2 1.7-1.9.6-.9.8-1.4.8-2 0-.5-.2-1.8-1.8-1.8-1.8 0-1.8 1.5-1.8 1.9h-1.7c0-.5.1-1.6 1-2.4.8-.7 1.7-.8 2.4-.8 1.7 0 3.4.9 3.4 3.2 0 .7 0 1.2-1.2 2.8-.3.4-1.7 1.9-2 2.2l-1.9 1.8h5.3v1.3h-7V32zM25.488 21.4c.9 2.1 1.9 4.8 1.9 7.1 0 1.3-.3 2.5-.7 3.7-.4 1.4-.9 2.5-1.1 3.2h-1.1c.3-.8.6-1.9.9-3.4.3-1.5.4-2.5.4-3.5 0-2.3-.6-4.1-1.5-7.1h1.2z"/></g><g fill="#010101"><path d="M24.588 65.5h-1.1v-7.1l-1.2.8v-1.1c.3-.1 1.1-.7 1.4-1h.9v8.4zM29.288 61.1c1.2.1 1.5 1.1 1.5 2.2 0 1.5-.8 2.4-2.2 2.4s-2.2-.9-2.2-2.4c0-1.1.3-2 1.5-2.2-1-.2-1.5-1-1.5-2 0-1.3.8-2.1 2.1-2.1s2.1.8 2.1 2.1c.1 1-.3 1.8-1.3 2zm.4 2.2c0-.7-.1-1.7-1.1-1.7s-1.1 1-1.1 1.7.3 1.5 1.1 1.5 1.1-.8 1.1-1.5zm-.1-4.2c0-.6-.3-1.2-1-1.2s-1 .6-1 1.2.2 1.5 1 1.5 1-.9 1-1.5zM35.388 57.2v1h-2.8v2.4c.2-.4.8-.6 1.3-.6 1.2 0 1.7.9 1.7 2.8 0 1.3-.2 2.9-2.3 2.9-1.7 0-2.1-.9-2.1-2.1h1.1c0 .6.3 1.3 1 1.3 1 0 1.1-1 1.1-1.8 0-1.2 0-2.2-1.1-2.2-.6 0-.9.4-1 1h-1v-4.7h4.1zM36.488 65.5v-8.7h4.3v1h-3.2v2.8h3v1h-3v4h-1.1zM41.088 62.6c0-1.8.2-3.2 2.3-3.2 2.1 0 2.3 1.5 2.3 3.2 0 2.7-1 3.1-2.3 3.1-1.3-.1-2.3-.4-2.3-3.1zm3.6-.4c0-1.7-.5-2-1.3-2s-1.3.4-1.3 2c0 2 .3 2.7 1.3 2.7 1.1-.1 1.3-.8 1.3-2.7zM47.788 65.5h-1v-8.7h1v8.7zM52.188 59.5h1v6.7c0 1.4-.9 1.7-2.2 1.7-1 0-1.9-.5-1.8-1.6h1.1c0 .6.4.9.9.9.7 0 1.1-.4 1.1-1v-1.3c-.3.5-.8.8-1.3.8-1.6 0-2-1.4-2-3.2 0-2.8 1.4-3 1.9-3 .6 0 1.1.3 1.4.9v-.9zm-1.2.7c-1.1 0-1.2 1.3-1.2 2.1 0 1.9.4 2.4 1.2 2.4 1.2 0 1.2-1.4 1.2-2.2 0-.9.1-2.3-1.2-2.3z"/></g></svg>