<svg version="1.2" baseProfile="tiny" xmlns="http://www.w3.org/2000/svg" viewBox="0 0 75 75" overflow="visible" xml:space="preserve"><path fill="#FDE498" d="M0 0h75v75H0z"/><path fill="#010101" d="M59.688 19.7v17h-26.5v-17h26.5zm-18.8 10c0 .4-.1.8-.2 1.2l4.3-2.6-10.4-6.3v5.5c.6-.8 1.6-1.4 2.8-1.4 1.9 0 3.5 1.6 3.5 3.6zm-6.3 2.1v2.7l2.2-1.3c-.9-.2-1.7-.7-2.2-1.4zm4.9-2.1c0-1.2-1-2.1-2.1-2.1-1.2 0-2.1 1-2.1 2.1 0 1.2 1 2.1 2.1 2.1 1.2 0 2.1-1 2.1-2.1zm17.4-8.6h-20.9l10.4 6.3 10.5-6.3zm-20.9 14.2h20.9l-10.4-6.3-10.5 6.3zm22.2-7.8V22l-10.4 6.3 4.3 2.6c-.1-.4-.2-.8-.2-1.2 0-2 1.6-3.5 3.5-3.5 1.2-.1 2.2.5 2.8 1.3zm-2.7 4.3c1.2 0 2.1-1 2.1-2.1 0-1.2-1-2.1-2.1-2.1-1.2 0-2.1 1-2.1 2.1-.1 1.1.9 2.1 2.1 2.1zm.5 1.4 2.2 1.3v-2.7c-.5.7-1.3 1.2-2.2 1.4z"/><g fill="#010101"><path d="M14.988 53.1h-2.2l-4.2-14.4h2l3.3 12.7 3.4-12.7h1.9l-4.2 14.4zM19.388 55h-1.3l4.7-16.4h1.3l-4.7 16.4zM28.788 53.1h-1.8V41.2l-2.1 1.4v-1.8c.5-.2 1.8-1.2 2.3-1.7h1.6v14zM32.588 53.1V38.7h1.8v12.8h5.3v1.6h-7.1zM41.988 53.1h-1.6V38.7h1.6v5.4h.1c.6-.8 1.3-1.2 2.2-1.2 3.3 0 3.3 2.9 3.3 5.4 0 4.4-1.6 5.1-3.3 5.1-1.1 0-1.8-.5-2.3-1.4v1.1zm1.9-1.1c2.1 0 2.1-2.2 2.1-3.7 0-2.7-.2-4.1-2-4.1s-1.9 2.2-1.9 3.5c-.1 1.5-.2 4.3 1.8 4.3zM51.188 53.1h-1.7V38.7h3l3.6 12.1 3.7-12.1h3v14.4h-1.8V40.3l-4 12.8h-1.7l-4-12.8v12.8z"/></g><g fill="#010101"><path d="M44.688 9.5h1v7.2h-1V9.5zM47.488 9.5h1v7.2h-1V9.5z"/></g><path fill="#010101" d="M24.088 24.1c-.7.6-1.8 1.2-2.6 1.6v-1.6c1-.5 2.1-1.2 2.7-1.7h1.4v11.1h-1.5v-9.4z"/><g fill="#010101"><path d="M24.088 65.5h-1v-8.7h1.8l2.2 7.3 2.2-7.3h1.8v8.7h-1.1v-7.7l-2.4 7.7h-1l-2.4-7.7v7.7zM35.588 64.7c-.3.7-.8 1-1.5 1-1.3 0-1.7-.8-1.7-2 0-1.8 1.8-1.9 3.2-1.9 0-.8 0-1.7-1-1.7-.7 0-1 .4-.9 1.1h-1.1c0-1.4.8-1.8 2.1-1.8 1.6 0 2 .8 2 1.8v2.9c0 .5 0 1 .1 1.4h-1.1v-.8zm-2.3-1c0 .6.3 1.1.9 1.1.6 0 1.3-.4 1.2-2.3-.8 0-2.1-.1-2.1 1.2zM38.888 65.5h-1v-8.7h1v8.7zM41.088 62.8c0 1.7.5 2 1.2 2s1-.5 1.1-1.2h1.1c0 1.3-.8 2-2.1 2s-2.3-.4-2.3-3.1c0-1.8.2-3.2 2.3-3.2 1.7 0 2.2.9 2.2 3v.5h-3.5zm2.4-.7c0-1.8-.5-2-1.2-2-.6 0-1.1.3-1.2 2h2.4zM45.688 59.5v-1.2l1-.4v1.6h1.3v.7h-1.3v3.7c0 .4 0 .9.9.9h.4v.8c-.3 0-.6.1-1 .1-.9 0-1.4-.4-1.4-1.1v-4.3h-1v-.7h1.1z"/><path d="M48.588 59.5v-1.2l1-.4v1.6h1.3v.7h-1.3v3.7c0 .4 0 .9.9.9h.4v.8c-.3 0-.6.1-1 .1-.9 0-1.4-.4-1.4-1.1v-4.3h-1v-.7h1.1zM51.188 56.9h1.1V58h-1.1v-1.1zm1.1 8.6h-1v-6.1h1v6.1z"/></g></svg>