<svg version="1.2" baseProfile="tiny" xmlns="http://www.w3.org/2000/svg" viewBox="0 0 75 75" overflow="visible" xml:space="preserve"><path fill="#FDE498" d="M0 0h75v75H0z"/><path fill="#010101" d="M59.688 19.7v17h-26.5v-17h26.5zm-1.5 1.4h-23.6v14.2h23.6V21.1zm-20.7 10.1c-.8-.8-1.2-1.9-1.2-3 0-2.3 1.9-4.2 4.2-4.2h11.8c2.3 0 4.2 2 4.2 4.3s-1.9 4.2-4.2 4.2h-11.8c-1.1 0-2.2-.5-3-1.3zm.2-3c0 .8.3 1.5.8 2s1.2.9 2 .9h11.8c1.5 0 2.8-1.3 2.8-2.8 0-1.6-1.2-2.9-2.8-2.9h-11.8c-1.5 0-2.7 1.3-2.8 2.8z"/><g fill="#010101"><path d="M13.188 53.1V38.7h1.8v12.8h5.3v1.6h-7.1z"/><path d="M30.388 53.1h-2.2l-3.4-6.2-3.2 6.2h-2l4.2-7.5-3.9-7h2.1l3 5.6 3-5.6h2l-3.9 7 4.3 7.5zM33.288 53.1h-1.8V38.7h1.8v14.4zM37.788 53.1h-1.8V38.7h1.8v14.4zM42.388 53.1h-1.8V38.7h1.8v14.4zM46.188 55.5c-.9-2.8-2-5.7-2-8.6 0-3.1 1.1-5.9 2-8.8h1.2c-.7 2.9-1.3 5.9-1.3 8.9 0 2.9.6 5.8 1.3 8.6h-1.2zM49.388 53.1V38.7h1.8v12.8h5.3v1.6h-7.1zM57.088 55.5c.7-2.8 1.3-5.7 1.3-8.6 0-3-.6-6-1.3-8.9h1.2c.9 2.9 2 5.8 2 8.8 0 3-1.1 5.8-2 8.6h-1.2z"/></g><g fill="#010101"><path d="M44.688 9.5h1v7.2h-1V9.5zM47.488 9.5h1v7.2h-1V9.5z"/></g><path fill="#010101" d="M24.088 24.1c-.7.6-1.8 1.2-2.6 1.6v-1.6c1-.5 2.1-1.2 2.7-1.7h1.4v11.1h-1.5v-9.4z"/><g fill="#010101"><path d="M25.788 56.9h1.4l2.8 8.7h-1.2l-.6-2.1h-3.3l-.6 2.1h-1.1l2.6-8.7zm.7 1-1.4 4.6h2.8l-1.4-4.6zM31.588 60.4c.4-.9.9-1 1.9-1v1h-.6c-1.1 0-1.4.8-1.4 1.6v3.6h-1v-6.1h1v.9zM33.688 66.7h-.8l2.8-9.8h.8l-2.8 9.8zM36.988 65.5v-8.7h1.1v7.7h3.2v1h-4.3zM45.988 56.9v1h-2.3v7.7h-1.1v-7.7h-2.3v-1h5.7zM50.488 59.3c0-.5 0-1-.3-1.3-.2-.3-.7-.4-1-.4-.9 0-1.3.6-1.3.7 0 .1-.3.3-.3 1.8v2.3c0 2.1.7 2.4 1.5 2.4.3 0 1.4-.1 1.4-1.8h1.1c0 2.7-1.9 2.7-2.4 2.7-1.1 0-2.7-.1-2.7-3.4v-2.4c0-2.4 1.1-3.1 2.8-3.1 1.7 0 2.4.9 2.3 2.6h-1.1z"/></g></svg>