<svg version="1.2" baseProfile="tiny" xmlns="http://www.w3.org/2000/svg" viewBox="0 0 75 75" overflow="visible" xml:space="preserve"><path fill="#FDD700" d="M-75.012 18.7h75v18.8h-75z"/><path fill="#FDE498" d="M0 0h75v75H0z"/><path fill="#010101" d="M59.688 19.7v17h-26.5v-17h26.5zm-25.1 2.3v12.5l10.4-6.3-10.4-6.2zm22.3-.9h-20.9l10.4 6.3 10.5-6.3zm-20.9 14.2h20.9l-10.4-6.3-10.5 6.3zm11.8-7.1 10.4 6.3V22l-10.4 6.2z"/><g fill="#010101"><path d="M15.288 53.1h-1.8V41.2l-2.1 1.4v-1.8c.5-.2 1.8-1.2 2.3-1.7h1.6v14zM24.588 48.8v.4c0 2 1.2 2.6 2.4 2.6 1.5 0 2.6-.6 2.6-2.3 0-3.2-6.5-2.8-6.5-7.2 0-2.6 1.8-3.9 4.2-3.9 2.6 0 4.1 1.3 4 4.2h-1.9c0-1.6-.5-2.6-2.2-2.6-1.1 0-2.2.6-2.2 2.1 0 3.2 6.5 2.7 6.5 7.3 0 3-2.1 4-4.5 4-4.3 0-4.3-3.2-4.2-4.6h1.8zM38.288 51.7c-.5 1.2-1.3 1.7-2.6 1.7-2.1 0-2.8-1.4-2.8-3.3 0-3.1 3-3.2 5.3-3.1 0-1.3.1-2.8-1.7-2.8-1.1 0-1.7.7-1.6 1.8h-1.8c.1-2.3 1.3-3 3.4-3 2.6 0 3.3 1.3 3.3 3v4.9c0 .8.1 1.6.2 2.4h-1.8v-1.6zm-3.7-1.6c0 1 .5 1.9 1.6 1.9 1 0 2.2-.6 2.1-3.9-1.6 0-3.7-.1-3.7 2zM47.588 53.1v-6.8c0-1.2-.4-2.1-1.8-2.1-1.6 0-2.1 1.3-2.1 3v5.9h-1.6V38.7h1.6v5.6h.1c.7-1.2 1.4-1.5 2.7-1.5 1.7 0 2.7.9 2.7 3.1v7.2h-1.6zM50.588 55h-1.3l4.7-16.4h1.3l-4.7 16.4zM55.888 53.1V38.7h1.8v12.8h5.3v1.6h-7.1z"/></g><g fill="#010101"><path d="M44.688 9.5h1v7.2h-1V9.5zM47.488 9.5h1v7.2h-1V9.5z"/></g><path fill="#010101" d="M24.088 24.1c-.7.6-1.8 1.2-2.6 1.6v-1.6c1-.5 2.1-1.2 2.7-1.7h1.4v11.1h-1.5v-9.4z"/><g fill="#010101"><path d="M23.288 63v.3c0 1.2.7 1.5 1.5 1.5.9 0 1.5-.4 1.5-1.4 0-1.9-3.9-1.7-3.9-4.3 0-1.5 1.1-2.4 2.5-2.4 1.6 0 2.5.8 2.4 2.5h-1.2c0-.9-.3-1.6-1.3-1.6-.7 0-1.3.3-1.3 1.3 0 1.9 3.9 1.6 3.9 4.4 0 1.8-1.3 2.4-2.7 2.4-2.6 0-2.6-1.9-2.5-2.8h1.1zM31.688 64.7c-.3.7-.8 1-1.5 1-1.3 0-1.7-.8-1.7-2 0-1.8 1.8-1.9 3.2-1.9 0-.8 0-1.7-1-1.7-.7 0-1 .4-.9 1.1h-1.1c0-1.4.8-1.8 2.1-1.8 1.6 0 2 .8 2 1.8v2.9c0 .5 0 1 .1 1.4h-1.1v-.8zm-2.3-1c0 .6.3 1.1.9 1.1.6 0 1.3-.4 1.2-2.3-.8 0-2.1-.1-2.1 1.2zM37.288 65.5v-4.1c0-.7-.2-1.3-1.1-1.3-1 0-1.2.8-1.2 1.8v3.6h-1v-8.7h1v3.4c.4-.7.9-.9 1.6-.9 1 0 1.6.5 1.6 1.9v4.3h-.9zM42.688 64.7c-.3.7-.8 1-1.5 1-1.3 0-1.7-.8-1.7-2 0-1.8 1.8-1.9 3.2-1.9 0-.8 0-1.7-1-1.7-.7 0-1 .4-.9 1.1h-1.1c0-1.4.8-1.8 2.1-1.8 1.6 0 2 .8 2 1.8v2.9c0 .5 0 1 .1 1.4h-1.1v-.8zm-2.2-1c0 .6.3 1.1.9 1.1.6 0 1.3-.4 1.2-2.3-.9 0-2.1-.1-2.1 1.2zM46.088 60.4c.4-.9.9-1 1.9-1v1h-.6c-1.1 0-1.4.8-1.4 1.6v3.6h-1v-6.1h1v.9zM51.688 64.7c-.3.7-.8 1-1.5 1-1.3 0-1.7-.8-1.7-2 0-1.8 1.8-1.9 3.2-1.9 0-.8 0-1.7-1-1.7-.7 0-1 .4-.9 1.1h-1.1c0-1.4.8-1.8 2.1-1.8 1.6 0 2 .8 2 1.8v2.9c0 .5 0 1 .1 1.4h-1.1v-.8zm-2.2-1c0 .6.3 1.1.9 1.1.6 0 1.3-.4 1.2-2.3-.9 0-2.1-.1-2.1 1.2z"/></g></svg>