<svg version="1.2" baseProfile="tiny" xmlns="http://www.w3.org/2000/svg" viewBox="0 0 75 75" overflow="visible" xml:space="preserve"><path fill="#FDD700" d="M-75.012 18.7h75v18.8h-75z"/><path fill="#FDE498" d="M0 0h75v75H0z"/><path fill="#010101" d="M59.688 19.7v17h-26.5v-17h26.5zm-25.1 15.6h4.7c-1.9 0-3.5-1.6-3.5-3.5 0-1.7 1.1-3 2.7-3.4-1.3-.7-2.2-2.1-2.2-3.7 0-1.5.8-2.7 1.9-3.5h-3.6v14.1zm4.7-5.6c-1.2 0-2.1 1-2.1 2.1 0 1.2 1 2.1 2.1 2.1 1.2 0 2.1-1 2.1-2.1.1-1.2-.9-2.1-2.1-2.1zm15.8-5c0-1.6-1.2-2.9-2.8-2.9h-11.8c-1.5 0-2.8 1.3-2.8 2.8 0 1.6 1.2 2.9 2.8 2.9h11.8c1.6 0 2.8-1.2 2.8-2.8zm-10.8 4.2h-2.9c.9.6 1.4 1.7 1.4 2.8 0 1.9-1.6 3.5-3.5 3.5h7c-1.9 0-3.5-1.6-3.5-3.5.1-1.1.7-2.1 1.5-2.8zm2.1.8c-1.2 0-2.1 1-2.1 2.1 0 1.2 1 2.1 2.1 2.1 1.2 0 2.1-1 2.1-2.1.1-1.2-.9-2.1-2.1-2.1zm11.8 5.6V21.1h-3.6c1.2.8 1.9 2.1 1.9 3.6 0 1.6-.9 2.9-2.1 3.6 1.5.4 2.7 1.8 2.7 3.4 0 2-1.6 3.5-3.5 3.5-2 0-3.5-1.6-3.5-3.5 0-1.2.6-2.2 1.4-2.8h-2.9c.9.6 1.4 1.7 1.4 2.8 0 1.9-1.6 3.5-3.5 3.5h11.7zm-6.8-3.5c0 1.2 1 2.1 2.1 2.1s2.1-1 2.1-2.1c0-1.2-1-2.1-2.1-2.1-1.2 0-2.1.9-2.1 2.1z"/><g fill="#010101"><path d="M25.288 53.1V38.7h4.3c1.9 0 4 .7 4 4.1 0 3.3-2.6 4-4 4h-2.4v6.4h-1.9zm1.9-7.9h2c.8 0 2.6-.2 2.6-2.5 0-2.2-1.6-2.4-2-2.4h-2.5v4.9zM37.488 38.7h2.3l4.7 14.4h-2.1l-1-3.4h-5.6l-1.1 3.4h-1.9l4.7-14.4zm1.1 1.7-2.3 7.7h4.6l-2.3-7.7zM47.488 53.1h-1.8V38.7h1.8v14.4z"/></g><g fill="#010101"><path d="M44.688 9.5h1v7.2h-1V9.5zM47.488 9.5h1v7.2h-1V9.5z"/></g><path fill="#010101" d="M24.088 24.1c-.7.6-1.8 1.2-2.6 1.6v-1.6c1-.5 2.1-1.2 2.7-1.7h1.4v11.1h-1.5v-9.4z"/><g fill="#010101"><path d="M22.288 61.5v4h-1.1v-8.7h3c1.5 0 2.1 1.1 2.1 2.2 0 1-.6 1.8-1.6 2 1 .2 1.4.5 1.4 2.2 0 .4.1 1.7.3 2.3h-1.2c-.3-.6-.2-1.7-.3-2.9-.1-1.1-.9-1.1-1.3-1.1h-1.3zm0-.9h1.7c.8 0 1.2-.7 1.2-1.4 0-.6-.3-1.3-1.2-1.3h-1.7v2.7zM27.388 65.5v-8.7h4.5v1h-3.4v2.8h3.1v1h-3.1v3h3.4v1h-4.5zM36.688 59.3c0-.5 0-1-.3-1.3-.2-.3-.7-.4-1-.4-.9 0-1.3.6-1.3.7 0 .1-.3.3-.3 1.8v2.3c0 2.1.7 2.4 1.5 2.4.3 0 1.4-.1 1.4-1.8h1.1c0 2.7-1.9 2.7-2.4 2.7-1.1 0-2.7-.1-2.7-3.4v-2.4c0-2.4 1.1-3.1 2.8-3.1 1.7 0 2.4.9 2.3 2.6h-1.1zM40.988 56.9h1.4l2.8 8.7h-1.2l-.6-2.1h-3.3l-.6 2.1h-1.1l2.6-8.7zm.7 1-1.4 4.6h2.8l-1.4-4.6zM46.988 65.5h-1v-8.7h1.8l2.2 7.3 2.2-7.3h1.8v8.7h-1.1v-7.7l-2.4 7.7h-1l-2.4-7.7v7.7z"/></g></svg>