<svg version="1.2" baseProfile="tiny" xmlns="http://www.w3.org/2000/svg" viewBox="0 0 75 75" overflow="visible" xml:space="preserve"><path fill="#FDE498" d="M0 0h75v75H0z"/><path fill="#010101" d="M59.688 19.7v17h-26.5v-17h26.5zm-1.5 1.4h-23.6v14.2h23.6V21.1zm-14.5 7.1c0-1.4 1.2-2.6 2.8-2.6 1.5 0 2.8 1.2 2.8 2.6 0 1.4-1.2 2.6-2.8 2.6-1.6 0-2.8-1.1-2.8-2.6z"/><g fill="#010101"><path d="M22.788 53.1h-2.2l-4.2-14.4h2l3.3 12.7 3.4-12.7h1.9l-4.2 14.4zM29.988 53.1h-1.8V38.7h1.8v14.4zM34.488 53.1h-1.8V38.7h1.8v14.4zM36.188 55h-1.3l4.7-16.4h1.3l-4.7 16.4zM43.288 45c1.7.1 2.8-.5 2.8-2.3 0-1.3-.6-2.2-1.9-2.2-1.5 0-1.8 1.1-1.7 2.3h-1.8c-.1-2.4 1-3.8 3.6-3.8 2.4 0 3.8 1.2 3.8 3.6 0 2.6-1.9 3-2.7 3.2 2.2.3 2.9 1.5 2.9 3.5 0 2.7-1.5 4-4.1 4-3.9 0-3.6-3.3-3.6-4.1h1.8c0 1.4.2 2.6 1.9 2.6 1.6 0 2.1-1 2.1-2.5 0-2.2-.8-2.7-3-2.7V45zM53.588 53.1h-1.8V41.2l-2.1 1.4v-1.8c.5-.2 1.8-1.2 2.3-1.7h1.6v14z"/></g><g fill="#010101"><path d="M43.288 9.5h1v7.2h-1V9.5zM46.088 9.5h1v7.2h-1V9.5zM48.788 9.5h1v7.2h-1V9.5z"/></g><path fill="#010101" d="M24.088 24.1c-.7.6-1.8 1.2-2.6 1.6v-1.6c1-.5 2.1-1.2 2.7-1.7h1.4v11.1h-1.5v-9.4z"/><g fill="#010101"><path d="M28.488 56.9v1h-2.3v7.7h-1.1v-7.7h-2.3v-1h5.7zM27.788 62.6c0-1.8.2-3.2 2.3-3.2s2.3 1.5 2.3 3.2c0 2.7-1 3.1-2.3 3.1s-2.3-.4-2.3-3.1zm3.6-.4c0-1.7-.5-2-1.3-2s-1.3.4-1.3 2c0 2 .3 2.7 1.3 2.7s1.3-.8 1.3-2.7zM34.588 65.5h-1v-8.7h1V60c.3-.5.8-.7 1.3-.7 2 0 2 1.7 2 3.2 0 2.7-1 3-2 3-.6 0-1.1-.3-1.4-.8v.8zm1.1-.7c1.2 0 1.2-1.3 1.2-2.2 0-1.6-.1-2.5-1.2-2.5-1.1 0-1.1 1.3-1.1 2.1 0 1-.1 2.6 1.1 2.6zM39.988 60.4c.4-.9.9-1 1.9-1v1h-.6c-1.1 0-1.4.8-1.4 1.6v3.6h-1v-6.1h1v.9zM45.788 59.5h1v4.8c0 .4 0 .8.1 1.3h-1v-.7c-.3.6-.9.9-1.5.9-1.1 0-1.6-.5-1.6-1.6v-4.6h1v4.2c0 .7.3 1.2 1 1.2.5 0 1.2-.4 1.2-1.4v-4.1zM48.988 65.5h-1v-8.7h1V62l1.8-2.6h1.2l-2 2.6 2.4 3.5h-1.2l-2.2-3.4v3.4z"/></g><path fill="#010101" d="M13.7 11.9c0-1-.4-1.6-1.5-1.6-.3 0-1.6.1-1.6 1.9v2.9c0 1.9.6 2.4 1.6 2.4.8 0 1.3-.2 1.5-.4v-2.6h-1.6v-1h2.7v4.2c-.7.4-1.5.6-2.7.6-1.8 0-2.7-.9-2.7-3.3v-2.8c0-1.7.9-2.8 2.7-2.8 1.9 0 2.8.7 2.7 2.5h-1.1z"/></svg>