<svg version="1.2" baseProfile="tiny" xmlns="http://www.w3.org/2000/svg" viewBox="0 0 75 75" overflow="visible" xml:space="preserve"><path fill="#FDE498" d="M0 0h75v75H0z"/><path fill="#010101" d="M59.688 19.7v17h-26.5v-17h26.5zm-1.5 1.4h-23.6v14.2h23.6V21.1zm-18.6 11.7h-1.3v-9.2h16.2v9.1h-1.3v-7.8h-6.1v7.8h-1.3v-7.8h-6.1v7.9z"/><g fill="#010101"><path d="M10.588 45c1.7.1 2.8-.5 2.8-2.3 0-1.3-.6-2.2-1.9-2.2-1.5 0-1.8 1.1-1.7 2.3h-1.8c-.1-2.4 1-3.8 3.6-3.8 2.4 0 3.8 1.2 3.8 3.6 0 2.6-1.9 3-2.7 3.2 2.2.3 2.9 1.5 2.9 3.5 0 2.7-1.5 4-4.1 4-3.9 0-3.6-3.3-3.6-4.1h1.8c0 1.4.2 2.6 1.9 2.6 1.6 0 2.1-1 2.1-2.5 0-2.2-.8-2.7-3-2.7V45zM20.888 53.1h-1.8V41.2l-2.1 1.4v-1.8c.5-.2 1.8-1.2 2.3-1.7h1.6v14zM31.488 42.5c0-1.7-.7-2.6-2.6-2.6-.6 0-2.7.1-2.7 3.1v4.9c0 3.2.9 4 2.7 4 1.3 0 2.2-.4 2.6-.6V47h-2.7v-1.6h4.5v7c-1.2.6-2.6 1.1-4.4 1.1-3.1 0-4.5-1.6-4.5-5.6v-4.7c0-2.9 1.5-4.7 4.5-4.7 3.1 0 4.6 1.1 4.5 4.2h-1.9zM40.988 43h1.6v8c0 .7 0 1.4.1 2.1h-1.7v-1.2h-.1c-.5.9-1.5 1.4-2.6 1.4-1.8 0-2.7-.9-2.7-2.6V43h1.6v7c0 1.2.6 2 1.7 2 .9 0 2-.7 2-2.3V43zM49.788 51.7c-.5 1.2-1.3 1.7-2.6 1.7-2.1 0-2.8-1.4-2.8-3.3 0-3.1 3-3.2 5.3-3.1 0-1.3.1-2.8-1.7-2.8-1.1 0-1.7.7-1.6 1.8h-1.8c.1-2.3 1.3-3 3.4-3 2.6 0 3.3 1.3 3.3 3v4.9c0 .8.1 1.6.2 2.4h-1.8v-1.6zm-3.7-1.6c0 1 .5 1.9 1.6 1.9 1 0 2.2-.6 2.1-3.9-1.6 0-3.7-.1-3.7 2zM56.588 53.3c-2.2 0-3.5-1-3.5-3.3h1.9c0 .6 0 1.9 1.7 1.9 1 0 1.7-.5 1.7-1.5 0-1.8-5-1.8-5-4.9 0-1.1.6-2.8 3.5-2.8 1.8 0 3.3.9 3.2 2.9h-1.8c0-1.1-.5-1.6-1.6-1.6-.9 0-1.6.5-1.6 1.4 0 1.8 5 1.7 5 4.8 0 2.3-1.5 3.1-3.5 3.1z"/><path d="M61.688 43v-1.9l1.6-.7v2.7h2.2v1.2h-2.2v6.2c0 .6 0 1.5 1.5 1.5.1 0 .4 0 .7-.1v1.3c-.5 0-1.1.2-1.6.2-1.6 0-2.3-.6-2.3-1.8v-7.2h-1.7v-1.2h1.8z"/></g><g fill="#010101"><path d="M44.688 9.5h1v7.2h-1V9.5zM47.488 9.5h1v7.2h-1V9.5z"/></g><path fill="#010101" d="M24.088 24.1c-.7.6-1.8 1.2-2.6 1.6v-1.6c1-.5 2.1-1.2 2.7-1.7h1.4v11.1h-1.5v-9.4z"/><g fill="#010101"><path d="M22.288 61.5v4h-1.1v-8.7h3c1.5 0 2.1 1.1 2.1 2.2 0 1-.6 1.8-1.6 2 1 .2 1.4.5 1.4 2.2 0 .4.1 1.7.3 2.3h-1.2c-.3-.6-.2-1.7-.3-2.9-.1-1.1-.9-1.1-1.3-1.1h-1.3zm0-.9h1.7c.8 0 1.2-.7 1.2-1.4 0-.6-.3-1.3-1.2-1.3h-1.7v2.7zM27.388 65.5v-8.7h4.5v1h-3.4v2.8h3.1v1h-3.1v3h3.4v1h-4.5zM36.688 59.3c0-.5 0-1-.3-1.3-.2-.3-.7-.4-1-.4-.9 0-1.3.6-1.3.7 0 .1-.3.3-.3 1.8v2.3c0 2.1.7 2.4 1.5 2.4.3 0 1.4-.1 1.4-1.8h1.1c0 2.7-1.9 2.7-2.4 2.7-1.1 0-2.7-.1-2.7-3.4v-2.4c0-2.4 1.1-3.1 2.8-3.1 1.7 0 2.4.9 2.3 2.6h-1.1zM40.988 56.9h1.4l2.8 8.7h-1.2l-.6-2.1h-3.3l-.6 2.1h-1.1l2.6-8.7zm.7 1-1.4 4.6h2.8l-1.4-4.6zM46.988 65.5h-1v-8.7h1.8l2.2 7.3 2.2-7.3h1.8v8.7h-1.1v-7.7l-2.4 7.7h-1l-2.4-7.7v7.7z"/></g></svg>