<svg version="1.2" baseProfile="tiny" xmlns="http://www.w3.org/2000/svg" viewBox="0 0 75 75" overflow="visible" xml:space="preserve"><path fill="#FDE498" d="M0 0h75v75H0z"/><path fill="#010101" d="M59.688 19.7v17h-26.5v-17h26.5zm-18.7 6.1-6.4-3.9v12.5l6.1-3.6-.2-1.2c0-.1 0-.1.1-.1h.1l1 .7 3.2-1.9h-1.3v-1.1l-1-.6h-.1v-.1.1-.1l-.1.1-.1-.1h.1-.1v-.1h.1-.1l.1.1-.1-.1c-1.4-.5-1.4-.5-1.3-.6zm5.2-4.7h-10.2l6.9 4.1.5-.1H44.588l.2.4v-.4l1-.1v-.2h-.1l.1-.3-.2.3h-.1l-.1-.1-.1-.1-.1-.1-.1-.1-.1-.1-.1-.1-.1-.1-.1-.1-.1-.1-.1-.1-.1-.1V22.2l.1-.1V22l.1-.1.1-.1.1-.1.1-.1.1-.1.1-.1s.1 0 .1-.1l.1-.1h.4c.3 0 .4 0 .5-.1-.1.1 0 0 0 0zm-5.3 11.3-5 3h10.5l-.9-.9-2.1-.7-.1-.1-.1-.1-1-.9-.9.6h-.2l-.1-.1-.1-.8zm2.6.5-.1.4.2-.3 1.1.5h.1l.3.1.7-.7v-3.5l-2.9 1.8.6.4.1.1s0 .1-.1.1l-.7.5.1.1-.2.3.2-.3.6.5zm0-7.3v-.1.1zm.2.2 2.1 1.3v-1.4l-1 .1-.2-.4v.4l-.2-.4v.4h-.1l-.2-.4v.4h-.3l-.2-.4.1.4h-.1l-.2-.4.3.4zm2.1-1.9-.1.4.1-.4c.1.1.2.1.2.1v.1h1.1l.3.3-.2-.3.3.2-.2-.3.3.2-.2-.3.3.2-.3-.3.4.1-.3-.2.4.1-.3-.2.1-.1v-.2h.4l-.4-.1v-.1h.4-.4v-.2l.3-.2-.4.1v-.2s0-.1-.1-.1l.2-.3-.3.2-.1-.1-.1-.1.2-.3-.3.3s-.1 0-.1-.1h-.1l.1-.4-.2.3v-.4l-.1.4v-.4l-.1.4v-.4l-.1.4-.1-.4v.4l-.1-.4v.4l-.1-.4v.4l-.2-.3.1.4h-.1l-.2-.3.1.4h-.1l-.1.1-.3-.2.2.3-.1.1-.3-.2.3.2-.4-.1.3.2-.4-.1.3.2v.1h-.4l.4.1v.5l-.3.2.4-.1-.3.2.4-.1-.3.2.3-.1-.3.3.3-.2-.3.3.3-.2-.2.3.3-.2-.2.3.4-.4-.2.3.2-.3zm0 1.4v.2-.2zm.8 10h10.3l-5-3-.1.7s0 .1-.1.1h-.2l-.8-.5-.1.2-.1.1-.1.1-.8.6-.1.1-.1.1-1.6.6h-.2l-1 .9zm10.3-14.2h-10.1H47.088s.1 0 .1.1h.2l.1.1.1.1.1.1.1.1.1.1.1.1.1.1.1.1.1.1.1.1v.1s0 .1.1.1v.4l-.4.1h.4V24s0 .1-.1.1l-.1.1-.1.1-.1.1-.1.1-.1.1-.1.1-.1.1-.1.1-.1.1-.1.1h-.1v.2H49.088l.1.4v.3l.1-.1v-.3l.1-.4h.1l.7.1h.1l6.6-4.2zm-7.8 4.7-.1-.4-.1.4-.5-.1-.1-.4v.4h-.1l-.1-.4v.4h-.6l-.1-.4v.4h-.3V27l2-1.2zm.8 5.4-2.7-1.6v3.3l.6.6h.2l.2.3-.1-.4.7-.3.1-.1.1-.1.3.3-.2-.3.3.3-.2-.3.1-.1.3.2-.2-.3.5-.4.3.2-.2-.3.1-.1-.7-.5-.1-.1s0-.1.1-.1l.5-.2zm2.3-.3 6.1 3.6V22l-6.4 3.8V26.1l-.1-.1.1.1-.1-.1.1.1h-.4V26v.1h-.2l-1.1.7.1.1v.9c0 .1-.1.1-.1.1h-1.3l3.2 1.9 1-.7h.1l.1.1-1.1 1.7zM35.388 45c1.7.1 2.8-.5 2.8-2.3 0-1.3-.6-2.2-1.9-2.2-1.5 0-1.8 1.1-1.7 2.3h-1.8c-.1-2.4 1-3.8 3.6-3.8 2.4 0 3.8 1.2 3.8 3.6 0 2.6-1.9 3-2.7 3.2 2.2.3 2.9 1.5 2.9 3.5 0 2.7-1.5 4-4.1 4-3.9 0-3.6-3.3-3.6-4.1h1.8c0 1.4.2 2.6 1.9 2.6 1.6 0 2.1-1 2.1-2.5 0-2.2-.8-2.7-3-2.7V45z"/><g fill="#010101"><path d="M44.688 9.5h1v7.2h-1V9.5zM47.488 9.5h1v7.2h-1V9.5z"/></g><path fill="#010101" d="M24.088 24.1c-.7.6-1.8 1.2-2.6 1.6v-1.6c1-.5 2.1-1.2 2.7-1.7h1.4v11.1h-1.5v-9.4z"/><g fill="#010101"><path d="M21.088 65.5h-1v-8.7h1.8l2.2 7.3 2.2-7.3h1.8v8.7h-1.1v-7.7l-2.4 7.7h-1l-2.4-7.7v7.7zM32.588 64.7c-.3.7-.8 1-1.5 1-1.3 0-1.7-.8-1.7-2 0-1.8 1.8-1.9 3.2-1.9 0-.8 0-1.7-1-1.7-.7 0-1 .4-.9 1.1h-1.1c0-1.4.8-1.8 2.1-1.8 1.6 0 2 .8 2 1.8v2.9c0 .5 0 1 .1 1.4h-1.1v-.8zm-2.2-1c0 .6.3 1.1.9 1.1.6 0 1.3-.4 1.2-2.3-.9 0-2.1-.1-2.1 1.2zM35.988 60.4c.4-.9.9-1 1.9-1v1h-.6c-1.1 0-1.4.8-1.4 1.6v3.6h-1v-6.1h1v.9zM38.388 56.9h1.1V58h-1.1v-1.1zm1 8.6h-1v-6.1h1v6.1zM43.888 65.5v-4.2c0-.6-.2-1.2-1.1-1.2-1.1 0-1.2 1-1.2 1.8v3.6h-1v-4.8c0-.4 0-.8-.1-1.3h1v.8c.4-.7.8-.9 1.6-.9 1.3 0 1.6.8 1.6 2v4.2h-.8zM47.088 62.8c0 1.7.5 2 1.2 2s1-.5 1.1-1.2h1.1c0 1.3-.8 2-2.1 2s-2.3-.4-2.3-3.1c0-1.8.2-3.2 2.3-3.2 1.7 0 2.2.9 2.2 3v.5h-3.5zm2.4-.7c0-1.8-.5-2-1.2-2-.6 0-1.1.3-1.2 2h2.4zM53.388 65.6c-1.3 0-2.1-.6-2.1-2h1.1c0 .3 0 1.2 1 1.2.6 0 1-.3 1-.9 0-1.1-3-1.1-3-2.9 0-.6.4-1.7 2.1-1.7 1.1 0 2 .5 1.9 1.7h-1.1c0-.6-.3-1-.9-1-.5 0-.9.3-.9.8 0 1.1 3 1 3 2.9.1 1.4-.9 1.9-2.1 1.9z"/></g><path fill="#010101" d="M13.7 11.9c0-1-.4-1.6-1.5-1.6-.3 0-1.6.1-1.6 1.9v2.9c0 1.9.6 2.4 1.6 2.4.8 0 1.3-.2 1.5-.4v-2.6h-1.6v-1h2.7v4.2c-.7.4-1.5.6-2.7.6-1.8 0-2.7-.9-2.7-3.3v-2.8c0-1.7.9-2.8 2.7-2.8 1.9 0 2.8.7 2.7 2.5h-1.1z"/></svg>