<svg version="1.2" baseProfile="tiny" xmlns="http://www.w3.org/2000/svg" viewBox="0 0 75 75" overflow="visible" xml:space="preserve"><path fill="#FDE498" d="M0 0h75v75H0z"/><path fill="#FDD700" d="M-.012 18.8h75v18.8h-75z"/><path fill="#010101" d="M59.688 19.7v17h-26.5v-17h26.5zm-18.7 6.1-6.4-3.9v12.5l6.1-3.6-.2-1.2c0-.1 0-.1.1-.1h.1l1 .7 3.2-1.9h-1.3v-1.1l-1-.6h-.1v-.1.1-.1l-.1.1-.1-.1h.1-.1v-.1h.1-.1l.1.1-.1-.1c-1.4-.5-1.4-.5-1.3-.6zm5.2-4.7h-10.2l6.9 4.1.5-.1H44.588l.2.4v-.4l1-.1v-.2h-.1l.1-.3-.2.3h-.1l-.1-.1-.1-.1-.1-.1-.1-.1-.1-.1-.1-.1-.1-.1-.1-.1-.1-.1-.1-.1-.1-.1V22.2l.1-.1V22l.1-.1.1-.1.1-.1.1-.1.1-.1.1-.1s.1 0 .1-.1l.1-.1h.4c.3 0 .4 0 .5-.1-.1.1 0 0 0 0zm-5.3 11.3-5 3h10.5l-.9-.9-2.1-.7-.1-.1-.1-.1-1-.9-.9.6h-.2l-.1-.1-.1-.8zm2.6.5-.1.4.2-.3 1.1.5h.1l.3.1.7-.7v-3.5l-2.9 1.8.6.4.1.1s0 .1-.1.1l-.7.5.1.1-.2.3.2-.3.6.5zm0-7.3v-.1.1zm.2.2 2.1 1.3v-1.4l-1 .1-.2-.4v.4l-.2-.4v.4h-.1l-.2-.4v.4h-.3l-.2-.4.1.4h-.1l-.2-.4.3.4zm2.1-1.9-.1.4.1-.4c.1.1.2.1.2.1v.1h1.1l.3.3-.2-.3.3.2-.2-.3.3.2-.2-.3.3.2-.3-.3.4.1-.3-.2.4.1-.3-.2.1-.1v-.2h.4l-.4-.1v-.1h.4-.4v-.2l.3-.2-.4.1v-.2s0-.1-.1-.1l.2-.3-.3.2-.1-.1-.1-.1.2-.3-.3.3s-.1 0-.1-.1h-.1l.1-.4-.2.3v-.4l-.1.4v-.4l-.1.4v-.4l-.1.4-.1-.4v.4l-.1-.4v.4l-.1-.4v.4l-.2-.3.1.4h-.1l-.2-.3.1.4h-.1l-.1.1-.3-.2.2.3-.1.1-.3-.2.3.2-.4-.1.3.2-.4-.1.3.2v.1h-.4l.4.1v.5l-.3.2.4-.1-.3.2.4-.1-.3.2.3-.1-.3.3.3-.2-.3.3.3-.2-.2.3.3-.2-.2.3.4-.4-.2.3.2-.3zm0 1.4v.2-.2zm.8 10h10.3l-5-3-.1.7s0 .1-.1.1h-.2l-.8-.5-.1.2-.1.1-.1.1-.8.6-.1.1-.1.1-1.6.6h-.2l-1 .9zm10.3-14.2h-10.1H47.088s.1 0 .1.1h.2l.1.1.1.1.1.1.1.1.1.1.1.1.1.1.1.1.1.1.1.1v.1s0 .1.1.1v.4l-.4.1h.4V24s0 .1-.1.1l-.1.1-.1.1-.1.1-.1.1-.1.1-.1.1-.1.1-.1.1-.1.1-.1.1h-.1v.2H49.088l.1.4v.3l.1-.1v-.3l.1-.4h.1l.7.1h.1l6.6-4.2zm-7.8 4.7-.1-.4-.1.4-.5-.1-.1-.4v.4h-.1l-.1-.4v.4h-.6l-.1-.4v.4h-.3V27l2-1.2zm.8 5.4-2.7-1.6v3.3l.6.6h.2l.2.3-.1-.4.7-.3.1-.1.1-.1.3.3-.2-.3.3.3-.2-.3.1-.1.3.2-.2-.3.5-.4.3.2-.2-.3.1-.1-.7-.5-.1-.1s0-.1.1-.1l.5-.2zm2.3-.3 6.1 3.6V22l-6.4 3.8V26.1l-.1-.1.1.1-.1-.1.1.1h-.4V26v.1h-.2l-1.1.7.1.1v.9c0 .1-.1.1-.1.1h-1.3l3.2 1.9 1-.7h.1l.1.1-1.1 1.7z"/><g fill="#010101"><path d="M9.488 53.1h-1.7V38.7h3l3.6 12.1 3.7-12.1h3v14.4h-1.8V40.3l-4 12.8h-1.7l-4-12.8v12.8zM28.388 51.7c-.5 1.2-1.3 1.7-2.6 1.7-2.1 0-2.8-1.4-2.8-3.3 0-3.1 3-3.2 5.3-3.1 0-1.3.1-2.8-1.7-2.8-1.1 0-1.7.7-1.6 1.8h-1.8c.1-2.3 1.3-3 3.4-3 2.6 0 3.3 1.3 3.3 3v4.9c0 .8.1 1.6.2 2.4h-1.8v-1.6zm-3.7-1.6c0 1 .5 1.9 1.6 1.9 1 0 2.2-.6 2.1-3.9-1.6 0-3.7-.1-3.7 2zM33.888 44.5c.7-1.5 1.6-1.7 3.2-1.7v1.7c-.1 0-.3 0-.4-.1h-.4c-1.8 0-2.3 1.4-2.3 2.7v6h-1.6V43h1.6v1.5zM37.688 38.7h1.8v1.8h-1.8v-1.8zm1.8 14.4h-1.6V43h1.6v10.1zM46.788 53.1v-7c0-1.1-.4-2-1.8-2-1.8 0-2.1 1.6-2.1 3v6h-1.6v-8c0-.7 0-1.4-.1-2.1h1.7v1.3h.1c.6-1.1 1.4-1.5 2.7-1.5 2.2 0 2.7 1.3 2.7 3.3v7h-1.6zM51.888 48.6c0 2.8.8 3.4 2 3.4 1.1 0 1.7-.9 1.8-1.9h1.8c0 2.2-1.4 3.3-3.5 3.3s-3.8-.6-3.8-5.1c0-3 .3-5.4 3.8-5.4 2.9 0 3.6 1.6 3.6 4.9v.9h-5.7zm3.9-1.2c0-2.9-.8-3.3-2-3.3-1 0-1.9.5-1.9 3.3h3.9zM62.288 53.3c-2.2 0-3.5-1-3.5-3.3h1.9c0 .6 0 1.9 1.7 1.9 1 0 1.7-.5 1.7-1.5 0-1.8-5-1.8-5-4.9 0-1.1.6-2.8 3.5-2.8 1.8 0 3.3.9 3.2 2.9h-1.8c0-1.1-.5-1.6-1.6-1.6-.9 0-1.6.5-1.6 1.4 0 1.8 5 1.7 5 4.8 0 2.3-1.5 3.1-3.5 3.1z"/></g><g fill="#010101"><path d="M43.288 9.5h1v7.2h-1V9.5zM46.088 9.5h1v7.2h-1V9.5zM48.788 9.5h1v7.2h-1V9.5z"/></g><g fill="#010101"><path d="M12.088 35.4c-.9-2.1-1.9-4.8-1.9-7.1 0-1.3.3-2.5.7-3.7.4-1.4.9-2.5 1.1-3.2h1.1c-.3.8-.6 1.9-.9 3.4-.3 1.5-.4 2.5-.4 3.5 0 2.3.6 4.1 1.5 7.2h-1.2zM15.188 32l2.9-2.8c.6-.6 1.2-1.2 1.7-1.9.6-.9.8-1.4.8-2 0-.5-.2-1.8-1.8-1.8-1.8 0-1.8 1.5-1.8 1.9h-1.7c0-.5.1-1.6 1-2.4.8-.7 1.7-.8 2.4-.8 1.7 0 3.4.9 3.4 3.2 0 .7 0 1.2-1.2 2.8-.3.4-1.7 1.9-2 2.2l-1.9 1.8h5.3v1.3h-7V32zM25.488 21.4c.9 2.1 1.9 4.8 1.9 7.1 0 1.3-.3 2.5-.7 3.7-.4 1.4-.9 2.5-1.1 3.2h-1.1c.3-.8.6-1.9.9-3.4.3-1.5.4-2.5.4-3.5 0-2.3-.6-4.1-1.5-7.1h1.2z"/></g><g fill="#010101"><path d="M28.488 56.9v1h-2.3v7.7h-1.1v-7.7h-2.3v-1h5.7zM27.788 62.6c0-1.8.2-3.2 2.3-3.2 2.1 0 2.3 1.5 2.3 3.2 0 2.7-1 3.1-2.3 3.1-1.3-.1-2.3-.4-2.3-3.1zm3.6-.4c0-1.7-.5-2-1.3-2s-1.3.4-1.3 2c0 2 .3 2.7 1.3 2.7 1.1-.1 1.3-.8 1.3-2.7zM34.588 65.5h-1v-8.7h1V60c.3-.5.8-.7 1.3-.7 2 0 2 1.7 2 3.2 0 2.7-1 3-2 3-.6 0-1.1-.3-1.4-.8v.8zm1.1-.7c1.2 0 1.2-1.3 1.2-2.2 0-1.6-.1-2.5-1.2-2.5-1.1 0-1.1 1.3-1.1 2.1 0 1-.1 2.6 1.1 2.6zM39.988 60.4c.4-.9.9-1 1.9-1v1h-.6c-1.1 0-1.4.8-1.4 1.6v3.6h-1v-6.1h1v.9zM45.788 59.5h1v4.8c0 .4 0 .8.1 1.3h-1v-.7c-.3.6-.9.9-1.5.9-1.1 0-1.6-.5-1.6-1.6v-4.6h1v4.2c0 .7.3 1.2 1 1.2.5 0 1.2-.4 1.2-1.4v-4.1zM48.988 65.5h-1v-8.7h1V62l1.8-2.6h1.2l-2 2.6 2.4 3.5h-1.2l-2.2-3.4v3.4z"/></g><path fill="#010101" d="M13.7 11.9c0-1-.4-1.6-1.5-1.6-.3 0-1.6.1-1.6 1.9v2.9c0 1.9.6 2.4 1.6 2.4.8 0 1.3-.2 1.5-.4v-2.6h-1.6v-1h2.7v4.2c-.7.4-1.5.6-2.7.6-1.8 0-2.7-.9-2.7-3.3v-2.8c0-1.7.9-2.8 2.7-2.8 1.9 0 2.8.7 2.7 2.5h-1.1z"/></svg>