<svg version="1.2" baseProfile="tiny" xmlns="http://www.w3.org/2000/svg" viewBox="0 0 75 75" overflow="visible" xml:space="preserve"><path fill="#FDE498" d="M0 0h75v75H0z"/><path fill="#010101" d="M59.688 19.7v17h-26.5v-17h26.5zm-15.3 8.9v-.7l-9.8-5.9v12.5l9.9-5.9h-.1zm12.5-7.5h-20.9l9.6 5.7v-1.5h-1.2l2.1-3.3 2.1 3.3h-1.2v1.5l9.5-5.7zm-12.5 10.3v-1.1l-8.4 5h20.9l-8.4-5v1.1h-1.2v2.9h-1.7v-2.9h-1.2zm1.2-1.8-1 .6h1v-.6zm1.7.6h1l-1-.6v.6zm10.9 4.3V22l-9.8 5.9v.7h-.1l9.9 5.9z"/><g fill="#010101"><path d="M27.988 53.1h-2.2l-4.2-14.4h2l3.3 12.7 3.4-12.7h1.9l-4.2 14.4zM32.988 53.1V38.7h7.4v1.6h-5.6v4.6h5.2v1.6h-5.2v5h5.7v1.6h-7.5zM48.388 42.7c0-.8 0-1.6-.4-2.1s-1.2-.6-1.6-.6c-1.5 0-2.1.9-2.2 1.1-.1.2-.4.5-.4 3V48c0 3.5 1.2 4 2.6 4 .6 0 2.3-.2 2.3-3h1.9c.1 4.6-3.1 4.6-4.1 4.6-1.8 0-4.6-.1-4.6-5.7v-4.1c0-4.1 1.8-5.2 4.6-5.2 2.9 0 4 1.5 3.8 4.3h-1.9z"/></g><g fill="#010101"><path d="M44.688 9.5h1v7.2h-1V9.5zM47.488 9.5h1v7.2h-1V9.5z"/></g><path fill="#010101" d="M24.088 24.1c-.7.6-1.8 1.2-2.6 1.6v-1.6c1-.5 2.1-1.2 2.7-1.7h1.4v11.1h-1.5v-9.4z"/><g fill="#010101"><path d="M23.888 65.5v-8.7h2.8c1.2 0 1.6.4 1.9.9.3.5.3 1 .3 1.2 0 1.1-.4 1.8-1.5 2.1 1.2.1 1.8.9 1.8 2.1 0 2.2-1.6 2.4-2.6 2.4h-2.7zm1.1-5h1.6c.9 0 1.3-.5 1.3-1.4 0-.7-.4-1.3-1.3-1.3h-1.6v2.7zm0 4.1h1.6c1.2 0 1.6-.8 1.6-1.5 0-1.4-.9-1.6-2-1.6h-1.2v3.1zM33.688 64.7c-.3.7-.8 1-1.5 1-1.3 0-1.7-.8-1.7-2 0-1.8 1.8-1.9 3.2-1.9 0-.8 0-1.7-1-1.7-.7 0-1 .4-.9 1.1h-1.1c0-1.4.8-1.8 2.1-1.8 1.6 0 2 .8 2 1.8v2.9c0 .5 0 1 .1 1.4h-1.1v-.8zm-2.3-1c0 .6.3 1.1.9 1.1.6 0 1.3-.4 1.2-2.3-.8 0-2.1-.1-2.1 1.2zM37.088 60.4c.4-.9.9-1 1.9-1v1h-.6c-1.1 0-1.4.8-1.4 1.6v3.6h-1v-6.1h1v.9zM42.788 56.9h1v8.7h-1v-.7c-.3.6-.8.8-1.4.8-1 0-2-.4-2-3 0-1.5 0-3.2 2-3.2.6 0 1 .3 1.3.7v-3.3zm-1.2 3.3c-1.1 0-1.2.8-1.2 2.5 0 .9 0 2.2 1.2 2.2 1.1 0 1.1-1.4 1.1-2.6.1-.8 0-2.1-1.1-2.1zM44.988 56.9h1.1V58h-1.1v-1.1zm1 8.6h-1v-6.1h1v6.1zM50.288 64.7c-.3.7-.8 1-1.5 1-1.3 0-1.7-.8-1.7-2 0-1.8 1.8-1.9 3.2-1.9 0-.8 0-1.7-1-1.7-.7 0-1 .4-.9 1.1h-1.1c0-1.4.8-1.8 2.1-1.8 1.6 0 2 .8 2 1.8v2.9c0 .5 0 1 .1 1.4h-1.1v-.8zm-2.2-1c0 .6.3 1.1.9 1.1.6 0 1.3-.4 1.2-2.3-.8 0-2.1-.1-2.1 1.2z"/></g><path fill="#010101" d="M13.7 11.9c0-1-.4-1.6-1.5-1.6-.3 0-1.6.1-1.6 1.9v2.9c0 1.9.6 2.4 1.6 2.4.8 0 1.3-.2 1.5-.4v-2.6h-1.6v-1h2.7v4.2c-.7.4-1.5.6-2.7.6-1.8 0-2.7-.9-2.7-3.3v-2.8c0-1.7.9-2.8 2.7-2.8 1.9 0 2.8.7 2.7 2.5h-1.1z"/></svg>