<svg version="1.2" baseProfile="tiny" xmlns="http://www.w3.org/2000/svg" viewBox="0 0 75 75" overflow="visible" xml:space="preserve"><path fill="#FDD700" d="M-75.012 18.8h75v18.8h-75z"/><path fill="#FDE498" d="M0 0h75v75H0z"/><path fill="#010101" d="M59.688 19.7v17h-26.5v-17h26.5zm-25.1 2.3v12.5l10.4-6.3-10.4-6.2zm22.3-.9h-20.9l10.4 6.3 10.5-6.3zm-16.4 11.5-4.6 2.7h2.9c.3-1.1.9-2.1 1.7-2.7zm-.4 2.7h5.6c-.3-1.3-1.4-2.3-2.8-2.3-1.3 0-2.5 1-2.8 2.3zm13.8 0h2.9l-10.4-6.3-5.3 3.2c.6-.3 1.2-.5 1.8-.5 1.5 0 2.8.8 3.5 2 .7-1.2 2-2 3.5-1.9 2.1.1 3.7 1.6 4 3.5zm-4-2.2c-1.4 0-2.6 1-2.8 2.3h5.6c-.3-1.4-1.4-2.3-2.8-2.3zm-2.1-4.9 10.4 6.3V22l-10.4 6.2z"/><g fill="#010101"><path d="M12.988 53.1h-1.8V41.3l-2.1 1.4v-1.8c.5-.2 1.8-1.2 2.3-1.7h1.6v13.9zM20.888 53.1V38.7h1.8v12.8h5.3v1.6h-7.1zM28.488 38.7h1.8v1.8h-1.8v-1.8zm1.7 14.4h-1.6V43h1.6v10.1zM33.888 53.1h-1.6V38.7h1.6V44h.1c.6-.8 1.3-1.2 2.2-1.2 3.3 0 3.3 2.9 3.3 5.4 0 4.4-1.6 5.1-3.3 5.1-1.1 0-1.8-.5-2.3-1.4v1.2zm1.8-1.1c2.1 0 2.1-2.2 2.1-3.7 0-2.7-.2-4.1-2-4.1s-1.9 2.2-1.9 3.5c0 1.5-.2 4.3 1.8 4.3zM41.488 53.1V38.7h4.3c1.9 0 4 .7 4 4.1 0 3.3-2.6 4-4 4h-2.4v6.4h-1.9zm1.8-7.9h2c.8 0 2.6-.2 2.6-2.5 0-2.2-1.6-2.4-2-2.4h-2.5v4.9zM56.388 51.7c-.5 1.2-1.3 1.7-2.6 1.7-2.1 0-2.8-1.4-2.8-3.3 0-3.1 3-3.2 5.3-3.1 0-1.3.1-2.8-1.7-2.8-1.1 0-1.7.7-1.6 1.8h-1.8c.1-2.3 1.3-3 3.4-3 2.6 0 3.3 1.3 3.3 3v4.9c0 .8.1 1.6.2 2.4h-1.8v-1.6zm-3.7-1.6c0 1 .5 1.9 1.6 1.9 1 0 2.2-.6 2.1-3.9-1.6 0-3.7-.1-3.7 2zM61.888 44.5c.7-1.5 1.6-1.7 3.2-1.7v1.7c-.1 0-.3 0-.4-.1h-.4c-1.8 0-2.3 1.4-2.3 2.7v6h-1.6V43h1.6v1.5z"/></g><g fill="#010101"><path d="M44.688 9.5h1v7.2h-1V9.5zM47.488 9.5h1v7.2h-1V9.5z"/></g><path fill="#010101" d="M24.088 24.1c-.7.6-1.8 1.2-2.6 1.6v-1.6c1-.5 2.1-1.2 2.7-1.7h1.4v11.1h-1.5v-9.4z"/><g fill="#010101"><path d="M24.088 65.5v-8.7h1.1v7.7h3.2v1h-4.3zM28.788 56.9h1.1V58h-1.1v-1.1zm1 8.6h-1v-6.1h1v6.1zM32.088 65.5h-1v-8.7h1V60c.3-.5.8-.7 1.3-.7 2 0 2 1.7 2 3.2 0 2.7-1 3-2 3-.6 0-1.1-.3-1.4-.8v.8zm1.1-.7c1.2 0 1.2-1.3 1.2-2.2 0-1.6-.1-2.5-1.2-2.5-1.1 0-1.1 1.3-1.1 2.1 0 1-.1 2.6 1.1 2.6zM38.388 64.4l1.5-4.9h1.1l-2.7 8.3h-1l.7-2.3-2.1-6.1h1.1l1.4 5zM44.488 64.7c-.3.7-.8 1-1.5 1-1.3 0-1.7-.8-1.7-2 0-1.8 1.8-1.9 3.2-1.9 0-.8 0-1.7-1-1.7-.7 0-1 .4-.9 1.1h-1.1c0-1.4.8-1.8 2.1-1.8 1.6 0 2 .8 2 1.8v2.9c0 .5 0 1 .1 1.4h-1.1v-.8zm-2.2-1c0 .6.3 1.1.9 1.1.6 0 1.3-.4 1.2-2.3-.9 0-2.1-.1-2.1 1.2zM50.188 65.5v-4.2c0-.6-.2-1.2-1.1-1.2-1.1 0-1.2 1-1.2 1.8v3.6h-1v-4.8c0-.4 0-.8-.1-1.3h1v.8c.4-.7.8-.9 1.6-.9 1.3 0 1.6.8 1.6 2v4.2h-.8z"/></g></svg>