<svg version="1.2" baseProfile="tiny" xmlns="http://www.w3.org/2000/svg" viewBox="0 0 75 75" overflow="visible" xml:space="preserve"><path fill="#FDD700" d="M-75.012 18.7h75v18.8h-75z"/><path fill="#FDE498" d="M0 0h75v75H0z"/><path fill="#FDD700" d="M-.012 18.7h75v18.8h-75z"/><path fill="#010101" d="M59.688 19.7v17h-26.5v-17h26.5zm-25.1 2.3v12.5l10.4-6.3-10.4-6.2zm22.3-.9h-20.9l10.4 6.3 10.5-6.3zm-20.9 14.2h20.9l-10.4-6.3-10.5 6.3zm11.8-7.1 10.4 6.3V22l-10.4 6.2z"/><g fill="#010101"><path d="M3.188 49.7v-1.6l3.9-8.9h2.4v8.9h1.6v1.6h-1.6v3.4h-1.7v-3.4h-4.6zm4.7-1.6v-7.2l-3 7.2h3zM11.488 55h-1.3l4.7-16.4h1.3l-4.7 16.4zM20.988 53.1h-1.8V41.2l-2.1 1.4v-1.8c.5-.2 1.8-1.2 2.3-1.7h1.6v14zM31.188 46.2c0 3.6 0 7.2-3.7 7.2s-3.7-3.6-3.7-7.2c0-3.7-.1-7.2 3.7-7.2s3.7 3.5 3.7 7.2zm-5.6.4c0 2.3-.1 5.3 1.9 5.3s1.9-2.9 1.9-5.3c0-3.7 0-6-1.9-6s-1.9 2.3-1.9 6zM35.788 38.7h2.3l4.7 14.4h-2.1l-1-3.4h-5.6l-1.1 3.4h-1.9l4.7-14.4zm1.1 1.7-2.3 7.7h4.6l-2.3-7.7zM45.288 44.5c.7-1.5 1.6-1.7 3.2-1.7v1.7c-.1 0-.3 0-.4-.1h-.4c-1.8 0-2.3 1.4-2.3 2.7v6h-1.6V43h1.6v1.5zM54.188 53.1v-7c0-1-.3-2-1.6-2-.5 0-1.2.3-1.4.7-.3.5-.4 1.1-.4 1.5v6.8h-1.6v-8c0-.7 0-1.4-.1-2.1h1.7v1.3c.5-1.1 1.3-1.5 2.5-1.5.9 0 2 .4 2.4 1.3.6-1.1 1.5-1.3 2.4-1.3 1.1 0 2.8.2 2.8 2.6v7.7h-1.6v-7c0-1-.3-2-1.6-2-.6 0-.8 0-1.2.4-.5.4-.6 1.4-.6 1.8v6.8h-1.7zM65.688 51.2l2.5-8.2h1.8l-4.6 13.9h-1.7l1.1-3.8-3.4-10.1h1.9l2.4 8.2z"/></g><g fill="#010101"><path d="M44.688 9.5h1v7.2h-1V9.5zM47.488 9.5h1v7.2h-1V9.5z"/></g><path fill="#010101" d="m20.588 32 2.9-2.8c.6-.6 1.2-1.2 1.7-1.9.6-.9.8-1.4.8-2 0-.5-.2-1.8-1.8-1.8-1.8 0-1.8 1.5-1.8 1.9h-1.7c0-.5.1-1.6 1-2.4.8-.7 1.7-.8 2.4-.8 1.7 0 3.4.9 3.4 3.2 0 .7 0 1.2-1.2 2.8-.3.4-1.7 1.9-2 2.2l-1.9 1.8h5.3v1.3h-7V32zM36.288 61.8h2.6v.9h-2.6v-.9z"/></svg>