<svg version="1.2" baseProfile="tiny" xmlns="http://www.w3.org/2000/svg" viewBox="0 0 75 75" overflow="visible" xml:space="preserve"><path fill="#FDE498" d="M0 0h75v75H0z"/><path fill="#010101" d="M59.688 19.7v17h-26.5v-17h26.5zm-13.3 7.7 10.4-6.3h-15.9v3l5.5 3.3zm-5.5 3.3 4.1-2.5-4.1-2.5v5zm0 4.6h15.9l-10.4-6.3-5.5 3.3v3zm6.9-7.1 10.4 6.3V22l-10.4 6.2z"/><g fill="#010101"><path d="M12.788 53.1h-1.7V38.7h3l3.6 12.1 3.7-12.1h3v14.4h-1.8V40.3l-4 12.8h-1.7l-4-12.8v12.8zM28.088 48.6c0 2.8.8 3.4 2 3.4 1.1 0 1.7-.9 1.8-1.9h1.8c0 2.2-1.4 3.3-3.5 3.3s-3.8-.6-3.8-5.1c0-3 .3-5.4 3.8-5.4 2.9 0 3.6 1.6 3.6 4.9v.9h-5.7zm4-1.2c0-2.9-.8-3.3-2-3.3-1 0-1.9.5-1.9 3.3h3.9zM40.788 46.3c0-1.7-.8-2.1-1.4-2.1-1.3 0-2.1.6-2.1 3.4 0 3.3.4 4.5 2.1 4.5.4 0 1.5-.4 1.5-2.2h1.7c.1 2.8-2.1 3.6-3.2 3.6-2.1 0-3.8-.6-3.8-5.1 0-3 .3-5.4 3.8-5.4 2 0 3.2 1.2 3.1 3.4h-1.7zM49.988 53.1v-6.8c0-1.2-.4-2.1-1.8-2.1-1.6 0-2.1 1.3-2.1 3v5.9h-1.6V38.7h1.6v5.6h.1c.7-1.2 1.4-1.5 2.7-1.5 1.7 0 2.7.9 2.7 3.1v7.2h-1.6zM53.388 38.7h1.8v1.8h-1.8v-1.8zm1.7 14.4h-1.6V43h1.6v10.1zM58.588 53.1h-1.6V38.7h1.6v14.4zM60.288 38.7h1.8v1.8h-1.8v-1.8zm1.7 14.4h-1.6V43h1.6v10.1z"/></g><g fill="#010101"><path d="M44.688 9.5h1v7.2h-1V9.5zM47.488 9.5h1v7.2h-1V9.5z"/></g><path fill="#010101" d="M24.088 24.1c-.7.6-1.8 1.2-2.6 1.6v-1.6c1-.5 2.1-1.2 2.7-1.7h1.4v11.1h-1.5v-9.4z"/><g fill="#010101"><path d="M23.088 65.5h-1v-8.7h1.8l2.2 7.3 2.2-7.3h1.8v8.7h-1.1v-7.7l-2.4 7.7h-1l-2.4-7.7v7.7zM32.388 62.8c0 1.7.5 2 1.2 2s1-.5 1.1-1.2h1.1c0 1.3-.8 2-2.1 2s-2.3-.4-2.3-3.1c0-1.8.2-3.2 2.3-3.2 1.7 0 2.2.9 2.2 3v.5h-3.5zm2.4-.7c0-1.8-.5-2-1.2-2-.6 0-1.1.3-1.2 2h2.4zM40.088 61.4c0-1-.5-1.3-.8-1.3-.8 0-1.3.4-1.3 2 0 2 .3 2.7 1.3 2.7.2 0 .9-.2.9-1.3h1c0 1.7-1.2 2.1-1.9 2.1-1.3 0-2.3-.4-2.3-3.1 0-1.8.2-3.2 2.3-3.2 1.2 0 1.9.7 1.9 2.1h-1.1zM45.788 65.5v-4.1c0-.7-.2-1.3-1.1-1.3-1 0-1.2.8-1.2 1.8v3.6h-1v-8.7h1v3.4c.4-.7.9-.9 1.6-.9 1 0 1.6.5 1.6 1.9v4.3h-.9zM47.888 56.9h1.1V58h-1.1v-1.1zm1 8.6h-1v-6.1h1v6.1zM51.088 65.5h-1v-8.7h1v8.7zM52.188 56.9h1.1V58h-1.1v-1.1zm1.1 8.6h-1v-6.1h1v6.1z"/></g><path fill="#010101" d="M13.7 11.9c0-1-.4-1.6-1.5-1.6-.3 0-1.6.1-1.6 1.9v2.9c0 1.9.6 2.4 1.6 2.4.8 0 1.3-.2 1.5-.4v-2.6h-1.6v-1h2.7v4.2c-.7.4-1.5.6-2.7.6-1.8 0-2.7-.9-2.7-3.3v-2.8c0-1.7.9-2.8 2.7-2.8 1.9 0 2.8.7 2.7 2.5h-1.1z"/></svg>