<svg version="1.2" baseProfile="tiny" xmlns="http://www.w3.org/2000/svg" viewBox="0 0 75 75" overflow="visible" xml:space="preserve"><path fill="#FDE498" d="M0 0h75v75H0z"/><path fill="#010101" d="M59.688 19.7v17h-26.5v-17h26.5zm-25.1 2.3v12.5l10.4-6.3-10.4-6.2zm22.3-.9h-20.9l10.4 6.3 10.5-6.3zm-20.9 14.2h20.9l-10.4-6.3-10.5 6.3zm11.8-7.1 10.4 6.3V22l-10.4 6.2z"/><g fill="#010101"><path d="M14.788 53.1h-1.8V38.7h1.8v14.4zM19.288 53.1h-1.8V38.7h1.8v14.4zM20.988 55h-1.3l4.7-16.4h1.3l-4.7 16.4zM30.288 45.8c2 .2 2.6 1.8 2.6 3.6 0 2.5-1.3 4-3.7 4-2.4 0-3.7-1.5-3.7-4 0-1.8.5-3.4 2.6-3.6-1.6-.3-2.4-1.7-2.4-3.3 0-2.2 1.4-3.5 3.6-3.5s3.6 1.3 3.6 3.5c-.2 1.6-.9 2.9-2.6 3.3zm.7 3.6c0-1.2-.1-2.8-1.9-2.8-1.7 0-1.9 1.6-1.9 2.8 0 1.2.5 2.5 1.9 2.5 1.5 0 1.9-1.3 1.9-2.5zm-.1-7c0-1-.5-2.1-1.7-2.1s-1.7 1-1.7 2.1c0 1 .3 2.5 1.7 2.5 1.4.1 1.7-1.4 1.7-2.5zM33.188 39.2h7.2v1.6l-3.7 12.3h-2.1l3.9-12.3h-5.3v-1.6zM42.088 53.1V38.7h1.8v12.8h5.3v1.6h-7.1zM49.688 38.7h1.8v1.8h-1.8v-1.8zm1.7 14.4h-1.6V43h1.6v10.1zM54.988 53.1h-1.6V38.7h1.6v5.4h.1c.6-.8 1.3-1.2 2.2-1.2 3.3 0 3.3 2.9 3.3 5.4 0 4.4-1.6 5.1-3.3 5.1-1.1 0-1.8-.5-2.3-1.4v1.1zm1.9-1.1c2.1 0 2.1-2.2 2.1-3.7 0-2.7-.2-4.1-2-4.1s-1.9 2.2-1.9 3.5c-.1 1.5-.3 4.3 1.8 4.3z"/></g><g fill="#010101"><path d="M44.688 9.5h1v7.2h-1V9.5zM47.488 9.5h1v7.2h-1V9.5z"/></g><path fill="#010101" d="M24.088 24.1c-.7.6-1.8 1.2-2.6 1.6v-1.6c1-.5 2.1-1.2 2.7-1.7h1.4v11.1h-1.5v-9.4zM37.988 59.1l1.1 1.6-.7.4-.8-1.7-.8 1.7-.7-.4 1.1-1.6-1.9.2v-.8l1.9.1-1.1-1.5.7-.4.8 1.7.8-1.7.7.4-1.1 1.5 1.9-.1v.8l-1.9-.2z"/></svg>