<?xml version="1.0" encoding="utf-8"?>
<!-- Generator: Adobe Illustrator 26.0.2, SVG Export Plug-In . SVG Version: 6.00 Build 0)  -->
<svg version="1.2" baseProfile="tiny" xmlns="http://www.w3.org/2000/svg" xmlns:xlink="http://www.w3.org/1999/xlink" x="0px"
	 y="0px" viewBox="0 0 800 800" overflow="visible" xml:space="preserve">
<g id="fill">
</g>
<g id="bg" display="none">
</g>
<g id="counters_00000155831629897369998050000010902328751353074356_">
</g>
<g id="text">
</g>
<g id="guides" display="none">
</g>
<g id="scratch">
	<g>
		
			<rect id="_x31__x2F_2_x22__800x800_00000128463911570221807570000013176327538798841264_" fill="#F2F2F2" width="800" height="800"/>
		<g id="su_ldr">
			<path d="M382.4,522.7c-1.7,0.8-1.9-0.1-2.1-1.2c-0.2-1.4-0.4-2.8-0.8-4.1c-0.4-1.4-0.8-2.6,1.7-2.6c-1.4-0.5-1.5-1.3-1.5-2.3
				c0.1-1.5,0-3,0.5-4.6c0.4-1.2-0.8-2.6-0.4-3.9c0.3-1.1-1.3-2.5,0.6-3.2c0.3-0.1,0-0.2-0.1-0.3c-1.2-0.8-1.1-2.4-0.9-3.3
				c0.7-3.3-1.3-5.4-3-7.6c-0.7-1-1.5-2-1.7-3.2c0-0.1-0.1-0.3-0.2-0.4c-1.1-0.7-1.3-1.9-1.9-2.9c-1.6-2.7-3.3-5.2-4.7-8
				c-0.3-0.6-0.7-1.1-1.4-1c-0.7,0.1-1.1,0.7-1.3,1.4c-0.2,0.7-0.1,1.5-1.1,1.6c-0.1,0-0.3,0.3-0.2,0.4c0.7,3.3-1,6.2-1.9,9.2
				c0,0.1-0.1,0.1-0.1,0.2c-0.2,3.7-2.7,4.1-5.6,3.8c-0.1,0-0.3,0.1-0.6,0.3c1.1,0.6,2,0.1,2.9,0.1c1.9,0,2.4,0.7,1.7,2.5
				c-1.1,2.7-1.2,5.6-1.9,8.4c-0.7,3.3-0.7,6.7-2.2,9.7c-1.2,2.5-2.9,4.7-4.4,7c-0.4,0.7-1.4-0.3-1.8,0.7c1.6,0.1,1.4,0.8,1,2
				c-0.4,1.5,0.7,3.3-0.1,4.7c-1.3,2.4-0.8,5.7-3.5,7.4c0.6,1.9-1.5,2.4-2,3.7c-0.2,0.7-2,1-0.7,2.2c-0.2,0.2-0.3,0.4-0.5,0.5
				c-2.5,1.3-2.6,4.2-4.1,6.1c-0.1,0.1,0,0.2,0,0.4c-0.1,1.2-2,1.3-1.8,1.4c1.4,0.8,0.3,1.4-0.1,2c-0.5,0.7,0.1,2-0.9,2.4
				c-1,0.4-0.2,1.8-1.4,1.9c0.3,2-1.2,3.4-1.9,5.1c-0.4,0.9-1,1.5-2,2c-1.9,0.9-3.7,2.1-5.2,3.6c-0.4,0.4-1,0.9-1.5,1
				c-3.7,0.6-4.1,4.1-5.4,6.6c-0.5,1-0.1,2.6-0.5,3.8c-0.3,1.3-0.8,2.4-1.6,3.5c-0.4,0.5-0.1,1.6-0.5,2.6c-0.6,1.3-1.2,2.5-1.8,3.8
				c-1.9,4-3.3,8.3-5.2,12.3c-1.1,2.4-2.2,4.8-2.8,7.3c-0.4,1.9-1.8,3.3-2,5.2c-0.1,1.6-1.5,1.5-2.9,1.4c2.1,0.5,1.6,1.6,1.1,2.8
				c-1.2,3.6-3,6.8-5.8,9.3c-0.6,0.5-0.2,0.8-0.2,1.3c0.2,2.6,2.7,3.9,3,6.4c0.1,1.4,0.7,3,1.6,4.2c1.4,1.8,0.6,4.1,2.1,5.9
				c0.9,1.1-1,0.4-1.2,1.1c3.2-0.2,2.7,3.3,4.3,4.7c0.2,0.2,0.3,0.8,0.6,1.2c0.8,0.9-0.4,0.6-0.7,1.1c2.3-0.6,2.7,1.6,4,2.5
				c2.3,1.6,4.6,3.4,6.7,5.2c2.1,1.8,4.3,3.4,5.6,6.1c1.5,3,1.7,5.8,1.8,8.9c0,0.3,0.2,0.7-0.1,0.8c-1.7,0.7-3.1,2.2-4.7,2.6
				c-2.7,0.7-5.5,0.6-8.3,0.7c-1.1,0-2.3,0-3.1-1.1c-0.4-0.6-1-0.4-1.3,0.1c-0.5,0.9-1.3,1-2.2,1c-3.1,0.1-6.2-0.2-8.9-2
				c-0.4-0.3-1.1-0.3-1.6-0.2c-2.7,0.5-4.6-1.1-6.5-2.4c-1.1-0.8-2.6-0.8-3.7-1.6c-1-0.8-2.4-1.1-2.6-2.7c-0.1-0.5-0.6-1.1-1-1.2
				c-2-0.4-3.3-1.8-4.6-3c-1.6-1.5-3.2-2.8-4.4-4.7c-1.6-2.6-3.3-4.7-7.1-4.1c-2.3,0.3-4.9-0.2-6.4-2.6c-0.8-1.3-2.5-1.8-3.6-3
				c-2-2.3-3.3-5-5.6-7c-0.9-0.8-1-2.6-0.7-3.9c0.8-3.6,1.4-7.3,3.1-10.5c1.4-2.7,2-5.9,4.3-8.2c0.2-0.2-0.1-1,0.2-1.8
				c0.6-1.3,1.3-2.7,2.2-3.6c1.8-1.9,3.4-4.1,6.2-5c-1.9-0.7-1.3-2.5-1.6-3.8c-0.4-1.4-0.3-3.2,1-4.4c0.2-0.1,0.4-0.1,0.4-0.5
				c-0.4-3.4,1.5-6.3,1.6-9.6c0-1,0.9-1.8,1.3-2.7c1.2-2.3,0.8-5,1.8-7.3c1.5-3.3,2.2-6.9,3.4-10.4c1.7-4.7,4.2-9.1,5.5-13.9
				c0.4-1.5,1.3-3,2.1-4.3c1.1-1.7,1.8-3.5,2.7-5.3c0.2-0.4,0.5-0.9,0.3-1.2c-1.8-2.9,0.5-5.7,0.3-8.5c0-0.1,0.1-0.2,0.1-0.3
				c0.6-0.8-0.5-1.6-0.1-2.4c0.5-0.9,1.7,0.3,2.2-0.8c-2.3-0.6-2.3-0.6-1-2.6c0.1-0.1,0.1-0.3,0.1-0.5c-0.3-2.1,0.7-3.7,1.5-5.5
				c0.7-1.5,0.8-3.4,1.3-5.1c0.2-0.6,0.1-1.3,0.8-1.7c0.7-0.5,0.9-1.4,0.9-1.9c-0.1-2.2,1.3-3.9,1.6-5.9c0.1-0.8-0.6-0.9-0.5-1.8
				c0.3-1.9,0.8-4.1,0.4-5.9c-0.6-2.6-0.6-5.2-0.6-7.8c-0.1-2.4,0.1-4.7,1.5-6.7c0.4-0.5,0.3-0.8,0.1-1.3c-0.1-0.3-0.6-0.8-0.3-1
				c1.4-0.9,0.4-2.4,0.9-3.5c0.6-1.3,1.6-2.3,2.1-3.6c0.7-1.7,1.1-3.6,0.5-5.5c-0.3-1.1-1.1-2.3,0.2-3.3c-0.5-0.6-0.8-1.1,0.1-1.6
				c-1-1.4,0.4-1.1,1.2-1.4c-2.3-0.2-1.5-2.1-1.5-2.9c-0.1-3.8-0.3-7.6,0.2-11.3c0.1-0.8,0.5-1.7-0.3-2.5c-0.3-0.3,0-0.6,0.1-0.8
				c0.5-0.9,0.2-2.1-0.9-2.5c-2-0.7-3.6-2.2-5.6-2.9c-1.8-0.7-3.5-3.8-3.2-5.7c0.2-1-0.7-2.3,1-2.7c-1.3-1.3,0.1-2.5,0.1-3.7
				c0-1.8,0.7-3.4,1.1-5.1c0.5-2,0.1-4.1,0.9-6.1c0.4-1,0.4-2.1,0.4-3.2c0-1.3,1-2.4,0.8-3.8c-0.1-0.5,0.3-0.8,0.8-0.8
				c0.3,0,0.8-0.3,0.5-0.5c-1.5-1.2-0.1-2.7-0.4-4.1c-0.2-0.7-0.8-2.3,0.9-2.7c0.4-0.1,0.1-0.5-0.1-0.7c-0.6-0.6-0.4-1.1,0.2-1.7
				c0.7-0.8-0.3-1.9,0.4-2.9c0.5-0.7,0.2-1.7,0.8-2.5c0.6-0.8,0-1.4-1-1.5c-2.4-0.3-4.7,0.2-7.1,0c0-0.9,0.9-0.5,1.5-1
				c-3.7,0.6-6.1-1.3-8.2-3.6c-1.5-1.5-2.3-3.5-3.3-5.3c-1-1.9-1.8-3.9-2.2-6c-0.4-2.1-0.6-4.3-0.7-6.4c0-1-0.4-1.9,0.1-3
				c0.5-1.3-1.2-2.7-2.7-2.2c-3.2,1-6.5,0.6-9.6,1.4c-3.3,0.8-6.7,0.9-9.9,2.2c-2,0.8-4.2-1.3-4.1-3.7c0-0.7,0.1-1.3-0.2-1.9
				c-0.5-1.2,1-1.1,1.1-1.7c0.1-0.6-1.7,0-1.3-1.3c0.2-0.7-0.2-1.4,0.3-2.1c0.2-0.2,0.1-0.8-0.1-1c-1.2-1.9-0.4-4-0.2-5.8
				c0.2-2,0.5-4.1,0.8-6.1c0.3-1.8,0.3-3.7,0.4-5.6c0-0.5-0.1-1,0.6-1.1c0.6-0.1,1.2-0.6,1.9-0.1c0.3,0.2,0.4,0.4,0.1,0.7
				c-0.3,0.4-0.7,0.7-0.9,1.1c-0.3,0.6-0.9,1.1-0.5,1.8c0.4,0.6,1,0,1.5,0c0.4,0,0.9-0.1,1,0.5c0,0.5-0.4,0.5-0.8,0.6
				c-0.5,0.1-1,0.1-1.3,0.5c-0.2,0.4-0.5,0.8-0.4,1.2c0.1,0.5,0.7,0.3,1.1,0.3c2.4-0.5,4.9-0.4,7.1-1.8c0.9-0.6,2.1,0.7,3.1-0.4
				c0.7-0.8,1.6-0.8,2.6-1c2.3-0.5,4.5-0.8,6.8-0.9c1.5-0.1,1.4-1.3,1.4-2c0.1-1-1-0.5-1.6-0.6c-2.7-0.3-5.4-0.7-8.1-0.1
				c-0.4,0.1-1-0.2-1.1-0.7c-0.1-0.6,0.6-0.6,0.9-0.6c1.7-0.3,2.5-2.1,4.2-2.3c0.3,0,0.6-0.4,0.5-0.8c-0.1-0.4-0.5-0.3-0.8-0.3
				c-0.9,0-1.8,0-2.7,0c-0.8,0-1.6,0.2-1.8-1c-0.1-0.7-0.9-0.7-1.3-0.7c-2.8,0.2-5.6,0.4-8.3,0.9c-2.2,0.4-1,2.4-1.3,3.6
				c-0.1,0.6,0,1.2-0.6,1.5c-0.4,0.2-0.9,0.3-1.2,0.2c-0.5-0.2-0.2-0.7-0.1-1.1c0.8-3.8,2.5-7.2,6.1-8.8c2.5-1.1,5.5-2,8.3-0.1
				c0.2,0.2,0.5,0.2,0.6,0c1.2-2.5,3.4-0.7,5.1-1.2c0.4-0.1,1,0.1,1.4,0.1c0.5,0,1-0.3,0.9-0.7c-0.3-1.6,1.2-2.8,1.2-4.2
				c0-3.6,1.7-7.2-0.1-10.9c-0.3-0.7-0.3-1.6,0.3-2.2c1.6-1.7,1.8-3.7,1.5-5.9c-0.1-0.6-0.1-1.2,0.2-1.6c1.8-2.3,1-5.4,2.2-7.9
				c0.5-1,1.5-1.8,1.5-3c0.1-2.5,0.3-5.1,0.5-7.6c0.3-2.8,1-5.4,2.9-7.6c0.3-0.3,0.6-0.6,0.5-1.1c-0.2-2.7,1.2-4.8,2.7-6.9
				c0.7-1,0.9-2.1,0.6-3.2c-0.5-2.1-1.2-4.1-2.5-5.9c-1.1-1.5-2-3.2-1.9-5.1c0.2-3,0.1-6,0.6-9.1c0.3-1.9,0.6-3.3,3.1-2.6
				c-0.7-1-1.9-0.3-2.4-1.2c-0.5-0.9,0.1-1.8,0.2-2.7c0.4-2.6,1-5.2,1.6-7.8c0.3-1.3,1.7-2.2,1-3.8c0,0,0.3-0.3,0.5-0.4
				c3.4-1,4.1-4,4.9-6.9c1.2-4.2,2.6-8.3,6.6-10.8c0.6-0.3,1.1-0.9,1.8-0.4c0.6,0.4,0.7,0.1,0.8-0.4c0.1-0.2,0.4-0.5,0.5-0.5
				c1.8,1.3,2.3-1.1,3.6-1.2c1.6-0.1,3.1-0.5,4.6-0.8c1.9-0.4,3.8-1.3,5.8-1.1c1.9,0.1,3.8-0.2,5.6,0.7c1,0.5,2.3,0.3,3.5-0.2
				c2.8-1.2,4.4-4,7.1-5.3c0.8-3.3,3.8-2.8,6-3.5c1-0.3,1.5-0.7,1.8-1.8c0.1-0.5-0.3-1.8,1.1-1.7c0.1,0,0.2-0.1,0.2-0.2
				c0.1-2.4,0.2-2.3,1.7-3.9c0.9-0.9,0.9-2.3,0.9-3.6c0-1.3-0.1-2.7,2-2.3c1,0.2,0.6-0.6,0.6-1.1c-0.1-1.2,0.3-1.7,1.5-1.2
				c0.7,0.3,1.3,0.3,1.7-0.6c-1,0-1.8-0.7-2.8-0.4c-0.4,0.1-0.6-0.1-0.7-0.6c-0.5-2-1.8-3.8-1.9-5.9c0-0.8-0.6-0.8-1.1-0.9
				c-1.6-0.4-3.1-0.2-4.7-0.2c-1.2,0-2.1-0.5-2.9-1.2c-0.4-0.3-1-1-0.6-1.4c1.4-1.3-0.3-3,0.7-4.4c0.7,0.5,1.1,2.2,2.2,1.3
				c0.8-0.7,1.9-0.4,2.8-1.3c-1.7-0.3-3.2-0.4-4.4-1.3c-0.3-0.2-0.7-0.3-0.6-0.7c1.3-4,0.5-8.2,1.1-12.3c0.4-3-0.1-6.1,0.4-9.1
				c0.4-2.9,1-5.6,2.5-8.3c0.9-1.6,1.7-3.4,2.6-5.1c0.6-1.1,1.6-1.6,2.4-2.4c3.1-3.1,6.7-5.5,10.5-7.6c1.7-1,3.7-1.5,5.4-2.7
				c1.1-0.7,2.1,0.4,3.3,0.1c-0.6-0.7-0.8-1.4,0.4-1.5c4.6-0.3,9.3-0.7,14-0.4c2.1,0.1,4,1.2,6.1,1.6c4.3,1,7.7,3.8,11.3,6.1
				c2,1.3,3.6,3.5,5,5.5c1.2,1.7,2,3.8,3,5.6c0.6,1.1,1.1,2.4,1.5,3.7c0.2,1,0.9,1.9,1.2,2.9c0,0.1,0.1,0.1,0.1,0.1
				c0,2.3,1.7,4.1,2,6.2c0.3,2,0.7,3.9,1.5,5.8c0.8,2,1.3,4.1,2.9,5.6c0.7,0.7,0.1,1.1-0.5,1.5c1.8,1,3.4,2.2,4.8,3.7
				c1,1.1,0.9,1.9-0.4,2.5c-0.4,0.2-0.9,0.4-1.4,0.4c-1.2,0.2-2.2,0.6-3.3,1.3c-1.3,0.9-3.2,1.1-4.8,1.5c-0.8,0.2-1.5,0.3-2.3,0.5
				c-1.9,0.5-2.5,1.3-1.8,3.1c0.3,0.9,0.2,1.9,0.6,2.8c0.3,0.7-1.5,2.2-2.9,2.3c-1,0-2.2,0.2-2-1.5c0.1-0.6-0.1-1.1-0.7-1.3
				c-0.7-0.2-1,0.3-1.3,0.8c-0.2,0.4-0.4,0.8-0.6,1.1c-0.1,0.2-0.2,0.4-0.3,0.6c-1.3-0.7-2.7,0.3-3.9-0.2c-0.9-0.4-1.2-1.1-1-2.1
				c0.1-0.4,0-0.9-0.5-1.1c-0.5-0.2-0.8,0-1.1,0.4c-0.4,0.5-1.1,1.1-1.5,0.5c-1.2-1.6-1.3-0.7-1.4,0.5c-0.2,2.2-1.9,2.5-3.8,3
				c0.3-0.9,0.4-1.7,0.7-2.4c0.2-0.4,0.9-0.7,0.4-1.2c-0.5-0.4-1.2-0.2-1.6,0.4c-1.3,1.9-3.1,3.6-3.4,6.1c-0.2,1.8-1.1,3.5-2,5
				c-0.7,1.1,0.3,2,0.2,2.9c-0.2,1.2,0.2,1.8,1.4,2c0.5,0.1,0.9,0.5,1.1,1.1c0.6,2.4,1.7,4.5,2.5,6.8c0.1,0.4,0.2,0.7,0.6,0.8
				c1.3,0.3,2.8,0.4,2.3,2.5c0,0.1,0.7,0.7,1,0.6c1.6-0.2,1.9,0.8,2.5,2c0.7,1.6,2.4,1.7,3.7,1.3c1.5-0.5,3.1-0.9,4.5-1.7
				c0.8-0.5,1.3-1.1,1-1.9c-0.6-1.7-0.5-3.8-2.4-5c-0.5-0.3-0.8-0.7-1.2-1.1c-0.6-0.6-0.6-1.2,0.3-1.5c1.2-0.5,2.5-0.4,3.5,0.1
				c0.8,0.4,0.3,1.6-0.1,2.5c-0.3,0.7-0.4,1.2,0,2c1.8,3.1,0.5,6.4-2.7,8c-1.6,0.8-3.3,1.1-5,1.5c-0.8,0.2-1.8-0.3-2.7-0.4
				c-0.8-0.1-1.6-0.2-2.3,0.4c-1.2,0.9-1.2,1.7,0.2,2.3c1.1,0.5,2,1.4,3.3,1.3c0.2,0,0.5,0.2,0.6,0.4c0.3,1.8,1.9,1.9,3.1,2.5
				c4.4,2.1,7.3,5.7,9.3,10c0.1,0.2,0.2,0.3,0.3,0.4c3.3,1.9,4.8,5.2,6.5,8.4c1.1,2.2,2.4,4.3,2.6,6.6c0.1,1.9,2,3.2,1.2,5.2
				c2.6,1.8,2.1,4.8,2.8,7.3c0.3,1,1.1,2.1,0.4,3.3c-0.1,0.1,0.1,0.6,0.1,0.6c2-0.3,2.3,2.3,4.1,2.3c1.2,0,2.1,0.8,2.3,1.5
				c0.4,1.5,1.6,2,2.6,2.6c2.2,1.3,3.7,3.5,6.2,4.7c3,1.4,5.8,3.2,9,4.3c0.6,0.2,1.2,0.2,1.8,0.2c0.8,0,0.9-0.6,1.2-1.1
				c0.3-0.8-0.3-0.9-0.7-1.2c-2.2-1.3-2.3-2.5-0.6-4.3c0.9-0.9,1.1-2.4,2.6-2.6c0.3,0,0.4-0.4,0.2-0.8c-0.9-2.3,0.9-3.3,2.2-4.5
				c1-0.9,2-1.6,2.8-2.8c0.9-1.3,2.6-2,4.2-1.9c1.7,0.1,2.2,1.5,2.6,3.1c0.3,1.1,0.3,2.2,0.4,3.3c0.2,2.5,2.1,3.3,4.2,2
				c0.5-0.3,1.1-0.6,1.5-1c2.7-1.9,4.9-1.3,6.2,1.8c0.1,0.2,0.2,0.3,0.2,0.5c0.1,0.6-1.1,1.4,0.4,1.9c0.8,0.3,1.3,1.4,2.2,1.8
				c0.6,0.3,0.9,0.6,1.1,1.3c0.4,1.5,0.9,2.9,2.8,3.2c0.1,0,0.2,0.1,0.3,0.2c0.5,0.8,1.9,1,1.7,1.9c-0.2,0.9-1.5,0.4-2.3,0.6
				c-1,0.2-1.6,0.3-1.6,1.6c0,0.8-0.4,1.8-0.8,2.6c-0.3,0.6-0.5,1,0.2,1.3c0.7,0.3,0.9,1.7,1.6,1.2c0.7-0.5,1.6-1.2,2-2.1
				c0.2-0.5,0.2-0.8-0.2-1.1c-0.7-0.7-1.1-1.7-0.6-2.4c0.6-0.8,1.7-0.7,2.5-0.1c0.3,0.8-1.3,0.8-0.7,1c0.8,0.3,0.1,1.5,1.4,1.6
				c2.1,0.1,3.8,2.9,3.4,4.9c-0.5,2.3,0.7,4,1.8,5.8c0.9,1.5,0.8,2.7-0.5,3.9c-0.2,0.2-0.6,0.4-0.4,0.7c0.7,1.6-0.6,2.1-1.6,2.4
				c-1.8,0.5-2.3,1.8-2.1,3.3c0.3,2.1-0.6,3.5-1.9,5.1c-0.9,1.2-1.6,2.6-2.9,3.5c-1.2,0.9-2.3,1.8-3.4,2.8c-1.7,1.7-4.5,2-6.7,2.9
				c-1,0.4-2.8-1-3.9-2.1c-0.4-0.5-0.3-1.7-1.3-1.2c-0.8,0.3-1.1,1.4-1,2.2c0.2,0.9,0.1,1.6-0.4,2.3c-0.9-0.2-0.8-1.2-1.5-1.8
				c-0.3,2-0.1,3.9-0.5,5.6c-0.3,1.4,0.5,1.6,2.1,0.5c-1.1,2.9-0.9,5.6-3.5,7.1c0.9,1.8,2.8,2,4.8,2.2c6.3,0.5,12.7,0.5,18.9,1.6
				c4.6,0.8,9.2,1,13.8,1.4c5.6,0.5,11.2,1.6,16.8,1.5c0.6,0,1.3,0,1.8,0.3c1.7,1.4,3.6,1.1,5.6,1.1c3.1-0.1,5.2-1.8,6-4.8
				c0.7-2.6,4.4-3.7,6.5-2.1c0.7,0.6,0.4,1.4,0.4,2c0.2,4.2,2,6.2,6.1,6.5c4.3,0.4,8.4,1.3,12.7,1.3c2.2,0,3.1,2.4,1.6,4.3
				c-1.8,2.2-3,4.7-4,7.3c-0.3,0.7-1.1,0.9-2,0.9c-4.1-0.1-8.2-0.5-12.2-1.4c-2.4-0.6-4.9-0.1-7.4-0.4c-4.9-0.6-9.7-0.8-14.6-1.5
				c-1-0.1-2,0-3.1-0.1c-8.1-1.4-16.3-1.9-24.6-2.3c-2.5-0.1-4.9-0.1-7.4-0.4c-0.9-0.1-1.6-0.7-2.6-0.8c-2.3-0.3-4.1,1.2-6,2
				c-2.5,1.1-4.9,0.3-7.3,0.3c-2.1-0.1-4.2-0.3-6.3-0.3c-0.8,0-1.1,0.4-1.3,1.2c-0.8,2.8-1.4,5.8-3.2,8.2c-0.5,0.6,0.4,1.3,0.3,1.9
				c-0.9,4.6-0.6,9.2-1.2,13.8c-0.1,1.1-0.4,1.7-2,1.8c0.9,0.4,1.5,0.2,1.3,1.3c-0.3,1.5-0.7,3.1-0.3,4.7c0.2,0.8-0.3,1.7-0.5,2.4
				c-0.9,3.6-1.4,7.4-2.7,10.9c-0.3,0.7-0.5,1.8-1.5,0.5c-0.4-0.5-0.9-0.4-1.3,0c-0.2,0.2-0.5,0.4-0.3,0.8c0.3,0.5,0.7,0.3,1.1,0.2
				c1.2-0.3,1.6,0.2,1.2,1.3c-0.3,1.1-0.7,2.2-0.9,3.3c-0.3,1.5-1.4,2.4-3.2,2.1c-2.8-0.3-5.6-0.4-8.3-0.6c-0.8,0-1.6,0-2.3,0.3
				c-0.5,0.2-1.1,0.2-0.5,1.4c0.8,1.8,1.4,3.8,1.8,5.8c0.4,2.1,1.4,4,1.9,6c0.3,1,0.8,1.9,0.5,3c0,0.1-0.1,0.2-0.1,0.3
				c1.6,2.6,2.1,4.2,2.4,6.7c0.3,2.4,1.8,4.5,2,6.9c0.2,2.5,1.1,5,1.1,7.6c0,1.7-1.5,2-2,3.2c-0.5,1.2-1.2,1.9-0.4,3.3
				c0.4,0.7,0.3,1.9,0.5,2.9c0.2,1.4,0.6,2.8,0.8,4.2c0.1,0.7-0.2,1.2,0.5,2c1.2,1.5,0.1,3.6,0.4,5.4c0.1,0.5-1,0-1,0.9
				c1.3,0,2.5,0.2,1.5,2.1c-0.2,0.4,0.3,0.4,0.6,0.5c1.8,0.7,3.1,2.8,2.3,4.8c-0.4,1.2,0.1,2.2,0.3,3c0.4,1.9,0,4,1,5.8
				c1.2,2.3,1.4,4.9,1.9,7.3c0.3,1.4,0.6,3.1-0.2,4.6c-0.2,0.3,0.9,0,0.8,0.8c-0.1,1,0.8,2,0,2.9c1,0.7-0.4,2.1,0.8,2.8
				c0.4,0.3,0.6,2,0.2,2.2c-1.2,0.9-0.4,1.2,0.2,1.7c1,0.7,0.4,1.8,0.2,2.5c-0.9,2.9-1.2,5.7-0.1,8.7c0.4,1.2,1.5,2.2,1.2,3.8
				c-0.3,1.6-0.3,3.3-0.2,4.9c0.2,3.1-0.4,6-0.4,9.1c0,3,0.3,6.2-0.7,9c-0.4,1.2,0.8,3.4-1.8,3.7c1.5,0.3,1.6,1.1,1.4,2.3
				c-0.2,1.2-0.2,2.2-0.8,3.5c-0.7,1.3-1.4,0.7-2,0.8c-0.8,0.2-1.1-0.5-0.9-1.3c0.1-0.3-0.1-0.6-0.4-0.7c-0.4-0.1-0.7,0.1-0.9,0.4
				c-0.8,1.1-0.6,2.6-1.1,3.9c-0.2,0.6,1.1,0.9,1.3,0.4c0.5-1.5,2.4-0.6,2.9-1.9c0.1-0.3,0.8-0.2,1.2,0.1c0.4,0.3,0,0.6,0,0.9
				c-0.3,1.1-0.5,2.2-0.3,3.4c0.1,0.9,0.2,1.9-0.3,2.8c-0.8,1.4-0.8,3-0.8,4.5c0,1.6-0.4,3.1-1,4.5c-0.6,1.4-1.2,2.9,0,4.3
				c0.5,0.6,0,1.2-0.2,1.7c-0.6,1.6,0.8,3.2-0.1,4.8c-0.9,1.7,0.1,3.4,0,5.2c-0.1,1.8-0.4,2.8-2.4,2.4c0,0.7,0.4,0.7,0.8,0.6
				c1.5-0.3,2,1,1.7,1.8c-0.4,1,0,2.4-1,3.2c-0.1,0.1-0.2,0.2-0.2,0.4c1.1,3.3,0,6.5-0.2,9.7c-0.2,3.2-0.9,6.3-0.6,9.5
				c0.1,0.9-0.2,1.7-0.2,2.5c0,0.9-0.2,1.8-1.8,1.4c1.6,0.6,1.5,1.7,1.4,2.7c-0.2,2.1,0.3,4.2-0.2,6.3c-0.4,1.4-0.4,2.7-0.1,4.1
				c0.2,1.1-0.8,1-1.3,1.4c0.1,0.8,1.5,0.5,1.2,1.5c-0.2,0.8-0.7,1.3-1.3,1.6c-0.9,0.5-1,2.1-2.5,1.8c0.8,0.9,1.8,1.1,2.8,1.2
				c0.5,0.1,1.2,0,1.4,0.6c0.3,1-1.1,0.2-1.1,1.1c0.9,0.1,2.5-0.4,1.5,1.6c-0.3,0.5,0.5,0.7,0.9,1c2.7,2,5.4,3.9,7.5,6.5
				c0.5,0.6,1.2,0.8,1.7,1.3c1.5,1.3,2.9,3,4.8,3.6c1.9,0.5,3.5,1.7,5.6,1.8c2.2,0.2,4.5,0.7,6.7,1.3c3.4,1,6.3,3.1,9.1,5.3
				c1,0.7,1.5,1.6-0.5,1.9c2.4,0.5,3,1.4,3.3,4c0.2,1.8-0.5,3.7,0.4,5.5c0.3,0.5-0.3,0.9-0.8,1.1c-3.7,1.7-7.5,3.3-11.5,3.7
				c-4.6,0.5-9.3,0.8-14,0.4c-2.4-0.2-4.7,0.5-7,1c-1.2,0.3-2.2,0.2-3.3-0.3c-1.6-0.7-3.4-0.9-5.2-0.8c-1.8,0.2-3.4,0.1-4.8-1.6
				c-1.3-1.4-3.6-0.7-5.4-1c-0.6-0.1-1.2,0.1-1.8-0.1c-2-0.8-4-0.4-5.6,0.5c-5.4,3-11.1,3.3-17,2.6c-0.9-0.1-2.1,0.7-2.7-0.7
				c-0.1-0.2-0.3-0.1-0.4,0.1c-2,1.4-3.9,0.6-4.2-1.7c-0.2-1.2-0.8-2.5,0.1-3.7c0,0,0-0.1,0-0.2c-1.9-1.7-0.2-2.3,1.3-3.2
				c-3-0.1-1.8-2.4-2.1-3.6c-0.4-1.3,0.3-2.8,0.4-4.2c0-1,0.5-1,1.6-1c-0.9-0.3-2.1-0.1-1.1-1.2c0.7-0.7,1-1.9,0.8-2.5
				c-0.7-3.3,2-5.2,3.2-7.6c0.7-1.3,0.7-4.2-0.2-5.3c-0.7-0.8-1-1.6-1.1-2.6c0-0.8-0.2-1.7,1.3-1.7c-1.4-0.3-1.4-0.9-1.4-1.9
				c-0.1-2.2-0.5-4.4-0.8-6.6c-0.4-2.8,0.5-5.6,0.4-8.4c-0.1-2-0.1-4.1-0.2-6.1c-0.1-1.4,0.2-2.8-0.3-4.2c-0.2-0.4-0.3-1.5,0.8-0.6
				c0.2,0.1,0.4,0,0.4-0.2c0.1-0.4-0.1-0.6-0.4-0.7c-1.4-0.5-0.7-1.8-0.9-2.7c-0.2-0.8,0.9-0.4,1.2-1c-1.1-0.1-1.3-0.8-1.3-1.8
				c0-4.1,0.5-8.3,0.5-12.4c0-5.2-0.4-10.5,0.1-15.7c0.1-1.3,0-2.6,0.2-3.9c0.2-1.1-0.8-1.6-1.2-2.4c-0.2-0.4-0.6-0.8-0.1-1.3
				c0.4-0.5,0.8-0.2,1.3,0.1c0.8,0.6,1.9,0.8,2.5,1.7c0.2,0.2,0.5,0.4,0.8,0c0.1-0.1,0-0.5-0.1-0.6c-1.3-1.4-2.6-2.9-4.9-2
				c-0.7,0.3-1-0.3-1-0.9c0-1.3-0.4-2.6-0.4-3.8c-0.1-1.7-0.7-3.3-0.6-5c0.1-2.1,1.2,0,1.7-0.4c0-0.1,0.1-0.3,0.1-0.3
				c-3.4-2.2-3.2-6-4.1-9.3c-0.8-2.9-2.1-5.7-2.1-8.8c0-2-1.2-3.6-1.1-5.5c0-1.2-0.8-2.4-1.4-3.6
				C381.3,524.8,380.6,523.7,382.4,522.7z M425.1,476.2c-1.7-0.8-3,0.7-4.5,0.8c-0.8,0.1-0.3,1.2-0.7,1.9c-0.2,0.4,0.5,0.6,0.9,0.6
				c0.6,0.1,1.1-0.1,1.1-0.9c0-0.4,0.3-0.9,0.6-0.8C424.3,478.6,424.4,477,425.1,476.2c0.5-0.3,1-0.5,1.6-0.8c1.3-0.8,0.7-2,0.4-2.8
				c-0.4-1.2-1.3-0.3-1.9,0.1C423.4,473.7,424.7,475,425.1,476.2z M318.9,511.7c0,0.2-0.1,0.4-0.1,0.5c0.1,0.7,0.3,1.4,1.1,1.5
				c0.7,0.1,1.2-0.5,1.3-1c0.2-0.7,0.1-1.6-0.4-2c-0.7-0.5-0.8,0.6-1.3,0.9C319.3,511.7,319.1,511.7,318.9,511.7
				c-0.4-1.2-1.4-1.9-2.4-2.5c-0.7-0.4-1.5-0.1-2.2-0.5c-1.1-0.7-2.2-0.5-3.2,0.4c-0.3,0.2-1,0.2-0.8,0.8c0.2,0.6,0.8,0.4,1.3,0.2
				c1.6-0.7,1.3,0.2,1,1.1c-0.1,0.3-0.4,0.6-0.1,1c0.4,0.4,0.8,0.1,1.2,0.1c0.6-0.1,1-0.5,1.1-1.1c0.1-0.5,0.1-1.3,0.9-1
				c0.7,0.3,1.8,0.2,1.9,1.4c0,0.4-0.4,1,0.3,1.2C318.4,513,318.5,512,318.9,511.7z M314.9,291.1c-0.3,0.5,0,0.9,0,1.4
				c0.3,1.8,1.5,3.7-0.4,5.4c-0.4,0.4,0.2,0.9,0.4,1.2c0.2,0.4,0.7,0.2,1,0c0.6-0.8,1.4-1.3,1.3-2.5c0-1-0.9-1.8-0.6-2.7
				C317.2,292,316.3,291.4,314.9,291.1c0.7-0.8,0.5-2,1.3-2.8c0.4-0.4,0.3-1.5-0.5-1.7c-1.3-0.3-1.9-1.2-2.7-1.9
				c-1.1-1-1.6-0.8-1.9,0.8c-0.3,1.6-1.9,2.3-3.3,1.4c-0.7-0.4-1.5-0.6-1.8-0.2c-1.4,1.7-3.7,1.4-5.3,2.7c-0.7,0.6-1.8,1.1-2.3-0.3
				c-0.6-1.7-1.3-2-2.8-1.1c-0.7,0.4-1.2,1.6-2,1.3c-2.5-1-3.9,0.9-5.6,1.9c-1.2,0.7-1.2,2.2-0.9,3.2c0.3,0.9,1.4,0.5,2.3,0.3
				c2.2-0.6,4.5-0.4,6.7-0.9c0.7-0.2,2.1-0.1,3.1,0.4c0.3,0.2,0.7,0.4,0.8,0.7c0.1,0.4-0.3,0.7-0.6,0.8c-1.6,0.4-2.3,1.8-3.2,3.2
				c1.7-0.3,3.9,0.7,5-0.8c1.1-1.5,2.5-2,4-2.1c1.7-0.2,3.2-0.7,4.7-1.4c0.5-0.2,1.2-0.4,1.1-1.2c-0.1-1.8,0.9-2.2,2.5-2.1
				C313.8,291.1,314.4,291.1,314.9,291.1z M349.7,429.1c1.4-0.1,2.8-0.6,4.2-1c1-0.3,1.9-0.3,2.4,1.1c0.3,1,0.4,2,0.7,3
				c0.2,0.8,0.7,1.4,1.6,1.1c1-0.3,0.4-1,0.1-1.6c-0.4-0.9-0.3-1.8,0.8-1.9c1-0.1,2.1,0.8,2.4,1.4c0.8,1.5,1.1,3.2,1.5,4.9
				c0.1,0.5-0.2,1.2,0.6,1.3c0.6,0.1,1-0.1,1.3-0.7c0.3-0.6,1.2-0.7,1.2-0.1c-0.1,1.9,1.3,1.6,2.3,1.7c0.6,0.1,0.9,0.3,1.1,0.8
				c0.3,0.9,0.6,0.8,1.3,0.2c1.4-1.2,3-1.8,4.8-1.5c1.5,0.3,1.9-0.5,1.6-1.8c-0.2-0.9-0.5-1.7-0.7-2.5c-0.1-0.4-0.1-0.9,0.4-1.1
				c0.5-0.2,1,0.1,1.1,0.6c0.3,0.9,0.6,1.8,0.1,2.7c-0.3,0.7-0.2,1.2,0.4,1.6c0.9,0.7,1.9,0.4,2.8,0.1c0.8-0.2,0.6-0.9,0.5-1.5
				c-0.4-2.7-1-5.4-0.5-8.2c0-0.2,0-0.5-0.1-0.7c-0.4-2.2-1.1-4.4-0.7-6.7c0.2-1.1-1.2-1.8-0.7-3c-1.1-0.5-2.3-1.2-3,0.8
				c-0.1-1.2-0.4-2.2,0.4-3.3c-0.8,0.1-1.9,0.6-2-0.6c-0.1-1.3-1-2.2-1.5-3.2c-0.3-0.7-0.6-1.4-0.2-2.2c0.6-1.4,0-2.2-1.5-2.3
				c-2.3-0.3-3.1-1.4-2.8-3.8c0.1-1.1,0.1-2.2,0.1-3.2c0-1.1-1.1-1.4-1.7-1.6c-0.8-0.3-0.7,0.9-1,1.4c-0.2,0.5,0.1,1.2-0.8,1.5
				c-0.5-1.2-1-2.4-1.4-3.5c-0.3-0.6-0.8-0.9-1.5-0.8c-0.6,0.1-1.4,0.7-1.4,1c0.2,1.6-0.5,3-0.6,4.5c-0.1,1.4,0.4,2.8,0.2,4.3
				c-0.2,1.1-0.5,1.7-1.7,1.5c-0.4-0.1-0.9-0.2-1.2,0.1c-1.4,0.9-1.4-0.1-1.4-1c0-0.6,0.2-1.1,0.3-1.8c-1.9,0.7-3.7,1.2-4.6-1.3
				c-0.1-0.2-0.5-0.2-0.8-0.2c-1.3-0.1-1.8-0.9-1.5-2.1c0.2-0.7,0-1.3-0.6-1.1c-1,0.2-2.2,0.4-2.8,1.1c-1.2,1.3-2.7,2.7-2,4.9
				c0,0.1-0.2,0.2-0.3,0.3c-0.1-0.1-0.3-0.2-0.3-0.3c-0.1-0.4-0.2-0.8-0.3-1.2c-0.6-3.2-0.6-3-3.7-3.8c-1-0.3-2.3,0.2-3.1-1
				c-0.3-0.4-1.2-0.1-1.5,0.6c-0.7,1.3-2,1.2-2.9,0.8c-1.3-0.6-1.3,0.1-1.4,0.9c-0.1,0.5,0.1,1.3-0.9,0.8c-1.4-0.7-2.5-1.7-2.2-3.5
				c0.1-0.5,0.2-1-0.1-1.4c-0.3-0.3-0.3-1.1-1-0.8c-0.5,0.2-1.2,0.6-0.9,1.1c0.6,1-0.9,1.8,0.1,2.9c0.5,0.6-1.3,2.5-2.2,2.4
				c-1.1-0.1-1.6,0.2-1.5,1.4c0,1.7,0.4,3.4,0.3,5.2c-0.1,1.5-0.7,3.5-2.1,3.9c-0.8,0.3-1.5,0.1-1.6,1.4c-0.1,0.8-0.1,1.9,0.2,2.2
				c0.9,0.9,0.5,1.8,0.4,2.7c-0.1,1.2-0.9,2.3-0.1,3.5c0.1,0.2-0.1,0.5-0.3,0.6c-0.2,0.1-0.5,0-0.5-0.3c0.1-1.2-1.3-1.9-0.8-3.2
				c0.3-0.6-0.3-1-1.1-1.1c0.3,2.1-1.8,4.1,0.1,6.2c0.1,0.1,0,0.4,0,0.5c0.1,2.3-1,4.4-0.5,6.8c0.1,0.5-0.2,1.2-0.6,1.6
				c-1.5,1.6-1.5,4.4-0.2,6c0.3,0.4,0.7,0.5,1.1,0.3c0.3-0.1,0.9,0,0.8-0.5c-0.3-0.9,0.5-1.5,0.6-2.2c0.1-0.5-0.1-1.1,0.6-1.1
				c0.7,0,0.5,0.7,0.5,1.1c0.1,0.5,0.2,1,0.8,1c0.5,0,0.9-0.4,1-0.9c0.1-0.9,0.7-1.4,1.1-2.4c0.5,0.9,0.6,1.8,0.2,2.3
				c-1,1,0.4,1.8,0.1,2.7c1,0.3,1.4-0.4,1.7-1.1c0.2-0.4,0.5-0.3,0.8-0.3c0.8,0,0.9-0.5,0.9-1.2c0-1.2,0.1-2.5,0.2-3.7
				c0.1-0.8,0.2-1.4,1.5-0.9c1.1,0.4,2.4,1.1,3.6,0.6c1.3-0.5,2.2-0.6,2.7,0.9c0.1,0.3,0.4,0.5,0.7,0.4c0.1,0,0.4-0.2,0.4-0.3
				c-0.3-1.8,0.8-3.6,0.4-5.4c-0.1-0.7-0.1-1.5,0.9-2.3c-0.1,1.4,0.3,2.4-0.2,3.4c-0.3,0.6,0.1,1.2,0.5,1.6c0.2,0.3,0.6,0.1,0.8-0.1
				c0.5-0.4,0.4-1,0.2-1.5c-0.1-0.4-0.5-0.9-0.4-1.2c0.7-2.2,0.1-4.5,0-6.7c-0.1-1.6,1.3-2.4,2.3-3.4c0.3-0.3,0.9-0.3,1.1,0.4
				c0.6,2.1,1.4,4.1,1,6.3c-0.1,0.3-0.1,0.5,0.1,0.8c0.9,1.5,0.9,1.6,0.2,3.1c-0.1,0.3,0,0.4,0.3,0.5c0.6,0.2,0.9,1.1,1.8,0.7
				c0.4-0.2,0.4-0.4,0.2-0.7c-1.1-2.4-0.6-5-1.4-7.5c-0.4-1.3,0.1-2.7,1.3-3.7c0.9-0.7,1.6-0.7,1.7,0.6c0.2,2.1,0.9,4.1,0.7,6.2
				c0,0.9,0,2.1,0.6,2.5C348.4,430.5,349,429.3,349.7,429.1L349.7,429.1z M306.8,311.3c-0.3-0.3-0.8-0.6-0.9-1
				c-0.4-1.4-1.2-1.2-2.4-1.1c-1.1,0.1-1.6,1.2-2.7,1.3c-5,0.4-8.7,3-11.7,7c-0.5,0.7-1.2,1.3-2.2,0.6c-0.9-0.7-0.1-1.2,0.2-1.8
				c0.2-0.3,0.3-0.7,0.4-1.1c0.2-1.1,0.8-1.8,1.7-2.6c0.9-0.8,2.5-0.9,3-1.9c0.8-1.7,2.4-2.3,3.8-2.9c1.3-0.6,2.6-1,3.3-2.6
				c0.3-0.6,0.9-1.1,0.3-1.7c-0.5-0.4-1.3-0.7-2-0.1c-0.8,0.6-1.7,0.9-2.7,0.9c-1.7,0-1.9-0.3-1.3-1.9c0.1-0.4,0.1-0.8,0.3-1.2
				c0.5-1.4-0.1-1.3-1.2-1c-1.7,0.5-2.9,1.7-4.3,2.6c-2.5,1.6-5.9,1.6-8,4.2c-1.5,1.8-4,2.5-5.3,4.8c-0.8,1.5-0.8,2.8-0.4,4.2
				c0.3,0.9,1.3,1.2,2.1,0.4c1.2-1.1,2.5-2.1,3.3-3.7c0.5-1,2-1.6,2.1-3.1c0-0.1,0.7-0.2,1-0.3c1-0.3,2.3,0.3,3.2-0.7
				c0.2-0.2,1.6-0.1,1.9,0.6c0.3,0.6,0,1.4-0.5,2c-0.4,0.4-0.9,0.8-1.2,1.3c-1.3,2.1-2.4,4.4-4.1,6.1c-1.6,1.6-2.4,3.5-3.5,5.3
				c-0.5,0.8-0.2,1.4,0.5,2c0.8,0.7,1.2,0.3,1.6-0.3c1.3-1.6,3.1-2.7,4.7-3.8c2.4-1.5,5-2.7,7.1-4.6c0.6-0.5,1.5-1,2-0.1
				c0.5,0.9-0.3,1.4-1.1,1.7c-1.5,0.6-2.4,1.7-2.3,3.1c0.1,1.2-0.4,2.2-1,2.6c-2,1.3-2.4,3.6-3.8,5.2c-0.6,0.6-0.7,1.4-0.1,2
				c0.6,0.6,1.4,1.4,2.4,0.9c0.6-0.2,0.9-0.7,0.3-1.4c-0.9-0.9-0.9-2.2,0-2.9c1.1-0.8,2.7-0.6,4-0.9c0.8-0.2,0.8,0.5,1.1,0.9
				c0.3,0.5,1,0.6,1.3,0.3c1.2-1.3,2.7-1,4.2-1.1c1.1,0,1.4-0.6,0.9-1.4c-0.3-0.5,0.1-0.6,0.3-0.9c1.2-1.6,2.5-1.5,4.2-0.5
				c1.3,0.7,1.1,1.3,0.4,2c-1.1,0.9-2,1.9-2.4,3.3c-0.2,0.7-0.8,0.5-1.4,0.5c-2.5,0-3.8,1.2-4,3.7c0,0.2-0.2,0.4-0.3,0.6
				c-0.2,0.3-0.9,0.4-0.4,1c0.3,0.4,0.8,0.2,1.2,0.1c0.4-0.1,0.8-0.4,1.2-0.1c-0.2,0.3-0.4,0.6-0.6,0.9c-0.2,0.5-1.1,0.8-0.4,1.5
				c0.7,0.6,1.2,0.4,1.6-0.2c0.2-0.3,0.6-0.5,0.7-0.3c0.9,1.1,1.7,0.7,2.6-0.1c0.3-0.2,0.7-0.2,1,0.1c2,1.4,3.3,1.3,5-0.2
				c0.7-0.6,1.7-0.8,2.7-0.7c0.4,0,0.5,0.4,0.5,0.7c-0.2,0.8,0.1,1.7,0,2.4c-0.2,1.9-0.2,2,1.8,1.7c0.5-0.1,1-0.4,1,0.5
				c0,0.7,0.4,1.1,1,1c1-0.1,0.4-0.8,0.4-1.3c0.1-2.3,0.7-2.8,3-2.4c0.2,0,0.6,0.2,0.7,0.1c1.3-1.4,1.5,0.1,2,0.7
				c0.3,0.4,0.7,0.7,0.9,1.1c0.5,0.8,1,1.4,0,2.4c-1.2,1.1,0.3,2.5,0,3.8c-0.1,0.3,0.7,0.2,1.1,0.1c1.1-0.4,2.3-0.8,3.5-1.1
				c0.6-0.2,1.4,0,1.6-0.9c0.3-1.5,1.6-2.1,2.7-2.4c1.3-0.3,1.8-1,1.8-2.2c1.4,0.7,1.4,0.7,2-0.4c0.5-0.9,1.3-1.3,2.2-1.5
				c0.4-0.1,0.9-0.3,1,0.3c0.5,2.1,0.1,4.1-0.8,6.1c-0.5,1.1-1.4,0.4-2,0.7c-0.5,0.3-1,0.5-1.3,1c-1,1.5-2.1,3-3.7,4.3
				c1.1,0.4,2,0.5,3,0.3c3-0.3,5.3-1.7,7.4-3.7c0.5-0.4,1.1-1.6,1.8-0.3c0.5,0.9-0.2,1.9-0.9,2.1c-2.6,0.8-4,2.7-4.9,5.2
				c3-0.2,5.8,1.1,8.8,0c0.3-0.1,0.7,0.1,1,0.2c0.9,0.5,1.8,0.7,2.6-0.2c0.5-0.5,1.3-0.4,1.9-0.4c0.4,0,1.1-0.3,1.3,0.2
				c0.2,0.5-0.3,0.9-0.6,1.2c-0.9,0.7-0.1,1.5,0.2,1.9c0.4,0.7,0.9,0.2,1.5-0.3c1.7-1.5,3.5-2.9,5.5-4c0.4-0.2,0.9-0.4,1,0.1
				c0.5,1.6,1.4,0.6,1.9,0.2c0.7-0.6,1.4-1.3,1.8-2.2c0.3-0.6,0.4-1.6,1.7-1.6c-1.1,0.7-0.7,1.6-0.6,2.5c0.1,0.5-0.3,1.3,0.7,1.3
				c0.8,0,1.7-0.1,1.8-1.1c0.1-1.3,0.3-2.1,1.9-1.8c0.5,0.1,0.8-0.3,1-0.7c0.9-2.5,1.7-5.1,2.6-7.6c0.4-1.2-0.3-2.7,1.5-3.6
				c-3.1-0.5-3.4-3-4.2-5c-0.4-0.9-0.7-1.6-1.8-1.2c-0.8,0.3-1.2-0.1-1.5-0.9c-0.2-0.7-0.8-1.1-1.5-1c-0.6,0-1-0.1-1.4-0.6
				c-1.6-2.1-4.5-2-6.3-3.7c-0.1-0.1-0.5-0.1-0.7-0.1c-1.8-0.4-3.3,0.3-4.9,0.9c-0.8,0.3-1.2,0.7-1.1,1.7c0.1,1.9-0.9,3-2.7,3.5
				c-0.2,0.1-0.5,0.1-0.7,0.2c-3.2,1.6-4.9,1-6.8-2.3c1.2-0.3,1.8,0.9,2.7,1.2c0.6,0.1,1.3,0.5,1.7-0.1c0.5-0.7-0.2-1.1-0.7-1.4
				c-0.3-0.2-0.9-0.3-0.8-0.9c0.1-0.5,0.7-0.4,1.1-0.4c0.5-0.1,1.2,0.3,1.3-0.5c0.1-0.6,0-1.2-0.7-1.6c-0.6-0.3-0.6-0.9-0.7-1.5
				c-0.2-1.4-0.2-3.1-1.9-3.7c-1-0.3-2.1-0.8-2.9-1.3c-1.5-1.1-2.6-0.4-3.6,0.4c-0.6,0.5-1.1,1.2-2,1.5c-0.3,0.1-0.5,0.4-0.4,0.7
				c1.1,2.2-0.8,3.1-1.9,4.5c-0.7-1-0.1-2.3-0.6-2.9c-0.8-0.9-0.5-1,0.3-1.3c0.6-0.3,1.1-1.3,0.8-1.4c-1.4-0.8-1-2.8-2.4-3.4
				c-0.5-0.2-1,0.4-1.3,0.8c-0.4,0.5-0.7,1.1-1.3,2c0.1-1.9-0.3-2.9-1.9-2.9c-1.4,0-2.7,0.8-2.9,2.1c-0.7,3.7-2.5,7-3,10.7
				c-0.1,0.7-0.5,0.9-1,1.1c-0.6,0.2-1,0-1.3-0.6c-0.2-0.5-0.6-0.9-1-1.3c-0.6-0.8-0.7-1.5,0.3-2.1c1-0.6,2-4,1.6-4.9
				c-0.2-0.4-0.5-0.7-1-0.6c-1.8,0.4-2.9-0.5-2.5-2.1c0.4-1.7,0.7-3.5,2.2-4.7c0.5-0.4,0.9-1.1,0.6-1.5c-0.4-0.5-1.2-0.6-1.8-0.2
				c-0.4,0.2-0.7,0.4-1,0.7c-1.6,1.5-2.8,3.6-4.9,4.7c-0.5,0.3-1,0.8-1.2,1.3c-0.7,1.6-2,1.8-3.5,1.5c0.3-1.8,2-2.7,2.7-4.2
				c0.3-0.5,0.6-0.9,0.3-1.4c-0.4-0.5-1-0.2-1.3,0.1c-0.9,1-2.1,1.3-3.3,1.5c-0.9,0.2-1.7,0.8-2.5,1.4c-0.9,0.6-0.6,1.9-1.7,2.1
				c-1.3,0.3-2.6,0.5-4,0.8c0.9-2.1,2.7-3,4.3-4c0.6-0.4,0.8-0.5,0.3-1.2c-1.1-1.5-0.8-2.5,0.9-3.3c0.5-0.3,1.3-0.3,1.5-0.9
				C303.7,311.6,305.5,311.8,306.8,311.3z M314.4,223.8c2.1,0.7,1,2.1,1.1,3.2c0,0.6-0.3,0.8-0.8,0.7c-0.7-0.1-0.5-0.6-0.4-1
				c0.7-1.6-0.3-2.3-1.5-2.7c-1.2-0.4-2.3-0.5-3.4,0.8c-1.1,1.3-1.4,3.4-3.5,3.7c-0.4,0.1-0.1,0.2-0.2,0.3c-0.4,1.1-0.6,2.6-1.4,3.2
				c-1.7,1.2-3,2.8-4.6,4c-1.1,0.8-0.3,1.7-0.1,2c0.5,0.7,1.2,0.1,1.6-0.5c0.4-0.6,0.9-1.1,1.7-1.2c0.7-0.1,1.1,0.3,0.9,0.9
				c-0.3,0.9-0.7,1.9-1.2,2.7c-0.2,0.3-0.8,0.5-0.4,1c0.4,0.4,0.7,0.1,1.2,0c2.2-0.6,2.8-0.1,3,2.1c0,0.5-0.3,1,0.3,1.3
				c0.6,0.2,1.1-0.1,1.4-0.6c0.2-0.3,0.2-0.9,0.8-0.7c0.2,0.1,0.3,0.4,0.3,0.6c0.1,0.5-0.1,0.8-0.6,1c-0.9,0.2-1.6,0.9-2.7,1
				c-0.9,0-2.1,0.5-1.9,2c0.2,1.5-1,2.8-2.7,3.3c0.2-1.1,1.4-1.6,1.7-2.5c0.2-0.5,0.6-1.1-0.2-1.4c-0.6-0.2-0.8,0.3-1.1,0.7
				c-1.5,2.3-3,4.5-1.3,7.6c0.5,0.9,0.5,2,1.8,2.3c0.6,0.1,1,0.6,0.6,1c-1,1.2-1.3,2.8-2.7,3.7c-2.2,1.4-4.5,2.8-6.4,4.7
				c-0.6,0.6-1.6,0.7-1.3,1.9c0.1,0.5-0.6,0.7-1.1,0.8c-0.9,0.2-1.9,0.4-2.8,0.6c-0.8,0.2-1.2,0.8-1,1.7c0.1,0.7,0.7,1,1.4,1.2
				c0.7,0.2,1.5-0.3,2.3,0.1c-0.3,0.6-0.8,0.6-1.3,0.8c-1,0.5-1.4,1.5-1.5,2.6c-0.1,1,0.2,1.7,1.5,1.7c0.7,0,0.6,0.7,0.3,1.1
				c-0.5,0.6-1.1,1-1.5,1.6c-0.7,0.8-0.3,1.9,0.7,2.1c1.9,0.4,3.6-1.1,3.3-3.1c0-0.1,0.2-0.3,0.3-0.4c1,1.8,1,1.9,3,1.4
				c0.6-0.1,0.9,0,1.3,0.2c1.7,0.8,2.2,0.5,2.9-1.3c0.3-0.8,0.6-2.5,2.1-0.7c0.4,0.5,0.7,0,1-0.4c0.6-0.7,1.7-0.9,2.5-0.6
				c0.7,0.4,0.2,1.3-0.1,2c-0.2,0.5-0.5,1-0.5,1.5c0,0.6-1.4,0.8-0.6,1.6c0.6,0.6,1.4,0.2,2.1,0.2c0.6,0,0.9-0.4,1.3-0.8
				c0.6-0.5,0.7-1.6,1.5-1.6c1.9,0.1,2.5-1.4,3.4-2.4c0.6-0.7,0.9-1.3,0.4-2.2c-0.2-0.3-0.8-1.1-0.1-1.4c2-0.8,2.4-2.4,2.5-4.3
				c0.1-1.3,1-1.3,1.8-0.8c1.2,0.7,1.8,0.2,2.3-0.8c0.2-0.4,0.6-1.1,0.7-0.9c1,1,2.1,0,3.1,0.1c0.7,0.1,1.5,0.5,1.8-0.5
				c0.3-0.9,0.7-2-0.2-2.5c-1.7-0.9-1.7-2.5-2.4-3.8c-0.2-0.3-0.3-0.8-0.6-0.9c-2.1-0.4-1.6-2.6-2.3-3.9c-0.9-1.5-0.3-3.8-0.4-5.7
				c0-0.3,0-0.5,0.3-0.5c0.1,0,0.4,0.2,0.4,0.3c-0.4,0.9,0.6,1.7,0.4,2.6c-0.1,0.5-0.9,1.3-0.1,1.6c1.1,0.4,2.5,1.5,3.3,0.7
				c2-2.2,3.7-0.8,5.5,0c0.9,0.4,1.9,0.9,2.5,0c0.6-0.8,1.2-2-0.3-2.8c-0.6-0.4-1.1-1.1-1.4-1.8c-0.6-1.2-0.1-2.1,1.2-2.3
				c0.8-0.1,1.2-0.3,0.8-1.3c-0.4-1-0.9-2-1.7-2.7c-0.3-0.3-0.6-0.6-0.2-1.2c0.9,0.3,1.6,0.9,2.2,1.6c0.5,0.7,1.5,0.7,2.1,0.3
				c0.6-0.3,0.5-1,0.1-1.6c-2.2-3.8-3.9-7.9-7.1-11.1c-0.4-0.4-0.6-0.9-0.1-1.3c0.4-0.4,0.9,0,1.1,0.2c0.7,0.9,2,1.2,2.7,2.1
				c0.6,0.8,1.3,0.7,1.7,0c0.4-0.6,1-0.6,1.5-1.1c-2.3-1.2-2.3-1.2-0.1-2.6c0.2-0.1,0.4-0.3,0.6-0.4c0.4-0.3,1-0.6,0.8-1.1
				c-0.2-0.5-0.9-0.6-1.4-0.4c-1.6,0.7-2.6-0.1-3.1-1.5c-0.8-2.5-2.6-3.6-5-4.1c-0.4-0.1-1.4,0.4-1.1-0.7c0.2-0.7,0.9-0.5,1.4-0.4
				c0.5,0.1,0.9,0.3,1.3,0.6c1,0.6,2.1,0.8,3.2,1.1c0.4,0.1,1,0,1.2-0.3c0.4-0.4-0.2-0.8-0.4-1c-1.3-1.2-2.7-2.4-4.1-3.5
				c-1.2-0.8-3-0.3-3.7,1c-0.3,0.5-0.7,0.9-1.2,0.9c-2,0.1-3.8,1.1-5.8,1.3c-0.5,0.1-0.9,0.1-0.7,0.7
				C316.7,223.9,315.6,223.8,314.4,223.8z M413.1,406.3c-0.8,0-1.4-1-2.1-0.4c-1.7,1.5-2.2,0.1-2.5-1.1c-0.7-2.4-2.3-4.2-3.2-6.5
				c-0.2-0.6-0.8-1.3-1.4-1.4c-1.8-0.3-2.4-1.6-3.1-3c-0.2-0.4-0.5-0.7-0.8-1c-0.3-0.2-0.6-0.5-1-0.2c-0.4,0.3,0.1,0.5,0.1,0.7
				c0.2,2.4,0.3,4.9,0.5,7.3c0,0.3-0.1,0.4-0.3,0.5c-0.3,0.1-0.4-0.2-0.5-0.4c-0.1-0.5-0.2-1.1-0.3-1.6c-0.3-2-0.5-4-0.8-6
				c-0.1-0.5,0-1.1-0.7-1.1c-0.6,0-0.4,0.6-0.6,1c-1,2.9,0.7,5.5,0.8,8.3c0.1,1.8,1.5,3.4,1.3,5.5c-0.1,0.9,0.3,1.8,0.3,2.8
				c0,1.8,0.3,3.6,0.1,5.4c-0.2,1.7,1.4,3.5-0.4,5c0,0,0.1,0.4,0.2,0.4c1,0.2,0.5,1,0.5,1.4c0.1,2-0.2,4,1.4,5.6
				c0.3,0.3,0.3,0.8,0.1,1.2c-0.6,1.4-0.8,2.7,1.2,3.2c-1.3,1-1.4,1-1.2,2.1c0.2,0.9-0.6,1.6-0.4,2.5c0.2,0.6,0.9,0.5,1,0.2
				c0.2-0.6,1.3,0.2,1-0.8c-0.2-0.6,0-1.3-0.1-1.9c0-0.3,0-0.6,0.3-0.8c0.3-0.1,0.6,0.1,0.8,0.4c0.5,0.7,1.2,1,2,1
				c2.3-0.1,4.7,0.1,7-0.3c1.6-0.3,3.4-0.8,4.8-0.3c2.1,0.6,3.3-0.6,4.7-1.5c1.2-0.7,2.6-1.7,1-3.5c-0.2-0.3-0.2-0.8-0.3-1.2
				c-0.1-1.3-1.8-2.3-0.8-3.9c-1.4-0.6-1-3.1-3.2-2.8c-0.7,0.1-0.5-0.6-0.6-1.1c-0.4-1.7,0.1-3.6-0.2-5.2c-0.5-2.8-1.7-5.5-2.1-8.4
				c-0.3-2.3-1.8-4.1-2.4-6.2c-0.3-0.9-0.7-1.2-1.5-1.1c-1.2,0.1-0.9,1-0.7,1.6C412.1,402.5,412.7,404.2,413.1,406.3z M385.9,292
				c-0.6-0.6,0-1.1,0-1.6c0.1-2.7-0.5-4.2-3.3-3.8c-0.8,0.1-0.9-0.3-1-0.9c-0.4-1.8,0-3.7-0.2-5.6c-0.1-0.4,0.1-1.3-0.7-1.2
				c-0.6,0-0.7,0.6-0.9,1.1c-0.5,1.2,0.3,2.4-0.1,3.5c-0.7,1.7-1.7,3.4-2.7,4.9c-0.4,0.6-1.1,1-0.7,2c0.2,0.6-1.7,3.4-2.1,3.2
				c-0.8-0.5-0.6-1.5-1-2.3c-0.1-0.2,0-0.6-0.6-0.6c-0.1,0.2-0.1,0.6-0.3,0.8c-0.2,0.4,0.5,1.1-0.2,1.3c-0.5,0.1-0.6-0.5-0.8-0.8
				c-0.4-0.7-0.7-0.2-1,0c-1.2,1.1-2.9,1.7-2.9,3.8c0,0.3-0.4,0.8-0.7,1c-2.1,0.9-1,2.1-0.3,3.2c0.6,0.8,1,1.5,0.7,2.5
				c-0.1,0.2-0.3,0.4-0.1,0.8c0.6,1.2,0.1,2.5-1.2,2.9c-0.7,0.2-1.3,0.1-1-0.8c0.4-1.2,0.1-2.5,0.2-3.8c0-0.4,0.5-1.3-0.4-1.3
				c-0.8,0-1.2,0.6-1,1.4c0.5,2-0.4,4.1,0,6.1c0.1,0.4-0.2,0.7-0.6,0.8c-1.3,0.4-2.3,1.4-3.7,1.8c-0.8,0.2-1.5,0.7-1.7,1.7
				c-0.2,0.7-0.7,1.4-1.1,2.1c-0.4-0.2-0.4-0.5-0.2-0.8c0.2-0.4,0.7-0.9-0.1-1.1c-0.5-0.1-1.1,0-1.2,0.7c-0.3,1.5-0.1,3.1-0.9,4.5
				c-0.2,0.3,0.1,0.5,0.4,0.7c1.4,0.6,4.4-0.3,5.3-1.7c0.7-1.1,3.2-1.9,4.2-1.2c1.3,1,1.9,0.4,2.6-0.6c0.2-0.3,0.1-1.1,0.9-0.9
				c0.5,0.2,0.6,0.6,0.8,1.1c0.2,0.5-0.1,1.4,0.9,1.3c1,0,2,0.4,3,0.4c1.1,0,2.5,0.8,3.4-0.7c0.3-0.6,0.9,0,1,0.3
				c0.2,1.5,1.3,1.5,2.4,1.7c1.1,0.2,2.3,0.2,3.4,0.3c2.4,0.3,4.7-1.6,4.5-4c-0.1-1.4,0.2-2.3,2.1-2.8c-2.1-0.2-1.6-1.4-1.6-2.3
				c0-2.3,1-4.4,1-6.7c0-1.5-0.4-3-0.4-4.5c0-2.1,0.5-4.3,0.5-6.4c0-0.8-0.7-1.9,0.4-2.6c-0.8-0.4,0.1-1.9-1.1-2
				c-1.3-0.1-0.7,1.1-0.9,1.7C386.2,289.6,386.8,290.9,385.9,292z M389.5,354.8c-0.5,0.4-1,0.8-1.5,1.3c-0.3,0.3-1.1,0.1-0.9,0.8
				c0.2,0.6,0.8,0.6,1.4,0.6c2.4,0,4.8,0.4,6.7-1.5c1-0.9,1.3-0.3,1.7,0.5c0.7,1.3,3.2,1.7,4.4,0.8c0.4-0.3,0.2-0.6-0.1-0.9
				c-1-1.2-1.7-2.5-3-3.4c-1-0.7-0.7-1.9,0-2.6c0.6-0.6,1.8-0.6,2.4,0.4c0.5,1,1.3,1,2.2,1.2c2.3,0.4,5.2-0.6,6.2,2.9
				c0.2,0.8,1.9,1.1,2.7,0c0.6-0.8,1.2-1.1,2.1-1.2c1.7-0.2,3.4-0.4,5-0.7c0.5-0.1,1.3-0.1,1.3-0.8c0-0.7-0.9-0.7-1.3-1.1
				c-0.3-0.3-0.6-0.1-1,0.1c-1,0.7-2.1,0.3-2.6-0.4c-1-1.3-2.5-1.7-3.6-2.8c-2.5-2.4-5.9-3.8-8.4-6.3c-1.5-1.5-2.7-2.6-3.5-4.7
				c-1.3-3.1,1-5.3,0.6-7.9c0-0.1,0.2-0.2,0.4-0.3c2.8-1.9,2.7-6.6,0.8-8.7c-0.4-0.5-1-0.7-1.6-0.5c-0.6,0.2-1.1,0.7-0.9,1.2
				c0.4,1.6-0.3,2.5-1.7,3.1c-0.4,0.2-0.5,0.7-0.6,1.1c-0.5,1.9-0.3,4.1-2.8,4.9c0,0-0.1,0.1-0.1,0.2c-0.7,2.2-2.3,3.4-4.3,4.2
				c-0.5,0.2-0.1,0.2,0,0.4c0.5,1.7,0,2.4-1.8,1.9c-0.7-0.2-1.4-0.4-2,0.2c-1.3,1.2-3,2-4.7,2c-2.9-0.1-4.5,1.2-5.2,3.8
				c0,0.1-0.1,0.2-0.2,0.3c-0.8,0.7-0.4,1.4,0.1,2.1c0.6,0.8,1.4,1,2.4,1c1.8-0.1,3.4,1,3.1,2.1c-0.3,1.1,0.1,1.3,1,1.6
				c0.7,0.2,1.6,0.3,1.6,1.4c-0.1,2.6,1.3,3.9,3.8,3.5C388.1,354.4,388.8,354,389.5,354.8z M369.1,147.3c-0.7,0.4-1,0.5-1.3,0.7
				c-0.3,0.2-0.9,0.3-0.7,0.8c0.1,0.4,0.6,0.5,0.9,0.4c1-0.1,1.8,0.1,1.9,1.2c0.1,1.2-1.1,0.9-1.7,1.2c-0.1,0.1-0.2,0.1-0.3,0.1
				c-0.4,0.3-1.3,0.1-1.2,0.8c0.1,0.7,0.9,0.7,1.5,0.6c1.5-0.2,3-0.3,4.5-0.4c1.1-0.1,3,0.1,2.9-2.1c0-0.5,0.5-0.6,1-0.7
				c1.4-0.3,2.7-0.5,4.1-0.8c1.3-0.3,2.8-0.7,3.4-1.8c0.6-1.1,1-2.5,0.6-3.9c-0.3-1,0-1.4,1.1-1.1c0.8,0.2,1.6-0.2,1.3-0.9
				c-0.4-0.7,0.1-2.2-1.5-2.2c-0.3,0-0.6-0.3-0.5-0.9c0.1-1.1,0.2-2.1,0.4-3.2c0.4-1.5,0.1-2-1.5-2.2c-1.6-0.1-2.4-1.5-1.7-2.6
				c0.8-1.1,0.5-2.2-0.8-2.2c-1.8,0-2.5-1.8-2.4-2.4c0.3-1.1,0.1-2.9,2-3.1c0.4,0,1-0.6,0.4-0.8c-1.4-0.5-2.4-1.5-3.6-2.1
				c-0.5-0.3-1.1,0.1-1.3,0.7c-0.2,0.5-0.6,1.2-0.9,0.9c-1.1-0.7-1.9-0.2-2.8,0.2c-0.2,0.1-0.6-0.1-0.8-0.4
				c-0.9-1.1-0.9-1.1-2.1-0.4c-0.5,0.3-0.9,0.9-1.5,0.1c-0.3-0.4-0.8-0.4-1.1-0.1c-0.4,0.3-0.5,0.7-0.4,1.3c0.1,0.4,0.4,0.8-0.2,1.1
				c-0.1-0.1-0.3-0.2-0.4-0.3c-0.4-1.1-1.3-0.9-1.9-0.6c-0.9,0.4-0.1,1,0.1,1.5c0.4,1,0.1,1.7-1,1.9c-1.5,0.2-1.3,1.3-0.7,2
				c1.1,1.4,0.5,2.4-0.3,3.5c-0.5,0.6-0.8,1.1-0.1,2c0.3,0.4,1.8,2.4-0.8,2.4c-0.8,0-0.6,1.2-1.3,1.6c-0.2,0.1,0.2,0.7,0.4,0.6
				c1.5-0.2,2.9,0.9,4.4,0.3c0.5-0.2,0.9-0.4,1.2,0.2c0.4,0.7-0.1,0.9-0.7,1.1c-1,0.3-2.2,0.3-2.9,1.3c0.7,0.7,1.5,0.5,2.2,0.4
				c0.8-0.1,1.9-0.3,2,0.6c0,1.3,1.2,2.4,0.5,3.8c-0.3,0.5-1.6,0.4-1,1.4c0.4,0.7,1.2,0.1,1.9,0.2
				C368.2,147,368.4,147.1,369.1,147.3z M356.9,248.2c0.7,0.4,1.7,0.1,1.9,0.8c1.1,3.6,1.2,0,1.7-0.2c0.2-0.1,0.2-0.6,0.6-0.5
				c-0.2,2.2-0.6,4.4-1.6,6.3c-0.6,1.2-0.1,1.6,0.8,1.7c1.1,0.1,1.5,0.9,1.7,1.6c0.3,1.2,0.7,1.7,1.8,0.7c0.4-0.3,0.9-0.1,0.9,0.2
				c0.2,1.3,1.4,2.1,1.2,3.6c-0.4,2,0.7,3.6,2,4.9c0.7,0.8,1.8,0.6,2-0.4c0.2-1,1.2-1.6,1-2.8c-0.1-0.3-0.4-1.6,0.8-1.7
				c0.9,0,1.1,0.8,1.3,1.5c0.1,0.3,0.4,0.5,0.5,0.7c0.4,1.2,0.7,0.8,1.4,0.2c1.9-1.7,2.4-4.1,3.2-6.3c0.3-0.7,0.2-1.1-0.3-1.5
				c-0.3-0.3-0.8-0.5-1.1-0.1c-0.4,0.5-0.3,1,0.1,1.5c0.8,1.2-0.2,1.2-0.9,1.2c-1.6-0.1-1.5-1.5-1.3-2.5c0.3-1.5,0-2.9-0.5-4.3
				c-0.2-0.4-0.2-0.9-0.7-1c-0.6-0.1-0.6,0.5-0.7,0.9c-0.1,0.3-0.3,0.6-0.6,0.5c-0.5-0.1-0.3-0.5-0.3-0.9c-0.1-0.6,0-1.6-0.3-1.7
				c-1.8-0.7-1.7-3.1-3.7-3.9c-1.1-0.4-1.2,0.2-1.8,0.5c-0.3-0.7-0.7-1.2-0.5-2.1c0.2-0.8,1-1,1.3-2.2c-2,1.5-2,0.2-2.1-0.9
				c-0.1-0.4-0.2-0.8-0.3-1.2c-0.1-0.7-0.3-1.5-1.1-1.5c-0.9,0-0.2,1-0.6,1.5c-0.1,0.1-0.2,0.1-0.4,0.1c-0.5-0.7-0.7-1.6-0.9-2.5
				c-0.1-0.4-0.4-0.6-0.8-0.6c-0.4,0-0.9,0.2-0.9,0.7c0.1,1.5-1,2.3-1.8,3.5c3.3,0.5,1.1,2.7,1.3,4.1
				C359.5,247.5,358.5,248.4,356.9,248.2z M278.3,356.5c0.7-2.2,1.7-3.6,4-3.5c0.5,0,1.1-0.2,1.6-0.3c0.5-0.1,1.2-0.3,1.2-0.9
				c0-0.3-0.2-0.9-0.5-1.1c-0.5-0.3-1.1-0.4-1.5,0.1c-0.5,0.7-1.3,0.6-2,0.7c-1.4,0.3-2.8,0.5-4.2,0.8c-2.9,0.5-5.7,1-8.6,1.5
				c-0.3,0-0.6,0-0.8-0.3c-0.1-0.4,0.1-0.6,0.4-0.7c0.4-0.3,0.8-0.6,1.3-0.7c2.5-0.2,4.6-1.7,6.7-2.7c0.3-0.2,0.8-0.2,0.7-0.7
				c-0.1-0.6-0.6-0.4-1-0.4c-1.8,0.1-3.5,0.3-5.2,0.7c-0.7,0.2-1.3,0.2-1.9-0.5c-1.7-1.7-4.1-1.4-5.9-0.9c-2.8,0.8-5.6,1.1-8.4,1.9
				c-1.9,0.5-3.8,0.9-5.7,0.9c-0.6,0-1.7,0.4-1.2,1.1c0.7,1,1.6,2.6,2.7,2.6c3-0.2,6-0.1,8.9-1.4c1.7-0.7,3.6-1.3,5.6-1.3
				c0.7,0,1.2,0.2,1.3,1c0.1,1-0.6,0.8-1.2,0.8c-2.9,0.4-5.9,0.8-8.7,1.7c-1,0.3-2.1,0.4-3.1,0.7c-0.3,0.1-1.3,0.3-0.9,1
				c0.3,0.6,1.1,0.7,1.6,0.4c1-0.6,2-0.7,3.1-1c1.2-0.3,1.9,0.7,3.1,0.7c2.1,0,4.3-0.6,6.2-0.2c3.5,0.7,6.6,0.1,9.9-0.6
				c0.7-0.2,1.2,0,1.6,0.7c-0.8,0.7-1.7,1.2-2.5,1.1c-1.4-0.2-2.6,0.3-3.9,0.6c-0.9,0.2-1.5,0.3-1.4,1.4c0.1,1.1,0.5,1.5,1.7,1.5
				c2.1,0,4.2-0.4,6.3-0.5c1.3-0.1,2.4,0,2.6-1.7c0.1-0.7,0.8-0.7,1.3-0.8c3.5-0.6,6.9-1.5,10.4-1.6c1.2,0,2.3-0.3,3.3-1.1
				c-0.9-0.7-1.7-0.9-2.7-0.6c-1.4,0.4-2.8,0.9-4.2,0.6c-1.9-0.4-3.8,0.1-5.4,0.5C281.1,356.5,279.8,356.3,278.3,356.5z
				 M344.1,196.2c0,1.9,2.6,5.1,4.7,5.7c0.6,0.2,1.2,0.5,1.8,0.8c1.8,1,2.8,3,4.5,4.2c0.7,0.5,1.1,2.1,1.5,2.3
				c2.7,1.4,3.9,4.2,6.1,6.1c2.1,1.8,4.4,3.6,5.7,5.9c0.8,1.5,2.7,2,2.9,3.9c0.1,0.9,1,0.9,1.6,0.7c0.8-0.3,0.1-0.8,0.1-1.3
				c-0.1-1.5-1.3-2.4-1.8-3.6c-1-2.1-2.8-3.2-4.3-4.7c-0.4-0.4-1.5-0.4-1.5-1.1c0-0.8,1.1-0.6,1.6-1c1.2-1,1.5-0.1,1.5,0.9
				c0,0.9,0.5,1.6,0.9,2.1c1.1,1.2,2.2,2.2,2.7,3.8c0.2,0.6,0.9,0.8,1.6,0.5c0.6-0.3,0.7-0.8,0.6-1.4c-0.2-1.1-0.6-2.1-1.7-2.6
				c-0.7-0.3-1.6-1.1-1.2-1.6c1.2-1.6,0-1.5-1-1.7c-0.4-0.1-0.9-0.4-0.9-0.8c-0.1-1.8-1.7-2.3-2.9-3.1c-0.5-0.4-1.1-0.5-1.6-0.9
				c-3.4-2.7-6.5-5.8-10.4-7.9c-0.4-0.2-0.7-0.5-0.8-0.9c-0.3-1.2-1.2-1.9-2.2-2.5c-0.6-0.3-0.9-0.7-1.1-1.3c-0.5-1.4-3.6-3.1-5-2.8
				C344.7,194,344,194.6,344.1,196.2z M429.9,302.1c-0.6,1.8-0.7,2-1.2,1.6c-1.3-1-1.8,0.8-2.8,0.8c-0.3,0,1,0.3,0.8,1
				c0,0.1,0,0.2,0,0.4c-0.1,0.4-0.2,0.8,0.3,0.9c0.4,0.1,0.7-0.2,0.9-0.4c0.3-0.3,0.2-1,0.7-1.2c1.1,1.2,1.5,1.2,2.1-0.2
				c0.3-0.8,0.7-1.6,0.9-2.4c0.2-0.9,0.8-1.3,1.4-1.8c0.5-0.4,1.2-0.2,1,0.3c-0.2,1,0.7,1.7,0.3,2.6c-0.2,0.4,0.4,1.4-0.9,1.1
				c-0.5-0.1-0.7,0.9-0.7,1.5c0,0.4,0.5,0.5,0.8,0.4c1.6-0.8,1.5,0.5,1.4,1.3c-0.1,1.6,0.3,3,1.1,4.4c0.2,0.4-0.1,1.2,0.7,1
				c0.6-0.2,0.9-1,0.6-1.5c-0.6-1.3-0.2-2.1,1.3-2.6c-0.7-0.4-1.5,0.2-1.6-0.8c-0.2-1.7-0.4-3.5-0.6-5.2c-0.1-0.7,0.8-1.7,0.9-1.5
				c0.9,1.1,2.4,0.4,3.4,0.9c-0.5,1.1-2.3,0.2-2.3,1.8c0,1,1.1,0.5,1.4,1.2c-0.4,0.2-0.7,0.5-1,0.7c-0.3,0.2-0.5,0.5-0.3,0.9
				c0.2,0.4,0.6,0.5,0.9,0.3c1.7-0.8,3.8-0.9,4.8-2.9c0.3-0.6,0.8-0.9,1.2,0.1c0.6,1.3,2.3,1.4,3.7,0.3c0.9-0.8,0.8-1.9,0-2.6
				c-1.8-1.7-2.5-4.1-3.7-6.2c-0.7-1.1-1.8-1.7-2.3-2.9c-0.9-2.2-2,0.1-3,0.1c-0.2,0-0.4-0.2-0.7,0.1c1.1,0.7,1.8,1.9,1.7,2.9
				c-0.1,1-1.6,0.3-2.4,0.7c-0.7,0.4-1.1-0.1-1.2-0.7c-0.2-0.9-0.9-1.2-1.6-1.1c-1.6,0-3.2,0.2-4.1,1.8c-0.2,0.4-0.6,0.7-1,0.6
				c-1.7-0.3-2,1.2-2.7,2.1c-0.4,0.5-0.4,1.3,0,1.9C428.7,302.7,429.3,302.1,429.9,302.1z M360,196.7c-0.5-0.3-0.4-0.6-0.4-0.9
				c-0.1-0.8,0.4-2.1-0.4-2.2c-1.1-0.3-1.6-1.8-3-1.1c-0.4,0.2-0.7-0.4-0.9-0.8c-1.2-2.3-3.6-3.3-6-2.4c-0.8,0.3-1.1,1-1.6,1.5
				c1.4,0.3,1.1,2,2,2.5c2,1.2,2.8,3.4,4.7,4.7c1.9,1.3,3,3.4,5.3,4.5c2.3,1.2,3.7,3.7,6.3,4.7c0.7,0.3,1.2,0.9,1.8,1.4
				c0.9,0.8,1.9,1.7,3.2,1.9c1.3,0.2,2.3-0.6,2.6-1.7c0.3-0.9-0.1-2-1.5-2c-0.4,0-0.6-0.2-0.8-0.6c-0.3-1.2-0.6-2.5-2.2-2.8
				c-0.4-0.1-0.1-0.6-0.2-0.9c-0.3-1.2-0.3-3-1.1-3.4c-1.6-0.8-2.5-2.4-3.9-3.2c-0.5-0.3-1.3,0.2-1.6-0.6c-0.3-0.7-0.5-1.6-1.4-1.3
				c-0.9,0.3-0.7,1.3-0.7,2C360.3,196.3,360.2,196.4,360,196.7z M441.7,340.4c0.4,0.7-0.3,1.2,0,1.4c1.5,1.2,0.6,2.6,0.3,4
				c-0.1,0.8-0.1,1.7,0.4,2.2c0.6,0.5,1.5,0.5,2.2,0.1c0.7-0.4,1.1-1.1,0.8-1.9c-0.2-0.6-0.1-1.2,0.5-1.3c1.4-0.3,0.5-0.9,0.3-1.5
				c-0.3-1.1-2.3-2.3,0.1-3.5c0.5-0.2,1.5-0.6,1.2-1.3c-0.2-0.6-1.3-0.6-1.8-0.4c-2.6,0.7-5.3-0.1-7.3-1.1c-2.5-1.2-4.9-1.4-7.4-1.9
				c-2.3-0.4-4.6-0.7-6.8-0.9c-1.5-0.1-3.4,1.2-2.9,1.7c1.4,1.4-1.2,2.6,0.1,3.9c-0.5,0.5-0.6,1.2-0.8,1.8c-0.2,0.7-0.3,1.5,0.5,2
				c1,0.6,2.1,0.6,3.1,0.1c0.8-0.4,1.2-1.1,0.9-1.8c-0.9-2.1,0.7-2.1,1.9-2.1c1.1-0.1,2.1-0.1,3.2,0.2
				C434,340.8,437.8,341.2,441.7,340.4z M320.8,214.5c0.9,0.1,1.7,0.3,2.5,0.4c2.7,0.3,5.5-0.1,8,1.4c1,0.6,1.8,1,0.8,2.1
				c-0.5,0.6-0.2,0.9,0.1,1.4c1.4,2.1,2.7,4.4,4.1,6.5c0.4,0.6,1.2,1.7,2.1,1c1-0.8,1.1-0.2,1.5,0.5c0.5,0.9,1.3,1.7,1.2,2.9
				c0,0.6,0.5,1.1,1.1,1.3c0.5,0.2,1.1,0.4,1.2,1c0.4,1.8,2,3.1,2.2,4.9c0.1,1.2,1.5,1.2,1.8,2.1c0.1,0.2,1,0.3,0.9-0.7
				c-0.1-1.6-0.3-3.3-1.1-4.6c-0.5-0.7,0.1-1.8-0.9-2.2c-1-0.4-1-1.4-1.4-2.4c0.8,0,1.4,0.2,2-0.2c0.4-0.4,0.8-0.6,0.2-1.1
				c-2.2-2.2-3.6-5.3-6.8-6.6c-0.4-0.2-0.8-0.6-1.2-0.9c-0.3-0.3-0.5-0.7-0.2-0.9c1.1-0.9-0.1-1.2-0.4-1.7c-0.7-1.1-2.3-0.8-2.9-1.7
				c-0.9-1.5-2.3-2-3.9-2.3c-0.7-0.1-1.2-0.2-1.7-0.8c-1.1-1.3-2.8-1.8-4.4-1.6c-1.5,0.2-3.6-1.1-4.3,1.5
				C321.5,214.1,320.9,213.8,320.8,214.5z M398.9,310c0-1,0.1-1.7,0-2.4c-0.1-0.6,0.2-2.2-1.5-1.1c-0.5,0.3-1.7-0.2-1.8-1.4
				c-0.2-1.7-0.2-3.5,0.1-5.2c-0.2,0-0.3,0-0.4,0c-0.7,0.4-1.2,1.5-1.9,0.9c-0.7-0.5,0-1.4,0.2-2.2c0.2-0.5,0.3-1.2-0.4-1.4
				c-0.7-0.2-0.6,0.6-0.8,0.9c-1.2,1.5-1.2,3.3-1.5,5c-0.5,2.7-0.2,5.4-0.4,8.1c-0.2,2.5,0,5-0.7,7.4c2.6,0.9,1.7-2.1,3.1-2.8
				c-0.3,0.7,0,1.3,0.1,1.9c0.1,0.5-0.3,1.1,0.4,1.4c1.9,0.8,4.4-0.6,4.7-2.7c0.1-0.6,0.1-1.2,0.1-1.8c-0.1-1.4,0.1-2.8,1.3-4.2
				c0,1.6,0.6,2.9,0.1,4.2c-0.2,0.7,0,1.3,0.6,1.5c0.9,0.3,0.4-0.6,0.7-0.9c0.7-0.7,0.5-2.2,2-2.4c-1.5-0.4-1.4-1.7-1.7-2.7
				C400.7,308.9,400.1,309,398.9,310z M297.5,372.4c-0.7-0.5-1.8-0.4-1.8-1.6c0-1.2,0.8-1.5,1.6-2c0.5-0.3,1.1-0.6,0.7-1.2
				c-0.9-1.4,0.3-2,1-2.7c0.4-0.4,1.1-0.4,0.8-1.2c-0.3-0.6-0.9-0.5-1.5-0.3c-2,0.5-3.7,1.3-6,1c-1.2-0.1-3,0.4-2.8,2.9
				c0.1,1.5-0.1,3.5-1.3,4.9c-0.6,0.7-0.9,1.4-1,2.2c-0.1,1.2-0.3,2.4-1.1,3.2c-1.4,1.6-0.9,3.3-0.4,5c0.3,1.1,2.5,2.1,2.6,1.5
				c0.2-1.8,2-2.6,2.2-4.4c0.1-1.6,0.6-3.2,0.9-4.7c0.1-0.3,0.3-0.7,0.8-0.5c0.3,0.1,0.5,0.6,0.2,0.7c-1.4,0.7-0.3,1.9-0.3,2.7
				c-0.3,2.4,1.5-0.2,2,0.6c0.2,0.3,0.7,0.5,1,0.7c1.3,0.7,2.6,1.4,4.4,1c-1.2-1.3-3.1-0.7-4.2-2c0.7-0.5,1.3-0.9,2.2-1.5
				c-0.6-0.1-0.8-0.2-1-0.2c-0.6,0.1-1.3,0.2-1.6-0.4c-0.4-0.7,0.1-1.2,0.5-1.8C295.9,373.7,296.6,373.1,297.5,372.4z M431.7,290.4
				c2.1-0.1,4.2-0.7,6.1-1.6c1.2-0.6,1.6-2.2,1.6-3.4c0-0.8-1.5-0.9-2.5-1.1c-2.5-0.6-5-0.6-7.4-1.8c-1.6-0.8-3.5-0.8-5.3-0.9
				c-0.9-0.1-1.5,0.2-0.8,1.4c0.4,0.6,1.1,1.1,0.9,2.1c-0.3,1.7,1.9,5,3.6,5C429.2,290,430.4,290.4,431.7,290.4z M454.2,332
				c-2.7-0.1-5-0.4-7.4-0.3c-1.1,0-1.4-1.4-2.6-1.1c-3.5,0.9-6.9-0.1-10.4-0.1c-0.7,0-1.7,0-1.3-1.3c0.2-0.5-0.2-0.6-0.6-0.7
				c-2.3-0.3-4.5-0.8-6.8-0.8c-1.4,0-3.3-1.2-4.3,1c-0.1,0.3-0.4,0.2-0.6,0c-0.6-0.7-1.3-0.8-1.5,0.1c-0.2,0.7,0.5,1.8,1.3,1.6
				c1.1-0.2,2,0.4,3,0.5c2.3,0.2,4.6,0.5,7,0.5c3.9-0.1,7.8,0.9,11.7,1.2c3.3,0.3,6.5,1.3,9.8,1.4c2.4,0.1,4.8,0.4,7.3,0
				c0.5-0.1,1-0.1,1.1-0.7c0.1-0.6-0.6-0.5-0.8-0.8c-0.6-0.7-1.5-0.3-2.1-0.9c-1-1-3.3-1.2-4.6-0.4
				C452.8,331.9,453.6,331.4,454.2,332z M412.7,376.2c2,0.1,1.8,1.6,2,2.7c0.4,2.3,1,4.6,2.1,6.6c0.2,0.5,1,1.1,1.1,0.6
				c0.1-0.9,1.5-1.2,0.9-2.7c-0.5-1.1-0.5-2.7-0.4-4.1c0.2-2.9,0.9-5.8,1.1-8.8c0.1-2.5,1-5,0.7-7.6c0-0.4,0.3-1.1-0.4-1.2
				c-0.7-0.2-1.1,0.4-1.3,1c-0.2,0.8-0.3,1.6-1,2.2c-0.6,0.5-0.7,1.3-0.9,2c-0.3,1.3,0,2.9-1.6,4c-0.7,0.5-1.8,1.6-1.3,2.9
				C414.3,375,414,375.7,412.7,376.2z M400.9,238.7c-0.3,2.7,1.4,4.8,1.1,7.3c-0.1,0.4,0.4,1,0.8,1.4c1.4,1.6,3.6,2.5,4.2,4.9
				c0.2,0.7,1,0.6,1.3-0.1c0.4-0.9,0.4-1.9-0.4-2.6c-0.4-0.4-0.9-0.7-0.6-1.2c0.7-1.3-0.3-1.8-1-2.4c-0.5-0.4-0.8-0.9-0.6-1.4
				c0.9-2.3-2.7-3.2-1.6-5.5c-1.3-0.7-1.3-2.1-1.7-3.3c-0.3-0.7-0.6-1.3-1.3-1.7c-1.3-0.6-2.2-1.5-2.8-2.9c-0.2-0.5-0.4-1.1-1.2-0.8
				c-0.7,0.2-0.4,0.8-0.3,1.2c0.2,1.9,1.4,3.5,1.4,5.5C398.3,238.7,398.9,239.9,400.9,238.7z M411.4,283.8c0.8,0.3,1.4,0.7,1.9,0.6
				c2-0.4,1.8,1.1,2,2.2c0.1,0.4-0.4,1,0.4,1.2c0.5,0.1,0.9-0.2,1.3-0.5c1.1-0.8,1-2.3,1.8-3.3c0.3-0.4,0.4-0.8-0.2-0.9
				c-0.5-0.1-1-0.2-1.1,0.5c-0.1,0.4-0.1,0.8-0.2,1.2c-0.1,0.3-0.4,0.4-0.7,0.3c-0.3-0.2-0.5-0.6-0.2-0.7c1.1-0.6,0.6-1.8,1.2-2.7
				c0.9-1.1-0.2-3.6-1.5-4.3c-0.9-0.4-1.7-1-2.2-2c-0.6-1.3-1.7-0.5-2.5-0.5c-0.6,0-0.8,0.3-0.9,1.1c-0.5,2.4,1.3,3.8,2,5.7
				c0.1,0.2,0.2,0.3,0.1,0.5c-0.4,0.4-1-0.3-1.3,0.5C411.3,282.9,413.4,282.7,411.4,283.8z M427.4,365.5c0.7,0.1,1.1,0.3,1.5,0.6
				c1,0.8,2.2,0.5,3.3,0.1c0.9-0.4,0.2-1.4,0.5-1.9c0.9-1.3-0.1-3.1,1.3-4.2c0.3-0.3,0.3-0.5,0.2-1c-0.3-1.2-0.1-2.4-0.2-3.6
				c-0.1-0.9,1-0.7,0.8-1.1c-0.3-0.5-1-1-1.6-1.3c-0.6-0.2-1.6-0.3-1.8,0.4c-0.4,1.5-1.7,2.6-2.2,4c-0.6,1.7-1.6,3.7-0.7,5.3
				C429.2,364.5,428.8,364.9,427.4,365.5z M337.4,202.4c0.1-0.2,0.1-0.4,0.2-0.4c0.8-0.3,1.7-0.7,1.4-1.8c-0.2-0.8-1.1-1.2-1.9-0.9
				c-0.9,0.3-1.7,0.7-1.2,2c0.3,0.8-0.4,0.9-1,0.8c-1.2-0.2-2.3-0.1-3.3,0.6c-0.4,0.2-1.2-0.1-1,1c0.2,1.1,0.8,0.6,1.4,0.7
				c1.6,0.3,3.5-1,4.7,1c0.2,0.4,0.8,0.1,1.2,0c0.7-0.3,1.5-0.7,2.2-1c-0.1,2.1,1.8,3.5,3.7,3c0.9-0.2,3.4,0.7,3.6,1.6
				c0.4,2.4,2.4,2.6,4.1,3.3c0.4,0.2,0.7,0.2,0.9-0.2c0.3-0.5-0.1-0.7-0.5-1c-0.7-0.6-1.6-0.7-2.1-1.6c-1.2-2-3.3-3.1-5.2-4.2
				c-1.1-0.6-2.2-1.9-3.4-1.6C339.5,204.3,338.6,203.1,337.4,202.4z M470.8,300.3c-0.5-0.4-1-0.6-1.2-1c-1.3-2.4-3.5-4.3-4.9-6.7
				c-0.5-0.9-1-2-1.9-2.9c-0.9-0.9-2.3-1.7-2.7-3c-0.7-2.2-2.7-3.5-3.6-5.6c-0.2-0.3-0.6-0.4-1-0.2c-0.2,0.1-0.4,0.5-0.4,0.5
				c0.6,0.7,0.6,1.8,1.1,2.3c2.2,2.2,3.6,4.7,4.6,7.7c1.2,3.8,3.6,6.9,7.1,9C468.9,301.1,469.8,301.2,470.8,300.3z M414.7,265.1
				c-0.2-0.5-0.7-0.2-0.8-0.3c-1-2.2-3.5-2.8-4.7-4.8c-0.4-0.6-1-0.9-1.7-0.7c-0.8,0.2-0.7,1-0.5,1.5c0.3,0.8,0,1.4-0.2,2.1
				c-0.4,1-0.7,2.7,0.1,3c2.3,0.8,3.1,3.3,5.5,4c0.6,0.2,1.4,0.8,1.8,0.3c0.5-0.6,0.8-1.6,0.2-2.3
				C413.4,266.6,413.9,265.8,414.7,265.1z M437,493.7c0.1-1.1,0.2-2.6-0.5-4c-0.2-0.3,0.3-1.1-0.6-1c-0.6,0.1-0.5,0.5-0.7,1
				c-0.8,1.8,0.6,3.4,0.3,5.2c-0.3,1.8,0.3,3.8-1.6,5.2c-0.6,0.5-1.7,1.4-1.4,2.5c0.2,0.9,0.4,1.6-0.1,2.4c-0.4,0.5,0,0.9,0.4,1.2
				c0.5,0.3,0.9,0.1,1.2-0.4c0.2-0.6,0.5-1,1.3-1.1c2.2-0.2,4.3-3.8,3-5.6C437,497.5,437.1,495.8,437,493.7z M358.4,271.1
				c3.1-0.2,3.8-1.6,3.8-3.6c0-1.3-1.6-2.7,0.2-3.9c0,0,0-0.2-0.1-0.2c-0.9-0.3-0.9-1.1-1.2-1.8c-0.4-0.8-1.1-0.4-1.2,0.2
				c-0.2,1.6-1.1,2.3-2.6,2.5c-0.3,0-0.3,0.5-0.4,0.7c-1.2,1.7-2.4,3.4,0.1,5c0.1,0.1,0.1,0.3,0.2,0.5
				C357.3,271.1,357.8,271.2,358.4,271.1z M371,176.1c-1.1-0.6-2-0.3-2.9-0.1c-1.7,0.4-3.5,0.4-4.9-0.6c-1.1-0.8-2.1-0.9-3.3-0.9
				c-0.5,0-1,0.1-1.4,0c-3.4-1.1-6.8-2.4-10.2-3.5c-1.7-0.6-3.3-1-5.4-1c1.1,1.1,8.7,4.2,9.8,4.3c2.9,0.2,5.6,1.5,8.4,2.3
				C364.3,177.3,367.6,177.7,371,176.1z M377.4,455.7c0.9-1,2.8-0.9,3.4-2.5c0.7-1.7,1.6-2.9,3.5-3.1c0.7-0.1,1.2-0.4,0.7-1.2
				c-0.5-1,0.3-2.7-1.5-3.1c-0.6-0.1-1.1,0.4-1.1,1c0.2,1.7-0.9,2-2.1,2.2c-0.6,0.1-1,0.4-1.4,0.8c-0.3,0.4-0.5,1.1-1.2,0.9
				c-0.7-0.2-0.4-0.9-0.5-1.4c-0.1-0.5-0.2-1.1-0.9-0.8c-0.5,0.2-1,0.7-0.6,1.3c0.9,1.7,0.9,3.4,0.6,5.2
				C376.2,455.5,376.6,455.8,377.4,455.7z M386.5,435.8c0.1,0.1,0.1,0.3,0.2,0.4c0.7-0.3,1.5-0.6,2.2-0.9c1.1-0.4-0.7-1.9,0.9-2.1
				l-1.2-5c-0.1-0.3,0-0.6,0.1-0.9c1-1.8-0.1-3.3-0.8-4.8c-0.2-0.5-0.5-0.5-1-0.2c-0.4,0.3-0.8,0.6-1.2,0.7
				c-0.8,0.2-1.5,0.7-1.3,1.4c0.4,1.3-0.2,2.8,0.9,3.9c0.1,0.1,0.2,0.1,0.3,0.1c2.2-1.1,1.1,0.8,1.1,1.4c0,1.1-0.1,2.3,0.4,3.2
				C387.9,434.3,387.5,435,386.5,435.8z M295.7,658.8c0.7,2.4,3.1,3.2,4.3,5.3c1.3,2.1,4.5,2.8,7.4,2.8c0.5,0,1-0.2,1.3-0.5
				c0.5-0.3,0.8-0.8,0-1.2c-1.9-1.1-3.6-2.4-5.7-3.1c-1.1-0.4-2.3-1-3.4-1.5C298.3,659.9,297.5,658.1,295.7,658.8z M442.6,363.5
				c-0.5-0.8-1.6,0.1-1.5-0.9c0-1.1,0.1-2.2,0.5-3.2c0.2-0.5,1.7,0.2,1.4-1.2c-0.2-1.1-1.2-0.7-1.8-0.9c-0.2-0.1-0.3-0.4-0.5-0.6
				c-0.8-0.9-1.4-0.7-1.8,0.4c-1,2.8-1.6,5.6-1.9,8.6c0,0.4,0.2,0.9,0.6,1c0.5,0.2,3.3-1.1,3.2-1.6
				C440.5,363.5,441.5,363.6,442.6,363.5z M372.3,401.4c0.6,0.7,0.1,2.2,1.4,1.9c1-0.2,0.7-1.3,0.9-2.1c0.2-1.4-0.5-2.8,0.1-4.2
				c0.2-0.4,0.3-1.7-0.5-2c-1-0.4-1.2-1.1-1.5-2c-0.2-0.7-0.9-1-1.6-0.4c-0.8,0.9,0.2,2.3-0.8,3.2c1.7,1.5,0.5,3.3,0.5,5.1
				c0,0.5-0.8,1.1-0.1,1.4C371.6,402.8,371.7,401.7,372.3,401.4z M389.4,255.3c-0.6,0.1-1.3-0.3-1.7,0.4c-0.5,0.7,0,1.3,0.4,1.8
				c0.3,0.4,0.6,0.9,0.9,1.3c0.9,1.4,2.8,2.2,3.1,3.9c0.2,1,0.5,1.7,1.4,1.4c0.8-0.3,1.9-0.8,1.1-2.3c-0.8-1.3-0.3-3.3-2.2-3.9
				c-0.1,0-0.1-0.3-0.2-0.5C392.1,255.6,390.9,255.2,389.4,255.3z M426,357.5c-0.1-0.8,0.6-1.9-0.6-2.2c-1.3-0.4-2,0.7-2.2,1.6
				c-0.4,2.1-0.6,4.2-0.9,6.3c-0.1,0.8-0.1,1.6,0.2,2.3c0.2,0.4,0.2,0.9,0.7,0.9c0.6,0.1,1-0.4,1-0.8
				C424.7,362.9,426.5,360.4,426,357.5z M438.5,380c0-0.3,0-0.6,0-0.9c0-1,0.1-2.1-1.2-2.3c-1.2-0.1-1.6,0.9-1.7,1.9
				c0,0.4,0,0.8-0.1,1.2c-0.4,2.1,0.8,4.4-0.5,6.5c-0.3,0.4-0.4,1.8,0.5,2.2c1,0.5,1.1-0.7,1.7-1.2c1.1-0.9-0.1-2,0.5-2.9
				C438.7,383.2,438.5,381.6,438.5,380z M429.2,275.4c-0.1-0.7-0.7-0.9-1.2-1.1c-1.8-0.5-3.3-1.5-4.7-2.6c-1.2-1-2.7-1.7-4.2-2.4
				c-0.4-0.2-1.1-0.4-1.4,0.3c-0.2,0.6-0.1,1,0.3,1.6c1.5,2.1,4.2,2.4,6.1,3.8c0.4,0.3,0.9,0.3,1.4,0.3c0.8,0,1.6-0.1,2.3,0.6
				C428.3,276.5,428.9,276.1,429.2,275.4z M535.7,341.6c-1.5,0-3.4,1.3-3.5,2.6c0,1.3,1.2,1.8,2.1,2.4c1.6,0.9,3.7,0.6,4.3-0.5
				C539.5,344.3,537.7,341.6,535.7,341.6z M463.1,275.9c1.3,0.7,2.5,1.2,3.5,1.9c1.3,1,2,0.3,2-0.9c0.1-1.8,0.6-3.7-1.1-5.2
				c-0.5-0.5-0.2-1.7-1.5-1.4c-1.1,0.2-0.6,1.4-1,1.9C464,273.3,465,275.2,463.1,275.9z M372.7,231.8c-1.8,0.2-2.9-0.4-4-1.5
				c-0.8-0.8,0-1.6-0.6-2.4c-1.4-1.9-3.1-3.5-4.2-5.6c-0.5-0.9-1.7-1.3-2.3-0.6c-0.6,0.7,0.5,1.3,1,1.8c1.8,1.8,2.5,3,2.6,5.3
				c0,0.4,0.3,0.5,0.6,0.5c0.6,0.1,1.2,0.3,1.4,0.7c0.6,1.3,2.1,1.7,2.6,3.1c0.4,1.1,1.2,1,1.9,0.1
				C372,232.9,372.3,232.5,372.7,231.8z M400.6,334.1c1.1-0.3,2.1,0.4,2.3,1.1c0.4,1.8,1.9,1.5,3,1.7c1.2,0.2,2.4,0.2,3.5,0.6
				c0.7,0.2,1.9,0.6,2-0.4c0.1-0.9-1.1-0.6-1.7-0.7c-0.1,0-0.2,0-0.4,0c-0.5-0.1-0.9-0.4-0.9-0.8c0-0.5,0.5-0.6,1-0.5
				c0.6,0,1.2,0.2,1.5-0.6C407.4,333.3,404.1,332.5,400.6,334.1z M281.4,366.6c-0.7,0.2-1.6,0-2.3,0.5c-0.7,0.4-1.5,0.7-1.2,1.6
				c0.6,1.7-1.3,3.3-0.2,5c0.2,0.3-1.2,0.8,0.1,1.1c0.9,0.2,1.6,0.1,2-0.7c0.3-0.8,0.7-1.7,0.6-2.4c-0.3-1.6,0.8-2.2,1.8-2.8
				c0.6-0.4,1.7-0.6,1.4-1.6C283.2,366.2,282.2,366.7,281.4,366.6z M460.6,268.6c0.1,0.3,0.1,0.6,0.3,0.9c0.4,0.7,0,1.8,1.5,1.8
				c1.6,0,1.6-1.3,2.1-2.1c0.4-0.7-0.2-1.6-1.3-1.8c-0.6-0.1-1-0.7-1.2-1.3c-0.6-2.1-1-2.3-3.2-1.5c0.5,0.7,1,1.4,0.8,2.3
				c-0.3,1-1.6,0-2.1,0.8c0.1,0.7,1.1,0.2,1.1,0.8C458.7,271.7,459.7,268.8,460.6,268.6z M462.7,659.5c0.8-2,0.7-2.1-1.4-2.9
				c-2.6-1.1-4.6,0.8-7,1.2c1.4-0.1,1.4,0.9,1.6,1.7c0.1,0.5-0.5,1.3,0.4,1.5c0.8,0.2,1.5,0.3,2.3-0.5
				C459.6,659.2,461.1,658.7,462.7,659.5z M325.2,506.3c1.5,0.8,1,2.2,0.8,3.4c-0.1,0.7-1,1.5-0.3,2.1c0.6,0.6,1.5,0.1,2.6,0.1
				c-1.4-1-1.9-1.9-0.5-2.7c0.6-0.3,0.4-0.7,0.4-1c-0.2-1.5,0.2-2.6,1.9-3.1c-1.1-0.3-1-1.1-1.3-1.7c-0.4-0.8-1.6-0.1-2.3-0.7
				c-0.1-0.1-0.2-0.2-0.2-0.3c-0.2-1.1-1.7-1-2-2.1c-0.1-0.2-0.4-0.3-0.6-0.1c-0.1,0.2-0.3,0.5-0.2,0.6c0.6,0.9,1.1,2,1.9,2.6
				c0.7,0.5,1.1,0.8,1.2,1.6C326.7,506.3,325.5,505.7,325.2,506.3z M372.3,173.8c2.4,1.1,3.9-0.3,5.4-0.8c3.2-1.2,6-3.3,9.4-4.4
				c1-0.3,2-0.6,3.2-1.5C383.3,167,378.6,171.7,372.3,173.8z M400.6,625.6c-1.2-0.5-2.2,0.2-3.3,0.5c-1.3,0.4-1.2,1.7-1.1,2.8
				c0.1,0.8,1,1.1,1.6,0.8c1.9-0.9,4.1-1,5.8-2.2c0.3-0.2,0.7-0.2,0.6-0.7c-0.1-0.4-0.3-0.7-0.7-0.7
				C402.6,625.8,401.6,625.4,400.6,625.6z M517.4,339.3c-2.1-1.7-4.4-1.5-6.6-1.6c-0.4,0-0.8,0-0.8,0.5c0,0.5,0.2,1,0.5,1.1
				c1.8,0.3,1.5,1.4,1.2,2.6c-0.1,0.6,0.3,1,0.7,1.4c0.5,0.5,1.1,0.6,1.7,0.2c0.8-0.5,0.3-0.8-0.1-1.3c-0.5-0.6-0.1-1.1,0.5-1.2
				C515.5,340.7,516.2,339.8,517.4,339.3z M249.4,368.2c0.2,0,0.6,0,0.8-0.2c1.3-0.7,2.3-2,3.9-2.4c0.3-0.1,0.5-0.7,0.4-1.1
				c-0.1-0.6-0.6-0.4-1-0.5c-0.8-0.3-1.7,0.3-2.4-0.1c-1.2-0.6-2.7-0.5-3.4,0.6c-0.8,1.2,0.6,2.1,0.5,3.2
				C248.3,368.2,248.9,368.1,249.4,368.2z M413.5,637c0.7,0.2,1.1,0.4,1.6,0.5c2.9,1,4.5,0.3,5.9-2.4c0.2-0.3,0.5-0.5,0.8-0.7
				c0.2-0.3,0.9-0.2,0.7-0.8c-0.2-0.5-0.6-0.5-1.1-0.4c-0.8,0.1-1.6,0.1-2.1,0.9c-0.3,0.4-0.6,0.8-1.1,0.8
				C416.3,634.6,415.1,636,413.5,637z M353.1,296.4c2.3,0.6,2.3,0.6,2.3-1.5c0-0.6,0.3-0.8,0.8-1.1c1.6-0.7,1.4-2.2,1.5-3.5
				c0.1-0.5-0.3-0.8-0.9-0.8c-1.4,0.2-4,2.3-4.3,3.6c-0.1,0.4,0,0.7,0.5,0.8c0.7,0,1.3,0,1.5,0.9C354.6,296,353.4,295.5,353.1,296.4
				z M382.9,232.5c0.2-0.7,0.4-1.4-0.4-1.9c-0.8-0.5-1.3,0.4-2,0.5c-1.1,0.1,0.1-1.5-1-1.4c-0.7,0.1-1.5-0.3-2,0.4
				c-0.6,0.7,0.2,1.2,0.5,1.7c0.2,0.3,0.1,0.6,0.1,0.8c0.1,0.9,0.6,1.6,1.2,2.1c0.5,0.3,1.8,1.3,1.5-0.7c-0.1-0.4,0.2-0.8,0.6-0.5
				C383.3,235.2,383.1,233.9,382.9,232.5z M477.4,284.6c-0.3-0.8-0.6-1.6-0.9-2.3c-0.3-0.6-0.7-1.1-1.4-0.9c-0.6,0.1-1,0.5-1.3,1.1
				c-0.8,1.7,0.1,3.3,0.2,4.9c0,0.6,0.9,1.1,1.6,1.2c0.5,0,1-0.2,1-0.6C476.5,286.8,476.2,285.5,477.4,284.6z M433.5,493.8
				c-1.2,0.4,0,2-1.3,2.3c-2,0.4-2.1,2.9-3.9,3.6c-0.3,0.1-0.4,0.6-0.1,1c0.3,0.4,0.7,0.3,0.9,0c0.6-1,1.5-0.8,2.4-0.9
				c2.1-0.2,3.3-1.7,2.7-3.6C433.8,495.4,433.8,494.6,433.5,493.8z M294.2,214.2c-0.5,0-1-0.2-1.3,0.4c-0.9,1.9-2.6,3.5-2.9,5.7
				c0,0.3-0.3,0.7,0,1c0.3,0.2,0.7,0.2,1,0.1c0.5-0.3,1-0.6,1.2-1.2c0.6-1.5,1.2-3,2.6-4.1c0.4-0.3,0.9-0.7,0.8-1.3
				C295.6,213.8,294.7,214.5,294.2,214.2z M271,615.1c0,1.3,2.3,4.4,3.5,4.7c0.6,0.2,1.1,0.1,1.5-0.3c0.6-0.5,0-0.9-0.2-1.2
				c-0.7-1.2-1.4-2.3-2.2-3.4c-0.4-0.5-0.8-1.5-1.8-1.1C271.2,614,271,614.5,271,615.1z M365.8,271.7c-0.9,0.5-1.8,0.7-1.7,2.1
				c0.1,0.7,0.6,1.6-0.4,2.3c-0.6,0.4,0.5,0.9,0,1.6c-0.4,0.6,0.8,0.9,1.1,0.6c1-0.7,2.3-1.3,1.9-2.9c-0.2-0.7-0.3-1.4,0.1-2.1
				C367.5,272.1,366.5,272,365.8,271.7z M390.8,247.8c0,0.2-0.1,0.4,0,0.5c0.5,0.6-0.1,2,1.3,1.8c1.1-0.1,0.9-1.2,0.9-1.9
				c0-1.9,0.2-3.8-0.3-5.7c-0.1-0.5-0.5-0.7-0.9-0.7c-0.3,0-0.6-0.1-0.7,0.4C390.9,244.1,390.7,246,390.8,247.8z M286.8,568.8
				c-1.3-0.4-2.4-2-3.3,0.8c-0.6,2-1.9,3.8-2,6c0,0.4-0.2,0.9,0.3,1.1c0.4,0.2,0.8-0.2,1-0.6c0.7-1.9,1.7-3.7,2.3-5.6
				C285.4,569.3,285.8,569,286.8,568.8z M337.5,239.8c-1.5-1-0.9-2.4-0.9-3.7c0-0.7-0.2-1.8-1.2-1.5c-0.9,0.2-2.6,0.5-2.1,1.7
				c0.4,1,0.7,2.2,1.4,3.2C335.5,240.7,336.3,241.1,337.5,239.8z M283.4,629.4c1.4,0.5,2.6,0.7,3.1-1.2c0.1-0.6,0.4-0.9,1.1-0.3
				c0.4,0.3,1.2,0.3,1.6-0.3c0.2-0.3,0.4-1,0.3-1.2c-0.8-1.1-2.1-0.9-3.3-1c-1-0.1-1.6,0.4-1.7,1.2
				C284.3,627.6,283.7,628.5,283.4,629.4z M288,230.4c-0.2,3.1-3.1,5.7-0.1,8.6C289.7,237,289.8,233.7,288,230.4z M377.7,346.9
				c-1.1,0.2-1.1,0.2-2.3,2.8c-0.3,0.6-1,1.3,0,1.8c0.9,0.5,1.9,1.6,3.1,0.5c0.7-0.6,1.2-1.4,1.7-2
				C377.8,349.4,376.3,348.9,377.7,346.9z M382.7,409.8c1.1-1.4,1.5-2.3,1.3-3.8c-0.2-1.4,0-2.9-0.6-4.4c-0.2-0.6-0.3-1.2-1-0.9
				c-0.7,0.3-0.8,0.9-0.1,1.4c0.3,0.2,0.1,0.4,0,0.6C381.4,405,382.3,407.1,382.7,409.8z M324.5,391.3c0,0.3-0.1,0.7,0.1,1.1
				c0.3,0.6,0.4,1.6,1.2,1.6c1,0.1,1.1-0.8,1.4-1.5c0.6-1.5-0.5-3-0.1-4.5c0.2-0.5-1.1-0.7-1.1-0.3
				C325.8,389,324.2,389.7,324.5,391.3z M445.1,651.2c-0.2-0.4,0.2-1.1-0.4-1.4c-1.9-0.9-3.6-2.3-5.9-2.3c-0.3,0-0.6,0-0.8,0.4
				c-0.2,0.5,0.3,0.7,0.6,0.7c1.6,0.2,2.3,1.5,3.3,2.4c0.6,0.5,1.2,1.2,2.1,1.3C444.7,652.3,445.4,652.2,445.1,651.2z M283.6,248.8
				c0,0-0.1,0-0.1,0c0,0.4,0,0.7,0,1.1c0,0.6,0,1.2,0.6,1.6c0.8,0.4,1.1-0.4,1.5-0.7c1.1-0.8,0.8-2.2,1.1-3.3c0.1-0.4-1-1.5-1.7-1.5
				c-0.8,0-1.7,0.5-1.6,1.6C283.4,248,283.5,248.4,283.6,248.8z M268.6,617c-1.2-0.2-1.9-0.6-2-2c0-0.8-0.9-1.6-1.8-2.1
				c-0.8-0.5-1.6-0.1-2.1,0.5c-0.6,0.7,0.1,1.3,0.7,1.5c1.3,0.5,1.3,2,2.6,2.6c-0.6,0.1-1,0.2-1.3,0.3
				C266,617.6,267.4,618.5,268.6,617z M401.7,642.9c-0.5,0.2-1.5,0.2-1.8,0.7c-0.7,1.2-1.8,1.4-3,1.7c-0.5,0.2-1.2,0.3-0.9,1
				c0.2,0.7,0.9,0.4,1.4,0.2c1.7-0.5,3.3-1,5-1.6c0.4-0.1,1.3,0,1.1-0.8C403.3,643.4,402.8,642.8,401.7,642.9z M540.1,343
				c-0.4,0.8-0.3,1.4,0.7,1.4c1.6,0,4.1-1.2,4-2c-0.3-2-2.1-1.2-3.2-1.4C540,340.7,539.4,341.6,540.1,343z M530,344
				c1.1,0,2.7-1.5,2.4-2.7c-0.3-1-1.6-1.1-2.5-1.1c-0.8,0-1.9-0.1-2.2,1.1C527.5,341.9,529.4,344,530,344z M306.3,367.5
				c0,0-0.1-0.1-0.2-0.1c-1-0.5-1.3-1.3-1.2-2.3c0-0.5-0.6-0.5-1-0.6c-0.5-0.1-0.7,0.2-0.9,0.7c-0.4,1.1-0.1,2.4-1.1,3.3
				c-0.2,0.2,0,0.6,0.3,0.7c0.6,0.3,1.3,0.7,1.9,0.3C305,369,305.6,368.2,306.3,367.5z M430.9,506.4c-0.4-0.6-1-0.8-1.6-0.3
				c-0.7,0.6-1.1,1.4-1.9,1.9c-0.4,0.2-0.3,0.8,0,1.1c0.6,0.6,1,1.3,0.8,2.3c-0.1,0.7,0.4,1.2,1.1,1.2c0.9,0,0.7-0.8,0.9-1.3
				c0.1-0.2-0.1-0.6-0.2-0.8c-0.3-1.1-1.1-2.3,0.6-3.1C430.7,507.3,430.8,506.8,430.9,506.4z M317,533c-1.8,1.2-1.8-0.6-2.6-0.8
				c-0.5,0.6-0.4,1.5-1,1.8c-1.5,0.6,0.4,1.8-0.6,2.5c0.5,0.5,1.2,0.9,1.7,0.6c0.6-0.4,1.9-0.3,1.5-1.8
				C315.8,534.7,316.4,534.1,317,533z M420.7,560.4c0.4-0.4,1.1-1,1.2-1.5c0-0.9,0.8-2,0.1-2.7c-0.6-0.7-1.1,0-1.4,0.7
				c-0.2,0.4-0.8,0-1.2,0.3c-0.7,0.5-2,1-1.3,2C418.5,559.8,419.7,559.9,420.7,560.4z M427.6,480.1c0-0.7,0-1.5-0.5-2.2
				c-0.3-0.4-0.6-0.6-1.1-0.5c-0.4,0.1-0.6,0.4-0.5,0.8c0.2,1.1-0.4,1-1.2,1c-0.4,0-0.8,0.2-1,0.7c-0.1,0.4,0.3,0.6,0.6,0.8
				c0.3,0.3,0.7,0.5,1,0.8c0.6,0.7,1.3,0.5,2,0.3C427.7,481.5,427.8,480.9,427.6,480.1z M433.9,529.6c2.2-0.5,2.2-2.5,3-3.8
				c0.3-0.4,0.9-1.3,0.2-1.8c-0.7-0.5-1.5-0.1-2.1,0.4c-0.5,0.4-0.7,0.9-0.8,1.5C434.1,527.1,434.4,528.3,433.9,529.6z M425.7,485.1
				c-0.9-0.8-3.8-1.9-4.7-1.8c-0.5,0.1-1.4,0.3-1.4,0.8c0,0.7-0.3,1.6,0.3,2.1c0.5,0.4,1.1,0.1,1.5-0.5c0.4-0.6,1.1-0.3,1.7-0.3
				C424,485.6,424.8,485.8,425.7,485.1z M422.3,552.1c0.5,0.5,1.1,1,1.4,1.7c0.2,0.5,0.8,1.1,1.5,0.8c0.8-0.4,1.3-1.1,1.4-2
				c0.1-0.8-0.4-1.5-1-2c-0.7-0.5-1.5-0.2-1.9,0.5C423.3,551.7,422.6,551.6,422.3,552.1z M358.2,399.1c-0.2,0.1-0.6,0-0.9,0.7
				c-0.5,0.9,0.1,1.3,0.2,1.8c0,0.7-0.2,1.2-0.5,1.8c0.6,0.2,1.1,0.6,1.7,0.6c0.5,0.1,0.5-0.7,0.6-1c0.3-0.8,0.4-1.7,0.5-2.6
				C359.9,399.4,359.6,398.8,358.2,399.1z M415.9,336.4c1,1.2,0.9,2.6,1,3.9c0,0.5-0.6,1.1,0.3,1.2c0.9,0.1,0.7-0.7,0.9-1.2
				c0.3-0.7,0-1.5,0.5-2c0.3-0.3,0.3-1.1,0.1-1.7c-0.2-0.8-0.9-0.7-1.3-0.5C417,336.3,416.5,336.1,415.9,336.4z M376.2,286.6
				c-0.8-0.3-1.7-0.1-2-1.2c-0.1-0.4-0.8-0.5-1-0.2c-0.5,0.7-1.1,1.5-1.3,2.3c-0.1,0.5,0,1.7,1.3,1.4c0.7-0.2,1.3,0.1,2.2,0.1
				C374.2,287.7,374.7,287,376.2,286.6z M334,539.1c0.2-0.5,0-0.6-0.3-0.7c-0.9-0.3-4.6,1-5.1,1.9c-0.2,0.3-0.7,0.6-0.3,1.1
				c0.4,0.4,0.8,0.5,1.3,0.3c1.2-0.5,2.1-1.5,3.5-1.6C333.6,540.1,333.9,539.4,334,539.1z M416,558.9c0.1-0.4-0.3-0.4-0.5-0.6
				c-0.5-0.5-1.3-0.7-1.8-0.4c-0.9,0.6-1.6,1.4-2.3,2.3c-0.3,0.3,0.2,0.5,0.5,0.5c0.5,0,0.9,0.1,1.4,0.3
				C414.1,561.3,416,559.8,416,558.9z M346.6,299.2c-0.6-0.5,0.2-1.9-1.3-1.8c-1.3,0.1-1.1,1.1-1.1,1.9c0,0.4,0.1,0.8-0.2,1.2
				c-0.8,0.9,0.3,1.5,0.7,1.8c0.6,0.5,0.8-0.4,1.1-0.8C346.3,300.8,346.3,300,346.6,299.2z M397.7,167.1c1.2-0.6,2.3-0.7,3.5-0.4
				c0.9,0.2,1.6-0.2,2.4-0.6c0.3-0.1,0.6-0.3,0.5-0.7c-0.1-0.3-0.4-0.5-0.7-0.5c-1.7,0-3.4-0.2-5,0.4
				C397.6,165.7,397.5,166.2,397.7,167.1z M328.6,530.4c0.8-0.2,0.9-1.2,1.7-1.5c0.1,0,1-1.1,0.2-1.8c-0.8-0.7-1.1,0.4-1.4,0.6
				c-0.8,0.6-1.4,1.6-2.6,0.6c-0.2-0.2-1.1,0.1-1.1,0.7c0,0.5,0.2,1.1,0.9,1.1C327,530.1,327.8,530,328.6,530.4z M384.5,233.9
				c0,0.9,0.1,1.5,0.1,2.1c0,0.4,0.2,0.7,0.6,0.7c0.4,0,0.7-0.2,0.7-0.6c0.2-1.3,0.3-2.6,0.5-4c0.1-0.6-0.2-1.1-0.6-1.5
				c-0.3-0.3-0.6-0.3-1-0.1c-0.2,0.1-0.5,0.3-0.3,0.6C385.2,232.1,384.7,233.1,384.5,233.9z M292,635.3c0-1.1-1.1-2.4-2.2-2.3
				c-0.5,0-1,0.3-1,0.8c-0.1,1.7,0.6,2.7,1.9,2.7C291.4,636.6,292.2,636.5,292,635.3z M379.8,333c-0.7-2.1-1.9-2.9-3.8-2.9
				c-0.4,0-0.9-0.1-1.1,0.4c-0.2,0.4,0.2,0.6,0.4,0.9C376.3,333.4,378.2,332.7,379.8,333z M431.7,467.7c0.9,0.3,1-0.2,0.7-0.8
				c-0.3-0.8-0.8-1.6-1.2-2.4c-0.2-0.4-0.4-1-1-0.7c-0.5,0.2-0.7,0.6-0.9,1.1C428.9,466.5,429.7,467.5,431.7,467.7z M408.7,274.1
				c0.2-0.4,0-0.6-0.2-0.7c-0.3-0.2-0.7-0.2-1,0.1c-0.9,0.8-1.8,1.6-2,2.8c-0.1,0.5-0.8,1,0.1,1.3c0.7,0.3,1.6,0.3,1.9-0.4
				C407.7,276.1,408,274.9,408.7,274.1z M315.8,428.6c0.7-0.9-0.1-1.2-0.6-1.5c-0.3-0.2-0.8,0-0.8,0.4c-0.1,1.3-0.5,2.6-0.1,3.9
				c0.2,0.5,0.5,0.9,1.1,0.7c0.5-0.1,0.6-0.4,0.6-0.9C316,430.3,316.1,429.5,315.8,428.6z M418.9,477.3c0-0.2,0.5-0.9-0.6-0.9
				c-1.4,0-1.8,1-1.9,2.2c0,1,0.1,2,1.4,1.9C420,480.3,418.7,478.7,418.9,477.3z M317.9,220.5c0.9,0.1,2.2-0.8,3.7-0.9
				c0.3,0,0.4-0.2,0.4-0.5c-0.1-0.8-1.5-1.7-2.3-1.3c-0.9,0.5-1.6,1.3-2.6,1.5c-0.3,0.1-0.6,0.4-0.5,0.9
				C316.7,220.6,317,220.5,317.9,220.5z M402.1,632.9c-0.5,0-0.8-0.1-1,0c-0.7,0.3-1.8,0.5-1.7,1.3c0,0.8,1.1,0.4,1.7,0.5
				c0.5,0.1,1.1,0.2,1.6,0.3c0.6,0,1.5,0.4,1.7-0.5c0.2-0.9-0.7-1.2-1.3-1.5C402.7,632.8,402.3,632.9,402.1,632.9z M333.1,360.6
				c-0.1-1.1-1-1.2-1.6-1.2c-0.9,0.1-2.4-0.1-2.5,1.1c-0.2,1,1,1.6,2,1.7C331.9,362.3,332.6,361.5,333.1,360.6z M422,548.2
				c-0.1,0.5-0.1,0.9,0.3,1.1c0.5,0.3,0.9-0.2,1.3-0.4c1.1-0.7,0.1-1.8,0.6-2.7c0.5-0.8-0.2-1.4-1-1.5c-0.9-0.2-1.1,0.5-1.2,1.2
				C422,546.8,422.5,547.5,422,548.2z M417.8,545.2c-0.4-0.8-0.3-2.3-1.8-2.5c-0.4-0.1-1,0-1.1,0.7c-0.1,1.3,1,3.3,2,3.3
				C417.7,546.7,417.9,546.2,417.8,545.2z M377.5,398.9c0.1,0.7-0.5,1.8,0.7,1.6c0.9-0.1,1.6-0.8,1.9-1.7c-1.1-0.4,0.4-2.4-1.3-2.3
				C376.8,396.6,378,398.2,377.5,398.9z M422,533.7c1.2-0.1,2.4-0.1,2.6-1.2c0.1-1,0.4-1.8,0.9-2.6c0.2-0.3,0.5-0.8,0.1-1.1
				c-0.3-0.2-0.7-0.1-1-0.1c-0.6,0-0.4,0.4-0.5,0.8C423.6,530.9,423.2,532.4,422,533.7z M330,479.7c0.2,0.9,0.4,2.2,1.5,2.1
				c1.4-0.1,0.7-1.8,1.3-2.7c0.3-0.5-0.7-1-1.4-1C330.7,478.3,329.9,478.6,330,479.7z M322.9,549.7c-0.8-0.4-1.5-0.3-2.2-0.4
				c-1.4-0.2-2.6,1.5-2.1,2.8c0.1,0.4,0.4,0.6,0.8,0.6c0.4,0,1-0.1,0.9-0.4C320,550.3,321.4,550.1,322.9,549.7z M442.5,321.5
				c-1.2-0.3-1.5-0.5-2.2-2.5c-0.2-0.6-0.5-0.9-1-0.6c-0.5,0.3-0.8,0.9-0.4,1.3c0.4,0.4,0.7,0.8,0.8,1.3
				C440.7,323.2,440.7,323.2,442.5,321.5z M310.5,531.2c0.2-1.1-0.5-1.4-1.2-1.4c-1-0.1-1.4,0.7-1.3,1.5c0.1,0.7,0,2,1.1,2
				C310.3,533.3,310.5,532.2,310.5,531.2z M409.9,511.7c1,0.2,1.6,1,2.7,0.9c1.2-0.1,0.9-1.5,1.8-1.8c0.2-0.1-0.2-0.5-0.5-0.6
				c-1-0.5-2.2-0.6-2.5,0.6C411.1,511.6,410.5,511.2,409.9,511.7z M426.2,458.9c-1.1-0.9-2.3-1.4-3.4-0.4c-0.2,0.2-0.2,1.8,0.7,2.5
				c0.2,0.2,0.5,0.4,0.8,0.4c0.4,0,0.4-0.4,0.3-0.7C424.3,459.4,425.4,459.3,426.2,458.9z M422.5,464.6c1.7,0.1,1.3,2.7,3.3,2.5
				c-0.8-1,1-2.1-0.1-3C424.6,463,423.7,464.5,422.5,464.6z M306.4,520.1c-1-0.1-1.9,0.2-1.9-1.3c0-0.5-0.9-0.4-0.9-0.1
				c-0.2,1.3-1.7,2.4-0.7,4.3C303.5,521.3,304.5,520.3,306.4,520.1z M494.8,336.3c-0.6,0-1.1-0.2-1.3,0.4c1.3,0.2,0.5,2,1.5,2.1
				c1,0.1,2.4-0.8,2.3-1.5C497.2,335.8,495.6,336.7,494.8,336.3z M419.7,534.2c-0.5,0.4-1.6,0.3-1.4,1.4c0.1,0.7,0.2,1.5,1.4,1.4
				c1.3-0.1,1.5-1,1.5-1.8C421.3,534.4,420.4,534.4,419.7,534.2z M446,327.7c-0.5-1.8-1.3-3.4-1.6-5.2c-0.1-0.3-0.5-0.3-0.8-0.1
				c-0.3,0.2-0.3,0.4-0.2,0.8c0.3,1.5,1.3,2.7,1,4.4c-0.1,0.4,0.7,0.6,1.2,0.7C445.9,328.1,446,327.8,446,327.7z M321.4,451.2
				c1.3,1,2.8,0.8,3.9,1.6c2.1,1.6,2.2,1.5,3.3,0.7C326.4,452.3,324.3,450.9,321.4,451.2z M435.2,521.1c0,0.4-0.4,0.9,0.4,0.9
				c0.7-0.1,1.3-0.4,1.3-1.2c0-0.7-0.4-1.3-0.3-2c0.1-0.6-0.1-1.3-0.7-1.2c-0.7,0.1-1.3,0.8-0.9,1.5
				C435.4,519.8,435.5,520.4,435.2,521.1z M300.7,375.3c0-0.7,0-1.4-0.9-1.4c-1.7,0.1-1.2,1.6-1.7,2.5c-0.3,0.5,0.1,1,0.5,0.9
				C299.7,377.1,300.7,376.6,300.7,375.3z M435.7,365.7c0-0.3,0-0.8-0.7-0.9c-0.5-0.1-0.7,0.3-0.9,0.7c-0.5,0.9,0,1.9-0.3,2.9
				c-0.1,0.3,0.4,0.7,0.9,0.7c0.5,0,0.9-0.3,0.8-0.8C435.3,367.5,435.6,366.7,435.7,365.7z M479.8,335.3c-1.4-1.7-3.2-0.8-4.6-1.4
				c-0.3-0.1-0.5,0.3-0.4,0.6c0.1,0.3-0.1,0.6,0.4,0.8C476.7,335.8,478.1,335.7,479.8,335.3z M352.9,274c0.6,0.1,3.3-3,3.1-3.6
				c-0.1-0.4-0.5-0.7-0.8-0.4c-0.8,1-2.2,1.5-2.7,2.8C352.2,273.5,352.2,273.9,352.9,274z M336,507.1c-1.5,0.2-2.4,1.1-3.3,1.8
				c-0.3,0.3-1,0.4-0.8,1c0.1,0.5,0.7,0.5,1.1,0.6c0.5,0.2,1.2,0.1,1.2-0.4C334.3,508.9,335.4,508.3,336,507.1z M303.7,514.7
				c-1.3,0.3-2.8,0.5-2.4,2.6c0.1,0.3-0.9,0.8,0,1.1c0.6,0.2,0.9-0.2,1.2-0.8C303.1,516.7,303,515.5,303.7,514.7z M434.4,475.1
				c-0.6-1.3-0.7-2.5-0.7-3.7c0-0.7-0.7-0.9-0.9-0.5c-0.3,0.7-1.3,0.4-1.6,1.4c1.9-0.7,1.4,0.7,1.4,1.5
				C432.7,474.9,433.3,475.1,434.4,475.1z M376.7,334c0.8,1.6,2.3,1.7,3.8,1.6c0.8,0,1.2-0.5,1.1-1.3
				C380,334.2,378.4,334.1,376.7,334z M422.8,509.2c1.2,0.7,1.3,1.5,1.5,2.4c0.1,0.5,0.3,1.1,1,0.5c0.8-0.7,0.6-1.7,0.7-2.6
				c0.1-0.6-1.1-0.7-1.8-0.5C423.9,509.1,423.6,509.1,422.8,509.2z M277.4,588.8c-1,0.1-2.5,3-2,4c0.1,0.3,0.3,0.3,0.6,0.2
				c0.6-0.2,2.1-3.3,1.9-3.9C277.8,588.9,277.6,588.7,277.4,588.8z M434.4,557.1c-1-2.6-1-2.6-3.9-1.1
				C431.3,557.8,432.9,556.8,434.4,557.1z M450.4,341.5c-0.3,1-0.7,1.8,0.5,1.8c0.8,0,1.5-0.7,1.3-1.4c-0.2-1-0.6-2.6-1.7-2.4
				C449,339.7,450.6,341.1,450.4,341.5z M370.8,184.1c2.3,0.4,1.7-1,2-2c0.3-0.8,0.4-1.5-0.3-2.1c-0.1-0.1-0.5-0.1-0.6,0
				c-0.6,0.6-0.5,1.3-0.4,2.1C371.5,182.7,372.2,183.7,370.8,184.1z M329.3,550.6c-1.2-0.7-2.1-1.2-3.1-0.7
				c-0.2,0.1-1.3,0.1-0.2,0.7c0.2,0.1,0.3,0.8,0.3,1.2c0,0.5,0.1,0.9,0.7,0.9c0.5,0,1-0.2,1-0.8C327.7,551,328.4,550.9,329.3,550.6z
				 M410.8,327.4c-1.7-0.5-3.2-0.5-4.3-1.6c-0.5-0.5-0.9-0.1-1.3,0.1c-0.4,0.1-0.5,0.5-0.4,0.9c0.1,0.6,0.6,0.8,1.1,0.8
				C407.4,327.5,409,327.9,410.8,327.4z M382.6,434.6c0.6,0.4-0.1,1.8,1.3,1.9c0.7,0,1.2-0.6,1-1.2c-0.2-0.8,0-2.1-1.2-2.3
				C382.9,433,382.7,433.8,382.6,434.6z M426.6,561.2c-0.8,0.2-2-0.1-2,1.1c0,1.1,1.3,0.6,1.9,0.7c0.7,0.1,1.9-0.4,1.9-1.1
				C428.5,561,427.3,561.5,426.6,561.2z M416.2,497.4c0.5,0.3,0.9,0.5,1.3,0.8c0.7,0.5,1.4,0.4,1.6-0.4c0.1-0.5,1.1-1.1,0.1-1.7
				c-0.7-0.4-1.4-0.7-1.8,0.3C417.3,496.9,416.5,496.7,416.2,497.4z M436.4,362.7c-0.7-0.4,0.6-2-0.8-2.1c-1.2-0.1-1.1,1.3-1.2,2.1
				c-0.1,0.6,0,1.4,1,1.3C436.2,364,436.4,363.6,436.4,362.7z M384.3,399.5c-1.5-0.4-1.5-1.4-1.2-2.4c0.1-0.4,0.1-0.8-0.3-1
				c-0.2-0.1-0.6,0-0.6,0.1c-0.2,1.1-0.8,2.2-0.6,3.2C382,400.5,383.2,399.7,384.3,399.5z M310.7,542.3c0.3,0.5,1.7,0.5,0.7,1.5
				c0.7,0,0,1.2,0.8,1c0.8-0.2,1.6-0.7,1.6-1.7c0-0.9-0.8-1-1.4-1.1C311.9,542,311.3,541.7,310.7,542.3z M340.4,507.2
				c-0.1-0.2,0-0.4-0.1-0.4c-0.9-0.9-1.6,0-2.2,0.3c-0.7,0.4-1.2,1.1-1.5,1.9c0,0,0.1,0.1,0.1,0.1c0.7,0.4,1.3-0.2,1.8-0.4
				C339.2,508.3,340,508,340.4,507.2z M391,509.4c-0.1-0.8-0.3-1.6-1.2-1.8c-0.9-0.2-1.6,0.1-2.3,0.7c-0.2,0.2-0.5,0.4-0.3,0.8
				c0.1,0.4,0.5,0.6,0.9,0.4C389,509,390,509.4,391,509.4z M301.4,527.2c0-0.6-0.1-1.3-1-1.1c-0.9,0.1-1.4,0.7-1.3,1.8
				c0.1,0.6,0,1.2,0.9,1.1C301.1,528.9,301.4,528.2,301.4,527.2z M335.2,439.6c-0.2-0.7-0.1-1.6-0.8-2.2c-0.4-0.4-1-0.6-1,0.1
				c-0.1,0.9-0.5,1.9,0.3,2.7c0.4,0.4,0.5,1.2,1.1,1C335.4,441,334.8,440.2,335.2,439.6z M419.2,549.9c1.8,0.1,1.4-1.5,1.9-2.4
				c0.3-0.5-0.4-0.5-0.8-0.5c-1.4,0.1-1.6,1.3-1.9,2.3C418.3,549.8,418.9,549.9,419.2,549.9z M306.3,212.4c1.3,1.2,2.9,1.1,4.4,1
				c0.4,0,0.8-0.4,0.7-0.9c-0.1-0.5-0.5-0.5-0.9-0.4C309.1,212.1,307.7,212.3,306.3,212.4z M382.4,386.8c0.1,0.7,0.3,1.4,1.3,1.4
				c0.6,0,1.1-0.1,0.9-0.9c-0.2-0.8-0.1-2-1.3-2.1C382.5,385.1,382.5,385.9,382.4,386.8z M461.9,272.7c-0.8,0.1-2,0-2.1,0.9
				c-0.1,0.7,1,1.2,1.8,1.2c0.7,0,1.6-0.5,1.6-1.4C463.2,272.7,462.5,272.7,461.9,272.7z M408.7,290.7c1.5-0.5,3.2-0.8,4.1-2.4
				C410.5,287.3,409.9,289.6,408.7,290.7z M440.5,311.2c-0.4,0.4-1.5-0.2-1.4,1c0.1,0.6,0,1.4,1,1.4c1.1,0,1.2-1.1,1.5-1.8
				C441.9,311.2,441.1,311.3,440.5,311.2z M254.8,358.4c-0.8-0.3-1.5,0-1.7,0.9c-0.1,0.5,0.4,1,0.9,0.8c1-0.3,2.5,0.1,2.7-1.1
				C256.9,358.2,255.6,358.5,254.8,358.4z M326.2,479.2c-1.6,0.7-1.1,1.9-0.7,2.9c0.3,0.6,0.8,0.5,1.2,0.1
				C327.8,481,326.7,480.2,326.2,479.2z M433.6,536.1c1.3-0.3,1.3-1.5,1.5-2.4c0.1-0.5-0.2-0.6-0.6-0.6c-1.2,0.2-1.5,1.1-1.8,2
				C432.6,535.7,433,536.1,433.6,536.1z M311.7,301c1-0.1,1-1,1.4-1.4c0.4-0.3,0.9-0.5,0.4-1.1c-0.4-0.4-0.9-0.4-1.3-0.2
				c-0.7,0.5-1.1,1.2-1.1,2C311.1,300.7,311.4,300.9,311.7,301z M401.5,255.3c0.1,0.3-0.5,1.3,0.4,1c0.8-0.3,1.5-1.2,1.9-2.1
				c0.3-0.6-0.4-1.2-1.1-0.9C402.1,253.7,401.1,254.1,401.5,255.3z M381.2,221c0.6-0.2,1.6,0,1.6-0.9c0-0.8-0.2-1.6-0.8-2.2
				c-0.4-0.4-1-0.5-1.5,0c-0.6,0.5,0,0.8,0.4,1.1C381.7,219.5,381.7,220.2,381.2,221z M466.7,341.6c-0.8,0.1-1.7,0-1.8,1.1
				c0,0.7,0.8,0.9,1.4,0.9c0.7,0,1.5-0.2,1.6-1.1C467.9,341.7,467.3,341.5,466.7,341.6z M435.2,509.7c0.2-0.5,0-1.1-0.5-1.1
				c-1.1,0.1-1.1,1-1.1,1.9c0,0.5-0.6,1.4,0.4,1.4C435.4,511.9,434.9,510.6,435.2,509.7z M313.2,666.1c0.4-1.4,0.3-2.4-0.6-3
				c-0.4-0.3-1,0-1.3,0.8C310.7,666.1,312.9,664.8,313.2,666.1z M473.2,337.9c-1.9,0-3.6,0-5.3,0C469.7,339.1,471.7,339,473.2,337.9
				z M437.1,529.2c0.2,0.6-0.4,1.7,0.8,1.6c0.9-0.1,1-0.9,0.9-1.7c0-0.6,0.3-1.4-0.7-1.3C437.6,527.9,436.8,528.2,437.1,529.2z
				 M310.2,361.6c-0.1-1-1-1-1.5-0.9c-1,0.1-0.6,1.3-1,1.9c-0.4,0.5,0.5,0.7,0.8,0.7C309.6,363.3,309.6,362.2,310.2,361.6z
				 M436.5,514.4c0.2,0.5,0,1.3,0.9,1.3c0.9,0,0.5-0.7,0.5-1.2c0-0.5,0-1,0.1-1.4c0.1-0.4,0.4-0.7-0.2-0.7c-0.4,0-1-0.3-1.1,0.5
				C436.7,513.3,436.6,513.8,436.5,514.4z M336.9,524.1c-0.3-0.6-0.4-1.4-1-1.2c-0.6,0.3-1.7,0.4-1.8,1.2c-0.1,0.6,0.9,0.8,1.3,1.3
				C335.9,525,336.4,524.5,336.9,524.1z M431.4,486.9c-0.1-0.7-1.1-0.9-0.8-1.7c0.2-0.5-0.1-0.9-0.6-0.9c-0.4,0-1-0.1-1.2,0.5
				c-0.1,0.4-0.4,1,0.2,1.3C429.8,486.4,430.4,487,431.4,486.9z M281.5,249.4c0-0.7,0.3-1.7-0.9-1.7c-0.9,0-0.6,0.8-0.7,1.4
				c0,0.6-0.1,1.4,0.8,1.5C281.4,250.5,281.7,250.1,281.5,249.4z M375.7,380.9c-0.1,0.8-0.1,1.5-0.3,2.2c-0.1,0.6,0,0.9,0.5,1.2
				c0.3,0.1,0.6,0.1,0.8-0.2c0.3-0.4,0.5-0.8,0.3-1.3C376.7,382.1,376.3,381.5,375.7,380.9z M428.4,539c1.5,1.3,2.2,1.2,3.1-0.2
				c0.2-0.3,0.4-0.6,0.2-1c-0.3-0.4-0.8-0.3-1.1-0.1C429.8,538.1,429.2,538.5,428.4,539z M351.2,278.4c0.3,0.6-0.2,1.8,1,1.6
				c0.4-0.1,1.5,0.3,1.2-0.8c-0.2-0.6,0.1-1.8-1.2-1.6C351.7,277.6,351.1,277.7,351.2,278.4z M426.7,351.4c-0.2-0.6-0.7-0.7-1.2-0.8
				c-1.1-0.1-1.2,0.9-1.4,1.6c-0.2,0.6,0.5,0.5,0.9,0.6C426,352.9,426.4,352.2,426.7,351.4z M413.1,551c0-0.7-0.2-1.4-0.8-1.3
				c-1.3,0.2-0.7,1.6-1.3,2.3c-0.2,0.2,0.4,0.6,0.8,0.5C412.4,552.2,413.2,551.9,413.1,551z M427.3,543.3c-0.1-1.2-1.2-1-1.9-1.2
				c-0.4-0.1-1,0.2-0.8,0.6c0.4,0.8,0.9,1.5,1.9,1.6C427.2,544.4,427.4,543.9,427.3,543.3z M310.1,300.3c-0.2-0.6-0.5-0.7-1-0.6
				c-1.1,0.1-1.4,1.1-1.5,1.9c-0.1,0.6,0.5,0.5,0.9,0.5C309.8,302.1,309.3,300.7,310.1,300.3z M423.1,367.3c-0.6,0.1-1,0.5-1,1.1
				c0,0.7,0.2,1.3,1.1,1.4c0.7,0.1,1.1-0.2,1.1-0.9C424.3,368.1,423.9,367.6,423.1,367.3z M430.5,367.6c-0.6,0-1.4-0.5-1.5,0.7
				c0,0.9,0.7,0.7,1.1,0.8c0.8,0.1,1.7-0.1,1.8-0.8C432,367.2,431,367.8,430.5,367.6z M320.9,451.1c-1.3-0.9-2-1.6-1.8-2.7
				c0.1-0.4-0.2-0.8-0.8-0.8c-0.3,0-0.5,0.2-0.5,0.6C317.8,449.2,319.3,450.9,320.9,451.1z M389.2,225.9c0.6,0.3,0.9,0.8,1.3,1.2
				c0.3,0.4,0.9,0.5,1,0.2c0.2-0.5,0.2-1.3-0.1-1.7C390.8,224.7,390,225.5,389.2,225.9z M424.7,495.9c-0.3-0.7,0-1.9-1.2-2.1
				c-0.5-0.1-0.8,0.4-0.6,0.9c0.3,0.7,0,1.8,1.1,2.1C424.5,496.8,424.7,496.5,424.7,495.9z M343.1,191.9c-0.8,0.1-0.9,0.7-0.9,1.3
				c0,0.5-0.3,1.3,0.4,1.3c0.7,0,1.3-0.7,1.3-1.4C344.1,192.5,343.7,192.1,343.1,191.9z M448.5,272.6c-0.8-0.3-1.5,0.2-2.2,0
				c-0.3-0.1-0.8,0-0.9,0.4c-0.2,0.5,0.3,0.8,0.5,1.1c0.3,0.4,0.6,0.3,1,0.1C447.5,273.8,448.1,273.4,448.5,272.6z M431.2,351.5
				c0.8,1.1,1.6,1.3,2.5,1.3c0.5,0,1-0.4,0.9-0.9c0-0.6-0.6-0.5-1-0.5C432.9,351.3,432.2,351.4,431.2,351.5z M310.3,526.2
				c-0.3,0.3-1.2,0.8-1.1,0.9c0.2,0.7,0.9,1.2,1.6,1.4c0.7,0.1,0.9-0.5,0.9-1.1C311.6,526.7,311.3,526.3,310.3,526.2z M306.6,558.2
				c-0.2,0.5-0.4,1.1,0.2,1.1c1.2-0.2,1-1.4,1.4-2.2c0.2-0.4-0.1-0.8-0.5-0.7C306.9,556.6,305.8,557,306.6,558.2z M321.2,556.2
				c0.1-0.8,1.2-1.5,0.1-2.3c-0.6-0.4-1.6,0.2-2.9,2C319.8,554.6,320.4,555.3,321.2,556.2z M315.5,443c0.8,1.1,0.8,2.4,1.3,3.5
				c0.2,0.3,0.3,0.5,0.6,0.5c0.3,0,0.5-0.2,0.4-0.5C317.1,445.3,317.1,443.7,315.5,443z M326.3,269.8c0-0.4-0.2-0.6-0.6-0.6
				c-1.1-0.1-1.5,0.7-1.7,1.5c-0.2,0.5,0.3,0.8,0.8,0.8C325.8,271.5,326,270.6,326.3,269.8z M386.7,397.1c-0.8-0.1,0.4-1.4-0.7-1.2
				c-1.2,0.2-0.5,1.4-0.9,2.1c-0.3,0.5,0.1,0.5,0.4,0.5C386.3,398.5,386.5,397.9,386.7,397.1z M329.6,511.5c1.2,0,1.5-0.1,1.5-0.6
				c0-0.5,0.3-1.2-0.3-1.5c-1-0.4-0.2,0.9-0.8,1c-0.2,0-0.4,0-0.5,0.1c-0.4,0.1-0.9,0.2-0.9,0.7
				C328.6,511.8,329.2,511.4,329.6,511.5z M447.1,278.3c-1-1.3-1.9-1.2-2.7-0.1c-0.3,0.4-0.2,0.7,0.1,0.9c0.3,0.3,0.8,0.3,0.9,0
				C445.6,278.1,446.4,278.6,447.1,278.3z M429.2,306.4c-0.1,0.1-0.3,0.2-0.5,0.3c0.7,0.8-0.3,1.6,0,2.5c0.1,0.2,0.3,0.4,0.5,0.4
				c0.6-0.2,1.2-0.6,0.9-1.1C429.7,307.7,430.5,306.7,429.2,306.4z M394.1,294.3c-0.2-0.5,0-1.5-0.8-1.3c-0.8,0.1-0.7,1.1-0.9,1.8
				c-0.1,0.5,0.1,0.9,0.6,0.9C393.7,295.6,394.1,295,394.1,294.3z M424,449.6c0,0.5-0.2,1.2,0.7,1.2c0.8,0,0.7-0.7,0.7-1.2
				c0.1-0.6,0-1.1-0.7-1.2C423.7,448.4,424.1,449.2,424,449.6z M420.7,628.1c-0.7-0.1-1.1,0-1.2,0.7c-0.1,0.7,0.4,0.8,0.9,0.8
				c0.6-0.1,1.5-0.2,1.5-1C421.9,627.6,421.1,628.4,420.7,628.1z M412,641.1c-1.3-0.4-2.3-0.7-3.3-1c-0.3-0.1-0.7-0.1-0.8,0.3
				c-0.1,0.4,0.1,0.8,0.5,0.8C409.6,641.3,410.7,641.8,412,641.1z M406,640.7c-0.1-0.6-0.6-0.6-1.1-0.5c-0.6,0.1-1.5-0.2-1.6,0.7
				c0,0.6,0.7,0.7,1.3,0.7C405.2,641.7,405.8,641.5,406,640.7z M293.8,532.4c0.1-0.4,0.1-0.9-0.5-1c-0.7-0.1-0.8,0.4-0.7,0.9
				c0,0.4,0.2,0.7-0.1,1c-0.2,0.2-0.7,0.5-0.1,0.8c0.5,0.3,1,0.2,1.2-0.4C293.7,533.3,293.7,532.8,293.8,532.4z M247.7,360.8
				c0.6-1,1.5-0.7,2.3-0.8c0.2,0,0.5,0,0.5-0.4c0-0.1-0.1-0.3-0.2-0.4c-0.7-0.5-1.4-0.3-2.1-0.1C247.3,359.3,247.6,360,247.7,360.8z
				 M325.6,486.1c1.1,0,0.8-0.9,0.9-1.4c0.2-0.6-0.4-0.6-0.8-0.6c-0.8,0-1,0.7-1,1.2C324.6,485.9,325.1,486.1,325.6,486.1z
				 M424.9,468.8c1,0.4,2.2,0.4,3.1,1c0.3,0.1,0.6,0.1,0.8-0.2c0.2-0.5-0.2-0.6-0.5-0.7C427.2,468.3,426,468.5,424.9,468.8z
				 M318.2,527.2c0.1-0.7-0.3-0.8-0.8-0.8c-0.6,0-1.3,0.1-1.2,0.9c0,0.7,0.5,1,1.2,1C318.1,528.3,318.1,527.7,318.2,527.2z
				 M428.6,522.4c-0.1-0.8-0.4-1.2-1.1-1.2c-0.3,0-1.1-0.1-0.8,0.6c0.2,0.6,0.2,1.5,0.9,1.6C428.1,523.5,428.5,522.9,428.6,522.4z
				 M357.7,321.5c-1.3-0.7-2.6-0.6-3.8-0.4c-0.1,0-0.3,0.2-0.3,0.4c0,0.3,0.2,0.5,0.4,0.5C355.1,321.6,356.3,322.2,357.7,321.5z
				 M366.7,380.7c-0.3-0.5,0-1.5-0.9-1.5c-0.7,0-0.8,0.6-0.8,1.1c-0.1,0.9,0.8,0.7,1.2,1C366.7,381.5,366.8,381.1,366.7,380.7z
				 M466.3,281c-0.4-0.6-1-0.9-1.8-0.8c-0.4,0.1-0.9,0.2-0.8,0.7c0.2,0.8,1,0.9,1.7,1C465.9,282,466.2,281.6,466.3,281z M321.9,498
				c-0.8,0.5-1.1,1.2-0.9,2c0.1,0.3,1,0.4,1.3,0.2C323.2,499.3,321.7,498.8,321.9,498z M305.2,526.2c0.6-0.2,1.5,1,1.9-0.4
				c0.1-0.4,0.3-1.2-0.1-1.3C305.9,524.3,305.7,525.4,305.2,526.2z M420.4,294.9c-1.3,0-1.9,0.6-2.2,1.5c-0.2,0.4,0.4,0.7,0.7,0.6
				C420.1,297,420.2,296,420.4,294.9z M521.6,344.3c1.1,0.2,2.2,0.4,3.3,0.5c0.4,0,0.8,0,0.9-0.5c0.1-0.5-0.4-0.5-0.7-0.6
				C524,343.4,522.9,343.9,521.6,344.3z M496,340.8c-0.2-0.5-0.6-0.9-1.2-0.8c-0.6,0.1-1.1,0.4-1,1c0,0.6,0.6,0.7,1.1,0.6
				C495.4,341.6,495.9,341.5,496,340.8z M492.4,345.4c0.3,0,0.5,0,0.7,0.1c1.7,0.7,1.1-1.1,1.7-1.6c0.2-0.2,0.2-0.5-0.1-0.6
				c-1.1-0.5-1.2,0.7-1.8,1.1C492.7,344.6,492.6,345,492.4,345.4z M330.8,383.1c-0.4-0.3-0.8-0.4-1.1-0.7c-0.5-0.4-1-0.4-1.5-0.3
				c-0.1,0-0.3,0.3-0.2,0.4c0.2,0.6,0.8,0.4,1.2,0.6C329.6,383.4,330.1,383.6,330.8,383.1z M385.4,227.1c-0.5,0.2-0.9,0.6-0.7,1.1
				c0.1,0.5,0,1.4,0.9,1.3c0.5,0,0.8-0.4,0.6-0.9C386,228.1,386.2,227.3,385.4,227.1z M437.8,537.9c0-0.5-0.1-0.8-0.6-0.8
				c-0.8,0.1-1.2,0.7-1.1,1.4c0,0.4,0,1.3,0.8,1.2C437.7,539.5,437.4,538.5,437.8,537.9z M340.9,483.3c1.5,0.3,2.8-0.1,4-0.7
				C343.4,481.9,342.2,482.8,340.9,483.3z M249.4,357c-0.2-0.6-0.4-1-1-0.9c-0.8,0.1-1.1,0.7-1.1,1.4c0,0.5,0.5,0.4,0.8,0.4
				C248.6,357.8,249.2,357.7,249.4,357z M371,388.1c0.8-0.6,0.7-1.4,0.4-2.1c-0.1-0.3-0.5-0.4-0.8-0.2c-0.8,0.5,0.2,1.2,0,1.8
				C370.6,387.7,370.6,387.9,371,388.1z M344.4,488.2c0.1,0.8,1.6,0.8,0.7,1.8c-0.2,0.3,0,0.5,0.2,0.5c0.2,0,0.5,0,0.6-0.2
				c0.2-0.2,0.7-0.5,0.4-0.9C345.9,488.8,345.5,488,344.4,488.2z M301.6,494.1c-0.4-0.7-1.3-0.5-1.9-0.9c-0.3-0.2-0.8,0-0.9,0.4
				c-0.1,0.2-0.1,0.5,0,0.7c0.2,0.3,0.6,0.3,0.8,0.1C300.2,493.9,300.9,494.8,301.6,494.1z M417.2,541.9c0.4-0.2,1-0.3,1-1
				c0-0.6-0.4-0.8-0.9-0.9c-0.7-0.1-0.9,0.5-1,1C416.2,541.6,416.5,541.9,417.2,541.9z M386.1,273.6c0-0.5-0.4-0.5-0.8-0.5
				c-0.6,0.1-1.1,0.3-1,1c0.1,0.6,0.8,0.6,1.2,0.9C385.7,274.5,385.9,274.1,386.1,273.6z M395.3,265.2c-0.7,0.2-1.1,0.7-1.2,1.4
				c0,0.5,0.3,0.6,0.7,0.5c0.7,0,1.2-0.3,1.2-1.1C396,265.6,395.8,265.3,395.3,265.2z M357.8,260.7c1,0.6,1.7,0.8,2.3-0.1
				c0.2-0.3,0.5-0.8,0-1.1C359,259.1,358.8,260.4,357.8,260.7z M361,220.6c0.6,0,0.8-0.5,0.9-0.8c0.1-0.7-0.4-1-1-1
				c-0.4,0-1.1-0.1-1,0.4C359.9,219.8,360.6,220.2,361,220.6z M303.9,223.3c-0.1-0.5-0.2-1-0.9-0.9c-0.6,0.1-1,0.7-1,1.1
				c-0.1,0.7,0.6,0.5,1.1,0.6C303.5,224.1,304,224,303.9,223.3z M294.7,343.6c0.2-0.5-0.2-1.1-0.3-1.3c-1-1.6-1.3-0.1-1.3,0.5
				C293.1,343.9,294,343.6,294.7,343.6z M304,545.5c-1-0.4-1.7-0.9-2.4,0.1c-0.3,0.5,0.3,0.5,0.5,0.7
				C303.2,547.1,303.4,546,304,545.5z M308.6,433.9c1.2,0.2,1.5,1.4,2.6,1.3C311,433.7,310.2,433.4,308.6,433.9z M446,285.6
				c0.5-0.1,1.2,0.1,1.1-0.6c0-0.6-0.7-0.5-1.2-0.5c-0.5,0-1,0.1-1,0.5C444.9,285.9,445.6,285.5,446,285.6z M431.2,572.3
				c0.5,0.4,0.7,0.3,1,0.2c0.7-0.3,1-1,1.4-1.5c0,0-0.1-0.2-0.2-0.3c-0.9-0.4-1,0.7-1.5,0.9C431.6,571.8,431.4,572,431.2,572.3z
				 M329.7,437.8c-0.4-0.7-1.2-0.7-1.2-1.5c0-0.3-0.3-0.5-0.7-0.4c-0.4,0.1-0.3,0.4-0.3,0.7C327.4,438.6,328.7,437.5,329.7,437.8z"
				/>
			<path d="M387.2,195.8c0.5-1.8,1.7-2.3,3.2-2c1.5,0.2,2.7-0.6,3.9-1.3c0.8-0.5,0.6-1.3,0.5-2c-0.1-0.8-0.8-0.7-1.5-0.5
				c-0.6,0.2-1.1,0-1.6-0.2c-1-0.5-1.9-0.3-2.7,0.3c-0.5,0.4-0.9,0.9-1.5,0.3c-0.7-0.7,0.1-0.9,0.4-1.3c0.3-0.3,0.4-0.6,0.1-1
				c-1-1.1,0-1.8,0.7-2c1.9-0.8,3.2-1.8,2.7-4.1c-0.1-0.7,0.3-0.8,0.9-0.5c1.2,0.5,1.5,1.4,0.8,2.4c-0.3,0.5-0.3,0.9-0.1,1.3
				c0.3,0.6,0.8,0.4,1.3,0.3c0.6-0.1,1.2-0.3,1.8-0.1c2.1,0.7,3.9,0.4,5-1.9c0.7,1.6-0.2,3.5-1.9,3.9c-2.6,0.6-3.7,2-3.7,4.7
				c0,2.8-0.3,2.9-3.1,3C390.7,195.2,389.1,196.4,387.2,195.8z"/>
			<path d="M349.8,429c-1-0.6-1.7-3.2-1.1-4c0.3-0.4,0.7-0.4,0.8,0.1C349.7,426.4,350.6,427.7,349.8,429
				C349.7,429.1,349.8,429,349.8,429z"/>
			<path d="M368.7,431.9c0.1,0.4,0,0.6-0.3,0.7c-0.3,0.1-0.7,0-0.8-0.3c-0.2-1-0.3-2-0.4-3c0-0.1,0.3-0.3,0.5-0.4
				c0.3-0.1,0.6,0.1,0.5,0.3C367.8,430.3,368.6,431.1,368.7,431.9z"/>
			<path d="M363.4,402.4c-0.6-0.2-0.7-0.7-0.7-1.3c0-0.4,0.1-0.9,0.5-0.8c0.6,0.1,1,0.7,0.8,1.4C364,402,364,402.4,363.4,402.4z"/>
			<path d="M367.6,402.8c0.6-0.1,0.7,0.3,0.7,0.8c0,0.5,0.1,1.2-0.6,1.3c-0.8,0.1-0.8-0.7-0.9-1.1
				C366.6,403.1,367.2,403,367.6,402.8z"/>
			<path d="M337.8,223.2c-2-1-2.4-3.3-4.4-3.9C335.3,219.9,337.2,220.6,337.8,223.2z"/>
			<path d="M295.1,366.7c-0.5,1.9-1,3.5-1.1,5.2c0,0.3-0.5,0.5-0.9,0.4c-0.4-0.1-0.2-0.5-0.2-0.8c0.3-1.6,1.3-3,1.1-4.7
				c0-0.3,0.3-0.5,0.6-0.5C295,366.6,295.1,366.8,295.1,366.7z"/>
		</g>
	</g>
</g>
</svg>
