<?xml version="1.0" encoding="utf-8"?>
<!-- Generator: Adobe Illustrator 26.0.2, SVG Export Plug-In . SVG Version: 6.00 Build 0)  -->
<svg version="1.2" baseProfile="tiny" xmlns="http://www.w3.org/2000/svg" xmlns:xlink="http://www.w3.org/1999/xlink" x="0px"
	 y="0px" viewBox="0 0 800 800" overflow="visible" xml:space="preserve">
<g id="fill">
</g>
<g id="bg">
	<rect x="-3100" y="-100" fill="#EAAA00" width="7000" height="1000"/>
</g>
<g id="scans" display="none">
	<image display="inline" width="613" height="603" xlink:href="AE7E5CB.jpg"  transform="matrix(1.3051 0 0 1.3051 0 6.5253)">
	</image>
</g>
<g id="counters_00000155831629897369998050000010902328751353074356_">
	<g id="su_mmg">
		<polyline points="185.3,426.7 240,413 240,436 185,454 185.3,426.7 		"/>
		<ellipse cx="253.5" cy="609" rx="23.5" ry="9"/>
		<circle cx="252.5" cy="572.5" r="9.5"/>
		<circle fill="none" stroke="#000000" stroke-width="10" stroke-miterlimit="10" cx="248.5" cy="408.5" r="13.5"/>
		<circle fill="none" stroke="#000000" stroke-width="10" stroke-miterlimit="10" cx="248.5" cy="448.5" r="13.5"/>
		<circle cx="246.5" cy="166.5" r="13.5"/>
		<line fill="none" stroke="#000000" stroke-width="11" stroke-miterlimit="10" x1="228" y1="378" x2="268" y2="378"/>
		<line fill="none" stroke="#000000" stroke-width="11" stroke-miterlimit="10" x1="236.5" y1="504.5" x2="246.5" y2="378.5"/>
		<line fill="none" stroke="#000000" stroke-width="11" stroke-miterlimit="10" x1="260" y1="504.1" x2="250" y2="378.1"/>
		<line fill="none" stroke="#000000" stroke-width="11" stroke-miterlimit="10" x1="252.5" y1="572.5" x2="252.5" y2="603.5"/>
		<line fill="none" stroke="#000000" stroke-width="11" stroke-miterlimit="10" x1="249.5" y1="361.5" x2="249.5" y2="377.5"/>
		<circle fill="none" stroke="#000000" stroke-width="10" stroke-miterlimit="10" cx="248.5" cy="480.5" r="13.5"/>
		<rect x="162" y="300" fill="none" width="100" height="0"/>
		<rect x="162" y="328" width="159" height="39"/>
		<rect x="161" y="306" width="14" height="98"/>
		<rect x="308" y="305" width="14" height="98"/>
		<rect x="103" y="426" width="86" height="31"/>
		<line fill="none" stroke="#000000" stroke-width="13" stroke-miterlimit="10" x1="179" y1="649" x2="233" y2="340"/>
		<line fill="none" stroke="#000000" stroke-width="13" stroke-miterlimit="10" x1="321" y1="646.9" x2="267" y2="337.9"/>
		<line fill="none" stroke="#000000" stroke-width="13" stroke-miterlimit="10" x1="191.5" y1="587.5" x2="307.5" y2="588.5"/>
		<line fill="none" stroke="#000000" stroke-width="13" stroke-miterlimit="10" x1="244.5" y1="328.5" x2="246.5" y2="169.5"/>
	</g>
</g>
<g id="text">
	<g>
		<g>
			<path d="M414.7,222.5c0-19.1,0.3-40.4,0.8-53h-0.8c-5.2,22.8-16.4,60-27.1,94.9H367c-8.1-30.6-19.7-72.9-24.6-95.2h-0.8
				c1,13.1,1.4,36.1,1.4,55.2v40h-22V152.7H357c8.7,29.2,18.5,65.8,21.8,82.4h0.2c2.7-14.7,15-53.8,24.3-82.4H438v111.7h-23.3V222.5
				z"/>
			<path d="M550.3,222.5c0-19.1,0.3-40.4,0.8-53h-0.8c-5.2,22.8-16.4,60-27.1,94.9h-20.6c-8.1-30.6-19.7-72.9-24.6-95.2h-0.8
				c1,13.1,1.4,36.1,1.4,55.2v40h-22V152.7h35.9c8.7,29.2,18.5,65.8,21.8,82.4h0.2c2.7-14.7,15-53.8,24.3-82.4h34.6v111.7h-23.3
				V222.5z"/>
			<path d="M689.3,264.4h-17.7c-0.9-3.4-1.5-7.3-1.8-11c-6.2,8.3-17.1,12.9-32.6,12.9c-32.4,0-50.5-24.5-50.5-56.3
				c0-33.6,19.5-58.9,54.7-58.9c28.7,0,45.7,16.2,48.4,35.3h-24.2c-2.3-7.5-8.2-16.3-24.5-16.3c-22.9,0-29.5,19.2-29.5,38.9
				c0,19.2,7.5,38.1,29.6,38.1c20.6,0,24.5-14.3,24.5-24.3v-1h-24.5v-19.8h48.2V264.4z"/>
			<path d="M465,458.8v-24h-48.2v-20.2l44.5-62.4h25.3v63.9h12.8l-2.1,18.8h-10.7v24H465z M465,397.1c0-11.6,0-18,0.5-24.7
				c-4.2,8.9-18.1,29.2-28.1,43.7H465V397.1z"/>
			<path d="M551,407v20.2h-45.1V407H551z"/>
			<path d="M574.9,458.8v-79.7c-4.9,2.3-14,4.2-19.3,4.6v-17.3c10.1-1.9,20.3-7.6,26.4-14.3h16.4v106.7H574.9z"/>
			<path d="M693.5,404.8c0,29.3-9.3,55.9-41,55.9c-31.3,0-40.9-25.7-40.9-55.2c0-29.2,10.7-55.2,41.4-55.2
				C682.7,350.3,693.5,374.6,693.5,404.8z M635.5,405.3c0,19.6,2.2,37,17.3,37c14.7,0,16.7-16.3,16.7-37.3
				c0-20.7-2.5-36.2-16.4-36.2C639.4,368.7,635.5,382.2,635.5,405.3z"/>
			<path d="M365.3,541.5h48.8c27,0,37.2,14.1,37.2,28.6c0,12.6-6.7,20.8-14.2,24.2c7.5,2.8,17.4,10.8,17.4,25.5
				c0,19.1-15,33.4-38.8,33.4h-50.4V541.5z M411.3,585.6c11.5,0,16.2-5.2,16.2-13c0-8.2-6.2-12.4-15.5-12.4h-23v25.4H411.3z
				 M389,634.6h21.8c13.1,0,19-5.5,19-15.6c0-9-5.8-14.7-19.1-14.7H389V634.6z"/>
			<path d="M479.5,653.2v-79.7c-4.9,2.3-14,4.2-19.3,4.6v-17.3c10.1-1.9,20.3-7.6,26.4-14.3h16.4v106.7H479.5z"/>
			<path d="M516.7,653.2v-1.5c0-18.6,8.3-33.7,31.4-50.5c15-11,19.6-14.8,19.6-24.1c0-9.2-4.5-14.4-13.5-14.4
				c-10.4,0-14.2,6.4-15.7,15.7h-22.4c1.5-18.4,13.6-33.7,38.1-33.7c27.4,0,36.8,16.3,36.8,32.3c0,15.5-6.7,23-26.3,36.8
				c-13.1,9.2-18.4,15.3-20.2,20.1H595l-2.9,19.3H516.7z"/>
			<path d="M652.9,561.8v35.7h35v19.4h-35v36.3h-19.5v-36.3H598v-19.4h35.4v-35.7H652.9z"/>
		</g>
	</g>
</g>
<g id="guides" display="none">
</g>
<g id="scratch">
</g>
</svg>
