<?xml version="1.0" encoding="utf-8"?>
<!-- Generator: Adobe Illustrator 26.0.2, SVG Export Plug-In . SVG Version: 6.00 Build 0)  -->
<svg version="1.2" baseProfile="tiny" xmlns="http://www.w3.org/2000/svg" xmlns:xlink="http://www.w3.org/1999/xlink" x="0px"
	 y="0px" viewBox="0 0 800 800" overflow="visible" xml:space="preserve">
<g id="fill">
</g>
<g id="bg" display="none">
	<rect x="-2100" y="-100" display="inline" fill="#9FC9EB" width="10200" height="2000"/>
</g>
<g id="counters_00000155831629897369998050000010902328751353074356_">
	<g>
		<g>
			<path d="M326,237.6c3.2,1.3,7.1,2.2,5.7,7.2c-0.6,2.1,1.6,2.3,3,2.8c2,0.7,4.6-0.2,5.8,2.5c-1.3,1.8-3.4,2.2-5.2,2.7
				c-7.5,2.1-9.9,5.9-8.4,13.6c1.2,6.3,2.2,12.7,3.5,19c0.3,1.3,1.2,3.2-0.7,3.2c-7.7,0-3.4,4.7-3.2,7.7c0.1,1.9,3.4,4.2-1.2,5.3
				c-1.6,0.4-1.2,2.1,0.1,3.1c1.7,1.3,2.2,5.3,5.5,3.3c4.4-2.6,4.9-0.6,5.7,3.4c1.3,7.1,7.7,10.5,14.8,9c3.5-0.7,7-1.2,10.6-1.5
				c8.3-0.6,15.8-3.6,22.6-8c1.6-1,2.9-0.8,4.4-0.6c1.1,0.2,1.4,1.2,1.3,2c-0.1,2.2-2.2,2-3.5,2.3c-8.7,2.5-16.1,7.2-23.4,12.3
				c-1.1,0.8-2.2,1.4-3.5,1.7c-1.7,0.4-4.4-0.4-4.4,2.8c0,2.7,2,3.9,4.1,4.7c2,0.8,4.4,0.9,5.6,4.2c-4.3-0.9-8.1-1.7-11.8-2.4
				c-1.3-0.2-3-0.3-3.6,1c-1,2,1.4,2.5,2.2,3.6c1.2,1.6,3.2,1.7,4.9,1.3c3.8-0.8,6.8,1.2,10.1,2.3c6.2,2,5.1,6.8,4.4,11.1
				c-0.4,2.8-4.3,4.5-5.6,2.7c-4-5.4-14-3.3-14.8-13.2c-0.3-3.9-6-3.7-8.4-0.2c-1.5,2.2-3.5,3-5,4.7c-1.4-0.7-0.9-1.6-0.7-2.4
				c3.2-10.7,3.1-10.2-7.7-10.9c-9-0.5-16.3,4.3-24.4,6.4c-3.5,0.9-1.5,2.9-0.1,4.4c2.8,3.1,5.5,6.1,7.4,10c1.1,2.2,2.5,4.1,0.4,5.9
				c-2.4,2.2-3.3-0.4-4.4-2c-0.8-1.2-2.8-0.5-2.6-0.1c3,4.2-2.3,6.6-2,10.1c0.2,2.1,1,4.1,3.2,4.6c2.5,0.6,4.7-0.2,6.7-1.9
				c2.1-1.7,1.4-3,0-4.4c-0.8-0.8-1.9-1.5-0.7-2.6c0.5-0.5,1.9-0.9,2.4-0.5c4.6,2.7,8.5,0.1,12.4-1.6c1.2,1.9-0.4,2.1-1.1,2.7
				c-5.3,4.3-6.6,9.7-2.5,15.1c3.5,4.5,2.8,9,2.2,13.8c-0.8,6.1-10.6,15.5-17,16.5c1.9,1.2,4.7,0.3,2.2,4.8
				c-6.8,12.4-18.4,20.9-24.7,33.5c-2.8,5.6-0.5,13.9,7.1,19.1c2,1.4,4.9,2.2,4.9,4.9c0,2.9,4,6.5,0.4,8.5
				c-4.6,2.7-11.2,4.7-15.2,2.1c-8.4-5.6-18.1-6.9-26.9-10.7c-7.3-3.2-8.9-8.8-4.2-15.4c6.9-9.6,12.3-20.3,19.8-29.5
				c2-2.4,3.9-5.6,2.1-9.4c-1.1-2.2,1.1-1.9,2.1-2.1c8.9-2,16.7-7.2,26.2-7.6c3.7-0.2,7.3-3.7,10.9-5.9c0.5-0.3,0.9-1.5,0.8-2.3
				c-0.1-1.2-1.1-2-2.3-2c-2.3,0-4.5,0.3-6.1,2.2c-2.2,2.7-4.2,2.7-7.5,1.3c-3.7-1.6-7.8-2.2-9.9,3.8c-1.5,4.2-6.9,4.3-11,5
				c-1.9,0.3-1.1-1.4-1-2.8c0.5-4.9,5.6-5.8,7.6-9.7c2.3-4.4,1.6-6.7-2.6-8.1c-3.1-1-6.6-1.1-9.8-1.8c-5.1-1.2-4.6,3.8-6.5,6
				c-2.8,3.2-7.9,3.1-10,7.3c-2.5,5.1-6.7,8.3-11.8,10.9c-2.7,1.4-5.4,4.1-7.2,7.5c-3.1,5.9-9.3,9.3-15.2,11
				c-8.9,2.5-14.9,9.1-22.4,13.5c-5.8,3.4-8.6,8.9-11,16c-1.9,5.9-0.6,6.5,2.8,9c3.3,2.5,3.3,5.9,2.1,9.7c-1.4,4.2-4.5,3.5-7.7,3.3
				c-6.1-0.4-10.8-3.4-14-8.4c-2.5-3.9-4.1-8.2,2.7-12.5c-8.5-0.2-9.5-4.6-11.3-10.3c-1.5-4.8-4.2-8.8,0.1-12.6
				c4.5-4,9.6-7.5,14.8-10.3c8.9-4.9,15.9-11.6,22.4-19.2c2-2.3,4.9-1.4,7.5-0.4c5.2,2.1,10.8,2.2,16,3.3
				c12.4,2.4,12.8-9.7,19.5-13.7c1.1-0.6,0.2-2.2-1.2-2.3c-2.4-0.3-5.9-2-6.6,1.8c-0.4,1.9,0.1,3.5-2.4,3.3
				c-2.6-0.2-1.4-1.9-1.3-3.4c0.3-5.3-3.5-5.3-5.8-2.8c-4,4.3-9.4,4.6-14.3,6.4c-2.2,0.8-4.1,1.4-5.4,3.5c-0.7,1.1-1.4,3.5-3.3,1.5
				c-1.3-1.3-0.5-2.9,0.7-4.2c3.2-3.6,7.8-5.3,11.8-7.4c5-2.6,8.1-7.5,13.4-9.7c1.6-0.7,2.5-2.9,2.2-4.6c-0.4-1.8-2.6-1.4-4.1-1.5
				c-5.9-0.4-11.4,1.6-16.6,4.1c-5.1,2.5-8.1,0.9-7.2-4.6c0.8-4.5-0.6-8.8,0.5-13.3c1.2-5,4.4-8.4,8.8-8.8c7.1-0.7,13-4.8,19.8-5.9
				c2.6-0.4,5-1.2,4-5.3c-0.9-3.7,2.6-6.4,4.5-9.3c4.6-7.1,4.4-8.4-3.4-14.2c-4.8-3.5-7.2,1.4-10.5,3.4c-5.1,3.2-4.5,9.7-8.6,13.5
				c-2.2,2-4.8,3.8-5.2,7.4c-0.2,2.2-2.3,1.9-3.7,1.3c-1.5-0.7-1.7-2.1-0.6-3.3c7-8,11-18.1,18.4-25.8c5.1-5.3,9.4-11.1,9-18.8
				c-0.2-3.8,0.8-6.1,3.7-8.5c2.1-1.8,2.9-5,4-7.4c4.4-9.4,5.3-20.3,13.9-28.1c3.8-3.5,7.9-6.7,11.7-10.1c0.6-0.6,1.7-1.6,1.5-2
				c-2.6-7.6,5.9-7.5,8.4-11.7c1.9-3.2,13.6,1.5,14.3,6.2c0.5,3.3,2.2,3.5,3.8,2.6c3.4-1.8,6.2-4.6,10.3-5.6c2.3-0.6,0-2.7-1.2-3.1
				c-5.1-1.8-3.9-4.1-1.3-7.4c2-2.6,3.1-5.9,6-7.8c1.6-1,1.6-2.5,1.1-4.2c-2.1-6.9,0.3-13.8,6-17.7c5.3-3.6,15.2-3.4,20,0.2
				c1.9,1.4,3.9,2.9,6.3,3.7c5.7,1.9,10.5,10,8.2,15.5c-1.2,3.1-0.4,4.3,1.1,6.3c4.7,5.9,4.2,7.2-2.7,9.1c-4,1.1-7.5,1.4-11.6-0.2
				C334.6,230.3,329.4,231,326,237.6z M254.1,282.5c4,1.4,7.6,1.2,11-0.1c5.4-2,10.5-4.9,16.5-4.7c0.8,0,2.2-0.6,2.3-1.1
				c0.8-5.1,5.7-5,8.8-6c4.7-1.6,8-4.6,11.5-7.6c2.6-2.1,2-5.7,1.8-8.4c-0.1-2.1-3.4-1.4-5.3-1.5c-3.1-0.2-21.6,9.2-23.8,12
				c-4.9,6.2-10.6,11.2-18.7,12.9C256.3,278.4,254.8,279.8,254.1,282.5z M277.7,314c-4.2-2.3-8.6-4.3-5.6-8.1
				c3.7-4.7,0.1-4.4-2.5-5.1c-3-0.7-7,1.3-8.2-4.1c-0.3-1.4-4.5-0.8-6.8,0c-1.3,0.5-0.8,2.2-0.2,2.9c2.9,3.6,4.3,8.1,7,11.6
				C265.2,316.1,270.6,316,277.7,314z M295.8,341.3c-1.9-0.9-2.7-1.6-3.7-1.8c-4.7-1.1-10.2-0.3-11.9-7c-0.5-2-3.4-1.5-5.4-0.7
				c-1.3,0.5-2.4,0.8-2.4,2.6c0,4.2,8.9,11.5,13,9.9C288.5,343.1,291.7,342.6,295.8,341.3z M311.6,394.4c1.3-5.2,6.7-2.6,9.8-5
				c1.2-0.9,1.3-2.3,0.2-3.5c-2.2-2.4-4.7-4.6-8.1-3.4c-2.9,1.1-5.1,3.8-5.7,6.7C307.4,390.8,308.1,393.7,311.6,394.4z M254.7,388.6
				c-3.2-1.3-6-2.5-8.9-3.4c-1.6-0.5-4.2-1.1-5,0.4c-1,2,1.2,4.1,1.3,6.5c0.1,1.8,2.7,1.8,4.5,1
				C249.1,391.9,252.4,392.1,254.7,388.6z M255.4,373.6c-5.2-2.9-10.5-2-16.3-1.1C244.4,379.6,249.9,376.5,255.4,373.6z
				 M326.7,244.9c0.8-3.2-0.6-5-4.1-5c-2.3,0-4.2,1.2-3.8,3.6c0.4,2.7,2,4.9,5.4,4.8C326.7,248.3,327.5,247.4,326.7,244.9z
				 M314.4,328.5c1.4-0.9,4.5,0.6,4.4-2.3c-0.1-2.1-2.3-3.2-4.6-2.9c-1.9,0.3-5.1-0.8-4.8,2.9C309.7,329.4,312.6,327.4,314.4,328.5z
				 M320.7,279.2c-0.9-2.3-3-1.9-4.9-1.8c-1.7,0.1-4,0.2-3.2,2.8c0.4,1.2,0.4,4,3.1,2.6C317.5,281.9,320.3,282.3,320.7,279.2z"/>
			<path d="M612.1,351.6c-6.6-3.6-9.5,3.5-14.2,5.3c-0.3-0.8-0.6-1.2-0.5-1.5c3.1-9.8-0.7-14.1-10.9-11.7
				c-6.2,1.4-12.4,3.6-18.4,5.8c-4.1,1.5-6.1,4.2-1.7,7.8c4.2,3.4,6,8.5,8.7,12.7c2.9,4.5,5.3,6,10.4,3.6c0.1,2.8,1,5.1-1.4,7
				c-0.9,0.7-1.4,1.9-0.5,2.9c6,6.5,4.1,14.5,3.6,21.8c-0.3,3.8-4.1,8.3-6.9,9.9c-5.4,3.2-5.2,9.2-9.2,13.1
				c-5.7,5.6-12.1,10.8-16.1,18c-1.6,2.9-3.9,5.4-3.8,9c0,0.9-0.7,2.5-1.4,2.8c-4.2,1.4-5.1,3.4-3.9,8c1,3.8,2.1,6.4,5.6,8.2
				c5.4,2.7,9.6,5.9,10.7,13c0.6,3.9-0.7,3.9-2.7,3.9c-8.1,0-16.5,1.7-24.2-3c-2.8-1.7-6.2-2.8-9.5-3c-5.9-0.3-8.3-5.6-12.8-7.8
				c-0.4-0.2-0.9-1.4-0.7-1.7c4.2-5.8,3.9-13.2,8.8-19.6c6.3-8.1,15.5-16.5,13.8-28.9c-0.5-3.6,1.1-7.2,3-8.4
				c4.3-2.8,4.3-8.2,8.3-11c2.5-1.7,1.9-4.1-0.7-6c-5.1-3.7-20.2-3.1-22.1,2.4c-2.9,8.5-11.2,10.5-15.4,16.5
				c-2.8,4.1-6.1,6.3-9.9,8.6c-3.5,2.2-7.1,4-7.7,9.1c-0.3,2.3-3.2,4-6.1,4.5c-8.4,1.5-16,4.1-21.2,12c-1.7,2.7-6.1,3.5-8.9,5.6
				c-5.4,4.1-8.6,13.7-5.1,17.2c2.6,2.6,3.6,5.5,5.2,8.4c2.6,4.7-0.5,6.2-3.1,6.8c-5.4,1.3-11.1,0.8-16.2-1.8
				c-5.1-2.6-4.4-8.7-5.1-12.8c-1.2-7.1-5.7-11.8-8.9-17.3c-2.7-4.5-2.5-11.9,2.3-13.3c10.7-3.2,16.9-12.9,26.1-17.3
				c10.5-5,12.6-16.4,20.4-23.1c1.4-1.2,3-3.5,4.4-3.5c6-0.4,8.8-6.3,14-7.7c2.9-0.8,2.9-4.2,3-6.2c0.2-2.5-2.9-1.9-4.8-2.4
				c-6-1.4-9.9,2.9-14.6,5.1c-2.5,1.1-5.7,5.1-7.6,1c-1.3-2.7-5.4-8.5,2.9-9.7c-6.7-5.4-5.8-11.6,1.6-14.6c3.5-1.4,6.9-2.9,10.8-3.2
				c7.2-0.5,14.3-5.5,17.2-9.6c3.2-4.4,7.3-11.7,6.3-18.3c-0.4-2.7-5.3-5.1-8.5-7c-2.7-1.5-4.2,1-5.9,2.9
				c-5.5,6.2-10.3,13-14.6,20.1c-1.2,2-2.8,2.8-4.9,2.8c-1.2,0-2-0.9-2.2-2.1c-0.2-2.1,1.7-2.8,2.7-4.2c4.5-6.6,10.1-12.2,14.5-18.9
				c2.8-4.3,5.5-9.2,10-12.4c0.9-0.6,2.3-1.5,2.3-2.2c-0.7-13.3,7.9-23.6,11.3-35.6c2.6-9.4,7.6-17.8,17.1-22.3
				c1.2-0.6,2.9-1,2.8-2.6c-0.4-8.2,7-9.8,11.6-13.6c2.3-1.9,4.8-1.3,7.1,1.1c5.1,5.3,10.8,7.2,17.7,2.9c3.3-2.1,5-3.9,1.3-6.9
				c-3.4-2.8-3-5,0.9-6.9c3-1.5,5.4-3.4,4.6-7.4c-1-5.3,2.4-10.2,1.2-15.7c-0.5-2.2,2.1-3.3,3.6-4.4c6.5-4.9,23.4-4.2,29.6,1.3
				c3.2,2.8,7,7.4,7.2,10.1c0.5,5.6,1.7,11.4,1.2,17.1c-0.1,1-0.7,1.7-1.7,1.6c-5.4-0.3-4.8,2.5-2.9,5.7c1,1.7,1,2.9-0.7,3.9
				c-2.4,1.3-3.9,4.4-7.3,3.9c-0.5-0.1-1.2-0.8-1.5-1.3c-0.6-1.2,0.4-1.3,1.2-1.7c5.7-3,6-5.6-0.5-8c-1.2-0.4-2.1-1.7-3.3-2.1
				c-6-2.3-8.7-0.6-8.5,5.8c0.1,3.4,0.3,5.6-4.3,4.5c-1.9-0.4-6.6-2.2-4.7,3.5c-2.1,0.4-4.2,0.8-6.9,1.3c3.2,3.4,4.6,8.5,9.7,9.1
				c6,0.7,6.2,4.5,5.3,8.9c-1.4,6.6,0.9,12.8,2.8,18.7c1,3.1,0.8,3.7-1.7,4.7c-1.3,0.5-3.8-0.4-3.7,1.9c0.1,2.3,2.5,2,4.2,2.3
				c1.2,0.2,2.8-0.1,3.3,1.7c-7.8,1.8-8.6,3.1-7.2,11c0.6,3.2,1.9,5.7,5.8,3.7c1.9-0.9,3.5-1.3,4.1,1.3c1,4.4,5.1,6.3,7.6,9.3
				c2.1,2.5,5.1,3.1,8.5,1.7c7.7-3.3,16.2-2.4,24.2-4.5c0.7-0.2,1.6,0.4,4,1c-4.7,2.1-7.8,4.2-11.3,5c-5.7,1.2-7,7.7-12.6,9.3
				c-1.9,0.5,0.1,3.8,2.2,5c2.1,1.2,5.1,0.3,6.6,3.4c-5.7,4.9-10-5.2-15.2-1.8c-0.7,3.7,5.6,4.6,3,8.8L612.1,351.6z M512.5,290
				c3,1.6,4.9,1.1,7.2,0.4c11.8-3.6,22.4-10.5,34.3-13.7c6.6-1.8,7.7-7.2,11.1-11.1c1.5-1.7,1.2-4.6-1.2-5.6
				c-3.5-1.5-7.5-2.9-10.7,0.3c-2.7,2.6-5.7,3.9-9.1,5.3c-3.6,1.5-9.4,3.5-9.8,6c-1,6.8-5.8,8.1-10.5,10.3
				C519.9,283.8,516.4,286.6,512.5,290z M503.9,406.4c0.2-1.3-0.8-1.6-1.6-1.6c-2.7,0-5.9-1.2-7.4,2.6c-0.5,1.2-0.8,3-2.4,2.7
				c-1.9-0.3-2-2.2-1.8-3.7c0.2-1.5,0.9-3.2-1.5-3.5c-1.9-0.2-4.2-0.1-4.3,2c-0.3,4.9-3.7,4.6-7,5.1c-2.4,0.3-5,0.7-7,1.9
				c-1.9,1.1-5,2.1-4.5,5.1c0.4,2.5,3.1,1.9,4.9,2.5c1.2,0.4,2.9,0.8,3.5,1.7c2.4,3.6,4.8,3,7.9,1c1.2-0.8,3-0.8,4.5-0.9
				c2.8-0.3,16.2-11.6,16.7-14.2C503.8,406.8,503.9,406.6,503.9,406.4z M559.8,417.5c5.1,2.1,8.7-2.4,13.1-3.9
				c1.6-0.5,4.1-1.1,3.4-3.3c-0.6-2.2-3.5-2.8-5.1-1.8c-5,3.1-10.9,1.2-16,3.3c-1.6,0.6-3.9,0.1-4.9,1.5c-1.2,1.8-4.9,2.5-4,4.7
				c1,2.5,3.7,0.7,5.8,0.2C554.4,417.6,556.9,417.7,559.8,417.5z M511.1,306c4.2,4.6,8.6,6.8,9.9,11.6c0.2,0.9,1.5,1.7,2.4,2.1
				c2.5,1.1,4.9,1.2,7.5-0.7c3.8-2.8-1.7-2.8-1.1-4c3.8-8.3-2.8-5.7-6.4-6.2c-0.8-0.1-2.2-0.3-2.4-0.8
				C518.9,303.2,515.5,306.2,511.1,306z M544.2,350.9c1.2-0.2,3-0.2,4.7-0.7c1.8-0.5,4.4-0.2,4.4-3c0-2.4-2.3-2.2-4-2.6
				c-3.3-0.8-6.3-1.9-8.1-5.1c-1.5-2.7-4-2.4-6.4-2.1c-0.8,0.1-1.9,0.8-2.1,1.4C531.8,342.1,539.8,350.9,544.2,350.9z M580.2,398.9
				c1.4-0.6,5.1,2.2,4.6-2.4c-0.3-3.1-0.6-7.2-4.8-7.9c-4.5-0.8-12.3,4.4-11.5,7.9C570.4,404.7,576.2,396.7,580.2,398.9z
				 M560.4,377.6c0.8,2.7,7.6,0.2,5,6.2c-0.6,1.5,2.7,1.4,4.3,1.6c2.6,0.3,3.9-1.5,5.1-3.3c0.9-1.3,0.1-2.2-0.9-2.6
				C569.6,377.9,565.4,374.4,560.4,377.6z M516.2,381.5c-4.6-3.5-8.3-4-12.3-2.6c-1.3,0.4-2.5,1.1-2.4,2.8c0.2,1.4,1.5,1.3,2.5,1.7
				C508,384.8,511.3,383,516.2,381.5z M513.6,396.9c-2.5-2.2-4.8-3.8-7.6-4.4c-1.8-0.4-3.9-0.3-4.6,1.5c-0.7,1.9,1.1,2.7,2.8,3.7
				C507.4,399.3,510.3,399.7,513.6,396.9z M578.3,287.7c-0.4-2.5-0.6-5-2.8-4.2c-1.6,0.6-2.9,3-3.4,4.9c-0.6,1.9,1.2,2.7,2.9,2.5
				C577.1,290.6,578.7,289.6,578.3,287.7z M574.5,280.3c3.3,0.5,4.2-1.3,4.5-3c0.3-2-1.5-2.5-3.1-2.6c-2.4-0.1-3.8,2.1-4.1,3.7
				C571.5,279.8,573.9,280.2,574.5,280.3z M550.5,357.8c4.9,2.6,8.7,1.7,12.5,0.4C559.3,356.4,555.5,356,550.5,357.8z"/>
			<path d="M611.9,351.8c3.8,0.1,6.9-3.6,11.6-0.4c4.9,3.2,5.2,7.4,5.7,11.9c0.3,2.7-4.9,4.1-8.1,2.3c-5.3-3.1-8.2-7.9-9.1-13.9
				C612.1,351.6,611.9,351.8,611.9,351.8z"/>
			<path d="M600.5,255c0,0.5,0,0.8-0.1,0.9c-3.5,2.9-8.3,2.3-12.2,4.2c-2.9,1.4-3.8-1.6-4.8-3.3c-2.2-3.8,2.3-4.6,3.5-6.9
				c1.2-2.4,3.3-1.6,5.1-0.4C594.9,251.3,598.9,251.6,600.5,255z"/>
			<path d="M347.3,238.5c-2.2,1.4-1.5,5.4-4.6,6.2c-0.9,0.2-2.7-1.3-1.8-2.7c1.3-2.1,1.4-5.4,4.7-5.9
				C346.8,235.9,347.7,236.6,347.3,238.5z"/>
		</g>
		<g>
			<rect x="100" y="500" fill="none" width="600" height="200"/>
			<path d="M154.6,657.7v-2c0-24.7,11.1-44.9,41.9-67.3c20.1-14.7,26.1-19.7,26.1-32.1c0-12.3-6-19.2-17.9-19.2
				c-13.9,0-18.9,8.5-20.9,20.9h-29.8c2-24.5,18.1-45,50.7-45c36.5,0,49,21.7,49,43c0,20.7-8.9,30.7-35.1,49.1
				c-17.5,12.3-24.6,20.4-27,26.8h67.3l-3.8,25.8H154.6z"/>
			<path d="M332.7,588.6v26.9h-60.1v-26.9H332.7z"/>
			<path d="M418,657.7v-31.9h-64.3v-26.9l59.3-83.2h33.7v85.2h17.1l-2.8,25h-14.3v31.9H418z M418,575.4c0-15.4,0-24,0.6-32.9
				c-5.6,11.9-24.2,39-37.5,58.2H418V575.4z"/>
			<path d="M543.5,588.6v26.9h-60.1v-26.9H543.5z"/>
			<path d="M650.1,515.5v22.9c-22.5,31.9-44.6,78-50.1,119.2h-31.8c5.6-41.8,31.1-91.9,50.4-116.7h-66.9v-25.4H650.1z"/>
		</g>
	</g>
</g>
<g id="text">
</g>
<g id="guides" display="none">
</g>
<g id="scratch">
</g>
</svg>
