<?xml version="1.0" encoding="utf-8"?>
<!-- Generator: Adobe Illustrator 26.0.2, SVG Export Plug-In . SVG Version: 6.00 Build 0)  -->
<svg version="1.2" baseProfile="tiny" xmlns="http://www.w3.org/2000/svg" xmlns:xlink="http://www.w3.org/1999/xlink" x="0px"
	 y="0px" viewBox="0 0 1000 1000" overflow="visible" xml:space="preserve">
<g id="bg">
</g>
<g id="counters">
	<g id="mkr_x5F_ruin">
		<path d="M242.6,330.9c-0.8-2.5-0.7-4.8,1.4-6.9c3.7-3.7,1.2-9.2-3.7-11.1c-4-1.5-8.3-2.7-11.6-5.8c-1.4-1.3-3.1-1-4.6-1.1
			c-8.1-0.5-14.9-5.5-22.8-6.4c-2.4-0.3-3.4-1.3-4-3.6c-1.5-5.5-1-6.3,4.2-8.9c6-2.9,11.6-2.5,18-0.7c4.5,1.3,8.7,3.1,12.5,5.2
			c7.2,4,14.4,7.4,22.6,8.6c3.5,0.5,6.7,2.7,10.2,3.7c4.6,1.4,6.1,0.5,7.3-4.1c0.9-3.5-0.9-6.8-4.6-7.5c-5-1-7.9-5-11.7-7.8
			c-0.8-0.6-1.3-1.5-2.5-1.2c-1,0.3-2.4,2-2.9-0.3c-0.4-1.7-0.4-4,1.7-4.4c2.1-0.4,3.4-1.4,4.6-2.9c1.1-1.3,2.4-1.1,3.7-0.5
			c3,1.3,5.9,2.2,9.3,1.9c2.7-0.2,5.9,1.2,8.4,2.7c4.4,2.7,10.2,1.9,14.1,5.7c0.7,0.7,1.7,0.2,2.2-0.7c0.8-1.3,2-2.7,0.7-4.1
			c-4.3-4.8-5.8-12-13.1-14.3c-2.3-0.7-1.7-3,0.1-4.1c3.2-1.9,3.8-4.1,2-7.4c-1.1-2.1-0.1-3.6,2.4-2.6c2.3,0.9,4,0.6,5.9-0.8
			c1-0.8,2.7-1.4,3.9-1.1c4.2,1.2,7.9-2.2,12-1.3c0.6,0.1,1.4-0.4,2-0.8c3.4-2.5,7-2.5,10.6-1c3.2,1.3,6.3,0.2,9.1-0.6
			c2.5-0.7,2.5-3.4,2.1-5.8c-0.9-5.8-0.8-5.5,5.2-5.5c3.6,0,7,1.8,10.6,0.8c5.8-1.6,12.4-1.4,15.7-8.4c1.5-3.2,5.6-4.5,9.1-5.2
			c4.7-1,9.6-1.3,14.5-1.8c2.7-0.3,4.3-1.3,3.8-4.3c-0.3-1.5-1.5-2.6-3-1.6c-5,3.4-11,1.6-16.3,3.2c-0.6,0.2-1.2,0.1-1.8,0.2
			c-1,0.1-2.1,2.4-2.9,0.3c-0.6-1.5,0.3-3.9,1.9-4c4.7-0.2,6.4-5.1,10.5-6.1c0.5-0.1,1.1-0.8,1.2-1.3c0.6-4.4,3.7-4.3,7-4.3
			c5.1,0.1,10.3,0,15.4,0c1.2,0,2.7-0.2,3,1.4c0.3,1.4-1.1,1.7-2,2.3c-2,1.5-4,2.2-6.6,1.6c-2.1-0.5-4.2,0.3-5.1,2.2
			c-0.9,1.8,0.5,3.2,1.8,4.5c2.5,2.5,3.3,5.7,3.6,9.2c0.3,4.3,0.7,4,4.9,3.3c5.7-1,11.5-1.7,17.3-2.6c3.1-0.5,6.4,0.1,8.9-2.5
			c0.8-0.9,1.7-0.6,2.7,0.1c3.4,2.3,6.7,4.6,9.5,7.6c1.8,2,4,2.4,6.5,1.4c1-0.4,1.9-1.4,1.4-2.3c-1.2-2.1-3.1-4.3-5.4-4.1
			c-4.5,0.3-6.7-3.5-10.3-4.9c-2-0.8-0.6-2.6,0.9-3.2c2.3-1,4.5-1.8,3.7-5c-0.2-0.7,0.4-1.3,1.1-1c0.9,0.3,1.7,1.2,1.4,2
			c-1.3,3.7,0,5.3,3.6,6.5c2.5,0.9,4,3.9,7.5,3.4c1.7-0.2,3.7,0.7,5.2,1.6c4.5,2.9,9.1,2.2,13.7,1c2.4-0.6,4.4-0.9,5.9,1.6
			c0.6,1,2,0.9,2.9,1.3c6.1,3.1,12.3,6.1,18.6,8.7c1.6,0.6,1,2.7,1,4.1c0,1.7,0.2,3.4,2.3,3.7c2.1,0.3,1.8-1.6,2.2-2.8
			c0.3-0.8,0.6-2,1.2-2.2c3.2-1.1,3.7-3.3,2.9-6.2c-0.2-0.8,0-1.6,0.9-1.7c0.8-0.1,1.6,0.3,1.8,1c0.4,1,0.5,2.2,0.6,3.3
			c0.2,1.3,0.6,2.6,2.3,2.3c1.5-0.3,2.1-1.5,2-3.1c-0.1-1.1-1.4-1.9-0.5-3.4c1.8,0.9,2.9,2.1,2.9,4.2c0.1,4.2,2.5,6.7,6.5,6.2
			c3.2-0.4,4.6,0.9,5.5,3.6c2,6,5.3,8.1,12,7.7c1-0.1,1.7,0.2,2.2,1c2.4,4,6.4,4.6,10.5,5.3c4.5,0.8,9.2,1.2,12.7,4.7
			c1.5,1.5,3.7,1.8,5.5,2c8.2,0.9,14.9,5.8,22.6,8c0.7,0.2,1.5,0.8,2.1,0.6c4.7-1.4,8,0.4,10.9,4.1c1.7,2.1,4.3,3.2,7.3,3.2
			c3.6,0,5.6,3.4,8.9,4.6c2.7,0.9,5.3,1.8,8.1,2.5c6.4,1.7,12.6,3.9,19.2,5.4c7.9,1.8,12.5,7.2,13.6,15.4c1.5,11,4,21.8,6.3,32.7
			c1.5,7.1,3.9,13.9,4.4,21.2c0,0.6,0.2,1.3,0.6,1.7c4,3.9,4.1,9.2,4.3,14c0.2,5.6,2.1,10.2,4,15.2c2.1,5.6,3.1,11.5,4.6,17.3
			c0.6,2.3,1,4.6,1.5,7c0.2,0.8,0.3,1.7,1.1,1.8c3.5,0.4,3.3,3.3,3.8,5.6c1.3,6.3,4.3,12.2,5.3,18.6c0.3,2.2,2.2,4,3.8,5.5
			c2.6,2.4,4.4,1.6,6.3-1.4c6.7-10.3,6.8-22.2,8.2-33.8c0.7-5.4,4.6-8.6,7.8-12.3c0.3-0.4,0.9-0.6,1.3-0.2c0.6,0.5,0.5,1.2,0.2,1.7
			c-2.6,5.1-1.7,10.4-1.1,15.8c0.6,5.3-1.1,10.5-2.8,15.4c-3.2,9.5-4.6,19.2-5.3,29.1c-0.2,3.1,0.6,5.6,3.8,7
			c2.8,1.2,4.2,4.1,6.7,5.9c2.6,1.8,5.3,2.7,8.2,3.5c3.4,0.9,5.3-0.8,5-4.4c-0.3-3.5-2.4-6-5-8c-3.2-2.3-5-5.1-4.8-9.2
			c0.1-2.2,0.8-3.7,3.2-3.6c2.6,0,3.6-1.5,4.4-3.7c0.8-2.2,2-4.3,3.3-6.3c3.5-5.1,1.1-10.4-5.2-10.9c-2.2-0.2-4.3,0-3.8-3
			c0.5-3.3,3.1-2.8,5.3-2.2c5.1,1.3,5,1.4,4-3.9c-0.5-2.4-0.6-5-3-6.6c-0.5-0.4-0.9-1.2-0.4-1.6c1.9-1.9,2.1-4.1,1.7-6.6
			c-0.1-0.3,0.4-0.9,0.8-1.1c0.7-0.3,1.3,0.1,1.5,0.7c0.4,1.3,1,2.7,0.8,4c-0.7,4.2,0.8,8.1,1.2,12.2c0.5,4.2,4.5,6.3,7.9,3.8
			c2.8-2.1,6.7-2.9,8-6.9c0.5-1.7,2.2-1.3,3.6-0.8c2.1,0.7,3.9,0.9,5.1-1.4c0.5-0.9,1.4-1.5,2.5-0.9c1.1,0.6,2,1.6,2.2,2.9
			c0.2,1.2-0.6,2.1-1.5,2.4c-2.4,0.7-3.8,1.7-3.6,4.6c0.1,1.3-1.5,2.2-2.8,2.6c-4.4,1.5-4.4,1.5-2.6,6.1c0.1,0.3,0,0.7-0.1,2.1
			c-2.8-3.6-5.5-2-8.4-1.1c-2.8,0.9-5-0.7-6.4-3.3c-0.4-0.8-0.4-2.3-1.8-1.8c-1.3,0.5-2.1,1.9-1.5,3.1c1.4,3.1,0.3,5.4-1.3,8
			c-1.7,2.8-0.3,5.7,1.3,8.1c1.9,3.1,2.6,5.7-0.4,8.7c-1.9,1.9-1.1,4.7-0.1,7.1c2,4.6,3.9,9.2,4.6,14.2c0.1,0.7,0.2,1.7,0.7,2
			c4.9,3.1,5.3,8.5,6.4,13.4c1.2,5.2,5.2,7.8,8.7,10.7c2.6,2.2,4.6,1,5.2-2.5c0.8-4.5,1.1-8.9-0.2-13.4c-0.8-2.9-1.4-5.8-1.4-8.9
			c0-1.8-0.3-3.9-2.5-4c-2.6-0.1-2.2,2.5-2.3,4c-0.2,3.1,1.2,6.1,1.9,9.1c0.3,1.2,0.8,2.4,1,3.6c0.4,2,0.6,4.6-1.3,5.4
			c-1.5,0.7-2.1-2-3-3.2c-1.6-2.1-2.5-4.4-2.9-7.2c-0.5-3.3-2.4-6.4-4.4-9.1c-2.9-3.8-4-8.2-3.5-13c0.1-0.6,0.4-1.4,1.2-1.2
			c1.8,0.5,2.7,2.4,5.2,2.2c2.6-0.1,1.3,2.9,1.7,4.5c0.3,1.3,0.6,2.7,0.9,4c0.2,0.9,0,2.3,1.5,2.1c1.2-0.2,1.2-1.4,1.3-2.4
			c0.3-2.1,0.6-4.2,1.6-6.1c0.5-1,0.5-1.9-0.4-2.7c-2.1-2.1-2.5-4.8-2.8-7.5c-0.1-1.1,0.1-2.5-0.5-3.3c-3-4.3-3-8.4,0-12.8
			c0.9-1.3,1.2-2.3,3.2-2.2c3.4,0.1,3-3.3,3.4-5.1c0.7-2.8,2.4-4.8,4.1-7c0.6-0.8,1.7-1.8,2.9-1c1.2,0.8,1.4,2.4,0.7,3.3
			c-3.1,4.1,1,6.9,1.7,10.3c0.2,0.9,1.1,1.4,2.1,1.3c1.5-0.2,3-0.5,2.4,1.8c-0.4,1.5-0.8,3.6-3,2.8c-1.9-0.6-2.8-0.1-3.4,1.6
			c-0.2,0.6-0.6,1.3-1.3,1c-0.8-0.4-0.7-1.3-0.4-2c0.7-1.6,1.5-3.1,1-5c-0.4-1.8-0.9-3.9-3.1-3.5c-2.2,0.4-4.7,2.4-4,4.6
			c1.1,3.6,0.9,7.4,2.4,10.9c0.6,1.4,1.1,3,2.9,3.1c2.1,0.2,2.3-1.6,2.7-3c0.5-1.5,1.3-2.2,3-2.2c3.3,0.1,5.4-1.3,6.6-4.7
			c2.3-6.4,5.9-12.3,9.9-17.9c0.7-1,1.7-2.3,3-1.3c1.2,0.8,0.2,2,0,3.1c-0.4,1.3-3.6,2.6-0.2,4.1c0.1,0,0,0.7-0.2,1
			c-4.2,6.4-5.7,13.5-6,21c-0.2,4-3,7.3-5,10.6c-3.5,5.8-3.7,13.8,0.2,19.3c1.8,2.5,1.3,5.3,0.7,7.9c-0.6,2.5-0.9,4.8,1.1,7
			c1.6,1.8,0.8,4.3,0.9,6.5c0.1,2.5-0.1,5,0.1,7.5c0.2,2.7,2.2,3.7,4,1.8c2.6-2.7,5.5-5,7.4-8.6c2.9-5.6,6.5-10.8,8.4-17
			c0.5-1.5,1.9-2.1,3.4-1.5c1.7,0.6,1.4,2.1,1,3.5c-0.7,2.9-3.1,4.8-4.4,7.4c-2.5,5-3.5,10.7-7.5,15c-1.1,1.2-1.5,3.2-1.7,4.9
			c-0.6,3.5-2.5,6.2-5.1,8.5c-2.1,1.9-3.6,9.5-2.4,11.9c0.4,0.9,1.2,1.2,1.7,0.5c2.1-2.4,5.3-3.3,7.2-6.3c2.4-3.8,6.1-6.9,9.3-10.2
			c1.1-1.1,1.9-2,0.3-3.3c-0.7-0.6-1.9-1.4-0.6-2.3c0.9-0.6,2.4-0.2,3,0.8c1,1.7,1.9,3.6,2.3,5.5c1,5.3,7.3,6.6,11.5,2.9
			c1.5-1.3,1.4-3.2-0.6-4.4c-0.9-0.6-2.4-1-1.2-2.4c1-1.2,2.3-0.7,3.3,0.2c3.3,2.7,4.3,9,2,12.4c-0.4,0.6-0.8,1.6-1.7,0.9
			c-3.8-2.9-7.9-1.7-11.6-0.2c-3.3,1.4-6.2,1.4-9.7-0.8c0.2,6.2-5.1,8.9-7.6,13.4c-0.5,0.9-1.4,1.3-2.4,1.6c-3.9,1.1-8.9,7.2-9.2,11
			c-0.2,1.8,0.6,3.2,2.2,4c2.5,1.3,4.8,3.1,7.9,3.2c2.6,0.1,3.7,2,3.3,4.5c-0.4,2.2-1.8,2.9-4.1,2.6c-5.4-0.7-9.2,3-10.2,8.4
			c-1.2,5.9,1.4,11.7,0.1,17.4c-1.4,6.2-1.3,12.3-0.9,18.6c0.4,5.8-0.8,11.7-1.3,17.5c-0.6,8.2-1.2,16.8,5,23.7
			c1.4,1.6,2.5,3.4,3.7,5.2c0.7,1,1.5,1.5,2.7,1.8c1.5,0.4,3.6-1.2,4.5,1.3c1,2.9,1.8,5.8,0,8.6c-0.3,0.4-0.6,0.8-0.9,1.2
			c-0.3,0.6-0.4,1.2,0.2,1.7c0.6,0.4,1.1,0.2,1.7,0c7.3-2.1,11.5-7.8,15.9-13.4c0.7-0.9,1.4-1.7,2.1-2.7c1.6-2.5,3.1-3.1,4.6,0.1
			c0.6,1.3,2.6,2,1.8,3.8c-0.9,2-2.6,0.6-4,0.7c-1.5,0.1-2.3,1.4-3.1,2.4c-2.6,3.5-3.5,8.2-7.9,10.6c-1.7,0.9-1.5,9.7-0.4,11.2
			c0.8,1,1.6,0.4,2.3,0c2.4-1.4,3.9-0.3,3.8,2c-0.4,6.6,2.5,11.8,6.6,16.6c0.4,0.5,0.7,1.1,0.8,1.7c0.3,6.2,5,8.7,9.5,11.5
			c3.4,2.1,4.1,5.6,1.5,8.4c-1.7,1.8-2.8,4.1-4.3,6.1c-1.8,2.5,0.8,4.9,2.7,6.1c4.9,3.1,4.6,8,4.8,12.6c0.2,3-4.7,6.4-8,5.9
			c-2.8-0.4-4.6,0.4-5.7,2.9c-0.3,0.7-0.6,1.6-1.6,1.2c-0.9-0.3-0.8-1.2-0.5-1.9c0.7-1.7,0.2-3-1.7-2.5c-3.1,0.9-5.9,0.1-8.9-0.1
			c-1.2-0.1-2.6-0.2-3.7,0.3c-2.4,1.1-4.2,0.9-5.9-1.3c-0.5-0.7-1.8-1.2-2.6-1.1c-5,0.5-7.1-2.9-9-6.4c-1.7-3-3.8-4.6-7.3-3.6
			c-2,0.5-4-0.7-5.9-0.5c-5.6,0.7-11.3,0.9-16.5,3.8c-4.5,2.5-9.4,2.6-14.4,0.8c-4.3-1.6-8.7-3-13.2-3.9c-2.2-0.5-4.7,0.7-6,2.6
			c-1.2,1.8,0.5,3.2,1.8,4.5c0.6,0.6,1.2,1.3,1.7,2c0.5,0.8,0.6,1.8-0.4,2.3c-1,0.6-1.6-0.2-2-1.1c-0.9-2.3-2.9-4-3.5-6.6
			c-0.6-2.6-2.9-2.7-4.7-0.5c-1.2,1.5-2.4,2.8-3.7,4.2c-0.9,1-2.2,1.8-3.3,0.9c-2.7-2.2-6.6-2.1-9.2-4.5c-1.3-1.1-3-2.1-4.8-1.2
			c-1.7,0.8-1.8,2.6-1.7,4.3c0.2,5.4-3.2,5.6-8.2,6.8c-1.6,0.4-3.4,0.1-5.2,0.6c-1.4,0.4-2.4-0.4-2.8-1.8c-0.4-1.2,0.2-2.2,1.3-2.8
			c1.5-0.8,3.1-1.7,4.6-2.6c1.7-1,2.3-2.6,1.8-4.5c-0.5-2-1.9-2.6-3.9-2.8c-8.7-1.1-17.4-0.6-26.1,0.1c-5.3,0.4-9.6,3.4-14,5.9
			c-2.4,1.4-3.7,1-4.7-1.3c-1.5-3.4-3.8-4.4-7.7-4.2c-7.3,0.5-14.6,0.2-21.6-2.8c-1.9-0.8-2.7-3.2-5.3-3.1c-3.2,0.1-5.6,0.9-6.8,4.1
			c-0.6,1.7-1.5,3.3-3.6,3.4c-4.8,0.4-7.3,4.1-10.4,6.9c-1.8,1.6-3.6,3-6,2.2c-4.8-1.8-10.1-1.9-14.5-4.8c-0.7-0.5-1.8-1.3-2.3-0.6
			c-1.8,2.6-4.6,1.3-6.8,2.1c-8.3,3.1-16.7,1.8-25,0.5c-6.2-1-11.2,0.4-14.1,5.7c-1.5,2.8-3.6,2.3-5.7,2c-2.4-0.4-3.5-2.2-3.6-4.6
			c0-1,0.3-2,0.5-3c0.1-0.9,0-1.8-0.9-2.2c-0.7-0.4-1.7-0.3-2.1,0.3c-3,3.9-6.9,2.5-10.7,2c-3-0.3-5.4,0.7-7.3,3
			c-2.7,3.3-5.9,4.3-9.9,2.6c-4.5-1.9-8.6-4.7-13.7-4.9c-0.7,0-1.4-1-2-1.5c-1.9-1.6-3.8-1.6-5.8-0.1c-6.7,5.1-14,4.4-21.3,1.7
			c-2.6-1-5-1.5-7.6-0.5c-5,2-10.8,2.2-15,6.2c-1,0.9-2.6,0.7-3.4-0.4c-2.3-2.8-5.7-3.5-8.8-4.6c-3.5-1.2-6.1-3.8-8.9-6.1
			c-0.9-0.7-1.6-1.6-2.4-2.3c-4.9-4.5-7-4.2-8.3,2.1c-1.1,5.3-4.8,7.3-9,9c-2.6,1-4.8,2.1-6.3,4.8c-1.9,3.4-7.4,4.1-10.3,1.6
			c-2.1-1.9-3.8-2.3-6,0.1c-2.8,3.2-7,2.5-10.5,2.3c-2.2-0.1-4.4-1.2-6.9-1.2c-1.9,0-2.7-1.7-2.7-3.5c0-1.9,0.5-3.7,2.7-3.9
			c4.8-0.5,9.5-1.7,14.3-2.6c2.1-0.4,4.2-0.9,3.9-3.6c-0.4-2.9-2.8-2.6-4.7-2.1c-3.4,0.7-5.4-0.8-6.2-3.8c-1-3.4,0.8-7.4,3.6-8.4
			c2-0.7,3.8-1.6,6.1-1.2c2.5,0.4,4.4-1.4,4.6-3.9c0.2-2.7-2-3-4.1-3.2c-6.3-0.4-12,1.5-17.5,4.2c-1.9,0.9-1.8,2.8-1.9,4.6
			c-0.3,9.4-0.3,9.4-9.7,10.1c-3,0.2-6,0.7-8.9-0.3c-1.1-0.4-2.2-0.9-2.1-2.3c0.1-1.3,1.3-1.4,2.3-1.5c0.1,0,0.3,0,0.4-0.1
			c1.8-1,5.2-0.5,5-3.5c-0.2-3-3.2-3.7-5.6-4.1c-3.3-0.5-6.6-2.2-10.1,0.1c-2.9,2-3.5,5.2-0.7,7.3c3.2,2.4,5.9,5.4,9.6,7.2
			c4.2,2.1,4.8,6.8,7.6,10c4.3,4.9,3.1,6.7-3,9c-7.7,2.9-15.9,3.2-23.7,4.6c-6.7,1.2-14.5,0.1-21-4.2c-1.2-0.8-2.6-1.4-4-2
			c-4.4-1.8-6.3-5.2-4.3-9.5c2.5-5.4,4.4-11.1,6.7-16.6c1.3-3.2,7.3-4.7,10.3-2.6c0.9,0.6,1.5,1.9,2.9,1c0.7-0.4,0.9-1.2,1-1.9
			c0.1-1.6-1.1-2-2.3-2.5c-5.4-2.4-11-3.6-16.9-2.1c-0.5,0.1-1.2,0.1-1.4,0.4c-3,4.7-9.2,4-12.9,7.8c-1.9,1.9-4,0.9-3.8-1.9
			c0.3-3.9-1.1-5.7-4.9-6.5c-2-0.4-4.1-1.5-5.7-2.8c-6.5-5.4-13.2-2.2-19.8-0.5c-1.2,0.3-2.3,0.9-3.5,1.2c-1.4,0.4-2.9,0.3-3.3-1.5
			c-0.4-1.5,0.5-2.6,1.9-3.3c0.2-0.1,0.5-0.2,0.7-0.2c2-0.8,4.9,0.1,5.8-2.7c0.9-3-0.5-5.9-1.1-8.8c-0.3-1.5-1.7-1.7-3-1.6
			c-5.5,0.4-11.1-0.9-16.6-0.1c-2.5,0.3-4.6,0.9-6,3.1c-1.3,2-3.2,3.4-5.5,3.5c-4,0.3-7.7,1.7-11.8,1.9c-9,0.4-12.5-3.7-9.8-12.4
			c0.7-2.1,1.1-4.1,1-6.2c-0.1-2.1-0.2-4.2,2.1-5.6c0.6-0.4,0.9-1.5,1.1-2.3c0.4-2.8,1.2-4.8,4.7-4.1c1.4,0.3,2.5-1.1,3-2.4
			c0.5-1.4-0.1-2.4-1.2-3.2c-1.7-1.4-2.7-3.1-0.3-4.5c7-4,11.7-10.1,15.1-17.1c2.3-4.7,6.7-6.4,10.4-9.2c1.1-0.9,2.4,0,3.5,0.5
			c1.1,0.6,2.3,1.2,3.4,0c1.1-1.1,1.1-2.5,0.5-3.8c-1.4-2.9-1.7-4.6,2.7-4.2c3.6,0.4,6.5-2.5,6.7-6.7c0.4-7,2.4-13.8,3.3-20.7
			c0.2-1.8,1-3.4,2.7-4.3c4.6-2.3,6.2-6,6.2-10.9c-0.1-10.9-0.5-21.8,0.1-32.6c0.7-12-0.8-24,0.9-35.8c0.9-6.7,0.7-13.1-0.2-19.6
			c-0.5-3.3,0.1-6.7,0.3-10.1c0.4-7.5-0.2-14.9-0.9-22.4c-0.3-2.6-0.9-4.7-5-4c-7.1,1.1-9.9-1.6-10.3-8.6c-0.1-2.1-1.2-3.8-1.8-5.7
			c-1.5-4.7,0-7.7,4.8-9.1c-2,3.9-2.3,7.9,0.3,11.6c0.7,1,2.1,2.5,2.8,1c1.5-3.3,4.5-4.8,7-6.9c2.3-2,2.2-4.7,0.6-7.1
			c-1.7-2.6-3.6-0.6-5.1,0.3c-1.8,1.1-3.7,1.3-5.7,1.2c0.5-4,2.9-7.1,5.6-9.5c6.1-5.6,11.7-11.5,17-17.8c0.5-0.7,1.6-1.2,1-2.2
			c-0.7-1.2-1.7-0.1-2.6-0.1c-5.2,0-9,4.3-14.2,4.6c-2.4,0.1-5,1.9-6.8,3.6c-2.3,2.1-4.7,2.6-7.5,2.8c-1.7,0.1-3.4,0.3-5.2,0.7
			c-2.4,0.7-4.5,0.1-5.4-2.6c-0.4-1.3-1.1-2.8,0.2-3.8c1.1-0.9,2,0.5,2.9,1c2,1.1,4.1,1,5.5-0.7c1.6-1.9,3.1-4.2,2.4-6.7
			c-0.5-1.8-2.4-2.6-4.3-1.8c-1.8,0.8-3.7,1.5-5.1,3.1c-1.9,2.2-3.2,1.3-3.9-1.1c-0.7-2.8,0-5.3,3-5.9c3.9-0.8,7.6-2.1,11.6-2.4
			c2.7-0.2,6.4-1.1,8.5-4c0.9-1.2,2.1-1.9,3.5-2c8.4-0.3,14.8-5.9,22.1-9c1.8-0.8,3.2-2.5,2-4.5c-1.2-2-2.9-3.3-5.6-2.5
			c-8.3,2.5-17,3.8-25.3,6.4c-2.8,0.9-6.1,0.6-9.1,0.7c-1,0-2.1-0.2-2.9,0.5c-2.8,2.2-4.9,1.1-6.7-1.2c-1.8-2.3-3.9-4.6-1.7-8
			c2.1-3.3,3.2-6.8,0-10.2c-0.6-0.6-0.8-1.5-1.2-2.3c-0.5-1-1.4-1.9-0.7-3.1c0.2-0.3,0.9-0.7,1.2-0.6c1.5,0.4,1.6,1.7,1.9,2.9
			c0.4,1.2,1,2.3,1.3,3.5c1,3.2,2.3,3.9,5.8,2.4c8-3.4,16.3-6,25.1-6.1c1.6,0,3.3-0.2,4.8-0.6c2.3-0.6,2.8-2.4,2-4.4
			c-0.8-2.1-2.3-2.3-4.3-1.4c-5.4,2.6-11.2,2.7-17,2.8c-0.6,0-1.3-0.4-1.8-0.2c-5.1,2.2-5.6-2.2-7.8-4.9c-4.5-5.5-2.3-10.6-0.7-16.2
			c0.8-2.7,2-4.6,4.5-5.9c2.5-1.4,4.1-0.6,5,1.8c0.7,2,1.5,4,3,5.5c1.1,1.1,2.3,1.3,3.8,0.7c1.3-0.6,2.3-1.3,2.3-3
			c0.2-5.1,2.3-7.1,7.5-7.3c2.7-0.1,5.5-0.2,8.2-0.2c2.8,0,4.4-1,3.5-4.1c-0.4-1.4-0.3-2.7,0.6-3.9c0.9-1.4,2.1-2,3.4-0.7
			c1.6,1.7,3.4,1.9,5.5,1.3c4.6-1.4,8,2.1,12.1,3.1c0.9,0.2,1,1,0.7,1.8c-0.5,1-1.4,1.8-2.4,0.9c-4.5-3.9-10-1.5-14.9-2.5
			c-1.6-0.3-2.5,1.2-2.5,2.7c-0.1,1.6,1.3,1.6,2.4,1.5c6.2-0.7,12.3,0.4,18.5,0.9c1.6,0.1,2.5-0.2,2.4-1.9c0-1.2-0.1-2.3,1.2-2.8
			c0.7-0.3,1.5-0.7,2.1,0c0.5,0.5,0.2,1.2-0.1,1.7c-0.5,1-1.4,2-0.1,3c1.1,0.8,2.3,1,3.5,0.2c1.4-0.9,2.7-1,4.3-0.6
			c1.3,0.3,2.6,0.2,3.1-1.3c0.5-1.4-0.4-2.4-1.4-3.1c-0.9-0.6-1.8-1.7-2.8-1.8c-6.4-0.6-12.2-3.5-18.4-4.7c-2.5-0.5-5-0.9-7.8-0.2
			c-3.5,0.9-5.8-1.7-7.8-4.1c-1.1-1.3-2-2.5-4-1.8c-0.5,0.2-1.4,0.2-1.8-0.1c-5.5-3.9-12.2-4-18.3-5.9c-3-0.9-4-3.2-4.1-6
			c-0.1-3,1.9-5.4,3-7.9c0.9-1.9,4.2-0.4,6.2,0.1c1.9,0.6,1.7,2.6,1.3,4.2c-0.4,1.7-1.7,1.5-3,1.4c-1.2,0-2.4,0.1-2.5,1.6
			c-0.1,1.2,1.1,1.5,2,1.9c4.7,2.2,10,3,14.6,5.5c1.2,0.7,3.2,1.5,3.8-0.5c0.5-1.6-1.1-2.3-2.5-2.6c-1.3-0.2-2.4-0.7-3.2-1.8
			c-1.6-2.1-0.8-3.9,1.7-4.2C238.8,330.7,240.7,330.8,242.6,330.9c2.5,4.3,7.5,5,11.1,7.8c0.7,0.6,1.7,0,2.3-0.8
			c1.1-1.5,2.7-2.8,1.8-4.9c-0.8-1.9-2.3-2.7-4.3-3C249.7,329.5,246.3,331.9,242.6,330.9z M473.2,593.9c-1.7-0.2-2.5-0.2-2.6-0.3
			c-0.8-4.4-5.5-5.3-7.7-8.5c-0.5-0.7-0.5-1.9-0.6-2.9c-0.1-1.2-0.1-2.5-0.1-3.7c0.3-5.8-3.8-8.8-8-11c-2.4-1.2-3.7-2.3-4.2-5
			c-0.7-3.5-1.2-7.4-5.4-8.7c-3.2-1-4.1-3.3-4-6.3c0-1.1,0-2.3-0.2-3.4c-0.8-4-7.6-8.4-11-7c-3.3,1.4-6.5,0.3-9.5-1
			c-1.5-0.7-2.5-2.3-1.9-4.1c0.9-2.4,2.5-0.7,3.8-0.3c2.1,0.7,4.2,0.6,4.1-2c-0.3-3.9-0.7-8.1-3.3-11.3c-1.4-1.7-1.6-3.3-1.2-5.2
			c1-4.7,0.2-5.6-4.6-5.7c-3-0.1-6,0-7.7-3.3c-0.9-1.7-2.7-2.3-4.8-2.2c-3.5,0.1-6.7-1.4-8.5-4.5c-1.3-2.2-2.6-3.5-5.3-3
			c-3,0.6-3.3,3-3.4,5.1c-0.2,4-0.6,7.1-5.9,5.6c-0.9-0.3-2.1,0.2-2.3,1.5c-0.1,0.9,0.5,1.5,1.3,1.6c3.2,0.5,5.1,3.5,8.3,4.1
			c1.1,0.2,2.3,0.8,1.9,2.3c-0.3,1.4-1.7,1.3-2.8,1.4c-4.2,0.2-7.7-2.3-11.5-3.7c-1.7-0.6-2.5-1.3-3.4,0.7c-0.4,0.9-1,2.2-2.1,1.5
			c-1.5-0.9-0.1-1.9,0.4-2.8c1.4-2.3,4.3-3.4,1.1-7.5c-3.4-4.4-2.3-4.9-8.3-5c-1.9,0-3.7,3.8-5.1,0.5c-0.8-1.7,0-4.2,0-6.3
			c0-0.4,0.1-0.7,0.2-1.1c0.7-7-0.5-14.1-3.8-20c-3.1-5.6-5.4-11.1-6-17.4c-0.3-2.9-1.6-4.3-4.7-3.6c-3.1,0.7-4.2-0.9-3.7-3.8
			c1.2-7-2.6-12.2-6.5-17.3c-0.7-0.9-1.6-1.5-2.6-1c-3,1.4-4.1,0.2-4.5-2.7c-0.1-0.9-0.8-1.8-1.5-2.5c-2.4-2.4-4.9-4.6-7.5-6.8
			c-2.4-2-5.8-2.7-8.8-1.3c-2.7,1.3-2.6,4-2.2,6.6c1.6,12.7-0.2,25.5,0.8,38.3c0.4,5.8-1.4,11.6-2.8,17.3c-0.5,2-0.6,3.9-0.2,5.9
			c0.9,5.5,3.3,10.7,2.4,16.5c-0.6,3.8-0.6,7.7-0.8,11.5c-0.1,2.7-0.1,5.4,4.4,5.1c-4.4,2.7-4.6,3.9-2.3,8.1c0.6,1.1,1.4,2.2,1,3.5
			c-2.2,7.2-1.3,14.5-1,21.9c0.3,6.1,4.8,8.6,8.4,11.9c1.4,1.3,3.9,1.5,3.2,4.1c-0.7,2.6-2.9,2.2-5,2.1c-2.7-0.1-4.4,1.9-4,4.5
			c0.3,1.5,0.9,2.9,2,4c2,2.1,2.3,4.7,1.2,6.9c-1.7,3.2-2.2,6.9-4.5,9.8c-1.4,1.7-1.8,3.8-1.7,6c0.3,6.7,1.6,13.4,0,20.1
			c-0.6,2.6-0.7,5.5-0.7,8.2c0.1,8.4,0.3,16.7,0.4,25.1c0.1,9.5-2.2,18.9-1.3,28.4c0.5,5.6-0.6,11.2,0.3,16.8
			c0.6,3.6,1.4,7.1,1.3,10.8c-0.1,3.1,1.3,4.5,4.8,4.6c6.7,0.2,13.1-1.7,19.8-1.7c2.6,0,4.5,0.8,5.1,3.4c0.8,3.4,3.3,6.1,4.3,9.5
			c0.5,1.9,2.4,3,4.5,2.3c3.8-1.3,7.6-1.2,11.4-1.1c3.8,0.1,7.1-3.9,6.3-7.6c-2.2-10.5,2.7-17.4,13.3-18.5c2.8-0.3,3.8-1.6,3.7-4
			c-0.1-4.1,0.9-8.6,0.1-12.2c-1.4-6.6,1.7-6.2,6.2-7.8c6.8-2.3,13.2-3.5,20.2-2.4c3.5,0.5,7.8,0.2,9.4-3.1c1.6-3.3-1-6.6-3.6-9.1
			c-1.4-1.3-2.9-2.8-2.3-4.8c0.8-3.1,1.5-6.6,3.6-9c6.6-7.1,14.3-11.6,24.6-8.4c4.6,1.5,7.5,0.3,10.4-3.8c2-3,5.9-4.9,8.2-4.4
			c4.7,1.1,10.5-1.4,14.2,3.6c0.2,0.2,0.7,0.4,1,0.3c4.5-0.8,6.4,2,8.2,5.5c2.1,4,6,4.6,9.6,1.9c0.9-0.7,2-1.5,3-1.4
			c6,0.6,7.8-3.8,9.8-8c2.2-4.6,4.7-5.4,9.8-6.1c6.9-0.8,13.6,0.8,20.4,0.3c3.8-0.2,5.8-2.1,5.9-5.5c0.2-7.8,1.3-15.7-1.1-23.5
			c-0.5-1.7-1.1-3.1-3.1-3.2c-1.9-0.1-2.1,1.5-2.6,2.7c-0.8,2-1.5,4-4,4.6c-4.1,0.9-8.2,2.2-12.4,2.9c-4.6,0.8-9,0.3-12.3-3.6
			c-1.6-1.9-3.2-3.8-4.9-5.7c-1.2-1.3-2.3-1.4-3.1,0.5c-0.3,0.8-0.9,1.5-1.3,2.2c-0.4,0.5-0.9,0.9-1.6,0.6c-0.8-0.4-1.2-1.3-0.7-1.8
			c3.4-4.1,0.1-8.2-0.2-12.2c-0.1-1.7-1.2-4.4-3.4-3.6c-5.3,1.8-11.4,1.5-15.8,6C472.1,590,470,590.8,473.2,593.9z M635.2,672.6
			c1.7,1.4,2.3,3.3,4.3,3.9c0.7,0.2,1.5,0.3,2.1-0.3c0.5-0.5,0.5-1.3,0-1.7c-2.8-2.2-2.1-5.4-2.3-8.3c-0.1-1.1,0.1-2.3-1.1-3
			c-2.1-1.1-7.6,1.8-7.6,4.3c0.1,6-1.2,12-0.6,17.9c0.5,4.7,2.7,9.3-0.1,14c-0.1,0.2-0.1,0.5,0,0.7c1.9,4.9,0.5,10.4,2.4,15.4
			c2.3,6.2,3.4,12.4-0.3,18.6c-0.5,0.9-0.7,1.9,0.2,2.8c0.8,0.8,1.8,0.5,2.8,0.2c3.3-0.9,4.5-3.5,5.5-6.5c0.7-2.3,2-5,5-3.1
			c5.1,3.3,10.3,4,16,2.2c2-0.6,3.9-0.4,5.9,0.3c5.7,2.2,8,1.2,11.6-3.8c3.1-4.3,6.5-8.4,11.4-11.1c2.4-1.3,3.8-3.3,2.8-6.2
			c-0.3-0.8-0.6-1.8-1.5-2.1c-1.1-0.3-1.4,0.8-1.8,1.5c-0.5,0.7-0.8,1.7-1.9,1.5c-1.1-0.3-1.5-1.3-1.6-2.3c-0.1-1.1-0.4-2.3,0.8-3.1
			c4.3-2.8,7.5-1.2,7.8,3.9c0.1,0.9,0.1,1.8,1.1,2.1c0.7,0.3,1.3-0.1,1.6-0.6c3.7-5.6,8.6-10.5,10.5-17.1c0.2-0.7,0.5-1.9,0-2.1
			c-3.5-0.8-3.6-5.8-7.5-6c-0.7,0-1.3-0.4-1.1-1.1c0.1-0.4,0.5-0.9,0.9-1.1c1.5-0.6,3.5-0.8,4,0.8c1.1,3.8,5.4,3.8,7.5,7
			c1.6,2.4,4.5,5,7.3,7c2.1,1.5,2.9,3.4,3.3,6c0.7,4.4,0.5,9.2,5.3,12.2c1.9,1.2,2.5,1.8,3.4-0.6c0.7-1.8,1.6-3.6,3.2-4.5
			c6.1-3.5,11.3-8.2,16.7-12.6c0.6-0.5,1.2-0.9,1.8-1.3c1.1-0.6,2.2-0.5,3.1,0.4c0.9,1,0.4,1.8-0.3,2.6c-1.6,2-3.3,4.1-4.8,6.2
			c-2,2.7-1.8,4.9,0.9,7.5c3.2,3.1,7.3,4,11,5.8c3.2,1.5,7.5,0.2,8.7-2.4c2.7-5.8,4-12.3,4.3-18.8c0.4-9-3.3-18,0.7-26.9
			c1.9-4.1,1.2-8.8,3.1-13c0.9-2,1.1-4.7-1.7-6.2c-1.2-0.6-1.4-2-1.7-3.2c-2.9-10.3-4.4-20.7-2.9-31.5c0.4-3.1,0.3-6.2-0.5-9.3
			c-0.4-1.6-1.1-2.8-2.8-3.2c-3.2-0.7-6.4-1.2-8.3-4.6c-0.5-1-2.2-1.9-3.7-1c-1.5,0.9-0.9,2.4-0.4,3.7c0.5,1.3,0.2,2.4-0.5,3.6
			c-1.2,1.9-1.3,4-1,6.2c0.6,4.1,1.3,8.1,1.9,12.2c0.3,2.2-0.5,3.4-2.9,4.4c-4.8,2.1-9.5,2.7-14.7,1.7c-6-1.1-12-1.7-18.2-1.8
			c-3.1,0-5.3,0.1-7.7,1.8c-3.8,2.7-6.4,1.5-7.6-2.9c-0.5-2.1-0.6-4.2-0.5-6.3c0.1-4.2,0-8.4-1-12.7c-0.8-3.5-0.2-7,0.9-10.6
			c1.9-6.9-1-13.6-2.5-20.3c0-0.1-0.1-0.2-0.2-0.3c-3-1.9-3.4-4.9-2.9-7.9c0.8-5.2-0.6-9.7-3-14.3c-1.1-2-2-2.4-4.1-1.4
			c-3.9,1.9-7.4,4.6-12.3,4.9c-5.6,0.3-6.3,1.7-6.9,7.3c-0.1,0.9-0.1,1.7-0.1,2.6c0.1,2.5-1,4.7-1.8,7c-1.2,3.6-4.3,7.6,0,11.5
			c1.5,1.4-0.1,2.1-1.5,2.2c-6.2,0.3-7.8,1.7-8.7,7.9c-0.3,2.6-1.8,4.1-4,5c-1.1,0.4-2.5,1.3-3.5,0.1c-1.1-1.3,0.5-2.2,1.2-3.1
			c3.3-4.5,6.4-9,4.9-15c-0.2-0.9,0.1-2,0.3-3c0.1-0.7,0.3-1.6,1.1-1.8c1-0.2,1,0.9,1.4,1.4c0.9,1.3,1,4.1,3.2,3.2
			c2.4-1,0.5-3.2,0.1-4.9c-0.1-0.5-0.3-1-0.4-1.4c-0.6-2.3-2.5-2.6-4.4-2.8c-2.2-0.3-2.6,1.3-3.1,2.9c-1.4,4.3-4.7,7.5-8.3,9.6
			c-2.5,1.4-5.5,1.9-7.5,4.3c-0.4,0.5-0.9,0.9-1.6,0.7c-0.8-0.2-0.7-1-0.6-1.6c0.3-2.9,0.4-5.7,0.8-8.6c0.3-2.1,1.3-5-1.2-5.3
			c-1.9-0.3-2.1,3-2.3,4.9c-0.3,2.9-1,5.7-3.1,7.9c-1.5,1.5-1.6,2.4,0,3.9c1.9,1.7,2,3.8,0,5.8c-2,2.1-4,5.4-3.2,7.5
			c1.7,4.3,1.6,8.1,0.5,12.3c-0.5,2,1,3.6,2.4,4.3c1.9,1,1.4-1.9,2.5-2.4c0.2-0.1,0.5-0.1,1.2-0.2c-0.7,2.5-0.8,5.1-2,7
			c-2.5,4-4.3,8.2-4.4,13c0,3.1-0.1,6.2-1.1,9.2c-1.1,3.3,0.6,5.2,4.1,5.1c2.8,0,5.6,1.3,8.3-0.6c1-0.7,1.6,0.6,2.1,1.6
			c1.3,2.7,0.6,5.3-0.4,8c-1.8,4.7-0.1,8.2,4.5,9.5c-1.1,1.8-3.5,1.1-4.8,2.6c-1.6,2-3.6,3.8-5.4,5.7c-0.8,0.8-1.7,1.7-2.9,1.3
			c-1.4-0.4-1.1-1.7-1.1-2.9C635.2,678,635.2,675.3,635.2,672.6z M270.7,445.3c-7.9,0.7-8.7-0.1-9.3,8.6c-0.1,1.2,0,2.6-0.3,3.7
			c-2.1,6.8-0.6,14.2-3.3,21c-0.7,1.8,0.7,3.8,0,5.9c-0.9,2.7-3.3,3.6-5.4,4.9c-0.6,0.4-1.3-0.3-1.3-1c0-2.5,0.5-4.7,3.3-5.7
			c1-0.4,1.6-1.2,1.3-2.4c-0.4-1.3-1.5-1.6-2.7-1.6c-1.6,0.1-3.2,0.3-4.8,0.4c-2.7,0.1-5.5,2.5-5.2,5.2c0.5,4.9,0.1,9.7,0.5,14.6
			c0.2,2.7,1,5,4.5,5.4c2.5,0.3,2.4,2.1,1.2,3.9c-0.6,0.8-1.4,1.4-2.4,1.7c-3.1,0.9-3.6,3.1-2.9,5.9c0.7,2.6,1.4,5.3,2.2,7.9
			c0.8,2.7,1.9,4.4,5.4,2.7c3.6-1.8,6.9-0.2,7.7,3.1c0.3,1.2-0.4,2.6-1.2,1.8c-2.2-2.4-4.4-0.6-6.6-0.8c-5.6-0.5-6.7-0.1-7.4,5.5
			c-1,8.2,0.6,16.4,0.4,24.6c-0.1,2,1.4,3,3.6,3.6c4.8,1.3,9.9,0.3,14.6,2.7c1.6,0.8,3.8,0.3,5.2-1.1c2-1.9,3.9-3.9,5.6-6
			c2.3-3.1,1.5-7.7-1.4-9.1c-1.8-0.9-4.3-0.6-5.4-2.4c-1.4-2.3,1.6-3.6,1.9-5.7c0.3-2.3,0.2-4.9,2.1-6.6
			c6.4-5.7,10.5-13.3,16.2-19.5c2.2-2.4,1.6-6.1-1.3-7.6c-4.6-2.5-5.1-4-2.7-8.8c0.7-1.4,2-2.8,1.3-4.5c-1.4-3.4-2.1-6.9-2-10.6
			c0-1.3-0.8-2.4-1.7-3.2c-3.5-3-6.1-7-10.4-9.1c-2-1-3.2-2.9-2.5-5.3c0.6-2.3,2.5-2,4.2-2.2c3.2-0.4,4.3-2.1,3-4.9
			c-1-2.1-1.1-4.6-2.7-6.5c-1.3-1.5,0-2.9,0.6-4.1c0.8-1.7,1.8-0.4,2.7,0.1c1.1,0.6,2.4,0.5,2.8-0.8c0.6-1.8,1.7-2,3.2-1.5
			c0.9,0.3,1.8,0.6,1.9,1.6c0.2,1.6-1.2,2.1-2.2,2.7c-3.2,1.9-4.8,4.5-3.3,8.1c1.3,3.1,1.6,6.2,1.6,9.5c0,2,0.5,4,0.8,5.9
			c0.1,0.4,0.5,0.9,0.9,1c0.5,0.1,0.9-0.4,1-0.9c1-3.9,3-7.8,2.7-11.6c-0.3-4.2,1.9-7.4,2.4-11.2c0.2-1.5,1.3-2.7,2.9-3.2
			c2.9-0.8,2.7-2.8,1.7-4.7c-1.1-1.9-3.1-3.3-5.3-2c-1.7,1-3,1-4.9,0.6c-2.1-0.5-4.5-0.3-6.5,1C273.8,445.2,272.4,445.7,270.7,445.3
			z M615.5,461.6c0.3,4.4-1.4,6.5-3.4,4.8c-3.4-3-6.4-0.8-9.5-0.1c-1.6,0.4-2.3,1.9-2.2,3.5c0.1,1.2,0.5,2.5,1.8,2.5
			c3.4-0.1,3.9,2.6,4.8,4.8c1.6,3.9,2.9,7.9,5.6,11.3c1,1.3,2.1,1.8,3.5,1.1c1.6-0.8,0.6-1.9,0.1-2.8c-0.7-1.3-1.2-2.7,0.3-3.7
			c1.3-0.9,2.7-0.7,3.8,0.4c2.5,2.4,3.8,1.6,4.6-1.4c0.3-1.2,0.9-2.5,2.4-2.6c1.7-0.1,2,1.4,2.2,2.5c0.5,2.1,1.9,3.2,3.7,3.9
			c3.2,1.1,6.3,2.2,9.8,0.9c2-0.8,4.2-0.6,6.2,0.4c1,0.5,2,1.2,3,0c0.9-1,1.2-2.1,0.8-3.5c-0.4-1.3-0.6-2.7-1.1-3.9
			c-0.8-1.8-1.8-4.3-3.8-4.2c-2.6,0-4.8-1.1-7.3-1.2c-3.3-0.2-6-2.2-8.9-3.4c-1.6-0.7-0.5-3.7-0.9-5.6c-0.1-0.6-0.4-1.2-0.7-1.7
			c-2.9-6.1-4.1-12.7-6.3-19c-1.6-4.5-3.6-9-4.6-13.7c-0.3-1.4-1.3-2.4-2.5-3.2c-5.5-4-8-9.5-8.4-16.1c-0.1-1.4-0.2-2.8-0.8-4
			c-1.4-3-2.1-6.1-2.3-9.4c-0.1-2.1-0.1-4.6-2.1-5.8c-2.8-1.6-3.1-4.3-4.2-6.8c-0.8-1.8-1.3-3.8-1.8-5.7c-2.3-7.8-4.7-15.6-6.9-23.4
			c-0.7-2.4-3-3.3-4.9-1.7c-2.3,2.1-2.9,4.6-1.3,7.4c1,1.8,2.5,3.4,2.8,5.7c1.1,7.4,3.7,14.4,4.9,21.9c1.6,9.9,5.4,19.4,8.3,29.1
			c0.2,0.7,0.5,1.5,1.1,2c3.9,2.9,4.6,7.2,5.2,11.6c0.3,1.9,1,3.6,2.6,4.3c3.5,1.5,4.3,4.4,4.6,7.5c0.3,3,1.4,5.5,3.3,7.8
			c1.5,1.8,2,3.7-0.2,5.5C615.2,458.4,615.5,460.3,615.5,461.6z M648.3,360c0.7,2,0.3,3.7-0.6,5.1c-1.1,1.6-1.3,2.7-0.1,4.3
			c1.1,1.5,1.1,3.4,0.8,5.1c-0.9,5.8,2.2,10.7,3.7,15.7c2.4,8.1,5.9,15.8,7.1,24.2c0.6,4.3,0.6,8.8,4.3,12c0.7,0.7,1,2,1.2,3.1
			c1,6,3.2,11.8,5,17.6c1.1,3.6,4.3,5.7,7.3,5c2.4-0.6,3.5-3.6,3.2-7.5c-0.4-4.9-2.1-9.5-1.9-14.4c0-1.2-0.2-2.3-1.3-3
			c-1.7-1-1.8-2.6-1.7-4.3c0.1-2.4-0.7-4.3-1.9-6.3c-1.7-2.8-4.1-5.6-3.8-8.8c0.8-10-3.4-19-5-28.5c-0.5-3.3-3.7-4.6-4.4-7.6
			c-2.4-11.3-5.5-22.4-10-33.1c-1.1-2.5-2.9-4.6-3-7.5c0-0.7-0.8-1.3-1.6-1.4c-2-0.3-3.7-1.5-5.4-2.4c-3.8-1.9-5.5-0.6-5.1,3.5
			c0.1,0.7,0.5,1.5,0.4,2.2c-0.5,3.5,3.1,5.5,3.3,8.8c0.4,7.5,3.5,14.4,4.6,21.8c0.1,0.7,0.5,1.5,1.4,1.5c0.7,0,0.9-0.8,1.3-1.2
			C646.9,362.8,646.5,360.9,648.3,360z M651.3,448.2c0.6-4.9-0.8-9.8-5.7-13.3c-1.4-1-1.7-2.7-1.8-4.4c-0.4-5.6-1.9-11-3.9-16.3
			c-1.1-2.9-2.9-5.7-3.3-8.5c-0.6-4.5-1.2-9.1-1.7-13.6c-0.3-3.2-1.1-5.8-3.3-8.1c-2.2-2.4-3.6-5.3-3.5-8.5c0.1-4.3-0.5-8.6-2-12.5
			c-3.2-8.6-5.2-17.9-12.8-24.3c-2.9-2.5-4.5-2.4-6.6,0.7c-1.7,2.5-1.8,5.2-0.4,7.8c1,1.8,1.6,3.6,1.5,5.7c0,1.3,0.1,2.6,1.2,3.4
			c1.7,1.3,1.6,3.2,1.8,5.1c0.5,4.7-0.5,9.9,2,13.9c3.8,6.2,5.6,13,8.3,19.5c2,4.9,4.5,9.6,5.8,14.8c0.5,1.9,1,4,2.1,5.6
			c1.7,2.4,1.1,5.8,3.5,7.7c1.7,1.4,2.3,3.2,2.7,5.2c1.1,6.1,2.5,12.3,1.7,18.5c-0.5,4.2,1.7,6.6,4.4,9.2c2.6,2.5,5.5,1.3,8.1,0.6
			c2.4-0.6,1.4-3.1,1.6-4.9C651.4,450.7,651.3,449.8,651.3,448.2z M481.1,459.9c4.5-3.4,4.5-4.8,0.1-7.7c-0.9-0.5-1.3-1.2-1-2.1
			c0.3-1,0.9-1.8,2.1-1.7c0.6,0,1.3,0.2,1.8,0.6c2.6,1.9,4.6,1.3,6.5-1.3c1.8-2.6,4-4.7,7.8-3.2c1.4,0.6,2.8-0.7,3.2-2
			c0.9-3,1.2-6.1-0.6-9c-1.3-2-2.7-3-5.3-2.2c-2.8,0.9-5.9,1-8.8,1.3c-4.7,0.6-9.4,1.7-14.1,2.8c-2.3,0.6-3.3,2.4-3.5,4.8
			c-0.3,3.5,1.9,5.9,3.6,8.4c1.1,1.7,1.4,2.8,0.3,4.7c-1.4,2.6-2,5.4,1.1,7.6c4.8,3.4,5,4.6,1.8,9.4c-2,3-1.9,5.9,0.6,8.5
			c2.7,2.8,4.2,5.8,3.1,9.8c-0.6,2.2,0.2,3.5,2.7,4.4c2.6,0.9,4.9,0,7.2,0.2c3.4,0.3,3.6-1.5,3.2-3.9c-0.2-1.1-0.9-2.1-1.1-3.2
			c-0.4-1.7-1.3-3.6,0.6-4.8c1.8-1.2,3.9-0.9,5.6,0.4c1.6,1.2,2.9,2.8,4.3,4.1c3.2,3,5.3,3,8.4,0.1c0.3-0.2,0.6-0.4,0.9-0.6
			c3.4-2.1,4.1-6.2,1.5-9.4c-0.5-0.6-1.5-1.3-1.4-1.6c1.3-3.6-1.6-5.8-2.7-8.5c-0.6-1.4-1.3-3-3.2-2.4c-1.6,0.5-3.7,0.6-4.2,2.7
			c-0.5,2.1,1.4,2.6,2.8,3.4c3.2,1.8,4.3,5.2,2.7,8.2c-0.6,1-0.4,1.9-0.1,2.8c0.2,0.8,0.1,1.6-0.8,1.9c-1,0.3-2.1-0.4-2-1.1
			c0.2-3.7-2.5-3-4.5-3.1c-2.6-0.1-3.3-1-3-3.7c0.4-3.3,2.2-6.6,0-10c-0.5-0.8,0.3-2.2,1.1-3c0.8-0.9,1.7-1.8,2.7-2.6
			c1.3-1.1,2.1-2.4,1.1-3.9c-1-1.5-2.6-1.2-4-0.6c-1.8,0.8-3.3,1.9-4.4,3.8c-2.9,4.9-5.7,5.4-10.3,2.4
			C482.3,460.4,481.7,460.2,481.1,459.9z M561.1,378.1c1.5,4.6,5.3,8.1,5.9,13.3c0.2,2.5,1.6,5,2.4,7.5c0.8,2.7,2.4,5.4,4.2,7.9
			c1.6,2.2,2,4.9,0.8,7.5c-0.8,1.7-0.1,3,0,4.6c0.2,3.3,4.2,2.6,4.7,5.5c0.4,2,1.1,4.5,4.2,4.5c1,0,1.1,1.2,0.9,2.1
			c-0.6,3.1,0.2,6,1.3,8.8c0.5,1.2,0.4,2.4,0,3.6c-0.7,2-1.5,2.7-3.3,0.9c-1.9-1.9-2.6-4.2-2.6-6.8c0-1.9-0.2-3.8-1.1-5.5
			c-0.6-1.2-1.5-2.1-3-1.3c-1.3,0.7-1.8,1.7-0.9,3c1.4,2,1.4,4.3,1.2,6.5c-0.3,4,0.4,7.4,4.1,9.7c1.3,0.9,2.3,2.2,3,3.8
			c0.5,1.2,0.9,2.9,2.7,2.4c1.7-0.4,2.9-1.6,3.2-3.3c0.4-1.9,0.6-3.9,0.9-5.9c0.8-6.5,0.6-13.2-2.6-19c-3.4-6.2-6-12.8-8.5-19.3
			c-1.5-3.9-3.5-7.6-3.9-12c-0.4-3.5-2.1-7.2-4.1-10.2c-1.4-2-3.1-3.8-3.2-6.1c-0.1-4.6-3.3-7.7-4.7-11.6c-0.7-2-2.2-2.5-4.2-1.4
			c-3.8,2-5.4,7.4-3,11.4c2.2,3.6,3.4,7.3,4.2,11.4c0.8,3.6,0.9,7.4,2.2,10.9c2.4,7.3,3,15,5.8,22.2c0.5,1.2,0.1,2.7,0.2,4.1
			c0,1.2,0.3,2.3,1.1,3.1c1.3,1.2,2.5,1.9,3.2-0.6c0.7-2.6,1.1-5.4-0.8-7.5c-2.1-2.3-2.3-4.4-0.7-7c0.9-1.6,0.8-3.4-2-2.7
			c-0.8,0.2-1.5,0.4-2-0.4c-0.6-0.9-0.1-1.7,0.6-2.3c0.9-0.9,2.2-2.1,1.2-3.2c-1.5-1.7-0.9-3.7-1.4-5.5c-1.2-4.5-2.6-8.8-3.4-13.4
			C562.8,384.7,561.4,381.5,561.1,378.1z M380.3,313.7c-0.1,2.2,0,4.3,2.8,5.2c0.8,0.3,1.8,0.8,1.3,1.9c-0.5,1.2-1.7,1.2-2.5,0.4
			c-1.2-1.1-2.4-0.8-3.8-0.6c-1.7,0.2-3.5-0.2-5.2-0.4c-0.9-0.1-1.7-0.7-1.5-1.8c0.2-1,0.9-1,1.7-0.8c0.7,0.1,1.5,0.2,2.2-0.1
			c2.3-0.8,3.7-2.6,3.2-4.8c-0.5-2.3-2.4-2.5-4.8-2.1c-2.5,0.5-5,1.2-7.6,1.6c-2.4,0.4-3.9,2.8-6.5,2.6c-1.3-0.1-2.6-0.2-2.8,1.6
			c-0.2,1.6,0.9,2.1,2.2,2.5c3.2,1,6.7,1.5,9.5,3.7c0.9,0.7,2.5,1.5,3.4,1.2c3.8-1.4,6.9,1.6,10.3,1.6c1.4,0,1.9,0.8,2.5,1.8
			c1.9,2.8,7.4,4.3,10.3,2.8c1.7-0.9,2.7-0.8,2.9,1.1c0.4,4.3,2.4,6.5,6.6,8.2c5.2,2.2,10.4,4,15.9,3.9c3,0,6-1.6,8.4-3.8
			c1.5-1.4,1.7-3.6,0.3-4.7c-2.2-1.9-4.5-4.4-7.5-4.4c-4.8,0.1-8.3-3-12-5c-5.3-2.7-10.5-6.1-16.1-7.3
			C389.1,316.9,385.3,313.9,380.3,313.7z M502.2,728c-4.2-0.1-8.5-0.1-11.9,3.1c-1,0.9-1.4,1.7-0.7,2.9c0.8,1.2,1.6,1.7,3.1,0.9
			c1.4-0.7,3-1.3,4.6-1.7c2.7-0.7,4.3,0.2,3.5,3.2c-0.5,2.1-0.7,3.9,1.1,5.8c1.6,1.7,0.9,4.3,0.6,6.5c-0.1,0.9-1.3,1.4-1.6,0.6
			c-0.9-2.1-3.4-3.6-2.8-6.3c0.3-1.4,0.7-2.7-1.1-3.5c-0.8-0.4-1.7-0.6-2.5,0.1c-1.1,1-1.4,2.2-1.1,3.7c1.3,7.9,3.6,9.8,11.7,9
			c0.7-0.1,1.5-0.2,2.2-0.2c4.2-0.2,8.2,0.7,11.2,3.6c5.7,5.5,12.6,5.6,18-0.1c0.4-0.4,1-0.8,1.4-1.3c2.4-2.4,2.1-4.5-1-6.1
			c-3.1-1.6-7-2.5-9.1-4.9c-3.5-4.2-6.6-3.5-10.6-1.4c-2.2,1.2-4.1,0.6-5.2-1.9c-0.9-1.8-1.8-3.5-1.3-5.7c0.5-2.1-0.5-3.5-2-4.9
			C506.9,727.7,504.6,727.9,502.2,728z M598.5,510.5c-2.3-0.7-4.1-2-5.3-3.8c-2.7-4.2-6.6-7.9-6.6-13.5c0-1.3-0.6-2.6-0.3-4
			c0.6-2.9,1.7-5.8,0.2-8.8c-0.3-0.6-0.2-1.6,0.7-1.9c0.9-0.3,1.5,0.3,1.8,1c0.9,2.2,2.4,4,3.8,6c0.5,0.7,0.9,1.6,0.5,2.5
			c-1.3,2.7-0.8,3.4,2.1,2.3c1.4-0.5,2.6,0.4,2.8,1.8c0.3,2.1-1.4,1.1-2.3,1.2c-0.9,0.1-2,0.2-1.3,1.5c1.3,2.2,7.4,4.6,9.9,4.1
			c2.3-0.4,2.6-2.1,2.5-3.9c0-1.7,0.2-3.8-2.2-4c-4.1-0.4-6.5-2.9-7.9-6.3c-1.8-4.5-4.8-8.1-8.3-11.3c-2.1-1.9-5-3.4-7.5-1.9
			c-2.3,1.4,0.2,3.8,0.4,5.8c0.1,0.5,0.2,1,0.4,1.4c1.5,3,1.6,5.7-1,8.2c-0.9,0.8-1.3,2.4-0.6,3.1c3.3,3.2,2.8,7.2,3,11.1
			c0,0.8,0.7,1.6,1.2,2.2c5.3,5.6,10.8,10.9,17.7,14.5c2,1,4.2,1.5,4.8-1.8c0.4-2.6,2.1-2.4,3.9-1.5c0.9,0.4,1.5,1.3,2.4,1.8
			c1.9,1.2,3.4,0,4.6-1.3c1-0.9,1.4-2.6,0-3.2c-3.1-1.5-4.3-4.4-5.9-7c-1.3-2.1-2.5-1.6-3.9-0.3c-1.2,1.2-2.1,2.8-3.8,3.5
			c-2.5,1-4.7,0.6-5.3-2.2c-0.9-3.6-3.7-5.5-5.8-8.1c-0.5-0.6-1-1.3-1.8-0.7c-0.7,0.5-0.4,1.4-0.1,2.1c0.8,1.8,1.3,3.7,2.7,5.3
			C595.7,506,597,508.3,598.5,510.5z M265.8,586.4c0-2.4-0.1-4.4-2-6.2c-4.1-3.9-7.6-8.7-14.1-8.8c-0.2,0-0.4-0.2-0.7-0.3
			c-2.3-1.4-3.6-0.4-3.9,2c-0.5,3.1-1.5,6-2.3,9c-0.7,2.4-0.4,5-0.1,7.6c0.7,5.8,2.6,11.7,0.4,17.7c-0.8,2.3,0.6,5,2.5,6.1
			c1.6,0.9,2.8-1.6,3.8-2.9c0.8-1,1.2-2.2,1.8-3.3c1.1-2.1,2.4-4,4.6-5.3C261.7,598.3,266.1,593.8,265.8,586.4z M546.4,434.9
			c-1.3-6.2-1-13.4-6.9-18.4c-0.8-0.7-1.2-2.2-1.4-3.4c-1.6-9.3-5.8-17.8-7.7-27c-0.5-2.3-2.7-2.9-4.6-3.3c-2.1-0.4-2.5,1.4-3.4,2.8
			c-3.5,5.4-0.7,11.2,2.1,14.4c4.4,5.1,5,10.5,5.4,16.2c0.5,8.2,2.6,15.6,8.8,21.4c1.9,1.8,4.4,2.3,6.5,2
			C547.3,439.3,545.9,436.8,546.4,434.9z M500.2,301.5c-2.2-0.6-3.2,0.3-4.1,1.4c-0.6,0.7-1,2-2.2,1.6c-2.3-0.7-3.3,0.4-3.6,2.5
			c-0.3,2.2,1,3.3,2.9,4.2c6.4,3.3,13.4,5.3,19.9,8.4c1.2,0.6,2.6,1,3.7,1.7c5.7,3.7,11.6,6.5,18.7,5c2-0.4,3.9-1.2,6.1-1.4
			c2.7-0.2,2.2-3.2,2.4-5.1c0.2-1.9-0.9-3.1-3-2.6c-1.5,0.3-2.8,0-3.7-1.2c-2.4-3.6-6.8-4.2-10.2-5.5c-4.8-1.9-9.6-4.4-14.7-5.4
			C507.9,304.2,504.5,300.3,500.2,301.5z M467.7,315.4c-2.2,1-5-0.4-7.1,1.3c-2.6,2-1.9,4.3-0.2,6.5c0.9,1.1,1.6,3.1,3.4,1.4
			c2.7-2.4,4.7-5,9.4-3.8c3.2,0.8,4.3,0.6,3.1,3.9c-0.4,1.2-0.8,2.4-1.4,3.5c-0.7,1.3-0.3,3.7-2.5,3.6c-2-0.1-2.8-1.8-3.3-3.6
			c-0.3-1.1-0.5-2.4-2-2.1c-1.4,0.2-2.2,1.1-2.4,2.5c-0.2,1.7-0.1,3.2,1.5,4.3c6.3,4,13.8,5.3,20.6,8.1c1.9,0.8,2.5-0.9,2.2-2.7
			c-0.4-2.6,0.6-5,3.1-5.1c2.8-0.1,5.1-1.9,8-1.4c1.5,0.3,3-0.7,2-2.5c-1.2-2.1-3.9-4.8-5.4-3.9c-4.6,2.7-5.4-0.8-8.2-3
			C482.7,317.9,475.1,316.7,467.7,315.4z M369.5,716.5c0,4.8,1.5,7.2,5.2,8.5c3.2,1.1,6.1-0.1,8.6-3.6c0.9-1.3,1.5-3.1,3.6-2.6
			c1.9,0.4,2.4,2.1,2.7,3.7c0.5,2.3,1.7,4,4.3,3.7c2.7-0.3,4.2-2,4.5-4.7c0.5-4.5-0.9-8.5-3.5-11.9c-2.8-3.7-7.2-4.2-11.2-1.8
			c-2,1.2-4.2,1.7-6.5,0.7c-2.4-1.1-4.5-0.4-6.2,1.3C369.3,711.7,370,714.5,369.5,716.5z M543.2,277.8c-1.1,0.2-1.8,0.3-2.6,0.5
			c-1.2,0.3-3.1-0.1-2.9,2c0.3,2,2,1.2,3.3,1.3c5.2,0.6,10.1-0.9,15.1-2c2-0.4,3.7-0.1,5.3,0.9c2.9,1.7,5.4,3.6,7,6.9
			c1.3,2.7,3.6,5,5.8,7.3c2.1,2.2,4.7,1.9,6.3-0.6c1.1-1.7,2-2.9,4.4-2.5c2.6,0.4,3-2.2,3.9-3.9c0.8-1.6-0.2-2.8-1.5-3.8
			c-1.6-1.2-4-0.7-5.2-1.6c-5.1-3.9-11.9-2.5-17-6.1c-0.6-0.4-1.4-0.5-2.1-0.5c-4,0-7.6,2.1-11.9,1.6
			C548.8,277,545.8,279.3,543.2,277.8z M252.5,724c-6,1-11.3,4-16.9,6.4c-1,0.4-0.8,1.4-0.2,2.2c1.9,2.4,3.7,4.4,7.4,2.7
			c4.2-1.9,5-1.2,6.3,3.2c0.6,1.9,1,3.9,1.6,5.8c0.4,1.3,1,2.6,2.7,2.6c3.3,0.1,6.9-3,7-6.3c0.1-3.2,0.6-6.2,1.7-9.1
			c1.2-3-0.3-5.2-3.1-6.2C257,724.5,254.7,724.4,252.5,724z M691.9,505.6c-1.1-5.5-0.6-11.2-3.2-15.9c-2-3.6-4.2-7.7-9.1-8.6
			c-1.7-0.3-3.5-0.1-5.2-0.2c-3.1-0.2-4.2,1.1-2.9,3.9c0.4,1,1.1,2.1,2,2.7c3.1,2.1,3.8,5,3.5,8.5c-0.1,1.6,0,3,1.2,4.5
			c2.9,3.6,6.4,6.9,7.1,11.8c0.2,1,0.6,1.9,1.8,2.2c1.3,0.3,2-0.6,2.7-1.6C691.4,510.6,691,507.7,691.9,505.6z M473.1,753.5
			c0,1.9,0,3.3,0,4.6c0.2,4.6,2.2,6.6,7.2,7.5c2.6,0.5,6.2-2.1,7.3-5.3c0.5-1.4,0.8-2.9,1.5-4.2c3.5-6.8,0.6-13.8-6.7-15.8
			c-4.2-1.2-8.2,0.3-8.5,3.2C473.6,747.1,472.6,750.5,473.1,753.5z M359.6,404.6c-2.5,0.6-3.8,2.6-4.2,5.1c-0.4,2.4,0.8,4,3.5,4.4
			c6.5,0.8,12.9,0.9,18.8-2.4c1.2-0.7,2.1-0.2,2.8,0.9c0.5,0.8,0.7,2.3,2,1.4c1.2-0.8,0.6-2,0-3c-1.6-2.5-3.5-5.1-4.5-7.6
			c-1.4-3.6-3.1-3.5-5.9-2.9c-1.5,0.3-2.7,0.9-4.1,1.6C365.6,403.5,363.4,406.1,359.6,404.6z M774.1,753.7c2.7,0.3,4.4,0.1,6-0.7
			c1.5-0.7,3.1-1.6,3-3.4c-0.1-2.4-0.7-4.9-2.6-6.4c-2.5-1.9-11.2-0.5-13.5,2.1c-3.1,3.5-6.8,5.2-11.4,4.9c-2-0.1-3.6,0.8-4.8,2.4
			c-0.7,0.9-1,2.1,0.2,2.5c2.8,1,6,2.7,8.6,1.3C764.6,753.7,770.1,755.8,774.1,753.7z M292.6,783.8c4.6-2,10.1-2.6,14.9-5.4
			c0.7-0.4,1.4-0.8,1.2-1.7c-0.2-1.1-1.1-1.7-2.2-1.7c-3.7,0-6.9-2-10.4-2.9c-1.1-0.3-2.1-0.7-3.3-0.5c-4.3,0.7-8.6,1.3-12.9,1.8
			c-2.3,0.2-3.4,1.6-4,3.4c-0.6,1.9,1.1,2.6,2.4,3.2C282.7,782.4,287.4,783.2,292.6,783.8z M445.9,718.5c0,3.2-0.2,5.4,0,7.4
			c0.4,3.1,3.5,5.1,5.8,3.8c4.3-2.4,7.7-5.6,9.1-10.6c0.4-1.4,0.5-2.7-0.4-3.9c-1.3-1.8-2.5-3.7-3.8-5.5c-3.1-3.9-6-3.8-9.1,0.1
			C445.2,712.9,446.2,716.4,445.9,718.5z M442,430.6c0.4-2.6-0.8-5-1.8-7.4c-1.9-4.7-4.9-4.9-8.4-1.3c-3.2,3.3-5.6,7.6-10.1,9.7
			c-1,0.5-2.1,1.3-1.5,2.6c0.5,1.1,1.7,1.1,2.6,0.8c2.3-0.7,4.2-0.1,5.6,1.8c2.9,4,6.4,2,9.7,0.9C441.3,436.6,442.2,433.9,442,430.6
			z M475.5,355c-4.9-1.7-6.4,3.6-10.1,4.1c-1.1,0.2-0.1,1.8,0.9,2.6c2.6,2.1,5.3,3.7,8.5,5.1c5.4,2.3,9.6,2.3,13.7-2.2
			c3.2-3.5,3-5.8-1.2-8.1C483.4,354.3,479.4,353.8,475.5,355z M210.2,708.1c4.8,0.1,6.2-1.4,5.3-6c-0.5-2.5-8.4-9.1-11-9.3
			c-1.3-0.1-2.2,0.6-2.7,1.6c-1.5,3.5-4.5,4.8-8,5.3c-1.2,0.2-2.5,0.4-3.7,0.7c-1.2,0.4-1.8,1.4-1.7,2.6c0,1.2,0.8,1.6,1.9,1.9
			C196.7,706.7,203.3,707,210.2,708.1z M449,472.9c-4.5-0.2-7.8,2-8,4.6c-0.3,2.8,1.7,4.2,5.7,5c3.4,0.6,7,0.3,10.3,1.8
			c1.5,0.7,3.2,0.5,4.4-1c2.9-3.6,1.1-14.2-2.8-16.5c-1.5-0.9-3.1-1.3-3.6,1.2C454.2,472,451.1,472.6,449,472.9z M357.1,391.6
			c-0.5-2.6-2-4.2-4.9-4.6c-6.7-1-12.9,0.6-18.6,3.8c-1.7,0.9-4.7-1.1-5,1.9c-0.2,2.6,3,1.4,4.3,2.7c2.4,2.6,5,3.7,9.1,3.1
			c4.5-0.7,8.5-2.6,12.9-3.6C356.3,394.6,357.1,393.4,357.1,391.6z M387.4,439.8c0,1.2,0,1.6,0,1.9c-0.1,5,1.3,7.6,4.6,8.2
			c3,0.5,6.9-2.7,7.9-6.7c1.1-4.7,2.9-9.3,2.4-14.3c-0.1-1.5-0.2-3-0.7-4.4c-0.9-2.4-2.5-2.6-4.1-0.6c-1.5,1.9-2.5,4.4-4.4,5.5
			C388.8,432.1,386.8,435.6,387.4,439.8z M589.5,396.4c-2-4.7-1.3-10.7-4.7-15c-3.2-4-3.4-8.2-3.9-12.8c-0.5-4.8-1.5-9.6-3.8-13.9
			c-0.7-1.3-1.9-2.7-3.5-2.1c-1.9,0.7-1.2,2.6-0.8,3.9c1.4,3.9,2.7,7.7,2.6,11.9c0,0.8,0.5,1.7,1,2.4c2.4,3.4,3.3,7.2,4,11.1
			c1.1,5.5,1.3,11.5,5.5,15.9c0.7,0.7,1,1.9,2.3,1.4C589.3,398.9,589.4,397.8,589.5,396.4z M465.1,389.8c0.8-0.2,2.1-0.4,3.1-1
			c5.8-3.3,11.3-7.2,18.2-8.2c1.7-0.3,3.1-1.5,4.4-2.7c0.8-0.8,1.6-1.7,2.7-1.9c4.8-0.6,8.3-3.7,12.3-5.9c1.5-0.8,2.5-2.1,2.6-3.9
			c0.1-1.2-0.8-1.9-1.9-2c-1.8-0.2-3.5,0.2-4.7,1.7c-0.8,1.1-1.4,2.6-2.8,2.8c-5,0.8-8.3,4.7-12.8,6.6c-7.7,3.3-13.9,9.5-22.2,11.5
			c-0.9,0.2-2.1,0.8-1.6,2.1C462.7,389.7,463.7,389.8,465.1,389.8z M564.1,486.2c-0.3-1.5-0.9-3.2-1.8-4.9
			c-2.7-4.6-6.3-8.5-9.6-12.7c-0.7-0.8-0.9-2.3-2.2-2.2c-1.5,0.1-2.4,1.2-3,2.5c-0.9,2-1.6,4.1-0.6,6.1c1.1,2.2,0.4,5.7,4.2,6.3
			c0.8,0.1,1.4,1.3,2,2.1c1.8,2.3,4.1,4,6.5,5.6c1,0.7,2,1,3.1,0.3C563.8,488.7,564.2,487.7,564.1,486.2z M256.9,414.7
			c-0.2,1.9,0.1,3.6,1.9,4.6c2.1,1.1,2.3-1.1,3.3-2c0.8-0.7,1.7-1.4,2.7-1.9c5.3-2.5,10-5.9,14.1-10c1-1,1.9-2.4,1.3-3.6
			c-0.8-1.7-2.1-0.1-3.2,0.1c-3.8,0.6-7.3,3.2-11.4,2.1c-1.3-0.3-2.4,0.4-3.5,1C258.2,407,257.4,410.8,256.9,414.7z M287.6,345.7
			c-0.9-0.2-1.3,0.2-1.5,0.6c-1.5,2.8-2.7,3.2-5.7,1c-2.2-1.6-3.5-4.7-6.7-4.9c-1.8-0.1-2.8-1.4-3.6-2.9c-0.3-0.6-0.1-1.3,0.5-1.6
			c1.6-0.7,3.2-0.4,4.5,0.7c0.2,0.2,0.4,0.3,0.6,0.5c1,0.7,1.9,0.4,2.7-0.4c0.8-0.8,1.4-1.8,1-3c-0.4-1.1-1.3-1.5-2.4-1.3
			c-1.4,0.3-2.8,0.3-3.8-0.9c-1.9-2.2-4.2-2.1-6.4-0.9c-2.5,1.3-3.4,3.7-3.1,6.3c0.3,2.7,0.9,6,4,6.5c3.6,0.6,6,3,8.7,4.8
			C282.8,354.3,285.6,353.3,287.6,345.7z M544.6,693.9c4.2,0,9-2.7,9.3-5.8c0.4-3.6-2.7-5.2-5.5-6.7c-4.4-2.4-6.3-1.8-8.7,2.4
			c-0.4,0.8-0.9,1.5-1.6,2.1c-2.9,2.4-2.4,5.6-2,8.6c0.3,2.3,1.8,2.7,3.3,1.1C541,694,542.8,693.7,544.6,693.9z M818.3,762.8
			c1.6,0.1,3.4,0,5.3-0.6c1.1-0.3,2-0.8,2.4-2.1c1.1-3.6-3.7-10.7-7.4-10c-4,0.8-6.5-0.3-8.6-3.5c-0.5-0.8-1.5-1-2.3-0.4
			c-0.9,0.6-0.9,1.6-0.2,2.3c1.5,1.6,1.4,3.6,1.7,5.6C810,761,811.9,762.8,818.3,762.8z M640.1,516.7c2.1-0.4,4.1-0.4,4.3-2.7
			c0.1-1.5-1-2.2-2.4-2.2c-5.2,0.2-8.8-2-10.7-7c-0.3-0.9-2-1.4-2.3-2.4c-0.8-2.3-4.3-4.3-2-6.8c2.3-2.5,5-0.3,7.2,1.1
			c0.8,0.5,1.6,1.6,2.6,0.9c1.2-0.8,0.4-2.1,0.2-3.1c-0.4-1.8-1.9-2.4-3.5-2.1c-4.5,0.9-8.7,0.2-12.5-2.4c-0.5-0.3-1.2-0.7-1.7,0
			c-0.2,0.3-0.1,0.9,0,1.4c1.4,7.8,6,13.9,10.6,19.9C632.5,514.3,636.9,514.9,640.1,516.7z M587.9,586c0.4,0,0.8,0.1,1.1-0.1
			c5.8-2.8,10.6-2.7,13.4,4.3c0.6,1.5,3,1.2,4.4,0.2c1.7-1.2,1.4-3.3,0.7-4.8c-0.8-1.9-2.1-0.3-3.1,0.1c-2.4,0.8-3.4-0.3-3.2-2.5
			c0.2-1.8,1-3.6,1.2-5.5c0.4-3.4-1.8-4.7-5-4c-4.1,0.9-7,4.2-11,5.4c-2.4,0.8-1.9,3.2-1.7,5.2C585,586.3,586.4,586.3,587.9,586z
			 M273.1,637.7C273.1,637.7,273.1,637.7,273.1,637.7c0.5-0.1,1-0.1,1.5-0.1c5.2,0.2,6.7-2.1,4.5-6.8c-0.7-1.6-1.6-3.2-3-4.2
			c-2.7-1.9-5.8-3.6-9.1-2.9c-2.7,0.5-4.4,7.5-3.3,11.5c1,3.7,3.9,2.7,6.4,2.5C271.1,637.6,272.1,637.7,273.1,637.7z M425.4,356.6
			c0.2,3.1,4.2,8.5,7.6,8.3c4.4-0.3,7.6,5,12.2,2.2c0.1-0.1,0.7,0.3,0.8,0.6c1.9,4.1,6.7,2.7,9.6,4.9c0.8,0.6,2.2,0.1,2.7-1.2
			c0.3-0.9,0.1-1.8-0.7-2.3c-4.9-3.2-9.9-6.5-16.2-5.6c-1,0.1-1.8-0.2-2.2-1.1c-2-4.9-7.7-4.2-11-7.4
			C427.2,353.9,425.2,354.2,425.4,356.6z M511.2,339.7c-1.4-0.4-2.7-0.5-3.7,0.9c-1,1.4-0.1,2.5,0.3,3.8c1.3,3.5,5.3,3.9,7.4,6.4
			c0.2,0.3,1.3,0.1,1.7-0.1c3-1.9,6.2-3.2,9.4-4.5c1.4-0.6,1.9-2,1.7-3.4c-0.2-1.3-0.4-3.2-2-3.2c-3.9,0.1-7.7-2.5-11.6,0
			C513.5,340,512.3,339.9,511.2,339.7z M437.5,288.5c2.4-0.8,3.5-2.6,4.9-4c1.5-1.4,3.6-3,2.4-5.3c-1.2-2.2-3.7-4.1-5.9-4.1
			c-4.2,0.1-8.7,0.1-12.3,3.1c-1.2,1-1.7,2.1-1.5,3.6c0.2,1.5,1.2,1.8,2.5,1.6c1.2-0.2,1.9,0.4,2.4,1.3
			C431.7,287.8,436.1,285.1,437.5,288.5z M612.8,297.4c-6.1-1.7-8.3,4.3-12.6,6.1c-0.3,0.1-0.4,1.2-0.3,1.7c0.3,2.1,4.8,5.4,6.9,4.8
			c3.5-0.9,7.1-2,10.4-3.4c2.8-1.2,3.2-3.6,1.4-6.2C617.2,298.4,615.1,297.5,612.8,297.4z M509.3,659.9c-0.1,0,0.5,0.1,1.1,0
			c2.2-0.3,4.3-1.3,5.3-3c1.2-2-1.1-2.9-2.2-4.1c-2.6-3-1.8-7.3,1.6-9.5c1.5-0.9,3-1.9,4.2-3.1c1.9-2,1.2-4.7-1.2-5.3
			c-3.2-0.8-6.2,1.4-6.4,4.6c-0.1,1.4-0.1,2.9-1,3.9c-3.1,3.3-4,7.6-5.8,11.6C503,659.3,503.7,660.2,509.3,659.9z M503.1,683.3
			c-2.9-0.1-3.6,0.4-2.8,1.8c1.9,3.4,0.4,5.3-2.3,7.1c-1,0.6-1.8,1.5-1.4,2.8c0.4,1.3,1.5,1.9,2.8,2.1c1.5,0.3,2.4-0.5,2.8-1.8
			c1.5-4.7,4.6-8.1,8.9-10.5c0.9-0.5,1.7-1.5,2.5-0.3c0.6,1-0.2,1.6-1.1,2c-2.9,1.4-1.7,2.9,0.1,4c1.2,0.8,2.8,1.5,4.3,0.6
			c1.7-0.9,1.6-2.7,1.4-4.3c-0.1-1.2-0.7-2.4-1.1-3.5c-1.5-4.9-5.2-5.9-8.9-2.1C506.9,682.6,505.2,683.3,503.1,683.3z M740.9,731.1
			c1.2,0.2,2.2,0.2,3.1-0.3c1.4-0.7,2.1-1.8,1.7-3.4c-0.4-1.7-1.6-2-3.2-1.7c-2.2,0.4-4.4,0.8-5.6,3.1c-0.7,1.2-2,1.9-3.2,2.5
			c-5.2,2.5-10.3,2.3-15.4-0.4c-2.1-1.1-4-1-5,1.3c-0.8,2-0.2,4.3,2,4.9c7.4,2,14.4,1.3,20.6-3.6
			C737.5,732.3,738.8,730.6,740.9,731.1z M399.3,694.6c2.5,0.1,3.8-0.7,4.5-2.4c0.7-1.9,1.7-3.6,3.6-4.6c1.5-0.8,1.9-2.3,1.6-3.9
			c-0.4-1.7-1.7-2-3.1-1.9c-1.1,0.1-1.7-0.9-2.6-1.2c-2.7-0.9-4.9-0.3-6.1,2.6c-1,2.3-0.2,3.6,2.3,3.8c0.7,0.1,1.3,0.3,1.1,1.1
			c-0.2,1-1.1,1.3-2,1.2c-1.7-0.2-2.7-1.6-4.1-2.5c-2.2-1.3-3.3-0.5-3.7,1.7c-0.5,2.4,0.5,4.2,2.9,4.9
			C395.5,694,397.7,694.3,399.3,694.6z M285.3,342.5c2-0.7,3.5,0.4,5,1.5c1,0.7,3.3-0.4,3.1,1.7c-0.2,1.3-1.4,2.6-2.4,3.7
			c-0.3,0.5-1.1,0.6-1.6,0.9c-1.1,0.6-1.8,1.4-1.6,2.7c0.2,1.4,1.2,2.1,2.5,2.5c1.2,0.4,2.3,0.1,3-0.9c0.6-0.9,1.1-2,1.6-3
			c0.8-1.6,1.9-2.6,3.8-2.5c1.4,0.1,3.4,0.7,3.5-1.5c0.1-1.8-1.1-3.3-2.9-3.9c-1.8-0.6-3.5-1.2-4.7-2.8c-2.6-3.4-7.4-2.6-10.5-5.2
			c-0.2-0.1-0.9,0-1,0.2c-0.9,1.8-1.8,3.8-1.4,5.6C281.9,343.4,283.9,342.5,285.3,342.5z M321.3,735.3c0.5-2.6-2-3.7-3.3-5.4
			c-4.3-5.7-5-4-8.2,0.2c-2.2,3-3.9,5.5-8,5.1c-1-0.1-2.4,0.6-2.4,2c0,1.8,1.7,1.7,2.9,1.5c5.4-0.9,10.7,0.7,16.2-0.1
			C321,738.3,321.4,737.4,321.3,735.3z M484.2,427.5c3.9,0.3,6.5-0.9,8.7-3.1c1.2-1.1,1.7-2.6,0.1-3.4c-3.6-1.6-5.6-4.3-7.1-7.7
			c-0.5-1.2-1.4-1.2-2.3-0.1c-2.3,2.8-4.4,5.7-5.2,9.3c-0.9,4.2,0.4,5.5,4.6,5C483.6,427.4,484.2,427.5,484.2,427.5z M298.8,265.7
			c-0.7-0.1-1.5-0.1-2.2-0.2c-1.3-0.3-2.7-0.7-2.8,1.3c-0.1,1.9,1.1,2.2,2.7,2.1c2-0.1,4.2-0.7,5.9,0c7.1,3,12.5-1.6,18.4-3.7
			c1.3-0.5,2-1.9,1.6-3.5c-0.3-1.2-1.3-2-2.5-1.9c-3.6,0.3-7.4,0.2-10.4,2.4C306.3,264.6,302.9,266,298.8,265.7z M546.6,302.7
			c-1.2-0.3-2.3-0.1-2.8,1.2c-0.5,1.4-0.6,3.5,0.8,3.6c3.8,0.5,6.2,4,10.3,3.9c3-0.1,6,0.7,8.3,3.1c2.3,2.4,5.2,0.4,7.8,0.3
			c0.9,0,1-1.7,0.3-2.2c-2.2-1.6-4.3-3.9-7.2-3.7c-1.8,0.2-3.1-0.4-4.6-1C555.1,306.6,551.2,303.7,546.6,302.7z M347.9,311.7
			c2,0.4,3.2-1.1,4.8-1.7c1.3-0.4,2.4-0.9,2-2.6c-0.3-1.4-1.4-1.8-2.7-2.1c-4.1-1-8.2-2-12.1-3.3c-2.5-0.8-4.4-0.1-5.3,1.9
			c-1,2.2-0.3,4.1,2.2,5.6C340.3,311.8,344.2,310.9,347.9,311.7z M332.3,380.7c0.1,0,1.2-0.3,1.9-1.3c0.7-1,0.3-1.9-0.4-2.7
			c-0.9-1.1-1.5-2.5-2.7-3.1c-4.4-2.1-8.9-4-13.8-5c-0.8-0.2-1.5-0.1-2,0.6c-0.4,0.6-0.3,1.3,0.2,1.7c2.5,1.7,2,4.3,2,6.8
			c0,2,0.8,3,2.8,1.7c2.1-1.4,3.9-1.6,6.2-0.2C327.9,380,329.7,380,332.3,380.7z M451.4,343.8c-0.2-0.2-0.5-0.6-0.9-0.8
			c-2-0.8-3.9-1.7-5.9-2.2c-2.2-0.6-4.4-0.2-5.8,1.7c-1.2,1.7-2.3,2.7-4.6,2.3c-1.5-0.2-2.7,0.9-2.9,2.4c-0.2,1.6,1,2.7,2.5,2.8
			c1.7,0.1,3.1,0.6,4.3,1.9c1.1,1.3,2.6,1,3.7,0c2.6-2.3,5.2-4.6,8.5-6.1C450.9,345.5,451.4,344.9,451.4,343.8z M647.9,493.7
			c-1.3,0.8-3.7,0.4-3.4,3c0.2,1.9,1.1,3,3.3,2c0.9-0.4,1.6,0.3,2.4,0.7c3,1.5,6.4,2.3,7.8,5.9c0.1,0.3,0.9,0.7,1.2,0.6
			c4-0.7,4.4,2.2,4.6,4.9c0.1,1.4,0.4,2.2,1.8,2.2c1.5,0.1,2.6-0.5,3-2.1c0.5-2.3-2.3-7.6-4.5-7.9c-2-0.2-3-1.4-4.2-2.7
			C656.6,496.8,652.5,495,647.9,493.7z M471.2,648.4c0-0.3-0.3-1.6-1.4-2.4c-2.5-1.8-5-3.6-7.5-5.4c-2.4-1.7-5.2,0-5.2,3
			c0.1,3.9,1.6,7.3,4.9,9.5C465.6,655.4,471,652.9,471.2,648.4z M269.8,686.3c2.4-0.3,4.9-1,6.4-3.6c1.3-2.4,0.6-5.1-1.7-5.6
			c-3.3-0.7-5.7-3-8.9-3.7c-1.1-0.2-2-1.2-3,0.1c-0.9,1.1-1.4,2.4-0.7,3.8c1.4,2.6,2.8,5.3,4.7,7.6
			C267.4,685.8,268.3,686.4,269.8,686.3z M316,357.1c2.2,5.9,2.6,6,6.6,1.6c0.1-0.1,0.2-0.2,0.3-0.3c1.7-1.2,2.7-2.9,1.4-4.8
			c-1.5-2.2-5.8-3.3-6.2-3c-3.1,2.3-6.9,2.1-10.1,3.6c-1.8,0.9-2.1,2.5-1.1,4C309.3,361.7,314.1,361.2,316,357.1z M197.6,723.8
			c1.6,0,4-0.5,6-2c2.1-1.6,2.3-3.1,0.5-5.3c-2.2-2.6-4.8-3-7.9-2.6c-4.3,0.5-7.1,2.4-7.1,5.2C189.1,721.4,192.8,723.7,197.6,723.8z
			 M430.7,647.1c-3-1-5.5,0.6-8,2c-1.3,0.7-2.1,1.8-1.8,3.4c0.3,1.6,1.4,2.3,2.9,2.3c1.4,0,2.6,0.7,3.8,1.4c1.8,1.2,3.6,2.5,5.6,0.5
			c2-2,4.4-3.8,3.1-7.3C435.2,646.7,433.1,646.6,430.7,647.1z M617.6,531.7c-2-0.1-3.9,0-4.3,2.5c-0.4,3,0.2,6.1,3.1,7.3
			c2.2,0.9,3.9,1.7,5.1,3.8c0.7,1.3,2.2,1.8,3.5,0.6c1-0.9,2.9-2.1,1.6-3.6c-2.2-2.5-2.9-5.7-4.7-8.4
			C620.9,532.2,619.6,531.2,617.6,531.7z M537.5,478.3c-0.2,3.7,1.4,6.4,4,6.1c3.5-0.5,4.8,1.7,5.1,4.1c0.5,4.3,3.7,6,6.4,8.3
			c1.7,1.5,2.8,0.6,3-1.3c0.2-1.4-0.4-2.6-1.4-3.7c-2.3-2.6-4.8-5.1-6.2-8.4c-0.3-0.7-0.8-1.4-1.7-1.2c-2.9,0.6-4.4-0.3-4.5-3.5
			c-0.1-1.6-1.6-3.1-3.3-3.1C537.3,475.4,537.7,477.2,537.5,478.3z M712.6,711.8c-0.1,2.4,0,2.4,3.2,5.2c0.8,0.8,1.5,1.8,2.8,1.1
			c1.1-0.6,1.3-1.7,1.3-2.9c0-6.8-3.3-10.1-10.1-9.6c-2.5,0.2-5.5,4.5-4.5,6.8c0.6,1.5,2.1,2.2,3.6,2.2c2,0,1.5-1.5,1.3-2.7
			c-0.2-1.2,0-2.5,1.5-2.5C713.1,709.5,712.8,710.8,712.6,711.8z M240,682.6c-0.1,1.8-0.9,4,1.2,4.7c1.9,0.6,4-0.1,5.6-1.3
			c1.4-1,1.9-2.6,1.5-4.3c-0.8-2.9-1.6-5.8-2.4-8.6c-0.6-2-1.8-2.5-3.7-1.4c-1.8,1.1-3.2,2.2-2.7,4.7
			C240,678.5,239.9,680.6,240,682.6z M745.9,524.8c0-2.2-3.5-6.9-5.2-7c-3.2-0.2-7.2,2.5-7.3,5c-0.1,3.5,3.4,7.1,7.1,7.3
			C742.8,530.2,745.9,527.2,745.9,524.8z M459.3,429.1c0-3-1.5-9.2-2.8-12c-0.3-0.6-0.5-1.6-1.5-1.3c-0.9,0.3-0.8,1.2-0.8,1.9
			c-0.1,3.1,0.7,6.2,0.1,9.3c-0.4,1.9-0.9,3.3-3.1,3.5c-1.8,0.2-3.3,0.7-2.9,3c0.4,2,1.7,2.9,3.7,3
			C456.5,436.7,459.3,433.8,459.3,429.1z M790.2,707.7c0.2,3.1,0.2,6,2.9,6.3c2.3,0.3,2.8-2.4,3-4.4c0.4-3,2.5-4.5,5.2-5.2
			c2-0.5,2.8-1.6,2-3.6c-0.5-1.4-6.3-3.4-7.3-2.3C793.2,701.3,791.4,704.8,790.2,707.7z M229.8,695.3c-0.1-1.6,0.3-3.7-2.5-3.9
			c-4.5-0.3-7,1.6-7.2,5.6c-0.2,4,2.2,8.3,4.8,8.4C227.5,705.4,229.5,701.6,229.8,695.3z M608.4,654.1c0.4-3.4-0.1-5.2-3-5.4
			c-1.2-0.1-1.8-1.2-2.4-2.1c-1-1.4-1.9-3-3.1-4.2c-1.8-1.7-3.9-0.9-5.3,0.5c-1.6,1.5-0.5,3,0.9,4.1c2.9,2.2,5.5,4.5,7.4,7.7
			c1,1.6,2.9,2.3,4.6,1.9C609.2,656.3,608.4,654.4,608.4,654.1z M236.8,713.4c-3-0.2-5.3,1.2-7.2,3.7c-2.3,3.1-1.9,4.8,1.7,6.2
			c2.6,1,8.5-1.6,9.5-4.2C242.6,714.9,241.7,713.5,236.8,713.4z M265.8,703.2c-0.1-2.1-0.7-4.1-2.9-5.5c-2-1.2-3.6,0.4-5.3,0.4
			c-2.5,0-4.6,0.2-4.4,3.4c0.2,3,1.7,4.6,4.8,4.3c0.9-0.1,1.7,0.2,2.4,0.7C263.6,708.5,265.7,707.2,265.8,703.2z M680.5,405.1
			c0-0.9,0-1.7,0-2.6c-0.1-1.5-0.1-3.1-1.9-3.6c-1-0.3-2.1,0.1-2.6,1c-0.8,1.5-1.1,3.6,0.3,4.5c2.5,1.8,2.8,4.4,3,6.9
			c0.5,5.9,3,11.3,3.4,17.2c0.1,1,0.5,2.1,1.7,2.1c1.1,0,1.1-1.2,1.3-2c0.6-2.2-0.2-4.1-1-6.1C682.3,416.9,681.4,411,680.5,405.1z
			 M408.3,762.2c4.1,0,5.4-1.3,5.4-4.8c0-3.8-2.3-4.1-5.3-3.7c-2.1,0.2-4.2,0.7-6.5,0c-2.3-0.7-2.8,1.8-1.8,3.1
			C402.1,759.4,404.1,762.6,408.3,762.2z M374.9,764.6c-0.2-1.3-1.2-1.8-2.1-1.6c-5.3,1.6-11,2.2-14.9,6.6c-1.5,1.7-0.5,3.2,0.8,4.6
			c1.4,1.5,2.4,0.9,3.8-0.2c3.1-2.4,5.7-5.5,9.7-6.6C373.4,767.1,374.5,766.1,374.9,764.6z M275.5,769.6c0.4,0,1,0,1.6-0.2
			c2.7-0.8,4.9-2.4,7.1-4c1.6-1.2,5.3-0.1,4.9-2.7c-0.3-1.8-3.8-1.1-5.9-1.7c-4.9-1.4-8.3,0.3-10.5,4.4
			C271.3,768.2,272.1,769.6,275.5,769.6z M234.4,662.7c-0.1,2.4,0.5,4,2.9,4.3c2.7,0.3,7.8-2.5,8.2-4.6c0.3-1.8,0.6-3.8-1.7-4.8
			c-1.5-0.7-2.8-2.6-4.7-1.1C236.9,658.2,233.8,659.3,234.4,662.7z M438,305.1c0.1-1.4-0.8-2.3-3.4-1.7c-4.9,1-6.5,5.7-9.3,8.9
			c-0.7,0.8-0.4,2.5,0.9,3.3c1.3,0.8,2.5,0.3,3.3-0.8c1.1-1.4,2.2-3.3,3.9-3.1C437.9,312.1,437.5,308.9,438,305.1z M521.4,415.1
			c-0.9-5.7-1.9-11.4-5.1-16.4c-0.6-0.9-0.7-2.4-2.2-2c-1.4,0.4-1.7,1.9-1.4,3.1c1.5,5.4,3.1,10.7,4.8,16c0.3,1.1,1.2,2,2.6,1.6
			C521.3,417.1,521.5,416.1,521.4,415.1z M279.2,705.2c0-2.4-0.6-3.6-2.7-3.2c-2.4,0.5-6-0.4-5.2,3.9c0.4,2.4,0.6,4.6-0.1,6.9
			c-0.4,1.3-0.4,2.9,1.4,3.4c1.6,0.4,3.5-0.2,3.8-1.7C277.1,711.1,277.8,707.7,279.2,705.2z M670.3,527c0.1,1.6,0.4,3.3,2.5,3.8
			c1.8,0.4,3.2-0.3,3.9-2.1c0.4-1,1.1-1.5,1.9-2.1c1.8-1.5,2.2-3.6,1.7-5.8c-0.4-2.2-2.6-1.7-4-2C674,518.3,670.3,523.3,670.3,527z
			 M515.5,582.3c-4.2,0-7,1.9-7.2,4.8c-0.1,2.3,3,4.5,6.7,4.6c2,0.1,5.3-3.2,5.2-5.5C520.1,583.2,517.7,582.5,515.5,582.3z
			 M511.5,269.1c2.9-0.9,6.8,0.4,8.7-3.9c1.1-2.5,1.1-3.4-1.8-4.1c-3.3-0.7-6.2-0.3-8.9,2c-1.2,1.1-2.4,1.8-2,3.5
			C508,268.6,509.4,269.2,511.5,269.1z M397.8,398c2.1-0.7,4.7-1.5,7.2-2.4c0.9-0.3,1.1-1.4,0.8-2.3c-0.3-1-1.1-1.7-1.9-1.3
			c-1.8,1.2-2.9,0.3-4.5-0.7c-1.6-1-3.6-0.8-5.1,0.8c-1,1.1-2.3,1.9-3.4,2.9c-0.9,0.8-2.7,1.2-1.9,2.7c0.7,1.2,2.3,1.3,3.7,1.2
			C394.3,398.8,395.5,397.2,397.8,398z M580,591.9c0-4.6-2.8-7-7.9-6.9c-1.5,0-1.5,0.9-1.5,1.9c0,5.1,2.6,8.6,6.5,8.6
			C579.7,595.5,579.9,593.6,580,591.9z M586,516.1c1.6-0.1,2.8-0.1,3.4-1.3c0.4-0.9,0.1-1.8-0.7-2.3c-3.6-2.3-6-5.8-8.8-9
			c-0.8-0.9-1.8-2.1-3.2-0.9c-1,0.8-0.7,2-0.2,3.1c1.7,3.9,4.8,6.7,7.5,9.7C584.5,516,585.6,516,586,516.1z M706,747.6
			c-0.1-2.6-1.2-5.1-3.6-6.4c-2.4-1.2-2.7,1.9-4.1,2.9c-0.8,0.6-1.4,1.4-2.2,2c-0.9,0.7-2,1.3-1.5,2.7c0.4,1.2,1.7,1.3,2.7,1.8
			c2,0.9,3.8-1,5.8-0.3C705.6,751.3,705.9,749.6,706,747.6z M661.6,517.7c-0.1-3.3-1.4-4.5-3.9-3.7c-1.6,0.5-2.6,0-3.8-0.8
			c-1.2-0.8-2.4-0.8-3.2,0.5c-0.8,1.4,0.5,2,1.4,2.6c1.6,1.2,3.4,2.1,3.7,4.4c0.3,1.7-0.7,4.5,1.9,4.6c2.3,0.1,2.5-2.7,3-4.6
			C661.2,519.6,661.5,518.4,661.6,517.7z M375.2,488.5c-1.2,0-3.1-0.6-3.9,1.3c-0.7,1.5,0,3.1,1.3,3.9c1.8,1.1,3.8,1.9,5.8,2.4
			c1.9,0.5,2.9-1.2,3.6-2.7c0.8-1.6,2-3.3,1-5.3c-0.6-1.1-1.7-0.7-2.7-0.3C378.8,488.6,377.2,488.9,375.2,488.5z M451.5,265.7
			c-3.5,0-6.6,1.9-6.6,4.2c-0.1,2.4,2.8,4.8,5.8,4.5c2.6-0.2,4.9-1.4,5.4-4.2C456.5,268.3,453.6,265.7,451.5,265.7z M429.8,258.5
			c-0.6,0.1-2.1,0.4-3.5,0.8c-1,0.3-1.8,0.9-1.9,2.1c0,1.1,0.6,2.1,1.5,2.3c2.9,0.9,5.9,2.1,9,1.4c1.5-0.3,3.1-0.9,3.1-2.7
			c0-2-1.5-3-3.4-3.4C433.4,258.8,432,258.7,429.8,258.5z M462.3,698.6c0-5.1,0-5.1-5.5-7.1c-1.7-0.6-3.2-0.8-4.2,1.1
			c-1,1.8,0,3.1,1.4,4.1c1.3,0.9,2.8,1.6,3.6,3.1c0.8,1.3,1.5,3.4,3.5,2.6C463,701.8,462.1,699.8,462.3,698.6z M176.9,723.3
			c-1.7,0.3-3.7,0.5-4.3,2.3c-0.6,2,1.4,2.6,2.8,3.3c1.4,0.6,2.5,1.6,3.7,2.4c2.2,1.3,4.2,0,5.6-1.4c1.2-1.2,0.9-2.9-0.6-3.8
			C182,724.5,179.6,723.6,176.9,723.3z M379.7,257.4c-1-1.7-1.9-3.3-3.9-2.1c-1.4,0.8-3.5,1.5-3.1,3.7c0.4,2.2,2.5,2.3,4.1,2.3
			c2.5,0.1,5,0.2,7.3-0.8c1.2-0.6,3.2-0.9,2.8-2.9c-0.4-2-2.5-2.3-4-2.8C381.3,254.3,381,256.3,379.7,257.4z M417.4,471.9
			c0,4.7,1.6,7.5,4.3,7.2c3.3-0.3,3.5-3.1,3.7-5.5c0.2-3.4-1.4-4.6-5-4.9C417.7,468.5,417.3,470,417.4,471.9z M593.6,427.5
			c1.1,2.8,2.5,6.6,4.2,10.3c0.6,1.3,1.7,0.7,2.4-0.2c1-1.4,0.9-3,0.3-4.6c-0.9-2.4-2.1-4.7-2.6-7.4c-0.2-1.3-0.9-3-2.5-2.8
			C593.5,423,593.8,425,593.6,427.5z M435.2,457.1c-0.9,1.6-0.6,3.1-0.6,4.6c0,1.3-0.2,2.9,2,2.9c1.9,0,4.2,0.9,5-1.8
			c0.7-2.3,1-4.7,0.6-7c-0.3-1.3-0.8-3.1-2.5-2.8c-1.6,0.3-2.5,2-2.5,3.7c0,0.6,0.4,1.2,0.6,1.7c0.3,0.7,0.5,1.6-0.4,1.9
			c-1,0.3-1-0.8-1.2-1.5C436,458.4,436.1,457.7,435.2,457.1z M409.3,730.6c-3-0.9-4,2.3-5.6,4.6c-0.6,0.9-0.8,2.1,0.1,2.8
			c2.4,1.9,4.5-0.2,6.7-0.7c0.4-0.1,0.7-0.2,1-0.4c1.7-0.8,2.8-2.3,2.5-4.2C413.8,730.5,411.8,730.9,409.3,730.6z M470.3,238.1
			c-0.1-1.1-0.8-1.8-1.7-2.3c-0.8-0.5-1.7-1-2.3,0.1c-1.1,2.2-2.1,1.5-3.3,0.1c-0.7-0.8-1.6-1.2-2.7-0.7c-1,0.5-1.5,1.3-1.4,2.4
			c0.4,2.7,2.1,4.5,4.3,5.7c2.2,1.2,2.2-1.4,3.3-2c0.8-0.4,1.5-0.9,2.2-1.3C469.7,239.7,470.3,239.1,470.3,238.1z M476.7,261.1
			c-1.6,0.1-3.2,0-4.1,1.5c-0.7,1.1-0.4,2.2,0.4,3.1c1.8,2.2,7.2,2.8,9.5,1c0.9-0.7,1.5-1.7,1.3-2.9c-0.2-1.3-1.2-1.7-2.4-1.9
			C479.8,261.7,478.2,261.3,476.7,261.1z M550.3,511.6c0,1-0.1,2,0,3c0.1,0.8,0.3,1.5,1.2,1.7c0.7,0.1,1.3-0.3,1.5-0.9
			c1.1-2.4,3.1-3.3,5.5-4c1.9-0.6,1.9-2.6,0.3-3.5c-2-1.1-4.5-2.2-6.7-1.5C549.9,507.1,550.3,509.6,550.3,511.6z M326,722.5
			c-2.9,0-4.4,1.3-4.3,3.4c0.1,1.9,3.4,5.5,5.1,5.3c2.6-0.2,3.6-1.8,3.6-4.3C330.4,723.7,328.7,722.3,326,722.5z M463.6,446.4
			c-1.6-1.7-0.9-5.2-3.3-6c-2.1-0.7-4.5,0.7-6.2,2.5c-0.6,0.7-2,1-1.4,2.3c0.5,1.1,1.6,1.7,2.8,1.4c2.1-0.4,3.6,0.3,5,1.8
			c0.5,0.6,1.3,0.9,2,0.5C463.3,448.4,463.6,447.6,463.6,446.4z M453.3,252.1c-0.1-1-0.1-2.6-1.8-2.6c-2.2,0.1-4.5-0.1-6.5,1
			c-1.6,0.9-2.7,2.4-1.6,4.3c1,1.7,2.5,2.4,4.4,1.3c0.9-0.5,1.7-1,2.8-0.9C453,255.6,453.4,254.1,453.3,252.1z M219.4,386
			c2,0.4,4.2-0.3,6-2.1c0.9-1,1.3-2.2-0.3-2.6c-3-0.7-6.1-1.7-9.1-0.1c-0.9,0.5-2.4,0.7-2.1,2.2c0.2,1.3,1.3,2.2,2.5,2.5
			C217.1,386.2,218,386,219.4,386z M534.4,655.5c0,0.3-0.3,1.5,0.8,2.3c0.6,0.4,1.2,0.2,1.7-0.1c2.6-1.6,4.4-8.1,3-10.8
			c-0.4-0.7-0.8-1.3-1.6-1.4c-1-0.1-1.7,0.5-2,1.4C535.7,649.5,534.2,651.9,534.4,655.5z M254,387.7c3.3,0.1,6.3-1,8.9-3.1
			c0.6-0.5,1.8-0.8,1.4-1.9c-0.4-1-1.5-0.7-2.3-0.7c-3.7,0.2-7,2.3-10.8,2.3c-0.9,0-1.4,1-1.4,1.9c0,1.1,0.8,1.5,1.7,1.5
			C252.3,387.7,253.1,387.7,254,387.7z M546.2,334.9c1.7-0.4,3.5-1.1,4.3-2.6c1.1-2.2-0.8-3.7-1.9-5.2c-1.4-1.8-1.9,0.4-2.9,0.8
			c-0.6,0.3-1.4,0.4-2.1,0.4c-2.8,0.1-2.6,2-1.9,3.6C542.5,333.6,544.4,334.3,546.2,334.9z M730.7,595.4c0-0.7-0.1-1.4-0.9-1.5
			c-1.1-0.2-1.7,0.6-1.9,1.4c-0.8,2.8-3,4.2-5.2,5.6c-1.8,1.2-2.9,2.7-2.9,4.9c0,0.9,0.2,1.8,1.2,2.1c0.9,0.2,1.4-0.4,1.8-1.1
			c0.9-1.5,2.4-2.5,3.5-3.8C728.1,600.7,730.1,598.4,730.7,595.4z M533.7,727.7c-0.3-2.5-0.4-5.4-3.9-5.6c-2.3-0.1-3.2,1.8-3.4,3.7
			c-0.2,2.7,2.5,5.6,5,5.5C533.8,731.2,533.6,729.4,533.7,727.7z M591.7,468.7c0.2-0.1,0.7-0.1,1.2-0.3c1.3-0.6,1.7-1.8,1.5-3.1
			c-0.5-3.1-2.9-4-5.5-4.8c-1.1-0.3-2.2-0.5-2.9,0.7c-0.2,0.3-0.3,0.7-0.3,1.1C585.4,464,589.5,468.6,591.7,468.7z M383.4,428.6
			c0.6,0,10.2-6.7,10.3-7.3c0.2-1.4-0.1-2.8-1.8-2.1c-3.4,1.5-6.8,3-9.5,5.7c-0.7,0.7-1,1.4-0.7,2.3
			C382,428.1,382.6,428.5,383.4,428.6z M441.4,702.2c0.2,0.9,0.3,2.3,0.7,3.6c0.2,0.8,1,1.5,1.6,0.8c1.7-2,4.1-3.7,4.1-6.7
			c0-1.6-1-2.9-2.6-3.1c-1.8-0.2-3.1,0.6-3.6,2.5C441.5,700,441.5,700.9,441.4,702.2z M280.5,389.2c1.9,0.1,3.7,0.2,5-1.3
			c1.1-1.2,1.1-2.5-0.8-2.6c-4-0.1-7.8,1.4-11.3,3.2c-1.4,0.7-1.4,2.3,0,3.4c1.3,1.1,2.3,0.6,3-0.7
			C277.4,389.7,278.6,388.5,280.5,389.2z M446.9,757.7c-1.6,0.1-3.4,1.3-5,2.9c-0.9,0.9-1.1,1.9-0.2,2.9c0.9,1,1.9,1.6,3.2,0.6
			c1-0.7,1.9-1.8,3.3-1.4c1.9,0.5,2.8,0,2.8-2.1C451.1,758.4,449.7,757.8,446.9,757.7z M649,531.7c-0.7,0.9-2.6-1.2-3.2,1
			c-0.2,0.8,0.5,1.6,1.2,1.7c3.2,0.5,5.5,2.6,8.2,4.1c2,1.1,2.4,0,2.2-1.7C657.2,533.4,653.7,531.3,649,531.7z M689.9,740
			c1.2-0.2,2.2-0.9,2.3-2.5c0.1-2.2-3.4-5.3-5.6-5.1c-1.8,0.2-2.9,1.3-2.7,3.3C684.1,737.9,687,740.1,689.9,740z"/>
		<path d="M542.9,252.6c0.4-1.4,0.5-1.8,0.7-2.2c0.7-1.2,1.2-2.4,0-3.4c-1.4-1.2-2.3,0.2-3.2,1c-1.2,1.1-2.6,2.6-4.1,0.7
			c-1-1.4-3.7-1.9-2.8-4.3c0.4-1.3,7.5-3.5,8.4-2.7c1.7,1.5,1.9,0.5,2.4-1c1.1-3.3,2.5-2.6,5.5-1.4c5.8,2.4,8.7,7.7,13.4,11.1
			c2.6,1.9,5.7,2.4,8.5,3.6c2.2,0.9,3.8-0.9,4.7-2.8c2.2-5,3.3-5.6,8.5-0.8c3.6,3.3,8.6,4.8,11.6,9.1c1.1,1.6,2.7-0.3,3.6-1.5
			c1-1.3,2.1-2.6,3.6-0.9c1.2,1.4,4.4,1.9,2.4,4.9c-1.7,2.5,0.5,4.5,0.7,6.8c0.2,2.3,0.4,4-2.7,2.7c-1-0.4-2-0.2-2.9,0.1
			c-0.6,0.2-1.5,0.7-1.8,0.4c-3.2-2.3-7.7-0.7-10.5-3.3c-3.2-3-7.4-2.7-10.7-4.5c-3.6-2.1-7.7-3.7-10.9-6.2c-2.6-2-4.1-4.7-7-0.8
			c-0.6,0.8-10.1-1.9-10.2-2.8c-0.1-1.1,0.1-2.2,0.2-3.3c0.2-1.4,0.6-2.7,0.5-4.1c-0.2-1.5-0.3-3.8-2.3-3.6c-1.6,0.2-1.2,2.3-1,3.5
			C547.9,250.2,545.1,250.5,542.9,252.6z"/>
		<path d="M230.8,356.7c0.2-4.6,4.3-6,6.1-9c0.3-0.6,1.2-0.4,1.6,0.2c1.5,2.3,1.2,4.8,0.8,7.3c-0.4,2-2.3,1.3-3.6,1.8
			c-5.1,2.1-11.4,0.9-15.6,5.3c-0.4,0.5-1,1-1.6,0.4c-0.4-0.4-0.5-1.1-0.5-1.7c0.1-1.2,0.6-2.4-0.2-3.6c-0.5-0.7-1.8-1.6-0.5-2.5
			c1-0.7,2.1,0,3.2,0.5c1,0.4,1.6,2.9,2.8,1.2c1.1-1.5-0.4-2.7-1.9-3.4c-0.8-0.4-1.5-0.9-2.1-1.5c-3.2-3-7.5-2.4-11.4-3.3
			c-1.8-0.4-2.2,1.5-2,3.2c0.1,1.1,0,2.4-1.5,1.5c-3.6-2.2-4.5,0.6-5.2,2.9c-1.9,5.7-6.7,7.3-11.4,3.6c-2.3-1.8-2-4.6-1.8-6.5
			c0.5-3.5-0.5-6.6-0.8-9.9c-0.2-2.5,0.5-3.3,2.6-3.3c2.9,0,4.7-0.7,3.2-4.2c-0.6-1.5,0.2-2.7,1.9-2c2.8,1,5.9,0.9,8.6,2.6
			c1.3,0.8,2.7,1.3,4.2,0.2c2.2-1.6,3.4-0.4,3.5,1.7c0.2,3.3,2.1,4.1,5,4.1c3.8,0,6.9,1.7,10,3.6c1.8,1.1,1.7,3,2,4.6
			C226.9,353.2,227.9,355.3,230.8,356.7z"/>
		<path d="M218.8,624c2.6-1.2,3.7-2.3,2.5-4.4c-1.5-2.9-1.6-5.7,0.1-8.6c0.4-0.6,0.5-1.4,0.6-2.1c0.2-1.1,0.5-2.5-0.9-2.9
			c-1.2-0.3-2.1,0.5-2.5,1.7c-0.4,1.1-0.5,2.9-2.2,2.3c-1.6-0.5-1.5-2.1-1.3-3.5c0.5-3-1.8-5-2.7-7.6c-0.3-0.9-1.5-1.4-2.6-1.1
			c-1.3,0.3-1,1.6-1.1,2.5c-0.1,0.9,0.4,2.4-0.8,2.6c-1.5,0.3-1.5-1.4-1.8-2.4c-1.9-5.5-1.9-5.6,3.9-6.4c2.1-0.3,2.9-2,4.3-3.2
			c0.3,0.5,0.7,0.9,0.6,1.1c-1,3-1.3,5.1,3.2,3.9c1.7-0.5,2.7,1,1.9,2.9c-0.3,0.8-1,1.8,0.2,2.3c1.2,0.5,1.7-0.7,2.2-1.5
			c0.8-1.1,0.5-3.9,2.3-3.1c2.1,1-0.1,2.7-0.7,4c-0.5,1.2-1.3,2.4-0.6,3.5c3.3,5.6,0.5,11.5,0.7,17.1c0.2,4.4-5.3,6.3-7.4,9.9
			c-0.1,0.2-0.8,0.2-1,0.1c-0.7-0.4-0.5-1-0.3-1.6c1.3-4.2,1.3-4.2-3.1-3.9c-1,0.1-2,0-3-0.1c-0.9-0.1-1.8-0.3-2.1-1.3
			c-0.4-1.2,0.8-1.4,1.5-1.7c1-0.5,1.4-1.4,1.9-2.3c1.2-1.9,2.7-2.5,4.7-1.2c0.4,0.3,0.9,0.9,1.2,0.8
			C220.5,618.7,219.6,621.2,218.8,624z"/>
		<path d="M488.7,218.5c0,0.9,0.1,1.8-0.2,2.6c-0.7,2.1-0.7,6.1-2.6,5.9c-2.5-0.3-6.5-0.1-7.5-4.2c-0.3-1.4-1.5-1.3-2.3-0.5
			c-2,1.7-4,1-5.9,0c-1.3-0.7-2.4-0.8-3.9-0.3c-2.8,0.9-4.1-0.4-3.7-3.3c0.1-0.7,0.5-1.5-0.4-1.9c-0.8-0.3-1.5,0.3-1.9,0.9
			c-0.7,1-1.2,2.2-2,3.1c-0.9,1-2.2,1.3-3.3,0.2c-1-1-0.8-2.2,0.2-2.9c1.9-1.4,2.6-3.2,3-5.3c0.3-1.7,2.3-2.4,2.9-0.7
			c1.5,4.2,6.6,3.2,8.5,6.8c0.6,1.2,2.1-0.2,2.2-1.4c0.3-2.4,1.5-2.4,3.4-1.7c1.8,0.6,3.6,0.3,4.8-1.2c2.2-3,4.6-1.3,7-0.6
			C489.6,214.7,488.7,216.8,488.7,218.5z"/>
		<path d="M698.1,400.1c0,3.7-0.1,6.8,0,9.8c0,1.1,0.4,2.4,1.8,2.6c1.2,0.1,1-1.2,1.3-2c0.9-2.4,3.2-3,5.3-3.6
			c1.3-0.3,2.4,0.5,3,1.8c0.5,1,0.4,2-0.3,2.8c-0.8,1-2,1.2-3,0.5c-1-0.6-1.7-1.6-2.6,0.2c-0.7,1.6-0.8,3.1,1,3.7
			c3.3,1.1,5.3,3.5,7.6,5.8c2,2.1,2.4,3.8,0.7,6.5c-2.7,4.2-2.6,9.6-4.4,14.2c-0.3,0.8-0.2,1.8-1,2.3c-3.4-4.8-3.2-7.3,0.9-11.6
			c2.4-2.6,1.7-5.9,1.7-8.8c0-2.3-2.6-3.8-5.4-3.4c-0.8,0.1-1.4-0.4-1.8-1.1c-1.3-2.1-2.7-3.9-5.6-3.4c-0.5,0.1-1.3-0.4-1.5-0.9
			c-1.5-2.7-2.9-5.5-4.2-8.3c-0.4-0.9-0.4-2.2,0.5-2.7c1.2-0.7,1.3,0.7,1.7,1.3c0.4,0.5,0.7,1.1,1.5,0.9c0.9-0.2,1-0.9,1.2-1.7
			C696.7,403.6,696,401.9,698.1,400.1z"/>
		<path d="M501.4,776.7c-1.7,1.5-2.9,2.8-5.1,2.5c-1.8-0.3-1.6,1.9-2.2,3c-0.5,0.8-0.8,2.1-2,1.9c-1.1-0.2-0.9-1.3-1.1-2.1
			c-0.2-0.9,0.1-2.3-1.3-2.3c-1.4,0-1.6,1.4-1.8,2.5c-0.4,2.8,0.6,5.8-1.5,8.3c-0.8,1-1.3,3.1-2.9,1.8c-1.3-1-3.1-2.4-1.8-4.7
			c0.8-1.3,1.5-2.6,2.2-3.9c0.4-0.8,0.9-1.7-0.1-2.3c-0.9-0.5-1.9-0.1-2.3,0.6c-2.2,3.3-3.6,2.3-5.1-0.6c-1-1.8-5.2-2.6-2.7-5.4
			c2-2.2,3.8,1.1,5.6,2c3,1.4,6.6,1.1,8.5-1.6c1-1.4,1.6-2,2.6-0.1c0.4,0.7,0.9,1.4,1.7,1c1-0.4,1.1-1.3,1.1-2.2
			c0-2.8,0.5-4.4,3.4-1.8c1.6,1.4,3.5,1,5.1-0.4c1.4-1.2,2.4-1.6,2.4,1c-0.1,2.1,1.5,1.4,2.7,1.4c1.2,0,2,0.6,1.9,1.8
			c-0.1,1.4-1.1,1-1.9,0.7c-0.9-0.3-1.8-0.2-2.4,0.5C502.1,780.7,501.6,779,501.4,776.7z"/>
		<path d="M624.2,270.4c-0.1-0.4-0.3-1-0.6-1.5c-0.3-0.8-0.7-1.7,0.1-2.4c0.7-0.8,1.6-0.6,2.4-0.3c2.6,1.1,5.2,2.2,7.1,4.6
			c2,2.6,1,3.9-1.4,4.7c-4,1.4-8,2.7-12,3.9c-2.1,0.6-10.6-4.2-11.1-6c-0.3-1.4,1.1-1.8,1.8-2.6c1-1.1,2.2-1.8,3.6-0.7
			c1.5,1.1,2.8,2.5,4.2,3.7c1.1,1,2.3,1.6,3.7,0.8C623.6,273.8,624.5,272.5,624.2,270.4z"/>
		<path d="M333.2,228.6c0.1-4.3,3.5-5.9,8.6-3.9c1.7,0.7,3,2.9,4.5-0.9c0.5-1.3,5.6-1.4,8.5,0.2c2.1,1.2,2.9,2.9,2,5.4
			c-0.6,1.6-1.6,2.5-3,1.1c-1.8-1.7-2.6-0.6-3.9,0.6c-1.4,1.2-3.2,3.1-4.6-0.2c-0.2-0.5-0.8-0.9-1.2-0.6c-2.3,2-4.7,1.3-7.4,1.2
			C333.7,231.2,333.1,231.4,333.2,228.6z"/>
		<path d="M677.3,771c-0.9-0.1-1.5,0.3-1.7,0.9c-1.1,3.2-4.3,4.4-6.2,6.9c-1.7,2.2-4.1,2.8-6.4,1.9c-2.5-1-4.5-3.1-5.1-5.6
			c-0.6-2.3,1.7-2.8,3.2-2c4.5,2.4,7.9,0.5,11.2-2.3c0.6-0.5,1.6-0.6,1.5-1.5c-0.1-0.9-1-1-1.7-1.1c-1.3-0.3-2.8-0.6-1.8-2.4
			c0.7-1.3,2-1.3,3.2-0.5c2.2,1.5,3.4,4.9,7.1,3.6c0.6,1.9,1.2,3.9,1.8,5.8c0,0.1-0.5,0.6-0.8,0.7c-1,0.2-1.6-0.5-2-1.3
			C679,772.8,678.7,771.4,677.3,771z"/>
		<path d="M217.5,315.3c-2.1-2.5-4.5-1.7-6.3-2.9c-1.7-1.1-4.1-1.4-4.4-3.9c-0.5,0.1-0.9,0.1-0.9,0.2c-2.5,4.1-2.5,4.1-6.5,1.5
			c-1.7-1.1-4.1-1.4-5-3.7c-0.5-1.2-1-2.4,0.1-3.5c1-0.9,2.1-0.5,3.1,0c2.7,1.3,5.4,2.4,8.5,1.9c0.9-0.2,1.8,0.1,2.3,1
			c0.8,1.4,2.3,2.1,3.7,2.2C216,308.4,217,310.9,217.5,315.3z"/>
		<path d="M759.4,464.2c0.1,2.2-0.3,3.6-2.1,4.1c-1.9,0.6-3.7,0.7-5.3-0.7c-1.4-1.2-1-2.6-0.4-4.1c0.7-1.7,1.2-3.5,1.7-5.3
			c0.4-1.4,0-2.9-1.4-3.6c-2.6-1.3-2.8-4-3.8-6.2c-0.4-0.8-0.5-1.8,0.6-2.2c1-0.4,1.7,0.3,2.1,1.1c0.4,0.8,0.5,1.7,0.7,2.5
			c0.3,1,0.7,2.2,2,1.7c3.5-1.3,3.3,0.6,3.4,3.1C756.7,458.3,759,461.3,759.4,464.2z"/>
		<path d="M802.1,497.7c-5.1-2.2-3.5,0.2-2,2.7c0.6,1.1,0.2,1.9-0.7,2.6c-0.9,0.8-1.8,1.9-3.2,1.4c-1.1-0.4-1.3-1.5-1.3-2.5
			c-0.1-4.4,0.1-8.6-3.2-12.3c-1.1-1.3,0.2-2.6,2-2.1c0.9,0.2,1.9,0.7,2.7,1.3c2.8,2.4,5.6,3.9,8.7,0.5c0.4-0.5,1.2-0.5,1.6,0.2
			c0.5,0.8,0.1,1.5-0.5,1.9c-2,1.3-4.8,2.1-2.9,5.5C803.5,497.4,802.6,497.8,802.1,497.7z"/>
		<path d="M214.1,642.4c-2.4,3.4-0.4,8.5-2.4,12.9c-0.6,1.3-1.1,3.2-2.3,3.1c-1.7-0.1-3.4-1.3-5-2.2c-0.2-0.1-0.3-0.9-0.1-1.3
			c0.2-0.5,0.8-0.5,1.3-0.3c3.8,1.5,3.3-0.1,1.9-2.6c-0.2-0.4-0.4-1.2-0.1-1.4c3-2.5,1.6-5.3,1-8.2c-0.3-1.5-0.4-3.2,1.7-4.1
			C213.4,636.9,214.1,637.4,214.1,642.4z"/>
		<path d="M723.8,461.8c-0.1-2.1,0.6-3.6,1.8-4.7c1-1,2.5-1.6,3.8-0.9c1.5,0.8,0.4,2.2,0,3.3c-1.6,4.4-0.4,8.3,3.4,11.5
			c0.9,0.7,1.8,1.3,2.6,2.1c0.6,0.6,1,1.6,0.4,2.4c-0.7,0.9-1.5,0.4-2.3,0c-3.3-1.5-5.8-4.2-8.5-6.4
			C723,467.4,724.7,463.9,723.8,461.8z"/>
		<path d="M163.9,695.3c-0.7-1.6-0.8-2.9,1-3.3c2-0.5,3,0.6,3.6,2.4c0.6,2.1,0.8,4.3,2,6.3c1.1,1.8-0.8,3-2.3,3.4
			c-1.9,0.5-3-0.6-3.3-2.5c-0.1-1,0.8-2.7-1-2.5c-1.7,0.2-2.7,1.8-2.3,3.6c0.3,1.4,0.9,2.6-0.3,3.8c-0.5,0.5-1.3,0.6-1.6-0.1
			c-0.6-1.4-1.8-2.7-1-4.5c0.3-0.8,0.6-1.7,0.7-2.5c0.1-1.9,0.6-3.2,3-2.4C163.7,697.3,164.4,696.7,163.9,695.3z"/>
		<path d="M654.5,769.7c1.2-2.9,3.5-3.9,5.8-5c2.7-1.2,5.7,0.5,5.7,3.6c0,1-0.2,1.9-1.5,1.2c-4.4-2.4-7.5,0.4-10.5,2.9
			c-1.5,1.3-2.7,2.3-4.5,0.9c-1.1-0.8-2.5-1.7-2.1-3.2c0.5-1.9,2.3-3,4.1-3.5C653.6,765.9,653.1,768.2,654.5,769.7z"/>
		<path d="M554.4,775.7c0,0.8-0.4,1.5-1.2,1.8c-1.1,0.4-2,0.2-2.6-0.8c-1.3-2-2.6-1.6-3.9-0.2c-2.2,2.2-5.3,0.9-7.8,2.2
			c-0.7,0.3-1.2-0.3-1.3-0.9c-0.3-2.2-1.9-3.4-3.3-4.9c-0.4-0.5-0.9-1-0.4-1.6c0.5-0.6,1.1-0.1,1.7,0.1c4.6,1.6,9.2,3.5,14.3,1.2
			C551.6,771.7,554.5,773.9,554.4,775.7z"/>
		<path d="M230.6,330.9c-0.4-1.5,0.1-2.8-0.6-3.9c-2-3.3,0-5.4,2.8-5.8c4.9-0.7,3.8-2.5,1.1-5.4c2.5,0,4.2,0.9,5.8,1.8
			c0.8,0.4,1.5,1.5,0.8,2.2C237.2,323.3,235.9,328.8,230.6,330.9z"/>
		<path d="M610.1,759.4c1.4,0.7,3.6,1.5,5.4,2.8c2.1,1.5,1.4,4.8-1.1,5.8c-1.5,0.6-2.2-0.2-2.2-1.5c0-1.6-0.2-2.9-2.2-2.5
			c-1.8,0.3-1.6,1.5-1.1,2.9c0.3,0.8,0.2,1.5-0.7,1.9c-0.7,0.3-1.6,0.3-2.1-0.3c-1.3-1.5-2.6-3.5-1.8-5.3
			C605.1,761,606.6,759,610.1,759.4z"/>
		<path d="M656.7,287.6c-0.1-2,1.2-2.5,2.9-2.1c3,0.6,6.8,6.7,6.1,9.6c-0.7,2.8-2.2,3-4.4,1.5C658.1,294.5,657.1,291.2,656.7,287.6z
			"/>
		<path d="M808.5,462.7c2.9,5.6-0.6,9.6-3,13.8c-0.6,1-1.2,2.1-2.6,1.7c-1.3-0.4-1.6-1.6-1.5-2.7C802,470.2,803.7,465.6,808.5,462.7
			z"/>
		<path d="M564.7,769.8c2.6,0.6,5,1.7,7.4,3c1.3,0.7,1.5,2.3,0.6,3.6c-1.1,1.6-2.4,3.3-4.8,2.6c-2.8-0.8-5.6-4.6-5.7-7.6
			C562.2,769.7,563.4,769.9,564.7,769.8z"/>
		<path d="M378.6,775.9c3.1-3.6,8.2-5.4,8.7-11.2c1.1,1.4,4,0.6,4,2.9c0,2-1.3,3.9-3.7,4.7c-1.6,0.5-2.5,1.8-1.9,3.5
			c0.7,2.1-1,2.9-2.1,4c-0.9,0.9-2,1-2.1-0.5C381.4,777.1,379.8,776.6,378.6,775.9z"/>
		<path d="M795.5,473.1c1.3,0.7,1.3,1.3,1.4,1.9c0.7,6.1,0.7,6.1,6.6,7.4c0.8,0.2,2,0.1,1.8,1.4c-0.2,1.2-1.5,1.6-2.4,1.2
			c-3.3-1.6-6.5-1.4-9.8-0.3c-1.3,0.4-2.2-0.5-2.5-1.7c-0.5-2,0.1-4.7,1.7-4.8C795.9,477.8,795.5,475.6,795.5,473.1z"/>
		<path d="M215.6,426.6c-1.3-0.9-0.7-3.1-2.6-3.1c-1.6,0.1-1.6,1.7-2.1,2.7c-1.3,2.7-5.3,3.2-7.3,0.9c-0.5-0.6-0.6-1.1-0.1-1.7
			c0.5-0.6,1.1-0.5,1.7-0.1c0.8,0.6,1.4,2,2.8,1c1.2-0.9,1.1-2.1,0.7-3.4c-0.6-2-0.1-2.8,2.1-2.5c2.7,0.3,5.5,0.2,8.2,0.4
			c0.7,0,1.6,0.1,1.8,1c0.2,0.8-0.3,1.5-1,1.8C218.3,424.6,216.8,425.3,215.6,426.6z"/>
		<path d="M672.7,332c-0.5-3.6,0.5-6.7,1.8-9.6c1.2-2.8,4.4-1.9,6.7-2c1.6-0.1,1.3,2.6,2,4c0.5,1-0.3,1.8-1.3,1.7
			C677.4,325.7,675.3,328.9,672.7,332z"/>
		<path d="M502.9,231.6c0-1.4,0-2.7-1-3.6c-1.9-1.7-1-3,0.3-4.4c0.7-0.8,0.9-2.3,2.4-1.8c1.3,0.5,1.9,1.8,1.7,3
			c-0.6,4-1.1,8.1-3.1,11.8c-0.3,0.6-0.7,1.4-1.3,1c-1.6-0.9-3.2-2-3.9-3.8c-0.2-0.6-0.3-1.3,0.2-1.7c0.8-0.7,1.3-0.1,1.8,0.5
			c0.5,0.6,0.8,1.9,1.8,1.5C503.1,233.7,502.8,232.5,502.9,231.6z"/>
		<path d="M719.4,769.7c1.5,0.2,3.5-0.3,4.2,1.5c0.8,2.2-1.3,2.5-2.6,3.4c-0.7,0.4-1.2,1.2-1.8,1.8c-1.1,1.1-2.3,1.5-2.9-0.2
			c-0.7-2.2-2.2-2.8-4.3-2.8c-0.8,0-2,0.1-1.9-1.2c0-1,1-1.4,1.9-1.6C714.3,770.3,716.8,770,719.4,769.7z"/>
		<path d="M640,778.9c-0.1,0.3-0.2,0.9-0.5,1.2c-1.7,2-1.2,3.6,0.7,5c1,0.8,1.6,1.7,0.6,2.8c-1.1,1.2-2,0.2-2.8-0.6
			c-0.9-1-1.8-1.6-3.1-1.9c-2.9-0.7-2.5-2.7-1.6-4.7c0.6-1.3,1.7-2.5,2.6-3.6c0.7-0.9,1.5-1.3,2.6-0.8
			C639.4,776.8,639.9,777.6,640,778.9z"/>
		<path d="M645.9,775.1c-0.1,1.4-0.6,2-1.7,1.5c-0.6-0.2-1.2-0.6-1.5-1.1c-2.3-4.1-5.8-6.9-9.7-9.3c-0.8-0.5-1.9-1.2-1.2-2.4
			c0.7-1.1,1.8-0.2,2.7,0c3.9,1,6.6,3.4,8.2,7C643.5,772.6,645.3,773.6,645.9,775.1z"/>
		<path d="M214.3,586.1c0-2.5,1-4.9,2.2-7.1c1.3-2.3,6.2-2.9,8.2-1.2c0.9,0.8,0.6,2.4-0.1,2.5C220.5,581.1,219,586.3,214.3,586.1z"
			/>
		<path d="M454.2,776.7c0.3-1.8,1.2-4,3.5-3.5c2.6,0.5,4.7,2.5,6.6,4.4c0.4,0.4-5.4,3.6-6.6,3.5C455.7,781,454.2,779.3,454.2,776.7z
			"/>
		<path d="M608.4,772.8c2.2,0.9,4.5,1.7,6.7,2.8c0.8,0.4,1.2,1.6,0.5,2.2c-1.4,1.3-3.7,2.4-4.9,1.8c-2.1-1-5.4-0.7-6.1-3.3
			C603.8,773.7,606.2,773.1,608.4,772.8z"/>
		<path d="M188.8,420.7c-0.1-2.5,1.4-3.4,3.8-2.2c0.9,0.4,1.8,0.7,2.8,1c2,0.5,2.9,1.9,2.8,3.9c-0.1,1.4-0.9,2.3-2.3,2.5
			c-2.1,0.3-2.4-1-2.6-2.7c-0.2-1.7-1.5-0.7-2.3-0.5C189.5,422.9,188.8,422.4,188.8,420.7z"/>
		<path d="M416,559.1c-0.5,8.9,0,17.9-1,26.8c-0.1,1.2,0.2,2.2,0.5,3.3c0.8,2.8,0.7,5.7-0.3,8.5c-0.8,2.2-1.5,4.5-1.5,6.9
			c-0.2,5.5-3.1,8-8.7,7.3c-1.1-0.1-2.2-0.3-3.3-0.3c-2.7,0-4.8,0.4-2.5,3.8c1,1.5,0.3,2.8-1.1,3.4c-1.9,0.8-1.4-1.1-1.8-2
			c-2-3.4-3.6-6.6-9-5.6c-7.3,1.3-14.6-1.3-22-1.5c-2.6-0.1-4.9,0.6-7.3,1.1c-1.1,0.2-2.2,0.7-3-0.5c-0.7-1-0.7-2.3,0-3.2
			c4.5-5.4,4-11.3,2.7-17.7c-1.2-6.1,0.5-12.4-0.3-18.6c-0.3-2.6-0.4-5.2-0.9-7.8c-1.8-8.7,0.3-17.1,2.4-25.5c0.7-2.9,3.5-3,5.8-2.9
			c4,0.2,8,0.6,11.9-0.5c1.4-0.4,2.7,0,3.9,0.7c4.3,2.5,9.3,2.5,13.7,2.1c4.3-0.4,8.7,0.2,13-0.4c3.1-0.4,5.3,0.6,6.5,4.1
			C415.6,546.7,416.1,552.9,416,559.1z"/>
		<path d="M447.8,565.6c1,7.1-1,9-6.3,7.8c-1.9-0.5-3.9-0.7-5.9-0.9c-1-0.1-2.2-0.2-2.6,0.9c-0.4,1.2,0.7,1.7,1.5,2.2
			c1.3,0.9,4.3,1.1,2.9,3.3c-1.4,2.1-3.9,0.9-5.5-0.7c-1.3-1.3-2.5-2.8-3.8-4.1c-0.5-0.6-1.3-0.9-2-0.5c-0.9,0.5-0.7,1.3-0.3,1.9
			c2.5,3.8-0.5,5.5-2.9,7.2c-1.3,0.9-2.7,1.5-2.2,3.4c0.4,1.9,1.7,2.3,3.5,2.6c2.6,0.4,5.1,1.7,7.6,2.6c-0.7,1.9-2.1,1.3-3,1.7
			c-0.4,0.2-1.1,0.3-1.3,0.7c-1.7,2.9-2.9,6.1-6.3,7.7c-1.1,0.5-0.4,2.5,0.6,3.7c1,1.1,2,1.2,3.4,0.6c1.9-0.8,2.9-2.2,3.8-3.9
			c0.5-1,1.5-1.7,2.8-1.5c0.8,0.2,1.3,0.8,1.4,1.6c0.2,1.2-0.3,2.4-1.4,2.8c-5,1.6-6.2,5.2-5.4,9.9c0.1,0.8,0.1,1.6-0.6,2
			c-0.8,0.5-1.4-0.1-2-0.6c-0.7-0.5-1.3-1.2-2.1-1.6c-1.1-0.5-2.2-0.3-2,1.2c0.4,4.2,0.2,8.3-0.3,12.5c-0.2,1.7,0.7,2.5,2.3,2.9
			c1.8,0.4,3.6,0.7,5.6,0.4c1.8-0.2,2.9,0.9,2.9,2.6c0,1.6-1.2,1.9-2.6,1.9c-2.9,0.1-5.6,1.3-8.5,1.2c-2.4,0-2.9,2.5-4.3,3.8
			c-0.9,0.9-1.7,2.8-3.2,1.8c-1.3-0.9,0.2-2.2,0.6-3.3c0.5-1.4,1.3-2.7,1.6-4.2c0.3-1.5,0.7-3.5-0.6-4.6c-1.4-1.3-2.4,0.6-3.6,1.1
			c-3.1,1.2-7.8-3.3-7.2-7.1c0.4-2.2,0.4-4.1-0.1-6.2c-0.5-2.1,0.5-3.1,2.4-2.1c2.5,1.3,4.2,0.4,6.1-1.1c1.6-1.3,3.5-2.3,3.3,1.4
			c-0.1,1.1,0.7,2.1,1.9,1.8c1.5-0.3,1.6-1.7,0.8-2.6c-1.5-1.8-0.4-3.2,0.1-5.1c1.3-4.4,2-9,2.9-13.5c0.2-0.9,0-2.1,1.3-2.4
			c3.5-0.8,2.3-2,0.4-3.5c-2.2-1.7-3.3-7-2.1-9.6c0.3-0.6,0.7-1,1.3-1.2c0.8-0.2,2,0.4,2.3-0.7c0.3-1.3-1.1-1.5-1.9-1.9
			c-3.1-1.7-2.9-3.3-0.2-5.2c1.1-0.7,2.1-1.8,0.9-3.1c-2.5-2.8-0.6-5.7-0.4-8.5c0.1-1.4,1-1.8,2-0.6c1.4,1.7,3.1,1.5,4.7,0.7
			c2.1-1,0.6-2.6,0.3-3.9c-0.2-0.9-0.5-1.8,0.2-2.5c0.9-1,1.5,0,2.2,0.4c2,1.1,2.9,0.4,2.7-1.7c-0.2-2.5-0.6-5-0.8-7.4
			c-0.1-1.1-0.3-2.5,1.2-2.8c1.3-0.3,1.5,1.1,1.9,1.9c1.6,3.6,2.1,7.6,4.7,10.9c1.2,1.5,2.7,2.1,3.9,3.4c0.9,0.9,1.9,2.1,0.8,3.3
			c-1.1,1.3-2-0.1-2.7-0.8c-1.4-1.5-2.9-1.2-4.4-0.2c-0.5,0.4-1.1,0.7-1.4,1.2c-0.8,1.4-3.8,1.5-3.1,3.6c0.6,1.7,3,1.4,4.7,1.6
			c0.9,0.1,1.8,0.2,2.5,0.6C443.6,570.7,446.1,570.9,447.8,565.6z"/>
		<path d="M463.3,611.2c7.8,2.4,9.5,4.3,10.4,12.3c0.1,0.9,0.2,1.7,0.5,2.5c0.3,0.8,1,1.5,2,1.2c0.9-0.3,1.2-1.2,0.8-1.8
			c-1.3-2.4,0.2-5.1-1.2-7.5c-0.4-0.7,0-1.9,0.2-2.9c0.1-0.9,0.5-1.7,1.6-1.7c1.2,0,1.8,0.9,1.9,1.9c0.5,4.2,3.2,5,6.7,4.3
			c6.5-1.4,10.4,2.6,14.2,6.8c0.6,0.7,0.5,1.4,0,2c-0.5,0.7-1.2,1.3-2.2,1.1c-1.3-0.2-2.3-0.8-3.1-1.9c-0.7-0.9-0.6-3.2-2.1-2.6
			c-1.7,0.6-3.3,2.2-4.5,3.7c-0.9,1.2,0.4,2.1,1.5,2.4c1.7,0.4,3.4,0.6,5.1,0.8c1.3,0.2,2.6,0.5,2.8,2c0.3,1.5-0.8,2.1-1.8,2.9
			c-2.7,2.2-6.7,0.5-9.3,3.2c-0.4,0.5-1.1-0.2-1.4-0.8c-2.7-5.4-7.7-7.6-12.9-9.5c-2.3-0.8-4.8,0-7.2-0.5c-1.5-0.3-2.7-0.4-3.1-2
			c-0.4-1.8-2.1-2-3.3-2.8c-1.2-0.8-1.6-2.2-0.9-3.3c0.9-1.6,1.5,0,2.2,0.4c0.4,0.2,1.2,0.6,1.3,0.4c2.3-2.4,4.1,0,6.1,0.5
			c1.1,0.2,2.6,1.6,3.1-0.3c0.5-1.6-0.5-2.8-2.4-3.1C462.4,617.8,462.4,617.8,463.3,611.2z"/>
		<path d="M416.6,517.7c0,1.6,0,3.5-2.2,4.6c-1.4,0.7-1.4,1.9-0.6,3.2c0.4,0.6,1,1.4,0.9,2c-0.5,2,1.1,4-0.2,5.8
			c-0.7,0.9-8-0.4-9.2-1.5c-1.1-1-1-1.9,0-2.9c2.2-2,1.6-3.5-0.6-5c-4.2-2.9-6.4-11.1-4.2-15.8c0.9-2,2.2-1.5,3,0
			c0.9,1.8,1.6,2.4,3.1,0.7c0.4-0.4,1.1-0.6,1.7-0.6C410.8,508.3,416.6,514.6,416.6,517.7z"/>
		<path d="M338.2,582.7c-1.5-2-1.5-3.7-1.6-5.2c-0.2-3.1-0.7-5.7-4.2-7.1c-2.1-0.9-1.6-3.6,0.6-4.7c2.1-1,4.5-1.5,6.2-3.3
			c0.6-0.6,1.4-0.7,1.9,0c2.5,3.9,6.3,2.6,9.7,2.4c1.3-0.1,2.7-0.1,2.2,1.3c-0.8,2.3-0.1,4.5-0.4,6.6c-0.3,1.9-1.3,3.7-3.2,3.6
			C344.6,576.2,340.5,577.3,338.2,582.7z"/>
		<path d="M319.4,499.9c2.2,1,5,0.5,7.6,1.8c3.4,1.8,6.7,2.3,9.7-1.2c1.7-2,4-3.5,5.6,0.5c0.5,1.3,2,1.4,3.2,1.5
			c1.6,0.1,2.6,0.9,2.9,2.5c0.4,2,1.7,3.4-2.4,3.5c-4.2,0.1-8.7-1-12.9,0.6c-1.4,0.5-3.1,0.8-4.2-0.5c-3.4-3.9-7.8-3.8-12.3-3.4
			c-1.9,0.2-3.6,0.5-4-2c-0.4-2.5,1.4-2.8,3.3-2.9C316.9,500.3,318,500.1,319.4,499.9z"/>
		<path d="M380.7,619.6c-0.9,0.8-1.1,0.9-1.2,1.1c-0.5,1.6,0,4.3-2.2,4.2c-1.9-0.1-2.9-2.5-3.3-4.4c-0.4-1.9-0.7-3.7-2.6-4.7
			c-0.6-0.3-1-1.3-0.2-1.4c1.9-0.3,4-0.5,5.9-0.2c1.7,0.3,0.1,2.2,0.5,3.3c4-1.5,7.7-3.3,11.9-1.7c2,0.7,3.4,1,1.2,3.7
			c-2.3,2.9-5.2,6.2-2.5,10.8c1.2,2-0.8,3.8-2.5,4.2c-2.3,0.6-1.8-1.7-2.1-3C382.7,627.8,381.8,624,380.7,619.6z"/>
		<path d="M535.9,615.7c-0.5,2.3,1.2,5-0.6,7.7c-1,1.5-1.8,2.2-3.6,1.2c-2.6-1.4-5.4-2.1-8.3-1.4c-1.9,0.4-2.1-2.6-4.2-1.4
			c-1.9,1-4.9,0-6,2.9c-0.2,0.6-1,0.8-1.6,0.4c-1.3-1-1.5-2.5-2-3.9c-0.3-0.9,0.6-1.2,1.4-1.3c0.9-0.1,1.7-0.1,2.6-0.1
			c2.3,0,4.2-0.4,5-3c0.6-2.1,1.8-2.3,3.1-0.5c2.4,3.3,6.3,3.8,9.7,5.3c2.1,0.9,3.2-0.5,2.6-2.5c-0.7-2.3,0.8-5.7-3.6-6.2
			c-1.1-0.1-2-3.1-1.3-4.6c0.8-1.9,3.3-1.5,5.1-1.6c1.8-0.1,1.5,2,1.6,3.2C536,611.5,535.9,613.4,535.9,615.7z"/>
		<path d="M457.8,581.5c-0.9,2.1,0.6,3.5,1.3,5.2c0.4,0.9,0.4,2.2-0.6,2.7c-1.3,0.6-1.1-0.9-1.7-1.4c-2.3-2.1-4.7-3.7-8.2-2.6
			c-2.1,0.7-4.2-0.5-6.2-0.8c-1.2-0.2-1.2-2.3-0.6-3.6c0.7-1.3,1.6-1.2,2.8-0.5c0.7,0.4,1.6,0.7,2.4,0.9c4.5,0.8,5.1,0,3.7-4.4
			c-0.3-0.8-0.5-1.7-0.7-2.5c-0.3-1.2,0.1-2.2,1.2-2.9c1.2-0.7,2.1-0.1,2.9,0.9C456.2,575.1,457.9,578,457.8,581.5z"/>
		<path d="M313.6,597.9c1.1,1.8,2,3.8,4.1,4.6c0.4,0.2,1,0.8,0.9,1.1c-1.3,5.3,2.4,9.8,2.6,14.8c0.1,1.8-0.8,3.1-2.3,4
			c-1.7,1.1-2.4-0.4-3.1-1.6c-0.2-0.3-0.6-0.7-0.8-0.7c-5.5,0.5-2.2-2.6-1.5-4.1c1-2.1,0.9-4,0.5-6.1c-0.7-3.9-1.1-7.9-1.6-11.8
			C312.8,598.1,313.2,598,313.6,597.9z"/>
		<path d="M337.7,654.8c3.4-4.7,0.1-9.3-0.4-13.8c-0.3-2.3-1.4-4.5-2.1-6.7c-0.5-1.8-0.5-3.7,1.6-4.3c1.9-0.5,3.6,0.9,3.5,2.5
			c-0.3,5.7,4.4,10.6,1.9,17C340.2,654.3,341.1,654.7,337.7,654.8z"/>
		<path d="M418.6,545c0.3-4.6,0.5-4.8,5.1-3.9c1.5,0.3,2.6-0.5,3.9-0.7c1.5-0.3,3.8-0.1,2.6,2c-2.1,3.8-3.3,7.9-5.4,11.7
			c-0.5,0.9-1.2,3.4-2.7,2.1c-1.6-1.3-2.3-3.6-0.9-5.7c0.5-0.7,1.4-1.1,2-1.7c0.7-0.8,2.2-1.4,1.4-2.7c-0.8-1.1-2-0.3-3.1,0
			C420.2,546.5,418.3,548.4,418.6,545z"/>
		<path d="M461.1,608.3c-3.1,0.1-10.2-6.2-10.5-9.3c-0.1-1.2,0-2.3,1.1-2.9c1.4-0.7,2.9-0.4,3.8,0.7c1.7,2.1,3.8,3.4,6.3,4.3
			c2,0.8,2.9,2.7,2.6,4.9C464.1,607.8,462.7,608.3,461.1,608.3z"/>
		<path d="M491.2,596.4c-1,3-1.9,5.8-3,8.6c-0.2,0.7-0.8,1.5-1.7,1.2c-1-0.4-0.5-1.2-0.3-1.9c0.3-1,0.6-1.9,0.8-2.9
			c0.2-2-0.3-3.6-2.8-3.3c-3,0.3-3.1-1.8-3.4-3.8c-0.4-2.5,0.3-5,2.4-6.3c1.9-1.2,3.6,1.5,4,2.3c1,1.8,1.7,3.7,3.6,4.8
			C491.1,595.3,491.1,596,491.2,596.4z"/>
		<path d="M317.8,576.5c0.2-1.9,1-3.4,2.4-4.3c1.2-0.8,2.9-2,3.9-0.2c1,1.8-1.2,1.7-2.2,2.2c-1.1,0.5-2.1,1.1-1.7,2.5
			c0.4,1.5,1.6,1.3,2.7,1.1c1.2-0.2,2.4-0.6,3.7-0.7c0.9-0.1,2.2-0.2,2.3,0.7c0.3,3.7,3.4,6.1,4,9.5c0.1,0.7,0.4,1.6-0.3,2.1
			c-1,0.6-1.5-0.4-2.1-1c-1.9-2.3-3.9-4.5-5.8-6.9c-0.8-1-1.6-1.7-2.8-1.3C317.9,581.6,318.5,578.2,317.8,576.5z"/>
		<path d="M402,669.8c0.8-5.2,1.5-10.4,3.1-15.5c0.3-0.9,0.8-2,2.1-1.7c1.2,0.3,1.4,1.6,1,2.5c-1.3,2.9-0.8,5.3,1.2,7.9
			c1.2,1.4,0.1,3.4-0.4,5c-0.8,2.4-2.4,1.5-3.9,0.7C403.7,668,403.7,670.5,402,669.8z"/>
		<path d="M312.5,436.6c0.7-3.8,0.1-6.4-0.5-9c-0.4-1.7-0.3-3.4,0.3-5.1c0.5-1.5,1.4-2.1,2.7-0.8c1.1,1.2,3.6,1.3,3.6,2.9
			c-0.1,2.9,0.9,5.6,0.9,8.4c0,1.2-1.3,2.1-2.4,1.5C315.1,433.4,314.1,434.6,312.5,436.6z"/>
		<path d="M448.5,630.5c0,0.7-0.5,1.5-1.1,1.2c-2.1-0.8-6.1-1.2-5.9-2.9c0.4-5.8-4.6-5.3-7.2-7.5c-0.8-0.6-2.7-0.5-2-2
			c0.8-1.8,2-3.7,3.6-4.9c0.8-0.6,2.8,1.2,2.9,2.4c0.2,4.4,4.9,6.2,5.4,10.4c0.2,1.2,1.7,1.3,2.7,1.6
			C447.7,629,448.4,629.5,448.5,630.5z"/>
		<path d="M367.7,622.5c2.1-0.4,3,0.5,3.1,2.3c0.4,4-3.9,8.7-7.8,8.6c-0.6,0-1.1-0.1-1.2-0.7c-0.2-1.6-0.4-3.1-0.9-4.7
			c-0.6-2.2,1.6-2,2.7-2.9C365,624.1,365.3,621.4,367.7,622.5z"/>
		<path d="M333.8,615.4c-1.2,1.4,0.7,2.4-1,4c-1-3.6-2.1-6.8-2.6-10.1c-0.2-1.3,1.3-2.3,2.9-2.2c0.8,0.1,1.7,0.8,1,1.4
			c-3.6,3.2,0.2,2.4,1.5,3.2c2.2,1.2,4,2.8,6.4,3.7c1.5,0.6,1.5,2.3,0.7,3.6c-1,1.7-2.2,1.1-3.4,0.2
			C337.6,617.8,335.9,616.3,333.8,615.4z"/>
		<path d="M324.4,454.7c1-3.5,2-7.1,3.1-10.7c0.3-0.9,1.2-1.3,2.1-1.1c1.2,0.2,1.9,1.1,2.4,2.2c0.4,0.9,0.2,1.9-0.6,2.3
			c-2.6,1.2-2.6,3.1-2.1,5.6c0.6,2.4-1.1,4.5-1.6,6.8c-0.3,1.1-1.3,1.2-1.8,0C325.4,458.1,325,456.4,324.4,454.7z"/>
		<path d="M520.1,612.7c-2.4-1-4.8,1.5-7.6,0.8c-0.4-0.1-0.8-0.1-1.1-0.2c-1.4-0.6-3.9-0.5-3.7-2.4c0.2-1.7,2.5-0.9,3.9-1
			c3.3-0.3,6.8,0.6,10-0.9c1.2-0.5,2.2-0.3,3,0.7c0.6,0.7,0.9,1.5,0.5,2.4c-0.7,1.5-1.9,0.6-3,0.6
			C521.6,612.7,521.1,612.7,520.1,612.7z"/>
		<path d="M312.5,637.3c0-4.3,0-8.6,0-13.1c1.5,0.4,3,1.3,4.8,1.6c1.3,0.2,2.5,1.3,2.7,2.8c0.1,1.4-1,1.9-2.1,2.3
			c-2.9,1.2-3.5,4-4.4,6.6C313.2,637.4,312.9,637.4,312.5,637.3z"/>
		<path d="M390.6,504.9c0.5-1.1,0-3.1,2.1-3.3c2.2-0.2,5.8,3.3,5.7,5.5c-0.1,2-1,3.6-3.2,4C393.7,511.3,390.5,507.1,390.6,504.9z"/>
		<path d="M351.7,481.6c0.9,0.1,1.4,0.7,1.6,1.4c0.6,3.2,0.9,6.4,2.3,9.3c0.2,0.4,0,1.1-0.2,1.4c-2,2-1.7,4.2-0.9,6.6
			c0.2,0.6,0.4,1.3-0.2,1.7c-0.8,0.5-1.4-0.1-1.9-0.6c-0.9-1-1.4-2.1-1-3.4c1.5-4.8,1.3-9.5-0.2-14.3
			C350.8,483,350.5,482,351.7,481.6z"/>
		<path d="M356.2,667.2c1.9-3,9-4.5,11.1-2.8c0.9,0.7,0.8,1.4,0.1,2.2c-0.6,0.6-1.3,1.2-1.6,2c-1.2,3.1-2,4.5-3.9,0.2
			C361.2,666.9,358.8,666.5,356.2,667.2z"/>
		<path d="M504.5,609.2c-0.5,2.2-2.2,2.9-3.7,3.6c-1.4,0.7-2.9,3.2-4.4,1.6c-1.6-1.8,0.6-3.5,1.7-5.1c0.4-0.6,0.9-1.2,1.3-1.8
			c0.7-1,0.1-3.5,2-3C503.5,605.1,503,608,504.5,609.2z"/>
		<path d="M635.3,705.8c-0.7-3-0.4-6.1-0.9-9.1c-0.3-2.2,0.3-3.6,2-4.7c1.6-1,3-2.2,4.6-3.3c1.3-0.9,2.1-2,1.9-3.8
			c-0.2-1.8,1-3.1,2.6-2.9c2,0.3,0.9,1.9,0.5,2.9c-0.7,1.8,0.7,2.5,1.6,3.4c1.6,1.4,2.5,2.9,1.8,5.2c-0.9,2.9,0,3.6,2.9,2.7
			c1.4-0.4,3.1-1.6,3.9,0.3c0.8,2-1.3,2.2-2.5,3c-2.3,1.5-4.5,2-6.8,0c-1.4-1.1-3.1-1-3.7,0.8c-1,2.8-3.3,5-3.6,8.1
			c-0.1,1.3-0.2,3.2-1.9,3.2c-2,0-1.7-2.1-2-3.4C635.4,707.5,635.4,706.6,635.3,705.8z"/>
		<path d="M680.1,580.9c-2-0.9-2.4,0.8-3.3,1.7c-0.5,0.5-1.1,1.2-1.9,1c-1.1-0.3-0.9-1.4-0.9-2.2c0-0.4,0-0.8,0.1-1.1
			c2.7-5.2,5.5-10.3,5.6-16.3c0-1.4,2.1-2.1,3.5-2.4c2-0.5,4-0.7,5.6-2.5c1.4-1.6,3,0.2,4.4,0.8c1.2,0.5,1.6,1.6,1,2.8
			c-1.1,2-0.5,3.8,0.5,5.6c0.5,0.8,0.7,1.9,0.8,2.8c0.1,1.1,0.4,2.5-1,2.9c-1.6,0.5-2.1-0.9-2.6-2.1c-0.5-1.3-0.9-2.6-1.6-3.8
			c-0.6-1.2-1.7-1.9-3.1-1c-1.2,0.8-1.2,1.8-0.5,2.9c0.3,0.4,0.6,0.8,0.7,1.3c0.2,1.2-0.2,2.3-1.4,2.7c-1.4,0.5-1.6-0.8-1.7-1.8
			c-0.2-1.1-0.1-2.6-1.7-2.3c-1.6,0.3-1.4,1.9-1.3,3.1c0.2,1.7,0.6,3.4,1,5.1C682.9,580.1,682.4,581.4,680.1,580.9z"/>
		<path d="M701.1,585c-2.3,3,1.4,6.9-1.4,10.3c-0.9,1.1,0.4,2.6,0.8,3.9c0.3,1,0.3,2.1-0.8,2.6c-1.6,0.8-2.8-0.5-4.1-1.2
			c-1.1-0.5-0.7-1.4,0-2.1c1.8-1.9,0.9-2.6-1.2-2.5c-2.3,0.1-3.1-1.4-3.2-3.3c-0.1-2.9-1.5-5.2-2.8-7.6c-0.4-0.7-0.8-1.9-1.8-0.5
			c-0.8,1-1.4,0.9-1.9-0.2c-0.3-0.9-0.2-1.8,0.9-2.2c2.3-0.8,4.5,1,6.4,0.6c3.6-0.7,3,2,3.9,3.7c0.4,0.8,0,2.3,1.6,1.8
			c1.2-0.4,1.8-1.4,1.5-2.6c-0.3-1.2-1-2.3-1.4-3.5c-0.3-1-0.9-2.5,0.4-3c1.5-0.6,1.7,1,2.1,2C700.5,582.2,700.7,583.5,701.1,585z"
			/>
		<path d="M678.8,716.8c-1.5,4.1-3.7,6.7-7.2,8.2c-0.9,0.4-1.7,0.6-2.2-0.4c-0.6-1,0.1-1.6,0.9-2.1c0.4-0.2,1-0.4,1.3-0.7
			c1.1-1.3,0.8-2.6-0.2-3.7c-1-1.1-2.1-0.5-2.9,0.3c-2.2,2.4-4.4,4.6-7.1,6.4c-2.5,1.6-4.4,1.5-6.2-0.6c-1.3-1.5-2.7-2.9-4.8-3.3
			c-1.2-0.2-2.8-0.5-2.1-2.3c0.5-1.4,2-1,2.9-0.4c3.3,1.9,6.8,2,10.5,1.5c4.1-0.6,6.4-2.4,7.2-6.7c0.2-0.9,0.5-1.4,1.4-1.2
			c1.6,0.4,1.9-0.6,2.1-1.9c0.2-1.3,0.6-2.7,2.3-2.1c1.4,0.5,1.4,1.9,1.3,3.2c-0.1,1.1-0.8,1.8-1.7,2.3c-1.5,0.9-2.3,2.1-1.2,3.7
			c1.1,1.5,2.5,1.5,3.9,0.3C677.3,717.1,677.7,717.1,678.8,716.8z"/>
		<path d="M764.3,699.2c-1.9,0.8-2.4-0.4-3-1.5c-1.2-2.1-1.7-4.2-0.5-6.4c0.7-1.3,2.3-1.3,3.7-1.5c0.5-0.1,1,0.2,1.1,0.7
			c0.2,0.7-0.1,1.3-0.6,1.6c-4.9,3.4-0.1,3.6,1.6,4.7c1.5,1,4.6,1,3.8,3.7c-1,2.9-0.4,7-4.5,8.3c-0.6,0.2-1.2,0.7-1.7,0.2
			c-0.8-0.7-0.1-1.4,0.3-2c0.9-1.6,2.3-3,2.4-5C767,700.3,766.9,698.4,764.3,699.2z"/>
		<path d="M641.6,620.9c0.8,3.9,2,6.7,4.1,8.9c0.2,0.2,0.3,0.9,0.2,1c-2.1,2.3-3.9,4.5-2.8,8.2c0.3,0.9-2.4,0.2-3.6,0.3
			c-1,0.1-2.1,0.3-2.6-0.9c-0.5-1.2,0.4-1.7,1.2-2.4c3.4-3.2,2-7.7,2.7-11.6C640.9,623.7,640.3,622.8,641.6,620.9z"/>
		<path d="M699.3,618.3c0.9,0.3,1.3,1.2,1.4,2c0.3,2.9,0.4,5.9,1.6,8.7c0.2,0.6,0.2,1.4-0.5,1.7c-1,0.4-1.3-0.4-1.5-1.2
			c-0.5-2.8-2.2-2-3.9-1.4c-1.1,0.4-2.4,1.3-3.3-0.2c-0.7-1.3,0-2.5,1.1-3.2c1.9-1.3,3.3-2.9,3.8-5.3
			C698.2,618.9,698.5,618.3,699.3,618.3z"/>
		<path d="M637.8,611.2c-3.4-4.6-3-6.1,2.1-7.4c1.9-0.5,1.9-1.7,1.9-3.1c0-0.8,0.4-1.5,1.3-1.6c0.7-0.1,1.2,0.3,1.4,1
			c1,2.4-1,7-3.7,7.7C639.1,608.3,639.3,610.3,637.8,611.2z"/>
		<path d="M260.9,556.9c0-3.2,2.8-3.4,4.5-4.4c1.5-0.8,2,1,2.6,2c1.2,1.9,0.7,3.6-1.1,4.8c-0.1,0.1-0.2,0.2-0.3,0.2
			c-1.6,0.6-3.2,2.3-4.7,1.6C260.3,560.5,262.2,558.1,260.9,556.9z"/>
		<path d="M622.9,458.7c1.5,2.5,2.9,4.4,3.2,6.8c0.9,7.1,2.4,9,9.2,10.9c3.3,0.9,6.2,3.2,9.9,3.3c1.4,0.1,2.5,1.5,1.9,3
			c-0.7,1.5-2,1-3.2,0.4c-3.2-1.7-7.3-0.1-10.2-2.9c-1-0.9-2.3-1.5-3.4-2.3c-3.1-2.3-6.2-2.3-9.2,0.2c-1.2,1-2.4,1.7-3.9,2.2
			c-2,0.6-3.4-0.4-4.6-1.7c-1.2-1.4-0.8-2.9,0-4.5C615.3,468.7,620.6,465.1,622.9,458.7z"/>
		<path d="M669.8,426c-5-4.5-5.7-10.3-7-16c-1.3-5.5-2.9-11-3.6-16.5c-0.6-5.4-4-9.2-5.4-14c-0.4-1.4-0.9-2.6,0.1-3.9
			c0.4-0.5,1-0.6,1.2,0c0.4,1.5,3.8,0.2,2.7,3c-0.3,0.9,0.1,1.8,0.9,2.3c3.1,2,2.9,5.4,3.1,8.4c0.1,1.6,0,3.3,0.8,4.7
			c3.3,5.7,2,12.4,3.7,18.4c0.6,2.2,0.9,4.3,2.4,6.1C670.3,420.7,670.6,423.1,669.8,426z"/>
		<path d="M647.7,357.1c-1.9-0.9-1.4-2.3-1.5-3.5c-0.3-3.1-0.5-6.2-2.6-8.8c-0.7-0.9-1.1-2-0.8-3.2c0.6-2.5,0.2-4.6-2-6.3
			c-0.7-0.5-1.5-1.4-0.4-2.1c0.7-0.5,1.4,0.3,1.9,0.8c1.8,2.4,3.8,4.6,4.3,7.7c0.6,3.4,0.2,6.9,2.2,10.1
			C649.5,353.3,648.5,355.4,647.7,357.1z"/>
		<path d="M612.9,343.8c1.6,4.7,5.5,7.6,4.3,12.6c-0.2,0.8,0.1,1.5,0.7,2.1c5,4.7,5.9,10.9,5.8,17.3c0,1.3,0.5,3.4-2,3.2
			c-1.8-0.1-3.4-0.8-3.9-2.9c-0.7-3-1.8-6-1.9-9.1c-0.2-6.6-2-12.7-4-18.8C611.6,347,611.5,345.8,612.9,343.8z"/>
		<path d="M632.5,410.4c-1.9-3.7-4-6.6-2.5-10.3c0.5-1.3-0.1-2.2-1.3-3.1c-3.8-2.8-4.9-6.9-4.9-11.4c0-0.8,0-2,1.1-2
			c1.1,0,1.3,1,1.5,1.9c0.4,1.4,0.4,3,2.8,2.4c1.3-0.3,1.7,1.1,1.6,2c-0.7,6.4,2.2,12.4,2.3,18.7
			C633.1,408.9,632.9,409.2,632.5,410.4z"/>
		<path d="M477,439.6c0.5,0.2,1.4,0.5,1.4-0.7c-0.1-3.2,1.9-2.8,3.7-2c3.8,1.5,7.3-0.7,11-0.6c1.4,0.1,3-0.6,3.3,1.3
			c0.3,1.8-1.3,2.4-2.6,2.6c-2.4,0.4-4.1,1.5-5.4,3.6c-1,1.6-2.3,2.2-4.2,1.4c-0.6-0.2-1.5-0.6-1.7-0.4c-3.2,3.6-4.8-0.5-7-1.4
			c-1.2-0.5-1.8-1.4-1.4-2.7C474.6,439.3,475.5,438.9,477,439.6z"/>
		<path d="M485.5,466.2c2.2,1.2,5.3-1,7.2,1.7c0.4,0.5,1.5,0.6,1.2,1.6c-0.2,0.8-0.9,1.2-1.7,1.3c-1,0.2-2,0.2-3,0.4
			c-4.4,0.7-6,4.1-3.4,7.8c1.4,2.1,1.6,4.1,1.1,6.4c-0.2,0.8-0.6,1.5-1.5,1.4c-0.7-0.1-1-0.7-1.1-1.3c-0.7-3.5-1.8-6.8-3.7-10
			C478.7,472.6,482.7,465.9,485.5,466.2z"/>
		<path d="M413.6,334.3c-1.4,1.4,3,2.9,0.2,4.1c-1.7,0.7-2.3-2.1-4-2.2c-4.5-0.3-6.8-2.9-8-7c-0.7-2.5-3.5-2.1-5.4-2.6
			c-1.2-0.3-2.5-0.3-3.7-0.6c-1.2-0.3-1.9-1.2-1.5-2.5c0.5-1.6,1.7-1.1,2.8-0.7c4.4,1.9,8.7,3.9,12.8,6.5c1.7,1.1,3.3,2.2,5.4,2.4
			C413.6,331.7,414.4,332.5,413.6,334.3z"/>
		<path d="M531.2,754c-0.3,1.7-1.4,2.2-3.2,1.7c-3-0.8-5.1-3.5-8.6-3.5c-1.2,0-2.8-2.7-1.7-4.7c1-1.9,2.5-2.2,4.9-1.5
			c3.4,1,5.4,3.1,7.4,5.5C530.6,752.2,531.2,752.9,531.2,754z"/>
		<path d="M261,586.9c-0.5,3.6-1,6.2-3.4,7.8c-0.7,0.5-1.7,1-2.3,0.1c-0.7-1,0.1-1.5,0.9-2c1.1-0.6,3.3-0.7,1.8-2.6
			c-1.3-1.7-3-1.5-4.4,0.3c-0.8,1-1.5,2.1-3,1.6c-0.8-0.3-1.1-1-1.1-1.8c0.1-1.6,1.1-2.5,2.5-2.8c2.3-0.6,4.6-1.1,6.8-1.7
			C260.8,585.4,261.1,586.5,261,586.9z"/>
		<path d="M499.6,305c2.4,1.6,5.7,1.1,8,2.5c3.1,1.9,6.7,3.4,9.9,4c4,0.8,7,3.5,11.2,4.2c2.8,0.4,5.3,3.6,8.5,4.6
			c0.4,0.1,0.6,0.8,0.3,1.3c-0.5,0.8-1.3,1-1.9,0.5c-1.6-1-3.2-1.3-5-1c-6.1,0.9-10.6-2.5-15.7-5c-3.5-1.7-6.4-5.4-11.1-4.8
			c-1.7,0.2-3.7-0.6-5.4-1.3c-1-0.4-1.9-1.4-1.2-2.7C497.6,306.1,498.1,305.1,499.6,305z"/>
		<path d="M486.5,326.6c0,2.3-3.6,8.1-5,8.2c-1.4,0.1-4.2-4.6-4.2-7c0-2.7,2.9-5.2,6.2-5.1C486,323,486.2,325.1,486.5,326.6z"/>
		<path d="M686.6,499.5c0,0.8,0.3,1.9-0.7,2.3c-0.9,0.3-1.3-0.6-1.8-1.1c-1.1-1.2-3-2.1-2.5-3.9c1.2-4.3-1.6-6.9-3.8-9.8
			c-0.4-0.5-1-0.9-0.7-1.6c0.4-0.8,1.2-0.8,1.9-0.8c1.5,0.2,2.5,1.1,3.3,2.3C684.8,490.7,686.6,494.8,686.6,499.5z"/>
		<path d="M481.2,760.2c-2.7-0.1-5.3-4.8-3.5-7c1.7-2,1.7-3.8,1.6-6.1c-0.1-1.2,0.2-2.8,1.6-3.1c1.7-0.3,1.4,1.2,1.5,2.3
			c0,1.1,1,0.9,1.6,1.2c2.7,1.3,3.2,4.1,0.8,5.8c-1.4,1-1.3,1.9-0.7,3.1C485.8,760,483.1,759.8,481.2,760.2z"/>
		<path d="M395.7,431.5c1,0,2.1,0.5,1.6,1.5c-1.3,3-0.4,6.5-2.2,9.4c-0.5,0.8-0.9,2-2.1,1.8c-1.2-0.3-1.1-1.5-1.2-2.5
			c-0.2-2.9,1.5-5.4,1.3-8.4C393.1,432.2,394.5,431.6,395.7,431.5z"/>
	</g>
</g>
<g id="text">
</g>
<g id="scratch">
</g>
<g id="guides" display="none">
</g>
</svg>
