<?xml version="1.0" encoding="utf-8"?>
<!-- Generator: Adobe Illustrator 26.0.2, SVG Export Plug-In . SVG Version: 6.00 Build 0)  -->
<svg version="1.2" baseProfile="tiny" xmlns="http://www.w3.org/2000/svg" xmlns:xlink="http://www.w3.org/1999/xlink" x="0px"
	 y="0px" viewBox="0 0 800 800" overflow="visible" xml:space="preserve">
<g id="fill">
</g>
<g id="bg" display="none">
</g>
<g id="counters_00000155831629897369998050000010902328751353074356_">
	<g id="mkr_x5F_mc_x5F_immob">
		<rect id="_x31__x2F_2_x22__800x800_00000165226662470562116500000004571052684538143668_" fill="none" width="800" height="800"/>
		<g>
			<rect x="299.9" y="100.4" fill="none" width="400" height="600"/>
			<path d="M556,176.8c0-19.1,0.3-40.4,0.8-53h-0.8c-5.2,22.8-16.4,60-27.1,94.9h-20.6c-8.1-30.6-19.7-72.9-24.6-95.2H483
				c1,13.1,1.4,36.1,1.4,55.2v40h-22V107h35.9c8.7,29.2,18.5,65.8,21.8,82.4h0.2c2.7-14.7,15-53.8,24.3-82.4h34.6v111.7H556V176.8z"
				/>
			<path d="M692.7,184.3c-4.5,20.8-20.2,36-48.2,36c-35.4,0-52.2-25.1-52.2-56.8c0-30.6,17.3-58.1,53.3-58.1
				c29.7,0,44.2,17.5,46.9,36.1h-24.2c-2.3-8.6-8.3-17.2-23.5-17.2c-19.9,0-27.6,17.9-27.6,38.2c0,18.9,6.7,38.8,28.3,38.8
				c15.8,0,20.7-10.6,22.8-17.1H692.7z"/>
		</g>
		<g>
			<rect x="100" y="500" fill="none" width="300" height="200"/>
			<path d="M206.9,658.1c0-19.1,0.3-40.4,0.8-53h-0.8c-5.2,22.8-16.4,60-27.1,94.9h-20.6c-8.1-30.6-19.7-72.9-24.6-95.2h-0.8
				c1,13.1,1.4,36.1,1.4,55.2v40h-22V588.3h35.9c8.7,29.2,18.5,65.8,21.8,82.4h0.2c2.7-14.7,15-53.8,24.3-82.4h34.6V700h-23.3V658.1
				z"/>
			<path d="M343.5,665.5c-4.5,20.8-20.2,36-48.2,36c-35.4,0-52.2-25.1-52.2-56.8c0-30.6,17.3-58.1,53.3-58.1
				c29.7,0,44.2,17.5,46.9,36.1h-24.2c-2.3-8.6-8.3-17.2-23.5-17.2c-19.9,0-27.6,17.9-27.6,38.2c0,18.9,6.7,38.8,28.3,38.8
				c15.8,0,20.7-10.6,22.8-17.1H343.5z"/>
		</g>
		<g>
			
				<rect x="349.9" y="-24.2" transform="matrix(0.7071 -0.7071 0.7071 0.7071 -165.7634 399.9677)" fill="none" width="100" height="848.5"/>
			<path d="M256.6,192.2l-52.7,52.7l-11.4-11.4l52.7-52.7L256.6,192.2z"/>
			<path d="M243.3,225.5c3.4-3.4,6.8-6.8,10.1-10.3l10.5,10.5c-0.8,1.1-2.8,3.5-4.3,5.1c5-0.9,10.8-0.4,16.6,5.4
				c5.7,5.7,5.9,11.7,4.2,16.2c5.5-0.9,11.7-0.3,18.2,6.2c6.9,6.9,8.3,16.8-2,27l-25.9,25.9l-10.7-10.7l24.6-24.6
				c3.6-3.6,5.8-8.4,1.3-12.8c-4.7-4.7-9.5-3.5-15.5,2.6l-22.6,22.6L237,277.9l24.2-24.2c4.1-4.1,6.4-8.4,1.7-13.1
				c-4.5-4.5-9.3-3.8-16.1,3l-22.1,22.1l-10.8-10.8L243.3,225.5z"/>
			<path d="M309.8,292c3.4-3.4,6.8-6.8,10.1-10.3l10.5,10.5c-0.8,1.1-2.8,3.5-4.3,5.1c5-0.9,10.8-0.4,16.6,5.4
				c5.7,5.7,5.9,11.7,4.2,16.2c5.5-0.9,11.7-0.3,18.2,6.2c6.9,6.9,8.3,16.8-2,27l-25.9,25.9l-10.7-10.7l24.6-24.6
				c3.6-3.6,5.8-8.4,1.3-12.8c-4.7-4.7-9.5-3.5-15.5,2.6l-22.6,22.6l-10.7-10.7l24.2-24.2c4.1-4.1,6.4-8.4,1.7-13.1
				c-4.4-4.4-9.3-3.8-16.1,3l-22.1,22.1l-10.8-10.8L309.8,292z"/>
			<path d="M403.6,404.8c-12,12-27.9,13.6-40.4,1.1c-12.3-12.3-10.7-28.2,1.1-40c12.2-12.2,28.2-13.4,40.7-0.9
				C416.7,376.7,416,392.4,403.6,404.8z M375.5,376.9c-7.6,7.6-8.8,15.4-3.6,20.7c5.4,5.4,12.8,3.8,20.4-3.7
				c8.3-8.3,9.1-15.2,3.7-20.7C390.9,368.1,383.9,368.6,375.5,376.9z"/>
			<path d="M447,376.4l10.9,10.9l-20.4,20.4c4.2-0.9,10-0.2,16.4,6.2c10.8,10.8,7.2,25-3.8,36.1c-11.3,11.3-27.2,15.6-38.6,4.2
				c-5.9-5.9-6.7-10.3-5.7-15c-1.3,1.3-3,2.5-4.2,3.3l-10.5-10.5c4.4-4.2,8.7-8.6,13-12.8L447,376.4z M438.8,439.2
				c6.6-6.6,9-13.9,3.1-19.8c-6.3-6.3-12.5-4.4-20.6,3.7c-6.7,6.7-9.8,13.7-3.4,20.1C423.4,448.8,431.3,446.7,438.8,439.2z"/>
			<path d="M476.7,438.5l10.9,10.9L448.1,489l-10.9-10.9L476.7,438.5z M492.9,422.3l10.9,10.9l-9.8,9.8l-10.9-10.9L492.9,422.3z"/>
			<path d="M457.9,498.9l55.7-55.7l10.9,10.9l-55.7,55.7L457.9,498.9z"/>
			<path d="M518.2,480.1l10.9,10.9l-39.5,39.5l-10.9-10.9L518.2,480.1z M534.4,463.9l10.9,10.9l-9.8,9.8l-10.9-10.9L534.4,463.9z"/>
			<path d="M505.1,529.6l42.2-3.1l-18.6-18.6l8.6-8.6l31,31l-8.5,8.5l-41.6,3.2l20.6,20.6l-10,7.3l-32-32L505.1,529.6z"/>
			<path d="M562.2,568.3c-4.9,5-7.3,12.3-1.8,17.7c4.6,4.6,7.7,4,11.1,2.7l11,11c-6.2,3.4-18.5,7.1-30.9-5.4
				c-13-13-8.9-28.4,1.4-38.8c12.4-12.4,27.6-14.9,40.3-2.2c13.6,13.6,8.4,28-1.5,37.9c-1.3,1.3-2.2,2.2-3.5,3.2L562.2,568.3z
				 M584.2,576.8c4.5-4.7,6.6-10.4,1.2-15.7c-5.2-5.2-11-3.7-16.3,0.7L584.2,576.8z"/>
		</g>
	</g>
</g>
<g id="text">
</g>
<g id="guides" display="none">
</g>
<g id="scratch">
</g>
</svg>
