<?xml version="1.0" encoding="utf-8"?>
<!-- Generator: Adobe Illustrator 26.0.2, SVG Export Plug-In . SVG Version: 6.00 Build 0)  -->
<svg version="1.2" baseProfile="tiny" xmlns="http://www.w3.org/2000/svg" xmlns:xlink="http://www.w3.org/1999/xlink" x="0px"
	 y="0px" viewBox="0 0 1000 1000" overflow="visible" xml:space="preserve">
<g id="bg">
</g>
<g id="counters">
	<g id="mkr_x5F_bunker_x5F_1-3-5_00000090285009105729444870000008926500002218674077_">
		
			<rect id="_x35__x2F_8_x22__1000x1000_00000109737183176423171900000006049137290078466195_" x="-0.7" y="-0.1" fill="none" width="1000" height="1000"/>
		<polyline fill="#A67C52" points="-0.7,401.9 199.3,399.9 296.2,496.2 392.7,537.1 618.2,540.4 691.3,512.9 718.2,476.4 
			799.3,399.9 999.3,401.9 1000.3,998.9 -0.7,999.9 		"/>
		<g>
			<path d="M724.4,498.1c-1.6-1.7-1.9-5.9-4.8-4.6c-3.3,1.4-6.6,4.2-7,8.4c-0.3,3,0.2,5.6,3.5,7.4c3.1,1.6,6.6,0.4,9.8,1.6
				c-6.1,9.2-15.8,13.9-22.8,21.4c-0.6,0.7-1.8,1.1-1.9,1.8c-1.8,10-10.7,10.6-17.8,13.8c-5.9,2.7-11.6,6-14.5,12.9
				c-2.6-2.2-1.3-4.2-0.1-6.3c1.7-3.2,1.1-4.9-2.8-6.3c-6.6-2.4-12.9-1.2-19.2,0c-10.7,2.1-22,2.8-30.5,11c-1.4,1.4-3,2.2-3.4,4.6
				c-0.4,2.6-2.7,4.8-5.3,3.8c-3.4-1.3-0.3-4.2-0.6-6.4c-0.1-0.5,0.7-1.1,1-1.7c1.1-2.3,6-2.8,4-5.9c-1.6-2.4-5.6-3.3-8.6-2.8
				c-11.4,1.6-23.5,0.9-33.1,9.6c-2.6,2.4-7.1,2.6-9.8,5.6c-0.7,0.8-2.1,1-3,0c-0.9-1-0.4-2,0.3-3c2.8-4,5.1-8.5,10-10.3
				c3-1.1,4.7-2.9,4.2-5.9c-0.6-2.9-3.6-2.8-5.6-2.6c-6.4,0.8-13-0.5-19.2,2.5c-4.2,2.1-9-0.5-13.3,0.8c-1.5,0.4-4.2-1.2-4.2,1.7
				c0,2,2.2,2.6,4,3c0.9,0.2,1.8,0.3,2.6,0.6c1.5,0.5,4.5,0,3.7,2.5c-0.7,2.4-3.1,2.8-5.6,1.6c-3.4-1.6-6.7-3.4-10.5-4.5
				c-5.9-1.7-10.8-2.4-16.9,1.2c-6.9,4.1-15.3,4-22.8-0.4c-1.3-0.7-2.3-1.5-3.6-0.8c-4.5,2.4-6.5,1.8-5-3.7c0.1-0.4,0-0.9-0.2-1.2
				c-0.7-1.4-17.6-6.1-19.1-5.3c-6.2,3.2-12.2,7.3-19.4,2.4c-1-0.6-2.1-0.7-3.2,0c-11.2,6.5-24,3.2-35.9,5.8
				c-10.5,2.3-21.3,1.2-31.9,2.3c-7.3,0.7-14.6,1.3-21.9,1.6c-1.6,0.1-5,0.5-4.6-2.3c0.3-2.2,1.3-5.7,5.2-4.6c1.8,0.5,3,0.7,3.6-1.4
				c0.7-2.3-1.3-3-2.5-3.3c-4.4-1.1-8.8-2.2-13.5-2.7c-9.1-0.9-18.1-1.3-27.2-0.8c-1,0-1.5-0.4-1.6-1.6c-0.3-6-4.9-9.5-11.2-8.7
				c-4.9,0.6-9.8-0.5-14.7,1c-0.1-3.3,1.9-4,3.2-4.9c1.8-1.2,4.9-1.4,4.7-4c-0.2-1.9-3.2-2-4.8-3c-9-5.6-18.6-7.9-29.1-6.2
				c-5.6,0.9-9.2-2.1-12.9-5.7c-6.1-5.9-12.8-11-20.7-14.1c-9.1-3.6-18.5-6.4-28.5-5.4c-3,0.3-6.3-0.1-6.6-3.9
				c-0.3-4.6,4.3-3.9,6.4-3.7c7.7,0.7,16-1.2,22.4,5.9c1.9,2.2,6.6,1.6,9.3,3.3c4.7,2.9,12.5,1.1,14.2,8.9c0.1,0.6,1.4,1.2,2.2,1.3
				c6.4,1.2,12.5,3.2,18.4,5.8c2.8,1.2,5.3,0.4,6.2-2c0.7-2-1.7-3.2-3.5-4.1c-1.2-0.5-3-1.1-3.3-2c-3.6-10.9-13.4-9.6-21.6-10.8
				c-3.6-0.5-5.8-1.6-6.8-5.2c-1.5-5.1-4.4-8.1-10.4-8.5c-8.2-0.5-15-5.6-20.6-10.9c-5.9-5.5-12.4-4.8-19-4.3
				c-5.2,0.4-9.8,4.5-13.8-3.6c-2-4.2-9.8-4.1-14.8-3.7c-3.7,0.3-7-0.8-10.5-0.5c-2.5,0.2-4.1-1.8-3.7-4.5c0.4-2.5,1.3-4.7,4.7-4.6
				c2.1,0.1,5.7,1.9,6-1.9c0.2-3.7-2.5-5.4-6.4-5.1c-1.4,0.1-2.9-0.1-3-1.8c0-0.5,1.3-1.7,1.8-1.6c10.4,2.4,15.2-5.4,21.1-11.3
				c0.4-0.4,1-0.6,1.5-1.3c-6.5,0.2-13.1-0.3-19.5,1.2c-1.4,0.3-2.8,0.8-3.5-0.8c-0.7-1.6,0.8-2.2,1.7-3.1c3.7-3.9,8.6-3.5,12.4-2.1
				c14.3,5,29,2.7,43.6,2.9c4.5,0.1,9.3-1,8.6-7.7c-0.1-1,1.9-2.1,2-3.2c0.3-2.8,5-5.6,0.9-8c-3.6-2.1-8-4.8-12.4-1.6
				c-2.8,2.1-6.6,3.2-8,7c-0.6,1.7-2.1,2.6-3.8,2c-6.5-2.4-13.3-0.2-19.9-1.3c-1.3-0.2-3.1-0.6-3.9,0.1c-6.7,5.1-12.9,1.2-19.4-2.1
				c5.2-0.9,10.4-2.6,15.6-2.5c4.4,0.1,5.6-3,8-5c0.9-0.7,1-2.6-0.4-2.6c-1.7,0-1.9-2.8-4.4-1.3c-4.3,2.6-8.8,2.8-14,1.2
				c-6.2-2-8.9-5.4-8.7-11.9c5.6-0.1,10.7-1.7,15.6-4c2.4-1.1,5.1-1.3,7.3-0.6c8.8,2.7,17,0.7,25.4-1.8c8-2.4,16.2-2.1,24.3,0.6
				c7.4,2.5,14.9-1.3,22.5-0.7c11.2,0.9,22.6,2.6,33.5,2.8c11.7,0.2,25.2,2.2,35.7-9.2c7-7.6,14.9-16,27.9-14.6
				c7.3,0.8,14.9-0.5,22.5,0.1c15.4,1.2,30.9-0.3,46.3-0.5c18.9-0.3,37.8-0.7,56.6,1.2c5.1,0.5,10.2,0.5,15.1-1.5
				c1.4-0.6,3.1-0.5,4.6-0.4c16.8,1.4,33.7,0.4,50.5,0.3c16.7,0,33.6-0.8,50.3-1.9c17.3-1.1,34.7-2.1,52.2,0.7
				c6.4,1,13.8,0.4,20.7-0.1c2.8-0.2,5.9-0.8,8.2,1.7c0.5,0.6,2,1.2,2.3,0.9c7-5.9,14.8-0.4,22.2-1.7c1.7-0.3,3.5,0.7,4.7,2.2
				c0.8,1,1.5,2.6,2.6,2.9c7.7,2.1,13,7.4,17.9,13.2c1.7,1.9,4.5,2.5,6.9,2c12.3-2.2,24.8-1,36.7,0.8c11.1,1.6,23,0.9,33.5,7.7
				c4.9,3.2,11.8,0.5,17.7,1.2c2.8,0.3,7.3-1.6,6.7,3.7c-0.6,5.3,3.6,12.5-5,15.2c-3,0.9-6,1.8-9,2.6c-3.5,1-3.9,3.5-3.9,6.8
				c0,3.8,2,4.5,5,4.9c1.5,0.2,3,1.1,4.5,1.4c2.8,0.7,7.1-1.8,7.9,2.3c0.4,2.2-0.1,5.2-0.3,7.5c-0.3,3-5.5,4.3-9,5.3
				c-2.6,0.8-5.6,0.2-8.8,0.3c0.3-3.5,3.3-3.2,4.8-4.5c0.1-2.5-4.1-1.8-3.4-5.1c0.6-2.6,2.3-6.5-2.1-7.7c-4.3-1.1-8.3,0.2-11.8,2.8
				c-1.6,1.2-2.8,2.8-4.2,4.3c-3,3-6.5,3-9.7,0.7c-2.7-2-4.6-0.5-6.8,0.6c-2.7,1.5-2.4,4.4-2.3,6.6c0.2,2.9,3.6,2.2,5.5,2.9
				c2.8,1,6.1,0.3,8.2-1.7c2.7-2.5,5.8-2.2,8.8-2.5c2.1-0.2,4.1,0.4,4.9,2.7c0.9,2.4-0.5,4.2-2.5,4.8c-4.4,1.4-3,5.3-2.7,7.6
				c0.3,2.2,3.5,1.8,5.8,1.6c7.5-0.9,15-1.7,22.6-1.4c4.6,0.2,5.7,2.4,5.2,6.6c-0.5,4.5-2.7,5.1-6.5,4c-6.3-1.9-11.9-2.2-14.8,5.5
				c-1.1,2.9-4.2,3.4-6.8,3.4c-7.6-0.1-13.4,4.4-19.9,7.2c-1.9,0.8-3.9,1.8-3.6,4.3c0.4,2.9,3.2,1.9,4.9,2.3c1.9,0.4,4,0.4,6,0.4
				c4.2,0.1,6.9,3.8,5,7.5c-1.6,3.3-3.7,1.1-5.3-0.4c-7-6.5-7.9-6.6-14.8,0c-0.7,0.7-1.9,1.3-2.9,1.3c-10.8,0.3-19.2,4.6-23.8,14.8
				L724.4,498.1z M335.8,361.5C322,361,322,361,325,370.7c0.1,0.2,0.2,0.4,0.2,0.6c0.7,13.3,8.2,24.6,11.7,37.1
				c0.9,3.3-0.1,9.5,6,10.5c5.1,0.9,5.6,2.9,1.5,6.3c-4.6,3.8-7.3,8.8-5.8,14.7c0.8,3.4,0.7,6.6,1,9.9c0.7,7.7-1,15.5-0.4,22.8
				c0.9,10.4,0.7,20.7,0.4,31c-0.2,5.9-0.7,10.8,6.9,11.8c1.6,0.2,2.8,1.5,3.4,3c1.4,3.5,4.4,3.6,7.7,4.1c15.4,2.3,30.7-4,46.4,0.2
				c8.7,2.3,18,0.9,27.1-0.5c6.6-1,14.6-0.4,19.5,3.2c8.3,5.9,16.4,5.8,25.1,4c4.9-1,9.3-0.7,13.7,1.5c4,2,7.9,2.5,12.3,0.9
				c3.5-1.3,7.5-2.6,11-2.2c10.8,1.3,21.5,3.9,32.3,5.3c10.1,1.3,20.6,0.3,29.5-4.3c6.9-3.5,13.4-4.6,20.4-3.9
				c13.3,1.4,26-3.8,39.2-2.6c1,0.1,2-1,3.1-1.2c9.5-2.3,18.1-7.1,27.4-9.9c8.3-2.5,11.8-5.2,11.9-13.1c0.1-9.9-1.6-19.9-0.3-29.6
				c1.6-11.5-2.6-22.4-1.3-33.8c0.4-4,2.8-8.8,0-12.7c-4.8-6.7-7.4-13.6-5.8-22c0.8-4.3,0.5-8.9,1.1-13.3c0.7-5.4-2.1-11.6,2.5-16
				c3.9-3.7,1.1-7.3,0.6-10.6c-0.3-2.3-4-1.9-6.2-1.9c-6,0-12.1,1.2-17.9,0.4c-8.9-1.1-17.5-2.1-26.6-1.4c-5.8,0.4-12.5,1.9-18-2.5
				c-1-0.8-5.9,0.3-7.7,1.1c-0.7,0.3-1.7-0.1-2.6-0.1c-8.2,0.9-16.6-1.7-24.3-1c-16,1.3-31.9-0.7-47.9,0.8
				c-15.8,1.5-31.8,0.2-47.7,0.3c-5.1,0-10.3,0.3-15.4,1.1c-15.3,2.2-30.7,1.6-46,2.4c-13.2,0.7-26.6,1.3-39.8-0.4
				C359.7,359,346.4,361.6,335.8,361.5z M686.5,425c4.9,1.8,8-4,13-4.4c8.6-0.6,14.6-7.1,22-10.6c5.9-2.8,5.4-5.8,0-9.7
				c-2.5-1.8-5.7-3.2-7.4-5.6c-6.1-8.6-15-14.2-22.3-21.4c-5.4-5.3-9.4-3.3-11.3,3.9c-1.4,5.5,0.3,10.9-0.6,16.4
				c-1.3,7.9-2.2,16-2.7,24C676.9,423.6,679.9,425.9,686.5,425z M313.8,370.6c-3.6,5.7-8.3,8.1-13.3,10.1c-0.9,0.4-2.4-0.4-2.5,1.4
				c-0.7,7.1-6.7,10.4-11,14.9c-6,6.3-4.3,10.1,4,13.4c8.1,3.2,18,0.8,24.6,8.3c0.5,0.6,2.2,0.4,3.3,0.2c3.8-0.6,7.1-0.2,9.7,3.5
				C324.9,405.1,320.4,388.3,313.8,370.6z M318.4,504.7c2.2-2.6,4.6-4.2,5.1-7.3c1.1-6.7,0.3-13.4-0.3-20.1c-0.1-1.2-1.2-2.3,0-3.7
				c5.5-5.8,2.3-11.9,0.7-18c-0.3-1.2,0-3-1.9-3.1c-2.1-0.2-2.2,1.9-3.1,3c-1.5,1.9-0.7,3.9-0.5,5.8c0.4,2.9,0,5.2-3.5,6.7
				c0.5-7,0.9-13.7,1.6-20.4c0.3-3.1,0.6-6.4-3.2-6.8c-3.6-0.4-4.3,2.8-5.1,5.8c-1.6,6.2-1.4,12.4-0.3,18.6c0.3,2,1.3,3.9-0.4,5.6
				c-0.3,0.3-1.4,0.4-1.7,0.2c-1.5-1.4-0.7-3.3-0.8-5.1c-0.3-4.7-1-9.3-1.5-14c-0.6,0-1.1,0.1-1.7,0.1c1,15-6.2,30.1,1.4,45.2
				c1.8-0.6,1.4-1.6,1.5-2.4c0.1-1.8-1.8-4.4,0.9-5.3c2.5-0.8,2.2,2.2,3.1,3.5c0.7,1,1.3,1.9,2.6,1.6c2.1-0.4,1.9-2.2,1.9-3.7
				c0.2-5.2-0.7-10.6,3.2-16.6C318.4,485.1,311.4,495,318.4,504.7z M195.5,441c-3.7-1.7-2.5-9.6-8-8.3c-11.8,2.9-24.2,0-35.7,4.5
				c-1.5,0.6-4.1-0.2-3.9,2.6c0.2,2.3,2,3.5,4.3,3.5c5.1,0,9.1,2.6,13.1,5.2c3.7,2.3,8.7,3.7,12,2.1c5.1-2.4,9.7-5.3,15.5-5.6
				C194.5,444.9,195.3,443.3,195.5,441z M357.8,541c-0.2,0-2.1-0.6-2.5,1.6c-0.3,1.7,1.6,2,2.7,2.4c4.1,1.7,7.9,3.7,12.5,0.5
				c2.9-2,6.7-2.2,10.3-2.5c6.2-0.5,12.7-0.3,18.5-2.2c7.7-2.6,15.2,0,22.8-1.1c1-0.1,3,1,3.5-0.5c0.5-1.3-1.4-2.3-2.5-2.6
				c-7.8-2.1-15.6-4-23.5-0.7c-2.4,1-4.4,1.1-7,1c-5.6-0.3-12.1-2.9-16.8,0.5C370.4,541.6,365.2,542.2,357.8,541z M298,445
				c-0.5-2.5,1.3-5.3-2-6.2c-2.3-0.6-3.5,1.8-3.5,3.2c0.4,7.2-1.6,14.1-2.4,21.1c-1,9.2-1.9,19,1.2,28.4c0.6,1.8-0.5,4,1.8,5.3
				c1.2,0.6,2.2,0.5,3-0.5c1.5-1.8,2.5-4.6,1.3-6.2c-4.1-5-2.4-11.6-1.2-15.5C299.2,464.4,296,454.4,298,445z M163,421.1
				c2.2,1,3.5,2.1,4.1,1.8c8.4-4.4,14.4,2.1,21.3,4.4c2,0.7,4.6,0.9,6.6,0.3c4.6-1.4,8.8-0.1,13.2,0.5c4.6,0.7,9.2,1.6,13.8,1.8
				c3.5,0.2,6.7-0.7,4.4-6.2c-7.8,7.1-15.5-2.5-23.4,0.1c-3.9-6-10.1-3.7-15.3-3.9C179.9,419.5,171.8,417.1,163,421.1z M711.4,452.9
				c0-0.7,0-1.3,0-2c0-1.4,0.9-3.6-1.5-3.7c-2.4-0.1-1.8,1.9-1.9,3.5c-0.1,1.5-0.3,3.2-0.9,4.6c-3.8,9.5-3.2,19.3-1.2,29
				c0.4,2.2,1.9,4.3,4.3,4.7c1.9,0.3,3.3-1.7,4.1-3.1c1-1.7,2.1-3.9-0.3-5.9c-2-1.6-2.5-4.3-2.5-6.8
				C711.4,466.5,712.1,459.7,711.4,452.9z M694.4,497.9c4.9-16.7,3.4-33.9,4.8-50.8c0.1-1.1-0.5-2.8-2.3-2.7c-1.8,0.1-1.7,1.5-2,2.9
				c-2.3,10.3-3.3,20.7-1.6,31C694.2,484.9,691.2,491.5,694.4,497.9z M771.1,449.2c-2-3.1-3.6-6.6-6.2-9.1
				c-3.5-3.4-7.5-1.5-10.9,0.8c-2.9,2-5.9,3.9-3.1,8.5c2.5,4.1,9.5,5.6,14.1,1.6C767,449.3,768.4,448,771.1,449.2z M717.9,444.5
				c-2,0.7-4,1.8-3.7,4c0.9,8.1,0.2,16.1,0.4,24.2c0.1,1.9,0.7,4.4,3.6,3.7c2.2-0.5,2.3-2.5,1.9-4.4c-0.4-2-2.7-4.1,0.2-5.9
				c2.7-1.7,4.1,1.5,6.4,2.1c1.9-5-1.2-9.2-1.2-13.7c0-1.5,1-4.5-1.7-4.1c-2.8,0.4-2.8,3.2-1.8,5.5c1.2,2.9,2.7,5.6-0.6,9.6
				C718.7,458.2,719.5,451.2,717.9,444.5z M618.2,540.4c-1.7,0.1-5.1,0.2-8.4,0.7c-2.1,0.3-4,1.4-2,4.1c3.8,5.2,13.6,7.1,18.9,3.5
				c2.4-1.7,4.7-4.8,4.3-7c-0.4-2.8-4.2-1.1-6.6-1.4C623.1,540.1,621.5,540.3,618.2,540.4z M290.5,513c-2.1,0.4-5.4-1.3-6,1.3
				c-0.8,3.4,3.1,2,4.8,3c0.9,0.6,1.8,1.4,2.7,1.9c4.8,2.7,9.6,5.3,13,10c0.8,1.1,2.4,1.4,3.7,0.6c1.9-1.1-0.1-2.2-0.2-3.3
				c-0.4-5.3-6.5-5.3-8.3-9C298,513.1,294.6,512.6,290.5,513z M505.9,546.4c-3-1.2-5-2.6-7-2.6c-3.1,0.1-6.5,1.9-6-3.7
				c0.1-1-1.3-0.7-2.1-0.9c-4.3-1-6.7,0.5-7.5,4.9c-0.8,4.4,3.2,6.5,5.3,6.1C494,549.2,499.9,550.7,505.9,546.4z M645.6,542.5
				c8.9-1,18.4,1.9,26.9-5C662.6,535.8,653.5,535.6,645.6,542.5z M245.2,402.2c-2.3,0.9-6.1,0-5.3,4.4c0.5,2.9,2,5.3,5.3,4.6
				c2.7-0.5,6.3-1.1,5.8-5.1C250.7,403,248,402.2,245.2,402.2z M776.5,400.4c3.5-0.8,9.5,0.9,9.4-3.9c-0.1-3.9-6-1-9.2-2.1
				c-2.7-0.9-7.5,0.9-7.4,3.7C769.3,401.8,773.8,400.1,776.5,400.4z M234.1,449.4c-2.3-1.9-4.3-3.9-6.7-5.2
				c-2.6-1.4-4.7,0.6-6.5,2.1c-1.4,1.2-0.4,2.4,0.6,3.3c1.5,1.4,3.4,4.6,5.2,2.7C228.8,450.1,231.7,451.8,234.1,449.4z M234.5,417.5
				c2.3-0.2,5.9,1.4,6.1-2.8c0.1-2.5-2.6-2.9-4.6-2.9c-3,0.1-7.7,0.8-7.9,3.1C227.6,418.6,231.9,417.2,234.5,417.5z M321.9,509.2
				c-1.9,0.4-3.6,0.9-3,2.5c1.2,3.1,4.4,3.6,7.2,4.2c1.3,0.3,3.2-1.5,2.4-2.3C326.5,511.6,323.9,510.4,321.9,509.2z M704.2,488.3
				c-0.4-2-0.2-5.2-2.3-5c-3.7,0.3-1.1,4.3-2.4,6.4c-1.2,2,0.9,2,2,2.1C704.3,492,704.1,489.9,704.2,488.3z"/>
			<path d="M366.6,576.4c-1.4-5.7-7.2-6.9-11.3-10.4c4.7-2.8,8.6-0.6,12.1,1.4c2.9,1.7,5.4,2.5,8.8,1.1c4.5-1.9,8.9,0.6,12.9,2
				c3.6,1.2,7.5,2.1,10.4,0.9c13.3-5.3,27.3-4.4,41-5.9c0.9-0.1,1.7-0.2,2.7-0.3c-3.2-4.1-12.8-5.4-26.6-3.7
				c4.9-6.7,14.8-9.3,21.8-5.3c5.4,3.1,10.4,2.9,15.6,0.1c5.2-2.9,11-0.3,16.4-1.8c0.8-0.2,1.9,0.3,2,1.4c0.1,1.4-1.1,1.9-2.1,2.1
				c-3,0.7-8.1,0.1-7.5,4.2c0.5,3.5,5.4,1.1,8.3,1.5c6.2,0.9,12.5,0.5,16.2,7.7c1.5,3,5.6,5.6,8.9,6.5c7.3,2,9.6,8.7,15.3,12.8
				c-1.3,0.6-2.1,1.2-2.4,1c-8.4-5.1-16.9-10.2-25.2-15.5c-1.3-0.8-2.4-2.1-4.1-2c-9.6,0.7-18.9-3.7-28.1-2.2
				c-3.6,0.6-6.9-2.6-10.3,0.4c-2.6,2.3-3.2,3.1,0.5,4.8c5,2.3,10.2,1.5,15.3,1.6c2.7,0,5.4-0.3,8.7,2.5c-8.5,0.6-15.8,3.5-23.5-0.2
				c-2.7-1.3-6.3-1.3-8.9,0.4c-2.6,1.8,1.6,4,0.7,6.5c-0.4,1.1,2.8,2.8-0.1,4.2c-2.3,1.1-4.2,0-5.2-1.9c-2-3.7-6.5-8.1,2.4-9.9
				c2-0.4,6.2-3.2,5.3-6.5c-0.9-3.3-4.6-1.8-7.4-2.1c-6.1-0.6-11.3,3.8-17.5,2.8c-2-0.3-3.6,1.8-4.3,3.8c-0.9,2.4,1.7,2.1,2.7,3
				c2.9,2.9,4.9,6.6,4.3,10.5c-0.4,2.7-9.8,3.6-13.1,1.7c2-2,4.6-1.6,6.9-1.8c4.7-0.4,4-2.2,1.9-5c-4.7-6.5-11.8-9-18.8-8.2
				c-6.5,0.8-12.3,0.2-18.2-1.9c-2.2-0.8-4.3-1.1-6.6-0.5L366.6,576.4z"/>
			<path d="M721.1,589.8c11.4,4.6,21.5,0.9,32.1-3.7c4.6-2,12-2.4,16.8,0.5c5.3,3.3,11.2,5.2,16.4,8.6c4.9,3.2,10.7,2.1,16.1,0.5
				c1.8-0.5,3.9-1.7,4.4,0.8c0.5,2.3-2,2.8-3.7,2.8c-5,0-9.8,0.5-14.6,1.7l0.2,0.2c-8.4-1.2-13.2-9-21.1-11.5
				c-4.7-1.5-8.6-1.4-12.9,0.1c-9.2,3.1-17.6,9.2-28.3,5.8c-2.1-0.7-5.1,0.7-6.4,2.9c-2.6,4.2-6.6,4.6-10.9,4.6
				c-0.9,0-1.8,0-2.7,0.2c-2.4,0.6-6.5-0.6-6.9,2.2c-0.5,3.6,2.5,6.1,6.3,6.4c2.1,0.1,3.4,1.2,4.3,2.6c4.2,6.4,10.4,9.5,17.7,11.1
				c1.9,0.4,3.8,2.2,2.8,5.1c-1.4,4-3.5,0.5-4.6,0.1c-11-4.4-21.7-2.2-32.4,0.9c-1.8,0.5-3.3,1.3-5.2,0.5c0.5-2.4,2.4-5,4.2-4.6
				c7.9,1.8,8.4-5.8,12.3-9c0.9-0.8,1.8-2.9,0.3-3.4c-8.8-3-15.8-10.7-26-10.2c-7.5,0.4-14.1-3.5-21.5-4.1c1.2-4,4.2-2.7,6.4-3.3
				c1.1-0.3,2.6-0.4,2.5-1.6c0-0.9-1.1-2-2-2.4c-3.5-1.5-7.1-2.6-10.6-4c-2.3-0.9-3,0.9-4.4,2.1c-3.1,2.7,0.3,4.7,1,8.4
				c-6.1-2.9-11.9-3.6-17.7-2.6l0.2,0.1c0.3-4.4,3.4-4.6,6.7-4.5c2.9,0.1,4.7-1.4,5.2-4.2c0.7-4.1-2.9-2.2-4.5-3.1
				c-5.6-3-10.6,1.3-16.2,1.1c3.2-3.6,6.6-5.9,12-5.6c14.1,0.8,26.4,6.4,37.2,14.9c4.8,3.7,11,3,15.7,6.5c1.2,0.9,3.8,0.1,4.9-1.3
				c4.1-5.1,9.4-6,15.5-5.2c5.3,0.7,10,0,11.4-6.4L721.1,589.8z"/>
			<path d="M236,551.9c-4.4-1.6-9.2-0.9-14.9-3.6c6.9,0,9.5-6.1,15.2-6.3c1.3,0,2.3-1.6,3.3-3c5.3-7.9,12.4-8.4,20-3
				c10.2,7.3,21.3,12.8,34.6,9.7c1.5-0.4,3.1-0.6,4.6-0.5c1.1,0.1,2.2,0.8,2.2,2.2c0,1.6-1.4,1.6-2.4,1.6c-3.1-0.2-8.7-1.2-8.6,1.3
				c0.1,5.2,5.8,1.6,8.8,3c2.5,1.2,5.3,0.9,8,0.8c2.6-0.1,5.5-0.1,5.5-4.2c-0.1-2.8,2.3-3.8,4.5-4.1c2.5-0.4,3.7,1.6,4,3.7
				c0.4,2.8,1.9,3.3,4.4,3.7c4.1,0.6,7.7,3.4,13,3.2c-2.2,3.8-5.2,5.7-6.1,9.3c-0.5,2-4.2,4.1-7.4,1.8c-8.2-6-18.3-6.3-27.6-8.9
				c-3.3-0.9-8.1-2.1-10.6,2.8c-1.2,2.3-3.7,1.2-5.5,1.4c-2.8,0.4-1.3-2.2-1.5-3.4c-1.2-5.3-1.6-11.1-9.5-10.3
				c-0.6,0.1-1.9-0.8-2-1.4c-0.7-3-2.4-4.5-5.5-4.9c-7.4-0.9-14.6-5.2-22.2-0.7c-1.4,0.8-3,1.4-3.1,3.2c0,2.2,1.8,3,3.4,3.7
				c1.7,0.7,3.5,1,5.2,1.5c1.3,0.4,3.7,0.7,3.7,1.2c0.5,7.4,8,7,11.7,10.6c0.9,0.8,1.7,1.7,1,2.8c-0.4,0.5-1.7,0.8-2.4,0.6
				c-7.6-2-15.8-1.1-23.3-4.1c-2.4-0.9-3.9-2.3-3.9-4.8C232.5,554.6,232.6,552.1,236,551.9z"/>
			<path d="M593.6,611.9c-6.8,0.1-15.1-2.6-23.7,0c-2.1,0.7-5.8-0.7-7.5-2.3c-3.8-3.8-7.5-2.7-11.6-1.2c-7.6,2.7-15.6,3.4-23.1,6.6
				c-3.8,1.6-8.5,1.3-11.9-2.4c-2.6-2.9-5.6-3-9.5-3.1c-6.1-0.1-10.3-0.3-14.5,5.7c-3.1,4.4-10.4,1.5-15.9,1.4
				c-2.4,0-1.3-2.2-0.9-3.6c0.7-2.2,2.4-3.3,4-1.7c6.9,6.6,10.9-0.3,13.9-3.8c5.1-6.1,11.5-4.4,17.6-5.3c0.5-0.1,1.3,0.4,1.5,0.9
				c2.4,4.7,3.1,4.8,8.4,4.1c7.9-1,14.6-5.5,22.4-6.7c7.5-1.2,14.8-0.8,21.9,1.3c12,3.5,21.6,0.6,28.1-10c3.3-5.4,9.4-5.6,13.6-9.1
				c0.7-0.6,2.4-0.4,2.9,0.8c0.6,1.2-0.2,2.3-1.3,2.7c-8.6,2.5-12.7,10.6-19.6,15.2c-1.4,0.9-3.9,1.1-3.2,3.5
				c0.7,2.5,3.1,3.3,5.5,2.9c5.1-0.8,10.1-1.7,15.1-2.9c3-0.8,6.1-1.9,8.7-3.5c2.5-1.6,4.6-2.8,5.9,0.5c1.2,3.1-1.4,4.7-3.7,5.3
				C609.6,609.2,602.7,611.7,593.6,611.9z"/>
			<path d="M735.7,533.2c-1.5-10.1,3.9-13.9,9.7-17.6c1.3-0.9,4.2-0.3,3.6-3c-0.5-2.2-2.2-3.7-4.8-4.2c-4.3-0.7-8.5-0.3-12.7,0.4
				c-1.5,0.2-4,1.9-4.1-1.2c0-1.8-0.9-5.5,2.4-5.2c8.5,0.6,17.3-2,25.6,2c4.6,2.2,8.5,1.7,12.2-2.9c4.1-5.2,7-10.6,9.7-16.6
				c1.9-4.3,8.8-6.6,13.9-9c3.6-1.7,7.7-2.2,11.7-3c1.8-0.4,4.3,1.9,3.3,2.1c-4.7,0.9-4.9,7.9-11,7.1c-4.8-0.6-10,0-13.7,4.1
				c-1.7,1.9-5,3.5-2.8,6.6c2,2.8,5.1,2.4,7.8,0.4c4.4-3.3,9.7-3.2,14.7-4.3c1.2-0.3,2.9-0.9,3.6,0.7c0.9,2.3-1.4,2.4-2.7,3
				c-3.9,1.6-7.7,4-11.8,4.3c-8.4,0.7-14.8,4.1-18.9,11.3c-0.9,1.6-1.9,3.2-3.3,2.3c-5.6-3.7-9.1,0.7-13.1,2.9
				c-4.1,2.3-8,4.9-12.1,7.2C738.9,523,739.4,528.4,735.7,533.2z"/>
			<path d="M718.9,555.9c2.7-9.3,11-13.8,14.1-23c2.7,4.9-1,6.7-1.4,9.3c-0.3,1.7-2.2,3.3-1.1,5c1.4,2,3.7,0.9,5.6,0.7
				c5.8-0.6,10.3-4,15.1-6.8c8.7-5,18-7,27.8-6.2c6.9,0.6,13.4-0.8,19.8-2.6c2.8-0.8,5.4-1.4,8.3-0.4c-7.1,4.3-13.9,9-22.8,8.7
				c-8-0.2-15.9,0.9-23.6,3.3c-10.4,3.2-20.8,6.3-31,10C726.2,555.5,722.7,554.5,718.9,555.9z"/>
			<path d="M306.1,588.1c0.1-2.8-3.8-3.7-1.4-5.9c2-1.8,3.1,0.9,4.6,1.5c4.8,2,9.4,3.5,14.9,2.8c7.8-0.9,9.3,0.8,10.6,8.6
				c0.7,4.2,4.3,2.9,7,3.4c2,0.4,5.3-0.8,5,2.5c-0.2,2.1-3.3,1.8-5.2,1.5c-4.6-0.9-9.3-1.7-13.7-3.3c-9-3.4-18.2-4.6-27.8-5.2
				c-4.9-0.3-9.4-2.5-14.7-1.4c-3,0.6-5.5,0.6-7.3,3.4c-1,1.6-3.1,3.5-4.9,1c-1.3-1.8-0.2-3.6,1.8-5c3.1-2,6.2-3.5,10-3.5
				C292,588.4,299,588.2,306.1,588.1z"/>
			<path d="M342.9,642.9c0.6-4.1,3.2-3.9,5.2-3.8c7.9,0.4,14.6-3,21.4-6.1c0.8-0.4,1.6-0.7,2.4-1.2c2-1.2,5.9,1.1,6.3-2
				c0.4-3.3-3.5-2.4-5.6-3.3c-0.9-0.4-1.6-0.9-1.6-1.9c0-1.1,1-1.4,1.8-1.6c3.1-0.9,5.3-0.8,7.1,2.8c2.4,4.7,5.8,4.6,7.9-0.1
				c0.7-1.5,1-2.2,2.6-2.1c4,0.2,8,0.4,12.1,0.6c1.2,0.1,3-0.6,3.3,1.2c0.3,1.6-0.8,3-2.4,3.7c-1.2,0.5-2.6,1.3-3.8,1.2
				c-11.2-1.4-19.8,5.6-29.5,8.9C361.6,642.2,352.3,641.6,342.9,642.9z"/>
			<path d="M182.8,556.7c10.7,3.6,20.8,4.7,30.8,5.5c6.9,0.5,12.1,3.1,17.2,7.8c5.3,4.8,12.2,7.6,19.3,9.6c1.3,0.4,3.5-1.3,3.8,1.2
				c0.3,2.3-2.2,3.1-3.5,4.6c-1.4,1.7-3.1,1.2-3.9-0.3c-3.8-7.2-12-7.7-17.5-12.1c-11.1-8.9-24.8-8-37.7-9.8
				C187.2,562.6,184.7,561,182.8,556.7z"/>
			<path d="M191.8,511.5c-0.8-4.3,1.8-5.1,5.1-5.4c2.4-0.2,6.1,0.8,4.7-4c-0.4-1.6,1-1.9,2-1.9c2.1,0,3.9,1,5.2,2.7
				c1,1.2,1.4,2.9,0.1,3.5c-5.8,2.9-6,8.1-6.3,13.5c-0.1,2.1-2.6,2.5-3.5,1.5C196.4,518.3,192.4,516,191.8,511.5z"/>
			<path d="M459.8,610.8c8-1.5,11.7-7.4,16-13.1c3.1-4.1,8.7-2,13.2-1.7c1.6,0.1,2.8,2.4,2.5,4.3c-0.2,2-2.2,2.4-3.6,2.3
				c-7.5-0.3-13.8,2.1-19.2,7.5C466.4,612.4,463.3,612.8,459.8,610.8z"/>
			<path d="M792.8,572.4c-1.8,0.5-3.5,0.7-3.7-1c-0.9-6-5.1-7-10.1-7.2c-1.3,0-2.9-0.4-2.9-2.1c0.1-1.2,1.5-1.4,2.6-1.7
				c7.2-2,13.3,1.6,19.6,4c1.6,0.6,3.5,2.7,2.8,4.1C799.3,571.8,795.7,572.2,792.8,572.4z"/>
			<path d="M168.2,493.9c-6.3,0.7-12,2.1-17.8,0.5c-1.7-0.5-3.9-0.5-3.9-2.9c0-2.8,2.6-2,4.1-2.2c4.4-0.5,8.9,0.4,13-2.4
				c0.9-0.6,2.8-0.6,3.9-0.1c2.8,1.3,7,2.3,6.7,5.7C173.7,497.1,169.5,491.9,168.2,493.9z"/>
			<path d="M786.6,470c-2.7,0.2-5.4,0.2-7.9,0.8c-1.7,0.4-3.3,1-3.8-1.1c-0.4-2,1.6-2.2,3.1-2.7c4.9-1.6,10.3-1.6,15-4.5
				c2-1.2,5.2-1.2,7.7,0.5c1.3,0.8,1.7,2,1.8,3.4c0.1,1.9-1.3,2-2.6,2.2C795.4,469.3,791.2,471.2,786.6,470z"/>
			<path d="M620.3,700.9c5.6-5.6,5.5-13.9,12.7-16.3c5.8-2,10.4-6,15.5-9.1c3.5-2.1,7.3-2.9,10.9-4.6c1.2-0.6,2.1-0.8,2.5,0.7
				c0.3,1.1-0.5,1.8-1.5,1.8c-11.3,0.2-16.5,11.8-26.7,14.2c-2.9,0.7-4.6,3.8-5.9,6.8C626.7,697.3,625.3,700.3,620.3,700.9z"/>
			<path d="M366.4,576.2c-2.3,6.6-14,8.7-18.6,3.1c-2.5-3-6.6-6.1-2.6-11c0.9-1.1,0.7-3.3,3-2.2c1.4,0.7,2.1,1.9,1.1,3.3
				c-3.6,5.2,2.2,5.8,4.1,8.1c2,2.6,4.3,1.5,6.2-0.7c2.2-2.4,4.6-0.6,6.9-0.4C366.6,576.4,366.4,576.2,366.4,576.2z"/>
			<path d="M580.8,647.5c-6,1-11.1,6.4-18.2,3.5c-2.7-1.1-6.8,1.4-6.7,4.1c0.4,6.8-4.2,2.6-6.2,3.1c-2,0.5-3.5-1.1-3.7-3.7
				c-0.4-4.4,3.1-3.9,5.4-4.1C561.2,649.4,571,649.3,580.8,647.5z"/>
			<path d="M721.3,589.6c-6.8-5.5-15.3-3.8-23.9-5.3c4.2-5.2,9.1-3.2,13.2-2.7c4.1,0.5,7.2,0.6,10.1-2.9c2.1-2.6,5.6-3.4,9.6-2.1
				c-3.3,4.5-14.1,3.7-9.2,13.2C721.1,589.8,721.3,589.6,721.3,589.6z"/>
			<path d="M162.6,464.3c6.5-0.4,12.6,1.2,18.6,2.7c2.1,0.5,4.2,1.7,4.1,3.7c-0.1,3-3,1.8-4.8,1.9
				C173.1,473.3,168.5,467.4,162.6,464.3z"/>
			<path d="M290.9,628.3c-8-1.4-16.1-2.2-23.4-6.3c-1-0.5-2-1.3-1.5-2.6c0.5-1.3,1.8-1.1,2.8-0.8C276.4,621.3,285.1,621,290.9,628.3
				z"/>
			<path d="M709.7,548.5c0.3,0.1,1.4,0.3,1.7,0.8c0.3,0.6,0.1,2.1-0.4,2.4c-4,2.5-8.1,5.1-12.4,7.2c-1.5,0.7-3.5-0.8-4.2-2.6
				c-0.8-2,1-2.7,2.2-3.6C700.1,549.7,704.9,550.2,709.7,548.5z"/>
			<path d="M368.4,686.3c-10,0.7-19,1.3-28.6,2C344.4,682.8,360,681.7,368.4,686.3z"/>
			<path d="M633.2,597.2c-1.1,0.7-1.7,2.4-3.3,2c-5.4-1.5-10.9-2-16.4-2.3c-2.6-0.2-5.4-1.7-4.5-4.6c0.9-3,4.1-2.3,6.3-1.3
				c5.9,2.6,11.6,5.5,18.1,6.3C633.4,597.4,633.2,597.2,633.2,597.2z"/>
			<path d="M724.2,498c0.4,1.3,0.9,2.5,1.2,3.8c0.7,3,0.7,6.3-3.2,6.6c-2.9,0.2-6.2-1.8-6.4-4.7c-0.2-2.3,0.1-7,5.4-4.8
				c0.8,0.3,2.1-0.5,3.2-0.7C724.4,498.1,724.2,498,724.2,498z"/>
			<path d="M185.9,596.1c10.1-0.1,17.2,9.7,27.6,8.7C202,609.2,194.5,600.8,185.9,596.1z"/>
			<path d="M486.8,636.6c-5.9,4.8-12.8,5.8-19.8,6.4c-1.4,0.1-3.5,0.6-3.6-1.7c-0.1-1.8,1.8-1.5,3-1.7
				C473.3,638.6,480,637.6,486.8,636.6z"/>
			<path d="M422.2,627.7c4.1-1.6,8.1-2.5,10.3,2.7c0.6,1.5,2.6,4.4-0.1,5.1C426.3,637.3,423.8,633,422.2,627.7z"/>
			<path d="M210.1,590.6c-0.1,1.7-1.4,2.1-2.4,1.7c-2.6-1-6.8-1.2-5.7-5.5c0.6-2.4-0.9-7.3,2.7-6.9
				C210.9,580.5,206.3,588,210.1,590.6z"/>
			<path d="M293.6,626.7c5.6-0.9,9.7,1.5,14,2.3c1.9,0.4,5.4,0.1,4.1,3.7c-1.1,2.8-4.1,2.7-6.4,1.7c-1.9-0.9-3.3-2.9-5.1-4.2
				C298.5,629,296.4,628.1,293.6,626.7z"/>
			<path d="M150.1,506.6c-0.2,1.7-1.4,2.1-2.4,1.6c-3.5-1.8-7.3-2.2-11-2.8c-1.6-0.3-2.4-1.3-1.1-2.8c1.3-1.5,3-2.3,4.8-1
				C143.4,503.6,147.7,503.3,150.1,506.6z"/>
			<path d="M413.1,599c6.7-4.4,13.8-3.7,20.9-2c0.7,0.2,1.6,1.1,1.6,1.7c0,1.4-1.4,2-2.4,1.6C426.7,597.4,420,598,413.1,599z"/>
			<path d="M365.9,589.1c0.2-2.6,2.1-2.1,3.5-1.8c3.2,0.8,7.3,0.9,7.8,5.1c0.2,2.1-2.8,1.7-4.4,1.6
				C369.5,593.8,366.5,593,365.9,589.1z"/>
			<path d="M262.2,619.7c-6.1,0.8-9.4-2.9-13.6-3.1c-1-0.1-1.9-1.3-1-2.5c0.8-1.2,2.4-1.9,3.5-1.3
				C254.6,614.6,258.4,616.1,262.2,619.7z"/>
			<path d="M393.4,661.1c3.5-2,5.3-4.7,8.8-4.3c1.5,0.2,3.6-0.2,3.9,1.6c0.3,1.8-1.3,3.4-3.1,3.8C400.3,663,397.5,662.8,393.4,661.1
				z"/>
			<path d="M572.3,575.3c5.1,1.7,6.9,5.5,11.5,6.4c-2.6,1.8-4.4,3-6.3,4.2C576,582.8,574.5,579.8,572.3,575.3z"/>
			<path d="M621.7,662c3.4,1,6.3-0.1,10.5-1.9c-2.3,4-3.1,7.8-6.3,8.2C623.1,668.7,622.8,664.7,621.7,662z"/>
			<path d="M297.6,569.4c4.5,0.9,8.3,1.6,12,2.5c0.5,0.1,1.1,1.4,1.1,2.1c0,1.2-1.1,1.3-2,1C305,574,300.5,574.9,297.6,569.4z"/>
			<path d="M788.5,601c-1.4,2,2.6,5.4-1.6,6.6c-1.4,0.4-3.1,0.4-4.2-1.1c-0.8-1.2-1.3-2.5-0.5-3.7c1.6-2.7,4.2-1.7,6.6-1.5
				C788.7,601.2,788.5,601,788.5,601z"/>
			<path d="M318.5,684.6c5.6,1,9.7,1.7,14.4,2.5C327.9,689.9,325,689.4,318.5,684.6z"/>
			<path d="M474.5,470.5c18.2-4.4,36.6-0.9,54.8-1.3c5.3-0.1,11.4,1,16.8,3c3.7,1.4,5.6,5,3.5,8.1c-3.2,4.6-2.5,9.4-2.9,14.3
				c-0.4,5.6-3.1,7.5-8.9,8.3c-19.1,2.5-37.9-2.8-57-1.1c-4.1,0.4-7.7,2.6-12.2,2c-8.4-1.1-8.4-1.5-10.2-10.9
				c-1.3-7,3.7-13.1,2.9-20.1c-0.2-1.6,2-2,3.7-2C468.2,470.6,471.4,470.5,474.5,470.5z"/>
			<path d="M627.8,499c-3.8-0.4-7.6-1.3-11.3-1c-6.5,0.4-7.6-3.3-7.4-8.3c0.2-5.3,2-10.4,2.1-15.9c0-2.5,1.2-4.7,5.1-4.6
				c11.6,0.2,23.3-0.2,34.9-0.6c2.3-0.1,4.4,0.2,6.6,0.9c1.3,0.4,2.6,1,2.8,2.5c0.2,1.7-0.5,3.2-2.2,3.7c-5.3,1.6-5.7,5.2-4.9,10
				c1.2,7.6-1.9,11.2-9.7,12.1C638.4,498.4,633.2,499.9,627.8,499z"/>
			<path d="M382.1,466.2c5.8-0.5,12.1,1.2,18.7,0.6c4.3-0.4,7.6,3.8,7.3,9.1c-0.2,4.1-1,8.1,0.5,12.4c1.7,4.9-3.7,9.9-9.1,9.1
				c-6.1-1-12.1-2.5-18.1-3.8c-2.5-0.6-4.9-1.2-7.6-0.8c-3.5,0.4-5.2-0.9-4.6-5.2c0.7-5.7,2.4-11.1,2.4-17
				C371.6,463.6,377.8,467.2,382.1,466.2z"/>
			<path d="M456.7,421.1c7.7,6.9,17.8-1.1,26.4,3.5c2,1.1,3.9-0.1,5.8-0.9c2.5-1.2,5.1-1.5,7.8-1.2c13.6,1.7,27.2,3,41.1,0.8
				c7.7-1.2,15.8,0.1,23.5-0.9c16.6-2.2,33.2,0.8,49.8-0.4c2.1-0.2,4.2-0.4,5.2,1.9c0.7,1.6-0.7,1.8-1.7,2.2
				c-1.6,0.6-2.3,4.1-5.2,0.9c-2.3-2.4-6.4-2.2-9.6-0.8c-4.9,2.1-9.6,1.7-14.3-0.1c-2.1-0.8-4.2-1.3-6.5-0.3
				c-8.3,3.6-17.1,0.4-25.7,1.5c-6.2,0.8-12.7,0.1-19.2,0.8c-8,0.9-16.2,0.6-24.2-1.1c-4.1-0.9-7.9-1.3-11.7,1.1
				c-3.9,2.5-8.2,1.5-12.4,1.2c-10.1-0.6-20.2-1.3-30.3-2c-2-0.1-4.2,0.1-4.1-3.1C451.7,420.9,454.4,422.2,456.7,421.1z"/>
			<path d="M433.5,428.9c-12.4,3.6-26.8-1.7-41,0.7c-1.9,0.3-4.8,0.1-5.7-1c-5.7-7-13.1-4.1-19.9-3.4c-3.8,0.4-7.5,0.8-11.3,0.8
				c-1.3,0-3,0.4-3-1.6c-0.1-1.3,1.2-2,2.3-2c4,0.2,7.7-2.5,11.8-0.7c3.2,1.3,6.9,0.3,8.7-1.9c3.2-3.9,6.4-3.7,10.1-1.8
				c4.9,2.6,10.3,1.4,15.1,1.4c12.7,0.1,25,4.1,37.8,2.7c2.6-0.3,4.8,0.6,4.3,3.6C441.9,430,438.4,429.4,433.5,428.9z"/>
			<path d="M644.6,429.9c-5.6,1.3-10.4-3-16-1.9c-1,0.2-2.2-0.7-2.2-2c0-1.4,1.1-1.8,2.3-1.8c5.6-0.1,11.2-0.1,16.9-0.2
				c2.2,0,3.4,1.4,3.4,3.4C649,430.4,646.2,429.6,644.6,429.9z"/>
		</g>
		<g>
			<rect x="99.3" y="99.6" fill="none" width="800" height="200"/>
			<path d="M215.6,156.9c2.2-21.9,15.5-44.7,51.8-44.7c36.2,0,50.4,20.1,50.4,41.3c0,17.7-11.3,27.3-20.5,31v0.5
				c12.5,4.3,26.8,14.7,26.8,38.5c0,23-15.2,48.5-56.9,48.5c-36.9,0-52.9-21-54.6-45.1h31c2.1,11.3,8.5,20.6,24.9,20.6
				c16,0,23.3-9.2,23.3-23.7c0-16.8-9.4-24-27.2-24h-11.9v-25h9.6c16.1,0,23.7-4.5,23.7-19.1c0-12.5-6.6-19.5-19.9-19.5
				c-13.4,0-20,7.3-21.7,20.7H215.6z"/>
			<path fill="#FF0000" d="M401.8,153.2v45.3H446v24.1h-44.3v45.9h-24.1v-45.9H333v-24.1h44.7v-45.3H401.8z"/>
			<path fill="#FF0000" d="M556.3,140.7H494c-1,9.9-2.9,25.7-4,32.8c5.3-4.7,13.8-8.8,28.3-8.8c31.1,0,47,22.9,47,50.8
				c0,32.7-18.2,56.6-56.8,56.6c-29.6,0-50.7-14.3-53.2-43.9h30.9c2.5,12.1,9.3,19.4,23,19.4c17.9,0,23.9-11.9,23.9-29.8
				c0-16.2-6.9-28.3-24-28.3c-13.9,0-20.9,6.4-24.6,16.3l-26.3-4.2c3.5-18.7,9.4-68.6,11.1-87h90.7L556.3,140.7z"/>
			<path d="M643.3,153.2v45.3h44.3v24.1h-44.3v45.9h-24.1v-45.9h-44.7v-24.1h44.7v-45.3H643.3z"/>
			<path d="M789.9,114.5v24.8c-26.6,35.7-47.7,85.1-56.7,130.4h-33c10-51.3,37.1-102.2,58-129.1H686v-26.2H789.9z"/>
		</g>
		<g>
			<polygon fill="#FF0000" points="349.3,799.9 499.3,899.9 649.3,799.9 			"/>
			<rect x="399.3" y="749.9" fill="#FF0000" width="200" height="50"/>
		</g>
	</g>
</g>
<g id="text">
</g>
<g id="scratch">
</g>
<g id="guides" display="none">
</g>
</svg>
