<?xml version="1.0" encoding="utf-8"?>
<!-- Generator: Adobe Illustrator 26.0.2, SVG Export Plug-In . SVG Version: 6.00 Build 0)  -->
<svg version="1.2" baseProfile="tiny" xmlns="http://www.w3.org/2000/svg" xmlns:xlink="http://www.w3.org/1999/xlink" x="0px"
	 y="0px" viewBox="0 0 800 800" overflow="visible" xml:space="preserve">
<g id="fill">
</g>
<g id="bg" display="none">
</g>
<g id="counters_00000155831629897369998050000010902328751353074356_">
	<g id="Fire">
		<path fill="#FF0000" d="M263.1,370.3c-3.6-1.3-7.1-2.5-10.5-3.9c-7.5-3.1-13.3,0.3-17.4,5.8c-3.6,4.9-5.5,10.6-1.1,17
			c3.4,4.9,3.9,11.4,8.1,16.3c2,2.4,2.5,6-0.7,9.4c-3.8,4.1-3.3,10.3-5.2,15.4c-4.7,12.9-13.4,23.5-17.7,36.5
			c-3.7,11.1-10.3,21.2-8.3,33.9c0.9,5.4,0.4,11.2,4.8,14.8c5.9,4.9,12.2,9.3,17.6,14.8c0.8,0.9,2.8-0.1,3.3-1.4
			c5.4-12.8,12.9-24.4,20.3-36.1c4.1-6.5,1.5-12.1-5.5-16c-3.5-1.9-4.8-8.1-10.9-5.7c-1.1,0.4-2-2.3-1.2-3.9c0.8-1.6,1.4-3.7,4.1-2
			c4.3,2.7,11.2,0.1,13.5,7.5c0.8,2.6,7.8-0.7,7.5-4.8c-1.1-13.5,9.7-21,15.2-31.1c2.7-5,15-6.6,19.5-3c4.4,3.6,9.7,2.1,14.4,4.4
			c-1.3-15.2,6.3-26.8,13.7-38.3c6.5-10.1,17.1-16.9,22.8-27.8c2.1-4.1,1.2-7-1.3-10c-8.4-10.1-5.5-27.6,5.7-34.4
			c1.3-0.8,3.1-1,3.2,0.5c0.2,3,4,6.7,0.4,8.9c-4.6,2.8-7,7.6-5.7,11.2c2.5,7.1,5.8,14.2,11.3,19.7c1.5,1.5,3.1,0.7,4.2-0.6
			c2.5-2.8,5.1-5.3,6.8-8.9c3.9-8.1,6.3-16.8,11-24.7c5.2-8.7-0.1-19.6-10.1-24.2c-2.9-1.3-7.9-0.8-5.5-6.2c2-4.5,7-3.7,10.1-2.8
			c5.3,1.6,10.4,4,15.8,5.5c9.4,2.6,17.4,21.6,13.2,31.7c-1.7,4.1-3.4,8.2-6.5,11.9c-7.8,9.1-4.6,35.8,4.6,43.4
			c9.8,8.1,19.5,16.2,29.2,24.4c4.2,3.5,6.9,7.8,8.4,13.2c2.1,7.1,6.8,8.2,10.4,1.7c6.3-11.3,18-15.2,27-22.6c1-0.8,2.7-2.2,3.3-1.9
			c8.5,4.6,14.9-3.7,22.7-3.4c3.1,0.1,16.2,9.4,15.8,12.2c-0.5,4.3-3.3,4.2-6.4,2.5c-4.1-2.1-7.4-7.8-13-2.3
			c-3.3,3.2-8.3,3-12.2,6.6c-6,5.5-12.4,9.1-12,19.1c0.4,12.5,2.4,24,10.6,33.7c1,1.2,2.7,2.2,3.2,3.6c3.3,9.1,7.8,3.9,10.3,0.3
			c8.5-11.9,20.9-15,34.2-16.5c1.4-0.2,3,0,3.3,1.5c0.4,1.9-1,3.1-2.6,3.4c-1.8,0.4-3.8,0.4-5.6,0.3c-7.7-0.3-13.7,2.4-18.5,8.6
			c-2,2.5-5.5,3.6-8,6.2c-6.3,6.4-6.9,13.7-6.4,22c0.8,13.1,5.6,25.7,4.6,39c-1.1,14.7-7.5,26.8-18.1,36.1
			c-5.4,4.8-10.6,10.2-16.9,14c-3.5,2.1-1.7,3.7,0.3,4.4c4.2,1.5,7.7,3.6,10.2,7.3c0.5,0.8,2.3,1.7,2.5,1.5
			c5.2-4.7,12.3-2.9,17.8-3.1c10.5-0.5,15.6-9.3,24.3-12.5c5.9-2.1,8-12.8,8-21.1c-0.1-14.1-6.1-26.1-12.7-38.1
			c-8-14.8-2.6-30.5,11.9-39.3c10.9-6.7,23-9.2,35-11.9c12-2.8,22-22.5,17.2-33.9c-1.9-4.5-3.9-3.2-5.4-0.7
			c-4.6,7.4-12.3,10.8-19,15.4c-4.7,3.2-10.1,5-17.8,1.4c9.2-3,13.6-9.8,20.3-13.8c8.5-5.1,9-24.6-1.6-32.2c-1.5-1-4.9-1-3.3-4.1
			c1.4-2.5,4.2-1.9,6.6-1.4c12.6,2.8,21.3,10.2,25.7,22.2c2.2,6.1,5.4,4.1,7.6,1.1c8-10.9,11.8-22.8,7.9-36.7
			c-2.1-7.4-7.7-11.4-12.6-16.1c-1.5-1.5-3.6-2.4-4.9-4c-1.1-1.2-0.9-3.2,0-4.6c0.8-1.3,2.4-1.1,3.7-0.7c8.2,3,16.5,5.7,19.9,15.4
			c1.9,5.5,5.1,10.6,7.7,15.8c8.6,17.5,8.6,36.2-1.9,51.3c-8.5,12.2-19.4,24.5-33.6,31.6c-6.8,3.4-12.8,8-20.1,11
			c-7.9,3.2-9.3,11.6-4.4,20c2.6,4.5,3.1,14,12.8,8.3c0.7-0.4,2.5-0.1,2.9,0.6c1,1.3,0,2.8-1.1,3.3c-14,6.6-7,20.2-10,30.4
			c-0.7,2.2,2.5,5.3,5.6,3.6c12.3-6.6,26.5-9.2,37.1-19.4c5.5-5.2,11.5-9.8,16.3-15.9c7.6-9.5,5.1-19.7,4.3-31.4
			c-9.3,7.3-15,16.2-24.9,20.6c-6.5,2.9-14.3,2.8-19.7,8.3c-1.3,1.3-2.8-0.1-3.5-0.8c-1.5-1.6,0.2-2.2,1.4-2.7
			c3.9-1.7,7.8-3.5,11.8-5c15.8-6,30.8-17.3,24.6-37.9c-0.3-1-0.4-2.8,0.1-3.1c5.5-3.1,10-7.3,14.5-11.6c1.2-1.2,3,1,2.4,1.8
			c-10,12.4,2.7,21.7,4.5,32.4c4,25-4.8,43.6-26.5,55.7c-2.5,1.4-4.8,3-5.9,5.3c-1.7,3.6-4.6,5.2-8,6.2
			c-9.9,2.9-17.9,10.6-28.6,11.5c-0.9,0.1-2.3,1-2.5,1.8c-3,8.6-11,11.9-17.8,16.1c-17.6,10.8-33.6,24.9-56.1,25.8
			c-9.5,0.3-18.7-0.8-28-1.5c-7.3-0.6-11.6,5.6-17.5,8.4c-8,3.7-11.4,13.9-9.2,23c2.2,9.1-8.8,27.4-17,31.7
			c-11.6,6.1-24.5,6.5-36.4,10.8c-5,1.8-9.5,4.8-15.2,4.7c-2.8,0-3.9-0.4-3.9-3.3c-0.1-4.8-0.2-9.3,2.9-13.8
			c7.5-10.8,4.2-23.2-7.3-29.6c-11.9-6.6-23-13.7-30.5-26c-3.8-6.3-11.3-9.4-19.8-7.3c-15.7,3.9-29.4-1.7-39.5-15.1
			c-4.4-5.8-8.8-12-14-16.6c-8.5-7.6-19.9-10.1-31.4-8.8c-2.7,0.3-4.7,0.5-7.4-0.5c-3.6-1.3-8.2-0.3-11.7-0.8
			c-10.4-1.5-19.9-6-26.7-14.8c-0.8-1.1-1.4-2.4-2.3-3.2c-19.7-17.4-20.3-38.8-13.1-62c1.4-4.5,2-9.4,2.7-14.1
			c2.1-13.5,13.2-21.8,18.9-33.2c3.9-7.8,11.2-13.4,13.2-22.4c0.7-3.1,1.8-6.3,1.3-9.4c-2.5-15.7,2.3-28.6,12.1-41.1
			c5.4-6.9,10.6-12.8,18-17.8c9.8-6.7,19.2-2.2,28.5-1.8C264.2,358.6,264.6,365.1,263.1,370.3z M411.1,500.3c0-3.9,0.2-7.7-1.1-11.8
			c-3.5-11.2-8.9-21.1-15-31.2c-6.9-11.4-13.1-23-22.4-32.6c-3.5-3.7-4.7-8-5.3-13c-0.6-5.8-2-11.5-3.1-17.2
			c-0.4-2.4-1.1-5.3-3.6-5.5c-2.6-0.2-2.4,2.9-3.3,4.8c-0.9,2.2-2.2,4.4-3.9,6c-8.7,7.8-10.7,17.3-8.3,28.3
			c2.4,11.5,6.1,22.6,9.3,33.9c2.2,7.8,5.5,15.2,6.3,23.6c1,10.6-0.5,21-2.3,31.1c-1.3,7.5-3,16.1-8.3,22.1
			c-5.2,5.9-7.7,12.7-9.4,19.9c-2.7,10.7-1.5,21.3,2.8,31.5c1,2.5,2.5,3,5.4,3.1c3.8,0.1,4.2-1.5,4-4.1c-0.2-2.8,1.6-4.4,3-6.3
			c5.7-7.5,10.1-15.5,18.5-21.3c6.4-4.3,11.6-11.2,17.9-16.4c3.1-2.6,7-4.7,9.1-8C408.7,525.8,411.9,513.5,411.1,500.3z
			 M387.7,676.8c6.3-7.1,4.2-21.5-4.5-27.8c-15.2-11-16.8-27-17-43.1c-0.1-7.2,3-14.1,8.3-20.7c9-11.1,22.7-15.2,32.8-24.6
			c6.3-5.8,12.3-12.7,20.3-17.2c12.2-6.9,23.4-34.6,20.6-48c-2-9.4-3.7-18.8-6.6-27.9c-1.7-5.4-2.4-11.8-6.6-16
			c-7.2-7.2-13.2-15.1-19.5-23c-9-11.4-18-22.2-24.3-35.6c-4.6-9.9-6.8-18.2-3.5-28.8c1.8-5.7,4-12.4,1.2-20.6
			c-3.7,9.4-10,15.3-12.1,23.9c-2.6,10.4-4,20.6-3.4,31.3c0.8,15.8,10.4,27.4,18.3,39.4c9.1,13.7,17,27.7,21.4,43.5
			c3,10.8,5.2,22,2.7,33.2c-2.7,12.7-6.7,24-18.2,33c-13.4,10.5-28.2,20.6-35.8,37.1c-4.5,9.6-8.9,19.3-6.8,30.1c0.8,4,1,8,1.1,11.9
			c0,6.3,2.2,10.6,8.1,14.2c4.3,2.6,10.5,4.3,12.2,9.7C379.1,660,389.4,665.5,387.7,676.8z M426.4,568.6c-5.7,1.1-13.1,0.6-18.4,3.7
			c-12.8,7.5-24.3,16.7-27.9,32.7c-1.7,7.8,2.8,23.1,9.1,27.8c3.1,2.3,6.1,1.4,5.7-1.8c-1.3-8.9,4.7-15.2,7.3-22.6
			c4-11.4,23.4-19.7,34.7-15.6c0.9,0.3,1.6,0.4,1.8-0.5c1.5-6.7,7.1-3.3,9.8-2.9c4.7,0.7,8.8-1.7,12.3-1.6
			c13.6,0.7,20-9.3,28.7-16.2c2.7-2.1,3.5-4.8,4.7-7.9c5.1-13.3,6.1-26.1,1.8-40.2c-4.1-13.4-8.3-26.8-14-39.4
			c-6.3-13.7-9.6-28-12.2-42.6c-0.5-2.5,1-6.4-1.7-7.2c-3.1-0.8-5.4,2-7.2,5c-3.3,5.5-4.4,12-8.3,17.2c-4.4,5.9-3.4,20.5,0.5,26.9
			c9.5,15.6,12.9,33.4,14.2,51.1C468.2,550.2,443.7,571.4,426.4,568.6z M184.3,497.2c1.5,11,3.2,21.8,4.6,32.7
			c2.5,19.1,13.7,29.5,32,33.4c9.9,2.1,10.3,2.1,10.9-7.2c0.3-4.8,0.3-7.3,6.5-3.8c3.4,1.9,4.6,7.7,9,6.5c6.3-1.8,7.3,1.9,8.7,6.2
			c0.8,2.5,2.3,4.9,3.7,7.1c1.1,1.7,2.9,2.9,4.8,1.9c1.9-1,2.8-2.6,2.1-5.3c-2.2-8.9-7.6-15.9-15.2-19.9c-8.9-4.7-17.7-9.2-26-15.1
			c-19-13.5-26.8-36.3-18.4-58.2c5.8-15.2,14.2-29.1,22.2-43.2c9.1-16.1,7.7-30.2-4.2-43.4c-2.4-2.6-4.7-3.3-6,0.4
			c-2.8,7.4-5.6,14.8-1.5,23c3.8,7.5,3,15.3,0.1,23.3c-4.3,11.9-13.8,19.8-20.7,29.8C190.1,475.3,186.4,485.7,184.3,497.2z
			 M312.7,516.6c0-15.6-7.9-25.4-15.8-35c-6.5-7.8-17.4-12.2-18.4-24.2c-0.1-1.4-0.8-2.6-2.5-2.6c-1.2,0-1.9,0.7-2.2,1.9
			c-2.7,13.3-7.3,26.6,1.8,39.3c12.5,17.6,12.8,36,3.3,55c-2.5,5-3,10.4-3.3,16.2c-0.8,14,7.8,23.5,14.8,33.6
			c2.8,3.9,7.7,8.4,13,8.5c10.8,0.3,21.4,0.4,31,6.2c3.8,2.3,4.9-0.9,6.1-3c1.9-3.2-0.6-3.3-3.1-4.5c-11.2-5.4-22.9-9.8-33.3-16.8
			c-10.5-7.1-15.2-21.4-9.1-31.6c6.4-10.6,8.4-22.9,15.1-33.4C312.3,522.9,313,518.7,312.7,516.6z M337.6,400.7
			c-3.1,6.3-6.2,12.5-9.1,18.8c-4.9,10.5-5.6,22.1,0,31.6c5.3,9,9.2,18.5,14,27.5c4.6,8.7,5.2,16.5,0.8,25
			c-3.8,7.2-6,15.9-11.4,21.4c-9.2,9.2-19,17.6-21.4,31c-2.1,11.9-3.5,24,6.5,33.8c5.1,5,13.2,2.3,18.3,9.6c0-4.5,1-7.8-0.2-9.7
			c-11.4-18.3-1.9-34.3,7.1-48.8c18.6-30.2,14.9-60.3,2.9-91c-5.3-13.5-12.6-26.8-4.8-41.9C341.4,405.6,342,402.5,337.6,400.7z
			 M537.2,580.1c0.4,1.8-0.8,4.1,1.9,4.8c2.2,0.6,4.4-0.4,6-1.7c6.2-4.9,10.4-12.3,12.3-19c3.6-12.7,3.7-27-2.6-38.9
			c-5.8-11-5.4-20.1,1.5-29.6c1-1.4,2.1-2.8,1.2-4.4c-1.2-2-3.4-1.6-5-0.8c-6.3,3-13.2,3.8-19.1,8.8c-6.8,5.8-13.1,15.7-10.3,23.5
			c2.9,8.3,6.8,16.2,10.8,24.1c4.9,9.7,10.8,19,3.7,30.1C537.1,577.9,537.3,579.2,537.2,580.1z M335.3,488.7
			c-3.8-11.2-4-24.4-15.5-33.7c-4.4-3.5-9.4-7.1-13.4-11.7c-6.6-7.6-15.7-4.6-18,5.3c-2.5,10.4,2.7,18.3,9,25.8
			c7.8,9.1,18.6,16.2,19.9,29.6c0.2,2.2,1.7,4.1,4,4.4C323,508.6,335.3,491.9,335.3,488.7z M443.5,617.1c-1-8.8,3.3-11,10.5-10.4
			c2.1,0.2,4.5,0.3,6.3-0.5c1.5-0.6,2.7-2.6,3.4-4.2c0.6-1.3-0.7-2.9-2-3c-4.6-0.3-9.2-4.2-13.9-1c-4.4,3-8.8,2-13,0.2
			c-11.2-4.7-24.5,3.5-27.7,13.4c-3.2,9.8-5.2,19.9,1.3,30.1c2.6,4.1,5.7,8.8,5.9,14.4c0.1,2.7,0,6.8,4.2,6.2c3.9-0.5,4.2-4,4.1-7.6
			c-0.2-6.7-0.5-13.5,0.1-20.1c0.8-8.5,4.6-15.4,12.3-20.3C439.4,611.7,441,613.4,443.5,617.1z M453,516c-4.6,8-6.2,16.4-13.9,22.6
			c-5.4,4.4-9,11.5-15.9,14.9c-2.6,1.3-2.5,3.9-2.3,6.4c0.3,3.7,3.4,2.7,5.5,3.2c10,2.4,17.4-2.8,24.2-8.9
			C460.1,545.7,461.5,524.9,453,516z M278.7,524.3c0.1-9.1-4.5-14.8-8.7-20.5c-2.5-3.4-3.4-0.3-4.8,1.8c-10.3,14.7-2.7,29,0.6,43.5
			c0.3,1.5,1.6,2.9,3.6,2.6c1.8-0.3,2.8-1.7,3.2-3.3C274.7,539.9,276.9,531.5,278.7,524.3z M590.9,468.2c0.2,0.6-1.1,3,1.5,3.7
			c2,0.5,3.5-0.6,4.9-2.1c6.7-6.8,11.5-15.1,17.1-22.8c3.6-4.9,2.5-10.2,3-15.2c0.4-3.4-3.3-3.5-5.6-0.8c-2,2.4-3.7,4.9-6.4,6.8
			C595.6,444.9,591.1,455.1,590.9,468.2z M252.8,532.6c-0.5-2.1-1-4.4-1.5-6.7c-0.7-2.6,1.6-7.1-1.9-7.5c-2.5-0.3-3.8,4.2-5.1,7
			c-1.6,3.4-0.5,6.2,0.6,9.1c0.8,2.1,1.7,4.9,4.9,4C252.5,537.8,253,535.4,252.8,532.6z"/>
		<path fill="#FF0000" d="M235.3,468c3.2,5.2-1.8,7.7-3.6,11.2c-0.7,1.4-2.4,1.2-3.4,0c-1.9-2-2.1-4.6-0.3-6.5
			C230,470.7,232.1,468.5,235.3,468z"/>
	</g>
</g>
<g id="text">
	<g>
		<rect x="100" y="100.1" fill="none" width="600" height="200"/>
		<path fill="#FF0000" d="M183.1,119.1h110.7v29.1h-76.1v43.7h71.5v28.6h-71.5v71.2h-34.5V119.1z"/>
		<path fill="#FF0000" d="M341,119.1v172.7h-35.2V119.1H341z"/>
		<path fill="#FF0000" d="M402.1,220.4v71.3h-34.6V119.1h70.3c32.6,0,55.9,16.2,55.9,46.7c0,23.5-12.4,34.9-26.9,40.4
			c17.1,6.6,23.3,20.2,23.3,41.6v4.5c0,15.3,0.9,29.8,2.3,39.5h-33.9c-2.5-7.2-3.2-18.9-3.2-40.1v-4.5c0-19.8-7.2-26.7-29.8-26.7
			H402.1z M402.1,192.5h26.3c16.7,0,30.5-4.5,30.5-23.6c0-16-11.6-21.9-25.7-21.9h-31.1V192.5z"/>
		<path fill="#FF0000" d="M620.8,216.4h-75.1v46.5h82.9l-4.2,28.9h-113V119.1h112.5v29.1h-78.2v39.1h75.1V216.4z"/>
	</g>
</g>
<g id="guides" display="none">
</g>
<g id="scratch">
</g>
</svg>
