<?xml version="1.0" encoding="utf-8"?>
<!-- Generator: Adobe Illustrator 26.0.2, SVG Export Plug-In . SVG Version: 6.00 Build 0)  -->
<svg version="1.2" baseProfile="tiny" xmlns="http://www.w3.org/2000/svg" xmlns:xlink="http://www.w3.org/1999/xlink" x="0px"
	 y="0px" viewBox="0 0 800 800" overflow="visible" xml:space="preserve">
<g id="fill">
</g>
<g id="bg" display="none">
</g>
<g id="counters_00000155831629897369998050000010902328751353074356_">
	<g id="mkr_x5F_prep_x5F_fire">
		<rect id="_x31__x2F_2_x22__800x800_00000052813975579300470310000000181969653279745201_" fill="none" width="800" height="800"/>
		<g>
			<path fill="#FF0000" d="M294.2,184.1c1.6-3.3,3.3-6.6,5.8-9.4c2-2.2,2.7-4.9,2.5-7.6c-0.2-4.2-4.2-3.4-6.7-4.3
				c-2.4-0.9-2.1,1.5-2.5,3.1c-1.4-6.1-2.3-6.6-8-4.8c-1.7,0.5-3.5,0.7-5.2,1.1c-0.1-1.3,2.5-1,1.5-2.4c-0.4-0.6-1.8-0.5-2.7-0.7
				c3.6-2.1,7.7-2.6,11.6-3.7c0.3-0.1,0.7-0.2,1-0.1c4,2.6,9.8,1.6,12.9,7.2c2-3.6,5.9-5.1,7.1-9.2c0.6-1.9,1.6-4,4.3-4
				c0.1,1.9,0.3,3.8,0.1,5.7c-0.3,2.9,1.7,1.1,2.6,1.4c-0.8,3,2.6,6.5-1.4,9c-1.4,0.1-0.1-3.1-2.1-2.2c-2.1,1-1.9,3.2-1.2,4.8
				c0.6,1.4,0.7,3.7,3.5,3.4c1.7-0.2,2.2-2,3.8-2.1c0.5,1.4-0.5,3.4,1.7,3.9c-0.3,1-0.7,2-1,3c-0.3-0.4-0.5-0.9-0.9-1
				c-1.5-0.7-0.8,0.7-0.9,1.1c-0.1,2.3-0.2,4.6-0.2,6.9c-2-1.5-3.9-3.3-6-4.4c-6.3-3.3-9.2-1.7-10.2,5.5c-0.2,1.8-0.3,3.5-0.8,5.3
				c-1.8,6.7-1.6,6.7-7.7,3.4C298.4,189.5,296.3,186.8,294.2,184.1z"/>
			<path fill="#FF0000" d="M322,260.2c-2.4,2-5.5,2.9-7.7,5.3c-0.9,1-2.8,3.9-5.4,0.9c-0.8-1-3.2-0.6-4.7,0.1
				c-3.5,1.6-6.9,2.6-11,1.7c-3.2-0.7-4.5,0.5-3.5,4.5c1.2,5.1,0.7,10.6,3.7,15.3c1.1,1.7-0.5,3.2-1.8,4.2c-1.7,1.2-3.3,0.5-4.5-1
				c0.4-0.2,0.9-0.8,1.2-0.7c2.1,0.4,2.7-0.6,2.8-2.6c0.2-3-2.6-1.4-3.8-2.4c-1.3-1.1-0.8,1.6-1.4,2.5c-1.3-2.7-2.5-5.5-3.9-8.1
				c-2.3-4.8-3.5-5.2-6.9-1.3c-3.6,4.3-7.6,5.2-12.6,4.1c2.4-5,8.9-4.7,11.6-9.2c0.5-0.8,1.4-0.4,2.1,0.2c3,2.3,3.9-0.3,4.6-2.3
				c1.4-4.6-2.7-9.8-7.3-9.1c-1.2,0.2-2.3-0.4-2.1-0.6c1.5-1.8-1.8-2.1-0.9-3.6c1.1-1.6,2,0.4,3,0c2.8-1.3,5.9,3,8.6-0.6
				c2.1-2.9,6.7-2.4,8.3-6.2c0.4-0.9,1.7-1.5,2.5-2.3c0,1.4,0.1,2.8,0.1,4.3c0,1.4-0.1,1.4,1.9,0.7c0.2,3.5-2.8,4.7-5.1,4.8
				c-3.3,0.2-2.8,1.9-2.8,3.9c0,0.9-0.4,2.1,0.8,2.6c1.2,0.5,1.9-0.6,2.4-1.2c2.3-3,4.5-4.7,7.8-1c0.8,0.9,2.3,0.9,4,0.7
				c5.8-0.9,11-3.8,16.8-4.6C319.5,260.5,321,259.8,322,260.2z"/>
			<path fill="#FF0000" d="M523.1,248c1.2,2.2,3.5,2.6,5.5,2.9c2.6,0.3,4.6,1.5,6.6,3.1c1.1-1.6,0.8-3.8,2.5-5
				c0.1,0.5,0.3,0.9,0.4,1.4c2.7-1.4,2.6-4.4,3.4-6.7c0.6-1.9-0.8-2.6-2.5-2.6c4.1-3.8,8.2-7.5,10-13c1.7,1,3.3,1.9,5,0
				c1.8-0.3,2.6,1.2,3.6,2.3c1.2,1.4,2.6,2.2,4.3,1.6c1.9-0.7,0.5-2.7,1.1-3.9c0.6,0.1,1.2,1,1.9,0l-0.1-0.1
				c-0.3,2.3,0.7,4.8-2.4,6.6c-1.6,0.9,1,1.2,1.7,1.7c0.1,1.4-0.9,2.1-1.8,1.6c-3.1-1.9-4.3-1.2-4,2.4c0.1,0.7-0.5,1.1-1.3,1.2
				c-0.6,0-0.8-0.3-0.8-0.9c0.2-2.7-2.8-3.4-3.5-2.8c-1.7,1.5-4,2.4-4.9,4.8c-1.2,3.1-0.8,6.8-3.2,9.5c-0.3,0.3-0.2,1.3-0.1,1.4
				c6.1,1.7-2,4.7,0.6,6.7c-0.3,0.4-0.7,1.1-1,1c-7-1.3-6,5.7-8.7,8.7c-0.4,0.5-0.7,1-1.4,1.1c-0.4-0.8,0.3-1.9-0.8-2.6
				c-0.6,1.8-2.6,2.8-2.4,5.1c0.3,4.8-2,2.7-3.9,1.2c-2.1-3.4,2-4.5,2.8-6.9c0.6-1.9,2.2-3.4,2.3-5.7c0-2.6,0.2-4.6-3.7-4.4
				c-3.4,0.1-5.5-3.1-8.2-4.8c1.4-0.2,3.9,0.6,2-2.4C521.6,249.6,522.8,248.9,523.1,248z"/>
			<path fill="#FF0000" d="M618.9,171.2c-3.2,3.5-1.5,7.9-2.2,11.8c-2-2.1,0.1-5.2-1.6-8c-1.7,2.8-2.8,5.1-2.4,8
				c-7-2.4-10-0.9-12.7,6.4c-0.2,0.6-0.8,1-1.3,1.5c-1.7-1.5,1.7-3.3-0.1-4.1c-2-0.9-3.7,0.5-5.1,2c-2.7,2.9-7,4.1-8.7,8.1l0.1-0.1
				c-1.3,0-2.5,0.1-3.8,0.1c0-1.6-2.4-3.2,0.6-4.7c0.8-0.4-0.9-1.2-1.8-1.4c3.5-1,5.9-3,8-6.2c1.7-2.6,5.5-3.3,8.6-4.1
				c4.6-1.1,5.3-5.9,8.3-8.5c0.7-0.6-5.2-7.6-6.9-8c-5.7-1.1-11.3-2.2-17-3.2c2.1-2.1,4.9-0.1,7.3-1.4c2.9-1.5-0.6-1.5-0.3-2.3
				c4.3-0.8,8.5,0.5,12.5,1.2c1.9,0.4,4.2,3.1,6.3,4.7c3.2,2.5,6.1,4,10,2.9C618.6,167.3,615.3,170.7,618.9,171.2z"/>
			<path fill="#FF0000" d="M543.8,179.1c-4-7.2-8-14.4-12-21.6c-0.8-1.4-2.1-2.6-1.6-4.4c3,0.5,1.9-1.1,1.1-2.3
				c-1.9-2.6-1.2-4.7,0.9-6.7c2.2,1.9,4.5,3.5,5.2,6.7c0.6,2.6,2.6,3.2,4.8,1.5c0.9-0.7,1.9-1.5,2.5-2.4c3.7-6.7,9.8-5.2,15.4-4.1
				c1.9,0.4,4.3-0.9,5.7,1.3c-0.7,0.3-2.8-1-1.8,1.5c0.8,2.1,1.3,4.2,2,6.3c-4.1,0.7-6.4-3.1-10-4.2c-4-1.1-6.5,0.7-8.6,2.7
				c-2.9,2.9-5.2,7.3-3.1,11.1c2.3,4,2.9,9,6,12c3.8,3.5,3.8,8,5.3,12.1c0.7,1.8-0.4,3-2.4,2.4c-1.4-0.4-3-0.3-3.8-1.8
				c0.9-1.1,3.3-2.7,2.3-3.2c-3-1.7-3.4-4.5-4.6-7C546.4,177.6,544.8,177.6,543.8,179.1z"/>
			<path fill="#FF0000" d="M316,234.9c0.1-0.5,0-1.3,0.2-1.4c3.3-1.8,5.1-4.2,2.8-7.8c-2.2-3.5-4.5-7-9.7-5.2
				c-0.9,0.3-2.2,1.8-3.1,0.4c-2.1-3.1-8,1.2-8.7-4.7c-0.1-1.1-0.8-2.1,0-3.2c0.9-1.1,1.8-1.3,2.9-0.1c0.4,0.5,0.8,0.8,1.6,0.6
				c8.4-1.5,16.9,0.5,25.3-1.4c3.7-0.9,7.4,1.1,11.4,0.6c1.6-0.2,3.5-0.1,4.9-0.9c2.1-1.3,3.7-0.6,5.5,0.3c1,0.5,2.3,1.1,1.6,2.5
				c-0.5,1-1.2,1.4-2.8,1c-4.1-1-8.6,1.6-10,5c0-0.6,0.3-1.4,0.1-1.8c-1.3-1.6-9-2.2-10.5-0.8c-1.1,1-2.8,2.3-1.6,3.7
				c3.7,4.7-0.1,8.8-1.2,12.8c-0.6,2.1-1,3.4,0.1,5.5c-1.9-1.2-3.7-2.2-5.8-2.1C318.5,236.4,318.2,234.8,316,234.9z"/>
			<path fill="#FF0000" d="M583.1,247c3.2,3.8,6.5,7.5,9.6,11.5c0.6,0.8,1.8,2,1.1,3.5c-0.6-0.1-1.3-1.1-1.6-0.3
				c-1.1,2.7,2.9,8.5,6.3,9.4c1.8,1.8,3.6,3.6,5.4,5.4c0.2,2.9-0.8,6.5,4.1,6.3c1.1,0.4,1.1,1.2,0.8,2.2c-1.3,0.6-1.9,1.6-2,3
				c-7.6-1.4-9.2-9.9-15.4-13.3c-1.5-0.8-0.2-3.8-1.7-5.8c-1.3-1.7-3-2.7-4.5-4.2c-1.5-1.4-2.8-0.4-3,0.8c-0.4,2.9-2.4,4.9-3.4,7.5
				c-0.3,0-0.6,0.1-0.8,0.2c-2.8-0.7-4.9-1.6-8.3,0.6c-2.6,1.7-7.9,2.7-12.1,0c-2.3-1.5-5.7-0.9-7.6-3.6c2.3,0,1.9-1.8,2.2-3.2
				c3.4,1.1,6.7,3.1,10.6,1.1c1-0.5,2.4-0.3,3.7,0.6c1.6,1.1,3,1.3,3.9-1.3c0.4-1.2,1.4-2.8,4.2-1.9c3.3,1.1,7.2-4.3,7.5-9.4
				c0.5-0.4,3,1.6,1.5-1C582,252.4,582.6,249.8,583.1,247z"/>
			<path fill="#FF0000" d="M208.2,172.1c2,0.2,4.7-2.4,5.7,2.1c0.4,1.8,2.9,1.1,4-0.4c2.5-3.3,6.9-3.4,9.9-6
				c1.8-1.6,2.9,0.7,4.6,0.5c0.7-0.1,1.9,0.9,1.6,2.1c-0.2,1.1-1.3,0.7-2.1,0.7c-3.7,0.4-6.6,1.9-8,5.6c-1.1,2.9,0.1,4.9,2.9,5.3
				c2.5,0.4,3.2,2,4.5,3.7c2.7,3.5,6.4,6.9,10.5,7.9c3.3,0.9,4.7,3.4,7.4,4.5c0.3,0.1,0.5,0.3,0.7,0.5c-2.6,3.3,3.8,5.9,0.3,9.2
				c-1.3-3.3-4.2-4.8-7.1-6.8c-4.5-3.2-9.8-5.1-14-8.9c-2.8-2.4-7.2-2.8-9.8-6.3c-0.9-1.1-2.2,2.1-3.9,2.2c-0.4-0.5-0.2-2.2-0.9-1.4
				c-1.6,1.6-2.8,0.4-4.2,0.3c5.1-5.9,4.4-8.2-4-12C206.1,173.5,210,174.9,208.2,172.1z"/>
			<path fill="#FF0000" d="M504.1,209.3c0.3,1.7,1.9,3.7-2.2,2.6c-2.3-0.6-5.7,2.3-5.8-2.8c0-0.1-0.9-0.2-1.3-0.2
				c-5.2,0.4-7.3-0.2-13.4-2.7c-2.4-1-5.2,0.2-7.7-1.2c-1.3-0.7-4.2,0.8-3.6-2.4c0.6-3.1,4-2.5,5.4-2.3c8.5,1.5,17,2,25.6,2.8
				C501,208.9,501,208.9,504.1,209.3z"/>
			<path fill="#FF0000" d="M264.2,226c-1.1-1.6-2.6-3-3-5c2.5,0.5,3-1,3-3c0.1,0.1,0.4,0.1,0.4,0.2c0.8,2,2.1,3.8,4.2,2.4
				c2-1.3-0.3-3.1-0.6-4.6c1-0.3,3.6,0.3,2.4-1.4c-1.2-1.6,1.9-5.4-2.6-4.8c2-1.9,4.1-3.8,7.1-1.5c3.3,2.5,2.4,6.1,2.2,9.3
				c-0.1,1.6-2.3,0.6-3.5,0.9c-1,0.2-2.5-0.5-3,1c-0.4,1.3,0.7,1.5,1.4,2.1c1.8,1.6,2.1,3.3-0.1,4.9c-2,1.5-2.2,3.2-0.1,5.2
				c-1.9-1.5-2.8-4.4-5.8-2.8C265.2,228.3,267.7,225.2,264.2,226z"/>
			<path fill="#FF0000" d="M210,186.9c1.4,0.2,2.7,1.3,4.2-0.3c0.8-0.8,0.5,1,0.9,1.4c-0.1,0.3-0.2,0.7-0.3,1c-4.4,2.9-4.4,9.2,0,12
				c1.6,6.4,4.2,12.3,9.4,16.8c1.4,1.2,1.1,2.7-0.3,3.8c-1.8,1.4-1.5-0.9-2.2-1.3c-6.2-3.1-7.6-10.1-11.1-15.1
				C207.3,200.3,206.1,193.1,210,186.9z"/>
			<path fill="#FF0000" d="M501,188.4c1.2-5.6,2.7-11.9,7.4-18.2c3.2-4.4,8.5-5.8,10.9-10.6c0.7-1.4,3.1-0.4,4.7-0.5
				c1.2-0.1,1.2,1,1,1.8c-0.3,1.6-1.6,3.1-2.9,3c-5.5-0.3-7.9,4-10.5,7.3c-2.1,2.7-4.2,5.8-5.7,8.8c-1.4,2.8-0.9,6.7-1.2,10.1
				c0,0.3,0.3,0.6,0.3,0.9c0.2,1.8-0.1,4-1.7,4.5c-0.9,0.3-2.6-1.7-2.3-3.7C501.1,191.1,501,190.4,501,188.4z"/>
			<path fill="#FF0000" d="M510.8,205c1.7-4.3,1.7-9.5,6.6-12.1c1.3-0.7,2.2-1.1,3.8-0.4c-4,5.7-7.8,11.2-7.4,18.6
				c0.1,2.6,0.7,4.5,2.7,5.9c2.9,2.1,3.1,6.4,6.8,8c1.3,0.5,1,2.5,0.1,3.9c-6.8-3.1-10.7-8.6-13.5-15.1
				C510.2,210.9,513.8,208.3,510.8,205z"/>
			<path fill="#FF0000" d="M264.2,226c3.5-0.9,1,2.2,2,3c-2,6.8-3.2,13.8-6.7,20.2c-2.4,4.6-3.8,9.7-5.8,14.8
				c-2.2-1.5-1.6-3.1-1.2-5.1c0.9-5.1,3.7-9.6,3.7-14.9c3.6-1.1,1.3-4,1.9-6c0,0-0.1,0.1-0.1,0.1c5.1,0.4,3.9-3.2,3.8-6.1
				C262.6,230,263.4,228,264.2,226z"/>
			<path fill="#FF0000" d="M605.8,230c3.2,7-0.8,12.9-2.3,19.3c-1,4.6-5.4,4.4-7.1,7.5c-0.2,0.3-1.8,0.2-2.2-0.2
				c-0.7-0.7,0.3-1.3,0.7-2c2.1-3.7,4-7.6,6.3-11.1c2-3,1.8-6.1,1.6-9.4C604.3,233.1,600.4,228,605.8,230z"/>
			<path fill="#FF0000" d="M249.6,168.5c-1.9-1.3-3-2.2-3.7-4.1c-2.3-6.6-4-13.5-8.2-19.2c-0.7-1-2.6-2.5-0.2-3.8
				c2-1.1,3.7,0.6,4,1.8c1.3,5.9,5.7,10.3,7.6,15.9C249.9,161.9,250.4,164.7,249.6,168.5z"/>
			<path fill="#FF0000" d="M228.6,262.2c-4.5,5.4-10.8,8.6-15.8,13.4c-0.9,0.9-2.2,0.5-4.4,0.1c7.3-7.1,14.6-13.3,20.7-20.6
				C233.4,257.8,229.3,259.8,228.6,262.2z"/>
			<path fill="#FF0000" d="M329.9,234.5c1.4-3.5,2.6-3.8,6.6-2.3c4,1.5,8.5,2.8,12.9,3.8c0.9,0.2,2,0.2,2.8,0.7
				c1.1,0.6,3.5-0.2,2.8,2.3c-0.6,2.1-1.9,1.3-3.7,1.2C343.9,240,337.5,236,329.9,234.5z"/>
			<path fill="#FF0000" d="M271.7,175.6c-2,1.9-2,4.2-5.6,1.9c-4.3-2.7-9,0.6-13.2,2.6c-1.3,0.6-2.9,2.6-4,1c-0.9-1.4,0-3.7,1.7-4.9
				c3.8-2.8,7.2-4.8,12.6-3C265.7,173.9,268.2,175.3,271.7,175.6z"/>
			<path fill="#FF0000" d="M319.9,183.1c0.1-2.3,0.1-4.6,0.2-6.9c0-0.4-0.6-1.8,0.9-1.1c0.4,0.2,0.6,0.7,0.9,1
				c0.7,6.6,3.8,12.3,6.7,18.2c1.7,3.5-0.9,7-0.9,10.5c0,0.3-1,1.1-1.4,1c-0.5-0.2-1-0.9-1.2-1.4c-0.6-2-0.4-4.3-0.5-6.3
				C324.5,192.4,322.2,187.8,319.9,183.1z"/>
			<path fill="#FF0000" d="M496.1,247c-2.4-6.9-1.6-13.5,1.8-20c0.7-1.3,1.5-1.1,2.4-0.8c0.7,0.2,1.8,0.8,1.3,1.6
				c-5,7.4-0.8,14.3,1.2,21.3c-0.9-0.1-2.5,0.4-2.6-0.7C499.9,244.2,497.5,247.4,496.1,247z"/>
			<path fill="#FF0000" d="M508,256.2c4.2,0.1,6.3,4,9.8,5.6c1.9,0.9-0.2,4.5-0.7,7c-0.8,3.7-2.9,4.4-6,4.2c0.8-1.5,0.4-2.5-1.2-3.2
				c2.1-2.7,0.5-5-0.8-7.3c0.3-0.2,0.6-0.4,0.9-0.6c0.5-0.1,1.5,0.4,1.4-0.6c-0.1-0.7-0.7-1.3-1.5-0.4l0.1,0.1
				C511.6,258.5,507.5,258.3,508,256.2z"/>
			<path fill="#FF0000" d="M605.8,230c-5.4-2-1.5,3.1-3,4c-1.3-3.7-4.5-4.8-7.8-5.8c1.4-0.2,2.8-0.3,4.2-0.5c0.5-0.1,1-0.7,1.5-1
				c-0.4-0.4-1.1-1.3-1.2-1.2c-2.6,1.6-4-1.8-6.3-1.4c0.2-0.4,0.3-1,0.6-1.2c4.6-3.6,6.7-7.6,2.4-12.8c3-0.5,4.3,0.5,3.9,3.7
				c-0.2,1.9,0,3.8,0,6.9c1.1-2.1,1.7-2.8,2.8-2.6c-1,4.1-3.6,8.7,3.1,10.6C605.9,228.7,605.8,229.6,605.8,230z"/>
			<path fill="#FF0000" d="M212.2,248c-4-5.4-2.3-11.2-1.1-16.9c0.4-2.2,2.2-2.5,3.9-2c2.1,0.6,1.4,2.8,0.6,3.6
				c-3.2,3.7-1.4,7,0.6,10.3C216.3,245.9,215.6,248,212.2,248z"/>
			<path fill="#FF0000" d="M532.1,144.1c-2.1,2-2.8,4.1-0.9,6.7c0.8,1.1,1.9,2.8-1.1,2.3c-4.4-6-4.1-13.9-8.1-20.1
				c-0.5-0.8-0.1-1.7,1.3-2c2.3-0.4,3.2,1.3,3.4,2.6C527.3,137.8,530.4,140.6,532.1,144.1z"/>
			<path fill="#FF0000" d="M564.1,216.4c1.1,1.4-0.5,2.4-0.6,3.7c0,1,0,1.9,0.9,2.7c1.4,1.1,1.8-0.3,2.2-0.9
				c1.5-1.9,3.8,1.5,5.1-0.8c0.2,0.8-0.4,1.6-0.4,2.3c-0.3,3.4,1.5,1,2.4,0.7c0.3,2.3-1.5,4.8,0.7,7.2c-1.2-2.7-2.7-4.1-5.6-4.3
				c-2.7-0.2-1.3,2.6-2.8,3.1c-0.3-0.8,0-1.8-1.2-2.1c0,0,0.1,0.1,0.1,0.1c0.3-2.1-1.2-2-2.6-2.1c0.5-2.1-0.5-3.6-2.1-4.8
				C561.5,219.6,562.8,218,564.1,216.4z"/>
			<path fill="#FF0000" d="M638.8,207c-5.9,1.4-11.5,3.9-17.7,4c-3.4,0.1-3.1-3.2-5-4.8c6.2-0.1,11.7-3.3,17.7-2.2
				c-0.5,1.7-1.9,0.8-2.9,1c-1,0.1-2.1,0.2-1.9,1.6c0.2,2,1.3,0.9,2.4,0.7C633.8,207,636.3,207.1,638.8,207z"/>
			<path fill="#FF0000" d="M318.6,156.2c-0.9-0.3-2.9,1.5-2.6-1.4c0.2-1.9-0.1-3.8-0.1-5.7c2.2-5.1,5.8-9.6,6.5-15.4
				c0.2-1.5,2.2-3.5,4.1-2.3c1.3,0.9,0.5,2.7-0.4,4.3c-2.6,4.6-4.6,9.6-7.4,14C317,152.2,319.7,154.1,318.6,156.2z"/>
			<path fill="#FF0000" d="M322,260.2c-1-0.4-2.5,0.3-3.2-1.2c5-3.4,7.4-8.5,9-14c0.5-1.6,0.9-2.4,2.4-1.9c1.4,0.5,2,1.7,1.7,3.2
				C330.4,252.2,327.9,257.4,322,260.2z"/>
			<path fill="#FF0000" d="M560.7,202.6c-1.1,1-1.5,3.2-4.4,1.6c-3.6-2-6.5-1.6-6.5,3.7c0,1-0.5,2.6-1.9,3.1c-1,0.4-2-0.1-2.5-1.1
				c-0.7-1.4-0.6-2.7,0.3-4.1c2.4-4,5.7-6.2,10.4-6.8C558.9,198.7,559.8,200.3,560.7,202.6z"/>
			<path fill="#FF0000" d="M618.9,171.2c-3.6-0.5-0.4-3.9-2.2-5.2c4.6-2.2,9.7-3.5,12.8-8.1c0.6-0.9,1.5-1.3,2.5-0.3
				c0.8,0.8,1.2,1.4,0.4,2.5c-1.8,2.6-3.1,5.8-7.1,5.9C621.9,166.2,621.7,170.2,618.9,171.2z"/>
			<path fill="#FF0000" d="M602.8,218c-1.2-0.2-1.7,0.5-2.8,2.6c0-3.1-0.2-5,0-6.9c0.4-3.2-0.9-4.3-3.9-3.7c-0.5-1-1.1-2-1.6-3
				c-0.7-1.3-1.2-3.4,0.2-3.7c1.6-0.4,4-1.6,5.5,1.2C602.6,208.8,603.4,213.2,602.8,218z"/>
			<path fill="#FF0000" d="M612.8,183.1c-0.4-2.8,0.7-5.2,2.4-8c1.7,2.8-0.4,5.8,1.6,8c0.2,4.1,1.1,8.3-2.7,11.3
				c-0.6,0.5-0.9,1.9-2.2,1c-1.1-0.8-1.4-2.2-0.6-3C614.2,189.6,612.6,186.2,612.8,183.1z"/>
			<path fill="#FF0000" d="M253.9,237c-1.9,3.6-4.1,6.7-8.5,7.2c-0.8-4.4-3.6-0.1-5.2-1.2c1.8-3.4,4.9-5.5,7.7-8
				c0.6,2.4,0.9,2.7,1.4,2.1C250.8,235.1,252.4,237.2,253.9,237z"/>
			<path fill="#FF0000" d="M523.1,248c-0.3,0.9-1.6,1.5-1,2.6c1.9,3.1-0.6,2.2-2,2.4c-1.9-2.3-3.6-4.6-3.2-7.9
				c0.2-1.6-0.2-3.5,1.9-4.1c2.5-0.7,3,1.5,3.7,3.1C523,245.3,523,246.7,523.1,248z"/>
			<path fill="#FF0000" d="M294.9,254c-2,0.7-1.9,0.7-1.9-0.7c0-1.4-0.1-2.8-0.1-4.3c0.5-3,0.9-6,1.7-8.9c0.4-1.4,0.2-3.9,3.1-3.1
				c2.5,0.7,1,2.6,1.2,4c-4.9,1.8-2.4,5.1-1.7,8C297.4,251.1,293.9,251.6,294.9,254z"/>
			<path fill="#FF0000" d="M228.6,262.2c0.7-2.3,4.8-4.4,0.6-7.2c1.9-1.3,3.8-2.7,5.7-4c1.1,3.3,3.5-0.2,5,1c-1,2.9-4.3,2.3-6.2,4
				c-2.1,1.8-2.3,4-1.9,6.2c0.4,1.9,1.9,1.2,3.2,0.7l0.1,0.1c-0.6,2.4-3.1,2.7-4.9,4.7C231.2,265,232.8,262.6,228.6,262.2z"/>
			<path fill="#FF0000" d="M606.8,288c0.1-1.4,0.7-2.4,2-3c2,2.8,4.3,5.3,5.5,8.6c0.7,1.9,0.9,3.4-0.8,4.2c-1.5,0.7-2-0.9-2.6-2.1
				C609.7,293,608.2,290.6,606.8,288z"/>
			<path fill="#FF0000" d="M588,157.2c-0.3,0.8,3.2,0.7,0.3,2.3c-2.4,1.3-5.2-0.7-7.3,1.4c-2,1.9-4.1,3-6.9,1.7
				C576.3,158.7,584.2,155.7,588,157.2z"/>
			<path fill="#FF0000" d="M534.9,188.1c2.7,0,4.8,1.4,5.9,3.6c0.9,1.7,2.7,3.9,1.2,5.5c-2,2.3-2.7-1.2-4.1-1.7
				c-2-0.7-4.6-0.3-4.8-3.5c1.1-0.6,1.9,1.5,3,0.2c1.3-1.5-0.6-1.8-1-2.6C534.8,189.1,534.1,188.7,534.9,188.1z"/>
			<path fill="#FF0000" d="M527,274.9c1.9,1.4,4.2,3.6,3.9-1.2c-0.1-2.4,1.8-3.3,2.4-5.1c1.1,0.6,0.4,1.8,0.8,2.6
				c-0.9,2.3-2,4.6-2.6,7c-0.6,2.2-1.6,4.3-3.9,3.8c-2.5-0.5-1.6-3.1-1.7-5C525.9,276,526,275.2,527,274.9z"/>
			<path fill="#FF0000" d="M239.9,252c-1.5-1.2-3.9,2.3-5-1c1.8-2.7,3.6-5.3,5.3-8c1.6,1.1,4.4-3.2,5.2,1.2c0,0-0.2-0.1-0.2-0.1
				c-2.1-0.2-3.3,0.6-3,2.9C241.4,248.7,240.6,250.4,239.9,252z"/>
			<path fill="#FF0000" d="M573.8,224c-1,0.2-2.7,2.7-2.4-0.7c0.1-0.7,0.7-1.4,0.4-2.3c1.5-2.5,2.3-5.2,2.2-8.2
				c0-1.1-0.7-2.9,1.6-2.7c2.2,0.2,1.4,2,1.3,3C576.3,216.9,576.3,220.8,573.8,224z"/>
			<path fill="#FF0000" d="M496.1,247c1.3,0.4,3.8-2.8,4.1,1.3c0.1,1,1.7,0.5,2.6,0.7c0.6,1.6,2.7,2.1,3,4c-1.8-0.3-3,0.2-3.2,2.2
				C499.2,253.5,496.6,251.1,496.1,247z"/>
			<path fill="#FF0000" d="M578,273.2c0.3-0.1,0.5-0.1,0.8-0.2c1.4,4.2,3.5,8.2,3.1,13C577.1,283.4,575.8,278.7,578,273.2z"/>
			<path fill="#FF0000" d="M574,244.2c-1.6-0.5-0.7-2-1.2-2.9c-1.3-2.1-0.2-4.1,1.3-5.1c2-1.3,2.9,0.9,3.9,2.3
				c0.7,0.9,1.5,1.7,2.2,2.6C578.1,242.1,576,243.1,574,244.2z"/>
			<path fill="#FF0000" d="M288,209.9c0.7-2.8-1.9-6.1,1-8.7c-0.9,3.9,3.3,4.9,4.5,8.4c0.3-1.8,0.5-2.7,0.6-3.6c2,3,0.3,5.4-1,8
				C292.5,211.4,290.2,210.7,288,209.9z"/>
			<path fill="#FF0000" d="M583.1,247c-0.5,2.7-1.1,5.4,0.4,8.2c1.4,2.7-1,0.7-1.5,1c-1.7-3.1-3.4-6.1-5.2-9.2
				c0.2-0.9,0.3-1.7,0.5-2.4c1.6,0.7,1,3.1,3,3.4c1.1-0.8,0.1-3.3,2.5-2.9C582.9,245.7,583,246.4,583.1,247z"/>
			<path fill="#FF0000" d="M322.9,173.1c-2.2-0.6-1.3-2.6-1.7-3.9c0,0-0.1,0-0.1,0c1.3,0.9,1.5-0.2,1.8-1.1c0.6-1.7,1-3.4,1.7-5
				c0.3-0.7,0.2-2,1.7-2.1c1.3-0.1,1.5,0.7,2,1.6c0.8,1.2,0.9,2-0.3,2.9C325.4,167.4,324.5,170.5,322.9,173.1z"/>
			<path fill="#FF0000" d="M558,218.9c-3.8-1.3-3.9-4.8-2.6-7.2c1.5-2.9,4.8-2.1,7.4-0.6c-2-0.2-3.9,0-5.4,1.6
				c1.5,0.7,4.2-0.3,4.4,2.3c0.2,2.9-2.6,0.6-3.4,1.6C557.9,217,558.1,218.1,558,218.9z"/>
			<path fill="#FF0000" d="M288,209.9c2.2,0.8,4.5,1.5,5.2,4.2c-0.8,1-1.6,2-2.3,3c-1.4-1.5-4.2,3.4-5-1
				C286.6,214,287.3,211.9,288,209.9z"/>
			<path fill="#FF0000" d="M243.2,275c-1.4-1.4-2.9-2.8-4.2-4.4c-0.9-1-1.8-2.4-0.4-3.4c1.2-0.9,2.8-0.1,3.3,1.2
				c1.1,3.1,3.7,3.3,6.2,3.7C247.5,275.1,245.3,274.9,243.2,275z"/>
			<path fill="#FF0000" d="M278.9,197c1,0.8,1.9,1.6,2.9,2.2c2.1,1.3,0.8,3,0.1,4.1c-1.2,1.6-2.6,0.6-3.6-0.6
				c-0.8-0.9-1.5-1.9-2.3-2.9c0.6-1.6-1.6-2.2-1.5-3.4C276.4,195.2,277.3,197.5,278.9,197z"/>
			<path fill="#FF0000" d="M543.8,179.1c1-1.4,2.6-1.5,3.2-0.2c1.3,2.5,1.7,5.3,4.6,7c0.9,0.5-1.4,2.1-2.3,3.2
				C546.9,186.1,545.2,182.7,543.8,179.1z"/>
			<path fill="#FF0000" d="M521,182.2c-2.1-1.3-3.5-3.3-1.8-5.4c1.9-2.3,3.6,0.4,5.2,1.2c1,0.5,1.7,1.4,2.6,2.2
				C525.2,181.7,523.5,183.2,521,182.2z"/>
			<path fill="#FF0000" d="M534.9,188.1c-0.8,0.6,0,1,0.2,1.6c0.4,0.9,2.4,1.1,1,2.6c-1.1,1.2-1.9-0.9-3-0.2
				c-1.1-1.5-2.1-3.1-4.2-3.2c1.2-2.3-2.5-4.5-0.2-6.8c1.4,1.4,2.8,2.8,4.2,4.2C533,187.5,533.1,188.8,534.9,188.1L534.9,188.1z"/>
			<path fill="#FF0000" d="M558,218.9c0.1-0.8-0.1-1.8,0.4-2.4c0.9-1,3.6,1.3,3.4-1.6c-0.2-2.5-2.9-1.5-4.4-2.3
				c1.5-1.6,3.4-1.8,5.4-1.6c0.3,1.8,1.6,3.4,1.3,5.3c-1.3,1.6-2.5,3.2-3.8,4.8C558.6,221.3,559.3,219,558,218.9z"/>
			<path fill="#FF0000" d="M506.8,200c2.1-3.8,0.4-8.5,3.3-12.5C511.6,192.7,508.1,196.1,506.8,200z"/>
			<path fill="#FF0000" d="M528.8,182.1c-2.3,2.3,1.4,4.5,0.2,6.8c-3.3-1.5-6.4-3.1-8-6.7c2.6,1,4.3-0.5,6-2
				C528.1,180.3,528.7,180.9,528.8,182.1z"/>
			<path fill="#FF0000" d="M264.2,218c0,2-0.5,3.5-3,3c-1.7-1.8-1.1-4-1.2-6c-0.1-1.4-0.3-3.5,1.4-3.5c1.4,0,2.7,1.6,2.6,3.6
				C264,216.1,264.1,217.1,264.2,218z"/>
			<path fill="#FF0000" d="M285.9,216c0.8,4.4,3.6-0.5,5,1c-2.1,5-6.4,2.5-9.8,2.9c-1.1,0.1-1-1-1-1.8c0-1-0.1-2,1.4-2.1
				C282.9,216.1,284.4,216,285.9,216z"/>
			<path fill="#FF0000" d="M580,190.9c0.9,0.2,2.6,1,1.8,1.4c-2.9,1.5-0.6,3.2-0.6,4.7c-1.1,1.2-1.8,3.8-3.9,2.5
				c-2.4-1.4-1.1-3.7-0.2-5.6C577.6,192.6,578.7,191.7,580,190.9z"/>
			<path fill="#FF0000" d="M294.2,184.1c2.1,2.7,4.2,5.4,0.9,8.7C291,190,290.7,187.1,294.2,184.1z"/>
			<path fill="#FF0000" d="M214.9,201c-4.4-2.8-4.4-9.1,0-12C214.9,193,214.9,197,214.9,201z"/>
			<path fill="#FF0000" d="M638.8,207c-2.5,0.1-4.9,0-7.4,0.3c-1.1,0.2-2.2,1.3-2.4-0.7c-0.2-1.4,0.8-1.5,1.9-1.6
				c1-0.1,2.4,0.7,2.9-1C637.2,202.1,639.2,202.6,638.8,207z"/>
			<path fill="#FF0000" d="M510,269.9c1.6,0.6,1.9,1.7,1.2,3.2c-2.1,2.2-0.2,7-5.1,7.6C505.9,276.5,507.6,273.1,510,269.9z"/>
			<path fill="#FF0000" d="M582.8,245c-2.4-0.4-1.4,2.1-2.5,2.9c-2.1-0.2-1.5-2.6-3-3.4c-0.1,0.7-0.3,1.6-0.5,2.4
				c-0.9-0.9-1.9-1.9-2.8-2.8c2.1-1.1,4.1-2.1,6.2-3.2C581,242.4,581.9,243.7,582.8,245z"/>
			<path fill="#FF0000" d="M502.6,255.2c0.2-1.9,1.4-2.5,3.2-2.2c0.7,1.1,1.4,2.1,2.2,3.2c-0.5,2.1,3.6,2.3,2.1,4.9
				c-0.6,0-1.3,0-1.9-0.1c-1.7-1-3.8-1.7-4.3-4c0.1-0.9,0.4-1.9-1-1.9L502.6,255.2z"/>
			<path fill="#FF0000" d="M212.2,248c3.3-0.1,4.1-2.2,4-5c1.8,2.2,0.9,6.2,4.8,6.8c-1.5,0.7-0.8,2.1-1.2,3.2
				C218.2,250,213.8,251.1,212.2,248z"/>
			<path fill="#FF0000" d="M243.2,275c2.1-0.2,4.3,0,4.8-2.8c2.3,0.7,4.8,1.3,3,4.7c-0.1,0.3-0.3,0.6-0.4,0.9
				C248.8,275,244.2,280.1,243.2,275z"/>
			<path fill="#FF0000" d="M510.8,205c3,3.3-0.6,5.9-0.8,8.8C507,210.9,507.4,206.8,510.8,205z"/>
			<path fill="#FF0000" d="M296,292.7c0.1,4.5-2,5.7-5.7,4.7C291.4,294.8,295.1,295.4,296,292.7z"/>
			<path fill="#FF0000" d="M278.9,197c-1.5,0.4-2.5-1.8-4.4-0.6c-0.1,1.2,2.1,1.8,1.5,3.4c-2.2-1-4.4-2-6.5-3
				C271.8,193.8,275.7,193.9,278.9,197z"/>
			<path fill="#FF0000" d="M552.5,155c-0.9,2.9-4,4.1-5,6.8C548.9,159.3,549.2,156.1,552.5,155z"/>
			<path fill="#FF0000" d="M285.9,288c0.6-0.9,0.1-3.6,1.4-2.5c1.2,1,4-0.6,3.8,2.4c-0.1,2-0.7,3-2.8,2.6c-0.4-0.1-0.8,0.5-1.2,0.7
				C285.4,290.6,286.4,289,285.9,288z"/>
			<path fill="#FF0000" d="M539.1,241c1.7,0.1,3.2,0.8,2.5,2.6c-0.8,2.4-0.7,5.3-3.4,6.7c-0.1-0.5-0.3-0.9-0.4-1.4
				C538.2,246.4,538.7,243.7,539.1,241z"/>
			<path fill="#FF0000" d="M316,234.9c2.2-0.1,2.5,1.5,2.9,3.1c0,0,0.1,0,0.1,0c-1.2-0.9-1.5,0.3-2,0.9c-1.3,0.9-2,3.8-4.3,1.4
				c-2.4-2.6,1.3-2,1.8-3.1C314.9,236.4,314.8,235.1,316,234.9z"/>
			<path fill="#FF0000" d="M584.9,197c1.8,2.2,3-0.7,4.6-0.6c-1.1,3-4.1,3.8-6,5.7C582.4,200,587.2,199.5,584.9,197
				C584.9,197,584.9,197,584.9,197z"/>
			<path fill="#FF0000" d="M566,154.9c-0.7-2.1-1.2-4.2-2-6.3c-0.9-2.5,1.1-1.2,1.8-1.5c-0.3,2.2,1.1,3.5,2.5,4.9
				c1.1,1,1,2.6,0.4,3.6C567.7,157,566.9,155,566,154.9z"/>
			<path fill="#FF0000" d="M598.5,271.1c-3.4-0.9-7.4-6.7-6.3-9.4c0.3-0.7,1.1,0.2,1.6,0.3C595.3,265.1,596.9,268.1,598.5,271.1z"/>
			<path fill="#FF0000" d="M208.2,172.1c1.7,2.8-2.1,1.4-2.2,2.8c-3.1-0.9-2.2-4.4-4.1-6.2C204.4,169.4,206.9,169.6,208.2,172.1z"/>
			<path fill="#FF0000" d="M552.1,267c-0.2,1.4,0.1,3.2-2.2,3.2c-2.9-0.2-3.9-2.6-2.8-4.3C548.8,263.5,550.6,266.1,552.1,267z"/>
			<path fill="#FF0000" d="M605.1,257.1c-1,2.3-1.7,4.8-5.5,4.2C600.7,258.8,602.7,257.7,605.1,257.1L605.1,257.1z"/>
			<path fill="#FF0000" d="M279,158.9c0.9,0.2,2.3,0.1,2.7,0.7c1,1.5-1.7,1.2-1.5,2.4c-1.2,1-2.8,3-4,1.2
				C274.8,160.9,277.3,159.8,279,158.9z"/>
			<path fill="#FF0000" d="M294.2,206c-0.2,0.9-0.3,1.8-0.6,3.6c-1.2-3.6-5.4-4.5-4.5-8.4C292.7,200.8,292,204.9,294.2,206z"/>
			<path fill="#FF0000" d="M554.1,228c-1.7,1.9-3.3,1-5,0c0.4-1.6,0.8-3.3,1.2-5.2C553,223.8,552.6,226.6,554.1,228z"/>
			<path fill="#FF0000" d="M593.1,224c2.3-0.4,3.7,3,6.3,1.4c0.1-0.1,0.8,0.8,1.2,1.2c-0.5,0.4-0.9,0.9-1.5,1
				c-1.4,0.3-2.8,0.4-4.2,0.5C593.1,227.4,592.6,225.9,593.1,224z"/>
			<path fill="#FF0000" d="M268,209.9c4.5-0.6,1.4,3.2,2.6,4.8c1.2,1.6-1.4,1-2.4,1.4C268.2,214,265.3,212,268,209.9z"/>
			<path fill="#FF0000" d="M219.9,253c0.4-1-0.3-2.5,1.2-3.2c1.8,0.2,3.1,0.9,3,3c-0.1,1.3-0.9,2-2.2,2.2
				C220.2,255.3,220,254.2,219.9,253z"/>
			<path fill="#FF0000" d="M504.1,209.3c-3-0.4-3-0.4-3.1-6.1C505.7,203.4,503.3,207.2,504.1,209.3z"/>
			<path fill="#FF0000" d="M253.9,237c-1.5,0.2-3-2-4.6,0.1c-0.4,0.6-0.8,0.3-1.4-2.1C252.6,233.2,253.5,233.5,253.9,237z"/>
			<path fill="#FF0000" d="M297.2,249c-0.7-2.9-3.2-6.2,1.7-8C299.4,243.9,298.7,246.6,297.2,249z"/>
			<path fill="#FF0000" d="M621.3,174.7c0.5-3.6,2.4-3.3,4.6-3C624.4,172.7,623.1,173.5,621.3,174.7z"/>
			<path fill="#FF0000" d="M261.9,232c0.1,2.9,1.3,6.4-3.8,6.1C258.5,235.6,260.9,234.2,261.9,232z"/>
			<path fill="#FF0000" d="M564.9,228c1.2,0.2,0.9,1.3,1.2,2.1c-0.1,1.7-0.2,3.3-0.3,5c-0.8,0.1-1.8-0.2-1.7,1.2
				c0,0,0.1,0.1,0.1,0.1c-0.7-0.6-3.3-0.8-1.7-1.7C565.6,232.8,564.6,230.3,564.9,228z"/>
			<path fill="#FF0000" d="M608,282.9c-4.9,0.1-3.9-3.5-4.1-6.3C605.2,278.6,606.6,280.7,608,282.9z"/>
			<path fill="#FF0000" d="M242.2,247c-0.3-2.3,0.9-3.1,3-2.9C245.2,246.2,244,246.9,242.2,247z"/>
			<path fill="#FF0000" d="M258.1,238c-0.6,2,1.7,4.9-1.9,6C257.9,242.4,255.8,239.5,258.1,238z"/>
			<path fill="#FF0000" d="M562.4,225.9c1.4,0.1,2.9,0,2.6,2.1c-0.6,1-1.3,0-1.9,0C563.1,227.2,561.6,227,562.4,225.9z"/>
			<path fill="#FF0000" d="M605,257.1c0.4-0.6,0.8-1.3,1.2-1.9c0.1,0.1,0.2,0.2,0.3,0.3C606.5,256.5,605.7,256.7,605,257.1
				C605.1,257.1,605,257.1,605,257.1z"/>
			<path fill="#FF0000" d="M535,188.1c-1.9,0.6-1.9-0.6-2-1.9C534.2,186.3,534.7,187.1,535,188.1z"/>
			<path fill="#FF0000" d="M234.9,262.9c0.2-0.2,0.3-0.4,0.5-0.7C235.3,262.5,235.1,262.7,234.9,262.9
				C235,262.9,234.9,262.9,234.9,262.9z"/>
			<path fill="#FF0000" d="M508.1,261c0.6,0,1.3,0,1.9,0.1c0,0-0.1-0.1-0.1-0.1c0,0.3,0,0.6,0.1,0.9c-0.3,0.2-0.6,0.4-0.9,0.6
				C508.8,262.1,507.9,262,508.1,261z"/>
			<path fill="#FF0000" d="M564,236.2c-0.1-1.3,0.9-1.1,1.7-1.2C565.6,236,565.3,236.8,564,236.2z"/>
			<path fill="#FF0000" d="M571,231.1c-0.1,0.2-0.2,0.5-0.3,0.7C570.8,231.6,570.9,231.3,571,231.1L571,231.1z"/>
			<path fill="#FF0000" d="M322.9,168.1c-0.3,0.9-0.5,1.9-1.8,1.1C321.1,167.8,322.1,168.1,322.9,168.1z"/>
			<path fill="#FF0000" d="M317,238.9c0.5-0.6,0.8-1.8,2-0.9C318.8,239.3,317.9,239,317,238.9z"/>
			<path fill="#FF0000" d="M502.8,255.1c1.4,0.1,1.1,1,1,1.9C503.1,256.6,502.1,256.3,502.8,255.1z"/>
			<polygon fill="#FF0000" points="571,231.1 571.2,231 571,231.1 			"/>
			<path fill="#FF0000" d="M510.1,262c-0.1-0.3-0.1-0.6-0.1-0.9c0.8-0.9,1.4-0.3,1.5,0.4C511.5,262.3,510.6,261.8,510.1,262z"/>
		</g>
		<g>
			<rect x="99.6" y="199.7" fill="none" width="600" height="400.3"/>
			<path d="M198.4,296.7h51.1c24.7,0,45.7,12.9,45.7,38.7c0,26.6-19.6,40.1-47.7,40.1h-15.6V420h-33.5V296.7z M231.9,351.1h12.2
				c11.2,0,17-4.9,17-15.6c0-10-6.3-14.5-16.6-14.5h-12.7V351.1z"/>
			<path d="M335.9,372.6V420h-33.1V296.7h56.2c27.1,0,41.8,14.2,41.8,33.8c0,16.6-8.4,24.8-19,29.1c12.8,4.9,16.6,15.3,16.6,29.5
				v3.8c0,10.3,0.4,21.1,1.4,27.1h-32.6c-1.8-5.1-2.4-13-2.4-27.1v-3.5c0-12.9-4.2-16.7-17.3-16.7H335.9z M335.9,348.4h14.3
				c10.1,0,17.2-3.8,17.2-14.3c0-9.7-6.5-13.4-15.1-13.4h-16.4V348.4z"/>
			<path d="M495.4,369.3h-51.6v25.2h57.5l-3.8,25.5H411V296.7h86.5v25.7h-53.7v21.3h51.6V369.3z"/>
			<path d="M508.2,296.7h51.1c24.7,0,45.7,12.9,45.7,38.7c0,26.6-19.6,40.1-47.7,40.1h-15.6V420h-33.5V296.7z M541.7,351.1h12.2
				c11.2,0,17-4.9,17-15.6c0-10-6.3-14.5-16.6-14.5h-12.7V351.1z"/>
			<path d="M233.2,476.7h85.2v25.6h-51.9v24.3h48.6v25.5h-48.6V600h-33.3V476.7z"/>
			<path d="M359.4,476.7V600h-34V476.7H359.4z"/>
			<path d="M407.7,552.6V600h-33.1V476.7h56.2c27.1,0,41.8,14.2,41.8,33.8c0,16.6-8.4,24.8-19,29.1c12.8,4.9,16.6,15.3,16.6,29.5
				v3.8c0,10.3,0.4,21.1,1.4,27.1h-32.6c-1.8-5.1-2.4-13-2.4-27.1v-3.5c0-12.9-4.2-16.7-17.3-16.7H407.7z M407.7,528.4h14.3
				c10.1,0,17.2-3.8,17.2-14.3c0-9.7-6.5-13.4-15.1-13.4h-16.4V528.4z"/>
			<path d="M567.1,549.3h-51.6v25.2H573l-3.8,25.5h-86.5V476.7h86.5v25.7h-53.7v21.3h51.6V549.3z"/>
		</g>
	</g>
</g>
<g id="text">
</g>
<g id="guides" display="none">
</g>
<g id="scratch">
</g>
</svg>
