<?xml version="1.0" encoding="utf-8"?>
<!-- Generator: Adobe Illustrator 26.0.2, SVG Export Plug-In . SVG Version: 6.00 Build 0)  -->
<svg version="1.2" baseProfile="tiny" xmlns="http://www.w3.org/2000/svg" xmlns:xlink="http://www.w3.org/1999/xlink" x="0px"
	 y="0px" viewBox="0 0 1000 1000" overflow="visible" xml:space="preserve">
<g id="bg">
</g>
<g id="counters">
	<g id="mkr_x5F_1st_x5F_Level">
		
			<rect id="_x31__x2F_2_x22__800x800_00000080190089310859309770000007058996552318495634_" x="0.2" y="0.2" fill="#999999" width="1000.2" height="1000.2"/>
		<g>
			<path d="M134.1,835c0.3-26.2,0.8-52.4,0.2-78.5c-0.5-24.5,0-49-0.7-73.5c-0.5-19.1,1.2-38.2,0.9-57.3c-0.1-8.6-0.7-17.3-0.8-25.9
				c-0.1-24.3,0.4-48.7,0.5-73c0-14.8-1.1-29.5-0.4-44.2c0.9-18-0.1-35.9,0.2-53.9c0.1-7.2-0.9-14.5-0.3-21.7
				c1.4-18.4-0.2-36.8,0.3-55.2c0.5-20.8-0.4-41.6,0.2-62.4c0.5-15.9,0.1-31.9-0.1-47.8c-0.2-13.7,1.2-27.4-0.5-41.2
				c-1.5-12.4,0.2-25.2,0.4-37.8c0.2-7.7-0.6-15.4,0.1-23.2c0.3-3.1,0.8-4.7,4.2-5.1c5.3-0.7,10.5-1.7,16-1.1
				c9.2,0.9,18.3-1.4,27.4-2.3c6.1-0.6,12.1-0.3,18.1,0.5c18.7,2.3,37.4,2.9,56.2,2.1c1.7-0.1,2.7,0.1,3.1,1.8
				c0.2,0.8,0.8,2.4,1.3,1.7c5.8-8.8,14.4-2.7,21.4-3.4c15.9-1.5,32.1-1.3,48,0c13.2,1.1,26.5,0.9,39.4,0.2
				c17.8-1,35.5,0.3,53.3-0.1c15.2-0.3,30.5-0.1,45.8,0.4c12.7,0.4,25.5,0.6,38.3-0.6c6.8-0.6,13.7,0.9,20.7,0.5
				c14.8-0.8,29.8-0.7,44.6,0.1c18.5,1,37.1-0.7,55.6,0.5c14.7,0.9,29.6-0.2,44.4-0.4c4.4-0.1,8.8-0.4,13.1,0.2
				c12.9,1.5,25.8-1.5,38.5-0.4c16.5,1.4,32.9,0.2,49.3,1.1c8.8,0.5,17.7-1.2,26.4-0.6c18.3,1.3,36.5-0.7,54.8-0.5
				c2.6,0,4.4-0.7,6.5-1.8c6.3-3.4,10.1-1.4,9,5.5c-2.7,16.4-1.1,32.9-1.4,49.3c-0.6,32-0.9,64.1-0.4,96.1
				c0.4,25.3-0.9,50.6-0.3,75.9c0.3,14.7-0.3,29.4-0.5,44.1c-0.2,18.7-0.3,37.4-0.6,56c-0.1,8.2,0.3,16.3,0.1,24.5
				c-0.6,21.9,0.1,43.9-0.6,65.8c-0.9,24.8-0.4,49.6-0.8,74.5c-0.3,21.5-0.3,43-0.4,64.5c-0.2,23.2,0.2,46.4-0.6,69.6
				c-0.8,23.6,0.6,47.3-0.8,70.9c-0.7,12.5-0.1,25.2-0.1,37.8c0,10.4-0.1,9.9-10.6,9.3c-10.9-0.6-21.9-0.5-32.8,0
				c-13.6,0.6-27.1,0.3-40.8-0.3c-9.2-0.3-18.5,0.1-27.7,0.1c-21.9-0.1-43.7-1.4-65.5-0.4c-13.5,0.6-26.9-0.5-40.4,0.2
				c-12.9,0.7-26.3-0.6-39.5-0.4c-8.7,0.2-17.2-1.7-26.1,0.5c-4.8,1.2-11.1-0.2-16.6-0.5c-20.5-0.9-41,0.7-61.4,0.1
				c-12-0.4-24.4,0.9-36-0.2c-15.7-1.5-31.3,0.1-47-0.7c-8-0.4-16.7-3.4-25.2,1c-4.5,2.3-10.6-0.2-15.9-0.5
				c-10.7-0.5-21.2,1.3-31.9-0.3c-6.7-1-13.8-0.8-20.5,1.3c-0.4,0.1-1,0.4-1.3,0.3c-11.7-5.5-23.9-0.5-35.8-1.5
				c-13.4-1.1-27,0.3-40.4,0.4c-11.3,0.1-23-0.3-34.6-0.9c-18.2-1-36.5-1-54.7,0.4c-3.9,0.3-7.3,0.5-10-3.2
				c-1.6-2.3-5.1-2.3-7.1-1.8c-6.4,1.6-6.7-2.5-6.7-6.6C133.9,853.3,134.1,844.1,134.1,835z M146.3,730.2c-2.6,5-3.9,10-4.8,15.8
				c-1.2,8.2,1.5,16.1,0.3,24.2c-0.5,3.5-3.7,6.6-2.1,9.9c4.7,10-0.1,20.3,1.7,30.7c2.3,13.2-1,27.3-1.9,41
				c-0.4,6.5,3.8,15.2,8,15.9c16.4,3,19.9,0.2,20.2-16.5c0-0.9,0-1.9,0-2.8c-0.2-20.8-0.6-41.6-0.7-62.4
				c-0.1-14.3,0.2-28.5,0.2-42.8c0-9.5-0.7-10.4-10.2-11c-3.8-0.2-7.4-0.4-10.9-2c1.4-6,6.4-3.4,9.7-3.5c8.6-0.3,10.6-1.3,11-9.9
				c0.6-12.1,0.7-24.3,0.6-36.5c-0.2-23.7-1.2-47.3-0.7-71c0.4-20.6,1.2-41.1,0.7-61.7c-0.9-32.1,0-64.1-0.4-96.1
				c-0.3-25.3,0.7-50.6,0.6-75.9c-0.1-28.6-0.7-57.2-1.1-85.8c0-2.1-0.4-6.3,2.5-5c2.5,1.2,9.6-0.8,7.5,6.3
				c-2.3,7.9-2.7,15.7-2.6,24c0.3,20.8-1.7,41.6-0.9,62.4c0.4,10.1-1,20.2-0.2,30c1,13,1,26.1,0.6,38.8c-0.5,15.9,0.9,31.9-0.2,47.9
				c-1.2,19.3,0.2,38.7,0.3,58.1c0.1,15.4-0.8,30.8,0,46.1c0.7,14,1.2,28,0.2,41.9c-0.4,6,5.6,10.8,2.3,16.7
				c-5.8,10.4-2.4,21.7-2.3,32.2c0.1,13.4-1.3,26.8,0.8,40.3c1.9,11.9-3.4,23.8-1.9,36c0.6,4.7,1.4,9.6,0.9,14.6
				c-0.8,8.3-0.9,16.8-0.2,25.1c1.3,15.6-3.7,31-0.5,46.6c0.2,1.1-0.4,2.3-0.7,3.4c-1.9,8.1,2.1,12.8,10.6,12.4
				c4.9-0.2,9.8-0.8,14.6-0.6c11.3,0.5,12.8-0.4,12.9-11.7c0.4-23.9,0.9-47.8,0.3-71.7c-0.6-23.1-0.5-46.3-0.6-69.4
				c-0.1-16.4,1.5-32.8-0.1-49.2c-0.8-8-2.7-9.8-10.7-9.1c-6.3,0.6-12.6,1.1-18.2-4.4c6.4-0.5,12.4-0.5,18.3-1.6
				c2.1-0.4,4.5,0.9,6.8,1.5c4.2,1,4-2,4.2-4.6c1.7-20.4,0-40.9,0.7-61.3c0.4-13.3,0.5-26.6,0.3-39.8c-0.2-13.9-0.3-28-1.1-41.9
				c-0.8-13.1,2.7-26,1-39c-1.6-12.5,0-25.1-0.4-37.7c-0.5-14.9-0.9-29.9-0.3-44.9c0.7-16.7-1.3-33.4,0.5-50.1
				c0.2-1.8,0.3-3.2,2.2-3.8c2.1-0.7,3,0.9,3.9,2.2c1.9,2.8,7.2,5.5,0.2,8.8c-1.8,0.9-1,3.4-1,5.2c-0.2,10.1,0.6,20.2,0.2,30.1
				c-0.8,17.8,0,35.5-0.4,53.2c-0.6,26.6,0.5,53.2,0.5,79.8c0,19.8-0.5,39.6-0.6,59.4c-0.2,33,0.6,65.9,0,98.9
				c-0.5,25.7,0.3,51.5,0.6,77.2c0.1,7.1,2.5,9.4,9.4,8.5c2.5-0.3,4.6,0.3,6.9,0.6c5.3,0.8,7.9-1.1,8.1-6.7c0.3-8.6,0-17.1-0.3-25.7
				c-0.6-16.6,0.6-33.2,0.4-49.8c-0.2-16.8-0.8-33.7-0.2-50.4c0.7-24.3-0.1-48.5,0.4-72.7c0.3-16.3-0.8-32.6-1.1-48.9
				c-0.1-7.8,1.6-15.2,1.6-22.8c-0.1-19.8-1.2-39.6-0.7-59.4c0.4-17.3,0.2-34.6,0.3-51.9c0-1.7-1.3-4.4,1.3-4.7
				c2.9-0.4,2.9,2.5,2.9,4.6c0.2,20.4,0.5,40.7,0.5,61.1c0,17.3-0.3,34.6-0.3,51.9c0,4.2,1.1,7.4,6.6,6.3c4.4-0.9,8.8-0.1,13.2,0.2
				c11.4,0.7,12.5-0.1,12.8-11.8c0.5-16.1,0.4-32.3-0.1-48.4c-0.2-6.7,0.1-13.5-0.2-20.2c-0.1-1.6,0-3.9,2-4
				c2.5-0.1,2.6,2.6,2.6,4.2c-0.2,6,1.6,11.9,0.3,18.1c-0.9,3.9-1.9,8.4,1.3,12.1c1.3,1.6,0.4,3.1-0.7,4.4c-1.7,2.1-1.5,4.2-0.9,6.6
				c1.7,7.2,2.4,15.5,1.4,21.9c-1.7,10.5,2,20.7-0.8,31c-2.1,8,0.6,16.3,0.3,24.2c-0.4,8.7,0.4,17.5-0.7,26.2
				c-1.1,8.4,3.2,16.7,1,25.3c-0.8,3.1-1,6.5-0.7,9.7c1.2,12.2,0.5,24.3,0,36.5c-0.3,7.9-0.7,15.8-1,23.6
				c-0.5,13.3,1.9,26.7,0.7,39.8c-1.8,20.4,0.7,40.7-0.3,61c-0.2,4.2,0.4,8.4,0.8,12.6c0.4,4.2,1.6,7.3,7.2,5.7c3-0.8,6.5-0.4,9.6,0
				c12.2,1.5,12.9,0.9,12.9-11.7c0.1-17.4-1-34.9-0.8-52.2c0.2-16.3,1.8-32.8,1-49.1c-1.4-28.1,0.3-56.1-0.4-84.1
				c-0.6-25.9,0.5-51.8,0.4-77.8c0-7.2,1.2-14.2-0.2-21.6c-1.4-7.9-0.3-16.3-0.1-24.5c0.1-2.5,0.9-4.7,4.1-4.5
				c3.7,0.2,2.9,2.8,2.7,5.1c-0.2,2.3-0.3,4.7-0.1,7c1.3,14.7,1.2,29.6,0.4,44c-1.1,21.7,3.7,43.9-3.3,65.3
				c-0.1,0.3,0.6,1.1,1.2,1.4c2.6,1.6,1.8,4.1,1.8,6.4c0,15.6,0.4,31.2,0.4,46.9c0,23.8-1.4,47.7,0.8,71.5c0.6,6.7,2.4,9.4,9,9.7
				c1.7,0.1,4.1-1.5,4.6,1.3c0.5,2.9-2.4,3-4.3,3.6c-6.1,1.8-9.5,5.5-9.5,12.2c0,6.8-0.6,13.6-0.6,20.3c0.2,21.8,0.7,43.5,0.9,65.3
				c0.2,20.8,0.3,41.7,0.1,62.5c-0.1,6.6,2.9,7.8,8.7,8.7c6.4,0.9,12.4-0.9,18.6-0.8c4.2,0.1,5.6-2.3,5.6-6.3
				c0-19.2,0.1-38.3,0.4-57.5c0.4-29.2-2-58.5,1.2-87.7c0.5-4.6,0.5-9.4-0.8-14c-0.7-2.5-1.8-4.5-4.8-2c-3.4,2.9-7.2,0.3-10.9,0.7
				c-2,0.2-3-1.4-2.6-3.3c0.4-1.9,1.3-3.7,3.7-3.4c2.3,0.3,4.6,0.8,6.8,1.3c5,1.1,6.7-0.6,7.2-6c0.7-7.2,1-14.5,1.1-21.6
				c0.8-38.6,0.8-77.2,0.5-115.8c-0.1-23.2-0.5-46.4,0-69.6c0-2-0.1-4.1,2.1-5.4c2.2,2.5,2.6,5.1,2.6,8c-0.4,25.9-0.7,51.9-1,77.8
				c-0.1,12.1,1.3,13.4,13.1,13.5c7,0.1,9.8-2.7,9.8-9.4c-0.1-11.4,0.6-22.8-0.2-34.2c-0.5-7.2,0.2-14.5,0.5-21.7
				c0.1-1.8,0.6-4.2,3.1-3.8c2.1,0.3,1.6,2.6,1.6,4.1c0.1,6.6,0,13.1,0,19.7c0,24.6,0.1,49.2,0.2,73.8c0,7.5,0,15-0.1,22.4
				c-0.2,27.6-0.9,55.2-0.6,82.9c0.2,21.5,0.5,43-0.4,64.4c-0.1,3.5,0.8,5.4,4.7,5c6.7-0.7,13.4-2.3,20-1.7c9.2,0.7,9.9-4.8,10-11.2
				c0.1-10.1-0.4-20.1-0.3-30.2c0.3-20.1,1.2-40.2,1.4-60.3c0.2-29.3,0-58.5,0.1-87.8c0-12.4,0.3-24.8,0.5-37.3
				c0-1.6-0.2-3.7,1.7-4.2c2.1-0.7,2.4,1.7,3.3,2.9c4,4.9,3.1,10.8,2.6,16.2c-1.3,16.2,0,32.3-0.3,48.5c-0.4,34.9-1,69.8-0.6,104.7
				c0.3,25.2-0.3,50.5-0.5,75.8c-0.1,11,1.3,22.2-2.4,33.2c-2,5.9,2.6,9.6,9,9c3.7-0.3,7.8-1.4,11,0.5c7.3,4.3,8-0.6,8.1-5.6
				c0.5-16.6,0.8-33.3,0.9-49.9c0.1-21-0.3-42-0.1-63.1c0.2-18.3,0.5-36.6,1.6-54.8c0.3-5.2-3.4-9.4-1.9-14.3
				c3.2-10.2,2-20.7,2.9-31c0.9-10.6,0.1-21.3,0.1-31.9c0-1.9-0.1-4.1,2.5-4.3c1.9-0.1,2.8,1.5,3.1,3.2c0.2,1.1,0,2.3,0,3.5
				c-0.4,12.6-1.2,25.2-0.9,37.8c0.2,6.7-1.9,13.5,0.8,20.2c1.4,3.5,2.6,5,5.8,1.8c1.7-1.7,4-3,6.4-1.9c6.1,2.7,12.2,0,18.3,0.4
				c7.2,0.5,7.5-4.1,7.9-9.2c0.6-6.6-1.8-13.2,0.2-20.4c4.2,3.8,6.6,7.3,6.7,12.9c0.2,13.3-0.7,26.6-0.7,39.9
				c0,6.9-3.4,13.8-1.7,20.2c3,11.6-0.3,23-0.2,34.4c0.1,12.6-0.9,25.6-1,38.3c-0.1,17.3-0.7,34.7-0.1,52.1
				c0.5,14.7,0.7,29.5-0.9,44.2c-0.4,3.4,1.2,5.4,4.1,7.4c4.6,3.3,9.3,0.3,13.9,1.4c5.8,1.4,9.6-1.6,9.7-7.3
				c0.9-28.2,0.6-56.5,1.5-84.7c0.8-24.3-1.3-48.7,0.3-73.1c0.8-12.9,1.2-26.1,0.8-39.1c-0.1-1.9-1.1-4.9,2.1-5
				c2.5-0.1,3.3,2.7,3.3,4.7c0.2,6.1,1.3,12.1,0.4,18.2c-1.2,8.2,0.3,16.3,0.8,24.4c0.1,2.2,1.3,3.9,3.1,5.3
				c1.6,1.2,5.3,1.4,3.1,4.8c-1.6,2.4-3.7,4.4-7,2.2c-2.5-1.7-3.4,0.9-2.8,2c4.9,7.7,1.7,16.4,1.6,24c-0.3,19.8,2.5,39.6-0.9,59.3
				c-1.2,6.6,2.1,13.2,1.1,19.2c-2.2,13.6-1.2,26.8,0.5,40.1c0.4,2.8,1.8,3.8,4.3,4.7c5.7,2,11.5,0.3,17.2,0.9
				c3.4,0.3,10.2,0.1,9.2-7c-1.3-10.2,2.2-20,1.9-30.4c-0.5-17.6,0.3-35.4,1-53c0.7-17.6-0.7-35.1,0.1-52.7c0.3-6.5-2.9-8.4-8.5-7.8
				c-4,0.4-7.9,1-11.8,1.4c-1.9,0.2-4.1,0.3-4-2.5c0.1-2,1.2-3.8,3.5-3.7c1.8,0.1,3.5,0.1,5.4,0.6c9.4,2.2,14.8-1.5,15.6-10
				c0.2-1.7-0.7-4.6,1.8-4.5c2.8,0,3.4,3,3.5,5.3c0.2,7.7,0.2,15.4,0.1,23.1c-0.2,13.1-0.5,26.2-0.7,39.3c-0.1,5.6,1.7,9.6,8.2,10
				c1.8,0.1,5.1-1.6,5.1,1.6c0,2.5-2.8,2.8-5.5,2.5c-5.8-0.6-9,3.1-7.9,9.1c0.8,4.4,0.5,8.9,0.5,13.3c-0.2,19.2-0.2,38.5-0.4,57.7
				c-0.1,7.8,5.1,7.6,10.5,7.7c5.5,0.2,10.3,0.2,10.1-7.5c-0.2-8.4,0.7-16.9,0.2-25.3c-1-18.4,3.1-37-1.9-55.3
				c-0.3-1.2,0.1-2.9,0.7-4c1.8-3.3,1.7-6.7,1.6-10.3c-0.5-11.9,1-23.9-0.1-35.8c-0.1-1.3-0.2-3.1,1.4-3.6c1.8-0.6,2.1,1.4,3,2.3
				c4.8,4.9,3,11,3,16.7c-0.2,22.2,1.2,44.3-0.5,66.5c-0.5,6.1-0.1,12.2,0.2,18.3c0.2,4.3,1.9,6.8,7,6.5c6.2-0.3,12.5-0.5,18.5,0.7
				c5.4,1.1,7.1-0.8,7.2-5.3c0.5-15,0.2-30,1.4-44.9c0.6-8-3.1-17.3,5-23.9c1.4,0.9,3.3,2.4,2.4,3.8c-5.1,8.2-3.1,17.2-3.1,26
				c-0.2,22-0.2,44.1-0.2,66.1c0,4.5,1.1,7.4,6.2,9.4c7.2,2.9,12.3-2.9,18.7-2.7c1,0,1.2-2,0.7-3.1c-3.7-7.4,0.5-14.9-0.2-22.5
				c-1.1-12-0.1-24.2,0.1-36.3c0-2.9-1.8-7.8,1.2-8c3.9-0.4,4.2,4.6,4.5,8.1c0.1,0.7,0,1.4,0,2.1c0.5,18,0.3,36.1-0.5,54.1
				c-0.2,5.1,0.5,8,7.1,8.2c6.5,0.2,13.4-1.5,19.1,0c7,1.9,6.9-2.2,9-5.8c3-5.4,1.1-11,1.5-16.5c0.2-2.6,0.6-6,3.6-6
				c3,0,4.5,3.1,4.4,6.2c-0.2,4.4,0,8.9-0.7,13.3c-1.1,6.2,2.9,9.7,8.9,8.5c1.3-0.3,2.8-0.4,4.1-0.3c7.5,0.8,10.6-3.1,10.8-10.1
				c0.1-2.3,0.6-4.8-0.1-7c-2.5-8.3,1.3-16.2,1-24.3c-0.1-2.1,1.2-5.4,3.8-5.3c3.6,0.2,2,3.6,2,5.6c0,11.7-0.2,23.4-0.3,35.1
				c0,5.6,2.2,8,8.2,7.2c4-0.5,8-2,12.7,0.4c2.5,1.3,8.6-1,9.6-5.8c1.1-5.2,1.5-10.7,1.6-16c0.2-12.9-0.5-25.8,0.1-38.6
				c0.3-7.7-1.5-15.5,1.1-23c0.5-1.4,0.7-2.9,2.5-2.7c2,0.2,1.5,1.9,1.6,3.3c0.1,7,0.4,14,0.3,21.1c-0.2,17.6-0.6,35.1-0.8,52.7
				c-0.1,7.1,2.9,9.3,10,8.4c3.4-0.4,7-0.7,10.4-0.2c6.2,0.8,7.3-2.4,8.2-7.6c1.5-8.6-0.1-17.2,0.3-25.8c0.8-15.7,0.7-31.4,0.7-47
				c0-4.6-2.6-7.2-7.8-6.9c-4.6,0.3-9.3,0-13.9-0.2c-1.4,0-3-0.6-3.4-2.1c-0.4-1.5,0.9-2.4,1.9-3.4c4.3-4.4,9.6-3,14.5-2.2
				c5.8,0.9,7.7-2.1,8-7c0.1-1.9-0.1-3.8,0-5.6c0.8-10.2,12.8-21.4,21.4-20c13.9,2.4,17-0.1,17.8-14.2c0-0.7,0-1.4,0-2.1
				c0.2-21.7,0.3-43.5,0.7-65.2c0.3-15.8-1.2-31.6,0.2-47.4c0.4-3.9-2.3-8.2,0.2-11.7c3.2-4.4,2-8.8,1.8-13.4
				c-0.5-11.1-1.3-22.2-0.3-33.3c0.3-2.9,4.3-5.6,2.3-7.6c-4.2-4.4-2.3-9.2-1.6-13.4c0.7-4.3-2.3-7.9-1.4-11.8
				c2.6-11,1-22.2,1.3-33.2c0.4-12.4,0.7-24.9,0.4-37.4c-0.3-11-0.9-22,0.5-33.2c1.3-10.9-0.9-22.3,0.3-33.3
				c1.3-11.7,0.6-23.2,0.7-34.8c0.1-7.7-4.4-11-11.8-9.7c-3.9,0.7-7.7,1.4-11.8,0.8c-4.6-0.6-7,1.3-7.7,6.5
				c-2.1,14.8-1.5,29.9-0.4,44.3c1,14.5-5.9,28.6-0.5,42.8c-3.9,20.1,0.2,40.5-2.2,60.7c-1,8.3,0.8,17.8-0.4,25.9
				c-1.2,8.5,0.4,16.8-0.8,25.2c-1.3,9,0.7,18.9,0.2,28.1c-1.1,21.4-1.1,42.8-1,64.2c0,15.2-0.7,30.4-1,45.6
				c-0.2,11-0.1,21.9-0.3,32.9c0,1.7,0.2,4.4-2.4,4.3c-2.7-0.1-2.9-2.7-2.9-4.7c0.1-6.1,0.4-12.2,0.5-18.2c0.2-25,0.2-50.1,0.4-75.1
				c0.1-16.3,0.6-32.7,0.5-49c0-7.5-0.7-14.9,0.9-22.4c0.9-4.3,1.6-8.9,1.1-13.2c-1.6-13-2.2-26.1-0.8-39.1
				c0.8-7.4-1.9-14.6-0.5-21.6c2.3-12.3-1-15.5-14.9-12.8c-4.8,0.9-10.4,1.4-10.9,8.7c-0.7,10.1-1.8,20.1-1.5,30.3
				c0.2,5.4,0.7,10.9-0.2,16.1c-2.7,16.3-1.3,32.6-1.7,49c-0.3,15.2,0,30.4-0.2,45.6c-0.3,17.8-1.3,35.6-0.5,53.4
				c0.3,6.6,0.8,13.4-1.4,20.6c-4.1-3.2-4.7-6.5-4.5-10.5c0.5-11.2,1.9-22.5,0.6-33.6c-1.5-13,0.3-25.8-0.2-38.8
				c-0.5-12.4,1.4-25.2,1.3-37.7c-0.2-27.1,0-54.2,1.1-81.2c0.4-10.1-1.5-20-0.3-30.4c2.1-18.7,0.9-37.9,0.8-56.8
				c0-5.5-3.6-7.7-8.8-7.3c-1.7,0.2-3.1-0.1-4.7-0.6c-12.5-4.3-16.8-1.8-17.6,10.8c-0.8,12.6-1,25.2-1.1,37.9
				c-0.2,18.5,0,37-0.3,55.5c-0.3,24.6-1.1,49.2-1.3,73.8c-0.2,24.6,0,49.1-0.1,73.7c0,1.4,0,2.9-1.9,3.6c-5.5-4-3.6-10-3.7-15.4
				c-0.2-9.5-1.5-11-10.8-11.4c-2.8-0.1-5.6-0.2-8.4-0.5c-7.6-0.9-11.5-5.4-11.4-13c0.2-9.4,0.3-18.7,0.4-28.1
				c0.1-21.1,0.2-42.2,0.2-63.3c0-10.8-0.4-10.9-11.1-10.2c-6,0.4-12,0.3-18.1,0.6c-5.1,0.2-9.1,2-9.3,8
				c-0.3,16.1-0.4,32.3-0.8,48.4c-0.1,3.2,2.3,8.5-2.4,8.8c-3.2,0.2-1.7-5.4-2.4-8.4c-1.1-5.1-1.5-10.6-9.4-8.6
				c-2.8,0.7-6.1-0.1-8.2-2.9c-0.8-1-0.9-2.3-0.3-3.3c0.7-1.2,1.8-1,3.1-0.6c10.6,3.7,14.4,1,14.7-11c0.5-29.5,1.4-59.1,1.1-88.6
				c-0.4-29.3-0.2-58.5,0.9-87.7c0.9-26,0.5-52,1-78c0.4-16.4-0.3-15.5-16.2-18.3c-8-1.4-7.8,1.9-8.2,7.3c-2,27.1-0.5,54.2-1.4,81.3
				c-0.8,24.4,0.1,49-1.4,73.4c-1.1,17.5,0.2,34.8-0.6,52.2c-0.3,6.9-3.3,14.4,2.3,20.9c0.7,0.9-0.4,3.6-1,5.3
				c-0.7,2-1.3,3.9-1.3,6.1c0.2,9.3-1.5,18.6-0.6,28c0.1,1.4-0.1,3.1-1.8,3.2c-1.6,0.1-2.5-1.4-2.8-2.7c-0.4-1.8-0.3-3.7-0.3-5.6
				c-0.2-8.2-0.3-16.4-0.7-24.6c-0.2-4.3-3.3-8.4-6.8-7.3c-8,2.4-16.4-2.9-23.9,2.3c-1.6,1.1-2.6-0.5-3.5-1.4
				c-2.9-2.6-3.2-5.9-3.1-9.6c0.3-8.8,0.3-17.7,0.7-26.5c0.9-18.3,0.2-36.7,0.4-55.1c0.1-11.6-0.4-12.2-12-10.7
				c-2.1,0.3-4.1,0.7-6.2,0.9c-3.5,0.4-5.6,2.3-6.2,5.7c-0.6,3.9-1.6,8-1.2,11.8c1.9,17.1-0.1,34.2,0.6,51.3
				c0.1,1.8,0.4,3.9-2.2,4.8c-2.1-1.6-2.1-3.9-2.2-6.2c-0.5-33-0.3-66,0.8-98.9c0.4-11-0.4-22-0.8-33c-0.1-2.4,0-4.9-3.5-5
				c-7.2-0.1-14.4-0.2-21.7-0.4c-4.6-0.1-7,2.2-7.5,6.6c-0.5,5.1-1.5,10.2-1.4,15.4c0.3,25.3,0.7,50.5-0.4,75.8
				c-0.1,1.9,2.4,5.3-1.7,5.4c-3.6,0.1-3-3.2-3.5-5.7c-2.5-12.2-0.4-24.7,0.7-36.6c1.1-11.5-2.1-22.6-0.4-34.1
				c0.8-5.6,1.5-11.8,1.6-17.9c0.2-12.4-1.7-24.6-0.8-36.9c0.5-6.5,1.6-13,1.3-19.5c-0.4-10.5-16.4-18.7-25.2-13.1
				c-1.6,1-1.7,2.8-1.7,4.4c0,4.7,0.1,9.3,0.1,14c-0.1,35.1-2.1,70.2-1.5,105.3c0.1,3.5,1.9,9.8-2.7,10.1c-6.2,0.4-3.8-6-4.3-9.9
				c-0.7-6-1.2-11.4-10.1-10.6c-4,0.4-10.2,2.3-12.9-4.1c-0.7-1.6-3.1-2.8-1.5-4.8c1.4-1.7,3,0.1,4.5,0.5c5.4,1.3,10.8,2,16.4,0.8
				c2.1-0.5,3.6-0.8,3.5-3.3c-0.5-9.4,2.5-18.9,1.7-27.9c-1.3-15.4,1-30.7-0.5-46c-0.6-6.8-0.4-13.5-0.2-20.3
				c0.1-4.2,3.1-7.2,2.8-11.9c-0.4-7.1-2.5-14-1-21.8c1.2-6.1,3-13.5,1.3-19.9c-3.6-13.6,1.4-26.8,0.6-40.3
				c-0.7-11.5,0.3-23.2,0.4-34.8c0-5.7-6.7-10-12-9.3c-6.3,0.9-13,0.3-19.4-0.2c-9.2-0.7-10.5-0.1-10.6,8.8
				c-0.5,31.4-1.7,62.8-1,94.2c0.9,37.2,0.1,74.4-0.5,111.6c0,2,0.6,5.1-1.9,5.4c-2.9,0.4-2-3.1-2.8-4.8c-0.4-1-0.5-2.3-0.4-3.4
				c1.9-21.8,1.1-43.8,1.2-65.6c0.3-42.4,0-84.8,0.1-127.2c0.1-17.3,2.5-19.9-17.8-18.5c-0.7,0-1.4-0.1-2.1-0.2
				c-5.8-0.3-8.8,2.4-8.8,8.3c0,8.4-0.1,16.9-0.5,25.2c-0.9,21.4-1.2,42.8-0.8,64.2c0.5,27.4,0.3,54.7-0.9,82.1
				c-0.1,1.9,1.5,4.9-1.6,5.2c-3.2,0.2-4.1-2.6-3.9-5.4c0.7-9.3-0.1-18.6,0.3-28c0.3-7.9,0-16.1,0-24.1c-0.1-8.1-2.1-16.4-0.6-24
				c3.6-17.7,0-35.4,1.6-53c1.1-11.5-1.2-23.3,0.5-35c1.3-8.6-4.8-17.6-11.4-16.2c-4.3,1-8.3,0.4-12.3,0.7
				c-12.9,0.9-12.9,0.7-14.4,13.6c0,0.2-0.2,0.5-0.2,0.7c0,12.2-3.5,24.6,2.8,36.3c0.7,1.3-0.1,2.2-0.8,3.1
				c-2.5,3.2-2.2,7.1-2.3,10.8c-0.3,24.3-0.6,48.7-0.9,73c0,2,0.7,4.3-2.1,5.2c-2.2-1.4-2-3.8-2-5.7c-0.2-15.9-0.5-31.8-0.2-47.7
				c0.2-9.1,0.5-18.2-0.9-27.3c-0.3-2.1-0.8-4.1-3.1-5.1c-7.9-3.3-16.5,1.7-16.9,10c-0.4,8.2,0.1,16.4-0.6,24.5
				c-0.5,5.8-1.7,11.4,0.1,17.1c0.8,2.5,0.9,4.9-2.2,5.6c-3.2,0.7-2.9-2.1-3.3-4.1c-1.8-8.6,0.1-17.3,0-25.9
				c-0.3-17.1-1-34.2,0.2-51.3c0.5-7.2-0.3-14.4,0.1-21.7c0.6-8.4-2.6-11-11.2-11.4c-4.8-0.2-9.6,0.2-14.4,0.3
				c-10.4,0.3-13.9,3.6-13.1,11.7c1.8,18.4-0.7,36.9,1.5,55.3c0.3,2.1,1.1,5-1.4,6.4c-1.7,1-3.7,0.3-5.2-1c-2.3-2-3.6-4.4-2.2-7.5
				c1.1-2.4,1.7-4.8,1.7-7.5c0-8.4,0-16.7,0.5-25c0.6-9.6-0.8-19.1-0.7-28.6c0-2.2-0.9-2.9-3-3.9c-4.8-2.2-9.2,1.2-14,0.2
				c-4.1-0.8-9.5-1.8-10.5,5.7c-0.4,3-3.8,1.8-4.4-0.4c-1.7-6.7-6.4-5.9-11.5-5.8c-2.6,0.1-5.5,2-7.4,0.8c-4.2-2.9-9-0.7-13-1
				c-7.5-0.7-0.1,7.5-3.2,10.8c-0.1,0.1,0,0.5-0.1,0.7c-0.4,1.4-1.1,3-2.6,2.9c-1.8-0.1-1.7-2-1.8-3.3c-0.2-2.1-0.3-4.2-0.5-6.3
				c-0.2-2.4-1.8-4.2-4-4.1c-4.6,0-9.2,0.5-13.8,1.1c-4.7,0.6-6.7,3.5-6.7,8.3c0.1,8.2-1,16.3,0.3,24.5c0.5,2.8,0.5,6.1-0.9,9
				c-0.6,1.2-1.2,2.8-2.9,2.5c-1.5-0.3-1.3-1.8-1.4-2.9c-0.4-7.4-1-14.8-1-22.2c0-5.8,0.1-11.6-1.2-17.3c-0.5-2.2-1.2-3.7-4.2-3.4
				c-8,0.7-16.2,2.2-24,1c-8.1-1.3-8,3.1-7,7.6c3,13.7-1.9,27.2,0,41.1c1.4,9.8-0.1,20.4-0.4,30.6c-0.1,2.8-0.8,5.5-1.4,8.3
				c-0.4,1.7-1.6,3.2-3.4,3c-2.3-0.2-1.9-2.3-1.9-3.9c-0.2-5.1-0.5-10.3-0.2-15.4c0.8-14.1-3.4-14.5-17.5-15.1
				c-4.4-0.2-5.6,2-6.3,5.7c-1,5.1,0.9,11.2-0.9,15.2c-4.3,9.5,1.2,18.2-0.1,27c-1.8,11.9-0.3,23.8,0.1,35.6
				c0.7,23.6-0.1,47.2,0.2,70.8c0.2,24.5,0.5,49-0.4,73.6c-0.7,18.8,0.2,37.9,0.3,56.8c0.1,21.2,0.5,42.3-0.4,63.5
				c-0.6,14.1,0.2,28.3,0.7,42.4c0.6,19.8-0.2,39.7-0.2,59.5c0,18.7-0.8,37.6-0.9,56.4C141,712.9,142.3,721.9,146.3,730.2z
				 M721.2,247c0.1-12.4,0.1-22.9,0.2-33.4c0-6.5-3.1-9.1-9.6-9c-5.7,0.1-11.4,0.9-17.3-0.2c-7-1.3-9.1,1.4-9.3,8.7
				c-0.3,12.2-0.7,24.3-0.9,36.5c-0.1,10,1.1,20.1,0.1,30c-1.9,18.6-0.2,37.4-2,55.9c-0.7,7,1.4,14.3-0.7,20.5
				c-3.4,10.3-0.8,20.6-2,30.8c-0.6,5,2.8,11,1.7,16.5c-1.2,6.4-1,12.8-1.4,19.2c-1.6,22.4-0.2,44.8-0.5,67.2
				c-0.1,7.4,3.8,9.4,9.5,9.8c7.2,0.5,14.4-0.1,21.6,0.4c5.1,0.4,6.9-2,7.1-6.3c0.2-5.4,0-10.8,0.1-16.2c0.2-23.6,1.1-47.2,0.5-70.8
				c-0.3-12.5-0.2-25.2,1.1-37.2c2.9-25.6-1.6-51.1,1.1-76.7C722.2,277.1,722.7,261,721.2,247z M246.1,792.3
				c-0.6,11.5-0.1,19.4,1,27.3c0.6,4.9,2.6,6.1,7.4,5.6c5.6-0.6,11.1-3,17-1.3c2.5,0.7,4.3-0.9,5.2-3.5c1.3-3.4,1.4-6.8,1.5-10.4
				c1.1-33.2-0.6-66.5,0.2-99.7c0.8-34.8,0.3-69.7,0.1-104.6c-0.1-19.4,1.2-38.8,0.2-58.3c-0.9-17-0.4-34-0.8-51
				c-0.1-3.6,0-8.7-6.6-5c-1.4,0.8-3.8,0.3-5.5-0.2c-5.7-1.7-10.7,1.5-16.2,1.9c-3.3,0.2-5,4.2-4.2,7.1c3.1,10.7,0.2,21.4,0.5,32
				c0.5,24.3-1.3,48.7,0.4,73c1.3,17.6-1.5,35.1-0.7,52.7c0.5,11.8,0.3,23.7,0.2,35.6c-0.1,10.8-1.4,21.6-0.5,32.3
				C247.2,749.2,244.2,772.5,246.1,792.3z M644.5,210.8c0.6,0,1.1,0,1.7,0c0-6.8,0.2-13.6,0.1-20.4c-0.1-5.2-0.8-9.9-8.4-8.7
				c-3,0.5-6.4-0.9-9.6-1.6c-12.1-3-15.3-0.6-15.4,11.9c-0.3,30.9-0.6,61.8-0.9,92.7c-0.5,47.2-0.7,94.5-1.5,141.7
				c-0.3,18.9-0.2,37.9,0,56.8c0.1,9.5,1.7,11.8,9.5,11.8c4.7,0,9.1,1.5,14.1,0.8c5.6-0.8,7.4-2.7,8-8.1c1.7-16.5,1-33.1,1.4-49.6
				c0.6-25.5-0.1-50.9,0.5-76.4c0.7-29.7,0-59.3,0.1-89C644.2,252,644.4,231.4,644.5,210.8z M820.9,392.7c0-2.1,0-4.2,0-6.3
				c0.2-9.6,0.9-19.1,0.6-28.7c-0.3-9.4-2.3-18.6,0.2-28.1c2-7.6,0.6-15.8,0.5-23.8c-0.4-25.8,2.1-51.6,0.7-77.4
				c-0.2-3-0.1-6.3,1.1-8.9c2.4-5.2,1.8-10.3,1.2-15.7c-0.9-8.1-1.5-16.3-1-24.3c0.5-9.2,1.6-18.4,1.8-27.7c0.2-6.1-3.3-9.3-7.5-9.8
				c-3.9-0.5-7.9-1.6-12.1-1.4c-5.8,0.2-8.1,1.9-8.3,8.1c-0.9,31,1.3,62-2.3,93c-1.5,12.6,0.3,25.5,0.3,38.3
				c0,26.4-0.9,52.8-0.5,79.2c0.4,29-2.4,58.1-1.2,87.2c0.6,14.5,0.3,14.6,14.7,14.2c9.9-0.2,10.3-1,11.2-11
				C822.2,430.6,820.4,411.7,820.9,392.7z M462.5,735c0.2,0,0.3,0,0.5,0c-0.1,19.7,0,39.4-0.4,59.1c-0.4,16.8,1.3,33.7-1.4,50.5
				c-1.1,7.2,0.1,14.5,1.8,21.6c0.3,1.4,0.2,3.8,2.8,2.8c7.7-3.1,15.6-0.3,23.4-1c9.7-0.9,10.7-0.3,10.9-9.7
				c0.4-16.8,0.3-33.6,0.5-50.5c0.2-13.5,0.9-27,0.9-40.5c0-22.5-0.5-44.9,0-67.4c0.3-13.3,1.4-26.7-0.8-40c-0.8-4.9-3-6.9-8-6.5
				c-4.8,0.4-9.7,0.6-14.6,0.2c-13-1.1-15.5,2-15.4,14.8C463,690.4,462.7,712.7,462.5,735z M791.3,159.5c0-2.6,0.2-5.2,0-7.7
				c-0.7-10.9-2.8-12.5-13.7-10.6c-1.8,0.3-3.1-0.5-4.7-0.8c-9.2-1.9-14.1,0.8-13.5,9.4c0.7,9.9-1.7,19.6-1.3,29.3
				c1.1,30.1-2,60.2-1.4,90.3c0.7,32.5-1.4,65-0.6,97.5c0.3,12,0.2,11.9,11.3,16c1,0.4,1.8,1.5,2.8,2c9.1,4.7,16.2,0.8,17.1-9.1
				c1.6-17.9,1.4-35.9,1.6-53.9c0.4-30.2-0.8-60.5,1.1-90.6C791.4,207.4,787.9,183.4,791.3,159.5z M740.4,308.9
				c-12-0.2-13.9,1.5-14.6,13.8c-1.6,28.8,0.3,57.6-0.6,86.4c-0.9,29.2-0.6,58.5-0.3,87.7c0.1,10.1-1.7,20.1-1.3,29.9
				c1.1,24.6-0.9,49.1,0.6,73.6c0.2,3.7,0.2,9.8,3.5,9.6c6-0.4,12.2,5.3,17.9-0.2c0.8-0.8,1.4-1.9,1.6-3c0.7-5.3,1.5-10.7,1.6-16.1
				c0.3-13.7,0.7-27.5,0.2-41.3c-0.5-15.7,1.2-31.3,0.9-47c-0.6-33.7,0.9-67.4,0.2-101.1c-0.6-27,0.9-54,1.3-81
				C751.3,310.7,749.5,309,740.4,308.9z M582.4,357.9c-0.2,0-0.3,0-0.5,0c-0.1,10.3,0,20.6-0.2,30.9c-0.1,4.3,1.4,7.8,5.8,6.3
				c3.7-1.3,7.3-1.2,10.7-1.1c6.5,0.1,8-3.4,7.8-8.7c-0.3-10.3-0.4-20.7,0.4-30.8c2.1-28.3-0.7-56.6,0.9-84.9
				c1.1-19.2,1.5-38.4,1.1-57.6c-0.4-20.4,1.5-40.7-0.3-61.1c-0.8-9.6-2.6-10.9-14.8-10.3c-6.7,0.3-8,6-7.9,11.3
				c0.2,31.2-3.1,62.3-2.5,93.6C583.5,283,582.6,320.4,582.4,357.9z M382.5,599.9c0.6-6.7-0.1-11.7-3.2-15.7
				c-3.2-4.1-7.2-1.2-10.9-0.2c-0.2,0.1-0.5-0.1-0.7-0.1c-5.1-1.4-7,1.6-7.1,5.9c-0.3,20.4-0.5,40.7-0.6,61.1
				c-0.1,19.7,0,39.4,0,59.1c-0.1,30.4,0,60.8-0.4,91.2c-0.2,17.7,1.6,35.4-0.7,53.2c-0.6,4.2-1.3,10.1,2.4,12.4
				c3.8,2.4,9.5,3.1,14.2,0.9c4.1-1.9,4.7-6.3,4.5-10.4c-0.3-7.9,1.1-15.8,0.5-23.8c-0.5-7.8-0.2-15.7,0-23.5
				c0.3-8.9-1.5-17.9,0.4-26.9c0.7-3.3,1.7-7.1,1.4-10.8c-0.6-8.2-1.6-16.4-0.1-24.5c1-5.3,0.4-10.3-0.5-15.3
				c-1.3-6.9-2.3-13.6-1.6-20.7c1-11.2,2.8-22.2,2.7-33.5C382.6,651.5,382.6,624.8,382.5,599.9z M578.4,196.5c0.1,0,0.2,0,0.4,0
				c0.1-15.7,0.4-31.4,0.1-47.1c-0.1-3.8,0.2-9.9-6-8.8c-5.9,1-11.5-0.6-17.4,0c-8.2,0.9-11.6,3.8-10.1,12.1c0.7,4,1.1,7.8,0.9,11.9
				c-0.7,17.7-1.6,35.5-1.8,53.3c-0.3,18.7,0.8,37.3,0.1,56c-0.5,13.3,0.4,26.6-0.7,39.9c-0.3,4,0.4,8.1,5.5,9.3
				c6.6,1.6,13.2,2.7,20.1,2.8c6,0,8.5-2.7,8.2-8.6c-1.2-25,1.7-50,0.6-75C577.6,227,578.3,211.8,578.4,196.5z M828.8,301.2
				c0.2,0,0.3,0,0.5,0c0,8.7-0.2,17.3-0.1,26c0,4.5,1.5,7.4,7,7.6c4.9,0.1,9.7,0.5,14.6-0.1c8.9-1,10.1-2,10.1-11.1
				c0-16.3-0.4-32.6,0.3-48.9c0.9-21.9,1-43.9,1.1-65.8c0.1-19.4-0.2-38.9-0.6-58.3c-0.1-3.3-1.9-5.8-4.8-8.5
				c-4.6-4.2-8.7-1.6-13.1-2c-10.7-1-12.3,0.7-12.1,13.7c0.2,11.9,1,24-0.2,35.8c-2,19.5-0.6,39-2.2,58.5
				C827.9,265.7,828.9,283.5,828.8,301.2z M754.5,158.4c0-1.4,0-2.8,0-4.2c-0.1-13.1-0.9-13.8-13.4-13.3c-12,0.5-12.6,1.3-11.5,13.4
				c0.4,4.3,1.6,9.4,0,13c-5.1,11.2-0.7,22.7-1.8,34c-0.8,8.1-0.5,16.8-1.1,25.3c-0.7,10.6,0.7,21.2-0.6,31.9
				c-1.3,10.7,1.1,21.7,0.4,32.5c-0.5,8.3,2.3,12.8,12.1,12.6c1.6,0,3.3-0.4,4.8,0.2c5,2.1,7-0.7,7.9-4.9c0.6-3,0.9-6,0.9-9.1
				c0.4-22.3,0.6-44.7,0.9-67C753.5,201.4,752.5,179.9,754.5,158.4z M855.3,785.5c0.1-9.1,0.2-18.2,0.1-27.4
				c-0.1-10.9-1.1-11.6-12-10.8c-4.2,0.3-8.4,0.9-12.6,1.2c-6.3,0.3-9,3.1-8.8,9.7c0.4,13.3,0.4,26.7,0.3,40
				c-0.1,21.2-0.6,42.5-0.6,63.7c0,7.5,2.8,9.7,10.2,8.7c5-0.7,10.1-1,14.5,0.8c6.4,2.6,8.1-0.9,8.2-5.4c0.2-8.2,1.1-16.5,0.5-24.5
				C853.8,822.7,855,804.1,855.3,785.5z M513.3,248.6c-1.5,6.9-1.4,11.6,4.1,13c4.9,1.3,10,1.3,15.1,2c3.8,0.5,5.3-1.2,6-5
				c2.6-13.9,1-27.9,0.7-41.8c-0.4-19.4,1.3-38.7,1.9-58.1c0.5-15.5-1.2-18.8-16.1-17.8c-1.2,0.1-2.4,0.4-3.5,0.2
				c-4.7-0.9-6.7,1.7-7.1,5.6c-0.7,7.9-1.3,15.8-1.4,23.7c-0.1,9.8,0.5,19.5,0.6,29.3C513.6,216.8,513.4,233.8,513.3,248.6z
				 M652.1,232.6c-0.1,0-0.3,0-0.4,0c0,5.4-0.2,10.8-0.1,16.1c0.2,8.3,3.7,11.1,11.9,10c1.6-0.2,3.3-1.1,4.8-0.8
				c8,2,8.6-2.6,8.3-8.6c-1-22.9,2.2-45.7,0.9-68.6c-0.6-11.1,1.9-22.1,0.9-33.2c-0.2-1.9-0.6-3.4-1.9-5c-3.7-4.9-8.1-2.3-12.6-2.1
				c-10.8,0.4-11.5,1.2-11.5,11.5C652.6,178.8,652.2,205.7,652.1,232.6z M420.4,869.7c0.3-0.5,0.7-0.9,0.7-1.2
				c0.2-25.5,0.5-51.1,0.6-76.6c0-6.9-3.1-10-10-9.4c-4.6,0.3-9.1,2.2-13.7,2.4c-8.9,0.4-10.5,1.7-10.7,10.5
				c-0.3,15.4-0.9,30.8-1,46.2c-0.1,5.8-1.1,11.7-0.1,17.5c1.1,6.2,4.4,8.7,11,9.2C405,868.8,413,865.5,420.4,869.7z M283.7,852.9
				c-0.4,8.8,0.6,11.6,4.6,14.2c3.3,2.1,6.8-0.1,10.3,0.5c10.7,1.9,14.5-1.2,14.5-11.8c0.1-26.9,0-53.8,0-80.7
				c0-3.4-0.9-6.1-5.1-5.9c-6,0.3-11.9,0.4-17.8,1c-3.7,0.4-6.8,1.9-6.8,6.5c0,4.9-0.4,9.8-0.3,14.7
				C283.4,812.2,281.7,833,283.7,852.9z M241,796.8c-0.2,0-0.3,0-0.5,0c0-8,0.5-15.9,0-23.8c-0.7-11.9-1-11.9-12.1-13.3
				c-0.2,0-0.5,0-0.7-0.1c-8.3-1.6-12.3,1.9-12.2,11c0.2,27.8,0.4,55.6,0.7,83.4c0.1,12.7,0.1,12.7,12.5,13.4c0.7,0,1.6-0.2,2.1,0.1
				c6.7,4.2,8.4-0.5,10.8-5.5c1.5-3.1-1.1-5-1-7.7C241,835.1,240.9,815.9,241,796.8z M685.1,170.5c0.1,0,0.2,0,0.2,0
				c0,7.5-0.3,15,0,22.4c0.1,4.1,0.1,7.6,7.1,6.8c5.7-0.6,12.1-0.7,18.1,0.1c8.9,1.1,12.8-2.6,12.4-11.7c-0.4-7.9-3.9-16-1.1-23.4
				c2.5-6.7-1.3-12.6-0.2-18.9c0.5-3.1-2.5-5.1-6.1-5.3c-7.6-0.6-15.1,0.8-22.7-0.1c-4.6-0.5-8,1.8-7.7,7.8
				C685.6,155.5,685.2,163,685.1,170.5z M143.4,192.9c4.2-1.7,8.2-2.1,13.2-1.3c8.3,1.3,9.6,0.5,9.6-8c0-11,1.1-22,0.3-33
				c-0.5-6.7-2.9-9.6-9.2-10.3c-10.1-1.2-15.9,3.1-15.7,12.6C141.9,166,141.5,179.2,143.4,192.9z M245.6,850.1
				c-0.1,6.7,1.4,14.7,3.2,16c3.3,2.4,7.4,0.2,10.8,1.1c4.5,1.2,8.8-0.2,13.2,0.3c3,0.4,4.8-1,5.3-4.2c1.7-10.8,0-21.5-0.6-32.2
				c-0.1-2.3-1.3-2.5-3.8-3.1c-6.4-1.4-10.9,3.2-16.5,3.5c-10.2,0.6-10.2,0.5-10.8,10.6C246.1,845.2,245.8,848.2,245.6,850.1z
				 M646.1,158.7c0-3.7,0.2-7.5,0-11.2c-0.2-2.9-2-6.4-4.6-6.2c-7.4,0.4-14.7-0.2-22-0.1c-2.6,0.1-6.4,1.7-5.5,6.5
				c0.5,2.4-0.4,5.1-0.6,7.7c-0.9,16.3-0.7,16.6,15.4,18.9C645.3,176.6,646.2,175.7,646.1,158.7z M363.5,174.2
				c0.1,4.1-1.3,8.9,2.9,11.6c4.2,2.7,9.8,0.4,14.4,3.3c1.4,0.9,1.8-2,1.9-3.7c0.6-13,1.2-26.1,1.7-39.1c0.1-2.1,0.1-4.2-2.4-5.3
				c-7.9-3.7-17.6,1.7-18.4,10.4C363,159.1,361.3,166.6,363.5,174.2z M641.3,855.1c-1.1-3.7,2.1-8.3-3.5-10.5
				c-8.9-3.5-18.2-0.6-26.7,0.4c-8.7,1-2.2,11.1-3.7,17c-0.8,3.2,0.3,6.8,3.9,7.2c8.5,1,17-0.4,25.5-1.1c2-0.2,3-2.2,3.3-4.1
				C640.6,860.9,640.9,857.9,641.3,855.1z M455.7,855.5c-1.3-4.9,1.4-11-3.9-12.5c-7.2-2.1-15.1-2.1-21,3.7
				c-3.9,3.8-4.1,9.3-2.8,14.3c1.2,4.3,4.5,6.6,9.4,6.8c3.8,0.2,7.7-0.5,11.6,0.8c2.8,0.9,4.8-1.5,5.4-4.2
				C455.2,861.3,455.4,858,455.7,855.5z"/>
			<path d="M286.3,168.9c0,3.9,0,6.5-0.1,9c-0.1,1.7-0.6,3.3-2.8,3.2c-1.8-0.1-3.1-1-3.3-2.9c-0.6-6.2-1.6-12.4-0.5-18.7
				c0.3-1.8,0.9-3.9,3.3-3.8c2.5,0.2,2.5,2.3,2.7,4.2C285.8,163.3,286.1,166.8,286.3,168.9z"/>
		</g>
		<g>
			
				<rect x="432.8" y="135.3" transform="matrix(0.7071 -0.7071 0.7071 0.7071 -215.7785 499.719)" fill="none" width="125" height="750.1"/>
			<path d="M280.3,345.3l44.1-44.1c-3.5-2.1-8.1-6-10.4-8.4l12.1-12.1c7.4,5.6,15.9,7.6,22.8,7.4l13.2,13.2l-63,63L280.3,345.3z"/>
			<path d="M341.8,375.8c-2.4,4-1.5,8.4,2.5,12.5c3.7,3.7,6.4,4.1,8.7,1.8c2.5-2.5,1.1-5.5-4-13.6c-13.4-21.1-10.2-29.3-3.1-36.4
				c7.3-7.3,21-10.8,38.1,6.3c16.3,16.3,13.8,30.6,7.3,38.1l-16.7-16.7c1.4-2.1,2.8-5.8-2.2-10.8c-3.3-3.3-5.9-3.2-7.6-1.5
				c-2,2-1.2,4.4,5.1,14.4c12.4,19.5,10.3,28.5,2.4,36.4c-8.9,8.9-23.2,10.1-40.3-7c-16.3-16.3-15.4-31-7.5-40.9L341.8,375.8z"/>
			<path d="M410,374.9l7.2,7.2l13-13l18.4,18.4l-13,13l8.8,8.8l-12.6,12.6l-8.8-8.8l-21.5,21.5c-3.1,3.1-3.3,5.2,0.6,9.2
				c0.7,0.7,1.6,1.6,2.7,2.5l-11.5,11.5c-3.9-1.9-8.9-6.6-12-9.7c-11.8-11.8-9.4-20.9,0.1-30.4l23.1-23.1l-7.1-7.1L410,374.9z"/>
			<path d="M490.6,424l19.3,19.3l-51.5,51.5l31,31L473.1,538l-48.2-48.2L490.6,424z"/>
			<path d="M519.9,542.1c-5,5-8.2,12-2.7,17.5c4.4,4.4,7.6,3.8,11.1,2.1l18.3,18.3c-8.5,4.8-24.5,9.5-42.2-8.2
				c-18.9-18.9-13.1-38.6,0-51.7c15.1-15.1,34.6-18.7,52.9-0.5c19.4,19.4,12.2,38.4-0.3,50.9c-1.7,1.7-3,2.9-4.5,4.1L519.9,542.1z
				 M543.7,546.5c4.6-4.7,7.2-10,1.9-15.4c-5-5-10.6-3.2-15.8,1.4L543.7,546.5z"/>
			<path d="M604,568.9c-9.2,15.2-20.8,33-27.4,41.5l0.4,0.4c10.8-8.1,27.6-18,42-26.9l18.5,18.5L571,635.9l-20.8-20.8l33.9-66.2
				L604,568.9z"/>
			<path d="M629.6,651.8c-5,5-8.2,12-2.7,17.5c4.4,4.4,7.6,3.8,11.1,2.1l18.3,18.3c-8.5,4.8-24.5,9.5-42.2-8.2
				c-18.9-18.9-13.1-38.6,0-51.7c15.1-15.1,34.6-18.7,52.9-0.5c19.4,19.4,12.2,38.4-0.3,50.9c-1.7,1.7-3,2.9-4.5,4.1L629.6,651.8z
				 M653.4,656.2c4.6-4.7,7.2-10,1.9-15.4c-5-5-10.6-3.2-15.8,1.4L653.4,656.2z"/>
			<path d="M649.2,714.1l69.2-69.2l18.6,18.6l-69.2,69.2L649.2,714.1z"/>
		</g>
	</g>
</g>
<g id="text">
</g>
<g id="scratch">
</g>
<g id="guides" display="none">
</g>
</svg>
