<?xml version="1.0" encoding="utf-8"?>
<!-- Generator: Adobe Illustrator 26.0.2, SVG Export Plug-In . SVG Version: 6.00 Build 0)  -->
<svg version="1.2" baseProfile="tiny" xmlns="http://www.w3.org/2000/svg" xmlns:xlink="http://www.w3.org/1999/xlink" x="0px"
	 y="0px" viewBox="0 0 800 800" overflow="visible" xml:space="preserve">
<g id="fill">
</g>
<g id="bg" display="none">
</g>
<g id="counters_00000155831629897369998050000010902328751353074356_">
	<g id="mkr_x5F_gun_x5F_mal">
		<rect id="_x31__x2F_2_x22__800x800_00000008855529110194970500000000517647658274619312_" fill="none" width="800" height="800"/>
		<g>
			<rect x="299.9" y="100.4" fill="none" width="400" height="600"/>
			<path d="M574.5,174v44.7h-23.6V107H600c24.4,0,37.5,13.4,37.5,30.7c0,15-8.2,23.1-16.2,26.4c5.5,2,13.9,7.8,13.9,27.8v5.5
				c0,7.5,0.1,16.1,1.6,21.3h-22.9c-2-4.9-2.3-13.2-2.3-25.1V192c0-12.2-3.1-18-21.1-18H574.5z M574.5,154.8h20.2
				c13.2,0,18.3-5,18.3-14.4c0-9.1-5.9-14.2-17.7-14.2h-20.8V154.8z"/>
			<path d="M663,218.7V139c-4.9,2.3-14,4.2-19.3,4.6v-17.3c10.1-1.9,20.3-7.6,26.4-14.3h16.4v106.7H663z"/>
			<path d="M588.2,413.1l-23.9-39.3h-0.2l-24.4,39.3h-26l37.1-56.2l-36.1-55.4h28l22.6,37h0.2l23.4-37h25.6l-36,53.2l37.7,58.5
				H588.2z"/>
			<path d="M668.4,332.4c-1.3-5.3-4.3-10.3-13.6-10.3c-14.3,0-18,13.4-18.6,27.7c4.5-5.5,12-9.9,24.1-9.9
				c19.5,0,33.4,14.4,33.4,35.4c0,22.8-14.6,39.7-39.1,39.7c-30.9,0-41.2-23.8-41.2-53.9c0-27.7,9.8-56.6,42.5-56.6
				c23.2,0,34,14.5,35,27.9H668.4z M670.5,377.3c0-10.1-3.8-19.2-16.6-19.2c-10.4,0-16.4,6.1-16.4,18.4c0,8.6,4.1,20.1,16.5,20.1
				C665.2,396.6,670.5,388.1,670.5,377.3z"/>
		</g>
		<g>
			<rect x="100" y="500" fill="none" width="300" height="200"/>
			<path d="M210.5,700h-17.7c-0.9-3.4-1.5-7.3-1.8-11c-6.2,8.3-17.1,12.9-32.6,12.9c-32.4,0-50.5-24.5-50.5-56.3
				c0-33.6,19.5-58.9,54.7-58.9c28.7,0,45.7,16.2,48.4,35.3h-24.2c-2.3-7.5-8.2-16.3-24.5-16.3c-22.9,0-29.5,19.2-29.5,38.9
				c0,19.2,7.5,38.1,29.6,38.1c20.6,0,24.5-14.3,24.5-24.3v-1h-24.5v-19.8h48.2V700z"/>
			<path d="M297.2,675.6c0,8.1,0,16.9,0.2,24.4h-22.8c-0.3-2.2-0.5-6.7-0.6-9.7c-5,8.4-12.4,11.6-23.1,11.6c-17.1,0-28-10.4-28-31.2
				v-54.6h23.2v50c0,9.3,2.9,16.9,12.9,16.9c10.6,0,15-5.6,15-22.2v-44.6h23.2V675.6z"/>
			<path d="M310.2,637.2c0-7.1,0-14.9-0.2-21.1h22.5c0.5,2.2,0.8,8,0.9,10.7c2.9-5.3,9.6-12.6,24.3-12.6c16.8,0,27.8,11.4,27.8,32.5
				V700h-23.2v-50.8c0-9.4-3.1-16.3-13.4-16.3c-9.9,0-15.5,5.5-15.5,20.3V700h-23.2V637.2z"/>
		</g>
		<g>
			
				<rect x="349.9" y="-24.2" transform="matrix(0.7071 -0.7071 0.7071 0.7071 -165.7634 399.9677)" fill="none" width="100" height="848.5"/>
			<path d="M237.7,239.1c9-9,19.2-18.9,25.4-24.6l-0.4-0.4c-13.2,8.3-36,20.5-57.5,32l-9.7-9.7c10.6-18.2,25.1-43.7,33.3-56.5
				l-0.4-0.4c-5.7,6.6-16.3,17.7-25.4,26.7l-18.9,18.9l-10.4-10.4l52.7-52.7l16.9,16.9c-9.7,17.9-22.3,39.7-28.6,49.2l0.1,0.1
				c8.2-5.6,32.4-18.3,50.3-27.4l16.3,16.3l-52.7,52.7l-11-11L237.7,239.1z"/>
			<path d="M281.7,302.2c-3.8,3.8-9,9.6-9.7,10.7l-10.5-10.5c0.5-1.1,2.3-3.4,3.3-4.4c-3.7,0.8-8.9,0.7-15.9-6.3
				c-9.5-9.5-7.3-19.8-1.2-25.9c9-9,20.4-5.9,32,5.7c1.9,1.9,4.3,4.3,5.6,5.6l2.4-2.4c2.8-2.8,4.6-6.6-0.5-11.7
				c-4.6-4.6-7.6-3.7-11-1.3l-10.4-10.4c7.6-6.4,17.6-7.8,29.6,4.3c10.5,10.7,12.1,20.6,2.7,30L281.7,302.2z M278.8,283.7
				c-0.9-0.9-3-3-4.5-4.5c-6.6-6.6-11.1-7-14.9-3.2c-2.9,2.9-3.5,7,0.4,11c7,7,12.6,3,17.9-2.2L278.8,283.7z"/>
			<path d="M281.4,322.3l55.7-55.7l10.9,10.9l-55.7,55.7L281.4,322.3z"/>
			<path d="M304.2,345.1l31.3-31.3l-5.8-5.8l8.2-8.2l5.8,5.8l3.5-3.5c8.2-8.2,17.6-9.5,26.1-0.9c1.8,1.8,3.9,4.3,4.6,5.6l-8.6,8.6
				c-0.5-0.7-1.2-1.6-2.1-2.5c-3.2-3.2-5.6-3.2-9.9,1l-2.6,2.6l6.9,6.9l-8.2,8.2l-6.9-6.9l-31.3,31.3L304.2,345.1z"/>
			<path d="M373.6,391.6c-3.8,3.8-7.9,8-11.4,11.6l-10.7-10.7c0.9-1.2,2.9-3.4,4.3-4.9c-6.3,1.6-11.3-0.4-16.4-5.4
				c-8.1-8.1-8.3-18.1,1.5-27.9l25.7-25.7l10.9,10.9L354,363c-4.4,4.4-6.6,9.3-1.9,14.1c5,5,9.7,4.4,17.5-3.4l21-21l10.9,10.9
				L373.6,391.6z"/>
			<path d="M401.6,383.4c3.4-3.4,7-7,9.9-10l10.6,10.6c-0.8,1.2-3.4,4.1-4.6,5.5c3.8-1.1,10.5-1.4,17.4,5.5
				c7.9,7.9,7.7,18.5-2.2,28.4l-25.1,25.1l-10.9-10.9l23.9-23.9c4.4-4.4,6.2-9.1,1.4-14c-4.7-4.7-9.9-4.7-16.9,2.3l-22,22L372.1,413
				L401.6,383.4z"/>
			<path d="M464.3,479.7c-7.9,5.2-19.7,7.7-31.5-4.1c-12.3-12.3-10.1-27.1,1.8-39c11.7-11.7,28.1-13.8,40.1-1.8
				c13.3,13.3,7.5,26.6,3.2,31.3l-10.7-10.7c2.5-3.9,3-8-1.3-12.2c-5-5-12.2-3.5-19.9,4.2c-8.4,8.4-9.3,15.2-4.5,20
				c3.8,3.8,8,3.6,11.9,1.6L464.3,479.7z"/>
			<path d="M494.7,456.6l6.1,6.1l10.7-10.7l10.9,10.9l-10.7,10.7l7.7,7.7l-8.2,8.2l-7.7-7.7L484,501.4c-3,3-3.2,5.1,0,8.3
				c0.6,0.6,1.7,1.7,2.6,2.4l-7.5,7.5c-2.9-1.4-5.9-4.4-8.1-6.6c-7.7-7.7-6.1-14.4,0.8-21.3l20.8-20.8l-6.1-6.1L494.7,456.6z"/>
			<path d="M525.6,487.5l10.9,10.9L497,538L486.1,527L525.6,487.5z M541.8,471.3l10.9,10.9L543,492L532.1,481L541.8,471.3z"/>
			<path d="M563.5,564.7c-12,12-27.9,13.6-40.4,1.1c-12.3-12.3-10.7-28.2,1.1-40c12.2-12.2,28.2-13.4,40.7-0.9
				C576.6,536.6,575.9,552.3,563.5,564.7z M535.4,536.8c-7.6,7.6-8.8,15.4-3.6,20.7c5.4,5.4,12.8,3.8,20.4-3.7
				c8.3-8.3,9.1-15.2,3.7-20.7C550.9,528,543.8,528.5,535.4,536.8z"/>
			<path d="M580.8,562.6c3.4-3.4,7-7,9.9-10l10.6,10.6c-0.8,1.2-3.4,4.1-4.6,5.5c3.8-1.1,10.5-1.4,17.4,5.5
				c7.9,7.9,7.7,18.5-2.2,28.4l-25.1,25.1l-10.9-10.9l23.9-23.9c4.4-4.4,6.2-9.1,1.4-14c-4.7-4.7-9.9-4.7-16.9,2.3l-22,22
				l-10.9-10.9L580.8,562.6z"/>
		</g>
	</g>
</g>
<g id="text">
</g>
<g id="guides" display="none">
</g>
<g id="scratch">
</g>
</svg>
