<?xml version="1.0" encoding="utf-8"?>
<!-- Generator: Adobe Illustrator 26.0.2, SVG Export Plug-In . SVG Version: 6.00 Build 0)  -->
<svg version="1.2" baseProfile="tiny" xmlns="http://www.w3.org/2000/svg" xmlns:xlink="http://www.w3.org/1999/xlink" x="0px"
	 y="0px" viewBox="0 0 1000 1000" overflow="visible" xml:space="preserve">
<g id="bg">
</g>
<g id="counters">
	<g id="mkr_x5F_starburst">
		<path fill="none" d="M307.9,373.9c5.6,5.1,10.1,11.5,17.2,15.1c9.8,4.9,18.9,11.1,27.9,17.1c7.4,4.9,16.1,8.8,21.6,16.7
			c1.4,2.1,4.3,4.3,7,1.5c2.3-2.4,2.3-5.4,0.4-8.2c-1.3-2-3.4-3.1-5.3-4.5c-10.4-7.6-20.8-15.4-31.1-23.1c-12.2-9.2-22.4-21-36-28.9
			c-1.3,2.8-0.4,7.5-5.9,5.9c-1.3-0.4-1.4,1.3-1.5,2.3c-0.1,1.2-0.3,2.8,1.3,3.2C305.3,371.4,306.4,372.6,307.9,373.9z"/>
		<path fill="none" d="M282.3,400.4c-1.9,2-2.7,4.6-1.4,7c1.4,2.7,2.5,5.6,6.2,6.7c8.3,2.5,15,8.3,22.6,12.2
			c7.3,3.8,14.8,7.6,22.2,11.2c13.3,6.4,27.3,11.4,40.6,17.8c10,4.7,20.5,8.2,30.2,13.7c4.6,2.6,9.9,3.9,15.1,5.3
			c4.9,1.4,10.8-3,15.3,2.2c0.3,0.3,1.2,0,1.8,0c1.5-0.5,3.7,0.4,4.4-1.8c0.5-1.6-0.4-3.2-1.8-3.8c-6.2-2.6-11.5-8.1-17.1-9.6
			c-8.3-2.1-14-8.5-22.5-10.2c-7.8-1.6-14.8-7.3-22.6-10.7c-9.2-4.1-18.5-8.2-27.7-12.3c-5.6-2.5-11.2-5.3-16.8-7.9
			c-9.3-4.3-18.5-8.9-28-12.8c-5.2-2.1-10.1-5.3-16-5.5C285.3,401.8,284.7,397.9,282.3,400.4z"/>
		<path fill="none" d="M345.5,665.7c-1.4-0.8-2,1.1-3,1.6c-2.6,1.3-3.7,5.8-7.3,4.5c-1.7-0.6-1.4-1.7-2.4,0.7
			c-2.6,6.2-1.8,14.5-10.5,17.4c-2.7,0.9-2.3,5.2-3.1,8c-0.5,1.6,0.2,3,3,2.1c4.9,1.2,5.9-3.1,7.4-6.6c2.2-5.1,5-10.1,9.1-13.6
			c3.4-2.9,5-6.6,7.2-10.1C346.7,668.5,347.2,666.7,345.5,665.7z"/>
		<path fill="none" d="M278.5,468c3.1,0.5,6.3,0.9,9.4,1.5c11.3,2.2,22.6,4,33.9,5.7c10.4,1.5,20.6,3.5,31.2,4.4
			c5.4,0.4,10.9-1.3,16.5,0.7c3.1,1.1,6.7-5.4,4.3-7.6c-2.2-2.1-4.5-5.2-8.1-5.1c-8.3,0.1-16.6-0.5-24.9-0.1
			c-7.7,0.3-14.9-1.8-22.3-2.4c-7-0.6-14-1.7-20.8-3.5c-5.3-1.4-11.3,0.5-16-3.4c-0.8-0.7-0.9-0.1-1.4,0.2c-4.1,2.6-8.1,2.8-12-0.5
			C269.5,465.8,271.3,466.8,278.5,468z"/>
		<path fill="none" d="M350.1,290c1.4,1.2,2.7,3,3.1,4.7c2.3,10.8,10.9,17.8,16.2,26.8c8.7,14.9,19.6,28.5,28.9,43.1
			c4,6.2,9.6,10.8,13.7,16.7c2.1,3.1,7.7,2.1,9.4-1.3c1.1-2.2,1.8-4.6,2.7-7c-3,2-4.8,4.8-6.9-0.9c-2.3-6.1-5.6-12.1-9.3-17.1
			c-6.9-9.6-13.2-19.6-19.7-29.4c-9.5-14.5-19-28.9-30-42.4c-2.2-2.7-6.4-4-8.4-2.5C347.2,282.8,346.4,286.8,350.1,290z"/>
		<path fill="none" d="M370.9,581.9c7.8-5.5,15.7-10.5,23.8-15.3c6.7-4,13.1-9,17.4-15.2c2.7-3.9,4.9-6.9,9.2-8.4
			c3.6-1.2,6.7-3,9.8-5.5c5.3-4.3,11.6-8,17.5-10.5c4.7-1.9,6.6-4.2,8.5-7.8c0.9-1.7,1.3-3.9-0.5-5.3c-1.7-1.3-3.8-2.1-5.9-0.9
			c-3.7,2.1-7.1,4.6-10.9,6.5c-8.2,4-12.3,12.5-20.3,17.2c-9.3,5.5-20,8.7-28.1,16c-2.5,2.2-4.4-1.3-4.4-0.2c0.1,6.1-5.4,4.9-8.3,7
			c-13.9,9.8-28.4,18.8-42.3,28.4c-11.2,7.7-23.5,13.5-34.5,21.4c-10.1,7.3-23.2,10.3-31,21c-1,1.4-4.3,2.6-2.6,4.1
			c2,1.8,7.5,3.3,7.9,2.7c2.2-3.5,4-4.6,7.3-1.2c2.2-2,3.5-4.8,6.4-5.9c5.8-2.3,12.2-4.3,16.8-7.7c9.5-7,21-9.7,30.7-16.4
			C348.6,598,359.7,589.8,370.9,581.9z"/>
		<path fill="none" d="M304.1,569.4c6.9-2.8,14.5-4.2,20.7-8.7c0.9-0.6,2-1.3,2.8-0.5c3.1,2.9,4.9,0,7-1.4c0.8-0.5,0.8-1.8,2.3-1.7
			c5.2,0.3,10.9-4.7,11.2-9.6c0.1-1.2,0.3-2.7-1-3.4c-1.5-0.8-2.9-0.6-3.8,1c-1.6,2.9-3.9,2.3-6.6,1.8c-2.3-0.4-4.6-0.1-7,0.3
			c-8.1,1.4-15.1,6.6-23.7,6.4c-2.4-0.1-5.6,1.7-6.1,5.2c-5.6-1.8-3.5,2.7-4.1,4.9C295.6,569.6,298.5,571.7,304.1,569.4z"/>
		<path fill="none" d="M312.8,519.5c21-0.2,41.9-3,62.9-3.1c3.7,0,5.5,0.5,7.5,4.4c0.8-4.6,2.4-6.4,6.2-4.7c1.2,0.5,3,0.3,4.4,0.1
			c17.1-2.5,34.3-3.9,51.6-5c3.7-0.2,7.7-0.7,9.9-4.4c3.6-6.2-0.3-11.9-8.9-12c-9.6-0.1-19.2,1.9-28.8,2.7
			c-17.5,1.5-34.9,4.1-52.4,4.7c-7.5,0.2-15.3-0.6-22.6,0.4c-12.8,1.8-25.6,1.5-38.4,2c-9.5,0.4-18.9,0.4-28.4,1.7
			c-12.6,1.8-25.4,1.5-38.1,2c-4.4,0.2-9.6,1.2-10.3,6.1c-0.7,4.6,3.7,5.9,8.1,7c13.1,3.2,26.3,1.5,39.2,0.4
			C287.4,520.7,300.2,519.6,312.8,519.5z"/>
		<path fill="none" d="M301.4,320.9c5,4.8,10.4,9.6,15.8,14c6.1,5,10.3,11.6,16.1,16.6c12.1,10.2,24.1,20.5,34.7,32.1
			c12.1,13.2,24.6,26.1,36.1,40c3.1,3.8,6.5,8,11,11c9.5,6.1,15.9,15.9,25.2,22.4c6.6,4.6,12,10.9,19.7,13.8
			c6.5,2.5,11.7-0.8,11.6-8.2c-1.4-3.6-1.3-8-6.4-10.8c-6.6-3.7-12.2-9.2-18.5-13.5c-10.3-7.1-18-17.2-28-24.9
			c-7.3-5.6-14.3-13-19.7-20.9c-5.4-7.9-13-13.6-19.2-20.6c-10.9-12.4-23.4-23.5-35.8-34.5c-3.5-3.1-5.3-8.4-8.9-10
			c-7.4-3.2-12.3-9.4-17.7-14.3c-11.7-10.7-23.5-21.3-35.2-32c-2.4-2.2-5-0.6-5.7,2.6c-0.5,2.5-0.4,5,0.7,7.5
			C282.8,302.9,292.2,312,301.4,320.9z"/>
		<path fill="none" d="M527.2,369.7c2.2,0.4,2.8-2.2,3.3-3.9c1.7-6.7,4.7-13.5,4.5-20.2c-0.3-10.3,2.5-20,4.1-29.8
			c2.5-15.7,1.3-31.5,4.6-46.6c0.1-3.2-0.8-5.8-2.2-8.2c-0.8-1.3-2.3-3.3-3.2-1.8c-1.7,2.6-7.7,1-6.2,4.6c2.3,5.4-0.4,9.8-0.8,14.6
			c-1.6,16.4-3.3,32.7-4.9,49.1c-1.2,12.4-3.3,24.9-1.3,37.4C525.4,366.6,525.1,369.3,527.2,369.7z"/>
		<path fill="none" d="M620.7,406.8c-2.9,1.5-5.4,3.4-5.3,6.3c-0.2,5.2,3.6,10,6.8,8.6c4.6-2,10.6-2.3,12.7-8.2
			c0.9-2.5,3.4-3.5,5.3-4.1c6-1.7,10.9-5.3,16.1-8.5c9-5.6,17.9-11.5,25.6-18.9c1.5-1.4,2-3,1-4.4c-0.8-1.1-2.6-1.6-3.9-2.3
			c-2.7,5.3-8.5,0.7-13,4.7c-6.6,5.9-16.5,7.7-23.6,14.1C636.1,399.7,628.1,402.9,620.7,406.8z"/>
		<path fill="none" d="M582.9,355.5c-0.4,2.5-0.8,2.5-3.5,2.5c-0.5,0-1.4,0.4-1.6,0.8c-1.2,2.8-3.7,4.4-5.1,7.1
			c-3.7,7.6-3.8,16.2-7.6,23.7c-1.2-0.5-0.4-3-2.4-2.7c-1.1,0.2-1.4,1.2-1.2,1.9c1.4,3.7,2.7,7.4,4.6,10.8c1.2,2.2,3.7,0.4,4.2-0.6
			c3.3-7.8,12.5-11.4,14.1-20.3c0.4-2.5,1.3-4.5,2.8-6.7c6.8-10,13.8-19.7,18.1-31.4c4.1-11,7.9-22.7,17.3-31.1
			c3.3-3,1.8-8.6-2.3-10.5c-1.5-0.7-2.6-1.1-2.7-1.5c-5.6,5.2-5.6,14.3-12.5,19.4c-4.6,3.4-5.2,9.2-8.2,13.7
			C591.7,338.6,584.5,345.5,582.9,355.5z"/>
		<path fill="none" d="M524.2,465.2c3.6-0.8,4.6,1.3,5.5,3.7c0.8,2.2,0.8,4.6,1.6,6.8c0.8,2.2,1.4,5,4.7,4.9
			c14.5-0.4,27.4-6.5,40.2-12c3-1.3,4.5,0.8,7.3-0.3c10-3.8,19.8-8.5,30.4-10.9c7.1-1.6,13.9-4.5,20.9-6.7
			c11.2-3.5,21.6-9.3,33.2-11.8c7.4-1.6,14.1-5.7,21.2-7.3c17-3.9,32.7-11.4,49.3-16.2c8.5-2.5,16.7-6,25.6-7.4
			c3.8-0.6,7.3-2.4,9-6.3c1.4-3.2,0-6.5-3-6.1c-5.2,0.7-10.5-1.1-15.8,2.2c-5,3.2-11.6,4.4-17.2,5.4c-7.1,1.2-14.1,3.2-20.8,5.2
			c-11.2,3.3-22.1,8.2-33.5,10.5c-12.5,2.5-22.8,11.5-36.1,10.8c-3.2,5.4-9.4,4.5-14.1,6.5c-7,3-14,6.3-21.4,7.8
			c-19.1,3.8-37,11-55.5,16.6c-0.9,0.3-1.6,1.6-2.7,0.7c-1.1-0.9-1.3-2.9-0.5-3.4c4.3-3.2,5.1-9.6,9.6-11.8c4.9-2.4,8.7-6.7,11.4-10
			c9-11.2,21.2-18.5,31.2-28.4c6.3-6.3,12-13.1,19.6-18.5c6.6-4.7,9.6-14.4,17.7-19.2c2.1-1.2,2.2-5.8,0.4-8.2
			c-1.8-2.5-3.1,0.6-4.4,1.7c-2.5,2-3.6,0-5.3-2.3c-2,8.5-2.1,8.3-9.3,12.4c-3.2,1.8-6.6,3.4-8.4,7.3c-1.1,2.5-3.6,4.9-6.1,6
			c-6.2,2.8-9.3,9.2-15,12.5c-5,2.9-7.9,8.7-12.5,11c-9.5,4.7-13.7,14.2-21.3,20.4c-4,3.2-6,8.4-11.2,10.7c-2.4,1-5.4,2.5-6.8,5.4
			c-1.8,3.7-5.8,7-8.7,5.3c-3.1-1.8-0.2-6.6,0.6-10c0.1-0.6,0.7-1,1-1.6c2.7-6.1,5.8-12.1,7-18.8c2.6-15,9.6-28.7,13.9-43.2
			c1.8-6,5.9-11.6,7.6-17.4c3.6-12.3,9.7-24.2,9.1-37.6c0-0.9,0.9-1.9,1.3-2.9c3.4-8,9.5-14.9,10.1-24.2c0-0.6,0.6-1.1,0.8-1.7
			c4-10.1,10.8-18.8,14.1-29.2c1.2-3.8,1.1-7.1-1.5-10c-1.2-1.3-2.2-3.4-4.7-2.2c-3.5,1.7-4.9,4.4-6.1,8.2
			c-2.1,6.5-3.5,13.6-8.1,18.9c-1.6,1.9-2.5,3.6-3.1,5.8c-3.2,10.4-4.8,21.2-9,31.5c-2,4.8-5.1,9.3-6.1,14.8
			c-1.7,9.5-4.6,18.8-7.7,28c-3.9,11.5-8.5,22.8-12.7,34.2c-5,13.6-9.3,27.5-16.1,40.4c-3.8,7.3-7.3,14.7-7.2,23.1
			C516.7,463.1,519.1,466.3,524.2,465.2z"/>
		<path fill="none" d="M448,265.4c0.2,0.1,0.3,1,0.1,1.1c-4.9,4.3-0.5,8.7-0.1,12.9c1.3,12.3,3.4,24.4,6.2,36.5
			c1,4.5,4.5,8,4.5,12.2c0,16.8,9.6,30.4,14.8,45.4c0.6,1.7,1.7,3,3.7,2.8c2.1-0.2,3.6-1.6,4.2-3.4c0.6-1.8,0.3-3.7,0.5-5.9
			c-0.3-2.7-0.5-5.7-1-8.6c-1.8-10.1-7.4-18.9-9.4-29.2c-2.1-10.9-4.8-21.7-8.1-32.4c-3.8-12.1-5.3-24.9-7.9-37.4
			c-0.6-2.7-1.3-5.5-2.8-7.7c-1.5-2.3-4-3.9-5.2,0.5C446.1,256.6,440.3,261.3,448,265.4z"/>
		<path fill="none" d="M383,254.2c1.8,0.7,2.1,1.9,1.4,2.7c-4.9,5.6,2.7,8.2,2.9,12.6c0.1,1.4,2.1,1.4,3.2,0.7
			c4-2.3,3.4,0.6,2.6,2.5c-1,2.2-0.1,4.1,0,6.1c0.5,8,6.2,14.2,7.6,21.9c1.6,8.9,7.4,16.2,10.7,24.5c2.9,7.2,7.8,14.2,10.1,21
			c5.2,14.9,17,26.1,20.8,41.2c1.8,6.8,8.1,10.2,10.2,16.4c5.3,16.5,14.7,31.2,20.4,47.5c0.6,1.9,1.2,3.7,4.2,3.9
			c6.3,0.3,8.1-1.3,8.2-9.6c0.2-1.7-0.7-4-1.5-6.5c-4-12.2-11.8-22.6-16.1-34.7c-2.1-5.8-4.8-11.6-8.2-16.8
			c-6.1-9-10.9-18.6-16.2-28c-3.3-5.8-4.1-12.7-8.2-18.2c-5-6.6-5.4-15.8-12.3-21.3c-0.7-0.6-0.5-2.4-0.7-3.7c-0.2-1.5-0.7-3-2-3.8
			c-5-3.3-6.2-8.9-8.3-13.8c-2.1-5.1-2.7-11.1-5.9-15.3c-4.7-6.2-5.5-14-9.7-20.1c-3.4-4.9-3.5-11.4-8.6-15.6
			c-2.4-1.9-4.3-1.4-5.3,0.1C381.3,249.8,379.3,252.8,383,254.2z"/>
		<path fill="none" d="M703.8,458.7c-3.7-1.1-10.7,2.1-12.1,6.2c-2-5-5.5-5.2-9.7-4c-4.4,1.2-9.1,1.3-13.6,1.9
			c-9.6,1.2-19,3.9-28.6,5.2c-9.6,1.3-19.3,2.5-29,4.2c-3.5,0.6-5.6,0.3-5.6,4.2c0,3.5-0.9,7,4.8,7.6c4.6,0.5,8.6,1.3,13.6,0.7
			c18-2.2,35.3-7.5,53.2-9.9c9.1-1.2,17.6-6.2,26.4-9.4c1.9-0.7,2.7-1.9,2.4-3.9C705.6,460.2,705.4,459.2,703.8,458.7z"/>
		<path fill="none" d="M244.1,462.4c6.2-0.8,11.8,2.7,17.9,2.2c1.6-0.1,3.8,3.5,4.9-0.3c0.6-2.4-0.2-5.4-2.9-6.3
			c-5.6-1.8-11.4-3-17.9-4.6c-2,0.5-5.5,0.5-5.7,4.2C240.3,459.4,241.1,462.8,244.1,462.4z"/>
		<path fill="none" d="M599.8,621.1c-2.7-6.1-8.3-9.9-11.8-15.3c-2.4-3.8-5.6-7-10.1-6.4c-2.9,0.4-2.5,8.9,0.5,13.9
			c0.2,0.4,0.5,0.7,0.8,1c5.1,4.7,10.1,9.5,15.2,14.2c0.6,0.6,1.5,0.8,2.2,1.2c3.3,1.6,4.7,0.3,4.6-3.3
			C601.4,624.5,600.6,622.9,599.8,621.1z"/>
		<path fill="none" d="M766.6,517.2c-8.2-0.8-16.4-2.9-24.6-3.9c-9.5-1.2-19.1-1.5-28.6-3c-5.9-1-11.9-1.2-17.8-2.9
			c-2.7-0.8-5.8-1.7-8.6-1.5c-16.8,1.4-33.2-2.9-49.9-2.9c-9.3,0-18.4-3.4-27.8-3.2c-7.9,0.2-15.7-2.2-23.5-3.1
			c-16.2-1.9-32.6-2.3-48.9-3.4c-2.9-0.2-3.4,2.1-4.4,3.8c-1.1,2-1.3,5.1,0.6,5.8c4.3,1.6,7.5,5.4,12.6,5.4c5.6,0,11.1,1.3,16.6,2.6
			c7.3,1.7,14.7,2.7,22.4,2.6c9.1-0.1,18.3,1.9,27.5,2.6c9.4,0.7,18.9,1,28.4,1.6c14.2,0.8,28.2,2.8,42.5,3.2
			c3.6,0.1,10.9-1.4,10,7.9c0.7-6.2,4.3-5.9,8.1-5.4c3.7,0.5,8,0.1,11,1.1c3.7,1.3,7.9-1.1,10.8,2c1.7,1.9,2.4,10.1,4.7,0.2
			c0.5-2.2,2.9-1.6,4.9-1.4c12.7,1.4,25.7,0.3,38.3,2.3c5.2,0.9,5.1-2.5,4.7-5.7C774.7,516.2,770.5,517.6,766.6,517.2z"/>
		<path fill="none" d="M726.4,581.1c-5.6-3.7-11.6-6-18.1-7.9c-9.5-2.7-18.3-7.7-27.9-10.4c-2.4-0.7-4.8-1.1-7.2-1.8
			c-10.3-3.1-20.1-7.8-30.1-11.6c-7.5-2.8-15.7-3.5-22.9-7.8c-2.6-1.5-5.5-5-10-3.3c-1.9,0.7-3.7-2.9-6.5-3.3
			c-2.4-0.4-4.8-1.4-6.1,1.2c-1.3,2.7,1.1,4.1,2.9,5.6c9.5,7.6,21.8,8.7,32.3,14.1c9.7,5,21.3,6.7,31.9,9.8c7,2,12.4,7.2,20.3,7.5
			c6.8,0.3,11.9,7.2,19.5,7.6c5.5,0.3,10.7,2.8,15.3,5.2c2.4-0.5,4.3-0.8,6.1-1.3c1.2-0.3,3.3,1.7,3.5-1
			C729.5,582,727.6,581.9,726.4,581.1z"/>
		<path fill="none" d="M711,682.8c-6.8-9.3-15.3-17.5-23.1-26.1c-9.4-10.4-21.5-17.9-30.8-28.5c-2.2-2.5-5.9-2.5-8-5.5
			c-6.1-8.6-14.1-15.3-22.5-21.5c-2.8-2.1-5.9-4-8.6-6.3c-6.1-5.4-11.9-11.3-18.5-16c-9.6-6.8-16.8-16.4-26.8-22.7
			c-0.9-0.5-1.5-1.5-2.2-2.3c-5.3-5.8-10.5-11.8-15.9-17.5c-4.7-4.9-10.4-8.6-15.5-13.2c-2.5-2.2-6-5.1-9.8-4.7
			c-2.9,0.3-5.4,9.8-3.9,12.8c4,7.9,11.2,12.8,17.5,18.6c6,5.5,13.2,9.7,18,16.4c2.7,3.8,5.7,7.2,9.3,10.4
			c13,11.6,27.5,21.4,39,34.7c0.4,0.5,1,0.8,1.5,1.1c12.2,8.1,24,16.8,33.7,27.8c7.4,8.3,18.4,12.3,24.4,21.9
			c0.4,0.7,1.3,1.2,2.1,1.4c7,2.4,9.6,7.7,9.1,15.2c3.4-5.5,3.5-5.6,8.2-1.1c5.3,5.2,12.1,8.9,15.9,15.7c0.5,0.8,1.2,1,2.1,0.5
			c3.4-1.7,6.3-0.7,7.4,3.2c0.7,2.7,2.7,4.4,4.3,6.1c1.8,2,5,1.2,7.5,1.1c0.6,0,0.6-2.3-0.4-3.4C720,695.2,715.5,689,711,682.8z"/>
		<path fill="none" d="M584.2,535.7c1.3-0.1,2.9,1.6,3.8-0.2c0.9-1.7,1.1-4.1-0.6-5.3c-6.1-4.3-12.1-9-19.4-9.6
			c-2.2,0.3-4.2-0.6-4.9,1.7c-0.6,2,0.2,3.6,1.8,5C570.7,531.7,576.2,536.3,584.2,535.7z"/>
		<path fill="none" d="M396.7,612c3.8-5.5,7.6-11.9,12.1-16.1c8.6-8,12.8-19.1,21.1-27.1c2.4-2.3,1.9-5.9,0.5-9.8
			c-1.6,3.2-4.7,1.3-6.9,3.2c-10,8.9-15.9,21-23.7,31.6c-4.2,5.7-4.7,13.9-12.7,17c-2.3,0.9-1.2,5.8-4.1,6.8
			c-9.7,3.4-8.9,17-19.3,19.6c-0.2,0.1-0.4,0.7-0.5,1.1c-1.4,5.1-4.3,9.2-7.6,13.3c-3.1,3.8-4,1.8-5.6-1c0.3,2.9-0.8,5.5-1.5,8.1
			c-0.4,1.4-1.5,3.1,0,4.1c1.5,1,3.6,0,4.6-1.1c3.6-3.8,7.5-7.3,10.9-11.3c5.9-6.9,11.1-14.4,18.1-20.4
			C388.1,625,392.5,618.1,396.7,612z"/>
		<path fill="none" d="M794.1,526.4c-3.5,0.9-2.9,4.7-5.3,5.6c-1.8,0.7-3.3,1.4-2.4,3.5c0.3,0.8,1.5,1.8,2.3,1.8
			c1.6,0,3.3-0.2,4.3-2C794.7,532.5,794.6,529.6,794.1,526.4z"/>
		<path fill="none" d="M627.6,575.7c4,3.2,7.1,7.1,12.9,8.3c3.2,0.7,10-0.3,9.8,6.9c0,0.9,2,1.6,3.3,1c1.4-0.6,2.5-0.4,3.1,1
			c2.2,5.2,5,2.9,7.9,0.3c2.4,1.3,0.8,5.6,4.7,4.6c1.6-0.4,2.8-1.2,2.7-3c-0.1-2.4-0.7-5.1-3.2-5.7c-7-1.6-11.6-7.4-18.9-9.4
			c-6.3-1.7-12.4-6.2-19.2-8.1c-1.4-0.4-2.3-2.6-3.7-0.1C626.1,573.1,625.6,574.1,627.6,575.7z"/>
		<path fill="none" d="M467.3,563.5c5.7-9.2,7.7-19.5,10.2-29.7c0.9-3.5-0.3-6.6-2.5-9.4c-0.8-1-1.4-2.5-2.9-1
			c-3.9,3.9-9.6,6.4-9.8,13.2c-0.1,2-0.4,4.1-1.4,6.1c-10.8,21.8-17.3,45.5-28.2,67.2c-4.6,9.2-4.3,19.5-10.3,28.5
			c-6.1,9.2-8,21.1-13,31.4c-4.5,9.1-7.5,19-13,27.7c-1.7,2.7-2.7,5.5-3.8,8.5c-4.5,12-7.9,24.3-9.3,37.5c2.7-0.4,2.9-0.2,7.5-6.4
			c3.7-5,7-10.1,9.1-16.2c3.3-9.7,7.7-19,11.9-28.5c5.9-13.4,12.5-26.5,17.8-40.1c5.2-13.4,12.4-25.8,16.3-39.8
			c2.9-10.4,10.9-18.7,13.7-29.5C461.4,576.2,463.7,569.3,467.3,563.5z"/>
		<path fill="none" d="M502.5,461.1c1.1-0.2,1.8-1,2.2-2c2.1-4.6,4.4-9.1,4.6-14.3c0.3-8.2,1-16.4,1.9-24.5
			c1.5-13.1,0.2-26.2,0.1-39.3c-0.2-28.2-0.8-56.3,0.2-84.5c0.5-13.3-3-26.5-1.7-39.3c-0.4-10.5,0.5-20.5-3.8-30
			c-1.3-2.9-2-5.4-5.9-5c-4.2,0.4-4.3,3.8-4.4,6.6c-0.5,8-0.9,16.1-0.7,24.1c0.3,12,1.5,24.1,1.5,36.1c0.2,29.2-0.6,58.4,0.4,87.6
			c0.1,4,2.1,7.8,1.1,11.9c-2.5,11.3-4.2,22.8-4.9,34.4c-0.5,9.3-1.2,18.6-1.5,27.9C491.4,454.8,498.7,461.6,502.5,461.1z"/>
		<path fill="none" d="M478.9,558.9c-2.5,4.5-3.5,9.5-3.5,14.6c-0.2,21-3.3,41.8-4,62.7c0,1.4-0.7,2.5-1.7,3.2c-2,1.4-2,3.6-2.2,5.7
			c-1,7.7-1.9,15.4-2.9,23c-1,7.5-2.3,15-3.2,22.6c-0.1,1.2-1.7,4.6,2.4,3c1.8-0.7,1.6,1.1,1.5,1.8c-0.6,4.1-0.5,8.2,0.6,12.3
			c-2.9,0.4-2.6-2.8-5.7-3.4c0.4,8.9-7,17.6,1.4,26.3c1.3,1.4,0.7,3.4-1,4.4c-5.1,2.9-3.1,6.2-1.2,9.7c4.2-4.1,7.5-8.3,8.9-13.8
			c2.6-10.2,4.6-20.4,5.8-30.9c1.7-14.9,3.5-29.7,4.8-44.6c1.2-14.9,5.7-29.2,6.8-44.1c0.9-12.2,1.2-24.4,3.7-36.5
			c1.1-5.3,1.7-11.3-2.1-16.5C484.2,554.6,481.4,554.5,478.9,558.9z"/>
		<path fill="none" d="M572.2,641c-9.4-14.9-13.7-32.4-21.8-48.1c-7.6-14.7-12.5-30.6-21.1-44.9c-2-3.3-4.7-3.5-7.4-3.4
			c-3.4,0.1-3.2,3.4-3.5,5.8c-0.5,5.7,2.3,10.6,4.4,15.5c3.3,7.8,8.1,14.9,10.8,23.2c2.6,7.9,8.9,14.2,10.5,22.7
			c0.1,0.4,0.4,0.7,0.7,1c4.9,5.5,7.7,12.4,11,18.9c3,5.9,4.8,12.4,7.3,18.6c0.9,2.3,2.2,5.4,4.6,5.5c3,0.2,2.9,2.1,3.3,3.7
			c1.7,6.6,6.2,11.7,8.6,18c4.6-3.3,8-7.1,4.4-11.9C578.5,658.2,577.2,648.9,572.2,641z"/>
		<path fill="none" d="M496.1,643.6c-2.8,0-2.8,2-3,3.9c-0.2,2.1-0.3,4.2-0.6,7.8c0.1,1.6,0.4,4.8,0.6,7.9c0.3,3.6,4.2,3.6,5.9,5.8
			c0.3,0.3,1.6-1.1,1.9-2.2c1.5-6.9,1.4-13.8-0.4-20.7C500,644,498.1,643.6,496.1,643.6z"/>
		<path fill="none" d="M547.3,729c0.8-8-4.2-15.1-3.4-23c0.5-5-1-9.7-3.1-14.1c-3.6-7.6-4.5-15.8-6-23.8
			c-2.8-14.4-5.9-28.7-8.8-43.1c-0.6-3-3.2-5.1-3.2-8.7c-0.2-14.4-2.4-28.5-6.1-42.5c-2.3-8.9-5.5-17.6-6.5-26.9
			c-0.9-8-8.1-11.7-13-7.5c-3.9,3.4-2.2,7.9-0.8,11.2c3.6,8.5,4,17.6,6.5,26.3c4.2,15.1,5.9,30.9,9.5,46.3
			c4.4,18.5,8,37.1,10.5,55.9c0.4,2.8,0.6,5.7,3.8,6.7c4.6,1.3,4.9,4.2,3.9,8.3c-1.5,6.4-1.7,12.7,3.8,17.9c0.7,0.6,4.3,4.4,1,5.2
			c-4,1-2.3,2.6-1.5,4c1.2,2.1,2.2,4,1.9,6.5c-0.1,1,0.2,2.3,1.4,2.5c1.3,0.2,1.8-0.7,2-1.9c0.1-1,0-2.4,1.6-2
			c1.5,0.3,1.8,1.7,1.7,3c-0.1,1.7-0.6,3.1-1.9,4.5c-2.1,2.3,0.8,3.2,2,4.4c1.5,1.5,3.8,2.6,5.6,1.6c1.8-1,1.6-3.5,0.2-5
			C546.7,732.9,546.7,731,547.3,729z"/>
		<path fill="none" d="M443.2,652.7c-1.7,0.1-3.6,0.6-4.1,2.5c-2.6,10.4-5.1,20.7-7.6,31.1c0.2,0,0.4,0.1,0.5,0.1
			c0,0.6-0.1,1.3-0.1,1.9c-0.1,2.3-0.5,5.1,2.1,6.1c3,1.2,3.8-2,5.1-3.7c4.8-6.1,6-13.5,6.3-20.9c0.1-4.6,2.8-9,1-13.7
			C445.8,654.6,445.4,652.6,443.2,652.7z"/>
		<path d="M779,207c-2.4-0.1-3.5,2.5-6.4,1.4c-9.2-3.7-18.9-0.6-28.2-0.3c-5,0.2-7.1-0.4-9.1-5.6c-1,3.6-1.7,7.8-4.7,6.6
			c-4.6-1.8-9,0.7-13.3-0.6c-6.2-1.9-12.6-1.2-18.9-2c-10.9-1.4-21.7,2.6-33.2,0c-11-2.6-23.1-1-34.7-1.1c-2.3,0-5.3,1.5-6.7,0.4
			c-6.3-4.6-7.2,0-8.9,5.7c-1.2-6.1-5.2-5.7-8.5-5.7c-6.5-0.2-13.2,2.2-19.3,1.4c-10.3-1.3-20.5,0.8-30.8-0.6
			c-9.2-1.2-18.8,1.3-28.2,1.2c-17.7-0.3-35.3,1.1-52.9,0.6c-10.3-0.3-20.4,1.2-30.7,0.7c-3-0.1-7.1,2.7-7.8,2
			c-3.9-4.2-8.1-1.8-12.4-1.9c-3.4-0.1-7,1.3-9.7,0.6c-6.5-1.8-12.7-0.9-19-1.2c-7.2-0.4-14.1,3.8-21.5,0.5c-3.8-1.7-8.9-1-13.3-1.2
			c-10-0.5-20,2.4-30,1.1c-14.1-1.9-28.2,0.8-42.4-0.5c-18.4-1.8-37,3-55.4-1.5c-2.1-0.5-4.2,0.7-4.6,2.6
			c-1.5,6.1-4.7,12.5-3.5,18.5c1.9,9.6,0.5,18.9,0.6,28.4c0.2,12-0.9,24-0.1,35.9c0.7,11.2,0.6,22.4,0.4,33.6
			c-0.3,20.1-2.7,40.2-1.6,60.2c1.2,20.8,0.1,41.4,0.3,62.1c0.3,25.6-0.9,51.2-0.4,76.7c0.2,10.5,0.6,21.2-0.3,31.6
			c-1.4,17.3,0.8,34.6-0.8,51.8c-0.8,8.8,0.6,17.8-0.5,26.5c-1.3,10.5-0.8,21-1.1,31.5c-0.3,10.8-1.2,21.8-0.6,32.8
			c0.2,4.6,2.1,9.2,1.1,13.8c-2.5,11.3-0.7,22.7-1.3,34.1c-0.5,8.9,1.8,17.7,0.1,26.6c-0.7,4,1,6.7,4.7,9.3
			c6.1,4.4,12.3,1.7,18.3,2.1c8,0.6,16.1,1,24,0.1c6-0.7,13.6,3.1,18.4-6.4c0,5.1,2.3,6,5.4,5.7c16.5-1.7,33,0,49.6-0.8
			c3.6-0.2,7.6-1.9,10.3-1.2c11,2.8,21.9-0.1,32.9,0.6c7.7,0.5,15.6-1.8,23.3-1.4c12.1,0.6,24.2,2.2,36.4,0.6
			c4.1-0.6,9.1-1.6,12.4-0.5c7.1,2.3,13.9,1.4,20.6,0.7c4.3-0.4,8.1-1.1,12.2,0.8c0.8,0.4,2-0.3,3.1-0.4c7.8-1,15.6-0.2,23.5-1.3
			c6.5-0.9,13.7-0.2,20.5-0.1c4.3,0,9.3-1.2,12.6-0.3c9.3,2.6,18.5,0.7,27.6,0.6c7.6-0.1,15.4,0.2,23.1-0.4c6.7-0.6,14.5-4.1,21,1.5
			c0.2,0.1,1.2-0.4,1.5-0.9c1.7-2.9,5.1-2.3,6.8-1.7c4,1.4,7.8,0.7,11.7,0.7c9.9-0.1,19.9,0.1,29.8-0.3c7.1-0.3,14.1,1.1,21.1,1
			c13.6-0.1,27.3-0.5,40.9-1.2c4.4-0.2,8.4,1.5,13,1.1c7-0.6,14.3,0.2,21.5,1.9c8.2,1.9,17,2,25.6,1.2c2.5-0.2,4.8-0.9,7.1-1.8
			V207.8C793,206.6,786,207.3,779,207z M666,380c4.5-4,10.3,0.6,13-4.7c1.3,0.8,3.1,1.2,3.9,2.3c1,1.4,0.5,3-1,4.4
			c-7.7,7.4-16.6,13.3-25.6,18.9c-5.1,3.2-10,6.7-16.1,8.5c-1.9,0.5-4.4,1.5-5.3,4.1c-2.1,5.9-8.1,6.2-12.7,8.2
			c-3.2,1.4-7-3.3-6.8-8.6c-0.1-3,2.4-4.8,5.3-6.3c7.4-3.9,15.4-7.2,21.6-12.7C649.5,387.8,659.4,386,666,380z M605.1,317.1
			c6.9-5.1,6.9-14.2,12.5-19.4c0.1,0.3,1.2,0.8,2.7,1.5c4.2,1.8,5.7,7.5,2.3,10.5c-9.4,8.4-13.1,20.1-17.3,31.1
			c-4.4,11.6-11.3,21.4-18.1,31.4c-1.5,2.2-2.4,4.2-2.8,6.7c-1.6,8.9-10.8,12.5-14.1,20.3c-0.4,1.1-2.9,2.8-4.2,0.6
			c-1.9-3.4-3.2-7.2-4.6-10.8c-0.3-0.7,0-1.7,1.2-1.9c2.1-0.3,1.2,2.2,2.4,2.7c3.8-7.6,3.9-16.2,7.6-23.7c1.3-2.8,3.9-4.4,5.1-7.1
			c0.2-0.4,1-0.8,1.6-0.8c2.7,0,3.1-0.1,3.5-2.5c1.5-10.1,8.7-16.9,14-24.8C600,326.3,600.5,320.5,605.1,317.1z M526.4,327.4
			c1.6-16.4,3.3-32.7,4.9-49.1c0.5-4.8,3.2-9.1,0.8-14.6c-1.6-3.6,4.5-2,6.2-4.6c0.9-1.4,2.4,0.5,3.2,1.8c1.4,2.4,2.3,5,2.2,8.2
			c-3.2,15.1-2.1,31-4.6,46.6c-1.5,9.8-4.4,19.5-4.1,29.8c0.2,6.7-2.8,13.5-4.5,20.2c-0.4,1.7-1.1,4.3-3.3,3.9
			c-2.1-0.4-1.8-3.1-2.1-4.9C523.2,352.3,525.2,339.8,526.4,327.4z M523.9,435.2c6.8-12.9,11.1-26.8,16.1-40.4
			c4.2-11.4,8.8-22.7,12.7-34.2c3.1-9.2,6-18.5,7.7-28c1-5.5,4.2-10,6.1-14.8c4.2-10.3,5.8-21.1,9-31.5c0.7-2.3,1.5-4,3.1-5.8
			c4.7-5.3,6-12.4,8.1-18.9c1.2-3.8,2.6-6.5,6.1-8.2c2.4-1.2,3.5,0.9,4.7,2.2c2.6,3,2.7,6.2,1.5,10c-3.3,10.4-10.1,19.1-14.1,29.2
			c-0.2,0.6-0.8,1.1-0.8,1.7c-0.6,9.2-6.7,16.1-10.1,24.2c-0.4,1-1.3,1.9-1.3,2.9c0.5,13.4-5.5,25.3-9.1,37.6
			c-1.7,5.8-5.8,11.4-7.6,17.4c-4.2,14.6-11.3,28.2-13.9,43.2c-1.2,6.8-4.3,12.7-7,18.8c-0.3,0.6-0.9,1-1,1.6
			c-0.8,3.4-3.7,8.2-0.6,10c2.9,1.7,6.9-1.7,8.7-5.3c1.4-2.9,4.4-4.4,6.8-5.4c5.3-2.3,7.3-7.4,11.2-10.7
			c7.6-6.2,11.8-15.7,21.3-20.4c4.6-2.3,7.5-8.2,12.5-11c5.7-3.3,8.7-9.7,15-12.5c2.5-1.1,4.9-3.6,6.1-6c1.8-3.9,5.3-5.5,8.4-7.3
			c7.2-4.1,7.3-3.9,9.3-12.4c1.6,2.3,2.8,4.3,5.3,2.3c1.3-1,2.6-4.1,4.4-1.7c1.7,2.4,1.6,7-0.4,8.2c-8,4.8-11,14.4-17.7,19.2
			c-7.6,5.4-13.3,12.2-19.6,18.5c-10,9.9-22.2,17.2-31.2,28.4c-2.7,3.4-6.6,7.6-11.4,10c-4.5,2.3-5.3,8.6-9.6,11.8
			c-0.8,0.6-0.7,2.5,0.5,3.4c1.1,0.9,1.8-0.5,2.7-0.7c18.5-5.6,36.5-12.8,55.5-16.6c7.4-1.5,14.5-4.7,21.4-7.8
			c4.7-2.1,10.9-1.1,14.1-6.5c13.3,0.7,23.6-8.3,36.1-10.8c11.4-2.2,22.3-7.1,33.5-10.5c6.7-2,13.7-4,20.8-5.2
			c5.6-0.9,12.2-2.2,17.2-5.4c5.2-3.3,10.6-1.5,15.8-2.2c3-0.4,4.4,3,3,6.1c-1.7,3.9-5.1,5.7-9,6.3c-8.9,1.4-17.1,4.9-25.6,7.4
			c-16.6,4.8-32.3,12.3-49.3,16.2c-7.1,1.6-13.8,5.7-21.2,7.3c-11.6,2.5-22,8.3-33.2,11.8c-7,2.2-13.8,5.1-20.9,6.7
			c-10.6,2.4-20.3,7.1-30.4,10.9c-2.8,1.1-4.3-1-7.3,0.3c-12.9,5.5-25.8,11.7-40.2,12c-3.2,0.1-3.9-2.7-4.7-4.9
			c-0.8-2.2-0.8-4.6-1.6-6.8c-0.9-2.4-1.9-4.5-5.5-3.7c-5.1,1.1-7.5-2-7.5-6.8C516.5,449.9,520,442.5,523.9,435.2z M703.3,465.3
			c-8.8,3.2-17.4,8.2-26.4,9.4c-17.9,2.4-35.3,7.8-53.2,9.9c-5,0.6-9-0.2-13.6-0.7c-5.8-0.6-4.9-4.1-4.8-7.6c0-3.9,2.2-3.6,5.6-4.2
			c9.6-1.7,19.3-2.9,29-4.2c9.6-1.3,18.9-4,28.6-5.2c4.5-0.6,9.2-0.6,13.6-1.9c4.2-1.2,7.7-1,9.7,4c1.4-4.1,8.3-7.2,12.1-6.2
			c1.6,0.5,1.8,1.5,2,2.8C706,463.4,705.2,464.7,703.3,465.3z M447.4,252.2c1.3-4.4,3.7-2.8,5.2-0.5c1.4,2.2,2.2,5,2.8,7.7
			c2.6,12.5,4.2,25.3,7.9,37.4c3.3,10.7,6.1,21.5,8.1,32.4c1.9,10.2,7.6,19,9.4,29.2c0.5,2.9,0.7,5.9,1,8.6
			c-0.1,2.1,0.1,4.1-0.5,5.9c-0.6,1.8-2.1,3.2-4.2,3.4c-2,0.2-3.1-1.1-3.7-2.8c-5.3-15-14.8-28.5-14.8-45.4c0-4.2-3.5-7.7-4.5-12.2
			c-2.7-12.1-4.9-24.2-6.2-36.5c-0.4-4.2-4.9-8.7,0.1-12.9c0.2-0.2,0.1-1-0.1-1.1C440.3,261.3,446.1,256.6,447.4,252.2z
			 M382.4,248.2c1-1.6,3-2.1,5.3-0.1c5,4.1,5.2,10.6,8.6,15.6c4.2,6.1,4.9,13.9,9.7,20.1c3.2,4.2,3.8,10.2,5.9,15.3
			c2.1,5,3.3,10.5,8.3,13.8c1.3,0.9,1.8,2.3,2,3.8c0.2,1.3,0,3.1,0.7,3.7c6.9,5.6,7.3,14.8,12.3,21.3c4.1,5.4,4.9,12.3,8.2,18.2
			c5.3,9.4,10.1,19,16.2,28c3.5,5.1,6.2,10.9,8.2,16.8c4.3,12.1,12,22.5,16.1,34.7c0.8,2.5,1.7,4.8,1.5,6.5c-0.1,8.4-1.9,10-8.2,9.6
			c-3-0.2-3.5-2-4.2-3.9c-5.7-16.3-15-31.1-20.4-47.5c-2-6.3-8.4-9.6-10.2-16.4c-3.9-15.1-15.7-26.3-20.8-41.2
			c-2.4-6.8-7.2-13.8-10.1-21c-3.3-8.3-9.1-15.6-10.7-24.5c-1.4-7.7-7.1-13.9-7.6-21.9c-0.1-2.1-1-3.9,0-6.1c0.8-2,1.5-4.8-2.6-2.5
			c-1.1,0.6-3.2,0.6-3.2-0.7c-0.3-4.4-7.8-7-2.9-12.6c0.7-0.8,0.4-2.1-1.4-2.7C379.3,252.8,381.3,249.8,382.4,248.2z M349.9,280.7
			c2-1.5,6.2-0.2,8.4,2.5c10.9,13.5,20.4,27.9,30,42.4c6.5,9.8,12.7,19.9,19.7,29.4c3.7,5.1,7,11.1,9.3,17.1
			c2.2,5.7,3.9,2.9,6.9,0.9c-0.9,2.3-1.7,4.7-2.7,7c-1.7,3.5-7.2,4.5-9.4,1.3c-4.1-6-9.7-10.6-13.7-16.7
			c-9.4-14.5-20.2-28.2-28.9-43.1c-5.3-9-13.8-16-16.2-26.8c-0.4-1.7-1.7-3.5-3.1-4.7C346.4,286.8,347.2,282.8,349.9,280.7z
			 M276.7,283.4c0.7-3.2,3.4-4.7,5.7-2.6c11.7,10.7,23.5,21.3,35.2,32c5.4,5,10.3,11.1,17.7,14.3c3.6,1.5,5.4,6.8,8.9,10
			c12.4,11,24.9,22.1,35.8,34.5c6.2,7.1,13.7,12.7,19.2,20.6c5.4,7.9,12.4,15.3,19.7,20.9c10,7.7,17.6,17.8,28,24.9
			c6.3,4.3,11.9,9.8,18.5,13.5c5.1,2.8,5,7.3,6.4,10.8c0.1,7.5-5,10.7-11.6,8.2c-7.8-3-13.2-9.2-19.7-13.8
			c-9.3-6.6-15.7-16.3-25.2-22.4c-4.5-2.9-7.9-7.2-11-11c-11.4-13.9-24-26.7-36.1-40c-10.6-11.6-22.7-21.9-34.7-32.1
			c-5.9-5-10-11.6-16.1-16.6c-5.5-4.4-10.9-9.2-15.8-14c-9.1-8.9-18.5-18-24-30C276.2,288.4,276.1,285.9,276.7,283.4z M302.8,407.4
			c9.5,3.9,18.7,8.4,28,12.8c5.6,2.6,11.1,5.4,16.8,7.9c9.2,4.1,18.5,8.2,27.7,12.3c7.7,3.4,14.7,9.1,22.6,10.7
			c8.5,1.8,14.2,8.1,22.5,10.2c5.6,1.4,10.9,7,17.1,9.6c1.3,0.6,2.2,2.2,1.8,3.8c-0.6,2.3-2.8,1.3-4.4,1.8c-0.6,0-1.5,0.3-1.8,0
			c-4.5-5.2-10.3-0.8-15.3-2.2c-5.1-1.4-10.5-2.8-15.1-5.3c-9.7-5.4-20.2-8.9-30.2-13.7c-13.3-6.3-27.3-11.3-40.6-17.8
			c-7.4-3.6-14.9-7.4-22.2-11.2c-7.6-3.9-14.3-9.7-22.6-12.2c-3.6-1.1-4.8-4-6.2-6.7c-1.3-2.4-0.5-5,1.4-7c2.4-2.5,2.9,1.4,4.4,1.4
			C292.7,402.1,297.6,405.2,302.8,407.4z M302.1,367.7c0-1,0.2-2.7,1.5-2.3c5.5,1.6,4.6-3.2,5.9-5.9c13.6,7.9,23.8,19.7,36,28.9
			c10.3,7.8,20.7,15.5,31.1,23.1c1.9,1.4,4,2.5,5.3,4.5c1.8,2.8,1.8,5.8-0.4,8.2c-2.7,2.8-5.6,0.6-7-1.5
			c-5.4-7.9-14.2-11.8-21.6-16.7c-9-6-18.1-12.2-27.9-17.1c-7-3.6-11.5-9.9-17.2-15.1c-1.4-1.3-2.6-2.5-4.5-3
			C301.8,370.4,302,368.9,302.1,367.7z M280.4,458.4c0.5-0.3,0.6-0.9,1.4-0.2c4.7,3.9,10.7,2,16,3.4c6.8,1.8,13.8,2.9,20.8,3.5
			c7.4,0.6,14.6,2.7,22.3,2.4c8.2-0.3,16.6,0.2,24.9,0.1c3.6-0.1,5.8,3,8.1,5.1c2.4,2.2-1.3,8.7-4.3,7.6c-5.6-2-11.1-0.3-16.5-0.7
			c-10.5-0.9-20.8-2.9-31.2-4.4c-11.4-1.7-22.7-3.5-33.9-5.7c-3.1-0.6-6.4-1-9.4-1.5c-7.3-1.3-9.1-2.3-10.2-10.1
			C272.3,461.2,276.3,461.1,280.4,458.4z M240.4,457.5c0.2-3.7,3.7-3.7,5.7-4.2c6.5,1.6,12.3,2.8,17.9,4.6c2.7,0.8,3.5,3.9,2.9,6.3
			c-1,3.9-3.2,0.2-4.9,0.3c-6.1,0.6-11.7-2.9-17.9-2.2C241.1,462.8,240.3,459.4,240.4,457.5z M235.5,521.2c-4.4-1.1-8.7-2.4-8.1-7
			c0.7-4.9,5.9-5.9,10.3-6.1c12.7-0.5,25.5-0.2,38.1-2c9.4-1.3,18.9-1.4,28.4-1.7c12.7-0.5,25.6-0.1,38.4-2c7.2-1,15.1-0.2,22.6-0.4
			c17.5-0.5,35-3.2,52.4-4.7c9.6-0.8,19.2-2.8,28.8-2.7c8.6,0.1,12.4,5.7,8.9,12c-2.2,3.8-6.2,4.2-9.9,4.4
			c-17.2,1.2-34.5,2.6-51.6,5c-1.4,0.2-3.2,0.5-4.4-0.1c-3.8-1.6-5.4,0.1-6.2,4.7c-2-3.9-3.8-4.5-7.5-4.4c-21,0.2-41.9,3-62.9,3.1
			c-12.6,0.1-25.4,1.2-38.1,2.2C261.8,522.7,248.6,524.4,235.5,521.2z M299.8,558.7c0.6-3.5,3.7-5.2,6.1-5.2
			c8.6,0.2,15.6-4.9,23.7-6.4c2.5-0.4,4.8-0.8,7-0.3c2.6,0.5,5,1.1,6.6-1.8c0.9-1.6,2.3-1.8,3.8-1c1.3,0.7,1.1,2.2,1,3.4
			c-0.3,5-6,10-11.2,9.6c-1.5-0.1-1.5,1.2-2.3,1.7c-2.1,1.4-3.9,4.3-7,1.4c-0.9-0.8-2-0.1-2.8,0.5c-6.2,4.5-13.7,5.9-20.7,8.7
			c-5.6,2.3-8.5,0.2-8.3-5.8C296.4,561.4,294.3,556.9,299.8,558.7z M306.6,622.2c-4.6,3.4-11,5.4-16.8,7.7c-2.9,1.2-4.1,3.9-6.4,5.9
			c-3.3-3.4-5.1-2.3-7.3,1.2c-0.4,0.6-5.9-0.9-7.9-2.7c-1.7-1.5,1.6-2.7,2.6-4.1c7.8-10.7,20.9-13.7,31-21
			c11-7.9,23.3-13.6,34.5-21.4c14-9.6,28.5-18.6,42.3-28.4c2.9-2.1,8.4-0.9,8.3-7c0-1,2,2.4,4.4,0.2c8.1-7.3,18.8-10.4,28.1-16
			c8-4.7,12.1-13.2,20.3-17.2c3.8-1.9,7.2-4.4,10.9-6.5c2.1-1.2,4.3-0.4,5.9,0.9c1.7,1.4,1.4,3.5,0.5,5.3c-1.9,3.5-3.8,5.9-8.5,7.8
			c-5.9,2.4-12.2,6.1-17.5,10.5c-3,2.5-6.2,4.2-9.8,5.5c-4.3,1.5-6.6,4.6-9.2,8.4c-4.3,6.2-10.8,11.2-17.4,15.2
			c-8.1,4.9-16.1,9.8-23.8,15.3c-11.2,8-22.3,16.2-33.6,24C327.6,612.5,316.1,615.2,306.6,622.2z M345.9,669.7
			c-2.2,3.5-3.8,7.2-7.2,10.1c-4.1,3.5-6.9,8.4-9.1,13.6c-1.5,3.6-2.5,7.9-7.4,6.6c-2.8,0.9-3.4-0.5-3-2.1c0.8-2.8,0.4-7,3.1-8
			c8.7-2.9,7.9-11.2,10.5-17.4c1-2.4,0.7-1.3,2.4-0.7c3.6,1.3,4.7-3.1,7.3-4.5c1-0.5,1.5-2.4,3-1.6
			C347.2,666.7,346.7,668.5,345.9,669.7z M363.9,650.5c-3.4,4-7.3,7.5-10.9,11.3c-1,1.1-3.1,2-4.6,1.1c-1.5-1-0.4-2.7,0-4.1
			c0.7-2.7,1.8-5.2,1.5-8.1c1.6,2.8,2.6,4.9,5.6,1c3.3-4.1,6.3-8.2,7.6-13.3c0.1-0.4,0.3-1.1,0.5-1.1c10.4-2.6,9.6-16.2,19.3-19.6
			c2.9-1,1.8-5.9,4.1-6.8c8.1-3.1,8.5-11.3,12.7-17c7.8-10.6,13.6-22.6,23.7-31.6c2.2-2,5.3,0,6.9-3.2c1.4,3.9,1.9,7.4-0.5,9.8
			c-8.3,8-12.4,19.1-21.1,27.1c-4.6,4.2-8.3,10.6-12.1,16.1c-4.2,6.1-8.6,13-14.6,18.1C375.1,636.1,369.9,643.6,363.9,650.5z
			 M445.3,669.9c-0.2,7.4-1.5,14.8-6.3,20.9c-1.3,1.7-2.1,4.9-5.1,3.7c-2.6-1-2.2-3.8-2.1-6.1c0-0.6,0.1-1.3,0.1-1.9
			c-0.2,0-0.4-0.1-0.5-0.1c2.5-10.4,5-20.8,7.6-31.1c0.5-1.9,2.4-2.4,4.1-2.5c2.2-0.2,2.6,1.9,3.1,3.4
			C448.1,660.8,445.5,665.3,445.3,669.9z M445.9,612.3c-3.8,14-11.1,26.4-16.3,39.8c-5.3,13.6-11.9,26.7-17.8,40.1
			c-4.1,9.4-8.5,18.8-11.9,28.5c-2.1,6.1-5.5,11.2-9.1,16.2c-4.5,6.1-4.8,6-7.5,6.4c1.4-13.2,4.8-25.5,9.3-37.5c1.1-3,2-5.7,3.8-8.5
			c5.5-8.6,8.5-18.5,13-27.7c5.1-10.3,6.9-22.1,13-31.4c6-9,5.7-19.3,10.3-28.5c10.8-21.7,17.4-45.3,28.2-67.2c1-2,1.3-4.1,1.4-6.1
			c0.2-6.8,5.9-9.3,9.8-13.2c1.4-1.4,2,0,2.9,1c2.3,2.8,3.4,5.9,2.5,9.4c-2.5,10.2-4.4,20.4-10.2,29.7c-3.6,5.8-5.9,12.7-7.7,19.4
			C456.8,593.6,448.8,601.9,445.9,612.3z M489.2,575.1c-2.5,12.1-2.8,24.4-3.7,36.5c-1.1,14.9-5.6,29.2-6.8,44.1
			c-1.2,14.9-3.1,29.7-4.8,44.6c-1.2,10.4-3.2,20.7-5.8,30.9c-1.4,5.5-4.8,9.7-8.9,13.8c-1.8-3.5-3.9-6.8,1.2-9.7
			c1.7-0.9,2.3-3,1-4.4c-8.4-8.7-1-17.4-1.4-26.3c3.2,0.5,2.8,3.7,5.7,3.4c-1.1-4.1-1.2-8.2-0.6-12.3c0.1-0.7,0.3-2.5-1.5-1.8
			c-4.1,1.5-2.5-1.9-2.4-3c0.9-7.5,2.2-15,3.2-22.6c1-7.7,1.9-15.4,2.9-23c0.3-2.1,0.3-4.3,2.2-5.7c1.1-0.8,1.7-1.9,1.7-3.2
			c0.8-20.9,3.8-41.7,4-62.7c0-5.1,1-10.1,3.5-14.6c2.4-4.4,5.3-4.3,8.2-0.3C491,563.8,490.3,569.8,489.2,575.1z M491.5,450.6
			c0.3-9.3,1-18.6,1.5-27.9c0.7-11.6,2.4-23,4.9-34.4c0.9-4.2-1-7.9-1.1-11.9c-1-29.2-0.2-58.4-0.4-87.6c-0.1-12-1.3-24.1-1.5-36.1
			c-0.2-8,0.2-16.1,0.7-24.1c0.2-2.8,0.2-6.2,4.4-6.6c3.9-0.4,4.5,2.1,5.9,5c4.3,9.5,3.4,19.5,3.8,30c-1.2,12.8,2.2,26,1.7,39.3
			c-1,28.2-0.5,56.3-0.2,84.5c0.1,13.1,1.4,26.3-0.1,39.3c-0.9,8.2-1.5,16.3-1.9,24.5c-0.2,5.2-2.5,9.7-4.6,14.3
			c-0.5,1-1.1,1.9-2.2,2C498.7,461.6,491.4,454.8,491.5,450.6z M500.9,666.9c-0.2,1.1-1.6,2.5-1.9,2.2c-1.7-2.2-5.6-2.2-5.9-5.8
			c-0.2-3.1-0.5-6.3-0.6-7.9c0.3-3.6,0.4-5.7,0.6-7.8c0.2-1.9,0.2-3.9,3-3.9c2.1,0,3.9,0.3,4.4,2.6
			C502.2,653.1,502.4,660,500.9,666.9z M548.2,739.8c-1.8,1-4-0.2-5.6-1.6c-1.2-1.2-4-2.1-2-4.4c1.3-1.4,1.8-2.8,1.9-4.5
			c0.1-1.3-0.3-2.7-1.7-3c-1.6-0.4-1.5,1.1-1.6,2c-0.2,1.2-0.7,2.1-2,1.9c-1.2-0.2-1.6-1.6-1.4-2.5c0.4-2.5-0.7-4.4-1.9-6.5
			c-0.8-1.4-2.6-3.1,1.5-4c3.3-0.8-0.3-4.6-1-5.2c-5.5-5.2-5.3-11.5-3.8-17.9c1-4.2,0.7-7-3.9-8.3c-3.2-0.9-3.5-3.9-3.8-6.7
			c-2.5-18.8-6.1-37.4-10.5-55.9c-3.6-15.3-5.3-31.1-9.5-46.3c-2.4-8.7-2.8-17.8-6.5-26.3c-1.4-3.2-3-7.8,0.8-11.2
			c4.8-4.2,12.1-0.6,13,7.5c1,9.3,4.2,18,6.5,26.9c3.7,14,5.9,28.1,6.1,42.5c0,3.6,2.6,5.6,3.2,8.7c3,14.4,6,28.7,8.8,43.1
			c1.6,8.1,2.5,16.3,6,23.8c2.1,4.4,3.6,9.1,3.1,14.1c-0.8,8,4.2,15,3.4,23c-0.6,2-0.6,3.9,1.1,5.8
			C549.8,736.3,550,738.8,548.2,739.8z M579.9,677.6c-2.4-6.3-7-11.4-8.6-18c-0.4-1.6-0.3-3.5-3.3-3.7c-2.4-0.2-3.7-3.3-4.6-5.5
			c-2.6-6.2-4.3-12.7-7.3-18.6c-3.3-6.5-6.1-13.3-11-18.9c-0.3-0.3-0.6-0.7-0.7-1c-1.6-8.5-8-14.8-10.5-22.7
			c-2.7-8.3-7.5-15.4-10.8-23.2c-2.1-4.9-4.9-9.8-4.4-15.5c0.2-2.5,0.1-5.7,3.5-5.8c2.7-0.1,5.4,0.1,7.4,3.4
			c8.6,14.3,13.5,30.3,21.1,44.9c8.1,15.7,12.4,33.2,21.8,48.1c5,7.9,6.3,17.2,12,24.7C587.9,670.5,584.4,674.3,579.9,677.6z
			 M596.7,629.6c-0.8-0.4-1.6-0.6-2.2-1.2c-5.1-4.7-10.2-9.5-15.2-14.2c-0.3-0.3-0.6-0.6-0.8-1c-3-5-3.5-13.5-0.5-13.9
			c4.5-0.6,7.7,2.6,10.1,6.4c3.5,5.4,9.1,9.2,11.8,15.3c0.8,1.8,1.6,3.4,1.5,5.2C601.4,629.9,600,631.2,596.7,629.6z M725.2,704.5
			c-2.5,0.1-5.8,0.9-7.5-1.1c-1.6-1.8-3.6-3.5-4.3-6.1c-1.1-3.9-3.9-5-7.4-3.2c-1,0.5-1.7,0.3-2.1-0.5c-3.7-6.8-10.5-10.5-15.9-15.7
			c-4.6-4.5-4.8-4.4-8.2,1.1c0.6-7.5-2-12.8-9.1-15.2c-0.8-0.3-1.6-0.8-2.1-1.4c-6-9.6-17-13.6-24.4-21.9
			c-9.7-10.9-21.5-19.7-33.7-27.8c-0.5-0.3-1.1-0.7-1.5-1.1c-11.5-13.3-26-23.2-39-34.7c-3.6-3.2-6.5-6.6-9.3-10.4
			c-4.8-6.7-12-11-18-16.4c-6.3-5.7-13.5-10.6-17.5-18.6c-1.5-3,1-12.5,3.9-12.8c3.8-0.4,7.4,2.5,9.8,4.7c5,4.6,10.8,8.3,15.5,13.2
			c5.5,5.7,10.6,11.7,15.9,17.5c0.7,0.8,1.3,1.7,2.2,2.3c10,6.3,17.2,15.9,26.8,22.7c6.6,4.7,12.4,10.6,18.5,16
			c2.7,2.4,5.7,4.2,8.6,6.3c8.4,6.2,16.4,13,22.5,21.5c2.1,3,5.8,3,8,5.5c9.3,10.5,21.3,18.1,30.8,28.5c7.8,8.6,16.3,16.7,23.1,26.1
			c4.5,6.2,9,12.4,13.9,18.3C725.8,702.2,725.9,704.4,725.2,704.5z M563.1,522.3c0.7-2.2,2.8-1.4,4.9-1.7c7.3,0.6,13.3,5.3,19.4,9.6
			c1.7,1.2,1.5,3.6,0.6,5.3c-0.9,1.9-2.5,0.2-3.8,0.2c-8,0.5-13.6-4-19.3-8.5C563.2,525.9,562.4,524.3,563.1,522.3z M627,571.5
			c1.5-2.5,2.3-0.3,3.7,0.1c6.8,2,12.9,6.5,19.2,8.1c7.3,1.9,11.9,7.7,18.9,9.4c2.5,0.6,3.1,3.2,3.2,5.7c0.1,1.8-1.1,2.6-2.7,3
			c-3.9,1-2.4-3.3-4.7-4.6c-2.9,2.6-5.7,4.9-7.9-0.3c-0.6-1.4-1.7-1.6-3.1-1c-1.3,0.6-3.3-0.2-3.3-1c0.2-7.2-6.6-6.2-9.8-6.9
			c-5.8-1.2-8.9-5.1-12.9-8.3C625.6,574.1,626.1,573.1,627,571.5z M725.9,584.7c-1.8,0.5-3.7,0.8-6.1,1.3c-4.6-2.4-9.8-4.9-15.3-5.2
			c-7.6-0.4-12.7-7.3-19.5-7.6c-7.8-0.3-13.3-5.5-20.3-7.5c-10.7-3.1-22.2-4.7-31.9-9.8c-10.5-5.4-22.9-6.5-32.3-14.1
			c-1.8-1.5-4.2-2.8-2.9-5.6c1.3-2.7,3.7-1.6,6.1-1.2c2.7,0.5,4.6,4,6.5,3.3c4.5-1.6,7.4,1.8,10,3.3c7.2,4.3,15.4,4.9,22.9,7.8
			c10.1,3.8,19.8,8.4,30.1,11.6c2.4,0.7,4.8,1.2,7.2,1.8c9.6,2.7,18.4,7.7,27.9,10.4c6.5,1.8,12.5,4.2,18.1,7.9c1.2,0.8,3.1,1,3,2.6
			C729.2,586.3,727.1,584.3,725.9,584.7z M770.7,527.6c-12.7-2.1-25.6-0.9-38.3-2.3c-2-0.2-4.4-0.8-4.9,1.4c-2.3,9.8-3,1.6-4.7-0.2
			c-2.9-3.1-7.1-0.7-10.8-2c-2.9-1-7.3-0.6-11-1.1c-3.8-0.5-7.4-0.8-8.1,5.4c0.8-9.4-6.4-7.8-10-7.9c-14.2-0.4-28.3-2.4-42.5-3.2
			c-9.5-0.5-18.9-0.8-28.4-1.6c-9.2-0.7-18.3-2.7-27.5-2.6c-7.7,0.1-15.1-1-22.4-2.6c-5.5-1.3-11-2.6-16.6-2.6
			c-5.1,0-8.3-3.8-12.6-5.4c-1.8-0.7-1.7-3.8-0.6-5.8c1-1.7,1.5-4,4.4-3.8c16.3,1.1,32.7,1.5,48.9,3.4c7.8,0.9,15.5,3.3,23.5,3.1
			c9.5-0.2,18.5,3.2,27.8,3.2c16.7,0,33.1,4.3,49.9,2.9c2.8-0.2,5.9,0.7,8.6,1.5c5.9,1.7,11.9,2,17.8,2.9c9.4,1.5,19.1,1.8,28.6,3
			c8.2,1.1,16.4,3.1,24.6,3.9c3.9,0.4,8.2-1,8.8,4.7C775.8,525.1,775.9,528.5,770.7,527.6z M788.8,537.2c-0.8,0-2-0.9-2.3-1.8
			c-0.9-2.1,0.6-2.8,2.4-3.5c2.4-1,1.8-4.7,5.3-5.6c0.5,3.3,0.5,6.1-1,8.8C792.1,537,790.4,537.2,788.8,537.2z"/>
	</g>
</g>
<g id="text">
</g>
<g id="scratch">
	<path d="M775,225v550H225V225H775 M800,200H200v600h600V200L800,200z"/>
</g>
<g id="guides" display="none">
</g>
</svg>
