<?xml version="1.0" encoding="utf-8"?>
<!-- Generator: Adobe Illustrator 26.0.2, SVG Export Plug-In . SVG Version: 6.00 Build 0)  -->
<svg version="1.2" baseProfile="tiny" xmlns="http://www.w3.org/2000/svg" xmlns:xlink="http://www.w3.org/1999/xlink" x="0px"
	 y="0px" viewBox="0 0 1000 1000" overflow="visible" xml:space="preserve">
<g id="bg">
</g>
<g id="counters">
	<g id="mkr_x5F_bunker_x5F_1-3-5">
		
			<rect id="_x35__x2F_8_x22__1000x1000_00000076570321303300929630000003279825409455364268_" x="-1" y="0" fill="none" width="1000" height="1000"/>
		<polyline fill="#A67C52" points="-1,402 199,400 295.9,496.3 392.4,537.2 617.8,540.5 691,513 717.8,476.5 799,400 999,402 
			1000,999 -1,1000 		"/>
		<g>
			<path d="M724.1,498.2c-1.6-1.7-1.9-5.9-4.8-4.6c-3.3,1.4-6.6,4.2-7,8.4c-0.3,3,0.2,5.6,3.5,7.4c3.1,1.6,6.6,0.4,9.8,1.6
				c-6.1,9.2-15.8,13.9-22.8,21.4c-0.6,0.7-1.8,1.1-1.9,1.8c-1.8,10-10.7,10.6-17.8,13.8c-5.9,2.7-11.6,6-14.5,12.9
				c-2.6-2.2-1.3-4.2-0.1-6.3c1.7-3.2,1.1-4.9-2.8-6.3c-6.6-2.4-12.9-1.2-19.2,0c-10.7,2.1-22,2.8-30.5,11c-1.4,1.4-3,2.2-3.4,4.6
				c-0.4,2.6-2.7,4.8-5.3,3.8c-3.4-1.3-0.3-4.2-0.6-6.4c-0.1-0.5,0.7-1.1,1-1.7c1.1-2.3,6-2.8,4-5.9c-1.6-2.4-5.6-3.2-8.6-2.8
				c-11.4,1.6-23.5,0.9-33.1,9.6c-2.6,2.4-7.1,2.6-9.8,5.6c-0.7,0.8-2.1,1-3,0c-0.9-1-0.4-2,0.3-3c2.8-4,5.1-8.5,10-10.3
				c3-1.1,4.7-2.9,4.2-5.9c-0.6-2.9-3.6-2.8-5.6-2.6c-6.4,0.8-13-0.5-19.2,2.5c-4.2,2.1-9-0.5-13.3,0.8c-1.5,0.4-4.2-1.2-4.2,1.7
				c0,2,2.2,2.6,4,3c0.9,0.2,1.8,0.3,2.6,0.6c1.5,0.5,4.5,0,3.7,2.5c-0.7,2.4-3.1,2.8-5.6,1.6c-3.4-1.6-6.7-3.4-10.5-4.5
				c-5.9-1.7-10.8-2.4-16.9,1.2c-6.9,4.1-15.3,4-22.8-0.4c-1.3-0.7-2.3-1.5-3.6-0.8c-4.5,2.4-6.5,1.8-5-3.7c0.1-0.4,0-0.9-0.2-1.2
				c-0.7-1.4-17.6-6.1-19.1-5.3c-6.2,3.2-12.2,7.3-19.4,2.4c-1-0.6-2.1-0.7-3.2,0c-11.2,6.5-24,3.2-35.9,5.8
				c-10.5,2.3-21.3,1.2-31.9,2.3c-7.3,0.7-14.6,1.3-21.9,1.6c-1.6,0.1-5,0.5-4.6-2.3c0.3-2.2,1.3-5.7,5.2-4.6c1.8,0.5,3,0.7,3.6-1.4
				c0.7-2.3-1.3-3-2.5-3.3c-4.4-1.1-8.8-2.2-13.5-2.7c-9.1-0.9-18.1-1.3-27.2-0.8c-1,0-1.5-0.4-1.6-1.6c-0.3-6-4.9-9.5-11.2-8.7
				c-4.9,0.6-9.8-0.5-14.7,1c-0.1-3.3,1.9-4,3.2-4.9c1.8-1.2,4.9-1.4,4.7-4c-0.2-1.9-3.2-2-4.8-3c-9-5.6-18.6-7.9-29.1-6.2
				c-5.6,0.9-9.2-2.1-12.9-5.7c-6.1-5.9-12.8-11-20.7-14.1c-9.1-3.6-18.5-6.4-28.5-5.4c-3,0.3-6.3-0.1-6.6-3.9
				c-0.3-4.6,4.3-3.9,6.4-3.7c7.7,0.7,16-1.2,22.4,5.9c1.9,2.2,6.6,1.6,9.3,3.3c4.7,2.9,12.5,1.1,14.2,8.9c0.1,0.6,1.4,1.2,2.2,1.3
				c6.4,1.2,12.5,3.2,18.4,5.8c2.8,1.2,5.3,0.4,6.2-2c0.7-2-1.7-3.2-3.5-4.1c-1.2-0.5-3-1.1-3.3-2c-3.6-10.9-13.4-9.6-21.6-10.8
				c-3.6-0.5-5.8-1.6-6.8-5.2c-1.5-5.1-4.4-8.1-10.4-8.5c-8.2-0.5-15-5.6-20.6-10.9c-5.9-5.5-12.4-4.8-19-4.3
				c-5.2,0.4-9.8,4.5-13.8-3.6c-2-4.2-9.8-4.1-14.8-3.7c-3.7,0.3-7-0.8-10.5-0.5c-2.5,0.2-4.1-1.8-3.7-4.5c0.4-2.5,1.3-4.7,4.7-4.6
				c2.1,0.1,5.7,1.9,6-1.9c0.2-3.7-2.5-5.4-6.4-5.1c-1.4,0.1-2.9-0.1-3-1.8c0-0.5,1.3-1.7,1.8-1.6c10.4,2.4,15.2-5.4,21.1-11.3
				c0.4-0.4,1-0.6,1.5-1.3c-6.5,0.2-13.1-0.3-19.5,1.2c-1.4,0.3-2.8,0.8-3.5-0.8c-0.7-1.6,0.8-2.2,1.7-3.1c3.7-3.9,8.6-3.5,12.4-2.1
				c14.3,5,29,2.7,43.6,2.9c4.5,0.1,9.3-1,8.6-7.7c-0.1-1,1.9-2.1,2-3.2c0.3-2.8,5-5.6,0.9-8c-3.6-2.1-8-4.8-12.4-1.6
				c-2.8,2.1-6.6,3.2-8,7c-0.6,1.7-2.1,2.6-3.8,2c-6.5-2.4-13.3-0.2-19.9-1.3c-1.3-0.2-3.1-0.6-3.9,0.1c-6.7,5.1-12.9,1.2-19.4-2.1
				c5.2-0.9,10.4-2.6,15.6-2.5c4.4,0.1,5.6-3,8-5c0.9-0.7,1-2.6-0.4-2.6c-1.7,0-1.9-2.8-4.4-1.3c-4.3,2.6-8.8,2.8-14,1.2
				c-6.2-2-8.9-5.4-8.7-11.9c5.6-0.1,10.7-1.7,15.6-4c2.4-1.1,5.1-1.3,7.3-0.6c8.8,2.7,17,0.7,25.4-1.8c8-2.4,16.2-2.1,24.3,0.6
				c7.4,2.5,14.9-1.3,22.5-0.7c11.2,0.9,22.6,2.6,33.5,2.8c11.7,0.2,25.2,2.2,35.7-9.2c7-7.6,14.9-16,27.9-14.6
				c7.3,0.8,14.9-0.5,22.5,0.1c15.4,1.2,30.9-0.3,46.3-0.5c18.9-0.3,37.8-0.7,56.6,1.2c5.1,0.5,10.2,0.5,15.1-1.5
				c1.4-0.6,3.1-0.5,4.6-0.4c16.8,1.4,33.7,0.4,50.5,0.3c16.7,0,33.6-0.8,50.3-1.9c17.3-1.1,34.7-2.1,52.2,0.7
				c6.4,1,13.8,0.4,20.7-0.1c2.8-0.2,5.9-0.8,8.2,1.7c0.5,0.6,2,1.2,2.3,0.9c7-5.9,14.8-0.4,22.2-1.7c1.7-0.3,3.5,0.7,4.7,2.2
				c0.8,1,1.5,2.6,2.6,2.9c7.7,2.1,13,7.4,17.9,13.2c1.7,1.9,4.5,2.5,6.9,2c12.3-2.2,24.8-1,36.7,0.8c11.1,1.6,23,0.9,33.5,7.7
				c4.9,3.2,11.8,0.5,17.7,1.2c2.8,0.3,7.3-1.6,6.7,3.7c-0.6,5.3,3.6,12.5-5,15.2c-3,0.9-6,1.8-9,2.6c-3.5,1-3.9,3.5-3.9,6.8
				c0,3.8,2,4.5,5,4.9c1.5,0.2,3,1.1,4.5,1.4c2.8,0.7,7.1-1.8,7.9,2.3c0.4,2.2-0.1,5.2-0.3,7.5c-0.3,3-5.5,4.3-9,5.3
				c-2.6,0.8-5.6,0.2-8.8,0.3c0.3-3.5,3.3-3.2,4.8-4.5c0.1-2.5-4.1-1.8-3.4-5.1c0.6-2.6,2.3-6.5-2.1-7.7c-4.3-1.1-8.3,0.2-11.8,2.8
				c-1.6,1.2-2.8,2.8-4.2,4.3c-3,3-6.5,3-9.7,0.7c-2.7-2-4.6-0.5-6.8,0.6c-2.7,1.5-2.4,4.4-2.3,6.6c0.2,2.9,3.6,2.2,5.5,2.9
				c2.8,1,6.1,0.3,8.2-1.7c2.7-2.5,5.8-2.2,8.8-2.5c2.1-0.2,4.1,0.4,4.9,2.7c0.9,2.4-0.5,4.2-2.5,4.8c-4.4,1.4-3,5.3-2.7,7.6
				c0.3,2.2,3.5,1.8,5.8,1.6c7.5-0.9,15-1.7,22.6-1.4c4.6,0.2,5.7,2.4,5.2,6.6c-0.5,4.5-2.7,5.1-6.5,4c-6.3-1.9-11.9-2.2-14.8,5.5
				c-1.1,2.9-4.2,3.4-6.8,3.4c-7.6-0.1-13.4,4.4-19.9,7.2c-1.9,0.8-3.9,1.8-3.6,4.3c0.4,2.9,3.2,1.9,4.9,2.3c1.9,0.4,4,0.4,6,0.4
				c4.2,0.1,6.9,3.8,5,7.5c-1.6,3.3-3.7,1.1-5.3-0.4c-7-6.5-7.9-6.6-14.8,0c-0.7,0.7-1.9,1.3-2.9,1.3c-10.8,0.3-19.2,4.6-23.8,14.8
				L724.1,498.2z M335.5,361.6c-13.8-0.5-13.8-0.5-10.8,9.2c0.1,0.2,0.2,0.4,0.2,0.6c0.7,13.3,8.2,24.6,11.7,37.1
				c0.9,3.3-0.1,9.5,6,10.5c5.1,0.9,5.6,2.9,1.5,6.3c-4.6,3.8-7.3,8.8-5.8,14.7c0.8,3.4,0.7,6.6,1,9.9c0.7,7.7-1,15.5-0.4,22.8
				c0.9,10.4,0.7,20.7,0.4,31c-0.2,5.9-0.7,10.8,6.9,11.8c1.6,0.2,2.8,1.5,3.4,3c1.4,3.5,4.4,3.6,7.7,4.1c15.4,2.3,30.7-4,46.4,0.2
				c8.7,2.3,18,0.9,27.1-0.5c6.6-1,14.6-0.4,19.5,3.2c8.3,5.9,16.4,5.8,25.1,4c4.9-1,9.3-0.7,13.7,1.5c4,2,7.9,2.5,12.3,0.9
				c3.5-1.3,7.5-2.6,11-2.2c10.8,1.3,21.5,3.9,32.3,5.3c10.1,1.3,20.6,0.3,29.5-4.3c6.9-3.5,13.4-4.6,20.4-3.9
				c13.3,1.4,26-3.8,39.2-2.6c1,0.1,2-1,3.1-1.2c9.5-2.3,18.1-7.1,27.4-9.9c8.3-2.5,11.8-5.2,11.9-13.1c0.1-9.9-1.6-19.9-0.3-29.6
				c1.6-11.5-2.6-22.4-1.3-33.8c0.4-4,2.8-8.8,0-12.7c-4.8-6.7-7.4-13.6-5.8-22c0.8-4.3,0.5-8.9,1.1-13.3c0.7-5.4-2.1-11.6,2.5-16
				c3.9-3.7,1.1-7.3,0.6-10.6c-0.3-2.3-4-1.9-6.2-1.9c-6,0-12.1,1.2-17.9,0.4c-8.9-1.1-17.5-2.1-26.6-1.4c-5.8,0.4-12.5,1.9-18-2.5
				c-1-0.8-5.9,0.3-7.7,1.1c-0.7,0.3-1.7-0.1-2.6-0.1c-8.2,0.9-16.6-1.7-24.3-1c-16,1.3-31.9-0.7-47.9,0.8
				c-15.8,1.5-31.8,0.2-47.7,0.3c-5.1,0-10.3,0.3-15.4,1.1c-15.3,2.2-30.7,1.6-46,2.4c-13.2,0.7-26.6,1.3-39.8-0.4
				C359.4,359.2,346.1,361.7,335.5,361.6z M686.1,425.1c4.9,1.8,8-4,13-4.4c8.6-0.6,14.6-7.1,22-10.6c5.9-2.8,5.4-5.8,0-9.7
				c-2.5-1.8-5.7-3.2-7.4-5.6c-6.1-8.6-15-14.2-22.3-21.4c-5.4-5.3-9.4-3.3-11.3,3.9c-1.4,5.5,0.3,10.9-0.6,16.4
				c-1.3,7.9-2.2,16-2.7,24C676.6,423.7,679.6,426,686.1,425.1z M313.4,370.7c-3.6,5.7-8.3,8.1-13.3,10.1c-0.9,0.4-2.4-0.4-2.5,1.4
				c-0.7,7.1-6.7,10.4-11,14.9c-6,6.3-4.3,10.1,4,13.4c8.1,3.2,18,0.8,24.6,8.3c0.5,0.6,2.2,0.4,3.3,0.2c3.8-0.6,7.1-0.2,9.7,3.5
				C324.6,405.2,320.1,388.4,313.4,370.7z M318.1,504.8c2.2-2.6,4.6-4.2,5.1-7.3c1.1-6.7,0.3-13.4-0.3-20.1c-0.1-1.2-1.2-2.3,0-3.7
				c5.5-5.8,2.3-11.9,0.7-18c-0.3-1.2,0-3-1.9-3.1c-2.1-0.2-2.2,1.9-3.1,3c-1.5,1.9-0.7,3.9-0.5,5.8c0.4,2.9,0,5.2-3.5,6.7
				c0.5-7,0.9-13.7,1.6-20.4c0.3-3.1,0.6-6.4-3.2-6.8c-3.6-0.4-4.3,2.8-5.1,5.8c-1.6,6.2-1.4,12.4-0.3,18.6c0.3,2,1.3,3.9-0.4,5.6
				c-0.3,0.3-1.4,0.4-1.7,0.2c-1.5-1.4-0.7-3.3-0.8-5.1c-0.3-4.7-1-9.3-1.5-14c-0.6,0-1.1,0.1-1.7,0.1c1,15-6.2,30.1,1.4,45.2
				c1.8-0.6,1.4-1.6,1.5-2.4c0.1-1.8-1.8-4.4,0.9-5.3c2.5-0.8,2.2,2.2,3.1,3.5c0.7,1,1.3,1.9,2.6,1.6c2.1-0.4,1.9-2.2,1.9-3.7
				c0.2-5.2-0.7-10.6,3.2-16.6C318.1,485.2,311,495.1,318.1,504.8z M195.1,441.1c-3.7-1.7-2.5-9.6-8-8.3c-11.8,2.9-24.2,0-35.7,4.5
				c-1.5,0.6-4.1-0.2-3.9,2.6c0.2,2.3,2,3.5,4.3,3.5c5.1,0,9.1,2.6,13.1,5.2c3.7,2.3,8.7,3.7,12,2.1c5.1-2.4,9.7-5.3,15.5-5.6
				C194.2,445,194.9,443.4,195.1,441.1z M357.5,541.1c-0.2,0-2.1-0.6-2.5,1.6c-0.3,1.7,1.6,2,2.7,2.4c4.1,1.7,7.9,3.7,12.5,0.5
				c2.9-2,6.7-2.2,10.3-2.5c6.2-0.5,12.7-0.3,18.5-2.2c7.7-2.6,15.2,0,22.8-1.1c1-0.1,3,1,3.5-0.5c0.5-1.3-1.4-2.3-2.5-2.6
				c-7.8-2.1-15.6-4-23.5-0.7c-2.4,1-4.4,1.1-7,1c-5.6-0.3-12.1-2.9-16.8,0.5C370.1,541.7,364.8,542.3,357.5,541.1z M297.6,445.1
				c-0.5-2.5,1.3-5.3-2-6.2c-2.3-0.6-3.5,1.8-3.4,3.2c0.4,7.2-1.6,14.1-2.4,21.1c-1,9.2-1.9,19,1.2,28.4c0.6,1.8-0.5,4,1.8,5.3
				c1.2,0.6,2.2,0.5,3-0.5c1.5-1.8,2.5-4.6,1.3-6.2c-4.1-5-2.4-11.6-1.2-15.5C298.9,464.5,295.6,454.5,297.6,445.1z M162.6,421.2
				c2.2,1,3.5,2.1,4.1,1.8c8.4-4.4,14.4,2.1,21.3,4.4c2,0.7,4.6,0.9,6.6,0.3c4.6-1.4,8.8-0.1,13.2,0.5c4.6,0.7,9.2,1.6,13.8,1.8
				c3.5,0.2,6.7-0.7,4.4-6.2c-7.8,7.1-15.5-2.5-23.4,0.1c-3.9-6-10.1-3.7-15.3-3.9C179.5,419.6,171.5,417.2,162.6,421.2z M711.1,453
				c0-0.7,0-1.3,0-2c0-1.4,0.9-3.6-1.5-3.7c-2.4-0.1-1.8,1.9-1.9,3.5c-0.1,1.5-0.3,3.2-0.9,4.6c-3.8,9.5-3.2,19.3-1.2,29
				c0.4,2.2,1.9,4.3,4.3,4.7c1.9,0.3,3.3-1.7,4.1-3.1c1-1.7,2.1-3.9-0.3-5.9c-2-1.6-2.5-4.3-2.5-6.8
				C711.1,466.6,711.7,459.8,711.1,453z M694,498c4.9-16.7,3.4-33.9,4.8-50.8c0.1-1.1-0.5-2.8-2.3-2.7c-1.8,0.1-1.7,1.5-2,2.9
				c-2.3,10.3-3.3,20.7-1.6,31C693.9,485,690.8,491.6,694,498z M770.8,449.3c-2-3.1-3.6-6.6-6.2-9.1c-3.5-3.4-7.5-1.5-10.9,0.8
				c-2.9,2-5.9,3.9-3.1,8.5c2.5,4.1,9.5,5.6,14.1,1.6C766.7,449.4,768,448.1,770.8,449.3z M717.6,444.6c-2,0.7-4,1.8-3.7,4
				c0.9,8.1,0.2,16.1,0.4,24.2c0.1,1.9,0.7,4.4,3.6,3.7c2.2-0.5,2.3-2.5,1.9-4.4c-0.4-2-2.7-4.1,0.2-5.9c2.7-1.7,4.1,1.5,6.4,2.1
				c1.9-5-1.2-9.2-1.2-13.7c0-1.5,1-4.5-1.7-4.1c-2.8,0.4-2.8,3.2-1.8,5.5c1.2,2.9,2.7,5.6-0.6,9.6
				C718.3,458.3,719.1,451.3,717.6,444.6z M617.8,540.5c-1.7,0.1-5.1,0.2-8.4,0.7c-2.1,0.3-4,1.4-2,4.1c3.8,5.2,13.6,7.1,18.9,3.5
				c2.4-1.7,4.7-4.8,4.3-7c-0.4-2.8-4.2-1.1-6.6-1.4C622.7,540.2,621.1,540.4,617.8,540.5z M290.1,513.1c-2.1,0.4-5.4-1.3-6,1.3
				c-0.8,3.4,3.1,2,4.8,3c0.9,0.6,1.8,1.4,2.7,1.9c4.8,2.7,9.6,5.3,13,10c0.8,1.1,2.4,1.4,3.7,0.6c1.9-1.1-0.1-2.2-0.2-3.3
				c-0.4-5.3-6.5-5.3-8.3-9C297.6,513.2,294.2,512.7,290.1,513.1z M505.6,546.5c-3-1.2-5-2.6-7-2.6c-3.1,0.1-6.5,1.9-6-3.7
				c0.1-1-1.3-0.7-2.1-0.9c-4.3-1-6.7,0.5-7.5,4.9c-0.8,4.4,3.2,6.5,5.3,6.1C493.6,549.3,499.5,550.8,505.6,546.5z M645.3,542.6
				c8.9-1,18.4,1.9,26.9-5C662.3,535.9,653.2,535.7,645.3,542.6z M244.9,402.3c-2.3,0.9-6.1,0-5.3,4.4c0.5,2.9,2,5.3,5.3,4.6
				c2.7-0.5,6.3-1.1,5.8-5.1C250.4,403.1,247.6,402.3,244.9,402.3z M776.1,400.5c3.5-0.8,9.5,0.9,9.4-3.9c-0.1-3.9-6-1-9.2-2.1
				c-2.7-0.9-7.5,0.9-7.4,3.7C769,401.9,773.4,400.2,776.1,400.5z M233.7,449.5c-2.3-1.9-4.3-3.9-6.7-5.2c-2.6-1.4-4.7,0.6-6.5,2.1
				c-1.4,1.2-0.4,2.4,0.6,3.3c1.5,1.4,3.4,4.6,5.2,2.7C228.5,450.2,231.4,451.9,233.7,449.5z M234.1,417.6c2.3-0.2,5.9,1.4,6.1-2.8
				c0.1-2.5-2.6-2.9-4.6-2.9c-3,0.1-7.7,0.8-7.9,3.1C227.3,418.7,231.6,417.3,234.1,417.6z M321.5,509.3c-1.9,0.4-3.6,0.9-3,2.5
				c1.2,3.1,4.4,3.6,7.2,4.2c1.3,0.3,3.2-1.5,2.4-2.3C326.2,511.8,323.5,510.5,321.5,509.3z M703.9,488.4c-0.4-2-0.2-5.2-2.3-5
				c-3.7,0.3-1.1,4.3-2.4,6.4c-1.2,2,0.9,2,2,2.1C704,492.1,703.7,490,703.9,488.4z"/>
			<path d="M366.2,576.5c-1.4-5.7-7.2-6.9-11.3-10.4c4.7-2.8,8.6-0.6,12.1,1.4c2.9,1.7,5.4,2.5,8.8,1.1c4.5-1.9,8.9,0.6,12.9,2
				c3.6,1.2,7.5,2.1,10.4,0.9c13.3-5.3,27.3-4.4,41-5.9c0.9-0.1,1.7-0.2,2.7-0.3c-3.2-4.1-12.8-5.4-26.6-3.7
				c4.9-6.7,14.8-9.3,21.8-5.3c5.4,3.1,10.4,2.9,15.6,0.1c5.2-2.9,11-0.3,16.4-1.8c0.8-0.2,1.9,0.3,2,1.4c0.1,1.4-1.1,1.9-2.1,2.1
				c-3,0.7-8.1,0.1-7.5,4.2c0.5,3.5,5.4,1.1,8.3,1.5c6.2,0.9,12.5,0.5,16.2,7.7c1.5,3,5.6,5.6,8.9,6.5c7.3,2,9.6,8.7,15.3,12.8
				c-1.3,0.6-2.1,1.2-2.4,1c-8.4-5.1-16.9-10.2-25.2-15.5c-1.3-0.8-2.4-2.1-4.1-2c-9.6,0.7-18.9-3.7-28.1-2.2
				c-3.6,0.6-6.9-2.6-10.3,0.4c-2.6,2.3-3.2,3.1,0.5,4.8c5,2.2,10.2,1.5,15.3,1.6c2.7,0,5.4-0.3,8.7,2.5c-8.5,0.6-15.8,3.5-23.5-0.2
				c-2.7-1.3-6.3-1.3-8.9,0.4c-2.6,1.8,1.6,4,0.7,6.5c-0.4,1.1,2.8,2.8-0.1,4.2c-2.3,1.1-4.2,0-5.2-1.9c-2-3.7-6.5-8.1,2.4-9.9
				c2-0.4,6.2-3.2,5.3-6.5c-0.9-3.3-4.6-1.8-7.4-2.1c-6.1-0.6-11.3,3.8-17.5,2.8c-2-0.3-3.6,1.8-4.3,3.8c-0.9,2.4,1.7,2.1,2.7,3
				c2.9,2.9,4.9,6.6,4.3,10.5c-0.4,2.7-9.8,3.6-13.1,1.7c2-2,4.6-1.6,6.9-1.8c4.7-0.4,4-2.2,1.9-5c-4.7-6.5-11.8-9-18.8-8.2
				c-6.5,0.8-12.3,0.2-18.2-1.9c-2.2-0.8-4.3-1.1-6.6-0.5L366.2,576.5z"/>
			<path d="M720.7,589.9c11.4,4.6,21.5,0.9,32.1-3.7c4.6-2,12-2.4,16.8,0.5c5.3,3.3,11.2,5.2,16.4,8.6c4.9,3.2,10.7,2.1,16.1,0.5
				c1.8-0.5,3.9-1.7,4.4,0.8c0.5,2.3-2,2.8-3.7,2.8c-5,0-9.8,0.5-14.6,1.7l0.2,0.2c-8.4-1.2-13.2-9-21.1-11.5
				c-4.7-1.5-8.6-1.4-12.9,0.1c-9.2,3.1-17.6,9.2-28.3,5.8c-2.1-0.7-5.1,0.7-6.4,2.9c-2.6,4.2-6.6,4.6-10.9,4.6
				c-0.9,0-1.8,0-2.7,0.2c-2.4,0.6-6.5-0.6-6.9,2.2c-0.5,3.6,2.5,6.1,6.3,6.4c2.1,0.1,3.4,1.2,4.3,2.6c4.2,6.4,10.4,9.5,17.7,11.1
				c1.9,0.4,3.8,2.2,2.8,5.1c-1.4,4-3.5,0.5-4.6,0.1c-11-4.4-21.7-2.2-32.4,0.9c-1.8,0.5-3.3,1.3-5.2,0.5c0.5-2.4,2.4-5,4.2-4.6
				c7.9,1.8,8.4-5.8,12.3-9c0.9-0.8,1.8-2.9,0.3-3.4c-8.8-3-15.8-10.7-26-10.2c-7.5,0.4-14.1-3.5-21.5-4.1c1.2-4,4.2-2.7,6.4-3.3
				c1.1-0.3,2.6-0.4,2.5-1.6c0-0.9-1.1-2-2-2.4c-3.5-1.5-7.1-2.6-10.6-4c-2.3-0.9-3,0.9-4.4,2.1c-3.1,2.7,0.3,4.7,1,8.4
				c-6.1-2.9-11.9-3.6-17.7-2.6l0.2,0.2c0.3-4.4,3.4-4.6,6.7-4.5c2.9,0.1,4.7-1.4,5.2-4.2c0.7-4.1-2.9-2.2-4.5-3.1
				c-5.6-3-10.6,1.3-16.2,1.1c3.2-3.6,6.6-5.9,12-5.6c14.1,0.8,26.4,6.4,37.2,14.9c4.8,3.7,11,3,15.7,6.5c1.2,0.9,3.8,0.1,4.9-1.3
				c4.1-5.1,9.4-6,15.5-5.2c5.3,0.7,10,0,11.4-6.4L720.7,589.9z"/>
			<path d="M235.6,552c-4.4-1.6-9.2-0.9-14.9-3.6c6.9,0,9.5-6.1,15.2-6.3c1.3,0,2.3-1.6,3.3-3c5.3-7.9,12.4-8.4,20-3
				c10.2,7.3,21.3,12.8,34.6,9.7c1.5-0.4,3.1-0.6,4.6-0.5c1.1,0.1,2.2,0.8,2.2,2.2c0,1.6-1.4,1.6-2.4,1.6c-3.1-0.2-8.7-1.2-8.6,1.3
				c0.1,5.2,5.8,1.6,8.8,3c2.5,1.2,5.3,0.9,8,0.8c2.6-0.1,5.5-0.1,5.5-4.2c-0.1-2.8,2.3-3.8,4.5-4.1c2.5-0.4,3.7,1.6,4,3.7
				c0.4,2.8,1.9,3.3,4.4,3.7c4.1,0.6,7.7,3.4,13,3.2c-2.2,3.8-5.2,5.7-6.1,9.3c-0.5,2-4.2,4.1-7.4,1.8c-8.2-6-18.3-6.3-27.6-8.9
				c-3.3-0.9-8.1-2.1-10.6,2.8c-1.2,2.3-3.7,1.2-5.5,1.4c-2.8,0.4-1.3-2.2-1.5-3.4c-1.2-5.3-1.6-11.1-9.5-10.3
				c-0.6,0.1-1.9-0.8-2-1.4c-0.7-3-2.4-4.5-5.5-4.9c-7.4-0.9-14.6-5.2-22.2-0.7c-1.4,0.8-3,1.4-3.1,3.2c0,2.2,1.8,3,3.4,3.7
				c1.7,0.7,3.5,1,5.2,1.5c1.3,0.4,3.7,0.7,3.7,1.2c0.5,7.4,8,7,11.7,10.6c0.9,0.8,1.7,1.7,1,2.8c-0.4,0.5-1.7,0.8-2.4,0.6
				c-7.6-2-15.8-1.1-23.3-4.1c-2.4-0.9-3.9-2.3-3.9-4.8C232.2,554.7,232.3,552.2,235.6,552z"/>
			<path d="M593.2,612c-6.8,0.1-15.1-2.6-23.7,0c-2.1,0.7-5.8-0.7-7.5-2.3c-3.8-3.8-7.5-2.7-11.6-1.2c-7.6,2.7-15.6,3.4-23.1,6.6
				c-3.8,1.6-8.5,1.3-11.9-2.4c-2.6-2.9-5.6-3-9.5-3.1c-6.1-0.1-10.3-0.3-14.5,5.7c-3.1,4.4-10.4,1.5-15.9,1.4
				c-2.4,0-1.3-2.2-0.9-3.6c0.7-2.2,2.4-3.3,4-1.7c6.9,6.6,10.9-0.3,13.9-3.8c5.1-6.1,11.5-4.4,17.6-5.3c0.5-0.1,1.3,0.4,1.5,0.9
				c2.4,4.7,3.1,4.8,8.4,4.1c7.9-1,14.6-5.5,22.4-6.7c7.5-1.2,14.8-0.8,21.9,1.3c12,3.5,21.6,0.6,28.1-10c3.3-5.4,9.4-5.6,13.6-9.1
				c0.7-0.6,2.4-0.4,2.9,0.8c0.6,1.2-0.2,2.3-1.3,2.7c-8.6,2.5-12.7,10.6-19.6,15.2c-1.4,0.9-3.9,1.1-3.2,3.5
				c0.7,2.5,3.1,3.3,5.5,2.9c5.1-0.8,10.1-1.7,15.1-2.9c3-0.8,6.1-1.9,8.7-3.5c2.5-1.6,4.6-2.8,5.9,0.5c1.2,3.1-1.4,4.7-3.7,5.3
				C609.3,609.3,602.3,611.8,593.2,612z"/>
			<path d="M735.4,533.3c-1.5-10.1,3.9-13.9,9.7-17.6c1.3-0.9,4.2-0.3,3.6-3c-0.5-2.2-2.2-3.7-4.8-4.2c-4.3-0.7-8.5-0.3-12.7,0.4
				c-1.5,0.2-4,1.9-4.1-1.2c0-1.8-0.9-5.5,2.4-5.2c8.5,0.6,17.3-2,25.6,2c4.6,2.2,8.5,1.7,12.2-2.9c4.1-5.2,7-10.6,9.7-16.6
				c1.9-4.3,8.8-6.6,13.9-9c3.6-1.7,7.7-2.2,11.7-3c1.8-0.4,4.3,1.9,3.3,2.1c-4.7,0.9-4.9,7.9-11,7.1c-4.8-0.6-10,0-13.7,4.1
				c-1.7,1.9-5,3.5-2.8,6.6c2,2.8,5.1,2.4,7.8,0.4c4.4-3.3,9.7-3.2,14.7-4.3c1.2-0.3,2.9-0.9,3.6,0.7c0.9,2.3-1.4,2.4-2.7,3
				c-3.9,1.6-7.7,4-11.8,4.3c-8.4,0.7-14.8,4.1-18.9,11.3c-0.9,1.6-1.9,3.2-3.3,2.3c-5.6-3.7-9.1,0.7-13.1,2.9
				c-4.1,2.3-8,4.9-12.1,7.2C738.5,523.1,739,528.5,735.4,533.3z"/>
			<path d="M718.5,556c2.7-9.3,11-13.8,14.1-23c2.7,4.9-1,6.7-1.4,9.3c-0.3,1.7-2.2,3.3-1.1,5c1.4,2,3.7,0.9,5.6,0.7
				c5.8-0.6,10.3-4,15.1-6.8c8.7-5,18-7,27.8-6.2c6.9,0.6,13.4-0.8,19.8-2.6c2.8-0.8,5.4-1.4,8.3-0.4c-7.1,4.3-13.9,9-22.8,8.7
				c-8-0.2-15.9,0.9-23.6,3.3c-10.4,3.2-20.8,6.3-31,10C725.9,555.6,722.3,554.6,718.5,556z"/>
			<path d="M305.8,588.2c0.1-2.8-3.8-3.7-1.4-5.9c2-1.8,3.1,0.9,4.6,1.5c4.8,2,9.4,3.5,14.9,2.8c7.8-0.9,9.3,0.8,10.6,8.6
				c0.7,4.2,4.3,2.9,7,3.4c2,0.4,5.3-0.8,5,2.5c-0.2,2.1-3.3,1.8-5.2,1.5c-4.6-0.9-9.3-1.7-13.7-3.3c-9-3.4-18.2-4.6-27.8-5.2
				c-4.9-0.3-9.4-2.5-14.7-1.4c-3,0.6-5.5,0.6-7.3,3.4c-1,1.6-3.1,3.5-4.9,1c-1.3-1.8-0.2-3.6,1.8-5c3.1-2,6.2-3.5,10-3.5
				C291.7,588.5,298.6,588.3,305.8,588.2z"/>
			<path d="M342.6,643c0.6-4.1,3.2-3.9,5.2-3.8c7.9,0.4,14.6-3,21.4-6.1c0.8-0.4,1.6-0.7,2.4-1.2c2-1.2,5.9,1.1,6.3-2
				c0.4-3.3-3.5-2.4-5.6-3.3c-0.9-0.4-1.6-0.9-1.6-1.9c0-1.1,1-1.4,1.8-1.6c3.1-0.9,5.3-0.8,7.1,2.8c2.4,4.7,5.8,4.6,7.9-0.1
				c0.7-1.5,1-2.2,2.6-2.1c4,0.2,8,0.4,12.1,0.6c1.2,0.1,3-0.6,3.3,1.2c0.3,1.6-0.8,3-2.4,3.7c-1.2,0.5-2.6,1.3-3.8,1.2
				c-11.2-1.4-19.8,5.6-29.5,8.9C361.2,642.3,352,641.7,342.6,643z"/>
			<path d="M182.4,556.8c10.7,3.6,20.8,4.7,30.8,5.5c6.9,0.5,12.1,3.1,17.2,7.8c5.3,4.8,12.2,7.6,19.3,9.6c1.3,0.4,3.5-1.3,3.8,1.2
				c0.3,2.3-2.2,3.1-3.5,4.6c-1.4,1.7-3.1,1.2-3.9-0.3c-3.8-7.2-12-7.7-17.5-12.1c-11.1-8.9-24.8-8-37.7-9.8
				C186.8,562.7,184.3,561.1,182.4,556.8z"/>
			<path d="M191.5,511.6c-0.8-4.3,1.8-5.1,5.1-5.4c2.4-0.2,6.1,0.8,4.7-4c-0.4-1.6,1-1.9,2-1.9c2.1,0,3.9,1,5.2,2.7
				c1,1.2,1.4,2.9,0.1,3.5c-5.8,2.9-6,8.1-6.3,13.5c-0.1,2.1-2.6,2.5-3.5,1.5C196,518.4,192.1,516.1,191.5,511.6z"/>
			<path d="M459.5,610.9c8-1.5,11.7-7.4,16-13.1c3.1-4.1,8.7-2,13.2-1.7c1.6,0.1,2.8,2.4,2.5,4.3c-0.2,2-2.2,2.4-3.6,2.3
				c-7.5-0.3-13.8,2.1-19.2,7.5C466.1,612.5,463,612.9,459.5,610.9z"/>
			<path d="M792.4,572.5c-1.8,0.5-3.5,0.7-3.7-1c-0.9-6-5.1-7-10.1-7.2c-1.3,0-2.9-0.4-2.9-2.1c0.1-1.2,1.5-1.4,2.6-1.7
				c7.2-2,13.3,1.6,19.6,4c1.6,0.6,3.5,2.7,2.8,4.1C799,572,795.4,572.3,792.4,572.5z"/>
			<path d="M167.9,494c-6.3,0.7-12,2.1-17.8,0.5c-1.7-0.5-3.9-0.5-3.9-2.9c0-2.8,2.6-2,4.1-2.2c4.4-0.5,8.9,0.4,13-2.4
				c0.9-0.6,2.8-0.6,3.9-0.1c2.8,1.3,7,2.3,6.7,5.7C173.4,497.2,169.1,492,167.9,494z"/>
			<path d="M786.2,470.1c-2.7,0.2-5.4,0.2-7.9,0.8c-1.7,0.4-3.3,1-3.8-1.1c-0.4-2,1.6-2.2,3.1-2.7c4.9-1.6,10.3-1.6,15-4.5
				c2-1.2,5.2-1.2,7.7,0.5c1.3,0.8,1.7,2,1.8,3.4c0.1,1.9-1.3,2-2.6,2.2C795,469.4,790.8,471.3,786.2,470.1z"/>
			<path d="M620,701c5.6-5.6,5.5-13.9,12.7-16.3c5.8-2,10.4-6,15.5-9.1c3.5-2.1,7.3-2.9,10.9-4.6c1.2-0.6,2.1-0.8,2.5,0.7
				c0.3,1.1-0.5,1.8-1.5,1.8c-11.3,0.2-16.5,11.8-26.7,14.2c-2.9,0.7-4.6,3.8-5.9,6.8C626.3,697.4,624.9,700.4,620,701z"/>
			<path d="M366,576.3c-2.3,6.6-14,8.7-18.6,3.1c-2.5-3-6.6-6.1-2.6-11c0.9-1.1,0.7-3.3,3-2.2c1.4,0.7,2.1,1.9,1.1,3.3
				c-3.6,5.2,2.2,5.8,4.1,8.1c2,2.6,4.3,1.5,6.2-0.7c2.2-2.4,4.6-0.6,6.9-0.4C366.2,576.5,366,576.3,366,576.3z"/>
			<path d="M580.5,647.6c-6,1-11.1,6.4-18.2,3.5c-2.7-1.1-6.8,1.4-6.7,4.1c0.4,6.8-4.2,2.6-6.2,3.1c-2,0.5-3.5-1.1-3.7-3.7
				c-0.4-4.4,3.1-3.9,5.4-4.1C560.9,649.5,570.7,649.4,580.5,647.6z"/>
			<path d="M720.9,589.7c-6.8-5.5-15.3-3.8-23.9-5.3c4.2-5.2,9.1-3.2,13.2-2.7c4.1,0.5,7.2,0.6,10.1-2.9c2.1-2.6,5.6-3.4,9.6-2.1
				c-3.3,4.5-14.1,3.7-9.2,13.2C720.7,589.9,720.9,589.7,720.9,589.7z"/>
			<path d="M162.2,464.4c6.5-0.4,12.6,1.2,18.6,2.7c2.1,0.5,4.2,1.7,4.1,3.7c-0.1,3-3,1.8-4.8,1.9
				C172.7,473.4,168.2,467.5,162.2,464.4z"/>
			<path d="M290.6,628.4c-8-1.4-16.1-2.2-23.4-6.3c-1-0.5-2-1.3-1.5-2.6c0.5-1.3,1.8-1.1,2.8-0.8C276,621.4,284.8,621.1,290.6,628.4
				z"/>
			<path d="M709.3,548.6c0.3,0.1,1.4,0.3,1.7,0.8c0.3,0.6,0.1,2.1-0.4,2.4c-4,2.5-8.1,5.1-12.4,7.2c-1.5,0.7-3.5-0.8-4.2-2.6
				c-0.8-2,1-2.7,2.2-3.6C699.8,549.8,704.6,550.3,709.3,548.6z"/>
			<path d="M368.1,686.4c-10,0.7-19,1.3-28.6,2C344.1,682.9,359.7,681.8,368.1,686.4z"/>
			<path d="M632.9,597.3c-1.1,0.7-1.7,2.4-3.3,2c-5.4-1.5-10.9-2-16.4-2.3c-2.6-0.2-5.4-1.7-4.5-4.6c0.9-3,4.1-2.3,6.3-1.3
				c5.9,2.6,11.6,5.5,18.1,6.3C633,597.5,632.9,597.3,632.9,597.3z"/>
			<path d="M723.9,498.1c0.4,1.3,0.9,2.5,1.2,3.8c0.7,3,0.7,6.3-3.2,6.6c-2.9,0.2-6.2-1.8-6.4-4.7c-0.2-2.3,0.1-7,5.4-4.8
				c0.8,0.3,2.1-0.5,3.2-0.7C724.1,498.2,723.9,498.1,723.9,498.1z"/>
			<path d="M185.5,596.2c10.1-0.1,17.2,9.7,27.6,8.7C201.6,609.3,194.1,600.9,185.5,596.2z"/>
			<path d="M486.5,636.7c-5.9,4.8-12.8,5.8-19.8,6.4c-1.4,0.1-3.5,0.6-3.6-1.7c-0.1-1.8,1.8-1.5,3-1.7
				C472.9,638.7,479.7,637.7,486.5,636.7z"/>
			<path d="M421.9,627.8c4.1-1.6,8.1-2.5,10.3,2.7c0.6,1.5,2.6,4.4-0.1,5.1C425.9,637.4,423.5,633.1,421.9,627.8z"/>
			<path d="M209.8,590.7c-0.1,1.7-1.4,2.1-2.4,1.7c-2.6-1-6.8-1.2-5.7-5.5c0.6-2.4-0.9-7.3,2.7-6.9
				C210.6,580.6,205.9,588.1,209.8,590.7z"/>
			<path d="M293.3,626.8c5.6-0.9,9.7,1.5,14,2.3c1.9,0.4,5.4,0.1,4.1,3.7c-1.1,2.8-4.1,2.7-6.4,1.7c-1.9-0.9-3.3-2.9-5.1-4.2
				C298.1,629.1,296,628.2,293.3,626.8z"/>
			<path d="M149.8,506.7c-0.2,1.7-1.4,2.1-2.4,1.6c-3.5-1.8-7.3-2.2-11-2.8c-1.6-0.3-2.4-1.3-1.1-2.8c1.3-1.5,3-2.3,4.8-1
				C143,503.7,147.4,503.4,149.8,506.7z"/>
			<path d="M412.8,599.1c6.7-4.4,13.8-3.7,20.9-2c0.7,0.2,1.6,1.1,1.6,1.7c0,1.4-1.4,2-2.4,1.6C426.3,597.5,419.6,598.1,412.8,599.1
				z"/>
			<path d="M365.5,589.2c0.2-2.6,2.1-2.1,3.5-1.8c3.2,0.8,7.3,0.9,7.8,5.1c0.2,2.1-2.8,1.7-4.4,1.6
				C369.2,593.9,366.1,593.1,365.5,589.2z"/>
			<path d="M261.8,619.8c-6.1,0.8-9.4-2.9-13.6-3.1c-1-0.1-1.9-1.3-1-2.5c0.8-1.2,2.4-1.9,3.5-1.3
				C254.3,614.7,258.1,616.2,261.8,619.8z"/>
			<path d="M393,661.2c3.5-2,5.3-4.7,8.8-4.3c1.5,0.2,3.6-0.2,3.9,1.6c0.3,1.8-1.3,3.4-3.1,3.8C399.9,663.1,397.1,662.9,393,661.2z"
				/>
			<path d="M572,575.4c5.1,1.7,6.9,5.5,11.5,6.4c-2.6,1.8-4.4,3-6.3,4.2C575.6,582.9,574.1,579.9,572,575.4z"/>
			<path d="M621.4,662.1c3.4,1,6.3-0.1,10.5-1.9c-2.3,4-3.1,7.8-6.3,8.2C622.7,668.8,622.5,664.8,621.4,662.1z"/>
			<path d="M297.2,569.5c4.5,0.9,8.3,1.6,12,2.5c0.5,0.1,1.1,1.4,1.1,2.1c0,1.2-1.1,1.3-2,1C304.6,574.1,300.1,575,297.2,569.5z"/>
			<path d="M788.2,601.1c-1.4,2,2.6,5.4-1.6,6.6c-1.4,0.4-3.1,0.4-4.2-1.1c-0.8-1.2-1.3-2.5-0.5-3.7c1.6-2.7,4.2-1.7,6.6-1.5
				C788.4,601.3,788.2,601.1,788.2,601.1z"/>
			<path d="M318.2,684.7c5.6,1,9.7,1.7,14.4,2.5C327.6,690,324.6,689.5,318.2,684.7z"/>
			<path d="M474.2,470.6c18.2-4.4,36.6-0.9,54.8-1.3c5.3-0.1,11.4,1,16.8,3c3.7,1.4,5.6,5,3.5,8.1c-3.2,4.6-2.5,9.4-2.9,14.3
				c-0.4,5.6-3.1,7.5-8.9,8.3c-19.1,2.5-37.9-2.8-57-1.1c-4.1,0.4-7.7,2.6-12.2,2c-8.4-1.1-8.4-1.5-10.2-10.9
				c-1.3-7,3.7-13.1,2.9-20.1c-0.2-1.6,2-2,3.7-2C467.9,470.7,471,470.6,474.2,470.6z"/>
			<path d="M627.5,499.1c-3.8-0.4-7.6-1.3-11.3-1c-6.5,0.4-7.6-3.3-7.4-8.3c0.2-5.3,2-10.4,2.1-15.9c0-2.5,1.2-4.7,5.1-4.6
				c11.6,0.2,23.3-0.2,34.9-0.6c2.3-0.1,4.4,0.2,6.6,0.9c1.3,0.4,2.6,1,2.8,2.5c0.2,1.7-0.5,3.2-2.2,3.7c-5.3,1.6-5.7,5.2-4.9,10
				c1.2,7.6-1.9,11.2-9.7,12.1C638.1,498.5,632.9,500,627.5,499.1z"/>
			<path d="M381.8,466.3c5.8-0.5,12.1,1.2,18.7,0.6c4.3-0.4,7.6,3.8,7.3,9.1c-0.2,4.1-1,8.1,0.5,12.4c1.7,4.9-3.7,9.9-9.1,9.1
				c-6.1-1-12.1-2.5-18.1-3.8c-2.5-0.6-4.9-1.2-7.6-0.8c-3.5,0.4-5.2-0.9-4.6-5.2c0.7-5.7,2.4-11.1,2.4-17
				C371.2,463.7,377.5,467.3,381.8,466.3z"/>
			<path d="M456.3,421.2c7.7,6.9,17.8-1.1,26.4,3.5c2,1.1,3.9-0.1,5.8-0.9c2.5-1.2,5.1-1.5,7.8-1.2c13.6,1.7,27.2,3,41.1,0.8
				c7.7-1.2,15.8,0.1,23.5-0.9c16.6-2.2,33.2,0.8,49.8-0.4c2.1-0.2,4.2-0.4,5.2,1.9c0.7,1.6-0.7,1.8-1.7,2.2
				c-1.6,0.6-2.3,4.1-5.2,0.9c-2.3-2.4-6.4-2.2-9.6-0.8c-4.9,2.1-9.6,1.7-14.3-0.1c-2.1-0.8-4.2-1.3-6.5-0.3
				c-8.3,3.6-17.1,0.4-25.7,1.5c-6.2,0.8-12.7,0.1-19.2,0.8c-8,0.9-16.2,0.6-24.2-1.1c-4.1-0.9-7.9-1.3-11.7,1.1
				c-3.9,2.5-8.2,1.5-12.4,1.2c-10.1-0.6-20.2-1.3-30.3-2c-2-0.1-4.2,0.1-4.1-3.1C451.3,421,454,422.3,456.3,421.2z"/>
			<path d="M433.1,429c-12.4,3.6-26.8-1.7-41,0.7c-1.9,0.3-4.8,0.1-5.7-1c-5.7-7-13.1-4.1-19.9-3.4c-3.8,0.4-7.5,0.8-11.3,0.8
				c-1.3,0-3,0.4-3-1.6c-0.1-1.3,1.2-2,2.3-2c4,0.2,7.7-2.5,11.8-0.7c3.2,1.3,6.9,0.3,8.7-1.9c3.2-3.9,6.4-3.7,10.1-1.8
				c4.9,2.6,10.3,1.4,15.1,1.4c12.7,0.1,25,4.1,37.8,2.7c2.6-0.3,4.8,0.6,4.3,3.6C441.6,430.1,438.1,429.5,433.1,429z"/>
			<path d="M644.3,430c-5.6,1.3-10.4-3-16-1.9c-1,0.2-2.2-0.7-2.2-2c0-1.4,1.1-1.8,2.3-1.8c5.6-0.1,11.2-0.1,16.9-0.2
				c2.2,0,3.4,1.4,3.4,3.4C648.6,430.5,645.9,429.7,644.3,430z"/>
		</g>
		<g>
			<rect x="99" y="99.7" fill="none" width="800" height="200"/>
			<path d="M246.4,269.8V150.7c-4.8,0.6-16.4,1.1-20.5,0.9v-22.9c11.7-1.1,23.5-6.7,30.6-14.3H278v155.3H246.4z"/>
			<path fill="#FF0000" d="M364.9,153.3v45.3h44.3v24.1h-44.3v45.9h-24.1v-45.9h-44.7v-24.1h44.7v-45.3H364.9z"/>
			<path fill="#FF0000" d="M418.9,157c2.2-21.9,15.5-44.7,51.8-44.7c36.2,0,50.4,20.1,50.4,41.3c0,17.7-11.3,27.3-20.5,31v0.5
				c12.5,4.3,26.8,14.7,26.8,38.5c0,23-15.2,48.5-56.9,48.5c-36.9,0-52.9-21-54.6-45.1h31c2.1,11.3,8.5,20.6,24.9,20.6
				c16,0,23.3-9.2,23.3-23.7c0-16.8-9.4-24-27.2-24h-11.9v-25h9.6c16.1,0,23.7-4.5,23.7-19.1c0-12.5-6.6-19.5-19.9-19.5
				c-13.4,0-20,7.3-21.7,20.7H418.9z"/>
			<path d="M605,153.3v45.3h44.3v24.1H605v45.9h-24.1v-45.9h-44.7v-24.1h44.7v-45.3H605z"/>
			<path d="M759.5,140.8h-62.3c-1,9.9-2.9,25.7-4,32.8c5.3-4.7,13.8-8.8,28.3-8.8c31.1,0,47,22.9,47,50.8
				c0,32.7-18.2,56.6-56.8,56.6c-29.6,0-50.7-14.3-53.2-43.9h30.9c2.5,12.1,9.3,19.4,23,19.4c17.9,0,23.9-11.9,23.9-29.8
				c0-16.2-6.9-28.3-24-28.3c-13.9,0-20.9,6.4-24.6,16.3l-26.3-4.2c3.5-18.7,9.4-68.6,11.1-87h90.7L759.5,140.8z"/>
		</g>
		<g>
			<polygon fill="#FF0000" points="349,800 499,900 649,800 			"/>
			<rect x="399" y="750" fill="#FF0000" width="200" height="50"/>
		</g>
	</g>
</g>
<g id="text">
</g>
<g id="scratch">
</g>
<g id="guides" display="none">
</g>
</svg>
