<?xml version="1.0" encoding="utf-8"?>
<!-- Generator: Adobe Illustrator 26.0.2, SVG Export Plug-In . SVG Version: 6.00 Build 0)  -->
<svg version="1.2" baseProfile="tiny" xmlns="http://www.w3.org/2000/svg" xmlns:xlink="http://www.w3.org/1999/xlink" x="0px"
	 y="0px" viewBox="0 0 800 800" overflow="visible" xml:space="preserve">
<g id="fill">
</g>
<g id="bg" display="none">
	<rect x="-3100" y="-100" display="inline" fill="#B5BD00" width="10200" height="2100"/>
</g>
<g id="counters_00000155831629897369998050000010902328751353074356_">
	<g>
		<path d="M252,188.1c1.2,0.4,2.4,1.3,3.5,1.1c5-0.7,5.1,1.6,4.7,5.7c-0.5,5.7-0.4,11.6,0.1,17.4c1.1,11.4,1.2,23.1,0.3,34.3
			c-0.5,6.2,0.6,12.4-0.2,18.6c-0.8,6.4,0.4,13.3,0.3,20c-0.2,13.5,0.2,27.1-1.7,40.5c-0.3,1.9,1.1,3.2,1.4,4.8
			c1.2,6.3-2.3,12.7-0.7,18c2.2,7.4-0.2,14.4,0.9,21.6c0.7,4.8,0.6,11-1.3,15.3c-1.8,4.1,1.8,5.6,1.3,8.9c-2.2,14.9,0.3,29.9-0.9,45
			c-0.7,9.1,0.4,18.3-0.5,27.5c-0.5,5.1,0.2,11.2,0.8,16.8c0.6,5.5-1.5,7.6-7.3,7.9c12-0.4,7.2,9.1,7,12.9c-0.2,7,1.5,14,0.5,20.9
			c-1.5,10.4-0.5,21-0.5,31.4c0,8.8-0.7,17.7,0.1,26.5c0.5,4.9,2.9,8.7,6.3,12.3c3.9,4.2,3,7.1-2.7,8c-10.8,1.8-21.6,0.8-32.4,0.2
			c-4.4-0.2-6.1-5.5-3.1-8.6c5.2-5.3,6.6-11.9,6.6-18.7c0.1-11.7,1.8-23.4,0-35.2c-0.3-2.1-0.9-4.8,1.8-6.5c0.5-0.3,0.7-1.6,0.5-2.3
			c-1.9-6.6-2-15-1.3-21.9c0.4-4.4-1-8.9-0.7-13.5c0.5-8.2-0.5-16.3,0.5-24.6c0.8-6.4-1-13.2,0.5-19.6c2-8.2-3.7-16.2-0.1-24.4
			c0.4-0.9,0.2-2.2-0.2-3.1c-3.2-7.7,0.4-15.5-0.4-23c-0.6-6.2,1.4-12.1,0.5-18.2c-0.4-2.6-1.9-3.7-3.7-4.9
			c-5.2-3.4-5.8-8.8-1.9-12.1c5.6-4.6,5.2-10.6,5-15.7c-0.3-8.3,1.9-16.6-1.1-25.2c-1.1-3.3,0.3-9.5,1.2-14.2
			c0.6-2.9,1.6-5.1-0.7-7.6c-0.4-0.5-0.5-1.7-0.2-2.4c2.6-7.5,1.9-9.4-5.7-15.9c-3-2.6-0.9-6.5-1.9-9.7c-0.7-2.3,1.6-2.5,2.8-2.6
			c8.4-0.5,7.5-8.2,6.8-12c-1.5-8.2-0.1-16,0.2-23.9c0.1-2.9-1.1-5.2-1.2-7.8c-0.3-7.3-0.4-14.7,1.9-21.8c0.7-2.1-1.1-3.5-1.5-5
			c-1.8-6,0.4-11.1,1-16.7c0.6-5.4,1.3-13.3-6.7-16.4c-1.7-0.7-2.7-2.2-0.9-3.4c3.2-2.1,5.3-4.6,6.2-8.5c0.5-2.3,3.5-2.3,5.6-2.4
			c4.8-0.1,9.6,0,14.3,0c1.8,0,4.5,0.4,4.4,1.9c-0.2,5.6,3.9,6.2,7.5,7.9c3.1,1.5,3.3,3.5-0.4,4.6c-5.2,1.5-6.2,5-5.7,10
			C261.9,187.5,256.1,186.3,252,188.1z M243.9,553.4c-0.6,2.6-4.8,5.1-0.5,7.8c1.3,0.8,3.7,1,4.8-0.4c1-1.4,2-3.5,1.1-5.3
			c-1.1-2.2-3.4-2.3-5.6-1.9c4.8-1.1,6.8-4.4,6.4-9c-0.7-10,1.4-20.3-2.2-30.2c-2.1,0.8-6.5,1.4-5.8,2.7c2.9,5.2-3,8.4-2.2,13.1
			c0.5,2.5,2.9,4.4,1.8,7.5C239.8,543.1,241.1,548.4,243.9,553.4z M244.5,264.7c-0.9,3.2-1.1,5.9,2.1,6.3c3.4,0.5,4-2.5,4.7-5
			c0.2-0.6,0-1.3,0.1-1.9c1.1-10.1-0.8-20.2-0.1-30.3c0.4-5.3,3.3-11.1-1.2-16.3c-0.5-0.6-0.3-2.6,0.4-4.2
			c2.7-6.2,0.6-12.5-0.7-18.7c-0.5-2.1-3.1-2.5-5-1.7c-2.2,0.8-1.5,3.2-1,4.5c0.6,1.5,0.8,2.7,1,4.3c0.5,5.9-0.3,11.8-0.3,17.6
			c0.1,6.8-0.5,13.6-1.5,20.5c-0.6,3.9,3.2,8.2-1.1,11.9C247.8,255.4,240.7,261.4,244.5,264.7z M249.6,405.7
			c0.3-3.7-2.1-7.4-4.6-7.1c-4.2,0.6-3.1,3.5-3,6.4c0.3,5.2,1,10.5,0.1,15.5c-0.9,4.5-1,9-0.5,13.1c0.5,4.6,0.2,9.1-0.3,13.4
			c-0.3,2.6,0.2,4.2,1.5,5.5c1.4,1.4,3.2-0.1,4.8-0.6c2.4-0.8,1.7-2.6,2.1-4.5c1.3-5.3-1.2-10.2-0.8-15.6
			C249.6,423.2,250.1,414.4,249.6,405.7z M243.3,369.5c-1,3.9-1.3,6.8,2.1,7.4c3.8,0.6,3.6-3,4.2-5.3c0.4-1.9,0.4-3.9,0.3-5.8
			c-0.3-8.4,0-16.8,0.9-25.2c0.3-3.2-0.7-6.5-1.5-9.7c-0.4-1.5-1.7-2.5-3.5-2.3c-1.5,0.2-2.4,1.1-2.5,2.5c-0.1,3.3-1.2,7.6-0.7,9.6
			C245.2,350.9,239.7,360.9,243.3,369.5z M251,308.4c-0.1-5.2,0.2-10.4-0.8-15.6c-0.7-3.4-2.6-3.2-4.6-2.7c-2.1,0.5-2.9,1.5-3.1,4.5
			c-0.3,6.1,3.4,12.6-1.5,18.3c-1.5,1.8-0.2,3.4,0.7,4.6c1.5,1.9,3.8,2,6,1.5c2.1-0.5,3.5-1.8,3.5-4.1
			C251.3,312.7,251.1,310.6,251,308.4z M250,465.2c-2.3-1.7,2.7-7.3-4.1-6.8c-5.9,0.4-4.4,4.7-4.8,7.9c-0.3,1.9,0.6,3.8,0.4,5.7
			c-0.2,2.4-1.1,5,2.8,4.8c3.2-0.2,6.3-0.9,5.9-5.1C249.8,469.6,249.1,467.5,250,465.2z"/>
	</g>
</g>
<g id="text">
	<g>
		<rect x="400" y="300" fill="none" stroke="#000000" stroke-width="10" stroke-miterlimit="10" width="200" height="200"/>
	</g>
	<g>
		<rect x="300.4" y="100.2" fill="none" width="400" height="600"/>
		<path d="M515.7,184.3c-1.3-5.3-4.3-10.3-13.6-10.3c-14.3,0-18,13.4-18.6,27.7c4.5-5.5,12-9.9,24.1-9.9c19.5,0,33.4,14.4,33.4,35.4
			c0,22.8-14.6,39.7-39.1,39.7c-30.9,0-41.2-23.8-41.2-53.9c0-27.7,9.8-56.6,42.5-56.6c23.2,0,34,14.5,35,27.9H515.7z M517.8,229.1
			c0-10.1-3.8-19.2-16.6-19.2c-10.4,0-16.4,6.1-16.4,18.4c0,8.6,4.1,20.1,16.5,20.1C512.6,248.4,517.8,239.9,517.8,229.1z"/>
		<path d="M509,459.3v-24h-48.2v-20.2l44.5-62.4h25.3v63.9h12.8l-2.1,18.8h-10.7v24H509z M509,397.6c0-11.6,0-18,0.5-24.7
			c-4.2,8.9-18.1,29.2-28.1,43.7H509V397.6z"/>
		<path d="M415.8,653.7l-23.9-39.3h-0.2l-24.4,39.3h-26l37.1-56.2L342.2,542h28l22.6,37h0.2l23.4-37H442l-36,53.2l37.7,58.5H415.8z"
			/>
		<path d="M460.1,653.7V574c-4.9,2.3-14,4.2-19.3,4.6v-17.3c10.1-1.9,20.3-7.6,26.4-14.3h16.4v106.7H460.1z"/>
		<path d="M512.8,653.7V574c-4.9,2.3-14,4.2-19.3,4.6v-17.3c10.1-1.9,20.3-7.6,26.4-14.3h16.4v106.7H512.8z"/>
		<path d="M610.4,562.3v35.7h35v19.4h-35v36.3h-19.5v-36.3h-35.4v-19.4h35.4v-35.7H610.4z"/>
	</g>
</g>
<g id="guides" display="none">
</g>
<g id="scratch">
</g>
</svg>
