<?xml version="1.0" encoding="utf-8"?>
<!-- Generator: Adobe Illustrator 26.0.2, SVG Export Plug-In . SVG Version: 6.00 Build 0)  -->
<svg version="1.2" baseProfile="tiny" xmlns="http://www.w3.org/2000/svg" xmlns:xlink="http://www.w3.org/1999/xlink" x="0px"
	 y="0px" viewBox="0 0 1000 1000" overflow="visible" xml:space="preserve">
<g id="bg">
</g>
<g id="counters">
	<g>
		<path d="M714.3,455.3c-2.3,0.1-3.9,1.3-5.6,2.1c0.3-1.6-0.3-2.5-1.9-3.1c-2.4-0.8-4.6-2-6.2-4.8c-1.6,3.9-0.7,6.6,1.9,8.9
			c-0.7,0.1-3-2.1-1.6,1c0.3,0.7,1,1.2,1.6,1.8c-5.5,0.3-1.7,4.3-2.4,6.5c-0.7,2.1,0.2,3.4,2.9,3.5c10.3,0.3,20.6,1.1,30.9,2.2
			c21,2.3,42.2,0.5,63.3,1.6c11.9,0.6,23.8,0.1,35.7,0.1c0,0.5,0,1,0,1.6c-4.8,0-9.7,0.1-14.5,0c-24.2-0.5-48.5-1.1-72.7-1.5
			c-4.9-0.1-11.4-2.3-14.5,1c-3,3.2-0.5,9.6-1.1,14.6c-0.5,4.3,1,5.5,5.4,5.5c30-0.2,59.9-0.2,89.9-0.2c10.9,0,10.9,0.2,11.2-10.4
			c0.1-2.4,0.7-5,0.1-7.2c-1.1-4.3,0.8-4.7,4.3-4.6c13.5,0.5,27.1,1,40.6,1.3c5.2,0.1,10.3-0.4,15.5,0.8c2.5,0.6,3.5,1.6,3.4,4.2
			c-0.3,4.7-0.4,9.3-0.4,14c0,2.4-1.1,3.5-3.3,3.8c4.3-5.9,1.5-12.6,2-19c0.1-1.4-1.4-1.7-2.7-1.5c-1.6,0.2-2.4,1-2.4,2.7
			c0.1,3.6,0,7.2-1,10.8c0-3.4,0-6.9,0-10.3c0-2.3-0.3-3.6-3.5-3.5c-10.2,0.1-20.4,0.2-30.5-0.8c-5.6-0.6-11.2-0.9-16.9-1.2
			c-2.6-0.1-3.7,0.6-3.6,3.4c0.2,5.4,0.1,10.7-0.1,16.1c-0.1,2.2,0.7,3.2,2.9,3.1c0.2,0,0.3,0,0.5,0c13.2-0.3,11.3,2.5,11.6-10.8
			c0-1.4,0-2.8,0.5-4.2c0,3.9,0,7.8,0,11.7c0,1.7,0,2,2.5,1.9c9.7-0.6,19.5-0.3,29.3-0.1c2.2,0,4.4,0.1,6.7-0.2
			c1.6-0.2,3.9-1,4.7,1.7c-15.8,1.4-31.7-0.6-47.5,1.2c-5.7,0.7-11.6-2-16.9-1.9c-35.7,1-71.5-2.3-107.2,1.6
			c-7,0.8-14.2,0.4-21.3,0.3c-2.7,0-4.3,0.5-4.3,3.6c0,11.3-0.2,22.5-0.3,33.8c0,3.4,1,5.4,5.1,4.4c2.6-0.6,5,0.7,7.4,2
			c2.6,1.4,3.6,4.6,7.1,5.3c2,0.4,2.2,3.6-0.6,4.6c-1.7,0.6-3,1.4-4.2,2.7c-3,3.4-7.2,4.7-11.3,3.4c-4.3-1.3-3.6,0.9-3.8,3.4
			c-0.4,6.2,1,12.4-1.1,18.5c-1,3,1.5,2.6,3.4,2.9c1.7,0.2,3.8-1.1,5,1.5c2.6,5.9,4.9,11.9,4,18.6c-0.3,2.3-1.6,5.2-1.1,6.8
			c2.9,8.4-1.1,16.7,0.7,25c0.4,1.6,0.1,3.4,0.1,5.2c-0.1,3.1-2.2,4.6-4.7,6c-3.1,1.8-6.5-0.9-8.8,0c-5.8,2.3-11.5-2.1-17.3,0.6
			c-2.1,1-5.4,0.9-7.8-1.4c-0.7-0.7-2.3-0.4-3.8,0.1c-8,2.4-16.1,1.2-24.2,0.6c-0.6,0-1.2-1-1.8-0.9c-1.1,0.1-2.3-1.2-3.2,0.4
			c-1.2,2.1-3.5,1.8-5.1,1.3c-4.8-1.2-9.5-1.9-14.4,0c-1.7,0.7-3.6,0-5.4-1.2c-1.3-0.9-3-1.8-4.6-0.4c-3,2.7-6.4,1.9-9.5,0.5
			c-2-0.9-3.4-1.5-5.6-0.1c-2.9,1.9-6.2,1.8-9.3,0c-1.7-1-3.5-1.8-5.1-0.5c-3.3,2.6-6.5,2-10,0.4c-1.4-0.7-3.8-1.5-4.5-0.8
			c-3.5,3.1-6.8,1.9-10.4,0.6c-1.5-0.5-3.1-1.9-4.9,0.2c-1.3,1.5-3.8,1.4-5.4,0.8c-4.7-1.7-9.2-0.7-14-0.3
			c-4.8,0.4-9.6-1.2-14.8-0.1c-4.6,1-9.4-1.4-14.7,0c-4.4,1.2-9.3-1.7-14.7-0.2c-4.4,1.2-9.8-0.5-14.9,0c-5,0.4-10.4-1-15.6,0.3
			c-2.8,0.7-5.2-2.8-7.3-1.6c-7.1,4.2-14.7-2.6-21.7,1.3c-1.4,0.8-3.6,0.3-5.3-1.1c-1.1-0.9-2.9-1.4-4.1-0.4
			c-3.5,2.8-6.9,2.1-10.5,0.4c-1.4-0.6-2.9-1.2-4.3-0.3c-3.5,2.4-6.9,1.8-10.5,0.1c-1.5-0.7-3.1-1.4-4.8,0c-3.1,2.5-6.4,1.6-9.6,0.3
			c-1.7-0.7-3.7-1.8-5.1-0.3c-2.1,2.3-4.8,1.8-6.8,1.2c-3.9-1.2-7.2-1.2-11.4-0.5c-5.8,0.9-12.2-0.5-18.4,0.4
			c-0.9,0.1-1.9-0.9-2.9-0.8c-6.5,0.4-13.1,1.4-19.6-0.4c-0.1,0-0.3,0.2-0.4,0.3c-7.9,1.5-15.8-0.4-23.7,0.4c-0.1,0-0.3-0.2-0.4-0.3
			c-1.8-1-3.6-0.9-5.4,0c-3.3,1.6-6.6,1.6-9.9-0.1c-1.6-0.8-3.2-0.4-4.9-0.1c-7.7,1.5-15.6,0.1-23.4,0.7c-1.4,0.1-3.2-1.8-4.9-1
			c-7.7,3.6-15.7-1.4-23.4,1c-0.6,0.2-1.4-0.1-2-0.5c-2.2-1.2-4.1-0.3-6.3,0c-7.5,0.9-15.2-0.4-22.8,0.5c-0.5,0.1-1.2-0.7-1.8-1
			c-1.3-0.6-2.8-0.7-4,0c-3.4,1.8-6.8,0.6-10.3,0.3c-6.2-0.5-12.6,2.3-18.7-1c-0.1,0-0.3,0.2-0.4,0.3c-3.5,3.1-6.8,1.5-10.8,0.5
			c-3.5-0.9-6-4.2-9.9-3.7c-1.1,0.1-2.7-0.3-2.7,1.6c0,1.6,1.3,1.8,2.6,1.8c1.6,0,3.2,0,4.7,0c-3,1.4-6,1.9-8.8,0.4
			c-1.3-0.7-3.4-1.2-3.8-0.8c-2.8,2.7-5.5,1.3-8.5,0.6c-1.7-0.4-3.4-0.5-4.9-1.5c-1.2,4-1.7,0.8-2.7-0.1c-2.3-2.1-2.4-4.7-2.3-7.5
			c0.1-11.5,0.2-23,0.1-34.5c0-5.7-0.7-11.3,4.1-15.9c2.5-2.4,0.4-3.7-2.2-3.4c-3.7,0.4-5.1-1.3-5.1-4.7
			c-0.3-11.4-1.2-22.9-0.5-34.2c0.5-7.8,0.8-15.5,0.8-23.3c-0.2-23.6,0.3-47.1-0.1-70.7c-0.1-9.8,1.1-19.6,1.1-29.5c0-3,1-5.5,5-5
			c0.9,0.1,2.1,0.3,2.8-1.7c-6.2-4.4-4.6-11.2-4.8-17.7c-0.1-2.1,1.4-4.2,1.1-5.9c-1.8-9.1-0.1-18.3-1.1-27.4
			c-0.5-4.5,2.6-6.9,4.7-9.8c1.6-2.3,3.2,0.7,4.9,1c0.5,0.1,1-0.2,1.5-0.3c6.2-1.6,12.7,0.6,18.9-1.2c0.5-0.1,1.4,0.3,1.8,0.7
			c2,2.2,4,1.6,5.9,0c1.2-1,2.7-1.2,3.9-0.8c5.4,1.7,10.8,1.7,16.3,0.6c1.3-0.3,2.8-0.4,3.6,1.2c0.8,1.8,2.2,0.7,3.1,0.3
			c7.7-3.3,15.8,0.7,23.6-1.5c0.9-0.2,2.1,0.2,2.9,0.7c1.7,0.8,3.3,0.7,5,0.2c7.6-1.9,15.4,0.9,23.1-0.7c0.7-0.1,1.5,0.7,2.3,1.1
			c1.3,0.6,2.5,0.6,4,0.1c7.8-2.8,15.9,0.2,23.8-1.1c0.4-0.1,1,0.3,1.3,0.7c1.5,1.3,3.3,1.3,4.8,0.2c2.6-1.8,5.5-1.4,8-0.7
			c6.9,2,14,0.4,20.7,0.2c7.1-0.2,14.5,2.4,21.6-0.4c2.6-1,5,2.6,7.4,1.5c7.4-3.5,15.1,0.9,22.5-1c2.7-0.7,5.2,2.1,8.1,1
			c7.7-2.8,15.6,1.5,23.3-0.9c0.4-0.1,1.2,0.1,1.4,0.4c1.6,2.3,3.5,1.2,5.3,0.6c3.9-1.3,7.3-0.6,11.3,0.5c3.2,0.9,7.6-2.3,11.8-1.5
			c0.3,0.1,0.9,0.1,1,0.3c1.4,2.9,3.8,1.2,5.2,0.7c7.9-2.4,15.9,1.3,23.7-0.8c0.3-0.1,1,0.4,1.3,0.8c1.4,2,3.4,0.8,4.7,0.3
			c4-1.6,7.2-1.4,11.4,0.7c2.8,1.4,7.4-2.8,11.7-1.8c0.5,0.1,1.2,0.2,1.4,0.6c1.5,2.7,3.8,1.5,5.3,0.7c3.5-1.9,6.7-0.6,10.2-0.4
			c6.3,0.4,12.7-1.8,18.9,0.9c0.2,0.1,0.8-0.6,1.2-0.9c1-0.8,2.2-0.8,3.5-0.6c4.8,0.5,9.3,1.1,14.4,0.4c5.5-0.8,11.6,1,17.5,0
			c1-0.2,2.6-0.1,2.9,0.4c1.3,2.2,3.3,1.2,4.5,0.8c7.7-2.9,15.6,1.2,23.2-1.1c0.4-0.1,1.2-0.1,1.5,0.2c2.2,2.1,4.3,0.4,6.5,0.2
			c7.5-0.7,15.1,0.6,22.7-0.3c0.2,0,0.4,0,0.5,0.1c2.1,2,4.1,0.6,6.4,0.4c7.6-0.6,15.2-0.2,22.8-0.2c0.1,0,0.3,0.3,0.4,0.3
			c6.7,0.3,13.5,1.2,20.1,0.5c3.5-0.4,6.7-0.7,10,0.2c1,0.3,2,0.9,2.9,0.5c7.7-3,15.7-0.1,23.6-0.6c7-0.4,14.2-0.2,21.4-0.4
			c5.2-0.2,8.6,3.2,8.9,8.3c0.4,6.9-1.5,13.8-0.1,20.7c0.6,2.9-1.4,6.4-1,8.8c1.1,7.9,1.6,15.1-2.5,22.7c-1.8,3.4-3.1,4.1-6.2,4
			c-1.4-0.1-3.3-0.2-2.7,1.9c1.9,6.5,0.7,13.1,0.9,19.6c0.1,1.9,0.2,2.8,2.6,2.2c4.5-1.1,8.9,0,11.6,3.8c1.8,2.4,5.9,1.6,6.3,4.8
			c0.5,4.1-4.3,2.7-6,5.2c-2.6,3.9-7.1,5.2-12,3.6C711.2,459.6,711.2,459.6,714.3,455.3z M498.5,640.4c-4.7-1.5-8.7-0.8-12.8,0.9
			c-0.4,1.8-4.1,0.4-3.3,2.9c0.8,2.4,3.2,1.2,4.9,1.2c0.8,0,2-0.3,2-1.2c0-2.3-2.8-1.5-3.7-2.9C489.7,641,494,642.8,498.5,640.4z
			 M706.3,545.9c-4.8-0.3-8.7-0.4-6.9,7.4c3-3,6.3-5.1,10.5-5.4c-3.1,2-1.1,4.9-0.3,6.4c0.9,1.7,3.1,0.5,4.5-1.1
			c0.4-0.5,1.2-0.6,1.8-0.8c1.3-0.4,3.1-0.5,2.5-2.4c-0.5-1.6-2-0.8-3.1-0.7c-1,0-2.1,0.4-2.6-0.9c0.4-0.4,1.6-0.2,1.2-1.1
			c-2.1-5-9.2-6.4-13.9-2.4c4.8,0.2,9.6-0.7,12.8,3.6c-1-0.2-2-0.4-3-0.7C708.4,547.5,707.9,546,706.3,545.9z M415.3,510.1
			c0.6-2.8-0.7-3.6-3.3-3.5c-2.9,0-5.6,0.1-6.6,3.4c-0.2,0.6-0.1,1.4-0.1,2c-0.3,7.4-0.3,7.4,6.9,7.2c0.9,0,1.8,0.1,2.6-0.2
			c1.9-0.7,5.3,2.3,5.7-2.5C420.8,512.3,419.6,510.1,415.3,510.1L415.3,510.1z M615.8,564.7c1.7,0.4,3.7,0.3,5.4-0.1
			c1-0.3,0.7-1.7-0.2-2.5c2.4,0.1,2.2-1.8,2.2-3.2c0.1-5.7,0.1-11.4,0-17.1c-0.1-2.6-0.4-4.8-4.3-4.9c-3.9-0.1-4.4,2.4-4.2,4.7
			c0.4,6.7-1.6,13.6,0.9,20.2C615.6,562.8,614,564.3,615.8,564.7z M577.5,466.1c1.2-1.2,3.5,1.8,3.7-0.8c0.3-4.1,0.4-8.3-0.1-12.3
			c-0.2-1.8-2.7,1.3-4.2-0.6c-0.5-0.7-0.9,1-0.9,1.7c-0.1,5.1-0.1,10.2-0.1,15.4c-0.2,16.3-0.4,32.5-0.7,48.7c0,2.3-0.5,4.6,3,4.8
			c4,0.3,2.9-2.6,2.9-4.6c0.1-9.5,0.2-19,0.1-28.5c0-1.3,1.4-4.5-2.5-2.5c-1,0.6-2.4-0.9-2.4-2.1c0-1.4,1.2-2.9,2.7-2.2
			c2.9,1.5,2.3-0.5,2.3-2c0-1.7-0.2-3.5,0.1-5.2c0.8-4.5-0.3-7.2-5.6-6.5C575.8,468.2,576.5,467.2,577.5,466.1z M364.9,513.6
			c-2.2,4.8-2.9,9.2-1.2,14.6c1.6,5.3,1,11.3-0.6,16.9c-0.7,2.6-2.4,5.9,2,7.2c-5.8,2.5-3.7-2.8-5.6-4.9c0,9.7,0.1,19.3-0.1,29
			c-0.1,2.7,2.1,7-3.5,7.5c-0.3,0-0.6,1.9-0.6,2.9c-0.1,6.2,0,12.4,0.6,18.8c3.8-11.4,12.2-21,12-33.8c-0.1-5.2-0.1-10.4,0.2-15.6
			c0.1-2.6-1.2-3.3-3.1-3.8C364.9,539.5,364.9,526.6,364.9,513.6z M525.3,407.8c-10.6-3.2-21.1-6.6-31.7-9.8c-1.6-0.5-4-3.4-5.3,0.4
			c-1.1,3.4,1.9,3.6,3.8,4.2c18.8,6,37.6,11.9,56.4,17.8c3.5,1.1,7.2,1.7,10.4,3.3c4.6,2.3,8.1,1.3,11.5-2c0.5-1.4,2.4-0.2,2.5-0.9
			c0.2-1.3-1.3-0.3-2.1-0.9c-5.5-4.2-12.5-4.6-18.7-7c-5.2-2-10.5-3.6-15.8-5.1c-1.3-0.4-3.1-2.2-4.7,0.6c10.6,3.3,21,6.5,31.4,9.9
			c2.5,0.8,5.5,0.9,7.4,3.3C555.1,417.8,540.3,412.4,525.3,407.8z M662.7,448.3c-1.3,0.1-2.9-0.4-3.2,1.6c-3.4-2.3-7.2-1.6-12.1-1.4
			c4.9,4.6,7.9,9.2,6.6,15.4c-0.3,1.4,1.2,1.3,2.1,1.7c1.4,0.7,1.5,2.7,0.5,2.9c-4.3,1.1-2.5,4.4-2.6,6.7
			c-0.3,7.3-0.2,14.5-0.2,21.8c0,1.9-0.8,4.2,2.4,4.8c1.2,0.2,1.3,2.1,0.4,2.4c-4.9,1.9-2.3,5.6-2.4,8.6c-2.4,2.9-4.7,5.7-7.5,9.1
			c5.1,0.7,9.6,0.8,13.8-1.9c-1.6,2.2-0.4,2.5,1.5,2.5c6.3-0.1,12.8,0.6,18.6-3.1c1.8-1.2,4.2-1.5,6.3-2.2c-0.2,0.2-0.5,0.7-0.7,0.7
			c-7.6,1.6-7.2,7.4-7.1,13.2c0.1,11.2,0,22.5,0,34.5c6.2-3.8,12-7.3,17.8-10.9c1.1-0.6,1-1.8,1-2.8c0-17.1,0-34.3,0-53
			c-2.8,3.2-8.1,2.8-3.9,8.8c2.9,4.2-2.7,6.5-4.6,9.6c1.3-4.7,0.8-9.6,1.1-14.4c0.2-2.5-0.9-3.1-3-2.8c-4.9,0.5-10-0.9-14.8,1.5
			c-0.8,0.4-2-0.1-3-0.2c-2.1-0.3-4.8-3-5.6,2.8c1.4-6.3-2.5-10.1-3.2-14.7c-1-6-0.3-11.9,3.5-16.8c3.2-4.2,2.3-8.8,2.4-13.4
			c0.1-1.9-1.5-2-3-2c-2.4,0-4.8,0-8,0c2.7-1.4,4.7-0.6,6.7-0.9c1.6-0.2,2.2-0.9,1.2-2.4c2.4,0.8,3.5,2.2,3.6,4.9
			c0.4,9.9,0.5,9.9,10.3,11.1c0.3,0,0.7,0.1,1,0.1c12,1.2,12.1,1.1,11.9-10.9c0-3.6-1.5-5.3-4.9-5.9c-1.7-0.3-3.4-0.6-4.5-2.1
			c5,0.7,9.6,2,12.3,6.9c1.3,2.3,1.9,4.5-0.1,6.6c-1,1-2.4,1.7-0.6,3.2c1.3,1.1,2.5,2.9,4.3,2.5c1.7-0.4,0.9-2.3,1.1-3.6
			c0.1-1.4-0.2-2.8,0.1-4.1c3.3-13.9-5.8-20.2-15.8-26c-1.8-1.1-3.3-1.5-3.1,1.5c0.4,4.5-1.7,9.3,2,13.3
			C675.5,448.7,669.2,447.6,662.7,448.3z M420.5,408.9c2.1-0.6,4.3-1,6.4-1.4c-0.1-0.6-0.2-1.1-0.4-1.7c-17.1,3.7-34.2,7.3-51.3,11
			c0.1,0.5,0.2,1.1,0.3,1.6c6.7-0.6,13.3-2.5,19.9-4c-2.8,2.9-6.7,2.3-10.1,3.3c-2.6,0.8-5.5,0.8-8.1,1.8c-1.7,0.7-5.2-0.3-4.9,2.3
			c0.5,3.2,3.5,3.6,6.6,2.8c6.7-1.6,13.5-2.9,20.3-4.4c26.9-5.8,53.7-11.6,80.6-17.4c1.3-0.3,2.7-0.8,4-1c2-0.2,2.7-1.1,2.4-3.1
			c-0.4-2.6-2-2.2-3.9-1.8c-19.6,4.3-39.2,8.5-58.9,12.7c-6.8,1.4-13.6,2.7-20.4,4C408.6,410.6,414.8,410.5,420.5,408.9z
			 M480.3,603.7c1.9,0.4,4.1,2.1,4.7-1.5c0.6-3.4-2.1-2.9-3.9-3.3c-27.3-6.2-54.6-12.3-81.9-18.5c-2.2-0.5-4.4-0.6-6.3-2
			c11.4,1.1,22.3,4.6,33.5,6.8c10.7,2.1,21.3,4.5,31.9,7c3.3,0.8,3.9-0.2,3.8-3.1c-0.2-5,0-10.1-0.1-15.1c0-1.5,0.7-3.2-2.3-3.4
			c-2-0.1-1.8-3.1,0-3.1c3.7,0,2.6-2.3,2.7-4c0.1-2.2-0.1-4.5,0.1-6.8c0.1-2,0.7-3.9-2.6-3.3c-0.8,0.2-1.7-0.6-1.5-1.6
			c0.1-0.6,0.8-1.6,1.1-1.6c4.6,0.7,2.9-2.8,3.1-4.8c0.2-2.2-0.2-4.5,0.2-6.7c0.6-3.9-4.1-1.2-4.4-4c-0.4-3.5,5,0,4.4-3.9
			c-0.4-3.1-0.1-6.2-0.2-9.3c0-1.4,0.1-2.9-2.2-2.4c-1,0.2-1.7-0.3-2-1.3c-0.2-0.9,0.4-2.1,1.2-2.1c6,0,2.7-4.5,2.7-6.6
			c0-2.3,2.8-6.2-2.3-7.3c-1.9-0.4-2.2-3.1-0.2-3.2c3.9-0.1,2.7-2.5,2.8-4.4c0.1-2.1,0.1-4.2,0.1-6.2c0-1.8,0.6-3.6-2.6-3.6
			c-2.1,0-1.9-2.2-0.2-3.3c4.2-2.9,4.2-11.3-0.2-14c-1.2-0.7-1.3-2.2-0.4-2.4c5.9-1.1,3.2-5.6,3.6-8.7c0.3-2.4,1.6-5.7-3.2-6.4
			c-2-0.3-0.6-2.9,0.5-2.8c3.5,0.2,3.1-2.2,2.6-3.9c-1.1-3.6,3.3-8.7-3.2-10.8c-1.3-0.4-0.4-2.2,0.5-2.3c3.8-0.1,2.7-2.8,2.7-4.8
			c0.1-5.7,0-11.4,0-17.4c-19,4.1-37.4,8-55.8,12c-9.3,2-18.6,4-27.8,5.9c-2.6,0.5-4.1,1.2-4.1,4.6c0.2,15.9,0,31.9,0,47.8
			c0,1.8-1.4,5,2.9,4c0.3-0.1,1.3,0.8,1.3,1.3c0.1,1-0.7,1.4-1.6,1.5c-5.8,1.1-1.7,5.4-2.4,8c-0.8,2.9,2,2.5,3.8,2.5
			c10.2,0,20.5,0.2,30.7,0c3.7-0.1,5.5,1.8,8.1,4c4.4,3.7,4.4,11.5,11.8,12.4c1.4,0.2,2.1,2.2,1.8,3.9c-0.2,1.8-1.3,3.1-2.9,3.3
			c-4.7,0.7-7,4.1-7.3,8c-0.3,4.8,1.2,9.2,7.2,10.2c1.8,0.3,2.7,2.1,2.8,4c0,2.1-1.4,3.1-3,3.8c-6.4,2.8-10,11.8-7.3,18
			c0.7,1.5,2.1,0.9,3,1.5c1,0.7,1.9,1.7,1.7,3c-0.2,1.5-1.3,2.5-2.9,2.5c-2.8,0.1-5.5,0.1-8.3-0.1c-1.3-0.1-2.2-1-2.5-2.3
			c-0.3-1.1,0.1-2.5,1.1-2.7c5.5-1,3.5-5.3,3.8-8.5c0.1-1.7,0-3.4,0-6c-2.3,2.5-4.5,2.2-6.8,2.2c-9.9,0-19.7,0.5-29.6-0.2
			c-4.1-0.3-6.7,1-6.1,5.8c0.3,2,0.1,4.2,0,6.2c-0.4,5-0.8,9.9,5.5,11.7c-3.6-1.1-7.2-2-9,3.3c6.9,1.7,13.6,3.4,20.4,5.1
			c-5.8,0.3-11.2-2.8-17-2.7c-0.1,0.5-0.2,1-0.3,1.5c17.2,3.8,34.3,7.6,51.5,11.4c0.1-0.5,0.2-0.9,0.3-1.4
			c-11.4-3.6-23.5-4.7-34.7-8.9C420.9,590.7,450.6,597.2,480.3,603.7z M412.1,530.8c1.1,1.8,2.8-0.6,4,0.9c1,1.2,2.5,0.4,3.5-0.2
			c0.4-0.2,0.5-1.6,0.2-2.3c-0.5-1.5-2-0.8-3.1-0.9c-1-0.1-2,0-3,0.1c0-1-0.1-2.1,0-3.1c0.6-3.9-0.9-5.6-4.9-4.7
			c-4.6,1.1-5.2-1.1-5.7-5.2c-0.8-6.5,2.5-9.5,7.6-11.8c1.1-0.5,3.1-0.7,2.6-2.6c-0.4-1.6-1.7-2.5-3.5-2.5c-11.4,0-22.9,0-34.3-0.1
			c-2.1,0-2.7,0.8-2.7,2.7c-0.1,15.3-0.1,30.5-0.3,45.8c0,2.1,0.9,2.7,2.8,2.6c4.4-0.2,8.9-0.3,13.4-0.4c0.3,0,1,0.2,1,0.2
			c1.7-6,6.5-2.1,9.8-3.2c0.3-0.1,0.8,0,1-0.1c4.4-3.4,2.3-8.2,2.5-12.4c0.1-2.7-1.3-5-4.7-4.8c-1.7,0.1-3.7-0.5-5.1,0.2
			c-1.8,0.8-2.5,0.5-2.3-1.2c0.3-2.8-1.5-2-3.3-1.9c2.8-1.2,2.8-1.2,5.2,1.2c1.1,1.1,2.6,0.4,3.9,0.6c2,0.3,4.9-1,5.9,1
			c2.9,6.2,6,2.4,9.1,0.7c0.7-0.4,1.6-0.6,2.4-0.9C413.3,529.1,412.7,530,412.1,530.8z M514.7,635.5c3.6,0.6,6.7-1.2,9.9-2.1
			c1.6-0.5,1.8-1.8,1.5-3.3c-0.3-1.7-1.2-2.3-2.9-2c-3.6,0.6-7.3,0.3-10.4,3.2c-2.4,2.3-6.2,1.7-9.2,2.9c-1.6,0.7-4.6-0.3-4.4,2.4
			c0.2,2.8,3.3,0.1,4.7,1.5c1.8,1.2,3.9,1.1,6,1.1c33.4,0.2,66.8,0.3,100.2,0.8c4.8,0.1,6.2-1.2,6-6c-0.4-9.3-0.1-18.6-0.1-28.4
			c-9,3.2-17.6,6.5-26.3,9.5c-17,5.8-34.5,10.2-52,14.1c-3.5,0.8-6.5,2-9.7,3.9c-4.6,2.9-9.8,4.6-15.6,3.7c-2.7-0.4-5.8,0.9-8.6,1.4
			C507,635.9,510.7,634.8,514.7,635.5z M344.4,400.2c6.1,0.3,7.8,2.3,8.2,8.2c0.2,2.5-1.6,7.3,1.1,7.2c3.8-0.1,1.6-4.7,1.7-7.3
			c0.3-5,0.1-10,0-15.1c0-2.8,0.9-6.3-5-4.8c3.4-1,4.1-2.5,4.1-5.1c-0.1-8-0.2-15.9,0.1-23.9c0.1-3.4-1.2-4-4.2-3.9
			c-11.2,0.3-11.3,0.2-11.5,11.4c-0.1,5,0.3,10.1-0.1,15.1c-0.3,4.4,1.2,6,5.5,5.4c1.2-0.2,2.4,0,3.6,0.1c-10.5,2.4-21.1,1.5-31.6,1
			c-12.3-0.5-24.5,0.4-36.8,0c-2.5-0.1-2,1.2-2.1,2.5c-0.1,7.3-0.1,14.5-0.2,21.8c0,2.5,1.1,3.2,3.4,3.2c12.8,0,25.6,0,38.4,0.2
			c2.6,0,3.3-1.1,3.2-3.4c-0.1-1.9,0.1-3.8,0-5.7c0-1.6,0.3-3.1,1.3-4.4c2.3-3.1,12.1-4.7,15.8-2.6c-3.3,1.2-6.8,1-10.2,1.2
			c-2.8,0.2-4.7,1.6-5.3,4.1c-0.9,3.4-1,6.8,0.1,10.2c0.3,1,1.8,0.7,2.8,0.7c6.9,0,13.9-0.1,20.8,0.1c2.7,0,3.8-0.9,3.6-3.6
			c-0.1-1.7,0.1-3.5,0-5.2c-0.2-3.8-2-6.1-6.1-6.2c-2-0.1-4.2,0.7-5.8-1.3C340.9,400.1,342.6,400.1,344.4,400.2z M649.5,445.6
			c0-6.6-0.1-12.3,0-18c0.1-2.7-1-3.5-3.7-3.6c-5.8-0.3-11.8,1.4-17.4-1.5c-0.3-0.1-0.9-0.2-1,0c-2.1,3.3-0.4,7-1,10.4
			c-0.4,2.5,1.6,2,3.1,2.3c2.8,0.5,6.5-1.7,8.2,2.4c-13.5-0.8-27-0.5-40.5-0.6c-3.8,0-7.6,0.2-11.4-0.1c-2.8-0.2-4.8,1-6.1,3.1
			c-1.9,3,1.6,2.7,2.7,3.7c1.1,1.1,0.6,2.3,0.6,3.4c-0.2,24.8-0.4,49.5-0.7,74.3c0,1.8,0.6,3.9-1.3,5.3c-4,2.9-0.4,3.7,1.4,4.8
			c0.7,0.4,1.7,0.2,2.6,0.2c17.1,0.1,34.2,0.1,51.3,0.2c4.6,0,8-1.8,10.6-5.4c0.6-0.8,1.5-1.8,0.7-2.7c-0.4-0.4-1.6-0.4-2.4-0.2
			c-12.6,2.8-25.4,0.7-38.1,1.3c-2.6,0.1-3.1-1.5-3.1-3.7c0.1-4.2-0.1-8.2-5.5-9.3c-1.3-0.3-1.6-1.6-1.6-2.9c0-2.9,0.1-5.9,0-8.8
			c-0.1-2.8,1.1-4.4,3.9-4c2.9,0.4,3.4-0.9,3.3-3.4c-0.1-5.7,0-11.4,0.1-17.2c0-1.9-0.2-2.8-2.5-2.4c-3.3,0.6-4.8-1.1-4.7-4.4
			c0.1-2.8,0.1-5.5,0.1-8.3c0-1.6,0.4-3.2,1.9-3.2c5.6-0.3,5.5-4.6,5.2-8c-0.3-4.6,1.6-5.2,5.4-5.1c10.4,0.4,20.7,0.6,31.1,0.6
			c2.4,0,4.1,1.4,6.5,2.2c-0.3-1.8-0.5-3.3-0.8-4.8C647.3,443.2,648,444,649.5,445.6z M269.9,643.8c9.8-0.9,9.8-0.6,9.8-10.5
			c0-5.9-0.1-11.8,0-17.7c0.1-2.7-0.5-3.9-3.6-4.1c-12.6-0.5-12.5-0.7-12.6,11.9c-0.1,5,1,10-0.9,14.9c-1-8.4,0-16.9-0.3-25.3
			c0-0.3,0-0.8,0.2-1c7.3-4.6,3.1-11.7,3.6-17.6c1-10.8,0.4-10.8-10.4-10.9c-28.6,0-57.2,0-85.8-0.2c-3.9,0-5.4,0.8-5.4,5.1
			c0.2,15.2-0.2,30.5-0.2,45.7c0,1.7-1.1,4.4,2.1,4.2c2.6-0.1,1.6-2.7,1.6-4.2c0.1-6.4,0.3-12.8,0-19.2c-0.2-3.7,1.1-4.7,4.7-4.7
			c19.2,0.2,38.3,0.6,57.5,0.2c8.6-0.2,17.2,0.4,25.8,0.2c3-0.1,3.9,0.9,3.8,3.9c-0.2,6.9-0.2,13.9-0.2,20.8c0,2-0.2,4.2,3,2.8
			C262.6,643.2,265.1,644.2,269.9,643.8z M251.8,453.6c6.1,5.5,4.1,11.2,3.2,17.3c-0.1,0.7-2.1,1.5-0.1,2.2c1.1,0.4,2-0.2,2.1-1.6
			c0-0.2,0-0.4,0-0.5c2.2-10.5,3.9-11.9,14.3-11.9c23.8,0.1,47.6,0.2,71.5,0.3c2.8,0,6-0.5,7.8,2.7c-6.2-2.5-12.7-1.3-19-1.4
			c-21-0.3-41.9-0.2-62.9-0.3c-6.9,0-10.8,4-10.2,10.2c0.1,1.2,0,2.4,1.8,2.5c7.1,0.3,2.7,5.7,3.6,8.6c0.7,2.5,0.5,5.4-3.6,5.1
			c-2.5-0.2-1.9,1.9-2,3.4c-0.1,5.5-0.1,11.1,0,16.6c0,2.8-1.3,6.6,4,6.3c0.9-0.1,1.5,0.9,1.5,1.8c0,3.3,0,6.6-0.1,9.9
			c0,0.5-0.8,1.5-1.1,1.5c-5.9-0.4-4.7,3.7-3.9,6.8c0.9,4,3.9,5.9,8.1,5.9c9.7,0.1,19.4,0.2,29.1,0.2c13.7,0.1,27.3,0,41,0.1
			c4.8,0,9.7,0.2,14.3-1.7c-4.4,1.6,0.2,4.9-1.3,7.2c-0.1,0.1,2.2,0.5,2.2,0.4c-0.1-2.8,3.6-2.8,3.7-5.2c0.1-1.3,0.5-3.1-0.9-3.8
			c-1.7-1-2.8,0.8-4,1.6c2.9-6.9,2.3-14.1,2.3-21.3c0-14.6,0-29.3,0.2-43.9c0.1-4-0.6-7.5-3.1-10.6c4.5,1.4,4.4,5.3,4.4,8.8
			c0.1,10,0,20.1,0,30.4c2.3-1.6,1.7-4,1.8-6c0.2-5-1.1-10.4,0.2-15c4.6-16.1,1.2-32.5,2.3-48.7c0.8-11.6,1.7-9.4-8.8-9.5
			c-37.2-0.3-74.4-0.4-111.6-0.7c-4.4,0-6.2,0.8-6.2,5.9c-0.1,48.3-0.5,96.7-1,145c0,3.9,0.8,5.4,5,5.4c38.5-0.1,77-0.2,115.4,0.1
			c5.6,0,6.6-1.8,6.4-6.8c-0.4-6.7-0.1-13.5,0.1-20.3c0.1-2.8-0.7-4.7-4.1-5.3c0,6.2-0.3,12.2,0.1,18.2c0.3,4.9-2.3,5.4-6,5.2
			c-17.9-0.7-35.8-0.4-53.7-0.5c-10.5-0.1-21.2,1.7-31.5-1.7c-1.4-0.5-1,1.1-1.8,1.3c-2,0.3-4,0.7-4-2.3c0-5.9,0.5-11.8,0-17.6
			c-0.3-3.4,2.9-2.3,3.9-4.3c2.1-4.3,2.7-0.4,3.7,1.4c0.2,0.4,1.6,0.3,2.5,0.3c4.5,0,9,0,13.5-0.1c1,0,2.4,0.6,2.9-1.2
			c1-3.3,2.6-2.9,3.6-0.1c0.5,1.5,1.4,1.3,2.3,1.3c5,0,10.1,0,15.1,0c1.6,0,1.8-0.7,2.1-2.1c0.3-1.4,2.4-1.9,2.7-0.8
			c1.5,4.7,5.2,2.6,8,2.9c2.9,0.3,6.1,0.8,8.8-0.1c3.5-1.2,6.2-2.7,9.8,0c1.3,1,4.1,0.4,6.1,0.1c1-0.1,3.5,1.5,3-1.7
			c-0.3-2-1-2.9-3.2-2.9c-9.7,0.1-19.4,0.1-29.1,0.1c-15,0-30.1,0-45.1-0.1c-7.2-0.1-10.7-3.7-11.3-11.3c-0.1-1,0.6-2.9-1.3-2.7
			c-2.1,0.2-0.7,2-0.5,2.8c1,5.6,2.2,10.6-3.3,15.3c-4.9,4.2-6.3,4.6-10.2-1.5c2.3,0.4,3.7,5.1,6.9,1.7c2.6-2.8,3.5-11.4,1.4-13.4
			c-2.9-2.7-5.8-0.2-8.1,0.9c-2.8,1.3-7,2.7-5.2,7.6c-0.8-0.8-2.3-1-2.5-2.4c-0.5-3,7.8-12,10.7-11.4c4.3,0.8,6.8,0.2,6.2-5.1
			c-0.4-3.7-1.5-8.4,5.1-8.3c1.3,0,0.8-2,0.9-3.2c0-5.4,0.1-10.7,0-16.1c0-3.1,1.7-7.2-4.2-7.2c-1.4,0-1.8-1.8-1.8-3.3
			c0.1-2.4-0.4-4.9,0.2-7.2c0.5-2.3-0.2-3.1-2.1-2.6c-6.1,1.5-8.9-2.4-11.9-6.6c-4-5.5-4-6.1,2.4-9c-0.3,2.1-4.5,2.7-3.1,4.7
			c2.5,3.5,6.8,5,11,6.1c2.4,0.6,3.2-1.5,3.5-2.9c1-4.3-0.1-8.5-2.4-12.1c-1.5-2.4-3.2,1.1-5,0.5
			C246.1,450.1,247.9,450.1,251.8,453.6z M561.8,571.7c1.8-0.3,1.4-1.7,1.4-2.8c0.1-3.3-0.6-6.8,0.4-9.8c1.4-4.3-4.6-3-3.8-6
			c0.6-2.1,4.8-1.4,3.8-5.3c-0.7-2.9,0-6.2,0-9.3c0-1.5,0.6-3.5-2.3-3.4c-0.4,0-1.1-1.2-1.4-1.9c-0.1-0.2,0.6-1,1-1.1
			c3.8-0.2,2.2-7.5,8.1-5.7c3.6,1.1,8.1,1.5,12.3-1.2c-7.4-1.9-7.3-1.9-7.3-9.7c0.1-20.3,0.1-40.6,0.2-60.8c0-4.6-1.9-10.9,7.1-8.1
			c-0.6-3.1-2.5-3-4.2-3.1c-1.9-0.1-3.8-0.1-5.7,0c-7.1,0.1-7,0.1-7.2-6.8c-0.1-2.4,1.5-5.7-2.9-6.2c-0.2,0-0.5-0.5-0.6-0.8
			c-1.9-4.8-2.1-5-8.8-5.9c4.2,7.4,1.6,12.7-7.7,13.8c2.5,0.1,3.9,0,5.2,0.4c1.8,0.5,2.2-1,3.2-1.7c1.1-0.7,2.1,0.2,1.9,1.4
			c-0.5,4.1,1.1,6.6,4.9,8c1.2,0.4,0.9,1.5,0.2,2c-2.9,2.3-6.3,4.1-4.8,9c0.3,1-1.5,1.5-2.4,0.9c-3.3-2.2-6.3-2.3-9.6,0
			c-1,0.7-2-0.4-2-1.5c0.1-3.7-1.4-6.2-4.6-7.9c-1.4-0.8-1.1-1.7,0.2-2.7c5.3-4.4,5.7-6.6,3.1-12.9c-2-4.8,0.5-8.7,7.6-10.8
			c-15.1-4.8-29.4-9.4-44.4-14.2c0,3.2-0.1,5.8,0,8.4c0.2,4.2-1.9,7-5.8,7.1c-2.8,0-3.8,3.7-6.8,2.5c-3.6-1.4-7.6-2.2-10.8-4.3
			c-3-1.9-1.5-5.8-1.6-8.8c-0.3-7.9-0.1-7.6-8-6.5c-4.7,0.7-5.7,2.7-5.7,7.1c-0.2,43.5-0.6,86.9-0.9,130.4
			c-0.1,7.8,0.1,15.6,0.1,23.4c0,1.8-0.2,4,2.3,3.7c2.2-0.2,1-2.4,1-3.7c0.3-7.3,1-8.1,8.2-8c1.2,0,2.4,0.1,3.6,0
			c8-0.2,8.2-0.1,8.1,8c0,2.5-0.2,4.6,3.6,4.4c-5.1,1.6-4.9,1.6-5.1-3c-0.1-2.6,1.7-6.3-1.6-7.5c-4.2-1.5-8.9-1.7-13.1,0.1
			c-3.1,1.3-1.7,4.9-1.7,7.6c0,2,1,3.8-2.3,4.3c-2,0.3-2.7,3-2.9,4.9c-0.3,3.6-0.1,7.3-0.1,10.9c0,1.1-0.2,2.7,1.9,1.7
			c0.7-0.4,1.6,0,1.8,0.6c0.5,1.7,0,3.9,2.9,4.1c6.6,0.4,12.8,4.5,19.8,2.2c3.5-1.1,7-2,10.4-3.3c1.7-0.6,5.9,0.2,2.9-4
			c-0.1-0.2,0.5-1.3,1-1.6c0.9-0.5,2,0.2,2,0.9c0,3.9,2.5,2.1,4.1,1.7c3-0.7,6-1.5,9-2.6c1.6-0.6,5.3-0.1,2.7-3.9
			c-0.4-0.6,0.6-1.6,1.5-1.8c1-0.2,2,0.6,1.9,1.3c-0.9,4.9,2.5,1.8,3.3,1.5c10.8-3,21.5-6.3,32.4-9.5
			C560.5,574.4,557.7,572.4,561.8,571.7z M128.4,572c0,4.3,1.4,5.3,5.3,5.3c30.7,0,61.4,0,92,0.3c4.7,0,4.4-2.4,4.4-5.5
			c0.2-35.9,0.3-71.8,0.5-107.6c0.1-13,0-26,0.3-39c0.1-3.3-1.1-4.1-4.1-4.1c-31.2,0-62.4,0-93.6-0.2c-3.6,0-3.8,1.6-3.8,4.3
			c-0.1,21.7-0.2,43.3-0.3,65c0,2.9,0,5.9,0,8.8c-0.2,0-0.5,0-0.7,0C128.5,523.5,128.7,547.8,128.4,572z M400.6,378.9
			c-0.1-0.3-0.1-0.7-0.2-1c11.4-2.4,22.8-5.3,34.3-7.1c6.1-1,10.4-3.7,14.6-9c-4.5,0-8.4,0.1-12.3,0c-25.1-0.7-50.2-1.1-75.3-0.7
			c-4.7,0.1-6.5,1.3-6.2,6.1c0.4,5.5,0.2,11.1,0.1,16.6c0,2.4,0.3,3.4,3.2,2.7c6.3-1.5,12.7-2.6,19.2-3c-5.5,1.2-11.1,2.4-16.7,3.5
			c-2.6,0.5-3.8,1.4-2.4,4.4c3,6.8,5.7,13.7,8.3,20.7c1.1,2.9,2.9,3.4,5.6,2.8c28.3-6.3,56.5-12.6,84.8-18.8
			c8.8-1.9,17.5-3.9,26.4-5.5c2.2-0.4,2.4-1,2.4-2.7c0-6.1,0-12.1,0.2-18.2c0.1-2.5-0.9-3.6-3.3-3.3c-10.3,1.1-20.8-0.8-31,1.9
			c-2.3,0.6-5.6-0.2-6,4c-0.1,1.1-2.6,2-4,1.1c-1.4-0.8,0.8-1.9,0.4-3.2C428.6,373.1,414.6,376,400.6,378.9z M101.4,573
			c-0.1,5.1,1.7,6.1,6.2,5.8c5-0.3,10.1-0.4,15.1-0.2c3.7,0.2,4.6-1,4.6-4.7c0.1-35,0.3-70,0.5-105c0.1-15.1,0.2-30.1,0.5-45.2
			c0.1-3.8-1.1-4.8-4.7-4.6c-5.4,0.2-10.8,0.3-16.1-0.1c-4.3-0.3-5.2,1.5-5.1,5.4c0.1,22,0,44,0,66c0,2.9,0,5.9,0,8.4
			C101.2,523.9,102,548.5,101.4,573z M484.4,609.9c-4.2,1.1-7.9-0.9-11.5-1.7c-33.8-7.6-67.6-15.5-101.4-23.4
			c-2.6-0.6-4.2-0.4-5.3,2.3c-2.8,7.3-5.8,14.5-8.9,21.6c-1.2,2.6-0.2,3.4,2,3.9c2.2,0.5,4.4,0.8,6.6,1.3c2,0.4,4.5,2,4.4-2.1
			c0-0.8,0.7-1.7,1.8-1.4c1.1,0.2,2.3,1,1.8,2c-2.1,4.3,1.7,3.8,3.5,4.2c19.7,4.3,39.5,8.5,59.3,12.6c1.1,0.2,2.5,1.2,3.3-0.9
			c1.1-2.6,3.5-1.1,4.1-0.1c3,5.7,8.8,4.7,13.4,5.2c5.1,0.6,10.4,1.4,15.7-1c1.9-0.9,4.8,1.5,7.7,1.5c2.8,0,4.1-0.5,4.1-3.6
			c-0.1-6.9,0.1-13.8,0.3-20.8c0.1-2.5-0.8-3.8-3.6-3.9C481.5,608.2,484.4,607.7,484.4,609.9z M592.5,392.3
			C565,384,537.6,375.7,510,368c-5.9-1.6-12.1-3.4-18.5-2.1c-2.2,0.4-2.9,1.2-2.9,3.2c0,5.9,0.1,11.8-0.1,17.7
			c-0.1,2.8,1.2,3.7,3.7,4.5c27.9,8.7,55.7,17.5,83.5,26.3c1.3,0.4,2.5,0.9,4,0.2c11.8-5.8,23.5-11.6,35.9-17.7
			C607.7,395.7,599.9,394.6,592.5,392.3z M649.1,457.1c0-4-6-10.9-10-11c-10-0.2-20.1,0-30.1-0.1c-1.8,0-3.2,0.4-2.8,2.5
			c0.3,1.7-1.5,4.6,2,4.8c2.9,0.2,3.3,1.8,3.3,4.2c-0.1,2.6,0,5.2,0,7.8c0,1.2,0,2.9-1.2,3.2c-6,1.8-4.1,6.6-4.3,10.5
			c-0.2,5.7-0.1,11.4-0.1,17.1c0,1.3-0.8,3.1,1.2,3.4c7.6,1.2,3.3,7,4.1,10.7c0.6,2.7,0.2,5.5-4,5.7c-2.8,0.2-1.6,3-1.7,4.7
			c-0.2,2.1,1.1,2.6,2.9,2.6c9.9,0.2,19.7,0.5,29.6,0.6c4,0,11-7.3,11-11.3c0.1-9.4,0-18.7,0-28.1c0.1,0,0.1,0,0.2,0
			C649.1,475.5,649.1,466.3,649.1,457.1z M579.5,584.8c-1.8-0.9-3.4-0.9-5.4-0.3c-27.3,8.3-54.5,16.6-81.9,24.6
			c-4,1.2-5.7,2.8-5.3,7.1c0.4,4.5,0.1,9-0.1,13.5c-0.2,2.9,0.4,4.6,3.8,4.7c1.4,0,3.2-0.2,4,1.8c0.2,0.5,1.2,1.4,1.4,0.4
			c1.3-5.2,5.7-3.6,8.9-4c5.8-0.9,10.2-4.9,16.3-5.7c31.3-4.2,60.5-16.5,90.9-24c0.3-0.1,0.5-0.4,1.2-1
			C601.7,596,590.6,590.4,579.5,584.8z M261.4,380.4c0,8.4,0,8.4-8.6,8.4c-18.7,0.1-37.4-1.6-56-0.4c-8,0.5-15.8-0.7-23.7-0.3
			c-3,0.2-3.8-0.9-3.7-3.9c0.2-6.9,0.1-13.9,0.1-20.8c0-1.3,0.3-3.1-1.8-3c-2.1,0.1-1.6,1.9-1.7,3.2c-0.2,15.9-0.2,31.9-0.5,47.8
			c-0.1,3.5,1.1,4.3,4.4,4.3c23.7-0.1,47.4-0.1,71.1,0c6.9,0,13.9,0,20.8,0.4c4.2,0.3,5.9-0.8,5.6-5.3c-0.4-5.3,0.2-10.7,0-16.1
			c-0.1-2.6,1.5-6-2.9-7.2c-1.1-0.3-0.6-2.2-0.6-3.4c0-6.6,0-13.2,0-19.7c0-1.1,0.2-2.4-2.4-3.3C261.4,367.5,261.4,374,261.4,380.4z
			 M672.5,640.2c3.1,0.1,4.6-0.4,4.6-4.1c-0.2-15.4-0.1-30.8,0.2-46.2c0.1-3.7-1.2-5-4.7-4.5c-1,0.1-2.1,0.2-3.1,0
			c-14.5-2.9-26.1,3-37.9,10.7c-7.5,4.9-10.8,9.6-9.8,18.4c0.7,6.5,0.3,13.1-0.1,19.7c-0.2,4.4,0.9,6.2,5.7,5.9
			c7.4-0.4,14.9-0.1,22.3-0.1c0,0.1,0,0.1,0,0.2C657.3,640.1,664.9,640,672.5,640.2z M678.3,366.6c0.1-2.7-0.7-3.7-3.4-3.7
			c-15.9,0.1-31.8,0-47.7-0.1c-2.8,0-3.5,1.1-3.4,3.7c0.1,10.4,0,20.7-0.1,31.1c0,1.9,0.6,3.2,2.4,4.1c6.9,3.7,12.9,8.6,19.1,13.3
			c2.9,2.2,5.9,3.2,9.6,3.1c6.4-0.2,12.8-0.2,19.2,0.1c3.5,0.2,4.4-1.1,4.3-4.4c-0.2-7.8-0.1-15.6-0.1-23.4c0.1,0,0.1,0,0.2,0
			C678.3,382.5,678.1,374.5,678.3,366.6z M160.1,364.1c0.1-3-1-3.9-3.9-3.9c-13.7,0-27.4-0.2-41.1-0.4c-2.9-0.1-4,0.8-4.1,3.8
			c0,16.1-0.2,32.2-0.3,48.3c0,2.3,0.9,3.4,3.4,3.4c14,0,28.1,0.1,42.1,0.2c3,0,3.8-1.1,3.8-4c-0.2-8-0.1-15.9-0.1-23.9
			c0.1,0,0.1,0,0.2,0C160,379.7,159.9,371.9,160.1,364.1z M158.9,587.3c0.1-2.9-0.8-3.9-3.8-3.9c-13.7,0.1-27.3,0-41-0.2
			c-3.6-0.1-4.3,1.3-4.3,4.6c0,15.2-0.1,30.4-0.4,45.7c-0.1,3.5,0.9,4.8,4.6,4.8c13.3-0.1,26.6,0.1,40,0.5c3.6,0.1,4.9-0.9,4.8-4.6
			c-0.3-7.8-0.1-15.6-0.1-23.4c0,0,0,0,0,0C158.8,602.9,158.7,595.1,158.9,587.3z M280.9,583.5c-3.5-0.1-4.9,0.7-4.8,4.5
			c0.3,6.4,0.1,12.8,0.1,19.2c0,1.6-0.5,2.9,2.5,3.1c14.5,0.6,29,0.4,43.6,0.5c9.2,0.1,18.3-0.1,27.5,0.1c3.3,0.1,4.6-0.7,4.5-4.3
			c-0.3-6.2-0.1-12.5,0.2-18.7c0.2-3.4-1-4.5-4.4-4.4c-11.6,0.2-23.2,0.1-34.8,0.1C303.7,583.5,292.3,583.7,280.9,583.5z M572.5,577
			c0,2.3,1.3,3,2.9,3.8c12.2,6.1,24.5,12.2,36.6,18.4c3.4,1.7,4.3,0.8,4-2.6c-0.1-2.2,0-4.5,0.1-6.7c0.1-2.6-0.1-4.9-2.8-6.5
			c-2.5-1.5-4.4-5-3.3-7.1c3.3-6.3-1.1-11.9-0.6-17.9c0.6-6.3,0.1-12.8,0.3-19.2c0.1-3-0.4-5.6-4.1-4.4c-6.2,2-12.2-1.2-18.4-0.4
			c-3.1,0.4-5.9,1.9-9.6,0.7c-3.2-1-4.2-2-5.2-4.6C572.5,545.9,572.6,561.4,572.5,577z M528.8,362c2.8,2,4.3,4.1,7.2,4.7
			c26.6,5.6,51.5,16,76,27.6c5.8,2.7,5.7,2.8,5.8-3.3c0-8,0-16,0.2-23.9c0.1-3.5-1.1-4.4-4.4-4.3c-10,0.2-20.1,0.1-30.3,0.1
			c0.6-1.6,2.6-0.3,2.9-2.4c-13.1,1.4-26.2-0.8-39.3-0.3c-13.4,0.5-26.9,0.1-40.3,0.4c17.7,0.8,35.4-0.6,53.1,0.9
			C549.7,362.6,539.7,362.2,528.8,362z M448.9,637.6c-2.6,0.9-5-1.6-5.9-3.7c-0.8-2-1.9-2.5-3.7-2.9c-27-5.8-54-11.6-80.9-17.6
			c-3.7-0.8-4.4,0.1-4.3,3.5c0.2,5.7,0.3,11.5,0,17.2c-0.2,3.8,0.9,5,4.9,5c20.4-0.3,40.9-0.2,61.3-0.2c15.4,0,30.8,0.1,46.2,0.1
			c1.6,0,3.4,0.6,5.5-1.2C463.9,638.1,456.6,635,448.9,637.6z M194.2,611.5c-2.9-0.1-4.4,0.5-4.3,4c0.2,8.1,0.1,16.3,0,24.4
			c0,2.6,0.6,3.8,3.4,3.8c14-0.1,28,0,42,0.1c2.5,0,3.3-1.1,3.3-3.4c0-8.5-0.1-17,0-25.5c0-3-1.5-3.3-3.9-3.3
			c-6.9,0.1-13.9,0-20.8,0c0,0,0,0,0-0.1C207.4,611.5,200.8,611.6,194.2,611.5z M677.8,495.9c-0.1,2.7,1,3.7,3.7,3.5
			c14.5-0.7,29-1.3,43.5-1.8c2.6-0.1,3.2-1.2,3.2-3.5c0-5.9,0-11.8,0.2-17.7c0.1-2.5-1.1-3.2-3.4-3.3c-16.4-0.7-32.8-1.5-49.2-2.4
			c-2.8-0.2-3.6,0.8-3.6,3.5c0,7.3-0.1,14.6-0.2,21.8c0,1.8,0,3.4,2.5,3.5c2.9,0.1,2.9-1.7,2.9-3.7c0-3.6,0-7.3,0-10.9
			c0.2,0,0.3-0.1,0.5-0.1C677.8,488.6,677.9,492.3,677.8,495.9z M329.3,643.8c2.6,0,3.7-0.8,3.7-3.6c-0.1-8.3-0.1-16.6-0.1-24.9
			c0-2.4-0.6-3.6-3.5-3.6c-13.8,0.1-27.7,0.1-41.5-0.1c-2.9,0-3.4,1.3-3.4,3.7c0.1,8.1,0.1,16.3-0.1,24.4c-0.1,2.9,0.8,4,3.8,4
			c6.7-0.1,13.5,0,20.2,0c0,0,0,0.1,0,0.1C315.4,643.8,322.3,643.7,329.3,643.8z M236.1,387.2c2.9,0.1,3.9-0.8,3.9-3.8
			c-0.1-8.3,0-16.6,0.2-24.9c0-2.4-1-3-3.1-3c-14.2,0-28.3-0.1-42.5-0.2c-2.6,0-3.2,1.4-3.2,3.6c0,8.5,0.1,16.9,0,25.4
			c0,2.7,1.5,2.6,3.3,2.6c7.1,0,14.2,0,21.3,0c0,0.1,0,0.1,0,0.2C222.6,387.1,229.3,387,236.1,387.2z M289.6,355.4
			c-2.9-0.1-3.9,1-3.8,3.9c0.1,8,0.1,15.9-0.1,23.9c-0.1,2.9,0.8,4,3.8,4c13.7,0,27.3,0,41,0.2c2.7,0,3.6-1,3.6-3.6
			c0-8.1,0.1-16.3,0.4-24.4c0.2-3.3-1.2-3.7-3.9-3.7c-6.7,0.1-13.5,0-20.2,0c0-0.1,0-0.2,0-0.2C303.4,355.5,296.5,355.6,289.6,355.4
			z M650.6,575.3c0,3.2,0.9,4.1,4,2.4c3.2-1.8,6.6-3.1,9.8-4.6c0.6-0.3,1.6-0.4,1.8-0.9c1.5-3.8,3-7.6,8.3-5.1c0.2-1,0.6-2,0.6-3
			c0.1-12.3,0.1-24.6,0.1-36.8c0-2-0.3-3.2-2.7-3.1c-6.2,0.2-12.4-1.3-18.7,1.4c-2.9,1.2-3.1,2.3-3.1,4.6c0,7.4,0,14.9,0,22.3
			c-0.1,0-0.2,0-0.3,0C650.6,560.1,650.7,567.7,650.6,575.3z M584.4,434.5c1,0.3,2,0.4,3,0.5c7.2,0.4,14.4-1.5,21.6,0.1
			c3.7,0.8,3-3.4,4.8-4c3-1,1.5,4.9,4.7,4c3.1-0.9,8.1-0.1,6.7-6.3c-0.5-2.3,0-4.8,0-7.2c0-1.4-0.4-2.4-2-2.4
			c-1.6,0-1.4,1.2-1.4,2.2c-0.1,1.5-0.5,2.8-2.4,2.7c-2.4-0.1-1.9-2.1-1.9-3.5c0-5,0-10,0.1-15.1c0.1-3-0.8-3.7-3.6-2.3
			c-12.7,6.3-25.5,12.4-38.2,18.6c-1.2,0.6-2.4,1.2-2.3,3c0.1,5.3,0,10.7,0,15.1C574.5,435.1,578.7,432.7,584.4,434.5z M630.4,534.5
			c-3.7-0.1-4.7,1.2-4.6,4.7c0.2,7.1-0.2,14.2-0.1,21.3c0.1,3.3-1.5,7.1,2.7,9.4c0.5,0.3,0.7,1.6,0.5,2.4c-1.4,6.2,2,6.5,6.9,6.5
			c13-0.1,13,0.1,13-12.9c0-12.6,0-25.2,0-38.9C643.3,533.1,637.1,534.7,630.4,534.5z M705,635.7c-0.1-15.6,0.1-31.2,0.2-46.8
			c0-7.3-5.4-3.7-8.6-4.3c-3.1-0.6-4.1,0.9-3.9,3.7c0.1,1.2,0,2.6,1.7,2.7c1.3,0.1,2.5,0,2.4,1.9c-0.1,1.3-0.9,1.8-2,1.8
			c-2.4,0.1-2,1.9-2,3.4c0,3.6,0,7.3-0.1,10.9c0,1.9-0.2,3.5,2.6,4c2.1,0.4,2.4,3,0.1,3.4c-3.1,0.6-2.8,2.3-2.8,4.4
			c0,3.3,0,6.6,0,9.9c0,0.9-0.2,2.3,0.2,2.5c4,2.3,4.8,4.3,0,6.6c-0.5,0.2,0,2,1.4,2.1c1.6,0,3.1,0,5.2,0
			C704.3,643.4,705,640.4,705,635.7z M706,411.8c-0.1-14.9,0.2-29.8,0.2-44.7c0-1.7,1.1-4.5-1.2-5c-3.3-0.7-7.1-1.4-10.2,0.1
			c-1.7,0.8-0.8,2.5,1.3,2.9c2.6,0.5,2.7,3,0.8,3.4c-3.9,0.9-3.1,3.4-3.1,5.9c0,3.1,0.5,6.3-0.1,9.3c-0.8,3.9,4.5,2.3,4.2,5.3
			c-0.3,2.5-4.8,0.8-4.3,4.6c0.5,4.1,0.6,8.4,0,12.5c-0.6,3.9,4.2,1.8,4.2,4.7c0.1,3-4.3,0.6-4.3,4c0,5.4,3.7,3.1,5.9,3.3
			C705.7,420,706,416.4,706,411.8z M170.4,383.3c-0.1,2.7,0.8,3.5,3.5,3.7c12.7,0.7,12.7,0.8,12.7-12.2c0-4.9,0.2-9.7,0.2-14.6
			c0-0.7,0.2-1.5-0.1-2.1c-3.1-5.7-8.5-1.5-12.6-2.8c-2.6-0.8-3.8,0.7-3.4,3.5c0.2,1.7,0,3.5,0,5.2c-0.1,0-0.2,0-0.3,0
			C170.5,370.5,170.6,376.9,170.4,383.3z M258.9,623.7c0-12.8,0-12.8-12.7-11.9c-2.3,0.1-3.1,0.8-3.1,3c0,8.6-0.1,17.3-0.2,25.9
			c0,0.3-0.1,0.8,0.1,1c3.6,4.6,8.5,1.3,12.8,2.1c2.7,0.5,3.1-1.4,3.1-3.5c0-4.1,0-8.3,0-12.4c0,0,0,0,0.1,0
			C258.9,626.4,258.9,625.1,258.9,623.7z M337.4,640.3c-0.1,2.6,0.9,3.5,3.6,3.6c12.2,0.6,12.2,0.7,12.1-11.1c0-5.7-0.1-11.4,0-17.1
			c0.1-3-0.6-4.2-4-4.3c-11.6-0.1-11.6-0.2-11.6,11.3c0,1.6,0,3.1,0,4.7c-0.1,0-0.1,0-0.2,0C337.4,631.7,337.5,636,337.4,640.3z
			 M169.1,637.5c0,6.7,0,6.7,6.9,6.3c8.8-0.5,8.8-0.5,9-9.2c0.1-6.4,0-12.8,0.1-19.2c0-2.6-0.7-3.9-3.7-4
			c-12.3-0.6-12.3-0.7-12.3,11.5c0,1.7,0,3.5,0,5.2c0,0,0,0,0,0C169.1,631.3,169.1,634.4,169.1,637.5z M264.9,376
			c0,11.2,0,11,11,11.2c3.9,0.1,5.1-1.1,5-5c-0.2-7.6,0.1-15.2,0.3-22.8c0.1-3.1-0.9-4.2-4.2-4.1c-11.9,0.2-11.9,0-12,11.9
			c0,1.4,0,2.8,0,4.2c0,0-0.1,0-0.1,0C264.9,372.9,264.9,374.4,264.9,376z M244.8,380.2c0,6.9,0,6.9,7.2,6.9c1,0,2.1-0.1,3.1,0
			c3.7,0.5,5.2-0.7,5.1-4.7c-0.2-7.6,0.1-15.2,0.3-22.7c0.1-2.7-0.5-3.9-3.6-4.1c-11.8-0.6-11.7-0.7-11.9,11.1c0,1.7,0,3.4,0,5.2
			c-0.1,0-0.1,0-0.2,0C244.8,374.7,244.8,377.4,244.8,380.2z M668.3,431.9c0-0.6-1.5-1.4-2.4-1.8c-2.8-1.3-5.7-2.5-8.6-3.7
			c-6-2.5-6-2.5-6,3.9c0,2.2,0,4.5,0,6.7c-0.1,7.2,2.9,10.2,10.4,10.3c1,0,2.1,0,3.1,0c11.7,0.3,11.7,0.3,10.9-11.8
			C672.4,436.1,668.3,438.2,668.3,431.9z M560.1,577.6c-23.1,7-46.3,13.9-69.5,20.9c-0.8,0.2-1.7,0.5-2.5,0.8
			c-2.1,0.8-1.6,2.5-1.2,3.9c0.5,1.7,1.7,1.1,3,0.8c26.1-7.9,52.3-15.8,78.7-23.8C566.1,576.7,563.4,576.6,560.1,577.6z
			 M691.1,632.7c-0.3-5.7,2.4-11.6-1.4-17c-0.3-0.5-0.4-1.4-0.1-2c2.9-6.9,2.9-13.7,0.1-20.6c-0.7-1.7,1.6-2.2,1.6-3.5
			c0-1.5,1.3-3.7-1.5-4.1c-2.2-0.3-3.5,0.1-3.6,2.9c-0.8,16.1-1.9,32.1-2.7,48.2c-0.3,6.3,4.5,2.3,7.3,3.3
			C687.8,637,691.2,634.9,691.1,632.7z M685.3,368.9c0.6,14.8,1.2,29.7,1.9,44.5c0.1,1.6-0.8,3.6,1.3,4.5c1,0.4,2.6,0.7,3.3-0.5
			c0.9-1.5,0.9-3.3-0.5-4.8c-2.2-2.3,1.1-3.6,0.9-5.3c-0.6-5.8,2.2-11.9-1.4-17.5c-1.4-2.1,1.9-3,1.7-5c-0.7-5.6,1.9-11.6-1.6-17
			c-1.2-1.9,1.8-2.7,1.4-4.4C685,362.2,685,362.3,685.3,368.9z M571.9,534.3c0-1.2-0.3-2.4-0.3-3.6c-0.1-2.7-2-2.3-3.7-2.3
			c-1.8-0.1-2.9,0.3-2.9,2.5c-0.1,14.2-0.3,28.3-0.3,42.5c0,3.5,3.6,3,6.5,5.2C570.5,562.9,571.8,548.6,571.9,534.3z M364.6,428.7
			c0.5,4.7-1.3,9.8,2.6,14.1c1.4,1.5,0.4,3.8-0.8,5.2c-0.8,0.9-2,1.4-1.7,2.8c0.4,1.6-1.3,4.3,1.5,4.7c3.3,0.4,2.1-2.5,2.1-4.1
			c0.3-9,0.4-18,0.5-27c0-1.2,0-2.5-0.5-3.6c-3.5-9-7.1-18-11.9-26.8c0,6.6,0,13.1,0,19.7c0,0.7,0.3,1.8,0.5,1.9
			c5.6,0.8,3.5,5.1,3.5,8.1c0.2,17.1,0.1,34.2,1.3,51.3c0-4.7,0-9.3,0-14c0-12.3,0-24.6,0.2-36.9c0-1.6-1-4,1.1-4.5
			c2-0.5,0.9,2.2,2,3c0.8,0.6,1.8,0.7,2.8,1.1C365.3,424.8,364.3,426.2,364.6,428.7z M575,382c-8.7-3.3-17.6-6.2-26.5-8.9
			c-7.3-2.2-14.7-5.3-23.3-2c24.1,7.2,47.8,14.2,71.5,21.3c0.1-0.3,0.3-0.7,0.4-1C589.8,388.2,582.5,384.8,575,382z M680.1,569.8
			c-2.5,1.6-1.4,4.5-1.1,6.7c0.3,2.1,2.5,1.4,3.9,1.6c15,1.2,15,1.2,14.9-13.9c0-1.5,0-3,0-5.6C691.3,562.6,685.6,566.1,680.1,569.8
			z M481.7,415.2c-0.4,4.4,2.3,4.3,4.8,2.7c2.8-1.8,4.9-2,7.7,0.1c2.3,1.7,4.5,1.4,4.8-2.3c0.8-8.6-4-13.6-12.7-13.1
			c-6.1,0.4-4.2,5-4.5,8.8C481.7,412.4,481.8,413.8,481.7,415.2z M369.7,490.9c0,1.5-0.9,4,1.6,4.2c2.8,0.2,1.8-2.5,1.8-3.9
			c0.3-20.6,0.5-41.1,0.7-61.7c0-2.6-0.3-4.8-4.2-6C369.7,446.2,369.6,468.6,369.7,490.9z M698.6,429.1c0.1-2.7-0.7-3.8-3.5-3.6
			c-4.1,0.2-8.3,0.2-12.4,0.2c-1.4,0-3-0.3-3.1,1.7c-0.1,1.6-0.7,3.5,1.4,4.6c6,3,11.4,7,17.5,11.8
			C698.5,438,698.3,433.5,698.6,429.1z M662.4,485.8c0,6,1.4,11.5,8.1,14.8c0-10.3,0-20.1,0-30.6
			C663.4,473.5,662.4,479.5,662.4,485.8z M548,454.4c2.9-0.3,6.8-1.7,5.7-4.9c-1-3,2.6-6.2-1-8.5c-1.6-1-3.2-2-5.2-2
			c-4,0-7.1,3.6-6.9,8C540.6,451.5,543.8,454.9,548,454.4z M630.3,584.6c-7.9-0.1-8.6,0.9-8.4,8.9c0.1,3.4,0.9,4.5,4.1,2.4
			c5.2-3.4,10.3-6.8,15.5-10.2c-0.1-0.4-0.2-0.7-0.3-1.1C637.5,584.6,633.9,584.6,630.3,584.6z M416.4,545.2
			c1.6-0.1,4.1,0.5,3.5-2.2c-0.4-2.1,2.3-5.5-2-6.2c-1.7-0.3-2.1-1.3-2.8-2.5c-1.5-2.8-4.2-1.7-6.4-1.5c-2,0.2-4,1.3-4,4
			c0,0.9,0,1.7-0.2,2.6c-0.7,4.4,0.5,6.9,5.6,6c0.8-0.2,1.7,0,2.6,0c0,0,0,0,0,0C414,545.2,415.2,545.3,416.4,545.2z M366.7,495.5
			c0,19.2,0,37.4,0,55.7C369.5,547.9,370,500.3,366.7,495.5z M624.4,405.1c-0.4,0.5-0.5,0.6-0.5,0.8c-1.5,11.8-1.5,11.8,9.9,11.9
			c2.4,0,4.8,0,7.2,0C635.7,413,630.8,408,624.4,405.1z M368.1,460.4c0-1.3,0.3-3-1.9-2.8c-1.6,0.1-1.8,1.2-1.8,2.5
			c0,8.6-0.2,17.2-0.2,25.8c0,1.1-0.2,2.5,1.4,3c2.4,0.7,1.8,1.6,0,2.4c-1,0.4-2,1-1.5,2.2c0.2,0.5,1.5,0.5,2.3,0.6
			c1.4,0,1.6-1,1.6-2.1c0-5.4,0-10.7,0-16.1c0,0,0.1,0,0.1,0C368.1,470.8,368.1,465.6,368.1,460.4z M355.3,580.4c0-0.2,0-0.4,0-0.7
			c-40.1,0-80.2,0-120.3,0c0,0.2,0,0.4-0.1,0.7C275,580.4,315.1,580.4,355.3,580.4z M236.9,418.7c39.4,1.2,78.8,0,118.3-0.1
			C315.8,419.1,276.4,417.1,236.9,418.7z M528.4,366.5c0.2-2.9-1.8-3-3.6-3.4c-7.2-1.7-14.6,0.9-21.9-1.2c-0.8-0.2-1.8-0.1-2.1,1
			c-0.3,1,0.4,1.9,1.3,1.9c7.6,0.2,14.5,3.6,20.8,4.9C526.1,369.3,528.2,369.6,528.4,366.5z M355.5,640c0,0.2,0,0.5,0,0.7
			c36.7,0,73.4,0,110.2,0c0-0.2,0-0.5,0-0.7C428.9,640,392.2,640,355.5,640z M613.1,581.3c1.5,1.7,3.3,3.8,5.6,3.1
			c2.3-0.7,0.9-3.3,1.1-5c0.2-2.9-0.1-5.9,0.1-8.8c0.2-3.2-1.1-3.7-3.6-2.4c-3.1,1.6-5,4.1-5,8.6
			C611.2,578.1,611.9,579.9,613.1,581.3z M571.9,428.2c-0.2-1.3,1-3.9-1.1-3.7c-2.1,0.1-5.1,0.8-5.2,4c-0.1,3.8,0.1,7.6,0,11.4
			c-0.1,2.4,1.4,2.3,3.1,2.3c1.9,0,3.5,0,3.3-2.6c-0.2-2.2,0-4.5,0-6.7c0,0,0.1,0,0.1,0C572,431.3,572.1,429.7,571.9,428.2z
			 M336.7,615c0-1.2,0.5-3.2-1.6-3.2c-1.6,0-1.4,1.8-1.5,2.9c-0.2,9-0.2,17.9-0.3,26.9c0,1,0,2.3,1.4,2.3c1.7,0.1,1.8-1.4,1.8-2.6
			c0.1-4.6,0-9.3,0-13.9c0,0,0.1,0,0.1,0C336.7,623.2,336.7,619.1,336.7,615z M225.2,580.7c0-0.3,0-0.6,0-0.9c-29.4,0-58.7,0-88.1,0
			c0,0.3,0,0.6,0,0.9C166.4,580.7,195.8,580.7,225.2,580.7z M480.8,395.9c-0.1-0.6-0.3-1.3-0.4-1.9c-17,3.7-34,7.4-51,11
			c0.1,0.6,0.2,1.2,0.3,1.8C446.7,403.2,463.7,399.6,480.8,395.9z M650.6,513.8c0.3,0,0.7,0,1,0c0-19.3,0-38.6,0-57.8
			c-0.3,0.1-0.7,0.1-1,0.2C650.6,475.4,650.6,494.6,650.6,513.8z M373,571.6c-0.1-5.2,0-10.3,0-15.5c0-1.5,0.4-3.4-2-3.3
			c-2.1,0-1.9,1.6-1.9,3c0,6.7,0,13.4,0,20.5C372,575.4,373.1,574.1,373,571.6z M531.6,641.1c0,0.2,0,0.3,0,0.5
			c28.3,0,56.6,0,84.8,0c0-0.2,0-0.3,0-0.5C588.2,641.1,559.9,641.1,531.6,641.1z M691.4,361.8c0-0.2,0-0.5,0-0.7
			c-28,0-55.9,0-83.9,0c0,0.2,0,0.5,0,0.7C635.5,361.8,663.5,361.8,691.4,361.8z M186.3,642.3c0,0.5,0.6,1.3,1.1,1.5
			c0.7,0.3,1.4-0.3,1.4-1.1c0-10.4,0-20.7,0-31.1c-0.6,0-1.3,0-1.9,0C186.2,621.8,185.7,632,186.3,642.3z M428.8,593.5
			c-0.1,0.5-0.3,1.1-0.4,1.6c16.9,3.9,33.9,7.8,50.8,11.8c0.1-0.6,0.3-1.2,0.4-1.8C462.7,601.2,445.7,597.4,428.8,593.5z
			 M622.6,364.8c-3.6,4.3-2.4,8.5-2.2,11.9c0.2,3.5,0.1,6.8-0.1,10.3c-0.2,3.5-1.8,7.7,2.3,11.5C622.6,387,622.6,376.6,622.6,364.8z
			 M492.2,394.1c-0.2,0.6-0.4,1.2-0.6,1.8c12.8,4,25.5,8,38.3,12.1c0.2-0.6,0.4-1.2,0.6-1.8C517.7,402.1,504.9,398.1,492.2,394.1z
			 M282.2,377c0,2.9-0.2,5.8-0.2,8.8c0,0.5,0.6,1.3,1,1.5c0.8,0.4,1.4-0.5,1.4-1.1c0.1-10.4,0-20.8,0-31.2c-0.8,0-1.5,0-2.3-0.1
			C282.2,362.4,282.2,369.7,282.2,377z M569.7,583.1c-0.2-0.5-0.3-1.1-0.5-1.6c-12.8,3.8-25.6,7.6-38.3,11.4
			c0.1,0.6,0.3,1.2,0.4,1.8C544.1,590.8,556.9,587,569.7,583.1z M336,387.7c2.1-10.7,1.7-21.5,1.8-32.2c-0.6,0-1.2,0-1.8,0
			C336,366.2,336,376.9,336,387.7z M529.1,595.3c-0.2-0.6-0.3-1.1-0.5-1.7c-12.8,3.8-25.6,7.7-38.3,11.5c0.2,0.6,0.3,1.1,0.5,1.7
			C503.6,603,516.4,599.1,529.1,595.3z M282.6,611.6c-0.6,0-1.2,0-1.8,0c-0.6,10.7-0.6,21.4-0.2,32.1c0.7,0,1.3,0,2,0
			C282.6,633,282.6,622.3,282.6,611.6z M241.4,387.5c0.4,0,0.8,0,1.2,0c0-10.6,0-21.3,0-31.9c-0.4,0-0.8,0-1.2,0
			C241.4,366.3,241.4,376.9,241.4,387.5z M187.8,358.1c-0.1,8.6-0.2,17.3-0.2,25.9c0,1.1-0.5,2.8,1.1,3c1.9,0.2,1.3-1.7,1.3-2.7
			c0-9.8,0-19.5,0-29.9C187.4,355.7,187.8,357,187.8,358.1z M241.6,611.7c-0.4,0-0.8,0-1.2,0c0,10.7,0,21.4,0,32.1
			c0.4,0,0.8,0,1.2,0C241.6,633.1,241.6,622.4,241.6,611.7z M183.1,418.5c14.4,1.3,28.8,0.4,43.2,0.2
			C211.9,416.3,197.5,418.6,183.1,418.5z M611.4,566.2c0.4,0,0.9,0,1.3,0c0-10.4,0-20.8,0-31.3C611,545.4,610.8,555.8,611.4,566.2z
			 M607.6,468.1c3.8,0.1,2.4-4,2.2-6.2c-0.2-2.5,2.3-7.1-2.3-7c-4.1,0.1-0.4,4.7-2.1,6.6C606.6,463.9,603.5,468,607.6,468.1z
			 M113.2,358.2c0,0.1,0,0.3,0,0.4c17.6,0,35.2,0,52.7,0c0-0.1,0-0.3,0-0.4C148.3,358.2,130.7,358.2,113.2,358.2z M546.4,434.8
			c3.4,0.1,5.3-2.1,5.4-5.1c0.2-3.2-1.9-5.3-5.1-5.5c-3.4-0.2-5,1.9-5.3,5.2C541.6,432.4,542.9,434.7,546.4,434.8z M370.8,497.5
			c-0.1,0-0.2,0-0.4,0c0,17.7,0,35.4,0,53.1c0.1,0,0.2,0,0.4,0C370.8,532.9,370.8,515.2,370.8,497.5z M683.7,583.1
			c0.2-2.7-0.4-3.8-3.2-3.8c-2.5,0-5.2,0.1-6.7-3c-1.2,4.6,0.9,6.4,4.8,6.2c3.5-0.2,3.8,1.5,3.7,4.3c-0.2,5.1,0,10.3,0,15.4
			c0.1,0,0.2,0,0.3,0C683,595.8,683.2,589.5,683.7,583.1z M683.4,416.6c0.2,3.5-0.8,5.2-4.6,4.7c-1-0.1-2.1-0.1-3.1,0.2
			c-1.3,0.4-1.2,1.6-1.1,2.6c0.2,2,1.3,0.6,2.1,0.5c1.4-0.2,2.8-0.2,4.1-0.2c2.6,0.1,3.8-1,3.8-3.7c-0.1-7.1,0-14.1,0-21.2
			c-0.4,0-0.9,0-1.3,0C683.3,405.2,683.1,410.9,683.4,416.6z M607.6,514.7c3.6-0.1,1.9-4.2,1.8-6.4c-0.1-2.3,2.3-6.7-1.8-6.8
			c-4.4-0.1-1.1,4.4-2.4,6.6C606.4,510.4,603.1,514.8,607.6,514.7z M601.1,497.6c-4.2-0.2-2.3,3.8-2.4,5.9c-0.1,2.5-2.2,7.1,1.6,7.2
			c4.5,0.1,0.8-5,2.7-7.2C601.4,501.7,605,497.8,601.1,497.6z M601.1,458.7c-4.3-0.1-2.1,4.3-2.1,6.5c0,2.3-2,6.7,2.1,6.6
			c4-0.1,0.7-4.6,2.4-6.6C602,462.9,604.9,458.8,601.1,458.7z M119.4,640c0,0.2,0,0.4,0,0.6c15.7,0,31.3,0,47,0
			c-0.1-0.2-0.1-0.4-0.2-0.6C150.6,640,135,640,119.4,640z M411.5,549.2c0.7,0,1.3-0.7,1.1-1.5c-0.2-1.4-1.5-1.3-2.4-1.3
			c-6,0.2-11.9,0.5-17.9,0.8c0,0.5,0.1,1,0.1,1.5C398.7,550,405.1,549.5,411.5,549.2z M451,362c3,4,7.1,0.8,10.7,2.3
			c-2.7,2-5.6-0.2-7.9,1.1c6,2.8,10.6-2.3,16.1-3.4C463.7,362,457.6,362,451,362z M164.5,417.8c-10.5,0-21.1,0-31.6,0
			C143.5,417.7,154,418,164.5,417.8z M710.7,454.5c2.2-0.6,4.2-1.1,6.5-0.5c0.8,0.2,1.3-0.5,1.4-1.2c0.1-0.7-0.3-1.5-1.1-1.5
			c-3,0-4.5-4.2-7.7-3.1c-1.5,0.5-0.2,3.4-1.8,4.5C708.4,454.2,709.8,454.8,710.7,454.5z M649.3,580.5c-5.9-0.6-11.9-1.8-17.8-0.1
			C637.4,582.8,643.3,581.9,649.3,580.5z M491.8,365c0-0.6,0-1.1-0.1-1.7c-7.2-1-14.4,0.4-21.6,1.7C477.4,365,484.6,365,491.8,365z
			 M411.2,496.4c-10.2,0.3-20.4-0.6-30.6,0.4c8.8,0,17.6,0.1,26.5,0c3.4-0.1,6.5,0.2,8.6,3.5C415.5,497.2,413.8,496.4,411.2,496.4z
			 M354.7,529.7c4.2-7.4-0.1-14.2,1.5-20.7c-0.5,0-1-0.1-1.5-0.1C354.7,515.5,354.7,522.2,354.7,529.7z M583.6,613.6
			c-0.1-0.4-0.2-0.8-0.3-1.2c-7.7,2.2-15.3,4.4-23,6.6c0.1,0.5,0.2,0.9,0.2,1.4C568.2,618.2,575.9,615.9,583.6,613.6z M161.1,411.7
			c3-2.7,3.1-11.7,0-15.1C161.1,401.8,161.1,406.7,161.1,411.7z M274.6,589.2c0-0.3-0.6-0.9-1-1c-0.8-0.2-1.2,0.4-1.2,1.2
			c0.2,4.2-0.6,8.5,1,12.6C275.3,597.8,274.4,593.4,274.6,589.2z M648.1,422.5c-2.3-2.5-11.3-2.8-16.2,0
			C637.7,422.5,643,422.5,648.1,422.5z M160.5,634.8c3.6-0.3,1.6-4.5,1.7-6.9c0.1-2.3,1.5-6.6-1.4-6.5c-3,0.1,0,4.4-1.5,6.2
			C160.1,630.4,158.5,635,160.5,634.8z M490.3,636.7c-4.9-1.7-9.8-1.4-14.9-0.7C480.3,637.3,485.2,638.1,490.3,636.7z M621,413.7
			c1.9-3.5,2.6-7-0.2-10.4C619.8,406.8,619.6,410.3,621,413.7z M619.2,637.1c0.5,0,0.9,0,1.4,0c0-4.8,0-9.5,0-14.3
			c-0.5,0-1.1,0.1-1.6,0.1C618.5,627.6,618,632.4,619.2,637.1z M275.7,398.7c0-0.9-0.5-1.3-1.2-1.2c-0.8,0.1-1,0.8-1,1.5
			c0,4.1,0,8.1,0,12.2c0.6,0,1.2,0,1.7,0C276.3,407.1,275.5,402.8,275.7,398.7z M162.1,377.6c1.7-4.4,1.1-9,0.3-13.5
			C160.7,368.6,160.5,373.1,162.1,377.6z M160,602.2c3-3.1,3.2-11,0.1-15.9C159.5,592.1,159.5,597,160,602.2z M268.8,602
			c1.8-4.5,1.4-9,0.2-13.5C267.6,592.9,267.8,597.4,268.8,602z M680.1,589.2c-1.5,4.5-0.9,9-0.3,13.5
			C681.4,598.1,681.2,593.6,680.1,589.2z M160.2,603.3c-0.8,5.5-0.6,10.3-0.2,16C163,615.3,163,607.7,160.2,603.3z M679.9,605.8
			c-1.5,4.5-0.8,9,0,13.5C680.3,614.8,681.8,610.3,679.9,605.8z M620.6,605.9c-2.5,2.5-2.9,9.9,0,14.2
			C620.6,615.5,620.6,610.8,620.6,605.9z M163.1,381.3c-0.2-0.3-0.8-0.7-1.2-0.6c-0.8,0.1-0.9,0.9-0.9,1.6c0,0.5,0,1,0,1.5
			c0,3.6,0,7.1,0,11.6C162.9,393,164.2,382.9,163.1,381.3z M680.1,622.5c-1.7,4.5-1.3,9-0.5,13.6
			C681.3,631.6,680.7,627.1,680.1,622.5z M270.2,397.6c-1.7,4.4-1.3,8.9-0.4,13.4C271.5,406.5,270.7,402,270.2,397.6z M681.2,384
			c-1.5,4.4-1.1,8.9-0.3,13.3C682.1,392.9,682.3,388.5,681.2,384z M418.9,563c1.6-4.2,1.3-8.6,0.4-12.9
			C417.5,554.3,418.1,558.7,418.9,563z M681.7,367.3c-0.3,0-0.6,0-0.9-0.1c0,4.5,0,9.1,0,13.6c0.3,0,0.6,0,0.9,0
			C681.7,376.3,681.7,371.8,681.7,367.3z M621.3,569.2c0,4.9,0,9.9,0,14.8C622.5,579.1,622.9,574.1,621.3,569.2z M680.8,413.7
			c1.2-4.3,1.5-8.6,0.1-12.9C679.6,405.1,679.9,409.4,680.8,413.7z M621.4,641.1c0,0.2,0,0.3,0,0.5c7.7,0,15.5,0,23.2,0
			c0-0.2,0-0.3,0-0.5C636.9,641.1,629.1,641.1,621.4,641.1z M262,517.4c0-0.8,0.3-1.8-0.7-2.3c-0.8-0.4-1.7,0.4-1.5,0.7
			c0.6,1-3.1,0.9-0.5,2.3c0.4,0.2,0.7,1.6,0.5,1.8c-3.5,2.7,0.8,2.9,0.9,4.4c0.5-0.1,0.9-0.2,1.4-0.3C262,521.8,262,519.6,262,517.4
			z M667.3,580.9c-3.7-0.1-7.5-2.9-10.8,1.3C659.9,579.2,663.9,584.1,667.3,580.9z M656.7,421c3.7,2.3,7.5,2.9,13,0.9
			C664.5,419.9,660.5,422.5,656.7,421z M474.4,644.1c0-2.4-2.6-1.3-4.1-1.6c-1.4-0.3-3.1-0.4-2.9,1.6c0.1,1.8,1.9,1.5,3.4,1.6
			C472,645.4,474.4,646.1,474.4,644.1z M126,416.7c0-0.1,0-0.3,0-0.4c-6.6,0-13.2,0-19.8,0c0,0.1,0,0.3,0,0.4
			C112.8,416.7,119.4,416.7,126,416.7z M106,581c0,0.1,0,0.2,0,0.3c6,0,12,0,18,0c0-0.1-0.1-0.2-0.1-0.3C118,581,112,581,106,581z
			 M141.8,643.6c0,2,2,1.6,3.2,1.7c1.5,0.1,3.6,0.4,3.7-1.6c0.2-2.4-2.1-1.6-3.4-1.9C143.9,642,141.8,641.2,141.8,643.6z
			 M387.1,356.5c-0.3-1.9-2.3-1.6-3.8-1.6c-1.3,0-3.2-0.3-3.1,1.6c0.1,2.8,2.6,0.9,3.9,1.6C385.3,357.6,387.5,358.7,387.1,356.5z
			 M261.4,485c1.3-3.4,0.7-6.3-0.3-9.3C261,478.6,256.9,481.5,261.4,485z M667.1,358.2c-0.3-1.8-2.3-1-3.5-1c-1,0-2.9-0.7-2.9,1
			c0,2.1,2,1.8,3.7,1.8C665.5,359.9,667.5,360.3,667.1,358.2z M653.1,358.4c0-2.3-2.2-1.4-3.5-1.6c-1.3-0.2-3.2-0.3-3.3,1.5
			c0,2.4,2.3,1.2,3.5,1.6C651.1,359.7,653,360.4,653.1,358.4z M606.9,644.4c-0.1-1.8-2-1.5-3.3-1.4c-1.2,0.1-3.3-0.6-3.4,1.3
			c-0.1,2.4,2.2,1.4,3.5,1.8C605.1,645.9,607,646.3,606.9,644.4z M358.9,483.2c0,4.2,0,8.5,0,12.7
			C360.7,491.8,360.2,487.5,358.9,483.2z M385.5,643.2c-0.1-1.9-2.1-1.5-3.4-1.4c-1.4,0-3.6-0.5-3.4,1.9c0.1,1.9,2.1,1.2,3.4,1.4
			C383.4,644.7,385.7,645.8,385.5,643.2z M475.6,357.1c-0.5-1.9-2.5-1.3-3.9-1.4c-1.1,0-2.9-0.2-2.7,1.4c0.4,2.6,2.8,0.9,3.9,1.5
			C474.3,358.4,476.1,358.9,475.6,357.1z M549.4,357.6c0-1.9-2-1.4-3.3-1.4c-1.2,0-3.2-0.5-3.2,1.4c0.1,2,2.1,1,3.3,1.3
			C547.3,358.6,549.4,359.6,549.4,357.6z M490.5,357.3c-0.1-1.9-2-1.5-3.3-1.5c-1.3,0-3.3-0.4-3.3,1.4c-0.1,2.3,2.3,1.2,3.3,1.8
			C488.7,358.7,490.6,359.4,490.5,357.3z M535,357.6c0.1-2.1-2.1-1.8-3.5-1.9c-1.4-0.1-3.2-0.3-3.3,1.5c0,2.4,2.2,1.2,3.5,1.6
			C532.9,358.5,535,359.6,535,357.6z M429.8,643.5c0-1.6-2-1.6-3.4-1.6c-1.3,0-3.2-0.4-3.3,1.5c-0.1,2,1.7,1.7,3.1,1.7
			C427.5,644.9,429.8,645.8,429.8,643.5z M498.4,357.3c-0.1,2,1.8,1.8,3.1,1.6c1.3-0.2,3.6,0.8,3.6-1.6c0-1.9-2-1.4-3.3-1.5
			C500.4,355.8,498.5,355.5,498.4,357.3z M363.9,643.6c0,2.1,2,1.3,3.3,1.4c1.3,0.1,3.1,0.5,3.3-1.5c0.2-2.3-1.9-1.3-2.8-1.8
			C366,642,363.8,641.2,363.9,643.6z M622,644.4c-0.1-1.7-2.1-1.4-3.4-1.4c-1.3,0-3.2-0.4-3.3,1.5c-0.1,2.1,1.9,1.3,3.2,1.5
			C619.8,645.8,622.1,646.8,622,644.4z M592.2,644.4c-0.1-2.2-2.3-1.4-3.6-1.4c-1.2,0-3.2-0.4-3,1.6c0.2,1.9,2.1,1,3.3,1.3
			C590.2,645.7,592.2,646.1,592.2,644.4z M577.6,644.4c0.1-2.4-2.2-1.3-3.5-1.4c-1.1-0.1-3.2-0.9-3.1,1.3c0.1,1.9,2,1.4,3.3,1.6
			C575.6,645.7,577.6,646.2,577.6,644.4z M547.7,644.2c-0.2-2.2-2.4-1.4-3.8-1.4c-1,0-2.9-0.5-2.8,1.2c0,2.2,2,1.8,3.5,1.9
			C545.9,645.7,547.9,646.2,547.7,644.2z M533.5,643.9c-0.1-1.8-2.2-1.1-3.3-1.1c-1.3,0-3.5-0.9-3.5,1.4c0,1.7,2,1.3,3.4,1.4
			C531.4,645.5,533.6,646,533.5,643.9z"/>
		<path d="M504.2,470.2c1.8-0.7,2.4-1.6,0-2.3c-2.4-0.7-4.9-1-6.5-3.1c2.3,0.6,4.6,1.2,6.9,1.8c0.2-0.4,0.4-0.7,0.5-1
			c0.7-2.6-2.9-5.9,1-7.9c4.3-2.3,10.8-1.3,14,2.4c1.8,2,2.8,1.8,4.4-0.1c2.1-2.5,3.2-4.8,4.5-10.3c-2.7,2.7-4.9,5.2-8.7,5.2
			c-4.4-0.1-7.8-1.7-9.7-5.7c-1.8-3.8-1.1-7.4,1.7-10.6c2.6-2.9,3.7-7.5,8.7-7.7c1.8,2,3.7,4,6.5,4.8c4,5,3,11,2.8,17.4
			c3.8-6.3,0.6-11.8,0-17.3c0,0-0.1,0.1-0.1,0.1c4.8,6.3,4.3,16.9-1.1,24.6c-2.1,3-5.4,5.4-3.3,9.9c0.8,1.8-0.8,2.5-2.4,3.3
			c-2.7,1.4-5.7,2.9-5.7,6.7c0,2.8-1.6,4.2-4,4.7c-2.4,0.5-3.6-1.4-4.6-3.4c-2-4-5.2-5.5-9.8-4.7c-7.8,1.3-15.7,2.3-23.6,3.4
			c-2.1,0.3-4,0.3-4.1,3.3c-0.1,1.9-1.9,2.8-3.9,2c-1.9-0.8-3.9-9.4-2.6-11.5c0.9-1.5,2.2-2.2,3.9-1.4c0.4,0.2,1,0.6,1.1,1
			c0.8,3.6,3.5,2.6,5.8,2.3c8.2-1.2,16.4-2.7,24.6-3.8c1.8-0.2,2.8-0.9,3.7-2.3L504.2,470.2z M514.7,470c5-0.8,5.2-4.1,4.2-8
			c-1-3.9-3.4-4-7-3.8c-5.4,0.3-6.6,2.4-4.9,7.1c0.8,2.4-0.2,5.2,1.7,7.3C511.4,473.4,514.1,474.2,514.7,470z M521.1,441.9
			c-1,0.8-2.9,0.6-4.4,0.8c-1.2,0.2-1.3-3.4-2.9-1c-1.3,1.8-1.6,4.1-0.4,6.3c0.9,1.8,3.3,4.1,3.9,3.5c2.1-2,3.5-2.4,6.3-1.2
			c1.2,0.5,2.9-2.9,2.8-5.6C525.4,442.6,525.9,437.9,521.1,441.9z M503.1,475.1c-0.1-0.6-0.2-1.2-0.3-1.7c-10.2,1.5-20.5,3-30.7,4.6
			c0.1,0.6,0.2,1.1,0.3,1.7C482.6,478.2,492.9,476.6,503.1,475.1z"/>
		<path d="M510.7,507.5c-2.8,0.8-1.5,1.5,0,2.2c0.2,0.7,0.3,1.3,0.5,2c0.9,2.5,5.2,4,2.6,7.4c-3.1,4.1-9.1,6-13.1,4.1
			c-2.8-1.3-3.6-0.4-4.2,2.1c-2.1,7.6,0.6,13.9,5.1,19.7c-1,2.3,1.8,3.6,1.6,5.7c-7.4-4.4-11-11-11.4-19.6c-0.2-4.2,1.7-8,1.7-12.1
			c1.3,0.3,2.6,0.6,4,0.8c0.3-1.7-2.3-1.9-1.9-3.2c0.6-2.4-0.4-4-2.5-3.5c-2.9,0.7-0.7,3.1-0.9,4.7c-2.1-1.7-3.3-3.2-0.6-5.8
			c2.2-2.1,3.4-5.2,1.9-8.4c-1-2.2-0.6-4.1,1.4-5.5c2-1.4,3.8-0.9,5.6,0.6c3.4,3,7,2.6,10.7,0.3c2.3-1.5,4.1-3.7,7.1-3.9
			c-2.3,3.5-6.7,4.4-9,7.9c9.4-4.4,17.1-11.6,26.3-16.2l0.3,0.3c-8.3,6-16.6,11.9-25.2,18.1c2.2,1.2,3.9,0.3,5.5,0.5
			c4.2,0.4,8.8-0.3,11.7,3.9C522.2,506.8,516.6,505.7,510.7,507.5z M500.1,513.4c-3.3,2.9-1.3,5.5,0.8,7.8c2.3,2.6,4.6,1.9,7.2,0.1
			c5.5-3.8,5.5-3.7,1.6-9c-1.3-1.8-2.3-3.8-3.8-5.4c-2.9-3.3-4.4,0.7-6.3,1.7c-2.7,1.3-0.9,2.6,0.6,3.6
			C500.1,512.5,500.1,512.9,500.1,513.4z M496.9,541.7c-2.7-6.6-3.4-13.4-1.2-20.3C491.5,527.7,492,535.5,496.9,541.7z"/>
		<path d="M501.5,544.9c-1,2.3,1.8,3.6,1.6,5.7c7.7,5.4,18.4,5.7,25.3,0.7c-5.8,1.2-11.6,4.2-17.6,0.5c6.6,2,12.4-0.7,18.3-2.9
			c2-3.1,6.1-4.6,6.3-9l0.1,0.1c-3,2.6-5,6.3-9.2,8.6c0.3-3.4-0.8-4.5-4.3-4.2c-8,0.5-8.3,0-8.1-7.8c0-0.7,0-1.4,0-2.1
			c0.1-6.7,0.3-6.9,7.2-6.7c2.7,0.1,5.7,0.9,6.4-3.6c1.8,6.4,0.5,12.6,1.6,18.6c0.3-5.5,0.3-11.1,0.4-16.6c0-1.3,0.3-2.6-1.3-2.9
			c-1.3-0.2-3.8-0.4-3.7,0.5c0.4,4.1-2.5,2.4-4,2.4c-7.8,0.1-7.8,0.1-7.9,7.8c0,1.2-0.1,2.4-0.1,3.6c0,8.1,0.1,8.1,7.9,8.7
			c1.2,0.1,3.4-1.4,3.6,1.2c0.2,2.3-1.6,2.6-3.4,3C513.2,552.4,507.2,549.2,501.5,544.9z"/>
		<path d="M490.9,430.2c-7.9,6.8-8.1,15.7-5.4,24.6c2.8,8.8,9,14.5,18.8,15.4c0,0-0.1,0.1-0.1,0.1c-4.7-2.3-9.6-4.2-13.2-8.4
			c-6-6.8-7.5-18-2.7-23.9c-2.9,9.8-2,18.2,6.3,24.8c-4.4-6.3-7.9-12.9-5.9-21c1.5-6.2,5.8-10.3,10.4-14.2l0.1,0.1
			c-3.1-0.1-4.5,2.6-6.6,4.1C489.4,433.9,491.3,430.8,490.9,430.2z"/>
		<path d="M535.6,487c2.5-0.3,4.3,4.7,7,1.3c2.8-3.5-1.4-5.4-2.6-7.9c-0.9-1.9-2.3-3.7-4.8-3c-2.5,0.7-2.3,2.5-1.5,4.5
			c0.8,1.9-1,2.2-2,3c-3.8,2.9-8.3,4.9-11.6,8.5c5-1.1,8.1-5.3,12.5-7.5c1-0.5,2.8-2.7,2.7,0.8L535.6,487z"/>
		<path d="M536.5,516.4c0.2,4.2,3.9,7.7,2.8,13.5c-1.9-6.7-3.4-12.4-8.5-16c0.6,4.5,7.8,7,3.9,12.8c4.9,4.1,0.5,8.8,0.9,13.2
			c0,0-0.1-0.1-0.1-0.1c3.1-1.5,1.3-5.6,4.2-7.5c-0.1,5.3-2.6,9.3-5.1,13.4C542.5,540.3,543.5,525.3,536.5,516.4z"/>
		<path d="M521,431c1.8,2,3.7,4,6.5,4.8c0.2-1.5-2-2.2-1.5-3.9c2.5,0.4,2.3,3.4,4.4,3.9c0,0-0.1,0.1-0.1,0.1c-1-4.7-3.9-7.8-8.4-9.5
			c-0.3,1.5,2.8,1.7,1.6,3.7c-9.8-6.4-17.9-7.2-24.4-2.4c0,0-0.1-0.1-0.1-0.1c1.5,0.4,2.6-0.6,3.9-0.9
			C509.6,425.3,516.1,425,521,431z"/>
		<path d="M493.5,427.6c4.5-1.1,8.2-4.2,13.1-4.5c5.6-0.4,10.5,1.8,15.5,3.5C514.8,420,501.4,420.4,493.5,427.6z"/>
		<path d="M173.4,477.5c-0.9,2.1,0.4,3.1,2,4.1c11.5,7.2,30.1,1.9,34.8-10.9c2.4-6.7,2.1-14.6,0.1-21.4c-1.8-6.3-7.3-10.3-13.5-12.9
			c-12.4-5.2-27.1,1.3-32.4,14.4c-2.3,5.6-2.2,11.5-0.4,17.2c0.4,1.4,0.4,3.7,3.1,3.2c-0.3-0.8-0.7-1.7-1-2.5
			c-3.2-6.7-3.1-13.2,1.1-19.5c2.6-3.5,4.7-7.6,9.2-9.2c0.2-0.3,0.4-0.7,0.6-1c7.5-4.5,17.5-4,24.2,1.2c1,0.7,2,1.5,1.3,3
			c2.9,0.9,2.3,3.7,3.4,5.6c6,11.1,3,20.2-5.6,28.3c-0.3,2.9-2.3,3.9-4.8,4.5c-6.3,3.4-12.3,2.9-18.1-1c-0.6-0.6-1.1-1.2-1.7-1.8
			C174.9,478.3,174.1,477.9,173.4,477.5z"/>
		<path d="M177.4,560.7c7.3,4.6,14.8,3.5,21.6-0.3c6.7-3.8,12.4-9,11.8-18c-0.4-5.9,1.6-12.2-2.4-17.6c-1.2-1.7-2.2-3.8-4.9-2.4
			c0,0,0.2-0.1,0.2-0.1c4,5.4,5.6,11.9,4.7,18.1c-1,6.6-2.6,13.7-9.6,17.4c0,2.3-2,2.5-3.5,3.1C189.2,563,183.3,561.8,177.4,560.7z"
			/>
		<path d="M176.4,440c-4.5,1.6-6.6,5.7-9.2,9.2c-1.6,6.4-2.7,12.9-1.1,19.5c0.3,0.8,0.7,1.7,1,2.5c1.8,1.9,2,5.2,5.3,5.7
			c0.5-0.5,1.1-1,1.6-1.5c-12.5-11.2-7.5-23.6,1.3-31.3c0.4-0.9,0.8-1.9,1.3-2.8C176.5,440.9,176.4,440.5,176.4,440z"/>
		<path d="M174.8,517c5-0.9,9.8-3.4,15.2-2.3c3.3,0.6,7,0.4,8.9,4.1c0.5,0.4,1,0.8,1.6,1.2c1,0.7,2.1,1.4,3.1,2.2
			c0,0-0.2,0.1-0.2,0.1c1.1-2-0.1-3.1-1.5-4.3C194.7,512,183,511.6,174.8,517z"/>
		<path d="M166.1,526.2c-5.9,7.4-5.3,19.4,1.3,26.9c0-2.9-3.1-4.9-2.3-8c-1.5-0.8-1.1-2.3-1.3-3.6
			C163,536.1,164.7,531.2,166.1,526.2z"/>
		<path d="M219,538.2c0.2-2.7-0.2-4.2-2.6-4.1c-2.8,0.1-2.4,2.2-2.4,4.1c0,2.1,0.1,3.9,2.9,3.6C219.8,541.6,218.9,539.2,219,538.2z"
			/>
		<path d="M214.6,459.9c-0.3,2.1-0.4,3.7,2.2,3.8c3,0.1,2.5-2.2,2.6-3.9c0.1-1.8,0-3.6-2.4-3.6C214,456.1,214.4,458.3,214.6,459.9z"
			/>
		<path d="M217.3,429.3c0.6,1.6,1.6,2.5,3.2,2.5c1.4,0,2.4-0.9,2.4-2.2c0.1-1.6-1.1-2.5-2.6-2.5C218.7,427,217.9,428.1,217.3,429.3z
			"/>
		<path d="M174.1,475.4c-0.5,0.5-1.1,1-1.6,1.5c0.3,0.2,0.6,0.4,1,0.6c0.8,0.4,1.5,0.8,2.3,1.3c0.4-0.1,0.7-0.2,1.1-0.4
			C175.9,477.4,175,476.4,174.1,475.4z"/>
		<path d="M432.5,420.3c-2.3,1.3-0.6,4.2-0.3,4.2c4.8,0.1,3.4,4.1,4.2,6.5c1.1,3.4,3.1,4.3,6.3,3.6c1.5-0.3,3-0.7,4.5-1.1
			c9.5-2,9.6-2,7.9-11.6c-0.3-1.9-0.5-2.5,1.8-2.6c1.1,0,0.6-2.3,0.2-3.2c-1-2-2.8-3.3-4.8-4.2c-1-0.5-1.7,0.7-2.1,1.8
			c-0.2,0.8-0.7,1.5-1.1,2.2c0,0-0.1-0.1-0.1-0.1c2.3,0.9,4.9-1.7,7.3,0.6c-4.9,2.7-5.2,2.7-3.7,10.5c0.7,3.5-0.6,4.2-3.3,4.6
			c-1.2,0.2-2.3,0.5-3.5,0.7c-5.8,1.4-7.3,0.6-8.3-4.7c-0.6-2.8-0.4-6.1-4.8-5.7c-0.1,0-0.3-1.2-0.4-1.9
			C432.4,420.2,432.5,420.3,432.5,420.3z"/>
		<path d="M397.2,442.1c0-2.1,0.1-4.1,0-6.2c-0.2-2.2-1.7-3.2-3.7-3.7c-2.8-0.6-6.5,2.4-8.4-2.6c-0.4-1-1.4,1.1-1.3,2.2
			c0.1,1.8,0.4,3.5,2.7,3.7c-0.1-3.3,2.4-1.5,3.7-1.7c4.4-0.7,6.6,1.1,5.9,5.8c-0.1,0.5,0,1,0,1.6c-0.1,10-0.3,10.3-10.2,9
			c-2.4-0.3-2.3,0.8-2.2,1.9c0.1,1.1-1.4,2.7,0.1,3.2c2.3,0.7,1.6-1,1.5-2.4c0-1.1,1.3-0.7,2.1-0.7
			C396.9,451.3,396.9,451.3,397.2,442.1z"/>
		<path d="M449.2,416.1c-3.3-0.4-6.4,1-9.6,1.6c-1.5,0.3-2.9,1.2-4.2-0.4c-0.8-1-1.7-1.8-3-0.7c-1.6,1.3-0.3,2.5,0.1,3.7
			c0,0-0.1-0.1-0.1-0.1c5.6-1.1,11.4-1.7,16.7-4.2L449.2,416.1z"/>
		<path d="M381.3,441.9c0-3.2-0.3-6.5,0.1-9.7c0.4-2.8-1.7-2.8-3.2-3.6c-0.4-0.2-1.4,0.3-1.7,0.8c-0.3,0.4,0.1,1.8,0.2,1.8
			c6.4,0.6,2.8,5.5,3.6,8.5c0.2,0.8,0,1.6,0,2.5C380.7,442,381,441.9,381.3,441.9z"/>
		<path d="M296.3,499.9c-0.4-3.2,3.2-6.7,6.5-6.7c4-0.1,7.2,2.8,6.9,6.7c-0.2,4.1-2.8,6-6.6,6.6C299.2,506,296.8,503.7,296.3,499.9z
			 M307.4,499.8c0.1-2.3-1.5-3.8-3.9-3.9c-2.3-0.1-4.1,0.9-4.3,3.4c-0.2,2.7,1.1,4.1,3.6,4.5C305.7,503.8,307.3,502.3,307.4,499.8z"
			/>
		<path d="M344,522.1c-3.1,0.2-4.8,1.5-4.8,3.8c0,2.4,1.5,4.6,4.1,4.4c2.5-0.2,5.6-1.4,5.8-4.2C349.3,522.7,345.3,523.5,344,522.1z"
			/>
		<path d="M339.5,473.4c0.2,2.8,1.6,4.7,4.2,4.4c2.4-0.2,5.8-1.1,5.8-4c0-2.8-3.3-3.9-5.6-4.3C341.5,469.2,339.8,471,339.5,473.4z"
			/>
		<path d="M257.9,442.4c0,2.4,0.3,4.9-0.1,7.2c-0.6,4.1,4.2,4.2,4.9,7.2c0.2,0.6,1.5,0,1.6-0.5c0.7-4,3.7-2.6,5.9-2.6
			c6.6,0.1,13-1.6,19.7-0.7c5.2,0.7,10.4,1.4,15.6,1c1.3-0.1,1.6,0.9,2,1.9c0.4,1,1.5,2.1,2.3,1c3.9-5.8,9.7-1.9,14.5-2.7
			c2.1-0.4,5.6-1.9,6.5,2.5c0.2,0.8,1.7,0.9,2.1,0c2.6-5.4,7.3-1.6,10.8-2.6c1.1-0.3,1.8,0.3,1.8,1.8c0,1.4,0.8,2.7,2.6,2.6
			c1.6-0.1,2.2-1.2,2.7-2.7c0.6-2.2,1.5-2.5,2.3,0c0.4,1.1,1.2,1.7,2.4,1c0.6-0.3,1.1-1,0.8-1.7c-2.6-6.5-0.7-13.3-1-19.9
			c-0.2-3.6-1.2-4.7-4.8-4.7c-28.9,0.1-57.8,0.1-86.7-0.1c-4.9,0-6.5,1.5-6,6.1c0.2,1.9,0,3.8,0,5.7
			C258,442.4,257.9,442.4,257.9,442.4z"/>
		<path d="M583,544.7c0.1,1.8,0.2,4,2.2,4.1c2.1,0.1,2.4-1.9,2.4-3.7c0-1.7,0-3.8-2.2-3.9C583.1,541,583.2,543.1,583,544.7z"/>
		<path d="M374,523.1c1,3,3.4,4.2,5.8,4.5c2.3,0.2,4.4-1.3,4.4-4c0.1-2.4-1.8-3.9-3.9-3.8C377.9,519.9,375.4,520.6,374,523.1z"/>
		<path d="M219.4,626.9c-0.3-2.4-1.3-4.7-4.9-4.8c-3.7-0.1-5.4,2.3-5.5,5.6c0,3.1,1.9,5.3,5.2,5.2
			C217.5,632.9,219.3,630.9,219.4,626.9z"/>
		<path d="M308.3,633.3c3.6-0.4,5.5-2.4,5.5-5.8c0-2.9-1.5-5-4.7-5.2c-3.6-0.2-5.6,1.9-5.7,5.3C303.4,630.7,305.2,632.7,308.3,633.3
			z"/>
		<path d="M210.5,371.3c0.2,3.5,2,5.4,5.3,5.4c3.3,0,5.2-2.2,5.2-5.3c0.1-3.4-2-5.4-5.6-5.3C211.8,366.1,210.9,368.6,210.5,371.3z"
			/>
		<path d="M309.9,366.1c-3,0.3-5.2,1.8-5.2,5c0,3.3,1.8,5.9,5.2,5.9c3.3,0,5.4-2.5,5.4-5.8C315.4,368.1,313.3,366.3,309.9,366.1z"/>
		<path d="M654,512.8c0.8,0.3,1.5,0.8,2.3,0.9c7.5,0.5,7.5,0.5,4,6.5c2.7-1.9,4.7-4.4,6.5-7.6C662.3,513.4,658.2,513.4,654,512.8z"
			/>
		<path d="M621,544.7c-1.6,4-1.5,8-0.2,12C622.4,552.8,622,548.8,621,544.7z"/>
		<path d="M409.4,541.5c1.3,0.2,3-0.1,4,0.6c6.9,4.7,3.7-1.5,4.2-3.6C415,539.9,412.1,540,409.4,541.5z"/>
		<path d="M415.3,510.1c0.3,4.3-3.4,3.8-6.7,4.7c2.6,1.7,5.7,0.3,7.1,3.1c0.3,0.7,1.9-0.2,2.3-1.7
			C418.8,513.3,416.2,512.1,415.3,510.1C415.2,510,415.3,510.1,415.3,510.1z"/>
		<path d="M546.6,432.4c1.7-0.4,2.9-1.5,2.8-3.2c-0.1-1.5-1.5-2.4-2.9-2.4c-1.5,0-2.6,1-2.7,2.5C543.7,431.1,544.9,432,546.6,432.4z
			"/>
		<path d="M514.7,470c-3.1-1.1-1.8-5.2-5.1-7.4c1,4-0.1,7-1,10C511.4,473.4,514.1,474.2,514.7,470z"/>
		<path d="M500.1,513.4c0.5,0.1,1.1,0.3,1.5,0.2c2.1-0.7,4.4-1.3,4.6-4c0-0.9-0.8-2.3-1.9-1.9c-2.1,0.6-4.2,1.6-4.1,4.4
			C500.1,512.5,500.1,512.9,500.1,513.4z"/>
		<path d="M200.3,477.1c-7.6,4.8-15.5,4.8-23.5,1.3c-0.4,0.1-0.7,0.2-1.1,0.4c0.6,0.6,1.1,1.2,1.7,1.8c6,1.5,12,2.1,18.1,1
			C197.9,481,200,479.9,200.3,477.1z"/>
		<path d="M196.4,442c1.6-0.4,3.1,0,4.5,0.9c-1.4-3.6-4.8-3.9-7.8-5c-5.6-2.1-10.7,0.5-16.1,1.1c-0.2,0.3-0.4,0.7-0.6,1
			c0.1,0.4,0.1,0.9,0.2,1.3c4.5-2.2,9.4-3.1,14.3-2.5C193,439.2,195.9,438.7,196.4,442z"/>
		<path d="M195.4,558.6c-4.9,0.6-9.7,1.6-14.7-0.1c-10-3.4-17.3-16.5-13.4-25.8c1.8-4.3,5-8,8.3-11.4c-0.1-0.5-0.1-1-0.2-1.5
			c-3.1,1-4.5,4.1-7,5.9c-3.7,6-3.4,12.8-3.3,19.4c2.8,4.5,5.5,9,9.8,12.3C181.5,560.2,188.2,562.8,195.4,558.6z"/>
		<path d="M175.3,519.8c0.1,0.5,0.1,1,0.2,1.5c7-5.5,14.3-5.5,22-1.7c1,0.5,1.9,0.6,3,0.4c-0.5-0.4-1-0.8-1.6-1.2
			C190.9,515.1,183,514.2,175.3,519.8z"/>
	</g>
</g>
<g id="text">
</g>
<g id="scratch">
</g>
<g id="guides" display="none">
</g>
</svg>
