<?xml version="1.0" encoding="utf-8"?>
<!-- Generator: Adobe Illustrator 26.0.2, SVG Export Plug-In . SVG Version: 6.00 Build 0)  -->
<svg version="1.2" baseProfile="tiny" xmlns="http://www.w3.org/2000/svg" xmlns:xlink="http://www.w3.org/1999/xlink" x="0px"
	 y="0px" viewBox="0 0 1000 1000" overflow="visible" xml:space="preserve">
<g id="bg">
</g>
<g id="counters">
	<g>
		<path d="M693.4,497.8c0.7,1.4,1.2,2.6,1.8,3.7c-2-1.7-3.7-2.2-5.2,0.7c-0.8,1.7-2,3.2-3.2,5c2.6,1.1,5.8,0.8,6.4,4.6
			c0.5,2.7,2.1,5.5,5.3,4.8c2.9-0.7,5.3-7.5,4-10c1,0.3,2.1,0.5,3.5,0.9c-0.8-3.5-4.8-3.5-5.6-6.3c8.4,4.4,8.4,4.4,2.9,11.6
			c-0.7,1-1.4,2-2.2,2.9c-2.3,2.5-1.1,4.1,1.5,4.7c1,0.2,1.8,0.2,2.7,1c5.8,5.5,11.4,11.1,14.3,18.8c2,5.3-2.7,12.7-7.8,10.7
			c-6.3-2.4-8,2.1-10.7,4.9c-1.8,1.8-3.5,4.5-3.1,7.3c0.5,3-0.7,4.5-3.1,5.5c-3,1.3-5.8,3.4-6.4,6.4c-0.6,3.2-2.5,3.6-4.8,4.4
			c-7.3,2.7-12.4,9.2-20,11.5c-0.5,0.2-0.5,1.7-1,2.2c-1.4,1.1-2.2,2.9-4.5,3.1c-7.7,0.9-13.1,7.7-20.9,8.7c-0.3,0-0.6,0.4-0.7,0.7
			c-1,3-3.8,1.9-5.7,2.8c-7.3,3.2-14.4,5.9-22.6,5.3c-1.1-0.1-2.9,2.1-4.6,1.4c-7.1-3.1-14.5-0.5-21.8-1.4c-4.3-0.6-9.4,0-14.1-0.5
			c-0.7-0.1-1.5-0.3-2.1,0c-3.2,2-6.3,0.3-9.5,0.2c-6.7-0.2-13.5,0.9-20.3-0.5c-1.9-0.4-2.8,2.9-5,1.7c-4.4-2.3-8.7-2.8-13.1,0
			c-0.9,0.5-2.3,0-3.5-0.4c-7.8-2.4-15.9,0.1-23.7-1.1c-0.1,0-0.3,0.2-0.4,0.3c-2,1.4-4,0.6-6.3,0.3c-7.7-1-15.5-1.3-23.2-0.1
			c-1.6,0.2-3.1,0.6-4.4,0c-7.8-3.5-15.8,1.1-23.8-0.7c-2.2-0.5-5.5-0.3-8.3-0.5c-7-0.5-14.2,0.4-21.3,0.2c-1.7-0.1-3.4,1.5-5.7,0.5
			c-7.9-3.3-16.1,1.5-24.1-0.9c-0.2-0.1-0.6,0.3-0.8,0.6c-1.7,1.8-3.3,0.6-5.2,0.1c-7.8-2-15.8,0.8-23.6-0.7
			c-0.3-0.1-0.8,0.6-1.1,0.9c-1.1,0.9-2.1,0.5-3.4,0.1c-8.1-2.6-16.5,0.1-24.8-0.9c-1.7-0.2-3.7,0.5-6,0.2
			c-7.7-1.2-15.6,0.2-23.5-0.5c-1.6-0.1-3.4,1.3-5.7,0.6c-7.6-2.2-15.5,1-23.2-1.1c-0.4-0.1-1.1,0.8-1.7,1.1c-1.3,0.7-2.7,0.8-4,0.3
			c-7.6-3-15.7,0.9-23.3-1.6c-0.5-0.2-1.4,0.9-2.2,1.1c-1.1,0.3-2.8,1.1-3.4,0.6c-5.9-4.9-13.9,1.3-19.7-4c-1.1-1-3.7-0.6-5.4,0.6
			c-0.8,0.6-1.8,1.7-2.7,0.9c-4.9-3.8-10.8-5.1-16.7-6.1c-0.6-0.1-1-1.4-1.6-1.9c-2.5-2.4-4.9-4.8-9-3.1c-1.2,0.5-3.2,1.1-3.8-0.4
			c-2.1-5.6-6.2-6-11.2-5.1c-0.7,0.1-1.8-0.9-2.5-1.7c-2.7-3.2-6.3-3.5-10.1-4.5c-6-1.6-12-5.2-16.7-9.4c-2-1.8-4.6-4.8-6.6-6.7
			c-2.6-2.6-5.6-4.1-5.7-8.7c-1.2,1.9-1.7,4.5-4.2,3.8c-2.6-0.7-3-2.9-2.8-5.4c0.1-1.9,0.2-3.8,0-5.7c-0.2-2.7,0.9-5.5-0.5-8.1
			c-3.5-6.4-3.5-8,2.1-12.5c3.2-2.5,2.2-4.1,0.1-6.1c-0.8-0.7-2.2-0.8-2.4-2.7c3.3,0.1,5.1-1.1,7-4.1c2.1-3.2,3.9-6.3,4.7-10
			c0.4-1.9,1.7-1.9,3.1-1.9c1.3-0.1,2.9,0.1,2.4-2.1c5.2,1.9,8.1-2.9,11.9-4.6c2.4-1.1,4-2.6,7-1.2c3.3,1.5,6.2-2,9.7-1.8
			c1.7,0.1,3.3-0.9,5.3,0.3c2.9,1.7,6.3,2.9,9.7,1c1.4-0.8,2.7-0.1,3.9,0.6c3.6,2,7.2,2.8,11.1,0.8c1.5-0.7,2.9-0.1,4.5,0.4
			c3,1,6.3,1.4,9.1,0c2.1-1.1,3.8-0.8,5.8-0.2c3.6,0.9,7.3,1.8,10.8-0.9c0.8-0.6,2.4-0.8,3.4-0.6c2.5,0.7,5,0.4,7.1-0.6
			c4.4-2.2,9.1-1,13.4-1.6c7.4-1.1,14.5,3.7,21.7,0.1c1.1-0.5,2.5,0.6,3.8,1.3c3,1.7,6.2,2.9,9.8,1c1.5-0.8,2.8-0.2,4.4,0.4
			c3.1,1.3,6.5,2.7,9.7,0c0.3-0.2,0.7-0.5,0.9-0.4c5.8,4.1,12.3,1.2,18.4,1.9c3.1,0.4,6.1,1.4,9-0.5c1.6-1.1,2.8-0.6,4.3,0.1
			c3.4,1.4,6.9,2,10.3-0.2c1.2-0.8,2.6-0.6,4-0.2c5.1,1.7,20.9,0.3,25.7-2c1.3-0.6,2.5-0.6,4-0.1c3.4,1.3,7,1.7,10.1-0.9
			c1.4-1.2,2.7-0.3,3.8,0.4c3,2.1,6.4,1.6,8.9,0c2.6-1.7,4.4-1.2,6.4,0.3c1.2,0.9,2.6,1.3,3.9,1c5.7-1.3,11,1.1,16.4,1.3
			c5.2,0.2,9.9,2.6,14.7,2.3c5.3-0.3,10.5,2.2,15,1.1c4.6-1,9,1.4,12.5,0.2c7-2.5,13.9,3.5,20.5-0.8c0.5-0.4,2.1,0.2,2.8,0.8
			c2.3,1.8,5.5,2.3,7.4,1.2c4.4-2.6,8.9,0.4,12.6-0.8c7-2.3,14.5,2,21.2-2.4c2.3-1.6,4.9,1.7,6.9,0.7c6.7-3.3,14.5,1.3,20.9-3.4
			c1.8-1.3,3.3,1.1,4.8,0.9c7.1-0.8,14.1-0.3,21.3,0.6c2.6,0.3,5.4,0.8,7.9,0.8c7.5,0.1,15.1,1.5,22.5,0c1.6-0.3,3.1-0.8,4.4-0.1
			c4.1,2.2,7.9,2.7,12-0.1c2-1.4,3.4,1.2,5.3,1.3c0.8,0.1,1.9,0.1,2.5-0.3c0.9-0.6,0.2-1.5-0.2-2.3c-2.2-4.7-4.7-7.6-11.1-7.6
			c-74.9-0.1-149.8-0.7-224.7-1.2c-0.7,0-1.4-0.1-2-1.3c11.8,0,23.6-0.1,35.5,0c21.5,0.2,43,0.5,64.5,0.7
			c26.9,0.2,53.8,0.1,80.6,0.3c34.7,0.2,69.3,0.6,104,0.8c1.9,0,3.8-0.1,5.2,1.6c-5.8-1-11.7-0.4-17.6-0.4c-11.9-0.1-23.8,0-36.5,0
			c1.7,3.1,3,5.6,4.5,8.1c0.3,0.5,1.4,1.3,1.4,1.2c5.7-4.8,12.7,3.6,18.4-1.9c0.6-0.6,2.6-0.5,3.5,0.1c4.1,2.4,7.9,2.2,11.8-0.3
			c1.4-0.9,2.9,0.1,4.4,0.6c1.9,0.6,4.3,1.2,6.1,0.5c4.4-1.7,7.5-1.2,10.9,2.3c2,2.1,4.2,0.6,5.9-1.7c2.1-2.8,0-3.5-1.6-4.7
			c-0.5-0.4-0.9-0.9-1.4-1.4c2-0.3,3.1,2,5.2,1.8c0.9-1.8-0.8-2-1.6-2.6c-5.6-3.8-12-5.2-18.7-5.2c-47.5-0.2-95-0.2-142.5-0.6
			c-96.7-0.8-193.4-1.8-290.1-1.9c-29.9,0-59.9-0.6-89.8-0.7c-11.7-0.1-22.7,2.6-32.2,9.8c-1.4,1-1.4,1.2-0.2,2.7
			c1,1.3-0.2,1.4-0.7,1.6c-1.4,0.5-2.3-0.7-3.1-1.5c-3.8-3.6-5.4-1.6-6.3,2.6c3.3,0.9,6.6,1.3,10.1,1.4c2,0.1,4.3-0.2,5.4,2.2
			c-4.8-0.6-9.6-1.3-14.4-1.8c-2.5-0.3-4.6-1.5-3.5-3.8c4.7-9.9,8.4-20.9,20.2-25.1c4.5-1.6,9.1-3,13.8-4.5
			c-1.2-2.4-2.8-0.6-4.2-0.6c-1-0.1-2.2,0.2-2.6-1.1c-0.5-1.8,1-1.9,2.2-2.2c0.8-0.2,1.7-0.4,2.5-0.5c9.4-1.1,18.8-2.4,28.2-3.3
			c4.7-0.5,7.7-1.9,6.7-7.5c-0.3-1.7-1-4.7,2.2-4.9c6.3-0.4,12.7-0.6,19-0.5c7.5,0.1,15,1.5,22.4-0.7c1.7-0.5,3.7-0.9,5.5,0
			c2.9,1.4,6,1.2,9.1,1.2c9.7,0.2,19.3-1.1,29-0.1c2.9,0.3,5.6,0,5.6,4.6c0.6-3.8,2.2-4.4,5.5-4.1c10.4,1.1,20.5-1,30.3-4.4
			c4.6-1.6,8.5-1.4,13.2,0c5.4,1.7,10.6,4.8,16.3,4.5c7.2-0.4,14.4,0.6,21.6,0.4c3.7-0.1,7.2-0.4,6.1,5.1c-0.2,1.2,0,2.6,1.9,2.1
			c1-0.2,2.8,1,3-0.9c0.5-3.7,2.9-7.8-1.3-11c-0.8-0.6-1.8-1.3-1.6-2.5c1.3-5.4-2-11.6,2.7-16.5c2.2-2.3,0.9-6.2,3.9-8.3
			c0.3-0.2,0.3-1.2,0.2-1.3c-4.7-2.3-1.5-3.1,0.7-4.3c0.6-0.4,0.6-1.9,0.9-2.9c0.2-0.9,9.7-8.4,10.5-8.3c0.3,0,0.7,0.1,0.9,0.3
			c2.7,2.4,4.1,2,4.4-1.7c0-0.3,1.1-0.9,1.6-0.9c4.4,0.6,8.9-1,13.3,0.6c-0.6,0.2-1.3,0.4-1.9,0.5c0.5,1.5,0.6,4.1,1.4,4.4
			c2.1,0.6,4.7,1.5,6.8-0.4c1.4-1.3,0.6-1.8-0.9-2.3c-1.9-0.6-4.1-0.5-5.5-2.3c3,0.1,7.4,0.3,8.2,2.1c2.1,4.7,5.1,2.2,7.6,1.8
			c2-0.3,4.1-1.1,5.6-2.3c1.4-1.2,1.9-0.3,3,0.1c4.3,1.9,8.7,3.5,12.8-0.6c1.2-1.2,2.9-0.9,4.5-0.9c4-0.1,8,0.1,11.9-0.1
			c4-0.1,7.4,0.5,8.3,5.1c0.4,2,1.9,1.7,3.2,1.7c1.1,0,2.5,0.3,2.8-1.5c0.8-4.7,4.4-5.5,8.2-5.4c5.9,0.3,12-1.2,17.7,2.4
			c3.9,2.5,8-0.8,12.1-0.9c7.4-0.1,14.9,1,22.2-1.1c2.1-0.6,4.4-0.7,6.3,0.8c4.5,3.7,8.7,2.4,10-3c0.5-2,0.8-4.3,2.6-5.5
			c2.6-1.7,2.6-4.2,2.7-6.8c0-1.4-0.8-3.2,2.2-4.5c-1.1,6,1.6,9.8,6,12.7c1.1,0.7,0.6,2.2,0.8,3.4c0.5,2.7,1.3,5.4,1.7,8.1
			c0.3,1.9,1.5,2.5,2.8,2c2.9-1.2,5.5-0.2,8.3,0c3,0.2,6.4,1.1,9.1-0.8c3-2.1,5.6-0.4,6.6,1.6c1.4,2.8,3.3,2.3,5.5,2.5
			c7.3,0.6,14.4-1.5,21.6-1.3c11.7,0.4,23.5,0.7,35.2,0.9c6.2,0.1,11.8,5.4,12.4,11.9c-3.2-2-4.7-6.8-9.9-5.5
			c-1.7,0.4-1.7,1.2-1.6,2.4c-3.8-2.6-3.8-2.6-11.3-2.2c1.1,3.5,5.7,4.6,6,8.4c-6-9.3-15.4-9.6-25-9.3c-9.6,0.3-18.6-4.1-28.2-3.7
			c-2.4,0.1-4.8,0-7.7,0.8c10,17.6,19.9,35.1,30.1,53.1c1.2-9.2,3.3-11.5,10.3-13.2c3-0.7,3.9,0,3.9,2.7c0,5.2-0.1,10.4-0.1,15.6
			c0,4.8-4.4,2.5-6.6,4c2.1,2.9,4.3,5.5,8,3c2.6-1.8,4.7-4.2,7.1-6.3c0.3,0.4,0.7,0.7,1,1.1c-0.7,0.4-1.6,0.7-2.2,1.2
			c-1.5,1.3-3.5,2.2-2.4,5c1.2,3.2,4.2,1.7,6.2,2.7c2.7,1.3,2.3-1.5,3.1-2.7c0.6-1,1.1-2.2,2.6-2.3c0.3,2.1-3.5,4.6,0.1,6.1
			c2.9,1.2,6,0.8,7.7-2.9c1.4-3,3.1-5.7,4.7-8.6c9.4-17.5,4.1-33.4-5.3-48.9c-0.8-1.3-2.4-2.1-2-4c6,5.6,8.3,13.2,11.4,20.5
			c6.4,14.6,0.6,27-6.2,39.3c-3.1,5.7-3.3,5.6,3.5,5.9c9,0.5,18-0.6,26.9,1c0.8,0.1,1.6,0,2.4,0.4c6.3,3.3,6.3,3.2,6.4-4.1
			c0-5.5,0-11.1,0.3-16.6c0.2-3.1-0.6-5.3-3.3-6.9c2.2-0.5,4.2,0.8,5,2.1c2.6,4,6.3,3.5,10,3.3c7.4-0.3,14.9,0.1,22.3-0.7
			c2.5-0.3,3.7-0.6,3.6-3.5c-0.2-5.9-0.1-11.8,0.1-17.6c0.1-2.4-0.7-3.3-3.2-3.4c-16.4-0.6-32.8-1.4-49.2-2.1
			c-1.4-0.1-3.4-0.6-3.4,1.9c0,2.3-1.6,5.7,1.3,6.5c6.7,1.8,7.9,6,6.7,12c-1.8-0.5-2.4-2-2.3-3.6c0.2-5-2.5-7.1-7.1-7.4
			c-1.4-0.1-2.7-0.5-3.3-2c1.1-0.4,3.1,1,3.1-1.3c0.1-2.3,1-5-0.6-6.9c-0.7-0.8-2.9-0.6-4.4-0.4c-1.6,0.2-1.1,1.5-0.7,2.4
			c0.9,2.2,1.9,4.3,2.8,6.4c-1.9-0.1-2.9-1.5-3.2-2.9c-1.5-6.7-4.9-12.7-7.3-19.1c3.1,2.3,3.9,5.9,5.5,9.1c0.6,1.2,0.8,3,2.6,2.7
			c3.8-0.6,7.1,1.4,10.7,1.5c10.7,0.4,21.4,1.3,32.1,1.3c15.2,0,30.2,3.3,45.4,3.2c17.5-0.1,35,0.4,52.5,0.6c8.7,0.1,17.3,0,26,0.6
			c4.1,0.3,7-3.1,11.3-2.4c5.2,0.9,10.7,1.2,16,1.3c10.2,0.2,20.5,0,30.7,0.3c9.7,0.2,10.2,0.9,10.2,10.3c0,1.6,0,3.1,0,4.7
			c0,8-0.5,8.8-8.4,8.8c-14.4,0.1-28.7-0.6-43.1,0.6c-5.2,0.4-10.6-1.8-15.4-1.8c-39.7,0.3-79.5-1.8-119.2,1.8
			c-6,0.5-12.1,0.4-18.2,0.7c-4.3,0.3-5.3,2.6-2.9,6.1c0.9,1.2,1.7,2.6,2.9,3.5c2.4,1.8,1.7,3.4,0.1,5.2c-1,1.2-2,2.4-3,3.6
			c-2.8,3.5-2.3,6.2,1.2,9c2.1,1.7,4.9,2.6,6.4,5.1C697.8,501.3,696.5,498.2,693.4,497.8z M157.8,586.4c6.2,4.4,6.2,4.4,8.1-4.9
			c-1.8,1-3.5,0.9-5.1,0c-1.7-4.4-5-2.5-7.6-1.5c-1.6,0.6-1.8,2.8-0.8,4c1.1,1.4,3,2.1,4.9,0.7c1.3-1,1.9-2.9,3.7-3.4
			C161,583.7,158.3,584.4,157.8,586.4z M708.7,530.8c-1.1-0.6-2.5-1.8-3.5,0.1c-0.7,1.2-0.7,2.7,0,4c1,1.8,2.2,0.9,3.5,0.2
			c1.3-0.7,3-0.9,3.4-2.8c1.6,0.3,1.5-0.5,0.7-1.3c-2.4-2.6-4.9-5.2-7.4-7.8c-2.7,2.9-4.6,5.6-2.1,9.1c2.3-4.5,3-4.5,8.2-0.5
			C710.4,532,709.6,531.3,708.7,530.8z M673.1,519.3c0.5-1,1.1-1.9-0.1-2.7c-1.1-0.6-1.8-0.2-2.5,0.9c-1.9,3.2-4,3.6-6.1,0.2
			c-0.8-1.3-1.7-0.6-2.6,0c-0.5,0.4-1.4,0.9-0.7,1.5c2.6,2.4,3.8,7,8.7,6.1c1.2,2.6,2.7,2.6,4,0.2c1.7-3.2,3.1-6.5,4.7-9.7
			c0.8-1.6,0.5-2.6-1.3-3c-1.7-0.4-3.3-1-5-1c-1.3,0-3.5-1.1-3.8,1.2c-0.3,2.4,1.8,1.9,3.3,2c4.1,0.2,4.9,2,2.4,5.2
			c-1.4,1.8-1.7,4.6-4.5,5.3C669.9,523,672,521.4,673.1,519.3z M517,480.4c0.2,1.5-2,4.3,1.8,4.5c0.1,0.6,0.2,1.2,0.4,1.8
			c1-0.2,2.1-0.2,3-0.7c2.9-1.3,8-0.6,6.7-5.9c-1.1-4.2-5.7-3.8-9-4.5c-1.7-0.4,0.3,1.3,0.1,2.1C517.3,476.9,516.8,478.8,517,480.4z
			 M668,553.8c-2,2.2-0.5,4.6-0.5,6.9c0,1.8,1.6,1.4,2.8,1.4c2.2,0,5.1,0.5,6.1-1.6c1.1-2.2-1.8-3.7-2.8-5.5
			c2.5,0.7,4.6,2.4,4.8,4.8c0.2,2.6-2.5,2.7-4.5,3.2c-1.5,0.3-2.3,1.8-1.4,2.6c2.4,2.1,4.8-0.4,7.2-0.7c1.7-0.2,3.4-1.6,2.7-2.8
			c-2.2-4-4.4-8.2-8-11.3c-0.6-0.5-2-0.1-3-0.2c1.4-2.1,0.9-6.3,5.6-4.9c0.7,0.2,2.4-2.5,1.8-3.3c-3.1-3.5,0.7-7.6-1.4-11.1
			c0.8-2.5,1.6-4.9,2.4-7.4c1.5-4.7,2.6-5,6.4-1.9c0.9,0.8,1.5,2.8,3.2,1.3c2-1.9-0.6-2.5-1.2-3.7c-0.2-0.4-0.7-0.8-1.1-1.1
			c-4.8-4.4-5.6-4.4-7.9,1.5c-1.4,3.5-5.6,6.8-1.8,11.2c-4.8,2-6.8-3.4-10.7-4.1c-2-1.9-3.9-3.9-5.9-5.8c-2.9-2.8-2.4-4.6,1.4-5.8
			c1.3-0.4,3.7-0.1,2.9-2.5c-0.7-2.4-2.6-0.8-3.9-0.5c-1.3,0.3-2.6,1-3.9,1.4c-2.5,0.9-3.3,2-1.3,4.4c1.5,1.8,2.9,3.9,3.9,6
			c1.5,3,3.6,3.9,6.7,2.7c-1.9,2.2-1.9,6.9-6.9,5.4c-0.2-0.1-1.7,2.8-1.5,2.9c3.6,3.1-1.4,9.4,2,10.1c4.2,1,6.4,5.7,11.1,4.7
			c0.2,1.1,0.4,2.2,0.7,3.3C670.8,552,669.4,552.2,668,553.8z M667.1,570.7c-0.3-1-1.9-1.6-2.5-1.2c-5.3,3.6-11.1,1.2-16.6,1.6
			c-3.4,0.2-6.3,1.1-9.5,3.9c9.2,0.9,17.8,0.9,26.1-1.7c-0.8,1.2-2.8,2.3-0.4,3.7c1.4,0.9,2,3.5,4.5,2.1c1.8-1.1,2.5-2.4,1.8-4.6
			c-0.9-2.9-2.9-2.2-4.8-1.8C666.2,571.9,667.2,571.1,667.1,570.7z M176.9,575.8c0.2-1.6-0.8-2.1-2.2-2.1c-2.2,0-4.5-0.3-6.7,0.1
			c-2.2,0.4-4.3,1.8-2.4,4.3c2.1,2.8,1.4,5.5,0.8,8.4c-0.4,1.7-1.7,3.7,0.7,5.1c2.3,1.3,2.7-1.6,4.2-2c0.6,1.5-2.8,3.5,0.5,4.5
			c1.7,0.5,4.2,2.6,4.9,1.1c1.2-2.2,1.2-5.3,0.9-7.9c-0.4-2.6-2.7-0.9-4.2-0.9C177.9,583.9,176.4,579.5,176.9,575.8z M396.2,566.4
			c-0.6-0.6-0.2-2.3-0.3-3.6c-3.8,0.8-6.8,3.2-10.4,3.3c2.8-1.6,5-3.2,6-6.9c1.9-6.8,9.7-11,16.4-9.7c7,1.3,12.4,8.3,12,15.5
			c-0.1,1.7-0.5,3.4-0.5,5.3c1.5-4.8,6.1-6.8,9-10.3c1.9-2.3,4.8-3.8,1.7-8.2c-3.2-4.6,3-12.7,8.7-12.8c1.2,0,2.4,0,3.6,0
			c9.9-0.2,12.4,2,12.3,11.8c0,2.3,0.1,3.3,2.3,4.2c4.3,1.7,7.5,4.8,10.4,8.3c2.3,2.8,6.1,2.3,7.4-1.1c0.3-0.6,0.2-1.4,0.4-2
			c3-8.3,12-12.6,19.7-9.5c8,3.3,11.5,12.2,7.9,20.4c-0.4,0.9-1,1.8-1.5,2.8c2,1,3.3,0.7,4-1.6c1.3-4.7,4.2-8.1,8-11.2
			c2.3-1.8,4.1-3.8,0.4-6.7c-4-3.1-0.3-7.1,0.1-10.6c0.3-2.7,2.4-4.3,5.1-4.3c4.3-0.1,8.7,0,13,0.4c3.7,0.3,4,3.5,4.4,6.2
			c0.7,4.9,1.9,8.8,7.7,10.3c3.7,1,6.7,4.2,9.2,7.4c2.3,3,7.1,2.5,8-1c1.9-7.7,6.4-12.1,14.3-12.8c6.4-0.5,10.7,2.8,15.6,11.5
			c0.3-0.2,0.7-0.3,0.9-0.5c2.8-2.6,6.6-3.3,5.7-9.7c-1.2-8.9,2.5-11.2,11.8-11c11.3,0.3,12.9,1.8,12.5,13.3
			c-0.1,1.9,0.7,2.3,1.9,3.1c2.3,1.5,4.6,3.1,6.7,4.9c2.8,2.3,5.7,1,7.2-2.2c3.6-7.9,0.3-15.8,0.8-23.7c0.2-2.5-1.7-2.2-3.2-1.8
			c-3.1,0.8-6.2,0.6-9.3,0.7c-1.7,0.1-3.5-0.1-3.9-1.8c-1.3-4.6-4.7-3.3-7.6-3c-2.4,0.3-4.8,0.9-7.1,1.5c-3.3,0.9-5,0.1-5.8-3.6
			c-0.9-4,1.8-3.8,4-4.3c2.4-0.5,4.9-0.6,7.1-1.4c3.4-1.3,8.6-1,7.3-7.3c-0.4-2.1,1.2-3.5,3.4-3.7c1.7-0.2,3.4-0.3,5.1-1.3
			c-2.5,0-4.9,0-7.4,0c-4.8,0.1-8.8,1-9.3,7c-0.2,2.2-0.9,4.7-4,4.5c-2.6-0.2-3.2-2.4-3.4-4.6c-0.4-5.6-3.7-7.2-8.8-6.8
			c-1.5,0.1-3.1,0.1-4.7,0c-5-0.5-8.7,0.7-9.5,6.5c-0.3,2.1-1.3,4.2-3.9,4c-2.6-0.2-3-2.3-3.4-4.5c-1.2-6.6-1.3-6.6-9.5-7.7
			c6.5,5.1,10.5,11,8.8,19.3c-1.5,7.4-7.1,13-14.1,14.3c-7.4,1.3-14.5-1.8-18.4-8.1c-3.9-6.3-3.5-14.3,1.1-20.5
			c0.9-1.2,3-2.2,2.3-3.7c-0.8-1.9-3-0.9-4.7-0.9c-1.7,0-3.5,0.2-5.2,0.3c-4.4,0.2-7.6,1.4-7.7,6.8c0,2.3-0.2,5.6-4.2,5.3
			c1.5-2,2.3-4.3,3-6.7c1.5-5-1-4.5-4.2-4.2c-1.9,0.2-2.9,0.5-1.8,2.8c1.2,2.6,2.1,5.4,3,8.1c-3.1-0.9-3.4-3.8-3.9-6.2
			c-0.7-3.5-2.6-4.5-5.9-4c-2,0.3-4.1,0.5-6.2,0.5c-6.1-0.1-11,1-10.9,8.7c0,1.7-1.4,2.9-3.1,3.1c-2,0.2-3-1.4-3.7-3.1
			c-1-2.4-0.2-6.4-3.4-6.9c-5.3-0.8-10.7-0.7-16-0.3c-1.8,0.1-1.4,2.9-1.9,4.5c-0.7,2.3-0.6,5.8-4.1,5.8c-3.1,0-3.6-2.9-3.9-5.3
			c-0.6-4.7-3.3-6.4-7.8-6.2c-1.5,0.1-3.1-0.1-4.7-0.2c-4.6-0.3-8.6,0.4-9.3,6.1c-0.3,2.3-1.1,4.8-4,4.5c-2.7-0.3-3.3-2.7-3.5-5.1
			c-0.4-3.8-1.6-6.6-6.3-6.4c-2,0.1-4.1-0.6-6.1-0.9c-7.5-1-10.7,2.2-9.9,10c0.8,8.5-2.3,15.4-9.1,18.8c-6.8,3.4-13.5,2.8-19.5-1.8
			c-6.5-5-7.9-11.7-5.8-19.5c1.8-6.7-2.2-11.4-9-10.8c-1.6,0.1-3.1,0.3-4.7,0.2c-4.8-0.2-7.2,1.7-6.8,6.7c0.2,2.3-0.1,4.9-2.8,5.5
			c-3,0.7-3.8-2-4.3-4.1c-1.4-4.8-4.3-6.7-9.2-5.9c-1.4,0.2-2.8,0.3-4.1,0.1c-6.2-0.8-10.5,0.8-10.7,8c0,1.3-0.9,2.2-2.1,2.7
			c0.5-2,0.9-4,1.4-6c1-4.3-0.6-5.7-4.8-4.5c-0.7,0.2-1.7,0.5-1.4,1.1c1.6,3.1,0,7.9,5,9.2c-3.5,2.2-3.8-0.9-4.8-2.9
			c-1.2-2.4-0.1-6.5-3.8-7.2c-5.3-0.9-10.7-1-15.8,0.8c-2.3,0.8-1.8,4.2-2.7,6.4c-0.8,1.7-1.4,3.9-3.8,3.6c-2.2-0.3-3.2-2.1-3.2-4.1
			c0-6.4-3.6-7.9-9.3-7.8c-3.6,0.1-7.2-0.4-10.8,0c-0.5-0.1-1-0.1-1.5-0.2c-2.1-0.8-4.9-2.2-6.3-0.8c-1.5,1.5-0.4,4.6-0.2,6.9
			c0.1,1,0.5,2.1,1.8,2.2c1.3,0.1,1.6-1,2.2-1.9c1.3-2.1,0.9-5.3,4-6.2c-1,2.4-1.9,4.8-2.9,7.2c-0.6,1.5-1.5,2.9-3.4,2.7
			c-1.7-0.2-2.5-1.6-3-3.2c-0.9-2.7,0.5-6.5-2.1-8.2c-2.9-1.9-6.8-0.8-10.2-1.1c-0.8-0.1-1.6,0-2.7,0c9.7,9.6,11.1,18.9,4.3,27.2
			c-5.5,6.7-15.2,8.9-22.4,4c-3.7-2.6-6.6-2.8-10.6-1.6c-4.6,1.4-9.5,1.5-14.2,2.7c-5.2,1.2-9.8,3.2-13.7,6.7
			c-4.1,3.7-2.8,7.9-0.1,12c-5.9-5.2-5.3-10,2.2-15.3c-2.8-1.7-5.6-2.7-6.7-6.7c-1.1-4.1,1.1-5.9,2.8-8.2c-1.5-2.7-5.3,1.2-6-2.6
			c12.5,3.7,23.8-2.3,35.6-4.6c1.3-0.3,1.8-0.8,2.1-1.9c1-4.6,3.9-8,8.2-11.5c-5.8,0.2-10,2.1-14.4,3.3c-2.7,0.8-2.6,3.8-3.1,6.1
			c-0.6,2.2-1,5-3.6,5.1c-2.7,0.2-3.5-2.5-3.8-4.8c-0.7-5.5-3.7-7.7-9.2-6.8c-1.5,0.3-3.1,0.2-4.7,0.2c-8.5,0.4-10.8,3.4-9.6,12.1
			c-4.4-2.2-0.7-5.3-0.9-8.6c-6.2,3.2-10.7,1.5-13.6-4.5c-0.5-0.9-2.1-1.5-2.7-0.8c-2.2,2.2-4.5,1.1-6.8,0.6
			c-11-2.6-28.4,5.7-35,16.6c-11,18.3-3.2,41.7,12.5,50.3c4,2.2,7.4,4.9,12.2,4.1c4.5-0.8,5.5,3,7.1,6.1c6.1-8.2,7.5-8.6,16-4.5
			c1-8.5,5.1-11.5,12.8-9c-0.1-3.4-4-7.3,1.2-9.7c0.6,2-2.5,3.6-0.7,5.8c1.5,1.9,0.8,5.8,5.1,5.1c3.8-0.6,8.3,1.5,9.9-4.5
			c1.2-4.7,5.2-7.6,9.2-10.1c2.5-1.6,3.2-3,1-5.7c-3.8-4.9,0.5-14.3,6.6-14.9c1.4-0.1,2.8-0.1,4.2-0.1c10.9,0,12.5,1.5,12.9,12.4
			c0,1.1-1,2.7,0.7,3.2c6,1.7,8.6,7.6,13.4,10.6c2.9,1.8,5.2,0.7,6.5-2.3c4.7-11.4,9.1-13.9,21-11.2c2.3,0.5,2.2-0.7,2.6-2
			c2.9-8.8,2.9-8.8,12-9.2c10.9-0.5,12.5,1,12.9,12c0,0.9-1,2.3,0.4,2.7c6.3,1.4,8.9,7.9,14.2,10.4c3.1,1.5,5.6,0.2,6.7-3.6
			c2.6-8.7,10.3-13.2,18.3-11c3.1,0.8,6.1,2.3,7.6,5.1c2.2,4.1,4.5,3,7.1,0.7c-2.7-3.7-2.7-10.5,0-14.3c0.9-1.2,2-2,3.5-2
			c4.7,0,9.3,0.1,14,0.3c2.3,0.1,3.4,1.8,3.7,3.8c0.5,3.5,2.9,6.9,0.6,10.4c-0.8,1.2,0.2,1.5,0.9,1.8c5.1,2.2,8.9,5.9,12.2,10.2
			c0.3,0.4,1.3,0.4,1.9,0.5c-1,3.3,0.8,6.2,2.1,8.7c1.4,2.6,3.9-1.2,6-0.2c-4.3,1.7-6.5,4.4-6.1,9.5c0.3,4.1-1.5,8.3-4.3,11.3
			c-2.9,3.3-1.8,6.5-0.7,9.6c1.2,3.3,4.5,1.6,6.8,1.9c1.5,0.2,3.1-0.1,4.6,0.1c5.4,0.7,9.2-0.2,9.8-6.8c0.3-3.9,3.1-4.6,6.4-2.6
			c0.3,1.5,0.9,3,0.9,4.5c0.2,4.4,2.7,5.4,6.6,5.1c2.4-0.2,4.8,0,7.5-0.4c-5.8-1.8-10.3-5.6-14.6-9.6c-3.1-6-6-12-5.2-19
			c0.2-2.1-0.9-2.7-2.8-2.6c-3.1,0.1-6.2,0.2-9.2-0.8C397.1,572.8,401.6,571.3,396.2,566.4z M258.6,486.9c0-0.3,0-0.6,0-0.9
			c-33,0-66,0-100.3,0c4.1-3,3-6.4,3.2-9.5c0.1-1.2-0.1-2.7,1.5-2.8c2.1-0.1,1.8,1.6,1.9,3c0.1,2.1,0,4.2,0.1,6.2
			c0.1,1.2,0.8,1.9,2,1.8c1.1-0.1,1.2-1.1,1.3-1.9c0.1-2.8,0.1-5.5,0.1-8.3c0-2.4-1.6-2.3-3.2-2.1c-11.2,1.3-22.5,1.7-33.4,4.1
			c-10.8,2.5-20.1,8.2-23.9,21.2c2.7-3.8,6.2-4.2,9.2-5.8c3,1.3,5.1-1.2,7.6-1.8c3.7-0.9,7.4-2.1,11-3.2
			C176.7,486.9,217.6,486.9,258.6,486.9z M492.7,603.1c-2.1,4.7,0.5,4.8,4.1,4.7c2.7-0.1,3-1.3,2-3.1c-1.3-2.4,0.3-7.3-5.1-6.4
			c-0.1-1.5,3.2-1.5,1.4-4.1c-3.1-4.3-3.8-9.6-3.4-14.8c0.2-2.6-0.5-3.9-3.4-3.5c-1.4,0.2-2.8,0-4.1,0c-9.7-0.3-9.6-0.3-11.5,9.1
			c-0.4,1.8-0.6,4-1.7,5.4c-3.5,4.5-1.7,8.7-0.4,13.2c0.9,3.1,2.2,4.4,5.3,4.2c1.5-0.1,3.1,0,4.7,0c8.8,0.3,8.7,0.3,11.7-7.8
			c0.3-0.7,1.1-1.2,1.6-1.9C493.4,599.8,493.3,601.6,492.7,603.1z M284.4,458.7c0.8,7.8-1.3,15.7,0.9,23.6c0.6,2.1,1.1,2.8,3.2,2.8
			c13.2-0.1,26.3,0,39.5,0.1c5,0,4-4.5,4.3-6.7c0.6-6.9,0.2-13.8,0.3-20.8c0-2.3-1-3-3.1-2.9c-6.2,0.4-12.5,0.7-18.6,0.5
			c-7.9-0.1-16.1,0.6-23.9-2.1c6.3,0.4,12.6,1.7,18.7-1.2c2.2-1,4.8-0.6,7,0.6c1.8,1,3.6,1.1,6.4,0.6c-11.3-4.4-21.7-3.4-32.1,0
			C285.3,454.6,284.1,456.1,284.4,458.7z M503.3,474.8c3.3-4.1,8.8-1.6,13.3-1.8c0.3,0,0.7,0.1,1,0.3c15.6,7.9,32.3,5.4,48.7,5.1
			c13.8-0.3,27.2,1.9,40.8,3.2c0.8,0.1,1.7,0.2,2.6,0.3c0.5-2.3-1.1-3.7-2-5.2c-9.8-17.5-19.8-34.9-29.6-52.4c-1-1.7-2-3.3-3.7-4.2
			c-0.7-0.3-2.3-1.9-2.4,0.9c-0.1,1.3-1.7,1.9-2.7,0.5c-1.3-1.9-3.1-1.9-5-1.6c-9.5,1.2-19,0.9-28.5,0.9c-11.8,0-23.6-0.1-35.3-0.6
			c-4-0.2-7.7,0.9-11.5,1.1c-1.9,0.1-1.2,1.3-1.2,2.1c-0.1,16.8-0.1,33.6-0.4,50.4c-0.1,3.1,2.2,3,3.6,4.2c-7.3,0.3-14.6-0.9-22-0.8
			c2.9,2.6,6.6,1.5,9.8,2.2c3,0.6,6.2,0.5,9.2,1c2.2,0.4,2.7-0.7,2.8-2.5C495.5,479,499.5,479.6,503.3,474.8z M479.4,420.7
			c-2.7-0.9-5.8-0.5-8.7-0.5c-26.8,0.3-53.6-0.3-80.4-1c-6.4-0.2-12.9,0.2-19.3,0.3c-1.9,0-2.1,1.5-2.3,2.8
			c-3.9,20.1-7.7,40.1-11.6,60.2c-0.7,3.6,1.6,3.2,3.6,3.2c11.9,0.1,23.9,0.2,35.8,0.2c27.9,0.1,55.8,0.2,83.7,0.1
			c1.8,0,5.1,1.7,5.1-2.2c0-3.8-3.1-2.8-5.4-3c-3.8-0.4-7.6-0.4-11.4-1.1c-8-1.5-15.9-2.8-24-0.7c-2.7,0.7-4.3-0.1-4.1-3.3
			c0.1-3,1.3-3.6,4.2-3.4c4.2,0.2,7.5,2.8,11.9,2.7c8.4-0.1,16.9,0.8,25.3,1.7c2.8,0.3,3.6-0.3,3.6-3.2c0.1-18.2,0.5-36.4,0.7-54.6
			c0.1-4.2-0.7-6.6-6.3-6.5c-35.4,0.1-70.7-0.3-106.1-0.6c-3,0-3.6,1.3-3.8,3.6c-0.2,2.7,1.5,3,3.7,2.9c35.1-1.5,70.2-0.5,105.2-0.6
			c2.1,0,4.5-0.9,6.4,1.7C483.4,420.2,482.2,421.6,479.4,420.7z M832.4,465.1c2.9,0,4.3-0.7,4-3.7c0-0.3,0-0.7,0-1
			c0.3-14.9,0.3-14.7-14.6-14.9c-28.5-0.4-57.1-0.8-85.6-1.6c-5.1-0.1-6.8,1.3-6.3,6.2c0.4,4.8-1.9,10.8,0.8,14.1
			c2.7,3.2,8.8,0.7,13.4,0.8c13.1,0.2,26.3,0.1,39.4,0.1c0,0,0,0,0,0C799.9,465,816.2,465,832.4,465.1z M230.9,484.8
			c6.6,0,7.8-0.9,8-7.4c0.2-6.6-0.1-13.1,0-19.7c0-2.6-1.1-3.3-3.4-3.2c-6.3,0.3-12.7,0.3-19.1,0.4c-6.7,0.1-13.6-0.8-20.5-1.1
			c-4.6-0.2-5.5,1.4-5.3,5.6c0.3,5.9-0.1,11.8-0.2,17.6c-0.1,5.7,1.6,7.6,7.2,7.6c5.7,0.1,11.4,0,17.1,0c0,0,0,0.1,0,0.1
			C220.2,484.8,225.6,484.8,230.9,484.8z M853.6,463.2c0,1.8-0.2,2.8,2.7,2.8c10.9-0.3,21.8,0.1,32.7,0.2c2.6,0,4.2,0.2,2.6-3.7
			c-1.7-4.2-1.6-9.3,0.1-13.6c1.3-3.1,0.4-3.7-2.4-3.6c-5,0-10.1-0.2-15.1,0c-10.4,0.5-20.7-0.8-31-1.3c-4.2-0.2-5.5,1-5.2,5.1
			c0.3,4.8,0.1,9.7,0.1,14.6c0,1.7,0.1,3.2,2.3,3.2c3.3,0,6.6,0.1,9.9,0.1c2.5,0,2.5-1.8,2.5-3.6c0-5.4,0-10.7,0-16.1
			c0.3,0,0.6,0,0.9-0.1C853.6,452.5,853.6,457.9,853.6,463.2z M574.1,608.4c1.8-0.2,4.3,0.3,5-2.6c0.6-2.4,0.9-4.2-1.1-6.5
			c-4.8-5.2-7.5-11.6-7.1-18.9c0.2-2.6-0.2-4.5-3.5-4.1c-3.2,0.3-7.5-1.2-8.2,3.7c-0.8,5.2-1.2,10.3-4.2,14.8
			c-0.3,0.4-0.7,1.3-0.7,1.3c3.3,1.9,4,5.2,4.6,8.5c1,5.2,5.1,2.7,6.7,3.3C569.3,608.2,571.7,608.6,574.1,608.4z M353,466.4
			c0.1-14.5,2.4-11.1-12.6-11.6c-1.3,0-2.7,0.1-2.7,1.7c0.1,8.3-1,16.5,0.3,24.8c0.5,3.6,2.4,4.5,5.9,4.5c9-0.1,9,0,9-8.9
			c0-2.4,0-4.8,0-7.3c0,0,0.1,0,0.1,0C353,468.5,353,467.4,353,466.4z M169.8,479.2c-0.5,4.3,1.4,5.1,5.1,5.3
			c9.4,0.5,10.7-0.7,10.7-10.5c0-5.3-0.1-10.7,0.1-16c0.1-2.7-0.4-3.9-3.6-4.1c-12.1-0.6-12-0.7-12.3,11.3c0,1.4,0,2.8,0,4.1
			C169.9,472.7,170.3,476,169.8,479.2z M259.5,465.1c0.1-10.9-2-12.6-12.9-10.8c-1.3,0.2-2.6,0.4-2.5,2c0.5,8.4-1,16.8,0.6,25.2
			c0.5,2.7,1.5,3.2,4,3.4c10.5,0.5,10.5,0.6,10.8-9.9c0.1-1.9,0-3.8,0-5.7C259.5,467.9,259.4,466.5,259.5,465.1z M263.7,475
			c0,10.6,1.3,11.8,12,9.9c3.8-0.7,3.2-4.7,3.4-6.9c0.6-6.9,0.2-13.8,0.2-20.7c0-0.3,0.1-0.8-0.1-1c-3.7-3.9-8.3-0.9-12.5-1.8
			c-2.6-0.6-3.2,1.1-3.1,3.4c0.1,4.2,0,8.3,0,12.5c0,0,0,0,0,0C263.7,471.9,263.7,473.4,263.7,475z M492.4,412.5
			c-1.8,0-4.5-1-4.7,2.4c-0.2,3.6,2.7,2.5,4.4,2.5c25.1,0.3,50.2,0.5,75.3,0.6c2,0,5.6,1.3,5.8-1.2c0.2-3.7-3.4-3.8-6.5-3.8
			c-12.3,0.1-24.6,0-36.9,0c0-0.2,0-0.4,0-0.5C517.4,412.4,504.9,412.4,492.4,412.5z M311,606.7c1.9,0,2.8-0.9,3.2-2.6
			c0.5-2,1.1-4,1.7-5.9c0.5-1.4,1.6-2.3,3.1-2.3c1.5,0,2.4,0.9,3,2.4c1.1,2.7,0.4,6.7,3.1,7.9c3.7,1.7,8.1,0.7,12.5,0.2
			c-5.3-1.5-7.7-6.3-11.3-9.6c-4.8-4.4-5.9-11.1-6-17.6c0-1.5,2-4.4-1.3-4.2c-2.2,0.1-5.3,0.5-5.2,4.8c0.2,9-3.6,16.4-10.6,22
			c-1.9,1.6-4.1,2.8-7.4,5C301.8,606.6,306.4,606.6,311,606.7z M188.6,537.7c6.8-1,13.6-2.2,20.5-3.2c4.3-0.6,5.9-3.4,5.4-7
			c-0.6-4.3-4.6-6.6-8.5-5.5c-7.1,2.1-14.2,4.3-21.3,6.4c-1.9,0.6-4,1.2-3.1,3.7c0.9,2.7,3,0.7,4.4,0.6c2.5-0.3,5-1.5,7.5-1.7
			c1.7-0.2,4.4-2.1,5,0.2c0.6,2.2-2.6,1.9-4.1,2.4c-3.7,1.1-7.6,1.9-12.7,3.2C185,538.5,186.8,538,188.6,537.7z M241.6,591
			c-1.4,2.4-2.4,5-4.8,6.6c-2.3,1.5-2.4,3.3-1.6,5.8c0.8,2.6,2.7,2.9,4.8,3c3.6,0.1,7.2,0.2,10.9,0.1c4.2-0.1,6.9-4.6,3.9-7.3
			c-6.7-6.2-8.3-14.1-9.4-22.6C244.1,581.6,244.1,586.6,241.6,591z M529.2,484.2c0,0.7,0,1.4,0,2.1c27.6,0,55.3,0,82.7,0
			C584.5,482.1,556.9,480.9,529.2,484.2z M281.8,586.7c2.4,1.7,4.2,1.6,6.7-0.5c1.1-1,4.2,0.4,5.5-2.5c1.9-4.3,0.9-7.8-2.6-10.5
			c-1.4-1.1-3.7-2.7-5.1-1.1c-2.5,2.8-9.5,0.8-8,6.9C278.1,582.6,279.4,584.9,281.8,586.7z M538.2,585.9c1.4-1.9,3.2-5.4,0.8-6.1
			c-4-1.3-0.3-4.2-2.3-5.7c-2.9-2.1-8-1.9-10.9,0.9c-1.9,1.8-3.3,5.7-2.2,6.2c3.3,1.6,0.7,5.4,3.5,6.8c1.4,0.7,2.8,1.2,4.4,1.2
			C534.2,589.2,536.6,588.1,538.2,585.9z M365.7,586.4c0.2-3,3.2-4.5,3-7.3c-0.2-4-4.4-7.2-8.8-7c-1.8,0.1-4.5,0.6-4.5,1.8
			c-0.1,3.1-3,4.7-3.1,7.4c0,3.9,4.4,7.6,8.5,7.4C362.8,588.6,365.6,587.9,365.7,586.4z M618.6,582.3c-0.6-2.6-1.7-5.3-2.7-7.8
			c-0.7-1.7-3-1.4-4.6-1.5c-4.7-0.2-8.7,2.8-8.5,6.9c0.2,2.6,2.1,4.9,2.8,7.5c0.4,1.3,3.1,1.9,4.7,1.9
			C614.8,589.4,619.4,585.7,618.6,582.3z M453.6,582.2c1.3-4.3-3.1-5.9-4.3-9.1c-0.9-2.3-6.2-2-8.7,0.5c-2.5,2.4-6.1,5.5-0.9,9
			c1.5,1-0.2,2.3,0.3,3.2c1.2,2.3,3.6,2.4,5.9,2.9C449.6,588,452.4,586.3,453.6,582.2z M219.8,586c1.2-2.9,6.4-2.6,5.5-7.5
			c-0.8-4.6-4.6-8.2-9-7.6c-1,0.1-1.7,0.3-2.4,1.4c-1.8,2.6-6.5,2.8-5.5,7.8c0.9,4.2,4.5,7.5,8.9,7.1
			C218.2,587,219.3,587.3,219.8,586z M645.3,576.5c-2.3,0.5-6.5-1.4-6.6,1.4c-0.2,4.4-3.4,9.3,1,13.7c1.7,1.7,2.9,1.3,4.5,0.5
			c1.7-0.8,3.6-1.3,2.8-4c-0.5-1.8-0.8-3.7-1.1-5.6c-0.2-1.4-0.2-2.8,1.3-3.6c1.5-0.7,3-0.8,4.2,0.6c1.5,1.6,3,3.3,4.6,4.9
			c0.6,0.6,1.3,1.2,2.2,0.6c0.9-0.5,0.8-1.3,0.6-2.2c-0.8-5.9-1.4-6.3-10.9-6.4C647,576.5,646.1,576.3,645.3,576.5z M479,487.8
			c0-0.2,0-0.4,0-0.6c-50.5,0-101.1,0-151.6,0c0,0.2,0,0.4,0,0.6C378,487.8,428.5,487.8,479,487.8z M638.9,525.1
			c1.1-2.1-4.8-9.2-7.2-9c-3.1,0.2-7.1-0.1-7.7,4c-0.8,5.2,1.9,8.6,5.9,9C633.4,528.9,637.1,528.6,638.9,525.1z M396.9,522.8
			c-0.6-2.4-0.7-6.5-4.2-6.3c-2.2,0.2-4.7-1.6-6.3,0.2c-1.4,1.5-2.2,3.8-2.7,5.9c-0.6,2.8,3.2,6.2,6.5,6.3
			C394,528.9,397.7,525.9,396.9,522.8z M238.5,520.4c-0.8-2.9-2.5-5.8-6.4-5.4c-4.3,0.4-7.8,4.1-6.7,7.5c0.9,2.8,3,5.3,5.6,5.3
			C236.2,527.4,239.5,524,238.5,520.4z M562.3,524c0.6-3.1-3.6-6-7.3-6.1c-4.6-0.1-6,4-5.7,6.4c0.3,2.7,1.3,7.8,6.1,6.2
			C560.8,530.9,561.7,527.1,562.3,524z M614.5,488.8c0-0.2,0-0.3,0-0.5c-38.4,0-76.7,0-115.1,0c0,0.2,0,0.3-0.1,0.5
			C537.7,488.8,576.1,488.8,614.5,488.8z M553.1,403.4c-0.2-4.1-0.8-7.8-5.8-8.2c-3.6-0.3-6.6,4.2-6.5,9.1c0,2.3,1,2.7,7,2.7
			C549.8,406.6,553.4,408.3,553.1,403.4z M638.3,418.6c1.3,0,3.5,1.5,3.6-1c0.1-1.8-1.7-2.6-3.8-2.6c-5,0.1-10-0.1-15-0.1
			c-4-0.1-7.9-0.3-11.9-0.2c-1.6,0-4.3-1.3-4.3,1.9c0,2.7,2.4,1.9,3.9,1.9c4.8,0.1,9.7,0,14.5,0c0,0,0,0.1,0,0.1
			C629.7,418.6,634,418.6,638.3,418.6z M613.4,472c1.4,1.9,3.3,3.8,5.5,3.3c2.3-0.5,1-3.2,1.2-4.9c0.3-2.4,0.3-4.8,0.2-7.2
			c-0.1-1.6,0.8-4-1-4.6c-1.7-0.6-3.5,0.9-5,2.2c-1.8,1.6-2.4,3.7-2.5,6C611.9,468.6,612.2,470.4,613.4,472z M569.8,572.5
			c-1.2-2.8-4.3-5-3-8.7c-10.8,3-10.8,3-8,12.5C562.4,575.2,565.9,573.9,569.8,572.5z M642.9,560.1c-9.9,4.4-10.6,4.9-6.4,10.6
			c4.1,5.5,6.6-3,10.8-2.3C644.9,565.9,643.5,563.2,642.9,560.1z M252.5,567c-1-1.4,0.1-4.6-2-4.4c-2.8,0.3-6,1.4-7.8,3.3
			c-2.1,2.2,0.8,4.9,1.4,7.5c0.5,2.1,2.3,0.7,3.4,0.3c2.6-0.9,5.1-1.9,7.6-2.9C254.2,569.5,253.4,568.2,252.5,567z M321,562.4
			c-10.6,4.1-11.3,4.6-7.7,10.1c3.5,5.5,7-2,11-1.2C322.2,568.4,321.1,565.6,321,562.4z M577.8,570.7c0.5,1,2.5-1.1,3.4-2.3
			c0.7-1,2-2.4-0.1-3.2c-2.2-0.8-2.3-1.7-1.3-3.8c1.3-2.7-1.9-2.7-3.2-3.3c-0.7-0.3-3.5-0.4-2.6,2.3c0.9,2.6-0.5,3.1-2.6,2.8
			c-2.6-0.4-1.8,1.5-1.8,2.6c0.1,1.8,1,3.3,2.7,4.1C574.8,566.9,576.2,567.3,577.8,570.7z M487.4,567.9c1.1-0.9,2.3-0.6,2.6,0.3
			c1.2,3,2.7,2.5,4.3,0.5c1.4-1.7,2.6-3.4-0.9-4.3c-1.1-0.3-1.2-1.8-0.5-2.7c2.3-2.8-0.2-3.2-1.9-3.6c-1.7-0.4-4.1-1.1-3.5,2.3
			c0.3,1.7-0.4,3-2.2,2.5c-2.3-0.6-2.3,0.6-2.2,2.6C484.4,566.3,483.2,571.3,487.4,567.9z M472,572.7c3.5,6.6,7.2-1.6,11.9,0.6
			c-2.1-3.9-4.4-6.2-3.4-10.1C469.6,566.9,469.1,567.2,472,572.7z M403.6,567.4c0.7-0.6,2-0.4,2.2,0.4c1,3.2,2.5,2.6,4.2,0.7
			c1.2-1.5,3.3-3.3-0.6-4.3c-1.2-0.3-1.6-1.6-0.9-2.5c2.1-2.8,0.3-3.7-2-4c-2.1-0.3-4.4-0.5-3.1,3.1c0.5,1.3-0.7,2.4-2.2,1.9
			c-2-0.7-2.5,0.1-2.2,2.4C400,566.3,398.9,571.5,403.6,567.4z M328.5,566.9c1-0.8,2.1-0.6,2.7,0.3c1.2,1.7,2.2,3.4,4.1,0.8
			c1.2-1.7,2.8-3.4-0.8-4.4c-1.1-0.3-1.6-1.7-0.8-2.5c2.2-2.5,0.4-3.3-1.6-3.5c-1.6-0.2-4.5-1.4-3.2,2.7c0.4,1.4-1.2,2.4-2.8,1.9
			c-1.9-0.6-2,0.5-2,2.3C325.5,565.1,324.1,570.3,328.5,566.9z M656.3,530.8c-0.2-2.4-1.2-5.6-4.1-6.5c-1.5-0.5-5.6,7.4-5.6,10
			c0,2.3,1.5,1.9,3.3,1.7C652.4,535.1,656.6,535.1,656.3,530.8z M656.6,561.6c1.6-3.4,3.3-6.9,4.9-10.3c0.6-1.3,0.4-2.5-1-3
			c-1.8-0.6-1.2,1.2-1.5,1.9c-0.5,1.3-0.9,2.6-1.3,3.9c-1.5,4.8-2.3,5-6.2,1.9c-1-0.8-1.7-2.7-3.3-1.1c-1.3,1.3-0.1,2.6,0.5,3.7
			c1.8,3,3.4,4.2,5.5,4.2C655.3,563.1,656.1,562.7,656.6,561.6z M265.5,559c-0.6-1.8-2.5-2.1-4.3-2c-1.6,0.1-2.7,0.1-1.9,2.3
			c0.8,2-0.5,2.9-2.4,2.7c-2.1-0.2-2.4,0.8-2.1,2.4c0.3,1.5,0.8,3,2.3,3.7C259.6,568.3,266.2,561.3,265.5,559z M663.5,553.1
			c-0.7,1.6-1.4,3.2-2.1,4.7c-3.3,7-1.9,9.2,5.7,9.2c1,0,2.2,0.1,2.4-1.3c0.2-0.9-0.1-1.5-1-2.1c-2-1.2-6.2,0.5-5.9-3.4
			c0.2-2.3,2.5-4.4,3.8-6.6c0.3-0.6,0.6-1.2,1-1.8C665.4,550.8,664.2,551.4,663.5,553.1z M144.7,470.4c-1,0.1-2.2,0.1-2,1.7
			c0.1,0.8,0.8,1.5,1.4,1.2c7.6-3.4,16.5,0.7,23.7-4.3c0.1-0.1,0.1-0.3,0.3-1.5C160,468.6,152.4,469.5,144.7,470.4z M653.8,539.2
			c1.5-0.1,3.1-0.3,2.9-2.1c-0.2-2.5-2-1-3.1-0.9c-1.2,0.1-2.4,0.4-3.5,0.8c-4.3,1.2-6.1,0-4.6-4.6c0.4-1.3,0.8-3.1-1-3.4
			c-1.8-0.2-1.7,1.7-2,3c-0.3,1.5-0.7,3-0.9,4.6c-0.4,2.6,0.4,4.2,3.4,3.1C647.9,539.5,650.8,539.3,653.8,539.2z M684.8,536.8
			c1.4-0.2,2.7-0.3,4.1-0.5c2.3-0.3,5.7,0.8,6.5-1.6c1-2.9-1.1-5.9-2.4-8.7c-0.3-0.6-0.7-1.3-1.6-0.8c-0.7,0.3-1.1,0.8-1.1,1.6
			c0,2.4,4,5.2-0.3,6.9c-2.3,0.9-5.1,0.2-7.7,0.2c-0.5,0-1,0.1-1.8,0.1C680.9,537,682.8,537.1,684.8,536.8z M613.5,528.9
			c2.2-0.3,2.2-1.8,2.1-3.4c-0.2-2.3-1.6-2.2-3.3-1.8c-2.4,0.6-4.7,1.2-7.1,1.5c-2.2,0.3-2.4,1.4-2.1,3.2c0.4,2,1.4,2.6,3.7,1.8
			C608.8,529.8,611.1,529.2,613.5,528.9z M659.6,527.9c-1-1.6-2-3.2-3.1-4.7c-1.4-1.9-2.3-5.5-4.3-5.2c-3,0.4-4.7,3.8-6.4,6.3
			c-0.4,0.6-1.1,1.5-0.2,2.2c0.6,0.5,1.4,1,2.2,0.2c1.7-1.6,2.4-5.4,5.8-3.7c2.3,1.2,2.7,4.3,3.9,6.5c0.4,0.7,0.8,1.3,1.3,2
			C660.6,530.4,660.5,529.2,659.6,527.9z M692.4,538.4c-2.7,0.5-5.5,0.4-8.2,0.7c-1.4,0.1-3.2,0.2-3,2.1c0.2,2.4,2.1,0.9,3.2,0.8
			c1.2,0,2.4-0.5,3.5-0.8c4.1-1,5.6,0.4,4.4,4.5c-0.4,1.3-1.4,2.9,0.7,3.4c2.1,0.4,1.7-1.8,2.1-2.9c0.5-1.4,0.6-3,0.9-4.5
			C696.3,538.8,695.3,537.9,692.4,538.4z M678.2,550.6c1.1,1.6,2.1,3.2,3.2,4.7c4.3,6.1,6.8,5.8,10.3-1.2c0.5-0.9,1.3-1.8,0-2.6
			c-0.8-0.5-1.5-0.2-2.3,0.4c-5.4,4.3-5.4,4.3-8.5-2c-0.5-1-1.2-2-2-3.4C677,548.1,677.4,549.3,678.2,550.6z M893.9,446.6
			c-0.2,0.8,0,1.5,0.5,2.4c2.8,4.3,2.4,10.1-0.7,13.7c-0.6,0.7-0.7,1.5-0.5,2.4c0.2,0.9,0.9,1.1,1.6,0.8c1.3-0.6,3.7-0.1,3.8-2.1
			c0.2-5.3,0.2-10.7,0.1-16c0-2-2.1-1.4-2.9-2C894.7,445.6,894.1,445.8,893.9,446.6z M649,542c-2.3,0.3-5.8-0.9-6.7,1.2
			c-1.2,2.8,0.9,5.9,2.3,8.6c0.4,0.8,0.9,1.6,1.9,1.1c1.1-0.5,1.3-1.3,1-2.5c-1.6-6.6-1.6-6.5,5-6.3c1.5,0,4.2,1.4,4.2-1
			c0.1-2.5-2.6-1.1-4.2-1.4c-0.8-0.1-1.7,0-1.9,0C649.7,541.9,649.4,541.9,649,542z M646.3,516c4.2,0.1,8.3-1.5,10.8-6
			c-4.3-0.8-8.5-0.2-13.8-0.1C645.3,512.1,643.4,515.9,646.3,516z M604.1,466c0.5-0.3,1-0.5,1.4-0.8c-5.8-10.2-11.6-20.5-17.4-30.7
			C591.7,445.9,598.6,455.6,604.1,466z M379.1,512.4c-1,1.2-0.9,1.8,0.4,2.9c1.9,1.6,3.8,0.8,5.1-0.2c1.8-1.4,5-1.7,4.9-5
			c-0.1-1.7-0.7-2.6-2.9-2.2C383.9,508.5,381.3,510,379.1,512.4z M680.7,526.8c-0.6,1.7-1.9,3.8,0,5.1c2.3,1.6,5.3,1.1,7.9,0.7
			c1.3-0.2,1.3-1.9,0.9-3.1c-0.5-1.3-0.7-3.4-2.7-3.1c-2.3,0.3-3.8-0.7-5.3-2.4C681.1,525.2,681,526,680.7,526.8z M234.4,533.7
			c-0.6-1.8-8.7-3.7-10.3-2.4c-1.9,1.5-1.8,2.6,0.4,3.7c2.2,1.2,4.5,1.7,8,2C233.7,537,235.3,536.4,234.4,533.7z M380.4,519.2
			c-0.2-1.5-1.6-2.3-2.9-2.5c-1.7-0.3-1.7,1.4-2,2.4c-0.6,2.2-0.9,4.5-0.1,6.6c0.4,1.2-0.2,3.6,2.1,3.2c1.9-0.4,3.5-1.6,2.8-4
			c-0.2-0.6-0.1-1.4-0.2-2C380.3,521.6,380.5,520.4,380.4,519.2z M383.1,536.4c1.6,1,3.4,2.1,5.3,1.3c1.6-0.7,1.3-3,0.6-3.6
			c-2.5-1.8-4.9-4.1-8.1-4.3c-0.9-0.1-2.4,0.6-2.5,2.1C379.3,534.1,381.2,535.3,383.1,536.4z M410.4,604.9c-0.8-2.5,0.1-7.2-3.3-7
			c-2.8,0.2-2.5,4.7-3.2,7.5c-0.7,3,1.8,1.5,2.8,2.2C408.2,606.8,411.6,608.4,410.4,604.9z M567.5,515.1c0-1.7-6.1-5.9-8.5-6
			c-2.2-0.1-2.1,1.6-1.9,2.8c0.8,4,5.4,3.2,7.2,5.9C565.8,516.9,567.5,516.9,567.5,515.1z M402.3,514.3c0.7-1-0.5-1.8-1.2-2.5
			c-1.7-1.8-3.7-3-6-3.9c-1.1-0.4-2.5-0.9-3.1,0.5c-0.4,1-0.5,2.9,0,3.4c2.2,1.7,4.8,3,7.3,4.5C400.4,515.6,401.7,515.2,402.3,514.3
			z M218.7,528.8c0.7,1,1.1,2.9,2.9,1.6c1.2-0.9,2.5-1.8,1.4-3.8c-0.7-1.3-1.4-2.8-1.4-4.3c0-2.3-1.1-3.2-3-3.2
			c-3.1,0-1,2.6-1.8,3.5C216.9,525.1,217.6,527.1,218.7,528.8z M245.2,513.6c-0.6-1-1.3-2.4-2.7-1.3c-0.9,0.7-2.2,1.4-1.8,2.8
			c0.7,2.2,2,4.2,1.8,6.8c-0.1,1.2,2.1,1.8,3.4,1.6c2.6-0.3,0.7-2.5,1.3-3.5C247.3,517.5,246.3,515.5,245.2,513.6z M229.5,507.8
			c0,1.7,0.7,3.4,3.1,3.2c0.5,0,1.1-0.1,1.5,0.1c2.6,1,6.2,3.2,6.7-1.2c0.3-3-4.1-3.1-6.8-3.8c-0.3-0.1-0.7,0-1.2,0
			C231.7,506.4,229.5,505.3,229.5,507.8z M220.4,517.2c1.3,0.2,7.6-5.4,7.4-6.6c-0.3-1.2-0.1-3-2-3.2c-1.7-0.2-7.5,5.8-7.6,7.5
			C217.8,517.1,219.3,517.1,220.4,517.2z M544.3,514.2c-1.6,2.5,1.6,3.4,2.4,3.1c2.7-1.1,5.4-2.6,7.6-4.5c0.6-0.5,1.1-3.3-1.1-4
			C549.5,509.9,546.3,511.3,544.3,514.2z M500.5,484.5c0.3-4-3.9-3-6.4-2.8c-2.3,0.2-6.5-1.9-6.5,2.2c0,4.6,4.5,0.9,6.4,2.4
			C496.4,485.3,500.3,487.9,500.5,484.5z M236.6,533.2c0.2,1.2,0.5,2.9,2.1,2c3.3-1.7,6.1-4.1,7.2-7.8c0.5-1.7-1.2-1.7-2.3-2.1
			C241.8,525.3,236.3,531.4,236.6,533.2z M587.2,606c-0.8-2.5-0.3-7.1-3.5-7c-3.2,0.1-2.5,4.7-3.2,7.3c-0.8,2.9,2.2,1.4,3.5,2
			C585.4,608,588.2,609,587.2,606z M528.7,553.5c1.2,0,2.1-0.5,2-1.8c0-1.6-1.4-1.2-2.3-1.2c-1.5-0.1-3.1,0.2-4.6-0.1
			c-4.5-0.7-6,1.6-6,6.2C521.8,555.3,525,553.5,528.7,553.5z M553.7,539.4c1.5-0.8,0.7-2.2,0.7-3.3c0-0.9-7.4-5.2-8.2-4.9
			c-1.1,0.4-2.2,0.9-2.4,1.9C544,535.6,552,540.3,553.7,539.4z M404.1,516.9c-0.9-0.7-1.9,0.3-2.7,0.9c-1,0.8-0.8,9.4,0.2,10.1
			c1.7,1.2,3.2,1.4,3.7-1.2c0.2-1.3,0.3-2.7,0.5-3.7C405.5,520.6,405.9,518.4,404.1,516.9z M650.7,580.8c-0.7-0.7-1.5-1.5-2.7-0.8
			c-1,0.7-1.1,1.7-0.7,2.7c0.1,0.2,0.1,0.3,0.1,0.5c1.1,7.9,1.1,7.9,8.2,3.2C653.9,584.4,652.3,582.5,650.7,580.8z M567.3,534.1
			c0.5-0.6,0.5-1.3-0.1-1.8c-0.9-0.8-2.2-1.9-3.2-1.3c-2.2,1.4-4.1,3-6.5,4.1c-1,0.4-0.6,2.2-0.4,3.4c0.1,0.8,0.8,1.1,1.8,0.9
			C562.2,538.7,565,536.8,567.3,534.1z M391.9,534.1c-0.5,0.4-0.3,2.4,0.2,3.4c0.5,1.1,1.8,0.4,2.8,0.1c2.5-0.7,4.6-2.2,6.4-4.1
			c0.7-0.7,1.8-1.4,0.9-2.5c-0.6-0.7-1.7-1.1-2.8-1.7C396.9,530.8,394.2,532.3,391.9,534.1z M545.2,524.1c0.5-2.3,1.5-4.8-1.9-5.8
			c-1.9-0.6-2,1.1-2.2,2.1c-0.9,3.4-1,6.8,1,9.9c0.1,0.2,1.5-0.3,2.2-0.6c1.8-0.9,1.6-2.4,1-4C545.3,525.1,545.1,524.6,545.2,524.1z
			 M203.5,508.9c-1.8,0.3-4.7-0.9-5.1,1c-0.6,2.7,0.4,5.9,2.2,8.2c1.1,1.5,2.2,0.2,2.6-1c0.8-2.6,1.4-5.3,2-8
			C204.5,509.1,204,508.9,203.5,508.9z M285.8,509.1c0.6,2.7,1.2,5.2,1.7,7.8c0.2,1,0.7,1.7,1.6,1.8c0.8,0,1.5-0.6,1.8-1.6
			c0.8-2.6,1.6-5.2,2.5-8C290.7,509.1,288.5,509.1,285.8,509.1z M570.4,520.1c-0.3-1.1-0.7-2.6-2.5-1.6c-1.1,0.6-3.1,1.3-2.2,2.9
			c1.6,2.8-2.5,7.4,2.7,8.9c1.4,0.4,1.6-1.1,1.9-2c0.4-1.3,0.5-2.7,0.7-4.2C570.8,522.8,570.8,521.4,570.4,520.1z M263.5,605
			c-0.7-2.8-0.2-7.4-3.8-7.5c-2.9-0.1-2.6,4.4-3.1,6.9c-0.6,3.4,2.6,1.5,4,2.2C261.7,606.1,264.2,607.4,263.5,605z M581,510
			c-2.2-0.1-5.6-1.6-6.1,0.1c-0.7,2.3,0.3,5.4,1.3,7.9c0.9,2.3,2.4,1.4,3.1-0.4c0.9-2.4,1.6-4.8,2.4-7.1
			C581.3,510.2,581.2,510,581,510z M349.8,507.8c-1.6,0.4-4.7-0.5-4.3,1.9c0.5,2.8,1.4,7.4,4.1,7.5c3.3,0.1,1.3-4.5,2.5-6.2
			C352.4,508.7,352.1,507.2,349.8,507.8z M432.2,518.9c0.2,1,0.7,1.6,1.6,1.7c0.9,0.1,1.6-0.4,1.9-1.3c0.7-1.9,2-4,1.8-5.8
			c-0.6-4.8-4.5-1-7-3.7C431.2,513.9,431.7,516.4,432.2,518.9z M558,606.6c-0.9-2.8-0.3-7.6-3.6-7.7c-3.3-0.1-2.8,4.7-3.3,7.3
			c-0.6,3.3,2.8,1.1,4,2.1C556.5,608.1,558.7,608.7,558,606.6z M605.9,516.9c0.3,1.3,0.3,3,2.1,3c1.4,0,1.6-1.6,2-2.7
			c2.6-6.7,2.1-7.3-6-6.6C604.8,513,605.4,515,605.9,516.9z M321,599.3c-0.3-1.3-1.3-2.6-2.4-1.9c-2.8,1.7-2.5,5-3,7.8
			c-0.5,2.8,2.1,1.2,3.2,1.5c1.1,0.3,2.3,0.1,4.1,0.1C322.1,603.9,321.6,601.6,321,599.3z M506,482c0.1,3.3,3.1,1.8,4.8,1.9
			c2,0.1,4.7,1,4.6-2.9c-0.1-4.1-3.2-1.9-4.8-2.5C507.5,477.7,505.8,479.3,506,482z M460.4,515.3c1.2,2-0.1,6.3,3.5,5.9
			c3-0.4,2.6-4.5,2.6-6.7c-0.2-5.2-4.4-1-7-2.9C459.9,513.4,459.9,514.5,460.4,515.3z M488.8,513.6c-0.3,2.3,0.4,7.5,3,7.4
			c4.5-0.2,1.9-5.7,3.8-8.5C493,512.9,489.3,510.1,488.8,513.6z M634.7,510.9c-0.6,2.5,0.6,8,3.1,7.8c4.1-0.3,2.2-5.6,4-8.7
			C638.9,510,635.4,508,634.7,510.9z M667.2,582.2c-1-2.6-3.5-5-6.7-5.8c-1.3-0.3-1.7,1.1-1.4,2.1c0.7,2.6,0.9,5.5,2.8,7.9
			C664,584.6,667.8,583.8,667.2,582.2z M281.5,475.9c1.6-7.2,1.3-14.4,0.4-21.7C280.6,461.4,280.4,468.7,281.5,475.9z M335.6,454.2
			c-0.3,0-0.7,0-1,0c0,7.3,0,14.6,0,22c0.3,0,0.7,0,1,0C335.6,468.9,335.6,461.6,335.6,454.2z M363.8,553c1,0.1,1.6-0.5,1.5-1.5
			c-0.1-0.6-0.3-1.7-0.6-1.7c-3.7-0.7-7.6-0.8-11.2,0c-1,0.2-1,2.3-1,3.9C356.4,553.3,360.1,552.5,363.8,553z M469.7,605.9
			c-0.7-2.6-0.4-7.1-3.3-7.1c-3,0.1-3.1,4.6-3.5,7.3c-0.4,3,2.5,1,3.7,1.7C467.8,607.4,470.5,608.6,469.7,605.9z M240.9,475.9
			c2.4-7.2,1.2-14.6,1.9-21.9c-0.6,0-1.3-0.1-1.9-0.1C240.9,461.3,240.9,468.6,240.9,475.9z M285.8,552.5c1,0.1,2.1,0.2,2.2-1.4
			c0.2-1.9-1.1-1.8-2.3-1.8c-2.2,0-4.5,0.2-6.7-0.1c-4-0.5-3.1,2.5-4.5,5.6C279.1,553.1,282.4,552.3,285.8,552.5z M189.2,454.8
			c0-0.8-0.7-1.3-1.4-1c-0.5,0.2-0.9,1.1-0.9,1.6c-0.1,6.6,0,13.3,0,19.9c0.8,0,1.5,0,2.3,0.1C189.2,468.5,189.2,461.7,189.2,454.8z
			 M208.5,552.8c2.9-0.6,5.8-0.9,8.7-1.3c1.1-0.1,2-0.4,1.9-1.8c-0.1-1.2-1.1-1.2-1.9-1.2c-2.8-0.1-5.5,0-8.3-0.1
			c-2.1-0.1-2,1.5-2.2,2.6C206.2,552.8,206.8,553.1,208.5,552.8z M642.3,596.8c-1.7-2-3.4-4-5.1-6c-3.5,2.8-2.4,6.1-1.7,9.4
			C638,599.3,640.4,598.8,642.3,596.8z M446.1,552.5c0.9,0,1.8-0.1,1.9-1.2c0.1-1.4-0.9-1.7-2-1.7c-2.7-0.1-5.5-0.1-8.2-0.1
			c-2.4,0-2.1,2.2-2.1,3.4c-0.1,1.7,1.5,0.6,2.5,0.7C440.6,552.6,443.4,552.6,446.1,552.5z M357.7,468c0.2-1.3,1-2.8-1.4-2.9
			c-1.6,0-2.1,0.8-2.1,2.2c0,5,0,10.1,0,15.1c0.3,0,0.5,0,0.8,0C355.9,477.7,356.8,472.8,357.7,468z M381.2,605.4
			c-0.1-1.6-0.2-4.5-2.1-4.5c-2.4,0-4.2,2.4-4.8,4.6c-0.7,2.6,1.9,1.5,3.2,1.9C378.9,606.8,381.5,608.4,381.2,605.4z M453,408.2
			c-4.9-2.8-10.7-2.3-14.1,1.8C444.1,410.1,448.8,411.3,453,408.2z M705.1,548.2c3-1,6.3-1.7,8.7-4.2c0.5-0.5,0.3-1.4-0.4-1.8
			c-2.2-1.2-3.9,0.6-5.8,1.2c-1.4,0.5-3.7,0.5-3.6,3C703.9,547.3,703.9,548.6,705.1,548.2z M440,539.9c-0.8,0-1.7,0-3.6,0
			c2.7,1.8,2.3,3.9,2.4,5.9c2.4-2.4,7.6-0.2,7.8-5.9C444.5,539.9,442.2,539.9,440,539.9z M539.1,607.1c7.9,2.7,10,1.6,11.5-6.3
			C547,603.5,543.8,606.2,539.1,607.1z M276.9,539.9c2.5,1.8,1.1,4,2,5.8c1.2-1.9,2.7-1.9,4.8-1.5c2.3,0.4,0.4-3.7,2.6-4.3
			C283.5,539.9,280.6,539.9,276.9,539.9z M213.1,592.4c0.5-3.7-3.1-3.5-4.9-4.7c-0.9-0.6-3.2,1.7-3,1.9c1.7,2,3.2,4.5,5.8,3.9
			C213.4,594.9,213,593,213.1,592.4z M502.2,562.2c-0.1-0.8,0-2-1.1-1.9c-1,0.1-1.9,0.8-1.9,2.1c0,1.4,0,2.7,0.1,4.1
			c0.1,1.8-2.8,4.6,0.4,5.1c2.3,0.4,2.3-3.2,2.7-5.2c0.1-0.5,0-1,0-2.4C502.4,563.9,502.3,563,502.2,562.2z M263.9,486.3
			c0,0.1,0,0.3,0,0.4c10.3,0,20.7,0,31,0c0-0.1,0-0.3,0-0.4C284.5,486.3,274.2,486.3,263.9,486.3z M454.7,593
			c2.5-1.4,4.5-3.8,5.3-6.6c0.4-1.4-1.6-1.9-2.5-1.6c-2.8,0.8-3.4,3.8-5.3,5.4C453.2,591.6,453.6,593.7,454.7,593z M518.1,589.7
			c1.4,2.2,3.1,4.7,6,5.2c1.4,0.3,1.4-1.5,1.4-2.1c-0.1-2.9-2.8-3.7-4.4-5.4C519.8,588,517.5,588.7,518.1,589.7z M189.4,592.4
			c-2.5,0.5-3.8,3.2-4.3,5.4c-0.6,2.4,2.5,2,3.8,2.2c3.9,0.6,1.2-3,2.4-4.1C191,594.3,191.9,591.9,189.4,592.4z M226,570.5
			c0.9,0.3,2.2-0.9,2.5-2.1c0.2-1-5.8-4.8-7-4.5c-1.3,0.3-1.1,1.5-1.6,2.7C221.3,568.7,223.7,569.7,226,570.5z M482,409.2
			c0.1-3.1-3.6-1.1-5.5-1.6c-0.6-0.2-1.4-0.2-2.1,0c-1.3,0.3-3.6-1.1-3.5,1.6c0,2.1,2,1.3,3.2,1.5c0.7,0.1,1.4,0,2.4,0
			C478.2,410,481.9,411.9,482,409.2z M346.4,575.7c-2.7,0.1-0.4,3.5-2.2,4.6c1.3,1.2,0,4.3,2.1,4.2c2.5,0,3.3-2.2,2.4-4.2
			C349.4,577.6,348.6,575.6,346.4,575.7z M225.3,588c-0.4,1,1.4,3.3,2.1,2.8c2.3-1.6,4.2-3.9,4.6-6.9c0.2-1.6-1.3-1.1-2.3-1.5
			C227,583.2,226.2,585.8,225.3,588z M617,592.4c-0.1,0.7,0.2,3.1,1.8,2.4c2.4-1.1,4.7-3,5.5-5.7c0.5-1.5-1.7-1.3-2.9-2.2
			C619.7,588.6,617.3,589.7,617,592.4z M355.8,546c1.2-2.3,3.1-1.7,4.9-1.9c1.8-0.1,1.2-3,3-3.9c-3.1,0-6.1,0-10,0
			C356.3,541.7,355.2,543.9,355.8,546z M499.5,600.7c1,7.6,1,7.6,10.6,6.5C506.1,605.8,503,603,499.5,600.7z M356,594.7
			c0.2,2.4,3.4,0.6,4.4,2.3c1.2-1.2,4.2-0.2,4.3-2.1c0.1-3-2.4-3.2-4.8-2.8C357.4,591.3,355.8,592.4,356,594.7z M624.4,572.9
			c-1.3-2.5-3.3-4.9-6.1-5.7c-1-0.3-1.8,1.9-1.5,2.7c0.8,2.4,3.2,3.5,4.8,5.1C622.9,574.4,625,574,624.4,572.9z M371.5,586.7
			c-2.2,1.1-4.7,2.3-4.7,5.3c0,0.9,0.6,2.7,1.6,2.1c2.5-1.3,4.7-3.2,5.9-6C374,586.6,372.4,586.3,371.5,586.7z M298.3,574.3
			c0.9,0.1,3.1-0.2,2.5-1.6c-1.1-2.6-3-5.1-5.8-6.2c-1.1-0.4-1.1,1.8-2,3.1C294.8,571.1,295.6,573.9,298.3,574.3z M224.6,592.1
			c0.3-0.3-1.8-2.8-3.3-2c-1.8,1-5.4-0.5-5.4,3.4c0,2.8,1.6,1.2,2.7,1C221.4,595.7,223.1,593.7,224.6,592.1z M455.6,572.6
			c1,0.2,2.9-1.1,2.5-1.9c-1.3-2.5-3.8-4.3-6.4-5.3c-1.5-0.6-1.3,1.5-1.8,2.9C451.4,570.1,453.1,572,455.6,572.6z M300.3,585.1
			c2.5-0.3,1.1-3.5,2.6-4.9c-1.6-0.7,0.5-3.9-2.2-3.6c-2.7,0.3-2.7,2.6-2.5,4.7C297.6,583.4,298.3,585.3,300.3,585.1z M217.5,539
			c-2.7,0-5.7,0-9,0c1.5,1.7,1.3,3.6,1.5,5.4C212,541.4,218,544.7,217.5,539z M209.4,564.8c-0.7-0.2-0.8,0.8-0.4,1.5
			c1.1,1.9,2.5,2.4,4.7,1.6c1.9-0.7,4.3-0.9,4.1-3.6c-0.2-2.7-2.1,0.1-2.8-0.6C212.5,561.6,211.6,565.5,209.4,564.8z M545.7,584.3
			c2.6-0.2,0.8-3.4,2.1-4.7c-1.6-0.9,0.2-4.2-2.6-4c-1.8,0.2-3.1,1.5-2.1,3.9C543.6,581.2,542.1,584.5,545.7,584.3z M364.8,566.2
			c0.2-2.9-3.3-0.5-4.1-2.3c-1.3,1-4.2,0-4.3,2.1c-0.1,2.3,1.7,3.7,4.1,2.4C363.2,569.5,364.7,568.4,364.8,566.2z M374.9,584.7
			c0.7,0,2.3-3.6,1.8-4.1c-1.3-1.5,0.5-4.6-1.9-4.7c-2.4-0.1-3.6,1.9-2.5,4.2C371.5,582.9,372.3,584.8,374.9,584.7z M280.6,568
			c0-0.9-0.4-2.4-1.7-2c-2.8,0.8-4.6,3-5.6,5.5c-0.5,1.2,1.8,1,2.7,2.5C277.5,571.5,280.7,571,280.6,568z M545.5,588.5
			c0.8-1.6-1.3-2.1-2.1-2c-2.8,0.4-3.9,3-5.1,5.1c-0.4,0.7,0.3,2.4,1.7,2.8C542.3,592.9,544.3,590.9,545.5,588.5z M520.1,541.1
			c1.3,2.1,1.9,3.8,5.2,4.3c4.9,0.7,0.8-4.7,3.9-4.3C526.2,541.1,523.2,541.1,520.1,541.1z M201.8,573.8c-0.3,1.7,0.6,1.8,1.5,1.8
			c3.6,0,3.7-3.4,5-5.6c0.6-1.1-1.1-1.9-2-2.6C204.3,569.3,202.3,570.9,201.8,573.8z M597.1,588.8c0.9,2.5,2.8,4.7,5.4,5.7
			c1.4,0.6,2-1.4,1.9-2.4c-0.4-2.5-2.7-3.6-4.2-5.2C598.8,587.7,596.7,587.8,597.1,588.8z M354,591.2c-0.6-2.4-2.5-4-4.7-4.8
			c-0.8-0.3-3.2,0.8-2.6,1.7c1.4,2.3,2.4,5.3,6,5.5C353.8,593.5,354.2,591.9,354,591.2z M417.8,561.6c-0.1-0.6,0.1-1.5-0.9-1.5
			c-1,0-1.7,0.5-1.9,1.4c-0.2,1.5-0.2,3.1-0.1,4.6c0.2,1.8-2.9,4.6,0.5,5c2.3,0.3,2.3-3.2,2.7-5.4c0.1-0.3,0-0.7,0.1-1.3
			C418.1,563.6,418,562.6,417.8,561.6z M614.8,566.5c-0.2-1.5-2.9-1.1-4.3-1.9c-0.9,1.8-4.2-0.5-4.2,2.1c0.1,2.6,2.2,3.2,4.3,2.5
			C613.2,569.7,615.1,568.8,614.8,566.5z M438.3,594.1c2.2,0.6,2-1.3,2-1.7c0.1-3-2.8-3.5-4.6-4.9c-0.8-0.7-2.5,0.6-3.2,1.8
			C434.1,591.4,435.5,593.3,438.3,594.1z M517.3,585.8c1.8,0.4,3-1.3,2.5-3.4c-0.5-1.9,1.2-5-2.5-5c-3.5-0.1,0.3,3.6-2.4,4.1
			C515.7,583.2,516.3,585.6,517.3,585.8z M542,574c0.8,0.2,3.3-0.6,2.6-2.2c-1.2-2.5-3.5-4.5-6.2-5.3c-1.6-0.5-0.5,2-2.1,2.7
			C538.1,571.2,539.7,573.3,542,574z M370.8,574.1c0.9,1.1,2.4-0.1,3.1-0.8c1.3-1.2-0.8-1.5-0.9-2.1c-0.4-3-3.3-3.2-4.8-5
			C364.6,570.3,369.1,571.9,370.8,574.1z M606.4,595.5c0.3,2.7,3.5,0.2,4.8,1.9c1.1-1.2,3.9-0.2,3.9-1.8c-0.1-2.6-2-3.9-4.4-2.6
			C607.7,592,606.2,593.6,606.4,595.5z M528.8,593.1c-0.7,0.6-1.2,1.8-1.2,2.7c0,1.1,1.2,0.5,1.9,0.8c2.6,1,4.9-0.2,7.2-0.8
			C535.4,593.1,530.8,591.4,528.8,593.1z M597,573.1c-0.6,1.1,1.2,1.7,2,1.7c2.8-0.3,4.4-2.3,5.3-4.6c0.4-0.9-0.2-2.3-1.4-2.9
			C600.2,568.5,598.4,570.7,597,573.1z M227.9,574.6c1,1.8-0.8,5.4,3.2,5.4c3.4,0,1-2.6,1.4-3.8c0.5-1.8-1-3.4-2.1-5.2
			C229.1,572.2,226.8,572.6,227.9,574.6z M439.4,566.3c-0.4,0.7,0.9,3,2.5,2.4c2.1-0.8,5.6,1.1,6.2-2.8c0.6-3.8-2.7,0.1-3.3-1.9
			C442.8,564.3,440.5,564.5,439.4,566.3z M291.5,565.7c0-0.9-3.1-2.6-4-2.2c-1.5,0.6-4.4-0.5-4.5,1.6c-0.2,2.7,1.8,3.9,4.3,2.9
			C289.9,569,291.6,567.7,291.5,565.7z M689.2,548.9c0.7-0.5,1.6-1.7,0.4-2.6c-0.9-0.6-2.4-2-3.1-0.7c-1.4,2.6-4.5,5.1-0.9,9.6
			C686.2,552,687.3,550.2,689.2,548.9z M459.7,573.7c-1.4,0.8-3.7,1-2.9,3.3c0.7,2-0.7,5.3,2.9,5.7c3.4,0.4-0.1-3.4,2.4-3.8
			C461.2,577.1,460.5,575.4,459.7,573.7z M379.7,506.2c-0.5-1.3-4.3-1-5.7,0.2c-2.2,1.9,0.5,3.8,1.3,6
			C376.7,510.1,381.1,509.5,379.7,506.2z M292,592.3c0,0.9,0.9,2.6,1.8,1.9c2.1-1.6,5-2.6,5.6-5.6c0.1-0.5-1.6-1.3-2.7-2.1
			C295,588.6,291.9,589.1,292,592.3z M272,574.5c-0.6,1.7-2,4.6-1.6,4.9c1.7,1.2-0.9,4.2,1.5,4.1c3.9-0.2,1.7-4.1,3-6.1
			C275.2,575.2,273.2,575.2,272,574.5z M534.8,566.1c-0.2-2-2.9-0.2-4-1.5c-1.2,1.6-4.4-0.2-4.5,2.1c-0.1,2.6,2.3,2.9,4.6,2.5
			C533.3,569.8,535,568.5,534.8,566.1z M519.8,575.2c2.6-0.5,3.9-2.8,4.7-5.1c0.2-0.7-0.9-3.1-1.8-2.5c-2.4,1.4-4.3,3.5-5.6,6.3
			C517.5,575,519,575.4,519.8,575.2z M431.1,573.7c-0.4,0.9,2.3,1.6,2.8,1.3c2-1.2,4-2.7,4.2-5.3c0.1-1-1-2.1-1.9-2.5
			C433.4,568.8,432,571.3,431.1,573.7z M203.7,586.9c1.1-0.8,2.9-1.4,2.2-3c-0.9-1.9,0.3-5.3-3.4-5.5c-2.9-0.2-1.1,1.5-1.1,2.3
			C200.2,583.7,202.6,585,203.7,586.9z M406.7,514.9c1.4-2,3-4.7,2.1-6.1c-1.2-1.9-4.2-0.9-7.5-1
			C403.4,510.6,404.9,512.5,406.7,514.9z M627.7,515.2c1.5-0.7,3.7,0.2,4.4-2c0.2-0.7-0.3-1.4-1.1-1.4c-2.2,0.1-5.3-0.9-6.2,1.2
			c-0.8,1.8-2.7,1.8-3.9,4.5C623.9,516.5,625.8,516,627.7,515.2z M624.9,585.3c2-0.2,1.6-3,1.8-4.4c0.2-1.1,0.1-4.1-2-4.2
			c-3,0-2.2,2.7-2.2,4.6C621.7,583.7,622.7,585.5,624.9,585.3z M596.1,576.7c-1.9,0.3-0.3,3-1.4,4.5c-0.3,0.4,0.1,4.1,1.7,4.2
			c2.6,0.2,3-2.2,2.6-4.4C599.2,578.7,598.9,576.3,596.1,576.7z M349.5,573.9c2.2-1,4.5-2.4,4.7-5.2c0.1-0.8-1-1.6-1.5-2.4
			c-2.1,1.9-4.1,3.8-6.1,5.6C347.2,573.7,348.8,574.2,349.5,573.9z M363.9,433.5c1.2-7.1,2.5-14.2,3.7-21.2
			C364.8,418.8,364,426.1,363.9,433.5z M451.2,594.1c0.3-0.4-0.3-3.1-2.8-2.5c-2.2,0.5-5.3-0.7-5.6,3c-0.3,3.1,2.5,0.2,3.3,1.5
			C448.2,596.6,450,595.6,451.2,594.1z M283.3,591.4c-1.6-0.5-2.6,2.2-2.1,2.8c1.3,1.4,3.6,2.6,5.3,1.6c1.1-0.6,3.5,1.2,3.3-1.7
			C288.8,590.6,285.5,592,283.3,591.4z M431.7,585.9c1.1,0.3,2.9-0.9,2.2-2.6c-0.9-2,1.3-5.4-2.5-5.9c-3.8-0.5,0,3.3-2.4,3.9
			C430.1,582.8,429.7,585.3,431.7,585.9z M106,565.1c1.4,0.1,1.9-1.3,1.3-2.6c-0.9-2,1.9-5.8-2-6.1c-2.1-0.2-1.3,2.8-1.6,4.3
			C104.1,562.5,103.3,564.9,106,565.1z M279.4,590.3c-0.9-2.1-2-4.4-4.8-4.6c-1-0.1-2.6,0.5-2.1,1.6c1.3,2.4,2.8,4.7,5.5,5.9
			C278.7,592.5,279.9,591.4,279.4,590.3z M677.5,570.2c-0.8-2.1-3.9-1.4-5.5-0.4c-3.2,2.1,0.7,3.5,1.1,5.4
			C674.5,573.2,678.6,572.9,677.5,570.2z M613.8,542.3c-8-1.3-8-1.3-7.3,4.6C608.8,544.8,613.8,547.5,613.8,542.3z M642.9,415
			c1.2,5.6,5.4,3.4,9.1,4.2C650.2,413.6,646.4,415.3,642.9,415z M685.2,569.8c2.4-0.5,3.8-2.7,4.8-4.8c0.5-1-1.1-1.3-1.7-1.3
			c-2.4-0.1-3.6,1.9-5.3,3C683.7,568.1,684.1,570,685.2,569.8z M615.3,552.6c0-2.6-3.9-0.7-5.9-1.3c-0.3-0.1-0.7-0.1-1,0
			c-1.6,0.5-4.5-1.5-4.5,1.4c0,3.6,2.9,0,4.2,0.9c0.3,0.2,1,0,1.9-0.1C611.5,552.9,615.3,555.1,615.3,552.6z M584.2,427.7
			c-2.3-4.2-4.7-8.4-7-12.6c-0.5,0.3-1,0.5-1.5,0.8C578,420.1,579.8,424.7,584.2,427.7z M234.2,605.4c0.4-0.5-0.6-3.1-1-3.1
			c-2.6,0-4.4,1.7-6.1,3.7C229.6,605.9,232.3,607.7,234.2,605.4z M707.1,538.5c0,1.2,0.7,3,2.5,2.5c1.3-0.3,3.5,0,3.3-2.2
			c-0.1-1.2-0.7-2.8-2.5-3C709.2,536.6,707.1,536.6,707.1,538.5z M453.9,606.6c3.1,0,7.8,3.2,7.8-3.7
			C458.9,604.2,456.4,605.4,453.9,606.6z M399.9,555.5c1.7-0.8,4.4-0.2,4.8-2.9c0.2-1.1-0.8-1.3-1.7-1.3c-2.1,0.1-3.9,0.8-5.3,2.4
			C398,555.1,399,555.9,399.9,555.5z M324.8,554.9c1.9-0.7,4.7-0.1,5.3-3c0.2-1.1-0.7-1.5-1.6-1.3c-1.9,0.5-4,0.7-5.3,2.5
			C323.3,554.2,324.2,555.1,324.8,554.9z M613.3,482c0.5-0.3,0.9-0.5,1.4-0.8c-2.4-4.1-4.8-8.1-7.2-12.2c-0.4,0.3-0.9,0.6-1.3,0.9
			C608.6,473.9,611,478,613.3,482z M568.7,554.8c-0.1,0.8,1.2,2.1,2.2,1.3c1.5-1.1,4.5-0.2,4.5-3.2c0-1.2-1-1.1-2-1
			C571.8,552.8,569.1,552.2,568.7,554.8z M515.2,475.5c-4-0.4-8.2-2-11.4,2.6C507.3,475.5,511.6,477.4,515.2,475.5z M384,575.2
			c0.8-0.7,0.1-2-0.5-2.2c-2.6-1-4.2,1.1-7.2,2.6C379.8,577.2,382,576.8,384,575.2z M480.7,419c0-0.1,0-0.2,0-0.3
			c-5.6,0-11.2,0-16.8,0c-0.1,0.1-0.1,0.2-0.2,0.3C469.4,419,475,419,480.7,419z M255.3,554.6c2-0.5,4.6-0.2,5.3-2.9
			c0.3-1.1-0.7-1.4-1.6-1.3c-2.1,0.2-3.9,0.9-5.5,2.7C254.1,553.7,254.8,554.7,255.3,554.6z"/>
		<path d="M372.4,462.8c-0.6-1.3,1.8-3.5-1.7-3.8c-3.1-0.3-2.7,1.6-2.9,3.4c-0.1,1.7-0.5,3.4-0.6,5.2c-0.1,1.6-1,3.6,1.9,3.8
			c2.6,0.1,2.6-1.7,2.7-3.5C372.1,466.2,372.3,464.4,372.4,462.8z"/>
		<path d="M477.8,460.4c-3.8-1.1-5.3,0.3-4.9,4.1c0.1,1.7-0.4,3.4-0.6,5.1c-0.2,1.5,0,2.7,1.9,3c2,0.2,2.8-0.7,2.9-2.6
			C477.3,466.9,477.5,463.8,477.8,460.4z"/>
		<path d="M118.4,499c4.9-1.4,9.3-3.9,14.3-5c11.8-2.8,23.8-1.1,35.7-1.1c43.9,0.1,87.7,0.3,131.6,0.4c21.1,0.1,42.2,0.8,63.4,0
			c3.1-0.1,6.2,0.3,9.6,0.5c-1.4-2.1-3.2-1.2-4.7-1.2c-30.5-0.2-61-0.4-91.5-0.5c-44.5-0.2-89.1-0.5-133.6-0.7
			C134.2,491.3,125.9,494,118.4,499z"/>
		<path d="M610.7,440.8c0.1,1.9,0.2,3.8,0.3,5.6c0.1,2,1.5,2,2.9,2c1.4,0,2.9-0.1,2.9-2c0-3.8,0.1-7.5,0-11.3c0-1.9-1.4-2.1-2.9-2.1
			c-1.5,0-2.8,0.3-2.9,2.1c-0.1,1.9,0,3.8,0,5.7C610.9,440.8,610.8,440.8,610.7,440.8z"/>
		<path d="M640.4,480.8c5.4-4.6,7.7-11,8.8-17.6c2.1-12.7,0.5-24.7-8.8-34.6c2.3,5.7,5.9,10.8,7.1,16.9c2.3,11.1,0.6,21.5-5.2,31.2
			C641.6,478.1,640.2,479.1,640.4,480.8z"/>
		<path d="M639.3,442.5c3.3,6.8,4.4,13.9,2.8,21.3C644.5,456.2,643.9,449,639.3,442.5z"/>
		<path d="M671.3,482.2c7.3,2.3,9.4,0.9,9.4-6.2c0-7.4-1.6-9.4-7.2-8.6c-0.9,0.1-1.9,0.2-1.9,1.3c0,1,0.9,1.7,1.8,1.5
			c7.2-1.5,4.4,3.9,4.9,7c0.7,4.9-3,3.3-5.4,3.5C672.2,480.7,671.5,480.8,671.3,482.2z"/>
		<path d="M127.4,569.2c3.2,0.8,6.8,4.2,8.6-1.7c-2.3-1.4-4.9-3.1-7.5-4.8c-0.3-0.3-0.5-0.5-0.8-0.8c-1.8-2.5-3.6-5-5.5-7.4
			c0,0,0.1,0.2,0.1,0.2c-1.7-6.4-2.9-12.6-0.7-19.2c2.5-7.5,7.9-12.3,14.3-16.3c0,0-0.2,0.2-0.2,0.2c1.8-0.4,3.7-0.8,5.4-1.4
			c0.8-0.3,3.1-0.2,1.8-1.8c-0.9-1.1,0.5-4.2-2.9-3.5c-2.1,0.5-4.1,1.8-6.5,1.3l0.1,0.1c9.2-5.9,25.7-3.6,32.4,4.5
			c-1.1-0.5-2.1-1.1-3.2-1.6c-2.3-1.2-4.7-4.3-6.2,0.8c-0.1,0.2-1.3,0.1-1.9,0.1c-0.2-3.3-1.3-5.7-5.2-5.9c-2.7-0.2-2.6,1-3.3,3.1
			c-1.2,3.8,1.9,2.4,2.6,2.4c2,0.1,4,1.2,6.1,0.3c2,2.8,5.4,3.4,8,5.3c2.2,3.3,5.4,6,7,9.8c0.3,0.8,0.9,1.6,0.9,2.4
			c0.3,3.9,1.7,6,6,4.4c-0.8-7.3-0.8-7.3-7-6.6c0-0.5-0.1-1.1,0.1-1.5c1.8-5.2,1.8-5.2,0-9.9c13.6,13.2,10.9,38.8-5,47.7
			c0.1-2.4,3.9-2.6,3.1-5.4c4.3-1.2,5-5.1,6.7-8.4c-5.5-1.2-7.4,0.5-7.8,6.3c-4.4-0.6-5.9,4.9-10.1,4.8c-5.8,4.1-12.1,2.8-18.4,1.8
			c-1.7,4.9,0.9,6.1,5.1,6.1c0.7,0,1.9,0.4,1.9-0.9c0-4.3,1.8-1.6,2.7-0.6c3.2,3.1,6,0.1,9-0.5c-0.7-1.9-1.1-3.9-0.4-5.9
			c0.9,0.4,2.4,0.5,2.7,1.2c1.3,3.2,3.5,2,5.6,1.4C155.8,578,136.5,578,127.4,569.2L127.4,569.2z M124.9,538.5c1,1,1,2.1,0,3.2
			c-2.9,3.2-2.7,9.8,0,13c0.9,1.1,1.7,0.7,2.7,0.4c1.6-0.3,2.3,0.8,2.4,2.1c0.8,6.9,5.6,9.8,12.2,7.2c0.9-0.4,1.9-0.5,2.3,0.4
			c1.7,4.4,5.1,2.6,7.8,1.9c2.5-0.7,6.7-0.2,5.8-5.2c-0.1-0.8,1.1-1.6,2.3-1.7c6-0.3,9.7-6.4,7.2-11.8c-0.5-1.1-0.5-1.9,0.3-2.8
			c3.8-5.1,2.3-11.4-3.3-13.6c-1.1-0.4-1.6-1.2-1.7-2.3c-0.4-6-6.4-9.7-11.9-7.1c-1.1,0.5-1.8,0.5-2.8-0.3c-5-4.1-11.3-2.5-13.4,3.4
			c-0.4,1.2-1.4,2-2.2,1.7c-1.7-0.6-3-1.2-4.4,0.7c-2,2.7-3.6,5.4-4.6,8.3C123,537.5,124.2,537.8,124.9,538.5z M176.3,543.6
			c-0.9,1.9-3.8-2.2-4.3,1.4c-0.5,3.3-1.6,6.9,4.5,6.7C175.7,548.8,178.7,546.2,176.3,543.6z"/>
		<path d="M124.4,520.3c-12.1,8.6-14.4,31.2-4.2,41.5c0,0-0.1,0.1-0.1,0.1c-2.6-3.4,2.6-4.6,2.1-7.4c0,0,0.1,0.2,0.1,0.2
			c-0.8-0.3-1.7-1.2-2.3-1c-2.1,0.8-3.9,0.7-3.9-1.8c0-1.6-3.3-4.9,1.7-5.1c0.9,0,1.5-1.4,1.2-2.5c-0.3-1.1-1-2-2.2-1.7
			c-3.4,0.6-1.8-2.4-1.5-2.7c1.3-1.2-1.5-4.9,2.5-4.2c1.4,0.2,2.5-0.1,3-1.3c0.6-1.4-0.4-2.3-1.6-2.8c-1.8-0.8-1-1.9-0.3-2.9
			c0.9-1.3,1.2-3.7,2.9-3.8c1.3-0.1,2.7,2.6,4.3,0.3c1.5-2.3-1.5-3.1-1.9-4.9L124.4,520.3z"/>
		<path d="M128.4,562.7c-0.3-0.3-0.5-0.5-0.8-0.8c-2.5,2.3-5,3-7.5,0c0,0,0.1-0.1,0.1-0.1c1.4,3.5,3.8,5.9,7.3,7.3
			c0,0-0.1,0.1-0.1,0.1C126.1,566.8,129.9,565.2,128.4,562.7z"/>
		<path d="M133.7,514.1c-4.1,0.7-7.3,2.5-9.4,6.2c0,0-0.1-0.1-0.1-0.1c3.3-1.5,6.3-5.4,10.2-1.1c0.2,0.2,1,0,1.5,0
			c0,0-0.2,0.2-0.2,0.2C136.1,517.1,135.3,515.4,133.7,514.1L133.7,514.1z"/>
		<path d="M881.8,462.7c1.4-4.6,1.2-9.2,0.6-14.2C879.4,451.5,879.1,457.4,881.8,462.7z"/>
		<path d="M872.4,456c-1.1-2.5,1.4-6.8-1.5-6.9c-2.7-0.1-1.5,4.2-1.4,6.4c0,2.3-1.3,6.7,1.2,6.7C873.9,462.2,870.7,457.8,872.4,456z
			"/>
		<path d="M860.2,462.6c1.9-3.9,0.8-8,1.5-12c0.1-0.8-0.2-1.9-1.3-1.8c-0.4,0-1.2,0.8-1.2,1.3C858.9,454.3,858.2,458.5,860.2,462.6z
			"/>
		<path d="M856.7,462.7c1.9-4.8,1.4-9.6,0.2-14.4C855.1,453.1,855.4,457.9,856.7,462.7z"/>
		<path d="M888.3,464c2-5.4,0.9-9.7,1.2-13.9c0.1-0.7-0.5-1.4-1.3-1.2c-0.4,0.1-1,0.6-1,1C887.1,454.2,886.2,458.6,888.3,464z"/>
		<path d="M867.6,448.8c-2.2,4.5-1.3,9.2-0.5,13.8C869.2,458.1,868.6,453.4,867.6,448.8z"/>
		<path d="M874,462.5c2.1-4.5,2.1-9.1,1.3-13.7c-0.4,0-0.9,0-1.3,0C874,453.4,874,458,874,462.5z"/>
		<path d="M877.9,448.9c-1.3,4.6-1.9,9.2-0.1,13.8C879.3,458.1,879.3,453.5,877.9,448.9z"/>
		<path d="M885.1,448.8c-1.5,4.6-1.1,9.2-0.2,13.9C886.7,458.2,886.3,453.5,885.1,448.8z"/>
		<path d="M864.1,448.8c-1.3,4.5-1.6,9.1-0.3,13.7C866.2,458.1,865.3,453.4,864.1,448.8z"/>
		<path d="M121.6,489.1c4.8,0.1,9.2-2.8,14.1-2c6.5-2.3,13.3-0.5,19.8-1.7C144.1,484.8,132.5,483.7,121.6,489.1z"/>
	</g>
</g>
<g id="text">
</g>
<g id="scratch">
</g>
<g id="guides" display="none">
</g>
</svg>
