<?xml version="1.0" encoding="utf-8"?>
<!-- Generator: Adobe Illustrator 26.0.2, SVG Export Plug-In . SVG Version: 6.00 Build 0)  -->
<svg version="1.2" baseProfile="tiny" xmlns="http://www.w3.org/2000/svg" xmlns:xlink="http://www.w3.org/1999/xlink" x="0px"
	 y="0px" viewBox="0 0 1000 1000" overflow="visible" xml:space="preserve">
<g id="bg">
</g>
<g id="counters">
	<g>
		<path stroke="#000000" stroke-width="3" stroke-miterlimit="10" d="M679.1,631.3c0.9-0.5,2-0.6,2.4-1.8c2-5.8,4-11.7,6-17.5
			c0.7-2.1-0.1-4.1-0.7-6.4c2.2,4,4.8,0.9,7.1,0.9c7.6,0,15.2,0,22.9,0c1.9,0,3.8-0.2,7.1-0.4c-6.3-1.1-11.2-0.7-16.1-0.6
			c-2.8,0-4.3-0.6-4.2-3.7c0.1-6.9,0.2-13.8,0-20.7c-0.1-3,1.2-3.5,3.8-3.4c4.7,0.2,9.4,0,14.2-0.4c-6.7,0-13.4-2.1-20.3,0
			c-1.5,0.4-4.6-3.1-4.9-6.4c-0.2-1.9,0-3.8-0.5-5.7c-1.3,3.4-1,6.7,0.8,10c0.6,1,1.3,2.2,0.1,3.3c-0.3,0.3-1,0.3-1.5,0.2
			c-1.5-0.4-1-1.7-1-2.6c0.5-12.4-0.3-24.9,2-37.2c1.3-7-0.4-14-1-21.1c-1.2-14.8-2-29.6,0-44.3c0.6-4.2-0.3-8.4-1-12.6
			c-1.6-10-1.3-20-0.8-30.6c10.1,2.8,20.1,5.6,30.1,8.2c1.9,0.5,1.6,1.7,1.5,2.8c-0.5,5.6,0.6,10.9,2.8,15.9c2.5,5.7-3.8,4.4-5.2,7
			c1-0.2,2.1-0.4,3.1-0.6c1.3-0.3,2.8-1.5,3.6,0.5c0.3,0.7,0.2,1.9-0.2,2.5c-1,1.5-2.6,0.6-3.9,0.4c-1.5-0.3-2.4-1.3-2.5-2.9
			c-0.5,3.1-0.4,3.5,2.8,4.2c2.9,0.6,5.4,1.5,6.2,5.1c0.1-3,0.8-4.3,4.1-4.1c4.3,0.2,8.7-0.8,12.7-3.6c-4.8-4.1-10.2-3.8-15.7-3.6
			c4.3,1,9,0.6,13.2,3.6c-4.2,2.3-8.6,2.1-12.8,2.7c-0.9,0.1-1.9-0.2-1.9-1.3c-0.5-8.8-6-16.5-5.3-25.5c0.1-0.9,0.2-1.7,0.3-2.9
			c11.9,2.9,23.6,5.6,35.2,8.7c4.7,1.3,9.2,2.5,13.9,0.4l-0.1,0.1c-1.7-0.8-2.5-3.5-5.6-1.2c-1.4,1.1-4.2-2.8-7.6-3.3
			c-5-0.8-10.5-0.8-14.9-4.3c-0.3-0.3-1.4-0.2-1.4-0.1c-1.8,5.4-5.3,1.6-7.6,1c-11.9-2.6-23.8-5.5-36.8-10
			c32.9-0.1,64.3,1.8,96.1,0.9c-1.9-1.4-3.5-0.8-5-0.9c-28.3-0.4-56.7-0.9-85-1.1c-4.6,0-6.3-1.3-6.2-5.9c0.2-7.8,0.1-15.6,0.1-23.3
			c-5.9-1.3,0.4,7.7-5.9,6c1.3,1.6,3.4,0.1,4,2.3c-0.7,1.7-2.9,0.1-3.9,1.2c0.3,2.7,3.6,0.6,4.6,2.9c-1.3,1.7-3.4,0.4-4.9,1.2
			c0.7,2.9,3.5,0.8,4.7,2.3c0.3,2-1.8,1.1-2.6,2c0,1.8,3.2-0.4,2.6,2c-4.7,1.8-4.7,1.8-1.2,10.4c-6.8-4.8-13.6-5.2-20.1-6.7
			c-6.2-1.5-12.2-4.1-19-3.1c0.6-3.1,2.6-0.8,3.6-1.8c-1.3-1.8-3.2-1.8-4.2-0.7c-3.9,4.4-6.3-1.4-9.7-1.5c-2,0,1.5-1.6,1.6-3.1
			c-4.4-1.4-7.4,4.1-11.9,2.8c0.5-1.6,2.7-0.1,2.6-2.1c-4-1.3-8-2.7-12.1,0c-0.5-3.3,2.8-1.5,2.2-4c-3.2-0.7-5.1,2.3-7.6,3.2
			c-2.2,0.9-3.6,1.2-4.5-1.3c-1.4,0-2.8-0.1-4.1,0.7c-0.7,0.4-1.9,0.8-2.3-0.2c-0.6-1.4,1.8-0.6,1.7-2.1c-1.6-0.8-4.1-1.4-5.2-1.2
			c-3,0.5-5.3-3.9-7.2-1.9c-2.5,2.7-4.4,0.6-6.6,0.5c-0.9,1.8-2,2.1-4.2,1.7c-6.2-1.2-11.5-4.8-17.6-6.4c5.7-3.2,5.7-3.2,11.7-1.1
			c1.3,0.5,2.8,1.6,4,0.7c3.9-2.7,7.6-1.3,11.5,0c2.1-1.1,3.7-2.9,6.6-2.5c8.5,1.1,17.3-0.7,25.5,2.9c3,0,6.4,1,8.2-3.5
			c-6.3-0.3-12.3-0.8-18.4-0.9c-11.5-0.1-23,0.2-34.5-0.3c-4.3-0.2-8.7,0.1-13.1-0.2c-1.4-0.1-3.3,0-2.9,2c0.6,3.7-1.1,6.9-1.6,10.3
			c-0.1,0.5,0.1,1.3-0.2,1.4c-6.7,3.4-1.6,7.6-0.4,11.1c1.4,3.7,0,7.2,0.3,10.8c0.6,6.9,0.4,13.8,0.7,20.7c0.1,2.5-0.8,3.5-3.3,3.3
			c-4.4-0.3-8.9,0.6-13.5-0.9c0,6.1,0,12.8,0,19.5c0,1.5,0.5,2.6,2,2.4c4.4-0.7,8.6,2.3,13,0.5c1.4-0.5,1.9,0,1.9,1.4
			c0.2,3.9,0.5,7.8,0.7,11.6c0.2,2.5-3,0.7-3.4,3.3c0,1.3,2.7-0.5,2.8,1.6c-5.4-0.3-10.6-2.1-15.9-1.1c2.7,3.1,3.1,6.5-1.4,10.6
			c5.1-1.1,8.7,1,12.5-0.6c-3.4,2.4-7.7,2.1-11.6,3c0.1,0.5,0.3,1,0.4,1.5c4.3-0.9,8.6-1.7,12.8-2.7c2.9-0.7,4.3,0,4,3.3
			c-0.2,2.6,0.1,5.3-0.1,8c-0.2,4,1.9,9.6-0.7,11.6c-2.5,2-7.8,0.2-11.8,0.4c-3.1,0.2-3.5-1.3-3.5-3.8c0.1-4.4,0-8.8-0.2-13.3
			c-1.2,5.4-0.6,10.8-0.8,16.3c-0.1,2.5,1.1,2.9,3.2,2.8c4.7-0.1,9.3,0,14,0.6c-4.2,1.6-8.5,0.5-12.8,0.6c-1.2,0-2.5-0.2-3.7,0
			c-0.8,0.1-0.6,1.1-0.5,1.8c0.2,1.5,0.9,0.4,1.4,0.4c4.1-0.1,8.1-0.1,12.2-0.1c1.8,0,3.3-0.3,3.5,2.6c0.2,3-1.5,2.6-3.3,2.7
			c-3.7,0-7.4,0-11.2,0c-0.8,0-2-0.8-2,0.7c0,1.2,0.9,1.5,2.2,1.3c18.5-1.7,13.6-2.9,14.8,12.4c0.4,4.6,0,9.2,0.3,13.8
			c0.3,3.5-0.2,6.8-2.9,9c-3.3,2.8,2.1,5,0,7.4c3.5-1.6,0.5-5.4,2.4-7.7c3.2,10.3,3.2,10.4-0.1,14.5c1.2-2.9-1-3.6-2.4-4.4
			c-2.2-1.3,0-1.7,0.3-2.5c-3.2,0.7-5.5,0.7-1,4.2c2.7,2.2,6.5,5.5,5.7,10.7c-0.6,4.3,1.8,5.6,6.1,5.6c11.6-0.2,23.3,0,34.9,0
			c1.1,0,2.5,0.8,3.7-1.6c-3.9,0.8-7.1-3.5-10.9,0.2c-0.3,0.3-4.2,2.3-4.2-1.7c-9.1,2.6-18.2,0.7-27.3,0.9c1.1-1.3,3.5-0.6,3.1-3.1
			c-0.2-2.5-2.7-2.9-4.4-4c2.6-2.6,3.6,0.4,5.2,0.6c4.3,0.7-1.6-2.8,1.1-2.9c0.2,0,0.4-0.1,0.5,0c2.2,2,4.8-0.8,7,0.6
			c1.1-1.3,3.1-2.4,4.1-1.8c6.4,3.5,12.9,2.1,19.4,1.1c3.8-0.6,7-4.5,11.4-2c0.1-3.7,2.7-2.5,4.4-1.9c1.2,0.4,2.3,0.8,3.5,0.4
			c2.8-1.1,9.6-0.7,11.7,0.8c1,0.7,7.2-1.1,7.2-2.2c0-0.8-2.1,0-1.4-1.3c0.5-1,1.8-0.6,2.9-0.3c1.2,0.3,2.7,0.4,3.6-0.1
			c5.2-2.9,10.8-1.4,16.2-2c9.4-3.1,14.7-2.9,19.3,0.7c-1.8,0.1-3.7-1.4-4.7,0.7c0.7,1.5,3.5-0.2,3.2,1.9c-0.3,2.4-2.3,1.3-3.8,1
			c-0.5-0.1-1,0-1.5,0c2.8,4.8-3.3,0.8-3.1,2.3c0.2,2,1.1,2,2,2c2.3-0.2,4.5,2.2,3.8,2.9c-2.1,2.1-0.6,8.1-5,6.7
			c-5.1-1.6-9.5,1.9-14.8-0.2c-3.8-1.5-9-0.5-13.3,0.5c-3.6,0.8-7-1.7-9.5-0.6c-5.3,2.4-10.7-0.8-15.7,1.2c-0.1-0.3-0.2-0.6-0.2-0.9
			c-2.7-0.4-4.8,1.9-7.5,2.3c12,0,24,0,36.1,0c7,0,14.1,0.1,21.1-0.1c4.5-0.1,6.4,1.3,4.7,6c-1.2,3.2-2,6.6-2.9,9.8
			c-2.7,0.2-1.7-3.1-4.1-3.3c-2.5,4.1-1.1,9.2-2.7,13.6c3.1-2.4,1.8-6.6,3.8-9.9C681.4,625.8,678.6,628.6,679.1,631.3z M695,601.1
			c1.6,2.6,3.9,2.7,6.6,1.3c-0.7,3.7-3,3.2-5,2.7c-1.2-0.3-2.2-0.9-3.5-0.5c-5.1,1.7-3.2-1.2-2.2-3.5c0.1-2.3-0.3-4.9,3.6-3.3
			c2.3,1,2.6-1.2,3.2-2.6c-1.5,1.3-3.8,1.8-4.5,0.2c-0.8-1.9-1.2-4.7,1.4-6.4c-1.6-3.5,2-3.3,3.3-4.7c0.5-0.6,1.9,0.4,2-0.9
			c0.1-2.9,0.1-2.9,1.6-3.9c0,2.8-0.3,5.7,0.1,8.4c0.4,3.1-1.6,2.4-3.3,2.5c0.1,2.1,3.4,0.2,3.2,2.4c-0.2,2.4-3.1,0.4-3.9,2
			c-0.1,0.1,0,0.3,0,0.5c1.7,0.8,4.7-0.2,4,3.6c-0.4,2.2-1.6,2.9-3.3,3C697.3,602,696.2,601.4,695,601.1z M572.9,447.2
			c0-9.8-0.1-18.7,0-27.5c0-5.3,3.3-9.3,7.5-9c10.1,0.9,20.3,1.7,30.4,3.4c25.2,4.2,50.2,9.1,75.4,13.3c3.9,0.7,4.9,2.1,4.9,5.6
			c0.3,34.1,0.7,68.2,1.2,102.3c0.2,13.9,0.6,27.8,0.8,41.6c0,1.6,0.8,3.6-2,4c-7.5,0.9-15,2.3-22.5,3c-15.1,1.5-30.2,3.8-45.3,4.8
			c-12.5,0.9-24.9,2.5-37.4,3.7c-2.5,0.2-4-0.8-6-2.8c-4.4-4.4-4.4-9.6-4.5-14.6C574.3,532.2,573.6,489.3,572.9,447.2z M563.1,459
			c2,0.2,3,0.2,4.1,0.3c2.1,0.2,4.8-1.2,4.7,3.2c-0.1,4.3-2.9,3.2-5,3.3c-3,0.1-5.9-0.2-8.9-0.6c-3-0.4-2-2.3-2.2-3.8
			c-0.2-2.2,1-2.6,2.9-2.4C560.5,459.1,562.3,459,563.1,459z M561.1,500.4c0.2-1.3-1-3.9,1.9-3.5c3.2,0.4,1.1,3.5,1.8,5.2
			c0.5,1.3,0.4,3.1-1.6,3C560.3,504.9,561.1,502.5,561.1,500.4z M567.2,469.9c-1.2-0.9-3.7,1.8-4-1.6c-0.2-2.2,1.8-1.5,2.6-1.2
			c1.9,0.5,5.3-1.9,5.6,1.5C571.7,471.4,568.6,468.6,567.2,469.9z"/>
		<path stroke="#000000" stroke-width="3" stroke-miterlimit="10" d="M275.5,500.8c2.7-4,0-8.3,0.8-12.4c1.3-7.2-1.8-14.6,0.1-21.6
			c1.8-6.3,0.7-12.7,0.5-18.6c-0.3-11.1-0.7-22.2-0.4-33.4c0.3-12.7-1.2-25.5-0.1-38.2c0.1-1.6-1.9-4.2,1.7-5
			c0.8-0.2-0.1-1.7-2.1-1.5c-2.5,0.3-4.9,1.8-8-0.9c18.9,0,36.9,0,56.1,0c-4.4,2.1-8.2-0.2-11.6,1.1c0,0.5,0,1,0,1.5
			c20,0,40,0,61.3,0c-13-1.7-25.1,0.2-36.9-1.1c0-0.5,0.1-0.9,0.1-1.4c21.4,0,42.8,0,65.1,0c-3.8,3.6-8,0.8-12.2,2.7
			c11.7,0,22.4,0.3,33.1-0.1c16.1-0.5,32.1-0.1,48.2,1c3.5,0.2,7.1,0.7,10.6,0.2c5.2-0.8,5.9,1.9,5.8,6c-0.1,10.8,0,21.6,0.1,32.4
			c0,2.4,0.2,4.8,1.1,7.2c0-13.2,0.3-26.4-0.2-39.6c-0.2-5.2,1.6-6,6.2-6c12.9,0.3,25.9,0.3,38.8,0c6.1-0.1,12.3-2.1,18.3,0.4
			c-0.2,0.3-0.3,0.8-0.5,0.8c-3,0.6-7.9-1.4-8.8,1.1c-1.4,3.9-0.7,8.7-0.4,13.1c0.2,2.7,2.9,1.8,4.3,1.6c5.4-1,6.1,1.7,6.1,6.2
			c-0.1,35.2-0.7,70.5,0.3,105.6c0.7,25.1,0,50.2,0.8,75.3c0.4,12.4,1,24.8,1,37.2c0,1.7-0.4,3.9,2.5,3.5l-0.2,0.1
			c-1.7-3.5-1.4-7.3-1.4-11c0-31.6-1-63.2-1.3-94.9c-0.2-20.8-1.6-41.6-0.3-62.3c1.1-17.5-0.1-34.9,0.6-52.3
			c0.4-8.8-1.8-17.6-0.2-26.5c0.5-2.8-1.4-4-3.8-3.8c-17.3,1.4-34.6-0.3-51.8,0.2c-16.7,0.5-33.5-1-50.2,0.4c-0.5,0-0.9,0.2-1.4,1.4
			c30.7,0,61.3,0,92,0c0,0.5,0,1,0.1,1.5c-4.5,0.4-9.2,1.8-13.6,1.1c-9.4-1.5-18.6,0.5-27.8,0.3c-15.6-0.4-31.2-0.6-46.8-1.2
			c-2.2-0.1-5.8,1.5-6.7-2.7c-0.1-0.3-2.3-0.5-2.4-0.3c-1.5,3.6-5.5-1.9-6.8,2c-6.4-4.2-13.5-1.8-20.2-2
			c-16.2-0.5-32.3-0.3-48.5-0.2c-11.3,0-22.6-0.4-33.8,0.5c-5.9,0.4-11.7-0.7-17.6-0.4c-6.5,0.3-13.1-0.4-19.6-0.4
			c-6.3,0-12.6,0.3-18.9,0.4c-6.4,0.1-12.9,0-19.3,0c0.4,1.5,3.2,3.7-1.2,3.3c-3.4-0.3-6.8-0.9-10.9,0.3c5.9,1.7,11.3,0.2,16.6,0.5
			l11.7,0.4c1.8,1.1,0.9,2.9,1,4.4c0.1,39.3,0.1,78.6,0.2,118c0,2.1-0.5,4.3,0.7,6.3L275.5,500.8z M543.1,376.8
			c0.5-0.2,1-0.3,1.5-0.5c-0.7,2.6,0,5.2,2.3,5c2.8-0.3,0.5-2.7,0.5-4.2c0-0.8,0.6-1.2,1.6-1.3c0.4,3.5,1,6.9,1.3,10.4
			c0.1,1.7-0.8,3.2-2.8,3.1c-1.1-0.1-2.8,0.9-3.1-0.8C543.9,384.6,543.6,380.7,543.1,376.8z M430.8,369.5c-7.2,2.2-18.1,2.4-22.5,0
			C416.3,369.5,423.5,369.5,430.8,369.5z"/>
		<path stroke="#000000" stroke-width="3" stroke-miterlimit="10" d="M810,458.9c10.9,3.7,22.3,4.6,33.7,5
			c7.2,0.3,14.5,0.9,21.7,0.6c2.9-0.1,2,2.2,1.8,2.1c2.9,1.6,0.1-5,3.7-0.6c1.1,1.4,2.6,0.8,3.9,0.8c1.2,0,2.2,0.1,2.2,1.5
			c0,1.4-1.1,1.4-2.2,1.6c-2.1,0.4-4.2-1.1-6.2,0.3c1.9,1.9,4.4,0.8,6.6,0.9c2.7,0.2,2,2,2,3.5c0,18.4-0.1,36.9,0.1,55.3
			c0,3.6-2,3.3-4.3,3.5c-3,0.2-3.4-1.2-3.3-3.8c0.1-17.2,0.1-34.4,0.1-51.5c0-1.2,0.4-2.5-0.9-3.8c0,12,0,23.6,0,35.2
			c0,9-0.3,18.1,0.1,27.1c0.2,4.3-1.5,4.9-5.2,5c-5.4,0.1-10.9-1.1-16.6,1.4c2.7,2.5,5,3,7.9,1.2c1.1-0.7,2.2-1.5,3.8-1.6
			c4.5-0.4,7.4,0,7,5.9c-0.5,7.6-0.1,15.2,0,22.8c0,1.9-0.3,3.2-2.5,3.1c-3.1-0.2-1-2.2-0.8-3c0.8-3.1-2.8-4.6-2.2-8.1
			c0.4-2.5-1.3-5,0.9-7.9c1.6-2.1-1.2-4.5-2.1-6.6c-0.8-2-2.7-0.4-4.1,0.2c-3.1,1.4-7.1,0.3-9.7,3.3c1.2-0.2,2.4-0.3,3.6-0.7
			c4-1.2,7.1-1.7,6.3,4.3c-0.4,3.1-0.2,6.4-0.1,9.5c0.1,2.2-0.5,2.4-2.8,2.1c-4.7-0.7-8.4-3.3-12.6-4.9c2.7,3.4,6.2,4.9,10.4,5.6
			c3.3,0.5,7,1.1,7.1,6.1c-2.7,1.2-5.9-0.2-8.9,1.2c4.6,0,9.1-0.1,13.7,0.1c1.3,0,3.5-0.8,3.7,1.8c0.4,5.5-1.4,11.2,1.6,16.5
			c0.5,0.9-0.9,2.9-1.4,4.4c3.9-3.3,4.4-6.4,3.9-23.7c-2,2.8-1.2,5.4-1.3,7.9c-0.1,2.5,0,5.1,0,7.6c-0.4,0-0.9,0-1.3,0
			c0-15.8,0-31.5,0-47.3c0.5,0,1,0,1.4,0c0,9.7,0,19.3,0,29c2-9.6,1-19.2,1.5-29.1c5.4,3.5,7.9,7.7,7.5,14.4
			c-0.6,10.1-0.1,20.2-0.3,30.3c-0.1,3.3,0.9,4.2,4.2,4.2c13,0.1,13,0.3,13-12.8c0-53.2-0.1-106.4,0.1-159.6c0-5.1-1.4-6.6-6.5-6.5
			c-10.8,0.3-10.7,0-10.7,11c0,7.1-0.4,14.2,0.1,21.3c0.5,7.1-0.8,13-8.6,17.9c0-11.2,0-21.6,0-31.9c0-7.1-0.3-14.1-0.9-21.2
			c-0.6-6.7-3.8-10.3-10.4-10.7c-1.7-0.1-3.5,0-5.9,0c1.5,2.1,2.9,1.6,4.4,1.5c6.5-0.5,10.6,3.3,10.6,9.9c0,2.5,0.1,5,0.1,7.4
			c0,1.6,0.8,3.3-2.1,3.8c-2.3,0.4-1.3,3-1.1,4.5c0.3,3.1-1,4-3.9,3.8c-4.5-0.2-9.1-0.1-13.6,1c4.6,0,9.2,0.2,13.7-0.1
			c3.1-0.2,3.9,1,3.8,3.9c-0.2,5.9-0.1,11.9,1,17.8c0-8.5-0.1-16.9,0.1-25.4c0-1.5-1.2-4.3,1.2-4.4c2.2-0.1,1.8,2.6,1.8,4.3
			c0,11.7,0,23.4,0,35.4c-4-1.7-0.5-6-3-8.1c-1.3,1.3-0.5,2.7-0.4,3.9c0.1,4.8-1.1,5.8-5.3,3.7c-3.7-1.9-6.9-3.7-10.1,0.6
			c-0.3,0.4-1.4,0.2-2.1,0.1c-10-0.8-20.1-1.2-30-3.2c-1.9-0.4-2.9-2.8-5.2-2.2C811,457.8,810.5,458.3,810,458.9z M878.4,544.3
			c-0.4-0.3-0.8-0.6-1.1-0.9c-1.1,0.1-2.5,0.3-2.3-1.2c0.3-3.3-0.2-5.4-4.1-3.5c-0.8,0.4-1-0.2-1-0.5c-0.1-0.9-0.2-2.3,0.2-2.5
			c2.1-1,6.3-0.9,6.3-0.3c0.2,4.8,3.6,2.6,5.6,3c5.1,0.9,6.7,3.7,4,7.3c1.4-0.2,2.7-0.2,3-2.2c0.6-3.9-1.2-6.3-5.8-6
			c-3.9,0.2-5.1-0.8-5-4.9c0.2-20.2,0.2-40.4,0-60.6c0-3.7,0.8-4.7,4.6-4.6c5.7,0.2,7.4-2.7,5.8-8.2c-1.4-4.7-4.8-6.5-10.3-5.5
			c0-10,0-19.9,0-29.8c0-8.9,0-8.6,8.8-9c5.4-0.3,6.2,1.7,6.2,6.5c-0.2,52.8-0.1,105.7-0.1,158.5c0,10.9,0,10.8-11,10.6
			c-3,0-4-0.9-3.9-3.9c0.2-10.6,0-21.3,0.1-31.9c0-1.9-1-4.5,3.1-2.8c2.2,0.9,3.9-1,2.9-3.8C882,547.2,879.5,546.9,878.4,544.3z
			 M875,462.6c4.7,1.5,8.6-0.4,12.5-2.1c0.3,1.3,0.8,2.2-0.9,3.5c-2.7,2-5.6,1.7-8.6,2.1c-3.3,0.5-4.4-2.7-4.6-3.8
			c-0.5-2.8,2.6-4.3,4.6-5.8c1.7-1.2,2.5,1.2,3.9,2.2C879.7,460.4,876.8,459.7,875,462.6z M857.8,567.8c-0.5,0-1,0-1.5,0
			c0.3-6-1.1-12.1,1.5-18C857.8,555.7,857.8,561.8,857.8,567.8z"/>
		<path stroke="#000000" stroke-width="3" stroke-miterlimit="10" d="M111.2,630.4c0.1-0.7,0.3-1.4,0.2-2c-0.4-3.1-0.3-5,3.7-2.9
			c2.6,1.3,5.7,1.9,8.8,1c-0.7-1.5-2.1-0.8-3.1-1c-8.6-1.6-9.8-2.8-9.8-11.7c0-25.6,0-51.2,0-76.8c0-28.5,0.1-57,0.1-85.5
			c0-24.6-0.1-49.2-0.1-73.8c0-6.9,1-7.2,7.7-7.2c6,0,11.9-1.7,18-1.2c2.4,0.2,4.9-0.5,8.6,1c-6.9,0-12.5,0-18.1,0
			c0,0.5,0,1.1,0,1.6c8.4,0,16.9,0,25.3,0c3.9,0,7.8,0.4,11.6,0.1c3.5-0.3,4.1,0.9,4.1,4.1c0,17.6,0.1,35.3,0.2,52.9
			c0,2.3,0,4.6,0,7.4c2.7-1.9,2-4.4,2-6.3c-0.3-17.5-1.1-34.9-1-52.4c0-3.9-0.5-7.6,5.3-7.2c-6.1,0-12.2,0-18.3,0c0-0.4,0-0.8,0-1.2
			c4.1,0,8.3,0,13.1,0c-2.5-2.6-4.9-1.3-6.9-1.3c-15.6,0-31.1,0.3-46.7,0.1c-4.5,0-6.6,1-6.1,5.9c0.2,2.3,0.1,4.3-2.4,6.6
			c-2.7,2.6-1.9,8.1-0.6,12.1c0.6,2.1,1,4,1,6.1c0,15.1-0.1,30.1,0.1,45.2c0.1,3.8-1.7,7.2-1.3,11c2.4,24.3,0.7,48.7,1.2,73
			c0.1,2.6-0.7,5.1-1.1,7.6c-0.7,4.2-1.7,8.6,2.6,12.9c2.2,2.2,1.5,8.6-0.3,12.5c-0.8,1.6-1.1,3.1-1.1,4.6c-0.1,10.8,0,21.6,0,32.4
			c0,2.8-0.6,5.6-0.7,8.4c-0.2,4-2.7,8.9,2.5,12.2c0.9,0.6,0,3.7,0.3,5.6C110.3,626,108.7,628.6,111.2,630.4L111.2,630.4z
			 M109.1,395.4c0.2,0,0.4,0,0.5,0c0,17.8,0,35.5,0,53.3c-0.2,0-0.4,0-0.5,0C109.1,431,109.1,413.2,109.1,395.4z M109.6,565.4
			c0,8.6,0,17.2,0,25.9C108.4,582.6,108.9,574.1,109.6,565.4z M109.1,462.9c0.2,0,0.4,0,0.5,0c0,8,0,16,0,24c-0.2,0-0.4,0-0.5,0
			C109.1,478.9,109.1,470.9,109.1,462.9z"/>
		<path stroke="#000000" stroke-width="3" stroke-miterlimit="10" d="M557.3,618.1c-0.9,0.5-2.4,0.7-2.2,1.9
			c0.6,4.3-0.9,6.3-5.4,5.7c-1.7-0.2-1.2,1.2-1.3,2.2c-0.1,2.8,2.5,0,3.1,1.8c-2.1,0.6-4.3,2.9-5-1.6c-0.1-1-0.5-1.5-1.7-1.5
			c-12.3,0-24.6-2-37.4-0.8c5.5,2.3,11,2.2,16.3,1.7c5.6-0.5,11.1,1.4,16.6,0c1.2-0.3,3.4-0.1,3.2,1.8c-0.1,1.9-2.1,1.4-3.5,1.4
			c-4.6,0-9.2,0-13.7,1.2c9.9,0,19.8,0.2,29.7-0.1c3.3-0.1,6-1.6,5.3-6.1c-0.5-2.9,1.5-6.2-1.2-8.9c-0.2-0.2-0.1-0.7,0.1-1
			c3.4-9.3,3.7-12.5,2.5-25.6c-0.3-2.8-0.3-5.6-0.5-8.5c-0.1-1.9,0.5-4.1-2.6-4.1c-1.9,0-1.6-1.5-1.6-2.7c0-2.6,0-5.2-0.6-7.8
			c-0.1,15.9-1.2,31.8,0.1,47.6c0.1,1.2,0.9,2.4-0.4,3.4C557.1,618.2,557.3,618.1,557.3,618.1z M561.1,596.4
			c0.2,4.8,0.4,9.5,0.7,14.3c0.1,1.5,0.5,2.9-1.6,3.2c-2.5,0.3-1.7-1.8-1.8-2.9c-0.2-9.7-0.4-19.4-0.4-29.1c0-1-0.7-2.8,1.2-2.9
			c2.1-0.1,1.9,1.7,1.9,3.1C561.2,586.8,561.1,591.6,561.1,596.4z"/>
		<path stroke="#000000" stroke-width="3" stroke-miterlimit="10" d="M761.5,400c29.6,0,59.1,0,88.7,0c0-0.2,0-0.4,0.1-0.6
			c-4.9,0-9.8-0.2-14.6,0.1c-8.8,0.5-17.3-0.9-25.4-4.3c-0.9-0.4-1.8,0-2.2-1.5c-1.3-4.9-5.3-7-10.2-6.1c-4.4,0.8-7.8,2.4-8.3,7.4
			c-5.9,0.4-10.6,5-16.9,4.3c-3.7-0.4-7.4-0.1-11.1-0.1C761.6,399.4,761.6,399.7,761.5,400z M792.9,397.5c-0.6-1.7-2.5-3.7,1.1-3.9
			c3.5-0.2,7.1-0.1,10.6,0.1c3,0.2,3.3,1.5,0.9,3.4c-0.1,0.1-0.3,0.1-0.5,0.1c0.1,0.1,0.2,0.2,0.3,0.4c2.2,0.8,5-1,7.3,1.3
			c-9.6,0-18.8,0-28.7,0C787.3,395.6,790.4,399.2,792.9,397.5z"/>
		<path stroke="#000000" stroke-width="3" stroke-miterlimit="10" d="M376.3,624.6c5,0,10.1,0,15.1,0c-7.6,0.5-5.8-5.1-5.9-9.2
			c-1-55.6-1.1-111.3-1-166.9c0-1.2-0.1-2.4-1-3.6c0,10.2,0,20.4,0,30.6c0.1,48,0.1,96,0.3,144c0,3.5-1,4.3-4.1,3.9
			c-1.2-0.1-2.4,0-3.6,0C376.2,623.9,376.2,624.2,376.3,624.6z"/>
		<path stroke="#000000" stroke-width="3" stroke-miterlimit="10" d="M143.3,624.8c2.3,1.5,2.4,5.4,5.9,4.9
			c-0.5,2.2-2.2,0.8-3.3,1.9c24,0,47.7,0,71.3,0c0-0.5,0-0.9,0-1.4c-20.4,1.2-40.7-0.5-62,0.4c2-2.3,3.4-3.9,5-5.8
			C154.4,624.8,148.8,624.8,143.3,624.8z"/>
		<path stroke="#000000" stroke-width="3" stroke-miterlimit="10" d="M746.3,539.4c-3.3-1.9-7-2.2-10.6-2c-2.7,0.2-3.2-1-3.2-3.4
			c0-3.9,1.9-7.6,0.7-12.3c-0.5,2.1-0.9,3.4-1.1,4.8c-0.6,6.2,0.6,13.5-10,14c7.8,1.8,8.1,6,6.4,11.6c-0.8,2.8-0.8,6.2,0,8.9
			c1.7,5.9,0.9,9.5-6.1,9.7c-0.5,0-1.7,0.7-1.2,2.3c7.8-2.1,15.6-4.2,24.3-6.5c-3.8-1.1-6.4,0.5-9,1.1c-3.5,0.8-5.3,0.8-6.3-3.6
			c-1.3-5.9-0.8-11.5,0.5-17.2c0.4-1.9,1.3-2.5,3.7-2.4c4.3,0.3,8.7,0,12.1-3.2c-3.4,0.8-6.8,1.8-10.4,1.6c-1.4-0.1-3.4,0.8-3.5-1.9
			c0-2.3,1.6-2.3,3.2-2.5C739.4,538.1,742.7,540.2,746.3,539.4z"/>
		<path stroke="#000000" stroke-width="3" stroke-miterlimit="10" d="M280.7,623.4c-2.3-1.5-2.7-3.6-2.5-5.9
			c0.7-8.3,0.6-16.5-1.8-25c-1.1,8.5,0,16.6,0.5,24.6c0.3,4.4-1,6.2-5.4,5.4c-3.7-0.7-1.4,1.4-1.2,2.6c-1.5,1.2-2-0.9-3.2-1
			c-1.3-0.1-2.5-2.3-3.7-0.8c-1.8,2.2,0.6,1.6,1.6,1.8c-2.2,1.2-2.1,4.9-5.7,4.8c-8.5-0.2-16.9-0.1-25.4,0.8c15.7,0,31.3,0,47.6,0
			c-2.6-1.7-4.8-0.2-6.9-0.9c-1.3-0.5-4.1,1.2-3.6-2.1c0.3-2.1,0.3-4.7,3.8-4.2C276.9,623.7,278.8,623.4,280.7,623.4z"/>
		<path stroke="#000000" stroke-width="3" stroke-miterlimit="10" d="M169.3,457c-0.2,32.1,0.5,64.2,1,96.3
			C170.8,521.1,171.2,489,169.3,457z"/>
		<path stroke="#000000" stroke-width="3" stroke-miterlimit="10" d="M212.4,625.1c-0.8-2.5-3-1.3-4.5-1.4
			c-10.6-0.2-21.2-0.3-31.8-0.1c-4.3,0.1-5.8-1.4-5.7-5.8c0.3-13.9-0.2-27.8,0.3-41.7c0.2-6.3-0.9-12.4-1.2-18.7
			c0,7.8,0,15.5,0,23.3c0,13.3,0,26.5-0.2,39.8c-0.1,3.3,0.7,4.6,4.2,4.5c8.5-0.4,17-0.8,25.5-0.4c2.9,0.1,6.4-0.8,9,2.5
			C209.9,629.3,210.2,624.3,212.4,625.1L212.4,625.1z"/>
		<path stroke="#000000" stroke-width="3" stroke-miterlimit="10" d="M490.5,571.2c-1.4,16.1,0.7,32.3,0.5,48.5c0,3.9-0.8,5.1-4.9,5
			c-10-0.3-20-0.1-30,1.1c14.7,0,29.4,0,44.6,0c-0.6-0.7-0.8-1.1-1-1.1c-7.5-0.4-7.6-0.4-7.6-8.1c-0.1-11.9,0.1-23.8,0-35.8
			C492,577.6,490,574.7,490.5,571.2z"/>
		<path stroke="#000000" stroke-width="3" stroke-miterlimit="10" d="M798.3,607.8c3.8,4.3,7.3-1.6,11,1.1
			c-4.3,2.9-8.9,1.6-13.2,1.9c-1,0.1-2.3-1.9-2.9,0.2c-0.4,1.2,0.1,2.4,1,3.4c2.2,2.2,13,2.7,14.4,0c2-4,6.2-4.7,9.1-7.6
			C811.1,606,805,607,798.3,607.8z"/>
		<path stroke="#000000" stroke-width="3" stroke-miterlimit="10" d="M724.6,512.5c-0.5,2.5-1.2,5.1-1.4,7.6
			c-0.2,2.3,1.8,2.9,3.5,3.2c1.7,0.4,3.3-0.2,3.6-2.2c2-12.2,2.8-24.4,0.5-36.7c-0.6-3.5-2.9-3.7-5.5-3.3c-2.9,0.5-1.9,2.6-1.7,4.6
			c1,9,2.2,17.9,0.9,26.9c1.6-1.7,1.4-3.9,1.6-6c0.5-6.9-0.8-13.7-1.1-20.5c-0.1-1.2-0.7-3,1.6-3.2c2.2-0.2,2.3,1.1,2.7,2.9
			c2.4,11.2,1.7,22.3-0.1,33.5c-0.2,1.3-0.5,2.7-1.9,2.7c-1.4,0-2.4-1-2.5-2.8C724.8,517,726,514.7,724.6,512.5z"/>
		<path stroke="#000000" stroke-width="3" stroke-miterlimit="10" d="M756,564.4c19.8-4.5,39.7-8.2,58.4-15.9
			C794.9,553.7,775.2,558.2,756,564.4z"/>
		<path stroke="#000000" stroke-width="3" stroke-miterlimit="10" d="M179.2,370c14.8,1.5,29.7,1.2,44.5,0.8c1,0,2.6,0.7,3.2-1.1
			c0.1-0.4-0.1-1.3-0.4-1.4c-1.3-0.4-2.8-1-3.7,0.6c-0.5,0.9-1.1,1.8-1.7,0.7c-2-3.8-5.1-0.5-7.5-1.7c0.4,1.5,2.2,0.2,2.4,2.2
			c-13.6-3.9-27.3-1.9-41-1.5c10.5,0,20.9,0,31.4,0c0,0.4,0,0.8,0,1.2C197.3,370,188.2,370,179.2,370z"/>
		<path stroke="#000000" stroke-width="3" stroke-miterlimit="10" d="M851.9,581.9c-3.3,1-2.6,3.3-1.4,5.4c3.1,5.2,7.1,2.7,11,1.1
			c3.9-1.6,1.8-4.9,1.6-7.2c-0.3-2.8-7.4-2.8-10.4-0.1c6.7,0.3,1.7,5.5,4.3,8.2C851.4,588.6,851.1,585.6,851.9,581.9z"/>
		<path stroke="#000000" stroke-width="3" stroke-miterlimit="10" d="M331.1,607.3c-0.7-0.1-1.4-0.4-2-0.2
			c-1.8,0.8-3.5,10.4-1.9,13.7c1.4,2.9,4.8,2.7,7.7,2.7c1.4,0,1.9-0.9,1.9-2c0-4.2,0-8.4-0.2-12.7c-0.1-1.7-1.7-1.4-2.9-1.6
			c1.6,4.4,2.7,9.1,1.6,13.5c-0.9,3.7-3.5,1.1-5.6,0c3-0.2,2.9-2.3,3.8-4.2c1.2-2.5-1.2-1.5-1.6-2.2c-1.4-2.3-1.6,2.9-3.2,0.7
			c-1.3-1.7,1.7-1.8,1.4-3.4c-0.3-1.9-1.4-0.2-1.5-0.4C326.8,608.2,329.9,608.7,331.1,607.3z"/>
		<path stroke="#000000" stroke-width="3" stroke-miterlimit="10" d="M336.6,382c0-8.1,0-8-5.8-7.8c-2,0-3.1,0.8-3,2.6
			c0,4-0.1,8.1,0.5,12c0.5,3,3.5,1.1,5.3,1.5c1.8,0.4,3.1-0.4,3-2.5C336.5,385.9,336.6,384,336.6,382z M334.4,376.5
			c0.2,3,0.5,6,0.6,8.9c0.1,1.4,1.3,3.5-1.2,3.8c-1.4,0.2-3.1,0.8-4.4-0.6c2.9-1.3-2.1-4.2,1.2-5.7
			C333.3,381.8,333.8,379.1,334.4,376.5z"/>
		<path stroke="#000000" stroke-width="3" stroke-miterlimit="10" d="M219.6,614.8c0,1.1,0.1,2.1,0,3.2c-0.2,3.3-0.1,5.8,4.6,5.5
			c3.8-0.3,6.7-0.3,6.1-5.3c-0.2-1.7,0-3.5-0.1-5.3c-0.3-6.3-2.4-7.9-8.7-6.4c-1.6,0.4-1.9,1.2-1.9,2.6
			C219.6,611,219.6,612.9,219.6,614.8z M224.9,615.1c-1.9,1.4-2,3.1-1.7,4.8c0.2,1,0.3,1.8-0.9,1.9c-0.4,0-1.3-0.9-1.3-1.4
			c-0.2-3.5-0.3-7-0.2-10.5c0.1-3.5,3.1-2.8,4.7-2c4.3,2.2,4.8,10.2,1.2,13.8C226.1,619.6,226.3,617.2,224.9,615.1z"/>
		<path stroke="#000000" stroke-width="3" stroke-miterlimit="10" d="M432.8,381.9c0.1,0.3,0.1,0.5,0.1,0.7c0.4,7.1,1.3,7.7,8.5,5.8
			c1.4-0.4,1.6-1.1,1.6-2.2c0-2.1-0.1-4.2,0.1-6.3c0.3-4-0.1-6.9-5.4-6.5c-5,0.4-5.6,3.1-4.8,7.1C432.9,381,432.8,381.5,432.8,381.9
			z M440.4,374.2c0.5,3.1,1.2,5.8,1.4,8.5c0.2,1.6,0.6,3.7-1.7,4.4c-2.4,0.8-4.2-1.3-4.8-2.4c-1.3-2.3-1.1-5.3-0.4-8
			c0.1-0.4,0.8-0.8,1.2-0.8c0.7,0,1.4,0.7,1,1.3c-0.7,1.1-0.8,2.3,0.4,2.5c1.5,0.3,1.2-1.3,1.4-2.3
			C439,376.5,438.4,375.3,440.4,374.2z"/>
		<path stroke="#000000" stroke-width="3" stroke-miterlimit="10" d="M114.7,379.9c0.2,1.3,0.6,2.9,0.5,4.5c-0.2,2.8,0.5,4,3.7,4.1
			c3.3,0,4.5-1.2,4.6-4.2c0-1.4-0.1-2.8,0.1-4.2c0.5-4.1-1.3-5.4-5.4-5.6C113.2,374.2,115.6,377.7,114.7,379.9z M118,375.2
			c0.3,3.2-2.3,6.6,0.7,7.3c4.1,1-0.2-4,2.8-4.9c0,2.6,1,5.2-1.7,7.2c1.3,0.5,2.9,1.2,0.6,2.3c-1,0.5-3.7,0.5-3.6-0.8
			C117,382.8,114.9,379.2,118,375.2z"/>
		<path stroke="#000000" stroke-width="3" stroke-miterlimit="10" d="M450,631.2c-1-2.1-4.1-0.2-3.6-2.9c0.7-3.7,4.5-0.3,6.4-2.7
			c-6.2,0-12.1,0-17.9,0c-0.5,0-1.2-0.1-1.5,0.2c-4.4,3.8-4.4,3.8-9.8,4.8c5.5,0,11.1,0,16.6,0c-1.9-0.8-4-1.3-5.9-2.9
			C440.3,626,443.9,633.3,450,631.2z"/>
		<path stroke="#000000" stroke-width="3" stroke-miterlimit="10" d="M275.6,500.9c-1,8.4-0.2,16.8-0.2,25.2c0,5.4,0,10.8,0.7,16.3
			c1.8-7.7,1.4-15.6,0.9-23.3c-0.4-6.1,2.1-12.4-1.5-18.2C275.5,500.8,275.6,500.9,275.6,500.9z"/>
		<path stroke="#000000" stroke-width="3" stroke-miterlimit="10" d="M339.1,624.5c-1.6,1.9-2.9,0.4-4.4,0.3
			c-10.2-0.5-20.2-2.7-30.5-2.4c-2.8,0.1-5.6,0-8.4,0.4c7.2,0.3,14.5,0.8,21.7,1.7c3.6,0.4,7.1-0.6,10.5,2.8
			c1.4,1.4,6.5,0.5,9.9,1.1C339.7,628.7,338.8,626,339.1,624.5z"/>
		<path stroke="#000000" stroke-width="3" stroke-miterlimit="10" d="M212.5,625.1c2.9,1.2,9-1.7,6.9,5.8c2-0.7,0.8-2.3,1.9-3.6
			c0.6,2.1,0.5,5.1,4,3.9c-0.4-1.5-3.4-0.9-2.4-3.2c0.2-0.4,0.4-0.9,0.6-1.3c0.7,1.6,3.3,0.3,3.7,3c0.4,2.4,3.9,1.4,3.8,0.6
			c-0.6-5.9,3.9-4.4,6.8-5.1C229.3,625.1,220.9,625.1,212.5,625.1C212.4,625.1,212.5,625.1,212.5,625.1z"/>
		<path stroke="#000000" stroke-width="3" stroke-miterlimit="10" d="M645.1,399.1c12,7.3,24.6-2,36.9,1.9c-2.8-2.1-12.5-2.7-19-2
			C657.1,399.8,651.1,399.8,645.1,399.1z"/>
		<path stroke="#000000" stroke-width="3" stroke-miterlimit="10" d="M220.6,390.4c2.5-2.2,6.5,0.5,7.2-2.6c0.9-4,0.7-8.5,0-12.6
			c-0.3-1.8-3.8-1.2-5.7-1.5c-1.9-0.3-1.4,2-1.5,3.3C220.5,381.3,220.6,385.5,220.6,390.4z M226,375.6c0.3,3.3,1.5,6.4,0.6,9.7
			c-0.3,1.1,0.3,2.6-1.4,2.7c-1.6,0.2-2.1-1.4-2.3-2.4C221.9,381.8,224.2,378.8,226,375.6z"/>
		<path stroke="#000000" stroke-width="3" stroke-miterlimit="10" d="M411.4,624.6c-8.5,6.8-18.3,5.6-27.9,6.1c11.6,0,23.1,0,34.7,0
			c-3.1-1-7.1-0.1-9.1-3.3C408,625.7,410.6,625.8,411.4,624.6z"/>
		<path stroke="#000000" stroke-width="3" stroke-miterlimit="10" d="M435.6,609.9c0,3.1,0.2,5.6-0.1,8.1c-0.5,4.5,1.3,6,5.7,5.6
			c2.6-0.2,4.6-0.2,3.8-3.7c-0.3-1.2,0-2.5,0.2-3.7c0.5-3.9-0.4-6.3-5-5.3C438.6,611.2,437.3,610.6,435.6,609.9z M437.3,619
			c0.1-2.5-2.3-5.4,0.8-7.2c1.3-0.7,4.6-1,5.2,1c0.8,2.7,1.3,6.2-0.3,8.7c-1.1,1.8-3.7,1.1-6.1-0.8c4.1,2.1,4.2-0.1,3.9-2.5
			c-0.1-1.2,0.9-3.3-1.4-3.2C436.5,615.2,439.3,618,437.3,619z"/>
		<path stroke="#000000" stroke-width="3" stroke-miterlimit="10" d="M782.2,604.6c-0.5,1.5-0.4,3.3,1.2,3.5
			c2.1,0.2-0.3-1.4,0.4-2.2c0.8-0.9,1.5-0.5,2.3-0.5c12.1,0,24.1,0,36.2-0.1c0.7,0,1.4-0.1,1.5-0.7
			C809.9,604.7,796,604.7,782.2,604.6L782.2,604.6z"/>
		<path stroke="#000000" stroke-width="3" stroke-miterlimit="10" d="M384.5,414.7c0-5.5,0-11,0-16.5c0-7.4,0.1-14.8,0-22.2
			c0-2.4-0.1-4.6,3.7-3.4c-5.4-2.5-5.3-2.5-5.3,2.7c0,11.4,0,22.7,0,34.1c0,1.8,0.2,3.7,0.3,5.5
			C383.7,414.7,384.1,414.7,384.5,414.7z"/>
		<path stroke="#000000" stroke-width="3" stroke-miterlimit="10" d="M854.8,440.3c-1,4.1,0.1,8.2,0,12.3c-0.1,2.3,0.4,3.6-3.2,3
			c-3.8-0.7-7-2.9-10.7-3.6c3.9,5.1,10.4,4.1,15.5,6.5c1.9,0.9,2.6-2.5,2.5-4.2c-0.1-2.9-0.9-5.7-1.9-8.6c0,3.5,0,7,0,10.4
			C854.7,451.1,857.6,445.4,854.8,440.3z"/>
		<path stroke="#000000" stroke-width="3" stroke-miterlimit="10" d="M277.7,581.3c0-11.5,0-23,0-34.4c-0.5,0-0.9,0-1.4,0
			c0,11.5,0,23,0,34.4C276.8,581.3,277.2,581.3,277.7,581.3z"/>
		<path stroke="#000000" stroke-width="3" stroke-miterlimit="10" d="M243.2,370.3c-3.5,0-6.9,0-10.4,0c7-1.7,14.2-0.4,21.2-2.1
			c-8.2,0-16.3,0-24.5,0c-1.1,0-1.4,0.8-1.4,1.8c0,1.3,1,1.2,1.8,1.3c4.5,0,9.1,0,13.6,0C243.4,370.9,243.3,370.6,243.2,370.3z"/>
		<path stroke="#000000" stroke-width="3" stroke-miterlimit="10" d="M733.5,518.6c4.1-10.1,6.5-20,4.7-29.3
			C737.7,498.9,736.9,508.6,733.5,518.6z"/>
		<path stroke="#000000" stroke-width="3" stroke-miterlimit="10" d="M841.5,442.6c3.4-1,6.8-1.9,10.1-2.9c1.3-0.4,2.3,0,3.3,0.9
			c0.8,0.2,1.6-2.3,2.1-0.2c0.4,1.6,0.8,3.1,2.4,1.9c1.7-1.2,0.9-3.6,0.5-5.4c-0.3-1.5-2.9-3.1-3.4-2.2c-2.4,5.4-8.2,2.9-11.7,5.5
			C843.7,441,842.4,441.5,841.5,442.6z"/>
		<path stroke="#000000" stroke-width="3" stroke-miterlimit="10" d="M120.3,620.4c0.4-2.3,2.7-5.2-2.1-5.7
			c-1.5-0.1-2.2-1.1-0.8-2.5c0.4-0.5,0.8-1.3-0.2-1.5c-0.6-0.1-1.5-0.1-1.9,0.3c-1.7,1.9-0.1,9.9,2.2,11.4
			C118.3,621.8,119.3,621.1,120.3,620.4z"/>
		<path stroke="#000000" stroke-width="3" stroke-miterlimit="10" d="M775.6,447.5c-1.4,2.1-0.6,3.1,1.7,3.6
			c3.6,0.8,7.1,1.7,10.7,2.6c1.6,0.4,3.4,1.1,3.4-1.4c0.1-3-1.8,0.4-2.4-0.6c-2.3-3.5-7.8,0.1-10-4.4c-0.8-1.7-2.3,1.5-3.6,0.3
			C775.4,447.6,775.6,447.5,775.6,447.5z"/>
		<path stroke="#000000" stroke-width="3" stroke-miterlimit="10" d="M120.3,620.4c-1,0.7-1.9,1.3-2.9,2c6.2,2.2,6.4,2.1,6.4-3.9
			c0-1.6,0-3.2,0-4.7c0-1.8,0.2-4.9-0.3-5c-2.5-0.6-5.1-0.5-7.4-1.8c-0.4-0.3-0.9,0.3-0.8,0.9c0.1,0.7-0.4,1.8,1.3,1.5
			c1.3-0.2,2.4,0.5,3.6,1.4c0.5,0.4,3.2-0.4,2.2,1C120.4,614.6,126.4,619,120.3,620.4z"/>
		<path stroke="#000000" stroke-width="3" stroke-miterlimit="10" d="M782.1,604.7c-11.9-0.2-23.8-0.9-35.6,1
			c8.6-0.6,17.1-0.1,25.7-0.4C775.5,605.3,779,607.8,782.1,604.7C782.2,604.6,782.1,604.7,782.1,604.7z"/>
		<path stroke="#000000" stroke-width="3" stroke-miterlimit="10" d="M111.2,630.4c6.4,2,13,1.4,19.6,1.6c4,0.1,8.1,0,12.1-0.6
			C132.3,631.7,121.9,628.8,111.2,630.4C111.2,630.4,111.2,630.4,111.2,630.4z"/>
		<path stroke="#000000" stroke-width="3" stroke-miterlimit="10" d="M114.8,469.1c-1.7,9.9,0.3,19.7,0.8,29.6
			C117.2,488.8,114.2,479,114.8,469.1z"/>
		<path stroke="#000000" stroke-width="3" stroke-miterlimit="10" d="M839.3,430.1c-11.4,0-22.8,0-34.2,0
			C816.5,431.3,827.9,431.4,839.3,430.1z"/>
		<path stroke="#000000" stroke-width="3" stroke-miterlimit="10" d="M490.1,531c0,11.5,0,23.1,0,34.6c0.2,0,0.4,0,0.6,0
			c0-11.5,0-23.1,0-34.6C490.5,531,490.3,531,490.1,531z"/>
		<path stroke="#000000" stroke-width="3" stroke-miterlimit="10" d="M300.3,370.7c-6,0-12.1,0-18.1,0
			C288.2,372.3,294.3,372.1,300.3,370.7z"/>
		<path stroke="#000000" stroke-width="3" stroke-miterlimit="10" d="M292.7,629.8c11.1,0,22.3,0,33.4,0c0-0.2,0-0.4,0-0.6
			c-11.2,0-22.3,0-33.5,0C292.7,629.3,292.7,629.6,292.7,629.8z"/>
		<path stroke="#000000" stroke-width="3" stroke-miterlimit="10" d="M810,458.9c0.5-0.5,1-1,1.5-1.5c-0.2-1-0.2-2.3-1.8-1.7
			c-0.7,0.3-1,2.4-2.1,0.7c-2.4-3.6-6.2-1-9.1-2.3c-0.7-0.3-1.9-0.2-2,1c-0.1,1.2,1,1.2,1.8,1.3C802.2,457.2,806.1,458,810,458.9z"
			/>
		<path stroke="#000000" stroke-width="3" stroke-miterlimit="10" d="M169,454.7c2.7-5.3-0.2-11.3,2.5-16.6
			C165.9,443,169.9,449.2,169,454.7z"/>
		<path stroke="#000000" stroke-width="3" stroke-miterlimit="10" d="M113,383.3c-1.7,7.7-0.1,15.4,0.6,23
			C114.6,398.6,113.7,391,113,383.3z"/>
		<path stroke="#000000" stroke-width="3" stroke-miterlimit="10" d="M756.2,576.5c-8.5,0-17.1,0-25.6,0
			C739.1,577.7,747.7,578,756.2,576.5z"/>
		<path stroke="#000000" stroke-width="3" stroke-miterlimit="10" d="M552.5,610.9c0.2,2.5-1.1,4.9,0.3,7.2c-1.3,1.8-4.5-4-4.4,1.4
			c0,1.4-0.1,3.1,1.5,3.6c1.9,0.6,3.3-1.9,3.4-2.3C553.7,617.5,554.5,614.1,552.5,610.9z"/>
		<path stroke="#000000" stroke-width="3" stroke-miterlimit="10" d="M353.6,623.9c6.3,2.3,12.6,1.3,18.8,0
			C366.2,623.9,359.9,623.9,353.6,623.9z"/>
		<path stroke="#000000" stroke-width="3" stroke-miterlimit="10" d="M725.2,399.8c8.9,0,17.9,0,26.8,0c0-0.2,0-0.3,0-0.5
			c-8.9,0-17.8,0-26.6,0C725.3,399.5,725.3,399.6,725.2,399.8z"/>
		<path stroke="#000000" stroke-width="3" stroke-miterlimit="10" d="M135,402.1c0.2-7.2,0.4-14.3-2.4-21.2
			C134.2,387.9,132.8,395.1,135,402.1z"/>
		<path stroke="#000000" stroke-width="3" stroke-miterlimit="10" d="M549.5,611c-4.5,0.3-6.1,6.9-3.3,14.6
			C549.1,621.2,543,614.6,549.5,611z"/>
		<path stroke="#000000" stroke-width="3" stroke-miterlimit="10" d="M557.4,550.5c-1,4.4-1.4,8.9,0,13.3
			C557.4,559.4,557.4,555,557.4,550.5z"/>
		<path stroke="#000000" stroke-width="3" stroke-miterlimit="10" d="M257.8,623.7c-5.6,0-11.1,0-16.7,0c0,0.2,0,0.5,0,0.7
			c5.6,0,11.1,0,16.7,0C257.8,624.2,257.8,624,257.8,623.7z"/>
		<path stroke="#000000" stroke-width="3" stroke-miterlimit="10" d="M532.2,381.1c-4,3.8,0,7.7-0.3,11.5
			C533.1,388.8,531.3,384.9,532.2,381.1z"/>
		<path stroke="#000000" stroke-width="3" stroke-miterlimit="10" d="M238.1,392.7c-0.2,5.3-1.7,10.5-2.6,16.4
			C238.9,403.6,239,398.3,238.1,392.7z"/>
		<path stroke="#000000" stroke-width="3" stroke-miterlimit="10" d="M489.5,460.5c-1.4,7.1-0.2,13,0,18.9
			C489.5,473.5,489.5,467.6,489.5,460.5z"/>
		<path stroke="#000000" stroke-width="3" stroke-miterlimit="10" d="M829.1,544.5c5.5,0,10.8-1.3,16.3-1.3
			C839.9,542.6,834.4,542.1,829.1,544.5z"/>
		<path stroke="#000000" stroke-width="3" stroke-miterlimit="10" d="M347.7,611.7c1-5.7,2.7-10.4,0-15.2
			C349.4,601.2,346.5,605.8,347.7,611.7z"/>
		<path stroke="#000000" stroke-width="3" stroke-miterlimit="10" d="M885.8,545.7c-2.6,0.5-5.1-0.2-7.4-1.4
			c1.1,2.6,3.6,2.9,5.9,3.6C884.8,547.2,885.3,546.5,885.8,545.7z"/>
	</g>
</g>
<g id="text">
</g>
<g id="scratch">
</g>
<g id="guides" display="none">
</g>
</svg>
