<?xml version="1.0" encoding="utf-8"?>
<!-- Generator: Adobe Illustrator 26.0.2, SVG Export Plug-In . SVG Version: 6.00 Build 0)  -->
<svg version="1.2" baseProfile="tiny" xmlns="http://www.w3.org/2000/svg" xmlns:xlink="http://www.w3.org/1999/xlink" x="0px"
	 y="0px" viewBox="0 0 1000 1000" overflow="visible" xml:space="preserve">
<g id="bg">
</g>
<g id="counters">
	<g>
		<path d="M624.2,673.8c21.2,0,42.3,0,63.5,0c41-0.1,81.9-0.3,122.9-0.4c5.8,0,6.3-0.7,7-6.4c0.8-7.1-0.4-14.1-0.1-21.1
			c0.3-7.1,0.1-14.2,0.1-21.3c0-5.5,0-11.1,0-16.6c0-4.3-0.1-4.4-4.3-4.4c-9.7,0-19.3,0.1-29,0.1c-4.3,0-4.3-0.1-4.4-4.2
			c-0.2-24.1-0.4-48.2-0.6-72.4c-0.1-7.3-0.2-14.5-0.5-21.8c-0.1-2.4,0.8-3.2,3-3c1.6,0.1,3.3-0.2,4.8,0.6c0.5,0.3,1.2,0.4,1.8,0.3
			c8.4-2.2,16.9-0.6,25.4-0.9c3-0.1,4-1.1,3.8-4c-0.2-2.5-1.3-5.7,0.2-7.4c1.6-1.8,4.8-0.4,7.3-0.4c20.7-0.2,41.3-0.3,62-0.4
			c3.1,0,6.1-0.1,9.2,0c2.2,0,3.4-0.7,3.3-3.2c-0.2-4.8-0.1-9.6-0.1-14.5c0-2.6-1.8-2.6-3.6-2.6c-15.8,0-31.6,0-47.5,0
			c-9.3,0-18.7,0-28,0.1c-2.5,0-3.5-0.8-3.4-3.4c0.1-7.5,0.4-6.7-6.9-6.7c-5.5,0-11.1,0.2-16.6,0c-3.9-0.1-7.9-0.7-11.8,0
			c-2.5,0.5-3.4-0.6-3.4-3.2c0.1-13.6,0-27.1-0.1-40.7c-0.1-6.6-0.2-13.1-0.5-19.7c-0.1-2.6,0.9-3.3,3.4-3.4
			c10.5-0.1,20.9,0.4,31.4-0.4c2.3-0.2,2.9-0.8,2.9-3.1c-0.1-9-0.1-18.1,0-27.1c0.1-7.9-0.1-15.8,0.7-23.6c0.3-3.5-0.1-6.7-0.2-10.1
			c-0.1-3.8-1.3-4.9-5.1-4.9c-15.1,0-30.2-0.5-45.3,0.2c-17.9,0.7-35.7,0.1-53.6,0.5c-40.5,0.9-81,0.2-121.5,0.7
			c-50,0.6-100,0.2-150,0.7c-30.3,0.3-60.5,0.2-90.8,0.6c-3.4,0.1-6.2-1.9-9.5-1.5c-28.8,3.6-57.7,1.1-86.5,2
			c-2.7,0.1-4.9-1.8-7.7-1.4c-3.5,0.5-6.8,1.5-10.4,1.5c-15.5-0.2-31,0.2-46.5,0.2c-17.6,0-35.1,0-52.7-0.4c-10-0.2-20-0.2-30.1,0.1
			c-3.7,0.1-5.5,2-5.5,5.6c0,13.5,0.1,26.9,0.1,40.4c0,5.9,0.1,11.9,0.2,17.8c0,2.2,0.4,3.8,3.2,3.7c2.4,0,2.6,1.9,1.3,3.1
			c-1.9,1.7-1.9,3.6-1.7,5.6c0.3,4.3-1.1,8.9,2,12.8c0.3,0.4,0.1,0.9-0.1,1.4c-1.9,3.7-1.5,7.1,0.1,11c1.2,2.9,0.7,6.7,0.7,10
			c0.2,17.3,0.1,34.6,0.5,52c0.1,3.9-1.2,7.4-1.6,11.1c-0.3,3.8,2.2,6.6,2.1,10.3c-0.4,14.4-0.4,28.9-0.6,43.3c0,4.5,0,9,0,13.6
			c0,2.2,0.6,4.6-1.8,6.4c-1.4,1.1-0.9,7.7,0.5,9c1,1,0.6,1.4,0.1,2.2c-3.3,5-1.7,10.5-1.6,15.9c0,1,1.5,1.9,2.2,2.8
			c0.5,0.6,1.1,1.4,0.6,2.2c-0.4,0.6-1.2,0.7-1.9,0.6c-3-0.4-3.9,1-3.8,3.9c0.4,11.5,0,23,0.4,34.5c0.2,7.5-0.3,15-0.1,22.4
			c0.2,6.2,1.8,8,8.2,8c23.3-0.2,46.6-0.4,69.9-0.6c15.1-0.1,30.2,0,45.3,0c48.4-0.2,96.9-0.1,145.3-0.7
			c46.7-0.6,93.4-0.1,140.1-0.5c11.9-0.1,23.7-0.4,35.6-0.4c26.2-0.1,52.4,0,78.7,0C624.2,674.1,624.2,674,624.2,673.8z
			 M429.1,352.8c1.6-0.7,3.2-0.7,4.9-0.5c2.8,0.3,3.6-1,3.4-3.6c-0.1-1.9,0-3.9-0.1-5.8c-0.2-2.6,0.6-3.9,3.4-3.6
			c2.1,0.3,3.9-0.1,4-2.9c0-1.2,1-1.4,1.9-1.6c0.9-0.2,1.4,0.2,1.5,1.1c0.7,6.4,1.3,12.8,1.1,19.3c0,1.1-0.7,1.7-1.8,1.6
			c-1,0-2.5,0.3-2.6-0.9c-0.4-4.8-3.9-3-6.4-3.3c-1.2-0.1-2,0.5-2,1.8c0,2.9-2.1,2.4-3.9,2.5c-2.2,0.2-2.6-1-2.7-2.8
			C429.7,353.7,429.3,353.3,429.1,352.8c-1.5,0-2.9,0-4.3-0.1c-2.2-0.1-4.4-0.2-4.5,3.1c0,0.8-0.8,1.1-1.6,1.1
			c-0.8-0.1-1.4-0.6-1.5-1.3c-1.3-6.7-1.9-13.3,0.9-19.8c0.3-0.8,1.1-0.8,1.9-0.8c0.7,0,1.4,0.5,1.3,1c-0.4,3.7,2.3,3,4.2,2.8
			c2.4-0.2,3.1,0.6,3,3.1C428.4,345.5,427.8,349.2,429.1,352.8z M413.1,618.5c-6.2,0.5-12.4,0.3-18.7-0.1c1-0.7,2.3-0.5,2.5-2
			c0.4-3.2-3.8-2.3-4.2-4.8c-0.1-0.6-1.5-0.5-2.2,0c-0.2,0.2-0.5,0.4-0.6,0.7c-0.5,1.9-2,1.8-3.4,1.8c-1.7,0-3.5,0-5.2,0
			c-20.1,0-40.3,0.1-60.4,0.1c-1.3,0-2.5,0-3.4-1.5c-0.8-1.4-2.6-1.4-3.3-0.2c-1.1,1.9-2.6,1.7-4.2,1.7c-5.9,0-11.7-0.1-17.5,0
			c-25,0.7-50.1,0.3-75.1,0.5c-1.3,0-2.4,0.2-3.3-1.5c-0.8-1.5-2.9-1.6-3.7,0c-0.8,1.5-1.7,1.5-2.9,1.5c-1.7,0-3.5,0-5.2,0
			c-1.9,0-3.3,0.4-3,2.7c0.2,1.2-0.5,1.9-1.5,1.9c-3.7,0.1-7.4,0-12,0c5.4-3.8,9.9-7.1,14.5-10.4c1.1-0.7,2.3-0.7,3.6-0.8
			c24.5-0.2,49.1,0,73.6-0.4c29.7-0.5,59.3-0.2,89-0.4c12.1-0.1,24.2-0.2,36.3-0.4c1.3,0,2.4-0.2,3.1,1.3
			C407.6,612.1,410.5,615.1,413.1,618.5c6.9,8.9,13.8,17.9,20.9,27.1c-1.1,0.2-1.7,0.4-2.3,0.4c-4.7,0-9.4-0.4-14,0
			c-3.3,0.3-4-0.9-4-3.9C413.7,634.2,414,626.3,413.1,618.5z M531.7,498.8c0.3,0,0.5,0.1,0.8,0.1c0,2.8,0,5.7,0,8.5
			c0,16.2,0.2,32.5,0.1,48.7c-0.1,8.3,6.4,16.7,16.2,16.3c12.8-0.5,25.5-0.7,38.3-0.5c1.9,0,2.8,0.6,2.8,2.6
			c-0.1,3.2-0.1,6.4,0.1,9.6c0.2,4.7,2.4,6.8,7.2,7c0.8,0,1.6,0,2.5,0.1c1.3,0.1,1.9,0.8,1.9,2.2c-0.1,4.2-0.1,8.4,0,12.6
			c0.1,2.8-0.6,4.2-3.8,3.7c-1.8-0.3-3.7,0-5.5,0c-32.5,0.2-65.1-0.2-97.6,0.4c-14.3,0.3-28.6,0.1-42.8,0.2c-1.9,0-3.4,0-3.4-2.7
			c0-39-0.1-78-0.5-117c-0.2-19.6,0.1-39.2,0.1-58.9c0-13.2-0.1-26.5-0.3-39.7c0-2.5,0.8-3.4,3.3-3.4c12.2-0.1,24.4,0.1,36.6-0.4
			c11.6-0.4,23.2-0.2,34.8-0.2c7.6,0,7.6,0.1,7.6,7.7c0,5.8,1.3,7.1,7.2,7.4c7.2,0.3,14.3,0,21.5-0.2c4.7-0.1,6.7-2.2,6.7-6.9
			c0-1.9,0-3.9,0-5.8c0-1.5,0.7-2.3,2.2-2.3c10.2,0,20.3,0,30.5,0c1.1,0,2.1,0.4,2.1,1.7c0,6.8,0,13.6,0,20.8
			c-6.2-7.9-11.6-9.9-18.8-7.2c-4.7,1.7-9,7.7-8.7,12.4c0.3,7.1,4,11.8,10.6,13.8c6.3,1.8,11.7-0.9,17.3-8.9c0,21.1,0,41.8,0,62.6
			c-3-2-6.2-2.5-9.8-2.5c-13-0.2-26,0.5-39,0.1c-3.1-0.1-6.3-0.8-9.4,0.5c-6,2.4-9,7-10.2,13.1c-0.1-4.5,0-8.9-0.1-13.3
			c-0.1-4.1-1.8-5.7-5.8-5.9c-0.9,0-1.9-0.5-2.7-0.2c-2.5,0.6-2.5-0.9-2.4-2.6c0-3.1,0-6.2,0-9.2c0-6.3,0-6.3,6.3-6.6
			c3.9-0.2,5.5-1.5,5.6-5.4c0.2-5.4,0.1-10.8,0-16.2c-0.1-2.9-1.7-4.6-4.7-4.6c-1.4,0-2.9,0.1-4.3,0c-1.5-0.1-3-0.2-3.8-2
			c-1.4-3.2-4.2-4-7.4-3.9c-3.4,0.1-6.7,0.2-10.1,0.3c-11.6,0.1-23.2,0.1-34.8,0.2c-4.9,0-7.7,2.5-7.9,7.4c-0.2,5.8,0,11.7,0,17.5
			c0,7.5,0.4,14.9,0.1,22.4c-0.3,9.2-0.4,18.5-0.1,27.7c0.1,5.7,3.2,8.4,8.9,8.4c3.9,0,7.8-0.2,11.7-0.2c11.3-0.1,22.5-0.2,33.8-0.3
			c2.5,0,4.9-0.8,5.9-3.2c1.1-2.5,2.8-3,5.1-2.8C528,502,530.2,501.3,531.7,498.8z M116.6,562.8c0.2,2.3,0.4,4.3,3.2,4.1
			c4.7-0.2,9.1-0.2,13.4,2.9c1.9,1.4,3.5,2.3,3.3,4.7c-0.2,2.2,0.7,2.5,2.7,2.5c5.4,0,10.9,0.1,16.3,0.3c3.2,0.1,6.4-0.2,9.4-1.3
			c7.1-2.5,12-10.1,11.5-17.6c-0.6-8-6.2-14.7-13.8-16c-7.7-1.3-15.6-0.4-23.4-0.6c-1.8,0-2.2,1.1-2.3,2.6c-0.1,1.2,0.2,2.7-1.1,3.3
			c-4.9,2.2-9,6.6-15.2,5.1c-3-0.7-4.1,0.5-3.8,3.5c0.1,0.7,0.5,2.6-1.2,1.9c-1.9-0.7-3,0.4-4.2,1.2c0-5.2,0-10.5,0-16.1
			c1.7,0.6,3.1,1.7,4.4,0c0.9-1.3,1.1-2.7,0.1-4c-1.5-2-3-0.2-4.7,0.3c1-5.5,0.1-10.7,0.7-16.2c1.6,1.3,2.9,1.6,4.2,0.2
			c1-1.1,0.9-2.3,0.3-3.4c-0.8-1.7-2.1-2.2-3.7-1c-0.6,0.4-1,0-1-0.7c0-3.3-0.3-6.6,0.2-9.8c0.3-2.1,2.9-1.9,4.5-2.7
			c3.8-2.2,4.2-7,0.2-8.4c-5.5-1.8-5.6-5.5-5.4-9.9c0.1-1.5,0-3,0-5.2c1.8,1.9,3.5,2.5,4.9,0.6c1-1.4,0.8-3-0.5-4.1
			c-1.8-1.6-3.2-0.4-4.5,1.5c0-5.2,0-9.9,0-14.6c0-0.9-0.6-2.5,1.6-1.9c2.1,0.6,3.4-0.5,3.3-2.8c-0.1-2.1-1-3.5-3.3-3
			c-1.6,0.4-1.7-0.3-1.7-1.5c0-3.3,0.3-6.6-0.1-9.9c-0.5-4,2.4-2.5,4-2.8c2.4-0.4,1.3,1.6,1.3,2.5c0.1,2.1,0.9,3.1,3,3
			c5.1-0.4,9.9,0,14.2,3.2c1.7,1.3,3.5,2,3.2,4.5c-0.2,1.9,0.7,2.8,2.7,2.8c7.1,0,14.2,0.2,21.3-0.1c8.8-0.3,16-8.1,16.4-17
			c0.3-8.7-6.4-16.7-15.1-17.8c-7.6-1-15.2-0.2-22.8-0.4c-1.8,0-2.6,0.9-2.5,2.7c0,1.2,0.3,2.8-1.1,3.3c-4.6,1.4-7.9,6.4-13.6,4.7
			c-1.4-0.4-3.1-0.1-4.5,0.4c-1.8,0.6-0.6,2.8-1.6,4.3c-1.3-2.2-3-1.7-5.1-0.6c0-1.9,0.2-3.4,0-4.8c-0.6-4.1,0.3-7.2,4.8-8.6
			c1.9-0.6,2.4-2,2.6-4.1c0.2-3.5-2.6-3.9-4.7-4.8c-2.2-0.9-3-2.1-2.9-4.4c0.1-4,0.1-8,0-12c-0.1-2.7,0.9-3.6,3.6-3.5
			c7.7,0.1,15.4,0.1,23.1,0c4.1,0,4.8-0.7,4.8-4.9c0-10.9-0.1-21.8-0.1-32.7c0-0.9-0.4-2,0.6-2.5c0.8-0.4,1.4,0.6,2.1,1
			c9,6.4,18.3,12.6,26.9,19.5c2.7,2.1,5.3,3.9,8.2,5.7c6.2,3.8,12,8.3,17.9,12.6c2.4,1.7,3.5,5.1,2.5,8.2c-0.9,2.7-3.4,1-5,1.5
			c-0.4,0.1-0.8,0-1.2,0.1c-0.8,0.1-1.7,0.3-1.8,1.3c-0.1,1.2,0.6,1.8,1.6,1.8c2.2,0,2.4,1.4,2.5,3.1c0,1.4,0.2,2.9,0.2,4.3
			c0.1,13.2,0.1,26.5,0.2,39.7c0,1.3-0.5,3,1.4,3.3c2.3,0.4,2.3,1.8,2.3,3.6c-0.2,9.7-0.4,19.5-0.5,29.2
			c-0.1,16.5-0.1,33.1-0.2,49.6c0,1.1,0.5,2.8-1.1,3.2c-2.7,0.6-2.6,2.4-2.6,4.4c0,14.3,0,28.6,0.1,42.8c0,1.8,0.1,3.6-2.6,3.5
			c-1,0-1.5,0.7-1.5,1.6c0,1,0.7,1.4,1.6,1.5c1.2,0.1,2.5,0.2,3.7,0.1c1.9-0.1,2.5,0.8,2.6,2.6c0,1.8-0.9,2.8-2.2,3.8
			c-4.3,3.1-8.9,5.9-12.9,9.5c-3.9,3.5-9.9,4-12.5,9.1c-0.2,0.3-0.7,0.4-1,0.7c-8.4,6.2-16.8,12.5-25.2,18.7c-0.9,0.7-1.7,2-2.8,1.5
			c-1.2-0.5-0.6-2-0.6-3.1c0-11.3-0.1-22.5-0.5-33.8c-0.1-2.1-0.9-3.1-3.1-3.2c-8.3-0.6-16.6-0.3-24.9-0.4c-2.3,0-3.3-0.7-2.6-3.2
			c1.4,0.9,2.7,1.9,4.2,0.4c0.9-1,1.2-2.3,0.7-3.4c-0.7-1.7-2.2-2.1-3.9-1.4c-0.5,0.2-1.1,0.3-1.1-0.5c0-3.3-0.3-6.6,0.1-9.8
			c0.2-2,2.7-1.9,4.1-2.8c1.5-0.9,2.9-1.7,2.8-3.6c0-1.8-0.4-3.6-2.4-4.2c-4.3-1.5-5.4-4.6-4.8-8.8c0.2-1.2,0-2.4,0-4.6
			C112.9,565,114.7,564.3,116.6,562.8z M646.1,542.3c5.3-0.6,10.4,0.5,15.5,0.6c11.3,0.1,22.6-0.6,33.9-0.6c5.5,0,10.6-2.6,16.2-2.2
			c0.1,0,0.2-0.1,0.3-0.1c15.2-4.6,30.4-9.2,45.7-13.6c2.5-0.7,3.4-2,3.3-4.4c0-4.4,0-8.8,0-13.2c-0.1-7.6-0.2-6.1,6.5-6.3
			c2.1,0,3.1,0.7,3.2,3c0,8.3,0.4,16.6,0.4,24.9c0.1,22.7,0.2,45.3,0.7,68c0.1,5.3,0,5.3-5.1,5.3c-16.2,0-32.5,0-48.7-0.1
			c-4,0-4.2,0.2-4.2,4.2c0,10.6,0,21.2,0,31.7c0,3.2-0.5,3.5-3.3,2.7c-19.9-5.7-39.8-11.5-59.7-17.2c-14.2-4.1-28.4-8.1-42.6-12.1
			c-1.7-0.5-2.6-1.2-2.6-3.2c0.1-5.3,0-10.7,0-16c0-1.9,0.6-2.8,2.7-2.7c2.2,0.1,4.5,0,6.8-0.1c5-0.1,7.6-2.5,7.7-7.6
			c0.1-4.9,0-9.9-0.2-14.8c-0.1-2.5,0-4.4,3.3-2.7c0.7,0.3,1.6,0.3,2.4,0.2c5.5-0.1,11-0.2,16.5-0.4c1.8-0.1,2.4,0.6,2.4,2.3
			c-0.1,2.8,0,5.5,0,8.3c0,5.4,1.3,6.9,6.9,6.9c7.9,0,15.8,0.1,23.6-0.3c5.9-0.2,11.9,1,17.7-1.5c1.4-0.6,1.7,0.6,1.6,1.5
			c-0.2,2.2,0.9,2.6,2.7,2.5c1-0.1,2,0.2,3.1,0.1c2.3-0.1,3.9-0.9,3.9-3.6c-0.2-12-0.3-24-0.5-35.9c0-0.9,0.1-2.1-1.1-2.3
			c-2.3-0.3-4.6-0.5-7-0.6c-1.2,0-1.2,1.1-1.6,2c-0.4,0.9-1,0.3-1.5,0.1c-3.2-1.7-6.7-1.9-10.2-1.9c-10.6,0.2-21.2,0.4-31.8,0.6
			c-0.5,0-1.1,0-1.5,0.1C649.4,544.7,647.6,544.2,646.1,542.3z M605.2,432.3c-0.2-0.7-0.3-0.9-0.3-1.2c-0.2-14.2-0.3-28.5-0.5-42.7
			c0-2.1,1.2-2.5,2.8-3c22.5-6.6,45.1-13.3,67.6-20c11.3-3.3,22.6-6.6,33.9-10c1.7-0.5,2.7-0.4,2.7,1.8c-0.3,10.7,0.3,21.3,0.5,32
			c0.1,4.3-0.1,4.3,4.1,4.3c16.5-0.2,33.1-0.3,49.6-0.6c2.9-0.1,3.9,0.8,3.9,3.8c0.1,19,0.3,37.9,0.5,56.9c0.1,7.2,0.9,6.1-6.5,6.4
			c-2.2,0.1-3.1-0.7-3.1-3c0.1-5-0.1-10.1-0.1-15.1c0-2.3-0.8-3.8-3.2-4.5c-15.4-4.4-30.7-9-46-13.5c-1.9-0.6-3.9-0.8-5.8-0.4
			c-1.4,0.3-2.4,0-3.5-0.6c-1.8-1.1-3.7-1.1-5.6-1.2c-12.4-0.3-24.8,0.4-37.2-0.5c-8.8-0.6-17.7-0.8-26.4,0.6
			C622.7,423.3,613,424.9,605.2,432.3z M672.3,423.2c2.9,0,5.8,0,8.6,0c12.9,0.2,24.5,9.5,27.4,22.1c0.8,3.2,0.5,3.6-2.8,3.5
			c-8.2-0.2-16.4,0.2-24.5,1.8c-1.9,0.4-3.1,0.1-3.7-2c-0.9-3.7-3.2-5.1-7.2-4.8c-7.5,0.5-15,0.4-22.4,0.6c-5.8,0.2-5-1.1-3.9,5.1
			c0.5,2.8,1.9,3.7,4.5,3.1c2.1-0.4,3.2-0.9,3.9,2.5c1.5,6.7,2.2,13.3,2.4,20.1c0.2,9.5,0.7,19-0.6,28.5c-0.2,1.9-1.9,3.5-1.5,5.2
			c0.6,2.7-0.6,2.5-2.4,2.3c-0.9-0.1-1.8-0.2-2.8-0.2c-2.3,0.1-3.5,2.2-3.6,6.1c0,2.5,1.9,2.1,3.3,2.1c7.9,0.1,15.8-0.2,23.7,0.2
			c4,0.2,6.2-0.9,7.2-4.7c0.4-1.4,1.1-2.1,2.6-1.7c8.6,2,17.3,2.2,26,2c2.7-0.1,3.1,1.1,2.6,3.4c-2.3,12.6-13.9,22.6-26.7,22.8
			c-10.8,0.2-21.5,0.2-32.3-0.4c-7.4-0.4-14.8-0.2-22.1-1.5c-6.2-1.1-12.3-2.3-17.7-5.9c-2.1-1.4-3.9-2.9-3.9-5.8
			c0.1-12.3-0.2-24.6-0.5-36.9c-0.3-17,0.3-34.1-0.5-51.1c-0.2-4.7,1.5-7.8,5.5-10c8.4-4.6,17.6-5.9,26.9-6.7
			C649.5,421.9,660.9,423.1,672.3,423.2z M768.5,605.1C768.5,605.1,768.5,605,768.5,605.1c14.6-0.1,29.2,0,43.7-0.2
			c3,0,3.9,0.9,3.8,3.9c-0.1,15.6-0.1,31.2-0.1,46.8c0,4.6,0,4.6-4.5,4.6c-28.2,0.1-56.4,0.3-84.6,0.4c-1.8,0-4.3-0.5-4.3,2.1
			c0,2.7,2.6,2,4.3,2c28.3,0,56.6-0.1,84.9-0.6c3.9-0.1,4.2,0.4,4.1,4.1c-0.1,3.1-1.8,3.7-4.4,3.7c-28.9,0-57.7-0.1-86.6,0
			c-3.1,0-3.7-1.2-3.7-4c0.1-19.8,0.1-39.6,0-59.5c0-2.9,1-3.6,3.7-3.6C739.6,605.2,754,605.1,768.5,605.1z M764.1,391
			c0,0.2,0,0.4,0,0.6c-13.6,0-27.1-0.1-40.7,0.1c-2.9,0-3.9-0.8-3.9-3.8c0.1-19.5,0.1-39,0-58.5c0-2.9,1-3.6,3.7-3.6
			c9.2-0.1,18.5,0,27.7-0.3c19.5-0.6,39,0.1,58.5-0.6c3.7-0.1,4.5,1,4.7,4.4c0.2,3.9-2.5,3-4.5,3c-13.2,0.2-26.5-0.1-39.7,0.4
			c-10,0.3-20,0.1-30-0.2c-5.5-0.2-11.1,0.2-16.6,0.4c-1.3,0-2.6,0.3-2.6,2c0,1.6,1.3,1.9,2.5,2.1c0.5,0.1,1,0.1,1.5,0.1
			c15.4-0.1,30.8-0.2,46.2-0.2c13.3,0,26.7,0,40-0.5c2.1-0.1,3.2,0.4,3.1,2.9c-0.2,4.7,0.1,9.4,0,14.1c0,11.5-0.2,23.1-0.1,34.6
			c0,2.2-0.5,3-2.9,3C795.5,390.9,779.8,391,764.1,391z M283.1,571.1C283.1,571.1,283.1,571.1,283.1,571.1c0-4.5,0-9,0-13.6
			c0-4.2,0-4.2,4.2-4.3c20.6-0.1,41.2,0,61.8-0.3c20.2-0.3,40.4-0.2,60.6,0.2c1.5,0,2.7,0.4,3.4,1.7c3.7,7,8.8,13.4,7.3,22.2
			c-0.5,2.8,0,5.7,0,8.6c0,5.6-1.7,7.3-7.4,7.3c-22.5,0-45,0.1-67.5,0.1c-6.4,0-5.6,0.1-5.6-5.4c0-3.6-1.4-5-5.1-5.1
			c-2.6-0.1-5.1,0-7.7,0c-7.6,0-8.3,0.6-8.4,8.2c0,1.9-0.4,2.7-2.6,2.7c-9.7-0.1-19.5,0.1-29.3,0.1c-1.9,0-3.7-0.5-4.9-2.1
			c-0.8-1.1-2.1-2.3,0.4-3.2c1.2-0.4,0.9-1.7,0.9-2.7C283.1,580.8,283.1,575.9,283.1,571.1z M330.2,446.6c0,0.2,0,0.3,0,0.5
			c-14.3,0-28.6-0.1-42.8,0.1c-2.8,0-3.8-0.8-3.7-3.7c0.1-9.5,0.1-19.1,0-28.7c0-1.1,0.4-2.5-0.9-3c-2.8-1.1-1.1-2.2-0.1-3.3
			c1.3-1.4,2.9-1.7,4.7-1.7c8.5,0,17-0.1,25.6-0.1c5.4,0,5.4,0,6,5.5c0.4,3.9,1.5,4.9,5.2,5c3.9,0.1,7.8,0,11.7,0
			c2.4,0,3.6-1.3,3.9-3.5c0.2-1.2,0.5-2.5,0.5-3.7c-0.2-2.8,1.2-3.4,3.7-3.4c13,0,26.1-0.2,39.1-0.3c10.3-0.1,20.5-0.2,30.8-0.1
			c4.1,0,5.6,1.3,5.9,5.4c0.3,4.2,0,8.4,0.5,12.5c0.6,4.9-0.9,9.1-3.3,13.1c-1.4,2.3-2.8,4.6-3.9,7c-0.8,1.7-1.8,2.2-3.6,2.2
			c-5.4,0-10.9,0.2-16.3,0.2C372.2,446.7,351.2,446.6,330.2,446.6z M201.7,606c-0.1-2.2-0.2-3.9-0.3-5.7c-0.1-2,0-3.7,2.6-4
			c1.3-0.1,1.4-1.4,1.4-2.4c0-15.3,0-30.6,0-45.9c0-1.5-0.5-2.8-2.2-2.8c-2,0-2.1-1.1-2-2.6c0.1-11.4,0.2-22.8,0.2-34.2
			c0-1.7,0.4-2.9,2.5-3c2.1-0.1,3.3-1.7,3.3-3.8c0-2-1-3.7-3.1-4c-2.1-0.3-2.4-1.4-2.4-3.2c0.1-10.8,0.1-21.6,0.1-32.4
			c0-1.5,0.3-2.6,2.1-2.7c1.8-0.1,2.1-1.4,2.1-2.8c0-3.4,0-6.8,0-10.2c-0.1-11.9-0.1-23.8-0.3-35.7c0-1.1,0.2-3-1.5-2.9
			c-2.8,0-2.6-1.7-2.6-3.5c0-2.1-0.1-4.1,0-6.2c0-0.9-0.5-2.1,0.5-2.5c0.8-0.4,1.7,0.4,2.5,0.9c4.7,2.8,9.6,5.1,14.7,7
			c6.8,2.6,13.8,1.5,20.7,1.6c11.7,0.1,23.4,0,35.1,0.1c1.5,0,3.1-0.3,3.3,2.1c0.6,7.5,0.6,14.9,0.4,22.4c0,1.4-0.2,2.6-2,2.3
			c-3.6-0.6-4.2,1.4-4,4.3c0.1,1.2,0.1,2.5,0,3.7c-0.2,2.5,0.8,3.7,3.3,3.5c1.9-0.2,2.9,0.6,2.8,2.6c-0.2,15.5-0.4,31-0.5,46.5
			c0,1.5-0.6,2.5-2.2,2.3c-3.5-0.3-4.2,1.7-4,4.6c0.1,1.3,0.1,2.7,0,4c-0.1,2.3,0.9,3.5,3.3,3.3c2.4-0.2,3,1.1,2.9,3.2
			c-0.1,2.9,0,5.8,0,8.6c0,11.6,0,23.2-0.1,34.8c0,1.3,0.3,2.7-1.6,3.1c-4.3,1-4.3,1.1-4.2,5.5c0,0.9,0.1,1.9,0,2.8
			c-0.3,2.3,0.5,3.5,3,3.2c1.4-0.2,2.7,0,2.7,2c0,7.6-0.1,15.2-0.1,22.8c0,1.7-0.9,2.2-2.6,2.2c-16.2,0.1-32.4,0.2-48.5,0.3
			c-3.1,0-6.1,0.8-9,1.9C212.6,599.7,207.3,602.5,201.7,606z M670.5,634c-3.5,2-6.4,3.4-8.6,5.8c-1.1,1.2-1.9,1.3-3.4,0.6
			c-3-1.3-6.9,0.1-6.8,2.4c0.2,3.7-1.9,3.3-4.2,3.2c-1.8,0-3.7,0-5.5,0c-5.7,0-5.6,0-6.2-5.5c-0.2-2.3,0.4-3.5,2.9-3.6
			c0.7,0,1.4-0.4,2.1-0.5c1.1-0.2,2.2-0.6,2.1-1.9c-0.2-2.5-3.2-2.6-4.1-4.7c-0.3-0.6-1.7-0.2-2.4,0.6c-0.1,0.1-0.1,0.2-0.2,0.3
			c-0.4,2-1.9,1.8-3.3,1.8c-29.3,0-58.7-0.1-88,0.5c-1.6,0-2.8-0.1-3.5-2.1c-0.6-1.6-2.9-1.5-3.4-0.1c-0.8,2.1-2,2.1-3.8,1.9
			c-1.8-0.2-3.7,0-5.5,0c-26,0.1-51.9,0.3-77.9,0.4c-1.3,0-2.2-0.3-3.3-1.6c-2.8-3.5-3.5,1.2-5.3,1.7c-1.5,0.5-1.6,1.7-1.1,3
			c0.1,0.2,0.3,0.4,0.4,0.4c1.7,0.4,3.3,1.9,5.2,1c1.6-0.8,3.2-0.7,4.8-0.7c13.4,0,26.7-0.1,40.1-0.1c6.5,0,6.4-1.2,6.5,6.5
			c0,2.6-0.7,3.2-3.2,3.2c-17-0.1-34.1,0-51.1,0c-6.2,0-6.2,0-6.6-5.9c0-0.4-0.2-0.8-0.1-1.2c0.3-6.5-1-13.4,4.4-18.8
			c1.5-1.5,2.6-3.4,3.8-5.2c1-1.7,2.3-2.3,4.3-2.3c6,0.1,12.1,0.1,18.2,0.1c22.4-0.2,44.7-0.4,67.1-0.6c13.1-0.1,26.2-0.4,39.3-0.1
			c8.6,0.2,17.2-1.2,25.8,1.5c16.9,5.3,34.1,9.7,51.2,14.5C657.3,630.3,663.5,632.1,670.5,634z M461.8,456c0-7.8,0-15.6,0-23.4
			c0-4.1,1.8-6.2,5.6-6.2c15.6-0.1,31.2-0.1,46.8-0.2c1.7,0,2.9,0.8,4,2c1,1.2,0.8,1.9-0.8,1.8c-2.2-0.1-4.1,0.7-5.2,2.6
			c-0.7,1.2-1.6,1.7-2.9,1.7c-0.9,0-2.1-0.1-2.1,1.2c0,1.2,1.1,1.4,2.1,1.4c2-0.1,2.4,0.9,2.4,2.7c-0.1,3.7-0.1,7.4,0,11.1
			c0.1,3.8,1.5,5.4,5.3,5.8c2.2,0.2,2.8,1.3,2.7,3.2c-0.1,3.9-0.2,7.8,0,11.7c0.1,2.9-0.6,4.1-3.7,3.9c-3.4-0.2-5.4,1.6-5.4,4.5
			c-0.1,5.6-0.1,11.3,0.1,16.9c0.1,3.1,2,4.8,5.1,5.1c0.7,0.1,1.4,0,2.1,0.1c1.8,0.2,1.8,1.2,0.8,2.3c-1.5,1.6-3.5,1.9-5.6,1.9
			c-14.5,0-29,0-43.5,0.1c-6.1,0-7.6-1.3-7.6-7.5C461.8,484.5,461.8,470.3,461.8,456z M584.1,669.9c0,0.1,0,0.2,0,0.3
			c-19.8,0-39.6,0-59.4,0c-4.3,0-4.3,0-4.5-4.2c-0.1-3.8-0.2-7.6-0.2-11.4c0.1-7.2-0.4-5.8,5.9-5.8c27.7-0.3,55.4-0.4,83-0.6
			c15.7-0.1,31.4-0.1,47.1-0.1c1.2,0,2.7-0.3,3.2,1.2c1.6,4.5,4.9,7.4,9.1,9c3.9,1.5,4.2,4.1,3.8,7.4c0,0.3-0.2,0.6-0.1,0.9
			c0.5,2.6-0.9,3.2-3.1,3.2c-8.3-0.1-16.6-0.2-24.9-0.1C624.1,670,604.1,669.9,584.1,669.9z M425,672c0,0.2,0,0.4,0,0.6
			c-7.9,0-15.7,0-23.6,0c-20.6,0-41.3,0.1-61.9,0.1c-7.3,0-6.3,0.8-6.4-6.4c-0.1-4.2,0.1-4.4,4.2-4.4c12.7,0,25.5,0,38.2-0.1
			c3.1,0,6.2,0,9.2,0c1.3,0,2.1,0.1,1.8,1.9c-0.4,2.1,1.2,2.9,2.9,2.4c2.6-0.7,6.7,2.2,7.7-2.4c0.4-1.8,0.7-2,2.1-2
			c3.2,0,6.4-0.1,9.6-0.1c5.2,0,5.1,0,5.2-5c0.1-7.6-0.9-6.4,6.7-6.5c29.9-0.2,59.8-0.2,89.6-0.2c1.4,0,2.9-0.1,4.3,0
			c0.9,0,1.9,0.2,2,1.5c0.1,1.2-0.8,1.2-1.7,1.3c-1.2,0.1-1.8,0.8-1.8,2c0.1,3.6,0.1,7.2,0.1,10.8c0,1.2,0.3,2.1,1.5,2.3
			c1.6,0.2,2,1.1,1.9,2.6c-0.2,1.8-1.6,1.6-2.8,1.6C484.1,672,454.5,672,425,672z M711.5,464.9c24.1,0,48.2,0,72.4,0
			c0-0.3,0-0.6,0-1c-3.6-0.7-7.3,0.2-10.9,0c-1.1-0.1-1-0.5-1.2-1.2c-0.2-1,0.1-1.3,1.1-1.2c4.5,0.3,9-0.8,13.5,0.7
			c0.8,0.3,1.6,0.3,2.4,0c5.3-1.6,10.7-0.4,16.1-0.7c-5.1,0.8-10.2,1.4-15.3,1.9c-2.5,0.3-4.2,1.3-4.7,4c-1.8,9.2-1.7,18.3,0.4,27.5
			c0.6,2.7,2.5,3.9,5.1,4.1c4.5,0.4,8.9,0.9,13.4,1.3c-10.9-0.6-21.7,0.9-32.4,0.9c0.3-3.7,2.9-3.3,5.4-3.3c2.4,0,4.8,0.3,7.1-0.8
			c-24.3,0-48.5,0-73.3,0c1.1,1.7,2.1,1.2,2.9,1.2c16.7,0,33.5,0,50.2-0.1c2.1,0,3.4,0.4,3.4,2.7c-3.8,0-7.6,0-11.4,0
			c-15,0-30,0.1-45,0.1c-4.8,0-7.5-2.6-7.6-7.4c-0.2-8.4-0.2-16.8-0.2-25.2c0-4.2,2.4-6.7,6.7-6.8c7.6-0.2,15.1-0.3,22.7-0.3
			c10.8-0.1,21.5-0.1,32.3,0c0.6,0,1.8-0.7,1.7,0.9c-0.1,1.2-0.5,1.8-1.9,1.5c-0.3-0.1-0.6,0.1-0.9,0.1c-13.8,0-27.6,0-41.4,0.2
			C718.6,464.1,715,463.5,711.5,464.9z M537.7,369.3c-0.8,0.3-2.7-0.6-2.9,1.4c-0.2,1.7,0.8,3,2.3,3.7c4.9,2.2,9.7,2.2,14.5-0.2
			c0.7-0.4,1.3-1,1.8-1.7c1.2-1.7,0.5-3.4-1.5-3.3c-2.8,0.1-4.5-1.3-6.7-3.3c11.5,0,22.6,0,33.6,0c1.7,0,2.4,0.9,2.4,2.5
			c0,3.1,0.1,6.2-0.1,9.2c-0.1,1.6,0.5,2.3,2,2.4c1,0,2.1,0.1,3.1,0c1.7-0.1,3.6-0.7,3.8,2.1c0.1,0.9,1.2,1,2,1.1
			c2,0.2,4,0.5,6.4,0.8c-0.8,0.3-1.2,0.5-1.6,0.5c-9.9,0.6-19.9,0.5-29.8,0.4c-1,0-1.7-0.4-1.9-1.6c-0.5-2.8-2.6-4.3-5.2-4.4
			c-8.3-0.4-16.6-0.5-24.9,0.1c-2.5,0.2-4.5,1.7-4.8,4.4c-0.2,1.8-1.1,1.8-2.5,1.8c-10.6,0-21.3,0-31.9,0c-12.5,0-25.1-0.1-37.6,0.2
			c-7.6,0.2-13.7-0.8-18.3-8.3c-3.5-5.7-3.2-11.3-3.4-17.1c-0.1-2.8,2.3-4.3,4.3-3.1c4.6,2.8,9,1.6,13.4-0.3
			c0.7-0.3,1.5-1.3,1.8,0.1c0.4,1.9,1.7,1.8,3,1.8c2.8,0.1,5.5,0.1,8.3,0c1.6-0.1,3.3,0.3,4.7-1.4c0.9-1.1,3.1-0.6,4.3,0.1
			c1.4,0.8,0.7,2.7,0.5,4c-0.3,1.7-1.8,1.3-3,1.3c-4,0-8,0.2-12,0c-5.6-0.3-11.2,1.1-16.7-1c-1.7-0.6-3.7,0.7-4.7,2.2
			c-0.9,1.5,0.3,2.6,1.9,3.1c0.3,0.1,0.5,0.6,0.6,1c0.6,2.8,2.7,2.1,3.5,0.8c1.2-2.2,2.8-2,4.7-2c25.8-0.2,51.7-0.4,77.5-0.5
			C532,365.9,535.9,364.6,537.7,369.3z M236.7,621.1c0-0.1,0-0.1,0-0.2c10,0,19.9,0.1,29.9-0.1c2.1,0,2.6,0.6,2.6,2.6
			c-0.1,9.7,0,19.5,0,29.2c0,6.2-1.9,8.1-8.1,8.1c-0.8,0-1.6,0-2.5,0c-16.5,0-33,0.1-49.6,0.1c-1.2,0-3.2,0.4-3.3-0.8
			c-0.2-2.7-2.4-4.5-2.4-7.3c0.3-9.3,0.2-18.7,0.1-28c0-2.8,0.7-3.8,3.6-3.7C217,621.2,226.9,621.1,236.7,621.1z M236.7,380.1
			c0,0.1,0,0.2,0,0.2c-9.7,0-19.5-0.1-29.2,0.1c-3.2,0.1-4.2-1-4-4.1c0.2-2.2-0.2-4.5-0.1-6.8c0.2-8.8-1.7-17.6,0.9-26.4
			c0.6-2.1,1.1-2.5,3.1-2.5c18.1,0,36.1-0.1,54.2-0.1c4.7,0,7.1,2.1,7.2,6.9c0.2,10.1,0.3,20.3,0.4,30.4c0,1.7-0.7,2.3-2.4,2.3
			C256.7,380.1,246.7,380.1,236.7,380.1z M356.1,620.5c0,0,0-0.1,0-0.1c9.8,0,19.5,0,29.3,0c2.1,0,3.4,0.7,3.4,2.9
			c0,10,0.1,20.1-0.1,30.1c-0.1,4.9-2.3,6.8-7.1,6.8c-17.4,0.1-34.9,0.2-52.3,0.3c-1.1,0-3,0-3.1-0.8c-0.2-2.6-2.5-4.3-2.4-7
			c0.1-9.7,0.1-19.3,0-29c0-2.6,0.8-3.4,3.3-3.4C336.8,620.6,346.4,620.5,356.1,620.5z M356.6,379.5c0,0.1,0,0.2,0,0.3
			c-9.9,0-19.7,0-29.6,0c-1.6,0-3.2,0.2-3.2-2.2c0-10.4-0.2-20.8,0-31.1c0.1-5.4,1.5-6.4,6.8-6.4c16.8,0,33.7,0,50.5,0
			c4.5,0,7,2.1,7,6.7c0.2,10.3,0,20.5,0.1,30.8c0,1.7-0.7,2.1-2.2,2C376.2,379.5,366.4,379.5,356.6,379.5z M353,468.3
			c0-0.1,0-0.1,0-0.2c13.1,0,26.3,0,39.4,0c5.5,0,7.5,2,7.5,7.5c0,16.1,0,32.3,0,48.4c0,6.5-2.1,8.6-8.7,8.5c-8.9,0-17.7-0.1-26.6,0
			c-24.5,0.2-49.1,0.2-73.6,0.2c-6,0-8-1.9-7.9-7.9c0.2-16.3,0.4-32.6,0.6-48.9c0.1-5.2,2-7,7.2-7.1c7.4-0.1,14.7-0.3,22.1-0.4
			C326.3,468.3,339.7,468.3,353,468.3z M660.3,327.7c1.6,0,3.3,0,4.9,0c14.8,0,29.6,0,44.3-0.1c2,0,3,0.6,3,2.8
			c-0.1,5.1-0.1,10.3,0,15.4c0,1.8-0.7,2.6-2.5,2.6c-3.3,0-6.5,0.2-9.8,0.3c-17.6,0.1-35.1,0.2-52.7,0.2c-11.8,0-23.6,0-35.4,0.1
			c-2.4,0-3.6-0.5-3.5-3.2c0.2-5,0.1-10.1,0-15.1c0-1.8,0.6-2.7,2.5-2.6C627.5,328.5,643.9,327.8,660.3,327.7z M406.7,535.2
			c1.9-2.7,2.8-5,2.8-7.7c0-18.4,0-36.7,0-55.1c0-1-0.1-2-0.1-3.1c0-1.6-2-3.4-0.7-4.4c1.1-0.9,3.4-0.6,5.1-0.4
			c4.9,0.6,8-1.2,9.8-5.9c1.4-3.4,3.4-6.5,5.2-9.8c1.2-2.3,3.3-1.8,5.1-1.5c1.9,0.3,1.2,2.1,1.3,3.3c0.1,3.7,0.1,7.4,0.1,11.1
			c0,20.6,0,41.3,0,61.9c0,8.2,0,16.4,0,24.6c0,1.3,0.2,2.9-2.2,3c0.6-1.6,1.8-3,0.1-4.3c-0.8-0.6-1.6-0.8-2.6-0.2
			c-1.7,1.1-1,2.6-0.4,4.2c-1.3-0.3-1.5-1.2-1.9-1.9c-1.9-3.4-4-6.7-5.7-10.2c-1.4-3-3.8-3.8-6.7-3.9
			C412.9,535.2,410.2,535.2,406.7,535.2z M136.2,641.9c0.4,9.9-0.1,19.8,0.5,29.7c0.1,1.6,0.1,3-2.3,3.1c-9.1,0.2-18.2,0.3-27.2-0.1
			c-2.7-0.1-4.2-1.5-4.2-4.3c0-5.5,0.1-11,0-16.5c-0.1-13.9-0.2-27.8-0.4-41.7c-0.1-2.8,1.1-3.3,3.5-3.2c9,0.1,18,0.2,27,0.1
			c2.5,0,3.2,0.8,3.2,3.2C136.2,622,136.2,632,136.2,641.9z M136.1,360.3c0,9.7,0,19.5,0,29.2c0,2.1-0.5,3.2-2.9,3.1
			c-9.3-0.2-18.5-0.2-27.8-0.2c-2.2,0-3-0.8-3.1-3.1c-0.1-18.5-0.3-37.1-0.4-55.6c0-4.6,1.4-5.9,6.1-5.9c7.8,0,15.5,0.1,23.3,0.1
			c4.2,0,4.5-0.1,4.4,4.1C135.4,341.4,135.8,350.8,136.1,360.3z M683.9,455.3C683.9,455.3,683.9,455.2,683.9,455.3
			c3.1-0.1,6.2-0.1,9.2-0.1c3.4,0,6.8,0,10.2,0c2.2,0,3.3,1.5,4,3.3c0.8,2-1.1,2-2.1,2.8c-2.2,1.6-3.8,3.4-3.8,6.3
			c0,8.7,0,17.5,0.1,26.2c0.1,3.4,1.3,6.6,4.5,7.8c2.9,1.1,2.3,2.4,1.5,4.4c-0.9,2.1-2.4,2.7-4.7,2.7c-8.8,0.1-17.6-0.3-26.4-0.8
			c-3.3-0.2-6.6-0.1-9.8,0.1c-2.4,0.1-3.4-0.4-2.8-3.1c1.2-5.6,1.7-11.4,1.8-17.1c0.3-10-0.8-19.9-3-29.6c-0.5-2.4,0.2-2.9,2.3-2.9
			C671.4,455.3,677.6,455.3,683.9,455.3z M186.1,382.1c7.5-0.8,14.5,0.1,21.4,0c25-0.5,50.1-0.2,75.1-0.3c3.2,0,6.3,0.1,9.5-0.3
			c1-0.2,2.2-1.2,2.4-1c1.2,1.5,2.7,0.9,4,0.8c10.1-0.3,20.3,0.4,30.4,0.1c26.9-0.6,53.9,0.4,80.9-0.6c0.8,0,1.6-0.2,2.2,0.7
			c-2,2.6-4.2,5.1-6,7.8c-1.2,1.8-2.6,2.3-4.6,2.2c-17.3-0.2-34.6,0.4-51.9,0.3c-32.5-0.1-65,0.2-97.5,0.3
			c-14.6,0.1-29.1,0.2-43.7,0.3c-2.9,0-6.2,0.9-8.7-0.7C195,388.9,190.5,386,186.1,382.1z M706.9,352.5c-9.3,2.7-18.6,5.5-28,8.2
			c-14.8,4.3-29.5,8.6-44.3,12.8c-9.6,2.8-19.1,5.5-28.7,8.3c-1.7,0.5-2.6,0.1-2.2-1.6c0.9-3.7,0.5-7.4,0.4-11
			c0-2.6,0.9-3.4,3.4-3.4c6.4,0.1,12.7-0.3,19.1,0c2.9,0.1,6.2-1.9,9,2.3c1.8,2.8,2.4-3.6,5.4-3c0.6,0.1,0.8-2.4,0.2-2.6
			c-1.9-0.9-3.8-2.9-5.9-1.7c-2,1.1-3.9,1-5.9,1c-5,0-10,0-15,0c-5.7,0-11.4,0.1-17.2,0.1c-1,0-1.9-0.1-1.8-1.4
			c0.2-2.4-1.3-2.7-3.1-2.8c-0.7,0-1.8,0.2-1.9-1c-0.1-1,0.9-1.3,1.6-1.6c1.5-0.5,2.7-0.3,3.4,1.5c1.2,3.2,4,1.7,6.1,1.7
			c2,0,2.1-1.7,2-3.2c-0.2-2,0.9-2.4,2.6-2.5c6.8-0.1,13.5-0.2,20.3-0.2C653.2,352.3,680,352.5,706.9,352.5z M836,488.9
			c-5.3,0-10.7-0.1-16,0c-2.4,0.1-3.1-0.9-3-3.1c0.1-3.7,0.1-7.4-0.1-11.1c-0.1-2.4,0.8-3.2,3.2-3.2c8.4,0,16.8-0.1,25.2-0.1
			c16.6,0,33.2,0,49.8-0.1c1.8,0,2.4,0.7,2.4,2.4c0,3.8-0.1,7.6,0.3,11.4c0.2,2.7-0.8,3.3-3.3,3.3C875,488.3,855.5,488.2,836,488.9z
			 M260.5,672.7c0,0.2,0,0.4,0,0.6c-20.1,0-40.2,0-60.4,0c-1.2,0-3.1,0.6-3.1-1.5c0-1.9,1.7-1.3,2.9-1.4c1.3-0.1,6.2-3.8,6.5-5.1
			c0.1-0.3,0.1-0.7,0-0.9c-1.5-2.2,0.5-1.9,1.5-1.9c3.7-0.1,7.4,0,11.1,0c15.2,0,30.4,0,45.6-0.1c1.7,0,2.7,0.1,2.4,2.3
			c-0.2,1.4,0.9,2.2,2.4,2.1c1.9-0.1,3.9,0.1,5.8-0.1c1.4-0.1,3-0.6,2.4-2.6c-0.6-1.9,0.7-1.6,1.6-1.6c11.5-0.1,23-0.1,34.5-0.1
			c0.8,0,2-0.2,1.9,0.9c-0.2,3.9,2.8,3.4,4.9,3.2c2.5-0.2,3.6,0.2,3.6,3c0,2.6-1,3.3-3.5,3.3C300.6,672.6,280.5,672.7,260.5,672.7z
			 M581.2,527.5c0,2.3,0,4.5,0,6.8c0,5.8,0,5.8,5.7,6c1.2,0,2.7-0.2,2.9,1.5c0.3,3.3,0.5,6.6-1.9,9.3c-1.2,1.3-2.4,3.2-4.2,2.6
			c-1.8-0.5-0.8-2.7-0.9-4.1c-0.1-1.9-0.4-3.7-2.7-3.7c-6.7,0-13.3,0.1-20,0.2c-2.1,0-3,1.1-2.9,3.1c0,0.8,0,1.6,0,2.5
			c0,0.6,0.2,1.3-0.4,1.7c-0.8,0.5-1.3-0.3-1.8-0.7c-3.1-2.4-3.5-5.8-3.7-9.3c-0.1-2.8,0.7-4,3.6-3.7c2.9,0.3,4.3-1,4.2-4.2
			c-0.1-5.4,0.1-10.9,0.1-16.3c0-4.6-0.4-4.9-5.1-5.1c-1,0-2.1,0.2-2.6-1.1c-1.3-2.9,0.3-8.9,3-11c0.7-0.5,1.3-1.6,2.3-1.1
			c0.8,0.4,0.4,1.5,0.4,2.3c0.2,3.9,0.7,4.4,4.6,4.4c5.3,0,10.7,0,16,0c5,0,5.1,0,5.4-5c0.1-2.4,1.1-2.4,2.7-1.3
			c2.4,1.8,3.7,4.3,4,7.3c0.5,5.7,0.4,5.9-5.2,6c-2.4,0.1-3.6,1-3.5,3.5C581.2,521.3,581.2,524.4,581.2,527.5z M708,530.6
			c-0.4-1.7-0.3-3.2,0.5-4.6c1.5-3,2.2-6.2,2.6-9.4c0.2-2,1.1-2.9,3-3.3c3.6-0.8,7.2-1.6,10.8-2.6c3.9-1.1,8.4-1.6,11.2-4.8
			c2.7-3.1,5.7-3.5,9.3-3.3c1.5,0.1,3.1-0.1,4.6,0c3,0.2,7.1-1.4,8.9,0.6c1.9,2.1,0.5,6.1,0.6,9.2c0,0.2,0,0.4,0,0.6
			c0,1.2-0.2,1.8-1.8,1.6c-2.2-0.2-3.2,1.3-3.2,3.3c0,1.9,0.9,3.2,3,3.1c1-0.1,1.8-0.1,1.9,1.2c0,1.1-0.1,2-1.4,2.4
			c-1.2,0.3-2.3,0.8-3.5,1.1c-14.4,4.1-28.7,8.2-43.1,12.3c-3.4,1-3.6,0.8-3.4-3.1c1.8,2.2,3.8,1.5,5.5,0.3c1.3-0.9,1.3-2.4,0.4-3.6
			C712.4,529.4,710.3,529.6,708,530.6z M706.6,427.7c0.9-2.8,0.9-2.8,4.2-1.9c14,3.9,28,7.8,42,11.8c1.6,0.4,3.1,1,4.6,1.6
			c0.9,0.4,1.4,1.3,1.3,2.3c-0.2,1.5-1.2,0.5-1.9,0.5c-1.9,0-3.2,0.8-3.4,2.8c-0.1,1.9,0.8,3.8,2.6,3.6c3.6-0.4,2.7,1.8,2.8,3.7
			c0,1.7-0.1,3.5,0,5.2c0.1,2-0.8,2.8-2.7,2.7c-5.4-0.1-10.9,0-16.3-0.1c-0.9,0-1.8,0-2.6-0.8c-3.3-3.4-7.6-4.7-12-5.9
			c-4-1.1-8.2-2-12.2-3c-1.1-0.3-2.3-0.3-2.4-1.9c-0.4-3.9-1.9-7.5-3.5-11.1c-1-2.4-0.2-3.5,2.3-3.9c1.5-0.2,3-0.8,3.6-2.5
			c0.4-1.2,0.1-2.3-0.8-3.1c-1.3-1.1-2.8-1.7-4.5-0.7C707.4,427.3,707.2,427.4,706.6,427.7z M276.8,338.7c0.7-3.2-0.2-4.4-3.4-4.5
			c-1.4,0-2.9,0.1-4.3,0c-1.9,0-3.1,0.7-2.8,2.7c0.3,1.9-0.7,2-2.1,2c-9.3,0-18.6,0-28,0c-5.5,0-5.5,0-5.4-5.5c0-4,0-4,4.1-4
			c37.2-0.2,74.5,0.2,111.7-0.6c7.6-0.2,7.6-0.1,7.3,7.5c-0.1,1.5-0.6,2-2,2c-8.7,0-17.4,0-26.6,0c1.4-1.4,1.3-2.5,0-3.4
			c-1.3-1-7.9-1.1-9.2-0.1c-0.6,0.4-1.2,1-1.1,1.8c0.4,1.7-0.5,1.9-1.8,1.9c-4.2,0-8.4,0.2-12.6,0c-6.6-0.2-6.6-0.3-6.6,6.1
			c0,0.6,0,1.2,0,1.7c-0.3-1.4-0.4-2.9-0.3-4.3c0.3-2.9-0.9-3.7-3.8-3.5C285.5,339,281.1,338.7,276.8,338.7z M414.1,553.4
			c7.9-0.2,16.1-2.8,18.9,7.7c0.2,0.7,0.8,1.2,1.2,1.8c0.7,1.2,1.2,2.4-1,2.4c-1.9,0.1-2.3,1.3-2.3,2.9c0,10.3,0.1,20.5,0.1,30.8
			c0,1.2,0.1,2.3,1.3,2.9c0.8,0.5,2.4,0.1,1.9,1.8c-0.4,1.2-1.5,1.6-2.7,1.6c-3.7,0-7.4,0-11.1,0.1c-1.4,0-2.1-0.6-2.1-2.1
			c0.1-3.6-2-4.4-5-4.1c-7.1,0.5-14.2-0.6-21.4-0.2c-16.1,1-32.3-0.4-48.5,0.3c-0.5,0-1,0-1.5,0c-1.5,0-1.9-0.8-1.9-2.2
			c0-2.5,1.7-2.3,3.4-2.3c23-0.1,45.9-0.2,68.9-0.2c1.2,0,2.5,0,3.7-0.2c4-0.7,5.9-2.9,6-6.9c0.1-5.3,0.2-10.7,0.2-16
			c0-2.5-0.5-4.8-1.9-7C418,561,416.3,557.4,414.1,553.4z M378.5,404.4c0,0,0,0.1,0,0.1c-11.9,0-23.8,0-35.7,0c-1.5,0-2.8,0.3-2.8-2
			c0-2.2,0.8-3.1,2.9-2.8c4.8,0.7,9.5,0.3,14.3,0.1c11.6-0.5,23.2-0.2,34.8-0.2c3.1,0,6.1,1.4,9.1,0.6c4-1.1,8.1-0.5,12.2-0.7
			c3.5-0.2,4.5-0.9,5-4.4c0.1-0.9-0.1-2,1.3-2c4.1,0,8.2,0,12.3,0c1,0,1.7,0.8,1.9,1.8c0.2,0.9-0.4,1.3-1.2,1.5
			c-1.8,0.6-2.2,2.1-2.2,3.7c0,10.2,0,20.3,0,30.5c0,1.7,0.5,3.3,2.5,3.7c1.3,0.2,1.6,0.9,1,1.9c-1.6,2.9-3.1,5.8-4.7,8.6
			c-0.7,1.2-1.9,1.5-3.2,1.5c-3.2,0-6.3-0.1-9.5,0c-1.8,0-2.2-0.7-1.3-2.2c1.6-3,3.3-5.9,4.9-8.9c0.9-1.7,2-3.4,1.9-5.4
			c0-5.8,0.1-11.7-0.2-17.5c-0.3-5.9-2.4-7.7-8.4-7.7C401.7,404.4,390.1,404.4,378.5,404.4z M197.7,640.3c-1,5.1,1.5,11.7-1.5,18.2
			c-1,2.1-1.4,2.9-3.5,2.9c-4.4,0-8.8,0-13.2,0.2c-2.7,0.1-3.8-0.6-3.8-3.6c0-11.4-0.2-22.9-0.3-34.3c0-1.8,0.7-2.5,2.6-2.5
			c5.5,0.1,11.1,0.1,16.6,0c2.5-0.1,3.2,1,3.2,3.3C197.6,629.2,197.7,634,197.7,640.3z M175.3,359.9c-0.1,0-0.2,0-0.3,0
			c0-5.6,0.1-11.3,0-16.9c0-1.7,0.5-2.4,2.2-2.4c4.3,0.1,8.6,0,12.9,0c4.4,0,6.9,2.3,7,6.7c0.3,10,0.3,20.1,0.6,30.1
			c0.1,2.2-0.9,2.9-2.9,2.9c-5.4,0-10.9-0.1-16.3,0c-2.5,0.1-3.2-0.9-3.2-3.3C175.3,371.4,175.3,365.7,175.3,359.9z M296,640.9
			C296,640.9,296,640.9,296,640.9c0-5.3,0-10.7,0-16c0-3.8,0.4-4.2,4.3-4.2c4,0,8,0,11.9-0.1c5.6-0.1,5.9-0.1,5.5,5.3
			c-0.7,10.8,2.2,21.7-1.4,32.4c-0.6,1.7-1.1,2.4-2.8,2.4c-4.8,0-9.6,0-14.5,0.1c-2.3,0.1-3.1-0.8-3.1-3
			C296.1,652.2,296,646.6,296,640.9z M296,360.2c-0.2,0-0.4,0-0.6,0c0-5.3,0.1-10.6-0.1-16c-0.1-2.7,0.6-3.9,3.6-3.8
			c3.7,0.2,7.4,0.1,11.1,0c4.5-0.2,7.4,2,7.5,6.4c0.2,10.1,0.1,20.2,0.3,30.4c0,2.1-0.8,2.6-2.7,2.6c-5.2-0.1-10.5-0.1-15.7,0.1
			c-2.5,0.1-3.5-0.7-3.4-3.3C296.2,371.1,296,365.7,296,360.2z M790.5,472.2c0.9,0.9,1,2.4,2.4,2c0.9-0.3,1.2-1.1,1.2-2
			c0-1.2-0.3-2.5-1.8-2.4c-1.7,0-1.3-1-1.2-1.8c0.2-1.9,1.4-2.8,3.3-3.1c6.3-1,12.6-1.9,18.8-3c1.9-0.3,2.1,0.6,2.1,2
			c0.1,11.4-0.1,22.8,0.6,34.2c0.1,1.6-0.4,2.4-2.3,2.1c-5.8-0.9-11.6-1.8-17.4-2.3c-3.4-0.3-5-1.9-5-5.3c1,0.4,2.2,0.7,2.7-0.7
			c0.4-1.1,0.4-2.3-0.6-3.1c-1.1-0.9-1.7,0.2-2.7,1.2C790.2,484,790.4,478.4,790.5,472.2z M292.7,640.7
			C292.7,640.7,292.7,640.7,292.7,640.7c0.1,5.7,0,11.5,0.1,17.2c0,2-0.6,3.1-2.8,3c-3.5-0.1-7,0-10.5,0c-0.8,0-2.1,0.1-2.2-0.6
			c-0.1-2.3-2.2-3.9-2.2-6.1c0-10,0-20.1-0.1-30.1c0-2.3,0.9-3,3.1-3c3.9,0.1,7.8,0.1,11.7-0.2c2.2-0.2,2.9,0.6,2.9,2.7
			C292.6,629.2,292.7,635,292.7,640.7z M292.5,359.8c0.1,0,0.1,0,0.2,0c0,5.6-0.1,11.3,0,16.9c0.1,2.5-0.9,3.3-3.3,3.2
			c-3.7-0.1-7.4-0.2-11.1,0c-2.6,0.1-3.3-1-3.3-3.4c0-7.2-0.4-14.4-0.2-21.5c0.1-4-1.2-8.2,1.3-12.2c0.9-1.4,1.4-2.2,3-2.2
			c3.7,0,7.4,0.1,11.1,0c1.7,0,2.3,0.6,2.3,2.4C292.5,348.5,292.5,354.1,292.5,359.8z M411.8,640.6c0.1,0,0.3,0,0.4,0
			c0,5.3-0.1,10.7,0,16c0.1,2.7-0.7,4-3.7,3.7c-2.2-0.2-4.5,0-6.8,0c-4.6,0-7-1.9-7.1-6.6c-0.2-10.3-0.1-20.5-0.1-30.8
			c0-1.7,0.8-2.4,2.4-2.4c3.9,0,7.8,0,11.7-0.1c2.3-0.1,3.1,0.9,3.1,3.1C411.8,629.1,411.8,634.9,411.8,640.6z M394.2,361.3
			C394.1,361.3,394.1,361.3,394.2,361.3c0-4.5-0.1-9,0-13.6c0-6,1.8-7.9,7.8-7.9c2,0,3.9,0.1,5.9,0c2.7-0.3,3.7,1,3.7,3.5
			c-0.1,11-0.2,22-0.3,33.1c0,2.2-1.1,2.8-3,2.8c-3.5-0.1-7-0.2-10.5,0.1c-2.9,0.2-3.5-1-3.5-3.5C394.2,371,394.2,366.2,394.2,361.3
			z M127.8,442.4c0-4.9,3-8.7,7.4-9.5c0.5-0.1,1-0.8,1.1,0.5c0.3,2.3,2,1.6,3.2,1c1.5-0.7,2.7-1.9,4.2-2.5c1.5-0.5,3.6-2.1,4,1.4
			c0.2,1.5,1.5,1.4,2.4,0.7c2.9-2.2,6-1.6,9.1-1c4.4,0.9,7.4,4.1,7.9,8.3c0.5,4-1.6,8-5.6,9.6c-3.6,1.5-7.2,2-10.8-0.3
			c-0.9-0.6-2.4-2-3.2,0.3c-0.8,2.3-2.3,2.9-4.3,1.4c-1.4-1-2.7-2.2-4.4-2.7c-0.8-0.3-2.1-0.8-2.5,0.3c-1.1,3.2-2.8,1.5-4.2,0.6
			C129.3,448.7,127.7,446,127.8,442.4z M155.4,549.7c0.3,0,0.9-0.1,1.5,0c7.1,0.9,11.3,6.6,9.4,12.7c-1.9,6.1-9.9,9.1-15.3,5.9
			c-1.1-0.6-2.7-2.2-3.4,0.2c-0.8,2.5-2.4,1.8-3.9,1.4c-0.8-0.2-1.5-1.1-2.3-1.5c-1.9-1-3.9-3.4-5.7,0.2c-0.5,1-1.7,0.2-2.5-0.2
			c-3.9-2-5.8-5.7-5.3-10.2c0.4-3.9,3.4-7.2,7.4-8.2c0.4-0.1,1.1-0.8,1.2,0.1c0.5,3.7,2.6,1.5,4,1c1.2-0.4,2.1-1.7,3.3-2.2
			c1.4-0.6,3.5-1.7,3.9,0.8c0.4,2.7,1.6,1.9,2.8,1.2C151.8,550.1,153.3,549.4,155.4,549.7z M204.2,394.4c1.6-0.1,2.3-0.2,3-0.2
			c7.8-0.1,15.6-0.3,23.4-0.3c13.8-0.1,27.6-0.1,41.5-0.2c4.4,0,6.3,1.9,6.5,6.3c0.1,3.4-0.3,3.8-3.8,3.8c-7.8,0-15.6,0.2-23.3,0.1
			c-9.2-0.2-18.5,0.6-27.6-0.7C216.8,402.2,210.8,398.4,204.2,394.4z M676.4,563.2c-0.1,0-0.1,0-0.2,0c0-5.1,0-10.2,0-15.4
			c0-1-0.1-1.9,1.2-1.9c4.7,0,9.4-0.6,14.1,0.6c2,0.5,3.1,1.8,3.2,3.9c0.1,8,0.4,16,0.4,23.9c0,4.6-1.5,6.1-6.3,6.3
			c-3.5,0.2-7,0-10.5,0.1c-1.6,0-2.1-0.6-2-2.2C676.5,573.5,676.4,568.3,676.4,563.2z M204.4,606.7c1.1-1.8,2.8-2.2,4.2-2.9
			c6.9-3.9,14-7.1,22.3-6.7c10.4,0.4,20.7,0.1,31.1,0c4.4,0,8.8-0.3,13.2-0.5c1.9-0.1,2.7,0.6,2.9,2.6c0.3,4.6-1,7.7-7.6,7.6
			c-15.3-0.2-30.6,0-45.9,0C217.9,606.7,211.3,606.7,204.4,606.7z M778.4,587.9c0,4.3-0.1,8.6,0,12.9c0,2.3-1.1,2.8-3.1,2.8
			c-2.1,0-2.6-1-2.6-2.9c0-5-0.1-10-0.2-15.1c0-14.4,0-28.8-0.1-43.1c-0.1-12.4-0.4-24.8-0.5-37.2c0-1.4-0.3-3.1,2.1-2.9
			c1.9,0.1,3.5,0.2,3.3,3c-0.2,3.9,0.1,7.8,0.2,11.7C778.1,540.7,777.5,564.3,778.4,587.9z M566.4,640.3c0,0.1,0,0.2,0,0.3
			c-19,0-38,0-57,0c-1.2,0-2.5,0.1-3.7-0.2c-1-0.3-2.8-0.5-2.5-2.1c0.2-1.5,1.7-1.1,2.8-1.2c13.3-0.9,26.6-0.1,39.9-0.4
			c17.5-0.4,34.9-0.1,52.4-0.2c10.1,0,20.1-0.1,30.2-0.2c1,0,2.2-0.3,2.5,1.1c0.2,1.4-1,1.7-1.9,2.1c-1.7,0.8-3.6,0.8-5.4,0.8
			C604.6,640.3,585.5,640.3,566.4,640.3z M536,381.7c-2.2,0.7-3.2,2.7-2.9,4.3c0.3,1.7,2.6,0.9,4,0.9c7.9,0.1,15.8,0,23.7-0.1
			c1.4,0,2.2,0.2,2.2,1.7c0,2.9,0.1,5.7,0.1,8.6c0,2.7-1.5,4.2-4.2,4.2c-7.6,0.1-15.2,0.1-22.8,0c-2.4,0-3.9-1.3-3.9-3.8
			c-0.1-4.2-0.1-8.4,0-12.6C532.3,382.6,533.5,381.4,536,381.7z M142.8,335.6c-0.4-5.5-0.1-5.9,3.3-5.8c11.2,0.3,22.5,0,33.8,0.2
			c14.4,0.3,28.9-0.2,43.3-0.2c6.2,0,6.1,0.2,6.1,6.4c0,2.4-0.9,3-3.1,3c-6.2-0.1-12.3,0-18.5,0c-1.4,0-3.2,0.5-2.5-2.2
			c0.3-1-1.1-1.9-2.4-2c-1.4-0.1-2.9-0.2-4.3-0.2c-1.6,0-2.7-0.2-3.1-2.1c-0.4-2.4-2.6-1.4-4.1-1.6c-1.5-0.1-2.7,0.3-2.7,2.1
			c-0.1,2.2-1.5,2.3-3.2,2.3c-1.6,0-2.8-0.3-2.9-2.3c-0.1-3-2.3-2.4-4.3-2.5c-2-0.1-2.8,0.6-2.7,2.6c0.1,2.4-1.5,2.4-3.3,2.5
			c-1.8,0.1-3.3,0-3.5-2.3c-0.1-1.3,0.3-3.3-2.1-2.8c-1.8,0.4-4.9-1.2-4.7,2.8c0.1,1.6-0.9,2.5-2.6,2.3c-1.4-0.1-3.3,0.6-3.7-1.7
			c-0.2-1.6-0.3-3.2-2.5-3c-1.9,0.1-4.3-0.7-4.7,2.4c-0.1,1-1,1.1-1.8,1.3C145.4,335,144.2,335.3,142.8,335.6z M398.8,532.2
			c2.4-2.3,2.7-5,2.7-7.8c-0.1-16.4-0.1-32.8-0.1-49.2c0-2.1-0.1-4.1-1.4-5.9c-0.7-1-0.7-1.6,0.7-1.9c0.8-0.2,1.5-0.7,2.2-1.1
			c2.4-1.4,3.7-0.8,4.3,1.9c0.2,1.1,0.2,2.2,0.2,3.4c0.2,15.2,0.4,30.4,0.4,45.6c0,4.6,0.9,9.2-0.6,13.7c-1.1,3.3-2.6,3.8-5.7,2.2
			C400.8,532.9,400,532.7,398.8,532.2z M588.6,348.4c0,2.1,0,4.1,0,6.2c0,1.8-1.4,1.8-2.6,1.8c-0.9,0-2.1,0.3-2-1.2
			c0.3-3.5-2.3-2.8-4.1-2.8c-1.9,0-4.2-0.4-4.2,2.9c0,2.3-2,1.4-3.3,1.5c-1.2,0.1-2.8,0.5-2.8-1.4c0-2.3-1.2-3.1-3-2.7
			c-2.2,0.5-5.7-2-6.3,2.6c-0.1,0.8-0.5,1.3-1.3,1.4c-0.9,0-1.9-0.2-1.9-1.1c-0.2-2.3-1.4-4.3-1.4-6.6c0-4.4-0.1-8.8,1.8-12.9
			c0.4-0.9,0.9-1.3,1.8-1.4c1.3-0.1,1.6,0.7,1.6,1.7c-0.1,1.5,0.5,2.2,2,2.4c5.4,0.6,5.4,0.7,5.4,6.1c0,0.9-0.1,1.8-0.1,2.8
			c-0.1,4.1-0.1,4.1,4.1,4.1c0.7,0,1.4,0,2.1,0.2c1.9,0.4,2.7-0.5,2.7-2.3c0-2.3,0-4.5,0-6.8c0-4.1,0.1-4.1,4.1-4
			c1.7,0,3.2,0,2.8-2.4c-0.2-1.2,0.3-2,1.7-2c1.3,0,2.2,0.4,2.2,1.9C587.9,340.4,589.1,344.4,588.6,348.4z M526.3,646.2
			c0,0.2,0,0.3,0,0.5c-1.5,0-3.1,0-4.6,0c-5.2,0-10.5,0.1-15.7,0c-1.1,0-2.8,0.4-2.7-1.6c0.1-1.8,1.6-1.5,2.8-1.6c0.1,0,0.2,0,0.3,0
			c11.4-0.1,22.7-0.2,34.1-0.2c22.7-0.1,45.4,0,68-0.1c8.2,0,16.4,0.3,24.6-0.5c0.6-0.1,1.3,0,1.5,0.7c0.2,0.7-0.4,1.6-0.7,1.5
			c-2.1-0.9-3.4,1.4-5.4,1.2c-3.4-0.2-6.8,0.1-10.2,0.1c-5.7,0-11.5-0.1-17.2-0.1c-5.7,0-11.5-0.2-17.2,0
			c-5.6,0.2-11.1-0.3-16.7-0.1C553.6,646.4,539.9,646.2,526.3,646.2z M776.1,426.3c0.2,0,0.4,0,0.6,0c0,10.3,0,20.5,0,30.8
			c0,1.9-0.5,2.8-2.6,2.9c-2,0-2.8-0.7-2.7-2.7c0.4-20.5-0.7-41-0.7-61.5c0-1.9,0.6-2.8,2.6-2.8c2,0,2.8,0.7,2.8,2.7
			C776,405.9,776.1,416.1,776.1,426.3z M535.2,498.4c0-1.5-0.1-3.1,0-4.6c0.4-4.3,3.8-8.3,7.8-9.3c3.9-1,4.8-0.3,4.8,3.5
			c0,0.9,0.1,1.8,0,2.8c-0.2,2.8,1.2,3.9,3.9,3.9c0.7,0,1.4,0,2.1,0c1.9-0.1,2.4,1.4,3,2.6c0.7,1.5-0.7,1.9-1.6,2.5
			c-3.8,2.3-5.6,5.6-5.4,10c0,0.9,0,1.8-0.1,2.8c-0.1,1.4-1,1.6-2.2,1.6c-1.1,0-1.8-0.5-1.8-1.6c0-1,0-2-0.1-3.1
			c-0.1-3.7-0.7-4.4-4.3-4.4C534.1,505,535.3,505.4,535.2,498.4z M535.3,555.7c0-1.2,0-1.8,0-2.4c0-4.3,0-4.3,4.4-4.1
			c0.1,0,0.2,0,0.3,0c4.8-0.1,6.6,0,5.8-5.5c-0.1-0.5,0-1,0.1-1.5c0.4-1.7,2.1-1.6,3.2-1.8c1.1-0.2,0.9,1.2,1,2.1
			c0,0.6,0.1,1.2,0.1,1.8c-0.2,4.6,1.3,8.3,5.5,10.4c1.3,0.7,1.7,1.7,1.5,3c-0.3,1.8-1.8,1.4-2.9,1.4c-5.7,0.2-6.1,0.7-6,6.2
			c0.1,4.5-0.8,5.3-5.2,4c-0.9-0.3-1.7-0.7-2.5-1.2C535.6,565.1,535.1,560.2,535.3,555.7z M397.1,337.9c-0.3-0.1-0.5-0.1-0.8-0.2
			c0.1-0.7,0.5-1.4,0.3-2.1c-0.5-2.1-2.4-2.2-4-2c-2.3,0.3-6.1-1.6-6.7,1.8c-0.5,3.2-2.4,3-4.1,2.9c-6.4-0.4-12.9,0.1-19.3,0.1
			c-8.1,0-6.5,0.9-6.7-6.9c-0.1-1.8,0.6-2.6,2.5-2.6c12.2,0,24.4,0,36.7,0c0.9,0,2.1-0.1,2.3,1C397.6,332.6,397.9,335.3,397.1,337.9
			z M606.8,532.6c9,6.7,19.1,8.3,29.3,9.3c-2,0.1-4.1,0.2-6.1,0.1c-6.7-0.3-8.9,1.8-8.6,8.7c0.1,2.8,0,5.6,0,8.5
			c-1.6-2.2-3.7-3-6.2-2.8c-2,0.1-4.1,0.1-6.1,0.2c-1.3,0-2.2-0.4-2.2-1.9C606.8,547.6,606.8,540.4,606.8,532.6z M436.7,525.7
			c1.2,0,1.4,0.6,1.5,1.3c0,3.2,0.8,6.2,0.8,9.4c0,12.7,0.3,25.4,0.4,38.1c0.1,5.9,0,11.7,0,17.6c0,2.3-2,4.5-0.1,7
			c0.6,0.8,0.5,1.9,1.8,2.1c1.2,0.1,1.9-0.5,2.2-1.6c0.2-0.6,0.5-1.2,1.3-1c0.3,0.1,0.8,0.5,0.8,0.8c0.1,4,1.2,8.2-0.4,11.9
			c-1.7,4.1-4.9,7.5-8,10.9C438.2,589.9,436.3,557.8,436.7,525.7z M594.3,484.2c4.5-0.1,9.2,4.4,9.6,9.3c0.3,3,0.1,5.9,0.2,8.9
			c0.1,1.9-0.8,2.4-2.6,2.5c-6.3,0.3-6.3,0.4-7.3,6.9c-0.2,1.1-0.5,1.7-1.7,1.8c-1.3,0-1.2-1-1.1-1.7c0.3-5.7-1.4-10.3-6.9-12.9
			c-1.4-0.7-1.3-2-1-3.2c0.2-1.2,1.1-1.2,2.1-1.3c6.3-0.4,6.3-0.5,6.5-7c0-0.3,0-0.6,0-0.9C591.9,484.7,592.8,484.1,594.3,484.2z
			 M663.3,483.1c-0.3,5.1-0.4,9.6-0.8,14.1c-0.3,3-1.1,6-1.7,9.1c-0.5,2.7-2.7,1.6-4.3,1.7c-2,0-1.2-1.5-1.1-2.5
			c2-16.2,1.8-32.3-1-48.3c-0.1-0.7-0.6-1.3,0.5-1.7c1.9-0.7,4.2,0.2,4.7,2.2C662.1,466.1,662.6,474.9,663.3,483.1z M604.6,555.4
			c0.2,1.8-0.1,4.2-0.7,6.6c-0.8,3.6-4.5,6.8-8,7.2c-2.1,0.2-3.6-0.1-3.4-2.9c0.1-2.1,0.7-4.4-0.7-6.3c-1.6-2.1-4-0.8-6-1
			c-1.3-0.1-1.6-0.9-2-1.9c-0.5-1.2,0.1-1.7,1-2.1c5.1-2.2,6.9-6.4,6.6-11.7c-0.1-1.1-0.5-2.8,1.3-2.9c1.8,0,1.4,1.7,1.5,2.8
			c0.2,5.6,0.3,5.6,5.9,5.6c4.5,0,4.5,0,4.5,4.6C604.6,553.9,604.6,554.3,604.6,555.4z M648.7,563.5
			C648.7,563.5,648.7,563.5,648.7,563.5c0-4.9,0-9.8,0-14.8c0-3.6,2.5-3.3,4.9-3.5c2.5-0.2,3.6,0.7,3.3,3.3c-0.2,2.3,0.1,4.7,0,7
			c-0.1,2.3,0.6,3.5,3.2,3.2c1.2-0.1,2.3,0,2.4,1.7c0,1.6-1.1,1.9-2.3,1.8c-2.7-0.2-3.4,1.2-3.2,3.6c0.1,1.1,0.3,2.3-1.3,3.1
			c-2.6,1.2-2.5,4.3,0,6c1.5,1,2.1,5.7,0.6,6.5c-1.8,1-3.8,0.7-5.7,0.1c-1.6-0.5-1.9-1.9-1.9-3.5
			C648.7,573.1,648.7,568.3,648.7,563.5z M329.6,598.6c-9.7,0.1-9.7,0.1-9.5-9.6c0-0.1,0-0.2,0-0.3c0.1-3.5,0.9-4.5,4.3-4.6
			c3.4-0.1,6.8,0,10.2,0c2.5,0,3.5,1.3,3.6,3.6c0.1,2.8,0,5.5,0,8.3c0,1.8-0.7,2.6-2.5,2.6C333.7,598.5,331.7,598.6,329.6,598.6z
			 M661.6,552.7c-0.2-1.1,0.5-1.4,1-1.5c3.2-0.6,6.5-0.7,9.8-0.1c1.4,0.3,2.3,1.5,2.3,2.9c0.1,5.5,0.1,11.1,0.1,16.6
			c0,1.4-0.9,2.6-2.3,2.9c-2.7,0.6-5.4,0.5-8-0.3c2.6-1.7,5.5-0.3,8.9-0.8c-2.1-1.7-4-1.8-5.7-1.5c-2.8,0.4-4.4-1.5-6-3
			c-1-0.9-1.3-3,0.6-4.2c2.7-1.7,2.8-4.5,0-6.4c-0.6-0.4-1.2-0.8-1.1-1.6c0.1-1.1,1-1.3,1.8-1.3c2.2,0,4.3,0,6.5-0.1
			c1.2,0,2.6,0,3.3-1.9C668.8,553,665.2,553.2,661.6,552.7z M329.9,401C329.9,401,329.9,401,329.9,401c2.3,0,4.5,0,6.8,0
			c1.6,0,2.2,0.6,2.1,2.2c-0.2,3-0.3,5.9-0.4,8.9c0,2.4-1.1,3.3-3.5,3.2c-2-0.1-4.1,0.2-6.1,0.1c-9.3-0.2-8,1-8.2-8.3
			c-0.1-7.4-0.1-5.9,5.8-6.1C327.6,401,328.8,401,329.9,401z M602.6,567.7c0,6.4,0,12.4,0,18.4c0,1.1-0.2,1.7,1.3,1.6
			c4.1-0.1,8.2,0.1,12.3,0.1c2.2,0,3.4-1.1,3.4-3.4c0-6.9,0-13.7,0-20.6c0-2.4-1.2-3.5-3.6-3.5c-2.7,0.1-5.3,0-8,0
			c-0.6,0-1.4,0-1.3-0.8c0-0.8,0.8-0.8,1.4-0.8c2.3,0,4.5,0,6.8,0.1c4,0.1,5.2,1.2,5.2,5.1c0.1,6.7,0.1,13.3,0,20
			c0,3.9-1.1,4.9-5,4.9c-6.1,0.1-12.3,0.2-18.4,0.2c-2.9,0-4.5-1.6-4.6-4.6c-0.1-3.4,0-6.8,0-10.2c0-1.5,0.5-2.4,2-2.5
			C597.2,571.6,599.8,570.1,602.6,567.7z M592.6,365.2c2.6,0,5.1,0,7.7,0c1.6,0,2.5,0.5,2.5,2.3c0,3,0,6,0,8.9c0,1.4-0.4,2.3-2,1
			c-2.2-1.7-4.8-1.9-6.9-0.5c-1.9,1.3-3.8,1.3-5.8,1.4c-5,0.3-5,0.2-5.2-4.7c0-0.9-0.1-1.8-0.1-2.8c0-6.4-0.6-5.7,5.8-5.7
			C589.9,365.2,591.2,365.2,592.6,365.2z M437.6,405.5c1.6,1.7,1.2,3.1,1.2,4.3c0.1,20.4,0.1,40.9,0.1,61.3c0,7.4-0.2,14.8,0,22.2
			c0.1,2.2-1.9,4.2-0.9,6.2c1.5,3.5,1,7.1,0.8,10.6c-0.1,2,0.1,4.5-1.7,6.3C436.6,479.6,436.4,442.9,437.6,405.5z M149.6,646.7
			c-0.1-0.2-0.2-0.4-0.2-0.6c7.6-5.6,15.2-11.2,22.9-16.8c1.4-1,1.5,0.2,1.6,1.2c0.1,4.7,0.2,9.4,0.3,14.1c0,1.1-0.2,2.1-1.6,2.1
			C164.9,646.7,157.2,646.7,149.6,646.7z M149.1,356.2c0.1-0.3,0.2-0.5,0.3-0.8c7.1,0,14.3,0,21.4,0c1.2,0,2.5,0.1,2.6,1.6
			c0.2,5.4,0.6,10.8-0.2,16.6C165,367.6,157.1,361.9,149.1,356.2z M280.3,407.9c-0.8-4.5,0.6-8.8-1.3-12.8c-0.3-0.6,0.4-1.1,1-1.3
			c2.3-0.9,3.9,0.2,4,2.8c0.1,1.7,0.2,3.5,2.5,3.5c4.7,0,9.4-0.1,14,0.9c1,0.2,2.2,0.2,3-0.1c4.1-1.7,8.3-0.6,12.5-0.9
			c1.8-0.1,2.9,0.4,2.9,2.5c0,2.1-1,2.5-2.9,2.5c-8.7,0-17.4,0.1-26.2,0.1C286.5,405,283.2,405,280.3,407.9z M409.8,607.7
			c0.1-0.2,0.1-0.5,0.2-0.7c7.4,0,14.8,0,22.2,0c1.5,0,2.3,0.6,2.3,2.1c0,5.1,0,10.3,0,15.8C426.1,619,417.9,613.3,409.8,607.7z
			 M535.1,508.6c0.9-2.2,2.4-1.9,3.5-1.9c1.6,0.1,4-1.3,4.6,1.5c0.4,2.2,1.6,4.9-1.9,6.2c-1.2,0.4-1.3,1.7-1.3,2.9
			c0,6.3,0,12.5,0.1,18.8c0,1.1,0,2.7,1.1,3c3.1,0.8,2.3,3,2.4,5.1c0.2,2.5-0.5,3.6-3.2,3.5c-4.9-0.1-5-0.1-5-3.6
			c0-8.9-0.1-17.9-0.1-26.8c0-1.4-0.5-3.3,2.2-2.4c0.9,0.3,1.6-0.6,2.1-1.5c0.8-1.4,0.6-2.7-0.2-4.1
			C538.5,507.6,536.9,508.3,535.1,508.6z M584.8,569.6c-10.7,0-21.3,0-31.8,0c-0.9,0-2,0.3-2.6-0.4c-1.3-1.7-0.5-3.7-0.6-5.6
			c0-1.1,0.7-1.7,1.8-1.6c1.8,0.1,3.9-0.9,5.5,0.9c0.1,0.1,0.2,0.4,0.2,0.6c0.6,1.4,1.7,1.6,3,1.6c6.5,0,12.9,0,19.4,0
			c1.2,0,2.4-0.1,2.8-1.4c1.4-4,4.8-1.9,7-1.8c2.5,0.1,1.1,2.7,1.6,4.5c-2.2-1.3-4.1-2.2-6.2-0.7
			C583.5,566.7,584.1,568.1,584.8,569.6z M410.4,391.5c-0.1-0.2-0.1-0.4-0.2-0.7c7.2-5,14.4-10.1,21.6-15.1c1.5-1,2-0.4,2,1.1
			c0.1,4.3,0.3,8.6,0.5,12.8c0.1,1.3-0.7,1.8-1.9,1.8C425.1,391.5,417.8,391.5,410.4,391.5z M151,570.5c7.2,2,13.9-1,16.6-7.1
			c0.4-0.9,0.7-1.6,1.9-1.6c1.4,0,2-0.8,2.1-2.2c0-1.3-0.4-2.3-1.8-2.4c-1.1-0.1-1.7-0.6-2.1-1.5c-2.2-5.5-6.9-7.5-12.1-8
			c-2.7-0.3-1.9-1.7-2.2-3c-0.4-1.9,1.2-1.3,1.7-1.1c1.3,0.3,3.7-1.3,3.6,1.7c0,1.2,0.1,2.1,1.3,2.4c1.2,0.3,2.1-0.1,2.5-1.2
			c0.6-1.6,1.5-1.2,2.6-0.4c5.5,4.1,7.6,9.7,6.7,16.2c-0.8,5.9-4.2,10.3-10.1,12.9c0.3-1.6,0.7-3.1-1-3.9c-0.9-0.4-1.6,0-2.2,0.7
			c-1.1,1.4-0.4,2.6,1.1,3.7c-6.1,0-11.7,0-17.7,0c0.9-1.4,1.6-2.6,0.7-4.1c1.2,0.1,2.1,0.1,3,0.1c1.6,0,3.6-1.1,3.3,2.1
			c-0.1,0.8,1,1.6,2.1,1.4c1.1-0.2,1.4-1,1.5-2.1C152.5,572.1,151.9,571.4,151,570.5z M418.4,448.5c2.4,0,4,0.1,5.6,0
			c2.3-0.1,2.5,1,1.6,2.6c-1.7,3.2-3.5,6.5-5.3,9.7c-0.8,1.4-2.2,2.1-3.9,2.1c-3.2,0-6.4,0-9.5,0.1c-1.7,0-2.4-0.4-1.4-2.1
			c1.3-2.3,2.7-4.6,3.8-7C411.2,449.3,414.2,447.3,418.4,448.5z M582.7,527.6C582.7,527.6,582.7,527.6,582.7,527.6
			c0-2.9,0-5.8-0.1-8.6c-0.1-2,0.8-2.9,2.8-2.7c2.1,0.2,4.7-1,5.5,2.3c0.2,0.7,1.2,0.7,1.9,0.8c0.8,0.1,1.7,0.1,1.8,1.3
			c0.1,1.3-0.9,1.5-1.8,1.5c-2,0-2.3,1.2-2.4,2.8c0,1.8,0.6,2.7,2.5,2.5c0.8-0.1,1.5,0.2,1.6,1.1c0.1,1.1-0.6,1.5-1.5,1.5
			c-2,0-2.6,1-2.6,2.9c-0.1,2.1,0.8,3,2.9,3c1,0,1.5,0.6,1.4,1.6c-0.1,1.1-1,0.9-1.6,0.9c-2.5,0.1-4.9,0.1-7.4,0.2
			c-2.1,0.1-3-0.8-3-2.9C582.8,533.2,582.7,530.4,582.7,527.6z M280.3,592.2c2.8,3,5.9,3,9.2,3c7.8-0.1,15.6-0.1,23.4-0.1
			c1.3,0,2.7,0,4,0.1c1.5,0.1,1.8,1.1,1.8,2.4c0.1,1.3-0.4,1.9-1.7,1.9c-1.4,0-2.9,0-4.3,0.2c-4.3,0.7-8.6-1.7-12.7-0.8
			c-4.3,0.9-8.5,0.8-12.8,1c-2,0.1-3.1,0.9-3.1,3c0,0.8,0,1.7-0.2,2.5c-0.4,1.8-1.8,1.3-3,1c-0.8-0.2-2.7,0.1-2.1-1.4
			C280.6,601,279.5,596.9,280.3,592.2z M570.3,506.1c-2.9,0-5.7,0-8.6,0c-1,0-2.4,0.1-2.6-1.1c-0.3-1.7-0.3-3.4-0.3-5.2
			c0.1-1.3,1.3-1.3,2.3-1.6c1.1-0.3,1.1-1.3,1.2-2.3c0.1-0.8,0.1-1.8,1.3-1.7c0.9,0,1.2,0.8,1.1,1.5c-0.2,2,0.9,2.4,2.6,2.5
			c1.7,0.1,2.8-0.4,2.9-2.3c0.1-0.8,0.1-1.8,1.2-1.8c1.1,0,1.4,0.8,1.3,1.7c-0.1,2.1,1.2,2.5,3,2.5c1.9,0,3-0.6,2.8-2.7
			c-0.1-0.8,0.2-1.4,1.1-1.5c1.1-0.1,1.4,0.7,1.4,1.6c0,2.7,0.6,5.3,0.4,8c-0.1,1.9-0.9,2.4-2.7,2.4
			C576,506.1,573.2,506.1,570.3,506.1z M444.9,451.4c0,0,0.1,0,0.1,0c0,14.2,0,28.3,0,42.5c0,0.9,0.5,2.4-1,2.4
			c-1.4,0-1.1-1.4-1.2-2.4c0-0.4,0-0.8,0-1.2c0-26.4,0-52.7,0-79.1c0-1.8,0.1-3.7,0.1-5.5c0-0.7,0.1-1.3,0.9-1.3
			c0.8,0,1,0.6,1.1,1.2c0,0.7,0,1.4,0,2.2C444.9,423.9,444.9,437.7,444.9,451.4z M419.4,550.8C419.4,550.7,419.4,550.7,419.4,550.8
			c-1.9-0.1-3.9-0.1-5.8-0.1c-0.8,0-1.4-0.3-1.8-1c-2.1-3.6-4.3-7.2-6.4-10.8c-0.9-1.5-0.7-2.3,1.2-2.2c3.2,0,6.4-0.1,9.5,0
			c2.1,0.1,3.7,1,4.8,2.9c1.7,3,3.4,6.1,5.2,9c1.1,1.8,0.1,2.1-1.4,2.1C422.9,550.8,421.1,550.8,419.4,550.8z M569.9,547.7
			C569.9,547.6,569.9,547.6,569.9,547.7c2.7-0.1,5.3,0,8-0.1c1.4,0,3-0.4,3.1,1.5c0.1,2,1.4,4.5-1.2,5.7c-1.4,0.6-1.9,1.4-1.9,2.7
			c0,1-0.2,2-1.4,2c-1,0-1.3-1-1.2-1.8c0.2-2.5-1.4-2.4-3.2-2.5c-2.1-0.1-2.5,0.9-2.2,2.7c0.1,0.9-0.2,1.7-1.3,1.8
			c-1.1,0.1-1.4-0.7-1.4-1.6c0.1-1.9-0.6-2.8-2.6-2.8c-1.8,0-3.3,0.2-3.3,2.5c0,0.9-0.4,1.7-1.5,1.6c-1-0.1-1.2-0.9-1.3-1.8
			c0-2.4,0-4.7-0.1-7.1c-0.1-2,0.8-2.8,2.7-2.8C564.2,547.7,567.1,547.7,569.9,547.7z M557.2,527c0.1,0,0.3,0,0.4,0
			c0,3.1,0,6.1,0,9.2c0,0.9-0.2,1.8-1.2,1.8c-1.9,0.1-3.9,0.2-5.8,0c-1.3-0.1-0.9-1.6-1.3-2.5c-0.3-0.8-1.1-0.8-1.8-1
			c-0.7-0.1-1.5-0.1-1.6-1.1c-0.1-1,0.7-1.2,1.5-1.2c2.3,0,2.2-1.5,2.4-3.1c0.2-2.1-1.1-2-2.5-2.1c-1-0.1-1.5-0.5-1.6-1.5
			c-0.1-1,0.5-1.3,1.3-1.3c2,0,3-0.9,3-3c0-2.2-1-2.9-3-2.9c-1,0-1.6-0.6-1.4-1.6c0.2-0.9,0.8-1,1.6-1c2.3,0,4.7,0,7-0.2
			c2.3-0.2,3.1,0.9,3,3.1C557.2,521.5,557.2,524.2,557.2,527z M549.5,487.9c3.2,0.9,6.3,1.8,6.7-2.9c0.1-0.9,1.1-0.7,1.8-0.7
			c10,0,20.1,0,30.1,0c0.8,0,1.6,0,2.1,0.9c0.6,1.2,0.2,5.9-0.7,6.4c-1.6,1-5.4,0.2-6.7-1.6c-0.9-1.2-2-1.7-3.4-1.7
			c-6.2,0.1-12.5,0.1-18.7,0.2c-1.5,0-2.5,0.5-3.4,2c-1.6,2.7-4.5,1.4-6.7,1.2C548.7,491.5,549.6,489.5,549.5,487.9z M604.3,546.3
			c-2.1,1.9-4.4,1.2-6.7,0.8c-0.3,0-0.6-0.7-0.6-1c0.2-2.2-1.5-5,2-6.3c1.3-0.5,1.5-2.1,1.5-3.5c-0.1-6.1-0.3-12.3-0.4-18.4
			c0-0.9,0.1-2.2-0.8-2.5c-3.4-1.3-2.4-4.1-2.5-6.5c-0.1-2.8,1.8-2.5,3.6-2.5c1.7,0,3.6-0.4,3.7,2.4c0.1,9.4,0.3,18.8,0.5,28.3
			c0,1.1,0,2.2-1.4,2.3c-2.2,0.2-3.1,1.2-2.9,3.4C600.4,545.3,602.1,546,604.3,546.3z M719.9,626.3
			C719.9,626.3,719.9,626.3,719.9,626.3c0,6.1,0,12.3,0,18.4c0,1.2,0.1,2.9-1.8,2.3c-1.8-0.5-3.3-1.5-3.2-3.9
			c0.5-11.6,0.5-23.3,0.4-34.9c0-1.7-0.1-3.3,2.4-3.3c2.4,0.1,2.2,1.6,2.2,3.2C719.9,614.2,719.9,620.3,719.9,626.3z M490,345.4
			c0,0.5,0,1,0,1.5c0.1,5.3,0.1,5.3-5.3,5.6c-1.3,0.1-2.5,0.1-2.7,1.8c-0.1,1,0,2.2-1.6,2.1c-1.4-0.1-1.9-0.9-2-2.2
			c-0.6-6.2-2.3-12.4,0.7-18.4c0.4-0.7,0.6-1.3,1.4-1.3c1.1,0,1.8,0.5,1.8,1.6c0,1.9,1,2.4,2.7,2.5c4.8,0.3,4.8,0.4,4.8,5.2
			C490,344.4,490,344.9,490,345.4z M660.5,646.5c0-4,6.6-10.5,10.7-10.6c1,0,1.3,0.4,1.3,1.2c0,6.6,0,13.1,0,19.7
			c0,1.1-0.6,1.3-1.6,1.2C666.3,657.3,660.4,650.8,660.5,646.5z M604.8,574.9c-0.1,0-0.1,0-0.2,0c0-2.9,0-5.7,0-8.6
			c0-1,0.2-2,0.8-2.9c1.6-2.5,4-1.6,6.1-1.5c2.3,0.1,1.4,2,1.4,3c0,6.3-0.2,12.7-0.3,19c-0.1,3.3-2.6,2.2-4.3,2.3
			c-1.8,0.1-3.6,0.3-3.6-2.4C604.9,580.8,604.8,577.9,604.8,574.9z M510.5,348c-0.1,0-0.1,0-0.2,0c0,2.3,0,4.5,0,6.8
			c0,1.2-0.4,1.9-1.8,1.9c-1.1-0.1-2.7,0.1-2.7-1.3c0-3.6-2.4-3.3-4.6-3.1c-1.9,0.1-2.5-0.6-2.4-2.5c0.2-2.6,0.2-5.1,0.1-7.7
			c-0.2-2.7,1-3.6,3.5-3.1c2.1,0.4,3.5,0.2,3.4-2.4c-0.1-1.6,0.8-1.8,2.1-1.9c1.6-0.1,1.8,0.8,1.9,2.1
			C509.9,340.4,510.2,344.2,510.5,348z M723.6,502.7C723.6,502.7,723.6,502.7,723.6,502.7c3.4,0,6.8,0,10.2,0.1
			c0.8,0,1.9-0.4,2.2,0.5c0.4,1.1-0.8,1.5-1.4,2.1c-0.2,0.2-0.5,0.3-0.8,0.5c-7.4,3.8-15.6,4.8-23.5,6.9c-1.2,0.3-2.4-0.5-3.1-1.6
			c-0.8-1.1,0.2-1.8,0.7-2.7c0.7-1,1.3-2.1,1.7-3.3c0.6-1.9,1.7-2.6,3.6-2.5C716.6,502.8,720.1,502.7,723.6,502.7z M710.8,645.5
			c0,0.2-0.1,0.4-0.1,0.5c-8.9,0-17.8,0.1-26.7,0c-7.8-0.1-6.8,1.3-7-7.1c-0.1-2.4,0.7-3.1,3-2.4
			C690.2,639.6,700.5,642.6,710.8,645.5z M414,378.7c-0.3-0.1-0.5-0.1-0.8-0.2c0-6.7,0-13.5,0-20.2c0-1.8,1.1-1.4,2.1-0.7
			c2,1.4,4.5,1.5,6.1,0.4c1.8-1.2,3.5-0.8,5.2-0.9c2.4-0.1,2.7,1.3,1.4,2.9C423.4,366.3,418.7,372.5,414,378.7z M434.9,641.7
			c-0.2,0.1-0.4,0.2-0.7,0.3c-7.5-9.7-15-19.5-22.5-29.2c7.5,4.6,14.8,9.5,22,14.5c0.7,0.5,1.2,1.1,1.2,2
			C434.9,633.4,434.9,637.5,434.9,641.7z M586.7,424.1c-0.3,0-0.6,0-0.9,0c-2.2-0.2-3.8-1.4-5.2-2.9c-1.4-1.5,0.9-1.9,0.9-3.1
			c0-1.5,0.5-3.1-0.8-4.3c-1-1-0.7-1.7,0-2.6c2.9-3.6,8.8-3.7,11.9-0.3c0.8,0.9,1.4,1.5,0.1,2.7c-1.5,1.4-1.8,3.7-0.1,4.8
			c2.1,1.5,0.8,2.4-0.1,3.3C590.9,423.3,589,424.2,586.7,424.1z M412.2,386.1c1.8-4,4.4-6.5,6.5-9.3c4.1-5.5,8.2-10.9,12.4-16.4
			c0.5-0.7,1-1.9,2-1.6c1.1,0.3,0.7,1.5,0.8,2.4c0.4,2.5-0.2,5.1,0.3,7.6c0.2,0.9,0,2-1,2.7C426.4,376.3,419.6,381,412.2,386.1z
			 M735.8,460c-7.4,0-14-0.3-20.6,0.1c-3.9,0.2-6.7-0.4-7.8-4.6c-0.3-1.1-2-1.9-0.8-3.2c1-1.1,2.3-1.4,3.9-1
			c5,1.3,10.2,2.3,15.2,3.7C729,456,732.5,456.7,735.8,460z M521.9,476.9c-1.6,0.6-3.6-0.3-3.6,1.9c0,1.6,0,3.3,0.3,4.9
			c0.4,1.9,2.9,0.4,3.8,2.2c-1.6,0.9-4.6,0-4.2,3.5c0.4,3.8,0.1,3.8,4.8,5.7c-3.2,0.3-4.8,1.4-5.1,4.4c-0.1,1.4-2.2,1.1-3.4,0.6
			c-2.1-0.8-2.3-2.8-2.4-4.6c-0.1-3.3-0.1-6.6,0-9.8C512,476.5,512.1,476.5,521.9,476.9z M445.1,524.8c0,2.5,0,4.7,0,6.9
			c0.1,8.8,0.4,17.7,0.5,26.5c0.1,10.7,0.1,21.3,0,32c0,1.3,0.8,3.6-1,3.6c-2,0.1-1.2-2.2-1.2-3.5c-0.1-18.5,0.1-37.1-0.5-55.6
			C442.8,531.4,442.8,528.1,445.1,524.8z M436.7,376.9c1,1.3,2.4,2.8,3.3,4.4c1.4,2.5,4.2,4.3,4.6,7.2c0.5,3.9,0.2,8,0.3,12
			c0,0.6-0.1,1.3-0.8,1.5c-0.8,0.3-0.9-0.4-1.3-0.9c-1.3-2-2.6-1.8-3.9,0.1c-0.2,0.3-0.2,1.1-1,0.5c-0.2-2.4-0.1-4.9-2.2-6.8
			c-0.5-0.4-0.7-1.3,0.2-1.8c0.8-0.4,0.9-0.9,0.9-1.7C436.7,386.5,436.7,381.6,436.7,376.9z M395.7,455.9c0-1.9,0.1-3.7,0-5.4
			c-0.1-1.6,0.5-2,1.9-2c3.2,0.1,6.4,0.2,9.5,0c3.2-0.2,2.8,1.1,1.7,3.1c-1.7,2.9-3.3,5.9-4.9,8.8c-1.4,2.4-3.8,3.4-6.7,2.5
			c-2.5-0.7-1-2.7-1.2-4.2C395.7,457.7,395.7,456.7,395.7,455.9z M724.5,662.9c0-0.3,0-0.5,0-0.8c30.8,0,61.5,0,92.3,0
			c0,0.3,0,0.5,0,0.8C786,662.9,755.2,662.9,724.5,662.9z M410.6,550.9c-4.7-0.2-8.8,0.3-13-0.2c-1.3-0.2-2-0.4-2-2
			c0.1-2.8-0.1-5.7,0.1-8.5c0.1-1-1-2.9,0.9-3.1c2-0.2,4.6-1.4,6,0.7C405.4,541.8,407.8,546.2,410.6,550.9z M660.2,517.9
			C660.2,517.9,660.2,517.9,660.2,517.9c-4.2-0.1-8.4-0.1-12.6-0.1c-0.8,0-1.9,0.3-2.1-1.1c-0.4-2.4,1.1-4.2,3.5-4.1
			c6.2,0.4,12.4,0.8,18.6,1.3c1.9,0.2,3.6,0.3,4.7-1.8c0.5-1,1.3-1.2,2.3-0.5c0.7,0.5,2,0.1,2.2,1.3c0.3,2-2.2,4.9-4.3,5
			C668.4,518,664.3,517.9,660.2,517.9z M663.7,445.4c2.3,0,4.5,0.2,6.8-0.1c2.9-0.4,4.3,1,5.2,3.5c0.4,1.1,0.6,2-0.5,2.6
			c-1.1,0.6-2.4,1.4-3.2-0.1c-1.2-2.2-3.1-2.1-5-2c-6.3,0.4-12.7,0.8-19,1.5c-2.7,0.3-2.4-1.7-2.8-3.1c-0.5-2,1.2-1.7,2.3-1.8
			C652.9,445.7,658.3,445.2,663.7,445.4z M704.5,564.2c0.1,0,0.3,0,0.4,0c0,5.5,0,11,0,16.5c0,1.4,0.4,3-1.9,3
			c-2.1,0-1.8-1.6-1.8-2.9c0-11.2-0.1-22.3-0.1-33.5c0-1.2-0.2-2.5,1.7-2.6c2.1-0.1,1.7,1.4,1.7,2.5
			C704.5,553,704.5,558.6,704.5,564.2z M625.4,550.5c0-1.1,0-2.4,0-3.7c0.1-1.4,0.8-1.9,2.2-1.6c5.5,1.1,7.2,3,7.2,8.7
			c0,0.7-0.1,1.4,0,2.1c0.3,2.6-0.9,4.3-3.3,5.3c-1.1,0.5-2.3,0.9-3.3,1.5c-1.8,1.1-2.3,0.3-2.6-1.4
			C625.1,557.8,626,554.2,625.4,550.5z M714.1,351.9c-0.6,2-0.9,4.3,1,4.1c3.7-0.3,2.6,2,2.7,3.7c0.1,1.8,0,3.7,0,5.8
			c-1-1-1.8-2.3-3.3-1.3c-1,0.7-1.2,1.8-0.7,2.7c0.9,1.9,2.6,0.6,4.1,0.5c-0.1,1.3-0.2,2.3-0.1,3.3c0,2,0.8,4.4-2.7,4.4
			c-0.9,0-1.3,1.2-1.2,2.2c0.2,1,0.9,1.3,1.7,1.5c0.8,0.2,1.5-0.7,2.3-0.1c0,1.8,0,3.5,0,5.2c0,1.5,0.1,3.2-2.4,2.6
			c-1.2-0.2-1.9,0.7-1.8,1.9c0.1,1.2,0.7,1.9,2,1.9c0.9,0,1.4-0.8,2.1-1.4c0.3,2.4-1,2.8-2.6,2.9c-2,0.1-1.9-1.5-1.9-2.8
			c-0.2-11.4-0.4-22.7-0.6-34.1C712.8,354.1,712.7,353,714.1,351.9z M159.3,458.7c-6.4,0-12.5,0-18.5,0c-2.5,0-2.9-1.1-2.1-3.5
			c0.7,1.5,1.1,2.9,2.8,2.9c1,0,1.5-0.7,1.6-1.6c0.2-1.9,1.6-1.8,3-1.8c1.5-0.1,2.9,0,3.2,2c0.2,1.1,1.1,1.5,2.1,1.4
			c1,0,1.7-0.7,1.6-1.6c-0.3-2.5,1.3-2.4,3-2.5c4.8-0.3,9.2-1.7,11.5-6.4c1.1-2.2,2.1-3.8,4.8-3.5c-0.8,6.3-3.5,11.2-9.9,13.9
			c-0.2-1.6,0.2-3.1-1.4-3.8c-0.7-0.3-1.4-0.2-2,0.4C157.7,455.7,158.6,457,159.3,458.7z M108.9,574.1c-1.1-1.6-0.8-2.7-0.8-3.8
			c0-7.9,0.1-15.8,0.1-23.7c0.1-11.3,0.2-22.7,0.4-34c0-1.7-1-4.8,0.7-4.8c1.7,0,0.8,3.1,0.8,4.8c-0.1,18.4-0.4,36.9-0.6,55.3
			C109.5,569.8,110,571.7,108.9,574.1z M108.1,461.8c-0.1,0-0.2,0-0.4,0c0-10.6,0-21.1,0-31.7c0-0.9-0.5-2.3,0.7-2.3
			c1.5,0,1,1.5,1,2.4c0.3,5.2-0.1,10.4,0,15.6c0.3,12.2,0.1,24.4,0.2,36.6c0,3.6,0.3,7.2,0.3,10.7c0,0.9,0.3,2.5-1.1,2.5
			c-1.5,0-0.8-1.6-0.8-2.5C108,482.8,108.1,472.3,108.1,461.8z M814.6,334.4c-30.5,0.3-61.1,1.5-91.6,0.5
			C753.5,334.2,784.1,333.7,814.6,334.4z M571.5,332.9C571.5,332.9,571.5,332.9,571.5,332.9c-4.7,0-9.4,0-14.2,0
			c-0.8,0-1.8,0.1-2-0.9c-0.2-0.9,0.2-1.9,1.1-2.3c0.7-0.3,1.6-0.3,2.4-0.3c6.4-0.1,12.7-0.2,19.1-0.1c2.4,0,4.7-0.3,7.1-0.2
			c1.4,0,2.8,0.6,2.8,2.3c0,2-1.6,1.5-2.7,1.5C580.5,332.9,576,332.9,571.5,332.9z M462.2,346c0,2.9,0,5.7,0,8.6
			c0,1.3-0.4,2.2-1.9,2.3c-1.3,0.1-2.5-0.1-2.7-1.8c-0.6-5.9-1.6-11.7-0.7-17.7c0.3-2.1,1.3-2.4,3.1-2.4c2,0.1,2.2,1.4,2.2,2.9
			C462.2,340.7,462.2,343.3,462.2,346z M785,482.5c-0.1-6.2,0.4-10.6,1.5-15c0.3-1.2,1.1-2.5,2.5-2.2c1.7,0.3,0.6,1.7,0.6,2.5
			c-0.2,5.5-1.5,10.9-0.8,16.5c0.5,3.7,0.9,7.5,1.5,11.3c0.1,0.6,0.4,1.3-0.2,1.7c-0.7,0.4-1.4,0.1-2-0.3c-0.9-0.6-1.2-1.6-1.4-2.6
			C785.8,489.9,784.9,485.5,785,482.5z M198,409.9c1.2,1.7,1.3,3.6,3.1,4.8c0.6,0.4,0.5,1.7-0.3,2.5c-2.4,2.3-2,4.5,0,6.8
			c0.9,1,0.8,2.1,0,3.1c-2.1,2.4-1.8,4.8-0.1,7.1c0.7,1,0.8,1.8,0.1,2.8c-1.9,2.5-2.4,5,0.1,7.5c0.7,0.6,0.6,1.6,0,2.3
			c-2.2,2.7-2.2,5.3,0.1,7.9c0.5,0.6,0.5,1.6-0.1,2.3c-0.4,0.5-1.1,0.6-1.7,0.5c-1-0.2-1.2-0.9-1.3-1.8c0-0.7,0-1.4,0-2.2
			c0-12.7-0.1-25.4-0.1-38.2C198,413.5,198,411.7,198,409.9z M214.9,617.1c0-0.4,0-0.7,0-1.1c32.7,0,65.3,0,98,0
			C280.3,617.2,247.6,617,214.9,617.1z M455.2,348.9c0,0.3,0.1,0.6,0,0.9c-0.3,1.4,0.5,3.5-2.2,3.5c-2.7,0-2.2-1.8-2.3-3.4
			c-0.3-6.2-0.6-12.4-1.1-18.6c-0.1-1.7,0.4-2.5,2.1-2.5c1.5,0,3-0.1,2.9,2.1C454.4,336.9,454.9,342.9,455.2,348.9z M590.3,334.2
			c-0.3,0-0.5,0-0.8,0c0-1.3,0-2.7,0-4c0-1.8,1.1-1.8,2.5-1.8c1.4,0.1,2.5,0.1,2.3,2c-0.6,6.4,0.7,12.7,0.5,19.1
			c0,1.4,0.9,3.4-2,3.4c-2.6,0-2.4-1.6-2.4-3.3C590.3,344.4,590.3,339.3,590.3,334.2z M601.6,345.5
			C601.6,345.5,601.6,345.5,601.6,345.5c0,3,0,6,0,8.9c0,1.4-0.5,2.4-2.1,2.4c-1.4,0-2.2-0.6-2.4-2.2c-0.9-6-1.1-12-0.2-18
			c0.3-1.9,1.3-2.1,2.7-2.1c1.4,0.1,2.2,0.6,2.1,2.3C601.5,339.8,601.6,342.7,601.6,345.5z M554.1,345.4c0,2,0,3.6,0,5.2
			c0,1.7-0.9,2.1-2.4,2.1c-1.4,0-2.1-0.6-2.1-2c0-2.3-0.1-4.5-0.1-6.8c-0.1-4.4-0.1-8.8-0.7-13.2c-0.3-2,0.9-2.4,2.6-2.5
			c1.9-0.1,2.3,0.7,2.2,2.4C553.1,335.7,554.3,340.7,554.1,345.4z M202.6,547.1c1.2,1.5,1.1,2.5,1.1,3.5c0.1,13.5,0.2,27.1,0.2,40.6
			c0,0.7,0,1.4-0.1,2.2c-0.1,0.8-0.5,1.4-1.3,1.4c-0.7,0.1-1.5,0-1.8-0.8c-0.2-0.7-0.4-1.5,0.2-2c2.6-2.3,2.1-4.7,0.2-7.1
			c-0.8-1-0.8-1.9,0.1-2.7c2.1-2.3,1.8-4.5,0-6.7c-0.9-1.2-0.8-2.1,0.1-3.3c1.6-2.3,1.8-4.7-0.1-7c-0.8-1-0.9-2,0-3.1
			c2-2.4,2-4.7,0-7c-0.7-0.8-0.8-1.8-0.3-2.2C202.4,551.5,202.4,549.6,202.6,547.1z M518,345.3c-0.1-3-0.3-5.8,0.5-8.5
			c0.4-1.6,1.4-1.8,2.7-1.8c1.2,0,2,0.6,2,1.8c0,5.8,0.1,11.7,0.1,17.5c0,1.6-1,2-2.4,2c-1.3,0-2.1-0.4-2.2-1.9
			C518.3,351.4,517.8,348.2,518,345.3z M198.1,595.3c-0.8-2-0.6-3.3-0.6-4.6c0-13.6,0-27.3,0-40.9c0-1-0.2-2.2,1.2-2.5
			c0.7-0.2,1.5-0.2,1.9,0.6c0.4,0.9,0.4,1.7-0.4,2.5c-2.4,2.7-2.3,3.8,0.1,6.9c0.8,1,0.9,2.2-0.1,3.1c-2.6,2.4-2.3,4.6,0,6.9
			c0.9,0.9,0.9,2,0.1,2.8c-2.5,2.6-2.3,5,0,7.6c0.8,0.9,0.9,2.1,0,2.8c-2.5,2.2-1.8,4.4-0.2,6.7c0.5,0.7,1.1,1.7,0.5,2.2
			C198.8,590.6,199.2,592.9,198.1,595.3z M515.9,336c0.2,0,0.4,0,0.5,0c0,4.8,0,9.6,0,14.4c0,1.2,0.4,2.6-1.6,2.6
			c-1.7,0-2.5-0.5-2.6-2.5c-0.2-6.4-0.7-12.9-1.1-19.3c-0.1-1.7-0.1-2.9,2.3-2.9c2.3,0.1,2.8,0.9,2.5,3
			C515.8,332.9,515.9,334.4,515.9,336z M464.9,345.7C464.9,345.7,464.9,345.7,464.9,345.7c0.1-3.1,0.1-6.1,0.1-9.2
			c0-1,0.3-1.9,1.5-1.9c1.2-0.1,2.3-0.1,2.7,1.3c0.2,0.7,0.3,1.4,0.4,2.1c0.2,5.4,0.3,10.8,0.5,16.2c0,1.3,0.2,2.7-1.9,2.6
			c-1.8-0.1-3.3-0.1-3.2-2.5C465,351.4,464.9,348.6,464.9,345.7z M475.8,340.9c0,4,0,6.8,0,9.7c0,1.4-0.7,2-2.1,2
			c-1.2,0-1.9-0.5-2-1.8c-0.5-6.8-0.3-13.7-1.1-20.5c-0.3-2.2,1.6-1.8,2.8-1.8c1.1-0.1,2.5,0.2,2.2,1.9
			C474.9,334.3,476.2,338.1,475.8,340.9z M543.2,345.8c-0.1,0-0.2,0-0.3,0c0-3,0-5.9,0-8.9c0-1,0.3-1.9,1.5-1.9
			c1.1,0,2.4-0.3,2.8,1.1c0.3,0.9,0.5,1.8,0.5,2.7c0.1,5.1,0.1,10.3,0.2,15.4c0,1.8-0.5,2.7-2.4,2.7c-1.8,0-2.3-1-2.3-2.5
			C543.2,351.5,543.2,348.7,543.2,345.8z M529.7,498.3c0-2.1,0-4,0-5.9c0-1.1,0.1-2.5-1.4-2.7c-1.3-0.2-2.9-0.7-3.8,1
			c-0.2,0.4-0.6,0.9-1,1.1c-0.8,0.3-1.7,0.2-2.1-0.7c-0.4-1,0-1.7,1-1.8c2-0.1,2.9-1,3-3.1c0-2.3-0.7-3.5-3.1-3.6
			c-0.7,0-1.1-0.6-1-1.3c0-0.5,0.2-1.1,0.8-1.2c1.8-0.1,2.6-1.3,3.7-2.6c1.2-1.5,3-0.8,4.1,0.7c0.6,0.9,0.8,2.1,0.8,3.2
			c0,4.8,0,9.6,0,14.4C530.6,496.7,530.7,497.6,529.7,498.3z M203.6,457.3c-0.7-2.3,0-4.7-2.2-6c-0.3-0.2-0.3-1.2,0.2-1.7
			c2.6-2.5,2.2-5,0.1-7.6c-0.7-0.8-0.6-1.7,0.1-2.5c2-2.5,2-4.9,0-7.4c-0.6-0.7-0.8-1.6-0.2-2.3c2.6-2.7,2.5-5.2,0-7.9
			c-0.6-0.7-0.5-1.6,0.1-2.3c2.4-2.5,2.1-5,0-7.5c-0.5-0.6-0.6-1.3-0.1-2c0.4-0.5,1.1-0.7,1.7-0.6c0.7,0.2,0.8,0.9,0.9,1.5
			c0,0.4,0,0.8,0,1.2c0.2,13.9,0.3,27.9,0.5,41.8C204.5,455,204.9,456.1,203.6,457.3z M714.4,660.2
			C714.4,660.2,714.4,660.2,714.4,660.2c0,1.2,0,2.5,0,3.7c0,1.3-0.1,2.7,0,4c0.3,3-1.1,3.9-3.8,3.5c-0.7-0.1-1.7,0.3-1.9-0.5
			c-0.3-0.9,0.6-1.3,1.3-1.8c2.4-1.4,2.4-2.9,0.1-4.6c-1.7-1.2-1.7-7.6,0-8.9c2.2-1.7,2.2-3-0.2-4.7c-0.9-0.6-1.2-1.2-0.2-1.9
			c1.8-1.1,4.5,0.3,4.6,2.5C714.5,654.4,714.4,657.3,714.4,660.2z M202.1,636.7C202.1,636.7,202.1,636.7,202.1,636.7
			c0.1,4.8,0.1,9.6,0.1,14.4c0,0.9,0.1,1.9-1.3,1.9c-1.3,0-1.5-0.7-1.5-1.7c0-9.5,0-19-0.1-28.5c0-1.2,0.2-2.5,1.7-2.3
			c1.5,0.1,1.1,1.5,1.1,2.5C202.1,627.5,202.1,632.1,202.1,636.7z M570,490c0,0,0-0.1,0-0.1c3.2,0,6.3,0,9.5,0
			c1.1,0,1.8,0.4,1.8,1.6c0,1-0.8,1.1-1.5,1.1c-1.9-0.1-2.9,0.7-2.9,2.7c0,0.9-0.5,1.6-1.6,1.5c-1.1-0.1-1.1-1.2-1-1.9
			c0.1-1.6-0.4-2.3-2-2.2c-1.5,0.1-3.3-0.4-3.4,2c-0.1,0.9,0,2-1.4,2c-1-0.1-1.4-0.8-1.4-1.8c0-2-1.3-2.2-2.9-2.2
			c-1.8,0-2.7,0.7-2.5,2.6c0.1,0.7-0.1,1.3-0.9,1.4c-0.2,0-0.7-0.2-0.8-0.4c-0.7-1.6-0.5-3.2-0.1-4.8c0.3-1.3,1.5-1.4,2.7-1.4
			C564.4,490,567.2,490,570,490z M270.8,636.7C270.8,636.7,270.8,636.7,270.8,636.7c0-4.7,0-9.4,0-14.2c0-1-0.3-2.2,1.3-2.3
			c1.6-0.1,1.4,1.2,1.4,2.2c0,9.3,0,18.7,0,28c0,1,0.2,2.3-1.3,2.3c-1.7,0-1.4-1.4-1.4-2.5C270.8,645.7,270.8,641.2,270.8,636.7z
			 M393.1,636.1C393.1,636.1,393.1,636.1,393.1,636.1c0,4.6,0,9.2,0,13.8c0,1,0.1,2.2-1.5,2.2c-1.3-0.1-1.3-1.1-1.3-2.1
			c0-9.3,0-18.7,0-28c0-1.1,0.1-2.2,1.5-2.3c1.7-0.1,1.2,1.4,1.3,2.2C393.2,626.7,393.1,631.4,393.1,636.1z M322.2,636.3
			C322.2,636.3,322.3,636.3,322.2,636.3c0.1,4.5,0.1,9,0,13.6c0,1,0.6,2.5-1.3,2.5c-1.9,0-1.4-1.4-1.4-2.4c0-9.1-0.1-18.3-0.1-27.4
			c0-1.1-0.3-2.5,1.4-2.6c1.8,0,1.3,1.6,1.3,2.6C322.3,627.1,322.2,631.7,322.2,636.3z M199.2,361.3c-0.2,0-0.4,0-0.5,0
			c0-3.4,0-6.8,0-10.1c0-1-0.2-2.3,1.2-2.4c1.8-0.1,1.5,1.3,1.5,2.4c0.2,9.1,0.4,18.2,0.5,27.3c0,1,0.3,2.3-1.2,2.4
			c-1.7,0.1-1.6-1.3-1.6-2.4C199.2,372.8,199.2,367.1,199.2,361.3z M718,337c0,0-0.1,0-0.1,0c0,3,0,6,0,8.9c0,1.4-0.1,2.4-1.9,2.3
			c-1.7-0.1-1.9-1.1-1.9-2.5c0-5.7,0-11.5,0-17.2c0-1.4,0-2.8,2-2.7c1.9,0.1,2,1.5,2,2.8C718,331.5,718,334.3,718,337z M389.9,363.6
			c0-4.7,0-9.4,0-14.1c0-0.9-0.2-2,1.2-2c1.3,0,1.4,1,1.4,1.9c0,9.4,0,18.8,0,28.2c0,0.9,0.1,2.1-1.2,2.2c-1.4,0.1-1.5-1.1-1.5-2.2
			C389.9,373,389.9,368.3,389.9,363.6z M322,364C322.1,364,322.1,364,322,364c0.1,4.7,0.1,9.4,0.1,14.1c0,1,0,2-1.3,2
			c-1.3,0.1-1.4-1-1.4-1.9c0-9.3-0.1-18.6-0.1-28c0-1,0-2.3,1.5-2.2c1.3,0.1,1.1,1.3,1.1,2.1C322.1,354.9,322,359.5,322,364z
			 M273.1,371.1c0.1,0,0.2,0,0.3,0c0,2.3,0.1,4.7,0,7c0,0.9,0.5,2.3-1.3,2.3c-1.3,0-1.3-1.1-1.4-2c-0.2-9.5-0.3-19-0.5-28.5
			c0-1.2,0.3-1.6,1.5-1.6c1.5,0,1.3,0.8,1.3,1.8C273.1,357,273.1,364,273.1,371.1z M543.3,634.9c10.9-1.2,89.5-1.2,92.2,0
			C604.6,634.9,573.9,634.9,543.3,634.9z M172.2,441.3c-0.5-2.4-3.1-0.1-3.7-1.8c-2.3-6.7-7.8-8.3-14-9c-0.5-0.1-1.4-0.1-1.1-0.6
			c0.8-1.1-1.2-3.2,0.6-3.2c1.5,0,4.5-2.3,4.8,1.7c0.1,1.1,0.5,2,1.7,2.3c0.9,0.2,1.8,0,2.1-0.9c0.8-2.5,2.1-1.3,3.1-0.5
			C169.5,432.1,171.9,435.9,172.2,441.3z M715.9,660.5c0.1,0,0.1,0,0.2,0c0-3.2,0-6.3,0-9.5c0-1.3,0.1-2.2,1.8-2.2
			c1.4,0.1,2,0.7,2,2.1c0,2.2,0,4.3,0,6.5c0,1.3,0.2,2.8-1.9,2.7c-0.5,0-0.9,0.4-0.9,1.1c0,0.6,0.4,1.2,0.9,1
			c2.6-0.7,1.9,1.1,1.9,2.4c0,1.7,0,3.5,0,5.2c0,1.5-0.6,2.3-2.2,2.3c-1.6,0-1.7-1.2-1.7-2.4C715.9,666.6,715.9,663.5,715.9,660.5z
			 M533,358c0,0.1,0,0.1,0,0.2c-1.8,0-3.7-0.1-5.5,0c-2.2,0.2-2.4-0.8-2.5-2.7c-0.1-2,0.7-2.6,2.4-2.6c3.7,0,7.4,0,11.1-0.1
			c1.9,0,2.8,0.6,2.8,2.6c0.1,2.1-0.9,2.6-2.8,2.5C536.7,357.9,534.8,358,533,358z M569.9,563.5
			C569.9,563.5,569.9,563.5,569.9,563.5c-3.1,0-6.2,0.1-9.2,0c-0.8,0-1.8-0.1-1.7-1.2c0-0.9,0.9-1,1.6-1c2,0,2.8-0.9,2.6-2.9
			c-0.1-0.7,0.3-1.2,1-1.3c0.8-0.1,1.5,0.2,1.6,1.1c0.1,1.8,0.6,3.1,2.9,3.1c2-0.1,3.1-0.9,3.1-2.9c0-0.7,0.4-1.2,1.2-1.1
			c0.6,0.1,0.9,0.5,0.9,1.1c0.1,1.5,0.3,2.8,2.4,2.8c2,0,3.3-0.5,3.4-2.8c0-0.7,0.8-1.6,1.4-0.6c0.8,1.4,0.5,3,0.1,4.5
			c-0.3,1.2-1.5,1.3-2.5,1.3C575.6,563.5,572.8,563.5,569.9,563.5z M541.6,527C541.5,527,541.5,527,541.6,527
			c-0.1-3.1-0.1-6.2-0.1-9.2c0-0.8,0.1-1.8,1.2-1.8c1,0,1,0.9,1,1.6c0.1,1.6,1.1,2.3,2.6,2.4c0.8,0,1.4,0.3,1.5,1.2
			c0,0.9-0.4,1.4-1.2,1.4c-1.8,0.1-2.9,0.7-2.9,2.7c0,2,0.8,3.1,2.8,3.2c0.6,0,1.2,0.4,1.2,1.1c0,0.8-0.7,1-1.3,1
			c-2.1-0.2-2.5,1-2.6,2.8c-0.1,2.2,1,2.9,2.9,2.7c0.6,0,1.1,0.1,1.1,0.8c0,0.3-0.2,0.7-0.4,0.8c-1.6,0.6-3.3,0.5-4.8,0.1
			c-1.3-0.3-1-1.6-1-2.6C541.6,532.6,541.6,529.8,541.6,527z M388.6,615.7c0,0.2,0,0.4,0,0.6c-23.4,0-46.7,0-70.1,0
			c0-0.2,0-0.4,0-0.6C341.9,615.7,365.2,615.7,388.6,615.7z M598.5,527.3C598.5,527.3,598.5,527.3,598.5,527.3c0,3.2,0,6.4,0,9.5
			c0,0.7-0.2,1.5-1.1,1.5c-1,0.1-1.1-0.7-1.1-1.5c0-1.4-0.1-2.7-2.1-2.5c-0.8,0.1-1.7,0.1-1.8-1.1c-0.1-1.3,0.7-1.5,1.7-1.6
			c1-0.1,2.3,0,2.3-1.5c0-1.9,0.4-4.1-2.6-4.3c-0.7,0-1.5-0.1-1.5-1.1c0-0.6,0.5-0.9,1-0.9c1.9,0,3.1-0.6,3.1-2.8
			c0-2.4-1.3-2.9-3.2-3.2c-0.9-0.1-1.4-1-0.4-1.4c1.4-0.6,3-0.4,4.5-0.1c1.5,0.3,1.3,1.7,1.3,2.8
			C598.6,521.8,598.5,524.6,598.5,527.3z M535.5,363.9c0,0.2,0,0.4,0,0.6c-29.3,0-58.6,0-88,0c0-0.2,0-0.4,0-0.6
			C476.8,363.9,506.1,363.9,535.5,363.9z M529.3,634.9c-26.9,0.4-53.8,1-80.8,0C475.5,634.9,502.4,634.9,529.3,634.9z M695.1,665
			c-2.7,0.1-4.9-2.2-5-5.2c-0.1-2.2,2.5-4.7,4.8-4.7c3,0,5.2,2,5.2,4.8C700.2,662.6,697.9,665,695.1,665z M441.4,593.6
			c-0.6-30.7-0.4-61.3-1-92c0.3,0,0.7,0,1,0C441.4,532.3,441.4,563,441.4,593.6z M388.4,618c0,0.2,0,0.3,0,0.5
			c-21.9,0-43.9,0-65.8,0c0-0.2,0-0.3,0-0.5C344.6,618,366.5,618,388.4,618z M492.3,330.8C492.3,330.8,492.3,330.7,492.3,330.8
			c3.5,0,7-0.1,10.4,0c1,0,2.5-0.5,2.7,0.6c0.1,1.3-1,2.4-2.5,2.7c-1.2,0.2-2.5,0.4-3.6-0.2c-2.7-1.5-6.1-1.7-8.3-0.6
			c-3.6,1.8-6.5,0.4-9.6-0.4c-0.7-0.2-1.5-0.5-1.5-1.3c0-1.1,1-0.8,1.6-0.8C485.1,330.7,488.7,330.8,492.3,330.8z M137.8,373.9
			c0,0-0.1,0-0.1,0c0-3.5,0-7,0-10.4c0-1-0.1-2.1,1.5-2.1c1.4,0.1,1.3,1.1,1.3,2c0,7,0,13.9,0.1,20.9c0,1,0,2.2-1.5,2.2
			c-1.3,0-1.2-1.2-1.2-2.1C137.8,380.9,137.8,377.4,137.8,373.9z M434.1,331.3c0-0.1,0-0.3,0-0.4c3.6,0,7.1,0,10.7,0
			c0.7,0,1.5-0.1,1.9,0.6c0.3,0.5-0.1,1.2-0.5,1.3c-2.8,0.6-5.2,2.8-8.4,1.5c-3.4-1.5-6.8-1.3-10.3,0c-2,0.7-4,1.2-5.6-0.8
			c-0.4-0.4-0.8-1.1-0.6-1.6c0.2-0.7,1-0.5,1.6-0.5C426.7,331.3,430.4,331.3,434.1,331.3z M138.3,627.8
			C138.3,627.8,138.3,627.8,138.3,627.8c0-3.5,0-7,0-10.5c0-1.1,0.1-2,1.6-2.1c1.7-0.1,1,1.2,1.1,2c0.2,7.1,0.3,14.1-0.2,21.2
			c-0.1,0.7,1,2-0.6,2.2c-1.5,0.1-1.8-1-1.8-2.3C138.3,634.8,138.3,631.3,138.3,627.8z M441.2,495.5c-0.3,0-0.6,0-0.9,0
			c1-29.3,0.2-58.7,0.9-88C441.2,436.9,441.2,466.2,441.2,495.5z M602.7,388.2c0.2,32.3,1,64.5,0.5,96.8
			C603.3,452.7,602,420.4,602.7,388.2z M499.3,648.4c-28.3,0-56.6,0-85,0c0-0.4,0-0.7,0-1.1C442.7,648.4,471,648.4,499.3,648.4z
			 M413.5,352.3c-0.6-3.3-0.2-6.5-0.3-9.6c-0.1-2.1,0.5-4.5-2.7-5c-1-0.2-0.9-1.2-0.9-2.1c-0.1-1.1-0.1-2.3-0.2-3.4
			c-0.2-1.6-1-3.3,1.8-3.4c2.3-0.1,3,0.8,3,3c0,6.1-0.3,12.3,0.5,18.4C414.7,351,414.9,351.8,413.5,352.3z M711.7,350.3
			c0,0.1,0,0.2,0,0.4c-33.1,0-66.2,0-99.3,0c0-0.1,0-0.2,0-0.4C645.5,350.3,678.6,350.3,711.7,350.3z M316.8,540
			C316.8,540,316.8,540,316.8,540c-2.6,0-5.1,0.1-7.7,0c-0.9,0-2.3,0.5-2.4-1.1c-0.1-1.8,1.4-1.5,2.4-1.6c5.3-0.1,10.6,0,15.9,0
			c0.9,0,2,0,2,1.3c0,1.3-1,1.3-2,1.3C322.4,540,319.6,540,316.8,540z M340.2,540C340.2,540,340.2,540,340.2,540c-2.7,0-5.3,0-8,0
			c-0.9,0-2,0.1-2.1-1.2c0-1.2,0.9-1.5,1.9-1.5c5.3,0,10.6,0,15.9,0c1,0,2,0.1,1.9,1.4c-0.1,1.3-1.1,1.2-2.1,1.3
			C345.3,540,342.7,540,340.2,540z M143.4,648.6c-0.3-0.3-0.5-0.7-0.8-1c10.2-7.6,20.3-15.1,30.5-22.7c0.3,0.4,0.5,0.7,0.8,1.1
			C163.7,633.5,153.6,641,143.4,648.6z M173.6,375.7c-0.2,0.3-0.4,0.6-0.6,0.9c-10.5-7.2-20.9-14.6-31.1-22.4
			c0.2-0.3,0.4-0.6,0.6-0.9C152.9,360.8,163.3,368.2,173.6,375.7z M266.2,618.9c0,0.1,0,0.2,0,0.2c-17.2,0-34.4,0-51.6,0
			c0-0.1,0-0.2,0-0.2C231.8,618.9,249,618.9,266.2,618.9z M694.7,671.4C694.7,671.4,694.7,671.4,694.7,671.4c-2.3,0.1-4.7,0.1-7,0.1
			c-0.6,0-1.7,0.3-1.7-0.7c-0.1-0.9,0.4-1.9,1.5-2c5-0.4,9.9-0.8,14.9,0.3c0.7,0.2,1.5,0.3,1.4,1.3c-0.1,0.9-0.9,1-1.6,1
			C699.6,671.4,697.1,671.4,694.7,671.4z M340.1,462.9C340.1,462.9,340.1,463,340.1,462.9c-2.8,0-5.5,0-8.3,0c-0.7,0-1.5,0.1-1.6-1
			c0-1,0.5-1.4,1.5-1.4c5.5,0,11-0.1,16.5-0.2c1,0,2,0,1.9,1.3c-0.1,1.2-1.2,1.2-2.1,1.2C345.4,462.9,342.8,462.9,340.1,462.9z
			 M636.1,559.6c3.5-3.5,7.7-6.8,0.4-10.6c5.5,0.3,8.8,2.4,8.8,5.2C645.3,557.1,641.8,559.4,636.1,559.6z M291.2,540.1
			C291.2,540.1,291.2,540.1,291.2,540.1c-2.3,0-4.5,0.1-6.8,0c-1,0-1.9-0.2-1.9-1.4c0-1.2,1.2-1.1,1.8-1.2c4.6-0.1,9.2-0.1,13.8,0
			c0.8,0,1.8,0.1,1.8,1.3c0,1.3-1,1.3-2,1.4C295.7,540.1,293.5,540.1,291.2,540.1z M145.7,649.4c0.3-0.9,0.8-1.5,1.4-1.4
			c8.8,0.8,17.8-0.2,26.6,0.6c0,0.3,0,0.6,0,0.9C164.4,649.4,155.2,649.4,145.7,649.4z M317.2,460.8c0-0.1,0-0.1,0-0.2
			c2.5,0,5.1,0,7.6,0c1,0,2.2-0.4,2.3,1.1c0,1.3-1.1,1.2-2,1.2c-5.2,0-10.4,0-15.6,0c-0.8,0-1.9,0.1-1.9-1c0-1.3,1.2-1.2,2-1.2
			C312.1,460.7,314.6,460.8,317.2,460.8z M669.8,580.7c-0.6,0-1.2,0-1.8,0c-0.9,0-1.7-0.2-1.8-1.2c-0.2-1.2-0.7-2.9,0.3-3.5
			c2.4-1.2,5.2-0.5,7.8-0.9c0.5-0.1,0.5,0.7,0.6,1.2C675.2,579.8,674.2,580.7,669.8,580.7z M383.8,537.3c2.8,0,5.5,0,8.3,0
			c0.7,0,1.5,0.2,1.5,1.2c0,0.8-0.7,1-1.3,1c-5.3,0.1-10.7,0.2-16,0.2c-0.8,0-1.7-0.5-1.6-1.5c0.1-1,1-0.9,1.7-0.9
			C378.9,537.2,381.3,537.2,383.8,537.3z M631.6,544.9c0.5-0.1,0.7-0.2,0.9-0.2c3,0,5.9,0,8.9,0c4.5,0,5.1,0.8,4.1,6.1
			C641.9,546.4,635.7,548.7,631.6,544.9z M581.7,363.6c0,0.1,0.1,0.3,0.1,0.4c-13.4,0-26.8,0-40.3,0c0-0.1,0-0.3,0-0.4
			C554.9,363.6,568.3,363.6,581.7,363.6z M317.3,551.6C317.3,551.7,317.3,551.7,317.3,551.6c-2.6,0.1-5.1,0.1-7.7,0
			c-0.8,0-2.1,0.3-2.1-1.1c0-1.1,1.2-1,1.9-1c5.2,0,10.5,0,15.7,0c0.8,0,1.9-0.2,1.8,1.1c-0.1,1.1-1.2,0.9-2,1
			C322.4,551.7,319.8,551.6,317.3,551.6z M281.2,586.1c-0.9-2.6-1-30.5,0-32.3C281.2,564.6,281.2,575.3,281.2,586.1z M551.7,371.1
			c-2.7,4.3-11.2,4.4-15,0C541.9,371.1,546.7,371.1,551.7,371.1z M393,464.3c0,0.2,0,0.4,0,0.6c-19.9,0-39.9,0-59.8,0
			c0-0.2,0-0.4,0-0.6C353.1,464.3,373,464.3,393,464.3z M106.8,504.9c1.7-1.8,5.2,0.2,5.5-3.2c0.3-3.7-3.5-1.9-5.1-3.6
			c3.3-0.6,6-0.4,8.5,1.5c1.7,1.3,1.9,2.9,0.3,4.1C113.4,505.7,110.4,506.1,106.8,504.9z M630.7,563.5c2-1.3,3.3-2.1,5.1-2.2
			c3.2-0.2,6.3-0.5,8.9-2.7c0.7-0.6,1.2-0.6,1.6,0.4c0.8,2.4-0.5,4.4-2.9,4.5C639.4,563.6,635.4,563.5,630.7,563.5z M384.4,462.4
			C384.4,462.4,384.4,462.4,384.4,462.4c-2.5,0-4.9,0.1-7.4,0c-0.8,0-1.8,0-1.8-1.2c0-1,0.9-1,1.6-1c5,0,10,0,15,0
			c0.8,0,1.5,0.1,1.6,1c0.1,1.3-1,1.1-1.7,1.1C389.3,462.4,386.8,462.4,384.4,462.4z M384.1,551.1
			C384.1,551.1,384.1,551.1,384.1,551.1c-2.3,0.1-4.7,0.1-7,0.1c-0.8,0-1.9,0.2-2.1-0.8c-0.1-1.2,1-1.3,2-1.3c4.9,0,9.8,0,14.7,0
			c0.7,0,1.7-0.1,1.8,0.8c0.1,1.1-0.8,1.3-1.7,1.3C389.2,551.1,386.7,551.1,384.1,551.1z M535.7,385c0-0.3,0-0.7,0-1
			c7.9-0.2,15.9-0.3,23.8-0.1c0,0.4,0,0.7,0,1.1C551.6,385,543.7,385,535.7,385z M293.5,456.8c0-0.1,0-0.1,0-0.2c3,0,5.9,0,8.9,0
			c0.7,0,1.6,0,1.5,1c-0.1,0.7-0.8,0.8-1.5,0.8c-5.9,0.1-11.9,0.1-17.8,0.1c-0.6,0-1.7,0-1.5-1.1c0.1-1,1.1-0.7,1.8-0.7
			C287.8,456.7,290.7,456.8,293.5,456.8z M360.4,539.9C360.4,539.9,360.4,539.9,360.4,539.9c-1.9,0-3.9,0-5.8,0
			c-0.8,0-1.5-0.2-1.6-1.1c-0.1-1,0.6-1.5,1.5-1.5c4,0,8-0.1,12,0c0.9,0,1.7,0.4,1.6,1.4c-0.1,1.1-1.1,1.1-1.9,1.2
			C364.3,540,362.4,539.9,360.4,539.9z M291.8,460.9C291.8,460.8,291.8,460.8,291.8,460.9c2.3,0,4.7-0.1,7,0c0.7,0,1.5,0.1,1.6,1.1
			c0,1-0.8,1.1-1.5,1.1c-4.6,0-9.2,0.1-13.8,0c-0.8,0-1.8-0.1-1.7-1.2c0.1-0.9,1-0.9,1.7-0.9C287.3,460.8,289.6,460.9,291.8,460.9z
			 M531.3,451.8c-0.1,0-0.3,0-0.4,0.1c0-1.8,0-3.7,0-5.5c0-1.2-0.4-2.2-1.8-2.4c-1.1-0.2-2.7,0.4-2.9-1.5c-0.2-1.9,1.3-2,2.6-2.4
			c2-0.5,2.3-2.1,2.2-3.9c-0.1-1.5-0.7-2.6-2.4-2.7c-0.8-0.1-1.7,0.4-2.1-0.7c-0.1-0.3,0.1-0.8,0.3-1.1c0.8-0.8,1.7-0.2,2.6,0.1
			c1.3,0.5,2,1.5,2,2.8C531.3,440.4,531.3,446.1,531.3,451.8z M106,419.7c2.6-1.6,8.5-0.7,9.9,1.3c0.7,1,0.3,2-0.4,2.8
			c-1.9,2-5.9,2.7-8.7,1.5c1.6-0.7,4.1,0.1,4.2-2.6C111.2,419,107.8,420.6,106,419.7z M106.3,582.2c1.9-1.2,4.6-0.1,4.8-3.1
			c0.2-3.3-2.8-2.1-4.8-3.2c3.6-0.8,6.4-0.4,8.9,1.6c1.6,1.3,1.5,2.5-0.2,3.7C112.5,582.9,109.8,583.2,106.3,582.2z M522.6,441.1
			c-4.7-0.5-3.2,2.9-3.4,5.2c-1.4-0.3-2.3-1.4-3.7-1.2c-2.1,0.2-2.5-1-2.5-2.9c0-2,0.9-2.3,2.7-2.4
			C518.1,439.7,520.3,440.1,522.6,441.1z M686,649.6c5.7-0.7,11-0.4,16.3-0.3c0.5,0,1.1,0.2,1.1,0.8c0,0.6-0.5,0.8-1,1
			c-0.9,0.3-1.7,0.8-2.6,0.1c-0.8-0.6-1.6-0.6-2.5,0.1C694.9,652.8,688.9,652,686,649.6z M291.3,549.7
			C291.3,549.6,291.3,549.6,291.3,549.7c2.3,0,4.7-0.1,7,0c0.7,0,1.7-0.2,1.8,0.7c0.1,1-0.8,1.3-1.7,1.4c-2.7,0.1-5.3,0.1-8,0.1
			c-2,0-4.1,0-6.1-0.1c-0.7,0-1.5-0.5-1.4-1.3c0.1-0.8,1-0.6,1.5-0.6C286.8,549.6,289.1,549.7,291.3,549.7z M445.3,517.9
			c-3.1-4.8-2.5-10.2-2.4-15.4c0-0.8,0.2-1.5,1.2-1.4c0.9,0.1,1.1,0.9,1.1,1.6C445.3,507.7,445.3,512.8,445.3,517.9z M113.4,605.7
			c3.9,0,7.7,0,11.5,0c4.5,0.1,9,0.2,13.5,0.3c0.7,0,1.7,0,1.8,0.8c0,1.1-1.2,1.1-1.8,0.9c-2.3-0.4-4.9-1-7-1.1
			c-3.8-0.1-7.8-0.3-11.6,0.1C117.3,607.1,115.5,607.7,113.4,605.7z M674.3,635.1c1.6,3.1,1.2,22.4,0,23.9
			C674.3,651,674.3,643.1,674.3,635.1z M109.3,606.1c-0.3,0-0.5,0-0.8,0c0-7.1,0-14.2,0-21.4c0.3,0,0.5,0,0.8,0
			C109.3,591.9,109.3,599,109.3,606.1z M384.7,458C384.7,458,384.7,458,384.7,458c-2.7,0-5.3,0-8,0c-0.7,0-1.6,0-1.5-1.1
			c0-0.9,0.9-0.7,1.5-0.7c5.1-0.1,10.2-0.2,15.3-0.2c0.6,0,1.6-0.4,1.6,0.8c0,1.1-0.9,1.2-1.8,1.2C389.4,458,387,458,384.7,458z
			 M339.9,551.2c0,0.1,0,0.2,0,0.4c-2.8,0-5.5,0-8.3,0c-0.6,0-1.4,0.1-1.5-0.7c-0.1-0.7,0.5-1.1,1.1-1.1c5.7,0,11.5-0.1,17.2-0.1
			c0.5,0,1.1,0.2,1.1,0.8c0,0.6-0.6,0.8-1.1,0.8C345.6,551.2,342.7,551.2,339.9,551.2z M283,543.4c0-0.3,0-0.5,0.1-0.8
			c6.8,0,13.5,0,20.3,0c0,0.3,0,0.5,0,0.8C296.6,543.4,289.8,543.4,283,543.4z M326.8,457.3c-0.2,0.8-0.9,0.8-1.5,0.8
			c-5.3,0.1-10.6,0.2-15.9,0.2c-0.7,0-2,0.4-2-0.8c0-1.4,1.3-1,2.2-1c5,0,10-0.1,15,0C325.4,456.5,326.4,456.3,326.8,457.3z
			 M535.3,349.1c-0.3,0-0.5,0-0.8,0c0-6.7,0-13.5,0-20.2c0.3,0,0.5,0,0.8,0C535.3,335.6,535.3,342.4,535.3,349.1z M108.8,416.8
			c-1.4-7.3-1.6-14.7-1.1-22.1c0.4,0,0.7,0,1.1,0C108.8,402,108.8,409.4,108.8,416.8z M303.4,546.7c-0.2,0.2-0.4,0.6-0.6,0.6
			c-6.3,0.1-12.5,0.1-18.8,0.2c-0.5,0-1.2-0.1-1-0.8c0.2-0.8,0.9-0.6,1.5-0.7c5.7,0,11.5-0.1,17.2-0.1
			C302.4,545.9,303.1,545.9,303.4,546.7z M281.6,446.2c-0.3,0-0.6,0-0.9-0.1c1.7-10.9-1.3-21.8,0.9-32.7
			C281.6,424.3,281.6,435.3,281.6,446.2z M340.1,448.5C340.1,448.5,340.1,448.5,340.1,448.5c2.8,0,5.5,0,8.3,0c0.6,0,1.4,0,1.5,0.7
			c0.1,1.1-1,0.8-1.6,0.8c-5.3,0.1-10.6,0.2-15.9,0.3c-0.8,0-1.6,0-1.7-0.8c-0.1-1.3,1-1,1.8-1C334.9,448.5,337.5,448.5,340.1,448.5
			z M326.8,542.6c0,0.3,0,0.5,0,0.8c-6.5,0-13.1,0-19.6,0c0-0.3,0-0.5,0-0.8C313.7,542.6,320.2,542.6,326.8,542.6z M614.9,561.9
			c2.7-0.8,3,0.7,3,2.5c0.1,5.2,0.1,10.4,0.2,15.6c0,1.5,0,3.1-0.1,4.6c-0.1,0.9-0.5,1.6-1.5,1.6c-0.6,0-1.4,0.2-1.6-0.5
			c-0.4-1,0.7-1.1,1.1-1.5c1-1,1.1-2.3,1.1-3.7c-0.1-5-0.3-10-0.3-14.9C616.8,564,616.5,562.8,614.9,561.9z M122.7,565.4
			c-0.8,0-1.6,0-2.4,0c-1.4,0-2.4-0.2-2.2-2c0.1-1.5,0.6-2.3,2.2-2.2c1.4,0.1,2.8,0,4.3,0.1c1.9,0.1,2.3,1.6,2.3,3
			c0,1.6-1.4,1-2.3,1.1C123.9,565.5,123.3,565.4,122.7,565.4z M539.5,348.9c-0.3,0-0.6,0-1,0c-0.4-6.7-0.1-13.4,0-20.1
			c0.3,0,0.6,0,0.9,0C539.5,335.5,539.5,342.2,539.5,348.9z M181.9,619.8c-0.2-0.3-0.4-0.6-0.6-0.9c5.9-4.3,11.8-8.7,17.6-13
			c0.2,0.3,0.5,0.7,0.7,1C194.1,611.5,188.2,615.9,181.9,619.8z M675.1,509.5c9.7,0.9,19.4,0.5,29.1,0.9
			C699.7,511.5,677.8,510.9,675.1,509.5z M360.7,460.3C360.7,460.3,360.7,460.3,360.7,460.3c1.7,0,3.5-0.1,5.2,0
			c0.9,0,2.1-0.1,2,1.2c0,1.1-1.2,1-1.9,1c-3.7,0-7.3,0.1-11,0.1c-0.7,0-1.5,0.2-1.6-0.9c0-0.9,0.6-1.2,1.4-1.3
			C356.8,460.3,358.7,460.3,360.7,460.3z M327.5,449c-2.6,1.8-17.8,1.8-20.4,0.1C314.1,448.6,320.5,448.1,327.5,449z M283.4,454.1
			c0-0.3,0-0.6,0.1-0.9c6.8-0.3,13.5-0.4,20.3-0.1c0,0.4,0,0.7,0,1.1C296.9,454.1,290.2,454.1,283.4,454.1z M307.2,545.9
			c6.2,0,12.4,0,18.6,0c0.5,0,1.1,0.2,0.9,0.9c-0.2,0.8-1,0.6-1.6,0.6c-4.7,0-9.4,0.1-14.2,0C309.7,547.4,308.3,547.9,307.2,545.9z
			 M329.8,546.8c0.8-0.5,1.1-0.8,1.3-0.8c5.9-0.1,11.8-0.2,17.7-0.2c0.4,0,0.9,0,0.9,0.5c0,1-0.8,1-1.5,1c-3.9,0-7.8,0.1-11.6,0
			C334.6,547.4,332.5,547.8,329.8,546.8z M340.4,458.1C340.4,458.1,340.4,458.1,340.4,458.1c-2.7,0.1-5.3,0.1-8,0.1
			c-0.6,0-1.6,0.3-1.7-0.8c0-0.7,0.8-0.8,1.4-0.8c5.5,0,11,0,16.5,0c0.5,0,1.2,0,1.2,0.6c0.1,0.9-0.7,0.9-1.3,0.9
			C345.9,458.1,343.1,458.1,340.4,458.1z M306.9,454c3.2-1.7,18.2-1.5,20.3,0.3C320.4,454.1,314,454.8,306.9,454z M121.9,443.9
			c0,0.1,0,0.1,0,0.2c0.8,0,1.6,0,2.5,0c1.9,0,2.5,1.5,2.6,2.8c0.1,1.8-1.7,0.9-2.5,1c-1.6,0.2-3.2,0-4.9-0.1
			c-1.1-0.1-1.5-0.8-1.5-1.9c0-1.1,0.3-1.8,1.5-1.9C120.3,444,121.1,444,121.9,443.9z M181.2,382.6c0.2-0.3,0.5-0.7,0.7-1
			c6.1,4,12.2,8.1,17.9,12.6c-0.2,0.3-0.5,0.7-0.7,1C193.2,391,187.2,386.8,181.2,382.6z M330.6,454c0-0.3,0-0.6,0-0.8
			c6.3,0,12.7,0,19,0c0,0.3,0,0.7,0,1C343.3,454.1,336.9,454.8,330.6,454z M665.7,671.6c0-0.2,0.1-0.4,0.1-0.6c0.9,0,1.8,0,2.8,0
			c2.2-0.1,4.8,0.9,5.3-2.9c0.2-1.4,2.2-1.3,3.5-0.7c0.6,0.3,1.1,1.1,1.7,1.2c1.2,0.3,2.3,0.7,1.9,2.2c-0.4,1.3-1.8,0.7-2.6,0.7
			C674,671.7,669.8,671.6,665.7,671.6z M122.8,554.5C122.8,554.5,122.8,554.5,122.8,554.5c0.6,0,1.2,0.1,1.8,0
			c2.7-0.4,2.1,1.2,1.7,2.7c-0.4,1.5-1.7,1.4-2.7,1.3c-1.6-0.1-3.7,0.9-4.8-0.9c-0.8-1.3-0.6-2.9,1.6-3.1
			C121.2,554.5,122,554.5,122.8,554.5z M393.9,542c-2.9,1.7-17.1,1.6-19.1,0C381.2,542,387.3,542,393.9,542z M371.7,456.9
			c0,0.3,0,0.5,0,0.8c-6.1,0-12.2,0-18.3,0c0-0.3,0-0.5,0-0.8C359.5,456.9,365.6,456.9,371.7,456.9z M374.8,546.6c0-0.4,0-0.8,0-1.2
			c5.7,0,11.5,0,17.2,0c0.7,0,1.6-0.1,1.6,1c0,1-1,0.9-1.6,0.9c-3.8,0-7.5,0-11.3-0.1C378.7,547,376.7,547.5,374.8,546.6z
			 M665.9,509.6C665.9,509.5,665.9,509.5,665.9,509.6c1-0.1,2-0.2,3,0c0.8,0.1,2.3-0.6,2.2,1.2c-0.1,1.3-1.1,1.9-2.4,1.8
			c-2.3-0.1-4.7-0.1-7-0.3c-0.7-0.1-1.8,0-1.7-1.2c0.1-0.9,0.8-1.4,1.7-1.5C663.1,509.5,664.5,509.6,665.9,509.6z M393.2,448.9
			c0,0.3,0,0.5,0,0.8c-5.9,0-11.9,0-17.8,0c0-0.3,0-0.5,0-0.8C381.3,448.9,387.3,448.9,393.2,448.9z M330.5,543.2
			c0-0.4,0-0.7,0.1-1.1c6,0,11.9,0,17.9,0c0.5,0,1.2,0.1,1.2,0.7c0,0.9-0.8,0.7-1.4,0.7c-4.2,0-8.3,0-12.5,0
			C334,543.6,332.2,544.1,330.5,543.2z M594.6,363.4c13,0,26,0,39,0C620.6,364.2,607.6,364.5,594.6,363.4z M670.3,549.3
			C670.3,549.3,670.3,549.2,670.3,549.3c-1.2-0.1-2.4,0-3.7-0.1c-1-0.1-1.3-0.8-1.3-1.7c0-0.8,0.4-1.4,1.3-1.4c2,0,4.1-0.1,6.1,0.2
			c1.2,0.1,1.6,1.2,1.5,2.3c-0.2,1.5-1.2,1-2.1,0.9C671.6,549.3,671,549.3,670.3,549.3z"/>
		<path d="M477.3,513.4c-2.9-0.1-5.7,0.4-8.4,1.4c-1.4,0.5-2.9,1-1.4,3c0.9,1.2,0.2,2.1-0.9,2.8c-2.5,1.6-4.5,3.6-6.1,6
			c-0.7,1.1-1.7,1.7-3.1,1.3c-1.8-0.4-2.8,0.4-3.5,2.1c-1.7,5-2.3,10-1.1,15.1c0.5,2.3,1.1,5.1,4.8,3.9c1.1-0.3,1.7,0.4,2.3,1.2
			c1.9,2.6,4,5,6.9,6.4c1.2,0.6,1.1,1.3,0.5,2.2c-1,1.8-0.2,2.7,1.5,3.2c6.3,1.9,12.5,2.1,18.6-0.7c1.5-0.7,1.9-1.3,0.8-2.7
			c-1-1.2-0.9-2.3,0.6-3c2.2-1.1,3.6-3.1,5.1-4.9c1.5-1.8,2.6-3.8,5.6-2.8c1.3,0.4,1.8-1.1,2.2-2.2c1.9-6,1.3-11.9-0.9-17.7
			c-0.6-1.5-1.7-1.5-2.7-0.9c-1.5,0.8-2.5,0.3-3.4-0.8c-1.9-2.4-4-4.7-6.8-6.1c-1.3-0.6-1.5-1.7-0.4-2.7c1.5-1.4,0.6-2.1-0.7-2.6
			C483.6,513.9,480.5,513.4,477.3,513.4z M455,539.3c0-6,0.7-5.4,5-10.2c3.3-3.7,8.4-5.9,9.9-11.1c0.1-0.4,0.8-0.7,1.2-0.8
			c3.9-0.9,7.9-1.3,11.9-0.3c0.8,0.2,1.9,0.5,1.8,1.4c-0.3,2.6,1.5,3.3,3.2,4.3c1.8,1,3.2,2.5,4.7,4c1.3,1.4,2.1,3.7,4.8,3
			c0.5-0.1,0.9,0.5,1.1,1c2,4.7,2.1,9.5,0.5,14.4c-0.3,0.8-0.6,1.6-1.7,1.4c-2.1-0.5-2.9,0.7-3.8,2.3c-1.1,2.1-2.9,3.7-4.7,5.2
			c-1.5,1.3-3.8,1.9-3,4.7c0.1,0.2-0.6,0.8-1,1c-4.7,1.9-9.4,2.8-14.4,0.8c-0.7-0.3-1.5-0.5-1.1-1.5c0.8-1.9-0.5-2.6-1.8-3.4
			c-2.9-1.7-5.1-4-7-6.8c-0.5-0.7-0.9-1.9-2-1.6c-2.4,0.6-2.7-1-3.1-2.7C455,542.7,455,541,455,539.3z"/>
		<path d="M123.9,498.3c0,3.1-0.1,6.2,0,9.2c0.2,4.2,2.7,5.9,6.6,4.3c2.2-0.8,2.7,0.2,3.3,1.9c2.3,6,5.7,11.2,11.1,14.8
			c8.7,5.8,20,3.7,27.3-4.8c12.2-14.1,11.8-39.5-1.2-52.5c-7.6-7.7-19.8-8.6-28.1-1.6c-4.1,3.5-7,7.8-8.9,12.7
			c-0.8,2.1-1.5,3.3-4.2,2.3c-3.4-1.2-5.8,0.7-6,4.4C123.8,492.1,123.9,495.2,123.9,498.3z M138.3,519.3c-0.7-1.3-1.1-2.1-1.5-2.9
			c-1.8-3.5-1.8-3.6,2.2-3.9c2.8-0.2,4.1-1.7,4.2-4.3c0.1-6.4,0.1-12.7-0.1-19.1c0-2.5-1.5-4.1-4.1-4.7c-4-0.9-4-0.9-2-4.8
			c0.3-0.6,0.5-1.1,0.8-1.6c8.2-13.7,24.6-16.5,34.8-2.4c8.5,11.8,9.1,30.4,1.5,42.8c-9.1,14.9-25.4,15.3-34.1,3.1
			c2.1,0.2,3.8-0.1,4.1-2.5c0.2-1.8-0.7-2.9-2.1-3.3C139.7,515.2,139.1,517.1,138.3,519.3z M138.7,498.4c0,0-0.1,0-0.1,0
			c0,3.2,0,6.3,0,9.5c0,0.9-0.4,1.7-1.4,1.8c-1.1,0.1-1.3-0.8-1.4-1.6c-0.2-1.5-0.7-3-0.5-4.5c0.4-4.8,0.7-9.6-0.3-14.4
			c-0.2-0.7-0.5-1.7,0.7-2c0.9-0.2,1.8-0.2,2.5,0.7c0.6,0.8,0.6,1.7,0.6,2.6C138.7,493,138.7,495.7,138.7,498.4z M129.3,498.2
			c-0.1,0-0.1,0-0.2,0c0,3.3,0,6.6,0,9.8c0,0.6,0,1.4-0.8,1.4c-0.8,0-1.1-0.6-1.1-1.2c0-6.5,0-12.9,0-19.4c0-0.7,0.4-1.5,1.2-1.5
			c1,0,0.9,1,0.9,1.7C129.3,492.1,129.3,495.2,129.3,498.2z"/>
		<path d="M744.9,586c-0.3,2-0.1,3.6,0.4,5.1c0.7,2.2,2.1,3.8,4.6,3.9c2.3,0,3.7-1.3,4.5-3.5c1.4-4,0.2-7-3.5-8.9
			c-3.4-1.8-7.4-2.5-9.7-6.5c-1.3-2.3-9.6-1.2-11.1,1.2c-0.8,1.4-1.2,1.4-2.7,0.7c-3.4-1.5-5.3,0-5.3,3.7c0,1.1-0.1,2.2-0.1,3.4
			c0,1.3-0.6,3.1,0.9,3.5c1.6,0.5,3.7,1.2,5.1-0.4c0.8-0.8,1-0.5,1.6,0.1c4.8,4.7,9.9,4.2,13.9-1.4
			C743.7,586.6,744.1,586.5,744.9,586z M739.3,585c-2,0.2-4-0.3-6-0.7c-0.6-0.1-1.3-0.4-1.3-1.1c-0.1-0.7,0.6-1.1,1.1-1.3
			c3.9-1.2,7.8-1.3,11.8-0.1c0.6,0.2,1.2,0.6,1.2,1.3c0,0.9-0.8,1.1-1.5,1.2C742.8,584.8,741.2,585.2,739.3,585z"/>
		<path d="M742.9,410.7c-1.9-0.4-1.7-2.1-2.7-3c-3.2-2.8-9.6-2.5-12.3,0.8c-0.6,0.8-0.7,1.4-1.8,0c-1.1-1.4-3.3-0.6-4.9-0.3
			c-1.6,0.3-0.7,1.9-0.8,2.9c-0.1,1.1,0,2.3-0.1,3.4c-0.4,4.8,1.4,6.3,5.9,4.5c1.4-0.6,1.4-0.1,2,0.7c2.1,2.9,9.8,3.6,11.7,0.6
			c2.2-3.4,5.7-4.3,8.9-5.9c3.6-1.8,5.3-5.5,3.6-9.2c-1-2.1-2.5-3.7-5-3.3c-2.4,0.4-4,2-4.5,4.5
			C742.7,407.8,742.9,409.2,742.9,410.7z M737.1,415.8c-1.7-0.2-3.6-0.4-5.4-0.7c-0.6-0.1-1.2-0.5-1.3-1.2c-0.1-0.8,0.5-1,1.2-1.2
			c4-1,7.9-1,11.8,0.1c0.5,0.1,1,0.4,1,1c0.1,0.6-0.5,0.8-1,1.1C741.5,415.9,739.3,415.5,737.1,415.8z"/>
		<path d="M641.5,397.8c0,3.7,2.2,6.5,5.1,6.6c2.7,0.1,5.1-2.9,5.1-6.2c0-3.4-2.4-6.5-5.2-6.5C643.6,391.5,641.4,394.2,641.5,397.8z
			"/>
		<path d="M640.6,485c1.5-0.2,2.9-0.4,4.3-0.7c1.3-0.2,2-1.1,1.9-2.4c0-1.2-0.6-2-1.8-2.2c-3.1-0.8-6.3-0.8-9.4,0.1
			c-1,0.3-1.8,1.1-1.7,2.3c0.1,1.1,0.7,2,1.8,2.2C637.4,484.6,639,484.8,640.6,485z"/>
		<path d="M614,468.1c2.5,0.1,4.5-1.9,4.4-4.5c0-2.4-1.8-4.3-4.3-4.3c-2.5,0-4.4,1.9-4.4,4.5C609.6,466.2,611.5,468.1,614,468.1z"/>
		<path d="M609.6,443.1c0.1,2.4,1.9,4.2,4.4,4.1c2.6,0,4.5-2,4.4-4.5c-0.1-2.2-2.5-4.4-4.8-4.3C611.3,438.5,609.5,440.7,609.6,443.1
			z"/>
		<path d="M614.1,486.5c2.5,0.1,4.3-1.7,4.3-4.2c0-2.5-1.7-4.4-4.1-4.5c-2.3-0.1-4.4,1.8-4.5,4.1
			C609.8,484.7,611.5,486.5,614.1,486.5z"/>
		<path d="M614.3,517.4c-2.5,0-4.2,1.8-4.1,4.3c0.1,2.3,2.1,4.3,4.3,4.3c2.4,0,4.5-2.2,4.4-4.5C618.8,519.2,616.7,517.4,614.3,517.4
			z"/>
		<path d="M610.2,500.9c0,2.9,1.5,4.5,4.2,4.5c2.4,0,4.2-1.8,4.3-4.3c0-2.6-1.8-4.4-4.6-4.2C611.6,496.9,610,498.1,610.2,500.9z"/>
		<path d="M360.2,572.5c1.8-0.3,3.4-0.6,5-0.9c0.9-0.2,1.5-0.7,1.5-1.7c0-0.9-0.4-1.7-1.3-1.8c-2.1-0.2-4-1-6.3-0.6
			c-3.5,0.6-7.1,0.6-10.7,0.6c-16.3,0.1-32.6,0.2-48.9,0.3c-2.8,0-5.5-1.6-8.4-0.1c-1,0.5-1.9,0.7-1.9,2c0,1.5,0.9,1.9,2.1,2.1
			c5.7,0.8,11.4-0.2,17.1-0.2c6.2,0,12.5,0,18.7-0.1c7.8-0.2,15.6-0.2,23.4-0.3C353.7,571.8,357.1,571.3,360.2,572.5z M357.8,570
			c0,0.1,0,0.1,0,0.2c-19.9,0-39.9,0-59.8,0c0-0.1,0-0.1,0-0.2C317.9,570,337.8,570,357.8,570z"/>
		<path d="M361,427.7c-10,1.1-20,0.6-30,0.7c-10.1,0.1-20.1,0-30.2,0.2c-3.1,0-6.2-1.5-9.4-0.1c-1.2,0.5-2.4,0.7-2.2,2.4
			c0.2,1.4,1.2,1.5,2.4,1.8c4.5,1.3,8.9-0.3,13.4-0.2c16.8,0.2,33.7,0,50.5,0c3.1,0,6.2,0.8,9.4-0.1c1.2-0.3,1.9-0.7,1.9-2
			c0-1.1-0.5-1.8-1.6-1.8C363.6,428.6,362.5,427.4,361,427.7z"/>
		<path d="M213.2,500.4c0,25.1,0,50.1,0,75.2c0,5,2.4,7.3,7.5,7.3c14.4,0,28.8,0,43.1-0.1c5.9,0,7.9-2.1,7.9-8
			c0-24.9-0.1-49.8,0-74.8c0-16.7,0.4-33.4,0.5-50.2c0.1-8.7,0-17.4-0.1-26.1c0-3.6-2.1-5.8-5.7-5.8c-15.5-0.1-31,0-46.5,0.1
			c-4,0-6.1,2.6-6.1,6.9c0,18.8,0,37.6,0,56.4c0,6.3,0,12.7,0,19C213.6,500.4,213.4,500.4,213.2,500.4z M242.2,519
			C242.2,519,242.2,519,242.2,519c-1.3,0.1-2.7,0.1-4,0.1c-6.1,0-12.1,0-18.2,0c-0.7,0-1.9,0.3-1.8-1c0-1,0.9-0.9,1.7-0.9
			c0.3,0,0.6,0,0.9,0c14.3-0.1,28.5-0.2,42.8-0.2c0.9,0,2.5-0.4,2.4,1.1c-0.1,1.5-1.7,0.8-2.5,0.8C256.3,519,249.3,519,242.2,519z
			 M247.2,484c0-0.1,0-0.2,0-0.3c5.9,0,11.9,0,17.8,0c0.9,0,2.4-0.7,2.5,0.9c0.1,1.7-1.5,1-2.3,1c-14.5,0.1-29,0.1-43.5,0.1
			c-1.2,0-3.3,0.8-3.3-0.9c0-1.2,2.2-0.9,3.5-0.9C230.3,484,238.8,484,247.2,484z M242.3,548.4C242.3,548.4,242.3,548.4,242.3,548.4
			c0.6,0,1.2,0,1.8,0c7,0,13.9,0,20.9,0c0.7,0,1.9-0.3,1.9,0.9c0,0.9-1.1,0.6-1.8,0.7c-0.5,0-1,0-1.5,0c-10.1,0-20.3,0.1-30.4,0.1
			c-4.8,0-9.6,0-14.4,0c-0.6,0-1.3,0.3-1.4-0.6c-0.1-0.8,0.7-0.9,1.3-1c0.8-0.1,1.6-0.1,2.5-0.1
			C228.1,548.4,235.2,548.4,242.3,548.4z M217.5,452.2c3.3-1.8,48.5-1.6,50.3,0C251.1,452.2,234.7,452.2,217.5,452.2z M269,487.7
			c0.7,0.2,0.9,0.6,0.9,1.2c0,8.2,0,16.4,0,24.6c0,0.6,0,1.4-0.7,1.5c-1.1,0.1-0.9-0.9-1-1.5c-0.1-0.5-0.1-1-0.1-1.5
			c0.1-6.9,0.1-13.9,0.3-20.8C268.3,489.9,267.8,488.6,269,487.7z M215.5,488.2c0.2,0,0.4,0,0.5,0c0,8.8,0,17.6,0,26.4
			c-0.2,0-0.4,0-0.5,0C215.5,505.8,215.5,497,215.5,488.2z"/>
		<path d="M596.2,616.5c-3.8,0-6.6,0.5-9,2.2c-1,0.7-1.8,1.9-1.6,3.1c0.2,1.3,1.5,1.1,2.5,1.2c1.5,0.2,2.8,0.8,3.8,1.8
			c2,2,3.9,1.9,6,0.3c1.2-0.9,2.4-1.5,3.9-1.6c1.2,0,2.5-0.3,2.7-1.6c0.2-1.5-0.4-2.8-1.8-3.6C600.4,617,598,616.4,596.2,616.5z
			 M598.7,621.5c-3.2,0-6.3,0-9.5,0c-0.6,0-1.4,0.1-1.6-0.6c-0.2-0.7,0.5-1,1-1.3c3.3-1.9,6.8-2,10.4-1.1c1.6,0.4,3.9,0.9,3.7,2.6
			C602.5,622.7,600.1,621.8,598.7,621.5z"/>
		<path d="M466.7,464.7c0,2.5,2.2,4.7,4.7,4.7c2.5,0,4.7-2.3,4.7-4.7c-0.1-2.6-2.1-4.7-4.7-4.7C468.8,460,466.7,462.2,466.7,464.7z"
			/>
		<path d="M730,484.6c1.6-0.2,2.9-0.4,4.2-0.7c1.1-0.2,1.9-0.8,1.9-2.1c0-1.1-0.5-2-1.6-2.3c-3.3-1.1-6.6-1-9.9,0
			c-1,0.3-1.5,1.1-1.4,2.1c0,1.1,0.5,2.1,1.7,2.3C726.7,484.3,728.5,484.5,730,484.6z"/>
		<path d="M234.4,647.7c2.8,0,4.8-2,4.8-4.8c0-2.7-2.1-4.7-4.9-4.8c-2.8-0.1-5,1.9-5.1,4.6C229.1,645.8,231,647.6,234.4,647.7z"/>
		<path d="M228.6,358.4c0,2.7,2.4,4.8,5.3,4.7c2.8-0.1,4.8-2.2,4.7-4.9c-0.1-2.7-2.5-4.8-5.4-4.7
			C230.4,353.5,228.5,355.5,228.6,358.4z"/>
		<path d="M350,641.8c0,2.8,2,5,4.7,5c2.7,0.1,5.2-2.4,5.1-5c-0.1-2.4-2.3-4.8-4.7-4.8C352.1,636.9,350,638.8,350,641.8z M355,640.7
			c0.7,0.2,1.2,0.5,1.1,1.2c-0.1,0.9-0.7,1.2-1.5,1.2c-0.7,0-1.2-0.4-1.1-1.2C353.7,641.2,354.2,640.7,355,640.7z"/>
		<path d="M354.9,353.2c-2.9-0.1-5.6,2.4-5.6,5.1c0,2.2,2.6,4.8,5.1,4.9c2.5,0.1,5.1-2.5,5.1-5.1
			C359.6,355.6,357.3,353.2,354.9,353.2z"/>
		<path d="M323.2,527.4c17.9,0,35.9,0,53.8,0c4.9,0,7.8-3,7.9-7.8c0.1-12.5-0.1-25,0.3-37.5c0.2-6.2-2.9-9.2-9.2-9.2
			c-24.1,0-48.3,0.1-72.4,0.1c-4.4,0-7.7,1.7-9.1,6.2c-0.5,1.5-1.6,1.7-2.9,1.7c-3-0.1-4.4,1.5-4.1,4.4c0.3,3.8,0.4,6,4.3,5.4
			c1.8-0.3,2.3,0.7,2.3,2.4c-0.1,5.4-0.1,10.9-0.1,16.3c0,2-1,2.4-2.7,2.5c-3.1,0.2-4.1,1.5-4,4.9c0,2.6,0.7,4.7,4,4.6
			c1.4-0.1,2.6,0.1,3.2,1.7c1.5,3.8,4.6,5.1,8.3,5.1c6.8,0.1,13.6,0,20.3,0C323.2,527.8,323.2,527.6,323.2,527.4z M340,525.9
			c0,0.2,0,0.4,0,0.6c-12.1,0-24.2,0-36.3,0c-2.4,0-4.5-0.5-6.2-2.1c-1.2-1.1-2-2.2,0.1-3.6c2.8-1.9,2.3-7.5-0.7-9
			c-1-0.5-1.4-1.1-1.4-2.1c0.1-5.6,0.1-11.3,0.1-16.9c0-1.2,0.3-1.9,1.6-2.6c2.8-1.3,3.2-7.3,0.5-8.9c-2.2-1.3-1.6-2.4-0.6-3.9
			c1.3-1.8,3.1-2.6,5.3-2.5c4.5,0,9,0.1,13.5,0c20-0.6,40-0.5,60-0.5c5.3,0,7.3,2,7.3,7.3c0,12.3,0,24.6,0,37c0,5-2.3,7.3-7.4,7.3
			C364,525.9,352,525.9,340,525.9z"/>
		<path d="M120.2,668.9c-4.1,0-8.2,0-12.3,0c-0.9,0-2.1-0.1-2.2,1.1c-0.1,1.6,1.3,1.3,2.3,1.3c8.1,0.1,16.2,0.2,24.2,0.2
			c0.4,0,0.8,0,1.2-0.1c0.9-0.1,2-0.2,1.9-1.5c-0.1-1-1.2-1.1-1.9-1.1C129.1,668.9,124.7,668.9,120.2,668.9
			C120.2,668.9,120.2,668.9,120.2,668.9z"/>
		<path d="M119.6,331.1c-4.1,0-8.2,0-12.3,0c-1,0-2.3-0.1-2.3,1.4c0,1.2,1.3,1.3,2.1,1.3c8.5,0,17,0,25.4,0c0.9,0,2-0.1,2-1.4
			c-0.1-1.3-1.2-1.2-2.1-1.2C128.2,331.1,123.9,331.1,119.6,331.1z"/>
		<path d="M679.4,477.4c-0.2,2.1,0.7,3.8,1.8,5.5c2.8,4.4,8.3,4.2,10.7-0.4c2.1-3.9,2-7.9-0.1-11.8c-2.5-4.5-8-4.5-10.7-0.1
			C679.8,472.7,679.4,475,679.4,477.4z M692,477.2c-0.4,1.8-0.9,4.1-3,4c-2.3,0-3-2.4-3-4.3c0-1.8,0.8-4.1,2.9-4.1
			C691.2,472.8,691.4,475.3,692,477.2z"/>
		<path d="M391.7,383.2c-22,1.3-44,0.7-66,0.9c-3.1,0-6.3,0.3-9.4-0.8c-1.9-0.7-3.8,1-5.9,1c-16.8,0-33.6,0.2-50.4,0.3
			c-13.6,0.1-27.1,0.1-40.7,0.1c-2.1,0-4.3,0.2-6.3-0.8c-1.6-0.8-3.1,0.8-4.7,0.8c-2.3,0-4.5,0.1-6.8,0.1c-1.2,0-2.3,0.4-2.3,1.9
			c0,1.6,1.1,1.8,2.3,1.8c1.7,0.1,3.5,0.1,5.2,0.1c1.5,0,2.7,0,3.7,1.6c0.9,1.4,2.7,1.5,3.5,0c0.9-1.7,2.2-1.6,3.6-1.6
			c30.8-0.2,61.7-0.4,92.5-0.6c1.7,0,3.3-0.2,4.3,2c0.5,1.1,2.7,1.6,3.2,0c0.8-2.3,2.3-2,3.9-2c7,0,14,0,20.9-0.1
			c14.5-0.1,29.1-0.3,43.6-0.5c1.6,0,3.2-0.4,3.9,2c0.4,1.4,3,1.2,3,0.6c-0.2-3,5.7-1.8,3.6-5.4
			C395.5,383.3,393.2,383.4,391.7,383.2z M312.8,386.2c0,0.1,0,0.3,0,0.4c-32.6,0-65.2,0-97.9,0c0-0.1,0-0.3,0-0.4
			C247.6,386.2,280.2,386.2,312.8,386.2z M388.3,385.7c0,0.2,0,0.3,0,0.5c-23.2,0-46.5,0-69.7,0c0-0.2,0-0.3,0-0.5
			C341.9,385.7,365.1,385.7,388.3,385.7z"/>
		<path d="M168.5,498.8c-1.7,4,1.7,6.6,2.8,9.9c0.2,0.6,0.7,0.7,1.3,0.7c0.7,0,1.2-0.3,1.4-1c0.4-1.1,0.3-2.2-0.4-3.2
			c-3.2-4.5-3.1-9,0.2-13.4c0.7-0.9,1.1-2,0.5-3.2c-0.3-0.6-0.6-1.1-1.3-1.2c-0.7,0-1.3,0.2-1.5,0.9
			C170.1,491.7,167,494.6,168.5,498.8z"/>
		<path d="M373.6,500.8c0,2.7,2,4.9,4.8,5c2.6,0.1,4.7-2.1,4.7-5c0-2.8-1.9-4.7-4.8-4.7C375.7,496,373.6,498.1,373.6,500.8z"/>
	</g>
</g>
<g id="text">
</g>
<g id="scratch">
</g>
<g id="guides" display="none">
</g>
</svg>
