<?xml version="1.0" encoding="utf-8"?>
<!-- Generator: Adobe Illustrator 26.0.2, SVG Export Plug-In . SVG Version: 6.00 Build 0)  -->
<svg version="1.2" baseProfile="tiny" xmlns="http://www.w3.org/2000/svg" xmlns:xlink="http://www.w3.org/1999/xlink" x="0px"
	 y="0px" viewBox="0 0 1000 1000" overflow="visible" xml:space="preserve">
<g id="bg">
</g>
<g id="counters">
	<g>
		<g>
			<path fill="#3B3B3B" stroke="#000000" stroke-width="2" stroke-miterlimit="10" d="M263.8,345.1c14.3-5,30.7-0.4,41.2,10.2
				c3.3,3.2,5.5,8.2,10.6,8.6c6.4,0.2,4.3,7.9,4.9,12.1c4.4,0.1,8.8,0.3,13.2,0.7c0.1,6.8,0.1,13.7,0.3,20.5
				c7.3-0.5,14.4-3.3,21.7-1.6c0.2,7.6,1.3,15.5-1.3,22.8c-2.1-1-4.2-2-6.3-3c0.1,2.6,0.2,5.2,0.3,7.8c73,1.6,146.1,0.5,219.2-0.1
				c1.4-1.7,2.9-3.4,4.3-5.1c1.8,3.5,3.5,7.1,5.1,10.8c14.5,2.2,29.2,0.7,43.8,1.1c-1.7,2-4.8,3.6-4.5,6.7
				c-0.3,11.1-0.3,22.4,1.4,33.4c4,0.3,8.7-0.6,11.7,2.6c6.3,5.8,15.2,1.3,22.6,2.5c16.1,6.4,34.1,5.6,51.1,8.2
				c11.4-2.9,21.6,4.1,32.8,4.4c8.5,0.7,16.9,1.9,25.3,2.8c12.2-1.5,30.1-0.1,32.5,14.8c3.1-0.3,6.1-0.5,9.1-0.8
				c-2-1.5-4.1-3-6.1-4.6c0.1-1.7,0.2-3.4,0.3-5.1c2.8-0.3,5.6-0.6,8.4-0.8c0.6,1.6,1.2,3.1,1.9,4.7c-0.7,1.8-1.3,3.7-2,5.5
				c3.4,0.7,6.9,1.4,10.3,2c-4.5,3.8-5.5,9.9-9.2,14.4c-0.5-5.2-0.5-10.4-0.7-15.6c-2.5,1.6-4.9,3.3-7.3,5c-0.7-0.6-2-1.9-2.6-2.5
				c1.5,3.7,3.6,7.1,6,10.3c-0.4,0.8-1.1,2.5-1.5,3.3c1.6-0.9,3.2-1.8,4.8-2.8c0.6,3.7,1,7.4,1.5,11.1c1.6-1.3,3.1-2.7,4.7-4.1
				c-0.1,1-0.3,2.9-0.4,3.9c1.6,0,4.8,0.1,6.4,0.1c-0.5,6-6.5,9.6-6.5,15.5c4,0.2,8,0.3,12.1,0.3c0,0.7-0.1,2.2-0.1,2.9
				c-3,0.1-5.9,0.1-8.9,0.2c2.3,14.7,20.9,6.4,31.2,8.2c-1.3-17.8,22.1-28.7,35.5-17.8c-14.2-8.6-34.1,0.4-35.1,17.5
				c3.9-0.4,7.8-0.7,11.7-0.6c0.7-1.5,1.3-2.9,2-4.4c1.1,1.1,2.2,2.2,3.3,3.3c-9.1,6.5-21,2.9-31.4,3.8c0.1,4.5,0.1,8.9,0,13.4
				c16.1,0.6,32.1,0.3,48.2,0.2c3.1-9.3-3.4-15.5-7.9-22.7c-2.9-0.1-2.9,3.4-4.2,5.2c-1.4-2.4-2.6-4.9-3.6-7.5
				c7.3-1.7,11.9,3.7,15.3,9.4c0-1.5,0.1-4.5,0.1-6c0.2,1.2,0.7,3.7,0.9,5c2.7-2,5.4-4,8.2-5.9c-2.2-3.4-4.4-6.8-6.3-10.4
				c4,3.9,6.6,8.9,8.4,14.1c1.7-0.9,3.3-1.8,5-2.6c-0.8,1-2.3,3-3.1,4c4.9,0.1,9.9,0.3,14.8-0.6c3.9-4.4,1.7-10.3-1.8-14.1
				c3.2,0,6.4,0,9.5,0c0.3,13.1,0.3,26.1-0.1,39.2c-1.5,11.1-16.8,14.8-24.6,7.7c-13.6,2.3-27.3,2.5-41.1,2.3c-0.9-5-1.6-10-1.5-15
				c-1.9,0-3.9-0.1-5.9-0.1c-0.4,1.9-0.8,3.7-1.2,5.6c2.1-0.8,4.1-1.7,6.1-2.7c-0.1,0.9-0.3,2.7-0.4,3.6c-3.1-0.1-6.2-0.2-9.3-0.6
				c-1.5,6.8-3.3,13.7-6.4,20c0.6-9.6,5.3-18.2,7-27.5c-1.1,1-2.2,2-3.3,3c-2.6-1.2-5.2-2-7.9-2.6c1.8,3.1,5.7,5.6,5.2,9.5
				c-2.6,4.7-8.1,6-13,6.8c14.9,31.7-7.1,71.6-40.1,80.2c-0.2-1.4-0.1-2.7,0.4-4c-1.5,0.9-2.9,1.8-4.4,2.7c1.3,0.2,2,1,2.1,2.4
				c-28,6-58.6-7.4-71-33.5c-2.2-3.3-1-7.1,0.2-10.5c-0.8,1.9-1.7,3.8-2.6,5.6c-7.1-19.2-4.2-41.2,6.3-58.6c-5.1,0-10.2,0-15.2,0.2
				c-2.2,14.6-6.2,28.9-9.3,43.3c4.2,0,8.3,0,12.5,0c0,0.6,0,1.6,0,2.2c-19.8-1.5-39.6-1.8-59.5-1.5c0-4.6-0.1-9.2-0.1-13.8
				c-16.9,0.1-33.7-2.6-50.6-1.4c-0.3,2.7-0.5,5.4-0.8,8.1c-5.7,0.6-11.3,1.1-17.1,1.2c-0.2-3-0.3-6.1-0.5-9.1
				c-25.7-1.6-52.4,3.2-77.3-5.3c-2.9,14.8-14.5,25.1-26.8,32.6c-13.2,9.3-26.6,18.4-39.6,28c-0.8-2.4-1.6-4.8-2.5-7.2
				c-2.1,1.3-4.3,2.6-6.4,3.8c3.5-3.8,7.4-7.2,10.7-11.1c1.3,0.9,2.5,1.8,3.7,2.7c-2.7,1.7-5.2,3.7-7.3,6.1
				c11.6-2.7,19.8-11.6,29.4-17.7c-3.3-1.1-6.8-0.8-10.1,0.1c3-1.8,5.8-3.8,7.7-6.7c-4.3-3.6-9.4,1.3-11.8,4.9
				c1.9,1.3,3.7,2.6,5.6,3.9c-4,3.3-8.4,6.3-13.7,7.2c2-1.9,4-3.7,6-5.6c-1-1.2-2-2.4-3.1-3.6c-4.5,3.6-8.9,7.5-13.7,10.9
				c5.4-9.9,18.1-13.8,26.5-21.2c-1.6-1.2-3.3-2.3-4.9-3.5c10.7,0.2,22.4,1.2,30.4-7.5c0.1,2.8,0.1,5.6,0.3,8.4
				c2.4-1.6,4.6-3.4,6.9-5.2c-2.1-1.1-4.2-2.2-6.3-3.3c0.8-1.1,2.5-3.4,3.3-4.6c-4.7,3.3-9.4,6.7-14.2,10.1c-1-3-1.1-7-4.6-8.2
				c0.9,3.3,2.1,6.4,3.1,9.7c-4.7,1.1-5.1-2.9-5.5-6.4c-2.5-0.1-5-0.1-7.5-0.1c1.8-0.1,5.6-0.3,7.4-0.4c-0.6-3.2-2.3-4.6-5.3-4.2
				c-7.2-0.9-2.7,12.6-9.9,10.8c0.7-3.2,1.7-6.3,2.4-9.5c-3,2.3-4.3,5.9-5.9,9.2c2,0.7,4,1.5,6,2.2c-1.8,0.9-3.5,1.8-5.3,2.7
				c-2.6-6.3-6.5-12.2-12.8-15.3c2.3,3.1,5.1,5.8,7.9,8.5c-2.1,0-4.2,0-6.4,0c-0.8-5.1-4.2-8.5-8.9-10.3c0.3-2,0.5-4,0.8-6.1
				c-9-2-18.3,0.2-27.3-1.5c-10.6-10.6-27.5-6.2-41-5.7c-4.1,7.3-9.7,14.7-10.3,23.1c9.8,2.1,21.7,2.2,28.6,10.6
				c2.6,2.5,4.2,6.9,8.4,6.7c4.6-3.6,6.9-9.9,12.8-12c12.4-6.5,28.7,3.5,29.5,17.3c0.4,9.4-3.1,22-14.5,22.3c0.1,1.3,0.4,4,0.5,5.3
				c7.5-1.5,11.2-11.1,20-10.1c-6.3,7.1-15,11.3-23.9,14c0-2.7,1.3-5,2.4-7.3c-2.3,0.3-4.7,0.6-7,0.8c1.3,2,2.5,4,3.8,6
				c-11.6-1.9-26.2,4.4-35.8-3.2c4.4-0.7,8.8,0.6,13.1,1.6c-0.1-1.5-0.2-4.5-0.3-6c-4.8,1.2-9.7,2-14.7,2c1.3,1.8,2.5,3.6,3.8,5.4
				c-7.7,1-15.5,0-23.2,0.3c0.7-2.7,1.3-5.5,1.9-8.2c-2.5,0.5-5,0.9-7.5,1.4c0.9,2.3,1.9,4.6,2.8,6.9c-31-0.7-62-0.1-93-0.4
				c-5.1-0.3-9.9-2.2-13.8-5.5c-19.5-15.1-39-30.2-58.4-45.4c-7-5.1-10.2-13.4-13.7-21c2.4,0.1,4.7,0.3,7.1,0.4
				c-0.1-1.2-0.2-3.7-0.3-4.9c-2.3,1-4.5,2-6.9,3c-3.4-20.2,10.9-42.5,31.9-45c11-0.9,22.1-1.5,33.1-1.5c-1.5,2.3-2.8,4.8-3.7,7.5
				c10.6-2.8,21.4,0.3,32-2.4c-1.5-1.6-2.9-3.3-4.4-5c27.6-2.2,55.4-2,83.1-2.6c-0.3,0.9-0.9,2.8-1.2,3.7
				c-5.8-1.7-11.7-0.5-17.5,0.4c0.1,0.6,0.2,1.8,0.3,2.5c7.2,0.5,14.3,0.6,21.4-0.8c-0.6-1.5-1.2-3.1-1.8-4.6
				c25.9-4.6,53.5-0.9,80-4c0.1,1,0.3,3.1,0.3,4.1c-4-0.4-7.9-0.8-11.9-1c0.1,8.7,10.7,2.7,15.9,3.2c-1.4-1.5-2.8-2.9-4.1-4.4
				c7.2-3.8,16.1-0.8,23.9-2.2c-0.9,2.5-1.8,5-2.6,7.6c4.9-0.5,9.8-1.2,14.7-1.9c-1.7-4.2-9-0.5-12.5-3.6
				c11.6-4.7,25.7-1.1,36.1,5.3c6.8,7,17,1.4,25.4,4.2l0.2-2.4c-2.9,0.1-5.8,0.1-8.8,0.1c2-0.7,4-1.4,6-2c1.8-5.1,1.5-10.5,1.6-15.7
				c-1.6,0.2-3.2,0.4-4.8,0.5c1.5-1.2,3-2.5,4.5-3.6c0.3-7.9,0-15.8,0.4-23.7c-1.5,0.3-3.1,0.6-4.6,0.9c2-2.5,4-5,4.8-8.2
				c-5.3-0.2-10.5-0.1-15.8,0.4c1.2,1.9,2.3,3.7,3.5,5.6c-4.1,4.3-6,17.3,0.8,18.3c-0.9,1.6-1.8,3.2-2.7,4.7c1.3,0,3.9,0,5.2,0
				c-0.3,2.1-0.5,4.3-0.7,6.4c1.8,1.4,3.7,2.9,5.5,4.2c0.4,2.2,0.8,4.4,1.2,6.6c-7.5-6.4-9.4-22-21.8-19.2c-0.3,2.5-0.6,5-0.9,7.4
				c-23.9-0.7-47.9,1.2-71.7-1.4c-75.2,0.4-150.5-0.8-225.7,1.2c-12.7,17.9-24.7,36.2-36.8,54.5c6.8,0.9,14.5-1.3,20.7,1.3
				c-6.8,0.7-13.7,0.2-20.6,0.3c-0.8,15.3,1.2,30.7-1.1,45.9c-4-13.8-0.7-29-1.8-43.4c-2.3,1.3-4.6,2.7-7,4.1
				c-5.7-4.6-5.1-13.4-10.5-18.7c3.2,2.9,6.2,5.9,9.6,8.5c-0.9-4.4-4.6-7.3-7.5-10.5c-0.9,0.2-2.6,0.5-3.4,0.7
				c0.4-4.4,1.1-8.8,2-13.2c3.7-2.2,7.4-4.6,10.8-7.3c2.1,0,4.1,0.1,6.2,0.1c0.1-7.1,0.1-14.2,0-21.3c-15.5-0.2-31,0.3-46.5,0
				c-1.5-22.8,2.3-46.1-3.2-68.5c16.7-0.3,33.3,0.7,50,0.3c-4.3-15.2,1.6-30.4-0.2-45.9c21.5-0.5,43,0.1,64.5-0.4
				c2.1-5,4.3-10,6.3-15c-17.7-0.4-35.5,0.1-53.3-0.3c-0.2-1.8-0.4-3.7-0.6-5.5c18.9-2.8,38.2,0.4,57.1-1.6
				c3.7-6.8,6.2-14.1,10-20.8c-7.6,0.6-14.7-4.9-22.2-1.2c0.7-2.3,1.3-4.5,1.9-6.8c-0.9-0.1-2.8-0.3-3.8-0.4
				c0.2,3.2,0.3,6.4,0.3,9.7c4.3-0.5,8.6,0.4,12.9,1.2c-0.2,2.3-0.4,4.6-0.6,6.8c-7.1,0.4-14.3,0.4-21.5-0.1
				c-0.2-2.2-0.3-4.4-0.5-6.6c2.5-0.4,4.9-0.8,7.4-1.2c0.1-3.1,0.2-6.2,0.3-9.3c-25.3,0.7-50.9-1.7-75.9,1.2c3.8,3.6,9.3,1.8,14,2.2
				c20.2-0.9,40.5,0.3,60.7-1l0.3,2.7c-25.2,0.1-50.5-0.5-75.7-0.9c0.1-2,0.3-3.9,0.4-5.9c27.6-0.4,55.2,0,82.8-0.2
				c0.3,1.7,0.6,3.5,0.9,5.2c1-2.2,2-4.4,3-6.7c0,1.6,0,4.8,0,6.4c1.2-0.1,3.4-0.4,4.6-0.5c-0.3-1.5-0.6-3.1-0.9-4.6
				c0.5-0.7,1.4-2,1.9-2.6c6.5-0.2,12.9,0.3,19.4-0.2c5.5-6.4,7.2-15.3,12-22.2c1.4,4-0.7,7.7-2.5,11.1c2.1,0,4.2,0,6.3-0.1
				c-0.7-3.7-1.4-7.4-2-11.1c6.1,1,2.7,8.6,3.4,13c5.1,0.3,10.3,0.5,15.4,0.4c0.1-9.1,0.1-18.2-0.1-27.3c-5.1-0.2-10.2-0.3-15.3,0
				c0.1,4.3,0.1,8.6,0,13c-1-0.6-2.9-1.6-3.8-2.2c-1,0.3-3,0.9-4,1.2c4.5-3.5,6.9-8.4,7.2-14c6,0.9,12.1,1.1,18.2,1.1
				C263.7,334.7,263.8,339.9,263.8,345.1z M262.9,350c13-3.4,27.3-1.6,37.7,7.4c-6,10.8,7.6,13.4,15,9.7c-1.7-0.2-5-0.7-6.7-0.9
				c-1-11.3-13.7-17.3-23.4-20.1C278.2,345.8,267.8,342.8,262.9,350z M263.6,352.4c0.4,4.1,0.8,8.2,1.4,12.3
				c4.8-0.2,9.5-0.3,14.3-0.2c0.7-1.6,1.4-3.1,2-4.7c6.1,0.1,12.3,0.1,18.4-0.2C291.1,349.4,275.5,347.5,263.6,352.4z M238.7,356.5
				c-2.1,3.4-4.1,6.8-6,10.3c3.5-0.1,6.9-0.1,10.4,0c0.1-2.2,0.1-4.5,0.1-6.7c6.8,0.8,13.7,1.5,20.4-0.2
				C255.3,359,246.4,360.8,238.7,356.5z M282.4,361.6c-0.2,10.2-0.5,20.5,0.5,30.7c4.8,0.1,9.6,0.1,14.4,0
				c0.5-10.1,0.4-20.1,0.3-30.2C292.5,361.7,287.4,361.5,282.4,361.6z M244.3,363.2c6.2,2.1,13.2,2.1,19.5,0.1
				C257.3,362.7,250.8,362.7,244.3,363.2z M317.4,366.5 M268.4,366.3c1.8,2,8.4,2.8,9.8,0C275.4,364.8,271.4,365.1,268.4,366.3z
				 M265.5,366.4 M246.7,365.6c-0.4,3-0.8,6-1.3,9.1c-0.8,0.2-2.3,0.5-3.1,0.7c0.9-0.1,2.8-0.4,3.7-0.5c0.2,7.1,0.1,14.2,0,21.3
				c5.1,0.2,10.3,0.2,15.4,0.2c0.1-10.2,0.2-20.4-0.1-30.6C256.4,365.9,251.6,365.8,246.7,365.6z M263.8,369c-0.1,4.7,0,9.4,0,14.1
				c5.6,0.1,11.2,0.1,16.8-0.2c-0.3-3.6-0.7-7.1-1.2-10.6c-1.2,2.4-2.4,4.9-3.6,7.3c0.3-3.8,1.4-7.5,4.2-10.3
				C274.5,369.2,269.1,369,263.8,369z M213.4,368.8c0.1,2.8,0.2,5.6,0.2,8.5c3.6,0,7.1-0.1,10.7-0.1c0.1-1.2,0.4-3.6,0.5-4.7
				c0,1.2-0.1,3.6-0.2,4.8c4.5-0.7,21.9-0.5,9.5,3.2c0.1,1.8,0.1,3.5,0.1,5.3c3.4,1.1,6.9,1.9,10.4,2.5c-3.2-5.9-5.1-12.4-4.6-19.1
				C231.1,368.8,222.3,368.9,213.4,368.8z M211.5,376.6c1.4-1.7,1.5-4.6,0-6.3C209,370.3,209,376.6,211.5,376.6z M298.5,373
				c6.5,0.9,17.7,5.6,20.9-2.4C312.4,370.5,305,369.8,298.5,373z M300.1,376.9c-0.1,1.7-0.2,3.4-0.3,5.2c4.6-0.1,9.2-0.1,13.8-0.2
				c0-0.8-0.1-2.3-0.1-3.1C309.1,378.7,304.6,378,300.1,376.9z M317.7,378.4 M320.9,378.9c-0.6,2.3-1.1,4.7-1.7,7
				c-6.6-0.5-13.3-0.8-20-0.6c0.5,3.3,1,6.7,1.4,10c10.4,0.6,20.8,0.2,31.2,0.5c0.2-5.7,0.2-11.5,0.1-17.3
				C328.3,378.7,324.6,378.8,320.9,378.9z M217.6,385.4c5,0.3,10.1,0.3,15.1,0.3c0-1.7-0.1-5.1-0.1-6.7
				C226.5,378.4,219.9,378.7,217.6,385.4z M187.9,382.6c0,0.9-0.1,2.6-0.1,3.5c6.4,0,12.8,0,19.2-0.1c0.1-0.9,0.2-2.6,0.3-3.5
				C200.8,382.3,194.3,382.3,187.9,382.6z M263.9,384.8c-0.1,4.5-0.2,8.9-0.4,13.4c5.2,0.1,10.4,0.1,15.6,0.2
				c0.3-4.5,0.6-9,0.9-13.5C274.7,384.9,269.3,384.9,263.9,384.8z M217.1,387c-2,4.4-4,8.9-5.7,13.4c5.4,0.2,10.9-0.4,16.2,1.1
				c-24.5,2-49.4-0.5-74.1,1.3c1.1,2.1,2.7,3.1,5,3c25.3,0.2,50.7-0.3,76,0c0-1.1-0.1-3.2-0.1-4.3c-1.3,0.5-3.9,1.6-5.2,2.1
				c-0.6-3.8,4.8-3.5,7-5.3c-0.3,2.6-0.7,5.2-1,7.7l2.5,0c-0.5-2.2-0.9-4.4-1.3-6.7c2.8,0.6,5.6,1.2,8.3,1.8c0.1-4,0-8-0.1-11.9
				c-2.4-0.1-4.8-0.1-7.2-0.2c-0.1,2.6-0.2,5.2-0.3,7.8c-1-3-1.9-6.1-3-9.1c-0.3,3.7-0.5,7.3-0.8,11c-1.1-3.9-1.7-7.9-2.3-11.9
				C226.3,386.9,221.7,386.9,217.1,387z M281.2,394.6c5.3,1.7,11,1.4,16.5,1.7l0.1-1.7C292.3,394.3,286.7,393.8,281.2,394.6z
				 M338.2,398.3c0.4,1.3,0.7,2.5,1,3.8c-4.7,0-9.4,0.1-14.1,0.5c8.4,5.9,20.2,0.9,30,2.2c-2.6-1.3-5.4-2.6-8.1-3.7
				c2.8-0.9,5.5-1.8,8.2-2.8C349.6,398.3,343.9,398.5,338.2,398.3z M320,402c5.9-1.2,12-1.3,17.9-2.5C332,398.5,324.7,397.2,320,402
				z M299.9,398.3c-0.2,5.5-0.3,11-0.5,16.5c11.2-0.2,22.7,1,33.4-2.8c-3.3-0.5-6.6-1-9.9-1.4c0.6-2,1.3-4.1,1.9-6.1
				c-3.4,0-6.8,0-10.3,0.1c-0.8,1.9-1.5,3.9-2.3,5.8c-0.1-2.2-0.3-4.5-0.4-6.7c2.5-0.4,5-0.7,7.4-1c-0.1-1-0.3-3.1-0.3-4.1
				C312.5,398.5,306.2,398.4,299.9,398.3z M282.2,397.5c-0.1,10,0,20,0.1,30c5.1,0.1,10.2,0.1,15.3-0.1c-0.1-10,0-20-0.1-30
				C292.4,397.5,287.3,397.5,282.2,397.5z M248.6,398.7c0.1,3.2,0.1,6.3,0.1,9.5c9.3,0.4,18.6,0.1,27.9,0c-0.1-3-0.2-6-0.3-9
				C267.1,399.2,257.9,399,248.6,398.7z M246.7,407.2c1.4-1.9,1.4-4.9,0-6.8C244.4,400.7,244.3,406.9,246.7,407.2z M243.5,403
				 M333.3,407c6.4,0.6,12.9,1.1,19.2-0.2C346.2,406,339.6,405.4,333.3,407z M244.3,412.8 M235.9,407.4c-0.2,1.6-0.6,4.9-0.8,6.5
				c-0.8-2.3-1.6-4.6-2.4-6.9c-0.7,1.7-1.4,3.5-2.1,5.2c-3.2,0.4-6.9,0.4-7.8,4.2c6.8,0.5,13.6,0.4,20.4,0.2
				C240.7,413.5,238.3,410.4,235.9,407.4z M208.5,407.4c-2.9,5.1-5.2,10.5-7.6,15.8c5,6.6,10.5,14.4,20,12.3
				c0.2-3.3,0.4-6.5,0.6-9.8c4.3-1.5,8.5-4.2,13.2-3.7c4.4,4.3,6.9,10.6,12.6,13.4c5.2-1,8-6.2,11.7-9.3c-4.5-2.4-8.9-5-13.4-7.5
				c-8.1,1.7-16.6,1.6-24.7,0.2c-0.3-5.5,4-7.8,9-8C224.9,404.4,215.5,408.5,208.5,407.4z M354.1,409.8 M334.7,413
				c4.4,0.3,8.8,0.3,13.3,0.3c0.7-1,2.1-2.9,2.8-3.9C345.5,410,337.1,406.4,334.7,413z M275.7,409.2c-4.5-0.3-9,0.1-13.5,0.2
				c0.9,2.1,1.7,4.2,2.6,6.4c4.7,1.2,9.6,1.7,14.3,3.3c-4.9,0.8-9.9-0.2-14.8-0.9c2.9,5.6,10.5,3.8,15.7,5
				C281,418.1,279.1,412.8,275.7,409.2z M244.3,409.2c4.7,6.4,12,10.4,19.6,12.3c-1.1-4.1-2.3-8.1-3.6-12.1
				C255,409.3,249.7,409.2,244.3,409.2z M244.3,412.8c-0.3,2.4,0.8,3.4,3.1,3.2C247.6,413.7,246.6,412.7,244.3,412.8z M340.2,418.3
				c0.3,3.7,7.6,2,5.6-1.4C344.2,415.2,340.6,416,340.2,418.3z M298.3,416.8c12.8,4.1,27.1,0.4,40.4,2.2l0-2.9
				C325.2,416.4,311.7,415.6,298.3,416.8z M247.4,416.1c-0.2,2.2,2.7,4.5,4.7,3.6C252.3,417.5,249.4,415.4,247.4,416.1z
				 M322.7,419.2c-0.5,1.8-1,3.6-1.5,5.4c4.7-1,9.6-1.7,14.2-3.1C331.3,419.8,327,419.4,322.7,419.2z M299.7,420.1c0,3,0,6.1,0,9.1
				c3.3,3,6.9,5.5,10.7,7.7c-33.6,0.1-67.4,1.5-100.9-1.3c-3.2-3.5-6.3-7-9.3-10.7c-21.4,0.2-42.8-0.2-64.2,0.1
				c0.2,1.1,0.7,3.2,0.9,4.3c1.4,0.9,2.7,1.7,4,2.6c-0.1,7.5-0.2,15,0.1,22.5c10.7,0.3,21.3-1,31.9-0.3c0-0.6,0.1-1.7,0.1-2.3
				c-3.9,0.1-7.8,0.3-11.6,0.4c2.9-4.7,8.8-2.7,13.3-3.2c0.1,1.3,0.2,3.8,0.2,5.1c23.4-0.6,47,2.8,70.3-0.2
				c-0.8-1.4-1.7-2.9-2.5-4.3c4.1-0.3,8.3-0.3,12.4,0c0.1,1.4,0.4,4.3,0.5,5.7c18.8-0.2,37.7-0.6,56.6-0.5c0.4-6.5-0.1-13-0.2-19.5
				c1.5-6.1,6.3-10.6,9.4-15.9C314.1,419.2,306.9,419.4,299.7,420.1z M252.1,419.6c0.6,0.4,1.9,1,2.6,1.4
				C254.1,420.7,252.8,420,252.1,419.6z M254.7,421c4.4,4.6,11,4.7,16.9,5C267.6,421.3,260.2,422.7,254.7,421z M571.3,420.9
				c-4,3-1.1,7.2,0,10.9c1-0.7,3.1-2.1,4.1-2.8C574.3,426.2,573,423.5,571.3,420.9z M223.8,426.6c-0.4,2.9-0.8,5.8-1.3,8.7
				c6.8-0.1,13.6-0.1,20.5-0.3c-3.1-4-6.2-8-9.3-12.1C230.5,424.2,227.2,425.4,223.8,426.6z M499,425.3c-0.9,15.4-0.4,30.8-0.3,46.2
				c7-0.5,14-1.5,20.9-2.2c-1.3-1-2.6-1.9-3.9-2.9c-2.6,1-5.1,2.1-7.7,3.1c-0.2-7.3,8.1-3.6,12.7-4.3c0.9,2.1,1.7,4.2,2.6,6.4
				c1.6-0.2,5-0.5,6.6-0.7c-1-2.9-2-5.8-3-8.7c-2-0.6-4.1-1.3-6.1-1.9c1.5-1.1,2.9-2.2,4.4-3.2c-0.6-1.7-1.3-3.4-1.9-5.1
				c2.8-1.3,5.7-2.5,8.6-3.6c1.1,2.3,2.2,4.5,3.3,6.8c-2.2-1.2-4.4-2.5-6.6-3.7c-3.2,4.6-0.4,9.8,0.9,14.7c1.5-0.1,4.4-0.2,5.9-0.3
				c-1.4-3.2-2.7-6.5-3.9-9.8c4.5,2.3,6.2,6.9,7.7,11.4c7.4-2.6,14.7-5.2,22.2-7.6c-1.6-4.6-3.2-9.3-4.8-13.9
				c-6.4,2.1-12.6,4.8-19.4,5.6c5.8-2.9,12.1-4.7,18.2-6.8c-0.7-3.2-1.4-6.3-2.1-9.4c2.7-1.3,5.4-2.5,8.1-3.7
				c4,11,8.3,22.1,11.3,33.4c1.6,0.1,4.7,0.2,6.3,0.3c-0.2-1.3-0.6-3.9-0.7-5.2c0.7,0.4,2,1.1,2.6,1.5c-0.6,3-1.2,6.1-1.7,9.1
				c1.9,0.1,5.7,0.2,7.6,0.3c-6-15.5-12.9-30.6-19.5-45.8C544.4,425.5,521.7,425.7,499,425.3z M278.1,424.2
				c-5.4,2.4-11.1,4.1-16.9,2.2c-3,2.8-5.9,5.6-8.6,8.5c17.1,0.4,34.2,0.4,51.3,0c-4.8-7.9-14.4-5.3-22.1-5.8
				C280.5,427.5,279.3,425.9,278.1,424.2z M481.2,426c1.3,2.1,3,3.9,4.8,5.6c-1,0.3-2.9,0.9-3.9,1.2c0.1,3.2,0.2,6.5,0.2,9.7
				c1.1,0.5,3.2,1.5,4.2,2.1c-1,0.6-3.1,1.7-4.1,2.3c-0.4,5.9-0.5,11.8,0,17.7c1,0.6,3.1,1.8,4.2,2.4c-1.1,0.5-3.2,1.6-4.2,2.1
				c-0.2,5.5-0.3,10.9-0.3,16.4c1.4,0.7,2.8,1.5,4.2,2.2c-1,0.6-3.1,1.8-4.2,2.4c-0.1,3.5-0.1,7-0.1,10.4c4.9-0.1,9.8-0.1,14.7-0.3
				c-0.1-5.4,0-10.8,0.5-16.1c-1.3-0.4-3.8-1.1-5.1-1.4c1.6-0.6,3.3-1.2,5-1.8c-0.1-7.6-0.1-15.1,0-22.7c-1.7-0.6-3.4-1.2-5.1-1.7
				c1.7-0.6,3.4-1.2,5.2-1.7c-0.1-7.3,0-14.5,0-21.8c-1.5-0.7-3.1-1.5-4.6-2.2c2-0.8,4-1.8,5.8-3C493.5,423.8,486.8,425.9,481.2,426
				z M324.5,425.1c-10.9,6.5-12.1,18.4-10.4,29.9c14.1-0.4,28.3-0.7,42.4-0.3c-0.1-5.7-7.4-1.2-10.9-2.4c2.8-4.9,8.7-2.7,13.1-2.1
				c0.3,1.2,0.7,3.6,1,4.8c29.9,0.6,59.8,0.1,89.7,0.3c0-1.3-0.1-4-0.1-5.4c4,0,8.1,0,12.1,0.1c0.1,1.3,0.2,3.9,0.2,5.2
				c6.4,0.1,12.7,0.1,19.1,0c0.4-9.9,0.2-19.7,0.1-29.6C428.7,425.2,376.6,426,324.5,425.1z M138.2,431.8 M578.8,432
				c5,13,11.3,25.6,16.1,38.7c5.5-0.4,11-1.4,16.5-1.9c2.2-12.1,3.8-24.6,0.7-36.6C601,431.8,589.9,431.9,578.8,432z M572.1,431.9
				c1.9,5.1,4,10.1,5.9,15.2c1.3,0,3.9-0.1,5.2-0.1C579.8,441.9,579.9,431.4,572.1,431.9z M556.7,434.6c1,10,6,19.1,8.9,28.8
				c-10.6-2.8-21.1,4.2-30.6,8.2c10.3,1.1,20.7,0.4,31.1,0.6v0.8c-14.5,0.3-29-0.5-43.4-0.2c-0.8,1.7-1.7,3.5-2.5,5.2
				c-3.6,0.1-7.2,0.1-10.8,0.1c-0.4-1.7-0.9-3.4-1.3-5.1c-3.1,0.1-6.3,0.2-9.4,0.4c-0.1,25.3-0.1,50.6,0,75.9
				c30.3,0.6,60.6-0.2,90.9,0.5c-4.2,1.7-8.8,1.3-13.2,1.1c0.5,0.9,1.6,2.8,2.1,3.7c10.8-2,22-0.1,32.5-3.8
				c0.3-5.1,0.3-10.3,0.1-15.4c-4.1-0.1-8.3-0.2-12.4-0.3c-0.2-3.3-0.4-6.5-0.6-9.8c-3.2,0.1-6.4,0.2-9.5,0.3
				c1.2,2.1,2.5,4.2,3.8,6.2c-0.9,0.5-2.8,1.4-3.7,1.9c1.8,0.7,3.6,1.4,5.4,2.1c-0.1,4-0.1,8-0.1,11.9c-4.2,0.4-8.4,0-12.5-0.7
				c0.1-4.2,0.1-8.3,0.1-12.5c1.4,0,4.3,0,5.7,0c0.1-13.2,0.3-26.4-0.2-39.6c-1.4,0-4.2,0.1-5.6,0.1c0-4.1,0-8.3,0-12.4
				c1.5-0.1,4.4-0.3,5.9-0.4c0-3.1,0.1-6.3,0.1-9.4c-1.7-0.1-5.1-0.4-6.8-0.5c-0.6,1.7-1.1,3.4-1.7,5.2c-4.6,0-9,1.1-12.1,4.6
				c0.3-2.9,0.7-5.8,1.2-8.6c2.2,0.7,4.3,1.7,6.4,2.6c1.1-1.3,2.2-2.6,3.3-3.8c-3.8,0.1-8.7,1.2-11.5-2.2c3.8-0.4,7.7-0.5,11.5-0.5
				c-1.2-1-2.3-2-3.5-3c-2.7,0.9-5.3,1.9-8,2.8c0.9-2.1,2.2-4.1,3.8-5.8c-1-1.9-2.1-3.8-3.1-5.7c0.2-6.2-1-17-8.2-17.9
				c1.2-1.8,2.3-3.6,3.4-5.4C560.9,434.5,558.1,434.6,556.7,434.6z M137.2,447.2c2.8-1.4,2-7.1,0.6-9.7
				C135.5,439.2,136.2,444.5,137.2,447.2z M579.1,448.9c2.2,5,4.3,10,5.8,15.3c1.4-0.1,4.1-0.2,5.4-0.3c-2-4.8-4-9.6-5.8-14.5
				C583.1,449.2,580.5,449,579.1,448.9z M138.3,450.8 M449.8,454.2c3.2,0.2,6.3,0.4,9.4,0.5c-0.6-1-1.8-2.9-2.5-3.8
				C454.4,452,452.1,453.1,449.8,454.2z M251.3,452 M462.1,456.3c-0.4,2-0.7,4-1.1,6c-3.8,0.1-7.6,0.1-11.3,0.2
				c-0.2-2.1-0.4-4.1-0.6-6.2c-30,0.1-60.1-0.5-90.1,0.3c1.6,1.8,3.3,3.5,4.9,5.3c-5.9,0.1-12.1,1.4-17.8-0.9
				c-0.1-1.2-0.3-3.5-0.4-4.6c-10.6,0-21.3-0.3-31.9,0.2c1.3,1,2.7,2.1,4,3.1c-4.5,2.2-4.1,6.7,0.2,8.9c-1.3,0.8-2.6,1.6-3.9,2.5
				c0.1,6.5,0.1,13,0,19.6c1.4,0.9,2.9,1.8,4.3,2.8c-1.4,1-2.9,2-4.4,3c1.1,6.8-2.9,16.1,3.9,20.7c-1.5,1.1-3,2.2-4.6,3.3
				c1.5,1.2,2.9,2.5,4.4,3.7c-1.2,0.9-2.4,1.7-3.6,2.6c17.4,1.3,34.9,0.8,52.3,0.6c0.6-2,1.6-3.9,2.8-5.6c-0.2,1.9-0.4,3.8-0.7,5.7
				c8.4,0,16.9,0.3,25.3-0.3c-0.4-1.5-1-3-1.5-4.4c1.2,0.4,2.5,0.8,3.7,1.2c-0.3,0.8-0.9,2.4-1.3,3.2c8.2,0.7,16.4,0.2,24.6,0.3
				c0-1.4-0.1-4.1-0.2-5.5c1.1,1.7,2.1,3.4,3.2,5.2c7.2,0.5,14.3,0.5,21.5,0c1.2-1.6,2.5-3.2,3.7-4.8c-0.1,1.7-0.1,3.4-0.2,5
				c8.7,0.1,17.4,0.3,26.1,0c0.5-1.8,0.9-3.7,1.4-5.5c0.2,1.4,0.5,4.2,0.7,5.7c1.4,0,4.3-0.1,5.7-0.1c-0.1-3.1-0.3-6.1-0.4-9.1
				c-1.4-0.2-4.1-0.6-5.5-0.8c1.8-0.6,3.7-1.2,5.6-1.8c0.5-7,0.2-14.1,0-21.1c-1.4-0.1-4.3-0.4-5.7-0.5c1.9-0.7,3.9-1.4,5.8-2
				c0.1-7.9-0.1-15.7,0-23.6c-2.1-0.6-4-1.4-5.7-2.7c2,0.4,4,0.8,5.9,1.2c-0.2-3.5-0.3-7-0.5-10.5
				C474.4,456.2,468.3,456.2,462.1,456.3z M450,457.3c1.8,1.4,3.6,2.7,5.4,4.1c1.8-1.4,3.6-2.8,5.3-4.2
				C457.2,457.2,453.6,457.3,450,457.3z M347.5,457.4c1.8,1.2,3.6,2.4,5.4,3.5c1.3-1.2,2.6-2.5,3.8-3.7
				C353.7,457.3,350.6,457.4,347.5,457.4z M228.8,456.2c-17.9-0.1-35.9-0.5-53.9,0.2c-0.1,1.3-0.2,3.9-0.3,5.2
				c-6.1,1.2-12.2,0.1-18.2-1.3c2.1-1.2,4.3-2.4,6.4-3.6c-8.7-1-17.6-0.5-26.3-0.5c-0.4,10.2-0.8,20.4,0.2,30.6
				c1.6-0.4,3.2-0.7,4.7-1.1c-0.1,0.9-0.2,2.8-0.2,3.8c-1.5-0.3-3-0.6-4.5-0.9c-0.7,11.5-0.7,23-0.3,34.5c0.7-1.2,2.1-3.7,2.8-4.9
				c1.2,1.4,2.4,2.9,3.6,4.3c12.2-1,24.3,0,36.5-0.1c0.1,1.1,0.4,3.4,0.5,4.5c42.7-0.1,85.3-0.3,128,0.1c0.2-1.3,0.6-4,0.8-5.4
				c0.8,2.1,1.6,4.2,2.4,6.3c4-6.9,1.2-15.1,1.4-22.6c0.7-16.1,0.4-32.3,0.7-48.5C285,454.8,256.9,458,228.8,456.2z M165.5,458
				c0.3,3.5,7.8,2.9,5.8-0.8C169.8,455.9,166,455.5,165.5,458z M590.9,470.7c2.3-0.7,1.7-4.2-0.1-5.1
				C587.2,464.4,587.4,471.4,590.9,470.7z M533.8,468.2 M601.1,472c0.3,3.6,0.5,7.3,0.8,10.9c5.1-0.1,11.7,2.7,15.8-1.1
				c-1.3-3.8-4.3-6.8-6.5-10.1C607.8,471.8,604.5,471.9,601.1,472z M593.5,471.8c-1.4,1.7-2.8,3.4-4.3,5.1
				c4.7,4.8,5.3,11.4,4.9,17.7c-1.2,0.2-3.6,0.5-4.9,0.6c1.1,1,2.1,2,3.2,3.1c-2.2,2.6-3.7,5.7-4.6,9c1.9,0.9,3.8,1.8,5.7,2.7
				c-1,0.5-3.1,1.3-4.1,1.8c-0.1,1.6-0.1,4.7-0.2,6.3c2.5,0.1,4.9,0.1,7.4,0.2l1.4-0.8c4.7-10.3,1.5-22,2.5-32.9
				c-1,0.1-3.1,0.3-4.1,0.4c0-0.7,0-2.2,0-3c1,0.1,3.1,0.2,4.1,0.2c-0.1-3.3-0.1-6.7-0.2-10C598,472.1,595.7,472,593.5,471.8z
				 M511,472c0.7,1.6,1.5,3.3,2.2,5c2.2-1.4,4.3-2.8,6.5-4.3C516.9,472.4,513.9,472.2,511,472z M90,472.1
				c-1.3,20.8-0.9,41.6-0.9,62.4c15.2,0.9,30.5,0.1,45.7,0.4c0.3-6.1,0.3-12.2,0.3-18.3c-12.9-2.8-25.7-5.8-38.7-8.2
				c0-8.2,0-16.5,0-24.7c12.9-3.6,27.2-3.8,38.9-10.5C120.6,470.6,105.1,473.1,90,472.1z M614.3,474.5c1.7,0.8,3.4,1.6,5.2,2.4
				c-0.2,4-0.3,8-0.4,12l3.1-0.1c-0.1-4.3-0.5-8.5-1.1-12.7c2.7-0.1,5.3-0.2,7.9-0.3C624.2,474.2,619.2,474.4,614.3,474.5z
				 M99.3,485.1c-0.6,7.5-0.2,14.9,0,22.4c11.9,2.1,23.7,5,35.5,7.5c0.4-12.7,0.4-25.4,0.2-38.1C123.1,479.6,111.1,481.9,99.3,485.1
				z M647.4,481.9c-1.8-2-3.8-3.8-6.3-5c2,10.5,1.1,21.2,1.4,31.8c0,1.4-0.1,7.7-1.7,3.6c-0.4-8.4,0.2-16.9-0.2-25.3
				c-5.4,0.1-10.7,0.1-16.1,0c-0.9,13.3-0.7,26.7-0.8,40c5.8,0.3,11.6,0.2,17.3-0.3c-0.1-3.7-0.2-7.5-0.4-11.2c1,0,3.1,0,4.1,0
				c-0.1,3.3-0.3,6.7-0.4,10c1.2,0.2,3.7,0.7,4.9,0.9c-0.1-3.8-1.9-7.1-4-10.2c3.3-0.2,6.7-0.3,10-0.3c-2.1,3.1-3.9,6.6-4,10.5
				c20.3,0,40.6-0.4,60.9,0.2c18.7-9,39.9-17.6,60.9-12c1-1.6,1.9-3.2,2.8-4.8c2.7,0.3,5.3,0.7,8,1.2c-1.2,2-2.4,4-3.6,6
				c1.3,0.1,4,0.4,5.4,0.5c-0.2-7.5,0.9-15,0.3-22.4c-2.7-0.1-5.3-0.3-8-0.4c-1.2,1.6-2.5,3.1-3.8,4.7c0.2-1.5,0.7-4.4,0.9-5.8
				c-1.7-0.2-5.2-0.5-6.9-0.6c0.7,1.5,1.4,3,2.1,4.6c-0.9,0-2.7,0-3.6,0c0.3-1.5,0.6-3.1,0.9-4.6c-15.9-1.9-31.9-3.8-47.8-5.8
				c-1.7,1.8-3.6,3.5-5.5,5.1c0.7-2,1.5-3.9,2.2-5.9c-1.6-0.1-4.8-0.3-6.4-0.4c-0.2,1.3-0.7,4-1,5.4c-0.8-1.9-1.6-3.9-2.3-5.9
				c-16.8-2.1-33.7-3.8-50.5-6.3c-1,1.7-2,3.3-3,5c-0.3-1.5-0.9-4.6-1.2-6.1C650,478.5,648.4,479.9,647.4,481.9z M623.6,478.4
				c0.2,1.2,0.7,3.6,0.9,4.8c5.4-0.1,10.9,0,16.3-0.2C636.2,478.5,629.7,478.2,623.6,478.4z M588.5,483.4c0,3.6,0.1,7.2,0.2,10.8
				c1.4-1.9,2.7-3.8,4.1-5.6C591.3,486.8,589.9,485.1,588.5,483.4z M583.1,491.4c0.7,0.5,2.1,1.5,2.8,2c-0.1-2.6-0.1-5.3-0.2-7.9
				C582.2,485.1,583.7,489.2,583.1,491.4z M602,487.2c0.7,13.3-0.8,26.7,0.2,40c5.1,0.1,10.1,0.1,15.1,0.1c0.2-13.3,0.1-26.7-1-40
				C611.5,487.2,606.8,487.2,602,487.2z M618.6,493.2c1.7,2.4,6-0.3,4.1-2.8C621,488,616.7,490.7,618.6,493.2z M801.1,496
				 M619.7,493.9c-0.6,12-0.3,24.1-0.1,36.1c4.2-4.4,1.8-10.9,2.2-16.3C621.3,507.1,624,499.6,619.7,493.9z M787.7,499.6
				c-0.6,6.4-0.6,12.8-0.2,19.1c3.5,1.6,7.1,3,10.7,4.1C795.5,514.7,791.6,507.1,787.7,499.6z M741.2,518.5
				c-30.2,2.7-49.5,29.1-68.5,49.6c-11.6,8.3-21,19.4-31,29.6c11.2,0.2,22.4,0.7,33.5-0.1c7.6-2,8-11.2,10-17.3
				c5.4-22,22.6-38.9,41.5-50.3c20.5-11.7,45.8-11.5,67-1.8c-1.9,0.1-5.7,0.3-7.6,0.4c3.1,1.8,6.4,3,9.9,3.2
				c-0.6-0.9-1.7-2.7-2.3-3.6c5.5,2.1,10.5,5.9,16.6,6.3C792.3,518.6,764.6,509.2,741.2,518.5z M593.2,523.7
				c1.6,2.1,6.5,0.2,4.4-2.4C596.1,519.2,591.2,521,593.2,523.7z M802.8,522.9 M739.1,527.5c14.9-3.7,30.3-3.3,45.1,0.2
				C770.9,521,752.6,520.8,739.1,527.5z M136.4,524c0,21.5-0.7,43,0.2,64.4c11.5-16.3,22.6-33,33.6-49.6c3.1-4.7,7.3-9,7.9-14.8
				C164.2,524,150.3,524.1,136.4,524z M739.1,530.5c21.9-1.6,42.4,8,60,20.3c2.9-3.3,5.7-6.7,8.5-10c-3.3-1.8-6.6-3.6-9.8-5.5
				c1.7-0.1,5-0.3,6.7-0.4c-2.7-1.2-5.5-2.3-8.3-3.1c0.4,0.9,1.3,2.8,1.7,3.8C779.8,527,758.1,522.5,739.1,530.5z M732.9,530.3
				c1.9,1.2,5.9-0.6,5.7-2.9C736.7,526.4,732.5,527.8,732.9,530.3z M701.9,533c-0.5-1.1-1.4-3.4-1.9-4.6
				c-13.3-0.5-26.6-0.1-39.9-0.3c-5.7-0.8-10.4,7.3-15.3,0.7c-0.2,2-0.4,4-0.5,6c-1.3,0-3.9-0.1-5.2-0.1c0.3,1.4,0.8,4.2,1.1,5.6
				c1.2-0.1,2.5-0.2,3.7-0.3c0,0.7,0,2,0,2.6c-7.1-2.9-4,7.6-4.5,11.7c2.7,0,5.4-0.1,8.1-0.1c0-1.2,0-3.5,0-4.7
				c0.6,0,1.7-0.1,2.3-0.1c0,1.2-0.1,3.6-0.1,4.8c5.4,0,10.7-0.1,16-0.1c0.2-1.5,0.4-4.4,0.6-5.8c0.7,1.9,1.3,3.8,1.9,5.7
				c4.2,0.1,8.3,0.3,12.5,0.5c10.2-8.1,19.2-17.5,28.8-26.3C705.7,528.2,701.2,527.7,701.9,533z M600.1,529.1c0,1,0,3.1,0,4.1
				c13.9-0.3,27.8,0.3,41.7,0c0.5-0.7,1.6-2.2,2.1-2.9c-7.9-2.1-16-0.6-23.9,0.6C613.5,529,606.8,528.8,600.1,529.1z M178.7,528.6
				c-0.9,1.9-1.9,3.7-2.8,5.6c98.3-0.3,196.6,0.3,294.9,0.2c0-1.3,0-4,0-5.4C373.5,528.7,276.1,528.1,178.7,528.6z M725.2,533.9
				c-0.7,0.5-2.1,1.4-2.9,1.9C723.1,535.4,724.5,534.4,725.2,533.9C733.7,534.5,727.9,526.6,725.2,533.9z M812.7,534.5 M740.8,532.8
				c-15.3,1-27.4,11.7-36.9,22.9c9.8-0.8,20.5,3.4,29.2-2.5c16-8,35.9-9.7,51.9-0.9c0.2,0.7,0.5,2.1,0.7,2.8
				c0.2-0.7,0.6-2.2,0.7-2.9c2.6,1.2,5.2,2.4,7.8,3.6c0.9-1,2.8-2.9,3.7-3.8C781.4,540.4,761.7,530.4,740.8,532.8z M721.1,536.8
				c0.3-0.3,1-0.7,1.3-1C722.1,536.1,721.4,536.6,721.1,536.8z M612.3,536c0.5,4.6,0.9,9.2,1.3,13.8c0.7-0.7,1.9-2,2.6-2.7
				c-0.5-3.5-1-7.1-1.2-10.7c3.5,7.1,3,15.2,4.4,22.9c2.5,0.2,4.9,0.5,7.4,0.7c1.2-1.4,2.3-2.8,3.4-4.2c2.4,0.2,4.7,0.3,7.1,0.5
				c-3-6.8,1.6-14.1,0-21.3C629,535.1,620.6,534.9,612.3,536z M588.5,535.7c0.1,3.5,0.2,6.9,0.4,10.4c1.5-2.4,2.8-5,3.9-7.6
				C591.4,537.5,589.9,536.6,588.5,535.7z M721.1,536.8 M583.3,537.7c0,1.9,0,3.8,0,5.6c0.7,0.5,1.9,1.6,2.6,2.1
				c0-2.7-0.1-5.3-0.1-7.9C585.2,537.5,583.9,537.7,583.3,537.7z M715,541.2c-0.3,0.3-1,0.9-1.3,1.2
				C714,542.1,714.7,541.5,715,541.2C716.2,540.1,716.2,540.1,715,541.2z M908.7,539.8c1.3,4.9,1.4,10.1-0.4,14.9
				c1.5-0.1,4.4-0.3,5.9-0.4c0.1-4.4-0.1-8.9-0.6-13.3C912.4,540.7,909.9,540.1,908.7,539.8z M712.4,543.6c0.3-0.3,1-0.9,1.3-1.3
				C713.4,542.7,712.7,543.3,712.4,543.6z M711.1,544.8c0.3-0.3,1-0.9,1.3-1.2C712,543.9,711.4,544.5,711.1,544.8z M796.7,556.2
				c5.6,0.3,11.3,0.3,16.9,0.1c-1.6-4.4-3.5-8.6-5.8-12.6C803.9,547.7,800.2,551.8,796.7,556.2z M711.1,544.8 M450.4,547.1
				c2.7,6.9,11.2,10.5,17.7,13.4c-2.7-2.2-5.7-3.8-8.7-5.3c0.7-2.1,1.3-4.3,2-6.4C457.7,548.1,454.1,547.6,450.4,547.1z
				 M418.8,547.5c-0.1,1.3-0.4,4-0.5,5.3c5.2-0.7,10.3-1.8,15.3-3.4C428.6,548.6,423.7,548.1,418.8,547.5z M369,548.4
				c0.2,1.5,0.5,4.5,0.6,6c7.2-2.6,14.8-2.2,22.2-0.8c-3.5,1.2-8.2,1.5-8.5,6.2c3.9,0.2,7.7,0.2,11.6,0.2c-0.8-2.7-1.7-5.5-2.5-8.2
				c3,0.1,6,0.1,9,0.1C391.6,545.4,379.6,553.1,369,548.4z M343.9,552.3c5.3,1.2,10.8,1.6,16.2,2c-0.2-1.4-0.5-4.2-0.6-5.5
				C354.3,549.6,349,550.5,343.9,552.3z M705,551 M609.7,551.3c0.1,5.1,2,9.6,7,11.6c0.4-4.4,0.6-8.7,0.7-13.1
				C614.9,550.3,612.3,550.8,609.7,551.3z M515,551.1c-0.8,1.6-1.6,3.1-2.4,4.7c-0.9-1.8-1.8-3.6-2.7-5.4c-2.4,0.9-4.9,1.7-7.3,2.7
				c-1-0.4-3-1.1-4-1.4c2.9,5,6,10,10.2,13.9c2.3-2.7,4.5-5.4,6.6-8.2c1.8,1.6,3.6,3.1,5.5,4.6c-3.7-0.3-7.2,0.7-9.8,3.5
				c3.8,0.1,7.6-0.1,11.3-0.4c0.7-3.9,2.9-6.1,7.1-5.6c-1.2,2.1-2.5,4.2-3.8,6.3c15.4-3.3,31.4-2.8,46.9-5.3c3-1,3.2-4.4,4.1-6.9
				c-0.8,0.9-2.4,2.8-3.2,3.7c-14.7,1.3-29.4,2.8-44.1,4.3c0.8-2.1,1.7-4.2,2.5-6.3c1.1,1.2,2.1,2.5,3.1,3.7
				c12.1-0.4,24.1-2.2,36.1-3.3c1.3-1.5,2.7-3.1,4-4.6C555.1,551.1,535,550.6,515,551.1z M367.1,551.2 M335.4,554.5
				c4.1,0.1,9.8,1.3,8.6-4.9C340.3,549.7,335.5,549.6,335.4,554.5z M294.8,553.1c5,1.7,10.3,2,15.4,2.7c0-1.4,0-4.1,0-5.5
				C305.1,551.1,300,552,294.8,553.1z M278,553.3c5,2.7,10.9,1.9,16.3,2.9c0-1.4-0.1-4.2-0.1-5.7C288.8,551.4,283.4,552.3,278,553.3
				z M261.9,554.1c5.1,1.6,10.5,2.1,15.8,2.4c-0.2-1.4-0.6-4.2-0.8-5.6C271.9,551.9,266.9,552.8,261.9,554.1z M461,551.4
				c4.8,3.7,9.5,7.5,14.5,10.9c0.4-1.2,1.3-3.6,1.7-4.8C472.3,554.4,467,551.6,461,551.4z M254.1,552.1c0.4,1.6,0.7,3.2,1.1,4.7
				c2,0,4,0.1,6.1,0.2c0-1.4,0-4.3,0-5.8C258.9,551.5,256.5,551.8,254.1,552.1z M576.9,559.4c10.7,1.5,21.2-1.7,31.9-1.6
				c-0.1-1-0.2-3.1-0.3-4.1C598.1,556,585.5,552.2,576.9,559.4z M433.7,556.7c-1.8-1-3.7-2-5.6-3c0.9,1.8,1.8,3.7,2.7,5.6
				c-1,0.2-3.1,0.7-4.1,1c-0.1-2-0.1-4.1-0.1-6.1c-3.4,0.1-6.7,0.1-10.1,0c0,1.2-0.1,3.7-0.1,5c2.7,0.6,7.4-2.2,8.7,1.1
				c-18.5,1.1-37,0.9-55.6,1.5c-0.1,8.7-0.1,17.4-0.1,26.1c-2.6-0.4-5.3-0.8-7.9-1c0.1-8.2,0.2-16.3-0.2-24.5
				c-8.3-0.3-16.4-0.2-24.3,2.6c0.9,2.3,1.9,4.6,2.8,7c1.1-2.1,2.2-4.2,3.3-6.4c0.7,2.4,1.3,4.9,2,7.3c-1.4,0.1-4.3,0.3-5.8,0.4
				c1.3,2.5,2.5,5,3.8,7.5c0.6-1.5,1.8-4.4,2.4-5.9c2.3,5.3,5,10.5,5.5,16.3c20.8-0.3,41.7,1.1,62.4-1c-0.7-3.2-1.4-6.3-2.3-9.4
				c9.7-2.3,9.4-14.9,17.5-19.8c-0.1,1.5-0.3,4.5-0.3,5.9c-4.6,2.1-6.2,7-8.3,11.2c2.7,0.5,5.5,1,8.2,1.5c1.2-1.7,2.4-3.5,3.6-5.2
				c-0.8-1.6-1.7-3.1-2.6-4.7c1.5-0.9,3.1-1.7,4.7-2.2c-1.8-2.3-3.6-4.5-5.4-6.8c3.8-1.6,7.7-3.1,11.7-4.1c-2,2.2-4.4,4-6.8,5.7
				c1.7,2,3.4,4.1,5.1,6.2c2.2-0.9,4.4-1.7,6.6-2.6c-0.5-3.4-1.2-6.7-2.4-9.9c1.2-0.4,3.5-1.1,4.7-1.4c-0.1,2.5-0.2,5.1-0.3,7.6
				c0.8-0.1,2.5-0.2,3.3-0.2c-0.2-2.5-0.5-5.1-0.8-7.6C444.2,554.6,438.7,554.7,433.7,556.7z M414.7,554.9 M214.4,556.8
				c1.6,1.8,6.9,0.4,4.8-2.3C217.6,552.7,212.5,554.1,214.4,556.8z M169.6,571.4c3.4-1.9,6.3-4.4,9.1-7c1.5,1.1,3,2.1,4.4,3.2
				c-0.7-2-1.4-4-2.1-6c10.6-3,23.8-8.6,32.2,1.7c-1.2-3.3-1.5-6.7-1.4-10.1C196.8,555.3,175.4,553.4,169.6,571.4z M882.5,555.6
				c-0.3,3.6-0.9,7.2-1.6,10.7c1.2,0.8,2.4,1.6,3.6,2.4c-1.4,1.7-2.7,3.3-4,5c10.7,1.2,21.6,0.5,32.3,0.5c0.2-6.3,0.2-12.6-0.2-19
				C902.5,557.1,892.5,554.6,882.5,555.6z M639.3,555.1c0,2.4,0,4.9-0.1,7.3c5.1,3,11.2,6.7,11.4,13.4c0.2,6.9-6,11-11.3,14
				c-0.1,2.5-0.2,5-0.4,7.6c14.6-13.3,28.3-27.6,42.1-41.6C667.1,554.5,653.2,554.9,639.3,555.1z M398.8,554.9
				c-1.2,7.5,13.6,6.6,12.5-0.3C407.2,554.6,403,554.7,398.8,554.9z M398,556.1 M381.7,556.1 M363.3,556.1c0.3,9.8,0,19.5,0.2,29.2
				c6-6.3,0.6-17,2.6-25.1c4.2,0.5,8.4,0.8,12.6,1c0.1-1.5,0.2-4.5,0.2-6C373.7,555.4,368.5,555.8,363.3,556.1z M350.3,560.8
				c3.8,0.1,7.7,0.1,11.5,0.1c0-1.3,0-4,0-5.3C357.5,556.5,350.2,554.2,350.3,560.8z M333.6,561c5.5-0.9,15,2.4,17.3-4.2
				C345.2,557,334.5,553.2,333.6,561z M332.7,556.3 M694.8,562.6c0.9-0.1,2.6-0.2,3.4-0.2c-1.2,2.9-2.5,5.7-3.6,8.6
				c5.3,0.1,10.7,0.2,15.9,1.1c3.9-5.1,8.5-9.5,13.1-14c-8.1,0.4-17-2.3-24.3,2.1c-0.1-0.9-0.3-2.8-0.4-3.7
				C697.4,558.5,696.1,560.6,694.8,562.6z M631.4,556.6c-0.5,11.5,0.4,23-0.6,34.5c1.4-0.2,4.3-0.5,5.8-0.7
				C637,579.6,641.5,563.7,631.4,556.6z M481.1,557.6c0.3,0.8,0.8,2.4,1.1,3.2c9.7,2.7,16.9,10.8,27,12.9c-1-6.3-5.4-11-8.6-16.3
				C494,557,487.5,557,481.1,557.6z M314.1,567.6c2.1-2.1,4.1-4.3,6.2-6.4c-0.6,1.8-1.2,3.6-1.8,5.3c2.1,0,4.4-0.5,6.3,0.6
				c-1.6,1.1-3.3,2.2-5,3.3c-0.1,4.7,0,9.5,0.2,14.2c2.3-0.1,4.5-0.2,6.8-0.3c0.1-6.6-1.3-13.4-0.4-19.9c1.2-0.4,3.4-1.1,4.6-1.5
				C326.4,556.3,314.1,558.8,314.1,567.6z M301.6,557.3c0,1.4,0.1,4.2,0.1,5.5c5.2-0.1,10.3-1.2,14.1-4.9
				C311.1,557.6,306.3,557.4,301.6,557.3z M299.3,558.1 M285.9,557.7c-0.3,1.2-1,3.6-1.3,4.9c4,0,8-0.1,12.1-0.2
				c-0.2-1.2-0.7-3.5-1-4.6C292.4,557.8,289.1,557.8,285.9,557.7z M828.6,569.7c2.6-1.6,1.8-7.1,0.6-9.8
				C826.6,561.6,827.4,567.1,828.6,569.7z M798.3,558.4c4.2,4.5,8.5,9,12.8,13.4c5.2-0.3,10.4-0.4,15.5-0.5c0-4.3,0-8.7,0.1-13
				C817.2,558.1,807.8,558.1,798.3,558.4z M453.1,557.5c-0.1,2.9-0.2,5.7-0.3,8.6c5,4.6,9.7,0.4,12.4-4.2
				C461.2,560.3,457.2,558.8,453.1,557.5z M282.7,559.4 M263.1,562.9c5.6-1.1,16.9,3.6,17.3-4.6C274.8,559,265.1,555.4,263.1,562.9z
				 M251.8,558.4c0.1,1.4,0.2,4.1,0.3,5.5c4.4-0.9,12,1.4,11.1-5.6C259.4,558.2,255.6,558.3,251.8,558.4z M250.2,559.5 M234.8,558.9
				c0.1,1.4,0.4,4.1,0.6,5.5c3.6-0.1,7.2-0.1,10.8-0.1c0-1.4,0.1-4.3,0.1-5.7C242.4,558.6,238.6,558.7,234.8,558.9z M217.6,564.1
				c4.2,0.1,8.3,0.1,12.4,0.1c-0.1-1.3-0.3-3.9-0.4-5.2C225.3,560.1,217.8,557.7,217.6,564.1z M618.4,560.5c-0.1,4.5-0.9,8.9-4,12.4
				c3.2,0.3,6.4,0.5,9.6,0.7c0.2,1,0.5,3,0.7,4c-2.8-2-5.8-3.8-9.3-4.4c-0.9,6.3,2.9,11.9,3.1,18.1c4.1-0.9,11.4,0.5,11.6-5.5
				c0.6-8,1.2-16.4-1.6-24.1C625.1,561.3,621.7,560.9,618.4,560.5z M588.5,560.8c1.5,1.1,3.1,2.2,4.6,3.3c-1.6,0.8-3.2,1.6-4.9,2.5
				c0.2,1.5,0.6,4.6,0.7,6.1c8.4,0.1,17,0.5,25.3-1.2c-0.3-3-0.6-6.1-0.9-9.1C605.9,557.6,596.8,561,588.5,560.8z M576.3,565.5
				c-4.4-4.8-11.2-2-16.8-1.9c-11,1.7-22.8-0.4-33.1,4.6c-5.9-1.4-11.9-1.2-17.9-0.6c2,1.9,4.1,3.7,6.1,5.5
				c-6.5-0.2-3.6,7.4-4.4,11.4c1.6,1.2,3.2,2.5,4.7,3.7c-1.1,0.1-3.5,0.3-4.6,0.4c0.1,1.7,0.2,5.1,0.3,6.7c2.3-0.7,4.6-1.4,6.9-2.1
				c10.7,2.8,22.8,3.1,33.4-0.2c14.8,6.7,31.3-3.3,45.8,2.4c1-1.7,2-3.4,3-5.1c0.7,1.6,1.3,3.2,2,4.9c8.7-1.9,21.1,3.8,27.4-3.1
				c-4,0.1-8,0.4-12,0.7c-0.1-5-1.6-10.6-6.2-13.2c-9.7-2.7-19.7,1.5-29.5-0.9c-1.4,1.4-2.8,2.9-4.2,4.3c-0.5-4.6-3.3-8.7-3.1-13.5
				c1.4-0.2,4.1-0.4,5.5-0.6c0.4,0.9,1.2,2.7,1.6,3.6c1.6-0.1,4.8-0.2,6.4-0.3c-1.7-1-3.3-2-5-3c1.7-0.9,3.4-1.7,5.1-2.6
				c-0.3-1.6-0.8-4.9-1-6.5C582.9,561.2,579.1,562.5,576.3,565.5z M480.7,566.6c1.5-1.9-0.8-4.6-2.7-5.3
				C474.3,561.7,478.1,567.7,480.7,566.6z M469.7,560.5c-2.2,2.8-5,5.4-5.1,9.2c2.6-1.9,4.5-4.4,6.2-7c10.8,10.8,11.9,27.2,6.7,40.9
				c-2.1-1.5-4.1-3.1-6.2-4.5c-0.4,0.6-1.3,1.9-1.8,2.6c2.9,1.5,6.6,2.4,7.2,6.1C484.9,592.8,483.9,571.6,469.7,560.5z M231.5,558.5
				c0,2.4,0.1,4.9,0.3,7.4c-4.4,0.1-8.9,0-13.4-0.1c2.8,5.3,6,10.4,9.4,15.4c-2.2-0.5-4.4-1.1-6.7-1.6c-0.3,3.7,0.8,8.7-4.3,9.4
				c1.3,0.4,2.5,0.8,3.8,1.2c2.2-1.4,4.5-2.8,6.7-4.1c0.6,1.1,1.7,3.3,2.2,4.4c10.1,0.5,20.3,0.5,30.4,0.4
				c0.1-5.8,0.1-11.6,0.3-17.5c8.2-0.3,16.3-0.2,24.5-0.3c-0.9,5.8-1.4,11.6-1,17.4c3.5,0.2,7,0.3,10.5,0.4c-0.6-1.7-1.2-3.3-1.8-5
				c-2,0.8-4,1.5-6,2.3c0.1-7.9,0-15.8-0.2-23.7c-17.3-0.2-34.5,0.6-51.8,0.9C234.3,562.7,233.3,560.4,231.5,558.5z M216.9,561
				 M130.9,563.3c-1.4-0.2-2.9-0.4-4.4-0.6c-3.4,3.3-7.7,6.3-8.4,11.4c2.6-1.2,5.1-2.4,7.6-3.7c-0.1,2.7-0.2,5.5-0.4,8.2
				c1.1-0.1,3.2-0.2,4.3-0.2c-0.3-3.4-1.3-6.6-3.1-9.5c2.7,0.8,5.4,1.6,8.2,2.4c-0.4-3.7-0.6-7.3-0.6-11
				C133,561.2,132,562.3,130.9,563.3z M616.3,564.4 M485.1,566.9c-1.9,0.7-3.8,1.3-5.6,2c2.6,5,5,10.1,8,14.8
				c-0.4-5.2-1.1-10.4-1.5-15.5c7.3,7.4,5.2,18.4,6.2,27.8c3.1,0.8,6.3,1.5,9.4,2.2c0.9-8-1.4-16.6,2-24.2
				c-5-3.8-11.7-5.8-16.6-10.3C486.5,564.5,485.6,566,485.1,566.9z M299.8,563.5c-1.5,0.3-4.4,0.9-5.9,1.2c-0.4,6.3-0.1,12.7,1,18.9
				c3.1-5.3,4.6-11.3,6.8-16.9c3,5.8-1.9,12.9-5.2,18c0.4,9.6,7.9,17.1,11.2,25.9c3.8-14.1,1.7-28.9,2-43.3
				c-5.1,7.1-6.1,16.1-10.2,23.7c1.1-9.1,5.6-17.2,7.9-25.9c-1.2,0.4-3.7,1.3-4.9,1.7C301.6,565.6,300.7,564.6,299.8,563.5z
				 M288.9,564.3c0.5,3.1,0.4,6.8,3.9,8.2c0.2-2.9,0.3-5.8,0.4-8.7C292.1,563.9,290,564.2,288.9,564.3z M201.6,564.4
				c-0.5,2.3-1,4.6-1.5,6.9c0.6-0.9,1.9-2.6,2.5-3.4c1.6-0.2,4.9-0.6,6.5-0.8C206.9,565.5,204.4,564.3,201.6,564.4z M188.9,566.2
				c0.5,3.4,7.8,1.9,6.1-1.5C193.2,563.3,189.7,564,188.9,566.2z M686.9,583.7c3.6-5.9,5.2-12.6,7.2-19.2
				C689.6,569.9,687.2,576.8,686.9,583.7z M638.9,564c0.4,8,0.3,16,0.2,24C651.5,584.8,651.5,567,638.9,564z M327.7,571.9
				c2.7,1,4.5-3.4,3-5.3C328.2,565.6,326.1,570.1,327.7,571.9z M471,567.3c-1.7,2.2-3.5,4.4-5.3,6.6c0.6,1.3,1.9,3.8,2.5,5.1
				c2.9-0.8,5.8-1.6,8.7-2.5C475,573.5,473,570.4,471,567.3z M448.7,567.7c-9.8-0.8-16.8,7.1-20.2,15.4c-3.4-0.9-6.8-1.8-10.2-2.7
				c-0.1,1-0.2,2.9-0.3,3.8c3.7-0.4,7.4-0.8,11.1-1c-0.1,3.4-0.2,6.8-0.4,10.3c-0.7-1.8-1.3-3.7-2-5.5c-2.6-0.3-5.2-0.7-7.8-1
				c0.1,4.5,0.7,8.9,2.3,13.1c2.8-1.8,5.6-3.6,8.3-5.4c2.8,4.9,6.4,9.4,11.3,12.3c10.9,3.3,24.7-2.4,27.2-14.2
				C471.8,580.6,461.7,566.6,448.7,567.7z M317.6,569.4 M185.2,572.2c2.9,4.5,1,6-3.7,4.3c-1.2,1.3-2.5,2.7-3.7,4
				c-1.4-0.7-4.1-2.1-5.5-2.8c1.7-2.4,3.4-4.7,5.1-7.1c-1.4,1.3-2.8,2.5-4.2,3.7c-2-1.4-3.8-3-5.8-4.5c-1.3,2.7-2.1,5.5-1.9,8.5
				c2.1-0.9,4.2-1.7,6.3-2.5c0.8,4.8-3.4,5.5-6.7,3.2c-0.5,1.8-1,3.6-1.6,5.4c3.4-1.5,6.7-3,10.1-4.6c-0.5,2.4-0.9,4.8-1.4,7.1
				c1.8-1.8,3.5-3.6,5.2-5.4c-0.2,1.7-0.6,5.2-0.8,7c3-2.7,5.2-6.1,4.9-10.3c5.9,0,11.8,0.1,17.8-0.1c0.2-1,0.7-2.9,0.9-3.9
				c-3.5-0.5-11.3,2.7-11.5-2.4c3.4-0.6,7.2-0.9,9.7-3.6C193.7,568.4,189.3,570.1,185.2,572.2z M179.2,573.9c2.1,1.1,5.2-2,4.2-4.1
				C181.2,568.9,178.2,571.8,179.2,573.9z M177.3,570.6 M336.2,568.8c-0.8,13.6-0.8,27.3,0.1,41C348.8,599.1,343,581,336.2,568.8z
				 M213.1,573.1c-0.9,0-2.7,0.1-3.7,0.1c1.8,2.7,4,5,6.8,6.7c-0.1-1-0.3-2.9-0.4-3.9c0.9-0.3,2.5-1,3.4-1.3
				c-0.8-1.1-2.4-3.2-3.2-4.2C215.1,571.3,214.1,572.2,213.1,573.1z M208.1,570.5 M311.1,571c-0.3,5-0.4,9.9-0.4,14.9
				c2.5-1.3,5-2.6,7.5-3.8C317.9,577.4,314,574.3,311.1,571z M849.6,573.3c0,4.9,0.1,9.8,0.2,14.7c12.5,0.5,25,0.3,37.4-2
				c-0.3-3.1,1.2-6.9-0.7-9.6C874.9,570.9,861.9,573.9,849.6,573.3z M816.7,575.2c0.4,2.8,6.4,1.9,5.3-0.9
				C820.6,573.1,817.4,573.2,816.7,575.2z M736.5,584.3c-0.4-0.8-1.1-2.4-1.5-3.3c-9.5,13-12.6,29.8-6.8,45.1c1.5,0.7,3,1.3,4.4,2
				c-0.8,0.4-2.5,1.1-3.3,1.5c10.2,14.6,28.6,17.6,45.1,15.6c-1.8-0.2-3.7-0.4-5.5-0.6c6.8-3.5,13.2-7.9,20.1-11
				c2.6-8,6.8-15.5,7-24.1c-2.4-0.9-4.9,0.7-7.3,0.9c-0.4,3.7,0.5,7.2,2.6,10.3c-2.5,1.1-5,2.5-7.3,4c0.5,2.2,1.1,4.5,1.6,6.8
				c-3.6,0.2-3.6-2.9-3.9-5.7c6.9-5.3,5.5-14.1,5.7-21.8c-0.7,0.5-2.1,1.4-2.8,1.8c4.9-10.7-6.3-18.6-15.5-20.5
				c-8.1-7.9-18.8-1.9-27,2.5c0.5,1.1,1,2.1,1.6,3.2c-1.1,0.3-3.3,0.8-4.4,1c-4.4,5.1-6.1,11.6-6.2,18.2c-2,0.2-4,0.5-6,0.7
				c0.8-2.7,3.2-3.1,5.6-3.6c0.2-2.2,0.3-4.4,0.4-6.5c-0.8-0.9-2.4-2.8-3.2-3.7c2.2-0.8,4.3-1.5,6.5-2.3c0.1-3,0.2-6,0.2-9
				c2.1,0.5,4.2,1,6.3,1.4c1.1-2.8,2.2-5.7,3.3-8.5c0.6,1.1,1.8,3.4,2.4,4.5c2.2-1,4.4-1.9,6.5-2.9c0.4-1.5,0.7-2.9,1.1-4.4
				c3.4,3.6,8.6,5.6,12.3,1.1c0.8,2.1,1.7,4.2,2.6,6.3c2.5-1,5-1.9,7.5-2.9c-0.4,3.9,0.2,7.8,2.6,10.9c1.6-1.6,3.2-3.2,4.7-4.7
				c0,3.5,0,7.1,0.3,10.6c1.8-0.2,3.6-0.4,5.4-0.6c-1.6,3.3-2.9,6.8-3,10.5c2,0.1,4,0.2,6,0.2C799.3,579,752.4,559.8,736.5,584.3z
				 M602.1,575.2c3.3,2.9,7.9,2.9,12,3.7c-0.1-1.5-0.2-4.4-0.3-5.9C609.9,573.7,606,574.4,602.1,575.2z M579.2,574.5
				c0.6,0.8,1.7,2.5,2.3,3.4c6.7,0.1,13.5,0.2,20.2,0c0-0.9-0.1-2.8-0.1-3.7C594.1,573.9,586.6,573.7,579.2,574.5z M326.9,582
				c2.4,0.9,4.8,1.9,7.1,2.9c-0.1-4.1-0.2-8.1-0.4-12.2C330.6,575.2,327.7,578,326.9,582z M293.2,586c0.1-4.5-0.1-9-0.5-13.5
				C287.3,574.9,288.1,583.5,293.2,586z M888.7,576.4c0.2,2.4,0.3,4.8,0.4,7.2c6.9,9.8,25.7,4.9,23.9-8.2
				C904.9,575.3,896.8,575.8,888.7,576.4z M812.9,574.9c1.9,3.7,2.8,8.8,7.4,10.1C818.8,581,816.9,577,812.9,574.9z M277.8,574.6
				c-5.5-0.2-10.9,0.8-16.1,2.8c0.4,4.6-2.8,12.5,3.6,13.9c0.2-4.1,0.2-8.2,0.3-12.3l1.5,0.1c-0.2,11.5,0,23-0.1,34.6
				c1.4,0,4.1,0,5.4,0.1c-0.3-12,4.4-23.6,10.1-33.9C281,578,279.4,576.3,277.8,574.6z M821.4,579.5c2.1,0.4,11.1,2,6.5-2
				C825.9,576.4,821.3,576.7,821.4,579.5z M503.4,597.3c1.3,0.2,3.8,0.6,5,0.8c0.1-7.3,0.2-14.5-0.1-21.7
				C498.8,576.8,504.2,590.6,503.4,597.3z M204.3,576.4c1.2,2.7,2.6,5.2,3.9,7.8c-4.3,0-8.5-1.6-12.6-2.9c-2,2.2-4.1,4.3-6.2,6.4
				c0.8,3.5,1.6,7,2.3,10.5c1.8-0.6,3.7-1.1,5.5-1.7c-0.6,3-1.2,6-1.9,9c-5.9-1.1-4.3-11-11.9-10c0.6,2.3,1.3,4.6,1.9,6.8
				c-2.3-0.5-4.6-1-6.9-1.4c1.4,1.7,2.8,3.4,4.1,5c-1.5-0.5-4.4-1.6-5.9-2.1c1.1,2.1,2.3,4.1,3.4,6.2c3.2-1.8,6.4-3.7,9.6-5.6
				c-0.9,3.3-1.8,6.5-2.6,9.8c3.8,1,7.6,1.9,11.4,2.7c-3.3-2.1-6.7-4-10.2-5.9c2.5-4.1,6-4.1,6.5,1c-0.2-1.3-0.5-4-0.7-5.3
				c4.4-0.3,8.8-1.1,12.9-2.6c-2.6-3.3-6.8-2.4-10.4-2.4c3.9-4.1,8.2-7.8,12.9-10.9c-0.5,3.3-0.8,6.6-0.4,10
				c4.8-3.6,5.4-9.3,5.4-14.9c-1.5,4.8-6.6,4.6-10.7,3.7c1.6-3.3,5.2-4.2,8.2-5.6c-0.5-1.8-1-3.6-1.5-5.3
				C208.7,577.9,206.5,577.1,204.3,576.4z M472.6,582.4c0.7,3.4,7.4,1.1,6-1.9C476.8,578.8,473.1,580,472.6,582.4z M344,579.7
				c-0.1,5.3,0.3,10.5,1,15.7c1.9-3,3.3-6.2,4.3-9.6C347.5,583.8,345.8,581.7,344,579.7z M218.7,581.3 M185,579.8
				c-1.7,3.7-2.9,7.6-3.5,11.6c4-0.9,5.6-4.4,6.7-8C187.4,582.5,185.8,580.7,185,579.8z M684.3,592.2c2.9-0.1,4-5.1,2.6-7.3
				C684.4,585.4,683.7,590,684.3,592.2z M484.5,584.7c3.3,11.1-4.1,20.7-8.2,30.3c11.5-6.3,11.5-19.9,13.5-31.3
				C488.5,584,485.9,584.5,484.5,584.7z M282.3,585 M168.4,587.5c-2.1-0.7-4.3-1.4-6.5-2.1c-0.1,2.5-0.2,5-0.3,7.5
				c2-0.9,3.9-1.8,5.9-2.8c3,4.3,3.7,10,5.2,15c-2.3-1.9-4.6-3.8-7-5.7c-4,6.3,4.3,11.9,9.3,13.8c-1.4-2.9-3.2-5.6-4.7-8.4
				c1.2,0.6,3.7,1.9,5,2.5c-1.2-2.2-2.3-4.4-3.4-6.6c3.1-1.1,6.2-2.2,9.3-3.5c-1.7-0.2-5.1-0.5-6.7-0.6c1.2-1.8,2.4-3.7,3.6-5.5
				c-1-0.5-3.2-1.5-4.2-2c0.6,1,1.7,3.1,2.2,4.1c-5.2-0.7-7.7-3.9-6.5-9.1C169.3,585,168.7,586.7,168.4,587.5z M472.5,598.1
				c8.4,2.3,5.3-8.6,5.5-13.5C473.3,587.5,473.4,593.3,472.5,598.1z M129.1,596.2c2-1.2,4-2.5,5.9-3.7c-0.6-2.9-1.1-5.7-1.8-8.6
				C131.2,587.7,129.9,591.9,129.1,596.2z M471,594.8c2.5-0.3,2.7-4.7,1.2-6.3C469.8,588.9,469.5,593.3,471,594.8z M310.9,587.6
				c0.8,11.9-3.1,24.3,1.3,35.7c3.1-6,9.1-8.8,15.4-5.6c-2.5,0.1-5,0.2-7.4,0.1c0.2,0.8,0.7,2.5,1,3.3c4.5-3.3,9-2.3,12.2,2.1
				c4.9-11.5-1.2-23.7,0.6-35.7C326.2,587.5,318.5,587.4,310.9,587.6z M128.1,590 M275.8,603.4c3.1-4.2,5.1-9.1,5.5-14.4
				C277.7,593,276,598.2,275.8,603.4z M639.5,603.2c-0.1,4.4-0.1,8.8-0.1,13.3c14.4,0.3,28.8-0.2,43.2,0.3c2.2-8.2,4.1-16.5,6-24.8
				C678.4,609.5,655.9,601.8,639.5,603.2z M630.6,592.8c0,1.1,0.1,3.2,0.2,4.3c-37.2-0.4-74.4,0.1-111.5-0.2
				c-3.3-0.1-6.6,0.2-9.5,1.7c42.4,0.5,84.8,0.7,127.2,0.3l0.3-1.8c-1.7,0.1-5.1,0.4-6.7,0.5c1.8-1.7,3.6-3.5,5.3-5.2
				C634.4,592.5,631.9,592.7,630.6,592.8z M253.1,593c-0.2,2.4-0.5,4.7-0.8,7.1c-1.8-2.5-3.1-5.3-3.6-8.3c-0.3,3.2-0.4,6.5-0.4,9.7
				c-1.4-1.9-2.7-3.8-4.1-5.6c-0.3,0.9-0.9,2.7-1.2,3.6c-0.7-1.9-1.4-3.8-2.2-5.7c0.4,4.1,0.8,8.1,1.2,12.2
				c-0.8-1.1-1.7-2.2-2.5-3.3c-0.1,1.9-0.2,3.8-0.4,5.6c2.3,0.2,4.5,0.9,6.6,1.9c1.3-1.3,2.7-2.6,4-3.8c2.5,1.4,4.9,2.9,7.3,4.3
				c-0.4-3-0.7-6-1-9c2.1,2.6,3.2,5.7,4.1,8.9c1.7-0.4,3.4-0.8,5.1-1.2c-0.4-7.8-4.2-13.9-12.3-15.2c4.3-0.2,10.5-1.9,12.4,3.4
				c-0.1-1.6-0.3-3.2-0.4-4.7C261.1,592.9,257.1,593,253.1,593z M221.5,593.7c-0.6,2.7-1.1,5.5-1.6,8.3c1.9-2.5,3.6-5.2,5.5-7.7
				c0.5,3.3,0.6,6.7,0.3,10c-0.7-0.3-2-0.8-2.7-1c-0.4,11.3-12.5,16.2-22,18.1c8.3,7,17.4,13.1,25.5,20.4
				c1.8-12.3,12.4-24.3,25.8-21.4c10.3,0.9,13.7,11.9,21.8,16.4c-1.4,0.1-4.3,0.3-5.7,0.4c-0.4,1.9-0.8,3.8-1.3,5.8
				c-2.3-0.9-1.7-3.9-2.5-5.8c-3.9,0.2-7.8,0.3-11.7,0.3c0.3,2.3,0.6,4.6,0.8,7c5.6,0.2,11.2,0.7,16.7,1.8c-1.8,2.9-3.6,5.8-5.4,8.8
				c4.1,0,8.2-0.1,12.4,0.2c-1.3,2.9-5.4,1.2-8,1.9c-0.2,1.1-0.7,3.4-0.9,4.5c1.7,0,5-0.1,6.7-0.1c-0.9,0.6-2.8,1.9-3.7,2.5
				c-0.3,1-1,3.1-1.4,4.1c2.6,0,5.2,0,7.7,0.1c-3.9-8.9,6.4-7.8,11.7-5.6c-9.9-2.5-13.3-12.5-20.9-18.2c2.4-1.9,4.8-3.9,6.8-6.2
				c-0.1,1-0.2,2.9-0.3,3.9c14-2.8,28.2-4.2,42.1-7.6c0.9-1.9,1.7-3.7,2.6-5.6c14.3,10.9,33.5,8.8,50.1,14c0.3-2.4,0.6-4.8,0.9-7.2
				c-3-0.8-6.1-1.6-9.1-2.4c-0.1-0.8-0.4-2.4-0.5-3.2l2.9,0c-1.6-0.7-3.2-1.4-4.8-2.1c0,0.8,0,2.4,0,3.2c-6.5-0.1-12.2-4.4-18.8-3.1
				c-5.8,0.9-11.7-0.6-13.7-6.7c-0.6,1-1.3,2-1.9,3c0.5,1.2,1.4,3.6,1.9,4.8c-10.1-0.5-20.4-2.1-30.5-0.6c-7.6,2-14.8,5.2-22.6,6.2
				c5.2-14.2,21.5-16,34.4-18.1c-3.8-7.9-6.7-16.5-12.2-23.4c-4.5-0.5-9-0.2-13.5-0.2c-3.1,7.4-5,15.5-9.2,22.4
				c-12.8-1.3-25.7-3.6-38.7-4.1c1.3-5.9,4.9-11.8,2.6-17.8c-2.3,6.5-2.8,13.4-3.3,20.2c-2.8-3.2-5.6-6.5-7.8-10.1
				c1.4,0.8,4.2,2.5,5.6,3.3c0.2-4.8,0.1-9.7,1-14.4C228.9,592.8,225.2,593.2,221.5,593.7z M215.6,601.4c3.1-2.3,3.9-6.2,4.9-9.6
				C215.9,592.6,216.2,597.8,215.6,601.4z M681.6,596.3c-0.3,0.3-0.8,0.8-1,1C680.9,597,681.4,596.5,681.6,596.3
				C682.7,595.2,682.7,595.2,681.6,596.3z M384.7,593.6c0.9,1.1,2.8,3.3,3.8,4.5c8.2,0.5,16.4,0.2,24.5,0.4
				c-0.2-1.2-0.6-3.5-0.8-4.6C403.1,594.6,393.9,594.3,384.7,593.6z M680.6,597.3 M418.5,598.1 M637.1,600.3
				c13.7,1.3,28.1,2.9,41.4-0.7C664.8,599.6,650.9,598.7,637.1,600.3z M421.1,603.5c-0.7,0-1.9,0.1-2.6,0.1c0.6,1.3,1.2,2.5,1.7,3.8
				c3-2.2,6.2-4.3,8.2-7.5C425.8,600.6,423.3,601.9,421.1,603.5z M570.7,602.2c0,1.5,0,4.6,0,6.1c4.3,0,8.5,0,12.8-0.1
				c0-1.5,0-4.5,0-6C579.2,602.2,574.9,602.2,570.7,602.2z M465.1,601.8c-5.9,2.4-4.2,8.1-1.7,12.5c3.1-2.6,6.1-5.3,9.1-8
				C470,604.8,467.5,603.3,465.1,601.8z M425.9,606.4c2.5,3.1,5.5,5.8,8.7,8.3c0.9-2.9,1.8-5.8,2.8-8.6
				C434.2,601.2,429.6,603.6,425.9,606.4z M275.8,603.4 M211.8,602.7c1.4,0.9,2.9,1.8,4.3,2.7c-1.6,1.8-3.3,3.7-4.9,5.5
				c1.4-0.2,4.1-0.6,5.5-0.8c0-2.3,0.1-4.7,0.1-7C215.5,603,213,602.8,211.8,602.7z M210.6,606.2 M198.4,609.4
				c0.8,2.4,1.6,4.8,2.4,7.2c2.7-1,5.3-2,7.9-3.2c-2.1-0.2-6.2-0.5-8.3-0.7c2.5-1,5-2.1,7.5-3.2
				C204.8,608.8,201.6,609.1,198.4,609.4z M174.9,614.3c-1.9,3,1.5,4.7,3.4,6.4c2-2.1,4.1-4.1,6.5-5.7
				C181.5,614.8,178.2,614.2,174.9,614.3z M188.3,619c6.6,6.7,14.9,11.4,21.8,17.7c0.9-1,2.6-3,3.4-4
				C204.7,628.9,198.6,618.1,188.3,619z M449.7,633.4c8.2-2.5,16.5-6.5,20.6-14.5C462.2,621.7,455.2,626.9,449.7,633.4z
				 M334.4,623.9c7.3,0.4,14.7,0,21.9,1.7c-1.2-1.5-2.4-2.9-3.6-4.4C346.6,621.6,335.5,614.4,334.4,623.9z M289.5,623
				c7,1.3,14.1,1.4,21.1,1C309.2,614.3,295.6,621,289.5,623z M184.6,619.7 M450.1,627.1c2.4,0.7,7-1.3,6.5-4.1
				C454.2,621.8,449.3,624.2,450.1,627.1z M319.4,623 M185.8,624.8c1.5,1.8,3,3.7,4.4,5.5c1.2-0.6,3.6-1.8,4.9-2.5
				c-1.6-1.8-3.3-3.7-5-5.5C189.1,623,186.9,624.2,185.8,624.8z M234.3,634.4c-2.1,4.3,0.8,9.3,0.8,13.9c1.7-1.4,3.4-2.8,5.1-4.1
				c-1,2.4-2,4.8-3,7.2c3.2,1.6,6.5,3.1,9.8,4.5c-3.7-8.4,7.9-8,3.2,0.1c4.2-1.3,8.3-3.2,10.8-7c-6.4-1.4-14.9,1.6-19.5-4.5
				c-0.7-3.8,1.4-7.4,2-11c-1.7,2.6-2.5,5.6-3.3,8.6c-1.1-2.6-2.2-5.1-3.4-7.7c5.2,0.1,9.2-3.1,12.2-7c1.6,1.8,3.2,3.7,4.9,5.5
				c-3,0.2-6,0.5-8.9,1c5.8,0.5,11.5,0.2,17.2-0.5C255.7,624.8,239,623.4,234.3,634.4z M395,626.6c-0.3,4.7,3.8,5.3,7.4,6.4
				c-2.8,0.1-5.7,0.1-8.5,0.1c-0.7-2-1.5-4.1-2.2-6.1c-2.9,2.2-5.6,4.7-8.1,7.4c8.8-1.7,22.1-1.6,21,11c0.2-1.9,0.4-3.8,0.6-5.7
				c1.7,2.2,3.5,4.3,5.4,6.3c0.8-4.7-0.2-9.4-1.7-13.9c-2.1,1.6-4.2,3.2-6.4,4.7c1.1-2.5,2.2-5,3.3-7.5
				C402.2,628.2,398.6,627.3,395,626.6z M199.4,633.6c1.2-1.9-1.3-3.9-3.1-3.9C192.8,630.6,197.2,635.5,199.4,633.6z M436.7,633.2
				 M322.6,631.1c-2.2,2.9-4.5,5.7-7,8.3c0.3,9.5-5.9,17.5-13.8,22.2c3.6,0.1,7.1,0.2,10.6,0.3c-0.3-2.3-0.7-4.5-0.9-6.8
				c7.9-0.1,15.7,0.1,23.5,0.2C330.1,647.2,330.4,637.3,322.6,631.1z M198.6,636.4c6.9,3.9,13.7,8,18.6,14.5
				c1.2-1.5,2.5-2.9,3.7-4.4c-6.9-3.6-14.2-7.2-17.7-14.5C201.7,633.5,200.2,634.9,198.6,636.4z M213.6,634c-0.4,1-1.2,2.9-1.5,3.8
				c3.7,3.3,7.6,6.4,11.8,9C228.6,640,217.3,637.8,213.6,634z M380.1,637.3c0.2,8.8-10.3,10.6-13,18.1c4.3,0.1,8.6,0.1,12.9,0.1
				c-1.4-3.1-2.8-6.2-4.1-9.4c5.6-0.6,11.2-0.9,16.9-0.9c-0.2-2.4-0.3-4.8-0.2-7.3C388.4,637.8,384.3,637.6,380.1,637.3z
				 M371.2,637.3c0.2,1.3,0.5,4,0.7,5.4c1.1,0.1,3.4,0.2,4.5,0.2c0.1-1.4,0.2-4.1,0.2-5.5C375.2,637.4,372.5,637.3,371.2,637.3z
				 M397.9,640 M333.7,640.2c1.6,2.7,3.1,5.5,4.5,8.3c1.4-0.1,4.2-0.4,5.7-0.5c-1.1,1.7-2.2,3.4-3.3,5.1c4.1,1.5,8.3,2.8,12.6,3.2
				c-1.5-4.4-5.8-5.9-9.5-7.8c2.1,0.4,4.2,0.8,6.2,1.2c-1.9-1.7-3.9-3.3-5.9-5c-0.1-1.1-0.2-3.3-0.2-4.4
				C340.4,640.2,337.1,640.1,333.7,640.2z M296.1,650.5c4.4-2.3,7.3-6.5,8.1-11.4C301.3,642.8,298.6,646.6,296.1,650.5z
				 M250.3,639.8 M352.5,641.7 M295.6,641.5 M353.5,643.4c0.3,4.2,0.6,8.5,1,12.7c3.9-1.8,7.3-4.5,9.7-8.1c-3.1,0.2-6.3,0.5-9.4,0.8
				c-0.7-4.3,5.3-3.7,7.8-5.6C359.5,643.1,356.5,643.2,353.5,643.4z M301.2,654.4c-0.9-0.9-2.7-2.7-3.5-3.6c-3.5,0.6-7,1.5-10.4,2.7
				c0.3-1.4,0.7-4.3,1-5.8c-1.7,0.1-5.2,0.3-7,0.4c4.2,7.9,13.7,8.7,21.5,6.9c2.8-4.1,5.1-8.6,6.4-13.4
				C302.6,642.2,302,649.3,301.2,654.4z M273.6,645.7c7.5-0.7,15-1.2,22.5,0C289,641.9,280.9,642.8,273.6,645.7z M370.6,644.9
				 M224.2,646.6c2,2,4.1,4,6.2,5.9c-0.8-2.6-1.6-5.2-2.4-7.9C227,645.1,225.1,646.1,224.2,646.6z M405.4,645.9
				c-2.6,2.6-5,5.3-6,8.8c-3.2-3.4-7.4-5-12-4.4c-1.7-1.4-3.8-1.9-5.9-2.2c5.9,11.2,21.8,10.3,29.7,1.8
				C409.3,648.6,407.4,647.2,405.4,645.9z M292.1,648.2 M219.6,649c2.9,3.9,6.1,7.4,9.2,11.1c1.1-0.7,3.4-2.1,4.5-2.8
				C229.5,653.5,224.6,651,219.6,649z M359.5,661.3c7.5,0.5,15.1,0.5,22.6,0.6c0.1-1,0.3-3.1,0.3-4.1
				C374.6,657.4,365.7,655.3,359.5,661.3z M318.2,656.7c-0.1,1.3-0.2,3.8-0.2,5.1c5.2,0.1,10.4-0.2,15.5-0.7c-0.1-1-0.3-3-0.4-4
				C328.2,657.2,323.2,657,318.2,656.7z M255.3,661.3c3.4,0.2,7.1,0.2,9.8-2.2c0.6,0.7,1.7,2,2.2,2.7c-0.1-1.4-0.3-4.1-0.3-5.5
				C262.9,657.7,259,659.3,255.3,661.3z M335.1,660.6c2.1,3.2,8.7,0.1,3.8-2.4C337.3,656.4,333.1,658.2,335.1,660.6z M315.8,658.4
				 M388.7,660.5 M236.6,660.1 M240.9,660.9c-0.9,1.2-2.8,3.5-3.8,4.7c2.5,1,5.1,1.9,7.6,2.8c-0.1-1.3-0.2-3.9-0.2-5.2
				C243.6,662.7,241.8,661.5,240.9,660.9z M385.6,668.7c2.8,0.1,5.6,0.2,8.3,0.4c-0.2-1.8-0.7-5.3-1-7.1
				C389.5,663.3,384,663.5,385.6,668.7z M353,663.3c-0.1,1.3-0.2,4-0.3,5.3c2.4,0,4.8-0.1,7.2-0.2c-0.1-1.3-0.3-3.8-0.4-5.1
				C357.4,663.3,355.2,663.3,353,663.3z M345.5,666.4c1.8,3,8.2-0.7,3.9-2.6C347.8,662.9,344.2,664.1,345.5,666.4z M304.1,662.8
				c-0.1,1.4-0.2,4.1-0.3,5.5c7.6-2,15.5-1.5,23.1,0c-0.2-1.4-0.7-4.1-0.9-5.5C318.9,665.1,311.3,665.1,304.1,662.8z M296.5,666.6
				c1.6,2.1,6.7,0.2,4.5-2.4C299.4,662.3,294.5,664,296.5,666.6z M254.6,663.6c-0.1,1.1-0.4,3.2-0.5,4.2c2.4,0.1,4.7,0.2,7.1,0.4
				c-0.2-1.3-0.5-3.8-0.7-5C258.5,663.3,256.6,663.5,254.6,663.6z M247.5,666.8c1.6,2.2,6.4,0,4.4-2.6
				C250.3,662.3,245.6,664.2,247.5,666.8z M378.4,667.3c1.6,1.9,6.7,0.3,4.6-2.3C381.5,663,376.3,664.6,378.4,667.3z M328.2,665.9
				c0.4,2.6,6.3,1.8,5.6-0.9C332.3,663.5,329.2,664,328.2,665.9z M286.4,668c2.9,0,5.7,0,8.6,0C296.5,661.5,285.4,661.7,286.4,668z
				 M285,665.2 M263.1,665.9c0.5,3.1,7.1,2.2,5.5-1C267.1,663.5,263.6,663.6,263.1,665.9z"/>
		</g>
		<path fill="#3B3B3B" stroke="#000000" stroke-width="2" stroke-miterlimit="10" d="M255.2,457.5c-2.9,1-5.9,1.9-8.9,2.8
			c2.9,0.5,5.7,1.1,8.5,1.6C254.9,460.8,255.1,458.6,255.2,457.5z"/>
		<path fill="#3B3B3B" stroke="#000000" stroke-width="2" stroke-miterlimit="10" d="M181.2,458.6c-1.7-2.5-5.8,0.4-4,2.8
			C178.9,463.9,183,461,181.2,458.6z"/>
		<g>
			<path fill="#3B3B3B" stroke="#000000" stroke-width="2" stroke-miterlimit="10" d="M814.2,523.6c0.7-1.4,2-4.1,2.6-5.5
				c-0.8,0.2-2.5,0.6-3.4,0.8c5.1-7.3,2.3-16.5,3.3-24.8c1.1,0,3.3,0,4.4,0.1C820.9,504.2,825.1,517.8,814.2,523.6z M819.3,497.8
				 M819.1,514.6c1.5-2.4,1.2-5.9-0.1-8.3C816.7,507.3,816.6,513.8,819.1,514.6z"/>
		</g>
		<g>
			<path fill="#3B3B3B" stroke="#000000" stroke-width="2" stroke-miterlimit="10" d="M577.5,514.9c-0.5,4.4-1,8.8-3.1,12.8
				c-1-1.9-2-3.9-3-5.8c-2,1.8-4.1,3.6-6.1,5.4c-0.7-1.8-1.4-3.5-2.1-5.3c-2.1-0.3-4.1-0.6-6.2-1c0-4.1,0.1-8.2,0.2-12.3
				c4.5-1,5.9,2.8,6.7,6.4C568.4,515.1,573,515,577.5,514.9z M561,514.1 M566.8,518c0,0.9,0,2.8,0,3.7c2.4-0.6,5-1.1,6.7-3.1
				C571.4,518.3,569.1,518.1,566.8,518z"/>
		</g>
		<path fill="#3B3B3B" stroke="#000000" stroke-width="2" stroke-miterlimit="10" d="M512.5,514c-1.1-0.5-3.2-1.6-4.3-2.1
			c-0.9,0.9-2.7,2.8-3.5,3.8c1,1.3,2,2.6,3,3.8c6.7-1.7,13.8-0.5,20.3-2.9c-6.4-3.8-14.1-2.5-20.5,0.5
			C509.1,516.1,510.8,515.1,512.5,514z"/>
		<path fill="#3B3B3B" stroke="#000000" stroke-width="2" stroke-miterlimit="10" d="M674.8,521.5c-6.4,0.6-12.9,0.3-19.3,0.7
			c5.7,5.1,14.2,1.8,21.2,2.1C676.1,523.6,675.2,522.2,674.8,521.5z"/>
		<path fill="#3B3B3B" stroke="#000000" stroke-width="2" stroke-miterlimit="10" d="M871.3,539.4c-4.1-3.3-9.2-1.7-13.2,0.9
			c1.1,0.2,3.3,0.6,4.4,0.7c-0.5,1-1.4,3-1.9,4c2.4-0.8,4.5-2.2,6-4.3c3.5,5.4,10.6,3.3,15.9,4.2C879.8,541.5,876,538.1,871.3,539.4
			z"/>
		<path fill="#3B3B3B" stroke="#000000" stroke-width="2" stroke-miterlimit="10" d="M901.6,548.4c-1.6-2.1-6.3-0.2-4.3,2.4
			C898.8,553,903.8,551,901.6,548.4z"/>
		<path fill="#3B3B3B" stroke="#000000" stroke-width="2" stroke-miterlimit="10" d="M246.5,550.4c-7.3-0.3-14.7-0.9-21.8,0.9
			C230.6,557.3,239.7,552.7,246.5,550.4z"/>
		<g>
			<path fill="#3B3B3B" stroke="#000000" stroke-width="2" stroke-miterlimit="10" d="M557.3,572.6c5.2-0.1,10.4-0.1,15.6,0.2
				c-3.8,1.2-7.8,1.9-11.1,4.2c4.8,0.5,9.7,0.6,14.5,1.5c-14.2-1.2-27.6,2.1-41.2,5.4c-3.4-5-3.6-11.2-0.1-16.3
				c7.4,0.2,14.2,3.3,21.1,5.4c0.5-2.2,1-4.5,2.8-6.1C558.4,568.9,557.9,570.7,557.3,572.6z M538.6,571c-0.1,3.1-0.1,6.3-0.1,9.4
				c4-1.9,11.3-0.8,12.5-6.1C546.9,573.2,542.7,572.1,538.6,571z M536,573.3"/>
		</g>
		<path fill="#3B3B3B" stroke="#000000" stroke-width="2" stroke-miterlimit="10" d="M419.3,567.9c-3-1.5-5.1,4.2-2.1,5.4
			C419.4,573.1,420.4,569.6,419.3,567.9z"/>
		<g>
			<path fill="#3B3B3B" stroke="#000000" stroke-width="2" stroke-miterlimit="10" d="M463.5,577.5c-0.2,0.9-0.6,2.8-0.7,3.7
				c-1,0.6-2.9,1.7-3.9,2.3c0.5,5.1,2.6,9.7,4.9,14.2c-3.7-1.7-7.2-3.7-10.8-5.5c0.8,1.7,1.6,3.4,2.3,5.1c-2,0.6-3.9,1.2-5.9,1.8
				c0.7,1.5,1.5,3.1,2.2,4.6c-1.9,0-3.8,0.1-5.8,0.1c0.7-1.4,1.4-2.8,2.1-4.2c-3.8-1.7-7-4.2-9.8-7.2c1.6-0.7,3.3-1.4,4.9-2.1
				c-0.2,1-0.6,2.9-0.8,3.8c2.7,2.6,6.5,2.9,10,3.4c-0.4-1.8-0.7-3.5-1.1-5.3c2.5-0.6,4.9-1.2,7.4-1.9c-0.6-0.7-1.9-1.9-2.6-2.6
				c1-1,2-2,3.1-2.9c-3.9-0.3-7.3-2.2-10.5-4.1c-2.2,1.5-4.4,3.1-6.5,4.7c-1.1-1.3-2.1-2.6-3.2-3.9c1.6-1.4,3.1-2.8,4.7-4.2
				c1.1,1.4,2.2,2.7,3.4,4.1c-0.2-3.9-0.1-7.8,0.3-11.6c4,3,5.4,8.5,10.2,10.8C459.4,579.6,461.4,578.6,463.5,577.5z M451.8,577.9
				 M454.9,581.3 M443.2,581.2"/>
		</g>
		<path fill="#3B3B3B" stroke="#000000" stroke-width="2" stroke-miterlimit="10" d="M438.3,584.8c-2.6,0.8-1.9,6.3,1.2,5.4
			C443,589.5,441.3,584.6,438.3,584.8z"/>
		<path fill="#3B3B3B" stroke="#000000" stroke-width="2" stroke-miterlimit="10" d="M765.5,600.3c-3.6-1.8-5.9-5-8.2-8.2
			c-1.9,1.8-2.1,4.4-2.3,6.9c-1.6,1.2-3.2,2.5-4.7,3.7c-2-0.3-3.9-0.7-5.9-1c0,0.9,0,2.7,0,3.6c2.4,2.8,4.2,6,5.6,9.4
			c-0.9,0.6-2.6,1.7-3.5,2.3c-0.2,0.9-0.6,2.8-0.8,3.8c4.4-0.9,8.9-1.4,13.3-0.1c2.2,12.7,5.6-2,10.3-4.9c1.7,0.8,3.3,1.6,5,2.4
			c1.3-2,3.5-2.6,5.7-3c0.4-5.3,0.2-10.7-2.1-15.6c0.2,2.3,0.4,4.5,0.6,6.8c-1.9,3,3.4,8.5-2,8.5c-7.3-2.3-7.6-10.5-3-15.6
			c-1.3-0.6-2.7-1.3-4-1.9c-1.3,3-2.6,6-3.9,9c1.7,1,3.3,2.1,5,3.2c-1.2,0.6-3.5,1.6-4.7,2.2c0.6,1.7,1.2,3.4,1.8,5
			c-3.6-0.4-7.3-0.7-7.7,4c-1-1.5-1.9-3.1-2.9-4.6c-2,0.8-4,1.6-6,2.5c0.8-2.1,1.6-4.2,2.4-6.3c-1.6-0.4-3.3-0.8-4.9-1.2
			c1.1-1.3,2.3-2.6,3.4-3.8c0.1-1.5,0.3-4.4,0.4-5.9c1.6,0.9,3.3,1.8,4.9,2.7c0-1.4-0.1-4.3-0.1-5.7c3.5,0.3,4.5,3.3,5.3,6.2
			C763.6,603,764.5,601.6,765.5,600.3z"/>
		<path fill="#3B3B3B" stroke="#000000" stroke-width="2" stroke-miterlimit="10" d="M436.7,592.8c-3.2-1.2-4.6,4-1.5,4.9
			C438.4,598.9,439.7,593.7,436.7,592.8z"/>
		<path fill="#3B3B3B" stroke="#000000" stroke-width="2" stroke-miterlimit="10" d="M260.5,599.7c-2.2,1.1-1,7.1,1.6,6.9
			C263.7,604.5,262.5,601.1,260.5,599.7z"/>
		<path fill="#3B3B3B" stroke="#000000" stroke-width="2" stroke-miterlimit="10" d="M742.2,630.9c-5.1-5.6-7.3-12.8-5.1-20.2
			c-1.8,4-4.8,7.3-7.5,10.8c2-0.1,3.9-0.3,5.9-0.4c0.2,2.9,0.1,5.9-0.1,8.8C737.6,630.3,739.9,630.6,742.2,630.9z"/>
		<path fill="#3B3B3B" stroke="#000000" stroke-width="2" stroke-miterlimit="10" d="M781.2,628.2c-1.9,1-3.8,2.1-5.6,3.2
			c-0.2-1-0.4-2.9-0.6-3.8c-1,2.2-1.9,4.3-2.9,6.5c-7.2,3.9-16.2,3.9-20.8-3.7c2.1,3.3,2.1,7.1,1.3,10.9c2.5-1.9,5.2-3.4,8.4-3.6
			c1.1,1.3,2.2,2.6,3.3,3.9c2.7-5.1,8-6,12.9-3.5c-0.2-1.6-0.4-3.1-0.6-4.6C778.2,631.8,779.7,630.1,781.2,628.2z"/>
		<path fill="#3B3B3B" stroke="#000000" stroke-width="2" stroke-miterlimit="10" d="M752,635.3c-2.5-1.6-5.1-3.2-7.7-4.8
			C740.1,637.9,746.7,638.4,752,635.3z"/>
	</g>
</g>
<g id="text">
</g>
<g id="scratch">
</g>
<g id="guides" display="none">
</g>
</svg>
