<svg version="1.2" baseProfile="tiny" xmlns="http://www.w3.org/2000/svg" viewBox="0 0 75 75" overflow="visible" xml:space="preserve"><path fill="#818181" d="M-74.9 0h75v75h-75zM.1 0h75v75H.1z"/><path fill="#010101" d="M16 59.2V57l4.5-6.6h2.4v6.9h1.5v1.8h-1.5v2.4h-2.4v-2.4H16zm1.8-1.8h2.8v-4.1l-2.8 4.1z"/><g fill="#010101"><path d="M12.5 20.9V9.3h3.4c1.6 0 3.2.6 3.2 3.3 0 2.6-2 3.2-3.2 3.2H14v5.1h-1.5zm1.5-6.4h1.6c.6 0 2-.2 2-2s-1.3-1.9-1.6-1.9h-2v3.9zM22.8 15.6v5.3h-1.5V9.3h4c2 0 2.8 1.4 2.8 2.9 0 1.4-.8 2.4-2.1 2.6 1.3.2 1.8.7 1.9 3 0 .5.2 2.3.4 3h-1.5c-.4-.8-.3-2.3-.4-3.8-.1-1.4-1.2-1.5-1.7-1.5h-1.9zm0-1.3H25c1.1 0 1.6-.9 1.6-1.9 0-.8-.4-1.8-1.6-1.8h-2.2v3.7zM32 20.9h-1.5V9.3H32v11.6zM36 17.5v.3c0 1.6 1 2.1 1.9 2.1 1.2 0 2.1-.5 2.1-1.9 0-2.6-5.2-2.3-5.2-5.7 0-2 1.5-3.1 3.4-3.1 2.1 0 3.3 1 3.2 3.4h-1.5c0-1.3-.4-2.1-1.8-2.1-.9 0-1.8.4-1.8 1.7 0 2.5 5.2 2.2 5.2 5.8 0 2.4-1.7 3.2-3.6 3.2-3.4 0-3.4-2.6-3.4-3.7H36zM43.8 16.7v-3.8c0-2.3 1.2-3.8 3.6-3.8 2.4 0 3.6 1.5 3.6 3.8v3.8c0 3.2-1.2 4.5-3.6 4.5-2.4-.1-3.6-1.3-3.6-4.5zm5.8 0v-3.9c0-2.4-1.7-2.5-2.1-2.5-.5 0-2.1.1-2.1 2.5v3.9c0 2.5.7 3.2 2.1 3.2s2.1-.6 2.1-3.2zM61.7 9.4V21h-2l-4.6-10v10h-1.3V9.4h2.1l4.5 9.9V9.4h1.3z"/></g><g fill="#010101"><path d="M19.7 28.4c0-1.4-.6-2.1-2-2.1-.5 0-2.1.1-2.1 2.5v3.9c0 2.5.7 3.2 2.1 3.2 1.1 0 1.8-.3 2.1-.5v-3.5h-2.1v-1.3h3.6v5.6c-.9.5-2 .9-3.5.9-2.4 0-3.6-1.3-3.6-4.5v-3.8c0-2.3 1.2-3.8 3.6-3.8 2.5 0 3.7.9 3.6 3.3h-1.7zM24 25.4h1.5v7.4c0 2.5.8 3.2 2.2 3.2s2.2-.6 2.2-3.2v-7.4h1.5v7.3c0 3.2-1.2 4.5-3.6 4.5-2.4 0-3.6-1.3-3.6-4.5v-7.3zM36.5 25.4h1.9L42.2 37h-1.7l-.8-2.8h-4.5l-.9 2.8h-1.5l3.7-11.6zm.9 1.3-1.8 6.2h3.7l-1.9-6.2zM45.2 31.6v5.3h-1.5V25.3h4c2 0 2.8 1.4 2.8 2.9 0 1.4-.8 2.4-2.1 2.6 1.3.2 1.8.7 1.9 3 0 .5.2 2.3.4 3h-1.5c-.4-.8-.3-2.3-.4-3.8-.1-1.4-1.2-1.5-1.7-1.5h-1.9zm0-1.3h2.2c1.1 0 1.6-.9 1.6-1.9 0-.8-.4-1.8-1.6-1.8h-2.2v3.7zM52.8 25.4h3.6c1.5 0 2.5.5 3.1 1.8.5 1 .5 3.3.5 3.6 0 2.5-.2 3.9-.7 4.7-.6 1-1.8 1.5-3.8 1.5h-2.7V25.4zm1.5 10.2h1.4c2 0 2.8-.8 2.8-3.5v-2.3c0-2.3-.7-3.2-2.3-3.2h-1.9v9z"/></g><path fill="#010101" d="M36.026 54.036c-.416.705-.812 1.198-1.005 1.759-.358 1.044-.57 2.126-.89 3.19-.087.27-.444.473-.493.754-.154.783-.203 1.595-.348 2.387-.038.213-.25.406-.425.56-.338.29-.657.523-.541 1.093.077.348-.02.831-.232 1.102-.116.155-.628-.02-.967-.01-.899.01-.628-.54-.57-1.063.087-.793.184-1.595.116-2.378-.068-.802.628-1.247.735-1.952.058-.426.27-.841.357-1.267.29-1.44.6-2.88.406-4.378-.048-.368.087-.754.058-1.122-.02-.26-.193-.512-.29-.744-1.14.735-2.194 1.421-3.248 2.107-.618-.966-.145-2.532.774-2.948 1.295-.58 1.46-1.14.531-2.117-.686-.725-.628-1.45-.212-2.223.715-1.334 1.633-2.523 2.58-3.702.348-.435.822-.744 1.45-.667.107.01.242-.116.358-.193.174-.116.338-.242.522-.367.329-.822-.338-1.383-.648-2.06-.328-.715.348-2.194 1.102-2.387.503-.126.996-.251 1.557-.396.406.493.88.957 1.217 1.508.213.338.271.802.339 1.218.067.473-.126.821-.503 1.16-.473.425-.038 1.237.735 1.391.812.174 1.401.503 1.546 1.44.136.861.764 1.45 1.257 1.306.609-.184 1.199-.426 1.798-.648.966-.367 1.943-.715 2.9-1.102.193-.077.319-.338.512-.406.174-.068.406.02.822.048-.242.28-.358.474-.522.61-.252.202-.542.367-.803.56s-.541.377-.754.609a1.084 1.084 0 0 0-.26.609c-.068.831-.677 1.276-1.19 1.808-.28.3-.444.724-.705 1.179l-.416-.078c.503 1.054-.038 1.653-.928 2.137a199.97 199.97 0 0 0-1.566-.793c-.096.251-.319.512-.28.725.27 1.42.27 2.851.329 4.282.058 1.45.154 2.929.667 4.35.338.957.386 2.03.56 3.045.01.038.01.096-.01.125-.25.474-.425.976.04 1.392.338.32.773.532 1.14.831.145.116.31.358.28.503-.029.126-.31.29-.473.29-.542.02-1.102.039-1.624-.068-.242-.048-.532-.348-.629-.599-.193-.522-.26-1.083-.386-1.624 0-.02-.01-.048-.02-.058-1.13-.647-.86-1.769-.995-2.784-.145-1.073-.29-2.175-1.025-3.073-.241-.29-.28-.745-.483-1.073-.348-.551-.744-1.073-1.247-1.798zm-3.113-5.114c-.048-.618-.067-1.179-.154-1.73-.02-.125-.251-.29-.396-.319-.145-.02-.348.078-.455.194-.531.55-.116 1.643 1.005 1.855z"/></svg>