<svg version="1.2" baseProfile="tiny" xmlns="http://www.w3.org/2000/svg" viewBox="0 0 75 75" overflow="visible" xml:space="preserve"><path fill="#FFF" d="M0 0h75v75H0z"/><path fill="#010101" d="M18.5 58.9c0 .3.2 1.2 1.3 1.2.9 0 1.6-.6 1.6-2.1 0-1.1-.4-2-1.5-2s-1.3.9-1.4 1.1l-2.3-.1.3-6.6h6.8v1.8h-4.7l-.1 2.8c.4-.3.9-.8 2.1-.8 1.8 0 3.3 1.3 3.3 3.6 0 1.9-1.1 4-4 4-1.2 0-2.4-.3-3.1-1.2-.6-.7-.6-1.4-.6-1.8h2.3z"/><g fill="#010101"><path d="M12.4 20.9V9.3h3.4c1.6 0 3.2.6 3.2 3.3 0 2.6-2 3.2-3.2 3.2h-1.9v5.1h-1.5zm1.5-6.4h1.6c.6 0 2-.2 2-2s-1.3-1.9-1.6-1.9h-2v3.9zM22.6 15.6v5.3h-1.5V9.3h4c2 0 2.8 1.4 2.8 2.9 0 1.4-.8 2.4-2.1 2.6 1.3.2 1.8.7 1.9 3 0 .5.2 2.3.4 3h-1.5c-.4-.8-.3-2.3-.4-3.8-.1-1.4-1.2-1.5-1.7-1.5h-1.9zm0-1.3h2.2c1.1 0 1.6-.9 1.6-1.9 0-.8-.4-1.8-1.6-1.8h-2.2v3.7zM31.9 20.9h-1.5V9.3h1.5v11.6zM35.9 17.5v.3c0 1.6 1 2.1 1.9 2.1 1.2 0 2.1-.5 2.1-1.9 0-2.6-5.2-2.3-5.2-5.7 0-2 1.5-3.1 3.4-3.1 2.1 0 3.3 1 3.2 3.4h-1.5c0-1.3-.4-2.1-1.8-2.1-.9 0-1.8.4-1.8 1.7 0 2.5 5.2 2.2 5.2 5.8 0 2.4-1.7 3.2-3.6 3.2-3.4 0-3.4-2.6-3.4-3.7h1.5zM43.7 16.7v-3.8c0-2.3 1.2-3.8 3.6-3.8s3.6 1.5 3.6 3.8v3.8c0 3.2-1.2 4.5-3.6 4.5s-3.6-1.3-3.6-4.5zm5.7 0v-3.9c0-2.4-1.7-2.5-2.1-2.5s-2.1.1-2.1 2.5v3.9c0 2.5.7 3.2 2.1 3.2s2.1-.6 2.1-3.2zM61.6 9.4V21h-2L55 11v10h-1.3V9.4h2.1l4.5 9.9V9.4h1.3z"/></g><g fill="#010101"><path d="M19.6 28.4c0-1.4-.6-2.1-2-2.1-.5 0-2.1.1-2.1 2.5v3.9c0 2.5.7 3.2 2.1 3.2 1.1 0 1.8-.3 2.1-.5v-3.5h-2.1v-1.3h3.6v5.6c-.9.5-2 .9-3.5.9-2.4 0-3.6-1.3-3.6-4.5v-3.8c0-2.3 1.2-3.8 3.6-3.8 2.5 0 3.7.9 3.6 3.3h-1.7zM23.9 25.4h1.5v7.4c0 2.5.8 3.2 2.2 3.2s2.2-.6 2.2-3.2v-7.4h1.5v7.3c0 3.2-1.2 4.5-3.6 4.5-2.4 0-3.6-1.3-3.6-4.5v-7.3zM36.4 25.4h1.9L42.1 37h-1.6l-.8-2.8h-4.5l-.9 2.8h-1.5l3.6-11.6zm.9 1.3-1.8 6.2h3.7l-1.9-6.2zM45.1 31.6v5.3h-1.5V25.3h4c2 0 2.8 1.4 2.8 2.9 0 1.4-.8 2.4-2.1 2.6 1.3.2 1.8.7 1.9 3 0 .5.2 2.3.4 3h-1.5c-.4-.8-.3-2.3-.4-3.8-.1-1.4-1.2-1.5-1.7-1.5h-1.9zm0-1.3h2.2c1.1 0 1.6-.9 1.6-1.9 0-.8-.4-1.8-1.6-1.8h-2.2v3.7zM52.7 25.4h3.6c1.5 0 2.5.5 3.1 1.8.5 1 .5 3.3.5 3.6 0 2.5-.2 3.9-.7 4.7-.6 1-1.8 1.5-3.8 1.5h-2.7V25.4zm1.5 10.2h1.4c2 0 2.8-.8 2.8-3.5v-2.3c0-2.3-.7-3.2-2.3-3.2h-1.9v9z"/></g><path fill="#010101" d="M35.91 54.036c-.415.705-.812 1.198-1.005 1.759-.358 1.044-.57 2.126-.89 3.19-.086.27-.444.473-.492.754-.155.783-.203 1.595-.348 2.387-.039.213-.252.406-.426.56-.338.29-.657.523-.54 1.093.076.348-.02.831-.233 1.102-.116.155-.628-.02-.967-.01-.898.01-.628-.54-.57-1.063.087-.793.184-1.595.116-2.378-.067-.802.628-1.247.735-1.952.058-.426.27-.841.357-1.267.29-1.44.6-2.88.406-4.378-.048-.368.087-.754.058-1.122-.019-.26-.193-.512-.29-.744-1.14.735-2.194 1.421-3.247 2.107-.619-.966-.145-2.532.773-2.948 1.295-.58 1.46-1.14.532-2.117-.687-.725-.629-1.45-.213-2.223.715-1.334 1.633-2.523 2.58-3.702.349-.435.822-.744 1.45-.667.107.01.242-.116.358-.193.174-.116.339-.242.522-.367.329-.822-.338-1.383-.647-2.06-.329-.715.348-2.194 1.102-2.387.502-.126.995-.251 1.556-.396.406.493.88.957 1.218 1.508.212.338.27.802.338 1.218.068.473-.126.821-.503 1.16-.473.425-.038 1.237.735 1.391.812.174 1.402.503 1.547 1.44.135.861.763 1.45 1.256 1.306.61-.184 1.199-.426 1.798-.648.967-.367 1.943-.715 2.9-1.102.193-.077.319-.338.512-.406.174-.068.406.02.822.048-.242.28-.358.474-.522.61-.252.202-.541.367-.802.56s-.542.377-.754.609a1.084 1.084 0 0 0-.261.609c-.068.831-.677 1.276-1.19 1.808-.28.3-.444.724-.705 1.179l-.416-.078c.503 1.054-.038 1.653-.928 2.137a199.97 199.97 0 0 0-1.565-.793c-.097.251-.32.512-.28.725.27 1.42.27 2.851.328 4.282.058 1.45.155 2.929.667 4.35.338.957.386 2.03.56 3.045.01.038.01.096-.01.125-.25.474-.424.976.04 1.392.338.32.773.532 1.14.831.145.116.31.358.28.503-.029.126-.309.29-.473.29-.542.02-1.102.039-1.624-.068-.242-.048-.532-.348-.628-.599-.194-.522-.261-1.083-.387-1.624 0-.02-.01-.048-.02-.058-1.13-.647-.86-1.769-.995-2.784-.145-1.073-.29-2.175-1.025-3.073-.241-.29-.28-.745-.483-1.073-.348-.551-.744-1.073-1.247-1.798zm-3.112-5.114c-.049-.618-.068-1.179-.155-1.73-.02-.125-.251-.29-.396-.319-.145-.02-.348.078-.455.194-.531.55-.116 1.643 1.006 1.855z"/></svg>