<svg version="1.2" baseProfile="tiny" xmlns="http://www.w3.org/2000/svg" viewBox="0 0 75 75" overflow="visible" xml:space="preserve"><path fill="#010101" d="m149.02 45.567-73.08-.057a1.049 1.049 0 0 1 0-2.095l73.08.056a1.049 1.049 0 0 1 0 2.096z"/><path fill="#FFF" d="M0 0h75v75H0z"/><g stroke="#010101" stroke-miterlimit="1.006" transform="matrix(.10063 0 0 .10063 1087.227 524.832)"><circle fill="none" stroke-width="1.006" cx="-10406.9" cy="-4817.1" r="300"/><circle fill="#010101" stroke-width=".101" cx="-10406.9" cy="-4817.1" r="150"/></g><g stroke="#010101" stroke-miterlimit="10" transform="matrix(.09186 0 0 .09186 1087.719 525.661)"><path fill="none" stroke-width=".919" stroke-dasharray="8.8796,4.4398" d="M-11139.1-5315.4c0 165.7-134.3 300-300 300-397.9-15.8-397.8-584.3 0-600 165.7 0 300 134.3 300 300z"/><circle fill="#010101" stroke-width=".092" cx="-11439.1" cy="-5315.4" r="150"/></g></svg>