<svg version="1.2" baseProfile="tiny" xmlns="http://www.w3.org/2000/svg" viewBox="0 0 75 75" overflow="visible" xml:space="preserve"><path fill="#FFF" d="M0 0h75v75H0z"/><g fill="#010101"><path d="M13.2 52.2c1-.4 2-1 3-1.7h2.1v11.2h-2.4V53c-.5.4-1.4.9-2.6 1.4v-2.2zM24.1 50.3c1.6 0 2.5.8 2.9 1.5.6.8 1 1.9 1 4 0 2.6-.6 6-4 6-2.9 0-3.9-2.8-3.9-5.7.1-1.5.4-5.8 4-5.8zm1.2 3.2c-.1-.3-.3-1.3-1.2-1.3-.7 0-1 .6-1.1 1-.4 1.1-.4 2.8-.4 3.1 0 1.9.3 3.7 1.5 3.7 1.3 0 1.5-2.2 1.5-3.7 0-.8-.1-2.1-.3-2.8zM12.4 20.9V9.3h3.4c1.6 0 3.2.6 3.2 3.3 0 2.6-2 3.2-3.2 3.2h-1.9v5.1h-1.5zm1.5-6.4h1.6c.6 0 2-.2 2-2s-1.3-1.9-1.6-1.9h-2v3.9zM22.6 15.6v5.3h-1.5V9.3h4c2 0 2.8 1.4 2.8 2.9 0 1.4-.8 2.4-2.1 2.6 1.3.2 1.8.7 1.9 3 0 .5.2 2.3.4 3h-1.5c-.4-.8-.3-2.3-.4-3.8-.1-1.4-1.2-1.5-1.7-1.5h-1.9zm0-1.3h2.2c1.1 0 1.6-.9 1.6-1.9 0-.8-.4-1.8-1.6-1.8h-2.2v3.7zM31.9 20.9h-1.5V9.3h1.5v11.6zM35.9 17.5v.3c0 1.6 1 2.1 1.9 2.1 1.2 0 2.1-.5 2.1-1.9 0-2.6-5.2-2.3-5.2-5.7 0-2 1.5-3.1 3.4-3.1 2.1 0 3.3 1 3.2 3.4h-1.5c0-1.3-.4-2.1-1.8-2.1-.9 0-1.8.4-1.8 1.7 0 2.5 5.2 2.2 5.2 5.8 0 2.4-1.7 3.2-3.6 3.2-3.4 0-3.4-2.6-3.4-3.7h1.5zM43.7 16.7v-3.8c0-2.3 1.2-3.8 3.6-3.8s3.6 1.5 3.6 3.8v3.8c0 3.2-1.2 4.5-3.6 4.5s-3.6-1.3-3.6-4.5zm5.7 0v-3.9c0-2.4-1.7-2.5-2.1-2.5s-2.1.1-2.1 2.5v3.9c0 2.5.7 3.2 2.1 3.2s2.1-.6 2.1-3.2zM61.6 9.4V21h-2L55 11v10h-1.3V9.4h2.1l4.5 9.9V9.4h1.3zM19.6 28.4c0-1.4-.6-2.1-2-2.1-.5 0-2.1.1-2.1 2.5v3.9c0 2.5.7 3.2 2.1 3.2 1.1 0 1.8-.3 2.1-.5v-3.5h-2.1v-1.3h3.6v5.6c-.9.5-2 .9-3.5.9-2.4 0-3.6-1.3-3.6-4.5v-3.8c0-2.3 1.2-3.8 3.6-3.8 2.5 0 3.7.9 3.6 3.3h-1.7zM23.9 25.4h1.5v7.4c0 2.5.8 3.2 2.2 3.2s2.2-.6 2.2-3.2v-7.4h1.5v7.3c0 3.2-1.2 4.5-3.6 4.5-2.4 0-3.6-1.3-3.6-4.5v-7.3zM36.4 25.4h1.9L42.1 37h-1.6l-.8-2.8h-4.5l-.9 2.8h-1.5l3.6-11.6zm.9 1.3-1.8 6.2h3.7l-1.9-6.2zM45.1 31.6v5.3h-1.5V25.3h4c2 0 2.8 1.4 2.8 2.9 0 1.4-.8 2.4-2.1 2.6 1.3.2 1.8.7 1.9 3 0 .5.2 2.3.4 3h-1.5c-.4-.8-.3-2.3-.4-3.8-.1-1.4-1.2-1.5-1.7-1.5h-1.9zm0-1.3h2.2c1.1 0 1.6-.9 1.6-1.9 0-.8-.4-1.8-1.6-1.8h-2.2v3.7zM52.7 25.4h3.6c1.5 0 2.5.5 3.1 1.8.5 1 .5 3.3.5 3.6 0 2.5-.2 3.9-.7 4.7-.6 1-1.8 1.5-3.8 1.5h-2.7V25.4zm1.5 10.2h1.4c2 0 2.8-.8 2.8-3.5v-2.3c0-2.3-.7-3.2-2.3-3.2h-1.9v9z"/></g><path fill="#010101" d="M35.902 54.037c-.416.706-.812 1.198-1.006 1.76-.357 1.043-.57 2.126-.889 3.189-.087.27-.445.474-.493.754-.155.783-.203 1.595-.348 2.387-.039.213-.251.406-.425.561-.338.29-.657.522-.541 1.092.077.348-.02.832-.232 1.102-.116.155-.629-.02-.967-.01-.899.01-.628-.54-.57-1.063.087-.792.183-1.595.116-2.378-.068-.802.628-1.247.734-1.952.058-.425.27-.841.358-1.266.29-1.44.6-2.88.406-4.38-.048-.366.087-.753.058-1.12-.02-.261-.193-.513-.29-.745-1.14.735-2.194 1.421-3.248 2.108-.619-.967-.145-2.533.773-2.949 1.296-.58 1.46-1.14.532-2.116-.686-.725-.628-1.45-.213-2.224.716-1.334 1.634-2.522 2.581-3.702.348-.435.822-.744 1.45-.667.106.01.242-.116.358-.193.174-.116.338-.242.522-.367.328-.822-.339-1.383-.648-2.06-.329-.714.348-2.193 1.102-2.387.503-.125.996-.251 1.556-.396.406.493.88.957 1.218 1.508.213.338.27.802.339 1.218.067.473-.126.821-.503 1.16-.474.425-.039 1.237.734 1.392.812.174 1.402.502 1.547 1.44.135.86.764 1.45 1.257 1.305.609-.184 1.198-.426 1.798-.648.966-.367 1.942-.715 2.9-1.102.193-.077.318-.338.512-.406.174-.067.406.02.821.049-.241.28-.357.473-.522.609-.251.203-.541.367-.802.56s-.541.377-.754.61a1.084 1.084 0 0 0-.26.608c-.069.831-.678 1.276-1.19 1.808-.28.3-.444.725-.705 1.179 0 0-.155-.03-.416-.077.503 1.053-.039 1.652-.928 2.136a199.97 199.97 0 0 0-1.566-.793c-.097.251-.319.512-.28.725.27 1.421.27 2.852.328 4.282.058 1.45.155 2.929.667 4.35.339.957.387 2.03.561 3.045.01.038.01.096-.01.125-.251.474-.425.977.039 1.392.338.32.773.532 1.14.832.146.116.31.357.28.502-.028.126-.308.29-.473.29-.541.02-1.102.039-1.624-.067-.241-.049-.531-.348-.628-.6-.193-.522-.26-1.082-.387-1.624 0-.019-.01-.048-.019-.058-1.13-.647-.86-1.769-.996-2.783-.145-1.073-.29-2.175-1.024-3.074-.242-.29-.28-.745-.483-1.073-.348-.551-.745-1.073-1.247-1.798zm-3.113-5.113c-.048-.62-.067-1.18-.154-1.73-.02-.126-.252-.29-.397-.32-.145-.019-.348.078-.454.194-.532.55-.116 1.643 1.005 1.856z"/></svg>