<svg version="1.2" baseProfile="tiny" xmlns="http://www.w3.org/2000/svg" viewBox="0 0 75 75" overflow="visible" xml:space="preserve"><path fill="#818181" d="M-74.9 0h75v75h-75z"/><path fill="#010101" d="m-.874 45.573-73.082-.056a1.049 1.049 0 0 1 0-2.096l73.082.057a1.049 1.049 0 0 1 0 2.095z"/><path fill="#818181" d="M.1 0h75v75H.1z"/><path fill="#010101" d="M33.8 59.2V57l4.5-6.6h2.4v6.9h1.5v1.8h-1.5v2.4h-2.4v-2.4h-4.5zm1.8-1.8h2.8v-4.1l-2.8 4.1z"/><g fill="#010101"><path d="M12.5 20.9V9.3h3.4c1.6 0 3.2.6 3.2 3.3 0 2.6-2 3.2-3.2 3.2H14v5.1h-1.5zm1.5-6.4h1.6c.6 0 2-.2 2-2s-1.3-1.9-1.6-1.9h-2v3.9zM22.8 15.6v5.3h-1.5V9.3h4c2 0 2.8 1.4 2.8 2.9 0 1.4-.8 2.4-2.1 2.6 1.3.2 1.8.7 1.9 3 0 .5.2 2.3.4 3h-1.5c-.4-.8-.3-2.3-.4-3.8-.1-1.4-1.2-1.5-1.7-1.5h-1.9zm0-1.3H25c1.1 0 1.6-.9 1.6-1.9 0-.8-.4-1.8-1.6-1.8h-2.2v3.7zM32 20.9h-1.5V9.3H32v11.6zM36 17.5v.3c0 1.6 1 2.1 1.9 2.1 1.2 0 2.1-.5 2.1-1.9 0-2.6-5.2-2.3-5.2-5.7 0-2 1.5-3.1 3.4-3.1 2.1 0 3.3 1 3.2 3.4h-1.5c0-1.3-.4-2.1-1.8-2.1-.9 0-1.8.4-1.8 1.7 0 2.5 5.2 2.2 5.2 5.8 0 2.4-1.7 3.2-3.6 3.2-3.4 0-3.4-2.6-3.4-3.7H36zM43.8 16.7v-3.8c0-2.3 1.2-3.8 3.6-3.8 2.4 0 3.6 1.5 3.6 3.8v3.8c0 3.2-1.2 4.5-3.6 4.5-2.4-.1-3.6-1.3-3.6-4.5zm5.8 0v-3.9c0-2.4-1.7-2.5-2.1-2.5-.5 0-2.1.1-2.1 2.5v3.9c0 2.5.7 3.2 2.1 3.2s2.1-.6 2.1-3.2zM61.7 9.4V21h-2l-4.6-10v10h-1.3V9.4h2.1l4.5 9.9V9.4h1.3z"/></g><g fill="#010101"><path d="M22.9 28.5c0-.7 0-1.3-.3-1.7s-1-.5-1.3-.5c-1.2 0-1.7.7-1.7.9 0 .1-.3.4-.3 2.4v3.1c0 2.8.9 3.2 2.1 3.2.4 0 1.8-.2 1.8-2.4h1.5c.1 3.6-2.5 3.6-3.3 3.6-1.4 0-3.6-.1-3.6-4.6v-3.3c0-3.3 1.4-4.2 3.7-4.2 2.3 0 3.2 1.2 3 3.4h-1.6zM29.4 25.4h1.9L35.1 37h-1.6l-.8-2.8h-4.5l-.9 2.8h-1.5l3.6-11.6zm.9 1.3-1.8 6.2h3.7l-1.9-6.2zM38 36.9h-1.4V25.3H39l2.9 9.7 2.9-9.7h2.4v11.6h-1.5V26.6l-3.2 10.3h-1.4l-3.2-10.3v10.3zM50.2 36.9V25.3h3.4c1.6 0 3.2.6 3.2 3.3 0 2.6-2 3.2-3.2 3.2h-1.9v5.1h-1.5zm1.5-6.4h1.6c.6 0 2-.2 2-2s-1.3-1.9-1.6-1.9h-2v3.9z"/></g><g fill="#010101"><path d="M17.79 38.741 6.044 50.48m0 1.043c-.273 0-.536-.104-.743-.31a1.04 1.04 0 0 1 0-1.476l11.747-11.728a1.04 1.04 0 0 1 1.475 0 1.04 1.04 0 0 1 0 1.476L6.777 51.21c-.207.207-.47.31-.733.31zm0-12.78L17.79 50.478"/><path d="M17.79 51.522c-.263 0-.536-.104-.742-.31L5.3 39.483a1.032 1.032 0 0 1 0-1.476 1.032 1.032 0 0 1 1.476 0l11.746 11.728a1.032 1.032 0 0 1 0 1.475c-.197.207-.47.31-.733.31zm25.466-12.837L31.51 50.413m0 1.043c-.273 0-.536-.104-.742-.31a1.04 1.04 0 0 1 0-1.476l11.746-11.727a1.04 1.04 0 0 1 1.475 0 1.04 1.04 0 0 1 0 1.475L32.243 51.146c-.197.206-.46.31-.733.31zm0-12.77 11.746 11.727"/><path d="M43.256 51.456c-.263 0-.535-.104-.742-.31L30.768 39.418a1.032 1.032 0 0 1 0-1.475 1.032 1.032 0 0 1 1.475 0L43.989 49.67a1.032 1.032 0 0 1 0 1.476c-.197.206-.46.31-.733.31zm25.495-12.921L57.004 50.262m0 1.043a1.05 1.05 0 0 1-.742-1.785l11.746-11.728a1.04 1.04 0 0 1 1.476 0 1.05 1.05 0 0 1 0 1.476L57.737 50.995c-.197.207-.47.31-.733.31zm0-12.77 11.747 11.727"/><path d="M68.75 51.305c-.262 0-.535-.103-.742-.31L56.262 39.268a1.032 1.032 0 0 1 0-1.476 1.04 1.04 0 0 1 1.475 0L69.484 49.52a1.032 1.032 0 0 1 0 1.475c-.197.207-.46.31-.733.31zm5.376-6.775-73.091-.056"/><path d="m74.126 45.573-73.082-.056a1.049 1.049 0 0 1 0-2.096l73.082.057a1.049 1.049 0 0 1 0 2.095z"/></g></svg>