<svg version="1.2" baseProfile="tiny" xmlns="http://www.w3.org/2000/svg" viewBox="0 0 75 75" overflow="visible" xml:space="preserve"><path fill="#FFF" d="M0 0h75v75H0z"/><path fill="#010101" d="M36.2 58.6c0 .4.1 1.5 1.4 1.5.9 0 1.4-.7 1.4-1.5 0-1.6-1.6-1.6-2.8-1.6v-1.9c1.1 0 2.8-.1 2.8-1.7 0-.9-.7-1.3-1.4-1.3s-1.4.5-1.4 1.4h-2.4c0-.5.1-1.2.7-1.9.7-.9 1.9-1.2 3.1-1.2 2.8 0 3.8 1.8 3.8 3 0 1.9-1.6 2.4-2.1 2.5.4.1.8.3 1.3.7.8.7.9 1.5.9 2 0 1.9-1.7 3.3-4 3.3-.8 0-2-.2-2.7-.8-1-.8-1-2.1-1-2.5h2.4z"/><g fill="#010101"><path d="M12.4 20.9V9.3h3.4c1.6 0 3.2.6 3.2 3.3 0 2.6-2 3.2-3.2 3.2h-1.9v5.1h-1.5zm1.5-6.4h1.6c.6 0 2-.2 2-2s-1.3-1.9-1.6-1.9h-2v3.9zM22.6 15.6v5.3h-1.5V9.3h4c2 0 2.8 1.4 2.8 2.9 0 1.4-.8 2.4-2.1 2.6 1.3.2 1.8.7 1.9 3 0 .5.2 2.3.4 3h-1.5c-.4-.8-.3-2.3-.4-3.8-.1-1.4-1.2-1.5-1.7-1.5h-1.9zm0-1.3h2.2c1.1 0 1.6-.9 1.6-1.9 0-.8-.4-1.8-1.6-1.8h-2.2v3.7zM31.9 20.9h-1.5V9.3h1.5v11.6zM35.9 17.5v.3c0 1.6 1 2.1 1.9 2.1 1.2 0 2.1-.5 2.1-1.9 0-2.6-5.2-2.3-5.2-5.7 0-2 1.5-3.1 3.4-3.1 2.1 0 3.3 1 3.2 3.4h-1.5c0-1.3-.4-2.1-1.8-2.1-.9 0-1.8.4-1.8 1.7 0 2.5 5.2 2.2 5.2 5.8 0 2.4-1.7 3.2-3.6 3.2-3.4 0-3.4-2.6-3.4-3.7h1.5zM43.7 16.7v-3.8c0-2.3 1.2-3.8 3.6-3.8s3.6 1.5 3.6 3.8v3.8c0 3.2-1.2 4.5-3.6 4.5s-3.6-1.3-3.6-4.5zm5.7 0v-3.9c0-2.4-1.7-2.5-2.1-2.5s-2.1.1-2.1 2.5v3.9c0 2.5.7 3.2 2.1 3.2s2.1-.6 2.1-3.2zM61.6 9.4V21h-2L55 11v10h-1.3V9.4h2.1l4.5 9.9V9.4h1.3z"/></g><g fill="#010101"><path d="M22.7 28.5c0-.7 0-1.3-.3-1.7-.3-.4-1-.5-1.3-.5-1.2 0-1.7.7-1.7.9 0 .1-.3.4-.3 2.4v3.1c0 2.8.9 3.2 2.1 3.2.4 0 1.8-.2 1.8-2.4h1.5c.1 3.6-2.5 3.6-3.3 3.6-1.4 0-3.6-.1-3.6-4.6v-3.3c0-3.3 1.4-4.2 3.7-4.2 2.3 0 3.2 1.2 3 3.4h-1.6zM29.3 25.4h1.9L35 37h-1.6l-.8-2.8h-4.5l-.9 2.8h-1.5l3.6-11.6zm.9 1.3-1.8 6.2h3.7l-1.9-6.2zM37.9 36.9h-1.4V25.3h2.4l2.9 9.7 2.9-9.7h2.4v11.6h-1.5V26.6l-3.2 10.3H41l-3.2-10.3v10.3zM50.1 36.9V25.3h3.4c1.6 0 3.2.6 3.2 3.3 0 2.6-2 3.2-3.2 3.2h-1.9v5.1h-1.5zm1.5-6.4h1.6c.6 0 2-.2 2-2s-1.3-1.9-1.6-1.9h-2v3.9z"/></g><g fill="#010101"><path d="M17.683 38.741 5.937 50.48m0 1.043c-.273 0-.536-.104-.742-.31a1.04 1.04 0 0 1 0-1.476L16.94 38.008a1.04 1.04 0 0 1 1.475 0 1.04 1.04 0 0 1 0 1.476L6.67 51.21c-.207.207-.47.31-.733.31zm0-12.78 11.746 11.737"/><path d="M17.683 51.522c-.263 0-.535-.104-.742-.31L5.195 39.483a1.032 1.032 0 0 1 0-1.476 1.032 1.032 0 0 1 1.475 0l11.746 11.728a1.032 1.032 0 0 1 0 1.475c-.197.207-.47.31-.733.31zM43.15 38.685 31.403 50.413m0 1.043c-.272 0-.535-.104-.742-.31a1.04 1.04 0 0 1 0-1.476l11.746-11.727a1.04 1.04 0 0 1 1.476 0 1.04 1.04 0 0 1 0 1.475L32.136 51.146c-.197.206-.46.31-.733.31zm0-12.77L43.15 50.412"/><path d="M43.15 51.456c-.263 0-.536-.104-.743-.31L30.661 39.418a1.032 1.032 0 0 1 0-1.475 1.032 1.032 0 0 1 1.475 0L43.883 49.67a1.032 1.032 0 0 1 0 1.476c-.198.206-.46.31-.733.31zm25.494-12.921L56.898 50.262m0 1.043a1.05 1.05 0 0 1-.742-1.785l11.746-11.728a1.04 1.04 0 0 1 1.475 0 1.05 1.05 0 0 1 0 1.476L57.631 50.995c-.198.207-.47.31-.733.31zm0-12.77 11.746 11.727"/><path d="M68.644 51.305c-.263 0-.536-.103-.742-.31L56.155 39.268a1.032 1.032 0 0 1 0-1.476 1.04 1.04 0 0 1 1.476 0L69.377 49.52a1.032 1.032 0 0 1 0 1.475c-.197.207-.46.31-.733.31zm5.375-6.775L.93 44.474"/><path d="M74.02 45.573.937 45.517a1.049 1.049 0 0 1 0-2.096l73.081.057a1.049 1.049 0 0 1 0 2.095z"/></g><path fill="#010101" d="m-.98 45.573-73.082-.056a1.049 1.049 0 0 1 0-2.096l73.081.057a1.049 1.049 0 0 1 0 2.095z"/></svg>