<svg version="1.2" baseProfile="tiny" xmlns="http://www.w3.org/2000/svg" viewBox="0 0 75 75" overflow="visible" xml:space="preserve"><path fill="#FFF" d="M0 0h75v75H0z"/><g fill="#010101"><path d="M11.2 44.8V24.6h6c2.7 0 5.6 1 5.6 5.8 0 4.6-3.6 5.5-5.7 5.5h-3.4v8.9h-2.5zm2.6-11.2h2.8c1.1 0 3.6-.3 3.6-3.4s-2.3-3.4-2.9-3.4h-3.6v6.8zM26.4 37.4v-6.6c0-4 2.1-6.6 6.4-6.6 4.3 0 6.4 2.6 6.4 6.6v6.6c0 5.6-2.1 7.8-6.4 7.8-4.4 0-6.4-2.2-6.4-7.8zm10 .1v-6.8c0-4.2-2.9-4.4-3.7-4.4s-3.7.1-3.7 4.4v6.8c0 4.4 1.3 5.5 3.7 5.5s3.7-1.1 3.7-5.5zM41.4 24.6h2.7l3.8 17.5h.1l4.1-17.5h3.3l3.7 17.5h.1l4.1-17.5H66l-5.3 20.2h-3.1l-3.8-17.5h-.1l-4.1 17.5h-3.1l-5.1-20.2zM30.5 52.2c1-.4 2-1 3-1.7h2.1v11.2h-2.4V53c-.5.4-1.4.9-2.6 1.4v-2.2zM40.6 58.6c0 .4.1 1.5 1.4 1.5.9 0 1.4-.7 1.4-1.5 0-1.6-1.6-1.6-2.8-1.6v-1.9c1.1 0 2.8-.1 2.8-1.7 0-.9-.7-1.3-1.4-1.3s-1.4.5-1.4 1.4h-2.4c0-.5.1-1.2.7-1.9.7-.9 1.9-1.2 3.1-1.2 2.8 0 3.8 1.8 3.8 3 0 1.9-1.6 2.4-2.1 2.5.4.1.8.3 1.3.7.8.7.9 1.5.9 2 0 1.9-1.7 3.3-4.1 3.3-.8 0-2-.2-2.7-.8-1-.8-1-2.1-1-2.5h2.5z"/></g></svg>