<svg version="1.2" baseProfile="tiny" xmlns="http://www.w3.org/2000/svg" viewBox="0 0 75 75" overflow="visible" xml:space="preserve"><path fill="#FDD700" d="M0 0h75v75H0z"/><g fill="#010101"><path d="M15.7 36.3c0-.4-.2-2-1.9-2-1.8 0-2.6 1.9-2.6 4.3 0 .7 0 4 2.4 4 1 0 2-.7 2.1-2.2h2.6c0 .7-.1 1.8-1 2.7-1 1.1-2.3 1.3-3.4 1.3-4 0-5.3-2.9-5.3-5.8 0-3.7 2-6.1 5.3-6.1 2.5 0 4.3 1.5 4.3 3.8h-2.5zM23.6 35.8c2.9 0 4.2 2 4.2 4.2 0 2.3-1.3 4.3-4.2 4.3-2.3 0-4.1-1.4-4.1-4.3-.1-1.9.9-4.2 4.1-4.2zm0 6.9c1 0 1.7-.6 1.7-2.8 0-1.1-.2-2.6-1.8-2.6-1.7 0-1.7 2-1.7 2.7.1 1.9.7 2.7 1.8 2.7zM29.6 37.4v-1.5h2.3l.1 1.2c.2-.4.9-1.4 2.6-1.4 1.6 0 2.3 1 2.5 1.5.2.5.2.9.2 2.4V44h-2.4v-5c0-.3 0-.6-.1-.9-.2-.4-.5-.7-1.2-.7-.5 0-1 .2-1.2.6-.1.2-.3.6-.3 1.2v4.7h-2.4v-6.5zM44.1 43.9c-.8.2-1.5.3-1.8.3-2.4 0-2.4-1.5-2.4-2.2v-4.4h-1.6V36h1.6v-1.6l2.4-.9v2.4h1.9v1.6h-1.9v3.6c0 .7 0 1.2 1.1 1.2h.8v1.6zM50.4 44.1c-.1-.5-.1-.9-.1-1.1-.9 1.3-2 1.3-2.4 1.3-1.2 0-1.7-.3-2-.6-.5-.5-.7-1.1-.7-1.8 0-.6.2-1.8 1.7-2.5 1-.4 2.4-.4 3.2-.4 0-.5 0-.8-.1-1.1-.2-.6-.8-.7-1.1-.7-.3 0-.7.1-.9.4-.2.3-.2.5-.2.7h-2.3c0-.4.1-1.3.9-1.9.7-.5 1.7-.7 2.4-.7s2.1.1 2.9 1c.5.7.6 1.6.6 2v3.2c0 .7 0 1.4.2 2h-2.1zm-2.9-2.5c0 .5.4 1.2 1.2 1.2.4 0 .8-.2 1-.5.4-.5.4-1.1.4-2-1.5-.2-2.6.3-2.6 1.3zM58.7 38.8c0-.3-.1-1.5-1-1.5-1.1 0-1.2 1.7-1.2 2.6 0 .4 0 1.9.6 2.5.2.2.5.3.6.3.3 0 1-.1 1.1-1.6h2.3c0 .6-.1 1.6-1 2.4-.6.5-1.3.8-2.3.8-1.1 0-2-.2-2.8-1.1-.7-.8-1-1.9-1-3.2 0-3.7 2.7-4.2 3.8-4.2 1.5 0 3.3.8 3.3 3h-2.4zM67.2 43.9c-.8.2-1.5.3-1.8.3-2.4 0-2.4-1.5-2.4-2.2v-4.4h-1.6V36H63v-1.6l2.4-.9v2.4h1.9v1.6h-1.9v3.6c0 .7 0 1.2 1.1 1.2h.8v1.6z"/></g></svg>