<svg version="1.2" baseProfile="tiny" xmlns="http://www.w3.org/2000/svg" viewBox="0 0 75 75" overflow="visible" xml:space="preserve"><path fill="#FDD700" d="M.1 0h75v75H.1z"/><g fill="#010101"><path d="M18.8 44.8V24.6h10.4v2.2h-7.8v6.5h7.3v2.2h-7.3v7h8v2.2H18.8zM40.2 44.8V35c0-1.5-.5-2.7-2.5-2.7-2.5 0-2.9 2.2-2.9 4.2v8.4h-2.3V33.7c0-1-.1-2-.1-2.9h2.4v1.8h.1c.9-1.6 2-2.1 3.8-2.1 3 0 3.8 1.8 3.8 4.6v9.8h-2.3zM54 30.7h2.3v15.6c0 3.2-2.1 3.9-5.2 3.9-2.4 0-4.5-1.2-4.3-3.8h2.6c0 1.3.9 2 2.2 2 1.6 0 2.5-1 2.5-2.4v-2.9H54c-.6 1.1-1.9 1.8-3.1 1.8-3.8 0-4.6-3.3-4.6-7.5 0-6.5 3.3-6.9 4.4-6.9 1.5 0 2.7.6 3.3 2h.1v-1.8zm-2.7 1.6c-2.6 0-2.7 3.1-2.7 5 0 4.5 1 5.6 2.7 5.6 2.8 0 2.7-3.3 2.7-5.2 0-2.1.2-5.4-2.7-5.4z"/></g></svg>