<svg version="1.2" baseProfile="tiny" xmlns="http://www.w3.org/2000/svg" viewBox="0 0 75 75" overflow="visible" xml:space="preserve"><path fill="#FDD700" d="M-74.9 0h75v75h-75zM.1 0h75v75H.1z"/><g fill="#010101"><path d="M21.7 50.1h3.8c.6 0 2.6 0 4 1 1.5 1.1 2 2.9 2 4.5 0 3.6-1.9 5.4-4.1 5.8-.4.1-.9.1-2.1.1h-3.6V50.1zm2.5 9.7h1c1.1 0 2-.1 2.7-.8 1-1 1-2.7 1-3.3 0-1.6-.6-3.1-2.1-3.6-.5-.1-1.2-.2-2.6-.2v7.9zM35.1 58.2c0 .5 0 2.2 1.6 2.2.6 0 1.2-.2 1.4-1.1h2.2c0 .4-.1 1.1-.8 1.8-.6.6-1.6.9-2.8.9-.7 0-2-.1-2.8-1-.7-.8-1-1.9-1-3.2 0-1.3.3-2.9 1.7-3.8.6-.4 1.4-.7 2.3-.7 1.2 0 2.5.4 3.3 2 .5 1.1.5 2.3.5 3h-5.6zm3-1.5c0-.4 0-1.8-1.4-1.8-1 0-1.5.9-1.5 1.8h2.9zM44.3 53.6l.1 1.2c.7-1.3 2.1-1.3 2.5-1.3 2.1 0 3.4 1.6 3.4 4 0 2.3-1.2 4.3-3.5 4.3-1.5 0-2-.8-2.3-1v4h-2.4V53.6h2.2zm3.5 3.9c0-1-.2-2.6-1.6-2.6-.8 0-1.9.6-1.9 2.8 0 .5 0 2.5 1.8 2.5 1.1 0 1.7-1.1 1.7-2.7zM51.9 50.1h2.4v11.6h-2.4V50.1z"/></g><path fill="#010101" d="M37.69 9.45c-7.585 0-13.764 6.178-13.764 13.763s6.18 13.764 13.764 13.764c7.586 0 13.765-6.179 13.765-13.764 0-7.585-6.18-13.764-13.765-13.764zm0 24.755c-6.06 0-10.991-4.932-10.991-10.992 0-6.06 4.931-10.991 10.991-10.991 5.536 0 10.13 4.12 10.883 9.456l-.257-.03c-.04 0-3.684-.029-7.308-.019H39.81v-1.98h1.9v-2.684h-6.604v2.684h1.891v2c-.396 0-.762.01-1.089.02-2.515.05-2.96.05-3.505.584l-.476.475v.664c0 2.228.07 3.604.07 3.663a1.58 1.58 0 0 0 1.584 1.506h.08a1.582 1.582 0 0 0 1.504-1.654c0-.01-.04-.773-.05-2.05 2.496-.07 8.11-.07 13.18-.03h.01c.09 0 .179-.01.268-.02-.772 5.298-5.357 9.398-10.883 9.398z"/></svg>