<svg version="1.2" baseProfile="tiny" xmlns="http://www.w3.org/2000/svg" viewBox="0 0 75 75" overflow="visible" xml:space="preserve"><path fill="#FDD700" d="M0 0h75v75H0z"/><path fill="#010101" d="M37.576 9.45c-7.585 0-13.764 6.178-13.764 13.763s6.18 13.764 13.764 13.764c7.585 0 13.764-6.179 13.764-13.764 0-7.585-6.179-13.764-13.764-13.764zm0 24.755c-6.06 0-10.991-4.932-10.991-10.992 0-6.06 4.931-10.991 10.991-10.991 5.536 0 10.13 4.12 10.883 9.456l-.258-.03c-.04 0-3.683-.029-7.308-.019h-1.198v-1.98h1.902v-2.684h-6.605v2.684h1.891v2c-.396 0-.762.01-1.09.02-2.514.05-2.96.05-3.505.584l-.475.475v.664c0 2.228.07 3.604.07 3.663a1.58 1.58 0 0 0 1.584 1.506h.079a1.582 1.582 0 0 0 1.505-1.654c0-.01-.04-.773-.05-2.05 2.496-.07 8.11-.07 13.18-.03h.01c.09 0 .179-.01.268-.02-.773 5.298-5.357 9.398-10.883 9.398zM34.912 53.003c-.194-.59-.337-.986-.455-1.382a3.066 3.066 0 0 1-.126-.615c-.05-.75-.295-1.297-1.02-1.735-.395-.235-.539-.968-.699-1.507-.151-.489-.117-1.045-.278-1.525-.084-.244-.404-.556-.648-.59-1.306-.168-1.44-.336-1.609-1.65a6.105 6.105 0 0 1 .354-3.007c.497-1.263 1.449-2.24 2.72-2.838 1.517-.708 3.117-.69 4.725-.581.64.042 1.29.075 1.93.126.808.067 1.54.362 2.29.682.935.396 1.651 1.002 2.089 1.828.379.716.53 1.592.632 2.409.084.716-.017 1.465-.085 2.198-.05.556-.446.85-1.002.884-.48.026-.96.068-1.423.169-.11.025-.22.27-.253.43-.143.715-.185 1.456-.413 2.139-.151.438-.53.825-.884 1.153-.404.38-.547.817-.573 1.34-.076 1.465-1.263 2.375-2.569 2.19-.614-.085-1.23.362-1.785-.203-.025.076-.06.144-.084.22.286.21.564.429.859.631.606.413 1.221.413 1.912.152.673-.253 1.398-.396 2.105-.565 1.457-.353 2.923-.724 3.992-1.836.363-.379.817-.455 1.205-.716.438-.303.969.017 1.053.54.134.8.362 1.54 1.187 1.945.312.152.245 1.01-.084 1.17-.488.236-.893.717-1.524.607-.287-.05-.573-.126-.86-.126-.353.008-.732.033-1.07.151-.715.245-1.414.548-2.113.851-.042.017-.034.354.025.387.86.396 1.718.809 2.611 1.112.421.143.91.076 1.373.093.547.025.985.151 1.246.724.228.506 0 .868-.26 1.221-.211.278-.498.497-.725.759-.126.151-.202.345-.32.505-.168.253-.295.632-.522.707-.48.169-.977.118-1.348-.362-.311-.404-.724-.741-1.002-1.17-.497-.784-1.39-.876-2.08-1.314-.312-.203-.666-.523-.986-.506-.699.042-1.036-.623-1.66-.69-.344-.034-.681-.245-1.027-.253-.471-.009-.951.076-1.406.185-.674.16-1.34.354-1.996.59-.952.345-1.93.665-2.83 1.137-.657.345-1.205.901-1.786 1.39-.674.572-1.701.328-1.861-.523-.152-.8-.346-1.533-.792-2.257-.446-.716.421-1.81 1.356-1.794.387.008.8.059 1.154.21.682.295 1.34.43 2.013.017.11-.067.253-.084.362-.151.185-.101.354-.228.53-.337-.168-.16-.32-.379-.522-.463-.859-.37-1.777-.329-2.686-.337-.767-.009-1.238-.396-1.5-1.087-.176-.463.06-.8.354-.926.708-.303.91-.85.935-1.508.025-.64.329-1.036.935-1.204.54-.152 1.247.185 1.609.657.37.471.732.985 1.221 1.305.598.405 1.314.607 2.089.944zm5.77-9.627-.843.42c-.396.194-.649 1.087-.446 1.475.286.556.808.26 1.212.337.371.075.615-.101.489-.565-.16-.547-.286-1.111-.413-1.667zm-6.528 1.844c.716.143 1.213.228 1.743-.202.826-.665-.32-.91-.168-1.398-.876.21-1.23.842-1.575 1.6z"/></svg>