<svg version="1.2" baseProfile="tiny" xmlns="http://www.w3.org/2000/svg" viewBox="0 0 75 75" overflow="visible" xml:space="preserve"><path fill="#FDD700" d="M0 0h75v75H0z"/><path fill="#010101" d="M37.577 9.45c-7.585 0-13.764 6.178-13.764 13.763s6.179 13.764 13.764 13.764S51.34 30.798 51.34 23.213c0-7.585-6.18-13.764-13.764-13.764zm0 24.755c-6.06 0-10.992-4.932-10.992-10.992 0-6.06 4.932-10.991 10.992-10.991 5.535 0 10.13 4.12 10.882 9.456l-.257-.03c-.04 0-3.684-.029-7.308-.019h-1.198v-1.98h1.901v-2.684h-6.605v2.684h1.892v2c-.397 0-.763.01-1.09.02-2.515.05-2.96.05-3.505.584l-.475.475v.664c0 2.228.069 3.604.069 3.663a1.58 1.58 0 0 0 1.584 1.506h.08a1.582 1.582 0 0 0 1.505-1.654c0-.01-.04-.773-.05-2.05 2.496-.07 8.11-.07 13.18-.03h.01c.089 0 .178-.01.267-.02-.772 5.298-5.357 9.398-10.882 9.398zM34.91 53.003c-.194-.59-.337-.986-.455-1.382a3.066 3.066 0 0 1-.127-.615c-.05-.75-.295-1.297-1.019-1.735-.396-.235-.539-.968-.699-1.507-.152-.489-.118-1.045-.278-1.525-.084-.244-.404-.556-.648-.59-1.306-.168-1.44-.336-1.61-1.65a6.105 6.105 0 0 1 .355-3.007c.497-1.263 1.448-2.24 2.72-2.838 1.516-.708 3.116-.69 4.725-.581.64.042 1.289.075 1.929.126.808.067 1.541.362 2.29.682.936.396 1.652 1.002 2.09 1.828.379.716.53 1.592.631 2.409.084.716-.017 1.465-.084 2.198-.05.556-.446.85-1.002.884-.48.026-.96.068-1.424.169-.11.025-.219.27-.252.43-.143.715-.186 1.456-.413 2.139-.152.438-.53.825-.884 1.153-.405.38-.548.817-.573 1.34-.076 1.465-1.263 2.375-2.569 2.19-.615-.085-1.23.362-1.786-.203-.025.076-.058.144-.084.22.287.21.565.429.86.631.606.413 1.22.413 1.911.152.674-.253 1.398-.396 2.106-.565 1.457-.353 2.922-.724 3.992-1.836.362-.379.817-.455 1.205-.716.438-.303.968.017 1.052.54.135.8.363 1.54 1.188 1.945.312.152.244 1.01-.084 1.17-.489.236-.893.717-1.525.607-.286-.05-.572-.126-.859-.126-.354.008-.733.033-1.07.151-.715.245-1.415.548-2.114.851-.042.017-.033.354.026.387.859.396 1.718.809 2.61 1.112.422.143.91.076 1.374.093.547.025.985.151 1.246.724.227.506 0 .868-.261 1.221-.21.278-.497.497-.724.759-.127.151-.203.345-.32.505-.169.253-.295.632-.523.707-.48.169-.977.118-1.347-.362-.312-.404-.725-.741-1.002-1.17-.497-.784-1.39-.876-2.08-1.314-.312-.203-.666-.523-.986-.506-.7.042-1.036-.623-1.66-.69-.345-.034-.682-.245-1.027-.253-.472-.009-.952.076-1.407.185-.673.16-1.339.354-1.996.59-.951.345-1.928.665-2.83 1.137-.657.345-1.204.901-1.785 1.39-.674.572-1.702.328-1.862-.523-.151-.8-.345-1.533-.791-2.257-.447-.716.42-1.81 1.356-1.794.387.008.8.059 1.154.21.682.295 1.339.43 2.013.017.109-.067.252-.084.362-.151.185-.101.353-.228.53-.337-.168-.16-.32-.379-.522-.463-.859-.37-1.777-.329-2.687-.337-.766-.009-1.238-.396-1.499-1.087-.177-.463.06-.8.354-.926.707-.303.91-.85.935-1.508.025-.64.328-1.036.935-1.204.539-.152 1.246.185 1.608.657.371.471.733.985 1.222 1.305.598.405 1.314.607 2.088.944zm5.769-9.627-.842.42c-.396.194-.649 1.087-.447 1.475.287.556.809.26 1.213.337.37.075.615-.101.489-.565-.16-.547-.287-1.111-.413-1.667zM34.15 45.22c.716.143 1.213.228 1.744-.202.825-.665-.32-.91-.169-1.398-.876.21-1.23.842-1.575 1.6z"/></svg>