<svg version="1.2" baseProfile="tiny" xmlns="http://www.w3.org/2000/svg" viewBox="0 0 75 75" overflow="visible" xml:space="preserve"><path fill="#FDD700" d="M0 0h75v75H0z"/><path fill="#010101" d="M37.586 9.45c-7.585 0-13.764 6.179-13.764 13.764S30 36.978 37.586 36.978 51.35 30.8 51.35 23.214 45.17 9.45 37.586 9.45zm0 24.756c-6.06 0-10.992-4.932-10.992-10.992s4.932-10.991 10.992-10.991c5.535 0 10.13 4.119 10.882 9.456l-.257-.03c-.04 0-3.684-.03-7.308-.02h-1.198v-1.98h1.901v-2.683h-6.605v2.683h1.892v2c-.397 0-.763.01-1.09.02-2.515.05-2.96.05-3.505.585l-.475.475v.663c0 2.228.069 3.605.069 3.664a1.58 1.58 0 0 0 1.584 1.505h.08a1.582 1.582 0 0 0 1.505-1.653c0-.01-.04-.773-.05-2.05 2.495-.07 8.11-.07 13.18-.03h.01c.089 0 .178-.01.267-.02-.772 5.298-5.357 9.398-10.882 9.398zM34.906 52.995c-.194-.59-.337-.986-.455-1.381a3.066 3.066 0 0 1-.126-.615c-.051-.75-.295-1.297-1.02-1.735-.395-.236-.539-.969-.699-1.508-.151-.488-.118-1.044-.278-1.524-.084-.245-.404-.556-.648-.59-1.306-.168-1.44-.337-1.609-1.65a6.105 6.105 0 0 1 .354-3.008c.497-1.263 1.449-2.24 2.72-2.838 1.516-.708 3.117-.69 4.725-.581.64.042 1.29.076 1.93.126.808.068 1.54.362 2.29.682.935.396 1.65 1.003 2.089 1.828.379.716.53 1.592.632 2.409.084.716-.017 1.465-.085 2.198-.05.556-.446.85-1.002.884-.48.026-.96.068-1.423.169-.11.025-.22.27-.253.43-.143.715-.185 1.457-.413 2.139-.151.438-.53.825-.884 1.154-.404.379-.548.817-.573 1.339-.076 1.465-1.263 2.375-2.569 2.19-.614-.085-1.23.362-1.785-.202-.025.075-.06.143-.084.219.286.21.564.43.859.631.606.413 1.22.413 1.912.152.673-.253 1.398-.396 2.105-.564 1.457-.354 2.923-.725 3.992-1.837.363-.379.817-.454 1.205-.715.438-.304.968.016 1.053.539.134.8.362 1.54 1.187 1.945.312.152.245 1.01-.084 1.17-.488.237-.893.717-1.524.607-.287-.05-.573-.126-.86-.126-.353.008-.732.034-1.07.152-.715.244-1.414.547-2.113.85-.042.017-.034.354.025.388.86.396 1.718.808 2.611 1.111.421.144.91.076 1.373.093.547.025.985.152 1.246.724.228.506 0 .868-.26 1.222-.211.278-.498.497-.725.758-.126.151-.202.345-.32.505-.169.253-.295.632-.522.708-.48.168-.977.117-1.348-.363-.312-.404-.724-.74-1.002-1.17-.497-.784-1.39-.876-2.08-1.314-.312-.202-.666-.522-.986-.506-.699.043-1.036-.623-1.66-.69-.345-.034-.681-.244-1.027-.253-.471-.008-.951.076-1.406.185-.674.16-1.34.354-1.996.59-.952.345-1.93.665-2.83 1.137-.657.345-1.205.901-1.786 1.39-.674.572-1.701.328-1.861-.522-.152-.8-.346-1.533-.792-2.258-.446-.716.421-1.81 1.356-1.794.387.009.8.06 1.154.21.682.296 1.339.43 2.013.018.11-.068.253-.085.362-.152.185-.101.354-.227.53-.337-.168-.16-.32-.379-.522-.463-.859-.37-1.777-.329-2.686-.337-.767-.008-1.238-.396-1.5-1.086-.176-.464.06-.8.354-.927.708-.303.91-.85.935-1.508.025-.64.329-1.036.935-1.204.539-.152 1.247.185 1.609.657.37.472.732.985 1.22 1.305.599.405 1.315.607 2.09.944zm5.77-9.627-.843.421c-.396.194-.649 1.087-.447 1.474.287.556.81.261 1.213.337.37.076.615-.101.489-.564-.16-.548-.287-1.112-.413-1.668zm-6.528 1.844c.716.144 1.213.228 1.743-.202.826-.665-.32-.91-.168-1.398-.876.21-1.23.842-1.575 1.6z"/></svg>