<svg version="1.2" baseProfile="tiny" xmlns="http://www.w3.org/2000/svg" viewBox="0 0 75 75" overflow="visible" xml:space="preserve"><path fill="#FDD700" d="M-74.9 0h75v75h-75zM.1 0h75v75H.1z"/><g fill="#010101"><path d="M7.1 20.9V9.3h3.8c1.6 0 2.1.5 2.6 1.2.4.6.5 1.3.5 1.5 0 1.4-.5 2.4-2 2.7v.1c1.6.2 2.4 1.2 2.4 2.8 0 3-2.2 3.2-3.5 3.2H7.1zm1.5-6.7h2.1c1.2 0 1.7-.7 1.7-1.8 0-1-.5-1.7-1.8-1.7H8.5v3.5zm0 5.4h2.1c1.6 0 2.1-1.1 2.1-2 0-1.8-1.1-2.2-2.6-2.2H8.6v4.2zM16.8 20.9V9.3h1.5v10.3h4.2v1.3h-5.7zM24 16.7v-3.8c0-2.3 1.2-3.8 3.6-3.8 2.4 0 3.6 1.5 3.6 3.8v3.8c0 3.2-1.2 4.5-3.6 4.5-2.4-.1-3.6-1.3-3.6-4.5zm5.7 0v-3.9c0-2.4-1.7-2.5-2.1-2.5-.5 0-2.1.1-2.1 2.5v3.9c0 2.5.7 3.2 2.1 3.2s2.1-.6 2.1-3.2zM39 12.5c0-.7 0-1.3-.3-1.7-.3-.4-1-.5-1.3-.5-1.2 0-1.7.7-1.7.9 0 .1-.3.4-.3 2.4v3.1c0 2.8.9 3.2 2.1 3.2.4 0 1.8-.2 1.8-2.4h1.5c.1 3.6-2.5 3.6-3.3 3.6-1.4 0-3.6-.1-3.6-4.6v-3.3c0-3.3 1.4-4.2 3.7-4.2 2.3 0 3.2 1.2 3 3.4H39zM42.9 20.9V9.3h1.5v5.1l4-5.1h1.7l-4.2 5.2 4.4 6.3h-1.9l-4-6v6h-1.5zM51.9 20.9V9.3h6v1.3h-4.5v3.7h4.2v1.3h-4.2v4H58v1.3h-6.1zM60 9.4h3.6c1.5 0 2.5.5 3.1 1.8.5 1 .5 3.3.5 3.6 0 2.5-.2 3.9-.7 4.7-.6 1-1.8 1.5-3.8 1.5H60V9.4zm1.5 10.2h1.4c2 0 2.8-.8 2.8-3.5v-2.3c0-2.3-.7-3.2-2.3-3.2h-1.9v9zM9.8 36.9V25.3h1.5v5h4v-5h1.5v11.6h-1.5v-5.3h-4v5.3H9.8zM22.1 25.4H24L27.8 37h-1.6l-.8-2.8h-4.5L20 37h-1.5l3.6-11.6zm.9 1.3-1.8 6.2h3.7L23 26.7zM30.8 31.6v5.3h-1.5V25.3h4c2 0 2.8 1.4 2.8 2.9 0 1.4-.8 2.4-2.1 2.6 1.3.2 1.8.7 1.9 3 0 .5.2 2.3.4 3h-1.5c-.4-.8-.3-2.3-.4-3.8-.1-1.4-1.2-1.5-1.7-1.5h-1.9zm0-1.3H33c1.1 0 1.6-.9 1.6-1.9 0-.8-.4-1.8-1.6-1.8h-2.2v3.7zM38.5 36.9V25.3h3.8c1.6 0 2.1.5 2.6 1.2.4.6.5 1.3.5 1.5 0 1.4-.5 2.4-2 2.7v.1c1.6.2 2.4 1.2 2.4 2.8 0 3-2.2 3.2-3.5 3.2h-3.8zm1.5-6.7h2.1c1.2 0 1.7-.7 1.7-1.8 0-1-.5-1.7-1.8-1.7h-2.1v3.5zm0 5.4h2.1c1.6 0 2.1-1.1 2.1-2 0-1.8-1.1-2.2-2.6-2.2H40v4.2zM48.2 32.7v-3.8c0-2.3 1.2-3.8 3.6-3.8s3.6 1.5 3.6 3.8v3.8c0 3.2-1.2 4.5-3.6 4.5s-3.6-1.3-3.6-4.5zm5.8 0v-3.9c0-2.4-1.7-2.5-2.1-2.5s-2.1.1-2.1 2.5v3.9c0 2.5.7 3.2 2.1 3.2s2.1-.6 2.1-3.2zM59.6 31.6v5.3h-1.5V25.3h4c2 0 2.8 1.4 2.8 2.9 0 1.4-.8 2.4-2.1 2.6 1.3.2 1.8.7 1.9 3 0 .5.2 2.3.4 3h-1.5c-.4-.8-.3-2.3-.4-3.8-.1-1.4-1.2-1.5-1.7-1.5h-1.9zm0-1.3h2.2c1.1 0 1.6-.9 1.6-1.9 0-.8-.4-1.8-1.6-1.8h-2.2v3.7z"/></g><path fill="#020202" d="M74.352 61.275c-.923.08-.433 1.322-.98 1.835-1.14 1.823-4.17.9-4.08-1.265-.01-.49-.626-.752-.98-.433-.376.365-.136 1.026-.455 1.459-.992 2.085-4.331 1.265-4.228-1.06-.035-.524-.775-.74-1.072-.296-.228.592-.136 1.31-.65 1.8-1.424 1.675-4.08.41-3.988-1.71-.205-.5-.992-.432-1.117.092-.16 3.34-4.49 3.02-4.615-.217a.603.603 0 0 0-.798-.125c-.342.217-.228.65-.308.98-.627 3.032-5.436 1.334-3.67-.034l-5.401-5.368L38.944 60l-1.31-1.31L35 61.32c-.433.25-5.448-5.413-5.732-5.482l2.917-2.917 6.804-.217-.114-1.64-4.661-.183 3.76-3.761-1.607-1.607-3.726 3.727.137-3.75-1.858-.068c-.456 5.516 1.094 4.832-3.27 8.81l-1.881-1.881 2.074-3.533-8.912-8.9c-6.507 16.137-6.313 7.886 8.297 23.966-1.14.581-2.656-.034-3.066-1.242-.125-.581-.228-1.88-1.162-1.174-.32.661-.194 1.561-.9 2.063-1.015.98-2.838.66-3.465-.593-.365-.513-.034-1.869-1.06-1.607-.479.148-.365.661-.456 1.06-.524 2.553-4.513 2.074-4.41-.547-.023-.684-1.072-.73-1.174-.068.08 1.55-1.584 2.792-3.043 2.2-1.915-.525-.946-3.431-2.45-2.508-.33.65-.194 1.573-.9 2.074-1.095 1.071-3.123.57-3.59-.877-.205-.433.022-1.368-.73-1.368-2.404 1.174 2.621 6.667 5.653 2.53 1.265 1.949 4.399 1.972 5.652 0 1.265 1.96 4.41 1.972 5.664 0 1.265 1.96 4.41 1.972 5.653 0 1.254 1.96 4.41 1.972 5.653 0 1.253 1.96 4.399 1.972 5.652 0 1.254 1.96 4.41 1.972 5.653 0 1.265 1.96 4.41 1.972 5.664 0 1.253 1.972 4.387 1.96 5.652.023 1.277 1.914 4.4 1.971 5.664-.012 1.254 1.96 4.41 1.972 5.653.012 1.265 1.96 4.399 1.971 5.653 0 2.951 4.046 8.08-1.288 5.663-2.576z"/></svg>