<svg version="1.2" baseProfile="tiny" xmlns="http://www.w3.org/2000/svg" viewBox="0 0 75 75" overflow="visible" xml:space="preserve"><path fill="#FDD700" d="M0 0h75v75H0z"/><path fill="none" stroke="#010101" stroke-width="4" stroke-miterlimit="10" d="M-176.3 162.1v45m-7.5-7.5h15m-15-11.3h15m-15-11.2h15" transform="matrix(0 1.23765 -1.2749 0 263.999 255.65)"/><path fill="none" stroke="#010101" stroke-width="4" stroke-miterlimit="10" d="M-176.3-132.1v45m-7.5-7.5h15m-15-11.3h15m-15-11.2h15" transform="matrix(0 1.23765 1.2749 0 186.003 255.611)"/><path fill="#FFF" d="m54.545 44.465-11.648-1.752 1.959 11.545h-.103l-7.01-9.38-7.009 9.38h-.103l1.959-11.545-11.648 1.752-.103-.206 9.586-6.803-9.483-7.01v-.102l11.545 2.061-1.753-11.647h.206l6.7 9.483 6.7-9.483h.207l-1.753 11.647 11.545-2.061v.103l-9.483 7.01 9.586 6.802.103.206z"/></svg>