<svg version="1.2" baseProfile="tiny" xmlns="http://www.w3.org/2000/svg" viewBox="0 0 75 75" overflow="visible" xml:space="preserve"><path fill="#FDD700" d="M0 0h75v75H0z"/><path fill="#010101" d="M37.585 9.45c-7.585 0-13.764 6.179-13.764 13.764s6.18 13.764 13.764 13.764c7.585 0 13.764-6.179 13.764-13.764S45.17 9.45 37.585 9.45zm0 24.756c-6.06 0-10.991-4.932-10.991-10.992s4.931-10.991 10.991-10.991c5.536 0 10.13 4.119 10.883 9.456l-.258-.03c-.04 0-3.683-.03-7.308-.02h-1.198v-1.98h1.902v-2.683H35v2.683h1.891v2c-.396 0-.762.01-1.09.02-2.514.05-2.96.05-3.505.585l-.475.475v.663c0 2.228.07 3.605.07 3.664a1.58 1.58 0 0 0 1.584 1.505h.079a1.582 1.582 0 0 0 1.505-1.653c0-.01-.04-.773-.05-2.05 2.496-.07 8.11-.07 13.18-.03h.01c.09 0 .179-.01.268-.02-.773 5.298-5.357 9.398-10.883 9.398zM34.908 52.995c-.194-.59-.337-.986-.455-1.381a3.066 3.066 0 0 1-.126-.615c-.05-.75-.295-1.297-1.02-1.735-.395-.236-.538-.969-.698-1.508-.152-.488-.118-1.044-.278-1.524-.084-.245-.404-.556-.649-.59-1.305-.168-1.44-.337-1.608-1.65a6.105 6.105 0 0 1 .353-3.008c.497-1.263 1.449-2.24 2.72-2.838 1.517-.708 3.117-.69 4.726-.581.64.042 1.288.076 1.929.126.808.068 1.54.362 2.29.682.935.396 1.651 1.003 2.09 1.828.378.716.53 1.592.631 2.409.084.716-.017 1.465-.084 2.198-.05.556-.447.85-1.003.884-.48.026-.96.068-1.423.169-.11.025-.219.27-.253.43-.143.715-.185 1.457-.412 2.139-.152.438-.53.825-.885 1.154-.404.379-.547.817-.572 1.339-.076 1.465-1.264 2.375-2.57 2.19-.614-.085-1.229.362-1.785-.202-.025.075-.059.143-.084.219.286.21.564.43.859.631.606.413 1.221.413 1.912.152.674-.253 1.398-.396 2.106-.564 1.457-.354 2.922-.725 3.992-1.837.362-.379.817-.454 1.204-.715.438-.304.969.016 1.053.539.135.8.362 1.54 1.188 1.945.311.152.244 1.01-.085 1.17-.488.237-.892.717-1.524.607-.286-.05-.573-.126-.86-.126-.353.008-.732.034-1.069.152-.716.244-1.415.547-2.114.85-.042.017-.034.354.025.388.86.396 1.719.808 2.611 1.111.421.144.91.076 1.373.093.548.025.986.152 1.247.724.227.506 0 .868-.261 1.222-.21.278-.497.497-.725.758-.126.151-.202.345-.32.505-.168.253-.295.632-.522.708-.48.168-.977.117-1.348-.363-.311-.404-.724-.74-1.002-1.17-.497-.784-1.39-.876-2.08-1.314-.312-.202-.666-.522-.986-.506-.699.043-1.036-.623-1.659-.69-.345-.034-.682-.244-1.027-.253-.472-.008-.952.076-1.407.185-.674.16-1.34.354-1.996.59-.952.345-1.929.665-2.83 1.137-.657.345-1.204.901-1.786 1.39-.673.572-1.7.328-1.861-.522-.152-.8-.345-1.533-.792-2.258-.446-.716.421-1.81 1.356-1.794.388.009.8.06 1.154.21.682.296 1.34.43 2.013.018.11-.068.253-.085.362-.152.186-.101.354-.227.531-.337-.168-.16-.32-.379-.522-.463-.86-.37-1.777-.329-2.687-.337-.766-.008-1.238-.396-1.5-1.086-.176-.464.06-.8.355-.927.707-.303.91-.85.934-1.508.026-.64.329-1.036.935-1.204.54-.152 1.247.185 1.61.657.37.472.732.985 1.22 1.305.598.405 1.314.607 2.09.944zm5.77-9.627-.843.421c-.396.194-.648 1.087-.446 1.474.286.556.808.261 1.213.337.37.076.615-.101.488-.564-.16-.548-.286-1.112-.412-1.668zm-6.528 1.844c.716.144 1.213.228 1.744-.202.825-.665-.32-.91-.169-1.398-.876.21-1.23.842-1.575 1.6z"/></svg>