<svg version="1.2" baseProfile="tiny" xmlns="http://www.w3.org/2000/svg" viewBox="0 0 75 75" overflow="visible" xml:space="preserve"><path fill="#FDD700" d="M-74.9 0h75v75h-75zM.1 0h75v75H.1z"/><path fill="#020202" d="M64.07 48.122c-1.212-.699-2.712-.587-4.156-.42-1.436.169-2.964 1.184-2.964 1.184l-15.703-9.673 9.73-6.459 1.527.513 2.862-1.584s.382-.383 1.08-.187c.7.187 1.715 2.097 2.35 2.926.633.83 1.78 3.309 2.543 5.406s1.016 2.982 1.585 2.796.568-.187.186-2.983-1.528-9.217-5.657-14.044c-4.128-4.828-10.037-7.12-11.379-7.623-1.333-.513-2.665-1.212-2.982-.569-.317.634.885 1.333 2.414 1.966 1.528.634 3.047 1.967 4.575 3.113 1.529 1.146 2.61 3.178 2.61 3.178l.13 1.016-3.299 2.451-.065 1.65-10.97 6.728-11.015-6.794 2.032-3.513s.42-.68.335-1.268c-.083-.596-5.004-3.476-6.272-4.24-1.267-.764-3.56-1.267-6.523-1.696-2.964-.42-5.76.084-6.356.764-.597.68-.252 3.476.251 4.995.513 1.529 2.377 5.257 2.964 5.928.596.68 7.12 5.759 7.54 5.759s.848-.513.848-.513l3.392-3.727 9.767 6.17L9.169 55.493l.633 2.032 1.464 1.584 27.036-17.95 16.532 10.438s.252 1.268.168 2.545c-.084 1.267.68 3.215.764 3.643.084.42 1.1 1.697 2.116 1.268 1.016-.429 3.812-4.492 3.812-4.492s3.13-4.063 3.308-4.744c.168-.68.168-1.053-.932-1.696zm-3.746 5.089c-1.016 1.398-2.032 2.544-2.414 2.348-.382-.186 0-2.861.568-3.625.55-.736 2.796-2.032 3.309-1.78.512.251-.448 1.659-1.463 3.057z"/></svg>