<svg version="1.2" baseProfile="tiny" xmlns="http://www.w3.org/2000/svg" viewBox="0 0 75 75" overflow="visible" xml:space="preserve"><path fill="#FDD700" d="M-74.9 0h75v75h-75zM.1 0h75v75H.1z"/><path fill="#020202" d="M64.073 48.122c-1.211-.699-2.711-.587-4.156-.42-1.435.169-2.964 1.184-2.964 1.184L41.25 39.213l9.73-6.459 1.528.513 2.861-1.584s.382-.383 1.081-.187c.7.187 1.715 2.097 2.349 2.926.633.83 1.78 3.309 2.544 5.406.764 2.097 1.016 2.982 1.584 2.796.569-.187.569-.187.187-2.983-.383-2.795-1.529-9.217-5.657-14.044-4.129-4.828-10.037-7.12-11.38-7.623-1.332-.513-2.665-1.212-2.982-.569-.317.634.886 1.333 2.414 1.966 1.528.634 3.047 1.967 4.576 3.113s2.61 3.178 2.61 3.178l.13 1.016-3.3 2.451-.065 1.65-10.969 6.728-11.015-6.794 2.031-3.513s.42-.68.336-1.268c-.084-.596-5.005-3.476-6.272-4.24-1.268-.764-3.56-1.267-6.524-1.696-2.963-.42-5.76.084-6.356.764-.596.68-.251 3.476.252 4.995.512 1.529 2.376 5.257 2.964 5.928.596.68 7.12 5.759 7.539 5.759s.848-.513.848-.513l3.392-3.727 9.767 6.17-26.28 16.122.633 2.032 1.463 1.584 27.036-17.95 16.533 10.438s.251 1.268.168 2.545c-.084 1.267.68 3.215.764 3.643.084.42 1.1 1.697 2.115 1.268s3.812-4.492 3.812-4.492 3.131-4.063 3.308-4.744c.168-.68.168-1.053-.932-1.696zm-3.746 5.089c-1.016 1.398-2.032 2.544-2.414 2.348-.382-.186 0-2.861.569-3.625.55-.736 2.796-2.032 3.308-1.78.513.251-.447 1.659-1.463 3.057z"/></svg>