<svg version="1.2" baseProfile="tiny" xmlns="http://www.w3.org/2000/svg" viewBox="0 0 75 75" overflow="visible" xml:space="preserve"><path fill="#FDD700" d="M-74.9 0h75v75h-75zM.1 0h75v75H.1z"/><path fill="#020202" d="M64.069 48.122c-1.212-.699-2.712-.587-4.157-.42-1.435.169-2.963 1.184-2.963 1.184l-15.704-9.673 9.73-6.459 1.528.513 2.861-1.584s.383-.383 1.082-.187c.698.187 1.714 2.097 2.348 2.926.634.83 1.78 3.309 2.544 5.406s1.016 2.982 1.585 2.796c.568-.187.568-.187.186-2.983-.382-2.795-1.528-9.217-5.657-14.044-4.129-4.828-10.037-7.12-11.38-7.623-1.332-.513-2.664-1.212-2.981-.569-.317.634.885 1.333 2.413 1.966 1.529.634 3.048 1.967 4.576 3.113 1.529 1.146 2.61 3.178 2.61 3.178l.13 1.016-3.299 2.451-.065 1.65-10.97 6.728-11.015-6.794 2.032-3.513s.42-.68.335-1.268c-.084-.596-5.004-3.476-6.272-4.24-1.267-.764-3.56-1.267-6.523-1.696-2.964-.42-5.76.084-6.356.764-.597.68-.252 3.476.251 4.995.513 1.529 2.377 5.257 2.964 5.928.596.68 7.12 5.759 7.54 5.759s.847-.513.847-.513l3.393-3.727 9.767 6.17L9.168 55.493l.633 2.032 1.463 1.584L38.3 41.16l16.533 10.438s.252 1.268.168 2.545c-.084 1.267.68 3.215.764 3.643.084.42 1.1 1.697 2.116 1.268 1.016-.429 3.811-4.492 3.811-4.492s3.132-4.063 3.309-4.744c.168-.68.168-1.053-.932-1.696zm-3.747 5.089c-1.015 1.398-2.031 2.544-2.413 2.348-.382-.186 0-2.861.568-3.625.55-.736 2.796-2.032 3.309-1.78.512.251-.448 1.659-1.464 3.057z"/></svg>