<svg version="1.2" baseProfile="tiny" xmlns="http://www.w3.org/2000/svg" viewBox="0 0 75 75" overflow="visible" xml:space="preserve"><path fill="#FDD700" d="M.1 0h75v75H.1z"/><path fill="#020202" d="M64.075 48.122c-1.212-.699-2.712-.587-4.157-.42-1.435.169-2.964 1.184-2.964 1.184l-15.703-9.673 9.73-6.459 1.528.513 2.861-1.584s.382-.383 1.081-.187c.7.187 1.715 2.097 2.349 2.926.633.83 1.78 3.309 2.544 5.406s1.016 2.982 1.584 2.796c.569-.187.569-.187.187-2.983-.382-2.795-1.529-9.217-5.657-14.044-4.129-4.828-10.037-7.12-11.38-7.623-1.332-.513-2.665-1.212-2.982-.569-.316.634.886 1.333 2.414 1.966 1.529.634 3.048 1.967 4.576 3.113 1.528 1.146 2.61 3.178 2.61 3.178l.13 1.016-3.3 2.451-.064 1.65-10.97 6.728-11.015-6.794 2.032-3.513s.419-.68.335-1.268c-.084-.596-5.005-3.476-6.272-4.24s-3.56-1.267-6.524-1.696c-2.963-.42-5.76.084-6.356.764s-.251 3.476.252 4.995c.513 1.529 2.377 5.257 2.964 5.928.596.68 7.12 5.759 7.54 5.759s.847-.513.847-.513l3.393-3.727 9.766 6.17-26.28 16.122.633 2.032 1.463 1.584 27.036-17.95L54.84 51.598s.252 1.268.168 2.545c-.084 1.267.68 3.215.764 3.643.084.42 1.1 1.697 2.115 1.268 1.016-.429 3.812-4.492 3.812-4.492s3.131-4.063 3.309-4.744c.167-.68.167-1.053-.932-1.696zm-3.747 5.089c-1.016 1.398-2.031 2.544-2.414 2.348-.382-.186 0-2.861.569-3.625.55-.736 2.796-2.032 3.308-1.78.513.251-.447 1.659-1.463 3.057z"/></svg>