<svg version="1.2" baseProfile="tiny" xmlns="http://www.w3.org/2000/svg" viewBox="0 0 75 75" overflow="visible" xml:space="preserve"><path fill="#FDD700" d="M-74.9 0h75v75h-75zM.1 0h75v75H.1z"/><g fill="#010101"><path d="M8.8 32.5h3.6c1.7 0 3.1.1 4 1.3.6.7.7 1.6.7 2.2 0 1.3-.6 2.5-1.5 3.1-.8.5-2 .5-2.6.5h-1.7v4.5H8.8V32.5zm2.4 5.2h1c.8 0 2.3 0 2.3-1.8 0-1.6-1.3-1.6-2-1.6h-1.2v3.4zM18.5 32.5H21v11.6h-2.5V32.5zM23.1 32.5h3.6l4.3 9.1v-9.1h2.3v11.6h-3.4l-4.5-9.6v9.6h-2.3V32.5zM35.6 32.5h3.6l4.3 9.1v-9.1h2.3v11.6h-3.4l-4.5-9.6v9.6h-2.3V32.5zM48.1 32.5h7.7v1.9h-5.3v2.8h4.9v1.9h-4.9v3.1h5.4v1.9H48V32.5zM57.7 32.5h3.8c.6 0 2.6 0 4 1 1.5 1.1 2 2.9 2 4.5 0 3.6-1.9 5.4-4.1 5.8-.4.1-.9.1-2.1.1h-3.6V32.5zm2.5 9.7h1c1.1 0 2-.1 2.7-.8 1-1 1-2.7 1-3.3 0-1.6-.6-3.1-2.1-3.6-.5-.1-1.2-.2-2.6-.2v7.9z"/></g></svg>