<svg version="1.2" baseProfile="tiny" xmlns="http://www.w3.org/2000/svg" viewBox="0 0 75 75" overflow="visible" xml:space="preserve"><path fill="#FDD700" d="M0 0h75v75H0z"/><g fill="#010101"><path d="M11.125 29.3v6h-1.7v-13h4.5c2.3 0 3.1 1.6 3.1 3.2 0 1.5-.8 2.7-2.4 3 1.5.2 2 .7 2.1 3.3 0 .6.2 2.6.4 3.4h-1.7c-.5-.9-.4-2.6-.5-4.3-.1-1.6-1.4-1.7-2-1.7h-1.8zm0-1.5h2.5c1.2 0 1.8-1 1.8-2.2 0-.9-.5-2-1.7-2h-2.6v4.2zM19.125 30.8c0-2.7.3-4.9 3.5-4.9s3.5 2.2 3.5 4.9c0 4-1.5 4.6-3.5 4.6s-3.5-.6-3.5-4.6zm5.4-.6c0-2.5-.8-3-1.9-3s-1.9.5-1.9 3c0 3 .4 4 1.9 4s1.9-1.1 1.9-4zM33.025 33.9c-.5 1-1.2 1.5-2.3 1.5-1.9 0-2.5-1.2-2.5-3 0-2.8 2.7-2.9 4.8-2.8 0-1.2.1-2.5-1.5-2.5-1 0-1.5.7-1.4 1.6h-1.6c.1-2 1.2-2.7 3.1-2.7 2.3 0 3 1.2 3 2.7v4.4c0 .7.1 1.5.2 2.2h-1.6v-1.4zm-3.3-1.4c0 .9.4 1.7 1.4 1.7.9 0 2-.6 1.9-3.5-1.4 0-3.3-.1-3.3 1.8zM42.125 22.2h1.5v13h-1.5v-1.1c-.5.8-1.1 1.3-2.1 1.3-1.5 0-2.9-.6-2.9-4.6 0-2.3.1-4.9 3-4.9.9 0 1.5.4 2 1.1h.1v-4.8zm-1.7 5c-1.6 0-1.8 1.3-1.8 3.7 0 1.4 0 3.3 1.9 3.3 1.7 0 1.7-2.1 1.7-3.9-.1-1.2-.1-3.1-1.8-3.1zM10.525 53.2v-13h6.7v1.4h-5v4.2h4.7v1.4h-4.7v4.5h5.2v1.4h-6.9zM24.325 53.2v-6.3c0-1-.3-1.8-1.6-1.8-1.6 0-1.9 1.4-1.9 2.7v5.4h-1.5V46c0-.6 0-1.3-.1-1.9h1.6v1.2h.1c.6-1 1.3-1.4 2.4-1.4 1.9 0 2.4 1.2 2.4 3v6.3h-1.4zM33.125 40.2h1.5v13h-1.5v-1.1c-.5.8-1.1 1.3-2.1 1.3-1.5 0-2.9-.6-2.9-4.6 0-2.3.1-4.9 3-4.9.9 0 1.5.4 2 1.1h.1v-4.8zm-1.7 5c-1.6 0-1.8 1.3-1.8 3.7 0 1.4 0 3.3 1.9 3.3 1.7 0 1.7-2.1 1.7-3.9-.1-1.2-.1-3.1-1.8-3.1zM40.025 53.4c-2 0-3.2-.9-3.1-3h1.7c0 .5 0 1.7 1.5 1.7.9 0 1.6-.5 1.6-1.4 0-1.6-4.5-1.7-4.5-4.4 0-1 .6-2.5 3.1-2.5 1.6 0 3 .8 2.9 2.6h-1.6c0-1-.5-1.5-1.4-1.5-.8 0-1.4.4-1.4 1.2 0 1.6 4.5 1.6 4.5 4.3-.1 2.2-1.5 3-3.3 3zM51.839 32.7l12.442 4.7-12.442 4.7v-9.4z"/><path d="M51.398 32V42.8l14.207-5.4L51.398 32zm.882 1.4 10.59 4-10.59 4v-8z"/></g></svg>