<svg version="1.2" baseProfile="tiny" xmlns="http://www.w3.org/2000/svg" viewBox="0 0 75 75" overflow="visible" xml:space="preserve"><path fill="#FDD700" d="M0 0h75v75H0z"/><g fill="#010101"><path d="M28.8 32.7v-3.8c0-2.3 1.2-3.8 3.6-3.8s3.6 1.5 3.6 3.8v3.8c0 3.2-1.2 4.5-3.6 4.5s-3.6-1.3-3.6-4.5zm5.7 0v-3.9c0-2.4-1.7-2.5-2.1-2.5s-2.1.1-2.1 2.5v3.9c0 2.5.7 3.2 2.1 3.2s2.1-.6 2.1-3.2zM38.8 28.8v-1.6c0-1.6 1.2-2 2.3-2h.6v.9c-1.4-.1-1.6.5-1.6 1.2v1.4h1.6v1h-1.6v7.1h-1.3v-7.1h-1.3v-1h1.3zM43.3 28.8v-1.6c0-1.6 1.2-2 2.3-2h.6v.9c-1.4-.1-1.6.5-1.6 1.2v1.4h1.6v1h-1.6v7.1h-1.3v-7.1h-1.2v-1h1.2zM23.1 47.6v5.3h-1.5V41.3h4c2 0 2.8 1.4 2.8 2.9 0 1.4-.8 2.4-2.1 2.6 1.3.2 1.8.7 1.9 3 0 .5.2 2.3.4 3h-1.5c-.4-.8-.3-2.3-.4-3.8-.1-1.4-1.2-1.5-1.7-1.5h-1.9zm0-1.3h2.2c1.1 0 1.6-.9 1.6-1.9 0-.8-.4-1.8-1.6-1.8h-2.2v3.7zM30.3 49c0-2.4.3-4.3 3.1-4.3 2.8 0 3.1 2 3.1 4.3 0 3.6-1.4 4.1-3.1 4.1-1.8 0-3.1-.5-3.1-4.1zm4.7-.6c0-2.2-.7-2.7-1.7-2.7s-1.7.5-1.7 2.7c0 2.6.3 3.6 1.7 3.6s1.7-.9 1.7-3.6zM42.8 51.7c-.4.9-1.1 1.3-2.1 1.3-1.7 0-2.2-1.1-2.2-2.7 0-2.4 2.4-2.6 4.2-2.5 0-1.1 0-2.2-1.4-2.2-.9 0-1.3.6-1.3 1.4h-1.4c.1-1.8 1-2.4 2.7-2.4 2.1 0 2.6 1.1 2.6 2.4v3.9c0 .6.1 1.3.2 1.9h-1.4v-1.1zm-3-1.2c0 .8.4 1.5 1.3 1.5.8 0 1.8-.5 1.7-3.1-1.3 0-3-.1-3 1.6zM51 41.4h1.3V53H51v-1c-.4.8-1 1.1-1.9 1.1-1.3 0-2.6-.5-2.6-4.1 0-2 .1-4.3 2.7-4.3.8 0 1.3.3 1.8 1v-4.3zm-1.6 4.3c-1.4 0-1.6 1.1-1.6 3.3 0 1.2 0 3 1.6 3 1.5 0 1.5-1.8 1.5-3.5.1-1 0-2.8-1.5-2.8z"/></g></svg>