<svg version="1.2" baseProfile="tiny" xmlns="http://www.w3.org/2000/svg" viewBox="0 0 75 75" overflow="visible" xml:space="preserve"><path fill="#FDD700" d="M0 0h75v75H0z"/><g fill="#010101"><path d="M33.6 36.9h-1.5V25.3h1.5v11.6zM40.8 36.9v-5.6c0-.9-.3-1.6-1.4-1.6-1.4 0-1.6 1.3-1.6 2.4v4.8h-1.3v-6.4c0-.6 0-1.1-.1-1.7h1.4v1h.1c.5-.9 1.1-1.2 2.2-1.2 1.7 0 2.2 1 2.2 2.6v5.6h-1.5zM18.8 41.4v1.3h-3V53h-1.5V42.7h-3v-1.3h7.5zM20.4 46c.6-1.2 1.2-1.4 2.5-1.4V46h-.8c-1.5 0-1.8 1.1-1.8 2.2V53H19v-8.1h1.3V46zM28.6 51.7c-.4.9-1.1 1.3-2.1 1.3-1.7 0-2.2-1.1-2.2-2.7 0-2.4 2.4-2.6 4.2-2.5 0-1.1 0-2.2-1.4-2.2-.9 0-1.3.6-1.3 1.4h-1.3c.1-1.8 1-2.4 2.7-2.4 2.1 0 2.6 1.1 2.6 2.4v3.9c0 .6.1 1.3.2 1.9h-1.4v-1.1zm-3-1.2c0 .8.4 1.5 1.3 1.5.8 0 1.8-.5 1.7-3.1-1.3 0-3-.1-3 1.6zM32.4 41.4h1.5v1.4h-1.5v-1.4zm1.4 11.5h-1.3v-8.1h1.3v8.1zM40.6 52.9v-5.6c0-.9-.3-1.6-1.4-1.6-1.4 0-1.6 1.3-1.6 2.4v4.8h-1.3v-6.4c0-.6 0-1.1-.1-1.7h1.3v1c.5-.9 1.1-1.2 2.2-1.2 1.7 0 2.2 1 2.2 2.6v5.6h-1.3zM44.1 41.4h1.5v1.4h-1.5v-1.4zm1.4 11.5h-1.3v-8.1h1.3v8.1zM52.3 52.9v-5.6c0-.9-.3-1.6-1.4-1.6-1.4 0-1.6 1.3-1.6 2.4v4.8H48v-6.4c0-.6 0-1.1-.1-1.7h1.4v1h.1c.5-.9 1.1-1.2 2.2-1.2 1.7 0 2.2 1 2.2 2.6v5.6h-1.5zM60.3 44.8h1.3v8.9c0 1.8-1.2 2.2-3 2.2-1.3 0-2.6-.7-2.4-2.2h1.5c0 .8.5 1.2 1.2 1.2.9 0 1.4-.6 1.4-1.4v-1.7c-.3.6-1.1 1-1.8 1-2.2 0-2.6-1.9-2.6-4.3 0-3.7 1.9-4 2.5-4 .8 0 1.5.4 1.9 1.2v-.9zm-1.6 1c-1.5 0-1.5 1.8-1.5 2.9 0 2.6.6 3.2 1.6 3.2 1.6 0 1.5-1.9 1.5-3 0-1.3.1-3.1-1.6-3.1z"/></g></svg>