<svg version="1.2" baseProfile="tiny" xmlns="http://www.w3.org/2000/svg" viewBox="0 0 75 75" overflow="visible" xml:space="preserve"><path fill="#FDD700" d="M-74.9 0h75v75h-75z"/><g fill="none" stroke="#010101" stroke-width="5"><path d="M-74.9 58.9h75M.1 35.5h-75"/></g><path fill="#FDD700" d="M.1 0h75v75H.1z"/><g fill="none" stroke="#010101" transform="translate(637.5 -825)"><path stroke-width="5" d="M-637.4 883.9h75M-562.4 860.5h-75"/><circle stroke-width="4" cx="-623.3" cy="872.2" r="7.6"/><circle stroke-width="4" cx="-576.6" cy="872.1" r="7.6"/><circle stroke-width="4" cx="-600.1" cy="872.3" r="7.6"/></g><path fill="#FFF" d="m53.8 55.5-11.7-1.7 2 11.5H44l-7-9.4-7 9.4h-.1l2-11.5-11.6 1.7-.1-.2 9.6-6.8-9.5-7v-.1l11.6 2-1.8-11.6h.2l6.7 9.5 6.7-9.5h.2l-1.8 11.6 11.6-2v.1l-9.5 7 9.6 6.8v.2z"/></svg>