<svg version="1.2" baseProfile="tiny" xmlns="http://www.w3.org/2000/svg" viewBox="0 0 75 75" overflow="visible" xml:space="preserve"><path fill="#FDD700" d="M-74.9 0h75v75h-75z"/><g fill="none" stroke="#010101" stroke-width="5"><path d="M-74.9 58.9h75M.1 35.5h-75"/></g><path fill="#FDD700" d="M.1 0h75v75H.1z"/><g fill="#020202"><path d="M65.486 44.372c.027-2.545-1.825-4.863-4.261-5.51a4.45 4.45 0 0 0-.84-3.76c5.229-6.734-1.943-16.944-10.055-14.316a5.793 5.793 0 0 0-1.314-1.04c2.464-14.271-20-13.222-16.232.739-2.363.748-3.805 3.44-3.112 5.821-2.153-.849-4.79.173-5.812 2.254-3.294-.612-6.113 3.093-4.672 6.104a4.58 4.58 0 0 0-1.24 1.341c-3.459 1.095-6.023 4.58-5.968 8.203h12.263c-.748.52-.428 1.935.502 1.159.046-.082.758-1.031.748-1.104h2.783c-.365.456-2.874 3.686-.602 2.72.055-.129 1.87-2.574 1.898-2.72h2.838c-.146.383-4.398 5.32-1.624 4.16.045-.1 2.91-4.041 2.91-4.16h2.875l-.776 1.095c-.41.566.484 1.195.876.62.036-.082 1.195-1.624 1.186-1.715h2.628c-.338.456-3.039 3.841-.712 2.865.073-.164 1.99-2.683 1.98-2.865h2.628c-.31.456-3.203 3.996-.812 3.002.046-.119 2.144-2.91 2.035-3.002h2.828c-.137.383-4.443 5.383-1.66 4.206.09-.2 2.92-3.978 2.91-4.206h2.875c-.22.438-3.86 4.672-1.241 3.613.045-.11 2.445-3.385 2.454-3.504h11.716zm-52.84 16.251c-.11.511-3.184 3.586-2.235 4.097.784.74 2.682-3.212 3.111-3.476.41-.566-.474-1.196-.876-.62zm2.345-1.45c.128-.503 2.564-2.784 1.68-3.295-.776-.675-2.127 2.391-2.556 2.674-.41.566.475 1.195.876.62zm4.316-7.975c-.128.501-2.71 2.965-1.807 3.476.785.693 2.254-2.582 2.683-2.865.41-.548-.484-1.186-.876-.611z"/><path d="m22.41 46.809-1.652 2.326c-.41.566.483 1.196.876.62.328-.446 3.148-3.932.775-2.946zM17.3 59.784c-.082.51-3.796 4.407-2.802 4.89.785.794 3.249-4.042 3.678-4.27.41-.556-.484-1.195-.876-.62zm1.587-1.314a.532.532 0 0 0 .749-.128c.082-.502 3.941-4.599 2.938-5.082a.532.532 0 0 0-.749.127c-.09.511-3.941 4.6-2.938 5.083zm6.442-10.037c-.118.51-2.837 3.13-1.925 3.65.785.702 2.372-2.756 2.801-3.03.41-.565-.483-1.195-.876-.62zm-5 12.902c-.128.502-2.61 2.838-1.706 3.349.775.684 2.162-2.455 2.591-2.729.402-.565-.493-1.204-.885-.62zm5.2-5.502c.202-3.157-3.439 3.239-3.75 3.44-.41.565.475 1.195.877.62.009 0 2.874-4.06 2.874-4.06zm.713-1.935c.784.73 2.627-3.138 3.056-3.394a.539.539 0 0 0-.127-.748c-.785-.73-2.628 3.139-3.057 3.394a.54.54 0 0 0 .128.748zm-2.172 8.03-1.423 2.007c-.165 2.418 1.989-.885 2.299-1.387.401-.556-.484-1.195-.876-.62zm5-6.15c-.784-.776-3.093 3.823-3.53 4.06a.539.539 0 0 0 .127.749.532.532 0 0 0 .748-.128c.091-.502 3.64-4.188 2.655-4.681zm1.597-1.323 1.98-2.801c.128-2.747-2.518 1.806-2.856 2.18-.41.557.484 1.196.876.621zm3.03-4.672c.456.092 1.24-1.487 1.505-1.733.474-2.555-3.33 1.55-1.506 1.733zm-4.891 10.995-2.29 3.24c-.128 2.901 2.828-2.31 3.166-2.62.401-.565-.484-1.195-.876-.62zm1.916-1.25c.42 0 2.682-2.847 1.87-3.184-.766-.648-1.898 2.044-2.308 2.336-.256.337.018.857.438.848zm4.644-6.177c.41-.566-.483-1.195-.876-.62l-1.177 1.67c-.41.565.484 1.195.876.62 0-.01 1.177-1.67 1.177-1.67zm2.062-4.781c-.146.492-2.199 2.317-1.35 2.837.757.63 1.816-1.916 2.226-2.217.41-.556-.474-1.195-.876-.62zM32.51 61.043l-2.144 3.038c-.41.566.484 1.196.876.62.2-.437 3.896-4.717 1.268-3.658zm2.354-1.478c.137-.493 2.4-2.564 1.524-3.084-.776-.657-1.98 2.171-2.4 2.463-.41.566.484 1.196.876.62zm4.097-7.647c-.128.502-2.573 2.792-1.679 3.313.776.675 2.135-2.41 2.555-2.692.41-.566-.484-1.205-.876-.62zm2.39-1.533.749-1.049c.41-.566-.484-1.195-.876-.62l-.748 1.049c-.41.566.483 1.195.876.62zM34.774 63.58c-.255.329-.684.876-.2 1.214 1.204.648 1.614-2.272.2-1.214zm4.334-5.191c-.785-.712-2.445 2.865-2.874 3.13a.539.539 0 0 0 .128.748c.784.711 2.445-2.866 2.874-3.13a.546.546 0 0 0-.128-.748zm.83-1.187c.776.685 2.2-2.49 2.62-2.773a.539.539 0 0 0-.129-.749c-.784-.684-2.199 2.491-2.618 2.774a.549.549 0 0 0 .127.748zm5.375-6.67c.41-.556-.484-1.195-.876-.62-.164.484-1.971 2.062-1.159 2.564.748.611 1.642-1.633 2.035-1.944zm-2.738 7.848c-.045.456-4.963 6.03-3.877 6.414.702.922 4.361-5.62 4.753-5.794.411-.557-.483-1.195-.876-.62zm3.87-5.475c-.11.51-3.213 3.613-2.255 4.124.785.74 2.701-3.24 3.14-3.504.4-.565-.484-1.195-.886-.62zm2.527-3.577c-.183.456-1.68 1.725-.913 2.217.712.566 1.424-1.277 1.789-1.596.41-.566-.475-1.205-.876-.62z"/></g></svg>