<svg version="1.2" baseProfile="tiny" xmlns="http://www.w3.org/2000/svg" viewBox="0 0 75 75" overflow="visible" xml:space="preserve"><path fill="#FFF" d="M-74.9 0h75v75h-75z"/><path fill="#FDD700" d="M.1 0h75v75H.1z"/><path fill="#010101" d="M35 52.2c1-.4 2-1 3-1.7h2.1v11.2h-2.4V53c-.5.4-1.4.9-2.6 1.4v-2.2z"/><g fill="#010101"><path d="M13.3 31.6v5.3h-1.5V25.3h4c2 0 2.8 1.4 2.8 2.9 0 1.4-.8 2.4-2.1 2.6 1.3.2 1.8.7 1.9 3 0 .5.2 2.3.4 3h-1.5c-.4-.8-.3-2.3-.4-3.8-.1-1.4-1.2-1.5-1.7-1.5h-1.9zm0-1.3h2.2c1.1 0 1.6-.9 1.6-1.9 0-.8-.4-1.8-1.6-1.8h-2.2v3.7zM22 33.3c0 2.3.6 2.7 1.6 2.7.9 0 1.4-.7 1.4-1.5h1.4c0 1.8-1.1 2.6-2.8 2.6-1.7 0-3.1-.5-3.1-4.1 0-2.4.3-4.3 3.1-4.3 2.3 0 2.9 1.3 2.9 3.9v.7H22zm3.1-1c0-2.4-.7-2.6-1.6-2.6-.8 0-1.5.4-1.5 2.6h3.1zM31.2 37.1c-1.7 0-2.8-.8-2.8-2.6h1.5c0 .5 0 1.6 1.3 1.6.8 0 1.4-.4 1.4-1.2 0-1.4-4-1.5-4-3.9 0-.8.5-2.2 2.8-2.2 1.4 0 2.7.7 2.6 2.3h-1.5c0-.8-.4-1.3-1.3-1.3-.7 0-1.2.4-1.2 1.1 0 1.4 4 1.4 4 3.9 0 1.6-1.2 2.3-2.8 2.3zM37.3 33.3c0 2.3.6 2.7 1.6 2.7.9 0 1.4-.7 1.4-1.5h1.4c0 1.8-1.1 2.6-2.8 2.6-1.7 0-3.1-.5-3.1-4.1 0-2.4.3-4.3 3.1-4.3 2.3 0 2.9 1.3 2.9 3.9v.7h-4.5zm3.1-1c0-2.4-.7-2.6-1.6-2.6-.8 0-1.5.4-1.5 2.6h3.1zM45.4 30c.6-1.2 1.2-1.4 2.5-1.4V30h-.8c-1.5 0-1.8 1.1-1.8 2.2V37H44v-8.1h1.3V30zM48.6 28.8h1.5l1.8 6.9 2-6.9h1.4l-2.5 8.1h-1.7l-2.5-8.1zM58 33.3c0 2.3.6 2.7 1.6 2.7.9 0 1.4-.7 1.4-1.5h1.4c0 1.8-1.1 2.6-2.8 2.6-1.7 0-3.1-.5-3.1-4.1 0-2.4.3-4.3 3.1-4.3 2.3 0 2.9 1.3 2.9 3.9v.7H58zm3.1-1c0-2.4-.7-2.6-1.6-2.6-.8 0-1.5.4-1.5 2.6h3.1z"/></g></svg>