<svg version="1.2" baseProfile="tiny" xmlns="http://www.w3.org/2000/svg" viewBox="0 0 75 75" overflow="visible" xml:space="preserve"><path fill="#FDD700" d="M0 0h75v75H0z"/><path fill="#010101" d="m33.8 59.4 2.9-2.6c.5-.5 1.1-1 1.7-1.7.6-.8.8-1.1.8-1.6 0-.8-.5-1.4-1.3-1.4-1.3 0-1.4 1.3-1.4 1.6h-2.4c0-.4 0-1.3.7-2.1.6-.8 1.8-1.2 3.2-1.2 2.4 0 3.8 1.3 3.8 3 0 1.2-.4 2.6-5.3 6.5 1.6 0 1.8 0 3.1-.1h2.3v1.9h-7.8v-2.3z"/><g fill="#010101"><path d="M13.2 31.6v5.3h-1.5V25.3h4c2 0 2.8 1.4 2.8 2.9 0 1.4-.8 2.4-2.1 2.6 1.3.2 1.8.7 1.9 3 0 .5.2 2.3.4 3h-1.5c-.4-.8-.3-2.3-.4-3.8-.1-1.4-1.2-1.5-1.7-1.5h-1.9zm0-1.3h2.2c1.1 0 1.6-.9 1.6-1.9 0-.8-.4-1.8-1.6-1.8h-2.2v3.7zM21.9 33.3c0 2.3.6 2.7 1.6 2.7.9 0 1.4-.7 1.4-1.5h1.4c0 1.8-1.1 2.6-2.8 2.6-1.7 0-3.1-.5-3.1-4.1 0-2.4.3-4.3 3.1-4.3 2.3 0 2.9 1.3 2.9 3.9v.7h-4.5zm3.1-1c0-2.4-.7-2.6-1.6-2.6-.8 0-1.5.4-1.5 2.6H25zM31.1 37.1c-1.7 0-2.8-.8-2.8-2.6h1.5c0 .5 0 1.6 1.3 1.6.8 0 1.4-.4 1.4-1.2 0-1.4-4-1.5-4-3.9 0-.8.5-2.2 2.8-2.2 1.4 0 2.7.7 2.6 2.3h-1.5c0-.8-.4-1.3-1.3-1.3-.7 0-1.2.4-1.2 1.1 0 1.4 4 1.4 4 3.9 0 1.6-1.2 2.3-2.8 2.3zM37.2 33.3c0 2.3.6 2.7 1.6 2.7.9 0 1.4-.7 1.4-1.5h1.4c0 1.8-1.1 2.6-2.8 2.6-1.7 0-3.1-.5-3.1-4.1 0-2.4.3-4.3 3.1-4.3 2.3 0 2.9 1.3 2.9 3.9v.7h-4.5zm3.1-1c0-2.4-.7-2.6-1.6-2.6-.8 0-1.5.4-1.5 2.6h3.1zM45.3 30c.6-1.2 1.2-1.4 2.5-1.4V30H47c-1.5 0-1.8 1.1-1.8 2.2V37h-1.3v-8.1h1.3V30zM48.5 28.8H50l1.8 6.9 2-6.9h1.4l-2.5 8.1H51l-2.5-8.1zM57.9 33.3c0 2.3.6 2.7 1.6 2.7.9 0 1.4-.7 1.4-1.5h1.4c0 1.8-1.1 2.6-2.8 2.6-1.7 0-3.1-.5-3.1-4.1 0-2.4.3-4.3 3.1-4.3 2.3 0 2.9 1.3 2.9 3.9v.7h-4.5zm3.1-1c0-2.4-.7-2.6-1.6-2.6-.8 0-1.5.4-1.5 2.6H61z"/></g></svg>