<svg version="1.2" baseProfile="tiny" xmlns="http://www.w3.org/2000/svg" viewBox="0 0 75 75" overflow="visible" xml:space="preserve"><path fill="#FDD700" d="M-74.9 0h75v75h-75zM.1 0h75v75H.1z"/><path fill="#010101" d="M38.1 68.9h-1.5v-9.5l-1.7 1.1v-1.4c.4-.2 1.4-1 1.9-1.3h1.3v11.1z"/><g transform="matrix(.10526 0 0 .10526 1458.175 711.255)" fill="none" stroke="#231F20" stroke-width="5.263" stroke-miterlimit="10"><ellipse cx="-13494.7" cy="-6469.1" rx="160" ry="133.3"/><path d="M-13734.7-6469.1h80M-13334.7-6469.1h80M-13494.7-6669.1v66.7M-13494.7-6335.8v66.7M-13664.4-6610.5l56.6 47.1M-13381.6-6374.8l56.6 47.1M-13674.1-6335.8l56.6-47.1M-13391.3-6571.5l56.6-47.1"/></g></svg>