<svg version="1.2" baseProfile="tiny" xmlns="http://www.w3.org/2000/svg" viewBox="0 0 75 75" overflow="visible" xml:space="preserve"><path fill="#FFF" d="M-74.9 0h75v75h-75z"/><path fill="#FDD700" d="M.1 0h75v75H.1z"/><path fill="#010101" d="M38.1 68.9h-1.5v-9.5l-1.7 1.1v-1.4c.4-.2 1.4-1 1.9-1.3h1.3v11.1z"/><g transform="matrix(.10526 0 0 .10526 1008.175 711.255)" fill="none" stroke="#231F20" stroke-width="5.263" stroke-miterlimit="10"><ellipse cx="-9219.5" cy="-6469.1" rx="160" ry="133.3"/><path d="M-9459.5-6469.1h80M-9059.5-6469.1h80M-9219.5-6669.1v66.7M-9219.5-6335.8v66.7M-9389.2-6610.5l56.6 47.1M-9106.4-6374.8l56.6 47.1M-9398.9-6335.8l56.6-47.1M-9116.1-6571.5l56.6-47.1"/></g></svg>