<svg version="1.2" baseProfile="tiny" xmlns="http://www.w3.org/2000/svg" viewBox="0 0 75 75" overflow="visible" xml:space="preserve"><path fill="#FDD700" d="M0 0h75v75H0z"/><path fill="#010101" d="M39.9 63.4c0 2.9 0 5.7-3 5.7s-3-2.8-3-5.7c0-3 0-5.8 3-5.8 3.1 0 3 2.8 3 5.8zm-4.5.3c0 1.9-.1 4.2 1.5 4.2s1.5-2.4 1.5-4.2c0-3 0-4.8-1.5-4.8-1.4 0-1.5 1.8-1.5 4.8z"/><g transform="matrix(.10526 0 0 .10526 108.175 711.255)" fill="none" stroke="#231F20" stroke-width="5.263" stroke-miterlimit="10"><ellipse cx="-670.1" cy="-6469.1" rx="160" ry="133.3"/><path d="M-910.1-6469.1h80M-510.1-6469.1h80M-670.1-6669.1v66.7M-670.1-6335.8v66.7M-839.8-6610.5l56.6 47.1M-557-6374.8l56.6 47.1M-849.5-6335.8l56.6-47.1M-566.7-6571.5l56.6-47.1"/></g></svg>