<svg version="1.2" baseProfile="tiny" xmlns="http://www.w3.org/2000/svg" viewBox="0 0 75 75" overflow="visible" xml:space="preserve"><path fill="#FDD700" d="M0 0h75v75H0z"/><g fill="#010101"><path d="M24.7 10.9v.3c0 1.2.7 1.5 1.5 1.5.9 0 1.5-.4 1.5-1.4 0-1.9-3.9-1.7-3.9-4.3 0-1.5 1.1-2.4 2.5-2.4 1.6 0 2.5.8 2.4 2.5h-1.2c0-.9-.3-1.6-1.3-1.6-.7 0-1.3.3-1.3 1.3 0 1.9 3.9 1.6 3.9 4.4 0 1.8-1.3 2.4-2.7 2.4-2.6 0-2.6-1.9-2.5-2.8h1.1zM32.4 4.9h1.4l2.8 8.7h-1.2l-.6-2.1h-3.3l-.6 2.1h-1.1l2.6-8.7zm.7 1-1.4 4.6h2.8l-1.4-4.6zM43.8 4.9v8.7h-1.5l-3.4-7.5v7.5h-1V4.9h1.6l3.4 7.4V4.9h.9zM45.8 4.9h2.7c1.1 0 1.9.4 2.3 1.3.3.7.4 2.5.4 2.7 0 1.8-.2 2.9-.5 3.5-.5.7-1.3 1.1-2.9 1.1h-2V4.9zm1.1 7.7h1c1.5 0 2.1-.6 2.1-2.6V8.2c0-1.8-.5-2.4-1.7-2.4h-1.5v6.8z"/></g><g fill="#010101"><path d="M21 22.1v.3c0 1.2.7 1.5 1.5 1.5.9 0 1.5-.4 1.5-1.4 0-1.9-3.9-1.7-3.9-4.3 0-1.5 1.1-2.4 2.5-2.4 1.6 0 2.5.8 2.4 2.5h-1.2c0-.9-.3-1.6-1.3-1.6-.7 0-1.3.3-1.3 1.3 0 1.9 3.9 1.6 3.9 4.4 0 1.8-1.3 2.4-2.7 2.4-2.6 0-2.6-1.9-2.5-2.8H21zM31.7 16.1v1h-2.3v7.7h-1.1v-7.7H26v-1h5.7zM32.8 21.6v-2.8c0-1.7.9-2.8 2.7-2.8s2.7 1.1 2.7 2.8v2.8c0 2.4-.9 3.3-2.7 3.3s-2.7-1-2.7-3.3zm4.3 0v-2.9c0-1.8-1.2-1.9-1.6-1.9-.3 0-1.6.1-1.6 1.9v2.9c0 1.9.6 2.4 1.6 2.4s1.6-.5 1.6-2.4zM41.2 20.7v4h-1.1V16h3c1.5 0 2.1 1.1 2.1 2.2 0 1-.6 1.8-1.6 2 1 .2 1.4.5 1.4 2.2 0 .4.1 1.7.3 2.3h-1.2c-.3-.6-.2-1.7-.3-2.9-.1-1.1-.9-1.1-1.3-1.1h-1.3zm0-.9h1.7c.8 0 1.2-.7 1.2-1.4 0-.6-.3-1.3-1.2-1.3h-1.7v2.7zM47.9 24.7h-1V16h1.8l2.2 7.3 2.2-7.3h1.8v8.7h-1.1V17l-2.4 7.7h-1L48 17v7.7z"/></g><g transform="matrix(.10225 0 0 .10225 33.386 631.54)"><circle fill="#010101" cx="-54.3" cy="-5597.3" r="12.5"/><circle fill="#010101" cx="-26" cy="-5579.1" r="12.5"/><circle fill="#010101" cx="95.7" cy="-5647.3" r="12.5"/><path fill="#010101" d="M95.7-5659.8h212.5v25H95.7v-25z"/><circle fill="#010101" cx="20.7" cy="-5597.3" r="12.5"/><path fill="#010101" d="M20.7-5609.8h287.5v25H20.7v-25z"/><circle fill="#010101" cx="-129.3" cy="-5547.3" r="12.5"/><path fill="#010101" d="M-129.3-5559.8h437.5v25h-437.5v-25z"/><circle fill="#010101" cx="-7.3" cy="-5604.1" r="12.5"/><circle fill="#010101" cx="14.6" cy="-5629.1" r="12.5"/><circle fill="#010101" cx="70.7" cy="-5626.9" r="12.5"/><circle fill="#010101" cx="52.1" cy="-5651.9" r="12.5"/><circle fill="#010101" cx="89.4" cy="-5697.3" r="12.5"/><circle fill="#010101" cx="117.6" cy="-5676.3" r="12.5"/><circle fill="#010101" cx="155.1" cy="-5672.3" r="12.5"/><circle fill="#010101" cx="225.4" cy="-5688.8" r="12.5"/><circle fill="#010101" cx="258.2" cy="-5741.5" r="12.5"/><circle fill="#010101" cx="270.7" cy="-5709.8" r="12.5"/><circle fill="#010101" cx="288.5" cy="-5678.6" r="12.5"/><circle fill="#010101" cx="301" cy="-5751.2" r="12.5"/><circle fill="#010101" cx="-10.4" cy="-5783" r="12.5"/><path fill="#020202" d="M2-5840.5c-10.4 0-15.7-10.3-25.3-12.6-15.9-1.7-34-1.4-49.6 1.5-16.4 15.1-40.7 9.9-57.4 22.4-15.8 18.8.4 30.9-26.2 46.9-8.1 17.6-8.3 39.8-24.4 53.5-7.8 19.4-31 19.1-42.3 34.9-8.1 15.9-19.9 38.7-10.3 55.7 25 20.6 13.1 52.3 35.3 68.4 9.9 6.5 38.4 8.9 33.6-9.7-12.3-13.7-18.2-31.8-7.2-48.5 14.6-24.8-32.6-20.9-27.2-42.1 11.5-18.6 62-3.2 50.6-39.2-6.7-24.7 29.1-16.2 19.7-49.2.5-8.3 9.8-5.5 14.9-8.4 12.6-6.2 5.1-23.2 14.2-31 31.6-.7 41.1-43.4 66.1-17.3 15 15.7 49.7-5.4 54.9 21.9-6.8 14.1-28.3 18.4-30.2 36.3.6 30.1-32.7 54.4-60.3 56.4-9.1-7.1-9-21.4-22.4-4.8-8.9 12.2-20 24-35.1 27.4-5.6.7-11.9-.3-15.2 5.3 1.1 13.8-14.8 21-9 33.7-18.9 70.7 44.7 87 45.7 58.2-42.4-57.1 12.9-30.7 16.7-79.4 8.6-11.5 24.1-3 35.7-4.3 14.3-11.4 22.8-12.3 40.5-8.2 20-3.9 8.4-29.6 35.1-40.2 16.6-11.1-11.4-33.6 9.7-39.4 7.1-1.3 12.2-6.4 15.9-12.5 16.6-18.5 28.6-10.7 39.5 7.1 8 5.8 25 2.3 25 15.9-3.7 26.7 17.4 27.2 36.3 19.7 16.5 10 43.8 21.1 40.2-10.8-1.8-12.6 14.4-17.7 13.9-29.7-9.2-18.4-2.4-40 20.4-30 33.1 29.5 27.9-36.4 74.2.1 13.4 4.7 24.8-14.4 14.5-24-12.3-4.9-21.5-15.5-34.1-19.1-16.4-.4-30.2 14.2-47.4 10.8-89.9-16.3-32.1 78.7-83.1 74.1-7.1-5.4-10.7-14.9-17.9-20.2-13.1-5.9-23.5-15.1-33.7-25.1-10.9-9.3-25-3.6-37.6-5.3-25.5-16-9.4-41.9-56.7-39.2z"/><circle fill="#010101" cx="-29.3" cy="-5758" r="12.5"/><circle fill="#010101" cx="-66.8" cy="-5733.9" r="12.5"/><circle fill="#010101" cx="-38.5" cy="-5716.5" r="12.5"/></g></svg>