<svg version="1.2" baseProfile="tiny" xmlns="http://www.w3.org/2000/svg" viewBox="0 0 75 75" overflow="visible" xml:space="preserve"><path fill="#FDD700" d="M-74.9 0h75v75h-75zM.1 0h75v75H.1z"/><g fill="#020202"><path d="M65.486 44.368c.027-2.546-1.825-4.863-4.261-5.511a4.45 4.45 0 0 0-.84-3.76c5.229-6.733-1.943-16.944-10.055-14.316a5.793 5.793 0 0 0-1.314-1.04c2.464-14.27-20-13.221-16.232.74-2.363.747-3.805 3.44-3.112 5.82-2.153-.848-4.79.174-5.812 2.254-3.294-.611-6.113 3.093-4.672 6.105a4.58 4.58 0 0 0-1.24 1.34c-3.459 1.096-6.023 4.581-5.968 8.204h12.263c-.748.52-.428 1.934.502 1.159.046-.083.758-1.032.748-1.105h2.783c-.365.457-2.874 3.687-.602 2.72.055-.128 1.87-2.574 1.898-2.72h2.838c-.146.384-4.398 5.32-1.624 4.161.045-.1 2.91-4.042 2.91-4.16h2.875l-.776 1.094c-.41.566.484 1.196.876.62.036-.081 1.195-1.623 1.186-1.715h2.628c-.338.457-3.039 3.842-.712 2.866.073-.165 1.99-2.683 1.98-2.866h2.628c-.31.457-3.203 3.997-.812 3.002.046-.118 2.144-2.91 2.035-3.002h2.828c-.137.384-4.443 5.384-1.66 4.207.09-.2 2.92-3.978 2.91-4.207h2.875c-.22.438-3.86 4.672-1.241 3.614.045-.11 2.445-3.385 2.454-3.504h11.716zm-52.84 16.25c-.11.512-3.184 3.587-2.235 4.097.784.74 2.682-3.211 3.111-3.476.41-.566-.474-1.195-.876-.62zm2.345-1.45c.128-.502 2.564-2.783 1.68-3.294-.776-.675-2.127 2.39-2.556 2.673-.41.566.475 1.196.876.62zm4.316-7.975c-.128.502-2.71 2.965-1.807 3.476.785.694 2.254-2.582 2.683-2.865.41-.547-.484-1.186-.876-.61z"/><path d="m22.41 46.804-1.652 2.327c-.41.566.483 1.195.876.62.328-.447 3.148-3.932.775-2.947zM17.3 59.78c-.082.511-3.796 4.407-2.802 4.89.785.795 3.249-4.041 3.678-4.27.41-.556-.484-1.195-.876-.62zm1.587-1.314a.532.532 0 0 0 .749-.128c.082-.501 3.941-4.598 2.938-5.082a.532.532 0 0 0-.749.128c-.09.51-3.941 4.599-2.938 5.082zm6.442-10.037c-.118.511-2.837 3.13-1.925 3.65.785.703 2.372-2.755 2.801-3.03.41-.565-.483-1.194-.876-.62zm-5 12.902c-.128.502-2.61 2.838-1.706 3.349.775.684 2.162-2.454 2.591-2.728.402-.566-.493-1.205-.885-.62zm5.2-5.502c.202-3.157-3.439 3.24-3.75 3.44-.41.566.475 1.195.877.62.009 0 2.874-4.06 2.874-4.06zm.713-1.934c.784.73 2.627-3.139 3.056-3.394a.539.539 0 0 0-.127-.749c-.785-.73-2.628 3.14-3.057 3.395a.54.54 0 0 0 .128.748zm-2.172 8.03-1.423 2.007c-.165 2.418 1.989-.885 2.299-1.387.401-.557-.484-1.195-.876-.62zm5-6.15c-.784-.776-3.093 3.823-3.53 4.06a.539.539 0 0 0 .127.748.532.532 0 0 0 .748-.128c.091-.501 3.64-4.188 2.655-4.68zm1.597-1.324 1.98-2.8c.128-2.747-2.518 1.806-2.856 2.18-.41.557.484 1.195.876.62zm3.03-4.671c.456.091 1.24-1.488 1.505-1.734.474-2.555-3.33 1.551-1.506 1.734zm-4.891 10.995-2.29 3.239c-.128 2.901 2.828-2.309 3.166-2.619.401-.566-.484-1.195-.876-.62zm1.916-1.25c.42 0 2.682-2.847 1.87-3.185-.766-.648-1.898 2.044-2.308 2.336-.256.338.018.858.438.849zm4.644-6.178c.41-.565-.483-1.195-.876-.62l-1.177 1.67c-.41.565.484 1.195.876.62 0-.009 1.177-1.67 1.177-1.67zm2.062-4.78c-.146.492-2.199 2.317-1.35 2.837.757.63 1.816-1.916 2.226-2.217.41-.557-.474-1.196-.876-.62zM32.51 61.037l-2.144 3.039c-.41.565.484 1.195.876.62.2-.438 3.896-4.717 1.268-3.659zm2.354-1.478c.137-.493 2.4-2.564 1.524-3.084-.776-.657-1.98 2.172-2.4 2.464-.41.565.484 1.195.876.62zm4.097-7.646c-.128.502-2.573 2.792-1.679 3.312.776.675 2.135-2.409 2.555-2.692.41-.565-.484-1.204-.876-.62zm2.39-1.533.749-1.05c.41-.565-.484-1.195-.876-.62l-.748 1.05c-.41.565.483 1.195.876.62zm-6.578 13.194c-.255.328-.684.876-.2 1.213 1.204.648 1.614-2.272.2-1.213zm4.334-5.192c-.785-.712-2.445 2.865-2.874 3.13a.539.539 0 0 0 .128.748c.784.712 2.445-2.865 2.874-3.13a.546.546 0 0 0-.128-.748zm.83-1.186c.776.684 2.2-2.491 2.62-2.774a.539.539 0 0 0-.129-.748c-.784-.684-2.199 2.49-2.618 2.774a.549.549 0 0 0 .127.748zm5.375-6.67c.41-.557-.484-1.195-.876-.62-.164.483-1.971 2.062-1.159 2.563.748.612 1.642-1.633 2.035-1.943zm-2.738 7.847c-.045.456-4.963 6.031-3.877 6.414.702.922 4.361-5.62 4.753-5.794.411-.556-.483-1.195-.876-.62zm3.87-5.475c-.11.511-3.213 3.614-2.255 4.125.785.739 2.701-3.24 3.14-3.504.4-.566-.484-1.196-.886-.62zm2.527-3.576c-.183.456-1.68 1.724-.913 2.217.712.565 1.424-1.278 1.789-1.597.41-.566-.475-1.204-.876-.62z"/></g></svg>