<svg version="1.2" baseProfile="tiny" xmlns="http://www.w3.org/2000/svg" viewBox="0 0 75 75" overflow="visible" xml:space="preserve"><path fill="#FDD700" d="M0 0h75v75H0z"/><path fill="#010101" d="M34.1 68.9v-1.3c3.2-4.5 4.2-5.4 4.2-7.3 0-.9-.4-1.5-1.4-1.5-1.1 0-1.3.9-1.3 1.8h-1.5c-.1-1.8.8-3 2.7-3 2 0 3 .9 3 2.9 0 2.5-1.2 3.3-4.1 7.1h4.4v1.3h-6z"/><g transform="matrix(.10526 0 0 .10526 483.175 711.255)" fill="none" stroke="#231F20" stroke-width="5.263" stroke-miterlimit="10"><ellipse cx="-4232.8" cy="-6469.1" rx="160" ry="133.3"/><path d="M-4472.8-6469.1h80M-4072.8-6469.1h80M-4232.8-6669.1v66.7M-4232.8-6335.8v66.7M-4402.5-6610.5l56.6 47.1M-4119.7-6374.8l56.6 47.1M-4412.2-6335.8l56.6-47.1M-4129.4-6571.5l56.6-47.1"/></g></svg>