<svg version="1.2" baseProfile="tiny" xmlns="http://www.w3.org/2000/svg" viewBox="0 0 75 75" overflow="visible" xml:space="preserve"><path fill="#FDD700" d="M-74.9 0h75v75h-75zM.1 0h75v75H.1z"/><path fill="#010101" d="M38.1 68.9h-1.5v-9.5l-1.7 1.1v-1.4c.4-.2 1.4-1 1.9-1.3h1.3v11.1z"/><g transform="matrix(.10526 0 0 .10526 1083.175 823.755)" fill="none" stroke="#231F20" stroke-width="5.263" stroke-miterlimit="10"><ellipse cx="-9932" cy="-7537.9" rx="160" ry="133.3"/><path d="M-10172-7537.9h80M-9772-7537.9h80M-9932-7737.9v66.7M-9932-7404.6v66.7M-10101.7-7679.3l56.6 47.1M-9818.9-7443.6l56.6 47.1M-10111.4-7404.6l56.6-47.1M-9828.6-7640.3l56.6-47.1"/></g></svg>