<svg version="1.2" baseProfile="tiny" xmlns="http://www.w3.org/2000/svg" viewBox="0 0 75 75" overflow="visible" xml:space="preserve"><path fill="#FDD700" d="M-74.9 0h75v75h-75zM.1 0h75v75H.1z"/><path fill="#010101" d="M38.1 68.9h-1.5v-9.5l-1.7 1.1v-1.4c.4-.2 1.4-1 1.9-1.3h1.3v11.1z"/><g transform="matrix(.10526 0 0 .10526 1383.175 898.755)" fill="none" stroke="#231F20" stroke-width="5.263" stroke-miterlimit="10"><ellipse cx="-12782.2" cy="-8250.4" rx="160" ry="133.3"/><path d="M-13022.2-8250.4h80M-12622.2-8250.4h80M-12782.2-8450.4v66.7M-12782.2-8117.1v66.7M-12951.9-8391.8l56.6 47.1M-12669.1-8156.1l56.6 47.1M-12961.6-8117.1l56.6-47.1M-12678.8-8352.8l56.6-47.1"/></g></svg>