<svg version="1.2" baseProfile="tiny" xmlns="http://www.w3.org/2000/svg" viewBox="0 0 75 75" overflow="visible" xml:space="preserve"><path fill="#FDD700" d="M0 0h75v75H0z"/><path fill="#010101" d="M34.1 68.9v-1.3c3.2-4.5 4.2-5.4 4.2-7.3 0-.9-.4-1.5-1.4-1.5-1.1 0-1.3.9-1.3 1.8h-1.5c-.1-1.8.8-3 2.7-3 2 0 3 .9 3 2.9 0 2.5-1.2 3.3-4.1 7.1h4.4v1.3h-6z"/><g transform="matrix(.10526 0 0 .10526 108.175 898.755)" fill="none" stroke="#231F20" stroke-width="5.263" stroke-miterlimit="10"><ellipse cx="-670.1" cy="-8250.4" rx="160" ry="133.3"/><path d="M-910.1-8250.4h80M-510.1-8250.4h80M-670.1-8450.4v66.7M-670.1-8117.1v66.7M-839.8-8391.8l56.6 47.1M-557-8156.1l56.6 47.1M-849.5-8117.1l56.6-47.1M-566.7-8352.8l56.6-47.1"/></g></svg>