<svg version="1.2" baseProfile="tiny" xmlns="http://www.w3.org/2000/svg" viewBox="0 0 75 75" overflow="visible" xml:space="preserve"><path fill="#FDD700" d="M-74.9 0h75v75h-75zM.1 0h75v75H.1z"/><path fill="#010101" d="M38.1 68.9h-1.5v-9.5l-1.7 1.1v-1.4c.4-.2 1.4-1 1.9-1.3h1.3v11.1z"/><g transform="matrix(.10526 0 0 .10526 1533.175 898.755)" fill="none" stroke="#231F20" stroke-width="5.263" stroke-miterlimit="10"><ellipse cx="-14207.2" cy="-8250.4" rx="160" ry="133.3"/><path d="M-14447.2-8250.4h80M-14047.2-8250.4h80M-14207.2-8450.4v66.7M-14207.2-8117.1v66.7M-14376.9-8391.8l56.6 47.1M-14094.1-8156.1l56.6 47.1M-14386.6-8117.1l56.6-47.1M-14103.8-8352.8l56.6-47.1"/></g></svg>