<svg version="1.2" baseProfile="tiny" xmlns="http://www.w3.org/2000/svg" viewBox="0 0 75 75" overflow="visible" xml:space="preserve"><path fill="#FDE498" d="M-75 0H0v75h-75zM0 0h75v75H0z"/><path fill="#010101" d="M59.688 19.7v17h-26.5v-17h26.5zm-1.5 1.4h-23.6v14.2h23.6V21.1zm-18.6 11.7h-1.3v-9.2h16.2v9.1h-1.3v-7.8h-6.1v7.8h-1.3v-7.8h-6.1v7.9z"/><g fill="#010101"><path d="M33.788 53.1h-1.8V41.2l-2.1 1.4v-1.8c.5-.2 1.8-1.2 2.3-1.7h1.6v14zM36.488 39.2h7.2v1.6l-3.7 12.3h-2.1l3.9-12.3h-5.3v-1.6z"/></g><g fill="#010101"><path d="M44.688 9.5h1v7.2h-1V9.5zM47.488 9.5h1v7.2h-1V9.5z"/></g><path fill="#010101" d="M24.088 24.1c-.7.6-1.8 1.2-2.6 1.6v-1.6c1-.5 2.1-1.2 2.7-1.7h1.4v11.1h-1.5v-9.4z"/><g fill="#010101"><path d="M26.588 65.5h-1.1v-7.1l-1.2.8v-1.1c.3-.1 1.1-.7 1.4-1h.9v8.4zM28.388 57.2h4.3v1l-2.2 7.4h-1.2l2.3-7.4h-3.2v-1zM36.088 65.5v-8.7h2.6c1.2 0 2.4.4 2.4 2.5 0 2-1.5 2.4-2.4 2.4h-1.5v3.8h-1.1zm1.1-4.7h1.2c.5 0 1.5-.1 1.5-1.5 0-1.3-1-1.5-1.2-1.5h-1.5v3zM45.188 64.7c-.3.7-.8 1-1.5 1-1.3 0-1.7-.8-1.7-2 0-1.8 1.8-1.9 3.2-1.9 0-.8 0-1.7-1-1.7-.7 0-1 .4-.9 1.1h-1.1c0-1.4.8-1.8 2.1-1.8 1.6 0 2 .8 2 1.8v2.9c0 .5 0 1 .1 1.4h-1.1v-.8zm-2.2-1c0 .6.3 1.1.9 1.1.6 0 1.3-.4 1.2-2.3-.9 0-2.1-.1-2.1 1.2zM46.888 59.5h1.1l1.4 5.1 1.5-5.1h1l-1.9 6.1h-1.3l-1.8-6.1z"/></g></svg>