<svg version="1.2" baseProfile="tiny" xmlns="http://www.w3.org/2000/svg" viewBox="0 0 75 75" overflow="visible" xml:space="preserve"><path fill="#FDE498" d="M0 0h75v75H0z"/><path fill="#010101" d="M59.688 19.7v17h-26.5v-17h26.5zm-25.1 2.3v12.5l10.4-6.3-10.4-6.2zm22.3-.9h-20.9l10.4 6.3 10.5-6.3zm-20.9 14.2h20.9l-10.4-6.3-10.5 6.3zm11.8-7.1 10.4 6.3V22l-10.4 6.2z"/><g fill="#010101"><path d="M24.888 53.1h-1.8V38.7h1.8v14.4zM29.488 53.1h-1.8V38.7h1.8v14.4zM31.188 55h-1.3l4.7-16.4h1.3l-4.7 16.4zM40.688 53.1h-1.8V41.2l-2.1 1.4v-1.8c.5-.2 1.8-1.2 2.3-1.7h1.6v14zM43.488 46.2c0-3.7-.1-7.2 3.7-7.2 2.1 0 3.5 1.3 3.4 3.4h-1.8c0-1-.5-2-1.6-2-1.5 0-1.9 1.3-1.9 5 .5-.8 1.3-1.3 2.3-1.3 1.8 0 3.3 1 3.3 4.7 0 2.5-1 4.7-3.7 4.7-3.7-.1-3.7-3.6-3.7-7.3zm3.8 5.7c1.5 0 1.8-1.6 1.8-3.5 0-1.3-.3-2.8-1.9-2.8-1.6 0-1.8 1.8-1.8 3 0 1.4.1 3.3 1.9 3.3z"/></g><g fill="#010101"><path d="M44.688 9.5h1v7.2h-1V9.5zM47.488 9.5h1v7.2h-1V9.5z"/></g><path fill="#010101" d="M24.088 24.1c-.7.6-1.8 1.2-2.6 1.6v-1.6c1-.5 2.1-1.2 2.7-1.7h1.4v11.1h-1.5v-9.4z"/><g fill="#010101"><path d="M27.788 57.2v1h-2.8v2.4c.2-.4.8-.6 1.3-.6 1.2 0 1.7.9 1.7 2.8 0 1.3-.2 2.9-2.3 2.9-1.7 0-2.1-.9-2.1-2.1h1.1c0 .6.3 1.3 1 1.3 1 0 1.1-1 1.1-1.8 0-1.2 0-2.2-1.1-2.2-.6 0-.9.4-1 1h-1v-4.7h4.1zM32.588 57.2v1h-2.8v2.4c.2-.4.8-.6 1.3-.6 1.2 0 1.7.9 1.7 2.8 0 1.3-.2 2.9-2.3 2.9-1.7 0-2.1-.9-2.1-2.1h1.1c0 .6.3 1.3 1 1.3 1 0 1.1-1 1.1-1.8 0-1.2 0-2.2-1.1-2.2-.6 0-.9.4-1 1h-1v-4.7h4.1zM36.788 63v.3c0 1.2.7 1.5 1.5 1.5.9 0 1.5-.4 1.5-1.4 0-1.9-3.9-1.7-3.9-4.3 0-1.5 1.1-2.4 2.5-2.4 1.6 0 2.5.8 2.4 2.5h-1.2c0-.9-.3-1.6-1.3-1.6-.7 0-1.3.3-1.3 1.3 0 1.9 3.9 1.6 3.9 4.4 0 1.8-1.3 2.4-2.7 2.4-2.6 0-2.6-1.9-2.5-2.8h1.1zM45.188 64.7c-.3.7-.8 1-1.5 1-1.3 0-1.7-.8-1.7-2 0-1.8 1.8-1.9 3.2-1.9 0-.8 0-1.7-1-1.7-.7 0-1 .4-.9 1.1h-1.1c0-1.4.8-1.8 2.1-1.8 1.6 0 2 .8 2 1.8v2.9c0 .5 0 1 .1 1.4h-1.1v-.8zm-2.2-1c0 .6.3 1.1.9 1.1.6 0 1.3-.4 1.2-2.3-.9 0-2.1-.1-2.1 1.2zM46.888 59.5h1.1l1.4 5.1 1.5-5.1h1l-1.9 6.1h-1.3l-1.8-6.1z"/></g></svg>