<svg version="1.2" baseProfile="tiny" xmlns="http://www.w3.org/2000/svg" viewBox="0 0 75 75" overflow="visible" xml:space="preserve"><path fill="#FDE498" d="M0 0h75v75H0z"/><path fill="#FDD700" d="M-.012 18.7h75v18.8h-75z"/><path fill="#010101" d="M59.688 19.7v17h-26.5v-17h26.5zm-25.1 2.3v12.5l10.4-6.3-10.4-6.2zm22.3-.9h-20.9l10.4 6.3 10.5-6.3zm-20.9 14.2h20.9l-10.4-6.3-10.5 6.3zm11.8-7.1 10.4 6.3V22l-10.4 6.2z"/><g fill="#010101"><path d="M16.388 46.2c0-3.7-.1-7.2 3.7-7.2 2.1 0 3.5 1.3 3.4 3.4h-1.8c0-1-.5-2-1.6-2-1.5 0-1.9 1.3-1.9 5 .5-.8 1.3-1.3 2.3-1.3 1.8 0 3.3 1 3.3 4.7 0 2.5-1 4.7-3.7 4.7-3.7-.1-3.7-3.6-3.7-7.3zm3.8 5.7c1.5 0 1.8-1.6 1.8-3.5 0-1.3-.3-2.8-1.9-2.8-1.6 0-1.8 1.8-1.8 3 0 1.4.1 3.3 1.9 3.3zM29.288 53.1h-1.8V41.2l-2.1 1.4v-1.8c.5-.2 1.8-1.2 2.3-1.7h1.6v14zM38.688 48.8v.4c0 2 1.2 2.6 2.4 2.6 1.5 0 2.6-.6 2.6-2.3 0-3.2-6.5-2.8-6.5-7.2 0-2.6 1.8-3.9 4.2-3.9 2.6 0 4.1 1.3 4 4.2h-1.9c0-1.6-.5-2.6-2.2-2.6-1.1 0-2.2.6-2.2 2.1 0 3.2 6.5 2.7 6.5 7.3 0 3-2.1 4-4.5 4-4.3 0-4.3-3.2-4.2-4.6h1.8zM48.888 44.5c.7-1.5 1.6-1.7 3.2-1.7v1.7c-.1 0-.3 0-.4-.1h-.4c-1.8 0-2.3 1.4-2.3 2.7v6h-1.6V43h1.6v1.5z"/><path d="M52.988 43v-1.9l1.6-.7v2.7h2.2v1.2h-2.2v6.2c0 .6 0 1.5 1.5 1.5.1 0 .4 0 .7-.1v1.3c-.5 0-1.1.2-1.6.2-1.6 0-2.3-.6-2.3-1.8v-7.2h-1.7v-1.2h1.8z"/></g><g fill="#010101"><path d="m41.088 9.5 1.9 2.8 1.9-2.8h1.2l-2.6 3.5 2.7 3.8h-1.3l-2.1-3.1-2.2 3.1h-1.2l2.8-3.8-2.5-3.4h1.4zM48.288 9.5l1.9 2.8 1.9-2.8h1.2l-2.6 3.5 2.7 3.8h-1.3l-2.1-3.1-2.2 3.1h-1.2l2.8-3.8-2.5-3.4h1.4z"/></g><g fill="#010101"><path d="M12.088 35.4c-.9-2.1-1.9-4.8-1.9-7.1 0-1.3.3-2.5.7-3.7.4-1.4.9-2.5 1.1-3.2h1.1c-.3.8-.6 1.9-.9 3.4-.3 1.5-.4 2.5-.4 3.5 0 2.3.6 4.1 1.5 7.2h-1.2zM16.988 30.8c0 1.1 1 1.6 1.8 1.6 1.9 0 2.2-1.8 2.2-2.5 0-1.5-.8-2.4-2.1-2.4-.6 0-1.2.2-1.5.6-.3.3-.4.7-.5.9h-1.5l.3-6.6h6.2v1.3h-4.8l-.2 3.6c.3-.3 1-1 2.3-1 2.2 0 3.3 1.7 3.3 3.6 0 2.2-1.5 3.8-4 3.8-1.8 0-3.2-1-3.3-2.9h1.8zM25.488 21.4c.9 2.1 1.9 4.8 1.9 7.1 0 1.3-.3 2.5-.7 3.7-.4 1.4-.9 2.5-1.1 3.2h-1.1c.3-.8.6-1.9.9-3.4.3-1.5.4-2.5.4-3.5 0-2.3-.6-4.1-1.5-7.1h1.2z"/></g><path fill="#010101" d="M36.288 61.8h2.6v.9h-2.6v-.9z"/></svg>