<svg version="1.2" baseProfile="tiny" xmlns="http://www.w3.org/2000/svg" viewBox="0 0 75 75" overflow="visible" xml:space="preserve"><path fill="#FDE498" d="M0 0h75v75H0z"/><path fill="#010101" d="M59.688 19.7v17h-26.5v-17h26.5zm-25.1 1.4v13.4l22.3-13.4h-22.3zm9.3 10.6c0-.5.1-.9.3-1.3l-8.2 4.9h11.4c-1.9 0-3.5-1.6-3.5-3.6zm5.8 0c0-1.2-1-2.2-2.2-2.2-1.2 0-2.2 1-2.2 2.2 0 1.2 1 2.2 2.2 2.2s2.2-1 2.2-2.2zm-2.1 3.6h7c-1.9 0-3.5-1.6-3.5-3.6 0 2-1.6 3.6-3.5 3.6zm10.6-3.6v-9.8l-10.4 6.2c1.8.2 3.2 1.7 3.2 3.5 0-2 1.6-3.6 3.6-3.6 2 .2 3.6 1.8 3.6 3.7zm-3.5 2.2c1.2 0 2.2-1 2.2-2.2s-1-2.2-2.2-2.2c-1.2 0-2.2 1-2.2 2.2 0 1.2 1 2.2 2.2 2.2zm3.5-2.2c0 2-1.6 3.5-3.5 3.6h3.5v-3.6z"/><g fill="#010101"><path d="M14.188 46.2c0-3.7-.1-7.2 3.7-7.2 2.1 0 3.5 1.3 3.4 3.4h-1.8c0-1-.5-2-1.6-2-1.5 0-1.9 1.3-1.9 5 .5-.8 1.3-1.3 2.3-1.3 1.8 0 3.3 1 3.3 4.7 0 2.5-1 4.7-3.7 4.7-3.8-.1-3.7-3.6-3.7-7.3zm3.8 5.7c1.5 0 1.8-1.6 1.8-3.5 0-1.3-.3-2.8-1.9-2.8-1.6 0-1.8 1.8-1.8 3 0 1.4.1 3.3 1.9 3.3zM27.088 53.1h-1.8V41.2l-2.1 1.4v-1.8c.5-.2 1.8-1.2 2.3-1.7h1.6v14zM35.188 53.1V38.7h4.7c2 0 2.7.7 3.2 1.5s.6 1.6.6 1.9c0 1.8-.6 3-2.5 3.4v.1c2.1.2 3 1.5 3 3.5 0 3.7-2.7 4.1-4.3 4.1h-4.7zm1.9-8.3h2.7c1.4 0 2.1-.9 2.1-2.3 0-1.2-.7-2.2-2.2-2.2h-2.6v4.5zm0 6.7h2.6c2 0 2.7-1.4 2.7-2.5 0-2.3-1.4-2.7-3.3-2.7h-2v5.2zM47.788 44.5c.7-1.5 1.6-1.7 3.2-1.7v1.7c-.1 0-.3 0-.4-.1h-.4c-1.8 0-2.3 1.4-2.3 2.7v6h-1.6V43h1.6v1.5zM54.688 53.3c-2.2 0-3.5-1-3.5-3.3h1.9c0 .6 0 1.9 1.7 1.9 1 0 1.7-.5 1.7-1.5 0-1.8-5-1.8-5-4.9 0-1.1.6-2.8 3.5-2.8 1.8 0 3.3.9 3.2 2.9h-1.8c0-1.1-.5-1.6-1.6-1.6-.9 0-1.6.5-1.6 1.4 0 1.8 5 1.7 5 4.8 0 2.3-1.5 3.1-3.5 3.1z"/></g><path fill="#010101" d="M46.088 9.5h1v7.2h-1V9.5zM24.088 22.1c3.3 0 3.7 3.6 3.7 5.6 0 2.6-.5 4.1-1.5 5-.8.7-1.7.8-2.2.8-1.5 0-2.5-.9-3-1.8-.4-.7-.7-1.8-.7-3.8 0-1.5.2-5.8 3.7-5.8zm0 10.2c1.9 0 2.2-2.4 2.2-4.4 0-2.7-.5-4.5-2.1-4.5-1.9 0-2.2 2.5-2.2 4.5 0 2.5.4 4.4 2.1 4.4z"/><g fill="#010101"><path d="M25.588 61.4c0-2.2 0-4.3 2.2-4.3 1.2 0 2.1.8 2.1 2h-1.1c0-.6-.3-1.2-1-1.2-.9 0-1.1.8-1.1 3 .3-.5.8-.8 1.4-.8 1.1 0 2 .6 2 2.8 0 1.5-.6 2.8-2.2 2.8-2.3 0-2.3-2.1-2.3-4.3zm2.3 3.4c.9 0 1.1-1 1.1-2.1 0-.8-.2-1.7-1.1-1.7-1 0-1.1 1.1-1.1 1.8-.1.9 0 2 1.1 2zM33.488 65.5h-1.1v-7.1l-1.2.8v-1.1c.3-.1 1.1-.7 1.4-1h.9v8.4zM38.788 63v.3c0 1.2.7 1.5 1.5 1.5.9 0 1.5-.4 1.5-1.4 0-1.9-3.9-1.7-3.9-4.3 0-1.5 1.1-2.4 2.5-2.4 1.6 0 2.5.8 2.4 2.5h-1.2c0-.9-.3-1.6-1.3-1.6-.7 0-1.3.3-1.3 1.3 0 1.9 3.9 1.6 3.9 4.4 0 1.8-1.3 2.4-2.7 2.4-2.6 0-2.6-1.9-2.5-2.8h1.1zM45.088 60.4c.4-.9.9-1 1.9-1v1h-.6c-1.1 0-1.4.8-1.4 1.6v3.6h-1v-6.1h1v.9z"/><path d="M47.688 59.5v-1.2l1-.4v1.6h1.3v.7h-1.3v3.7c0 .4 0 .9.9.9h.4v.8c-.3 0-.6.1-1 .1-.9 0-1.4-.4-1.4-1.1v-4.3h-1v-.7h1.1z"/></g></svg>