<svg version="1.2" baseProfile="tiny" xmlns="http://www.w3.org/2000/svg" viewBox="0 0 75 75" overflow="visible" xml:space="preserve"><path fill="#FDE498" d="M0 0h75v75H0z"/><path fill="#010101" d="M59.688 19.7v17h-26.5v-17h26.5zm-1.5 1.4h-23.6v14.2h23.6V21.1zm-14.5 7.1c0-1.4 1.2-2.6 2.8-2.6s2.8 1.2 2.8 2.6c0 1.4-1.2 2.6-2.8 2.6s-2.8-1.1-2.8-2.6z"/><g fill="#010101"><path d="M28.488 49.7v-1.6l3.9-8.9h2.4v8.9h1.6v1.6h-1.6v3.4h-1.7v-3.4h-4.6zm4.7-1.6v-7.2l-3 7.2h3zM39.288 45c1.7.1 2.8-.5 2.8-2.3 0-1.3-.6-2.2-1.9-2.2-1.5 0-1.8 1.1-1.7 2.3h-1.8c-.1-2.4 1-3.8 3.6-3.8 2.4 0 3.8 1.2 3.8 3.6 0 2.6-1.9 3-2.7 3.2 2.2.3 2.9 1.5 2.9 3.5 0 2.7-1.5 4-4.1 4-3.9 0-3.6-3.3-3.6-4.1h1.8c0 1.4.2 2.6 1.9 2.6 1.6 0 2.1-1 2.1-2.5 0-2.2-.8-2.7-3-2.7V45z"/></g><g fill="#010101"><path d="M43.288 9.5h1v7.2h-1V9.5zM46.088 9.5h1v7.2h-1V9.5zM48.788 9.5h1v7.2h-1V9.5z"/></g><path fill="#010101" d="M24.088 24.1c-.7.6-1.8 1.2-2.6 1.6v-1.6c1-.5 2.1-1.2 2.7-1.7h1.4v11.1h-1.5v-9.4z"/><g fill="#010101"><path d="M25.588 61.4c0-2.2 0-4.3 2.2-4.3 1.2 0 2.1.8 2.1 2h-1.1c0-.6-.3-1.2-1-1.2-.9 0-1.1.8-1.1 3 .3-.5.8-.8 1.4-.8 1.1 0 2 .6 2 2.8 0 1.5-.6 2.8-2.2 2.8-2.3 0-2.3-2.1-2.3-4.3zm2.3 3.4c.9 0 1.1-1 1.1-2.1 0-.8-.2-1.7-1.1-1.7-1 0-1.1 1.1-1.1 1.8-.1.9 0 2 1.1 2zM33.488 65.5h-1.1v-7.1l-1.2.8v-1.1c.3-.1 1.1-.7 1.4-1h.9v8.4zM38.788 63v.3c0 1.2.7 1.5 1.5 1.5.9 0 1.5-.4 1.5-1.4 0-1.9-3.9-1.7-3.9-4.3 0-1.5 1.1-2.4 2.5-2.4 1.6 0 2.5.8 2.4 2.5h-1.2c0-.9-.3-1.6-1.3-1.6-.7 0-1.3.3-1.3 1.3 0 1.9 3.9 1.6 3.9 4.4 0 1.8-1.3 2.4-2.7 2.4-2.6 0-2.6-1.9-2.5-2.8h1.1zM45.088 60.4c.4-.9.9-1 1.9-1v1h-.6c-1.1 0-1.4.8-1.4 1.6v3.6h-1v-6.1h1v.9z"/><path d="M47.688 59.5v-1.2l1-.4v1.6h1.3v.7h-1.3v3.7c0 .4 0 .9.9.9h.4v.8c-.3 0-.6.1-1 .1-.9 0-1.4-.4-1.4-1.1v-4.3h-1v-.7h1.1z"/></g></svg>