<svg version="1.2" baseProfile="tiny" xmlns="http://www.w3.org/2000/svg" viewBox="0 0 75 75" overflow="visible" xml:space="preserve"><path fill="#FDE498" d="M0 0h75v75H0z"/><path fill="#FDD700" d="M-.012 18.8h75v18.8h-75z"/><path fill="#010101" d="M59.688 19.7v17h-26.5v-17h26.5zm-25.1 2.3v12.5l10.4-6.3-10.4-6.2zm22.3-.9h-20.9l10.4 6.3 10.5-6.3zm-20.9 14.2h20.9l-10.4-6.3-10.5 6.3zm11.8-7.1 10.4 6.3V22l-10.4 6.2z"/><g fill="#010101"><path d="M9.188 46.2c0-3.7-.1-7.2 3.7-7.2 2.1 0 3.5 1.3 3.4 3.4h-1.8c0-1-.5-2-1.6-2-1.5 0-1.9 1.3-1.9 5 .5-.8 1.3-1.3 2.3-1.3 1.8 0 3.3 1 3.3 4.7 0 2.5-1 4.7-3.7 4.7-3.8-.1-3.7-3.6-3.7-7.3zm3.8 5.7c1.5 0 1.8-1.6 1.8-3.5 0-1.3-.3-2.8-1.9-2.8-1.6 0-1.8 1.8-1.8 3 0 1.4.1 3.3 1.9 3.3zM17.188 53.1v-1.6c4.1-5.7 5.3-6.7 5.3-9.1 0-1.1-.5-1.8-1.7-1.8-1.4 0-1.6 1.1-1.6 2.3h-1.9c-.2-2.3 1-3.8 3.4-3.8 2.5 0 3.7 1.1 3.7 3.6 0 3.1-1.6 4.1-5.1 8.9h5.5v1.6h-7.6zM31.788 53.1h-1.7V38.7h3l3.6 12.1 3.7-12.1h3v14.4h-1.8V40.3l-4 12.8h-1.7l-4-12.8v12.8zM47.188 44.5c.7-1.5 1.6-1.7 3.2-1.7v1.7c-.1 0-.3 0-.4-.1h-.4c-1.8 0-2.3 1.4-2.3 2.7v6h-1.6V43h1.6v1.5zM56.088 53.1v-7c0-1-.3-2-1.6-2-.5 0-1.2.3-1.4.7-.3.5-.4 1.1-.4 1.5v6.8h-1.6v-8c0-.7 0-1.4-.1-2.1h1.7v1.3c.5-1.1 1.3-1.5 2.5-1.5.9 0 2 .4 2.4 1.3.6-1.1 1.5-1.3 2.4-1.3 1.1 0 2.8.2 2.8 2.6v7.7h-1.6v-7c0-1-.3-2-1.6-2-.6 0-.8 0-1.2.4-.5.4-.6 1.4-.6 1.8v6.8h-1.7z"/></g><g fill="#010101"><path d="m41.088 9.5 1.9 2.8 1.9-2.8h1.2l-2.6 3.5 2.7 3.8h-1.3l-2.1-3.1-2.2 3.1h-1.2l2.8-3.8-2.5-3.4h1.4zM48.288 9.5l1.9 2.8 1.9-2.8h1.2l-2.6 3.5 2.7 3.8h-1.3l-2.1-3.1-2.2 3.1h-1.2l2.8-3.8-2.5-3.4h1.4z"/></g><g fill="#010101"><path d="M12.088 35.4c-.9-2.1-1.9-4.8-1.9-7.1 0-1.3.3-2.5.7-3.7.4-1.4.9-2.5 1.1-3.2h1.1c-.3.8-.6 1.9-.9 3.4-.3 1.5-.4 2.5-.4 3.5 0 2.3.6 4.1 1.5 7.2h-1.2zM16.988 30.8c0 1.1 1 1.6 1.8 1.6 1.9 0 2.2-1.8 2.2-2.5 0-1.5-.8-2.4-2.1-2.4-.6 0-1.2.2-1.5.6-.3.3-.4.7-.5.9h-1.5l.3-6.6h6.2v1.3h-4.8l-.2 3.6c.3-.3 1-1 2.3-1 2.2 0 3.3 1.7 3.3 3.6 0 2.2-1.5 3.8-4 3.8-1.8 0-3.2-1-3.3-2.9h1.8zM25.488 21.4c.9 2.1 1.9 4.8 1.9 7.1 0 1.3-.3 2.5-.7 3.7-.4 1.4-.9 2.5-1.1 3.2h-1.1c.3-.8.6-1.9.9-3.4.3-1.5.4-2.5.4-3.5 0-2.3-.6-4.1-1.5-7.1h1.2z"/></g><g fill="#010101"><path d="M21.288 61.4c0-2.2 0-4.3 2.2-4.3 1.2 0 2.1.8 2.1 2h-1.1c0-.6-.3-1.2-1-1.2-.9 0-1.1.8-1.1 3 .3-.5.8-.8 1.4-.8 1.1 0 2 .6 2 2.8 0 1.5-.6 2.8-2.2 2.8-2.3 0-2.3-2.1-2.3-4.3zm2.3 3.4c.9 0 1.1-1 1.1-2.1 0-.8-.2-1.7-1.1-1.7-1 0-1.1 1.1-1.1 1.8-.1.9 0 2 1.1 2zM26.188 65.5v-1c2.4-3.4 3.2-4 3.2-5.5 0-.7-.3-1.1-1-1.1-.8 0-1 .7-1 1.4h-1.1c-.1-1.4.6-2.3 2-2.3 1.5 0 2.2.7 2.2 2.2 0 1.9-.9 2.5-3.1 5.3h3.3v1h-4.5zM34.688 65.5h-1v-8.7h1.8l2.2 7.3 2.2-7.3h1.8v8.7h-1.1v-7.7l-2.4 7.7h-1l-2.4-7.7v7.7zM44.088 60.4c.4-.9.9-1 1.9-1v1h-.6c-1.1 0-1.4.8-1.4 1.6v3.6h-1v-6.1h1v.9zM49.488 65.5v-4.2c0-.6-.2-1.2-1-1.2-.3 0-.7.2-.9.4-.2.3-.2.7-.2.9v4.1h-1v-4.8c0-.4 0-.8-.1-1.3h1v.8c.3-.6.8-.9 1.5-.9.6 0 1.2.2 1.4.8.3-.6.9-.8 1.4-.8.6 0 1.7.1 1.7 1.6v4.6h-1v-4.2c0-.6-.2-1.2-1-1.2-.4 0-.5 0-.7.2-.3.2-.3.8-.3 1.1v4.1h-.8z"/></g></svg>