<svg version="1.2" baseProfile="tiny" xmlns="http://www.w3.org/2000/svg" viewBox="0 0 75 75" overflow="visible" xml:space="preserve"><path fill="#FDE498" d="M0 0h75v75H0z"/><path fill="#010101" d="M59.688 19.7v17h-26.5v-17h26.5zm-15.3 8.9v-.7l-9.8-5.9v12.5l9.9-5.9h-.1zm12.5-7.5h-20.9l9.6 5.7v-1.5h-1.2l2.1-3.3 2.1 3.3h-1.2v1.5l9.5-5.7zm-12.5 10.3v-1.1l-8.4 5h20.9l-8.4-5v1.1h-1.2v2.9h-1.7v-2.9h-1.2zm1.2-1.8-1 .6h1v-.6zm1.7.6h1l-1-.6v.6zm10.9 4.3V22l-9.8 5.9v.7h-.1l9.9 5.9z"/><g fill="#010101"><path d="M28.788 46.2c0-3.7-.1-7.2 3.7-7.2 2.1 0 3.5 1.3 3.4 3.4h-1.8c0-1-.5-2-1.6-2-1.5 0-1.9 1.3-1.9 5 .5-.8 1.3-1.3 2.3-1.3 1.8 0 3.3 1 3.3 4.7 0 2.5-1 4.7-3.7 4.7-3.8-.1-3.7-3.6-3.7-7.3zm3.8 5.7c1.5 0 1.8-1.6 1.8-3.5 0-1.3-.3-2.8-1.9-2.8-1.6 0-1.8 1.8-1.8 3-.1 1.4.1 3.3 1.9 3.3zM36.388 49.7v-1.6l3.9-8.9h2.4v8.9h1.6v1.6h-1.6v3.4h-1.7v-3.4h-4.6zm4.7-1.6v-7.2l-3 7.2h3z"/></g><g fill="#010101"><path d="M44.688 9.5h1v7.2h-1V9.5zM47.488 9.5h1v7.2h-1V9.5z"/></g><path fill="#010101" d="M24.088 24.1c-.7.6-1.8 1.2-2.6 1.6v-1.6c1-.5 2.1-1.2 2.7-1.7h1.4v11.1h-1.5v-9.4z"/><g fill="#010101"><path d="M24.588 61.4c0-2.2 0-4.3 2.2-4.3 1.2 0 2.1.8 2.1 2h-1.1c0-.6-.3-1.2-1-1.2-.9 0-1.1.8-1.1 3 .3-.5.8-.8 1.4-.8 1.1 0 2 .6 2 2.8 0 1.5-.6 2.8-2.2 2.8-2.3 0-2.3-2.1-2.3-4.3zm2.3 3.4c.9 0 1.1-1 1.1-2.1 0-.8-.2-1.7-1.1-1.7-1 0-1.1 1.1-1.1 1.8-.1.9 0 2 1.1 2zM29.288 63.5v-1l2.4-5.3h1.5v5.3h1v1h-1v2h-1v-2h-2.9zm2.8-1v-4.3l-1.8 4.3h1.8zM40.788 59.3c0-.5 0-1-.3-1.3-.2-.3-.7-.4-1-.4-.9 0-1.3.6-1.3.7 0 .1-.3.3-.3 1.8v2.3c0 2.1.7 2.4 1.5 2.4.3 0 1.4-.1 1.4-1.8h1.1c0 2.7-1.9 2.7-2.4 2.7-1.1 0-2.7-.1-2.7-3.4v-2.4c0-2.4 1.1-3.1 2.8-3.1 1.7 0 2.4.9 2.3 2.6h-1.1zM46.188 64.7c-.3.7-.8 1-1.5 1-1.3 0-1.7-.8-1.7-2 0-1.8 1.8-1.9 3.2-1.9 0-.8 0-1.7-1-1.7-.7 0-1 .4-.9 1.1h-1.1c0-1.4.8-1.8 2.1-1.8 1.6 0 2 .8 2 1.8v2.9c0 .5 0 1 .1 1.4h-1.1v-.8zm-2.2-1c0 .6.3 1.1.9 1.1.6 0 1.3-.4 1.2-2.3-.9 0-2.1-.1-2.1 1.2zM48.688 59.5v-1.2l1-.4v1.6h1.3v.7h-1.3v3.7c0 .4 0 .9.9.9h.4v.8c-.3 0-.6.1-1 .1-.9 0-1.4-.4-1.4-1.1v-4.3h-1v-.8h1.1z"/></g></svg>