<svg version="1.2" baseProfile="tiny" xmlns="http://www.w3.org/2000/svg" viewBox="0 0 75 75" overflow="visible" xml:space="preserve"><path fill="#FDD700" d="M-75.012 18.7h75v18.8h-75z"/><path fill="#FDE498" d="M0 0h75v75H0z"/><path fill="#FDD700" d="M-.012 18.7h75v18.8h-75z"/><path fill="#010101" d="M59.688 19.7v17h-26.5v-17h26.5zm-21 4.7-4.1-2.5v12.5l4.1-2.5c-.4-.2-.8-.5-1.2-.8-.8-.8-1.2-1.9-1.2-3 0-1.6 1-3 2.4-3.7zm18.2-3.3h-20.9l4.7 2.8h11.4l4.8-2.8zm-20.9 14.2h20.9l-4.7-2.8h-11.4l-4.8 2.8zm4.3-9.9c-1.5.1-2.6 1.3-2.6 2.8 0 .8.3 1.5.8 2s1.1.8 1.8.8l4.7-2.8-4.7-2.8zm2.8 5.7h6.7l-3.4-2-3.3 2zm3.3-3.7 3.3-2h-6.7l3.4 2zm6.1 3.7c1.5-.1 2.6-1.3 2.6-2.8 0-1.5-1.1-2.7-2.6-2.9l-4.7 2.8 4.7 2.9zm1.7.9 4.1 2.5V22l-4.1 2.5c1.4.7 2.4 2.2 2.4 3.9-.1 1.6-1.1 3-2.4 3.6z"/><g fill="#010101"><path d="M25.588 46.2c0 3.6 0 7.2-3.7 7.2-2.1 0-3.5-1.4-3.4-3.6h1.8c0 1 .4 2.1 1.6 2.1 1.8 0 1.9-2 1.9-5.5-.4 1-1.3 1.3-2.4 1.3-1.1 0-3.2-.6-3.2-4.4 0-3.1 1.9-4.3 3.7-4.3 3.7 0 3.7 3.5 3.7 7.2zm-5.7-3c0 1.4.3 2.9 1.9 2.9s1.9-1.5 1.9-2.9c0-1.3-.3-2.9-1.9-2.9s-1.9 1.7-1.9 2.9zM31.288 53.1V38.7h4.7c2 0 2.7.7 3.2 1.5s.6 1.6.6 1.9c0 1.8-.6 3-2.5 3.4v.1c2.1.2 3 1.5 3 3.5 0 3.7-2.7 4.1-4.3 4.1h-4.7zm1.8-8.3h2.7c1.4 0 2.1-.9 2.1-2.3 0-1.2-.7-2.2-2.2-2.2h-2.6v4.5zm0 6.7h2.6c2 0 2.7-1.4 2.7-2.5 0-2.3-1.4-2.7-3.3-2.7h-2v5.2zM43.788 44.5c.7-1.5 1.6-1.7 3.2-1.7v1.7c-.1 0-.3 0-.4-.1h-.4c-1.8 0-2.3 1.4-2.3 2.7v6h-1.6V43h1.6v1.5zM50.788 53.3c-2.2 0-3.5-1-3.5-3.3h1.9c0 .6 0 1.9 1.7 1.9 1 0 1.7-.5 1.7-1.5 0-1.8-5-1.8-5-4.9 0-1.1.6-2.8 3.5-2.8 1.8 0 3.3.9 3.2 2.9h-1.8c0-1.1-.5-1.6-1.6-1.6-.9 0-1.6.5-1.6 1.4 0 1.8 5 1.7 5 4.8 0 2.3-1.5 3.1-3.5 3.1z"/></g><g fill="#010101"><path d="M43.288 9.5h1v7.2h-1V9.5zM46.088 9.5h1v7.2h-1V9.5zM48.788 9.5h1v7.2h-1V9.5z"/></g><g fill="#010101"><path d="M12.088 35.4c-.9-2.1-1.9-4.8-1.9-7.1 0-1.3.3-2.5.7-3.7.4-1.4.9-2.5 1.1-3.2h1.1c-.3.8-.6 1.9-.9 3.4-.3 1.5-.4 2.5-.4 3.5 0 2.3.6 4.1 1.5 7.2h-1.2zM15.188 32l2.9-2.8c.6-.6 1.2-1.2 1.7-1.9.6-.9.8-1.4.8-2 0-.5-.2-1.8-1.8-1.8-1.8 0-1.8 1.5-1.8 1.9h-1.7c0-.5.1-1.6 1-2.4.8-.7 1.7-.8 2.4-.8 1.7 0 3.4.9 3.4 3.2 0 .7 0 1.2-1.2 2.8-.3.4-1.7 1.9-2 2.2l-1.9 1.8h5.3v1.3h-7V32zM25.488 21.4c.9 2.1 1.9 4.8 1.9 7.1 0 1.3-.3 2.5-.7 3.7-.4 1.4-.9 2.5-1.1 3.2h-1.1c.3-.8.6-1.9.9-3.4.3-1.5.4-2.5.4-3.5 0-2.3-.6-4.1-1.5-7.1h1.2z"/></g><g fill="#010101"><path d="M26.288 65.5h-1.1v-7.1l-1.2.8v-1.1c.3-.1 1.1-.7 1.4-1h.9v8.4zM32.588 61.4c0 2.2 0 4.3-2.2 4.3-2.3 0-2.2-2.1-2.2-4.3 0-2.2 0-4.3 2.2-4.3s2.2 2.1 2.2 4.3zm-3.4.2c0 1.4-.1 3.2 1.1 3.2 1.2 0 1.1-1.8 1.1-3.2 0-2.2 0-3.6-1.1-3.6s-1.1 1.4-1.1 3.6zM35.988 65.5h-1.1v-7.1l-1.2.8v-1.1c.3-.1 1.1-.7 1.4-1h.9v8.4zM45.388 56.9v1h-2.3v7.7h-1.1v-7.7h-2.3v-1h5.7zM46.788 65.6c-1.3 0-2.1-.6-2.1-2h1.1c0 .3 0 1.2 1 1.2.6 0 1-.3 1-.9 0-1.1-3-1.1-3-2.9 0-.6.4-1.7 2.1-1.7 1.1 0 2 .5 1.9 1.7h-1.1c0-.6-.3-1-.9-1-.5 0-.9.3-.9.8 0 1.1 3 1 3 2.9 0 1.4-.9 1.9-2.1 1.9zM49.988 59.5v-1.2l1-.4v1.6h1.3v.7h-1.3v3.7c0 .4 0 .9.9.9h.4v.8c-.3 0-.6.1-1 .1-.9 0-1.4-.4-1.4-1.1v-4.3h-1v-.7h1.1z"/></g></svg>