<svg version="1.2" baseProfile="tiny" xmlns="http://www.w3.org/2000/svg" viewBox="0 0 75 75" overflow="visible" xml:space="preserve"><path fill="#FDE498" d="M0 0h75v75H0z"/><path fill="#010101" d="M59.688 19.7v17h-26.5v-17h26.5zm-13.3 7.7 10.4-6.3h-15.9v3l5.5 3.3zm-1.4.8-4.1-2.5v4.9l4.1-2.4zm-4.1 4.7c0-.2 0-.4.1-.6h-.1v.6zm0 2.4h1c-.6-.6-1-1.5-1-2.4v2.4zm1.5-2.4c0 1.2 1 2.1 2.1 2.1 1.2 0 2.1-1 2.1-2.1 0-1.2-1-2.1-2.1-2.1-1.2 0-2.1.9-2.1 2.1zm5.6 0c0 .9-.4 1.8-1 2.4h9.8l-10.4-6.3-.8.5c1.4.5 2.4 1.8 2.4 3.4zm10.2-5.4V22l-10.4 6.3 4.3 2.6c-.1-.4-.2-.8-.2-1.2 0-2 1.6-3.5 3.5-3.5 1.2-.1 2.2.5 2.8 1.3zm-2.7 4.3c1.2 0 2.1-1 2.1-2.1 0-1.2-1-2.1-2.1-2.1-1.2 0-2.1 1-2.1 2.1-.1 1.1.9 2.1 2.1 2.1zm.5 1.4 2.2 1.3v-2.7c-.5.7-1.3 1.2-2.2 1.4z"/><g fill="#010101"><path d="M29.888 53.1h-1.8V41.2l-2.1 1.4v-1.8c.5-.2 1.8-1.2 2.3-1.7h1.6v14zM40.188 46.2c0 3.6 0 7.2-3.7 7.2-3.8 0-3.7-3.6-3.7-7.2 0-3.7-.1-7.2 3.7-7.2 3.7 0 3.7 3.5 3.7 7.2zm-5.7.4c0 2.3-.1 5.3 1.9 5.3s1.9-2.9 1.9-5.3c0-3.7 0-6-1.9-6s-1.9 2.3-1.9 6zM45.588 53.1h-1.8V41.2l-2.1 1.4v-1.8c.5-.2 1.8-1.2 2.3-1.7h1.6v14z"/></g><g fill="#010101"><path d="M44.688 9.5h1v7.2h-1V9.5zM47.488 9.5h1v7.2h-1V9.5z"/></g><path fill="#010101" d="M24.088 24.1c-.7.6-1.8 1.2-2.6 1.6v-1.6c1-.5 2.1-1.2 2.7-1.7h1.4v11.1h-1.5v-9.4z"/><g fill="#010101"><path d="M26.288 65.5h-1.1v-7.1l-1.2.8v-1.1c.3-.1 1.1-.7 1.4-1h.9v8.4zM32.588 61.4c0 2.2 0 4.3-2.2 4.3-2.3 0-2.2-2.1-2.2-4.3 0-2.2 0-4.3 2.2-4.3s2.2 2.1 2.2 4.3zm-3.4.2c0 1.4-.1 3.2 1.1 3.2 1.2 0 1.1-1.8 1.1-3.2 0-2.2 0-3.6-1.1-3.6s-1.1 1.4-1.1 3.6zM35.988 65.5h-1.1v-7.1l-1.2.8v-1.1c.3-.1 1.1-.7 1.4-1h.9v8.4zM45.388 56.9v1h-2.3v7.7h-1.1v-7.7h-2.3v-1h5.7zM46.788 65.6c-1.3 0-2.1-.6-2.1-2h1.1c0 .3 0 1.2 1 1.2.6 0 1-.3 1-.9 0-1.1-3-1.1-3-2.9 0-.6.4-1.7 2.1-1.7 1.1 0 2 .5 1.9 1.7h-1.1c0-.6-.3-1-.9-1-.5 0-.9.3-.9.8 0 1.1 3 1 3 2.9 0 1.4-.9 1.9-2.1 1.9zM49.988 59.5v-1.2l1-.4v1.6h1.3v.7h-1.3v3.7c0 .4 0 .9.9.9h.4v.8c-.3 0-.6.1-1 .1-.9 0-1.4-.4-1.4-1.1v-4.3h-1v-.7h1.1z"/></g></svg>