<svg version="1.2" baseProfile="tiny" xmlns="http://www.w3.org/2000/svg" viewBox="0 0 75 75" overflow="visible" xml:space="preserve"><path fill="#FDE498" d="M0 0h75v75H0z"/><path fill="#010101" d="M59.688 19.7v17h-26.5v-17h26.5zm-18.8 10c0 .4-.1.8-.2 1.2l4.3-2.6-10.4-6.3v5.5c.6-.8 1.6-1.4 2.8-1.4 1.9 0 3.5 1.6 3.5 3.6zm-6.3 2.1v2.7l2.2-1.3c-.9-.2-1.7-.7-2.2-1.4zm4.9-2.1c0-1.2-1-2.1-2.1-2.1-1.2 0-2.1 1-2.1 2.1 0 1.2 1 2.1 2.1 2.1s2.1-1 2.1-2.1zm17.4-8.6h-20.9l10.4 6.3 10.5-6.3zm-20.9 14.2h20.9l-10.4-6.3-10.5 6.3zm22.2-7.8V22l-10.4 6.3 4.3 2.6c-.1-.4-.2-.8-.2-1.2 0-2 1.6-3.5 3.5-3.5 1.2-.1 2.2.5 2.8 1.3zm-2.7 4.3c1.2 0 2.1-1 2.1-2.1 0-1.2-1-2.1-2.1-2.1-1.2 0-2.1 1-2.1 2.1-.1 1.1.9 2.1 2.1 2.1zm.5 1.4 2.2 1.3v-2.7c-.5.7-1.3 1.2-2.2 1.4z"/><g fill="#010101"><path d="M15.188 53.1h-1.8V41.2l-2.1 1.4v-1.8c.5-.2 1.8-1.2 2.3-1.7h1.6v14zM25.488 46.2c0 3.6 0 7.2-3.7 7.2-3.8 0-3.7-3.6-3.7-7.2 0-3.7-.1-7.2 3.7-7.2 3.8 0 3.7 3.5 3.7 7.2zm-5.6.4c0 2.3-.1 5.3 1.9 5.3s1.9-2.9 1.9-5.3c0-3.7 0-6-1.9-6s-1.9 2.3-1.9 6zM26.088 55h-1.3l4.7-16.4h1.3l-4.7 16.4z"/><path d="M30.388 39.2h7.2v1.6l-3.7 12.3h-2.1l3.9-12.3h-5.3v-1.6zM39.388 53.1V38.7h4.7c2 0 2.7.7 3.2 1.5s.6 1.6.6 1.9c0 1.8-.6 3-2.5 3.4v.1c2.1.2 3 1.5 3 3.5 0 3.7-2.7 4.1-4.3 4.1h-4.7zm1.9-8.3h2.7c1.4 0 2.1-.9 2.1-2.3 0-1.2-.7-2.2-2.2-2.2h-2.6v4.5zm0 6.7h2.6c2 0 2.7-1.4 2.7-2.5 0-2.3-1.4-2.7-3.3-2.7h-2v5.2zM51.988 44.5c.7-1.5 1.6-1.7 3.2-1.7v1.7c-.1 0-.3 0-.4-.1h-.4c-1.8 0-2.3 1.4-2.3 2.7v6h-1.6V43h1.6v1.5zM58.888 53.3c-2.2 0-3.5-1-3.5-3.3h1.9c0 .6 0 1.9 1.7 1.9 1 0 1.7-.5 1.7-1.5 0-1.8-5-1.8-5-4.9 0-1.1.6-2.8 3.5-2.8 1.8 0 3.3.9 3.2 2.9h-1.8c0-1.1-.5-1.6-1.6-1.6-.9 0-1.6.5-1.6 1.4 0 1.8 5 1.7 5 4.8.1 2.3-1.5 3.1-3.5 3.1z"/></g><g fill="#010101"><path d="M44.688 9.5h1v7.2h-1V9.5zM47.488 9.5h1v7.2h-1V9.5z"/></g><path fill="#010101" d="M24.088 24.1c-.7.6-1.8 1.2-2.6 1.6v-1.6c1-.5 2.1-1.2 2.7-1.7h1.4v11.1h-1.5v-9.4z"/><g fill="#010101"><path d="M25.688 65.5h-1.1v-7.1l-1.2.8v-1.1c.3-.1 1.1-.7 1.4-1h.9v8.4zM31.988 61.4c0 2.2 0 4.3-2.2 4.3-2.3 0-2.2-2.1-2.2-4.3 0-2.2 0-4.3 2.2-4.3s2.2 2.1 2.2 4.3zm-3.4.2c0 1.4-.1 3.2 1.1 3.2 1.2 0 1.1-1.8 1.1-3.2 0-2.2 0-3.6-1.1-3.6s-1.1 1.4-1.1 3.6zM32.388 65.5v-1c2.4-3.4 3.2-4 3.2-5.5 0-.7-.3-1.1-1-1.1-.8 0-1 .7-1 1.4h-1.1c-.1-1.4.6-2.3 2-2.3 1.5 0 2.2.7 2.2 2.2 0 1.9-.9 2.5-3.1 5.3h3.3v1h-4.5zM44.688 56.9v1h-2.3v7.7h-1.1v-7.7h-2.3v-1h5.7z"/><path d="M45.288 60.4c.4-.9.9-1 1.9-1v1h-.6c-1.1 0-1.4.8-1.4 1.6v3.6h-1v-6.1h1v.9zM51.088 65.5v-4.2c0-.6-.2-1.2-1.1-1.2-1.1 0-1.2 1-1.2 1.8v3.6h-1v-4.8c0-.4 0-.8-.1-1.3h1v.8c.4-.7.8-.9 1.6-.9 1.3 0 1.6.8 1.6 2v4.2h-.8z"/></g></svg>