<svg version="1.2" baseProfile="tiny" xmlns="http://www.w3.org/2000/svg" viewBox="0 0 75 75" overflow="visible" xml:space="preserve"><path fill="#FDE498" d="M0 0h75v75H0z"/><path fill="#010101" d="M59.688 19.7v17h-26.5v-17h26.5zm-25.1 15.6h4.7c-1.9 0-3.5-1.6-3.5-3.5 0-1.7 1.1-3 2.7-3.4-1.3-.7-2.2-2.1-2.2-3.7 0-1.5.8-2.7 1.9-3.5h-3.6v14.1zm4.7-5.6c-1.2 0-2.1 1-2.1 2.1 0 1.2 1 2.1 2.1 2.1 1.2 0 2.1-1 2.1-2.1s-.9-2.1-2.1-2.1zm15.8-5c0-1.6-1.2-2.9-2.8-2.9h-11.8c-1.5 0-2.8 1.3-2.8 2.8 0 1.6 1.2 2.9 2.8 2.9h11.8c1.6 0 2.8-1.2 2.8-2.8zm-10.8 4.2h-2.9c.9.6 1.4 1.7 1.4 2.8 0 1.9-1.6 3.5-3.5 3.5h7c-1.9 0-3.5-1.6-3.5-3.5.1-1.1.7-2.1 1.5-2.8zm2.1.8c-1.2 0-2.1 1-2.1 2.1 0 1.2 1 2.1 2.1 2.1 1.2 0 2.1-1 2.1-2.1s-.9-2.1-2.1-2.1zm11.8 5.6V21.1h-3.6c1.2.8 1.9 2.1 1.9 3.6 0 1.6-.9 2.9-2.1 3.6 1.5.4 2.7 1.8 2.7 3.4 0 2-1.6 3.5-3.5 3.5s-3.5-1.6-3.5-3.5c0-1.2.6-2.2 1.4-2.8h-2.9c.9.6 1.4 1.7 1.4 2.8 0 1.9-1.6 3.5-3.5 3.5h11.7zm-6.8-3.5c0 1.2 1 2.1 2.1 2.1 1.2 0 2.1-1 2.1-2.1s-1-2.1-2.1-2.1c-1.2 0-2.1.9-2.1 2.1z"/><g fill="#010101"><path d="M5.488 53.1V38.7h1.8v12.8h5.3v1.6h-7.1zM18.388 51.7c-.5 1.2-1.3 1.7-2.6 1.7-2.1 0-2.8-1.4-2.8-3.3 0-3.1 3-3.2 5.3-3.1 0-1.3.1-2.8-1.7-2.8-1.1 0-1.7.7-1.6 1.8h-1.8c.1-2.3 1.3-3 3.4-3 2.6 0 3.3 1.3 3.3 3v4.9c0 .8.1 1.6.2 2.4h-1.8v-1.6zm-3.7-1.6c0 1 .5 1.9 1.6 1.9 1 0 2.2-.6 2.1-3.9-1.6 0-3.7-.1-3.7 2zM27.688 53.1v-7c0-1.1-.4-2-1.8-2-1.8 0-2.1 1.6-2.1 3v6h-1.6v-8c0-.7 0-1.4-.1-2.1h1.7v1.3h.1c.6-1.1 1.4-1.5 2.7-1.5 2.2 0 2.7 1.3 2.7 3.3v7h-1.6zM36.488 46.3c0-1.7-.8-2.1-1.4-2.1-1.3 0-2.1.6-2.1 3.4 0 3.3.4 4.5 2.1 4.5.4 0 1.5-.4 1.5-2.2h1.7c.1 2.8-2.1 3.6-3.2 3.6-2.1 0-3.8-.6-3.8-5.1 0-3 .3-5.4 3.8-5.4 2 0 3.2 1.2 3.1 3.4h-1.7zM50.388 38.7v14.4h-2.5l-5.7-12.5v12.5h-1.6V38.7h2.6l5.6 12.4V38.7h1.6zM52.288 48.2c0-3 .3-5.4 3.8-5.4s3.8 2.4 3.8 5.4c0 4.5-1.7 5.1-3.8 5.1s-3.8-.6-3.8-5.1zm5.9-.7c0-2.8-.9-3.4-2.1-3.4-1.3 0-2.1.6-2.1 3.4 0 3.3.4 4.5 2.1 4.5s2.1-1.2 2.1-4.5zM60.388 43h1.8l2.3 8.6 2.4-8.6h1.7l-3.2 10.1h-2.1l-2.9-10.1z"/></g><g fill="#010101"><path d="M44.688 9.5h1v7.2h-1V9.5zM47.488 9.5h1v7.2h-1V9.5z"/></g><path fill="#010101" d="M24.088 24.1c-.7.6-1.8 1.2-2.6 1.6v-1.6c1-.5 2.1-1.2 2.7-1.7h1.4v11.1h-1.5v-9.4z"/><g fill="#010101"><path d="M23.588 65.5v-8.7h1.1v7.7h3.2v1h-4.3zM28.288 56.9h1.1V58h-1.1v-1.1zm1 8.6h-1v-6.1h1v6.1zM30.588 59.5v-1.2l1-.4v1.6h1.3v.7h-1.3v3.7c0 .4 0 .9.9.9h.4v.8c-.3 0-.6.1-1 .1-.9 0-1.4-.4-1.4-1.1v-4.3h-1v-.7h1.1z"/><path d="M33.488 59.5v-1.2l1-.4v1.6h1.3v.7h-1.3v3.7c0 .4 0 .9.9.9h.4v.8c-.3 0-.6.1-1 .1-.9 0-1.4-.4-1.4-1.1v-4.3h-1v-.7h1.1zM36.088 62.6c0-1.8.2-3.2 2.3-3.2 2.1 0 2.3 1.5 2.3 3.2 0 2.7-1 3.1-2.3 3.1s-2.3-.4-2.3-3.1zm3.5-.4c0-1.7-.5-2-1.3-2s-1.3.4-1.3 2c0 2 .3 2.7 1.3 2.7s1.3-.8 1.3-2.7zM42.788 60.4c.4-.9.9-1 1.9-1v1h-.6c-1.1 0-1.4.8-1.4 1.6v3.6h-1v-6.1h1v.9zM45.188 56.9h1.1V58h-1.1v-1.1zm1 8.6h-1v-6.1h1v6.1zM47.188 62.6c0-1.8.2-3.2 2.3-3.2 2.1 0 2.3 1.5 2.3 3.2 0 2.7-1 3.1-2.3 3.1s-2.3-.4-2.3-3.1zm3.6-.4c0-1.7-.5-2-1.3-2s-1.3.4-1.3 2c0 2 .3 2.7 1.3 2.7s1.3-.8 1.3-2.7z"/></g></svg>