<svg version="1.2" baseProfile="tiny" xmlns="http://www.w3.org/2000/svg" viewBox="0 0 75 75" overflow="visible" xml:space="preserve"><path fill="#FDD700" d="M-75.012 18.8h75v18.8h-75z"/><path fill="#FDE498" d="M0 0h75v75H0z"/><path fill="#010101" d="M59.688 19.7v17h-26.5v-17h26.5zm-13.3 7.7 10.4-6.3h-15.9v3l5.5 3.3zm-5.5 3.3 4.1-2.5-4.1-2.5v5zm0 4.6h15.9l-10.4-6.3-5.5 3.3v3zm6.9-7.1 10.4 6.3V22l-10.4 6.2z"/><g fill="#010101"><path d="M18.688 53.1h-1.8V38.7h1.8v14.4zM23.288 53.1h-1.8V38.7h1.8v14.4zM27.788 53.1h-1.8V38.7h1.8v14.4zM29.488 55h-1.3l4.7-16.4h1.3l-4.7 16.4zM38.988 53.1h-1.8V41.2l-2.1 1.4v-1.8c.5-.2 1.8-1.2 2.3-1.7h1.6v14zM44.488 45c1.7.1 2.8-.5 2.8-2.3 0-1.3-.6-2.2-1.9-2.2-1.5 0-1.8 1.1-1.7 2.3h-1.8c-.1-2.4 1-3.8 3.6-3.8 2.4 0 3.8 1.2 3.8 3.6 0 2.6-1.9 3-2.7 3.2 2.2.3 2.9 1.5 2.9 3.5 0 2.7-1.5 4-4.1 4-3.9 0-3.6-3.3-3.6-4.1h1.8c0 1.4.2 2.6 1.9 2.6 1.6 0 2.1-1 2.1-2.5 0-2.2-.8-2.7-3-2.7V45zM49.688 46.2c0-3.7-.1-7.2 3.7-7.2 2.1 0 3.5 1.3 3.4 3.4h-1.8c0-1-.5-2-1.6-2-1.5 0-1.9 1.3-1.9 5 .5-.8 1.3-1.3 2.3-1.3 1.8 0 3.3 1 3.3 4.7 0 2.5-1 4.7-3.7 4.7-3.7-.1-3.7-3.6-3.7-7.3zm3.8 5.7c1.5 0 1.8-1.6 1.8-3.5 0-1.3-.3-2.8-1.9-2.8-1.6 0-1.8 1.8-1.8 3 0 1.4.2 3.3 1.9 3.3z"/></g><g fill="#010101"><path d="M44.688 9.5h1v7.2h-1V9.5zM47.488 9.5h1v7.2h-1V9.5z"/></g><path fill="#010101" d="M24.088 24.1c-.7.6-1.8 1.2-2.6 1.6v-1.6c1-.5 2.1-1.2 2.7-1.7h1.4v11.1h-1.5v-9.4z"/><g fill="#010101"><path d="M20.788 65.5h-1.1v-7.1l-1.2.8v-1.1c.3-.1 1.1-.7 1.4-1h.9v8.4zM24.188 60.7c1 .1 1.7-.3 1.7-1.4 0-.8-.3-1.3-1.2-1.3-.9 0-1.1.7-1 1.4h-1.1c-.1-1.4.6-2.3 2.1-2.3 1.4 0 2.3.7 2.3 2.2 0 1.6-1.2 1.8-1.6 1.9 1.3.2 1.7.9 1.7 2.1 0 1.6-.9 2.4-2.5 2.4-2.3 0-2.1-2-2.1-2.5h1.1c0 .8.1 1.5 1.1 1.5s1.3-.6 1.3-1.5c0-1.3-.5-1.6-1.8-1.6v-.9zM27.388 61.4c0-2.2 0-4.3 2.2-4.3 1.2 0 2.1.8 2.1 2h-1.1c0-.6-.3-1.2-1-1.2-.9 0-1.1.8-1.1 3 .3-.5.8-.8 1.4-.8 1.1 0 2 .6 2 2.8 0 1.5-.6 2.8-2.2 2.8-2.3 0-2.3-2.1-2.3-4.3zm2.4 3.4c.9 0 1.1-1 1.1-2.1 0-.8-.2-1.7-1.1-1.7-1 0-1.1 1.1-1.1 1.8-.1.9 0 2 1.1 2zM39.088 59.2c0-1-.4-1.6-1.5-1.6-.3 0-1.6.1-1.6 1.9v2.9c0 1.9.6 2.4 1.6 2.4.8 0 1.3-.2 1.5-.4v-2.6h-1.6v-1h2.7V65c-.7.4-1.5.6-2.7.6-1.8 0-2.7-.9-2.7-3.3v-2.8c0-1.7.9-2.8 2.7-2.8 1.9 0 2.8.7 2.7 2.5h-1.1zM45.988 59.2c0-1-.4-1.6-1.5-1.6-.3 0-1.6.1-1.6 1.9v2.9c0 1.9.6 2.4 1.6 2.4.8 0 1.3-.2 1.5-.4v-2.6h-1.6v-1h2.7V65c-.7.4-1.5.6-2.7.6-1.8 0-2.7-.9-2.7-3.3v-2.8c0-1.7.9-2.8 2.7-2.8 1.9 0 2.8.7 2.7 2.5h-1.1zM48.588 65.5v-8.7h4.3v1h-3.2v2.8h3v1h-3v4h-1.1zM53.388 65.5v-8.7h4.3v1h-3.2v2.8h3v1h-3v4h-1.1z"/></g></svg>