<?xml version="1.0" encoding="iso-8859-1"?>
<!-- Generator: Adobe Illustrator 26.0.2, SVG Export Plug-In . SVG Version: 6.00 Build 0)  -->
<svg version="1.2" baseProfile="tiny" xmlns="http://www.w3.org/2000/svg" xmlns:xlink="http://www.w3.org/1999/xlink" x="0px"
	 y="0px" width="800px" height="800px" viewBox="0 0 800 800" overflow="visible" xml:space="preserve">
<g id="scan" display="none">
	<image display="inline" width="800" height="800" xlink:href="../images/016f.png" >
	</image>
</g>
<g id="icons">
	<g id="shazam">
		<g id="template_00000086652420533812850570000009690117554126171270_">
			<g>
				<rect fill="#FFC20E" width="800" height="800"/>
				<rect x="100" y="100" fill="#ED1C24" width="150" height="150"/>
				<rect x="100" y="400" fill="#ED1C24" width="150" height="150"/>
				<rect x="550" y="250" fill="#ED1C24" width="150" height="300"/>
				<g>
					<rect x="125" y="125" fill="none" width="100" height="550"/>
					<path d="M140.4,145.9c10.5-4.5,20.6-10.2,30-17h20.9V242h-24.5v-88c-4.7,3.6-14.1,9.4-26.4,14.4V145.9z"/>
					<path d="M153.2,355.2c0.2,3.6,1.1,15.1,14.6,15.1c9.1,0,14.6-6.6,14.6-15.4c0-16.7-16-16.7-27.9-16.7v-19
						c11.3-0.3,28-0.6,28-16.8c0-8.9-6.6-13.4-13.9-13.4c-7,0-13.8,4.7-13.8,14.1H130c0.5-5,1-12.2,6.6-19.1
						c7.5-9.1,19.4-12.5,31.4-12.5c28.8,0,38.1,18.5,38.1,30.8c0,19-16.7,24.1-21.7,25.6c3.6,1.1,8.3,2.6,13.4,7
						c7.9,6.6,9.2,14.9,9.2,20.3c0,19.1-17.5,33.4-41,33.4c-8.1,0-19.9-1.8-27.2-7.6c-10-8.3-10.4-21.1-10.4-25.6H153.2z"/>
					<path d="M140.4,433.9c10.5-4.5,20.6-10.2,30-17h20.9V530h-24.5v-88c-4.7,3.6-14.1,9.4-26.4,14.4V433.9z"/>
					<path d="M170.5,559.3c15.9,0,25.3,8.6,29.5,14.9c5.8,8.6,10.2,19.6,10.2,40.8c0,26.2-6,60.8-40,60.8c-29,0-39-27.9-39-58
						C131.2,602.7,134.2,559.3,170.5,559.3z M183,591.2c-0.6-3.1-3.4-13.1-12.3-13.1c-7,0-10,6.3-11.2,9.7
						c-3.7,11.5-3.7,28.8-3.7,31.6c0,19.3,2.9,37.3,15.1,37.3c13,0,15.1-22,15.1-37.6C185.9,611.9,185.1,598.6,183,591.2z"/>
				</g>
				<g>
					<rect x="575" y="125" fill="none" width="100" height="550"/>
					<path d="M579.1,363.1l29.3-26.7c5.2-4.7,11-9.9,17-17.2c6.3-7.6,7.8-11.2,7.8-16.4c0-8.6-5-14.4-13.4-14.4
						c-13,0-14.1,13.3-14.3,16.5h-24.8c0-4.5,0-13,6.6-21.2c6.5-8.1,18.5-12.3,32.2-12.3c24.6,0,38.2,13.3,38.2,30.8
						c0,11.7-4.5,26.7-53.5,66.1c16.4-0.3,18.3-0.5,31.1-0.6c17.3-0.3,19.3-0.3,23-0.5V386h-79.4V363.1z"/>
					<path d="M579.1,507.1l29.3-26.7c5.2-4.7,11-9.9,17-17.2c6.3-7.6,7.8-11.2,7.8-16.4c0-8.6-5-14.4-13.4-14.4
						c-13,0-14.1,13.3-14.3,16.5h-24.8c0-4.5,0-13,6.6-21.2c6.5-8.1,18.5-12.3,32.2-12.3c24.6,0,38.2,13.3,38.2,30.8
						c0,11.7-4.5,26.7-53.5,66.1c16.4-0.3,18.3-0.5,31.1-0.6c17.3-0.3,19.3-0.3,23-0.5V530h-79.4V507.1z"/>
					<path d="M603.2,643.2c0.2,3.6,1.1,15.1,14.6,15.1c9.1,0,14.6-6.6,14.6-15.4c0-16.7-16-16.7-27.9-16.7v-19
						c11.3-0.3,28-0.6,28-16.8c0-8.9-6.6-13.4-13.9-13.4c-7,0-13.8,4.7-13.8,14.1H580c0.5-5,1-12.2,6.6-19.1
						c7.5-9.1,19.4-12.5,31.4-12.5c28.8,0,38.1,18.5,38.1,30.8c0,19-16.7,24.1-21.7,25.6c3.6,1.1,8.3,2.6,13.4,7
						c7.9,6.6,9.2,14.9,9.2,20.3c0,19.1-17.5,33.4-41,33.4c-8.1,0-19.9-1.8-27.2-7.6c-10-8.3-10.4-21.1-10.4-25.6H603.2z"/>
				</g>
			</g>
			<g>
				<rect x="125" y="100" fill="none" width="550" height="125"/>
				<path d="M360.9,202.8c-20.2,0-24-11.9-23.1-25.4h16.3c0,7.5,0.3,13.7,9.3,13.7c5.5,0,8.2-3.6,8.2-8.9c0-14-32.8-14.9-32.8-38.1
					c0-12.2,5.8-21.9,25.7-21.9c15.9,0,23.8,7.1,22.7,23.4h-15.9c0-5.8-1-11.8-7.6-11.8c-5.3,0-8.4,2.9-8.4,8.3
					c0,14.8,32.8,13.5,32.8,38C388.2,200.4,373.4,202.8,360.9,202.8z"/>
				<path d="M425.7,201.5v-37.6c0-4.9-0.9-8.6-5.7-8.6c-4.9,0-5.7,3.8-5.7,8.6v37.6h-15.2v-78h15.2v28.9h0.2
					c1.5-2.5,3.3-4.1,5.4-5.1c2.2-1.1,4.6-1.5,7.5-1.5c7.2,0,13.6,4.3,13.6,11.9v43.7H425.7z"/>
				<path d="M494.4,191.3c0,3.3,0.4,6.8,0.8,10.2H481l-0.6-7.2h-0.2c-3.2,5.6-7.7,8.3-14.3,8.3c-10.6,0-14.5-7.9-14.5-17.4
					c0-18,13.9-18.8,28.1-18.6v-4.2c0-4.6-0.6-8-6.2-8c-5.3,0-5.7,4-5.7,8.3h-14.9c0-6.6,2.1-10.8,5.6-13.3
					c3.5-2.6,8.4-3.6,14.3-3.6c19.3,0,21.8,8.3,21.8,18.3V191.3z M466.3,184.5c0,3.9,0.6,8.6,5.6,8.6c9,0,7.6-12.1,7.6-18
					C472,175.5,466.3,174.8,466.3,184.5z"/>
				<path d="M540.2,157.7l-21.7,34h22v9.7h-37v-10.8l21.4-34h-20.6v-9.7h36V157.7z"/>
				<path d="M590.4,191.3c0,3.3,0.4,6.8,0.8,10.2H577l-0.6-7.2h-0.2c-3.2,5.6-7.7,8.3-14.3,8.3c-10.6,0-14.5-7.9-14.5-17.4
					c0-18,13.9-18.8,28.1-18.6v-4.2c0-4.6-0.6-8-6.2-8c-5.3,0-5.7,4-5.7,8.3h-14.9c0-6.6,2.1-10.8,5.6-13.3
					c3.5-2.6,8.4-3.6,14.3-3.6c19.3,0,21.8,8.3,21.8,18.3V191.3z M562.4,184.5c0,3.9,0.6,8.6,5.6,8.6c9,0,7.6-12.1,7.6-18
					C568,175.5,562.4,174.8,562.4,184.5z"/>
				<path d="M617.1,152.5h0.2c3-4.9,7.1-6.6,12.9-6.6c5.4,0,9.7,2.6,12.2,6.9c3.6-4.8,7.9-6.9,14.1-6.9c7.2,0,13.6,4.3,13.6,11.9
					v43.7h-15.2v-37.6c0-4.9-0.9-8.6-5.7-8.6s-5.7,3.8-5.7,8.6v37.6h-14.9v-37.6c0-4.9-0.9-8.6-5.7-8.6c-4.9,0-5.7,3.8-5.7,8.6v37.6
					h-15.2v-54.5h15.2V152.5z"/>
			</g>
		</g>
		<path d="M533.4,579c0.1-5.2,0.1-10.4-0.1-15.5c-3.1-16.4-3.9-33.3-4.9-50.4c-2.8-19.6-6.1-39-8.6-58.2c-0.4,0.2-0.7,0.4-1.1,0.7
			c-1.2-4.8-2.5-9.3-3.4-13.9c-1.9-10.2-4.8-20-10.7-28.6c-3.1-4.4-7.4-6.3-12.9-6.2c-3.5,0.1-7-0.7-11.5-1.1
			c2.6-3.6,4.5-5.9,6.1-8.3c3.1-4.8,2.6-7.9-1.3-11.9c-1.8-1.9-3.6-3.9-5.2-6.1c-2.2-2.9-0.9-4.2,2.3-4.3c1.5,0,3.1-0.1,4.5,0.4
			c6.8,2.2,11.8-0.7,15.4-6c1.2-1.8,0.9-4.7,0.7-7.1c-0.1-1.1-1.3-2.4-2.2-3.2c-5.3-4.7-7-10.6-6.3-17.5c0.6-6.3,0.8-12.6,1.6-18.8
			c0.2-1.8,2.1-3.5,3.2-5.2c1.5,1.2,3.5,2.2,4.5,3.8c1.4,2,2.1,4.4,3,6.7c3.1,7.5,6.4,14.9,9.1,22.6c2.1,6,4.4,12.2,4.9,18.5
			c0.8,9.8,2.2,19.7-1.6,29.6c-1.2,3.1,1.9,7.8,2.8,11.8c0.6,2.7,0.7,5.4,0.8,8.1c0.1,2.5-0.3,5-0.4,7.5c-0.2,4.1-0.5,8.2-0.5,12.3
			c0,2.2,0.2,4.7,1.1,6.7c1.3,2.6,1.8,4.5,1.1,6.1c1.7-1.1,3.2-2.3,4.6-3.7c2.7-3.9,3.7-8.8,3.7-12.3c1-15.6,2-31.4,2.1-47.1
			c-4.8-29.6-8.5-58.9-18.3-86.5c-1.2-0.5-2.5-0.9-3.4-1.6c-5.5-4.5-9.2-11.6-17.5-11.6c-1.7,0-4.3,0.3-5,1.3
			c-3.2,5.3-6.4,10.8-8.7,16.5c-3,7.1-5.1,14.6-7.8,21.9c-1.4,3.7-3.5,4.6-7.3,2.1c-3.2-2.1-7.1-3.6-10.9-4.2
			c-6.5-1.1-13.2-1.3-19.8-2.1c-8-1-16-1.2-22.1-8.3c-2.1-2.4-8.1-2.4-12.1-1.7c-7.2,1.2-14.1,3.6-22.7,5.9c1.3-2.7,2.2-3.9,2.6-5.3
			c0.7-2.2,1.9-4.5,1.4-6.6c-2.3-11-13.4-15.8-23.9-11.3c-8.6,3.7-12.9,11.1-16.4,18.6c-2,4.2-1.2,10.2-0.2,15.1
			c0.9,4.6,5.4,5.7,9.9,6c1.6,0.1,3.6,1.2,4.3,2.5c0.5,0.8-0.9,2.9-1.6,4.2c-2,3.8-5.5,4.1-9.4,4.3c-10.2,0.5-11.9,3.5-8.6,12.9
			c3.1,8.8,5.7,17.9,10.8,25.9c2.9,4.6,4.9,9.8,8.1,14.1c1.3,1.7,5.2,3,7.2,2.3c2-0.6,4.2-3.8,4.5-6.1c0.4-2.5-0.9-5.5-1.9-8.1
			c-2.2-5.6-5-11.1-7-16.8c-0.6-1.9-0.1-5.8,0.9-6.2c2.1-0.8,5-0.2,7.4,0.4c1.3,0.3,2.1,2.2,3.4,2.8c1.7,0.9,3.5,1.5,5.4,1.8
			c9.3,1.3,18.7,2.4,28,3.7c1.5,0.2,2.9,0.8,4.3,1.3c4.3,1.6,5.4,4.9,2.2,8c-5.5,5.5-6,12-4.1,18.9c0.9,3.2-0.3,4.7-3.2,4.5
			c-12.3-0.8-23.1,4.1-34,8.5c-8.9,3.5-10.3,3-14.7-5.6c-2.9-5.6-9-7.8-14.6-5c-6.3,3.1-11.9,6.9-15.9,13.1
			c-5.4,8.3-12,15.9-17.1,24.5c-5.1,8.6-9.1,17.8-13.3,26.9c-2.9,6.3-7.2,11.8-7.4,19.7c-0.1,5-4.7,9.9-7.4,14.8
			c-0.5-0.3-1.1-0.6-1.6-0.9c0,0,0-0.1-0.1-0.1c-5.4,10.4-9.6,21.6-12.8,33.1c1.5,0,3,0.4,4.5,0.5c-0.5,1.6-1.1,3.2-1.6,4.7
			c-1.2,3.7-3.3,7.4-3.4,11.2c0,10.3,0.9,20.6,1.3,30.9c0.4,9.5,1.8,19.1,0.5,28.3c-1.4,9.8,0,19.9-4.3,29.8
			c-3,6.9-2.1,15.7-2.6,23.6c-0.3,5.5,1.8,7.6,7.2,8.2c8.9,1,13.8-5.6,11.1-14.5c-0.7-2.2-1.4-4.5-1.3-6.8
			c0.7-8.9,1.4-17.9,2.6-26.7c1.8-12.3,4-24.5,6.1-36.7c1.2-7,2.1-14,3.9-20.8c1.2-4.4,0.9-8.1-0.7-12.3c-1.2-3.2-1.4-7-1.2-10.5
			c0.2-4,1.4-7.9,2.2-11.9c0.3-1.5,0-3.4,0.8-4.3c5.8-6.5,5.4-15.2,8-22.7c0.5-1.4,1.2-2.7,1.8-4.1c4.1-8.9,8.3-17.7,15.1-25
			c0.3-0.3,0.5-0.9,0.7-1.3c5.2-11,9.3-22.5,17.9-31.7c5.7-6.1,13.7-8.3,19.6-2.6c5.4,5.2,11,7.4,18.3,7.1c3.7-0.1,7.8,4.9,8.3,9.5
			c0.5,4.2-2,6-5.6,7.7c-5.1,2.4-9.5,1.2-14.5-0.2c-7.8-2.2-16.2-3.3-23.4,0.6c-12,6.6-18.4,17.3-18.4,31.5c0,3,0.2,6.1-0.3,9
			c-1.1,5.7-0.5,10.9,4.5,14.3c4.7,3.3,9.6,1,14.1-1.4c2.9-1.6,6.3-2.5,8,0.4c1.3,2.1,0.6,5.5,0.3,8.2c-0.2,2.1-1.5,4.1-1.4,6.1
			c0.1,6.3,0.6,12.5,1,18.8c0.9,12.6,2,25.2,3,37.8c0.1,1.2,0.3,2.3,0.7,3.4c3,9,6,17.9,9,26.9c1.2,3.5,3.6,5.7,7.5,5.2
			c3.9-0.6,6.3-3,6.6-7c0.2-3.8,0.3-7.7,0.1-11.5c-0.5-11.4-0.3-22.7,3-33.7c0.8-2.5,3.2-5,5.6-6.2c1.1-0.5,4.7,2,5.6,3.8
			c4.2,8.9,12.5,8.4,19.7,7.8c9.7-0.7,14.3-6.9,15-17.4c0.2-2.5,0.5-5.1,3.7-4.6c3,0.5,4.5,2.5,3.3,5.9c-0.4,1.2-0.2,2.6-0.3,3.9
			c-0.4,6.9,0,13.9-1.3,20.5c-1.6,8-4.3,15.6-3.5,23.9c0.5,5.6,3.9,8,8.7,5.2c2.5-1.5,5.1-4.1,6-6.8c3.5-10.3,6.4-20.8,9.6-31.1
			c0.8-2.5,2.3-4.8,3.1-7.3c1.8-5.6,3.5-11.3,5.2-17c0.5-1.6,0.9-3.1,1.3-4.7c0.8-3.5,2.1-7,2.4-10.6c0.5-7.2,0.5-14.5,0.7-21.7
			c0.2-5.8,5.3-9.3,10.1-7.2c9.7,4.2,16.2,0.3,16.6-10.4c0.2-6.6-0.3-13.3-0.6-20c-0.5-9.8-4.1-17.5-14.3-20.4
			c-5.6-1.6-11.2-3-16.8-4.4c-1.1-0.3-2.4-0.1-3.4,0.4c-7.3,3.4-14.8,6.6-21.9,10.5c-3.8,2-7.1,2.3-10.8,0.4c-4-2.1-5-5.5-4.8-9.6
			c0.2-4.3,2.8-6.8,6.6-7.9c2.7-0.8,5.6-1.1,8.4-0.9c8,0.6,13.8-2.5,17.8-9.5c2.5-4.4,6.8-5.5,11.6-5.4c2.3,0,4.6-0.1,6.9-0.1
			c7.3-0.1,14.6-0.3,22-0.4c5-0.1,7.4,2.6,8.2,7.5c1.2,7.2,2.4,14.4,4.2,21.4c2.9,11.3,6.9,22.3,5.5,34.2c-0.2,1.6,0.5,3.3,0.8,4.9
			c1.7,8.6,4,17.2-0.1,25.9c-0.5,1.1-0.5,2.9,0.1,3.8c3.4,4.6,4.7,9.4,3.2,15c-0.2,0.9,0.4,1.9,0.5,2.9c1.4,9.8,2.8,19.6,4.2,29.4
			c1.5,10.9,2.6,21.8,4.4,32.6c1.6,9.7,4.5,19.3,5.6,29.1c0.8,7.8,0.9,15.3,4.5,22.7c2.3,4.5,4.5,6.7,9.4,5.8
			c4.7-0.8,5.5-4.4,5.2-8.3c-0.6-9-2-17.9-1.9-26.8c0.1-11.8-2-23.3-3.6-35c-1.3-9.2-2.6-18.5-1.2-27.7c-0.5-2.2-1-4.4-1.4-6.7
			C533.5,568.6,533.5,573.8,533.4,579z M370.5,327.1c-1.7,1.4-3.7,2.3-5.6,3.5c-0.5-1-1.5-2.5-1.3-2.8c1.7-1.7,3.7-3.3,5.7-4.7
			c0.4-0.3,1.4,0.4,2.6,0.7C371.4,325.1,371.2,326.5,370.5,327.1z M388.7,354.4c-1.3-0.3-3.2-3.2-3-3.4c2-2.6,4.4-5,6.7-7.4
			c1,1.3,2,2.6,2.4,3.1C394.8,351,391.3,355.1,388.7,354.4z M351.8,490.9c-5.1,1.8-10.1,4-15.2,5.8c-0.9,0.3-2.6,0-3.1-0.6
			c-0.5-0.6-0.3-2.2,0.1-3.1c2-4.7,11.9-10.8,18.8-10.7c0.6,0.5,3.1,1.6,3.8,3.4C357.3,488.9,354.5,489.9,351.8,490.9z M450.3,474.2
			c4.1-0.2,8.7-2.6,11.8,2c1,1.5,2.5,3.6,2.1,5c-0.3,1.1-3,1.6-4.9,2.5c-3.7-1.2-7.2-2-10.5-3.5c-1.1-0.5-2-2.6-1.9-4
			C447,475.5,449.1,474.3,450.3,474.2z M440.7,407.3c-1.9-1.3-3.3-2.4-4.8-3.4c1.3-0.6,2.8-1.8,3.9-1.6c1.4,0.3,2.6,1.8,3.9,2.8
			C442.8,405.8,441.9,406.5,440.7,407.3z M476.5,413.1c-5,6.1-14.9,8.9-20,0.1c-1.7-2.9-5.9-4.4-9.5-7c1.4-2.7,3.8-3.1,6.8-2.5
			c6.8,1.3,13.7,2.3,20.5,3.5c1.3,0.2,3.1,1.1,3.5,2C478.2,410.2,477.4,412.1,476.5,413.1z"/>
	</g>
</g>
<g id="guides">
</g>
<g id="scratch">
</g>
</svg>
