<?xml version="1.0" encoding="iso-8859-1"?>
<!-- Generator: Adobe Illustrator 26.0.2, SVG Export Plug-In . SVG Version: 6.00 Build 0)  -->
<svg version="1.2" baseProfile="tiny" xmlns="http://www.w3.org/2000/svg" xmlns:xlink="http://www.w3.org/1999/xlink" x="0px"
	 y="0px" width="800px" height="800px" viewBox="0 0 800 800" overflow="visible" xml:space="preserve">
<g id="scan" display="none">
	<image display="inline" width="800" height="800" xlink:href="../images/013f.png" >
	</image>
</g>
<g id="icons">
	<g id="grendel_00000052062644555255232930000000487815380469815733_">
		<g>
			<rect fill="#FFC20E" width="800" height="800"/>
			<rect x="100" y="100" fill="#ED1C24" width="150" height="150"/>
			<g>
				<rect x="125" y="125" fill="none" width="100" height="550"/>
				<path d="M140.4,145.9c10.5-4.5,20.6-10.2,30-17h20.9V242h-24.5v-88c-4.7,3.6-14.1,9.4-26.4,14.4V145.9z"/>
				<path d="M153.2,355.2c0.2,3.6,1.1,15.1,14.6,15.1c9.1,0,14.6-6.6,14.6-15.4c0-16.7-16-16.7-27.9-16.7v-19
					c11.3-0.3,28-0.6,28-16.8c0-8.9-6.6-13.4-13.9-13.4c-7,0-13.8,4.7-13.8,14.1H130c0.5-5,1-12.2,6.6-19.1
					c7.5-9.1,19.4-12.5,31.4-12.5c28.8,0,38.1,18.5,38.1,30.8c0,19-16.7,24.1-21.7,25.6c3.6,1.1,8.3,2.6,13.4,7
					c7.9,6.6,9.2,14.9,9.2,20.3c0,19.1-17.5,33.4-41,33.4c-8.1,0-19.9-1.8-27.2-7.6c-10-8.3-10.4-21.1-10.4-25.6H153.2z"/>
				<path d="M153.2,499.2c0.2,3.6,1.1,15.1,14.6,15.1c9.1,0,14.6-6.6,14.6-15.4c0-16.7-16-16.7-27.9-16.7v-19
					c11.3-0.3,28-0.6,28-16.8c0-8.9-6.6-13.4-13.9-13.4c-7,0-13.8,4.7-13.8,14.1H130c0.5-5,1-12.2,6.6-19.1
					c7.5-9.1,19.4-12.5,31.4-12.5c28.8,0,38.1,18.5,38.1,30.8c0,19-16.7,24.1-21.7,25.6c3.6,1.1,8.3,2.6,13.4,7
					c7.9,6.6,9.2,14.9,9.2,20.3c0,19.1-17.5,33.4-41,33.4c-8.1,0-19.9-1.8-27.2-7.6c-10-8.3-10.4-21.1-10.4-25.6H153.2z"/>
				<path d="M153.2,643.2c0.2,3.6,1.1,15.1,14.6,15.1c9.1,0,14.6-6.6,14.6-15.4c0-16.7-16-16.7-27.9-16.7v-19
					c11.3-0.3,28-0.6,28-16.8c0-8.9-6.6-13.4-13.9-13.4c-7,0-13.8,4.7-13.8,14.1H130c0.5-5,1-12.2,6.6-19.1
					c7.5-9.1,19.4-12.5,31.4-12.5c28.8,0,38.1,18.5,38.1,30.8c0,19-16.7,24.1-21.7,25.6c3.6,1.1,8.3,2.6,13.4,7
					c7.9,6.6,9.2,14.9,9.2,20.3c0,19.1-17.5,33.4-41,33.4c-8.1,0-19.9-1.8-27.2-7.6c-10-8.3-10.4-21.1-10.4-25.6H153.2z"/>
			</g>
			<g>
				<rect x="575" y="125" fill="none" width="100" height="550"/>
				<path d="M620.5,271.3c15.9,0,25.3,8.6,29.5,14.9c5.8,8.6,10.2,19.6,10.2,40.8c0,26.2-6,60.8-40,60.8c-29,0-39-27.9-39-58
					C581.2,314.7,584.2,271.3,620.5,271.3z M633,303.2c-0.6-3.1-3.4-13.1-12.3-13.1c-7,0-10,6.3-11.2,9.7
					c-3.7,11.5-3.7,28.8-3.7,31.6c0,19.3,2.9,37.3,15.1,37.3c13,0,15.1-22,15.1-37.6C635.9,323.9,635.1,310.6,633,303.2z"/>
				<path d="M579.1,507.1l29.3-26.7c5.2-4.7,11-9.9,17-17.2c6.3-7.6,7.8-11.2,7.8-16.4c0-8.6-5-14.4-13.4-14.4
					c-13,0-14.1,13.3-14.3,16.5h-24.8c0-4.5,0-13,6.6-21.2c6.5-8.1,18.5-12.3,32.2-12.3c24.6,0,38.2,13.3,38.2,30.8
					c0,11.7-4.5,26.7-53.5,66.1c16.4-0.3,18.3-0.5,31.1-0.6c17.3-0.3,19.3-0.3,23-0.5V530h-79.4V507.1z"/>
				<path d="M590.4,577.9c10.5-4.5,20.6-10.2,30-17h20.9V674h-24.5v-88c-4.7,3.6-14.1,9.4-26.4,14.4V577.9z"/>
			</g>
			<g>
				<rect y="100" fill="none" width="700" height="125"/>
				<path d="M394.5,147.5c0.1-7.2-1.1-13.6-9.7-13.6c-10.2,0-10.2,13.7-10.2,28.8c0,24.4,2.4,28.7,11.7,28.7c2.7,0,5.6-0.6,8.1-1.5
					v-17.3h-8.9v-12h25.2v39.5c-4.4,0.9-15.6,2.6-22,2.6c-27.4,0-30.6-11.3-30.6-40.9c0-19.7,1-39.6,27.6-39.6
					c16,0,25.9,9,24.9,25.3H394.5z"/>
				<path d="M438.5,146.9v7h0.2c2.8-6.3,8-8.1,14.1-8.1v13.6c-13.4-0.9-13.6,6.9-13.6,12.3v29.7h-15.2v-54.5H438.5z"/>
				<path d="M474.1,176.6c0,6.5,0.2,16.2,6.9,16.2c5.4,0,6.5-5.2,6.5-9.7h15.4c-0.2,5.9-2.2,10.8-5.8,14.1c-3.6,3.3-9,5.3-16.1,5.3
					c-19.7,0-22.2-12-22.2-29.1c0-14.9,2.2-27.6,22.2-27.6c20.5,0,22.8,13.3,22.2,30.8H474.1z M488,168.1c0-5.3,0.2-12.9-7-12.9
					c-7,0-6.9,8.2-6.9,12.9H488z"/>
				<path d="M529.3,152.5h0.2c1.5-2.5,3.3-4.1,5.4-5.1c2.2-1.1,4.6-1.5,7.5-1.5c7.2,0,13.6,4.3,13.6,11.9v43.7h-15.2v-37.6
					c0-4.9-0.9-8.6-5.7-8.6c-4.9,0-5.7,3.8-5.7,8.6v37.6H514v-54.5h15.2V152.5z"/>
				<path d="M595.2,201.5v-6H595c-2.8,5.3-7,7.1-12.9,7.1c-15.8,0-15.2-17.5-15.2-28.7c0-11-0.4-28,14.9-28c5.5,0,9.3,1.6,12.4,6.3
					h0.2v-28.6h15.2v78H595.2z M594.5,173.7c0-10.9,0.1-18.5-6.2-18.5c-6.6,0-6.5,7.6-6.5,18.5c0,13.7,1,19.4,6.5,19.4
					C593.5,193.2,594.5,187.4,594.5,173.7z"/>
				<path d="M636.1,176.6c0,6.5,0.2,16.2,6.9,16.2c5.4,0,6.5-5.2,6.5-9.7h15.4c-0.2,5.9-2.2,10.8-5.8,14.1c-3.6,3.3-9,5.3-16.1,5.3
					c-19.7,0-22.2-12-22.2-29.1c0-14.9,2.2-27.6,22.2-27.6c20.5,0,22.8,13.3,22.2,30.8H636.1z M650,168.1c0-5.3,0.2-12.9-7-12.9
					c-7,0-6.9,8.2-6.9,12.9H650z"/>
				<path d="M692.5,123.5v78h-15.2v-78H692.5z"/>
			</g>
		</g>
		<path id="grendel" d="M333.1,629.1l0,0.1c-11,11.4-49.5,32.9-25.9,37.6c12-3.1,25.4,1.5,31.4-7.2c-1-9.2,1.7-19.9-0.9-28.8
			c3.2-7.5,5.4-21.5,6.7-22.9c0,0-0.1,0-0.2-0.1l10.1-16.5c0.7-1,1.3-2,1.9-3.2l0.3-0.5l0,0c4.3-8,7.8-19.2,8.1-23.7
			c5.5-52.1,25.6-61.1,20.1-1c9.5,17.7,7.4,42.4-1.2,60.4c3.8,11.7-18.6,27-4.4,34c10.8,4.4,40.8,8.1,26.3-11.3
			c-15.7-12.7,5.9-31.6,0.9-48.3c3.4-27-0.8-55,0.6-82.5c-2.2-42,10.4-19.1,12.3,8.6c4.5,12.6-10.9,24.1-0.1,34.6
			c17.5,25.3,11.9,60.2,21.7,88.2c-5.3,16.6,15.7,15.8,26.3,17.9c8.8,2.1,12.6-11.3,3.3-12.5c-29.8-10.4-20.6-42-26.3-66.3
			c-7.4-26.8-9.2-55-14-82.7c-1.4-25.5-20.4-50.5-10-76c1.6-4.6,8.6-18.7,12.1-8.2c3.2,13.4,1.2,32.5,20.5,25.3
			c8.2-8-4.5-25.1,2.4-34.3c1.2-0.9,2.3-1.9,3.3-3c6.7,10.2,16.9,22.6,17.5,24.5c0,0,0.4-0.4,0.4-0.4c0.2,1,0.5,2,0.9,2.8
			c14.6,20.5,14.4,40.6,8.1,64.2c9.1,47.9,17.1-51.4,13.6-62.5c5-2.8-5-15.8-6.2-21.7c-1.2-0.8-2.3-1.2-3.5-1.4
			c-4.3-5.2-17.7-21.3-22.4-27c1.9-8.1,4.1-15.9,11.5-20.7c4.2-22.6-25.1,3.2-34.5-3.9c-61.7-50.7,66.2-12.5,3.1-82.6
			c-23.7-35.6-29.4,37.4-55.6-3.6c-24.1-26.7-48.1,39.2-34.3,54.5c6.6,7,15.2,1.7,23.2,1.8c23.7,8.8-2.8,24.4-16.5,17
			c-15.2-3.9-18.1,8.3-13.8,20c2.4,10.4-10.9,14.4-9,24.6c1.8,16.7-13.6,9.8-22.4,14.9c-2.9,12.7-9.3,23.7-15,35.7
			c-2.7,15.9,10.9,6.4,15.7-0.9c24.8-31,50.1-60.6,25.1,2.6c-3,7.9,1.2,14.4,9.6,13.8c11-6.9,9.4-27.2,11.2-39.4
			c2.3-11.3,12.8-3.5,14.5,3.9c10.6,33.3-19.4,92.1-27.7,126.1c0,14.3-5.7,27.3-8.4,41c0.1,0.2,0.2,0.5,0.2,0.7l-12.5,38.2"/>
	</g>
</g>
<g id="guides">
</g>
<g id="scratch">
</g>
</svg>
