<?xml version="1.0" encoding="iso-8859-1"?>
<!-- Generator: Adobe Illustrator 26.0.2, SVG Export Plug-In . SVG Version: 6.00 Build 0)  -->
<svg version="1.2" baseProfile="tiny" xmlns="http://www.w3.org/2000/svg" xmlns:xlink="http://www.w3.org/1999/xlink" x="0px"
	 y="0px" width="800px" height="800px" viewBox="0 0 800 800" overflow="visible" xml:space="preserve">
<g id="scan" display="none">
	<image display="inline" width="800" height="800" xlink:href="../images/014f.png" >
	</image>
</g>
<g id="icons">
	<g id="golem">
		<g>
			<rect fill="#FFC20E" width="800" height="800"/>
			<g>
				<rect x="125" y="125" fill="none" width="100" height="550"/>
				<path d="M153.2,211.2c0.2,3.6,1.1,15.1,14.6,15.1c9.1,0,14.6-6.6,14.6-15.4c0-16.7-16-16.7-27.9-16.7v-19
					c11.3-0.3,28-0.6,28-16.8c0-8.9-6.6-13.4-13.9-13.4c-7,0-13.8,4.7-13.8,14.1H130c0.5-5,1-12.2,6.6-19.1
					c7.5-9.1,19.4-12.5,31.4-12.5c28.8,0,38.1,18.5,38.1,30.8c0,19-16.7,24.1-21.7,25.6c3.6,1.1,8.3,2.6,13.4,7
					c7.9,6.6,9.2,14.9,9.2,20.3c0,19.1-17.5,33.4-41,33.4c-8.1,0-19.9-1.8-27.2-7.6c-10-8.3-10.4-21.1-10.4-25.6H153.2z"/>
				<path d="M153.2,355.2c0.2,3.6,1.1,15.1,14.6,15.1c9.1,0,14.6-6.6,14.6-15.4c0-16.7-16-16.7-27.9-16.7v-19
					c11.3-0.3,28-0.6,28-16.8c0-8.9-6.6-13.4-13.9-13.4c-7,0-13.8,4.7-13.8,14.1H130c0.5-5,1-12.2,6.6-19.1
					c7.5-9.1,19.4-12.5,31.4-12.5c28.8,0,38.1,18.5,38.1,30.8c0,19-16.7,24.1-21.7,25.6c3.6,1.1,8.3,2.6,13.4,7
					c7.9,6.6,9.2,14.9,9.2,20.3c0,19.1-17.5,33.4-41,33.4c-8.1,0-19.9-1.8-27.2-7.6c-10-8.3-10.4-21.1-10.4-25.6H153.2z"/>
				<path d="M153.2,499.2c0.2,3.6,1.1,15.1,14.6,15.1c9.1,0,14.6-6.6,14.6-15.4c0-16.7-16-16.7-27.9-16.7v-19
					c11.3-0.3,28-0.6,28-16.8c0-8.9-6.6-13.4-13.9-13.4c-7,0-13.8,4.7-13.8,14.1H130c0.5-5,1-12.2,6.6-19.1
					c7.5-9.1,19.4-12.5,31.4-12.5c28.8,0,38.1,18.5,38.1,30.8c0,19-16.7,24.1-21.7,25.6c3.6,1.1,8.3,2.6,13.4,7
					c7.9,6.6,9.2,14.9,9.2,20.3c0,19.1-17.5,33.4-41,33.4c-8.1,0-19.9-1.8-27.2-7.6c-10-8.3-10.4-21.1-10.4-25.6H153.2z"/>
				<path d="M153.2,643.2c0.2,3.6,1.1,15.1,14.6,15.1c9.1,0,14.6-6.6,14.6-15.4c0-16.7-16-16.7-27.9-16.7v-19
					c11.3-0.3,28-0.6,28-16.8c0-8.9-6.6-13.4-13.9-13.4c-7,0-13.8,4.7-13.8,14.1H130c0.5-5,1-12.2,6.6-19.1
					c7.5-9.1,19.4-12.5,31.4-12.5c28.8,0,38.1,18.5,38.1,30.8c0,19-16.7,24.1-21.7,25.6c3.6,1.1,8.3,2.6,13.4,7
					c7.9,6.6,9.2,14.9,9.2,20.3c0,19.1-17.5,33.4-41,33.4c-8.1,0-19.9-1.8-27.2-7.6c-10-8.3-10.4-21.1-10.4-25.6H153.2z"/>
			</g>
			<g>
				<rect x="575" y="125" fill="none" width="100" height="550"/>
				<path d="M603.2,355.2c0.2,3.6,1.1,15.1,14.6,15.1c9.1,0,14.6-6.6,14.6-15.4c0-16.7-16-16.7-27.9-16.7v-19
					c11.3-0.3,28-0.6,28-16.8c0-8.9-6.6-13.4-13.9-13.4c-7,0-13.8,4.7-13.8,14.1H580c0.5-5,1-12.2,6.6-19.1
					c7.5-9.1,19.4-12.5,31.4-12.5c28.8,0,38.1,18.5,38.1,30.8c0,19-16.7,24.1-21.7,25.6c3.6,1.1,8.3,2.6,13.4,7
					c7.9,6.6,9.2,14.9,9.2,20.3c0,19.1-17.5,33.4-41,33.4c-8.1,0-19.9-1.8-27.2-7.6c-10-8.3-10.4-21.1-10.4-25.6H603.2z"/>
				<path d="M603.2,499.2c0.2,3.6,1.1,15.1,14.6,15.1c9.1,0,14.6-6.6,14.6-15.4c0-16.7-16-16.7-27.9-16.7v-19
					c11.3-0.3,28-0.6,28-16.8c0-8.9-6.6-13.4-13.9-13.4c-7,0-13.8,4.7-13.8,14.1H580c0.5-5,1-12.2,6.6-19.1
					c7.5-9.1,19.4-12.5,31.4-12.5c28.8,0,38.1,18.5,38.1,30.8c0,19-16.7,24.1-21.7,25.6c3.6,1.1,8.3,2.6,13.4,7
					c7.9,6.6,9.2,14.9,9.2,20.3c0,19.1-17.5,33.4-41,33.4c-8.1,0-19.9-1.8-27.2-7.6c-10-8.3-10.4-21.1-10.4-25.6H603.2z"/>
				<path d="M603.2,643.2c0.2,3.6,1.1,15.1,14.6,15.1c9.1,0,14.6-6.6,14.6-15.4c0-16.7-16-16.7-27.9-16.7v-19
					c11.3-0.3,28-0.6,28-16.8c0-8.9-6.6-13.4-13.9-13.4c-7,0-13.8,4.7-13.8,14.1H580c0.5-5,1-12.2,6.6-19.1
					c7.5-9.1,19.4-12.5,31.4-12.5c28.8,0,38.1,18.5,38.1,30.8c0,19-16.7,24.1-21.7,25.6c3.6,1.1,8.3,2.6,13.4,7
					c7.9,6.6,9.2,14.9,9.2,20.3c0,19.1-17.5,33.4-41,33.4c-8.1,0-19.9-1.8-27.2-7.6c-10-8.3-10.4-21.1-10.4-25.6H603.2z"/>
			</g>
			<g>
				<rect x="125" y="100" fill="none" width="550" height="125"/>
				<path d="M435.5,147.5c0.1-7.2-1.1-13.6-9.7-13.6c-10.2,0-10.2,13.7-10.2,28.8c0,24.4,2.4,28.7,11.7,28.7c2.7,0,5.6-0.6,8.1-1.5
					v-17.3h-8.9v-12h25.2v39.5c-4.4,0.9-15.6,2.6-22,2.6c-27.4,0-30.6-11.3-30.6-40.9c0-19.7,1-39.6,27.6-39.6
					c16,0,25.9,9,24.9,25.3H435.5z"/>
				<path d="M463.8,173.5c0-14.9,2.2-27.6,22.2-27.6s22.2,12.7,22.2,27.6c0,17.1-2.6,29.1-22.2,29.1S463.8,190.6,463.8,173.5z
					 M493,172.7c0-11.3-0.5-17.1-7-17.1c-6.5,0-7,5.7-7,17.1c0,16.6,1.4,20.2,7,20.2C491.6,192.8,493,189.3,493,172.7z"/>
				<path d="M535.6,123.5v78h-15.2v-78H535.6z"/>
				<path d="M563.1,176.6c0,6.5,0.2,16.2,6.9,16.2c5.4,0,6.5-5.2,6.5-9.7H592c-0.2,5.9-2.2,10.8-5.8,14.1c-3.6,3.3-9,5.3-16.1,5.3
					c-19.7,0-22.2-12-22.2-29.1c0-14.9,2.2-27.6,22.2-27.6c20.5,0,22.8,13.3,22.2,30.8H563.1z M577,168.1c0-5.3,0.2-12.9-7-12.9
					c-7,0-6.9,8.2-6.9,12.9H577z"/>
				<path d="M617.1,152.5h0.2c3-4.9,7.1-6.6,12.9-6.6c5.4,0,9.7,2.6,12.2,6.9c3.6-4.8,7.9-6.9,14.1-6.9c7.2,0,13.6,4.3,13.6,11.9
					v43.7h-15.2v-37.6c0-4.9-0.9-8.6-5.7-8.6s-5.7,3.8-5.7,8.6v37.6h-14.9v-37.6c0-4.9-0.9-8.6-5.7-8.6c-4.9,0-5.7,3.8-5.7,8.6v37.6
					h-15.2v-54.5h15.2V152.5z"/>
			</g>
		</g>
		<g>
			<path d="M330.5,472c-4.1,5.6-8.2,10.5-9,17.7c-2.3,10-13.7,17.2-12.3,28.6c1.6,10.3-1.3,18.7-9.3,24.6
				c-43.7,1.6,27.1-74.9,27.4-95.3c7-19.8,9-40.8,19.9-59.1c9.3-9,10.7-15.1,13.9-26.9c14.3-16.2,30.1,8.3,46.4-15.4
				c-11.2-5.8-22.8-6.8-18.9-22c3-20.2,7.6-44.2,30.3-49.7c40.3-8.7,65.8,36.2,43.2,68c-2.1,18.4,36.5,6.4,27.2,27.2
				c-2.4,9.1,14.1,19.4,11.4,34.6c-1.6,28.2,8.8,54.9,12.7,82.6c0.6,8,3.6,59.2-11.2,42.9c-2.2-13.2,1.2-28.5-4.4-40.7
				c-15.5-5.7-5.6,37.3-24.7,32.8c-3.2-1.8-1.6-5-0.1-8.2c3.4-18.6,6.2-36.4,12.7-54.3c1.7-7.4,0.6-74.8-10.1-55
				c-2.7,20.1-22.4,15.7-16.2,52.3c0.4,11.7-2.5,23.8-1.5,35.7c4,10.2,10.3,18.5,3.8,29.7c-3.8,24.9,4.6,51.4,12.4,75
				c9.8,15.9-4.3,47.9,22.4,47c20.2,11.3-9.1,17.9-20.2,15.2c-21.4-6.7-11.9-55.6-31.7-66.1c-13.9,12.5,0.8,33.2,1.2,48.2
				c1.4,20.4-37.3,11.8-50.7,13.3c-10.7-5.4-5.7-20.9-9.9-30.6c-7.2-44.4-11.7-54.3-28.3-5.3c-3.9,7.8-10.5,14.4-3.1,22.6
				c11.8,16.1-17.8,25.1-25.8,13.6c-3.8-7.8,3.1-14.9,7.7-20.7c11.4-27.2,16.2-58.2,25.6-86.7c5.5-13.2-5.3-26.4,2.2-38.7
				c11.7-24.3,12.4-51.6,21.9-77c-3.4-10-5.8-19.7-5.5-30.5c-12.2-22.1-24.3,17.8-30,27.3c-10,20.1,4.5,44.5-0.7,67
				c0.5,13.7,10.5,71-16.2,42.5C327.9,517.2,340.5,489.9,330.5,472z M405.2,622.1c3.1,43.7,15.9-53.5,18.6-60.5
				c5.2-28.9,12.4-68.9-6.5-92.8C375.3,506.1,397.6,573.4,405.2,622.1z"/>
		</g>
	</g>
</g>
<g id="guides">
</g>
<g id="scratch">
</g>
</svg>
