<?xml version="1.0" encoding="iso-8859-1"?>
<!-- pandora_roboto.svg  -->
<svg version="1.1" xmlns="http://www.w3.org/2000/svg" xmlns:xlink="http://www.w3.org/1999/xlink" width="800px"
	 height="800px" viewBox="0 0 800 800" >
<defs>
	<style type="text/css">
	@import url('https://fonts.googleapis.com/css?family='Roboto Condensed'');
	@import url('https://fonts.googleapis.com/css?family='Inter SemiBold'');
	</style>
</defs>
<g id="icons">
	<g id="ambot_00000122698851793694841020000005586250189883265719_">
		<g>
			<rect fill="#B7D65A" width="800" height="800"/>
			<rect x="100" y="100" fill="none" width="150" height="575"/>
			<text transform="matrix(1 0 0 1 120.9811 518.4084)"><tspan x="0" y="0" font-family="Inter SemiBold" font-size="162px">0</tspan><tspan x="1.5" y="144" font-family="Inter SemiBold" font-size="162px">9</tspan></text>
			<rect x="550" y="100" fill="none" width="150" height="575"/>
			<text transform="matrix(1 0 0 1 625 230.4084)"><tspan x="0" y="0" font-family="Inter SemiBold" font-size="162px"> </tspan><tspan x="-52.5" y="144" font-family="Inter SemiBold" font-size="162px">9</tspan><tspan x="-52.5" y="288" font-family="Inter Semibold" font-size="162px">9</tspan><tspan x="-54" y="432" font-family="'Inter Semibold" font-size="162px">0</tspan></text>
			<rect x="125" y="100" fill="none" width="550" height="125"/>
			<text transform="matrix(1 0 0 1 246.1738 203)" font-family="Roboto Condensed" font-weight="700" font-size="108px">Ambot</text>
		</g>
		<g>
			<g id="ambot">
				<path d="M349.8,368.5c3.3-2.7,5.9-5,8.7-7.1c4.1-3.2,8.5-3.4,13-0.8c6.6,3.8,9.8,2.9,14.1-3.5c6.2-9.3,17-10,24.6-1.8
					c1.9,2.1,3.9,4.1,6.2,5.7c3.9,2.7,8,3.2,11.7-0.6c1-1,2.4-1.8,3.8-2.4c7.6-3.7,11.8-1.2,12.1,7.3c0,0.3-0.1,0.7,0,1
					c1.1,2,2.2,4,3.3,6c1.1-2.1,2.9-4,3.2-6.2c0.8-7.1,2.8-9.4,9.1-8.9c4.5,0.3,7.1,2.7,7.3,7.3c0.2,4.8,0.2,9.7,0.1,14.5
					c-0.1,3.9-1.9,6.8-5.7,7.8c-4,1.1-7.1-0.3-9.5-3.7c-4-5.6-5.6-5.4-9.5,0.5c-1.6,2.4-3.8,4.6-6.1,6.2c-5.9,4.2-12.1,8-18.1,12.1
					c-2.7,1.9-1.3,3.8,0.6,5.2c2.2,1.7,4.6,3.2,6.9,4.9c3.9,2.9,4.2,6.5,1.7,10.5c-0.7,1.1-1.5,2.2-2.3,3.2
					c-5.2,6.4-5.3,7.7,0.7,13.2c3.9,3.6,4,6.9,1.1,10.9c-2.6,3.5-5.1,6.9-7.5,10.6c-1.2,1.9-2.3,4.1-2.9,6.3
					c-2.4,9.9-7.8,14.3-17.9,14.3c-1.2,0-2.3,0-3.5,0c-9.6,0.3-13.7,5.5-13.8,15c-0.1,6.7-1.6,13.4-3.2,19.9
					c-1,4.1-6.4,7.2-10.2,6.6c-4.9-0.8-5.6-5-5.7-8.8c-0.1-7.3,0.4-14.6,0.7-21.9c0.2-5.1,0.7-10.3,0.3-15.3
					c-0.4-5.4,2-8.4,6.4-10.5c5-2.4,6-6.3,2.8-10.8c-0.7-1-1.5-1.8-2.3-2.7c-7.6-8.1-3.1-15.1,5.5-18.3c4.9-1.8,5.2-2.6,1.5-6.6
					c-4.9-5.2-6-8.6-3.3-12.7c1-1.6,2.8-2.7,4.4-3.8c4.8-3.5,3.9-5.6,0.9-10.5c-4.7-7.8-10.8-12.9-19.1-16.3c-2.4-1-3.8-4.8-5.5-7.4
					c-3-4.6-4.6-4.6-7.3,0c-2.2,3.7-3.3,9.1-9.4,7.6c-4-1-7.2-9.6-6-14.7c0.3-1.5,0.6-3.1,1.4-4.2c1.9-2.4,3.8-5.4,6.3-6.2
					c1.5-0.5,4.4,2.4,6.3,4.2C347.6,365.2,348.9,367.4,349.8,368.5z"/>
				<path d="M375.5,331.7c0.6-3.7,1.6-8,1.7-12.2c0.1-6.6-0.2-13.2-0.7-19.8c-0.2-2.6-2.1-4.2-5.1-2.6c-2.8,1.4-5.9,1.9-7.2-1.4
					c-0.7-1.9-0.3-5,0.9-6.7c2.2-3,5.3-1.9,8-0.1c5.4,3.8,5.4,3.8,9.1-1.5c9.8-14,28.5-15.6,40.2-3.4c3.3,3.5,6,6.4,10.3,1.2
					c0.5-0.6,3.9-0.2,4.2,0.4c0.8,2.3,1.5,5,1.1,7.3c-0.3,1.6-2.5,3.2-4.2,4c-4.1,2-4.4,5.2-4.2,9.2c0.4,8.3,0.5,16.5,0.8,24.8
					c0.1,2.3,0.9,4.7,0.5,6.9c-0.4,2.7-1,6.6-2.8,7.7c-2.3,1.3-6.1,0.9-8.9,0.1c-2.4-0.6-4.7-2.5-6.6-4.3c-4.2-3.8-9-3.3-13.6-1.5
					c-5.2,2-10,5-15,7.4c-3.2,1.5-5.7,0.3-6.4-3.2C376.5,340.3,376.1,336.3,375.5,331.7z"/>
				<path d="M433.8,461.1c1.5,1.9,3.8,3.6,4.5,5.7c1.8,6.1,2.9,12.5,4.2,18.7c0,0.2,0.1,0.4,0.1,0.5c-5.7,8.9,3.5,16.6,1.9,25.1
					c-0.4,2.4-0.2,5-0.8,7.4c-1.1,4.8-6.2,9.3-10,9.1c-4.5-0.2-10.1-6-10.7-10.8c-1.4-11.5-3-22.9-4.3-34.4c-0.3-2.9-1-6.5,0.3-8.8
					c2.4-4.1,6-7.4,9.3-10.8c0.9-0.9,2.8-0.7,4.2-1C433,461.6,433.4,461.3,433.8,461.1z"/>
				<path d="M465.3,417.7c-2.8,12.2,3,20.4,12.1,27.4c9.8,7.6,10.3,18.8,1.6,27.7c-1.3,1.4-4.5,2.5-5.9,1.9
					c-1.5-0.7-2.5-3.7-2.5-5.7c-0.1-2.8,1.1-5.6,1.2-8.4c0.1-1.4-0.7-3.6-1.8-4.1c-1.1-0.6-3.1,0.1-4.5,0.7c-1.1,0.5-1.8,2-2.9,2.7
					c-1.6,0.9-3.8,2.5-5,2c-1.4-0.5-2.8-3.1-2.7-4.7c0.6-7.3,1.8-14.6,2.6-21.9c0.4-3.6,0.4-7.3,0.4-10.9c0-6.6-0.2-13.2,0-19.8
					c0-1.1,1.9-3,3-3c1.1,0,3,1.7,3.2,2.8C464.7,408.8,464.9,413.3,465.3,417.7z"/>
				<path d="M315,470.3c-0.1-8,3.4-13.2,8.9-17.3c6.2-4.6,7.6-10.9,7-18.1c-0.3-3.1-0.1-6.3,0.4-9.4c0.2-1.2,1.9-2.9,3.1-3.1
					c1.1-0.2,2.9,1.2,3.6,2.3c2.2,3.2,2.3,6.4,1.1,10.6c-2,7,1.5,13.2,6.2,18.6c4.1,4.6,4.6,9.6,1.6,14.1c-2.3,3.5-5.3,3.8-8.6,1.7
					c-7.8-5.2-9.3-4.7-14.2,4c-0.9,1.6-3.5,3.3-5.2,3.2c-1.3-0.1-2.6-2.8-3.7-4.5C314.7,471.6,315,470.4,315,470.3z"/>
				<path d="M370.2,575.6c-1,3.3-2,6.6-3,9.9c-0.3,1.1-1.1,2.2-1.1,3.2c-0.4,8.5-0.7,17.1-1,25.6c-0.1,2.1-0.1,4.5-1,6.3
					c-0.7,1.4-2.7,2.8-4.1,2.8c-1.3,0-2.9-1.8-3.7-3.2c-1.2-1.9-2.2-4.1-2.7-6.3c-0.5-1.9-0.6-4.1-0.3-6.1c0.7-5.2,2-10.3,2.6-15.5
					c1-9.4,1.5-18.8,2.5-28.2c0.4-3.6,2.1-6.4,6.5-5.9c4.4,0.6,4.1,4,4.2,7.2c0.1,3.3,0.3,6.6,0.5,9.9
					C369.8,575.5,370,575.5,370.2,575.6z"/>
				<path d="M430.9,611.6c-0.5-12.2-1.3-23.3-1.4-34.4c0-6.1,0.8-12.2,1.9-18.2c0.3-1.8,3.1-3.1,4.8-4.7c2.1,2.8,6.4,6,5.9,8.2
					c-3.9,17.3-1.2,34.8-2.7,52.1c-0.2,2-2.4,5.1-4.2,5.5c-3.2,0.7-4.4-2.2-4.4-5.2C430.9,613.5,430.9,612,430.9,611.6z"/>
				<path d="M457,326.4c-0.3-4.8-0.7-9.6-0.9-14.4c-0.2-3.1,0.9-5.8,4.3-6.3c3.5-0.4,5.4,2,5.5,5.1c0.2,6.6,0,13.2-0.2,19.8
					c-0.1,2.6-0.2,5.4-0.8,7.9c-0.4,1.5-1.9,2.6-2.9,3.9c-1.3-1.1-3.4-2-3.7-3.3c-1-4.2-1.3-8.5-1.9-12.8
					C456.6,326.4,456.8,326.4,457,326.4z"/>
				<path d="M449,644.5c-0.2,4.4-4,8.5-7.7,8.2c-5.5-0.4-12-6.5-11.8-11c0.2-4.9,4.5-9.7,8.5-9.4C443.7,632.7,449.3,638.8,449,644.5
					z"/>
				<path d="M350.2,315.6c-1.4,7.7-2.5,15.6-4.4,23.4c-0.4,1.8-3.3,2.9-5.1,4.3c-0.9-2-1.9-3.9-2.6-6c-0.2-0.7-0.1-1.8,0.3-2.4
					c3.9-7,4.4-14.5,3.7-22.2c-0.2-2.8,0.2-6,3.6-5.9c1.4,0,2.9,3.2,4,5.1C350.2,312.8,350,314.2,350.2,315.6z"/>
				<path d="M358.5,638.5c0.5,0.1,1,0.1,1.5,0.2c5.5,0.6,9.2,3.3,8.8,6.8c-0.5,4.7-4.1,6.5-8.3,7.2c-4.7,0.8-10-2-11-5.7
					C348.3,642.6,352.9,638.2,358.5,638.5z"/>
				<path d="M373.8,538.4c-3.1,2.2-4.9,4.4-6.3,4.2c-1.9-0.3-4.5-2.3-4.9-4c-0.6-2.5,0.8-5.7,4.3-5.1
					C368.9,533.8,370.6,536,373.8,538.4z"/>
				<path d="M433.6,546.6c-1.5-2.6-3.4-4.4-3-5.4c0.6-1.6,2.6-3.7,4.1-3.8c1.3,0,3.6,2.5,3.6,3.9C438.3,542.8,436,544.2,433.6,546.6
					z"/>
				<path d="M337.2,412.2c0.2-2,0.3-4,0.5-6c0.9,0.1,2.5,0.1,2.5,0.3c0.2,1.9,0.1,3.9,0.1,5.9C339.2,412.4,338.2,412.3,337.2,412.2z
					"/>
			</g>
			<polyline points="337.6,406.3 331.1,424.4 339.3,428.3 340.1,406.6 			"/>
			<polyline points="426.8,444.9 434.4,462.4 423.5,476.9 418.2,476.9 410,475.2 414.6,453.4 			"/>
		</g>
	</g>
</g>
<g id="guides">
</g>
<g id="scratch">
</g>
</svg>
