<?xml version="1.0" encoding="iso-8859-1"?>
<!-- Generator: Adobe Illustrator 26.0.2, SVG Export Plug-In . SVG Version: 6.00 Build 0)  -->
<svg version="1.2" baseProfile="tiny" xmlns="http://www.w3.org/2000/svg" xmlns:xlink="http://www.w3.org/1999/xlink" x="0px"
	 y="0px" width="800px" height="800px" viewBox="0 0 800 800" overflow="visible" xml:space="preserve">
<g id="scan" display="none">
	<image display="inline" width="800" height="800" xlink:href="../images/015f.png" >
	</image>
</g>
<g id="icons">
	<g id="typhoo">
		<g id="template_00000052103428106909289130000016908111142118298797_">
			<g>
				<rect fill="#FFC20E" width="800" height="800"/>
				<rect x="100" y="100" fill="#ED1C24" width="150" height="150"/>
				<rect x="550" y="550" fill="#ED1C24" width="150" height="148"/>
				<g>
					<rect x="125" y="125" fill="none" width="100" height="550"/>
					<path d="M140.4,145.9c10.5-4.5,20.6-10.2,30-17h20.9V242h-24.5v-88c-4.7,3.6-14.1,9.4-26.4,14.4V145.9z"/>
					<path d="M129,363.1l29.3-26.7c5.2-4.7,11-9.9,17-17.2c6.3-7.6,7.8-11.2,7.8-16.4c0-8.6-5-14.4-13.4-14.4
						c-13,0-14.1,13.3-14.3,16.5h-24.8c0-4.5,0-13,6.6-21.2c6.5-8.1,18.5-12.3,32.2-12.3c24.6,0,38.2,13.3,38.2,30.8
						c0,11.7-4.5,26.7-53.5,66.1c16.4-0.3,18.3-0.5,31.1-0.6c17.3-0.3,19.3-0.3,23-0.5V386H129V363.1z"/>
					<path d="M129,507.1l29.3-26.7c5.2-4.7,11-9.9,17-17.2c6.3-7.6,7.8-11.2,7.8-16.4c0-8.6-5-14.4-13.4-14.4
						c-13,0-14.1,13.3-14.3,16.5h-24.8c0-4.5,0-13,6.6-21.2c6.5-8.1,18.5-12.3,32.2-12.3c24.6,0,38.2,13.3,38.2,30.8
						c0,11.7-4.5,26.7-53.5,66.1c16.4-0.3,18.3-0.5,31.1-0.6c17.3-0.3,19.3-0.3,23-0.5V530H129V507.1z"/>
					<path d="M153.2,643.2c0.2,3.6,1.1,15.1,14.6,15.1c9.1,0,14.6-6.6,14.6-15.4c0-16.7-16-16.7-27.9-16.7v-19
						c11.3-0.3,28-0.6,28-16.8c0-8.9-6.6-13.4-13.9-13.4c-7,0-13.8,4.7-13.8,14.1H130c0.5-5,1-12.2,6.6-19.1
						c7.5-9.1,19.4-12.5,31.4-12.5c28.8,0,38.1,18.5,38.1,30.8c0,19-16.7,24.1-21.7,25.6c3.6,1.1,8.3,2.6,13.4,7
						c7.9,6.6,9.2,14.9,9.2,20.3c0,19.1-17.5,33.4-41,33.4c-8.1,0-19.9-1.8-27.2-7.6c-10-8.3-10.4-21.1-10.4-25.6H153.2z"/>
				</g>
				<g>
					<rect x="575" y="125" fill="none" width="100" height="550"/>
					<path d="M603.2,355.2c0.2,3.6,1.1,15.1,14.6,15.1c9.1,0,14.6-6.6,14.6-15.4c0-16.7-16-16.7-27.9-16.7v-19
						c11.3-0.3,28-0.6,28-16.8c0-8.9-6.6-13.4-13.9-13.4c-7,0-13.8,4.7-13.8,14.1H580c0.5-5,1-12.2,6.6-19.1
						c7.5-9.1,19.4-12.5,31.4-12.5c28.8,0,38.1,18.5,38.1,30.8c0,19-16.7,24.1-21.7,25.6c3.6,1.1,8.3,2.6,13.4,7
						c7.9,6.6,9.2,14.9,9.2,20.3c0,19.1-17.5,33.4-41,33.4c-8.1,0-19.9-1.8-27.2-7.6c-10-8.3-10.4-21.1-10.4-25.6H603.2z"/>
					<path d="M603.2,499.2c0.2,3.6,1.1,15.1,14.6,15.1c9.1,0,14.6-6.6,14.6-15.4c0-16.7-16-16.7-27.9-16.7v-19
						c11.3-0.3,28-0.6,28-16.8c0-8.9-6.6-13.4-13.9-13.4c-7,0-13.8,4.7-13.8,14.1H580c0.5-5,1-12.2,6.6-19.1
						c7.5-9.1,19.4-12.5,31.4-12.5c28.8,0,38.1,18.5,38.1,30.8c0,19-16.7,24.1-21.7,25.6c3.6,1.1,8.3,2.6,13.4,7
						c7.9,6.6,9.2,14.9,9.2,20.3c0,19.1-17.5,33.4-41,33.4c-8.1,0-19.9-1.8-27.2-7.6c-10-8.3-10.4-21.1-10.4-25.6H603.2z"/>
					<path d="M579,651.1l29.3-26.7c5.2-4.7,11-9.9,17-17.2c6.3-7.6,7.8-11.2,7.8-16.4c0-8.6-5-14.4-13.4-14.4
						c-13,0-14.1,13.3-14.3,16.5h-24.8c0-4.5,0-13,6.6-21.2c6.5-8.1,18.5-12.3,32.2-12.3c24.6,0,38.2,13.3,38.2,30.8
						c0,11.7-4.5,26.7-53.5,66.1c16.4-0.3,18.3-0.5,31.1-0.6c17.3-0.3,19.3-0.3,23-0.5V674H579V651.1z"/>
				</g>
			</g>
			<g>
				<rect x="125" y="100" fill="none" width="550" height="125"/>
				<path d="M420,123.5v13h-18.1v65h-16.3v-65h-18.1v-13H420z"/>
				<path d="M426.8,201.9l-14.8-55h15.1l7.8,38.3h0.2l8.2-38.3H458L437,222.1h-16L426.8,201.9z"/>
				<path d="M479.5,146.9v6h0.2c2.8-5.3,7-7.1,12.9-7.1c15.8,0,15.2,17.5,15.2,28.7c0,11,0.4,28-14.9,28c-5.5,0-9.3-1.6-12.4-6.3
					h-0.2v28.6H465v-78H479.5z M492.9,173.7c0-10.9,0.1-18.5-6.5-18.5c-6.3,0-6.2,7.6-6.2,18.5c0,13.7,1,19.4,6.2,19.4
					C491.9,193.2,492.9,187.4,492.9,173.7z"/>
				<path d="M545.7,201.5v-37.6c0-4.9-0.9-8.6-5.7-8.6s-5.7,3.8-5.7,8.6v37.6H519v-78h15.2v28.9h0.2c1.5-2.5,3.3-4.1,5.4-5.1
					c2.2-1.1,4.6-1.5,7.5-1.5c7.2,0,13.6,4.3,13.6,11.9v43.7H545.7z"/>
				<path d="M571.8,173.5c0-14.9,2.2-27.6,22.2-27.6s22.2,12.7,22.2,27.6c0,17.1-2.6,29.1-22.2,29.1S571.8,190.6,571.8,173.5z
					 M601,172.7c0-11.3-0.5-17.1-7-17.1s-7,5.7-7,17.1c0,16.6,1.4,20.2,7,20.2C599.6,192.8,601,189.3,601,172.7z"/>
				<path d="M625.8,173.5c0-14.9,2.2-27.6,22.2-27.6s22.2,12.7,22.2,27.6c0,17.1-2.6,29.1-22.2,29.1S625.8,190.6,625.8,173.5z
					 M655,172.7c0-11.3-0.5-17.1-7-17.1s-7,5.7-7,17.1c0,16.6,1.4,20.2,7,20.2C653.6,192.8,655,189.3,655,172.7z"/>
			</g>
		</g>
		<path d="M392.1,651.5c17.6-37.6,15.8-82.8,15.8-124.3c-0.1-0.1-0.2-0.1-0.3-0.2c-0.7,16.3-2.9,32.8-7.7,48
			C392.6,600.3,395.2,625.5,392.1,651.5z"/>
		<path d="M518.2,525.1c-0.7-0.9-1.2-1.9-1.4-2.8c-0.8-3.1,0-6.6,0.3-9.9c1.3-13.2,2.2-26.4,0.7-39.5c-1.4-12.8-2.3-25.8-10.4-37
			c-4.2-5.9-6.5-13.2-9.7-19.9c-0.4-0.9-0.9-1.8-1.5-2.6c-5.6-6.4-11-12.9-16.9-19c-8.4-8.5-21-7.7-27.4,2.2
			c-5,7.6-8.9,15.8-13.3,23.8c-2.8,5.2-4.5,11.6-8.5,15.5c-12.1,11.9-27.6,15.3-43.8,12.6c-6.3-1-13.3-2.8-18.2-8.3
			c-2.6-2.9-5.9-5.2-8.6-8c-1.9-2-4.2-4.2-4.8-6.8c-2.1-8.5-4.3-17.1-5.1-25.8c-0.9-9.8-11.2-13.8-19.2-7.3
			c-4.6,3.7-9,7.9-14.1,10.7c-6.9,3.8-9.8,9.7-10.8,16.9c-0.9,7.1-2.3,14.2-2.4,21.3c-0.2,10.6-7,18.9-9,29.1
			c-2.4,11.8-2.2,24.2-8.1,35.7c-3.1,6-1,14.7-1.2,22.2c-0.1,5.1-0.3,10.3,0.1,15.4c0.3,3.9,0.6,8.1,2.4,11.3
			c2.4,4.3,2.7,7.9,0.7,12.2c-0.6,1.3-0.9,2.8-1,4.2c-0.5,7.9-0.6,15.8-1.3,23.7c-0.7,8.6-1.9,17.2-2.8,25.8
			c-0.5,4.6-1.3,9.1-1.6,13.7c-0.6,6.9-2.1,14.1-1,20.7c1.4,8.9,16.2,14,24.1,9.1c3.6-2.3,8.1-4.7,7.7-9.7
			c-0.7-8.9-0.6-18.4-3.8-26.5c-5.5-14-5.3-28-3.9-42.2c1.4-14,3.9-28,6.2-41.9c0.4-2.7,1.7-5.4,3-7.8c4.2-8,8.5-15.9,13-23.7
			c1-1.8,3.5-4.4,4.7-4.1c2.2,0.5,4.8,2.6,5.5,4.6c0.7,2-0.5,4.7-1.1,7.1c-1.1,4.6-3.2,9.2-3.1,13.8c0.3,16.6-1.7,33.1-0.5,49.6
			c0.2,2.2-0.8,4.6-1.1,6.9c-0.4,2.8-1,5.6-0.8,8.3c0.6,8.9,1.4,17.8,2.3,26.7c1.1,10.4-0.6,21.4,8.7,29.6c4,3.6,7.9,3.6,12.4,2.7
			c4.1-0.8,8.3-3,8.4-7.4c0.2-6-0.3-12.4-2.3-18c-1.9-5.3-2.3-10.1-2-15.5c0.3-5.6-0.2-11.2-0.4-16.9c-0.2-4.5-0.9-8.9-0.9-13.4
			c0.2-11.6,0.4-23.1,1.1-34.7c0.2-2.6,2-5.7,4-7.2c1-0.8,4.6,0.9,6.4,2.2c5.9,4.5,6,11.1,5.8,17.7c-0.4,12.3-0.8,24.6-1.2,36.9
			c-0.3,7.6-0.5,15.2-0.7,22.9c-0.1,2.5-0.4,5-0.3,7.4c0.2,6.3,0.7,12.5,0.9,18.8c0.1,3.3,0.9,6.1,4.5,6.8c3.7,0.8,6-1.3,7.4-4.5
			c0.4-0.9,0.6-1.9,0.7-2.9c1.1-9.4,2.7-18.7,3.2-28.1c0.8-17.6,0.8-35.3,1.5-52.9c0.2-4.6-0.4-10.3,4.8-12.8
			c3.8-1.8,8.2-2.6,12.4-3.1c1.6-0.2,4.4,1.4,5,2.9c1.2,2.8,1.6,6.1,1.6,9.1c0,8.1-0.4,16.3-0.8,24.4c-0.5,10.5-1.2,21.1-1.8,31.6
			c-0.1,0.9-1.1,1.8-1.2,2.7c-0.9,9.7-1.9,19.4-2.3,29.1c-0.1,1.5,2.2,3.9,3.9,4.4c5.5,1.9,13.9-3.7,14.9-9.5
			c1.4-9.1,2.7-18.3,4.1-27.4c1-6.2,2.4-12.4,3.1-18.6c1-9.3,1.5-18.6,2-27.9c0.3-5.9,0.4-11.9,0.5-17.9c0-3.6,4.2-8.5,7.6-8.7
			c1,0,2.7,1,2.9,1.8c0.9,3.7,2,7.4,1.8,11.1c-0.8,13,0.8,26.3-2.8,39.1c-0.3,1.2-0.1,2.7-0.2,4c-0.7,10-2.4,19.6-6.8,28.8
			c-1.7,3.6-2.6,8-2.3,12c0.4,5.5,7,10.3,10.5,7.8c3.8-2.8,6.9-6.9,9.4-11c2-3.3,3-7.3,4-11.1c1.6-5.7,3.8-11.4,4.1-17.2
			c0.7-11.6,0.3-23.2,0.3-34.8c0-8.6,0.4-17.3-0.2-25.9c-0.8-11.8,1.9-22.5,7.5-32.8c1.4-2.5,2.8-3.2,5.6-2
			c7.9,3.4,9.8,10.3,10.9,17.8c0.7,4.6,1.2,9.2,1.9,13.8c0.7,4.7,2.6,9.5,2.1,14.1c-1.3,12.6,2.4,25.6-2.3,38c-0.3,0.8,0,2,0.2,3
			c1.2,5.4-1.2,9.7-4,13.9c-4.3,6.2-9,12.3-12.8,18.8c-7.4,12.6,0,20,10.2,23.3c7.9,2.6,14.2-1.5,19.8-6.6c0.4-0.4,0.8-0.6,1.1-0.9
			c0-0.3,0.1-0.7,0.1-1c-0.1,0.2-0.1,0.3-0.2,0.5c0.1-0.2,0.2-0.3,0.2-0.5c3.1-26,0.6-51.2,7.8-76.5c4.8-15.2,7-31.8,7.7-48
			C519.4,526.5,518.8,525.8,518.2,525.1"/>
		<path d="M407.5,527.6c-0.2-0.1-0.5-0.2-0.7-0.4c0,41.5,1.8,86.8-15.8,124.3c0,0.3-0.1,0.7-0.1,1c2-1.2,3.6-0.6,5.1,1.4
			c0.1,0.1,0.1,0.2,0.2,0.3C410.5,613.6,410.6,569.6,407.5,527.6z"/>
		<path d="M380,313c7.3,0,14.7-0.3,22,0.1c4.4,0.2,8.7,1.5,13.1,2.3c1.5,0.3,2.9,1,4.4,1.1c12.6,0.4,25.1,0.3,37.7,1.1
			c3.6,0.2,7.2,2.7,10.4,4.7c4,2.5,8,5.2,11.3,8.5c7.6,7.6,8.7,18.9,3.1,27.9c-2.7,4.4-5.5,8.5-10.7,10.6c-3.9,1.6-7.3,4.6-11.1,6.5
			c-3.2,1.6-6.8,3.7-10.2,3.7c-5.7-0.1-7.9,3.2-10.6,7.3c-7,11-14.4,21.7-21.7,32.6c-0.7,1.1-2,2.1-2.2,3.2
			c-1.8,9.5-9.3,11.5-17.1,13.5c-6,1.5-11.7,4-18.3,2.8c-6.8-1.2-14.7-7.1-16.7-13.8c-0.2-0.8-0.4-1.7-0.9-2.3
			c-5.7-7.1-5-15.5-5-23.8c0-5-0.2-10-0.7-14.9c-0.5-5.5-4.1-8.6-8.9-10.4c-7.5-2.7-14.9-5.2-21.4-10.2
			c-6.4-4.9-11.4-10.1-10.9-18.9c0.1-1.8-0.3-3.6-0.6-5.4c-1-5.9,0.8-10.4,5.6-14.4c10.7-8.9,22.9-12.2,36.4-12c7.7,0.1,15.3,0,23,0
			C380,312.9,380,313,380,313z M351.6,351.4c-0.2-8.5-6-15.6-12.2-15.8c-2.1-0.1-5.1,1.2-6.2,2.9c-1,1.6-1,5.1,0.1,6.7
			c2.5,3.6,5.8,6.8,9.2,9.7c1.6,1.4,5.1,3,5.9,2.3C350.2,355.4,351,352.5,351.6,351.4z M465.5,349.4c-1.6-1.4-2.9-2.7-3-2.6
			c-1.6,1.5-3.1,3-4.5,4.8c-0.1,0.1,1.7,2.1,1.8,2C461.6,352.5,463.3,351.1,465.5,349.4z"/>
	</g>
</g>
<g id="guides">
</g>
<g id="scratch">
</g>
</svg>
