<?xml version="1.0" encoding="iso-8859-1"?>
<!-- Generator: Adobe Illustrator 26.0.2, SVG Export Plug-In . SVG Version: 6.00 Build 0)  -->
<svg version="1.2" baseProfile="tiny" xmlns="http://www.w3.org/2000/svg" xmlns:xlink="http://www.w3.org/1999/xlink" x="0px"
	 y="0px" width="800px" height="800px" viewBox="0 0 800 800" overflow="visible" xml:space="preserve">
<g id="scan" display="none">
	<image display="inline" width="800" height="800" xlink:href="../images/011f.png" >
	</image>
</g>
<g id="icons">
	<g id="mother">
		<g>
			<rect fill="#FFC20E" width="800" height="800"/>
			<g>
				<rect x="125" y="125" fill="none" width="100" height="550"/>
				<path d="M153.2,211.2c0.2,3.6,1.1,15.1,14.6,15.1c9.1,0,14.6-6.6,14.6-15.4c0-16.7-16-16.7-27.9-16.7v-19
					c11.3-0.3,28-0.6,28-16.8c0-8.9-6.6-13.4-13.9-13.4c-7,0-13.8,4.7-13.8,14.1H130c0.5-5,1-12.2,6.6-19.1
					c7.5-9.1,19.4-12.5,31.4-12.5c28.8,0,38.1,18.5,38.1,30.8c0,19-16.7,24.1-21.7,25.6c3.6,1.1,8.3,2.6,13.4,7
					c7.9,6.6,9.2,14.9,9.2,20.3c0,19.1-17.5,33.4-41,33.4c-8.1,0-19.9-1.8-27.2-7.6c-10-8.3-10.4-21.1-10.4-25.6H153.2z"/>
				<path d="M170.5,271.3c15.9,0,25.3,8.6,29.5,14.9c5.8,8.6,10.2,19.6,10.2,40.8c0,26.2-6,60.8-40,60.8c-29,0-39-27.9-39-58
					C131.2,314.7,134.2,271.3,170.5,271.3z M183,303.2c-0.6-3.1-3.4-13.1-12.3-13.1c-7,0-10,6.3-11.2,9.7
					c-3.7,11.5-3.7,28.8-3.7,31.6c0,19.3,2.9,37.3,15.1,37.3c13,0,15.1-22,15.1-37.6C185.9,323.9,185.1,310.6,183,303.2z"/>
				<path d="M140.4,433.9c10.5-4.5,20.6-10.2,30-17h20.9V530h-24.5v-88c-4.7,3.6-14.1,9.4-26.4,14.4V433.9z"/>
				<path d="M153.2,643.2c0.2,3.6,1.1,15.1,14.6,15.1c9.1,0,14.6-6.6,14.6-15.4c0-16.7-16-16.7-27.9-16.7v-19
					c11.3-0.3,28-0.6,28-16.8c0-8.9-6.6-13.4-13.9-13.4c-7,0-13.8,4.7-13.8,14.1H130c0.5-5,1-12.2,6.6-19.1
					c7.5-9.1,19.4-12.5,31.4-12.5c28.8,0,38.1,18.5,38.1,30.8c0,19-16.7,24.1-21.7,25.6c3.6,1.1,8.3,2.6,13.4,7
					c7.9,6.6,9.2,14.9,9.2,20.3c0,19.1-17.5,33.4-41,33.4c-8.1,0-19.9-1.8-27.2-7.6c-10-8.3-10.4-21.1-10.4-25.6H153.2z"/>
			</g>
			<g>
				<rect x="575" y="125" fill="none" width="100" height="550"/>
				<path d="M579.1,363.1l29.3-26.7c5.2-4.7,11-9.9,17-17.2c6.3-7.6,7.8-11.2,7.8-16.4c0-8.6-5-14.4-13.4-14.4
					c-13,0-14.1,13.3-14.3,16.5h-24.8c0-4.5,0-13,6.6-21.2c6.5-8.1,18.5-12.3,32.2-12.3c24.6,0,38.2,13.3,38.2,30.8
					c0,11.7-4.5,26.7-53.5,66.1c16.4-0.3,18.3-0.5,31.1-0.6c17.3-0.3,19.3-0.3,23-0.5V386h-79.4V363.1z"/>
				<path d="M603.2,499.2c0.2,3.6,1.1,15.1,14.6,15.1c9.1,0,14.6-6.6,14.6-15.4c0-16.7-16-16.7-27.9-16.7v-19
					c11.3-0.3,28-0.6,28-16.8c0-8.9-6.6-13.4-13.9-13.4c-7,0-13.8,4.7-13.8,14.1H580c0.5-5,1-12.2,6.6-19.1
					c7.5-9.1,19.4-12.5,31.4-12.5c28.8,0,38.1,18.5,38.1,30.8c0,19-16.7,24.1-21.7,25.6c3.6,1.1,8.3,2.6,13.4,7
					c7.9,6.6,9.2,14.9,9.2,20.3c0,19.1-17.5,33.4-41,33.4c-8.1,0-19.9-1.8-27.2-7.6c-10-8.3-10.4-21.1-10.4-25.6H603.2z"/>
				<path d="M620.5,559.3c15.9,0,25.3,8.6,29.5,14.9c5.8,8.6,10.2,19.6,10.2,40.8c0,26.2-6,60.8-40,60.8c-29,0-39-27.9-39-58
					C581.2,602.7,584.2,559.3,620.5,559.3z M633,591.2c-0.6-3.1-3.4-13.1-12.3-13.1c-7,0-10,6.3-11.2,9.7
					c-3.7,11.5-3.7,28.8-3.7,31.6c0,19.3,2.9,37.3,15.1,37.3c13,0,15.1-22,15.1-37.6C635.9,611.9,635.1,598.6,633,591.2z"/>
			</g>
			<g>
				<rect x="125" y="100" fill="none" width="550" height="125"/>
				<path d="M363.5,201.5v-78h26.2l12.2,53h0.2l13-53h25.4v78h-15.9v-60.2h-0.2l-15,60.2h-15.6l-14.3-60.2h-0.2v60.2H363.5z"/>
				<path d="M451.8,173.5c0-14.9,2.2-27.6,22.2-27.6c20.1,0,22.2,12.7,22.2,27.6c0,17.1-2.6,29.1-22.2,29.1
					C454.4,202.6,451.8,190.6,451.8,173.5z M481,172.7c0-11.3-0.5-17.1-7-17.1c-6.5,0-7,5.7-7,17.1c0,16.6,1.4,20.2,7,20.2
					C479.6,192.8,481,189.3,481,172.7z"/>
				<path d="M500.9,146.9h6.2v-8.6l15.2-6.8v15.4h7.9v9.4h-7.9v29.2c0,4.1-0.1,6.8,4.9,6.8c1,0,1.9,0,2.7-0.2v9.4
					c-2.1,0.2-4.2,0.5-7.9,0.5c-13.2,0-14.9-8.7-14.9-12.1v-33.6h-6.2V146.9z"/>
				<path d="M563.8,201.5v-37.6c0-4.9-0.9-8.6-5.7-8.6c-4.9,0-5.7,3.8-5.7,8.6v37.6h-15.2v-78h15.2v28.9h0.2
					c1.5-2.5,3.3-4.1,5.4-5.1c2.2-1.1,4.6-1.5,7.5-1.5c7.2,0,13.6,4.3,13.6,11.9v43.7H563.8z"/>
				<path d="M605.1,176.6c0,6.5,0.2,16.2,6.9,16.2c5.4,0,6.5-5.2,6.5-9.7H634c-0.2,5.9-2.2,10.8-5.8,14.1c-3.6,3.3-9,5.3-16.1,5.3
					c-19.7,0-22.2-12-22.2-29.1c0-14.9,2.2-27.6,22.2-27.6c20.5,0,22.8,13.3,22.2,30.8H605.1z M619.1,168.1c0-5.3,0.2-12.9-7-12.9
					c-7,0-6.9,8.2-6.9,12.9H619.1z"/>
				<path d="M659.6,146.9v7h0.2c2.8-6.3,8-8.1,14.1-8.1v13.6c-13.4-0.9-13.6,6.9-13.6,12.3v29.7h-15.2v-54.5H659.6z"/>
			</g>
		</g>
		<g>
			<g>
				<path fill="#010101" d="M323.8,317.9c8.2-2.4,17.1-1.6,25.5-0.7c5.7,4,10.7,9.4,17.8,11c0.5,2.7,0.9,5.5,1.4,8.2
					c2.7,0.6,5.5,1.1,8.2,1.7c0.6,3.1,1.2,6.2,1.8,9.3c4.8-0.5,10.6,1.1,14.3-2.9c11.4-9.8,25.9-15,39.1-22
					c12.1-1.5,24.4-1.3,36.5-0.2c9.2,3.2,19.1,5,27.4,10.5c6.7,8.7,14.1,17.4,17.8,27.9c2.3,11.2,7.1,22.3,5.5,33.8
					c-2.7,8.7-10.2,16-9.7,25.7c-0.2,13.6,0.1,27.3-0.1,40.9c-0.6,12.4,4.8,23.9,8.3,35.5c-1,2.4-2,4.8-2.9,7.2
					c5.6,12.4-5,23.9-10.8,34c12.9,7.5,25.6,16.1,34.3,28.5c8,13.9,16.9,27.5,20.6,43.3c-3.3-0.2-6.5-0.2-9.7-0.7
					c-6.1-9.5-8.3-21.3-16.9-29.2c-9.1-9.2-13.2-27.2-29.1-25.7c1,5,3,9.8,5.9,14.1c-1.2,1.5-2.4,3-3.6,4.5
					c7.5,8.1,14.9,16.2,23,23.7c2.9,3.3,7.4,3.6,11.3,4.9c0,3.2,0,6.3,0,9.5c-6.9-0.3-14.2-1-18.8-6.7
					c-10.5-11.5-24.4-20.8-30.2-35.8c-1.7-5.6-1.2-11.6-2.6-17.2c-7.7-8.4-16.4-15.8-24.2-24.1c-2.6-3.1-7.1-2.3-10.7-3.1
					c2.7,10.7,5.6,21.5,6.6,32.5c4.1,10.9,12.7,19.2,20.4,27.7c5.5,5.5,3.6,13.9,4.3,20.8c-11.3-0.6-22.1,2.7-33.1,4.6
					c-15.2-2-31.2-7.5-46.2-2.5c-8.3,4.8-18.1,3.3-27.2,3c-28.3-2.5-56.7,2.3-85-0.2c-6.7-3.2-7.8-12.1-4.8-18.1
					c12.6-15.7,26.1-32.5,29.7-52.9c-4.7,1.7-9.3,3.7-13.9,5.7c-1.5-1.4-3-2.9-4.5-4.3c-4,7.3-7.3,15-8.9,23.3
					c-4.1,10.4-12,22.7-24.6,22.1c4-13.4,7.6-26.9,5.7-41c-3.3,0-6.5,0-9.7,0c0.6,9-1.4,17.6-4.5,25.9c-0.6,11.1-5.6,21.1-11.5,30.3
					c1.6,2.6,3.2,5.1,4.8,7.7c-3,2.7-5.9,5.5-8.9,8.1c-0.3-8.8-2.1-18.3,2.1-26.5c4.1-8.6,1.3-18.7,5.1-27.4
					c3.4-8.6,1.4-18.6,6.5-26.7c-2.9-0.6-5.9-1.3-8.8-1.9c-0.2-3.1-0.3-6.2-0.4-9.3c3.4-0.3,6.8-0.5,10.2-0.8
					c-0.1-26,0.1-52.1-0.1-78.1c-1.6-16.8,10-30.9,11.1-47.4c3.4-8.1,9.7-14.8,11.1-23.9c9.4-10.6,12.3-25.6,23.4-34.9
					C309.5,332.4,316.2,324.7,323.8,317.9z M313.9,338.6c-6.1,12.4-17.3,21.4-22.6,34.3c10.2,0.5,15.3-9.4,24-12.7
					c11-4.5,22.5-9.8,34.7-8.2c6.4,0.2,10.6,5.7,15.4,9.2c2.6-2,5.1-4,7.7-6c-8.6-12.5-17.3-27.7-33.2-31.4
					C330,326.3,323,334.4,313.9,338.6z M452.3,332c6.2,6.7,15.8,8.3,22.9,13.8c6.4,5.1,16.3,7.9,18.3,16.9c1.7,7.4,5.6,14,9.7,20.4
					c0.8-7.5,1.9-15.1,0.9-22.7c-6.2-8.1-13.2-15.9-21.6-21.7C472.7,335.6,463,330.6,452.3,332z M404.5,347.5c-3,3-5.3,6.6-7.4,10.2
					c8.5-0.3,16.1-4.6,22.4-10.1C414.5,347.3,409.4,346.8,404.5,347.5z M417.7,364.8c9.9,10,23.2,15.7,32.4,26.4
					c12.9,11.3,21,27.1,24.8,43.6c1.1,3.9,4.3,6.9,6.5,10.2c8.9-11.2,17.6-26,11.1-40.6c-4.1-7.3-2.9-15.7-4-23.7
					c-4.7-13.4-15.5-23.4-26.4-31.9C445.4,341.5,428.8,353,417.7,364.8z M308.3,378.6c-12.9,14.1-29.7,25.6-36.8,44.2
					c-6.6,9.2-4.8,20.6-3.6,31.1c7.8-12.3,12.7-26.4,22.7-37.3c7.2-9.7,13.3-20.4,23.2-27.6c6.4-1.9,13.9-1.2,19.3-5.7
					c7.7-6.6,19.2-5.4,25.9-13.7c-5.1-3.2-10-7.7-16.5-7.5C329,360.5,317,369.1,308.3,378.6z M322.6,400.2
					c-6.4,5.4-15,8.5-19.1,16.3c-4.4,7.3-10.8,13.1-15.7,20c-1.8,11.4-3.6,25.3,6.8,33.2c7.1-8.7,12.6-19,14-30.3
					c2.4-0.8,4.9-1.6,7.3-2.4c2.4-15,9.9-29.6,22.1-39C332.9,398.4,326.8,396.2,322.6,400.2z M444,406.3c-0.5,7.4-0.8,15,1.6,22.1
					c4.2,13.7,1.1,28.6,5.5,42.2c5.1,14.5,1.4,30,3.4,44.9c8.8-7,9-18.2,10.7-28.2c5.6-12,4.5-25.8,3-38.5
					c-3.6-10.2-8.7-19.7-13-29.6C453.1,413.7,448.4,409.9,444,406.3z M367.9,425.4c2.7,2.4,4.8,5.6,8.1,7.2
					c9.1,1.1,18.2,0.4,27.3,0.4c0-5,0-10,0-15C391.2,417.5,375.8,413.6,367.9,425.4z M315.5,461.5c-6.1,7.1-11.3,16.2-7.5,25.8
					c3.7,4.6,8.5,8.2,13,12.1c8.6-18.1,6.7-38.2,6-57.6C319,445.7,317.3,453.8,315.5,461.5z M267.1,462.2
					c-0.7,19.8-0.4,39.5-0.4,59.3c-0.8,6,4.5,9.7,7.8,13.9c12-14.8,14.5-35.2,12-53.6C281.8,473.9,273.9,468.3,267.1,462.2z
					 M484.8,464.1c-0.2,3.6-0.5,7.3-0.7,11c11.7,11.8-2,32.1,11.2,43c2.9,0.5,5.8,0.9,8.7,1.1c0.1-6.2-0.3-12.4-2-18.4
					c0.4-1.2,0.9-2.5,1.3-3.7c-5.4-10.5-4.2-23-10.1-33.5C490.5,463.7,487.6,463.9,484.8,464.1z M468.2,504.1
					c1,8.1,4.1,16,10.3,21.5c0.5-7.2,0.5-14.4,0.4-21.7C475.4,504,471.8,504,468.2,504.1z M297.1,519c0,1.3,0,3.8,0,5.1
					c3.2-0.1,6.4-0.2,9.7-0.3c0-1.1,0-3.4,0-4.5C303.6,519.2,300.4,519.1,297.1,519z M302.5,590.2c-1.3,4.1,0.1,5.5,4.2,4.2
					C308,590.3,306.6,588.9,302.5,590.2z"/>
			</g>
		</g>
	</g>
</g>
<g id="guides">
</g>
<g id="scratch">
</g>
</svg>
