<svg version="1.2" baseProfile="tiny" xmlns="http://www.w3.org/2000/svg" viewBox="0 0 75 75" overflow="visible" xml:space="preserve"><path fill="#818181" d="M0 0h75v75H0z"/><path fill="#010101" d="M34.9 52.2c1-.4 2-1 3-1.7H40v11.2h-2.5V53c-.5.4-1.4.9-2.6 1.4v-2.2z"/><g fill="#010101"><path d="M37.846 11.162c4.501 0 8.732 1.75 11.914 4.932s4.933 7.413 4.933 11.915-1.75 8.732-4.933 11.915-7.413 4.932-11.914 4.932-8.733-1.75-11.915-4.932-4.933-7.413-4.933-11.915 1.75-8.732 4.933-11.915 7.413-4.932 11.915-4.932m0-1.872c-10.343 0-18.72 8.377-18.72 18.719s8.377 18.719 18.72 18.719 18.718-8.377 18.718-18.72S48.188 9.29 37.846 9.29z"/><path d="M33.1 9.88c-8.077 2.077-14.039 9.406-14.039 18.129s5.962 16.051 14.04 18.13V9.878z"/></g></svg>