<svg version="1.2" baseProfile="tiny" xmlns="http://www.w3.org/2000/svg" viewBox="0 0 75 75" overflow="visible" xml:space="preserve"><path fill="#818181" d="M0 0h75v75H0z"/><path fill="#010101" d="M34.1 53.4c0-1.4 1.1-3.1 3.9-3.1 2.2 0 3.8 1.3 3.8 3 0 1.3-1.1 2.3-2.2 2.4.4.1 1.2.3 1.8 1.2.4.5.5 1.1.5 1.7 0 2-1.9 3.2-4.1 3.2-2.3 0-3.8-1.5-3.8-3.2 0-.9.3-1.5.8-2s1.1-.7 1.5-.8c-.7-.2-2.2-.7-2.2-2.4zm5.4 5c0-1-.8-1.6-1.6-1.6-.9 0-1.6.7-1.6 1.6 0 1.1.8 1.7 1.6 1.7.7 0 1.6-.4 1.6-1.7zm-.1-5c0-.9-.7-1.4-1.5-1.4s-1.5.5-1.5 1.4c0 .8.6 1.4 1.4 1.4.9.1 1.6-.5 1.6-1.4z"/><g fill="#010101"><path d="M37.846 11.162c4.502 0 8.732 1.75 11.915 4.932 3.182 3.183 4.932 7.413 4.932 11.915s-1.75 8.732-4.932 11.915a16.736 16.736 0 0 1-11.915 4.932c-4.502 0-8.732-1.75-11.915-4.932S21 32.51 21 28.009s1.75-8.732 4.932-11.915 7.413-4.932 11.915-4.932m0-1.872c-10.342 0-18.719 8.377-18.719 18.719s8.377 18.719 18.719 18.719 18.719-8.377 18.719-18.72S48.188 9.29 37.845 9.29z"/><path d="M33.1 9.88c-8.077 2.077-14.038 9.406-14.038 18.129S25.023 44.06 33.1 46.139V9.878z"/></g></svg>