<svg version="1.2" baseProfile="tiny" xmlns="http://www.w3.org/2000/svg" viewBox="0 0 75 75" overflow="visible" xml:space="preserve"><path fill="#818181" d="M0 0h75v75H0z"/><path fill="#010101" d="m33.8 59.4 2.9-2.6c.5-.5 1.1-1 1.7-1.7.6-.8.8-1.1.8-1.6 0-.8-.5-1.4-1.3-1.4-1.3 0-1.4 1.3-1.4 1.6h-2.4c0-.4 0-1.3.7-2.1.6-.8 1.8-1.2 3.2-1.2 2.4 0 3.8 1.3 3.8 3 0 1.2-.4 2.6-5.3 6.5 1.6 0 1.8 0 3.1-.1h2.3v1.9h-7.8v-2.3z"/><g fill="#010101"><path d="M37.848 11.162c4.502 0 8.733 1.75 11.915 4.932s4.932 7.413 4.932 11.915-1.75 8.732-4.932 11.915-7.413 4.932-11.915 4.932-8.732-1.75-11.914-4.932S21 32.51 21 28.009s1.75-8.732 4.933-11.915 7.412-4.932 11.914-4.932m0-1.872c-10.342 0-18.719 8.377-18.719 18.719s8.377 18.719 18.72 18.719 18.718-8.377 18.718-18.72S48.19 9.29 37.848 9.29z"/><path d="M33.103 9.88c-8.077 2.077-14.04 9.406-14.04 18.129s5.963 16.051 14.04 18.13V9.878z"/></g></svg>