<svg version="1.2" baseProfile="tiny" xmlns="http://www.w3.org/2000/svg" viewBox="0 0 75 75" overflow="visible" xml:space="preserve"><path fill="#818181" d="M0 0h75v75H0z"/><path fill="#010101" d="M34 50.5h7.6v2l-3.8 9.2h-2.7l4.1-9.3h-5.1v-1.9z"/><g fill="#010101"><path d="M37.843 11.162c4.502 0 8.733 1.75 11.915 4.932 3.182 3.183 4.932 7.413 4.932 11.915s-1.75 8.732-4.932 11.915a16.736 16.736 0 0 1-11.915 4.932c-4.502 0-8.732-1.75-11.914-4.932-3.183-3.183-4.933-7.413-4.933-11.915s1.75-8.732 4.933-11.915a16.736 16.736 0 0 1 11.914-4.932m0-1.872c-10.342 0-18.719 8.377-18.719 18.719s8.377 18.719 18.72 18.719c10.341 0 18.718-8.377 18.718-18.72S48.185 9.29 37.843 9.29z"/><path d="M33.098 9.88c-8.077 2.077-14.04 9.406-14.04 18.129s5.963 16.051 14.04 18.13V9.878z"/></g></svg>