<svg version="1.2" baseProfile="tiny" xmlns="http://www.w3.org/2000/svg" viewBox="0 0 75 75" overflow="visible" xml:space="preserve"><path fill="#818181" d="M0 0h75v75H0z"/><path fill="#010101" d="M36.4 58.9c.1.7.5 1.1 1.2 1.1 1.7 0 1.8-1.7 1.7-3.3-.8.7-1.5.8-2 .8-2.7 0-3.4-2.2-3.4-3.5 0-2.1 1.5-3.7 4-3.7 3.8 0 3.9 3.6 3.9 5.4 0 4.7-1.6 6.1-4.3 6.1-.6 0-3.5 0-3.5-2.9h2.4zm2.8-5c0-1-.5-1.7-1.5-1.7-1.1 0-1.6.9-1.6 1.8 0 .4.1 1.8 1.5 1.8 1.3-.1 1.6-1.2 1.6-1.9z"/><g fill="#010101"><path d="M37.849 11.162c4.502 0 8.732 1.75 11.914 4.932 3.182 3.183 4.933 7.413 4.933 11.915s-1.75 8.732-4.933 11.915a16.736 16.736 0 0 1-11.914 4.932c-4.502 0-8.733-1.75-11.915-4.932s-4.932-7.413-4.932-11.915 1.75-8.732 4.932-11.915 7.413-4.932 11.915-4.932m0-1.872c-10.343 0-18.72 8.377-18.72 18.719s8.377 18.719 18.72 18.719 18.719-8.377 18.719-18.72S48.19 9.29 37.848 9.29z"/><path d="M33.103 9.88c-8.077 2.077-14.039 9.406-14.039 18.129s5.962 16.051 14.04 18.13V9.878z"/></g></svg>