<svg version="1.2" baseProfile="tiny" xmlns="http://www.w3.org/2000/svg" viewBox="0 0 75 75" overflow="visible" xml:space="preserve"><path fill="#818181" d="M0 0h75v75H0z"/><path fill="#010101" d="M36.3 58.9c0 .3.2 1.2 1.3 1.2.9 0 1.6-.6 1.6-2.1 0-1.1-.4-2-1.5-2s-1.3.9-1.4 1.1L34 57l.3-6.6h6.8v1.8h-4.7l-.1 2.8c.4-.3.9-.8 2.1-.8 1.8 0 3.3 1.3 3.3 3.6 0 1.9-1.1 4-4 4-1.2 0-2.4-.3-3.1-1.2-.6-.7-.6-1.4-.6-1.8h2.3z"/><g fill="#010101"><path d="M37.847 11.162c4.502 0 8.732 1.75 11.915 4.932 3.182 3.183 4.932 7.413 4.932 11.915s-1.75 8.732-4.932 11.915a16.736 16.736 0 0 1-11.915 4.932c-4.502 0-8.732-1.75-11.914-4.932S21 32.51 21 28.009s1.75-8.732 4.933-11.915 7.412-4.932 11.914-4.932m0-1.872c-10.342 0-18.719 8.377-18.719 18.719s8.377 18.719 18.72 18.719c10.341 0 18.718-8.377 18.718-18.72S48.189 9.29 37.847 9.29z"/><path d="M33.102 9.88c-8.077 2.077-14.04 9.406-14.04 18.129s5.963 16.051 14.04 18.13V9.878z"/></g></svg>