<svg version="1.2" baseProfile="tiny" xmlns="http://www.w3.org/2000/svg" viewBox="0 0 75 75" overflow="visible" xml:space="preserve"><path fill="#818181" d="M0 0h75v75H0z"/><path d="M31.2 52.2c1-.4 2-1 3-1.7h2.1v11.2h-2.4V53c-.5.4-1.4.9-2.6 1.4v-2.2zm7.4 0c1-.4 2-1 3-1.7h2.1v11.2h-2.4V53c-.5.4-1.4.9-2.6 1.4v-2.2z" fill="#010101"/><g fill="#010101"><path d="M37.846 11.155c4.501 0 8.732 1.75 11.914 4.933a16.736 16.736 0 0 1 4.933 11.914c0 4.502-1.75 8.733-4.933 11.915-3.182 3.182-7.413 4.932-11.914 4.932s-8.733-1.75-11.915-4.932c-3.182-3.182-4.933-7.413-4.933-11.915s1.75-8.732 4.933-11.914 7.413-4.933 11.915-4.933m0-1.872c-10.343 0-18.72 8.377-18.72 18.72s8.377 18.718 18.72 18.718 18.718-8.376 18.718-18.719S48.188 9.283 37.846 9.283z"/><path d="M33.1 9.873c-8.077 2.078-14.039 9.406-14.039 18.13 0 8.722 5.962 16.05 14.04 18.129V9.873z"/></g></svg>