<svg version="1.2" baseProfile="tiny" xmlns="http://www.w3.org/2000/svg" viewBox="0 0 75 75" overflow="visible" xml:space="preserve"><path fill="#818181" d="M0 0h75v75H0z"/><path d="M30.6 52.2c1-.4 2-1 3-1.7h2.1v11.2h-2.4V53c-.5.4-1.4.9-2.6 1.4v-2.2zm10 6.7c.1.7.5 1.1 1.2 1.1 1.7 0 1.8-1.7 1.7-3.3-.8.7-1.5.8-2 .8-2.7 0-3.4-2.2-3.4-3.5 0-2.1 1.5-3.7 4-3.7 3.8 0 3.9 3.6 3.9 5.4 0 4.7-1.6 6.1-4.3 6.1-.6 0-3.5 0-3.5-2.9h2.4zm2.9-5c0-1-.5-1.7-1.5-1.7-1.1 0-1.6.9-1.6 1.8 0 .4.1 1.8 1.5 1.8 1.3-.1 1.6-1.2 1.6-1.9z" fill="#010101"/><g fill="#010101"><path d="M37.849 11.155a16.73 16.73 0 0 1 11.914 4.933 16.736 16.736 0 0 1 4.933 11.914c0 4.502-1.75 8.733-4.933 11.915a16.736 16.736 0 0 1-11.914 4.932c-4.502 0-8.733-1.75-11.915-4.932-3.182-3.182-4.932-7.413-4.932-11.915s1.75-8.732 4.932-11.914 7.413-4.933 11.915-4.933m0-1.872c-10.343 0-18.72 8.377-18.72 18.72S27.507 46.72 37.85 46.72s18.719-8.376 18.719-18.719S48.19 9.283 37.848 9.283z"/><path d="M33.103 9.873c-8.077 2.078-14.039 9.406-14.039 18.13 0 8.722 5.962 16.05 14.04 18.129V9.873z"/></g></svg>