<svg version="1.2" baseProfile="tiny" xmlns="http://www.w3.org/2000/svg" viewBox="0 0 75 75" overflow="visible" xml:space="preserve"><path fill="#818181" d="M0 0h75v75H0z"/><path d="M30.6 52.2c1-.4 2-1 3-1.7h2.1v11.2h-2.4V53c-.5.4-1.4.9-2.6 1.4v-2.2zm7.8 1.2c0-1.4 1.1-3.1 3.9-3.1 2.2 0 3.8 1.3 3.8 3 0 1.3-1.1 2.3-2.2 2.4.4.1 1.2.3 1.8 1.2.4.5.5 1.1.5 1.7 0 2-1.9 3.2-4.1 3.2-2.3 0-3.8-1.5-3.8-3.2 0-.9.3-1.5.8-2s1.1-.7 1.5-.8c-.7-.2-2.2-.7-2.2-2.4zm5.4 5c0-1-.8-1.6-1.6-1.6-.9 0-1.6.7-1.6 1.6 0 1.1.8 1.7 1.6 1.7.7 0 1.6-.4 1.6-1.7zm-.1-5c0-.9-.7-1.4-1.5-1.4s-1.5.5-1.5 1.4c0 .8.6 1.4 1.4 1.4.9.1 1.6-.5 1.6-1.4z" fill="#010101"/><g fill="#010101"><path d="M37.846 11.155c4.502 0 8.732 1.75 11.915 4.933a16.736 16.736 0 0 1 4.932 11.914c0 4.502-1.75 8.733-4.932 11.915a16.736 16.736 0 0 1-11.915 4.932c-4.502 0-8.732-1.75-11.915-4.932C22.75 36.735 21 32.504 21 28.002s1.75-8.732 4.932-11.914 7.413-4.933 11.915-4.933m0-1.872c-10.342 0-18.719 8.377-18.719 18.72S27.504 46.72 37.846 46.72s18.719-8.376 18.719-18.719-8.377-18.719-18.72-18.719z"/><path d="M33.1 9.873c-8.077 2.078-14.038 9.406-14.038 18.13 0 8.722 5.961 16.05 14.039 18.129V9.873z"/></g></svg>