<svg version="1.2" baseProfile="tiny" xmlns="http://www.w3.org/2000/svg" viewBox="0 0 75 75" overflow="visible" xml:space="preserve"><path fill="#818181" d="M0 0h75v75H0z"/><path d="M30.7 52.2c1-.4 2-1 3-1.7h2.1v11.2h-2.4V53c-.5.4-1.4.9-2.6 1.4v-2.2zm7.5-1.7h7.6v2L42 61.7h-2.7l4.1-9.3h-5.1v-1.9z" fill="#010101"/><g fill="#010101"><path d="M37.843 11.155c4.502 0 8.733 1.75 11.915 4.933a16.736 16.736 0 0 1 4.932 11.914c0 4.502-1.75 8.733-4.932 11.915a16.736 16.736 0 0 1-11.915 4.932c-4.502 0-8.732-1.75-11.914-4.932-3.183-3.182-4.933-7.413-4.933-11.915s1.75-8.732 4.933-11.914a16.736 16.736 0 0 1 11.914-4.933m0-1.872c-10.342 0-18.719 8.377-18.719 18.72s8.377 18.718 18.72 18.718c10.341 0 18.718-8.376 18.718-18.719S48.185 9.283 37.843 9.283z"/><path d="M33.098 9.873c-8.077 2.078-14.04 9.406-14.04 18.13 0 8.722 5.963 16.05 14.04 18.129V9.873z"/></g></svg>