<svg version="1.2" baseProfile="tiny" xmlns="http://www.w3.org/2000/svg" viewBox="0 0 75 75" overflow="visible" xml:space="preserve"><path fill="#818181" d="M0 0h75v75H0z"/><path d="M31 52.2c1-.4 2-1 3-1.7h2.1v11.2h-2.4V53c-.5.4-1.4.9-2.6 1.4v-2.2zm10.9-1.9c1.6 0 2.5.8 2.9 1.5.6.8 1 1.9 1 4 0 2.6-.6 6-4 6-2.9 0-3.9-2.8-3.9-5.7.1-1.5.4-5.8 4-5.8zm1.2 3.2c-.1-.3-.3-1.3-1.2-1.3-.7 0-1 .6-1.1 1-.4 1.1-.4 2.8-.4 3.1 0 1.9.3 3.7 1.5 3.7 1.3 0 1.5-2.2 1.5-3.7 0-.8-.1-2.1-.3-2.8z" fill="#010101"/><g fill="#010101"><path d="M37.842 11.162c4.502 0 8.732 1.75 11.915 4.932 3.182 3.183 4.932 7.413 4.932 11.915s-1.75 8.732-4.932 11.915c-3.183 3.182-7.413 4.932-11.915 4.932s-8.732-1.75-11.915-4.932c-3.182-3.183-4.932-7.413-4.932-11.915s1.75-8.732 4.932-11.915a16.736 16.736 0 0 1 11.915-4.932m0-1.872c-10.342 0-18.719 8.377-18.719 18.719S27.5 46.728 37.842 46.728s18.719-8.377 18.719-18.72S48.184 9.29 37.842 9.29z"/><path d="M33.097 9.88c-8.077 2.077-14.04 9.406-14.04 18.129s5.963 16.051 14.04 18.13V9.878z"/></g></svg>