<svg version="1.2" baseProfile="tiny" xmlns="http://www.w3.org/2000/svg" viewBox="0 0 75 75" overflow="visible" xml:space="preserve"><path fill="#818181" d="M0 0h75v75H0z"/><path d="M30.5 52.2c1-.4 2-1 3-1.7h2.1v11.2h-2.4V53c-.5.4-1.4.9-2.6 1.4v-2.2zm7.8 7.2 2.9-2.6c.5-.5 1.1-1 1.7-1.7.6-.8.8-1.1.8-1.6 0-.8-.5-1.4-1.3-1.4-1.3 0-1.4 1.3-1.4 1.6h-2.4c0-.4 0-1.3.7-2.1.6-.8 1.8-1.2 3.2-1.2 2.4 0 3.8 1.3 3.8 3 0 1.2-.4 2.6-5.3 6.5 1.6 0 1.8 0 3.1-.1h2.3v1.9h-7.8v-2.3z" fill="#010101"/><g fill="#010101"><path d="M37.848 11.155c4.502 0 8.733 1.75 11.915 4.933a16.736 16.736 0 0 1 4.932 11.914c0 4.502-1.75 8.733-4.932 11.915-3.182 3.182-7.413 4.932-11.915 4.932s-8.732-1.75-11.914-4.932C22.75 36.735 21 32.504 21 28.002s1.75-8.732 4.933-11.914 7.412-4.933 11.914-4.933m0-1.872c-10.342 0-18.719 8.377-18.719 18.72S27.506 46.72 37.85 46.72s18.718-8.376 18.718-18.719S48.19 9.283 37.848 9.283z"/><path d="M33.103 9.873c-8.077 2.078-14.04 9.406-14.04 18.13 0 8.722 5.963 16.05 14.04 18.129V9.873z"/></g></svg>