<svg version="1.2" baseProfile="tiny" xmlns="http://www.w3.org/2000/svg" viewBox="0 0 75 75" overflow="visible" xml:space="preserve"><path fill="#818181" d="M0 0h75v75H0z"/><path d="M30.5 52.2c1-.4 2-1 3-1.7h2.1v11.2h-2.4V53c-.5.4-1.4.9-2.6 1.4v-2.2zm10.1 6.4c0 .4.1 1.5 1.4 1.5.9 0 1.4-.7 1.4-1.5 0-1.6-1.6-1.6-2.8-1.6v-1.9c1.1 0 2.8-.1 2.8-1.7 0-.9-.7-1.3-1.4-1.3s-1.4.5-1.4 1.4h-2.4c0-.5.1-1.2.7-1.9.7-.9 1.9-1.2 3.1-1.2 2.8 0 3.8 1.8 3.8 3 0 1.9-1.6 2.4-2.1 2.5.4.1.8.3 1.3.7.8.7.9 1.5.9 2 0 1.9-1.7 3.3-4 3.3-.8 0-2-.2-2.7-.8-1-.8-1-2.1-1-2.5h2.4z" fill="#010101"/><g fill="#010101"><path d="M37.851 11.155c4.502 0 8.732 1.75 11.915 4.933a16.736 16.736 0 0 1 4.932 11.914c0 4.502-1.75 8.733-4.932 11.915-3.183 3.182-7.413 4.932-11.915 4.932s-8.732-1.75-11.915-4.932c-3.182-3.182-4.932-7.413-4.932-11.915s1.75-8.732 4.932-11.914a16.736 16.736 0 0 1 11.915-4.933m0-1.872c-10.342 0-18.719 8.377-18.719 18.72S27.51 46.72 37.851 46.72 56.57 38.345 56.57 28.002 48.193 9.283 37.85 9.283z"/><path d="M33.106 9.873c-8.077 2.078-14.04 9.406-14.04 18.13 0 8.722 5.963 16.05 14.04 18.129V9.873z"/></g></svg>