<svg version="1.2" baseProfile="tiny" xmlns="http://www.w3.org/2000/svg" viewBox="0 0 75 75" overflow="visible" xml:space="preserve"><path fill="#818181" d="M0 0h75v75H0z"/><path d="m29.4 59.4 2.9-2.6c.5-.5 1.1-1 1.7-1.7.6-.8.8-1.1.8-1.6 0-.8-.5-1.4-1.3-1.4-1.3 0-1.4 1.3-1.4 1.6h-2.6c0-.4 0-1.3.7-2.1.6-.8 1.8-1.2 3.2-1.2 2.4 0 3.8 1.3 3.8 3 0 1.2-.4 2.6-5.3 6.5 1.6 0 1.8 0 3.1-.1h2.3v1.9h-7.8v-2.3zm8.7-.2V57l4.5-6.6H45v6.9h1.5v1.8H45v2.4h-2.4v-2.4h-4.5zm1.8-1.8h2.8v-4.1l-2.8 4.1z" fill="#010101"/><g fill="#010101"><path d="M37.844 11.155c4.502 0 8.733 1.75 11.915 4.932C52.94 19.27 54.69 23.5 54.69 28.002s-1.75 8.732-4.932 11.914a16.736 16.736 0 0 1-11.915 4.933 16.73 16.73 0 0 1-11.914-4.933 16.736 16.736 0 0 1-4.933-11.914c0-4.502 1.75-8.733 4.933-11.915a16.736 16.736 0 0 1 11.914-4.932m0-1.872c-10.342 0-18.719 8.377-18.719 18.719s8.377 18.719 18.72 18.719S56.562 38.344 56.562 28 48.187 9.284 37.844 9.284z"/><path d="M33.1 9.872c-8.078 2.078-14.04 9.407-14.04 18.13S25.022 44.053 33.1 46.13V9.872z"/></g></svg>