<svg version="1.2" baseProfile="tiny" xmlns="http://www.w3.org/2000/svg" viewBox="0 0 75 75" overflow="visible" xml:space="preserve"><path fill="#818181" d="M0 0h75v75H0z"/><path d="m29.4 59.4 2.9-2.6c.5-.5 1.1-1 1.7-1.7.6-.8.8-1.1.8-1.6 0-.8-.5-1.4-1.3-1.4-1.3 0-1.4 1.3-1.4 1.6h-2.6c0-.4 0-1.3.7-2.1.6-.8 1.8-1.2 3.2-1.2 2.4 0 3.8 1.3 3.8 3 0 1.2-.4 2.6-5.3 6.5 1.6 0 1.8 0 3.1-.1h2.3v1.9h-7.8v-2.3zm10-7.2c1-.4 2-1 3-1.7h2.1v11.2h-2.4V53c-.5.4-1.4.9-2.6 1.4v-2.2z" fill="#010101"/><g fill="#010101"><path d="M37.846 11.155c4.501 0 8.732 1.75 11.914 4.932 3.182 3.182 4.933 7.413 4.933 11.915s-1.75 8.732-4.933 11.914c-3.182 3.183-7.413 4.933-11.914 4.933s-8.733-1.75-11.915-4.933a16.736 16.736 0 0 1-4.933-11.914c0-4.502 1.75-8.733 4.933-11.915a16.736 16.736 0 0 1 11.915-4.932m0-1.872c-10.343 0-18.72 8.377-18.72 18.719s8.377 18.719 18.72 18.719S56.564 38.344 56.564 28 48.188 9.284 37.846 9.284z"/><path d="M33.1 9.872c-8.077 2.078-14.039 9.407-14.039 18.13s5.962 16.051 14.04 18.129V9.872z"/></g></svg>