<svg version="1.2" baseProfile="tiny" xmlns="http://www.w3.org/2000/svg" viewBox="0 0 75 75" overflow="visible" xml:space="preserve"><path fill="#818181" d="M0 0h75v75H0z"/><path d="m29.4 59.4 2.9-2.6c.5-.5 1.1-1 1.7-1.7.6-.8.8-1.1.8-1.6 0-.8-.5-1.4-1.3-1.4-1.3 0-1.4 1.3-1.4 1.6h-2.4c0-.4 0-1.3.7-2.1.6-.8 1.8-1.2 3.2-1.2 2.4 0 3.8 1.3 3.8 3 0 1.2-.4 2.6-5.3 6.5 1.6 0 1.8 0 3.1-.1h2.3v1.9h-7.8v-2.3zm13-9.1c1.6 0 2.5.8 2.9 1.5.6.8 1 1.9 1 4 0 2.6-.6 6-4 6-2.9 0-3.9-2.8-3.9-5.7.1-1.5.4-5.8 4-5.8zm1.2 3.2c-.1-.3-.3-1.3-1.2-1.3-.7 0-1 .6-1.1 1-.4 1.1-.4 2.8-.4 3.1 0 1.9.3 3.7 1.5 3.7 1.3 0 1.5-2.2 1.5-3.7 0-.8-.1-2.1-.3-2.8z" fill="#010101"/><g fill="#010101"><path d="M37.842 11.155c4.502 0 8.732 1.75 11.915 4.933a16.736 16.736 0 0 1 4.932 11.914c0 4.502-1.75 8.733-4.932 11.915-3.183 3.182-7.413 4.932-11.915 4.932s-8.732-1.75-11.915-4.932c-3.182-3.182-4.932-7.413-4.932-11.915s1.75-8.732 4.932-11.914a16.736 16.736 0 0 1 11.915-4.933m0-1.872c-10.342 0-18.719 8.377-18.719 18.72S27.5 46.72 37.842 46.72s18.719-8.376 18.719-18.719S48.184 9.283 37.842 9.283z"/><path d="M33.097 9.873c-8.077 2.078-14.04 9.406-14.04 18.13 0 8.722 5.963 16.05 14.04 18.129V9.873z"/></g></svg>