<svg version="1.2" baseProfile="tiny" xmlns="http://www.w3.org/2000/svg" viewBox="0 0 75 75" overflow="visible" xml:space="preserve"><path fill="#818181" d="M0 0h75v75H0z"/><path d="m29.4 59.4 2.9-2.6c.5-.5 1.1-1 1.7-1.7.6-.8.8-1.1.8-1.6 0-.8-.5-1.4-1.3-1.4-1.3 0-1.4 1.3-1.4 1.6h-2.6c0-.4 0-1.3.7-2.1.6-.8 1.8-1.2 3.2-1.2 2.4 0 3.8 1.3 3.8 3 0 1.2-.4 2.6-5.3 6.5 1.6 0 1.8 0 3.1-.1h2.3v1.9h-7.8v-2.3zm11.2-.8c0 .4.1 1.5 1.4 1.5.9 0 1.4-.7 1.4-1.5 0-1.6-1.6-1.6-2.8-1.6v-1.9c1.1 0 2.8-.1 2.8-1.7 0-.9-.7-1.3-1.4-1.3s-1.4.5-1.4 1.4h-2.4c0-.5.1-1.2.7-1.9.7-.9 1.9-1.2 3.1-1.2 2.8 0 3.8 1.8 3.8 3 0 1.9-1.6 2.4-2.1 2.5.4.1.8.3 1.3.7.8.7.9 1.5.9 2 0 1.9-1.7 3.3-4 3.3-.8 0-2-.2-2.7-.8-1-.8-1-2.1-1-2.5h2.4z" fill="#010101"/><g fill="#010101"><path d="M37.851 11.155c4.502 0 8.732 1.75 11.915 4.932 3.182 3.182 4.932 7.413 4.932 11.915s-1.75 8.732-4.932 11.914C46.583 43.1 42.353 44.85 37.85 44.85s-8.732-1.75-11.915-4.933a16.736 16.736 0 0 1-4.932-11.914c0-4.502 1.75-8.733 4.932-11.915a16.736 16.736 0 0 1 11.915-4.932m0-1.872c-10.342 0-18.719 8.377-18.719 18.719S27.51 46.72 37.851 46.72 56.57 38.344 56.57 28 48.193 9.284 37.85 9.284z"/><path d="M33.106 9.872c-8.077 2.078-14.04 9.407-14.04 18.13s5.963 16.051 14.04 18.129V9.872z"/></g></svg>