<svg version="1.2" baseProfile="tiny" xmlns="http://www.w3.org/2000/svg" viewBox="0 0 75 75" overflow="visible" xml:space="preserve"><path fill="#818181" d="M0 0h75v75H0z"/><path d="m29.4 59.4 2.9-2.6c.5-.5 1.1-1 1.7-1.7.6-.8.8-1.1.8-1.6 0-.8-.5-1.4-1.3-1.4-1.3 0-1.4 1.3-1.4 1.6h-2.6c0-.4 0-1.3.7-2.1.6-.8 1.8-1.2 3.2-1.2 2.4 0 3.8 1.3 3.8 3 0 1.2-.4 2.6-5.3 6.5 1.6 0 1.8 0 3.1-.1h2.3v1.9h-7.8v-2.3zm8.9 0 2.9-2.6c.5-.5 1.1-1 1.7-1.7.6-.8.8-1.1.8-1.6 0-.8-.5-1.4-1.3-1.4-1.3 0-1.4 1.3-1.4 1.6h-2.4c0-.4 0-1.3.7-2.1.6-.8 1.8-1.2 3.2-1.2 2.4 0 3.8 1.3 3.8 3 0 1.2-.4 2.6-5.3 6.5 1.6 0 1.8 0 3.1-.1h2.3v1.9h-7.8v-2.3z" fill="#010101"/><g fill="#010101"><path d="M37.848 11.155c4.502 0 8.733 1.75 11.915 4.932 3.182 3.182 4.932 7.413 4.932 11.915s-1.75 8.732-4.932 11.914C46.58 43.1 42.35 44.85 37.848 44.85s-8.732-1.75-11.914-4.933A16.736 16.736 0 0 1 21 28.002c0-4.502 1.75-8.733 4.933-11.915a16.736 16.736 0 0 1 11.914-4.932m0-1.872c-10.342 0-18.719 8.377-18.719 18.719S27.506 46.72 37.85 46.72 56.566 38.344 56.566 28 48.19 9.284 37.848 9.284z"/><path d="M33.103 9.872c-8.077 2.078-14.04 9.407-14.04 18.13s5.963 16.051 14.04 18.129V9.872z"/></g></svg>