<svg version="1.2" baseProfile="tiny" xmlns="http://www.w3.org/2000/svg" viewBox="0 0 75 75" overflow="visible" xml:space="preserve"><path fill="#818181" d="M0 0h75v75H0z"/><path fill="#010101" d="M36.4 58.9c.1.7.5 1.1 1.2 1.1 1.7 0 1.8-1.7 1.7-3.3-.8.7-1.5.8-2 .8-2.7 0-3.4-2.2-3.4-3.5 0-2.1 1.5-3.7 4-3.7 3.8 0 3.9 3.6 3.9 5.4 0 4.7-1.6 6.1-4.3 6.1-.6 0-3.5 0-3.5-2.9h2.4zm2.8-5c0-1-.5-1.7-1.5-1.7-1.1 0-1.6.9-1.6 1.8 0 .4.1 1.8 1.5 1.8 1.3-.1 1.6-1.2 1.6-1.9z"/><path fill="none" d="M49.218 26.797h2.901v-3.109h-5.284v3.109h2.383z"/><path fill="#010101" d="M25.075 37.573c-.31-4.145-6.528-3.73-6.424.31.207 4.353 6.838 4.042 6.424-.31zm8.911.207c-.207-4.145-6.528-3.937-6.424.207 0 4.352 6.631 4.145 6.424-.207zm26.526-.31c-.207-4.353-6.839-4.146-6.735.206 0 4.56 6.942 4.352 6.735-.207z"/><path fill="#010101" d="M61.341 30.32c-.414-1.658-2.28-2.28-3.834-2.176l-.207-.208h-3.005v-1.14h-.518V22.03h-1.14v-.829h-6.32v.415h-.933V32.08h-2.59V18.818h-6.736v-.725h-2.59v.725h-3.937v-.725h-2.59v.725h-4.25v-.725h-2.59v.725h-5.595c.518 2.176-1.347 15.75 1.865 15.646 2.383-.829 3.834-4.455 6.942-2.28 4.145 3.524 5.389-1.76 9.222-.828 1.244.518 1.97 2.072 3.005 2.694v.207l9.637.414v2.487c1.14-.103 4.455.311 5.491-.31 3.005-2.798 4.663-8.083 9.948-5.285.621 0 .829-.725.725-1.243zm-14.506-6.632h5.284v3.109h-5.284v-3.109z"/></svg>