<svg version="1.2" baseProfile="tiny" xmlns="http://www.w3.org/2000/svg" viewBox="0 0 75 75" overflow="visible" xml:space="preserve"><path fill="#818181" d="M0 0h75v75H0z"/><path fill="#010101" d="M34.1 53.4c0-1.4 1.1-3.1 3.9-3.1 2.2 0 3.8 1.3 3.8 3 0 1.3-1.1 2.3-2.2 2.4.4.1 1.2.3 1.8 1.2.4.5.5 1.1.5 1.7 0 2-1.9 3.2-4.1 3.2-2.3 0-3.8-1.5-3.8-3.2 0-.9.3-1.5.8-2s1.1-.7 1.5-.8c-.7-.2-2.2-.7-2.2-2.4zm5.4 5c0-1-.8-1.6-1.6-1.6-.9 0-1.6.7-1.6 1.6 0 1.1.8 1.7 1.6 1.7.7 0 1.6-.4 1.6-1.7zm-.1-5c0-.9-.7-1.4-1.5-1.4s-1.5.5-1.5 1.4c0 .8.6 1.4 1.4 1.4.9.1 1.6-.5 1.6-1.4z"/><path fill="none" d="M49.133 26.797h2.902v-3.109H46.75v3.109h2.383z"/><path fill="#010101" d="M24.99 37.573c-.31-4.145-6.528-3.73-6.424.31.207 4.353 6.839 4.042 6.424-.31zm8.911.207c-.207-4.145-6.527-3.937-6.424.207 0 4.352 6.632 4.145 6.424-.207zm26.527-.31c-.208-4.353-6.84-4.146-6.736.206 0 4.56 6.943 4.352 6.736-.207z"/><path fill="#010101" d="M61.256 30.32c-.414-1.658-2.28-2.28-3.833-2.176l-.208-.208H54.21v-1.14h-.518V22.03h-1.14v-.829h-6.32v.415h-.933V32.08h-2.59V18.818h-6.735v-.725h-2.59v.725h-3.938v-.725h-2.59v.725h-4.249v-.725h-2.59v.725H14.42c.518 2.176-1.347 15.75 1.866 15.646 2.383-.829 3.833-4.455 6.942-2.28 4.145 3.524 5.388-1.76 9.222-.828 1.243.518 1.969 2.072 3.005 2.694v.207l9.636.414v2.487c1.14-.103 4.456.311 5.492-.31 3.005-2.798 4.663-8.083 9.947-5.285.622 0 .83-.725.725-1.243zM46.75 23.688h5.285v3.109H46.75v-3.109z"/></svg>