<svg version="1.2" baseProfile="tiny" xmlns="http://www.w3.org/2000/svg" viewBox="0 0 75 75" overflow="visible" xml:space="preserve"><path fill="#818181" d="M0 0h75v75H0z"/><path fill="#010101" d="M34 50.5h7.6v2l-3.8 9.2h-2.7l4.1-9.3h-5.1v-1.9z"/><path fill="none" d="M49.152 26.797h2.902v-3.109h-5.285v3.109h2.383z"/><path fill="#010101" d="M25.01 37.573c-.311-4.145-6.529-3.73-6.425.31.207 4.353 6.839 4.042 6.424-.31zm8.91.207c-.207-4.145-6.527-3.937-6.424.207 0 4.352 6.632 4.145 6.424-.207zm26.527-.31c-.208-4.353-6.84-4.146-6.736.206 0 4.56 6.943 4.352 6.736-.207z"/><path fill="#010101" d="M61.275 30.32c-.414-1.658-2.28-2.28-3.833-2.176l-.208-.208H54.23v-1.14h-.519V22.03h-1.14v-.829h-6.32v.415h-.933V32.08h-2.59V18.818h-6.735v-.725h-2.59v.725h-3.938v-.725h-2.59v.725h-4.249v-.725h-2.59v.725H14.44c.518 2.176-1.347 15.75 1.866 15.646 2.383-.829 3.833-4.455 6.942-2.28 4.145 3.524 5.388-1.76 9.222-.828 1.243.518 1.969 2.072 3.005 2.694v.207l9.636.414v2.487c1.14-.103 4.456.311 5.492-.31 3.005-2.798 4.663-8.083 9.947-5.285.622 0 .83-.725.725-1.243zM46.77 23.688h5.285v3.109H46.77v-3.109z"/></svg>