<svg version="1.2" baseProfile="tiny" xmlns="http://www.w3.org/2000/svg" viewBox="0 0 75 75" overflow="visible" xml:space="preserve"><path fill="#818181" d="M0 0h75v75H0z"/><path fill="#010101" d="m39.3 50.1 4 11.6h-2.5l-.8-2.5h-4.6l-.9 2.5h-2.4l4.2-11.6h3zm.1 7.2-1.6-4.9-1.7 4.9h3.3zM15 20.9h-1.5v-9.5l-1.7 1.1v-1.4c.4-.2 1.4-1 1.9-1.3H15v11.1zm9.1-5.5c0 2.9 0 5.7-3 5.7s-3-2.8-3-5.7c0-3 0-5.8 3-5.8s3 2.8 3 5.8zm-4.5.3c0 1.9-.1 4.2 1.5 4.2s1.5-2.4 1.5-4.2c0-3 0-4.8-1.5-4.8s-1.5 1.8-1.5 4.8zm11.7-.3c0 2.9 0 5.7-3 5.7s-3-2.8-3-5.7c0-3 0-5.8 3-5.8s3 2.8 3 5.8zm-4.5.3c0 1.9-.1 4.2 1.5 4.2s1.5-2.4 1.5-4.2c0-3 0-4.8-1.5-4.8s-1.5 1.8-1.5 4.8zm11.7-.3c0 2.9 0 5.7-3 5.7s-3-2.8-3-5.7c0-3 0-5.8 3-5.8 3.1 0 3 2.8 3 5.8zm-4.5.3c0 1.9-.1 4.2 1.5 4.2s1.5-2.4 1.5-4.2c0-3 0-4.8-1.5-4.8S34 12.7 34 15.7zm10.1-2.9v-1.6l1.3-.6v2.1h1.8v1h-1.8v4.9c0 .5 0 1.2 1.2 1.2.1 0 .3 0 .6-.1v1c-.4 0-.9.1-1.3.1-1.2 0-1.8-.5-1.8-1.4v-5.7h-1.3v-1h1.3zm4.2 4.2c0-2.4.3-4.3 3.1-4.3 2.8 0 3.1 2 3.1 4.3 0 3.6-1.4 4.1-3.1 4.1-1.7 0-3.1-.5-3.1-4.1zm4.8-.6c0-2.2-.7-2.7-1.7-2.7s-1.7.5-1.7 2.7c0 2.6.3 3.6 1.7 3.6 1.3 0 1.7-.9 1.7-3.6zm7.9 4.5v-5.6c0-.9-.3-1.6-1.4-1.6-1.4 0-1.6 1.3-1.6 2.4v4.8h-1.3v-6.4c0-.6 0-1.1-.1-1.7H58v1h.1c.5-.9 1.1-1.2 2.2-1.2 1.7 0 2.2 1 2.2 2.6v5.6H61z"/><g fill="#010101"><path d="M10.243 31.83H21.86l2.72 10.258H14.568L10.243 31.83z"/><path d="m20.872 33.066 1.978 7.415h-7.292l-3.09-7.54 8.404.125m.989-1.36H10.243l4.326 10.259 10.011-.124-2.72-10.135z"/><path d="M22.603 35.414h33.865v6.55H22.603v-6.55z"/><path d="M54.985 36.773v3.832H23.962v-3.832h31.023m1.483-1.36H22.603v6.552h33.865v-6.551z"/><path d="M62.03 39.616c-.124.124-.124.124-.247.124 0 0-.124 0-.124.123 0 0-.123 0-.123.124 0 0-.124 0-.124.124 0 .123-.124 0-.124.123 0 0-.123 0-.123.124 0 0-.124 0-.124.123 0 0-.123 0-.123.124 0 0-.124 0-.124.124 0 0-.124 0-.124.123 0 0-.123 0-.123.124 0 0-.124 0-.124.123 0 0-.123 0-.123.124 0 0-.124 0-.124.124 0 0-.124 0-.124.123 0 0-.123 0-.123.124 0 0-.124 0-.124.123 0 0-.123 0-.123.124 0 0-.124 0-.124.124h-6.674v-4.697s0-.124.123-.124c0 0 0-.123.124-.123 0 0 0-.124.124-.124 0 0 0-.124.123-.124 0 0 0-.123.124-.123 0 0 0-.124.123-.124 0 0 0-.123.124-.123 0 0 0-.124.124-.124 0 0 0-.124.123-.124 0 0 0-.123.124-.123 0 0 0-.124.123-.124 0 0 0-.123.124-.123l.124-.124.123-.124.124-.123.123-.124.124-.123.123-.124.124-.124.124-.123.123-.124.124-.123.123-.124.124-.123s.124 0 .124-.124c0 0 .123 0 .123-.124 0 0 .124 0 .124-.123 0 0 .123 0 .123-.124 0 0 .124 0 .124-.123 0 0 .124 0 .124-.124 0 0 .123 0 .123-.124 0 0 .124 0 .124-.123 0 0 .123 0 .123-.124 0 0 .124 0 .124-.123 0 0 .124 0 .124-.124 0 0 .123 0 .123-.124 0 0 .124 0 .124-.123 0 0 .123 0 .123-.124 0 0 .124 0 .124-.123 0 0 .124 0 .124-.124 0 0 .123 0 .123-.124h6.427v5.439s0 .123-.123.123c0 0 0 .124-.124.124s0 .123-.124.123c0 0 0 .124-.123.124s0 .124-.124.124c0 0 0 .123-.123.123-.124 0 0 .124-.124.124l-.124.123s0 .124-.123.124l-.124.124s0 .123-.123.123l-.124.124-.124.123-.123.124-.124.124-.123.123s-.124 0-.124.124c0 0-.123 0-.123.123 0-.37 0-.37-.124-.247.124-.123 0 0 0 0z"/><path d="M62.03 32.2h-3.46s-.124 0-.124.124c0 0-.124 0-.124.124 0 0-.124 0-.124.123 0 0-.123 0-.123.124 0 0-.124 0-.124.123 0 0-.123 0-.123.124 0 0-.124 0-.124.124 0 0-.124 0-.124.123 0 0-.123 0-.123.124 0 0-.124 0-.124.123 0 0-.123 0-.123.124 0 0-.124 0-.124.124 0 0-.124 0-.124.123 0 .124-.123 0-.123.124 0 0-.124 0-.124.123 0 0-.123 0-.123.124 0 0-.124 0-.124.124l-.124.123-.123.124-.124.123-.123.124-.124.123-.124.124-.123.124-.124.123-.123.124-.124.123-.124.124-.123.124s0 .123-.124.123c0 0 0 .124-.123.124 0 0 0 .123-.124.123 0 0 0 .124-.123.124 0 0 0 .124-.124.124 0 0 0 .123-.124.123 0 0 0 .124-.123.124 0 0 0 .123-.124.123 0 0 0 .124-.123.124 0 0 0 .124-.124.124 0 0 0 .123-.124.123 0 0 0 .124-.123.124v4.697h6.674s.124 0 .124-.124c0 0 .123 0 .123-.124 0 0 .124 0 .124-.123 0 0 .123 0 .123-.124 0 0 .124 0 .124-.123 0 0 .124 0 .124-.124 0 0 .123 0 .123-.124 0 0 .124 0 .124-.123 0 0 .123 0 .123-.124 0 0 .124 0 .124-.123 0 0 .124 0 .124-.124 0 0 .123 0 .123-.124 0 0 .124 0 .124-.123 0 0 .123 0 .123-.124 0-.123.124 0 .124-.123 0 0 .124 0 .124-.124s.123 0 .123-.124c0 0 .124 0 .124-.123 0 0 .123 0 .123-.124 0 0 .124 0 .124-.123 0 0 .123 0 .123-.124 0 0 .124 0 .124-.124 0 0 .124 0 .124-.123 0-.124.123 0 .123-.124l.124-.123.123-.124.124-.124.124-.123.123-.124.124-.123.123-.124s0-.124.124-.124l.124-.123s0-.124.123-.124l.124-.123s0-.124.123-.124c.124 0 0-.124.124-.124 0 0 0-.123.124-.123 0 0 0-.124.123-.124 0 0 0-.123.124-.123v-5.439H62.4c-.123.618-.246.618-.37.618.124 0 .124 0 0 0z"/><path d="M56.715 30.594h9.146l-1.483 5.809-13.595 4.696 5.932-10.505z"/><path d="m64.007 32.2-.865 3.337-9.393 3.338 3.708-6.675h6.55m1.854-1.36h-9.146l-5.932 10.63 13.595-4.697 1.483-5.932z"/><path d="M34.715 31.83h18.54v8.033h-18.54V31.83z"/><path d="M51.895 33.19v5.19H36.198v-5.19h15.697m1.36-1.36h-18.54v8.033h18.54V31.83z"/><path d="M36.445 27.874h7.045v7.045h-7.045v-7.045z"/><path d="M42.13 29.234v4.326h-4.325v-4.326h4.326m1.36-1.36h-7.046v7.045h7.045v-7.045zm2.842-2.842h4.326v9.022h-4.326v-9.022z"/><path d="M49.3 26.391v6.18h-1.607v-6.18h1.606m1.484-1.36h-4.326v9.023h4.326v-9.022z"/><path d="M43.367 30.346h8.899v8.158h-8.9v-8.158z"/><path d="M44.726 31.706h6.18v5.315h-6.18v-5.315m-1.36-1.36v8.158h8.9v-8.158h-8.9zm-18.044-6.303h2.1v13.966h-2.1V24.043z"/><path d="M27.423 24.043h-2.101v13.966h2.1V24.043z"/><path d="m30.636 26.02 1.113.99-4.82 5.067-1.484-1.36 5.191-4.696z"/><path d="m30.636 26.02-5.067 4.697 1.36 1.36 4.82-5.068-1.113-.988z"/><path d="m22.973 26.391-1.236 1.113 3.955 4.202 1.236-1.112-3.955-4.203z"/><path d="m22.973 26.391-1.236 1.113 3.832 4.202 1.236-1.112-3.832-4.203z"/></g></svg>