<svg version="1.2" baseProfile="tiny" xmlns="http://www.w3.org/2000/svg" viewBox="0 0 75 75" overflow="visible" xml:space="preserve"><path fill="#818181" d="M0 0h75v75H0z"/><path fill="#010101" d="M36.3 58.9c0 .3.2 1.2 1.3 1.2.9 0 1.6-.6 1.6-2.1 0-1.1-.4-2-1.5-2s-1.3.9-1.4 1.1L34 57l.3-6.6h6.8v1.8h-4.7l-.1 2.8c.4-.3.9-.8 2.1-.8 1.8 0 3.3 1.3 3.3 3.6 0 1.9-1.1 4-4 4-1.2 0-2.4-.3-3.1-1.2-.6-.7-.6-1.4-.6-1.8h2.3z"/><path fill="none" d="M49.19 26.797h2.902v-3.109h-5.285v3.109h2.383z"/><path fill="#010101" d="M25.047 37.573c-.31-4.145-6.527-3.73-6.424.31.207 4.353 6.839 4.042 6.424-.31zm8.912.207c-.208-4.145-6.528-3.937-6.425.207 0 4.352 6.632 4.145 6.425-.207zm26.526-.31c-.208-4.353-6.84-4.146-6.736.206 0 4.56 6.943 4.352 6.736-.207z"/><path fill="#010101" d="M61.314 30.32c-.415-1.658-2.28-2.28-3.834-2.176l-.208-.208h-3.004v-1.14h-.519V22.03h-1.14v-.829h-6.32v.415h-.933V32.08h-2.59V18.818h-6.735v-.725h-2.59v.725h-3.938v-.725h-2.59v.725h-4.249v-.725h-2.59v.725h-5.596c.519 2.176-1.347 15.75 1.866 15.646 2.383-.829 3.833-4.455 6.942-2.28 4.145 3.524 5.388-1.76 9.222-.828 1.243.518 1.969 2.072 3.005 2.694v.207l9.636.414v2.487c1.14-.103 4.456.311 5.492-.31 3.005-2.798 4.663-8.083 9.947-5.285.622 0 .83-.725.726-1.243zm-14.507-6.632h5.285v3.109h-5.285v-3.109z"/></svg>