<svg version="1.2" baseProfile="tiny" xmlns="http://www.w3.org/2000/svg" viewBox="0 0 75 75" overflow="visible" xml:space="preserve"><path fill="#818181" d="M0 0h75v75H0z"/><path d="M30.7 52.2c1-.4 2-1 3-1.7h2.1v11.2h-2.4V53c-.5.4-1.4.9-2.6 1.4v-2.2zm7.5-1.7h7.6v2L42 61.7h-2.7l4.1-9.3h-5.1v-1.9z" fill="#010101"/><path fill="none" d="M49.152 26.768h2.902v-3.109h-5.285v3.109h2.383z"/><path fill="#010101" d="M25.01 37.544c-.311-4.144-6.529-3.73-6.425.311.207 4.352 6.839 4.041 6.424-.31zm8.91.207c-.207-4.144-6.527-3.937-6.424.208 0 4.352 6.632 4.144 6.424-.208zm26.527-.31c-.208-4.352-6.84-4.145-6.736.207 0 4.559 6.943 4.352 6.736-.207z"/><path fill="#010101" d="M61.275 30.291c-.414-1.658-2.28-2.28-3.833-2.176l-.208-.207H54.23v-1.14h-.519v-4.766h-1.14v-.83h-6.32v.415h-.933v10.466h-2.59V18.789h-6.735v-.725h-2.59v.725h-3.938v-.725h-2.59v.725h-4.249v-.725h-2.59v.725H14.44c.518 2.176-1.347 15.75 1.866 15.647 2.383-.83 3.833-4.456 6.942-2.28 4.145 3.523 5.388-1.761 9.222-.829 1.243.518 1.969 2.073 3.005 2.694v.207l9.636.415v2.487c1.14-.104 4.456.31 5.492-.311 3.005-2.798 4.663-8.082 9.947-5.285.622 0 .83-.725.725-1.243zM46.77 23.659h5.285v3.109H46.77v-3.109z"/></svg>