<svg version="1.2" baseProfile="tiny" xmlns="http://www.w3.org/2000/svg" viewBox="0 0 75 75" overflow="visible" xml:space="preserve"><path fill="#818181" d="M0 0h75v75H0z"/><path d="M30.5 52.2c1-.4 2-1 3-1.7h2v11.2h-2.4V53c-.5.4-1.4.9-2.6 1.4v-2.2zm10.2 6.7c0 .3.2 1.2 1.3 1.2.9 0 1.6-.6 1.6-2.1 0-1.1-.4-2-1.5-2s-1.3.9-1.4 1.1l-2.3-.1.3-6.6h6.8v1.8h-4.7l-.1 2.8c.4-.3.9-.8 2.1-.8 1.8 0 3.3 1.3 3.3 3.6 0 1.9-1.1 4-4 4-1.2 0-2.4-.3-3.1-1.2-.6-.7-.6-1.4-.6-1.8h2.3z" fill="#010101"/><path fill="none" d="M49.19 26.768h2.902v-3.109h-5.285v3.109h2.383z"/><path fill="#010101" d="M25.047 37.544c-.31-4.144-6.527-3.73-6.424.311.207 4.352 6.839 4.041 6.424-.31zm8.912.207c-.208-4.144-6.528-3.937-6.425.208 0 4.352 6.632 4.144 6.425-.208zm26.526-.31c-.208-4.352-6.84-4.145-6.736.207 0 4.559 6.943 4.352 6.736-.207z"/><path fill="#010101" d="M61.314 30.291c-.415-1.658-2.28-2.28-3.834-2.176l-.208-.207h-3.004v-1.14h-.519v-4.766h-1.14v-.83h-6.32v.415h-.933v10.466h-2.59V18.789h-6.735v-.725h-2.59v.725h-3.938v-.725h-2.59v.725h-4.249v-.725h-2.59v.725h-5.596c.519 2.176-1.347 15.75 1.866 15.647 2.383-.83 3.833-4.456 6.942-2.28 4.145 3.523 5.388-1.761 9.222-.829 1.243.518 1.969 2.073 3.005 2.694v.207l9.636.415v2.487c1.14-.104 4.456.31 5.492-.311 3.005-2.798 4.663-8.082 9.947-5.285.622 0 .83-.725.726-1.243zm-14.507-6.632h5.285v3.109h-5.285v-3.109z"/></svg>