<svg version="1.2" baseProfile="tiny" xmlns="http://www.w3.org/2000/svg" viewBox="0 0 75 75" overflow="visible" xml:space="preserve"><path fill="#818181" d="M0 0h75v75H0z"/><path d="M30.5 52.2c1-.4 2-1 3-1.7h2.1v11.2h-2.4V53c-.5.4-1.4.9-2.6 1.4v-2.2zm10.1 6.4c0 .4.1 1.5 1.4 1.5.9 0 1.4-.7 1.4-1.5 0-1.6-1.6-1.6-2.8-1.6v-1.9c1.1 0 2.8-.1 2.8-1.7 0-.9-.7-1.3-1.4-1.3s-1.4.5-1.4 1.4h-2.4c0-.5.1-1.2.7-1.9.7-.9 1.9-1.2 3.1-1.2 2.8 0 3.8 1.8 3.8 3 0 1.9-1.6 2.4-2.1 2.5.4.1.8.3 1.3.7.8.7.9 1.5.9 2 0 1.9-1.7 3.3-4 3.3-.8 0-2-.2-2.7-.8-1-.8-1-2.1-1-2.5h2.4z" fill="#010101"/><path fill="none" d="M49.125 26.768h2.901v-3.109h-5.284v3.109h2.383z"/><path fill="#010101" d="M24.982 37.544c-.311-4.144-6.528-3.73-6.424.311.207 4.352 6.838 4.041 6.424-.31zm8.91.207c-.206-4.144-6.527-3.937-6.423.208 0 4.352 6.631 4.144 6.424-.208zm26.527-.31c-.207-4.352-6.839-4.145-6.735.207 0 4.559 6.942 4.352 6.735-.207z"/><path fill="#010101" d="M61.248 30.291c-.415-1.658-2.28-2.28-3.834-2.176l-.207-.207h-3.005v-1.14h-.518v-4.766h-1.14v-.83h-6.32v.415h-.933v10.466H42.7V18.789h-6.736v-.725h-2.59v.725h-3.938v-.725h-2.59v.725h-4.248v-.725h-2.59v.725h-5.596c.518 2.176-1.347 15.75 1.865 15.647 2.383-.83 3.834-4.456 6.942-2.28 4.145 3.523 5.388-1.761 9.222-.829 1.244.518 1.969 2.073 3.005 2.694v.207l9.637.415v2.487c1.14-.104 4.455.31 5.491-.311 3.005-2.798 4.663-8.082 9.948-5.285.621 0 .829-.725.725-1.243zm-14.506-6.632h5.284v3.109h-5.284v-3.109z"/></svg>