<svg version="1.2" baseProfile="tiny" xmlns="http://www.w3.org/2000/svg" viewBox="0 0 75 75" overflow="visible" xml:space="preserve"><path fill="#818181" d="M0 0h75v75H0z"/><path d="m29.4 59.4 2.9-2.6c.5-.5 1.1-1 1.7-1.7.6-.8.8-1.1.8-1.6 0-.8-.5-1.4-1.3-1.4-1.3 0-1.4 1.3-1.4 1.6h-2.4c0-.4 0-1.3.7-2.1.6-.8 1.8-1.2 3.2-1.2 2.4 0 3.8 1.3 3.8 3 0 1.2-.4 2.6-5.3 6.5 1.6 0 1.8 0 3.1-.1h2.3v1.9h-7.8v-2.3zm9.1-6c0-1.4 1.1-3.1 3.9-3.1 2.2 0 3.8 1.3 3.8 3 0 1.3-1.1 2.3-2.2 2.4.4.1 1.2.3 1.8 1.2.4.5.5 1.1.5 1.7 0 2-1.9 3.2-4.1 3.2-2.3 0-3.8-1.5-3.8-3.2 0-.9.3-1.5.8-2s1.1-.7 1.5-.8c-.6-.2-2.2-.7-2.2-2.4zm5.4 5c0-1-.8-1.6-1.6-1.6-.9 0-1.6.7-1.6 1.6 0 1.1.8 1.7 1.6 1.7.7 0 1.6-.4 1.6-1.7zm0-5c0-.9-.7-1.4-1.5-1.4s-1.5.5-1.5 1.4c0 .8.6 1.4 1.4 1.4.9.1 1.6-.5 1.6-1.4z" fill="#010101"/><path fill="none" d="M49.133 26.749h2.902V23.64H46.75v3.109h2.383z"/><path fill="#010101" d="M24.99 37.525c-.31-4.144-6.528-3.73-6.424.311.207 4.352 6.839 4.041 6.424-.31zm8.911.207c-.207-4.144-6.527-3.937-6.424.208 0 4.352 6.632 4.144 6.424-.208zm26.527-.31c-.208-4.352-6.84-4.145-6.736.207 0 4.559 6.943 4.352 6.736-.207z"/><path fill="#010101" d="M61.256 30.272c-.414-1.658-2.28-2.28-3.833-2.176l-.208-.207H54.21v-1.14h-.518v-4.766h-1.14v-.83h-6.32v.415h-.933v10.465h-2.59V18.77h-6.735v-.725h-2.59v.725h-3.938v-.725h-2.59v.725h-4.249v-.725h-2.59v.725H14.42c.518 2.176-1.347 15.75 1.866 15.647 2.383-.83 3.833-4.456 6.942-2.28 4.145 3.523 5.388-1.761 9.222-.829 1.243.518 1.969 2.073 3.005 2.694v.207l9.636.415v2.487c1.14-.104 4.456.31 5.492-.311 3.005-2.798 4.663-8.082 9.947-5.285.622 0 .83-.725.725-1.243zM46.75 23.64h5.285v3.109H46.75V23.64z"/></svg>