<svg version="1.2" baseProfile="tiny" xmlns="http://www.w3.org/2000/svg" viewBox="0 0 75 75" overflow="visible" xml:space="preserve"><path fill="#818181" d="M0 0h75v75H0z"/><path d="m29.4 59.4 2.9-2.6c.5-.5 1.1-1 1.7-1.7.6-.8.8-1.1.8-1.6 0-.8-.5-1.4-1.3-1.4-1.3 0-1.4 1.3-1.4 1.6h-2.4c0-.4 0-1.3.7-2.1.6-.8 1.8-1.2 3.2-1.2 2.4 0 3.8 1.3 3.8 3 0 1.2-.4 2.6-5.3 6.5 1.6 0 1.8 0 3.1-.1h2.3v1.9h-7.8v-2.3zm11.4-.5c.1.7.5 1.1 1.2 1.1 1.7 0 1.8-1.7 1.7-3.3-.8.7-1.5.8-2 .8-2.7 0-3.4-2.2-3.4-3.5 0-2.1 1.5-3.7 4-3.7 3.8 0 3.9 3.6 3.9 5.4 0 4.7-1.6 6.1-4.3 6.1-.6 0-3.5 0-3.5-2.9h2.4zm2.9-5c0-1-.5-1.7-1.5-1.7-1.1 0-1.6.9-1.6 1.8 0 .4.1 1.8 1.5 1.8 1.2-.1 1.6-1.2 1.6-1.9z" fill="#010101"/><path fill="none" d="M49.218 26.749h2.901V23.64h-5.284v3.109h2.383z"/><path fill="#010101" d="M25.075 37.525c-.31-4.144-6.528-3.73-6.424.311.207 4.352 6.838 4.041 6.424-.31zm8.911.207c-.207-4.144-6.528-3.937-6.424.208 0 4.352 6.631 4.144 6.424-.208zm26.526-.31c-.207-4.352-6.839-4.145-6.735.207 0 4.559 6.942 4.352 6.735-.207z"/><path fill="#010101" d="M61.341 30.272c-.414-1.658-2.28-2.28-3.834-2.176l-.207-.207h-3.005v-1.14h-.518v-4.766h-1.14v-.83h-6.32v.415h-.933v10.465h-2.59V18.77h-6.736v-.725h-2.59v.725h-3.937v-.725h-2.59v.725h-4.25v-.725h-2.59v.725h-5.595c.518 2.176-1.347 15.75 1.865 15.647 2.383-.83 3.834-4.456 6.942-2.28 4.145 3.523 5.389-1.761 9.222-.829 1.244.518 1.97 2.073 3.005 2.694v.207l9.637.415v2.487c1.14-.104 4.455.31 5.491-.311 3.005-2.798 4.663-8.082 9.948-5.285.621 0 .829-.725.725-1.243zM46.835 23.64h5.284v3.109h-5.284V23.64z"/></svg>