<svg version="1.2" baseProfile="tiny" xmlns="http://www.w3.org/2000/svg" viewBox="0 0 75 75" overflow="visible" xml:space="preserve"><path fill="#818181" d="M0 0h75v75H0z"/><path fill="#010101" d="M39.5 9.8v1.3h-3.7v3.2c.2-.5 1-.8 1.8-.8 1.6 0 2.3 1.2 2.3 3.7 0 1.8-.2 3.9-3 3.9-2.3 0-2.7-1.3-2.7-2.8h1.5c0 .9.3 1.7 1.3 1.7 1.4 0 1.5-1.4 1.5-2.4 0-1.6 0-2.9-1.4-2.9-.8 0-1.2.6-1.4 1.3h-1.3V9.8h5.1z"/><path fill="none" d="M37.902 40.528h3.907l-.103-5.86h-6.168l-1.44 5.963 3.804-.103z"/><path fill="#010101" d="M14.565 50.809h2.365v2.364h-2.365V50.81zm32.693-30.945v26.73h-2.365L44.79 31.07l-3.084.103-7.196.616-.926 2.88-.925 2.775-11.823-4.935-1.028 1.953 11.617 6.889-.822 2.57h-11c0-1.131-1.543-1.748-2.468-1.028-.822.616-.411 2.775-.514 3.598 5.243-.103 11.926-.925 14.187 5.243.515 1.13.515 2.879 1.543 3.598l6.58-.103-.104-5.14h21.795V19.864H47.258zm-5.552 14.804v5.86h-7.71l1.439-5.86h6.271z"/><path fill="#010101" d="M23.818 49.267a5.748 5.748 0 0 0-5.758 5.757 5.748 5.748 0 0 0 5.758 5.757 5.748 5.748 0 0 0 5.757-5.757 5.748 5.748 0 0 0-5.757-5.757zm0 3.084c1.542 0 2.673 1.13 2.673 2.673 0 1.542-1.131 2.673-2.673 2.673s-2.673-1.131-2.673-2.673c0-1.44 1.233-2.673 2.673-2.673z"/></svg>