<svg version="1.2" baseProfile="tiny" xmlns="http://www.w3.org/2000/svg" viewBox="0 0 75 75" overflow="visible" xml:space="preserve"><path fill="#818181" d="M0 0h75v75H0z"/><path fill="#010101" d="M33.1 50.1h3.8c.6 0 2.6 0 4 1 1.5 1.1 2 2.9 2 4.5 0 3.6-1.9 5.4-4.1 5.8-.4.1-.9.1-2.1.1h-3.6V50.1zm2.5 9.7h1c1.1 0 2-.1 2.7-.8 1-1 1-2.7 1-3.3 0-1.6-.6-3.1-2.1-3.6-.5-.1-1.2-.2-2.6-.2v7.9zM11.1 20.9v-1.3c3.2-4.5 4.2-5.4 4.2-7.3 0-.9-.4-1.5-1.4-1.5-1.1 0-1.3.9-1.3 1.8h-1.5c-.1-1.8.8-3 2.7-3 2 0 3 .9 3 2.9 0 2.5-1.2 3.3-4.1 7.1h4.4v1.3h-6zm13-5.5c0 2.9 0 5.7-3 5.7s-3-2.8-3-5.7c0-3 0-5.8 3-5.8 3.1 0 3 2.8 3 5.8zm-4.5.3c0 1.9-.1 4.2 1.5 4.2s1.5-2.4 1.5-4.2c0-3 0-4.8-1.5-4.8s-1.5 1.8-1.5 4.8zm11.7-.3c0 2.9 0 5.7-3 5.7s-3-2.8-3-5.7c0-3 0-5.8 3-5.8 3.1 0 3 2.8 3 5.8zm-4.5.3c0 1.9-.1 4.2 1.5 4.2s1.5-2.4 1.5-4.2c0-3 0-4.8-1.5-4.8s-1.5 1.8-1.5 4.8zm11.7-.3c0 2.9 0 5.7-3 5.7s-3-2.8-3-5.7c0-3 0-5.8 3-5.8 3.1 0 3 2.8 3 5.8zm-4.5.3c0 1.9-.1 4.2 1.5 4.2s1.5-2.4 1.5-4.2c0-3 0-4.8-1.5-4.8S34 12.7 34 15.7zm10.1-2.9v-1.6l1.3-.6v2.1h1.8v1h-1.7v4.9c0 .5 0 1.2 1.2 1.2.1 0 .3 0 .6-.1v1c-.4 0-.9.1-1.3.1-1.2 0-1.8-.5-1.8-1.4v-5.7h-1.3v-1h1.2zm4.2 4.2c0-2.4.3-4.3 3.1-4.3 2.8 0 3.1 2 3.1 4.3 0 3.6-1.4 4.1-3.1 4.1-1.7 0-3.1-.5-3.1-4.1zm4.8-.6c0-2.2-.7-2.7-1.7-2.7s-1.7.5-1.7 2.7c0 2.6.3 3.6 1.7 3.6 1.3 0 1.7-.9 1.7-3.6zm7.9 4.5v-5.6c0-.9-.3-1.6-1.4-1.6-1.4 0-1.6 1.3-1.6 2.4v4.8h-1.3v-6.4c0-.6 0-1.1-.1-1.7H58v1h.1c.5-.9 1.1-1.2 2.2-1.2 1.7 0 2.2 1 2.2 2.6v5.6H61z"/><g fill="#010101"><path d="M10.259 31.837h11.618l2.719 10.258H14.585l-4.326-10.258z"/><path d="m20.888 33.073 1.978 7.416h-7.293l-3.09-7.54 8.405.124m.989-1.36H10.259l4.326 10.259 10.011-.124-2.72-10.135z"/><path d="M22.618 35.421h33.866v6.55H22.618v-6.55z"/><path d="M55 36.78v3.832H23.979v-3.831h31.023m1.483-1.36H22.618v6.55h33.866v-6.55z"/><path d="M62.046 39.623c-.124.124-.124.124-.247.124 0 0-.124 0-.124.124 0 0-.124 0-.124.123 0 0-.123 0-.123.124s-.124 0-.124.123c0 0-.123 0-.123.124 0 0-.124 0-.124.124 0 0-.124 0-.124.123 0 0-.123 0-.123.124 0 0-.124 0-.124.123 0 0-.123 0-.123.124 0 0-.124 0-.124.124 0 0-.123 0-.123.123 0 0-.124 0-.124.124 0 0-.124 0-.124.123 0 0-.123 0-.123.124 0 0-.124 0-.124.124 0 0-.123 0-.123.123 0 0-.124 0-.124.124H52.9v-4.697s0-.123.123-.123c0 0 0-.124.124-.124 0 0 0-.124.123-.124 0 0 0-.123.124-.123 0 0 0-.124.124-.124 0 0 0-.123.123-.123 0 0 0-.124.124-.124 0 0 0-.124.123-.124 0 0 0-.123.124-.123 0 0 0-.124.124-.124 0 0 0-.123.123-.123 0 0 0-.124.124-.124l.123-.124.124-.123.124-.124.123-.123.124-.124.123-.124.124-.123.124-.124.123-.123.124-.124.123-.124.124-.123s.124 0 .124-.124c0 0 .123 0 .123-.123 0 0 .124 0 .124-.124 0 0 .123 0 .123-.124 0 0 .124 0 .124-.123 0 0 .124 0 .124-.124 0 0 .123 0 .123-.123 0 0 .124 0 .124-.124 0 0 .123 0 .123-.124 0 0 .124 0 .124-.123 0 0 .124 0 .124-.124 0 0 .123 0 .123-.123 0 0 .124 0 .124-.124 0 0 .123 0 .123-.124 0 0 .124 0 .124-.123 0 0 .124 0 .124-.124 0 0 .123 0 .123-.123h6.427v5.438s0 .124-.123.124c0 0 0 .123-.124.123s0 .124-.124.124c0 0 0 .123-.123.123-.124 0 0 .124-.124.124 0 0 0 .124-.123.124-.124 0 0 .123-.124.123l-.124.124s0 .123-.123.123l-.124.124s0 .123-.123.123l-.124.124-.124.124-.123.123-.124.124-.123.123s-.124 0-.124.124c0 0-.124 0-.124.124 0-.371 0-.371-.123-.248.123-.123 0 0 0 0z"/><path d="M62.046 32.208h-3.46s-.124 0-.124.123c0 0-.124 0-.124.124 0 0-.124 0-.124.123 0 0-.123 0-.123.124 0 0-.124 0-.124.124 0 0-.123 0-.123.123 0 0-.124 0-.124.124 0 0-.124 0-.124.123 0 0-.123 0-.123.124 0 0-.124 0-.124.124 0 0-.123 0-.123.123 0 0-.124 0-.124.124 0 0-.124 0-.124.123s-.123 0-.123.124c0 0-.124 0-.124.124 0 0-.123 0-.123.123 0 0-.124 0-.124.124l-.124.123-.123.124-.124.124-.123.123-.124.124-.124.123-.123.124-.124.124-.123.123-.124.124-.124.123-.123.124s0 .124-.124.124c0 0 0 .123-.123.123 0 0 0 .124-.124.124 0 0 0 .123-.124.123 0 0 0 .124-.123.124 0 0 0 .124-.124.124 0 0 0 .123-.123.123 0 0 0 .124-.124.124 0 0 0 .123-.124.123 0 0 0 .124-.123.124 0 0 0 .124-.124.124 0 0 0 .123-.123.123v4.697h6.674s.124 0 .124-.124c0 0 .123 0 .123-.123 0 0 .124 0 .124-.124 0 0 .123 0 .123-.124 0 0 .124 0 .124-.123 0 0 .123 0 .123-.124 0 0 .124 0 .124-.123 0 0 .124 0 .124-.124 0 0 .123 0 .123-.124 0 0 .124 0 .124-.123 0 0 .123 0 .123-.124 0 0 .124 0 .124-.123 0 0 .124 0 .124-.124 0 0 .123 0 .123-.124s.124 0 .124-.123c0 0 .123 0 .123-.124 0-.123.124 0 .124-.123 0 0 .124 0 .124-.124 0 0 .123 0 .123-.124 0 0 .124 0 .124-.123 0 0 .123 0 .123-.124 0 0 .124 0 .124-.123 0 0 .124 0 .124-.124s.123 0 .123-.124l.124-.123.123-.124.124-.123.124-.124.123-.123.124-.124.123-.124s0-.123.124-.123l.124-.124s0-.123.123-.123l.124-.124s0-.124.123-.124c.124 0 0-.123.124-.123 0 0 0-.124.124-.124 0 0 0-.123.123-.123 0 0 0-.124.124-.124V31.59h-2.72c-.123.618-.247.618-.37.618.123 0 .123 0 0 0z"/><path d="M56.731 30.6h9.146l-1.483 5.81L50.8 41.107 56.73 30.6z"/><path d="m64.023 32.208-.865 3.337-9.393 3.337 3.708-6.674h6.55m1.854-1.36h-9.146L50.8 41.478l13.595-4.697 1.483-5.933z"/><path d="M34.731 31.837h18.54v8.034H34.73v-8.034z"/><path d="M51.91 33.196v5.192H36.215v-5.192h15.697m1.36-1.36H34.73v8.035h18.54v-8.034z"/><path d="M36.461 27.882h7.045v7.045h-7.045v-7.045z"/><path d="M42.147 29.241v4.326H37.82v-4.326h4.326m1.36-1.36H36.46v7.046h7.045v-7.045zm2.842-2.842h4.326v9.023h-4.326v-9.023z"/><path d="M49.315 26.399v6.18H47.71v-6.18h1.606m1.484-1.36h-4.326v9.023H50.8v-9.023z"/><path d="M43.383 30.354h8.899v8.157h-8.9v-8.157z"/><path d="M44.742 31.713h6.18v5.315h-6.18v-5.315m-1.36-1.36v8.158h8.9v-8.157h-8.9zM25.339 24.05h2.1v13.967h-2.1V24.05z"/><path d="M27.439 24.05h-2.101v13.967h2.1V24.05z"/><path d="m30.652 26.028 1.113.989-4.82 5.067-1.484-1.36 5.191-4.696z"/><path d="m30.652 26.028-5.067 4.697 1.36 1.36 4.82-5.068-1.113-.99z"/><path d="m22.99 26.399-1.237 1.112 3.955 4.202 1.236-1.112-3.955-4.202z"/><path d="m22.99 26.399-1.237 1.112 3.832 4.202 1.236-1.112-3.832-4.202z"/></g></svg>