<svg version="1.2" baseProfile="tiny" xmlns="http://www.w3.org/2000/svg" viewBox="0 0 75 75" overflow="visible" xml:space="preserve"><path fill="#818181" d="M0 0h75v75H0z"/><path fill="#010101" d="M38 20.9h-1.5v-9.5l-1.7 1.1v-1.4c.4-.2 1.4-1 1.9-1.3H38v11.1z"/><path fill="none" d="M37.893 40.528h3.906l-.102-5.86h-6.169l-1.44 5.963 3.805-.103z"/><path fill="#010101" d="M14.556 50.809h2.364v2.364h-2.364V50.81zm32.692-30.945v26.73h-2.364L44.78 31.07l-3.084.103-7.197.616-.925 2.88-.925 2.775-11.823-4.935-1.028 1.953 11.617 6.889-.823 2.57h-11c0-1.131-1.542-1.748-2.467-1.028-.823.616-.412 2.775-.514 3.598 5.243-.103 11.925-.925 14.187 5.243.514 1.13.514 2.879 1.542 3.598l6.58-.103-.103-5.14h21.795V19.864H47.248zm-5.551 14.804v5.86h-7.711l1.44-5.86h6.27z"/><path fill="#010101" d="M23.808 49.267a5.748 5.748 0 0 0-5.757 5.757 5.748 5.748 0 0 0 5.757 5.757 5.748 5.748 0 0 0 5.757-5.757 5.748 5.748 0 0 0-5.757-5.757zm0 3.084c1.542 0 2.673 1.13 2.673 2.673 0 1.542-1.13 2.673-2.673 2.673s-2.673-1.131-2.673-2.673c0-1.44 1.234-2.673 2.673-2.673z"/></svg>