<svg version="1.2" baseProfile="tiny" xmlns="http://www.w3.org/2000/svg" viewBox="0 0 75 75" overflow="visible" xml:space="preserve"><path fill="#818181" d="M0 0h75v75H0z"/><path d="M31.8 58.6c0 .4.1 1.5 1.4 1.5.9 0 1.4-.7 1.4-1.5 0-1.6-1.6-1.6-2.8-1.6v-1.9c1.1 0 2.8-.1 2.8-1.7 0-.9-.7-1.3-1.4-1.3s-1.4.5-1.4 1.4h-2.4c0-.5.1-1.2.7-1.9.7-.9 1.9-1.2 3.1-1.2 2.8 0 3.8 1.8 3.8 3 0 1.9-1.6 2.4-2.1 2.5.4.1.8.3 1.3.7.8.7.9 1.5.9 2 0 1.9-1.7 3.3-4 3.3-.8 0-2-.2-2.7-.8-1-.8-1-2.1-1-2.5h2.4zm10.6-8.3c1.6 0 2.5.8 2.9 1.5.6.8 1 1.9 1 4 0 2.6-.6 6-4 6-2.9 0-3.9-2.8-3.9-5.7.1-1.5.4-5.8 4-5.8zm1.2 3.2c-.1-.3-.3-1.3-1.2-1.3-.7 0-1 .6-1.1 1-.4 1.1-.4 2.8-.4 3.1 0 1.9.3 3.7 1.5 3.7 1.3 0 1.5-2.2 1.5-3.7 0-.8-.1-2.1-.3-2.8z" fill="#010101"/><path fill="none" d="M49.199 26.749H52.1V23.64h-5.284v3.109h2.383z"/><path fill="#010101" d="M25.056 37.525c-.31-4.144-6.528-3.73-6.424.311.207 4.352 6.838 4.041 6.424-.31zm8.911.207c-.207-4.144-6.528-3.937-6.424.208 0 4.352 6.631 4.144 6.424-.208zm26.526-.31c-.207-4.352-6.839-4.145-6.735.207 0 4.559 6.942 4.352 6.735-.207z"/><path fill="#010101" d="M61.322 30.272c-.414-1.658-2.28-2.28-3.834-2.176l-.207-.207h-3.005v-1.14h-.518v-4.766h-1.14v-.83h-6.32v.415h-.933v10.465h-2.59V18.77h-6.736v-.725h-2.59v.725h-3.938v-.725h-2.59v.725h-4.248v-.725h-2.59v.725h-5.596c.518 2.176-1.347 15.75 1.865 15.647 2.383-.83 3.834-4.456 6.942-2.28 4.145 3.523 5.389-1.761 9.222-.829 1.244.518 1.97 2.073 3.005 2.694v.207l9.637.415v2.487c1.14-.104 4.455.31 5.491-.311 3.005-2.798 4.663-8.082 9.948-5.285.621 0 .829-.725.725-1.243zM46.816 23.64H52.1v3.109h-5.284V23.64z"/></svg>