<svg version="1.2" baseProfile="tiny" xmlns="http://www.w3.org/2000/svg" viewBox="0 0 75 75" overflow="visible" xml:space="preserve"><path fill="#818181" d="M0 0h75v75H0z"/><path fill="#010101" d="M34 15.4c0-3 0-5.8 3-5.8 1.7 0 2.8 1 2.8 2.7h-1.5c0-.8-.4-1.6-1.3-1.6-1.2 0-1.5 1.1-1.5 4 .4-.6 1-1 1.8-1 1.4 0 2.6.8 2.6 3.7 0 2-.8 3.7-3 3.7-2.9 0-2.9-2.8-2.9-5.7zm3.1 4.5c1.2 0 1.4-1.3 1.4-2.8 0-1-.2-2.2-1.5-2.2s-1.5 1.4-1.5 2.4c0 1.1.1 2.6 1.6 2.6z"/><path fill="none" d="M37.956 40.528h3.907l-.103-5.86h-6.17l-1.439 5.963 3.804-.103z"/><path fill="#010101" d="M14.619 50.809h2.364v2.364H14.62V50.81zM47.31 19.864v26.73h-2.364l-.103-15.524-3.084.103-7.197.616-.925 2.88-.925 2.775-11.823-4.935-1.028 1.953 11.617 6.889-.822 2.57h-11c0-1.131-1.543-1.748-2.468-1.028-.823.616-.411 2.775-.514 3.598 5.243-.103 11.926-.925 14.187 5.243.514 1.13.514 2.879 1.542 3.598l6.58-.103-.103-5.14h21.795V19.864H47.311zm-5.55 14.804v5.86h-7.71l1.439-5.86h6.27z"/><path fill="#010101" d="M23.871 49.267a5.748 5.748 0 0 0-5.757 5.757c0 3.187 2.57 5.757 5.757 5.757s5.758-2.57 5.758-5.757-2.673-5.757-5.758-5.757zm0 3.084c1.542 0 2.673 1.13 2.673 2.673 0 1.542-1.13 2.673-2.673 2.673-1.542 0-2.673-1.131-2.673-2.673 0-1.44 1.131-2.673 2.673-2.673z"/></svg>