<svg version="1.2" baseProfile="tiny" xmlns="http://www.w3.org/2000/svg" viewBox="0 0 75 75" overflow="visible" xml:space="preserve"><path fill="#818181" d="M0 0h75v75H0z"/><path fill="#010101" d="M37.9 15c1.6.2 2 1.4 2 2.9 0 2-1 3.2-3 3.2-1.9 0-3-1.2-3-3.2 0-1.4.4-2.7 2-2.9-1.3-.3-1.9-1.3-1.9-2.6 0-1.7 1.1-2.8 2.8-2.8 1.7 0 2.8 1 2.8 2.8.2 1.3-.4 2.4-1.7 2.6zm.5 2.9c0-1-.1-2.3-1.5-2.3s-1.5 1.3-1.5 2.3c0 1 .4 2 1.5 2 1.2 0 1.5-1 1.5-2zm-.1-5.5c0-.8-.4-1.7-1.4-1.7-.9 0-1.4.8-1.4 1.7 0 .8.3 2 1.4 2 1.2 0 1.4-1.2 1.4-2z"/><path fill="none" d="M37.937 40.582h3.907l-.103-5.86h-6.169l-1.439 5.963 3.804-.103z"/><path fill="#010101" d="M14.6 50.863h2.364v2.364H14.6v-2.364zm32.692-30.945v26.73h-2.364l-.103-15.524-3.084.102-7.197.617-.925 2.879-.925 2.776-11.823-4.935-1.028 1.953 11.617 6.888-.822 2.57h-11c0-1.13-1.543-1.747-2.468-1.028-.822.617-.411 2.776-.514 3.599 5.243-.103 11.926-.926 14.187 5.243.514 1.13.514 2.878 1.542 3.598l6.58-.103-.103-5.14h21.795V19.918H47.292zm-5.551 14.804v5.86h-7.71l1.439-5.86h6.27z"/><path fill="#010101" d="M23.852 49.32c-3.187 0-5.757 2.57-5.757 5.758s2.57 5.757 5.757 5.757 5.758-2.57 5.758-5.757-2.673-5.758-5.758-5.758zm0 3.085c1.543 0 2.673 1.13 2.673 2.673 0 1.542-1.13 2.673-2.673 2.673s-2.673-1.131-2.673-2.673c0-1.543 1.131-2.673 2.673-2.673z"/></svg>