<svg version="1.2" baseProfile="tiny" xmlns="http://www.w3.org/2000/svg" viewBox="0 0 75 75" overflow="visible" xml:space="preserve"><path fill="#818181" d="M0 0h75v75H0z"/><path d="M34.4 20.9h-1.5v-9.5l-1.7 1.1v-1.4c.4-.2 1.4-1 1.9-1.3h1.3v11.1zm8.7-11.1v1.3h-3.7v3.2c.2-.5 1-.8 1.8-.8 1.6 0 2.3 1.2 2.3 3.7 0 1.8-.2 3.9-3 3.9-2.3 0-2.7-1.3-2.7-2.8h1.5c0 .9.3 1.7 1.3 1.7 1.4 0 1.5-1.4 1.5-2.4 0-1.6 0-2.9-1.4-2.9-.8 0-1.2.6-1.4 1.3H38V9.8h5.1z" fill="#010101"/><path fill="none" d="M37.902 40.582h3.907l-.103-5.86h-6.168l-1.44 5.963 3.804-.103z"/><path fill="#010101" d="M14.565 50.863h2.365v2.364h-2.365v-2.364zm32.693-30.945v26.73h-2.365l-.103-15.524-3.084.102-7.196.617-.926 2.879-.925 2.776-11.823-4.935-1.028 1.953 11.617 6.888-.822 2.57h-11c0-1.13-1.543-1.747-2.468-1.028-.822.617-.411 2.776-.514 3.599 5.243-.103 11.926-.926 14.187 5.243.515 1.13.515 2.878 1.543 3.598l6.58-.103-.104-5.14h21.795V19.918H47.258zm-5.552 14.804v5.86h-7.71l1.439-5.86h6.271z"/><path fill="#010101" d="M23.818 49.32c-3.187 0-5.758 2.57-5.758 5.758s2.57 5.757 5.758 5.757c3.187 0 5.757-2.57 5.757-5.757s-2.57-5.758-5.757-5.758zm0 3.085c1.542 0 2.673 1.13 2.673 2.673 0 1.542-1.131 2.673-2.673 2.673s-2.673-1.131-2.673-2.673c0-1.543 1.233-2.673 2.673-2.673z"/></svg>