<svg version="1.2" baseProfile="tiny" xmlns="http://www.w3.org/2000/svg" viewBox="0 0 75 75" overflow="visible" xml:space="preserve"><path fill="#818181" d="M0 0h75v75H0z"/><path d="M34.4 20.9h-1.5v-9.5l-1.7 1.1v-1.4c.4-.2 1.4-1 1.9-1.3h1.3v11.1zm7.2 0h-1.4v-9.5l-1.7 1.1v-1.4c.4-.2 1.4-1 1.9-1.3h1.3v11.1z" fill="#010101"/><path fill="none" d="M37.893 40.582h3.906l-.102-5.86h-6.169l-1.44 5.963 3.805-.103z"/><path fill="#010101" d="M14.556 50.863h2.364v2.364h-2.364v-2.364zm32.692-30.945v26.73h-2.364l-.103-15.524-3.084.102-7.197.617-.925 2.879-.925 2.776-11.823-4.935-1.028 1.953 11.617 6.888-.823 2.57h-11c0-1.13-1.542-1.747-2.467-1.028-.823.617-.412 2.776-.514 3.599 5.243-.103 11.925-.926 14.187 5.243.514 1.13.514 2.878 1.542 3.598l6.58-.103-.103-5.14h21.795V19.918H47.248zm-5.551 14.804v5.86h-7.711l1.44-5.86h6.27z"/><path fill="#010101" d="M23.808 49.32c-3.187 0-5.757 2.57-5.757 5.758s2.57 5.757 5.757 5.757 5.757-2.57 5.757-5.757-2.57-5.758-5.757-5.758zm0 3.085c1.542 0 2.673 1.13 2.673 2.673 0 1.542-1.13 2.673-2.673 2.673s-2.673-1.131-2.673-2.673c0-1.543 1.234-2.673 2.673-2.673z"/></svg>