<svg version="1.2" baseProfile="tiny" xmlns="http://www.w3.org/2000/svg" viewBox="0 0 75 75" overflow="visible" xml:space="preserve"><path fill="#818181" d="M0 0h75v75H0z"/><path d="M34.4 20.9h-1.5v-9.5l-1.7 1.1v-1.4c.4-.2 1.4-1 1.9-1.3h1.3v11.1zm5.3-6.5c1.3.1 2.3-.4 2.3-1.8 0-1-.4-1.7-1.5-1.7-1.2 0-1.4.9-1.4 1.8h-1.5c-.1-1.9.8-3 2.9-3 1.9 0 3 .9 3 2.9 0 2.1-1.6 2.4-2.2 2.6 1.7.2 2.3 1.2 2.3 2.8 0 2.2-1.2 3.2-3.3 3.2-3.1 0-2.9-2.7-2.9-3.3h1.5c0 1.1.2 2.1 1.5 2.1s1.7-.8 1.7-2c0-1.8-.7-2.2-2.4-2.2v-1.4z" fill="#010101"/><path fill="none" d="M37.897 40.582h3.907l-.103-5.86h-6.168l-1.44 5.963 3.804-.103z"/><path fill="#010101" d="M14.56 50.863h2.365v2.364H14.56v-2.364zm32.693-30.945v26.73h-2.365l-.103-15.524-3.084.102-7.196.617-.925 2.879-.926 2.776-11.823-4.935-1.028 1.953 11.618 6.888-.823 2.57h-11c0-1.13-1.542-1.747-2.468-1.028-.822.617-.41 2.776-.514 3.599 5.244-.103 11.926-.926 14.188 5.243.514 1.13.514 2.878 1.542 3.598l6.58-.103-.103-5.14h21.795V19.918H47.253zM41.7 34.722v5.86h-7.71l1.44-5.86h6.27z"/><path fill="#010101" d="M23.813 49.32c-3.187 0-5.757 2.57-5.757 5.758s2.57 5.757 5.757 5.757 5.757-2.57 5.757-5.757S27 49.32 23.813 49.32zm0 3.085c1.542 0 2.673 1.13 2.673 2.673 0 1.542-1.131 2.673-2.673 2.673s-2.673-1.131-2.673-2.673c0-1.543 1.234-2.673 2.673-2.673z"/></svg>