<svg version="1.2" baseProfile="tiny" xmlns="http://www.w3.org/2000/svg" viewBox="0 0 75 75" overflow="visible" xml:space="preserve"><path fill="#818181" d="M0 0h75v75H0z"/><path d="M34.4 20.9h-1.5v-9.5l-1.7 1.1v-1.4c.4-.2 1.4-1 1.9-1.3h1.3v11.1zm3-2.7v-1.3l3.1-7.1h2v7.1h1.3v1.3h-1.3v2.7h-1.4v-2.7h-3.7zm3.7-1.3v-5.8l-2.4 5.8h2.4z" fill="#010101"/><path fill="none" d="M37.951 40.582h3.907l-.103-5.86h-6.168l-1.44 5.963 3.804-.103z"/><path fill="#010101" d="M14.614 50.863h2.365v2.364h-2.365v-2.364zm32.693-30.945v26.73h-2.365l-.103-15.524-3.084.102-7.196.617-.926 2.879-.925 2.776-11.823-4.935-1.028 1.953 11.617 6.888-.822 2.57h-11c0-1.13-1.543-1.747-2.468-1.028-.822.617-.411 2.776-.514 3.599 5.243-.103 11.926-.926 14.188 5.243.514 1.13.514 2.878 1.542 3.598l6.58-.103-.104-5.14h21.796V19.918H47.307zm-5.552 14.804v5.86h-7.71l1.439-5.86h6.271z"/><path fill="#010101" d="M23.867 49.32c-3.187 0-5.758 2.57-5.758 5.758s2.57 5.757 5.758 5.757 5.757-2.57 5.757-5.757-2.673-5.758-5.757-5.758zm0 3.085c1.542 0 2.673 1.13 2.673 2.673 0 1.542-1.131 2.673-2.673 2.673s-2.673-1.131-2.673-2.673c0-1.543 1.13-2.673 2.673-2.673z"/></svg>