<svg version="1.2" baseProfile="tiny" xmlns="http://www.w3.org/2000/svg" viewBox="0 0 75 75" overflow="visible" xml:space="preserve"><path fill="#818181" d="M0 0h75v75H0z"/><path d="M34.4 20.9h-1.5v-9.5l-1.7 1.1v-1.4c.4-.2 1.4-1 1.9-1.3h1.3v11.1zm9.1-5.5c0 2.9 0 5.7-3 5.7-1.7 0-2.8-1.1-2.7-2.9h1.5c0 .8.3 1.7 1.3 1.7 1.4 0 1.5-1.6 1.5-4.4-.4.8-1.1 1-1.9 1-.9 0-2.5-.5-2.5-3.5 0-2.5 1.5-3.4 3-3.4 2.9 0 2.8 2.8 2.8 5.8zM39 13c0 1.1.2 2.3 1.5 2.3S42 14.1 42 13c0-1-.2-2.3-1.5-2.3-1.2 0-1.5 1.3-1.5 2.3z" fill="#010101"/><path fill="none" d="M37.888 40.508h3.907l-.103-5.86h-6.169l-1.439 5.963 3.804-.103z"/><path fill="#010101" d="M14.55 50.789h2.365v2.365h-2.364v-2.365zm32.693-30.945v26.73H44.88l-.103-15.524-3.084.103-7.197.617-.925 2.878-.925 2.776-11.823-4.935-1.028 1.954 11.617 6.888-.822 2.57h-11c0-1.131-1.543-1.748-2.468-1.028-.822.617-.411 2.776-.514 3.598 5.243-.103 11.926-.925 14.187 5.243.514 1.131.514 2.879 1.542 3.598l6.58-.102-.103-5.14h21.795V19.843H47.243zm-5.551 14.804v5.86h-7.71l1.439-5.86h6.27z"/><path fill="#010101" d="M23.803 49.247a5.748 5.748 0 0 0-5.757 5.757c0 3.187 2.57 5.757 5.757 5.757s5.758-2.57 5.758-5.757a5.748 5.748 0 0 0-5.758-5.757zm0 3.084c1.543 0 2.673 1.13 2.673 2.673 0 1.542-1.13 2.673-2.673 2.673s-2.673-1.13-2.673-2.673c0-1.44 1.234-2.673 2.673-2.673z"/></svg>