<svg version="1.2" baseProfile="tiny" xmlns="http://www.w3.org/2000/svg" viewBox="0 0 75 75" overflow="visible" xml:space="preserve"><path fill="#818181" d="M0 0h75v75H0z"/><path fill="#010101" d="M33.6 50.1h4.3c.7 0 2 0 2.8.5 1.1.7 1.3 1.8 1.3 2.5 0 .4-.1 1.2-.7 1.7-.1.1-.6.6-1.3.8 1.8.3 2.4 1.6 2.4 2.8 0 1.4-.8 2.3-1.7 2.7-.9.5-2.5.5-2.9.5h-4.3V50.1zm2.4 4.7h1.7c.7 0 2 0 2-1.5 0-1.4-1.2-1.4-2-1.4H36v2.9zm0 5h1.7c1.1 0 2.4 0 2.4-1.6s-1.5-1.6-2.7-1.6H36v3.2zM15 20.9h-1.5v-9.5l-1.7 1.1v-1.4c.4-.2 1.4-1 1.9-1.3H15v11.1zm9.1-5.5c0 2.9 0 5.7-3 5.7s-3-2.8-3-5.7c0-3 0-5.8 3-5.8s3 2.8 3 5.8zm-4.5.3c0 1.9-.1 4.2 1.5 4.2s1.5-2.4 1.5-4.2c0-3 0-4.8-1.5-4.8s-1.5 1.8-1.5 4.8zm11.7-.3c0 2.9 0 5.7-3 5.7s-3-2.8-3-5.7c0-3 0-5.8 3-5.8s3 2.8 3 5.8zm-4.5.3c0 1.9-.1 4.2 1.5 4.2s1.5-2.4 1.5-4.2c0-3 0-4.8-1.5-4.8s-1.5 1.8-1.5 4.8zm11.7-.3c0 2.9 0 5.7-3 5.7s-3-2.8-3-5.7c0-3 0-5.8 3-5.8 3.1 0 3 2.8 3 5.8zm-4.5.3c0 1.9-.1 4.2 1.5 4.2s1.5-2.4 1.5-4.2c0-3 0-4.8-1.5-4.8S34 12.7 34 15.7zm10.1-2.9v-1.6l1.3-.6v2.1h1.8v1h-1.8v4.9c0 .5 0 1.2 1.2 1.2.1 0 .3 0 .6-.1v1c-.4 0-.9.1-1.3.1-1.2 0-1.8-.5-1.8-1.4v-5.7h-1.3v-1h1.3zm4.2 4.2c0-2.4.3-4.3 3.1-4.3 2.8 0 3.1 2 3.1 4.3 0 3.6-1.4 4.1-3.1 4.1-1.7 0-3.1-.5-3.1-4.1zm4.8-.6c0-2.2-.7-2.7-1.7-2.7s-1.7.5-1.7 2.7c0 2.6.3 3.6 1.7 3.6 1.3 0 1.7-.9 1.7-3.6zm7.9 4.5v-5.6c0-.9-.3-1.6-1.4-1.6-1.4 0-1.6 1.3-1.6 2.4v4.8h-1.3v-6.4c0-.6 0-1.1-.1-1.7H58v1h.1c.5-.9 1.1-1.2 2.2-1.2 1.7 0 2.2 1 2.2 2.6v5.6H61z"/><g fill="#010101"><path d="M10.313 31.84H21.93l2.72 10.26H14.639l-4.326-10.26z"/><path d="m20.818 33.077 1.978 7.415h-7.292l-3.09-7.54 8.404.125m.99-1.36h-11.62l4.326 10.258 10.011-.123-2.719-10.135z"/><path d="M22.672 35.425h33.866v6.55H22.672v-6.55z"/><path d="M55.055 36.784v3.832H24.032v-3.832h31.023m1.483-1.36H22.672v6.551h33.866v-6.55z"/><path d="M62.1 39.627c-.124.124-.124.124-.248.124 0 0-.123 0-.123.123 0 0-.124 0-.124.124 0 0-.123 0-.123.124 0 .123-.124 0-.124.123 0 0-.123 0-.123.124 0 0-.124 0-.124.123 0 0-.124 0-.124.124 0 0-.123 0-.123.124 0 0-.124 0-.124.123 0 0-.123 0-.123.124 0 0-.124 0-.124.123 0 0-.124 0-.124.124 0 0-.123 0-.123.123 0 0-.124 0-.124.124 0 0-.123 0-.123.124 0 0-.124 0-.124.123 0 0-.124 0-.124.124 0 0-.123 0-.123.123h-6.674V37.28s0-.124.123-.124c0 0 0-.123.124-.123 0 0 0-.124.123-.124 0 0 0-.124.124-.124 0 0 0-.123.124-.123 0 0 0-.124.123-.124 0 0 0-.123.124-.123 0 0 0-.124.123-.124 0 0 0-.124.124-.124 0 0 0-.123.123-.123 0 0 0-.124.124-.124 0 0 0-.123.124-.123l.123-.124.124-.124.123-.123.124-.124.124-.123.123-.124.124-.124.123-.123.124-.124.124-.123.123-.124.124-.124s.123 0 .123-.123c0 0 .124 0 .124-.124 0 0 .124 0 .124-.123 0 0 .123 0 .123-.124 0 0 .124 0 .124-.124 0 0 .123 0 .123-.123 0 0 .124 0 .124-.124 0 0 .124 0 .124-.123 0 0 .123 0 .123-.124 0 0 .124 0 .124-.123 0 0 .123 0 .123-.124 0 0 .124 0 .124-.124 0 0 .124 0 .124-.123 0 0 .123 0 .123-.124 0 0 .124 0 .124-.123 0 0 .123 0 .123-.124 0 0 .124 0 .124-.124h6.427v5.439s0 .123-.124.123c0 0 0 .124-.123.124-.124 0 0 .123-.124.123 0 0 0 .124-.123.124s0 .124-.124.124c0 0 0 .123-.124.123-.123 0 0 .124-.123.124l-.124.123s0 .124-.123.124l-.124.124s0 .123-.124.123l-.123.124-.124.123-.123.124-.124.124-.124.123s-.123 0-.123.124c0 0-.124 0-.124.123 0-.37 0-.37-.123-.247.123-.123 0 0 0 0z"/><path d="M61.976 32.211h-3.46s-.124 0-.124.124c0 0-.124 0-.124.124 0 0-.123 0-.123.123 0 0-.124 0-.124.124 0 0-.124 0-.124.123 0 0-.123 0-.123.124 0 0-.124 0-.124.124 0 0-.123 0-.123.123 0 0-.124 0-.124.124 0 0-.124 0-.124.123 0 0-.123 0-.123.124 0 0-.124 0-.124.123 0 0-.123 0-.123.124s-.124 0-.124.124c0 0-.124 0-.124.123 0 0-.123 0-.123.124 0 0-.124 0-.124.123l-.123.124-.124.124-.124.123-.123.124-.124.123-.123.124-.124.124-.124.123-.123.124-.124.123-.123.124-.124.124s0 .123-.124.123c0 0 0 .124-.123.124 0 0 0 .123-.124.123 0 0 0 .124-.123.124 0 0 0 .124-.124.124 0 0 0 .123-.124.123 0 0 0 .124-.123.124 0 0 0 .123-.124.123 0 0 0 .124-.123.124 0 0 0 .124-.124.124 0 0 0 .123-.123.123 0 0 0 .124-.124.124v4.696h6.674s.124 0 .124-.123c0 0 .123 0 .123-.124 0 0 .124 0 .124-.123 0 0 .124 0 .124-.124 0 0 .123 0 .123-.124 0 0 .124 0 .124-.123 0 0 .123 0 .123-.124 0 0 .124 0 .124-.123 0 0 .124 0 .124-.124 0 0 .123 0 .123-.123 0 0 .124 0 .124-.124 0 0 .123 0 .123-.124 0 0 .124 0 .124-.123 0 0 .123 0 .123-.124 0-.123.124 0 .124-.123 0 0 .124 0 .124-.124s.123 0 .123-.124c0 0 .124 0 .124-.123 0 0 .123 0 .123-.124 0 0 .124 0 .124-.123 0 0 .124 0 .124-.124 0 0 .123 0 .123-.124 0 0 .124 0 .124-.123s.123 0 .123-.124l.124-.123.124-.124.123-.124.124-.123.123-.124.124-.123.124-.124s0-.124.123-.124l.124-.123s0-.124.123-.124l.124-.123s0-.124.124-.124c.123 0 0-.124.123-.124 0 0 0-.123.124-.123 0 0 0-.124.123-.124 0 0 0-.123.124-.123v-5.439h-2.72c-.123.618-.246.618-.37.618.124 0 .124 0 0 0z"/><path d="M56.785 30.605h9.146l-1.483 5.809-13.596 4.696 5.933-10.505z"/><path d="m63.954 32.211-.866 3.337-9.393 3.338 3.708-6.675h6.55m1.855-1.36H56.66l-5.932 10.63 13.595-4.697 1.484-5.932z"/><path d="M34.785 31.84h18.54v8.034h-18.54v-8.033z"/><path d="M51.965 33.2v5.191H36.268v-5.19h15.697m1.36-1.36h-18.54v8.033h18.54v-8.033z"/><path d="M36.515 27.885h7.045v7.045h-7.045v-7.045z"/><path d="M42.2 29.245v4.326h-4.325v-4.326H42.2m1.36-1.36h-7.046v7.045h7.045v-7.045zm2.842-2.842h4.326v9.022h-4.326v-9.022z"/><path d="M49.37 26.402v6.18h-1.608v-6.18h1.607m1.483-1.36h-4.326v9.023h4.326v-9.022z"/><path d="M43.437 30.357h8.899v8.158h-8.9v-8.158z"/><path d="M44.796 31.717h6.18v5.315h-6.18v-5.315m-1.36-1.36v8.158h8.9v-8.158h-8.9zm-18.045-6.303h2.102V38.02H25.39V24.054z"/><path d="M27.493 24.054H25.39V38.02h2.102V24.054z"/><path d="m30.706 26.031 1.112.99-4.82 5.067-1.483-1.36 5.191-4.697z"/><path d="m30.706 26.031-5.067 4.697 1.36 1.36 4.82-5.068-1.113-.989z"/><path d="m23.043 26.402-1.236 1.113 3.955 4.202 1.236-1.112-3.955-4.203z"/><path d="m23.043 26.402-1.236 1.113 3.832 4.202 1.236-1.112-3.832-4.203z"/></g></svg>