<svg version="1.2" baseProfile="tiny" xmlns="http://www.w3.org/2000/svg" viewBox="0 0 75 75" overflow="visible" xml:space="preserve"><path fill="#818181" d="M0 0h75v75H0z"/><path d="M34.4 20.9h-1.5v-9.5l-1.7 1.1v-1.4c.4-.2 1.4-1 1.9-1.3h1.3v11.1zm3.2-5.5c0-3 0-5.8 3-5.8 1.7 0 2.8 1 2.8 2.7h-1.5c0-.8-.4-1.6-1.3-1.6-1.2 0-1.5 1.1-1.5 4 .4-.6 1-1 1.8-1 1.4 0 2.6.8 2.6 3.7 0 2-.8 3.7-3 3.7-2.9 0-2.9-2.8-2.9-5.7zm3 4.5c1.2 0 1.4-1.3 1.4-2.8 0-1-.2-2.2-1.5-2.2S39 16.3 39 17.3c.1 1.1.2 2.6 1.6 2.6z" fill="#010101"/><path fill="none" d="M37.956 40.582h3.907l-.103-5.86h-6.17l-1.439 5.963 3.804-.103z"/><path fill="#010101" d="M14.619 50.863h2.364v2.364H14.62v-2.364zM47.31 19.918v26.73h-2.364l-.103-15.524-3.084.102-7.197.617-.925 2.879-.925 2.776-11.823-4.935-1.028 1.953 11.617 6.888-.822 2.57h-11c0-1.13-1.543-1.747-2.468-1.028-.823.617-.411 2.776-.514 3.599 5.243-.103 11.926-.926 14.187 5.243.514 1.13.514 2.878 1.542 3.598l6.58-.103-.103-5.14h21.795V19.918H47.311zm-5.55 14.804v5.86h-7.71l1.439-5.86h6.27z"/><path fill="#010101" d="M23.871 49.32c-3.187 0-5.757 2.57-5.757 5.758s2.57 5.757 5.757 5.757 5.758-2.57 5.758-5.757-2.673-5.758-5.758-5.758zm0 3.085c1.542 0 2.673 1.13 2.673 2.673 0 1.542-1.13 2.673-2.673 2.673-1.542 0-2.673-1.131-2.673-2.673 0-1.543 1.131-2.673 2.673-2.673z"/></svg>