<svg version="1.2" baseProfile="tiny" xmlns="http://www.w3.org/2000/svg" viewBox="0 0 75 75" overflow="visible" xml:space="preserve"><path fill="#818181" d="M0 0h75v75H0z"/><path d="M34.4 20.9h-1.5v-9.5l-1.7 1.1v-1.4c.4-.2 1.4-1 1.9-1.3h1.3v11.1zm7.1-5.9c1.6.2 2 1.4 2 2.9 0 2-1 3.2-3 3.2-1.9 0-3-1.2-3-3.2 0-1.4.4-2.7 2-2.9-1.3-.3-1.9-1.3-1.9-2.6 0-1.7 1.1-2.8 2.8-2.8 1.7 0 2.8 1 2.8 2.8.2 1.3-.4 2.4-1.7 2.6zm.5 2.9c0-1-.1-2.3-1.5-2.3S39 16.9 39 17.9c0 1 .4 2 1.5 2 1.2 0 1.5-1 1.5-2zm-.1-5.5c0-.8-.4-1.7-1.4-1.7-.9 0-1.4.8-1.4 1.7 0 .8.3 2 1.4 2 1.2 0 1.4-1.2 1.4-2z" fill="#010101"/><path fill="none" d="M37.937 40.508h3.907l-.103-5.86h-6.169l-1.439 5.963 3.804-.103z"/><path fill="#010101" d="M14.6 50.789h2.364v2.365H14.6v-2.365zm32.692-30.945v26.73h-2.364l-.103-15.524-3.084.103-7.197.617-.925 2.878-.925 2.776L20.87 32.49l-1.028 1.954L31.46 41.33l-.822 2.57h-11c0-1.131-1.543-1.748-2.468-1.028-.822.617-.411 2.776-.514 3.598 5.243-.103 11.926-.925 14.187 5.243.514 1.131.514 2.879 1.542 3.598l6.58-.102-.103-5.14h21.795V19.843H47.292zm-5.551 14.804v5.86h-7.71l1.439-5.86h6.27z"/><path fill="#010101" d="M23.852 49.247a5.748 5.748 0 0 0-5.757 5.757c0 3.187 2.57 5.757 5.757 5.757s5.758-2.57 5.758-5.757-2.673-5.757-5.758-5.757zm0 3.084c1.543 0 2.673 1.13 2.673 2.673 0 1.542-1.13 2.673-2.673 2.673s-2.673-1.13-2.673-2.673c0-1.44 1.131-2.673 2.673-2.673z"/></svg>