<svg version="1.2" baseProfile="tiny" xmlns="http://www.w3.org/2000/svg" viewBox="0 0 75 75" overflow="visible" xml:space="preserve"><path fill="#818181" d="M0 0h75v75H0z"/><path fill="#010101" d="M40.1 53.9c0-.4-.2-2-1.9-2-1.8 0-2.6 1.9-2.6 4.3 0 .7 0 4 2.4 4 1 0 2-.7 2.1-2.2h2.6c0 .7-.1 1.8-1 2.7-1 1.1-2.3 1.3-3.4 1.3-4 0-5.3-2.9-5.3-5.8 0-3.7 2-6.1 5.3-6.1 2.5 0 4.3 1.5 4.3 3.8h-2.5zM15 20.9h-1.5v-9.5l-1.7 1.1v-1.4c.4-.2 1.4-1 1.9-1.3H15v11.1zm9.1-5.5c0 2.9 0 5.7-3 5.7s-3-2.8-3-5.7c0-3 0-5.8 3-5.8s3 2.8 3 5.8zm-4.5.3c0 1.9-.1 4.2 1.5 4.2s1.5-2.4 1.5-4.2c0-3 0-4.8-1.5-4.8s-1.5 1.8-1.5 4.8zm11.7-.3c0 2.9 0 5.7-3 5.7s-3-2.8-3-5.7c0-3 0-5.8 3-5.8s3 2.8 3 5.8zm-4.5.3c0 1.9-.1 4.2 1.5 4.2s1.5-2.4 1.5-4.2c0-3 0-4.8-1.5-4.8s-1.5 1.8-1.5 4.8zm11.7-.3c0 2.9 0 5.7-3 5.7s-3-2.8-3-5.7c0-3 0-5.8 3-5.8 3.1 0 3 2.8 3 5.8zm-4.5.3c0 1.9-.1 4.2 1.5 4.2s1.5-2.4 1.5-4.2c0-3 0-4.8-1.5-4.8S34 12.7 34 15.7zm10.1-2.9v-1.6l1.3-.6v2.1h1.8v1h-1.8v4.9c0 .5 0 1.2 1.2 1.2.1 0 .3 0 .6-.1v1c-.4 0-.9.1-1.3.1-1.2 0-1.8-.5-1.8-1.4v-5.7h-1.3v-1h1.3zm4.2 4.2c0-2.4.3-4.3 3.1-4.3 2.8 0 3.1 2 3.1 4.3 0 3.6-1.4 4.1-3.1 4.1-1.7 0-3.1-.5-3.1-4.1zm4.8-.6c0-2.2-.7-2.7-1.7-2.7s-1.7.5-1.7 2.7c0 2.6.3 3.6 1.7 3.6 1.3 0 1.7-.9 1.7-3.6zm7.9 4.5v-5.6c0-.9-.3-1.6-1.4-1.6-1.4 0-1.6 1.3-1.6 2.4v4.8h-1.3v-6.4c0-.6 0-1.1-.1-1.7H58v1h.1c.5-.9 1.1-1.2 2.2-1.2 1.7 0 2.2 1 2.2 2.6v5.6H61z"/><g fill="#010101"><path d="M10.29 31.84h11.617l2.72 10.26H14.615L10.29 31.84z"/><path d="m20.919 33.077 1.977 7.415h-7.292l-3.09-7.54 8.405.125m.988-1.36H10.29l4.326 10.258 10.012-.123-2.72-10.135z"/><path d="M22.649 35.425h33.866v6.55H22.649v-6.55z"/><path d="M55.031 36.784v3.832H24.01v-3.832h31.02m1.484-1.36H22.649v6.551h33.866v-6.55z"/><path d="M62.076 39.627c-.123.124-.123.124-.247.124 0 0-.123 0-.123.123 0 0-.124 0-.124.124 0 0-.124 0-.124.124 0 .123-.123 0-.123.123 0 0-.124 0-.124.124 0 0-.123 0-.123.123 0 0-.124 0-.124.124 0 0-.124 0-.124.124 0 0-.123 0-.123.123 0 0-.124 0-.124.124 0 0-.123 0-.123.123 0 0-.124 0-.124.124 0 0-.124 0-.124.123 0 0-.123 0-.123.124 0 0-.124 0-.124.124 0 0-.123 0-.123.123 0 0-.124 0-.124.124 0 0-.124 0-.124.123H52.93V37.28s0-.124.124-.124c0 0 0-.123.123-.123 0 0 0-.124.124-.124 0 0 0-.124.124-.124 0 0 0-.123.123-.123 0 0 0-.124.124-.124 0 0 0-.123.123-.123 0 0 0-.124.124-.124 0 0 0-.124.124-.124 0 0 0-.123.123-.123 0 0 0-.124.124-.124 0 0 0-.123.123-.123l.124-.124.124-.124.123-.123.124-.124.123-.123.124-.124.124-.124.123-.123.124-.124.123-.123.124-.124.124-.124s.123 0 .123-.123c0 0 .124 0 .124-.124 0 0 .123 0 .123-.123 0 0 .124 0 .124-.124 0 0 .124 0 .124-.124 0 0 .123 0 .123-.123 0 0 .124 0 .124-.124 0 0 .123 0 .123-.123 0 0 .124 0 .124-.124 0 0 .124 0 .124-.123 0 0 .123 0 .123-.124 0 0 .124 0 .124-.124 0 0 .123 0 .123-.123 0 0 .124 0 .124-.124 0 0 .124 0 .124-.123 0 0 .123 0 .123-.124 0 0 .124 0 .124-.124h6.427v5.439s0 .123-.124.123c0 0 0 .124-.123.124-.124 0 0 .123-.124.123 0 0 0 .124-.124.124s0 .124-.123.124c0 0 0 .123-.124.123-.123 0 0 .124-.123.124l-.124.123s0 .124-.124.124l-.123.124s0 .123-.124.123l-.123.124-.124.123-.124.124-.123.124-.124.123s-.123 0-.123.124c0 0-.124 0-.124.123 0-.37 0-.37-.124-.247.124-.123 0 0 0 0z"/><path d="M61.953 32.211h-3.46s-.124 0-.124.124c0 0-.124 0-.124.124 0 0-.124 0-.124.123 0 0-.123 0-.123.124 0 0-.124 0-.124.123 0 0-.123 0-.123.124 0 0-.124 0-.124.124 0 0-.124 0-.124.123 0 0-.123 0-.123.124 0 0-.124 0-.124.123 0 0-.123 0-.123.124 0 0-.124 0-.124.123 0 0-.124 0-.124.124s-.123 0-.123.124c0 0-.124 0-.124.123 0 0-.123 0-.123.124 0 0-.124 0-.124.123l-.124.124-.123.124-.124.123-.123.124-.124.123-.124.124-.123.124-.124.123-.123.124-.124.123-.124.124-.123.124s0 .123-.124.123c0 0 0 .124-.123.124 0 0 0 .123-.124.123 0 0 0 .124-.124.124 0 0 0 .124-.123.124 0 0 0 .123-.124.123 0 0 0 .124-.123.124 0 0 0 .123-.124.123 0 0 0 .124-.124.124 0 0 0 .124-.123.124 0 0 0 .123-.124.123 0 0 0 .124-.123.124v4.696h6.674s.123 0 .123-.123c0 0 .124 0 .124-.124 0 0 .124 0 .124-.123 0 0 .123 0 .123-.124 0 0 .124 0 .124-.124 0 0 .123 0 .123-.123 0 0 .124 0 .124-.124 0 0 .124 0 .124-.123 0 0 .123 0 .123-.124 0 0 .124 0 .124-.123 0 0 .123 0 .123-.124 0 0 .124 0 .124-.124 0 0 .124 0 .124-.123 0 0 .123 0 .123-.124 0-.123.124 0 .124-.123 0 0 .123 0 .123-.124s.124 0 .124-.124c0 0 .124 0 .124-.123 0 0 .123 0 .123-.124 0 0 .124 0 .124-.123 0 0 .123 0 .123-.124 0 0 .124 0 .124-.124 0 0 .124 0 .124-.123s.123 0 .123-.124l.124-.123.123-.124.124-.124.124-.123.123-.124.124-.123.123-.124s0-.124.124-.124l.124-.123s0-.124.123-.124l.124-.123s0-.124.123-.124c.124 0 0-.124.124-.124 0 0 0-.123.124-.123 0 0 0-.124.123-.124 0 0 0-.123.124-.123v-5.439h-2.72c-.123.618-.247.618-.37.618.123 0 .123 0 0 0z"/><path d="M56.762 30.605h9.146l-1.483 5.809-13.596 4.696 5.933-10.505z"/><path d="m64.054 32.211-.865 3.337-9.394 3.338 3.708-6.675h6.551m1.854-1.36h-9.146l-5.933 10.63 13.596-4.697 1.483-5.932z"/><path d="M34.762 31.84H53.3v8.034H34.76v-8.033z"/><path d="M51.941 33.2v5.191H36.245v-5.19H51.94m1.36-1.36H34.76v8.033H53.3v-8.033z"/><path d="M36.492 27.885h7.045v7.045h-7.045v-7.045z"/><path d="M42.177 29.245v4.326h-4.326v-4.326h4.326m1.36-1.36h-7.045v7.045h7.045v-7.045zm2.843-2.842h4.326v9.022H46.38v-9.022z"/><path d="M49.346 26.402v6.18h-1.607v-6.18h1.607m1.483-1.36h-4.326v9.023h4.326v-9.022z"/><path d="M43.413 30.357h8.9v8.158h-8.9v-8.158z"/><path d="M44.773 31.717h6.18v5.315h-6.18v-5.315m-1.36-1.36v8.158h8.9v-8.158h-8.9zm-18.045-6.303h2.101V38.02h-2.1V24.054z"/><path d="M27.47 24.054h-2.102V38.02h2.101V24.054z"/><path d="m30.683 26.031 1.112.99-4.82 5.067-1.483-1.36 5.19-4.697z"/><path d="m30.683 26.031-5.068 4.697 1.36 1.36 4.82-5.068-1.112-.989z"/><path d="m23.02 26.402-1.236 1.113 3.955 4.202 1.236-1.112-3.955-4.203z"/><path d="m23.02 26.402-1.236 1.113 3.831 4.202 1.236-1.112-3.831-4.203z"/></g></svg>