<svg version="1.2" baseProfile="tiny" xmlns="http://www.w3.org/2000/svg" viewBox="0 0 75 75" overflow="visible" xml:space="preserve"><path fill="#818181" d="M0 0h75v75H0z"/><path d="M34.4 20.9h-1.5v-9.5l-1.7 1.1v-1.4c.4-.2 1.4-1 1.9-1.3h1.3v11.1zm3.1-11.1h5.7v1.3l-3 9.8h-1.7l3.1-9.8h-4.1V9.8z" fill="#010101"/><path fill="none" d="M37.883 40.508h3.907l-.103-5.86H35.52l-1.44 5.963 3.804-.103z"/><path fill="#010101" d="M14.546 50.789h2.365v2.365h-2.365v-2.365zM47.24 19.844v26.73h-2.365l-.103-15.524-3.084.103-7.196.617-.926 2.878-.925 2.776-11.823-4.935-1.028 1.954 11.617 6.888-.822 2.57h-11c0-1.131-1.542-1.748-2.468-1.028-.822.617-.411 2.776-.514 3.598 5.243-.103 11.926-.925 14.188 5.243.514 1.131.514 2.879 1.542 3.598l6.58-.102-.104-5.14h21.796V19.843H47.239zm-5.552 14.804v5.86h-7.71l1.439-5.86h6.271z"/><path fill="#010101" d="M23.799 49.247a5.748 5.748 0 0 0-5.757 5.757c0 3.187 2.57 5.757 5.757 5.757s5.757-2.57 5.757-5.757a5.748 5.748 0 0 0-5.757-5.757zm0 3.084c1.542 0 2.673 1.13 2.673 2.673 0 1.542-1.131 2.673-2.673 2.673s-2.673-1.13-2.673-2.673c0-1.44 1.233-2.673 2.673-2.673z"/></svg>