<svg version="1.2" baseProfile="tiny" xmlns="http://www.w3.org/2000/svg" viewBox="0 0 75 75" overflow="visible" xml:space="preserve"><path fill="#818181" d="M0 0h75v75H0z"/><path d="M30.5 20.9v-1.3c3.2-4.5 4.2-5.4 4.2-7.3 0-.9-.4-1.5-1.4-1.5-1.1 0-1.3.9-1.3 1.8h-1.5c-.1-1.8.8-3 2.7-3 2 0 3 .9 3 2.9 0 2.5-1.2 3.3-4.1 7.1h4.4v1.3h-6zm13-5.5c0 2.9 0 5.7-3 5.7s-3-2.8-3-5.7c0-3 0-5.8 3-5.8 3.1 0 3 2.8 3 5.8zm-4.5.3c0 1.9-.1 4.2 1.5 4.2s1.5-2.4 1.5-4.2c0-3 0-4.8-1.5-4.8S39 12.7 39 15.7z" fill="#010101"/><path fill="none" d="M37.942 40.508h3.906l-.102-5.86h-6.169l-1.44 5.963 3.805-.103z"/><path fill="#010101" d="M14.605 50.789h2.364v2.365h-2.364v-2.365zm32.692-30.945v26.73h-2.364L44.83 31.05l-3.084.103-7.197.617-.925 2.878-.925 2.776-11.823-4.935-1.028 1.954 11.617 6.888-.823 2.57h-11c0-1.131-1.542-1.748-2.467-1.028-.823.617-.411 2.776-.514 3.598 5.243-.103 11.925-.925 14.187 5.243.514 1.131.514 2.879 1.542 3.598l6.58-.102-.103-5.14h21.795V19.843H47.297zm-5.551 14.804v5.86h-7.71l1.438-5.86h6.272z"/><path fill="#010101" d="M23.857 49.247a5.748 5.748 0 0 0-5.757 5.757c0 3.187 2.57 5.757 5.757 5.757s5.757-2.57 5.757-5.757-2.673-5.757-5.757-5.757zm0 3.084c1.542 0 2.673 1.13 2.673 2.673 0 1.542-1.13 2.673-2.673 2.673s-2.673-1.13-2.673-2.673c0-1.44 1.131-2.673 2.673-2.673z"/></svg>