<svg version="1.2" baseProfile="tiny" xmlns="http://www.w3.org/2000/svg" viewBox="0 0 75 75" overflow="visible" xml:space="preserve"><path fill="#D9B977" d="M0 0h75v75H0z"/><path d="M17.025 18.2V9.5h4.3v1h-3.2v2.8h3v1h-3v4h-1.1zm6.7 0h-1.1V9.5h1.1v8.7zm6.2-6.4c0-1-.4-1.6-1.5-1.6-.3 0-1.6.1-1.6 1.9V15c0 1.9.6 2.4 1.6 2.4.8 0 1.3-.2 1.5-.4v-2.6h-1.6v-1h2.7v4.2c-.7.4-1.5.6-2.7.6-1.8 0-2.7-.9-2.7-3.3v-2.8c0-1.7.9-2.8 2.7-2.8 1.9 0 2.8.7 2.7 2.5h-1.1zm3.3 6.4V9.5h1.1v3.7h3V9.5h1.1v8.7h-1.1v-4h-3v4h-1.1zm12.1-8.7v1h-2.3v7.7h-1.1v-7.7h-2.3v-1h5.7zm1.1 8.7V9.5h4.5v1h-3.4v2.8h3.1v1h-3.1v3h3.4v1h-4.5zm7.1-4v4h-1.1V9.5h3c1.5 0 2.1 1.1 2.1 2.2 0 1-.6 1.8-1.6 2 1 .2 1.4.5 1.4 2.2 0 .4.1 1.7.3 2.3h-1.2c-.3-.6-.2-1.7-.3-2.9-.1-1.1-.9-1.1-1.3-1.1h-1.3zm0-1h1.7c.8 0 1.2-.7 1.2-1.4 0-.6-.3-1.3-1.2-1.3h-1.7v2.7zM36.372 21.55c.18-.204.483-.245.638-.474.123 0 .246 0 .368.008.09.148.287.14.418.238.662.482.94 1.284 1.186 2.029.188.72.32 1.456.352 2.201.106.115.22.237.22.4.025.336.263.623.23.966-.008 1.383 0 2.774-.008 4.157.016.172-.205.188-.32.254 0 .188 0 .376.009.564.27.156.597.131.9.148 1.039.106 2.078.139 3.11.22 1.627.131 3.248.221 4.876.36 1.505.074 3.011.23 4.517.303 1.513.123 3.035.213 4.557.328.344.049.687 0 1.031.049.835.024 1.67.27 2.348.76.532.443.958 1.064.958 1.776-.025.925-.548 1.858-1.391 2.275-.393.352-.876.597-1.367.794-.597.204-1.235.261-1.849.409-.147.032-.229.196-.384.204-.418.074-.835.27-1.252.107-2.406.482-4.812.924-7.209 1.423-1.44.27-2.864.598-4.304.86-.875.155-1.743.36-2.61.531-.025.017-.082.058-.115.074-.409 0-.802.14-1.21.213-.303.049-.639.172-.77.474-.033.418.025.843-.049 1.26 0 1.473-.18 2.938-.22 4.41-.124 1.31-.214 2.62-.353 3.928a2.59 2.59 0 0 0 .213-.049 2.99 2.99 0 0 0-.23.115c-.032.589-.122 1.178-.18 1.775-.105 1.293-.31 2.578-.425 3.87-.016.066-.04.189-.057.254.27.09.557.148.843.18 1.424.262 2.84.5 4.263.745.565.074 1.186.294 1.432.85.22.45.27.975.155 1.457-.139.45-.458.868-.892 1.064-.474.196-.998.106-1.497.213a.93.93 0 0 0-.188.122c-.311 0-.622.123-.933.041-.376-.09-.769.017-1.145.041-.377.025-.745.074-1.113.107a.62.62 0 0 1-.548-.23c-.279-.343-.524-.72-.81-1.063-.115.425 0 .875-.09 1.309.008.646-.074 1.293-.05 1.947-.04.017-.122.041-.163.05-.066-.23-.05-.459-.082-.688-.041-.703-.18-1.399-.196-2.11-.009-.132-.041-.263-.066-.394-.229.279-.425.581-.63.876-.155.22-.458.286-.712.262-.4-.033-.802-.082-1.203-.14-.376.017-.76-.13-1.129-.008-.376 0-.785-.008-1.12-.196-.5-.082-1.04-.016-1.506-.262a1.972 1.972 0 0 1-.81-1.816c.106-.36.188-.77.507-1.007.393-.368.965-.392 1.465-.49 1.562-.303 3.15-.54 4.704-.868-.032-.63-.171-1.252-.204-1.89-.066-.426-.098-.86-.14-1.293a14.605 14.605 0 0 1-.13-1.186c-.025-.025-.066-.074-.09-.099.024-.098.073-.188.049-.294-.23-1.915-.336-3.838-.5-5.76.017-1.146-.171-2.283-.187-3.42-.033-.516-.082-1.032-.074-1.547-.123-.156-.205-.368-.393-.45-.237-.115-.507-.123-.76-.18-2.316-.532-4.656-.933-6.972-1.424a205.733 205.733 0 0 0-4.885-.957 62.838 62.838 0 0 0-3.232-.663 1.146 1.146 0 0 0-.13.082c-.377-.025-.737-.115-1.106-.197-.163-.024-.253-.212-.417-.229-.76-.163-1.555-.245-2.275-.564-.842-.377-1.669-.941-2.086-1.792-.262-.475-.311-1.04-.237-1.571a2.36 2.36 0 0 1 1.292-1.473c.516-.23 1.072-.385 1.62-.507.033-.688-.049-1.391.05-2.079.081.017.204.033.171.148v1.865c5.802-.384 11.611-.802 17.413-1.186.212.008.417-.041.63-.074-.172-.483-.303-.982-.254-1.505.352-.066.77.065 1.08-.082.025-1.244-.008-2.488.016-3.731.14-.401.148-.835.418-1.179.106-.99.212-1.996.589-2.929.229-.327.286-.777.63-1.04z" fill="#010101"/></svg>