<svg version="1.2" baseProfile="tiny" xmlns="http://www.w3.org/2000/svg" viewBox="0 0 75 75" overflow="visible" xml:space="preserve"><path fill="#D9B977" d="M0 0h75v75H0z"/><path d="M17.025 18.2V9.5h4.3v1h-3.2v2.8h3v1h-3v4h-1.1zm6.7 0h-1.1V9.5h1.1v8.7zm6.2-6.4c0-1-.4-1.6-1.5-1.6-.3 0-1.6.1-1.6 1.9V15c0 1.9.6 2.4 1.6 2.4.8 0 1.3-.2 1.5-.4v-2.6h-1.6v-1h2.7v4.2c-.7.4-1.5.6-2.7.6-1.8 0-2.7-.9-2.7-3.3v-2.8c0-1.7.9-2.8 2.7-2.8 1.9 0 2.8.7 2.7 2.5h-1.1zm3.3 6.4V9.5h1.1v3.7h3V9.5h1.1v8.7h-1.1v-4h-3v4h-1.1zm12.1-8.7v1h-2.3v7.7h-1.1v-7.7h-2.3v-1h5.7zm1.1 8.7V9.5h4.5v1h-3.4v2.8h3.1v1h-3.1v3h3.4v1h-4.5zm7.1-4v4h-1.1V9.5h3c1.5 0 2.1 1.1 2.1 2.2 0 1-.6 1.8-1.6 2 1 .2 1.4.5 1.4 2.2 0 .4.1 1.7.3 2.3h-1.2c-.3-.6-.2-1.7-.3-2.9-.1-1.1-.9-1.1-1.3-1.1h-1.3zm0-1h1.7c.8 0 1.2-.7 1.2-1.4 0-.6-.3-1.3-1.2-1.3h-1.7v2.7zM36.372 21.55c.18-.204.482-.245.638-.474.122 0 .245 0 .368.008.09.148.286.14.417.238.663.482.941 1.284 1.187 2.029.188.72.319 1.456.352 2.201.106.115.22.237.22.4.025.336.262.623.23.966-.009 1.383 0 2.774-.009 4.157.017.172-.204.188-.319.254 0 .188 0 .376.008.564.27.156.598.131.9.148 1.04.106 2.079.139 3.11.22 1.628.131 3.248.221 4.877.36 1.505.074 3.01.23 4.516.303 1.514.123 3.036.213 4.558.328.343.049.687 0 1.03.049.835.024 1.67.27 2.35.76.531.443.956 1.064.956 1.776-.024.925-.548 1.858-1.39 2.275-.393.352-.876.597-1.367.794-.597.204-1.236.261-1.85.409-.147.032-.228.196-.384.204-.417.074-.834.27-1.252.107-2.405.482-4.81.924-7.208 1.423-1.44.27-2.864.598-4.304.86-.876.155-1.743.36-2.61.531-.025.017-.082.058-.115.074-.41 0-.802.14-1.211.213-.303.049-.638.172-.77.474-.032.418.025.843-.048 1.26 0 1.473-.18 2.938-.221 4.41-.123 1.31-.213 2.62-.352 3.928a2.59 2.59 0 0 0 .213-.049 2.99 2.99 0 0 0-.23.115c-.032.589-.122 1.178-.18 1.775-.106 1.293-.31 2.578-.425 3.87-.016.066-.04.189-.057.254.27.09.556.148.843.18 1.423.262 2.839.5 4.263.745.564.074 1.186.294 1.432.85.22.45.27.975.155 1.457-.14.45-.458.868-.892 1.064-.474.196-.998.106-1.497.213a.93.93 0 0 0-.188.122c-.311 0-.622.123-.933.041-.377-.09-.77.017-1.146.041s-.744.074-1.113.107a.62.62 0 0 1-.548-.23c-.278-.343-.523-.72-.81-1.063-.114.425 0 .875-.09 1.309.008.646-.073 1.293-.049 1.947-.04.017-.123.041-.164.05-.065-.23-.049-.459-.081-.688-.041-.703-.18-1.399-.197-2.11-.008-.132-.04-.263-.065-.394-.23.279-.426.581-.63.876-.156.22-.459.286-.712.262a19.694 19.694 0 0 1-1.203-.14c-.376.017-.76-.13-1.13-.008-.376 0-.785-.008-1.12-.196-.5-.082-1.04-.016-1.506-.262a1.972 1.972 0 0 1-.81-1.816c.107-.36.188-.77.508-1.007.392-.368.965-.392 1.464-.49 1.563-.303 3.15-.54 4.705-.868-.033-.63-.172-1.252-.204-1.89-.066-.426-.099-.86-.14-1.293a14.605 14.605 0 0 1-.13-1.186c-.025-.025-.066-.074-.09-.099.024-.098.073-.188.049-.294-.23-1.915-.336-3.838-.5-5.76.017-1.146-.171-2.283-.188-3.42-.032-.516-.082-1.032-.073-1.547-.123-.156-.205-.368-.393-.45-.237-.115-.507-.123-.761-.18-2.316-.532-4.656-.933-6.971-1.424a205.733 205.733 0 0 0-4.885-.957 62.838 62.838 0 0 0-3.232-.663 1.146 1.146 0 0 0-.131.082c-.377-.025-.737-.115-1.105-.197-.164-.024-.254-.212-.417-.229-.761-.163-1.555-.245-2.275-.564-.843-.377-1.67-.941-2.086-1.792-.262-.475-.311-1.04-.238-1.571a2.36 2.36 0 0 1 1.293-1.473c.516-.23 1.072-.385 1.62-.507.033-.688-.049-1.391.05-2.079.081.017.204.033.171.148v1.865c5.801-.384 11.61-.802 17.412-1.186.213.008.418-.041.63-.074-.172-.483-.302-.982-.253-1.505.351-.066.769.065 1.08-.082.024-1.244-.008-2.488.016-3.731.14-.401.147-.835.417-1.179.107-.99.213-1.996.59-2.929.229-.327.286-.777.63-1.04z" fill="#010101"/></svg>