<svg version="1.2" baseProfile="tiny" xmlns="http://www.w3.org/2000/svg" viewBox="0 0 75 75" overflow="visible" xml:space="preserve"><path fill="#D9B977" d="M0 0h75v75H0z"/><path d="M28.6 12.4c0-1.4-.6-2.1-2-2.1-.5 0-2.1.1-2.1 2.5v3.9c0 2.5.7 3.2 2.1 3.2 1.1 0 1.8-.3 2.1-.5v-3.5h-2.1v-1.3h3.6v5.6c-.9.5-2 .9-3.5.9-2.4 0-3.6-1.3-3.6-4.5v-3.8c0-2.3 1.2-3.8 3.6-3.8 2.5 0 3.7.9 3.6 3.3h-1.7zm4.3-3h1.5v7.4c0 2.5.8 3.2 2.2 3.2s2.2-.6 2.2-3.2V9.4h1.5v7.3c0 3.2-1.2 4.5-3.6 4.5-2.4 0-3.6-1.3-3.6-4.5V9.4zm17.9 0V21h-2l-4.6-10v10h-1.3V9.4H45l4.5 9.9V9.4h1.3zM23.1 31.6v5.3h-1.5V25.3h4c2 0 2.8 1.4 2.8 2.9 0 1.4-.8 2.4-2.1 2.6 1.3.2 1.8.7 1.9 3 0 .5.2 2.3.4 3h-1.5c-.4-.8-.3-2.3-.4-3.8-.1-1.4-1.2-1.5-1.7-1.5h-1.9zm0-1.3h2.2c1.1 0 1.6-.9 1.6-1.9 0-.8-.4-1.8-1.6-1.8h-2.2v3.7zm7.5 6.6V25.3h6v1.3h-4.5v3.7h4.2v1.3h-4.2v4h4.6v1.3h-6.1zm8.3 0V25.3h3.4c1.6 0 3.2.6 3.2 3.3 0 2.6-2 3.2-3.2 3.2h-1.9v5.1h-1.5zm1.5-6.4H42c.6 0 2-.2 2-2s-1.3-1.9-1.6-1.9h-2v3.9zm7.3 6.4V25.3h1.5v10.3h4.2v1.3h-5.7zM33.5 52.9V41.3h3.8c1.6 0 2.1.5 2.6 1.2.4.6.5 1.3.5 1.5 0 1.4-.5 2.4-2 2.7v.1c1.6.2 2.4 1.2 2.4 2.8 0 3-2.2 3.2-3.5 3.2h-3.8zm1.5-6.7h2.1c1.2 0 1.7-.7 1.7-1.8 0-1-.5-1.7-1.8-1.7h-2.1v3.5zm0 5.4h2.1c1.6 0 2.1-1.1 2.1-2 0-1.8-1.1-2.2-2.6-2.2H35v4.2z" fill="#010101"/></svg>