<svg version="1.2" baseProfile="tiny" xmlns="http://www.w3.org/2000/svg" viewBox="0 0 75 75" overflow="visible" xml:space="preserve"><path fill="#FDD700" d="M0 0h75v75H0z"/><path d="M13.7 17.5v.3c0 1.6 1 2.1 1.9 2.1 1.2 0 2.1-.5 2.1-1.9 0-2.6-5.2-2.3-5.2-5.7 0-2 1.5-3.1 3.4-3.1 2.1 0 3.3 1 3.2 3.4h-1.5c0-1.3-.4-2.1-1.8-2.1-.9 0-1.8.4-1.8 1.7 0 2.5 5.2 2.2 5.2 5.8 0 2.4-1.7 3.2-3.6 3.2-3.4 0-3.4-2.6-3.4-3.7h1.5zm12.1 3.4v-5.5c0-1-.3-1.7-1.4-1.7-1.3 0-1.6 1.1-1.6 2.4v4.8h-1.3V9.3h1.3v4.5h.1c.5-.9 1.1-1.2 2.2-1.2 1.4 0 2.1.7 2.1 2.5v5.7h-1.4zm3.5-3.9c0-2.4.3-4.3 3.1-4.3 2.8 0 3.1 2 3.1 4.3 0 3.6-1.4 4.1-3.1 4.1-1.8 0-3.1-.5-3.1-4.1zm4.8-.6c0-2.2-.7-2.7-1.7-2.7s-1.7.5-1.7 2.7c0 2.6.3 3.6 1.7 3.6 1.3 0 1.7-.9 1.7-3.6zM39 14c.6-1.2 1.2-1.4 2.5-1.4V14h-.8c-1.5 0-1.8 1.1-1.8 2.2V21h-1.3v-8.1h1.3V14zm4.2-1.2v-1.6l1.3-.6v2.1h1.8v1h-1.8v4.9c0 .5 0 1.2 1.2 1.2.1 0 .3 0 .6-.1v1c-.4 0-.9.1-1.3.1-1.2 0-1.8-.5-1.8-1.4v-5.7h-1.3v-1h1.3zM51 17c0-2.4.3-4.3 3.1-4.3 2.8 0 3.1 2 3.1 4.3 0 3.6-1.4 4.1-3.1 4.1-1.7 0-3.1-.5-3.1-4.1zm4.8-.6c0-2.2-.7-2.7-1.7-2.7s-1.7.5-1.7 2.7c0 2.6.3 3.6 1.7 3.6 1.3 0 1.7-.9 1.7-3.6zm3.8-3.6v-1.6c0-1.6 1.2-2 2.3-2h.6v.9c-1.4-.1-1.6.5-1.6 1.2v1.4h1.6v1h-1.6v7.1h-1.3v-7.1h-1.2v-1h1.2zM18.2 33.5v.3c0 1.6 1 2.1 1.9 2.1 1.2 0 2.1-.5 2.1-1.9 0-2.6-5.2-2.3-5.2-5.7 0-2 1.5-3.1 3.4-3.1 2.1 0 3.3 1 3.2 3.4h-1.5c0-1.3-.4-2.1-1.8-2.1-.9 0-1.8.4-1.8 1.7 0 2.5 5.2 2.2 5.2 5.8 0 2.4-1.7 3.2-3.6 3.2-3.4 0-3.4-2.6-3.4-3.7h1.5zm7.9-4.7v-1.6l1.3-.6v2.1h1.8v1h-1.8v4.9c0 .5 0 1.2 1.2 1.2.1 0 .3 0 .6-.1v1c-.4 0-.9.1-1.3.1-1.2 0-1.8-.5-1.8-1.4v-5.7h-1.3v-1h1.3zm4.2 4.2c0-2.4.3-4.3 3.1-4.3s3.1 2 3.1 4.3c0 3.6-1.4 4.1-3.1 4.1s-3.1-.5-3.1-4.1zm4.7-.6c0-2.2-.7-2.7-1.7-2.7s-1.7.5-1.7 2.7c0 2.6.3 3.6 1.7 3.6s1.7-.9 1.7-3.6zm5-2.4c.6-1.2 1.2-1.4 2.5-1.4V30h-.8c-1.5 0-1.8 1.1-1.8 2.2V37h-1.3v-8.1h1.3V30zm5.3 3.3c0 2.3.6 2.7 1.6 2.7.9 0 1.4-.7 1.4-1.5h1.4c0 1.8-1.1 2.6-2.8 2.6-1.7 0-3.1-.5-3.1-4.1 0-2.4.3-4.3 3.1-4.3 2.3 0 2.9 1.3 2.9 3.9v.7h-4.5zm3.2-1c0-2.4-.7-2.6-1.6-2.6-.8 0-1.5.4-1.5 2.6h3.1zm6 4.8c-1.7 0-2.8-.8-2.8-2.6h1.5c0 .5 0 1.6 1.3 1.6.8 0 1.4-.4 1.4-1.2 0-1.4-4-1.5-4-3.9 0-.8.5-2.2 2.8-2.2 1.4 0 2.7.7 2.6 2.3h-1.5c0-.8-.4-1.3-1.3-1.3-.7 0-1.2.4-1.2 1.1 0 1.4 4 1.4 4 3.9 0 1.6-1.2 2.3-2.8 2.3zm-37.4 4.3h1.6l2.2 10 2.3-10h1.9l2.1 10 2.4-10h1.5L28 53h-1.8L24 43l-2.3 10h-1.8l-2.8-11.6zm19 10.3c-.4.9-1.1 1.3-2.1 1.3-1.7 0-2.2-1.1-2.2-2.7 0-2.4 2.4-2.6 4.2-2.5 0-1.1 0-2.2-1.4-2.2-.9 0-1.3.6-1.3 1.4h-1.4c.1-1.8 1-2.4 2.7-2.4 2.1 0 2.6 1.1 2.6 2.4v3.9c0 .6.1 1.3.2 1.9H36v-1.1zm-2.9-1.2c0 .8.4 1.5 1.3 1.5.8 0 1.8-.5 1.7-3.1-1.3 0-3-.1-3 1.6zm7-5.7v-1.6l1.3-.6v2.1h1.8v1h-1.8v4.9c0 .5 0 1.2 1.2 1.2.1 0 .3 0 .6-.1v1c-.4 0-.9.1-1.3.1-1.2 0-1.8-.5-1.8-1.4v-5.7h-1.3v-1h1.3zm5.7 4.5c0 2.3.6 2.7 1.6 2.7.9 0 1.4-.7 1.4-1.5h1.4c0 1.8-1.1 2.6-2.8 2.6-1.7 0-3.1-.5-3.1-4.1 0-2.4.3-4.3 3.1-4.3 2.3 0 2.9 1.3 2.9 3.9v.7h-4.5zm3.2-1c0-2.4-.7-2.6-1.6-2.6-.8 0-1.5.4-1.5 2.6h3.1zm5-2.3c.6-1.2 1.2-1.4 2.5-1.4V46h-.8c-1.5 0-1.8 1.1-1.8 2.2V53h-1.3v-8.1H54V46z" fill="#010101"/><path fill="#FDD700" d="M0 75h75v75H0z"/></svg>