<svg version="1.2" baseProfile="tiny" xmlns="http://www.w3.org/2000/svg" viewBox="0 0 75 75" overflow="visible" xml:space="preserve"><path fill="#FDD700" d="M0 0h75v75H0z"/><path d="M34.3 53.6c0-.3 0-.7-.3-1.2-.5-.8-1.4-.9-1.9-.9-2.8 0-3.4 2.6-3.4 4.4 0 .8.1 2.2 1 3.1.6.6 1.3 1 2.7 1 1.2 0 1.6-.1 1.9-.2v-2.4h-2.2v-1.9h4.7v5.8c-.7.2-1.9.6-4.2.6-2.6 0-4-.6-4.9-1.5-1.3-1.3-1.5-3.1-1.5-4.3 0-4.1 2.6-6.3 6.1-6.3 1.5 0 3 .4 3.9 1.5.8.9.8 1.8.8 2.4h-2.7zm12.4 0c0-.3 0-.7-.3-1.2-.5-.8-1.4-.9-1.9-.9-2.8 0-3.4 2.6-3.4 4.4 0 .8.1 2.2 1 3.1.6.6 1.3 1 2.7 1 1.2 0 1.6-.1 1.9-.2v-2.4h-2.2v-1.9h4.7v5.8c-.7.2-1.9.6-4.2.6-2.6 0-4-.6-4.9-1.5-1.3-1.3-1.5-3.1-1.5-4.3 0-4.1 2.6-6.3 6.1-6.3 1.5 0 3 .4 3.9 1.5.8.9.8 1.8.8 2.4h-2.7zM13.6 25.7c3.1.8-.8-1.9.5-3.3.7-1.3 2.8-1.3 3.5 0 .7 1.1-.5 2-.8 3 .6 1.1 3.8-.5 5.2 1.4-1.3 1.5-5.2-2.3-5 1.1 3.9.5.2.8-.5 1.7-.2 1.2-.5 2.5.1 3.6.7 1.4 3-.1 2.6-1.3.4-.9 1.4-.8 2.1-1.3.4.9 0 2.1-.7 2.9-10.2 5.5-13.1-6.2-8.5-1.3 1.6 3.8 4.2.3 3.2-2.5 0-1.3-3-.2-2-1.7.8.3 1.9-.5 1-1.2-1.6-1.5-3.3 1.5-5 .3 0-.5.6-1 1-.8m5.3-4.2c-2.4.4-.9 3.4 1.1 2.2 1-.9.3-2.6-1.1-2.2zm33.1 3.3c0 .5.2 2 2 2 1.2 0 2-.9 2-2.1 0-2.3-2.2-2.3-3.8-2.3v-2.6c1.5 0 3.8-.1 3.8-2.3 0-1.2-.9-1.8-1.9-1.8-.9 0-1.9.6-1.9 1.9h-3.4c.1-.7.1-1.7.9-2.6 1-1.2 2.6-1.7 4.3-1.7 3.9 0 5.2 2.5 5.2 4.2 0 2.6-2.3 3.3-2.9 3.5.5.2 1.1.4 1.8.9 1.1.9 1.3 2 1.3 2.8 0 2.6-2.4 4.5-5.6 4.5-1.1 0-2.7-.2-3.7-1-1.4-1.1-1.4-2.9-1.4-3.5h3.3z" fill="#010101"/><path d="M-756.4 1280.3h-49.9m41.7 7.8-39.8-49.1m9.5-1.7v52.4" transform="matrix(.7074 0 0 .71529 589.259 -875.813)" fill="none" stroke="#010101" stroke-width="5.957"/><path fill="#FDD700" d="M0 75h75v75H0z"/></svg>