<svg version="1.2" baseProfile="tiny" xmlns="http://www.w3.org/2000/svg" viewBox="0 0 75 75" overflow="visible" xml:space="preserve"><path fill="none" stroke="#010101" stroke-width="6.128" stroke-miterlimit="12.377" d="M32.59-55.675V.019m-9.283-9.283h18.565M23.307-23.249h18.565M23.307-37.111h18.565"/><path fill="#FDD700" d="M0 0h75v75H0z"/><path fill="#010101" d="M34.5 50.1H42V52h-5v2.8h4.6v1.9H37v4.9h-2.5V50.1zm18.3-32c-.1-1.1-.8-1.5-1.6-1.5-2.2 0-2.3 2.7-2.3 4.3.5-.5 1.4-1.2 3-1.2 2.1 0 4.4 1.5 4.4 4.9 0 1.7-.5 2.9-1.6 4-1 .9-2.2 1.4-3.9 1.4-5.3 0-5.3-5.1-5.3-7 0-3.1.4-6.3 2.5-7.8 1.3-1 2.9-1.1 3.5-1.1 2.3 0 4.5 1.2 4.6 4h-3.3zm.2 6.6c0-1.7-.9-2.6-2-2.6-.5 0-2.2.3-2.2 2.7 0 1.9 1 2.7 2.1 2.7 1 0 2.1-.7 2.1-2.8z"/><path d="M-659.2 1174.3h-49.9m41.7 7.8-39.8-49.1m9.5-1.7v52.4" transform="matrix(.70336 0 0 .7112 512.53 -795.176)" fill="none" stroke="#010101" stroke-width="5.957"/></svg>