<svg version="1.2" baseProfile="tiny" xmlns="http://www.w3.org/2000/svg" viewBox="0 0 75 75" overflow="visible" xml:space="preserve"><path fill="#FDD700" d="M0 0h75v75H0z"/><path d="M34.8 53.9c0-.4-.2-2-1.9-2-1.8 0-2.6 1.9-2.6 4.3 0 .7 0 4 2.4 4 1 0 2-.7 2.1-2.2h2.6c0 .7-.1 1.8-1 2.7-1 1.1-2.3 1.3-3.4 1.3-4 0-5.3-2.9-5.3-5.8 0-3.7 2-6.1 5.3-6.1 2.5 0 4.3 1.5 4.3 3.8h-2.5zm10.7 0c0-.4-.2-2-1.9-2-1.8 0-2.6 1.9-2.6 4.3 0 .7 0 4 2.4 4 1 0 2-.7 2.1-2.2h2.6c0 .7-.1 1.8-1 2.7-1 1.1-2.3 1.3-3.4 1.3-4 0-5.3-2.9-5.3-5.8 0-3.7 2-6.1 5.3-6.1 2.5 0 4.3 1.5 4.3 3.8h-2.5zM52.8 18.1c-.1-1.1-.8-1.5-1.6-1.5-2.2 0-2.3 2.7-2.3 4.3.5-.5 1.4-1.2 3-1.2 2.1 0 4.4 1.5 4.4 4.9 0 1.7-.5 2.9-1.6 4-1 .9-2.2 1.4-3.9 1.4-5.3 0-5.3-5.1-5.3-7 0-3.1.4-6.3 2.5-7.8 1.3-1 2.9-1.1 3.5-1.1 2.3 0 4.5 1.2 4.6 4h-3.3zm.2 6.6c0-1.7-.9-2.6-2-2.6-.5 0-2.2.3-2.2 2.7 0 1.9 1 2.7 2.1 2.7 1 0 2.1-.7 2.1-2.8z" fill="#010101"/><path d="M-979.1 910.6h-49.9m41.8 7.8-39.8-49.1m9.4-1.6V920" transform="matrix(.70336 0 0 .7112 737.53 -607.676)" fill="none" stroke="#010101" stroke-width="5.957"/></svg>