<svg version="1.2" baseProfile="tiny" xmlns="http://www.w3.org/2000/svg" viewBox="0 0 75 75" overflow="visible" xml:space="preserve"><path fill="#FAA51A" d="M0 0h75v75H0z"/><path fill="#010101" d="M59.688 19.7v17h-26.5v-17h26.5zm-25.1 2.3v12.5l10.4-6.3-10.4-6.2zm22.3-.9h-20.9l10.4 6.3 10.5-6.3zm-20.9 14.2h20.9l-10.4-6.3-10.5 6.3zm11.8-7.1 10.4 6.3V22l-10.4 6.2z"/><g fill="#010101"><path d="M15.088 45c1.7.1 2.8-.5 2.8-2.3 0-1.3-.6-2.2-1.9-2.2-1.5 0-1.8 1.1-1.7 2.3h-1.8c-.1-2.4 1-3.8 3.6-3.8 2.4 0 3.8 1.2 3.8 3.6 0 2.6-1.9 3-2.7 3.2 2.2.3 2.9 1.5 2.9 3.5 0 2.7-1.5 4-4.1 4-3.9 0-3.6-3.3-3.6-4.1h1.8c0 1.4.2 2.6 1.9 2.6 1.6 0 2.1-1 2.1-2.5 0-2.2-.8-2.7-3-2.7V45zm10.3 8.1V38.7h1.8v12.8h5.3v1.6h-7.1zm13.1-10.1h1.6v11.1c0 2.3-1.5 2.8-3.7 2.8-1.7 0-3.2-.8-3.1-2.7h1.8c0 .9.6 1.5 1.5 1.5 1.1 0 1.8-.7 1.8-1.7v-2.1h-.1c-.4.8-1.3 1.3-2.2 1.3-2.7 0-3.3-2.4-3.3-5.4 0-4.6 2.3-4.9 3.2-4.9 1.1 0 1.9.5 2.4 1.4V43zm-1.9 1.2c-1.9 0-1.9 2.2-1.9 3.6 0 3.2.7 4 2 4 2 0 1.9-2.3 1.9-3.7-.1-1.6 0-3.9-2-3.9zm5.7 8.9V38.7h7.4v1.6h-5.6v4.6h5.2v1.6h-5.2v5h5.7v1.6h-7.5z"/><path d="M51.288 43v-1.9l1.6-.7v2.7h2.2v1.2h-2.2v6.2c0 .6 0 1.5 1.5 1.5.1 0 .4 0 .7-.1v1.3c-.5 0-1.1.2-1.6.2-1.6 0-2.3-.6-2.3-1.8v-7.2h-1.7v-1.2h1.8zm6.1 1.5c.7-1.5 1.6-1.7 3.2-1.7v1.7c-.1 0-.3 0-.4-.1h-.4c-1.8 0-2.3 1.4-2.3 2.7v6h-1.6V43h1.6v1.5z"/></g><path d="M44.688 9.5h1v7.2h-1V9.5zm2.8 0h1v7.2h-1V9.5zM24.088 24.1c-.7.6-1.8 1.2-2.6 1.6v-1.6c1-.5 2.1-1.2 2.7-1.7h1.4v11.1h-1.5v-9.4zM28.288 65.5h-1.1v-7.1l-1.2.8v-1.1c.3-.1 1.1-.7 1.4-1h.9v8.4zm4.4 0v-8.7h4.3v1h-3.2v2.8h3v1h-3v4h-1.1zm4.9 0v-8.7h4.3v1h-3.2v2.8h3v1h-3v4h-1.1zm12.6 0h-1.3l-2-3.7-1.9 3.7h-1.2l2.5-4.5-2.4-4.2h1.3l1.8 3.4 1.8-3.4h1.2l-2.3 4.2 2.5 4.5z" fill="#010101"/></svg>