<svg version="1.2" baseProfile="tiny" xmlns="http://www.w3.org/2000/svg" viewBox="0 0 75 75" overflow="visible" xml:space="preserve"><path fill="#FAA51A" d="M0 0h75v75H0z"/><path fill="#010101" d="M59.688 19.7v17h-26.5v-17h26.5zm-18.7 6.1-6.4-3.9v12.5l6.1-3.6-.2-1.2c0-.1 0-.1.1-.1h.1l1 .7 3.2-1.9h-1.3v-1.1l-1-.6h-.1v-.1.1-.1.1l-.1-.1h.1-.1v-.1h.1-.1l.1.1-.1-.1c-1.5-.5-1.5-.5-1.4-.6zm5.2-4.7h-10.2l6.9 4.1.5-.1h1.2l.2.4v-.4l1-.1v-.2h-.1l.1-.3-.2.3h-.1l-.1-.1-.1-.1-.1-.1-.1-.1-.1-.1-.1-.1-.1-.1-.1-.1-.1-.1-.1-.1-.1-.1v-1.5l.1-.1V22l.1-.1.1-.1.1-.1.1-.1.1-.1.1-.1s.1 0 .1-.1l.1-.1h.4c.3 0 .4 0 .5-.1-.1.1 0 .1 0 0zm-5.3 11.3-5 3h10.5l-.9-.9-2.1-.7-.1-.1-.1-.1-1-.9-.9.6h-.2l-.1-.1-.1-.8zm2.6.5-.1.4.2-.3 1.1.5h.1l.3.1.7-.7v-3.5l-2.9 1.8.6.4.1.1s0 .1-.1.1l-.7.5.1.1-.2.3.2-.3.6.5zm0-7.3v-.1.1zm.2.2 2.1 1.3v-1.4l-1 .1-.2-.4v.4l-.2-.4v.4h-.1l-.2-.4v.4h-.3l-.2-.4.1.4h-.1l-.2-.4.3.4zm2.1-1.9-.1.4.1-.4c.1.1.2.1.2.1v.1h1.1l.3.3-.2-.3.3.2-.2-.3.3.2-.2-.3.3.2-.3-.2.4.1-.3-.2.4.1-.3-.2.1-.1v-.2h.4l-.4-.1v-.1h.4-.4V23l.3-.2-.4.1v-.2s0-.1-.1-.1l.2-.3-.3.2-.1-.1-.1-.1.2-.3-.3.3s-.1 0-.1-.1h-.1l.1-.4-.2.3v-.4l-.1.4v-.4l-.1.4v-.4l-.1.4-.1-.4v.4l-.1-.4v.4l-.1-.4v.4l-.2-.3.1.4h-.1l-.2-.3.1.4h-.1l-.1.1-.3-.2.2.3-.1.1-.3-.2.3.2-.4-.1.3.2-.4-.1.3.2v.1h-.4l.4.1v.5l-.3.2.4-.1-.3.2.4-.1-.3.2.3-.1-.3.3.3-.2-.3.3.3-.2-.2.3.3-.2-.2.3.4-.5-.2.3.2-.3zm0 1.4v.2-.2zm.8 10h10.3l-5-3-.1.7s0 .1-.1.1h-.2l-.8-.5-.1.2-.1.1-.1.1-.8.6-.1.1-.1.1-1.6.6h-.2l-1 .9zm10.3-14.2h-10.1.3s.1 0 .1.1h.2l.1.1.1.1.1.1.1.1.1.1.1.1.1.1.1.1.1.1.1.1v.1s0 .1.1.1v.4l-.4.1h.4V24s0 .1-.1.1-.1.1-.1.1l-.1.1-.1.1-.1.1-.1.1-.1.1-.1.1-.1.1-.1.1-.1.1h-.1v.2h1.8l.1.4v.3l.1-.1v-.3l.1-.4h.1l.7.1h.1l6.6-4.2zm-7.8 4.7-.1-.4-.1.4-.5-.1-.1-.4v.4h-.1l-.1-.4v.4h-.6l-.1-.4v.4h-.3V27l2-1.2zm.8 5.4-2.7-1.7v3.3l.6.6h.2l.2.3-.1-.4.7-.3.1-.1.1-.1.3.3-.2-.3.3.3-.2-.3.1-.1.3.2-.2-.3.5-.4.3.2-.2-.3.1-.1-.7-.5-.1-.1s0-.1.1-.1l.5-.1zm2.3-.3 6.1 3.6V22l-6.4 3.8v.3l-.1-.1.1.1-.1-.1.1.1h-.3V26v.1h-.2l-1.1.7.1.1v.9c0 .1-.1.1-.1.1h-1.3l3.2 1.9 1-.7h.1l.1.1-1.2 1.7zM11.888 53.1h-1.8V41.2l-2.1 1.4v-1.8c.5-.2 1.8-1.2 2.3-1.7h1.6v14zm5.4 0h-1.7V38.7h3l3.6 12.1 3.7-12.1h3v14.4h-1.8V40.3l-4 12.8h-1.7l-4-12.8v12.8zm19-1.4c-.5 1.2-1.3 1.7-2.6 1.7-2.1 0-2.8-1.4-2.8-3.3 0-3.1 3-3.2 5.3-3.1 0-1.3.1-2.8-1.7-2.8-1.1 0-1.7.7-1.6 1.8h-1.8c.1-2.3 1.3-3 3.4-3 2.6 0 3.3 1.3 3.3 3v4.9c0 .8.1 1.6.2 2.4h-1.8v-1.6zm-3.7-1.6c0 1 .5 1.9 1.6 1.9 1 0 2.2-.6 2.1-3.9-1.6 0-3.7-.1-3.7 2zm9.2-5.6c.7-1.5 1.6-1.7 3.2-1.7v1.7c-.1 0-.3 0-.4-.1h-.4c-1.8 0-2.3 1.4-2.3 2.7v6h-1.6V43h1.6v1.5zm3.8-5.8h1.8v1.8h-1.8v-1.8zm1.7 14.4h-1.6V43h1.6v10.1zm7.4 0v-7c0-1.1-.4-2-1.8-2-1.8 0-2.1 1.6-2.1 3v6h-1.6v-8c0-.7 0-1.4-.1-2.1h1.7v1.3h.1c.6-1.1 1.4-1.5 2.7-1.5 2.2 0 2.7 1.3 2.7 3.3v7h-1.6zm5.1-4.5c0 2.8.8 3.4 2 3.4 1.1 0 1.7-.9 1.8-1.9h1.8c0 2.2-1.4 3.3-3.5 3.3s-3.8-.6-3.8-5.1c0-3 .3-5.4 3.8-5.4 2.9 0 3.6 1.6 3.6 4.9v.9h-5.7zm3.9-1.2c0-2.9-.8-3.3-2-3.3-1 0-1.9.5-1.9 3.3h3.9zM44.688 9.5h1v7.2h-1V9.5zm2.8 0h1v7.2h-1V9.5zM24.088 24.1c-.7.6-1.8 1.2-2.6 1.6v-1.6c1-.5 2.1-1.2 2.7-1.7h1.4v11.1h-1.5v-9.4zM28.288 65.5h-1.1v-7.1l-1.2.8v-1.1c.3-.1 1.1-.7 1.4-1h.9v8.4zm4.4 0v-8.7h4.3v1h-3.2v2.8h3v1h-3v4h-1.1zm4.9 0v-8.7h4.3v1h-3.2v2.8h3v1h-3v4h-1.1zm12.6 0h-1.3l-2-3.7-1.9 3.7h-1.2l2.5-4.5-2.4-4.2h1.3l1.8 3.4 1.8-3.4h1.2l-2.3 4.2 2.5 4.5z"/></svg>