<svg version="1.2" baseProfile="tiny" xmlns="http://www.w3.org/2000/svg" viewBox="0 0 75 75" overflow="visible" xml:space="preserve"><path fill="#FAA51A" d="M0 0h75v75H0z"/><path fill="#010101" d="M59.688 19.7v17h-26.5v-17h26.5zm-1.5 1.4h-23.6v14.2h23.6V21.1zm-14.5 7.1c0-1.4 1.2-2.6 2.8-2.6 1.5 0 2.8 1.2 2.8 2.6s-1.2 2.6-2.8 2.6c-1.6 0-2.8-1.1-2.8-2.6zm-5.9 24.9h-1.8V41.2l-2.1 1.4v-1.8c.5-.2 1.8-1.2 2.3-1.7h1.6v14zM43.288 9.5h1v7.2h-1V9.5zm2.8 0h1v7.2h-1V9.5zm2.7 0h1v7.2h-1V9.5zM24.088 24.1c-.7.6-1.8 1.2-2.6 1.6v-1.6c1-.5 2.1-1.2 2.7-1.7h1.4v11.1h-1.5v-9.4zM28.288 65.5h-1.1v-7.1l-1.2.8v-1.1c.3-.1 1.1-.7 1.4-1h.9v8.4zm4.4 0v-8.7h4.3v1h-3.2v2.8h3v1h-3v4h-1.1zm4.9 0v-8.7h4.3v1h-3.2v2.8h3v1h-3v4h-1.1zm12.6 0h-1.3l-2-3.7-1.9 3.7h-1.2l2.5-4.5-2.4-4.2h1.3l1.8 3.4 1.8-3.4h1.2l-2.3 4.2 2.5 4.5z"/></svg>