<svg version="1.2" baseProfile="tiny" xmlns="http://www.w3.org/2000/svg" viewBox="0 0 75 75" overflow="visible" xml:space="preserve"><path fill="#FAA51A" d="M0 0h75v75H0z"/><path fill="#FDD700" d="M-.012 18.8h75v18.8h-75z"/><path fill="#010101" d="M59.688 19.7v17h-26.5v-17h26.5zm-25.1 2.3v12.5l10.4-6.3-10.4-6.2zm22.3-.9h-20.9l10.4 6.3 10.5-6.3zm-20.9 14.2h20.9l-10.4-6.3-10.5 6.3zm11.8-7.1 10.4 6.3V22l-10.4 6.2zM14.188 53.1h-1.8V41.2l-2.1 1.4v-1.8c.5-.2 1.8-1.2 2.3-1.7h1.6v14zm14.8-10.6c0-1.7-.7-2.6-2.6-2.6-.6 0-2.7.1-2.7 3.1v4.9c0 3.2.9 4 2.7 4 1.3 0 2.2-.4 2.6-.6V47h-2.7v-1.6h4.5v7c-1.2.6-2.6 1.1-4.4 1.1-3.1 0-4.5-1.6-4.5-5.6v-4.7c0-2.9 1.5-4.7 4.5-4.7 3.1 0 4.6 1.1 4.5 4.2h-1.9zm5.8 2c.7-1.5 1.6-1.7 3.2-1.7v1.7c-.1 0-.3 0-.4-.1h-.4c-1.8 0-2.3 1.4-2.3 2.7v6h-1.6V43h1.6v1.5zm5.6 4.1c0 2.8.8 3.4 2 3.4 1.1 0 1.7-.9 1.8-1.9h1.8c0 2.2-1.4 3.3-3.5 3.3s-3.8-.6-3.8-5.1c0-3 .3-5.4 3.8-5.4 2.9 0 3.6 1.6 3.6 4.9v.9h-5.7zm3.9-1.2c0-2.9-.8-3.3-2-3.3-1 0-1.9.5-1.9 3.3h3.9zm5.1 1.2c0 2.8.8 3.4 2 3.4 1.1 0 1.7-.9 1.8-1.9h1.8c0 2.2-1.4 3.3-3.5 3.3s-3.8-.6-3.8-5.1c0-3 .3-5.4 3.8-5.4 2.9 0 3.6 1.6 3.6 4.9v.9h-5.7zm3.9-1.2c0-2.9-.8-3.3-2-3.3-1 0-1.9.5-1.9 3.3h3.9zm5.1 5.7h-1.6V38.7h1.6v8.7l3.1-4.4h2l-3.4 4.3 4 5.8h-2.1l-3.6-5.7v5.7zM44.688 9.5l1.9 2.8 1.9-2.8h1.2l-2.6 3.5 2.7 3.8h-1.3l-2.1-3.1-2.2 3.1h-1.2l2.8-3.8-2.5-3.4h1.4zM12.088 35.4c-.9-2.1-1.9-4.8-1.9-7.1 0-1.3.3-2.5.7-3.7.4-1.4.9-2.5 1.1-3.2h1.1c-.3.8-.6 1.9-.9 3.4-.3 1.5-.4 2.5-.4 3.5 0 2.3.6 4.1 1.5 7.2h-1.2zm3.1-3.4 2.9-2.8c.6-.6 1.2-1.2 1.7-1.9.6-.9.8-1.4.8-2 0-.5-.2-1.8-1.8-1.8-1.8 0-1.8 1.5-1.8 1.9h-1.7c0-.5.1-1.6 1-2.4.8-.7 1.7-.8 2.4-.8 1.7 0 3.4.9 3.4 3.2 0 .7 0 1.2-1.2 2.8-.3.4-1.7 1.9-2 2.2l-1.9 1.8h5.3v1.3h-7V32zm10.3-10.6c.9 2.1 1.9 4.8 1.9 7.1 0 1.3-.3 2.5-.7 3.7-.4 1.4-.9 2.5-1.1 3.2h-1.1c.3-.8.6-1.9.9-3.4.3-1.5.4-2.5.4-3.5 0-2.3-.6-4.1-1.5-7.1h1.2zM36.288 61.8h2.6v.9h-2.6v-.9z"/></svg>