<svg version="1.2" baseProfile="tiny" xmlns="http://www.w3.org/2000/svg" viewBox="0 0 75 75" overflow="visible" xml:space="preserve"><path fill="#FAA51A" d="M0 0h75v75H0z"/><path fill="#FDD700" d="M-.012 18.7h75v18.8h-75z"/><path fill="#010101" d="M59.688 19.7v17h-26.5v-17h26.5zm-25.1 2.3v12.5l10.4-6.3-10.4-6.2zm22.3-.9h-20.9l10.4 6.3 10.5-6.3zm-20.9 14.2h20.9l-10.4-6.3-10.5 6.3zm11.8-7.1 10.4 6.3V22l-10.4 6.2zM16.288 53.1V38.7h4.3c1.9 0 4 .7 4 4.1 0 3.3-2.6 4-4 4h-2.4v6.4h-1.9zm1.9-7.9h2c.8 0 2.6-.2 2.6-2.5 0-2.2-1.6-2.4-2-2.4h-2.5v4.9zm7.6 3c0-3 .3-5.4 3.8-5.4s3.8 2.4 3.8 5.4c0 4.5-1.7 5.1-3.8 5.1-2.1 0-3.8-.6-3.8-5.1zm5.9-.7c0-2.8-.9-3.4-2.1-3.4-1.3 0-2.1.6-2.1 3.4 0 3.3.4 4.5 2.1 4.5 1.7 0 2.1-1.2 2.1-4.5zm4.9 5.6h-1.6V38.7h1.6v14.4zm1.7-14.4h1.8v1.8h-1.8v-1.8zm1.8 14.4h-1.6V43h1.6v10.1zm4.8.2c-2.2 0-3.5-1-3.5-3.3h1.9c0 .6 0 1.9 1.7 1.9 1 0 1.7-.5 1.7-1.5 0-1.8-5-1.8-5-4.9 0-1.1.6-2.8 3.5-2.8 1.8 0 3.3.9 3.2 2.9h-1.8c0-1.1-.5-1.6-1.6-1.6-.9 0-1.6.5-1.6 1.4 0 1.8 5 1.7 5 4.8 0 2.3-1.5 3.1-3.5 3.1zm10.4-.2v-6.8c0-1.2-.4-2.1-1.8-2.1-1.6 0-2.1 1.3-2.1 3v5.9h-1.6V38.7h1.6v5.6h.1c.7-1.2 1.4-1.5 2.7-1.5 1.7 0 2.7.9 2.7 3.1v7.2h-1.6zM44.688 9.5l1.9 2.8 1.9-2.8h1.2l-2.6 3.5 2.7 3.8h-1.3l-2.1-3.1-2.2 3.1h-1.2l2.8-3.8-2.5-3.4h1.4zM12.088 35.4c-.9-2.1-1.9-4.8-1.9-7.1 0-1.3.3-2.5.7-3.7.4-1.4.9-2.5 1.1-3.2h1.1c-.3.8-.6 1.9-.9 3.4-.3 1.5-.4 2.5-.4 3.5 0 2.3.6 4.1 1.5 7.2h-1.2zm4.6-4.8c0 1.1.7 1.8 2 1.8 1.6 0 2.2-1 2.2-2 0-1.2-.8-1.8-1.6-2-.6-.1-1-.1-1.5-.1V27c1.1.1 3-.1 3-1.9 0-1.2-.8-1.7-2-1.7-.8 0-1.9.4-2 1.7h-1.6c.1-2.8 2.7-3 3.6-3 2.4 0 3.6 1.5 3.6 3 0 .9-.5 2.2-2.2 2.6 2.4.3 2.4 2.5 2.4 2.7 0 1.6-1.3 3.3-3.8 3.3-1.2 0-2.3-.3-3-1.2-.6-.7-.6-1.5-.7-2h1.6zm8.8-9.2c.9 2.1 1.9 4.8 1.9 7.1 0 1.3-.3 2.5-.7 3.7-.4 1.4-.9 2.5-1.1 3.2h-1.1c.3-.8.6-1.9.9-3.4.3-1.5.4-2.5.4-3.5 0-2.3-.6-4.1-1.5-7.1h1.2zM36.288 61.8h2.6v.9h-2.6v-.9z"/></svg>