<svg version="1.2" baseProfile="tiny" xmlns="http://www.w3.org/2000/svg" viewBox="0 0 75 75" overflow="visible" xml:space="preserve"><path fill="#FAA51A" d="M0 0h75v75H0z"/><path fill="#010101" d="M59.688 19.7v17h-26.5v-17h26.5zm-15.3 8.9v-.7l-9.8-5.9v12.5l9.9-5.9h-.1zm12.5-7.5h-20.9l9.6 5.7v-1.5h-1.2l2.1-3.3 2.1 3.3h-1.2v1.5l9.5-5.7zm-12.5 10.3v-1.1l-8.4 5h20.9l-8.4-5v1.1h-1.2v2.9h-1.7v-2.9h-1.2zm1.2-1.8-1 .6h1v-.6zm1.7.6h1l-1-.6v.6zm10.9 4.3V22l-9.8 5.9v.7h-.1l9.9 5.9zM9.388 53.1V38.7h1.8V45h.1l5-6.3h2.1l-5.2 6.5 5.5 7.9h-2.4l-5.1-7.5h-.1v7.5h-1.7zm9.6-4.9c0-3 .3-5.4 3.8-5.4s3.8 2.4 3.8 5.4c0 4.5-1.7 5.1-3.8 5.1-2 0-3.8-.6-3.8-5.1zm6-.7c0-2.8-.9-3.4-2.1-3.4-1.3 0-2.1.6-2.1 3.4 0 3.3.4 4.5 2.1 4.5 1.7 0 2.1-1.2 2.1-4.5zm5.1-3.3c.6-.9 1.3-1.4 2.4-1.4 1.6 0 3.3.6 3.3 5.1 0 2.5-.1 5.4-3.3 5.4-1 0-1.7-.4-2.2-1.2h-.1v4.8h-1.6V43h1.6v1.2zm3.9 3.7c0-1.5 0-3.7-2.1-3.7-2 0-1.8 2.8-1.8 4.3 0 1.3.1 3.5 1.9 3.5 1.8 0 2-1.4 2-4.1zm8.8 5.2v-7c0-1.1-.4-2-1.8-2-1.8 0-2.1 1.6-2.1 3v6h-1.6v-8c0-.7 0-1.4-.1-2.1h1.7v1.3h.1c.6-1.1 1.4-1.5 2.7-1.5 2.2 0 2.7 1.3 2.7 3.3v7h-1.6zm6.5.2c-2.2 0-3.5-1-3.5-3.3h1.9c0 .6 0 1.9 1.7 1.9 1 0 1.7-.5 1.7-1.5 0-1.8-5-1.8-5-4.9 0-1.1.6-2.8 3.5-2.8 1.8 0 3.3.9 3.2 2.9h-1.8c0-1.1-.5-1.6-1.6-1.6-.9 0-1.6.5-1.6 1.4 0 1.8 5 1.7 5 4.8 0 2.3-1.5 3.1-3.5 3.1zm6.5-.2h-1.6V38.7h1.6v8.7l3.1-4.4h2l-3.4 4.3 4 5.8h-2.1l-3.6-5.7v5.7zm6.1-14.4h1.8v1.8h-1.8v-1.8zm1.8 14.4h-1.6V43h1.6v10.1zM46.088 9.5h1v7.2h-1V9.5zm-22 12.6c3.3 0 3.7 3.6 3.7 5.6 0 2.6-.5 4.1-1.5 5-.8.7-1.7.8-2.2.8-1.5 0-2.5-.9-3-1.8-.4-.7-.7-1.8-.7-3.8 0-1.5.2-5.8 3.7-5.8zm0 10.2c1.9 0 2.2-2.4 2.2-4.4 0-2.7-.5-4.5-2.1-4.5-1.9 0-2.2 2.5-2.2 4.5 0 2.5.4 4.4 2.1 4.4zM21.088 65.5v-8.7h2.6c1.2 0 2.4.4 2.4 2.5 0 2-1.5 2.4-2.4 2.4h-1.5v3.8h-1.1zm1.1-4.7h1.2c.5 0 1.5-.1 1.5-1.5 0-1.3-1-1.5-1.2-1.5h-1.5v3zm4.7 1.8c0-1.8.2-3.2 2.3-3.2s2.3 1.5 2.3 3.2c0 2.7-1 3.1-2.3 3.1s-2.3-.4-2.3-3.1zm3.5-.4c0-1.7-.5-2-1.3-2s-1.3.4-1.3 2c0 2 .3 2.7 1.3 2.7s1.3-.8 1.3-2.7zm3.1 3.3h-1v-8.7h1v8.7zm1.1-8.6h1.1V58h-1.1v-1.1zm1.1 8.6h-1v-6.1h1v6.1zm3 .1c-1.3 0-2.1-.6-2.1-2h1.1c0 .3 0 1.2 1 1.2.6 0 1-.3 1-.9 0-1.1-3-1.1-3-2.9 0-.6.4-1.7 2.1-1.7 1.1 0 2 .5 1.9 1.7h-1.1c0-.6-.3-1-.9-1-.5 0-.9.3-.9.8 0 1.1 3 1 3 2.9 0 1.4-.9 1.9-2.1 1.9zm6.3-.1v-4.1c0-.7-.2-1.3-1.1-1.3-1 0-1.2.8-1.2 1.8v3.6h-1v-8.7h1v3.4c.4-.7.9-.9 1.6-.9 1 0 1.6.5 1.6 1.9v4.3h-.9zm10.1 0h-1.3l-2-3.7-1.9 3.7h-1.2l2.5-4.5-2.4-4.2h1.3l1.8 3.4 1.8-3.4h1.2l-2.3 4.2 2.5 4.5z"/></svg>