<svg version="1.2" baseProfile="tiny" xmlns="http://www.w3.org/2000/svg" viewBox="0 0 75 75" overflow="visible" xml:space="preserve"><path fill="#FAA51A" d="M0 0h75v75H0z"/><path fill="#010101" d="M59.688 19.7v17h-26.5v-17h26.5zm-25.1 11.7v3.1l3-1.8h-.2c-1.2 0-2.1-.5-2.8-1.3zm6.4-5.6-6.4-3.9v5c.6-.8 1.6-1.4 2.8-1.4 2 0 3.5 1.6 3.5 3.5 0 .2 0 .4-.1.5l.8.6 3.2-1.9h-1.3v-1.1l-1-.6h-.1v-.1.1-.1.1l-.1-.1h.1-.1v-.1h.1-.1l.1.1-.1-.1c-1.4-.4-1.4-.4-1.3-.5zm-1.5 3.4c0-1.2-1-2.1-2.1-2.1-1.2 0-2.1 1-2.1 2.1 0 1.2 1 2.1 2.1 2.1 1.2 0 2.1-.9 2.1-2.1zm6.7-8.1h-10.2l6.9 4.1.5-.1h1.2l.2.4v-.4l1-.1v-.2h-.1l.1-.3-.2.3h-.1l-.1-.1-.1-.1-.1-.1-.1-.1-.1-.1-.1-.1-.1-.1-.1-.1-.1-.1-.1-.1-.1-.1v-1.5l.1-.1V22l.1-.1.1-.1.1-.1.1-.1.1-.1.1-.1s.1 0 .1-.1l.1-.1h.4c.3 0 .4 0 .5-.1-.1.1 0 .1 0 0zm-10.2 14.2h10.5l-.9-.9-2.1-.7-.1-.1-.1-.1-1-.9-.9.6h-.2l-.1-.1-.1-.7-5 2.9zm4.4-4.3.3-.2v-.2c-.1.2-.2.3-.3.4zm3.1 1.9-.1.4.2-.3 1.1.5h.1l.3.1.7-.7v-3.5l-2.9 1.8.6.4.1.1s0 .1-.1.1l-.7.5.1.1-.2.3.2-.3.6.5zm0-7.3v-.1.1zm.2.2 2.1 1.3v-1.4l-1 .1-.2-.4v.4l-.2-.4v.4h-.1l-.2-.4v.4h-.3l-.2-.4.1.4h-.1l-.2-.4.3.4zm2.1-1.9-.1.4.1-.4c.1.1.2.1.2.1v.1h1.1l.3.3-.2-.3.3.2-.2-.3.3.2-.2-.3.3.2-.3-.2.4.1-.3-.2.4.1-.3-.2.1-.1v-.2h.4l-.4-.1v-.1h.4-.4V23l.3-.2-.4.1v-.2s0-.1-.1-.1l.2-.3-.3.2-.1-.1-.1-.1.2-.3-.3.3s-.1 0-.1-.1h-.1l.1-.4-.2.3v-.4l-.1.4v-.4l-.1.4v-.4l-.1.4-.1-.4v.4l-.1-.4v.4l-.1-.4v.4l-.2-.3.1.4h-.1l-.2-.3.1.4h-.1l-.1.1-.3-.2.2.3-.1.1-.3-.2.3.2-.4-.1.3.2-.4-.1.3.2v.1h-.4l.4.1v.5l-.3.2.4-.1-.3.2.4-.1-.3.2.3-.1-.3.3.3-.2-.3.3.3-.2-.2.3.3-.2-.2.3.4-.5-.2.3.2-.3zm0 1.4v.2-.2zm.8 10h10.3l-5-3-.1.7s0 .1-.1.1h-.2l-.8-.5-.1.2-.1.1-.1.1-.8.6-.1.1-.1.1-1.6.6h-.2l-1 .9zm10.3-14.2h-10.1.3s.1 0 .1.1h.2l.1.1.1.1.1.1.1.1.1.1.1.1.1.1.1.1.1.1.1.1v.1s0 .1.1.1v.4l-.4.1h.4V24s0 .1-.1.1-.1.1-.1.1l-.1.1-.1.1-.1.1-.1.1-.1.1-.1.1-.1.1-.1.1-.1.1h-.1v.2h1.8l.1.4v.3l.1-.1v-.3l.1-.4h.1l.7.1h.1l6.6-4.2zm-7.8 4.7-.1-.4-.1.4-.5-.1-.1-.4v.4h-.1l-.1-.4v.4h-.6l-.1-.4v.4h-.3V27l2-1.2zm.8 5.4-2.7-1.7v3.3l.6.6h.2l.2.3-.1-.4.7-.3.1-.1.1-.1.3.3-.2-.3.3.3-.2-.3.1-.1.3.2-.2-.3.5-.4.3.2-.2-.3.1-.1-.7-.5-.1-.1s0-.1.1-.1l.5-.1zm8.3-4.2v-5l-6.4 3.8v.3l-.1-.1.1.1-.1-.1.1.1h-.3V26v.1h-.2l-1.1.7.1.1v.9c0 .1-.1.1-.1.1h-1.3l3.2 1.9.8-.6c0-.2-.1-.3-.1-.5 0-2 1.6-3.5 3.5-3.5.3.4 1.3 1 1.9 1.8zm-6 3.9.3.2c-.1-.1-.2-.3-.2-.4l-.1.2zm3.3.4c1.2 0 2.1-1 2.1-2.1 0-1.2-1-2.1-2.1-2.1-1.2 0-2.1 1-2.1 2.1-.1 1.2.9 2.1 2.1 2.1zm-.2 1.4 3 1.8v-3.1c-.6.8-1.6 1.4-2.8 1.4-.1-.1-.2-.1-.2-.1zM13.088 53.1h-1.8V41.2l-2.1 1.4v-1.8c.5-.2 1.8-1.2 2.3-1.7h1.6v14zm3.5 0V38.7h7.2v1.6h-5.3v4.6h5v1.6h-5v6.6h-1.9zm9.8 0h-1.7V38.7h3l3.6 12.1 3.7-12.1h3v14.4h-1.8V40.3l-4 12.8h-1.7l-4-12.8v12.8zm13.9-10.1v-1.9l1.6-.7v2.7h2.2v1.2h-2.2v6.2c0 .6 0 1.5 1.5 1.5.1 0 .4 0 .7-.1v1.3c-.5 0-1.1.2-1.6.2-1.6 0-2.3-.6-2.3-1.8v-7.2h-1.7v-1.2h1.8zm6.3 10.1h-1.7V38.7h3l3.6 12.1 3.7-12.1h3v14.4h-1.8V40.3l-4 12.8h-1.7l-4-12.8v12.8zm15.5-8.6c.7-1.5 1.6-1.7 3.2-1.7v1.7c-.1 0-.3 0-.4-.1h-.4c-1.8 0-2.3 1.4-2.3 2.7v6h-1.6V43h1.6v1.5zM46.088 9.5h1v7.2h-1V9.5zm-22 12.6c3.3 0 3.7 3.6 3.7 5.6 0 2.6-.5 4.1-1.5 5-.8.7-1.7.8-2.2.8-1.5 0-2.5-.9-3-1.8-.4-.7-.7-1.8-.7-3.8 0-1.5.2-5.8 3.7-5.8zm0 10.2c1.9 0 2.2-2.4 2.2-4.4 0-2.7-.5-4.5-2.1-4.5-1.9 0-2.2 2.5-2.2 4.5 0 2.5.4 4.4 2.1 4.4zm12.2 29.5h2.6v.9h-2.6v-.9z"/></svg>