<svg version="1.2" baseProfile="tiny" xmlns="http://www.w3.org/2000/svg" viewBox="0 0 75 75" overflow="visible" xml:space="preserve"><path fill="#FAA51A" d="M0 0h75v75H0z"/><path fill="#010101" d="M59.688 19.7v17h-26.5v-17h26.5zm-25.1 2.3v12.5l10.4-6.3-10.4-6.2zm22.3-.9h-20.9l10.4 6.3 10.5-6.3zm-20.9 14.2h20.9l-10.4-6.3-10.5 6.3zm11.8-7.1 10.4 6.3V22l-10.4 6.2zM14.188 53.1h-1.8V41.2l-2.1 1.4v-1.8c.5-.2 1.8-1.2 2.3-1.7h1.6v14zm7.8 0h-1.8V41.2l-2.1 1.4v-1.8c.5-.2 1.8-1.2 2.3-1.7h1.6v14zm14.3-10.4c0-.8 0-1.6-.4-2.1s-1.2-.6-1.6-.6c-1.5 0-2.1.9-2.2 1.1-.1.2-.4.5-.4 3V48c0 3.5 1.2 4 2.6 4 .6 0 2.3-.2 2.3-3h1.9c.1 4.6-3.1 4.6-4.1 4.6-1.8 0-4.6-.1-4.6-5.7v-4.1c0-4.1 1.8-5.2 4.6-5.2 2.9 0 4 1.5 3.8 4.3h-1.9zm9.1 1.8-4.5 7.3h4.6v1.3h-6.4v-1.5l4.4-7.2h-4.2v-1.3h6v1.4zm6.6 1.8c0-1.7-.8-2.1-1.4-2.1-1.3 0-2.1.6-2.1 3.4 0 3.3.4 4.5 2.1 4.5.4 0 1.5-.4 1.5-2.2h1.7c.1 2.8-2.1 3.6-3.2 3.6-2.1 0-3.8-.6-3.8-5.1 0-3 .3-5.4 3.8-5.4 2 0 3.2 1.2 3.1 3.4h-1.7zm9.2 6.8v-6.8c0-1.2-.4-2.1-1.8-2.1-1.6 0-2.1 1.3-2.1 3v5.9h-1.6V38.7h1.6v5.6h.1c.7-1.2 1.4-1.5 2.7-1.5 1.7 0 2.7.9 2.7 3.1v7.2h-1.6zM44.688 9.5h1v7.2h-1V9.5zm2.8 0h1v7.2h-1V9.5zM24.088 24.1c-.7.6-1.8 1.2-2.6 1.6v-1.6c1-.5 2.1-1.2 2.7-1.7h1.4v11.1h-1.5v-9.4zm12.2 37.7h2.6v.9h-2.6v-.9z"/></svg>