<svg version="1.2" baseProfile="tiny" xmlns="http://www.w3.org/2000/svg" viewBox="0 0 75 75" overflow="visible" xml:space="preserve"><path fill="#F26723" d="M0 0h75v75H0z"/><path fill="#FDD700" d="M59.688 19.7v17h-26.5v-17h26.5zm-25.1 1.4v13.1l10.9-13.1h-10.9zm.9 14.2h21.8l-10.9-13.1-10.9 13.1zm8.2-5.2c0-1.4 1.2-2.6 2.8-2.6 1.5 0 2.8 1.2 2.8 2.6 0 1.4-1.2 2.6-2.8 2.6-1.6 0-2.8-1.1-2.8-2.6zm14.5-9h-10.9l10.9 13.1V21.1zM19.688 39.2h7.2v1.6l-3.7 12.3h-2.1l3.9-12.3h-5.3v-1.6zm23.1-.5v14.4h-2.5l-5.7-12.5v12.5h-1.6V38.7h2.6l5.6 12.4V38.7h1.6zm10.1 1.8-7.2 11h7.3v1.6h-9V51l7-10.7h-6.8v-1.6h8.6v1.8zM43.288 9.5h1v7.2h-1V9.5zm2.8 0h1v7.2h-1V9.5zm2.7 0h1v7.2h-1V9.5zM24.088 24.1c-.7.6-1.8 1.2-2.6 1.6v-1.6c1-.5 2.1-1.2 2.7-1.7h1.4v11.1h-1.5v-9.4zM27.788 65.5v-1c2.4-3.4 3.2-4 3.2-5.5 0-.7-.3-1.1-1-1.1-.8 0-1 .7-1 1.4h-1.1c-.1-1.4.6-2.3 2-2.3 1.5 0 2.2.7 2.2 2.2 0 1.9-.9 2.5-3.1 5.3h3.3v1h-4.5zm13.5-8.6v8.7h-1.5l-3.4-7.5v7.5h-1v-8.7h1.6l3.4 7.4v-7.4h.9zm6.2 1.1-4.3 6.6h4.4v1h-5.4v-1.2l4.2-6.4h-4.1v-1h5.2v1z"/></svg>