<svg version="1.2" baseProfile="tiny" xmlns="http://www.w3.org/2000/svg" viewBox="0 0 75 75" overflow="visible" xml:space="preserve"><path fill="#FFF" d="M0 0h75v75H0z"/><path fill="#ED2224" d="m39.3 50.1 4 11.6h-2.5l-.8-2.5h-4.6l-.9 2.5h-2.4l4.2-11.6h3zm.1 7.2-1.6-4.9-1.7 4.9h3.3zm17.772-25.082c.064.055.128.036.183.036.431-.055.862-.064 1.275.055.247.074.458 0 .678-.073.239-.073.239-.073.239.174v.12c-.01.082.027.137.1.174.66.376 1.073.944 1.33 1.65.183.504.266 1.018.238 1.55-.018.256-.018.256-.257.192a5.188 5.188 0 0 0-.54-.137c.11.036.11.128.1.22-.009.165 0 .339 0 .504 0 .064-.018.11-.082.147-.092.036-.12.146-.055.229.046.055.037.091.018.146-.082.184-.174.358-.257.541-.027.055-.073.074-.128.074-.128-.01-.22.082-.202.21.01.056-.018.092-.055.129-.137.12-.284.238-.421.358-.055.055-.11.064-.184.018-.11-.064-.21 0-.229.128 0 .037-.027.064-.055.083-.183.1-.376.201-.56.302-.036.019-.073.019-.118-.009-.092-.064-.175-.027-.184.083 0 .045-.027.073-.064.091-.192.101-.385.202-.568.303-.046.027-.083.009-.11-.028-.028-.036-.065-.055-.11-.027-.046.018-.074.055-.065.11.01.064-.027.092-.082.11-.183.092-.367.183-.541.284-.055.028-.092.018-.128-.018-.074-.064-.165-.037-.165.064-.01.073-.037.11-.101.137a8.22 8.22 0 0 0-.486.266c-.064.037-.11.046-.165-.018-.028-.037-.055-.055-.101-.027-.037.018-.083.036-.064.091.018.064-.01.101-.064.129-.184.091-.367.192-.55.293-.046.027-.083.018-.11-.018-.028-.037-.065-.046-.11-.028-.046.018-.083.046-.074.101.01.055-.027.082-.073.1-.184.093-.358.193-.541.285-.046.028-.092.028-.138-.018-.036-.046-.073-.046-.119-.019-.037.028-.064.046-.055.101.018.055-.027.083-.064.101-.165.092-.33.174-.495.266-.055.027-.11.055-.184 0-.064-.046-.137 0-.146.064-.01.092-.065.11-.138.138-.156.055-.312.1-.495.165.083.009.128.018.193.018-.065.073-.138.064-.202.064h-2.888c-1.137 0-2.265.01-3.402-.009-2.173-.027-4.345 0-6.51-.027-2.236-.028-4.483 0-6.72-.019-2.411-.027-4.813-.009-7.224-.018-.596 0-1.183-.01-1.78-.018a.423.423 0 0 1-.228-.055c.036-.046.091-.01.137-.037-.201-.055-.394-.11-.587-.156-.064-.018-.11-.037-.128-.12-.018-.082-.12-.118-.183-.063-.046.045-.092.045-.147.027a14.036 14.036 0 0 1-.568-.202c-.055-.018-.092-.045-.083-.11.01-.045-.01-.064-.046-.073-.046-.018-.073-.01-.1.028-.046.073-.101.055-.166.036-.174-.064-.348-.119-.522-.183-.064-.018-.101-.055-.092-.12.01-.045-.018-.073-.064-.082-.037-.009-.064 0-.092.037-.036.055-.082.046-.128.027a12.17 12.17 0 0 0-.532-.183c-.064-.018-.12-.046-.137-.12-.019-.063-.083-.09-.138-.036-.055.046-.1.037-.156.018-.174-.064-.348-.119-.522-.183-.055-.018-.101-.037-.11-.12 0-.082-.083-.11-.147-.054a.128.128 0 0 1-.138.018l-.568-.192c-.046-.019-.073-.046-.083-.101-.018-.11-.1-.147-.192-.083a.097.097 0 0 1-.11.01c-.193-.083-.385-.175-.578-.257-.055-.028-.064-.064-.073-.12-.01-.1-.064-.137-.165-.1-.046.018-.083.009-.12-.019-.164-.119-.339-.238-.504-.357-.036-.028-.046-.064-.046-.11a.212.212 0 0 0-.21-.248c-.046 0-.074-.018-.092-.055-.11-.165-.22-.339-.33-.504-.028-.046-.046-.083-.01-.138.074-.1.056-.201-.054-.265-.037-.019-.046-.046-.055-.083-.019-.202-.046-.394-.064-.596-.01-.055 0-.11.055-.147.064-.045.064-.183.009-.229-.046-.046-.046-.082-.028-.137.055-.184.101-.367.156-.56.018-.055.037-.1.11-.11.092-.009.147-.183.083-.256-.037-.046-.083-.01-.12 0-.476.137-.953.284-1.43.421-.147.046-.165.028-.156-.119.019-.944.459-1.687 1.165-2.283.467-.394 1.017-.642 1.613-.78l.66-.164a.265.265 0 0 0 .184-.128c.156-.239.33-.477.486-.716.018-.027.064-.064.036-.1a.238.238 0 0 0-.146-.083c-.046-.01-.046.055-.064.083-.056.146-.129.284-.175.43-.1.386-.586.514-.898.395-.193-.074-.404-.083-.605-.12-.092-.018-.184-.027-.275-.045a.126.126 0 0 1-.092-.074c-.092-.201-.092-.21.128-.275.239-.064.486-.137.725-.201a.183.183 0 0 0 .137-.12l.193-.495c.027-.064.009-.091-.046-.119-.129-.064-.248-.137-.376-.21-.064-.037-.083-.074-.046-.147.183-.285.348-.578.532-.853a1.24 1.24 0 0 1 .477-.394c.11-.055.265-.037.394-.046.642-.046 1.293-.019 1.944-.028.229 0 .458.01.687-.055.037-.009.074-.018.101-.009.083.018.128 0 .12-.092 0-.055.036-.1.1-.091.1.018.174-.028.23-.101.155-.193.348-.238.586-.22.312.018.633.009.944.009.101 0 .175.028.239.1.036.047.082.083.119.12.055.064.11.11.21.1.047-.008.093.01.093.065-.01.11.064.11.146.11h3.264c.11 0 .22.018.321.092.046.036.101.027.156.027.871 0 1.733 0 2.604.01.22 0 .45.009.67.018.082 0 .137-.01.137-.11 0-.055.036-.074.082-.074h.174c.055 0 .101.028.101.083 0 .073.046.1.11.092h.174c.074 0 .12-.01.129-.092 0-.046.036-.055.073-.064h.211c.037 0 .073.018.073.055 0 .1.074.1.147.1h1.559c1.09 0 2.182 0 3.273.01.11 0 .146-.028.146-.138a10.53 10.53 0 0 1 0-.76c0-.102-.027-.138-.128-.138-.605 0-1.22-.01-1.824-.019-.11 0-.211.065-.33.046-.074-.009-.11-.027-.101-.1v-.01c.064-.33-.11-.577-.285-.825-.348-.504-.678-1.027-1.026-1.54-.358-.541-.716-1.073-1.073-1.614-.037-.046-.073-.082-.128-.073h-.092c-.211 0-.248-.064-.202-.275.018-.083.074-.064.129-.064h1.21c.082.009.119-.028.119-.12 0-.082-.018-.165.11-.165.046 0 .046-.055.046-.091v-.505a.117.117 0 0 0-.046-.1c-.064-.074-.046-.165.046-.211s.183-.092.284-.138c.046-.018.092-.046.083-.11-.01-.128.11-.128.174-.128s.192-.01.183.128c0 .064.037.092.092.12.082.045.174.082.257.137.091.055.091.137 0 .202a.102.102 0 0 0-.046.091v.523c0 .046.009.092.064.082.1-.009.128.055.119.138-.01.092.01.147.128.137.11 0 .12-.055.12-.137 0-.248 0-.248.247-.312l.101-.027c.1-.019.156-.055.165-.175a.4.4 0 0 1 .312-.357c.183-.055.357.018.467.192.046.065.083.074.156.055.11-.036.266-.027.33-.11.055-.064.01-.21.01-.33v-.724c0-.092.036-.147.128-.128.238.055.367-.147.532-.248.045-.027.027-.092.018-.137-.01-.175.01-.193.174-.193h.459c.082 0 .128-.027.119-.11-.01-.1.027-.165.137-.147.074.01.12-.018.11-.1-.009-.083.037-.101.11-.101h.963c.073 0 .128.018.12.11-.01.064.027.1.09.1.102-.009.148.046.13.138-.01.12.036.147.146.138.082-.01.174-.01.257 0 .091.009.137-.037.137-.12 0-.082 0-.165.128-.155.046 0 .055-.046.046-.083-.009-.092.037-.128.12-.128.32 0 .65 0 .971.009.074 0 .129.018.12.1-.01.083.036.102.11.102.155 0 .165 0 .165.155 0 .083.027.12.119.11h.44c.082 0 .128.037.11.12-.046.238.055.44.192.614.147.183.165.403.175.623.009.147 0 .294-.01.44 0 .065.01.092.083.11.32.046.642.101.954.165.1.019.11-.018.11-.1v-1.522c0-.11.073-.165.155-.12.046.028.055.074.065.12.073.284.128.577.21.861.074.248.11.496.092.752-.009.101.037.138.128.147.358.055.716.12 1.064.183.1.019.183.074.266.129.064.036.11.046.183.009.303-.174.624-.01.66.34.01.09.046.127.12.173.229.11.449.239.678.358a.21.21 0 0 1 .11.165c.018.092.064.147.165.165.367.073.651.275.908.55.055.064.11.1.201.092a.252.252 0 0 1 .211.073c.065.064.129.064.211.064h1.064c.156 0 .165 0 .174.165.01.074.046.092.1.092h.395c.083 0 .138.037.128.12-.009.09.037.11.12.11.834.036 1.668.09 2.503.1.394.01.788-.01 1.173.018.477.028.945.01 1.421.019.789.018 1.586.046 2.375.036.266 0 .532-.027.798-.045.11-.01.146.036.146.146-.009.165 0 .321 0 .486 0 .064-.018.101-.091.092-.743-.073-1.495-.037-2.238-.037-1.164 0-2.328.028-3.502.028-.577 0-1.146.018-1.724.046-.779.045-1.558.073-2.337.064-.083 0-.166-.019-.211.082-.01.028-.065.037-.101.055-.12.055-.248.083-.33.202-.046.064-.138.082-.22.082-.046 0-.083 0-.12.037-.091.11-.183.22-.265.33a.107.107 0 0 0-.019.092l.11.412c.01.046.037.065.083.065h.834c.073 0 .092-.046.092-.101-.01-.101.036-.129.137-.129.376 0 .752.01 1.119 0 .11 0 .147.037.147.147-.01.321 0 .642-.01.963 0 .091.028.119.12.119.614-.01 1.228-.018 1.833 0 .294.01.303-.073.294.266 0 .082.036.11.11.11h.091c.083-.01.12.037.12.12 0 .283 0 .558-.01.843 0 .055 0 .11-.055.146-.036.028-.027.074-.027.11v.44c0 .092-.028.147-.128.147-.065 0-.101.01-.101.092s.046.082.11.082c.247.019.504.019.752.019.449 0 .898.027 1.347.027.11 0 .147-.037.147-.147 0-.192.01-.375.01-.568 0-.092-.047-.12-.13-.12-.32 0-.274.02-.274-.283 0-.312-.028-.285.275-.285h.412c.092 0 .138.028.129.129-.01.11 0 .22 0 .32 0 .083-.028.11-.11.11-.239.01-.239.01-.239.248v.477c0 .073.028.11.101.1h.138c.165 0 .21-.036.266-.2a.954.954 0 0 1 .165-.267c.128-.174.33-.284.458-.467.01-.019.028-.028.046-.037.082-.046.165-.128.257-.073.091.045.045.165.045.247.01.202 0 .404 0 .605.01.092.01.184-.137.193zm-21.06 7.17c-.65 0-1.311 0-1.962-.01-.092 0-.12.019-.147.11a3.22 3.22 0 0 1-.385.807 2.948 2.948 0 0 1-.642.706c-.027.018-.064.055 0 .073.074.019.074.074.083.138l.027.413c.01.082.037.137.138.128.11-.01.22-.01.32 0 .102.01.138-.046.148-.138l.055-.412c.018-.129.045-.147.183-.147.11 0 .128.064.137.156 0 .128.019.257.028.394.01.101.046.156.156.147.1-.01.202-.01.302 0 .11.01.138-.046.147-.138.018-.146.046-.293.064-.449.01-.1.083-.11.156-.11s.138.01.147.11c.009.165.027.321.046.486 0 .073.027.101.1.101h.349c.073 0 .11-.028.12-.1.017-.166.045-.331.082-.487.027-.137.137-.073.22-.092.073-.009.082.056.082.11.01.156.037.312.046.468.01.064.028.101.1.101.13 0 .258-.01.377.01.082.008.119-.038.137-.12.019-.156.055-.312.064-.468.01-.128.11-.082.175-.091.064-.01.119.009.119.1.009.166.027.321.046.486 0 .065.027.101.1.092h.367c.083 0 .11-.046.12-.12.018-.155.045-.31.064-.467.009-.1.073-.1.146-.1.074 0 .138 0 .147.1.01.156.028.312.046.468.01.082.037.128.128.12.12-.01.239 0 .358 0 .064 0 .1-.028.1-.093.019-.155.047-.32.065-.476.009-.129.092-.12.183-.12s.129.046.138.129l.027.45c0 .072.037.11.11.11h.367c.064 0 .092-.028.1-.083.065-.285.074-.294-.173-.459a3.173 3.173 0 0 1-1.238-1.687c-.037-.1-.083-.128-.183-.128-.688-.018-1.339-.018-1.99-.018zm12.9 1.705c-.064-.101-.174-.156-.248-.239a3.529 3.529 0 0 1-.76-1.256c-.028-.091-.074-.128-.175-.128-1.054 0-2.1-.01-3.154-.018-.229 0-.192-.037-.275.192a3.115 3.115 0 0 1-1.137 1.513c-.128.092-.174.193-.155.34.009.063.018.118.018.183 0 .045.018.073.073.073.129-.01.257.018.394.01.065-.01.101-.038.11-.102.019-.156.055-.32.083-.476.018-.12.1-.101.174-.101s.12.018.129.11c.009.146.036.293.045.449.01.1.046.137.147.137.12-.009.238 0 .358 0 .064 0 .11-.018.119-.091.018-.147.046-.294.064-.45.01-.11.055-.137.156-.137.11 0 .156.037.165.138.01.137.018.284.027.421 0 .083.028.11.11.11h.358c.073 0 .11-.027.12-.1.018-.147.054-.285.063-.431.01-.129.074-.156.175-.156.119 0 .137.082.137.165l.028.403c0 .073.027.12.119.12h.357c.065 0 .101-.019.11-.092.019-.156.055-.303.065-.459.009-.156.11-.119.192-.119.101-.01.12.055.12.138l.027.412c.009.083.036.128.128.12.12-.01.23 0 .349 0 .073 0 .1-.028.11-.102.027-.165.064-.32.082-.485.018-.12.101-.074.165-.083.064-.01.12 0 .128.092.01.137.037.284.046.421.01.147.019.156.165.156.11 0 .211-.009.321.019.074.018.11-.028.12-.092l.054-.367c0-.192 0-.192.193-.238zm-20.17-.046c-.01-.046-.046-.064-.065-.092a3.422 3.422 0 0 1-.89-1.237c-.045-.12-.036-.275-.146-.34s-.256-.009-.385-.018c-.137-.018-.192.037-.238.165a3.114 3.114 0 0 1-1.018 1.467c-.092.073-.12.147-.1.248l.027.357c.009.073.036.12.128.11.101-.01.202 0 .303 0 .165 0 .156 0 .183-.165.018-.137.046-.284.064-.422.019-.119.101-.082.174-.082.065-.01.12 0 .129.092.009.155.036.311.046.467 0 .083.027.11.11.11.11 0 .22-.01.339 0 .092.01.128-.037.137-.12.019-.146.055-.292.074-.44.009-.1.064-.118.146-.118.083 0 .156 0 .165.11.01.137.028.284.037.421.01.092.028.147.138.138.119-.01.238-.01.357.018.074.019.12-.009.12-.091.018-.138.045-.275.054-.413-.009-.073-.009-.156.11-.165zm-9.527-1.742c-.055-.01-.128-.037-.128.064 0 .074-.064.156.083.184.165.036.165.055.128.22-.028.137-.064.265-.092.403-.018.064-.009.11.064.128.11.037.22.074.33.12.083.036.129.009.166-.065.064-.146.146-.284.21-.421.055-.11.129-.065.202-.046.083.027.11.073.083.156-.046.155-.074.302-.12.458-.018.073.01.1.065.12.119.036.229.082.348.118.064.028.1.01.128-.045.065-.138.147-.266.211-.413.046-.11.11-.092.193-.064.092.027.128.073.1.174l-.11.422c-.018.073-.009.128.083.156.101.027.202.064.294.1.073.028.146.028.183-.055.037-.082.1-.155 0-.256-.367-.376-.642-.807-.78-1.32-.027-.101-.073-.12-.174-.12-.486-.009-.98 0-1.467-.018zm35.922.752a.632.632 0 0 1-.027-.074c-.046-.137-.101-.284-.138-.421-.018-.074-.064-.101-.137-.101h-.624c-.082 0-.11.037-.137.1-.11.294-.22.587-.413.844-.11.156-.1.156.01.321.045.064.091.073.155.037.101-.064.211-.12.321-.156.083-.028.092-.073.064-.156-.055-.147-.091-.293-.146-.44-.046-.128.055-.138.119-.183.073-.055.119-.01.156.045.082.129.174.257.256.395.037.055.065.073.129.036.119-.064.238-.119.357-.183.028-.01.065-.018.055-.064z"/></svg>