<svg version="1.2" baseProfile="tiny" xmlns="http://www.w3.org/2000/svg" viewBox="0 0 75 75" overflow="visible" xml:space="preserve"><path fill="#FFF" d="M0 0h75v75H0z"/><path fill="#ED2224" d="M33.6 50.1h4.3c.7 0 2 0 2.8.5 1.1.7 1.3 1.8 1.3 2.5 0 .4-.1 1.2-.7 1.7-.1.1-.6.6-1.3.8 1.8.3 2.4 1.6 2.4 2.8 0 1.4-.8 2.3-1.7 2.7-.9.5-2.5.5-2.9.5h-4.3V50.1zm2.4 4.7h1.7c.7 0 2 0 2-1.5 0-1.4-1.2-1.4-2-1.4H36v2.9zm0 5h1.7c1.1 0 2.4 0 2.4-1.6s-1.5-1.6-2.7-1.6H36v3.2zm21.174-27.582c.064.055.129.036.184.036.43-.055.861-.064 1.274.055.247.074.458 0 .678-.073.239-.073.239-.073.239.174v.12c-.01.082.027.137.1.174.66.376 1.073.944 1.33 1.65.183.504.266 1.018.238 1.55-.018.256-.018.256-.256.192a5.188 5.188 0 0 0-.541-.137c.11.036.11.128.1.22-.009.165 0 .339 0 .504 0 .064-.018.11-.082.147-.092.036-.12.146-.055.229.046.055.037.091.018.146-.082.184-.174.358-.256.541-.028.055-.074.074-.129.074-.128-.01-.22.082-.201.21.009.056-.019.092-.055.129-.138.12-.285.238-.422.358-.055.055-.11.064-.183.018-.11-.064-.211 0-.23.128 0 .037-.027.064-.055.083-.183.1-.376.201-.559.302-.037.019-.073.019-.12-.009-.09-.064-.173-.027-.183.083 0 .045-.027.073-.064.091-.192.101-.385.202-.568.303-.046.027-.083.009-.11-.028-.028-.036-.064-.055-.11-.027-.046.018-.074.055-.064.11.009.064-.028.092-.083.11-.183.092-.367.183-.54.284-.056.028-.093.018-.13-.018-.073-.064-.164-.037-.164.064-.01.073-.037.11-.101.137a8.22 8.22 0 0 0-.486.266c-.064.037-.11.046-.165-.018-.028-.037-.055-.055-.1-.027-.038.018-.083.036-.065.091.018.064-.01.101-.064.129-.184.091-.367.192-.55.293-.046.027-.083.018-.11-.018-.028-.037-.065-.046-.11-.028-.046.018-.083.046-.074.101.01.055-.027.082-.073.1-.183.093-.358.193-.541.285-.046.028-.092.028-.138-.018-.036-.046-.073-.046-.119-.019-.036.028-.064.046-.055.101.019.055-.027.083-.064.101-.165.092-.33.174-.495.266-.055.027-.11.055-.183 0-.065-.046-.138 0-.147.064-.01.092-.064.11-.138.138-.155.055-.311.1-.495.165.083.009.129.018.193.018-.064.073-.138.064-.202.064h-2.888c-1.137 0-2.265.01-3.401-.009-2.173-.027-4.346 0-6.51-.027-2.237-.028-4.483 0-6.72-.019-2.412-.027-4.814-.009-7.225-.018-.596 0-1.183-.01-1.779-.018a.423.423 0 0 1-.23-.055c.038-.046.093-.01.138-.037-.201-.055-.394-.11-.586-.156-.064-.018-.11-.037-.129-.12-.018-.082-.119-.118-.183-.063-.046.045-.092.045-.147.027a14.036 14.036 0 0 1-.568-.202c-.055-.018-.092-.045-.083-.11.01-.045-.009-.064-.046-.073-.045-.018-.073-.01-.1.028-.046.073-.101.055-.165.036-.175-.064-.349-.119-.523-.183-.064-.018-.1-.055-.092-.12.01-.045-.018-.073-.064-.082-.037-.009-.064 0-.092.037-.036.055-.082.046-.128.027a12.17 12.17 0 0 0-.532-.183c-.064-.018-.119-.046-.137-.12-.019-.063-.083-.09-.138-.036-.055.046-.1.037-.156.018-.174-.064-.348-.119-.522-.183-.055-.018-.101-.037-.11-.12 0-.082-.083-.11-.147-.054a.128.128 0 0 1-.137.018c-.193-.064-.376-.128-.569-.192-.046-.019-.073-.046-.082-.101-.019-.11-.101-.147-.193-.083a.097.097 0 0 1-.11.01c-.193-.083-.385-.175-.578-.257-.055-.028-.064-.064-.073-.12-.01-.1-.064-.137-.165-.1-.046.018-.082.009-.12-.019-.164-.119-.338-.238-.503-.357-.037-.028-.046-.064-.046-.11a.212.212 0 0 0-.211-.248c-.046 0-.073-.018-.092-.055-.11-.165-.22-.339-.33-.504-.027-.046-.046-.083-.009-.138.073-.1.055-.201-.055-.265-.037-.019-.046-.046-.055-.083-.018-.202-.046-.394-.064-.596-.01-.055 0-.11.055-.147.064-.045.064-.183.009-.229-.046-.046-.046-.082-.028-.137.055-.184.101-.367.156-.56.019-.055.037-.1.11-.11.092-.009.147-.183.083-.256-.037-.046-.083-.01-.12 0-.476.137-.953.284-1.43.421-.146.046-.165.028-.155-.119.018-.944.458-1.687 1.164-2.283.467-.394 1.018-.642 1.614-.78l.66-.164a.265.265 0 0 0 .183-.128c.156-.239.33-.477.486-.716.018-.027.064-.064.037-.1a.238.238 0 0 0-.147-.083c-.046-.01-.046.055-.064.083-.055.146-.129.284-.174.43-.101.386-.587.514-.899.395-.192-.074-.403-.083-.605-.12-.092-.018-.183-.027-.275-.045a.126.126 0 0 1-.092-.074c-.091-.201-.091-.21.129-.275.238-.064.485-.137.724-.201a.183.183 0 0 0 .137-.12l.193-.495c.027-.064.01-.091-.046-.119-.128-.064-.247-.137-.376-.21-.064-.037-.082-.074-.046-.147.184-.285.349-.578.532-.853a1.24 1.24 0 0 1 .477-.394c.11-.055.266-.037.394-.046.642-.046 1.293-.019 1.944-.028.229 0 .458.01.687-.055.037-.009.074-.018.101-.009.083.018.129 0 .12-.092 0-.055.036-.1.1-.091.101.018.175-.028.23-.101.155-.193.348-.238.586-.22.312.018.633.009.945.009.1 0 .174.028.238.1.037.047.083.083.12.12.054.064.11.11.21.1.046-.008.092.01.092.065-.01.11.064.11.147.11h3.263c.11 0 .22.018.321.092.046.036.101.027.156.027.871 0 1.733 0 2.604.01.22 0 .45.009.67.018.082 0 .137-.01.137-.11 0-.055.037-.074.082-.074h.175c.055 0 .1.028.1.083 0 .073.046.1.11.092h.175c.073 0 .119-.01.128-.092 0-.046.037-.055.073-.064h.211c.037 0 .074.018.074.055 0 .1.073.1.146.1h1.559c1.091 0 2.182 0 3.273.01.11 0 .147-.028.147-.138a10.53 10.53 0 0 1 0-.76c0-.102-.028-.138-.129-.138-.605 0-1.219-.01-1.824-.019-.11 0-.211.065-.33.046-.074-.009-.11-.027-.101-.1v-.01c.064-.33-.11-.577-.284-.825-.349-.504-.679-1.027-1.027-1.54-.358-.541-.715-1.073-1.073-1.614-.037-.046-.073-.082-.128-.073h-.092c-.21 0-.247-.064-.202-.275.019-.083.074-.064.129-.064h1.21c.083.009.12-.028.12-.12 0-.082-.02-.165.11-.165.045 0 .045-.055.045-.091v-.505a.117.117 0 0 0-.046-.1c-.064-.074-.046-.165.046-.211s.183-.092.284-.138c.046-.018.092-.046.083-.11-.01-.128.11-.128.174-.128s.193-.01.183.128c0 .064.037.092.092.12.083.045.174.082.257.137.091.055.091.137 0 .202a.102.102 0 0 0-.046.091v.523c0 .046.01.092.064.082.101-.009.128.055.12.138-.01.092.008.147.128.137.11 0 .119-.055.119-.137 0-.248 0-.248.247-.312l.101-.027c.101-.019.156-.055.165-.175a.4.4 0 0 1 .312-.357c.183-.055.358.018.468.192.045.065.082.074.155.055.11-.036.266-.027.33-.11.056-.064.01-.21.01-.33v-.724c0-.092.036-.147.128-.128.238.055.367-.147.532-.248.046-.027.027-.092.018-.137-.009-.175.01-.193.174-.193h.459c.082 0 .128-.027.119-.11-.01-.1.027-.165.137-.147.074.01.12-.018.11-.1-.009-.083.037-.101.11-.101h.963c.074 0 .129.018.12.11-.01.064.027.1.091.1.1-.009.147.046.128.138-.009.12.037.147.147.138.083-.01.174-.01.257 0 .092.009.137-.037.137-.12 0-.082 0-.165.129-.155.046 0 .055-.046.046-.083-.01-.092.036-.128.119-.128.32 0 .65 0 .972.009.073 0 .128.018.119.1-.01.083.036.102.11.102.156 0 .165 0 .165.155 0 .083.027.12.12.11h.44c.082 0 .127.037.11.12-.047.238.054.44.192.614.146.183.165.403.174.623.01.147 0 .294-.01.44 0 .065.01.092.083.11.321.046.642.101.954.165.1.019.11-.018.11-.1v-1.522c0-.11.073-.165.156-.12.045.028.055.074.064.12.073.284.128.577.21.861.074.248.11.496.092.752-.009.101.037.138.129.147.357.055.715.12 1.063.183a.724.724 0 0 1 .266.129c.064.036.11.046.184.009.302-.174.623-.01.66.34.009.09.046.127.119.173.23.11.45.239.678.358a.21.21 0 0 1 .11.165c.019.092.065.147.165.165.367.073.651.275.908.55.055.064.11.1.202.092a.252.252 0 0 1 .21.073c.065.064.129.064.211.064h1.064c.156 0 .165 0 .174.165.01.074.046.092.101.092h.394c.083 0 .138.037.129.12-.01.09.036.11.119.11.834.036 1.669.09 2.503.1.394.01.788-.01 1.173.018.477.028.945.01 1.422.019.788.018 1.586.046 2.374.036.266 0 .532-.027.798-.045.11-.01.146.036.146.146-.009.165 0 .321 0 .486 0 .064-.018.101-.091.092-.743-.073-1.495-.037-2.237-.037-1.165 0-2.33.028-3.503.028-.577 0-1.146.018-1.723.046-.78.045-1.559.073-2.338.064-.083 0-.165-.019-.211.082-.01.028-.064.037-.101.055-.12.055-.248.083-.33.202-.046.064-.138.082-.22.082-.046 0-.083 0-.12.037-.091.11-.183.22-.265.33a.107.107 0 0 0-.018.092l.11.412c.009.046.036.065.082.065h.834c.074 0 .092-.046.092-.101-.01-.101.037-.129.138-.129.375 0 .751.01 1.118 0 .11 0 .147.037.147.147-.01.321 0 .642-.01.963 0 .091.028.119.12.119.614-.01 1.228-.018 1.834 0 .293.01.302-.073.293.266 0 .082.037.11.11.11h.092c.082-.01.119.037.119.12 0 .283 0 .558-.01.843 0 .055 0 .11-.054.146-.037.028-.028.074-.028.11v.44c0 .092-.027.147-.128.147-.064 0-.101.01-.101.092s.046.082.11.082c.247.019.504.019.752.019.449 0 .898.027 1.348.027.11 0 .146-.037.146-.147 0-.192.01-.375.01-.568 0-.092-.046-.12-.129-.12-.32 0-.275.02-.275-.283 0-.312-.028-.285.275-.285h.413c.091 0 .137.028.128.129-.01.11 0 .22 0 .32 0 .083-.028.11-.11.11-.238.01-.238.01-.238.248v.477c0 .073.027.11.1.1h.138c.165 0 .21-.036.266-.2a.954.954 0 0 1 .165-.267c.128-.174.33-.284.458-.467.01-.019.028-.028.046-.037.083-.046.165-.128.257-.073.092.045.046.165.046.247.009.202 0 .404 0 .605.009.092.009.184-.138.193zm-21.06 7.17c-.65 0-1.31 0-1.962-.01-.091 0-.119.019-.146.11-.092.285-.22.56-.386.807a2.948 2.948 0 0 1-.641.706c-.028.018-.065.055 0 .073.073.019.073.074.082.138l.028.413c.009.082.036.137.137.128.11-.01.22-.01.321 0s.138-.046.147-.138l.055-.412c.018-.129.046-.147.183-.147.11 0 .129.064.138.156 0 .128.018.257.027.394.01.101.046.156.156.147.1-.01.202-.01.303 0 .11.01.137-.046.146-.138.019-.146.046-.293.065-.449.009-.1.082-.11.155-.11.074 0 .138.01.147.11.01.165.028.321.046.486 0 .073.027.101.1.101h.35c.073 0 .11-.028.118-.1.019-.166.046-.331.083-.487.027-.137.137-.073.22-.092.073-.009.082.056.082.11.01.156.037.312.046.468.01.064.028.101.101.101.128 0 .257-.01.376.01.083.008.12-.038.138-.12.018-.156.055-.312.064-.468.009-.128.11-.082.174-.091.064-.01.12.009.12.1.008.166.027.321.045.486 0 .065.027.101.1.092h.368c.082 0 .11-.046.119-.12.018-.155.046-.31.064-.467.01-.1.073-.1.147-.1s.137 0 .146.1c.01.156.028.312.046.468.01.082.037.128.129.12.119-.01.238 0 .357 0 .064 0 .1-.028.1-.093.02-.155.047-.32.065-.476.01-.129.092-.12.183-.12s.129.046.138.129l.028.45c0 .072.036.11.11.11h.366c.064 0 .092-.028.101-.083.064-.285.073-.294-.174-.459a3.173 3.173 0 0 1-1.238-1.687c-.036-.1-.082-.128-.183-.128-.688-.018-1.339-.018-1.99-.018zm12.9 1.705c-.064-.101-.174-.156-.247-.239a3.529 3.529 0 0 1-.761-1.256c-.028-.091-.074-.128-.174-.128-1.055 0-2.1-.01-3.154-.018-.23 0-.193-.037-.275.192a3.115 3.115 0 0 1-1.137 1.513c-.129.092-.175.193-.156.34.009.063.018.118.018.183 0 .045.018.073.073.073.129-.01.257.018.395.01.064-.01.1-.038.11-.102.018-.156.055-.32.082-.476.019-.12.101-.101.174-.101.074 0 .12.018.129.11.009.146.036.293.046.449.009.1.045.137.146.137.12-.009.239 0 .358 0 .064 0 .11-.018.12-.091.017-.147.045-.294.063-.45.01-.11.055-.137.156-.137.11 0 .156.037.165.138l.028.421c0 .083.027.11.11.11h.357c.074 0 .11-.027.12-.1.018-.147.054-.285.064-.431.009-.129.073-.156.174-.156.119 0 .137.082.137.165l.028.403c0 .073.027.12.12.12h.357c.064 0 .1-.019.11-.092.018-.156.055-.303.064-.459.009-.156.11-.119.192-.119.101-.01.12.055.12.138l.027.412c.01.083.037.128.128.12.12-.01.23 0 .349 0 .073 0 .1-.028.11-.102.027-.165.064-.32.082-.485.019-.12.101-.074.165-.083.065-.01.12 0 .129.092.009.137.036.284.046.421.009.147.018.156.165.156.11 0 .21-.009.32.019.074.018.11-.028.12-.092l.055-.367c0-.192 0-.192.192-.238zm-20.17-.046c-.01-.046-.046-.064-.064-.092a3.422 3.422 0 0 1-.89-1.237c-.046-.12-.036-.275-.147-.34s-.256-.009-.385-.018c-.137-.018-.192.037-.238.165a3.114 3.114 0 0 1-1.018 1.467c-.091.073-.119.147-.1.248l.027.357c.01.073.037.12.128.11.101-.01.202 0 .303 0 .165 0 .156 0 .183-.165.019-.137.046-.284.064-.422.019-.119.101-.082.175-.082.064-.01.119 0 .128.092.01.155.037.311.046.467 0 .083.027.11.11.11.11 0 .22-.01.34 0 .09.01.127-.037.137-.12.018-.146.055-.292.073-.44.01-.1.064-.118.147-.118.082 0 .156 0 .165.11.009.137.027.284.036.421.01.092.028.147.138.138.12-.01.238-.01.357.018.074.019.12-.009.12-.091.018-.138.046-.275.055-.413-.01-.073-.01-.156.11-.165zm-9.526-1.742c-.055-.01-.129-.037-.129.064 0 .074-.064.156.083.184.165.036.165.055.128.22-.027.137-.064.265-.091.403-.019.064-.01.11.064.128.11.037.22.074.33.12.082.036.128.009.165-.065.064-.146.147-.284.21-.421.056-.11.129-.065.202-.046.083.027.11.073.083.156-.046.155-.073.302-.12.458-.018.073.01.1.065.12.12.036.23.082.348.118.064.028.101.01.129-.045.064-.138.146-.266.21-.413.046-.11.11-.092.193-.064.092.027.128.073.1.174-.036.138-.072.284-.11.422-.017.073-.008.128.083.156.101.027.202.064.294.1.073.028.146.028.183-.055.037-.082.101-.155 0-.256-.367-.376-.642-.807-.78-1.32-.027-.101-.072-.12-.173-.12-.486-.009-.981 0-1.467-.018zm35.922.752a.632.632 0 0 1-.028-.074c-.046-.137-.1-.284-.137-.421-.019-.074-.065-.101-.138-.101h-.623c-.083 0-.11.037-.138.1-.11.294-.22.587-.413.844-.11.156-.1.156.01.321.046.064.091.073.156.037.1-.064.21-.12.32-.156.083-.028.092-.073.065-.156-.055-.147-.092-.293-.147-.44-.046-.128.055-.138.12-.183.072-.055.118-.01.155.045.082.129.174.257.257.395.036.055.064.073.128.036.12-.064.238-.119.358-.183.027-.01.064-.018.055-.064z"/></svg>