<svg version="1.2" baseProfile="tiny" xmlns="http://www.w3.org/2000/svg" viewBox="0 0 75 75" overflow="visible" xml:space="preserve"><path fill="#F26723" d="M0 0h75v75H0z"/><path fill="#FDD700" d="M59.688 19.7v17h-26.5v-17h26.5zm-1.5 1.4h-23.6v14.2h23.6V21.1zm-18.4 12.1h-1.4V23.1c.9-.2 1.8-.2 2.8-.2 1.1-.1 2.3.2 3.2.8.6.5.9 1.2.9 1.9 0 1.2-.9 2.3-2.1 2.6.9.3 1.5 1.1 1.6 2.1.2 1 .5 1.9.9 2.8h-1.5c-.3-.8-.6-1.6-.7-2.4-.3-1.4-.9-1.9-2.2-2h-1.4v4.5zm0-9.1v3.7h1.5c1.5 0 2.5-.8 2.5-1.9 0-1.3-1-1.9-2.5-1.9-.5 0-1 0-1.5.1zm8.9 9.1h-1.4V23.1c.9-.2 1.8-.2 2.8-.2 1.1-.1 2.3.2 3.2.8.6.5.9 1.2.9 1.9 0 1.2-.9 2.3-2.1 2.6.9.3 1.5 1.1 1.6 2.1.2 1 .5 1.9.9 2.8h-1.5c-.3-.8-.6-1.6-.7-2.4-.3-1.4-.9-1.9-2.2-2h-1.4v4.5zm0-9.1v3.7h1.5c1.5 0 2.5-.8 2.5-1.9 0-1.3-1-1.9-2.6-1.9-.5 0-.9 0-1.4.1zM20.888 53.1h-1.8V41.2l-2.1 1.4v-1.8c.5-.2 1.8-1.2 2.3-1.7h1.6v14zm10.3-6.9c0 3.6 0 7.2-3.7 7.2s-3.7-3.6-3.7-7.2c0-3.7-.1-7.2 3.7-7.2s3.7 3.5 3.7 7.2zm-5.6.4c0 2.3-.1 5.3 1.9 5.3s1.9-2.9 1.9-5.3c0-3.7 0-6-1.9-6s-1.9 2.3-1.9 6zm21.2-7.9v14.4h-2.5l-5.7-12.5v12.5h-1.6V38.7h2.6l5.6 12.4V38.7h1.6zm10 1.8-7.2 11h7.3v1.6h-9V51l7-10.7h-6.8v-1.6h8.6v1.8zM43.688 13.7h2.5v.8h-2.5v-.8zm3.3 0h2.5v.8h-2.5v-.8zM24.088 22.1c3.3 0 3.7 3.6 3.7 5.6 0 2.6-.5 4.1-1.5 5-.8.7-1.7.8-2.2.8-1.5 0-2.5-.9-3-1.8-.4-.7-.7-1.8-.7-3.8 0-1.5.2-5.8 3.7-5.8zm0 10.2c1.9 0 2.2-2.4 2.2-4.4 0-2.7-.5-4.5-2.1-4.5-1.9 0-2.2 2.5-2.2 4.5 0 2.5.4 4.4 2.1 4.4zm12.2 29.5h2.6v.9h-2.6v-.9z"/></svg>