<svg version="1.2" baseProfile="tiny" xmlns="http://www.w3.org/2000/svg" viewBox="0 0 75 75" overflow="visible" xml:space="preserve"><path fill="#FAA51A" d="M0 0h75v75H0z"/><path fill="#010101" d="M59.688 19.7v17h-26.5v-17h26.5zm-25.1 1.4v13.1l10.9-13.1h-10.9zm.9 14.2h21.8l-10.9-13.1-10.9 13.1zm8.2-5.2c0-1.4 1.2-2.6 2.8-2.6 1.5 0 2.8 1.2 2.8 2.6 0 1.4-1.2 2.6-2.8 2.6-1.6 0-2.8-1.1-2.8-2.6zm14.5-9h-10.9l10.9 13.1V21.1zM24.288 53.1h-1.8V41.2l-2.1 1.4v-1.8c.5-.2 1.8-1.2 2.3-1.7h1.6v14zm8.1 0V38.7h4.3c1.9 0 4 .7 4 4.1 0 3.3-2.6 4-4 4h-2.4v6.4h-1.9zm1.9-7.9h2c.8 0 2.6-.2 2.6-2.5 0-2.2-1.6-2.4-2-2.4h-2.5v4.9zm7.6 3c0-3 .3-5.4 3.8-5.4s3.8 2.4 3.8 5.4c0 4.5-1.7 5.1-3.8 5.1-2.1 0-3.8-.6-3.8-5.1zm5.9-.7c0-2.8-.9-3.4-2.1-3.4s-2.1.6-2.1 3.4c0 3.3.4 4.5 2.1 4.5s2.1-1.2 2.1-4.5zm4.9 5.6h-1.6V38.7h1.6v14.4zM46.088 9.5h1v7.2h-1V9.5zm-22 12.6c3.3 0 3.7 3.6 3.7 5.6 0 2.6-.5 4.1-1.5 5-.8.7-1.7.8-2.2.8-1.5 0-2.5-.9-3-1.8-.4-.7-.7-1.8-.7-3.8 0-1.5.2-5.8 3.7-5.8zm0 10.2c1.9 0 2.2-2.4 2.2-4.4 0-2.7-.5-4.5-2.1-4.5-1.9 0-2.2 2.5-2.2 4.5 0 2.5.4 4.4 2.1 4.4zM21.088 65.5v-8.7h2.6c1.2 0 2.4.4 2.4 2.5 0 2-1.5 2.4-2.4 2.4h-1.5v3.8h-1.1zm1.1-4.7h1.2c.5 0 1.5-.1 1.5-1.5 0-1.3-1-1.5-1.2-1.5h-1.5v3zm4.7 1.8c0-1.8.2-3.2 2.3-3.2s2.3 1.5 2.3 3.2c0 2.7-1 3.1-2.3 3.1s-2.3-.4-2.3-3.1zm3.5-.4c0-1.7-.5-2-1.3-2s-1.3.4-1.3 2c0 2 .3 2.7 1.3 2.7s1.3-.8 1.3-2.7zm3.1 3.3h-1v-8.7h1v8.7zm1.1-8.6h1.1V58h-1.1v-1.1zm1.1 8.6h-1v-6.1h1v6.1zm3 .1c-1.3 0-2.1-.6-2.1-2h1.1c0 .3 0 1.2 1 1.2.6 0 1-.3 1-.9 0-1.1-3-1.1-3-2.9 0-.6.4-1.7 2.1-1.7 1.1 0 2 .5 1.9 1.7h-1.1c0-.6-.3-1-.9-1-.5 0-.9.3-.9.8 0 1.1 3 1 3 2.9 0 1.4-.9 1.9-2.1 1.9zm6.3-.1v-4.1c0-.7-.2-1.3-1.1-1.3-1 0-1.2.8-1.2 1.8v3.6h-1v-8.7h1v3.4c.4-.7.9-.9 1.6-.9 1 0 1.6.5 1.6 1.9v4.3h-.9zm10.1 0h-1.3l-2-3.7-1.9 3.7h-1.2l2.5-4.5-2.4-4.2h1.3l1.8 3.4 1.8-3.4h1.2l-2.3 4.2 2.5 4.5z"/></svg>