<svg version="1.2" baseProfile="tiny" xmlns="http://www.w3.org/2000/svg" viewBox="0 0 75 75" overflow="visible" xml:space="preserve"><path fill="#FFF" d="M0 0h75v75H0z"/><path fill="#ED2224" d="M40.1 53.9c0-.4-.2-2-1.9-2-1.8 0-2.6 1.9-2.6 4.3 0 .7 0 4 2.4 4 1 0 2-.7 2.1-2.2h2.6c0 .7-.1 1.8-1 2.7-1 1.1-2.3 1.3-3.4 1.3-4 0-5.3-2.9-5.3-5.8 0-3.7 2-6.1 5.3-6.1 2.5 0 4.3 1.5 4.3 3.8h-2.5zm17.074-21.68c.064.055.129.037.184.037.43-.055.862-.064 1.274.055.248.073.459 0 .679-.074.238-.073.238-.073.238.175v.119c-.01.082.027.137.1.174.66.376 1.073.944 1.33 1.65.184.505.266 1.018.239 1.55-.019.256-.019.256-.257.192a5.188 5.188 0 0 0-.541-.137c.11.036.11.128.1.22-.008.165 0 .339 0 .504 0 .064-.018.11-.082.147-.091.036-.119.146-.055.229.046.055.037.092.019.147-.083.183-.175.357-.257.54-.028.056-.073.074-.128.074-.129-.01-.22.082-.202.21.009.056-.019.093-.055.13-.138.118-.284.238-.422.357-.055.055-.11.064-.183.018-.11-.064-.211 0-.23.128 0 .037-.027.065-.055.083-.183.1-.375.202-.559.303-.036.018-.073.018-.119-.01-.092-.064-.174-.027-.183.083 0 .046-.028.073-.065.092-.192.1-.385.201-.568.302-.046.028-.082.01-.11-.027-.028-.037-.064-.055-.11-.028-.046.018-.073.055-.064.11.009.064-.028.092-.083.11-.183.092-.366.184-.54.284-.056.028-.092.019-.129-.018-.073-.064-.165-.037-.165.064-.01.074-.037.11-.1.138a8.22 8.22 0 0 0-.487.266c-.064.036-.11.045-.165-.019-.027-.036-.055-.055-.1-.027-.037.018-.083.036-.065.091.018.065-.01.101-.064.129-.183.092-.367.192-.55.293-.046.028-.083.019-.11-.018s-.064-.046-.11-.028-.083.046-.074.101c.01.055-.027.083-.073.101-.183.092-.357.193-.54.284-.047.028-.093.028-.138-.018-.037-.046-.074-.046-.12-.018-.036.027-.064.045-.055.1.019.055-.027.083-.064.101-.165.092-.33.175-.495.266-.055.028-.11.055-.183 0-.064-.046-.138 0-.147.064-.01.092-.064.11-.137.138-.156.055-.312.1-.496.165.083.01.129.018.193.018-.064.074-.138.064-.202.064h-2.888c-1.137 0-2.264.01-3.401-.009-2.173-.027-4.346 0-6.51-.027-2.237-.028-4.483 0-6.72-.019-2.412-.027-4.814-.009-7.225-.018-.596 0-1.183-.01-1.779-.018a.423.423 0 0 1-.229-.055c.037-.046.092-.01.138-.037-.202-.055-.395-.11-.587-.156-.064-.018-.11-.036-.129-.119-.018-.082-.119-.12-.183-.064-.046.046-.092.046-.147.027a14.036 14.036 0 0 1-.568-.201c-.055-.019-.092-.046-.083-.11.01-.046-.009-.065-.045-.074-.046-.018-.074-.009-.101.028-.046.073-.101.055-.165.036-.174-.064-.349-.119-.523-.183-.064-.018-.1-.055-.092-.12.01-.045-.018-.072-.064-.082-.036-.009-.064 0-.091.037-.037.055-.083.046-.129.028a12.17 12.17 0 0 0-.532-.184c-.064-.018-.119-.046-.137-.119-.018-.064-.083-.092-.138-.037-.055.046-.1.037-.155.019-.175-.064-.349-.12-.523-.184-.055-.018-.1-.036-.11-.119 0-.082-.083-.11-.147-.055a.128.128 0 0 1-.137.018c-.193-.064-.376-.128-.569-.192a.118.118 0 0 1-.082-.1c-.019-.111-.101-.148-.193-.083a.097.097 0 0 1-.11.009c-.192-.083-.385-.174-.577-.257-.055-.028-.065-.064-.074-.12-.009-.1-.064-.137-.165-.1-.046.018-.082.01-.119-.018-.165-.12-.34-.239-.504-.358-.037-.027-.046-.064-.046-.11a.212.212 0 0 0-.211-.248c-.046 0-.073-.018-.092-.055-.11-.165-.22-.339-.33-.504-.027-.046-.046-.082-.009-.137.073-.101.055-.202-.055-.266-.037-.019-.046-.046-.055-.083-.018-.201-.046-.394-.064-.596-.01-.055 0-.11.055-.146.064-.046.064-.184.01-.23-.047-.045-.047-.082-.028-.137.055-.183.1-.367.155-.56.019-.054.037-.1.11-.11.092-.009.147-.183.083-.256-.037-.046-.083-.01-.12 0-.476.137-.953.284-1.43.422-.146.045-.164.027-.155-.12.018-.944.458-1.687 1.164-2.282.468-.395 1.018-.642 1.614-.78l.66-.165a.265.265 0 0 0 .183-.128c.156-.239.33-.477.486-.715.018-.028.064-.065.037-.101a.238.238 0 0 0-.147-.083c-.046-.009-.046.055-.064.083-.055.147-.128.284-.174.43-.101.386-.587.514-.899.395-.192-.073-.403-.083-.605-.12-.092-.018-.183-.027-.275-.045a.126.126 0 0 1-.092-.073c-.091-.202-.091-.211.129-.275.238-.065.486-.138.724-.202a.183.183 0 0 0 .138-.12l.192-.494c.028-.065.01-.092-.046-.12-.128-.064-.247-.137-.376-.21-.064-.037-.082-.074-.045-.147.183-.284.348-.578.531-.853a1.24 1.24 0 0 1 .477-.394c.11-.055.266-.037.394-.046.642-.046 1.293-.018 1.944-.027.23 0 .458.009.688-.055.036-.01.073-.019.1-.01.083.019.129 0 .12-.091 0-.055.036-.101.1-.092.101.018.175-.028.23-.1.156-.193.348-.24.586-.22.312.017.633.008.945.008.1 0 .174.028.238.101.037.046.083.083.12.12.054.063.11.11.21.1.046-.009.092.01.092.064-.01.11.064.11.147.11h3.264c.11 0 .22.019.32.092.046.037.101.028.156.028.871 0 1.733 0 2.604.009.22 0 .45.009.67.018.082 0 .137-.01.137-.11 0-.055.037-.073.083-.073h.174c.055 0 .1.027.1.082 0 .074.046.101.11.092h.175c.073 0 .119-.01.128-.092 0-.046.037-.055.074-.064h.21c.037 0 .074.018.074.055 0 .1.073.1.146.1h1.56c1.09 0 2.181 0 3.272.01.11 0 .147-.027.147-.137a10.53 10.53 0 0 1 0-.761c0-.101-.028-.138-.128-.138-.606 0-1.22-.01-1.825-.018-.11 0-.21.064-.33.046-.073-.01-.11-.028-.1-.101v-.01c.063-.33-.11-.577-.285-.825-.349-.504-.679-1.027-1.027-1.54-.358-.54-.715-1.073-1.073-1.614-.036-.045-.073-.082-.128-.073h-.092c-.21 0-.247-.064-.201-.275.018-.083.073-.064.128-.064h1.21c.083.009.12-.028.12-.12 0-.082-.019-.164.11-.164.045 0 .045-.055.045-.092v-.504c0-.037-.009-.074-.046-.101-.064-.074-.045-.165.046-.211s.184-.092.284-.138c.046-.018.092-.045.083-.11-.01-.128.11-.128.174-.128.064 0 .193-.01.184.128 0 .065.036.092.091.12.083.045.174.082.257.137.092.055.092.138 0 .202a.102.102 0 0 0-.046.091v.523c0 .046.01.092.064.083.101-.01.129.055.12.137-.01.092.009.147.128.138.11 0 .119-.055.119-.138 0-.247 0-.247.248-.312l.1-.027c.101-.018.156-.055.165-.174a.4.4 0 0 1 .312-.358c.184-.055.358.018.468.193.046.064.082.073.156.055.11-.037.265-.028.33-.11.055-.065.009-.211.009-.33v-.725c0-.091.037-.146.128-.128.239.055.367-.147.532-.248.046-.027.027-.091.018-.137-.009-.174.01-.193.175-.193h.458c.082 0 .128-.027.12-.11-.01-.1.027-.165.137-.146.073.009.119-.019.11-.101-.01-.083.036-.101.11-.101h.962c.074 0 .129.018.12.11-.01.064.027.1.091.1.101-.008.147.047.129.138-.01.12.036.147.146.138.083-.01.175-.01.257 0 .092.009.138-.037.138-.12s0-.164.128-.155c.046 0 .055-.046.046-.083-.01-.091.036-.128.119-.128.32 0 .65 0 .972.01.073 0 .128.017.119.1-.01.082.037.1.11.1.156 0 .165 0 .165.157 0 .082.028.119.12.11h.44c.082 0 .128.036.11.119-.047.238.054.44.192.614.147.183.165.404.174.624.01.146 0 .293-.01.44 0 .064.01.091.083.11.321.046.642.1.954.165.1.018.11-.019.11-.101v-1.522c0-.11.073-.165.156-.12.046.028.055.074.064.12.073.284.128.578.21.862.074.247.11.495.093.752-.01.1.036.137.128.146.357.055.715.12 1.063.184a.706.706 0 0 1 .266.128c.065.037.11.046.184.01.302-.175.623-.01.66.338.009.092.046.129.119.175.23.11.45.238.678.357a.21.21 0 0 1 .11.165c.019.092.065.147.166.165.366.074.65.275.907.55.055.064.11.101.202.092a.252.252 0 0 1 .21.073c.065.065.13.065.212.065h1.063c.156 0 .165 0 .174.165.01.073.046.091.101.091h.394c.083 0 .138.037.129.12-.01.091.037.11.119.11.834.036 1.669.091 2.503.1.394.01.789-.009 1.174.019.476.027.944.009 1.42.018.79.018 1.587.046 2.375.037.266 0 .532-.028.798-.046.11-.01.147.036.147.147-.01.165 0 .32 0 .485 0 .065-.019.101-.092.092-.743-.073-1.494-.037-2.237-.037-1.165 0-2.329.028-3.502.028-.578 0-1.147.018-1.724.046-.78.046-1.559.073-2.338.064-.083 0-.165-.018-.211.082-.01.028-.064.037-.1.055-.12.056-.248.083-.33.202-.047.064-.138.083-.22.083-.047 0-.083 0-.12.036-.092.11-.183.22-.266.33a.107.107 0 0 0-.018.092l.11.413c.009.046.036.064.082.064h.835c.073 0 .091-.046.091-.101-.009-.1.037-.128.138-.128.376 0 .752.009 1.118 0 .11 0 .147.036.147.146-.01.321 0 .642-.01.963 0 .092.028.12.12.12.614-.01 1.229-.02 1.834 0 .293.008.302-.074.293.265 0 .083.037.11.11.11h.092c.082-.009.119.037.119.12 0 .284 0 .559-.01.843 0 .055 0 .11-.054.147-.037.027-.028.073-.028.11v.44c0 .091-.027.146-.128.146-.064 0-.1.01-.1.092 0 .083.045.083.11.083.247.018.503.018.75.018.45 0 .9.027 1.349.027.11 0 .146-.036.146-.146 0-.193.01-.376.01-.569 0-.091-.046-.119-.129-.119-.32 0-.275.018-.275-.284 0-.312-.027-.284.275-.284h.413c.091 0 .137.027.128.128-.009.11 0 .22 0 .32 0 .083-.027.11-.11.11-.238.01-.238.01-.238.248v.477c0 .074.027.11.1.101h.138c.165 0 .211-.037.266-.202.037-.1.1-.183.165-.266.128-.174.33-.284.458-.467.01-.018.028-.028.046-.037.083-.046.165-.128.257-.073.092.046.046.165.046.247.009.202 0 .404 0 .606.009.091.009.183-.138.192zm-21.06 7.17c-.65 0-1.31 0-1.962-.01-.091 0-.119.019-.146.11-.092.285-.22.56-.385.807a2.948 2.948 0 0 1-.642.706c-.028.019-.064.055 0 .074.073.018.073.073.082.137l.028.413c.009.082.037.137.137.128.11-.009.22-.009.321 0 .101.01.138-.046.147-.137l.055-.413c.018-.128.046-.147.183-.147.11 0 .129.065.138.156 0 .129.018.257.027.395.01.1.046.155.156.146.101-.009.202-.009.303 0 .11.01.137-.046.146-.137.019-.147.046-.294.065-.45.009-.1.082-.11.156-.11s.137.01.146.11c.01.165.028.321.046.486 0 .074.028.101.1.101h.35c.073 0 .11-.027.119-.1.018-.166.045-.33.082-.487.028-.137.138-.073.22-.091.073-.01.083.055.083.11.009.156.036.311.045.467.01.065.028.101.101.101.129 0 .257-.009.376.01.083.009.12-.037.138-.12.018-.156.055-.312.064-.467.01-.129.11-.083.174-.092.064-.01.12.01.12.1.008.166.027.322.045.487 0 .064.028.1.101.091h.367c.082 0 .11-.045.119-.119.018-.156.046-.312.064-.467.01-.101.073-.101.147-.101s.137 0 .146.1c.01.156.028.312.046.468.01.083.037.129.129.12.119-.01.238 0 .357 0 .064 0 .101-.028.101-.092.018-.156.046-.321.064-.477.01-.128.092-.12.184-.12s.128.047.137.13l.028.448c0 .074.036.11.11.11h.366c.065 0 .092-.027.101-.082.064-.284.074-.294-.174-.459a3.173 3.173 0 0 1-1.238-1.687c-.036-.1-.082-.128-.183-.128-.688-.018-1.339-.018-1.99-.018zm12.9 1.705c-.064-.1-.174-.156-.247-.238a3.529 3.529 0 0 1-.761-1.256c-.028-.092-.073-.129-.174-.129-1.055 0-2.1-.009-3.154-.018-.23 0-.193-.037-.275.192a3.115 3.115 0 0 1-1.137 1.513c-.129.092-.174.193-.156.34.01.064.018.119.018.183 0 .046.019.073.074.073.128-.009.256.019.394.01.064-.01.1-.037.11-.101.018-.156.055-.321.082-.477.019-.12.101-.101.175-.101.073 0 .119.018.128.11.01.147.037.293.046.45.009.1.046.137.147.137.119-.01.238 0 .357 0 .064 0 .11-.019.12-.092.018-.147.045-.293.063-.45.01-.11.055-.137.156-.137.11 0 .156.037.165.138l.028.422c0 .082.027.11.11.11h.357c.074 0 .11-.028.12-.101.018-.147.055-.285.064-.431.009-.129.073-.156.174-.156.12 0 .138.082.138.165l.027.403c0 .074.028.12.12.12h.357c.064 0 .1-.019.11-.092.018-.156.055-.303.064-.459.01-.155.11-.119.193-.119.1-.009.119.055.119.138l.027.412c.01.083.037.129.129.12.119-.01.229 0 .348 0 .073 0 .1-.028.11-.101.028-.165.064-.321.083-.486.018-.12.1-.074.165-.083.064-.009.119 0 .128.092.01.137.037.284.046.422.009.146.018.156.165.156.11 0 .21-.01.32.018.074.018.11-.028.12-.092.018-.119.037-.238.055-.367 0-.192 0-.192.192-.238zm-20.17-.046c-.01-.046-.046-.064-.064-.091a3.422 3.422 0 0 1-.89-1.238c-.045-.12-.036-.275-.146-.34s-.257-.009-.385-.018c-.138-.018-.193.037-.239.165a3.114 3.114 0 0 1-1.017 1.467c-.092.074-.12.147-.101.248l.027.357c.01.074.037.12.129.11.1-.009.201 0 .302 0 .165 0 .156 0 .183-.165.019-.137.046-.284.065-.421.018-.12.1-.083.174-.083.064-.01.119 0 .128.092.01.156.037.311.046.467 0 .083.028.11.11.11.11 0 .22-.009.34 0 .091.01.128-.036.137-.119.018-.147.055-.293.073-.44.01-.1.064-.12.147-.12.082 0 .156 0 .165.11.009.138.027.285.037.423.009.091.027.146.137.137.12-.009.238-.009.358.019.073.018.119-.01.119-.092.018-.138.046-.275.055-.413-.01-.073-.01-.156.11-.165zm-9.526-1.742c-.055-.009-.128-.036-.128.064 0 .074-.065.156.082.184.165.036.165.055.128.22-.027.137-.064.266-.091.403-.019.064-.01.11.064.129.11.036.22.073.33.119.082.036.128.009.165-.064.064-.147.147-.285.21-.422.056-.11.13-.064.203-.046.082.028.11.073.082.156-.046.156-.073.302-.12.458-.017.074.01.101.065.12.12.036.23.082.348.119.065.027.101.009.129-.046.064-.138.147-.266.21-.413.047-.11.11-.091.193-.064.092.028.129.073.101.174-.037.138-.073.285-.11.422-.018.073-.01.128.083.156.1.027.201.064.293.1.073.028.147.028.183-.054.037-.083.101-.156 0-.257-.366-.376-.641-.807-.779-1.32-.027-.101-.073-.12-.174-.12-.486-.009-.981 0-1.467-.018zm35.922.752a.632.632 0 0 1-.028-.073c-.046-.138-.1-.285-.137-.422-.019-.073-.064-.1-.138-.1h-.623c-.083 0-.11.036-.138.1-.11.293-.22.587-.412.843-.11.156-.101.156.009.321.046.065.092.074.156.037.1-.064.21-.12.32-.156.083-.027.092-.073.065-.156-.055-.146-.092-.293-.147-.44-.046-.128.055-.137.12-.183.073-.055.118-.01.155.046.083.128.174.256.257.394.037.055.064.073.128.037.12-.065.239-.12.358-.184.027-.009.064-.018.055-.064z"/></svg>