<svg version="1.2" baseProfile="tiny" xmlns="http://www.w3.org/2000/svg" viewBox="0 0 75 75" overflow="visible" xml:space="preserve"><path fill="#FFF" d="M0 0h75v75H0z"/><path fill="#ED2224" d="m39.3 50.1 4 11.6h-2.5l-.8-2.5h-4.6l-.9 2.5h-2.4l4.2-11.6h3zm.1 7.2-1.6-4.9-1.7 4.9h3.3z"/><path fill-rule="evenodd" fill="#ED2224" d="M65 34.2v-.4l-.7-.5-.1-.1h-1.5l.5-.7h-.9c-.1-.1-.2-.4-.4-.4-.1-.4-.1-.7-.2-1.1-.9 0-1.4.1-1.6.4-.4-.5-2.2-.6-2.7-.1-.2-.4-.9-.5-1.4-.2-.2-.4-.9-.2-1.1.2l-2-1.2H49l-.9.6h-.6V30h.2v-1.2h.6l.1.1h.9l.1-.1h.1v-.1h.2v-.2l1.7-2.9h.1c.1-.2.4-.5.4-.7v-.1c.6-.2 0-.5-.5-.2-.2.1-.4-.1-.5.1-.1.1-.2 0-.4-.1h-.1v-.1c.1 0 .1-.1 0-.1v-.6h.1v-.2h-.1v-.1H50v-.6h.1v-.2H50v-.1h-.2v.1h-.1v.2h.1v.6h-.2v1.4h-.2v-.1h-.2v-.2H49c-.1-.2-.4-.5-.6-.5s-.5.4-.7.2c-1-.1-2-.5-2.9-1.1h-.1c-.7-.4-1.1-.5-1.1.4-.2.2-.9.2-1.2.5-.4.2-.9.4-1.4.1-.1 0-.1.1-.2.2h-.2c0-.1-.1-.1-.2-.2-.1 0-.4 0-.4.1v.2c-.2.1-.5 0-.6.1-.1 0-.1 0-.1.1 0-.2-.4-.4-.6-.2-.1.1-.1.2 0 .4h-.1l-.1.4c-.1.1-.9.5-1.1.7H35v.4h-.6v.4H27v.6l10 .1c.1.4.2.5.5.7l-.1.5h-1.2.5v-.2h-1.9v1.4H36v.1h1.1v.1h-6.2v.7H30l-1.6 1h-.7v.5h-.6v.7h.4v1h-1.9v-.4l-.4.1v.2c-.4.1-.6.2-1 .5l-1 .4v.2l1.5.7v.7c.1 1.2-.7 2-1.9 2.4-.4.1-.1.6-.4.6-.1 0-.2-.2-.4-.2-.1-.1-.4 0-.5.1-.1.1 0 .5-.2.5-.4-.1-.5-.5-.9-.1-.1.1 0 .4-.2.5-.2 0-.4-.5-.7-.4-1 .2-2 1-3.1 1-.1 0-.4 0-.5.1 0 .1-.1.4-.2.2-.2-.4-.6-.9-1-.2 0 .1-.1.2-.2.4-.4-.9-2.1-.4-3-.5-.1 0-.4 0-.5.1-.1.1-.1.4-.4.4-.6-1-1-.5-1 .4h6.6c.4 0 .9.1 1.2-.2.4 0 .9-.1 1.1-.4.4-.1.9-.2 1.2-.4.7-.1 1.4-.5 2.1-.6.1-.1.2-.2.4-.1.2-.1.6-.2.7-.4.5 0 .5-.2 1-.2.1-.2.2-.2.5-.2.2-.2.1-.1.5-.4.1-.1.1-.2.1-.4.7 1 2.2 1.1 3.2.5h3.1v.4h.4v.2c0 2.6 3.6 2.9 4.4.7h.5c.4 1.9 2.9 2 3.6.5h.5c.9 1.6 3.7 1.2 3.7-1 0-.4-.1-.6-.2-1h1.9c-.1.2-.2.6-.2 1 0 1.7 1.9 2.2 3 1.6 0 .1-.1.4-.1.6h6.6c.5.1.9.1 1.2-.2.4 0 .7-.1 1.1-.4.4 0 .9-.2 1.2-.5.6-.1 1.5-.5 2.1-.7.1-.2.2-.2.4-.1.2-.1.6-.2.7-.5.2 0 .4 0 .5-.1.1-.1.2-.1.4-.1.1-.1.1-.2.2-.2s.2 0 .2-.1c.1-.2.1-.2.4-.4.1-.2.1-.4.4-.6.2-.4.2-.9.4-1.2.1-.2.1-.6-.1-.7-.1-.5-.4-.7-.5-.9v-.5h1.4l-.4-.5zm-14.8-8.4-.5.6.1.1-.4.5v-1.9h.6l.2.7zm.1-.6h.4l-.4.5v-.5zm1.4-.5c0 .1-.1.2-.1.4-.1.1-.1.2 0 .2l-1.9 2.9h-.2v-.6l.5-.9 1.4-2c.2-.2.3 0 .3 0zm-.9.2h-.5v-.2h.1l.1.1c.2.1.2.1.3.1zm-.7-.2.1.2h-.6v-.2h.5zm-.9 16.7c-.1-.2-.4-.5-.5-.5.1-.1.1-.2.2-.2l.5-.1c.1.1.1.4.2.5-.2-.2-.2.2-.4.3zm4.8 0c-.2-.5-.6-1-1-.2 0 .1-.1.2-.2.4 0-.2-.1-.4-.2-.5.4-.2.6-.6.6-1.2h.5c.1.5.5.9.9 1.1-.3 0-.3.4-.6.4zm6.9-2.1c-.1 0-.2-.2-.4-.4-.2-.1-.5 0-.6.1s0 .5-.2.6c-.4-.2-.5-.6-.9-.1-.1.1 0 .5-.2.6-.2-.1-.4-.4-.7-.4 0-.2.1-.5.1-.7s0-.4-.1-.5l1-.4h.9c.4.4 1 .5 1.5.5-.3.2-.1.7-.4.7z"/></svg>