<svg version="1.2" baseProfile="tiny" xmlns="http://www.w3.org/2000/svg" viewBox="0 0 75 75" overflow="visible" xml:space="preserve"><path fill="#FAA51A" d="M0 0h75v75H0z"/><path fill="#010101" d="M59.688 19.7v17h-26.5v-17h26.5zm-25.1 15.6h4.7c-1.9 0-3.5-1.6-3.5-3.5 0-1.7 1.1-3 2.7-3.4-1.3-.7-2.2-2.1-2.2-3.7 0-1.5.8-2.7 1.9-3.5h-3.6v14.1zm4.7-5.6c-1.2 0-2.1 1-2.1 2.1 0 1.2 1 2.1 2.1 2.1 1.2 0 2.1-1 2.1-2.1s-.9-2.1-2.1-2.1zm15.8-5c0-1.6-1.2-2.9-2.8-2.9h-11.8c-1.5 0-2.8 1.3-2.8 2.8 0 1.6 1.2 2.9 2.8 2.9h11.8c1.6 0 2.8-1.2 2.8-2.8zm-10.8 4.2h-2.9c.9.6 1.4 1.7 1.4 2.8 0 1.9-1.6 3.5-3.5 3.5h7c-1.9 0-3.5-1.6-3.5-3.5.1-1.1.7-2.1 1.5-2.8zm2.1.8c-1.2 0-2.1 1-2.1 2.1 0 1.2 1 2.1 2.1 2.1 1.2 0 2.1-1 2.1-2.1s-.9-2.1-2.1-2.1zm11.8 5.6V21.1h-3.6c1.2.8 1.9 2.1 1.9 3.6 0 1.6-.9 2.9-2.1 3.6 1.5.4 2.7 1.8 2.7 3.4 0 2-1.6 3.5-3.5 3.5s-3.5-1.6-3.5-3.5c0-1.2.6-2.2 1.4-2.8h-2.9c.9.6 1.4 1.7 1.4 2.8 0 1.9-1.6 3.5-3.5 3.5h11.7zm-6.8-3.5c0 1.2 1 2.1 2.1 2.1s2.1-1 2.1-2.1-1-2.1-2.1-2.1c-1.2 0-2.1.9-2.1 2.1zM18.688 53.1h-1.8V41.2l-2.1 1.4v-1.8c.5-.2 1.8-1.2 2.3-1.7h1.6v14zm7.8 0V38.7h7.2v1.6h-5.3v4.6h5v1.6h-5v6.6h-1.9zm7.8 0V38.7h7.2v1.6h-5.3v4.6h5v1.6h-5v6.6h-1.9zm7.9 0V38.7h7.2v1.6h-5.3v4.6h5v1.6h-5v6.6h-1.9zm14.4-10.4c0-.8 0-1.6-.4-2.1s-1.2-.6-1.6-.6c-1.5 0-2.1.9-2.2 1.1-.1.2-.4.5-.4 3V48c0 3.5 1.2 4 2.6 4 .6 0 2.3-.2 2.3-3h1.9c.1 4.6-3.1 4.6-4.1 4.6-1.8 0-4.6-.1-4.6-5.7v-4.1c0-4.1 1.8-5.2 4.6-5.2 2.9 0 4 1.5 3.8 4.3h-1.9zM44.688 9.5h1v7.2h-1V9.5zm2.8 0h1v7.2h-1V9.5zM24.088 24.1c-.7.6-1.8 1.2-2.6 1.6v-1.6c1-.5 2.1-1.2 2.7-1.7h1.4v11.1h-1.5v-9.4zM28.288 65.5h-1.1v-7.1l-1.2.8v-1.1c.3-.1 1.1-.7 1.4-1h.9v8.4zm4.4 0v-8.7h4.3v1h-3.2v2.8h3v1h-3v4h-1.1zm4.9 0v-8.7h4.3v1h-3.2v2.8h3v1h-3v4h-1.1zm12.6 0h-1.3l-2-3.7-1.9 3.7h-1.2l2.5-4.5-2.4-4.2h1.3l1.8 3.4 1.8-3.4h1.2l-2.3 4.2 2.5 4.5z"/></svg>